{
  "jsonPath": "Rock/Italian Pop Rock/Ligabue/ho-messo-via.json",
  "path": "Rock\\Italian Pop Rock\\Ligabue\\Ho messo via.mid",
  "name": "Ho messo via",
  "difficulty": "Advanced",
  "bpm": 64,
  "notes": [
    {
      "midi": 81,
      "hit": false,
      "t": 5625,
      "d": 234.375,
      "v": 110
    },
    {
      "midi": 67,
      "hit": false,
      "t": 5625,
      "d": 1171.875,
      "v": 87
    },
    {
      "midi": 83,
      "hit": false,
      "t": 5859.375,
      "d": 585.9375,
      "v": 111
    },
    {
      "midi": 79,
      "hit": false,
      "t": 6093.75,
      "d": 351.5625,
      "v": 87
    },
    {
      "midi": 91,
      "hit": false,
      "t": 6328.125,
      "d": 468.75,
      "v": 110
    },
    {
      "midi": 79,
      "hit": false,
      "t": 6562.5,
      "d": 585.9375,
      "v": 87
    },
    {
      "midi": 86,
      "hit": false,
      "t": 6796.875,
      "d": 185.546875,
      "v": 90
    },
    {
      "midi": 91,
      "hit": false,
      "t": 7031.25,
      "d": 468.75,
      "v": 111
    },
    {
      "midi": 86,
      "hit": false,
      "t": 7031.25,
      "d": 820.3125,
      "v": 93
    },
    {
      "midi": 67,
      "hit": false,
      "t": 7031.25,
      "d": 1523.4375,
      "v": 86
    },
    {
      "midi": 79,
      "hit": false,
      "t": 7265.625,
      "d": 351.5625,
      "v": 86
    },
    {
      "midi": 90,
      "hit": false,
      "t": 7500,
      "d": 468.75,
      "v": 110
    },
    {
      "midi": 79,
      "hit": false,
      "t": 7734.375,
      "d": 351.5625,
      "v": 87
    },
    {
      "midi": 86,
      "hit": false,
      "t": 7968.75,
      "d": 468.75,
      "v": 95
    },
    {
      "midi": 79,
      "hit": false,
      "t": 8203.125,
      "d": 820.3125,
      "v": 86
    },
    {
      "midi": 84,
      "hit": false,
      "t": 8437.5,
      "d": 820.3125,
      "v": 110
    },
    {
      "midi": 88,
      "hit": false,
      "t": 8437.5,
      "d": 1054.6875,
      "v": 111
    },
    {
      "midi": 67,
      "hit": false,
      "t": 8671.875,
      "d": 585.9375,
      "v": 86
    },
    {
      "midi": 72,
      "hit": false,
      "t": 8906.25,
      "d": 703.125,
      "v": 87
    },
    {
      "midi": 79,
      "hit": false,
      "t": 9140.625,
      "d": 820.3125,
      "v": 87
    },
    {
      "midi": 84,
      "hit": false,
      "t": 9375,
      "d": 351.5625,
      "v": 98
    },
    {
      "midi": 88,
      "hit": false,
      "t": 9609.375,
      "d": 208.984375,
      "v": 99
    },
    {
      "midi": 84,
      "hit": false,
      "t": 9843.75,
      "d": 468.75,
      "v": 110
    },
    {
      "midi": 88,
      "hit": false,
      "t": 9843.75,
      "d": 468.75,
      "v": 110
    },
    {
      "midi": 79,
      "hit": false,
      "t": 10078.125,
      "d": 351.5625,
      "v": 87
    },
    {
      "midi": 86,
      "hit": false,
      "t": 10312.5,
      "d": 468.75,
      "v": 111
    },
    {
      "midi": 90,
      "hit": false,
      "t": 10312.5,
      "d": 468.75,
      "v": 110
    },
    {
      "midi": 79,
      "hit": false,
      "t": 10546.875,
      "d": 351.5625,
      "v": 86
    },
    {
      "midi": 88,
      "hit": false,
      "t": 10781.25,
      "d": 468.75,
      "v": 111
    },
    {
      "midi": 91,
      "hit": false,
      "t": 10781.25,
      "d": 468.75,
      "v": 111
    },
    {
      "midi": 79,
      "hit": false,
      "t": 11015.625,
      "d": 234.375,
      "v": 86
    },
    {
      "midi": 83,
      "hit": false,
      "t": 11250,
      "d": 820.3125,
      "v": 111
    },
    {
      "midi": 86,
      "hit": false,
      "t": 11250,
      "d": 1289.0625,
      "v": 110
    },
    {
      "midi": 64,
      "hit": false,
      "t": 11250,
      "d": 1523.4375,
      "v": 86
    },
    {
      "midi": 71,
      "hit": false,
      "t": 11484.375,
      "d": 1171.875,
      "v": 87
    },
    {
      "midi": 76,
      "hit": false,
      "t": 11718.75,
      "d": 1054.6875,
      "v": 87
    },
    {
      "midi": 79,
      "hit": false,
      "t": 11953.125,
      "d": 585.9375,
      "v": 86
    },
    {
      "midi": 83,
      "hit": false,
      "t": 12187.5,
      "d": 351.5625,
      "v": 111
    },
    {
      "midi": 88,
      "hit": false,
      "t": 12421.875,
      "d": 351.5625,
      "v": 102
    },
    {
      "midi": 79,
      "hit": false,
      "t": 12656.25,
      "d": 468.75,
      "v": 86
    },
    {
      "midi": 83,
      "hit": false,
      "t": 12656.25,
      "d": 468.75,
      "v": 111
    },
    {
      "midi": 76,
      "hit": false,
      "t": 12890.625,
      "d": 351.5625,
      "v": 87
    },
    {
      "midi": 81,
      "hit": false,
      "t": 13125,
      "d": 468.75,
      "v": 86
    },
    {
      "midi": 84,
      "hit": false,
      "t": 13125,
      "d": 468.75,
      "v": 110
    },
    {
      "midi": 76,
      "hit": false,
      "t": 13359.375,
      "d": 351.5625,
      "v": 87
    },
    {
      "midi": 83,
      "hit": false,
      "t": 13593.75,
      "d": 468.75,
      "v": 87
    },
    {
      "midi": 86,
      "hit": false,
      "t": 13593.75,
      "d": 468.75,
      "v": 110
    },
    {
      "midi": 76,
      "hit": false,
      "t": 13828.125,
      "d": 185.546875,
      "v": 86
    },
    {
      "midi": 79,
      "hit": false,
      "t": 14062.5,
      "d": 585.9375,
      "v": 110
    },
    {
      "midi": 76,
      "hit": false,
      "t": 14062.5,
      "d": 703.125,
      "v": 99
    },
    {
      "midi": 67,
      "hit": false,
      "t": 14296.875,
      "d": 1289.0625,
      "v": 87
    },
    {
      "midi": 72,
      "hit": false,
      "t": 14531.25,
      "d": 1054.6875,
      "v": 87
    },
    {
      "midi": 84,
      "hit": false,
      "t": 14765.625,
      "d": 234.375,
      "v": 101
    },
    {
      "midi": 79,
      "hit": false,
      "t": 14765.625,
      "d": 703.125,
      "v": 100
    },
    {
      "midi": 83,
      "hit": false,
      "t": 15000,
      "d": 468.75,
      "v": 110
    },
    {
      "midi": 74,
      "hit": false,
      "t": 15234.375,
      "d": 351.5625,
      "v": 86
    },
    {
      "midi": 81,
      "hit": false,
      "t": 15468.75,
      "d": 703.125,
      "v": 111
    },
    {
      "midi": 74,
      "hit": false,
      "t": 15703.125,
      "d": 1054.6875,
      "v": 87
    },
    {
      "midi": 69,
      "hit": false,
      "t": 15937.5,
      "d": 820.3125,
      "v": 86
    },
    {
      "midi": 79,
      "hit": false,
      "t": 16171.875,
      "d": 234.375,
      "v": 110
    },
    {
      "midi": 78,
      "hit": false,
      "t": 16406.25,
      "d": 468.75,
      "v": 111
    },
    {
      "midi": 79,
      "hit": false,
      "t": 16875,
      "d": 703.125,
      "v": 102
    },
    {
      "midi": 43,
      "hit": false,
      "t": 16875,
      "d": 2812.5,
      "v": 103
    },
    {
      "midi": 62,
      "hit": false,
      "t": 17109.375,
      "d": 703.125,
      "v": 74
    },
    {
      "midi": 67,
      "hit": false,
      "t": 17343.75,
      "d": 703.125,
      "v": 75
    },
    {
      "midi": 74,
      "hit": false,
      "t": 17578.125,
      "d": 912.109375,
      "v": 74
    },
    {
      "midi": 79,
      "hit": false,
      "t": 17812.5,
      "d": 234.375,
      "v": 91
    },
    {
      "midi": 78,
      "hit": false,
      "t": 18046.875,
      "d": 234.375,
      "v": 83
    },
    {
      "midi": 79,
      "hit": false,
      "t": 18281.25,
      "d": 208.984375,
      "v": 92
    },
    {
      "midi": 67,
      "hit": false,
      "t": 18515.625,
      "d": 443.359375,
      "v": 99
    },
    {
      "midi": 71,
      "hit": false,
      "t": 18515.625,
      "d": 703.125,
      "v": 98
    },
    {
      "midi": 74,
      "hit": false,
      "t": 18515.625,
      "d": 937.5,
      "v": 98
    },
    {
      "midi": 79,
      "hit": false,
      "t": 18515.625,
      "d": 937.5,
      "v": 99
    },
    {
      "midi": 62,
      "hit": false,
      "t": 18750,
      "d": 703.125,
      "v": 83
    },
    {
      "midi": 67,
      "hit": false,
      "t": 18984.375,
      "d": 703.125,
      "v": 82
    },
    {
      "midi": 72,
      "hit": false,
      "t": 19218.75,
      "d": 234.375,
      "v": 90
    },
    {
      "midi": 71,
      "hit": false,
      "t": 19453.125,
      "d": 234.375,
      "v": 83
    },
    {
      "midi": 72,
      "hit": false,
      "t": 19687.5,
      "d": 654.296875,
      "v": 92
    },
    {
      "midi": 48,
      "hit": false,
      "t": 19687.5,
      "d": 2812.5,
      "v": 103
    },
    {
      "midi": 55,
      "hit": false,
      "t": 19921.875,
      "d": 703.125,
      "v": 54
    },
    {
      "midi": 62,
      "hit": false,
      "t": 20156.25,
      "d": 703.125,
      "v": 67
    },
    {
      "midi": 72,
      "hit": false,
      "t": 20390.625,
      "d": 703.125,
      "v": 84
    },
    {
      "midi": 74,
      "hit": false,
      "t": 20625,
      "d": 234.375,
      "v": 93
    },
    {
      "midi": 79,
      "hit": false,
      "t": 20859.375,
      "d": 185.546875,
      "v": 101
    },
    {
      "midi": 74,
      "hit": false,
      "t": 21068.359375,
      "d": 234.375,
      "v": 92
    },
    {
      "midi": 79,
      "hit": false,
      "t": 21093.75,
      "d": 443.359375,
      "v": 83
    },
    {
      "midi": 76,
      "hit": false,
      "t": 21166.015625,
      "d": 396.484375,
      "v": 104
    },
    {
      "midi": 74,
      "hit": false,
      "t": 21562.5,
      "d": 443.359375,
      "v": 104
    },
    {
      "midi": 79,
      "hit": false,
      "t": 21562.5,
      "d": 443.359375,
      "v": 83
    },
    {
      "midi": 72,
      "hit": false,
      "t": 22031.25,
      "d": 443.359375,
      "v": 105
    },
    {
      "midi": 79,
      "hit": false,
      "t": 22031.25,
      "d": 443.359375,
      "v": 82
    },
    {
      "midi": 64,
      "hit": false,
      "t": 22500,
      "d": 419.921875,
      "v": 93
    },
    {
      "midi": 67,
      "hit": false,
      "t": 22500,
      "d": 654.296875,
      "v": 93
    },
    {
      "midi": 71,
      "hit": false,
      "t": 22500,
      "d": 654.296875,
      "v": 92
    },
    {
      "midi": 52,
      "hit": false,
      "t": 22500,
      "d": 2812.5,
      "v": 102
    },
    {
      "midi": 64,
      "hit": false,
      "t": 22968.75,
      "d": 468.75,
      "v": 74
    },
    {
      "midi": 67,
      "hit": false,
      "t": 23203.125,
      "d": 468.75,
      "v": 91
    },
    {
      "midi": 71,
      "hit": false,
      "t": 23437.5,
      "d": 468.75,
      "v": 94
    },
    {
      "midi": 76,
      "hit": false,
      "t": 23671.875,
      "d": 199.21875,
      "v": 95
    },
    {
      "midi": 76,
      "hit": false,
      "t": 23906.25,
      "d": 468.75,
      "v": 95
    },
    {
      "midi": 83,
      "hit": false,
      "t": 23906.25,
      "d": 468.75,
      "v": 106
    },
    {
      "midi": 71,
      "hit": false,
      "t": 24140.625,
      "d": 207.03125,
      "v": 75
    },
    {
      "midi": 71,
      "hit": false,
      "t": 24375,
      "d": 468.75,
      "v": 90
    },
    {
      "midi": 79,
      "hit": false,
      "t": 24375,
      "d": 468.75,
      "v": 102
    },
    {
      "midi": 64,
      "hit": false,
      "t": 24609.375,
      "d": 234.375,
      "v": 75
    },
    {
      "midi": 76,
      "hit": false,
      "t": 24843.75,
      "d": 419.921875,
      "v": 97
    },
    {
      "midi": 83,
      "hit": false,
      "t": 24843.75,
      "d": 419.921875,
      "v": 108
    },
    {
      "midi": 71,
      "hit": false,
      "t": 25078.125,
      "d": 234.375,
      "v": 74
    },
    {
      "midi": 83,
      "hit": false,
      "t": 25312.5,
      "d": 468.75,
      "v": 108
    },
    {
      "midi": 48,
      "hit": false,
      "t": 25312.5,
      "d": 1406.25,
      "v": 103
    },
    {
      "midi": 67,
      "hit": false,
      "t": 25312.5,
      "d": 1406.25,
      "v": 103
    },
    {
      "midi": 76,
      "hit": false,
      "t": 25312.5,
      "d": 1406.25,
      "v": 102
    },
    {
      "midi": 81,
      "hit": false,
      "t": 25781.25,
      "d": 234.375,
      "v": 95
    },
    {
      "midi": 79,
      "hit": false,
      "t": 26015.625,
      "d": 638.671875,
      "v": 96
    },
    {
      "midi": 79,
      "hit": false,
      "t": 26718.75,
      "d": 234.375,
      "v": 67
    },
    {
      "midi": 66,
      "hit": false,
      "t": 26718.75,
      "d": 654.296875,
      "v": 79
    },
    {
      "midi": 69,
      "hit": false,
      "t": 26718.75,
      "d": 654.296875,
      "v": 78
    },
    {
      "midi": 50,
      "hit": false,
      "t": 26718.75,
      "d": 1406.25,
      "v": 103
    },
    {
      "midi": 78,
      "hit": false,
      "t": 26953.125,
      "d": 234.375,
      "v": 74
    },
    {
      "midi": 74,
      "hit": false,
      "t": 27187.5,
      "d": 234.375,
      "v": 74
    },
    {
      "midi": 69,
      "hit": false,
      "t": 27421.875,
      "d": 234.375,
      "v": 77
    },
    {
      "midi": 67,
      "hit": false,
      "t": 27656.25,
      "d": 234.375,
      "v": 91
    },
    {
      "midi": 66,
      "hit": false,
      "t": 27890.625,
      "d": 234.375,
      "v": 94
    },
    {
      "midi": 67,
      "hit": false,
      "t": 28125,
      "d": 429.6875,
      "v": 69
    },
    {
      "midi": 43,
      "hit": false,
      "t": 28125,
      "d": 2812.5,
      "v": 102
    },
    {
      "midi": 62,
      "hit": false,
      "t": 28359.375,
      "d": 703.125,
      "v": 75
    },
    {
      "midi": 67,
      "hit": false,
      "t": 28593.75,
      "d": 703.125,
      "v": 74
    },
    {
      "midi": 74,
      "hit": false,
      "t": 28828.125,
      "d": 912.109375,
      "v": 74
    },
    {
      "midi": 79,
      "hit": false,
      "t": 29062.5,
      "d": 234.375,
      "v": 91
    },
    {
      "midi": 78,
      "hit": false,
      "t": 29296.875,
      "d": 234.375,
      "v": 82
    },
    {
      "midi": 79,
      "hit": false,
      "t": 29531.25,
      "d": 208.984375,
      "v": 93
    },
    {
      "midi": 67,
      "hit": false,
      "t": 29765.625,
      "d": 443.359375,
      "v": 101
    },
    {
      "midi": 71,
      "hit": false,
      "t": 29765.625,
      "d": 703.125,
      "v": 100
    },
    {
      "midi": 74,
      "hit": false,
      "t": 29765.625,
      "d": 937.5,
      "v": 101
    },
    {
      "midi": 79,
      "hit": false,
      "t": 29765.625,
      "d": 937.5,
      "v": 100
    },
    {
      "midi": 62,
      "hit": false,
      "t": 30000,
      "d": 703.125,
      "v": 82
    },
    {
      "midi": 67,
      "hit": false,
      "t": 30234.375,
      "d": 703.125,
      "v": 83
    },
    {
      "midi": 72,
      "hit": false,
      "t": 30468.75,
      "d": 234.375,
      "v": 91
    },
    {
      "midi": 71,
      "hit": false,
      "t": 30703.125,
      "d": 234.375,
      "v": 82
    },
    {
      "midi": 72,
      "hit": false,
      "t": 30937.5,
      "d": 654.296875,
      "v": 93
    },
    {
      "midi": 48,
      "hit": false,
      "t": 30937.5,
      "d": 2812.5,
      "v": 102
    },
    {
      "midi": 55,
      "hit": false,
      "t": 31171.875,
      "d": 703.125,
      "v": 55
    },
    {
      "midi": 62,
      "hit": false,
      "t": 31406.25,
      "d": 703.125,
      "v": 66
    },
    {
      "midi": 72,
      "hit": false,
      "t": 31640.625,
      "d": 703.125,
      "v": 84
    },
    {
      "midi": 74,
      "hit": false,
      "t": 31875,
      "d": 234.375,
      "v": 93
    },
    {
      "midi": 79,
      "hit": false,
      "t": 32109.375,
      "d": 185.546875,
      "v": 100
    },
    {
      "midi": 74,
      "hit": false,
      "t": 32318.359375,
      "d": 234.375,
      "v": 93
    },
    {
      "midi": 79,
      "hit": false,
      "t": 32343.75,
      "d": 443.359375,
      "v": 83
    },
    {
      "midi": 76,
      "hit": false,
      "t": 32416.015625,
      "d": 396.484375,
      "v": 104
    },
    {
      "midi": 74,
      "hit": false,
      "t": 32812.5,
      "d": 443.359375,
      "v": 105
    },
    {
      "midi": 79,
      "hit": false,
      "t": 32812.5,
      "d": 443.359375,
      "v": 82
    },
    {
      "midi": 72,
      "hit": false,
      "t": 33281.25,
      "d": 443.359375,
      "v": 104
    },
    {
      "midi": 79,
      "hit": false,
      "t": 33281.25,
      "d": 443.359375,
      "v": 83
    },
    {
      "midi": 64,
      "hit": false,
      "t": 33750,
      "d": 419.921875,
      "v": 92
    },
    {
      "midi": 67,
      "hit": false,
      "t": 33750,
      "d": 654.296875,
      "v": 92
    },
    {
      "midi": 71,
      "hit": false,
      "t": 33750,
      "d": 654.296875,
      "v": 93
    },
    {
      "midi": 52,
      "hit": false,
      "t": 33750,
      "d": 2812.5,
      "v": 103
    },
    {
      "midi": 64,
      "hit": false,
      "t": 34218.75,
      "d": 468.75,
      "v": 75
    },
    {
      "midi": 67,
      "hit": false,
      "t": 34453.125,
      "d": 468.75,
      "v": 90
    },
    {
      "midi": 71,
      "hit": false,
      "t": 34687.5,
      "d": 468.75,
      "v": 94
    },
    {
      "midi": 76,
      "hit": false,
      "t": 34921.875,
      "d": 199.21875,
      "v": 95
    },
    {
      "midi": 76,
      "hit": false,
      "t": 35156.25,
      "d": 468.75,
      "v": 94
    },
    {
      "midi": 83,
      "hit": false,
      "t": 35156.25,
      "d": 468.75,
      "v": 107
    },
    {
      "midi": 71,
      "hit": false,
      "t": 35390.625,
      "d": 207.03125,
      "v": 75
    },
    {
      "midi": 71,
      "hit": false,
      "t": 35625,
      "d": 468.75,
      "v": 90
    },
    {
      "midi": 79,
      "hit": false,
      "t": 35625,
      "d": 468.75,
      "v": 103
    },
    {
      "midi": 64,
      "hit": false,
      "t": 35859.375,
      "d": 234.375,
      "v": 74
    },
    {
      "midi": 76,
      "hit": false,
      "t": 36093.75,
      "d": 419.921875,
      "v": 96
    },
    {
      "midi": 83,
      "hit": false,
      "t": 36093.75,
      "d": 419.921875,
      "v": 109
    },
    {
      "midi": 71,
      "hit": false,
      "t": 36328.125,
      "d": 234.375,
      "v": 75
    },
    {
      "midi": 83,
      "hit": false,
      "t": 36562.5,
      "d": 468.75,
      "v": 109
    },
    {
      "midi": 48,
      "hit": false,
      "t": 36562.5,
      "d": 1406.25,
      "v": 102
    },
    {
      "midi": 67,
      "hit": false,
      "t": 36562.5,
      "d": 1406.25,
      "v": 102
    },
    {
      "midi": 76,
      "hit": false,
      "t": 36562.5,
      "d": 1406.25,
      "v": 103
    },
    {
      "midi": 81,
      "hit": false,
      "t": 37031.25,
      "d": 234.375,
      "v": 94
    },
    {
      "midi": 79,
      "hit": false,
      "t": 37265.625,
      "d": 638.671875,
      "v": 96
    },
    {
      "midi": 79,
      "hit": false,
      "t": 37968.75,
      "d": 234.375,
      "v": 67
    },
    {
      "midi": 66,
      "hit": false,
      "t": 37968.75,
      "d": 654.296875,
      "v": 78
    },
    {
      "midi": 69,
      "hit": false,
      "t": 37968.75,
      "d": 654.296875,
      "v": 79
    },
    {
      "midi": 50,
      "hit": false,
      "t": 37968.75,
      "d": 1406.25,
      "v": 103
    },
    {
      "midi": 78,
      "hit": false,
      "t": 38203.125,
      "d": 234.375,
      "v": 74
    },
    {
      "midi": 74,
      "hit": false,
      "t": 38437.5,
      "d": 234.375,
      "v": 75
    },
    {
      "midi": 69,
      "hit": false,
      "t": 38671.875,
      "d": 234.375,
      "v": 76
    },
    {
      "midi": 67,
      "hit": false,
      "t": 38906.25,
      "d": 234.375,
      "v": 90
    },
    {
      "midi": 66,
      "hit": false,
      "t": 39140.625,
      "d": 234.375,
      "v": 95
    },
    {
      "midi": 69,
      "hit": false,
      "t": 39375,
      "d": 234.375,
      "v": 110
    },
    {
      "midi": 43,
      "hit": false,
      "t": 39375,
      "d": 1171.875,
      "v": 99
    },
    {
      "midi": 55,
      "hit": false,
      "t": 39375,
      "d": 1171.875,
      "v": 98
    },
    {
      "midi": 71,
      "hit": false,
      "t": 39609.375,
      "d": 585.9375,
      "v": 111
    },
    {
      "midi": 67,
      "hit": false,
      "t": 39843.75,
      "d": 351.5625,
      "v": 87
    },
    {
      "midi": 79,
      "hit": false,
      "t": 40078.125,
      "d": 468.75,
      "v": 110
    },
    {
      "midi": 67,
      "hit": false,
      "t": 40312.5,
      "d": 585.9375,
      "v": 86
    },
    {
      "midi": 74,
      "hit": false,
      "t": 40546.875,
      "d": 185.546875,
      "v": 91
    },
    {
      "midi": 79,
      "hit": false,
      "t": 40781.25,
      "d": 468.75,
      "v": 110
    },
    {
      "midi": 74,
      "hit": false,
      "t": 40781.25,
      "d": 820.3125,
      "v": 93
    },
    {
      "midi": 43,
      "hit": false,
      "t": 40781.25,
      "d": 1406.25,
      "v": 98
    },
    {
      "midi": 55,
      "hit": false,
      "t": 40781.25,
      "d": 1406.25,
      "v": 99
    },
    {
      "midi": 67,
      "hit": false,
      "t": 41015.625,
      "d": 351.5625,
      "v": 87
    },
    {
      "midi": 78,
      "hit": false,
      "t": 41250,
      "d": 468.75,
      "v": 110
    },
    {
      "midi": 67,
      "hit": false,
      "t": 41484.375,
      "d": 351.5625,
      "v": 86
    },
    {
      "midi": 74,
      "hit": false,
      "t": 41718.75,
      "d": 468.75,
      "v": 95
    },
    {
      "midi": 67,
      "hit": false,
      "t": 41953.125,
      "d": 820.3125,
      "v": 87
    },
    {
      "midi": 72,
      "hit": false,
      "t": 42187.5,
      "d": 820.3125,
      "v": 111
    },
    {
      "midi": 76,
      "hit": false,
      "t": 42187.5,
      "d": 1054.6875,
      "v": 111
    },
    {
      "midi": 36,
      "hit": false,
      "t": 42187.5,
      "d": 2578.125,
      "v": 98
    },
    {
      "midi": 48,
      "hit": false,
      "t": 42187.5,
      "d": 2578.125,
      "v": 98
    },
    {
      "midi": 55,
      "hit": false,
      "t": 42421.875,
      "d": 585.9375,
      "v": 86
    },
    {
      "midi": 60,
      "hit": false,
      "t": 42656.25,
      "d": 703.125,
      "v": 86
    },
    {
      "midi": 67,
      "hit": false,
      "t": 42890.625,
      "d": 820.3125,
      "v": 87
    },
    {
      "midi": 72,
      "hit": false,
      "t": 43125,
      "d": 351.5625,
      "v": 98
    },
    {
      "midi": 76,
      "hit": false,
      "t": 43359.375,
      "d": 208.984375,
      "v": 99
    },
    {
      "midi": 72,
      "hit": false,
      "t": 43593.75,
      "d": 468.75,
      "v": 111
    },
    {
      "midi": 76,
      "hit": false,
      "t": 43593.75,
      "d": 468.75,
      "v": 110
    },
    {
      "midi": 67,
      "hit": false,
      "t": 43828.125,
      "d": 351.5625,
      "v": 87
    },
    {
      "midi": 74,
      "hit": false,
      "t": 44062.5,
      "d": 468.75,
      "v": 110
    },
    {
      "midi": 78,
      "hit": false,
      "t": 44062.5,
      "d": 468.75,
      "v": 110
    },
    {
      "midi": 67,
      "hit": false,
      "t": 44296.875,
      "d": 351.5625,
      "v": 87
    },
    {
      "midi": 76,
      "hit": false,
      "t": 44531.25,
      "d": 468.75,
      "v": 111
    },
    {
      "midi": 79,
      "hit": false,
      "t": 44531.25,
      "d": 468.75,
      "v": 110
    },
    {
      "midi": 67,
      "hit": false,
      "t": 44765.625,
      "d": 234.375,
      "v": 86
    },
    {
      "midi": 71,
      "hit": false,
      "t": 45000,
      "d": 820.3125,
      "v": 110
    },
    {
      "midi": 40,
      "hit": false,
      "t": 45000,
      "d": 1289.0625,
      "v": 105
    },
    {
      "midi": 52,
      "hit": false,
      "t": 45000,
      "d": 1289.0625,
      "v": 87
    },
    {
      "midi": 74,
      "hit": false,
      "t": 45000,
      "d": 1289.0625,
      "v": 110
    },
    {
      "midi": 59,
      "hit": false,
      "t": 45234.375,
      "d": 1171.875,
      "v": 87
    },
    {
      "midi": 64,
      "hit": false,
      "t": 45468.75,
      "d": 1054.6875,
      "v": 86
    },
    {
      "midi": 67,
      "hit": false,
      "t": 45703.125,
      "d": 585.9375,
      "v": 87
    },
    {
      "midi": 71,
      "hit": false,
      "t": 45937.5,
      "d": 351.5625,
      "v": 111
    },
    {
      "midi": 76,
      "hit": false,
      "t": 46171.875,
      "d": 351.5625,
      "v": 102
    },
    {
      "midi": 67,
      "hit": false,
      "t": 46406.25,
      "d": 468.75,
      "v": 86
    },
    {
      "midi": 71,
      "hit": false,
      "t": 46406.25,
      "d": 468.75,
      "v": 111
    },
    {
      "midi": 40,
      "hit": false,
      "t": 46406.25,
      "d": 1289.0625,
      "v": 105
    },
    {
      "midi": 52,
      "hit": false,
      "t": 46406.25,
      "d": 1289.0625,
      "v": 86
    },
    {
      "midi": 64,
      "hit": false,
      "t": 46640.625,
      "d": 351.5625,
      "v": 87
    },
    {
      "midi": 69,
      "hit": false,
      "t": 46875,
      "d": 468.75,
      "v": 86
    },
    {
      "midi": 72,
      "hit": false,
      "t": 46875,
      "d": 468.75,
      "v": 110
    },
    {
      "midi": 64,
      "hit": false,
      "t": 47109.375,
      "d": 351.5625,
      "v": 87
    },
    {
      "midi": 71,
      "hit": false,
      "t": 47343.75,
      "d": 468.75,
      "v": 87
    },
    {
      "midi": 74,
      "hit": false,
      "t": 47343.75,
      "d": 468.75,
      "v": 110
    },
    {
      "midi": 64,
      "hit": false,
      "t": 47578.125,
      "d": 185.546875,
      "v": 86
    },
    {
      "midi": 67,
      "hit": false,
      "t": 47812.5,
      "d": 585.9375,
      "v": 111
    },
    {
      "midi": 64,
      "hit": false,
      "t": 47812.5,
      "d": 703.125,
      "v": 99
    },
    {
      "midi": 36,
      "hit": false,
      "t": 47812.5,
      "d": 1289.0625,
      "v": 105
    },
    {
      "midi": 48,
      "hit": false,
      "t": 47812.5,
      "d": 1289.0625,
      "v": 86
    },
    {
      "midi": 55,
      "hit": false,
      "t": 48046.875,
      "d": 1289.0625,
      "v": 86
    },
    {
      "midi": 60,
      "hit": false,
      "t": 48281.25,
      "d": 1054.6875,
      "v": 87
    },
    {
      "midi": 72,
      "hit": false,
      "t": 48515.625,
      "d": 234.375,
      "v": 100
    },
    {
      "midi": 67,
      "hit": false,
      "t": 48515.625,
      "d": 703.125,
      "v": 100
    },
    {
      "midi": 71,
      "hit": false,
      "t": 48750,
      "d": 468.75,
      "v": 111
    },
    {
      "midi": 62,
      "hit": false,
      "t": 48984.375,
      "d": 351.5625,
      "v": 87
    },
    {
      "midi": 69,
      "hit": false,
      "t": 49218.75,
      "d": 703.125,
      "v": 111
    },
    {
      "midi": 38,
      "hit": false,
      "t": 49218.75,
      "d": 1289.0625,
      "v": 104
    },
    {
      "midi": 50,
      "hit": false,
      "t": 49218.75,
      "d": 1289.0625,
      "v": 86
    },
    {
      "midi": 62,
      "hit": false,
      "t": 49453.125,
      "d": 1054.6875,
      "v": 87
    },
    {
      "midi": 57,
      "hit": false,
      "t": 49687.5,
      "d": 820.3125,
      "v": 86
    },
    {
      "midi": 67,
      "hit": false,
      "t": 49921.875,
      "d": 234.375,
      "v": 110
    },
    {
      "midi": 66,
      "hit": false,
      "t": 50156.25,
      "d": 468.75,
      "v": 111
    },
    {
      "midi": 67,
      "hit": false,
      "t": 50625,
      "d": 703.125,
      "v": 103
    },
    {
      "midi": 43,
      "hit": false,
      "t": 50625,
      "d": 2812.5,
      "v": 102
    },
    {
      "midi": 50,
      "hit": false,
      "t": 50859.375,
      "d": 703.125,
      "v": 75
    },
    {
      "midi": 55,
      "hit": false,
      "t": 51093.75,
      "d": 703.125,
      "v": 74
    },
    {
      "midi": 62,
      "hit": false,
      "t": 51328.125,
      "d": 912.109375,
      "v": 75
    },
    {
      "midi": 67,
      "hit": false,
      "t": 51562.5,
      "d": 234.375,
      "v": 90
    },
    {
      "midi": 66,
      "hit": false,
      "t": 51796.875,
      "d": 234.375,
      "v": 82
    },
    {
      "midi": 67,
      "hit": false,
      "t": 52031.25,
      "d": 208.984375,
      "v": 93
    },
    {
      "midi": 55,
      "hit": false,
      "t": 52265.625,
      "d": 443.359375,
      "v": 101
    },
    {
      "midi": 59,
      "hit": false,
      "t": 52265.625,
      "d": 703.125,
      "v": 100
    },
    {
      "midi": 62,
      "hit": false,
      "t": 52265.625,
      "d": 937.5,
      "v": 100
    },
    {
      "midi": 67,
      "hit": false,
      "t": 52265.625,
      "d": 937.5,
      "v": 101
    },
    {
      "midi": 50,
      "hit": false,
      "t": 52500,
      "d": 703.125,
      "v": 83
    },
    {
      "midi": 55,
      "hit": false,
      "t": 52734.375,
      "d": 703.125,
      "v": 82
    },
    {
      "midi": 60,
      "hit": false,
      "t": 52968.75,
      "d": 234.375,
      "v": 90
    },
    {
      "midi": 59,
      "hit": false,
      "t": 53203.125,
      "d": 234.375,
      "v": 83
    },
    {
      "midi": 60,
      "hit": false,
      "t": 53437.5,
      "d": 654.296875,
      "v": 93
    },
    {
      "midi": 48,
      "hit": false,
      "t": 53437.5,
      "d": 2812.5,
      "v": 102
    },
    {
      "midi": 52,
      "hit": false,
      "t": 53671.875,
      "d": 703.125,
      "v": 67
    },
    {
      "midi": 55,
      "hit": false,
      "t": 53906.25,
      "d": 703.125,
      "v": 54
    },
    {
      "midi": 60,
      "hit": false,
      "t": 54140.625,
      "d": 703.125,
      "v": 85
    },
    {
      "midi": 62,
      "hit": false,
      "t": 54375,
      "d": 234.375,
      "v": 92
    },
    {
      "midi": 67,
      "hit": false,
      "t": 54609.375,
      "d": 185.546875,
      "v": 100
    },
    {
      "midi": 62,
      "hit": false,
      "t": 54818.359375,
      "d": 234.375,
      "v": 93
    },
    {
      "midi": 67,
      "hit": false,
      "t": 54843.75,
      "d": 443.359375,
      "v": 83
    },
    {
      "midi": 64,
      "hit": false,
      "t": 54916.015625,
      "d": 396.484375,
      "v": 104
    },
    {
      "midi": 62,
      "hit": false,
      "t": 55312.5,
      "d": 443.359375,
      "v": 104
    },
    {
      "midi": 67,
      "hit": false,
      "t": 55312.5,
      "d": 443.359375,
      "v": 83
    },
    {
      "midi": 60,
      "hit": false,
      "t": 55781.25,
      "d": 443.359375,
      "v": 105
    },
    {
      "midi": 67,
      "hit": false,
      "t": 55781.25,
      "d": 443.359375,
      "v": 82
    },
    {
      "midi": 55,
      "hit": false,
      "t": 56250,
      "d": 654.296875,
      "v": 93
    },
    {
      "midi": 59,
      "hit": false,
      "t": 56250,
      "d": 820.3125,
      "v": 92
    },
    {
      "midi": 64,
      "hit": false,
      "t": 56250,
      "d": 1054.6875,
      "v": 93
    },
    {
      "midi": 40,
      "hit": false,
      "t": 56250,
      "d": 2812.5,
      "v": 102
    },
    {
      "midi": 52,
      "hit": false,
      "t": 56718.75,
      "d": 468.75,
      "v": 75
    },
    {
      "midi": 55,
      "hit": false,
      "t": 56953.125,
      "d": 468.75,
      "v": 90
    },
    {
      "midi": 59,
      "hit": false,
      "t": 57187.5,
      "d": 468.75,
      "v": 95
    },
    {
      "midi": 64,
      "hit": false,
      "t": 57421.875,
      "d": 199.21875,
      "v": 94
    },
    {
      "midi": 64,
      "hit": false,
      "t": 57656.25,
      "d": 468.75,
      "v": 94
    },
    {
      "midi": 71,
      "hit": false,
      "t": 57656.25,
      "d": 468.75,
      "v": 107
    },
    {
      "midi": 59,
      "hit": false,
      "t": 57890.625,
      "d": 207.03125,
      "v": 75
    },
    {
      "midi": 59,
      "hit": false,
      "t": 58125,
      "d": 468.75,
      "v": 90
    },
    {
      "midi": 67,
      "hit": false,
      "t": 58125,
      "d": 468.75,
      "v": 102
    },
    {
      "midi": 52,
      "hit": false,
      "t": 58359.375,
      "d": 234.375,
      "v": 75
    },
    {
      "midi": 64,
      "hit": false,
      "t": 58593.75,
      "d": 419.921875,
      "v": 97
    },
    {
      "midi": 71,
      "hit": false,
      "t": 58593.75,
      "d": 419.921875,
      "v": 108
    },
    {
      "midi": 59,
      "hit": false,
      "t": 58828.125,
      "d": 234.375,
      "v": 74
    },
    {
      "midi": 71,
      "hit": false,
      "t": 59062.5,
      "d": 468.75,
      "v": 109
    },
    {
      "midi": 48,
      "hit": false,
      "t": 59062.5,
      "d": 1406.25,
      "v": 103
    },
    {
      "midi": 55,
      "hit": false,
      "t": 59062.5,
      "d": 1406.25,
      "v": 102
    },
    {
      "midi": 64,
      "hit": false,
      "t": 59062.5,
      "d": 1406.25,
      "v": 103
    },
    {
      "midi": 69,
      "hit": false,
      "t": 59531.25,
      "d": 234.375,
      "v": 94
    },
    {
      "midi": 67,
      "hit": false,
      "t": 59765.625,
      "d": 638.671875,
      "v": 97
    },
    {
      "midi": 62,
      "hit": false,
      "t": 60468.75,
      "d": 384.765625,
      "v": 79
    },
    {
      "midi": 57,
      "hit": false,
      "t": 60468.75,
      "d": 654.296875,
      "v": 78
    },
    {
      "midi": 67,
      "hit": false,
      "t": 60468.75,
      "d": 703.125,
      "v": 91
    },
    {
      "midi": 50,
      "hit": false,
      "t": 60468.75,
      "d": 1406.25,
      "v": 102
    },
    {
      "midi": 62,
      "hit": false,
      "t": 60937.5,
      "d": 234.375,
      "v": 74
    },
    {
      "midi": 57,
      "hit": false,
      "t": 61171.875,
      "d": 234.375,
      "v": 76
    },
    {
      "midi": 55,
      "hit": false,
      "t": 61406.25,
      "d": 234.375,
      "v": 91
    },
    {
      "midi": 54,
      "hit": false,
      "t": 61640.625,
      "d": 234.375,
      "v": 95
    },
    {
      "midi": 67,
      "hit": false,
      "t": 61875,
      "d": 703.125,
      "v": 102
    },
    {
      "midi": 43,
      "hit": false,
      "t": 61875,
      "d": 2812.5,
      "v": 102
    },
    {
      "midi": 50,
      "hit": false,
      "t": 62109.375,
      "d": 703.125,
      "v": 75
    },
    {
      "midi": 55,
      "hit": false,
      "t": 62343.75,
      "d": 703.125,
      "v": 74
    },
    {
      "midi": 62,
      "hit": false,
      "t": 62578.125,
      "d": 912.109375,
      "v": 75
    },
    {
      "midi": 67,
      "hit": false,
      "t": 62812.5,
      "d": 234.375,
      "v": 91
    },
    {
      "midi": 66,
      "hit": false,
      "t": 63046.875,
      "d": 234.375,
      "v": 82
    },
    {
      "midi": 67,
      "hit": false,
      "t": 63281.25,
      "d": 208.984375,
      "v": 93
    },
    {
      "midi": 55,
      "hit": false,
      "t": 63515.625,
      "d": 443.359375,
      "v": 100
    },
    {
      "midi": 67,
      "hit": false,
      "t": 63515.625,
      "d": 585.9375,
      "v": 101
    },
    {
      "midi": 59,
      "hit": false,
      "t": 63515.625,
      "d": 703.125,
      "v": 100
    },
    {
      "midi": 62,
      "hit": false,
      "t": 63515.625,
      "d": 937.5,
      "v": 101
    },
    {
      "midi": 50,
      "hit": false,
      "t": 63750,
      "d": 703.125,
      "v": 82
    },
    {
      "midi": 55,
      "hit": false,
      "t": 63984.375,
      "d": 703.125,
      "v": 82
    },
    {
      "midi": 67,
      "hit": false,
      "t": 64218.75,
      "d": 234.375,
      "v": 91
    },
    {
      "midi": 66,
      "hit": false,
      "t": 64453.125,
      "d": 234.375,
      "v": 83
    },
    {
      "midi": 64,
      "hit": false,
      "t": 64687.5,
      "d": 654.296875,
      "v": 92
    },
    {
      "midi": 48,
      "hit": false,
      "t": 64687.5,
      "d": 2812.5,
      "v": 102
    },
    {
      "midi": 55,
      "hit": false,
      "t": 64921.875,
      "d": 351.5625,
      "v": 69
    },
    {
      "midi": 62,
      "hit": false,
      "t": 65156.25,
      "d": 703.125,
      "v": 84
    },
    {
      "midi": 55,
      "hit": false,
      "t": 65390.625,
      "d": 419.921875,
      "v": 93
    },
    {
      "midi": 64,
      "hit": false,
      "t": 65390.625,
      "d": 468.75,
      "v": 93
    },
    {
      "midi": 55,
      "hit": false,
      "t": 65859.375,
      "d": 185.546875,
      "v": 100
    },
    {
      "midi": 66,
      "hit": false,
      "t": 65859.375,
      "d": 185.546875,
      "v": 101
    },
    {
      "midi": 55,
      "hit": false,
      "t": 66093.75,
      "d": 449.21875,
      "v": 104
    },
    {
      "midi": 62,
      "hit": false,
      "t": 66093.75,
      "d": 1289.0625,
      "v": 104
    },
    {
      "midi": 67,
      "hit": false,
      "t": 66093.75,
      "d": 1289.0625,
      "v": 105
    },
    {
      "midi": 55,
      "hit": false,
      "t": 66562.5,
      "d": 423.828125,
      "v": 87
    },
    {
      "midi": 55,
      "hit": false,
      "t": 67031.25,
      "d": 423.828125,
      "v": 82
    },
    {
      "midi": 55,
      "hit": false,
      "t": 67500,
      "d": 654.296875,
      "v": 93
    },
    {
      "midi": 59,
      "hit": false,
      "t": 67500,
      "d": 820.3125,
      "v": 93
    },
    {
      "midi": 64,
      "hit": false,
      "t": 67500,
      "d": 1054.6875,
      "v": 92
    },
    {
      "midi": 40,
      "hit": false,
      "t": 67500,
      "d": 2812.5,
      "v": 102
    },
    {
      "midi": 52,
      "hit": false,
      "t": 67968.75,
      "d": 468.75,
      "v": 74
    },
    {
      "midi": 55,
      "hit": false,
      "t": 68203.125,
      "d": 468.75,
      "v": 91
    },
    {
      "midi": 59,
      "hit": false,
      "t": 68437.5,
      "d": 468.75,
      "v": 94
    },
    {
      "midi": 64,
      "hit": false,
      "t": 68671.875,
      "d": 199.21875,
      "v": 95
    },
    {
      "midi": 64,
      "hit": false,
      "t": 68906.25,
      "d": 468.75,
      "v": 95
    },
    {
      "midi": 71,
      "hit": false,
      "t": 68906.25,
      "d": 468.75,
      "v": 106
    },
    {
      "midi": 59,
      "hit": false,
      "t": 69140.625,
      "d": 207.03125,
      "v": 75
    },
    {
      "midi": 59,
      "hit": false,
      "t": 69375,
      "d": 468.75,
      "v": 90
    },
    {
      "midi": 67,
      "hit": false,
      "t": 69375,
      "d": 468.75,
      "v": 102
    },
    {
      "midi": 52,
      "hit": false,
      "t": 69609.375,
      "d": 234.375,
      "v": 75
    },
    {
      "midi": 64,
      "hit": false,
      "t": 69843.75,
      "d": 419.921875,
      "v": 97
    },
    {
      "midi": 71,
      "hit": false,
      "t": 69843.75,
      "d": 419.921875,
      "v": 108
    },
    {
      "midi": 59,
      "hit": false,
      "t": 70078.125,
      "d": 234.375,
      "v": 74
    },
    {
      "midi": 71,
      "hit": false,
      "t": 70312.5,
      "d": 703.125,
      "v": 108
    },
    {
      "midi": 55,
      "hit": false,
      "t": 70312.5,
      "d": 937.5,
      "v": 103
    },
    {
      "midi": 48,
      "hit": false,
      "t": 70312.5,
      "d": 1406.25,
      "v": 103
    },
    {
      "midi": 64,
      "hit": false,
      "t": 70312.5,
      "d": 1406.25,
      "v": 102
    },
    {
      "midi": 60,
      "hit": false,
      "t": 70781.25,
      "d": 703.125,
      "v": 67
    },
    {
      "midi": 69,
      "hit": false,
      "t": 71015.625,
      "d": 638.671875,
      "v": 96
    },
    {
      "midi": 55,
      "hit": false,
      "t": 71484.375,
      "d": 585.9375,
      "v": 79
    },
    {
      "midi": 62,
      "hit": false,
      "t": 71718.75,
      "d": 384.765625,
      "v": 79
    },
    {
      "midi": 67,
      "hit": false,
      "t": 71718.75,
      "d": 703.125,
      "v": 100
    },
    {
      "midi": 57,
      "hit": false,
      "t": 71718.75,
      "d": 1054.6875,
      "v": 78
    },
    {
      "midi": 50,
      "hit": false,
      "t": 71718.75,
      "d": 1406.25,
      "v": 103
    },
    {
      "midi": 62,
      "hit": false,
      "t": 72187.5,
      "d": 234.375,
      "v": 74
    },
    {
      "midi": 66,
      "hit": false,
      "t": 72421.875,
      "d": 703.125,
      "v": 101
    },
    {
      "midi": 62,
      "hit": false,
      "t": 72656.25,
      "d": 234.375,
      "v": 91
    },
    {
      "midi": 57,
      "hit": false,
      "t": 72890.625,
      "d": 234.375,
      "v": 84
    },
    {
      "midi": 59,
      "hit": false,
      "t": 73125,
      "d": 654.296875,
      "v": 103
    },
    {
      "midi": 62,
      "hit": false,
      "t": 73125,
      "d": 703.125,
      "v": 102
    },
    {
      "midi": 67,
      "hit": false,
      "t": 73125,
      "d": 703.125,
      "v": 102
    },
    {
      "midi": 35,
      "hit": false,
      "t": 73125,
      "d": 2812.5,
      "v": 102
    },
    {
      "midi": 47,
      "hit": false,
      "t": 73125,
      "d": 2812.5,
      "v": 103
    },
    {
      "midi": 59,
      "hit": false,
      "t": 73828.125,
      "d": 1875,
      "v": 75
    },
    {
      "midi": 62,
      "hit": false,
      "t": 74062.5,
      "d": 1640.625,
      "v": 84
    },
    {
      "midi": 67,
      "hit": false,
      "t": 74296.875,
      "d": 468.75,
      "v": 93
    },
    {
      "midi": 71,
      "hit": false,
      "t": 74531.25,
      "d": 429.6875,
      "v": 99
    },
    {
      "midi": 74,
      "hit": false,
      "t": 74531.25,
      "d": 429.6875,
      "v": 98
    },
    {
      "midi": 67,
      "hit": false,
      "t": 75000,
      "d": 419.921875,
      "v": 117
    },
    {
      "midi": 71,
      "hit": false,
      "t": 75000,
      "d": 419.921875,
      "v": 116
    },
    {
      "midi": 74,
      "hit": false,
      "t": 75000,
      "d": 468.75,
      "v": 116
    },
    {
      "midi": 67,
      "hit": false,
      "t": 75468.75,
      "d": 443.359375,
      "v": 109
    },
    {
      "midi": 71,
      "hit": false,
      "t": 75468.75,
      "d": 443.359375,
      "v": 109
    },
    {
      "midi": 72,
      "hit": false,
      "t": 75468.75,
      "d": 468.75,
      "v": 108
    },
    {
      "midi": 64,
      "hit": false,
      "t": 75937.5,
      "d": 654.296875,
      "v": 93
    },
    {
      "midi": 67,
      "hit": false,
      "t": 75937.5,
      "d": 654.296875,
      "v": 92
    },
    {
      "midi": 71,
      "hit": false,
      "t": 75937.5,
      "d": 654.296875,
      "v": 92
    },
    {
      "midi": 36,
      "hit": false,
      "t": 75937.5,
      "d": 1640.625,
      "v": 102
    },
    {
      "midi": 48,
      "hit": false,
      "t": 75937.5,
      "d": 1640.625,
      "v": 103
    },
    {
      "midi": 60,
      "hit": false,
      "t": 76406.25,
      "d": 654.296875,
      "v": 79
    },
    {
      "midi": 64,
      "hit": false,
      "t": 76640.625,
      "d": 654.296875,
      "v": 100
    },
    {
      "midi": 67,
      "hit": false,
      "t": 76640.625,
      "d": 654.296875,
      "v": 101
    },
    {
      "midi": 69,
      "hit": false,
      "t": 76640.625,
      "d": 654.296875,
      "v": 101
    },
    {
      "midi": 55,
      "hit": false,
      "t": 77109.375,
      "d": 654.296875,
      "v": 78
    },
    {
      "midi": 60,
      "hit": false,
      "t": 77343.75,
      "d": 654.296875,
      "v": 107
    },
    {
      "midi": 64,
      "hit": false,
      "t": 77343.75,
      "d": 654.296875,
      "v": 106
    },
    {
      "midi": 67,
      "hit": false,
      "t": 77343.75,
      "d": 654.296875,
      "v": 106
    },
    {
      "midi": 36,
      "hit": false,
      "t": 77812.5,
      "d": 937.5,
      "v": 103
    },
    {
      "midi": 48,
      "hit": false,
      "t": 77812.5,
      "d": 937.5,
      "v": 103
    },
    {
      "midi": 55,
      "hit": false,
      "t": 78046.875,
      "d": 703.125,
      "v": 78
    },
    {
      "midi": 64,
      "hit": false,
      "t": 78281.25,
      "d": 207.03125,
      "v": 86
    },
    {
      "midi": 67,
      "hit": false,
      "t": 78281.25,
      "d": 207.03125,
      "v": 87
    },
    {
      "midi": 66,
      "hit": false,
      "t": 78515.625,
      "d": 207.03125,
      "v": 93
    },
    {
      "midi": 69,
      "hit": false,
      "t": 78515.625,
      "d": 207.03125,
      "v": 92
    },
    {
      "midi": 67,
      "hit": false,
      "t": 78750,
      "d": 937.5,
      "v": 92
    },
    {
      "midi": 71,
      "hit": false,
      "t": 78750,
      "d": 937.5,
      "v": 93
    },
    {
      "midi": 64,
      "hit": false,
      "t": 78750,
      "d": 1054.6875,
      "v": 93
    },
    {
      "midi": 40,
      "hit": false,
      "t": 78750,
      "d": 2812.5,
      "v": 102
    },
    {
      "midi": 52,
      "hit": false,
      "t": 79218.75,
      "d": 468.75,
      "v": 75
    },
    {
      "midi": 55,
      "hit": false,
      "t": 79453.125,
      "d": 468.75,
      "v": 90
    },
    {
      "midi": 59,
      "hit": false,
      "t": 79687.5,
      "d": 468.75,
      "v": 95
    },
    {
      "midi": 64,
      "hit": false,
      "t": 79921.875,
      "d": 199.21875,
      "v": 94
    },
    {
      "midi": 64,
      "hit": false,
      "t": 80156.25,
      "d": 468.75,
      "v": 94
    },
    {
      "midi": 71,
      "hit": false,
      "t": 80156.25,
      "d": 468.75,
      "v": 107
    },
    {
      "midi": 59,
      "hit": false,
      "t": 80390.625,
      "d": 207.03125,
      "v": 75
    },
    {
      "midi": 59,
      "hit": false,
      "t": 80625,
      "d": 468.75,
      "v": 90
    },
    {
      "midi": 67,
      "hit": false,
      "t": 80625,
      "d": 468.75,
      "v": 102
    },
    {
      "midi": 52,
      "hit": false,
      "t": 80859.375,
      "d": 234.375,
      "v": 75
    },
    {
      "midi": 64,
      "hit": false,
      "t": 81093.75,
      "d": 419.921875,
      "v": 97
    },
    {
      "midi": 71,
      "hit": false,
      "t": 81093.75,
      "d": 419.921875,
      "v": 108
    },
    {
      "midi": 59,
      "hit": false,
      "t": 81328.125,
      "d": 234.375,
      "v": 74
    },
    {
      "midi": 71,
      "hit": false,
      "t": 81562.5,
      "d": 468.75,
      "v": 109
    },
    {
      "midi": 55,
      "hit": false,
      "t": 81562.5,
      "d": 937.5,
      "v": 102
    },
    {
      "midi": 48,
      "hit": false,
      "t": 81562.5,
      "d": 1406.25,
      "v": 103
    },
    {
      "midi": 64,
      "hit": false,
      "t": 81562.5,
      "d": 1406.25,
      "v": 103
    },
    {
      "midi": 69,
      "hit": false,
      "t": 82031.25,
      "d": 234.375,
      "v": 75
    },
    {
      "midi": 60,
      "hit": false,
      "t": 82031.25,
      "d": 703.125,
      "v": 66
    },
    {
      "midi": 67,
      "hit": false,
      "t": 82265.625,
      "d": 638.671875,
      "v": 96
    },
    {
      "midi": 55,
      "hit": false,
      "t": 82734.375,
      "d": 585.9375,
      "v": 78
    },
    {
      "midi": 62,
      "hit": false,
      "t": 82968.75,
      "d": 384.765625,
      "v": 78
    },
    {
      "midi": 67,
      "hit": false,
      "t": 82968.75,
      "d": 695.3125,
      "v": 100
    },
    {
      "midi": 57,
      "hit": false,
      "t": 82968.75,
      "d": 1046.875,
      "v": 79
    },
    {
      "midi": 50,
      "hit": false,
      "t": 82968.75,
      "d": 1398.4375,
      "v": 103
    },
    {
      "midi": 62,
      "hit": false,
      "t": 83429.6875,
      "d": 234.375,
      "v": 75
    },
    {
      "midi": 66,
      "hit": false,
      "t": 83664.0625,
      "d": 703.125,
      "v": 101
    },
    {
      "midi": 62,
      "hit": false,
      "t": 83898.4375,
      "d": 234.375,
      "v": 90
    },
    {
      "midi": 57,
      "hit": false,
      "t": 84132.8125,
      "d": 234.375,
      "v": 84
    },
    {
      "midi": 59,
      "hit": false,
      "t": 84367.1875,
      "d": 468.75,
      "v": 102
    },
    {
      "midi": 62,
      "hit": false,
      "t": 84367.1875,
      "d": 468.75,
      "v": 103
    },
    {
      "midi": 67,
      "hit": false,
      "t": 84367.1875,
      "d": 468.75,
      "v": 103
    },
    {
      "midi": 43,
      "hit": false,
      "t": 84367.1875,
      "d": 1171.875,
      "v": 103
    },
    {
      "midi": 50,
      "hit": false,
      "t": 84601.5625,
      "d": 703.125,
      "v": 86
    },
    {
      "midi": 55,
      "hit": false,
      "t": 84835.9375,
      "d": 468.75,
      "v": 87
    },
    {
      "midi": 59,
      "hit": false,
      "t": 85070.3125,
      "d": 468.75,
      "v": 102
    },
    {
      "midi": 62,
      "hit": false,
      "t": 85070.3125,
      "d": 468.75,
      "v": 102
    },
    {
      "midi": 67,
      "hit": false,
      "t": 85070.3125,
      "d": 468.75,
      "v": 103
    },
    {
      "midi": 55,
      "hit": false,
      "t": 85539.0625,
      "d": 468.75,
      "v": 87
    },
    {
      "midi": 43,
      "hit": false,
      "t": 85773.4375,
      "d": 468.75,
      "v": 102
    },
    {
      "midi": 59,
      "hit": false,
      "t": 85773.4375,
      "d": 468.75,
      "v": 102
    },
    {
      "midi": 71,
      "hit": false,
      "t": 85773.4375,
      "d": 468.75,
      "v": 103
    },
    {
      "midi": 45,
      "hit": false,
      "t": 86242.1875,
      "d": 468.75,
      "v": 103
    },
    {
      "midi": 60,
      "hit": false,
      "t": 86242.1875,
      "d": 468.75,
      "v": 102
    },
    {
      "midi": 69,
      "hit": false,
      "t": 86242.1875,
      "d": 468.75,
      "v": 102
    },
    {
      "midi": 47,
      "hit": false,
      "t": 86710.9375,
      "d": 468.75,
      "v": 103
    },
    {
      "midi": 62,
      "hit": false,
      "t": 86710.9375,
      "d": 468.75,
      "v": 102
    },
    {
      "midi": 67,
      "hit": false,
      "t": 86710.9375,
      "d": 468.75,
      "v": 103
    },
    {
      "midi": 60,
      "hit": false,
      "t": 87179.6875,
      "d": 654.296875,
      "v": 92
    },
    {
      "midi": 64,
      "hit": false,
      "t": 87179.6875,
      "d": 654.296875,
      "v": 93
    },
    {
      "midi": 48,
      "hit": false,
      "t": 87179.6875,
      "d": 2812.5,
      "v": 103
    },
    {
      "midi": 52,
      "hit": false,
      "t": 87414.0625,
      "d": 703.125,
      "v": 66
    },
    {
      "midi": 55,
      "hit": false,
      "t": 87648.4375,
      "d": 703.125,
      "v": 54
    },
    {
      "midi": 60,
      "hit": false,
      "t": 87882.8125,
      "d": 703.125,
      "v": 85
    },
    {
      "midi": 62,
      "hit": false,
      "t": 88117.1875,
      "d": 234.375,
      "v": 93
    },
    {
      "midi": 67,
      "hit": false,
      "t": 88351.5625,
      "d": 185.546875,
      "v": 100
    },
    {
      "midi": 62,
      "hit": false,
      "t": 88560.546875,
      "d": 234.375,
      "v": 92
    },
    {
      "midi": 67,
      "hit": false,
      "t": 88585.9375,
      "d": 443.359375,
      "v": 83
    },
    {
      "midi": 64,
      "hit": false,
      "t": 88658.203125,
      "d": 396.484375,
      "v": 105
    },
    {
      "midi": 62,
      "hit": false,
      "t": 89054.6875,
      "d": 443.359375,
      "v": 104
    },
    {
      "midi": 67,
      "hit": false,
      "t": 89054.6875,
      "d": 443.359375,
      "v": 82
    },
    {
      "midi": 60,
      "hit": false,
      "t": 89523.4375,
      "d": 443.359375,
      "v": 105
    },
    {
      "midi": 67,
      "hit": false,
      "t": 89523.4375,
      "d": 443.359375,
      "v": 82
    },
    {
      "midi": 64,
      "hit": false,
      "t": 89992.1875,
      "d": 703.125,
      "v": 103
    },
    {
      "midi": 67,
      "hit": false,
      "t": 89992.1875,
      "d": 937.5,
      "v": 102
    },
    {
      "midi": 40,
      "hit": false,
      "t": 89992.1875,
      "d": 1406.25,
      "v": 103
    },
    {
      "midi": 71,
      "hit": false,
      "t": 89992.1875,
      "d": 1406.25,
      "v": 103
    },
    {
      "midi": 52,
      "hit": false,
      "t": 90460.9375,
      "d": 468.75,
      "v": 78
    },
    {
      "midi": 59,
      "hit": false,
      "t": 90695.3125,
      "d": 468.75,
      "v": 90
    },
    {
      "midi": 64,
      "hit": false,
      "t": 90929.6875,
      "d": 468.75,
      "v": 99
    },
    {
      "midi": 67,
      "hit": false,
      "t": 91164.0625,
      "d": 234.375,
      "v": 103
    },
    {
      "midi": 57,
      "hit": false,
      "t": 91398.4375,
      "d": 468.75,
      "v": 102
    },
    {
      "midi": 62,
      "hit": false,
      "t": 91398.4375,
      "d": 468.75,
      "v": 103
    },
    {
      "midi": 38,
      "hit": false,
      "t": 91398.4375,
      "d": 1406.25,
      "v": 102
    },
    {
      "midi": 69,
      "hit": false,
      "t": 91398.4375,
      "d": 1406.25,
      "v": 103
    },
    {
      "midi": 67,
      "hit": false,
      "t": 91632.8125,
      "d": 234.375,
      "v": 102
    },
    {
      "midi": 66,
      "hit": false,
      "t": 91867.1875,
      "d": 468.75,
      "v": 98
    },
    {
      "midi": 57,
      "hit": false,
      "t": 92101.5625,
      "d": 468.75,
      "v": 79
    },
    {
      "midi": 62,
      "hit": false,
      "t": 92335.9375,
      "d": 419.921875,
      "v": 90
    },
    {
      "midi": 66,
      "hit": false,
      "t": 92570.3125,
      "d": 468.75,
      "v": 103
    },
    {
      "midi": 43,
      "hit": false,
      "t": 92804.6875,
      "d": 937.5,
      "v": 103
    },
    {
      "midi": 55,
      "hit": false,
      "t": 92804.6875,
      "d": 1380.859375,
      "v": 102
    },
    {
      "midi": 59,
      "hit": false,
      "t": 92804.6875,
      "d": 1406.25,
      "v": 103
    },
    {
      "midi": 62,
      "hit": false,
      "t": 92804.6875,
      "d": 1406.25,
      "v": 102
    },
    {
      "midi": 67,
      "hit": false,
      "t": 92804.6875,
      "d": 1406.25,
      "v": 102
    },
    {
      "midi": 43,
      "hit": false,
      "t": 93976.5625,
      "d": 1562.5,
      "v": 103
    },
    {
      "midi": 55,
      "hit": false,
      "t": 94210.9375,
      "d": 654.296875,
      "v": 103
    },
    {
      "midi": 60,
      "hit": false,
      "t": 94210.9375,
      "d": 654.296875,
      "v": 102
    },
    {
      "midi": 64,
      "hit": false,
      "t": 94210.9375,
      "d": 654.296875,
      "v": 102
    },
    {
      "midi": 55,
      "hit": false,
      "t": 94914.0625,
      "d": 677.734375,
      "v": 103
    },
    {
      "midi": 60,
      "hit": false,
      "t": 94914.0625,
      "d": 677.734375,
      "v": 103
    },
    {
      "midi": 64,
      "hit": false,
      "t": 94914.0625,
      "d": 677.734375,
      "v": 102
    },
    {
      "midi": 43,
      "hit": false,
      "t": 95617.1875,
      "d": 1259.765625,
      "v": 104
    },
    {
      "midi": 67,
      "hit": false,
      "t": 95640.625,
      "d": 662.109375,
      "v": 90
    },
    {
      "midi": 59,
      "hit": false,
      "t": 95640.625,
      "d": 664.0625,
      "v": 101
    },
    {
      "midi": 62,
      "hit": false,
      "t": 95642.578125,
      "d": 667.96875,
      "v": 107
    },
    {
      "midi": 59,
      "hit": false,
      "t": 96355.46875,
      "d": 492.1875,
      "v": 105
    },
    {
      "midi": 67,
      "hit": false,
      "t": 96355.46875,
      "d": 492.1875,
      "v": 91
    },
    {
      "midi": 62,
      "hit": false,
      "t": 96355.46875,
      "d": 505.859375,
      "v": 104
    },
    {
      "midi": 43,
      "hit": false,
      "t": 97023.4375,
      "d": 490.234375,
      "v": 100
    },
    {
      "midi": 67,
      "hit": false,
      "t": 97037.109375,
      "d": 1216.796875,
      "v": 90
    },
    {
      "midi": 59,
      "hit": false,
      "t": 97039.0625,
      "d": 1179.6875,
      "v": 117
    },
    {
      "midi": 62,
      "hit": false,
      "t": 97039.0625,
      "d": 1259.765625,
      "v": 105
    },
    {
      "midi": 45,
      "hit": false,
      "t": 97492.1875,
      "d": 490.234375,
      "v": 100
    },
    {
      "midi": 47,
      "hit": false,
      "t": 97960.9375,
      "d": 490.234375,
      "v": 100
    },
    {
      "midi": 48,
      "hit": false,
      "t": 98429.6875,
      "d": 1259.765625,
      "v": 105
    },
    {
      "midi": 62,
      "hit": false,
      "t": 98455.078125,
      "d": 644.53125,
      "v": 105
    },
    {
      "midi": 64,
      "hit": false,
      "t": 98458.984375,
      "d": 625,
      "v": 90
    },
    {
      "midi": 67,
      "hit": false,
      "t": 98458.984375,
      "d": 636.71875,
      "v": 90
    },
    {
      "midi": 64,
      "hit": false,
      "t": 99164.0625,
      "d": 511.71875,
      "v": 105
    },
    {
      "midi": 62,
      "hit": false,
      "t": 99166.015625,
      "d": 496.09375,
      "v": 90
    },
    {
      "midi": 67,
      "hit": false,
      "t": 99166.015625,
      "d": 503.90625,
      "v": 107
    },
    {
      "midi": 48,
      "hit": false,
      "t": 99835.9375,
      "d": 1259.765625,
      "v": 105
    },
    {
      "midi": 64,
      "hit": false,
      "t": 99849.609375,
      "d": 1207.03125,
      "v": 104
    },
    {
      "midi": 67,
      "hit": false,
      "t": 99849.609375,
      "d": 1257.8125,
      "v": 91
    },
    {
      "midi": 62,
      "hit": false,
      "t": 99851.5625,
      "d": 1244.140625,
      "v": 104
    },
    {
      "midi": 40,
      "hit": false,
      "t": 101242.1875,
      "d": 607.421875,
      "v": 104
    },
    {
      "midi": 67,
      "hit": false,
      "t": 101265.625,
      "d": 626.953125,
      "v": 105
    },
    {
      "midi": 59,
      "hit": false,
      "t": 101267.578125,
      "d": 613.28125,
      "v": 105
    },
    {
      "midi": 62,
      "hit": false,
      "t": 101271.484375,
      "d": 611.328125,
      "v": 90
    },
    {
      "midi": 47,
      "hit": false,
      "t": 101945.3125,
      "d": 501.953125,
      "v": 104
    },
    {
      "midi": 62,
      "hit": false,
      "t": 101976.5625,
      "d": 507.8125,
      "v": 77
    },
    {
      "midi": 67,
      "hit": false,
      "t": 101978.515625,
      "d": 505.859375,
      "v": 91
    },
    {
      "midi": 59,
      "hit": false,
      "t": 101980.46875,
      "d": 496.09375,
      "v": 90
    },
    {
      "midi": 52,
      "hit": false,
      "t": 102648.4375,
      "d": 1244.140625,
      "v": 104
    },
    {
      "midi": 62,
      "hit": false,
      "t": 102667.96875,
      "d": 1255.859375,
      "v": 91
    },
    {
      "midi": 59,
      "hit": false,
      "t": 102669.921875,
      "d": 1244.140625,
      "v": 104
    },
    {
      "midi": 67,
      "hit": false,
      "t": 102669.921875,
      "d": 1267.578125,
      "v": 91
    },
    {
      "midi": 48,
      "hit": false,
      "t": 104054.6875,
      "d": 1259.765625,
      "v": 105
    },
    {
      "midi": 67,
      "hit": false,
      "t": 104070.3125,
      "d": 679.6875,
      "v": 104
    },
    {
      "midi": 64,
      "hit": false,
      "t": 104076.171875,
      "d": 642.578125,
      "v": 104
    },
    {
      "midi": 62,
      "hit": false,
      "t": 104076.171875,
      "d": 667.96875,
      "v": 105
    },
    {
      "midi": 67,
      "hit": false,
      "t": 104789.0625,
      "d": 390.625,
      "v": 105
    },
    {
      "midi": 64,
      "hit": false,
      "t": 104789.0625,
      "d": 515.625,
      "v": 91
    },
    {
      "midi": 62,
      "hit": false,
      "t": 104789.0625,
      "d": 541.015625,
      "v": 90
    },
    {
      "midi": 50,
      "hit": false,
      "t": 105460.9375,
      "d": 1259.765625,
      "v": 104
    },
    {
      "midi": 62,
      "hit": false,
      "t": 105480.46875,
      "d": 628.90625,
      "v": 90
    },
    {
      "midi": 66,
      "hit": false,
      "t": 105486.328125,
      "d": 593.75,
      "v": 93
    },
    {
      "midi": 57,
      "hit": false,
      "t": 105486.328125,
      "d": 611.328125,
      "v": 117
    },
    {
      "midi": 57,
      "hit": false,
      "t": 106195.3125,
      "d": 607.421875,
      "v": 104
    },
    {
      "midi": 66,
      "hit": false,
      "t": 106195.3125,
      "d": 609.375,
      "v": 104
    },
    {
      "midi": 62,
      "hit": false,
      "t": 106197.265625,
      "d": 605.46875,
      "v": 105
    },
    {
      "midi": 43,
      "hit": false,
      "t": 106867.1875,
      "d": 1259.765625,
      "v": 104
    },
    {
      "midi": 67,
      "hit": false,
      "t": 106890.625,
      "d": 662.109375,
      "v": 91
    },
    {
      "midi": 59,
      "hit": false,
      "t": 106890.625,
      "d": 664.0625,
      "v": 101
    },
    {
      "midi": 62,
      "hit": false,
      "t": 106892.578125,
      "d": 667.96875,
      "v": 106
    },
    {
      "midi": 59,
      "hit": false,
      "t": 107605.46875,
      "d": 492.1875,
      "v": 105
    },
    {
      "midi": 67,
      "hit": false,
      "t": 107605.46875,
      "d": 492.1875,
      "v": 90
    },
    {
      "midi": 62,
      "hit": false,
      "t": 107605.46875,
      "d": 505.859375,
      "v": 104
    },
    {
      "midi": 43,
      "hit": false,
      "t": 108273.4375,
      "d": 490.234375,
      "v": 101
    },
    {
      "midi": 67,
      "hit": false,
      "t": 108287.109375,
      "d": 1216.796875,
      "v": 91
    },
    {
      "midi": 59,
      "hit": false,
      "t": 108289.0625,
      "d": 1179.6875,
      "v": 116
    },
    {
      "midi": 62,
      "hit": false,
      "t": 108289.0625,
      "d": 1259.765625,
      "v": 104
    },
    {
      "midi": 45,
      "hit": false,
      "t": 108742.1875,
      "d": 490.234375,
      "v": 101
    },
    {
      "midi": 47,
      "hit": false,
      "t": 109210.9375,
      "d": 490.234375,
      "v": 101
    },
    {
      "midi": 48,
      "hit": false,
      "t": 109679.6875,
      "d": 1259.765625,
      "v": 104
    },
    {
      "midi": 62,
      "hit": false,
      "t": 109705.078125,
      "d": 644.53125,
      "v": 104
    },
    {
      "midi": 64,
      "hit": false,
      "t": 109708.984375,
      "d": 625,
      "v": 91
    },
    {
      "midi": 67,
      "hit": false,
      "t": 109708.984375,
      "d": 636.71875,
      "v": 90
    },
    {
      "midi": 64,
      "hit": false,
      "t": 110414.0625,
      "d": 511.71875,
      "v": 105
    },
    {
      "midi": 62,
      "hit": false,
      "t": 110416.015625,
      "d": 496.09375,
      "v": 91
    },
    {
      "midi": 67,
      "hit": false,
      "t": 110416.015625,
      "d": 503.90625,
      "v": 106
    },
    {
      "midi": 48,
      "hit": false,
      "t": 111085.9375,
      "d": 1259.765625,
      "v": 105
    },
    {
      "midi": 64,
      "hit": false,
      "t": 111099.609375,
      "d": 1207.03125,
      "v": 104
    },
    {
      "midi": 67,
      "hit": false,
      "t": 111099.609375,
      "d": 1257.8125,
      "v": 90
    },
    {
      "midi": 62,
      "hit": false,
      "t": 111101.5625,
      "d": 1244.140625,
      "v": 105
    },
    {
      "midi": 40,
      "hit": false,
      "t": 112492.1875,
      "d": 607.421875,
      "v": 105
    },
    {
      "midi": 67,
      "hit": false,
      "t": 112515.625,
      "d": 626.953125,
      "v": 104
    },
    {
      "midi": 59,
      "hit": false,
      "t": 112517.578125,
      "d": 613.28125,
      "v": 104
    },
    {
      "midi": 62,
      "hit": false,
      "t": 112521.484375,
      "d": 611.328125,
      "v": 91
    },
    {
      "midi": 47,
      "hit": false,
      "t": 113195.3125,
      "d": 501.953125,
      "v": 105
    },
    {
      "midi": 62,
      "hit": false,
      "t": 113226.5625,
      "d": 507.8125,
      "v": 76
    },
    {
      "midi": 67,
      "hit": false,
      "t": 113228.515625,
      "d": 505.859375,
      "v": 90
    },
    {
      "midi": 59,
      "hit": false,
      "t": 113230.46875,
      "d": 496.09375,
      "v": 91
    },
    {
      "midi": 52,
      "hit": false,
      "t": 113898.4375,
      "d": 1244.140625,
      "v": 104
    },
    {
      "midi": 62,
      "hit": false,
      "t": 113917.96875,
      "d": 1255.859375,
      "v": 91
    },
    {
      "midi": 59,
      "hit": false,
      "t": 113919.921875,
      "d": 1244.140625,
      "v": 105
    },
    {
      "midi": 67,
      "hit": false,
      "t": 113919.921875,
      "d": 1267.578125,
      "v": 90
    },
    {
      "midi": 48,
      "hit": false,
      "t": 115304.6875,
      "d": 1259.765625,
      "v": 105
    },
    {
      "midi": 67,
      "hit": false,
      "t": 115320.3125,
      "d": 679.6875,
      "v": 104
    },
    {
      "midi": 64,
      "hit": false,
      "t": 115326.171875,
      "d": 642.578125,
      "v": 105
    },
    {
      "midi": 62,
      "hit": false,
      "t": 115326.171875,
      "d": 667.96875,
      "v": 104
    },
    {
      "midi": 67,
      "hit": false,
      "t": 116039.0625,
      "d": 390.625,
      "v": 104
    },
    {
      "midi": 64,
      "hit": false,
      "t": 116039.0625,
      "d": 515.625,
      "v": 90
    },
    {
      "midi": 62,
      "hit": false,
      "t": 116039.0625,
      "d": 541.015625,
      "v": 91
    },
    {
      "midi": 50,
      "hit": false,
      "t": 116710.9375,
      "d": 1259.765625,
      "v": 105
    },
    {
      "midi": 62,
      "hit": false,
      "t": 116730.46875,
      "d": 628.90625,
      "v": 91
    },
    {
      "midi": 66,
      "hit": false,
      "t": 116736.328125,
      "d": 593.75,
      "v": 92
    },
    {
      "midi": 57,
      "hit": false,
      "t": 116736.328125,
      "d": 611.328125,
      "v": 116
    },
    {
      "midi": 57,
      "hit": false,
      "t": 117445.3125,
      "d": 607.421875,
      "v": 105
    },
    {
      "midi": 66,
      "hit": false,
      "t": 117445.3125,
      "d": 609.375,
      "v": 104
    },
    {
      "midi": 62,
      "hit": false,
      "t": 117447.265625,
      "d": 605.46875,
      "v": 105
    },
    {
      "midi": 67,
      "hit": false,
      "t": 118117.1875,
      "d": 703.125,
      "v": 102
    },
    {
      "midi": 43,
      "hit": false,
      "t": 118117.1875,
      "d": 2812.5,
      "v": 103
    },
    {
      "midi": 50,
      "hit": false,
      "t": 118351.5625,
      "d": 703.125,
      "v": 75
    },
    {
      "midi": 55,
      "hit": false,
      "t": 118585.9375,
      "d": 703.125,
      "v": 74
    },
    {
      "midi": 62,
      "hit": false,
      "t": 118820.3125,
      "d": 912.109375,
      "v": 74
    },
    {
      "midi": 67,
      "hit": false,
      "t": 119054.6875,
      "d": 234.375,
      "v": 91
    },
    {
      "midi": 66,
      "hit": false,
      "t": 119289.0625,
      "d": 234.375,
      "v": 83
    },
    {
      "midi": 67,
      "hit": false,
      "t": 119523.4375,
      "d": 208.984375,
      "v": 92
    },
    {
      "midi": 55,
      "hit": false,
      "t": 119757.8125,
      "d": 443.359375,
      "v": 100
    },
    {
      "midi": 59,
      "hit": false,
      "t": 119757.8125,
      "d": 703.125,
      "v": 101
    },
    {
      "midi": 62,
      "hit": false,
      "t": 119757.8125,
      "d": 937.5,
      "v": 101
    },
    {
      "midi": 67,
      "hit": false,
      "t": 119757.8125,
      "d": 937.5,
      "v": 100
    },
    {
      "midi": 50,
      "hit": false,
      "t": 119992.1875,
      "d": 703.125,
      "v": 82
    },
    {
      "midi": 55,
      "hit": false,
      "t": 120226.5625,
      "d": 703.125,
      "v": 83
    },
    {
      "midi": 60,
      "hit": false,
      "t": 120460.9375,
      "d": 234.375,
      "v": 90
    },
    {
      "midi": 59,
      "hit": false,
      "t": 120695.3125,
      "d": 234.375,
      "v": 83
    },
    {
      "midi": 60,
      "hit": false,
      "t": 120929.6875,
      "d": 654.296875,
      "v": 92
    },
    {
      "midi": 48,
      "hit": false,
      "t": 120929.6875,
      "d": 2812.5,
      "v": 103
    },
    {
      "midi": 52,
      "hit": false,
      "t": 121164.0625,
      "d": 703.125,
      "v": 67
    },
    {
      "midi": 55,
      "hit": false,
      "t": 121398.4375,
      "d": 703.125,
      "v": 54
    },
    {
      "midi": 60,
      "hit": false,
      "t": 121632.8125,
      "d": 703.125,
      "v": 84
    },
    {
      "midi": 62,
      "hit": false,
      "t": 121867.1875,
      "d": 234.375,
      "v": 93
    },
    {
      "midi": 67,
      "hit": false,
      "t": 122101.5625,
      "d": 185.546875,
      "v": 101
    },
    {
      "midi": 62,
      "hit": false,
      "t": 122310.546875,
      "d": 234.375,
      "v": 92
    },
    {
      "midi": 67,
      "hit": false,
      "t": 122335.9375,
      "d": 443.359375,
      "v": 82
    },
    {
      "midi": 64,
      "hit": false,
      "t": 122408.203125,
      "d": 396.484375,
      "v": 105
    },
    {
      "midi": 62,
      "hit": false,
      "t": 122804.6875,
      "d": 443.359375,
      "v": 105
    },
    {
      "midi": 67,
      "hit": false,
      "t": 122804.6875,
      "d": 443.359375,
      "v": 82
    },
    {
      "midi": 60,
      "hit": false,
      "t": 123273.4375,
      "d": 443.359375,
      "v": 104
    },
    {
      "midi": 67,
      "hit": false,
      "t": 123273.4375,
      "d": 443.359375,
      "v": 83
    },
    {
      "midi": 55,
      "hit": false,
      "t": 123742.1875,
      "d": 654.296875,
      "v": 93
    },
    {
      "midi": 59,
      "hit": false,
      "t": 123742.1875,
      "d": 820.3125,
      "v": 93
    },
    {
      "midi": 64,
      "hit": false,
      "t": 123742.1875,
      "d": 1054.6875,
      "v": 92
    },
    {
      "midi": 40,
      "hit": false,
      "t": 123742.1875,
      "d": 2812.5,
      "v": 102
    },
    {
      "midi": 52,
      "hit": false,
      "t": 124210.9375,
      "d": 468.75,
      "v": 75
    },
    {
      "midi": 55,
      "hit": false,
      "t": 124445.3125,
      "d": 468.75,
      "v": 90
    },
    {
      "midi": 59,
      "hit": false,
      "t": 124679.6875,
      "d": 468.75,
      "v": 94
    },
    {
      "midi": 64,
      "hit": false,
      "t": 124914.0625,
      "d": 199.21875,
      "v": 95
    },
    {
      "midi": 64,
      "hit": false,
      "t": 125148.4375,
      "d": 468.75,
      "v": 95
    },
    {
      "midi": 71,
      "hit": false,
      "t": 125148.4375,
      "d": 468.75,
      "v": 106
    },
    {
      "midi": 59,
      "hit": false,
      "t": 125382.8125,
      "d": 207.03125,
      "v": 74
    },
    {
      "midi": 59,
      "hit": false,
      "t": 125617.1875,
      "d": 468.75,
      "v": 91
    },
    {
      "midi": 67,
      "hit": false,
      "t": 125617.1875,
      "d": 468.75,
      "v": 103
    },
    {
      "midi": 52,
      "hit": false,
      "t": 125851.5625,
      "d": 234.375,
      "v": 74
    },
    {
      "midi": 64,
      "hit": false,
      "t": 126085.9375,
      "d": 419.921875,
      "v": 96
    },
    {
      "midi": 71,
      "hit": false,
      "t": 126085.9375,
      "d": 419.921875,
      "v": 109
    },
    {
      "midi": 59,
      "hit": false,
      "t": 126320.3125,
      "d": 234.375,
      "v": 74
    },
    {
      "midi": 71,
      "hit": false,
      "t": 126554.6875,
      "d": 468.75,
      "v": 109
    },
    {
      "midi": 48,
      "hit": false,
      "t": 126554.6875,
      "d": 1406.25,
      "v": 103
    },
    {
      "midi": 55,
      "hit": false,
      "t": 126554.6875,
      "d": 1406.25,
      "v": 103
    },
    {
      "midi": 64,
      "hit": false,
      "t": 126554.6875,
      "d": 1406.25,
      "v": 102
    },
    {
      "midi": 69,
      "hit": false,
      "t": 127023.4375,
      "d": 234.375,
      "v": 94
    },
    {
      "midi": 67,
      "hit": false,
      "t": 127257.8125,
      "d": 638.671875,
      "v": 96
    },
    {
      "midi": 62,
      "hit": false,
      "t": 127960.9375,
      "d": 384.765625,
      "v": 78
    },
    {
      "midi": 57,
      "hit": false,
      "t": 127960.9375,
      "d": 654.296875,
      "v": 79
    },
    {
      "midi": 67,
      "hit": false,
      "t": 127960.9375,
      "d": 703.125,
      "v": 90
    },
    {
      "midi": 50,
      "hit": false,
      "t": 127960.9375,
      "d": 1406.25,
      "v": 103
    },
    {
      "midi": 62,
      "hit": false,
      "t": 128429.6875,
      "d": 234.375,
      "v": 75
    },
    {
      "midi": 57,
      "hit": false,
      "t": 128664.0625,
      "d": 234.375,
      "v": 77
    },
    {
      "midi": 55,
      "hit": false,
      "t": 128898.4375,
      "d": 234.375,
      "v": 90
    },
    {
      "midi": 54,
      "hit": false,
      "t": 129132.8125,
      "d": 234.375,
      "v": 94
    },
    {
      "midi": 67,
      "hit": false,
      "t": 129367.1875,
      "d": 703.125,
      "v": 102
    },
    {
      "midi": 43,
      "hit": false,
      "t": 129367.1875,
      "d": 2812.5,
      "v": 103
    },
    {
      "midi": 50,
      "hit": false,
      "t": 129601.5625,
      "d": 703.125,
      "v": 75
    },
    {
      "midi": 55,
      "hit": false,
      "t": 129835.9375,
      "d": 703.125,
      "v": 75
    },
    {
      "midi": 62,
      "hit": false,
      "t": 130070.3125,
      "d": 912.109375,
      "v": 74
    },
    {
      "midi": 67,
      "hit": false,
      "t": 130304.6875,
      "d": 234.375,
      "v": 91
    },
    {
      "midi": 66,
      "hit": false,
      "t": 130539.0625,
      "d": 234.375,
      "v": 82
    },
    {
      "midi": 67,
      "hit": false,
      "t": 130773.4375,
      "d": 208.984375,
      "v": 92
    },
    {
      "midi": 55,
      "hit": false,
      "t": 131007.8125,
      "d": 443.359375,
      "v": 101
    },
    {
      "midi": 67,
      "hit": false,
      "t": 131007.8125,
      "d": 585.9375,
      "v": 100
    },
    {
      "midi": 59,
      "hit": false,
      "t": 131007.8125,
      "d": 703.125,
      "v": 101
    },
    {
      "midi": 62,
      "hit": false,
      "t": 131007.8125,
      "d": 937.5,
      "v": 100
    },
    {
      "midi": 50,
      "hit": false,
      "t": 131242.1875,
      "d": 703.125,
      "v": 83
    },
    {
      "midi": 55,
      "hit": false,
      "t": 131476.5625,
      "d": 703.125,
      "v": 83
    },
    {
      "midi": 67,
      "hit": false,
      "t": 131710.9375,
      "d": 234.375,
      "v": 90
    },
    {
      "midi": 66,
      "hit": false,
      "t": 131945.3125,
      "d": 234.375,
      "v": 82
    },
    {
      "midi": 64,
      "hit": false,
      "t": 132179.6875,
      "d": 654.296875,
      "v": 92
    },
    {
      "midi": 48,
      "hit": false,
      "t": 132179.6875,
      "d": 2812.5,
      "v": 103
    },
    {
      "midi": 55,
      "hit": false,
      "t": 132414.0625,
      "d": 351.5625,
      "v": 69
    },
    {
      "midi": 62,
      "hit": false,
      "t": 132648.4375,
      "d": 703.125,
      "v": 85
    },
    {
      "midi": 55,
      "hit": false,
      "t": 132882.8125,
      "d": 419.921875,
      "v": 92
    },
    {
      "midi": 64,
      "hit": false,
      "t": 132882.8125,
      "d": 468.75,
      "v": 93
    },
    {
      "midi": 55,
      "hit": false,
      "t": 133351.5625,
      "d": 185.546875,
      "v": 100
    },
    {
      "midi": 66,
      "hit": false,
      "t": 133351.5625,
      "d": 185.546875,
      "v": 100
    },
    {
      "midi": 55,
      "hit": false,
      "t": 133585.9375,
      "d": 449.21875,
      "v": 105
    },
    {
      "midi": 62,
      "hit": false,
      "t": 133585.9375,
      "d": 1289.0625,
      "v": 105
    },
    {
      "midi": 67,
      "hit": false,
      "t": 133585.9375,
      "d": 1289.0625,
      "v": 104
    },
    {
      "midi": 55,
      "hit": false,
      "t": 134054.6875,
      "d": 423.828125,
      "v": 86
    },
    {
      "midi": 55,
      "hit": false,
      "t": 134523.4375,
      "d": 423.828125,
      "v": 83
    },
    {
      "midi": 55,
      "hit": false,
      "t": 134992.1875,
      "d": 654.296875,
      "v": 92
    },
    {
      "midi": 59,
      "hit": false,
      "t": 134992.1875,
      "d": 820.3125,
      "v": 92
    },
    {
      "midi": 64,
      "hit": false,
      "t": 134992.1875,
      "d": 1054.6875,
      "v": 93
    },
    {
      "midi": 40,
      "hit": false,
      "t": 134992.1875,
      "d": 2812.5,
      "v": 103
    },
    {
      "midi": 52,
      "hit": false,
      "t": 135460.9375,
      "d": 468.75,
      "v": 74
    },
    {
      "midi": 55,
      "hit": false,
      "t": 135695.3125,
      "d": 468.75,
      "v": 91
    },
    {
      "midi": 59,
      "hit": false,
      "t": 135929.6875,
      "d": 468.75,
      "v": 95
    },
    {
      "midi": 64,
      "hit": false,
      "t": 136164.0625,
      "d": 199.21875,
      "v": 94
    },
    {
      "midi": 64,
      "hit": false,
      "t": 136398.4375,
      "d": 468.75,
      "v": 95
    },
    {
      "midi": 71,
      "hit": false,
      "t": 136398.4375,
      "d": 468.75,
      "v": 106
    },
    {
      "midi": 59,
      "hit": false,
      "t": 136632.8125,
      "d": 207.03125,
      "v": 74
    },
    {
      "midi": 59,
      "hit": false,
      "t": 136867.1875,
      "d": 468.75,
      "v": 91
    },
    {
      "midi": 67,
      "hit": false,
      "t": 136867.1875,
      "d": 468.75,
      "v": 103
    },
    {
      "midi": 52,
      "hit": false,
      "t": 137101.5625,
      "d": 234.375,
      "v": 74
    },
    {
      "midi": 64,
      "hit": false,
      "t": 137335.9375,
      "d": 419.921875,
      "v": 96
    },
    {
      "midi": 71,
      "hit": false,
      "t": 137335.9375,
      "d": 419.921875,
      "v": 109
    },
    {
      "midi": 59,
      "hit": false,
      "t": 137570.3125,
      "d": 234.375,
      "v": 75
    },
    {
      "midi": 71,
      "hit": false,
      "t": 137804.6875,
      "d": 703.125,
      "v": 108
    },
    {
      "midi": 55,
      "hit": false,
      "t": 137804.6875,
      "d": 937.5,
      "v": 102
    },
    {
      "midi": 48,
      "hit": false,
      "t": 137804.6875,
      "d": 1406.25,
      "v": 102
    },
    {
      "midi": 64,
      "hit": false,
      "t": 137804.6875,
      "d": 1406.25,
      "v": 103
    },
    {
      "midi": 60,
      "hit": false,
      "t": 138273.4375,
      "d": 703.125,
      "v": 67
    },
    {
      "midi": 69,
      "hit": false,
      "t": 138507.8125,
      "d": 638.671875,
      "v": 97
    },
    {
      "midi": 55,
      "hit": false,
      "t": 138976.5625,
      "d": 585.9375,
      "v": 78
    },
    {
      "midi": 62,
      "hit": false,
      "t": 139210.9375,
      "d": 384.765625,
      "v": 78
    },
    {
      "midi": 67,
      "hit": false,
      "t": 139210.9375,
      "d": 703.125,
      "v": 101
    },
    {
      "midi": 57,
      "hit": false,
      "t": 139210.9375,
      "d": 1054.6875,
      "v": 78
    },
    {
      "midi": 50,
      "hit": false,
      "t": 139210.9375,
      "d": 1406.25,
      "v": 103
    },
    {
      "midi": 62,
      "hit": false,
      "t": 139679.6875,
      "d": 234.375,
      "v": 75
    },
    {
      "midi": 66,
      "hit": false,
      "t": 139914.0625,
      "d": 703.125,
      "v": 100
    },
    {
      "midi": 62,
      "hit": false,
      "t": 140148.4375,
      "d": 234.375,
      "v": 90
    },
    {
      "midi": 57,
      "hit": false,
      "t": 140382.8125,
      "d": 234.375,
      "v": 85
    },
    {
      "midi": 59,
      "hit": false,
      "t": 140617.1875,
      "d": 654.296875,
      "v": 102
    },
    {
      "midi": 62,
      "hit": false,
      "t": 140617.1875,
      "d": 703.125,
      "v": 103
    },
    {
      "midi": 66,
      "hit": false,
      "t": 140617.1875,
      "d": 703.125,
      "v": 102
    },
    {
      "midi": 35,
      "hit": false,
      "t": 140617.1875,
      "d": 2812.5,
      "v": 103
    },
    {
      "midi": 47,
      "hit": false,
      "t": 140617.1875,
      "d": 2812.5,
      "v": 102
    },
    {
      "midi": 59,
      "hit": false,
      "t": 141320.3125,
      "d": 1875,
      "v": 75
    },
    {
      "midi": 62,
      "hit": false,
      "t": 141554.6875,
      "d": 1640.625,
      "v": 85
    },
    {
      "midi": 66,
      "hit": false,
      "t": 141789.0625,
      "d": 468.75,
      "v": 92
    },
    {
      "midi": 71,
      "hit": false,
      "t": 142023.4375,
      "d": 429.6875,
      "v": 99
    },
    {
      "midi": 74,
      "hit": false,
      "t": 142023.4375,
      "d": 429.6875,
      "v": 98
    },
    {
      "midi": 66,
      "hit": false,
      "t": 142492.1875,
      "d": 419.921875,
      "v": 116
    },
    {
      "midi": 71,
      "hit": false,
      "t": 142492.1875,
      "d": 419.921875,
      "v": 117
    },
    {
      "midi": 74,
      "hit": false,
      "t": 142492.1875,
      "d": 468.75,
      "v": 117
    },
    {
      "midi": 66,
      "hit": false,
      "t": 142960.9375,
      "d": 443.359375,
      "v": 108
    },
    {
      "midi": 71,
      "hit": false,
      "t": 142960.9375,
      "d": 443.359375,
      "v": 108
    },
    {
      "midi": 72,
      "hit": false,
      "t": 142960.9375,
      "d": 468.75,
      "v": 109
    },
    {
      "midi": 64,
      "hit": false,
      "t": 143429.6875,
      "d": 654.296875,
      "v": 92
    },
    {
      "midi": 67,
      "hit": false,
      "t": 143429.6875,
      "d": 654.296875,
      "v": 93
    },
    {
      "midi": 71,
      "hit": false,
      "t": 143429.6875,
      "d": 654.296875,
      "v": 92
    },
    {
      "midi": 36,
      "hit": false,
      "t": 143429.6875,
      "d": 1640.625,
      "v": 103
    },
    {
      "midi": 48,
      "hit": false,
      "t": 143429.6875,
      "d": 1640.625,
      "v": 102
    },
    {
      "midi": 60,
      "hit": false,
      "t": 143898.4375,
      "d": 654.296875,
      "v": 79
    },
    {
      "midi": 64,
      "hit": false,
      "t": 144132.8125,
      "d": 654.296875,
      "v": 101
    },
    {
      "midi": 67,
      "hit": false,
      "t": 144132.8125,
      "d": 654.296875,
      "v": 100
    },
    {
      "midi": 69,
      "hit": false,
      "t": 144132.8125,
      "d": 654.296875,
      "v": 101
    },
    {
      "midi": 55,
      "hit": false,
      "t": 144601.5625,
      "d": 654.296875,
      "v": 78
    },
    {
      "midi": 60,
      "hit": false,
      "t": 144835.9375,
      "d": 654.296875,
      "v": 106
    },
    {
      "midi": 64,
      "hit": false,
      "t": 144835.9375,
      "d": 654.296875,
      "v": 107
    },
    {
      "midi": 67,
      "hit": false,
      "t": 144835.9375,
      "d": 654.296875,
      "v": 107
    },
    {
      "midi": 36,
      "hit": false,
      "t": 145304.6875,
      "d": 937.5,
      "v": 102
    },
    {
      "midi": 48,
      "hit": false,
      "t": 145304.6875,
      "d": 937.5,
      "v": 102
    },
    {
      "midi": 55,
      "hit": false,
      "t": 145539.0625,
      "d": 703.125,
      "v": 79
    },
    {
      "midi": 64,
      "hit": false,
      "t": 145773.4375,
      "d": 207.03125,
      "v": 87
    },
    {
      "midi": 67,
      "hit": false,
      "t": 145773.4375,
      "d": 207.03125,
      "v": 86
    },
    {
      "midi": 66,
      "hit": false,
      "t": 146007.8125,
      "d": 207.03125,
      "v": 92
    },
    {
      "midi": 69,
      "hit": false,
      "t": 146007.8125,
      "d": 207.03125,
      "v": 93
    },
    {
      "midi": 67,
      "hit": false,
      "t": 146242.1875,
      "d": 937.5,
      "v": 93
    },
    {
      "midi": 71,
      "hit": false,
      "t": 146242.1875,
      "d": 937.5,
      "v": 92
    },
    {
      "midi": 64,
      "hit": false,
      "t": 146242.1875,
      "d": 1054.6875,
      "v": 93
    },
    {
      "midi": 40,
      "hit": false,
      "t": 146242.1875,
      "d": 2812.5,
      "v": 102
    },
    {
      "midi": 52,
      "hit": false,
      "t": 146710.9375,
      "d": 468.75,
      "v": 75
    },
    {
      "midi": 55,
      "hit": false,
      "t": 146945.3125,
      "d": 468.75,
      "v": 90
    },
    {
      "midi": 59,
      "hit": false,
      "t": 147179.6875,
      "d": 468.75,
      "v": 94
    },
    {
      "midi": 64,
      "hit": false,
      "t": 147414.0625,
      "d": 199.21875,
      "v": 95
    },
    {
      "midi": 64,
      "hit": false,
      "t": 147648.4375,
      "d": 468.75,
      "v": 95
    },
    {
      "midi": 71,
      "hit": false,
      "t": 147648.4375,
      "d": 468.75,
      "v": 106
    },
    {
      "midi": 59,
      "hit": false,
      "t": 147882.8125,
      "d": 207.03125,
      "v": 74
    },
    {
      "midi": 59,
      "hit": false,
      "t": 148117.1875,
      "d": 468.75,
      "v": 91
    },
    {
      "midi": 67,
      "hit": false,
      "t": 148117.1875,
      "d": 468.75,
      "v": 103
    },
    {
      "midi": 52,
      "hit": false,
      "t": 148351.5625,
      "d": 234.375,
      "v": 74
    },
    {
      "midi": 64,
      "hit": false,
      "t": 148585.9375,
      "d": 419.921875,
      "v": 96
    },
    {
      "midi": 71,
      "hit": false,
      "t": 148585.9375,
      "d": 419.921875,
      "v": 109
    },
    {
      "midi": 59,
      "hit": false,
      "t": 148820.3125,
      "d": 234.375,
      "v": 74
    },
    {
      "midi": 71,
      "hit": false,
      "t": 149054.6875,
      "d": 468.75,
      "v": 109
    },
    {
      "midi": 55,
      "hit": false,
      "t": 149054.6875,
      "d": 937.5,
      "v": 103
    },
    {
      "midi": 48,
      "hit": false,
      "t": 149054.6875,
      "d": 1406.25,
      "v": 103
    },
    {
      "midi": 64,
      "hit": false,
      "t": 149054.6875,
      "d": 1406.25,
      "v": 102
    },
    {
      "midi": 69,
      "hit": false,
      "t": 149523.4375,
      "d": 234.375,
      "v": 74
    },
    {
      "midi": 60,
      "hit": false,
      "t": 149523.4375,
      "d": 703.125,
      "v": 66
    },
    {
      "midi": 67,
      "hit": false,
      "t": 149757.8125,
      "d": 638.671875,
      "v": 97
    },
    {
      "midi": 55,
      "hit": false,
      "t": 150226.5625,
      "d": 585.9375,
      "v": 79
    },
    {
      "midi": 62,
      "hit": false,
      "t": 150460.9375,
      "d": 384.765625,
      "v": 79
    },
    {
      "midi": 67,
      "hit": false,
      "t": 150460.9375,
      "d": 703.125,
      "v": 101
    },
    {
      "midi": 57,
      "hit": false,
      "t": 150460.9375,
      "d": 1054.6875,
      "v": 78
    },
    {
      "midi": 50,
      "hit": false,
      "t": 150460.9375,
      "d": 1406.25,
      "v": 102
    },
    {
      "midi": 62,
      "hit": false,
      "t": 150929.6875,
      "d": 234.375,
      "v": 74
    },
    {
      "midi": 66,
      "hit": false,
      "t": 151164.0625,
      "d": 703.125,
      "v": 100
    },
    {
      "midi": 62,
      "hit": false,
      "t": 151398.4375,
      "d": 234.375,
      "v": 91
    },
    {
      "midi": 57,
      "hit": false,
      "t": 151632.8125,
      "d": 234.375,
      "v": 84
    },
    {
      "midi": 59,
      "hit": false,
      "t": 151867.1875,
      "d": 468.75,
      "v": 103
    },
    {
      "midi": 62,
      "hit": false,
      "t": 151867.1875,
      "d": 468.75,
      "v": 102
    },
    {
      "midi": 67,
      "hit": false,
      "t": 151867.1875,
      "d": 468.75,
      "v": 103
    },
    {
      "midi": 43,
      "hit": false,
      "t": 151867.1875,
      "d": 1171.875,
      "v": 103
    },
    {
      "midi": 50,
      "hit": false,
      "t": 152101.5625,
      "d": 703.125,
      "v": 86
    },
    {
      "midi": 55,
      "hit": false,
      "t": 152335.9375,
      "d": 468.75,
      "v": 86
    },
    {
      "midi": 59,
      "hit": false,
      "t": 152570.3125,
      "d": 468.75,
      "v": 103
    },
    {
      "midi": 62,
      "hit": false,
      "t": 152570.3125,
      "d": 468.75,
      "v": 103
    },
    {
      "midi": 67,
      "hit": false,
      "t": 152570.3125,
      "d": 468.75,
      "v": 102
    },
    {
      "midi": 55,
      "hit": false,
      "t": 153039.0625,
      "d": 468.75,
      "v": 86
    },
    {
      "midi": 43,
      "hit": false,
      "t": 153273.4375,
      "d": 468.75,
      "v": 103
    },
    {
      "midi": 59,
      "hit": false,
      "t": 153273.4375,
      "d": 468.75,
      "v": 103
    },
    {
      "midi": 71,
      "hit": false,
      "t": 153273.4375,
      "d": 468.75,
      "v": 102
    },
    {
      "midi": 45,
      "hit": false,
      "t": 153742.1875,
      "d": 468.75,
      "v": 102
    },
    {
      "midi": 60,
      "hit": false,
      "t": 153742.1875,
      "d": 468.75,
      "v": 103
    },
    {
      "midi": 69,
      "hit": false,
      "t": 153742.1875,
      "d": 468.75,
      "v": 102
    },
    {
      "midi": 47,
      "hit": false,
      "t": 154210.9375,
      "d": 468.75,
      "v": 103
    },
    {
      "midi": 62,
      "hit": false,
      "t": 154210.9375,
      "d": 468.75,
      "v": 103
    },
    {
      "midi": 67,
      "hit": false,
      "t": 154210.9375,
      "d": 468.75,
      "v": 102
    },
    {
      "midi": 60,
      "hit": false,
      "t": 154679.6875,
      "d": 654.296875,
      "v": 92
    },
    {
      "midi": 64,
      "hit": false,
      "t": 154679.6875,
      "d": 654.296875,
      "v": 92
    },
    {
      "midi": 48,
      "hit": false,
      "t": 154679.6875,
      "d": 2812.5,
      "v": 103
    },
    {
      "midi": 52,
      "hit": false,
      "t": 154914.0625,
      "d": 703.125,
      "v": 67
    },
    {
      "midi": 55,
      "hit": false,
      "t": 155148.4375,
      "d": 703.125,
      "v": 55
    },
    {
      "midi": 60,
      "hit": false,
      "t": 155382.8125,
      "d": 703.125,
      "v": 84
    },
    {
      "midi": 62,
      "hit": false,
      "t": 155617.1875,
      "d": 234.375,
      "v": 92
    },
    {
      "midi": 67,
      "hit": false,
      "t": 155851.5625,
      "d": 185.546875,
      "v": 101
    },
    {
      "midi": 62,
      "hit": false,
      "t": 156060.546875,
      "d": 234.375,
      "v": 93
    },
    {
      "midi": 67,
      "hit": false,
      "t": 156085.9375,
      "d": 443.359375,
      "v": 82
    },
    {
      "midi": 64,
      "hit": false,
      "t": 156158.203125,
      "d": 396.484375,
      "v": 104
    },
    {
      "midi": 62,
      "hit": false,
      "t": 156554.6875,
      "d": 443.359375,
      "v": 105
    },
    {
      "midi": 67,
      "hit": false,
      "t": 156554.6875,
      "d": 443.359375,
      "v": 82
    },
    {
      "midi": 60,
      "hit": false,
      "t": 157023.4375,
      "d": 443.359375,
      "v": 105
    },
    {
      "midi": 67,
      "hit": false,
      "t": 157023.4375,
      "d": 443.359375,
      "v": 83
    },
    {
      "midi": 64,
      "hit": false,
      "t": 157492.1875,
      "d": 703.125,
      "v": 103
    },
    {
      "midi": 67,
      "hit": false,
      "t": 157492.1875,
      "d": 937.5,
      "v": 102
    },
    {
      "midi": 40,
      "hit": false,
      "t": 157492.1875,
      "d": 1406.25,
      "v": 102
    },
    {
      "midi": 71,
      "hit": false,
      "t": 157492.1875,
      "d": 1406.25,
      "v": 102
    },
    {
      "midi": 52,
      "hit": false,
      "t": 157960.9375,
      "d": 468.75,
      "v": 79
    },
    {
      "midi": 59,
      "hit": false,
      "t": 158195.3125,
      "d": 468.75,
      "v": 91
    },
    {
      "midi": 64,
      "hit": false,
      "t": 158429.6875,
      "d": 468.75,
      "v": 98
    },
    {
      "midi": 67,
      "hit": false,
      "t": 158664.0625,
      "d": 234.375,
      "v": 102
    },
    {
      "midi": 57,
      "hit": false,
      "t": 158898.4375,
      "d": 468.75,
      "v": 103
    },
    {
      "midi": 62,
      "hit": false,
      "t": 158898.4375,
      "d": 468.75,
      "v": 102
    },
    {
      "midi": 38,
      "hit": false,
      "t": 158898.4375,
      "d": 1406.25,
      "v": 103
    },
    {
      "midi": 69,
      "hit": false,
      "t": 158898.4375,
      "d": 1406.25,
      "v": 102
    },
    {
      "midi": 67,
      "hit": false,
      "t": 159132.8125,
      "d": 234.375,
      "v": 103
    },
    {
      "midi": 66,
      "hit": false,
      "t": 159367.1875,
      "d": 468.75,
      "v": 98
    },
    {
      "midi": 57,
      "hit": false,
      "t": 159601.5625,
      "d": 468.75,
      "v": 79
    },
    {
      "midi": 62,
      "hit": false,
      "t": 159835.9375,
      "d": 419.921875,
      "v": 91
    },
    {
      "midi": 66,
      "hit": false,
      "t": 160070.3125,
      "d": 468.75,
      "v": 102
    },
    {
      "midi": 43,
      "hit": false,
      "t": 160304.6875,
      "d": 937.5,
      "v": 103
    },
    {
      "midi": 55,
      "hit": false,
      "t": 160304.6875,
      "d": 1380.859375,
      "v": 102
    },
    {
      "midi": 59,
      "hit": false,
      "t": 160304.6875,
      "d": 1406.25,
      "v": 102
    },
    {
      "midi": 62,
      "hit": false,
      "t": 160304.6875,
      "d": 1406.25,
      "v": 103
    },
    {
      "midi": 67,
      "hit": false,
      "t": 160304.6875,
      "d": 1406.25,
      "v": 103
    },
    {
      "midi": 43,
      "hit": false,
      "t": 161476.5625,
      "d": 1562.5,
      "v": 102
    },
    {
      "midi": 55,
      "hit": false,
      "t": 161710.9375,
      "d": 654.296875,
      "v": 102
    },
    {
      "midi": 60,
      "hit": false,
      "t": 161710.9375,
      "d": 654.296875,
      "v": 103
    },
    {
      "midi": 64,
      "hit": false,
      "t": 161710.9375,
      "d": 654.296875,
      "v": 103
    },
    {
      "midi": 55,
      "hit": false,
      "t": 162414.0625,
      "d": 677.734375,
      "v": 102
    },
    {
      "midi": 60,
      "hit": false,
      "t": 162414.0625,
      "d": 677.734375,
      "v": 102
    },
    {
      "midi": 64,
      "hit": false,
      "t": 162414.0625,
      "d": 677.734375,
      "v": 103
    },
    {
      "midi": 43,
      "hit": false,
      "t": 163117.1875,
      "d": 1259.765625,
      "v": 104
    },
    {
      "midi": 67,
      "hit": false,
      "t": 163140.625,
      "d": 662.109375,
      "v": 91
    },
    {
      "midi": 59,
      "hit": false,
      "t": 163140.625,
      "d": 664.0625,
      "v": 101
    },
    {
      "midi": 62,
      "hit": false,
      "t": 163142.578125,
      "d": 667.96875,
      "v": 106
    },
    {
      "midi": 59,
      "hit": false,
      "t": 163855.46875,
      "d": 492.1875,
      "v": 105
    },
    {
      "midi": 67,
      "hit": false,
      "t": 163855.46875,
      "d": 492.1875,
      "v": 90
    },
    {
      "midi": 62,
      "hit": false,
      "t": 163855.46875,
      "d": 505.859375,
      "v": 104
    },
    {
      "midi": 43,
      "hit": false,
      "t": 164523.4375,
      "d": 490.234375,
      "v": 101
    },
    {
      "midi": 67,
      "hit": false,
      "t": 164537.109375,
      "d": 1216.796875,
      "v": 91
    },
    {
      "midi": 59,
      "hit": false,
      "t": 164539.0625,
      "d": 1179.6875,
      "v": 116
    },
    {
      "midi": 62,
      "hit": false,
      "t": 164539.0625,
      "d": 1259.765625,
      "v": 104
    },
    {
      "midi": 45,
      "hit": false,
      "t": 164992.1875,
      "d": 490.234375,
      "v": 101
    },
    {
      "midi": 47,
      "hit": false,
      "t": 165460.9375,
      "d": 490.234375,
      "v": 101
    },
    {
      "midi": 48,
      "hit": false,
      "t": 165929.6875,
      "d": 1259.765625,
      "v": 104
    },
    {
      "midi": 62,
      "hit": false,
      "t": 165955.078125,
      "d": 644.53125,
      "v": 104
    },
    {
      "midi": 64,
      "hit": false,
      "t": 165958.984375,
      "d": 625,
      "v": 91
    },
    {
      "midi": 67,
      "hit": false,
      "t": 165958.984375,
      "d": 636.71875,
      "v": 90
    },
    {
      "midi": 64,
      "hit": false,
      "t": 166664.0625,
      "d": 511.71875,
      "v": 105
    },
    {
      "midi": 62,
      "hit": false,
      "t": 166666.015625,
      "d": 496.09375,
      "v": 91
    },
    {
      "midi": 67,
      "hit": false,
      "t": 166666.015625,
      "d": 503.90625,
      "v": 106
    },
    {
      "midi": 48,
      "hit": false,
      "t": 167335.9375,
      "d": 1259.765625,
      "v": 105
    },
    {
      "midi": 64,
      "hit": false,
      "t": 167349.609375,
      "d": 1207.03125,
      "v": 104
    },
    {
      "midi": 67,
      "hit": false,
      "t": 167349.609375,
      "d": 1257.8125,
      "v": 90
    },
    {
      "midi": 62,
      "hit": false,
      "t": 167351.5625,
      "d": 1244.140625,
      "v": 105
    },
    {
      "midi": 40,
      "hit": false,
      "t": 168742.1875,
      "d": 607.421875,
      "v": 105
    },
    {
      "midi": 67,
      "hit": false,
      "t": 168765.625,
      "d": 626.953125,
      "v": 104
    },
    {
      "midi": 59,
      "hit": false,
      "t": 168767.578125,
      "d": 613.28125,
      "v": 104
    },
    {
      "midi": 62,
      "hit": false,
      "t": 168771.484375,
      "d": 611.328125,
      "v": 91
    },
    {
      "midi": 47,
      "hit": false,
      "t": 169445.3125,
      "d": 501.953125,
      "v": 105
    },
    {
      "midi": 62,
      "hit": false,
      "t": 169476.5625,
      "d": 507.8125,
      "v": 76
    },
    {
      "midi": 67,
      "hit": false,
      "t": 169478.515625,
      "d": 505.859375,
      "v": 90
    },
    {
      "midi": 59,
      "hit": false,
      "t": 169480.46875,
      "d": 496.09375,
      "v": 91
    },
    {
      "midi": 52,
      "hit": false,
      "t": 170148.4375,
      "d": 1244.140625,
      "v": 104
    },
    {
      "midi": 62,
      "hit": false,
      "t": 170167.96875,
      "d": 1255.859375,
      "v": 91
    },
    {
      "midi": 59,
      "hit": false,
      "t": 170169.921875,
      "d": 1244.140625,
      "v": 105
    },
    {
      "midi": 67,
      "hit": false,
      "t": 170169.921875,
      "d": 1267.578125,
      "v": 90
    },
    {
      "midi": 48,
      "hit": false,
      "t": 171554.6875,
      "d": 1259.765625,
      "v": 105
    },
    {
      "midi": 67,
      "hit": false,
      "t": 171570.3125,
      "d": 679.6875,
      "v": 104
    },
    {
      "midi": 64,
      "hit": false,
      "t": 171576.171875,
      "d": 642.578125,
      "v": 105
    },
    {
      "midi": 62,
      "hit": false,
      "t": 171576.171875,
      "d": 667.96875,
      "v": 104
    },
    {
      "midi": 67,
      "hit": false,
      "t": 172289.0625,
      "d": 390.625,
      "v": 104
    },
    {
      "midi": 64,
      "hit": false,
      "t": 172289.0625,
      "d": 515.625,
      "v": 90
    },
    {
      "midi": 62,
      "hit": false,
      "t": 172289.0625,
      "d": 541.015625,
      "v": 91
    },
    {
      "midi": 50,
      "hit": false,
      "t": 172960.9375,
      "d": 1259.765625,
      "v": 105
    },
    {
      "midi": 62,
      "hit": false,
      "t": 172980.46875,
      "d": 628.90625,
      "v": 91
    },
    {
      "midi": 66,
      "hit": false,
      "t": 172986.328125,
      "d": 593.75,
      "v": 92
    },
    {
      "midi": 57,
      "hit": false,
      "t": 172986.328125,
      "d": 611.328125,
      "v": 116
    },
    {
      "midi": 57,
      "hit": false,
      "t": 173695.3125,
      "d": 607.421875,
      "v": 105
    },
    {
      "midi": 66,
      "hit": false,
      "t": 173695.3125,
      "d": 609.375,
      "v": 104
    },
    {
      "midi": 62,
      "hit": false,
      "t": 173697.265625,
      "d": 605.46875,
      "v": 105
    },
    {
      "midi": 43,
      "hit": false,
      "t": 174367.1875,
      "d": 1259.765625,
      "v": 105
    },
    {
      "midi": 67,
      "hit": false,
      "t": 174390.625,
      "d": 662.109375,
      "v": 91
    },
    {
      "midi": 59,
      "hit": false,
      "t": 174390.625,
      "d": 664.0625,
      "v": 100
    },
    {
      "midi": 62,
      "hit": false,
      "t": 174392.578125,
      "d": 667.96875,
      "v": 106
    },
    {
      "midi": 59,
      "hit": false,
      "t": 175105.46875,
      "d": 492.1875,
      "v": 104
    },
    {
      "midi": 67,
      "hit": false,
      "t": 175105.46875,
      "d": 492.1875,
      "v": 91
    },
    {
      "midi": 62,
      "hit": false,
      "t": 175105.46875,
      "d": 505.859375,
      "v": 105
    },
    {
      "midi": 43,
      "hit": false,
      "t": 175773.4375,
      "d": 490.234375,
      "v": 100
    },
    {
      "midi": 67,
      "hit": false,
      "t": 175787.109375,
      "d": 1216.796875,
      "v": 90
    },
    {
      "midi": 59,
      "hit": false,
      "t": 175789.0625,
      "d": 1179.6875,
      "v": 117
    },
    {
      "midi": 62,
      "hit": false,
      "t": 175789.0625,
      "d": 1259.765625,
      "v": 105
    },
    {
      "midi": 45,
      "hit": false,
      "t": 176242.1875,
      "d": 490.234375,
      "v": 100
    },
    {
      "midi": 47,
      "hit": false,
      "t": 176710.9375,
      "d": 490.234375,
      "v": 100
    },
    {
      "midi": 48,
      "hit": false,
      "t": 177179.6875,
      "d": 1259.765625,
      "v": 105
    },
    {
      "midi": 62,
      "hit": false,
      "t": 177205.078125,
      "d": 644.53125,
      "v": 104
    },
    {
      "midi": 64,
      "hit": false,
      "t": 177208.984375,
      "d": 625,
      "v": 91
    },
    {
      "midi": 67,
      "hit": false,
      "t": 177208.984375,
      "d": 636.71875,
      "v": 91
    },
    {
      "midi": 64,
      "hit": false,
      "t": 177914.0625,
      "d": 511.71875,
      "v": 104
    },
    {
      "midi": 62,
      "hit": false,
      "t": 177916.015625,
      "d": 496.09375,
      "v": 91
    },
    {
      "midi": 67,
      "hit": false,
      "t": 177916.015625,
      "d": 503.90625,
      "v": 106
    },
    {
      "midi": 48,
      "hit": false,
      "t": 178585.9375,
      "d": 1259.765625,
      "v": 104
    },
    {
      "midi": 64,
      "hit": false,
      "t": 178599.609375,
      "d": 1207.03125,
      "v": 105
    },
    {
      "midi": 67,
      "hit": false,
      "t": 178599.609375,
      "d": 1257.8125,
      "v": 91
    },
    {
      "midi": 62,
      "hit": false,
      "t": 178601.5625,
      "d": 1244.140625,
      "v": 104
    },
    {
      "midi": 40,
      "hit": false,
      "t": 179992.1875,
      "d": 607.421875,
      "v": 104
    },
    {
      "midi": 67,
      "hit": false,
      "t": 180015.625,
      "d": 626.953125,
      "v": 105
    },
    {
      "midi": 59,
      "hit": false,
      "t": 180017.578125,
      "d": 613.28125,
      "v": 105
    },
    {
      "midi": 62,
      "hit": false,
      "t": 180021.484375,
      "d": 611.328125,
      "v": 90
    },
    {
      "midi": 47,
      "hit": false,
      "t": 180695.3125,
      "d": 501.953125,
      "v": 104
    },
    {
      "midi": 62,
      "hit": false,
      "t": 180726.5625,
      "d": 507.8125,
      "v": 77
    },
    {
      "midi": 67,
      "hit": false,
      "t": 180728.515625,
      "d": 505.859375,
      "v": 90
    },
    {
      "midi": 59,
      "hit": false,
      "t": 180730.46875,
      "d": 496.09375,
      "v": 91
    },
    {
      "midi": 52,
      "hit": false,
      "t": 181398.4375,
      "d": 1244.140625,
      "v": 105
    },
    {
      "midi": 62,
      "hit": false,
      "t": 181417.96875,
      "d": 1255.859375,
      "v": 90
    },
    {
      "midi": 59,
      "hit": false,
      "t": 181419.921875,
      "d": 1244.140625,
      "v": 105
    },
    {
      "midi": 67,
      "hit": false,
      "t": 181419.921875,
      "d": 1267.578125,
      "v": 90
    },
    {
      "midi": 48,
      "hit": false,
      "t": 182804.6875,
      "d": 1259.765625,
      "v": 104
    },
    {
      "midi": 67,
      "hit": false,
      "t": 182820.3125,
      "d": 679.6875,
      "v": 105
    },
    {
      "midi": 64,
      "hit": false,
      "t": 182826.171875,
      "d": 642.578125,
      "v": 104
    },
    {
      "midi": 62,
      "hit": false,
      "t": 182826.171875,
      "d": 667.96875,
      "v": 105
    },
    {
      "midi": 67,
      "hit": false,
      "t": 183539.0625,
      "d": 390.625,
      "v": 105
    },
    {
      "midi": 64,
      "hit": false,
      "t": 183539.0625,
      "d": 515.625,
      "v": 91
    },
    {
      "midi": 62,
      "hit": false,
      "t": 183539.0625,
      "d": 541.015625,
      "v": 90
    },
    {
      "midi": 50,
      "hit": false,
      "t": 184210.9375,
      "d": 1259.765625,
      "v": 104
    },
    {
      "midi": 62,
      "hit": false,
      "t": 184230.46875,
      "d": 628.90625,
      "v": 90
    },
    {
      "midi": 66,
      "hit": false,
      "t": 184236.328125,
      "d": 593.75,
      "v": 92
    },
    {
      "midi": 57,
      "hit": false,
      "t": 184236.328125,
      "d": 611.328125,
      "v": 117
    },
    {
      "midi": 57,
      "hit": false,
      "t": 184945.3125,
      "d": 607.421875,
      "v": 105
    },
    {
      "midi": 66,
      "hit": false,
      "t": 184945.3125,
      "d": 609.375,
      "v": 105
    },
    {
      "midi": 62,
      "hit": false,
      "t": 184947.265625,
      "d": 605.46875,
      "v": 104
    },
    {
      "midi": 46,
      "hit": false,
      "t": 185636.71875,
      "d": 943.359375,
      "v": 127
    },
    {
      "midi": 58,
      "hit": false,
      "t": 185636.71875,
      "d": 1156.25,
      "v": 126
    },
    {
      "midi": 62,
      "hit": false,
      "t": 185636.71875,
      "d": 1162.109375,
      "v": 127
    },
    {
      "midi": 53,
      "hit": false,
      "t": 185636.71875,
      "d": 1171.875,
      "v": 126
    },
    {
      "midi": 46,
      "hit": false,
      "t": 186808.59375,
      "d": 1263.671875,
      "v": 109
    },
    {
      "midi": 62,
      "hit": false,
      "t": 187042.96875,
      "d": 748.046875,
      "v": 127
    },
    {
      "midi": 53,
      "hit": false,
      "t": 187042.96875,
      "d": 753.90625,
      "v": 126
    },
    {
      "midi": 58,
      "hit": false,
      "t": 187042.96875,
      "d": 753.90625,
      "v": 126
    },
    {
      "midi": 62,
      "hit": false,
      "t": 187980.46875,
      "d": 275.390625,
      "v": 112
    },
    {
      "midi": 58,
      "hit": false,
      "t": 187980.46875,
      "d": 287.109375,
      "v": 112
    },
    {
      "midi": 53,
      "hit": false,
      "t": 187980.46875,
      "d": 322.265625,
      "v": 113
    },
    {
      "midi": 46,
      "hit": false,
      "t": 188214.84375,
      "d": 181.640625,
      "v": 123
    },
    {
      "midi": 41,
      "hit": false,
      "t": 188449.21875,
      "d": 1060.546875,
      "v": 126
    },
    {
      "midi": 57,
      "hit": false,
      "t": 188449.21875,
      "d": 1210.9375,
      "v": 127
    },
    {
      "midi": 53,
      "hit": false,
      "t": 188449.21875,
      "d": 1216.796875,
      "v": 127
    },
    {
      "midi": 60,
      "hit": false,
      "t": 188449.21875,
      "d": 1240.234375,
      "v": 126
    },
    {
      "midi": 41,
      "hit": false,
      "t": 189621.09375,
      "d": 791.015625,
      "v": 113
    },
    {
      "midi": 57,
      "hit": false,
      "t": 189855.46875,
      "d": 761.71875,
      "v": 126
    },
    {
      "midi": 53,
      "hit": false,
      "t": 189855.46875,
      "d": 765.625,
      "v": 126
    },
    {
      "midi": 60,
      "hit": false,
      "t": 189855.46875,
      "d": 777.34375,
      "v": 127
    },
    {
      "midi": 41,
      "hit": false,
      "t": 190558.59375,
      "d": 289.0625,
      "v": 109
    },
    {
      "midi": 53,
      "hit": false,
      "t": 190792.96875,
      "d": 351.5625,
      "v": 126
    },
    {
      "midi": 57,
      "hit": false,
      "t": 190792.96875,
      "d": 351.5625,
      "v": 126
    },
    {
      "midi": 60,
      "hit": false,
      "t": 190792.96875,
      "d": 351.5625,
      "v": 127
    },
    {
      "midi": 41,
      "hit": false,
      "t": 191027.34375,
      "d": 205.078125,
      "v": 115
    },
    {
      "midi": 57,
      "hit": false,
      "t": 191261.71875,
      "d": 1203.125,
      "v": 127
    },
    {
      "midi": 54,
      "hit": false,
      "t": 191261.71875,
      "d": 1207.03125,
      "v": 126
    },
    {
      "midi": 62,
      "hit": false,
      "t": 191261.71875,
      "d": 1220.703125,
      "v": 126
    },
    {
      "midi": 38,
      "hit": false,
      "t": 191261.71875,
      "d": 1500,
      "v": 126
    },
    {
      "midi": 57,
      "hit": false,
      "t": 192667.96875,
      "d": 708.984375,
      "v": 127
    },
    {
      "midi": 54,
      "hit": false,
      "t": 192667.96875,
      "d": 722.65625,
      "v": 127
    },
    {
      "midi": 62,
      "hit": false,
      "t": 192667.96875,
      "d": 771.484375,
      "v": 126
    },
    {
      "midi": 38,
      "hit": false,
      "t": 193371.09375,
      "d": 1279.296875,
      "v": 109
    },
    {
      "midi": 55,
      "hit": false,
      "t": 193605.46875,
      "d": 312.5,
      "v": 126
    },
    {
      "midi": 59,
      "hit": false,
      "t": 193605.46875,
      "d": 351.5625,
      "v": 126
    },
    {
      "midi": 62,
      "hit": false,
      "t": 193605.46875,
      "d": 406.25,
      "v": 127
    },
    {
      "midi": 54,
      "hit": false,
      "t": 194074.21875,
      "d": 718.75,
      "v": 127
    },
    {
      "midi": 57,
      "hit": false,
      "t": 194074.21875,
      "d": 726.5625,
      "v": 126
    },
    {
      "midi": 62,
      "hit": false,
      "t": 194074.21875,
      "d": 728.515625,
      "v": 126
    },
    {
      "midi": 38,
      "hit": false,
      "t": 194777.34375,
      "d": 1193.359375,
      "v": 115
    },
    {
      "midi": 54,
      "hit": false,
      "t": 195011.71875,
      "d": 333.984375,
      "v": 127
    },
    {
      "midi": 62,
      "hit": false,
      "t": 195011.71875,
      "d": 351.5625,
      "v": 126
    },
    {
      "midi": 57,
      "hit": false,
      "t": 195011.71875,
      "d": 355.46875,
      "v": 126
    },
    {
      "midi": 62,
      "hit": false,
      "t": 195480.46875,
      "d": 744.140625,
      "v": 127
    },
    {
      "midi": 57,
      "hit": false,
      "t": 195480.46875,
      "d": 751.953125,
      "v": 126
    },
    {
      "midi": 54,
      "hit": false,
      "t": 195480.46875,
      "d": 753.90625,
      "v": 127
    },
    {
      "midi": 38,
      "hit": false,
      "t": 196183.59375,
      "d": 621.09375,
      "v": 101
    },
    {
      "midi": 54,
      "hit": false,
      "t": 196417.96875,
      "d": 375,
      "v": 126
    },
    {
      "midi": 57,
      "hit": false,
      "t": 196417.96875,
      "d": 380.859375,
      "v": 127
    },
    {
      "midi": 62,
      "hit": false,
      "t": 196417.96875,
      "d": 400.390625,
      "v": 126
    },
    {
      "midi": 46,
      "hit": false,
      "t": 196886.71875,
      "d": 943.359375,
      "v": 126
    },
    {
      "midi": 58,
      "hit": false,
      "t": 196886.71875,
      "d": 1156.25,
      "v": 127
    },
    {
      "midi": 62,
      "hit": false,
      "t": 196886.71875,
      "d": 1162.109375,
      "v": 126
    },
    {
      "midi": 53,
      "hit": false,
      "t": 196886.71875,
      "d": 1171.875,
      "v": 127
    },
    {
      "midi": 46,
      "hit": false,
      "t": 198058.59375,
      "d": 1263.671875,
      "v": 108
    },
    {
      "midi": 62,
      "hit": false,
      "t": 198292.96875,
      "d": 748.046875,
      "v": 126
    },
    {
      "midi": 53,
      "hit": false,
      "t": 198292.96875,
      "d": 753.90625,
      "v": 127
    },
    {
      "midi": 58,
      "hit": false,
      "t": 198292.96875,
      "d": 753.90625,
      "v": 127
    },
    {
      "midi": 62,
      "hit": false,
      "t": 199230.46875,
      "d": 275.390625,
      "v": 112
    },
    {
      "midi": 58,
      "hit": false,
      "t": 199230.46875,
      "d": 287.109375,
      "v": 113
    },
    {
      "midi": 53,
      "hit": false,
      "t": 199230.46875,
      "d": 322.265625,
      "v": 112
    },
    {
      "midi": 46,
      "hit": false,
      "t": 199464.84375,
      "d": 181.640625,
      "v": 123
    },
    {
      "midi": 41,
      "hit": false,
      "t": 199699.21875,
      "d": 1060.546875,
      "v": 127
    },
    {
      "midi": 57,
      "hit": false,
      "t": 199699.21875,
      "d": 1210.9375,
      "v": 127
    },
    {
      "midi": 53,
      "hit": false,
      "t": 199699.21875,
      "d": 1216.796875,
      "v": 126
    },
    {
      "midi": 60,
      "hit": false,
      "t": 199699.21875,
      "d": 1240.234375,
      "v": 126
    },
    {
      "midi": 41,
      "hit": false,
      "t": 200871.09375,
      "d": 791.015625,
      "v": 112
    },
    {
      "midi": 57,
      "hit": false,
      "t": 201105.46875,
      "d": 761.71875,
      "v": 127
    },
    {
      "midi": 53,
      "hit": false,
      "t": 201105.46875,
      "d": 765.625,
      "v": 127
    },
    {
      "midi": 60,
      "hit": false,
      "t": 201105.46875,
      "d": 777.34375,
      "v": 126
    },
    {
      "midi": 41,
      "hit": false,
      "t": 201808.59375,
      "d": 289.0625,
      "v": 108
    },
    {
      "midi": 53,
      "hit": false,
      "t": 202042.96875,
      "d": 351.5625,
      "v": 127
    },
    {
      "midi": 57,
      "hit": false,
      "t": 202042.96875,
      "d": 351.5625,
      "v": 127
    },
    {
      "midi": 60,
      "hit": false,
      "t": 202042.96875,
      "d": 351.5625,
      "v": 126
    },
    {
      "midi": 41,
      "hit": false,
      "t": 202277.34375,
      "d": 205.078125,
      "v": 114
    },
    {
      "midi": 57,
      "hit": false,
      "t": 202511.71875,
      "d": 1203.125,
      "v": 127
    },
    {
      "midi": 54,
      "hit": false,
      "t": 202511.71875,
      "d": 1207.03125,
      "v": 126
    },
    {
      "midi": 62,
      "hit": false,
      "t": 202511.71875,
      "d": 1220.703125,
      "v": 127
    },
    {
      "midi": 38,
      "hit": false,
      "t": 202511.71875,
      "d": 1500,
      "v": 127
    },
    {
      "midi": 57,
      "hit": false,
      "t": 203917.96875,
      "d": 708.984375,
      "v": 127
    },
    {
      "midi": 54,
      "hit": false,
      "t": 203917.96875,
      "d": 722.65625,
      "v": 126
    },
    {
      "midi": 62,
      "hit": false,
      "t": 203917.96875,
      "d": 771.484375,
      "v": 126
    },
    {
      "midi": 38,
      "hit": false,
      "t": 204621.09375,
      "d": 1279.296875,
      "v": 108
    },
    {
      "midi": 55,
      "hit": false,
      "t": 204855.46875,
      "d": 312.5,
      "v": 127
    },
    {
      "midi": 59,
      "hit": false,
      "t": 204855.46875,
      "d": 351.5625,
      "v": 127
    },
    {
      "midi": 62,
      "hit": false,
      "t": 204855.46875,
      "d": 406.25,
      "v": 126
    },
    {
      "midi": 54,
      "hit": false,
      "t": 205324.21875,
      "d": 2578.125,
      "v": 116
    },
    {
      "midi": 57,
      "hit": false,
      "t": 205324.21875,
      "d": 2695.3125,
      "v": 117
    },
    {
      "midi": 62,
      "hit": false,
      "t": 205324.21875,
      "d": 2695.3125,
      "v": 117
    },
    {
      "midi": 38,
      "hit": false,
      "t": 206027.34375,
      "d": 1992.1875,
      "v": 102
    },
    {
      "midi": 59,
      "hit": false,
      "t": 208117.1875,
      "d": 654.296875,
      "v": 102
    },
    {
      "midi": 62,
      "hit": false,
      "t": 208117.1875,
      "d": 703.125,
      "v": 103
    },
    {
      "midi": 66,
      "hit": false,
      "t": 208117.1875,
      "d": 703.125,
      "v": 103
    },
    {
      "midi": 35,
      "hit": false,
      "t": 208117.1875,
      "d": 2812.5,
      "v": 102
    },
    {
      "midi": 47,
      "hit": false,
      "t": 208117.1875,
      "d": 2812.5,
      "v": 103
    },
    {
      "midi": 59,
      "hit": false,
      "t": 208820.3125,
      "d": 1875,
      "v": 74
    },
    {
      "midi": 62,
      "hit": false,
      "t": 209054.6875,
      "d": 1640.625,
      "v": 85
    },
    {
      "midi": 66,
      "hit": false,
      "t": 209289.0625,
      "d": 468.75,
      "v": 92
    },
    {
      "midi": 71,
      "hit": false,
      "t": 209523.4375,
      "d": 429.6875,
      "v": 98
    },
    {
      "midi": 74,
      "hit": false,
      "t": 209523.4375,
      "d": 429.6875,
      "v": 99
    },
    {
      "midi": 66,
      "hit": false,
      "t": 209992.1875,
      "d": 419.921875,
      "v": 117
    },
    {
      "midi": 71,
      "hit": false,
      "t": 209992.1875,
      "d": 419.921875,
      "v": 116
    },
    {
      "midi": 74,
      "hit": false,
      "t": 209992.1875,
      "d": 468.75,
      "v": 116
    },
    {
      "midi": 66,
      "hit": false,
      "t": 210460.9375,
      "d": 443.359375,
      "v": 109
    },
    {
      "midi": 71,
      "hit": false,
      "t": 210460.9375,
      "d": 443.359375,
      "v": 109
    },
    {
      "midi": 72,
      "hit": false,
      "t": 210460.9375,
      "d": 468.75,
      "v": 108
    },
    {
      "midi": 64,
      "hit": false,
      "t": 210929.6875,
      "d": 654.296875,
      "v": 92
    },
    {
      "midi": 67,
      "hit": false,
      "t": 210929.6875,
      "d": 654.296875,
      "v": 93
    },
    {
      "midi": 71,
      "hit": false,
      "t": 210929.6875,
      "d": 654.296875,
      "v": 93
    },
    {
      "midi": 36,
      "hit": false,
      "t": 210929.6875,
      "d": 1640.625,
      "v": 102
    },
    {
      "midi": 48,
      "hit": false,
      "t": 210929.6875,
      "d": 1640.625,
      "v": 103
    },
    {
      "midi": 60,
      "hit": false,
      "t": 211398.4375,
      "d": 654.296875,
      "v": 78
    },
    {
      "midi": 64,
      "hit": false,
      "t": 211632.8125,
      "d": 654.296875,
      "v": 101
    },
    {
      "midi": 67,
      "hit": false,
      "t": 211632.8125,
      "d": 654.296875,
      "v": 100
    },
    {
      "midi": 69,
      "hit": false,
      "t": 211632.8125,
      "d": 654.296875,
      "v": 100
    },
    {
      "midi": 55,
      "hit": false,
      "t": 212101.5625,
      "d": 654.296875,
      "v": 79
    },
    {
      "midi": 60,
      "hit": false,
      "t": 212335.9375,
      "d": 654.296875,
      "v": 107
    },
    {
      "midi": 64,
      "hit": false,
      "t": 212335.9375,
      "d": 654.296875,
      "v": 106
    },
    {
      "midi": 67,
      "hit": false,
      "t": 212335.9375,
      "d": 654.296875,
      "v": 106
    },
    {
      "midi": 36,
      "hit": false,
      "t": 212804.6875,
      "d": 937.5,
      "v": 103
    },
    {
      "midi": 48,
      "hit": false,
      "t": 212804.6875,
      "d": 937.5,
      "v": 103
    },
    {
      "midi": 55,
      "hit": false,
      "t": 213039.0625,
      "d": 703.125,
      "v": 78
    },
    {
      "midi": 64,
      "hit": false,
      "t": 213273.4375,
      "d": 207.03125,
      "v": 86
    },
    {
      "midi": 67,
      "hit": false,
      "t": 213273.4375,
      "d": 207.03125,
      "v": 87
    },
    {
      "midi": 66,
      "hit": false,
      "t": 213507.8125,
      "d": 207.03125,
      "v": 92
    },
    {
      "midi": 69,
      "hit": false,
      "t": 213507.8125,
      "d": 207.03125,
      "v": 93
    },
    {
      "midi": 67,
      "hit": false,
      "t": 213742.1875,
      "d": 937.5,
      "v": 93
    },
    {
      "midi": 71,
      "hit": false,
      "t": 213742.1875,
      "d": 937.5,
      "v": 92
    },
    {
      "midi": 64,
      "hit": false,
      "t": 213742.1875,
      "d": 1054.6875,
      "v": 92
    },
    {
      "midi": 40,
      "hit": false,
      "t": 213742.1875,
      "d": 2812.5,
      "v": 103
    },
    {
      "midi": 52,
      "hit": false,
      "t": 214210.9375,
      "d": 468.75,
      "v": 74
    },
    {
      "midi": 55,
      "hit": false,
      "t": 214445.3125,
      "d": 468.75,
      "v": 91
    },
    {
      "midi": 59,
      "hit": false,
      "t": 214679.6875,
      "d": 468.75,
      "v": 95
    },
    {
      "midi": 64,
      "hit": false,
      "t": 214914.0625,
      "d": 199.21875,
      "v": 94
    },
    {
      "midi": 64,
      "hit": false,
      "t": 215148.4375,
      "d": 468.75,
      "v": 94
    },
    {
      "midi": 71,
      "hit": false,
      "t": 215148.4375,
      "d": 468.75,
      "v": 107
    },
    {
      "midi": 59,
      "hit": false,
      "t": 215382.8125,
      "d": 207.03125,
      "v": 75
    },
    {
      "midi": 59,
      "hit": false,
      "t": 215617.1875,
      "d": 468.75,
      "v": 90
    },
    {
      "midi": 67,
      "hit": false,
      "t": 215617.1875,
      "d": 468.75,
      "v": 102
    },
    {
      "midi": 52,
      "hit": false,
      "t": 215851.5625,
      "d": 234.375,
      "v": 75
    },
    {
      "midi": 64,
      "hit": false,
      "t": 216085.9375,
      "d": 419.921875,
      "v": 96
    },
    {
      "midi": 71,
      "hit": false,
      "t": 216085.9375,
      "d": 419.921875,
      "v": 109
    },
    {
      "midi": 59,
      "hit": false,
      "t": 216320.3125,
      "d": 234.375,
      "v": 75
    },
    {
      "midi": 71,
      "hit": false,
      "t": 216554.6875,
      "d": 468.75,
      "v": 108
    },
    {
      "midi": 55,
      "hit": false,
      "t": 216554.6875,
      "d": 937.5,
      "v": 103
    },
    {
      "midi": 48,
      "hit": false,
      "t": 216554.6875,
      "d": 1406.25,
      "v": 102
    },
    {
      "midi": 64,
      "hit": false,
      "t": 216554.6875,
      "d": 1406.25,
      "v": 102
    },
    {
      "midi": 69,
      "hit": false,
      "t": 217023.4375,
      "d": 234.375,
      "v": 75
    },
    {
      "midi": 60,
      "hit": false,
      "t": 217023.4375,
      "d": 703.125,
      "v": 67
    },
    {
      "midi": 67,
      "hit": false,
      "t": 217257.8125,
      "d": 638.671875,
      "v": 96
    },
    {
      "midi": 55,
      "hit": false,
      "t": 217726.5625,
      "d": 585.9375,
      "v": 78
    },
    {
      "midi": 62,
      "hit": false,
      "t": 217960.9375,
      "d": 384.765625,
      "v": 78
    },
    {
      "midi": 67,
      "hit": false,
      "t": 217960.9375,
      "d": 703.125,
      "v": 100
    },
    {
      "midi": 57,
      "hit": false,
      "t": 217960.9375,
      "d": 1054.6875,
      "v": 79
    },
    {
      "midi": 50,
      "hit": false,
      "t": 217960.9375,
      "d": 1406.25,
      "v": 103
    },
    {
      "midi": 62,
      "hit": false,
      "t": 218429.6875,
      "d": 234.375,
      "v": 75
    },
    {
      "midi": 66,
      "hit": false,
      "t": 218664.0625,
      "d": 703.125,
      "v": 100
    },
    {
      "midi": 62,
      "hit": false,
      "t": 218898.4375,
      "d": 234.375,
      "v": 91
    },
    {
      "midi": 57,
      "hit": false,
      "t": 219132.8125,
      "d": 234.375,
      "v": 85
    },
    {
      "midi": 59,
      "hit": false,
      "t": 219367.1875,
      "d": 468.75,
      "v": 103
    },
    {
      "midi": 62,
      "hit": false,
      "t": 219367.1875,
      "d": 468.75,
      "v": 102
    },
    {
      "midi": 67,
      "hit": false,
      "t": 219367.1875,
      "d": 468.75,
      "v": 102
    },
    {
      "midi": 43,
      "hit": false,
      "t": 219367.1875,
      "d": 1171.875,
      "v": 102
    },
    {
      "midi": 50,
      "hit": false,
      "t": 219601.5625,
      "d": 703.125,
      "v": 87
    },
    {
      "midi": 55,
      "hit": false,
      "t": 219835.9375,
      "d": 468.75,
      "v": 87
    },
    {
      "midi": 59,
      "hit": false,
      "t": 220070.3125,
      "d": 468.75,
      "v": 102
    },
    {
      "midi": 62,
      "hit": false,
      "t": 220070.3125,
      "d": 468.75,
      "v": 102
    },
    {
      "midi": 67,
      "hit": false,
      "t": 220070.3125,
      "d": 468.75,
      "v": 103
    },
    {
      "midi": 55,
      "hit": false,
      "t": 220539.0625,
      "d": 468.75,
      "v": 87
    },
    {
      "midi": 43,
      "hit": false,
      "t": 220773.4375,
      "d": 468.75,
      "v": 102
    },
    {
      "midi": 59,
      "hit": false,
      "t": 220773.4375,
      "d": 468.75,
      "v": 102
    },
    {
      "midi": 71,
      "hit": false,
      "t": 220773.4375,
      "d": 468.75,
      "v": 103
    },
    {
      "midi": 45,
      "hit": false,
      "t": 221242.1875,
      "d": 468.75,
      "v": 102
    },
    {
      "midi": 60,
      "hit": false,
      "t": 221242.1875,
      "d": 468.75,
      "v": 103
    },
    {
      "midi": 69,
      "hit": false,
      "t": 221242.1875,
      "d": 468.75,
      "v": 103
    },
    {
      "midi": 47,
      "hit": false,
      "t": 221710.9375,
      "d": 468.75,
      "v": 102
    },
    {
      "midi": 62,
      "hit": false,
      "t": 221710.9375,
      "d": 468.75,
      "v": 103
    },
    {
      "midi": 67,
      "hit": false,
      "t": 221710.9375,
      "d": 468.75,
      "v": 102
    },
    {
      "midi": 60,
      "hit": false,
      "t": 222179.6875,
      "d": 654.296875,
      "v": 93
    },
    {
      "midi": 64,
      "hit": false,
      "t": 222179.6875,
      "d": 654.296875,
      "v": 93
    },
    {
      "midi": 48,
      "hit": false,
      "t": 222179.6875,
      "d": 2812.5,
      "v": 102
    },
    {
      "midi": 52,
      "hit": false,
      "t": 222414.0625,
      "d": 703.125,
      "v": 66
    },
    {
      "midi": 55,
      "hit": false,
      "t": 222648.4375,
      "d": 703.125,
      "v": 54
    },
    {
      "midi": 60,
      "hit": false,
      "t": 222882.8125,
      "d": 703.125,
      "v": 85
    },
    {
      "midi": 62,
      "hit": false,
      "t": 223117.1875,
      "d": 234.375,
      "v": 93
    },
    {
      "midi": 67,
      "hit": false,
      "t": 223351.5625,
      "d": 185.546875,
      "v": 100
    },
    {
      "midi": 62,
      "hit": false,
      "t": 223560.546875,
      "d": 234.375,
      "v": 92
    },
    {
      "midi": 67,
      "hit": false,
      "t": 223585.9375,
      "d": 443.359375,
      "v": 83
    },
    {
      "midi": 64,
      "hit": false,
      "t": 223658.203125,
      "d": 396.484375,
      "v": 104
    },
    {
      "midi": 62,
      "hit": false,
      "t": 224054.6875,
      "d": 443.359375,
      "v": 105
    },
    {
      "midi": 67,
      "hit": false,
      "t": 224054.6875,
      "d": 443.359375,
      "v": 83
    },
    {
      "midi": 60,
      "hit": false,
      "t": 224523.4375,
      "d": 443.359375,
      "v": 104
    },
    {
      "midi": 67,
      "hit": false,
      "t": 224523.4375,
      "d": 443.359375,
      "v": 83
    },
    {
      "midi": 64,
      "hit": false,
      "t": 224992.1875,
      "d": 703.125,
      "v": 102
    },
    {
      "midi": 67,
      "hit": false,
      "t": 224992.1875,
      "d": 937.5,
      "v": 103
    },
    {
      "midi": 40,
      "hit": false,
      "t": 224992.1875,
      "d": 1406.25,
      "v": 102
    },
    {
      "midi": 71,
      "hit": false,
      "t": 224992.1875,
      "d": 1406.25,
      "v": 103
    },
    {
      "midi": 52,
      "hit": false,
      "t": 225460.9375,
      "d": 468.75,
      "v": 78
    },
    {
      "midi": 59,
      "hit": false,
      "t": 225695.3125,
      "d": 468.75,
      "v": 90
    },
    {
      "midi": 64,
      "hit": false,
      "t": 225929.6875,
      "d": 468.75,
      "v": 99
    },
    {
      "midi": 67,
      "hit": false,
      "t": 226164.0625,
      "d": 234.375,
      "v": 103
    },
    {
      "midi": 57,
      "hit": false,
      "t": 226398.4375,
      "d": 468.75,
      "v": 102
    },
    {
      "midi": 62,
      "hit": false,
      "t": 226398.4375,
      "d": 468.75,
      "v": 103
    },
    {
      "midi": 38,
      "hit": false,
      "t": 226398.4375,
      "d": 1406.25,
      "v": 102
    },
    {
      "midi": 69,
      "hit": false,
      "t": 226398.4375,
      "d": 1406.25,
      "v": 102
    },
    {
      "midi": 67,
      "hit": false,
      "t": 226632.8125,
      "d": 234.375,
      "v": 103
    },
    {
      "midi": 66,
      "hit": false,
      "t": 226867.1875,
      "d": 468.75,
      "v": 99
    },
    {
      "midi": 57,
      "hit": false,
      "t": 227101.5625,
      "d": 468.75,
      "v": 78
    },
    {
      "midi": 62,
      "hit": false,
      "t": 227335.9375,
      "d": 419.921875,
      "v": 91
    },
    {
      "midi": 66,
      "hit": false,
      "t": 227570.3125,
      "d": 234.375,
      "v": 102
    },
    {
      "midi": 64,
      "hit": false,
      "t": 227804.6875,
      "d": 703.125,
      "v": 103
    },
    {
      "midi": 60,
      "hit": false,
      "t": 227804.6875,
      "d": 937.5,
      "v": 103
    },
    {
      "midi": 67,
      "hit": false,
      "t": 227804.6875,
      "d": 937.5,
      "v": 102
    },
    {
      "midi": 36,
      "hit": false,
      "t": 227804.6875,
      "d": 1406.25,
      "v": 102
    },
    {
      "midi": 52,
      "hit": false,
      "t": 228273.4375,
      "d": 468.75,
      "v": 78
    },
    {
      "midi": 55,
      "hit": false,
      "t": 228507.8125,
      "d": 468.75,
      "v": 91
    },
    {
      "midi": 64,
      "hit": false,
      "t": 228742.1875,
      "d": 468.75,
      "v": 99
    },
    {
      "midi": 67,
      "hit": false,
      "t": 228976.5625,
      "d": 234.375,
      "v": 102
    },
    {
      "midi": 57,
      "hit": false,
      "t": 229210.9375,
      "d": 468.75,
      "v": 103
    },
    {
      "midi": 62,
      "hit": false,
      "t": 229210.9375,
      "d": 468.75,
      "v": 102
    },
    {
      "midi": 38,
      "hit": false,
      "t": 229210.9375,
      "d": 1406.25,
      "v": 102
    },
    {
      "midi": 69,
      "hit": false,
      "t": 229210.9375,
      "d": 1406.25,
      "v": 103
    },
    {
      "midi": 67,
      "hit": false,
      "t": 229445.3125,
      "d": 234.375,
      "v": 103
    },
    {
      "midi": 66,
      "hit": false,
      "t": 229679.6875,
      "d": 468.75,
      "v": 98
    },
    {
      "midi": 57,
      "hit": false,
      "t": 229914.0625,
      "d": 468.75,
      "v": 79
    },
    {
      "midi": 62,
      "hit": false,
      "t": 230148.4375,
      "d": 419.921875,
      "v": 90
    },
    {
      "midi": 66,
      "hit": false,
      "t": 230382.8125,
      "d": 468.75,
      "v": 102
    },
    {
      "midi": 64,
      "hit": false,
      "t": 230617.1875,
      "d": 703.125,
      "v": 103
    },
    {
      "midi": 67,
      "hit": false,
      "t": 230617.1875,
      "d": 937.5,
      "v": 102
    },
    {
      "midi": 40,
      "hit": false,
      "t": 230617.1875,
      "d": 1406.25,
      "v": 103
    },
    {
      "midi": 71,
      "hit": false,
      "t": 230617.1875,
      "d": 1406.25,
      "v": 102
    },
    {
      "midi": 52,
      "hit": false,
      "t": 231085.9375,
      "d": 468.75,
      "v": 79
    },
    {
      "midi": 59,
      "hit": false,
      "t": 231320.3125,
      "d": 468.75,
      "v": 91
    },
    {
      "midi": 64,
      "hit": false,
      "t": 231554.6875,
      "d": 468.75,
      "v": 98
    },
    {
      "midi": 67,
      "hit": false,
      "t": 231789.0625,
      "d": 234.375,
      "v": 102
    },
    {
      "midi": 57,
      "hit": false,
      "t": 232023.4375,
      "d": 468.75,
      "v": 102
    },
    {
      "midi": 62,
      "hit": false,
      "t": 232023.4375,
      "d": 468.75,
      "v": 103
    },
    {
      "midi": 38,
      "hit": false,
      "t": 232023.4375,
      "d": 1406.25,
      "v": 103
    },
    {
      "midi": 69,
      "hit": false,
      "t": 232023.4375,
      "d": 1406.25,
      "v": 103
    },
    {
      "midi": 67,
      "hit": false,
      "t": 232257.8125,
      "d": 234.375,
      "v": 102
    },
    {
      "midi": 66,
      "hit": false,
      "t": 232492.1875,
      "d": 468.75,
      "v": 99
    },
    {
      "midi": 57,
      "hit": false,
      "t": 232726.5625,
      "d": 468.75,
      "v": 78
    },
    {
      "midi": 62,
      "hit": false,
      "t": 232960.9375,
      "d": 419.921875,
      "v": 90
    },
    {
      "midi": 66,
      "hit": false,
      "t": 233195.3125,
      "d": 234.375,
      "v": 103
    },
    {
      "midi": 43,
      "hit": false,
      "t": 233429.6875,
      "d": 937.5,
      "v": 103
    },
    {
      "midi": 55,
      "hit": false,
      "t": 233429.6875,
      "d": 1380.859375,
      "v": 102
    },
    {
      "midi": 59,
      "hit": false,
      "t": 233429.6875,
      "d": 1406.25,
      "v": 102
    },
    {
      "midi": 62,
      "hit": false,
      "t": 233429.6875,
      "d": 1406.25,
      "v": 103
    },
    {
      "midi": 67,
      "hit": false,
      "t": 233429.6875,
      "d": 1406.25,
      "v": 103
    },
    {
      "midi": 43,
      "hit": false,
      "t": 234601.5625,
      "d": 1562.5,
      "v": 102
    },
    {
      "midi": 55,
      "hit": false,
      "t": 234835.9375,
      "d": 654.296875,
      "v": 102
    },
    {
      "midi": 60,
      "hit": false,
      "t": 234835.9375,
      "d": 654.296875,
      "v": 103
    },
    {
      "midi": 64,
      "hit": false,
      "t": 234835.9375,
      "d": 654.296875,
      "v": 102
    },
    {
      "midi": 55,
      "hit": false,
      "t": 235539.0625,
      "d": 677.734375,
      "v": 103
    },
    {
      "midi": 60,
      "hit": false,
      "t": 235539.0625,
      "d": 677.734375,
      "v": 103
    },
    {
      "midi": 64,
      "hit": false,
      "t": 235539.0625,
      "d": 677.734375,
      "v": 102
    },
    {
      "midi": 43,
      "hit": false,
      "t": 236242.1875,
      "d": 1259.765625,
      "v": 105
    },
    {
      "midi": 67,
      "hit": false,
      "t": 236265.625,
      "d": 662.109375,
      "v": 90
    },
    {
      "midi": 59,
      "hit": false,
      "t": 236265.625,
      "d": 664.0625,
      "v": 100
    },
    {
      "midi": 62,
      "hit": false,
      "t": 236267.578125,
      "d": 667.96875,
      "v": 107
    },
    {
      "midi": 59,
      "hit": false,
      "t": 236980.46875,
      "d": 492.1875,
      "v": 105
    },
    {
      "midi": 67,
      "hit": false,
      "t": 236980.46875,
      "d": 492.1875,
      "v": 90
    },
    {
      "midi": 62,
      "hit": false,
      "t": 236980.46875,
      "d": 505.859375,
      "v": 104
    },
    {
      "midi": 43,
      "hit": false,
      "t": 237648.4375,
      "d": 490.234375,
      "v": 101
    },
    {
      "midi": 67,
      "hit": false,
      "t": 237662.109375,
      "d": 1216.796875,
      "v": 91
    },
    {
      "midi": 59,
      "hit": false,
      "t": 237664.0625,
      "d": 1179.6875,
      "v": 116
    },
    {
      "midi": 62,
      "hit": false,
      "t": 237664.0625,
      "d": 1259.765625,
      "v": 104
    },
    {
      "midi": 45,
      "hit": false,
      "t": 238117.1875,
      "d": 490.234375,
      "v": 101
    },
    {
      "midi": 47,
      "hit": false,
      "t": 238585.9375,
      "d": 490.234375,
      "v": 100
    },
    {
      "midi": 48,
      "hit": false,
      "t": 239054.6875,
      "d": 1259.765625,
      "v": 105
    },
    {
      "midi": 62,
      "hit": false,
      "t": 239080.078125,
      "d": 644.53125,
      "v": 105
    },
    {
      "midi": 64,
      "hit": false,
      "t": 239083.984375,
      "d": 625,
      "v": 90
    },
    {
      "midi": 67,
      "hit": false,
      "t": 239083.984375,
      "d": 636.71875,
      "v": 91
    },
    {
      "midi": 64,
      "hit": false,
      "t": 239789.0625,
      "d": 511.71875,
      "v": 104
    },
    {
      "midi": 62,
      "hit": false,
      "t": 239791.015625,
      "d": 496.09375,
      "v": 90
    },
    {
      "midi": 67,
      "hit": false,
      "t": 239791.015625,
      "d": 503.90625,
      "v": 107
    },
    {
      "midi": 48,
      "hit": false,
      "t": 240460.9375,
      "d": 1259.765625,
      "v": 105
    },
    {
      "midi": 64,
      "hit": false,
      "t": 240474.609375,
      "d": 1207.03125,
      "v": 104
    },
    {
      "midi": 67,
      "hit": false,
      "t": 240474.609375,
      "d": 1257.8125,
      "v": 90
    },
    {
      "midi": 62,
      "hit": false,
      "t": 240476.5625,
      "d": 1244.140625,
      "v": 105
    },
    {
      "midi": 40,
      "hit": false,
      "t": 241867.1875,
      "d": 607.421875,
      "v": 105
    },
    {
      "midi": 67,
      "hit": false,
      "t": 241890.625,
      "d": 626.953125,
      "v": 104
    },
    {
      "midi": 59,
      "hit": false,
      "t": 241892.578125,
      "d": 613.28125,
      "v": 104
    },
    {
      "midi": 62,
      "hit": false,
      "t": 241896.484375,
      "d": 611.328125,
      "v": 91
    },
    {
      "midi": 47,
      "hit": false,
      "t": 242570.3125,
      "d": 501.953125,
      "v": 104
    },
    {
      "midi": 62,
      "hit": false,
      "t": 242601.5625,
      "d": 507.8125,
      "v": 77
    },
    {
      "midi": 67,
      "hit": false,
      "t": 242603.515625,
      "d": 505.859375,
      "v": 91
    },
    {
      "midi": 59,
      "hit": false,
      "t": 242605.46875,
      "d": 496.09375,
      "v": 90
    },
    {
      "midi": 52,
      "hit": false,
      "t": 243273.4375,
      "d": 1244.140625,
      "v": 105
    },
    {
      "midi": 62,
      "hit": false,
      "t": 243292.96875,
      "d": 1255.859375,
      "v": 90
    },
    {
      "midi": 59,
      "hit": false,
      "t": 243294.921875,
      "d": 1244.140625,
      "v": 104
    },
    {
      "midi": 67,
      "hit": false,
      "t": 243294.921875,
      "d": 1267.578125,
      "v": 91
    },
    {
      "midi": 48,
      "hit": false,
      "t": 244679.6875,
      "d": 1259.765625,
      "v": 105
    },
    {
      "midi": 67,
      "hit": false,
      "t": 244695.3125,
      "d": 679.6875,
      "v": 104
    },
    {
      "midi": 64,
      "hit": false,
      "t": 244701.171875,
      "d": 642.578125,
      "v": 105
    },
    {
      "midi": 62,
      "hit": false,
      "t": 244701.171875,
      "d": 667.96875,
      "v": 104
    },
    {
      "midi": 67,
      "hit": false,
      "t": 245414.0625,
      "d": 390.625,
      "v": 104
    },
    {
      "midi": 64,
      "hit": false,
      "t": 245414.0625,
      "d": 515.625,
      "v": 90
    },
    {
      "midi": 62,
      "hit": false,
      "t": 245414.0625,
      "d": 541.015625,
      "v": 91
    },
    {
      "midi": 50,
      "hit": false,
      "t": 246085.9375,
      "d": 1259.765625,
      "v": 105
    },
    {
      "midi": 62,
      "hit": false,
      "t": 246105.46875,
      "d": 628.90625,
      "v": 90
    },
    {
      "midi": 66,
      "hit": false,
      "t": 246111.328125,
      "d": 593.75,
      "v": 93
    },
    {
      "midi": 57,
      "hit": false,
      "t": 246111.328125,
      "d": 611.328125,
      "v": 117
    },
    {
      "midi": 57,
      "hit": false,
      "t": 246820.3125,
      "d": 607.421875,
      "v": 104
    },
    {
      "midi": 66,
      "hit": false,
      "t": 246820.3125,
      "d": 609.375,
      "v": 105
    },
    {
      "midi": 62,
      "hit": false,
      "t": 246822.265625,
      "d": 605.46875,
      "v": 104
    },
    {
      "midi": 43,
      "hit": false,
      "t": 247492.1875,
      "d": 1259.765625,
      "v": 104
    },
    {
      "midi": 67,
      "hit": false,
      "t": 247515.625,
      "d": 662.109375,
      "v": 91
    },
    {
      "midi": 59,
      "hit": false,
      "t": 247515.625,
      "d": 664.0625,
      "v": 101
    },
    {
      "midi": 62,
      "hit": false,
      "t": 247517.578125,
      "d": 667.96875,
      "v": 106
    },
    {
      "midi": 59,
      "hit": false,
      "t": 248230.46875,
      "d": 492.1875,
      "v": 104
    },
    {
      "midi": 67,
      "hit": false,
      "t": 248230.46875,
      "d": 492.1875,
      "v": 91
    },
    {
      "midi": 62,
      "hit": false,
      "t": 248230.46875,
      "d": 505.859375,
      "v": 105
    },
    {
      "midi": 43,
      "hit": false,
      "t": 248898.4375,
      "d": 490.234375,
      "v": 100
    },
    {
      "midi": 67,
      "hit": false,
      "t": 248912.109375,
      "d": 1216.796875,
      "v": 90
    },
    {
      "midi": 59,
      "hit": false,
      "t": 248914.0625,
      "d": 1179.6875,
      "v": 117
    },
    {
      "midi": 62,
      "hit": false,
      "t": 248914.0625,
      "d": 1259.765625,
      "v": 104
    },
    {
      "midi": 45,
      "hit": false,
      "t": 249367.1875,
      "d": 490.234375,
      "v": 101
    },
    {
      "midi": 47,
      "hit": false,
      "t": 249835.9375,
      "d": 490.234375,
      "v": 101
    },
    {
      "midi": 48,
      "hit": false,
      "t": 250304.6875,
      "d": 1259.765625,
      "v": 104
    },
    {
      "midi": 62,
      "hit": false,
      "t": 250330.078125,
      "d": 644.53125,
      "v": 105
    },
    {
      "midi": 64,
      "hit": false,
      "t": 250333.984375,
      "d": 625,
      "v": 90
    },
    {
      "midi": 67,
      "hit": false,
      "t": 250333.984375,
      "d": 636.71875,
      "v": 90
    },
    {
      "midi": 64,
      "hit": false,
      "t": 251039.0625,
      "d": 511.71875,
      "v": 105
    },
    {
      "midi": 62,
      "hit": false,
      "t": 251041.015625,
      "d": 496.09375,
      "v": 91
    },
    {
      "midi": 67,
      "hit": false,
      "t": 251041.015625,
      "d": 503.90625,
      "v": 106
    },
    {
      "midi": 48,
      "hit": false,
      "t": 251710.9375,
      "d": 1259.765625,
      "v": 104
    },
    {
      "midi": 64,
      "hit": false,
      "t": 251724.609375,
      "d": 1207.03125,
      "v": 105
    },
    {
      "midi": 67,
      "hit": false,
      "t": 251724.609375,
      "d": 1257.8125,
      "v": 91
    },
    {
      "midi": 62,
      "hit": false,
      "t": 251726.5625,
      "d": 1244.140625,
      "v": 104
    },
    {
      "midi": 40,
      "hit": false,
      "t": 253117.1875,
      "d": 607.421875,
      "v": 104
    },
    {
      "midi": 67,
      "hit": false,
      "t": 253140.625,
      "d": 626.953125,
      "v": 105
    },
    {
      "midi": 59,
      "hit": false,
      "t": 253142.578125,
      "d": 613.28125,
      "v": 104
    },
    {
      "midi": 62,
      "hit": false,
      "t": 253146.484375,
      "d": 611.328125,
      "v": 91
    },
    {
      "midi": 47,
      "hit": false,
      "t": 253820.3125,
      "d": 501.953125,
      "v": 105
    },
    {
      "midi": 62,
      "hit": false,
      "t": 253851.5625,
      "d": 507.8125,
      "v": 76
    },
    {
      "midi": 67,
      "hit": false,
      "t": 253853.515625,
      "d": 505.859375,
      "v": 91
    },
    {
      "midi": 59,
      "hit": false,
      "t": 253855.46875,
      "d": 496.09375,
      "v": 90
    },
    {
      "midi": 52,
      "hit": false,
      "t": 254523.4375,
      "d": 1244.140625,
      "v": 104
    },
    {
      "midi": 62,
      "hit": false,
      "t": 254542.96875,
      "d": 1255.859375,
      "v": 91
    },
    {
      "midi": 59,
      "hit": false,
      "t": 254544.921875,
      "d": 1244.140625,
      "v": 105
    },
    {
      "midi": 67,
      "hit": false,
      "t": 254544.921875,
      "d": 1267.578125,
      "v": 90
    },
    {
      "midi": 48,
      "hit": false,
      "t": 255929.6875,
      "d": 1259.765625,
      "v": 104
    },
    {
      "midi": 67,
      "hit": false,
      "t": 255945.3125,
      "d": 679.6875,
      "v": 105
    },
    {
      "midi": 64,
      "hit": false,
      "t": 255951.171875,
      "d": 642.578125,
      "v": 104
    },
    {
      "midi": 62,
      "hit": false,
      "t": 255951.171875,
      "d": 667.96875,
      "v": 105
    },
    {
      "midi": 67,
      "hit": false,
      "t": 256664.0625,
      "d": 390.625,
      "v": 104
    },
    {
      "midi": 64,
      "hit": false,
      "t": 256664.0625,
      "d": 515.625,
      "v": 91
    },
    {
      "midi": 62,
      "hit": false,
      "t": 256664.0625,
      "d": 541.015625,
      "v": 90
    },
    {
      "midi": 50,
      "hit": false,
      "t": 257335.9375,
      "d": 1259.765625,
      "v": 105
    },
    {
      "midi": 62,
      "hit": false,
      "t": 257355.46875,
      "d": 628.90625,
      "v": 91
    },
    {
      "midi": 66,
      "hit": false,
      "t": 257361.328125,
      "d": 593.75,
      "v": 93
    },
    {
      "midi": 57,
      "hit": false,
      "t": 257361.328125,
      "d": 611.328125,
      "v": 116
    },
    {
      "midi": 57,
      "hit": false,
      "t": 258070.3125,
      "d": 607.421875,
      "v": 104
    },
    {
      "midi": 66,
      "hit": false,
      "t": 258070.3125,
      "d": 609.375,
      "v": 104
    },
    {
      "midi": 62,
      "hit": false,
      "t": 258072.265625,
      "d": 605.46875,
      "v": 105
    },
    {
      "midi": 43,
      "hit": false,
      "t": 258742.1875,
      "d": 1259.765625,
      "v": 105
    },
    {
      "midi": 67,
      "hit": false,
      "t": 258765.625,
      "d": 662.109375,
      "v": 90
    },
    {
      "midi": 59,
      "hit": false,
      "t": 258765.625,
      "d": 664.0625,
      "v": 100
    },
    {
      "midi": 62,
      "hit": false,
      "t": 258767.578125,
      "d": 667.96875,
      "v": 107
    },
    {
      "midi": 59,
      "hit": false,
      "t": 259480.46875,
      "d": 492.1875,
      "v": 105
    },
    {
      "midi": 67,
      "hit": false,
      "t": 259480.46875,
      "d": 492.1875,
      "v": 90
    },
    {
      "midi": 62,
      "hit": false,
      "t": 259480.46875,
      "d": 505.859375,
      "v": 104
    },
    {
      "midi": 43,
      "hit": false,
      "t": 260148.4375,
      "d": 490.234375,
      "v": 101
    },
    {
      "midi": 67,
      "hit": false,
      "t": 260162.109375,
      "d": 1216.796875,
      "v": 90
    },
    {
      "midi": 59,
      "hit": false,
      "t": 260164.0625,
      "d": 1179.6875,
      "v": 117
    },
    {
      "midi": 62,
      "hit": false,
      "t": 260164.0625,
      "d": 1259.765625,
      "v": 105
    },
    {
      "midi": 45,
      "hit": false,
      "t": 260617.1875,
      "d": 490.234375,
      "v": 100
    },
    {
      "midi": 47,
      "hit": false,
      "t": 261085.9375,
      "d": 490.234375,
      "v": 101
    },
    {
      "midi": 48,
      "hit": false,
      "t": 261554.6875,
      "d": 1259.765625,
      "v": 104
    },
    {
      "midi": 62,
      "hit": false,
      "t": 261580.078125,
      "d": 644.53125,
      "v": 104
    },
    {
      "midi": 64,
      "hit": false,
      "t": 261583.984375,
      "d": 625,
      "v": 91
    },
    {
      "midi": 67,
      "hit": false,
      "t": 261583.984375,
      "d": 636.71875,
      "v": 91
    },
    {
      "midi": 64,
      "hit": false,
      "t": 262289.0625,
      "d": 511.71875,
      "v": 104
    },
    {
      "midi": 62,
      "hit": false,
      "t": 262291.015625,
      "d": 496.09375,
      "v": 90
    },
    {
      "midi": 67,
      "hit": false,
      "t": 262291.015625,
      "d": 503.90625,
      "v": 107
    },
    {
      "midi": 48,
      "hit": false,
      "t": 262960.9375,
      "d": 1259.765625,
      "v": 105
    },
    {
      "midi": 64,
      "hit": false,
      "t": 262974.609375,
      "d": 1207.03125,
      "v": 104
    },
    {
      "midi": 67,
      "hit": false,
      "t": 262974.609375,
      "d": 1257.8125,
      "v": 90
    },
    {
      "midi": 62,
      "hit": false,
      "t": 262976.5625,
      "d": 1244.140625,
      "v": 105
    },
    {
      "midi": 40,
      "hit": false,
      "t": 264367.1875,
      "d": 607.421875,
      "v": 104
    },
    {
      "midi": 67,
      "hit": false,
      "t": 264390.625,
      "d": 626.953125,
      "v": 105
    },
    {
      "midi": 59,
      "hit": false,
      "t": 264392.578125,
      "d": 613.28125,
      "v": 105
    },
    {
      "midi": 62,
      "hit": false,
      "t": 264396.484375,
      "d": 611.328125,
      "v": 90
    },
    {
      "midi": 47,
      "hit": false,
      "t": 265070.3125,
      "d": 501.953125,
      "v": 105
    },
    {
      "midi": 62,
      "hit": false,
      "t": 265101.5625,
      "d": 507.8125,
      "v": 76
    },
    {
      "midi": 67,
      "hit": false,
      "t": 265103.515625,
      "d": 505.859375,
      "v": 90
    },
    {
      "midi": 59,
      "hit": false,
      "t": 265105.46875,
      "d": 496.09375,
      "v": 91
    },
    {
      "midi": 52,
      "hit": false,
      "t": 265773.4375,
      "d": 1244.140625,
      "v": 105
    },
    {
      "midi": 62,
      "hit": false,
      "t": 265792.96875,
      "d": 1255.859375,
      "v": 90
    },
    {
      "midi": 59,
      "hit": false,
      "t": 265794.921875,
      "d": 1244.140625,
      "v": 104
    },
    {
      "midi": 67,
      "hit": false,
      "t": 265794.921875,
      "d": 1267.578125,
      "v": 91
    },
    {
      "midi": 48,
      "hit": false,
      "t": 267179.6875,
      "d": 1259.765625,
      "v": 105
    },
    {
      "midi": 67,
      "hit": false,
      "t": 267195.3125,
      "d": 679.6875,
      "v": 104
    },
    {
      "midi": 64,
      "hit": false,
      "t": 267201.171875,
      "d": 642.578125,
      "v": 105
    },
    {
      "midi": 62,
      "hit": false,
      "t": 267201.171875,
      "d": 667.96875,
      "v": 104
    },
    {
      "midi": 67,
      "hit": false,
      "t": 267914.0625,
      "d": 390.625,
      "v": 105
    },
    {
      "midi": 64,
      "hit": false,
      "t": 267914.0625,
      "d": 515.625,
      "v": 91
    },
    {
      "midi": 62,
      "hit": false,
      "t": 267914.0625,
      "d": 541.015625,
      "v": 90
    },
    {
      "midi": 50,
      "hit": false,
      "t": 268585.9375,
      "d": 1259.765625,
      "v": 104
    },
    {
      "midi": 62,
      "hit": false,
      "t": 268605.46875,
      "d": 628.90625,
      "v": 91
    },
    {
      "midi": 66,
      "hit": false,
      "t": 268611.328125,
      "d": 593.75,
      "v": 92
    },
    {
      "midi": 57,
      "hit": false,
      "t": 268611.328125,
      "d": 611.328125,
      "v": 116
    },
    {
      "midi": 57,
      "hit": false,
      "t": 269320.3125,
      "d": 607.421875,
      "v": 105
    },
    {
      "midi": 66,
      "hit": false,
      "t": 269320.3125,
      "d": 609.375,
      "v": 105
    },
    {
      "midi": 62,
      "hit": false,
      "t": 269322.265625,
      "d": 605.46875,
      "v": 104
    },
    {
      "midi": 43,
      "hit": false,
      "t": 269992.1875,
      "d": 1259.765625,
      "v": 104
    },
    {
      "midi": 67,
      "hit": false,
      "t": 270015.625,
      "d": 662.109375,
      "v": 91
    },
    {
      "midi": 59,
      "hit": false,
      "t": 270015.625,
      "d": 664.0625,
      "v": 101
    },
    {
      "midi": 62,
      "hit": false,
      "t": 270017.578125,
      "d": 667.96875,
      "v": 106
    },
    {
      "midi": 59,
      "hit": false,
      "t": 270730.46875,
      "d": 492.1875,
      "v": 104
    },
    {
      "midi": 67,
      "hit": false,
      "t": 270730.46875,
      "d": 492.1875,
      "v": 90
    },
    {
      "midi": 62,
      "hit": false,
      "t": 270730.46875,
      "d": 505.859375,
      "v": 105
    },
    {
      "midi": 43,
      "hit": false,
      "t": 271398.4375,
      "d": 490.234375,
      "v": 101
    },
    {
      "midi": 67,
      "hit": false,
      "t": 271412.109375,
      "d": 1216.796875,
      "v": 91
    },
    {
      "midi": 59,
      "hit": false,
      "t": 271414.0625,
      "d": 1179.6875,
      "v": 116
    },
    {
      "midi": 62,
      "hit": false,
      "t": 271414.0625,
      "d": 1259.765625,
      "v": 105
    },
    {
      "midi": 45,
      "hit": false,
      "t": 271867.1875,
      "d": 490.234375,
      "v": 100
    },
    {
      "midi": 47,
      "hit": false,
      "t": 272335.9375,
      "d": 490.234375,
      "v": 100
    },
    {
      "midi": 48,
      "hit": false,
      "t": 272804.6875,
      "d": 1259.765625,
      "v": 105
    },
    {
      "midi": 62,
      "hit": false,
      "t": 272830.078125,
      "d": 644.53125,
      "v": 105
    },
    {
      "midi": 64,
      "hit": false,
      "t": 272833.984375,
      "d": 625,
      "v": 90
    },
    {
      "midi": 67,
      "hit": false,
      "t": 272833.984375,
      "d": 636.71875,
      "v": 90
    },
    {
      "midi": 64,
      "hit": false,
      "t": 273539.0625,
      "d": 511.71875,
      "v": 105
    },
    {
      "midi": 62,
      "hit": false,
      "t": 273541.015625,
      "d": 496.09375,
      "v": 91
    },
    {
      "midi": 67,
      "hit": false,
      "t": 273541.015625,
      "d": 503.90625,
      "v": 106
    },
    {
      "midi": 48,
      "hit": false,
      "t": 274210.9375,
      "d": 1259.765625,
      "v": 104
    },
    {
      "midi": 64,
      "hit": false,
      "t": 274224.609375,
      "d": 1207.03125,
      "v": 105
    },
    {
      "midi": 67,
      "hit": false,
      "t": 274224.609375,
      "d": 1257.8125,
      "v": 90
    },
    {
      "midi": 62,
      "hit": false,
      "t": 274226.5625,
      "d": 1244.140625,
      "v": 105
    },
    {
      "midi": 40,
      "hit": false,
      "t": 275617.1875,
      "d": 607.421875,
      "v": 105
    },
    {
      "midi": 67,
      "hit": false,
      "t": 275640.625,
      "d": 626.953125,
      "v": 104
    },
    {
      "midi": 59,
      "hit": false,
      "t": 275642.578125,
      "d": 613.28125,
      "v": 105
    },
    {
      "midi": 62,
      "hit": false,
      "t": 275646.484375,
      "d": 611.328125,
      "v": 90
    },
    {
      "midi": 47,
      "hit": false,
      "t": 276320.3125,
      "d": 501.953125,
      "v": 104
    },
    {
      "midi": 62,
      "hit": false,
      "t": 276351.5625,
      "d": 507.8125,
      "v": 77
    },
    {
      "midi": 67,
      "hit": false,
      "t": 276353.515625,
      "d": 505.859375,
      "v": 91
    },
    {
      "midi": 59,
      "hit": false,
      "t": 276355.46875,
      "d": 496.09375,
      "v": 90
    },
    {
      "midi": 52,
      "hit": false,
      "t": 277023.4375,
      "d": 1244.140625,
      "v": 104
    },
    {
      "midi": 62,
      "hit": false,
      "t": 277042.96875,
      "d": 1255.859375,
      "v": 91
    },
    {
      "midi": 59,
      "hit": false,
      "t": 277044.921875,
      "d": 1244.140625,
      "v": 105
    },
    {
      "midi": 67,
      "hit": false,
      "t": 277044.921875,
      "d": 1267.578125,
      "v": 90
    },
    {
      "midi": 48,
      "hit": false,
      "t": 278429.6875,
      "d": 1259.765625,
      "v": 104
    },
    {
      "midi": 67,
      "hit": false,
      "t": 278445.3125,
      "d": 679.6875,
      "v": 105
    },
    {
      "midi": 64,
      "hit": false,
      "t": 278451.171875,
      "d": 642.578125,
      "v": 105
    },
    {
      "midi": 62,
      "hit": false,
      "t": 278451.171875,
      "d": 667.96875,
      "v": 104
    },
    {
      "midi": 67,
      "hit": false,
      "t": 279164.0625,
      "d": 390.625,
      "v": 105
    },
    {
      "midi": 64,
      "hit": false,
      "t": 279164.0625,
      "d": 515.625,
      "v": 90
    },
    {
      "midi": 62,
      "hit": false,
      "t": 279164.0625,
      "d": 541.015625,
      "v": 91
    },
    {
      "midi": 50,
      "hit": false,
      "t": 279835.9375,
      "d": 1259.765625,
      "v": 104
    },
    {
      "midi": 62,
      "hit": false,
      "t": 279855.46875,
      "d": 628.90625,
      "v": 90
    },
    {
      "midi": 66,
      "hit": false,
      "t": 279861.328125,
      "d": 593.75,
      "v": 93
    },
    {
      "midi": 57,
      "hit": false,
      "t": 279861.328125,
      "d": 611.328125,
      "v": 117
    },
    {
      "midi": 57,
      "hit": false,
      "t": 280570.3125,
      "d": 607.421875,
      "v": 104
    },
    {
      "midi": 66,
      "hit": false,
      "t": 280570.3125,
      "d": 609.375,
      "v": 104
    },
    {
      "midi": 62,
      "hit": false,
      "t": 280572.265625,
      "d": 605.46875,
      "v": 105
    },
    {
      "midi": 43,
      "hit": false,
      "t": 281261.71875,
      "d": 5572.265625,
      "v": 115
    },
    {
      "midi": 59,
      "hit": false,
      "t": 281261.71875,
      "d": 5572.265625,
      "v": 112
    },
    {
      "midi": 62,
      "hit": false,
      "t": 281261.71875,
      "d": 5572.265625,
      "v": 118
    },
    {
      "midi": 67,
      "hit": false,
      "t": 281261.71875,
      "d": 5572.265625,
      "v": 101
    }
  ]
}