{
  "jsonPath": "Soundtracks/Australian Talent Show/Delta Goodrem/a-little-too-late.json",
  "path": "Soundtracks\\Australian Talent Show\\Delta Goodrem\\A Little Too Late.mid",
  "name": "A Little Too Late",
  "difficulty": "Advanced",
  "bpm": 100,
  "notes": [
    {
      "midi": 71,
      "hit": false,
      "t": 14402.5,
      "d": 253.75,
      "v": 107
    },
    {
      "midi": 78,
      "hit": false,
      "t": 14696.25,
      "d": 60,
      "v": 89
    },
    {
      "midi": 85,
      "hit": false,
      "t": 15000,
      "d": 81.25,
      "v": 120
    },
    {
      "midi": 86,
      "hit": false,
      "t": 15300,
      "d": 56.25,
      "v": 123
    },
    {
      "midi": 67,
      "hit": false,
      "t": 15596.25,
      "d": 297.5,
      "v": 89
    },
    {
      "midi": 74,
      "hit": false,
      "t": 15893.75,
      "d": 77.5,
      "v": 97
    },
    {
      "midi": 85,
      "hit": false,
      "t": 16202.5,
      "d": 78.75,
      "v": 120
    },
    {
      "midi": 86,
      "hit": false,
      "t": 16496.25,
      "d": 75,
      "v": 118
    },
    {
      "midi": 64,
      "hit": false,
      "t": 16793.75,
      "d": 293.75,
      "v": 102
    },
    {
      "midi": 71,
      "hit": false,
      "t": 17093.75,
      "d": 75,
      "v": 93
    },
    {
      "midi": 85,
      "hit": false,
      "t": 17396.25,
      "d": 97.5,
      "v": 120
    },
    {
      "midi": 86,
      "hit": false,
      "t": 17700,
      "d": 77.5,
      "v": 123
    },
    {
      "midi": 69,
      "hit": false,
      "t": 17996.25,
      "d": 297.5,
      "v": 97
    },
    {
      "midi": 76,
      "hit": false,
      "t": 18293.75,
      "d": 81.25,
      "v": 97
    },
    {
      "midi": 83,
      "hit": false,
      "t": 18600,
      "d": 133.75,
      "v": 120
    },
    {
      "midi": 81,
      "hit": false,
      "t": 18900,
      "d": 90,
      "v": 118
    },
    {
      "midi": 71,
      "hit": false,
      "t": 19200,
      "d": 252.5,
      "v": 107
    },
    {
      "midi": 78,
      "hit": false,
      "t": 19496.25,
      "d": 62.5,
      "v": 100
    },
    {
      "midi": 85,
      "hit": false,
      "t": 19800,
      "d": 81.25,
      "v": 120
    },
    {
      "midi": 86,
      "hit": false,
      "t": 20100,
      "d": 75,
      "v": 123
    },
    {
      "midi": 67,
      "hit": false,
      "t": 20393.75,
      "d": 271.25,
      "v": 81
    },
    {
      "midi": 74,
      "hit": false,
      "t": 20690,
      "d": 60,
      "v": 93
    },
    {
      "midi": 85,
      "hit": false,
      "t": 20993.75,
      "d": 81.25,
      "v": 120
    },
    {
      "midi": 86,
      "hit": false,
      "t": 21293.75,
      "d": 77.5,
      "v": 123
    },
    {
      "midi": 64,
      "hit": false,
      "t": 21593.75,
      "d": 275,
      "v": 97
    },
    {
      "midi": 71,
      "hit": false,
      "t": 21900,
      "d": 75,
      "v": 77
    },
    {
      "midi": 85,
      "hit": false,
      "t": 22193.75,
      "d": 75,
      "v": 123
    },
    {
      "midi": 86,
      "hit": false,
      "t": 22493.75,
      "d": 77.5,
      "v": 123
    },
    {
      "midi": 69,
      "hit": false,
      "t": 22793.75,
      "d": 290,
      "v": 107
    },
    {
      "midi": 76,
      "hit": false,
      "t": 23093.75,
      "d": 75,
      "v": 97
    },
    {
      "midi": 83,
      "hit": false,
      "t": 23393.75,
      "d": 83.75,
      "v": 123
    },
    {
      "midi": 81,
      "hit": false,
      "t": 23693.75,
      "d": 56.25,
      "v": 118
    },
    {
      "midi": 71,
      "hit": false,
      "t": 24002.5,
      "d": 253.75,
      "v": 107
    },
    {
      "midi": 78,
      "hit": false,
      "t": 24296.25,
      "d": 60,
      "v": 89
    },
    {
      "midi": 85,
      "hit": false,
      "t": 24600,
      "d": 81.25,
      "v": 120
    },
    {
      "midi": 86,
      "hit": false,
      "t": 24900,
      "d": 56.25,
      "v": 123
    },
    {
      "midi": 67,
      "hit": false,
      "t": 25196.25,
      "d": 297.5,
      "v": 89
    },
    {
      "midi": 74,
      "hit": false,
      "t": 25493.75,
      "d": 77.5,
      "v": 97
    },
    {
      "midi": 85,
      "hit": false,
      "t": 25802.5,
      "d": 78.75,
      "v": 120
    },
    {
      "midi": 86,
      "hit": false,
      "t": 26096.25,
      "d": 75,
      "v": 118
    },
    {
      "midi": 64,
      "hit": false,
      "t": 26393.75,
      "d": 293.75,
      "v": 102
    },
    {
      "midi": 71,
      "hit": false,
      "t": 26693.75,
      "d": 75,
      "v": 93
    },
    {
      "midi": 85,
      "hit": false,
      "t": 26996.25,
      "d": 97.5,
      "v": 120
    },
    {
      "midi": 86,
      "hit": false,
      "t": 27300,
      "d": 77.5,
      "v": 123
    },
    {
      "midi": 69,
      "hit": false,
      "t": 27596.25,
      "d": 297.5,
      "v": 97
    },
    {
      "midi": 76,
      "hit": false,
      "t": 27893.75,
      "d": 81.25,
      "v": 97
    },
    {
      "midi": 83,
      "hit": false,
      "t": 28200,
      "d": 133.75,
      "v": 120
    },
    {
      "midi": 81,
      "hit": false,
      "t": 28500,
      "d": 90,
      "v": 118
    },
    {
      "midi": 71,
      "hit": false,
      "t": 28800,
      "d": 252.5,
      "v": 107
    },
    {
      "midi": 78,
      "hit": false,
      "t": 29096.25,
      "d": 62.5,
      "v": 100
    },
    {
      "midi": 85,
      "hit": false,
      "t": 29400,
      "d": 81.25,
      "v": 120
    },
    {
      "midi": 86,
      "hit": false,
      "t": 29700,
      "d": 75,
      "v": 123
    },
    {
      "midi": 67,
      "hit": false,
      "t": 29993.75,
      "d": 271.25,
      "v": 81
    },
    {
      "midi": 74,
      "hit": false,
      "t": 30290,
      "d": 60,
      "v": 93
    },
    {
      "midi": 85,
      "hit": false,
      "t": 30593.75,
      "d": 81.25,
      "v": 120
    },
    {
      "midi": 86,
      "hit": false,
      "t": 30893.75,
      "d": 77.5,
      "v": 123
    },
    {
      "midi": 64,
      "hit": false,
      "t": 31193.75,
      "d": 275,
      "v": 97
    },
    {
      "midi": 71,
      "hit": false,
      "t": 31500,
      "d": 75,
      "v": 77
    },
    {
      "midi": 85,
      "hit": false,
      "t": 31793.75,
      "d": 75,
      "v": 123
    },
    {
      "midi": 86,
      "hit": false,
      "t": 32093.75,
      "d": 77.5,
      "v": 123
    },
    {
      "midi": 69,
      "hit": false,
      "t": 32393.75,
      "d": 290,
      "v": 107
    },
    {
      "midi": 76,
      "hit": false,
      "t": 32693.75,
      "d": 75,
      "v": 97
    },
    {
      "midi": 83,
      "hit": false,
      "t": 32993.75,
      "d": 83.75,
      "v": 123
    },
    {
      "midi": 81,
      "hit": false,
      "t": 33293.75,
      "d": 56.25,
      "v": 118
    },
    {
      "midi": 62,
      "hit": false,
      "t": 33602.5,
      "d": 253.75,
      "v": 127
    },
    {
      "midi": 69,
      "hit": false,
      "t": 33896.25,
      "d": 60,
      "v": 89
    },
    {
      "midi": 76,
      "hit": false,
      "t": 34200,
      "d": 81.25,
      "v": 120
    },
    {
      "midi": 77,
      "hit": false,
      "t": 34500,
      "d": 56.25,
      "v": 123
    },
    {
      "midi": 58,
      "hit": false,
      "t": 34796.25,
      "d": 297.5,
      "v": 109
    },
    {
      "midi": 65,
      "hit": false,
      "t": 35093.75,
      "d": 77.5,
      "v": 97
    },
    {
      "midi": 76,
      "hit": false,
      "t": 35402.5,
      "d": 78.75,
      "v": 120
    },
    {
      "midi": 77,
      "hit": false,
      "t": 35696.25,
      "d": 75,
      "v": 118
    },
    {
      "midi": 55,
      "hit": false,
      "t": 35993.75,
      "d": 293.75,
      "v": 122
    },
    {
      "midi": 62,
      "hit": false,
      "t": 36293.75,
      "d": 75,
      "v": 93
    },
    {
      "midi": 76,
      "hit": false,
      "t": 36596.25,
      "d": 97.5,
      "v": 120
    },
    {
      "midi": 77,
      "hit": false,
      "t": 36900,
      "d": 77.5,
      "v": 123
    },
    {
      "midi": 57,
      "hit": false,
      "t": 37200,
      "d": 293.75,
      "v": 124
    },
    {
      "midi": 67,
      "hit": false,
      "t": 37493.75,
      "d": 81.25,
      "v": 97
    },
    {
      "midi": 74,
      "hit": false,
      "t": 37800,
      "d": 133.75,
      "v": 120
    },
    {
      "midi": 72,
      "hit": false,
      "t": 38100,
      "d": 90,
      "v": 118
    },
    {
      "midi": 62,
      "hit": false,
      "t": 38400,
      "d": 252.5,
      "v": 127
    },
    {
      "midi": 69,
      "hit": false,
      "t": 38696.25,
      "d": 62.5,
      "v": 100
    },
    {
      "midi": 76,
      "hit": false,
      "t": 39000,
      "d": 81.25,
      "v": 120
    },
    {
      "midi": 77,
      "hit": false,
      "t": 39300,
      "d": 75,
      "v": 123
    },
    {
      "midi": 58,
      "hit": false,
      "t": 39593.75,
      "d": 271.25,
      "v": 101
    },
    {
      "midi": 65,
      "hit": false,
      "t": 39890,
      "d": 60,
      "v": 93
    },
    {
      "midi": 76,
      "hit": false,
      "t": 40193.75,
      "d": 81.25,
      "v": 120
    },
    {
      "midi": 77,
      "hit": false,
      "t": 40493.75,
      "d": 77.5,
      "v": 123
    },
    {
      "midi": 45,
      "hit": false,
      "t": 40800,
      "d": 1037.5,
      "v": 102
    },
    {
      "midi": 62,
      "hit": false,
      "t": 40800,
      "d": 1056.25,
      "v": 93
    },
    {
      "midi": 69,
      "hit": false,
      "t": 40800,
      "d": 1056.25,
      "v": 84
    },
    {
      "midi": 57,
      "hit": false,
      "t": 40800,
      "d": 1090,
      "v": 77
    },
    {
      "midi": 52,
      "hit": false,
      "t": 40800,
      "d": 1096.25,
      "v": 97
    },
    {
      "midi": 64,
      "hit": false,
      "t": 40802.5,
      "d": 1106.25,
      "v": 89
    },
    {
      "midi": 52,
      "hit": false,
      "t": 41996.25,
      "d": 603.75,
      "v": 102
    },
    {
      "midi": 61,
      "hit": false,
      "t": 41996.25,
      "d": 603.75,
      "v": 120
    },
    {
      "midi": 64,
      "hit": false,
      "t": 41996.25,
      "d": 603.75,
      "v": 102
    },
    {
      "midi": 69,
      "hit": false,
      "t": 41996.25,
      "d": 603.75,
      "v": 102
    },
    {
      "midi": 45,
      "hit": false,
      "t": 42000,
      "d": 600,
      "v": 113
    },
    {
      "midi": 57,
      "hit": false,
      "t": 42000,
      "d": 600,
      "v": 102
    },
    {
      "midi": 47,
      "hit": false,
      "t": 42896.25,
      "d": 291.25,
      "v": 118
    },
    {
      "midi": 71,
      "hit": false,
      "t": 42896.25,
      "d": 312.5,
      "v": 123
    },
    {
      "midi": 83,
      "hit": false,
      "t": 42900,
      "d": 308.75,
      "v": 115
    },
    {
      "midi": 78,
      "hit": false,
      "t": 43200,
      "d": 296.25,
      "v": 127
    },
    {
      "midi": 54,
      "hit": false,
      "t": 43202.5,
      "d": 272.5,
      "v": 127
    },
    {
      "midi": 90,
      "hit": false,
      "t": 43202.5,
      "d": 293.75,
      "v": 119
    },
    {
      "midi": 79,
      "hit": false,
      "t": 43496.25,
      "d": 118.75,
      "v": 117
    },
    {
      "midi": 91,
      "hit": false,
      "t": 43500,
      "d": 118.75,
      "v": 109
    },
    {
      "midi": 55,
      "hit": false,
      "t": 43500,
      "d": 133.75,
      "v": 107
    },
    {
      "midi": 78,
      "hit": false,
      "t": 43793.75,
      "d": 81.25,
      "v": 127
    },
    {
      "midi": 90,
      "hit": false,
      "t": 43796.25,
      "d": 78.75,
      "v": 119
    },
    {
      "midi": 54,
      "hit": false,
      "t": 43802.5,
      "d": 62.5,
      "v": 127
    },
    {
      "midi": 47,
      "hit": false,
      "t": 44693.75,
      "d": 371.25,
      "v": 107
    },
    {
      "midi": 71,
      "hit": false,
      "t": 44693.75,
      "d": 393.75,
      "v": 99
    },
    {
      "midi": 83,
      "hit": false,
      "t": 44693.75,
      "d": 393.75,
      "v": 91
    },
    {
      "midi": 47,
      "hit": false,
      "t": 45296.25,
      "d": 303.75,
      "v": 94
    },
    {
      "midi": 71,
      "hit": false,
      "t": 45296.25,
      "d": 303.75,
      "v": 123
    },
    {
      "midi": 83,
      "hit": false,
      "t": 45300,
      "d": 300,
      "v": 115
    },
    {
      "midi": 54,
      "hit": false,
      "t": 45602.5,
      "d": 253.75,
      "v": 127
    },
    {
      "midi": 78,
      "hit": false,
      "t": 45602.5,
      "d": 253.75,
      "v": 127
    },
    {
      "midi": 90,
      "hit": false,
      "t": 45606.25,
      "d": 250,
      "v": 119
    },
    {
      "midi": 79,
      "hit": false,
      "t": 45887.5,
      "d": 277.5,
      "v": 112
    },
    {
      "midi": 91,
      "hit": false,
      "t": 45887.5,
      "d": 277.5,
      "v": 104
    },
    {
      "midi": 55,
      "hit": false,
      "t": 45890,
      "d": 272.5,
      "v": 112
    },
    {
      "midi": 78,
      "hit": false,
      "t": 46187.5,
      "d": 175,
      "v": 127
    },
    {
      "midi": 90,
      "hit": false,
      "t": 46187.5,
      "d": 175,
      "v": 119
    },
    {
      "midi": 54,
      "hit": false,
      "t": 46196.25,
      "d": 137.5,
      "v": 127
    },
    {
      "midi": 47,
      "hit": false,
      "t": 47093.75,
      "d": 77.5,
      "v": 83
    },
    {
      "midi": 71,
      "hit": false,
      "t": 47093.75,
      "d": 100,
      "v": 80
    },
    {
      "midi": 83,
      "hit": false,
      "t": 47096.25,
      "d": 97.5,
      "v": 72
    },
    {
      "midi": 47,
      "hit": false,
      "t": 47687.5,
      "d": 312.5,
      "v": 103
    },
    {
      "midi": 71,
      "hit": false,
      "t": 47687.5,
      "d": 312.5,
      "v": 117
    },
    {
      "midi": 83,
      "hit": false,
      "t": 47687.5,
      "d": 312.5,
      "v": 109
    },
    {
      "midi": 54,
      "hit": false,
      "t": 47993.75,
      "d": 275,
      "v": 127
    },
    {
      "midi": 78,
      "hit": false,
      "t": 48002.5,
      "d": 260,
      "v": 127
    },
    {
      "midi": 90,
      "hit": false,
      "t": 48002.5,
      "d": 260,
      "v": 119
    },
    {
      "midi": 55,
      "hit": false,
      "t": 48290,
      "d": 253.75,
      "v": 107
    },
    {
      "midi": 79,
      "hit": false,
      "t": 48290,
      "d": 256.25,
      "v": 112
    },
    {
      "midi": 91,
      "hit": false,
      "t": 48290,
      "d": 256.25,
      "v": 104
    },
    {
      "midi": 54,
      "hit": false,
      "t": 48596.25,
      "d": 100,
      "v": 127
    },
    {
      "midi": 78,
      "hit": false,
      "t": 48596.25,
      "d": 118.75,
      "v": 127
    },
    {
      "midi": 90,
      "hit": false,
      "t": 48596.25,
      "d": 122.5,
      "v": 119
    },
    {
      "midi": 47,
      "hit": false,
      "t": 49496.25,
      "d": 97.5,
      "v": 87
    },
    {
      "midi": 71,
      "hit": false,
      "t": 49496.25,
      "d": 100,
      "v": 91
    },
    {
      "midi": 83,
      "hit": false,
      "t": 49496.25,
      "d": 100,
      "v": 83
    },
    {
      "midi": 71,
      "hit": false,
      "t": 50100,
      "d": 77.5,
      "v": 94
    },
    {
      "midi": 83,
      "hit": false,
      "t": 50100,
      "d": 77.5,
      "v": 86
    },
    {
      "midi": 47,
      "hit": false,
      "t": 50100,
      "d": 96.25,
      "v": 87
    },
    {
      "midi": 76,
      "hit": false,
      "t": 50396.25,
      "d": 253.75,
      "v": 127
    },
    {
      "midi": 52,
      "hit": false,
      "t": 50396.25,
      "d": 272.5,
      "v": 127
    },
    {
      "midi": 88,
      "hit": false,
      "t": 50400,
      "d": 250,
      "v": 119
    },
    {
      "midi": 78,
      "hit": false,
      "t": 50681.25,
      "d": 352.5,
      "v": 123
    },
    {
      "midi": 90,
      "hit": false,
      "t": 50683.75,
      "d": 353.75,
      "v": 115
    },
    {
      "midi": 54,
      "hit": false,
      "t": 50693.75,
      "d": 271.25,
      "v": 116
    },
    {
      "midi": 76,
      "hit": false,
      "t": 50990,
      "d": 116.25,
      "v": 127
    },
    {
      "midi": 88,
      "hit": false,
      "t": 50990,
      "d": 116.25,
      "v": 119
    },
    {
      "midi": 52,
      "hit": false,
      "t": 50990,
      "d": 135,
      "v": 112
    },
    {
      "midi": 45,
      "hit": false,
      "t": 51877.5,
      "d": 81.25,
      "v": 107
    },
    {
      "midi": 69,
      "hit": false,
      "t": 51877.5,
      "d": 97.5,
      "v": 99
    },
    {
      "midi": 81,
      "hit": false,
      "t": 51877.5,
      "d": 97.5,
      "v": 91
    },
    {
      "midi": 47,
      "hit": false,
      "t": 52481.25,
      "d": 318.75,
      "v": 87
    },
    {
      "midi": 71,
      "hit": false,
      "t": 52493.75,
      "d": 306.25,
      "v": 94
    },
    {
      "midi": 83,
      "hit": false,
      "t": 52493.75,
      "d": 306.25,
      "v": 86
    },
    {
      "midi": 54,
      "hit": false,
      "t": 52787.5,
      "d": 271.25,
      "v": 127
    },
    {
      "midi": 78,
      "hit": false,
      "t": 52787.5,
      "d": 275,
      "v": 127
    },
    {
      "midi": 90,
      "hit": false,
      "t": 52787.5,
      "d": 275,
      "v": 119
    },
    {
      "midi": 79,
      "hit": false,
      "t": 53081.25,
      "d": 352.5,
      "v": 99
    },
    {
      "midi": 55,
      "hit": false,
      "t": 53083.75,
      "d": 291.25,
      "v": 103
    },
    {
      "midi": 91,
      "hit": false,
      "t": 53083.75,
      "d": 353.75,
      "v": 91
    },
    {
      "midi": 54,
      "hit": false,
      "t": 53381.25,
      "d": 175,
      "v": 127
    },
    {
      "midi": 78,
      "hit": false,
      "t": 53390,
      "d": 135,
      "v": 127
    },
    {
      "midi": 90,
      "hit": false,
      "t": 53390,
      "d": 135,
      "v": 119
    },
    {
      "midi": 71,
      "hit": false,
      "t": 54300,
      "d": 100,
      "v": 112
    },
    {
      "midi": 83,
      "hit": false,
      "t": 54300,
      "d": 100,
      "v": 104
    },
    {
      "midi": 47,
      "hit": false,
      "t": 54300,
      "d": 115,
      "v": 103
    },
    {
      "midi": 47,
      "hit": false,
      "t": 54902.5,
      "d": 235,
      "v": 127
    },
    {
      "midi": 71,
      "hit": false,
      "t": 54902.5,
      "d": 272.5,
      "v": 127
    },
    {
      "midi": 83,
      "hit": false,
      "t": 54902.5,
      "d": 272.5,
      "v": 119
    },
    {
      "midi": 54,
      "hit": false,
      "t": 55200,
      "d": 275,
      "v": 127
    },
    {
      "midi": 78,
      "hit": false,
      "t": 55200,
      "d": 308.75,
      "v": 127
    },
    {
      "midi": 90,
      "hit": false,
      "t": 55200,
      "d": 312.5,
      "v": 119
    },
    {
      "midi": 55,
      "hit": false,
      "t": 55487.5,
      "d": 271.25,
      "v": 94
    },
    {
      "midi": 79,
      "hit": false,
      "t": 55487.5,
      "d": 331.25,
      "v": 103
    },
    {
      "midi": 91,
      "hit": false,
      "t": 55487.5,
      "d": 331.25,
      "v": 95
    },
    {
      "midi": 54,
      "hit": false,
      "t": 55790,
      "d": 141.25,
      "v": 127
    },
    {
      "midi": 78,
      "hit": false,
      "t": 55793.75,
      "d": 115,
      "v": 127
    },
    {
      "midi": 90,
      "hit": false,
      "t": 55793.75,
      "d": 118.75,
      "v": 119
    },
    {
      "midi": 71,
      "hit": false,
      "t": 56690,
      "d": 97.5,
      "v": 94
    },
    {
      "midi": 47,
      "hit": false,
      "t": 56690,
      "d": 100,
      "v": 91
    },
    {
      "midi": 83,
      "hit": false,
      "t": 56690,
      "d": 100,
      "v": 86
    },
    {
      "midi": 47,
      "hit": false,
      "t": 57293.75,
      "d": 306.25,
      "v": 71
    },
    {
      "midi": 71,
      "hit": false,
      "t": 57293.75,
      "d": 306.25,
      "v": 71
    },
    {
      "midi": 83,
      "hit": false,
      "t": 57293.75,
      "d": 306.25,
      "v": 63
    },
    {
      "midi": 54,
      "hit": false,
      "t": 57590,
      "d": 272.5,
      "v": 127
    },
    {
      "midi": 78,
      "hit": false,
      "t": 57590,
      "d": 291.25,
      "v": 127
    },
    {
      "midi": 90,
      "hit": false,
      "t": 57593.75,
      "d": 290,
      "v": 119
    },
    {
      "midi": 79,
      "hit": false,
      "t": 57887.5,
      "d": 233.75,
      "v": 107
    },
    {
      "midi": 91,
      "hit": false,
      "t": 57887.5,
      "d": 237.5,
      "v": 99
    },
    {
      "midi": 55,
      "hit": false,
      "t": 57887.5,
      "d": 252.5,
      "v": 107
    },
    {
      "midi": 78,
      "hit": false,
      "t": 58181.25,
      "d": 118.75,
      "v": 127
    },
    {
      "midi": 90,
      "hit": false,
      "t": 58183.75,
      "d": 116.25,
      "v": 119
    },
    {
      "midi": 54,
      "hit": false,
      "t": 58190,
      "d": 103.75,
      "v": 127
    },
    {
      "midi": 69,
      "hit": false,
      "t": 59083.75,
      "d": 116.25,
      "v": 107
    },
    {
      "midi": 81,
      "hit": false,
      "t": 59083.75,
      "d": 116.25,
      "v": 99
    },
    {
      "midi": 45,
      "hit": false,
      "t": 59083.75,
      "d": 172.5,
      "v": 103
    },
    {
      "midi": 45,
      "hit": false,
      "t": 59693.75,
      "d": 306.25,
      "v": 103
    },
    {
      "midi": 69,
      "hit": false,
      "t": 59706.25,
      "d": 293.75,
      "v": 87
    },
    {
      "midi": 81,
      "hit": false,
      "t": 59706.25,
      "d": 293.75,
      "v": 79
    },
    {
      "midi": 76,
      "hit": false,
      "t": 60000,
      "d": 256.25,
      "v": 127
    },
    {
      "midi": 52,
      "hit": false,
      "t": 60000,
      "d": 293.75,
      "v": 123
    },
    {
      "midi": 88,
      "hit": false,
      "t": 60002.5,
      "d": 253.75,
      "v": 119
    },
    {
      "midi": 54,
      "hit": false,
      "t": 60287.5,
      "d": 252.5,
      "v": 110
    },
    {
      "midi": 78,
      "hit": false,
      "t": 60287.5,
      "d": 331.25,
      "v": 123
    },
    {
      "midi": 90,
      "hit": false,
      "t": 60287.5,
      "d": 331.25,
      "v": 115
    },
    {
      "midi": 76,
      "hit": false,
      "t": 60583.75,
      "d": 137.5,
      "v": 127
    },
    {
      "midi": 52,
      "hit": false,
      "t": 60583.75,
      "d": 178.75,
      "v": 103
    },
    {
      "midi": 88,
      "hit": false,
      "t": 60587.5,
      "d": 133.75,
      "v": 119
    },
    {
      "midi": 69,
      "hit": false,
      "t": 61483.75,
      "d": 116.25,
      "v": 99
    },
    {
      "midi": 45,
      "hit": false,
      "t": 61483.75,
      "d": 118.75,
      "v": 107
    },
    {
      "midi": 81,
      "hit": false,
      "t": 61487.5,
      "d": 112.5,
      "v": 91
    },
    {
      "midi": 45,
      "hit": false,
      "t": 62077.5,
      "d": 56.25,
      "v": 91
    },
    {
      "midi": 69,
      "hit": false,
      "t": 62077.5,
      "d": 60,
      "v": 83
    },
    {
      "midi": 81,
      "hit": false,
      "t": 62077.5,
      "d": 60,
      "v": 75
    },
    {
      "midi": 71,
      "hit": false,
      "t": 72002.5,
      "d": 253.75,
      "v": 107
    },
    {
      "midi": 78,
      "hit": false,
      "t": 72296.25,
      "d": 60,
      "v": 89
    },
    {
      "midi": 85,
      "hit": false,
      "t": 72600,
      "d": 81.25,
      "v": 120
    },
    {
      "midi": 86,
      "hit": false,
      "t": 72900,
      "d": 56.25,
      "v": 123
    },
    {
      "midi": 67,
      "hit": false,
      "t": 73196.25,
      "d": 297.5,
      "v": 89
    },
    {
      "midi": 74,
      "hit": false,
      "t": 73493.75,
      "d": 77.5,
      "v": 97
    },
    {
      "midi": 85,
      "hit": false,
      "t": 73802.5,
      "d": 78.75,
      "v": 120
    },
    {
      "midi": 86,
      "hit": false,
      "t": 74096.25,
      "d": 75,
      "v": 118
    },
    {
      "midi": 64,
      "hit": false,
      "t": 74393.75,
      "d": 293.75,
      "v": 102
    },
    {
      "midi": 71,
      "hit": false,
      "t": 74693.75,
      "d": 75,
      "v": 93
    },
    {
      "midi": 85,
      "hit": false,
      "t": 74996.25,
      "d": 97.5,
      "v": 120
    },
    {
      "midi": 86,
      "hit": false,
      "t": 75300,
      "d": 77.5,
      "v": 123
    },
    {
      "midi": 69,
      "hit": false,
      "t": 75596.25,
      "d": 297.5,
      "v": 97
    },
    {
      "midi": 76,
      "hit": false,
      "t": 75893.75,
      "d": 81.25,
      "v": 97
    },
    {
      "midi": 83,
      "hit": false,
      "t": 76200,
      "d": 133.75,
      "v": 120
    },
    {
      "midi": 81,
      "hit": false,
      "t": 76500,
      "d": 90,
      "v": 118
    },
    {
      "midi": 71,
      "hit": false,
      "t": 76800,
      "d": 252.5,
      "v": 107
    },
    {
      "midi": 78,
      "hit": false,
      "t": 77096.25,
      "d": 62.5,
      "v": 100
    },
    {
      "midi": 85,
      "hit": false,
      "t": 77400,
      "d": 81.25,
      "v": 120
    },
    {
      "midi": 86,
      "hit": false,
      "t": 77700,
      "d": 75,
      "v": 123
    },
    {
      "midi": 67,
      "hit": false,
      "t": 77993.75,
      "d": 271.25,
      "v": 81
    },
    {
      "midi": 74,
      "hit": false,
      "t": 78290,
      "d": 60,
      "v": 93
    },
    {
      "midi": 85,
      "hit": false,
      "t": 78593.75,
      "d": 81.25,
      "v": 120
    },
    {
      "midi": 86,
      "hit": false,
      "t": 78893.75,
      "d": 77.5,
      "v": 123
    },
    {
      "midi": 64,
      "hit": false,
      "t": 79193.75,
      "d": 275,
      "v": 97
    },
    {
      "midi": 71,
      "hit": false,
      "t": 79500,
      "d": 75,
      "v": 77
    },
    {
      "midi": 85,
      "hit": false,
      "t": 79793.75,
      "d": 75,
      "v": 123
    },
    {
      "midi": 86,
      "hit": false,
      "t": 80093.75,
      "d": 77.5,
      "v": 123
    },
    {
      "midi": 69,
      "hit": false,
      "t": 80393.75,
      "d": 290,
      "v": 107
    },
    {
      "midi": 76,
      "hit": false,
      "t": 80693.75,
      "d": 75,
      "v": 97
    },
    {
      "midi": 83,
      "hit": false,
      "t": 80993.75,
      "d": 83.75,
      "v": 123
    },
    {
      "midi": 81,
      "hit": false,
      "t": 81293.75,
      "d": 56.25,
      "v": 118
    },
    {
      "midi": 71,
      "hit": false,
      "t": 81602.5,
      "d": 253.75,
      "v": 107
    },
    {
      "midi": 78,
      "hit": false,
      "t": 81896.25,
      "d": 60,
      "v": 89
    },
    {
      "midi": 85,
      "hit": false,
      "t": 82200,
      "d": 81.25,
      "v": 120
    },
    {
      "midi": 86,
      "hit": false,
      "t": 82500,
      "d": 56.25,
      "v": 123
    },
    {
      "midi": 67,
      "hit": false,
      "t": 82796.25,
      "d": 297.5,
      "v": 89
    },
    {
      "midi": 74,
      "hit": false,
      "t": 83093.75,
      "d": 77.5,
      "v": 97
    },
    {
      "midi": 85,
      "hit": false,
      "t": 83402.5,
      "d": 78.75,
      "v": 120
    },
    {
      "midi": 86,
      "hit": false,
      "t": 83696.25,
      "d": 75,
      "v": 118
    },
    {
      "midi": 64,
      "hit": false,
      "t": 83993.75,
      "d": 293.75,
      "v": 102
    },
    {
      "midi": 71,
      "hit": false,
      "t": 84293.75,
      "d": 75,
      "v": 93
    },
    {
      "midi": 85,
      "hit": false,
      "t": 84596.25,
      "d": 97.5,
      "v": 120
    },
    {
      "midi": 86,
      "hit": false,
      "t": 84900,
      "d": 77.5,
      "v": 123
    },
    {
      "midi": 69,
      "hit": false,
      "t": 85196.25,
      "d": 297.5,
      "v": 97
    },
    {
      "midi": 76,
      "hit": false,
      "t": 85493.75,
      "d": 81.25,
      "v": 97
    },
    {
      "midi": 83,
      "hit": false,
      "t": 85800,
      "d": 133.75,
      "v": 120
    },
    {
      "midi": 81,
      "hit": false,
      "t": 86100,
      "d": 90,
      "v": 118
    },
    {
      "midi": 71,
      "hit": false,
      "t": 86400,
      "d": 252.5,
      "v": 107
    },
    {
      "midi": 78,
      "hit": false,
      "t": 86696.25,
      "d": 62.5,
      "v": 100
    },
    {
      "midi": 85,
      "hit": false,
      "t": 87000,
      "d": 81.25,
      "v": 120
    },
    {
      "midi": 86,
      "hit": false,
      "t": 87300,
      "d": 75,
      "v": 123
    },
    {
      "midi": 67,
      "hit": false,
      "t": 87593.75,
      "d": 271.25,
      "v": 81
    },
    {
      "midi": 74,
      "hit": false,
      "t": 87890,
      "d": 60,
      "v": 93
    },
    {
      "midi": 85,
      "hit": false,
      "t": 88193.75,
      "d": 81.25,
      "v": 120
    },
    {
      "midi": 86,
      "hit": false,
      "t": 88493.75,
      "d": 77.5,
      "v": 123
    },
    {
      "midi": 64,
      "hit": false,
      "t": 88793.75,
      "d": 275,
      "v": 97
    },
    {
      "midi": 71,
      "hit": false,
      "t": 89100,
      "d": 75,
      "v": 77
    },
    {
      "midi": 85,
      "hit": false,
      "t": 89393.75,
      "d": 75,
      "v": 123
    },
    {
      "midi": 86,
      "hit": false,
      "t": 89693.75,
      "d": 77.5,
      "v": 123
    },
    {
      "midi": 69,
      "hit": false,
      "t": 89993.75,
      "d": 290,
      "v": 107
    },
    {
      "midi": 76,
      "hit": false,
      "t": 90293.75,
      "d": 75,
      "v": 97
    },
    {
      "midi": 83,
      "hit": false,
      "t": 90593.75,
      "d": 83.75,
      "v": 123
    },
    {
      "midi": 81,
      "hit": false,
      "t": 90893.75,
      "d": 56.25,
      "v": 118
    },
    {
      "midi": 62,
      "hit": false,
      "t": 91202.5,
      "d": 253.75,
      "v": 127
    },
    {
      "midi": 69,
      "hit": false,
      "t": 91496.25,
      "d": 60,
      "v": 89
    },
    {
      "midi": 76,
      "hit": false,
      "t": 91800,
      "d": 81.25,
      "v": 120
    },
    {
      "midi": 77,
      "hit": false,
      "t": 92100,
      "d": 56.25,
      "v": 123
    },
    {
      "midi": 58,
      "hit": false,
      "t": 92396.25,
      "d": 297.5,
      "v": 109
    },
    {
      "midi": 65,
      "hit": false,
      "t": 92693.75,
      "d": 77.5,
      "v": 97
    },
    {
      "midi": 76,
      "hit": false,
      "t": 93002.5,
      "d": 78.75,
      "v": 120
    },
    {
      "midi": 77,
      "hit": false,
      "t": 93296.25,
      "d": 75,
      "v": 118
    },
    {
      "midi": 55,
      "hit": false,
      "t": 93593.75,
      "d": 293.75,
      "v": 122
    },
    {
      "midi": 62,
      "hit": false,
      "t": 93893.75,
      "d": 75,
      "v": 93
    },
    {
      "midi": 76,
      "hit": false,
      "t": 94196.25,
      "d": 97.5,
      "v": 120
    },
    {
      "midi": 77,
      "hit": false,
      "t": 94500,
      "d": 77.5,
      "v": 123
    },
    {
      "midi": 57,
      "hit": false,
      "t": 94800,
      "d": 293.75,
      "v": 124
    },
    {
      "midi": 67,
      "hit": false,
      "t": 95093.75,
      "d": 81.25,
      "v": 97
    },
    {
      "midi": 74,
      "hit": false,
      "t": 95400,
      "d": 133.75,
      "v": 120
    },
    {
      "midi": 72,
      "hit": false,
      "t": 95700,
      "d": 90,
      "v": 118
    },
    {
      "midi": 62,
      "hit": false,
      "t": 96000,
      "d": 252.5,
      "v": 127
    },
    {
      "midi": 69,
      "hit": false,
      "t": 96296.25,
      "d": 62.5,
      "v": 100
    },
    {
      "midi": 76,
      "hit": false,
      "t": 96600,
      "d": 81.25,
      "v": 120
    },
    {
      "midi": 77,
      "hit": false,
      "t": 96900,
      "d": 75,
      "v": 123
    },
    {
      "midi": 58,
      "hit": false,
      "t": 97193.75,
      "d": 271.25,
      "v": 101
    },
    {
      "midi": 65,
      "hit": false,
      "t": 97490,
      "d": 60,
      "v": 93
    },
    {
      "midi": 76,
      "hit": false,
      "t": 97793.75,
      "d": 81.25,
      "v": 120
    },
    {
      "midi": 77,
      "hit": false,
      "t": 98093.75,
      "d": 77.5,
      "v": 123
    },
    {
      "midi": 45,
      "hit": false,
      "t": 98400,
      "d": 1037.5,
      "v": 102
    },
    {
      "midi": 62,
      "hit": false,
      "t": 98400,
      "d": 1056.25,
      "v": 93
    },
    {
      "midi": 69,
      "hit": false,
      "t": 98400,
      "d": 1056.25,
      "v": 84
    },
    {
      "midi": 57,
      "hit": false,
      "t": 98400,
      "d": 1090,
      "v": 77
    },
    {
      "midi": 52,
      "hit": false,
      "t": 98400,
      "d": 1096.25,
      "v": 97
    },
    {
      "midi": 64,
      "hit": false,
      "t": 98402.5,
      "d": 1106.25,
      "v": 89
    },
    {
      "midi": 52,
      "hit": false,
      "t": 99596.25,
      "d": 603.75,
      "v": 102
    },
    {
      "midi": 61,
      "hit": false,
      "t": 99596.25,
      "d": 603.75,
      "v": 120
    },
    {
      "midi": 64,
      "hit": false,
      "t": 99596.25,
      "d": 603.75,
      "v": 102
    },
    {
      "midi": 69,
      "hit": false,
      "t": 99596.25,
      "d": 603.75,
      "v": 102
    },
    {
      "midi": 45,
      "hit": false,
      "t": 99600,
      "d": 600,
      "v": 113
    },
    {
      "midi": 57,
      "hit": false,
      "t": 99600,
      "d": 600,
      "v": 102
    },
    {
      "midi": 47,
      "hit": false,
      "t": 100496.25,
      "d": 291.25,
      "v": 118
    },
    {
      "midi": 71,
      "hit": false,
      "t": 100496.25,
      "d": 312.5,
      "v": 123
    },
    {
      "midi": 83,
      "hit": false,
      "t": 100500,
      "d": 308.75,
      "v": 115
    },
    {
      "midi": 78,
      "hit": false,
      "t": 100800,
      "d": 296.25,
      "v": 127
    },
    {
      "midi": 54,
      "hit": false,
      "t": 100802.5,
      "d": 272.5,
      "v": 127
    },
    {
      "midi": 90,
      "hit": false,
      "t": 100802.5,
      "d": 293.75,
      "v": 119
    },
    {
      "midi": 79,
      "hit": false,
      "t": 101096.25,
      "d": 118.75,
      "v": 117
    },
    {
      "midi": 91,
      "hit": false,
      "t": 101100,
      "d": 118.75,
      "v": 109
    },
    {
      "midi": 55,
      "hit": false,
      "t": 101100,
      "d": 133.75,
      "v": 107
    },
    {
      "midi": 78,
      "hit": false,
      "t": 101393.75,
      "d": 81.25,
      "v": 127
    },
    {
      "midi": 90,
      "hit": false,
      "t": 101396.25,
      "d": 78.75,
      "v": 119
    },
    {
      "midi": 54,
      "hit": false,
      "t": 101402.5,
      "d": 62.5,
      "v": 127
    },
    {
      "midi": 47,
      "hit": false,
      "t": 102293.75,
      "d": 371.25,
      "v": 107
    },
    {
      "midi": 71,
      "hit": false,
      "t": 102293.75,
      "d": 393.75,
      "v": 99
    },
    {
      "midi": 83,
      "hit": false,
      "t": 102293.75,
      "d": 393.75,
      "v": 91
    },
    {
      "midi": 47,
      "hit": false,
      "t": 102896.25,
      "d": 303.75,
      "v": 94
    },
    {
      "midi": 71,
      "hit": false,
      "t": 102896.25,
      "d": 303.75,
      "v": 123
    },
    {
      "midi": 83,
      "hit": false,
      "t": 102900,
      "d": 300,
      "v": 115
    },
    {
      "midi": 54,
      "hit": false,
      "t": 103202.5,
      "d": 253.75,
      "v": 127
    },
    {
      "midi": 78,
      "hit": false,
      "t": 103202.5,
      "d": 253.75,
      "v": 127
    },
    {
      "midi": 90,
      "hit": false,
      "t": 103206.25,
      "d": 250,
      "v": 119
    },
    {
      "midi": 79,
      "hit": false,
      "t": 103487.5,
      "d": 277.5,
      "v": 112
    },
    {
      "midi": 91,
      "hit": false,
      "t": 103487.5,
      "d": 277.5,
      "v": 104
    },
    {
      "midi": 55,
      "hit": false,
      "t": 103490,
      "d": 272.5,
      "v": 112
    },
    {
      "midi": 78,
      "hit": false,
      "t": 103787.5,
      "d": 175,
      "v": 127
    },
    {
      "midi": 90,
      "hit": false,
      "t": 103787.5,
      "d": 175,
      "v": 119
    },
    {
      "midi": 54,
      "hit": false,
      "t": 103796.25,
      "d": 137.5,
      "v": 127
    },
    {
      "midi": 47,
      "hit": false,
      "t": 104693.75,
      "d": 77.5,
      "v": 83
    },
    {
      "midi": 71,
      "hit": false,
      "t": 104693.75,
      "d": 100,
      "v": 80
    },
    {
      "midi": 83,
      "hit": false,
      "t": 104696.25,
      "d": 97.5,
      "v": 72
    },
    {
      "midi": 47,
      "hit": false,
      "t": 105287.5,
      "d": 312.5,
      "v": 103
    },
    {
      "midi": 71,
      "hit": false,
      "t": 105287.5,
      "d": 312.5,
      "v": 117
    },
    {
      "midi": 83,
      "hit": false,
      "t": 105287.5,
      "d": 312.5,
      "v": 109
    },
    {
      "midi": 54,
      "hit": false,
      "t": 105593.75,
      "d": 275,
      "v": 127
    },
    {
      "midi": 78,
      "hit": false,
      "t": 105602.5,
      "d": 260,
      "v": 127
    },
    {
      "midi": 90,
      "hit": false,
      "t": 105602.5,
      "d": 260,
      "v": 119
    },
    {
      "midi": 55,
      "hit": false,
      "t": 105890,
      "d": 253.75,
      "v": 107
    },
    {
      "midi": 79,
      "hit": false,
      "t": 105890,
      "d": 256.25,
      "v": 112
    },
    {
      "midi": 91,
      "hit": false,
      "t": 105890,
      "d": 256.25,
      "v": 104
    },
    {
      "midi": 54,
      "hit": false,
      "t": 106196.25,
      "d": 100,
      "v": 127
    },
    {
      "midi": 78,
      "hit": false,
      "t": 106196.25,
      "d": 118.75,
      "v": 127
    },
    {
      "midi": 90,
      "hit": false,
      "t": 106196.25,
      "d": 122.5,
      "v": 119
    },
    {
      "midi": 47,
      "hit": false,
      "t": 107096.25,
      "d": 97.5,
      "v": 87
    },
    {
      "midi": 71,
      "hit": false,
      "t": 107096.25,
      "d": 100,
      "v": 91
    },
    {
      "midi": 83,
      "hit": false,
      "t": 107096.25,
      "d": 100,
      "v": 83
    },
    {
      "midi": 71,
      "hit": false,
      "t": 107700,
      "d": 77.5,
      "v": 94
    },
    {
      "midi": 83,
      "hit": false,
      "t": 107700,
      "d": 77.5,
      "v": 86
    },
    {
      "midi": 47,
      "hit": false,
      "t": 107700,
      "d": 96.25,
      "v": 87
    },
    {
      "midi": 76,
      "hit": false,
      "t": 107996.25,
      "d": 253.75,
      "v": 127
    },
    {
      "midi": 52,
      "hit": false,
      "t": 107996.25,
      "d": 272.5,
      "v": 127
    },
    {
      "midi": 88,
      "hit": false,
      "t": 108000,
      "d": 250,
      "v": 119
    },
    {
      "midi": 78,
      "hit": false,
      "t": 108281.25,
      "d": 352.5,
      "v": 123
    },
    {
      "midi": 90,
      "hit": false,
      "t": 108283.75,
      "d": 353.75,
      "v": 115
    },
    {
      "midi": 54,
      "hit": false,
      "t": 108293.75,
      "d": 271.25,
      "v": 116
    },
    {
      "midi": 76,
      "hit": false,
      "t": 108590,
      "d": 116.25,
      "v": 127
    },
    {
      "midi": 88,
      "hit": false,
      "t": 108590,
      "d": 116.25,
      "v": 119
    },
    {
      "midi": 52,
      "hit": false,
      "t": 108590,
      "d": 135,
      "v": 112
    },
    {
      "midi": 45,
      "hit": false,
      "t": 109477.5,
      "d": 81.25,
      "v": 107
    },
    {
      "midi": 69,
      "hit": false,
      "t": 109477.5,
      "d": 97.5,
      "v": 99
    },
    {
      "midi": 81,
      "hit": false,
      "t": 109477.5,
      "d": 97.5,
      "v": 91
    },
    {
      "midi": 47,
      "hit": false,
      "t": 110081.25,
      "d": 318.75,
      "v": 87
    },
    {
      "midi": 71,
      "hit": false,
      "t": 110093.75,
      "d": 306.25,
      "v": 94
    },
    {
      "midi": 83,
      "hit": false,
      "t": 110093.75,
      "d": 306.25,
      "v": 86
    },
    {
      "midi": 54,
      "hit": false,
      "t": 110387.5,
      "d": 271.25,
      "v": 127
    },
    {
      "midi": 78,
      "hit": false,
      "t": 110387.5,
      "d": 275,
      "v": 127
    },
    {
      "midi": 90,
      "hit": false,
      "t": 110387.5,
      "d": 275,
      "v": 119
    },
    {
      "midi": 79,
      "hit": false,
      "t": 110681.25,
      "d": 352.5,
      "v": 99
    },
    {
      "midi": 55,
      "hit": false,
      "t": 110683.75,
      "d": 291.25,
      "v": 103
    },
    {
      "midi": 91,
      "hit": false,
      "t": 110683.75,
      "d": 353.75,
      "v": 91
    },
    {
      "midi": 54,
      "hit": false,
      "t": 110981.25,
      "d": 175,
      "v": 127
    },
    {
      "midi": 78,
      "hit": false,
      "t": 110990,
      "d": 135,
      "v": 127
    },
    {
      "midi": 90,
      "hit": false,
      "t": 110990,
      "d": 135,
      "v": 119
    },
    {
      "midi": 71,
      "hit": false,
      "t": 111900,
      "d": 100,
      "v": 112
    },
    {
      "midi": 83,
      "hit": false,
      "t": 111900,
      "d": 100,
      "v": 104
    },
    {
      "midi": 47,
      "hit": false,
      "t": 111900,
      "d": 115,
      "v": 103
    },
    {
      "midi": 47,
      "hit": false,
      "t": 112502.5,
      "d": 235,
      "v": 127
    },
    {
      "midi": 71,
      "hit": false,
      "t": 112502.5,
      "d": 272.5,
      "v": 127
    },
    {
      "midi": 83,
      "hit": false,
      "t": 112502.5,
      "d": 272.5,
      "v": 119
    },
    {
      "midi": 54,
      "hit": false,
      "t": 112800,
      "d": 275,
      "v": 127
    },
    {
      "midi": 78,
      "hit": false,
      "t": 112800,
      "d": 308.75,
      "v": 127
    },
    {
      "midi": 90,
      "hit": false,
      "t": 112800,
      "d": 312.5,
      "v": 119
    },
    {
      "midi": 55,
      "hit": false,
      "t": 113087.5,
      "d": 271.25,
      "v": 94
    },
    {
      "midi": 79,
      "hit": false,
      "t": 113087.5,
      "d": 331.25,
      "v": 103
    },
    {
      "midi": 91,
      "hit": false,
      "t": 113087.5,
      "d": 331.25,
      "v": 95
    },
    {
      "midi": 54,
      "hit": false,
      "t": 113390,
      "d": 141.25,
      "v": 127
    },
    {
      "midi": 78,
      "hit": false,
      "t": 113393.75,
      "d": 115,
      "v": 127
    },
    {
      "midi": 90,
      "hit": false,
      "t": 113393.75,
      "d": 118.75,
      "v": 119
    },
    {
      "midi": 71,
      "hit": false,
      "t": 114290,
      "d": 97.5,
      "v": 94
    },
    {
      "midi": 47,
      "hit": false,
      "t": 114290,
      "d": 100,
      "v": 91
    },
    {
      "midi": 83,
      "hit": false,
      "t": 114290,
      "d": 100,
      "v": 86
    },
    {
      "midi": 47,
      "hit": false,
      "t": 114893.75,
      "d": 306.25,
      "v": 71
    },
    {
      "midi": 71,
      "hit": false,
      "t": 114893.75,
      "d": 306.25,
      "v": 71
    },
    {
      "midi": 83,
      "hit": false,
      "t": 114893.75,
      "d": 306.25,
      "v": 63
    },
    {
      "midi": 54,
      "hit": false,
      "t": 115190,
      "d": 272.5,
      "v": 127
    },
    {
      "midi": 78,
      "hit": false,
      "t": 115190,
      "d": 291.25,
      "v": 127
    },
    {
      "midi": 90,
      "hit": false,
      "t": 115193.75,
      "d": 290,
      "v": 119
    },
    {
      "midi": 79,
      "hit": false,
      "t": 115487.5,
      "d": 233.75,
      "v": 107
    },
    {
      "midi": 91,
      "hit": false,
      "t": 115487.5,
      "d": 237.5,
      "v": 99
    },
    {
      "midi": 55,
      "hit": false,
      "t": 115487.5,
      "d": 252.5,
      "v": 107
    },
    {
      "midi": 78,
      "hit": false,
      "t": 115781.25,
      "d": 118.75,
      "v": 127
    },
    {
      "midi": 90,
      "hit": false,
      "t": 115783.75,
      "d": 116.25,
      "v": 119
    },
    {
      "midi": 54,
      "hit": false,
      "t": 115790,
      "d": 103.75,
      "v": 127
    },
    {
      "midi": 69,
      "hit": false,
      "t": 116683.75,
      "d": 116.25,
      "v": 107
    },
    {
      "midi": 81,
      "hit": false,
      "t": 116683.75,
      "d": 116.25,
      "v": 99
    },
    {
      "midi": 45,
      "hit": false,
      "t": 116683.75,
      "d": 172.5,
      "v": 103
    },
    {
      "midi": 45,
      "hit": false,
      "t": 117293.75,
      "d": 306.25,
      "v": 103
    },
    {
      "midi": 69,
      "hit": false,
      "t": 117306.25,
      "d": 293.75,
      "v": 87
    },
    {
      "midi": 81,
      "hit": false,
      "t": 117306.25,
      "d": 293.75,
      "v": 79
    },
    {
      "midi": 76,
      "hit": false,
      "t": 117600,
      "d": 256.25,
      "v": 127
    },
    {
      "midi": 52,
      "hit": false,
      "t": 117600,
      "d": 293.75,
      "v": 123
    },
    {
      "midi": 88,
      "hit": false,
      "t": 117602.5,
      "d": 253.75,
      "v": 119
    },
    {
      "midi": 54,
      "hit": false,
      "t": 117887.5,
      "d": 252.5,
      "v": 110
    },
    {
      "midi": 78,
      "hit": false,
      "t": 117887.5,
      "d": 331.25,
      "v": 123
    },
    {
      "midi": 90,
      "hit": false,
      "t": 117887.5,
      "d": 331.25,
      "v": 115
    },
    {
      "midi": 76,
      "hit": false,
      "t": 118183.75,
      "d": 137.5,
      "v": 127
    },
    {
      "midi": 52,
      "hit": false,
      "t": 118183.75,
      "d": 178.75,
      "v": 103
    },
    {
      "midi": 88,
      "hit": false,
      "t": 118187.5,
      "d": 133.75,
      "v": 119
    },
    {
      "midi": 69,
      "hit": false,
      "t": 119083.75,
      "d": 116.25,
      "v": 99
    },
    {
      "midi": 45,
      "hit": false,
      "t": 119083.75,
      "d": 118.75,
      "v": 107
    },
    {
      "midi": 81,
      "hit": false,
      "t": 119087.5,
      "d": 112.5,
      "v": 91
    },
    {
      "midi": 45,
      "hit": false,
      "t": 119677.5,
      "d": 56.25,
      "v": 91
    },
    {
      "midi": 69,
      "hit": false,
      "t": 119677.5,
      "d": 60,
      "v": 83
    },
    {
      "midi": 81,
      "hit": false,
      "t": 119677.5,
      "d": 60,
      "v": 75
    },
    {
      "midi": 48,
      "hit": false,
      "t": 129600,
      "d": 1387.5,
      "v": 113
    },
    {
      "midi": 64,
      "hit": false,
      "t": 129600,
      "d": 1425,
      "v": 102
    },
    {
      "midi": 60,
      "hit": false,
      "t": 129600,
      "d": 1440,
      "v": 102
    },
    {
      "midi": 55,
      "hit": false,
      "t": 129600,
      "d": 1443.75,
      "v": 113
    },
    {
      "midi": 48,
      "hit": false,
      "t": 131102.5,
      "d": 506.25,
      "v": 113
    },
    {
      "midi": 60,
      "hit": false,
      "t": 131102.5,
      "d": 510,
      "v": 113
    },
    {
      "midi": 55,
      "hit": false,
      "t": 131102.5,
      "d": 522.5,
      "v": 107
    },
    {
      "midi": 64,
      "hit": false,
      "t": 131102.5,
      "d": 528.75,
      "v": 107
    },
    {
      "midi": 45,
      "hit": false,
      "t": 131687.5,
      "d": 777.5,
      "v": 97
    },
    {
      "midi": 57,
      "hit": false,
      "t": 131687.5,
      "d": 800,
      "v": 107
    },
    {
      "midi": 61,
      "hit": false,
      "t": 131687.5,
      "d": 812.5,
      "v": 106
    },
    {
      "midi": 52,
      "hit": false,
      "t": 131693.75,
      "d": 783.75,
      "v": 107
    },
    {
      "midi": 52,
      "hit": false,
      "t": 132575,
      "d": 818.75,
      "v": 90
    },
    {
      "midi": 57,
      "hit": false,
      "t": 132575,
      "d": 821.25,
      "v": 88
    },
    {
      "midi": 61,
      "hit": false,
      "t": 132575,
      "d": 821.25,
      "v": 90
    },
    {
      "midi": 45,
      "hit": false,
      "t": 132577.5,
      "d": 812.5,
      "v": 90
    },
    {
      "midi": 57,
      "hit": false,
      "t": 133475,
      "d": 543.75,
      "v": 107
    },
    {
      "midi": 61,
      "hit": false,
      "t": 133481.25,
      "d": 512.5,
      "v": 113
    },
    {
      "midi": 45,
      "hit": false,
      "t": 133483.75,
      "d": 506.25,
      "v": 97
    },
    {
      "midi": 52,
      "hit": false,
      "t": 133483.75,
      "d": 547.5,
      "v": 107
    },
    {
      "midi": 60,
      "hit": false,
      "t": 134087.5,
      "d": 1525,
      "v": 113
    },
    {
      "midi": 55,
      "hit": false,
      "t": 134087.5,
      "d": 1621.25,
      "v": 118
    },
    {
      "midi": 64,
      "hit": false,
      "t": 134087.5,
      "d": 1658.75,
      "v": 107
    },
    {
      "midi": 48,
      "hit": false,
      "t": 134093.75,
      "d": 1606.25,
      "v": 113
    },
    {
      "midi": 55,
      "hit": false,
      "t": 135887.5,
      "d": 290,
      "v": 118
    },
    {
      "midi": 60,
      "hit": false,
      "t": 135887.5,
      "d": 312.5,
      "v": 107
    },
    {
      "midi": 64,
      "hit": false,
      "t": 135887.5,
      "d": 331.25,
      "v": 107
    },
    {
      "midi": 48,
      "hit": false,
      "t": 135893.75,
      "d": 275,
      "v": 113
    },
    {
      "midi": 62,
      "hit": false,
      "t": 136506.25,
      "d": 1081.25,
      "v": 113
    },
    {
      "midi": 57,
      "hit": false,
      "t": 136508.75,
      "d": 662.5,
      "v": 93
    },
    {
      "midi": 38,
      "hit": false,
      "t": 136508.75,
      "d": 1035,
      "v": 102
    },
    {
      "midi": 66,
      "hit": false,
      "t": 136515,
      "d": 1060,
      "v": 120
    },
    {
      "midi": 50,
      "hit": false,
      "t": 136518.75,
      "d": 350,
      "v": 97
    },
    {
      "midi": 50,
      "hit": false,
      "t": 137090,
      "d": 622.5,
      "v": 78
    },
    {
      "midi": 57,
      "hit": false,
      "t": 137387.5,
      "d": 193.75,
      "v": 95
    },
    {
      "midi": 62,
      "hit": false,
      "t": 137693.75,
      "d": 643.75,
      "v": 118
    },
    {
      "midi": 67,
      "hit": false,
      "t": 137693.75,
      "d": 937.5,
      "v": 102
    },
    {
      "midi": 57,
      "hit": false,
      "t": 137702.5,
      "d": 447.5,
      "v": 113
    },
    {
      "midi": 38,
      "hit": false,
      "t": 137702.5,
      "d": 1016.25,
      "v": 118
    },
    {
      "midi": 50,
      "hit": false,
      "t": 138008.75,
      "d": 762.5,
      "v": 79
    },
    {
      "midi": 57,
      "hit": false,
      "t": 138296.25,
      "d": 410,
      "v": 95
    },
    {
      "midi": 62,
      "hit": false,
      "t": 138593.75,
      "d": 93.75,
      "v": 113
    },
    {
      "midi": 57,
      "hit": false,
      "t": 138890,
      "d": 1060,
      "v": 97
    },
    {
      "midi": 38,
      "hit": false,
      "t": 138900,
      "d": 1050,
      "v": 107
    },
    {
      "midi": 50,
      "hit": false,
      "t": 138900,
      "d": 1050,
      "v": 113
    },
    {
      "midi": 60,
      "hit": false,
      "t": 138900,
      "d": 1056.25,
      "v": 89
    },
    {
      "midi": 66,
      "hit": false,
      "t": 138900,
      "d": 1056.25,
      "v": 100
    },
    {
      "midi": 71,
      "hit": false,
      "t": 150883.75,
      "d": 312.5,
      "v": 113
    },
    {
      "midi": 83,
      "hit": false,
      "t": 150883.75,
      "d": 328.75,
      "v": 113
    },
    {
      "midi": 47,
      "hit": false,
      "t": 150883.75,
      "d": 331.25,
      "v": 102
    },
    {
      "midi": 78,
      "hit": false,
      "t": 151200,
      "d": 296.25,
      "v": 127
    },
    {
      "midi": 54,
      "hit": false,
      "t": 151202.5,
      "d": 272.5,
      "v": 127
    },
    {
      "midi": 90,
      "hit": false,
      "t": 151202.5,
      "d": 293.75,
      "v": 119
    },
    {
      "midi": 79,
      "hit": false,
      "t": 151496.25,
      "d": 118.75,
      "v": 117
    },
    {
      "midi": 91,
      "hit": false,
      "t": 151500,
      "d": 118.75,
      "v": 109
    },
    {
      "midi": 55,
      "hit": false,
      "t": 151500,
      "d": 133.75,
      "v": 107
    },
    {
      "midi": 78,
      "hit": false,
      "t": 151793.75,
      "d": 81.25,
      "v": 127
    },
    {
      "midi": 90,
      "hit": false,
      "t": 151796.25,
      "d": 78.75,
      "v": 119
    },
    {
      "midi": 54,
      "hit": false,
      "t": 151802.5,
      "d": 62.5,
      "v": 127
    },
    {
      "midi": 47,
      "hit": false,
      "t": 152693.75,
      "d": 371.25,
      "v": 107
    },
    {
      "midi": 71,
      "hit": false,
      "t": 152693.75,
      "d": 393.75,
      "v": 99
    },
    {
      "midi": 83,
      "hit": false,
      "t": 152693.75,
      "d": 393.75,
      "v": 91
    },
    {
      "midi": 47,
      "hit": false,
      "t": 153296.25,
      "d": 303.75,
      "v": 94
    },
    {
      "midi": 71,
      "hit": false,
      "t": 153296.25,
      "d": 303.75,
      "v": 123
    },
    {
      "midi": 83,
      "hit": false,
      "t": 153300,
      "d": 300,
      "v": 115
    },
    {
      "midi": 54,
      "hit": false,
      "t": 153602.5,
      "d": 253.75,
      "v": 127
    },
    {
      "midi": 78,
      "hit": false,
      "t": 153602.5,
      "d": 253.75,
      "v": 127
    },
    {
      "midi": 90,
      "hit": false,
      "t": 153606.25,
      "d": 250,
      "v": 119
    },
    {
      "midi": 79,
      "hit": false,
      "t": 153887.5,
      "d": 277.5,
      "v": 112
    },
    {
      "midi": 91,
      "hit": false,
      "t": 153887.5,
      "d": 277.5,
      "v": 104
    },
    {
      "midi": 55,
      "hit": false,
      "t": 153890,
      "d": 272.5,
      "v": 112
    },
    {
      "midi": 78,
      "hit": false,
      "t": 154187.5,
      "d": 175,
      "v": 127
    },
    {
      "midi": 90,
      "hit": false,
      "t": 154187.5,
      "d": 175,
      "v": 119
    },
    {
      "midi": 54,
      "hit": false,
      "t": 154196.25,
      "d": 137.5,
      "v": 127
    },
    {
      "midi": 47,
      "hit": false,
      "t": 155093.75,
      "d": 77.5,
      "v": 83
    },
    {
      "midi": 71,
      "hit": false,
      "t": 155093.75,
      "d": 100,
      "v": 80
    },
    {
      "midi": 83,
      "hit": false,
      "t": 155096.25,
      "d": 97.5,
      "v": 72
    },
    {
      "midi": 47,
      "hit": false,
      "t": 155687.5,
      "d": 312.5,
      "v": 103
    },
    {
      "midi": 71,
      "hit": false,
      "t": 155687.5,
      "d": 312.5,
      "v": 117
    },
    {
      "midi": 83,
      "hit": false,
      "t": 155687.5,
      "d": 312.5,
      "v": 109
    },
    {
      "midi": 54,
      "hit": false,
      "t": 155993.75,
      "d": 275,
      "v": 127
    },
    {
      "midi": 78,
      "hit": false,
      "t": 156002.5,
      "d": 260,
      "v": 127
    },
    {
      "midi": 90,
      "hit": false,
      "t": 156002.5,
      "d": 260,
      "v": 119
    },
    {
      "midi": 55,
      "hit": false,
      "t": 156290,
      "d": 253.75,
      "v": 107
    },
    {
      "midi": 79,
      "hit": false,
      "t": 156290,
      "d": 256.25,
      "v": 112
    },
    {
      "midi": 91,
      "hit": false,
      "t": 156290,
      "d": 256.25,
      "v": 104
    },
    {
      "midi": 54,
      "hit": false,
      "t": 156596.25,
      "d": 100,
      "v": 127
    },
    {
      "midi": 78,
      "hit": false,
      "t": 156596.25,
      "d": 118.75,
      "v": 127
    },
    {
      "midi": 90,
      "hit": false,
      "t": 156596.25,
      "d": 122.5,
      "v": 119
    },
    {
      "midi": 47,
      "hit": false,
      "t": 157496.25,
      "d": 97.5,
      "v": 87
    },
    {
      "midi": 71,
      "hit": false,
      "t": 157496.25,
      "d": 100,
      "v": 91
    },
    {
      "midi": 83,
      "hit": false,
      "t": 157496.25,
      "d": 100,
      "v": 83
    },
    {
      "midi": 71,
      "hit": false,
      "t": 158100,
      "d": 77.5,
      "v": 94
    },
    {
      "midi": 83,
      "hit": false,
      "t": 158100,
      "d": 77.5,
      "v": 86
    },
    {
      "midi": 47,
      "hit": false,
      "t": 158100,
      "d": 96.25,
      "v": 87
    },
    {
      "midi": 76,
      "hit": false,
      "t": 158396.25,
      "d": 253.75,
      "v": 127
    },
    {
      "midi": 52,
      "hit": false,
      "t": 158396.25,
      "d": 272.5,
      "v": 127
    },
    {
      "midi": 88,
      "hit": false,
      "t": 158400,
      "d": 250,
      "v": 119
    },
    {
      "midi": 78,
      "hit": false,
      "t": 158681.25,
      "d": 352.5,
      "v": 123
    },
    {
      "midi": 90,
      "hit": false,
      "t": 158683.75,
      "d": 353.75,
      "v": 115
    },
    {
      "midi": 54,
      "hit": false,
      "t": 158693.75,
      "d": 271.25,
      "v": 116
    },
    {
      "midi": 76,
      "hit": false,
      "t": 158990,
      "d": 116.25,
      "v": 127
    },
    {
      "midi": 88,
      "hit": false,
      "t": 158990,
      "d": 116.25,
      "v": 119
    },
    {
      "midi": 52,
      "hit": false,
      "t": 158990,
      "d": 135,
      "v": 112
    },
    {
      "midi": 45,
      "hit": false,
      "t": 159877.5,
      "d": 81.25,
      "v": 107
    },
    {
      "midi": 69,
      "hit": false,
      "t": 159877.5,
      "d": 97.5,
      "v": 99
    },
    {
      "midi": 81,
      "hit": false,
      "t": 159877.5,
      "d": 97.5,
      "v": 91
    },
    {
      "midi": 47,
      "hit": false,
      "t": 160481.25,
      "d": 318.75,
      "v": 87
    },
    {
      "midi": 71,
      "hit": false,
      "t": 160493.75,
      "d": 306.25,
      "v": 94
    },
    {
      "midi": 83,
      "hit": false,
      "t": 160493.75,
      "d": 306.25,
      "v": 86
    },
    {
      "midi": 54,
      "hit": false,
      "t": 160787.5,
      "d": 271.25,
      "v": 127
    },
    {
      "midi": 78,
      "hit": false,
      "t": 160787.5,
      "d": 275,
      "v": 127
    },
    {
      "midi": 90,
      "hit": false,
      "t": 160787.5,
      "d": 275,
      "v": 119
    },
    {
      "midi": 79,
      "hit": false,
      "t": 161081.25,
      "d": 352.5,
      "v": 99
    },
    {
      "midi": 55,
      "hit": false,
      "t": 161083.75,
      "d": 291.25,
      "v": 103
    },
    {
      "midi": 91,
      "hit": false,
      "t": 161083.75,
      "d": 353.75,
      "v": 91
    },
    {
      "midi": 54,
      "hit": false,
      "t": 161381.25,
      "d": 175,
      "v": 127
    },
    {
      "midi": 78,
      "hit": false,
      "t": 161390,
      "d": 135,
      "v": 127
    },
    {
      "midi": 90,
      "hit": false,
      "t": 161390,
      "d": 135,
      "v": 119
    },
    {
      "midi": 71,
      "hit": false,
      "t": 162300,
      "d": 100,
      "v": 112
    },
    {
      "midi": 83,
      "hit": false,
      "t": 162300,
      "d": 100,
      "v": 104
    },
    {
      "midi": 47,
      "hit": false,
      "t": 162300,
      "d": 115,
      "v": 103
    },
    {
      "midi": 47,
      "hit": false,
      "t": 162902.5,
      "d": 235,
      "v": 127
    },
    {
      "midi": 71,
      "hit": false,
      "t": 162902.5,
      "d": 272.5,
      "v": 127
    },
    {
      "midi": 83,
      "hit": false,
      "t": 162902.5,
      "d": 272.5,
      "v": 119
    },
    {
      "midi": 54,
      "hit": false,
      "t": 163200,
      "d": 275,
      "v": 127
    },
    {
      "midi": 78,
      "hit": false,
      "t": 163200,
      "d": 308.75,
      "v": 127
    },
    {
      "midi": 90,
      "hit": false,
      "t": 163200,
      "d": 312.5,
      "v": 119
    },
    {
      "midi": 55,
      "hit": false,
      "t": 163487.5,
      "d": 271.25,
      "v": 94
    },
    {
      "midi": 79,
      "hit": false,
      "t": 163487.5,
      "d": 331.25,
      "v": 103
    },
    {
      "midi": 91,
      "hit": false,
      "t": 163487.5,
      "d": 331.25,
      "v": 95
    },
    {
      "midi": 54,
      "hit": false,
      "t": 163790,
      "d": 141.25,
      "v": 127
    },
    {
      "midi": 78,
      "hit": false,
      "t": 163793.75,
      "d": 115,
      "v": 127
    },
    {
      "midi": 90,
      "hit": false,
      "t": 163793.75,
      "d": 118.75,
      "v": 119
    },
    {
      "midi": 71,
      "hit": false,
      "t": 164690,
      "d": 97.5,
      "v": 94
    },
    {
      "midi": 47,
      "hit": false,
      "t": 164690,
      "d": 100,
      "v": 91
    },
    {
      "midi": 83,
      "hit": false,
      "t": 164690,
      "d": 100,
      "v": 86
    },
    {
      "midi": 47,
      "hit": false,
      "t": 165293.75,
      "d": 306.25,
      "v": 71
    },
    {
      "midi": 71,
      "hit": false,
      "t": 165293.75,
      "d": 306.25,
      "v": 71
    },
    {
      "midi": 83,
      "hit": false,
      "t": 165293.75,
      "d": 306.25,
      "v": 63
    },
    {
      "midi": 54,
      "hit": false,
      "t": 165590,
      "d": 272.5,
      "v": 127
    },
    {
      "midi": 78,
      "hit": false,
      "t": 165590,
      "d": 291.25,
      "v": 127
    },
    {
      "midi": 90,
      "hit": false,
      "t": 165593.75,
      "d": 290,
      "v": 119
    },
    {
      "midi": 79,
      "hit": false,
      "t": 165887.5,
      "d": 233.75,
      "v": 107
    },
    {
      "midi": 91,
      "hit": false,
      "t": 165887.5,
      "d": 237.5,
      "v": 99
    },
    {
      "midi": 55,
      "hit": false,
      "t": 165887.5,
      "d": 252.5,
      "v": 107
    },
    {
      "midi": 78,
      "hit": false,
      "t": 166181.25,
      "d": 118.75,
      "v": 127
    },
    {
      "midi": 90,
      "hit": false,
      "t": 166183.75,
      "d": 116.25,
      "v": 119
    },
    {
      "midi": 54,
      "hit": false,
      "t": 166190,
      "d": 103.75,
      "v": 127
    },
    {
      "midi": 69,
      "hit": false,
      "t": 167083.75,
      "d": 116.25,
      "v": 107
    },
    {
      "midi": 81,
      "hit": false,
      "t": 167083.75,
      "d": 116.25,
      "v": 99
    },
    {
      "midi": 45,
      "hit": false,
      "t": 167083.75,
      "d": 172.5,
      "v": 103
    },
    {
      "midi": 45,
      "hit": false,
      "t": 167693.75,
      "d": 306.25,
      "v": 103
    },
    {
      "midi": 69,
      "hit": false,
      "t": 167706.25,
      "d": 293.75,
      "v": 87
    },
    {
      "midi": 81,
      "hit": false,
      "t": 167706.25,
      "d": 293.75,
      "v": 79
    },
    {
      "midi": 76,
      "hit": false,
      "t": 168000,
      "d": 256.25,
      "v": 127
    },
    {
      "midi": 52,
      "hit": false,
      "t": 168000,
      "d": 293.75,
      "v": 123
    },
    {
      "midi": 88,
      "hit": false,
      "t": 168002.5,
      "d": 253.75,
      "v": 119
    },
    {
      "midi": 54,
      "hit": false,
      "t": 168287.5,
      "d": 252.5,
      "v": 110
    },
    {
      "midi": 78,
      "hit": false,
      "t": 168287.5,
      "d": 331.25,
      "v": 123
    },
    {
      "midi": 90,
      "hit": false,
      "t": 168287.5,
      "d": 331.25,
      "v": 115
    },
    {
      "midi": 76,
      "hit": false,
      "t": 168583.75,
      "d": 137.5,
      "v": 127
    },
    {
      "midi": 52,
      "hit": false,
      "t": 168583.75,
      "d": 178.75,
      "v": 103
    },
    {
      "midi": 88,
      "hit": false,
      "t": 168587.5,
      "d": 133.75,
      "v": 119
    },
    {
      "midi": 69,
      "hit": false,
      "t": 169483.75,
      "d": 116.25,
      "v": 99
    },
    {
      "midi": 45,
      "hit": false,
      "t": 169483.75,
      "d": 118.75,
      "v": 107
    },
    {
      "midi": 81,
      "hit": false,
      "t": 169487.5,
      "d": 112.5,
      "v": 91
    },
    {
      "midi": 45,
      "hit": false,
      "t": 170077.5,
      "d": 56.25,
      "v": 91
    },
    {
      "midi": 69,
      "hit": false,
      "t": 170077.5,
      "d": 60,
      "v": 83
    },
    {
      "midi": 81,
      "hit": false,
      "t": 170077.5,
      "d": 60,
      "v": 75
    }
  ]
}