{
  "jsonPath": "Soundtracks/Australian Talent Show/Delta Goodrem/out-of-the-blue.json",
  "path": "Soundtracks\\Australian Talent Show\\Delta Goodrem\\Out Of The Blue.mid",
  "name": "Out Of The Blue",
  "difficulty": "Advanced",
  "bpm": 75,
  "notes": [
    {
      "midi": 61,
      "hit": false,
      "t": 6315.7840000000015,
      "d": 350.3286437500001,
      "v": 86
    },
    {
      "midi": 65,
      "hit": false,
      "t": 6315.7840000000015,
      "d": 356.90758541666673,
      "v": 74
    },
    {
      "midi": 68,
      "hit": false,
      "t": 6315.7840000000015,
      "d": 381.5786166666667,
      "v": 84
    },
    {
      "midi": 61,
      "hit": false,
      "t": 7105.257000000001,
      "d": 228.61822291666704,
      "v": 77
    },
    {
      "midi": 65,
      "hit": false,
      "t": 7105.257000000001,
      "d": 233.55242916666703,
      "v": 70
    },
    {
      "midi": 68,
      "hit": false,
      "t": 7105.257000000001,
      "d": 238.486635416667,
      "v": 80
    },
    {
      "midi": 61,
      "hit": false,
      "t": 7894.730000000001,
      "d": 203.9471916666671,
      "v": 86
    },
    {
      "midi": 68,
      "hit": false,
      "t": 7894.730000000001,
      "d": 220.39454583333372,
      "v": 82
    },
    {
      "midi": 65,
      "hit": false,
      "t": 7894.730000000001,
      "d": 251.64451875000032,
      "v": 72
    },
    {
      "midi": 61,
      "hit": false,
      "t": 8684.203000000001,
      "d": 218.74981041666615,
      "v": 79
    },
    {
      "midi": 68,
      "hit": false,
      "t": 8684.203000000001,
      "d": 236.84189999999944,
      "v": 78
    },
    {
      "midi": 65,
      "hit": false,
      "t": 8684.203000000001,
      "d": 245.06557708333276,
      "v": 74
    },
    {
      "midi": 61,
      "hit": false,
      "t": 9473.676000000001,
      "d": 215.46033958333282,
      "v": 74
    },
    {
      "midi": 68,
      "hit": false,
      "t": 9473.676000000001,
      "d": 231.90769374999945,
      "v": 78
    },
    {
      "midi": 65,
      "hit": false,
      "t": 9473.676000000001,
      "d": 235.19716458333278,
      "v": 70
    },
    {
      "midi": 61,
      "hit": false,
      "t": 10263.149000000001,
      "d": 185.8551020833329,
      "v": 82
    },
    {
      "midi": 65,
      "hit": false,
      "t": 10263.149000000001,
      "d": 189.14457291666622,
      "v": 76
    },
    {
      "midi": 68,
      "hit": false,
      "t": 10263.149000000001,
      "d": 192.43404374999955,
      "v": 78
    },
    {
      "midi": 61,
      "hit": false,
      "t": 11052.622000000001,
      "d": 169.40774791666627,
      "v": 80
    },
    {
      "midi": 65,
      "hit": false,
      "t": 11052.622000000001,
      "d": 189.14457291666622,
      "v": 73
    },
    {
      "midi": 68,
      "hit": false,
      "t": 11052.622000000001,
      "d": 189.14457291666622,
      "v": 77
    },
    {
      "midi": 65,
      "hit": false,
      "t": 11842.095000000001,
      "d": 146.381452083333,
      "v": 76
    },
    {
      "midi": 68,
      "hit": false,
      "t": 11842.095000000001,
      "d": 152.96039374999964,
      "v": 77
    },
    {
      "midi": 61,
      "hit": false,
      "t": 11842.095000000001,
      "d": 157.89459999999963,
      "v": 77
    },
    {
      "midi": 59,
      "hit": false,
      "t": 12631.568000000001,
      "d": 355.26284999999916,
      "v": 86
    },
    {
      "midi": 61,
      "hit": false,
      "t": 12631.568000000001,
      "d": 366.7759979166658,
      "v": 76
    },
    {
      "midi": 66,
      "hit": false,
      "t": 12631.568000000001,
      "d": 398.0259708333324,
      "v": 80
    },
    {
      "midi": 59,
      "hit": false,
      "t": 13421.041000000001,
      "d": 205.59192708333285,
      "v": 82
    },
    {
      "midi": 61,
      "hit": false,
      "t": 13421.041000000001,
      "d": 212.1708687499995,
      "v": 76
    },
    {
      "midi": 66,
      "hit": false,
      "t": 13421.041000000001,
      "d": 222.03928124999948,
      "v": 79
    },
    {
      "midi": 59,
      "hit": false,
      "t": 14210.514000000001,
      "d": 151.31565833333298,
      "v": 79
    },
    {
      "midi": 66,
      "hit": false,
      "t": 14210.514000000001,
      "d": 175.98668958333292,
      "v": 80
    },
    {
      "midi": 61,
      "hit": false,
      "t": 14210.514000000001,
      "d": 185.8551020833329,
      "v": 77
    },
    {
      "midi": 59,
      "hit": false,
      "t": 14999.987000000001,
      "d": 113.48674374999973,
      "v": 84
    },
    {
      "midi": 61,
      "hit": false,
      "t": 14999.987000000001,
      "d": 139.80251041666634,
      "v": 83
    },
    {
      "midi": 66,
      "hit": false,
      "t": 14999.987000000001,
      "d": 172.6972187499996,
      "v": 83
    },
    {
      "midi": 65,
      "hit": false,
      "t": 15789.460000000001,
      "d": 333.88128958333255,
      "v": 78
    },
    {
      "midi": 58,
      "hit": false,
      "t": 15789.460000000001,
      "d": 353.6181145833325,
      "v": 76
    },
    {
      "midi": 61,
      "hit": false,
      "t": 15789.460000000001,
      "d": 366.7759979166658,
      "v": 76
    },
    {
      "midi": 61,
      "hit": false,
      "t": 16578.933,
      "d": 225.3287520833328,
      "v": 74
    },
    {
      "midi": 65,
      "hit": false,
      "t": 16578.933,
      "d": 225.3287520833328,
      "v": 79
    },
    {
      "midi": 58,
      "hit": false,
      "t": 16578.933,
      "d": 243.4208416666661,
      "v": 72
    },
    {
      "midi": 65,
      "hit": false,
      "t": 17368.406,
      "d": 172.6972187499996,
      "v": 78
    },
    {
      "midi": 58,
      "hit": false,
      "t": 17368.406,
      "d": 203.94719166666619,
      "v": 78
    },
    {
      "midi": 61,
      "hit": false,
      "t": 17368.406,
      "d": 210.52613333333284,
      "v": 75
    },
    {
      "midi": 65,
      "hit": false,
      "t": 18157.878999999997,
      "d": 166.11827708333294,
      "v": 68
    },
    {
      "midi": 58,
      "hit": false,
      "t": 18157.878999999997,
      "d": 175.98668958333292,
      "v": 73
    },
    {
      "midi": 61,
      "hit": false,
      "t": 18157.878999999997,
      "d": 180.9208958333329,
      "v": 72
    },
    {
      "midi": 54,
      "hit": false,
      "t": 18947.351999999995,
      "d": 391.44702916666574,
      "v": 74
    },
    {
      "midi": 61,
      "hit": false,
      "t": 18947.351999999995,
      "d": 430.92067916666565,
      "v": 84
    },
    {
      "midi": 58,
      "hit": false,
      "t": 18947.351999999995,
      "d": 442.4338270833323,
      "v": 73
    },
    {
      "midi": 54,
      "hit": false,
      "t": 19736.824999999993,
      "d": 154.6051291666663,
      "v": 70
    },
    {
      "midi": 61,
      "hit": false,
      "t": 19736.824999999993,
      "d": 184.21036666666623,
      "v": 80
    },
    {
      "midi": 58,
      "hit": false,
      "t": 19736.824999999993,
      "d": 197.36824999999953,
      "v": 66
    },
    {
      "midi": 56,
      "hit": false,
      "t": 20526.29799999999,
      "d": 411.1838541666657,
      "v": 76
    },
    {
      "midi": 63,
      "hit": false,
      "t": 20526.29799999999,
      "d": 414.473324999999,
      "v": 78
    },
    {
      "midi": 61,
      "hit": false,
      "t": 20526.29799999999,
      "d": 417.76279583333235,
      "v": 72
    },
    {
      "midi": 56,
      "hit": false,
      "t": 21315.77099999999,
      "d": 190.78930833333288,
      "v": 71
    },
    {
      "midi": 63,
      "hit": false,
      "t": 21315.77099999999,
      "d": 208.88139791666617,
      "v": 68
    },
    {
      "midi": 61,
      "hit": false,
      "t": 21315.77099999999,
      "d": 231.90769374999945,
      "v": 70
    },
    {
      "midi": 61,
      "hit": false,
      "t": 22105.243999999988,
      "d": 271.38134374999936,
      "v": 74
    },
    {
      "midi": 65,
      "hit": false,
      "t": 22105.243999999988,
      "d": 439.14435624999896,
      "v": 63
    },
    {
      "midi": 68,
      "hit": false,
      "t": 22105.243999999988,
      "d": 643.0915479166651,
      "v": 78
    },
    {
      "midi": 49,
      "hit": false,
      "t": 22105.243999999988,
      "d": 3166.115677083326,
      "v": 74
    },
    {
      "midi": 61,
      "hit": false,
      "t": 22499.980499999987,
      "d": 633.2231354166652,
      "v": 77
    },
    {
      "midi": 65,
      "hit": false,
      "t": 22894.716999999986,
      "d": 481.9074770833322,
      "v": 68
    },
    {
      "midi": 68,
      "hit": false,
      "t": 22894.716999999986,
      "d": 546.052158333332,
      "v": 78
    },
    {
      "midi": 61,
      "hit": false,
      "t": 23289.453499999985,
      "d": 590.4600145833319,
      "v": 77
    },
    {
      "midi": 65,
      "hit": false,
      "t": 23684.189999999984,
      "d": 508.2232437499988,
      "v": 70
    },
    {
      "midi": 68,
      "hit": false,
      "t": 23684.189999999984,
      "d": 526.3153333333321,
      "v": 80
    },
    {
      "midi": 61,
      "hit": false,
      "t": 24078.926499999983,
      "d": 557.5653062499987,
      "v": 68
    },
    {
      "midi": 65,
      "hit": false,
      "t": 24473.662999999982,
      "d": 371.7102041666658,
      "v": 70
    },
    {
      "midi": 68,
      "hit": false,
      "t": 24473.662999999982,
      "d": 419.407531249999,
      "v": 87
    },
    {
      "midi": 61,
      "hit": false,
      "t": 24868.39949999998,
      "d": 60.85521041666652,
      "v": 63
    },
    {
      "midi": 59,
      "hit": false,
      "t": 25263.13599999998,
      "d": 277.960285416666,
      "v": 76
    },
    {
      "midi": 66,
      "hit": false,
      "t": 25263.13599999998,
      "d": 499.9995666666655,
      "v": 78
    },
    {
      "midi": 61,
      "hit": false,
      "t": 25263.13599999998,
      "d": 511.5127145833321,
      "v": 70
    },
    {
      "midi": 47,
      "hit": false,
      "t": 25263.13599999998,
      "d": 3197.3656499999925,
      "v": 74
    },
    {
      "midi": 59,
      "hit": false,
      "t": 25657.87249999998,
      "d": 611.8415749999986,
      "v": 74
    },
    {
      "midi": 68,
      "hit": false,
      "t": 26052.60899999998,
      "d": 429.275943749999,
      "v": 77
    },
    {
      "midi": 66,
      "hit": false,
      "t": 26052.60899999998,
      "d": 430.92067916666565,
      "v": 70
    },
    {
      "midi": 61,
      "hit": false,
      "t": 26052.60899999998,
      "d": 481.9074770833322,
      "v": 63
    },
    {
      "midi": 59,
      "hit": false,
      "t": 26447.345499999978,
      "d": 554.2758354166654,
      "v": 70
    },
    {
      "midi": 66,
      "hit": false,
      "t": 26842.081999999977,
      "d": 424.341737499999,
      "v": 79
    },
    {
      "midi": 61,
      "hit": false,
      "t": 26842.081999999977,
      "d": 508.2232437499988,
      "v": 72
    },
    {
      "midi": 59,
      "hit": false,
      "t": 27236.818499999976,
      "d": 539.4732166666654,
      "v": 83
    },
    {
      "midi": 66,
      "hit": false,
      "t": 27631.554999999975,
      "d": 376.6444104166658,
      "v": 83
    },
    {
      "midi": 61,
      "hit": false,
      "t": 27631.554999999975,
      "d": 480.26274166666553,
      "v": 80
    },
    {
      "midi": 59,
      "hit": false,
      "t": 28026.291499999974,
      "d": 49.342062499999884,
      "v": 63
    },
    {
      "midi": 58,
      "hit": false,
      "t": 28421.027999999973,
      "d": 273.026079166666,
      "v": 74
    },
    {
      "midi": 65,
      "hit": false,
      "t": 28421.027999999973,
      "d": 412.82858958333236,
      "v": 71
    },
    {
      "midi": 61,
      "hit": false,
      "t": 28421.027999999973,
      "d": 472.0390645833322,
      "v": 66
    },
    {
      "midi": 46,
      "hit": false,
      "t": 28421.027999999973,
      "d": 3082.234170833326,
      "v": 71
    },
    {
      "midi": 58,
      "hit": false,
      "t": 28815.764499999972,
      "d": 587.1705437499986,
      "v": 68
    },
    {
      "midi": 65,
      "hit": false,
      "t": 29210.50099999997,
      "d": 455.5917104166656,
      "v": 83
    },
    {
      "midi": 61,
      "hit": false,
      "t": 29210.50099999997,
      "d": 504.9337729166655,
      "v": 79
    },
    {
      "midi": 58,
      "hit": false,
      "t": 29605.23749999997,
      "d": 600.3284270833319,
      "v": 71
    },
    {
      "midi": 65,
      "hit": false,
      "t": 29999.97399999997,
      "d": 419.407531249999,
      "v": 77
    },
    {
      "midi": 61,
      "hit": false,
      "t": 29999.97399999997,
      "d": 478.61800624999887,
      "v": 79
    },
    {
      "midi": 58,
      "hit": false,
      "t": 30394.71049999997,
      "d": 562.4995124999987,
      "v": 71
    },
    {
      "midi": 65,
      "hit": false,
      "t": 30789.446999999967,
      "d": 374.9996749999991,
      "v": 78
    },
    {
      "midi": 61,
      "hit": false,
      "t": 30789.446999999967,
      "d": 393.0917645833324,
      "v": 80
    },
    {
      "midi": 58,
      "hit": false,
      "t": 31184.183499999966,
      "d": 90.46044791666645,
      "v": 63
    },
    {
      "midi": 54,
      "hit": false,
      "t": 31578.919999999966,
      "d": 324.01287708333257,
      "v": 79
    },
    {
      "midi": 58,
      "hit": false,
      "t": 31578.919999999966,
      "d": 416.1180604166657,
      "v": 72
    },
    {
      "midi": 61,
      "hit": false,
      "t": 31578.919999999966,
      "d": 592.1047499999986,
      "v": 84
    },
    {
      "midi": 42,
      "hit": false,
      "t": 31578.919999999966,
      "d": 1340.4593645833338,
      "v": 80
    },
    {
      "midi": 54,
      "hit": false,
      "t": 31973.656499999965,
      "d": 547.6968937499987,
      "v": 63
    },
    {
      "midi": 56,
      "hit": false,
      "t": 32368.392999999964,
      "d": 378.28914583333244,
      "v": 68
    },
    {
      "midi": 61,
      "hit": false,
      "t": 32368.392999999964,
      "d": 394.73649999999907,
      "v": 86
    },
    {
      "midi": 58,
      "hit": false,
      "t": 32368.392999999964,
      "d": 440.78909166666926,
      "v": 71
    },
    {
      "midi": 54,
      "hit": false,
      "t": 32763.129499999963,
      "d": 74.01309375000346,
      "v": 63
    },
    {
      "midi": 56,
      "hit": false,
      "t": 33157.865999999965,
      "d": 638.1573416666652,
      "v": 71
    },
    {
      "midi": 61,
      "hit": false,
      "t": 33157.865999999965,
      "d": 675.9862562499984,
      "v": 75
    },
    {
      "midi": 63,
      "hit": false,
      "t": 33157.865999999965,
      "d": 692.433610416665,
      "v": 75
    },
    {
      "midi": 44,
      "hit": false,
      "t": 33157.865999999965,
      "d": 746.7098791666649,
      "v": 75
    },
    {
      "midi": 57,
      "hit": false,
      "t": 34736.81199999996,
      "d": 248.35504791666608,
      "v": 116
    },
    {
      "midi": 61,
      "hit": false,
      "t": 34736.81199999996,
      "d": 588.8152791666653,
      "v": 96
    },
    {
      "midi": 64,
      "hit": false,
      "t": 34736.81199999996,
      "d": 592.1047499999986,
      "v": 101
    },
    {
      "midi": 33,
      "hit": false,
      "t": 34736.81199999996,
      "d": 2717.102908333327,
      "v": 91
    },
    {
      "midi": 45,
      "hit": false,
      "t": 34736.81199999996,
      "d": 2796.0502083333267,
      "v": 106
    },
    {
      "midi": 57,
      "hit": false,
      "t": 35131.54849999996,
      "d": 620.0652520833319,
      "v": 77
    },
    {
      "midi": 64,
      "hit": false,
      "t": 35526.28499999996,
      "d": 493.42062499999884,
      "v": 106
    },
    {
      "midi": 61,
      "hit": false,
      "t": 35526.28499999996,
      "d": 603.6178979166652,
      "v": 113
    },
    {
      "midi": 57,
      "hit": false,
      "t": 35921.02149999996,
      "d": 613.4863104166652,
      "v": 91
    },
    {
      "midi": 64,
      "hit": false,
      "t": 36315.75799999996,
      "d": 467.10485833333223,
      "v": 101
    },
    {
      "midi": 61,
      "hit": false,
      "t": 36315.75799999996,
      "d": 580.591602083332,
      "v": 86
    },
    {
      "midi": 57,
      "hit": false,
      "t": 36710.49449999996,
      "d": 641.4468124999985,
      "v": 99
    },
    {
      "midi": 64,
      "hit": false,
      "t": 37105.230999999956,
      "d": 358.5523208333325,
      "v": 113
    },
    {
      "midi": 61,
      "hit": false,
      "t": 37105.230999999956,
      "d": 437.4996208333323,
      "v": 106
    },
    {
      "midi": 57,
      "hit": false,
      "t": 37499.967499999955,
      "d": 108.55253749999974,
      "v": 88
    },
    {
      "midi": 56,
      "hit": false,
      "t": 37894.703999999954,
      "d": 259.8681958333327,
      "v": 115
    },
    {
      "midi": 61,
      "hit": false,
      "t": 37894.703999999954,
      "d": 444.07856249999895,
      "v": 86
    },
    {
      "midi": 64,
      "hit": false,
      "t": 37894.703999999954,
      "d": 449.01276874999894,
      "v": 79
    },
    {
      "midi": 68,
      "hit": false,
      "t": 37894.703999999954,
      "d": 501.64430208333215,
      "v": 95
    },
    {
      "midi": 32,
      "hit": false,
      "t": 37894.703999999954,
      "d": 2700.6555541666603,
      "v": 86
    },
    {
      "midi": 44,
      "hit": false,
      "t": 37894.703999999954,
      "d": 2702.300289583327,
      "v": 101
    },
    {
      "midi": 56,
      "hit": false,
      "t": 38289.44049999995,
      "d": 597.0389562499986,
      "v": 86
    },
    {
      "midi": 61,
      "hit": false,
      "t": 38684.17699999995,
      "d": 452.30223958333227,
      "v": 86
    },
    {
      "midi": 64,
      "hit": false,
      "t": 38684.17699999995,
      "d": 465.46012291666557,
      "v": 84
    },
    {
      "midi": 68,
      "hit": false,
      "t": 38684.17699999995,
      "d": 488.48641874999885,
      "v": 103
    },
    {
      "midi": 56,
      "hit": false,
      "t": 39078.91349999995,
      "d": 605.2626333333319,
      "v": 92
    },
    {
      "midi": 64,
      "hit": false,
      "t": 39473.64999999995,
      "d": 445.7232979166656,
      "v": 77
    },
    {
      "midi": 61,
      "hit": false,
      "t": 39473.64999999995,
      "d": 452.30223958333227,
      "v": 80
    },
    {
      "midi": 68,
      "hit": false,
      "t": 39473.64999999995,
      "d": 521.3811270833321,
      "v": 94
    },
    {
      "midi": 56,
      "hit": false,
      "t": 39868.38649999995,
      "d": 587.1705437499986,
      "v": 94
    },
    {
      "midi": 64,
      "hit": false,
      "t": 40263.12299999995,
      "d": 366.7759979166658,
      "v": 79
    },
    {
      "midi": 68,
      "hit": false,
      "t": 40263.12299999995,
      "d": 401.3154416666657,
      "v": 95
    },
    {
      "midi": 61,
      "hit": false,
      "t": 40263.12299999995,
      "d": 406.2496479166657,
      "v": 82
    },
    {
      "midi": 56,
      "hit": false,
      "t": 40657.85949999995,
      "d": 136.513039583333,
      "v": 71
    },
    {
      "midi": 57,
      "hit": false,
      "t": 41052.59599999995,
      "d": 402.9601770833324,
      "v": 99
    },
    {
      "midi": 66,
      "hit": false,
      "t": 41052.59599999995,
      "d": 407.89438333333237,
      "v": 96
    },
    {
      "midi": 61,
      "hit": false,
      "t": 41052.59599999995,
      "d": 458.8811812499989,
      "v": 88
    },
    {
      "midi": 30,
      "hit": false,
      "t": 41052.59599999995,
      "d": 2437.4978874999942,
      "v": 94
    },
    {
      "midi": 42,
      "hit": false,
      "t": 41052.59599999995,
      "d": 2570.721456249994,
      "v": 108
    },
    {
      "midi": 54,
      "hit": false,
      "t": 41447.332499999946,
      "d": 335.5260249999992,
      "v": 66
    },
    {
      "midi": 57,
      "hit": false,
      "t": 41842.068999999945,
      "d": 212.1708687499995,
      "v": 97
    },
    {
      "midi": 61,
      "hit": false,
      "t": 41842.068999999945,
      "d": 345.3944374999992,
      "v": 91
    },
    {
      "midi": 66,
      "hit": false,
      "t": 41842.068999999945,
      "d": 600.3284270833319,
      "v": 94
    },
    {
      "midi": 57,
      "hit": false,
      "t": 42236.805499999944,
      "d": 342.10496666666586,
      "v": 88
    },
    {
      "midi": 61,
      "hit": false,
      "t": 42631.54199999994,
      "d": 195.72351458333287,
      "v": 86
    },
    {
      "midi": 57,
      "hit": false,
      "t": 42631.54199999994,
      "d": 205.59192708333285,
      "v": 63
    },
    {
      "midi": 66,
      "hit": false,
      "t": 42631.54199999994,
      "d": 620.0652520833319,
      "v": 103
    },
    {
      "midi": 62,
      "hit": false,
      "t": 43026.27849999994,
      "d": 425.98647291666566,
      "v": 106
    },
    {
      "midi": 57,
      "hit": false,
      "t": 43421.01499999994,
      "d": 222.03928124999948,
      "v": 109
    },
    {
      "midi": 64,
      "hit": false,
      "t": 43421.01499999994,
      "d": 452.30223958333227,
      "v": 91
    },
    {
      "midi": 66,
      "hit": false,
      "t": 43421.01499999994,
      "d": 536.1837458333321,
      "v": 105
    },
    {
      "midi": 57,
      "hit": false,
      "t": 43815.75149999994,
      "d": 42.76312083333323,
      "v": 63
    },
    {
      "midi": 57,
      "hit": false,
      "t": 44210.48799999994,
      "d": 264.8024020833327,
      "v": 111
    },
    {
      "midi": 62,
      "hit": false,
      "t": 44210.48799999994,
      "d": 401.3154416666657,
      "v": 96
    },
    {
      "midi": 66,
      "hit": false,
      "t": 44210.48799999994,
      "d": 544.4074229166654,
      "v": 97
    },
    {
      "midi": 50,
      "hit": false,
      "t": 44210.48799999994,
      "d": 940.7886583333311,
      "v": 112
    },
    {
      "midi": 38,
      "hit": false,
      "t": 44210.48799999994,
      "d": 978.6175729166644,
      "v": 94
    },
    {
      "midi": 57,
      "hit": false,
      "t": 44605.22449999994,
      "d": 570.723189583332,
      "v": 76
    },
    {
      "midi": 66,
      "hit": false,
      "t": 44999.96099999994,
      "d": 366.7759979166658,
      "v": 103
    },
    {
      "midi": 62,
      "hit": false,
      "t": 44999.96099999994,
      "d": 439.14435624999896,
      "v": 94
    },
    {
      "midi": 57,
      "hit": false,
      "t": 45394.69749999994,
      "d": 134.86830416666635,
      "v": 70
    },
    {
      "midi": 57,
      "hit": false,
      "t": 45789.433999999936,
      "d": 231.90769374999945,
      "v": 109
    },
    {
      "midi": 64,
      "hit": false,
      "t": 45789.433999999936,
      "d": 473.6837999999989,
      "v": 109
    },
    {
      "midi": 62,
      "hit": false,
      "t": 45789.433999999936,
      "d": 509.86797916666546,
      "v": 94
    },
    {
      "midi": 28,
      "hit": false,
      "t": 45789.433999999936,
      "d": 661.1836374999984,
      "v": 92
    },
    {
      "midi": 40,
      "hit": false,
      "t": 45789.433999999936,
      "d": 860.1966229166646,
      "v": 86
    },
    {
      "midi": 57,
      "hit": false,
      "t": 46184.170499999935,
      "d": 598.6836916666653,
      "v": 91
    },
    {
      "midi": 64,
      "hit": false,
      "t": 46578.906999999934,
      "d": 421.0522666666657,
      "v": 109
    },
    {
      "midi": 62,
      "hit": false,
      "t": 46578.906999999934,
      "d": 457.23644583333225,
      "v": 95
    },
    {
      "midi": 57,
      "hit": false,
      "t": 46973.64349999993,
      "d": 129.93409791666636,
      "v": 74
    },
    {
      "midi": 57,
      "hit": false,
      "t": 47368.37999999993,
      "d": 254.93398958333273,
      "v": 111
    },
    {
      "midi": 61,
      "hit": false,
      "t": 47368.37999999993,
      "d": 519.7363916666654,
      "v": 113
    },
    {
      "midi": 64,
      "hit": false,
      "t": 47368.37999999993,
      "d": 549.3416291666654,
      "v": 106
    },
    {
      "midi": 33,
      "hit": false,
      "t": 47368.37999999993,
      "d": 2478.616272916661,
      "v": 91
    },
    {
      "midi": 45,
      "hit": false,
      "t": 47368.37999999993,
      "d": 2564.1425145833273,
      "v": 112
    },
    {
      "midi": 57,
      "hit": false,
      "t": 47763.11649999993,
      "d": 593.7494854166653,
      "v": 86
    },
    {
      "midi": 64,
      "hit": false,
      "t": 48157.85299999993,
      "d": 521.3811270833321,
      "v": 106
    },
    {
      "midi": 61,
      "hit": false,
      "t": 48157.85299999993,
      "d": 539.4732166666654,
      "v": 112
    },
    {
      "midi": 57,
      "hit": false,
      "t": 48552.58949999993,
      "d": 610.1968395833319,
      "v": 91
    },
    {
      "midi": 61,
      "hit": false,
      "t": 48947.32599999993,
      "d": 536.1837458333321,
      "v": 105
    },
    {
      "midi": 64,
      "hit": false,
      "t": 48947.32599999993,
      "d": 615.1310458333319,
      "v": 105
    },
    {
      "midi": 57,
      "hit": false,
      "t": 49342.06249999993,
      "d": 611.8415749999986,
      "v": 82
    },
    {
      "midi": 64,
      "hit": false,
      "t": 49736.798999999926,
      "d": 297.69711041666596,
      "v": 113
    },
    {
      "midi": 61,
      "hit": false,
      "t": 49736.798999999926,
      "d": 427.6312083333323,
      "v": 95
    },
    {
      "midi": 57,
      "hit": false,
      "t": 50131.535499999925,
      "d": 95.39465416666644,
      "v": 77
    },
    {
      "midi": 56,
      "hit": false,
      "t": 50526.271999999924,
      "d": 274.6708145833327,
      "v": 116
    },
    {
      "midi": 61,
      "hit": false,
      "t": 50526.271999999924,
      "d": 440.7890916666656,
      "v": 86
    },
    {
      "midi": 64,
      "hit": false,
      "t": 50526.271999999924,
      "d": 455.5917104166656,
      "v": 79
    },
    {
      "midi": 68,
      "hit": false,
      "t": 50526.271999999924,
      "d": 532.8942749999987,
      "v": 94
    },
    {
      "midi": 49,
      "hit": false,
      "t": 50526.271999999924,
      "d": 2320.721672916661,
      "v": 105
    },
    {
      "midi": 37,
      "hit": false,
      "t": 50526.271999999924,
      "d": 2383.2216187499944,
      "v": 86
    },
    {
      "midi": 56,
      "hit": false,
      "t": 50921.00849999992,
      "d": 588.8152791666653,
      "v": 83
    },
    {
      "midi": 64,
      "hit": false,
      "t": 51315.74499999992,
      "d": 458.8811812499989,
      "v": 79
    },
    {
      "midi": 61,
      "hit": false,
      "t": 51315.74499999992,
      "d": 467.10485833333223,
      "v": 91
    },
    {
      "midi": 68,
      "hit": false,
      "t": 51315.74499999992,
      "d": 493.42062499999884,
      "v": 97
    },
    {
      "midi": 56,
      "hit": false,
      "t": 51710.48149999992,
      "d": 593.7494854166653,
      "v": 88
    },
    {
      "midi": 61,
      "hit": false,
      "t": 52105.21799999992,
      "d": 467.10485833333223,
      "v": 83
    },
    {
      "midi": 64,
      "hit": false,
      "t": 52105.21799999992,
      "d": 478.61800624999887,
      "v": 79
    },
    {
      "midi": 68,
      "hit": false,
      "t": 52105.21799999992,
      "d": 509.86797916666546,
      "v": 95
    },
    {
      "midi": 56,
      "hit": false,
      "t": 52499.95449999992,
      "d": 569.0784541666653,
      "v": 71
    },
    {
      "midi": 64,
      "hit": false,
      "t": 52894.69099999992,
      "d": 465.46012291666557,
      "v": 80
    },
    {
      "midi": 61,
      "hit": false,
      "t": 52894.69099999992,
      "d": 472.0390645833322,
      "v": 87
    },
    {
      "midi": 68,
      "hit": false,
      "t": 52894.69099999992,
      "d": 495.0653604166655,
      "v": 95
    },
    {
      "midi": 56,
      "hit": false,
      "t": 53289.42749999992,
      "d": 205.59192708333285,
      "v": 63
    },
    {
      "midi": 69,
      "hit": false,
      "t": 53684.16399999992,
      "d": 529.6048041666654,
      "v": 99
    },
    {
      "midi": 61,
      "hit": false,
      "t": 53684.16399999992,
      "d": 583.8810729166653,
      "v": 104
    },
    {
      "midi": 30,
      "hit": false,
      "t": 53684.16399999992,
      "d": 633.2231354166652,
      "v": 101
    },
    {
      "midi": 66,
      "hit": false,
      "t": 53684.16399999992,
      "d": 636.5126062499985,
      "v": 84
    },
    {
      "midi": 42,
      "hit": false,
      "t": 53684.16399999992,
      "d": 922.6965687499978,
      "v": 111
    },
    {
      "midi": 57,
      "hit": false,
      "t": 54078.900499999916,
      "d": 516.4469208333321,
      "v": 94
    },
    {
      "midi": 61,
      "hit": false,
      "t": 54473.636999999915,
      "d": 439.14435624999896,
      "v": 105
    },
    {
      "midi": 66,
      "hit": false,
      "t": 54473.636999999915,
      "d": 457.23644583333225,
      "v": 91
    },
    {
      "midi": 69,
      "hit": false,
      "t": 54473.636999999915,
      "d": 458.8811812499989,
      "v": 99
    },
    {
      "midi": 57,
      "hit": false,
      "t": 54868.373499999914,
      "d": 641.4468124999985,
      "v": 76
    },
    {
      "midi": 66,
      "hit": false,
      "t": 55263.10999999991,
      "d": 427.6312083333323,
      "v": 79
    },
    {
      "midi": 61,
      "hit": false,
      "t": 55263.10999999991,
      "d": 478.61800624999887,
      "v": 101
    },
    {
      "midi": 69,
      "hit": false,
      "t": 55263.10999999991,
      "d": 491.7758895833322,
      "v": 92
    },
    {
      "midi": 40,
      "hit": false,
      "t": 55263.10999999991,
      "d": 702.302022916665,
      "v": 91
    },
    {
      "midi": 52,
      "hit": false,
      "t": 55263.10999999991,
      "d": 702.302022916665,
      "v": 115
    },
    {
      "midi": 57,
      "hit": false,
      "t": 55657.84649999991,
      "d": 555.920570833332,
      "v": 84
    },
    {
      "midi": 64,
      "hit": false,
      "t": 56052.58299999991,
      "d": 399.67070624999906,
      "v": 83
    },
    {
      "midi": 61,
      "hit": false,
      "t": 56052.58299999991,
      "d": 444.07856249999895,
      "v": 91
    },
    {
      "midi": 69,
      "hit": false,
      "t": 56052.58299999991,
      "d": 447.3680333333323,
      "v": 88
    },
    {
      "midi": 66,
      "hit": false,
      "t": 56052.58299999991,
      "d": 468.7495937499989,
      "v": 79
    },
    {
      "midi": 57,
      "hit": false,
      "t": 56447.31949999991,
      "d": 67.43415208333317,
      "v": 77
    },
    {
      "midi": 59,
      "hit": false,
      "t": 56842.05599999991,
      "d": 274.6708145833327,
      "v": 109
    },
    {
      "midi": 64,
      "hit": false,
      "t": 56842.05599999991,
      "d": 578.9468666666653,
      "v": 97
    },
    {
      "midi": 66,
      "hit": false,
      "t": 56842.05599999991,
      "d": 611.8415749999986,
      "v": 84
    },
    {
      "midi": 71,
      "hit": false,
      "t": 56842.05599999991,
      "d": 633.2231354166652,
      "v": 94
    },
    {
      "midi": 35,
      "hit": false,
      "t": 56842.05599999991,
      "d": 2659.5371687499937,
      "v": 91
    },
    {
      "midi": 47,
      "hit": false,
      "t": 56842.05599999991,
      "d": 2705.5897604166603,
      "v": 112
    },
    {
      "midi": 59,
      "hit": false,
      "t": 57236.79249999991,
      "d": 611.8415749999986,
      "v": 86
    },
    {
      "midi": 64,
      "hit": false,
      "t": 57631.52899999991,
      "d": 476.9732708333322,
      "v": 92
    },
    {
      "midi": 66,
      "hit": false,
      "t": 57631.52899999991,
      "d": 542.7626874999987,
      "v": 79
    },
    {
      "midi": 71,
      "hit": false,
      "t": 57631.52899999991,
      "d": 702.302022916665,
      "v": 101
    },
    {
      "midi": 59,
      "hit": false,
      "t": 58026.26549999991,
      "d": 644.7362833333318,
      "v": 115
    },
    {
      "midi": 63,
      "hit": false,
      "t": 58421.001999999906,
      "d": 572.3679249999986,
      "v": 101
    },
    {
      "midi": 66,
      "hit": false,
      "t": 58421.001999999906,
      "d": 613.4863104166652,
      "v": 96
    },
    {
      "midi": 71,
      "hit": false,
      "t": 58421.001999999906,
      "d": 615.1310458333319,
      "v": 105
    },
    {
      "midi": 59,
      "hit": false,
      "t": 58815.738499999905,
      "d": 624.9994583333319,
      "v": 113
    },
    {
      "midi": 71,
      "hit": false,
      "t": 59210.474999999904,
      "d": 421.0522666666657,
      "v": 111
    },
    {
      "midi": 66,
      "hit": false,
      "t": 59210.474999999904,
      "d": 452.30223958333227,
      "v": 95
    },
    {
      "midi": 63,
      "hit": false,
      "t": 59210.474999999904,
      "d": 476.9732708333322,
      "v": 104
    },
    {
      "midi": 59,
      "hit": false,
      "t": 59605.2114999999,
      "d": 175.98668958333292,
      "v": 113
    },
    {
      "midi": 59,
      "hit": false,
      "t": 59999.9479999999,
      "d": 249.99978333333274,
      "v": 115
    },
    {
      "midi": 64,
      "hit": false,
      "t": 59999.9479999999,
      "d": 430.92067916666565,
      "v": 104
    },
    {
      "midi": 66,
      "hit": false,
      "t": 59999.9479999999,
      "d": 467.10485833333223,
      "v": 87
    },
    {
      "midi": 71,
      "hit": false,
      "t": 59999.9479999999,
      "d": 519.7363916666654,
      "v": 101
    },
    {
      "midi": 35,
      "hit": false,
      "t": 59999.9479999999,
      "d": 2300.9848479166612,
      "v": 91
    },
    {
      "midi": 47,
      "hit": false,
      "t": 59999.9479999999,
      "d": 2491.774156249994,
      "v": 111
    },
    {
      "midi": 59,
      "hit": false,
      "t": 60394.6844999999,
      "d": 636.5126062499985,
      "v": 104
    },
    {
      "midi": 64,
      "hit": false,
      "t": 60789.4209999999,
      "d": 447.3680333333323,
      "v": 106
    },
    {
      "midi": 66,
      "hit": false,
      "t": 60789.4209999999,
      "d": 501.64430208333215,
      "v": 96
    },
    {
      "midi": 71,
      "hit": false,
      "t": 60789.4209999999,
      "d": 547.6968937499987,
      "v": 103
    },
    {
      "midi": 59,
      "hit": false,
      "t": 61184.1574999999,
      "d": 651.3152249999985,
      "v": 91
    },
    {
      "midi": 63,
      "hit": false,
      "t": 61578.8939999999,
      "d": 557.5653062499987,
      "v": 104
    },
    {
      "midi": 66,
      "hit": false,
      "t": 61578.8939999999,
      "d": 580.591602083332,
      "v": 97
    },
    {
      "midi": 71,
      "hit": false,
      "t": 61578.8939999999,
      "d": 595.3942208333319,
      "v": 99
    },
    {
      "midi": 59,
      "hit": false,
      "t": 61973.6304999999,
      "d": 550.986364583332,
      "v": 82
    },
    {
      "midi": 71,
      "hit": false,
      "t": 62368.3669999999,
      "d": 203.94719166666619,
      "v": 88
    },
    {
      "midi": 63,
      "hit": false,
      "t": 62368.3669999999,
      "d": 223.68401666666614,
      "v": 87
    },
    {
      "midi": 66,
      "hit": false,
      "t": 62368.3669999999,
      "d": 246.71031249999942,
      "v": 91
    },
    {
      "midi": 59,
      "hit": false,
      "t": 63157.839999999895,
      "d": 643.0915479166651,
      "v": 79
    },
    {
      "midi": 64,
      "hit": false,
      "t": 63157.839999999895,
      "d": 731.9072604166649,
      "v": 79
    },
    {
      "midi": 68,
      "hit": false,
      "t": 63157.839999999895,
      "d": 738.4862020833316,
      "v": 84
    },
    {
      "midi": 52,
      "hit": false,
      "t": 63157.839999999895,
      "d": 837.1703270833314,
      "v": 78
    },
    {
      "midi": 66,
      "hit": false,
      "t": 64736.78599999989,
      "d": 439.14435624999896,
      "v": 77
    },
    {
      "midi": 50,
      "hit": false,
      "t": 64736.78599999989,
      "d": 1662.8275062500034,
      "v": 86
    },
    {
      "midi": 68,
      "hit": false,
      "t": 65131.52249999989,
      "d": 421.0522666666657,
      "v": 79
    },
    {
      "midi": 71,
      "hit": false,
      "t": 65526.25899999989,
      "d": 411.1838541666657,
      "v": 78
    },
    {
      "midi": 64,
      "hit": false,
      "t": 65920.99549999989,
      "d": 1143.091114583338,
      "v": 80
    },
    {
      "midi": 49,
      "hit": false,
      "t": 66315.73199999989,
      "d": 1521.3802604166704,
      "v": 72
    },
    {
      "midi": 62,
      "hit": false,
      "t": 67894.6779999999,
      "d": 427.6312083333469,
      "v": 84
    },
    {
      "midi": 47,
      "hit": false,
      "t": 67894.6779999999,
      "d": 590.4600145833538,
      "v": 76
    },
    {
      "midi": 64,
      "hit": false,
      "t": 68289.41449999991,
      "d": 363.48652708333975,
      "v": 79
    },
    {
      "midi": 62,
      "hit": false,
      "t": 68684.15099999993,
      "d": 115.1314791666664,
      "v": 78
    },
    {
      "midi": 61,
      "hit": false,
      "t": 69078.88749999992,
      "d": 871.7097708333749,
      "v": 96
    },
    {
      "midi": 54,
      "hit": false,
      "t": 69473.62399999994,
      "d": 225.32875208334008,
      "v": 63
    },
    {
      "midi": 42,
      "hit": false,
      "t": 69473.62399999994,
      "d": 226.97348750001402,
      "v": 65
    },
    {
      "midi": 58,
      "hit": false,
      "t": 69473.62399999994,
      "d": 230.26295833334734,
      "v": 63
    },
    {
      "midi": 30,
      "hit": false,
      "t": 69473.62399999994,
      "d": 259.8681958333618,
      "v": 65
    },
    {
      "midi": 54,
      "hit": false,
      "t": 69868.36049999997,
      "d": 115.1314791666664,
      "v": 63
    },
    {
      "midi": 42,
      "hit": false,
      "t": 69868.36049999997,
      "d": 123.35515625000698,
      "v": 63
    },
    {
      "midi": 58,
      "hit": false,
      "t": 69868.36049999997,
      "d": 131.57883333334757,
      "v": 63
    },
    {
      "midi": 30,
      "hit": false,
      "t": 69868.36049999997,
      "d": 161.1840708333475,
      "v": 63
    },
    {
      "midi": 58,
      "hit": false,
      "t": 70263.09699999998,
      "d": 124.99989166666637,
      "v": 63
    },
    {
      "midi": 54,
      "hit": false,
      "t": 70263.09699999998,
      "d": 131.57883333333302,
      "v": 63
    },
    {
      "midi": 42,
      "hit": false,
      "t": 70263.09699999998,
      "d": 151.31565833333298,
      "v": 63
    },
    {
      "midi": 61,
      "hit": false,
      "t": 70263.09699999998,
      "d": 171.05248333333293,
      "v": 66
    },
    {
      "midi": 30,
      "hit": false,
      "t": 70263.09699999998,
      "d": 187.49983749999956,
      "v": 63
    },
    {
      "midi": 54,
      "hit": false,
      "t": 70657.83349999998,
      "d": 108.55253749999974,
      "v": 68
    },
    {
      "midi": 58,
      "hit": false,
      "t": 70657.83349999998,
      "d": 121.71042083333305,
      "v": 70
    },
    {
      "midi": 42,
      "hit": false,
      "t": 70657.83349999998,
      "d": 133.22356875000696,
      "v": 63
    },
    {
      "midi": 61,
      "hit": false,
      "t": 70657.83349999998,
      "d": 146.38145208334026,
      "v": 75
    },
    {
      "midi": 30,
      "hit": false,
      "t": 70657.83349999998,
      "d": 167.76301250001416,
      "v": 63
    },
    {
      "midi": 54,
      "hit": false,
      "t": 71052.56999999999,
      "d": 116.77621458334033,
      "v": 70
    },
    {
      "midi": 58,
      "hit": false,
      "t": 71052.56999999999,
      "d": 136.5130395833403,
      "v": 70
    },
    {
      "midi": 61,
      "hit": false,
      "t": 71052.56999999999,
      "d": 148.0261875000142,
      "v": 71
    },
    {
      "midi": 42,
      "hit": false,
      "t": 71052.56999999999,
      "d": 154.60512916668085,
      "v": 74
    },
    {
      "midi": 30,
      "hit": false,
      "t": 71052.56999999999,
      "d": 172.69721875002142,
      "v": 70
    },
    {
      "midi": 58,
      "hit": false,
      "t": 71447.30650000002,
      "d": 126.64462708334031,
      "v": 70
    },
    {
      "midi": 54,
      "hit": false,
      "t": 71447.30650000002,
      "d": 128.28936250001425,
      "v": 71
    },
    {
      "midi": 42,
      "hit": false,
      "t": 71447.30650000002,
      "d": 152.96039375002147,
      "v": 74
    },
    {
      "midi": 61,
      "hit": false,
      "t": 71447.30650000002,
      "d": 152.96039375002147,
      "v": 78
    },
    {
      "midi": 30,
      "hit": false,
      "t": 71447.30650000002,
      "d": 180.920895833362,
      "v": 70
    },
    {
      "midi": 54,
      "hit": false,
      "t": 71842.04300000005,
      "d": 138.15777499999967,
      "v": 77
    },
    {
      "midi": 58,
      "hit": false,
      "t": 71842.04300000005,
      "d": 148.02618749999965,
      "v": 74
    },
    {
      "midi": 61,
      "hit": false,
      "t": 71842.04300000005,
      "d": 162.8288062500069,
      "v": 86
    },
    {
      "midi": 42,
      "hit": false,
      "t": 71842.04300000005,
      "d": 167.76301250001416,
      "v": 83
    },
    {
      "midi": 30,
      "hit": false,
      "t": 71842.04300000005,
      "d": 194.07877916668076,
      "v": 72
    },
    {
      "midi": 58,
      "hit": false,
      "t": 72236.77950000006,
      "d": 134.86830416666635,
      "v": 76
    },
    {
      "midi": 54,
      "hit": false,
      "t": 72236.77950000006,
      "d": 144.73671666666633,
      "v": 79
    },
    {
      "midi": 61,
      "hit": false,
      "t": 72236.77950000006,
      "d": 169.40774791667354,
      "v": 84
    },
    {
      "midi": 42,
      "hit": false,
      "t": 72236.77950000006,
      "d": 171.05248333334748,
      "v": 91
    },
    {
      "midi": 30,
      "hit": false,
      "t": 72236.77950000006,
      "d": 185.85510208335472,
      "v": 76
    },
    {
      "midi": 54,
      "hit": false,
      "t": 72631.51600000009,
      "d": 157.89459999999963,
      "v": 86
    },
    {
      "midi": 42,
      "hit": false,
      "t": 72631.51600000009,
      "d": 174.34195416666626,
      "v": 95
    },
    {
      "midi": 61,
      "hit": false,
      "t": 72631.51600000009,
      "d": 175.9866895833402,
      "v": 91
    },
    {
      "midi": 58,
      "hit": false,
      "t": 72631.51600000009,
      "d": 179.27616041667352,
      "v": 77
    },
    {
      "midi": 30,
      "hit": false,
      "t": 72631.51600000009,
      "d": 190.78930833334744,
      "v": 76
    },
    {
      "midi": 54,
      "hit": false,
      "t": 73026.2525000001,
      "d": 162.8288062500069,
      "v": 99
    },
    {
      "midi": 61,
      "hit": false,
      "t": 73026.2525000001,
      "d": 175.9866895833402,
      "v": 91
    },
    {
      "midi": 42,
      "hit": false,
      "t": 73026.2525000001,
      "d": 185.85510208334017,
      "v": 101
    },
    {
      "midi": 58,
      "hit": false,
      "t": 73026.2525000001,
      "d": 187.4998375000141,
      "v": 92
    },
    {
      "midi": 30,
      "hit": false,
      "t": 73026.2525000001,
      "d": 205.59192708335468,
      "v": 84
    },
    {
      "midi": 54,
      "hit": false,
      "t": 73420.98900000013,
      "d": 166.11827708334022,
      "v": 104
    },
    {
      "midi": 42,
      "hit": false,
      "t": 73420.98900000013,
      "d": 187.4998375000141,
      "v": 106
    },
    {
      "midi": 30,
      "hit": false,
      "t": 73420.98900000013,
      "d": 212.17086875002133,
      "v": 86
    },
    {
      "midi": 61,
      "hit": false,
      "t": 73420.98900000013,
      "d": 212.17086875002133,
      "v": 92
    },
    {
      "midi": 58,
      "hit": false,
      "t": 73420.98900000013,
      "d": 223.68401666669524,
      "v": 99
    },
    {
      "midi": 54,
      "hit": false,
      "t": 73815.72550000016,
      "d": 167.7630124999996,
      "v": 106
    },
    {
      "midi": 58,
      "hit": false,
      "t": 73815.72550000016,
      "d": 175.9866895833402,
      "v": 97
    },
    {
      "midi": 42,
      "hit": false,
      "t": 73815.72550000016,
      "d": 182.56563125000685,
      "v": 108
    },
    {
      "midi": 61,
      "hit": false,
      "t": 73815.72550000016,
      "d": 207.23666250001406,
      "v": 92
    },
    {
      "midi": 30,
      "hit": false,
      "t": 73815.72550000016,
      "d": 208.881397916688,
      "v": 95
    },
    {
      "midi": 54,
      "hit": false,
      "t": 74210.46200000019,
      "d": 174.34195416666626,
      "v": 106
    },
    {
      "midi": 58,
      "hit": false,
      "t": 74210.46200000019,
      "d": 185.85510208334017,
      "v": 99
    },
    {
      "midi": 42,
      "hit": false,
      "t": 74210.46200000019,
      "d": 192.43404375000682,
      "v": 111
    },
    {
      "midi": 61,
      "hit": false,
      "t": 74210.46200000019,
      "d": 202.3024562500068,
      "v": 99
    },
    {
      "midi": 30,
      "hit": false,
      "t": 74210.46200000019,
      "d": 215.4603395833401,
      "v": 95
    },
    {
      "midi": 54,
      "hit": false,
      "t": 74605.1985000002,
      "d": 164.47354166666628,
      "v": 115
    },
    {
      "midi": 58,
      "hit": false,
      "t": 74605.1985000002,
      "d": 171.05248333333293,
      "v": 96
    },
    {
      "midi": 42,
      "hit": false,
      "t": 74605.1985000002,
      "d": 177.63142499999958,
      "v": 113
    },
    {
      "midi": 30,
      "hit": false,
      "t": 74605.1985000002,
      "d": 185.85510208334017,
      "v": 91
    },
    {
      "midi": 61,
      "hit": false,
      "t": 74605.1985000002,
      "d": 190.78930833334744,
      "v": 112
    },
    {
      "midi": 54,
      "hit": false,
      "t": 74999.93500000022,
      "d": 177.63142499999958,
      "v": 113
    },
    {
      "midi": 42,
      "hit": false,
      "t": 74999.93500000022,
      "d": 195.72351458334015,
      "v": 113
    },
    {
      "midi": 58,
      "hit": false,
      "t": 74999.93500000022,
      "d": 199.01298541667347,
      "v": 105
    },
    {
      "midi": 61,
      "hit": false,
      "t": 74999.93500000022,
      "d": 199.01298541667347,
      "v": 112
    },
    {
      "midi": 30,
      "hit": false,
      "t": 74999.93500000022,
      "d": 213.8156041666807,
      "v": 99
    },
    {
      "midi": 54,
      "hit": false,
      "t": 75394.67150000023,
      "d": 205.59192708334012,
      "v": 116
    },
    {
      "midi": 42,
      "hit": false,
      "t": 75394.67150000023,
      "d": 213.8156041666807,
      "v": 114
    },
    {
      "midi": 61,
      "hit": false,
      "t": 75394.67150000023,
      "d": 215.46033958335465,
      "v": 113
    },
    {
      "midi": 58,
      "hit": false,
      "t": 75394.67150000023,
      "d": 225.32875208335463,
      "v": 105
    },
    {
      "midi": 30,
      "hit": false,
      "t": 75394.67150000023,
      "d": 245.06557708335458,
      "v": 94
    },
    {
      "midi": 61,
      "hit": false,
      "t": 75789.40800000026,
      "d": 277.9602854166733,
      "v": 116
    },
    {
      "midi": 54,
      "hit": false,
      "t": 75789.40800000026,
      "d": 286.1839625000139,
      "v": 113
    },
    {
      "midi": 66,
      "hit": false,
      "t": 75789.40800000026,
      "d": 481.9074770833686,
      "v": 101
    },
    {
      "midi": 70,
      "hit": false,
      "t": 75789.40800000026,
      "d": 518.0916562500352,
      "v": 111
    },
    {
      "midi": 42,
      "hit": false,
      "t": 75789.40800000026,
      "d": 1299.3409791667218,
      "v": 91
    },
    {
      "midi": 61,
      "hit": false,
      "t": 76184.14450000029,
      "d": 162.8288062500069,
      "v": 71
    },
    {
      "midi": 54,
      "hit": false,
      "t": 76184.14450000029,
      "d": 592.1047500000132,
      "v": 95
    },
    {
      "midi": 61,
      "hit": false,
      "t": 76578.8810000003,
      "d": 226.97348749999946,
      "v": 116
    },
    {
      "midi": 66,
      "hit": false,
      "t": 76578.8810000003,
      "d": 345.3944374999992,
      "v": 99
    },
    {
      "midi": 70,
      "hit": false,
      "t": 76578.8810000003,
      "d": 468.74959375000617,
      "v": 101
    },
    {
      "midi": 61,
      "hit": false,
      "t": 76973.6175000003,
      "d": 54.27626875000715,
      "v": 63
    },
    {
      "midi": 54,
      "hit": false,
      "t": 76973.6175000003,
      "d": 210.5261333333474,
      "v": 78
    },
    {
      "midi": 61,
      "hit": false,
      "t": 77170.98575000031,
      "d": 416.11806041667296,
      "v": 115
    },
    {
      "midi": 66,
      "hit": false,
      "t": 77170.98575000031,
      "d": 662.8283729166869,
      "v": 95
    },
    {
      "midi": 70,
      "hit": false,
      "t": 77170.98575000031,
      "d": 687.4994041666941,
      "v": 101
    },
    {
      "midi": 54,
      "hit": false,
      "t": 77368.35400000031,
      "d": 299.3418458333472,
      "v": 116
    },
    {
      "midi": 42,
      "hit": false,
      "t": 77368.35400000031,
      "d": 1171.051616666722,
      "v": 86
    },
    {
      "midi": 61,
      "hit": false,
      "t": 77763.09050000033,
      "d": 152.96039375002147,
      "v": 80
    },
    {
      "midi": 54,
      "hit": false,
      "t": 77763.09050000033,
      "d": 796.0519416667084,
      "v": 79
    },
    {
      "midi": 61,
      "hit": false,
      "t": 78157.82700000035,
      "d": 248.35504791667336,
      "v": 116
    },
    {
      "midi": 66,
      "hit": false,
      "t": 78157.82700000035,
      "d": 404.6049125000136,
      "v": 97
    },
    {
      "midi": 70,
      "hit": false,
      "t": 78157.82700000035,
      "d": 429.2759437500208,
      "v": 109
    },
    {
      "midi": 61,
      "hit": false,
      "t": 78552.56350000037,
      "d": 105.26306666668097,
      "v": 66
    },
    {
      "midi": 54,
      "hit": false,
      "t": 78947.30000000038,
      "d": 286.1839624999993,
      "v": 113
    },
    {
      "midi": 61,
      "hit": false,
      "t": 78947.30000000038,
      "d": 307.5655229166732,
      "v": 116
    },
    {
      "midi": 65,
      "hit": false,
      "t": 78947.30000000038,
      "d": 449.01276875002077,
      "v": 97
    },
    {
      "midi": 70,
      "hit": false,
      "t": 78947.30000000038,
      "d": 486.8416833333613,
      "v": 95
    },
    {
      "midi": 42,
      "hit": false,
      "t": 78947.30000000038,
      "d": 1213.8147375000553,
      "v": 87
    },
    {
      "midi": 61,
      "hit": false,
      "t": 79342.0365000004,
      "d": 146.38145208335482,
      "v": 78
    },
    {
      "midi": 54,
      "hit": false,
      "t": 79342.0365000004,
      "d": 639.8020770833682,
      "v": 101
    },
    {
      "midi": 61,
      "hit": false,
      "t": 79736.77300000042,
      "d": 249.9997833333473,
      "v": 116
    },
    {
      "midi": 65,
      "hit": false,
      "t": 79736.77300000042,
      "d": 407.8943833333469,
      "v": 101
    },
    {
      "midi": 70,
      "hit": false,
      "t": 79736.77300000042,
      "d": 486.84168333334674,
      "v": 99
    },
    {
      "midi": 54,
      "hit": false,
      "t": 80131.50950000044,
      "d": 215.4603395833401,
      "v": 76
    },
    {
      "midi": 61,
      "hit": false,
      "t": 80328.87775000044,
      "d": 430.9206791666802,
      "v": 115
    },
    {
      "midi": 65,
      "hit": false,
      "t": 80328.87775000044,
      "d": 616.7757812500349,
      "v": 91
    },
    {
      "midi": 70,
      "hit": false,
      "t": 80328.87775000044,
      "d": 662.8283729167015,
      "v": 94
    },
    {
      "midi": 54,
      "hit": false,
      "t": 80526.24600000045,
      "d": 254.93398958334,
      "v": 115
    },
    {
      "midi": 42,
      "hit": false,
      "t": 80526.24600000045,
      "d": 1113.485877083367,
      "v": 86
    },
    {
      "midi": 61,
      "hit": false,
      "t": 80920.98250000046,
      "d": 144.73671666668088,
      "v": 78
    },
    {
      "midi": 54,
      "hit": false,
      "t": 80920.98250000046,
      "d": 745.0651437500201,
      "v": 99
    },
    {
      "midi": 61,
      "hit": false,
      "t": 81315.71900000048,
      "d": 240.13137083333277,
      "v": 116
    },
    {
      "midi": 65,
      "hit": false,
      "t": 81315.71900000048,
      "d": 406.24964791668754,
      "v": 88
    },
    {
      "midi": 70,
      "hit": false,
      "t": 81315.71900000048,
      "d": 458.88118125002075,
      "v": 97
    },
    {
      "midi": 61,
      "hit": false,
      "t": 81710.45550000049,
      "d": 100.3288604166737,
      "v": 77
    },
    {
      "midi": 61,
      "hit": false,
      "t": 82105.1920000005,
      "d": 261.51293125000666,
      "v": 115
    },
    {
      "midi": 54,
      "hit": false,
      "t": 82105.1920000005,
      "d": 284.53922708333994,
      "v": 116
    },
    {
      "midi": 64,
      "hit": false,
      "t": 82105.1920000005,
      "d": 414.4733250000136,
      "v": 104
    },
    {
      "midi": 70,
      "hit": false,
      "t": 82105.1920000005,
      "d": 445.72329791668744,
      "v": 94
    },
    {
      "midi": 42,
      "hit": false,
      "t": 82105.1920000005,
      "d": 1286.183095833374,
      "v": 91
    },
    {
      "midi": 61,
      "hit": false,
      "t": 82499.92850000052,
      "d": 110.19727291667368,
      "v": 76
    },
    {
      "midi": 54,
      "hit": false,
      "t": 82499.92850000052,
      "d": 626.6441937500203,
      "v": 94
    },
    {
      "midi": 61,
      "hit": false,
      "t": 82894.66500000053,
      "d": 307.5655229166732,
      "v": 116
    },
    {
      "midi": 64,
      "hit": false,
      "t": 82894.66500000053,
      "d": 325.6576125000138,
      "v": 99
    },
    {
      "midi": 70,
      "hit": false,
      "t": 82894.66500000053,
      "d": 417.7627958333469,
      "v": 96
    },
    {
      "midi": 54,
      "hit": false,
      "t": 83289.40150000055,
      "d": 220.3945458333328,
      "v": 71
    },
    {
      "midi": 61,
      "hit": false,
      "t": 83486.76975000055,
      "d": 388.1575583333324,
      "v": 115
    },
    {
      "midi": 64,
      "hit": false,
      "t": 83486.76975000055,
      "d": 626.6441937500058,
      "v": 96
    },
    {
      "midi": 70,
      "hit": false,
      "t": 83486.76975000055,
      "d": 703.9467583333462,
      "v": 91
    },
    {
      "midi": 54,
      "hit": false,
      "t": 83684.13800000054,
      "d": 266.44713749999937,
      "v": 115
    },
    {
      "midi": 42,
      "hit": false,
      "t": 83684.13800000054,
      "d": 1187.4989708333596,
      "v": 84
    },
    {
      "midi": 61,
      "hit": false,
      "t": 84078.87450000054,
      "d": 138.15777500001423,
      "v": 79
    },
    {
      "midi": 54,
      "hit": false,
      "t": 84078.87450000054,
      "d": 815.7887666667084,
      "v": 94
    },
    {
      "midi": 61,
      "hit": false,
      "t": 84473.61100000056,
      "d": 218.74981041667343,
      "v": 116
    },
    {
      "midi": 64,
      "hit": false,
      "t": 84473.61100000056,
      "d": 406.24964791668754,
      "v": 105
    },
    {
      "midi": 70,
      "hit": false,
      "t": 84473.61100000056,
      "d": 460.5259166666947,
      "v": 96
    },
    {
      "midi": 61,
      "hit": false,
      "t": 84868.34750000057,
      "d": 106.90780208335491,
      "v": 77
    },
    {
      "midi": 54,
      "hit": false,
      "t": 85263.0840000006,
      "d": 249.9997833333473,
      "v": 116
    },
    {
      "midi": 61,
      "hit": false,
      "t": 85263.0840000006,
      "d": 274.6708145833545,
      "v": 116
    },
    {
      "midi": 65,
      "hit": false,
      "t": 85263.0840000006,
      "d": 450.6575041666947,
      "v": 91
    },
    {
      "midi": 70,
      "hit": false,
      "t": 85263.0840000006,
      "d": 554.2758354167017,
      "v": 97
    },
    {
      "midi": 42,
      "hit": false,
      "t": 85263.0840000006,
      "d": 1259.867329166722,
      "v": 92
    },
    {
      "midi": 61,
      "hit": false,
      "t": 85657.82050000063,
      "d": 129.93409791667364,
      "v": 76
    },
    {
      "midi": 54,
      "hit": false,
      "t": 85657.82050000063,
      "d": 600.3284270833537,
      "v": 91
    },
    {
      "midi": 61,
      "hit": false,
      "t": 86052.55700000064,
      "d": 228.6182229166734,
      "v": 116
    },
    {
      "midi": 65,
      "hit": false,
      "t": 86052.55700000064,
      "d": 437.49962083334685,
      "v": 91
    },
    {
      "midi": 70,
      "hit": false,
      "t": 86052.55700000064,
      "d": 621.7099875000276,
      "v": 99
    },
    {
      "midi": 61,
      "hit": false,
      "t": 86447.29350000065,
      "d": 215.4603395833401,
      "v": 72
    },
    {
      "midi": 54,
      "hit": false,
      "t": 86447.29350000065,
      "d": 254.93398958335456,
      "v": 91
    },
    {
      "midi": 65,
      "hit": false,
      "t": 86644.66175000065,
      "d": 101.9735958333622,
      "v": 63
    },
    {
      "midi": 42,
      "hit": false,
      "t": 86644.66175000065,
      "d": 134.86830416669545,
      "v": 63
    },
    {
      "midi": 61,
      "hit": false,
      "t": 86842.03000000068,
      "d": 249.99978333333274,
      "v": 116
    },
    {
      "midi": 54,
      "hit": false,
      "t": 86842.03000000068,
      "d": 277.9602854166733,
      "v": 113
    },
    {
      "midi": 65,
      "hit": false,
      "t": 86842.03000000068,
      "d": 411.18385416668025,
      "v": 88
    },
    {
      "midi": 70,
      "hit": false,
      "t": 86842.03000000068,
      "d": 504.9337729166873,
      "v": 95
    },
    {
      "midi": 42,
      "hit": false,
      "t": 86842.03000000068,
      "d": 972.0386312500341,
      "v": 84
    },
    {
      "midi": 61,
      "hit": false,
      "t": 87236.7665000007,
      "d": 134.8683041666809,
      "v": 65
    },
    {
      "midi": 54,
      "hit": false,
      "t": 87236.7665000007,
      "d": 620.0652520833537,
      "v": 95
    },
    {
      "midi": 61,
      "hit": false,
      "t": 87631.50300000071,
      "d": 226.97348750001402,
      "v": 116
    },
    {
      "midi": 65,
      "hit": false,
      "t": 87631.50300000071,
      "d": 399.6707062500209,
      "v": 91
    },
    {
      "midi": 70,
      "hit": false,
      "t": 87631.50300000071,
      "d": 460.5259166666947,
      "v": 95
    },
    {
      "midi": 61,
      "hit": false,
      "t": 88026.23950000072,
      "d": 103.61833125002158,
      "v": 82
    },
    {
      "midi": 54,
      "hit": false,
      "t": 88420.97600000075,
      "d": 287.82869791667326,
      "v": 111
    },
    {
      "midi": 61,
      "hit": false,
      "t": 88420.97600000075,
      "d": 314.14446458333987,
      "v": 116
    },
    {
      "midi": 66,
      "hit": false,
      "t": 88420.97600000075,
      "d": 481.907477083354,
      "v": 91
    },
    {
      "midi": 70,
      "hit": false,
      "t": 88420.97600000075,
      "d": 524.6705979166873,
      "v": 97
    },
    {
      "midi": 42,
      "hit": false,
      "t": 88420.97600000075,
      "d": 1259.8673291667073,
      "v": 84
    },
    {
      "midi": 61,
      "hit": false,
      "t": 88815.71250000077,
      "d": 131.57883333334757,
      "v": 77
    },
    {
      "midi": 54,
      "hit": false,
      "t": 88815.71250000077,
      "d": 570.7231895833538,
      "v": 86
    },
    {
      "midi": 66,
      "hit": false,
      "t": 89210.44900000078,
      "d": 366.7759979166731,
      "v": 95
    },
    {
      "midi": 61,
      "hit": false,
      "t": 89210.44900000078,
      "d": 407.8943833333469,
      "v": 116
    },
    {
      "midi": 70,
      "hit": false,
      "t": 89210.44900000078,
      "d": 453.9469750000135,
      "v": 99
    },
    {
      "midi": 54,
      "hit": false,
      "t": 89605.18550000079,
      "d": 200.65772083333286,
      "v": 79
    },
    {
      "midi": 61,
      "hit": false,
      "t": 89802.55375000079,
      "d": 388.1575583333324,
      "v": 113
    },
    {
      "midi": 66,
      "hit": false,
      "t": 89802.55375000079,
      "d": 629.9336645833391,
      "v": 95
    },
    {
      "midi": 70,
      "hit": false,
      "t": 89802.55375000079,
      "d": 667.7625791666796,
      "v": 99
    },
    {
      "midi": 54,
      "hit": false,
      "t": 89999.92200000079,
      "d": 279.6050208333327,
      "v": 112
    },
    {
      "midi": 42,
      "hit": false,
      "t": 89999.92200000079,
      "d": 1230.2620916666929,
      "v": 79
    },
    {
      "midi": 61,
      "hit": false,
      "t": 90394.65850000079,
      "d": 136.51303958335484,
      "v": 75
    },
    {
      "midi": 54,
      "hit": false,
      "t": 90394.65850000079,
      "d": 860.196622916701,
      "v": 104
    },
    {
      "midi": 61,
      "hit": false,
      "t": 90789.39500000082,
      "d": 266.44713749999937,
      "v": 116
    },
    {
      "midi": 66,
      "hit": false,
      "t": 90789.39500000082,
      "d": 342.10496666666586,
      "v": 97
    },
    {
      "midi": 70,
      "hit": false,
      "t": 90789.39500000082,
      "d": 445.7232979166729,
      "v": 105
    },
    {
      "midi": 61,
      "hit": false,
      "t": 91184.13150000082,
      "d": 113.48674375000701,
      "v": 82
    },
    {
      "midi": 61,
      "hit": false,
      "t": 91578.86800000083,
      "d": 287.82869791667326,
      "v": 116
    },
    {
      "midi": 54,
      "hit": false,
      "t": 91578.86800000083,
      "d": 291.1181687500066,
      "v": 115
    },
    {
      "midi": 65,
      "hit": false,
      "t": 91578.86800000083,
      "d": 437.49962083334685,
      "v": 91
    },
    {
      "midi": 70,
      "hit": false,
      "t": 91578.86800000083,
      "d": 453.9469750000135,
      "v": 96
    },
    {
      "midi": 42,
      "hit": false,
      "t": 91578.86800000083,
      "d": 1297.6962437500624,
      "v": 86
    },
    {
      "midi": 61,
      "hit": false,
      "t": 91973.60450000085,
      "d": 146.38145208334026,
      "v": 77
    },
    {
      "midi": 54,
      "hit": false,
      "t": 91973.60450000085,
      "d": 636.5126062500203,
      "v": 74
    },
    {
      "midi": 61,
      "hit": false,
      "t": 92368.34100000086,
      "d": 249.9997833333473,
      "v": 116
    },
    {
      "midi": 65,
      "hit": false,
      "t": 92368.34100000086,
      "d": 462.17065208335407,
      "v": 86
    },
    {
      "midi": 70,
      "hit": false,
      "t": 92368.34100000086,
      "d": 467.10485833336134,
      "v": 99
    },
    {
      "midi": 61,
      "hit": false,
      "t": 92763.07750000087,
      "d": 54.27626875000715,
      "v": 63
    },
    {
      "midi": 54,
      "hit": false,
      "t": 92763.07750000087,
      "d": 190.789308333362,
      "v": 78
    },
    {
      "midi": 61,
      "hit": false,
      "t": 92960.4457500009,
      "d": 419.4075312500063,
      "v": 113
    },
    {
      "midi": 65,
      "hit": false,
      "t": 92960.4457500009,
      "d": 628.2889291666797,
      "v": 86
    },
    {
      "midi": 70,
      "hit": false,
      "t": 92960.4457500009,
      "d": 649.6704895833536,
      "v": 96
    },
    {
      "midi": 54,
      "hit": false,
      "t": 93157.8140000009,
      "d": 253.28925416668062,
      "v": 116
    },
    {
      "midi": 42,
      "hit": false,
      "t": 93157.8140000009,
      "d": 1156.2489979167003,
      "v": 88
    },
    {
      "midi": 61,
      "hit": false,
      "t": 93552.55050000091,
      "d": 136.5130395833403,
      "v": 84
    },
    {
      "midi": 54,
      "hit": false,
      "t": 93552.55050000091,
      "d": 740.1309375000128,
      "v": 104
    },
    {
      "midi": 61,
      "hit": false,
      "t": 93947.28700000093,
      "d": 226.97348749999946,
      "v": 116
    },
    {
      "midi": 65,
      "hit": false,
      "t": 93947.28700000093,
      "d": 407.8943833333469,
      "v": 92
    },
    {
      "midi": 70,
      "hit": false,
      "t": 93947.28700000093,
      "d": 437.49962083334685,
      "v": 105
    },
    {
      "midi": 61,
      "hit": false,
      "t": 94342.02350000094,
      "d": 101.97359583333309,
      "v": 87
    },
    {
      "midi": 61,
      "hit": false,
      "t": 94736.76000000094,
      "d": 240.13137083333277,
      "v": 116
    },
    {
      "midi": 54,
      "hit": false,
      "t": 94736.76000000094,
      "d": 276.31554999999935,
      "v": 115
    },
    {
      "midi": 64,
      "hit": false,
      "t": 94736.76000000094,
      "d": 378.289145833347,
      "v": 95
    },
    {
      "midi": 70,
      "hit": false,
      "t": 94736.76000000094,
      "d": 416.1180604166875,
      "v": 96
    },
    {
      "midi": 42,
      "hit": false,
      "t": 94736.76000000094,
      "d": 1289.4725666667073,
      "v": 86
    },
    {
      "midi": 61,
      "hit": false,
      "t": 95131.49650000095,
      "d": 101.97359583334764,
      "v": 83
    },
    {
      "midi": 54,
      "hit": false,
      "t": 95131.49650000095,
      "d": 562.4995125000132,
      "v": 99
    },
    {
      "midi": 61,
      "hit": false,
      "t": 95526.23300000097,
      "d": 218.74981041667343,
      "v": 116
    },
    {
      "midi": 64,
      "hit": false,
      "t": 95526.23300000097,
      "d": 342.1049666666804,
      "v": 109
    },
    {
      "midi": 70,
      "hit": false,
      "t": 95526.23300000097,
      "d": 453.9469750000135,
      "v": 96
    },
    {
      "midi": 54,
      "hit": false,
      "t": 95920.96950000098,
      "d": 203.94719166666619,
      "v": 76
    },
    {
      "midi": 61,
      "hit": false,
      "t": 96118.33775000098,
      "d": 174.34195416666626,
      "v": 116
    },
    {
      "midi": 64,
      "hit": false,
      "t": 96118.33775000098,
      "d": 333.8812895833398,
      "v": 101
    },
    {
      "midi": 70,
      "hit": false,
      "t": 96118.33775000098,
      "d": 666.1178437500203,
      "v": 95
    },
    {
      "midi": 54,
      "hit": false,
      "t": 96315.70600000098,
      "d": 253.28925416668062,
      "v": 113
    },
    {
      "midi": 42,
      "hit": false,
      "t": 96315.70600000098,
      "d": 1169.4068812500336,
      "v": 83
    },
    {
      "midi": 54,
      "hit": false,
      "t": 96710.442500001,
      "d": 708.8809645833535,
      "v": 116
    },
    {
      "midi": 61,
      "hit": false,
      "t": 97105.17900000101,
      "d": 208.88139791667345,
      "v": 116
    },
    {
      "midi": 64,
      "hit": false,
      "t": 97105.17900000101,
      "d": 383.2233520833397,
      "v": 104
    },
    {
      "midi": 70,
      "hit": false,
      "t": 97105.17900000101,
      "d": 432.56541458335414,
      "v": 96
    },
    {
      "midi": 61,
      "hit": false,
      "t": 97499.91550000102,
      "d": 90.46044791667373,
      "v": 65
    },
    {
      "midi": 54,
      "hit": false,
      "t": 97894.65200000104,
      "d": 241.7761062500067,
      "v": 116
    },
    {
      "midi": 61,
      "hit": false,
      "t": 97894.65200000104,
      "d": 245.06557708334003,
      "v": 116
    },
    {
      "midi": 65,
      "hit": false,
      "t": 97894.65200000104,
      "d": 422.69700208335416,
      "v": 88
    },
    {
      "midi": 70,
      "hit": false,
      "t": 97894.65200000104,
      "d": 467.10485833336134,
      "v": 92
    },
    {
      "midi": 42,
      "hit": false,
      "t": 97894.65200000104,
      "d": 1264.8015354167292,
      "v": 80
    },
    {
      "midi": 61,
      "hit": false,
      "t": 98289.38850000105,
      "d": 136.51303958335484,
      "v": 74
    },
    {
      "midi": 54,
      "hit": false,
      "t": 98289.38850000105,
      "d": 552.6311000000278,
      "v": 99
    },
    {
      "midi": 61,
      "hit": false,
      "t": 98684.12500000108,
      "d": 246.71031249999942,
      "v": 116
    },
    {
      "midi": 65,
      "hit": false,
      "t": 98684.12500000108,
      "d": 287.82869791667326,
      "v": 88
    },
    {
      "midi": 70,
      "hit": false,
      "t": 98684.12500000108,
      "d": 355.2628500000137,
      "v": 96
    },
    {
      "midi": 54,
      "hit": false,
      "t": 99078.86150000109,
      "d": 190.78930833334744,
      "v": 77
    },
    {
      "midi": 61,
      "hit": false,
      "t": 99276.2297500011,
      "d": 478.61800625000615,
      "v": 116
    },
    {
      "midi": 65,
      "hit": false,
      "t": 99276.2297500011,
      "d": 674.3415208333608,
      "v": 95
    },
    {
      "midi": 70,
      "hit": false,
      "t": 99276.2297500011,
      "d": 694.0783458333608,
      "v": 96
    },
    {
      "midi": 54,
      "hit": false,
      "t": 99473.5980000011,
      "d": 258.22346041667333,
      "v": 116
    },
    {
      "midi": 42,
      "hit": false,
      "t": 99473.5980000011,
      "d": 1055.9201375000412,
      "v": 77
    },
    {
      "midi": 61,
      "hit": false,
      "t": 99868.33450000112,
      "d": 60.8552104166738,
      "v": 63
    },
    {
      "midi": 54,
      "hit": false,
      "t": 99868.33450000112,
      "d": 572.3679250000132,
      "v": 115
    },
    {
      "midi": 61,
      "hit": false,
      "t": 100263.07100000113,
      "d": 251.64451875000668,
      "v": 116
    },
    {
      "midi": 65,
      "hit": false,
      "t": 100263.07100000113,
      "d": 274.6708145833545,
      "v": 92
    },
    {
      "midi": 70,
      "hit": false,
      "t": 100263.07100000113,
      "d": 291.11816875002114,
      "v": 92
    },
    {
      "midi": 68,
      "hit": false,
      "t": 101052.54400000116,
      "d": 286.1839624999993,
      "v": 88
    },
    {
      "midi": 73,
      "hit": false,
      "t": 101052.54400000116,
      "d": 550.9863645833539,
      "v": 78
    },
    {
      "midi": 77,
      "hit": false,
      "t": 101052.54400000116,
      "d": 554.2758354166872,
      "v": 91
    },
    {
      "midi": 68,
      "hit": false,
      "t": 101447.28050000117,
      "d": 605.2626333333465,
      "v": 68
    },
    {
      "midi": 77,
      "hit": false,
      "t": 101842.01700000119,
      "d": 506.57850833333214,
      "v": 88
    },
    {
      "midi": 73,
      "hit": false,
      "t": 101842.01700000119,
      "d": 519.7363916666654,
      "v": 75
    },
    {
      "midi": 68,
      "hit": false,
      "t": 102236.75350000118,
      "d": 615.1310458333319,
      "v": 70
    },
    {
      "midi": 73,
      "hit": false,
      "t": 102631.49000000118,
      "d": 592.1047499999986,
      "v": 78
    },
    {
      "midi": 77,
      "hit": false,
      "t": 102631.49000000118,
      "d": 613.4863104166725,
      "v": 83
    },
    {
      "midi": 68,
      "hit": false,
      "t": 103026.22650000118,
      "d": 613.486310416687,
      "v": 63
    },
    {
      "midi": 77,
      "hit": false,
      "t": 103420.9630000012,
      "d": 483.5522125000134,
      "v": 87
    },
    {
      "midi": 73,
      "hit": false,
      "t": 103420.9630000012,
      "d": 495.0653604166873,
      "v": 77
    },
    {
      "midi": 68,
      "hit": false,
      "t": 103815.69950000121,
      "d": 641.446812500013,
      "v": 63
    },
    {
      "midi": 71,
      "hit": false,
      "t": 104210.43600000122,
      "d": 458.88118125002075,
      "v": 76
    },
    {
      "midi": 78,
      "hit": false,
      "t": 104210.43600000122,
      "d": 628.2889291666943,
      "v": 96
    },
    {
      "midi": 68,
      "hit": false,
      "t": 104605.17250000124,
      "d": 605.2626333333465,
      "v": 68
    },
    {
      "midi": 75,
      "hit": false,
      "t": 104999.90900000125,
      "d": 434.210149999999,
      "v": 68
    },
    {
      "midi": 71,
      "hit": false,
      "t": 104999.90900000125,
      "d": 452.30223958333954,
      "v": 63
    },
    {
      "midi": 73,
      "hit": false,
      "t": 104999.90900000125,
      "d": 467.1048583333468,
      "v": 63
    },
    {
      "midi": 78,
      "hit": false,
      "t": 104999.90900000125,
      "d": 514.8021854166873,
      "v": 83
    },
    {
      "midi": 68,
      "hit": false,
      "t": 105394.64550000125,
      "d": 613.4863104167016,
      "v": 63
    },
    {
      "midi": 71,
      "hit": false,
      "t": 105789.38200000128,
      "d": 455.5917104166874,
      "v": 63
    },
    {
      "midi": 73,
      "hit": false,
      "t": 105789.38200000128,
      "d": 521.3811270833539,
      "v": 78
    },
    {
      "midi": 78,
      "hit": false,
      "t": 105789.38200000128,
      "d": 521.3811270833539,
      "v": 92
    },
    {
      "midi": 68,
      "hit": false,
      "t": 106184.11850000129,
      "d": 598.6836916666798,
      "v": 63
    },
    {
      "midi": 71,
      "hit": false,
      "t": 106578.8550000013,
      "d": 450.6575041666656,
      "v": 72
    },
    {
      "midi": 73,
      "hit": false,
      "t": 106578.8550000013,
      "d": 490.1311541666655,
      "v": 70
    },
    {
      "midi": 78,
      "hit": false,
      "t": 106578.8550000013,
      "d": 606.9073687500058,
      "v": 91
    },
    {
      "midi": 68,
      "hit": false,
      "t": 106973.5915000013,
      "d": 598.6836916666944,
      "v": 63
    },
    {
      "midi": 73,
      "hit": false,
      "t": 107368.32800000132,
      "d": 547.6968937500351,
      "v": 83
    },
    {
      "midi": 77,
      "hit": false,
      "t": 107368.32800000132,
      "d": 631.5784000000422,
      "v": 92
    },
    {
      "midi": 68,
      "hit": false,
      "t": 107763.06450000135,
      "d": 600.3284270833537,
      "v": 72
    },
    {
      "midi": 73,
      "hit": false,
      "t": 108157.80100000136,
      "d": 511.51271458335395,
      "v": 76
    },
    {
      "midi": 77,
      "hit": false,
      "t": 108157.80100000136,
      "d": 577.3021312500205,
      "v": 86
    },
    {
      "midi": 68,
      "hit": false,
      "t": 108552.53750000137,
      "d": 587.1705437500204,
      "v": 66
    },
    {
      "midi": 73,
      "hit": false,
      "t": 108947.27400000139,
      "d": 490.13115416668006,
      "v": 78
    },
    {
      "midi": 77,
      "hit": false,
      "t": 108947.27400000139,
      "d": 534.5390104166872,
      "v": 86
    },
    {
      "midi": 68,
      "hit": false,
      "t": 109342.0105000014,
      "d": 572.3679250000132,
      "v": 63
    },
    {
      "midi": 77,
      "hit": false,
      "t": 109736.74700000141,
      "d": 376.64441041667305,
      "v": 87
    },
    {
      "midi": 73,
      "hit": false,
      "t": 109736.74700000141,
      "d": 419.40753125002084,
      "v": 77
    },
    {
      "midi": 68,
      "hit": false,
      "t": 110131.48350000143,
      "d": 57.56573958334047,
      "v": 63
    },
    {
      "midi": 66,
      "hit": false,
      "t": 110526.22000000144,
      "d": 253.28925416668062,
      "v": 84
    },
    {
      "midi": 68,
      "hit": false,
      "t": 110526.22000000144,
      "d": 495.0653604167019,
      "v": 76
    },
    {
      "midi": 73,
      "hit": false,
      "t": 110526.22000000144,
      "d": 598.6836916667089,
      "v": 91
    },
    {
      "midi": 66,
      "hit": false,
      "t": 110920.95650000147,
      "d": 550.9863645833539,
      "v": 63
    },
    {
      "midi": 68,
      "hit": false,
      "t": 111315.69300000148,
      "d": 422.69700208335416,
      "v": 74
    },
    {
      "midi": 73,
      "hit": false,
      "t": 111315.69300000148,
      "d": 445.72329791668744,
      "v": 88
    },
    {
      "midi": 66,
      "hit": false,
      "t": 111710.4295000015,
      "d": 59.21047500001441,
      "v": 63
    },
    {
      "midi": 68,
      "hit": false,
      "t": 112105.16600000151,
      "d": 236.84189999999944,
      "v": 86
    },
    {
      "midi": 75,
      "hit": false,
      "t": 112105.16600000151,
      "d": 508.22324375002063,
      "v": 84
    },
    {
      "midi": 73,
      "hit": false,
      "t": 112105.16600000151,
      "d": 511.51271458335395,
      "v": 86
    },
    {
      "midi": 68,
      "hit": false,
      "t": 112499.90250000152,
      "d": 496.7100958333467,
      "v": 63
    },
    {
      "midi": 75,
      "hit": false,
      "t": 112894.63900000154,
      "d": 111.84200833333307,
      "v": 91
    },
    {
      "midi": 73,
      "hit": false,
      "t": 112894.63900000154,
      "d": 120.06568541667366,
      "v": 95
    },
    {
      "midi": 32,
      "hit": false,
      "t": 113289.37550000155,
      "d": 106.90780208334036,
      "v": 92
    },
    {
      "midi": 44,
      "hit": false,
      "t": 113289.37550000155,
      "d": 113.48674375000701,
      "v": 112
    },
    {
      "midi": 56,
      "hit": false,
      "t": 113684.11200000157,
      "d": 307.5655229166732,
      "v": 112
    },
    {
      "midi": 65,
      "hit": false,
      "t": 113684.11200000157,
      "d": 435.85488541668747,
      "v": 95
    },
    {
      "midi": 61,
      "hit": false,
      "t": 113684.11200000157,
      "d": 452.3022395833541,
      "v": 94
    },
    {
      "midi": 37,
      "hit": false,
      "t": 113684.11200000157,
      "d": 2634.866137500052,
      "v": 96
    },
    {
      "midi": 49,
      "hit": false,
      "t": 113684.11200000157,
      "d": 2695.721347916726,
      "v": 111
    },
    {
      "midi": 56,
      "hit": false,
      "t": 114078.84850000158,
      "d": 575.6573958333465,
      "v": 70
    },
    {
      "midi": 65,
      "hit": false,
      "t": 114473.58500000159,
      "d": 473.6837999999989,
      "v": 97
    },
    {
      "midi": 61,
      "hit": false,
      "t": 114473.58500000159,
      "d": 480.26274166666553,
      "v": 101
    },
    {
      "midi": 56,
      "hit": false,
      "t": 114868.32150000159,
      "d": 583.8810729166726,
      "v": 73
    },
    {
      "midi": 65,
      "hit": false,
      "t": 115263.05800000159,
      "d": 450.65750416668016,
      "v": 97
    },
    {
      "midi": 61,
      "hit": false,
      "t": 115263.05800000159,
      "d": 467.1048583333468,
      "v": 95
    },
    {
      "midi": 56,
      "hit": false,
      "t": 115657.7945000016,
      "d": 511.5127145833394,
      "v": 74
    },
    {
      "midi": 65,
      "hit": false,
      "t": 116052.5310000016,
      "d": 345.3944375000283,
      "v": 99
    },
    {
      "midi": 61,
      "hit": false,
      "t": 116052.5310000016,
      "d": 465.46012291670195,
      "v": 105
    },
    {
      "midi": 56,
      "hit": false,
      "t": 116447.26750000163,
      "d": 88.81571250001434,
      "v": 65
    },
    {
      "midi": 59,
      "hit": false,
      "t": 116842.00400000165,
      "d": 300.98658125000657,
      "v": 112
    },
    {
      "midi": 51,
      "hit": false,
      "t": 116842.00400000165,
      "d": 315.7892000000138,
      "v": 106
    },
    {
      "midi": 61,
      "hit": false,
      "t": 116842.00400000165,
      "d": 587.1705437500204,
      "v": 97
    },
    {
      "midi": 66,
      "hit": false,
      "t": 116842.00400000165,
      "d": 639.8020770833537,
      "v": 96
    },
    {
      "midi": 39,
      "hit": false,
      "t": 116842.00400000165,
      "d": 1495.0644937500329,
      "v": 91
    },
    {
      "midi": 59,
      "hit": false,
      "t": 117236.74050000166,
      "d": 621.7099875000131,
      "v": 75
    },
    {
      "midi": 51,
      "hit": false,
      "t": 117236.74050000166,
      "d": 1110.1964062500192,
      "v": 76
    },
    {
      "midi": 61,
      "hit": false,
      "t": 117631.47700000167,
      "d": 680.9204624999984,
      "v": 96
    },
    {
      "midi": 66,
      "hit": false,
      "t": 117631.47700000167,
      "d": 687.499404166665,
      "v": 99
    },
    {
      "midi": 59,
      "hit": false,
      "t": 118026.21350000167,
      "d": 595.3942208333465,
      "v": 91
    },
    {
      "midi": 66,
      "hit": false,
      "t": 118420.95000000169,
      "d": 483.55221249999886,
      "v": 97
    },
    {
      "midi": 61,
      "hit": false,
      "t": 118420.95000000169,
      "d": 559.2100416666653,
      "v": 94
    },
    {
      "midi": 51,
      "hit": false,
      "t": 118420.95000000169,
      "d": 828.946649999998,
      "v": 71
    },
    {
      "midi": 39,
      "hit": false,
      "t": 118420.95000000169,
      "d": 911.1834208333312,
      "v": 68
    },
    {
      "midi": 59,
      "hit": false,
      "t": 118815.68650000168,
      "d": 552.6310999999987,
      "v": 80
    },
    {
      "midi": 66,
      "hit": false,
      "t": 119210.42300000168,
      "d": 371.7102041666658,
      "v": 99
    },
    {
      "midi": 61,
      "hit": false,
      "t": 119210.42300000168,
      "d": 478.61800625000615,
      "v": 106
    },
    {
      "midi": 59,
      "hit": false,
      "t": 119605.15950000168,
      "d": 67.43415208334045,
      "v": 70
    },
    {
      "midi": 58,
      "hit": false,
      "t": 119999.8960000017,
      "d": 320.7234062500065,
      "v": 116
    },
    {
      "midi": 61,
      "hit": false,
      "t": 119999.8960000017,
      "d": 407.8943833333469,
      "v": 82
    },
    {
      "midi": 65,
      "hit": false,
      "t": 119999.8960000017,
      "d": 429.2759437500208,
      "v": 76
    },
    {
      "midi": 34,
      "hit": false,
      "t": 119999.8960000017,
      "d": 1401.3145750000403,
      "v": 96
    },
    {
      "midi": 46,
      "hit": false,
      "t": 119999.8960000017,
      "d": 1462.1697854167141,
      "v": 106
    },
    {
      "midi": 58,
      "hit": false,
      "t": 120394.63250000171,
      "d": 580.5916020833538,
      "v": 72
    },
    {
      "midi": 61,
      "hit": false,
      "t": 120789.36900000172,
      "d": 467.1048583333468,
      "v": 95
    },
    {
      "midi": 65,
      "hit": false,
      "t": 120789.36900000172,
      "d": 470.3943291666801,
      "v": 95
    },
    {
      "midi": 58,
      "hit": false,
      "t": 121184.10550000174,
      "d": 624.9994583333464,
      "v": 104
    },
    {
      "midi": 46,
      "hit": false,
      "t": 121578.84200000175,
      "d": 300.98658125000657,
      "v": 86
    },
    {
      "midi": 61,
      "hit": false,
      "t": 121578.84200000175,
      "d": 440.7890916666802,
      "v": 95
    },
    {
      "midi": 65,
      "hit": false,
      "t": 121578.84200000175,
      "d": 452.3022395833541,
      "v": 97
    },
    {
      "midi": 34,
      "hit": false,
      "t": 121578.84200000175,
      "d": 1070.7227562500339,
      "v": 83
    },
    {
      "midi": 58,
      "hit": false,
      "t": 121973.57850000176,
      "d": 506.5785083333467,
      "v": 68
    },
    {
      "midi": 46,
      "hit": false,
      "t": 121973.57850000176,
      "d": 651.315225000013,
      "v": 76
    },
    {
      "midi": 65,
      "hit": false,
      "t": 122368.31500000178,
      "d": 378.289145833347,
      "v": 105
    },
    {
      "midi": 61,
      "hit": false,
      "t": 122368.31500000178,
      "d": 437.49962083334685,
      "v": 111
    },
    {
      "midi": 58,
      "hit": false,
      "t": 122763.05150000179,
      "d": 115.1314791666664,
      "v": 76
    },
    {
      "midi": 57,
      "hit": false,
      "t": 123157.78800000179,
      "d": 282.89449166668055,
      "v": 111
    },
    {
      "midi": 66,
      "hit": false,
      "t": 123157.78800000179,
      "d": 532.8942750000133,
      "v": 101
    },
    {
      "midi": 61,
      "hit": false,
      "t": 123157.78800000179,
      "d": 549.3416291666799,
      "v": 101
    },
    {
      "midi": 33,
      "hit": false,
      "t": 123157.78800000179,
      "d": 789.4730000000127,
      "v": 101
    },
    {
      "midi": 45,
      "hit": false,
      "t": 123157.78800000179,
      "d": 909.5386854166863,
      "v": 116
    },
    {
      "midi": 57,
      "hit": false,
      "t": 123552.5245000018,
      "d": 578.9468666666799,
      "v": 84
    },
    {
      "midi": 61,
      "hit": false,
      "t": 123947.2610000018,
      "d": 455.5917104166874,
      "v": 109
    },
    {
      "midi": 66,
      "hit": false,
      "t": 123947.2610000018,
      "d": 495.0653604166873,
      "v": 106
    },
    {
      "midi": 59,
      "hit": false,
      "t": 124736.73400000183,
      "d": 279.6050208333472,
      "v": 109
    },
    {
      "midi": 47,
      "hit": false,
      "t": 124736.73400000183,
      "d": 284.5392270833545,
      "v": 116
    },
    {
      "midi": 63,
      "hit": false,
      "t": 124736.73400000183,
      "d": 490.1311541666946,
      "v": 106
    },
    {
      "midi": 66,
      "hit": false,
      "t": 124736.73400000183,
      "d": 508.2232437500352,
      "v": 109
    },
    {
      "midi": 35,
      "hit": false,
      "t": 124736.73400000183,
      "d": 766.4467041667085,
      "v": 96
    },
    {
      "midi": 47,
      "hit": false,
      "t": 125131.47050000186,
      "d": 435.85488541668747,
      "v": 104
    },
    {
      "midi": 59,
      "hit": false,
      "t": 125131.47050000186,
      "d": 669.4073145833536,
      "v": 87
    },
    {
      "midi": 63,
      "hit": false,
      "t": 125526.20700000187,
      "d": 437.49962083334685,
      "v": 113
    },
    {
      "midi": 66,
      "hit": false,
      "t": 125526.20700000187,
      "d": 449.01276875002077,
      "v": 109
    },
    {
      "midi": 59,
      "hit": false,
      "t": 125920.94350000189,
      "d": 50.98679791667382,
      "v": 79
    },
    {
      "midi": 54,
      "hit": false,
      "t": 126315.6800000019,
      "d": 273.026079166666,
      "v": 94
    },
    {
      "midi": 42,
      "hit": false,
      "t": 126315.6800000019,
      "d": 274.67081458333996,
      "v": 111
    },
    {
      "midi": 58,
      "hit": false,
      "t": 126315.6800000019,
      "d": 297.69711041667324,
      "v": 91
    },
    {
      "midi": 30,
      "hit": false,
      "t": 126315.6800000019,
      "d": 300.98658125000657,
      "v": 95
    },
    {
      "midi": 61,
      "hit": false,
      "t": 126315.6800000019,
      "d": 320.7234062500065,
      "v": 91
    },
    {
      "midi": 54,
      "hit": false,
      "t": 126710.41650000191,
      "d": 141.447245833333,
      "v": 63
    },
    {
      "midi": 58,
      "hit": false,
      "t": 126710.41650000191,
      "d": 144.73671666666633,
      "v": 74
    },
    {
      "midi": 42,
      "hit": false,
      "t": 126710.41650000191,
      "d": 146.38145208334026,
      "v": 70
    },
    {
      "midi": 30,
      "hit": false,
      "t": 126710.41650000191,
      "d": 154.60512916668085,
      "v": 66
    },
    {
      "midi": 61,
      "hit": false,
      "t": 126710.41650000191,
      "d": 164.47354166668083,
      "v": 63
    },
    {
      "midi": 54,
      "hit": false,
      "t": 127105.15300000193,
      "d": 128.2893624999997,
      "v": 77
    },
    {
      "midi": 42,
      "hit": false,
      "t": 127105.15300000193,
      "d": 149.6709229166736,
      "v": 92
    },
    {
      "midi": 61,
      "hit": false,
      "t": 127105.15300000193,
      "d": 151.31565833334753,
      "v": 86
    },
    {
      "midi": 58,
      "hit": false,
      "t": 127105.15300000193,
      "d": 152.96039375002147,
      "v": 77
    },
    {
      "midi": 30,
      "hit": false,
      "t": 127105.15300000193,
      "d": 161.18407083336206,
      "v": 79
    },
    {
      "midi": 54,
      "hit": false,
      "t": 127499.88950000195,
      "d": 118.42094999999972,
      "v": 83
    },
    {
      "midi": 58,
      "hit": false,
      "t": 127499.88950000195,
      "d": 128.2893624999997,
      "v": 75
    },
    {
      "midi": 61,
      "hit": false,
      "t": 127499.88950000195,
      "d": 139.8025104166736,
      "v": 86
    },
    {
      "midi": 42,
      "hit": false,
      "t": 127499.88950000195,
      "d": 156.24986458334024,
      "v": 87
    },
    {
      "midi": 30,
      "hit": false,
      "t": 127499.88950000195,
      "d": 174.3419541666808,
      "v": 73
    },
    {
      "midi": 54,
      "hit": false,
      "t": 127894.62600000197,
      "d": 118.42094999999972,
      "v": 95
    },
    {
      "midi": 58,
      "hit": false,
      "t": 127894.62600000197,
      "d": 121.71042083333305,
      "v": 86
    },
    {
      "midi": 61,
      "hit": false,
      "t": 127894.62600000197,
      "d": 134.86830416666635,
      "v": 94
    },
    {
      "midi": 42,
      "hit": false,
      "t": 127894.62600000197,
      "d": 136.5130395833403,
      "v": 91
    },
    {
      "midi": 30,
      "hit": false,
      "t": 127894.62600000197,
      "d": 152.96039375000692,
      "v": 82
    },
    {
      "midi": 42,
      "hit": false,
      "t": 128289.36250000198,
      "d": 115.1314791666664,
      "v": 80
    },
    {
      "midi": 58,
      "hit": false,
      "t": 128289.36250000198,
      "d": 124.99989166666637,
      "v": 88
    },
    {
      "midi": 54,
      "hit": false,
      "t": 128289.36250000198,
      "d": 129.93409791667364,
      "v": 101
    },
    {
      "midi": 30,
      "hit": false,
      "t": 128289.36250000198,
      "d": 138.15777500001423,
      "v": 75
    },
    {
      "midi": 61,
      "hit": false,
      "t": 128289.36250000198,
      "d": 144.73671666668088,
      "v": 101
    },
    {
      "midi": 58,
      "hit": false,
      "t": 128684.099000002,
      "d": 138.15777499999967,
      "v": 95
    },
    {
      "midi": 54,
      "hit": false,
      "t": 128684.099000002,
      "d": 151.31565833333298,
      "v": 106
    },
    {
      "midi": 42,
      "hit": false,
      "t": 128684.099000002,
      "d": 157.89459999999963,
      "v": 91
    },
    {
      "midi": 61,
      "hit": false,
      "t": 128684.099000002,
      "d": 164.47354166666628,
      "v": 109
    },
    {
      "midi": 30,
      "hit": false,
      "t": 128684.099000002,
      "d": 171.05248333333293,
      "v": 78
    },
    {
      "midi": 54,
      "hit": false,
      "t": 129078.835500002,
      "d": 131.57883333333302,
      "v": 113
    },
    {
      "midi": 58,
      "hit": false,
      "t": 129078.835500002,
      "d": 139.8025104166736,
      "v": 95
    },
    {
      "midi": 42,
      "hit": false,
      "t": 129078.835500002,
      "d": 148.0261875000142,
      "v": 103
    },
    {
      "midi": 61,
      "hit": false,
      "t": 129078.835500002,
      "d": 154.60512916668085,
      "v": 111
    },
    {
      "midi": 30,
      "hit": false,
      "t": 129078.835500002,
      "d": 182.5656312500214,
      "v": 82
    },
    {
      "midi": 61,
      "hit": false,
      "t": 129473.57200000202,
      "d": 139.8025104166736,
      "v": 106
    },
    {
      "midi": 54,
      "hit": false,
      "t": 129473.57200000202,
      "d": 148.0261875000142,
      "v": 112
    },
    {
      "midi": 58,
      "hit": false,
      "t": 129473.57200000202,
      "d": 154.60512916668085,
      "v": 104
    },
    {
      "midi": 42,
      "hit": false,
      "t": 129473.57200000202,
      "d": 167.76301250001416,
      "v": 103
    },
    {
      "midi": 30,
      "hit": false,
      "t": 129473.57200000202,
      "d": 192.43404375002137,
      "v": 94
    },
    {
      "midi": 54,
      "hit": false,
      "t": 129868.30850000205,
      "d": 138.15777499999967,
      "v": 112
    },
    {
      "midi": 61,
      "hit": false,
      "t": 129868.30850000205,
      "d": 144.73671666666633,
      "v": 109
    },
    {
      "midi": 58,
      "hit": false,
      "t": 129868.30850000205,
      "d": 146.38145208334026,
      "v": 99
    },
    {
      "midi": 42,
      "hit": false,
      "t": 129868.30850000205,
      "d": 164.47354166668083,
      "v": 106
    },
    {
      "midi": 30,
      "hit": false,
      "t": 129868.30850000205,
      "d": 205.59192708335468,
      "v": 94
    },
    {
      "midi": 61,
      "hit": false,
      "t": 130263.04500000208,
      "d": 149.6709229166736,
      "v": 111
    },
    {
      "midi": 54,
      "hit": false,
      "t": 130263.04500000208,
      "d": 152.96039375000692,
      "v": 112
    },
    {
      "midi": 42,
      "hit": false,
      "t": 130263.04500000208,
      "d": 164.47354166668083,
      "v": 113
    },
    {
      "midi": 58,
      "hit": false,
      "t": 130263.04500000208,
      "d": 180.92089583334746,
      "v": 112
    },
    {
      "midi": 30,
      "hit": false,
      "t": 130263.04500000208,
      "d": 220.39454583334737,
      "v": 95
    },
    {
      "midi": 54,
      "hit": false,
      "t": 130657.7815000021,
      "d": 139.8025104166736,
      "v": 115
    },
    {
      "midi": 61,
      "hit": false,
      "t": 130657.7815000021,
      "d": 154.60512916668085,
      "v": 105
    },
    {
      "midi": 58,
      "hit": false,
      "t": 130657.7815000021,
      "d": 161.1840708333475,
      "v": 106
    },
    {
      "midi": 42,
      "hit": false,
      "t": 130657.7815000021,
      "d": 174.3419541666808,
      "v": 105
    },
    {
      "midi": 30,
      "hit": false,
      "t": 130657.7815000021,
      "d": 190.78930833334744,
      "v": 95
    },
    {
      "midi": 58,
      "hit": false,
      "t": 131052.5180000021,
      "d": 161.1840708333475,
      "v": 111
    },
    {
      "midi": 42,
      "hit": false,
      "t": 131052.5180000021,
      "d": 164.47354166669538,
      "v": 111
    },
    {
      "midi": 54,
      "hit": false,
      "t": 131052.5180000021,
      "d": 164.47354166669538,
      "v": 115
    },
    {
      "midi": 61,
      "hit": false,
      "t": 131052.5180000021,
      "d": 174.3419541667099,
      "v": 112
    },
    {
      "midi": 30,
      "hit": false,
      "t": 131052.5180000021,
      "d": 189.1445729167026,
      "v": 94
    },
    {
      "midi": 58,
      "hit": false,
      "t": 131447.25450000213,
      "d": 139.80251041665906,
      "v": 106
    },
    {
      "midi": 54,
      "hit": false,
      "t": 131447.25450000213,
      "d": 141.44724583331845,
      "v": 116
    },
    {
      "midi": 61,
      "hit": false,
      "t": 131447.25450000213,
      "d": 161.1840708333184,
      "v": 109
    },
    {
      "midi": 42,
      "hit": false,
      "t": 131447.25450000213,
      "d": 166.11827708332567,
      "v": 108
    },
    {
      "midi": 30,
      "hit": false,
      "t": 131447.25450000213,
      "d": 248.35504791667336,
      "v": 91
    },
    {
      "midi": 58,
      "hit": false,
      "t": 131841.99100000213,
      "d": 151.31565833333298,
      "v": 112
    },
    {
      "midi": 61,
      "hit": false,
      "t": 131841.99100000213,
      "d": 152.96039374999236,
      "v": 111
    },
    {
      "midi": 54,
      "hit": false,
      "t": 131841.99100000213,
      "d": 156.24986458334024,
      "v": 116
    },
    {
      "midi": 42,
      "hit": false,
      "t": 131841.99100000213,
      "d": 167.76301250001416,
      "v": 111
    },
    {
      "midi": 30,
      "hit": false,
      "t": 131841.99100000213,
      "d": 182.56563125000685,
      "v": 99
    },
    {
      "midi": 54,
      "hit": false,
      "t": 132236.72750000213,
      "d": 152.96039374999236,
      "v": 113
    },
    {
      "midi": 42,
      "hit": false,
      "t": 132236.72750000213,
      "d": 177.63142499999958,
      "v": 113
    },
    {
      "midi": 58,
      "hit": false,
      "t": 132236.72750000213,
      "d": 177.63142499999958,
      "v": 99
    },
    {
      "midi": 61,
      "hit": false,
      "t": 132236.72750000213,
      "d": 190.78930833333288,
      "v": 111
    },
    {
      "midi": 30,
      "hit": false,
      "t": 132236.72750000213,
      "d": 208.88139791667345,
      "v": 96
    },
    {
      "midi": 61,
      "hit": false,
      "t": 132631.46400000213,
      "d": 300.98658125000657,
      "v": 116
    },
    {
      "midi": 54,
      "hit": false,
      "t": 132631.46400000213,
      "d": 337.1707604166877,
      "v": 113
    },
    {
      "midi": 66,
      "hit": false,
      "t": 132631.46400000213,
      "d": 495.0653604166873,
      "v": 103
    },
    {
      "midi": 70,
      "hit": false,
      "t": 132631.46400000213,
      "d": 513.1574500000279,
      "v": 111
    },
    {
      "midi": 42,
      "hit": false,
      "t": 132631.46400000213,
      "d": 1391.4461625000695,
      "v": 94
    },
    {
      "midi": 61,
      "hit": false,
      "t": 133026.20050000216,
      "d": 185.85510208332562,
      "v": 79
    },
    {
      "midi": 54,
      "hit": false,
      "t": 133026.20050000216,
      "d": 603.6178979166725,
      "v": 101
    },
    {
      "midi": 61,
      "hit": false,
      "t": 133420.93700000216,
      "d": 320.7234062500065,
      "v": 116
    },
    {
      "midi": 66,
      "hit": false,
      "t": 133420.93700000216,
      "d": 356.90758541668765,
      "v": 103
    },
    {
      "midi": 70,
      "hit": false,
      "t": 133420.93700000216,
      "d": 376.6444104166876,
      "v": 113
    },
    {
      "midi": 54,
      "hit": false,
      "t": 133815.6735000022,
      "d": 263.15766666669515,
      "v": 63
    },
    {
      "midi": 61,
      "hit": false,
      "t": 134013.0417500022,
      "d": 399.67070625003544,
      "v": 116
    },
    {
      "midi": 66,
      "hit": false,
      "t": 134013.0417500022,
      "d": 651.3152250000567,
      "v": 99
    },
    {
      "midi": 70,
      "hit": false,
      "t": 134013.0417500022,
      "d": 675.9862562500639,
      "v": 111
    },
    {
      "midi": 54,
      "hit": false,
      "t": 134210.41000000222,
      "d": 253.28925416668062,
      "v": 111
    },
    {
      "midi": 42,
      "hit": false,
      "t": 134210.41000000222,
      "d": 1226.9726208334032,
      "v": 84
    },
    {
      "midi": 61,
      "hit": false,
      "t": 134605.14650000224,
      "d": 157.89459999999963,
      "v": 63
    },
    {
      "midi": 54,
      "hit": false,
      "t": 134605.14650000224,
      "d": 851.972945833375,
      "v": 99
    },
    {
      "midi": 61,
      "hit": false,
      "t": 134999.88300000224,
      "d": 246.71031250001397,
      "v": 116
    },
    {
      "midi": 66,
      "hit": false,
      "t": 134999.88300000224,
      "d": 345.39443750001374,
      "v": 103
    },
    {
      "midi": 70,
      "hit": false,
      "t": 134999.88300000224,
      "d": 432.5654145833687,
      "v": 113
    },
    {
      "midi": 61,
      "hit": false,
      "t": 135394.61950000227,
      "d": 118.42095000002882,
      "v": 66
    },
    {
      "midi": 54,
      "hit": false,
      "t": 135789.3560000023,
      "d": 302.63131666666595,
      "v": 111
    },
    {
      "midi": 61,
      "hit": false,
      "t": 135789.3560000023,
      "d": 310.854993749992,
      "v": 116
    },
    {
      "midi": 65,
      "hit": false,
      "t": 135789.3560000023,
      "d": 424.34173750001355,
      "v": 96
    },
    {
      "midi": 70,
      "hit": false,
      "t": 135789.3560000023,
      "d": 483.5522125000134,
      "v": 101
    },
    {
      "midi": 42,
      "hit": false,
      "t": 135789.3560000023,
      "d": 1208.8805312500335,
      "v": 88
    },
    {
      "midi": 61,
      "hit": false,
      "t": 136184.0925000023,
      "d": 136.5130395833403,
      "v": 79
    },
    {
      "midi": 54,
      "hit": false,
      "t": 136184.0925000023,
      "d": 562.4995125000132,
      "v": 92
    },
    {
      "midi": 61,
      "hit": false,
      "t": 136578.8290000023,
      "d": 218.74981041668798,
      "v": 116
    },
    {
      "midi": 65,
      "hit": false,
      "t": 136578.8290000023,
      "d": 259.8681958333473,
      "v": 97
    },
    {
      "midi": 70,
      "hit": false,
      "t": 136578.8290000023,
      "d": 305.92078750001383,
      "v": 99
    },
    {
      "midi": 54,
      "hit": false,
      "t": 136973.56550000233,
      "d": 205.59192708332557,
      "v": 65
    },
    {
      "midi": 61,
      "hit": false,
      "t": 137170.93375000232,
      "d": 378.289145833347,
      "v": 116
    },
    {
      "midi": 70,
      "hit": false,
      "t": 137170.93375000232,
      "d": 638.1573416666943,
      "v": 92
    },
    {
      "midi": 65,
      "hit": false,
      "t": 137170.93375000232,
      "d": 657.8941666666942,
      "v": 91
    },
    {
      "midi": 54,
      "hit": false,
      "t": 137368.30200000232,
      "d": 246.71031250001397,
      "v": 105
    },
    {
      "midi": 42,
      "hit": false,
      "t": 137368.30200000232,
      "d": 1177.6305583333888,
      "v": 79
    },
    {
      "midi": 61,
      "hit": false,
      "t": 137763.03850000235,
      "d": 108.5525375000143,
      "v": 70
    },
    {
      "midi": 54,
      "hit": false,
      "t": 137763.03850000235,
      "d": 769.7361750000273,
      "v": 101
    },
    {
      "midi": 61,
      "hit": false,
      "t": 138157.77500000238,
      "d": 228.6182229166734,
      "v": 116
    },
    {
      "midi": 65,
      "hit": false,
      "t": 138157.77500000238,
      "d": 406.249647916673,
      "v": 99
    },
    {
      "midi": 70,
      "hit": false,
      "t": 138157.77500000238,
      "d": 455.5917104166874,
      "v": 105
    },
    {
      "midi": 61,
      "hit": false,
      "t": 138552.51150000238,
      "d": 95.394654166681,
      "v": 80
    },
    {
      "midi": 54,
      "hit": false,
      "t": 138947.24800000238,
      "d": 254.93398958334,
      "v": 104
    },
    {
      "midi": 61,
      "hit": false,
      "t": 138947.24800000238,
      "d": 371.71020416668034,
      "v": 116
    },
    {
      "midi": 64,
      "hit": false,
      "t": 138947.24800000238,
      "d": 381.57861666669487,
      "v": 106
    },
    {
      "midi": 70,
      "hit": false,
      "t": 138947.24800000238,
      "d": 411.18385416670935,
      "v": 99
    },
    {
      "midi": 42,
      "hit": false,
      "t": 138947.24800000238,
      "d": 1187.4989708334324,
      "v": 75
    },
    {
      "midi": 54,
      "hit": false,
      "t": 139341.9845000024,
      "d": 485.1969479167019,
      "v": 91
    },
    {
      "midi": 61,
      "hit": false,
      "t": 139736.72100000244,
      "d": 261.51293125000666,
      "v": 116
    },
    {
      "midi": 64,
      "hit": false,
      "t": 139736.72100000244,
      "d": 310.8549937500211,
      "v": 96
    },
    {
      "midi": 70,
      "hit": false,
      "t": 139736.72100000244,
      "d": 358.55232083334704,
      "v": 101
    },
    {
      "midi": 54,
      "hit": false,
      "t": 140131.45750000246,
      "d": 197.36825000002864,
      "v": 74
    },
    {
      "midi": 61,
      "hit": false,
      "t": 140328.8257500025,
      "d": 236.84189999999944,
      "v": 113
    },
    {
      "midi": 64,
      "hit": false,
      "t": 140328.8257500025,
      "d": 266.4471375000139,
      "v": 95
    },
    {
      "midi": 70,
      "hit": false,
      "t": 140328.8257500025,
      "d": 601.9731625000131,
      "v": 94
    },
    {
      "midi": 54,
      "hit": false,
      "t": 140526.1940000025,
      "d": 195.72351458334015,
      "v": 101
    },
    {
      "midi": 42,
      "hit": false,
      "t": 140526.1940000025,
      "d": 1180.9200291667075,
      "v": 77
    },
    {
      "midi": 61,
      "hit": false,
      "t": 140723.5622500025,
      "d": 120.06568541665911,
      "v": 82
    },
    {
      "midi": 64,
      "hit": false,
      "t": 140723.5622500025,
      "d": 159.53933541665901,
      "v": 74
    },
    {
      "midi": 54,
      "hit": false,
      "t": 140920.9305000025,
      "d": 685.8546687500493,
      "v": 115
    },
    {
      "midi": 61,
      "hit": false,
      "t": 141315.66700000252,
      "d": 246.71031250001397,
      "v": 116
    },
    {
      "midi": 64,
      "hit": false,
      "t": 141315.66700000252,
      "d": 429.2759437500208,
      "v": 109
    },
    {
      "midi": 70,
      "hit": false,
      "t": 141315.66700000252,
      "d": 651.3152250000276,
      "v": 101
    },
    {
      "midi": 54,
      "hit": false,
      "t": 141710.40350000255,
      "d": 190.78930833333288,
      "v": 66
    },
    {
      "midi": 61,
      "hit": false,
      "t": 141907.77175000255,
      "d": 57.56573958334047,
      "v": 68
    },
    {
      "midi": 54,
      "hit": false,
      "t": 142105.14000000255,
      "d": 273.0260791666806,
      "v": 99
    },
    {
      "midi": 61,
      "hit": false,
      "t": 142105.14000000255,
      "d": 406.2496479167021,
      "v": 116
    },
    {
      "midi": 65,
      "hit": false,
      "t": 142105.14000000255,
      "d": 444.0785625000426,
      "v": 96
    },
    {
      "midi": 70,
      "hit": false,
      "t": 142105.14000000255,
      "d": 467.10485833339044,
      "v": 101
    },
    {
      "midi": 42,
      "hit": false,
      "t": 142105.14000000255,
      "d": 1223.6831500000553,
      "v": 77
    },
    {
      "midi": 54,
      "hit": false,
      "t": 142499.87650000257,
      "d": 610.1968395833683,
      "v": 92
    },
    {
      "midi": 61,
      "hit": false,
      "t": 142894.6130000026,
      "d": 248.35504791667336,
      "v": 116
    },
    {
      "midi": 65,
      "hit": false,
      "t": 142894.6130000026,
      "d": 268.0918729166733,
      "v": 91
    },
    {
      "midi": 70,
      "hit": false,
      "t": 142894.6130000026,
      "d": 434.210149999999,
      "v": 95
    },
    {
      "midi": 54,
      "hit": false,
      "t": 143289.3495000026,
      "d": 218.74981041665887,
      "v": 77
    },
    {
      "midi": 61,
      "hit": false,
      "t": 143486.7177500026,
      "d": 236.84189999999944,
      "v": 113
    },
    {
      "midi": 65,
      "hit": false,
      "t": 143486.7177500026,
      "d": 243.4208416666661,
      "v": 94
    },
    {
      "midi": 70,
      "hit": false,
      "t": 143486.7177500026,
      "d": 616.7757812500058,
      "v": 99
    },
    {
      "midi": 54,
      "hit": false,
      "t": 143684.0860000026,
      "d": 177.63142499999958,
      "v": 109
    },
    {
      "midi": 42,
      "hit": false,
      "t": 143684.0860000026,
      "d": 1080.5911687499902,
      "v": 82
    },
    {
      "midi": 61,
      "hit": false,
      "t": 143881.4542500026,
      "d": 162.8288062500069,
      "v": 83
    },
    {
      "midi": 65,
      "hit": false,
      "t": 143881.4542500026,
      "d": 169.40774791667354,
      "v": 68
    },
    {
      "midi": 54,
      "hit": false,
      "t": 144078.8225000026,
      "d": 726.9730541666504,
      "v": 116
    },
    {
      "midi": 61,
      "hit": false,
      "t": 144473.5590000026,
      "d": 218.74981041665887,
      "v": 116
    },
    {
      "midi": 65,
      "hit": false,
      "t": 144473.5590000026,
      "d": 419.4075312500063,
      "v": 91
    },
    {
      "midi": 70,
      "hit": false,
      "t": 144473.5590000026,
      "d": 481.907477083354,
      "v": 96
    },
    {
      "midi": 61,
      "hit": false,
      "t": 144868.2955000026,
      "d": 80.5920354166883,
      "v": 63
    },
    {
      "midi": 61,
      "hit": false,
      "t": 145263.03200000263,
      "d": 269.7366083333327,
      "v": 116
    },
    {
      "midi": 54,
      "hit": false,
      "t": 145263.03200000263,
      "d": 292.7629041666805,
      "v": 113
    },
    {
      "midi": 66,
      "hit": false,
      "t": 145263.03200000263,
      "d": 467.10485833336134,
      "v": 95
    },
    {
      "midi": 70,
      "hit": false,
      "t": 145263.03200000263,
      "d": 472.0390645833686,
      "v": 103
    },
    {
      "midi": 42,
      "hit": false,
      "t": 145263.03200000263,
      "d": 1213.8147375000408,
      "v": 84
    },
    {
      "midi": 61,
      "hit": false,
      "t": 145657.76850000265,
      "d": 136.5130395833403,
      "v": 63
    },
    {
      "midi": 54,
      "hit": false,
      "t": 145657.76850000265,
      "d": 646.3810187499912,
      "v": 88
    },
    {
      "midi": 61,
      "hit": false,
      "t": 146052.50500000265,
      "d": 371.71020416665124,
      "v": 116
    },
    {
      "midi": 66,
      "hit": false,
      "t": 146052.50500000265,
      "d": 440.78909166669473,
      "v": 91
    },
    {
      "midi": 70,
      "hit": false,
      "t": 146052.50500000265,
      "d": 485.1969479167019,
      "v": 113
    },
    {
      "midi": 54,
      "hit": false,
      "t": 146447.24150000265,
      "d": 213.81560416670982,
      "v": 77
    },
    {
      "midi": 61,
      "hit": false,
      "t": 146644.60975000268,
      "d": 254.9339895833691,
      "v": 116
    },
    {
      "midi": 66,
      "hit": false,
      "t": 146644.60975000268,
      "d": 518.0916562500643,
      "v": 91
    },
    {
      "midi": 70,
      "hit": false,
      "t": 146644.60975000268,
      "d": 799.3414125000709,
      "v": 101
    },
    {
      "midi": 54,
      "hit": false,
      "t": 146841.9780000027,
      "d": 192.43404375002137,
      "v": 99
    },
    {
      "midi": 42,
      "hit": false,
      "t": 146841.9780000027,
      "d": 1154.60426250007,
      "v": 73
    },
    {
      "midi": 61,
      "hit": false,
      "t": 147039.34625000274,
      "d": 138.15777499999967,
      "v": 109
    },
    {
      "midi": 61,
      "hit": false,
      "t": 147236.71450000274,
      "d": 138.15777499999967,
      "v": 87
    },
    {
      "midi": 54,
      "hit": false,
      "t": 147236.71450000274,
      "d": 761.5124979167012,
      "v": 104
    },
    {
      "midi": 61,
      "hit": false,
      "t": 147631.45100000277,
      "d": 240.13137083334732,
      "v": 116
    },
    {
      "midi": 66,
      "hit": false,
      "t": 147631.45100000277,
      "d": 407.89438333333237,
      "v": 96
    },
    {
      "midi": 70,
      "hit": false,
      "t": 147631.45100000277,
      "d": 460.5259166666656,
      "v": 109
    },
    {
      "midi": 61,
      "hit": false,
      "t": 148026.18750000276,
      "d": 106.9078020833258,
      "v": 77
    },
    {
      "midi": 61,
      "hit": false,
      "t": 148420.92400000276,
      "d": 315.78919999999925,
      "v": 116
    },
    {
      "midi": 54,
      "hit": false,
      "t": 148420.92400000276,
      "d": 327.30234791667317,
      "v": 115
    },
    {
      "midi": 65,
      "hit": false,
      "t": 148420.92400000276,
      "d": 457.2364458333468,
      "v": 91
    },
    {
      "midi": 70,
      "hit": false,
      "t": 148420.92400000276,
      "d": 491.77588958333945,
      "v": 92
    },
    {
      "midi": 42,
      "hit": false,
      "t": 148420.92400000276,
      "d": 1259.8673291667073,
      "v": 91
    },
    {
      "midi": 61,
      "hit": false,
      "t": 148815.66050000276,
      "d": 143.09198125000694,
      "v": 77
    },
    {
      "midi": 54,
      "hit": false,
      "t": 148815.66050000276,
      "d": 624.9994583333319,
      "v": 86
    },
    {
      "midi": 61,
      "hit": false,
      "t": 149210.39700000276,
      "d": 259.8681958333473,
      "v": 116
    },
    {
      "midi": 65,
      "hit": false,
      "t": 149210.39700000276,
      "d": 289.47343333336175,
      "v": 96
    },
    {
      "midi": 70,
      "hit": false,
      "t": 149210.39700000276,
      "d": 398.02597083337605,
      "v": 101
    },
    {
      "midi": 54,
      "hit": false,
      "t": 149605.1335000028,
      "d": 218.74981041668798,
      "v": 70
    },
    {
      "midi": 61,
      "hit": false,
      "t": 149802.50175000282,
      "d": 245.06557708332548,
      "v": 116
    },
    {
      "midi": 65,
      "hit": false,
      "t": 149802.50175000282,
      "d": 639.8020770833245,
      "v": 91
    },
    {
      "midi": 70,
      "hit": false,
      "t": 149802.50175000282,
      "d": 707.2362291666504,
      "v": 95
    },
    {
      "midi": 54,
      "hit": false,
      "t": 149999.87000000282,
      "d": 208.88139791667345,
      "v": 111
    },
    {
      "midi": 42,
      "hit": false,
      "t": 149999.87000000282,
      "d": 1159.538468750019,
      "v": 82
    },
    {
      "midi": 61,
      "hit": false,
      "t": 150197.23825000282,
      "d": 297.6971104166587,
      "v": 84
    },
    {
      "midi": 54,
      "hit": false,
      "t": 150394.60650000282,
      "d": 799.3414125000418,
      "v": 105
    },
    {
      "midi": 61,
      "hit": false,
      "t": 150789.34300000282,
      "d": 215.4603395833401,
      "v": 116
    },
    {
      "midi": 65,
      "hit": false,
      "t": 150789.34300000282,
      "d": 401.3154416666948,
      "v": 109
    },
    {
      "midi": 70,
      "hit": false,
      "t": 150789.34300000282,
      "d": 457.2364458333759,
      "v": 99
    },
    {
      "midi": 61,
      "hit": false,
      "t": 151184.07950000284,
      "d": 93.7499187500216,
      "v": 71
    },
    {
      "midi": 61,
      "hit": false,
      "t": 151578.81600000287,
      "d": 266.4471375000139,
      "v": 116
    },
    {
      "midi": 54,
      "hit": false,
      "t": 151578.81600000287,
      "d": 286.1839625000139,
      "v": 116
    },
    {
      "midi": 64,
      "hit": false,
      "t": 151578.81600000287,
      "d": 404.6049125000427,
      "v": 106
    },
    {
      "midi": 70,
      "hit": false,
      "t": 151578.81600000287,
      "d": 483.5522125000425,
      "v": 95
    },
    {
      "midi": 42,
      "hit": false,
      "t": 151578.81600000287,
      "d": 1258.222593750048,
      "v": 86
    },
    {
      "midi": 61,
      "hit": false,
      "t": 151973.5525000029,
      "d": 121.7104208333476,
      "v": 72
    },
    {
      "midi": 54,
      "hit": false,
      "t": 151973.5525000029,
      "d": 613.486310416687,
      "v": 84
    },
    {
      "midi": 61,
      "hit": false,
      "t": 152368.28900000293,
      "d": 240.13137083331821,
      "v": 116
    },
    {
      "midi": 64,
      "hit": false,
      "t": 152368.28900000293,
      "d": 281.2497562499775,
      "v": 101
    },
    {
      "midi": 70,
      "hit": false,
      "t": 152368.28900000293,
      "d": 371.71020416665124,
      "v": 95
    },
    {
      "midi": 54,
      "hit": false,
      "t": 152763.02550000293,
      "d": 223.68401666666614,
      "v": 77
    },
    {
      "midi": 61,
      "hit": false,
      "t": 152960.39375000293,
      "d": 269.7366083333327,
      "v": 116
    },
    {
      "midi": 64,
      "hit": false,
      "t": 152960.39375000293,
      "d": 547.6968937500205,
      "v": 96
    },
    {
      "midi": 70,
      "hit": false,
      "t": 152960.39375000293,
      "d": 620.0652520833537,
      "v": 94
    },
    {
      "midi": 54,
      "hit": false,
      "t": 153157.76200000293,
      "d": 215.4603395833401,
      "v": 112
    },
    {
      "midi": 42,
      "hit": false,
      "t": 153157.76200000293,
      "d": 1136.5121729167004,
      "v": 80
    },
    {
      "midi": 61,
      "hit": false,
      "t": 153355.13025000293,
      "d": 161.1840708333475,
      "v": 79
    },
    {
      "midi": 54,
      "hit": false,
      "t": 153552.49850000296,
      "d": 786.1835291666794,
      "v": 101
    },
    {
      "midi": 61,
      "hit": false,
      "t": 153947.23500000295,
      "d": 217.1050749999995,
      "v": 116
    },
    {
      "midi": 70,
      "hit": false,
      "t": 153947.23500000295,
      "d": 419.4075312500354,
      "v": 103
    },
    {
      "midi": 64,
      "hit": false,
      "t": 153947.23500000295,
      "d": 432.5654145833687,
      "v": 105
    },
    {
      "midi": 61,
      "hit": false,
      "t": 154341.97150000298,
      "d": 65.78941666666651,
      "v": 63
    },
    {
      "midi": 61,
      "hit": false,
      "t": 154736.70800000298,
      "d": 258.2234604166879,
      "v": 116
    },
    {
      "midi": 54,
      "hit": false,
      "t": 154736.70800000298,
      "d": 302.63131666669506,
      "v": 116
    },
    {
      "midi": 65,
      "hit": false,
      "t": 154736.70800000298,
      "d": 424.34173750004265,
      "v": 87
    },
    {
      "midi": 70,
      "hit": false,
      "t": 154736.70800000298,
      "d": 475.3285354167165,
      "v": 96
    },
    {
      "midi": 42,
      "hit": false,
      "t": 154736.70800000298,
      "d": 1312.4988625001279,
      "v": 88
    },
    {
      "midi": 61,
      "hit": false,
      "t": 155131.444500003,
      "d": 113.48674375002156,
      "v": 70
    },
    {
      "midi": 54,
      "hit": false,
      "t": 155131.444500003,
      "d": 661.1836375000421,
      "v": 101
    },
    {
      "midi": 61,
      "hit": false,
      "t": 155526.18100000304,
      "d": 228.6182229166734,
      "v": 116
    },
    {
      "midi": 65,
      "hit": false,
      "t": 155526.18100000304,
      "d": 411.18385416670935,
      "v": 101
    },
    {
      "midi": 70,
      "hit": false,
      "t": 155526.18100000304,
      "d": 473.6838000000571,
      "v": 109
    },
    {
      "midi": 61,
      "hit": false,
      "t": 155920.91750000307,
      "d": 124.99989166669548,
      "v": 92
    },
    {
      "midi": 54,
      "hit": false,
      "t": 155920.91750000307,
      "d": 167.76301250004326,
      "v": 91
    },
    {
      "midi": 54,
      "hit": false,
      "t": 156315.65400000312,
      "d": 212.17086874999222,
      "v": 105
    },
    {
      "midi": 61,
      "hit": false,
      "t": 156315.65400000312,
      "d": 226.9734874999849,
      "v": 116
    },
    {
      "midi": 65,
      "hit": false,
      "t": 156315.65400000312,
      "d": 409.53911874999176,
      "v": 99
    },
    {
      "midi": 70,
      "hit": false,
      "t": 156315.65400000312,
      "d": 430.9206791666511,
      "v": 99
    },
    {
      "midi": 42,
      "hit": false,
      "t": 156315.65400000312,
      "d": 1279.6041541666782,
      "v": 79
    },
    {
      "midi": 61,
      "hit": false,
      "t": 156710.39050000312,
      "d": 101.97359583331854,
      "v": 79
    },
    {
      "midi": 54,
      "hit": false,
      "t": 156710.39050000312,
      "d": 810.8545604166575,
      "v": 116
    },
    {
      "midi": 61,
      "hit": false,
      "t": 157105.12700000312,
      "d": 245.06557708332548,
      "v": 116
    },
    {
      "midi": 65,
      "hit": false,
      "t": 157105.12700000312,
      "d": 437.49962083331775,
      "v": 106
    },
    {
      "midi": 70,
      "hit": false,
      "t": 157105.12700000312,
      "d": 460.5259166666656,
      "v": 105
    },
    {
      "midi": 61,
      "hit": false,
      "t": 157499.86350000312,
      "d": 83.88150625000708,
      "v": 77
    },
    {
      "midi": 57,
      "hit": false,
      "t": 157894.60000000315,
      "d": 248.35504791667336,
      "v": 116
    },
    {
      "midi": 61,
      "hit": false,
      "t": 157894.60000000315,
      "d": 588.8152791666798,
      "v": 96
    },
    {
      "midi": 64,
      "hit": false,
      "t": 157894.60000000315,
      "d": 592.1047500000277,
      "v": 101
    },
    {
      "midi": 33,
      "hit": false,
      "t": 157894.60000000315,
      "d": 2717.102908333385,
      "v": 91
    },
    {
      "midi": 45,
      "hit": false,
      "t": 157894.60000000315,
      "d": 2796.050208333414,
      "v": 106
    },
    {
      "midi": 57,
      "hit": false,
      "t": 158289.33650000315,
      "d": 620.0652520833537,
      "v": 77
    },
    {
      "midi": 64,
      "hit": false,
      "t": 158684.07300000318,
      "d": 493.42062499999884,
      "v": 106
    },
    {
      "midi": 61,
      "hit": false,
      "t": 158684.07300000318,
      "d": 603.6178979166725,
      "v": 113
    },
    {
      "midi": 57,
      "hit": false,
      "t": 159078.80950000318,
      "d": 613.486310416658,
      "v": 91
    },
    {
      "midi": 64,
      "hit": false,
      "t": 159473.54600000317,
      "d": 467.10485833333223,
      "v": 101
    },
    {
      "midi": 61,
      "hit": false,
      "t": 159473.54600000317,
      "d": 580.5916020833247,
      "v": 86
    },
    {
      "midi": 57,
      "hit": false,
      "t": 159868.28250000317,
      "d": 641.446812500013,
      "v": 99
    },
    {
      "midi": 64,
      "hit": false,
      "t": 160263.01900000317,
      "d": 358.55232083337614,
      "v": 113
    },
    {
      "midi": 61,
      "hit": false,
      "t": 160263.01900000317,
      "d": 437.49962083340506,
      "v": 106
    },
    {
      "midi": 57,
      "hit": false,
      "t": 160657.75550000323,
      "d": 108.5525375000143,
      "v": 88
    },
    {
      "midi": 56,
      "hit": false,
      "t": 161052.49200000326,
      "d": 259.8681958333473,
      "v": 115
    },
    {
      "midi": 61,
      "hit": false,
      "t": 161052.49200000326,
      "d": 444.0785625000426,
      "v": 86
    },
    {
      "midi": 64,
      "hit": false,
      "t": 161052.49200000326,
      "d": 449.0127687500499,
      "v": 79
    },
    {
      "midi": 68,
      "hit": false,
      "t": 161052.49200000326,
      "d": 501.6443020833831,
      "v": 95
    },
    {
      "midi": 32,
      "hit": false,
      "t": 161052.49200000326,
      "d": 2700.655554166762,
      "v": 86
    },
    {
      "midi": 44,
      "hit": false,
      "t": 161052.49200000326,
      "d": 2702.3002895834215,
      "v": 101
    },
    {
      "midi": 56,
      "hit": false,
      "t": 161447.2285000033,
      "d": 597.038956250035,
      "v": 86
    },
    {
      "midi": 61,
      "hit": false,
      "t": 161841.9650000033,
      "d": 452.30223958333954,
      "v": 86
    },
    {
      "midi": 64,
      "hit": false,
      "t": 161841.9650000033,
      "d": 465.46012291667284,
      "v": 84
    },
    {
      "midi": 68,
      "hit": false,
      "t": 161841.9650000033,
      "d": 488.4864187500207,
      "v": 103
    },
    {
      "midi": 56,
      "hit": false,
      "t": 162236.7015000033,
      "d": 605.262633333361,
      "v": 92
    },
    {
      "midi": 64,
      "hit": false,
      "t": 162631.43800000334,
      "d": 445.7232979166729,
      "v": 77
    },
    {
      "midi": 61,
      "hit": false,
      "t": 162631.43800000334,
      "d": 452.30223958333954,
      "v": 80
    },
    {
      "midi": 68,
      "hit": false,
      "t": 162631.43800000334,
      "d": 521.3811270833539,
      "v": 94
    },
    {
      "midi": 56,
      "hit": false,
      "t": 163026.17450000334,
      "d": 587.1705437500204,
      "v": 94
    },
    {
      "midi": 64,
      "hit": false,
      "t": 163420.91100000337,
      "d": 366.775997916644,
      "v": 79
    },
    {
      "midi": 68,
      "hit": false,
      "t": 163420.91100000337,
      "d": 401.3154416666366,
      "v": 95
    },
    {
      "midi": 61,
      "hit": false,
      "t": 163420.91100000337,
      "d": 406.2496479166439,
      "v": 82
    },
    {
      "midi": 56,
      "hit": false,
      "t": 163815.64750000334,
      "d": 136.5130395833403,
      "v": 71
    },
    {
      "midi": 57,
      "hit": false,
      "t": 164210.38400000337,
      "d": 402.9601770833251,
      "v": 99
    },
    {
      "midi": 66,
      "hit": false,
      "t": 164210.38400000337,
      "d": 407.89438333333237,
      "v": 96
    },
    {
      "midi": 61,
      "hit": false,
      "t": 164210.38400000337,
      "d": 458.8811812500062,
      "v": 88
    },
    {
      "midi": 30,
      "hit": false,
      "t": 164210.38400000337,
      "d": 2437.497887500038,
      "v": 94
    },
    {
      "midi": 42,
      "hit": false,
      "t": 164210.38400000337,
      "d": 2570.7214562500303,
      "v": 108
    },
    {
      "midi": 54,
      "hit": false,
      "t": 164605.12050000337,
      "d": 335.5260249999992,
      "v": 66
    },
    {
      "midi": 57,
      "hit": false,
      "t": 164999.85700000337,
      "d": 212.17086874999222,
      "v": 97
    },
    {
      "midi": 61,
      "hit": false,
      "t": 164999.85700000337,
      "d": 345.39443749998463,
      "v": 91
    },
    {
      "midi": 66,
      "hit": false,
      "t": 164999.85700000337,
      "d": 600.3284270833246,
      "v": 94
    },
    {
      "midi": 57,
      "hit": false,
      "t": 165394.59350000336,
      "d": 342.10496666666586,
      "v": 88
    },
    {
      "midi": 61,
      "hit": false,
      "t": 165789.33000000336,
      "d": 195.72351458334015,
      "v": 86
    },
    {
      "midi": 57,
      "hit": false,
      "t": 165789.33000000336,
      "d": 205.59192708335468,
      "v": 63
    },
    {
      "midi": 66,
      "hit": false,
      "t": 165789.33000000336,
      "d": 620.0652520833537,
      "v": 103
    },
    {
      "midi": 62,
      "hit": false,
      "t": 166184.0665000034,
      "d": 425.98647291667294,
      "v": 106
    },
    {
      "midi": 57,
      "hit": false,
      "t": 166578.8030000034,
      "d": 222.03928125000675,
      "v": 109
    },
    {
      "midi": 64,
      "hit": false,
      "t": 166578.8030000034,
      "d": 452.30223958333954,
      "v": 91
    },
    {
      "midi": 66,
      "hit": false,
      "t": 166578.8030000034,
      "d": 536.1837458333466,
      "v": 105
    },
    {
      "midi": 57,
      "hit": false,
      "t": 166973.5395000034,
      "d": 42.763120833347784,
      "v": 63
    },
    {
      "midi": 57,
      "hit": false,
      "t": 167368.27600000342,
      "d": 264.80240208332543,
      "v": 111
    },
    {
      "midi": 62,
      "hit": false,
      "t": 167368.27600000342,
      "d": 401.3154416666657,
      "v": 96
    },
    {
      "midi": 66,
      "hit": false,
      "t": 167368.27600000342,
      "d": 544.4074229166727,
      "v": 97
    },
    {
      "midi": 50,
      "hit": false,
      "t": 167368.27600000342,
      "d": 940.7886583333311,
      "v": 112
    },
    {
      "midi": 38,
      "hit": false,
      "t": 167368.27600000342,
      "d": 978.6175729166716,
      "v": 94
    },
    {
      "midi": 57,
      "hit": false,
      "t": 167763.01250000342,
      "d": 570.7231895833393,
      "v": 76
    },
    {
      "midi": 66,
      "hit": false,
      "t": 168157.74900000342,
      "d": 366.7759979166731,
      "v": 103
    },
    {
      "midi": 62,
      "hit": false,
      "t": 168157.74900000342,
      "d": 439.14435625000624,
      "v": 94
    },
    {
      "midi": 57,
      "hit": false,
      "t": 168552.48550000341,
      "d": 134.8683041666809,
      "v": 70
    },
    {
      "midi": 57,
      "hit": false,
      "t": 168947.22200000344,
      "d": 231.90769375002128,
      "v": 109
    },
    {
      "midi": 64,
      "hit": false,
      "t": 168947.22200000344,
      "d": 473.683800000028,
      "v": 109
    },
    {
      "midi": 62,
      "hit": false,
      "t": 168947.22200000344,
      "d": 509.8679791667091,
      "v": 94
    },
    {
      "midi": 28,
      "hit": false,
      "t": 168947.22200000344,
      "d": 661.1836375000421,
      "v": 92
    },
    {
      "midi": 40,
      "hit": false,
      "t": 168947.22200000344,
      "d": 860.1966229167301,
      "v": 86
    },
    {
      "midi": 57,
      "hit": false,
      "t": 169341.95850000347,
      "d": 598.6836916666944,
      "v": 91
    },
    {
      "midi": 64,
      "hit": false,
      "t": 169736.6950000035,
      "d": 421.0522666666657,
      "v": 109
    },
    {
      "midi": 62,
      "hit": false,
      "t": 169736.6950000035,
      "d": 457.2364458333468,
      "v": 95
    },
    {
      "midi": 57,
      "hit": false,
      "t": 170131.4315000035,
      "d": 129.93409791667364,
      "v": 74
    },
    {
      "midi": 57,
      "hit": false,
      "t": 170526.1680000035,
      "d": 254.93398958334,
      "v": 111
    },
    {
      "midi": 61,
      "hit": false,
      "t": 170526.1680000035,
      "d": 519.7363916666654,
      "v": 113
    },
    {
      "midi": 64,
      "hit": false,
      "t": 170526.1680000035,
      "d": 549.3416291666799,
      "v": 106
    },
    {
      "midi": 33,
      "hit": false,
      "t": 170526.1680000035,
      "d": 2478.6162729167263,
      "v": 91
    },
    {
      "midi": 45,
      "hit": false,
      "t": 170526.1680000035,
      "d": 2564.1425145833928,
      "v": 112
    },
    {
      "midi": 57,
      "hit": false,
      "t": 170920.9045000035,
      "d": 593.7494854166871,
      "v": 86
    },
    {
      "midi": 64,
      "hit": false,
      "t": 171315.64100000352,
      "d": 521.3811270833248,
      "v": 106
    },
    {
      "midi": 61,
      "hit": false,
      "t": 171315.64100000352,
      "d": 539.4732166666654,
      "v": 112
    },
    {
      "midi": 57,
      "hit": false,
      "t": 171710.37750000352,
      "d": 610.1968395833392,
      "v": 91
    },
    {
      "midi": 61,
      "hit": false,
      "t": 172105.11400000352,
      "d": 536.1837458333466,
      "v": 105
    },
    {
      "midi": 64,
      "hit": false,
      "t": 172105.11400000352,
      "d": 615.1310458333464,
      "v": 105
    },
    {
      "midi": 57,
      "hit": false,
      "t": 172499.85050000352,
      "d": 611.8415750000277,
      "v": 82
    },
    {
      "midi": 64,
      "hit": false,
      "t": 172894.58700000355,
      "d": 297.6971104166587,
      "v": 113
    },
    {
      "midi": 61,
      "hit": false,
      "t": 172894.58700000355,
      "d": 427.6312083333323,
      "v": 95
    },
    {
      "midi": 57,
      "hit": false,
      "t": 173289.32350000355,
      "d": 95.394654166681,
      "v": 77
    },
    {
      "midi": 56,
      "hit": false,
      "t": 173684.06000000358,
      "d": 274.67081458333996,
      "v": 116
    },
    {
      "midi": 61,
      "hit": false,
      "t": 173684.06000000358,
      "d": 440.7890916666656,
      "v": 86
    },
    {
      "midi": 64,
      "hit": false,
      "t": 173684.06000000358,
      "d": 455.5917104166583,
      "v": 79
    },
    {
      "midi": 68,
      "hit": false,
      "t": 173684.06000000358,
      "d": 532.8942749999987,
      "v": 94
    },
    {
      "midi": 49,
      "hit": false,
      "t": 173684.06000000358,
      "d": 2320.7216729166976,
      "v": 105
    },
    {
      "midi": 37,
      "hit": false,
      "t": 173684.06000000358,
      "d": 2383.221618750016,
      "v": 86
    },
    {
      "midi": 56,
      "hit": false,
      "t": 174078.79650000358,
      "d": 588.8152791666798,
      "v": 83
    },
    {
      "midi": 64,
      "hit": false,
      "t": 174473.53300000358,
      "d": 458.8811812500353,
      "v": 79
    },
    {
      "midi": 61,
      "hit": false,
      "t": 174473.53300000358,
      "d": 467.10485833336134,
      "v": 91
    },
    {
      "midi": 68,
      "hit": false,
      "t": 174473.53300000358,
      "d": 493.42062500002794,
      "v": 97
    },
    {
      "midi": 56,
      "hit": false,
      "t": 174868.2695000036,
      "d": 593.749485416658,
      "v": 88
    },
    {
      "midi": 61,
      "hit": false,
      "t": 175263.0060000036,
      "d": 467.10485833333223,
      "v": 83
    },
    {
      "midi": 64,
      "hit": false,
      "t": 175263.0060000036,
      "d": 478.61800625000615,
      "v": 79
    },
    {
      "midi": 68,
      "hit": false,
      "t": 175263.0060000036,
      "d": 509.86797916668,
      "v": 95
    },
    {
      "midi": 56,
      "hit": false,
      "t": 175657.7425000036,
      "d": 569.0784541666508,
      "v": 71
    },
    {
      "midi": 64,
      "hit": false,
      "t": 176052.4790000036,
      "d": 465.46012291667284,
      "v": 80
    },
    {
      "midi": 61,
      "hit": false,
      "t": 176052.4790000036,
      "d": 472.0390645833395,
      "v": 87
    },
    {
      "midi": 68,
      "hit": false,
      "t": 176052.4790000036,
      "d": 495.0653604166873,
      "v": 95
    },
    {
      "midi": 56,
      "hit": false,
      "t": 176447.2155000036,
      "d": 205.59192708335468,
      "v": 63
    },
    {
      "midi": 69,
      "hit": false,
      "t": 176841.95200000363,
      "d": 529.60480416668,
      "v": 99
    },
    {
      "midi": 61,
      "hit": false,
      "t": 176841.95200000363,
      "d": 583.8810729166726,
      "v": 104
    },
    {
      "midi": 30,
      "hit": false,
      "t": 176841.95200000363,
      "d": 633.223135416687,
      "v": 101
    },
    {
      "midi": 66,
      "hit": false,
      "t": 176841.95200000363,
      "d": 636.5126062500349,
      "v": 84
    },
    {
      "midi": 42,
      "hit": false,
      "t": 176841.95200000363,
      "d": 922.6965687500488,
      "v": 111
    },
    {
      "midi": 57,
      "hit": false,
      "t": 177236.68850000363,
      "d": 516.4469208333758,
      "v": 94
    },
    {
      "midi": 61,
      "hit": false,
      "t": 177631.42500000366,
      "d": 439.14435625003534,
      "v": 105
    },
    {
      "midi": 66,
      "hit": false,
      "t": 177631.42500000366,
      "d": 457.2364458333759,
      "v": 91
    },
    {
      "midi": 69,
      "hit": false,
      "t": 177631.42500000366,
      "d": 458.8811812500353,
      "v": 99
    },
    {
      "midi": 57,
      "hit": false,
      "t": 178026.16150000368,
      "d": 641.4468124999839,
      "v": 76
    },
    {
      "midi": 66,
      "hit": false,
      "t": 178420.89800000368,
      "d": 427.6312083333323,
      "v": 79
    },
    {
      "midi": 61,
      "hit": false,
      "t": 178420.89800000368,
      "d": 478.61800625000615,
      "v": 101
    },
    {
      "midi": 69,
      "hit": false,
      "t": 178420.89800000368,
      "d": 491.77588958333945,
      "v": 92
    },
    {
      "midi": 40,
      "hit": false,
      "t": 178420.89800000368,
      "d": 702.3020229166723,
      "v": 91
    },
    {
      "midi": 52,
      "hit": false,
      "t": 178420.89800000368,
      "d": 702.3020229166723,
      "v": 115
    },
    {
      "midi": 57,
      "hit": false,
      "t": 178815.63450000368,
      "d": 555.9205708333466,
      "v": 84
    },
    {
      "midi": 64,
      "hit": false,
      "t": 179210.37100000368,
      "d": 399.67070625003544,
      "v": 83
    },
    {
      "midi": 61,
      "hit": false,
      "t": 179210.37100000368,
      "d": 444.0785625000426,
      "v": 91
    },
    {
      "midi": 69,
      "hit": false,
      "t": 179210.37100000368,
      "d": 447.3680333333905,
      "v": 88
    },
    {
      "midi": 66,
      "hit": false,
      "t": 179210.37100000368,
      "d": 468.7495937500498,
      "v": 79
    },
    {
      "midi": 57,
      "hit": false,
      "t": 179605.1075000037,
      "d": 67.434152083355,
      "v": 77
    },
    {
      "midi": 59,
      "hit": false,
      "t": 179999.84400000374,
      "d": 274.67081458333996,
      "v": 109
    },
    {
      "midi": 64,
      "hit": false,
      "t": 179999.84400000374,
      "d": 578.9468666666944,
      "v": 97
    },
    {
      "midi": 66,
      "hit": false,
      "t": 179999.84400000374,
      "d": 611.8415750000277,
      "v": 84
    },
    {
      "midi": 71,
      "hit": false,
      "t": 179999.84400000374,
      "d": 633.223135416687,
      "v": 94
    },
    {
      "midi": 35,
      "hit": false,
      "t": 179999.84400000374,
      "d": 2659.5371687500156,
      "v": 91
    },
    {
      "midi": 47,
      "hit": false,
      "t": 179999.84400000374,
      "d": 2705.589760416682,
      "v": 112
    },
    {
      "midi": 59,
      "hit": false,
      "t": 180394.58050000377,
      "d": 611.8415749999986,
      "v": 86
    },
    {
      "midi": 64,
      "hit": false,
      "t": 180789.31700000376,
      "d": 476.97327083334676,
      "v": 92
    },
    {
      "midi": 66,
      "hit": false,
      "t": 180789.31700000376,
      "d": 542.7626875000133,
      "v": 79
    },
    {
      "midi": 71,
      "hit": false,
      "t": 180789.31700000376,
      "d": 702.3020229166723,
      "v": 101
    },
    {
      "midi": 59,
      "hit": false,
      "t": 181184.05350000376,
      "d": 644.7362833333318,
      "v": 115
    },
    {
      "midi": 63,
      "hit": false,
      "t": 181578.79000000376,
      "d": 572.3679249999986,
      "v": 101
    },
    {
      "midi": 66,
      "hit": false,
      "t": 181578.79000000376,
      "d": 613.486310416658,
      "v": 96
    },
    {
      "midi": 71,
      "hit": false,
      "t": 181578.79000000376,
      "d": 615.1310458333173,
      "v": 105
    },
    {
      "midi": 59,
      "hit": false,
      "t": 181973.52650000376,
      "d": 624.9994583333319,
      "v": 113
    },
    {
      "midi": 71,
      "hit": false,
      "t": 182368.26300000376,
      "d": 421.0522666666657,
      "v": 111
    },
    {
      "midi": 66,
      "hit": false,
      "t": 182368.26300000376,
      "d": 452.30223958333954,
      "v": 95
    },
    {
      "midi": 63,
      "hit": false,
      "t": 182368.26300000376,
      "d": 476.97327083334676,
      "v": 104
    },
    {
      "midi": 59,
      "hit": false,
      "t": 182762.99950000376,
      "d": 175.9866895833402,
      "v": 113
    },
    {
      "midi": 94,
      "hit": false,
      "t": 183157.7360000038,
      "d": 240.13137083334732,
      "v": 105
    },
    {
      "midi": 82,
      "hit": false,
      "t": 183157.7360000038,
      "d": 246.71031250001397,
      "v": 111
    },
    {
      "midi": 70,
      "hit": false,
      "t": 183157.7360000038,
      "d": 388.1575583333615,
      "v": 105
    },
    {
      "midi": 30,
      "hit": false,
      "t": 183157.7360000038,
      "d": 2935.8527187501604,
      "v": 101
    },
    {
      "midi": 42,
      "hit": false,
      "t": 183157.7360000038,
      "d": 3003.2868708335154,
      "v": 111
    },
    {
      "midi": 90,
      "hit": false,
      "t": 183355.1042500038,
      "d": 180.92089583334746,
      "v": 96
    },
    {
      "midi": 78,
      "hit": false,
      "t": 183355.1042500038,
      "d": 203.9471916666953,
      "v": 99
    },
    {
      "midi": 66,
      "hit": false,
      "t": 183355.1042500038,
      "d": 276.31555000002845,
      "v": 94
    },
    {
      "midi": 73,
      "hit": false,
      "t": 183552.47250000382,
      "d": 202.3024562500068,
      "v": 101
    },
    {
      "midi": 61,
      "hit": false,
      "t": 183552.47250000382,
      "d": 208.88139791667345,
      "v": 84
    },
    {
      "midi": 85,
      "hit": false,
      "t": 183552.47250000382,
      "d": 248.35504791667336,
      "v": 105
    },
    {
      "midi": 70,
      "hit": false,
      "t": 183749.84075000382,
      "d": 194.07877916668076,
      "v": 99
    },
    {
      "midi": 58,
      "hit": false,
      "t": 183749.84075000382,
      "d": 236.84190000002855,
      "v": 113
    },
    {
      "midi": 82,
      "hit": false,
      "t": 183749.84075000382,
      "d": 259.8681958333764,
      "v": 94
    },
    {
      "midi": 85,
      "hit": false,
      "t": 183947.20900000384,
      "d": 199.01298541668802,
      "v": 101
    },
    {
      "midi": 73,
      "hit": false,
      "t": 183947.20900000384,
      "d": 205.59192708335468,
      "v": 96
    },
    {
      "midi": 61,
      "hit": false,
      "t": 183947.20900000384,
      "d": 225.32875208335463,
      "v": 97
    },
    {
      "midi": 90,
      "hit": false,
      "t": 184144.57725000387,
      "d": 220.39454583334737,
      "v": 95
    },
    {
      "midi": 78,
      "hit": false,
      "t": 184144.57725000387,
      "d": 235.19716458334005,
      "v": 92
    },
    {
      "midi": 66,
      "hit": false,
      "t": 184144.57725000387,
      "d": 246.71031250001397,
      "v": 97
    },
    {
      "midi": 94,
      "hit": false,
      "t": 184341.94550000387,
      "d": 217.1050750000286,
      "v": 101
    },
    {
      "midi": 70,
      "hit": false,
      "t": 184341.94550000387,
      "d": 218.74981041668798,
      "v": 95
    },
    {
      "midi": 82,
      "hit": false,
      "t": 184341.94550000387,
      "d": 226.97348750001402,
      "v": 109
    },
    {
      "midi": 90,
      "hit": false,
      "t": 184539.3137500039,
      "d": 189.1445729166444,
      "v": 87
    },
    {
      "midi": 78,
      "hit": false,
      "t": 184539.3137500039,
      "d": 212.17086874996312,
      "v": 86
    },
    {
      "midi": 66,
      "hit": false,
      "t": 184539.3137500039,
      "d": 236.84189999997034,
      "v": 96
    },
    {
      "midi": 94,
      "hit": false,
      "t": 184736.68200000387,
      "d": 230.2629583333328,
      "v": 96
    },
    {
      "midi": 82,
      "hit": false,
      "t": 184736.68200000387,
      "d": 254.93398958334,
      "v": 105
    },
    {
      "midi": 70,
      "hit": false,
      "t": 184736.68200000387,
      "d": 259.8681958333473,
      "v": 95
    },
    {
      "midi": 90,
      "hit": false,
      "t": 184934.05025000387,
      "d": 156.24986458334024,
      "v": 91
    },
    {
      "midi": 78,
      "hit": false,
      "t": 184934.05025000387,
      "d": 185.85510208335472,
      "v": 95
    },
    {
      "midi": 66,
      "hit": false,
      "t": 184934.05025000387,
      "d": 240.13137083337642,
      "v": 86
    },
    {
      "midi": 73,
      "hit": false,
      "t": 185131.4185000039,
      "d": 182.56563125000685,
      "v": 103
    },
    {
      "midi": 61,
      "hit": false,
      "t": 185131.4185000039,
      "d": 199.01298541665892,
      "v": 101
    },
    {
      "midi": 85,
      "hit": false,
      "t": 185131.4185000039,
      "d": 243.4208416666661,
      "v": 101
    },
    {
      "midi": 70,
      "hit": false,
      "t": 185328.7867500039,
      "d": 180.92089583334746,
      "v": 105
    },
    {
      "midi": 58,
      "hit": false,
      "t": 185328.7867500039,
      "d": 228.6182229167025,
      "v": 115
    },
    {
      "midi": 82,
      "hit": false,
      "t": 185328.7867500039,
      "d": 256.5787250000285,
      "v": 91
    },
    {
      "midi": 73,
      "hit": false,
      "t": 185526.15500000393,
      "d": 192.43404374999227,
      "v": 91
    },
    {
      "midi": 85,
      "hit": false,
      "t": 185526.15500000393,
      "d": 207.23666250001406,
      "v": 101
    },
    {
      "midi": 61,
      "hit": false,
      "t": 185526.15500000393,
      "d": 245.06557708335458,
      "v": 91
    },
    {
      "midi": 90,
      "hit": false,
      "t": 185723.52325000393,
      "d": 195.72351458336925,
      "v": 91
    },
    {
      "midi": 78,
      "hit": false,
      "t": 185723.52325000393,
      "d": 230.2629583333619,
      "v": 92
    },
    {
      "midi": 66,
      "hit": false,
      "t": 185723.52325000393,
      "d": 245.06557708335458,
      "v": 95
    },
    {
      "midi": 70,
      "hit": false,
      "t": 185920.89150000396,
      "d": 192.43404374999227,
      "v": 91
    },
    {
      "midi": 82,
      "hit": false,
      "t": 185920.89150000396,
      "d": 218.74981041665887,
      "v": 106
    },
    {
      "midi": 94,
      "hit": false,
      "t": 185920.89150000396,
      "d": 230.2629583333328,
      "v": 96
    },
    {
      "midi": 66,
      "hit": false,
      "t": 186118.25975000396,
      "d": 215.4603395833692,
      "v": 86
    },
    {
      "midi": 78,
      "hit": false,
      "t": 186118.25975000396,
      "d": 222.03928125003586,
      "v": 91
    },
    {
      "midi": 90,
      "hit": false,
      "t": 186118.25975000396,
      "d": 223.68401666669524,
      "v": 80
    },
    {
      "midi": 94,
      "hit": false,
      "t": 186315.62800000398,
      "d": 235.19716458334005,
      "v": 99
    },
    {
      "midi": 82,
      "hit": false,
      "t": 186315.62800000398,
      "d": 243.4208416666661,
      "v": 106
    },
    {
      "midi": 70,
      "hit": false,
      "t": 186315.62800000398,
      "d": 256.5787249999994,
      "v": 97
    },
    {
      "midi": 30,
      "hit": false,
      "t": 186315.62800000398,
      "d": 2804.2738854168856,
      "v": 96
    },
    {
      "midi": 42,
      "hit": false,
      "t": 186315.62800000398,
      "d": 2853.6159479169,
      "v": 113
    },
    {
      "midi": 89,
      "hit": false,
      "t": 186512.99625000398,
      "d": 185.85510208332562,
      "v": 95
    },
    {
      "midi": 77,
      "hit": false,
      "t": 186512.99625000398,
      "d": 207.23666250001406,
      "v": 88
    },
    {
      "midi": 65,
      "hit": false,
      "t": 186512.99625000398,
      "d": 240.13137083334732,
      "v": 79
    },
    {
      "midi": 73,
      "hit": false,
      "t": 186710.36450000398,
      "d": 218.74981041668798,
      "v": 105
    },
    {
      "midi": 61,
      "hit": false,
      "t": 186710.36450000398,
      "d": 223.68401666669524,
      "v": 96
    },
    {
      "midi": 85,
      "hit": false,
      "t": 186710.36450000398,
      "d": 233.55242916670977,
      "v": 105
    },
    {
      "midi": 58,
      "hit": false,
      "t": 186907.732750004,
      "d": 179.27616041668807,
      "v": 113
    },
    {
      "midi": 70,
      "hit": false,
      "t": 186907.732750004,
      "d": 190.789308333362,
      "v": 97
    },
    {
      "midi": 82,
      "hit": false,
      "t": 186907.732750004,
      "d": 263.15766666669515,
      "v": 91
    },
    {
      "midi": 61,
      "hit": false,
      "t": 187105.10100000404,
      "d": 162.8288062500069,
      "v": 94
    },
    {
      "midi": 85,
      "hit": false,
      "t": 187105.10100000404,
      "d": 185.85510208335472,
      "v": 103
    },
    {
      "midi": 73,
      "hit": false,
      "t": 187105.10100000404,
      "d": 194.07877916668076,
      "v": 95
    },
    {
      "midi": 89,
      "hit": false,
      "t": 187302.46925000407,
      "d": 192.43404374999227,
      "v": 91
    },
    {
      "midi": 77,
      "hit": false,
      "t": 187302.46925000407,
      "d": 238.48663541665883,
      "v": 83
    },
    {
      "midi": 65,
      "hit": false,
      "t": 187302.46925000407,
      "d": 249.99978333333274,
      "v": 84
    },
    {
      "midi": 70,
      "hit": false,
      "t": 187499.83750000407,
      "d": 215.4603395833401,
      "v": 92
    },
    {
      "midi": 82,
      "hit": false,
      "t": 187499.83750000407,
      "d": 226.97348750001402,
      "v": 106
    },
    {
      "midi": 94,
      "hit": false,
      "t": 187499.83750000407,
      "d": 245.06557708335458,
      "v": 95
    },
    {
      "midi": 89,
      "hit": false,
      "t": 187697.20575000407,
      "d": 200.65772083337652,
      "v": 91
    },
    {
      "midi": 77,
      "hit": false,
      "t": 187697.20575000407,
      "d": 228.6182229167025,
      "v": 86
    },
    {
      "midi": 65,
      "hit": false,
      "t": 187697.20575000407,
      "d": 259.8681958333764,
      "v": 82
    },
    {
      "midi": 94,
      "hit": false,
      "t": 187894.5740000041,
      "d": 240.13137083337642,
      "v": 96
    },
    {
      "midi": 70,
      "hit": false,
      "t": 187894.5740000041,
      "d": 245.0655770833837,
      "v": 96
    },
    {
      "midi": 82,
      "hit": false,
      "t": 187894.5740000041,
      "d": 249.99978333339095,
      "v": 101
    },
    {
      "midi": 89,
      "hit": false,
      "t": 188091.94225000413,
      "d": 164.47354166669538,
      "v": 92
    },
    {
      "midi": 77,
      "hit": false,
      "t": 188091.94225000413,
      "d": 222.03928125003586,
      "v": 84
    },
    {
      "midi": 65,
      "hit": false,
      "t": 188091.94225000413,
      "d": 225.32875208338373,
      "v": 78
    },
    {
      "midi": 73,
      "hit": false,
      "t": 188289.31050000415,
      "d": 185.85510208335472,
      "v": 105
    },
    {
      "midi": 61,
      "hit": false,
      "t": 188289.31050000415,
      "d": 225.32875208335463,
      "v": 91
    },
    {
      "midi": 85,
      "hit": false,
      "t": 188289.31050000415,
      "d": 236.84190000002855,
      "v": 97
    },
    {
      "midi": 58,
      "hit": false,
      "t": 188486.67875000418,
      "d": 182.56563125000685,
      "v": 99
    },
    {
      "midi": 70,
      "hit": false,
      "t": 188486.67875000418,
      "d": 189.1445729166735,
      "v": 103
    },
    {
      "midi": 82,
      "hit": false,
      "t": 188486.67875000418,
      "d": 238.48663541665883,
      "v": 91
    },
    {
      "midi": 61,
      "hit": false,
      "t": 188684.04700000418,
      "d": 157.89459999999963,
      "v": 86
    },
    {
      "midi": 85,
      "hit": false,
      "t": 188684.04700000418,
      "d": 172.69721874999232,
      "v": 99
    },
    {
      "midi": 73,
      "hit": false,
      "t": 188684.04700000418,
      "d": 212.17086874999222,
      "v": 99
    },
    {
      "midi": 89,
      "hit": false,
      "t": 188881.41525000418,
      "d": 208.88139791667345,
      "v": 92
    },
    {
      "midi": 77,
      "hit": false,
      "t": 188881.41525000418,
      "d": 249.99978333336185,
      "v": 83
    },
    {
      "midi": 65,
      "hit": false,
      "t": 188881.41525000418,
      "d": 251.64451875002123,
      "v": 82
    },
    {
      "midi": 70,
      "hit": false,
      "t": 189078.78350000418,
      "d": 205.59192708335468,
      "v": 91
    },
    {
      "midi": 82,
      "hit": false,
      "t": 189078.78350000418,
      "d": 226.97348750001402,
      "v": 105
    },
    {
      "midi": 94,
      "hit": false,
      "t": 189078.78350000418,
      "d": 243.4208416666952,
      "v": 94
    },
    {
      "midi": 89,
      "hit": false,
      "t": 189276.1517500042,
      "d": 169.40774791667354,
      "v": 83
    },
    {
      "midi": 77,
      "hit": false,
      "t": 189276.1517500042,
      "d": 218.74981041665887,
      "v": 79
    },
    {
      "midi": 65,
      "hit": false,
      "t": 189276.1517500042,
      "d": 241.7761062500067,
      "v": 74
    },
    {
      "midi": 94,
      "hit": false,
      "t": 189473.5200000042,
      "d": 236.84189999999944,
      "v": 96
    },
    {
      "midi": 70,
      "hit": false,
      "t": 189473.5200000042,
      "d": 253.28925416668062,
      "v": 92
    },
    {
      "midi": 82,
      "hit": false,
      "t": 189473.5200000042,
      "d": 259.8681958333473,
      "v": 109
    },
    {
      "midi": 30,
      "hit": false,
      "t": 189473.5200000042,
      "d": 2968.7474270834937,
      "v": 96
    },
    {
      "midi": 42,
      "hit": false,
      "t": 189473.5200000042,
      "d": 3016.4447541668196,
      "v": 111
    },
    {
      "midi": 88,
      "hit": false,
      "t": 189670.8882500042,
      "d": 148.0261875000142,
      "v": 94
    },
    {
      "midi": 76,
      "hit": false,
      "t": 189670.8882500042,
      "d": 226.97348750004312,
      "v": 83
    },
    {
      "midi": 64,
      "hit": false,
      "t": 189670.8882500042,
      "d": 245.0655770833837,
      "v": 88
    },
    {
      "midi": 73,
      "hit": false,
      "t": 189868.25650000424,
      "d": 185.85510208335472,
      "v": 97
    },
    {
      "midi": 61,
      "hit": false,
      "t": 189868.25650000424,
      "d": 238.48663541668793,
      "v": 91
    },
    {
      "midi": 85,
      "hit": false,
      "t": 189868.25650000424,
      "d": 240.13137083334732,
      "v": 97
    },
    {
      "midi": 70,
      "hit": false,
      "t": 190065.62475000427,
      "d": 185.85510208332562,
      "v": 97
    },
    {
      "midi": 58,
      "hit": false,
      "t": 190065.62475000427,
      "d": 200.6577208333474,
      "v": 113
    },
    {
      "midi": 82,
      "hit": false,
      "t": 190065.62475000427,
      "d": 241.7761062500067,
      "v": 91
    },
    {
      "midi": 85,
      "hit": false,
      "t": 190262.99300000427,
      "d": 169.40774791667354,
      "v": 101
    },
    {
      "midi": 73,
      "hit": false,
      "t": 190262.99300000427,
      "d": 207.23666250001406,
      "v": 92
    },
    {
      "midi": 61,
      "hit": false,
      "t": 190262.99300000427,
      "d": 218.74981041668798,
      "v": 87
    },
    {
      "midi": 76,
      "hit": false,
      "t": 190460.36125000427,
      "d": 187.4998375000141,
      "v": 79
    },
    {
      "midi": 88,
      "hit": false,
      "t": 190460.36125000427,
      "d": 199.01298541668802,
      "v": 91
    },
    {
      "midi": 64,
      "hit": false,
      "t": 190460.36125000427,
      "d": 271.3813437500212,
      "v": 88
    },
    {
      "midi": 94,
      "hit": false,
      "t": 190657.7295000043,
      "d": 199.01298541665892,
      "v": 94
    },
    {
      "midi": 82,
      "hit": false,
      "t": 190657.7295000043,
      "d": 203.94719166666619,
      "v": 101
    },
    {
      "midi": 70,
      "hit": false,
      "t": 190657.7295000043,
      "d": 223.68401666666614,
      "v": 94
    },
    {
      "midi": 88,
      "hit": false,
      "t": 190855.0977500043,
      "d": 195.72351458334015,
      "v": 88
    },
    {
      "midi": 76,
      "hit": false,
      "t": 190855.0977500043,
      "d": 248.35504791667336,
      "v": 92
    },
    {
      "midi": 64,
      "hit": false,
      "t": 190855.0977500043,
      "d": 273.0260791666806,
      "v": 70
    },
    {
      "midi": 94,
      "hit": false,
      "t": 191052.4660000043,
      "d": 187.4998375000141,
      "v": 97
    },
    {
      "midi": 70,
      "hit": false,
      "t": 191052.4660000043,
      "d": 258.2234604166879,
      "v": 96
    },
    {
      "midi": 82,
      "hit": false,
      "t": 191052.4660000043,
      "d": 259.8681958333473,
      "v": 105
    },
    {
      "midi": 76,
      "hit": false,
      "t": 191249.83425000432,
      "d": 134.8683041666518,
      "v": 91
    },
    {
      "midi": 88,
      "hit": false,
      "t": 191249.83425000432,
      "d": 134.8683041666518,
      "v": 84
    },
    {
      "midi": 64,
      "hit": false,
      "t": 191249.83425000432,
      "d": 218.74981041665887,
      "v": 86
    },
    {
      "midi": 85,
      "hit": false,
      "t": 191447.20250000432,
      "d": 238.48663541665883,
      "v": 103
    },
    {
      "midi": 61,
      "hit": false,
      "t": 191447.20250000432,
      "d": 245.06557708332548,
      "v": 91
    },
    {
      "midi": 73,
      "hit": false,
      "t": 191447.20250000432,
      "d": 263.15766666666605,
      "v": 101
    },
    {
      "midi": 58,
      "hit": false,
      "t": 191644.57075000432,
      "d": 226.97348750001402,
      "v": 115
    },
    {
      "midi": 82,
      "hit": false,
      "t": 191644.57075000432,
      "d": 238.48663541668793,
      "v": 91
    },
    {
      "midi": 70,
      "hit": false,
      "t": 191644.57075000432,
      "d": 254.9339895833691,
      "v": 94
    },
    {
      "midi": 85,
      "hit": false,
      "t": 191841.93900000432,
      "d": 174.3419541667099,
      "v": 103
    },
    {
      "midi": 73,
      "hit": false,
      "t": 191841.93900000432,
      "d": 194.07877916670986,
      "v": 96
    },
    {
      "midi": 61,
      "hit": false,
      "t": 191841.93900000432,
      "d": 217.1050750000577,
      "v": 86
    },
    {
      "midi": 88,
      "hit": false,
      "t": 192039.30725000438,
      "d": 162.8288062500069,
      "v": 88
    },
    {
      "midi": 76,
      "hit": false,
      "t": 192039.30725000438,
      "d": 215.4603395833401,
      "v": 87
    },
    {
      "midi": 64,
      "hit": false,
      "t": 192039.30725000438,
      "d": 314.14446458333987,
      "v": 88
    },
    {
      "midi": 82,
      "hit": false,
      "t": 192236.67550000438,
      "d": 213.8156041666516,
      "v": 103
    },
    {
      "midi": 94,
      "hit": false,
      "t": 192236.67550000438,
      "d": 215.460339583311,
      "v": 94
    },
    {
      "midi": 70,
      "hit": false,
      "t": 192236.67550000438,
      "d": 225.32875208332553,
      "v": 94
    },
    {
      "midi": 76,
      "hit": false,
      "t": 192434.04375000438,
      "d": 159.53933541665901,
      "v": 88
    },
    {
      "midi": 88,
      "hit": false,
      "t": 192434.04375000438,
      "d": 195.72351458334015,
      "v": 82
    },
    {
      "midi": 64,
      "hit": false,
      "t": 192434.04375000438,
      "d": 205.59192708335468,
      "v": 71
    },
    {
      "midi": 94,
      "hit": false,
      "t": 192631.41200000438,
      "d": 212.17086875002133,
      "v": 95
    },
    {
      "midi": 82,
      "hit": false,
      "t": 192631.41200000438,
      "d": 213.8156041666807,
      "v": 97
    },
    {
      "midi": 70,
      "hit": false,
      "t": 192631.41200000438,
      "d": 263.15766666669515,
      "v": 97
    },
    {
      "midi": 42,
      "hit": false,
      "t": 192631.41200000438,
      "d": 3036.181579166878,
      "v": 111
    },
    {
      "midi": 30,
      "hit": false,
      "t": 192631.41200000438,
      "d": 3050.9841979168705,
      "v": 92
    },
    {
      "midi": 89,
      "hit": false,
      "t": 192828.7802500044,
      "d": 143.09198125000694,
      "v": 97
    },
    {
      "midi": 77,
      "hit": false,
      "t": 192828.7802500044,
      "d": 179.27616041668807,
      "v": 95
    },
    {
      "midi": 65,
      "hit": false,
      "t": 192828.7802500044,
      "d": 226.97348750004312,
      "v": 80
    },
    {
      "midi": 61,
      "hit": false,
      "t": 193026.14850000443,
      "d": 199.01298541668802,
      "v": 95
    },
    {
      "midi": 85,
      "hit": false,
      "t": 193026.14850000443,
      "d": 226.97348750001402,
      "v": 105
    },
    {
      "midi": 73,
      "hit": false,
      "t": 193026.14850000443,
      "d": 241.7761062500067,
      "v": 101
    },
    {
      "midi": 58,
      "hit": false,
      "t": 193223.51675000446,
      "d": 218.74981041662977,
      "v": 106
    },
    {
      "midi": 70,
      "hit": false,
      "t": 193223.51675000446,
      "d": 238.48663541662972,
      "v": 92
    },
    {
      "midi": 82,
      "hit": false,
      "t": 193223.51675000446,
      "d": 273.02607916662237,
      "v": 91
    },
    {
      "midi": 85,
      "hit": false,
      "t": 193420.88500000443,
      "d": 190.78930833333288,
      "v": 101
    },
    {
      "midi": 73,
      "hit": false,
      "t": 193420.88500000443,
      "d": 202.3024562500068,
      "v": 101
    },
    {
      "midi": 61,
      "hit": false,
      "t": 193420.88500000443,
      "d": 208.88139791667345,
      "v": 92
    },
    {
      "midi": 89,
      "hit": false,
      "t": 193618.25325000443,
      "d": 179.27616041668807,
      "v": 92
    },
    {
      "midi": 65,
      "hit": false,
      "t": 193618.25325000443,
      "d": 248.35504791670246,
      "v": 86
    },
    {
      "midi": 77,
      "hit": false,
      "t": 193618.25325000443,
      "d": 264.80240208338364,
      "v": 92
    },
    {
      "midi": 82,
      "hit": false,
      "t": 193815.62150000446,
      "d": 187.4998375000141,
      "v": 99
    },
    {
      "midi": 70,
      "hit": false,
      "t": 193815.62150000446,
      "d": 226.97348750004312,
      "v": 99
    },
    {
      "midi": 94,
      "hit": false,
      "t": 193815.62150000446,
      "d": 230.262958333391,
      "v": 94
    },
    {
      "midi": 65,
      "hit": false,
      "t": 194012.9897500045,
      "d": 184.21036666669534,
      "v": 78
    },
    {
      "midi": 89,
      "hit": false,
      "t": 194012.9897500045,
      "d": 185.85510208335472,
      "v": 99
    },
    {
      "midi": 77,
      "hit": false,
      "t": 194012.9897500045,
      "d": 256.5787250000285,
      "v": 91
    },
    {
      "midi": 70,
      "hit": false,
      "t": 194210.35800000452,
      "d": 207.23666250001406,
      "v": 99
    },
    {
      "midi": 82,
      "hit": false,
      "t": 194210.35800000452,
      "d": 238.48663541668793,
      "v": 101
    },
    {
      "midi": 94,
      "hit": false,
      "t": 194210.35800000452,
      "d": 240.13137083334732,
      "v": 95
    },
    {
      "midi": 89,
      "hit": false,
      "t": 194407.72625000452,
      "d": 131.57883333336213,
      "v": 96
    },
    {
      "midi": 77,
      "hit": false,
      "t": 194407.72625000452,
      "d": 138.15777500002878,
      "v": 94
    },
    {
      "midi": 65,
      "hit": false,
      "t": 194407.72625000452,
      "d": 249.99978333336185,
      "v": 82
    },
    {
      "midi": 61,
      "hit": false,
      "t": 194605.09450000455,
      "d": 233.55242916668067,
      "v": 94
    },
    {
      "midi": 73,
      "hit": false,
      "t": 194605.09450000455,
      "d": 241.7761062500067,
      "v": 101
    },
    {
      "midi": 85,
      "hit": false,
      "t": 194605.09450000455,
      "d": 241.7761062500067,
      "v": 99
    },
    {
      "midi": 58,
      "hit": false,
      "t": 194802.46275000455,
      "d": 166.11827708335477,
      "v": 116
    },
    {
      "midi": 70,
      "hit": false,
      "t": 194802.46275000455,
      "d": 249.99978333336185,
      "v": 91
    },
    {
      "midi": 82,
      "hit": false,
      "t": 194802.46275000455,
      "d": 264.80240208335454,
      "v": 91
    },
    {
      "midi": 61,
      "hit": false,
      "t": 194999.83100000457,
      "d": 174.3419541666517,
      "v": 88
    },
    {
      "midi": 85,
      "hit": false,
      "t": 194999.83100000457,
      "d": 184.21036666666623,
      "v": 103
    },
    {
      "midi": 73,
      "hit": false,
      "t": 194999.83100000457,
      "d": 195.72351458334015,
      "v": 101
    },
    {
      "midi": 65,
      "hit": false,
      "t": 195197.19925000457,
      "d": 121.7104208333476,
      "v": 82
    },
    {
      "midi": 89,
      "hit": false,
      "t": 195197.19925000457,
      "d": 195.72351458334015,
      "v": 86
    },
    {
      "midi": 77,
      "hit": false,
      "t": 195197.19925000457,
      "d": 225.32875208332553,
      "v": 87
    },
    {
      "midi": 94,
      "hit": false,
      "t": 195394.56750000457,
      "d": 184.21036666666623,
      "v": 97
    },
    {
      "midi": 82,
      "hit": false,
      "t": 195394.56750000457,
      "d": 200.6577208333474,
      "v": 101
    },
    {
      "midi": 70,
      "hit": false,
      "t": 195394.56750000457,
      "d": 222.03928125000675,
      "v": 99
    },
    {
      "midi": 65,
      "hit": false,
      "t": 195591.93575000457,
      "d": 149.6709229166736,
      "v": 84
    },
    {
      "midi": 77,
      "hit": false,
      "t": 195591.93575000457,
      "d": 189.1445729166735,
      "v": 78
    },
    {
      "midi": 89,
      "hit": false,
      "t": 195591.93575000457,
      "d": 195.72351458334015,
      "v": 83
    },
    {
      "midi": 82,
      "hit": false,
      "t": 195789.30400000457,
      "d": 205.59192708332557,
      "v": 97
    },
    {
      "midi": 94,
      "hit": false,
      "t": 195789.30400000457,
      "d": 231.90769374999218,
      "v": 95
    },
    {
      "midi": 70,
      "hit": false,
      "t": 195789.30400000457,
      "d": 281.2497562500066,
      "v": 112
    },
    {
      "midi": 42,
      "hit": false,
      "t": 195789.30400000457,
      "d": 2804.2738854168565,
      "v": 106
    },
    {
      "midi": 30,
      "hit": false,
      "t": 195789.30400000457,
      "d": 2814.142297916871,
      "v": 92
    },
    {
      "midi": 90,
      "hit": false,
      "t": 195986.67225000457,
      "d": 134.8683041666809,
      "v": 88
    },
    {
      "midi": 66,
      "hit": false,
      "t": 195986.67225000457,
      "d": 149.6709229166736,
      "v": 97
    },
    {
      "midi": 78,
      "hit": false,
      "t": 195986.67225000457,
      "d": 152.96039375002147,
      "v": 95
    },
    {
      "midi": 65,
      "hit": false,
      "t": 195986.67225000457,
      "d": 175.9866895833693,
      "v": 70
    },
    {
      "midi": 61,
      "hit": false,
      "t": 196184.0405000046,
      "d": 197.36824999999953,
      "v": 92
    },
    {
      "midi": 85,
      "hit": false,
      "t": 196184.0405000046,
      "d": 248.35504791667336,
      "v": 103
    },
    {
      "midi": 73,
      "hit": false,
      "t": 196184.0405000046,
      "d": 256.5787249999994,
      "v": 101
    },
    {
      "midi": 58,
      "hit": false,
      "t": 196381.4087500046,
      "d": 220.39454583334737,
      "v": 113
    },
    {
      "midi": 70,
      "hit": false,
      "t": 196381.4087500046,
      "d": 256.5787250000285,
      "v": 94
    },
    {
      "midi": 82,
      "hit": false,
      "t": 196381.4087500046,
      "d": 279.60502083337633,
      "v": 91
    },
    {
      "midi": 85,
      "hit": false,
      "t": 196578.7770000046,
      "d": 185.85510208338383,
      "v": 101
    },
    {
      "midi": 73,
      "hit": false,
      "t": 196578.7770000046,
      "d": 190.7893083333911,
      "v": 97
    },
    {
      "midi": 61,
      "hit": false,
      "t": 196578.7770000046,
      "d": 199.01298541671713,
      "v": 91
    },
    {
      "midi": 66,
      "hit": false,
      "t": 196776.14525000466,
      "d": 161.1840708333184,
      "v": 91
    },
    {
      "midi": 90,
      "hit": false,
      "t": 196776.14525000466,
      "d": 190.78930833333288,
      "v": 91
    },
    {
      "midi": 78,
      "hit": false,
      "t": 196776.14525000466,
      "d": 202.3024562500068,
      "v": 79
    },
    {
      "midi": 94,
      "hit": false,
      "t": 196973.51350000466,
      "d": 202.3024562500068,
      "v": 95
    },
    {
      "midi": 70,
      "hit": false,
      "t": 196973.51350000466,
      "d": 218.74981041668798,
      "v": 92
    },
    {
      "midi": 82,
      "hit": false,
      "t": 196973.51350000466,
      "d": 220.39454583334737,
      "v": 91
    },
    {
      "midi": 90,
      "hit": false,
      "t": 197170.88175000466,
      "d": 182.56563125000685,
      "v": 88
    },
    {
      "midi": 66,
      "hit": false,
      "t": 197170.88175000466,
      "d": 200.6577208333474,
      "v": 97
    },
    {
      "midi": 78,
      "hit": false,
      "t": 197170.88175000466,
      "d": 215.4603395833401,
      "v": 96
    },
    {
      "midi": 82,
      "hit": false,
      "t": 197368.25000000466,
      "d": 207.23666250001406,
      "v": 95
    },
    {
      "midi": 94,
      "hit": false,
      "t": 197368.25000000466,
      "d": 207.23666250001406,
      "v": 94
    },
    {
      "midi": 70,
      "hit": false,
      "t": 197368.25000000466,
      "d": 228.6182229166734,
      "v": 96
    },
    {
      "midi": 90,
      "hit": false,
      "t": 197565.61825000466,
      "d": 121.7104208333476,
      "v": 88
    },
    {
      "midi": 78,
      "hit": false,
      "t": 197565.61825000466,
      "d": 126.64462708335486,
      "v": 92
    },
    {
      "midi": 66,
      "hit": false,
      "t": 197565.61825000466,
      "d": 243.4208416666952,
      "v": 91
    },
    {
      "midi": 61,
      "hit": false,
      "t": 197762.98650000468,
      "d": 208.88139791667345,
      "v": 101
    },
    {
      "midi": 73,
      "hit": false,
      "t": 197762.98650000468,
      "d": 259.8681958333473,
      "v": 103
    },
    {
      "midi": 85,
      "hit": false,
      "t": 197762.98650000468,
      "d": 261.51293125000666,
      "v": 105
    },
    {
      "midi": 58,
      "hit": false,
      "t": 197960.35475000468,
      "d": 248.35504791667336,
      "v": 111
    },
    {
      "midi": 70,
      "hit": false,
      "t": 197960.35475000468,
      "d": 261.51293125000666,
      "v": 92
    },
    {
      "midi": 82,
      "hit": false,
      "t": 197960.35475000468,
      "d": 271.3813437500212,
      "v": 92
    },
    {
      "midi": 85,
      "hit": false,
      "t": 198157.72300000468,
      "d": 177.63142500002868,
      "v": 105
    },
    {
      "midi": 73,
      "hit": false,
      "t": 198157.72300000468,
      "d": 180.92089583337656,
      "v": 99
    },
    {
      "midi": 61,
      "hit": false,
      "t": 198157.72300000468,
      "d": 184.21036666672444,
      "v": 101
    },
    {
      "midi": 90,
      "hit": false,
      "t": 198355.09125000474,
      "d": 182.56563125000685,
      "v": 91
    },
    {
      "midi": 78,
      "hit": false,
      "t": 198355.09125000474,
      "d": 218.74981041665887,
      "v": 91
    },
    {
      "midi": 66,
      "hit": false,
      "t": 198355.09125000474,
      "d": 222.03928125000675,
      "v": 97
    },
    {
      "midi": 94,
      "hit": false,
      "t": 198552.45950000474,
      "d": 189.1445729167026,
      "v": 92
    },
    {
      "midi": 70,
      "hit": false,
      "t": 198552.45950000474,
      "d": 208.88139791670255,
      "v": 91
    },
    {
      "midi": 82,
      "hit": false,
      "t": 198552.45950000474,
      "d": 218.74981041671708,
      "v": 92
    },
    {
      "midi": 78,
      "hit": false,
      "t": 198749.82775000477,
      "d": 179.27616041671718,
      "v": 91
    },
    {
      "midi": 90,
      "hit": false,
      "t": 198749.82775000477,
      "d": 203.9471916667244,
      "v": 84
    },
    {
      "midi": 66,
      "hit": false,
      "t": 198749.82775000477,
      "d": 222.03928125006496,
      "v": 87
    },
    {
      "midi": 94,
      "hit": false,
      "t": 198947.19600000483,
      "d": 215.4603395833401,
      "v": 97
    },
    {
      "midi": 70,
      "hit": false,
      "t": 198947.19600000483,
      "d": 273.0260791666806,
      "v": 91
    },
    {
      "midi": 82,
      "hit": false,
      "t": 198947.19600000483,
      "d": 287.82869791667326,
      "v": 91
    },
    {
      "midi": 30,
      "hit": false,
      "t": 198947.19600000483,
      "d": 2909.536952083494,
      "v": 95
    },
    {
      "midi": 42,
      "hit": false,
      "t": 198947.19600000483,
      "d": 3026.313166666834,
      "v": 111
    },
    {
      "midi": 77,
      "hit": false,
      "t": 199144.56425000483,
      "d": 141.44724583334755,
      "v": 96
    },
    {
      "midi": 89,
      "hit": false,
      "t": 199144.56425000483,
      "d": 167.76301250001416,
      "v": 94
    },
    {
      "midi": 65,
      "hit": false,
      "t": 199144.56425000483,
      "d": 238.48663541668793,
      "v": 74
    },
    {
      "midi": 61,
      "hit": false,
      "t": 199341.93250000486,
      "d": 225.32875208332553,
      "v": 91
    },
    {
      "midi": 73,
      "hit": false,
      "t": 199341.93250000486,
      "d": 251.64451874999213,
      "v": 97
    },
    {
      "midi": 85,
      "hit": false,
      "t": 199341.93250000486,
      "d": 282.894491666666,
      "v": 101
    },
    {
      "midi": 58,
      "hit": false,
      "t": 199539.30075000486,
      "d": 161.1840708333475,
      "v": 104
    },
    {
      "midi": 70,
      "hit": false,
      "t": 199539.30075000486,
      "d": 245.06557708335458,
      "v": 95
    },
    {
      "midi": 82,
      "hit": false,
      "t": 199539.30075000486,
      "d": 261.51293125003576,
      "v": 92
    },
    {
      "midi": 61,
      "hit": false,
      "t": 199736.66900000488,
      "d": 184.21036666666623,
      "v": 88
    },
    {
      "midi": 85,
      "hit": false,
      "t": 199736.66900000488,
      "d": 189.1445729166735,
      "v": 109
    },
    {
      "midi": 73,
      "hit": false,
      "t": 199736.66900000488,
      "d": 190.78930833333288,
      "v": 101
    },
    {
      "midi": 89,
      "hit": false,
      "t": 199934.03725000488,
      "d": 179.27616041665897,
      "v": 91
    },
    {
      "midi": 77,
      "hit": false,
      "t": 199934.03725000488,
      "d": 215.4603395833401,
      "v": 94
    },
    {
      "midi": 65,
      "hit": false,
      "t": 199934.03725000488,
      "d": 253.28925416668062,
      "v": 86
    },
    {
      "midi": 70,
      "hit": false,
      "t": 200131.40550000488,
      "d": 207.23666250004317,
      "v": 91
    },
    {
      "midi": 82,
      "hit": false,
      "t": 200131.40550000488,
      "d": 215.4603395833692,
      "v": 97
    },
    {
      "midi": 94,
      "hit": false,
      "t": 200131.40550000488,
      "d": 215.4603395833692,
      "v": 95
    },
    {
      "midi": 89,
      "hit": false,
      "t": 200328.7737500049,
      "d": 197.36824999999953,
      "v": 94
    },
    {
      "midi": 77,
      "hit": false,
      "t": 200328.7737500049,
      "d": 249.99978333333274,
      "v": 94
    },
    {
      "midi": 65,
      "hit": false,
      "t": 200328.7737500049,
      "d": 256.5787249999994,
      "v": 78
    },
    {
      "midi": 94,
      "hit": false,
      "t": 200526.1420000049,
      "d": 235.19716458334005,
      "v": 97
    },
    {
      "midi": 82,
      "hit": false,
      "t": 200526.1420000049,
      "d": 263.15766666666605,
      "v": 105
    },
    {
      "midi": 70,
      "hit": false,
      "t": 200526.1420000049,
      "d": 281.2497562500066,
      "v": 97
    },
    {
      "midi": 77,
      "hit": false,
      "t": 200723.5102500049,
      "d": 136.5130395833403,
      "v": 96
    },
    {
      "midi": 89,
      "hit": false,
      "t": 200723.5102500049,
      "d": 144.73671666666633,
      "v": 88
    },
    {
      "midi": 65,
      "hit": false,
      "t": 200723.5102500049,
      "d": 238.48663541665883,
      "v": 80
    },
    {
      "midi": 61,
      "hit": false,
      "t": 200920.8785000049,
      "d": 240.13137083334732,
      "v": 91
    },
    {
      "midi": 73,
      "hit": false,
      "t": 200920.8785000049,
      "d": 248.35504791667336,
      "v": 105
    },
    {
      "midi": 85,
      "hit": false,
      "t": 200920.8785000049,
      "d": 271.3813437500212,
      "v": 101
    },
    {
      "midi": 58,
      "hit": false,
      "t": 201118.2467500049,
      "d": 220.39454583337647,
      "v": 112
    },
    {
      "midi": 82,
      "hit": false,
      "t": 201118.2467500049,
      "d": 253.28925416670972,
      "v": 92
    },
    {
      "midi": 70,
      "hit": false,
      "t": 201118.2467500049,
      "d": 277.96028541671694,
      "v": 94
    },
    {
      "midi": 85,
      "hit": false,
      "t": 201315.61500000494,
      "d": 190.789308333362,
      "v": 103
    },
    {
      "midi": 73,
      "hit": false,
      "t": 201315.61500000494,
      "d": 199.01298541668802,
      "v": 103
    },
    {
      "midi": 61,
      "hit": false,
      "t": 201315.61500000494,
      "d": 217.1050750000286,
      "v": 95
    },
    {
      "midi": 89,
      "hit": false,
      "t": 201512.98325000497,
      "d": 185.85510208332562,
      "v": 88
    },
    {
      "midi": 77,
      "hit": false,
      "t": 201512.98325000497,
      "d": 231.90769374999218,
      "v": 91
    },
    {
      "midi": 65,
      "hit": false,
      "t": 201512.98325000497,
      "d": 241.7761062500067,
      "v": 80
    },
    {
      "midi": 94,
      "hit": false,
      "t": 201710.35150000497,
      "d": 192.43404375002137,
      "v": 99
    },
    {
      "midi": 70,
      "hit": false,
      "t": 201710.35150000497,
      "d": 210.52613333336194,
      "v": 88
    },
    {
      "midi": 82,
      "hit": false,
      "t": 201710.35150000497,
      "d": 212.17086875002133,
      "v": 105
    },
    {
      "midi": 89,
      "hit": false,
      "t": 201907.719750005,
      "d": 208.88139791667345,
      "v": 91
    },
    {
      "midi": 65,
      "hit": false,
      "t": 201907.719750005,
      "d": 223.68401666666614,
      "v": 78
    },
    {
      "midi": 77,
      "hit": false,
      "t": 201907.719750005,
      "d": 231.90769374999218,
      "v": 88
    },
    {
      "midi": 82,
      "hit": false,
      "t": 202105.088000005,
      "d": 249.99978333333274,
      "v": 101
    },
    {
      "midi": 94,
      "hit": false,
      "t": 202105.088000005,
      "d": 251.64451874999213,
      "v": 95
    },
    {
      "midi": 70,
      "hit": false,
      "t": 202105.088000005,
      "d": 317.43393541668775,
      "v": 92
    },
    {
      "midi": 30,
      "hit": false,
      "t": 202105.088000005,
      "d": 2764.8002354168275,
      "v": 96
    },
    {
      "midi": 42,
      "hit": false,
      "t": 202105.088000005,
      "d": 2820.7212395835086,
      "v": 113
    },
    {
      "midi": 76,
      "hit": false,
      "t": 202302.456250005,
      "d": 166.11827708335477,
      "v": 91
    },
    {
      "midi": 88,
      "hit": false,
      "t": 202302.456250005,
      "d": 166.11827708335477,
      "v": 87
    },
    {
      "midi": 64,
      "hit": false,
      "t": 202302.456250005,
      "d": 240.13137083337642,
      "v": 86
    },
    {
      "midi": 61,
      "hit": false,
      "t": 202499.82450000502,
      "d": 240.13137083337642,
      "v": 80
    },
    {
      "midi": 73,
      "hit": false,
      "t": 202499.82450000502,
      "d": 241.7761062500358,
      "v": 106
    },
    {
      "midi": 85,
      "hit": false,
      "t": 202499.82450000502,
      "d": 245.0655770833837,
      "v": 103
    },
    {
      "midi": 82,
      "hit": false,
      "t": 202697.19275000505,
      "d": 167.76301250001416,
      "v": 94
    },
    {
      "midi": 70,
      "hit": false,
      "t": 202697.19275000505,
      "d": 236.84190000002855,
      "v": 96
    },
    {
      "midi": 58,
      "hit": false,
      "t": 202697.19275000505,
      "d": 240.13137083337642,
      "v": 101
    },
    {
      "midi": 73,
      "hit": false,
      "t": 202894.56100000508,
      "d": 175.9866895833402,
      "v": 101
    },
    {
      "midi": 85,
      "hit": false,
      "t": 202894.56100000508,
      "d": 182.56563125000685,
      "v": 103
    },
    {
      "midi": 61,
      "hit": false,
      "t": 202894.56100000508,
      "d": 245.06557708332548,
      "v": 95
    },
    {
      "midi": 88,
      "hit": false,
      "t": 203091.92925000508,
      "d": 231.90769374999218,
      "v": 91
    },
    {
      "midi": 76,
      "hit": false,
      "t": 203091.92925000508,
      "d": 254.93398958334,
      "v": 91
    },
    {
      "midi": 64,
      "hit": false,
      "t": 203091.92925000508,
      "d": 266.4471375000139,
      "v": 86
    },
    {
      "midi": 94,
      "hit": false,
      "t": 203289.29750000508,
      "d": 212.17086875002133,
      "v": 96
    },
    {
      "midi": 70,
      "hit": false,
      "t": 203289.29750000508,
      "d": 235.19716458336916,
      "v": 91
    },
    {
      "midi": 82,
      "hit": false,
      "t": 203289.29750000508,
      "d": 245.0655770833837,
      "v": 105
    },
    {
      "midi": 88,
      "hit": false,
      "t": 203486.6657500051,
      "d": 195.72351458336925,
      "v": 91
    },
    {
      "midi": 64,
      "hit": false,
      "t": 203486.6657500051,
      "d": 225.32875208335463,
      "v": 84
    },
    {
      "midi": 76,
      "hit": false,
      "t": 203486.6657500051,
      "d": 268.0918729167024,
      "v": 91
    },
    {
      "midi": 94,
      "hit": false,
      "t": 203684.03400000514,
      "d": 261.51293125000666,
      "v": 99
    },
    {
      "midi": 82,
      "hit": false,
      "t": 203684.03400000514,
      "d": 276.31554999999935,
      "v": 112
    },
    {
      "midi": 70,
      "hit": false,
      "t": 203684.03400000514,
      "d": 312.4997291666805,
      "v": 91
    },
    {
      "midi": 88,
      "hit": false,
      "t": 203881.40225000514,
      "d": 131.57883333336213,
      "v": 92
    },
    {
      "midi": 76,
      "hit": false,
      "t": 203881.40225000514,
      "d": 149.6709229167027,
      "v": 91
    },
    {
      "midi": 64,
      "hit": false,
      "t": 203881.40225000514,
      "d": 218.74981041668798,
      "v": 84
    },
    {
      "midi": 61,
      "hit": false,
      "t": 204078.77050000516,
      "d": 228.6182229166734,
      "v": 97
    },
    {
      "midi": 73,
      "hit": false,
      "t": 204078.77050000516,
      "d": 254.93398958334,
      "v": 111
    },
    {
      "midi": 85,
      "hit": false,
      "t": 204078.77050000516,
      "d": 259.8681958333473,
      "v": 101
    },
    {
      "midi": 58,
      "hit": false,
      "t": 204276.13875000516,
      "d": 189.1445729166735,
      "v": 116
    },
    {
      "midi": 82,
      "hit": false,
      "t": 204276.13875000516,
      "d": 253.28925416668062,
      "v": 95
    },
    {
      "midi": 70,
      "hit": false,
      "t": 204276.13875000516,
      "d": 261.51293125000666,
      "v": 94
    },
    {
      "midi": 85,
      "hit": false,
      "t": 204473.50700000516,
      "d": 177.63142499999958,
      "v": 105
    },
    {
      "midi": 73,
      "hit": false,
      "t": 204473.50700000516,
      "d": 207.23666250001406,
      "v": 111
    },
    {
      "midi": 61,
      "hit": false,
      "t": 204473.50700000516,
      "d": 208.88139791667345,
      "v": 88
    },
    {
      "midi": 76,
      "hit": false,
      "t": 204670.87525000516,
      "d": 230.2629583333328,
      "v": 99
    },
    {
      "midi": 88,
      "hit": false,
      "t": 204670.87525000516,
      "d": 236.84189999999944,
      "v": 91
    },
    {
      "midi": 64,
      "hit": false,
      "t": 204670.87525000516,
      "d": 266.4471375000139,
      "v": 83
    },
    {
      "midi": 94,
      "hit": false,
      "t": 204868.24350000516,
      "d": 195.72351458334015,
      "v": 92
    },
    {
      "midi": 82,
      "hit": false,
      "t": 204868.24350000516,
      "d": 223.68401666666614,
      "v": 112
    },
    {
      "midi": 70,
      "hit": false,
      "t": 204868.24350000516,
      "d": 236.84189999999944,
      "v": 91
    },
    {
      "midi": 88,
      "hit": false,
      "t": 205065.61175000516,
      "d": 171.05248333333293,
      "v": 86
    },
    {
      "midi": 76,
      "hit": false,
      "t": 205065.61175000516,
      "d": 180.92089583334746,
      "v": 91
    },
    {
      "midi": 64,
      "hit": false,
      "t": 205065.61175000516,
      "d": 249.99978333333274,
      "v": 71
    },
    {
      "midi": 94,
      "hit": false,
      "t": 205262.98000000516,
      "d": 277.96028541665873,
      "v": 103
    },
    {
      "midi": 82,
      "hit": false,
      "t": 205262.98000000516,
      "d": 282.894491666666,
      "v": 109
    },
    {
      "midi": 70,
      "hit": false,
      "t": 205262.98000000516,
      "d": 447.3680333333323,
      "v": 91
    },
    {
      "midi": 42,
      "hit": false,
      "t": 205262.98000000516,
      "d": 3041.115785416914,
      "v": 111
    },
    {
      "midi": 30,
      "hit": false,
      "t": 205262.98000000516,
      "d": 3050.9841979168996,
      "v": 95
    },
    {
      "midi": 77,
      "hit": false,
      "t": 205460.34825000516,
      "d": 162.8288062500069,
      "v": 96
    },
    {
      "midi": 89,
      "hit": false,
      "t": 205460.34825000516,
      "d": 184.21036666666623,
      "v": 94
    },
    {
      "midi": 65,
      "hit": false,
      "t": 205460.34825000516,
      "d": 243.4208416666661,
      "v": 77
    },
    {
      "midi": 61,
      "hit": false,
      "t": 205657.71650000516,
      "d": 240.13137083334732,
      "v": 86
    },
    {
      "midi": 73,
      "hit": false,
      "t": 205657.71650000516,
      "d": 241.7761062500067,
      "v": 115
    },
    {
      "midi": 85,
      "hit": false,
      "t": 205657.71650000516,
      "d": 254.93398958334,
      "v": 103
    },
    {
      "midi": 58,
      "hit": false,
      "t": 205855.08475000516,
      "d": 218.74981041665887,
      "v": 105
    },
    {
      "midi": 70,
      "hit": false,
      "t": 205855.08475000516,
      "d": 243.4208416666661,
      "v": 96
    },
    {
      "midi": 82,
      "hit": false,
      "t": 205855.08475000516,
      "d": 268.0918729166733,
      "v": 92
    },
    {
      "midi": 61,
      "hit": false,
      "t": 206052.45300000516,
      "d": 166.11827708335477,
      "v": 86
    },
    {
      "midi": 85,
      "hit": false,
      "t": 206052.45300000516,
      "d": 177.63142500002868,
      "v": 103
    },
    {
      "midi": 73,
      "hit": false,
      "t": 206052.45300000516,
      "d": 213.81560416670982,
      "v": 111
    },
    {
      "midi": 89,
      "hit": false,
      "t": 206249.8212500052,
      "d": 215.4603395833692,
      "v": 95
    },
    {
      "midi": 77,
      "hit": false,
      "t": 206249.8212500052,
      "d": 235.19716458336916,
      "v": 91
    },
    {
      "midi": 65,
      "hit": false,
      "t": 206249.8212500052,
      "d": 304.27605208338355,
      "v": 82
    },
    {
      "midi": 70,
      "hit": false,
      "t": 206447.18950000522,
      "d": 212.17086875002133,
      "v": 91
    },
    {
      "midi": 82,
      "hit": false,
      "t": 206447.18950000522,
      "d": 215.4603395833692,
      "v": 113
    },
    {
      "midi": 94,
      "hit": false,
      "t": 206447.18950000522,
      "d": 220.39454583337647,
      "v": 92
    },
    {
      "midi": 65,
      "hit": false,
      "t": 206644.55775000525,
      "d": 238.48663541668793,
      "v": 72
    },
    {
      "midi": 89,
      "hit": false,
      "t": 206644.55775000525,
      "d": 245.06557708335458,
      "v": 99
    },
    {
      "midi": 77,
      "hit": false,
      "t": 206644.55775000525,
      "d": 256.5787250000285,
      "v": 99
    },
    {
      "midi": 94,
      "hit": false,
      "t": 206841.92600000527,
      "d": 194.07877916668076,
      "v": 94
    },
    {
      "midi": 70,
      "hit": false,
      "t": 206841.92600000527,
      "d": 236.84190000002855,
      "v": 96
    },
    {
      "midi": 82,
      "hit": false,
      "t": 206841.92600000527,
      "d": 258.2234604166879,
      "v": 112
    },
    {
      "midi": 89,
      "hit": false,
      "t": 207039.2942500053,
      "d": 149.6709229166736,
      "v": 97
    },
    {
      "midi": 65,
      "hit": false,
      "t": 207039.2942500053,
      "d": 200.6577208333474,
      "v": 74
    },
    {
      "midi": 77,
      "hit": false,
      "t": 207039.2942500053,
      "d": 205.59192708335468,
      "v": 101
    },
    {
      "midi": 73,
      "hit": false,
      "t": 207236.6625000053,
      "d": 231.90769375002128,
      "v": 109
    },
    {
      "midi": 85,
      "hit": false,
      "t": 207236.6625000053,
      "d": 235.19716458336916,
      "v": 109
    },
    {
      "midi": 61,
      "hit": false,
      "t": 207236.6625000053,
      "d": 251.64451875005034,
      "v": 82
    },
    {
      "midi": 58,
      "hit": false,
      "t": 207434.03075000533,
      "d": 240.13137083337642,
      "v": 104
    },
    {
      "midi": 70,
      "hit": false,
      "t": 207434.03075000533,
      "d": 243.4208416667243,
      "v": 96
    },
    {
      "midi": 82,
      "hit": false,
      "t": 207434.03075000533,
      "d": 269.7366083333909,
      "v": 91
    },
    {
      "midi": 61,
      "hit": false,
      "t": 207631.39900000536,
      "d": 156.24986458336934,
      "v": 91
    },
    {
      "midi": 73,
      "hit": false,
      "t": 207631.39900000536,
      "d": 184.21036666669534,
      "v": 103
    },
    {
      "midi": 85,
      "hit": false,
      "t": 207631.39900000536,
      "d": 205.59192708335468,
      "v": 105
    },
    {
      "midi": 65,
      "hit": false,
      "t": 207828.7672500054,
      "d": 220.39454583334737,
      "v": 79
    },
    {
      "midi": 89,
      "hit": false,
      "t": 207828.7672500054,
      "d": 246.71031250001397,
      "v": 96
    },
    {
      "midi": 77,
      "hit": false,
      "t": 207828.7672500054,
      "d": 253.28925416668062,
      "v": 94
    },
    {
      "midi": 82,
      "hit": false,
      "t": 208026.1355000054,
      "d": 212.17086875002133,
      "v": 111
    },
    {
      "midi": 94,
      "hit": false,
      "t": 208026.1355000054,
      "d": 225.32875208335463,
      "v": 95
    },
    {
      "midi": 70,
      "hit": false,
      "t": 208026.1355000054,
      "d": 249.99978333336185,
      "v": 91
    },
    {
      "midi": 77,
      "hit": false,
      "t": 208223.50375000542,
      "d": 82.23677083331859,
      "v": 91
    },
    {
      "midi": 65,
      "hit": false,
      "t": 208223.50375000542,
      "d": 101.97359583331854,
      "v": 72
    },
    {
      "midi": 89,
      "hit": false,
      "t": 208223.50375000542,
      "d": 110.19727291664458,
      "v": 103
    },
    {
      "midi": 54,
      "hit": false,
      "t": 208420.8720000054,
      "d": 263.15766666666605,
      "v": 113
    },
    {
      "midi": 61,
      "hit": false,
      "t": 208420.8720000054,
      "d": 358.55232083334704,
      "v": 116
    },
    {
      "midi": 66,
      "hit": false,
      "t": 208420.8720000054,
      "d": 537.8284812500351,
      "v": 106
    },
    {
      "midi": 70,
      "hit": false,
      "t": 208420.8720000054,
      "d": 569.078454166709,
      "v": 115
    },
    {
      "midi": 42,
      "hit": false,
      "t": 208420.8720000054,
      "d": 1506.5776416667213,
      "v": 96
    },
    {
      "midi": 61,
      "hit": false,
      "t": 208815.60850000542,
      "d": 185.85510208335472,
      "v": 80
    },
    {
      "midi": 54,
      "hit": false,
      "t": 208815.60850000542,
      "d": 610.1968395833683,
      "v": 112
    },
    {
      "midi": 66,
      "hit": false,
      "t": 209210.34500000544,
      "d": 361.8417916666658,
      "v": 101
    },
    {
      "midi": 61,
      "hit": false,
      "t": 209210.34500000544,
      "d": 394.73649999999907,
      "v": 116
    },
    {
      "midi": 70,
      "hit": false,
      "t": 209210.34500000544,
      "d": 440.7890916666656,
      "v": 109
    },
    {
      "midi": 54,
      "hit": false,
      "t": 209605.08150000544,
      "d": 254.93398958334,
      "v": 72
    },
    {
      "midi": 61,
      "hit": false,
      "t": 209802.44975000544,
      "d": 236.84189999999944,
      "v": 116
    },
    {
      "midi": 66,
      "hit": false,
      "t": 209802.44975000544,
      "d": 509.86797916668,
      "v": 97
    },
    {
      "midi": 70,
      "hit": false,
      "t": 209802.44975000544,
      "d": 554.2758354166872,
      "v": 112
    },
    {
      "midi": 54,
      "hit": false,
      "t": 209999.81800000544,
      "d": 143.09198125000694,
      "v": 86
    },
    {
      "midi": 42,
      "hit": false,
      "t": 209999.81800000544,
      "d": 1374.9988083333592,
      "v": 68
    },
    {
      "midi": 61,
      "hit": false,
      "t": 210197.18625000544,
      "d": 161.1840708333475,
      "v": 91
    },
    {
      "midi": 54,
      "hit": false,
      "t": 210394.55450000547,
      "d": 850.3282104166574,
      "v": 113
    },
    {
      "midi": 61,
      "hit": false,
      "t": 210789.29100000547,
      "d": 212.17086874999222,
      "v": 116
    },
    {
      "midi": 66,
      "hit": false,
      "t": 210789.29100000547,
      "d": 383.22335208332515,
      "v": 101
    },
    {
      "midi": 70,
      "hit": false,
      "t": 210789.29100000547,
      "d": 526.3153333333321,
      "v": 113
    },
    {
      "midi": 61,
      "hit": false,
      "t": 211184.02750000547,
      "d": 108.55253749998519,
      "v": 77
    },
    {
      "midi": 54,
      "hit": false,
      "t": 211578.76400000547,
      "d": 251.64451875002123,
      "v": 113
    },
    {
      "midi": 61,
      "hit": false,
      "t": 211578.76400000547,
      "d": 476.97327083337586,
      "v": 116
    },
    {
      "midi": 65,
      "hit": false,
      "t": 211578.76400000547,
      "d": 496.7100958333758,
      "v": 91
    },
    {
      "midi": 70,
      "hit": false,
      "t": 211578.76400000547,
      "d": 552.6311000000569,
      "v": 96
    },
    {
      "midi": 42,
      "hit": false,
      "t": 211578.76400000547,
      "d": 1277.9594187501061,
      "v": 88
    },
    {
      "midi": 54,
      "hit": false,
      "t": 211973.5005000055,
      "d": 601.9731625000422,
      "v": 105
    },
    {
      "midi": 61,
      "hit": false,
      "t": 212368.23700000552,
      "d": 273.0260791666806,
      "v": 116
    },
    {
      "midi": 65,
      "hit": false,
      "t": 212368.23700000552,
      "d": 282.8944916666951,
      "v": 95
    },
    {
      "midi": 70,
      "hit": false,
      "t": 212368.23700000552,
      "d": 358.55232083337614,
      "v": 106
    },
    {
      "midi": 54,
      "hit": false,
      "t": 212762.97350000558,
      "d": 192.43404374999227,
      "v": 77
    },
    {
      "midi": 61,
      "hit": false,
      "t": 212960.34175000558,
      "d": 217.1050749999995,
      "v": 116
    },
    {
      "midi": 65,
      "hit": false,
      "t": 212960.34175000558,
      "d": 513.1574499999988,
      "v": 94
    },
    {
      "midi": 70,
      "hit": false,
      "t": 212960.34175000558,
      "d": 587.1705437499913,
      "v": 96
    },
    {
      "midi": 54,
      "hit": false,
      "t": 213157.71000000558,
      "d": 139.80251041665906,
      "v": 87
    },
    {
      "midi": 42,
      "hit": false,
      "t": 213157.71000000558,
      "d": 1146.3805854166858,
      "v": 77
    },
    {
      "midi": 61,
      "hit": false,
      "t": 213355.07825000558,
      "d": 159.53933541665901,
      "v": 83
    },
    {
      "midi": 54,
      "hit": false,
      "t": 213552.44650000558,
      "d": 827.3019145833678,
      "v": 113
    },
    {
      "midi": 61,
      "hit": false,
      "t": 213947.18300000558,
      "d": 208.88139791667345,
      "v": 116
    },
    {
      "midi": 65,
      "hit": false,
      "t": 213947.18300000558,
      "d": 402.9601770833542,
      "v": 99
    },
    {
      "midi": 70,
      "hit": false,
      "t": 213947.18300000558,
      "d": 485.1969479167019,
      "v": 99
    },
    {
      "midi": 61,
      "hit": false,
      "t": 214341.9195000056,
      "d": 50.98679791667382,
      "v": 63
    },
    {
      "midi": 61,
      "hit": false,
      "t": 214736.65600000563,
      "d": 220.39454583334737,
      "v": 116
    },
    {
      "midi": 54,
      "hit": false,
      "t": 214736.65600000563,
      "d": 254.93398958334,
      "v": 115
    },
    {
      "midi": 64,
      "hit": false,
      "t": 214736.65600000563,
      "d": 393.0917645833397,
      "v": 104
    },
    {
      "midi": 70,
      "hit": false,
      "t": 214736.65600000563,
      "d": 406.249647916673,
      "v": 103
    },
    {
      "midi": 42,
      "hit": false,
      "t": 214736.65600000563,
      "d": 1254.9331229167292,
      "v": 78
    },
    {
      "midi": 61,
      "hit": false,
      "t": 215131.39250000563,
      "d": 100.32886041668826,
      "v": 70
    },
    {
      "midi": 54,
      "hit": false,
      "t": 215131.39250000563,
      "d": 570.7231895833684,
      "v": 99
    },
    {
      "midi": 61,
      "hit": false,
      "t": 215526.12900000566,
      "d": 202.3024562500068,
      "v": 116
    },
    {
      "midi": 64,
      "hit": false,
      "t": 215526.12900000566,
      "d": 289.47343333333265,
      "v": 97
    },
    {
      "midi": 70,
      "hit": false,
      "t": 215526.12900000566,
      "d": 305.92078750001383,
      "v": 105
    },
    {
      "midi": 54,
      "hit": false,
      "t": 215920.8655000057,
      "d": 203.94719166666619,
      "v": 71
    },
    {
      "midi": 61,
      "hit": false,
      "t": 216118.2337500057,
      "d": 218.74981041665887,
      "v": 113
    },
    {
      "midi": 64,
      "hit": false,
      "t": 216118.2337500057,
      "d": 499.9995666666655,
      "v": 97
    },
    {
      "midi": 70,
      "hit": false,
      "t": 216118.2337500057,
      "d": 567.4337187500205,
      "v": 99
    },
    {
      "midi": 54,
      "hit": false,
      "t": 216315.6020000057,
      "d": 195.72351458334015,
      "v": 105
    },
    {
      "midi": 42,
      "hit": false,
      "t": 216315.6020000057,
      "d": 1100.3279937500192,
      "v": 77
    },
    {
      "midi": 61,
      "hit": false,
      "t": 216512.9702500057,
      "d": 149.6709229166736,
      "v": 73
    },
    {
      "midi": 54,
      "hit": false,
      "t": 216710.33850000572,
      "d": 751.6440854166576,
      "v": 115
    },
    {
      "midi": 61,
      "hit": false,
      "t": 217105.07500000572,
      "d": 203.94719166666619,
      "v": 116
    },
    {
      "midi": 64,
      "hit": false,
      "t": 217105.07500000572,
      "d": 407.89438333333237,
      "v": 112
    },
    {
      "midi": 70,
      "hit": false,
      "t": 217105.07500000572,
      "d": 468.7495937499916,
      "v": 106
    },
    {
      "midi": 61,
      "hit": false,
      "t": 217499.81150000572,
      "d": 108.55253749998519,
      "v": 63
    },
    {
      "midi": 54,
      "hit": false,
      "t": 217894.54800000569,
      "d": 269.7366083333327,
      "v": 116
    },
    {
      "midi": 61,
      "hit": false,
      "t": 217894.54800000569,
      "d": 274.67081458333996,
      "v": 116
    },
    {
      "midi": 65,
      "hit": false,
      "t": 217894.54800000569,
      "d": 429.2759437499917,
      "v": 91
    },
    {
      "midi": 70,
      "hit": false,
      "t": 217894.54800000569,
      "d": 457.2364458333177,
      "v": 96
    },
    {
      "midi": 42,
      "hit": false,
      "t": 217894.54800000569,
      "d": 1333.8804229167,
      "v": 82
    },
    {
      "midi": 61,
      "hit": false,
      "t": 218289.28450000568,
      "d": 139.80251041665906,
      "v": 76
    },
    {
      "midi": 54,
      "hit": false,
      "t": 218289.28450000568,
      "d": 583.8810729166726,
      "v": 105
    },
    {
      "midi": 65,
      "hit": false,
      "t": 218684.02100000568,
      "d": 277.96028541668784,
      "v": 91
    },
    {
      "midi": 61,
      "hit": false,
      "t": 218684.02100000568,
      "d": 279.6050208333472,
      "v": 116
    },
    {
      "midi": 70,
      "hit": false,
      "t": 218684.02100000568,
      "d": 432.5654145833687,
      "v": 103
    },
    {
      "midi": 54,
      "hit": false,
      "t": 219078.7575000057,
      "d": 202.3024562500068,
      "v": 77
    },
    {
      "midi": 61,
      "hit": false,
      "t": 219276.1257500057,
      "d": 220.39454583334737,
      "v": 116
    },
    {
      "midi": 65,
      "hit": false,
      "t": 219276.1257500057,
      "d": 462.17065208335407,
      "v": 91
    },
    {
      "midi": 70,
      "hit": false,
      "t": 219276.1257500057,
      "d": 669.4073145833681,
      "v": 96
    },
    {
      "midi": 54,
      "hit": false,
      "t": 219473.4940000057,
      "d": 187.4998375000141,
      "v": 99
    },
    {
      "midi": 42,
      "hit": false,
      "t": 219473.4940000057,
      "d": 847.0387395833677,
      "v": 74
    },
    {
      "midi": 61,
      "hit": false,
      "t": 219670.86225000574,
      "d": 259.8681958333473,
      "v": 91
    },
    {
      "midi": 65,
      "hit": false,
      "t": 219868.23050000574,
      "d": 83.88150625000708,
      "v": 63
    },
    {
      "midi": 54,
      "hit": false,
      "t": 219868.23050000574,
      "d": 626.6441937500203,
      "v": 116
    },
    {
      "midi": 61,
      "hit": false,
      "t": 220262.96700000574,
      "d": 220.39454583334737,
      "v": 116
    },
    {
      "midi": 65,
      "hit": false,
      "t": 220262.96700000574,
      "d": 368.42073333336157,
      "v": 101
    },
    {
      "midi": 70,
      "hit": false,
      "t": 220262.96700000574,
      "d": 422.69700208335416,
      "v": 103
    },
    {
      "midi": 61,
      "hit": false,
      "t": 220657.70350000577,
      "d": 113.48674374999246,
      "v": 80
    },
    {
      "midi": 61,
      "hit": false,
      "t": 221052.44000000576,
      "d": 263.15766666666605,
      "v": 116
    },
    {
      "midi": 54,
      "hit": false,
      "t": 221052.44000000576,
      "d": 276.31554999999935,
      "v": 115
    },
    {
      "midi": 66,
      "hit": false,
      "t": 221052.44000000576,
      "d": 468.7495937499916,
      "v": 96
    },
    {
      "midi": 70,
      "hit": false,
      "t": 221052.44000000576,
      "d": 496.7100958333176,
      "v": 106
    },
    {
      "midi": 42,
      "hit": false,
      "t": 221052.44000000576,
      "d": 1263.1568000000261,
      "v": 80
    },
    {
      "midi": 61,
      "hit": false,
      "t": 221447.17650000576,
      "d": 152.96039374999236,
      "v": 77
    },
    {
      "midi": 54,
      "hit": false,
      "t": 221447.17650000576,
      "d": 648.0257541666797,
      "v": 106
    },
    {
      "midi": 61,
      "hit": false,
      "t": 221841.91300000576,
      "d": 381.57861666669487,
      "v": 116
    },
    {
      "midi": 66,
      "hit": false,
      "t": 221841.91300000576,
      "d": 485.1969479167019,
      "v": 94
    },
    {
      "midi": 70,
      "hit": false,
      "t": 221841.91300000576,
      "d": 486.8416833333613,
      "v": 106
    },
    {
      "midi": 54,
      "hit": false,
      "t": 222236.6495000058,
      "d": 180.92089583334746,
      "v": 77
    },
    {
      "midi": 61,
      "hit": false,
      "t": 222434.01775000582,
      "d": 236.84189999999944,
      "v": 115
    },
    {
      "midi": 66,
      "hit": false,
      "t": 222434.01775000582,
      "d": 399.67070625003544,
      "v": 96
    },
    {
      "midi": 70,
      "hit": false,
      "t": 222434.01775000582,
      "d": 644.7362833333609,
      "v": 103
    },
    {
      "midi": 54,
      "hit": false,
      "t": 222631.38600000582,
      "d": 174.3419541666808,
      "v": 95
    },
    {
      "midi": 42,
      "hit": false,
      "t": 222631.38600000582,
      "d": 1088.8148458333453,
      "v": 71
    },
    {
      "midi": 61,
      "hit": false,
      "t": 222828.75425000585,
      "d": 251.64451874999213,
      "v": 77
    },
    {
      "midi": 66,
      "hit": false,
      "t": 223026.12250000585,
      "d": 98.68412499999977,
      "v": 68
    },
    {
      "midi": 54,
      "hit": false,
      "t": 223026.12250000585,
      "d": 774.6703812500054,
      "v": 109
    },
    {
      "midi": 61,
      "hit": false,
      "t": 223420.85900000585,
      "d": 218.74981041665887,
      "v": 116
    },
    {
      "midi": 66,
      "hit": false,
      "t": 223420.85900000585,
      "d": 328.94708333333256,
      "v": 94
    },
    {
      "midi": 70,
      "hit": false,
      "t": 223420.85900000585,
      "d": 432.5654145833396,
      "v": 111
    },
    {
      "midi": 61,
      "hit": false,
      "t": 223815.59550000585,
      "d": 131.57883333333302,
      "v": 75
    },
    {
      "midi": 54,
      "hit": false,
      "t": 224210.33200000584,
      "d": 253.28925416668062,
      "v": 116
    },
    {
      "midi": 61,
      "hit": false,
      "t": 224210.33200000584,
      "d": 253.28925416668062,
      "v": 116
    },
    {
      "midi": 65,
      "hit": false,
      "t": 224210.33200000584,
      "d": 444.0785625000426,
      "v": 82
    },
    {
      "midi": 70,
      "hit": false,
      "t": 224210.33200000584,
      "d": 472.0390645833686,
      "v": 97
    },
    {
      "midi": 42,
      "hit": false,
      "t": 224210.33200000584,
      "d": 1266.446270833403,
      "v": 86
    },
    {
      "midi": 61,
      "hit": false,
      "t": 224605.06850000587,
      "d": 103.61833125000703,
      "v": 70
    },
    {
      "midi": 54,
      "hit": false,
      "t": 224605.06850000587,
      "d": 634.8678708333464,
      "v": 111
    },
    {
      "midi": 61,
      "hit": false,
      "t": 224999.80500000587,
      "d": 271.3813437500212,
      "v": 116
    },
    {
      "midi": 65,
      "hit": false,
      "t": 224999.80500000587,
      "d": 287.82869791670237,
      "v": 91
    },
    {
      "midi": 70,
      "hit": false,
      "t": 224999.80500000587,
      "d": 355.26285000002827,
      "v": 103
    },
    {
      "midi": 54,
      "hit": false,
      "t": 225394.5415000059,
      "d": 208.88139791670255,
      "v": 74
    },
    {
      "midi": 61,
      "hit": false,
      "t": 225591.90975000593,
      "d": 213.8156041666807,
      "v": 115
    },
    {
      "midi": 65,
      "hit": false,
      "t": 225591.90975000593,
      "d": 411.18385416668025,
      "v": 94
    },
    {
      "midi": 70,
      "hit": false,
      "t": 225591.90975000593,
      "d": 600.3284270833537,
      "v": 99
    },
    {
      "midi": 54,
      "hit": false,
      "t": 225789.27800000593,
      "d": 149.6709229166736,
      "v": 80
    },
    {
      "midi": 42,
      "hit": false,
      "t": 225789.27800000593,
      "d": 1215.4594729167002,
      "v": 70
    },
    {
      "midi": 61,
      "hit": false,
      "t": 225986.64625000593,
      "d": 225.32875208335463,
      "v": 79
    },
    {
      "midi": 65,
      "hit": false,
      "t": 226184.01450000596,
      "d": 75.65782916665194,
      "v": 63
    },
    {
      "midi": 54,
      "hit": false,
      "t": 226184.01450000596,
      "d": 791.1177354166575,
      "v": 115
    },
    {
      "midi": 61,
      "hit": false,
      "t": 226578.75100000596,
      "d": 222.03928125000675,
      "v": 116
    },
    {
      "midi": 65,
      "hit": false,
      "t": 226578.75100000596,
      "d": 393.0917645833397,
      "v": 96
    },
    {
      "midi": 70,
      "hit": false,
      "t": 226578.75100000596,
      "d": 453.94697499999893,
      "v": 99
    },
    {
      "midi": 61,
      "hit": false,
      "t": 226973.48750000595,
      "d": 113.48674374999246,
      "v": 82
    },
    {
      "midi": 61,
      "hit": false,
      "t": 227368.22400000595,
      "d": 245.06557708332548,
      "v": 116
    },
    {
      "midi": 54,
      "hit": false,
      "t": 227368.22400000595,
      "d": 292.7629041666514,
      "v": 116
    },
    {
      "midi": 64,
      "hit": false,
      "t": 227368.22400000595,
      "d": 401.3154416666657,
      "v": 104
    },
    {
      "midi": 70,
      "hit": false,
      "t": 227368.22400000595,
      "d": 442.433827083325,
      "v": 95
    },
    {
      "midi": 42,
      "hit": false,
      "t": 227368.22400000595,
      "d": 1789.472133333329,
      "v": 80
    },
    {
      "midi": 61,
      "hit": false,
      "t": 227762.96050000595,
      "d": 128.28936249998515,
      "v": 79
    },
    {
      "midi": 54,
      "hit": false,
      "t": 227762.96050000595,
      "d": 564.1442479166726,
      "v": 105
    },
    {
      "midi": 61,
      "hit": false,
      "t": 228157.69700000595,
      "d": 212.17086875002133,
      "v": 116
    },
    {
      "midi": 70,
      "hit": false,
      "t": 228157.69700000595,
      "d": 299.3418458333472,
      "v": 106
    },
    {
      "midi": 64,
      "hit": false,
      "t": 228157.69700000595,
      "d": 314.14446458333987,
      "v": 109
    },
    {
      "midi": 54,
      "hit": false,
      "t": 228552.43350000595,
      "d": 245.06557708332548,
      "v": 76
    },
    {
      "midi": 61,
      "hit": false,
      "t": 228749.80175000595,
      "d": 245.06557708332548,
      "v": 116
    },
    {
      "midi": 64,
      "hit": false,
      "t": 228749.80175000595,
      "d": 445.7232979166729,
      "v": 92
    },
    {
      "midi": 70,
      "hit": false,
      "t": 228749.80175000595,
      "d": 634.8678708333464,
      "v": 96
    },
    {
      "midi": 54,
      "hit": false,
      "t": 228947.17000000595,
      "d": 215.4603395833401,
      "v": 71
    },
    {
      "midi": 61,
      "hit": false,
      "t": 229144.53825000595,
      "d": 223.68401666666614,
      "v": 76
    },
    {
      "midi": 64,
      "hit": false,
      "t": 229341.90650000595,
      "d": 52.63153333336231,
      "v": 63
    },
    {
      "midi": 42,
      "hit": false,
      "t": 229341.90650000595,
      "d": 751.6440854166867,
      "v": 82
    },
    {
      "midi": 54,
      "hit": false,
      "t": 229341.90650000595,
      "d": 769.7361750000273,
      "v": 111
    },
    {
      "midi": 61,
      "hit": false,
      "t": 229736.64300000598,
      "d": 217.1050749999995,
      "v": 116
    },
    {
      "midi": 64,
      "hit": false,
      "t": 229736.64300000598,
      "d": 360.1970562500064,
      "v": 111
    },
    {
      "midi": 70,
      "hit": false,
      "t": 229736.64300000598,
      "d": 450.65750416668016,
      "v": 96
    },
    {
      "midi": 61,
      "hit": false,
      "t": 230131.37950000598,
      "d": 115.13147916668095,
      "v": 82
    },
    {
      "midi": 61,
      "hit": false,
      "t": 230526.116000006,
      "d": 240.13137083331821,
      "v": 116
    },
    {
      "midi": 54,
      "hit": false,
      "t": 230526.116000006,
      "d": 273.02607916665147,
      "v": 109
    },
    {
      "midi": 65,
      "hit": false,
      "t": 230526.116000006,
      "d": 404.6049125000136,
      "v": 88
    },
    {
      "midi": 70,
      "hit": false,
      "t": 230526.116000006,
      "d": 445.7232979166729,
      "v": 97
    },
    {
      "midi": 42,
      "hit": false,
      "t": 230526.116000006,
      "d": 1249.998916666722,
      "v": 83
    },
    {
      "midi": 61,
      "hit": false,
      "t": 230920.852500006,
      "d": 136.5130395833403,
      "v": 79
    },
    {
      "midi": 54,
      "hit": false,
      "t": 230920.852500006,
      "d": 583.8810729166726,
      "v": 106
    },
    {
      "midi": 65,
      "hit": false,
      "t": 231315.589000006,
      "d": 273.0260791666806,
      "v": 95
    },
    {
      "midi": 61,
      "hit": false,
      "t": 231315.589000006,
      "d": 305.92078750001383,
      "v": 116
    },
    {
      "midi": 70,
      "hit": false,
      "t": 231315.589000006,
      "d": 424.34173750004265,
      "v": 99
    },
    {
      "midi": 54,
      "hit": false,
      "t": 231710.32550000603,
      "d": 215.4603395833692,
      "v": 74
    },
    {
      "midi": 65,
      "hit": false,
      "t": 231907.69375000606,
      "d": 245.06557708332548,
      "v": 91
    },
    {
      "midi": 61,
      "hit": false,
      "t": 231907.69375000606,
      "d": 286.1839624999848,
      "v": 116
    },
    {
      "midi": 70,
      "hit": false,
      "t": 231907.69375000606,
      "d": 580.5916020833538,
      "v": 96
    },
    {
      "midi": 54,
      "hit": false,
      "t": 232105.06200000606,
      "d": 174.3419541666517,
      "v": 96
    },
    {
      "midi": 42,
      "hit": false,
      "t": 232105.06200000606,
      "d": 878.2887125000416,
      "v": 75
    },
    {
      "midi": 61,
      "hit": false,
      "t": 232302.43025000606,
      "d": 129.93409791667364,
      "v": 79
    },
    {
      "midi": 54,
      "hit": false,
      "t": 232499.7985000061,
      "d": 639.8020770833537,
      "v": 115
    },
    {
      "midi": 61,
      "hit": false,
      "t": 232894.5350000061,
      "d": 217.1050750000286,
      "v": 116
    },
    {
      "midi": 65,
      "hit": false,
      "t": 232894.5350000061,
      "d": 407.8943833333615,
      "v": 94
    },
    {
      "midi": 70,
      "hit": false,
      "t": 232894.5350000061,
      "d": 419.4075312500354,
      "v": 99
    },
    {
      "midi": 61,
      "hit": false,
      "t": 233289.2715000061,
      "d": 123.35515625000698,
      "v": 75
    },
    {
      "midi": 61,
      "hit": false,
      "t": 233684.0080000061,
      "d": 238.48663541668793,
      "v": 116
    },
    {
      "midi": 54,
      "hit": false,
      "t": 233684.0080000061,
      "d": 282.8944916666951,
      "v": 115
    },
    {
      "midi": 66,
      "hit": false,
      "t": 233684.0080000061,
      "d": 412.82858958336874,
      "v": 91
    },
    {
      "midi": 70,
      "hit": false,
      "t": 233684.0080000061,
      "d": 440.78909166669473,
      "v": 103
    },
    {
      "midi": 42,
      "hit": false,
      "t": 233684.0080000061,
      "d": 1325.656745833403,
      "v": 77
    },
    {
      "midi": 61,
      "hit": false,
      "t": 234078.74450000614,
      "d": 136.5130395833403,
      "v": 79
    },
    {
      "midi": 54,
      "hit": false,
      "t": 234078.74450000614,
      "d": 611.8415749999986,
      "v": 97
    },
    {
      "midi": 61,
      "hit": false,
      "t": 234473.48100000614,
      "d": 299.3418458333472,
      "v": 116
    },
    {
      "midi": 66,
      "hit": false,
      "t": 234473.48100000614,
      "d": 342.10496666669496,
      "v": 109
    },
    {
      "midi": 70,
      "hit": false,
      "t": 234473.48100000614,
      "d": 406.2496479167021,
      "v": 105
    },
    {
      "midi": 54,
      "hit": false,
      "t": 234868.21750000617,
      "d": 248.35504791670246,
      "v": 65
    },
    {
      "midi": 61,
      "hit": false,
      "t": 235065.5857500062,
      "d": 274.67081458333996,
      "v": 115
    },
    {
      "midi": 66,
      "hit": false,
      "t": 235065.5857500062,
      "d": 411.18385416670935,
      "v": 96
    },
    {
      "midi": 70,
      "hit": false,
      "t": 235065.5857500062,
      "d": 628.288929166738,
      "v": 106
    },
    {
      "midi": 54,
      "hit": false,
      "t": 235262.9540000062,
      "d": 192.43404375002137,
      "v": 92
    },
    {
      "midi": 42,
      "hit": false,
      "t": 235262.9540000062,
      "d": 1215.4594729167875,
      "v": 72
    },
    {
      "midi": 61,
      "hit": false,
      "t": 235460.32225000623,
      "d": 197.36825000002864,
      "v": 86
    },
    {
      "midi": 66,
      "hit": false,
      "t": 235657.69050000625,
      "d": 41.1183854166884,
      "v": 63
    },
    {
      "midi": 54,
      "hit": false,
      "t": 235657.69050000625,
      "d": 815.788766666723,
      "v": 112
    },
    {
      "midi": 61,
      "hit": false,
      "t": 236052.42700000628,
      "d": 228.6182229166734,
      "v": 115
    },
    {
      "midi": 66,
      "hit": false,
      "t": 236052.42700000628,
      "d": 384.86808750001364,
      "v": 97
    },
    {
      "midi": 70,
      "hit": false,
      "t": 236052.42700000628,
      "d": 429.2759437500499,
      "v": 106
    },
    {
      "midi": 61,
      "hit": false,
      "t": 236447.1635000063,
      "d": 101.97359583334764,
      "v": 78
    },
    {
      "midi": 54,
      "hit": false,
      "t": 236841.90000000634,
      "d": 254.93398958334,
      "v": 111
    },
    {
      "midi": 61,
      "hit": false,
      "t": 236841.90000000634,
      "d": 268.0918729166733,
      "v": 116
    },
    {
      "midi": 65,
      "hit": false,
      "t": 236841.90000000634,
      "d": 409.53911875002086,
      "v": 84
    },
    {
      "midi": 70,
      "hit": false,
      "t": 236841.90000000634,
      "d": 462.17065208335407,
      "v": 94
    },
    {
      "midi": 42,
      "hit": false,
      "t": 236841.90000000634,
      "d": 1049.3411958333745,
      "v": 75
    },
    {
      "midi": 61,
      "hit": false,
      "t": 237236.63650000637,
      "d": 110.19727291667368,
      "v": 76
    },
    {
      "midi": 54,
      "hit": false,
      "t": 237236.63650000637,
      "d": 623.3547229166725,
      "v": 111
    },
    {
      "midi": 61,
      "hit": false,
      "t": 237631.37300000637,
      "d": 251.64451875002123,
      "v": 116
    },
    {
      "midi": 65,
      "hit": false,
      "t": 237631.37300000637,
      "d": 345.39443750001374,
      "v": 92
    },
    {
      "midi": 70,
      "hit": false,
      "t": 237631.37300000637,
      "d": 394.7365000000282,
      "v": 97
    },
    {
      "midi": 54,
      "hit": false,
      "t": 238026.1095000064,
      "d": 202.3024562500068,
      "v": 86
    },
    {
      "midi": 42,
      "hit": false,
      "t": 238026.1095000064,
      "d": 626.6441937500203,
      "v": 63
    },
    {
      "midi": 61,
      "hit": false,
      "t": 238223.4777500064,
      "d": 220.39454583334737,
      "v": 115
    },
    {
      "midi": 65,
      "hit": false,
      "t": 238223.4777500064,
      "d": 449.01276875002077,
      "v": 92
    },
    {
      "midi": 70,
      "hit": false,
      "t": 238223.4777500064,
      "d": 654.6046958333754,
      "v": 91
    },
    {
      "midi": 54,
      "hit": false,
      "t": 238420.8460000064,
      "d": 199.01298541668802,
      "v": 99
    },
    {
      "midi": 61,
      "hit": false,
      "t": 238618.21425000642,
      "d": 254.93398958334,
      "v": 87
    },
    {
      "midi": 65,
      "hit": false,
      "t": 238815.58250000642,
      "d": 55.92100416668109,
      "v": 63
    },
    {
      "midi": 42,
      "hit": false,
      "t": 238815.58250000642,
      "d": 745.0651437500492,
      "v": 73
    },
    {
      "midi": 54,
      "hit": false,
      "t": 238815.58250000642,
      "d": 804.2756187500781,
      "v": 112
    },
    {
      "midi": 61,
      "hit": false,
      "t": 239210.31900000645,
      "d": 228.6182229166734,
      "v": 116
    },
    {
      "midi": 65,
      "hit": false,
      "t": 239210.31900000645,
      "d": 399.67070625003544,
      "v": 91
    },
    {
      "midi": 70,
      "hit": false,
      "t": 239210.31900000645,
      "d": 437.49962083337596,
      "v": 99
    },
    {
      "midi": 61,
      "hit": false,
      "t": 239605.05550000648,
      "d": 123.35515625000698,
      "v": 80
    },
    {
      "midi": 54,
      "hit": false,
      "t": 239999.79200000648,
      "d": 256.5787249999994,
      "v": 113
    },
    {
      "midi": 61,
      "hit": false,
      "t": 239999.79200000648,
      "d": 279.6050208333472,
      "v": 116
    },
    {
      "midi": 64,
      "hit": false,
      "t": 239999.79200000648,
      "d": 409.53911875002086,
      "v": 97
    },
    {
      "midi": 70,
      "hit": false,
      "t": 239999.79200000648,
      "d": 480.26274166669464,
      "v": 95
    },
    {
      "midi": 42,
      "hit": false,
      "t": 239999.79200000648,
      "d": 1312.4988625000406,
      "v": 78
    },
    {
      "midi": 61,
      "hit": false,
      "t": 240394.5285000065,
      "d": 105.26306666666642,
      "v": 77
    },
    {
      "midi": 54,
      "hit": false,
      "t": 240394.5285000065,
      "d": 634.8678708333464,
      "v": 109
    },
    {
      "midi": 61,
      "hit": false,
      "t": 240789.2650000065,
      "d": 314.14446458333987,
      "v": 116
    },
    {
      "midi": 64,
      "hit": false,
      "t": 240789.2650000065,
      "d": 317.43393541668775,
      "v": 97
    },
    {
      "midi": 70,
      "hit": false,
      "t": 240789.2650000065,
      "d": 435.85488541668747,
      "v": 95
    },
    {
      "midi": 54,
      "hit": false,
      "t": 241184.00150000653,
      "d": 174.3419541666517,
      "v": 63
    },
    {
      "midi": 61,
      "hit": false,
      "t": 241381.36975000653,
      "d": 235.19716458334005,
      "v": 113
    },
    {
      "midi": 64,
      "hit": false,
      "t": 241381.36975000653,
      "d": 430.9206791666802,
      "v": 96
    },
    {
      "midi": 70,
      "hit": false,
      "t": 241381.36975000653,
      "d": 600.3284270833537,
      "v": 94
    },
    {
      "midi": 54,
      "hit": false,
      "t": 241578.73800000653,
      "d": 177.63142499999958,
      "v": 101
    },
    {
      "midi": 42,
      "hit": false,
      "t": 241578.73800000653,
      "d": 845.3940041667083,
      "v": 76
    },
    {
      "midi": 61,
      "hit": false,
      "t": 241776.10625000653,
      "d": 131.57883333336213,
      "v": 86
    },
    {
      "midi": 54,
      "hit": false,
      "t": 241973.47450000656,
      "d": 587.1705437500204,
      "v": 99
    },
    {
      "midi": 61,
      "hit": false,
      "t": 242368.21100000656,
      "d": 200.6577208333474,
      "v": 113
    },
    {
      "midi": 64,
      "hit": false,
      "t": 242368.21100000656,
      "d": 391.4470291666803,
      "v": 99
    },
    {
      "midi": 70,
      "hit": false,
      "t": 242368.21100000656,
      "d": 422.69700208335416,
      "v": 96
    },
    {
      "midi": 61,
      "hit": false,
      "t": 242762.9475000066,
      "d": 88.81571249998524,
      "v": 73
    },
    {
      "midi": 61,
      "hit": false,
      "t": 243157.68400000656,
      "d": 246.71031249998487,
      "v": 116
    },
    {
      "midi": 54,
      "hit": false,
      "t": 243157.68400000656,
      "d": 264.80240208332543,
      "v": 116
    },
    {
      "midi": 65,
      "hit": false,
      "t": 243157.68400000656,
      "d": 439.14435625000624,
      "v": 92
    },
    {
      "midi": 70,
      "hit": false,
      "t": 243157.68400000656,
      "d": 463.81538750001346,
      "v": 94
    },
    {
      "midi": 42,
      "hit": false,
      "t": 243157.68400000656,
      "d": 1184.2095000000263,
      "v": 88
    },
    {
      "midi": 61,
      "hit": false,
      "t": 243552.42050000656,
      "d": 138.15777500002878,
      "v": 72
    },
    {
      "midi": 54,
      "hit": false,
      "t": 243552.42050000656,
      "d": 587.1705437500204,
      "v": 101
    },
    {
      "midi": 65,
      "hit": false,
      "t": 243947.15700000658,
      "d": 366.7759979166731,
      "v": 83
    },
    {
      "midi": 61,
      "hit": false,
      "t": 243947.15700000658,
      "d": 373.3549395833397,
      "v": 116
    },
    {
      "midi": 70,
      "hit": false,
      "t": 243947.15700000658,
      "d": 504.93377291667275,
      "v": 96
    },
    {
      "midi": 54,
      "hit": false,
      "t": 244341.89350000658,
      "d": 199.01298541665892,
      "v": 76
    },
    {
      "midi": 61,
      "hit": false,
      "t": 244539.26175000658,
      "d": 240.13137083334732,
      "v": 116
    },
    {
      "midi": 65,
      "hit": false,
      "t": 244539.26175000658,
      "d": 557.5653062500351,
      "v": 83
    },
    {
      "midi": 70,
      "hit": false,
      "t": 244539.26175000658,
      "d": 611.8415750000277,
      "v": 92
    },
    {
      "midi": 54,
      "hit": false,
      "t": 244736.63000000658,
      "d": 177.63142500002868,
      "v": 105
    },
    {
      "midi": 42,
      "hit": false,
      "t": 244736.63000000658,
      "d": 1016.4464875000413,
      "v": 78
    },
    {
      "midi": 61,
      "hit": false,
      "t": 244933.9982500066,
      "d": 136.5130395833403,
      "v": 63
    },
    {
      "midi": 54,
      "hit": false,
      "t": 245131.3665000066,
      "d": 347.0391729166731,
      "v": 116
    },
    {
      "midi": 61,
      "hit": false,
      "t": 245526.1030000066,
      "d": 208.88139791667345,
      "v": 116
    },
    {
      "midi": 70,
      "hit": false,
      "t": 245526.1030000066,
      "d": 332.23655416668043,
      "v": 97
    },
    {
      "midi": 65,
      "hit": false,
      "t": 245526.1030000066,
      "d": 343.74970208335435,
      "v": 92
    },
    {
      "midi": 61,
      "hit": false,
      "t": 245920.83950000664,
      "d": 55.92100416668109,
      "v": 63
    },
    {
      "midi": 58,
      "hit": false,
      "t": 246315.57600000664,
      "d": 552.6310999999987,
      "v": 113
    },
    {
      "midi": 61,
      "hit": false,
      "t": 246315.57600000664,
      "d": 580.5916020833247,
      "v": 109
    },
    {
      "midi": 66,
      "hit": false,
      "t": 246315.57600000664,
      "d": 588.8152791666507,
      "v": 101
    },
    {
      "midi": 42,
      "hit": false,
      "t": 246315.57600000664,
      "d": 643.0915479166433,
      "v": 111
    },
    {
      "midi": 30,
      "hit": false,
      "t": 246315.57600000664,
      "d": 695.7230812499765,
      "v": 103
    }
  ]
}