{
  "jsonPath": "Rock/Australian Indie/Vera/underneath-your-clothes.json",
  "path": "Rock\\Australian Indie\\Vera\\Underneath Your Clothes.mid",
  "name": "Underneath Your Clothes",
  "difficulty": "Advanced",
  "bpm": 84.000084000084,
  "notes": [
    {
      "midi": 65,
      "hit": false,
      "t": 62851.127624999994,
      "d": 470.2376250000016,
      "v": 70
    },
    {
      "midi": 68,
      "hit": false,
      "t": 62851.127624999994,
      "d": 494.0471250000046,
      "v": 71
    },
    {
      "midi": 60,
      "hit": false,
      "t": 62851.127624999994,
      "d": 1071.4275000000052,
      "v": 74
    },
    {
      "midi": 53,
      "hit": false,
      "t": 62851.127624999994,
      "d": 1315.4748750000072,
      "v": 88
    },
    {
      "midi": 68,
      "hit": false,
      "t": 63565.412625,
      "d": 482.1423750000031,
      "v": 91
    },
    {
      "midi": 65,
      "hit": false,
      "t": 63565.412625,
      "d": 488.09475000000384,
      "v": 95
    },
    {
      "midi": 60,
      "hit": false,
      "t": 63922.555125,
      "d": 613.0946250000052,
      "v": 80
    },
    {
      "midi": 63,
      "hit": false,
      "t": 64279.697625,
      "d": 398.80912499999977,
      "v": 91
    },
    {
      "midi": 67,
      "hit": false,
      "t": 64279.697625,
      "d": 410.7138750000013,
      "v": 85
    },
    {
      "midi": 55,
      "hit": false,
      "t": 64279.697625,
      "d": 1136.9036250000063,
      "v": 82
    },
    {
      "midi": 60,
      "hit": false,
      "t": 64636.840125,
      "d": 410.7138750000013,
      "v": 85
    },
    {
      "midi": 67,
      "hit": false,
      "t": 64993.982625000004,
      "d": 357.14250000000175,
      "v": 98
    },
    {
      "midi": 63,
      "hit": false,
      "t": 64993.982625000004,
      "d": 422.6186250000028,
      "v": 88
    },
    {
      "midi": 60,
      "hit": false,
      "t": 65351.125125000006,
      "d": 327.38062500000524,
      "v": 78
    },
    {
      "midi": 56,
      "hit": false,
      "t": 65708.26762500001,
      "d": 261.9045000000042,
      "v": 82
    },
    {
      "midi": 65,
      "hit": false,
      "t": 65708.26762500001,
      "d": 410.7138750000013,
      "v": 78
    },
    {
      "midi": 61,
      "hit": false,
      "t": 65708.26762500001,
      "d": 422.6186250000028,
      "v": 80
    },
    {
      "midi": 68,
      "hit": false,
      "t": 65708.26762500001,
      "d": 464.2852500000008,
      "v": 80
    },
    {
      "midi": 49,
      "hit": false,
      "t": 65708.26762500001,
      "d": 1244.0463750000054,
      "v": 80
    },
    {
      "midi": 56,
      "hit": false,
      "t": 66065.41012500001,
      "d": 202.38074999999662,
      "v": 68
    },
    {
      "midi": 65,
      "hit": false,
      "t": 66422.55262500001,
      "d": 499.99950000000536,
      "v": 91
    },
    {
      "midi": 61,
      "hit": false,
      "t": 66422.55262500001,
      "d": 511.90425000000687,
      "v": 95
    },
    {
      "midi": 56,
      "hit": false,
      "t": 66779.69512500001,
      "d": 202.38074999999662,
      "v": 80
    },
    {
      "midi": 68,
      "hit": false,
      "t": 67136.83762500001,
      "d": 351.1901249999937,
      "v": 82
    },
    {
      "midi": 63,
      "hit": false,
      "t": 67136.83762500001,
      "d": 380.9519999999902,
      "v": 82
    },
    {
      "midi": 51,
      "hit": false,
      "t": 67136.83762500001,
      "d": 999.9989999999816,
      "v": 80
    },
    {
      "midi": 58,
      "hit": false,
      "t": 67493.980125,
      "d": 374.99962499999674,
      "v": 95
    },
    {
      "midi": 67,
      "hit": false,
      "t": 67851.122625,
      "d": 345.2377499999857,
      "v": 88
    },
    {
      "midi": 63,
      "hit": false,
      "t": 67851.122625,
      "d": 380.9519999999902,
      "v": 88
    },
    {
      "midi": 58,
      "hit": false,
      "t": 68208.26512499999,
      "d": 89.28562500000407,
      "v": 104
    },
    {
      "midi": 60,
      "hit": false,
      "t": 68565.40762499999,
      "d": 351.1901249999937,
      "v": 88
    },
    {
      "midi": 53,
      "hit": false,
      "t": 68565.40762499999,
      "d": 1267.8558749999938,
      "v": 85
    },
    {
      "midi": 65,
      "hit": false,
      "t": 68922.55012499998,
      "d": 303.5711250000022,
      "v": 85
    },
    {
      "midi": 60,
      "hit": false,
      "t": 68922.55012499998,
      "d": 327.38062500000524,
      "v": 62
    },
    {
      "midi": 65,
      "hit": false,
      "t": 69279.69262499998,
      "d": 369.04725000000326,
      "v": 104
    },
    {
      "midi": 68,
      "hit": false,
      "t": 69279.69262499998,
      "d": 392.8567500000063,
      "v": 104
    },
    {
      "midi": 56,
      "hit": false,
      "t": 69279.69262499998,
      "d": 452.3804999999993,
      "v": 82
    },
    {
      "midi": 60,
      "hit": false,
      "t": 69636.83512499998,
      "d": 559.5232499999984,
      "v": 95
    },
    {
      "midi": 63,
      "hit": false,
      "t": 69993.97762499998,
      "d": 386.90437499999825,
      "v": 88
    },
    {
      "midi": 67,
      "hit": false,
      "t": 69993.97762499998,
      "d": 404.76149999999325,
      "v": 82
    },
    {
      "midi": 55,
      "hit": false,
      "t": 69993.97762499998,
      "d": 1345.2367499999673,
      "v": 85
    },
    {
      "midi": 60,
      "hit": false,
      "t": 70351.12012499999,
      "d": 428.5709999999817,
      "v": 80
    },
    {
      "midi": 67,
      "hit": false,
      "t": 70708.26262499997,
      "d": 339.2853749999922,
      "v": 98
    },
    {
      "midi": 63,
      "hit": false,
      "t": 70708.26262499997,
      "d": 374.9996249999822,
      "v": 91
    },
    {
      "midi": 60,
      "hit": false,
      "t": 71065.40512499996,
      "d": 273.80924999999115,
      "v": 88
    },
    {
      "midi": 65,
      "hit": false,
      "t": 71422.54762499995,
      "d": 357.14250000000175,
      "v": 91
    },
    {
      "midi": 61,
      "hit": false,
      "t": 71422.54762499995,
      "d": 380.9520000000048,
      "v": 95
    },
    {
      "midi": 49,
      "hit": false,
      "t": 71422.54762499995,
      "d": 1297.617750000005,
      "v": 88
    },
    {
      "midi": 56,
      "hit": false,
      "t": 71779.69012499995,
      "d": 303.5711250000022,
      "v": 91
    },
    {
      "midi": 65,
      "hit": false,
      "t": 72136.83262499995,
      "d": 392.8567500000063,
      "v": 98
    },
    {
      "midi": 61,
      "hit": false,
      "t": 72136.83262499995,
      "d": 404.7615000000078,
      "v": 104
    },
    {
      "midi": 56,
      "hit": false,
      "t": 72493.97512499995,
      "d": 184.52362500000163,
      "v": 91
    },
    {
      "midi": 67,
      "hit": false,
      "t": 72851.11762499996,
      "d": 374.99962499999674,
      "v": 91
    },
    {
      "midi": 63,
      "hit": false,
      "t": 72851.11762499996,
      "d": 386.90437499999825,
      "v": 91
    },
    {
      "midi": 51,
      "hit": false,
      "t": 72851.11762499996,
      "d": 601.1898749999964,
      "v": 95
    },
    {
      "midi": 58,
      "hit": false,
      "t": 73208.26012499996,
      "d": 107.14274999999907,
      "v": 95
    },
    {
      "midi": 67,
      "hit": false,
      "t": 73565.40262499996,
      "d": 374.99962499999674,
      "v": 91
    },
    {
      "midi": 70,
      "hit": false,
      "t": 73565.40262499996,
      "d": 410.7138750000013,
      "v": 95
    },
    {
      "midi": 52,
      "hit": false,
      "t": 73565.40262499996,
      "d": 666.6659999999974,
      "v": 88
    },
    {
      "midi": 60,
      "hit": false,
      "t": 73922.54512499996,
      "d": 363.0948749999952,
      "v": 98
    },
    {
      "midi": 65,
      "hit": false,
      "t": 74279.68762499996,
      "d": 392.85674999999173,
      "v": 95
    },
    {
      "midi": 68,
      "hit": false,
      "t": 74279.68762499996,
      "d": 404.76149999999325,
      "v": 95
    },
    {
      "midi": 53,
      "hit": false,
      "t": 74279.68762499996,
      "d": 1416.665249999991,
      "v": 95
    },
    {
      "midi": 60,
      "hit": false,
      "t": 74636.83012499995,
      "d": 345.23775000000023,
      "v": 74
    },
    {
      "midi": 72,
      "hit": false,
      "t": 74993.97262499995,
      "d": 357.14250000000175,
      "v": 104
    },
    {
      "midi": 68,
      "hit": false,
      "t": 74993.97262499995,
      "d": 392.8567500000063,
      "v": 109
    },
    {
      "midi": 60,
      "hit": false,
      "t": 75351.11512499995,
      "d": 404.7615000000078,
      "v": 95
    },
    {
      "midi": 67,
      "hit": false,
      "t": 75708.25762499995,
      "d": 392.8567500000063,
      "v": 91
    },
    {
      "midi": 63,
      "hit": false,
      "t": 75708.25762499995,
      "d": 398.80912499999977,
      "v": 91
    },
    {
      "midi": 51,
      "hit": false,
      "t": 75708.25762499995,
      "d": 1386.9033749999799,
      "v": 95
    },
    {
      "midi": 60,
      "hit": false,
      "t": 76065.40012499996,
      "d": 351.1901249999937,
      "v": 85
    },
    {
      "midi": 72,
      "hit": false,
      "t": 76422.54262499994,
      "d": 351.1901249999937,
      "v": 104
    },
    {
      "midi": 67,
      "hit": false,
      "t": 76422.54262499994,
      "d": 404.76149999999325,
      "v": 104
    },
    {
      "midi": 60,
      "hit": false,
      "t": 76779.68512499993,
      "d": 136.90462500001013,
      "v": 98
    },
    {
      "midi": 61,
      "hit": false,
      "t": 77136.82762499993,
      "d": 374.99962499999674,
      "v": 91
    },
    {
      "midi": 49,
      "hit": false,
      "t": 77136.82762499993,
      "d": 1309.5225000000064,
      "v": 88
    },
    {
      "midi": 65,
      "hit": false,
      "t": 77493.97012499993,
      "d": 214.28549999999814,
      "v": 88
    },
    {
      "midi": 65,
      "hit": false,
      "t": 77851.11262499994,
      "d": 363.0948749999952,
      "v": 98
    },
    {
      "midi": 68,
      "hit": false,
      "t": 77851.11262499994,
      "d": 363.0948749999952,
      "v": 91
    },
    {
      "midi": 61,
      "hit": false,
      "t": 78208.25512499994,
      "d": 226.19024999999965,
      "v": 91
    },
    {
      "midi": 63,
      "hit": false,
      "t": 78565.39762499994,
      "d": 357.14250000000175,
      "v": 95
    },
    {
      "midi": 70,
      "hit": false,
      "t": 78565.39762499994,
      "d": 446.4281250000058,
      "v": 91
    },
    {
      "midi": 51,
      "hit": false,
      "t": 78565.39762499994,
      "d": 619.0470000000059,
      "v": 91
    },
    {
      "midi": 58,
      "hit": false,
      "t": 78922.54012499994,
      "d": 148.8093749999971,
      "v": 95
    },
    {
      "midi": 67,
      "hit": false,
      "t": 79279.68262499994,
      "d": 452.3804999999993,
      "v": 104
    },
    {
      "midi": 70,
      "hit": false,
      "t": 79279.68262499994,
      "d": 470.2376249999943,
      "v": 104
    },
    {
      "midi": 52,
      "hit": false,
      "t": 79279.68262499994,
      "d": 660.7136249999894,
      "v": 95
    },
    {
      "midi": 60,
      "hit": false,
      "t": 79636.82512499994,
      "d": 327.3806249999907,
      "v": 95
    },
    {
      "midi": 65,
      "hit": false,
      "t": 79993.96762499993,
      "d": 410.7138750000013,
      "v": 95
    },
    {
      "midi": 68,
      "hit": false,
      "t": 79993.96762499993,
      "d": 422.6186250000028,
      "v": 95
    },
    {
      "midi": 53,
      "hit": false,
      "t": 79993.96762499993,
      "d": 1404.760500000004,
      "v": 98
    },
    {
      "midi": 60,
      "hit": false,
      "t": 80351.11012499993,
      "d": 315.4758750000037,
      "v": 85
    },
    {
      "midi": 68,
      "hit": false,
      "t": 80708.25262499994,
      "d": 434.5233750000043,
      "v": 109
    },
    {
      "midi": 72,
      "hit": false,
      "t": 80708.25262499994,
      "d": 595.2375000000029,
      "v": 109
    },
    {
      "midi": 60,
      "hit": false,
      "t": 81065.39512499994,
      "d": 571.4279999999999,
      "v": 88
    },
    {
      "midi": 67,
      "hit": false,
      "t": 81422.53762499994,
      "d": 440.4757499999978,
      "v": 88
    },
    {
      "midi": 63,
      "hit": false,
      "t": 81422.53762499994,
      "d": 452.3804999999993,
      "v": 88
    },
    {
      "midi": 51,
      "hit": false,
      "t": 81422.53762499994,
      "d": 1452.37950000001,
      "v": 104
    },
    {
      "midi": 60,
      "hit": false,
      "t": 81779.68012499994,
      "d": 374.99962499999674,
      "v": 80
    },
    {
      "midi": 63,
      "hit": false,
      "t": 82136.82262499994,
      "d": 380.9520000000048,
      "v": 104
    },
    {
      "midi": 72,
      "hit": false,
      "t": 82136.82262499994,
      "d": 529.7613750000019,
      "v": 104
    },
    {
      "midi": 60,
      "hit": false,
      "t": 82493.96512499994,
      "d": 148.8093749999971,
      "v": 82
    },
    {
      "midi": 61,
      "hit": false,
      "t": 82851.10762499995,
      "d": 791.6658749999915,
      "v": 109
    },
    {
      "midi": 46,
      "hit": false,
      "t": 82851.10762499995,
      "d": 2565.473624999984,
      "v": 104
    },
    {
      "midi": 65,
      "hit": false,
      "t": 83208.25012499995,
      "d": 351.1901249999937,
      "v": 91
    },
    {
      "midi": 53,
      "hit": false,
      "t": 83208.25012499995,
      "d": 2172.6168749999924,
      "v": 91
    },
    {
      "midi": 65,
      "hit": false,
      "t": 83565.39262499993,
      "d": 374.99962499999674,
      "v": 91
    },
    {
      "midi": 70,
      "hit": false,
      "t": 83565.39262499993,
      "d": 410.7138750000013,
      "v": 88
    },
    {
      "midi": 58,
      "hit": false,
      "t": 83565.39262499993,
      "d": 1803.5696250000037,
      "v": 91
    },
    {
      "midi": 61,
      "hit": false,
      "t": 83922.53512499994,
      "d": 1386.9033749999944,
      "v": 88
    },
    {
      "midi": 65,
      "hit": false,
      "t": 84279.67762499994,
      "d": 1077.3798749999987,
      "v": 88
    },
    {
      "midi": 73,
      "hit": false,
      "t": 84279.67762499994,
      "d": 1119.0464999999967,
      "v": 91
    },
    {
      "midi": 51,
      "hit": false,
      "t": 85708.24762499993,
      "d": 2648.80687499998,
      "v": 109
    },
    {
      "midi": 58,
      "hit": false,
      "t": 86065.39012499993,
      "d": 1726.1887500000012,
      "v": 95
    },
    {
      "midi": 63,
      "hit": false,
      "t": 86422.53262499993,
      "d": 1113.0941250000033,
      "v": 109
    },
    {
      "midi": 70,
      "hit": false,
      "t": 86779.67512499994,
      "d": 404.7615000000078,
      "v": 104
    },
    {
      "midi": 75,
      "hit": false,
      "t": 87136.81762499994,
      "d": 1214.2844999999797,
      "v": 109
    },
    {
      "midi": 70,
      "hit": false,
      "t": 87493.96012499994,
      "d": 863.0943749999715,
      "v": 95
    },
    {
      "midi": 63,
      "hit": false,
      "t": 87851.10262499993,
      "d": 494.0471249999973,
      "v": 109
    },
    {
      "midi": 58,
      "hit": false,
      "t": 88208.24512499993,
      "d": 202.38074999998207,
      "v": 109
    },
    {
      "midi": 72,
      "hit": false,
      "t": 88565.38762499992,
      "d": 315.4758750000037,
      "v": 88
    },
    {
      "midi": 68,
      "hit": false,
      "t": 88565.38762499992,
      "d": 369.04725000000326,
      "v": 95
    },
    {
      "midi": 63,
      "hit": false,
      "t": 88565.38762499992,
      "d": 380.9520000000048,
      "v": 95
    },
    {
      "midi": 51,
      "hit": false,
      "t": 88565.38762499992,
      "d": 738.0945000000065,
      "v": 95
    },
    {
      "midi": 56,
      "hit": false,
      "t": 88565.38762499992,
      "d": 749.9992499999935,
      "v": 109
    },
    {
      "midi": 60,
      "hit": false,
      "t": 88922.53012499992,
      "d": 386.90437499999825,
      "v": 95
    },
    {
      "midi": 72,
      "hit": false,
      "t": 89279.67262499992,
      "d": 351.1901249999937,
      "v": 109
    },
    {
      "midi": 63,
      "hit": false,
      "t": 89279.67262499992,
      "d": 410.71387499998673,
      "v": 109
    },
    {
      "midi": 68,
      "hit": false,
      "t": 89279.67262499992,
      "d": 410.71387499998673,
      "v": 114
    },
    {
      "midi": 60,
      "hit": false,
      "t": 89636.8151249999,
      "d": 303.5711250000022,
      "v": 98
    },
    {
      "midi": 68,
      "hit": false,
      "t": 89993.95762499991,
      "d": 374.99962499999674,
      "v": 124
    },
    {
      "midi": 63,
      "hit": false,
      "t": 89993.95762499991,
      "d": 380.9519999999902,
      "v": 95
    },
    {
      "midi": 51,
      "hit": false,
      "t": 89993.95762499991,
      "d": 1142.8559999999852,
      "v": 80
    },
    {
      "midi": 56,
      "hit": false,
      "t": 89993.95762499991,
      "d": 1196.4273749999847,
      "v": 88
    },
    {
      "midi": 60,
      "hit": false,
      "t": 90351.10012499991,
      "d": 333.33299999998417,
      "v": 88
    },
    {
      "midi": 63,
      "hit": false,
      "t": 90708.2426249999,
      "d": 428.5709999999963,
      "v": 91
    },
    {
      "midi": 68,
      "hit": false,
      "t": 90708.2426249999,
      "d": 434.52337499998976,
      "v": 114
    },
    {
      "midi": 60,
      "hit": false,
      "t": 91065.3851249999,
      "d": 124.99987499999406,
      "v": 82
    },
    {
      "midi": 68,
      "hit": false,
      "t": 91422.52762499989,
      "d": 547.6184999999969,
      "v": 88
    },
    {
      "midi": 65,
      "hit": false,
      "t": 91422.52762499989,
      "d": 559.5232499999984,
      "v": 88
    },
    {
      "midi": 56,
      "hit": false,
      "t": 91422.52762499989,
      "d": 1148.8083750000078,
      "v": 104
    },
    {
      "midi": 49,
      "hit": false,
      "t": 91422.52762499989,
      "d": 1154.7607500000013,
      "v": 95
    },
    {
      "midi": 61,
      "hit": false,
      "t": 91779.67012499989,
      "d": 136.90462499999558,
      "v": 80
    },
    {
      "midi": 68,
      "hit": false,
      "t": 92136.81262499989,
      "d": 363.0948749999952,
      "v": 104
    },
    {
      "midi": 65,
      "hit": false,
      "t": 92136.81262499989,
      "d": 410.7138750000013,
      "v": 109
    },
    {
      "midi": 61,
      "hit": false,
      "t": 92493.95512499989,
      "d": 107.14274999999907,
      "v": 95
    },
    {
      "midi": 58,
      "hit": false,
      "t": 92851.0976249999,
      "d": 178.5712499999936,
      "v": 74
    },
    {
      "midi": 51,
      "hit": false,
      "t": 92851.0976249999,
      "d": 1196.4273749999847,
      "v": 95
    },
    {
      "midi": 58,
      "hit": false,
      "t": 93208.24012499988,
      "d": 154.76175000000512,
      "v": 104
    },
    {
      "midi": 55,
      "hit": false,
      "t": 93208.24012499988,
      "d": 273.8092500000057,
      "v": 98
    },
    {
      "midi": 63,
      "hit": false,
      "t": 93565.38262499988,
      "d": 369.04725000000326,
      "v": 109
    },
    {
      "midi": 70,
      "hit": false,
      "t": 93565.38262499988,
      "d": 398.80912499999977,
      "v": 104
    },
    {
      "midi": 58,
      "hit": false,
      "t": 93922.52512499988,
      "d": 119.04750000000058,
      "v": 91
    },
    {
      "midi": 60,
      "hit": false,
      "t": 94279.66762499987,
      "d": 315.4758750000037,
      "v": 91
    },
    {
      "midi": 51,
      "hit": false,
      "t": 94279.66762499987,
      "d": 1238.0939999999973,
      "v": 95
    },
    {
      "midi": 63,
      "hit": false,
      "t": 94636.81012499987,
      "d": 148.8093749999971,
      "v": 73
    },
    {
      "midi": 56,
      "hit": false,
      "t": 94636.81012499987,
      "d": 851.1896249999991,
      "v": 78
    },
    {
      "midi": 72,
      "hit": false,
      "t": 94993.95262499987,
      "d": 327.38062500000524,
      "v": 109
    },
    {
      "midi": 68,
      "hit": false,
      "t": 94993.95262499987,
      "d": 351.19012500000827,
      "v": 109
    },
    {
      "midi": 60,
      "hit": false,
      "t": 95351.09512499988,
      "d": 321.4282499999972,
      "v": 88
    },
    {
      "midi": 63,
      "hit": false,
      "t": 95708.23762499988,
      "d": 345.23775000000023,
      "v": 95
    },
    {
      "midi": 68,
      "hit": false,
      "t": 95708.23762499988,
      "d": 351.1901249999937,
      "v": 109
    },
    {
      "midi": 48,
      "hit": false,
      "t": 95708.23762499988,
      "d": 1071.4274999999761,
      "v": 74
    },
    {
      "midi": 56,
      "hit": false,
      "t": 95708.23762499988,
      "d": 1345.2367499999818,
      "v": 82
    },
    {
      "midi": 60,
      "hit": false,
      "t": 96065.38012499987,
      "d": 363.0948749999952,
      "v": 85
    },
    {
      "midi": 63,
      "hit": false,
      "t": 96422.52262499987,
      "d": 398.8091249999852,
      "v": 109
    },
    {
      "midi": 68,
      "hit": false,
      "t": 96422.52262499987,
      "d": 434.52337499998976,
      "v": 124
    },
    {
      "midi": 60,
      "hit": false,
      "t": 96779.66512499985,
      "d": 142.8570000000036,
      "v": 91
    },
    {
      "midi": 61,
      "hit": false,
      "t": 97136.80762499986,
      "d": 357.14250000000175,
      "v": 88
    },
    {
      "midi": 49,
      "hit": false,
      "t": 97136.80762499986,
      "d": 1136.9036250000063,
      "v": 95
    },
    {
      "midi": 63,
      "hit": false,
      "t": 97493.95012499986,
      "d": 95.23799999999756,
      "v": 88
    },
    {
      "midi": 68,
      "hit": false,
      "t": 97493.95012499986,
      "d": 95.23799999999756,
      "v": 74
    },
    {
      "midi": 56,
      "hit": false,
      "t": 97493.95012499986,
      "d": 767.856375000003,
      "v": 88
    },
    {
      "midi": 63,
      "hit": false,
      "t": 97851.09262499986,
      "d": 434.5233750000043,
      "v": 104
    },
    {
      "midi": 68,
      "hit": false,
      "t": 97851.09262499986,
      "d": 523.8090000000084,
      "v": 104
    },
    {
      "midi": 61,
      "hit": false,
      "t": 98208.23512499986,
      "d": 130.9522500000021,
      "v": 95
    },
    {
      "midi": 51,
      "hit": false,
      "t": 98565.37762499986,
      "d": 1244.0463750000054,
      "v": 104
    },
    {
      "midi": 58,
      "hit": false,
      "t": 98922.52012499986,
      "d": 404.7615000000078,
      "v": 109
    },
    {
      "midi": 63,
      "hit": false,
      "t": 99279.66262499987,
      "d": 398.80912499999977,
      "v": 91
    },
    {
      "midi": 70,
      "hit": false,
      "t": 99279.66262499987,
      "d": 422.6186250000028,
      "v": 104
    },
    {
      "midi": 58,
      "hit": false,
      "t": 99636.80512499987,
      "d": 136.90462499999558,
      "v": 95
    },
    {
      "midi": 48,
      "hit": false,
      "t": 99993.94762499987,
      "d": 1196.4273750000139,
      "v": 95
    },
    {
      "midi": 60,
      "hit": false,
      "t": 100351.09012499987,
      "d": 428.5709999999963,
      "v": 114
    },
    {
      "midi": 55,
      "hit": false,
      "t": 100351.09012499987,
      "d": 845.2372500000056,
      "v": 104
    },
    {
      "midi": 63,
      "hit": false,
      "t": 100708.23262499987,
      "d": 380.9520000000048,
      "v": 104
    },
    {
      "midi": 72,
      "hit": false,
      "t": 100708.23262499987,
      "d": 559.5232499999984,
      "v": 109
    },
    {
      "midi": 60,
      "hit": false,
      "t": 101065.37512499987,
      "d": 267.8568749999977,
      "v": 109
    },
    {
      "midi": 68,
      "hit": false,
      "t": 101422.51762499988,
      "d": 333.3329999999987,
      "v": 91
    },
    {
      "midi": 65,
      "hit": false,
      "t": 101422.51762499988,
      "d": 351.1901249999937,
      "v": 91
    },
    {
      "midi": 53,
      "hit": false,
      "t": 101422.51762499988,
      "d": 1053.5703749999957,
      "v": 109
    },
    {
      "midi": 60,
      "hit": false,
      "t": 101779.66012499986,
      "d": 279.7616249999992,
      "v": 91
    },
    {
      "midi": 72,
      "hit": false,
      "t": 102136.80262499987,
      "d": 363.0948749999952,
      "v": 109
    },
    {
      "midi": 68,
      "hit": false,
      "t": 102136.80262499987,
      "d": 666.6659999999974,
      "v": 109
    },
    {
      "midi": 60,
      "hit": false,
      "t": 102493.94512499987,
      "d": 202.38074999999662,
      "v": 91
    },
    {
      "midi": 61,
      "hit": false,
      "t": 102851.08762499987,
      "d": 380.9520000000048,
      "v": 109
    },
    {
      "midi": 46,
      "hit": false,
      "t": 102851.08762499987,
      "d": 1142.8559999999998,
      "v": 109
    },
    {
      "midi": 65,
      "hit": false,
      "t": 103208.23012499987,
      "d": 148.8093749999971,
      "v": 85
    },
    {
      "midi": 53,
      "hit": false,
      "t": 103208.23012499987,
      "d": 755.9516250000015,
      "v": 88
    },
    {
      "midi": 70,
      "hit": false,
      "t": 103565.37262499987,
      "d": 363.0948749999952,
      "v": 104
    },
    {
      "midi": 65,
      "hit": false,
      "t": 103565.37262499987,
      "d": 386.90437499999825,
      "v": 104
    },
    {
      "midi": 73,
      "hit": false,
      "t": 103565.37262499987,
      "d": 404.76149999999325,
      "v": 104
    },
    {
      "midi": 58,
      "hit": false,
      "t": 103565.37262499987,
      "d": 464.2852500000008,
      "v": 82
    },
    {
      "midi": 61,
      "hit": false,
      "t": 103922.51512499987,
      "d": 261.9045000000042,
      "v": 88
    },
    {
      "midi": 58,
      "hit": false,
      "t": 104279.65762499988,
      "d": 238.09500000000116,
      "v": 91
    },
    {
      "midi": 51,
      "hit": false,
      "t": 104279.65762499988,
      "d": 999.9990000000107,
      "v": 114
    },
    {
      "midi": 58,
      "hit": false,
      "t": 104636.80012499988,
      "d": 101.19037500000559,
      "v": 66
    },
    {
      "midi": 63,
      "hit": false,
      "t": 104636.80012499988,
      "d": 154.76175000000512,
      "v": 91
    },
    {
      "midi": 63,
      "hit": false,
      "t": 104993.94262499988,
      "d": 410.7138750000013,
      "v": 104
    },
    {
      "midi": 70,
      "hit": false,
      "t": 104993.94262499988,
      "d": 613.0946249999979,
      "v": 109
    },
    {
      "midi": 58,
      "hit": false,
      "t": 105351.08512499988,
      "d": 226.19024999999965,
      "v": 95
    },
    {
      "midi": 72,
      "hit": false,
      "t": 105708.22762499988,
      "d": 315.4758750000037,
      "v": 88
    },
    {
      "midi": 68,
      "hit": false,
      "t": 105708.22762499988,
      "d": 369.04725000000326,
      "v": 95
    },
    {
      "midi": 63,
      "hit": false,
      "t": 105708.22762499988,
      "d": 380.9520000000048,
      "v": 95
    },
    {
      "midi": 51,
      "hit": false,
      "t": 105708.22762499988,
      "d": 738.0945000000065,
      "v": 95
    },
    {
      "midi": 56,
      "hit": false,
      "t": 105708.22762499988,
      "d": 749.9992499999935,
      "v": 109
    },
    {
      "midi": 60,
      "hit": false,
      "t": 106065.37012499988,
      "d": 386.90437499999825,
      "v": 95
    },
    {
      "midi": 72,
      "hit": false,
      "t": 106422.51262499989,
      "d": 351.1901249999937,
      "v": 109
    },
    {
      "midi": 63,
      "hit": false,
      "t": 106422.51262499989,
      "d": 410.71387499998673,
      "v": 109
    },
    {
      "midi": 68,
      "hit": false,
      "t": 106422.51262499989,
      "d": 410.71387499998673,
      "v": 114
    },
    {
      "midi": 60,
      "hit": false,
      "t": 106779.65512499987,
      "d": 303.5711250000022,
      "v": 98
    },
    {
      "midi": 68,
      "hit": false,
      "t": 107136.79762499988,
      "d": 374.99962499999674,
      "v": 124
    },
    {
      "midi": 63,
      "hit": false,
      "t": 107136.79762499988,
      "d": 380.9519999999902,
      "v": 95
    },
    {
      "midi": 51,
      "hit": false,
      "t": 107136.79762499988,
      "d": 1142.8559999999852,
      "v": 80
    },
    {
      "midi": 56,
      "hit": false,
      "t": 107136.79762499988,
      "d": 1196.4273749999847,
      "v": 88
    },
    {
      "midi": 60,
      "hit": false,
      "t": 107493.94012499988,
      "d": 333.33299999998417,
      "v": 88
    },
    {
      "midi": 63,
      "hit": false,
      "t": 107851.08262499986,
      "d": 428.5709999999963,
      "v": 91
    },
    {
      "midi": 68,
      "hit": false,
      "t": 107851.08262499986,
      "d": 434.52337499998976,
      "v": 114
    },
    {
      "midi": 60,
      "hit": false,
      "t": 108208.22512499987,
      "d": 124.99987499999406,
      "v": 82
    },
    {
      "midi": 68,
      "hit": false,
      "t": 108565.36762499985,
      "d": 547.6184999999969,
      "v": 88
    },
    {
      "midi": 65,
      "hit": false,
      "t": 108565.36762499985,
      "d": 559.5232499999984,
      "v": 88
    },
    {
      "midi": 56,
      "hit": false,
      "t": 108565.36762499985,
      "d": 1148.8083750000078,
      "v": 104
    },
    {
      "midi": 49,
      "hit": false,
      "t": 108565.36762499985,
      "d": 1154.7607500000013,
      "v": 95
    },
    {
      "midi": 61,
      "hit": false,
      "t": 108922.51012499986,
      "d": 136.90462499999558,
      "v": 80
    },
    {
      "midi": 68,
      "hit": false,
      "t": 109279.65262499986,
      "d": 363.0948749999952,
      "v": 104
    },
    {
      "midi": 65,
      "hit": false,
      "t": 109279.65262499986,
      "d": 410.7138750000013,
      "v": 109
    },
    {
      "midi": 61,
      "hit": false,
      "t": 109636.79512499986,
      "d": 107.14274999999907,
      "v": 95
    },
    {
      "midi": 58,
      "hit": false,
      "t": 109993.93762499986,
      "d": 178.5712499999936,
      "v": 74
    },
    {
      "midi": 51,
      "hit": false,
      "t": 109993.93762499986,
      "d": 1196.4273749999847,
      "v": 95
    },
    {
      "midi": 58,
      "hit": false,
      "t": 110351.08012499985,
      "d": 154.76175000000512,
      "v": 104
    },
    {
      "midi": 55,
      "hit": false,
      "t": 110351.08012499985,
      "d": 273.8092500000057,
      "v": 98
    },
    {
      "midi": 63,
      "hit": false,
      "t": 110708.22262499985,
      "d": 369.04725000000326,
      "v": 109
    },
    {
      "midi": 70,
      "hit": false,
      "t": 110708.22262499985,
      "d": 398.80912499999977,
      "v": 104
    },
    {
      "midi": 58,
      "hit": false,
      "t": 111065.36512499985,
      "d": 119.04750000000058,
      "v": 91
    },
    {
      "midi": 60,
      "hit": false,
      "t": 111422.50762499984,
      "d": 315.4758750000037,
      "v": 91
    },
    {
      "midi": 51,
      "hit": false,
      "t": 111422.50762499984,
      "d": 1238.0939999999973,
      "v": 95
    },
    {
      "midi": 63,
      "hit": false,
      "t": 111779.65012499984,
      "d": 148.8093749999971,
      "v": 73
    },
    {
      "midi": 56,
      "hit": false,
      "t": 111779.65012499984,
      "d": 851.1896249999991,
      "v": 78
    },
    {
      "midi": 72,
      "hit": false,
      "t": 112136.79262499984,
      "d": 327.38062500000524,
      "v": 109
    },
    {
      "midi": 68,
      "hit": false,
      "t": 112136.79262499984,
      "d": 351.19012500000827,
      "v": 109
    },
    {
      "midi": 60,
      "hit": false,
      "t": 112493.93512499984,
      "d": 321.4282499999972,
      "v": 88
    },
    {
      "midi": 63,
      "hit": false,
      "t": 112851.07762499985,
      "d": 345.23775000000023,
      "v": 95
    },
    {
      "midi": 68,
      "hit": false,
      "t": 112851.07762499985,
      "d": 351.1901249999937,
      "v": 109
    },
    {
      "midi": 48,
      "hit": false,
      "t": 112851.07762499985,
      "d": 1071.4274999999761,
      "v": 74
    },
    {
      "midi": 56,
      "hit": false,
      "t": 112851.07762499985,
      "d": 1345.2367499999818,
      "v": 82
    },
    {
      "midi": 60,
      "hit": false,
      "t": 113208.22012499983,
      "d": 363.0948749999952,
      "v": 85
    },
    {
      "midi": 63,
      "hit": false,
      "t": 113565.36262499983,
      "d": 398.8091249999852,
      "v": 109
    },
    {
      "midi": 68,
      "hit": false,
      "t": 113565.36262499983,
      "d": 434.52337499998976,
      "v": 124
    },
    {
      "midi": 60,
      "hit": false,
      "t": 113922.50512499982,
      "d": 142.8570000000036,
      "v": 91
    },
    {
      "midi": 61,
      "hit": false,
      "t": 114279.64762499982,
      "d": 357.14250000000175,
      "v": 88
    },
    {
      "midi": 49,
      "hit": false,
      "t": 114279.64762499982,
      "d": 1136.9036250000063,
      "v": 95
    },
    {
      "midi": 63,
      "hit": false,
      "t": 114636.79012499982,
      "d": 95.23799999999756,
      "v": 88
    },
    {
      "midi": 68,
      "hit": false,
      "t": 114636.79012499982,
      "d": 95.23799999999756,
      "v": 74
    },
    {
      "midi": 56,
      "hit": false,
      "t": 114636.79012499982,
      "d": 767.856375000003,
      "v": 88
    },
    {
      "midi": 63,
      "hit": false,
      "t": 114993.93262499983,
      "d": 434.5233750000043,
      "v": 104
    },
    {
      "midi": 68,
      "hit": false,
      "t": 114993.93262499983,
      "d": 523.8090000000084,
      "v": 104
    },
    {
      "midi": 61,
      "hit": false,
      "t": 115351.07512499983,
      "d": 130.9522500000021,
      "v": 95
    },
    {
      "midi": 51,
      "hit": false,
      "t": 115708.21762499983,
      "d": 1244.0463750000054,
      "v": 104
    },
    {
      "midi": 58,
      "hit": false,
      "t": 116065.36012499983,
      "d": 404.7615000000078,
      "v": 109
    },
    {
      "midi": 63,
      "hit": false,
      "t": 116422.50262499983,
      "d": 398.80912499999977,
      "v": 91
    },
    {
      "midi": 70,
      "hit": false,
      "t": 116422.50262499983,
      "d": 422.6186250000028,
      "v": 104
    },
    {
      "midi": 58,
      "hit": false,
      "t": 116779.64512499984,
      "d": 136.90462499999558,
      "v": 95
    },
    {
      "midi": 48,
      "hit": false,
      "t": 117136.78762499984,
      "d": 1196.4273750000139,
      "v": 95
    },
    {
      "midi": 60,
      "hit": false,
      "t": 117493.93012499984,
      "d": 428.5709999999963,
      "v": 114
    },
    {
      "midi": 55,
      "hit": false,
      "t": 117493.93012499984,
      "d": 845.2372500000056,
      "v": 104
    },
    {
      "midi": 63,
      "hit": false,
      "t": 117851.07262499984,
      "d": 380.9520000000048,
      "v": 104
    },
    {
      "midi": 72,
      "hit": false,
      "t": 117851.07262499984,
      "d": 559.5232499999984,
      "v": 109
    },
    {
      "midi": 60,
      "hit": false,
      "t": 118208.21512499984,
      "d": 267.8568749999977,
      "v": 109
    },
    {
      "midi": 68,
      "hit": false,
      "t": 118565.35762499984,
      "d": 333.3329999999987,
      "v": 91
    },
    {
      "midi": 65,
      "hit": false,
      "t": 118565.35762499984,
      "d": 351.1901249999937,
      "v": 91
    },
    {
      "midi": 53,
      "hit": false,
      "t": 118565.35762499984,
      "d": 1053.5703749999957,
      "v": 109
    },
    {
      "midi": 60,
      "hit": false,
      "t": 118922.50012499983,
      "d": 279.7616249999992,
      "v": 91
    },
    {
      "midi": 72,
      "hit": false,
      "t": 119279.64262499983,
      "d": 363.0948749999952,
      "v": 109
    },
    {
      "midi": 68,
      "hit": false,
      "t": 119279.64262499983,
      "d": 666.6659999999974,
      "v": 109
    },
    {
      "midi": 60,
      "hit": false,
      "t": 119636.78512499983,
      "d": 202.38074999999662,
      "v": 91
    },
    {
      "midi": 68,
      "hit": false,
      "t": 119993.92762499984,
      "d": 553.5708750000049,
      "v": 91
    },
    {
      "midi": 73,
      "hit": false,
      "t": 119993.92762499984,
      "d": 553.5708750000049,
      "v": 91
    },
    {
      "midi": 61,
      "hit": false,
      "t": 119993.92762499984,
      "d": 1345.2367499999964,
      "v": 104
    },
    {
      "midi": 56,
      "hit": false,
      "t": 119993.92762499984,
      "d": 1357.141499999998,
      "v": 114
    },
    {
      "midi": 63,
      "hit": false,
      "t": 119993.92762499984,
      "d": 1666.6649999999936,
      "v": 104
    },
    {
      "midi": 73,
      "hit": false,
      "t": 120708.21262499984,
      "d": 1065.4751249999972,
      "v": 95
    },
    {
      "midi": 68,
      "hit": false,
      "t": 120708.21262499984,
      "d": 1101.1893749999872,
      "v": 95
    },
    {
      "midi": 61,
      "hit": false,
      "t": 121779.64012499983,
      "d": 874.9991250000166,
      "v": 88
    },
    {
      "midi": 56,
      "hit": false,
      "t": 121779.64012499983,
      "d": 880.9515000000101,
      "v": 114
    },
    {
      "midi": 63,
      "hit": false,
      "t": 121779.64012499983,
      "d": 886.9038750000036,
      "v": 91
    },
    {
      "midi": 65,
      "hit": false,
      "t": 122136.78262499983,
      "d": 404.7615000000078,
      "v": 98
    },
    {
      "midi": 73,
      "hit": false,
      "t": 122493.92512499983,
      "d": 196.42837500000314,
      "v": 104
    },
    {
      "midi": 68,
      "hit": false,
      "t": 122493.92512499983,
      "d": 202.38074999999662,
      "v": 88
    },
    {
      "midi": 56,
      "hit": false,
      "t": 122851.06762499984,
      "d": 148.8093749999971,
      "v": 91
    },
    {
      "midi": 61,
      "hit": false,
      "t": 122851.06762499984,
      "d": 160.7141249999986,
      "v": 82
    },
    {
      "midi": 63,
      "hit": false,
      "t": 122851.06762499984,
      "d": 303.5711250000022,
      "v": 104
    },
    {
      "midi": 73,
      "hit": false,
      "t": 122851.06762499984,
      "d": 392.8567500000063,
      "v": 91
    },
    {
      "midi": 68,
      "hit": false,
      "t": 122851.06762499984,
      "d": 440.47575000001234,
      "v": 95
    },
    {
      "midi": 61,
      "hit": false,
      "t": 123208.21012499984,
      "d": 571.4280000000144,
      "v": 88
    },
    {
      "midi": 56,
      "hit": false,
      "t": 123208.21012499984,
      "d": 577.3803750000079,
      "v": 95
    },
    {
      "midi": 63,
      "hit": false,
      "t": 123208.21012499984,
      "d": 589.2851250000094,
      "v": 95
    },
    {
      "midi": 65,
      "hit": false,
      "t": 123565.35262499985,
      "d": 291.66637499998615,
      "v": 98
    },
    {
      "midi": 63,
      "hit": false,
      "t": 123922.49512499984,
      "d": 279.7616249999992,
      "v": 104
    },
    {
      "midi": 68,
      "hit": false,
      "t": 123922.49512499984,
      "d": 1345.2367499999964,
      "v": 88
    },
    {
      "midi": 73,
      "hit": false,
      "t": 123922.49512499984,
      "d": 1374.998624999993,
      "v": 104
    },
    {
      "midi": 56,
      "hit": false,
      "t": 123922.49512499984,
      "d": 1380.9509999999864,
      "v": 109
    },
    {
      "midi": 61,
      "hit": false,
      "t": 123922.49512499984,
      "d": 1386.9033749999799,
      "v": 95
    },
    {
      "midi": 63,
      "hit": false,
      "t": 124279.63762499984,
      "d": 1017.8561249999912,
      "v": 61
    },
    {
      "midi": 63,
      "hit": false,
      "t": 125708.20762499982,
      "d": 583.3327500000014,
      "v": 104
    },
    {
      "midi": 66,
      "hit": false,
      "t": 125708.20762499982,
      "d": 583.3327500000014,
      "v": 104
    },
    {
      "midi": 59,
      "hit": false,
      "t": 125708.20762499982,
      "d": 999.9990000000107,
      "v": 114
    },
    {
      "midi": 66,
      "hit": false,
      "t": 126422.49262499982,
      "d": 589.2851249999949,
      "v": 109
    },
    {
      "midi": 63,
      "hit": false,
      "t": 126422.49262499982,
      "d": 619.0469999999914,
      "v": 109
    },
    {
      "midi": 59,
      "hit": false,
      "t": 126779.63512499983,
      "d": 95.23799999999756,
      "v": 80
    },
    {
      "midi": 61,
      "hit": false,
      "t": 127136.77762499981,
      "d": 559.5232499999984,
      "v": 91
    },
    {
      "midi": 66,
      "hit": false,
      "t": 127136.77762499981,
      "d": 559.5232499999984,
      "v": 82
    },
    {
      "midi": 58,
      "hit": false,
      "t": 127136.77762499981,
      "d": 916.6657500000001,
      "v": 91
    },
    {
      "midi": 61,
      "hit": false,
      "t": 127851.06262499982,
      "d": 642.856500000009,
      "v": 104
    },
    {
      "midi": 66,
      "hit": false,
      "t": 127851.06262499982,
      "d": 642.856500000009,
      "v": 95
    },
    {
      "midi": 58,
      "hit": false,
      "t": 128208.20512499982,
      "d": 291.6663750000007,
      "v": 104
    },
    {
      "midi": 66,
      "hit": false,
      "t": 128565.34762499982,
      "d": 553.5708750000049,
      "v": 91
    },
    {
      "midi": 63,
      "hit": false,
      "t": 128565.34762499982,
      "d": 559.5232499999984,
      "v": 95
    },
    {
      "midi": 59,
      "hit": false,
      "t": 128565.34762499982,
      "d": 880.9515000000101,
      "v": 91
    },
    {
      "midi": 56,
      "hit": false,
      "t": 128565.34762499982,
      "d": 916.6657500000147,
      "v": 91
    },
    {
      "midi": 66,
      "hit": false,
      "t": 129279.63262499982,
      "d": 1124.9988750000048,
      "v": 109
    },
    {
      "midi": 63,
      "hit": false,
      "t": 129279.63262499982,
      "d": 1148.8083750000078,
      "v": 109
    },
    {
      "midi": 59,
      "hit": false,
      "t": 129636.77512499984,
      "d": 148.8093749999971,
      "v": 91
    },
    {
      "midi": 56,
      "hit": false,
      "t": 129636.77512499984,
      "d": 166.66649999999208,
      "v": 91
    },
    {
      "midi": 59,
      "hit": false,
      "t": 129993.91762499983,
      "d": 154.76175000000512,
      "v": 109
    },
    {
      "midi": 54,
      "hit": false,
      "t": 129993.91762499983,
      "d": 172.61887500000012,
      "v": 104
    },
    {
      "midi": 59,
      "hit": false,
      "t": 130351.06012499983,
      "d": 529.7613750000019,
      "v": 104
    },
    {
      "midi": 54,
      "hit": false,
      "t": 130351.06012499983,
      "d": 535.7137499999953,
      "v": 95
    },
    {
      "midi": 66,
      "hit": false,
      "t": 130708.20262499983,
      "d": 779.7611249999609,
      "v": 114
    },
    {
      "midi": 63,
      "hit": false,
      "t": 130708.20262499983,
      "d": 797.6182499999704,
      "v": 109
    },
    {
      "midi": 54,
      "hit": false,
      "t": 131065.34512499982,
      "d": 172.61887499998556,
      "v": 88
    },
    {
      "midi": 59,
      "hit": false,
      "t": 131065.34512499982,
      "d": 172.61887499998556,
      "v": 85
    },
    {
      "midi": 59,
      "hit": false,
      "t": 131422.4876249998,
      "d": 869.0467500000086,
      "v": 98
    },
    {
      "midi": 56,
      "hit": false,
      "t": 131422.4876249998,
      "d": 874.9991250000021,
      "v": 109
    },
    {
      "midi": 52,
      "hit": false,
      "t": 131422.4876249998,
      "d": 886.9038749999891,
      "v": 95
    },
    {
      "midi": 63,
      "hit": false,
      "t": 132136.7726249998,
      "d": 1166.6655000000028,
      "v": 104
    },
    {
      "midi": 66,
      "hit": false,
      "t": 132136.7726249998,
      "d": 1166.6655000000028,
      "v": 95
    },
    {
      "midi": 71,
      "hit": false,
      "t": 132136.7726249998,
      "d": 1178.5702499999898,
      "v": 98
    },
    {
      "midi": 59,
      "hit": false,
      "t": 132493.9151249998,
      "d": 583.3327500000014,
      "v": 95
    },
    {
      "midi": 52,
      "hit": false,
      "t": 132493.9151249998,
      "d": 589.2851249999949,
      "v": 88
    },
    {
      "midi": 56,
      "hit": false,
      "t": 132493.9151249998,
      "d": 589.2851249999949,
      "v": 91
    },
    {
      "midi": 56,
      "hit": false,
      "t": 133208.2001249998,
      "d": 529.7613749999728,
      "v": 104
    },
    {
      "midi": 59,
      "hit": false,
      "t": 133208.2001249998,
      "d": 541.6661249999597,
      "v": 95
    },
    {
      "midi": 52,
      "hit": false,
      "t": 133208.2001249998,
      "d": 553.5708749999467,
      "v": 91
    },
    {
      "midi": 63,
      "hit": false,
      "t": 133565.3426249998,
      "d": 684.5231249999779,
      "v": 104
    },
    {
      "midi": 66,
      "hit": false,
      "t": 133565.3426249998,
      "d": 690.4754999999714,
      "v": 104
    },
    {
      "midi": 71,
      "hit": false,
      "t": 133565.3426249998,
      "d": 702.3802499999583,
      "v": 104
    },
    {
      "midi": 59,
      "hit": false,
      "t": 133922.48512499974,
      "d": 101.19037500000559,
      "v": 78
    },
    {
      "midi": 56,
      "hit": false,
      "t": 133922.48512499974,
      "d": 107.14274999999907,
      "v": 88
    },
    {
      "midi": 52,
      "hit": false,
      "t": 133922.48512499974,
      "d": 124.99987500000861,
      "v": 76
    },
    {
      "midi": 54,
      "hit": false,
      "t": 134279.62762499973,
      "d": 261.9045000000042,
      "v": 104
    },
    {
      "midi": 54,
      "hit": false,
      "t": 134636.77012499975,
      "d": 642.8564999999944,
      "v": 104
    },
    {
      "midi": 64,
      "hit": false,
      "t": 134993.91262499974,
      "d": 779.76112499999,
      "v": 109
    },
    {
      "midi": 71,
      "hit": false,
      "t": 134993.91262499974,
      "d": 797.6182499999995,
      "v": 104
    },
    {
      "midi": 68,
      "hit": false,
      "t": 134993.91262499974,
      "d": 821.4277500000026,
      "v": 95
    },
    {
      "midi": 54,
      "hit": false,
      "t": 135351.05512499975,
      "d": 327.3806249999907,
      "v": 74
    },
    {
      "midi": 58,
      "hit": false,
      "t": 135708.19762499974,
      "d": 214.28549999999814,
      "v": 91
    },
    {
      "midi": 54,
      "hit": false,
      "t": 135708.19762499974,
      "d": 232.14262500000768,
      "v": 91
    },
    {
      "midi": 58,
      "hit": false,
      "t": 136065.34012499976,
      "d": 553.5708749999758,
      "v": 109
    },
    {
      "midi": 54,
      "hit": false,
      "t": 136065.34012499976,
      "d": 559.5232499999693,
      "v": 88
    },
    {
      "midi": 64,
      "hit": false,
      "t": 136422.48262499974,
      "d": 470.23762500000885,
      "v": 104
    },
    {
      "midi": 66,
      "hit": false,
      "t": 136422.48262499974,
      "d": 476.1900000000023,
      "v": 95
    },
    {
      "midi": 73,
      "hit": false,
      "t": 136422.48262499974,
      "d": 482.1423749999958,
      "v": 104
    },
    {
      "midi": 54,
      "hit": false,
      "t": 136779.62512499973,
      "d": 95.23800000001211,
      "v": 74
    },
    {
      "midi": 58,
      "hit": false,
      "t": 136779.62512499973,
      "d": 95.23800000001211,
      "v": 82
    },
    {
      "midi": 63,
      "hit": false,
      "t": 137136.76762499975,
      "d": 583.3327500000014,
      "v": 104
    },
    {
      "midi": 66,
      "hit": false,
      "t": 137136.76762499975,
      "d": 583.3327500000014,
      "v": 104
    },
    {
      "midi": 59,
      "hit": false,
      "t": 137136.76762499975,
      "d": 999.9990000000107,
      "v": 114
    },
    {
      "midi": 66,
      "hit": false,
      "t": 137851.05262499975,
      "d": 589.285125000024,
      "v": 109
    },
    {
      "midi": 63,
      "hit": false,
      "t": 137851.05262499975,
      "d": 619.0470000000205,
      "v": 109
    },
    {
      "midi": 59,
      "hit": false,
      "t": 138208.19512499977,
      "d": 95.23800000001211,
      "v": 80
    },
    {
      "midi": 61,
      "hit": false,
      "t": 138565.33762499978,
      "d": 559.5232499999984,
      "v": 91
    },
    {
      "midi": 66,
      "hit": false,
      "t": 138565.33762499978,
      "d": 559.5232499999984,
      "v": 82
    },
    {
      "midi": 58,
      "hit": false,
      "t": 138565.33762499978,
      "d": 916.6657500000147,
      "v": 91
    },
    {
      "midi": 61,
      "hit": false,
      "t": 139279.62262499979,
      "d": 642.8565000000235,
      "v": 104
    },
    {
      "midi": 66,
      "hit": false,
      "t": 139279.62262499979,
      "d": 642.8565000000235,
      "v": 95
    },
    {
      "midi": 58,
      "hit": false,
      "t": 139636.7651249998,
      "d": 291.6663750000007,
      "v": 104
    },
    {
      "midi": 66,
      "hit": false,
      "t": 139993.9076249998,
      "d": 553.5708750000049,
      "v": 91
    },
    {
      "midi": 63,
      "hit": false,
      "t": 139993.9076249998,
      "d": 559.5232499999984,
      "v": 95
    },
    {
      "midi": 59,
      "hit": false,
      "t": 139993.9076249998,
      "d": 880.9514999999956,
      "v": 91
    },
    {
      "midi": 56,
      "hit": false,
      "t": 139993.9076249998,
      "d": 916.6657499999856,
      "v": 91
    },
    {
      "midi": 66,
      "hit": false,
      "t": 140708.1926249998,
      "d": 1124.9988750000193,
      "v": 109
    },
    {
      "midi": 63,
      "hit": false,
      "t": 140708.1926249998,
      "d": 1148.8083750000224,
      "v": 109
    },
    {
      "midi": 59,
      "hit": false,
      "t": 141065.33512499978,
      "d": 148.80937500001164,
      "v": 91
    },
    {
      "midi": 56,
      "hit": false,
      "t": 141065.33512499978,
      "d": 166.6665000000212,
      "v": 91
    },
    {
      "midi": 59,
      "hit": false,
      "t": 141422.4776249998,
      "d": 154.76175000000512,
      "v": 109
    },
    {
      "midi": 54,
      "hit": false,
      "t": 141422.4776249998,
      "d": 172.61887500001467,
      "v": 104
    },
    {
      "midi": 59,
      "hit": false,
      "t": 141779.6201249998,
      "d": 529.7613750000019,
      "v": 104
    },
    {
      "midi": 54,
      "hit": false,
      "t": 141779.6201249998,
      "d": 535.7137499999953,
      "v": 95
    },
    {
      "midi": 66,
      "hit": false,
      "t": 142136.76262499983,
      "d": 779.7611249999609,
      "v": 114
    },
    {
      "midi": 63,
      "hit": false,
      "t": 142136.76262499983,
      "d": 797.6182499999704,
      "v": 109
    },
    {
      "midi": 54,
      "hit": false,
      "t": 142493.90512499982,
      "d": 172.61887499998556,
      "v": 88
    },
    {
      "midi": 59,
      "hit": false,
      "t": 142493.90512499982,
      "d": 172.61887499998556,
      "v": 85
    },
    {
      "midi": 59,
      "hit": false,
      "t": 142851.0476249998,
      "d": 869.0467500000086,
      "v": 98
    },
    {
      "midi": 56,
      "hit": false,
      "t": 142851.0476249998,
      "d": 874.9991250000021,
      "v": 109
    },
    {
      "midi": 52,
      "hit": false,
      "t": 142851.0476249998,
      "d": 886.9038749999891,
      "v": 95
    },
    {
      "midi": 63,
      "hit": false,
      "t": 143565.3326249998,
      "d": 1166.6655000000028,
      "v": 104
    },
    {
      "midi": 66,
      "hit": false,
      "t": 143565.3326249998,
      "d": 1166.6655000000028,
      "v": 95
    },
    {
      "midi": 71,
      "hit": false,
      "t": 143565.3326249998,
      "d": 1178.5702499999898,
      "v": 98
    },
    {
      "midi": 59,
      "hit": false,
      "t": 143922.4751249998,
      "d": 583.3327500000014,
      "v": 95
    },
    {
      "midi": 52,
      "hit": false,
      "t": 143922.4751249998,
      "d": 589.2851249999949,
      "v": 88
    },
    {
      "midi": 56,
      "hit": false,
      "t": 143922.4751249998,
      "d": 589.2851249999949,
      "v": 91
    },
    {
      "midi": 56,
      "hit": false,
      "t": 144636.7601249998,
      "d": 529.7613749999728,
      "v": 104
    },
    {
      "midi": 59,
      "hit": false,
      "t": 144636.7601249998,
      "d": 541.6661249999597,
      "v": 95
    },
    {
      "midi": 52,
      "hit": false,
      "t": 144636.7601249998,
      "d": 553.5708749999467,
      "v": 91
    },
    {
      "midi": 63,
      "hit": false,
      "t": 144993.90262499978,
      "d": 684.5231249999779,
      "v": 104
    },
    {
      "midi": 66,
      "hit": false,
      "t": 144993.90262499978,
      "d": 690.4754999999714,
      "v": 104
    },
    {
      "midi": 71,
      "hit": false,
      "t": 144993.90262499978,
      "d": 702.3802499999583,
      "v": 104
    },
    {
      "midi": 59,
      "hit": false,
      "t": 145351.04512499974,
      "d": 101.19037500000559,
      "v": 78
    },
    {
      "midi": 56,
      "hit": false,
      "t": 145351.04512499974,
      "d": 107.14274999999907,
      "v": 88
    },
    {
      "midi": 52,
      "hit": false,
      "t": 145351.04512499974,
      "d": 124.99987500000861,
      "v": 76
    },
    {
      "midi": 54,
      "hit": false,
      "t": 145708.18762499973,
      "d": 261.9045000000042,
      "v": 104
    },
    {
      "midi": 54,
      "hit": false,
      "t": 146065.33012499975,
      "d": 642.8564999999944,
      "v": 104
    },
    {
      "midi": 64,
      "hit": false,
      "t": 146422.47262499973,
      "d": 779.76112499999,
      "v": 109
    },
    {
      "midi": 71,
      "hit": false,
      "t": 146422.47262499973,
      "d": 797.6182499999995,
      "v": 104
    },
    {
      "midi": 68,
      "hit": false,
      "t": 146422.47262499973,
      "d": 821.4277500000026,
      "v": 95
    },
    {
      "midi": 54,
      "hit": false,
      "t": 146779.61512499975,
      "d": 327.3806249999907,
      "v": 74
    },
    {
      "midi": 58,
      "hit": false,
      "t": 147136.75762499974,
      "d": 214.28549999999814,
      "v": 91
    },
    {
      "midi": 54,
      "hit": false,
      "t": 147136.75762499974,
      "d": 232.14262500000768,
      "v": 91
    },
    {
      "midi": 58,
      "hit": false,
      "t": 147493.90012499975,
      "d": 553.5708749999758,
      "v": 109
    },
    {
      "midi": 54,
      "hit": false,
      "t": 147493.90012499975,
      "d": 559.5232499999693,
      "v": 88
    },
    {
      "midi": 64,
      "hit": false,
      "t": 147851.04262499974,
      "d": 470.23762500000885,
      "v": 104
    },
    {
      "midi": 66,
      "hit": false,
      "t": 147851.04262499974,
      "d": 476.1900000000023,
      "v": 95
    },
    {
      "midi": 73,
      "hit": false,
      "t": 147851.04262499974,
      "d": 482.1423749999958,
      "v": 104
    },
    {
      "midi": 54,
      "hit": false,
      "t": 148208.18512499973,
      "d": 95.23800000001211,
      "v": 74
    },
    {
      "midi": 58,
      "hit": false,
      "t": 148208.18512499973,
      "d": 95.23800000001211,
      "v": 82
    },
    {
      "midi": 56,
      "hit": false,
      "t": 148565.32762499974,
      "d": 273.80924999999115,
      "v": 80
    },
    {
      "midi": 60,
      "hit": false,
      "t": 148565.32762499974,
      "d": 374.99962499999674,
      "v": 88
    },
    {
      "midi": 68,
      "hit": false,
      "t": 148565.32762499974,
      "d": 380.9519999999902,
      "v": 82
    },
    {
      "midi": 48,
      "hit": false,
      "t": 148565.32762499974,
      "d": 1220.2368750000314,
      "v": 85
    },
    {
      "midi": 53,
      "hit": false,
      "t": 148565.32762499974,
      "d": 1267.8558750000375,
      "v": 104
    },
    {
      "midi": 56,
      "hit": false,
      "t": 148922.47012499973,
      "d": 589.285125000024,
      "v": 82
    },
    {
      "midi": 68,
      "hit": false,
      "t": 149279.61262499975,
      "d": 404.76150000002235,
      "v": 104
    },
    {
      "midi": 60,
      "hit": false,
      "t": 149279.61262499975,
      "d": 577.3803750000079,
      "v": 104
    },
    {
      "midi": 56,
      "hit": false,
      "t": 149636.75512499976,
      "d": 208.33312500000466,
      "v": 95
    },
    {
      "midi": 67,
      "hit": false,
      "t": 149993.89762499975,
      "d": 374.99962499999674,
      "v": 88
    },
    {
      "midi": 63,
      "hit": false,
      "t": 149993.89762499975,
      "d": 422.6186250000028,
      "v": 95
    },
    {
      "midi": 48,
      "hit": false,
      "t": 149993.89762499975,
      "d": 1029.7608750000072,
      "v": 74
    },
    {
      "midi": 51,
      "hit": false,
      "t": 149993.89762499975,
      "d": 1065.4751249999972,
      "v": 78
    },
    {
      "midi": 55,
      "hit": false,
      "t": 150351.04012499974,
      "d": 386.9043750000128,
      "v": 91
    },
    {
      "midi": 67,
      "hit": false,
      "t": 150708.18262499975,
      "d": 559.5232499999693,
      "v": 114
    },
    {
      "midi": 63,
      "hit": false,
      "t": 150708.18262499975,
      "d": 642.8564999999653,
      "v": 114
    },
    {
      "midi": 55,
      "hit": false,
      "t": 151065.32512499974,
      "d": 196.4283749999886,
      "v": 98
    },
    {
      "midi": 56,
      "hit": false,
      "t": 151422.46762499973,
      "d": 583.3327500000014,
      "v": 104
    },
    {
      "midi": 49,
      "hit": false,
      "t": 151422.46762499973,
      "d": 1130.9512499999837,
      "v": 91
    },
    {
      "midi": 60,
      "hit": false,
      "t": 151779.61012499972,
      "d": 273.80925000002026,
      "v": 109
    },
    {
      "midi": 53,
      "hit": false,
      "t": 151779.61012499972,
      "d": 916.6657499999856,
      "v": 104
    },
    {
      "midi": 60,
      "hit": false,
      "t": 152136.75262499973,
      "d": 470.23762499997974,
      "v": 109
    },
    {
      "midi": 65,
      "hit": false,
      "t": 152136.75262499973,
      "d": 494.04712499998277,
      "v": 88
    },
    {
      "midi": 56,
      "hit": false,
      "t": 152493.89512499972,
      "d": 196.4283749999886,
      "v": 109
    },
    {
      "midi": 68,
      "hit": false,
      "t": 152851.0376249997,
      "d": 315.4758750000037,
      "v": 91
    },
    {
      "midi": 63,
      "hit": false,
      "t": 152851.0376249997,
      "d": 321.4282499999972,
      "v": 91
    },
    {
      "midi": 51,
      "hit": false,
      "t": 152851.0376249997,
      "d": 1035.7132499999716,
      "v": 91
    },
    {
      "midi": 58,
      "hit": false,
      "t": 153208.1801249997,
      "d": 345.23775000000023,
      "v": 109
    },
    {
      "midi": 67,
      "hit": false,
      "t": 153565.32262499968,
      "d": 369.04724999997416,
      "v": 95
    },
    {
      "midi": 63,
      "hit": false,
      "t": 153565.32262499968,
      "d": 404.76149999996414,
      "v": 95
    },
    {
      "midi": 58,
      "hit": false,
      "t": 153922.46512499967,
      "d": 166.66649999996298,
      "v": 104
    },
    {
      "midi": 68,
      "hit": false,
      "t": 154279.60762499963,
      "d": 357.1424999999872,
      "v": 104
    },
    {
      "midi": 65,
      "hit": false,
      "t": 154279.60762499963,
      "d": 363.0948749999807,
      "v": 104
    },
    {
      "midi": 53,
      "hit": false,
      "t": 154279.60762499963,
      "d": 1255.9511249999632,
      "v": 85
    },
    {
      "midi": 56,
      "hit": false,
      "t": 154279.60762499963,
      "d": 1255.9511249999632,
      "v": 91
    },
    {
      "midi": 60,
      "hit": false,
      "t": 154636.7501249996,
      "d": 392.8567499999772,
      "v": 109
    },
    {
      "midi": 65,
      "hit": false,
      "t": 154993.8926249996,
      "d": 363.0948749999807,
      "v": 98
    },
    {
      "midi": 68,
      "hit": false,
      "t": 154993.8926249996,
      "d": 404.76149999999325,
      "v": 104
    },
    {
      "midi": 60,
      "hit": false,
      "t": 155351.0351249996,
      "d": 374.99962499999674,
      "v": 114
    },
    {
      "midi": 63,
      "hit": false,
      "t": 155708.17762499957,
      "d": 374.99962500002584,
      "v": 104
    },
    {
      "midi": 67,
      "hit": false,
      "t": 155708.17762499957,
      "d": 374.99962500002584,
      "v": 104
    },
    {
      "midi": 51,
      "hit": false,
      "t": 155708.17762499957,
      "d": 999.9990000000398,
      "v": 91
    },
    {
      "midi": 55,
      "hit": false,
      "t": 155708.17762499957,
      "d": 999.9990000000398,
      "v": 95
    },
    {
      "midi": 60,
      "hit": false,
      "t": 156065.3201249996,
      "d": 333.33300000001327,
      "v": 88
    },
    {
      "midi": 67,
      "hit": false,
      "t": 156422.4626249996,
      "d": 345.23775000000023,
      "v": 98
    },
    {
      "midi": 63,
      "hit": false,
      "t": 156422.4626249996,
      "d": 380.9519999999902,
      "v": 95
    },
    {
      "midi": 60,
      "hit": false,
      "t": 156779.6051249996,
      "d": 273.80924999999115,
      "v": 109
    },
    {
      "midi": 61,
      "hit": false,
      "t": 157136.74762499958,
      "d": 303.57112499998766,
      "v": 109
    },
    {
      "midi": 65,
      "hit": false,
      "t": 157136.74762499958,
      "d": 345.23775000000023,
      "v": 95
    },
    {
      "midi": 68,
      "hit": false,
      "t": 157136.74762499958,
      "d": 369.04724999997416,
      "v": 109
    },
    {
      "midi": 49,
      "hit": false,
      "t": 157136.74762499958,
      "d": 1136.903624999948,
      "v": 104
    },
    {
      "midi": 56,
      "hit": false,
      "t": 157493.89012499957,
      "d": 273.80924999999115,
      "v": 95
    },
    {
      "midi": 53,
      "hit": false,
      "t": 157493.89012499957,
      "d": 1005.9513749999751,
      "v": 88
    },
    {
      "midi": 65,
      "hit": false,
      "t": 157851.03262499956,
      "d": 380.9519999999902,
      "v": 95
    },
    {
      "midi": 61,
      "hit": false,
      "t": 157851.03262499956,
      "d": 386.9043749999837,
      "v": 104
    },
    {
      "midi": 56,
      "hit": false,
      "t": 158208.17512499954,
      "d": 136.90462499999558,
      "v": 104
    },
    {
      "midi": 63,
      "hit": false,
      "t": 158565.31762499953,
      "d": 374.99962499999674,
      "v": 95
    },
    {
      "midi": 51,
      "hit": false,
      "t": 158565.31762499953,
      "d": 404.76149999999325,
      "v": 95
    },
    {
      "midi": 55,
      "hit": false,
      "t": 158565.31762499953,
      "d": 553.5708749999758,
      "v": 95
    },
    {
      "midi": 70,
      "hit": false,
      "t": 158565.31762499953,
      "d": 559.5232499999693,
      "v": 109
    },
    {
      "midi": 58,
      "hit": false,
      "t": 158922.46012499952,
      "d": 190.4759999999951,
      "v": 104
    },
    {
      "midi": 52,
      "hit": false,
      "t": 159279.6026249995,
      "d": 422.6186249999737,
      "v": 91
    },
    {
      "midi": 67,
      "hit": false,
      "t": 159279.6026249995,
      "d": 470.23762499997974,
      "v": 98
    },
    {
      "midi": 55,
      "hit": false,
      "t": 159279.6026249995,
      "d": 488.0947499999893,
      "v": 95
    },
    {
      "midi": 70,
      "hit": false,
      "t": 159279.6026249995,
      "d": 535.7137499999953,
      "v": 104
    },
    {
      "midi": 60,
      "hit": false,
      "t": 159636.7451249995,
      "d": 267.8568749999977,
      "v": 114
    },
    {
      "midi": 68,
      "hit": false,
      "t": 159993.88762499948,
      "d": 351.1901249999937,
      "v": 95
    },
    {
      "midi": 65,
      "hit": false,
      "t": 159993.88762499948,
      "d": 363.0948749999807,
      "v": 104
    },
    {
      "midi": 56,
      "hit": false,
      "t": 159993.88762499948,
      "d": 1196.4273749999702,
      "v": 95
    },
    {
      "midi": 53,
      "hit": false,
      "t": 159993.88762499948,
      "d": 1273.8082499999728,
      "v": 98
    },
    {
      "midi": 60,
      "hit": false,
      "t": 160351.03012499947,
      "d": 333.33299999998417,
      "v": 104
    },
    {
      "midi": 72,
      "hit": false,
      "t": 160708.17262499945,
      "d": 327.3806249999907,
      "v": 114
    },
    {
      "midi": 68,
      "hit": false,
      "t": 160708.17262499945,
      "d": 380.9519999999902,
      "v": 109
    },
    {
      "midi": 60,
      "hit": false,
      "t": 161065.31512499944,
      "d": 309.52350000001024,
      "v": 98
    },
    {
      "midi": 70,
      "hit": false,
      "t": 161422.45762499946,
      "d": 41.66662500001257,
      "v": 80
    },
    {
      "midi": 63,
      "hit": false,
      "t": 161422.45762499946,
      "d": 422.6186250000028,
      "v": 104
    },
    {
      "midi": 67,
      "hit": false,
      "t": 161422.45762499946,
      "d": 434.52337499998976,
      "v": 98
    },
    {
      "midi": 55,
      "hit": false,
      "t": 161422.45762499946,
      "d": 1059.5227499999746,
      "v": 104
    },
    {
      "midi": 51,
      "hit": false,
      "t": 161422.45762499946,
      "d": 1071.4274999999616,
      "v": 88
    },
    {
      "midi": 60,
      "hit": false,
      "t": 161779.60012499947,
      "d": 351.1901249999646,
      "v": 98
    },
    {
      "midi": 63,
      "hit": false,
      "t": 162136.74262499943,
      "d": 404.76149999999325,
      "v": 95
    },
    {
      "midi": 67,
      "hit": false,
      "t": 162136.74262499943,
      "d": 434.52337499998976,
      "v": 109
    },
    {
      "midi": 72,
      "hit": false,
      "t": 162136.74262499943,
      "d": 482.1423749999958,
      "v": 98
    },
    {
      "midi": 60,
      "hit": false,
      "t": 162493.88512499942,
      "d": 190.4759999999951,
      "v": 120
    },
    {
      "midi": 65,
      "hit": false,
      "t": 162851.0276249994,
      "d": 392.8567499999772,
      "v": 98
    },
    {
      "midi": 68,
      "hit": false,
      "t": 162851.0276249994,
      "d": 392.8567499999772,
      "v": 95
    },
    {
      "midi": 49,
      "hit": false,
      "t": 162851.0276249994,
      "d": 1053.570374999952,
      "v": 95
    },
    {
      "midi": 60,
      "hit": false,
      "t": 163208.1701249994,
      "d": 369.04724999997416,
      "v": 104
    },
    {
      "midi": 53,
      "hit": false,
      "t": 163208.1701249994,
      "d": 744.0468749999418,
      "v": 95
    },
    {
      "midi": 72,
      "hit": false,
      "t": 163565.31262499938,
      "d": 351.1901249999646,
      "v": 109
    },
    {
      "midi": 68,
      "hit": false,
      "t": 163565.31262499938,
      "d": 470.23762499995064,
      "v": 109
    },
    {
      "midi": 65,
      "hit": false,
      "t": 163922.45512499934,
      "d": 202.38074999998207,
      "v": 91
    },
    {
      "midi": 63,
      "hit": false,
      "t": 164279.59762499933,
      "d": 333.33300000001327,
      "v": 95
    },
    {
      "midi": 51,
      "hit": false,
      "t": 164279.59762499933,
      "d": 964.2847500000207,
      "v": 104
    },
    {
      "midi": 70,
      "hit": false,
      "t": 164279.59762499933,
      "d": 6422.612624999834,
      "v": 104
    },
    {
      "midi": 58,
      "hit": false,
      "t": 164636.74012499934,
      "d": 261.9045000000042,
      "v": 104
    },
    {
      "midi": 63,
      "hit": false,
      "t": 164993.88262499936,
      "d": 416.6662499999802,
      "v": 109
    },
    {
      "midi": 67,
      "hit": false,
      "t": 164993.88262499936,
      "d": 452.3804999999702,
      "v": 98
    },
    {
      "midi": 58,
      "hit": false,
      "t": 165351.02512499935,
      "d": 178.57124999997905,
      "v": 95
    },
    {
      "midi": 65,
      "hit": false,
      "t": 165708.16762499933,
      "d": 410.71387499998673,
      "v": 98
    },
    {
      "midi": 68,
      "hit": false,
      "t": 165708.16762499933,
      "d": 422.6186249999737,
      "v": 95
    },
    {
      "midi": 56,
      "hit": false,
      "t": 165708.16762499933,
      "d": 1136.903624999948,
      "v": 104
    },
    {
      "midi": 53,
      "hit": false,
      "t": 165708.16762499933,
      "d": 1148.808374999935,
      "v": 98
    },
    {
      "midi": 60,
      "hit": false,
      "t": 166065.31012499932,
      "d": 327.3806249999907,
      "v": 104
    },
    {
      "midi": 65,
      "hit": false,
      "t": 166422.4526249993,
      "d": 386.9043749999837,
      "v": 114
    },
    {
      "midi": 68,
      "hit": false,
      "t": 166422.4526249993,
      "d": 410.71387499998673,
      "v": 114
    },
    {
      "midi": 60,
      "hit": false,
      "t": 166779.5951249993,
      "d": 357.1424999999872,
      "v": 91
    },
    {
      "midi": 67,
      "hit": false,
      "t": 167136.73762499928,
      "d": 374.99962499999674,
      "v": 109
    },
    {
      "midi": 63,
      "hit": false,
      "t": 167136.73762499928,
      "d": 386.9043749999837,
      "v": 95
    },
    {
      "midi": 55,
      "hit": false,
      "t": 167136.73762499928,
      "d": 999.9989999999525,
      "v": 95
    },
    {
      "midi": 51,
      "hit": false,
      "t": 167136.73762499928,
      "d": 1005.951374999946,
      "v": 88
    },
    {
      "midi": 60,
      "hit": false,
      "t": 167493.88012499927,
      "d": 392.8567499999772,
      "v": 98
    },
    {
      "midi": 63,
      "hit": false,
      "t": 167851.02262499926,
      "d": 392.8567499999481,
      "v": 104
    },
    {
      "midi": 67,
      "hit": false,
      "t": 167851.02262499926,
      "d": 452.3804999999411,
      "v": 114
    },
    {
      "midi": 60,
      "hit": false,
      "t": 168208.1651249992,
      "d": 136.90462499999558,
      "v": 98
    },
    {
      "midi": 49,
      "hit": false,
      "t": 168565.3076249992,
      "d": 999.9989999999525,
      "v": 104
    },
    {
      "midi": 61,
      "hit": false,
      "t": 168922.4501249992,
      "d": 327.3806249999907,
      "v": 104
    },
    {
      "midi": 53,
      "hit": false,
      "t": 168922.4501249992,
      "d": 928.5704999999725,
      "v": 109
    },
    {
      "midi": 61,
      "hit": false,
      "t": 169279.59262499918,
      "d": 273.80924999999115,
      "v": 104
    },
    {
      "midi": 65,
      "hit": false,
      "t": 169279.59262499918,
      "d": 410.71387499998673,
      "v": 104
    },
    {
      "midi": 61,
      "hit": false,
      "t": 169636.73512499916,
      "d": 202.38075000001118,
      "v": 88
    },
    {
      "midi": 68,
      "hit": false,
      "t": 169636.73512499916,
      "d": 220.23787499999162,
      "v": 104
    },
    {
      "midi": 68,
      "hit": false,
      "t": 169993.87762499915,
      "d": 345.23775000000023,
      "v": 104
    },
    {
      "midi": 63,
      "hit": false,
      "t": 169993.87762499915,
      "d": 374.99962499999674,
      "v": 109
    },
    {
      "midi": 51,
      "hit": false,
      "t": 169993.87762499915,
      "d": 1059.5227499999746,
      "v": 109
    },
    {
      "midi": 58,
      "hit": false,
      "t": 170351.02012499914,
      "d": 678.5707499999844,
      "v": 95
    },
    {
      "midi": 70,
      "hit": false,
      "t": 170708.16262499915,
      "d": 303.57112499998766,
      "v": 114
    },
    {
      "midi": 63,
      "hit": false,
      "t": 170708.16262499915,
      "d": 315.4758749999746,
      "v": 95
    },
    {
      "midi": 55,
      "hit": false,
      "t": 170708.16262499915,
      "d": 363.0948749999807,
      "v": 95
    },
    {
      "midi": 72,
      "hit": false,
      "t": 171422.44762499913,
      "d": 315.4758750000037,
      "v": 88
    },
    {
      "midi": 68,
      "hit": false,
      "t": 171422.44762499913,
      "d": 369.04725000000326,
      "v": 95
    },
    {
      "midi": 63,
      "hit": false,
      "t": 171422.44762499913,
      "d": 380.9519999999902,
      "v": 95
    },
    {
      "midi": 51,
      "hit": false,
      "t": 171422.44762499913,
      "d": 738.0945000000065,
      "v": 95
    },
    {
      "midi": 56,
      "hit": false,
      "t": 171422.44762499913,
      "d": 749.9992499999935,
      "v": 109
    },
    {
      "midi": 60,
      "hit": false,
      "t": 171779.59012499914,
      "d": 386.9043749999837,
      "v": 95
    },
    {
      "midi": 72,
      "hit": false,
      "t": 172136.73262499913,
      "d": 351.1901249999937,
      "v": 109
    },
    {
      "midi": 63,
      "hit": false,
      "t": 172136.73262499913,
      "d": 410.71387499998673,
      "v": 109
    },
    {
      "midi": 68,
      "hit": false,
      "t": 172136.73262499913,
      "d": 410.71387499998673,
      "v": 114
    },
    {
      "midi": 60,
      "hit": false,
      "t": 172493.87512499912,
      "d": 303.57112499998766,
      "v": 98
    },
    {
      "midi": 68,
      "hit": false,
      "t": 172851.0176249991,
      "d": 374.99962499999674,
      "v": 124
    },
    {
      "midi": 63,
      "hit": false,
      "t": 172851.0176249991,
      "d": 380.9519999999902,
      "v": 95
    },
    {
      "midi": 51,
      "hit": false,
      "t": 172851.0176249991,
      "d": 1142.8559999999998,
      "v": 80
    },
    {
      "midi": 56,
      "hit": false,
      "t": 172851.0176249991,
      "d": 1196.4273749999993,
      "v": 88
    },
    {
      "midi": 60,
      "hit": false,
      "t": 173208.1601249991,
      "d": 333.33300000001327,
      "v": 88
    },
    {
      "midi": 63,
      "hit": false,
      "t": 173565.3026249991,
      "d": 428.5709999999963,
      "v": 91
    },
    {
      "midi": 68,
      "hit": false,
      "t": 173565.3026249991,
      "d": 434.52337499998976,
      "v": 114
    },
    {
      "midi": 60,
      "hit": false,
      "t": 173922.4451249991,
      "d": 124.99987500000861,
      "v": 82
    },
    {
      "midi": 68,
      "hit": false,
      "t": 174279.5876249991,
      "d": 547.6184999999823,
      "v": 88
    },
    {
      "midi": 65,
      "hit": false,
      "t": 174279.5876249991,
      "d": 559.5232499999693,
      "v": 88
    },
    {
      "midi": 56,
      "hit": false,
      "t": 174279.5876249991,
      "d": 1148.8083749999641,
      "v": 104
    },
    {
      "midi": 49,
      "hit": false,
      "t": 174279.5876249991,
      "d": 1154.7607499999576,
      "v": 95
    },
    {
      "midi": 61,
      "hit": false,
      "t": 174636.7301249991,
      "d": 136.90462499999558,
      "v": 80
    },
    {
      "midi": 68,
      "hit": false,
      "t": 174993.8726249991,
      "d": 363.0948749999807,
      "v": 104
    },
    {
      "midi": 65,
      "hit": false,
      "t": 174993.8726249991,
      "d": 410.71387499998673,
      "v": 109
    },
    {
      "midi": 61,
      "hit": false,
      "t": 175351.01512499907,
      "d": 107.14274999999907,
      "v": 95
    },
    {
      "midi": 58,
      "hit": false,
      "t": 175708.15762499906,
      "d": 178.57125000000815,
      "v": 74
    },
    {
      "midi": 51,
      "hit": false,
      "t": 175708.15762499906,
      "d": 1196.4273749999702,
      "v": 95
    },
    {
      "midi": 58,
      "hit": false,
      "t": 176065.30012499908,
      "d": 154.76175000000512,
      "v": 104
    },
    {
      "midi": 55,
      "hit": false,
      "t": 176065.30012499908,
      "d": 273.80924999999115,
      "v": 98
    },
    {
      "midi": 63,
      "hit": false,
      "t": 176422.44262499906,
      "d": 369.04724999997416,
      "v": 109
    },
    {
      "midi": 70,
      "hit": false,
      "t": 176422.44262499906,
      "d": 398.80912499997066,
      "v": 104
    },
    {
      "midi": 58,
      "hit": false,
      "t": 176779.58512499905,
      "d": 119.04749999998603,
      "v": 91
    },
    {
      "midi": 60,
      "hit": false,
      "t": 177136.72762499904,
      "d": 315.4758750000037,
      "v": 91
    },
    {
      "midi": 51,
      "hit": false,
      "t": 177136.72762499904,
      "d": 1238.0940000000119,
      "v": 95
    },
    {
      "midi": 63,
      "hit": false,
      "t": 177493.87012499906,
      "d": 148.80937500001164,
      "v": 73
    },
    {
      "midi": 56,
      "hit": false,
      "t": 177493.87012499906,
      "d": 851.1896249999991,
      "v": 78
    },
    {
      "midi": 72,
      "hit": false,
      "t": 177851.01262499907,
      "d": 327.3806249999907,
      "v": 109
    },
    {
      "midi": 68,
      "hit": false,
      "t": 177851.01262499907,
      "d": 351.1901249999937,
      "v": 109
    },
    {
      "midi": 60,
      "hit": false,
      "t": 178208.15512499906,
      "d": 321.4282499999972,
      "v": 88
    },
    {
      "midi": 63,
      "hit": false,
      "t": 178565.29762499905,
      "d": 345.23775000000023,
      "v": 95
    },
    {
      "midi": 68,
      "hit": false,
      "t": 178565.29762499905,
      "d": 351.1901249999937,
      "v": 109
    },
    {
      "midi": 48,
      "hit": false,
      "t": 178565.29762499905,
      "d": 1071.4274999999616,
      "v": 74
    },
    {
      "midi": 56,
      "hit": false,
      "t": 178565.29762499905,
      "d": 1345.2367499999527,
      "v": 82
    },
    {
      "midi": 60,
      "hit": false,
      "t": 178922.44012499903,
      "d": 363.0948749999807,
      "v": 85
    },
    {
      "midi": 63,
      "hit": false,
      "t": 179279.58262499902,
      "d": 398.80912499999977,
      "v": 109
    },
    {
      "midi": 68,
      "hit": false,
      "t": 179279.58262499902,
      "d": 434.52337499998976,
      "v": 124
    },
    {
      "midi": 60,
      "hit": false,
      "t": 179636.725124999,
      "d": 142.85699999998906,
      "v": 91
    },
    {
      "midi": 61,
      "hit": false,
      "t": 179993.867624999,
      "d": 357.1424999999872,
      "v": 88
    },
    {
      "midi": 49,
      "hit": false,
      "t": 179993.867624999,
      "d": 1136.9036249999772,
      "v": 95
    },
    {
      "midi": 63,
      "hit": false,
      "t": 180351.01012499898,
      "d": 95.23800000001211,
      "v": 88
    },
    {
      "midi": 68,
      "hit": false,
      "t": 180351.01012499898,
      "d": 95.23800000001211,
      "v": 74
    },
    {
      "midi": 56,
      "hit": false,
      "t": 180351.01012499898,
      "d": 767.856375000003,
      "v": 88
    },
    {
      "midi": 63,
      "hit": false,
      "t": 180708.152624999,
      "d": 434.52337499996065,
      "v": 104
    },
    {
      "midi": 68,
      "hit": false,
      "t": 180708.152624999,
      "d": 523.8089999999502,
      "v": 104
    },
    {
      "midi": 61,
      "hit": false,
      "t": 181065.295124999,
      "d": 130.952249999973,
      "v": 95
    },
    {
      "midi": 51,
      "hit": false,
      "t": 181422.43762499894,
      "d": 1244.0463750000054,
      "v": 104
    },
    {
      "midi": 58,
      "hit": false,
      "t": 181779.58012499893,
      "d": 404.76149999999325,
      "v": 109
    },
    {
      "midi": 63,
      "hit": false,
      "t": 182136.72262499892,
      "d": 398.80912500002887,
      "v": 91
    },
    {
      "midi": 70,
      "hit": false,
      "t": 182136.72262499892,
      "d": 422.6186250000319,
      "v": 104
    },
    {
      "midi": 58,
      "hit": false,
      "t": 182493.86512499893,
      "d": 136.90462500002468,
      "v": 95
    },
    {
      "midi": 48,
      "hit": false,
      "t": 182851.00762499895,
      "d": 1196.4273749999993,
      "v": 95
    },
    {
      "midi": 60,
      "hit": false,
      "t": 183208.15012499894,
      "d": 428.5709999999963,
      "v": 114
    },
    {
      "midi": 55,
      "hit": false,
      "t": 183208.15012499894,
      "d": 845.2372500000056,
      "v": 104
    },
    {
      "midi": 63,
      "hit": false,
      "t": 183565.29262499893,
      "d": 380.9520000000193,
      "v": 104
    },
    {
      "midi": 72,
      "hit": false,
      "t": 183565.29262499893,
      "d": 559.5232500000275,
      "v": 109
    },
    {
      "midi": 60,
      "hit": false,
      "t": 183922.43512499894,
      "d": 267.8568749999977,
      "v": 109
    },
    {
      "midi": 68,
      "hit": false,
      "t": 184279.57762499893,
      "d": 333.33300000001327,
      "v": 91
    },
    {
      "midi": 65,
      "hit": false,
      "t": 184279.57762499893,
      "d": 351.1901250000228,
      "v": 91
    },
    {
      "midi": 53,
      "hit": false,
      "t": 184279.57762499893,
      "d": 1053.5703750000393,
      "v": 109
    },
    {
      "midi": 60,
      "hit": false,
      "t": 184636.72012499894,
      "d": 279.76162500001374,
      "v": 91
    },
    {
      "midi": 72,
      "hit": false,
      "t": 184993.86262499896,
      "d": 363.0948750000098,
      "v": 109
    },
    {
      "midi": 68,
      "hit": false,
      "t": 184993.86262499896,
      "d": 666.6659999999974,
      "v": 109
    },
    {
      "midi": 60,
      "hit": false,
      "t": 185351.00512499898,
      "d": 202.38074999998207,
      "v": 91
    },
    {
      "midi": 61,
      "hit": false,
      "t": 185708.14762499896,
      "d": 380.9519999999902,
      "v": 109
    },
    {
      "midi": 46,
      "hit": false,
      "t": 185708.14762499896,
      "d": 1142.8559999999707,
      "v": 109
    },
    {
      "midi": 65,
      "hit": false,
      "t": 186065.29012499895,
      "d": 148.80937500001164,
      "v": 85
    },
    {
      "midi": 53,
      "hit": false,
      "t": 186065.29012499895,
      "d": 755.951624999987,
      "v": 88
    },
    {
      "midi": 70,
      "hit": false,
      "t": 186422.43262499897,
      "d": 363.0948749999807,
      "v": 104
    },
    {
      "midi": 65,
      "hit": false,
      "t": 186422.43262499897,
      "d": 386.9043749999837,
      "v": 104
    },
    {
      "midi": 73,
      "hit": false,
      "t": 186422.43262499897,
      "d": 404.76149999996414,
      "v": 104
    },
    {
      "midi": 58,
      "hit": false,
      "t": 186422.43262499897,
      "d": 464.28524999995716,
      "v": 82
    },
    {
      "midi": 61,
      "hit": false,
      "t": 186779.57512499896,
      "d": 261.9044999999751,
      "v": 88
    },
    {
      "midi": 58,
      "hit": false,
      "t": 187136.71762499894,
      "d": 238.09500000000116,
      "v": 91
    },
    {
      "midi": 51,
      "hit": false,
      "t": 187136.71762499894,
      "d": 999.9990000000107,
      "v": 114
    },
    {
      "midi": 58,
      "hit": false,
      "t": 187493.86012499893,
      "d": 101.19037500000559,
      "v": 66
    },
    {
      "midi": 63,
      "hit": false,
      "t": 187493.86012499893,
      "d": 154.76175000000512,
      "v": 91
    },
    {
      "midi": 63,
      "hit": false,
      "t": 187851.00262499895,
      "d": 410.71387500001583,
      "v": 104
    },
    {
      "midi": 70,
      "hit": false,
      "t": 187851.00262499895,
      "d": 613.0946249999979,
      "v": 109
    },
    {
      "midi": 58,
      "hit": false,
      "t": 188208.14512499896,
      "d": 226.1902499999851,
      "v": 95
    },
    {
      "midi": 72,
      "hit": false,
      "t": 188565.28762499895,
      "d": 315.4758750000037,
      "v": 88
    },
    {
      "midi": 68,
      "hit": false,
      "t": 188565.28762499895,
      "d": 369.04725000000326,
      "v": 95
    },
    {
      "midi": 63,
      "hit": false,
      "t": 188565.28762499895,
      "d": 380.9519999999902,
      "v": 95
    },
    {
      "midi": 51,
      "hit": false,
      "t": 188565.28762499895,
      "d": 738.0945000000065,
      "v": 95
    },
    {
      "midi": 56,
      "hit": false,
      "t": 188565.28762499895,
      "d": 749.9992499999935,
      "v": 109
    },
    {
      "midi": 60,
      "hit": false,
      "t": 188922.43012499897,
      "d": 386.9043749999837,
      "v": 95
    },
    {
      "midi": 72,
      "hit": false,
      "t": 189279.57262499895,
      "d": 351.1901249999937,
      "v": 109
    },
    {
      "midi": 63,
      "hit": false,
      "t": 189279.57262499895,
      "d": 410.71387499998673,
      "v": 109
    },
    {
      "midi": 68,
      "hit": false,
      "t": 189279.57262499895,
      "d": 410.71387499998673,
      "v": 114
    },
    {
      "midi": 60,
      "hit": false,
      "t": 189636.71512499894,
      "d": 303.57112499998766,
      "v": 98
    },
    {
      "midi": 68,
      "hit": false,
      "t": 189993.85762499893,
      "d": 374.99962499999674,
      "v": 124
    },
    {
      "midi": 63,
      "hit": false,
      "t": 189993.85762499893,
      "d": 380.9519999999902,
      "v": 95
    },
    {
      "midi": 51,
      "hit": false,
      "t": 189993.85762499893,
      "d": 1142.8559999999998,
      "v": 80
    },
    {
      "midi": 56,
      "hit": false,
      "t": 189993.85762499893,
      "d": 1196.4273749999993,
      "v": 88
    },
    {
      "midi": 60,
      "hit": false,
      "t": 190351.0001249989,
      "d": 333.33300000001327,
      "v": 88
    },
    {
      "midi": 63,
      "hit": false,
      "t": 190708.14262499893,
      "d": 428.5709999999963,
      "v": 91
    },
    {
      "midi": 68,
      "hit": false,
      "t": 190708.14262499893,
      "d": 434.52337499998976,
      "v": 114
    },
    {
      "midi": 60,
      "hit": false,
      "t": 191065.28512499892,
      "d": 124.99987500000861,
      "v": 82
    },
    {
      "midi": 68,
      "hit": false,
      "t": 191422.42762499893,
      "d": 547.6184999999823,
      "v": 88
    },
    {
      "midi": 65,
      "hit": false,
      "t": 191422.42762499893,
      "d": 559.5232499999693,
      "v": 88
    },
    {
      "midi": 56,
      "hit": false,
      "t": 191422.42762499893,
      "d": 1148.8083749999641,
      "v": 104
    },
    {
      "midi": 49,
      "hit": false,
      "t": 191422.42762499893,
      "d": 1154.7607499999576,
      "v": 95
    },
    {
      "midi": 61,
      "hit": false,
      "t": 191779.57012499892,
      "d": 136.90462499999558,
      "v": 80
    },
    {
      "midi": 68,
      "hit": false,
      "t": 192136.7126249989,
      "d": 363.0948749999807,
      "v": 104
    },
    {
      "midi": 65,
      "hit": false,
      "t": 192136.7126249989,
      "d": 410.71387499998673,
      "v": 109
    },
    {
      "midi": 61,
      "hit": false,
      "t": 192493.8551249989,
      "d": 107.14274999999907,
      "v": 95
    },
    {
      "midi": 58,
      "hit": false,
      "t": 192850.99762499888,
      "d": 178.57125000000815,
      "v": 74
    },
    {
      "midi": 51,
      "hit": false,
      "t": 192850.99762499888,
      "d": 1196.4273749999702,
      "v": 95
    },
    {
      "midi": 58,
      "hit": false,
      "t": 193208.1401249989,
      "d": 154.76175000000512,
      "v": 104
    },
    {
      "midi": 55,
      "hit": false,
      "t": 193208.1401249989,
      "d": 273.80924999999115,
      "v": 98
    },
    {
      "midi": 63,
      "hit": false,
      "t": 193565.2826249989,
      "d": 369.04724999997416,
      "v": 109
    },
    {
      "midi": 70,
      "hit": false,
      "t": 193565.2826249989,
      "d": 398.80912499997066,
      "v": 104
    },
    {
      "midi": 58,
      "hit": false,
      "t": 193922.42512499887,
      "d": 119.04749999998603,
      "v": 91
    },
    {
      "midi": 60,
      "hit": false,
      "t": 194279.56762499886,
      "d": 315.4758750000037,
      "v": 91
    },
    {
      "midi": 51,
      "hit": false,
      "t": 194279.56762499886,
      "d": 1238.0940000000119,
      "v": 95
    },
    {
      "midi": 63,
      "hit": false,
      "t": 194636.71012499888,
      "d": 148.80937500001164,
      "v": 73
    },
    {
      "midi": 56,
      "hit": false,
      "t": 194636.71012499888,
      "d": 851.1896249999991,
      "v": 78
    },
    {
      "midi": 72,
      "hit": false,
      "t": 194993.8526249989,
      "d": 327.3806249999907,
      "v": 109
    },
    {
      "midi": 68,
      "hit": false,
      "t": 194993.8526249989,
      "d": 351.1901249999937,
      "v": 109
    },
    {
      "midi": 60,
      "hit": false,
      "t": 195350.99512499888,
      "d": 321.4282499999972,
      "v": 88
    },
    {
      "midi": 63,
      "hit": false,
      "t": 195708.13762499887,
      "d": 345.23775000000023,
      "v": 95
    },
    {
      "midi": 68,
      "hit": false,
      "t": 195708.13762499887,
      "d": 351.1901249999937,
      "v": 109
    },
    {
      "midi": 48,
      "hit": false,
      "t": 195708.13762499887,
      "d": 1071.4274999999616,
      "v": 74
    },
    {
      "midi": 56,
      "hit": false,
      "t": 195708.13762499887,
      "d": 1345.2367499999527,
      "v": 82
    },
    {
      "midi": 60,
      "hit": false,
      "t": 196065.28012499886,
      "d": 363.0948749999807,
      "v": 85
    },
    {
      "midi": 63,
      "hit": false,
      "t": 196422.42262499884,
      "d": 398.80912499999977,
      "v": 109
    },
    {
      "midi": 68,
      "hit": false,
      "t": 196422.42262499884,
      "d": 434.52337499998976,
      "v": 124
    },
    {
      "midi": 60,
      "hit": false,
      "t": 196779.56512499883,
      "d": 142.85699999998906,
      "v": 91
    },
    {
      "midi": 61,
      "hit": false,
      "t": 197136.70762499882,
      "d": 357.1424999999872,
      "v": 88
    },
    {
      "midi": 49,
      "hit": false,
      "t": 197136.70762499882,
      "d": 1136.9036249999772,
      "v": 95
    },
    {
      "midi": 63,
      "hit": false,
      "t": 197493.8501249988,
      "d": 95.23800000001211,
      "v": 88
    },
    {
      "midi": 68,
      "hit": false,
      "t": 197493.8501249988,
      "d": 95.23800000001211,
      "v": 74
    },
    {
      "midi": 56,
      "hit": false,
      "t": 197493.8501249988,
      "d": 767.856375000003,
      "v": 88
    },
    {
      "midi": 63,
      "hit": false,
      "t": 197850.99262499882,
      "d": 434.52337499996065,
      "v": 104
    },
    {
      "midi": 68,
      "hit": false,
      "t": 197850.99262499882,
      "d": 523.8089999999502,
      "v": 104
    },
    {
      "midi": 61,
      "hit": false,
      "t": 198208.1351249988,
      "d": 130.952249999973,
      "v": 95
    },
    {
      "midi": 51,
      "hit": false,
      "t": 198565.27762499877,
      "d": 1244.0463750000054,
      "v": 104
    },
    {
      "midi": 58,
      "hit": false,
      "t": 198922.42012499875,
      "d": 404.76149999999325,
      "v": 109
    },
    {
      "midi": 63,
      "hit": false,
      "t": 199279.56262499874,
      "d": 398.80912500002887,
      "v": 91
    },
    {
      "midi": 70,
      "hit": false,
      "t": 199279.56262499874,
      "d": 422.6186250000319,
      "v": 104
    },
    {
      "midi": 58,
      "hit": false,
      "t": 199636.70512499876,
      "d": 136.90462500002468,
      "v": 95
    },
    {
      "midi": 48,
      "hit": false,
      "t": 199993.84762499877,
      "d": 1196.4273749999993,
      "v": 95
    },
    {
      "midi": 60,
      "hit": false,
      "t": 200350.99012499876,
      "d": 428.5709999999963,
      "v": 114
    },
    {
      "midi": 55,
      "hit": false,
      "t": 200350.99012499876,
      "d": 845.2372500000056,
      "v": 104
    },
    {
      "midi": 63,
      "hit": false,
      "t": 200708.13262499875,
      "d": 380.9520000000193,
      "v": 104
    },
    {
      "midi": 72,
      "hit": false,
      "t": 200708.13262499875,
      "d": 559.5232500000275,
      "v": 109
    },
    {
      "midi": 60,
      "hit": false,
      "t": 201065.27512499876,
      "d": 267.8568749999977,
      "v": 109
    },
    {
      "midi": 68,
      "hit": false,
      "t": 201422.41762499875,
      "d": 333.33300000001327,
      "v": 91
    },
    {
      "midi": 65,
      "hit": false,
      "t": 201422.41762499875,
      "d": 351.1901250000228,
      "v": 91
    },
    {
      "midi": 53,
      "hit": false,
      "t": 201422.41762499875,
      "d": 1053.5703750000393,
      "v": 109
    },
    {
      "midi": 60,
      "hit": false,
      "t": 201779.56012499877,
      "d": 279.76162500001374,
      "v": 91
    },
    {
      "midi": 72,
      "hit": false,
      "t": 202136.70262499878,
      "d": 363.0948750000098,
      "v": 109
    },
    {
      "midi": 68,
      "hit": false,
      "t": 202136.70262499878,
      "d": 666.6659999999974,
      "v": 109
    },
    {
      "midi": 60,
      "hit": false,
      "t": 202493.8451249988,
      "d": 202.38074999998207,
      "v": 91
    },
    {
      "midi": 61,
      "hit": false,
      "t": 202850.9876249988,
      "d": 380.9519999999902,
      "v": 109
    },
    {
      "midi": 46,
      "hit": false,
      "t": 202850.9876249988,
      "d": 1142.8559999999707,
      "v": 109
    },
    {
      "midi": 65,
      "hit": false,
      "t": 203208.13012499877,
      "d": 148.80937500001164,
      "v": 85
    },
    {
      "midi": 53,
      "hit": false,
      "t": 203208.13012499877,
      "d": 755.951624999987,
      "v": 88
    },
    {
      "midi": 70,
      "hit": false,
      "t": 203565.2726249988,
      "d": 363.0948749999807,
      "v": 104
    },
    {
      "midi": 65,
      "hit": false,
      "t": 203565.2726249988,
      "d": 386.9043749999837,
      "v": 104
    },
    {
      "midi": 73,
      "hit": false,
      "t": 203565.2726249988,
      "d": 404.76149999996414,
      "v": 104
    },
    {
      "midi": 58,
      "hit": false,
      "t": 203565.2726249988,
      "d": 464.28524999995716,
      "v": 82
    },
    {
      "midi": 61,
      "hit": false,
      "t": 203922.41512499878,
      "d": 261.9044999999751,
      "v": 88
    },
    {
      "midi": 58,
      "hit": false,
      "t": 204279.55762499876,
      "d": 238.09500000000116,
      "v": 91
    },
    {
      "midi": 51,
      "hit": false,
      "t": 204279.55762499876,
      "d": 999.9990000000107,
      "v": 114
    },
    {
      "midi": 58,
      "hit": false,
      "t": 204636.70012499875,
      "d": 101.19037500000559,
      "v": 66
    },
    {
      "midi": 63,
      "hit": false,
      "t": 204636.70012499875,
      "d": 154.76175000000512,
      "v": 91
    },
    {
      "midi": 63,
      "hit": false,
      "t": 204993.84262499877,
      "d": 410.71387500001583,
      "v": 104
    },
    {
      "midi": 70,
      "hit": false,
      "t": 204993.84262499877,
      "d": 613.0946249999979,
      "v": 109
    },
    {
      "midi": 58,
      "hit": false,
      "t": 205350.98512499878,
      "d": 226.1902499999851,
      "v": 95
    },
    {
      "midi": 51,
      "hit": false,
      "t": 205708.12762499877,
      "d": 636.9041250000009,
      "v": 82
    },
    {
      "midi": 63,
      "hit": false,
      "t": 205708.12762499877,
      "d": 684.523125000007,
      "v": 95
    },
    {
      "midi": 58,
      "hit": false,
      "t": 205708.12762499877,
      "d": 690.4755000000005,
      "v": 91
    },
    {
      "midi": 55,
      "hit": false,
      "t": 205708.12762499877,
      "d": 714.2850000000035,
      "v": 88
    },
    {
      "midi": 67,
      "hit": false,
      "t": 205708.12762499877,
      "d": 821.4277500000026,
      "v": 109
    },
    {
      "midi": 70,
      "hit": false,
      "t": 205708.12762499877,
      "d": 827.380124999996,
      "v": 114
    },
    {
      "midi": 55,
      "hit": false,
      "t": 206422.41262499877,
      "d": 380.9519999999902,
      "v": 91
    },
    {
      "midi": 58,
      "hit": false,
      "t": 206422.41262499877,
      "d": 440.47574999998324,
      "v": 82
    },
    {
      "midi": 51,
      "hit": false,
      "t": 206422.41262499877,
      "d": 452.3804999999702,
      "v": 91
    },
    {
      "midi": 63,
      "hit": false,
      "t": 206422.41262499877,
      "d": 476.1899999999732,
      "v": 88
    },
    {
      "midi": 67,
      "hit": false,
      "t": 206779.55512499876,
      "d": 238.09499999997206,
      "v": 98
    },
    {
      "midi": 70,
      "hit": false,
      "t": 206779.55512499876,
      "d": 321.4282499999681,
      "v": 104
    },
    {
      "midi": 67,
      "hit": false,
      "t": 207136.69762499872,
      "d": 3535.7107499999984,
      "v": 109
    },
    {
      "midi": 52,
      "hit": false,
      "t": 207136.69762499872,
      "d": 3595.2344999999914,
      "v": 88
    },
    {
      "midi": 72,
      "hit": false,
      "t": 207136.69762499872,
      "d": 3607.1392499999783,
      "v": 104
    },
    {
      "midi": 58,
      "hit": false,
      "t": 207136.69762499872,
      "d": 3642.8534999999683,
      "v": 95
    },
    {
      "midi": 60,
      "hit": false,
      "t": 207136.69762499872,
      "d": 3642.8534999999683,
      "v": 104
    },
    {
      "midi": 64,
      "hit": false,
      "t": 207136.69762499872,
      "d": 3672.615374999965,
      "v": 109
    },
    {
      "midi": 65,
      "hit": false,
      "t": 211422.40762499868,
      "d": 3482.1393749999406,
      "v": 74
    },
    {
      "midi": 84,
      "hit": false,
      "t": 211779.55012499867,
      "d": 1089.2846249999711,
      "v": 104
    },
    {
      "midi": 77,
      "hit": false,
      "t": 212136.69262499866,
      "d": 363.0948749999807,
      "v": 98
    },
    {
      "midi": 72,
      "hit": false,
      "t": 212136.69262499866,
      "d": 601.1898749999818,
      "v": 80
    },
    {
      "midi": 79,
      "hit": false,
      "t": 212493.83512499864,
      "d": 380.9519999999902,
      "v": 80
    },
    {
      "midi": 72,
      "hit": false,
      "t": 212850.97762499863,
      "d": 642.8565000000235,
      "v": 91
    },
    {
      "midi": 68,
      "hit": false,
      "t": 212850.97762499863,
      "d": 1172.6178749999963,
      "v": 82
    },
    {
      "midi": 77,
      "hit": false,
      "t": 213208.12012499865,
      "d": 440.47575000001234,
      "v": 85
    },
    {
      "midi": 70,
      "hit": false,
      "t": 213565.26262499866,
      "d": 392.8567499999772,
      "v": 95
    },
    {
      "midi": 75,
      "hit": false,
      "t": 213922.40512499865,
      "d": 726.1897499999614,
      "v": 91
    },
    {
      "midi": 68,
      "hit": false,
      "t": 214279.54762499864,
      "d": 571.4279999999853,
      "v": 80
    },
    {
      "midi": 72,
      "hit": false,
      "t": 214636.69012499863,
      "d": 374.99962499999674,
      "v": 85
    },
    {
      "midi": 65,
      "hit": false,
      "t": 214993.8326249986,
      "d": 708.33262500001,
      "v": 95
    },
    {
      "midi": 70,
      "hit": false,
      "t": 215350.97512499863,
      "d": 660.7136249999749,
      "v": 82
    },
    {
      "midi": 60,
      "hit": false,
      "t": 215708.11762499862,
      "d": 7267.849875000014,
      "v": 95
    },
    {
      "midi": 63,
      "hit": false,
      "t": 216065.2601249986,
      "d": 452.3804999999993,
      "v": 88
    },
    {
      "midi": 67,
      "hit": false,
      "t": 216422.4026249986,
      "d": 374.99962500002584,
      "v": 91
    },
    {
      "midi": 65,
      "hit": false,
      "t": 216779.5451249986,
      "d": 6029.755875000032,
      "v": 80
    },
    {
      "midi": 56,
      "hit": false,
      "t": 217136.68762499862,
      "d": 5571.42300000001,
      "v": 82
    }
  ]
}