{
  "jsonPath": "Rock/Psych Gaze/The Darkside/love-in-a-burning-universe.json",
  "path": "Rock\\Psych Gaze\\The Darkside\\Love In A Burning Universe.mid",
  "name": "Love In A Burning Universe",
  "difficulty": "Advanced",
  "bpm": 132.000132000132,
  "notes": [
    {
      "midi": 60,
      "hit": false,
      "t": 0,
      "d": 41.666625,
      "v": 125
    },
    {
      "midi": 63,
      "hit": false,
      "t": 0,
      "d": 41.666625,
      "v": 125
    },
    {
      "midi": 67,
      "hit": false,
      "t": 0,
      "d": 41.666625,
      "v": 125
    },
    {
      "midi": 48,
      "hit": false,
      "t": 0,
      "d": 60.60600000000001,
      "v": 125
    },
    {
      "midi": 60,
      "hit": false,
      "t": 212.12100000000004,
      "d": 56.81812500000001,
      "v": 125
    },
    {
      "midi": 63,
      "hit": false,
      "t": 212.12100000000004,
      "d": 75.7575,
      "v": 125
    },
    {
      "midi": 67,
      "hit": false,
      "t": 212.12100000000004,
      "d": 75.7575,
      "v": 125
    },
    {
      "midi": 48,
      "hit": false,
      "t": 212.12100000000004,
      "d": 94.69687499999998,
      "v": 125
    },
    {
      "midi": 59,
      "hit": false,
      "t": 1803.0285,
      "d": 56.81812500000001,
      "v": 121
    },
    {
      "midi": 63,
      "hit": false,
      "t": 1803.0285,
      "d": 75.75749999999994,
      "v": 125
    },
    {
      "midi": 67,
      "hit": false,
      "t": 1803.0285,
      "d": 75.75749999999994,
      "v": 125
    },
    {
      "midi": 47,
      "hit": false,
      "t": 1803.0285,
      "d": 94.69687499999986,
      "v": 125
    },
    {
      "midi": 59,
      "hit": false,
      "t": 2030.3009999999997,
      "d": 56.81812500000001,
      "v": 125
    },
    {
      "midi": 63,
      "hit": false,
      "t": 2030.3009999999997,
      "d": 75.75749999999994,
      "v": 125
    },
    {
      "midi": 67,
      "hit": false,
      "t": 2030.3009999999997,
      "d": 75.75749999999994,
      "v": 125
    },
    {
      "midi": 47,
      "hit": false,
      "t": 2030.3009999999997,
      "d": 94.69687499999986,
      "v": 125
    },
    {
      "midi": 58,
      "hit": false,
      "t": 3621.2084999999997,
      "d": 56.81812499999978,
      "v": 109
    },
    {
      "midi": 62,
      "hit": false,
      "t": 3621.2084999999997,
      "d": 75.75749999999971,
      "v": 125
    },
    {
      "midi": 65,
      "hit": false,
      "t": 3621.2084999999997,
      "d": 75.75749999999971,
      "v": 121
    },
    {
      "midi": 46,
      "hit": false,
      "t": 3621.2084999999997,
      "d": 94.69687499999964,
      "v": 121
    },
    {
      "midi": 58,
      "hit": false,
      "t": 3848.4809999999993,
      "d": 75.75750000000016,
      "v": 113
    },
    {
      "midi": 46,
      "hit": false,
      "t": 3848.4809999999993,
      "d": 94.69687500000009,
      "v": 125
    },
    {
      "midi": 62,
      "hit": false,
      "t": 3848.4809999999993,
      "d": 94.69687500000009,
      "v": 125
    },
    {
      "midi": 65,
      "hit": false,
      "t": 3848.4809999999993,
      "d": 94.69687500000009,
      "v": 125
    },
    {
      "midi": 56,
      "hit": false,
      "t": 4530.298499999999,
      "d": 56.81812499999978,
      "v": 113
    },
    {
      "midi": 44,
      "hit": false,
      "t": 4530.298499999999,
      "d": 75.75749999999971,
      "v": 121
    },
    {
      "midi": 60,
      "hit": false,
      "t": 4530.298499999999,
      "d": 75.75749999999971,
      "v": 125
    },
    {
      "midi": 63,
      "hit": false,
      "t": 4530.298499999999,
      "d": 75.75749999999971,
      "v": 125
    },
    {
      "midi": 56,
      "hit": false,
      "t": 4757.570999999999,
      "d": 56.81812499999978,
      "v": 117
    },
    {
      "midi": 63,
      "hit": false,
      "t": 4757.570999999999,
      "d": 75.75749999999971,
      "v": 125
    },
    {
      "midi": 60,
      "hit": false,
      "t": 4757.570999999999,
      "d": 94.69687499999964,
      "v": 125
    },
    {
      "midi": 44,
      "hit": false,
      "t": 4757.570999999999,
      "d": 113.63624999999956,
      "v": 125
    },
    {
      "midi": 44,
      "hit": false,
      "t": 5666.660999999998,
      "d": 132.5756250000004,
      "v": 125
    },
    {
      "midi": 60,
      "hit": false,
      "t": 5666.660999999998,
      "d": 132.5756250000004,
      "v": 121
    },
    {
      "midi": 63,
      "hit": false,
      "t": 5666.660999999998,
      "d": 132.5756250000004,
      "v": 125
    },
    {
      "midi": 56,
      "hit": false,
      "t": 5666.660999999998,
      "d": 151.51500000000033,
      "v": 113
    },
    {
      "midi": 66,
      "hit": false,
      "t": 5666.660999999998,
      "d": 151.51500000000033,
      "v": 109
    },
    {
      "midi": 65,
      "hit": false,
      "t": 6348.478499999998,
      "d": 37.878749999999854,
      "v": 109
    },
    {
      "midi": 55,
      "hit": false,
      "t": 6348.478499999998,
      "d": 587.1206249999996,
      "v": 125
    },
    {
      "midi": 43,
      "hit": false,
      "t": 6348.478499999998,
      "d": 606.0599999999995,
      "v": 125
    },
    {
      "midi": 60,
      "hit": false,
      "t": 6348.478499999998,
      "d": 606.0599999999995,
      "v": 125
    },
    {
      "midi": 62,
      "hit": false,
      "t": 6348.478499999998,
      "d": 606.0599999999995,
      "v": 125
    },
    {
      "midi": 67,
      "hit": false,
      "t": 6348.478499999998,
      "d": 624.9993749999994,
      "v": 125
    },
    {
      "midi": 60,
      "hit": false,
      "t": 7257.568499999998,
      "d": 56.81812499999978,
      "v": 113
    },
    {
      "midi": 63,
      "hit": false,
      "t": 7257.568499999998,
      "d": 56.81812499999978,
      "v": 113
    },
    {
      "midi": 65,
      "hit": false,
      "t": 7257.568499999998,
      "d": 56.81812499999978,
      "v": 121
    },
    {
      "midi": 68,
      "hit": false,
      "t": 7257.568499999998,
      "d": 56.81812499999978,
      "v": 113
    },
    {
      "midi": 53,
      "hit": false,
      "t": 7257.568499999998,
      "d": 94.69687499999964,
      "v": 113
    },
    {
      "midi": 68,
      "hit": false,
      "t": 7484.840999999998,
      "d": 56.81812499999978,
      "v": 117
    },
    {
      "midi": 60,
      "hit": false,
      "t": 7484.840999999998,
      "d": 75.75749999999971,
      "v": 121
    },
    {
      "midi": 63,
      "hit": false,
      "t": 7484.840999999998,
      "d": 75.75749999999971,
      "v": 121
    },
    {
      "midi": 65,
      "hit": false,
      "t": 7484.840999999998,
      "d": 75.75749999999971,
      "v": 125
    },
    {
      "midi": 53,
      "hit": false,
      "t": 7484.840999999998,
      "d": 113.63624999999956,
      "v": 121
    },
    {
      "midi": 65,
      "hit": false,
      "t": 8393.930999999997,
      "d": 435.60562500000015,
      "v": 125
    },
    {
      "midi": 68,
      "hit": false,
      "t": 8393.930999999997,
      "d": 435.60562500000015,
      "v": 125
    },
    {
      "midi": 62,
      "hit": false,
      "t": 8393.930999999997,
      "d": 473.484375,
      "v": 125
    },
    {
      "midi": 46,
      "hit": false,
      "t": 8393.930999999997,
      "d": 492.4237499999999,
      "v": 125
    },
    {
      "midi": 58,
      "hit": false,
      "t": 8393.930999999997,
      "d": 511.36312499999985,
      "v": 117
    },
    {
      "midi": 58,
      "hit": false,
      "t": 9075.748499999996,
      "d": 75.75749999999971,
      "v": 97
    },
    {
      "midi": 63,
      "hit": false,
      "t": 9075.748499999996,
      "d": 75.75749999999971,
      "v": 105
    },
    {
      "midi": 51,
      "hit": false,
      "t": 9075.748499999996,
      "d": 94.69687499999964,
      "v": 121
    },
    {
      "midi": 62,
      "hit": false,
      "t": 9075.748499999996,
      "d": 94.69687499999964,
      "v": 109
    },
    {
      "midi": 67,
      "hit": false,
      "t": 9075.748499999996,
      "d": 94.69687499999964,
      "v": 105
    },
    {
      "midi": 67,
      "hit": false,
      "t": 9303.020999999995,
      "d": 75.75749999999971,
      "v": 113
    },
    {
      "midi": 62,
      "hit": false,
      "t": 9303.020999999995,
      "d": 94.69687499999964,
      "v": 125
    },
    {
      "midi": 63,
      "hit": false,
      "t": 9303.020999999995,
      "d": 94.69687499999964,
      "v": 113
    },
    {
      "midi": 51,
      "hit": false,
      "t": 9303.020999999995,
      "d": 113.63624999999956,
      "v": 125
    },
    {
      "midi": 58,
      "hit": false,
      "t": 9303.020999999995,
      "d": 113.63624999999956,
      "v": 113
    },
    {
      "midi": 63,
      "hit": false,
      "t": 10212.110999999995,
      "d": 416.6662500000002,
      "v": 125
    },
    {
      "midi": 60,
      "hit": false,
      "t": 10212.110999999995,
      "d": 435.60562500000015,
      "v": 125
    },
    {
      "midi": 44,
      "hit": false,
      "t": 10212.110999999995,
      "d": 454.5450000000001,
      "v": 125
    },
    {
      "midi": 67,
      "hit": false,
      "t": 10212.110999999995,
      "d": 454.5450000000001,
      "v": 125
    },
    {
      "midi": 56,
      "hit": false,
      "t": 10212.110999999995,
      "d": 473.484375,
      "v": 117
    },
    {
      "midi": 56,
      "hit": false,
      "t": 10893.928499999995,
      "d": 75.75749999999971,
      "v": 105
    },
    {
      "midi": 65,
      "hit": false,
      "t": 10893.928499999995,
      "d": 75.75749999999971,
      "v": 105
    },
    {
      "midi": 62,
      "hit": false,
      "t": 10893.928499999995,
      "d": 94.69687499999964,
      "v": 117
    },
    {
      "midi": 41,
      "hit": false,
      "t": 10893.928499999995,
      "d": 113.63624999999956,
      "v": 109
    },
    {
      "midi": 60,
      "hit": false,
      "t": 10893.928499999995,
      "d": 113.63624999999956,
      "v": 117
    },
    {
      "midi": 65,
      "hit": false,
      "t": 11121.200999999994,
      "d": 94.69687499999964,
      "v": 113
    },
    {
      "midi": 41,
      "hit": false,
      "t": 11121.200999999994,
      "d": 113.63624999999956,
      "v": 105
    },
    {
      "midi": 56,
      "hit": false,
      "t": 11121.200999999994,
      "d": 113.63624999999956,
      "v": 105
    },
    {
      "midi": 62,
      "hit": false,
      "t": 11121.200999999994,
      "d": 113.63624999999956,
      "v": 121
    },
    {
      "midi": 60,
      "hit": false,
      "t": 11121.200999999994,
      "d": 132.5756249999995,
      "v": 125
    },
    {
      "midi": 60,
      "hit": false,
      "t": 12030.290999999994,
      "d": 416.6662500000002,
      "v": 125
    },
    {
      "midi": 56,
      "hit": false,
      "t": 12030.290999999994,
      "d": 435.60562500000015,
      "v": 113
    },
    {
      "midi": 65,
      "hit": false,
      "t": 12030.290999999994,
      "d": 435.60562500000015,
      "v": 113
    },
    {
      "midi": 50,
      "hit": false,
      "t": 12030.290999999994,
      "d": 473.484375,
      "v": 125
    },
    {
      "midi": 61,
      "hit": false,
      "t": 12939.380999999994,
      "d": 37.878749999999854,
      "v": 109
    },
    {
      "midi": 53,
      "hit": false,
      "t": 12939.380999999994,
      "d": 132.5756249999995,
      "v": 113
    },
    {
      "midi": 56,
      "hit": false,
      "t": 12939.380999999994,
      "d": 132.5756249999995,
      "v": 125
    },
    {
      "midi": 58,
      "hit": false,
      "t": 12939.380999999994,
      "d": 132.5756249999995,
      "v": 125
    },
    {
      "midi": 46,
      "hit": false,
      "t": 12939.380999999994,
      "d": 151.51499999999942,
      "v": 125
    },
    {
      "midi": 62,
      "hit": false,
      "t": 12939.380999999994,
      "d": 151.51499999999942,
      "v": 109
    },
    {
      "midi": 51,
      "hit": false,
      "t": 13848.470999999994,
      "d": 530.3024999999998,
      "v": 125
    },
    {
      "midi": 55,
      "hit": false,
      "t": 13848.470999999994,
      "d": 530.3024999999998,
      "v": 113
    },
    {
      "midi": 58,
      "hit": false,
      "t": 13848.470999999994,
      "d": 530.3024999999998,
      "v": 113
    },
    {
      "midi": 62,
      "hit": false,
      "t": 13848.470999999994,
      "d": 530.3024999999998,
      "v": 125
    },
    {
      "midi": 63,
      "hit": false,
      "t": 13848.470999999994,
      "d": 530.3024999999998,
      "v": 109
    },
    {
      "midi": 48,
      "hit": false,
      "t": 14530.288499999993,
      "d": 265.151249999999,
      "v": 85
    },
    {
      "midi": 63,
      "hit": false,
      "t": 14757.560999999992,
      "d": 37.878749999999854,
      "v": 101
    },
    {
      "midi": 67,
      "hit": false,
      "t": 14757.560999999992,
      "d": 37.878749999999854,
      "v": 85
    },
    {
      "midi": 60,
      "hit": false,
      "t": 14757.560999999992,
      "d": 56.81812499999978,
      "v": 89
    },
    {
      "midi": 63,
      "hit": false,
      "t": 15212.105999999992,
      "d": 37.878749999999854,
      "v": 105
    },
    {
      "midi": 60,
      "hit": false,
      "t": 15212.105999999992,
      "d": 56.81812499999978,
      "v": 93
    },
    {
      "midi": 67,
      "hit": false,
      "t": 15212.105999999992,
      "d": 56.81812499999978,
      "v": 97
    },
    {
      "midi": 48,
      "hit": false,
      "t": 15439.378499999992,
      "d": 435.60562500000015,
      "v": 121
    },
    {
      "midi": 60,
      "hit": false,
      "t": 15893.923499999992,
      "d": 56.81812499999978,
      "v": 93
    },
    {
      "midi": 63,
      "hit": false,
      "t": 15893.923499999992,
      "d": 56.81812499999978,
      "v": 105
    },
    {
      "midi": 67,
      "hit": false,
      "t": 15893.923499999992,
      "d": 56.81812499999978,
      "v": 93
    },
    {
      "midi": 48,
      "hit": false,
      "t": 16121.19599999999,
      "d": 18.939374999999927,
      "v": 77
    },
    {
      "midi": 63,
      "hit": false,
      "t": 16234.83224999999,
      "d": 37.878749999999854,
      "v": 101
    },
    {
      "midi": 67,
      "hit": false,
      "t": 16234.83224999999,
      "d": 37.878749999999854,
      "v": 89
    },
    {
      "midi": 60,
      "hit": false,
      "t": 16234.83224999999,
      "d": 56.81812499999978,
      "v": 93
    },
    {
      "midi": 47,
      "hit": false,
      "t": 16348.46849999999,
      "d": 246.2118750000027,
      "v": 117
    },
    {
      "midi": 59,
      "hit": false,
      "t": 16575.74099999999,
      "d": 56.8181250000016,
      "v": 93
    },
    {
      "midi": 63,
      "hit": false,
      "t": 16575.74099999999,
      "d": 56.8181250000016,
      "v": 105
    },
    {
      "midi": 67,
      "hit": false,
      "t": 16575.74099999999,
      "d": 56.8181250000016,
      "v": 97
    },
    {
      "midi": 59,
      "hit": false,
      "t": 17030.285999999993,
      "d": 56.8181250000016,
      "v": 89
    },
    {
      "midi": 63,
      "hit": false,
      "t": 17030.285999999993,
      "d": 56.8181250000016,
      "v": 105
    },
    {
      "midi": 67,
      "hit": false,
      "t": 17030.285999999993,
      "d": 56.8181250000016,
      "v": 97
    },
    {
      "midi": 47,
      "hit": false,
      "t": 17257.558499999996,
      "d": 473.484375,
      "v": 121
    },
    {
      "midi": 59,
      "hit": false,
      "t": 17712.103499999994,
      "d": 170.45437500000116,
      "v": 101
    },
    {
      "midi": 63,
      "hit": false,
      "t": 17712.103499999994,
      "d": 170.45437500000116,
      "v": 109
    },
    {
      "midi": 67,
      "hit": false,
      "t": 17712.103499999994,
      "d": 170.45437500000116,
      "v": 105
    },
    {
      "midi": 47,
      "hit": false,
      "t": 17939.375999999997,
      "d": 56.8181250000016,
      "v": 97
    },
    {
      "midi": 63,
      "hit": false,
      "t": 18053.01225,
      "d": 56.8181250000016,
      "v": 89
    },
    {
      "midi": 67,
      "hit": false,
      "t": 18053.01225,
      "d": 56.8181250000016,
      "v": 85
    },
    {
      "midi": 59,
      "hit": false,
      "t": 18053.01225,
      "d": 94.69687500000146,
      "v": 85
    },
    {
      "midi": 46,
      "hit": false,
      "t": 18166.648500000003,
      "d": 284.0906250000007,
      "v": 109
    },
    {
      "midi": 58,
      "hit": false,
      "t": 18393.921000000002,
      "d": 75.75750000000335,
      "v": 89
    },
    {
      "midi": 65,
      "hit": false,
      "t": 18393.921000000002,
      "d": 94.6968750000051,
      "v": 89
    },
    {
      "midi": 62,
      "hit": false,
      "t": 18393.921000000002,
      "d": 113.63625000000684,
      "v": 93
    },
    {
      "midi": 62,
      "hit": false,
      "t": 18848.466000000008,
      "d": 56.8181250000016,
      "v": 109
    },
    {
      "midi": 65,
      "hit": false,
      "t": 18848.466000000008,
      "d": 56.8181250000016,
      "v": 97
    },
    {
      "midi": 58,
      "hit": false,
      "t": 18848.466000000008,
      "d": 75.75750000000335,
      "v": 89
    },
    {
      "midi": 44,
      "hit": false,
      "t": 19075.73850000001,
      "d": 473.484375,
      "v": 121
    },
    {
      "midi": 56,
      "hit": false,
      "t": 19530.28350000001,
      "d": 75.75750000000335,
      "v": 97
    },
    {
      "midi": 60,
      "hit": false,
      "t": 19530.28350000001,
      "d": 75.75750000000335,
      "v": 105
    },
    {
      "midi": 63,
      "hit": false,
      "t": 19530.28350000001,
      "d": 75.75750000000335,
      "v": 109
    },
    {
      "midi": 44,
      "hit": false,
      "t": 19757.55600000001,
      "d": 18.939375000001746,
      "v": 101
    },
    {
      "midi": 56,
      "hit": false,
      "t": 19871.192250000015,
      "d": 56.8181250000016,
      "v": 77
    },
    {
      "midi": 60,
      "hit": false,
      "t": 19871.192250000015,
      "d": 56.8181250000016,
      "v": 85
    },
    {
      "midi": 63,
      "hit": false,
      "t": 19871.192250000015,
      "d": 75.75750000000335,
      "v": 101
    },
    {
      "midi": 44,
      "hit": false,
      "t": 19984.828500000018,
      "d": 284.0906250000007,
      "v": 117
    },
    {
      "midi": 66,
      "hit": false,
      "t": 20212.101000000017,
      "d": 94.69687500000146,
      "v": 81
    },
    {
      "midi": 56,
      "hit": false,
      "t": 20212.101000000017,
      "d": 113.6362500000032,
      "v": 81
    },
    {
      "midi": 60,
      "hit": false,
      "t": 20212.101000000017,
      "d": 113.6362500000032,
      "v": 97
    },
    {
      "midi": 63,
      "hit": false,
      "t": 20212.101000000017,
      "d": 113.6362500000032,
      "v": 85
    },
    {
      "midi": 63,
      "hit": false,
      "t": 20666.64600000002,
      "d": 56.8181250000016,
      "v": 109
    },
    {
      "midi": 66,
      "hit": false,
      "t": 20666.64600000002,
      "d": 56.8181250000016,
      "v": 89
    },
    {
      "midi": 56,
      "hit": false,
      "t": 20666.64600000002,
      "d": 75.75750000000335,
      "v": 101
    },
    {
      "midi": 60,
      "hit": false,
      "t": 20666.64600000002,
      "d": 75.75750000000335,
      "v": 109
    },
    {
      "midi": 43,
      "hit": false,
      "t": 20893.91850000002,
      "d": 454.54499999999825,
      "v": 113
    },
    {
      "midi": 55,
      "hit": false,
      "t": 21348.46350000002,
      "d": 189.39374999999927,
      "v": 101
    },
    {
      "midi": 60,
      "hit": false,
      "t": 21348.46350000002,
      "d": 189.39374999999927,
      "v": 113
    },
    {
      "midi": 67,
      "hit": false,
      "t": 21348.46350000002,
      "d": 189.39374999999927,
      "v": 89
    },
    {
      "midi": 62,
      "hit": false,
      "t": 21348.46350000002,
      "d": 208.33312500000102,
      "v": 113
    },
    {
      "midi": 43,
      "hit": false,
      "t": 21575.736000000023,
      "d": 75.75749999999971,
      "v": 73
    },
    {
      "midi": 55,
      "hit": false,
      "t": 21689.372250000022,
      "d": 56.8181250000016,
      "v": 89
    },
    {
      "midi": 60,
      "hit": false,
      "t": 21689.372250000022,
      "d": 56.8181250000016,
      "v": 97
    },
    {
      "midi": 62,
      "hit": false,
      "t": 21689.372250000022,
      "d": 56.8181250000016,
      "v": 97
    },
    {
      "midi": 67,
      "hit": false,
      "t": 21689.372250000022,
      "d": 75.75750000000335,
      "v": 77
    },
    {
      "midi": 53,
      "hit": false,
      "t": 21803.008500000025,
      "d": 303.0300000000025,
      "v": 109
    },
    {
      "midi": 63,
      "hit": false,
      "t": 22030.281000000025,
      "d": 56.8181250000016,
      "v": 93
    },
    {
      "midi": 65,
      "hit": false,
      "t": 22030.281000000025,
      "d": 56.8181250000016,
      "v": 89
    },
    {
      "midi": 68,
      "hit": false,
      "t": 22030.281000000025,
      "d": 56.8181250000016,
      "v": 85
    },
    {
      "midi": 60,
      "hit": false,
      "t": 22030.281000000025,
      "d": 75.75750000000335,
      "v": 89
    },
    {
      "midi": 68,
      "hit": false,
      "t": 22484.826000000026,
      "d": 37.878749999999854,
      "v": 89
    },
    {
      "midi": 65,
      "hit": false,
      "t": 22484.826000000026,
      "d": 56.8181250000016,
      "v": 97
    },
    {
      "midi": 60,
      "hit": false,
      "t": 22484.826000000026,
      "d": 75.75750000000335,
      "v": 97
    },
    {
      "midi": 63,
      "hit": false,
      "t": 22484.826000000026,
      "d": 75.75750000000335,
      "v": 97
    },
    {
      "midi": 46,
      "hit": false,
      "t": 22712.09850000003,
      "d": 473.484375,
      "v": 113
    },
    {
      "midi": 65,
      "hit": false,
      "t": 23166.643500000027,
      "d": 189.3937500000029,
      "v": 81
    },
    {
      "midi": 68,
      "hit": false,
      "t": 23166.643500000027,
      "d": 189.3937500000029,
      "v": 101
    },
    {
      "midi": 58,
      "hit": false,
      "t": 23166.643500000027,
      "d": 208.33312500000466,
      "v": 97
    },
    {
      "midi": 62,
      "hit": false,
      "t": 23166.643500000027,
      "d": 208.33312500000466,
      "v": 105
    },
    {
      "midi": 46,
      "hit": false,
      "t": 23393.916000000034,
      "d": 75.75749999999971,
      "v": 105
    },
    {
      "midi": 68,
      "hit": false,
      "t": 23507.552250000033,
      "d": 37.878749999999854,
      "v": 81
    },
    {
      "midi": 62,
      "hit": false,
      "t": 23507.552250000033,
      "d": 56.8181250000016,
      "v": 89
    },
    {
      "midi": 58,
      "hit": false,
      "t": 23507.552250000033,
      "d": 113.6362500000032,
      "v": 81
    },
    {
      "midi": 51,
      "hit": false,
      "t": 23621.188500000037,
      "d": 265.151249999999,
      "v": 109
    },
    {
      "midi": 58,
      "hit": false,
      "t": 23848.461000000036,
      "d": 75.75749999999971,
      "v": 77
    },
    {
      "midi": 62,
      "hit": false,
      "t": 23848.461000000036,
      "d": 75.75749999999971,
      "v": 97
    },
    {
      "midi": 63,
      "hit": false,
      "t": 23848.461000000036,
      "d": 75.75749999999971,
      "v": 73
    },
    {
      "midi": 67,
      "hit": false,
      "t": 23848.461000000036,
      "d": 75.75749999999971,
      "v": 85
    },
    {
      "midi": 67,
      "hit": false,
      "t": 24303.006000000034,
      "d": 75.75749999999971,
      "v": 93
    },
    {
      "midi": 58,
      "hit": false,
      "t": 24303.006000000034,
      "d": 94.69687500000146,
      "v": 85
    },
    {
      "midi": 62,
      "hit": false,
      "t": 24303.006000000034,
      "d": 94.69687500000146,
      "v": 105
    },
    {
      "midi": 63,
      "hit": false,
      "t": 24303.006000000034,
      "d": 94.69687500000146,
      "v": 97
    },
    {
      "midi": 44,
      "hit": false,
      "t": 24530.278500000037,
      "d": 435.60562500000015,
      "v": 109
    },
    {
      "midi": 56,
      "hit": false,
      "t": 24984.82350000004,
      "d": 208.33312500000102,
      "v": 89
    },
    {
      "midi": 63,
      "hit": false,
      "t": 24984.82350000004,
      "d": 208.33312500000102,
      "v": 77
    },
    {
      "midi": 60,
      "hit": false,
      "t": 24984.82350000004,
      "d": 227.27250000000276,
      "v": 89
    },
    {
      "midi": 67,
      "hit": false,
      "t": 24984.82350000004,
      "d": 227.27250000000276,
      "v": 89
    },
    {
      "midi": 44,
      "hit": false,
      "t": 25212.09600000004,
      "d": 75.75749999999971,
      "v": 101
    },
    {
      "midi": 67,
      "hit": false,
      "t": 25325.73225000004,
      "d": 56.8181250000016,
      "v": 61
    },
    {
      "midi": 56,
      "hit": false,
      "t": 25325.73225000004,
      "d": 75.75750000000335,
      "v": 73
    },
    {
      "midi": 60,
      "hit": false,
      "t": 25325.73225000004,
      "d": 75.75750000000335,
      "v": 89
    },
    {
      "midi": 63,
      "hit": false,
      "t": 25325.73225000004,
      "d": 75.75750000000335,
      "v": 81
    },
    {
      "midi": 41,
      "hit": false,
      "t": 25439.368500000044,
      "d": 284.0906250000007,
      "v": 89
    },
    {
      "midi": 56,
      "hit": false,
      "t": 25666.641000000043,
      "d": 75.75750000000335,
      "v": 73
    },
    {
      "midi": 62,
      "hit": false,
      "t": 25666.641000000043,
      "d": 75.75750000000335,
      "v": 89
    },
    {
      "midi": 60,
      "hit": false,
      "t": 25666.641000000043,
      "d": 94.6968750000051,
      "v": 89
    },
    {
      "midi": 65,
      "hit": false,
      "t": 25666.641000000043,
      "d": 94.6968750000051,
      "v": 85
    },
    {
      "midi": 65,
      "hit": false,
      "t": 26121.18600000005,
      "d": 75.75749999999971,
      "v": 81
    },
    {
      "midi": 56,
      "hit": false,
      "t": 26121.18600000005,
      "d": 113.63624999999956,
      "v": 77
    },
    {
      "midi": 62,
      "hit": false,
      "t": 26121.18600000005,
      "d": 113.63624999999956,
      "v": 93
    },
    {
      "midi": 60,
      "hit": false,
      "t": 26121.18600000005,
      "d": 132.5756250000013,
      "v": 93
    },
    {
      "midi": 50,
      "hit": false,
      "t": 26348.45850000005,
      "d": 473.484375,
      "v": 105
    },
    {
      "midi": 56,
      "hit": false,
      "t": 26803.00350000005,
      "d": 227.27250000000276,
      "v": 77
    },
    {
      "midi": 60,
      "hit": false,
      "t": 26803.00350000005,
      "d": 227.27250000000276,
      "v": 89
    },
    {
      "midi": 65,
      "hit": false,
      "t": 26803.00350000005,
      "d": 227.27250000000276,
      "v": 89
    },
    {
      "midi": 50,
      "hit": false,
      "t": 27030.276000000053,
      "d": 75.75749999999971,
      "v": 89
    },
    {
      "midi": 56,
      "hit": false,
      "t": 27143.912250000052,
      "d": 75.75749999999971,
      "v": 73
    },
    {
      "midi": 60,
      "hit": false,
      "t": 27143.912250000052,
      "d": 75.75749999999971,
      "v": 85
    },
    {
      "midi": 65,
      "hit": false,
      "t": 27143.912250000052,
      "d": 75.75749999999971,
      "v": 85
    },
    {
      "midi": 46,
      "hit": false,
      "t": 27257.54850000005,
      "d": 265.151249999999,
      "v": 105
    },
    {
      "midi": 58,
      "hit": false,
      "t": 27484.82100000005,
      "d": 75.75749999999971,
      "v": 77
    },
    {
      "midi": 53,
      "hit": false,
      "t": 27484.82100000005,
      "d": 94.69687500000146,
      "v": 73
    },
    {
      "midi": 62,
      "hit": false,
      "t": 27484.82100000005,
      "d": 94.69687500000146,
      "v": 85
    },
    {
      "midi": 58,
      "hit": false,
      "t": 27939.366000000053,
      "d": 56.8181250000016,
      "v": 81
    },
    {
      "midi": 53,
      "hit": false,
      "t": 27939.366000000053,
      "d": 75.75750000000335,
      "v": 89
    },
    {
      "midi": 62,
      "hit": false,
      "t": 27939.366000000053,
      "d": 75.75750000000335,
      "v": 97
    },
    {
      "midi": 51,
      "hit": false,
      "t": 28166.638500000056,
      "d": 473.484375,
      "v": 105
    },
    {
      "midi": 55,
      "hit": false,
      "t": 28621.183500000054,
      "d": 435.60562500000015,
      "v": 77
    },
    {
      "midi": 58,
      "hit": false,
      "t": 28621.183500000054,
      "d": 435.60562500000015,
      "v": 73
    },
    {
      "midi": 62,
      "hit": false,
      "t": 28621.183500000054,
      "d": 454.5450000000019,
      "v": 89
    },
    {
      "midi": 63,
      "hit": false,
      "t": 28621.183500000054,
      "d": 454.5450000000019,
      "v": 69
    },
    {
      "midi": 48,
      "hit": false,
      "t": 29075.728500000056,
      "d": 246.21187500000087,
      "v": 97
    },
    {
      "midi": 60,
      "hit": false,
      "t": 29303.001000000055,
      "d": 56.8181250000016,
      "v": 77
    },
    {
      "midi": 63,
      "hit": false,
      "t": 29303.001000000055,
      "d": 56.8181250000016,
      "v": 85
    },
    {
      "midi": 67,
      "hit": false,
      "t": 29303.001000000055,
      "d": 56.8181250000016,
      "v": 77
    },
    {
      "midi": 63,
      "hit": false,
      "t": 29757.546000000057,
      "d": 56.8181250000016,
      "v": 97
    },
    {
      "midi": 67,
      "hit": false,
      "t": 29757.546000000057,
      "d": 56.8181250000016,
      "v": 93
    },
    {
      "midi": 60,
      "hit": false,
      "t": 29757.546000000057,
      "d": 75.75750000000335,
      "v": 85
    },
    {
      "midi": 48,
      "hit": false,
      "t": 29984.81850000006,
      "d": 492.4237499999981,
      "v": 113
    },
    {
      "midi": 67,
      "hit": false,
      "t": 30439.363500000058,
      "d": 56.8181250000016,
      "v": 85
    },
    {
      "midi": 60,
      "hit": false,
      "t": 30439.363500000058,
      "d": 75.75750000000335,
      "v": 89
    },
    {
      "midi": 63,
      "hit": false,
      "t": 30439.363500000058,
      "d": 75.75750000000335,
      "v": 93
    },
    {
      "midi": 48,
      "hit": false,
      "t": 30666.63600000006,
      "d": 56.8181250000016,
      "v": 81
    },
    {
      "midi": 67,
      "hit": false,
      "t": 30780.272250000064,
      "d": 37.878749999999854,
      "v": 77
    },
    {
      "midi": 60,
      "hit": false,
      "t": 30780.272250000064,
      "d": 56.8181250000016,
      "v": 81
    },
    {
      "midi": 63,
      "hit": false,
      "t": 30780.272250000064,
      "d": 56.8181250000016,
      "v": 85
    },
    {
      "midi": 48,
      "hit": false,
      "t": 30893.908500000067,
      "d": 284.0906250000007,
      "v": 93
    },
    {
      "midi": 60,
      "hit": false,
      "t": 31121.181000000066,
      "d": 56.8181250000016,
      "v": 89
    },
    {
      "midi": 63,
      "hit": false,
      "t": 31121.181000000066,
      "d": 56.8181250000016,
      "v": 93
    },
    {
      "midi": 67,
      "hit": false,
      "t": 31121.181000000066,
      "d": 56.8181250000016,
      "v": 89
    },
    {
      "midi": 67,
      "hit": false,
      "t": 31575.726000000068,
      "d": 56.8181250000016,
      "v": 85
    },
    {
      "midi": 60,
      "hit": false,
      "t": 31575.726000000068,
      "d": 75.75750000000335,
      "v": 85
    },
    {
      "midi": 63,
      "hit": false,
      "t": 31575.726000000068,
      "d": 75.75750000000335,
      "v": 93
    },
    {
      "midi": 48,
      "hit": false,
      "t": 31802.99850000007,
      "d": 454.54499999999825,
      "v": 101
    },
    {
      "midi": 67,
      "hit": false,
      "t": 32257.54350000007,
      "d": 56.8181250000016,
      "v": 89
    },
    {
      "midi": 60,
      "hit": false,
      "t": 32257.54350000007,
      "d": 75.75750000000335,
      "v": 89
    },
    {
      "midi": 63,
      "hit": false,
      "t": 32257.54350000007,
      "d": 75.75750000000335,
      "v": 97
    },
    {
      "midi": 48,
      "hit": false,
      "t": 32484.81600000007,
      "d": 37.878749999999854,
      "v": 73
    },
    {
      "midi": 63,
      "hit": false,
      "t": 32598.45225000007,
      "d": 37.878749999999854,
      "v": 81
    },
    {
      "midi": 67,
      "hit": false,
      "t": 32598.45225000007,
      "d": 37.878749999999854,
      "v": 73
    },
    {
      "midi": 60,
      "hit": false,
      "t": 32598.45225000007,
      "d": 56.8181250000016,
      "v": 81
    },
    {
      "midi": 48,
      "hit": false,
      "t": 32712.088500000074,
      "d": 265.15125000000626,
      "v": 85
    },
    {
      "midi": 63,
      "hit": false,
      "t": 32939.36100000008,
      "d": 56.81812500000524,
      "v": 97
    },
    {
      "midi": 67,
      "hit": false,
      "t": 32939.36100000008,
      "d": 56.81812500000524,
      "v": 89
    },
    {
      "midi": 60,
      "hit": false,
      "t": 32939.36100000008,
      "d": 75.75750000000698,
      "v": 93
    },
    {
      "midi": 60,
      "hit": false,
      "t": 33393.90600000008,
      "d": 75.75749999999971,
      "v": 89
    },
    {
      "midi": 63,
      "hit": false,
      "t": 33393.90600000008,
      "d": 75.75749999999971,
      "v": 93
    },
    {
      "midi": 67,
      "hit": false,
      "t": 33393.90600000008,
      "d": 75.75749999999971,
      "v": 89
    },
    {
      "midi": 44,
      "hit": false,
      "t": 33621.17850000008,
      "d": 454.54499999999825,
      "v": 105
    },
    {
      "midi": 63,
      "hit": false,
      "t": 34075.72350000008,
      "d": 189.3937500000029,
      "v": 97
    },
    {
      "midi": 56,
      "hit": false,
      "t": 34075.72350000008,
      "d": 208.33312500000466,
      "v": 85
    },
    {
      "midi": 60,
      "hit": false,
      "t": 34075.72350000008,
      "d": 208.33312500000466,
      "v": 101
    },
    {
      "midi": 67,
      "hit": false,
      "t": 34075.72350000008,
      "d": 208.33312500000466,
      "v": 93
    },
    {
      "midi": 44,
      "hit": false,
      "t": 34302.99600000009,
      "d": 56.81812499999796,
      "v": 89
    },
    {
      "midi": 63,
      "hit": false,
      "t": 34416.63225000008,
      "d": 37.87875000000349,
      "v": 81
    },
    {
      "midi": 67,
      "hit": false,
      "t": 34416.63225000008,
      "d": 37.87875000000349,
      "v": 69
    },
    {
      "midi": 56,
      "hit": false,
      "t": 34416.63225000008,
      "d": 56.81812500000524,
      "v": 65
    },
    {
      "midi": 44,
      "hit": false,
      "t": 34530.268500000086,
      "d": 265.1512500000026,
      "v": 97
    },
    {
      "midi": 63,
      "hit": false,
      "t": 34757.541000000085,
      "d": 37.87875000000349,
      "v": 101
    },
    {
      "midi": 56,
      "hit": false,
      "t": 34757.541000000085,
      "d": 56.81812500000524,
      "v": 85
    },
    {
      "midi": 60,
      "hit": false,
      "t": 34757.541000000085,
      "d": 56.81812500000524,
      "v": 101
    },
    {
      "midi": 67,
      "hit": false,
      "t": 34757.541000000085,
      "d": 56.81812500000524,
      "v": 81
    },
    {
      "midi": 63,
      "hit": false,
      "t": 35212.08600000009,
      "d": 56.81812499999796,
      "v": 85
    },
    {
      "midi": 67,
      "hit": false,
      "t": 35212.08600000009,
      "d": 56.81812499999796,
      "v": 89
    },
    {
      "midi": 56,
      "hit": false,
      "t": 35212.08600000009,
      "d": 75.75749999999971,
      "v": 89
    },
    {
      "midi": 60,
      "hit": false,
      "t": 35212.08600000009,
      "d": 75.75749999999971,
      "v": 89
    },
    {
      "midi": 48,
      "hit": false,
      "t": 35439.35850000009,
      "d": 473.484375,
      "v": 113
    },
    {
      "midi": 55,
      "hit": false,
      "t": 35893.90350000009,
      "d": 454.54499999999825,
      "v": 93
    },
    {
      "midi": 60,
      "hit": false,
      "t": 35893.90350000009,
      "d": 473.484375,
      "v": 105
    },
    {
      "midi": 62,
      "hit": false,
      "t": 35893.90350000009,
      "d": 473.484375,
      "v": 101
    },
    {
      "midi": 48,
      "hit": false,
      "t": 36348.448500000086,
      "d": 265.1512500000026,
      "v": 85
    },
    {
      "midi": 64,
      "hit": false,
      "t": 36575.721000000085,
      "d": 56.81812500000524,
      "v": 93
    },
    {
      "midi": 67,
      "hit": false,
      "t": 36575.721000000085,
      "d": 56.81812500000524,
      "v": 89
    },
    {
      "midi": 60,
      "hit": false,
      "t": 36575.721000000085,
      "d": 75.75750000000698,
      "v": 85
    },
    {
      "midi": 64,
      "hit": false,
      "t": 37030.26600000009,
      "d": 56.81812499999796,
      "v": 97
    },
    {
      "midi": 60,
      "hit": false,
      "t": 37030.26600000009,
      "d": 75.75749999999971,
      "v": 89
    },
    {
      "midi": 67,
      "hit": false,
      "t": 37030.26600000009,
      "d": 75.75749999999971,
      "v": 101
    },
    {
      "midi": 53,
      "hit": false,
      "t": 37257.53850000009,
      "d": 435.6056249999965,
      "v": 105
    },
    {
      "midi": 60,
      "hit": false,
      "t": 37712.08350000009,
      "d": 189.3937500000029,
      "v": 89
    },
    {
      "midi": 65,
      "hit": false,
      "t": 37712.08350000009,
      "d": 189.3937500000029,
      "v": 93
    },
    {
      "midi": 68,
      "hit": false,
      "t": 37712.08350000009,
      "d": 189.3937500000029,
      "v": 81
    },
    {
      "midi": 53,
      "hit": false,
      "t": 37939.356000000094,
      "d": 56.81812499999796,
      "v": 93
    },
    {
      "midi": 65,
      "hit": false,
      "t": 38052.99225000009,
      "d": 56.81812499999796,
      "v": 73
    },
    {
      "midi": 68,
      "hit": false,
      "t": 38052.99225000009,
      "d": 56.81812499999796,
      "v": 61
    },
    {
      "midi": 60,
      "hit": false,
      "t": 38052.99225000009,
      "d": 75.75749999999971,
      "v": 77
    },
    {
      "midi": 46,
      "hit": false,
      "t": 38166.62850000009,
      "d": 246.21187500000087,
      "v": 105
    },
    {
      "midi": 58,
      "hit": false,
      "t": 38393.90100000009,
      "d": 75.75749999999971,
      "v": 89
    },
    {
      "midi": 65,
      "hit": false,
      "t": 38393.90100000009,
      "d": 75.75749999999971,
      "v": 89
    },
    {
      "midi": 68,
      "hit": false,
      "t": 38393.90100000009,
      "d": 75.75749999999971,
      "v": 73
    },
    {
      "midi": 62,
      "hit": false,
      "t": 38393.90100000009,
      "d": 94.69687500000146,
      "v": 93
    },
    {
      "midi": 65,
      "hit": false,
      "t": 38848.44600000009,
      "d": 75.75749999999971,
      "v": 85
    },
    {
      "midi": 68,
      "hit": false,
      "t": 38848.44600000009,
      "d": 94.69687500000146,
      "v": 85
    },
    {
      "midi": 62,
      "hit": false,
      "t": 38848.44600000009,
      "d": 113.6362500000032,
      "v": 85
    },
    {
      "midi": 58,
      "hit": false,
      "t": 38848.44600000009,
      "d": 132.57562500000495,
      "v": 89
    },
    {
      "midi": 51,
      "hit": false,
      "t": 39075.7185000001,
      "d": 454.54499999999825,
      "v": 105
    },
    {
      "midi": 58,
      "hit": false,
      "t": 39530.263500000096,
      "d": 340.9087500000023,
      "v": 81
    },
    {
      "midi": 62,
      "hit": false,
      "t": 39530.263500000096,
      "d": 359.8481250000041,
      "v": 81
    },
    {
      "midi": 63,
      "hit": false,
      "t": 39530.263500000096,
      "d": 359.8481250000041,
      "v": 77
    },
    {
      "midi": 67,
      "hit": false,
      "t": 39530.263500000096,
      "d": 378.7875000000058,
      "v": 85
    },
    {
      "midi": 43,
      "hit": false,
      "t": 39984.8085000001,
      "d": 454.54499999999825,
      "v": 89
    },
    {
      "midi": 44,
      "hit": false,
      "t": 40439.3535000001,
      "d": 454.54499999999825,
      "v": 77
    },
    {
      "midi": 46,
      "hit": false,
      "t": 40893.8985000001,
      "d": 435.6056249999965,
      "v": 85
    },
    {
      "midi": 48,
      "hit": false,
      "t": 41348.443500000096,
      "d": 473.484375,
      "v": 85
    },
    {
      "midi": 50,
      "hit": false,
      "t": 41802.988500000094,
      "d": 492.42375000000175,
      "v": 97
    },
    {
      "midi": 51,
      "hit": false,
      "t": 42257.53350000009,
      "d": 435.6056250000038,
      "v": 93
    },
    {
      "midi": 53,
      "hit": false,
      "t": 42712.0785000001,
      "d": 435.6056249999965,
      "v": 85
    },
    {
      "midi": 55,
      "hit": false,
      "t": 43166.623500000096,
      "d": 454.54499999999825,
      "v": 89
    },
    {
      "midi": 48,
      "hit": false,
      "t": 43621.168500000094,
      "d": 265.1512500000026,
      "v": 81
    },
    {
      "midi": 63,
      "hit": false,
      "t": 43848.44100000009,
      "d": 37.87875000000349,
      "v": 97
    },
    {
      "midi": 67,
      "hit": false,
      "t": 43848.44100000009,
      "d": 37.87875000000349,
      "v": 85
    },
    {
      "midi": 60,
      "hit": false,
      "t": 43848.44100000009,
      "d": 56.81812500000524,
      "v": 89
    },
    {
      "midi": 60,
      "hit": false,
      "t": 44302.9860000001,
      "d": 56.81812499999796,
      "v": 85
    },
    {
      "midi": 63,
      "hit": false,
      "t": 44302.9860000001,
      "d": 56.81812499999796,
      "v": 97
    },
    {
      "midi": 67,
      "hit": false,
      "t": 44302.9860000001,
      "d": 56.81812499999796,
      "v": 85
    },
    {
      "midi": 48,
      "hit": false,
      "t": 44530.2585000001,
      "d": 454.54499999999825,
      "v": 113
    },
    {
      "midi": 63,
      "hit": false,
      "t": 44984.8035000001,
      "d": 56.81812499999796,
      "v": 97
    },
    {
      "midi": 67,
      "hit": false,
      "t": 44984.8035000001,
      "d": 56.81812499999796,
      "v": 89
    },
    {
      "midi": 60,
      "hit": false,
      "t": 44984.8035000001,
      "d": 75.75749999999971,
      "v": 85
    },
    {
      "midi": 48,
      "hit": false,
      "t": 45212.076000000096,
      "d": 56.81812499999796,
      "v": 89
    },
    {
      "midi": 63,
      "hit": false,
      "t": 45325.71225000009,
      "d": 37.87875000000349,
      "v": 89
    },
    {
      "midi": 67,
      "hit": false,
      "t": 45325.71225000009,
      "d": 37.87875000000349,
      "v": 81
    },
    {
      "midi": 60,
      "hit": false,
      "t": 45325.71225000009,
      "d": 56.81812500000524,
      "v": 85
    },
    {
      "midi": 48,
      "hit": false,
      "t": 45439.348500000095,
      "d": 303.0300000000061,
      "v": 97
    },
    {
      "midi": 63,
      "hit": false,
      "t": 45666.621000000094,
      "d": 37.87875000000349,
      "v": 97
    },
    {
      "midi": 67,
      "hit": false,
      "t": 45666.621000000094,
      "d": 37.87875000000349,
      "v": 77
    },
    {
      "midi": 60,
      "hit": false,
      "t": 45666.621000000094,
      "d": 56.81812500000524,
      "v": 89
    },
    {
      "midi": 63,
      "hit": false,
      "t": 46121.1660000001,
      "d": 56.81812499999796,
      "v": 105
    },
    {
      "midi": 67,
      "hit": false,
      "t": 46121.1660000001,
      "d": 56.81812499999796,
      "v": 93
    },
    {
      "midi": 60,
      "hit": false,
      "t": 46121.1660000001,
      "d": 75.75749999999971,
      "v": 97
    },
    {
      "midi": 48,
      "hit": false,
      "t": 46348.4385000001,
      "d": 435.6056249999965,
      "v": 109
    },
    {
      "midi": 63,
      "hit": false,
      "t": 46802.9835000001,
      "d": 56.81812499999796,
      "v": 97
    },
    {
      "midi": 67,
      "hit": false,
      "t": 46802.9835000001,
      "d": 56.81812499999796,
      "v": 85
    },
    {
      "midi": 60,
      "hit": false,
      "t": 46802.9835000001,
      "d": 75.75749999999971,
      "v": 89
    },
    {
      "midi": 48,
      "hit": false,
      "t": 47030.256000000096,
      "d": 56.81812499999796,
      "v": 81
    },
    {
      "midi": 63,
      "hit": false,
      "t": 47143.89225000009,
      "d": 37.87875000000349,
      "v": 89
    },
    {
      "midi": 67,
      "hit": false,
      "t": 47143.89225000009,
      "d": 37.87875000000349,
      "v": 77
    },
    {
      "midi": 60,
      "hit": false,
      "t": 47143.89225000009,
      "d": 56.81812500000524,
      "v": 85
    },
    {
      "midi": 48,
      "hit": false,
      "t": 47257.528500000095,
      "d": 265.1512500000026,
      "v": 97
    },
    {
      "midi": 60,
      "hit": false,
      "t": 47484.801000000094,
      "d": 56.81812500000524,
      "v": 97
    },
    {
      "midi": 63,
      "hit": false,
      "t": 47484.801000000094,
      "d": 56.81812500000524,
      "v": 101
    },
    {
      "midi": 67,
      "hit": false,
      "t": 47484.801000000094,
      "d": 56.81812500000524,
      "v": 89
    },
    {
      "midi": 63,
      "hit": false,
      "t": 47939.3460000001,
      "d": 56.81812499999796,
      "v": 101
    },
    {
      "midi": 67,
      "hit": false,
      "t": 47939.3460000001,
      "d": 56.81812499999796,
      "v": 89
    },
    {
      "midi": 60,
      "hit": false,
      "t": 47939.3460000001,
      "d": 75.75749999999971,
      "v": 97
    },
    {
      "midi": 44,
      "hit": false,
      "t": 48166.6185000001,
      "d": 473.484375,
      "v": 117
    },
    {
      "midi": 60,
      "hit": false,
      "t": 48621.1635000001,
      "d": 208.33312500000466,
      "v": 93
    },
    {
      "midi": 63,
      "hit": false,
      "t": 48621.1635000001,
      "d": 208.33312500000466,
      "v": 77
    },
    {
      "midi": 67,
      "hit": false,
      "t": 48621.1635000001,
      "d": 208.33312500000466,
      "v": 85
    },
    {
      "midi": 56,
      "hit": false,
      "t": 48621.1635000001,
      "d": 227.2725000000064,
      "v": 89
    },
    {
      "midi": 44,
      "hit": false,
      "t": 48848.4360000001,
      "d": 37.87875000000349,
      "v": 73
    },
    {
      "midi": 60,
      "hit": false,
      "t": 48962.07225000011,
      "d": 56.81812499999796,
      "v": 61
    },
    {
      "midi": 67,
      "hit": false,
      "t": 48962.07225000011,
      "d": 56.81812499999796,
      "v": 77
    },
    {
      "midi": 56,
      "hit": false,
      "t": 48962.07225000011,
      "d": 75.75749999999971,
      "v": 73
    },
    {
      "midi": 63,
      "hit": false,
      "t": 48962.07225000011,
      "d": 75.75749999999971,
      "v": 73
    },
    {
      "midi": 44,
      "hit": false,
      "t": 49075.70850000011,
      "d": 265.1512500000026,
      "v": 97
    },
    {
      "midi": 56,
      "hit": false,
      "t": 49302.98100000011,
      "d": 75.75750000000698,
      "v": 85
    },
    {
      "midi": 60,
      "hit": false,
      "t": 49302.98100000011,
      "d": 75.75750000000698,
      "v": 89
    },
    {
      "midi": 63,
      "hit": false,
      "t": 49302.98100000011,
      "d": 75.75750000000698,
      "v": 81
    },
    {
      "midi": 67,
      "hit": false,
      "t": 49302.98100000011,
      "d": 75.75750000000698,
      "v": 85
    },
    {
      "midi": 60,
      "hit": false,
      "t": 49757.526000000114,
      "d": 113.6362500000032,
      "v": 93
    },
    {
      "midi": 63,
      "hit": false,
      "t": 49757.526000000114,
      "d": 113.6362500000032,
      "v": 89
    },
    {
      "midi": 67,
      "hit": false,
      "t": 49757.526000000114,
      "d": 113.6362500000032,
      "v": 85
    },
    {
      "midi": 56,
      "hit": false,
      "t": 49757.526000000114,
      "d": 132.57562500000495,
      "v": 81
    },
    {
      "midi": 43,
      "hit": false,
      "t": 49984.79850000012,
      "d": 454.54499999999825,
      "v": 109
    },
    {
      "midi": 55,
      "hit": false,
      "t": 50439.34350000012,
      "d": 435.6056249999965,
      "v": 93
    },
    {
      "midi": 62,
      "hit": false,
      "t": 50439.34350000012,
      "d": 435.6056249999965,
      "v": 97
    },
    {
      "midi": 60,
      "hit": false,
      "t": 50439.34350000012,
      "d": 454.54499999999825,
      "v": 101
    },
    {
      "midi": 48,
      "hit": false,
      "t": 50893.88850000012,
      "d": 265.1512500000026,
      "v": 81
    },
    {
      "midi": 60,
      "hit": false,
      "t": 51121.16100000012,
      "d": 75.75750000000698,
      "v": 93
    },
    {
      "midi": 64,
      "hit": false,
      "t": 51121.16100000012,
      "d": 75.75750000000698,
      "v": 97
    },
    {
      "midi": 67,
      "hit": false,
      "t": 51121.16100000012,
      "d": 75.75750000000698,
      "v": 93
    },
    {
      "midi": 60,
      "hit": false,
      "t": 51575.70600000012,
      "d": 75.75749999999971,
      "v": 89
    },
    {
      "midi": 64,
      "hit": false,
      "t": 51575.70600000012,
      "d": 75.75749999999971,
      "v": 93
    },
    {
      "midi": 67,
      "hit": false,
      "t": 51575.70600000012,
      "d": 75.75749999999971,
      "v": 93
    },
    {
      "midi": 53,
      "hit": false,
      "t": 51802.97850000012,
      "d": 473.484375,
      "v": 113
    },
    {
      "midi": 68,
      "hit": false,
      "t": 52257.52350000012,
      "d": 170.45437500000116,
      "v": 85
    },
    {
      "midi": 60,
      "hit": false,
      "t": 52257.52350000012,
      "d": 189.3937500000029,
      "v": 89
    },
    {
      "midi": 65,
      "hit": false,
      "t": 52257.52350000012,
      "d": 189.3937500000029,
      "v": 105
    },
    {
      "midi": 53,
      "hit": false,
      "t": 52484.796000000126,
      "d": 94.69687500000146,
      "v": 89
    },
    {
      "midi": 65,
      "hit": false,
      "t": 52598.43225000013,
      "d": 56.81812499999796,
      "v": 85
    },
    {
      "midi": 68,
      "hit": false,
      "t": 52598.43225000013,
      "d": 56.81812499999796,
      "v": 65
    },
    {
      "midi": 60,
      "hit": false,
      "t": 52598.43225000013,
      "d": 75.75749999999971,
      "v": 77
    },
    {
      "midi": 46,
      "hit": false,
      "t": 52712.06850000013,
      "d": 303.02999999999884,
      "v": 101
    },
    {
      "midi": 65,
      "hit": false,
      "t": 52939.34100000013,
      "d": 56.81812499999796,
      "v": 85
    },
    {
      "midi": 62,
      "hit": false,
      "t": 52939.34100000013,
      "d": 75.75749999999971,
      "v": 93
    },
    {
      "midi": 68,
      "hit": false,
      "t": 52939.34100000013,
      "d": 75.75749999999971,
      "v": 73
    },
    {
      "midi": 58,
      "hit": false,
      "t": 52939.34100000013,
      "d": 94.69687500000146,
      "v": 89
    },
    {
      "midi": 65,
      "hit": false,
      "t": 53393.88600000013,
      "d": 75.75749999999971,
      "v": 81
    },
    {
      "midi": 68,
      "hit": false,
      "t": 53393.88600000013,
      "d": 94.69687500000146,
      "v": 77
    },
    {
      "midi": 62,
      "hit": false,
      "t": 53393.88600000013,
      "d": 113.6362500000032,
      "v": 89
    },
    {
      "midi": 58,
      "hit": false,
      "t": 53393.88600000013,
      "d": 132.57562500000495,
      "v": 81
    },
    {
      "midi": 51,
      "hit": false,
      "t": 53621.158500000136,
      "d": 454.54499999999825,
      "v": 105
    },
    {
      "midi": 58,
      "hit": false,
      "t": 54075.703500000134,
      "d": 189.3937500000029,
      "v": 85
    },
    {
      "midi": 63,
      "hit": false,
      "t": 54075.703500000134,
      "d": 189.3937500000029,
      "v": 81
    },
    {
      "midi": 67,
      "hit": false,
      "t": 54075.703500000134,
      "d": 189.3937500000029,
      "v": 85
    },
    {
      "midi": 62,
      "hit": false,
      "t": 54075.703500000134,
      "d": 208.33312500000466,
      "v": 93
    },
    {
      "midi": 67,
      "hit": false,
      "t": 54302.97600000014,
      "d": 56.81812499999796,
      "v": 69
    },
    {
      "midi": 58,
      "hit": false,
      "t": 54302.97600000014,
      "d": 75.75749999999971,
      "v": 73
    },
    {
      "midi": 62,
      "hit": false,
      "t": 54302.97600000014,
      "d": 75.75749999999971,
      "v": 89
    },
    {
      "midi": 63,
      "hit": false,
      "t": 54302.97600000014,
      "d": 75.75749999999971,
      "v": 73
    },
    {
      "midi": 51,
      "hit": false,
      "t": 54302.97600000014,
      "d": 94.69687500000146,
      "v": 85
    },
    {
      "midi": 43,
      "hit": false,
      "t": 54530.24850000014,
      "d": 454.54499999999825,
      "v": 101
    },
    {
      "midi": 44,
      "hit": false,
      "t": 54984.79350000014,
      "d": 416.66625000000204,
      "v": 97
    },
    {
      "midi": 46,
      "hit": false,
      "t": 55439.33850000014,
      "d": 454.54499999999825,
      "v": 97
    },
    {
      "midi": 48,
      "hit": false,
      "t": 55893.88350000014,
      "d": 530.302499999998,
      "v": 93
    },
    {
      "midi": 50,
      "hit": false,
      "t": 56348.42850000014,
      "d": 454.54499999999825,
      "v": 89
    },
    {
      "midi": 51,
      "hit": false,
      "t": 56802.97350000014,
      "d": 454.54499999999825,
      "v": 93
    },
    {
      "midi": 53,
      "hit": false,
      "t": 57257.51850000014,
      "d": 435.6056249999965,
      "v": 89
    },
    {
      "midi": 55,
      "hit": false,
      "t": 57712.063500000135,
      "d": 473.484375,
      "v": 89
    },
    {
      "midi": 63,
      "hit": false,
      "t": 58393.88100000013,
      "d": 56.81812499999796,
      "v": 93
    },
    {
      "midi": 67,
      "hit": false,
      "t": 58393.88100000013,
      "d": 56.81812499999796,
      "v": 77
    },
    {
      "midi": 60,
      "hit": false,
      "t": 58393.88100000013,
      "d": 75.75749999999971,
      "v": 85
    },
    {
      "midi": 67,
      "hit": false,
      "t": 58848.42600000013,
      "d": 37.87875000000349,
      "v": 69
    },
    {
      "midi": 63,
      "hit": false,
      "t": 58848.42600000013,
      "d": 56.81812500000524,
      "v": 93
    },
    {
      "midi": 60,
      "hit": false,
      "t": 58848.42600000013,
      "d": 75.75750000000698,
      "v": 81
    },
    {
      "midi": 48,
      "hit": false,
      "t": 59075.69850000014,
      "d": 492.42375000000175,
      "v": 85
    },
    {
      "midi": 67,
      "hit": false,
      "t": 59530.243500000135,
      "d": 170.45437500000116,
      "v": 85
    },
    {
      "midi": 60,
      "hit": false,
      "t": 59530.243500000135,
      "d": 189.3937500000029,
      "v": 89
    },
    {
      "midi": 63,
      "hit": false,
      "t": 59530.243500000135,
      "d": 189.3937500000029,
      "v": 97
    },
    {
      "midi": 48,
      "hit": false,
      "t": 59757.51600000014,
      "d": 94.69687500000146,
      "v": 61
    },
    {
      "midi": 60,
      "hit": false,
      "t": 59871.152250000145,
      "d": 56.81812499999796,
      "v": 81
    },
    {
      "midi": 63,
      "hit": false,
      "t": 59871.152250000145,
      "d": 56.81812499999796,
      "v": 89
    },
    {
      "midi": 67,
      "hit": false,
      "t": 59871.152250000145,
      "d": 56.81812499999796,
      "v": 81
    },
    {
      "midi": 52,
      "hit": false,
      "t": 59984.78850000014,
      "d": 852.2718749999985,
      "v": 101
    },
    {
      "midi": 67,
      "hit": false,
      "t": 60212.06100000014,
      "d": 56.81812499999796,
      "v": 85
    },
    {
      "midi": 60,
      "hit": false,
      "t": 60212.06100000014,
      "d": 75.75749999999971,
      "v": 81
    },
    {
      "midi": 64,
      "hit": false,
      "t": 60212.06100000014,
      "d": 75.75749999999971,
      "v": 97
    },
    {
      "midi": 60,
      "hit": false,
      "t": 60666.60600000014,
      "d": 75.75749999999971,
      "v": 85
    },
    {
      "midi": 64,
      "hit": false,
      "t": 60666.60600000014,
      "d": 75.75749999999971,
      "v": 101
    },
    {
      "midi": 67,
      "hit": false,
      "t": 60666.60600000014,
      "d": 75.75749999999971,
      "v": 89
    },
    {
      "midi": 53,
      "hit": false,
      "t": 60893.87850000014,
      "d": 511.3631249999962,
      "v": 101
    },
    {
      "midi": 60,
      "hit": false,
      "t": 61348.423500000135,
      "d": 208.33312499999738,
      "v": 89
    },
    {
      "midi": 65,
      "hit": false,
      "t": 61348.423500000135,
      "d": 208.33312499999738,
      "v": 101
    },
    {
      "midi": 68,
      "hit": false,
      "t": 61348.423500000135,
      "d": 208.33312499999738,
      "v": 85
    },
    {
      "midi": 53,
      "hit": false,
      "t": 61575.696000000135,
      "d": 151.5150000000067,
      "v": 81
    },
    {
      "midi": 60,
      "hit": false,
      "t": 61689.33225000014,
      "d": 75.75750000000698,
      "v": 81
    },
    {
      "midi": 65,
      "hit": false,
      "t": 61689.33225000014,
      "d": 75.75750000000698,
      "v": 93
    },
    {
      "midi": 46,
      "hit": false,
      "t": 61802.96850000015,
      "d": 340.9087500000023,
      "v": 81
    },
    {
      "midi": 58,
      "hit": false,
      "t": 62030.24100000015,
      "d": 94.69687500000146,
      "v": 81
    },
    {
      "midi": 62,
      "hit": false,
      "t": 62030.24100000015,
      "d": 94.69687500000146,
      "v": 89
    },
    {
      "midi": 65,
      "hit": false,
      "t": 62030.24100000015,
      "d": 94.69687500000146,
      "v": 89
    },
    {
      "midi": 68,
      "hit": false,
      "t": 62030.24100000015,
      "d": 94.69687500000146,
      "v": 77
    },
    {
      "midi": 65,
      "hit": false,
      "t": 62484.78600000015,
      "d": 56.81812499999796,
      "v": 81
    },
    {
      "midi": 58,
      "hit": false,
      "t": 62484.78600000015,
      "d": 94.69687500000146,
      "v": 85
    },
    {
      "midi": 68,
      "hit": false,
      "t": 62484.78600000015,
      "d": 94.69687500000146,
      "v": 85
    },
    {
      "midi": 62,
      "hit": false,
      "t": 62484.78600000015,
      "d": 113.6362500000032,
      "v": 93
    },
    {
      "midi": 46,
      "hit": false,
      "t": 62712.05850000016,
      "d": 435.6056249999965,
      "v": 97
    },
    {
      "midi": 62,
      "hit": false,
      "t": 63166.60350000016,
      "d": 227.27249999999913,
      "v": 97
    },
    {
      "midi": 65,
      "hit": false,
      "t": 63166.60350000016,
      "d": 227.27249999999913,
      "v": 89
    },
    {
      "midi": 68,
      "hit": false,
      "t": 63166.60350000016,
      "d": 227.27249999999913,
      "v": 81
    },
    {
      "midi": 58,
      "hit": false,
      "t": 63166.60350000016,
      "d": 246.21187500000087,
      "v": 85
    },
    {
      "midi": 46,
      "hit": false,
      "t": 63393.87600000016,
      "d": 113.6362500000032,
      "v": 77
    },
    {
      "midi": 65,
      "hit": false,
      "t": 63507.51225000016,
      "d": 56.81812499999796,
      "v": 69
    },
    {
      "midi": 62,
      "hit": false,
      "t": 63507.51225000016,
      "d": 75.75749999999971,
      "v": 69
    },
    {
      "midi": 58,
      "hit": false,
      "t": 63507.51225000016,
      "d": 94.69687500000146,
      "v": 65
    },
    {
      "midi": 51,
      "hit": false,
      "t": 63621.14850000016,
      "d": 303.02999999999884,
      "v": 97
    },
    {
      "midi": 58,
      "hit": false,
      "t": 63848.42100000016,
      "d": 94.69687500000146,
      "v": 69
    },
    {
      "midi": 62,
      "hit": false,
      "t": 63848.42100000016,
      "d": 94.69687500000146,
      "v": 89
    },
    {
      "midi": 63,
      "hit": false,
      "t": 63848.42100000016,
      "d": 94.69687500000146,
      "v": 73
    },
    {
      "midi": 67,
      "hit": false,
      "t": 63848.42100000016,
      "d": 94.69687500000146,
      "v": 81
    },
    {
      "midi": 58,
      "hit": false,
      "t": 64302.96600000016,
      "d": 75.75749999999971,
      "v": 81
    },
    {
      "midi": 62,
      "hit": false,
      "t": 64302.96600000016,
      "d": 75.75749999999971,
      "v": 93
    },
    {
      "midi": 63,
      "hit": false,
      "t": 64302.96600000016,
      "d": 75.75749999999971,
      "v": 77
    },
    {
      "midi": 67,
      "hit": false,
      "t": 64302.96600000016,
      "d": 94.69687500000146,
      "v": 77
    },
    {
      "midi": 51,
      "hit": false,
      "t": 64530.23850000016,
      "d": 454.54499999999825,
      "v": 97
    },
    {
      "midi": 58,
      "hit": false,
      "t": 64984.78350000016,
      "d": 170.45437500000116,
      "v": 77
    },
    {
      "midi": 67,
      "hit": false,
      "t": 64984.78350000016,
      "d": 170.45437500000116,
      "v": 81
    },
    {
      "midi": 62,
      "hit": false,
      "t": 64984.78350000016,
      "d": 189.3937500000029,
      "v": 97
    },
    {
      "midi": 63,
      "hit": false,
      "t": 64984.78350000016,
      "d": 189.3937500000029,
      "v": 77
    },
    {
      "midi": 51,
      "hit": false,
      "t": 65212.056000000164,
      "d": 113.6362500000032,
      "v": 81
    },
    {
      "midi": 62,
      "hit": false,
      "t": 65325.69225000017,
      "d": 56.81812499999796,
      "v": 61
    },
    {
      "midi": 63,
      "hit": false,
      "t": 65325.69225000017,
      "d": 56.81812499999796,
      "v": 41
    },
    {
      "midi": 58,
      "hit": false,
      "t": 65325.69225000017,
      "d": 75.75749999999971,
      "v": 57
    },
    {
      "midi": 43,
      "hit": false,
      "t": 65439.32850000017,
      "d": 303.0300000000061,
      "v": 89
    },
    {
      "midi": 62,
      "hit": false,
      "t": 65666.60100000017,
      "d": 56.81812500000524,
      "v": 85
    },
    {
      "midi": 55,
      "hit": false,
      "t": 65666.60100000017,
      "d": 75.75750000000698,
      "v": 81
    },
    {
      "midi": 58,
      "hit": false,
      "t": 65666.60100000017,
      "d": 75.75750000000698,
      "v": 85
    },
    {
      "midi": 55,
      "hit": false,
      "t": 66121.14600000018,
      "d": 75.75750000000698,
      "v": 81
    },
    {
      "midi": 58,
      "hit": false,
      "t": 66121.14600000018,
      "d": 75.75750000000698,
      "v": 89
    },
    {
      "midi": 62,
      "hit": false,
      "t": 66121.14600000018,
      "d": 75.75750000000698,
      "v": 85
    },
    {
      "midi": 43,
      "hit": false,
      "t": 66348.41850000019,
      "d": 416.66624999999476,
      "v": 77
    },
    {
      "midi": 55,
      "hit": false,
      "t": 66802.96350000019,
      "d": 227.2725000000064,
      "v": 89
    },
    {
      "midi": 58,
      "hit": false,
      "t": 66802.96350000019,
      "d": 227.2725000000064,
      "v": 97
    },
    {
      "midi": 62,
      "hit": false,
      "t": 66802.96350000019,
      "d": 227.2725000000064,
      "v": 93
    },
    {
      "midi": 65,
      "hit": false,
      "t": 66802.96350000019,
      "d": 227.2725000000064,
      "v": 93
    },
    {
      "midi": 43,
      "hit": false,
      "t": 67030.2360000002,
      "d": 56.81812500000524,
      "v": 57
    },
    {
      "midi": 58,
      "hit": false,
      "t": 67143.8722500002,
      "d": 56.81812500000524,
      "v": 81
    },
    {
      "midi": 62,
      "hit": false,
      "t": 67143.8722500002,
      "d": 56.81812500000524,
      "v": 77
    },
    {
      "midi": 65,
      "hit": false,
      "t": 67143.8722500002,
      "d": 56.81812500000524,
      "v": 77
    },
    {
      "midi": 55,
      "hit": false,
      "t": 67143.8722500002,
      "d": 94.69687500000873,
      "v": 89
    },
    {
      "midi": 44,
      "hit": false,
      "t": 67257.50850000021,
      "d": 265.1512500000099,
      "v": 101
    },
    {
      "midi": 60,
      "hit": false,
      "t": 67484.78100000022,
      "d": 75.75750000000698,
      "v": 85
    },
    {
      "midi": 63,
      "hit": false,
      "t": 67484.78100000022,
      "d": 75.75750000000698,
      "v": 85
    },
    {
      "midi": 56,
      "hit": false,
      "t": 67484.78100000022,
      "d": 94.69687500000873,
      "v": 73
    },
    {
      "midi": 56,
      "hit": false,
      "t": 67939.32600000023,
      "d": 56.81812500000524,
      "v": 81
    },
    {
      "midi": 60,
      "hit": false,
      "t": 67939.32600000023,
      "d": 56.81812500000524,
      "v": 105
    },
    {
      "midi": 63,
      "hit": false,
      "t": 67939.32600000023,
      "d": 56.81812500000524,
      "v": 101
    },
    {
      "midi": 44,
      "hit": false,
      "t": 68166.59850000024,
      "d": 454.54499999999825,
      "v": 109
    },
    {
      "midi": 56,
      "hit": false,
      "t": 68621.14350000024,
      "d": 189.3937500000029,
      "v": 97
    },
    {
      "midi": 60,
      "hit": false,
      "t": 68621.14350000024,
      "d": 208.33312500000466,
      "v": 101
    },
    {
      "midi": 63,
      "hit": false,
      "t": 68621.14350000024,
      "d": 208.33312500000466,
      "v": 109
    },
    {
      "midi": 67,
      "hit": false,
      "t": 68621.14350000024,
      "d": 208.33312500000466,
      "v": 97
    },
    {
      "midi": 44,
      "hit": false,
      "t": 68848.41600000024,
      "d": 37.87875000000349,
      "v": 89
    },
    {
      "midi": 56,
      "hit": false,
      "t": 68962.05225000026,
      "d": 56.81812500000524,
      "v": 77
    },
    {
      "midi": 60,
      "hit": false,
      "t": 68962.05225000026,
      "d": 56.81812500000524,
      "v": 81
    },
    {
      "midi": 63,
      "hit": false,
      "t": 68962.05225000026,
      "d": 56.81812500000524,
      "v": 77
    },
    {
      "midi": 67,
      "hit": false,
      "t": 68962.05225000026,
      "d": 56.81812500000524,
      "v": 77
    },
    {
      "midi": 46,
      "hit": false,
      "t": 69075.68850000027,
      "d": 265.1512500000099,
      "v": 97
    },
    {
      "midi": 58,
      "hit": false,
      "t": 69302.96100000027,
      "d": 56.81812500000524,
      "v": 61
    },
    {
      "midi": 62,
      "hit": false,
      "t": 69302.96100000027,
      "d": 75.75750000000698,
      "v": 85
    },
    {
      "midi": 65,
      "hit": false,
      "t": 69302.96100000027,
      "d": 75.75750000000698,
      "v": 77
    },
    {
      "midi": 62,
      "hit": false,
      "t": 69757.50600000028,
      "d": 56.81812500000524,
      "v": 93
    },
    {
      "midi": 58,
      "hit": false,
      "t": 69757.50600000028,
      "d": 75.75750000000698,
      "v": 81
    },
    {
      "midi": 65,
      "hit": false,
      "t": 69757.50600000028,
      "d": 75.75750000000698,
      "v": 85
    },
    {
      "midi": 46,
      "hit": false,
      "t": 69984.77850000029,
      "d": 416.66624999999476,
      "v": 109
    },
    {
      "midi": 65,
      "hit": false,
      "t": 70439.32350000029,
      "d": 208.33312500000466,
      "v": 81
    },
    {
      "midi": 58,
      "hit": false,
      "t": 70439.32350000029,
      "d": 227.2725000000064,
      "v": 101
    },
    {
      "midi": 68,
      "hit": false,
      "t": 70439.32350000029,
      "d": 227.2725000000064,
      "v": 97
    },
    {
      "midi": 62,
      "hit": false,
      "t": 70439.32350000029,
      "d": 246.21187500000815,
      "v": 105
    },
    {
      "midi": 46,
      "hit": false,
      "t": 70666.5960000003,
      "d": 18.939375000001746,
      "v": 89
    },
    {
      "midi": 58,
      "hit": false,
      "t": 70780.23225000029,
      "d": 56.81812500000524,
      "v": 69
    },
    {
      "midi": 62,
      "hit": false,
      "t": 70780.23225000029,
      "d": 56.81812500000524,
      "v": 73
    },
    {
      "midi": 68,
      "hit": false,
      "t": 70780.23225000029,
      "d": 56.81812500000524,
      "v": 65
    },
    {
      "midi": 46,
      "hit": false,
      "t": 70893.8685000003,
      "d": 208.33312500000466,
      "v": 93
    },
    {
      "midi": 65,
      "hit": false,
      "t": 71121.14100000031,
      "d": 56.81812500000524,
      "v": 77
    },
    {
      "midi": 58,
      "hit": false,
      "t": 71121.14100000031,
      "d": 94.69687500000873,
      "v": 81
    },
    {
      "midi": 62,
      "hit": false,
      "t": 71121.14100000031,
      "d": 113.63625000001048,
      "v": 93
    },
    {
      "midi": 68,
      "hit": false,
      "t": 71121.14100000031,
      "d": 113.63625000001048,
      "v": 81
    },
    {
      "midi": 62,
      "hit": false,
      "t": 71462.04975000033,
      "d": 75.75750000000698,
      "v": 97
    },
    {
      "midi": 58,
      "hit": false,
      "t": 71462.04975000033,
      "d": 94.69687500000873,
      "v": 89
    },
    {
      "midi": 68,
      "hit": false,
      "t": 71462.04975000033,
      "d": 94.69687500000873,
      "v": 69
    },
    {
      "midi": 51,
      "hit": false,
      "t": 71802.95850000033,
      "d": 511.3631250000035,
      "v": 97
    },
    {
      "midi": 55,
      "hit": false,
      "t": 72257.50350000033,
      "d": 416.6662500000093,
      "v": 89
    },
    {
      "midi": 58,
      "hit": false,
      "t": 72257.50350000033,
      "d": 435.60562500001106,
      "v": 89
    },
    {
      "midi": 62,
      "hit": false,
      "t": 72257.50350000033,
      "d": 435.60562500001106,
      "v": 97
    },
    {
      "midi": 63,
      "hit": false,
      "t": 72257.50350000033,
      "d": 435.60562500001106,
      "v": 81
    },
    {
      "midi": 48,
      "hit": false,
      "t": 72712.04850000034,
      "d": 265.1512500000099,
      "v": 93
    },
    {
      "midi": 60,
      "hit": false,
      "t": 72939.32100000035,
      "d": 56.81812500000524,
      "v": 81
    },
    {
      "midi": 63,
      "hit": false,
      "t": 72939.32100000035,
      "d": 56.81812500000524,
      "v": 81
    },
    {
      "midi": 67,
      "hit": false,
      "t": 72939.32100000035,
      "d": 56.81812500000524,
      "v": 77
    },
    {
      "midi": 63,
      "hit": false,
      "t": 73393.86600000034,
      "d": 37.87875000000349,
      "v": 97
    },
    {
      "midi": 60,
      "hit": false,
      "t": 73393.86600000034,
      "d": 56.81812500000524,
      "v": 89
    },
    {
      "midi": 67,
      "hit": false,
      "t": 73393.86600000034,
      "d": 56.81812500000524,
      "v": 89
    },
    {
      "midi": 48,
      "hit": false,
      "t": 73621.13850000035,
      "d": 473.484375,
      "v": 93
    },
    {
      "midi": 67,
      "hit": false,
      "t": 74075.68350000035,
      "d": 189.3937500000029,
      "v": 93
    },
    {
      "midi": 60,
      "hit": false,
      "t": 74075.68350000035,
      "d": 208.33312500000466,
      "v": 89
    },
    {
      "midi": 63,
      "hit": false,
      "t": 74075.68350000035,
      "d": 208.33312500000466,
      "v": 97
    },
    {
      "midi": 48,
      "hit": false,
      "t": 74302.95600000035,
      "d": 75.75750000000698,
      "v": 65
    },
    {
      "midi": 67,
      "hit": false,
      "t": 74416.59225000037,
      "d": 56.81812500000524,
      "v": 81
    },
    {
      "midi": 60,
      "hit": false,
      "t": 74416.59225000037,
      "d": 75.75750000000698,
      "v": 77
    },
    {
      "midi": 63,
      "hit": false,
      "t": 74416.59225000037,
      "d": 75.75750000000698,
      "v": 81
    },
    {
      "midi": 52,
      "hit": false,
      "t": 74530.22850000038,
      "d": 776.5143750000279,
      "v": 101
    },
    {
      "midi": 64,
      "hit": false,
      "t": 74757.50100000038,
      "d": 56.81812500000524,
      "v": 101
    },
    {
      "midi": 67,
      "hit": false,
      "t": 74757.50100000038,
      "d": 56.81812500000524,
      "v": 85
    },
    {
      "midi": 60,
      "hit": false,
      "t": 74757.50100000038,
      "d": 75.75750000000698,
      "v": 89
    },
    {
      "midi": 60,
      "hit": false,
      "t": 75212.0460000004,
      "d": 75.75750000000698,
      "v": 89
    },
    {
      "midi": 64,
      "hit": false,
      "t": 75212.0460000004,
      "d": 75.75750000000698,
      "v": 101
    },
    {
      "midi": 67,
      "hit": false,
      "t": 75212.0460000004,
      "d": 75.75750000000698,
      "v": 89
    },
    {
      "midi": 53,
      "hit": false,
      "t": 75439.3185000004,
      "d": 473.484375,
      "v": 101
    },
    {
      "midi": 68,
      "hit": false,
      "t": 75893.8635000004,
      "d": 170.45437500000116,
      "v": 97
    },
    {
      "midi": 65,
      "hit": false,
      "t": 75893.8635000004,
      "d": 189.3937500000029,
      "v": 109
    },
    {
      "midi": 60,
      "hit": false,
      "t": 75893.8635000004,
      "d": 208.33312500000466,
      "v": 93
    },
    {
      "midi": 53,
      "hit": false,
      "t": 76121.1360000004,
      "d": 132.57562499999767,
      "v": 85
    },
    {
      "midi": 65,
      "hit": false,
      "t": 76234.7722500004,
      "d": 56.81812500000524,
      "v": 85
    },
    {
      "midi": 68,
      "hit": false,
      "t": 76234.7722500004,
      "d": 56.81812500000524,
      "v": 77
    },
    {
      "midi": 60,
      "hit": false,
      "t": 76234.7722500004,
      "d": 75.75750000000698,
      "v": 81
    },
    {
      "midi": 46,
      "hit": false,
      "t": 76348.40850000041,
      "d": 321.9693750000006,
      "v": 85
    },
    {
      "midi": 58,
      "hit": false,
      "t": 76575.68100000042,
      "d": 94.69687499999418,
      "v": 85
    },
    {
      "midi": 62,
      "hit": false,
      "t": 76575.68100000042,
      "d": 94.69687499999418,
      "v": 93
    },
    {
      "midi": 65,
      "hit": false,
      "t": 76575.68100000042,
      "d": 94.69687499999418,
      "v": 85
    },
    {
      "midi": 68,
      "hit": false,
      "t": 76575.68100000042,
      "d": 94.69687499999418,
      "v": 69
    },
    {
      "midi": 68,
      "hit": false,
      "t": 77030.22600000042,
      "d": 56.81812500000524,
      "v": 89
    },
    {
      "midi": 62,
      "hit": false,
      "t": 77030.22600000042,
      "d": 75.75750000000698,
      "v": 85
    },
    {
      "midi": 65,
      "hit": false,
      "t": 77030.22600000042,
      "d": 75.75750000000698,
      "v": 81
    },
    {
      "midi": 58,
      "hit": false,
      "t": 77030.22600000042,
      "d": 94.69687500000873,
      "v": 85
    },
    {
      "midi": 46,
      "hit": false,
      "t": 77257.49850000042,
      "d": 454.54499999999825,
      "v": 101
    },
    {
      "midi": 68,
      "hit": false,
      "t": 77712.04350000042,
      "d": 189.3937500000029,
      "v": 93
    },
    {
      "midi": 58,
      "hit": false,
      "t": 77712.04350000042,
      "d": 208.33312500000466,
      "v": 89
    },
    {
      "midi": 62,
      "hit": false,
      "t": 77712.04350000042,
      "d": 208.33312500000466,
      "v": 89
    },
    {
      "midi": 65,
      "hit": false,
      "t": 77712.04350000042,
      "d": 208.33312500000466,
      "v": 81
    },
    {
      "midi": 46,
      "hit": false,
      "t": 77939.31600000043,
      "d": 132.57562499999767,
      "v": 73
    },
    {
      "midi": 58,
      "hit": false,
      "t": 78052.95225000042,
      "d": 132.57562499999767,
      "v": 69
    },
    {
      "midi": 51,
      "hit": false,
      "t": 78166.58850000042,
      "d": 284.09062500001164,
      "v": 101
    },
    {
      "midi": 62,
      "hit": false,
      "t": 78393.86100000043,
      "d": 56.81812500000524,
      "v": 89
    },
    {
      "midi": 63,
      "hit": false,
      "t": 78393.86100000043,
      "d": 56.81812500000524,
      "v": 81
    },
    {
      "midi": 58,
      "hit": false,
      "t": 78393.86100000043,
      "d": 75.75750000000698,
      "v": 73
    },
    {
      "midi": 67,
      "hit": false,
      "t": 78393.86100000043,
      "d": 75.75750000000698,
      "v": 81
    },
    {
      "midi": 62,
      "hit": false,
      "t": 78848.40600000044,
      "d": 75.75750000000698,
      "v": 89
    },
    {
      "midi": 63,
      "hit": false,
      "t": 78848.40600000044,
      "d": 75.75750000000698,
      "v": 81
    },
    {
      "midi": 67,
      "hit": false,
      "t": 78848.40600000044,
      "d": 75.75750000000698,
      "v": 77
    },
    {
      "midi": 58,
      "hit": false,
      "t": 78848.40600000044,
      "d": 94.69687500000873,
      "v": 81
    },
    {
      "midi": 51,
      "hit": false,
      "t": 79075.67850000045,
      "d": 473.484375,
      "v": 97
    },
    {
      "midi": 58,
      "hit": false,
      "t": 79530.22350000044,
      "d": 208.33312500000466,
      "v": 89
    },
    {
      "midi": 63,
      "hit": false,
      "t": 79530.22350000044,
      "d": 208.33312500000466,
      "v": 85
    },
    {
      "midi": 67,
      "hit": false,
      "t": 79530.22350000044,
      "d": 208.33312500000466,
      "v": 89
    },
    {
      "midi": 62,
      "hit": false,
      "t": 79530.22350000044,
      "d": 227.2725000000064,
      "v": 93
    },
    {
      "midi": 51,
      "hit": false,
      "t": 79757.49600000045,
      "d": 113.63624999999593,
      "v": 93
    },
    {
      "midi": 62,
      "hit": false,
      "t": 79871.13225000045,
      "d": 56.81812500000524,
      "v": 77
    },
    {
      "midi": 58,
      "hit": false,
      "t": 79871.13225000045,
      "d": 75.75750000000698,
      "v": 57
    },
    {
      "midi": 63,
      "hit": false,
      "t": 79871.13225000045,
      "d": 75.75750000000698,
      "v": 61
    },
    {
      "midi": 44,
      "hit": false,
      "t": 79984.76850000046,
      "d": 18.939375000001746,
      "v": 109
    },
    {
      "midi": 43,
      "hit": false,
      "t": 79984.76850000046,
      "d": 284.09062500001164,
      "v": 85
    },
    {
      "midi": 55,
      "hit": false,
      "t": 80212.04100000046,
      "d": 56.81812500000524,
      "v": 85
    },
    {
      "midi": 58,
      "hit": false,
      "t": 80212.04100000046,
      "d": 56.81812500000524,
      "v": 77
    },
    {
      "midi": 62,
      "hit": false,
      "t": 80212.04100000046,
      "d": 56.81812500000524,
      "v": 85
    },
    {
      "midi": 65,
      "hit": false,
      "t": 80212.04100000046,
      "d": 56.81812500000524,
      "v": 73
    },
    {
      "midi": 58,
      "hit": false,
      "t": 80666.58600000046,
      "d": 37.87875000000349,
      "v": 85
    },
    {
      "midi": 55,
      "hit": false,
      "t": 80666.58600000046,
      "d": 56.81812500000524,
      "v": 89
    },
    {
      "midi": 62,
      "hit": false,
      "t": 80666.58600000046,
      "d": 56.81812500000524,
      "v": 89
    },
    {
      "midi": 65,
      "hit": false,
      "t": 80666.58600000046,
      "d": 56.81812500000524,
      "v": 77
    },
    {
      "midi": 43,
      "hit": false,
      "t": 80893.85850000047,
      "d": 435.6056249999965,
      "v": 105
    },
    {
      "midi": 67,
      "hit": false,
      "t": 81348.40350000047,
      "d": 151.51499999999942,
      "v": 69
    },
    {
      "midi": 65,
      "hit": false,
      "t": 81348.40350000047,
      "d": 170.45437500000116,
      "v": 73
    },
    {
      "midi": 55,
      "hit": false,
      "t": 81348.40350000047,
      "d": 208.33312500000466,
      "v": 93
    },
    {
      "midi": 58,
      "hit": false,
      "t": 81348.40350000047,
      "d": 208.33312500000466,
      "v": 93
    },
    {
      "midi": 62,
      "hit": false,
      "t": 81348.40350000047,
      "d": 208.33312500000466,
      "v": 101
    },
    {
      "midi": 43,
      "hit": false,
      "t": 81575.67600000047,
      "d": 56.81812500000524,
      "v": 73
    },
    {
      "midi": 58,
      "hit": false,
      "t": 81689.31225000048,
      "d": 56.81812500000524,
      "v": 85
    },
    {
      "midi": 62,
      "hit": false,
      "t": 81689.31225000048,
      "d": 56.81812500000524,
      "v": 89
    },
    {
      "midi": 55,
      "hit": false,
      "t": 81689.31225000048,
      "d": 75.75750000000698,
      "v": 85
    },
    {
      "midi": 44,
      "hit": false,
      "t": 81802.9485000005,
      "d": 265.1512500000099,
      "v": 89
    },
    {
      "midi": 56,
      "hit": false,
      "t": 82030.2210000005,
      "d": 75.75750000000698,
      "v": 89
    },
    {
      "midi": 60,
      "hit": false,
      "t": 82030.2210000005,
      "d": 75.75750000000698,
      "v": 93
    },
    {
      "midi": 63,
      "hit": false,
      "t": 82030.2210000005,
      "d": 75.75750000000698,
      "v": 101
    },
    {
      "midi": 56,
      "hit": false,
      "t": 82484.76600000051,
      "d": 56.81812500000524,
      "v": 85
    },
    {
      "midi": 60,
      "hit": false,
      "t": 82484.76600000051,
      "d": 56.81812500000524,
      "v": 97
    },
    {
      "midi": 63,
      "hit": false,
      "t": 82484.76600000051,
      "d": 56.81812500000524,
      "v": 97
    },
    {
      "midi": 44,
      "hit": false,
      "t": 82712.03850000052,
      "d": 469.69650000000547,
      "v": 105
    },
    {
      "midi": 56,
      "hit": false,
      "t": 83166.58350000052,
      "d": 189.3937500000029,
      "v": 97
    },
    {
      "midi": 63,
      "hit": false,
      "t": 83166.58350000052,
      "d": 189.3937500000029,
      "v": 109
    },
    {
      "midi": 67,
      "hit": false,
      "t": 83166.58350000052,
      "d": 189.3937500000029,
      "v": 97
    },
    {
      "midi": 60,
      "hit": false,
      "t": 83166.58350000052,
      "d": 208.33312500000466,
      "v": 105
    },
    {
      "midi": 44,
      "hit": false,
      "t": 83393.85600000052,
      "d": 56.81812500000524,
      "v": 89
    },
    {
      "midi": 56,
      "hit": false,
      "t": 83507.49225000053,
      "d": 56.81812500000524,
      "v": 77
    },
    {
      "midi": 60,
      "hit": false,
      "t": 83507.49225000053,
      "d": 56.81812500000524,
      "v": 85
    },
    {
      "midi": 63,
      "hit": false,
      "t": 83507.49225000053,
      "d": 56.81812500000524,
      "v": 85
    },
    {
      "midi": 67,
      "hit": false,
      "t": 83507.49225000053,
      "d": 75.75750000000698,
      "v": 85
    },
    {
      "midi": 46,
      "hit": false,
      "t": 83621.12850000054,
      "d": 265.1512500000099,
      "v": 89
    },
    {
      "midi": 58,
      "hit": false,
      "t": 83848.40100000055,
      "d": 75.75750000000698,
      "v": 77
    },
    {
      "midi": 62,
      "hit": false,
      "t": 83848.40100000055,
      "d": 94.69687500000873,
      "v": 97
    },
    {
      "midi": 65,
      "hit": false,
      "t": 83848.40100000055,
      "d": 94.69687500000873,
      "v": 89
    },
    {
      "midi": 58,
      "hit": false,
      "t": 84302.94600000056,
      "d": 56.81812500000524,
      "v": 77
    },
    {
      "midi": 62,
      "hit": false,
      "t": 84302.94600000056,
      "d": 75.75750000000698,
      "v": 93
    },
    {
      "midi": 65,
      "hit": false,
      "t": 84302.94600000056,
      "d": 75.75750000000698,
      "v": 81
    },
    {
      "midi": 46,
      "hit": false,
      "t": 84530.21850000057,
      "d": 435.6056249999965,
      "v": 81
    },
    {
      "midi": 58,
      "hit": false,
      "t": 84984.76350000057,
      "d": 227.2725000000064,
      "v": 93
    },
    {
      "midi": 62,
      "hit": false,
      "t": 84984.76350000057,
      "d": 227.2725000000064,
      "v": 97
    },
    {
      "midi": 65,
      "hit": false,
      "t": 84984.76350000057,
      "d": 227.2725000000064,
      "v": 81
    },
    {
      "midi": 68,
      "hit": false,
      "t": 84984.76350000057,
      "d": 227.2725000000064,
      "v": 85
    },
    {
      "midi": 46,
      "hit": false,
      "t": 85212.03600000057,
      "d": 75.75750000000698,
      "v": 65
    },
    {
      "midi": 58,
      "hit": false,
      "t": 85325.67225000059,
      "d": 56.81812500000524,
      "v": 77
    },
    {
      "midi": 62,
      "hit": false,
      "t": 85325.67225000059,
      "d": 56.81812500000524,
      "v": 85
    },
    {
      "midi": 65,
      "hit": false,
      "t": 85325.67225000059,
      "d": 56.81812500000524,
      "v": 73
    },
    {
      "midi": 68,
      "hit": false,
      "t": 85325.67225000059,
      "d": 56.81812500000524,
      "v": 73
    },
    {
      "midi": 46,
      "hit": false,
      "t": 85439.3085000006,
      "d": 265.1512500000099,
      "v": 81
    },
    {
      "midi": 58,
      "hit": false,
      "t": 85666.5810000006,
      "d": 94.69687500000873,
      "v": 73
    },
    {
      "midi": 65,
      "hit": false,
      "t": 85666.5810000006,
      "d": 94.69687500000873,
      "v": 85
    },
    {
      "midi": 68,
      "hit": false,
      "t": 85666.5810000006,
      "d": 94.69687500000873,
      "v": 61
    },
    {
      "midi": 62,
      "hit": false,
      "t": 85666.5810000006,
      "d": 113.63625000001048,
      "v": 89
    },
    {
      "midi": 68,
      "hit": false,
      "t": 86121.12600000062,
      "d": 56.81812500000524,
      "v": 57
    },
    {
      "midi": 62,
      "hit": false,
      "t": 86121.12600000062,
      "d": 75.75750000000698,
      "v": 97
    },
    {
      "midi": 65,
      "hit": false,
      "t": 86121.12600000062,
      "d": 75.75750000000698,
      "v": 85
    },
    {
      "midi": 58,
      "hit": false,
      "t": 86121.12600000062,
      "d": 94.69687500000873,
      "v": 81
    },
    {
      "midi": 51,
      "hit": false,
      "t": 86348.39850000062,
      "d": 473.484375,
      "v": 81
    },
    {
      "midi": 55,
      "hit": false,
      "t": 86802.94350000062,
      "d": 435.6056249999965,
      "v": 81
    },
    {
      "midi": 58,
      "hit": false,
      "t": 86802.94350000062,
      "d": 435.6056249999965,
      "v": 73
    },
    {
      "midi": 62,
      "hit": false,
      "t": 86802.94350000062,
      "d": 454.54499999999825,
      "v": 85
    },
    {
      "midi": 63,
      "hit": false,
      "t": 86802.94350000062,
      "d": 454.54499999999825,
      "v": 73
    },
    {
      "midi": 46,
      "hit": false,
      "t": 87257.48850000062,
      "d": 56.81812500000524,
      "v": 93
    },
    {
      "midi": 43,
      "hit": false,
      "t": 87257.48850000062,
      "d": 2499.9975000000704,
      "v": 81
    },
    {
      "midi": 46,
      "hit": false,
      "t": 87484.76100000062,
      "d": 2234.8462500000605,
      "v": 53
    },
    {
      "midi": 50,
      "hit": false,
      "t": 87712.03350000063,
      "d": 2007.5737500000541,
      "v": 85
    },
    {
      "midi": 53,
      "hit": false,
      "t": 87939.30600000064,
      "d": 1609.8468750000466,
      "v": 77
    },
    {
      "midi": 55,
      "hit": false,
      "t": 88166.57850000064,
      "d": 776.5143750000279,
      "v": 77
    },
    {
      "midi": 58,
      "hit": false,
      "t": 88393.85100000065,
      "d": 473.48437500001455,
      "v": 69
    },
    {
      "midi": 62,
      "hit": false,
      "t": 88621.12350000066,
      "d": 284.09062500001164,
      "v": 81
    },
    {
      "midi": 65,
      "hit": false,
      "t": 88848.39600000066,
      "d": 2196.9675000000134,
      "v": 89
    },
    {
      "midi": 62,
      "hit": false,
      "t": 89075.66850000067,
      "d": 1950.7556250000052,
      "v": 89
    },
    {
      "midi": 58,
      "hit": false,
      "t": 89302.94100000068,
      "d": 1685.6043749999953,
      "v": 73
    },
    {
      "midi": 55,
      "hit": false,
      "t": 89530.21350000068,
      "d": 1477.2712499999907,
      "v": 85
    },
    {
      "midi": 53,
      "hit": false,
      "t": 89757.48600000069,
      "d": 340.9087500000023,
      "v": 77
    },
    {
      "midi": 50,
      "hit": false,
      "t": 89984.7585000007,
      "d": 321.96937499998603,
      "v": 89
    },
    {
      "midi": 46,
      "hit": false,
      "t": 90212.03100000069,
      "d": 359.8481249999895,
      "v": 73
    },
    {
      "midi": 50,
      "hit": false,
      "t": 90439.30350000068,
      "d": 246.2118749999936,
      "v": 89
    },
    {
      "midi": 53,
      "hit": false,
      "t": 90666.57600000067,
      "d": 227.2725000000064,
      "v": 93
    },
    {
      "midi": 44,
      "hit": false,
      "t": 90893.84850000068,
      "d": 2954.5425000000687,
      "v": 81
    },
    {
      "midi": 48,
      "hit": false,
      "t": 91121.12100000068,
      "d": 2727.2700000000623,
      "v": 89
    },
    {
      "midi": 51,
      "hit": false,
      "t": 91348.39350000069,
      "d": 2556.815625000061,
      "v": 93
    },
    {
      "midi": 55,
      "hit": false,
      "t": 91575.6660000007,
      "d": 2007.5737500000396,
      "v": 109
    },
    {
      "midi": 56,
      "hit": false,
      "t": 91802.9385000007,
      "d": 1647.7256250000355,
      "v": 89
    },
    {
      "midi": 60,
      "hit": false,
      "t": 92030.21100000071,
      "d": 1155.3018750000192,
      "v": 89
    },
    {
      "midi": 63,
      "hit": false,
      "t": 92257.48350000072,
      "d": 984.847500000018,
      "v": 85
    },
    {
      "midi": 67,
      "hit": false,
      "t": 92484.75600000072,
      "d": 284.0906249999971,
      "v": 89
    },
    {
      "midi": 68,
      "hit": false,
      "t": 92939.30100000072,
      "d": 208.33312500000466,
      "v": 89
    },
    {
      "midi": 67,
      "hit": false,
      "t": 93166.57350000073,
      "d": 1534.0893750000541,
      "v": 97
    },
    {
      "midi": 63,
      "hit": false,
      "t": 93393.84600000073,
      "d": 1193.1806250000373,
      "v": 101
    },
    {
      "midi": 60,
      "hit": false,
      "t": 93621.11850000074,
      "d": 928.0293750000274,
      "v": 85
    },
    {
      "midi": 56,
      "hit": false,
      "t": 93848.39100000075,
      "d": 776.5143750000279,
      "v": 97
    },
    {
      "midi": 55,
      "hit": false,
      "t": 94075.66350000075,
      "d": 454.5450000000128,
      "v": 93
    },
    {
      "midi": 51,
      "hit": false,
      "t": 94302.93600000076,
      "d": 208.33312500000466,
      "v": 81
    },
    {
      "midi": 46,
      "hit": false,
      "t": 94530.20850000076,
      "d": 2234.846250000075,
      "v": 81
    },
    {
      "midi": 50,
      "hit": false,
      "t": 94757.48100000079,
      "d": 1988.6343750000524,
      "v": 81
    },
    {
      "midi": 53,
      "hit": false,
      "t": 94984.75350000079,
      "d": 1780.3012500000477,
      "v": 89
    },
    {
      "midi": 58,
      "hit": false,
      "t": 95212.0260000008,
      "d": 1628.7862500000483,
      "v": 93
    },
    {
      "midi": 62,
      "hit": false,
      "t": 95439.2985000008,
      "d": 473.48437500001455,
      "v": 85
    },
    {
      "midi": 65,
      "hit": false,
      "t": 95666.57100000081,
      "d": 284.09062500001164,
      "v": 93
    },
    {
      "midi": 67,
      "hit": false,
      "t": 95893.84350000082,
      "d": 473.48437500001455,
      "v": 85
    },
    {
      "midi": 65,
      "hit": false,
      "t": 96121.11600000082,
      "d": 378.7875000000058,
      "v": 77
    },
    {
      "midi": 62,
      "hit": false,
      "t": 96348.38850000083,
      "d": 265.1512500000099,
      "v": 77
    },
    {
      "midi": 68,
      "hit": false,
      "t": 96575.66100000084,
      "d": 1363.6350000000384,
      "v": 77
    },
    {
      "midi": 65,
      "hit": false,
      "t": 96802.93350000084,
      "d": 1098.4837500000285,
      "v": 81
    },
    {
      "midi": 62,
      "hit": false,
      "t": 97030.20600000085,
      "d": 909.0900000000256,
      "v": 85
    },
    {
      "midi": 58,
      "hit": false,
      "t": 97257.47850000086,
      "d": 776.5143750000279,
      "v": 105
    },
    {
      "midi": 56,
      "hit": false,
      "t": 97484.75100000086,
      "d": 511.36312500001804,
      "v": 73
    },
    {
      "midi": 53,
      "hit": false,
      "t": 97712.02350000087,
      "d": 284.09062500001164,
      "v": 81
    },
    {
      "midi": 51,
      "hit": false,
      "t": 97939.29600000088,
      "d": 113.63625000001048,
      "v": 73
    },
    {
      "midi": 62,
      "hit": false,
      "t": 98166.56850000088,
      "d": 75.75750000000698,
      "v": 109
    },
    {
      "midi": 63,
      "hit": false,
      "t": 98166.56850000088,
      "d": 94.69687500000873,
      "v": 113
    },
    {
      "midi": 51,
      "hit": false,
      "t": 98166.56850000088,
      "d": 113.63625000001048,
      "v": 113
    },
    {
      "midi": 67,
      "hit": false,
      "t": 98166.56850000088,
      "d": 113.63625000001048,
      "v": 93
    },
    {
      "midi": 58,
      "hit": false,
      "t": 98166.56850000088,
      "d": 151.51500000001397,
      "v": 97
    },
    {
      "midi": 62,
      "hit": false,
      "t": 98621.1135000009,
      "d": 1060.604999999996,
      "v": 117
    },
    {
      "midi": 51,
      "hit": false,
      "t": 98621.1135000009,
      "d": 1079.5443749999977,
      "v": 113
    },
    {
      "midi": 58,
      "hit": false,
      "t": 98621.1135000009,
      "d": 1079.5443749999977,
      "v": 105
    },
    {
      "midi": 63,
      "hit": false,
      "t": 98621.1135000009,
      "d": 1098.4837499999994,
      "v": 113
    },
    {
      "midi": 67,
      "hit": false,
      "t": 98621.1135000009,
      "d": 1098.4837499999994,
      "v": 109
    },
    {
      "midi": 62,
      "hit": false,
      "t": 100212.0210000009,
      "d": 75.75750000000698,
      "v": 125
    },
    {
      "midi": 60,
      "hit": false,
      "t": 100212.0210000009,
      "d": 113.63625000001048,
      "v": 121
    },
    {
      "midi": 67,
      "hit": false,
      "t": 100212.0210000009,
      "d": 113.63625000001048,
      "v": 113
    },
    {
      "midi": 48,
      "hit": false,
      "t": 100212.0210000009,
      "d": 132.57562500001222,
      "v": 125
    },
    {
      "midi": 62,
      "hit": false,
      "t": 100666.56600000091,
      "d": 113.63624999999593,
      "v": 125
    },
    {
      "midi": 47,
      "hit": false,
      "t": 100666.56600000091,
      "d": 132.57562499999767,
      "v": 125
    },
    {
      "midi": 67,
      "hit": false,
      "t": 100666.56600000091,
      "d": 151.51499999999942,
      "v": 113
    },
    {
      "midi": 59,
      "hit": false,
      "t": 100666.56600000091,
      "d": 170.45437500000116,
      "v": 125
    },
    {
      "midi": 65,
      "hit": false,
      "t": 101348.38350000091,
      "d": 265.15124999999534,
      "v": 121
    },
    {
      "midi": 58,
      "hit": false,
      "t": 101348.38350000091,
      "d": 284.0906249999971,
      "v": 109
    },
    {
      "midi": 62,
      "hit": false,
      "t": 101348.38350000091,
      "d": 284.0906249999971,
      "v": 125
    },
    {
      "midi": 46,
      "hit": false,
      "t": 101348.38350000091,
      "d": 340.9087500000023,
      "v": 117
    },
    {
      "midi": 43,
      "hit": false,
      "t": 101689.29225000092,
      "d": 1439.3925000000017,
      "v": 77
    },
    {
      "midi": 58,
      "hit": false,
      "t": 101689.29225000092,
      "d": 1515.1500000000087,
      "v": 97
    },
    {
      "midi": 62,
      "hit": false,
      "t": 101689.29225000092,
      "d": 1515.1500000000087,
      "v": 97
    },
    {
      "midi": 55,
      "hit": false,
      "t": 101689.29225000092,
      "d": 1534.0893750000105,
      "v": 85
    },
    {
      "midi": 65,
      "hit": false,
      "t": 101802.92850000091,
      "d": 1382.574375000011,
      "v": 97
    },
    {
      "midi": 63,
      "hit": false,
      "t": 103848.38100000093,
      "d": 37.87875000000349,
      "v": 97
    },
    {
      "midi": 58,
      "hit": false,
      "t": 103848.38100000093,
      "d": 75.75750000000698,
      "v": 105
    },
    {
      "midi": 62,
      "hit": false,
      "t": 103848.38100000093,
      "d": 75.75750000000698,
      "v": 121
    },
    {
      "midi": 51,
      "hit": false,
      "t": 103848.38100000093,
      "d": 94.69687500000873,
      "v": 109
    },
    {
      "midi": 55,
      "hit": false,
      "t": 103848.38100000093,
      "d": 170.45437500001572,
      "v": 105
    },
    {
      "midi": 43,
      "hit": false,
      "t": 104416.56225000093,
      "d": 700.7568750000064,
      "v": 85
    },
    {
      "midi": 62,
      "hit": false,
      "t": 104416.56225000093,
      "d": 719.6962500000081,
      "v": 125
    },
    {
      "midi": 50,
      "hit": false,
      "t": 104416.56225000093,
      "d": 757.5750000000116,
      "v": 89
    },
    {
      "midi": 60,
      "hit": false,
      "t": 104416.56225000093,
      "d": 757.5750000000116,
      "v": 125
    },
    {
      "midi": 55,
      "hit": false,
      "t": 104416.56225000093,
      "d": 776.5143750000134,
      "v": 121
    },
    {
      "midi": 43,
      "hit": false,
      "t": 105439.28850000094,
      "d": 454.54499999999825,
      "v": 97
    },
    {
      "midi": 44,
      "hit": false,
      "t": 105893.83350000094,
      "d": 473.484375,
      "v": 89
    },
    {
      "midi": 46,
      "hit": false,
      "t": 106348.37850000094,
      "d": 473.484375,
      "v": 101
    },
    {
      "midi": 48,
      "hit": false,
      "t": 106802.92350000094,
      "d": 473.484375,
      "v": 97
    },
    {
      "midi": 50,
      "hit": false,
      "t": 107257.46850000093,
      "d": 492.42375000000175,
      "v": 93
    },
    {
      "midi": 51,
      "hit": false,
      "t": 107712.01350000093,
      "d": 454.54499999999825,
      "v": 93
    },
    {
      "midi": 53,
      "hit": false,
      "t": 108166.55850000093,
      "d": 454.54499999999825,
      "v": 85
    },
    {
      "midi": 55,
      "hit": false,
      "t": 108621.10350000093,
      "d": 227.2725000000064,
      "v": 85
    },
    {
      "midi": 48,
      "hit": false,
      "t": 109075.64850000094,
      "d": 246.21187500000815,
      "v": 85
    },
    {
      "midi": 60,
      "hit": false,
      "t": 109302.92100000095,
      "d": 56.81812500000524,
      "v": 81
    },
    {
      "midi": 63,
      "hit": false,
      "t": 109302.92100000095,
      "d": 56.81812500000524,
      "v": 81
    },
    {
      "midi": 67,
      "hit": false,
      "t": 109302.92100000095,
      "d": 56.81812500000524,
      "v": 85
    },
    {
      "midi": 63,
      "hit": false,
      "t": 109757.46600000095,
      "d": 37.87875000000349,
      "v": 97
    },
    {
      "midi": 60,
      "hit": false,
      "t": 109757.46600000095,
      "d": 56.81812500000524,
      "v": 93
    },
    {
      "midi": 67,
      "hit": false,
      "t": 109757.46600000095,
      "d": 56.81812500000524,
      "v": 93
    },
    {
      "midi": 48,
      "hit": false,
      "t": 109984.73850000095,
      "d": 435.6056249999965,
      "v": 109
    },
    {
      "midi": 60,
      "hit": false,
      "t": 110439.28350000095,
      "d": 56.81812500000524,
      "v": 89
    },
    {
      "midi": 63,
      "hit": false,
      "t": 110439.28350000095,
      "d": 56.81812500000524,
      "v": 97
    },
    {
      "midi": 67,
      "hit": false,
      "t": 110439.28350000095,
      "d": 56.81812500000524,
      "v": 93
    },
    {
      "midi": 48,
      "hit": false,
      "t": 110666.55600000096,
      "d": 37.87875000000349,
      "v": 81
    },
    {
      "midi": 60,
      "hit": false,
      "t": 110780.19225000097,
      "d": 37.87875000000349,
      "v": 85
    },
    {
      "midi": 63,
      "hit": false,
      "t": 110780.19225000097,
      "d": 37.87875000000349,
      "v": 93
    },
    {
      "midi": 67,
      "hit": false,
      "t": 110780.19225000097,
      "d": 37.87875000000349,
      "v": 89
    },
    {
      "midi": 48,
      "hit": false,
      "t": 110893.82850000098,
      "d": 208.33312500000466,
      "v": 105
    },
    {
      "midi": 60,
      "hit": false,
      "t": 111121.10100000098,
      "d": 56.81812500000524,
      "v": 101
    },
    {
      "midi": 63,
      "hit": false,
      "t": 111121.10100000098,
      "d": 56.81812500000524,
      "v": 105
    },
    {
      "midi": 67,
      "hit": false,
      "t": 111121.10100000098,
      "d": 56.81812500000524,
      "v": 105
    },
    {
      "midi": 63,
      "hit": false,
      "t": 111575.64600000098,
      "d": 37.87875000000349,
      "v": 97
    },
    {
      "midi": 60,
      "hit": false,
      "t": 111575.64600000098,
      "d": 56.81812500000524,
      "v": 93
    },
    {
      "midi": 67,
      "hit": false,
      "t": 111575.64600000098,
      "d": 56.81812500000524,
      "v": 93
    },
    {
      "midi": 48,
      "hit": false,
      "t": 111802.91850000099,
      "d": 435.6056249999965,
      "v": 117
    },
    {
      "midi": 63,
      "hit": false,
      "t": 112257.46350000099,
      "d": 37.87875000000349,
      "v": 109
    },
    {
      "midi": 67,
      "hit": false,
      "t": 112257.46350000099,
      "d": 37.87875000000349,
      "v": 93
    },
    {
      "midi": 60,
      "hit": false,
      "t": 112257.46350000099,
      "d": 56.81812500000524,
      "v": 97
    },
    {
      "midi": 48,
      "hit": false,
      "t": 112484.736000001,
      "d": 37.87875000000349,
      "v": 93
    },
    {
      "midi": 63,
      "hit": false,
      "t": 112598.372250001,
      "d": 37.87875000000349,
      "v": 101
    },
    {
      "midi": 67,
      "hit": false,
      "t": 112598.372250001,
      "d": 37.87875000000349,
      "v": 89
    },
    {
      "midi": 60,
      "hit": false,
      "t": 112598.372250001,
      "d": 56.81812500000524,
      "v": 89
    },
    {
      "midi": 48,
      "hit": false,
      "t": 112712.00850000101,
      "d": 227.2725000000064,
      "v": 101
    },
    {
      "midi": 63,
      "hit": false,
      "t": 112939.28100000102,
      "d": 37.87875000000349,
      "v": 105
    },
    {
      "midi": 67,
      "hit": false,
      "t": 112939.28100000102,
      "d": 37.87875000000349,
      "v": 93
    },
    {
      "midi": 60,
      "hit": false,
      "t": 112939.28100000102,
      "d": 56.81812500000524,
      "v": 97
    },
    {
      "midi": 60,
      "hit": false,
      "t": 113393.82600000102,
      "d": 56.81812500000524,
      "v": 97
    },
    {
      "midi": 63,
      "hit": false,
      "t": 113393.82600000102,
      "d": 56.81812500000524,
      "v": 105
    },
    {
      "midi": 67,
      "hit": false,
      "t": 113393.82600000102,
      "d": 56.81812500000524,
      "v": 89
    },
    {
      "midi": 44,
      "hit": false,
      "t": 113621.09850000103,
      "d": 473.484375,
      "v": 113
    },
    {
      "midi": 63,
      "hit": false,
      "t": 114075.64350000102,
      "d": 189.3937500000029,
      "v": 101
    },
    {
      "midi": 56,
      "hit": false,
      "t": 114075.64350000102,
      "d": 208.33312500000466,
      "v": 97
    },
    {
      "midi": 60,
      "hit": false,
      "t": 114075.64350000102,
      "d": 208.33312500000466,
      "v": 97
    },
    {
      "midi": 67,
      "hit": false,
      "t": 114075.64350000102,
      "d": 208.33312500000466,
      "v": 97
    },
    {
      "midi": 44,
      "hit": false,
      "t": 114302.91600000103,
      "d": 56.81812500000524,
      "v": 85
    },
    {
      "midi": 60,
      "hit": false,
      "t": 114416.55225000104,
      "d": 37.87875000000349,
      "v": 85
    },
    {
      "midi": 63,
      "hit": false,
      "t": 114416.55225000104,
      "d": 37.87875000000349,
      "v": 81
    },
    {
      "midi": 56,
      "hit": false,
      "t": 114416.55225000104,
      "d": 56.81812500000524,
      "v": 77
    },
    {
      "midi": 67,
      "hit": false,
      "t": 114416.55225000104,
      "d": 56.81812500000524,
      "v": 85
    },
    {
      "midi": 44,
      "hit": false,
      "t": 114530.18850000105,
      "d": 246.21187500000815,
      "v": 105
    },
    {
      "midi": 63,
      "hit": false,
      "t": 114757.46100000106,
      "d": 37.87875000000349,
      "v": 97
    },
    {
      "midi": 56,
      "hit": false,
      "t": 114757.46100000106,
      "d": 56.81812500000524,
      "v": 89
    },
    {
      "midi": 60,
      "hit": false,
      "t": 114757.46100000106,
      "d": 56.81812500000524,
      "v": 101
    },
    {
      "midi": 67,
      "hit": false,
      "t": 114757.46100000106,
      "d": 56.81812500000524,
      "v": 93
    },
    {
      "midi": 67,
      "hit": false,
      "t": 115212.00600000106,
      "d": 37.87875000000349,
      "v": 89
    },
    {
      "midi": 56,
      "hit": false,
      "t": 115212.00600000106,
      "d": 56.81812500000524,
      "v": 89
    },
    {
      "midi": 60,
      "hit": false,
      "t": 115212.00600000106,
      "d": 56.81812500000524,
      "v": 93
    },
    {
      "midi": 63,
      "hit": false,
      "t": 115212.00600000106,
      "d": 56.81812500000524,
      "v": 101
    },
    {
      "midi": 43,
      "hit": false,
      "t": 115439.27850000106,
      "d": 397.726874999993,
      "v": 105
    },
    {
      "midi": 55,
      "hit": false,
      "t": 115893.82350000106,
      "d": 208.33312500000466,
      "v": 97
    },
    {
      "midi": 60,
      "hit": false,
      "t": 115893.82350000106,
      "d": 208.33312500000466,
      "v": 113
    },
    {
      "midi": 62,
      "hit": false,
      "t": 115893.82350000106,
      "d": 208.33312500000466,
      "v": 105
    },
    {
      "midi": 43,
      "hit": false,
      "t": 116121.09600000107,
      "d": 75.75750000000698,
      "v": 53
    },
    {
      "midi": 55,
      "hit": false,
      "t": 116234.73225000108,
      "d": 37.87875000000349,
      "v": 81
    },
    {
      "midi": 60,
      "hit": false,
      "t": 116234.73225000108,
      "d": 37.87875000000349,
      "v": 101
    },
    {
      "midi": 62,
      "hit": false,
      "t": 116234.73225000108,
      "d": 37.87875000000349,
      "v": 89
    },
    {
      "midi": 48,
      "hit": false,
      "t": 116348.36850000109,
      "d": 246.21187500000815,
      "v": 105
    },
    {
      "midi": 60,
      "hit": false,
      "t": 116575.6410000011,
      "d": 56.81812500000524,
      "v": 97
    },
    {
      "midi": 64,
      "hit": false,
      "t": 116575.6410000011,
      "d": 56.81812500000524,
      "v": 105
    },
    {
      "midi": 67,
      "hit": false,
      "t": 116575.6410000011,
      "d": 56.81812500000524,
      "v": 101
    },
    {
      "midi": 60,
      "hit": false,
      "t": 117030.1860000011,
      "d": 56.81812500000524,
      "v": 97
    },
    {
      "midi": 64,
      "hit": false,
      "t": 117030.1860000011,
      "d": 56.81812500000524,
      "v": 105
    },
    {
      "midi": 67,
      "hit": false,
      "t": 117030.1860000011,
      "d": 56.81812500000524,
      "v": 101
    },
    {
      "midi": 53,
      "hit": false,
      "t": 117257.4585000011,
      "d": 454.54499999999825,
      "v": 105
    },
    {
      "midi": 60,
      "hit": false,
      "t": 117712.0035000011,
      "d": 189.3937500000029,
      "v": 101
    },
    {
      "midi": 68,
      "hit": false,
      "t": 117712.0035000011,
      "d": 189.3937500000029,
      "v": 101
    },
    {
      "midi": 65,
      "hit": false,
      "t": 117712.0035000011,
      "d": 208.33312500000466,
      "v": 113
    },
    {
      "midi": 53,
      "hit": false,
      "t": 117939.2760000011,
      "d": 113.63624999999593,
      "v": 85
    },
    {
      "midi": 68,
      "hit": false,
      "t": 118052.9122500011,
      "d": 37.87875000000349,
      "v": 81
    },
    {
      "midi": 65,
      "hit": false,
      "t": 118052.9122500011,
      "d": 56.81812500000524,
      "v": 101
    },
    {
      "midi": 60,
      "hit": false,
      "t": 118052.9122500011,
      "d": 75.75750000000698,
      "v": 85
    },
    {
      "midi": 46,
      "hit": false,
      "t": 118166.54850000111,
      "d": 321.96937500001513,
      "v": 81
    },
    {
      "midi": 65,
      "hit": false,
      "t": 118393.82100000112,
      "d": 75.75750000000698,
      "v": 89
    },
    {
      "midi": 58,
      "hit": false,
      "t": 118393.82100000112,
      "d": 94.69687500000873,
      "v": 89
    },
    {
      "midi": 68,
      "hit": false,
      "t": 118393.82100000112,
      "d": 94.69687500000873,
      "v": 77
    },
    {
      "midi": 62,
      "hit": false,
      "t": 118393.82100000112,
      "d": 113.63625000001048,
      "v": 89
    },
    {
      "midi": 68,
      "hit": false,
      "t": 118848.36600000113,
      "d": 75.75750000000698,
      "v": 93
    },
    {
      "midi": 65,
      "hit": false,
      "t": 118848.36600000113,
      "d": 94.69687500000873,
      "v": 81
    },
    {
      "midi": 62,
      "hit": false,
      "t": 118848.36600000113,
      "d": 113.63625000001048,
      "v": 93
    },
    {
      "midi": 58,
      "hit": false,
      "t": 118848.36600000113,
      "d": 132.57562500001222,
      "v": 93
    },
    {
      "midi": 51,
      "hit": false,
      "t": 119075.63850000114,
      "d": 435.6056249999965,
      "v": 109
    },
    {
      "midi": 58,
      "hit": false,
      "t": 119530.18350000113,
      "d": 189.3937500000029,
      "v": 97
    },
    {
      "midi": 62,
      "hit": false,
      "t": 119530.18350000113,
      "d": 189.3937500000029,
      "v": 105
    },
    {
      "midi": 63,
      "hit": false,
      "t": 119530.18350000113,
      "d": 189.3937500000029,
      "v": 97
    },
    {
      "midi": 67,
      "hit": false,
      "t": 119530.18350000113,
      "d": 189.3937500000029,
      "v": 93
    },
    {
      "midi": 51,
      "hit": false,
      "t": 119757.45600000114,
      "d": 56.81812500000524,
      "v": 89
    },
    {
      "midi": 58,
      "hit": false,
      "t": 119871.09225000115,
      "d": 56.81812500000524,
      "v": 73
    },
    {
      "midi": 62,
      "hit": false,
      "t": 119871.09225000115,
      "d": 56.81812500000524,
      "v": 77
    },
    {
      "midi": 63,
      "hit": false,
      "t": 119871.09225000115,
      "d": 56.81812500000524,
      "v": 65
    },
    {
      "midi": 67,
      "hit": false,
      "t": 119871.09225000115,
      "d": 56.81812500000524,
      "v": 73
    },
    {
      "midi": 43,
      "hit": false,
      "t": 119984.72850000116,
      "d": 340.9087500000023,
      "v": 117
    },
    {
      "midi": 44,
      "hit": false,
      "t": 120439.27350000116,
      "d": 284.0906249999971,
      "v": 117
    },
    {
      "midi": 46,
      "hit": false,
      "t": 120893.81850000116,
      "d": 265.15124999999534,
      "v": 117
    },
    {
      "midi": 48,
      "hit": false,
      "t": 121348.36350000116,
      "d": 284.0906249999971,
      "v": 117
    },
    {
      "midi": 50,
      "hit": false,
      "t": 121802.90850000115,
      "d": 265.15124999999534,
      "v": 121
    },
    {
      "midi": 51,
      "hit": false,
      "t": 122257.45350000115,
      "d": 227.2725000000064,
      "v": 125
    },
    {
      "midi": 53,
      "hit": false,
      "t": 122711.99850000117,
      "d": 246.2118749999936,
      "v": 125
    },
    {
      "midi": 55,
      "hit": false,
      "t": 123166.54350000116,
      "d": 170.45437500000116,
      "v": 125
    },
    {
      "midi": 48,
      "hit": false,
      "t": 123621.08850000116,
      "d": 265.1512500000099,
      "v": 109
    },
    {
      "midi": 63,
      "hit": false,
      "t": 123848.36100000117,
      "d": 37.87875000000349,
      "v": 97
    },
    {
      "midi": 60,
      "hit": false,
      "t": 123848.36100000117,
      "d": 56.81812500000524,
      "v": 89
    },
    {
      "midi": 67,
      "hit": false,
      "t": 123848.36100000117,
      "d": 56.81812500000524,
      "v": 81
    },
    {
      "midi": 60,
      "hit": false,
      "t": 124302.90600000117,
      "d": 56.81812500000524,
      "v": 97
    },
    {
      "midi": 63,
      "hit": false,
      "t": 124302.90600000117,
      "d": 56.81812500000524,
      "v": 105
    },
    {
      "midi": 67,
      "hit": false,
      "t": 124302.90600000117,
      "d": 56.81812500000524,
      "v": 93
    },
    {
      "midi": 48,
      "hit": false,
      "t": 124530.17850000117,
      "d": 473.484375,
      "v": 113
    },
    {
      "midi": 67,
      "hit": false,
      "t": 124984.72350000117,
      "d": 151.51499999999942,
      "v": 93
    },
    {
      "midi": 60,
      "hit": false,
      "t": 124984.72350000117,
      "d": 170.45437500000116,
      "v": 97
    },
    {
      "midi": 63,
      "hit": false,
      "t": 124984.72350000117,
      "d": 170.45437500000116,
      "v": 105
    },
    {
      "midi": 48,
      "hit": false,
      "t": 125211.99600000118,
      "d": 75.75750000000698,
      "v": 81
    },
    {
      "midi": 67,
      "hit": false,
      "t": 125325.63225000119,
      "d": 37.87875000000349,
      "v": 77
    },
    {
      "midi": 60,
      "hit": false,
      "t": 125325.63225000119,
      "d": 56.81812500000524,
      "v": 85
    },
    {
      "midi": 63,
      "hit": false,
      "t": 125325.63225000119,
      "d": 56.81812500000524,
      "v": 93
    },
    {
      "midi": 47,
      "hit": false,
      "t": 125439.2685000012,
      "d": 265.1512500000099,
      "v": 105
    },
    {
      "midi": 59,
      "hit": false,
      "t": 125666.5410000012,
      "d": 56.81812500000524,
      "v": 93
    },
    {
      "midi": 63,
      "hit": false,
      "t": 125666.5410000012,
      "d": 56.81812500000524,
      "v": 101
    },
    {
      "midi": 67,
      "hit": false,
      "t": 125666.5410000012,
      "d": 56.81812500000524,
      "v": 89
    },
    {
      "midi": 63,
      "hit": false,
      "t": 126121.0860000012,
      "d": 56.81812500000524,
      "v": 105
    },
    {
      "midi": 67,
      "hit": false,
      "t": 126121.0860000012,
      "d": 56.81812500000524,
      "v": 93
    },
    {
      "midi": 59,
      "hit": false,
      "t": 126121.0860000012,
      "d": 75.75750000000698,
      "v": 89
    },
    {
      "midi": 47,
      "hit": false,
      "t": 126348.35850000121,
      "d": 416.66624999999476,
      "v": 113
    },
    {
      "midi": 59,
      "hit": false,
      "t": 126802.90350000121,
      "d": 189.3937500000029,
      "v": 93
    },
    {
      "midi": 63,
      "hit": false,
      "t": 126802.90350000121,
      "d": 189.3937500000029,
      "v": 105
    },
    {
      "midi": 67,
      "hit": false,
      "t": 126802.90350000121,
      "d": 189.3937500000029,
      "v": 97
    },
    {
      "midi": 47,
      "hit": false,
      "t": 127030.17600000121,
      "d": 56.81812500000524,
      "v": 85
    },
    {
      "midi": 63,
      "hit": false,
      "t": 127143.81225000123,
      "d": 75.75750000000698,
      "v": 85
    },
    {
      "midi": 59,
      "hit": false,
      "t": 127143.81225000123,
      "d": 94.69687500000873,
      "v": 81
    },
    {
      "midi": 67,
      "hit": false,
      "t": 127143.81225000123,
      "d": 94.69687500000873,
      "v": 81
    },
    {
      "midi": 46,
      "hit": false,
      "t": 127257.44850000124,
      "d": 246.21187500000815,
      "v": 109
    },
    {
      "midi": 58,
      "hit": false,
      "t": 127484.72100000124,
      "d": 75.75750000000698,
      "v": 89
    },
    {
      "midi": 62,
      "hit": false,
      "t": 127484.72100000124,
      "d": 94.69687500000873,
      "v": 93
    },
    {
      "midi": 65,
      "hit": false,
      "t": 127484.72100000124,
      "d": 94.69687500000873,
      "v": 89
    },
    {
      "midi": 58,
      "hit": false,
      "t": 127939.26600000125,
      "d": 75.75750000000698,
      "v": 89
    },
    {
      "midi": 62,
      "hit": false,
      "t": 127939.26600000125,
      "d": 75.75750000000698,
      "v": 105
    },
    {
      "midi": 65,
      "hit": false,
      "t": 127939.26600000125,
      "d": 75.75750000000698,
      "v": 105
    },
    {
      "midi": 44,
      "hit": false,
      "t": 128166.53850000126,
      "d": 454.54499999999825,
      "v": 113
    },
    {
      "midi": 56,
      "hit": false,
      "t": 128621.08350000126,
      "d": 75.75750000000698,
      "v": 93
    },
    {
      "midi": 60,
      "hit": false,
      "t": 128621.08350000126,
      "d": 75.75750000000698,
      "v": 105
    },
    {
      "midi": 63,
      "hit": false,
      "t": 128621.08350000126,
      "d": 75.75750000000698,
      "v": 113
    },
    {
      "midi": 44,
      "hit": false,
      "t": 128848.35600000127,
      "d": 56.81812500000524,
      "v": 93
    },
    {
      "midi": 63,
      "hit": false,
      "t": 128961.99225000128,
      "d": 18.939375000001746,
      "v": 73
    },
    {
      "midi": 60,
      "hit": false,
      "t": 128961.99225000128,
      "d": 37.87875000000349,
      "v": 81
    },
    {
      "midi": 56,
      "hit": false,
      "t": 128961.99225000128,
      "d": 56.81812500000524,
      "v": 77
    },
    {
      "midi": 66,
      "hit": false,
      "t": 128961.99225000128,
      "d": 56.81812500000524,
      "v": 77
    },
    {
      "midi": 44,
      "hit": false,
      "t": 129075.62850000129,
      "d": 265.1512500000099,
      "v": 113
    },
    {
      "midi": 63,
      "hit": false,
      "t": 129302.9010000013,
      "d": 75.75750000000698,
      "v": 105
    },
    {
      "midi": 56,
      "hit": false,
      "t": 129302.9010000013,
      "d": 94.69687500000873,
      "v": 93
    },
    {
      "midi": 60,
      "hit": false,
      "t": 129302.9010000013,
      "d": 94.69687500000873,
      "v": 105
    },
    {
      "midi": 66,
      "hit": false,
      "t": 129302.9010000013,
      "d": 113.63625000001048,
      "v": 89
    },
    {
      "midi": 60,
      "hit": false,
      "t": 129757.4460000013,
      "d": 56.81812500000524,
      "v": 89
    },
    {
      "midi": 66,
      "hit": false,
      "t": 129757.4460000013,
      "d": 56.81812500000524,
      "v": 85
    },
    {
      "midi": 56,
      "hit": false,
      "t": 129757.4460000013,
      "d": 75.75750000000698,
      "v": 89
    },
    {
      "midi": 63,
      "hit": false,
      "t": 129757.4460000013,
      "d": 75.75750000000698,
      "v": 93
    },
    {
      "midi": 43,
      "hit": false,
      "t": 129984.71850000131,
      "d": 416.66624999999476,
      "v": 101
    },
    {
      "midi": 55,
      "hit": false,
      "t": 130439.26350000131,
      "d": 208.33312500000466,
      "v": 101
    },
    {
      "midi": 60,
      "hit": false,
      "t": 130439.26350000131,
      "d": 208.33312500000466,
      "v": 109
    },
    {
      "midi": 62,
      "hit": false,
      "t": 130439.26350000131,
      "d": 208.33312500000466,
      "v": 109
    },
    {
      "midi": 67,
      "hit": false,
      "t": 130439.26350000131,
      "d": 227.2725000000064,
      "v": 85
    },
    {
      "midi": 43,
      "hit": false,
      "t": 130666.53600000132,
      "d": 113.63624999999593,
      "v": 85
    },
    {
      "midi": 55,
      "hit": false,
      "t": 130780.17225000131,
      "d": 37.87875000000349,
      "v": 81
    },
    {
      "midi": 60,
      "hit": false,
      "t": 130780.17225000131,
      "d": 37.87875000000349,
      "v": 97
    },
    {
      "midi": 62,
      "hit": false,
      "t": 130780.17225000131,
      "d": 37.87875000000349,
      "v": 101
    },
    {
      "midi": 67,
      "hit": false,
      "t": 130780.17225000131,
      "d": 56.81812500000524,
      "v": 73
    },
    {
      "midi": 53,
      "hit": false,
      "t": 130893.80850000132,
      "d": 18.939375000001746,
      "v": 93
    },
    {
      "midi": 68,
      "hit": false,
      "t": 131121.08100000132,
      "d": 56.81812499999069,
      "v": 81
    },
    {
      "midi": 60,
      "hit": false,
      "t": 131121.08100000132,
      "d": 75.75749999997788,
      "v": 85
    },
    {
      "midi": 63,
      "hit": false,
      "t": 131121.08100000132,
      "d": 75.75749999997788,
      "v": 85
    },
    {
      "midi": 65,
      "hit": false,
      "t": 131140.0203750013,
      "d": 37.87875000000349,
      "v": 89
    },
    {
      "midi": 63,
      "hit": false,
      "t": 131575.6260000013,
      "d": 56.81812499999069,
      "v": 93
    },
    {
      "midi": 68,
      "hit": false,
      "t": 131575.6260000013,
      "d": 56.81812499999069,
      "v": 85
    },
    {
      "midi": 60,
      "hit": false,
      "t": 131575.6260000013,
      "d": 75.75749999997788,
      "v": 89
    },
    {
      "midi": 46,
      "hit": false,
      "t": 131802.8985000013,
      "d": 435.6056249999965,
      "v": 109
    },
    {
      "midi": 58,
      "hit": false,
      "t": 132257.44350000127,
      "d": 208.33312500000466,
      "v": 81
    },
    {
      "midi": 62,
      "hit": false,
      "t": 132257.44350000127,
      "d": 208.33312500000466,
      "v": 97
    },
    {
      "midi": 65,
      "hit": false,
      "t": 132257.44350000127,
      "d": 208.33312500000466,
      "v": 97
    },
    {
      "midi": 68,
      "hit": false,
      "t": 132257.44350000127,
      "d": 208.33312500000466,
      "v": 85
    },
    {
      "midi": 46,
      "hit": false,
      "t": 132484.71600000127,
      "d": 94.69687499999418,
      "v": 73
    },
    {
      "midi": 62,
      "hit": false,
      "t": 132598.35225000125,
      "d": 75.75750000000698,
      "v": 89
    },
    {
      "midi": 65,
      "hit": false,
      "t": 132598.35225000125,
      "d": 75.75750000000698,
      "v": 85
    },
    {
      "midi": 68,
      "hit": false,
      "t": 132598.35225000125,
      "d": 75.75750000000698,
      "v": 61
    },
    {
      "midi": 58,
      "hit": false,
      "t": 132598.35225000125,
      "d": 113.63625000001048,
      "v": 81
    },
    {
      "midi": 51,
      "hit": false,
      "t": 132711.98850000126,
      "d": 265.15124999999534,
      "v": 105
    },
    {
      "midi": 63,
      "hit": false,
      "t": 132939.26100000125,
      "d": 56.81812499999069,
      "v": 77
    },
    {
      "midi": 58,
      "hit": false,
      "t": 132939.26100000125,
      "d": 75.75749999997788,
      "v": 73
    },
    {
      "midi": 62,
      "hit": false,
      "t": 132939.26100000125,
      "d": 75.75749999997788,
      "v": 85
    },
    {
      "midi": 67,
      "hit": false,
      "t": 132939.26100000125,
      "d": 75.75749999997788,
      "v": 81
    },
    {
      "midi": 62,
      "hit": false,
      "t": 133393.80600000123,
      "d": 75.75750000000698,
      "v": 89
    },
    {
      "midi": 63,
      "hit": false,
      "t": 133393.80600000123,
      "d": 75.75750000000698,
      "v": 73
    },
    {
      "midi": 67,
      "hit": false,
      "t": 133393.80600000123,
      "d": 75.75750000000698,
      "v": 81
    },
    {
      "midi": 58,
      "hit": false,
      "t": 133393.80600000123,
      "d": 94.69687499999418,
      "v": 89
    },
    {
      "midi": 44,
      "hit": false,
      "t": 133621.07850000123,
      "d": 454.5450000000128,
      "v": 109
    },
    {
      "midi": 56,
      "hit": false,
      "t": 134075.62350000124,
      "d": 208.33312500000466,
      "v": 81
    },
    {
      "midi": 60,
      "hit": false,
      "t": 134075.62350000124,
      "d": 208.33312500000466,
      "v": 97
    },
    {
      "midi": 63,
      "hit": false,
      "t": 134075.62350000124,
      "d": 208.33312500000466,
      "v": 89
    },
    {
      "midi": 67,
      "hit": false,
      "t": 134075.62350000124,
      "d": 227.27249999999185,
      "v": 85
    },
    {
      "midi": 56,
      "hit": false,
      "t": 134416.53225000124,
      "d": 113.63625000001048,
      "v": 73
    },
    {
      "midi": 60,
      "hit": false,
      "t": 134416.53225000124,
      "d": 113.63625000001048,
      "v": 85
    },
    {
      "midi": 63,
      "hit": false,
      "t": 134416.53225000124,
      "d": 113.63625000001048,
      "v": 81
    },
    {
      "midi": 67,
      "hit": false,
      "t": 134416.53225000124,
      "d": 113.63625000001048,
      "v": 77
    },
    {
      "midi": 41,
      "hit": false,
      "t": 134530.16850000125,
      "d": 246.21187499997905,
      "v": 89
    },
    {
      "midi": 62,
      "hit": false,
      "t": 134757.44100000124,
      "d": 75.75749999997788,
      "v": 93
    },
    {
      "midi": 56,
      "hit": false,
      "t": 134757.44100000124,
      "d": 94.69687499996508,
      "v": 73
    },
    {
      "midi": 60,
      "hit": false,
      "t": 134757.44100000124,
      "d": 94.69687499996508,
      "v": 85
    },
    {
      "midi": 65,
      "hit": false,
      "t": 134757.44100000124,
      "d": 94.69687499996508,
      "v": 77
    },
    {
      "midi": 65,
      "hit": false,
      "t": 135211.9860000012,
      "d": 75.75750000000698,
      "v": 81
    },
    {
      "midi": 56,
      "hit": false,
      "t": 135211.9860000012,
      "d": 94.69687499999418,
      "v": 73
    },
    {
      "midi": 62,
      "hit": false,
      "t": 135211.9860000012,
      "d": 94.69687499999418,
      "v": 93
    },
    {
      "midi": 60,
      "hit": false,
      "t": 135211.9860000012,
      "d": 113.63624999998137,
      "v": 89
    },
    {
      "midi": 50,
      "hit": false,
      "t": 135439.2585000012,
      "d": 435.6056249999965,
      "v": 113
    },
    {
      "midi": 56,
      "hit": false,
      "t": 135893.80350000117,
      "d": 189.39374999998836,
      "v": 85
    },
    {
      "midi": 65,
      "hit": false,
      "t": 135893.80350000117,
      "d": 189.39374999998836,
      "v": 89
    },
    {
      "midi": 60,
      "hit": false,
      "t": 135893.80350000117,
      "d": 208.33312499997555,
      "v": 93
    },
    {
      "midi": 50,
      "hit": false,
      "t": 136121.07600000114,
      "d": 37.87875000000349,
      "v": 81
    },
    {
      "midi": 60,
      "hit": false,
      "t": 136234.71225000115,
      "d": 56.81812499999069,
      "v": 89
    },
    {
      "midi": 56,
      "hit": false,
      "t": 136234.71225000115,
      "d": 75.75749999997788,
      "v": 81
    },
    {
      "midi": 65,
      "hit": false,
      "t": 136234.71225000115,
      "d": 75.75749999997788,
      "v": 85
    },
    {
      "midi": 46,
      "hit": false,
      "t": 136348.34850000113,
      "d": 227.27249999999185,
      "v": 113
    },
    {
      "midi": 53,
      "hit": false,
      "t": 136575.62100000112,
      "d": 94.69687499999418,
      "v": 77
    },
    {
      "midi": 58,
      "hit": false,
      "t": 136575.62100000112,
      "d": 94.69687499999418,
      "v": 73
    },
    {
      "midi": 62,
      "hit": false,
      "t": 136575.62100000112,
      "d": 94.69687499999418,
      "v": 85
    },
    {
      "midi": 62,
      "hit": false,
      "t": 137030.1660000011,
      "d": 56.81812499999069,
      "v": 85
    },
    {
      "midi": 53,
      "hit": false,
      "t": 137030.1660000011,
      "d": 75.75749999997788,
      "v": 85
    },
    {
      "midi": 58,
      "hit": false,
      "t": 137030.1660000011,
      "d": 75.75749999997788,
      "v": 89
    },
    {
      "midi": 51,
      "hit": false,
      "t": 137257.4385000011,
      "d": 454.5450000000128,
      "v": 97
    },
    {
      "midi": 58,
      "hit": false,
      "t": 137711.9835000011,
      "d": 170.45437500000116,
      "v": 85
    },
    {
      "midi": 63,
      "hit": false,
      "t": 137711.9835000011,
      "d": 189.39374999998836,
      "v": 81
    },
    {
      "midi": 55,
      "hit": false,
      "t": 137711.9835000011,
      "d": 208.33312499997555,
      "v": 85
    },
    {
      "midi": 62,
      "hit": false,
      "t": 137711.9835000011,
      "d": 208.33312499997555,
      "v": 93
    },
    {
      "midi": 51,
      "hit": false,
      "t": 137939.25600000107,
      "d": 56.81812499999069,
      "v": 85
    },
    {
      "midi": 62,
      "hit": false,
      "t": 138052.89225000105,
      "d": 37.87875000000349,
      "v": 89
    },
    {
      "midi": 63,
      "hit": false,
      "t": 138052.89225000105,
      "d": 37.87875000000349,
      "v": 69
    },
    {
      "midi": 55,
      "hit": false,
      "t": 138052.89225000105,
      "d": 56.81812499999069,
      "v": 81
    },
    {
      "midi": 58,
      "hit": false,
      "t": 138052.89225000105,
      "d": 56.81812499999069,
      "v": 77
    },
    {
      "midi": 48,
      "hit": false,
      "t": 138166.52850000103,
      "d": 227.27249999999185,
      "v": 101
    },
    {
      "midi": 60,
      "hit": false,
      "t": 138393.80100000103,
      "d": 56.81812499999069,
      "v": 89
    },
    {
      "midi": 63,
      "hit": false,
      "t": 138393.80100000103,
      "d": 56.81812499999069,
      "v": 97
    },
    {
      "midi": 67,
      "hit": false,
      "t": 138393.80100000103,
      "d": 56.81812499999069,
      "v": 85
    },
    {
      "midi": 63,
      "hit": false,
      "t": 138848.346000001,
      "d": 56.81812499999069,
      "v": 97
    },
    {
      "midi": 67,
      "hit": false,
      "t": 138848.346000001,
      "d": 56.81812499999069,
      "v": 89
    },
    {
      "midi": 60,
      "hit": false,
      "t": 138848.346000001,
      "d": 75.75749999997788,
      "v": 93
    },
    {
      "midi": 48,
      "hit": false,
      "t": 139075.618500001,
      "d": 435.6056249999965,
      "v": 109
    },
    {
      "midi": 60,
      "hit": false,
      "t": 139530.16350000098,
      "d": 189.39374999998836,
      "v": 97
    },
    {
      "midi": 63,
      "hit": false,
      "t": 139530.16350000098,
      "d": 189.39374999998836,
      "v": 105
    },
    {
      "midi": 67,
      "hit": false,
      "t": 139530.16350000098,
      "d": 189.39374999998836,
      "v": 93
    },
    {
      "midi": 48,
      "hit": false,
      "t": 139757.43600000098,
      "d": 56.81812499999069,
      "v": 85
    },
    {
      "midi": 67,
      "hit": false,
      "t": 139871.07225000096,
      "d": 37.87875000000349,
      "v": 65
    },
    {
      "midi": 60,
      "hit": false,
      "t": 139871.07225000096,
      "d": 56.81812499999069,
      "v": 85
    },
    {
      "midi": 63,
      "hit": false,
      "t": 139871.07225000096,
      "d": 56.81812499999069,
      "v": 85
    },
    {
      "midi": 47,
      "hit": false,
      "t": 139984.70850000094,
      "d": 246.21187499997905,
      "v": 97
    },
    {
      "midi": 59,
      "hit": false,
      "t": 140211.98100000093,
      "d": 56.81812499999069,
      "v": 93
    },
    {
      "midi": 63,
      "hit": false,
      "t": 140211.98100000093,
      "d": 56.81812499999069,
      "v": 101
    },
    {
      "midi": 67,
      "hit": false,
      "t": 140211.98100000093,
      "d": 56.81812499999069,
      "v": 89
    },
    {
      "midi": 63,
      "hit": false,
      "t": 140666.52600000091,
      "d": 56.81812499999069,
      "v": 101
    },
    {
      "midi": 67,
      "hit": false,
      "t": 140666.52600000091,
      "d": 56.81812499999069,
      "v": 85
    },
    {
      "midi": 59,
      "hit": false,
      "t": 140666.52600000091,
      "d": 75.75749999997788,
      "v": 85
    },
    {
      "midi": 47,
      "hit": false,
      "t": 140893.7985000009,
      "d": 454.5450000000128,
      "v": 113
    },
    {
      "midi": 59,
      "hit": false,
      "t": 141348.34350000092,
      "d": 189.39374999998836,
      "v": 93
    },
    {
      "midi": 63,
      "hit": false,
      "t": 141348.34350000092,
      "d": 189.39374999998836,
      "v": 101
    },
    {
      "midi": 67,
      "hit": false,
      "t": 141348.34350000092,
      "d": 189.39374999998836,
      "v": 93
    },
    {
      "midi": 47,
      "hit": false,
      "t": 141575.6160000009,
      "d": 56.81812499999069,
      "v": 85
    },
    {
      "midi": 63,
      "hit": false,
      "t": 141689.2522500009,
      "d": 56.81812499999069,
      "v": 85
    },
    {
      "midi": 67,
      "hit": false,
      "t": 141689.2522500009,
      "d": 56.81812499999069,
      "v": 77
    },
    {
      "midi": 59,
      "hit": false,
      "t": 141689.2522500009,
      "d": 75.75749999997788,
      "v": 81
    },
    {
      "midi": 46,
      "hit": false,
      "t": 141802.88850000087,
      "d": 265.15124999999534,
      "v": 109
    },
    {
      "midi": 58,
      "hit": false,
      "t": 142030.16100000087,
      "d": 75.75750000000698,
      "v": 89
    },
    {
      "midi": 62,
      "hit": false,
      "t": 142030.16100000087,
      "d": 94.69687499999418,
      "v": 93
    },
    {
      "midi": 65,
      "hit": false,
      "t": 142030.16100000087,
      "d": 94.69687499999418,
      "v": 93
    },
    {
      "midi": 58,
      "hit": false,
      "t": 142484.70600000085,
      "d": 75.75750000000698,
      "v": 85
    },
    {
      "midi": 62,
      "hit": false,
      "t": 142484.70600000085,
      "d": 75.75750000000698,
      "v": 105
    },
    {
      "midi": 65,
      "hit": false,
      "t": 142484.70600000085,
      "d": 75.75750000000698,
      "v": 101
    },
    {
      "midi": 44,
      "hit": false,
      "t": 142711.97850000087,
      "d": 454.5450000000128,
      "v": 113
    },
    {
      "midi": 56,
      "hit": false,
      "t": 143166.52350000088,
      "d": 208.33312500000466,
      "v": 97
    },
    {
      "midi": 60,
      "hit": false,
      "t": 143166.52350000088,
      "d": 227.27249999999185,
      "v": 101
    },
    {
      "midi": 63,
      "hit": false,
      "t": 143166.52350000088,
      "d": 227.27249999999185,
      "v": 109
    },
    {
      "midi": 44,
      "hit": false,
      "t": 143393.79600000088,
      "d": 18.939374999987194,
      "v": 89
    },
    {
      "midi": 56,
      "hit": false,
      "t": 143507.43225000086,
      "d": 56.81812499999069,
      "v": 77
    },
    {
      "midi": 60,
      "hit": false,
      "t": 143507.43225000086,
      "d": 56.81812499999069,
      "v": 89
    },
    {
      "midi": 63,
      "hit": false,
      "t": 143507.43225000086,
      "d": 56.81812499999069,
      "v": 89
    },
    {
      "midi": 44,
      "hit": false,
      "t": 143621.06850000084,
      "d": 208.33312500000466,
      "v": 105
    },
    {
      "midi": 60,
      "hit": false,
      "t": 143848.34100000083,
      "d": 113.63625000001048,
      "v": 97
    },
    {
      "midi": 56,
      "hit": false,
      "t": 143848.34100000083,
      "d": 132.57562499999767,
      "v": 93
    },
    {
      "midi": 63,
      "hit": false,
      "t": 143848.34100000083,
      "d": 132.57562499999767,
      "v": 89
    },
    {
      "midi": 66,
      "hit": false,
      "t": 143848.34100000083,
      "d": 132.57562499999767,
      "v": 85
    },
    {
      "midi": 63,
      "hit": false,
      "t": 144302.8860000008,
      "d": 75.75750000000698,
      "v": 65
    },
    {
      "midi": 66,
      "hit": false,
      "t": 144302.8860000008,
      "d": 75.75750000000698,
      "v": 81
    },
    {
      "midi": 56,
      "hit": false,
      "t": 144302.8860000008,
      "d": 94.69687499999418,
      "v": 81
    },
    {
      "midi": 60,
      "hit": false,
      "t": 144302.8860000008,
      "d": 94.69687499999418,
      "v": 81
    },
    {
      "midi": 43,
      "hit": false,
      "t": 144530.1585000008,
      "d": 435.6056249999965,
      "v": 105
    },
    {
      "midi": 55,
      "hit": false,
      "t": 144984.7035000008,
      "d": 208.33312500000466,
      "v": 97
    },
    {
      "midi": 67,
      "hit": false,
      "t": 144984.7035000008,
      "d": 208.33312500000466,
      "v": 85
    },
    {
      "midi": 60,
      "hit": false,
      "t": 144984.7035000008,
      "d": 227.27249999999185,
      "v": 105
    },
    {
      "midi": 62,
      "hit": false,
      "t": 144984.7035000008,
      "d": 227.27249999999185,
      "v": 105
    },
    {
      "midi": 55,
      "hit": false,
      "t": 145325.6122500008,
      "d": 56.81812499999069,
      "v": 89
    },
    {
      "midi": 60,
      "hit": false,
      "t": 145325.6122500008,
      "d": 56.81812499999069,
      "v": 97
    },
    {
      "midi": 62,
      "hit": false,
      "t": 145325.6122500008,
      "d": 56.81812499999069,
      "v": 101
    },
    {
      "midi": 67,
      "hit": false,
      "t": 145325.6122500008,
      "d": 56.81812499999069,
      "v": 77
    },
    {
      "midi": 53,
      "hit": false,
      "t": 145439.24850000077,
      "d": 246.21187499997905,
      "v": 97
    },
    {
      "midi": 68,
      "hit": false,
      "t": 145666.52100000076,
      "d": 37.87874999997439,
      "v": 93
    },
    {
      "midi": 60,
      "hit": false,
      "t": 145666.52100000076,
      "d": 56.81812499996158,
      "v": 97
    },
    {
      "midi": 63,
      "hit": false,
      "t": 145666.52100000076,
      "d": 56.81812499996158,
      "v": 101
    },
    {
      "midi": 65,
      "hit": false,
      "t": 145666.52100000076,
      "d": 56.81812499996158,
      "v": 105
    },
    {
      "midi": 68,
      "hit": false,
      "t": 146121.06600000072,
      "d": 37.87875000000349,
      "v": 89
    },
    {
      "midi": 65,
      "hit": false,
      "t": 146121.06600000072,
      "d": 56.81812499999069,
      "v": 101
    },
    {
      "midi": 60,
      "hit": false,
      "t": 146121.06600000072,
      "d": 75.75749999997788,
      "v": 93
    },
    {
      "midi": 63,
      "hit": false,
      "t": 146121.06600000072,
      "d": 75.75749999997788,
      "v": 97
    },
    {
      "midi": 46,
      "hit": false,
      "t": 146348.3385000007,
      "d": 454.5450000000128,
      "v": 117
    },
    {
      "midi": 65,
      "hit": false,
      "t": 146802.88350000072,
      "d": 189.39374999998836,
      "v": 89
    },
    {
      "midi": 68,
      "hit": false,
      "t": 146802.88350000072,
      "d": 189.39374999998836,
      "v": 101
    },
    {
      "midi": 58,
      "hit": false,
      "t": 146802.88350000072,
      "d": 208.33312499997555,
      "v": 101
    },
    {
      "midi": 62,
      "hit": false,
      "t": 146802.88350000072,
      "d": 208.33312499997555,
      "v": 97
    },
    {
      "midi": 46,
      "hit": false,
      "t": 147030.1560000007,
      "d": 56.81812499999069,
      "v": 93
    },
    {
      "midi": 62,
      "hit": false,
      "t": 147143.79225000067,
      "d": 56.81812499999069,
      "v": 85
    },
    {
      "midi": 68,
      "hit": false,
      "t": 147143.79225000067,
      "d": 56.81812499999069,
      "v": 77
    },
    {
      "midi": 58,
      "hit": false,
      "t": 147143.79225000067,
      "d": 75.75749999997788,
      "v": 77
    },
    {
      "midi": 51,
      "hit": false,
      "t": 147257.42850000065,
      "d": 265.15124999999534,
      "v": 105
    },
    {
      "midi": 58,
      "hit": false,
      "t": 147484.70100000064,
      "d": 75.75750000000698,
      "v": 77
    },
    {
      "midi": 62,
      "hit": false,
      "t": 147484.70100000064,
      "d": 75.75750000000698,
      "v": 93
    },
    {
      "midi": 63,
      "hit": false,
      "t": 147484.70100000064,
      "d": 75.75750000000698,
      "v": 73
    },
    {
      "midi": 67,
      "hit": false,
      "t": 147484.70100000064,
      "d": 75.75750000000698,
      "v": 81
    },
    {
      "midi": 58,
      "hit": false,
      "t": 147939.24600000065,
      "d": 75.75750000000698,
      "v": 93
    },
    {
      "midi": 62,
      "hit": false,
      "t": 147939.24600000065,
      "d": 75.75750000000698,
      "v": 93
    },
    {
      "midi": 63,
      "hit": false,
      "t": 147939.24600000065,
      "d": 75.75750000000698,
      "v": 89
    },
    {
      "midi": 67,
      "hit": false,
      "t": 147939.24600000065,
      "d": 75.75750000000698,
      "v": 85
    },
    {
      "midi": 44,
      "hit": false,
      "t": 148166.51850000067,
      "d": 473.484375,
      "v": 109
    },
    {
      "midi": 56,
      "hit": false,
      "t": 148621.0635000007,
      "d": 208.33312499997555,
      "v": 89
    },
    {
      "midi": 60,
      "hit": false,
      "t": 148621.0635000007,
      "d": 208.33312499997555,
      "v": 89
    },
    {
      "midi": 63,
      "hit": false,
      "t": 148621.0635000007,
      "d": 208.33312499997555,
      "v": 77
    },
    {
      "midi": 67,
      "hit": false,
      "t": 148621.0635000007,
      "d": 208.33312499997555,
      "v": 89
    },
    {
      "midi": 44,
      "hit": false,
      "t": 148848.33600000065,
      "d": 56.81812499999069,
      "v": 97
    },
    {
      "midi": 60,
      "hit": false,
      "t": 148961.97225000063,
      "d": 56.81812499999069,
      "v": 77
    },
    {
      "midi": 63,
      "hit": false,
      "t": 148961.97225000063,
      "d": 56.81812499999069,
      "v": 73
    },
    {
      "midi": 67,
      "hit": false,
      "t": 148961.97225000063,
      "d": 56.81812499999069,
      "v": 53
    },
    {
      "midi": 56,
      "hit": false,
      "t": 148961.97225000063,
      "d": 75.75749999997788,
      "v": 69
    },
    {
      "midi": 41,
      "hit": false,
      "t": 149075.6085000006,
      "d": 284.09062499998254,
      "v": 85
    },
    {
      "midi": 56,
      "hit": false,
      "t": 149302.8810000006,
      "d": 75.75749999997788,
      "v": 77
    },
    {
      "midi": 60,
      "hit": false,
      "t": 149302.8810000006,
      "d": 94.69687499996508,
      "v": 89
    },
    {
      "midi": 62,
      "hit": false,
      "t": 149302.8810000006,
      "d": 94.69687499996508,
      "v": 89
    },
    {
      "midi": 65,
      "hit": false,
      "t": 149302.8810000006,
      "d": 94.69687499996508,
      "v": 85
    },
    {
      "midi": 60,
      "hit": false,
      "t": 149757.42600000056,
      "d": 94.69687499999418,
      "v": 81
    },
    {
      "midi": 62,
      "hit": false,
      "t": 149757.42600000056,
      "d": 94.69687499999418,
      "v": 77
    },
    {
      "midi": 65,
      "hit": false,
      "t": 149757.42600000056,
      "d": 94.69687499999418,
      "v": 81
    },
    {
      "midi": 56,
      "hit": false,
      "t": 149757.42600000056,
      "d": 113.63624999998137,
      "v": 77
    },
    {
      "midi": 50,
      "hit": false,
      "t": 149984.69850000055,
      "d": 454.5450000000128,
      "v": 109
    },
    {
      "midi": 56,
      "hit": false,
      "t": 150439.24350000056,
      "d": 189.39374999998836,
      "v": 85
    },
    {
      "midi": 65,
      "hit": false,
      "t": 150439.24350000056,
      "d": 189.39374999998836,
      "v": 89
    },
    {
      "midi": 60,
      "hit": false,
      "t": 150439.24350000056,
      "d": 208.33312499997555,
      "v": 93
    },
    {
      "midi": 50,
      "hit": false,
      "t": 150666.51600000053,
      "d": 75.75750000000698,
      "v": 85
    },
    {
      "midi": 60,
      "hit": false,
      "t": 150780.15225000054,
      "d": 37.87875000000349,
      "v": 61
    },
    {
      "midi": 56,
      "hit": false,
      "t": 150780.15225000054,
      "d": 56.81812499999069,
      "v": 69
    },
    {
      "midi": 65,
      "hit": false,
      "t": 150780.15225000054,
      "d": 56.81812499999069,
      "v": 81
    },
    {
      "midi": 46,
      "hit": false,
      "t": 150893.78850000052,
      "d": 246.21187499997905,
      "v": 105
    },
    {
      "midi": 58,
      "hit": false,
      "t": 151121.0610000005,
      "d": 75.75749999997788,
      "v": 81
    },
    {
      "midi": 53,
      "hit": false,
      "t": 151121.0610000005,
      "d": 94.69687499996508,
      "v": 85
    },
    {
      "midi": 62,
      "hit": false,
      "t": 151121.0610000005,
      "d": 94.69687499996508,
      "v": 89
    },
    {
      "midi": 62,
      "hit": false,
      "t": 151575.60600000047,
      "d": 56.81812499999069,
      "v": 85
    },
    {
      "midi": 53,
      "hit": false,
      "t": 151575.60600000047,
      "d": 75.75749999997788,
      "v": 85
    },
    {
      "midi": 58,
      "hit": false,
      "t": 151575.60600000047,
      "d": 75.75749999997788,
      "v": 81
    },
    {
      "midi": 51,
      "hit": false,
      "t": 151802.87850000046,
      "d": 435.6056249999965,
      "v": 101
    },
    {
      "midi": 62,
      "hit": false,
      "t": 152257.42350000044,
      "d": 265.15124999999534,
      "v": 101
    },
    {
      "midi": 63,
      "hit": false,
      "t": 152257.42350000044,
      "d": 265.15124999999534,
      "v": 81
    },
    {
      "midi": 55,
      "hit": false,
      "t": 152257.42350000044,
      "d": 284.09062499998254,
      "v": 89
    },
    {
      "midi": 58,
      "hit": false,
      "t": 152257.42350000044,
      "d": 284.09062499998254,
      "v": 93
    },
    {
      "midi": 48,
      "hit": false,
      "t": 152711.96850000042,
      "d": 246.21187499997905,
      "v": 73
    },
    {
      "midi": 63,
      "hit": false,
      "t": 152939.24100000042,
      "d": 56.81812499999069,
      "v": 93
    },
    {
      "midi": 67,
      "hit": false,
      "t": 152939.24100000042,
      "d": 56.81812499999069,
      "v": 77
    },
    {
      "midi": 60,
      "hit": false,
      "t": 152939.24100000042,
      "d": 75.75749999997788,
      "v": 85
    },
    {
      "midi": 67,
      "hit": false,
      "t": 153393.7860000004,
      "d": 37.87875000000349,
      "v": 69
    },
    {
      "midi": 60,
      "hit": false,
      "t": 153393.7860000004,
      "d": 56.81812499999069,
      "v": 81
    },
    {
      "midi": 63,
      "hit": false,
      "t": 153393.7860000004,
      "d": 56.81812499999069,
      "v": 93
    },
    {
      "midi": 48,
      "hit": false,
      "t": 153621.0585000004,
      "d": 492.4237500000163,
      "v": 85
    },
    {
      "midi": 67,
      "hit": false,
      "t": 154075.6035000004,
      "d": 170.45437500000116,
      "v": 85
    },
    {
      "midi": 60,
      "hit": false,
      "t": 154075.6035000004,
      "d": 189.39374999998836,
      "v": 89
    },
    {
      "midi": 63,
      "hit": false,
      "t": 154075.6035000004,
      "d": 189.39374999998836,
      "v": 97
    },
    {
      "midi": 48,
      "hit": false,
      "t": 154302.8760000004,
      "d": 94.69687499999418,
      "v": 61
    },
    {
      "midi": 60,
      "hit": false,
      "t": 154416.51225000038,
      "d": 56.81812499999069,
      "v": 81
    },
    {
      "midi": 63,
      "hit": false,
      "t": 154416.51225000038,
      "d": 56.81812499999069,
      "v": 89
    },
    {
      "midi": 67,
      "hit": false,
      "t": 154416.51225000038,
      "d": 56.81812499999069,
      "v": 81
    },
    {
      "midi": 52,
      "hit": false,
      "t": 154530.14850000036,
      "d": 852.2718749999767,
      "v": 101
    },
    {
      "midi": 64,
      "hit": false,
      "t": 154757.42100000035,
      "d": 56.81812499999069,
      "v": 97
    },
    {
      "midi": 67,
      "hit": false,
      "t": 154757.42100000035,
      "d": 56.81812499999069,
      "v": 85
    },
    {
      "midi": 60,
      "hit": false,
      "t": 154757.42100000035,
      "d": 75.75749999997788,
      "v": 81
    },
    {
      "midi": 60,
      "hit": false,
      "t": 155211.96600000034,
      "d": 75.75750000000698,
      "v": 85
    },
    {
      "midi": 64,
      "hit": false,
      "t": 155211.96600000034,
      "d": 75.75750000000698,
      "v": 101
    },
    {
      "midi": 67,
      "hit": false,
      "t": 155211.96600000034,
      "d": 75.75750000000698,
      "v": 89
    },
    {
      "midi": 53,
      "hit": false,
      "t": 155439.23850000033,
      "d": 511.3631250000035,
      "v": 101
    },
    {
      "midi": 60,
      "hit": false,
      "t": 155893.78350000034,
      "d": 208.33312500000466,
      "v": 89
    },
    {
      "midi": 65,
      "hit": false,
      "t": 155893.78350000034,
      "d": 208.33312500000466,
      "v": 101
    },
    {
      "midi": 68,
      "hit": false,
      "t": 155893.78350000034,
      "d": 208.33312500000466,
      "v": 85
    },
    {
      "midi": 53,
      "hit": false,
      "t": 156121.05600000033,
      "d": 151.51500000001397,
      "v": 81
    },
    {
      "midi": 60,
      "hit": false,
      "t": 156234.69225000034,
      "d": 75.75750000000698,
      "v": 81
    },
    {
      "midi": 65,
      "hit": false,
      "t": 156234.69225000034,
      "d": 75.75750000000698,
      "v": 93
    },
    {
      "midi": 46,
      "hit": false,
      "t": 156348.32850000035,
      "d": 340.9087499999732,
      "v": 81
    },
    {
      "midi": 58,
      "hit": false,
      "t": 156575.60100000034,
      "d": 94.69687499999418,
      "v": 81
    },
    {
      "midi": 62,
      "hit": false,
      "t": 156575.60100000034,
      "d": 94.69687499999418,
      "v": 89
    },
    {
      "midi": 65,
      "hit": false,
      "t": 156575.60100000034,
      "d": 94.69687499999418,
      "v": 89
    },
    {
      "midi": 68,
      "hit": false,
      "t": 156575.60100000034,
      "d": 94.69687499999418,
      "v": 77
    },
    {
      "midi": 65,
      "hit": false,
      "t": 157030.14600000033,
      "d": 56.81812499999069,
      "v": 81
    },
    {
      "midi": 58,
      "hit": false,
      "t": 157030.14600000033,
      "d": 94.69687499999418,
      "v": 85
    },
    {
      "midi": 68,
      "hit": false,
      "t": 157030.14600000033,
      "d": 94.69687499999418,
      "v": 85
    },
    {
      "midi": 62,
      "hit": false,
      "t": 157030.14600000033,
      "d": 113.63624999998137,
      "v": 93
    },
    {
      "midi": 46,
      "hit": false,
      "t": 157257.41850000032,
      "d": 435.6056249999965,
      "v": 97
    },
    {
      "midi": 65,
      "hit": false,
      "t": 157711.9635000003,
      "d": 208.33312500000466,
      "v": 89
    },
    {
      "midi": 62,
      "hit": false,
      "t": 157711.9635000003,
      "d": 227.27249999999185,
      "v": 97
    },
    {
      "midi": 68,
      "hit": false,
      "t": 157711.9635000003,
      "d": 227.27249999999185,
      "v": 81
    },
    {
      "midi": 58,
      "hit": false,
      "t": 157711.9635000003,
      "d": 246.21187499997905,
      "v": 85
    },
    {
      "midi": 46,
      "hit": false,
      "t": 157939.2360000003,
      "d": 113.63624999998137,
      "v": 77
    },
    {
      "midi": 65,
      "hit": false,
      "t": 158052.87225000028,
      "d": 56.81812499999069,
      "v": 69
    },
    {
      "midi": 62,
      "hit": false,
      "t": 158052.87225000028,
      "d": 75.75749999997788,
      "v": 69
    },
    {
      "midi": 58,
      "hit": false,
      "t": 158052.87225000028,
      "d": 94.69687499996508,
      "v": 65
    },
    {
      "midi": 51,
      "hit": false,
      "t": 158166.50850000023,
      "d": 303.02999999999884,
      "v": 97
    },
    {
      "midi": 58,
      "hit": false,
      "t": 158393.78100000022,
      "d": 94.69687499999418,
      "v": 69
    },
    {
      "midi": 62,
      "hit": false,
      "t": 158393.78100000022,
      "d": 94.69687499999418,
      "v": 89
    },
    {
      "midi": 63,
      "hit": false,
      "t": 158393.78100000022,
      "d": 94.69687499999418,
      "v": 73
    },
    {
      "midi": 67,
      "hit": false,
      "t": 158393.78100000022,
      "d": 94.69687499999418,
      "v": 81
    },
    {
      "midi": 58,
      "hit": false,
      "t": 158848.3260000002,
      "d": 75.75750000000698,
      "v": 81
    },
    {
      "midi": 62,
      "hit": false,
      "t": 158848.3260000002,
      "d": 75.75750000000698,
      "v": 93
    },
    {
      "midi": 63,
      "hit": false,
      "t": 158848.3260000002,
      "d": 75.75750000000698,
      "v": 77
    },
    {
      "midi": 67,
      "hit": false,
      "t": 158848.3260000002,
      "d": 75.75750000000698,
      "v": 77
    },
    {
      "midi": 51,
      "hit": false,
      "t": 159075.59850000023,
      "d": 454.5450000000128,
      "v": 97
    },
    {
      "midi": 58,
      "hit": false,
      "t": 159530.14350000024,
      "d": 170.45437500000116,
      "v": 77
    },
    {
      "midi": 67,
      "hit": false,
      "t": 159530.14350000024,
      "d": 170.45437500000116,
      "v": 81
    },
    {
      "midi": 62,
      "hit": false,
      "t": 159530.14350000024,
      "d": 189.39374999998836,
      "v": 97
    },
    {
      "midi": 63,
      "hit": false,
      "t": 159530.14350000024,
      "d": 189.39374999998836,
      "v": 77
    },
    {
      "midi": 51,
      "hit": false,
      "t": 159757.41600000023,
      "d": 113.63625000001048,
      "v": 81
    },
    {
      "midi": 62,
      "hit": false,
      "t": 159871.05225000024,
      "d": 56.81812499999069,
      "v": 61
    },
    {
      "midi": 63,
      "hit": false,
      "t": 159871.05225000024,
      "d": 56.81812499999069,
      "v": 41
    },
    {
      "midi": 58,
      "hit": false,
      "t": 159871.05225000024,
      "d": 75.75749999997788,
      "v": 57
    },
    {
      "midi": 43,
      "hit": false,
      "t": 159984.68850000022,
      "d": 303.02999999996973,
      "v": 89
    },
    {
      "midi": 62,
      "hit": false,
      "t": 160211.9610000002,
      "d": 56.81812499999069,
      "v": 85
    },
    {
      "midi": 55,
      "hit": false,
      "t": 160211.9610000002,
      "d": 75.75749999997788,
      "v": 81
    },
    {
      "midi": 58,
      "hit": false,
      "t": 160211.9610000002,
      "d": 75.75749999997788,
      "v": 85
    },
    {
      "midi": 58,
      "hit": false,
      "t": 160666.5060000002,
      "d": 56.81812499999069,
      "v": 89
    },
    {
      "midi": 62,
      "hit": false,
      "t": 160666.5060000002,
      "d": 56.81812499999069,
      "v": 85
    },
    {
      "midi": 55,
      "hit": false,
      "t": 160666.5060000002,
      "d": 75.75749999997788,
      "v": 81
    },
    {
      "midi": 43,
      "hit": false,
      "t": 160893.7785000002,
      "d": 416.6662500000093,
      "v": 77
    },
    {
      "midi": 55,
      "hit": false,
      "t": 161348.3235000002,
      "d": 227.27249999999185,
      "v": 89
    },
    {
      "midi": 58,
      "hit": false,
      "t": 161348.3235000002,
      "d": 227.27249999999185,
      "v": 97
    },
    {
      "midi": 62,
      "hit": false,
      "t": 161348.3235000002,
      "d": 227.27249999999185,
      "v": 93
    },
    {
      "midi": 65,
      "hit": false,
      "t": 161348.3235000002,
      "d": 227.27249999999185,
      "v": 93
    },
    {
      "midi": 43,
      "hit": false,
      "t": 161575.5960000002,
      "d": 56.81812499999069,
      "v": 57
    },
    {
      "midi": 58,
      "hit": false,
      "t": 161689.23225000018,
      "d": 56.81812499999069,
      "v": 81
    },
    {
      "midi": 62,
      "hit": false,
      "t": 161689.23225000018,
      "d": 56.81812499999069,
      "v": 77
    },
    {
      "midi": 65,
      "hit": false,
      "t": 161689.23225000018,
      "d": 56.81812499999069,
      "v": 77
    },
    {
      "midi": 55,
      "hit": false,
      "t": 161689.23225000018,
      "d": 94.69687499999418,
      "v": 89
    },
    {
      "midi": 44,
      "hit": false,
      "t": 161802.86850000016,
      "d": 265.15124999999534,
      "v": 101
    },
    {
      "midi": 60,
      "hit": false,
      "t": 162030.14100000015,
      "d": 75.75750000000698,
      "v": 85
    },
    {
      "midi": 63,
      "hit": false,
      "t": 162030.14100000015,
      "d": 75.75750000000698,
      "v": 85
    },
    {
      "midi": 56,
      "hit": false,
      "t": 162030.14100000015,
      "d": 94.69687499999418,
      "v": 73
    },
    {
      "midi": 56,
      "hit": false,
      "t": 162484.68600000013,
      "d": 56.81812499999069,
      "v": 81
    },
    {
      "midi": 60,
      "hit": false,
      "t": 162484.68600000013,
      "d": 56.81812499999069,
      "v": 105
    },
    {
      "midi": 63,
      "hit": false,
      "t": 162484.68600000013,
      "d": 56.81812499999069,
      "v": 101
    },
    {
      "midi": 44,
      "hit": false,
      "t": 162711.95850000012,
      "d": 454.5450000000128,
      "v": 109
    },
    {
      "midi": 56,
      "hit": false,
      "t": 163166.50350000014,
      "d": 189.39374999998836,
      "v": 97
    },
    {
      "midi": 60,
      "hit": false,
      "t": 163166.50350000014,
      "d": 208.33312499997555,
      "v": 101
    },
    {
      "midi": 63,
      "hit": false,
      "t": 163166.50350000014,
      "d": 208.33312499997555,
      "v": 109
    },
    {
      "midi": 67,
      "hit": false,
      "t": 163166.50350000014,
      "d": 208.33312499997555,
      "v": 97
    },
    {
      "midi": 44,
      "hit": false,
      "t": 163393.7760000001,
      "d": 37.87875000000349,
      "v": 89
    },
    {
      "midi": 56,
      "hit": false,
      "t": 163507.4122500001,
      "d": 56.81812499999069,
      "v": 77
    },
    {
      "midi": 60,
      "hit": false,
      "t": 163507.4122500001,
      "d": 56.81812499999069,
      "v": 81
    },
    {
      "midi": 63,
      "hit": false,
      "t": 163507.4122500001,
      "d": 56.81812499999069,
      "v": 77
    },
    {
      "midi": 67,
      "hit": false,
      "t": 163507.4122500001,
      "d": 56.81812499999069,
      "v": 77
    },
    {
      "midi": 46,
      "hit": false,
      "t": 163621.0485000001,
      "d": 265.15124999999534,
      "v": 97
    },
    {
      "midi": 58,
      "hit": false,
      "t": 163848.32100000008,
      "d": 56.81812499999069,
      "v": 61
    },
    {
      "midi": 62,
      "hit": false,
      "t": 163848.32100000008,
      "d": 75.75749999997788,
      "v": 85
    },
    {
      "midi": 65,
      "hit": false,
      "t": 163848.32100000008,
      "d": 75.75749999997788,
      "v": 77
    },
    {
      "midi": 58,
      "hit": false,
      "t": 164302.86600000007,
      "d": 56.81812499999069,
      "v": 81
    },
    {
      "midi": 62,
      "hit": false,
      "t": 164302.86600000007,
      "d": 56.81812499999069,
      "v": 93
    },
    {
      "midi": 65,
      "hit": false,
      "t": 164302.86600000007,
      "d": 56.81812499999069,
      "v": 85
    },
    {
      "midi": 46,
      "hit": false,
      "t": 164530.13850000006,
      "d": 416.6662500000093,
      "v": 109
    },
    {
      "midi": 65,
      "hit": false,
      "t": 164984.68350000007,
      "d": 208.33312500000466,
      "v": 81
    },
    {
      "midi": 58,
      "hit": false,
      "t": 164984.68350000007,
      "d": 227.27249999999185,
      "v": 101
    },
    {
      "midi": 62,
      "hit": false,
      "t": 164984.68350000007,
      "d": 227.27249999999185,
      "v": 105
    },
    {
      "midi": 68,
      "hit": false,
      "t": 164984.68350000007,
      "d": 227.27249999999185,
      "v": 97
    },
    {
      "midi": 46,
      "hit": false,
      "t": 165211.95600000006,
      "d": 18.939374999987194,
      "v": 89
    },
    {
      "midi": 58,
      "hit": false,
      "t": 165325.59225000005,
      "d": 56.81812499999069,
      "v": 69
    },
    {
      "midi": 62,
      "hit": false,
      "t": 165325.59225000005,
      "d": 56.81812499999069,
      "v": 73
    },
    {
      "midi": 68,
      "hit": false,
      "t": 165325.59225000005,
      "d": 56.81812499999069,
      "v": 65
    },
    {
      "midi": 46,
      "hit": false,
      "t": 165439.22850000003,
      "d": 208.33312500000466,
      "v": 93
    },
    {
      "midi": 65,
      "hit": false,
      "t": 165666.50100000002,
      "d": 56.81812499999069,
      "v": 77
    },
    {
      "midi": 58,
      "hit": false,
      "t": 165666.50100000002,
      "d": 94.69687499999418,
      "v": 81
    },
    {
      "midi": 62,
      "hit": false,
      "t": 165666.50100000002,
      "d": 113.63624999998137,
      "v": 93
    },
    {
      "midi": 68,
      "hit": false,
      "t": 165666.50100000002,
      "d": 113.63624999998137,
      "v": 81
    },
    {
      "midi": 62,
      "hit": false,
      "t": 166007.40975,
      "d": 75.75750000000698,
      "v": 97
    },
    {
      "midi": 58,
      "hit": false,
      "t": 166007.40975,
      "d": 94.69687499999418,
      "v": 89
    },
    {
      "midi": 68,
      "hit": false,
      "t": 166007.40975,
      "d": 94.69687499999418,
      "v": 69
    },
    {
      "midi": 51,
      "hit": false,
      "t": 166348.3185,
      "d": 511.3631250000035,
      "v": 97
    },
    {
      "midi": 55,
      "hit": false,
      "t": 166802.8635,
      "d": 416.6662499999802,
      "v": 89
    },
    {
      "midi": 58,
      "hit": false,
      "t": 166802.8635,
      "d": 435.6056249999674,
      "v": 89
    },
    {
      "midi": 62,
      "hit": false,
      "t": 166802.8635,
      "d": 435.6056249999674,
      "v": 97
    },
    {
      "midi": 63,
      "hit": false,
      "t": 166802.8635,
      "d": 435.6056249999674,
      "v": 81
    },
    {
      "midi": 48,
      "hit": false,
      "t": 167257.40849999996,
      "d": 265.15124999999534,
      "v": 93
    },
    {
      "midi": 60,
      "hit": false,
      "t": 167484.68099999995,
      "d": 56.81812499999069,
      "v": 81
    },
    {
      "midi": 63,
      "hit": false,
      "t": 167484.68099999995,
      "d": 56.81812499999069,
      "v": 81
    },
    {
      "midi": 67,
      "hit": false,
      "t": 167484.68099999995,
      "d": 56.81812499999069,
      "v": 77
    },
    {
      "midi": 63,
      "hit": false,
      "t": 167939.22599999994,
      "d": 37.87875000000349,
      "v": 97
    },
    {
      "midi": 67,
      "hit": false,
      "t": 167939.22599999994,
      "d": 37.87875000000349,
      "v": 89
    },
    {
      "midi": 60,
      "hit": false,
      "t": 167939.22599999994,
      "d": 56.81812499999069,
      "v": 89
    },
    {
      "midi": 48,
      "hit": false,
      "t": 168166.49849999993,
      "d": 473.484375,
      "v": 93
    },
    {
      "midi": 67,
      "hit": false,
      "t": 168621.04349999994,
      "d": 189.39374999998836,
      "v": 93
    },
    {
      "midi": 60,
      "hit": false,
      "t": 168621.04349999994,
      "d": 208.33312499997555,
      "v": 89
    },
    {
      "midi": 63,
      "hit": false,
      "t": 168621.04349999994,
      "d": 208.33312499997555,
      "v": 97
    },
    {
      "midi": 48,
      "hit": false,
      "t": 168848.3159999999,
      "d": 75.75750000000698,
      "v": 65
    },
    {
      "midi": 67,
      "hit": false,
      "t": 168961.95224999991,
      "d": 56.81812499999069,
      "v": 81
    },
    {
      "midi": 60,
      "hit": false,
      "t": 168961.95224999991,
      "d": 75.75749999997788,
      "v": 77
    },
    {
      "midi": 63,
      "hit": false,
      "t": 168961.95224999991,
      "d": 75.75749999997788,
      "v": 81
    },
    {
      "midi": 52,
      "hit": false,
      "t": 169075.5884999999,
      "d": 776.5143749999697,
      "v": 101
    },
    {
      "midi": 64,
      "hit": false,
      "t": 169302.8609999999,
      "d": 56.81812499999069,
      "v": 101
    },
    {
      "midi": 67,
      "hit": false,
      "t": 169302.8609999999,
      "d": 56.81812499999069,
      "v": 85
    },
    {
      "midi": 60,
      "hit": false,
      "t": 169302.8609999999,
      "d": 75.75749999997788,
      "v": 89
    },
    {
      "midi": 60,
      "hit": false,
      "t": 169757.40599999987,
      "d": 75.75750000000698,
      "v": 89
    },
    {
      "midi": 64,
      "hit": false,
      "t": 169757.40599999987,
      "d": 75.75750000000698,
      "v": 101
    },
    {
      "midi": 67,
      "hit": false,
      "t": 169757.40599999987,
      "d": 75.75750000000698,
      "v": 89
    },
    {
      "midi": 53,
      "hit": false,
      "t": 169984.67849999986,
      "d": 473.484375,
      "v": 101
    },
    {
      "midi": 68,
      "hit": false,
      "t": 170439.22349999988,
      "d": 170.45437500000116,
      "v": 97
    },
    {
      "midi": 65,
      "hit": false,
      "t": 170439.22349999988,
      "d": 189.39374999998836,
      "v": 109
    },
    {
      "midi": 60,
      "hit": false,
      "t": 170439.22349999988,
      "d": 208.33312499997555,
      "v": 93
    },
    {
      "midi": 53,
      "hit": false,
      "t": 170666.49599999984,
      "d": 132.57562499999767,
      "v": 85
    },
    {
      "midi": 65,
      "hit": false,
      "t": 170780.13224999985,
      "d": 56.81812499999069,
      "v": 85
    },
    {
      "midi": 68,
      "hit": false,
      "t": 170780.13224999985,
      "d": 56.81812499999069,
      "v": 77
    },
    {
      "midi": 60,
      "hit": false,
      "t": 170780.13224999985,
      "d": 75.75749999997788,
      "v": 81
    },
    {
      "midi": 46,
      "hit": false,
      "t": 170893.76849999983,
      "d": 321.96937499998603,
      "v": 85
    },
    {
      "midi": 58,
      "hit": false,
      "t": 171121.04099999982,
      "d": 94.69687499999418,
      "v": 85
    },
    {
      "midi": 65,
      "hit": false,
      "t": 171121.04099999982,
      "d": 94.69687499999418,
      "v": 85
    },
    {
      "midi": 68,
      "hit": false,
      "t": 171121.04099999982,
      "d": 94.69687499999418,
      "v": 69
    },
    {
      "midi": 62,
      "hit": false,
      "t": 171121.04099999982,
      "d": 113.63624999998137,
      "v": 93
    },
    {
      "midi": 68,
      "hit": false,
      "t": 171575.5859999998,
      "d": 56.81812499999069,
      "v": 89
    },
    {
      "midi": 62,
      "hit": false,
      "t": 171575.5859999998,
      "d": 75.75749999997788,
      "v": 85
    },
    {
      "midi": 65,
      "hit": false,
      "t": 171575.5859999998,
      "d": 75.75749999997788,
      "v": 81
    },
    {
      "midi": 58,
      "hit": false,
      "t": 171575.5859999998,
      "d": 94.69687499996508,
      "v": 85
    },
    {
      "midi": 46,
      "hit": false,
      "t": 171802.85849999977,
      "d": 454.5450000000128,
      "v": 101
    },
    {
      "midi": 62,
      "hit": false,
      "t": 172257.40349999978,
      "d": 189.39374999998836,
      "v": 89
    },
    {
      "midi": 65,
      "hit": false,
      "t": 172257.40349999978,
      "d": 189.39374999998836,
      "v": 81
    },
    {
      "midi": 68,
      "hit": false,
      "t": 172257.40349999978,
      "d": 189.39374999998836,
      "v": 93
    },
    {
      "midi": 58,
      "hit": false,
      "t": 172257.40349999978,
      "d": 208.33312499997555,
      "v": 89
    },
    {
      "midi": 46,
      "hit": false,
      "t": 172484.67599999974,
      "d": 132.57562499999767,
      "v": 73
    },
    {
      "midi": 58,
      "hit": false,
      "t": 172598.31224999976,
      "d": 132.57562499996857,
      "v": 69
    },
    {
      "midi": 51,
      "hit": false,
      "t": 172711.94849999974,
      "d": 284.09062499998254,
      "v": 101
    },
    {
      "midi": 62,
      "hit": false,
      "t": 172939.22099999973,
      "d": 56.81812499999069,
      "v": 89
    },
    {
      "midi": 63,
      "hit": false,
      "t": 172939.22099999973,
      "d": 56.81812499999069,
      "v": 81
    },
    {
      "midi": 58,
      "hit": false,
      "t": 172939.22099999973,
      "d": 75.75749999997788,
      "v": 73
    },
    {
      "midi": 67,
      "hit": false,
      "t": 172939.22099999973,
      "d": 75.75749999997788,
      "v": 81
    },
    {
      "midi": 62,
      "hit": false,
      "t": 173393.7659999997,
      "d": 75.75750000000698,
      "v": 89
    },
    {
      "midi": 63,
      "hit": false,
      "t": 173393.7659999997,
      "d": 75.75750000000698,
      "v": 81
    },
    {
      "midi": 67,
      "hit": false,
      "t": 173393.7659999997,
      "d": 75.75750000000698,
      "v": 77
    },
    {
      "midi": 58,
      "hit": false,
      "t": 173393.7659999997,
      "d": 94.69687499999418,
      "v": 81
    },
    {
      "midi": 51,
      "hit": false,
      "t": 173621.0384999997,
      "d": 469.69650000002,
      "v": 97
    },
    {
      "midi": 58,
      "hit": false,
      "t": 174075.58349999972,
      "d": 208.33312500000466,
      "v": 89
    },
    {
      "midi": 62,
      "hit": false,
      "t": 174075.58349999972,
      "d": 208.33312500000466,
      "v": 93
    },
    {
      "midi": 63,
      "hit": false,
      "t": 174075.58349999972,
      "d": 208.33312500000466,
      "v": 85
    },
    {
      "midi": 67,
      "hit": false,
      "t": 174075.58349999972,
      "d": 208.33312500000466,
      "v": 89
    },
    {
      "midi": 51,
      "hit": false,
      "t": 174302.8559999997,
      "d": 113.63625000001048,
      "v": 93
    },
    {
      "midi": 62,
      "hit": false,
      "t": 174416.49224999972,
      "d": 56.81812499999069,
      "v": 77
    },
    {
      "midi": 58,
      "hit": false,
      "t": 174416.49224999972,
      "d": 75.75749999997788,
      "v": 57
    },
    {
      "midi": 63,
      "hit": false,
      "t": 174416.49224999972,
      "d": 75.75749999997788,
      "v": 61
    },
    {
      "midi": 44,
      "hit": false,
      "t": 174530.1284999997,
      "d": 18.939374999987194,
      "v": 109
    },
    {
      "midi": 43,
      "hit": false,
      "t": 174530.1284999997,
      "d": 284.09062499998254,
      "v": 85
    },
    {
      "midi": 55,
      "hit": false,
      "t": 174757.4009999997,
      "d": 56.81812499999069,
      "v": 85
    },
    {
      "midi": 58,
      "hit": false,
      "t": 174757.4009999997,
      "d": 56.81812499999069,
      "v": 77
    },
    {
      "midi": 62,
      "hit": false,
      "t": 174757.4009999997,
      "d": 56.81812499999069,
      "v": 85
    },
    {
      "midi": 65,
      "hit": false,
      "t": 174757.4009999997,
      "d": 56.81812499999069,
      "v": 73
    },
    {
      "midi": 58,
      "hit": false,
      "t": 175211.94599999968,
      "d": 37.87875000000349,
      "v": 85
    },
    {
      "midi": 65,
      "hit": false,
      "t": 175211.94599999968,
      "d": 37.87875000000349,
      "v": 77
    },
    {
      "midi": 55,
      "hit": false,
      "t": 175211.94599999968,
      "d": 56.81812499999069,
      "v": 89
    },
    {
      "midi": 62,
      "hit": false,
      "t": 175211.94599999968,
      "d": 56.81812499999069,
      "v": 89
    },
    {
      "midi": 43,
      "hit": false,
      "t": 175439.21849999967,
      "d": 435.6056249999965,
      "v": 105
    },
    {
      "midi": 67,
      "hit": false,
      "t": 175893.76349999965,
      "d": 151.51500000001397,
      "v": 69
    },
    {
      "midi": 65,
      "hit": false,
      "t": 175893.76349999965,
      "d": 170.45437500000116,
      "v": 73
    },
    {
      "midi": 55,
      "hit": false,
      "t": 175893.76349999965,
      "d": 208.33312500000466,
      "v": 93
    },
    {
      "midi": 58,
      "hit": false,
      "t": 175893.76349999965,
      "d": 208.33312500000466,
      "v": 93
    },
    {
      "midi": 62,
      "hit": false,
      "t": 175893.76349999965,
      "d": 208.33312500000466,
      "v": 101
    },
    {
      "midi": 43,
      "hit": false,
      "t": 176121.03599999964,
      "d": 56.81812499999069,
      "v": 73
    },
    {
      "midi": 58,
      "hit": false,
      "t": 176234.67224999962,
      "d": 56.81812499999069,
      "v": 85
    },
    {
      "midi": 62,
      "hit": false,
      "t": 176234.67224999962,
      "d": 56.81812499999069,
      "v": 89
    },
    {
      "midi": 55,
      "hit": false,
      "t": 176234.67224999962,
      "d": 75.75749999997788,
      "v": 85
    },
    {
      "midi": 44,
      "hit": false,
      "t": 176348.3084999996,
      "d": 265.15124999999534,
      "v": 89
    },
    {
      "midi": 56,
      "hit": false,
      "t": 176575.5809999996,
      "d": 75.75750000000698,
      "v": 89
    },
    {
      "midi": 60,
      "hit": false,
      "t": 176575.5809999996,
      "d": 75.75750000000698,
      "v": 93
    },
    {
      "midi": 63,
      "hit": false,
      "t": 176575.5809999996,
      "d": 75.75750000000698,
      "v": 101
    },
    {
      "midi": 56,
      "hit": false,
      "t": 177030.1259999996,
      "d": 56.81812499999069,
      "v": 85
    },
    {
      "midi": 60,
      "hit": false,
      "t": 177030.1259999996,
      "d": 56.81812499999069,
      "v": 97
    },
    {
      "midi": 63,
      "hit": false,
      "t": 177030.1259999996,
      "d": 56.81812499999069,
      "v": 97
    },
    {
      "midi": 44,
      "hit": false,
      "t": 177257.3984999996,
      "d": 473.484375,
      "v": 105
    },
    {
      "midi": 56,
      "hit": false,
      "t": 177711.94349999962,
      "d": 189.39374999998836,
      "v": 97
    },
    {
      "midi": 63,
      "hit": false,
      "t": 177711.94349999962,
      "d": 189.39374999998836,
      "v": 109
    },
    {
      "midi": 67,
      "hit": false,
      "t": 177711.94349999962,
      "d": 189.39374999998836,
      "v": 97
    },
    {
      "midi": 60,
      "hit": false,
      "t": 177711.94349999962,
      "d": 208.33312499997555,
      "v": 105
    },
    {
      "midi": 44,
      "hit": false,
      "t": 177939.21599999958,
      "d": 56.81812499999069,
      "v": 89
    },
    {
      "midi": 56,
      "hit": false,
      "t": 178052.85224999956,
      "d": 56.81812499999069,
      "v": 77
    },
    {
      "midi": 60,
      "hit": false,
      "t": 178052.85224999956,
      "d": 56.81812499999069,
      "v": 85
    },
    {
      "midi": 63,
      "hit": false,
      "t": 178052.85224999956,
      "d": 56.81812499999069,
      "v": 85
    },
    {
      "midi": 67,
      "hit": false,
      "t": 178052.85224999956,
      "d": 75.75749999997788,
      "v": 85
    },
    {
      "midi": 46,
      "hit": false,
      "t": 178166.48849999954,
      "d": 265.15124999999534,
      "v": 89
    },
    {
      "midi": 58,
      "hit": false,
      "t": 178393.76099999953,
      "d": 75.75750000000698,
      "v": 77
    },
    {
      "midi": 62,
      "hit": false,
      "t": 178393.76099999953,
      "d": 94.69687499999418,
      "v": 97
    },
    {
      "midi": 65,
      "hit": false,
      "t": 178393.76099999953,
      "d": 94.69687499999418,
      "v": 89
    },
    {
      "midi": 58,
      "hit": false,
      "t": 178848.30599999952,
      "d": 56.81812499999069,
      "v": 77
    },
    {
      "midi": 62,
      "hit": false,
      "t": 178848.30599999952,
      "d": 75.75749999997788,
      "v": 93
    },
    {
      "midi": 65,
      "hit": false,
      "t": 178848.30599999952,
      "d": 75.75749999997788,
      "v": 81
    },
    {
      "midi": 46,
      "hit": false,
      "t": 179075.5784999995,
      "d": 435.6056249999965,
      "v": 81
    },
    {
      "midi": 58,
      "hit": false,
      "t": 179530.1234999995,
      "d": 227.27249999999185,
      "v": 93
    },
    {
      "midi": 62,
      "hit": false,
      "t": 179530.1234999995,
      "d": 227.27249999999185,
      "v": 97
    },
    {
      "midi": 65,
      "hit": false,
      "t": 179530.1234999995,
      "d": 227.27249999999185,
      "v": 81
    },
    {
      "midi": 68,
      "hit": false,
      "t": 179530.1234999995,
      "d": 227.27249999999185,
      "v": 85
    },
    {
      "midi": 46,
      "hit": false,
      "t": 179757.39599999948,
      "d": 75.75750000000698,
      "v": 65
    },
    {
      "midi": 58,
      "hit": false,
      "t": 179871.0322499995,
      "d": 56.81812499999069,
      "v": 77
    },
    {
      "midi": 62,
      "hit": false,
      "t": 179871.0322499995,
      "d": 56.81812499999069,
      "v": 85
    },
    {
      "midi": 65,
      "hit": false,
      "t": 179871.0322499995,
      "d": 56.81812499999069,
      "v": 73
    },
    {
      "midi": 68,
      "hit": false,
      "t": 179871.0322499995,
      "d": 56.81812499999069,
      "v": 73
    },
    {
      "midi": 46,
      "hit": false,
      "t": 179984.66849999948,
      "d": 284.09062499998254,
      "v": 81
    },
    {
      "midi": 58,
      "hit": false,
      "t": 180211.94099999947,
      "d": 94.69687499999418,
      "v": 73
    },
    {
      "midi": 65,
      "hit": false,
      "t": 180211.94099999947,
      "d": 94.69687499999418,
      "v": 85
    },
    {
      "midi": 68,
      "hit": false,
      "t": 180211.94099999947,
      "d": 94.69687499999418,
      "v": 61
    },
    {
      "midi": 62,
      "hit": false,
      "t": 180211.94099999947,
      "d": 113.63624999998137,
      "v": 89
    },
    {
      "midi": 68,
      "hit": false,
      "t": 180666.48599999945,
      "d": 56.81812499999069,
      "v": 57
    },
    {
      "midi": 62,
      "hit": false,
      "t": 180666.48599999945,
      "d": 75.75749999997788,
      "v": 97
    },
    {
      "midi": 65,
      "hit": false,
      "t": 180666.48599999945,
      "d": 75.75749999997788,
      "v": 85
    },
    {
      "midi": 58,
      "hit": false,
      "t": 180666.48599999945,
      "d": 94.69687499996508,
      "v": 81
    },
    {
      "midi": 51,
      "hit": false,
      "t": 180893.7584999994,
      "d": 473.484375,
      "v": 81
    },
    {
      "midi": 55,
      "hit": false,
      "t": 181348.30349999943,
      "d": 435.6056249999965,
      "v": 81
    },
    {
      "midi": 58,
      "hit": false,
      "t": 181348.30349999943,
      "d": 435.6056249999965,
      "v": 73
    },
    {
      "midi": 62,
      "hit": false,
      "t": 181348.30349999943,
      "d": 454.5449999999837,
      "v": 85
    },
    {
      "midi": 63,
      "hit": false,
      "t": 181348.30349999943,
      "d": 454.5449999999837,
      "v": 73
    },
    {
      "midi": 46,
      "hit": false,
      "t": 181802.8484999994,
      "d": 56.81812499999069,
      "v": 93
    },
    {
      "midi": 43,
      "hit": false,
      "t": 181802.8484999994,
      "d": 2499.9974999999104,
      "v": 81
    },
    {
      "midi": 46,
      "hit": false,
      "t": 182030.1209999994,
      "d": 2234.846249999915,
      "v": 53
    },
    {
      "midi": 50,
      "hit": false,
      "t": 182257.3934999994,
      "d": 2007.5737499999232,
      "v": 85
    },
    {
      "midi": 53,
      "hit": false,
      "t": 182484.6659999994,
      "d": 1609.8468749999302,
      "v": 77
    },
    {
      "midi": 55,
      "hit": false,
      "t": 182711.93849999938,
      "d": 776.5143749999697,
      "v": 77
    },
    {
      "midi": 58,
      "hit": false,
      "t": 182939.21099999937,
      "d": 473.4843749999709,
      "v": 69
    },
    {
      "midi": 62,
      "hit": false,
      "t": 183166.48349999936,
      "d": 284.09062499998254,
      "v": 81
    },
    {
      "midi": 65,
      "hit": false,
      "t": 183393.75599999935,
      "d": 2196.9674999999115,
      "v": 89
    },
    {
      "midi": 62,
      "hit": false,
      "t": 183621.02849999935,
      "d": 1950.7556249999325,
      "v": 89
    },
    {
      "midi": 58,
      "hit": false,
      "t": 183848.30099999934,
      "d": 1685.6043749999662,
      "v": 73
    },
    {
      "midi": 55,
      "hit": false,
      "t": 184075.57349999933,
      "d": 1477.2712499999616,
      "v": 85
    },
    {
      "midi": 53,
      "hit": false,
      "t": 184302.84599999932,
      "d": 340.9087500000023,
      "v": 77
    },
    {
      "midi": 50,
      "hit": false,
      "t": 184530.1184999993,
      "d": 321.96937500001513,
      "v": 89
    },
    {
      "midi": 46,
      "hit": false,
      "t": 184757.39099999933,
      "d": 359.8481249999895,
      "v": 73
    },
    {
      "midi": 50,
      "hit": false,
      "t": 184984.66349999933,
      "d": 246.21187499997905,
      "v": 89
    },
    {
      "midi": 53,
      "hit": false,
      "t": 185211.93599999932,
      "d": 227.27249999999185,
      "v": 93
    },
    {
      "midi": 44,
      "hit": false,
      "t": 185439.2084999993,
      "d": 2954.542499999894,
      "v": 81
    },
    {
      "midi": 48,
      "hit": false,
      "t": 185666.48099999927,
      "d": 2727.2699999999313,
      "v": 89
    },
    {
      "midi": 51,
      "hit": false,
      "t": 185893.75349999926,
      "d": 2556.81562499993,
      "v": 93
    },
    {
      "midi": 55,
      "hit": false,
      "t": 186121.02599999926,
      "d": 2007.5737499999523,
      "v": 109
    },
    {
      "midi": 56,
      "hit": false,
      "t": 186348.29849999925,
      "d": 1647.7256249999627,
      "v": 89
    },
    {
      "midi": 60,
      "hit": false,
      "t": 186575.57099999924,
      "d": 1155.3018749999756,
      "v": 89
    },
    {
      "midi": 63,
      "hit": false,
      "t": 186802.84349999923,
      "d": 984.8474999999744,
      "v": 85
    },
    {
      "midi": 67,
      "hit": false,
      "t": 187030.11599999922,
      "d": 284.09062500001164,
      "v": 89
    },
    {
      "midi": 68,
      "hit": false,
      "t": 187484.66099999924,
      "d": 208.33312500000466,
      "v": 89
    },
    {
      "midi": 67,
      "hit": false,
      "t": 187711.93349999923,
      "d": 1534.0893749999523,
      "v": 97
    },
    {
      "midi": 63,
      "hit": false,
      "t": 187939.20599999922,
      "d": 1193.18062499995,
      "v": 101
    },
    {
      "midi": 60,
      "hit": false,
      "t": 188166.4784999992,
      "d": 928.0293749999546,
      "v": 85
    },
    {
      "midi": 56,
      "hit": false,
      "t": 188393.7509999992,
      "d": 776.5143749999697,
      "v": 97
    },
    {
      "midi": 55,
      "hit": false,
      "t": 188621.0234999992,
      "d": 473.4843749999709,
      "v": 93
    },
    {
      "midi": 51,
      "hit": false,
      "t": 188848.2959999992,
      "d": 208.33312500000466,
      "v": 81
    },
    {
      "midi": 46,
      "hit": false,
      "t": 189075.56849999918,
      "d": 2234.846249999915,
      "v": 81
    },
    {
      "midi": 50,
      "hit": false,
      "t": 189302.84099999917,
      "d": 1988.634374999936,
      "v": 81
    },
    {
      "midi": 53,
      "hit": false,
      "t": 189530.11349999916,
      "d": 1780.3012499999313,
      "v": 89
    },
    {
      "midi": 58,
      "hit": false,
      "t": 189757.38599999915,
      "d": 1628.7862499999464,
      "v": 93
    },
    {
      "midi": 62,
      "hit": false,
      "t": 189984.65849999915,
      "d": 473.4843749999709,
      "v": 85
    },
    {
      "midi": 65,
      "hit": false,
      "t": 190211.93099999914,
      "d": 284.09062499998254,
      "v": 93
    },
    {
      "midi": 67,
      "hit": false,
      "t": 190439.20349999913,
      "d": 473.4843749999709,
      "v": 85
    },
    {
      "midi": 65,
      "hit": false,
      "t": 190666.47599999912,
      "d": 378.7874999999767,
      "v": 77
    },
    {
      "midi": 62,
      "hit": false,
      "t": 190893.7484999991,
      "d": 265.15124999999534,
      "v": 77
    },
    {
      "midi": 68,
      "hit": false,
      "t": 191121.0209999991,
      "d": 1363.634999999951,
      "v": 77
    },
    {
      "midi": 65,
      "hit": false,
      "t": 191348.2934999991,
      "d": 1098.4837499999558,
      "v": 81
    },
    {
      "midi": 62,
      "hit": false,
      "t": 191575.5659999991,
      "d": 909.0899999999674,
      "v": 85
    },
    {
      "midi": 58,
      "hit": false,
      "t": 191802.83849999908,
      "d": 776.5143749999697,
      "v": 105
    },
    {
      "midi": 56,
      "hit": false,
      "t": 192030.11099999907,
      "d": 511.3631249999744,
      "v": 73
    },
    {
      "midi": 53,
      "hit": false,
      "t": 192257.38349999906,
      "d": 284.09062499998254,
      "v": 81
    },
    {
      "midi": 51,
      "hit": false,
      "t": 192484.65599999906,
      "d": 113.63624999998137,
      "v": 73
    },
    {
      "midi": 62,
      "hit": false,
      "t": 192711.92849999905,
      "d": 75.75750000000698,
      "v": 109
    },
    {
      "midi": 63,
      "hit": false,
      "t": 192711.92849999905,
      "d": 94.69687499999418,
      "v": 113
    },
    {
      "midi": 51,
      "hit": false,
      "t": 192711.92849999905,
      "d": 113.63624999998137,
      "v": 113
    },
    {
      "midi": 67,
      "hit": false,
      "t": 192711.92849999905,
      "d": 113.63624999998137,
      "v": 93
    },
    {
      "midi": 58,
      "hit": false,
      "t": 192711.92849999905,
      "d": 151.51499999998487,
      "v": 97
    },
    {
      "midi": 62,
      "hit": false,
      "t": 193166.47349999903,
      "d": 1060.6050000000105,
      "v": 117
    },
    {
      "midi": 51,
      "hit": false,
      "t": 193166.47349999903,
      "d": 1079.5443749999977,
      "v": 113
    },
    {
      "midi": 58,
      "hit": false,
      "t": 193166.47349999903,
      "d": 1079.5443749999977,
      "v": 105
    },
    {
      "midi": 63,
      "hit": false,
      "t": 193166.47349999903,
      "d": 1098.4837499999849,
      "v": 113
    },
    {
      "midi": 67,
      "hit": false,
      "t": 193166.47349999903,
      "d": 1098.4837499999849,
      "v": 109
    },
    {
      "midi": 62,
      "hit": false,
      "t": 194757.380999999,
      "d": 75.75750000000698,
      "v": 125
    },
    {
      "midi": 60,
      "hit": false,
      "t": 194757.380999999,
      "d": 113.63625000001048,
      "v": 121
    },
    {
      "midi": 67,
      "hit": false,
      "t": 194757.380999999,
      "d": 113.63625000001048,
      "v": 113
    },
    {
      "midi": 48,
      "hit": false,
      "t": 194757.380999999,
      "d": 132.57562499999767,
      "v": 125
    },
    {
      "midi": 62,
      "hit": false,
      "t": 195211.925999999,
      "d": 113.63625000001048,
      "v": 125
    },
    {
      "midi": 47,
      "hit": false,
      "t": 195211.925999999,
      "d": 132.57562499999767,
      "v": 125
    },
    {
      "midi": 67,
      "hit": false,
      "t": 195211.925999999,
      "d": 151.51499999998487,
      "v": 113
    },
    {
      "midi": 59,
      "hit": false,
      "t": 195211.925999999,
      "d": 170.45437499997206,
      "v": 125
    },
    {
      "midi": 65,
      "hit": false,
      "t": 195893.74349999896,
      "d": 265.15124999999534,
      "v": 121
    },
    {
      "midi": 58,
      "hit": false,
      "t": 195893.74349999896,
      "d": 284.09062499998254,
      "v": 109
    },
    {
      "midi": 62,
      "hit": false,
      "t": 195893.74349999896,
      "d": 284.09062499998254,
      "v": 125
    },
    {
      "midi": 46,
      "hit": false,
      "t": 195893.74349999896,
      "d": 340.9087499999732,
      "v": 117
    },
    {
      "midi": 43,
      "hit": false,
      "t": 196234.65224999894,
      "d": 1439.3925000000163,
      "v": 77
    },
    {
      "midi": 58,
      "hit": false,
      "t": 196234.65224999894,
      "d": 1515.1499999999942,
      "v": 97
    },
    {
      "midi": 62,
      "hit": false,
      "t": 196234.65224999894,
      "d": 1515.1499999999942,
      "v": 97
    },
    {
      "midi": 55,
      "hit": false,
      "t": 196234.65224999894,
      "d": 1534.0893749999814,
      "v": 85
    },
    {
      "midi": 65,
      "hit": false,
      "t": 196348.28849999895,
      "d": 1382.5743749999965,
      "v": 97
    },
    {
      "midi": 63,
      "hit": false,
      "t": 198393.74099999893,
      "d": 37.87875000000349,
      "v": 97
    },
    {
      "midi": 58,
      "hit": false,
      "t": 198393.74099999893,
      "d": 75.75750000000698,
      "v": 105
    },
    {
      "midi": 62,
      "hit": false,
      "t": 198393.74099999893,
      "d": 75.75750000000698,
      "v": 121
    },
    {
      "midi": 51,
      "hit": false,
      "t": 198393.74099999893,
      "d": 94.69687499999418,
      "v": 109
    },
    {
      "midi": 55,
      "hit": false,
      "t": 198393.74099999893,
      "d": 170.45437500000116,
      "v": 105
    },
    {
      "midi": 43,
      "hit": false,
      "t": 198961.92224999893,
      "d": 700.7568749999919,
      "v": 85
    },
    {
      "midi": 62,
      "hit": false,
      "t": 198961.92224999893,
      "d": 719.696249999979,
      "v": 125
    },
    {
      "midi": 50,
      "hit": false,
      "t": 198961.92224999893,
      "d": 757.5749999999825,
      "v": 89
    },
    {
      "midi": 60,
      "hit": false,
      "t": 198961.92224999893,
      "d": 757.5749999999825,
      "v": 125
    },
    {
      "midi": 55,
      "hit": false,
      "t": 198961.92224999893,
      "d": 776.5143749999697,
      "v": 121
    },
    {
      "midi": 43,
      "hit": false,
      "t": 199984.6484999989,
      "d": 75.75750000000698,
      "v": 81
    },
    {
      "midi": 44,
      "hit": false,
      "t": 200439.19349999892,
      "d": 511.3631250000035,
      "v": 77
    },
    {
      "midi": 46,
      "hit": false,
      "t": 200893.73849999893,
      "d": 454.5449999999837,
      "v": 89
    },
    {
      "midi": 48,
      "hit": false,
      "t": 201348.2834999989,
      "d": 454.5450000000128,
      "v": 89
    },
    {
      "midi": 50,
      "hit": false,
      "t": 201802.82849999893,
      "d": 492.4237500000163,
      "v": 93
    },
    {
      "midi": 51,
      "hit": false,
      "t": 202257.37349999894,
      "d": 473.484375,
      "v": 77
    },
    {
      "midi": 53,
      "hit": false,
      "t": 202711.91849999895,
      "d": 416.6662499999802,
      "v": 89
    },
    {
      "midi": 55,
      "hit": false,
      "t": 203166.46349999894,
      "d": 435.6056249999965,
      "v": 81
    },
    {
      "midi": 48,
      "hit": false,
      "t": 203621.00849999892,
      "d": 246.21187499997905,
      "v": 85
    },
    {
      "midi": 63,
      "hit": false,
      "t": 203848.2809999989,
      "d": 37.87874999997439,
      "v": 97
    },
    {
      "midi": 67,
      "hit": false,
      "t": 203848.2809999989,
      "d": 37.87874999997439,
      "v": 77
    },
    {
      "midi": 60,
      "hit": false,
      "t": 203848.2809999989,
      "d": 56.81812499996158,
      "v": 81
    },
    {
      "midi": 63,
      "hit": false,
      "t": 204302.82599999887,
      "d": 37.87875000000349,
      "v": 97
    },
    {
      "midi": 60,
      "hit": false,
      "t": 204302.82599999887,
      "d": 56.81812499999069,
      "v": 85
    },
    {
      "midi": 67,
      "hit": false,
      "t": 204302.82599999887,
      "d": 56.81812499999069,
      "v": 85
    },
    {
      "midi": 48,
      "hit": false,
      "t": 204530.09849999886,
      "d": 454.5450000000128,
      "v": 105
    },
    {
      "midi": 60,
      "hit": false,
      "t": 204984.64349999887,
      "d": 56.81812499999069,
      "v": 89
    },
    {
      "midi": 63,
      "hit": false,
      "t": 204984.64349999887,
      "d": 56.81812499999069,
      "v": 101
    },
    {
      "midi": 67,
      "hit": false,
      "t": 204984.64349999887,
      "d": 56.81812499999069,
      "v": 93
    },
    {
      "midi": 48,
      "hit": false,
      "t": 205211.91599999886,
      "d": 56.81812499999069,
      "v": 89
    },
    {
      "midi": 60,
      "hit": false,
      "t": 205325.55224999884,
      "d": 37.87875000000349,
      "v": 85
    },
    {
      "midi": 63,
      "hit": false,
      "t": 205325.55224999884,
      "d": 37.87875000000349,
      "v": 89
    },
    {
      "midi": 48,
      "hit": false,
      "t": 205439.18849999885,
      "d": 246.21187499997905,
      "v": 97
    },
    {
      "midi": 60,
      "hit": false,
      "t": 205666.46099999885,
      "d": 37.87874999997439,
      "v": 89
    },
    {
      "midi": 63,
      "hit": false,
      "t": 205666.46099999885,
      "d": 37.87874999997439,
      "v": 97
    },
    {
      "midi": 67,
      "hit": false,
      "t": 205666.46099999885,
      "d": 37.87874999997439,
      "v": 85
    },
    {
      "midi": 63,
      "hit": false,
      "t": 206121.00599999883,
      "d": 37.87875000000349,
      "v": 97
    },
    {
      "midi": 67,
      "hit": false,
      "t": 206121.00599999883,
      "d": 37.87875000000349,
      "v": 89
    },
    {
      "midi": 60,
      "hit": false,
      "t": 206121.00599999883,
      "d": 56.81812499999069,
      "v": 93
    },
    {
      "midi": 48,
      "hit": false,
      "t": 206348.27849999882,
      "d": 416.6662500000093,
      "v": 105
    },
    {
      "midi": 63,
      "hit": false,
      "t": 206802.82349999883,
      "d": 56.81812499999069,
      "v": 97
    },
    {
      "midi": 67,
      "hit": false,
      "t": 206802.82349999883,
      "d": 56.81812499999069,
      "v": 89
    },
    {
      "midi": 60,
      "hit": false,
      "t": 206802.82349999883,
      "d": 75.75749999997788,
      "v": 89
    },
    {
      "midi": 48,
      "hit": false,
      "t": 207030.09599999883,
      "d": 37.87875000000349,
      "v": 85
    },
    {
      "midi": 63,
      "hit": false,
      "t": 207143.73224999884,
      "d": 37.87875000000349,
      "v": 93
    },
    {
      "midi": 67,
      "hit": false,
      "t": 207143.73224999884,
      "d": 37.87875000000349,
      "v": 77
    },
    {
      "midi": 60,
      "hit": false,
      "t": 207143.73224999884,
      "d": 56.81812499999069,
      "v": 85
    },
    {
      "midi": 48,
      "hit": false,
      "t": 207257.36849999882,
      "d": 208.33312500000466,
      "v": 97
    },
    {
      "midi": 63,
      "hit": false,
      "t": 207484.6409999988,
      "d": 37.87875000000349,
      "v": 97
    },
    {
      "midi": 60,
      "hit": false,
      "t": 207484.6409999988,
      "d": 56.81812499999069,
      "v": 93
    },
    {
      "midi": 67,
      "hit": false,
      "t": 207484.6409999988,
      "d": 56.81812499999069,
      "v": 85
    },
    {
      "midi": 63,
      "hit": false,
      "t": 207939.1859999988,
      "d": 56.81812499999069,
      "v": 105
    },
    {
      "midi": 67,
      "hit": false,
      "t": 207939.1859999988,
      "d": 56.81812499999069,
      "v": 93
    },
    {
      "midi": 60,
      "hit": false,
      "t": 207939.1859999988,
      "d": 75.75749999997788,
      "v": 97
    },
    {
      "midi": 44,
      "hit": false,
      "t": 208166.4584999988,
      "d": 454.5450000000128,
      "v": 77
    },
    {
      "midi": 63,
      "hit": false,
      "t": 208621.0034999988,
      "d": 189.39374999998836,
      "v": 89
    },
    {
      "midi": 56,
      "hit": false,
      "t": 208621.0034999988,
      "d": 208.33312499997555,
      "v": 89
    },
    {
      "midi": 60,
      "hit": false,
      "t": 208621.0034999988,
      "d": 208.33312499997555,
      "v": 93
    },
    {
      "midi": 67,
      "hit": false,
      "t": 208621.0034999988,
      "d": 208.33312499997555,
      "v": 93
    },
    {
      "midi": 44,
      "hit": false,
      "t": 208848.27599999876,
      "d": 56.81812499999069,
      "v": 81
    },
    {
      "midi": 60,
      "hit": false,
      "t": 208961.91224999874,
      "d": 37.87875000000349,
      "v": 73
    },
    {
      "midi": 63,
      "hit": false,
      "t": 208961.91224999874,
      "d": 37.87875000000349,
      "v": 57
    },
    {
      "midi": 56,
      "hit": false,
      "t": 208961.91224999874,
      "d": 56.81812499999069,
      "v": 77
    },
    {
      "midi": 67,
      "hit": false,
      "t": 208961.91224999874,
      "d": 56.81812499999069,
      "v": 77
    },
    {
      "midi": 44,
      "hit": false,
      "t": 209075.54849999872,
      "d": 246.21187499997905,
      "v": 97
    },
    {
      "midi": 56,
      "hit": false,
      "t": 209302.82099999872,
      "d": 56.81812499999069,
      "v": 81
    },
    {
      "midi": 60,
      "hit": false,
      "t": 209302.82099999872,
      "d": 56.81812499999069,
      "v": 97
    },
    {
      "midi": 63,
      "hit": false,
      "t": 209302.82099999872,
      "d": 56.81812499999069,
      "v": 85
    },
    {
      "midi": 67,
      "hit": false,
      "t": 209302.82099999872,
      "d": 56.81812499999069,
      "v": 89
    },
    {
      "midi": 63,
      "hit": false,
      "t": 209757.3659999987,
      "d": 56.81812499999069,
      "v": 85
    },
    {
      "midi": 67,
      "hit": false,
      "t": 209757.3659999987,
      "d": 56.81812499999069,
      "v": 89
    },
    {
      "midi": 56,
      "hit": false,
      "t": 209757.3659999987,
      "d": 75.75749999997788,
      "v": 85
    },
    {
      "midi": 60,
      "hit": false,
      "t": 209757.3659999987,
      "d": 75.75749999997788,
      "v": 85
    },
    {
      "midi": 43,
      "hit": false,
      "t": 209984.6384999987,
      "d": 435.6056249999965,
      "v": 101
    },
    {
      "midi": 55,
      "hit": false,
      "t": 210439.18349999867,
      "d": 208.33312500000466,
      "v": 97
    },
    {
      "midi": 60,
      "hit": false,
      "t": 210439.18349999867,
      "d": 208.33312500000466,
      "v": 105
    },
    {
      "midi": 62,
      "hit": false,
      "t": 210439.18349999867,
      "d": 208.33312500000466,
      "v": 105
    },
    {
      "midi": 67,
      "hit": false,
      "t": 210439.18349999867,
      "d": 208.33312500000466,
      "v": 85
    },
    {
      "midi": 43,
      "hit": false,
      "t": 210666.45599999867,
      "d": 94.69687499999418,
      "v": 73
    },
    {
      "midi": 60,
      "hit": false,
      "t": 210780.09224999865,
      "d": 37.87875000000349,
      "v": 89
    },
    {
      "midi": 62,
      "hit": false,
      "t": 210780.09224999865,
      "d": 37.87875000000349,
      "v": 85
    },
    {
      "midi": 55,
      "hit": false,
      "t": 210780.09224999865,
      "d": 56.81812499999069,
      "v": 81
    },
    {
      "midi": 67,
      "hit": false,
      "t": 210780.09224999865,
      "d": 56.81812499999069,
      "v": 73
    },
    {
      "midi": 48,
      "hit": false,
      "t": 210893.72849999863,
      "d": 246.21187499997905,
      "v": 97
    },
    {
      "midi": 60,
      "hit": false,
      "t": 211121.00099999862,
      "d": 56.81812499999069,
      "v": 93
    },
    {
      "midi": 64,
      "hit": false,
      "t": 211121.00099999862,
      "d": 56.81812499999069,
      "v": 97
    },
    {
      "midi": 67,
      "hit": false,
      "t": 211121.00099999862,
      "d": 56.81812499999069,
      "v": 89
    },
    {
      "midi": 64,
      "hit": false,
      "t": 211575.5459999986,
      "d": 56.81812499999069,
      "v": 101
    },
    {
      "midi": 60,
      "hit": false,
      "t": 211575.5459999986,
      "d": 75.75749999997788,
      "v": 89
    },
    {
      "midi": 67,
      "hit": false,
      "t": 211575.5459999986,
      "d": 75.75749999997788,
      "v": 89
    },
    {
      "midi": 53,
      "hit": false,
      "t": 211802.8184999986,
      "d": 473.484375,
      "v": 105
    },
    {
      "midi": 68,
      "hit": false,
      "t": 212257.3634999986,
      "d": 170.45437500000116,
      "v": 89
    },
    {
      "midi": 60,
      "hit": false,
      "t": 212257.3634999986,
      "d": 189.39374999998836,
      "v": 97
    },
    {
      "midi": 65,
      "hit": false,
      "t": 212257.3634999986,
      "d": 189.39374999998836,
      "v": 113
    },
    {
      "midi": 53,
      "hit": false,
      "t": 212484.6359999986,
      "d": 113.63625000001048,
      "v": 81
    },
    {
      "midi": 60,
      "hit": false,
      "t": 212598.2722499986,
      "d": 75.75750000000698,
      "v": 81
    },
    {
      "midi": 65,
      "hit": false,
      "t": 212598.2722499986,
      "d": 75.75750000000698,
      "v": 89
    },
    {
      "midi": 46,
      "hit": false,
      "t": 212711.90849999862,
      "d": 246.21187499997905,
      "v": 109
    },
    {
      "midi": 58,
      "hit": false,
      "t": 212939.1809999986,
      "d": 94.69687499999418,
      "v": 85
    },
    {
      "midi": 62,
      "hit": false,
      "t": 212939.1809999986,
      "d": 94.69687499999418,
      "v": 89
    },
    {
      "midi": 65,
      "hit": false,
      "t": 212939.1809999986,
      "d": 94.69687499999418,
      "v": 89
    },
    {
      "midi": 68,
      "hit": false,
      "t": 212939.1809999986,
      "d": 94.69687499999418,
      "v": 73
    },
    {
      "midi": 68,
      "hit": false,
      "t": 213393.7259999986,
      "d": 94.69687499999418,
      "v": 73
    },
    {
      "midi": 62,
      "hit": false,
      "t": 213393.7259999986,
      "d": 113.63624999998137,
      "v": 93
    },
    {
      "midi": 65,
      "hit": false,
      "t": 213393.7259999986,
      "d": 113.63624999998137,
      "v": 85
    },
    {
      "midi": 58,
      "hit": false,
      "t": 213393.7259999986,
      "d": 132.57562499996857,
      "v": 81
    },
    {
      "midi": 51,
      "hit": false,
      "t": 213620.99849999856,
      "d": 473.484375,
      "v": 97
    },
    {
      "midi": 58,
      "hit": false,
      "t": 214075.54349999857,
      "d": 359.8481249999895,
      "v": 89
    },
    {
      "midi": 62,
      "hit": false,
      "t": 214075.54349999857,
      "d": 378.7874999999767,
      "v": 93
    },
    {
      "midi": 63,
      "hit": false,
      "t": 214075.54349999857,
      "d": 378.7874999999767,
      "v": 81
    },
    {
      "midi": 67,
      "hit": false,
      "t": 214075.54349999857,
      "d": 378.7874999999767,
      "v": 89
    },
    {
      "midi": 43,
      "hit": false,
      "t": 214530.08849999856,
      "d": 416.6662500000093,
      "v": 81
    },
    {
      "midi": 44,
      "hit": false,
      "t": 214984.63349999857,
      "d": 511.3631250000035,
      "v": 89
    },
    {
      "midi": 46,
      "hit": false,
      "t": 215439.17849999858,
      "d": 416.6662499999802,
      "v": 105
    },
    {
      "midi": 48,
      "hit": false,
      "t": 215893.72349999857,
      "d": 454.5450000000128,
      "v": 89
    },
    {
      "midi": 50,
      "hit": false,
      "t": 216348.26849999858,
      "d": 454.5450000000128,
      "v": 97
    },
    {
      "midi": 51,
      "hit": false,
      "t": 216802.8134999986,
      "d": 416.6662500000093,
      "v": 97
    },
    {
      "midi": 53,
      "hit": false,
      "t": 217257.3584999986,
      "d": 435.6056249999965,
      "v": 85
    },
    {
      "midi": 55,
      "hit": false,
      "t": 217711.9034999986,
      "d": 435.6056249999965,
      "v": 105
    },
    {
      "midi": 48,
      "hit": false,
      "t": 218166.44849999857,
      "d": 284.09062499998254,
      "v": 97
    },
    {
      "midi": 63,
      "hit": false,
      "t": 218393.72099999856,
      "d": 37.87875000000349,
      "v": 97
    },
    {
      "midi": 67,
      "hit": false,
      "t": 218393.72099999856,
      "d": 37.87875000000349,
      "v": 85
    },
    {
      "midi": 60,
      "hit": false,
      "t": 218393.72099999856,
      "d": 56.81812499999069,
      "v": 89
    },
    {
      "midi": 63,
      "hit": false,
      "t": 218848.26599999855,
      "d": 37.87875000000349,
      "v": 97
    },
    {
      "midi": 60,
      "hit": false,
      "t": 218848.26599999855,
      "d": 56.81812499999069,
      "v": 97
    },
    {
      "midi": 67,
      "hit": false,
      "t": 218848.26599999855,
      "d": 56.81812499999069,
      "v": 89
    },
    {
      "midi": 48,
      "hit": false,
      "t": 219075.53849999854,
      "d": 454.5450000000128,
      "v": 105
    },
    {
      "midi": 63,
      "hit": false,
      "t": 219530.08349999855,
      "d": 56.81812499999069,
      "v": 97
    },
    {
      "midi": 67,
      "hit": false,
      "t": 219530.08349999855,
      "d": 56.81812499999069,
      "v": 89
    },
    {
      "midi": 60,
      "hit": false,
      "t": 219530.08349999855,
      "d": 75.75749999997788,
      "v": 93
    },
    {
      "midi": 60,
      "hit": false,
      "t": 219870.99224999853,
      "d": 37.87875000000349,
      "v": 89
    },
    {
      "midi": 63,
      "hit": false,
      "t": 219870.99224999853,
      "d": 37.87875000000349,
      "v": 93
    },
    {
      "midi": 67,
      "hit": false,
      "t": 219870.99224999853,
      "d": 37.87875000000349,
      "v": 77
    },
    {
      "midi": 48,
      "hit": false,
      "t": 219984.62849999854,
      "d": 227.27249999999185,
      "v": 109
    },
    {
      "midi": 60,
      "hit": false,
      "t": 220211.90099999853,
      "d": 56.81812499999069,
      "v": 93
    },
    {
      "midi": 63,
      "hit": false,
      "t": 220211.90099999853,
      "d": 56.81812499999069,
      "v": 97
    },
    {
      "midi": 67,
      "hit": false,
      "t": 220211.90099999853,
      "d": 56.81812499999069,
      "v": 89
    },
    {
      "midi": 60,
      "hit": false,
      "t": 220666.4459999985,
      "d": 56.81812499999069,
      "v": 89
    },
    {
      "midi": 63,
      "hit": false,
      "t": 220666.4459999985,
      "d": 56.81812499999069,
      "v": 101
    },
    {
      "midi": 67,
      "hit": false,
      "t": 220666.4459999985,
      "d": 56.81812499999069,
      "v": 89
    },
    {
      "midi": 48,
      "hit": false,
      "t": 220893.7184999985,
      "d": 454.5450000000128,
      "v": 97
    },
    {
      "midi": 60,
      "hit": false,
      "t": 221348.26349999852,
      "d": 56.81812499999069,
      "v": 93
    },
    {
      "midi": 63,
      "hit": false,
      "t": 221348.26349999852,
      "d": 56.81812499999069,
      "v": 93
    },
    {
      "midi": 67,
      "hit": false,
      "t": 221348.26349999852,
      "d": 56.81812499999069,
      "v": 89
    },
    {
      "midi": 48,
      "hit": false,
      "t": 221575.5359999985,
      "d": 56.81812499999069,
      "v": 85
    },
    {
      "midi": 67,
      "hit": false,
      "t": 221689.1722499985,
      "d": 37.87875000000349,
      "v": 77
    },
    {
      "midi": 60,
      "hit": false,
      "t": 221689.1722499985,
      "d": 56.81812499999069,
      "v": 89
    },
    {
      "midi": 63,
      "hit": false,
      "t": 221689.1722499985,
      "d": 56.81812499999069,
      "v": 89
    },
    {
      "midi": 48,
      "hit": false,
      "t": 221802.80849999847,
      "d": 242.42399999999907,
      "v": 85
    },
    {
      "midi": 60,
      "hit": false,
      "t": 222030.08099999846,
      "d": 56.81812500001979,
      "v": 93
    },
    {
      "midi": 63,
      "hit": false,
      "t": 222030.08099999846,
      "d": 56.81812500001979,
      "v": 97
    },
    {
      "midi": 67,
      "hit": false,
      "t": 222030.08099999846,
      "d": 56.81812500001979,
      "v": 89
    },
    {
      "midi": 63,
      "hit": false,
      "t": 222484.62599999848,
      "d": 56.81812499999069,
      "v": 101
    },
    {
      "midi": 67,
      "hit": false,
      "t": 222484.62599999848,
      "d": 56.81812499999069,
      "v": 93
    },
    {
      "midi": 60,
      "hit": false,
      "t": 222484.62599999848,
      "d": 75.75749999997788,
      "v": 93
    },
    {
      "midi": 44,
      "hit": false,
      "t": 222711.89849999847,
      "d": 473.484375,
      "v": 109
    },
    {
      "midi": 60,
      "hit": false,
      "t": 223166.44349999848,
      "d": 208.33312499997555,
      "v": 101
    },
    {
      "midi": 63,
      "hit": false,
      "t": 223166.44349999848,
      "d": 208.33312499997555,
      "v": 97
    },
    {
      "midi": 67,
      "hit": false,
      "t": 223166.44349999848,
      "d": 208.33312499997555,
      "v": 97
    },
    {
      "midi": 56,
      "hit": false,
      "t": 223166.44349999848,
      "d": 227.27249999996275,
      "v": 89
    },
    {
      "midi": 44,
      "hit": false,
      "t": 223393.71599999844,
      "d": 37.87875000000349,
      "v": 81
    },
    {
      "midi": 63,
      "hit": false,
      "t": 223507.35224999845,
      "d": 37.87875000000349,
      "v": 77
    },
    {
      "midi": 56,
      "hit": false,
      "t": 223507.35224999845,
      "d": 56.81812499999069,
      "v": 73
    },
    {
      "midi": 60,
      "hit": false,
      "t": 223507.35224999845,
      "d": 56.81812499999069,
      "v": 73
    },
    {
      "midi": 67,
      "hit": false,
      "t": 223507.35224999845,
      "d": 56.81812499999069,
      "v": 65
    },
    {
      "midi": 44,
      "hit": false,
      "t": 223620.98849999844,
      "d": 265.15124999999534,
      "v": 97
    },
    {
      "midi": 56,
      "hit": false,
      "t": 223848.26099999843,
      "d": 56.81812499999069,
      "v": 85
    },
    {
      "midi": 63,
      "hit": false,
      "t": 223848.26099999843,
      "d": 56.81812499999069,
      "v": 89
    },
    {
      "midi": 60,
      "hit": false,
      "t": 223848.26099999843,
      "d": 75.75749999997788,
      "v": 97
    },
    {
      "midi": 67,
      "hit": false,
      "t": 223848.26099999843,
      "d": 75.75749999997788,
      "v": 89
    },
    {
      "midi": 63,
      "hit": false,
      "t": 224302.8059999984,
      "d": 56.81812499999069,
      "v": 93
    },
    {
      "midi": 67,
      "hit": false,
      "t": 224302.8059999984,
      "d": 56.81812499999069,
      "v": 97
    },
    {
      "midi": 56,
      "hit": false,
      "t": 224302.8059999984,
      "d": 75.75749999997788,
      "v": 85
    },
    {
      "midi": 60,
      "hit": false,
      "t": 224302.8059999984,
      "d": 75.75749999997788,
      "v": 93
    },
    {
      "midi": 43,
      "hit": false,
      "t": 224530.0784999984,
      "d": 435.6056249999965,
      "v": 105
    },
    {
      "midi": 55,
      "hit": false,
      "t": 224984.6234999984,
      "d": 208.33312500000466,
      "v": 97
    },
    {
      "midi": 60,
      "hit": false,
      "t": 224984.6234999984,
      "d": 208.33312500000466,
      "v": 101
    },
    {
      "midi": 62,
      "hit": false,
      "t": 224984.6234999984,
      "d": 208.33312500000466,
      "v": 97
    },
    {
      "midi": 67,
      "hit": false,
      "t": 224984.6234999984,
      "d": 208.33312500000466,
      "v": 85
    },
    {
      "midi": 43,
      "hit": false,
      "t": 225211.89599999838,
      "d": 94.69687499999418,
      "v": 81
    },
    {
      "midi": 60,
      "hit": false,
      "t": 225325.53224999836,
      "d": 37.87875000000349,
      "v": 93
    },
    {
      "midi": 62,
      "hit": false,
      "t": 225325.53224999836,
      "d": 37.87875000000349,
      "v": 89
    },
    {
      "midi": 55,
      "hit": false,
      "t": 225325.53224999836,
      "d": 56.81812499999069,
      "v": 85
    },
    {
      "midi": 67,
      "hit": false,
      "t": 225325.53224999836,
      "d": 56.81812499999069,
      "v": 77
    },
    {
      "midi": 48,
      "hit": false,
      "t": 225439.16849999834,
      "d": 284.09062499998254,
      "v": 101
    },
    {
      "midi": 60,
      "hit": false,
      "t": 225666.44099999833,
      "d": 75.75749999997788,
      "v": 85
    },
    {
      "midi": 64,
      "hit": false,
      "t": 225666.44099999833,
      "d": 75.75749999997788,
      "v": 97
    },
    {
      "midi": 67,
      "hit": false,
      "t": 225666.44099999833,
      "d": 75.75749999997788,
      "v": 97
    },
    {
      "midi": 70,
      "hit": false,
      "t": 226120.98599999832,
      "d": 208.33312500000466,
      "v": 89
    },
    {
      "midi": 64,
      "hit": false,
      "t": 226120.98599999832,
      "d": 227.27249999999185,
      "v": 97
    },
    {
      "midi": 60,
      "hit": false,
      "t": 226120.98599999832,
      "d": 246.21187499997905,
      "v": 89
    },
    {
      "midi": 53,
      "hit": false,
      "t": 226348.2584999983,
      "d": 492.4237499999872,
      "v": 101
    },
    {
      "midi": 60,
      "hit": false,
      "t": 226802.8034999983,
      "d": 189.39375000001746,
      "v": 89
    },
    {
      "midi": 65,
      "hit": false,
      "t": 226802.8034999983,
      "d": 189.39375000001746,
      "v": 97
    },
    {
      "midi": 68,
      "hit": false,
      "t": 226802.8034999983,
      "d": 189.39375000001746,
      "v": 89
    },
    {
      "midi": 53,
      "hit": false,
      "t": 227030.0759999983,
      "d": 132.57562499999767,
      "v": 89
    },
    {
      "midi": 60,
      "hit": false,
      "t": 227143.71224999832,
      "d": 56.81812499999069,
      "v": 69
    },
    {
      "midi": 46,
      "hit": false,
      "t": 227257.3484999983,
      "d": 303.02999999999884,
      "v": 49
    },
    {
      "midi": 65,
      "hit": false,
      "t": 227484.6209999983,
      "d": 75.75750000000698,
      "v": 81
    },
    {
      "midi": 58,
      "hit": false,
      "t": 227484.6209999983,
      "d": 94.69687499999418,
      "v": 89
    },
    {
      "midi": 68,
      "hit": false,
      "t": 227484.6209999983,
      "d": 94.69687499999418,
      "v": 73
    },
    {
      "midi": 62,
      "hit": false,
      "t": 227484.6209999983,
      "d": 113.63624999998137,
      "v": 97
    },
    {
      "midi": 68,
      "hit": false,
      "t": 227939.16599999828,
      "d": 94.69687499999418,
      "v": 77
    },
    {
      "midi": 65,
      "hit": false,
      "t": 227939.16599999828,
      "d": 113.63624999998137,
      "v": 85
    },
    {
      "midi": 62,
      "hit": false,
      "t": 227939.16599999828,
      "d": 132.57562499996857,
      "v": 93
    },
    {
      "midi": 58,
      "hit": false,
      "t": 227939.16599999828,
      "d": 151.51499999995576,
      "v": 77
    },
    {
      "midi": 51,
      "hit": false,
      "t": 228166.43849999824,
      "d": 454.5450000000128,
      "v": 85
    },
    {
      "midi": 58,
      "hit": false,
      "t": 228620.98349999826,
      "d": 416.6662500000093,
      "v": 85
    },
    {
      "midi": 62,
      "hit": false,
      "t": 228620.98349999826,
      "d": 435.6056249999965,
      "v": 93
    },
    {
      "midi": 63,
      "hit": false,
      "t": 228620.98349999826,
      "d": 435.6056249999965,
      "v": 81
    },
    {
      "midi": 67,
      "hit": false,
      "t": 228620.98349999826,
      "d": 435.6056249999965,
      "v": 85
    },
    {
      "midi": 43,
      "hit": false,
      "t": 229075.52849999824,
      "d": 416.6662500000093,
      "v": 85
    },
    {
      "midi": 44,
      "hit": false,
      "t": 229530.07349999825,
      "d": 473.484375,
      "v": 81
    },
    {
      "midi": 46,
      "hit": false,
      "t": 229984.61849999827,
      "d": 435.6056249999965,
      "v": 77
    },
    {
      "midi": 48,
      "hit": false,
      "t": 230439.16349999825,
      "d": 454.5450000000128,
      "v": 81
    },
    {
      "midi": 50,
      "hit": false,
      "t": 230893.70849999826,
      "d": 473.484375,
      "v": 89
    },
    {
      "midi": 51,
      "hit": false,
      "t": 231348.25349999827,
      "d": 473.4843749999709,
      "v": 85
    },
    {
      "midi": 53,
      "hit": false,
      "t": 231802.79849999826,
      "d": 435.6056249999965,
      "v": 85
    },
    {
      "midi": 55,
      "hit": false,
      "t": 232257.34349999824,
      "d": 170.45437500000116,
      "v": 85
    },
    {
      "midi": 55,
      "hit": false,
      "t": 232711.88849999825,
      "d": 75.75750000000698,
      "v": 113
    },
    {
      "midi": 58,
      "hit": false,
      "t": 232711.88849999825,
      "d": 94.69687499999418,
      "v": 113
    },
    {
      "midi": 62,
      "hit": false,
      "t": 232711.88849999825,
      "d": 94.69687499999418,
      "v": 125
    },
    {
      "midi": 65,
      "hit": false,
      "t": 232711.88849999825,
      "d": 94.69687499999418,
      "v": 105
    },
    {
      "midi": 43,
      "hit": false,
      "t": 232711.88849999825,
      "d": 113.63624999998137,
      "v": 125
    },
    {
      "midi": 43,
      "hit": false,
      "t": 233166.43349999824,
      "d": 1022.726250000007,
      "v": 125
    },
    {
      "midi": 55,
      "hit": false,
      "t": 233166.43349999824,
      "d": 1041.6656249999942,
      "v": 121
    },
    {
      "midi": 58,
      "hit": false,
      "t": 233166.43349999824,
      "d": 1041.6656249999942,
      "v": 125
    },
    {
      "midi": 62,
      "hit": false,
      "t": 233166.43349999824,
      "d": 1041.6656249999942,
      "v": 125
    },
    {
      "midi": 65,
      "hit": false,
      "t": 233166.43349999824,
      "d": 1041.6656249999942,
      "v": 117
    },
    {
      "midi": 44,
      "hit": false,
      "t": 234530.06849999822,
      "d": 132.57562499999767,
      "v": 125
    },
    {
      "midi": 56,
      "hit": false,
      "t": 234530.06849999822,
      "d": 132.57562499999767,
      "v": 117
    },
    {
      "midi": 60,
      "hit": false,
      "t": 234530.06849999822,
      "d": 132.57562499999767,
      "v": 121
    },
    {
      "midi": 63,
      "hit": false,
      "t": 234530.06849999822,
      "d": 132.57562499999767,
      "v": 125
    },
    {
      "midi": 67,
      "hit": false,
      "t": 234530.06849999822,
      "d": 132.57562499999767,
      "v": 117
    },
    {
      "midi": 60,
      "hit": false,
      "t": 234984.6134999982,
      "d": 928.0293750000128,
      "v": 125
    },
    {
      "midi": 56,
      "hit": false,
      "t": 234984.6134999982,
      "d": 1003.7868750000198,
      "v": 113
    },
    {
      "midi": 63,
      "hit": false,
      "t": 234984.6134999982,
      "d": 1003.7868750000198,
      "v": 125
    },
    {
      "midi": 67,
      "hit": false,
      "t": 234984.6134999982,
      "d": 1041.6656250000233,
      "v": 121
    },
    {
      "midi": 44,
      "hit": false,
      "t": 234984.6134999982,
      "d": 1060.6050000000105,
      "v": 125
    },
    {
      "midi": 58,
      "hit": false,
      "t": 236348.2484999982,
      "d": 113.63625000001048,
      "v": 105
    },
    {
      "midi": 65,
      "hit": false,
      "t": 236348.2484999982,
      "d": 113.63625000001048,
      "v": 97
    },
    {
      "midi": 67,
      "hit": false,
      "t": 236348.2484999982,
      "d": 113.63625000001048,
      "v": 97
    },
    {
      "midi": 46,
      "hit": false,
      "t": 236348.2484999982,
      "d": 132.57562499999767,
      "v": 125
    },
    {
      "midi": 62,
      "hit": false,
      "t": 236348.2484999982,
      "d": 132.57562499999767,
      "v": 101
    },
    {
      "midi": 67,
      "hit": false,
      "t": 236575.5209999982,
      "d": 94.69687499999418,
      "v": 113
    },
    {
      "midi": 46,
      "hit": false,
      "t": 236575.5209999982,
      "d": 113.63624999998137,
      "v": 117
    },
    {
      "midi": 65,
      "hit": false,
      "t": 236575.5209999982,
      "d": 113.63624999998137,
      "v": 121
    },
    {
      "midi": 58,
      "hit": false,
      "t": 236575.5209999982,
      "d": 132.57562499996857,
      "v": 109
    },
    {
      "midi": 62,
      "hit": false,
      "t": 236575.5209999982,
      "d": 132.57562499996857,
      "v": 125
    },
    {
      "midi": 56,
      "hit": false,
      "t": 237257.33849999818,
      "d": 56.81812499999069,
      "v": 113
    },
    {
      "midi": 44,
      "hit": false,
      "t": 237257.33849999818,
      "d": 94.69687499999418,
      "v": 125
    },
    {
      "midi": 60,
      "hit": false,
      "t": 237257.33849999818,
      "d": 94.69687499999418,
      "v": 125
    },
    {
      "midi": 63,
      "hit": false,
      "t": 237257.33849999818,
      "d": 94.69687499999418,
      "v": 125
    },
    {
      "midi": 66,
      "hit": false,
      "t": 237257.33849999818,
      "d": 94.69687499999418,
      "v": 113
    },
    {
      "midi": 44,
      "hit": false,
      "t": 237484.61099999817,
      "d": 113.63625000001048,
      "v": 125
    },
    {
      "midi": 63,
      "hit": false,
      "t": 237484.61099999817,
      "d": 113.63625000001048,
      "v": 125
    },
    {
      "midi": 66,
      "hit": false,
      "t": 237484.61099999817,
      "d": 113.63625000001048,
      "v": 113
    },
    {
      "midi": 56,
      "hit": false,
      "t": 237484.61099999817,
      "d": 132.57562499999767,
      "v": 117
    },
    {
      "midi": 60,
      "hit": false,
      "t": 237484.61099999817,
      "d": 132.57562499999767,
      "v": 125
    },
    {
      "midi": 43,
      "hit": false,
      "t": 238166.42849999818,
      "d": 132.57562499999767,
      "v": 105
    },
    {
      "midi": 48,
      "hit": false,
      "t": 238280.0647499982,
      "d": 151.51499999998487,
      "v": 109
    },
    {
      "midi": 50,
      "hit": false,
      "t": 238393.70099999817,
      "d": 75.75750000000698,
      "v": 113
    },
    {
      "midi": 55,
      "hit": false,
      "t": 238507.33724999818,
      "d": 132.57562499999767,
      "v": 101
    },
    {
      "midi": 60,
      "hit": false,
      "t": 238620.9734999982,
      "d": 170.45437499997206,
      "v": 105
    },
    {
      "midi": 62,
      "hit": false,
      "t": 238734.60974999817,
      "d": 94.69687499999418,
      "v": 121
    },
    {
      "midi": 67,
      "hit": false,
      "t": 238848.24599999815,
      "d": 132.57562499999767,
      "v": 97
    },
    {
      "midi": 72,
      "hit": false,
      "t": 238961.88224999816,
      "d": 151.51499999998487,
      "v": 105
    },
    {
      "midi": 74,
      "hit": false,
      "t": 239075.51849999814,
      "d": 75.75750000000698,
      "v": 125
    },
    {
      "midi": 79,
      "hit": false,
      "t": 239189.15474999815,
      "d": 132.57562499999767,
      "v": 105
    },
    {
      "midi": 84,
      "hit": false,
      "t": 239302.79099999816,
      "d": 170.45437499997206,
      "v": 109
    },
    {
      "midi": 86,
      "hit": false,
      "t": 239416.42724999815,
      "d": 151.51499999998487,
      "v": 121
    },
    {
      "midi": 91,
      "hit": false,
      "t": 239530.06349999813,
      "d": 56.81812499999069,
      "v": 125
    },
    {
      "midi": 60,
      "hit": false,
      "t": 239984.6084999981,
      "d": 265.15124999999534,
      "v": 105
    },
    {
      "midi": 67,
      "hit": false,
      "t": 240079.3053749981,
      "d": 208.33312500000466,
      "v": 105
    },
    {
      "midi": 72,
      "hit": false,
      "t": 240211.8809999981,
      "d": 208.33312499997555,
      "v": 109
    },
    {
      "midi": 74,
      "hit": false,
      "t": 240306.5778749981,
      "d": 246.21187499997905,
      "v": 117
    },
    {
      "midi": 60,
      "hit": false,
      "t": 240401.2747499981,
      "d": 359.8481249999895,
      "v": 97
    },
    {
      "midi": 67,
      "hit": false,
      "t": 240514.91099999807,
      "d": 284.09062500001164,
      "v": 93
    },
    {
      "midi": 72,
      "hit": false,
      "t": 240628.54724999808,
      "d": 246.21187500000815,
      "v": 105
    },
    {
      "midi": 74,
      "hit": false,
      "t": 240742.1834999981,
      "d": 246.21187499997905,
      "v": 113
    },
    {
      "midi": 60,
      "hit": false,
      "t": 240874.7591249981,
      "d": 359.8481249999895,
      "v": 97
    },
    {
      "midi": 67,
      "hit": false,
      "t": 240969.45599999808,
      "d": 303.02999999999884,
      "v": 101
    },
    {
      "midi": 72,
      "hit": false,
      "t": 241102.03162499808,
      "d": 265.15124999999534,
      "v": 113
    },
    {
      "midi": 74,
      "hit": false,
      "t": 241234.60724999808,
      "d": 246.21187499997905,
      "v": 113
    },
    {
      "midi": 60,
      "hit": false,
      "t": 241367.18287499808,
      "d": 321.96937499998603,
      "v": 105
    },
    {
      "midi": 67,
      "hit": false,
      "t": 241461.87974999807,
      "d": 265.15124999999534,
      "v": 93
    },
    {
      "midi": 72,
      "hit": false,
      "t": 241575.51599999805,
      "d": 227.27250000002095,
      "v": 105
    },
    {
      "midi": 74,
      "hit": false,
      "t": 241689.15224999806,
      "d": 265.15124999999534,
      "v": 113
    },
    {
      "midi": 60,
      "hit": false,
      "t": 241802.78849999807,
      "d": 340.9087499999732,
      "v": 97
    },
    {
      "midi": 67,
      "hit": false,
      "t": 241897.48537499807,
      "d": 303.02999999996973,
      "v": 101
    },
    {
      "midi": 72,
      "hit": false,
      "t": 242011.12162499805,
      "d": 227.27249999999185,
      "v": 109
    },
    {
      "midi": 74,
      "hit": false,
      "t": 242162.63662499803,
      "d": 208.33312499997555,
      "v": 113
    },
    {
      "midi": 60,
      "hit": false,
      "t": 242257.33349999803,
      "d": 340.9087500000023,
      "v": 97
    },
    {
      "midi": 67,
      "hit": false,
      "t": 242352.03037499802,
      "d": 284.09062499998254,
      "v": 93
    },
    {
      "midi": 72,
      "hit": false,
      "t": 242484.60599999802,
      "d": 227.27249999999185,
      "v": 113
    },
    {
      "midi": 74,
      "hit": false,
      "t": 242617.18162499802,
      "d": 208.33312500000466,
      "v": 113
    },
    {
      "midi": 60,
      "hit": false,
      "t": 242711.878499998,
      "d": 303.03000000002794,
      "v": 97
    },
    {
      "midi": 67,
      "hit": false,
      "t": 242825.51474999802,
      "d": 246.21187500000815,
      "v": 97
    },
    {
      "midi": 72,
      "hit": false,
      "t": 242939.15099999803,
      "d": 208.33312500000466,
      "v": 109
    },
    {
      "midi": 74,
      "hit": false,
      "t": 243052.78724999804,
      "d": 208.33312500000466,
      "v": 105
    },
    {
      "midi": 60,
      "hit": false,
      "t": 243147.48412499804,
      "d": 321.96937500001513,
      "v": 93
    },
    {
      "midi": 67,
      "hit": false,
      "t": 243261.12037499805,
      "d": 284.09062500001164,
      "v": 93
    },
    {
      "midi": 72,
      "hit": false,
      "t": 243374.75662499806,
      "d": 227.27249999999185,
      "v": 101
    },
    {
      "midi": 74,
      "hit": false,
      "t": 243507.33224999806,
      "d": 208.33312500000466,
      "v": 109
    },
    {
      "midi": 60,
      "hit": false,
      "t": 243602.02912499805,
      "d": 340.9087500000023,
      "v": 93
    },
    {
      "midi": 67,
      "hit": false,
      "t": 243715.66537499806,
      "d": 284.09062499998254,
      "v": 97
    },
    {
      "midi": 72,
      "hit": false,
      "t": 243848.24099999806,
      "d": 208.33312499997555,
      "v": 105
    },
    {
      "midi": 74,
      "hit": false,
      "t": 243961.87724999804,
      "d": 227.27249999996275,
      "v": 105
    },
    {
      "midi": 60,
      "hit": false,
      "t": 244075.51349999802,
      "d": 321.96937499998603,
      "v": 85
    },
    {
      "midi": 67,
      "hit": false,
      "t": 244170.21037499802,
      "d": 284.09062499998254,
      "v": 105
    },
    {
      "midi": 72,
      "hit": false,
      "t": 244302.785999998,
      "d": 227.27249999999185,
      "v": 113
    },
    {
      "midi": 74,
      "hit": false,
      "t": 244416.422249998,
      "d": 227.27249999999185,
      "v": 109
    },
    {
      "midi": 60,
      "hit": false,
      "t": 244530.058499998,
      "d": 303.02999999999884,
      "v": 101
    },
    {
      "midi": 67,
      "hit": false,
      "t": 244624.755374998,
      "d": 265.15124999999534,
      "v": 97
    },
    {
      "midi": 72,
      "hit": false,
      "t": 244757.330999998,
      "d": 208.33312500000466,
      "v": 105
    },
    {
      "midi": 74,
      "hit": false,
      "t": 244833.088499998,
      "d": 208.33312500000466,
      "v": 105
    },
    {
      "midi": 60,
      "hit": false,
      "t": 244965.664124998,
      "d": 284.09062500001164,
      "v": 105
    },
    {
      "midi": 67,
      "hit": false,
      "t": 245060.360999998,
      "d": 265.15124999999534,
      "v": 93
    },
    {
      "midi": 72,
      "hit": false,
      "t": 245211.875999998,
      "d": 189.39374999998836,
      "v": 113
    },
    {
      "midi": 74,
      "hit": false,
      "t": 245306.572874998,
      "d": 208.33312499997555,
      "v": 105
    },
    {
      "midi": 60,
      "hit": false,
      "t": 245420.209124998,
      "d": 265.15124999999534,
      "v": 101
    },
    {
      "midi": 67,
      "hit": false,
      "t": 245533.84537499797,
      "d": 227.27250000002095,
      "v": 113
    },
    {
      "midi": 72,
      "hit": false,
      "t": 245647.48162499798,
      "d": 227.27250000002095,
      "v": 109
    },
    {
      "midi": 74,
      "hit": false,
      "t": 245761.117874998,
      "d": 189.39375000001746,
      "v": 109
    },
    {
      "midi": 60,
      "hit": false,
      "t": 245874.754124998,
      "d": 284.09062500001164,
      "v": 105
    },
    {
      "midi": 67,
      "hit": false,
      "t": 245988.390374998,
      "d": 246.21187499997905,
      "v": 105
    },
    {
      "midi": 72,
      "hit": false,
      "t": 246120.965999998,
      "d": 208.33312499997555,
      "v": 113
    },
    {
      "midi": 74,
      "hit": false,
      "t": 246215.662874998,
      "d": 242.42399999996996,
      "v": 105
    },
    {
      "midi": 60,
      "hit": false,
      "t": 246348.23849999797,
      "d": 284.09062500001164,
      "v": 109
    },
    {
      "midi": 67,
      "hit": false,
      "t": 246442.93537499796,
      "d": 265.15125000002445,
      "v": 85
    },
    {
      "midi": 72,
      "hit": false,
      "t": 246594.45037499798,
      "d": 208.33312500000466,
      "v": 117
    },
    {
      "midi": 74,
      "hit": false,
      "t": 246708.086624998,
      "d": 227.27249999999185,
      "v": 109
    },
    {
      "midi": 60,
      "hit": false,
      "t": 246802.78349999798,
      "d": 303.02999999999884,
      "v": 105
    },
    {
      "midi": 67,
      "hit": false,
      "t": 246916.419749998,
      "d": 227.27249999999185,
      "v": 101
    },
    {
      "midi": 72,
      "hit": false,
      "t": 247048.995374998,
      "d": 227.27249999999185,
      "v": 109
    },
    {
      "midi": 74,
      "hit": false,
      "t": 247162.63162499797,
      "d": 227.27249999999185,
      "v": 113
    },
    {
      "midi": 60,
      "hit": false,
      "t": 247276.26787499798,
      "d": 265.15124999999534,
      "v": 109
    },
    {
      "midi": 67,
      "hit": false,
      "t": 247370.96474999798,
      "d": 227.27249999999185,
      "v": 97
    },
    {
      "midi": 72,
      "hit": false,
      "t": 247503.54037499797,
      "d": 208.33312499997555,
      "v": 113
    },
    {
      "midi": 74,
      "hit": false,
      "t": 247617.17662499796,
      "d": 208.33312499997555,
      "v": 113
    },
    {
      "midi": 60,
      "hit": false,
      "t": 247711.87349999795,
      "d": 265.15124999999534,
      "v": 101
    },
    {
      "midi": 67,
      "hit": false,
      "t": 247806.57037499794,
      "d": 284.09062499998254,
      "v": 101
    },
    {
      "midi": 72,
      "hit": false,
      "t": 247939.14599999794,
      "d": 208.33312499997555,
      "v": 105
    },
    {
      "midi": 74,
      "hit": false,
      "t": 248033.84287499794,
      "d": 227.27249999999185,
      "v": 105
    },
    {
      "midi": 60,
      "hit": false,
      "t": 248147.47912499792,
      "d": 284.09062500001164,
      "v": 93
    },
    {
      "midi": 67,
      "hit": false,
      "t": 248261.11537499793,
      "d": 284.09062500001164,
      "v": 93
    },
    {
      "midi": 72,
      "hit": false,
      "t": 248393.69099999793,
      "d": 227.27250000002095,
      "v": 109
    },
    {
      "midi": 74,
      "hit": false,
      "t": 248507.32724999794,
      "d": 208.33312500000466,
      "v": 105
    },
    {
      "midi": 60,
      "hit": false,
      "t": 248620.96349999795,
      "d": 265.15124999999534,
      "v": 105
    },
    {
      "midi": 67,
      "hit": false,
      "t": 248715.66037499794,
      "d": 265.15124999999534,
      "v": 81
    },
    {
      "midi": 72,
      "hit": false,
      "t": 248867.17537499795,
      "d": 208.33312499997555,
      "v": 97
    },
    {
      "midi": 74,
      "hit": false,
      "t": 248961.87224999795,
      "d": 208.33312499997555,
      "v": 105
    },
    {
      "midi": 60,
      "hit": false,
      "t": 249075.50849999793,
      "d": 265.15124999999534,
      "v": 101
    },
    {
      "midi": 67,
      "hit": false,
      "t": 249170.20537499792,
      "d": 284.09062500001164,
      "v": 77
    },
    {
      "midi": 72,
      "hit": false,
      "t": 249321.72037499794,
      "d": 208.33312500000466,
      "v": 113
    },
    {
      "midi": 74,
      "hit": false,
      "t": 249416.41724999793,
      "d": 208.33312500000466,
      "v": 93
    },
    {
      "midi": 60,
      "hit": false,
      "t": 249530.05349999794,
      "d": 321.96937499998603,
      "v": 93
    },
    {
      "midi": 67,
      "hit": false,
      "t": 249624.75037499794,
      "d": 284.09062499998254,
      "v": 77
    },
    {
      "midi": 72,
      "hit": false,
      "t": 249757.32599999793,
      "d": 208.33312499997555,
      "v": 113
    },
    {
      "midi": 74,
      "hit": false,
      "t": 249889.90162499793,
      "d": 189.39374999995925,
      "v": 105
    },
    {
      "midi": 60,
      "hit": false,
      "t": 249984.5984999979,
      "d": 284.09062499998254,
      "v": 93
    },
    {
      "midi": 67,
      "hit": false,
      "t": 250098.23474999788,
      "d": 227.27249999999185,
      "v": 97
    },
    {
      "midi": 72,
      "hit": false,
      "t": 250211.8709999979,
      "d": 208.33312499997555,
      "v": 109
    },
    {
      "midi": 74,
      "hit": false,
      "t": 250325.50724999787,
      "d": 208.33312500000466,
      "v": 101
    },
    {
      "midi": 60,
      "hit": false,
      "t": 250458.08287499787,
      "d": 265.15124999999534,
      "v": 89
    },
    {
      "midi": 67,
      "hit": false,
      "t": 250552.77974999786,
      "d": 227.27249999999185,
      "v": 81
    },
    {
      "midi": 72,
      "hit": false,
      "t": 250666.41599999787,
      "d": 208.33312499997555,
      "v": 105
    },
    {
      "midi": 74,
      "hit": false,
      "t": 250761.11287499787,
      "d": 227.27249999996275,
      "v": 97
    },
    {
      "midi": 60,
      "hit": false,
      "t": 250893.68849999784,
      "d": 246.21187499997905,
      "v": 97
    },
    {
      "midi": 67,
      "hit": false,
      "t": 250988.38537499783,
      "d": 208.33312499997555,
      "v": 89
    },
    {
      "midi": 72,
      "hit": false,
      "t": 251120.96099999783,
      "d": 227.27249999999185,
      "v": 105
    },
    {
      "midi": 74,
      "hit": false,
      "t": 251234.5972499978,
      "d": 208.33312500000466,
      "v": 105
    },
    {
      "midi": 60,
      "hit": false,
      "t": 251348.23349999782,
      "d": 246.21187499997905,
      "v": 97
    },
    {
      "midi": 67,
      "hit": false,
      "t": 251461.8697499978,
      "d": 227.27249999999185,
      "v": 93
    },
    {
      "midi": 72,
      "hit": false,
      "t": 251575.5059999978,
      "d": 208.33312499997555,
      "v": 89
    },
    {
      "midi": 74,
      "hit": false,
      "t": 251689.1422499978,
      "d": 227.27249999999185,
      "v": 101
    },
    {
      "midi": 60,
      "hit": false,
      "t": 251802.77849999777,
      "d": 284.09062500001164,
      "v": 97
    },
    {
      "midi": 67,
      "hit": false,
      "t": 251916.41474999778,
      "d": 227.27249999999185,
      "v": 93
    },
    {
      "midi": 72,
      "hit": false,
      "t": 252030.0509999978,
      "d": 227.27249999999185,
      "v": 89
    },
    {
      "midi": 74,
      "hit": false,
      "t": 252143.68724999778,
      "d": 208.33312500000466,
      "v": 105
    },
    {
      "midi": 60,
      "hit": false,
      "t": 252257.3234999978,
      "d": 265.15124999999534,
      "v": 105
    },
    {
      "midi": 67,
      "hit": false,
      "t": 252370.95974999777,
      "d": 208.33312500000466,
      "v": 109
    },
    {
      "midi": 72,
      "hit": false,
      "t": 252484.59599999778,
      "d": 227.27249999999185,
      "v": 109
    },
    {
      "midi": 74,
      "hit": false,
      "t": 252598.23224999776,
      "d": 208.33312500000466,
      "v": 105
    },
    {
      "midi": 60,
      "hit": false,
      "t": 252711.86849999777,
      "d": 303.02999999996973,
      "v": 105
    },
    {
      "midi": 67,
      "hit": false,
      "t": 252825.50474999775,
      "d": 246.21187499997905,
      "v": 97
    },
    {
      "midi": 72,
      "hit": false,
      "t": 252920.20162499775,
      "d": 227.27249999999185,
      "v": 101
    },
    {
      "midi": 74,
      "hit": false,
      "t": 253033.83787499773,
      "d": 227.27250000002095,
      "v": 105
    },
    {
      "midi": 60,
      "hit": false,
      "t": 253147.47412499774,
      "d": 303.03000000002794,
      "v": 105
    },
    {
      "midi": 67,
      "hit": false,
      "t": 253261.11037499775,
      "d": 284.09062500001164,
      "v": 97
    },
    {
      "midi": 72,
      "hit": false,
      "t": 253374.74662499776,
      "d": 227.27249999999185,
      "v": 97
    },
    {
      "midi": 74,
      "hit": false,
      "t": 253488.38287499777,
      "d": 208.33312499997555,
      "v": 105
    },
    {
      "midi": 60,
      "hit": false,
      "t": 253602.01912499775,
      "d": 303.02999999996973,
      "v": 101
    },
    {
      "midi": 67,
      "hit": false,
      "t": 253715.65537499773,
      "d": 284.09062499998254,
      "v": 85
    },
    {
      "midi": 72,
      "hit": false,
      "t": 253848.23099999773,
      "d": 227.27249999999185,
      "v": 105
    },
    {
      "midi": 74,
      "hit": false,
      "t": 253961.8672499977,
      "d": 208.33312500000466,
      "v": 113
    },
    {
      "midi": 60,
      "hit": false,
      "t": 254075.50349999772,
      "d": 303.02999999999884,
      "v": 105
    },
    {
      "midi": 67,
      "hit": false,
      "t": 254189.1397499977,
      "d": 246.21187500000815,
      "v": 89
    },
    {
      "midi": 72,
      "hit": false,
      "t": 254264.8972499977,
      "d": 265.15124999999534,
      "v": 89
    },
    {
      "midi": 74,
      "hit": false,
      "t": 254397.4728749977,
      "d": 132.57562499999767,
      "v": 113
    },
    {
      "midi": 60,
      "hit": false,
      "t": 254530.0484999977,
      "d": 359.8481249999895,
      "v": 101
    }
  ]
}