{
  "jsonPath": "Blues/Rhythm And Blues/The Dells/give-your-baby-a-standing-ovation.json",
  "path": "Blues\\Rhythm And Blues\\The Dells\\Give Your Baby A Standing Ovation.mid",
  "name": "Give Your Baby A Standing Ovation",
  "difficulty": "Advanced",
  "bpm": 67.00002903334591,
  "notes": [
    {
      "midi": 59,
      "hit": false,
      "t": 7161.843911458334,
      "d": 289.178979166667,
      "v": 76
    },
    {
      "midi": 68,
      "hit": false,
      "t": 7161.843911458334,
      "d": 531.7161875000002,
      "v": 86
    },
    {
      "midi": 64,
      "hit": false,
      "t": 7161.843911458334,
      "d": 559.7012500000001,
      "v": 90
    },
    {
      "midi": 52,
      "hit": false,
      "t": 7161.843911458334,
      "d": 1669.7753958333324,
      "v": 62
    },
    {
      "midi": 59,
      "hit": false,
      "t": 7665.575036458335,
      "d": 494.4027708333342,
      "v": 52
    },
    {
      "midi": 68,
      "hit": false,
      "t": 8076.022619791668,
      "d": 541.0445416666653,
      "v": 90
    },
    {
      "midi": 64,
      "hit": false,
      "t": 8085.350973958335,
      "d": 429.10429166666654,
      "v": 86
    },
    {
      "midi": 59,
      "hit": false,
      "t": 8523.783619791668,
      "d": 279.8506249999991,
      "v": 64
    },
    {
      "midi": 69,
      "hit": false,
      "t": 8908.578229166667,
      "d": 475.7460624999985,
      "v": 80
    },
    {
      "midi": 61,
      "hit": false,
      "t": 8917.906583333333,
      "d": 326.4923958333329,
      "v": 56
    },
    {
      "midi": 64,
      "hit": false,
      "t": 8917.906583333333,
      "d": 531.7161874999983,
      "v": 86
    },
    {
      "midi": 52,
      "hit": false,
      "t": 8917.906583333333,
      "d": 1669.7753958333305,
      "v": 60
    },
    {
      "midi": 61,
      "hit": false,
      "t": 9421.637708333332,
      "d": 662.3131458333337,
      "v": 72
    },
    {
      "midi": 69,
      "hit": false,
      "t": 9841.413645833332,
      "d": 550.372895833334,
      "v": 90
    },
    {
      "midi": 64,
      "hit": false,
      "t": 9850.741999999998,
      "d": 466.4177083333343,
      "v": 80
    },
    {
      "midi": 61,
      "hit": false,
      "t": 10261.189583333333,
      "d": 261.19391666666525,
      "v": 56
    },
    {
      "midi": 64,
      "hit": false,
      "t": 10485.070083333332,
      "d": 177.2387291666655,
      "v": 58
    },
    {
      "midi": 59,
      "hit": false,
      "t": 10736.935645833331,
      "d": 251.8655624999992,
      "v": 72
    },
    {
      "midi": 64,
      "hit": false,
      "t": 10736.935645833331,
      "d": 522.3878333333323,
      "v": 56
    },
    {
      "midi": 68,
      "hit": false,
      "t": 10736.935645833331,
      "d": 541.0445416666662,
      "v": 68
    },
    {
      "midi": 52,
      "hit": false,
      "t": 10736.935645833331,
      "d": 3124.9986458333333,
      "v": 54
    },
    {
      "midi": 59,
      "hit": false,
      "t": 11194.024999999998,
      "d": 643.6564374999998,
      "v": 56
    },
    {
      "midi": 64,
      "hit": false,
      "t": 11632.45764583333,
      "d": 401.1192291666666,
      "v": 94
    },
    {
      "midi": 68,
      "hit": false,
      "t": 11632.45764583333,
      "d": 569.0296041666661,
      "v": 90
    },
    {
      "midi": 59,
      "hit": false,
      "t": 12061.561937499997,
      "d": 317.1640416666669,
      "v": 56
    },
    {
      "midi": 69,
      "hit": false,
      "t": 12499.994583333331,
      "d": 475.7460624999985,
      "v": 80
    },
    {
      "midi": 64,
      "hit": false,
      "t": 12499.994583333331,
      "d": 522.3878333333323,
      "v": 80
    },
    {
      "midi": 61,
      "hit": false,
      "t": 12509.322937499997,
      "d": 298.507333333333,
      "v": 60
    },
    {
      "midi": 61,
      "hit": false,
      "t": 12994.397354166664,
      "d": 652.9847916666677,
      "v": 72
    },
    {
      "midi": 64,
      "hit": false,
      "t": 13414.173291666664,
      "d": 447.7610000000004,
      "v": 90
    },
    {
      "midi": 69,
      "hit": false,
      "t": 13414.173291666664,
      "d": 736.9399791666674,
      "v": 90
    },
    {
      "midi": 61,
      "hit": false,
      "t": 13861.934291666665,
      "d": 307.83568750000086,
      "v": 68
    },
    {
      "midi": 64,
      "hit": false,
      "t": 14104.471499999998,
      "d": 149.2536666666674,
      "v": 56
    },
    {
      "midi": 40,
      "hit": false,
      "t": 14300.366937499999,
      "d": 1455.223249999999,
      "v": 62
    },
    {
      "midi": 64,
      "hit": false,
      "t": 14319.023645833333,
      "d": 485.07441666666637,
      "v": 80
    },
    {
      "midi": 59,
      "hit": false,
      "t": 14328.351999999999,
      "d": 242.53720833333318,
      "v": 80
    },
    {
      "midi": 68,
      "hit": false,
      "t": 14328.351999999999,
      "d": 531.7161875000002,
      "v": 68
    },
    {
      "midi": 59,
      "hit": false,
      "t": 14748.1279375,
      "d": 699.6265624999996,
      "v": 68
    },
    {
      "midi": 64,
      "hit": false,
      "t": 15177.232229166666,
      "d": 466.4177083333325,
      "v": 76
    },
    {
      "midi": 68,
      "hit": false,
      "t": 15177.232229166666,
      "d": 578.3579583333321,
      "v": 86
    },
    {
      "midi": 59,
      "hit": false,
      "t": 15643.649937499998,
      "d": 354.47745833333283,
      "v": 58
    },
    {
      "midi": 40,
      "hit": false,
      "t": 15802.231958333332,
      "d": 139.92531249999956,
      "v": 34
    },
    {
      "midi": 69,
      "hit": false,
      "t": 16082.082583333331,
      "d": 559.7012500000001,
      "v": 76
    },
    {
      "midi": 39,
      "hit": false,
      "t": 16082.082583333331,
      "d": 1847.0141249999997,
      "v": 76
    },
    {
      "midi": 60,
      "hit": false,
      "t": 16091.410937499997,
      "d": 317.1640416666669,
      "v": 56
    },
    {
      "midi": 63,
      "hit": false,
      "t": 16091.410937499997,
      "d": 522.3878333333341,
      "v": 68
    },
    {
      "midi": 66,
      "hit": false,
      "t": 16091.410937499997,
      "d": 522.3878333333341,
      "v": 62
    },
    {
      "midi": 60,
      "hit": false,
      "t": 16548.500291666664,
      "d": 680.9698541666694,
      "v": 64
    },
    {
      "midi": 69,
      "hit": false,
      "t": 16977.60458333333,
      "d": 429.1042916666702,
      "v": 76
    },
    {
      "midi": 63,
      "hit": false,
      "t": 16986.932937499998,
      "d": 513.0594791666663,
      "v": 60
    },
    {
      "midi": 66,
      "hit": false,
      "t": 16996.261291666666,
      "d": 410.4475833333345,
      "v": 60
    },
    {
      "midi": 60,
      "hit": false,
      "t": 17453.350645833332,
      "d": 298.5073333333312,
      "v": 64
    },
    {
      "midi": 37,
      "hit": false,
      "t": 17873.12658333333,
      "d": 1819.0290625000016,
      "v": 62
    },
    {
      "midi": 61,
      "hit": false,
      "t": 17901.11164583333,
      "d": 298.5073333333348,
      "v": 68
    },
    {
      "midi": 68,
      "hit": false,
      "t": 17901.11164583333,
      "d": 587.6863125000018,
      "v": 62
    },
    {
      "midi": 64,
      "hit": false,
      "t": 17910.44,
      "d": 494.4027708333342,
      "v": 72
    },
    {
      "midi": 61,
      "hit": false,
      "t": 18367.529354166665,
      "d": 438.4326458333344,
      "v": 60
    },
    {
      "midi": 61,
      "hit": false,
      "t": 18833.9470625,
      "d": 214.5521458333351,
      "v": 46
    },
    {
      "midi": 64,
      "hit": false,
      "t": 18833.9470625,
      "d": 410.4475833333345,
      "v": 80
    },
    {
      "midi": 68,
      "hit": false,
      "t": 18833.9470625,
      "d": 559.7012499999983,
      "v": 76
    },
    {
      "midi": 61,
      "hit": false,
      "t": 19263.051354166666,
      "d": 279.8506249999991,
      "v": 62
    },
    {
      "midi": 59,
      "hit": false,
      "t": 19673.498937499997,
      "d": 307.8356875000027,
      "v": 80
    },
    {
      "midi": 68,
      "hit": false,
      "t": 19673.498937499997,
      "d": 578.357958333334,
      "v": 64
    },
    {
      "midi": 64,
      "hit": false,
      "t": 19682.827291666665,
      "d": 550.372895833334,
      "v": 68
    },
    {
      "midi": 47,
      "hit": false,
      "t": 19692.155645833333,
      "d": 1791.0440000000017,
      "v": 56
    },
    {
      "midi": 59,
      "hit": false,
      "t": 20158.573354166667,
      "d": 708.9549166666657,
      "v": 60
    },
    {
      "midi": 68,
      "hit": false,
      "t": 20578.349291666666,
      "d": 447.76100000000224,
      "v": 68
    },
    {
      "midi": 64,
      "hit": false,
      "t": 20587.677645833333,
      "d": 438.4326458333344,
      "v": 76
    },
    {
      "midi": 59,
      "hit": false,
      "t": 21016.7819375,
      "d": 634.3280833333338,
      "v": 72
    },
    {
      "midi": 45,
      "hit": false,
      "t": 21427.229520833334,
      "d": 3208.9538333333294,
      "v": 62
    },
    {
      "midi": 61,
      "hit": false,
      "t": 21445.886229166666,
      "d": 2210.8199375000004,
      "v": 62
    },
    {
      "midi": 64,
      "hit": false,
      "t": 21445.886229166666,
      "d": 2220.1482916666682,
      "v": 72
    },
    {
      "midi": 57,
      "hit": false,
      "t": 21930.960645833333,
      "d": 1725.745520833334,
      "v": 50
    },
    {
      "midi": 52,
      "hit": false,
      "t": 23787.303125000002,
      "d": 774.2533958333297,
      "v": 32
    },
    {
      "midi": 61,
      "hit": false,
      "t": 24160.43729166667,
      "d": 298.5073333333312,
      "v": 102
    },
    {
      "midi": 64,
      "hit": false,
      "t": 24384.31779166667,
      "d": 223.88049999999566,
      "v": 94
    },
    {
      "midi": 61,
      "hit": false,
      "t": 24608.198291666664,
      "d": 531.7161874999983,
      "v": 32
    },
    {
      "midi": 66,
      "hit": false,
      "t": 24617.52664583333,
      "d": 354.477458333331,
      "v": 102
    },
    {
      "midi": 40,
      "hit": false,
      "t": 25074.615999999995,
      "d": 1399.2531249999956,
      "v": 56
    },
    {
      "midi": 64,
      "hit": false,
      "t": 25083.944354166662,
      "d": 2621.2675208333276,
      "v": 80
    },
    {
      "midi": 56,
      "hit": false,
      "t": 25093.27270833333,
      "d": 1464.5516041666597,
      "v": 86
    },
    {
      "midi": 47,
      "hit": false,
      "t": 25559.69041666666,
      "d": 727.6116249999977,
      "v": 24
    },
    {
      "midi": 59,
      "hit": false,
      "t": 25979.46635416666,
      "d": 671.6414999999979,
      "v": 56
    },
    {
      "midi": 47,
      "hit": false,
      "t": 26483.197479166658,
      "d": 1679.103750000002,
      "v": 36
    },
    {
      "midi": 40,
      "hit": false,
      "t": 26828.346583333325,
      "d": 1268.6561666666676,
      "v": 54
    },
    {
      "midi": 57,
      "hit": false,
      "t": 26847.003291666657,
      "d": 830.2235208333332,
      "v": 52
    },
    {
      "midi": 61,
      "hit": false,
      "t": 26865.65999999999,
      "d": 820.895166666669,
      "v": 58
    },
    {
      "midi": 57,
      "hit": false,
      "t": 27742.525291666658,
      "d": 802.2384583333333,
      "v": 40
    },
    {
      "midi": 64,
      "hit": false,
      "t": 27751.853645833326,
      "d": 485.07441666666637,
      "v": 50
    },
    {
      "midi": 61,
      "hit": false,
      "t": 27751.853645833326,
      "d": 624.9997291666659,
      "v": 50
    },
    {
      "midi": 69,
      "hit": false,
      "t": 28022.37591666666,
      "d": 652.9847916666622,
      "v": 34
    },
    {
      "midi": 68,
      "hit": false,
      "t": 28600.73387499999,
      "d": 811.5668124999975,
      "v": 64
    },
    {
      "midi": 52,
      "hit": false,
      "t": 28628.71893749999,
      "d": 2527.98397916666,
      "v": 28
    },
    {
      "midi": 59,
      "hit": false,
      "t": 28675.360708333323,
      "d": 326.4923958333311,
      "v": 50
    },
    {
      "midi": 64,
      "hit": false,
      "t": 28749.987541666655,
      "d": 419.7759374999987,
      "v": 10
    },
    {
      "midi": 59,
      "hit": false,
      "t": 29085.808291666654,
      "d": 727.6116250000014,
      "v": 56
    },
    {
      "midi": 68,
      "hit": false,
      "t": 29496.255874999988,
      "d": 848.8802291666652,
      "v": 58
    },
    {
      "midi": 64,
      "hit": false,
      "t": 29505.584229166656,
      "d": 820.8951666666653,
      "v": 60
    },
    {
      "midi": 59,
      "hit": false,
      "t": 29962.673583333322,
      "d": 792.9101041666618,
      "v": 50
    },
    {
      "midi": 64,
      "hit": false,
      "t": 30391.777874999985,
      "d": 447.7609999999986,
      "v": 50
    },
    {
      "midi": 68,
      "hit": false,
      "t": 30391.777874999985,
      "d": 858.2085833333331,
      "v": 50
    },
    {
      "midi": 59,
      "hit": false,
      "t": 30839.538874999984,
      "d": 214.5521458333351,
      "v": 52
    },
    {
      "midi": 56,
      "hit": false,
      "t": 31128.71785416665,
      "d": 139.92531249999956,
      "v": 30
    },
    {
      "midi": 69,
      "hit": false,
      "t": 31296.62822916665,
      "d": 503.7311249999948,
      "v": 72
    },
    {
      "midi": 52,
      "hit": false,
      "t": 31296.62822916665,
      "d": 652.9847916666622,
      "v": 48
    },
    {
      "midi": 64,
      "hit": false,
      "t": 31305.956583333318,
      "d": 345.14910416666316,
      "v": 72
    },
    {
      "midi": 61,
      "hit": false,
      "t": 31324.61329166665,
      "d": 55.970124999999825,
      "v": 44
    },
    {
      "midi": 61,
      "hit": false,
      "t": 31548.49379166665,
      "d": 550.3728958333304,
      "v": 60
    },
    {
      "midi": 64,
      "hit": false,
      "t": 31753.717583333313,
      "d": 373.1341666666667,
      "v": 80
    },
    {
      "midi": 69,
      "hit": false,
      "t": 31958.94137499998,
      "d": 186.56708333333518,
      "v": 62
    },
    {
      "midi": 56,
      "hit": false,
      "t": 31968.269729166648,
      "d": 167.91037499999948,
      "v": 16
    },
    {
      "midi": 52,
      "hit": false,
      "t": 32154.836812499983,
      "d": 1268.6561666666676,
      "v": 64
    },
    {
      "midi": 64,
      "hit": false,
      "t": 32182.821874999983,
      "d": 886.193645833333,
      "v": 76
    },
    {
      "midi": 59,
      "hit": false,
      "t": 32192.15022916665,
      "d": 764.9250416666655,
      "v": 80
    },
    {
      "midi": 68,
      "hit": false,
      "t": 32192.15022916665,
      "d": 1203.3576874999962,
      "v": 72
    },
    {
      "midi": 56,
      "hit": false,
      "t": 32705.209708333317,
      "d": 587.6863124999982,
      "v": 30
    },
    {
      "midi": 59,
      "hit": false,
      "t": 33115.65729166665,
      "d": 541.0445416666698,
      "v": 58
    },
    {
      "midi": 64,
      "hit": false,
      "t": 33348.866145833315,
      "d": 1492.5366666666887,
      "v": 60
    },
    {
      "midi": 68,
      "hit": false,
      "t": 33582.07499999998,
      "d": 457.089354166681,
      "v": 60
    },
    {
      "midi": 59,
      "hit": false,
      "t": 33768.64208333332,
      "d": 130.59695833333535,
      "v": 56
    },
    {
      "midi": 45,
      "hit": false,
      "t": 33973.86587499999,
      "d": 1427.2381875000283,
      "v": 40
    },
    {
      "midi": 69,
      "hit": false,
      "t": 34001.85093749999,
      "d": 820.8951666666762,
      "v": 52
    },
    {
      "midi": 61,
      "hit": false,
      "t": 34029.835999999996,
      "d": 783.5817500000048,
      "v": 54
    },
    {
      "midi": 52,
      "hit": false,
      "t": 34505.5820625,
      "d": 550.372895833345,
      "v": 10
    },
    {
      "midi": 69,
      "hit": false,
      "t": 34906.70129166667,
      "d": 727.6116250000123,
      "v": 60
    },
    {
      "midi": 64,
      "hit": false,
      "t": 34906.70129166667,
      "d": 764.9250416666764,
      "v": 54
    },
    {
      "midi": 61,
      "hit": false,
      "t": 34916.02964583334,
      "d": 279.8506250000064,
      "v": 56
    },
    {
      "midi": 61,
      "hit": false,
      "t": 35373.11900000001,
      "d": 307.8356875000027,
      "v": 52
    },
    {
      "midi": 52,
      "hit": false,
      "t": 35401.10406250002,
      "d": 186.56708333333518,
      "v": 48
    },
    {
      "midi": 52,
      "hit": false,
      "t": 35774.23822916668,
      "d": 1417.9098333333386,
      "v": 56
    },
    {
      "midi": 64,
      "hit": false,
      "t": 35783.56658333335,
      "d": 1688.43210416667,
      "v": 60
    },
    {
      "midi": 59,
      "hit": false,
      "t": 35792.894937500016,
      "d": 858.2085833333331,
      "v": 60
    },
    {
      "midi": 68,
      "hit": false,
      "t": 35802.22329166668,
      "d": 1632.46197916667,
      "v": 54
    },
    {
      "midi": 56,
      "hit": false,
      "t": 36277.969354166686,
      "d": 559.7012499999983,
      "v": 30
    },
    {
      "midi": 59,
      "hit": false,
      "t": 36725.730354166684,
      "d": 708.9549166666693,
      "v": 46
    },
    {
      "midi": 56,
      "hit": false,
      "t": 37182.81970833335,
      "d": 289.178979166667,
      "v": 26
    },
    {
      "midi": 68,
      "hit": false,
      "t": 37537.297166666685,
      "d": 298.5073333333348,
      "v": 102
    },
    {
      "midi": 52,
      "hit": false,
      "t": 37537.297166666685,
      "d": 820.895166666669,
      "v": 68
    },
    {
      "midi": 59,
      "hit": false,
      "t": 37751.84931250002,
      "d": 764.9250416666764,
      "v": 94
    },
    {
      "midi": 64,
      "hit": false,
      "t": 37975.72981250002,
      "d": 279.8506249999991,
      "v": 90
    },
    {
      "midi": 68,
      "hit": false,
      "t": 38180.95360416669,
      "d": 195.89543750000303,
      "v": 76
    },
    {
      "midi": 71,
      "hit": false,
      "t": 38432.81916666669,
      "d": 541.0445416666698,
      "v": 102
    },
    {
      "midi": 51,
      "hit": false,
      "t": 38451.475875000026,
      "d": 802.2384583333333,
      "v": 76
    },
    {
      "midi": 59,
      "hit": false,
      "t": 38694.01308333336,
      "d": 485.0744166666627,
      "v": 68
    },
    {
      "midi": 63,
      "hit": false,
      "t": 38917.89358333336,
      "d": 373.1341666666631,
      "v": 90
    },
    {
      "midi": 71,
      "hit": false,
      "t": 39132.44572916669,
      "d": 167.91037499999948,
      "v": 72
    },
    {
      "midi": 49,
      "hit": false,
      "t": 39365.65458333336,
      "d": 1063.4323750000185,
      "v": 72
    },
    {
      "midi": 61,
      "hit": false,
      "t": 39365.65458333336,
      "d": 1688.4321041666844,
      "v": 72
    },
    {
      "midi": 64,
      "hit": false,
      "t": 39365.65458333336,
      "d": 1735.0738750000164,
      "v": 90
    },
    {
      "midi": 68,
      "hit": false,
      "t": 39384.311291666694,
      "d": 1716.4171666666807,
      "v": 68
    },
    {
      "midi": 56,
      "hit": false,
      "t": 39925.355833333364,
      "d": 195.89543750000303,
      "v": 18
    },
    {
      "midi": 56,
      "hit": false,
      "t": 40261.17658333337,
      "d": 46.64177083333925,
      "v": 24
    },
    {
      "midi": 71,
      "hit": false,
      "t": 40279.833291666706,
      "d": 811.5668125000011,
      "v": 60
    },
    {
      "midi": 56,
      "hit": false,
      "t": 40764.907708333376,
      "d": 363.8058125000025,
      "v": 48
    },
    {
      "midi": 49,
      "hit": false,
      "t": 41166.02693750004,
      "d": 1287.3128750000178,
      "v": 38
    },
    {
      "midi": 71,
      "hit": false,
      "t": 41184.68364583338,
      "d": 802.2384583333405,
      "v": 52
    },
    {
      "midi": 68,
      "hit": false,
      "t": 41184.68364583338,
      "d": 811.5668125000084,
      "v": 56
    },
    {
      "midi": 64,
      "hit": false,
      "t": 41184.68364583338,
      "d": 820.8951666666762,
      "v": 64
    },
    {
      "midi": 61,
      "hit": false,
      "t": 41194.012000000046,
      "d": 764.9250416666691,
      "v": 54
    },
    {
      "midi": 71,
      "hit": false,
      "t": 42080.20564583339,
      "d": 345.1491041666668,
      "v": 52
    },
    {
      "midi": 64,
      "hit": false,
      "t": 42080.20564583339,
      "d": 382.4625208333382,
      "v": 52
    },
    {
      "midi": 68,
      "hit": false,
      "t": 42089.53400000006,
      "d": 354.47745833333465,
      "v": 50
    },
    {
      "midi": 61,
      "hit": false,
      "t": 42098.862354166726,
      "d": 419.7759375000023,
      "v": 42
    },
    {
      "midi": 49,
      "hit": false,
      "t": 42537.295000000064,
      "d": 195.89543750000303,
      "v": 60
    },
    {
      "midi": 44,
      "hit": false,
      "t": 42957.070937500066,
      "d": 1660.447041666681,
      "v": 60
    },
    {
      "midi": 56,
      "hit": false,
      "t": 42975.7276458334,
      "d": 942.1637708333365,
      "v": 60
    },
    {
      "midi": 63,
      "hit": false,
      "t": 42975.7276458334,
      "d": 1147.3875625000073,
      "v": 76
    },
    {
      "midi": 59,
      "hit": false,
      "t": 42985.05600000007,
      "d": 951.4921250000043,
      "v": 76
    },
    {
      "midi": 51,
      "hit": false,
      "t": 43889.906354166735,
      "d": 755.5966875000158,
      "v": 46
    },
    {
      "midi": 58,
      "hit": false,
      "t": 44095.130145833406,
      "d": 233.20885416667443,
      "v": 64
    },
    {
      "midi": 59,
      "hit": false,
      "t": 44319.01064583341,
      "d": 1921.640958333337,
      "v": 76
    },
    {
      "midi": 66,
      "hit": false,
      "t": 44514.906083333415,
      "d": 1072.7607291666718,
      "v": 72
    },
    {
      "midi": 44,
      "hit": false,
      "t": 44776.100000000086,
      "d": 1744.4022291666697,
      "v": 62
    },
    {
      "midi": 51,
      "hit": false,
      "t": 45186.54758333342,
      "d": 662.31314583333,
      "v": 40
    },
    {
      "midi": 66,
      "hit": false,
      "t": 45634.30858333342,
      "d": 876.8652916666688,
      "v": 52
    },
    {
      "midi": 56,
      "hit": false,
      "t": 45643.63693750009,
      "d": 550.3728958333304,
      "v": 50
    },
    {
      "midi": 51,
      "hit": false,
      "t": 46091.397937500085,
      "d": 177.23872916666733,
      "v": 52
    },
    {
      "midi": 61,
      "hit": false,
      "t": 46539.15893750009,
      "d": 820.895166666669,
      "v": 60
    },
    {
      "midi": 57,
      "hit": false,
      "t": 46539.15893750009,
      "d": 2378.7303125000035,
      "v": 56
    },
    {
      "midi": 45,
      "hit": false,
      "t": 46548.48729166676,
      "d": 1361.9397083333388,
      "v": 56
    },
    {
      "midi": 52,
      "hit": false,
      "t": 47061.546770833425,
      "d": 541.0445416666698,
      "v": 30
    },
    {
      "midi": 64,
      "hit": false,
      "t": 47425.35258333343,
      "d": 2154.849812499997,
      "v": 48
    },
    {
      "midi": 59,
      "hit": false,
      "t": 47434.680937500096,
      "d": 513.0594791666663,
      "v": 76
    },
    {
      "midi": 52,
      "hit": false,
      "t": 47891.77029166676,
      "d": 429.1042916666629,
      "v": 50
    },
    {
      "midi": 61,
      "hit": false,
      "t": 48152.964208333426,
      "d": 914.1787083333329,
      "v": 56
    },
    {
      "midi": 69,
      "hit": false,
      "t": 48339.53129166676,
      "d": 410.4475833333345,
      "v": 62
    },
    {
      "midi": 45,
      "hit": false,
      "t": 48339.53129166676,
      "d": 1529.850083333331,
      "v": 62
    },
    {
      "midi": 52,
      "hit": false,
      "t": 48805.949000000095,
      "d": 811.5668124999938,
      "v": 36
    },
    {
      "midi": 57,
      "hit": false,
      "t": 49253.710000000094,
      "d": 792.9101041666581,
      "v": 68
    },
    {
      "midi": 59,
      "hit": false,
      "t": 49468.262145833425,
      "d": 541.0445416666626,
      "v": 86
    },
    {
      "midi": 61,
      "hit": false,
      "t": 49682.81429166676,
      "d": 363.8058124999952,
      "v": 68
    },
    {
      "midi": 52,
      "hit": false,
      "t": 49906.694791666756,
      "d": 242.53720833332773,
      "v": 56
    },
    {
      "midi": 64,
      "hit": false,
      "t": 50149.232000000084,
      "d": 2210.819937500004,
      "v": 68
    },
    {
      "midi": 47,
      "hit": false,
      "t": 50149.232000000084,
      "d": 3031.715104166673,
      "v": 76
    },
    {
      "midi": 61,
      "hit": false,
      "t": 50167.88870833342,
      "d": 2192.1632291666683,
      "v": 68
    },
    {
      "midi": 57,
      "hit": false,
      "t": 50177.21706250009,
      "d": 2164.1781666666648,
      "v": 48
    },
    {
      "midi": 69,
      "hit": false,
      "t": 52835.79800000009,
      "d": 727.6116249999977,
      "v": 62
    },
    {
      "midi": 68,
      "hit": false,
      "t": 53069.00685416676,
      "d": 634.3280833333338,
      "v": 48
    },
    {
      "midi": 64,
      "hit": false,
      "t": 53283.55900000009,
      "d": 2126.864750000015,
      "v": 56
    },
    {
      "midi": 47,
      "hit": false,
      "t": 53628.708104166755,
      "d": 251.86556250001013,
      "v": 38
    },
    {
      "midi": 59,
      "hit": false,
      "t": 53731.320000000094,
      "d": 1585.8202083333454,
      "v": 64
    },
    {
      "midi": 40,
      "hit": false,
      "t": 53740.64835416676,
      "d": 1389.9247708333423,
      "v": 62
    },
    {
      "midi": 47,
      "hit": false,
      "t": 54244.37947916677,
      "d": 569.0296041666661,
      "v": 28
    },
    {
      "midi": 68,
      "hit": false,
      "t": 54617.51364583343,
      "d": 811.5668125000084,
      "v": 68
    },
    {
      "midi": 47,
      "hit": false,
      "t": 55065.27464583344,
      "d": 410.44758333334175,
      "v": 50
    },
    {
      "midi": 64,
      "hit": false,
      "t": 55457.06552083344,
      "d": 876.8652916666761,
      "v": 48
    },
    {
      "midi": 69,
      "hit": false,
      "t": 55466.39387500011,
      "d": 820.895166666669,
      "v": 58
    },
    {
      "midi": 40,
      "hit": false,
      "t": 55475.72222916678,
      "d": 1352.6113541666782,
      "v": 56
    },
    {
      "midi": 61,
      "hit": false,
      "t": 55485.05058333345,
      "d": 830.2235208333368,
      "v": 54
    },
    {
      "midi": 61,
      "hit": false,
      "t": 56399.22929166679,
      "d": 774.253395833337,
      "v": 58
    },
    {
      "midi": 64,
      "hit": false,
      "t": 56399.22929166679,
      "d": 792.9101041666727,
      "v": 52
    },
    {
      "midi": 69,
      "hit": false,
      "t": 56399.22929166679,
      "d": 820.8951666666762,
      "v": 64
    },
    {
      "midi": 47,
      "hit": false,
      "t": 56921.61712500012,
      "d": 307.83568750000995,
      "v": 34
    },
    {
      "midi": 40,
      "hit": false,
      "t": 57266.766229166795,
      "d": 1399.253125000003,
      "v": 60
    },
    {
      "midi": 64,
      "hit": false,
      "t": 57276.09458333346,
      "d": 858.2085833333331,
      "v": 40
    },
    {
      "midi": 68,
      "hit": false,
      "t": 57285.42293750013,
      "d": 643.6564375000016,
      "v": 62
    },
    {
      "midi": 59,
      "hit": false,
      "t": 57294.7512916668,
      "d": 802.2384583333333,
      "v": 60
    },
    {
      "midi": 47,
      "hit": false,
      "t": 57770.4973541668,
      "d": 830.2235208333295,
      "v": 42
    },
    {
      "midi": 68,
      "hit": false,
      "t": 58218.2583541668,
      "d": 811.5668125000084,
      "v": 90
    },
    {
      "midi": 66,
      "hit": false,
      "t": 58423.48214583346,
      "d": 270.52227083333855,
      "v": 86
    },
    {
      "midi": 64,
      "hit": false,
      "t": 58638.034291666794,
      "d": 363.8058125000098,
      "v": 72
    },
    {
      "midi": 47,
      "hit": false,
      "t": 58861.9147916668,
      "d": 158.5820208333389,
      "v": 56
    },
    {
      "midi": 40,
      "hit": false,
      "t": 59067.13858333347,
      "d": 1324.6262916666892,
      "v": 62
    },
    {
      "midi": 61,
      "hit": false,
      "t": 59085.79529166681,
      "d": 708.9549166666693,
      "v": 54
    },
    {
      "midi": 69,
      "hit": false,
      "t": 59085.79529166681,
      "d": 783.5817500000048,
      "v": 56
    },
    {
      "midi": 64,
      "hit": false,
      "t": 59095.123645833475,
      "d": 904.8503541666723,
      "v": 56
    },
    {
      "midi": 47,
      "hit": false,
      "t": 59580.198062500145,
      "d": 755.5966875000086,
      "v": 34
    },
    {
      "midi": 61,
      "hit": false,
      "t": 59981.31729166681,
      "d": 373.13416666667763,
      "v": 90
    },
    {
      "midi": 64,
      "hit": false,
      "t": 60195.86943750015,
      "d": 167.91037500000675,
      "v": 86
    },
    {
      "midi": 64,
      "hit": false,
      "t": 60382.43652083349,
      "d": 382.4625208333309,
      "v": 86
    },
    {
      "midi": 61,
      "hit": false,
      "t": 60401.09322916683,
      "d": 317.16404166666325,
      "v": 76
    },
    {
      "midi": 69,
      "hit": false,
      "t": 60401.09322916683,
      "d": 363.8058124999952,
      "v": 90
    },
    {
      "midi": 47,
      "hit": false,
      "t": 60615.64537500016,
      "d": 195.89543749999575,
      "v": 72
    },
    {
      "midi": 40,
      "hit": false,
      "t": 60839.52587500016,
      "d": 1296.641229166671,
      "v": 76
    },
    {
      "midi": 59,
      "hit": false,
      "t": 60839.52587500016,
      "d": 1511.1933750000026,
      "v": 90
    },
    {
      "midi": 68,
      "hit": false,
      "t": 60848.85422916683,
      "d": 848.8802291666652,
      "v": 76
    },
    {
      "midi": 64,
      "hit": false,
      "t": 60848.85422916683,
      "d": 914.1787083333329,
      "v": 76
    },
    {
      "midi": 68,
      "hit": false,
      "t": 61791.018000000164,
      "d": 811.5668125000011,
      "v": 72
    },
    {
      "midi": 64,
      "hit": false,
      "t": 61809.6747083335,
      "d": 774.2533958333297,
      "v": 28
    },
    {
      "midi": 47,
      "hit": false,
      "t": 62257.4357083335,
      "d": 345.1491041666668,
      "v": 60
    },
    {
      "midi": 40,
      "hit": false,
      "t": 62639.89822916683,
      "d": 1548.5067916666812,
      "v": 72
    },
    {
      "midi": 64,
      "hit": false,
      "t": 62649.2265833335,
      "d": 848.8802291666725,
      "v": 68
    },
    {
      "midi": 61,
      "hit": false,
      "t": 62658.554937500165,
      "d": 811.5668125000011,
      "v": 56
    },
    {
      "midi": 69,
      "hit": false,
      "t": 62658.554937500165,
      "d": 811.5668125000011,
      "v": 76
    },
    {
      "midi": 69,
      "hit": false,
      "t": 63554.07693750017,
      "d": 718.2832708333444,
      "v": 80
    },
    {
      "midi": 64,
      "hit": false,
      "t": 63554.07693750017,
      "d": 764.9250416666764,
      "v": 68
    },
    {
      "midi": 61,
      "hit": false,
      "t": 63572.733645833505,
      "d": 680.969854166673,
      "v": 60
    },
    {
      "midi": 47,
      "hit": false,
      "t": 63992.50958333351,
      "d": 335.8207500000062,
      "v": 50
    },
    {
      "midi": 40,
      "hit": false,
      "t": 64402.95716666685,
      "d": 1287.3128750000033,
      "v": 62
    },
    {
      "midi": 59,
      "hit": false,
      "t": 64402.95716666685,
      "d": 1296.6412291666638,
      "v": 64
    },
    {
      "midi": 64,
      "hit": false,
      "t": 64412.28552083352,
      "d": 1753.7305833333303,
      "v": 52
    },
    {
      "midi": 68,
      "hit": false,
      "t": 64421.613875000185,
      "d": 1697.7604583333305,
      "v": 58
    },
    {
      "midi": 47,
      "hit": false,
      "t": 65811.53864583351,
      "d": 401.1192291666666,
      "v": 50
    },
    {
      "midi": 59,
      "hit": false,
      "t": 66016.76243750018,
      "d": 177.23872916666733,
      "v": 54
    },
    {
      "midi": 40,
      "hit": false,
      "t": 66212.65787500018,
      "d": 736.9399791666656,
      "v": 98
    },
    {
      "midi": 68,
      "hit": false,
      "t": 66221.98622916684,
      "d": 354.47745833333465,
      "v": 102
    },
    {
      "midi": 59,
      "hit": false,
      "t": 66445.86672916684,
      "d": 746.2683333333407,
      "v": 90
    },
    {
      "midi": 64,
      "hit": false,
      "t": 66651.0905208335,
      "d": 279.8506250000064,
      "v": 86
    },
    {
      "midi": 47,
      "hit": false,
      "t": 66688.40393750017,
      "d": 345.1491041666741,
      "v": 28
    },
    {
      "midi": 68,
      "hit": false,
      "t": 66874.9710208335,
      "d": 177.23872916668188,
      "v": 76
    },
    {
      "midi": 71,
      "hit": false,
      "t": 67098.85152083352,
      "d": 401.1192291666666,
      "v": 102
    },
    {
      "midi": 39,
      "hit": false,
      "t": 67108.17987500018,
      "d": 792.9101041666727,
      "v": 94
    },
    {
      "midi": 59,
      "hit": false,
      "t": 67350.71708333351,
      "d": 447.7609999999986,
      "v": 76
    },
    {
      "midi": 63,
      "hit": false,
      "t": 67565.26922916685,
      "d": 363.8058124999952,
      "v": 94
    },
    {
      "midi": 66,
      "hit": false,
      "t": 67770.49302083351,
      "d": 205.2237916666636,
      "v": 76
    },
    {
      "midi": 61,
      "hit": false,
      "t": 67994.37352083351,
      "d": 1744.4022291666479,
      "v": 86
    },
    {
      "midi": 37,
      "hit": false,
      "t": 68003.70187500017,
      "d": 1324.62629166666,
      "v": 90
    },
    {
      "midi": 64,
      "hit": false,
      "t": 68003.70187500017,
      "d": 1763.0589374999836,
      "v": 76
    },
    {
      "midi": 68,
      "hit": false,
      "t": 68945.8656458335,
      "d": 774.2533958333224,
      "v": 62
    },
    {
      "midi": 44,
      "hit": false,
      "t": 69421.6117083335,
      "d": 382.4625208333309,
      "v": 50
    },
    {
      "midi": 37,
      "hit": false,
      "t": 69813.40258333349,
      "d": 942.1637708333292,
      "v": 60
    },
    {
      "midi": 64,
      "hit": false,
      "t": 69841.38764583349,
      "d": 848.8802291666652,
      "v": 64
    },
    {
      "midi": 68,
      "hit": false,
      "t": 69850.71600000015,
      "d": 839.5518750000047,
      "v": 60
    },
    {
      "midi": 61,
      "hit": false,
      "t": 69850.71600000015,
      "d": 848.8802291666652,
      "v": 48
    },
    {
      "midi": 64,
      "hit": false,
      "t": 70764.89470833348,
      "d": 410.4475833333272,
      "v": 80
    },
    {
      "midi": 68,
      "hit": false,
      "t": 70764.89470833348,
      "d": 410.4475833333272,
      "v": 68
    },
    {
      "midi": 61,
      "hit": false,
      "t": 70764.89470833348,
      "d": 466.4177083333343,
      "v": 60
    },
    {
      "midi": 59,
      "hit": false,
      "t": 71623.10329166682,
      "d": 932.835416666654,
      "v": 64
    },
    {
      "midi": 63,
      "hit": false,
      "t": 71623.10329166682,
      "d": 1166.0442708333285,
      "v": 64
    },
    {
      "midi": 56,
      "hit": false,
      "t": 71623.10329166682,
      "d": 1865.6708333333372,
      "v": 52
    },
    {
      "midi": 44,
      "hit": false,
      "t": 71632.43164583348,
      "d": 1576.4918541666702,
      "v": 52
    },
    {
      "midi": 51,
      "hit": false,
      "t": 72509.29693750014,
      "d": 755.5966875000158,
      "v": 44
    },
    {
      "midi": 58,
      "hit": false,
      "t": 72733.17743750014,
      "d": 214.55214583333873,
      "v": 52
    },
    {
      "midi": 59,
      "hit": false,
      "t": 72957.05793750014,
      "d": 942.1637708333583,
      "v": 72
    },
    {
      "midi": 66,
      "hit": false,
      "t": 73171.61008333348,
      "d": 1044.7756666666828,
      "v": 80
    },
    {
      "midi": 44,
      "hit": false,
      "t": 73395.49058333349,
      "d": 1222.014395833321,
      "v": 72
    },
    {
      "midi": 51,
      "hit": false,
      "t": 73805.93816666682,
      "d": 867.5369375000009,
      "v": 44
    },
    {
      "midi": 56,
      "hit": false,
      "t": 73843.25158333349,
      "d": 373.13416666667035,
      "v": 56
    },
    {
      "midi": 66,
      "hit": false,
      "t": 74291.01258333349,
      "d": 792.9101041666727,
      "v": 86
    },
    {
      "midi": 56,
      "hit": false,
      "t": 74300.34093750015,
      "d": 671.6415000000125,
      "v": 62
    },
    {
      "midi": 59,
      "hit": false,
      "t": 74300.34093750015,
      "d": 755.5966875000158,
      "v": 86
    },
    {
      "midi": 44,
      "hit": false,
      "t": 74757.43029166682,
      "d": 410.44758333334175,
      "v": 76
    },
    {
      "midi": 45,
      "hit": false,
      "t": 75167.87787500017,
      "d": 1427.2381874999846,
      "v": 94
    },
    {
      "midi": 57,
      "hit": false,
      "t": 75177.20622916683,
      "d": 998.1338958333217,
      "v": 80
    },
    {
      "midi": 61,
      "hit": false,
      "t": 75186.53458333349,
      "d": 1072.7607291666645,
      "v": 76
    },
    {
      "midi": 52,
      "hit": false,
      "t": 75680.93735416682,
      "d": 820.895166666669,
      "v": 50
    },
    {
      "midi": 64,
      "hit": false,
      "t": 76091.38493750014,
      "d": 438.43264583333803,
      "v": 62
    },
    {
      "midi": 57,
      "hit": false,
      "t": 76333.92214583348,
      "d": 531.716187500002,
      "v": 72
    },
    {
      "midi": 59,
      "hit": false,
      "t": 76520.48922916682,
      "d": 373.1341666666558,
      "v": 94
    },
    {
      "midi": 52,
      "hit": false,
      "t": 76725.71302083349,
      "d": 205.22379166664905,
      "v": 76
    },
    {
      "midi": 61,
      "hit": false,
      "t": 76735.04137500015,
      "d": 167.9103749999922,
      "v": 68
    },
    {
      "midi": 45,
      "hit": false,
      "t": 76958.92187500013,
      "d": 1604.476916666681,
      "v": 102
    },
    {
      "midi": 64,
      "hit": false,
      "t": 76968.25022916679,
      "d": 830.2235208333295,
      "v": 94
    },
    {
      "midi": 57,
      "hit": false,
      "t": 76977.57858333345,
      "d": 783.5817499999976,
      "v": 68
    },
    {
      "midi": 61,
      "hit": false,
      "t": 76977.57858333345,
      "d": 802.2384583333333,
      "v": 102
    },
    {
      "midi": 52,
      "hit": false,
      "t": 77453.32464583345,
      "d": 578.3579583333485,
      "v": 80
    },
    {
      "midi": 64,
      "hit": false,
      "t": 77882.42893750012,
      "d": 205.22379166667815,
      "v": 60
    },
    {
      "midi": 69,
      "hit": false,
      "t": 77882.42893750012,
      "d": 531.7161875000165,
      "v": 98
    },
    {
      "midi": 61,
      "hit": false,
      "t": 77882.42893750012,
      "d": 624.9997291666805,
      "v": 90
    },
    {
      "midi": 57,
      "hit": false,
      "t": 77882.42893750012,
      "d": 727.6116250000196,
      "v": 108
    },
    {
      "midi": 65,
      "hit": false,
      "t": 77891.75729166679,
      "d": 55.9701250000071,
      "v": 60
    },
    {
      "midi": 64,
      "hit": false,
      "t": 78283.5481666668,
      "d": 345.1491041666741,
      "v": 8
    },
    {
      "midi": 52,
      "hit": false,
      "t": 78348.84664583347,
      "d": 401.1192291666666,
      "v": 80
    },
    {
      "midi": 57,
      "hit": false,
      "t": 78787.27929166681,
      "d": 764.9250416666619,
      "v": 98
    },
    {
      "midi": 61,
      "hit": false,
      "t": 78787.27929166681,
      "d": 802.2384583333333,
      "v": 114
    },
    {
      "midi": 64,
      "hit": false,
      "t": 78787.27929166681,
      "d": 830.2235208333295,
      "v": 108
    },
    {
      "midi": 47,
      "hit": false,
      "t": 78796.60764583347,
      "d": 1632.4619791666773,
      "v": 108
    },
    {
      "midi": 61,
      "hit": false,
      "t": 79673.47293750015,
      "d": 251.86556249999558,
      "v": 60
    },
    {
      "midi": 64,
      "hit": false,
      "t": 79673.47293750015,
      "d": 354.47745833333465,
      "v": 72
    },
    {
      "midi": 57,
      "hit": false,
      "t": 79906.68179166681,
      "d": 345.1491041666741,
      "v": 80
    },
    {
      "midi": 61,
      "hit": false,
      "t": 80111.90558333349,
      "d": 186.5670833333279,
      "v": 62
    },
    {
      "midi": 47,
      "hit": false,
      "t": 80550.33822916681,
      "d": 111.9402499999851,
      "v": 94
    },
    {
      "midi": 63,
      "hit": false,
      "t": 80559.66658333347,
      "d": 111.9402499999851,
      "v": 90
    },
    {
      "midi": 59,
      "hit": false,
      "t": 80568.99493750013,
      "d": 289.1789791666524,
      "v": 94
    },
    {
      "midi": 49,
      "hit": false,
      "t": 80755.56202083346,
      "d": 149.2536666666565,
      "v": 86
    },
    {
      "midi": 61,
      "hit": false,
      "t": 80755.56202083346,
      "d": 149.2536666666565,
      "v": 90
    },
    {
      "midi": 64,
      "hit": false,
      "t": 80764.89037500012,
      "d": 158.58202083333163,
      "v": 90
    },
    {
      "midi": 51,
      "hit": false,
      "t": 80979.44252083346,
      "d": 270.5222708333313,
      "v": 98
    },
    {
      "midi": 63,
      "hit": false,
      "t": 80988.77087500012,
      "d": 149.25366666667105,
      "v": 94
    },
    {
      "midi": 66,
      "hit": false,
      "t": 80988.77087500012,
      "d": 149.25366666667105,
      "v": 90
    },
    {
      "midi": 59,
      "hit": false,
      "t": 81007.42758333345,
      "d": 195.89543750000303,
      "v": 72
    },
    {
      "midi": 51,
      "hit": false,
      "t": 81427.20352083346,
      "d": 149.2536666666565,
      "v": 94
    },
    {
      "midi": 66,
      "hit": false,
      "t": 81445.86022916679,
      "d": 139.92531249998137,
      "v": 98
    },
    {
      "midi": 59,
      "hit": false,
      "t": 81455.18858333345,
      "d": 121.26860416666023,
      "v": 64
    },
    {
      "midi": 63,
      "hit": false,
      "t": 81455.18858333345,
      "d": 121.26860416666023,
      "v": 94
    },
    {
      "midi": 52,
      "hit": false,
      "t": 81641.75566666678,
      "d": 130.5969583333208,
      "v": 98
    },
    {
      "midi": 64,
      "hit": false,
      "t": 81669.74072916678,
      "d": 139.92531249998137,
      "v": 76
    },
    {
      "midi": 68,
      "hit": false,
      "t": 81669.74072916678,
      "d": 158.58202083331707,
      "v": 72
    },
    {
      "midi": 59,
      "hit": false,
      "t": 81679.06908333344,
      "d": 121.26860416666023,
      "v": 60
    },
    {
      "midi": 69,
      "hit": false,
      "t": 81893.62122916676,
      "d": 177.23872916666733,
      "v": 90
    },
    {
      "midi": 54,
      "hit": false,
      "t": 81893.62122916676,
      "d": 195.89543749998847,
      "v": 102
    },
    {
      "midi": 66,
      "hit": false,
      "t": 81902.94958333342,
      "d": 177.23872916666733,
      "v": 80
    },
    {
      "midi": 52,
      "hit": false,
      "t": 82332.05387500009,
      "d": 1716.4171666666807,
      "v": 94
    },
    {
      "midi": 64,
      "hit": false,
      "t": 82360.03893750008,
      "d": 830.2235208333295,
      "v": 94
    },
    {
      "midi": 68,
      "hit": false,
      "t": 82360.03893750008,
      "d": 1063.432375000004,
      "v": 98
    },
    {
      "midi": 59,
      "hit": false,
      "t": 82369.36729166674,
      "d": 680.969854166673,
      "v": 94
    },
    {
      "midi": 56,
      "hit": false,
      "t": 82807.79993750008,
      "d": 1231.3427500000253,
      "v": 58
    },
    {
      "midi": 59,
      "hit": false,
      "t": 83274.21764583341,
      "d": 624.9997291666805,
      "v": 90
    },
    {
      "midi": 64,
      "hit": false,
      "t": 83488.76979166675,
      "d": 494.40277083334513,
      "v": 94
    },
    {
      "midi": 66,
      "hit": false,
      "t": 83703.32193750009,
      "d": 177.23872916666733,
      "v": 98
    },
    {
      "midi": 68,
      "hit": false,
      "t": 83927.20243750009,
      "d": 139.92531250001048,
      "v": 90
    },
    {
      "midi": 60,
      "hit": false,
      "t": 84151.0829375001,
      "d": 830.2235208333295,
      "v": 76
    },
    {
      "midi": 51,
      "hit": false,
      "t": 84151.0829375001,
      "d": 1399.2531249999738,
      "v": 68
    },
    {
      "midi": 66,
      "hit": false,
      "t": 84160.41129166677,
      "d": 830.2235208333295,
      "v": 90
    },
    {
      "midi": 63,
      "hit": false,
      "t": 84160.41129166677,
      "d": 839.5518749999901,
      "v": 94
    },
    {
      "midi": 69,
      "hit": false,
      "t": 84160.41129166677,
      "d": 839.5518749999901,
      "v": 98
    },
    {
      "midi": 60,
      "hit": false,
      "t": 85055.93329166676,
      "d": 298.50733333332755,
      "v": 56
    },
    {
      "midi": 63,
      "hit": false,
      "t": 85065.26164583342,
      "d": 401.1192291666666,
      "v": 60
    },
    {
      "midi": 69,
      "hit": false,
      "t": 85065.26164583342,
      "d": 475.7460624999949,
      "v": 72
    },
    {
      "midi": 66,
      "hit": false,
      "t": 85065.26164583342,
      "d": 839.5518749999901,
      "v": 62
    },
    {
      "midi": 63,
      "hit": false,
      "t": 85513.02264583342,
      "d": 391.7908749999915,
      "v": 46
    },
    {
      "midi": 60,
      "hit": false,
      "t": 85522.35100000008,
      "d": 298.50733333332755,
      "v": 54
    },
    {
      "midi": 51,
      "hit": false,
      "t": 85736.9031458334,
      "d": 130.59695833333535,
      "v": 56
    },
    {
      "midi": 68,
      "hit": false,
      "t": 85970.11200000008,
      "d": 1669.7753958333196,
      "v": 72
    },
    {
      "midi": 61,
      "hit": false,
      "t": 85979.44035416674,
      "d": 774.2533958333224,
      "v": 68
    },
    {
      "midi": 64,
      "hit": false,
      "t": 85979.44035416674,
      "d": 811.5668124999938,
      "v": 86
    },
    {
      "midi": 49,
      "hit": false,
      "t": 85979.44035416674,
      "d": 1231.3427499999816,
      "v": 76
    },
    {
      "midi": 56,
      "hit": false,
      "t": 86389.88793750007,
      "d": 699.6265624999942,
      "v": 42
    },
    {
      "midi": 71,
      "hit": false,
      "t": 86846.97729166674,
      "d": 606.3430208333157,
      "v": 72
    },
    {
      "midi": 61,
      "hit": false,
      "t": 86846.97729166674,
      "d": 736.939979166651,
      "v": 64
    },
    {
      "midi": 64,
      "hit": false,
      "t": 86856.3056458334,
      "d": 764.9250416666619,
      "v": 76
    },
    {
      "midi": 49,
      "hit": false,
      "t": 87322.72335416672,
      "d": 354.4774583333492,
      "v": 62
    },
    {
      "midi": 68,
      "hit": false,
      "t": 87695.85752083341,
      "d": 1445.8948958333203,
      "v": 56
    },
    {
      "midi": 59,
      "hit": false,
      "t": 87714.51422916674,
      "d": 363.8058124999952,
      "v": 60
    },
    {
      "midi": 64,
      "hit": false,
      "t": 87714.51422916674,
      "d": 858.2085833333258,
      "v": 64
    },
    {
      "midi": 47,
      "hit": false,
      "t": 87723.8425833334,
      "d": 1287.3128749999887,
      "v": 48
    },
    {
      "midi": 59,
      "hit": false,
      "t": 88199.5886458334,
      "d": 401.1192291666666,
      "v": 60
    },
    {
      "midi": 59,
      "hit": false,
      "t": 88628.69293750006,
      "d": 354.47745833333465,
      "v": 56
    },
    {
      "midi": 71,
      "hit": false,
      "t": 88628.69293750006,
      "d": 373.13416666667035,
      "v": 86
    },
    {
      "midi": 64,
      "hit": false,
      "t": 88647.3496458334,
      "d": 531.716187500002,
      "v": 76
    },
    {
      "midi": 59,
      "hit": false,
      "t": 89076.45393750006,
      "d": 774.2533958333515,
      "v": 64
    },
    {
      "midi": 47,
      "hit": false,
      "t": 89113.76735416673,
      "d": 326.4923958333384,
      "v": 62
    },
    {
      "midi": 45,
      "hit": false,
      "t": 89496.22987500008,
      "d": 1473.8799583333166,
      "v": 86
    },
    {
      "midi": 64,
      "hit": false,
      "t": 89514.88658333341,
      "d": 886.1936458333366,
      "v": 86
    },
    {
      "midi": 61,
      "hit": false,
      "t": 89524.21493750007,
      "d": 634.328083333341,
      "v": 64
    },
    {
      "midi": 52,
      "hit": false,
      "t": 89999.96100000008,
      "d": 867.5369374999718,
      "v": 56
    },
    {
      "midi": 57,
      "hit": false,
      "t": 90410.40858333341,
      "d": 382.4625208333309,
      "v": 102
    },
    {
      "midi": 59,
      "hit": false,
      "t": 90634.28908333341,
      "d": 177.23872916666733,
      "v": 108
    },
    {
      "midi": 59,
      "hit": false,
      "t": 90839.51287500007,
      "d": 345.149104166645,
      "v": 58
    },
    {
      "midi": 61,
      "hit": false,
      "t": 90848.84122916673,
      "d": 354.4774583333201,
      "v": 108
    },
    {
      "midi": 57,
      "hit": false,
      "t": 90858.1695833334,
      "d": 307.8356874999881,
      "v": 72
    },
    {
      "midi": 52,
      "hit": false,
      "t": 91091.37843750005,
      "d": 158.58202083333163,
      "v": 72
    },
    {
      "midi": 57,
      "hit": false,
      "t": 91277.94552083338,
      "d": 820.8951666666544,
      "v": 68
    },
    {
      "midi": 64,
      "hit": false,
      "t": 91287.27387500004,
      "d": 1110.0741458333214,
      "v": 98
    },
    {
      "midi": 61,
      "hit": false,
      "t": 91296.6022291667,
      "d": 802.2384583333333,
      "v": 90
    },
    {
      "midi": 47,
      "hit": false,
      "t": 91305.93058333336,
      "d": 1483.2083125000063,
      "v": 90
    },
    {
      "midi": 57,
      "hit": false,
      "t": 92173.46752083336,
      "d": 485.07441666667,
      "v": 72
    },
    {
      "midi": 69,
      "hit": false,
      "t": 92173.46752083336,
      "d": 652.9847916666622,
      "v": 76
    },
    {
      "midi": 61,
      "hit": false,
      "t": 92182.79587500003,
      "d": 307.8356875000027,
      "v": 68
    },
    {
      "midi": 53,
      "hit": false,
      "t": 92621.22852083336,
      "d": 270.5222708333313,
      "v": 64
    },
    {
      "midi": 59,
      "hit": false,
      "t": 92798.46725000003,
      "d": 158.58202083333163,
      "v": 52
    },
    {
      "midi": 64,
      "hit": false,
      "t": 92854.43737500002,
      "d": 139.92531250001048,
      "v": 72
    },
    {
      "midi": 66,
      "hit": false,
      "t": 92919.73585416669,
      "d": 121.26860416667478,
      "v": 76
    },
    {
      "midi": 68,
      "hit": false,
      "t": 93031.6761041667,
      "d": 848.8802291666507,
      "v": 68
    },
    {
      "midi": 52,
      "hit": false,
      "t": 93041.00445833337,
      "d": 1343.2829999999958,
      "v": 72
    },
    {
      "midi": 59,
      "hit": false,
      "t": 93050.33281250003,
      "d": 401.1192291666666,
      "v": 58
    },
    {
      "midi": 64,
      "hit": false,
      "t": 93068.98952083336,
      "d": 718.2832708333299,
      "v": 68
    },
    {
      "midi": 56,
      "hit": false,
      "t": 93516.75052083336,
      "d": 942.1637708333292,
      "v": 60
    },
    {
      "midi": 59,
      "hit": false,
      "t": 93777.94443750003,
      "d": 158.58202083333163,
      "v": 52
    },
    {
      "midi": 68,
      "hit": false,
      "t": 93983.1682291667,
      "d": 382.4625208333309,
      "v": 102
    },
    {
      "midi": 59,
      "hit": false,
      "t": 93992.49658333336,
      "d": 541.0445416666626,
      "v": 60
    },
    {
      "midi": 66,
      "hit": false,
      "t": 94216.37708333335,
      "d": 242.537208333335,
      "v": 68
    },
    {
      "midi": 64,
      "hit": false,
      "t": 94421.60087500003,
      "d": 83.95518749998882,
      "v": 90
    },
    {
      "midi": 52,
      "hit": false,
      "t": 94449.58593750003,
      "d": 167.9103749999922,
      "v": 56
    },
    {
      "midi": 63,
      "hit": false,
      "t": 94636.15302083336,
      "d": 46.641770833331975,
      "v": 44
    },
    {
      "midi": 47,
      "hit": false,
      "t": 94878.69022916669,
      "d": 177.23872916668188,
      "v": 90
    },
    {
      "midi": 63,
      "hit": false,
      "t": 94897.34693750003,
      "d": 121.26860416667478,
      "v": 68
    },
    {
      "midi": 59,
      "hit": false,
      "t": 94916.00364583336,
      "d": 354.47745833333465,
      "v": 60
    },
    {
      "midi": 49,
      "hit": false,
      "t": 95093.24237500005,
      "d": 139.92531249998137,
      "v": 98
    },
    {
      "midi": 64,
      "hit": false,
      "t": 95102.5707291667,
      "d": 149.2536666666565,
      "v": 76
    },
    {
      "midi": 61,
      "hit": false,
      "t": 95111.89908333337,
      "d": 121.26860416666023,
      "v": 76
    },
    {
      "midi": 66,
      "hit": false,
      "t": 95326.4512291667,
      "d": 149.2536666666565,
      "v": 76
    },
    {
      "midi": 63,
      "hit": false,
      "t": 95335.77958333337,
      "d": 149.2536666666565,
      "v": 72
    },
    {
      "midi": 51,
      "hit": false,
      "t": 95345.10793750003,
      "d": 214.55214583332418,
      "v": 108
    },
    {
      "midi": 59,
      "hit": false,
      "t": 95345.10793750003,
      "d": 289.1789791666524,
      "v": 54
    },
    {
      "midi": 51,
      "hit": false,
      "t": 95746.22716666668,
      "d": 158.58202083331707,
      "v": 90
    },
    {
      "midi": 66,
      "hit": false,
      "t": 95774.21222916667,
      "d": 158.58202083331707,
      "v": 68
    },
    {
      "midi": 63,
      "hit": false,
      "t": 95783.54058333334,
      "d": 121.26860416666023,
      "v": 60
    },
    {
      "midi": 59,
      "hit": false,
      "t": 95792.8689375,
      "d": 121.26860416666023,
      "v": 52
    },
    {
      "midi": 52,
      "hit": false,
      "t": 95960.77931249999,
      "d": 139.92531249998137,
      "v": 90
    },
    {
      "midi": 68,
      "hit": false,
      "t": 95988.76437499998,
      "d": 139.92531249998137,
      "v": 68
    },
    {
      "midi": 59,
      "hit": false,
      "t": 95998.09272916664,
      "d": 121.26860416666023,
      "v": 50
    },
    {
      "midi": 64,
      "hit": false,
      "t": 96007.4210833333,
      "d": 111.94024999999965,
      "v": 68
    },
    {
      "midi": 69,
      "hit": false,
      "t": 96212.64487499997,
      "d": 139.92531249999593,
      "v": 80
    },
    {
      "midi": 54,
      "hit": false,
      "t": 96212.64487499997,
      "d": 167.9103749999922,
      "v": 86
    },
    {
      "midi": 66,
      "hit": false,
      "t": 96221.97322916663,
      "d": 130.59695833333535,
      "v": 76
    },
    {
      "midi": 52,
      "hit": false,
      "t": 96660.40587499997,
      "d": 1483.2083124999772,
      "v": 94
    },
    {
      "midi": 64,
      "hit": false,
      "t": 96669.73422916663,
      "d": 466.4177083333343,
      "v": 90
    },
    {
      "midi": 68,
      "hit": false,
      "t": 96669.73422916663,
      "d": 513.0594791666663,
      "v": 90
    },
    {
      "midi": 59,
      "hit": false,
      "t": 96679.06258333329,
      "d": 289.178979166667,
      "v": 68
    },
    {
      "midi": 56,
      "hit": false,
      "t": 97154.8086458333,
      "d": 998.1338958333072,
      "v": 50
    },
    {
      "midi": 59,
      "hit": false,
      "t": 97164.13699999996,
      "d": 354.47745833333465,
      "v": 52
    },
    {
      "midi": 68,
      "hit": false,
      "t": 97602.5696458333,
      "d": 391.7908749999915,
      "v": 98
    },
    {
      "midi": 59,
      "hit": false,
      "t": 97611.89799999996,
      "d": 363.8058125000098,
      "v": 64
    },
    {
      "midi": 66,
      "hit": false,
      "t": 97826.4501458333,
      "d": 158.58202083333163,
      "v": 72
    },
    {
      "midi": 68,
      "hit": false,
      "t": 98041.00229166662,
      "d": 391.7908749999915,
      "v": 80
    },
    {
      "midi": 59,
      "hit": false,
      "t": 98050.33064583328,
      "d": 317.16404166666325,
      "v": 64
    },
    {
      "midi": 64,
      "hit": false,
      "t": 98050.33064583328,
      "d": 363.8058124999952,
      "v": 90
    },
    {
      "midi": 52,
      "hit": false,
      "t": 98283.53949999994,
      "d": 111.94024999999965,
      "v": 60
    },
    {
      "midi": 51,
      "hit": false,
      "t": 98507.41999999994,
      "d": 1175.372624999989,
      "v": 68
    },
    {
      "midi": 60,
      "hit": false,
      "t": 98516.7483541666,
      "d": 746.2683333333262,
      "v": 72
    },
    {
      "midi": 66,
      "hit": false,
      "t": 98516.7483541666,
      "d": 774.2533958333224,
      "v": 90
    },
    {
      "midi": 69,
      "hit": false,
      "t": 98526.07670833326,
      "d": 755.5966875000013,
      "v": 94
    },
    {
      "midi": 63,
      "hit": false,
      "t": 98526.07670833326,
      "d": 764.9250416666619,
      "v": 80
    },
    {
      "midi": 69,
      "hit": false,
      "t": 99374.95693749993,
      "d": 401.1192291666666,
      "v": 62
    },
    {
      "midi": 60,
      "hit": false,
      "t": 99374.95693749993,
      "d": 624.9997291666659,
      "v": 52
    },
    {
      "midi": 63,
      "hit": false,
      "t": 99374.95693749993,
      "d": 802.2384583333333,
      "v": 60
    },
    {
      "midi": 66,
      "hit": false,
      "t": 99374.95693749993,
      "d": 820.895166666669,
      "v": 56
    },
    {
      "midi": 51,
      "hit": false,
      "t": 99841.37464583326,
      "d": 307.8356875000027,
      "v": 86
    },
    {
      "midi": 68,
      "hit": false,
      "t": 100261.15058333326,
      "d": 1735.0738749999728,
      "v": 80
    },
    {
      "midi": 61,
      "hit": false,
      "t": 100270.47893749992,
      "d": 820.8951666666544,
      "v": 72
    },
    {
      "midi": 49,
      "hit": false,
      "t": 100270.47893749992,
      "d": 1259.3278124999779,
      "v": 76
    },
    {
      "midi": 64,
      "hit": false,
      "t": 100279.80729166658,
      "d": 839.5518749999901,
      "v": 76
    },
    {
      "midi": 56,
      "hit": false,
      "t": 100727.56829166658,
      "d": 718.2832708333153,
      "v": 50
    },
    {
      "midi": 71,
      "hit": false,
      "t": 101193.9859999999,
      "d": 597.0146666666551,
      "v": 86
    },
    {
      "midi": 64,
      "hit": false,
      "t": 101193.9859999999,
      "d": 802.2384583333333,
      "v": 86
    },
    {
      "midi": 61,
      "hit": false,
      "t": 101203.31435416656,
      "d": 690.2982083333336,
      "v": 64
    },
    {
      "midi": 49,
      "hit": false,
      "t": 101669.7320624999,
      "d": 382.4625208333455,
      "v": 76
    },
    {
      "midi": 59,
      "hit": false,
      "t": 102080.17964583324,
      "d": 307.8356874999881,
      "v": 64
    },
    {
      "midi": 68,
      "hit": false,
      "t": 102080.17964583324,
      "d": 811.5668124999938,
      "v": 72
    },
    {
      "midi": 47,
      "hit": false,
      "t": 102080.17964583324,
      "d": 1399.2531249999738,
      "v": 72
    },
    {
      "midi": 64,
      "hit": false,
      "t": 102089.5079999999,
      "d": 447.7609999999986,
      "v": 68
    },
    {
      "midi": 59,
      "hit": false,
      "t": 102555.92570833323,
      "d": 326.4923958333384,
      "v": 60
    },
    {
      "midi": 68,
      "hit": false,
      "t": 102966.37329166656,
      "d": 429.1042916666629,
      "v": 68
    },
    {
      "midi": 59,
      "hit": false,
      "t": 102975.70164583322,
      "d": 326.4923958333238,
      "v": 62
    },
    {
      "midi": 71,
      "hit": false,
      "t": 102975.70164583322,
      "d": 363.8058124999952,
      "v": 76
    },
    {
      "midi": 64,
      "hit": false,
      "t": 102985.02999999988,
      "d": 419.7759375000023,
      "v": 76
    },
    {
      "midi": 59,
      "hit": false,
      "t": 103395.47758333322,
      "d": 774.2533958333224,
      "v": 62
    },
    {
      "midi": 47,
      "hit": false,
      "t": 103647.34314583322,
      "d": 130.59695833333535,
      "v": 52
    },
    {
      "midi": 45,
      "hit": false,
      "t": 103852.56693749988,
      "d": 1483.2083125000063,
      "v": 76
    },
    {
      "midi": 61,
      "hit": false,
      "t": 103861.89529166654,
      "d": 718.2832708333299,
      "v": 68
    },
    {
      "midi": 64,
      "hit": false,
      "t": 103861.89529166654,
      "d": 1091.4174375000002,
      "v": 90
    },
    {
      "midi": 52,
      "hit": false,
      "t": 104328.31299999988,
      "d": 755.5966875000013,
      "v": 56
    },
    {
      "midi": 57,
      "hit": false,
      "t": 104710.77552083321,
      "d": 802.2384583333478,
      "v": 86
    },
    {
      "midi": 59,
      "hit": false,
      "t": 104934.65602083321,
      "d": 559.7012500000128,
      "v": 86
    },
    {
      "midi": 61,
      "hit": false,
      "t": 105139.87981249989,
      "d": 382.4625208333309,
      "v": 76
    },
    {
      "midi": 52,
      "hit": false,
      "t": 105354.43195833323,
      "d": 177.23872916665277,
      "v": 60
    },
    {
      "midi": 57,
      "hit": false,
      "t": 105606.2975208332,
      "d": 839.5518749999901,
      "v": 64
    },
    {
      "midi": 64,
      "hit": false,
      "t": 105606.2975208332,
      "d": 858.2085833333113,
      "v": 94
    },
    {
      "midi": 61,
      "hit": false,
      "t": 105615.62587499987,
      "d": 839.5518749999901,
      "v": 76
    },
    {
      "midi": 47,
      "hit": false,
      "t": 105615.62587499987,
      "d": 1557.83514583332,
      "v": 76
    },
    {
      "midi": 61,
      "hit": false,
      "t": 106529.80458333319,
      "d": 270.5222708333313,
      "v": 60
    },
    {
      "midi": 57,
      "hit": false,
      "t": 106529.80458333319,
      "d": 513.0594791666663,
      "v": 52
    },
    {
      "midi": 64,
      "hit": false,
      "t": 106539.13293749985,
      "d": 261.1939166666707,
      "v": 76
    },
    {
      "midi": 53,
      "hit": false,
      "t": 106968.23722916652,
      "d": 261.1939166666707,
      "v": 60
    },
    {
      "midi": 59,
      "hit": false,
      "t": 107406.66987499986,
      "d": 820.8951666666544,
      "v": 68
    },
    {
      "midi": 64,
      "hit": false,
      "t": 107415.99822916652,
      "d": 848.8802291666652,
      "v": 76
    },
    {
      "midi": 68,
      "hit": false,
      "t": 107415.99822916652,
      "d": 876.8652916666615,
      "v": 90
    },
    {
      "midi": 52,
      "hit": false,
      "t": 107415.99822916652,
      "d": 1613.8052708333125,
      "v": 86
    },
    {
      "midi": 56,
      "hit": false,
      "t": 107882.41593749986,
      "d": 960.8204791666503,
      "v": 30
    },
    {
      "midi": 59,
      "hit": false,
      "t": 108320.84858333318,
      "d": 764.9250416666473,
      "v": 90
    },
    {
      "midi": 64,
      "hit": false,
      "t": 108320.84858333318,
      "d": 858.2085833333113,
      "v": 86
    },
    {
      "midi": 68,
      "hit": false,
      "t": 108358.16199999985,
      "d": 27.985062499996275,
      "v": 42
    },
    {
      "midi": 68,
      "hit": false,
      "t": 108796.59464583317,
      "d": 382.4625208333164,
      "v": 80
    },
    {
      "midi": 56,
      "hit": false,
      "t": 109039.1318541665,
      "d": 139.92531249999593,
      "v": 50
    },
    {
      "midi": 64,
      "hit": false,
      "t": 109235.0272916665,
      "d": 811.5668124999938,
      "v": 80
    },
    {
      "midi": 52,
      "hit": false,
      "t": 109235.0272916665,
      "d": 1669.7753958333196,
      "v": 72
    },
    {
      "midi": 61,
      "hit": false,
      "t": 109244.35564583316,
      "d": 289.178979166667,
      "v": 72
    },
    {
      "midi": 69,
      "hit": false,
      "t": 109244.35564583316,
      "d": 419.7759375000023,
      "v": 72
    },
    {
      "midi": 61,
      "hit": false,
      "t": 109682.7882916665,
      "d": 391.7908749999915,
      "v": 68
    },
    {
      "midi": 61,
      "hit": false,
      "t": 110139.87764583316,
      "d": 298.50733333332755,
      "v": 64
    },
    {
      "midi": 69,
      "hit": false,
      "t": 110139.87764583316,
      "d": 811.5668124999938,
      "v": 72
    },
    {
      "midi": 64,
      "hit": false,
      "t": 110139.87764583316,
      "d": 867.5369375000009,
      "v": 86
    },
    {
      "midi": 61,
      "hit": false,
      "t": 110606.29535416649,
      "d": 363.8058124999952,
      "v": 60
    },
    {
      "midi": 56,
      "hit": false,
      "t": 110858.16091666649,
      "d": 186.56708333334245,
      "v": 52
    },
    {
      "midi": 59,
      "hit": false,
      "t": 111072.71306249982,
      "d": 624.9997291666659,
      "v": 90
    },
    {
      "midi": 52,
      "hit": false,
      "t": 111072.71306249982,
      "d": 1305.969583333339,
      "v": 56
    },
    {
      "midi": 68,
      "hit": false,
      "t": 111082.04141666649,
      "d": 1091.4174375000148,
      "v": 64
    },
    {
      "midi": 64,
      "hit": false,
      "t": 111091.36977083315,
      "d": 820.8951666666835,
      "v": 62
    },
    {
      "midi": 56,
      "hit": false,
      "t": 111529.80241666648,
      "d": 876.8652916666761,
      "v": 50
    },
    {
      "midi": 59,
      "hit": false,
      "t": 111958.90670833316,
      "d": 643.6564375000016,
      "v": 86
    },
    {
      "midi": 64,
      "hit": false,
      "t": 112173.4588541665,
      "d": 475.7460624999949,
      "v": 80
    },
    {
      "midi": 66,
      "hit": false,
      "t": 112350.69758333317,
      "d": 223.8804999999993,
      "v": 76
    },
    {
      "midi": 68,
      "hit": false,
      "t": 112555.92137499983,
      "d": 167.91037500000675,
      "v": 60
    },
    {
      "midi": 52,
      "hit": false,
      "t": 112574.57808333317,
      "d": 111.94024999999965,
      "v": 56
    },
    {
      "midi": 60,
      "hit": false,
      "t": 112798.45858333317,
      "d": 774.2533958333224,
      "v": 72
    },
    {
      "midi": 63,
      "hit": false,
      "t": 112798.45858333317,
      "d": 820.8951666666544,
      "v": 90
    },
    {
      "midi": 66,
      "hit": false,
      "t": 112798.45858333317,
      "d": 830.223520833315,
      "v": 72
    },
    {
      "midi": 51,
      "hit": false,
      "t": 112798.45858333317,
      "d": 1222.0143958333065,
      "v": 60
    },
    {
      "midi": 69,
      "hit": false,
      "t": 112807.78693749983,
      "d": 820.8951666666544,
      "v": 86
    },
    {
      "midi": 69,
      "hit": false,
      "t": 113703.30893749981,
      "d": 382.4625208333309,
      "v": 72
    },
    {
      "midi": 60,
      "hit": false,
      "t": 113703.30893749981,
      "d": 652.9847916666622,
      "v": 72
    },
    {
      "midi": 63,
      "hit": false,
      "t": 113703.30893749981,
      "d": 839.5518749999901,
      "v": 60
    },
    {
      "midi": 66,
      "hit": false,
      "t": 113703.30893749981,
      "d": 839.5518749999901,
      "v": 64
    },
    {
      "midi": 51,
      "hit": false,
      "t": 114179.0549999998,
      "d": 317.16404166666325,
      "v": 60
    },
    {
      "midi": 68,
      "hit": false,
      "t": 114598.8309374998,
      "d": 1716.4171666666516,
      "v": 90
    },
    {
      "midi": 61,
      "hit": false,
      "t": 114608.15929166647,
      "d": 848.8802291666652,
      "v": 68
    },
    {
      "midi": 64,
      "hit": false,
      "t": 114608.15929166647,
      "d": 858.2085833333258,
      "v": 76
    },
    {
      "midi": 49,
      "hit": false,
      "t": 114608.15929166647,
      "d": 1231.3427499999816,
      "v": 68
    },
    {
      "midi": 56,
      "hit": false,
      "t": 115083.90535416646,
      "d": 634.3280833333265,
      "v": 54
    },
    {
      "midi": 71,
      "hit": false,
      "t": 115531.66635416646,
      "d": 662.3131458333228,
      "v": 86
    },
    {
      "midi": 64,
      "hit": false,
      "t": 115531.66635416646,
      "d": 783.5817499999976,
      "v": 90
    },
    {
      "midi": 61,
      "hit": false,
      "t": 115540.99470833312,
      "d": 671.6414999999979,
      "v": 68
    },
    {
      "midi": 49,
      "hit": false,
      "t": 115979.42735416644,
      "d": 373.1341666666849,
      "v": 64
    },
    {
      "midi": 47,
      "hit": false,
      "t": 116389.8749374998,
      "d": 1222.014395833321,
      "v": 72
    },
    {
      "midi": 59,
      "hit": false,
      "t": 116399.20329166646,
      "d": 335.82074999999895,
      "v": 76
    },
    {
      "midi": 68,
      "hit": false,
      "t": 116399.20329166646,
      "d": 783.5817499999976,
      "v": 72
    },
    {
      "midi": 64,
      "hit": false,
      "t": 116408.53164583312,
      "d": 792.9101041666727,
      "v": 62
    },
    {
      "midi": 59,
      "hit": false,
      "t": 116874.94935416646,
      "d": 746.2683333333262,
      "v": 52
    },
    {
      "midi": 68,
      "hit": false,
      "t": 117276.06858333312,
      "d": 438.4326458333235,
      "v": 72
    },
    {
      "midi": 64,
      "hit": false,
      "t": 117285.39693749978,
      "d": 447.7609999999986,
      "v": 76
    },
    {
      "midi": 47,
      "hit": false,
      "t": 117733.15793749978,
      "d": 345.1491041666595,
      "v": 68
    },
    {
      "midi": 59,
      "hit": false,
      "t": 117733.15793749978,
      "d": 708.9549166666548,
      "v": 60
    },
    {
      "midi": 64,
      "hit": false,
      "t": 118162.26222916644,
      "d": 2873.1330833333195,
      "v": 56
    },
    {
      "midi": 45,
      "hit": false,
      "t": 118162.26222916644,
      "d": 3022.386749999976,
      "v": 68
    },
    {
      "midi": 61,
      "hit": false,
      "t": 118171.5905833331,
      "d": 2873.1330833333195,
      "v": 58
    },
    {
      "midi": 68,
      "hit": false,
      "t": 121818.97706249975,
      "d": 447.7609999999986,
      "v": 94
    },
    {
      "midi": 59,
      "hit": false,
      "t": 121818.97706249975,
      "d": 764.9250416666619,
      "v": 80
    },
    {
      "midi": 40,
      "hit": false,
      "t": 121818.97706249975,
      "d": 1296.6412291666493,
      "v": 90
    },
    {
      "midi": 64,
      "hit": false,
      "t": 121828.30541666641,
      "d": 774.253395833337,
      "v": 90
    },
    {
      "midi": 47,
      "hit": false,
      "t": 122220.09629166641,
      "d": 662.3131458333228,
      "v": 56
    },
    {
      "midi": 59,
      "hit": false,
      "t": 122677.18564583307,
      "d": 736.9399791666656,
      "v": 72
    },
    {
      "midi": 68,
      "hit": false,
      "t": 122677.18564583307,
      "d": 811.5668124999938,
      "v": 98
    },
    {
      "midi": 64,
      "hit": false,
      "t": 122686.51399999973,
      "d": 802.2384583333333,
      "v": 86
    },
    {
      "midi": 47,
      "hit": false,
      "t": 123134.27499999973,
      "d": 429.1042916666629,
      "v": 72
    },
    {
      "midi": 40,
      "hit": false,
      "t": 123554.05093749973,
      "d": 1175.3726249999745,
      "v": 80
    },
    {
      "midi": 64,
      "hit": false,
      "t": 123563.3792916664,
      "d": 839.5518749999756,
      "v": 94
    },
    {
      "midi": 69,
      "hit": false,
      "t": 123572.70764583306,
      "d": 680.9698541666585,
      "v": 72
    },
    {
      "midi": 61,
      "hit": false,
      "t": 123582.03599999972,
      "d": 792.9101041666581,
      "v": 64
    },
    {
      "midi": 47,
      "hit": false,
      "t": 124011.14029166638,
      "d": 634.3280833333265,
      "v": 58
    },
    {
      "midi": 69,
      "hit": false,
      "t": 124468.22964583304,
      "d": 708.9549166666693,
      "v": 80
    },
    {
      "midi": 61,
      "hit": false,
      "t": 124468.22964583304,
      "d": 746.2683333333407,
      "v": 68
    },
    {
      "midi": 64,
      "hit": false,
      "t": 124468.22964583304,
      "d": 783.5817500000121,
      "v": 86
    },
    {
      "midi": 47,
      "hit": false,
      "t": 124925.31899999971,
      "d": 373.13416666667035,
      "v": 60
    },
    {
      "midi": 40,
      "hit": false,
      "t": 125326.43822916638,
      "d": 1399.2531249999884,
      "v": 76
    },
    {
      "midi": 59,
      "hit": false,
      "t": 125335.76658333304,
      "d": 298.50733333332755,
      "v": 72
    },
    {
      "midi": 68,
      "hit": false,
      "t": 125335.76658333304,
      "d": 485.07441666665545,
      "v": 68
    },
    {
      "midi": 64,
      "hit": false,
      "t": 125335.76658333304,
      "d": 522.3878333333269,
      "v": 72
    },
    {
      "midi": 59,
      "hit": false,
      "t": 125820.8409999997,
      "d": 680.969854166673,
      "v": 76
    },
    {
      "midi": 64,
      "hit": false,
      "t": 126249.94529166637,
      "d": 401.1192291666666,
      "v": 94
    },
    {
      "midi": 68,
      "hit": false,
      "t": 126249.94529166637,
      "d": 830.2235208333441,
      "v": 108
    },
    {
      "midi": 59,
      "hit": false,
      "t": 126716.3629999997,
      "d": 307.8356875000027,
      "v": 68
    },
    {
      "midi": 47,
      "hit": false,
      "t": 126921.58679166637,
      "d": 177.23872916668188,
      "v": 62
    },
    {
      "midi": 69,
      "hit": false,
      "t": 127136.13893749972,
      "d": 438.43264583333803,
      "v": 80
    },
    {
      "midi": 64,
      "hit": false,
      "t": 127136.13893749972,
      "d": 559.7012500000128,
      "v": 80
    },
    {
      "midi": 40,
      "hit": false,
      "t": 127136.13893749972,
      "d": 1427.2381875000137,
      "v": 86
    },
    {
      "midi": 61,
      "hit": false,
      "t": 127145.46729166638,
      "d": 279.8506250000064,
      "v": 62
    },
    {
      "midi": 61,
      "hit": false,
      "t": 127639.87006249973,
      "d": 345.1491041666741,
      "v": 60
    },
    {
      "midi": 61,
      "hit": false,
      "t": 128040.98929166641,
      "d": 233.20885416665988,
      "v": 72
    },
    {
      "midi": 64,
      "hit": false,
      "t": 128040.98929166641,
      "d": 419.7759374999878,
      "v": 90
    },
    {
      "midi": 69,
      "hit": false,
      "t": 128040.98929166641,
      "d": 485.07441666665545,
      "v": 90
    },
    {
      "midi": 61,
      "hit": false,
      "t": 128526.06370833307,
      "d": 279.85062500002095,
      "v": 86
    },
    {
      "midi": 64,
      "hit": false,
      "t": 128731.28749999974,
      "d": 158.58202083333163,
      "v": 68
    },
    {
      "midi": 47,
      "hit": false,
      "t": 128768.60091666642,
      "d": 111.94024999999965,
      "v": 58
    },
    {
      "midi": 59,
      "hit": false,
      "t": 128945.83964583308,
      "d": 233.20885416665988,
      "v": 94
    },
    {
      "midi": 68,
      "hit": false,
      "t": 128945.83964583308,
      "d": 447.76099999998405,
      "v": 76
    },
    {
      "midi": 64,
      "hit": false,
      "t": 128955.16799999974,
      "d": 410.4475833333272,
      "v": 90
    },
    {
      "midi": 40,
      "hit": false,
      "t": 128955.16799999974,
      "d": 1417.9098333333095,
      "v": 80
    },
    {
      "midi": 59,
      "hit": false,
      "t": 129421.58570833306,
      "d": 419.7759375000023,
      "v": 94
    },
    {
      "midi": 68,
      "hit": false,
      "t": 129850.68999999973,
      "d": 447.7609999999986,
      "v": 98
    },
    {
      "midi": 64,
      "hit": false,
      "t": 129860.01835416639,
      "d": 401.1192291666666,
      "v": 90
    },
    {
      "midi": 59,
      "hit": false,
      "t": 130307.77935416639,
      "d": 298.5073333333421,
      "v": 90
    },
    {
      "midi": 47,
      "hit": false,
      "t": 130522.33149999972,
      "d": 167.91037500000675,
      "v": 60
    },
    {
      "midi": 40,
      "hit": false,
      "t": 130718.22693749973,
      "d": 1361.9397083333315,
      "v": 76
    },
    {
      "midi": 61,
      "hit": false,
      "t": 130736.88364583306,
      "d": 261.1939166666707,
      "v": 68
    },
    {
      "midi": 69,
      "hit": false,
      "t": 130736.88364583306,
      "d": 410.4475833333272,
      "v": 76
    },
    {
      "midi": 64,
      "hit": false,
      "t": 130736.88364583306,
      "d": 419.7759375000023,
      "v": 86
    },
    {
      "midi": 61,
      "hit": false,
      "t": 131193.97299999974,
      "d": 345.1491041666595,
      "v": 54
    },
    {
      "midi": 64,
      "hit": false,
      "t": 131212.62970833306,
      "d": 335.8207500000135,
      "v": 62
    },
    {
      "midi": 69,
      "hit": false,
      "t": 131221.95806249973,
      "d": 121.26860416666023,
      "v": 72
    },
    {
      "midi": 61,
      "hit": false,
      "t": 131632.40564583306,
      "d": 233.20885416667443,
      "v": 90
    },
    {
      "midi": 64,
      "hit": false,
      "t": 131632.40564583306,
      "d": 419.7759375000023,
      "v": 94
    },
    {
      "midi": 69,
      "hit": false,
      "t": 131632.40564583306,
      "d": 419.7759375000023,
      "v": 90
    },
    {
      "midi": 61,
      "hit": false,
      "t": 132089.49499999973,
      "d": 279.85062500002095,
      "v": 44
    },
    {
      "midi": 64,
      "hit": false,
      "t": 132117.48006249973,
      "d": 74.6268333333428,
      "v": 40
    },
    {
      "midi": 47,
      "hit": false,
      "t": 132257.40537499974,
      "d": 167.91037500000675,
      "v": 50
    },
    {
      "midi": 59,
      "hit": false,
      "t": 132490.61422916641,
      "d": 270.52227083334583,
      "v": 80
    },
    {
      "midi": 68,
      "hit": false,
      "t": 132490.61422916641,
      "d": 447.7609999999986,
      "v": 76
    },
    {
      "midi": 64,
      "hit": false,
      "t": 132499.9425833331,
      "d": 457.08935416667373,
      "v": 72
    },
    {
      "midi": 40,
      "hit": false,
      "t": 132499.9425833331,
      "d": 1259.327812500036,
      "v": 76
    },
    {
      "midi": 59,
      "hit": false,
      "t": 132947.7035833331,
      "d": 373.1341666666849,
      "v": 72
    },
    {
      "midi": 59,
      "hit": false,
      "t": 133386.13622916644,
      "d": 429.10429166667745,
      "v": 72
    },
    {
      "midi": 64,
      "hit": false,
      "t": 133395.46458333312,
      "d": 624.9997291666514,
      "v": 90
    },
    {
      "midi": 68,
      "hit": false,
      "t": 133395.46458333312,
      "d": 662.3131458333228,
      "v": 94
    },
    {
      "midi": 47,
      "hit": false,
      "t": 133871.2106458331,
      "d": 382.4625208333018,
      "v": 72
    },
    {
      "midi": 59,
      "hit": false,
      "t": 134076.43443749976,
      "d": 233.20885416667443,
      "v": 62
    },
    {
      "midi": 40,
      "hit": false,
      "t": 134290.98658333308,
      "d": 736.9399791666947,
      "v": 94
    },
    {
      "midi": 68,
      "hit": false,
      "t": 134300.31493749976,
      "d": 214.55214583335328,
      "v": 120
    },
    {
      "midi": 59,
      "hit": false,
      "t": 134514.8670833331,
      "d": 317.16404166666325,
      "v": 108
    },
    {
      "midi": 64,
      "hit": false,
      "t": 134720.0908749998,
      "d": 158.58202083333163,
      "v": 108
    },
    {
      "midi": 47,
      "hit": false,
      "t": 134804.04606249978,
      "d": 251.86556249999558,
      "v": 32
    },
    {
      "midi": 68,
      "hit": false,
      "t": 134934.64302083311,
      "d": 167.91037499997765,
      "v": 94
    },
    {
      "midi": 59,
      "hit": false,
      "t": 134962.6280833331,
      "d": 121.26860416666023,
      "v": 40
    },
    {
      "midi": 71,
      "hit": false,
      "t": 135167.85187499976,
      "d": 251.86556249999558,
      "v": 108
    },
    {
      "midi": 39,
      "hit": false,
      "t": 135167.85187499976,
      "d": 830.2235208333295,
      "v": 94
    },
    {
      "midi": 59,
      "hit": false,
      "t": 135410.38908333308,
      "d": 317.16404166666325,
      "v": 90
    },
    {
      "midi": 63,
      "hit": false,
      "t": 135634.26958333308,
      "d": 167.91037500000675,
      "v": 98
    },
    {
      "midi": 66,
      "hit": false,
      "t": 135867.47843749975,
      "d": 158.58202083333163,
      "v": 86
    },
    {
      "midi": 63,
      "hit": false,
      "t": 135886.13514583308,
      "d": 102.61189583333908,
      "v": 40
    },
    {
      "midi": 64,
      "hit": false,
      "t": 136082.03058333308,
      "d": 848.8802291666798,
      "v": 98
    },
    {
      "midi": 61,
      "hit": false,
      "t": 136082.03058333308,
      "d": 876.8652916666761,
      "v": 90
    },
    {
      "midi": 37,
      "hit": false,
      "t": 136091.35893749975,
      "d": 1445.894895833364,
      "v": 86
    },
    {
      "midi": 44,
      "hit": false,
      "t": 136576.43335416642,
      "d": 522.3878333333414,
      "v": 24
    },
    {
      "midi": 61,
      "hit": false,
      "t": 137005.5376458331,
      "d": 233.20885416667443,
      "v": 68
    },
    {
      "midi": 64,
      "hit": false,
      "t": 137005.5376458331,
      "d": 438.4326458333526,
      "v": 80
    },
    {
      "midi": 68,
      "hit": false,
      "t": 137005.5376458331,
      "d": 513.0594791666954,
      "v": 80
    },
    {
      "midi": 61,
      "hit": false,
      "t": 137434.64193749978,
      "d": 373.1341666666558,
      "v": 62
    },
    {
      "midi": 44,
      "hit": false,
      "t": 137630.53737499978,
      "d": 195.89543749997392,
      "v": 56
    },
    {
      "midi": 61,
      "hit": false,
      "t": 137854.41787499975,
      "d": 858.2085833333258,
      "v": 68
    },
    {
      "midi": 37,
      "hit": false,
      "t": 137854.41787499975,
      "d": 1539.1784374999988,
      "v": 72
    },
    {
      "midi": 68,
      "hit": false,
      "t": 137873.07458333307,
      "d": 419.7759375000023,
      "v": 72
    },
    {
      "midi": 64,
      "hit": false,
      "t": 137873.07458333307,
      "d": 830.2235208333295,
      "v": 80
    },
    {
      "midi": 44,
      "hit": false,
      "t": 138311.5072291664,
      "d": 643.6564375000016,
      "v": 50
    },
    {
      "midi": 64,
      "hit": false,
      "t": 138768.59658333307,
      "d": 373.1341666666558,
      "v": 76
    },
    {
      "midi": 68,
      "hit": false,
      "t": 138768.59658333307,
      "d": 373.1341666666558,
      "v": 86
    },
    {
      "midi": 61,
      "hit": false,
      "t": 138768.59658333307,
      "d": 419.7759375000023,
      "v": 68
    },
    {
      "midi": 44,
      "hit": false,
      "t": 139197.70087499975,
      "d": 242.53720833334955,
      "v": 60
    },
    {
      "midi": 44,
      "hit": false,
      "t": 139626.80516666643,
      "d": 1455.2232500000391,
      "v": 72
    },
    {
      "midi": 56,
      "hit": false,
      "t": 139636.1335208331,
      "d": 261.1939166666707,
      "v": 72
    },
    {
      "midi": 63,
      "hit": false,
      "t": 139636.1335208331,
      "d": 419.7759375000023,
      "v": 72
    },
    {
      "midi": 59,
      "hit": false,
      "t": 139636.1335208331,
      "d": 475.7460624999949,
      "v": 76
    },
    {
      "midi": 56,
      "hit": false,
      "t": 140093.22287499977,
      "d": 382.4625208333309,
      "v": 50
    },
    {
      "midi": 56,
      "hit": false,
      "t": 140550.31222916645,
      "d": 223.8804999999993,
      "v": 72
    },
    {
      "midi": 59,
      "hit": false,
      "t": 140559.64058333312,
      "d": 475.7460624999949,
      "v": 76
    },
    {
      "midi": 63,
      "hit": false,
      "t": 140559.64058333312,
      "d": 624.9997291666805,
      "v": 76
    },
    {
      "midi": 56,
      "hit": false,
      "t": 141007.40158333312,
      "d": 708.9549166666984,
      "v": 60
    },
    {
      "midi": 51,
      "hit": false,
      "t": 141221.95372916647,
      "d": 158.58202083333163,
      "v": 72
    },
    {
      "midi": 59,
      "hit": false,
      "t": 141249.93879166647,
      "d": 139.92531250001048,
      "v": 60
    },
    {
      "midi": 44,
      "hit": false,
      "t": 141436.50587499983,
      "d": 1473.8799583333894,
      "v": 76
    },
    {
      "midi": 66,
      "hit": false,
      "t": 141455.16258333315,
      "d": 466.41770833334886,
      "v": 80
    },
    {
      "midi": 59,
      "hit": false,
      "t": 141455.16258333315,
      "d": 811.5668125000375,
      "v": 80
    },
    {
      "midi": 51,
      "hit": false,
      "t": 141921.5802916665,
      "d": 1016.7906041667156,
      "v": 64
    },
    {
      "midi": 56,
      "hit": false,
      "t": 141930.90864583317,
      "d": 345.14910416668863,
      "v": 56
    },
    {
      "midi": 56,
      "hit": false,
      "t": 142350.6845833332,
      "d": 205.22379166667815,
      "v": 72
    },
    {
      "midi": 63,
      "hit": false,
      "t": 142350.6845833332,
      "d": 485.07441666667,
      "v": 72
    },
    {
      "midi": 59,
      "hit": false,
      "t": 142350.6845833332,
      "d": 550.3728958333377,
      "v": 94
    },
    {
      "midi": 56,
      "hit": false,
      "t": 142817.10229166655,
      "d": 373.1341666666558,
      "v": 90
    },
    {
      "midi": 44,
      "hit": false,
      "t": 143012.99772916656,
      "d": 251.86556249999558,
      "v": 60
    },
    {
      "midi": 63,
      "hit": false,
      "t": 143031.65443749988,
      "d": 186.5670833333279,
      "v": 80
    },
    {
      "midi": 63,
      "hit": false,
      "t": 143255.53493749988,
      "d": 83.95518750001793,
      "v": 80
    },
    {
      "midi": 57,
      "hit": false,
      "t": 143264.86329166655,
      "d": 335.8207500000135,
      "v": 72
    },
    {
      "midi": 61,
      "hit": false,
      "t": 143264.86329166655,
      "d": 522.3878333333705,
      "v": 80
    },
    {
      "midi": 45,
      "hit": false,
      "t": 143264.86329166655,
      "d": 1483.2083125000645,
      "v": 98
    },
    {
      "midi": 64,
      "hit": false,
      "t": 143274.19164583323,
      "d": 550.3728958333668,
      "v": 86
    },
    {
      "midi": 57,
      "hit": false,
      "t": 143712.62429166658,
      "d": 410.4475833333563,
      "v": 60
    },
    {
      "midi": 52,
      "hit": false,
      "t": 143759.26606249993,
      "d": 876.8652916666761,
      "v": 58
    },
    {
      "midi": 57,
      "hit": false,
      "t": 144141.72858333326,
      "d": 251.86556249999558,
      "v": 38
    },
    {
      "midi": 61,
      "hit": false,
      "t": 144160.38529166658,
      "d": 401.1192291666812,
      "v": 90
    },
    {
      "midi": 64,
      "hit": false,
      "t": 144160.38529166658,
      "d": 643.6564375000307,
      "v": 94
    },
    {
      "midi": 57,
      "hit": false,
      "t": 144626.80299999993,
      "d": 382.46252083336003,
      "v": 90
    },
    {
      "midi": 59,
      "hit": false,
      "t": 144832.0267916666,
      "d": 167.91037500000675,
      "v": 86
    },
    {
      "midi": 52,
      "hit": false,
      "t": 144841.35514583328,
      "d": 177.23872916668188,
      "v": 76
    },
    {
      "midi": 45,
      "hit": false,
      "t": 145037.25058333328,
      "d": 1548.506791666703,
      "v": 80
    },
    {
      "midi": 59,
      "hit": false,
      "t": 145065.23564583328,
      "d": 774.253395833337,
      "v": 90
    },
    {
      "midi": 61,
      "hit": false,
      "t": 145065.23564583328,
      "d": 802.2384583333333,
      "v": 72
    },
    {
      "midi": 64,
      "hit": false,
      "t": 145065.23564583328,
      "d": 839.5518750000047,
      "v": 86
    },
    {
      "midi": 52,
      "hit": false,
      "t": 145512.99664583328,
      "d": 876.8652916666761,
      "v": 76
    },
    {
      "midi": 57,
      "hit": false,
      "t": 145942.10093749996,
      "d": 298.5073333333421,
      "v": 108
    },
    {
      "midi": 59,
      "hit": false,
      "t": 146147.32472916663,
      "d": 382.4625208333309,
      "v": 102
    },
    {
      "midi": 61,
      "hit": false,
      "t": 146361.87687499996,
      "d": 177.23872916668188,
      "v": 102
    },
    {
      "midi": 64,
      "hit": false,
      "t": 146576.4290208333,
      "d": 177.23872916668188,
      "v": 80
    },
    {
      "midi": 52,
      "hit": false,
      "t": 146595.08572916666,
      "d": 130.59695833333535,
      "v": 86
    },
    {
      "midi": 57,
      "hit": false,
      "t": 146828.29458333334,
      "d": 363.8058125000098,
      "v": 94
    },
    {
      "midi": 64,
      "hit": false,
      "t": 146828.29458333334,
      "d": 811.5668125000375,
      "v": 108
    },
    {
      "midi": 47,
      "hit": false,
      "t": 146828.29458333334,
      "d": 1520.5217291666777,
      "v": 90
    },
    {
      "midi": 61,
      "hit": false,
      "t": 146837.6229375,
      "d": 792.9101041666872,
      "v": 108
    },
    {
      "midi": 57,
      "hit": false,
      "t": 147304.04064583336,
      "d": 279.85062499999185,
      "v": 26
    },
    {
      "midi": 57,
      "hit": false,
      "t": 147705.15987500004,
      "d": 475.7460624999949,
      "v": 90
    },
    {
      "midi": 61,
      "hit": false,
      "t": 147705.15987500004,
      "d": 503.73112499999115,
      "v": 90
    },
    {
      "midi": 64,
      "hit": false,
      "t": 147705.15987500004,
      "d": 522.3878333333123,
      "v": 94
    },
    {
      "midi": 47,
      "hit": false,
      "t": 148563.36845833334,
      "d": 139.92531250001048,
      "v": 86
    },
    {
      "midi": 63,
      "hit": false,
      "t": 148591.35352083333,
      "d": 130.59695833333535,
      "v": 86
    },
    {
      "midi": 59,
      "hit": false,
      "t": 148600.681875,
      "d": 158.58202083333163,
      "v": 86
    },
    {
      "midi": 49,
      "hit": false,
      "t": 148787.24895833334,
      "d": 167.91037500000675,
      "v": 72
    },
    {
      "midi": 61,
      "hit": false,
      "t": 148815.23402083333,
      "d": 158.58202083333163,
      "v": 72
    },
    {
      "midi": 64,
      "hit": false,
      "t": 148824.562375,
      "d": 167.91037499997765,
      "v": 62
    },
    {
      "midi": 51,
      "hit": false,
      "t": 149048.44287499998,
      "d": 261.1939166666707,
      "v": 90
    },
    {
      "midi": 66,
      "hit": false,
      "t": 149057.77122916665,
      "d": 223.8804999999993,
      "v": 90
    },
    {
      "midi": 63,
      "hit": false,
      "t": 149067.09958333333,
      "d": 270.5222708333167,
      "v": 86
    },
    {
      "midi": 51,
      "hit": false,
      "t": 149477.54716666666,
      "d": 130.59695833333535,
      "v": 94
    },
    {
      "midi": 63,
      "hit": false,
      "t": 149505.53222916665,
      "d": 139.92531250001048,
      "v": 90
    },
    {
      "midi": 66,
      "hit": false,
      "t": 149505.53222916665,
      "d": 139.92531250001048,
      "v": 90
    },
    {
      "midi": 52,
      "hit": false,
      "t": 149682.77095833333,
      "d": 149.2536666666856,
      "v": 94
    },
    {
      "midi": 68,
      "hit": false,
      "t": 149729.41272916668,
      "d": 158.58202083333163,
      "v": 72
    },
    {
      "midi": 64,
      "hit": false,
      "t": 149738.74108333336,
      "d": 130.59695833333535,
      "v": 76
    },
    {
      "midi": 54,
      "hit": false,
      "t": 149962.62158333336,
      "d": 167.91037500000675,
      "v": 94
    },
    {
      "midi": 69,
      "hit": false,
      "t": 149962.62158333336,
      "d": 167.91037500000675,
      "v": 90
    },
    {
      "midi": 66,
      "hit": false,
      "t": 149962.62158333336,
      "d": 186.5670833333279,
      "v": 86
    },
    {
      "midi": 40,
      "hit": false,
      "t": 150401.05422916668,
      "d": 1399.2531250000175,
      "v": 90
    },
    {
      "midi": 59,
      "hit": false,
      "t": 150419.7109375,
      "d": 270.52227083334583,
      "v": 72
    },
    {
      "midi": 68,
      "hit": false,
      "t": 150419.7109375,
      "d": 419.7759375000023,
      "v": 90
    },
    {
      "midi": 64,
      "hit": false,
      "t": 150419.7109375,
      "d": 447.7609999999986,
      "v": 86
    },
    {
      "midi": 59,
      "hit": false,
      "t": 150876.80029166667,
      "d": 680.9698541667021,
      "v": 60
    },
    {
      "midi": 47,
      "hit": false,
      "t": 150914.11370833335,
      "d": 830.2235208333586,
      "v": 24
    },
    {
      "midi": 68,
      "hit": false,
      "t": 151343.21800000002,
      "d": 811.5668125000084,
      "v": 102
    },
    {
      "midi": 64,
      "hit": false,
      "t": 151352.5463541667,
      "d": 363.8058125000098,
      "v": 90
    },
    {
      "midi": 59,
      "hit": false,
      "t": 151772.3222916667,
      "d": 345.1491041666595,
      "v": 72
    },
    {
      "midi": 40,
      "hit": false,
      "t": 151986.87443750002,
      "d": 121.26860416666023,
      "v": 72
    },
    {
      "midi": 39,
      "hit": false,
      "t": 152220.0832916667,
      "d": 1371.2680625000212,
      "v": 86
    },
    {
      "midi": 60,
      "hit": false,
      "t": 152229.41164583337,
      "d": 298.5073333333421,
      "v": 76
    },
    {
      "midi": 63,
      "hit": false,
      "t": 152229.41164583337,
      "d": 447.7609999999986,
      "v": 80
    },
    {
      "midi": 66,
      "hit": false,
      "t": 152229.41164583337,
      "d": 447.7609999999986,
      "v": 80
    },
    {
      "midi": 69,
      "hit": false,
      "t": 152229.41164583337,
      "d": 447.7609999999986,
      "v": 94
    },
    {
      "midi": 60,
      "hit": false,
      "t": 152695.8293541667,
      "d": 569.0296041666879,
      "v": 72
    },
    {
      "midi": 63,
      "hit": false,
      "t": 153152.91870833337,
      "d": 307.83568750001723,
      "v": 94
    },
    {
      "midi": 66,
      "hit": false,
      "t": 153152.91870833337,
      "d": 354.47745833336376,
      "v": 94
    },
    {
      "midi": 69,
      "hit": false,
      "t": 153152.91870833337,
      "d": 354.47745833336376,
      "v": 98
    },
    {
      "midi": 60,
      "hit": false,
      "t": 153554.03793750008,
      "d": 317.16404166663415,
      "v": 90
    },
    {
      "midi": 63,
      "hit": false,
      "t": 153572.6946458334,
      "d": 363.8058124999807,
      "v": 54
    },
    {
      "midi": 39,
      "hit": false,
      "t": 153777.91843750005,
      "d": 130.59695833333535,
      "v": 80
    },
    {
      "midi": 68,
      "hit": false,
      "t": 154001.79893750005,
      "d": 550.3728958333377,
      "v": 72
    },
    {
      "midi": 37,
      "hit": false,
      "t": 154001.79893750005,
      "d": 1763.0589374999981,
      "v": 86
    },
    {
      "midi": 61,
      "hit": false,
      "t": 154020.45564583337,
      "d": 298.5073333333421,
      "v": 62
    },
    {
      "midi": 64,
      "hit": false,
      "t": 154020.45564583337,
      "d": 494.40277083334513,
      "v": 76
    },
    {
      "midi": 61,
      "hit": false,
      "t": 154449.55993750005,
      "d": 401.1192291666812,
      "v": 72
    },
    {
      "midi": 68,
      "hit": false,
      "t": 154915.9776458334,
      "d": 559.7012500000128,
      "v": 90
    },
    {
      "midi": 64,
      "hit": false,
      "t": 154925.30600000007,
      "d": 382.4625208333309,
      "v": 86
    },
    {
      "midi": 61,
      "hit": false,
      "t": 154934.63435416674,
      "d": 121.26860416666023,
      "v": 56
    },
    {
      "midi": 61,
      "hit": false,
      "t": 155382.39535416674,
      "d": 177.23872916665277,
      "v": 90
    },
    {
      "midi": 68,
      "hit": false,
      "t": 155578.29079166672,
      "d": 158.58202083333163,
      "v": 76
    },
    {
      "midi": 64,
      "hit": false,
      "t": 155596.94750000004,
      "d": 139.92531250001048,
      "v": 76
    },
    {
      "midi": 47,
      "hit": false,
      "t": 155792.84293750004,
      "d": 1436.5665416666889,
      "v": 72
    },
    {
      "midi": 59,
      "hit": false,
      "t": 155802.17129166672,
      "d": 251.86556249999558,
      "v": 94
    },
    {
      "midi": 68,
      "hit": false,
      "t": 155802.17129166672,
      "d": 457.0893541666446,
      "v": 80
    },
    {
      "midi": 64,
      "hit": false,
      "t": 155811.4996458334,
      "d": 429.10429166664835,
      "v": 72
    },
    {
      "midi": 59,
      "hit": false,
      "t": 156259.26064583336,
      "d": 559.7012500000128,
      "v": 86
    },
    {
      "midi": 64,
      "hit": false,
      "t": 156707.02164583336,
      "d": 373.1341666666849,
      "v": 94
    },
    {
      "midi": 68,
      "hit": false,
      "t": 156707.02164583336,
      "d": 671.641500000027,
      "v": 90
    },
    {
      "midi": 59,
      "hit": false,
      "t": 157154.7826458334,
      "d": 429.10429166667745,
      "v": 86
    },
    {
      "midi": 47,
      "hit": false,
      "t": 157387.99150000006,
      "d": 149.2536666666565,
      "v": 86
    },
    {
      "midi": 61,
      "hit": false,
      "t": 157611.87200000006,
      "d": 391.79087500000605,
      "v": 76
    },
    {
      "midi": 64,
      "hit": false,
      "t": 157611.87200000006,
      "d": 802.2384583333624,
      "v": 94
    },
    {
      "midi": 45,
      "hit": false,
      "t": 157611.87200000006,
      "d": 1660.4470416667173,
      "v": 80
    },
    {
      "midi": 57,
      "hit": false,
      "t": 158050.3046458334,
      "d": 382.4625208333309,
      "v": 76
    },
    {
      "midi": 64,
      "hit": false,
      "t": 158479.4089375001,
      "d": 830.2235208333586,
      "v": 90
    },
    {
      "midi": 59,
      "hit": false,
      "t": 158488.73729166677,
      "d": 419.7759375000023,
      "v": 90
    },
    {
      "midi": 57,
      "hit": false,
      "t": 158955.15500000012,
      "d": 354.47745833333465,
      "v": 86
    },
    {
      "midi": 57,
      "hit": false,
      "t": 159402.9160000001,
      "d": 233.20885416667443,
      "v": 72
    },
    {
      "midi": 61,
      "hit": false,
      "t": 159402.9160000001,
      "d": 391.79087500000605,
      "v": 68
    },
    {
      "midi": 64,
      "hit": false,
      "t": 159402.9160000001,
      "d": 494.402770833316,
      "v": 86
    },
    {
      "midi": 47,
      "hit": false,
      "t": 159412.2443541668,
      "d": 1333.9546458333207,
      "v": 76
    },
    {
      "midi": 57,
      "hit": false,
      "t": 159813.36358333344,
      "d": 363.8058124999807,
      "v": 76
    },
    {
      "midi": 61,
      "hit": false,
      "t": 160242.4678750001,
      "d": 363.8058125000098,
      "v": 86
    },
    {
      "midi": 57,
      "hit": false,
      "t": 160251.79622916676,
      "d": 195.89543750000303,
      "v": 64
    },
    {
      "midi": 64,
      "hit": false,
      "t": 160251.79622916676,
      "d": 662.3131458333519,
      "v": 94
    },
    {
      "midi": 57,
      "hit": false,
      "t": 160671.57216666677,
      "d": 317.16404166669236,
      "v": 90
    },
    {
      "midi": 40,
      "hit": false,
      "t": 161110.00481250012,
      "d": 1511.1933750000026,
      "v": 76
    },
    {
      "midi": 59,
      "hit": false,
      "t": 161119.3331666668,
      "d": 839.5518750000047,
      "v": 86
    },
    {
      "midi": 56,
      "hit": false,
      "t": 161128.66152083347,
      "d": 289.178979166667,
      "v": 60
    },
    {
      "midi": 64,
      "hit": false,
      "t": 161128.66152083347,
      "d": 382.4625208333309,
      "v": 68
    },
    {
      "midi": 56,
      "hit": false,
      "t": 161567.0941666668,
      "d": 382.4625208333309,
      "v": 60
    },
    {
      "midi": 47,
      "hit": false,
      "t": 161585.7508750001,
      "d": 587.6863125000091,
      "v": 62
    },
    {
      "midi": 59,
      "hit": false,
      "t": 162042.8402291668,
      "d": 391.79087500000605,
      "v": 86
    },
    {
      "midi": 56,
      "hit": false,
      "t": 162052.16858333346,
      "d": 326.4923958333384,
      "v": 72
    },
    {
      "midi": 64,
      "hit": false,
      "t": 162052.16858333346,
      "d": 438.4326458333235,
      "v": 76
    },
    {
      "midi": 47,
      "hit": false,
      "t": 162518.58629166678,
      "d": 158.58202083333163,
      "v": 68
    },
    {
      "midi": 47,
      "hit": false,
      "t": 162910.3771666668,
      "d": 177.23872916665277,
      "v": 94
    },
    {
      "midi": 63,
      "hit": false,
      "t": 162929.0338750001,
      "d": 149.2536666666565,
      "v": 68
    },
    {
      "midi": 59,
      "hit": false,
      "t": 162929.0338750001,
      "d": 195.89543750000303,
      "v": 76
    },
    {
      "midi": 49,
      "hit": false,
      "t": 163152.9143750001,
      "d": 139.92531250001048,
      "v": 86
    },
    {
      "midi": 61,
      "hit": false,
      "t": 163162.24272916678,
      "d": 149.2536666666565,
      "v": 76
    },
    {
      "midi": 64,
      "hit": false,
      "t": 163162.24272916678,
      "d": 167.91037499997765,
      "v": 76
    },
    {
      "midi": 66,
      "hit": false,
      "t": 163376.7948750001,
      "d": 307.8356874999881,
      "v": 90
    },
    {
      "midi": 51,
      "hit": false,
      "t": 163395.45158333343,
      "d": 261.1939166666707,
      "v": 90
    },
    {
      "midi": 63,
      "hit": false,
      "t": 163395.45158333343,
      "d": 270.52227083334583,
      "v": 80
    },
    {
      "midi": 51,
      "hit": false,
      "t": 163787.24245833344,
      "d": 139.92531250001048,
      "v": 90
    },
    {
      "midi": 63,
      "hit": false,
      "t": 163815.22752083343,
      "d": 158.58202083336073,
      "v": 86
    },
    {
      "midi": 66,
      "hit": false,
      "t": 163815.22752083343,
      "d": 167.91037500003586,
      "v": 90
    },
    {
      "midi": 52,
      "hit": false,
      "t": 164011.12295833346,
      "d": 149.2536666666856,
      "v": 90
    },
    {
      "midi": 68,
      "hit": false,
      "t": 164039.10802083346,
      "d": 177.23872916668188,
      "v": 64
    },
    {
      "midi": 64,
      "hit": false,
      "t": 164048.43637500014,
      "d": 139.92531250001048,
      "v": 72
    },
    {
      "midi": 69,
      "hit": false,
      "t": 164272.31687500014,
      "d": 186.5670833333279,
      "v": 86
    },
    {
      "midi": 54,
      "hit": false,
      "t": 164281.6452291668,
      "d": 186.5670833333279,
      "v": 86
    },
    {
      "midi": 66,
      "hit": false,
      "t": 164281.6452291668,
      "d": 186.5670833333279,
      "v": 72
    },
    {
      "midi": 40,
      "hit": false,
      "t": 164738.73458333348,
      "d": 1436.5665416666889,
      "v": 68
    },
    {
      "midi": 59,
      "hit": false,
      "t": 164748.06293750016,
      "d": 251.86556249999558,
      "v": 72
    },
    {
      "midi": 64,
      "hit": false,
      "t": 164748.06293750016,
      "d": 447.7609999999986,
      "v": 80
    },
    {
      "midi": 68,
      "hit": false,
      "t": 164748.06293750016,
      "d": 457.08935416667373,
      "v": 86
    },
    {
      "midi": 59,
      "hit": false,
      "t": 165223.80900000015,
      "d": 690.2982083333482,
      "v": 76
    },
    {
      "midi": 68,
      "hit": false,
      "t": 165671.57000000015,
      "d": 643.6564375000307,
      "v": 102
    },
    {
      "midi": 64,
      "hit": false,
      "t": 165680.89835416683,
      "d": 438.4326458333526,
      "v": 94
    },
    {
      "midi": 59,
      "hit": false,
      "t": 166137.9877083335,
      "d": 307.83568750001723,
      "v": 86
    },
    {
      "midi": 40,
      "hit": false,
      "t": 166305.8980833335,
      "d": 121.26860416668933,
      "v": 80
    },
    {
      "midi": 60,
      "hit": false,
      "t": 166548.43529166686,
      "d": 298.5073333333421,
      "v": 80
    },
    {
      "midi": 66,
      "hit": false,
      "t": 166548.43529166686,
      "d": 429.10429166667745,
      "v": 86
    },
    {
      "midi": 69,
      "hit": false,
      "t": 166548.43529166686,
      "d": 429.10429166667745,
      "v": 94
    },
    {
      "midi": 63,
      "hit": false,
      "t": 166548.43529166686,
      "d": 494.40277083334513,
      "v": 90
    },
    {
      "midi": 39,
      "hit": false,
      "t": 166548.43529166686,
      "d": 1352.6113541667,
      "v": 90
    },
    {
      "midi": 60,
      "hit": false,
      "t": 167014.8530000002,
      "d": 559.7012500000128,
      "v": 76
    },
    {
      "midi": 46,
      "hit": false,
      "t": 167052.16641666688,
      "d": 886.1936458333221,
      "v": 42
    },
    {
      "midi": 69,
      "hit": false,
      "t": 167481.27070833356,
      "d": 438.4326458333235,
      "v": 98
    },
    {
      "midi": 63,
      "hit": false,
      "t": 167481.27070833356,
      "d": 503.73112499999115,
      "v": 94
    },
    {
      "midi": 66,
      "hit": false,
      "t": 167490.59906250023,
      "d": 447.7609999999695,
      "v": 94
    },
    {
      "midi": 60,
      "hit": false,
      "t": 167947.68841666688,
      "d": 251.86556249999558,
      "v": 90
    },
    {
      "midi": 39,
      "hit": false,
      "t": 168115.59879166688,
      "d": 93.28354166666395,
      "v": 60
    },
    {
      "midi": 68,
      "hit": false,
      "t": 168311.49422916688,
      "d": 466.41770833334886,
      "v": 86
    },
    {
      "midi": 37,
      "hit": false,
      "t": 168311.49422916688,
      "d": 1781.7156458334066,
      "v": 94
    },
    {
      "midi": 61,
      "hit": false,
      "t": 168320.82258333356,
      "d": 326.4923958333384,
      "v": 76
    },
    {
      "midi": 64,
      "hit": false,
      "t": 168320.82258333356,
      "d": 466.41770833334886,
      "v": 94
    },
    {
      "midi": 61,
      "hit": false,
      "t": 168787.2402916669,
      "d": 419.7759375000023,
      "v": 72
    },
    {
      "midi": 68,
      "hit": false,
      "t": 169253.65800000026,
      "d": 774.2533958333661,
      "v": 94
    },
    {
      "midi": 64,
      "hit": false,
      "t": 169262.98635416693,
      "d": 401.1192291666812,
      "v": 90
    },
    {
      "midi": 61,
      "hit": false,
      "t": 169710.74735416696,
      "d": 279.85062499999185,
      "v": 90
    },
    {
      "midi": 64,
      "hit": false,
      "t": 169953.28456250028,
      "d": 93.28354166666395,
      "v": 60
    },
    {
      "midi": 47,
      "hit": false,
      "t": 170130.52329166696,
      "d": 1445.894895833364,
      "v": 76
    },
    {
      "midi": 68,
      "hit": false,
      "t": 170139.85164583364,
      "d": 494.40277083334513,
      "v": 72
    },
    {
      "midi": 59,
      "hit": false,
      "t": 170149.1800000003,
      "d": 251.86556249999558,
      "v": 76
    },
    {
      "midi": 64,
      "hit": false,
      "t": 170149.1800000003,
      "d": 438.4326458333235,
      "v": 76
    },
    {
      "midi": 59,
      "hit": false,
      "t": 170596.9410000003,
      "d": 690.2982083333482,
      "v": 76
    },
    {
      "midi": 64,
      "hit": false,
      "t": 171016.7169375003,
      "d": 429.10429166667745,
      "v": 90
    },
    {
      "midi": 68,
      "hit": false,
      "t": 171016.7169375003,
      "d": 457.08935416667373,
      "v": 94
    },
    {
      "midi": 59,
      "hit": false,
      "t": 171464.4779375003,
      "d": 447.7609999999986,
      "v": 90
    },
    {
      "midi": 47,
      "hit": false,
      "t": 171697.686791667,
      "d": 139.92531250001048,
      "v": 60
    },
    {
      "midi": 45,
      "hit": false,
      "t": 171893.582229167,
      "d": 1632.4619791666628,
      "v": 76
    },
    {
      "midi": 61,
      "hit": false,
      "t": 171912.2389375003,
      "d": 429.10429166667745,
      "v": 76
    },
    {
      "midi": 64,
      "hit": false,
      "t": 171921.567291667,
      "d": 802.2384583333333,
      "v": 90
    },
    {
      "midi": 57,
      "hit": false,
      "t": 172369.32829166699,
      "d": 373.1341666666558,
      "v": 60
    },
    {
      "midi": 59,
      "hit": false,
      "t": 172798.43258333363,
      "d": 541.0445416666626,
      "v": 90
    },
    {
      "midi": 64,
      "hit": false,
      "t": 172798.43258333363,
      "d": 802.2384583333624,
      "v": 90
    },
    {
      "midi": 61,
      "hit": false,
      "t": 172817.08929166695,
      "d": 531.7161875000165,
      "v": 62
    },
    {
      "midi": 57,
      "hit": false,
      "t": 173274.17864583363,
      "d": 335.8207500000426,
      "v": 60
    },
    {
      "midi": 52,
      "hit": false,
      "t": 173460.74572916699,
      "d": 149.2536666666856,
      "v": 40
    },
    {
      "midi": 61,
      "hit": false,
      "t": 173675.29787500034,
      "d": 485.0744166666991,
      "v": 90
    },
    {
      "midi": 64,
      "hit": false,
      "t": 173675.29787500034,
      "d": 485.0744166666991,
      "v": 90
    },
    {
      "midi": 57,
      "hit": false,
      "t": 173684.626229167,
      "d": 270.52227083334583,
      "v": 76
    },
    {
      "midi": 47,
      "hit": false,
      "t": 173693.9545833337,
      "d": 1231.3427500000398,
      "v": 72
    },
    {
      "midi": 57,
      "hit": false,
      "t": 174160.37229166704,
      "d": 354.47745833333465,
      "v": 56
    },
    {
      "midi": 57,
      "hit": false,
      "t": 174589.47658333372,
      "d": 261.1939166666707,
      "v": 72
    },
    {
      "midi": 61,
      "hit": false,
      "t": 174589.47658333372,
      "d": 410.4475833333272,
      "v": 86
    },
    {
      "midi": 64,
      "hit": false,
      "t": 174598.8049375004,
      "d": 382.4625208333309,
      "v": 98
    },
    {
      "midi": 57,
      "hit": false,
      "t": 175009.25252083372,
      "d": 513.0594791666663,
      "v": 76
    },
    {
      "midi": 47,
      "hit": false,
      "t": 175037.2375833337,
      "d": 223.8804999999993,
      "v": 86
    },
    {
      "midi": 40,
      "hit": false,
      "t": 175447.68516666704,
      "d": 1520.5217291666777,
      "v": 90
    },
    {
      "midi": 56,
      "hit": false,
      "t": 175475.67022916704,
      "d": 820.8951666666835,
      "v": 76
    },
    {
      "midi": 64,
      "hit": false,
      "t": 175484.9985833337,
      "d": 811.5668125000084,
      "v": 80
    },
    {
      "midi": 47,
      "hit": false,
      "t": 175923.43122916706,
      "d": 559.7012499999837,
      "v": 72
    },
    {
      "midi": 52,
      "hit": false,
      "t": 176389.84893750038,
      "d": 261.1939166666707,
      "v": 72
    },
    {
      "midi": 64,
      "hit": false,
      "t": 176389.84893750038,
      "d": 391.79087500000605,
      "v": 102
    },
    {
      "midi": 56,
      "hit": false,
      "t": 176399.17729166706,
      "d": 307.8356874999881,
      "v": 72
    },
    {
      "midi": 47,
      "hit": false,
      "t": 176846.93829166706,
      "d": 167.91037500000675,
      "v": 72
    },
    {
      "midi": 47,
      "hit": false,
      "t": 177294.69929166706,
      "d": 158.58202083333163,
      "v": 94
    },
    {
      "midi": 63,
      "hit": false,
      "t": 177304.02764583373,
      "d": 130.59695833333535,
      "v": 72
    },
    {
      "midi": 59,
      "hit": false,
      "t": 177304.02764583373,
      "d": 158.58202083333163,
      "v": 80
    },
    {
      "midi": 49,
      "hit": false,
      "t": 177499.92308333374,
      "d": 149.2536666666565,
      "v": 86
    },
    {
      "midi": 61,
      "hit": false,
      "t": 177527.90814583373,
      "d": 139.92531249998137,
      "v": 64
    },
    {
      "midi": 64,
      "hit": false,
      "t": 177527.90814583373,
      "d": 158.58202083330252,
      "v": 72
    },
    {
      "midi": 66,
      "hit": false,
      "t": 177742.46029166703,
      "d": 317.16404166669236,
      "v": 86
    },
    {
      "midi": 51,
      "hit": false,
      "t": 177751.7886458337,
      "d": 298.5073333333421,
      "v": 90
    },
    {
      "midi": 63,
      "hit": false,
      "t": 177751.7886458337,
      "d": 307.83568750001723,
      "v": 72
    },
    {
      "midi": 51,
      "hit": false,
      "t": 178190.22129166705,
      "d": 130.59695833333535,
      "v": 94
    },
    {
      "midi": 63,
      "hit": false,
      "t": 178199.54964583373,
      "d": 158.58202083333163,
      "v": 86
    },
    {
      "midi": 66,
      "hit": false,
      "t": 178199.54964583373,
      "d": 167.91037500000675,
      "v": 90
    },
    {
      "midi": 52,
      "hit": false,
      "t": 178404.7734375004,
      "d": 130.59695833336446,
      "v": 98
    },
    {
      "midi": 68,
      "hit": false,
      "t": 178414.10179166708,
      "d": 158.58202083333163,
      "v": 72
    },
    {
      "midi": 64,
      "hit": false,
      "t": 178423.43014583376,
      "d": 130.59695833333535,
      "v": 80
    },
    {
      "midi": 69,
      "hit": false,
      "t": 178647.31064583376,
      "d": 158.58202083333163,
      "v": 90
    },
    {
      "midi": 54,
      "hit": false,
      "t": 178647.31064583376,
      "d": 167.91037500000675,
      "v": 90
    },
    {
      "midi": 66,
      "hit": false,
      "t": 178647.31064583376,
      "d": 167.91037500000675,
      "v": 80
    },
    {
      "midi": 68,
      "hit": false,
      "t": 179104.40000000043,
      "d": 513.0594791667245,
      "v": 86
    },
    {
      "midi": 40,
      "hit": false,
      "t": 179104.40000000043,
      "d": 1380.5964166666963,
      "v": 98
    },
    {
      "midi": 59,
      "hit": false,
      "t": 179113.7283541671,
      "d": 270.52227083334583,
      "v": 72
    },
    {
      "midi": 64,
      "hit": false,
      "t": 179113.7283541671,
      "d": 401.1192291666812,
      "v": 76
    },
    {
      "midi": 59,
      "hit": false,
      "t": 179561.48935416713,
      "d": 699.6265625000233,
      "v": 54
    },
    {
      "midi": 47,
      "hit": false,
      "t": 179608.13112500048,
      "d": 914.1787083333184,
      "v": 10
    },
    {
      "midi": 64,
      "hit": false,
      "t": 179999.9220000005,
      "d": 466.41770833331975,
      "v": 98
    },
    {
      "midi": 68,
      "hit": false,
      "t": 179999.9220000005,
      "d": 671.6414999999979,
      "v": 98
    },
    {
      "midi": 59,
      "hit": false,
      "t": 180447.68300000048,
      "d": 354.47745833333465,
      "v": 76
    },
    {
      "midi": 40,
      "hit": false,
      "t": 180662.2351458338,
      "d": 121.26860416668933,
      "v": 72
    },
    {
      "midi": 69,
      "hit": false,
      "t": 180886.1156458338,
      "d": 401.1192291666521,
      "v": 76
    },
    {
      "midi": 66,
      "hit": false,
      "t": 180886.1156458338,
      "d": 410.4475833333272,
      "v": 62
    },
    {
      "midi": 63,
      "hit": false,
      "t": 180886.1156458338,
      "d": 429.10429166664835,
      "v": 64
    },
    {
      "midi": 39,
      "hit": false,
      "t": 180886.1156458338,
      "d": 1315.2979374999995,
      "v": 94
    },
    {
      "midi": 60,
      "hit": false,
      "t": 180904.77235416713,
      "d": 261.1939166666707,
      "v": 76
    },
    {
      "midi": 60,
      "hit": false,
      "t": 181352.53335416713,
      "d": 643.6564375000307,
      "v": 72
    },
    {
      "midi": 63,
      "hit": false,
      "t": 181781.6376458338,
      "d": 811.5668125000084,
      "v": 86
    },
    {
      "midi": 69,
      "hit": false,
      "t": 181790.96600000048,
      "d": 382.4625208333309,
      "v": 90
    },
    {
      "midi": 66,
      "hit": false,
      "t": 181790.96600000048,
      "d": 391.79087500000605,
      "v": 80
    },
    {
      "midi": 60,
      "hit": false,
      "t": 182229.3986458338,
      "d": 289.178979166667,
      "v": 68
    },
    {
      "midi": 39,
      "hit": false,
      "t": 182397.3090208338,
      "d": 121.26860416666023,
      "v": 68
    },
    {
      "midi": 37,
      "hit": false,
      "t": 182630.51787500049,
      "d": 1408.5814791666344,
      "v": 86
    },
    {
      "midi": 61,
      "hit": false,
      "t": 182658.50293750048,
      "d": 317.16404166666325,
      "v": 72
    },
    {
      "midi": 64,
      "hit": false,
      "t": 182658.50293750048,
      "d": 466.41770833331975,
      "v": 86
    },
    {
      "midi": 68,
      "hit": false,
      "t": 182658.50293750048,
      "d": 569.0296041666588,
      "v": 64
    },
    {
      "midi": 44,
      "hit": false,
      "t": 183040.9654583338,
      "d": 970.1488333333109,
      "v": 48
    },
    {
      "midi": 61,
      "hit": false,
      "t": 183106.26393750048,
      "d": 363.8058124999807,
      "v": 60
    },
    {
      "midi": 61,
      "hit": false,
      "t": 183563.35329166712,
      "d": 289.178979166667,
      "v": 86
    },
    {
      "midi": 64,
      "hit": false,
      "t": 183563.35329166712,
      "d": 485.07441666667,
      "v": 94
    },
    {
      "midi": 68,
      "hit": false,
      "t": 183563.35329166712,
      "d": 755.5966874999867,
      "v": 86
    },
    {
      "midi": 61,
      "hit": false,
      "t": 184011.11429166712,
      "d": 307.8356874999881,
      "v": 72
    },
    {
      "midi": 44,
      "hit": false,
      "t": 184225.66643750045,
      "d": 149.2536666666565,
      "v": 64
    },
    {
      "midi": 68,
      "hit": false,
      "t": 184430.8902291671,
      "d": 466.41770833334886,
      "v": 72
    },
    {
      "midi": 59,
      "hit": false,
      "t": 184440.21858333377,
      "d": 307.8356874999881,
      "v": 94
    },
    {
      "midi": 64,
      "hit": false,
      "t": 184440.21858333377,
      "d": 447.7609999999986,
      "v": 86
    },
    {
      "midi": 37,
      "hit": false,
      "t": 184440.21858333377,
      "d": 1436.5665416666889,
      "v": 90
    },
    {
      "midi": 44,
      "hit": false,
      "t": 184897.30793750045,
      "d": 690.2982083333482,
      "v": 46
    },
    {
      "midi": 59,
      "hit": false,
      "t": 184897.30793750045,
      "d": 746.2683333333407,
      "v": 86
    },
    {
      "midi": 64,
      "hit": false,
      "t": 185354.39729166712,
      "d": 410.4475833333272,
      "v": 90
    },
    {
      "midi": 68,
      "hit": false,
      "t": 185354.39729166712,
      "d": 429.10429166667745,
      "v": 98
    },
    {
      "midi": 59,
      "hit": false,
      "t": 185774.17322916712,
      "d": 522.3878333333414,
      "v": 86
    },
    {
      "midi": 44,
      "hit": false,
      "t": 185970.06866666712,
      "d": 102.61189583333908,
      "v": 60
    },
    {
      "midi": 61,
      "hit": false,
      "t": 186240.59093750047,
      "d": 438.4326458333235,
      "v": 86
    },
    {
      "midi": 64,
      "hit": false,
      "t": 186240.59093750047,
      "d": 802.2384583333333,
      "v": 90
    },
    {
      "midi": 45,
      "hit": false,
      "t": 186240.59093750047,
      "d": 1688.4321041666844,
      "v": 90
    },
    {
      "midi": 57,
      "hit": false,
      "t": 186707.0086458338,
      "d": 662.3131458333519,
      "v": 60
    },
    {
      "midi": 64,
      "hit": false,
      "t": 187126.7845833338,
      "d": 820.8951666666835,
      "v": 90
    },
    {
      "midi": 59,
      "hit": false,
      "t": 187136.11293750047,
      "d": 419.7759375000023,
      "v": 94
    },
    {
      "midi": 57,
      "hit": false,
      "t": 187621.18735416714,
      "d": 270.52227083334583,
      "v": 72
    },
    {
      "midi": 59,
      "hit": false,
      "t": 187817.08279166714,
      "d": 130.59695833333535,
      "v": 76
    },
    {
      "midi": 57,
      "hit": false,
      "t": 188050.29164583381,
      "d": 261.1939166666707,
      "v": 76
    },
    {
      "midi": 64,
      "hit": false,
      "t": 188050.29164583381,
      "d": 587.68631249998,
      "v": 90
    },
    {
      "midi": 47,
      "hit": false,
      "t": 188050.29164583381,
      "d": 1231.3427499999816,
      "v": 86
    },
    {
      "midi": 61,
      "hit": false,
      "t": 188059.6200000005,
      "d": 401.1192291666521,
      "v": 86
    },
    {
      "midi": 57,
      "hit": false,
      "t": 188488.72429166714,
      "d": 354.47745833333465,
      "v": 76
    },
    {
      "midi": 57,
      "hit": false,
      "t": 188927.15693750046,
      "d": 251.86556249999558,
      "v": 68
    },
    {
      "midi": 64,
      "hit": false,
      "t": 188927.15693750046,
      "d": 382.4625208333309,
      "v": 94
    },
    {
      "midi": 61,
      "hit": false,
      "t": 188936.48529166714,
      "d": 410.4475833333272,
      "v": 86
    },
    {
      "midi": 57,
      "hit": false,
      "t": 189346.93287500046,
      "d": 345.14910416668863,
      "v": 72
    },
    {
      "midi": 47,
      "hit": false,
      "t": 189356.26122916714,
      "d": 223.8804999999993,
      "v": 76
    },
    {
      "midi": 40,
      "hit": false,
      "t": 189785.36552083382,
      "d": 1436.5665416666889,
      "v": 90
    },
    {
      "midi": 59,
      "hit": false,
      "t": 189804.02222916714,
      "d": 242.53720833332045,
      "v": 76
    },
    {
      "midi": 64,
      "hit": false,
      "t": 189804.02222916714,
      "d": 438.4326458333235,
      "v": 90
    },
    {
      "midi": 68,
      "hit": false,
      "t": 189804.02222916714,
      "d": 494.40277083334513,
      "v": 76
    },
    {
      "midi": 47,
      "hit": false,
      "t": 190242.45487500046,
      "d": 1007.4622500000405,
      "v": 56
    },
    {
      "midi": 59,
      "hit": false,
      "t": 190251.78322916714,
      "d": 373.1341666666849,
      "v": 76
    },
    {
      "midi": 64,
      "hit": false,
      "t": 190727.52929166716,
      "d": 419.7759375000023,
      "v": 94
    },
    {
      "midi": 68,
      "hit": false,
      "t": 190727.52929166716,
      "d": 522.3878333333414,
      "v": 102
    },
    {
      "midi": 59,
      "hit": false,
      "t": 190736.85764583384,
      "d": 233.20885416667443,
      "v": 62
    },
    {
      "midi": 59,
      "hit": false,
      "t": 191184.61864583383,
      "d": 83.95518749998882,
      "v": 50
    },
    {
      "midi": 47,
      "hit": false,
      "t": 191595.06622916716,
      "d": 149.2536666666565,
      "v": 86
    },
    {
      "midi": 63,
      "hit": false,
      "t": 191613.72293750048,
      "d": 130.59695833333535,
      "v": 76
    },
    {
      "midi": 59,
      "hit": false,
      "t": 191623.05129166716,
      "d": 289.1789791666379,
      "v": 72
    },
    {
      "midi": 49,
      "hit": false,
      "t": 191809.6183750005,
      "d": 149.2536666666565,
      "v": 86
    },
    {
      "midi": 61,
      "hit": false,
      "t": 191828.2750833338,
      "d": 139.92531250001048,
      "v": 72
    },
    {
      "midi": 64,
      "hit": false,
      "t": 191828.2750833338,
      "d": 158.58202083333163,
      "v": 62
    },
    {
      "midi": 66,
      "hit": false,
      "t": 192052.1555833338,
      "d": 223.8804999999993,
      "v": 86
    },
    {
      "midi": 63,
      "hit": false,
      "t": 192052.1555833338,
      "d": 251.86556249999558,
      "v": 80
    },
    {
      "midi": 51,
      "hit": false,
      "t": 192061.48393750048,
      "d": 251.86556249999558,
      "v": 94
    },
    {
      "midi": 51,
      "hit": false,
      "t": 192490.58822916713,
      "d": 130.59695833333535,
      "v": 98
    },
    {
      "midi": 63,
      "hit": false,
      "t": 192509.24493750045,
      "d": 149.2536666666856,
      "v": 90
    },
    {
      "midi": 66,
      "hit": false,
      "t": 192509.24493750045,
      "d": 158.58202083336073,
      "v": 86
    },
    {
      "midi": 52,
      "hit": false,
      "t": 192705.14037500048,
      "d": 130.59695833333535,
      "v": 94
    },
    {
      "midi": 64,
      "hit": false,
      "t": 192733.12543750048,
      "d": 130.59695833333535,
      "v": 72
    },
    {
      "midi": 68,
      "hit": false,
      "t": 192733.12543750048,
      "d": 149.2536666666565,
      "v": 68
    },
    {
      "midi": 54,
      "hit": false,
      "t": 192957.00593750048,
      "d": 158.58202083333163,
      "v": 90
    },
    {
      "midi": 69,
      "hit": false,
      "t": 192966.33429166715,
      "d": 121.26860416666023,
      "v": 90
    },
    {
      "midi": 66,
      "hit": false,
      "t": 192966.33429166715,
      "d": 130.59695833333535,
      "v": 76
    },
    {
      "midi": 59,
      "hit": false,
      "t": 193442.08035416715,
      "d": 214.55214583332418,
      "v": 60
    },
    {
      "midi": 64,
      "hit": false,
      "t": 193442.08035416715,
      "d": 419.7759375000023,
      "v": 86
    },
    {
      "midi": 68,
      "hit": false,
      "t": 193442.08035416715,
      "d": 429.10429166667745,
      "v": 80
    },
    {
      "midi": 40,
      "hit": false,
      "t": 193442.08035416715,
      "d": 1324.6262916667038,
      "v": 90
    },
    {
      "midi": 59,
      "hit": false,
      "t": 193880.5130000005,
      "d": 410.4475833333272,
      "v": 56
    },
    {
      "midi": 64,
      "hit": false,
      "t": 194346.93070833382,
      "d": 447.7610000000277,
      "v": 90
    },
    {
      "midi": 68,
      "hit": false,
      "t": 194346.93070833382,
      "d": 746.2683333333698,
      "v": 94
    },
    {
      "midi": 59,
      "hit": false,
      "t": 194356.2590625005,
      "d": 205.22379166667815,
      "v": 54
    },
    {
      "midi": 59,
      "hit": false,
      "t": 194776.03500000053,
      "d": 261.1939166666416,
      "v": 64
    },
    {
      "midi": 40,
      "hit": false,
      "t": 194794.69170833385,
      "d": 251.86556249999558,
      "v": 50
    },
    {
      "midi": 60,
      "hit": false,
      "t": 195195.81093750053,
      "d": 279.85062500002095,
      "v": 80
    },
    {
      "midi": 63,
      "hit": false,
      "t": 195195.81093750053,
      "d": 391.79087500003516,
      "v": 72
    },
    {
      "midi": 39,
      "hit": false,
      "t": 195195.81093750053,
      "d": 1315.2979375000286,
      "v": 60
    },
    {
      "midi": 66,
      "hit": false,
      "t": 195205.1392916672,
      "d": 410.4475833333563,
      "v": 58
    },
    {
      "midi": 69,
      "hit": false,
      "t": 195205.1392916672,
      "d": 569.029604166717,
      "v": 76
    },
    {
      "midi": 60,
      "hit": false,
      "t": 195662.2286458339,
      "d": 550.3728958333377,
      "v": 64
    },
    {
      "midi": 63,
      "hit": false,
      "t": 196119.31800000058,
      "d": 373.1341666666558,
      "v": 76
    },
    {
      "midi": 69,
      "hit": false,
      "t": 196119.31800000058,
      "d": 391.79087499997695,
      "v": 86
    },
    {
      "midi": 66,
      "hit": false,
      "t": 196119.31800000058,
      "d": 401.1192291666521,
      "v": 68
    },
    {
      "midi": 60,
      "hit": false,
      "t": 196567.07900000058,
      "d": 317.16404166666325,
      "v": 68
    },
    {
      "midi": 39,
      "hit": false,
      "t": 196660.36254166724,
      "d": 233.20885416667443,
      "v": 56
    },
    {
      "midi": 37,
      "hit": false,
      "t": 197014.84000000058,
      "d": 1697.7604583333887,
      "v": 60
    },
    {
      "midi": 64,
      "hit": false,
      "t": 197024.16835416725,
      "d": 447.7609999999986,
      "v": 76
    },
    {
      "midi": 68,
      "hit": false,
      "t": 197024.16835416725,
      "d": 522.3878333333414,
      "v": 64
    },
    {
      "midi": 61,
      "hit": false,
      "t": 197033.49670833393,
      "d": 251.86556249999558,
      "v": 54
    },
    {
      "midi": 61,
      "hit": false,
      "t": 197453.27264583393,
      "d": 391.79087500000605,
      "v": 60
    },
    {
      "midi": 68,
      "hit": false,
      "t": 197919.69035416728,
      "d": 699.6265625000233,
      "v": 86
    },
    {
      "midi": 64,
      "hit": false,
      "t": 197929.01870833396,
      "d": 401.1192291666812,
      "v": 90
    },
    {
      "midi": 61,
      "hit": false,
      "t": 197938.34706250063,
      "d": 167.91037500000675,
      "v": 64
    },
    {
      "midi": 61,
      "hit": false,
      "t": 198358.12300000063,
      "d": 223.8804999999993,
      "v": 68
    },
    {
      "midi": 64,
      "hit": false,
      "t": 198554.01843750064,
      "d": 121.26860416666023,
      "v": 68
    },
    {
      "midi": 59,
      "hit": false,
      "t": 198768.57058333396,
      "d": 279.85062500002095,
      "v": 86
    },
    {
      "midi": 47,
      "hit": false,
      "t": 198768.57058333396,
      "d": 1315.2979374999995,
      "v": 56
    },
    {
      "midi": 64,
      "hit": false,
      "t": 198777.89893750063,
      "d": 419.7759375000023,
      "v": 64
    },
    {
      "midi": 68,
      "hit": false,
      "t": 198777.89893750063,
      "d": 447.7609999999986,
      "v": 68
    },
    {
      "midi": 59,
      "hit": false,
      "t": 199216.33158333396,
      "d": 391.79087500000605,
      "v": 72
    },
    {
      "midi": 68,
      "hit": false,
      "t": 199673.42093750063,
      "d": 382.4625208333018,
      "v": 94
    },
    {
      "midi": 64,
      "hit": false,
      "t": 199673.42093750063,
      "d": 391.79087499997695,
      "v": 94
    },
    {
      "midi": 59,
      "hit": false,
      "t": 199692.07764583395,
      "d": 214.55214583332418,
      "v": 64
    },
    {
      "midi": 59,
      "hit": false,
      "t": 200074.54016666728,
      "d": 652.9847916666477,
      "v": 94
    },
    {
      "midi": 47,
      "hit": false,
      "t": 200270.4356041673,
      "d": 130.59695833333535,
      "v": 56
    },
    {
      "midi": 45,
      "hit": false,
      "t": 200531.62952083396,
      "d": 1800.3723541666113,
      "v": 76
    },
    {
      "midi": 61,
      "hit": false,
      "t": 200550.28622916728,
      "d": 429.10429166664835,
      "v": 80
    },
    {
      "midi": 64,
      "hit": false,
      "t": 200550.28622916728,
      "d": 429.10429166664835,
      "v": 86
    },
    {
      "midi": 57,
      "hit": false,
      "t": 201016.7039375006,
      "d": 382.4625208333309,
      "v": 76
    },
    {
      "midi": 52,
      "hit": false,
      "t": 201044.6890000006,
      "d": 457.0893541666446,
      "v": 30
    },
    {
      "midi": 64,
      "hit": false,
      "t": 201483.12164583392,
      "d": 466.41770833331975,
      "v": 98
    },
    {
      "midi": 61,
      "hit": false,
      "t": 201483.12164583392,
      "d": 475.7460624999949,
      "v": 98
    },
    {
      "midi": 57,
      "hit": false,
      "t": 201977.52441666723,
      "d": 410.4475833333272,
      "v": 90
    },
    {
      "midi": 57,
      "hit": false,
      "t": 202481.25554166723,
      "d": 270.52227083334583,
      "v": 60
    },
    {
      "midi": 66,
      "hit": false,
      "t": 202481.25554166723,
      "d": 550.3728958333668,
      "v": 86
    },
    {
      "midi": 47,
      "hit": false,
      "t": 202481.25554166723,
      "d": 3460.8193958333286,
      "v": 80
    },
    {
      "midi": 63,
      "hit": false,
      "t": 202490.5838958339,
      "d": 457.08935416667373,
      "v": 72
    },
    {
      "midi": 57,
      "hit": false,
      "t": 202994.31502083392,
      "d": 792.9101041666581,
      "v": 56
    },
    {
      "midi": 66,
      "hit": false,
      "t": 203470.06108333392,
      "d": 746.2683333333116,
      "v": 60
    },
    {
      "midi": 63,
      "hit": false,
      "t": 203479.3894375006,
      "d": 541.0445416666626,
      "v": 54
    },
    {
      "midi": 57,
      "hit": false,
      "t": 204039.09068750057,
      "d": 792.9101041666581,
      "v": 56
    },
    {
      "midi": 66,
      "hit": false,
      "t": 204496.18004166722,
      "d": 746.2683333333407,
      "v": 64
    },
    {
      "midi": 63,
      "hit": false,
      "t": 204505.5083958339,
      "d": 541.0445416666626,
      "v": 60
    },
    {
      "midi": 57,
      "hit": false,
      "t": 205055.88129166723,
      "d": 764.9250416666619,
      "v": 44
    },
    {
      "midi": 66,
      "hit": false,
      "t": 205559.61241666722,
      "d": 485.07441666667,
      "v": 64
    },
    {
      "midi": 63,
      "hit": false,
      "t": 205568.9407708339,
      "d": 513.0594791666663,
      "v": 56
    },
    {
      "midi": 57,
      "hit": false,
      "t": 206072.6718958339,
      "d": 317.16404166666325,
      "v": 48
    },
    {
      "midi": 68,
      "hit": false,
      "t": 206660.3582083339,
      "d": 624.9997291666805,
      "v": 86
    },
    {
      "midi": 59,
      "hit": false,
      "t": 206669.68656250057,
      "d": 326.4923958333384,
      "v": 76
    },
    {
      "midi": 64,
      "hit": false,
      "t": 206669.68656250057,
      "d": 643.6564375000016,
      "v": 86
    },
    {
      "midi": 40,
      "hit": false,
      "t": 206669.68656250057,
      "d": 1763.0589375000272,
      "v": 80
    },
    {
      "midi": 59,
      "hit": false,
      "t": 207257.37287500058,
      "d": 792.9101041666581,
      "v": 56
    },
    {
      "midi": 64,
      "hit": false,
      "t": 207770.43235416725,
      "d": 503.73112499999115,
      "v": 86
    },
    {
      "midi": 68,
      "hit": false,
      "t": 207770.43235416725,
      "d": 1007.4622500000405,
      "v": 94
    },
    {
      "midi": 59,
      "hit": false,
      "t": 208320.8052500006,
      "d": 410.4475833333563,
      "v": 68
    },
    {
      "midi": 47,
      "hit": false,
      "t": 208563.34245833394,
      "d": 205.22379166667815,
      "v": 56
    },
    {
      "midi": 40,
      "hit": false,
      "t": 208824.53637500064,
      "d": 1613.8052708333125,
      "v": 68
    },
    {
      "midi": 69,
      "hit": false,
      "t": 208843.19308333396,
      "d": 494.40277083334513,
      "v": 80
    },
    {
      "midi": 64,
      "hit": false,
      "t": 208843.19308333396,
      "d": 858.2085833333258,
      "v": 86
    },
    {
      "midi": 61,
      "hit": false,
      "t": 208852.52143750063,
      "d": 251.86556249999558,
      "v": 60
    },
    {
      "midi": 61,
      "hit": false,
      "t": 209356.25256250062,
      "d": 429.10429166664835,
      "v": 60
    },
    {
      "midi": 61,
      "hit": false,
      "t": 209859.98368750061,
      "d": 289.178979166667,
      "v": 76
    },
    {
      "midi": 64,
      "hit": false,
      "t": 209859.98368750061,
      "d": 615.6713750000054,
      "v": 86
    },
    {
      "midi": 69,
      "hit": false,
      "t": 209859.98368750061,
      "d": 811.5668125000084,
      "v": 94
    },
    {
      "midi": 61,
      "hit": false,
      "t": 210391.6998750006,
      "d": 307.83568750001723,
      "v": 64
    },
    {
      "midi": 47,
      "hit": false,
      "t": 210578.26695833396,
      "d": 223.8804999999993,
      "v": 56
    },
    {
      "midi": 64,
      "hit": false,
      "t": 210643.56543750063,
      "d": 177.23872916665277,
      "v": 60
    },
    {
      "midi": 40,
      "hit": false,
      "t": 210895.43100000062,
      "d": 1651.118687499984,
      "v": 76
    },
    {
      "midi": 59,
      "hit": false,
      "t": 210914.08770833394,
      "d": 242.53720833332045,
      "v": 86
    },
    {
      "midi": 64,
      "hit": false,
      "t": 210914.08770833394,
      "d": 513.0594791666663,
      "v": 86
    },
    {
      "midi": 68,
      "hit": false,
      "t": 210914.08770833394,
      "d": 541.0445416666626,
      "v": 72
    },
    {
      "midi": 59,
      "hit": false,
      "t": 211436.47554166729,
      "d": 727.6116249999905,
      "v": 62
    },
    {
      "midi": 64,
      "hit": false,
      "t": 211893.56489583393,
      "d": 466.41770833334886,
      "v": 94
    },
    {
      "midi": 68,
      "hit": false,
      "t": 211893.56489583393,
      "d": 951.492125000048,
      "v": 102
    },
    {
      "midi": 59,
      "hit": false,
      "t": 212415.95272916727,
      "d": 354.47745833336376,
      "v": 68
    },
    {
      "midi": 47,
      "hit": false,
      "t": 212658.48993750062,
      "d": 177.23872916668188,
      "v": 58
    },
    {
      "midi": 40,
      "hit": false,
      "t": 212901.02714583397,
      "d": 1660.4470416666882,
      "v": 76
    },
    {
      "midi": 61,
      "hit": false,
      "t": 212910.35550000065,
      "d": 298.5073333333421,
      "v": 68
    },
    {
      "midi": 69,
      "hit": false,
      "t": 212910.35550000065,
      "d": 466.41770833334886,
      "v": 80
    },
    {
      "midi": 64,
      "hit": false,
      "t": 212910.35550000065,
      "d": 541.0445416666917,
      "v": 90
    },
    {
      "midi": 61,
      "hit": false,
      "t": 213442.07168750066,
      "d": 830.2235208333295,
      "v": 86
    },
    {
      "midi": 64,
      "hit": false,
      "t": 213917.81775000066,
      "d": 541.0445416666626,
      "v": 94
    },
    {
      "midi": 69,
      "hit": false,
      "t": 213917.81775000066,
      "d": 876.865291666647,
      "v": 98
    },
    {
      "midi": 61,
      "hit": false,
      "t": 214458.86229166732,
      "d": 382.4625208333309,
      "v": 68
    },
    {
      "midi": 47,
      "hit": false,
      "t": 214710.72785416731,
      "d": 158.58202083333163,
      "v": 60
    },
    {
      "midi": 59,
      "hit": false,
      "t": 214953.26506250064,
      "d": 233.20885416667443,
      "v": 80
    },
    {
      "midi": 64,
      "hit": false,
      "t": 214953.26506250064,
      "d": 475.7460624999949,
      "v": 80
    },
    {
      "midi": 68,
      "hit": false,
      "t": 214953.26506250064,
      "d": 494.402770833316,
      "v": 80
    },
    {
      "midi": 40,
      "hit": false,
      "t": 214953.26506250064,
      "d": 1483.2083125000063,
      "v": 72
    },
    {
      "midi": 59,
      "hit": false,
      "t": 215447.66783333395,
      "d": 559.7012500000128,
      "v": 76
    },
    {
      "midi": 64,
      "hit": false,
      "t": 215932.74225000062,
      "d": 410.4475833333563,
      "v": 108
    },
    {
      "midi": 68,
      "hit": false,
      "t": 215932.74225000062,
      "d": 951.4921250000189,
      "v": 108
    },
    {
      "midi": 59,
      "hit": false,
      "t": 216464.45843750064,
      "d": 345.1491041666595,
      "v": 90
    },
    {
      "midi": 47,
      "hit": false,
      "t": 216660.35387500064,
      "d": 223.8804999999993,
      "v": 58
    },
    {
      "midi": 40,
      "hit": false,
      "t": 216940.20450000063,
      "d": 2369.4019583333575,
      "v": 86
    },
    {
      "midi": 61,
      "hit": false,
      "t": 216949.5328541673,
      "d": 307.8356874999881,
      "v": 68
    },
    {
      "midi": 69,
      "hit": false,
      "t": 216949.5328541673,
      "d": 541.0445416666626,
      "v": 86
    },
    {
      "midi": 64,
      "hit": false,
      "t": 216949.5328541673,
      "d": 606.3430208333302,
      "v": 94
    },
    {
      "midi": 61,
      "hit": false,
      "t": 217537.21916666732,
      "d": 1016.7906041666574,
      "v": 86
    },
    {
      "midi": 69,
      "hit": false,
      "t": 218096.9204166673,
      "d": 624.9997291666805,
      "v": 94
    },
    {
      "midi": 64,
      "hit": false,
      "t": 218096.9204166673,
      "d": 680.969854166673,
      "v": 86
    },
    {
      "midi": 61,
      "hit": false,
      "t": 218721.92014583398,
      "d": 391.79087500000605,
      "v": 72
    },
    {
      "midi": 52,
      "hit": false,
      "t": 220223.78516666734,
      "d": 1063.432375000004,
      "v": 10
    },
    {
      "midi": 56,
      "hit": false,
      "t": 220317.068708334,
      "d": 1166.044270833343,
      "v": 42
    },
    {
      "midi": 61,
      "hit": false,
      "t": 220419.68060416734,
      "d": 1054.1040208333288,
      "v": 48
    },
    {
      "midi": 47,
      "hit": false,
      "t": 220456.994020834,
      "d": 3451.4910416666826,
      "v": 10
    },
    {
      "midi": 64,
      "hit": false,
      "t": 220484.979083334,
      "d": 988.8055416666612,
      "v": 38
    },
    {
      "midi": 40,
      "hit": false,
      "t": 220550.27756250068,
      "d": 988.8055416666612,
      "v": 26
    },
    {
      "midi": 44,
      "hit": false,
      "t": 221455.12791666735,
      "d": 289.178979166667,
      "v": 24
    },
    {
      "midi": 40,
      "hit": false,
      "t": 221697.66512500067,
      "d": 2406.715375000029,
      "v": 56
    },
    {
      "midi": 52,
      "hit": false,
      "t": 221744.30689583402,
      "d": 1511.1933750000026,
      "v": 26
    },
    {
      "midi": 56,
      "hit": false,
      "t": 221753.6352500007,
      "d": 1585.8202083333163,
      "v": 32
    },
    {
      "midi": 64,
      "hit": false,
      "t": 221753.6352500007,
      "d": 1632.4619791666628,
      "v": 28
    }
  ]
}