{
  "jsonPath": "Country/Country Road/The Warren Brothers/surviving-emily.json",
  "path": "Country\\Country Road\\The Warren Brothers\\Surviving Emily.mid",
  "name": "Surviving Emily",
  "difficulty": "Advanced",
  "bpm": 115.00024916720653,
  "notes": [
    {
      "midi": 69,
      "hit": false,
      "t": 2086.9519999999998,
      "d": 940.2153541666667,
      "v": 117
    },
    {
      "midi": 73,
      "hit": false,
      "t": 2086.9519999999998,
      "d": 983.6935208333334,
      "v": 110
    },
    {
      "midi": 76,
      "hit": false,
      "t": 2086.9519999999998,
      "d": 983.6935208333334,
      "v": 127
    },
    {
      "midi": 57,
      "hit": false,
      "t": 2086.9519999999998,
      "d": 1184.7800416666669,
      "v": 113
    },
    {
      "midi": 62,
      "hit": false,
      "t": 4168.469229166667,
      "d": 510.8684583333343,
      "v": 127
    },
    {
      "midi": 78,
      "hit": false,
      "t": 4168.469229166667,
      "d": 755.4331458333345,
      "v": 127
    },
    {
      "midi": 74,
      "hit": false,
      "t": 4168.469229166667,
      "d": 766.3026875000014,
      "v": 127
    },
    {
      "midi": 81,
      "hit": false,
      "t": 4173.904,
      "d": 733.6940625000007,
      "v": 127
    },
    {
      "midi": 62,
      "hit": false,
      "t": 4951.076229166669,
      "d": 271.7385416666666,
      "v": 127
    },
    {
      "midi": 78,
      "hit": false,
      "t": 5222.814770833335,
      "d": 499.99891666666645,
      "v": 100
    },
    {
      "midi": 81,
      "hit": false,
      "t": 5222.814770833335,
      "d": 532.6075416666663,
      "v": 104
    },
    {
      "midi": 74,
      "hit": false,
      "t": 5222.814770833335,
      "d": 570.6509374999996,
      "v": 113
    },
    {
      "midi": 62,
      "hit": false,
      "t": 5728.248458333335,
      "d": 97.82587499999954,
      "v": 91
    },
    {
      "midi": 62,
      "hit": false,
      "t": 5989.117458333335,
      "d": 163.04312500000015,
      "v": 108
    },
    {
      "midi": 71,
      "hit": false,
      "t": 6249.986458333336,
      "d": 798.9113125000003,
      "v": 122
    },
    {
      "midi": 76,
      "hit": false,
      "t": 6249.986458333336,
      "d": 831.5199375000002,
      "v": 127
    },
    {
      "midi": 64,
      "hit": false,
      "t": 6255.421229166669,
      "d": 472.82506250000006,
      "v": 127
    },
    {
      "midi": 80,
      "hit": false,
      "t": 6255.421229166669,
      "d": 804.3460833333338,
      "v": 104
    },
    {
      "midi": 64,
      "hit": false,
      "t": 7032.593458333336,
      "d": 364.1296458333336,
      "v": 122
    },
    {
      "midi": 80,
      "hit": false,
      "t": 7304.332000000002,
      "d": 494.5641458333339,
      "v": 110
    },
    {
      "midi": 76,
      "hit": false,
      "t": 7304.332000000002,
      "d": 499.99891666666736,
      "v": 127
    },
    {
      "midi": 71,
      "hit": false,
      "t": 7304.332000000002,
      "d": 516.3032291666677,
      "v": 127
    },
    {
      "midi": 64,
      "hit": false,
      "t": 7831.504770833337,
      "d": 141.3040416666663,
      "v": 101
    },
    {
      "midi": 69,
      "hit": false,
      "t": 8081.50422916667,
      "d": 76.08679166666661,
      "v": 83
    },
    {
      "midi": 62,
      "hit": false,
      "t": 8342.37322916667,
      "d": 451.08597916666804,
      "v": 127
    },
    {
      "midi": 69,
      "hit": false,
      "t": 8347.808000000003,
      "d": 184.78220833333398,
      "v": 127
    },
    {
      "midi": 78,
      "hit": false,
      "t": 8347.808000000003,
      "d": 298.9123958333348,
      "v": 127
    },
    {
      "midi": 74,
      "hit": false,
      "t": 8347.808000000003,
      "d": 309.78193750000173,
      "v": 127
    },
    {
      "midi": 69,
      "hit": false,
      "t": 8608.677000000003,
      "d": 358.69487500000105,
      "v": 86
    },
    {
      "midi": 78,
      "hit": false,
      "t": 8858.676458333337,
      "d": 81.52156250000007,
      "v": 71
    },
    {
      "midi": 74,
      "hit": false,
      "t": 8858.676458333337,
      "d": 114.13018750000083,
      "v": 88
    },
    {
      "midi": 69,
      "hit": false,
      "t": 9119.545458333338,
      "d": 255.43422916666714,
      "v": 127
    },
    {
      "midi": 61,
      "hit": false,
      "t": 9119.545458333338,
      "d": 277.173312500001,
      "v": 110
    },
    {
      "midi": 76,
      "hit": false,
      "t": 9124.980229166671,
      "d": 374.9991875000014,
      "v": 127
    },
    {
      "midi": 73,
      "hit": false,
      "t": 9124.980229166671,
      "d": 385.86872916666834,
      "v": 110
    },
    {
      "midi": 69,
      "hit": false,
      "t": 9641.283458333339,
      "d": 97.82587500000045,
      "v": 91
    },
    {
      "midi": 59,
      "hit": false,
      "t": 9907.587229166673,
      "d": 4510.859791666668,
      "v": 127
    },
    {
      "midi": 74,
      "hit": false,
      "t": 9913.022000000006,
      "d": 4489.120708333334,
      "v": 127
    },
    {
      "midi": 78,
      "hit": false,
      "t": 9913.022000000006,
      "d": 4494.555479166667,
      "v": 100
    },
    {
      "midi": 71,
      "hit": false,
      "t": 9913.022000000006,
      "d": 4499.990250000001,
      "v": 127
    },
    {
      "midi": 71,
      "hit": false,
      "t": 48521.634000000005,
      "d": 396.7382708333316,
      "v": 122
    },
    {
      "midi": 76,
      "hit": false,
      "t": 48521.634000000005,
      "d": 396.7382708333316,
      "v": 117
    },
    {
      "midi": 76,
      "hit": false,
      "t": 49293.371458333335,
      "d": 130.43449999999575,
      "v": 91
    },
    {
      "midi": 71,
      "hit": false,
      "t": 49298.806229166665,
      "d": 114.13018749999901,
      "v": 83
    },
    {
      "midi": 71,
      "hit": false,
      "t": 51391.193,
      "d": 396.7382708333316,
      "v": 104
    },
    {
      "midi": 76,
      "hit": false,
      "t": 51391.193,
      "d": 1163.0409583333312,
      "v": 101
    },
    {
      "midi": 64,
      "hit": false,
      "t": 51652.062,
      "d": 124.99972916666593,
      "v": 68
    },
    {
      "midi": 69,
      "hit": false,
      "t": 51907.49622916667,
      "d": 635.8681874999966,
      "v": 83
    },
    {
      "midi": 54,
      "hit": false,
      "t": 52168.365229166666,
      "d": 1690.2137291666659,
      "v": 63
    },
    {
      "midi": 71,
      "hit": false,
      "t": 52690.10322916666,
      "d": 527.1727708333347,
      "v": 104
    },
    {
      "midi": 76,
      "hit": false,
      "t": 52690.10322916666,
      "d": 657.6072708333377,
      "v": 101
    },
    {
      "midi": 71,
      "hit": false,
      "t": 54521.621,
      "d": 108.69541666666919,
      "v": 81
    },
    {
      "midi": 76,
      "hit": false,
      "t": 54521.621,
      "d": 119.56495833333611,
      "v": 86
    },
    {
      "midi": 54,
      "hit": false,
      "t": 55032.48945833334,
      "d": 130.43450000000303,
      "v": 71
    },
    {
      "midi": 83,
      "hit": false,
      "t": 55293.35845833334,
      "d": 271.7385416666657,
      "v": 91
    },
    {
      "midi": 88,
      "hit": false,
      "t": 55293.35845833334,
      "d": 277.1733124999955,
      "v": 108
    },
    {
      "midi": 62,
      "hit": false,
      "t": 56347.704000000005,
      "d": 402.1730416666687,
      "v": 83
    },
    {
      "midi": 69,
      "hit": false,
      "t": 57641.17945833334,
      "d": 271.7385416666657,
      "v": 75
    },
    {
      "midi": 76,
      "hit": false,
      "t": 57912.918000000005,
      "d": 114.13018749999901,
      "v": 104
    },
    {
      "midi": 81,
      "hit": false,
      "t": 57912.918000000005,
      "d": 119.56495833332883,
      "v": 97
    },
    {
      "midi": 81,
      "hit": false,
      "t": 58173.787000000004,
      "d": 777.1722291666665,
      "v": 122
    },
    {
      "midi": 76,
      "hit": false,
      "t": 58173.787000000004,
      "d": 1059.7803124999991,
      "v": 127
    },
    {
      "midi": 74,
      "hit": false,
      "t": 59749.87054166667,
      "d": 141.30404166666995,
      "v": 44
    },
    {
      "midi": 81,
      "hit": false,
      "t": 59994.43522916667,
      "d": 255.43422916666896,
      "v": 64
    },
    {
      "midi": 64,
      "hit": false,
      "t": 60516.17322916668,
      "d": 2342.386229166659,
      "v": 61
    },
    {
      "midi": 80,
      "hit": false,
      "t": 61032.476458333345,
      "d": 374.9991874999978,
      "v": 83
    },
    {
      "midi": 76,
      "hit": false,
      "t": 61037.911229166675,
      "d": 391.3035000000018,
      "v": 79
    },
    {
      "midi": 78,
      "hit": false,
      "t": 61820.51822916668,
      "d": 108.69541666666191,
      "v": 46
    },
    {
      "midi": 83,
      "hit": false,
      "t": 61825.95300000001,
      "d": 114.13018749999901,
      "v": 75
    },
    {
      "midi": 71,
      "hit": false,
      "t": 62195.51741666668,
      "d": 244.56468749999476,
      "v": 60
    },
    {
      "midi": 92,
      "hit": false,
      "t": 62342.256229166676,
      "d": 255.43422916666168,
      "v": 80
    },
    {
      "midi": 88,
      "hit": false,
      "t": 62347.691000000006,
      "d": 255.43422916666168,
      "v": 70
    },
    {
      "midi": 71,
      "hit": false,
      "t": 65206.38045833334,
      "d": 516.3032291666605,
      "v": 122
    },
    {
      "midi": 76,
      "hit": false,
      "t": 65206.38045833334,
      "d": 521.7379999999976,
      "v": 108
    },
    {
      "midi": 69,
      "hit": false,
      "t": 65211.81522916667,
      "d": 103.26064583333209,
      "v": 94
    },
    {
      "midi": 71,
      "hit": false,
      "t": 65988.98745833334,
      "d": 402.1730416666687,
      "v": 113
    },
    {
      "midi": 76,
      "hit": false,
      "t": 65994.42222916668,
      "d": 516.3032291666605,
      "v": 113
    },
    {
      "midi": 69,
      "hit": false,
      "t": 66516.16022916668,
      "d": 114.13018750000629,
      "v": 73
    },
    {
      "midi": 71,
      "hit": false,
      "t": 67043.33300000001,
      "d": 114.13018750000629,
      "v": 91
    },
    {
      "midi": 76,
      "hit": false,
      "t": 67043.33300000001,
      "d": 119.56495833334338,
      "v": 97
    },
    {
      "midi": 71,
      "hit": false,
      "t": 67825.94000000002,
      "d": 266.30377083334315,
      "v": 113
    },
    {
      "midi": 76,
      "hit": false,
      "t": 67825.94000000002,
      "d": 668.4768125000119,
      "v": 117
    },
    {
      "midi": 69,
      "hit": false,
      "t": 68086.80900000002,
      "d": 119.56495833334338,
      "v": 56
    },
    {
      "midi": 69,
      "hit": false,
      "t": 68608.54700000004,
      "d": 119.56495833332883,
      "v": 56
    },
    {
      "midi": 54,
      "hit": false,
      "t": 68869.41600000003,
      "d": 635.8681875000038,
      "v": 53
    },
    {
      "midi": 71,
      "hit": false,
      "t": 70168.32622916669,
      "d": 114.13018750000629,
      "v": 127
    },
    {
      "midi": 76,
      "hit": false,
      "t": 70168.32622916669,
      "d": 130.43450000000303,
      "v": 117
    },
    {
      "midi": 71,
      "hit": false,
      "t": 70690.06422916669,
      "d": 396.7382708333316,
      "v": 117
    },
    {
      "midi": 76,
      "hit": false,
      "t": 70695.49900000003,
      "d": 396.7382708333316,
      "v": 117
    },
    {
      "midi": 54,
      "hit": false,
      "t": 70695.49900000003,
      "d": 1032.6064583333355,
      "v": 80
    },
    {
      "midi": 69,
      "hit": false,
      "t": 71211.80222916669,
      "d": 1298.9102291666786,
      "v": 101
    },
    {
      "midi": 76,
      "hit": false,
      "t": 71211.80222916669,
      "d": 1679.3441875000135,
      "v": 91
    },
    {
      "midi": 71,
      "hit": false,
      "t": 72527.01677083336,
      "d": 146.73881249999977,
      "v": 75
    },
    {
      "midi": 69,
      "hit": false,
      "t": 73559.6232291667,
      "d": 385.868729166672,
      "v": 67
    },
    {
      "midi": 78,
      "hit": false,
      "t": 73559.6232291667,
      "d": 402.1730416666687,
      "v": 61
    },
    {
      "midi": 74,
      "hit": false,
      "t": 73565.05800000003,
      "d": 391.30349999999453,
      "v": 83
    },
    {
      "midi": 62,
      "hit": false,
      "t": 73565.05800000003,
      "d": 396.7382708333316,
      "v": 66
    },
    {
      "midi": 64,
      "hit": false,
      "t": 75124.83722916669,
      "d": 777.1722291666811,
      "v": 73
    },
    {
      "midi": 76,
      "hit": false,
      "t": 75641.14045833336,
      "d": 135.86927083334012,
      "v": 91
    },
    {
      "midi": 80,
      "hit": false,
      "t": 75641.14045833336,
      "d": 244.5646875000093,
      "v": 87
    },
    {
      "midi": 88,
      "hit": false,
      "t": 76429.1822291667,
      "d": 119.56495833332883,
      "v": 77
    },
    {
      "midi": 92,
      "hit": false,
      "t": 76429.1822291667,
      "d": 119.56495833332883,
      "v": 80
    },
    {
      "midi": 57,
      "hit": false,
      "t": 77217.22400000003,
      "d": 3130.427999999971,
      "v": 88
    },
    {
      "midi": 71,
      "hit": false,
      "t": 77738.96200000003,
      "d": 380.43395833332033,
      "v": 127
    },
    {
      "midi": 76,
      "hit": false,
      "t": 77738.96200000003,
      "d": 391.30349999998,
      "v": 117
    },
    {
      "midi": 69,
      "hit": false,
      "t": 78510.69945833334,
      "d": 130.43450000000303,
      "v": 108
    },
    {
      "midi": 76,
      "hit": false,
      "t": 78510.69945833334,
      "d": 135.86927083334012,
      "v": 104
    },
    {
      "midi": 71,
      "hit": false,
      "t": 79298.74122916668,
      "d": 385.86872916665743,
      "v": 127
    },
    {
      "midi": 76,
      "hit": false,
      "t": 79298.74122916668,
      "d": 385.86872916665743,
      "v": 122
    },
    {
      "midi": 64,
      "hit": false,
      "t": 79298.74122916668,
      "d": 527.1727708333201,
      "v": 91
    },
    {
      "midi": 71,
      "hit": false,
      "t": 80081.34822916667,
      "d": 255.43422916666896,
      "v": 108
    },
    {
      "midi": 76,
      "hit": false,
      "t": 80081.34822916667,
      "d": 271.7385416666657,
      "v": 113
    },
    {
      "midi": 76,
      "hit": false,
      "t": 80597.65145833333,
      "d": 130.43450000000303,
      "v": 113
    },
    {
      "midi": 69,
      "hit": false,
      "t": 80597.65145833333,
      "d": 135.86927083334012,
      "v": 117
    },
    {
      "midi": 64,
      "hit": false,
      "t": 80869.39000000001,
      "d": 119.56495833332883,
      "v": 86
    },
    {
      "midi": 52,
      "hit": false,
      "t": 81391.12800000001,
      "d": 244.56468749999476,
      "v": 101
    },
    {
      "midi": 76,
      "hit": false,
      "t": 81391.12800000001,
      "d": 244.56468749999476,
      "v": 127
    },
    {
      "midi": 64,
      "hit": false,
      "t": 81391.12800000001,
      "d": 249.99945833333186,
      "v": 117
    },
    {
      "midi": 71,
      "hit": false,
      "t": 81391.12800000001,
      "d": 249.99945833333186,
      "v": 127
    },
    {
      "midi": 80,
      "hit": false,
      "t": 81391.12800000001,
      "d": 249.99945833333186,
      "v": 104
    },
    {
      "midi": 64,
      "hit": false,
      "t": 81912.86600000001,
      "d": 771.737458333344,
      "v": 127
    },
    {
      "midi": 80,
      "hit": false,
      "t": 81912.86600000001,
      "d": 788.0417708333407,
      "v": 110
    },
    {
      "midi": 52,
      "hit": false,
      "t": 81912.86600000001,
      "d": 902.171958333347,
      "v": 113
    },
    {
      "midi": 76,
      "hit": false,
      "t": 81912.86600000001,
      "d": 907.6067291666841,
      "v": 127
    },
    {
      "midi": 71,
      "hit": false,
      "t": 81912.86600000001,
      "d": 1054.3455416666839,
      "v": 127
    },
    {
      "midi": 80,
      "hit": false,
      "t": 82956.34200000003,
      "d": 114.13018749999173,
      "v": 42
    },
    {
      "midi": 76,
      "hit": false,
      "t": 82956.34200000003,
      "d": 119.56495833332883,
      "v": 57
    },
    {
      "midi": 69,
      "hit": false,
      "t": 83222.64577083336,
      "d": 124.99972916666593,
      "v": 50
    },
    {
      "midi": 78,
      "hit": false,
      "t": 83472.6452291667,
      "d": 532.6075416666718,
      "v": 95
    },
    {
      "midi": 69,
      "hit": false,
      "t": 83478.08000000003,
      "d": 527.1727708333347,
      "v": 71
    },
    {
      "midi": 74,
      "hit": false,
      "t": 83478.08000000003,
      "d": 532.6075416666718,
      "v": 113
    },
    {
      "midi": 50,
      "hit": false,
      "t": 83478.08000000003,
      "d": 929.3458125000034,
      "v": 97
    },
    {
      "midi": 62,
      "hit": false,
      "t": 83478.08000000003,
      "d": 1032.6064583333355,
      "v": 88
    },
    {
      "midi": 78,
      "hit": false,
      "t": 84249.81745833337,
      "d": 521.7379999999976,
      "v": 59
    },
    {
      "midi": 74,
      "hit": false,
      "t": 84249.81745833337,
      "d": 532.6075416666572,
      "v": 83
    },
    {
      "midi": 69,
      "hit": false,
      "t": 84771.55545833337,
      "d": 130.43449999998847,
      "v": 73
    },
    {
      "midi": 74,
      "hit": false,
      "t": 85043.29400000002,
      "d": 130.43450000000303,
      "v": 81
    },
    {
      "midi": 69,
      "hit": false,
      "t": 85048.72877083336,
      "d": 119.56495833332883,
      "v": 60
    },
    {
      "midi": 78,
      "hit": false,
      "t": 85048.72877083336,
      "d": 119.56495833332883,
      "v": 53
    },
    {
      "midi": 64,
      "hit": false,
      "t": 85304.16300000003,
      "d": 130.43450000000303,
      "v": 94
    },
    {
      "midi": 69,
      "hit": false,
      "t": 85559.5972291667,
      "d": 777.1722291666665,
      "v": 91
    },
    {
      "midi": 76,
      "hit": false,
      "t": 85565.03200000004,
      "d": 771.7374583333294,
      "v": 113
    },
    {
      "midi": 57,
      "hit": false,
      "t": 85565.03200000004,
      "d": 777.1722291666665,
      "v": 101
    },
    {
      "midi": 73,
      "hit": false,
      "t": 85565.03200000004,
      "d": 896.7371874999953,
      "v": 100
    },
    {
      "midi": 64,
      "hit": false,
      "t": 86336.76945833337,
      "d": 124.99972916666593,
      "v": 88
    },
    {
      "midi": 64,
      "hit": false,
      "t": 86869.37700000004,
      "d": 124.99972916666593,
      "v": 94
    },
    {
      "midi": 74,
      "hit": false,
      "t": 87130.24600000004,
      "d": 380.43395833334944,
      "v": 127
    },
    {
      "midi": 57,
      "hit": false,
      "t": 87130.24600000004,
      "d": 391.3035000000091,
      "v": 108
    },
    {
      "midi": 69,
      "hit": false,
      "t": 87130.24600000004,
      "d": 391.3035000000091,
      "v": 127
    },
    {
      "midi": 64,
      "hit": false,
      "t": 87396.54977083339,
      "d": 114.13018750000629,
      "v": 59
    },
    {
      "midi": 64,
      "hit": false,
      "t": 87641.11445833338,
      "d": 380.4339583333349,
      "v": 97
    },
    {
      "midi": 69,
      "hit": false,
      "t": 87641.11445833338,
      "d": 652.1725000000006,
      "v": 91
    },
    {
      "midi": 73,
      "hit": false,
      "t": 87641.11445833338,
      "d": 657.6072708333377,
      "v": 110
    },
    {
      "midi": 57,
      "hit": false,
      "t": 87641.11445833338,
      "d": 1298.910229166664,
      "v": 86
    },
    {
      "midi": 64,
      "hit": false,
      "t": 88173.72200000005,
      "d": 249.99945833333186,
      "v": 71
    },
    {
      "midi": 64,
      "hit": false,
      "t": 88434.59100000004,
      "d": 130.43450000000303,
      "v": 83
    },
    {
      "midi": 71,
      "hit": false,
      "t": 88695.46000000005,
      "d": 141.30404166666267,
      "v": 117
    },
    {
      "midi": 76,
      "hit": false,
      "t": 88700.89477083339,
      "d": 141.30404166666267,
      "v": 122
    },
    {
      "midi": 73,
      "hit": false,
      "t": 88825.89450000005,
      "d": 135.86927083332557,
      "v": 87
    },
    {
      "midi": 71,
      "hit": false,
      "t": 88945.45945833338,
      "d": 130.43450000000303,
      "v": 81
    },
    {
      "midi": 69,
      "hit": false,
      "t": 89070.45918750005,
      "d": 385.868729166672,
      "v": 113
    },
    {
      "midi": 76,
      "hit": false,
      "t": 89472.63222916672,
      "d": 114.13018750000629,
      "v": 104
    },
    {
      "midi": 69,
      "hit": false,
      "t": 89738.93600000006,
      "d": 663.0420416666748,
      "v": 122
    },
    {
      "midi": 50,
      "hit": false,
      "t": 89738.93600000006,
      "d": 1445.649041666693,
      "v": 101
    },
    {
      "midi": 66,
      "hit": false,
      "t": 89744.3707708334,
      "d": 657.6072708333377,
      "v": 104
    },
    {
      "midi": 69,
      "hit": false,
      "t": 90510.6734583334,
      "d": 510.8684583333379,
      "v": 97
    },
    {
      "midi": 64,
      "hit": false,
      "t": 90510.6734583334,
      "d": 521.7380000000121,
      "v": 97
    },
    {
      "midi": 66,
      "hit": false,
      "t": 91026.97668750008,
      "d": 271.73854166668025,
      "v": 63
    },
    {
      "midi": 69,
      "hit": false,
      "t": 91298.71522916676,
      "d": 124.99972916666593,
      "v": 77
    },
    {
      "midi": 50,
      "hit": false,
      "t": 91554.14945833343,
      "d": 1706.5180416666553,
      "v": 88
    },
    {
      "midi": 62,
      "hit": false,
      "t": 92081.32222916676,
      "d": 391.3035000000091,
      "v": 94
    },
    {
      "midi": 81,
      "hit": false,
      "t": 92353.06077083343,
      "d": 119.56495833334338,
      "v": 108
    },
    {
      "midi": 76,
      "hit": false,
      "t": 92358.49554166677,
      "d": 108.69541666666919,
      "v": 91
    },
    {
      "midi": 76,
      "hit": false,
      "t": 92603.06022916677,
      "d": 119.56495833332883,
      "v": 117
    },
    {
      "midi": 81,
      "hit": false,
      "t": 92603.06022916677,
      "d": 124.99972916666593,
      "v": 113
    },
    {
      "midi": 76,
      "hit": false,
      "t": 92869.3640000001,
      "d": 119.56495833332883,
      "v": 113
    },
    {
      "midi": 81,
      "hit": false,
      "t": 92869.3640000001,
      "d": 130.43449999998847,
      "v": 117
    },
    {
      "midi": 78,
      "hit": false,
      "t": 92988.92895833343,
      "d": 130.43449999998847,
      "v": 65
    },
    {
      "midi": 76,
      "hit": false,
      "t": 93010.66804166675,
      "d": 130.43450000000303,
      "v": 81
    },
    {
      "midi": 74,
      "hit": false,
      "t": 93135.66777083342,
      "d": 141.30404166666267,
      "v": 79
    },
    {
      "midi": 81,
      "hit": false,
      "t": 93391.10200000009,
      "d": 135.86927083334012,
      "v": 122
    },
    {
      "midi": 78,
      "hit": false,
      "t": 93901.97045833342,
      "d": 135.86927083332557,
      "v": 91
    },
    {
      "midi": 83,
      "hit": false,
      "t": 93901.97045833342,
      "d": 652.172499999986,
      "v": 97
    },
    {
      "midi": 64,
      "hit": false,
      "t": 93907.40522916676,
      "d": 1038.0412291666435,
      "v": 86
    },
    {
      "midi": 52,
      "hit": false,
      "t": 93907.40522916676,
      "d": 3114.1236874999886,
      "v": 86
    },
    {
      "midi": 80,
      "hit": false,
      "t": 94026.97018750009,
      "d": 521.737999999983,
      "v": 71
    },
    {
      "midi": 78,
      "hit": false,
      "t": 94695.44700000007,
      "d": 396.7382708333316,
      "v": 80
    },
    {
      "midi": 83,
      "hit": false,
      "t": 94695.44700000007,
      "d": 516.3032291666605,
      "v": 104
    },
    {
      "midi": 64,
      "hit": false,
      "t": 95733.48822916673,
      "d": 266.3037708333286,
      "v": 88
    },
    {
      "midi": 76,
      "hit": false,
      "t": 96255.22622916673,
      "d": 135.86927083334012,
      "v": 81
    },
    {
      "midi": 64,
      "hit": false,
      "t": 96521.53000000007,
      "d": 114.13018750000629,
      "v": 67
    },
    {
      "midi": 64,
      "hit": false,
      "t": 96771.52945833342,
      "d": 119.56495833332883,
      "v": 71
    },
    {
      "midi": 52,
      "hit": false,
      "t": 97037.83322916675,
      "d": 255.43422916666896,
      "v": 61
    },
    {
      "midi": 64,
      "hit": false,
      "t": 97037.83322916675,
      "d": 255.43422916666896,
      "v": 94
    },
    {
      "midi": 78,
      "hit": false,
      "t": 97043.26800000008,
      "d": 124.99972916666593,
      "v": 95
    },
    {
      "midi": 83,
      "hit": false,
      "t": 97043.26800000008,
      "d": 141.30404166666267,
      "v": 104
    },
    {
      "midi": 80,
      "hit": false,
      "t": 97168.26772916675,
      "d": 146.73881249999977,
      "v": 83
    },
    {
      "midi": 78,
      "hit": false,
      "t": 97184.57204166675,
      "d": 130.43450000000303,
      "v": 65
    },
    {
      "midi": 76,
      "hit": false,
      "t": 97309.57177083341,
      "d": 135.86927083334012,
      "v": 91
    },
    {
      "midi": 52,
      "hit": false,
      "t": 97679.13618750009,
      "d": 124.99972916666593,
      "v": 59
    },
    {
      "midi": 52,
      "hit": false,
      "t": 97820.44022916675,
      "d": 244.56468749999476,
      "v": 94
    },
    {
      "midi": 54,
      "hit": false,
      "t": 98075.8744583334,
      "d": 249.99945833333186,
      "v": 104
    },
    {
      "midi": 78,
      "hit": false,
      "t": 98075.8744583334,
      "d": 271.73854166665114,
      "v": 87
    },
    {
      "midi": 69,
      "hit": false,
      "t": 98081.30922916674,
      "d": 114.13018750000629,
      "v": 122
    },
    {
      "midi": 73,
      "hit": false,
      "t": 98081.30922916674,
      "d": 124.99972916666593,
      "v": 80
    },
    {
      "midi": 66,
      "hit": false,
      "t": 98081.30922916674,
      "d": 255.4342291666544,
      "v": 95
    },
    {
      "midi": 69,
      "hit": false,
      "t": 98603.04722916672,
      "d": 255.43422916666896,
      "v": 122
    },
    {
      "midi": 78,
      "hit": false,
      "t": 98603.04722916672,
      "d": 260.86900000000605,
      "v": 91
    },
    {
      "midi": 66,
      "hit": false,
      "t": 98603.04722916672,
      "d": 271.7385416666657,
      "v": 100
    },
    {
      "midi": 54,
      "hit": false,
      "t": 98603.04722916672,
      "d": 374.9991874999978,
      "v": 100
    },
    {
      "midi": 73,
      "hit": false,
      "t": 98608.48200000006,
      "d": 239.12991666667222,
      "v": 83
    },
    {
      "midi": 68,
      "hit": false,
      "t": 99385.65422916673,
      "d": 266.3037708333286,
      "v": 110
    },
    {
      "midi": 71,
      "hit": false,
      "t": 99385.65422916673,
      "d": 266.3037708333286,
      "v": 117
    },
    {
      "midi": 64,
      "hit": false,
      "t": 99385.65422916673,
      "d": 374.9991874999978,
      "v": 127
    },
    {
      "midi": 52,
      "hit": false,
      "t": 99385.65422916673,
      "d": 396.7382708333316,
      "v": 113
    },
    {
      "midi": 62,
      "hit": false,
      "t": 99907.39222916673,
      "d": 510.8684583333379,
      "v": 117
    },
    {
      "midi": 66,
      "hit": false,
      "t": 99907.39222916673,
      "d": 527.1727708333347,
      "v": 110
    },
    {
      "midi": 69,
      "hit": false,
      "t": 99907.39222916673,
      "d": 635.8681875000038,
      "v": 117
    },
    {
      "midi": 50,
      "hit": false,
      "t": 99907.39222916673,
      "d": 1440.2142708333413,
      "v": 122
    },
    {
      "midi": 62,
      "hit": false,
      "t": 100956.30300000006,
      "d": 505.43368750001537,
      "v": 127
    },
    {
      "midi": 81,
      "hit": false,
      "t": 101211.73722916673,
      "d": 255.4342291666835,
      "v": 122
    },
    {
      "midi": 76,
      "hit": false,
      "t": 101211.73722916673,
      "d": 266.30377083334315,
      "v": 127
    },
    {
      "midi": 78,
      "hit": false,
      "t": 101467.17145833341,
      "d": 141.30404166666267,
      "v": 65
    },
    {
      "midi": 76,
      "hit": false,
      "t": 101722.60568750008,
      "d": 124.99972916666593,
      "v": 88
    },
    {
      "midi": 64,
      "hit": false,
      "t": 101983.47468750009,
      "d": 141.30404166666267,
      "v": 75
    },
    {
      "midi": 71,
      "hit": false,
      "t": 102249.77845833341,
      "d": 130.43450000000303,
      "v": 88
    },
    {
      "midi": 57,
      "hit": false,
      "t": 102255.21322916675,
      "d": 896.7371874999953,
      "v": 86
    },
    {
      "midi": 76,
      "hit": false,
      "t": 102255.21322916675,
      "d": 1184.7800416666578,
      "v": 91
    },
    {
      "midi": 73,
      "hit": false,
      "t": 102369.34341666676,
      "d": 1293.4754583333124,
      "v": 59
    },
    {
      "midi": 64,
      "hit": false,
      "t": 103043.25500000008,
      "d": 130.43450000000303,
      "v": 86
    },
    {
      "midi": 64,
      "hit": false,
      "t": 103564.99300000007,
      "d": 119.56495833332883,
      "v": 86
    },
    {
      "midi": 57,
      "hit": false,
      "t": 103825.86200000007,
      "d": 244.56468749999476,
      "v": 108
    },
    {
      "midi": 74,
      "hit": false,
      "t": 103825.86200000007,
      "d": 271.7385416666657,
      "v": 127
    },
    {
      "midi": 69,
      "hit": false,
      "t": 103825.86200000007,
      "d": 385.868729166672,
      "v": 127
    },
    {
      "midi": 57,
      "hit": false,
      "t": 104336.7304583334,
      "d": 1173.9104999999981,
      "v": 97
    },
    {
      "midi": 69,
      "hit": false,
      "t": 104342.16522916674,
      "d": 538.0423124999943,
      "v": 127
    },
    {
      "midi": 73,
      "hit": false,
      "t": 104342.16522916674,
      "d": 646.7377291666635,
      "v": 110
    },
    {
      "midi": 64,
      "hit": false,
      "t": 104863.90322916674,
      "d": 119.56495833332883,
      "v": 81
    },
    {
      "midi": 64,
      "hit": false,
      "t": 105119.33745833341,
      "d": 124.99972916666593,
      "v": 94
    },
    {
      "midi": 71,
      "hit": false,
      "t": 105385.64122916674,
      "d": 124.99972916666593,
      "v": 127
    },
    {
      "midi": 76,
      "hit": false,
      "t": 105385.64122916674,
      "d": 135.86927083332557,
      "v": 127
    },
    {
      "midi": 73,
      "hit": false,
      "t": 105510.6409583334,
      "d": 130.43449999998847,
      "v": 91
    },
    {
      "midi": 71,
      "hit": false,
      "t": 105532.38004166672,
      "d": 130.43450000000303,
      "v": 91
    },
    {
      "midi": 69,
      "hit": false,
      "t": 105657.37977083339,
      "d": 124.99972916666593,
      "v": 86
    },
    {
      "midi": 69,
      "hit": false,
      "t": 105907.37922916672,
      "d": 255.43422916666896,
      "v": 122
    },
    {
      "midi": 76,
      "hit": false,
      "t": 106162.81345833339,
      "d": 119.56495833332883,
      "v": 108
    },
    {
      "midi": 76,
      "hit": false,
      "t": 106434.55200000004,
      "d": 130.43449999998847,
      "v": 127
    },
    {
      "midi": 81,
      "hit": false,
      "t": 106434.55200000004,
      "d": 635.8681874999893,
      "v": 127
    },
    {
      "midi": 62,
      "hit": false,
      "t": 106434.55200000004,
      "d": 1038.0412291666435,
      "v": 101
    },
    {
      "midi": 50,
      "hit": false,
      "t": 106434.55200000004,
      "d": 1293.4754583332979,
      "v": 94
    },
    {
      "midi": 78,
      "hit": false,
      "t": 106554.11695833337,
      "d": 527.1727708333201,
      "v": 73
    },
    {
      "midi": 81,
      "hit": false,
      "t": 107206.28945833335,
      "d": 510.86845833332336,
      "v": 127
    },
    {
      "midi": 74,
      "hit": false,
      "t": 107733.46222916667,
      "d": 135.86927083334012,
      "v": 94
    },
    {
      "midi": 81,
      "hit": false,
      "t": 107994.33122916668,
      "d": 124.99972916666593,
      "v": 108
    },
    {
      "midi": 64,
      "hit": false,
      "t": 108249.76545833335,
      "d": 124.99972916666593,
      "v": 66
    },
    {
      "midi": 78,
      "hit": false,
      "t": 108510.63445833336,
      "d": 130.43450000000303,
      "v": 110
    },
    {
      "midi": 64,
      "hit": false,
      "t": 108516.0692291667,
      "d": 635.8681875000038,
      "v": 108
    },
    {
      "midi": 83,
      "hit": false,
      "t": 108516.0692291667,
      "d": 635.8681875000038,
      "v": 122
    },
    {
      "midi": 52,
      "hit": false,
      "t": 108516.0692291667,
      "d": 902.1719583333324,
      "v": 97
    },
    {
      "midi": 80,
      "hit": false,
      "t": 108641.06895833336,
      "d": 510.8684583333379,
      "v": 80
    },
    {
      "midi": 83,
      "hit": false,
      "t": 109293.24145833336,
      "d": 510.86845833332336,
      "v": 81
    },
    {
      "midi": 64,
      "hit": false,
      "t": 109298.6762291667,
      "d": 135.86927083332557,
      "v": 83
    },
    {
      "midi": 80,
      "hit": false,
      "t": 109298.6762291667,
      "d": 527.1727708333201,
      "v": 65
    },
    {
      "midi": 76,
      "hit": false,
      "t": 109820.41422916668,
      "d": 130.43450000000303,
      "v": 70
    },
    {
      "midi": 83,
      "hit": false,
      "t": 110075.84845833335,
      "d": 114.13018750000629,
      "v": 86
    },
    {
      "midi": 64,
      "hit": false,
      "t": 110336.71745833335,
      "d": 124.99972916666593,
      "v": 94
    },
    {
      "midi": 71,
      "hit": false,
      "t": 110597.58645833336,
      "d": 124.99972916666593,
      "v": 113
    },
    {
      "midi": 57,
      "hit": false,
      "t": 110597.58645833336,
      "d": 782.6070000000036,
      "v": 104
    },
    {
      "midi": 69,
      "hit": false,
      "t": 110597.58645833336,
      "d": 902.171958333347,
      "v": 101
    },
    {
      "midi": 76,
      "hit": false,
      "t": 110603.0212291667,
      "d": 896.7371875000099,
      "v": 127
    },
    {
      "midi": 73,
      "hit": false,
      "t": 110722.58618750003,
      "d": 777.1722291666811,
      "v": 80
    },
    {
      "midi": 64,
      "hit": false,
      "t": 111385.6282291667,
      "d": 114.13018750000629,
      "v": 97
    },
    {
      "midi": 64,
      "hit": false,
      "t": 111907.36622916671,
      "d": 124.99972916666593,
      "v": 83
    },
    {
      "midi": 57,
      "hit": false,
      "t": 112173.67000000004,
      "d": 391.30349999999453,
      "v": 104
    },
    {
      "midi": 74,
      "hit": false,
      "t": 112173.67000000004,
      "d": 391.30349999999453,
      "v": 127
    },
    {
      "midi": 78,
      "hit": false,
      "t": 112173.67000000004,
      "d": 391.30349999999453,
      "v": 110
    },
    {
      "midi": 69,
      "hit": false,
      "t": 112173.67000000004,
      "d": 402.17304166665417,
      "v": 127
    },
    {
      "midi": 73,
      "hit": false,
      "t": 112689.9732291667,
      "d": 1711.952812500007,
      "v": 95
    },
    {
      "midi": 57,
      "hit": false,
      "t": 112689.9732291667,
      "d": 1809.778687500002,
      "v": 101
    },
    {
      "midi": 69,
      "hit": false,
      "t": 112689.9732291667,
      "d": 1809.778687500002,
      "v": 75
    },
    {
      "midi": 76,
      "hit": false,
      "t": 112689.9732291667,
      "d": 1809.778687500002,
      "v": 113
    },
    {
      "midi": 71,
      "hit": false,
      "t": 120532.3475416667,
      "d": 195.65175000000454,
      "v": 122
    },
    {
      "midi": 76,
      "hit": false,
      "t": 120532.3475416667,
      "d": 201.08652083334164,
      "v": 113
    },
    {
      "midi": 71,
      "hit": false,
      "t": 120787.78177083338,
      "d": 2288.038520833332,
      "v": 91
    },
    {
      "midi": 76,
      "hit": false,
      "t": 120793.21654166671,
      "d": 2260.864666666661,
      "v": 94
    },
    {
      "midi": 52,
      "hit": false,
      "t": 148173.59200000003,
      "d": 244.5646875000093,
      "v": 101
    },
    {
      "midi": 76,
      "hit": false,
      "t": 148173.59200000003,
      "d": 244.5646875000093,
      "v": 127
    },
    {
      "midi": 64,
      "hit": false,
      "t": 148173.59200000003,
      "d": 249.99945833333186,
      "v": 117
    },
    {
      "midi": 71,
      "hit": false,
      "t": 148173.59200000003,
      "d": 249.99945833333186,
      "v": 127
    },
    {
      "midi": 80,
      "hit": false,
      "t": 148173.59200000003,
      "d": 249.99945833333186,
      "v": 104
    },
    {
      "midi": 64,
      "hit": false,
      "t": 148695.33000000005,
      "d": 771.7374583333149,
      "v": 127
    },
    {
      "midi": 80,
      "hit": false,
      "t": 148695.33000000005,
      "d": 788.0417708333116,
      "v": 110
    },
    {
      "midi": 52,
      "hit": false,
      "t": 148695.33000000005,
      "d": 902.1719583333179,
      "v": 113
    },
    {
      "midi": 76,
      "hit": false,
      "t": 148695.33000000005,
      "d": 907.6067291666404,
      "v": 127
    },
    {
      "midi": 71,
      "hit": false,
      "t": 148695.33000000005,
      "d": 1054.3455416666402,
      "v": 127
    },
    {
      "midi": 80,
      "hit": false,
      "t": 149738.806,
      "d": 114.13018750000629,
      "v": 42
    },
    {
      "midi": 76,
      "hit": false,
      "t": 149738.806,
      "d": 119.56495833332883,
      "v": 57
    },
    {
      "midi": 69,
      "hit": false,
      "t": 150005.10977083334,
      "d": 124.99972916668048,
      "v": 50
    },
    {
      "midi": 78,
      "hit": false,
      "t": 150255.10922916667,
      "d": 532.6075416666572,
      "v": 95
    },
    {
      "midi": 69,
      "hit": false,
      "t": 150260.544,
      "d": 527.1727708333347,
      "v": 71
    },
    {
      "midi": 74,
      "hit": false,
      "t": 150260.544,
      "d": 532.6075416666572,
      "v": 113
    },
    {
      "midi": 50,
      "hit": false,
      "t": 150260.544,
      "d": 929.3458124999888,
      "v": 97
    },
    {
      "midi": 62,
      "hit": false,
      "t": 150260.544,
      "d": 1032.606458333321,
      "v": 88
    },
    {
      "midi": 78,
      "hit": false,
      "t": 151032.2814583333,
      "d": 521.7380000000121,
      "v": 59
    },
    {
      "midi": 74,
      "hit": false,
      "t": 151032.2814583333,
      "d": 532.6075416666863,
      "v": 83
    },
    {
      "midi": 69,
      "hit": false,
      "t": 151554.01945833332,
      "d": 130.43450000000303,
      "v": 73
    },
    {
      "midi": 74,
      "hit": false,
      "t": 151825.758,
      "d": 130.43449999997392,
      "v": 81
    },
    {
      "midi": 69,
      "hit": false,
      "t": 151831.19277083332,
      "d": 119.56495833332883,
      "v": 60
    },
    {
      "midi": 78,
      "hit": false,
      "t": 151831.19277083332,
      "d": 119.56495833332883,
      "v": 53
    },
    {
      "midi": 64,
      "hit": false,
      "t": 152086.62699999998,
      "d": 130.43450000000303,
      "v": 94
    },
    {
      "midi": 69,
      "hit": false,
      "t": 152342.06122916666,
      "d": 777.1722291666374,
      "v": 91
    },
    {
      "midi": 76,
      "hit": false,
      "t": 152347.49599999998,
      "d": 771.7374583333149,
      "v": 113
    },
    {
      "midi": 57,
      "hit": false,
      "t": 152347.49599999998,
      "d": 777.1722291666374,
      "v": 101
    },
    {
      "midi": 73,
      "hit": false,
      "t": 152347.49599999998,
      "d": 896.7371874999662,
      "v": 100
    },
    {
      "midi": 64,
      "hit": false,
      "t": 153119.2334583333,
      "d": 124.99972916665138,
      "v": 88
    },
    {
      "midi": 64,
      "hit": false,
      "t": 153651.84099999996,
      "d": 124.99972916668048,
      "v": 94
    },
    {
      "midi": 74,
      "hit": false,
      "t": 153912.70999999996,
      "d": 380.4339583333058,
      "v": 127
    },
    {
      "midi": 57,
      "hit": false,
      "t": 153912.70999999996,
      "d": 391.30349999998,
      "v": 108
    },
    {
      "midi": 69,
      "hit": false,
      "t": 153912.70999999996,
      "d": 391.30349999998,
      "v": 127
    },
    {
      "midi": 64,
      "hit": false,
      "t": 154179.01377083326,
      "d": 114.13018750000629,
      "v": 59
    },
    {
      "midi": 64,
      "hit": false,
      "t": 154423.57845833327,
      "d": 380.4339583333349,
      "v": 97
    },
    {
      "midi": 69,
      "hit": false,
      "t": 154423.57845833327,
      "d": 652.172499999986,
      "v": 91
    },
    {
      "midi": 73,
      "hit": false,
      "t": 154423.57845833327,
      "d": 657.6072708333086,
      "v": 110
    },
    {
      "midi": 57,
      "hit": false,
      "t": 154423.57845833327,
      "d": 1298.9102291666786,
      "v": 86
    },
    {
      "midi": 64,
      "hit": false,
      "t": 154956.18599999993,
      "d": 249.99945833333186,
      "v": 71
    },
    {
      "midi": 64,
      "hit": false,
      "t": 155217.05499999993,
      "d": 130.43450000000303,
      "v": 83
    },
    {
      "midi": 71,
      "hit": false,
      "t": 155477.92399999994,
      "d": 141.30404166667722,
      "v": 117
    },
    {
      "midi": 76,
      "hit": false,
      "t": 155483.35877083326,
      "d": 141.30404166667722,
      "v": 122
    },
    {
      "midi": 73,
      "hit": false,
      "t": 155608.35849999994,
      "d": 135.86927083332557,
      "v": 87
    },
    {
      "midi": 71,
      "hit": false,
      "t": 155727.92345833327,
      "d": 130.43449999997392,
      "v": 81
    },
    {
      "midi": 69,
      "hit": false,
      "t": 155852.92318749992,
      "d": 385.86872916665743,
      "v": 113
    },
    {
      "midi": 76,
      "hit": false,
      "t": 156255.09622916658,
      "d": 114.13018750000629,
      "v": 104
    },
    {
      "midi": 69,
      "hit": false,
      "t": 156521.3999999999,
      "d": 663.0420416666311,
      "v": 122
    },
    {
      "midi": 50,
      "hit": false,
      "t": 156521.3999999999,
      "d": 1445.649041666591,
      "v": 101
    },
    {
      "midi": 66,
      "hit": false,
      "t": 156526.83477083323,
      "d": 657.6072708333086,
      "v": 104
    },
    {
      "midi": 69,
      "hit": false,
      "t": 157293.1374583332,
      "d": 510.8684583333379,
      "v": 97
    },
    {
      "midi": 64,
      "hit": false,
      "t": 157293.1374583332,
      "d": 521.737999999983,
      "v": 97
    },
    {
      "midi": 66,
      "hit": false,
      "t": 157809.44068749985,
      "d": 271.73854166665114,
      "v": 63
    },
    {
      "midi": 69,
      "hit": false,
      "t": 158081.1792291665,
      "d": 124.99972916668048,
      "v": 77
    },
    {
      "midi": 50,
      "hit": false,
      "t": 158336.6134583332,
      "d": 1706.5180416666262,
      "v": 88
    },
    {
      "midi": 62,
      "hit": false,
      "t": 158863.78622916652,
      "d": 391.30349999998,
      "v": 94
    },
    {
      "midi": 81,
      "hit": false,
      "t": 159135.5247708332,
      "d": 119.56495833329973,
      "v": 108
    },
    {
      "midi": 76,
      "hit": false,
      "t": 159140.95954166653,
      "d": 108.69541666665464,
      "v": 91
    },
    {
      "midi": 76,
      "hit": false,
      "t": 159385.5242291665,
      "d": 119.56495833332883,
      "v": 117
    },
    {
      "midi": 81,
      "hit": false,
      "t": 159385.5242291665,
      "d": 124.99972916665138,
      "v": 113
    },
    {
      "midi": 76,
      "hit": false,
      "t": 159651.82799999983,
      "d": 119.56495833332883,
      "v": 113
    },
    {
      "midi": 81,
      "hit": false,
      "t": 159651.82799999983,
      "d": 130.43450000000303,
      "v": 117
    },
    {
      "midi": 78,
      "hit": false,
      "t": 159771.39295833316,
      "d": 130.43450000000303,
      "v": 65
    },
    {
      "midi": 76,
      "hit": false,
      "t": 159793.1320416665,
      "d": 130.43449999997392,
      "v": 81
    },
    {
      "midi": 74,
      "hit": false,
      "t": 159918.13177083316,
      "d": 141.30404166664812,
      "v": 79
    },
    {
      "midi": 81,
      "hit": false,
      "t": 160173.56599999982,
      "d": 135.86927083332557,
      "v": 122
    },
    {
      "midi": 78,
      "hit": false,
      "t": 160684.43445833315,
      "d": 135.86927083332557,
      "v": 91
    },
    {
      "midi": 83,
      "hit": false,
      "t": 160684.43445833315,
      "d": 652.172499999986,
      "v": 97
    },
    {
      "midi": 64,
      "hit": false,
      "t": 160689.86922916648,
      "d": 1038.0412291666726,
      "v": 86
    },
    {
      "midi": 52,
      "hit": false,
      "t": 160689.86922916648,
      "d": 3114.1236874999886,
      "v": 86
    },
    {
      "midi": 80,
      "hit": false,
      "t": 160809.4341874998,
      "d": 521.7380000000121,
      "v": 71
    },
    {
      "midi": 78,
      "hit": false,
      "t": 161477.91099999982,
      "d": 396.7382708333316,
      "v": 80
    },
    {
      "midi": 83,
      "hit": false,
      "t": 161477.91099999982,
      "d": 516.3032291666605,
      "v": 104
    },
    {
      "midi": 64,
      "hit": false,
      "t": 162515.9522291665,
      "d": 266.3037708333286,
      "v": 88
    },
    {
      "midi": 76,
      "hit": false,
      "t": 163037.69022916647,
      "d": 135.86927083332557,
      "v": 81
    },
    {
      "midi": 64,
      "hit": false,
      "t": 163303.9939999998,
      "d": 114.13018750000629,
      "v": 67
    },
    {
      "midi": 64,
      "hit": false,
      "t": 163553.99345833313,
      "d": 119.56495833332883,
      "v": 71
    },
    {
      "midi": 52,
      "hit": false,
      "t": 163820.29722916646,
      "d": 255.4342291666544,
      "v": 61
    },
    {
      "midi": 64,
      "hit": false,
      "t": 163820.29722916646,
      "d": 255.4342291666544,
      "v": 94
    },
    {
      "midi": 78,
      "hit": false,
      "t": 163825.73199999979,
      "d": 124.99972916668048,
      "v": 95
    },
    {
      "midi": 83,
      "hit": false,
      "t": 163825.73199999979,
      "d": 141.30404166667722,
      "v": 104
    },
    {
      "midi": 80,
      "hit": false,
      "t": 163950.73172916647,
      "d": 146.73881249997066,
      "v": 83
    },
    {
      "midi": 78,
      "hit": false,
      "t": 163967.03604166646,
      "d": 130.43449999997392,
      "v": 65
    },
    {
      "midi": 76,
      "hit": false,
      "t": 164092.0357708331,
      "d": 135.86927083332557,
      "v": 91
    },
    {
      "midi": 52,
      "hit": false,
      "t": 164461.60018749977,
      "d": 124.99972916668048,
      "v": 59
    },
    {
      "midi": 52,
      "hit": false,
      "t": 164602.90422916645,
      "d": 244.5646875000093,
      "v": 94
    },
    {
      "midi": 54,
      "hit": false,
      "t": 164858.33845833314,
      "d": 249.99945833330275,
      "v": 104
    },
    {
      "midi": 78,
      "hit": false,
      "t": 164858.33845833314,
      "d": 271.73854166665114,
      "v": 87
    },
    {
      "midi": 69,
      "hit": false,
      "t": 164863.77322916646,
      "d": 114.13018749997718,
      "v": 122
    },
    {
      "midi": 73,
      "hit": false,
      "t": 164863.77322916646,
      "d": 124.99972916665138,
      "v": 80
    },
    {
      "midi": 66,
      "hit": false,
      "t": 164863.77322916646,
      "d": 255.4342291666544,
      "v": 95
    },
    {
      "midi": 69,
      "hit": false,
      "t": 165385.51122916644,
      "d": 255.4342291666544,
      "v": 122
    },
    {
      "midi": 78,
      "hit": false,
      "t": 165385.51122916644,
      "d": 260.86899999997695,
      "v": 91
    },
    {
      "midi": 66,
      "hit": false,
      "t": 165385.51122916644,
      "d": 271.73854166665114,
      "v": 100
    },
    {
      "midi": 54,
      "hit": false,
      "t": 165385.51122916644,
      "d": 374.99918749998324,
      "v": 100
    },
    {
      "midi": 73,
      "hit": false,
      "t": 165390.94599999976,
      "d": 239.12991666665766,
      "v": 83
    },
    {
      "midi": 68,
      "hit": false,
      "t": 166168.11822916643,
      "d": 266.3037708333286,
      "v": 110
    },
    {
      "midi": 71,
      "hit": false,
      "t": 166168.11822916643,
      "d": 266.3037708333286,
      "v": 117
    },
    {
      "midi": 64,
      "hit": false,
      "t": 166168.11822916643,
      "d": 374.99918749998324,
      "v": 127
    },
    {
      "midi": 52,
      "hit": false,
      "t": 166168.11822916643,
      "d": 396.7382708333025,
      "v": 113
    },
    {
      "midi": 62,
      "hit": false,
      "t": 166689.8562291664,
      "d": 510.8684583333379,
      "v": 117
    },
    {
      "midi": 66,
      "hit": false,
      "t": 166689.8562291664,
      "d": 527.1727708333347,
      "v": 110
    },
    {
      "midi": 69,
      "hit": false,
      "t": 166689.8562291664,
      "d": 635.8681874999893,
      "v": 117
    },
    {
      "midi": 50,
      "hit": false,
      "t": 166689.8562291664,
      "d": 1440.2142708332976,
      "v": 122
    },
    {
      "midi": 62,
      "hit": false,
      "t": 167738.76699999973,
      "d": 505.43368749998626,
      "v": 127
    },
    {
      "midi": 81,
      "hit": false,
      "t": 167994.20122916639,
      "d": 255.4342291666544,
      "v": 122
    },
    {
      "midi": 76,
      "hit": false,
      "t": 167994.20122916639,
      "d": 266.3037708333286,
      "v": 127
    },
    {
      "midi": 78,
      "hit": false,
      "t": 168249.63545833304,
      "d": 141.30404166667722,
      "v": 65
    },
    {
      "midi": 76,
      "hit": false,
      "t": 168505.06968749972,
      "d": 124.99972916668048,
      "v": 88
    },
    {
      "midi": 64,
      "hit": false,
      "t": 168765.93868749973,
      "d": 141.30404166667722,
      "v": 75
    },
    {
      "midi": 71,
      "hit": false,
      "t": 169032.2424583331,
      "d": 130.43450000000303,
      "v": 88
    },
    {
      "midi": 57,
      "hit": false,
      "t": 169037.6772291664,
      "d": 896.7371875000244,
      "v": 86
    },
    {
      "midi": 76,
      "hit": false,
      "t": 169037.6772291664,
      "d": 1184.7800416666723,
      "v": 91
    },
    {
      "midi": 73,
      "hit": false,
      "t": 169151.80741666642,
      "d": 1293.475458333356,
      "v": 59
    },
    {
      "midi": 64,
      "hit": false,
      "t": 169825.71899999978,
      "d": 130.43449999997392,
      "v": 86
    },
    {
      "midi": 64,
      "hit": false,
      "t": 170347.45699999976,
      "d": 119.56495833332883,
      "v": 86
    },
    {
      "midi": 57,
      "hit": false,
      "t": 170608.32599999977,
      "d": 244.5646875000093,
      "v": 108
    },
    {
      "midi": 74,
      "hit": false,
      "t": 170608.32599999977,
      "d": 271.73854166668025,
      "v": 127
    },
    {
      "midi": 69,
      "hit": false,
      "t": 170608.32599999977,
      "d": 385.86872916668653,
      "v": 127
    },
    {
      "midi": 57,
      "hit": false,
      "t": 171119.1944583331,
      "d": 1173.9104999999981,
      "v": 97
    },
    {
      "midi": 69,
      "hit": false,
      "t": 171124.62922916643,
      "d": 538.0423124999797,
      "v": 127
    },
    {
      "midi": 73,
      "hit": false,
      "t": 171124.62922916643,
      "d": 646.7377291666344,
      "v": 110
    },
    {
      "midi": 64,
      "hit": false,
      "t": 171646.3672291664,
      "d": 119.56495833332883,
      "v": 81
    },
    {
      "midi": 64,
      "hit": false,
      "t": 171901.80145833307,
      "d": 124.99972916668048,
      "v": 94
    },
    {
      "midi": 71,
      "hit": false,
      "t": 172168.10522916642,
      "d": 124.99972916668048,
      "v": 127
    },
    {
      "midi": 76,
      "hit": false,
      "t": 172168.10522916642,
      "d": 135.86927083335468,
      "v": 127
    },
    {
      "midi": 73,
      "hit": false,
      "t": 172293.1049583331,
      "d": 130.43450000000303,
      "v": 91
    },
    {
      "midi": 71,
      "hit": false,
      "t": 172314.84404166645,
      "d": 130.43449999997392,
      "v": 91
    },
    {
      "midi": 69,
      "hit": false,
      "t": 172439.8437708331,
      "d": 124.99972916665138,
      "v": 86
    },
    {
      "midi": 69,
      "hit": false,
      "t": 172689.84322916644,
      "d": 255.4342291666544,
      "v": 122
    },
    {
      "midi": 76,
      "hit": false,
      "t": 172945.2774583331,
      "d": 119.56495833332883,
      "v": 108
    },
    {
      "midi": 76,
      "hit": false,
      "t": 173217.01599999977,
      "d": 130.43450000000303,
      "v": 127
    },
    {
      "midi": 81,
      "hit": false,
      "t": 173217.01599999977,
      "d": 635.8681875000184,
      "v": 127
    },
    {
      "midi": 62,
      "hit": false,
      "t": 173217.01599999977,
      "d": 1038.0412291667017,
      "v": 101
    },
    {
      "midi": 50,
      "hit": false,
      "t": 173217.01599999977,
      "d": 1293.4754583333852,
      "v": 94
    },
    {
      "midi": 78,
      "hit": false,
      "t": 173336.5809583331,
      "d": 527.1727708333638,
      "v": 73
    },
    {
      "midi": 81,
      "hit": false,
      "t": 173988.75345833314,
      "d": 510.8684583333379,
      "v": 127
    },
    {
      "midi": 74,
      "hit": false,
      "t": 174515.92622916648,
      "d": 135.86927083332557,
      "v": 94
    },
    {
      "midi": 81,
      "hit": false,
      "t": 174776.79522916648,
      "d": 124.99972916668048,
      "v": 108
    },
    {
      "midi": 64,
      "hit": false,
      "t": 175032.22945833317,
      "d": 124.99972916668048,
      "v": 66
    },
    {
      "midi": 78,
      "hit": false,
      "t": 175293.09845833317,
      "d": 130.43450000000303,
      "v": 110
    },
    {
      "midi": 64,
      "hit": false,
      "t": 175298.5332291665,
      "d": 635.8681874999893,
      "v": 108
    },
    {
      "midi": 83,
      "hit": false,
      "t": 175298.5332291665,
      "d": 635.8681874999893,
      "v": 122
    },
    {
      "midi": 52,
      "hit": false,
      "t": 175298.5332291665,
      "d": 902.1719583333179,
      "v": 97
    },
    {
      "midi": 80,
      "hit": false,
      "t": 175423.53295833318,
      "d": 510.8684583333088,
      "v": 80
    },
    {
      "midi": 83,
      "hit": false,
      "t": 176075.70545833316,
      "d": 510.8684583333088,
      "v": 81
    },
    {
      "midi": 64,
      "hit": false,
      "t": 176081.14022916649,
      "d": 135.86927083332557,
      "v": 83
    },
    {
      "midi": 80,
      "hit": false,
      "t": 176081.14022916649,
      "d": 527.1727708333055,
      "v": 65
    },
    {
      "midi": 76,
      "hit": false,
      "t": 176602.87822916647,
      "d": 130.43450000000303,
      "v": 70
    },
    {
      "midi": 83,
      "hit": false,
      "t": 176858.31245833315,
      "d": 114.13018750000629,
      "v": 86
    },
    {
      "midi": 64,
      "hit": false,
      "t": 177119.18145833316,
      "d": 124.99972916668048,
      "v": 94
    },
    {
      "midi": 71,
      "hit": false,
      "t": 177380.05045833316,
      "d": 124.99972916665138,
      "v": 113
    },
    {
      "midi": 57,
      "hit": false,
      "t": 177380.05045833316,
      "d": 782.6069999999891,
      "v": 104
    },
    {
      "midi": 69,
      "hit": false,
      "t": 177380.05045833316,
      "d": 902.1719583333179,
      "v": 101
    },
    {
      "midi": 76,
      "hit": false,
      "t": 177385.4852291665,
      "d": 896.7371874999953,
      "v": 127
    },
    {
      "midi": 73,
      "hit": false,
      "t": 177505.05018749982,
      "d": 777.1722291666665,
      "v": 80
    },
    {
      "midi": 64,
      "hit": false,
      "t": 178168.09222916648,
      "d": 114.13018750000629,
      "v": 97
    },
    {
      "midi": 64,
      "hit": false,
      "t": 178689.8302291665,
      "d": 124.99972916668048,
      "v": 83
    },
    {
      "midi": 57,
      "hit": false,
      "t": 178956.13399999985,
      "d": 391.30349999998,
      "v": 104
    },
    {
      "midi": 74,
      "hit": false,
      "t": 178956.13399999985,
      "d": 391.30349999998,
      "v": 127
    },
    {
      "midi": 78,
      "hit": false,
      "t": 178956.13399999985,
      "d": 391.30349999998,
      "v": 110
    },
    {
      "midi": 69,
      "hit": false,
      "t": 178956.13399999985,
      "d": 402.17304166665417,
      "v": 127
    },
    {
      "midi": 73,
      "hit": false,
      "t": 179472.4372291665,
      "d": 1711.952812500007,
      "v": 95
    },
    {
      "midi": 57,
      "hit": false,
      "t": 179472.4372291665,
      "d": 1809.7786875000165,
      "v": 101
    },
    {
      "midi": 69,
      "hit": false,
      "t": 179472.4372291665,
      "d": 1809.7786875000165,
      "v": 75
    },
    {
      "midi": 76,
      "hit": false,
      "t": 179472.4372291665,
      "d": 1809.7786875000165,
      "v": 113
    },
    {
      "midi": 69,
      "hit": false,
      "t": 181564.82399999985,
      "d": 809.7808541666891,
      "v": 122
    },
    {
      "midi": 66,
      "hit": false,
      "t": 181564.82399999985,
      "d": 815.2156250000116,
      "v": 127
    },
    {
      "midi": 62,
      "hit": false,
      "t": 181564.82399999985,
      "d": 847.8242500000051,
      "v": 127
    },
    {
      "midi": 50,
      "hit": false,
      "t": 181564.82399999985,
      "d": 1249.9972916666884,
      "v": 113
    },
    {
      "midi": 57,
      "hit": false,
      "t": 182320.2571458332,
      "d": 358.6948750000156,
      "v": 108
    },
    {
      "midi": 69,
      "hit": false,
      "t": 182597.4304583332,
      "d": 228.26037500001257,
      "v": 108
    },
    {
      "midi": 64,
      "hit": false,
      "t": 182597.4304583332,
      "d": 260.86900000000605,
      "v": 113
    },
    {
      "midi": 66,
      "hit": false,
      "t": 182825.6908333332,
      "d": 288.0428541666479,
      "v": 76
    },
    {
      "midi": 69,
      "hit": false,
      "t": 183108.29891666654,
      "d": 130.43450000000303,
      "v": 94
    },
    {
      "midi": 50,
      "hit": false,
      "t": 183352.86360416654,
      "d": 168.47789583331905,
      "v": 101
    },
    {
      "midi": 71,
      "hit": false,
      "t": 183630.03691666652,
      "d": 788.0417708333116,
      "v": 108
    },
    {
      "midi": 52,
      "hit": false,
      "t": 183635.47168749984,
      "d": 472.8250624999928,
      "v": 122
    },
    {
      "midi": 64,
      "hit": false,
      "t": 183640.90645833316,
      "d": 820.6503958333342,
      "v": 127
    },
    {
      "midi": 68,
      "hit": false,
      "t": 183640.90645833316,
      "d": 880.4328749999986,
      "v": 110
    },
    {
      "midi": 52,
      "hit": false,
      "t": 184369.16574999984,
      "d": 124.99972916665138,
      "v": 83
    },
    {
      "midi": 64,
      "hit": false,
      "t": 184928.94714583317,
      "d": 130.43450000000303,
      "v": 104
    },
    {
      "midi": 71,
      "hit": false,
      "t": 185184.38137499985,
      "d": 119.56495833332883,
      "v": 97
    },
    {
      "midi": 64,
      "hit": false,
      "t": 185189.81614583317,
      "d": 97.82587500000955,
      "v": 94
    },
    {
      "midi": 68,
      "hit": false,
      "t": 185189.81614583317,
      "d": 103.26064583333209,
      "v": 91
    },
    {
      "midi": 64,
      "hit": false,
      "t": 185456.1199166665,
      "d": 184.7822083333449,
      "v": 101
    },
    {
      "midi": 69,
      "hit": false,
      "t": 185700.6846041665,
      "d": 6913.028499999986,
      "v": 91
    },
    {
      "midi": 73,
      "hit": false,
      "t": 185706.11937499983,
      "d": 6847.811249999999,
      "v": 83
    },
    {
      "midi": 57,
      "hit": false,
      "t": 185706.11937499983,
      "d": 6885.854645833344,
      "v": 104
    },
    {
      "midi": 76,
      "hit": false,
      "t": 185722.42368749983,
      "d": 6869.550333333347,
      "v": 117
    },
    {
      "midi": 71,
      "hit": false,
      "t": 211293.02045833317,
      "d": 516.3032291666605,
      "v": 122
    },
    {
      "midi": 76,
      "hit": false,
      "t": 211293.02045833317,
      "d": 521.737999999983,
      "v": 108
    },
    {
      "midi": 69,
      "hit": false,
      "t": 211298.4552291665,
      "d": 103.26064583333209,
      "v": 94
    },
    {
      "midi": 71,
      "hit": false,
      "t": 212075.62745833315,
      "d": 402.17304166665417,
      "v": 113
    },
    {
      "midi": 76,
      "hit": false,
      "t": 212081.06222916648,
      "d": 516.3032291666605,
      "v": 113
    },
    {
      "midi": 69,
      "hit": false,
      "t": 212602.80022916646,
      "d": 114.13018750000629,
      "v": 73
    },
    {
      "midi": 71,
      "hit": false,
      "t": 213129.9729999998,
      "d": 114.13018750000629,
      "v": 91
    },
    {
      "midi": 76,
      "hit": false,
      "t": 213129.9729999998,
      "d": 119.56495833332883,
      "v": 97
    },
    {
      "midi": 71,
      "hit": false,
      "t": 213912.57999999978,
      "d": 266.3037708333286,
      "v": 113
    },
    {
      "midi": 76,
      "hit": false,
      "t": 213912.57999999978,
      "d": 668.4768125000119,
      "v": 117
    },
    {
      "midi": 69,
      "hit": false,
      "t": 214173.4489999998,
      "d": 119.56495833332883,
      "v": 56
    },
    {
      "midi": 69,
      "hit": false,
      "t": 214695.1869999998,
      "d": 119.56495833332883,
      "v": 56
    },
    {
      "midi": 54,
      "hit": false,
      "t": 214956.0559999998,
      "d": 635.8681874999893,
      "v": 53
    },
    {
      "midi": 71,
      "hit": false,
      "t": 216254.96622916646,
      "d": 114.13018750000629,
      "v": 127
    },
    {
      "midi": 76,
      "hit": false,
      "t": 216254.96622916646,
      "d": 130.43450000000303,
      "v": 117
    },
    {
      "midi": 71,
      "hit": false,
      "t": 216776.70422916647,
      "d": 396.7382708333316,
      "v": 117
    },
    {
      "midi": 76,
      "hit": false,
      "t": 216782.1389999998,
      "d": 396.7382708333316,
      "v": 117
    },
    {
      "midi": 54,
      "hit": false,
      "t": 216782.1389999998,
      "d": 1032.606458333321,
      "v": 80
    },
    {
      "midi": 69,
      "hit": false,
      "t": 217298.44222916645,
      "d": 1298.9102291666495,
      "v": 101
    },
    {
      "midi": 76,
      "hit": false,
      "t": 217298.44222916645,
      "d": 1679.3441874999844,
      "v": 91
    },
    {
      "midi": 71,
      "hit": false,
      "t": 218613.6567708331,
      "d": 146.73881249999977,
      "v": 75
    },
    {
      "midi": 69,
      "hit": false,
      "t": 219646.26322916645,
      "d": 385.86872916665743,
      "v": 67
    },
    {
      "midi": 78,
      "hit": false,
      "t": 219646.26322916645,
      "d": 402.17304166665417,
      "v": 61
    },
    {
      "midi": 74,
      "hit": false,
      "t": 219651.69799999977,
      "d": 391.3035000000091,
      "v": 83
    },
    {
      "midi": 62,
      "hit": false,
      "t": 219651.69799999977,
      "d": 396.7382708333316,
      "v": 66
    },
    {
      "midi": 64,
      "hit": false,
      "t": 221211.47722916646,
      "d": 777.1722291666374,
      "v": 73
    },
    {
      "midi": 76,
      "hit": false,
      "t": 221727.78045833312,
      "d": 135.86927083332557,
      "v": 91
    },
    {
      "midi": 80,
      "hit": false,
      "t": 221727.78045833312,
      "d": 244.5646874999802,
      "v": 87
    },
    {
      "midi": 88,
      "hit": false,
      "t": 222515.82222916643,
      "d": 119.56495833332883,
      "v": 77
    },
    {
      "midi": 92,
      "hit": false,
      "t": 222515.82222916643,
      "d": 119.56495833332883,
      "v": 80
    },
    {
      "midi": 57,
      "hit": false,
      "t": 223303.86399999977,
      "d": 3130.4280000000144,
      "v": 88
    },
    {
      "midi": 71,
      "hit": false,
      "t": 223825.60199999978,
      "d": 380.4339583333349,
      "v": 127
    },
    {
      "midi": 76,
      "hit": false,
      "t": 223825.60199999978,
      "d": 391.3035000000091,
      "v": 117
    },
    {
      "midi": 69,
      "hit": false,
      "t": 224597.33945833312,
      "d": 130.43450000000303,
      "v": 108
    },
    {
      "midi": 76,
      "hit": false,
      "t": 224597.33945833312,
      "d": 135.86927083332557,
      "v": 104
    },
    {
      "midi": 71,
      "hit": false,
      "t": 225385.38122916644,
      "d": 385.86872916668653,
      "v": 127
    },
    {
      "midi": 76,
      "hit": false,
      "t": 225385.38122916644,
      "d": 385.86872916668653,
      "v": 122
    },
    {
      "midi": 64,
      "hit": false,
      "t": 225385.38122916644,
      "d": 527.1727708333638,
      "v": 91
    },
    {
      "midi": 71,
      "hit": false,
      "t": 226167.98822916645,
      "d": 255.4342291666544,
      "v": 108
    },
    {
      "midi": 76,
      "hit": false,
      "t": 226167.98822916645,
      "d": 271.73854166665114,
      "v": 113
    },
    {
      "midi": 76,
      "hit": false,
      "t": 226684.29145833311,
      "d": 130.43450000000303,
      "v": 113
    },
    {
      "midi": 69,
      "hit": false,
      "t": 226684.29145833311,
      "d": 135.86927083332557,
      "v": 117
    },
    {
      "midi": 64,
      "hit": false,
      "t": 226956.02999999977,
      "d": 119.56495833332883,
      "v": 86
    },
    {
      "midi": 52,
      "hit": false,
      "t": 227477.76799999975,
      "d": 244.5646875000093,
      "v": 101
    },
    {
      "midi": 76,
      "hit": false,
      "t": 227477.76799999975,
      "d": 244.5646875000093,
      "v": 127
    },
    {
      "midi": 64,
      "hit": false,
      "t": 227477.76799999975,
      "d": 249.99945833333186,
      "v": 117
    },
    {
      "midi": 71,
      "hit": false,
      "t": 227477.76799999975,
      "d": 249.99945833333186,
      "v": 127
    },
    {
      "midi": 80,
      "hit": false,
      "t": 227477.76799999975,
      "d": 249.99945833333186,
      "v": 104
    },
    {
      "midi": 64,
      "hit": false,
      "t": 227999.50599999976,
      "d": 771.7374583333149,
      "v": 127
    },
    {
      "midi": 80,
      "hit": false,
      "t": 227999.50599999976,
      "d": 788.0417708333116,
      "v": 110
    },
    {
      "midi": 52,
      "hit": false,
      "t": 227999.50599999976,
      "d": 902.1719583333179,
      "v": 113
    },
    {
      "midi": 76,
      "hit": false,
      "t": 227999.50599999976,
      "d": 907.6067291666404,
      "v": 127
    },
    {
      "midi": 71,
      "hit": false,
      "t": 227999.50599999976,
      "d": 1054.3455416666402,
      "v": 127
    },
    {
      "midi": 80,
      "hit": false,
      "t": 229042.98199999973,
      "d": 114.13018750000629,
      "v": 42
    },
    {
      "midi": 76,
      "hit": false,
      "t": 229042.98199999973,
      "d": 119.56495833332883,
      "v": 57
    },
    {
      "midi": 69,
      "hit": false,
      "t": 229309.28577083306,
      "d": 124.99972916668048,
      "v": 50
    },
    {
      "midi": 78,
      "hit": false,
      "t": 229559.2852291664,
      "d": 532.6075416666572,
      "v": 95
    },
    {
      "midi": 69,
      "hit": false,
      "t": 229564.7199999997,
      "d": 527.1727708333347,
      "v": 71
    },
    {
      "midi": 74,
      "hit": false,
      "t": 229564.7199999997,
      "d": 532.6075416666572,
      "v": 113
    },
    {
      "midi": 50,
      "hit": false,
      "t": 229564.7199999997,
      "d": 929.3458124999888,
      "v": 97
    },
    {
      "midi": 62,
      "hit": false,
      "t": 229564.7199999997,
      "d": 1032.606458333321,
      "v": 88
    },
    {
      "midi": 78,
      "hit": false,
      "t": 230336.45745833302,
      "d": 521.7380000000121,
      "v": 59
    },
    {
      "midi": 74,
      "hit": false,
      "t": 230336.45745833302,
      "d": 532.6075416666863,
      "v": 83
    },
    {
      "midi": 69,
      "hit": false,
      "t": 230858.19545833304,
      "d": 130.43450000000303,
      "v": 73
    },
    {
      "midi": 74,
      "hit": false,
      "t": 231129.93399999972,
      "d": 130.43449999997392,
      "v": 81
    },
    {
      "midi": 69,
      "hit": false,
      "t": 231135.36877083304,
      "d": 119.56495833332883,
      "v": 60
    },
    {
      "midi": 78,
      "hit": false,
      "t": 231135.36877083304,
      "d": 119.56495833332883,
      "v": 53
    },
    {
      "midi": 64,
      "hit": false,
      "t": 231390.8029999997,
      "d": 130.43450000000303,
      "v": 94
    },
    {
      "midi": 69,
      "hit": false,
      "t": 231646.23722916638,
      "d": 777.1722291666374,
      "v": 91
    },
    {
      "midi": 76,
      "hit": false,
      "t": 231651.6719999997,
      "d": 771.7374583333149,
      "v": 113
    },
    {
      "midi": 57,
      "hit": false,
      "t": 231651.6719999997,
      "d": 777.1722291666374,
      "v": 101
    },
    {
      "midi": 73,
      "hit": false,
      "t": 231651.6719999997,
      "d": 896.7371874999662,
      "v": 100
    },
    {
      "midi": 64,
      "hit": false,
      "t": 232423.40945833302,
      "d": 124.99972916665138,
      "v": 88
    },
    {
      "midi": 64,
      "hit": false,
      "t": 232956.01699999967,
      "d": 124.99972916668048,
      "v": 94
    },
    {
      "midi": 74,
      "hit": false,
      "t": 233216.88599999968,
      "d": 380.4339583333058,
      "v": 127
    },
    {
      "midi": 57,
      "hit": false,
      "t": 233216.88599999968,
      "d": 391.30349999998,
      "v": 108
    },
    {
      "midi": 69,
      "hit": false,
      "t": 233216.88599999968,
      "d": 391.30349999998,
      "v": 127
    },
    {
      "midi": 64,
      "hit": false,
      "t": 233483.18977083298,
      "d": 114.13018750000629,
      "v": 59
    },
    {
      "midi": 64,
      "hit": false,
      "t": 233727.754458333,
      "d": 380.4339583333349,
      "v": 97
    },
    {
      "midi": 69,
      "hit": false,
      "t": 233727.754458333,
      "d": 652.172499999986,
      "v": 91
    },
    {
      "midi": 73,
      "hit": false,
      "t": 233727.754458333,
      "d": 657.6072708333086,
      "v": 110
    },
    {
      "midi": 57,
      "hit": false,
      "t": 233727.754458333,
      "d": 1298.9102291666786,
      "v": 86
    },
    {
      "midi": 64,
      "hit": false,
      "t": 234260.36199999964,
      "d": 249.99945833333186,
      "v": 71
    },
    {
      "midi": 64,
      "hit": false,
      "t": 234521.23099999965,
      "d": 130.43450000000303,
      "v": 83
    },
    {
      "midi": 71,
      "hit": false,
      "t": 234782.09999999966,
      "d": 141.30404166667722,
      "v": 117
    },
    {
      "midi": 76,
      "hit": false,
      "t": 234787.53477083298,
      "d": 141.30404166667722,
      "v": 122
    },
    {
      "midi": 73,
      "hit": false,
      "t": 234912.53449999966,
      "d": 135.86927083332557,
      "v": 87
    },
    {
      "midi": 71,
      "hit": false,
      "t": 235032.099458333,
      "d": 130.43449999997392,
      "v": 81
    },
    {
      "midi": 69,
      "hit": false,
      "t": 235157.09918749964,
      "d": 385.86872916665743,
      "v": 113
    },
    {
      "midi": 76,
      "hit": false,
      "t": 235559.2722291663,
      "d": 114.13018750000629,
      "v": 104
    },
    {
      "midi": 69,
      "hit": false,
      "t": 235825.57599999962,
      "d": 663.0420416666311,
      "v": 122
    },
    {
      "midi": 50,
      "hit": false,
      "t": 235825.57599999962,
      "d": 1445.649041666591,
      "v": 101
    },
    {
      "midi": 66,
      "hit": false,
      "t": 235831.01077083295,
      "d": 657.6072708333086,
      "v": 104
    },
    {
      "midi": 69,
      "hit": false,
      "t": 236597.3134583329,
      "d": 510.8684583333379,
      "v": 97
    },
    {
      "midi": 64,
      "hit": false,
      "t": 236597.3134583329,
      "d": 521.737999999983,
      "v": 97
    },
    {
      "midi": 66,
      "hit": false,
      "t": 237113.61668749957,
      "d": 271.73854166665114,
      "v": 63
    },
    {
      "midi": 69,
      "hit": false,
      "t": 237385.35522916622,
      "d": 124.99972916668048,
      "v": 77
    },
    {
      "midi": 50,
      "hit": false,
      "t": 237640.7894583329,
      "d": 1706.5180416666262,
      "v": 88
    },
    {
      "midi": 62,
      "hit": false,
      "t": 238167.96222916624,
      "d": 391.30349999998,
      "v": 94
    },
    {
      "midi": 81,
      "hit": false,
      "t": 238439.70077083292,
      "d": 119.56495833329973,
      "v": 108
    },
    {
      "midi": 76,
      "hit": false,
      "t": 238445.13554166624,
      "d": 108.69541666665464,
      "v": 91
    },
    {
      "midi": 76,
      "hit": false,
      "t": 238689.70022916622,
      "d": 119.56495833332883,
      "v": 117
    },
    {
      "midi": 81,
      "hit": false,
      "t": 238689.70022916622,
      "d": 124.99972916665138,
      "v": 113
    },
    {
      "midi": 76,
      "hit": false,
      "t": 238956.00399999955,
      "d": 119.56495833332883,
      "v": 113
    },
    {
      "midi": 81,
      "hit": false,
      "t": 238956.00399999955,
      "d": 130.43450000000303,
      "v": 117
    },
    {
      "midi": 78,
      "hit": false,
      "t": 239075.56895833288,
      "d": 130.43450000000303,
      "v": 65
    },
    {
      "midi": 76,
      "hit": false,
      "t": 239097.30804166623,
      "d": 130.43449999997392,
      "v": 81
    },
    {
      "midi": 74,
      "hit": false,
      "t": 239222.30777083288,
      "d": 141.30404166664812,
      "v": 79
    },
    {
      "midi": 81,
      "hit": false,
      "t": 239477.74199999953,
      "d": 135.86927083332557,
      "v": 122
    },
    {
      "midi": 78,
      "hit": false,
      "t": 239988.61045833287,
      "d": 135.86927083332557,
      "v": 91
    },
    {
      "midi": 83,
      "hit": false,
      "t": 239988.61045833287,
      "d": 652.172499999986,
      "v": 97
    },
    {
      "midi": 64,
      "hit": false,
      "t": 239994.0452291662,
      "d": 1038.0412291666726,
      "v": 86
    },
    {
      "midi": 52,
      "hit": false,
      "t": 239994.0452291662,
      "d": 3114.1236874999886,
      "v": 86
    },
    {
      "midi": 80,
      "hit": false,
      "t": 240113.61018749952,
      "d": 521.7380000000121,
      "v": 71
    },
    {
      "midi": 78,
      "hit": false,
      "t": 240782.08699999953,
      "d": 396.7382708333316,
      "v": 80
    },
    {
      "midi": 83,
      "hit": false,
      "t": 240782.08699999953,
      "d": 516.3032291666605,
      "v": 104
    },
    {
      "midi": 64,
      "hit": false,
      "t": 241820.1282291662,
      "d": 266.3037708333286,
      "v": 88
    },
    {
      "midi": 76,
      "hit": false,
      "t": 242341.8662291662,
      "d": 135.86927083332557,
      "v": 81
    },
    {
      "midi": 64,
      "hit": false,
      "t": 242608.16999999952,
      "d": 114.13018750000629,
      "v": 67
    },
    {
      "midi": 64,
      "hit": false,
      "t": 242858.16945833285,
      "d": 119.56495833332883,
      "v": 71
    },
    {
      "midi": 52,
      "hit": false,
      "t": 243124.47322916618,
      "d": 255.4342291666544,
      "v": 61
    },
    {
      "midi": 64,
      "hit": false,
      "t": 243124.47322916618,
      "d": 255.4342291666544,
      "v": 94
    },
    {
      "midi": 78,
      "hit": false,
      "t": 243129.9079999995,
      "d": 124.99972916668048,
      "v": 95
    },
    {
      "midi": 83,
      "hit": false,
      "t": 243129.9079999995,
      "d": 141.30404166667722,
      "v": 104
    },
    {
      "midi": 80,
      "hit": false,
      "t": 243254.90772916618,
      "d": 146.73881249997066,
      "v": 83
    },
    {
      "midi": 78,
      "hit": false,
      "t": 243271.21204166618,
      "d": 130.43449999997392,
      "v": 65
    },
    {
      "midi": 76,
      "hit": false,
      "t": 243396.21177083283,
      "d": 135.86927083332557,
      "v": 91
    },
    {
      "midi": 52,
      "hit": false,
      "t": 243765.7761874995,
      "d": 124.99972916668048,
      "v": 59
    },
    {
      "midi": 52,
      "hit": false,
      "t": 243907.08022916617,
      "d": 244.5646875000093,
      "v": 94
    },
    {
      "midi": 54,
      "hit": false,
      "t": 244162.51445833285,
      "d": 249.99945833330275,
      "v": 104
    },
    {
      "midi": 78,
      "hit": false,
      "t": 244162.51445833285,
      "d": 271.73854166665114,
      "v": 87
    },
    {
      "midi": 69,
      "hit": false,
      "t": 244167.94922916617,
      "d": 114.13018749997718,
      "v": 122
    },
    {
      "midi": 73,
      "hit": false,
      "t": 244167.94922916617,
      "d": 124.99972916665138,
      "v": 80
    },
    {
      "midi": 66,
      "hit": false,
      "t": 244167.94922916617,
      "d": 255.4342291666544,
      "v": 95
    },
    {
      "midi": 69,
      "hit": false,
      "t": 244689.68722916616,
      "d": 255.4342291666544,
      "v": 122
    },
    {
      "midi": 78,
      "hit": false,
      "t": 244689.68722916616,
      "d": 260.86899999997695,
      "v": 91
    },
    {
      "midi": 66,
      "hit": false,
      "t": 244689.68722916616,
      "d": 271.73854166665114,
      "v": 100
    },
    {
      "midi": 54,
      "hit": false,
      "t": 244689.68722916616,
      "d": 374.99918749998324,
      "v": 100
    },
    {
      "midi": 73,
      "hit": false,
      "t": 244695.12199999948,
      "d": 239.12991666665766,
      "v": 83
    },
    {
      "midi": 68,
      "hit": false,
      "t": 245472.29422916615,
      "d": 266.3037708333286,
      "v": 110
    },
    {
      "midi": 71,
      "hit": false,
      "t": 245472.29422916615,
      "d": 266.3037708333286,
      "v": 117
    },
    {
      "midi": 64,
      "hit": false,
      "t": 245472.29422916615,
      "d": 374.99918749998324,
      "v": 127
    },
    {
      "midi": 52,
      "hit": false,
      "t": 245472.29422916615,
      "d": 396.7382708333025,
      "v": 113
    },
    {
      "midi": 62,
      "hit": false,
      "t": 245994.03222916613,
      "d": 510.8684583333379,
      "v": 117
    },
    {
      "midi": 66,
      "hit": false,
      "t": 245994.03222916613,
      "d": 527.1727708333347,
      "v": 110
    },
    {
      "midi": 69,
      "hit": false,
      "t": 245994.03222916613,
      "d": 635.8681874999893,
      "v": 117
    },
    {
      "midi": 50,
      "hit": false,
      "t": 245994.03222916613,
      "d": 1440.2142708332976,
      "v": 122
    },
    {
      "midi": 62,
      "hit": false,
      "t": 247042.94299999945,
      "d": 505.43368749998626,
      "v": 127
    },
    {
      "midi": 81,
      "hit": false,
      "t": 247298.3772291661,
      "d": 255.4342291666544,
      "v": 122
    },
    {
      "midi": 76,
      "hit": false,
      "t": 247298.3772291661,
      "d": 266.3037708333286,
      "v": 127
    },
    {
      "midi": 78,
      "hit": false,
      "t": 247553.81145833276,
      "d": 141.30404166667722,
      "v": 65
    },
    {
      "midi": 76,
      "hit": false,
      "t": 247809.24568749944,
      "d": 124.99972916668048,
      "v": 88
    },
    {
      "midi": 64,
      "hit": false,
      "t": 248070.11468749944,
      "d": 141.30404166667722,
      "v": 75
    },
    {
      "midi": 71,
      "hit": false,
      "t": 248336.4184583328,
      "d": 130.43450000000303,
      "v": 88
    },
    {
      "midi": 57,
      "hit": false,
      "t": 248341.85322916612,
      "d": 896.7371875000244,
      "v": 86
    },
    {
      "midi": 76,
      "hit": false,
      "t": 248341.85322916612,
      "d": 1184.7800416666723,
      "v": 91
    },
    {
      "midi": 73,
      "hit": false,
      "t": 248455.98341666613,
      "d": 1293.475458333356,
      "v": 59
    },
    {
      "midi": 64,
      "hit": false,
      "t": 249129.8949999995,
      "d": 130.43449999997392,
      "v": 86
    },
    {
      "midi": 64,
      "hit": false,
      "t": 249651.63299999948,
      "d": 119.56495833332883,
      "v": 86
    },
    {
      "midi": 57,
      "hit": false,
      "t": 249912.50199999948,
      "d": 244.5646875000093,
      "v": 108
    },
    {
      "midi": 74,
      "hit": false,
      "t": 249912.50199999948,
      "d": 271.73854166668025,
      "v": 127
    },
    {
      "midi": 69,
      "hit": false,
      "t": 249912.50199999948,
      "d": 385.86872916668653,
      "v": 127
    },
    {
      "midi": 57,
      "hit": false,
      "t": 250423.37045833282,
      "d": 1173.9104999999981,
      "v": 97
    },
    {
      "midi": 69,
      "hit": false,
      "t": 250428.80522916614,
      "d": 538.0423124999797,
      "v": 127
    },
    {
      "midi": 73,
      "hit": false,
      "t": 250428.80522916614,
      "d": 646.7377291666344,
      "v": 110
    },
    {
      "midi": 64,
      "hit": false,
      "t": 250950.54322916613,
      "d": 119.56495833332883,
      "v": 81
    },
    {
      "midi": 64,
      "hit": false,
      "t": 251205.97745833278,
      "d": 124.99972916668048,
      "v": 94
    },
    {
      "midi": 71,
      "hit": false,
      "t": 251472.28122916614,
      "d": 124.99972916668048,
      "v": 127
    },
    {
      "midi": 76,
      "hit": false,
      "t": 251472.28122916614,
      "d": 135.86927083335468,
      "v": 127
    },
    {
      "midi": 73,
      "hit": false,
      "t": 251597.28095833282,
      "d": 130.43450000000303,
      "v": 91
    },
    {
      "midi": 71,
      "hit": false,
      "t": 251619.02004166617,
      "d": 130.43449999997392,
      "v": 91
    },
    {
      "midi": 69,
      "hit": false,
      "t": 251744.01977083282,
      "d": 124.99972916665138,
      "v": 86
    },
    {
      "midi": 69,
      "hit": false,
      "t": 251994.01922916615,
      "d": 255.4342291666544,
      "v": 122
    },
    {
      "midi": 76,
      "hit": false,
      "t": 252249.4534583328,
      "d": 119.56495833332883,
      "v": 108
    },
    {
      "midi": 76,
      "hit": false,
      "t": 252521.1919999995,
      "d": 130.43450000000303,
      "v": 127
    },
    {
      "midi": 81,
      "hit": false,
      "t": 252521.1919999995,
      "d": 635.8681875000184,
      "v": 127
    },
    {
      "midi": 62,
      "hit": false,
      "t": 252521.1919999995,
      "d": 1038.0412291667017,
      "v": 101
    },
    {
      "midi": 50,
      "hit": false,
      "t": 252521.1919999995,
      "d": 1293.4754583333852,
      "v": 94
    },
    {
      "midi": 78,
      "hit": false,
      "t": 252640.75695833281,
      "d": 527.1727708333638,
      "v": 73
    },
    {
      "midi": 81,
      "hit": false,
      "t": 253292.92945833286,
      "d": 510.8684583333379,
      "v": 127
    },
    {
      "midi": 74,
      "hit": false,
      "t": 253820.1022291662,
      "d": 135.86927083332557,
      "v": 94
    },
    {
      "midi": 81,
      "hit": false,
      "t": 254080.9712291662,
      "d": 124.99972916668048,
      "v": 108
    },
    {
      "midi": 64,
      "hit": false,
      "t": 254336.40545833288,
      "d": 124.99972916668048,
      "v": 66
    },
    {
      "midi": 78,
      "hit": false,
      "t": 254597.2744583329,
      "d": 130.43450000000303,
      "v": 110
    },
    {
      "midi": 64,
      "hit": false,
      "t": 254602.7092291662,
      "d": 635.8681874999893,
      "v": 108
    },
    {
      "midi": 83,
      "hit": false,
      "t": 254602.7092291662,
      "d": 635.8681874999893,
      "v": 122
    },
    {
      "midi": 52,
      "hit": false,
      "t": 254602.7092291662,
      "d": 902.1719583333179,
      "v": 97
    },
    {
      "midi": 80,
      "hit": false,
      "t": 254727.7089583329,
      "d": 510.8684583333088,
      "v": 80
    },
    {
      "midi": 83,
      "hit": false,
      "t": 255379.88145833288,
      "d": 510.8684583333088,
      "v": 81
    },
    {
      "midi": 64,
      "hit": false,
      "t": 255385.3162291662,
      "d": 135.86927083332557,
      "v": 83
    },
    {
      "midi": 80,
      "hit": false,
      "t": 255385.3162291662,
      "d": 527.1727708333055,
      "v": 65
    },
    {
      "midi": 76,
      "hit": false,
      "t": 255907.05422916618,
      "d": 130.43450000000303,
      "v": 70
    },
    {
      "midi": 83,
      "hit": false,
      "t": 256162.48845833287,
      "d": 114.13018750000629,
      "v": 86
    },
    {
      "midi": 64,
      "hit": false,
      "t": 256423.35745833287,
      "d": 124.99972916668048,
      "v": 94
    },
    {
      "midi": 71,
      "hit": false,
      "t": 256684.22645833288,
      "d": 124.99972916665138,
      "v": 113
    },
    {
      "midi": 57,
      "hit": false,
      "t": 256684.22645833288,
      "d": 782.6069999999891,
      "v": 104
    },
    {
      "midi": 69,
      "hit": false,
      "t": 256684.22645833288,
      "d": 902.1719583333179,
      "v": 101
    },
    {
      "midi": 76,
      "hit": false,
      "t": 256689.6612291662,
      "d": 896.7371874999953,
      "v": 127
    },
    {
      "midi": 73,
      "hit": false,
      "t": 256809.22618749953,
      "d": 777.1722291666665,
      "v": 80
    },
    {
      "midi": 64,
      "hit": false,
      "t": 257472.2682291662,
      "d": 114.13018750000629,
      "v": 97
    },
    {
      "midi": 64,
      "hit": false,
      "t": 257994.0062291662,
      "d": 124.99972916668048,
      "v": 83
    },
    {
      "midi": 57,
      "hit": false,
      "t": 258260.30999999956,
      "d": 391.30349999998,
      "v": 104
    },
    {
      "midi": 74,
      "hit": false,
      "t": 258260.30999999956,
      "d": 391.30349999998,
      "v": 127
    },
    {
      "midi": 78,
      "hit": false,
      "t": 258260.30999999956,
      "d": 391.30349999998,
      "v": 110
    },
    {
      "midi": 69,
      "hit": false,
      "t": 258260.30999999956,
      "d": 402.17304166665417,
      "v": 127
    },
    {
      "midi": 73,
      "hit": false,
      "t": 258776.61322916622,
      "d": 1711.952812500007,
      "v": 95
    },
    {
      "midi": 57,
      "hit": false,
      "t": 258776.61322916622,
      "d": 1809.7786875000165,
      "v": 101
    },
    {
      "midi": 69,
      "hit": false,
      "t": 258776.61322916622,
      "d": 1809.7786875000165,
      "v": 75
    },
    {
      "midi": 76,
      "hit": false,
      "t": 258776.61322916622,
      "d": 1809.7786875000165,
      "v": 113
    },
    {
      "midi": 76,
      "hit": false,
      "t": 260868.99999999956,
      "d": 130.43450000000303,
      "v": 127
    },
    {
      "midi": 81,
      "hit": false,
      "t": 260868.99999999956,
      "d": 635.8681875000184,
      "v": 127
    },
    {
      "midi": 62,
      "hit": false,
      "t": 260868.99999999956,
      "d": 1038.0412291667017,
      "v": 101
    },
    {
      "midi": 50,
      "hit": false,
      "t": 260868.99999999956,
      "d": 1293.475458333356,
      "v": 94
    },
    {
      "midi": 78,
      "hit": false,
      "t": 260988.5649583329,
      "d": 527.1727708333638,
      "v": 73
    },
    {
      "midi": 81,
      "hit": false,
      "t": 261640.73745833294,
      "d": 510.8684583333379,
      "v": 127
    },
    {
      "midi": 74,
      "hit": false,
      "t": 262167.9102291663,
      "d": 135.86927083332557,
      "v": 94
    },
    {
      "midi": 81,
      "hit": false,
      "t": 262428.7792291663,
      "d": 124.99972916668048,
      "v": 108
    },
    {
      "midi": 64,
      "hit": false,
      "t": 262684.21345833293,
      "d": 124.99972916668048,
      "v": 66
    },
    {
      "midi": 78,
      "hit": false,
      "t": 262945.08245833294,
      "d": 130.43450000003213,
      "v": 110
    },
    {
      "midi": 64,
      "hit": false,
      "t": 262950.5172291663,
      "d": 635.8681874999893,
      "v": 108
    },
    {
      "midi": 83,
      "hit": false,
      "t": 262950.5172291663,
      "d": 635.8681874999893,
      "v": 122
    },
    {
      "midi": 52,
      "hit": false,
      "t": 262950.5172291663,
      "d": 902.171958333347,
      "v": 97
    },
    {
      "midi": 80,
      "hit": false,
      "t": 263075.51695833297,
      "d": 510.8684583333088,
      "v": 80
    },
    {
      "midi": 83,
      "hit": false,
      "t": 263727.68945833296,
      "d": 510.868458333367,
      "v": 81
    },
    {
      "midi": 64,
      "hit": false,
      "t": 263733.1242291663,
      "d": 135.86927083332557,
      "v": 83
    },
    {
      "midi": 80,
      "hit": false,
      "t": 263733.1242291663,
      "d": 527.1727708333638,
      "v": 65
    },
    {
      "midi": 76,
      "hit": false,
      "t": 264254.8622291663,
      "d": 130.43450000003213,
      "v": 70
    },
    {
      "midi": 83,
      "hit": false,
      "t": 264510.29645833303,
      "d": 114.13018749997718,
      "v": 86
    },
    {
      "midi": 64,
      "hit": false,
      "t": 264771.16545833304,
      "d": 124.99972916668048,
      "v": 94
    },
    {
      "midi": 71,
      "hit": false,
      "t": 265032.03445833304,
      "d": 124.99972916668048,
      "v": 113
    },
    {
      "midi": 57,
      "hit": false,
      "t": 265032.03445833304,
      "d": 782.6070000000182,
      "v": 104
    },
    {
      "midi": 69,
      "hit": false,
      "t": 265032.03445833304,
      "d": 902.171958333347,
      "v": 101
    },
    {
      "midi": 76,
      "hit": false,
      "t": 265037.4692291664,
      "d": 896.7371874999953,
      "v": 127
    },
    {
      "midi": 73,
      "hit": false,
      "t": 265157.0341874997,
      "d": 777.1722291666665,
      "v": 80
    },
    {
      "midi": 64,
      "hit": false,
      "t": 265820.0762291664,
      "d": 114.13018749997718,
      "v": 97
    },
    {
      "midi": 64,
      "hit": false,
      "t": 266341.81422916637,
      "d": 124.99972916668048,
      "v": 83
    },
    {
      "midi": 57,
      "hit": false,
      "t": 266608.1179999997,
      "d": 391.3035000000382,
      "v": 104
    },
    {
      "midi": 74,
      "hit": false,
      "t": 266608.1179999997,
      "d": 391.3035000000382,
      "v": 127
    },
    {
      "midi": 78,
      "hit": false,
      "t": 266608.1179999997,
      "d": 391.3035000000382,
      "v": 110
    },
    {
      "midi": 69,
      "hit": false,
      "t": 266608.1179999997,
      "d": 402.1730416666833,
      "v": 127
    },
    {
      "midi": 73,
      "hit": false,
      "t": 267124.4212291664,
      "d": 1711.952812500007,
      "v": 95
    },
    {
      "midi": 57,
      "hit": false,
      "t": 267124.4212291664,
      "d": 1809.7786874999874,
      "v": 101
    },
    {
      "midi": 69,
      "hit": false,
      "t": 267124.4212291664,
      "d": 1809.7786874999874,
      "v": 75
    },
    {
      "midi": 76,
      "hit": false,
      "t": 267124.4212291664,
      "d": 1809.7786874999874,
      "v": 113
    },
    {
      "midi": 62,
      "hit": false,
      "t": 269216.8079999997,
      "d": 510.868458333367,
      "v": 127
    },
    {
      "midi": 81,
      "hit": false,
      "t": 269216.8079999997,
      "d": 733.6940625000279,
      "v": 127
    },
    {
      "midi": 78,
      "hit": false,
      "t": 269216.8079999997,
      "d": 749.9983750000247,
      "v": 127
    },
    {
      "midi": 74,
      "hit": false,
      "t": 269216.8079999997,
      "d": 766.3026875000214,
      "v": 127
    },
    {
      "midi": 62,
      "hit": false,
      "t": 269993.9802291664,
      "d": 271.73854166665114,
      "v": 127
    },
    {
      "midi": 78,
      "hit": false,
      "t": 270265.71877083305,
      "d": 499.9989166666637,
      "v": 100
    },
    {
      "midi": 81,
      "hit": false,
      "t": 270265.71877083305,
      "d": 532.6075416666572,
      "v": 104
    },
    {
      "midi": 74,
      "hit": false,
      "t": 270265.71877083305,
      "d": 570.6509375000023,
      "v": 113
    },
    {
      "midi": 62,
      "hit": false,
      "t": 270771.15245833306,
      "d": 97.82587499998044,
      "v": 91
    },
    {
      "midi": 62,
      "hit": false,
      "t": 271032.02145833307,
      "d": 163.0431250000256,
      "v": 108
    },
    {
      "midi": 71,
      "hit": false,
      "t": 271292.8904583331,
      "d": 798.9113124999567,
      "v": 122
    },
    {
      "midi": 76,
      "hit": false,
      "t": 271292.8904583331,
      "d": 831.5199374999502,
      "v": 127
    },
    {
      "midi": 64,
      "hit": false,
      "t": 271298.3252291664,
      "d": 472.8250624999637,
      "v": 127
    },
    {
      "midi": 80,
      "hit": false,
      "t": 271298.3252291664,
      "d": 804.3460833332501,
      "v": 104
    },
    {
      "midi": 64,
      "hit": false,
      "t": 272075.49745833303,
      "d": 364.12964583333815,
      "v": 122
    },
    {
      "midi": 80,
      "hit": false,
      "t": 272347.2359999997,
      "d": 494.5641458333703,
      "v": 110
    },
    {
      "midi": 76,
      "hit": false,
      "t": 272347.2359999997,
      "d": 499.9989166667219,
      "v": 127
    },
    {
      "midi": 71,
      "hit": false,
      "t": 272347.2359999997,
      "d": 516.3032291667187,
      "v": 127
    },
    {
      "midi": 64,
      "hit": false,
      "t": 272874.40877083305,
      "d": 141.30404166667722,
      "v": 101
    },
    {
      "midi": 69,
      "hit": false,
      "t": 273124.4082291664,
      "d": 76.08679166669026,
      "v": 83
    },
    {
      "midi": 62,
      "hit": false,
      "t": 273385.2772291664,
      "d": 451.0859791666735,
      "v": 127
    },
    {
      "midi": 69,
      "hit": false,
      "t": 273390.71199999977,
      "d": 184.7822083333158,
      "v": 127
    },
    {
      "midi": 78,
      "hit": false,
      "t": 273390.71199999977,
      "d": 298.9123958333512,
      "v": 127
    },
    {
      "midi": 74,
      "hit": false,
      "t": 273390.71199999977,
      "d": 309.7819374999963,
      "v": 127
    },
    {
      "midi": 69,
      "hit": false,
      "t": 273651.5809999998,
      "d": 358.6948749999283,
      "v": 86
    },
    {
      "midi": 78,
      "hit": false,
      "t": 273901.5804583331,
      "d": 81.5215624999837,
      "v": 71
    },
    {
      "midi": 74,
      "hit": false,
      "t": 273901.5804583331,
      "d": 114.13018749997718,
      "v": 88
    },
    {
      "midi": 69,
      "hit": false,
      "t": 274162.449458333,
      "d": 255.4342291666544,
      "v": 127
    },
    {
      "midi": 61,
      "hit": false,
      "t": 274162.449458333,
      "d": 277.1733125000028,
      "v": 110
    },
    {
      "midi": 76,
      "hit": false,
      "t": 274167.8842291664,
      "d": 374.99918749998324,
      "v": 127
    },
    {
      "midi": 73,
      "hit": false,
      "t": 274167.8842291664,
      "d": 385.8687291666283,
      "v": 110
    },
    {
      "midi": 69,
      "hit": false,
      "t": 274684.187458333,
      "d": 97.82587499998044,
      "v": 91
    },
    {
      "midi": 59,
      "hit": false,
      "t": 274950.4912291663,
      "d": 4510.859791666735,
      "v": 127
    },
    {
      "midi": 74,
      "hit": false,
      "t": 274955.9259999996,
      "d": 4489.120708333328,
      "v": 127
    },
    {
      "midi": 78,
      "hit": false,
      "t": 274955.9259999996,
      "d": 4494.55547916668,
      "v": 100
    },
    {
      "midi": 71,
      "hit": false,
      "t": 274955.9259999996,
      "d": 4499.990250000032,
      "v": 127
    }
  ]
}