{
  "jsonPath": "Rock/Blues Rock/Beth Hart/learning-to-live-bonus-track.json",
  "path": "Rock\\Blues Rock\\Beth Hart\\Learning to Live (Bonus Track).mid",
  "name": "Learning to Live (Bonus Track)",
  "difficulty": "Intermediate",
  "bpm": 69.00009660013524,
  "notes": [
    {
      "midi": 82,
      "hit": false,
      "t": 13478.242000000002,
      "d": 217.39099999999962,
      "v": 127
    },
    {
      "midi": 85,
      "hit": false,
      "t": 13695.633000000002,
      "d": 217.39099999999962,
      "v": 127
    },
    {
      "midi": 80,
      "hit": false,
      "t": 13905.777633333335,
      "d": 86.95640000000094,
      "v": 112
    },
    {
      "midi": 82,
      "hit": false,
      "t": 13934.763100000002,
      "d": 268.1155666666673,
      "v": 127
    },
    {
      "midi": 80,
      "hit": false,
      "t": 14130.415000000003,
      "d": 217.39099999999962,
      "v": 127
    },
    {
      "midi": 78,
      "hit": false,
      "t": 14347.806000000002,
      "d": 1956.5190000000002,
      "v": 127
    },
    {
      "midi": 71,
      "hit": false,
      "t": 27826.048000000006,
      "d": 217.39099999999962,
      "v": 105
    },
    {
      "midi": 75,
      "hit": false,
      "t": 27826.048000000006,
      "d": 217.39099999999962,
      "v": 127
    },
    {
      "midi": 78,
      "hit": false,
      "t": 27826.048000000006,
      "d": 217.39099999999962,
      "v": 127
    },
    {
      "midi": 83,
      "hit": false,
      "t": 27826.048000000006,
      "d": 217.39099999999962,
      "v": 74
    },
    {
      "midi": 59,
      "hit": false,
      "t": 30869.522000000004,
      "d": 434.78199999999924,
      "v": 127
    },
    {
      "midi": 54,
      "hit": false,
      "t": 30869.522000000004,
      "d": 2391.3009999999995,
      "v": 127
    },
    {
      "midi": 58,
      "hit": false,
      "t": 31304.304000000004,
      "d": 1956.5190000000002,
      "v": 127
    },
    {
      "midi": 66,
      "hit": false,
      "t": 33912.99600000001,
      "d": 217.39100000000326,
      "v": 127
    },
    {
      "midi": 65,
      "hit": false,
      "t": 34130.38700000001,
      "d": 217.39100000000326,
      "v": 90
    },
    {
      "midi": 66,
      "hit": false,
      "t": 34347.77800000001,
      "d": 217.39100000000326,
      "v": 112
    },
    {
      "midi": 61,
      "hit": false,
      "t": 34782.56000000002,
      "d": 217.39099999999598,
      "v": 52
    },
    {
      "midi": 65,
      "hit": false,
      "t": 34782.56000000002,
      "d": 217.39099999999598,
      "v": 127
    },
    {
      "midi": 68,
      "hit": false,
      "t": 34782.56000000002,
      "d": 217.39099999999598,
      "v": 127
    },
    {
      "midi": 73,
      "hit": false,
      "t": 34782.56000000002,
      "d": 217.39099999999598,
      "v": 18
    },
    {
      "midi": 59,
      "hit": false,
      "t": 38260.81600000001,
      "d": 217.39100000000326,
      "v": 83
    },
    {
      "midi": 63,
      "hit": false,
      "t": 38478.20700000002,
      "d": 217.39100000000326,
      "v": 55
    },
    {
      "midi": 66,
      "hit": false,
      "t": 38695.59800000002,
      "d": 217.39100000000326,
      "v": 90
    },
    {
      "midi": 71,
      "hit": false,
      "t": 38912.98900000002,
      "d": 217.39100000000326,
      "v": 66
    },
    {
      "midi": 66,
      "hit": false,
      "t": 72391.20300000002,
      "d": 217.39100000000326,
      "v": 127
    },
    {
      "midi": 68,
      "hit": false,
      "t": 72608.59400000003,
      "d": 217.39100000000326,
      "v": 127
    },
    {
      "midi": 73,
      "hit": false,
      "t": 72608.59400000003,
      "d": 217.39100000000326,
      "v": 127
    },
    {
      "midi": 68,
      "hit": false,
      "t": 73043.37600000002,
      "d": 217.39100000000326,
      "v": 127
    },
    {
      "midi": 66,
      "hit": false,
      "t": 73043.37600000002,
      "d": 434.7820000000065,
      "v": 127
    },
    {
      "midi": 70,
      "hit": false,
      "t": 73260.76700000002,
      "d": 217.39100000000326,
      "v": 127
    },
    {
      "midi": 61,
      "hit": false,
      "t": 76521.63200000003,
      "d": 217.39100000000326,
      "v": 127
    },
    {
      "midi": 65,
      "hit": false,
      "t": 76521.63200000003,
      "d": 217.39100000000326,
      "v": 127
    },
    {
      "midi": 68,
      "hit": false,
      "t": 76521.63200000003,
      "d": 217.39100000000326,
      "v": 127
    },
    {
      "midi": 73,
      "hit": false,
      "t": 76521.63200000003,
      "d": 217.39100000000326,
      "v": 86
    },
    {
      "midi": 73,
      "hit": false,
      "t": 78260.76000000002,
      "d": 217.39100000000326,
      "v": 127
    },
    {
      "midi": 75,
      "hit": false,
      "t": 78912.93300000003,
      "d": 217.39100000000326,
      "v": 127
    },
    {
      "midi": 77,
      "hit": false,
      "t": 79565.10600000004,
      "d": 217.39100000000326,
      "v": 127
    },
    {
      "midi": 63,
      "hit": false,
      "t": 80014.38073333338,
      "d": 86.95640000001004,
      "v": 127
    },
    {
      "midi": 71,
      "hit": false,
      "t": 80014.38073333338,
      "d": 86.95640000001004,
      "v": 58
    },
    {
      "midi": 66,
      "hit": false,
      "t": 80021.62710000006,
      "d": 72.4636666666629,
      "v": 127
    },
    {
      "midi": 59,
      "hit": false,
      "t": 80021.62710000006,
      "d": 86.95640000001004,
      "v": 127
    },
    {
      "midi": 66,
      "hit": false,
      "t": 88695.52800000008,
      "d": 217.39100000000326,
      "v": 69
    },
    {
      "midi": 70,
      "hit": false,
      "t": 88695.52800000008,
      "d": 217.39100000000326,
      "v": 127
    },
    {
      "midi": 73,
      "hit": false,
      "t": 88695.52800000008,
      "d": 217.39100000000326,
      "v": 127
    },
    {
      "midi": 73,
      "hit": false,
      "t": 89347.70100000009,
      "d": 217.39100000000326,
      "v": 86
    },
    {
      "midi": 78,
      "hit": false,
      "t": 89347.70100000009,
      "d": 217.39100000000326,
      "v": 119
    },
    {
      "midi": 82,
      "hit": false,
      "t": 89347.70100000009,
      "d": 217.39100000000326,
      "v": 127
    },
    {
      "midi": 77,
      "hit": false,
      "t": 89999.8740000001,
      "d": 217.39100000000326,
      "v": 90
    },
    {
      "midi": 80,
      "hit": false,
      "t": 89999.8740000001,
      "d": 217.39100000000326,
      "v": 119
    },
    {
      "midi": 73,
      "hit": false,
      "t": 90434.6560000001,
      "d": 217.39100000000326,
      "v": 90
    },
    {
      "midi": 77,
      "hit": false,
      "t": 90434.6560000001,
      "d": 217.39100000000326,
      "v": 112
    },
    {
      "midi": 80,
      "hit": false,
      "t": 90434.6560000001,
      "d": 217.39100000000326,
      "v": 127
    },
    {
      "midi": 71,
      "hit": false,
      "t": 97188.26973333344,
      "d": 166.66643333333195,
      "v": 127
    },
    {
      "midi": 75,
      "hit": false,
      "t": 97304.2116000001,
      "d": 144.92733333334036,
      "v": 127
    },
    {
      "midi": 78,
      "hit": false,
      "t": 97369.4289000001,
      "d": 144.92733333334036,
      "v": 34
    },
    {
      "midi": 83,
      "hit": false,
      "t": 97456.38530000011,
      "d": 202.89826666667068,
      "v": 127
    },
    {
      "midi": 59,
      "hit": false,
      "t": 166564.98420000004,
      "d": 340.5792333333229,
      "v": 127
    },
    {
      "midi": 63,
      "hit": false,
      "t": 166572.2305666667,
      "d": 326.0865000000049,
      "v": 127
    },
    {
      "midi": 54,
      "hit": false,
      "t": 166572.2305666667,
      "d": 347.82560000001104,
      "v": 127
    },
    {
      "midi": 54,
      "hit": false,
      "t": 166970.78073333338,
      "d": 275.3619333333336,
      "v": 127
    },
    {
      "midi": 61,
      "hit": false,
      "t": 166978.02710000004,
      "d": 282.6083000000217,
      "v": 127
    },
    {
      "midi": 58,
      "hit": false,
      "t": 166978.02710000004,
      "d": 289.8546666666807,
      "v": 127
    },
    {
      "midi": 61,
      "hit": false,
      "t": 170434.54400000005,
      "d": 217.39100000000326,
      "v": 67
    },
    {
      "midi": 65,
      "hit": false,
      "t": 170434.54400000005,
      "d": 217.39100000000326,
      "v": 105
    },
    {
      "midi": 68,
      "hit": false,
      "t": 170434.54400000005,
      "d": 217.39100000000326,
      "v": 105
    },
    {
      "midi": 61,
      "hit": false,
      "t": 171304.10800000007,
      "d": 217.39100000000326,
      "v": 34
    },
    {
      "midi": 65,
      "hit": false,
      "t": 171304.10800000007,
      "d": 217.39100000000326,
      "v": 56
    },
    {
      "midi": 68,
      "hit": false,
      "t": 171304.10800000007,
      "d": 217.39100000000326,
      "v": 69
    },
    {
      "midi": 73,
      "hit": false,
      "t": 171304.10800000007,
      "d": 217.39100000000326,
      "v": 86
    },
    {
      "midi": 73,
      "hit": false,
      "t": 172173.67200000008,
      "d": 217.39100000000326,
      "v": 33
    },
    {
      "midi": 77,
      "hit": false,
      "t": 172173.67200000008,
      "d": 217.39100000000326,
      "v": 49
    },
    {
      "midi": 61,
      "hit": false,
      "t": 173478.01800000007,
      "d": 217.39100000000326,
      "v": 77
    },
    {
      "midi": 65,
      "hit": false,
      "t": 173478.01800000007,
      "d": 217.39100000000326,
      "v": 127
    },
    {
      "midi": 68,
      "hit": false,
      "t": 173478.01800000007,
      "d": 217.39100000000326,
      "v": 127
    },
    {
      "midi": 59,
      "hit": false,
      "t": 173912.80000000008,
      "d": 217.39100000000326,
      "v": 90
    },
    {
      "midi": 63,
      "hit": false,
      "t": 173912.80000000008,
      "d": 217.39100000000326,
      "v": 112
    },
    {
      "midi": 66,
      "hit": false,
      "t": 173912.80000000008,
      "d": 217.39100000000326,
      "v": 99
    },
    {
      "midi": 71,
      "hit": false,
      "t": 174782.3640000001,
      "d": 217.39100000000326,
      "v": 119
    },
    {
      "midi": 75,
      "hit": false,
      "t": 175434.5370000001,
      "d": 217.39100000000326,
      "v": 127
    },
    {
      "midi": 78,
      "hit": false,
      "t": 176086.7100000001,
      "d": 217.39100000000326,
      "v": 127
    },
    {
      "midi": 83,
      "hit": false,
      "t": 176738.88300000012,
      "d": 217.39100000000326,
      "v": 105
    },
    {
      "midi": 87,
      "hit": false,
      "t": 177391.05600000013,
      "d": 217.39100000000326,
      "v": 127
    },
    {
      "midi": 85,
      "hit": false,
      "t": 179130.18400000012,
      "d": 217.39100000000326,
      "v": 127
    },
    {
      "midi": 87,
      "hit": false,
      "t": 179782.35700000013,
      "d": 217.39100000000326,
      "v": 127
    },
    {
      "midi": 83,
      "hit": false,
      "t": 180434.53000000014,
      "d": 217.39100000000326,
      "v": 127
    },
    {
      "midi": 54,
      "hit": false,
      "t": 180434.53000000014,
      "d": 434.7820000000065,
      "v": 105
    },
    {
      "midi": 59,
      "hit": false,
      "t": 180434.53000000014,
      "d": 434.7820000000065,
      "v": 127
    },
    {
      "midi": 63,
      "hit": false,
      "t": 180434.53000000014,
      "d": 434.7820000000065,
      "v": 127
    },
    {
      "midi": 54,
      "hit": false,
      "t": 180869.31200000015,
      "d": 217.39100000000326,
      "v": 46
    },
    {
      "midi": 58,
      "hit": false,
      "t": 180869.31200000015,
      "d": 217.39100000000326,
      "v": 127
    },
    {
      "midi": 61,
      "hit": false,
      "t": 180869.31200000015,
      "d": 217.39100000000326,
      "v": 127
    },
    {
      "midi": 54,
      "hit": false,
      "t": 183043.22200000015,
      "d": 217.39100000000326,
      "v": 112
    },
    {
      "midi": 58,
      "hit": false,
      "t": 183478.00400000016,
      "d": 217.39100000000326,
      "v": 112
    },
    {
      "midi": 61,
      "hit": false,
      "t": 184347.56800000017,
      "d": 217.39100000000326,
      "v": 94
    },
    {
      "midi": 65,
      "hit": false,
      "t": 184347.56800000017,
      "d": 217.39100000000326,
      "v": 99
    },
    {
      "midi": 68,
      "hit": false,
      "t": 185217.1320000002,
      "d": 217.39100000000326,
      "v": 105
    },
    {
      "midi": 73,
      "hit": false,
      "t": 186086.6960000002,
      "d": 217.39100000000326,
      "v": 83
    },
    {
      "midi": 71,
      "hit": false,
      "t": 186521.4780000002,
      "d": 217.39100000000326,
      "v": 90
    },
    {
      "midi": 70,
      "hit": false,
      "t": 186956.2600000002,
      "d": 217.39100000000326,
      "v": 99
    },
    {
      "midi": 68,
      "hit": false,
      "t": 187391.04200000022,
      "d": 217.39100000000326,
      "v": 94
    },
    {
      "midi": 59,
      "hit": false,
      "t": 187825.8240000002,
      "d": 217.39100000000326,
      "v": 99
    },
    {
      "midi": 63,
      "hit": false,
      "t": 187825.8240000002,
      "d": 217.39100000000326,
      "v": 94
    },
    {
      "midi": 66,
      "hit": false,
      "t": 187825.8240000002,
      "d": 217.39100000000326,
      "v": 99
    },
    {
      "midi": 75,
      "hit": false,
      "t": 189564.9520000002,
      "d": 217.39100000000326,
      "v": 119
    },
    {
      "midi": 73,
      "hit": false,
      "t": 189782.3430000002,
      "d": 217.39100000000326,
      "v": 90
    },
    {
      "midi": 71,
      "hit": false,
      "t": 189999.7340000002,
      "d": 217.39100000000326,
      "v": 69
    },
    {
      "midi": 75,
      "hit": false,
      "t": 190217.1250000002,
      "d": 217.39100000000326,
      "v": 119
    },
    {
      "midi": 78,
      "hit": false,
      "t": 192173.6440000002,
      "d": 217.39100000000326,
      "v": 127
    },
    {
      "midi": 83,
      "hit": false,
      "t": 193043.20800000022,
      "d": 217.39100000000326,
      "v": 112
    }
  ]
}