{
  "jsonPath": "Electronic/Moog/The Moog Cookbook/sweet-home-alabama-album-version.json",
  "path": "Electronic\\Moog\\The Moog Cookbook\\Sweet Home Alabama (Album Version).mid",
  "name": "Sweet Home Alabama (Album Version)",
  "difficulty": "Advanced",
  "bpm": 105.000105000105,
  "notes": [
    {
      "midi": 57,
      "hit": false,
      "t": 11428.560000000001,
      "d": 1138.0940999999984,
      "v": 64
    },
    {
      "midi": 62,
      "hit": false,
      "t": 11714.274000000001,
      "d": 819.0467999999983,
      "v": 57
    },
    {
      "midi": 66,
      "hit": false,
      "t": 11999.988000000001,
      "d": 490.47569999999905,
      "v": 38
    },
    {
      "midi": 69,
      "hit": false,
      "t": 12285.702000000001,
      "d": 204.7616999999991,
      "v": 40
    },
    {
      "midi": 55,
      "hit": false,
      "t": 12571.416,
      "d": 519.0470999999998,
      "v": 70
    },
    {
      "midi": 67,
      "hit": false,
      "t": 12571.416,
      "d": 1133.3322000000007,
      "v": 63
    },
    {
      "midi": 64,
      "hit": false,
      "t": 12571.416,
      "d": 1142.8560000000016,
      "v": 74
    },
    {
      "midi": 55,
      "hit": false,
      "t": 13142.844,
      "d": 571.4280000000017,
      "v": 68
    },
    {
      "midi": 60,
      "hit": false,
      "t": 13428.557999999999,
      "d": 247.6188000000002,
      "v": 70
    },
    {
      "midi": 59,
      "hit": false,
      "t": 13999.986,
      "d": 1490.4747000000007,
      "v": 70
    },
    {
      "midi": 62,
      "hit": false,
      "t": 14285.7,
      "d": 1204.7607000000007,
      "v": 80
    },
    {
      "midi": 67,
      "hit": false,
      "t": 14571.414,
      "d": 919.0467000000008,
      "v": 89
    },
    {
      "midi": 57,
      "hit": false,
      "t": 16285.698000000002,
      "d": 147.61889999999948,
      "v": 76
    },
    {
      "midi": 62,
      "hit": false,
      "t": 16285.698000000002,
      "d": 147.61889999999948,
      "v": 76
    },
    {
      "midi": 66,
      "hit": false,
      "t": 16285.698000000002,
      "d": 147.61889999999948,
      "v": 76
    },
    {
      "midi": 55,
      "hit": false,
      "t": 17142.84,
      "d": 1085.7131999999983,
      "v": 57
    },
    {
      "midi": 60,
      "hit": false,
      "t": 17142.84,
      "d": 1119.0464999999967,
      "v": 60
    },
    {
      "midi": 67,
      "hit": false,
      "t": 17142.84,
      "d": 1119.0464999999967,
      "v": 72
    },
    {
      "midi": 48,
      "hit": false,
      "t": 17142.84,
      "d": 1142.8559999999961,
      "v": 45
    },
    {
      "midi": 59,
      "hit": false,
      "t": 18571.409999999996,
      "d": 699.9992999999995,
      "v": 57
    },
    {
      "midi": 67,
      "hit": false,
      "t": 18857.123999999996,
      "d": 423.8090999999986,
      "v": 85
    },
    {
      "midi": 55,
      "hit": false,
      "t": 19428.551999999996,
      "d": 190.47599999999875,
      "v": 68
    },
    {
      "midi": 60,
      "hit": false,
      "t": 19428.551999999996,
      "d": 190.47599999999875,
      "v": 68
    },
    {
      "midi": 64,
      "hit": false,
      "t": 19428.551999999996,
      "d": 190.47599999999875,
      "v": 68
    },
    {
      "midi": 55,
      "hit": false,
      "t": 19714.265999999996,
      "d": 723.8087999999989,
      "v": 82
    },
    {
      "midi": 59,
      "hit": false,
      "t": 19714.265999999996,
      "d": 723.8087999999989,
      "v": 82
    },
    {
      "midi": 62,
      "hit": false,
      "t": 19714.265999999996,
      "d": 723.8087999999989,
      "v": 82
    },
    {
      "midi": 57,
      "hit": false,
      "t": 20571.407999999996,
      "d": 1085.7131999999983,
      "v": 57
    },
    {
      "midi": 62,
      "hit": false,
      "t": 20571.407999999996,
      "d": 1119.0464999999967,
      "v": 60
    },
    {
      "midi": 69,
      "hit": false,
      "t": 20571.407999999996,
      "d": 1119.0464999999967,
      "v": 72
    },
    {
      "midi": 50,
      "hit": false,
      "t": 20571.407999999996,
      "d": 1142.8559999999961,
      "v": 45
    },
    {
      "midi": 55,
      "hit": false,
      "t": 21714.263999999992,
      "d": 519.0470999999998,
      "v": 70
    },
    {
      "midi": 67,
      "hit": false,
      "t": 21714.263999999992,
      "d": 1133.3322000000007,
      "v": 63
    },
    {
      "midi": 64,
      "hit": false,
      "t": 21714.263999999992,
      "d": 1142.8559999999998,
      "v": 74
    },
    {
      "midi": 55,
      "hit": false,
      "t": 22285.691999999992,
      "d": 571.4279999999999,
      "v": 68
    },
    {
      "midi": 60,
      "hit": false,
      "t": 22571.40599999999,
      "d": 247.6188000000002,
      "v": 70
    },
    {
      "midi": 59,
      "hit": false,
      "t": 22857.11999999999,
      "d": 1299.9987,
      "v": 68
    },
    {
      "midi": 62,
      "hit": false,
      "t": 22857.11999999999,
      "d": 1371.427200000002,
      "v": 66
    },
    {
      "midi": 67,
      "hit": false,
      "t": 22857.11999999999,
      "d": 1476.1890000000021,
      "v": 80
    },
    {
      "midi": 71,
      "hit": false,
      "t": 22857.11999999999,
      "d": 1980.9504000000015,
      "v": 76
    },
    {
      "midi": 59,
      "hit": false,
      "t": 24285.689999999995,
      "d": 323.8091999999997,
      "v": 80
    },
    {
      "midi": 62,
      "hit": false,
      "t": 24571.403999999995,
      "d": 161.90459999999803,
      "v": 98
    },
    {
      "midi": 57,
      "hit": false,
      "t": 25142.831999999995,
      "d": 1085.7131999999983,
      "v": 57
    },
    {
      "midi": 62,
      "hit": false,
      "t": 25142.831999999995,
      "d": 1119.0464999999967,
      "v": 60
    },
    {
      "midi": 69,
      "hit": false,
      "t": 25142.831999999995,
      "d": 1119.0464999999967,
      "v": 72
    },
    {
      "midi": 50,
      "hit": false,
      "t": 25142.831999999995,
      "d": 1142.8559999999961,
      "v": 45
    },
    {
      "midi": 55,
      "hit": false,
      "t": 26285.68799999999,
      "d": 1138.0940999999984,
      "v": 64
    },
    {
      "midi": 60,
      "hit": false,
      "t": 26571.40199999999,
      "d": 819.0468000000001,
      "v": 57
    },
    {
      "midi": 64,
      "hit": false,
      "t": 26857.11599999999,
      "d": 490.47569999999905,
      "v": 38
    },
    {
      "midi": 67,
      "hit": false,
      "t": 27142.82999999999,
      "d": 204.7616999999991,
      "v": 40
    },
    {
      "midi": 55,
      "hit": false,
      "t": 27999.97199999999,
      "d": 366.6663000000008,
      "v": 66
    },
    {
      "midi": 59,
      "hit": false,
      "t": 27999.97199999999,
      "d": 366.6663000000008,
      "v": 66
    },
    {
      "midi": 62,
      "hit": false,
      "t": 27999.97199999999,
      "d": 366.6663000000008,
      "v": 66
    },
    {
      "midi": 55,
      "hit": false,
      "t": 28571.39999999999,
      "d": 195.23790000000008,
      "v": 85
    },
    {
      "midi": 60,
      "hit": false,
      "t": 28571.39999999999,
      "d": 195.23790000000008,
      "v": 85
    },
    {
      "midi": 64,
      "hit": false,
      "t": 28571.39999999999,
      "d": 195.23790000000008,
      "v": 85
    },
    {
      "midi": 55,
      "hit": false,
      "t": 28857.11399999999,
      "d": 114.28559999999925,
      "v": 80
    },
    {
      "midi": 59,
      "hit": false,
      "t": 28857.11399999999,
      "d": 114.28559999999925,
      "v": 80
    },
    {
      "midi": 62,
      "hit": false,
      "t": 28857.11399999999,
      "d": 114.28559999999925,
      "v": 80
    },
    {
      "midi": 57,
      "hit": false,
      "t": 29999.96999999999,
      "d": 147.6189000000013,
      "v": 76
    },
    {
      "midi": 62,
      "hit": false,
      "t": 29999.96999999999,
      "d": 147.6189000000013,
      "v": 76
    },
    {
      "midi": 66,
      "hit": false,
      "t": 29999.96999999999,
      "d": 147.6189000000013,
      "v": 76
    },
    {
      "midi": 55,
      "hit": false,
      "t": 30857.11199999999,
      "d": 1138.0940999999984,
      "v": 64
    },
    {
      "midi": 60,
      "hit": false,
      "t": 31142.82599999999,
      "d": 819.0468000000001,
      "v": 57
    },
    {
      "midi": 64,
      "hit": false,
      "t": 31428.53999999999,
      "d": 490.47569999999905,
      "v": 38
    },
    {
      "midi": 67,
      "hit": false,
      "t": 31714.25399999999,
      "d": 204.7616999999991,
      "v": 40
    },
    {
      "midi": 59,
      "hit": false,
      "t": 31999.96799999999,
      "d": 1114.2846000000027,
      "v": 63
    },
    {
      "midi": 62,
      "hit": false,
      "t": 31999.96799999999,
      "d": 1209.5226000000002,
      "v": 63
    },
    {
      "midi": 67,
      "hit": false,
      "t": 31999.96799999999,
      "d": 1219.046400000003,
      "v": 72
    },
    {
      "midi": 71,
      "hit": false,
      "t": 31999.96799999999,
      "d": 1557.1413000000066,
      "v": 72
    },
    {
      "midi": 43,
      "hit": false,
      "t": 31999.96799999999,
      "d": 2133.331200000004,
      "v": 68
    },
    {
      "midi": 62,
      "hit": false,
      "t": 33428.53799999999,
      "d": 85.71420000000217,
      "v": 58
    },
    {
      "midi": 67,
      "hit": false,
      "t": 33428.53799999999,
      "d": 90.47609999999986,
      "v": 72
    },
    {
      "midi": 62,
      "hit": false,
      "t": 33714.25199999999,
      "d": 85.71420000000217,
      "v": 82
    },
    {
      "midi": 67,
      "hit": false,
      "t": 33714.25199999999,
      "d": 95.23800000000483,
      "v": 80
    },
    {
      "midi": 71,
      "hit": false,
      "t": 33714.25199999999,
      "d": 176.19030000000203,
      "v": 62
    },
    {
      "midi": 62,
      "hit": false,
      "t": 33999.96599999999,
      "d": 80.9522999999972,
      "v": 68
    },
    {
      "midi": 67,
      "hit": false,
      "t": 33999.96599999999,
      "d": 95.23799999999756,
      "v": 70
    },
    {
      "midi": 71,
      "hit": false,
      "t": 33999.96599999999,
      "d": 104.76180000000022,
      "v": 61
    },
    {
      "midi": 57,
      "hit": false,
      "t": 34285.67999999999,
      "d": 519.0471000000034,
      "v": 70
    },
    {
      "midi": 69,
      "hit": false,
      "t": 34285.67999999999,
      "d": 1133.332199999997,
      "v": 63
    },
    {
      "midi": 66,
      "hit": false,
      "t": 34285.67999999999,
      "d": 1142.8559999999998,
      "v": 74
    },
    {
      "midi": 57,
      "hit": false,
      "t": 34857.10799999999,
      "d": 571.4279999999999,
      "v": 68
    },
    {
      "midi": 62,
      "hit": false,
      "t": 35142.82199999999,
      "d": 247.61879999999655,
      "v": 70
    },
    {
      "midi": 55,
      "hit": false,
      "t": 35428.53599999999,
      "d": 519.0471000000034,
      "v": 70
    },
    {
      "midi": 67,
      "hit": false,
      "t": 35428.53599999999,
      "d": 1133.332199999997,
      "v": 63
    },
    {
      "midi": 64,
      "hit": false,
      "t": 35428.53599999999,
      "d": 1142.8559999999998,
      "v": 74
    },
    {
      "midi": 55,
      "hit": false,
      "t": 35999.96399999999,
      "d": 571.4279999999999,
      "v": 68
    },
    {
      "midi": 60,
      "hit": false,
      "t": 36285.67799999999,
      "d": 247.61879999999655,
      "v": 70
    },
    {
      "midi": 59,
      "hit": false,
      "t": 36857.10599999999,
      "d": 699.9993000000031,
      "v": 57
    },
    {
      "midi": 67,
      "hit": false,
      "t": 37142.81999999999,
      "d": 423.80910000000586,
      "v": 85
    },
    {
      "midi": 55,
      "hit": false,
      "t": 37714.248,
      "d": 190.4760000000024,
      "v": 68
    },
    {
      "midi": 60,
      "hit": false,
      "t": 37714.248,
      "d": 190.4760000000024,
      "v": 68
    },
    {
      "midi": 64,
      "hit": false,
      "t": 37714.248,
      "d": 190.4760000000024,
      "v": 68
    },
    {
      "midi": 55,
      "hit": false,
      "t": 37999.962,
      "d": 723.8087999999989,
      "v": 82
    },
    {
      "midi": 59,
      "hit": false,
      "t": 37999.962,
      "d": 723.8087999999989,
      "v": 82
    },
    {
      "midi": 62,
      "hit": false,
      "t": 37999.962,
      "d": 723.8087999999989,
      "v": 82
    },
    {
      "midi": 57,
      "hit": false,
      "t": 38857.104,
      "d": 519.0471000000034,
      "v": 70
    },
    {
      "midi": 69,
      "hit": false,
      "t": 38857.104,
      "d": 1133.332199999997,
      "v": 63
    },
    {
      "midi": 66,
      "hit": false,
      "t": 38857.104,
      "d": 1142.8559999999998,
      "v": 74
    },
    {
      "midi": 57,
      "hit": false,
      "t": 39428.532,
      "d": 571.4279999999999,
      "v": 68
    },
    {
      "midi": 62,
      "hit": false,
      "t": 39714.246,
      "d": 247.61879999999655,
      "v": 70
    },
    {
      "midi": 55,
      "hit": false,
      "t": 40285.674,
      "d": 147.6189000000013,
      "v": 76
    },
    {
      "midi": 60,
      "hit": false,
      "t": 40285.674,
      "d": 147.6189000000013,
      "v": 76
    },
    {
      "midi": 64,
      "hit": false,
      "t": 40285.674,
      "d": 147.6189000000013,
      "v": 76
    },
    {
      "midi": 59,
      "hit": false,
      "t": 41142.816,
      "d": 1114.284599999999,
      "v": 63
    },
    {
      "midi": 62,
      "hit": false,
      "t": 41142.816,
      "d": 1209.5225999999966,
      "v": 63
    },
    {
      "midi": 67,
      "hit": false,
      "t": 41142.816,
      "d": 1219.0463999999993,
      "v": 72
    },
    {
      "midi": 71,
      "hit": false,
      "t": 41142.816,
      "d": 1557.141300000003,
      "v": 72
    },
    {
      "midi": 43,
      "hit": false,
      "t": 41142.816,
      "d": 2133.3312000000005,
      "v": 68
    },
    {
      "midi": 62,
      "hit": false,
      "t": 42571.386,
      "d": 85.71420000000217,
      "v": 58
    },
    {
      "midi": 67,
      "hit": false,
      "t": 42571.386,
      "d": 90.47609999999986,
      "v": 72
    },
    {
      "midi": 62,
      "hit": false,
      "t": 42857.1,
      "d": 85.71420000000217,
      "v": 82
    },
    {
      "midi": 67,
      "hit": false,
      "t": 42857.1,
      "d": 95.23800000000483,
      "v": 80
    },
    {
      "midi": 71,
      "hit": false,
      "t": 42857.1,
      "d": 176.19030000000203,
      "v": 62
    },
    {
      "midi": 62,
      "hit": false,
      "t": 43142.814,
      "d": 80.9522999999972,
      "v": 68
    },
    {
      "midi": 67,
      "hit": false,
      "t": 43142.814,
      "d": 95.23799999999756,
      "v": 70
    },
    {
      "midi": 71,
      "hit": false,
      "t": 43142.814,
      "d": 104.76180000000022,
      "v": 61
    },
    {
      "midi": 57,
      "hit": false,
      "t": 43428.528,
      "d": 519.0471000000034,
      "v": 70
    },
    {
      "midi": 69,
      "hit": false,
      "t": 43428.528,
      "d": 1133.332199999997,
      "v": 63
    },
    {
      "midi": 66,
      "hit": false,
      "t": 43428.528,
      "d": 1142.8559999999998,
      "v": 74
    },
    {
      "midi": 57,
      "hit": false,
      "t": 43999.956,
      "d": 571.4279999999999,
      "v": 68
    },
    {
      "midi": 62,
      "hit": false,
      "t": 44285.67,
      "d": 247.61879999999655,
      "v": 70
    },
    {
      "midi": 55,
      "hit": false,
      "t": 44571.384,
      "d": 519.0471000000034,
      "v": 70
    },
    {
      "midi": 67,
      "hit": false,
      "t": 44571.384,
      "d": 1133.332199999997,
      "v": 63
    },
    {
      "midi": 64,
      "hit": false,
      "t": 44571.384,
      "d": 1142.8559999999998,
      "v": 74
    },
    {
      "midi": 55,
      "hit": false,
      "t": 45142.812,
      "d": 571.4279999999999,
      "v": 68
    },
    {
      "midi": 60,
      "hit": false,
      "t": 45428.526,
      "d": 247.61879999999655,
      "v": 70
    },
    {
      "midi": 43,
      "hit": false,
      "t": 45999.954,
      "d": 1999.9980000000214,
      "v": 68
    },
    {
      "midi": 59,
      "hit": false,
      "t": 46142.811,
      "d": 799.9992000000057,
      "v": 80
    },
    {
      "midi": 62,
      "hit": false,
      "t": 46285.668000000005,
      "d": 933.3324000000066,
      "v": 82
    },
    {
      "midi": 67,
      "hit": false,
      "t": 46571.382000000005,
      "d": 514.2852000000057,
      "v": 93
    },
    {
      "midi": 71,
      "hit": false,
      "t": 46857.096000000005,
      "d": 1104.760800000011,
      "v": 82
    },
    {
      "midi": 59,
      "hit": false,
      "t": 47142.81000000001,
      "d": 857.1420000000071,
      "v": 87
    },
    {
      "midi": 62,
      "hit": false,
      "t": 47428.52400000001,
      "d": 533.3328000000038,
      "v": 82
    },
    {
      "midi": 67,
      "hit": false,
      "t": 47714.23800000001,
      "d": 204.76170000000275,
      "v": 78
    },
    {
      "midi": 57,
      "hit": false,
      "t": 47999.95200000002,
      "d": 1085.7131999999983,
      "v": 57
    },
    {
      "midi": 62,
      "hit": false,
      "t": 47999.95200000002,
      "d": 1119.0464999999967,
      "v": 60
    },
    {
      "midi": 69,
      "hit": false,
      "t": 47999.95200000002,
      "d": 1119.0464999999967,
      "v": 72
    },
    {
      "midi": 50,
      "hit": false,
      "t": 47999.95200000002,
      "d": 1142.8559999999998,
      "v": 45
    },
    {
      "midi": 55,
      "hit": false,
      "t": 49142.80800000002,
      "d": 1085.7131999999983,
      "v": 57
    },
    {
      "midi": 60,
      "hit": false,
      "t": 49142.80800000002,
      "d": 1119.0464999999967,
      "v": 60
    },
    {
      "midi": 67,
      "hit": false,
      "t": 49142.80800000002,
      "d": 1119.0464999999967,
      "v": 72
    },
    {
      "midi": 48,
      "hit": false,
      "t": 49142.80800000002,
      "d": 1142.8559999999998,
      "v": 45
    },
    {
      "midi": 59,
      "hit": false,
      "t": 50285.66400000002,
      "d": 1114.284599999999,
      "v": 63
    },
    {
      "midi": 62,
      "hit": false,
      "t": 50285.66400000002,
      "d": 1209.5225999999966,
      "v": 63
    },
    {
      "midi": 67,
      "hit": false,
      "t": 50285.66400000002,
      "d": 1219.0463999999993,
      "v": 72
    },
    {
      "midi": 71,
      "hit": false,
      "t": 50285.66400000002,
      "d": 1557.141300000003,
      "v": 72
    },
    {
      "midi": 43,
      "hit": false,
      "t": 50285.66400000002,
      "d": 2133.3312000000005,
      "v": 68
    },
    {
      "midi": 62,
      "hit": false,
      "t": 51714.23400000002,
      "d": 85.71420000000217,
      "v": 58
    },
    {
      "midi": 67,
      "hit": false,
      "t": 51714.23400000002,
      "d": 90.47609999999986,
      "v": 72
    },
    {
      "midi": 62,
      "hit": false,
      "t": 51999.94800000002,
      "d": 85.71420000000217,
      "v": 82
    },
    {
      "midi": 67,
      "hit": false,
      "t": 51999.94800000002,
      "d": 95.23800000000483,
      "v": 80
    },
    {
      "midi": 71,
      "hit": false,
      "t": 51999.94800000002,
      "d": 176.19030000000203,
      "v": 62
    },
    {
      "midi": 62,
      "hit": false,
      "t": 52285.66200000002,
      "d": 80.9522999999972,
      "v": 68
    },
    {
      "midi": 67,
      "hit": false,
      "t": 52285.66200000002,
      "d": 95.23799999999756,
      "v": 70
    },
    {
      "midi": 71,
      "hit": false,
      "t": 52285.66200000002,
      "d": 104.76180000000022,
      "v": 61
    },
    {
      "midi": 57,
      "hit": false,
      "t": 52571.37600000002,
      "d": 1138.094100000002,
      "v": 64
    },
    {
      "midi": 62,
      "hit": false,
      "t": 52857.09000000002,
      "d": 819.0468000000037,
      "v": 57
    },
    {
      "midi": 66,
      "hit": false,
      "t": 53142.80400000002,
      "d": 490.4757000000027,
      "v": 38
    },
    {
      "midi": 69,
      "hit": false,
      "t": 53428.51800000002,
      "d": 204.76170000000275,
      "v": 40
    },
    {
      "midi": 55,
      "hit": false,
      "t": 53999.94600000002,
      "d": 147.6189000000013,
      "v": 76
    },
    {
      "midi": 60,
      "hit": false,
      "t": 53999.94600000002,
      "d": 147.6189000000013,
      "v": 76
    },
    {
      "midi": 64,
      "hit": false,
      "t": 53999.94600000002,
      "d": 147.6189000000013,
      "v": 76
    },
    {
      "midi": 59,
      "hit": false,
      "t": 55142.80200000002,
      "d": 699.9993000000031,
      "v": 57
    },
    {
      "midi": 67,
      "hit": false,
      "t": 55428.51600000002,
      "d": 423.80910000000586,
      "v": 85
    },
    {
      "midi": 55,
      "hit": false,
      "t": 55999.944000000025,
      "d": 190.4760000000024,
      "v": 68
    },
    {
      "midi": 60,
      "hit": false,
      "t": 55999.944000000025,
      "d": 190.4760000000024,
      "v": 68
    },
    {
      "midi": 64,
      "hit": false,
      "t": 55999.944000000025,
      "d": 190.4760000000024,
      "v": 68
    },
    {
      "midi": 55,
      "hit": false,
      "t": 56285.658000000025,
      "d": 723.8087999999989,
      "v": 82
    },
    {
      "midi": 59,
      "hit": false,
      "t": 56285.658000000025,
      "d": 723.8087999999989,
      "v": 82
    },
    {
      "midi": 62,
      "hit": false,
      "t": 56285.658000000025,
      "d": 723.8087999999989,
      "v": 82
    },
    {
      "midi": 57,
      "hit": false,
      "t": 57142.800000000025,
      "d": 1085.7131999999983,
      "v": 67
    },
    {
      "midi": 62,
      "hit": false,
      "t": 57142.800000000025,
      "d": 1119.0464999999967,
      "v": 70
    },
    {
      "midi": 69,
      "hit": false,
      "t": 57142.800000000025,
      "d": 1119.0464999999967,
      "v": 82
    },
    {
      "midi": 50,
      "hit": false,
      "t": 57142.800000000025,
      "d": 1142.8559999999998,
      "v": 55
    },
    {
      "midi": 55,
      "hit": false,
      "t": 58285.656000000025,
      "d": 1142.8559999999998,
      "v": 70
    },
    {
      "midi": 60,
      "hit": false,
      "t": 58285.656000000025,
      "d": 1142.8559999999998,
      "v": 70
    },
    {
      "midi": 64,
      "hit": false,
      "t": 58285.656000000025,
      "d": 1142.8559999999998,
      "v": 70
    },
    {
      "midi": 36,
      "hit": false,
      "t": 58566.60810000003,
      "d": 304.761599999998,
      "v": 70
    },
    {
      "midi": 48,
      "hit": false,
      "t": 58876.13160000002,
      "d": 233.33310000000347,
      "v": 70
    },
    {
      "midi": 36,
      "hit": false,
      "t": 59157.083700000025,
      "d": 219.0474000000031,
      "v": 70
    },
    {
      "midi": 59,
      "hit": false,
      "t": 59714.226000000024,
      "d": 176.19030000000203,
      "v": 59
    },
    {
      "midi": 71,
      "hit": false,
      "t": 59714.226000000024,
      "d": 176.19030000000203,
      "v": 61
    },
    {
      "midi": 74,
      "hit": false,
      "t": 59714.226000000024,
      "d": 195.23790000000008,
      "v": 67
    },
    {
      "midi": 67,
      "hit": false,
      "t": 59714.226000000024,
      "d": 204.76170000000275,
      "v": 67
    },
    {
      "midi": 71,
      "hit": false,
      "t": 59999.940000000024,
      "d": 104.76180000000022,
      "v": 78
    },
    {
      "midi": 67,
      "hit": false,
      "t": 59999.940000000024,
      "d": 119.04750000000058,
      "v": 76
    },
    {
      "midi": 74,
      "hit": false,
      "t": 59999.940000000024,
      "d": 142.8570000000036,
      "v": 73
    },
    {
      "midi": 59,
      "hit": false,
      "t": 59999.940000000024,
      "d": 147.6189000000013,
      "v": 65
    },
    {
      "midi": 43,
      "hit": false,
      "t": 60285.654000000024,
      "d": 657.1422000000093,
      "v": 51
    },
    {
      "midi": 59,
      "hit": false,
      "t": 60571.368000000024,
      "d": 219.0474000000031,
      "v": 59
    },
    {
      "midi": 67,
      "hit": false,
      "t": 60571.368000000024,
      "d": 257.1426000000065,
      "v": 78
    },
    {
      "midi": 71,
      "hit": false,
      "t": 60571.368000000024,
      "d": 257.1426000000065,
      "v": 89
    },
    {
      "midi": 74,
      "hit": false,
      "t": 60571.368000000024,
      "d": 423.80910000001313,
      "v": 86
    },
    {
      "midi": 71,
      "hit": false,
      "t": 60857.08200000003,
      "d": 85.71420000000217,
      "v": 89
    },
    {
      "midi": 67,
      "hit": false,
      "t": 60857.08200000003,
      "d": 109.52370000000519,
      "v": 71
    },
    {
      "midi": 59,
      "hit": false,
      "t": 60857.08200000003,
      "d": 138.0951000000059,
      "v": 57
    },
    {
      "midi": 57,
      "hit": false,
      "t": 61714.22400000004,
      "d": 519.0471000000034,
      "v": 71
    },
    {
      "midi": 69,
      "hit": false,
      "t": 61714.22400000004,
      "d": 1133.332199999997,
      "v": 64
    },
    {
      "midi": 66,
      "hit": false,
      "t": 61714.22400000004,
      "d": 1142.8559999999998,
      "v": 75
    },
    {
      "midi": 57,
      "hit": false,
      "t": 62285.65200000004,
      "d": 571.4279999999999,
      "v": 69
    },
    {
      "midi": 62,
      "hit": false,
      "t": 62571.36600000004,
      "d": 247.61879999999655,
      "v": 71
    },
    {
      "midi": 55,
      "hit": false,
      "t": 62857.08000000004,
      "d": 1142.8559999999998,
      "v": 70
    },
    {
      "midi": 60,
      "hit": false,
      "t": 62857.08000000004,
      "d": 1142.8559999999998,
      "v": 70
    },
    {
      "midi": 64,
      "hit": false,
      "t": 62857.08000000004,
      "d": 1142.8559999999998,
      "v": 70
    },
    {
      "midi": 36,
      "hit": false,
      "t": 63138.03210000004,
      "d": 304.761599999998,
      "v": 70
    },
    {
      "midi": 48,
      "hit": false,
      "t": 63447.555600000036,
      "d": 233.33310000000347,
      "v": 70
    },
    {
      "midi": 36,
      "hit": false,
      "t": 63728.50770000004,
      "d": 219.0474000000031,
      "v": 70
    },
    {
      "midi": 43,
      "hit": false,
      "t": 64285.65000000004,
      "d": 309.52350000000297,
      "v": 55
    },
    {
      "midi": 59,
      "hit": false,
      "t": 64571.36400000004,
      "d": 147.6189000000013,
      "v": 77
    },
    {
      "midi": 67,
      "hit": false,
      "t": 64571.36400000004,
      "d": 185.7141000000047,
      "v": 88
    },
    {
      "midi": 43,
      "hit": false,
      "t": 65428.506000000045,
      "d": 28.57140000000072,
      "v": 30
    },
    {
      "midi": 59,
      "hit": false,
      "t": 65428.506000000045,
      "d": 109.52369999999792,
      "v": 82
    },
    {
      "midi": 67,
      "hit": false,
      "t": 65428.506000000045,
      "d": 128.57130000000325,
      "v": 88
    },
    {
      "midi": 57,
      "hit": false,
      "t": 66285.64800000004,
      "d": 519.0470999999961,
      "v": 71
    },
    {
      "midi": 69,
      "hit": false,
      "t": 66285.64800000004,
      "d": 1133.3322000000044,
      "v": 64
    },
    {
      "midi": 66,
      "hit": false,
      "t": 66285.64800000004,
      "d": 1142.8559999999998,
      "v": 75
    },
    {
      "midi": 57,
      "hit": false,
      "t": 66857.07600000004,
      "d": 571.4279999999999,
      "v": 69
    },
    {
      "midi": 62,
      "hit": false,
      "t": 67142.79000000005,
      "d": 247.61879999999655,
      "v": 71
    },
    {
      "midi": 55,
      "hit": false,
      "t": 67428.50400000004,
      "d": 1142.8559999999998,
      "v": 70
    },
    {
      "midi": 60,
      "hit": false,
      "t": 67428.50400000004,
      "d": 1142.8559999999998,
      "v": 70
    },
    {
      "midi": 64,
      "hit": false,
      "t": 67428.50400000004,
      "d": 1142.8559999999998,
      "v": 70
    },
    {
      "midi": 36,
      "hit": false,
      "t": 67709.45610000004,
      "d": 304.761599999998,
      "v": 70
    },
    {
      "midi": 48,
      "hit": false,
      "t": 68018.97960000004,
      "d": 233.33310000000347,
      "v": 70
    },
    {
      "midi": 36,
      "hit": false,
      "t": 68299.93170000004,
      "d": 219.04739999999583,
      "v": 70
    },
    {
      "midi": 43,
      "hit": false,
      "t": 68857.07400000005,
      "d": 309.52350000001024,
      "v": 55
    },
    {
      "midi": 59,
      "hit": false,
      "t": 69142.78800000006,
      "d": 147.6189000000013,
      "v": 77
    },
    {
      "midi": 67,
      "hit": false,
      "t": 69142.78800000006,
      "d": 185.71409999999742,
      "v": 88
    },
    {
      "midi": 43,
      "hit": false,
      "t": 69999.93000000005,
      "d": 28.57140000000072,
      "v": 30
    },
    {
      "midi": 59,
      "hit": false,
      "t": 69999.93000000005,
      "d": 109.52370000000519,
      "v": 82
    },
    {
      "midi": 67,
      "hit": false,
      "t": 69999.93000000005,
      "d": 128.57130000001052,
      "v": 88
    },
    {
      "midi": 57,
      "hit": false,
      "t": 70857.07200000006,
      "d": 1085.7131999999983,
      "v": 67
    },
    {
      "midi": 62,
      "hit": false,
      "t": 70857.07200000006,
      "d": 1119.0464999999967,
      "v": 70
    },
    {
      "midi": 69,
      "hit": false,
      "t": 70857.07200000006,
      "d": 1119.0464999999967,
      "v": 82
    },
    {
      "midi": 50,
      "hit": false,
      "t": 70857.07200000006,
      "d": 1142.8559999999998,
      "v": 55
    },
    {
      "midi": 55,
      "hit": false,
      "t": 71999.92800000006,
      "d": 519.0470999999961,
      "v": 71
    },
    {
      "midi": 67,
      "hit": false,
      "t": 71999.92800000006,
      "d": 1133.3322000000044,
      "v": 64
    },
    {
      "midi": 64,
      "hit": false,
      "t": 71999.92800000006,
      "d": 1142.8559999999998,
      "v": 75
    },
    {
      "midi": 55,
      "hit": false,
      "t": 72571.35600000006,
      "d": 571.4279999999999,
      "v": 69
    },
    {
      "midi": 60,
      "hit": false,
      "t": 72857.07000000007,
      "d": 247.61879999999655,
      "v": 71
    },
    {
      "midi": 67,
      "hit": false,
      "t": 73428.49800000007,
      "d": 171.42840000000433,
      "v": 75
    },
    {
      "midi": 71,
      "hit": false,
      "t": 73428.49800000007,
      "d": 180.95219999999972,
      "v": 73
    },
    {
      "midi": 74,
      "hit": false,
      "t": 73428.49800000007,
      "d": 185.71409999999742,
      "v": 75
    },
    {
      "midi": 59,
      "hit": false,
      "t": 73428.49800000007,
      "d": 190.4759999999951,
      "v": 69
    },
    {
      "midi": 71,
      "hit": false,
      "t": 73714.21200000006,
      "d": 90.47609999999986,
      "v": 59
    },
    {
      "midi": 67,
      "hit": false,
      "t": 73714.21200000006,
      "d": 114.28560000000289,
      "v": 50
    },
    {
      "midi": 74,
      "hit": false,
      "t": 73714.21200000006,
      "d": 152.380799999999,
      "v": 61
    },
    {
      "midi": 59,
      "hit": false,
      "t": 73714.21200000006,
      "d": 233.33310000000347,
      "v": 55
    },
    {
      "midi": 43,
      "hit": false,
      "t": 73999.92600000006,
      "d": 176.19030000000203,
      "v": 55
    },
    {
      "midi": 59,
      "hit": false,
      "t": 74285.64000000007,
      "d": 209.52360000000044,
      "v": 73
    },
    {
      "midi": 67,
      "hit": false,
      "t": 74285.64000000007,
      "d": 233.33310000000347,
      "v": 84
    },
    {
      "midi": 74,
      "hit": false,
      "t": 74285.64000000007,
      "d": 233.33310000000347,
      "v": 82
    },
    {
      "midi": 67,
      "hit": false,
      "t": 74571.35400000008,
      "d": 138.0951000000059,
      "v": 84
    },
    {
      "midi": 74,
      "hit": false,
      "t": 74571.35400000008,
      "d": 161.90460000000894,
      "v": 80
    },
    {
      "midi": 59,
      "hit": false,
      "t": 74571.35400000008,
      "d": 180.95220000001427,
      "v": 88
    },
    {
      "midi": 57,
      "hit": false,
      "t": 75428.49600000009,
      "d": 1138.0941000000166,
      "v": 64
    },
    {
      "midi": 62,
      "hit": false,
      "t": 75714.2100000001,
      "d": 819.046800000011,
      "v": 57
    },
    {
      "midi": 66,
      "hit": false,
      "t": 75999.9240000001,
      "d": 490.47570000000997,
      "v": 38
    },
    {
      "midi": 69,
      "hit": false,
      "t": 76285.63800000011,
      "d": 204.76170000000275,
      "v": 40
    },
    {
      "midi": 55,
      "hit": false,
      "t": 76857.06600000011,
      "d": 147.6189000000013,
      "v": 76
    },
    {
      "midi": 60,
      "hit": false,
      "t": 76857.06600000011,
      "d": 147.6189000000013,
      "v": 76
    },
    {
      "midi": 64,
      "hit": false,
      "t": 76857.06600000011,
      "d": 147.6189000000013,
      "v": 76
    },
    {
      "midi": 59,
      "hit": false,
      "t": 77714.20800000012,
      "d": 1085.7131999999983,
      "v": 57
    },
    {
      "midi": 62,
      "hit": false,
      "t": 77714.20800000012,
      "d": 1119.0464999999967,
      "v": 60
    },
    {
      "midi": 71,
      "hit": false,
      "t": 77714.20800000012,
      "d": 1119.0464999999967,
      "v": 72
    },
    {
      "midi": 43,
      "hit": false,
      "t": 77714.20800000012,
      "d": 1142.8559999999998,
      "v": 45
    },
    {
      "midi": 57,
      "hit": false,
      "t": 79142.77800000012,
      "d": 147.6189000000013,
      "v": 76
    },
    {
      "midi": 60,
      "hit": false,
      "t": 79142.77800000012,
      "d": 147.6189000000013,
      "v": 76
    },
    {
      "midi": 65,
      "hit": false,
      "t": 79142.77800000012,
      "d": 147.6189000000013,
      "v": 76
    },
    {
      "midi": 55,
      "hit": false,
      "t": 79714.20600000012,
      "d": 147.6189000000013,
      "v": 76
    },
    {
      "midi": 60,
      "hit": false,
      "t": 79714.20600000012,
      "d": 147.6189000000013,
      "v": 76
    },
    {
      "midi": 64,
      "hit": false,
      "t": 79714.20600000012,
      "d": 147.6189000000013,
      "v": 76
    },
    {
      "midi": 57,
      "hit": false,
      "t": 79999.92000000013,
      "d": 519.0470999999961,
      "v": 70
    },
    {
      "midi": 69,
      "hit": false,
      "t": 79999.92000000013,
      "d": 1133.3322000000044,
      "v": 63
    },
    {
      "midi": 66,
      "hit": false,
      "t": 79999.92000000013,
      "d": 1142.8559999999998,
      "v": 74
    },
    {
      "midi": 57,
      "hit": false,
      "t": 80571.34800000013,
      "d": 571.4279999999999,
      "v": 68
    },
    {
      "midi": 62,
      "hit": false,
      "t": 80857.06200000014,
      "d": 247.61879999999655,
      "v": 70
    },
    {
      "midi": 55,
      "hit": false,
      "t": 81142.77600000013,
      "d": 1085.7131999999983,
      "v": 57
    },
    {
      "midi": 60,
      "hit": false,
      "t": 81142.77600000013,
      "d": 1119.0464999999967,
      "v": 60
    },
    {
      "midi": 67,
      "hit": false,
      "t": 81142.77600000013,
      "d": 1119.0464999999967,
      "v": 72
    },
    {
      "midi": 48,
      "hit": false,
      "t": 81142.77600000013,
      "d": 1142.8559999999998,
      "v": 45
    },
    {
      "midi": 62,
      "hit": false,
      "t": 82285.63200000013,
      "d": 1266.6654000000271,
      "v": 55
    },
    {
      "midi": 43,
      "hit": false,
      "t": 82285.63200000013,
      "d": 2052.3789000000106,
      "v": 66
    },
    {
      "midi": 67,
      "hit": false,
      "t": 82571.34600000014,
      "d": 1271.4273000000103,
      "v": 70
    },
    {
      "midi": 71,
      "hit": false,
      "t": 82857.06000000014,
      "d": 638.0946000000113,
      "v": 72
    },
    {
      "midi": 59,
      "hit": false,
      "t": 83142.77400000015,
      "d": 1190.4749999999913,
      "v": 70
    },
    {
      "midi": 62,
      "hit": false,
      "t": 83714.20200000015,
      "d": 580.9517999999953,
      "v": 70
    },
    {
      "midi": 67,
      "hit": false,
      "t": 83999.91600000014,
      "d": 219.04739999999583,
      "v": 82
    },
    {
      "midi": 57,
      "hit": false,
      "t": 84857.05800000014,
      "d": 147.6189000000013,
      "v": 76
    },
    {
      "midi": 62,
      "hit": false,
      "t": 84857.05800000014,
      "d": 147.6189000000013,
      "v": 76
    },
    {
      "midi": 66,
      "hit": false,
      "t": 84857.05800000014,
      "d": 147.6189000000013,
      "v": 76
    },
    {
      "midi": 55,
      "hit": false,
      "t": 85999.91400000014,
      "d": 147.6189000000013,
      "v": 76
    },
    {
      "midi": 60,
      "hit": false,
      "t": 85999.91400000014,
      "d": 147.6189000000013,
      "v": 76
    },
    {
      "midi": 64,
      "hit": false,
      "t": 85999.91400000014,
      "d": 147.6189000000013,
      "v": 76
    },
    {
      "midi": 59,
      "hit": false,
      "t": 86857.05600000014,
      "d": 1299.9986999999965,
      "v": 68
    },
    {
      "midi": 62,
      "hit": false,
      "t": 86857.05600000014,
      "d": 1371.427199999991,
      "v": 66
    },
    {
      "midi": 67,
      "hit": false,
      "t": 86857.05600000014,
      "d": 1476.1889999999985,
      "v": 80
    },
    {
      "midi": 71,
      "hit": false,
      "t": 86857.05600000014,
      "d": 1980.950399999987,
      "v": 76
    },
    {
      "midi": 59,
      "hit": false,
      "t": 88285.62600000013,
      "d": 323.80920000000333,
      "v": 80
    },
    {
      "midi": 62,
      "hit": false,
      "t": 88571.34000000014,
      "d": 161.9045999999944,
      "v": 98
    },
    {
      "midi": 57,
      "hit": false,
      "t": 89142.76800000013,
      "d": 1085.7131999999983,
      "v": 57
    },
    {
      "midi": 62,
      "hit": false,
      "t": 89142.76800000013,
      "d": 1119.0464999999967,
      "v": 60
    },
    {
      "midi": 69,
      "hit": false,
      "t": 89142.76800000013,
      "d": 1119.0464999999967,
      "v": 72
    },
    {
      "midi": 50,
      "hit": false,
      "t": 89142.76800000013,
      "d": 1142.8559999999998,
      "v": 45
    },
    {
      "midi": 55,
      "hit": false,
      "t": 90285.62400000013,
      "d": 519.0470999999961,
      "v": 70
    },
    {
      "midi": 67,
      "hit": false,
      "t": 90285.62400000013,
      "d": 1133.3322000000044,
      "v": 63
    },
    {
      "midi": 64,
      "hit": false,
      "t": 90285.62400000013,
      "d": 1142.8559999999998,
      "v": 74
    },
    {
      "midi": 55,
      "hit": false,
      "t": 90857.05200000013,
      "d": 571.4279999999999,
      "v": 68
    },
    {
      "midi": 60,
      "hit": false,
      "t": 91142.76600000013,
      "d": 247.61879999999655,
      "v": 70
    },
    {
      "midi": 62,
      "hit": false,
      "t": 91428.48000000013,
      "d": 1266.6654000000271,
      "v": 55
    },
    {
      "midi": 43,
      "hit": false,
      "t": 91428.48000000013,
      "d": 2052.3789000000106,
      "v": 66
    },
    {
      "midi": 67,
      "hit": false,
      "t": 91714.19400000013,
      "d": 1271.4273000000103,
      "v": 70
    },
    {
      "midi": 71,
      "hit": false,
      "t": 91999.90800000014,
      "d": 638.0946000000113,
      "v": 72
    },
    {
      "midi": 59,
      "hit": false,
      "t": 92285.62200000015,
      "d": 1190.4749999999913,
      "v": 70
    },
    {
      "midi": 62,
      "hit": false,
      "t": 92857.05000000015,
      "d": 580.9517999999953,
      "v": 70
    },
    {
      "midi": 67,
      "hit": false,
      "t": 93142.76400000014,
      "d": 219.04739999999583,
      "v": 82
    },
    {
      "midi": 57,
      "hit": false,
      "t": 93714.19200000014,
      "d": 519.0470999999961,
      "v": 71
    },
    {
      "midi": 69,
      "hit": false,
      "t": 93714.19200000014,
      "d": 1133.3322000000044,
      "v": 64
    },
    {
      "midi": 66,
      "hit": false,
      "t": 93714.19200000014,
      "d": 1142.8559999999998,
      "v": 75
    },
    {
      "midi": 57,
      "hit": false,
      "t": 94285.62000000014,
      "d": 571.4279999999999,
      "v": 69
    },
    {
      "midi": 62,
      "hit": false,
      "t": 94571.33400000015,
      "d": 247.61879999999655,
      "v": 71
    },
    {
      "midi": 55,
      "hit": false,
      "t": 94857.04800000014,
      "d": 519.0470999999961,
      "v": 71
    },
    {
      "midi": 67,
      "hit": false,
      "t": 94857.04800000014,
      "d": 1133.3322000000044,
      "v": 64
    },
    {
      "midi": 64,
      "hit": false,
      "t": 94857.04800000014,
      "d": 1142.8559999999998,
      "v": 75
    },
    {
      "midi": 55,
      "hit": false,
      "t": 95428.47600000014,
      "d": 571.4279999999999,
      "v": 69
    },
    {
      "midi": 60,
      "hit": false,
      "t": 95714.19000000015,
      "d": 247.61879999999655,
      "v": 71
    },
    {
      "midi": 67,
      "hit": false,
      "t": 95999.90400000014,
      "d": 461.9042999999947,
      "v": 66
    },
    {
      "midi": 71,
      "hit": false,
      "t": 95999.90400000014,
      "d": 485.7137999999977,
      "v": 68
    },
    {
      "midi": 62,
      "hit": false,
      "t": 95999.90400000014,
      "d": 504.76140000000305,
      "v": 64
    },
    {
      "midi": 79,
      "hit": false,
      "t": 95999.90400000014,
      "d": 504.76140000000305,
      "v": 76
    },
    {
      "midi": 67,
      "hit": false,
      "t": 96571.33200000014,
      "d": 114.28560000000289,
      "v": 76
    },
    {
      "midi": 71,
      "hit": false,
      "t": 96571.33200000014,
      "d": 133.33320000000822,
      "v": 76
    },
    {
      "midi": 62,
      "hit": false,
      "t": 96571.33200000014,
      "d": 138.0951000000059,
      "v": 62
    },
    {
      "midi": 79,
      "hit": false,
      "t": 96571.33200000014,
      "d": 138.0951000000059,
      "v": 79
    },
    {
      "midi": 71,
      "hit": false,
      "t": 97428.47400000015,
      "d": 133.33319999999367,
      "v": 76
    },
    {
      "midi": 79,
      "hit": false,
      "t": 97428.47400000015,
      "d": 152.380799999999,
      "v": 79
    },
    {
      "midi": 67,
      "hit": false,
      "t": 97428.47400000015,
      "d": 157.1426999999967,
      "v": 66
    },
    {
      "midi": 55,
      "hit": false,
      "t": 97428.47400000015,
      "d": 161.9045999999944,
      "v": 66
    },
    {
      "midi": 62,
      "hit": false,
      "t": 97428.47400000015,
      "d": 195.2378999999928,
      "v": 60
    },
    {
      "midi": 57,
      "hit": false,
      "t": 98285.61600000014,
      "d": 519.0470999999961,
      "v": 71
    },
    {
      "midi": 69,
      "hit": false,
      "t": 98285.61600000014,
      "d": 1133.3322000000044,
      "v": 64
    },
    {
      "midi": 66,
      "hit": false,
      "t": 98285.61600000014,
      "d": 1142.8559999999998,
      "v": 75
    },
    {
      "midi": 57,
      "hit": false,
      "t": 98857.04400000014,
      "d": 571.4279999999999,
      "v": 69
    },
    {
      "midi": 62,
      "hit": false,
      "t": 99142.75800000015,
      "d": 247.61879999999655,
      "v": 71
    },
    {
      "midi": 55,
      "hit": false,
      "t": 99428.47200000014,
      "d": 1142.8559999999998,
      "v": 70
    },
    {
      "midi": 60,
      "hit": false,
      "t": 99428.47200000014,
      "d": 1142.8559999999998,
      "v": 70
    },
    {
      "midi": 64,
      "hit": false,
      "t": 99428.47200000014,
      "d": 1142.8559999999998,
      "v": 70
    },
    {
      "midi": 36,
      "hit": false,
      "t": 99709.42410000013,
      "d": 304.761599999998,
      "v": 70
    },
    {
      "midi": 48,
      "hit": false,
      "t": 100018.94760000013,
      "d": 233.33310000000347,
      "v": 70
    },
    {
      "midi": 36,
      "hit": false,
      "t": 100299.89970000014,
      "d": 219.04739999999583,
      "v": 70
    },
    {
      "midi": 67,
      "hit": false,
      "t": 100571.32800000014,
      "d": 461.9042999999947,
      "v": 66
    },
    {
      "midi": 71,
      "hit": false,
      "t": 100571.32800000014,
      "d": 485.7137999999977,
      "v": 68
    },
    {
      "midi": 62,
      "hit": false,
      "t": 100571.32800000014,
      "d": 504.76140000000305,
      "v": 64
    },
    {
      "midi": 79,
      "hit": false,
      "t": 100571.32800000014,
      "d": 504.76140000000305,
      "v": 76
    },
    {
      "midi": 67,
      "hit": false,
      "t": 101142.75600000014,
      "d": 114.28560000000289,
      "v": 76
    },
    {
      "midi": 71,
      "hit": false,
      "t": 101142.75600000014,
      "d": 133.33320000000822,
      "v": 76
    },
    {
      "midi": 62,
      "hit": false,
      "t": 101142.75600000014,
      "d": 138.0951000000059,
      "v": 62
    },
    {
      "midi": 79,
      "hit": false,
      "t": 101142.75600000014,
      "d": 138.0951000000059,
      "v": 79
    },
    {
      "midi": 71,
      "hit": false,
      "t": 101999.89800000015,
      "d": 133.33319999999367,
      "v": 76
    },
    {
      "midi": 79,
      "hit": false,
      "t": 101999.89800000015,
      "d": 152.380799999999,
      "v": 79
    },
    {
      "midi": 67,
      "hit": false,
      "t": 101999.89800000015,
      "d": 157.1426999999967,
      "v": 66
    },
    {
      "midi": 55,
      "hit": false,
      "t": 101999.89800000015,
      "d": 161.9045999999944,
      "v": 66
    },
    {
      "midi": 62,
      "hit": false,
      "t": 101999.89800000015,
      "d": 195.2378999999928,
      "v": 60
    },
    {
      "midi": 57,
      "hit": false,
      "t": 102857.04000000014,
      "d": 1085.7131999999983,
      "v": 67
    },
    {
      "midi": 62,
      "hit": false,
      "t": 102857.04000000014,
      "d": 1119.0464999999967,
      "v": 70
    },
    {
      "midi": 69,
      "hit": false,
      "t": 102857.04000000014,
      "d": 1119.0464999999967,
      "v": 82
    },
    {
      "midi": 50,
      "hit": false,
      "t": 102857.04000000014,
      "d": 1142.8559999999998,
      "v": 55
    },
    {
      "midi": 55,
      "hit": false,
      "t": 103999.89600000014,
      "d": 1085.7131999999983,
      "v": 67
    },
    {
      "midi": 60,
      "hit": false,
      "t": 103999.89600000014,
      "d": 1119.0464999999967,
      "v": 70
    },
    {
      "midi": 67,
      "hit": false,
      "t": 103999.89600000014,
      "d": 1119.0464999999967,
      "v": 82
    },
    {
      "midi": 48,
      "hit": false,
      "t": 103999.89600000014,
      "d": 1142.8559999999998,
      "v": 55
    },
    {
      "midi": 43,
      "hit": false,
      "t": 105428.46600000015,
      "d": 328.571100000001,
      "v": 55
    },
    {
      "midi": 71,
      "hit": false,
      "t": 105714.18000000015,
      "d": 214.28549999999814,
      "v": 82
    },
    {
      "midi": 62,
      "hit": false,
      "t": 105714.18000000015,
      "d": 266.6664000000019,
      "v": 82
    },
    {
      "midi": 59,
      "hit": false,
      "t": 105714.18000000015,
      "d": 290.4759000000049,
      "v": 63
    },
    {
      "midi": 43,
      "hit": false,
      "t": 106004.65590000016,
      "d": 223.80929999999353,
      "v": 44
    },
    {
      "midi": 59,
      "hit": false,
      "t": 106285.60800000015,
      "d": 238.09500000000116,
      "v": 59
    },
    {
      "midi": 71,
      "hit": false,
      "t": 106285.60800000015,
      "d": 247.61879999999655,
      "v": 82
    },
    {
      "midi": 62,
      "hit": false,
      "t": 106285.60800000015,
      "d": 252.38069999999425,
      "v": 80
    },
    {
      "midi": 62,
      "hit": false,
      "t": 106571.32200000015,
      "d": 152.380799999999,
      "v": 57
    },
    {
      "midi": 71,
      "hit": false,
      "t": 106571.32200000015,
      "d": 152.380799999999,
      "v": 84
    },
    {
      "midi": 59,
      "hit": false,
      "t": 106571.32200000015,
      "d": 161.9045999999944,
      "v": 82
    },
    {
      "midi": 57,
      "hit": false,
      "t": 107428.46400000014,
      "d": 1085.7131999999983,
      "v": 67
    },
    {
      "midi": 62,
      "hit": false,
      "t": 107428.46400000014,
      "d": 1119.0464999999967,
      "v": 70
    },
    {
      "midi": 69,
      "hit": false,
      "t": 107428.46400000014,
      "d": 1119.0464999999967,
      "v": 82
    },
    {
      "midi": 50,
      "hit": false,
      "t": 107428.46400000014,
      "d": 1142.8559999999998,
      "v": 55
    },
    {
      "midi": 55,
      "hit": false,
      "t": 108571.32000000014,
      "d": 1142.8559999999998,
      "v": 70
    },
    {
      "midi": 60,
      "hit": false,
      "t": 108571.32000000014,
      "d": 1142.8559999999998,
      "v": 70
    },
    {
      "midi": 64,
      "hit": false,
      "t": 108571.32000000014,
      "d": 1142.8559999999998,
      "v": 70
    },
    {
      "midi": 36,
      "hit": false,
      "t": 108852.27210000013,
      "d": 304.761599999998,
      "v": 70
    },
    {
      "midi": 48,
      "hit": false,
      "t": 109161.79560000013,
      "d": 233.33310000000347,
      "v": 70
    },
    {
      "midi": 36,
      "hit": false,
      "t": 109442.74770000014,
      "d": 219.04739999999583,
      "v": 70
    },
    {
      "midi": 43,
      "hit": false,
      "t": 109999.89000000014,
      "d": 328.571100000001,
      "v": 55
    },
    {
      "midi": 71,
      "hit": false,
      "t": 110285.60400000015,
      "d": 214.28549999999814,
      "v": 82
    },
    {
      "midi": 62,
      "hit": false,
      "t": 110285.60400000015,
      "d": 266.6664000000019,
      "v": 82
    },
    {
      "midi": 59,
      "hit": false,
      "t": 110285.60400000015,
      "d": 290.4759000000049,
      "v": 63
    },
    {
      "midi": 43,
      "hit": false,
      "t": 110576.07990000016,
      "d": 223.80929999999353,
      "v": 44
    },
    {
      "midi": 59,
      "hit": false,
      "t": 110857.03200000015,
      "d": 238.09500000000116,
      "v": 59
    },
    {
      "midi": 71,
      "hit": false,
      "t": 110857.03200000015,
      "d": 247.61879999999655,
      "v": 82
    },
    {
      "midi": 62,
      "hit": false,
      "t": 110857.03200000015,
      "d": 252.38069999999425,
      "v": 80
    },
    {
      "midi": 62,
      "hit": false,
      "t": 111142.74600000014,
      "d": 152.380799999999,
      "v": 57
    },
    {
      "midi": 71,
      "hit": false,
      "t": 111142.74600000014,
      "d": 152.380799999999,
      "v": 84
    },
    {
      "midi": 59,
      "hit": false,
      "t": 111142.74600000014,
      "d": 161.9045999999944,
      "v": 82
    },
    {
      "midi": 57,
      "hit": false,
      "t": 111999.88800000014,
      "d": 519.0470999999961,
      "v": 70
    },
    {
      "midi": 69,
      "hit": false,
      "t": 111999.88800000014,
      "d": 1133.3322000000044,
      "v": 63
    },
    {
      "midi": 66,
      "hit": false,
      "t": 111999.88800000014,
      "d": 1142.8559999999998,
      "v": 74
    },
    {
      "midi": 57,
      "hit": false,
      "t": 112571.31600000014,
      "d": 571.4279999999999,
      "v": 68
    },
    {
      "midi": 62,
      "hit": false,
      "t": 112857.03000000014,
      "d": 247.61879999999655,
      "v": 70
    },
    {
      "midi": 55,
      "hit": false,
      "t": 113142.74400000014,
      "d": 519.0470999999961,
      "v": 70
    },
    {
      "midi": 67,
      "hit": false,
      "t": 113142.74400000014,
      "d": 1133.3322000000044,
      "v": 63
    },
    {
      "midi": 64,
      "hit": false,
      "t": 113142.74400000014,
      "d": 1142.8559999999998,
      "v": 74
    },
    {
      "midi": 55,
      "hit": false,
      "t": 113714.17200000014,
      "d": 571.4279999999999,
      "v": 68
    },
    {
      "midi": 60,
      "hit": false,
      "t": 113999.88600000014,
      "d": 247.61879999999655,
      "v": 70
    },
    {
      "midi": 59,
      "hit": false,
      "t": 114285.60000000014,
      "d": 519.0470999999961,
      "v": 70
    },
    {
      "midi": 71,
      "hit": false,
      "t": 114285.60000000014,
      "d": 1133.3322000000044,
      "v": 63
    },
    {
      "midi": 67,
      "hit": false,
      "t": 114285.60000000014,
      "d": 1142.8559999999998,
      "v": 74
    },
    {
      "midi": 59,
      "hit": false,
      "t": 114857.02800000014,
      "d": 571.4279999999999,
      "v": 68
    },
    {
      "midi": 62,
      "hit": false,
      "t": 115142.74200000014,
      "d": 247.61879999999655,
      "v": 70
    },
    {
      "midi": 57,
      "hit": false,
      "t": 115714.17000000014,
      "d": 147.6189000000013,
      "v": 76
    },
    {
      "midi": 60,
      "hit": false,
      "t": 115714.17000000014,
      "d": 147.6189000000013,
      "v": 76
    },
    {
      "midi": 65,
      "hit": false,
      "t": 115714.17000000014,
      "d": 147.6189000000013,
      "v": 76
    },
    {
      "midi": 55,
      "hit": false,
      "t": 116285.59800000014,
      "d": 147.6189000000013,
      "v": 76
    },
    {
      "midi": 60,
      "hit": false,
      "t": 116285.59800000014,
      "d": 147.6189000000013,
      "v": 76
    },
    {
      "midi": 64,
      "hit": false,
      "t": 116285.59800000014,
      "d": 147.6189000000013,
      "v": 76
    },
    {
      "midi": 57,
      "hit": false,
      "t": 116857.02600000014,
      "d": 147.6189000000013,
      "v": 76
    },
    {
      "midi": 62,
      "hit": false,
      "t": 116857.02600000014,
      "d": 147.6189000000013,
      "v": 76
    },
    {
      "midi": 66,
      "hit": false,
      "t": 116857.02600000014,
      "d": 147.6189000000013,
      "v": 76
    },
    {
      "midi": 55,
      "hit": false,
      "t": 117714.16800000015,
      "d": 519.0470999999961,
      "v": 70
    },
    {
      "midi": 67,
      "hit": false,
      "t": 117714.16800000015,
      "d": 1133.3322000000044,
      "v": 63
    },
    {
      "midi": 64,
      "hit": false,
      "t": 117714.16800000015,
      "d": 1142.8559999999998,
      "v": 74
    },
    {
      "midi": 55,
      "hit": false,
      "t": 118285.59600000015,
      "d": 571.4279999999999,
      "v": 68
    },
    {
      "midi": 60,
      "hit": false,
      "t": 118571.31000000016,
      "d": 247.61879999999655,
      "v": 70
    },
    {
      "midi": 59,
      "hit": false,
      "t": 118857.02400000015,
      "d": 1299.9986999999965,
      "v": 68
    },
    {
      "midi": 62,
      "hit": false,
      "t": 118857.02400000015,
      "d": 1371.427199999991,
      "v": 66
    },
    {
      "midi": 67,
      "hit": false,
      "t": 118857.02400000015,
      "d": 1476.1889999999985,
      "v": 80
    },
    {
      "midi": 71,
      "hit": false,
      "t": 118857.02400000015,
      "d": 1980.950399999987,
      "v": 76
    },
    {
      "midi": 59,
      "hit": false,
      "t": 120285.59400000014,
      "d": 323.80920000000333,
      "v": 80
    },
    {
      "midi": 62,
      "hit": false,
      "t": 120571.30800000015,
      "d": 161.9045999999944,
      "v": 98
    },
    {
      "midi": 57,
      "hit": false,
      "t": 121142.73600000014,
      "d": 1138.0941000000166,
      "v": 64
    },
    {
      "midi": 62,
      "hit": false,
      "t": 121428.45000000014,
      "d": 819.046800000011,
      "v": 57
    },
    {
      "midi": 66,
      "hit": false,
      "t": 121714.16400000015,
      "d": 490.47570000000997,
      "v": 38
    },
    {
      "midi": 69,
      "hit": false,
      "t": 121999.87800000016,
      "d": 204.76170000000275,
      "v": 40
    },
    {
      "midi": 55,
      "hit": false,
      "t": 122571.30600000016,
      "d": 147.6189000000013,
      "v": 76
    },
    {
      "midi": 60,
      "hit": false,
      "t": 122571.30600000016,
      "d": 147.6189000000013,
      "v": 76
    },
    {
      "midi": 64,
      "hit": false,
      "t": 122571.30600000016,
      "d": 147.6189000000013,
      "v": 76
    },
    {
      "midi": 59,
      "hit": false,
      "t": 123714.16200000017,
      "d": 1490.4747000000207,
      "v": 70
    },
    {
      "midi": 62,
      "hit": false,
      "t": 123999.87600000018,
      "d": 1204.7607000000135,
      "v": 80
    },
    {
      "midi": 67,
      "hit": false,
      "t": 124285.59000000019,
      "d": 919.0467000000062,
      "v": 89
    },
    {
      "midi": 57,
      "hit": false,
      "t": 125714.16000000019,
      "d": 1138.0941000000166,
      "v": 64
    },
    {
      "midi": 62,
      "hit": false,
      "t": 125999.8740000002,
      "d": 819.046800000011,
      "v": 57
    },
    {
      "midi": 66,
      "hit": false,
      "t": 126285.5880000002,
      "d": 490.47570000000997,
      "v": 38
    },
    {
      "midi": 69,
      "hit": false,
      "t": 126571.30200000021,
      "d": 204.76170000000275,
      "v": 40
    },
    {
      "midi": 55,
      "hit": false,
      "t": 126857.0160000002,
      "d": 519.0470999999961,
      "v": 70
    },
    {
      "midi": 67,
      "hit": false,
      "t": 126857.0160000002,
      "d": 1133.3322000000044,
      "v": 63
    },
    {
      "midi": 64,
      "hit": false,
      "t": 126857.0160000002,
      "d": 1142.8559999999998,
      "v": 74
    },
    {
      "midi": 55,
      "hit": false,
      "t": 127428.4440000002,
      "d": 571.4279999999999,
      "v": 68
    },
    {
      "midi": 60,
      "hit": false,
      "t": 127714.15800000021,
      "d": 247.61879999999655,
      "v": 70
    },
    {
      "midi": 59,
      "hit": false,
      "t": 127999.8720000002,
      "d": 1299.9986999999965,
      "v": 68
    },
    {
      "midi": 62,
      "hit": false,
      "t": 127999.8720000002,
      "d": 1371.427199999991,
      "v": 66
    },
    {
      "midi": 67,
      "hit": false,
      "t": 127999.8720000002,
      "d": 1476.1889999999985,
      "v": 80
    },
    {
      "midi": 71,
      "hit": false,
      "t": 127999.8720000002,
      "d": 1980.950399999987,
      "v": 76
    },
    {
      "midi": 59,
      "hit": false,
      "t": 129428.4420000002,
      "d": 323.80920000000333,
      "v": 80
    },
    {
      "midi": 62,
      "hit": false,
      "t": 129714.1560000002,
      "d": 161.9045999999944,
      "v": 98
    },
    {
      "midi": 57,
      "hit": false,
      "t": 130285.58400000019,
      "d": 1085.7132000000129,
      "v": 67
    },
    {
      "midi": 62,
      "hit": false,
      "t": 130285.58400000019,
      "d": 1119.0465000000113,
      "v": 70
    },
    {
      "midi": 69,
      "hit": false,
      "t": 130285.58400000019,
      "d": 1119.0465000000113,
      "v": 82
    },
    {
      "midi": 50,
      "hit": false,
      "t": 130285.58400000019,
      "d": 1142.8560000000143,
      "v": 55
    },
    {
      "midi": 55,
      "hit": false,
      "t": 131428.4400000002,
      "d": 1142.8559999999998,
      "v": 70
    },
    {
      "midi": 60,
      "hit": false,
      "t": 131428.4400000002,
      "d": 1142.8559999999998,
      "v": 70
    },
    {
      "midi": 64,
      "hit": false,
      "t": 131428.4400000002,
      "d": 1142.8559999999998,
      "v": 70
    },
    {
      "midi": 36,
      "hit": false,
      "t": 131709.3921000002,
      "d": 304.761599999998,
      "v": 70
    },
    {
      "midi": 48,
      "hit": false,
      "t": 132018.9156000002,
      "d": 233.33309999998892,
      "v": 70
    },
    {
      "midi": 36,
      "hit": false,
      "t": 132299.8677000002,
      "d": 219.04740000001038,
      "v": 70
    },
    {
      "midi": 62,
      "hit": false,
      "t": 132571.2960000002,
      "d": 485.7137999999977,
      "v": 53
    },
    {
      "midi": 43,
      "hit": false,
      "t": 132571.2960000002,
      "d": 657.142199999973,
      "v": 55
    },
    {
      "midi": 67,
      "hit": false,
      "t": 132571.2960000002,
      "d": 657.142199999973,
      "v": 78
    },
    {
      "midi": 59,
      "hit": false,
      "t": 133142.7240000002,
      "d": 85.71419999998761,
      "v": 76
    },
    {
      "midi": 62,
      "hit": false,
      "t": 133142.7240000002,
      "d": 109.52369999999064,
      "v": 69
    },
    {
      "midi": 62,
      "hit": false,
      "t": 133999.86600000018,
      "d": 119.04749999998603,
      "v": 89
    },
    {
      "midi": 55,
      "hit": false,
      "t": 133999.86600000018,
      "d": 138.0950999999768,
      "v": 72
    },
    {
      "midi": 57,
      "hit": false,
      "t": 134857.00800000015,
      "d": 1085.7131999999983,
      "v": 67
    },
    {
      "midi": 62,
      "hit": false,
      "t": 134857.00800000015,
      "d": 1119.0464999999967,
      "v": 70
    },
    {
      "midi": 69,
      "hit": false,
      "t": 134857.00800000015,
      "d": 1119.0464999999967,
      "v": 82
    },
    {
      "midi": 50,
      "hit": false,
      "t": 134857.00800000015,
      "d": 1142.8559999999998,
      "v": 55
    },
    {
      "midi": 55,
      "hit": false,
      "t": 135999.86400000015,
      "d": 1142.8559999999998,
      "v": 70
    },
    {
      "midi": 60,
      "hit": false,
      "t": 135999.86400000015,
      "d": 1142.8559999999998,
      "v": 70
    },
    {
      "midi": 64,
      "hit": false,
      "t": 135999.86400000015,
      "d": 1142.8559999999998,
      "v": 70
    },
    {
      "midi": 36,
      "hit": false,
      "t": 136280.81610000014,
      "d": 304.761599999998,
      "v": 70
    },
    {
      "midi": 48,
      "hit": false,
      "t": 136590.33960000015,
      "d": 233.33309999998892,
      "v": 70
    },
    {
      "midi": 36,
      "hit": false,
      "t": 136871.29170000015,
      "d": 219.04740000001038,
      "v": 70
    },
    {
      "midi": 59,
      "hit": false,
      "t": 137428.43400000015,
      "d": 176.19029999998747,
      "v": 59
    },
    {
      "midi": 71,
      "hit": false,
      "t": 137428.43400000015,
      "d": 176.19029999998747,
      "v": 61
    },
    {
      "midi": 74,
      "hit": false,
      "t": 137428.43400000015,
      "d": 195.23789999997825,
      "v": 67
    },
    {
      "midi": 67,
      "hit": false,
      "t": 137428.43400000015,
      "d": 204.76169999997364,
      "v": 67
    },
    {
      "midi": 71,
      "hit": false,
      "t": 137714.14800000013,
      "d": 104.7618000000075,
      "v": 78
    },
    {
      "midi": 67,
      "hit": false,
      "t": 137714.14800000013,
      "d": 119.04750000001513,
      "v": 76
    },
    {
      "midi": 74,
      "hit": false,
      "t": 137714.14800000013,
      "d": 142.85700000001816,
      "v": 73
    },
    {
      "midi": 59,
      "hit": false,
      "t": 137714.14800000013,
      "d": 147.6189000000304,
      "v": 65
    },
    {
      "midi": 43,
      "hit": false,
      "t": 137999.86200000017,
      "d": 657.142200000002,
      "v": 51
    },
    {
      "midi": 59,
      "hit": false,
      "t": 138285.57600000018,
      "d": 219.04740000001038,
      "v": 59
    },
    {
      "midi": 67,
      "hit": false,
      "t": 138285.57600000018,
      "d": 257.14260000002105,
      "v": 78
    },
    {
      "midi": 71,
      "hit": false,
      "t": 138285.57600000018,
      "d": 257.14260000002105,
      "v": 89
    },
    {
      "midi": 74,
      "hit": false,
      "t": 138285.57600000018,
      "d": 423.809099999984,
      "v": 86
    },
    {
      "midi": 71,
      "hit": false,
      "t": 138571.29000000018,
      "d": 85.71419999998761,
      "v": 89
    },
    {
      "midi": 67,
      "hit": false,
      "t": 138571.29000000018,
      "d": 109.52369999999064,
      "v": 71
    },
    {
      "midi": 59,
      "hit": false,
      "t": 138571.29000000018,
      "d": 138.0950999999768,
      "v": 57
    },
    {
      "midi": 57,
      "hit": false,
      "t": 139428.43200000015,
      "d": 1085.7131999999983,
      "v": 67
    },
    {
      "midi": 62,
      "hit": false,
      "t": 139428.43200000015,
      "d": 1119.0464999999967,
      "v": 70
    },
    {
      "midi": 69,
      "hit": false,
      "t": 139428.43200000015,
      "d": 1119.0464999999967,
      "v": 82
    },
    {
      "midi": 50,
      "hit": false,
      "t": 139428.43200000015,
      "d": 1142.8559999999998,
      "v": 55
    },
    {
      "midi": 55,
      "hit": false,
      "t": 140571.28800000015,
      "d": 1085.7131999999983,
      "v": 67
    },
    {
      "midi": 60,
      "hit": false,
      "t": 140571.28800000015,
      "d": 1119.0464999999967,
      "v": 70
    },
    {
      "midi": 67,
      "hit": false,
      "t": 140571.28800000015,
      "d": 1119.0464999999967,
      "v": 82
    },
    {
      "midi": 48,
      "hit": false,
      "t": 140571.28800000015,
      "d": 1142.8559999999998,
      "v": 55
    },
    {
      "midi": 55,
      "hit": false,
      "t": 142285.57200000016,
      "d": 195.23790000000736,
      "v": 72
    },
    {
      "midi": 62,
      "hit": false,
      "t": 142285.57200000016,
      "d": 199.9998000000196,
      "v": 64
    },
    {
      "midi": 62,
      "hit": false,
      "t": 142857.00000000017,
      "d": 214.28549999999814,
      "v": 70
    },
    {
      "midi": 55,
      "hit": false,
      "t": 142857.00000000017,
      "d": 219.04740000001038,
      "v": 64
    },
    {
      "midi": 62,
      "hit": false,
      "t": 143142.71400000018,
      "d": 157.1426999999967,
      "v": 74
    },
    {
      "midi": 55,
      "hit": false,
      "t": 143142.71400000018,
      "d": 166.66649999999208,
      "v": 77
    },
    {
      "midi": 57,
      "hit": false,
      "t": 143999.85600000017,
      "d": 519.0470999999961,
      "v": 71
    },
    {
      "midi": 69,
      "hit": false,
      "t": 143999.85600000017,
      "d": 1133.3321999999753,
      "v": 64
    },
    {
      "midi": 66,
      "hit": false,
      "t": 143999.85600000017,
      "d": 1142.8559999999707,
      "v": 75
    },
    {
      "midi": 57,
      "hit": false,
      "t": 144571.28400000016,
      "d": 571.4279999999853,
      "v": 69
    },
    {
      "midi": 62,
      "hit": false,
      "t": 144856.99800000017,
      "d": 247.61879999999655,
      "v": 71
    },
    {
      "midi": 55,
      "hit": false,
      "t": 145142.71200000015,
      "d": 1085.7131999999983,
      "v": 67
    },
    {
      "midi": 60,
      "hit": false,
      "t": 145142.71200000015,
      "d": 1119.0464999999967,
      "v": 70
    },
    {
      "midi": 67,
      "hit": false,
      "t": 145142.71200000015,
      "d": 1119.0464999999967,
      "v": 82
    },
    {
      "midi": 48,
      "hit": false,
      "t": 145142.71200000015,
      "d": 1142.8559999999998,
      "v": 55
    },
    {
      "midi": 62,
      "hit": false,
      "t": 146285.56800000014,
      "d": 485.7137999999977,
      "v": 53
    },
    {
      "midi": 43,
      "hit": false,
      "t": 146285.56800000014,
      "d": 657.142199999973,
      "v": 55
    },
    {
      "midi": 67,
      "hit": false,
      "t": 146285.56800000014,
      "d": 657.142199999973,
      "v": 78
    },
    {
      "midi": 59,
      "hit": false,
      "t": 146856.99600000013,
      "d": 85.71419999998761,
      "v": 76
    },
    {
      "midi": 62,
      "hit": false,
      "t": 146856.99600000013,
      "d": 109.52369999999064,
      "v": 69
    },
    {
      "midi": 62,
      "hit": false,
      "t": 147714.13800000012,
      "d": 119.04749999998603,
      "v": 89
    },
    {
      "midi": 55,
      "hit": false,
      "t": 147714.13800000012,
      "d": 138.0950999999768,
      "v": 72
    },
    {
      "midi": 57,
      "hit": false,
      "t": 148571.2800000001,
      "d": 1085.7132000000274,
      "v": 67
    },
    {
      "midi": 62,
      "hit": false,
      "t": 148571.2800000001,
      "d": 1119.0465000000258,
      "v": 70
    },
    {
      "midi": 69,
      "hit": false,
      "t": 148571.2800000001,
      "d": 1119.0465000000258,
      "v": 82
    },
    {
      "midi": 50,
      "hit": false,
      "t": 148571.2800000001,
      "d": 1142.8560000000289,
      "v": 55
    },
    {
      "midi": 55,
      "hit": false,
      "t": 149714.13600000012,
      "d": 1085.7132000000274,
      "v": 67
    },
    {
      "midi": 60,
      "hit": false,
      "t": 149714.13600000012,
      "d": 1119.0465000000258,
      "v": 70
    },
    {
      "midi": 67,
      "hit": false,
      "t": 149714.13600000012,
      "d": 1119.0465000000258,
      "v": 82
    },
    {
      "midi": 48,
      "hit": false,
      "t": 149714.13600000012,
      "d": 1142.8560000000289,
      "v": 55
    },
    {
      "midi": 59,
      "hit": false,
      "t": 151142.70600000015,
      "d": 176.19029999998747,
      "v": 59
    },
    {
      "midi": 71,
      "hit": false,
      "t": 151142.70600000015,
      "d": 176.19029999998747,
      "v": 61
    },
    {
      "midi": 74,
      "hit": false,
      "t": 151142.70600000015,
      "d": 195.23789999997825,
      "v": 67
    },
    {
      "midi": 67,
      "hit": false,
      "t": 151142.70600000015,
      "d": 204.76169999997364,
      "v": 67
    },
    {
      "midi": 71,
      "hit": false,
      "t": 151428.42000000013,
      "d": 104.7618000000075,
      "v": 78
    },
    {
      "midi": 67,
      "hit": false,
      "t": 151428.42000000013,
      "d": 119.04750000001513,
      "v": 76
    },
    {
      "midi": 74,
      "hit": false,
      "t": 151428.42000000013,
      "d": 142.85700000001816,
      "v": 73
    },
    {
      "midi": 59,
      "hit": false,
      "t": 151428.42000000013,
      "d": 147.6189000000304,
      "v": 65
    },
    {
      "midi": 43,
      "hit": false,
      "t": 151714.13400000017,
      "d": 657.142200000002,
      "v": 51
    },
    {
      "midi": 59,
      "hit": false,
      "t": 151999.84800000017,
      "d": 219.04740000001038,
      "v": 59
    },
    {
      "midi": 67,
      "hit": false,
      "t": 151999.84800000017,
      "d": 257.14260000002105,
      "v": 78
    },
    {
      "midi": 71,
      "hit": false,
      "t": 151999.84800000017,
      "d": 257.14260000002105,
      "v": 89
    },
    {
      "midi": 74,
      "hit": false,
      "t": 151999.84800000017,
      "d": 423.809099999984,
      "v": 86
    },
    {
      "midi": 71,
      "hit": false,
      "t": 152285.56200000018,
      "d": 85.71419999998761,
      "v": 89
    },
    {
      "midi": 67,
      "hit": false,
      "t": 152285.56200000018,
      "d": 109.52369999999064,
      "v": 71
    },
    {
      "midi": 59,
      "hit": false,
      "t": 152285.56200000018,
      "d": 138.0950999999768,
      "v": 57
    },
    {
      "midi": 57,
      "hit": false,
      "t": 153142.70400000017,
      "d": 1085.7132000000274,
      "v": 67
    },
    {
      "midi": 62,
      "hit": false,
      "t": 153142.70400000017,
      "d": 1119.0465000000258,
      "v": 70
    },
    {
      "midi": 69,
      "hit": false,
      "t": 153142.70400000017,
      "d": 1119.0465000000258,
      "v": 82
    },
    {
      "midi": 50,
      "hit": false,
      "t": 153142.70400000017,
      "d": 1142.8560000000289,
      "v": 55
    },
    {
      "midi": 55,
      "hit": false,
      "t": 154285.5600000002,
      "d": 519.0470999999961,
      "v": 71
    },
    {
      "midi": 67,
      "hit": false,
      "t": 154285.5600000002,
      "d": 1133.3321999999753,
      "v": 64
    },
    {
      "midi": 64,
      "hit": false,
      "t": 154285.5600000002,
      "d": 1142.8559999999707,
      "v": 75
    },
    {
      "midi": 55,
      "hit": false,
      "t": 154856.9880000002,
      "d": 571.4279999999853,
      "v": 69
    },
    {
      "midi": 60,
      "hit": false,
      "t": 155142.7020000002,
      "d": 247.61879999999655,
      "v": 71
    },
    {
      "midi": 55,
      "hit": false,
      "t": 155999.8440000002,
      "d": 195.23790000000736,
      "v": 72
    },
    {
      "midi": 62,
      "hit": false,
      "t": 155999.8440000002,
      "d": 199.9998000000196,
      "v": 64
    },
    {
      "midi": 62,
      "hit": false,
      "t": 156571.2720000002,
      "d": 214.28549999999814,
      "v": 70
    },
    {
      "midi": 55,
      "hit": false,
      "t": 156571.2720000002,
      "d": 219.04740000001038,
      "v": 64
    },
    {
      "midi": 62,
      "hit": false,
      "t": 156856.9860000002,
      "d": 157.1426999999967,
      "v": 74
    },
    {
      "midi": 55,
      "hit": false,
      "t": 156856.9860000002,
      "d": 166.66649999999208,
      "v": 77
    },
    {
      "midi": 57,
      "hit": false,
      "t": 157714.1280000002,
      "d": 519.0470999999961,
      "v": 71
    },
    {
      "midi": 69,
      "hit": false,
      "t": 157714.1280000002,
      "d": 1133.3321999999753,
      "v": 64
    },
    {
      "midi": 66,
      "hit": false,
      "t": 157714.1280000002,
      "d": 1142.8559999999707,
      "v": 75
    },
    {
      "midi": 57,
      "hit": false,
      "t": 158285.5560000002,
      "d": 571.4279999999853,
      "v": 69
    },
    {
      "midi": 62,
      "hit": false,
      "t": 158571.2700000002,
      "d": 247.61879999999655,
      "v": 71
    },
    {
      "midi": 55,
      "hit": false,
      "t": 158856.98400000017,
      "d": 1085.7132000000274,
      "v": 67
    },
    {
      "midi": 60,
      "hit": false,
      "t": 158856.98400000017,
      "d": 1119.0465000000258,
      "v": 70
    },
    {
      "midi": 67,
      "hit": false,
      "t": 158856.98400000017,
      "d": 1119.0465000000258,
      "v": 82
    },
    {
      "midi": 48,
      "hit": false,
      "t": 158856.98400000017,
      "d": 1142.8560000000289,
      "v": 55
    },
    {
      "midi": 59,
      "hit": false,
      "t": 160285.5540000002,
      "d": 176.19029999998747,
      "v": 59
    },
    {
      "midi": 71,
      "hit": false,
      "t": 160285.5540000002,
      "d": 176.19029999998747,
      "v": 61
    },
    {
      "midi": 74,
      "hit": false,
      "t": 160285.5540000002,
      "d": 195.23789999997825,
      "v": 67
    },
    {
      "midi": 67,
      "hit": false,
      "t": 160285.5540000002,
      "d": 204.76169999997364,
      "v": 67
    },
    {
      "midi": 71,
      "hit": false,
      "t": 160571.2680000002,
      "d": 104.7618000000075,
      "v": 78
    },
    {
      "midi": 67,
      "hit": false,
      "t": 160571.2680000002,
      "d": 119.04750000001513,
      "v": 76
    },
    {
      "midi": 74,
      "hit": false,
      "t": 160571.2680000002,
      "d": 142.85700000001816,
      "v": 73
    },
    {
      "midi": 59,
      "hit": false,
      "t": 160571.2680000002,
      "d": 147.6189000000304,
      "v": 65
    },
    {
      "midi": 43,
      "hit": false,
      "t": 160856.98200000022,
      "d": 657.142200000002,
      "v": 51
    },
    {
      "midi": 59,
      "hit": false,
      "t": 161142.69600000023,
      "d": 219.04740000001038,
      "v": 59
    },
    {
      "midi": 67,
      "hit": false,
      "t": 161142.69600000023,
      "d": 257.14260000002105,
      "v": 78
    },
    {
      "midi": 71,
      "hit": false,
      "t": 161142.69600000023,
      "d": 257.14260000002105,
      "v": 89
    },
    {
      "midi": 74,
      "hit": false,
      "t": 161142.69600000023,
      "d": 423.809099999984,
      "v": 86
    },
    {
      "midi": 71,
      "hit": false,
      "t": 161428.41000000024,
      "d": 85.71419999998761,
      "v": 89
    },
    {
      "midi": 67,
      "hit": false,
      "t": 161428.41000000024,
      "d": 109.52369999999064,
      "v": 71
    },
    {
      "midi": 59,
      "hit": false,
      "t": 161428.41000000024,
      "d": 138.0950999999768,
      "v": 57
    },
    {
      "midi": 57,
      "hit": false,
      "t": 162285.55200000023,
      "d": 1085.7132000000274,
      "v": 67
    },
    {
      "midi": 62,
      "hit": false,
      "t": 162285.55200000023,
      "d": 1119.0465000000258,
      "v": 70
    },
    {
      "midi": 69,
      "hit": false,
      "t": 162285.55200000023,
      "d": 1119.0465000000258,
      "v": 82
    },
    {
      "midi": 50,
      "hit": false,
      "t": 162285.55200000023,
      "d": 1142.8560000000289,
      "v": 55
    },
    {
      "midi": 55,
      "hit": false,
      "t": 163428.40800000026,
      "d": 1085.7132000000274,
      "v": 67
    },
    {
      "midi": 60,
      "hit": false,
      "t": 163428.40800000026,
      "d": 1119.0465000000258,
      "v": 70
    },
    {
      "midi": 67,
      "hit": false,
      "t": 163428.40800000026,
      "d": 1119.0465000000258,
      "v": 82
    },
    {
      "midi": 48,
      "hit": false,
      "t": 163428.40800000026,
      "d": 1142.8560000000289,
      "v": 55
    },
    {
      "midi": 43,
      "hit": false,
      "t": 164856.9780000003,
      "d": 309.52350000001024,
      "v": 55
    },
    {
      "midi": 59,
      "hit": false,
      "t": 165142.6920000003,
      "d": 147.6189000000013,
      "v": 77
    },
    {
      "midi": 67,
      "hit": false,
      "t": 165142.6920000003,
      "d": 185.71410000001197,
      "v": 88
    },
    {
      "midi": 43,
      "hit": false,
      "t": 165999.83400000032,
      "d": 28.57139999998617,
      "v": 30
    },
    {
      "midi": 59,
      "hit": false,
      "t": 165999.83400000032,
      "d": 109.52369999999064,
      "v": 82
    },
    {
      "midi": 67,
      "hit": false,
      "t": 165999.83400000032,
      "d": 128.57129999998142,
      "v": 88
    }
  ]
}