{
  "jsonPath": "World/Australian Pop/Damien Leith/annies-song.json",
  "path": "World\\Australian Pop\\Damien Leith\\Annies Song.mid",
  "name": "Annies Song",
  "difficulty": "Advanced",
  "bpm": 80,
  "notes": [
    {
      "midi": 74,
      "hit": false,
      "t": 0,
      "d": 118.75,
      "v": 66
    },
    {
      "midi": 50,
      "hit": false,
      "t": 0,
      "d": 4431.25,
      "v": 63
    },
    {
      "midi": 62,
      "hit": false,
      "t": 0,
      "d": 9093.75,
      "v": 78
    },
    {
      "midi": 78,
      "hit": false,
      "t": 6.25,
      "d": 118.75,
      "v": 50
    },
    {
      "midi": 81,
      "hit": false,
      "t": 50,
      "d": 381.25,
      "v": 76
    },
    {
      "midi": 78,
      "hit": false,
      "t": 381.25,
      "d": 362.5,
      "v": 78
    },
    {
      "midi": 74,
      "hit": false,
      "t": 737.5,
      "d": 450,
      "v": 80
    },
    {
      "midi": 81,
      "hit": false,
      "t": 1137.5,
      "d": 456.25,
      "v": 98
    },
    {
      "midi": 78,
      "hit": false,
      "t": 1506.25,
      "d": 362.5,
      "v": 82
    },
    {
      "midi": 74,
      "hit": false,
      "t": 1887.5,
      "d": 425,
      "v": 78
    },
    {
      "midi": 81,
      "hit": false,
      "t": 2268.75,
      "d": 443.75,
      "v": 84
    },
    {
      "midi": 78,
      "hit": false,
      "t": 2662.5,
      "d": 312.5,
      "v": 79
    },
    {
      "midi": 74,
      "hit": false,
      "t": 3006.25,
      "d": 406.25,
      "v": 62
    },
    {
      "midi": 81,
      "hit": false,
      "t": 3375,
      "d": 431.25,
      "v": 67
    },
    {
      "midi": 78,
      "hit": false,
      "t": 3750,
      "d": 356.25,
      "v": 52
    },
    {
      "midi": 81,
      "hit": false,
      "t": 4131.25,
      "d": 206.25,
      "v": 81
    },
    {
      "midi": 78,
      "hit": false,
      "t": 4306.25,
      "d": 131.25,
      "v": 92
    },
    {
      "midi": 74,
      "hit": false,
      "t": 4512.5,
      "d": 100,
      "v": 72
    },
    {
      "midi": 50,
      "hit": false,
      "t": 4518.75,
      "d": 4562.5,
      "v": 91
    },
    {
      "midi": 81,
      "hit": false,
      "t": 4525,
      "d": 737.5,
      "v": 109
    },
    {
      "midi": 78,
      "hit": false,
      "t": 4887.5,
      "d": 356.25,
      "v": 57
    },
    {
      "midi": 74,
      "hit": false,
      "t": 5256.25,
      "d": 418.75,
      "v": 79
    },
    {
      "midi": 81,
      "hit": false,
      "t": 5631.25,
      "d": 637.5,
      "v": 62
    },
    {
      "midi": 78,
      "hit": false,
      "t": 6000,
      "d": 368.75,
      "v": 50
    },
    {
      "midi": 74,
      "hit": false,
      "t": 6356.25,
      "d": 643.75,
      "v": 82
    },
    {
      "midi": 81,
      "hit": false,
      "t": 6756.25,
      "d": 25,
      "v": 83
    },
    {
      "midi": 78,
      "hit": false,
      "t": 6756.25,
      "d": 1937.5,
      "v": 94
    },
    {
      "midi": 74,
      "hit": false,
      "t": 7500,
      "d": 81.25,
      "v": 114
    },
    {
      "midi": 74,
      "hit": false,
      "t": 7943.75,
      "d": 343.75,
      "v": 102
    },
    {
      "midi": 73,
      "hit": false,
      "t": 8250,
      "d": 368.75,
      "v": 81
    },
    {
      "midi": 71,
      "hit": false,
      "t": 8631.25,
      "d": 431.25,
      "v": 105
    },
    {
      "midi": 43,
      "hit": false,
      "t": 8931.25,
      "d": 818.75,
      "v": 67
    },
    {
      "midi": 67,
      "hit": false,
      "t": 8943.75,
      "d": 181.25,
      "v": 38
    },
    {
      "midi": 74,
      "hit": false,
      "t": 9000,
      "d": 1118.75,
      "v": 113
    },
    {
      "midi": 55,
      "hit": false,
      "t": 9012.5,
      "d": 856.25,
      "v": 69
    },
    {
      "midi": 74,
      "hit": false,
      "t": 9062.5,
      "d": 318.75,
      "v": 73
    },
    {
      "midi": 71,
      "hit": false,
      "t": 9068.75,
      "d": 287.5,
      "v": 55
    },
    {
      "midi": 67,
      "hit": false,
      "t": 9393.75,
      "d": 406.25,
      "v": 78
    },
    {
      "midi": 71,
      "hit": false,
      "t": 9718.75,
      "d": 131.25,
      "v": 80
    },
    {
      "midi": 76,
      "hit": false,
      "t": 10087.5,
      "d": 500,
      "v": 77
    },
    {
      "midi": 45,
      "hit": false,
      "t": 10087.5,
      "d": 825,
      "v": 74
    },
    {
      "midi": 69,
      "hit": false,
      "t": 10093.75,
      "d": 150,
      "v": 84
    },
    {
      "midi": 73,
      "hit": false,
      "t": 10093.75,
      "d": 500,
      "v": 88
    },
    {
      "midi": 57,
      "hit": false,
      "t": 10093.75,
      "d": 806.25,
      "v": 81
    },
    {
      "midi": 73,
      "hit": false,
      "t": 10125,
      "d": 1118.75,
      "v": 107
    },
    {
      "midi": 69,
      "hit": false,
      "t": 10450,
      "d": 200,
      "v": 78
    },
    {
      "midi": 76,
      "hit": false,
      "t": 10825,
      "d": 100,
      "v": 61
    },
    {
      "midi": 69,
      "hit": false,
      "t": 10825,
      "d": 118.75,
      "v": 50
    },
    {
      "midi": 47,
      "hit": false,
      "t": 11218.75,
      "d": 2150,
      "v": 67
    },
    {
      "midi": 59,
      "hit": false,
      "t": 11218.75,
      "d": 2162.5,
      "v": 64
    },
    {
      "midi": 78,
      "hit": false,
      "t": 11231.25,
      "d": 475,
      "v": 106
    },
    {
      "midi": 71,
      "hit": false,
      "t": 11237.5,
      "d": 212.5,
      "v": 81
    },
    {
      "midi": 74,
      "hit": false,
      "t": 11237.5,
      "d": 437.5,
      "v": 94
    },
    {
      "midi": 71,
      "hit": false,
      "t": 11250,
      "d": 368.75,
      "v": 27
    },
    {
      "midi": 71,
      "hit": false,
      "t": 11606.25,
      "d": 300,
      "v": 87
    },
    {
      "midi": 74,
      "hit": false,
      "t": 12000,
      "d": 118.75,
      "v": 101
    },
    {
      "midi": 71,
      "hit": false,
      "t": 12000,
      "d": 368.75,
      "v": 103
    },
    {
      "midi": 74,
      "hit": false,
      "t": 12375,
      "d": 106.25,
      "v": 113
    },
    {
      "midi": 69,
      "hit": false,
      "t": 12375,
      "d": 368.75,
      "v": 86
    },
    {
      "midi": 71,
      "hit": false,
      "t": 12375,
      "d": 368.75,
      "v": 81
    },
    {
      "midi": 73,
      "hit": false,
      "t": 12737.5,
      "d": 262.5,
      "v": 109
    },
    {
      "midi": 73,
      "hit": false,
      "t": 12750,
      "d": 368.75,
      "v": 100
    },
    {
      "midi": 71,
      "hit": false,
      "t": 13112.5,
      "d": 250,
      "v": 99
    },
    {
      "midi": 74,
      "hit": false,
      "t": 13125,
      "d": 368.75,
      "v": 102
    },
    {
      "midi": 50,
      "hit": false,
      "t": 13443.75,
      "d": 843.75,
      "v": 55
    },
    {
      "midi": 74,
      "hit": false,
      "t": 13462.5,
      "d": 162.5,
      "v": 75
    },
    {
      "midi": 69,
      "hit": false,
      "t": 13500,
      "d": 368.75,
      "v": 110
    },
    {
      "midi": 62,
      "hit": false,
      "t": 13506.25,
      "d": 925,
      "v": 81
    },
    {
      "midi": 81,
      "hit": false,
      "t": 13537.5,
      "d": 368.75,
      "v": 93
    },
    {
      "midi": 78,
      "hit": false,
      "t": 13543.75,
      "d": 181.25,
      "v": 74
    },
    {
      "midi": 66,
      "hit": false,
      "t": 13875,
      "d": 2243.75,
      "v": 105
    },
    {
      "midi": 74,
      "hit": false,
      "t": 13893.75,
      "d": 787.5,
      "v": 52
    },
    {
      "midi": 78,
      "hit": false,
      "t": 14237.5,
      "d": 437.5,
      "v": 101
    },
    {
      "midi": 81,
      "hit": false,
      "t": 14243.75,
      "d": 450,
      "v": 68
    },
    {
      "midi": 61,
      "hit": false,
      "t": 14587.5,
      "d": 856.25,
      "v": 115
    },
    {
      "midi": 74,
      "hit": false,
      "t": 14975,
      "d": 262.5,
      "v": 94
    },
    {
      "midi": 74,
      "hit": false,
      "t": 15350,
      "d": 437.5,
      "v": 78
    },
    {
      "midi": 78,
      "hit": false,
      "t": 15350,
      "d": 437.5,
      "v": 106
    },
    {
      "midi": 81,
      "hit": false,
      "t": 15356.25,
      "d": 443.75,
      "v": 92
    },
    {
      "midi": 59,
      "hit": false,
      "t": 15731.25,
      "d": 862.5,
      "v": 109
    },
    {
      "midi": 74,
      "hit": false,
      "t": 16075,
      "d": 356.25,
      "v": 58
    },
    {
      "midi": 78,
      "hit": false,
      "t": 16493.75,
      "d": 868.75,
      "v": 99
    },
    {
      "midi": 74,
      "hit": false,
      "t": 16493.75,
      "d": 912.5,
      "v": 48
    },
    {
      "midi": 81,
      "hit": false,
      "t": 16500,
      "d": 868.75,
      "v": 85
    },
    {
      "midi": 69,
      "hit": false,
      "t": 16500,
      "d": 368.75,
      "v": 86
    },
    {
      "midi": 57,
      "hit": false,
      "t": 16862.5,
      "d": 318.75,
      "v": 105
    },
    {
      "midi": 69,
      "hit": false,
      "t": 16875,
      "d": 368.75,
      "v": 83
    },
    {
      "midi": 59,
      "hit": false,
      "t": 17212.5,
      "d": 462.5,
      "v": 54
    },
    {
      "midi": 71,
      "hit": false,
      "t": 17250,
      "d": 368.75,
      "v": 94
    },
    {
      "midi": 61,
      "hit": false,
      "t": 17587.5,
      "d": 200,
      "v": 102
    },
    {
      "midi": 73,
      "hit": false,
      "t": 17625,
      "d": 368.75,
      "v": 115
    },
    {
      "midi": 55,
      "hit": false,
      "t": 17962.5,
      "d": 1125,
      "v": 107
    },
    {
      "midi": 74,
      "hit": false,
      "t": 17975,
      "d": 456.25,
      "v": 99
    },
    {
      "midi": 67,
      "hit": false,
      "t": 17981.25,
      "d": 243.75,
      "v": 94
    },
    {
      "midi": 71,
      "hit": false,
      "t": 17981.25,
      "d": 443.75,
      "v": 103
    },
    {
      "midi": 74,
      "hit": false,
      "t": 18000,
      "d": 1118.75,
      "v": 113
    },
    {
      "midi": 67,
      "hit": false,
      "t": 18381.25,
      "d": 262.5,
      "v": 68
    },
    {
      "midi": 71,
      "hit": false,
      "t": 18731.25,
      "d": 525,
      "v": 83
    },
    {
      "midi": 67,
      "hit": false,
      "t": 18737.5,
      "d": 475,
      "v": 61
    },
    {
      "midi": 74,
      "hit": false,
      "t": 18737.5,
      "d": 531.25,
      "v": 74
    },
    {
      "midi": 54,
      "hit": false,
      "t": 19112.5,
      "d": 1012.5,
      "v": 114
    },
    {
      "midi": 73,
      "hit": false,
      "t": 19125,
      "d": 1118.75,
      "v": 102
    },
    {
      "midi": 67,
      "hit": false,
      "t": 19487.5,
      "d": 250,
      "v": 78
    },
    {
      "midi": 74,
      "hit": false,
      "t": 19862.5,
      "d": 156.25,
      "v": 81
    },
    {
      "midi": 52,
      "hit": false,
      "t": 20212.5,
      "d": 2237.5,
      "v": 72
    },
    {
      "midi": 64,
      "hit": false,
      "t": 20218.75,
      "d": 225,
      "v": 98
    },
    {
      "midi": 71,
      "hit": false,
      "t": 20218.75,
      "d": 468.75,
      "v": 82
    },
    {
      "midi": 67,
      "hit": false,
      "t": 20218.75,
      "d": 531.25,
      "v": 94
    },
    {
      "midi": 71,
      "hit": false,
      "t": 20250,
      "d": 368.75,
      "v": 35
    },
    {
      "midi": 64,
      "hit": false,
      "t": 20587.5,
      "d": 237.5,
      "v": 66
    },
    {
      "midi": 71,
      "hit": false,
      "t": 20981.25,
      "d": 300,
      "v": 81
    },
    {
      "midi": 71,
      "hit": false,
      "t": 21000,
      "d": 368.75,
      "v": 102
    },
    {
      "midi": 71,
      "hit": false,
      "t": 21356.25,
      "d": 187.5,
      "v": 69
    },
    {
      "midi": 71,
      "hit": false,
      "t": 21375,
      "d": 368.75,
      "v": 103
    },
    {
      "midi": 73,
      "hit": false,
      "t": 21743.75,
      "d": 93.75,
      "v": 109
    },
    {
      "midi": 73,
      "hit": false,
      "t": 21750,
      "d": 368.75,
      "v": 101
    },
    {
      "midi": 74,
      "hit": false,
      "t": 22100,
      "d": 106.25,
      "v": 102
    },
    {
      "midi": 74,
      "hit": false,
      "t": 22125,
      "d": 368.75,
      "v": 101
    },
    {
      "midi": 45,
      "hit": false,
      "t": 22400,
      "d": 2243.75,
      "v": 63
    },
    {
      "midi": 57,
      "hit": false,
      "t": 22418.75,
      "d": 2237.5,
      "v": 75
    },
    {
      "midi": 69,
      "hit": false,
      "t": 22481.25,
      "d": 137.5,
      "v": 88
    },
    {
      "midi": 76,
      "hit": false,
      "t": 22500,
      "d": 2993.75,
      "v": 102
    },
    {
      "midi": 73,
      "hit": false,
      "t": 22512.5,
      "d": 325,
      "v": 34
    },
    {
      "midi": 76,
      "hit": false,
      "t": 22518.75,
      "d": 425,
      "v": 71
    },
    {
      "midi": 69,
      "hit": false,
      "t": 22862.5,
      "d": 606.25,
      "v": 83
    },
    {
      "midi": 73,
      "hit": false,
      "t": 23231.25,
      "d": 712.5,
      "v": 75
    },
    {
      "midi": 81,
      "hit": false,
      "t": 23612.5,
      "d": 537.5,
      "v": 100
    },
    {
      "midi": 69,
      "hit": false,
      "t": 23987.5,
      "d": 631.25,
      "v": 56
    },
    {
      "midi": 73,
      "hit": false,
      "t": 24356.25,
      "d": 237.5,
      "v": 67
    },
    {
      "midi": 73,
      "hit": false,
      "t": 24737.5,
      "d": 468.75,
      "v": 68
    },
    {
      "midi": 76,
      "hit": false,
      "t": 24737.5,
      "d": 531.25,
      "v": 76
    },
    {
      "midi": 69,
      "hit": false,
      "t": 24743.75,
      "d": 162.5,
      "v": 63
    },
    {
      "midi": 57,
      "hit": false,
      "t": 24750,
      "d": 1068.75,
      "v": 76
    },
    {
      "midi": 45,
      "hit": false,
      "t": 24750,
      "d": 1081.25,
      "v": 85
    },
    {
      "midi": 69,
      "hit": false,
      "t": 25106.25,
      "d": 275,
      "v": 73
    },
    {
      "midi": 74,
      "hit": false,
      "t": 25500,
      "d": 156.25,
      "v": 75
    },
    {
      "midi": 74,
      "hit": false,
      "t": 25500,
      "d": 368.75,
      "v": 76
    },
    {
      "midi": 74,
      "hit": false,
      "t": 25868.75,
      "d": 325,
      "v": 99
    },
    {
      "midi": 74,
      "hit": false,
      "t": 25875,
      "d": 368.75,
      "v": 111
    },
    {
      "midi": 73,
      "hit": false,
      "t": 26225,
      "d": 343.75,
      "v": 68
    },
    {
      "midi": 73,
      "hit": false,
      "t": 26250,
      "d": 368.75,
      "v": 100
    },
    {
      "midi": 71,
      "hit": false,
      "t": 26587.5,
      "d": 156.25,
      "v": 53
    },
    {
      "midi": 71,
      "hit": false,
      "t": 26625,
      "d": 368.75,
      "v": 86
    },
    {
      "midi": 71,
      "hit": false,
      "t": 26987.5,
      "d": 712.5,
      "v": 90
    },
    {
      "midi": 74,
      "hit": false,
      "t": 26993.75,
      "d": 675,
      "v": 96
    },
    {
      "midi": 67,
      "hit": false,
      "t": 26993.75,
      "d": 906.25,
      "v": 83
    },
    {
      "midi": 74,
      "hit": false,
      "t": 27000,
      "d": 1118.75,
      "v": 113
    },
    {
      "midi": 55,
      "hit": false,
      "t": 27362.5,
      "d": 618.75,
      "v": 71
    },
    {
      "midi": 43,
      "hit": false,
      "t": 27731.25,
      "d": 187.5,
      "v": 66
    },
    {
      "midi": 45,
      "hit": false,
      "t": 27737.5,
      "d": 162.5,
      "v": 56
    },
    {
      "midi": 71,
      "hit": false,
      "t": 27750,
      "d": 143.75,
      "v": 64
    },
    {
      "midi": 74,
      "hit": false,
      "t": 27750,
      "d": 193.75,
      "v": 78
    },
    {
      "midi": 73,
      "hit": false,
      "t": 28106.25,
      "d": 587.5,
      "v": 78
    },
    {
      "midi": 69,
      "hit": false,
      "t": 28112.5,
      "d": 293.75,
      "v": 69
    },
    {
      "midi": 76,
      "hit": false,
      "t": 28112.5,
      "d": 550,
      "v": 89
    },
    {
      "midi": 45,
      "hit": false,
      "t": 28112.5,
      "d": 881.25,
      "v": 68
    },
    {
      "midi": 57,
      "hit": false,
      "t": 28118.75,
      "d": 887.5,
      "v": 98
    },
    {
      "midi": 73,
      "hit": false,
      "t": 28125,
      "d": 1118.75,
      "v": 86
    },
    {
      "midi": 69,
      "hit": false,
      "t": 28493.75,
      "d": 250,
      "v": 88
    },
    {
      "midi": 69,
      "hit": false,
      "t": 28856.25,
      "d": 156.25,
      "v": 61
    },
    {
      "midi": 76,
      "hit": false,
      "t": 28862.5,
      "d": 131.25,
      "v": 81
    },
    {
      "midi": 73,
      "hit": false,
      "t": 28881.25,
      "d": 81.25,
      "v": 49
    },
    {
      "midi": 71,
      "hit": false,
      "t": 29231.25,
      "d": 318.75,
      "v": 85
    },
    {
      "midi": 78,
      "hit": false,
      "t": 29243.75,
      "d": 493.75,
      "v": 111
    },
    {
      "midi": 74,
      "hit": false,
      "t": 29243.75,
      "d": 518.75,
      "v": 100
    },
    {
      "midi": 59,
      "hit": false,
      "t": 29243.75,
      "d": 1218.75,
      "v": 84
    },
    {
      "midi": 71,
      "hit": false,
      "t": 29250,
      "d": 743.75,
      "v": 80
    },
    {
      "midi": 47,
      "hit": false,
      "t": 29256.25,
      "d": 1162.5,
      "v": 74
    },
    {
      "midi": 71,
      "hit": false,
      "t": 29637.5,
      "d": 231.25,
      "v": 77
    },
    {
      "midi": 71,
      "hit": false,
      "t": 30000,
      "d": 368.75,
      "v": 83
    },
    {
      "midi": 74,
      "hit": false,
      "t": 30062.5,
      "d": 62.5,
      "v": 74
    },
    {
      "midi": 74,
      "hit": false,
      "t": 30231.25,
      "d": 68.75,
      "v": 81
    },
    {
      "midi": 71,
      "hit": false,
      "t": 30375,
      "d": 368.75,
      "v": 81
    },
    {
      "midi": 74,
      "hit": false,
      "t": 30406.25,
      "d": 131.25,
      "v": 71
    },
    {
      "midi": 73,
      "hit": false,
      "t": 30706.25,
      "d": 350,
      "v": 51
    },
    {
      "midi": 73,
      "hit": false,
      "t": 30750,
      "d": 368.75,
      "v": 97
    },
    {
      "midi": 71,
      "hit": false,
      "t": 31100,
      "d": 125,
      "v": 63
    },
    {
      "midi": 74,
      "hit": false,
      "t": 31125,
      "d": 368.75,
      "v": 100
    },
    {
      "midi": 66,
      "hit": false,
      "t": 31468.75,
      "d": 725,
      "v": 83
    },
    {
      "midi": 69,
      "hit": false,
      "t": 31475,
      "d": 650,
      "v": 85
    },
    {
      "midi": 62,
      "hit": false,
      "t": 31481.25,
      "d": 518.75,
      "v": 91
    },
    {
      "midi": 69,
      "hit": false,
      "t": 31500,
      "d": 368.75,
      "v": 100
    },
    {
      "midi": 50,
      "hit": false,
      "t": 31818.75,
      "d": 793.75,
      "v": 52
    },
    {
      "midi": 66,
      "hit": false,
      "t": 31875,
      "d": 2243.75,
      "v": 92
    },
    {
      "midi": 62,
      "hit": false,
      "t": 32200,
      "d": 456.25,
      "v": 85
    },
    {
      "midi": 69,
      "hit": false,
      "t": 32581.25,
      "d": 393.75,
      "v": 96
    },
    {
      "midi": 49,
      "hit": false,
      "t": 32581.25,
      "d": 918.75,
      "v": 106
    },
    {
      "midi": 66,
      "hit": false,
      "t": 32587.5,
      "d": 412.5,
      "v": 83
    },
    {
      "midi": 62,
      "hit": false,
      "t": 32962.5,
      "d": 762.5,
      "v": 82
    },
    {
      "midi": 69,
      "hit": false,
      "t": 33325,
      "d": 437.5,
      "v": 89
    },
    {
      "midi": 66,
      "hit": false,
      "t": 33325,
      "d": 443.75,
      "v": 81
    },
    {
      "midi": 47,
      "hit": false,
      "t": 33718.75,
      "d": 943.75,
      "v": 106
    },
    {
      "midi": 62,
      "hit": false,
      "t": 34081.25,
      "d": 281.25,
      "v": 62
    },
    {
      "midi": 66,
      "hit": false,
      "t": 34500,
      "d": 1181.25,
      "v": 58
    },
    {
      "midi": 69,
      "hit": false,
      "t": 34500,
      "d": 368.75,
      "v": 65
    },
    {
      "midi": 62,
      "hit": false,
      "t": 34506.25,
      "d": 1150,
      "v": 58
    },
    {
      "midi": 69,
      "hit": false,
      "t": 34506.25,
      "d": 1181.25,
      "v": 63
    },
    {
      "midi": 45,
      "hit": false,
      "t": 34850,
      "d": 368.75,
      "v": 101
    },
    {
      "midi": 69,
      "hit": false,
      "t": 34875,
      "d": 368.75,
      "v": 102
    },
    {
      "midi": 47,
      "hit": false,
      "t": 35225,
      "d": 381.25,
      "v": 77
    },
    {
      "midi": 71,
      "hit": false,
      "t": 35250,
      "d": 368.75,
      "v": 85
    },
    {
      "midi": 49,
      "hit": false,
      "t": 35575,
      "d": 412.5,
      "v": 116
    },
    {
      "midi": 73,
      "hit": false,
      "t": 35625,
      "d": 368.75,
      "v": 83
    },
    {
      "midi": 71,
      "hit": false,
      "t": 35981.25,
      "d": 443.75,
      "v": 79
    },
    {
      "midi": 67,
      "hit": false,
      "t": 35987.5,
      "d": 181.25,
      "v": 78
    },
    {
      "midi": 74,
      "hit": false,
      "t": 35987.5,
      "d": 493.75,
      "v": 78
    },
    {
      "midi": 55,
      "hit": false,
      "t": 35987.5,
      "d": 1093.75,
      "v": 105
    },
    {
      "midi": 74,
      "hit": false,
      "t": 36000,
      "d": 1118.75,
      "v": 105
    },
    {
      "midi": 67,
      "hit": false,
      "t": 36362.5,
      "d": 237.5,
      "v": 77
    },
    {
      "midi": 71,
      "hit": false,
      "t": 36718.75,
      "d": 118.75,
      "v": 72
    },
    {
      "midi": 74,
      "hit": false,
      "t": 36718.75,
      "d": 150,
      "v": 66
    },
    {
      "midi": 54,
      "hit": false,
      "t": 37087.5,
      "d": 1100,
      "v": 99
    },
    {
      "midi": 71,
      "hit": false,
      "t": 37100,
      "d": 450,
      "v": 71
    },
    {
      "midi": 74,
      "hit": false,
      "t": 37100,
      "d": 475,
      "v": 87
    },
    {
      "midi": 66,
      "hit": false,
      "t": 37106.25,
      "d": 181.25,
      "v": 78
    },
    {
      "midi": 73,
      "hit": false,
      "t": 37125,
      "d": 1118.75,
      "v": 76
    },
    {
      "midi": 66,
      "hit": false,
      "t": 37462.5,
      "d": 168.75,
      "v": 59
    },
    {
      "midi": 66,
      "hit": false,
      "t": 37831.25,
      "d": 131.25,
      "v": 56
    },
    {
      "midi": 74,
      "hit": false,
      "t": 37850,
      "d": 62.5,
      "v": 65
    },
    {
      "midi": 71,
      "hit": false,
      "t": 37862.5,
      "d": 37.5,
      "v": 51
    },
    {
      "midi": 71,
      "hit": false,
      "t": 38218.75,
      "d": 531.25,
      "v": 81
    },
    {
      "midi": 52,
      "hit": false,
      "t": 38225,
      "d": 2243.75,
      "v": 84
    },
    {
      "midi": 64,
      "hit": false,
      "t": 38231.25,
      "d": 143.75,
      "v": 76
    },
    {
      "midi": 67,
      "hit": false,
      "t": 38231.25,
      "d": 506.25,
      "v": 80
    },
    {
      "midi": 71,
      "hit": false,
      "t": 38250,
      "d": 368.75,
      "v": 41
    },
    {
      "midi": 64,
      "hit": false,
      "t": 38625,
      "d": 281.25,
      "v": 60
    },
    {
      "midi": 71,
      "hit": false,
      "t": 38968.75,
      "d": 243.75,
      "v": 70
    },
    {
      "midi": 71,
      "hit": false,
      "t": 39000,
      "d": 368.75,
      "v": 85
    },
    {
      "midi": 73,
      "hit": false,
      "t": 39375,
      "d": 112.5,
      "v": 101
    },
    {
      "midi": 73,
      "hit": false,
      "t": 39375,
      "d": 368.75,
      "v": 113
    },
    {
      "midi": 74,
      "hit": false,
      "t": 39750,
      "d": 368.75,
      "v": 114
    },
    {
      "midi": 74,
      "hit": false,
      "t": 39756.25,
      "d": 156.25,
      "v": 92
    },
    {
      "midi": 76,
      "hit": false,
      "t": 40318.75,
      "d": 93.75,
      "v": 70
    },
    {
      "midi": 74,
      "hit": false,
      "t": 40500,
      "d": 731.25,
      "v": 90
    },
    {
      "midi": 76,
      "hit": false,
      "t": 40500,
      "d": 368.75,
      "v": 85
    },
    {
      "midi": 74,
      "hit": false,
      "t": 40500,
      "d": 2993.75,
      "v": 106
    },
    {
      "midi": 78,
      "hit": false,
      "t": 40506.25,
      "d": 181.25,
      "v": 110
    },
    {
      "midi": 78,
      "hit": false,
      "t": 41062.5,
      "d": 225,
      "v": 55
    },
    {
      "midi": 81,
      "hit": false,
      "t": 41262.5,
      "d": 237.5,
      "v": 75
    },
    {
      "midi": 78,
      "hit": false,
      "t": 41418.75,
      "d": 150,
      "v": 54
    },
    {
      "midi": 74,
      "hit": false,
      "t": 41631.25,
      "d": 93.75,
      "v": 96
    },
    {
      "midi": 81,
      "hit": false,
      "t": 41637.5,
      "d": 450,
      "v": 86
    },
    {
      "midi": 74,
      "hit": false,
      "t": 42031.25,
      "d": 281.25,
      "v": 44
    },
    {
      "midi": 78,
      "hit": false,
      "t": 42187.5,
      "d": 175,
      "v": 70
    },
    {
      "midi": 81,
      "hit": false,
      "t": 42387.5,
      "d": 212.5,
      "v": 60
    },
    {
      "midi": 78,
      "hit": false,
      "t": 42537.5,
      "d": 156.25,
      "v": 59
    },
    {
      "midi": 74,
      "hit": false,
      "t": 42725,
      "d": 118.75,
      "v": 59
    },
    {
      "midi": 62,
      "hit": false,
      "t": 42725,
      "d": 1737.5,
      "v": 65
    },
    {
      "midi": 50,
      "hit": false,
      "t": 42731.25,
      "d": 1600,
      "v": 85
    },
    {
      "midi": 81,
      "hit": false,
      "t": 42743.75,
      "d": 375,
      "v": 116
    },
    {
      "midi": 78,
      "hit": false,
      "t": 42750,
      "d": 237.5,
      "v": 110
    },
    {
      "midi": 74,
      "hit": false,
      "t": 43150,
      "d": 212.5,
      "v": 81
    },
    {
      "midi": 81,
      "hit": false,
      "t": 43331.25,
      "d": 112.5,
      "v": 106
    },
    {
      "midi": 78,
      "hit": false,
      "t": 43493.75,
      "d": 175,
      "v": 111
    },
    {
      "midi": 74,
      "hit": false,
      "t": 43700,
      "d": 62.5,
      "v": 71
    },
    {
      "midi": 74,
      "hit": false,
      "t": 43881.25,
      "d": 343.75,
      "v": 114
    },
    {
      "midi": 73,
      "hit": false,
      "t": 44256.25,
      "d": 312.5,
      "v": 111
    },
    {
      "midi": 67,
      "hit": false,
      "t": 44987.5,
      "d": 150,
      "v": 30
    },
    {
      "midi": 43,
      "hit": false,
      "t": 44987.5,
      "d": 868.75,
      "v": 58
    },
    {
      "midi": 55,
      "hit": false,
      "t": 44993.75,
      "d": 843.75,
      "v": 59
    },
    {
      "midi": 71,
      "hit": false,
      "t": 45000,
      "d": 112.5,
      "v": 52
    },
    {
      "midi": 74,
      "hit": false,
      "t": 45000,
      "d": 368.75,
      "v": 62
    },
    {
      "midi": 74,
      "hit": false,
      "t": 45000,
      "d": 1118.75,
      "v": 98
    },
    {
      "midi": 67,
      "hit": false,
      "t": 45375,
      "d": 368.75,
      "v": 57
    },
    {
      "midi": 67,
      "hit": false,
      "t": 45750,
      "d": 368.75,
      "v": 51
    },
    {
      "midi": 71,
      "hit": false,
      "t": 45750,
      "d": 368.75,
      "v": 76
    },
    {
      "midi": 74,
      "hit": false,
      "t": 45750,
      "d": 368.75,
      "v": 81
    },
    {
      "midi": 69,
      "hit": false,
      "t": 46125,
      "d": 368.75,
      "v": 78
    },
    {
      "midi": 73,
      "hit": false,
      "t": 46125,
      "d": 368.75,
      "v": 76
    },
    {
      "midi": 76,
      "hit": false,
      "t": 46125,
      "d": 368.75,
      "v": 85
    },
    {
      "midi": 45,
      "hit": false,
      "t": 46125,
      "d": 743.75,
      "v": 85
    },
    {
      "midi": 57,
      "hit": false,
      "t": 46125,
      "d": 743.75,
      "v": 54
    },
    {
      "midi": 73,
      "hit": false,
      "t": 46125,
      "d": 1118.75,
      "v": 82
    },
    {
      "midi": 69,
      "hit": false,
      "t": 46500,
      "d": 368.75,
      "v": 50
    },
    {
      "midi": 69,
      "hit": false,
      "t": 46875,
      "d": 368.75,
      "v": 53
    },
    {
      "midi": 76,
      "hit": false,
      "t": 46875,
      "d": 368.75,
      "v": 62
    },
    {
      "midi": 71,
      "hit": false,
      "t": 47250,
      "d": 368.75,
      "v": 78
    },
    {
      "midi": 74,
      "hit": false,
      "t": 47250,
      "d": 368.75,
      "v": 99
    },
    {
      "midi": 78,
      "hit": false,
      "t": 47250,
      "d": 368.75,
      "v": 102
    },
    {
      "midi": 47,
      "hit": false,
      "t": 47250,
      "d": 1868.75,
      "v": 71
    },
    {
      "midi": 59,
      "hit": false,
      "t": 47250,
      "d": 1868.75,
      "v": 66
    },
    {
      "midi": 71,
      "hit": false,
      "t": 47250,
      "d": 743.75,
      "v": 86
    },
    {
      "midi": 71,
      "hit": false,
      "t": 47625,
      "d": 368.75,
      "v": 86
    },
    {
      "midi": 74,
      "hit": false,
      "t": 48000,
      "d": 368.75,
      "v": 69
    },
    {
      "midi": 74,
      "hit": false,
      "t": 48375,
      "d": 368.75,
      "v": 102
    },
    {
      "midi": 71,
      "hit": false,
      "t": 48375,
      "d": 368.75,
      "v": 96
    },
    {
      "midi": 73,
      "hit": false,
      "t": 48750,
      "d": 368.75,
      "v": 41
    },
    {
      "midi": 73,
      "hit": false,
      "t": 48750,
      "d": 368.75,
      "v": 73
    },
    {
      "midi": 74,
      "hit": false,
      "t": 49125,
      "d": 368.75,
      "v": 102
    },
    {
      "midi": 74,
      "hit": false,
      "t": 49500,
      "d": 368.75,
      "v": 60
    },
    {
      "midi": 78,
      "hit": false,
      "t": 49500,
      "d": 368.75,
      "v": 50
    },
    {
      "midi": 81,
      "hit": false,
      "t": 49500,
      "d": 368.75,
      "v": 74
    },
    {
      "midi": 50,
      "hit": false,
      "t": 49500,
      "d": 743.75,
      "v": 83
    },
    {
      "midi": 62,
      "hit": false,
      "t": 49500,
      "d": 1118.75,
      "v": 96
    },
    {
      "midi": 69,
      "hit": false,
      "t": 49500,
      "d": 368.75,
      "v": 102
    },
    {
      "midi": 74,
      "hit": false,
      "t": 49875,
      "d": 368.75,
      "v": 79
    },
    {
      "midi": 66,
      "hit": false,
      "t": 49875,
      "d": 1868.75,
      "v": 107
    },
    {
      "midi": 74,
      "hit": false,
      "t": 50250,
      "d": 368.75,
      "v": 81
    },
    {
      "midi": 78,
      "hit": false,
      "t": 50250,
      "d": 368.75,
      "v": 86
    },
    {
      "midi": 81,
      "hit": false,
      "t": 50250,
      "d": 368.75,
      "v": 92
    },
    {
      "midi": 61,
      "hit": false,
      "t": 50625,
      "d": 743.75,
      "v": 116
    },
    {
      "midi": 74,
      "hit": false,
      "t": 51000,
      "d": 368.75,
      "v": 86
    },
    {
      "midi": 74,
      "hit": false,
      "t": 51375,
      "d": 368.75,
      "v": 80
    },
    {
      "midi": 78,
      "hit": false,
      "t": 51375,
      "d": 368.75,
      "v": 75
    },
    {
      "midi": 81,
      "hit": false,
      "t": 51375,
      "d": 368.75,
      "v": 76
    },
    {
      "midi": 59,
      "hit": false,
      "t": 51750,
      "d": 743.75,
      "v": 93
    },
    {
      "midi": 74,
      "hit": false,
      "t": 52125,
      "d": 368.75,
      "v": 60
    },
    {
      "midi": 78,
      "hit": false,
      "t": 52125,
      "d": 368.75,
      "v": 89
    },
    {
      "midi": 81,
      "hit": false,
      "t": 52125,
      "d": 368.75,
      "v": 67
    },
    {
      "midi": 74,
      "hit": false,
      "t": 52500,
      "d": 743.75,
      "v": 59
    },
    {
      "midi": 78,
      "hit": false,
      "t": 52500,
      "d": 743.75,
      "v": 71
    },
    {
      "midi": 81,
      "hit": false,
      "t": 52500,
      "d": 743.75,
      "v": 80
    },
    {
      "midi": 69,
      "hit": false,
      "t": 52500,
      "d": 368.75,
      "v": 79
    },
    {
      "midi": 57,
      "hit": false,
      "t": 52875,
      "d": 368.75,
      "v": 91
    },
    {
      "midi": 69,
      "hit": false,
      "t": 52875,
      "d": 368.75,
      "v": 103
    },
    {
      "midi": 59,
      "hit": false,
      "t": 53250,
      "d": 368.75,
      "v": 65
    },
    {
      "midi": 71,
      "hit": false,
      "t": 53250,
      "d": 368.75,
      "v": 96
    },
    {
      "midi": 61,
      "hit": false,
      "t": 53625,
      "d": 368.75,
      "v": 3
    },
    {
      "midi": 73,
      "hit": false,
      "t": 53625,
      "d": 368.75,
      "v": 113
    },
    {
      "midi": 67,
      "hit": false,
      "t": 54000,
      "d": 368.75,
      "v": 73
    },
    {
      "midi": 74,
      "hit": false,
      "t": 54000,
      "d": 368.75,
      "v": 67
    },
    {
      "midi": 71,
      "hit": false,
      "t": 54000,
      "d": 743.75,
      "v": 86
    },
    {
      "midi": 55,
      "hit": false,
      "t": 54000,
      "d": 1118.75,
      "v": 73
    },
    {
      "midi": 74,
      "hit": false,
      "t": 54000,
      "d": 1118.75,
      "v": 111
    },
    {
      "midi": 67,
      "hit": false,
      "t": 54375,
      "d": 368.75,
      "v": 63
    },
    {
      "midi": 67,
      "hit": false,
      "t": 54750,
      "d": 368.75,
      "v": 63
    },
    {
      "midi": 71,
      "hit": false,
      "t": 54750,
      "d": 368.75,
      "v": 87
    },
    {
      "midi": 74,
      "hit": false,
      "t": 54750,
      "d": 368.75,
      "v": 69
    },
    {
      "midi": 71,
      "hit": false,
      "t": 55125,
      "d": 368.75,
      "v": 79
    },
    {
      "midi": 74,
      "hit": false,
      "t": 55125,
      "d": 368.75,
      "v": 73
    },
    {
      "midi": 54,
      "hit": false,
      "t": 55125,
      "d": 1118.75,
      "v": 50
    },
    {
      "midi": 73,
      "hit": false,
      "t": 55125,
      "d": 1118.75,
      "v": 109
    },
    {
      "midi": 66,
      "hit": false,
      "t": 55500,
      "d": 368.75,
      "v": 69
    },
    {
      "midi": 66,
      "hit": false,
      "t": 55875,
      "d": 368.75,
      "v": 69
    },
    {
      "midi": 71,
      "hit": false,
      "t": 55875,
      "d": 368.75,
      "v": 59
    },
    {
      "midi": 74,
      "hit": false,
      "t": 55875,
      "d": 368.75,
      "v": 91
    },
    {
      "midi": 64,
      "hit": false,
      "t": 56250,
      "d": 368.75,
      "v": 65
    },
    {
      "midi": 67,
      "hit": false,
      "t": 56250,
      "d": 368.75,
      "v": 75
    },
    {
      "midi": 71,
      "hit": false,
      "t": 56250,
      "d": 368.75,
      "v": 81
    },
    {
      "midi": 52,
      "hit": false,
      "t": 56250,
      "d": 2243.75,
      "v": 92
    },
    {
      "midi": 71,
      "hit": false,
      "t": 56250,
      "d": 1118.75,
      "v": 92
    },
    {
      "midi": 64,
      "hit": false,
      "t": 56625,
      "d": 368.75,
      "v": 39
    },
    {
      "midi": 71,
      "hit": false,
      "t": 57000,
      "d": 368.75,
      "v": 76
    },
    {
      "midi": 64,
      "hit": false,
      "t": 57375,
      "d": 368.75,
      "v": 71
    },
    {
      "midi": 71,
      "hit": false,
      "t": 57375,
      "d": 368.75,
      "v": 90
    },
    {
      "midi": 71,
      "hit": false,
      "t": 57375,
      "d": 368.75,
      "v": 97
    },
    {
      "midi": 73,
      "hit": false,
      "t": 57750,
      "d": 368.75,
      "v": 89
    },
    {
      "midi": 73,
      "hit": false,
      "t": 57750,
      "d": 368.75,
      "v": 102
    },
    {
      "midi": 74,
      "hit": false,
      "t": 58125,
      "d": 368.75,
      "v": 60
    },
    {
      "midi": 74,
      "hit": false,
      "t": 58125,
      "d": 368.75,
      "v": 99
    },
    {
      "midi": 69,
      "hit": false,
      "t": 58500,
      "d": 368.75,
      "v": 60
    },
    {
      "midi": 73,
      "hit": false,
      "t": 58500,
      "d": 368.75,
      "v": 74
    },
    {
      "midi": 76,
      "hit": false,
      "t": 58500,
      "d": 743.75,
      "v": 68
    },
    {
      "midi": 57,
      "hit": false,
      "t": 58500,
      "d": 1493.75,
      "v": 87
    },
    {
      "midi": 76,
      "hit": false,
      "t": 58500,
      "d": 2993.75,
      "v": 85
    },
    {
      "midi": 69,
      "hit": false,
      "t": 58875,
      "d": 368.75,
      "v": 49
    },
    {
      "midi": 73,
      "hit": false,
      "t": 59250,
      "d": 1493.75,
      "v": 47
    },
    {
      "midi": 69,
      "hit": false,
      "t": 59625,
      "d": 368.75,
      "v": 57
    },
    {
      "midi": 79,
      "hit": false,
      "t": 59625,
      "d": 743.75,
      "v": 93
    },
    {
      "midi": 69,
      "hit": false,
      "t": 60000,
      "d": 368.75,
      "v": 66
    },
    {
      "midi": 57,
      "hit": false,
      "t": 60375,
      "d": 2618.75,
      "v": 102
    },
    {
      "midi": 69,
      "hit": false,
      "t": 60750,
      "d": 368.75,
      "v": 81
    },
    {
      "midi": 79,
      "hit": false,
      "t": 60750,
      "d": 368.75,
      "v": 78
    },
    {
      "midi": 73,
      "hit": false,
      "t": 60750,
      "d": 743.75,
      "v": 38
    },
    {
      "midi": 69,
      "hit": false,
      "t": 61125,
      "d": 368.75,
      "v": 69
    },
    {
      "midi": 74,
      "hit": false,
      "t": 61500,
      "d": 368.75,
      "v": 103
    },
    {
      "midi": 74,
      "hit": false,
      "t": 61500,
      "d": 368.75,
      "v": 93
    },
    {
      "midi": 74,
      "hit": false,
      "t": 61875,
      "d": 368.75,
      "v": 102
    },
    {
      "midi": 74,
      "hit": false,
      "t": 61875,
      "d": 368.75,
      "v": 99
    },
    {
      "midi": 73,
      "hit": false,
      "t": 62250,
      "d": 368.75,
      "v": 88
    },
    {
      "midi": 73,
      "hit": false,
      "t": 62250,
      "d": 368.75,
      "v": 98
    },
    {
      "midi": 71,
      "hit": false,
      "t": 62625,
      "d": 368.75,
      "v": 92
    },
    {
      "midi": 71,
      "hit": false,
      "t": 62625,
      "d": 368.75,
      "v": 85
    },
    {
      "midi": 67,
      "hit": false,
      "t": 63000,
      "d": 368.75,
      "v": 63
    },
    {
      "midi": 71,
      "hit": false,
      "t": 63000,
      "d": 368.75,
      "v": 75
    },
    {
      "midi": 74,
      "hit": false,
      "t": 63000,
      "d": 368.75,
      "v": 78
    },
    {
      "midi": 55,
      "hit": false,
      "t": 63000,
      "d": 1118.75,
      "v": 107
    },
    {
      "midi": 74,
      "hit": false,
      "t": 63000,
      "d": 1118.75,
      "v": 102
    },
    {
      "midi": 67,
      "hit": false,
      "t": 63375,
      "d": 368.75,
      "v": 58
    },
    {
      "midi": 71,
      "hit": false,
      "t": 63750,
      "d": 368.75,
      "v": 68
    },
    {
      "midi": 73,
      "hit": false,
      "t": 64125,
      "d": 368.75,
      "v": 93
    },
    {
      "midi": 76,
      "hit": false,
      "t": 64125,
      "d": 743.75,
      "v": 77
    },
    {
      "midi": 57,
      "hit": false,
      "t": 64125,
      "d": 1118.75,
      "v": 101
    },
    {
      "midi": 76,
      "hit": false,
      "t": 64125,
      "d": 1118.75,
      "v": 81
    },
    {
      "midi": 69,
      "hit": false,
      "t": 64500,
      "d": 368.75,
      "v": 71
    },
    {
      "midi": 73,
      "hit": false,
      "t": 64875,
      "d": 368.75,
      "v": 71
    },
    {
      "midi": 71,
      "hit": false,
      "t": 65250,
      "d": 368.75,
      "v": 54
    },
    {
      "midi": 74,
      "hit": false,
      "t": 65250,
      "d": 368.75,
      "v": 49
    },
    {
      "midi": 78,
      "hit": false,
      "t": 65250,
      "d": 368.75,
      "v": 76
    },
    {
      "midi": 59,
      "hit": false,
      "t": 65250,
      "d": 2243.75,
      "v": 67
    },
    {
      "midi": 78,
      "hit": false,
      "t": 65250,
      "d": 743.75,
      "v": 110
    },
    {
      "midi": 71,
      "hit": false,
      "t": 65625,
      "d": 368.75,
      "v": 85
    },
    {
      "midi": 74,
      "hit": false,
      "t": 66000,
      "d": 368.75,
      "v": 69
    },
    {
      "midi": 74,
      "hit": false,
      "t": 66000,
      "d": 368.75,
      "v": 85
    },
    {
      "midi": 74,
      "hit": false,
      "t": 66375,
      "d": 368.75,
      "v": 81
    },
    {
      "midi": 74,
      "hit": false,
      "t": 66375,
      "d": 368.75,
      "v": 78
    },
    {
      "midi": 73,
      "hit": false,
      "t": 66750,
      "d": 368.75,
      "v": 67
    },
    {
      "midi": 73,
      "hit": false,
      "t": 66750,
      "d": 368.75,
      "v": 78
    },
    {
      "midi": 71,
      "hit": false,
      "t": 67125,
      "d": 368.75,
      "v": 54
    },
    {
      "midi": 71,
      "hit": false,
      "t": 67125,
      "d": 368.75,
      "v": 92
    },
    {
      "midi": 74,
      "hit": false,
      "t": 67500,
      "d": 368.75,
      "v": 65
    },
    {
      "midi": 78,
      "hit": false,
      "t": 67500,
      "d": 368.75,
      "v": 72
    },
    {
      "midi": 81,
      "hit": false,
      "t": 67500,
      "d": 743.75,
      "v": 87
    },
    {
      "midi": 69,
      "hit": false,
      "t": 67500,
      "d": 368.75,
      "v": 100
    },
    {
      "midi": 62,
      "hit": false,
      "t": 67875,
      "d": 743.75,
      "v": 78
    },
    {
      "midi": 66,
      "hit": false,
      "t": 67875,
      "d": 2243.75,
      "v": 111
    },
    {
      "midi": 74,
      "hit": false,
      "t": 68250,
      "d": 368.75,
      "v": 72
    },
    {
      "midi": 81,
      "hit": false,
      "t": 68250,
      "d": 368.75,
      "v": 99
    },
    {
      "midi": 74,
      "hit": false,
      "t": 68625,
      "d": 368.75,
      "v": 68
    },
    {
      "midi": 78,
      "hit": false,
      "t": 68625,
      "d": 368.75,
      "v": 81
    },
    {
      "midi": 81,
      "hit": false,
      "t": 68625,
      "d": 368.75,
      "v": 87
    },
    {
      "midi": 61,
      "hit": false,
      "t": 68625,
      "d": 1118.75,
      "v": 92
    },
    {
      "midi": 74,
      "hit": false,
      "t": 69000,
      "d": 368.75,
      "v": 81
    },
    {
      "midi": 74,
      "hit": false,
      "t": 69375,
      "d": 368.75,
      "v": 58
    },
    {
      "midi": 78,
      "hit": false,
      "t": 69375,
      "d": 368.75,
      "v": 55
    },
    {
      "midi": 81,
      "hit": false,
      "t": 69375,
      "d": 368.75,
      "v": 58
    },
    {
      "midi": 59,
      "hit": false,
      "t": 69750,
      "d": 1118.75,
      "v": 80
    },
    {
      "midi": 74,
      "hit": false,
      "t": 70125,
      "d": 368.75,
      "v": 85
    },
    {
      "midi": 74,
      "hit": false,
      "t": 70500,
      "d": 1118.75,
      "v": 67
    },
    {
      "midi": 78,
      "hit": false,
      "t": 70500,
      "d": 1118.75,
      "v": 74
    },
    {
      "midi": 81,
      "hit": false,
      "t": 70500,
      "d": 1118.75,
      "v": 58
    },
    {
      "midi": 57,
      "hit": false,
      "t": 70875,
      "d": 368.75,
      "v": 102
    },
    {
      "midi": 69,
      "hit": false,
      "t": 70875,
      "d": 368.75,
      "v": 73
    },
    {
      "midi": 59,
      "hit": false,
      "t": 71250,
      "d": 368.75,
      "v": 63
    },
    {
      "midi": 71,
      "hit": false,
      "t": 71250,
      "d": 368.75,
      "v": 81
    },
    {
      "midi": 61,
      "hit": false,
      "t": 71625,
      "d": 368.75,
      "v": 107
    },
    {
      "midi": 73,
      "hit": false,
      "t": 71625,
      "d": 368.75,
      "v": 89
    },
    {
      "midi": 67,
      "hit": false,
      "t": 72000,
      "d": 368.75,
      "v": 61
    },
    {
      "midi": 71,
      "hit": false,
      "t": 72000,
      "d": 368.75,
      "v": 87
    },
    {
      "midi": 74,
      "hit": false,
      "t": 72000,
      "d": 743.75,
      "v": 90
    },
    {
      "midi": 55,
      "hit": false,
      "t": 72000,
      "d": 1118.75,
      "v": 70
    },
    {
      "midi": 74,
      "hit": false,
      "t": 72000,
      "d": 1118.75,
      "v": 98
    },
    {
      "midi": 67,
      "hit": false,
      "t": 72375,
      "d": 368.75,
      "v": 52
    },
    {
      "midi": 67,
      "hit": false,
      "t": 72750,
      "d": 368.75,
      "v": 59
    },
    {
      "midi": 71,
      "hit": false,
      "t": 72750,
      "d": 368.75,
      "v": 68
    },
    {
      "midi": 74,
      "hit": false,
      "t": 72750,
      "d": 368.75,
      "v": 65
    },
    {
      "midi": 69,
      "hit": false,
      "t": 73125,
      "d": 368.75,
      "v": 63
    },
    {
      "midi": 73,
      "hit": false,
      "t": 73125,
      "d": 368.75,
      "v": 82
    },
    {
      "midi": 54,
      "hit": false,
      "t": 73125,
      "d": 1118.75,
      "v": 110
    },
    {
      "midi": 73,
      "hit": false,
      "t": 73125,
      "d": 1118.75,
      "v": 68
    },
    {
      "midi": 66,
      "hit": false,
      "t": 73500,
      "d": 368.75,
      "v": 69
    },
    {
      "midi": 69,
      "hit": false,
      "t": 73500,
      "d": 368.75,
      "v": 43
    },
    {
      "midi": 74,
      "hit": false,
      "t": 73500,
      "d": 368.75,
      "v": 55
    },
    {
      "midi": 66,
      "hit": false,
      "t": 73875,
      "d": 368.75,
      "v": 66
    },
    {
      "midi": 64,
      "hit": false,
      "t": 74250,
      "d": 368.75,
      "v": 70
    },
    {
      "midi": 67,
      "hit": false,
      "t": 74250,
      "d": 368.75,
      "v": 73
    },
    {
      "midi": 71,
      "hit": false,
      "t": 74250,
      "d": 368.75,
      "v": 70
    },
    {
      "midi": 52,
      "hit": false,
      "t": 74250,
      "d": 2243.75,
      "v": 67
    },
    {
      "midi": 71,
      "hit": false,
      "t": 74250,
      "d": 1118.75,
      "v": 94
    },
    {
      "midi": 64,
      "hit": false,
      "t": 74625,
      "d": 368.75,
      "v": 63
    },
    {
      "midi": 71,
      "hit": false,
      "t": 75000,
      "d": 368.75,
      "v": 80
    },
    {
      "midi": 73,
      "hit": false,
      "t": 75375,
      "d": 368.75,
      "v": 98
    },
    {
      "midi": 73,
      "hit": false,
      "t": 75375,
      "d": 368.75,
      "v": 81
    },
    {
      "midi": 74,
      "hit": false,
      "t": 75750,
      "d": 368.75,
      "v": 97
    },
    {
      "midi": 74,
      "hit": false,
      "t": 75750,
      "d": 368.75,
      "v": 94
    },
    {
      "midi": 76,
      "hit": false,
      "t": 76125,
      "d": 368.75,
      "v": 69
    },
    {
      "midi": 76,
      "hit": false,
      "t": 76125,
      "d": 368.75,
      "v": 79
    },
    {
      "midi": 78,
      "hit": false,
      "t": 76500,
      "d": 368.75,
      "v": 91
    },
    {
      "midi": 81,
      "hit": false,
      "t": 76500,
      "d": 368.75,
      "v": 32
    },
    {
      "midi": 62,
      "hit": false,
      "t": 76500,
      "d": 2243.75,
      "v": 56
    },
    {
      "midi": 74,
      "hit": false,
      "t": 76500,
      "d": 3743.75,
      "v": 54
    },
    {
      "midi": 74,
      "hit": false,
      "t": 76875,
      "d": 368.75,
      "v": 74
    },
    {
      "midi": 78,
      "hit": false,
      "t": 77250,
      "d": 743.75,
      "v": 60
    },
    {
      "midi": 81,
      "hit": false,
      "t": 77625,
      "d": 368.75,
      "v": 23
    },
    {
      "midi": 74,
      "hit": false,
      "t": 78000,
      "d": 368.75,
      "v": 34
    },
    {
      "midi": 78,
      "hit": false,
      "t": 78375,
      "d": 368.75,
      "v": 55
    },
    {
      "midi": 81,
      "hit": false,
      "t": 78375,
      "d": 368.75,
      "v": 73
    },
    {
      "midi": 74,
      "hit": false,
      "t": 78750,
      "d": 368.75,
      "v": 81
    },
    {
      "midi": 78,
      "hit": false,
      "t": 78750,
      "d": 743.75,
      "v": 65
    },
    {
      "midi": 81,
      "hit": false,
      "t": 78750,
      "d": 743.75,
      "v": 76
    },
    {
      "midi": 62,
      "hit": false,
      "t": 79125,
      "d": 1118.75,
      "v": 55
    },
    {
      "midi": 74,
      "hit": false,
      "t": 79500,
      "d": 368.75,
      "v": 79
    },
    {
      "midi": 74,
      "hit": false,
      "t": 79875,
      "d": 368.75,
      "v": 84
    },
    {
      "midi": 73,
      "hit": false,
      "t": 80250,
      "d": 368.75,
      "v": 100
    },
    {
      "midi": 71,
      "hit": false,
      "t": 80625,
      "d": 368.75,
      "v": 114
    },
    {
      "midi": 71,
      "hit": false,
      "t": 81000,
      "d": 368.75,
      "v": 52
    },
    {
      "midi": 74,
      "hit": false,
      "t": 81000,
      "d": 368.75,
      "v": 62
    },
    {
      "midi": 71,
      "hit": false,
      "t": 81000,
      "d": 1118.75,
      "v": 94
    },
    {
      "midi": 74,
      "hit": false,
      "t": 81000,
      "d": 1118.75,
      "v": 98
    },
    {
      "midi": 67,
      "hit": false,
      "t": 81375,
      "d": 368.75,
      "v": 57
    },
    {
      "midi": 67,
      "hit": false,
      "t": 81750,
      "d": 368.75,
      "v": 51
    },
    {
      "midi": 71,
      "hit": false,
      "t": 81750,
      "d": 368.75,
      "v": 76
    },
    {
      "midi": 74,
      "hit": false,
      "t": 81750,
      "d": 368.75,
      "v": 81
    },
    {
      "midi": 69,
      "hit": false,
      "t": 82125,
      "d": 368.75,
      "v": 78
    },
    {
      "midi": 73,
      "hit": false,
      "t": 82125,
      "d": 368.75,
      "v": 76
    },
    {
      "midi": 76,
      "hit": false,
      "t": 82125,
      "d": 368.75,
      "v": 85
    },
    {
      "midi": 45,
      "hit": false,
      "t": 82125,
      "d": 743.75,
      "v": 85
    },
    {
      "midi": 57,
      "hit": false,
      "t": 82125,
      "d": 743.75,
      "v": 54
    },
    {
      "midi": 73,
      "hit": false,
      "t": 82125,
      "d": 368.75,
      "v": 82
    },
    {
      "midi": 69,
      "hit": false,
      "t": 82500,
      "d": 368.75,
      "v": 50
    },
    {
      "midi": 74,
      "hit": false,
      "t": 82500,
      "d": 368.75,
      "v": 94
    },
    {
      "midi": 69,
      "hit": false,
      "t": 82875,
      "d": 368.75,
      "v": 53
    },
    {
      "midi": 76,
      "hit": false,
      "t": 82875,
      "d": 368.75,
      "v": 62
    },
    {
      "midi": 76,
      "hit": false,
      "t": 82875,
      "d": 368.75,
      "v": 79
    },
    {
      "midi": 71,
      "hit": false,
      "t": 83250,
      "d": 368.75,
      "v": 78
    },
    {
      "midi": 74,
      "hit": false,
      "t": 83250,
      "d": 368.75,
      "v": 99
    },
    {
      "midi": 78,
      "hit": false,
      "t": 83250,
      "d": 368.75,
      "v": 102
    },
    {
      "midi": 47,
      "hit": false,
      "t": 83250,
      "d": 1868.75,
      "v": 71
    },
    {
      "midi": 59,
      "hit": false,
      "t": 83250,
      "d": 1868.75,
      "v": 66
    },
    {
      "midi": 71,
      "hit": false,
      "t": 83250,
      "d": 743.75,
      "v": 86
    },
    {
      "midi": 71,
      "hit": false,
      "t": 83625,
      "d": 368.75,
      "v": 86
    },
    {
      "midi": 74,
      "hit": false,
      "t": 84000,
      "d": 368.75,
      "v": 69
    },
    {
      "midi": 74,
      "hit": false,
      "t": 84375,
      "d": 368.75,
      "v": 102
    },
    {
      "midi": 71,
      "hit": false,
      "t": 84375,
      "d": 368.75,
      "v": 96
    },
    {
      "midi": 73,
      "hit": false,
      "t": 84750,
      "d": 368.75,
      "v": 41
    },
    {
      "midi": 73,
      "hit": false,
      "t": 84750,
      "d": 368.75,
      "v": 73
    },
    {
      "midi": 74,
      "hit": false,
      "t": 85125,
      "d": 368.75,
      "v": 102
    },
    {
      "midi": 74,
      "hit": false,
      "t": 85500,
      "d": 368.75,
      "v": 60
    },
    {
      "midi": 78,
      "hit": false,
      "t": 85500,
      "d": 368.75,
      "v": 50
    },
    {
      "midi": 81,
      "hit": false,
      "t": 85500,
      "d": 368.75,
      "v": 74
    },
    {
      "midi": 50,
      "hit": false,
      "t": 85500,
      "d": 743.75,
      "v": 83
    },
    {
      "midi": 62,
      "hit": false,
      "t": 85500,
      "d": 1118.75,
      "v": 96
    },
    {
      "midi": 69,
      "hit": false,
      "t": 85500,
      "d": 368.75,
      "v": 102
    },
    {
      "midi": 74,
      "hit": false,
      "t": 85875,
      "d": 368.75,
      "v": 79
    },
    {
      "midi": 66,
      "hit": false,
      "t": 85875,
      "d": 1868.75,
      "v": 107
    },
    {
      "midi": 74,
      "hit": false,
      "t": 86250,
      "d": 368.75,
      "v": 81
    },
    {
      "midi": 78,
      "hit": false,
      "t": 86250,
      "d": 368.75,
      "v": 86
    },
    {
      "midi": 81,
      "hit": false,
      "t": 86250,
      "d": 368.75,
      "v": 92
    },
    {
      "midi": 61,
      "hit": false,
      "t": 86625,
      "d": 743.75,
      "v": 116
    },
    {
      "midi": 74,
      "hit": false,
      "t": 87000,
      "d": 368.75,
      "v": 86
    },
    {
      "midi": 74,
      "hit": false,
      "t": 87375,
      "d": 368.75,
      "v": 80
    },
    {
      "midi": 78,
      "hit": false,
      "t": 87375,
      "d": 368.75,
      "v": 75
    },
    {
      "midi": 81,
      "hit": false,
      "t": 87375,
      "d": 368.75,
      "v": 76
    },
    {
      "midi": 59,
      "hit": false,
      "t": 87750,
      "d": 743.75,
      "v": 93
    },
    {
      "midi": 74,
      "hit": false,
      "t": 88125,
      "d": 368.75,
      "v": 60
    },
    {
      "midi": 78,
      "hit": false,
      "t": 88125,
      "d": 368.75,
      "v": 89
    },
    {
      "midi": 81,
      "hit": false,
      "t": 88125,
      "d": 368.75,
      "v": 67
    },
    {
      "midi": 74,
      "hit": false,
      "t": 88500,
      "d": 743.75,
      "v": 59
    },
    {
      "midi": 78,
      "hit": false,
      "t": 88500,
      "d": 743.75,
      "v": 71
    },
    {
      "midi": 81,
      "hit": false,
      "t": 88500,
      "d": 743.75,
      "v": 80
    },
    {
      "midi": 69,
      "hit": false,
      "t": 88500,
      "d": 368.75,
      "v": 79
    },
    {
      "midi": 57,
      "hit": false,
      "t": 88875,
      "d": 368.75,
      "v": 91
    },
    {
      "midi": 69,
      "hit": false,
      "t": 88875,
      "d": 368.75,
      "v": 103
    },
    {
      "midi": 59,
      "hit": false,
      "t": 89250,
      "d": 368.75,
      "v": 65
    },
    {
      "midi": 71,
      "hit": false,
      "t": 89250,
      "d": 368.75,
      "v": 96
    },
    {
      "midi": 61,
      "hit": false,
      "t": 89625,
      "d": 368.75,
      "v": 3
    },
    {
      "midi": 73,
      "hit": false,
      "t": 89625,
      "d": 368.75,
      "v": 113
    },
    {
      "midi": 67,
      "hit": false,
      "t": 90000,
      "d": 368.75,
      "v": 73
    },
    {
      "midi": 74,
      "hit": false,
      "t": 90000,
      "d": 368.75,
      "v": 67
    },
    {
      "midi": 71,
      "hit": false,
      "t": 90000,
      "d": 743.75,
      "v": 86
    },
    {
      "midi": 55,
      "hit": false,
      "t": 90000,
      "d": 1118.75,
      "v": 73
    },
    {
      "midi": 74,
      "hit": false,
      "t": 90000,
      "d": 1118.75,
      "v": 111
    },
    {
      "midi": 67,
      "hit": false,
      "t": 90375,
      "d": 368.75,
      "v": 63
    },
    {
      "midi": 67,
      "hit": false,
      "t": 90750,
      "d": 368.75,
      "v": 63
    },
    {
      "midi": 71,
      "hit": false,
      "t": 90750,
      "d": 368.75,
      "v": 87
    },
    {
      "midi": 74,
      "hit": false,
      "t": 90750,
      "d": 368.75,
      "v": 69
    },
    {
      "midi": 71,
      "hit": false,
      "t": 91125,
      "d": 368.75,
      "v": 79
    },
    {
      "midi": 74,
      "hit": false,
      "t": 91125,
      "d": 368.75,
      "v": 73
    },
    {
      "midi": 54,
      "hit": false,
      "t": 91125,
      "d": 1118.75,
      "v": 50
    },
    {
      "midi": 73,
      "hit": false,
      "t": 91125,
      "d": 1118.75,
      "v": 109
    },
    {
      "midi": 66,
      "hit": false,
      "t": 91500,
      "d": 368.75,
      "v": 69
    },
    {
      "midi": 66,
      "hit": false,
      "t": 91875,
      "d": 368.75,
      "v": 69
    },
    {
      "midi": 71,
      "hit": false,
      "t": 91875,
      "d": 368.75,
      "v": 59
    },
    {
      "midi": 74,
      "hit": false,
      "t": 91875,
      "d": 368.75,
      "v": 91
    },
    {
      "midi": 64,
      "hit": false,
      "t": 92250,
      "d": 368.75,
      "v": 65
    },
    {
      "midi": 67,
      "hit": false,
      "t": 92250,
      "d": 368.75,
      "v": 75
    },
    {
      "midi": 71,
      "hit": false,
      "t": 92250,
      "d": 368.75,
      "v": 81
    },
    {
      "midi": 52,
      "hit": false,
      "t": 92250,
      "d": 2243.75,
      "v": 92
    },
    {
      "midi": 71,
      "hit": false,
      "t": 92250,
      "d": 1118.75,
      "v": 92
    },
    {
      "midi": 64,
      "hit": false,
      "t": 92625,
      "d": 368.75,
      "v": 39
    },
    {
      "midi": 71,
      "hit": false,
      "t": 93000,
      "d": 368.75,
      "v": 76
    },
    {
      "midi": 64,
      "hit": false,
      "t": 93375,
      "d": 368.75,
      "v": 71
    },
    {
      "midi": 71,
      "hit": false,
      "t": 93375,
      "d": 368.75,
      "v": 90
    },
    {
      "midi": 71,
      "hit": false,
      "t": 93375,
      "d": 368.75,
      "v": 97
    },
    {
      "midi": 73,
      "hit": false,
      "t": 93750,
      "d": 368.75,
      "v": 89
    },
    {
      "midi": 73,
      "hit": false,
      "t": 93750,
      "d": 368.75,
      "v": 102
    },
    {
      "midi": 74,
      "hit": false,
      "t": 94125,
      "d": 368.75,
      "v": 60
    },
    {
      "midi": 74,
      "hit": false,
      "t": 94125,
      "d": 368.75,
      "v": 99
    },
    {
      "midi": 69,
      "hit": false,
      "t": 94500,
      "d": 368.75,
      "v": 60
    },
    {
      "midi": 73,
      "hit": false,
      "t": 94500,
      "d": 368.75,
      "v": 74
    },
    {
      "midi": 76,
      "hit": false,
      "t": 94500,
      "d": 743.75,
      "v": 68
    },
    {
      "midi": 57,
      "hit": false,
      "t": 94500,
      "d": 1493.75,
      "v": 87
    },
    {
      "midi": 76,
      "hit": false,
      "t": 94500,
      "d": 2993.75,
      "v": 85
    },
    {
      "midi": 69,
      "hit": false,
      "t": 94875,
      "d": 368.75,
      "v": 49
    },
    {
      "midi": 73,
      "hit": false,
      "t": 95250,
      "d": 1493.75,
      "v": 47
    },
    {
      "midi": 69,
      "hit": false,
      "t": 95625,
      "d": 368.75,
      "v": 57
    },
    {
      "midi": 79,
      "hit": false,
      "t": 95625,
      "d": 743.75,
      "v": 93
    },
    {
      "midi": 69,
      "hit": false,
      "t": 96000,
      "d": 368.75,
      "v": 66
    },
    {
      "midi": 57,
      "hit": false,
      "t": 96375,
      "d": 2618.75,
      "v": 102
    },
    {
      "midi": 69,
      "hit": false,
      "t": 96750,
      "d": 368.75,
      "v": 81
    },
    {
      "midi": 79,
      "hit": false,
      "t": 96750,
      "d": 368.75,
      "v": 78
    },
    {
      "midi": 73,
      "hit": false,
      "t": 96750,
      "d": 743.75,
      "v": 38
    },
    {
      "midi": 69,
      "hit": false,
      "t": 97125,
      "d": 368.75,
      "v": 69
    },
    {
      "midi": 74,
      "hit": false,
      "t": 97500,
      "d": 368.75,
      "v": 103
    },
    {
      "midi": 74,
      "hit": false,
      "t": 97500,
      "d": 368.75,
      "v": 93
    },
    {
      "midi": 74,
      "hit": false,
      "t": 97875,
      "d": 368.75,
      "v": 102
    },
    {
      "midi": 74,
      "hit": false,
      "t": 97875,
      "d": 368.75,
      "v": 99
    },
    {
      "midi": 73,
      "hit": false,
      "t": 98250,
      "d": 368.75,
      "v": 88
    },
    {
      "midi": 73,
      "hit": false,
      "t": 98250,
      "d": 368.75,
      "v": 98
    },
    {
      "midi": 71,
      "hit": false,
      "t": 98625,
      "d": 368.75,
      "v": 92
    },
    {
      "midi": 71,
      "hit": false,
      "t": 98625,
      "d": 368.75,
      "v": 85
    },
    {
      "midi": 67,
      "hit": false,
      "t": 99000,
      "d": 368.75,
      "v": 63
    },
    {
      "midi": 71,
      "hit": false,
      "t": 99000,
      "d": 368.75,
      "v": 75
    },
    {
      "midi": 74,
      "hit": false,
      "t": 99000,
      "d": 368.75,
      "v": 78
    },
    {
      "midi": 55,
      "hit": false,
      "t": 99000,
      "d": 1118.75,
      "v": 107
    },
    {
      "midi": 74,
      "hit": false,
      "t": 99000,
      "d": 1118.75,
      "v": 102
    },
    {
      "midi": 67,
      "hit": false,
      "t": 99375,
      "d": 368.75,
      "v": 58
    },
    {
      "midi": 71,
      "hit": false,
      "t": 99750,
      "d": 368.75,
      "v": 68
    },
    {
      "midi": 73,
      "hit": false,
      "t": 100125,
      "d": 368.75,
      "v": 93
    },
    {
      "midi": 76,
      "hit": false,
      "t": 100125,
      "d": 743.75,
      "v": 77
    },
    {
      "midi": 57,
      "hit": false,
      "t": 100125,
      "d": 1118.75,
      "v": 101
    },
    {
      "midi": 76,
      "hit": false,
      "t": 100125,
      "d": 1118.75,
      "v": 81
    },
    {
      "midi": 69,
      "hit": false,
      "t": 100500,
      "d": 368.75,
      "v": 71
    },
    {
      "midi": 73,
      "hit": false,
      "t": 100875,
      "d": 368.75,
      "v": 71
    },
    {
      "midi": 71,
      "hit": false,
      "t": 101250,
      "d": 368.75,
      "v": 54
    },
    {
      "midi": 74,
      "hit": false,
      "t": 101250,
      "d": 368.75,
      "v": 49
    },
    {
      "midi": 78,
      "hit": false,
      "t": 101250,
      "d": 368.75,
      "v": 76
    },
    {
      "midi": 59,
      "hit": false,
      "t": 101250,
      "d": 2243.75,
      "v": 67
    },
    {
      "midi": 78,
      "hit": false,
      "t": 101250,
      "d": 743.75,
      "v": 110
    },
    {
      "midi": 71,
      "hit": false,
      "t": 101625,
      "d": 368.75,
      "v": 85
    },
    {
      "midi": 74,
      "hit": false,
      "t": 102000,
      "d": 368.75,
      "v": 69
    },
    {
      "midi": 74,
      "hit": false,
      "t": 102000,
      "d": 368.75,
      "v": 85
    },
    {
      "midi": 74,
      "hit": false,
      "t": 102375,
      "d": 368.75,
      "v": 81
    },
    {
      "midi": 74,
      "hit": false,
      "t": 102375,
      "d": 368.75,
      "v": 78
    },
    {
      "midi": 73,
      "hit": false,
      "t": 102750,
      "d": 368.75,
      "v": 67
    },
    {
      "midi": 73,
      "hit": false,
      "t": 102750,
      "d": 368.75,
      "v": 78
    },
    {
      "midi": 71,
      "hit": false,
      "t": 103125,
      "d": 368.75,
      "v": 54
    },
    {
      "midi": 71,
      "hit": false,
      "t": 103125,
      "d": 368.75,
      "v": 92
    },
    {
      "midi": 74,
      "hit": false,
      "t": 103500,
      "d": 368.75,
      "v": 65
    },
    {
      "midi": 78,
      "hit": false,
      "t": 103500,
      "d": 368.75,
      "v": 72
    },
    {
      "midi": 81,
      "hit": false,
      "t": 103500,
      "d": 743.75,
      "v": 87
    },
    {
      "midi": 69,
      "hit": false,
      "t": 103500,
      "d": 368.75,
      "v": 100
    },
    {
      "midi": 62,
      "hit": false,
      "t": 103875,
      "d": 743.75,
      "v": 78
    },
    {
      "midi": 66,
      "hit": false,
      "t": 103875,
      "d": 2243.75,
      "v": 111
    },
    {
      "midi": 74,
      "hit": false,
      "t": 104250,
      "d": 368.75,
      "v": 72
    },
    {
      "midi": 81,
      "hit": false,
      "t": 104250,
      "d": 368.75,
      "v": 99
    },
    {
      "midi": 74,
      "hit": false,
      "t": 104625,
      "d": 368.75,
      "v": 68
    },
    {
      "midi": 78,
      "hit": false,
      "t": 104625,
      "d": 368.75,
      "v": 81
    },
    {
      "midi": 81,
      "hit": false,
      "t": 104625,
      "d": 368.75,
      "v": 87
    },
    {
      "midi": 61,
      "hit": false,
      "t": 104625,
      "d": 1118.75,
      "v": 92
    },
    {
      "midi": 74,
      "hit": false,
      "t": 105000,
      "d": 368.75,
      "v": 81
    },
    {
      "midi": 74,
      "hit": false,
      "t": 105375,
      "d": 368.75,
      "v": 58
    },
    {
      "midi": 78,
      "hit": false,
      "t": 105375,
      "d": 368.75,
      "v": 55
    },
    {
      "midi": 81,
      "hit": false,
      "t": 105375,
      "d": 368.75,
      "v": 58
    },
    {
      "midi": 59,
      "hit": false,
      "t": 105750,
      "d": 1118.75,
      "v": 80
    },
    {
      "midi": 74,
      "hit": false,
      "t": 106125,
      "d": 368.75,
      "v": 85
    },
    {
      "midi": 74,
      "hit": false,
      "t": 106500,
      "d": 1118.75,
      "v": 67
    },
    {
      "midi": 78,
      "hit": false,
      "t": 106500,
      "d": 1118.75,
      "v": 74
    },
    {
      "midi": 81,
      "hit": false,
      "t": 106500,
      "d": 1118.75,
      "v": 58
    },
    {
      "midi": 57,
      "hit": false,
      "t": 106875,
      "d": 368.75,
      "v": 102
    },
    {
      "midi": 69,
      "hit": false,
      "t": 106875,
      "d": 368.75,
      "v": 73
    },
    {
      "midi": 59,
      "hit": false,
      "t": 107250,
      "d": 368.75,
      "v": 63
    },
    {
      "midi": 71,
      "hit": false,
      "t": 107250,
      "d": 368.75,
      "v": 81
    },
    {
      "midi": 61,
      "hit": false,
      "t": 107625,
      "d": 368.75,
      "v": 107
    },
    {
      "midi": 73,
      "hit": false,
      "t": 107625,
      "d": 368.75,
      "v": 89
    },
    {
      "midi": 67,
      "hit": false,
      "t": 108000,
      "d": 368.75,
      "v": 61
    },
    {
      "midi": 71,
      "hit": false,
      "t": 108000,
      "d": 368.75,
      "v": 87
    },
    {
      "midi": 74,
      "hit": false,
      "t": 108000,
      "d": 743.75,
      "v": 90
    },
    {
      "midi": 55,
      "hit": false,
      "t": 108000,
      "d": 1118.75,
      "v": 70
    },
    {
      "midi": 74,
      "hit": false,
      "t": 108000,
      "d": 1118.75,
      "v": 98
    },
    {
      "midi": 67,
      "hit": false,
      "t": 108375,
      "d": 368.75,
      "v": 52
    },
    {
      "midi": 67,
      "hit": false,
      "t": 108750,
      "d": 368.75,
      "v": 59
    },
    {
      "midi": 71,
      "hit": false,
      "t": 108750,
      "d": 368.75,
      "v": 68
    },
    {
      "midi": 74,
      "hit": false,
      "t": 108750,
      "d": 368.75,
      "v": 65
    },
    {
      "midi": 69,
      "hit": false,
      "t": 109125,
      "d": 368.75,
      "v": 63
    },
    {
      "midi": 73,
      "hit": false,
      "t": 109125,
      "d": 368.75,
      "v": 82
    },
    {
      "midi": 54,
      "hit": false,
      "t": 109125,
      "d": 1118.75,
      "v": 110
    },
    {
      "midi": 73,
      "hit": false,
      "t": 109125,
      "d": 1118.75,
      "v": 68
    },
    {
      "midi": 66,
      "hit": false,
      "t": 109500,
      "d": 368.75,
      "v": 69
    },
    {
      "midi": 69,
      "hit": false,
      "t": 109500,
      "d": 368.75,
      "v": 43
    },
    {
      "midi": 74,
      "hit": false,
      "t": 109500,
      "d": 368.75,
      "v": 55
    },
    {
      "midi": 66,
      "hit": false,
      "t": 109875,
      "d": 368.75,
      "v": 66
    },
    {
      "midi": 64,
      "hit": false,
      "t": 110250,
      "d": 368.75,
      "v": 70
    },
    {
      "midi": 67,
      "hit": false,
      "t": 110250,
      "d": 368.75,
      "v": 73
    },
    {
      "midi": 71,
      "hit": false,
      "t": 110250,
      "d": 368.75,
      "v": 70
    },
    {
      "midi": 52,
      "hit": false,
      "t": 110250,
      "d": 2243.75,
      "v": 67
    },
    {
      "midi": 71,
      "hit": false,
      "t": 110250,
      "d": 1118.75,
      "v": 94
    },
    {
      "midi": 64,
      "hit": false,
      "t": 110625,
      "d": 368.75,
      "v": 63
    },
    {
      "midi": 71,
      "hit": false,
      "t": 111000,
      "d": 368.75,
      "v": 80
    },
    {
      "midi": 73,
      "hit": false,
      "t": 111375,
      "d": 368.75,
      "v": 98
    },
    {
      "midi": 73,
      "hit": false,
      "t": 111375,
      "d": 368.75,
      "v": 81
    },
    {
      "midi": 74,
      "hit": false,
      "t": 111750,
      "d": 368.75,
      "v": 97
    },
    {
      "midi": 74,
      "hit": false,
      "t": 111750,
      "d": 368.75,
      "v": 94
    },
    {
      "midi": 76,
      "hit": false,
      "t": 112125,
      "d": 368.75,
      "v": 69
    },
    {
      "midi": 76,
      "hit": false,
      "t": 112125,
      "d": 368.75,
      "v": 79
    },
    {
      "midi": 78,
      "hit": false,
      "t": 112500,
      "d": 368.75,
      "v": 91
    },
    {
      "midi": 81,
      "hit": false,
      "t": 112500,
      "d": 368.75,
      "v": 32
    },
    {
      "midi": 62,
      "hit": false,
      "t": 112500,
      "d": 2243.75,
      "v": 56
    },
    {
      "midi": 74,
      "hit": false,
      "t": 112500,
      "d": 3743.75,
      "v": 54
    },
    {
      "midi": 74,
      "hit": false,
      "t": 112875,
      "d": 368.75,
      "v": 74
    },
    {
      "midi": 78,
      "hit": false,
      "t": 113250,
      "d": 743.75,
      "v": 60
    },
    {
      "midi": 81,
      "hit": false,
      "t": 113625,
      "d": 368.75,
      "v": 23
    },
    {
      "midi": 74,
      "hit": false,
      "t": 114000,
      "d": 368.75,
      "v": 34
    },
    {
      "midi": 78,
      "hit": false,
      "t": 114375,
      "d": 368.75,
      "v": 55
    },
    {
      "midi": 81,
      "hit": false,
      "t": 114375,
      "d": 368.75,
      "v": 73
    },
    {
      "midi": 74,
      "hit": false,
      "t": 114750,
      "d": 368.75,
      "v": 81
    },
    {
      "midi": 78,
      "hit": false,
      "t": 114750,
      "d": 743.75,
      "v": 65
    },
    {
      "midi": 81,
      "hit": false,
      "t": 114750,
      "d": 743.75,
      "v": 76
    },
    {
      "midi": 62,
      "hit": false,
      "t": 115125,
      "d": 1118.75,
      "v": 55
    },
    {
      "midi": 74,
      "hit": false,
      "t": 115500,
      "d": 368.75,
      "v": 79
    },
    {
      "midi": 74,
      "hit": false,
      "t": 115875,
      "d": 368.75,
      "v": 84
    },
    {
      "midi": 73,
      "hit": false,
      "t": 116250,
      "d": 368.75,
      "v": 100
    },
    {
      "midi": 74,
      "hit": false,
      "t": 116625,
      "d": 368.75,
      "v": 114
    },
    {
      "midi": 74,
      "hit": false,
      "t": 117012.5,
      "d": 100,
      "v": 72
    },
    {
      "midi": 50,
      "hit": false,
      "t": 117018.75,
      "d": 4562.5,
      "v": 91
    },
    {
      "midi": 81,
      "hit": false,
      "t": 117025,
      "d": 737.5,
      "v": 109
    },
    {
      "midi": 78,
      "hit": false,
      "t": 117387.5,
      "d": 356.25,
      "v": 57
    },
    {
      "midi": 74,
      "hit": false,
      "t": 117756.25,
      "d": 418.75,
      "v": 79
    },
    {
      "midi": 81,
      "hit": false,
      "t": 118131.25,
      "d": 637.5,
      "v": 62
    },
    {
      "midi": 78,
      "hit": false,
      "t": 118500,
      "d": 368.75,
      "v": 50
    },
    {
      "midi": 74,
      "hit": false,
      "t": 118856.25,
      "d": 643.75,
      "v": 82
    },
    {
      "midi": 81,
      "hit": false,
      "t": 119256.25,
      "d": 25,
      "v": 83
    },
    {
      "midi": 78,
      "hit": false,
      "t": 119256.25,
      "d": 1937.5,
      "v": 94
    },
    {
      "midi": 74,
      "hit": false,
      "t": 120043.75,
      "d": 81.25,
      "v": 114
    },
    {
      "midi": 74,
      "hit": false,
      "t": 120443.75,
      "d": 343.75,
      "v": 102
    },
    {
      "midi": 73,
      "hit": false,
      "t": 120762.5,
      "d": 368.75,
      "v": 81
    },
    {
      "midi": 71,
      "hit": false,
      "t": 121131.25,
      "d": 431.25,
      "v": 105
    },
    {
      "midi": 43,
      "hit": false,
      "t": 121431.25,
      "d": 818.75,
      "v": 67
    },
    {
      "midi": 67,
      "hit": false,
      "t": 121443.75,
      "d": 181.25,
      "v": 38
    },
    {
      "midi": 74,
      "hit": false,
      "t": 121500,
      "d": 1118.75,
      "v": 113
    },
    {
      "midi": 55,
      "hit": false,
      "t": 121512.5,
      "d": 856.25,
      "v": 69
    },
    {
      "midi": 74,
      "hit": false,
      "t": 121562.5,
      "d": 318.75,
      "v": 73
    },
    {
      "midi": 71,
      "hit": false,
      "t": 121568.75,
      "d": 287.5,
      "v": 55
    },
    {
      "midi": 67,
      "hit": false,
      "t": 121893.75,
      "d": 406.25,
      "v": 78
    },
    {
      "midi": 71,
      "hit": false,
      "t": 122218.75,
      "d": 131.25,
      "v": 80
    },
    {
      "midi": 76,
      "hit": false,
      "t": 122587.5,
      "d": 500,
      "v": 77
    },
    {
      "midi": 45,
      "hit": false,
      "t": 122587.5,
      "d": 825,
      "v": 74
    },
    {
      "midi": 69,
      "hit": false,
      "t": 122593.75,
      "d": 150,
      "v": 84
    },
    {
      "midi": 73,
      "hit": false,
      "t": 122593.75,
      "d": 500,
      "v": 88
    },
    {
      "midi": 57,
      "hit": false,
      "t": 122593.75,
      "d": 806.25,
      "v": 81
    },
    {
      "midi": 73,
      "hit": false,
      "t": 122625,
      "d": 1118.75,
      "v": 107
    },
    {
      "midi": 69,
      "hit": false,
      "t": 122950,
      "d": 200,
      "v": 78
    },
    {
      "midi": 76,
      "hit": false,
      "t": 123325,
      "d": 100,
      "v": 61
    },
    {
      "midi": 69,
      "hit": false,
      "t": 123325,
      "d": 118.75,
      "v": 50
    },
    {
      "midi": 47,
      "hit": false,
      "t": 123718.75,
      "d": 2150,
      "v": 67
    },
    {
      "midi": 59,
      "hit": false,
      "t": 123718.75,
      "d": 2162.5,
      "v": 64
    },
    {
      "midi": 78,
      "hit": false,
      "t": 123731.25,
      "d": 475,
      "v": 106
    },
    {
      "midi": 71,
      "hit": false,
      "t": 123737.5,
      "d": 212.5,
      "v": 81
    },
    {
      "midi": 74,
      "hit": false,
      "t": 123737.5,
      "d": 437.5,
      "v": 94
    },
    {
      "midi": 71,
      "hit": false,
      "t": 123750,
      "d": 368.75,
      "v": 27
    },
    {
      "midi": 71,
      "hit": false,
      "t": 124106.25,
      "d": 300,
      "v": 87
    },
    {
      "midi": 74,
      "hit": false,
      "t": 124500,
      "d": 118.75,
      "v": 101
    },
    {
      "midi": 71,
      "hit": false,
      "t": 124500,
      "d": 368.75,
      "v": 103
    },
    {
      "midi": 74,
      "hit": false,
      "t": 124875,
      "d": 106.25,
      "v": 113
    },
    {
      "midi": 69,
      "hit": false,
      "t": 124875,
      "d": 368.75,
      "v": 86
    },
    {
      "midi": 71,
      "hit": false,
      "t": 124875,
      "d": 368.75,
      "v": 81
    },
    {
      "midi": 73,
      "hit": false,
      "t": 125237.5,
      "d": 262.5,
      "v": 109
    },
    {
      "midi": 73,
      "hit": false,
      "t": 125250,
      "d": 368.75,
      "v": 100
    },
    {
      "midi": 71,
      "hit": false,
      "t": 125612.5,
      "d": 250,
      "v": 99
    },
    {
      "midi": 74,
      "hit": false,
      "t": 125625,
      "d": 368.75,
      "v": 102
    },
    {
      "midi": 50,
      "hit": false,
      "t": 125943.75,
      "d": 843.75,
      "v": 55
    },
    {
      "midi": 74,
      "hit": false,
      "t": 125962.5,
      "d": 162.5,
      "v": 75
    },
    {
      "midi": 69,
      "hit": false,
      "t": 126000,
      "d": 368.75,
      "v": 110
    },
    {
      "midi": 62,
      "hit": false,
      "t": 126006.25,
      "d": 925,
      "v": 81
    },
    {
      "midi": 81,
      "hit": false,
      "t": 126037.5,
      "d": 368.75,
      "v": 93
    },
    {
      "midi": 78,
      "hit": false,
      "t": 126043.75,
      "d": 181.25,
      "v": 74
    },
    {
      "midi": 66,
      "hit": false,
      "t": 126375,
      "d": 2243.75,
      "v": 105
    },
    {
      "midi": 74,
      "hit": false,
      "t": 126393.75,
      "d": 787.5,
      "v": 52
    },
    {
      "midi": 78,
      "hit": false,
      "t": 126737.5,
      "d": 437.5,
      "v": 101
    },
    {
      "midi": 81,
      "hit": false,
      "t": 126743.75,
      "d": 450,
      "v": 68
    },
    {
      "midi": 61,
      "hit": false,
      "t": 127087.5,
      "d": 856.25,
      "v": 115
    },
    {
      "midi": 74,
      "hit": false,
      "t": 127475,
      "d": 262.5,
      "v": 94
    },
    {
      "midi": 74,
      "hit": false,
      "t": 127850,
      "d": 437.5,
      "v": 78
    },
    {
      "midi": 78,
      "hit": false,
      "t": 127850,
      "d": 437.5,
      "v": 106
    },
    {
      "midi": 81,
      "hit": false,
      "t": 127856.25,
      "d": 443.75,
      "v": 92
    },
    {
      "midi": 59,
      "hit": false,
      "t": 128231.25,
      "d": 862.5,
      "v": 109
    },
    {
      "midi": 74,
      "hit": false,
      "t": 128575,
      "d": 356.25,
      "v": 58
    },
    {
      "midi": 78,
      "hit": false,
      "t": 128993.75,
      "d": 868.75,
      "v": 99
    },
    {
      "midi": 74,
      "hit": false,
      "t": 128993.75,
      "d": 912.5,
      "v": 48
    },
    {
      "midi": 81,
      "hit": false,
      "t": 129000,
      "d": 868.75,
      "v": 85
    },
    {
      "midi": 69,
      "hit": false,
      "t": 129000,
      "d": 368.75,
      "v": 86
    },
    {
      "midi": 57,
      "hit": false,
      "t": 129362.5,
      "d": 318.75,
      "v": 105
    },
    {
      "midi": 69,
      "hit": false,
      "t": 129375,
      "d": 368.75,
      "v": 83
    },
    {
      "midi": 59,
      "hit": false,
      "t": 129712.5,
      "d": 462.5,
      "v": 54
    },
    {
      "midi": 71,
      "hit": false,
      "t": 129750,
      "d": 368.75,
      "v": 94
    },
    {
      "midi": 61,
      "hit": false,
      "t": 130087.5,
      "d": 200,
      "v": 102
    },
    {
      "midi": 73,
      "hit": false,
      "t": 130125,
      "d": 368.75,
      "v": 115
    },
    {
      "midi": 55,
      "hit": false,
      "t": 130462.5,
      "d": 1125,
      "v": 107
    },
    {
      "midi": 74,
      "hit": false,
      "t": 130475,
      "d": 456.25,
      "v": 99
    },
    {
      "midi": 67,
      "hit": false,
      "t": 130481.25,
      "d": 243.75,
      "v": 94
    },
    {
      "midi": 71,
      "hit": false,
      "t": 130481.25,
      "d": 443.75,
      "v": 103
    },
    {
      "midi": 74,
      "hit": false,
      "t": 130500,
      "d": 1118.75,
      "v": 113
    },
    {
      "midi": 67,
      "hit": false,
      "t": 130881.25,
      "d": 262.5,
      "v": 68
    },
    {
      "midi": 71,
      "hit": false,
      "t": 131231.25,
      "d": 525,
      "v": 83
    },
    {
      "midi": 67,
      "hit": false,
      "t": 131237.5,
      "d": 475,
      "v": 61
    },
    {
      "midi": 74,
      "hit": false,
      "t": 131237.5,
      "d": 531.25,
      "v": 74
    },
    {
      "midi": 54,
      "hit": false,
      "t": 131612.5,
      "d": 1012.5,
      "v": 114
    },
    {
      "midi": 73,
      "hit": false,
      "t": 131625,
      "d": 1118.75,
      "v": 102
    },
    {
      "midi": 67,
      "hit": false,
      "t": 131987.5,
      "d": 250,
      "v": 78
    },
    {
      "midi": 74,
      "hit": false,
      "t": 132362.5,
      "d": 156.25,
      "v": 81
    },
    {
      "midi": 52,
      "hit": false,
      "t": 132712.5,
      "d": 2237.5,
      "v": 72
    },
    {
      "midi": 64,
      "hit": false,
      "t": 132718.75,
      "d": 225,
      "v": 98
    },
    {
      "midi": 71,
      "hit": false,
      "t": 132718.75,
      "d": 468.75,
      "v": 82
    },
    {
      "midi": 67,
      "hit": false,
      "t": 132718.75,
      "d": 531.25,
      "v": 94
    },
    {
      "midi": 71,
      "hit": false,
      "t": 132750,
      "d": 368.75,
      "v": 35
    },
    {
      "midi": 64,
      "hit": false,
      "t": 133087.5,
      "d": 237.5,
      "v": 66
    },
    {
      "midi": 71,
      "hit": false,
      "t": 133481.25,
      "d": 300,
      "v": 81
    },
    {
      "midi": 71,
      "hit": false,
      "t": 133500,
      "d": 368.75,
      "v": 102
    },
    {
      "midi": 71,
      "hit": false,
      "t": 133856.25,
      "d": 187.5,
      "v": 69
    },
    {
      "midi": 71,
      "hit": false,
      "t": 133875,
      "d": 368.75,
      "v": 103
    },
    {
      "midi": 73,
      "hit": false,
      "t": 134243.75,
      "d": 93.75,
      "v": 109
    },
    {
      "midi": 73,
      "hit": false,
      "t": 134250,
      "d": 368.75,
      "v": 101
    },
    {
      "midi": 74,
      "hit": false,
      "t": 134600,
      "d": 106.25,
      "v": 102
    },
    {
      "midi": 74,
      "hit": false,
      "t": 134625,
      "d": 368.75,
      "v": 101
    },
    {
      "midi": 45,
      "hit": false,
      "t": 134900,
      "d": 2243.75,
      "v": 63
    },
    {
      "midi": 57,
      "hit": false,
      "t": 134918.75,
      "d": 2237.5,
      "v": 75
    },
    {
      "midi": 69,
      "hit": false,
      "t": 134981.25,
      "d": 137.5,
      "v": 88
    },
    {
      "midi": 76,
      "hit": false,
      "t": 135000,
      "d": 2993.75,
      "v": 102
    },
    {
      "midi": 73,
      "hit": false,
      "t": 135012.5,
      "d": 325,
      "v": 34
    },
    {
      "midi": 76,
      "hit": false,
      "t": 135018.75,
      "d": 425,
      "v": 71
    },
    {
      "midi": 69,
      "hit": false,
      "t": 135362.5,
      "d": 606.25,
      "v": 83
    },
    {
      "midi": 73,
      "hit": false,
      "t": 135731.25,
      "d": 712.5,
      "v": 75
    },
    {
      "midi": 81,
      "hit": false,
      "t": 136112.5,
      "d": 537.5,
      "v": 100
    },
    {
      "midi": 69,
      "hit": false,
      "t": 136487.5,
      "d": 631.25,
      "v": 56
    },
    {
      "midi": 73,
      "hit": false,
      "t": 136856.25,
      "d": 237.5,
      "v": 67
    },
    {
      "midi": 73,
      "hit": false,
      "t": 137237.5,
      "d": 468.75,
      "v": 68
    },
    {
      "midi": 76,
      "hit": false,
      "t": 137237.5,
      "d": 531.25,
      "v": 76
    },
    {
      "midi": 69,
      "hit": false,
      "t": 137243.75,
      "d": 162.5,
      "v": 63
    },
    {
      "midi": 57,
      "hit": false,
      "t": 137250,
      "d": 1068.75,
      "v": 76
    },
    {
      "midi": 45,
      "hit": false,
      "t": 137250,
      "d": 1081.25,
      "v": 85
    },
    {
      "midi": 69,
      "hit": false,
      "t": 137606.25,
      "d": 275,
      "v": 73
    },
    {
      "midi": 74,
      "hit": false,
      "t": 138000,
      "d": 156.25,
      "v": 75
    },
    {
      "midi": 74,
      "hit": false,
      "t": 138000,
      "d": 368.75,
      "v": 76
    },
    {
      "midi": 74,
      "hit": false,
      "t": 138368.75,
      "d": 325,
      "v": 99
    },
    {
      "midi": 74,
      "hit": false,
      "t": 138375,
      "d": 368.75,
      "v": 111
    },
    {
      "midi": 73,
      "hit": false,
      "t": 138725,
      "d": 343.75,
      "v": 68
    },
    {
      "midi": 73,
      "hit": false,
      "t": 138750,
      "d": 368.75,
      "v": 100
    },
    {
      "midi": 71,
      "hit": false,
      "t": 139087.5,
      "d": 156.25,
      "v": 53
    },
    {
      "midi": 71,
      "hit": false,
      "t": 139125,
      "d": 368.75,
      "v": 86
    },
    {
      "midi": 71,
      "hit": false,
      "t": 139487.5,
      "d": 712.5,
      "v": 90
    },
    {
      "midi": 74,
      "hit": false,
      "t": 139493.75,
      "d": 675,
      "v": 96
    },
    {
      "midi": 67,
      "hit": false,
      "t": 139493.75,
      "d": 906.25,
      "v": 83
    },
    {
      "midi": 74,
      "hit": false,
      "t": 139500,
      "d": 1118.75,
      "v": 113
    },
    {
      "midi": 55,
      "hit": false,
      "t": 139862.5,
      "d": 618.75,
      "v": 71
    },
    {
      "midi": 43,
      "hit": false,
      "t": 140231.25,
      "d": 187.5,
      "v": 66
    },
    {
      "midi": 45,
      "hit": false,
      "t": 140237.5,
      "d": 162.5,
      "v": 56
    },
    {
      "midi": 71,
      "hit": false,
      "t": 140250,
      "d": 143.75,
      "v": 64
    },
    {
      "midi": 74,
      "hit": false,
      "t": 140250,
      "d": 193.75,
      "v": 78
    },
    {
      "midi": 73,
      "hit": false,
      "t": 140606.25,
      "d": 587.5,
      "v": 78
    },
    {
      "midi": 69,
      "hit": false,
      "t": 140612.5,
      "d": 293.75,
      "v": 69
    },
    {
      "midi": 76,
      "hit": false,
      "t": 140612.5,
      "d": 550,
      "v": 89
    },
    {
      "midi": 45,
      "hit": false,
      "t": 140612.5,
      "d": 881.25,
      "v": 68
    },
    {
      "midi": 57,
      "hit": false,
      "t": 140618.75,
      "d": 887.5,
      "v": 98
    },
    {
      "midi": 73,
      "hit": false,
      "t": 140625,
      "d": 1118.75,
      "v": 86
    },
    {
      "midi": 69,
      "hit": false,
      "t": 140993.75,
      "d": 250,
      "v": 88
    },
    {
      "midi": 69,
      "hit": false,
      "t": 141356.25,
      "d": 156.25,
      "v": 61
    },
    {
      "midi": 76,
      "hit": false,
      "t": 141362.5,
      "d": 131.25,
      "v": 81
    },
    {
      "midi": 73,
      "hit": false,
      "t": 141381.25,
      "d": 81.25,
      "v": 49
    },
    {
      "midi": 71,
      "hit": false,
      "t": 141731.25,
      "d": 318.75,
      "v": 85
    },
    {
      "midi": 78,
      "hit": false,
      "t": 141743.75,
      "d": 493.75,
      "v": 111
    },
    {
      "midi": 74,
      "hit": false,
      "t": 141743.75,
      "d": 518.75,
      "v": 100
    },
    {
      "midi": 59,
      "hit": false,
      "t": 141743.75,
      "d": 1218.75,
      "v": 84
    },
    {
      "midi": 71,
      "hit": false,
      "t": 141750,
      "d": 743.75,
      "v": 80
    },
    {
      "midi": 47,
      "hit": false,
      "t": 141756.25,
      "d": 1162.5,
      "v": 74
    },
    {
      "midi": 71,
      "hit": false,
      "t": 142137.5,
      "d": 231.25,
      "v": 77
    },
    {
      "midi": 71,
      "hit": false,
      "t": 142500,
      "d": 368.75,
      "v": 83
    },
    {
      "midi": 74,
      "hit": false,
      "t": 142562.5,
      "d": 62.5,
      "v": 74
    },
    {
      "midi": 74,
      "hit": false,
      "t": 142731.25,
      "d": 68.75,
      "v": 81
    },
    {
      "midi": 71,
      "hit": false,
      "t": 142875,
      "d": 368.75,
      "v": 81
    },
    {
      "midi": 74,
      "hit": false,
      "t": 142906.25,
      "d": 131.25,
      "v": 71
    },
    {
      "midi": 73,
      "hit": false,
      "t": 143206.25,
      "d": 350,
      "v": 51
    },
    {
      "midi": 73,
      "hit": false,
      "t": 143250,
      "d": 368.75,
      "v": 97
    },
    {
      "midi": 71,
      "hit": false,
      "t": 143600,
      "d": 125,
      "v": 63
    },
    {
      "midi": 74,
      "hit": false,
      "t": 143625,
      "d": 368.75,
      "v": 100
    },
    {
      "midi": 66,
      "hit": false,
      "t": 143968.75,
      "d": 725,
      "v": 83
    },
    {
      "midi": 69,
      "hit": false,
      "t": 143975,
      "d": 650,
      "v": 85
    },
    {
      "midi": 62,
      "hit": false,
      "t": 143981.25,
      "d": 518.75,
      "v": 91
    },
    {
      "midi": 69,
      "hit": false,
      "t": 144000,
      "d": 368.75,
      "v": 100
    },
    {
      "midi": 50,
      "hit": false,
      "t": 144318.75,
      "d": 793.75,
      "v": 52
    },
    {
      "midi": 66,
      "hit": false,
      "t": 144375,
      "d": 2243.75,
      "v": 92
    },
    {
      "midi": 62,
      "hit": false,
      "t": 144700,
      "d": 456.25,
      "v": 85
    },
    {
      "midi": 69,
      "hit": false,
      "t": 145081.25,
      "d": 393.75,
      "v": 96
    },
    {
      "midi": 49,
      "hit": false,
      "t": 145081.25,
      "d": 918.75,
      "v": 106
    },
    {
      "midi": 66,
      "hit": false,
      "t": 145087.5,
      "d": 412.5,
      "v": 83
    },
    {
      "midi": 62,
      "hit": false,
      "t": 145462.5,
      "d": 762.5,
      "v": 82
    },
    {
      "midi": 69,
      "hit": false,
      "t": 145825,
      "d": 437.5,
      "v": 89
    },
    {
      "midi": 66,
      "hit": false,
      "t": 145825,
      "d": 443.75,
      "v": 81
    },
    {
      "midi": 47,
      "hit": false,
      "t": 146218.75,
      "d": 943.75,
      "v": 106
    },
    {
      "midi": 62,
      "hit": false,
      "t": 146581.25,
      "d": 281.25,
      "v": 62
    },
    {
      "midi": 66,
      "hit": false,
      "t": 147000,
      "d": 1181.25,
      "v": 58
    },
    {
      "midi": 69,
      "hit": false,
      "t": 147000,
      "d": 368.75,
      "v": 65
    },
    {
      "midi": 62,
      "hit": false,
      "t": 147006.25,
      "d": 1150,
      "v": 58
    },
    {
      "midi": 69,
      "hit": false,
      "t": 147006.25,
      "d": 1181.25,
      "v": 63
    },
    {
      "midi": 45,
      "hit": false,
      "t": 147350,
      "d": 368.75,
      "v": 101
    },
    {
      "midi": 69,
      "hit": false,
      "t": 147375,
      "d": 368.75,
      "v": 102
    },
    {
      "midi": 47,
      "hit": false,
      "t": 147725,
      "d": 381.25,
      "v": 77
    },
    {
      "midi": 71,
      "hit": false,
      "t": 147750,
      "d": 368.75,
      "v": 85
    },
    {
      "midi": 49,
      "hit": false,
      "t": 148075,
      "d": 412.5,
      "v": 116
    },
    {
      "midi": 73,
      "hit": false,
      "t": 148125,
      "d": 368.75,
      "v": 83
    },
    {
      "midi": 71,
      "hit": false,
      "t": 148481.25,
      "d": 443.75,
      "v": 79
    },
    {
      "midi": 67,
      "hit": false,
      "t": 148487.5,
      "d": 181.25,
      "v": 78
    },
    {
      "midi": 74,
      "hit": false,
      "t": 148487.5,
      "d": 493.75,
      "v": 78
    },
    {
      "midi": 55,
      "hit": false,
      "t": 148487.5,
      "d": 1093.75,
      "v": 105
    },
    {
      "midi": 74,
      "hit": false,
      "t": 148500,
      "d": 1118.75,
      "v": 105
    },
    {
      "midi": 67,
      "hit": false,
      "t": 148862.5,
      "d": 237.5,
      "v": 77
    },
    {
      "midi": 71,
      "hit": false,
      "t": 149218.75,
      "d": 118.75,
      "v": 72
    },
    {
      "midi": 74,
      "hit": false,
      "t": 149218.75,
      "d": 150,
      "v": 66
    },
    {
      "midi": 54,
      "hit": false,
      "t": 149587.5,
      "d": 1100,
      "v": 99
    },
    {
      "midi": 71,
      "hit": false,
      "t": 149600,
      "d": 450,
      "v": 71
    },
    {
      "midi": 74,
      "hit": false,
      "t": 149600,
      "d": 475,
      "v": 87
    },
    {
      "midi": 66,
      "hit": false,
      "t": 149606.25,
      "d": 181.25,
      "v": 78
    },
    {
      "midi": 73,
      "hit": false,
      "t": 149625,
      "d": 1118.75,
      "v": 76
    },
    {
      "midi": 66,
      "hit": false,
      "t": 149962.5,
      "d": 168.75,
      "v": 59
    },
    {
      "midi": 66,
      "hit": false,
      "t": 150331.25,
      "d": 131.25,
      "v": 56
    },
    {
      "midi": 74,
      "hit": false,
      "t": 150350,
      "d": 62.5,
      "v": 65
    },
    {
      "midi": 71,
      "hit": false,
      "t": 150362.5,
      "d": 37.5,
      "v": 51
    },
    {
      "midi": 71,
      "hit": false,
      "t": 150718.75,
      "d": 531.25,
      "v": 81
    },
    {
      "midi": 52,
      "hit": false,
      "t": 150725,
      "d": 2243.75,
      "v": 84
    },
    {
      "midi": 64,
      "hit": false,
      "t": 150731.25,
      "d": 143.75,
      "v": 76
    },
    {
      "midi": 67,
      "hit": false,
      "t": 150731.25,
      "d": 506.25,
      "v": 80
    },
    {
      "midi": 71,
      "hit": false,
      "t": 150750,
      "d": 368.75,
      "v": 41
    },
    {
      "midi": 64,
      "hit": false,
      "t": 151125,
      "d": 281.25,
      "v": 60
    },
    {
      "midi": 71,
      "hit": false,
      "t": 151468.75,
      "d": 243.75,
      "v": 70
    },
    {
      "midi": 71,
      "hit": false,
      "t": 151500,
      "d": 368.75,
      "v": 85
    },
    {
      "midi": 73,
      "hit": false,
      "t": 151875,
      "d": 112.5,
      "v": 101
    },
    {
      "midi": 73,
      "hit": false,
      "t": 151875,
      "d": 368.75,
      "v": 113
    },
    {
      "midi": 74,
      "hit": false,
      "t": 152250,
      "d": 368.75,
      "v": 114
    },
    {
      "midi": 74,
      "hit": false,
      "t": 152256.25,
      "d": 156.25,
      "v": 92
    },
    {
      "midi": 76,
      "hit": false,
      "t": 152818.75,
      "d": 93.75,
      "v": 70
    },
    {
      "midi": 74,
      "hit": false,
      "t": 153000,
      "d": 731.25,
      "v": 90
    },
    {
      "midi": 76,
      "hit": false,
      "t": 153000,
      "d": 368.75,
      "v": 85
    },
    {
      "midi": 74,
      "hit": false,
      "t": 153000,
      "d": 2993.75,
      "v": 106
    },
    {
      "midi": 78,
      "hit": false,
      "t": 153006.25,
      "d": 181.25,
      "v": 110
    },
    {
      "midi": 78,
      "hit": false,
      "t": 153562.5,
      "d": 225,
      "v": 55
    },
    {
      "midi": 81,
      "hit": false,
      "t": 153762.5,
      "d": 237.5,
      "v": 75
    },
    {
      "midi": 78,
      "hit": false,
      "t": 153918.75,
      "d": 150,
      "v": 54
    },
    {
      "midi": 74,
      "hit": false,
      "t": 154131.25,
      "d": 93.75,
      "v": 96
    },
    {
      "midi": 81,
      "hit": false,
      "t": 154137.5,
      "d": 450,
      "v": 86
    },
    {
      "midi": 74,
      "hit": false,
      "t": 154531.25,
      "d": 281.25,
      "v": 44
    },
    {
      "midi": 78,
      "hit": false,
      "t": 154687.5,
      "d": 175,
      "v": 70
    },
    {
      "midi": 81,
      "hit": false,
      "t": 154887.5,
      "d": 212.5,
      "v": 60
    },
    {
      "midi": 78,
      "hit": false,
      "t": 155037.5,
      "d": 156.25,
      "v": 59
    },
    {
      "midi": 74,
      "hit": false,
      "t": 155225,
      "d": 118.75,
      "v": 59
    },
    {
      "midi": 62,
      "hit": false,
      "t": 155225,
      "d": 1737.5,
      "v": 65
    },
    {
      "midi": 50,
      "hit": false,
      "t": 155231.25,
      "d": 1600,
      "v": 85
    },
    {
      "midi": 81,
      "hit": false,
      "t": 155243.75,
      "d": 375,
      "v": 116
    },
    {
      "midi": 78,
      "hit": false,
      "t": 155250,
      "d": 237.5,
      "v": 110
    },
    {
      "midi": 74,
      "hit": false,
      "t": 155650,
      "d": 212.5,
      "v": 81
    },
    {
      "midi": 81,
      "hit": false,
      "t": 155831.25,
      "d": 112.5,
      "v": 106
    },
    {
      "midi": 78,
      "hit": false,
      "t": 155993.75,
      "d": 175,
      "v": 111
    },
    {
      "midi": 74,
      "hit": false,
      "t": 156200,
      "d": 62.5,
      "v": 71
    },
    {
      "midi": 74,
      "hit": false,
      "t": 156381.25,
      "d": 343.75,
      "v": 114
    },
    {
      "midi": 73,
      "hit": false,
      "t": 156756.25,
      "d": 312.5,
      "v": 111
    },
    {
      "midi": 67,
      "hit": false,
      "t": 157487.5,
      "d": 150,
      "v": 30
    },
    {
      "midi": 43,
      "hit": false,
      "t": 157487.5,
      "d": 868.75,
      "v": 58
    },
    {
      "midi": 55,
      "hit": false,
      "t": 157493.75,
      "d": 843.75,
      "v": 59
    },
    {
      "midi": 71,
      "hit": false,
      "t": 157500,
      "d": 112.5,
      "v": 52
    },
    {
      "midi": 74,
      "hit": false,
      "t": 157500,
      "d": 368.75,
      "v": 62
    },
    {
      "midi": 71,
      "hit": false,
      "t": 157500,
      "d": 1118.75,
      "v": 94
    },
    {
      "midi": 74,
      "hit": false,
      "t": 157500,
      "d": 1118.75,
      "v": 98
    },
    {
      "midi": 67,
      "hit": false,
      "t": 157875,
      "d": 368.75,
      "v": 57
    },
    {
      "midi": 67,
      "hit": false,
      "t": 158250,
      "d": 368.75,
      "v": 51
    },
    {
      "midi": 71,
      "hit": false,
      "t": 158250,
      "d": 368.75,
      "v": 76
    },
    {
      "midi": 74,
      "hit": false,
      "t": 158250,
      "d": 368.75,
      "v": 81
    },
    {
      "midi": 69,
      "hit": false,
      "t": 158625,
      "d": 368.75,
      "v": 78
    },
    {
      "midi": 73,
      "hit": false,
      "t": 158625,
      "d": 368.75,
      "v": 76
    },
    {
      "midi": 76,
      "hit": false,
      "t": 158625,
      "d": 368.75,
      "v": 85
    },
    {
      "midi": 45,
      "hit": false,
      "t": 158625,
      "d": 743.75,
      "v": 85
    },
    {
      "midi": 57,
      "hit": false,
      "t": 158625,
      "d": 743.75,
      "v": 54
    },
    {
      "midi": 73,
      "hit": false,
      "t": 158625,
      "d": 368.75,
      "v": 82
    },
    {
      "midi": 69,
      "hit": false,
      "t": 159000,
      "d": 368.75,
      "v": 50
    },
    {
      "midi": 74,
      "hit": false,
      "t": 159000,
      "d": 368.75,
      "v": 94
    },
    {
      "midi": 69,
      "hit": false,
      "t": 159375,
      "d": 368.75,
      "v": 53
    },
    {
      "midi": 76,
      "hit": false,
      "t": 159375,
      "d": 368.75,
      "v": 62
    },
    {
      "midi": 76,
      "hit": false,
      "t": 159375,
      "d": 368.75,
      "v": 79
    },
    {
      "midi": 71,
      "hit": false,
      "t": 159750,
      "d": 368.75,
      "v": 78
    },
    {
      "midi": 74,
      "hit": false,
      "t": 159750,
      "d": 368.75,
      "v": 99
    },
    {
      "midi": 78,
      "hit": false,
      "t": 159750,
      "d": 368.75,
      "v": 102
    },
    {
      "midi": 47,
      "hit": false,
      "t": 159750,
      "d": 1868.75,
      "v": 71
    },
    {
      "midi": 59,
      "hit": false,
      "t": 159750,
      "d": 1868.75,
      "v": 66
    },
    {
      "midi": 71,
      "hit": false,
      "t": 159750,
      "d": 743.75,
      "v": 86
    },
    {
      "midi": 71,
      "hit": false,
      "t": 160125,
      "d": 368.75,
      "v": 86
    },
    {
      "midi": 74,
      "hit": false,
      "t": 160500,
      "d": 368.75,
      "v": 69
    },
    {
      "midi": 74,
      "hit": false,
      "t": 160875,
      "d": 368.75,
      "v": 102
    },
    {
      "midi": 71,
      "hit": false,
      "t": 160875,
      "d": 368.75,
      "v": 96
    },
    {
      "midi": 73,
      "hit": false,
      "t": 161250,
      "d": 368.75,
      "v": 41
    },
    {
      "midi": 73,
      "hit": false,
      "t": 161250,
      "d": 368.75,
      "v": 73
    },
    {
      "midi": 74,
      "hit": false,
      "t": 161625,
      "d": 368.75,
      "v": 102
    },
    {
      "midi": 74,
      "hit": false,
      "t": 162000,
      "d": 368.75,
      "v": 60
    },
    {
      "midi": 78,
      "hit": false,
      "t": 162000,
      "d": 368.75,
      "v": 50
    },
    {
      "midi": 81,
      "hit": false,
      "t": 162000,
      "d": 368.75,
      "v": 74
    },
    {
      "midi": 50,
      "hit": false,
      "t": 162000,
      "d": 743.75,
      "v": 83
    },
    {
      "midi": 62,
      "hit": false,
      "t": 162000,
      "d": 1118.75,
      "v": 96
    },
    {
      "midi": 69,
      "hit": false,
      "t": 162000,
      "d": 368.75,
      "v": 102
    },
    {
      "midi": 74,
      "hit": false,
      "t": 162375,
      "d": 368.75,
      "v": 79
    },
    {
      "midi": 66,
      "hit": false,
      "t": 162375,
      "d": 1868.75,
      "v": 107
    },
    {
      "midi": 74,
      "hit": false,
      "t": 162750,
      "d": 368.75,
      "v": 81
    },
    {
      "midi": 78,
      "hit": false,
      "t": 162750,
      "d": 368.75,
      "v": 86
    },
    {
      "midi": 81,
      "hit": false,
      "t": 162750,
      "d": 368.75,
      "v": 92
    },
    {
      "midi": 61,
      "hit": false,
      "t": 163125,
      "d": 743.75,
      "v": 116
    },
    {
      "midi": 74,
      "hit": false,
      "t": 163500,
      "d": 368.75,
      "v": 86
    },
    {
      "midi": 74,
      "hit": false,
      "t": 163875,
      "d": 368.75,
      "v": 80
    },
    {
      "midi": 78,
      "hit": false,
      "t": 163875,
      "d": 368.75,
      "v": 75
    },
    {
      "midi": 81,
      "hit": false,
      "t": 163875,
      "d": 368.75,
      "v": 76
    },
    {
      "midi": 59,
      "hit": false,
      "t": 164250,
      "d": 743.75,
      "v": 93
    },
    {
      "midi": 74,
      "hit": false,
      "t": 164625,
      "d": 368.75,
      "v": 60
    },
    {
      "midi": 78,
      "hit": false,
      "t": 164625,
      "d": 368.75,
      "v": 89
    },
    {
      "midi": 81,
      "hit": false,
      "t": 164625,
      "d": 368.75,
      "v": 67
    },
    {
      "midi": 74,
      "hit": false,
      "t": 165000,
      "d": 743.75,
      "v": 59
    },
    {
      "midi": 78,
      "hit": false,
      "t": 165000,
      "d": 743.75,
      "v": 71
    },
    {
      "midi": 81,
      "hit": false,
      "t": 165000,
      "d": 743.75,
      "v": 80
    },
    {
      "midi": 69,
      "hit": false,
      "t": 165000,
      "d": 368.75,
      "v": 79
    },
    {
      "midi": 57,
      "hit": false,
      "t": 165375,
      "d": 368.75,
      "v": 91
    },
    {
      "midi": 69,
      "hit": false,
      "t": 165375,
      "d": 368.75,
      "v": 103
    },
    {
      "midi": 59,
      "hit": false,
      "t": 165750,
      "d": 368.75,
      "v": 65
    },
    {
      "midi": 71,
      "hit": false,
      "t": 165750,
      "d": 368.75,
      "v": 96
    },
    {
      "midi": 61,
      "hit": false,
      "t": 166125,
      "d": 368.75,
      "v": 3
    },
    {
      "midi": 73,
      "hit": false,
      "t": 166125,
      "d": 368.75,
      "v": 113
    },
    {
      "midi": 67,
      "hit": false,
      "t": 166500,
      "d": 368.75,
      "v": 73
    },
    {
      "midi": 74,
      "hit": false,
      "t": 166500,
      "d": 368.75,
      "v": 67
    },
    {
      "midi": 71,
      "hit": false,
      "t": 166500,
      "d": 743.75,
      "v": 86
    },
    {
      "midi": 55,
      "hit": false,
      "t": 166500,
      "d": 1118.75,
      "v": 73
    },
    {
      "midi": 74,
      "hit": false,
      "t": 166500,
      "d": 1118.75,
      "v": 111
    },
    {
      "midi": 67,
      "hit": false,
      "t": 166875,
      "d": 368.75,
      "v": 63
    },
    {
      "midi": 67,
      "hit": false,
      "t": 167250,
      "d": 368.75,
      "v": 63
    },
    {
      "midi": 71,
      "hit": false,
      "t": 167250,
      "d": 368.75,
      "v": 87
    },
    {
      "midi": 74,
      "hit": false,
      "t": 167250,
      "d": 368.75,
      "v": 69
    },
    {
      "midi": 71,
      "hit": false,
      "t": 167625,
      "d": 368.75,
      "v": 79
    },
    {
      "midi": 74,
      "hit": false,
      "t": 167625,
      "d": 368.75,
      "v": 73
    },
    {
      "midi": 54,
      "hit": false,
      "t": 167625,
      "d": 1118.75,
      "v": 50
    },
    {
      "midi": 73,
      "hit": false,
      "t": 167625,
      "d": 1118.75,
      "v": 109
    },
    {
      "midi": 66,
      "hit": false,
      "t": 168000,
      "d": 368.75,
      "v": 69
    },
    {
      "midi": 66,
      "hit": false,
      "t": 168375,
      "d": 368.75,
      "v": 69
    },
    {
      "midi": 71,
      "hit": false,
      "t": 168375,
      "d": 368.75,
      "v": 59
    },
    {
      "midi": 74,
      "hit": false,
      "t": 168375,
      "d": 368.75,
      "v": 91
    },
    {
      "midi": 64,
      "hit": false,
      "t": 168750,
      "d": 368.75,
      "v": 65
    },
    {
      "midi": 67,
      "hit": false,
      "t": 168750,
      "d": 368.75,
      "v": 75
    },
    {
      "midi": 71,
      "hit": false,
      "t": 168750,
      "d": 368.75,
      "v": 81
    },
    {
      "midi": 52,
      "hit": false,
      "t": 168750,
      "d": 2243.75,
      "v": 92
    },
    {
      "midi": 71,
      "hit": false,
      "t": 168750,
      "d": 1118.75,
      "v": 92
    },
    {
      "midi": 64,
      "hit": false,
      "t": 169125,
      "d": 368.75,
      "v": 39
    },
    {
      "midi": 71,
      "hit": false,
      "t": 169500,
      "d": 368.75,
      "v": 76
    },
    {
      "midi": 64,
      "hit": false,
      "t": 169875,
      "d": 368.75,
      "v": 71
    },
    {
      "midi": 71,
      "hit": false,
      "t": 169875,
      "d": 368.75,
      "v": 90
    },
    {
      "midi": 71,
      "hit": false,
      "t": 169875,
      "d": 368.75,
      "v": 97
    },
    {
      "midi": 73,
      "hit": false,
      "t": 170250,
      "d": 368.75,
      "v": 89
    },
    {
      "midi": 73,
      "hit": false,
      "t": 170250,
      "d": 368.75,
      "v": 102
    },
    {
      "midi": 74,
      "hit": false,
      "t": 170625,
      "d": 368.75,
      "v": 60
    },
    {
      "midi": 74,
      "hit": false,
      "t": 170625,
      "d": 368.75,
      "v": 99
    },
    {
      "midi": 69,
      "hit": false,
      "t": 171000,
      "d": 368.75,
      "v": 60
    },
    {
      "midi": 73,
      "hit": false,
      "t": 171000,
      "d": 368.75,
      "v": 74
    },
    {
      "midi": 76,
      "hit": false,
      "t": 171000,
      "d": 743.75,
      "v": 68
    },
    {
      "midi": 57,
      "hit": false,
      "t": 171000,
      "d": 1493.75,
      "v": 87
    },
    {
      "midi": 76,
      "hit": false,
      "t": 171000,
      "d": 2993.75,
      "v": 85
    },
    {
      "midi": 69,
      "hit": false,
      "t": 171375,
      "d": 368.75,
      "v": 49
    },
    {
      "midi": 73,
      "hit": false,
      "t": 171750,
      "d": 1493.75,
      "v": 47
    },
    {
      "midi": 69,
      "hit": false,
      "t": 172125,
      "d": 368.75,
      "v": 57
    },
    {
      "midi": 79,
      "hit": false,
      "t": 172125,
      "d": 743.75,
      "v": 93
    },
    {
      "midi": 69,
      "hit": false,
      "t": 172500,
      "d": 368.75,
      "v": 66
    },
    {
      "midi": 57,
      "hit": false,
      "t": 172875,
      "d": 2618.75,
      "v": 102
    },
    {
      "midi": 69,
      "hit": false,
      "t": 173250,
      "d": 368.75,
      "v": 81
    },
    {
      "midi": 79,
      "hit": false,
      "t": 173250,
      "d": 368.75,
      "v": 78
    },
    {
      "midi": 73,
      "hit": false,
      "t": 173250,
      "d": 743.75,
      "v": 38
    },
    {
      "midi": 69,
      "hit": false,
      "t": 173625,
      "d": 368.75,
      "v": 69
    },
    {
      "midi": 74,
      "hit": false,
      "t": 174000,
      "d": 368.75,
      "v": 103
    },
    {
      "midi": 74,
      "hit": false,
      "t": 174000,
      "d": 368.75,
      "v": 93
    },
    {
      "midi": 74,
      "hit": false,
      "t": 174375,
      "d": 368.75,
      "v": 102
    },
    {
      "midi": 74,
      "hit": false,
      "t": 174375,
      "d": 368.75,
      "v": 99
    },
    {
      "midi": 73,
      "hit": false,
      "t": 174750,
      "d": 368.75,
      "v": 88
    },
    {
      "midi": 73,
      "hit": false,
      "t": 174750,
      "d": 368.75,
      "v": 98
    },
    {
      "midi": 71,
      "hit": false,
      "t": 175125,
      "d": 368.75,
      "v": 92
    },
    {
      "midi": 71,
      "hit": false,
      "t": 175125,
      "d": 368.75,
      "v": 85
    },
    {
      "midi": 67,
      "hit": false,
      "t": 175500,
      "d": 368.75,
      "v": 63
    },
    {
      "midi": 71,
      "hit": false,
      "t": 175500,
      "d": 368.75,
      "v": 75
    },
    {
      "midi": 74,
      "hit": false,
      "t": 175500,
      "d": 368.75,
      "v": 78
    },
    {
      "midi": 55,
      "hit": false,
      "t": 175500,
      "d": 1118.75,
      "v": 107
    },
    {
      "midi": 74,
      "hit": false,
      "t": 175500,
      "d": 1118.75,
      "v": 102
    },
    {
      "midi": 67,
      "hit": false,
      "t": 175875,
      "d": 368.75,
      "v": 58
    },
    {
      "midi": 71,
      "hit": false,
      "t": 176250,
      "d": 368.75,
      "v": 68
    },
    {
      "midi": 73,
      "hit": false,
      "t": 176625,
      "d": 368.75,
      "v": 93
    },
    {
      "midi": 76,
      "hit": false,
      "t": 176625,
      "d": 743.75,
      "v": 77
    },
    {
      "midi": 57,
      "hit": false,
      "t": 176625,
      "d": 1118.75,
      "v": 101
    },
    {
      "midi": 76,
      "hit": false,
      "t": 176625,
      "d": 1118.75,
      "v": 81
    },
    {
      "midi": 69,
      "hit": false,
      "t": 177000,
      "d": 368.75,
      "v": 71
    },
    {
      "midi": 73,
      "hit": false,
      "t": 177375,
      "d": 368.75,
      "v": 71
    },
    {
      "midi": 71,
      "hit": false,
      "t": 177750,
      "d": 368.75,
      "v": 54
    },
    {
      "midi": 74,
      "hit": false,
      "t": 177750,
      "d": 368.75,
      "v": 49
    },
    {
      "midi": 78,
      "hit": false,
      "t": 177750,
      "d": 368.75,
      "v": 76
    },
    {
      "midi": 59,
      "hit": false,
      "t": 177750,
      "d": 2243.75,
      "v": 67
    },
    {
      "midi": 78,
      "hit": false,
      "t": 177750,
      "d": 743.75,
      "v": 110
    },
    {
      "midi": 71,
      "hit": false,
      "t": 178125,
      "d": 368.75,
      "v": 85
    },
    {
      "midi": 74,
      "hit": false,
      "t": 178500,
      "d": 368.75,
      "v": 69
    },
    {
      "midi": 74,
      "hit": false,
      "t": 178500,
      "d": 368.75,
      "v": 85
    },
    {
      "midi": 74,
      "hit": false,
      "t": 178875,
      "d": 368.75,
      "v": 81
    },
    {
      "midi": 74,
      "hit": false,
      "t": 178875,
      "d": 368.75,
      "v": 78
    },
    {
      "midi": 73,
      "hit": false,
      "t": 179250,
      "d": 368.75,
      "v": 67
    },
    {
      "midi": 73,
      "hit": false,
      "t": 179250,
      "d": 368.75,
      "v": 78
    },
    {
      "midi": 71,
      "hit": false,
      "t": 179625,
      "d": 368.75,
      "v": 54
    },
    {
      "midi": 71,
      "hit": false,
      "t": 179625,
      "d": 368.75,
      "v": 92
    },
    {
      "midi": 74,
      "hit": false,
      "t": 180000,
      "d": 368.75,
      "v": 65
    },
    {
      "midi": 78,
      "hit": false,
      "t": 180000,
      "d": 368.75,
      "v": 72
    },
    {
      "midi": 81,
      "hit": false,
      "t": 180000,
      "d": 743.75,
      "v": 87
    },
    {
      "midi": 69,
      "hit": false,
      "t": 180000,
      "d": 368.75,
      "v": 100
    },
    {
      "midi": 62,
      "hit": false,
      "t": 180375,
      "d": 743.75,
      "v": 78
    },
    {
      "midi": 66,
      "hit": false,
      "t": 180375,
      "d": 2243.75,
      "v": 111
    },
    {
      "midi": 74,
      "hit": false,
      "t": 180750,
      "d": 368.75,
      "v": 72
    },
    {
      "midi": 81,
      "hit": false,
      "t": 180750,
      "d": 368.75,
      "v": 99
    },
    {
      "midi": 74,
      "hit": false,
      "t": 181125,
      "d": 368.75,
      "v": 68
    },
    {
      "midi": 78,
      "hit": false,
      "t": 181125,
      "d": 368.75,
      "v": 81
    },
    {
      "midi": 81,
      "hit": false,
      "t": 181125,
      "d": 368.75,
      "v": 87
    },
    {
      "midi": 61,
      "hit": false,
      "t": 181125,
      "d": 1118.75,
      "v": 92
    },
    {
      "midi": 74,
      "hit": false,
      "t": 181500,
      "d": 368.75,
      "v": 81
    },
    {
      "midi": 74,
      "hit": false,
      "t": 181875,
      "d": 368.75,
      "v": 58
    },
    {
      "midi": 78,
      "hit": false,
      "t": 181875,
      "d": 368.75,
      "v": 55
    },
    {
      "midi": 81,
      "hit": false,
      "t": 181875,
      "d": 368.75,
      "v": 58
    },
    {
      "midi": 59,
      "hit": false,
      "t": 182250,
      "d": 1118.75,
      "v": 80
    },
    {
      "midi": 74,
      "hit": false,
      "t": 182625,
      "d": 368.75,
      "v": 85
    },
    {
      "midi": 74,
      "hit": false,
      "t": 183000,
      "d": 1118.75,
      "v": 67
    },
    {
      "midi": 78,
      "hit": false,
      "t": 183000,
      "d": 1118.75,
      "v": 74
    },
    {
      "midi": 81,
      "hit": false,
      "t": 183000,
      "d": 1118.75,
      "v": 58
    },
    {
      "midi": 57,
      "hit": false,
      "t": 183375,
      "d": 368.75,
      "v": 102
    },
    {
      "midi": 69,
      "hit": false,
      "t": 183375,
      "d": 368.75,
      "v": 73
    },
    {
      "midi": 59,
      "hit": false,
      "t": 183750,
      "d": 368.75,
      "v": 63
    },
    {
      "midi": 71,
      "hit": false,
      "t": 183750,
      "d": 368.75,
      "v": 81
    },
    {
      "midi": 61,
      "hit": false,
      "t": 184125,
      "d": 368.75,
      "v": 107
    },
    {
      "midi": 73,
      "hit": false,
      "t": 184125,
      "d": 368.75,
      "v": 89
    },
    {
      "midi": 67,
      "hit": false,
      "t": 184500,
      "d": 368.75,
      "v": 61
    },
    {
      "midi": 71,
      "hit": false,
      "t": 184500,
      "d": 368.75,
      "v": 87
    },
    {
      "midi": 74,
      "hit": false,
      "t": 184500,
      "d": 743.75,
      "v": 90
    },
    {
      "midi": 55,
      "hit": false,
      "t": 184500,
      "d": 1118.75,
      "v": 70
    },
    {
      "midi": 74,
      "hit": false,
      "t": 184500,
      "d": 1118.75,
      "v": 98
    },
    {
      "midi": 67,
      "hit": false,
      "t": 184875,
      "d": 368.75,
      "v": 52
    },
    {
      "midi": 67,
      "hit": false,
      "t": 185250,
      "d": 368.75,
      "v": 59
    },
    {
      "midi": 71,
      "hit": false,
      "t": 185250,
      "d": 368.75,
      "v": 68
    },
    {
      "midi": 74,
      "hit": false,
      "t": 185250,
      "d": 368.75,
      "v": 65
    },
    {
      "midi": 69,
      "hit": false,
      "t": 185625,
      "d": 368.75,
      "v": 63
    },
    {
      "midi": 73,
      "hit": false,
      "t": 185625,
      "d": 368.75,
      "v": 82
    },
    {
      "midi": 54,
      "hit": false,
      "t": 185625,
      "d": 1118.75,
      "v": 110
    },
    {
      "midi": 73,
      "hit": false,
      "t": 185625,
      "d": 1118.75,
      "v": 68
    },
    {
      "midi": 66,
      "hit": false,
      "t": 186000,
      "d": 368.75,
      "v": 69
    },
    {
      "midi": 69,
      "hit": false,
      "t": 186000,
      "d": 368.75,
      "v": 43
    },
    {
      "midi": 74,
      "hit": false,
      "t": 186000,
      "d": 368.75,
      "v": 55
    },
    {
      "midi": 66,
      "hit": false,
      "t": 186375,
      "d": 368.75,
      "v": 66
    },
    {
      "midi": 64,
      "hit": false,
      "t": 186750,
      "d": 368.75,
      "v": 70
    },
    {
      "midi": 67,
      "hit": false,
      "t": 186750,
      "d": 368.75,
      "v": 73
    },
    {
      "midi": 71,
      "hit": false,
      "t": 186750,
      "d": 368.75,
      "v": 70
    },
    {
      "midi": 52,
      "hit": false,
      "t": 186750,
      "d": 2243.75,
      "v": 67
    },
    {
      "midi": 71,
      "hit": false,
      "t": 186750,
      "d": 1118.75,
      "v": 94
    },
    {
      "midi": 64,
      "hit": false,
      "t": 187125,
      "d": 368.75,
      "v": 63
    },
    {
      "midi": 71,
      "hit": false,
      "t": 187500,
      "d": 368.75,
      "v": 80
    },
    {
      "midi": 73,
      "hit": false,
      "t": 187875,
      "d": 368.75,
      "v": 98
    },
    {
      "midi": 73,
      "hit": false,
      "t": 187875,
      "d": 368.75,
      "v": 81
    },
    {
      "midi": 74,
      "hit": false,
      "t": 188250,
      "d": 368.75,
      "v": 97
    },
    {
      "midi": 74,
      "hit": false,
      "t": 188250,
      "d": 368.75,
      "v": 94
    },
    {
      "midi": 76,
      "hit": false,
      "t": 188625,
      "d": 368.75,
      "v": 69
    },
    {
      "midi": 76,
      "hit": false,
      "t": 188625,
      "d": 368.75,
      "v": 79
    },
    {
      "midi": 78,
      "hit": false,
      "t": 189000,
      "d": 368.75,
      "v": 91
    },
    {
      "midi": 81,
      "hit": false,
      "t": 189000,
      "d": 368.75,
      "v": 32
    },
    {
      "midi": 62,
      "hit": false,
      "t": 189000,
      "d": 2243.75,
      "v": 56
    },
    {
      "midi": 74,
      "hit": false,
      "t": 189000,
      "d": 3743.75,
      "v": 54
    },
    {
      "midi": 74,
      "hit": false,
      "t": 189375,
      "d": 368.75,
      "v": 74
    },
    {
      "midi": 78,
      "hit": false,
      "t": 189750,
      "d": 743.75,
      "v": 60
    },
    {
      "midi": 81,
      "hit": false,
      "t": 190125,
      "d": 368.75,
      "v": 23
    },
    {
      "midi": 74,
      "hit": false,
      "t": 190500,
      "d": 368.75,
      "v": 34
    },
    {
      "midi": 78,
      "hit": false,
      "t": 190875,
      "d": 368.75,
      "v": 55
    },
    {
      "midi": 81,
      "hit": false,
      "t": 190875,
      "d": 368.75,
      "v": 73
    },
    {
      "midi": 74,
      "hit": false,
      "t": 191250,
      "d": 368.75,
      "v": 81
    },
    {
      "midi": 78,
      "hit": false,
      "t": 191250,
      "d": 743.75,
      "v": 65
    },
    {
      "midi": 81,
      "hit": false,
      "t": 191250,
      "d": 743.75,
      "v": 76
    },
    {
      "midi": 62,
      "hit": false,
      "t": 191625,
      "d": 1118.75,
      "v": 55
    },
    {
      "midi": 74,
      "hit": false,
      "t": 192000,
      "d": 368.75,
      "v": 79
    },
    {
      "midi": 74,
      "hit": false,
      "t": 192375,
      "d": 368.75,
      "v": 84
    },
    {
      "midi": 73,
      "hit": false,
      "t": 192750,
      "d": 368.75,
      "v": 100
    },
    {
      "midi": 71,
      "hit": false,
      "t": 193125,
      "d": 368.75,
      "v": 114
    },
    {
      "midi": 71,
      "hit": false,
      "t": 193500,
      "d": 368.75,
      "v": 52
    },
    {
      "midi": 74,
      "hit": false,
      "t": 193500,
      "d": 368.75,
      "v": 62
    },
    {
      "midi": 74,
      "hit": false,
      "t": 193500,
      "d": 1118.75,
      "v": 98
    },
    {
      "midi": 67,
      "hit": false,
      "t": 193875,
      "d": 368.75,
      "v": 57
    },
    {
      "midi": 67,
      "hit": false,
      "t": 194250,
      "d": 368.75,
      "v": 51
    },
    {
      "midi": 71,
      "hit": false,
      "t": 194250,
      "d": 368.75,
      "v": 76
    },
    {
      "midi": 74,
      "hit": false,
      "t": 194250,
      "d": 368.75,
      "v": 81
    },
    {
      "midi": 69,
      "hit": false,
      "t": 194625,
      "d": 368.75,
      "v": 78
    },
    {
      "midi": 73,
      "hit": false,
      "t": 194625,
      "d": 368.75,
      "v": 76
    },
    {
      "midi": 76,
      "hit": false,
      "t": 194625,
      "d": 368.75,
      "v": 85
    },
    {
      "midi": 45,
      "hit": false,
      "t": 194625,
      "d": 743.75,
      "v": 85
    },
    {
      "midi": 57,
      "hit": false,
      "t": 194625,
      "d": 743.75,
      "v": 54
    },
    {
      "midi": 73,
      "hit": false,
      "t": 194625,
      "d": 1118.75,
      "v": 82
    },
    {
      "midi": 69,
      "hit": false,
      "t": 195000,
      "d": 368.75,
      "v": 50
    },
    {
      "midi": 69,
      "hit": false,
      "t": 195375,
      "d": 368.75,
      "v": 53
    },
    {
      "midi": 76,
      "hit": false,
      "t": 195375,
      "d": 368.75,
      "v": 62
    },
    {
      "midi": 71,
      "hit": false,
      "t": 195750,
      "d": 368.75,
      "v": 78
    },
    {
      "midi": 74,
      "hit": false,
      "t": 195750,
      "d": 368.75,
      "v": 99
    },
    {
      "midi": 78,
      "hit": false,
      "t": 195750,
      "d": 368.75,
      "v": 102
    },
    {
      "midi": 47,
      "hit": false,
      "t": 195750,
      "d": 1868.75,
      "v": 71
    },
    {
      "midi": 59,
      "hit": false,
      "t": 195750,
      "d": 1868.75,
      "v": 66
    },
    {
      "midi": 71,
      "hit": false,
      "t": 195750,
      "d": 743.75,
      "v": 86
    },
    {
      "midi": 71,
      "hit": false,
      "t": 196125,
      "d": 368.75,
      "v": 86
    },
    {
      "midi": 74,
      "hit": false,
      "t": 196500,
      "d": 368.75,
      "v": 69
    },
    {
      "midi": 74,
      "hit": false,
      "t": 196875,
      "d": 368.75,
      "v": 102
    },
    {
      "midi": 71,
      "hit": false,
      "t": 196875,
      "d": 368.75,
      "v": 96
    },
    {
      "midi": 73,
      "hit": false,
      "t": 197250,
      "d": 368.75,
      "v": 41
    },
    {
      "midi": 73,
      "hit": false,
      "t": 197250,
      "d": 368.75,
      "v": 73
    },
    {
      "midi": 74,
      "hit": false,
      "t": 197625,
      "d": 368.75,
      "v": 102
    },
    {
      "midi": 74,
      "hit": false,
      "t": 198000,
      "d": 368.75,
      "v": 60
    },
    {
      "midi": 78,
      "hit": false,
      "t": 198000,
      "d": 368.75,
      "v": 50
    },
    {
      "midi": 81,
      "hit": false,
      "t": 198000,
      "d": 368.75,
      "v": 74
    },
    {
      "midi": 50,
      "hit": false,
      "t": 198000,
      "d": 743.75,
      "v": 83
    },
    {
      "midi": 62,
      "hit": false,
      "t": 198000,
      "d": 1118.75,
      "v": 96
    },
    {
      "midi": 69,
      "hit": false,
      "t": 198000,
      "d": 368.75,
      "v": 102
    },
    {
      "midi": 74,
      "hit": false,
      "t": 198375,
      "d": 368.75,
      "v": 79
    },
    {
      "midi": 66,
      "hit": false,
      "t": 198375,
      "d": 1868.75,
      "v": 107
    },
    {
      "midi": 74,
      "hit": false,
      "t": 198750,
      "d": 368.75,
      "v": 81
    },
    {
      "midi": 78,
      "hit": false,
      "t": 198750,
      "d": 368.75,
      "v": 86
    },
    {
      "midi": 81,
      "hit": false,
      "t": 198750,
      "d": 368.75,
      "v": 92
    },
    {
      "midi": 61,
      "hit": false,
      "t": 199125,
      "d": 743.75,
      "v": 116
    },
    {
      "midi": 74,
      "hit": false,
      "t": 199500,
      "d": 368.75,
      "v": 86
    },
    {
      "midi": 74,
      "hit": false,
      "t": 199875,
      "d": 368.75,
      "v": 80
    },
    {
      "midi": 78,
      "hit": false,
      "t": 199875,
      "d": 368.75,
      "v": 75
    },
    {
      "midi": 81,
      "hit": false,
      "t": 199875,
      "d": 368.75,
      "v": 76
    },
    {
      "midi": 59,
      "hit": false,
      "t": 200250,
      "d": 743.75,
      "v": 93
    },
    {
      "midi": 74,
      "hit": false,
      "t": 200625,
      "d": 368.75,
      "v": 60
    },
    {
      "midi": 78,
      "hit": false,
      "t": 200625,
      "d": 368.75,
      "v": 89
    },
    {
      "midi": 81,
      "hit": false,
      "t": 200625,
      "d": 368.75,
      "v": 67
    },
    {
      "midi": 74,
      "hit": false,
      "t": 201000,
      "d": 743.75,
      "v": 59
    },
    {
      "midi": 78,
      "hit": false,
      "t": 201000,
      "d": 743.75,
      "v": 71
    },
    {
      "midi": 81,
      "hit": false,
      "t": 201000,
      "d": 743.75,
      "v": 80
    },
    {
      "midi": 69,
      "hit": false,
      "t": 201000,
      "d": 368.75,
      "v": 79
    },
    {
      "midi": 57,
      "hit": false,
      "t": 201375,
      "d": 368.75,
      "v": 91
    },
    {
      "midi": 69,
      "hit": false,
      "t": 201375,
      "d": 368.75,
      "v": 103
    },
    {
      "midi": 59,
      "hit": false,
      "t": 201750,
      "d": 368.75,
      "v": 65
    },
    {
      "midi": 71,
      "hit": false,
      "t": 201750,
      "d": 368.75,
      "v": 96
    },
    {
      "midi": 61,
      "hit": false,
      "t": 202125,
      "d": 368.75,
      "v": 3
    },
    {
      "midi": 73,
      "hit": false,
      "t": 202125,
      "d": 368.75,
      "v": 113
    },
    {
      "midi": 67,
      "hit": false,
      "t": 202500,
      "d": 368.75,
      "v": 73
    },
    {
      "midi": 74,
      "hit": false,
      "t": 202500,
      "d": 368.75,
      "v": 67
    },
    {
      "midi": 71,
      "hit": false,
      "t": 202500,
      "d": 743.75,
      "v": 86
    },
    {
      "midi": 55,
      "hit": false,
      "t": 202500,
      "d": 1118.75,
      "v": 73
    },
    {
      "midi": 74,
      "hit": false,
      "t": 202500,
      "d": 1118.75,
      "v": 111
    },
    {
      "midi": 67,
      "hit": false,
      "t": 202875,
      "d": 368.75,
      "v": 63
    },
    {
      "midi": 67,
      "hit": false,
      "t": 203250,
      "d": 368.75,
      "v": 63
    },
    {
      "midi": 71,
      "hit": false,
      "t": 203250,
      "d": 368.75,
      "v": 87
    },
    {
      "midi": 74,
      "hit": false,
      "t": 203250,
      "d": 368.75,
      "v": 69
    },
    {
      "midi": 71,
      "hit": false,
      "t": 203625,
      "d": 368.75,
      "v": 79
    },
    {
      "midi": 74,
      "hit": false,
      "t": 203625,
      "d": 368.75,
      "v": 73
    },
    {
      "midi": 54,
      "hit": false,
      "t": 203625,
      "d": 1118.75,
      "v": 50
    },
    {
      "midi": 73,
      "hit": false,
      "t": 203625,
      "d": 1118.75,
      "v": 109
    },
    {
      "midi": 66,
      "hit": false,
      "t": 204000,
      "d": 368.75,
      "v": 69
    },
    {
      "midi": 66,
      "hit": false,
      "t": 204375,
      "d": 368.75,
      "v": 69
    },
    {
      "midi": 71,
      "hit": false,
      "t": 204375,
      "d": 368.75,
      "v": 59
    },
    {
      "midi": 74,
      "hit": false,
      "t": 204375,
      "d": 368.75,
      "v": 91
    },
    {
      "midi": 64,
      "hit": false,
      "t": 204750,
      "d": 368.75,
      "v": 65
    },
    {
      "midi": 67,
      "hit": false,
      "t": 204750,
      "d": 368.75,
      "v": 75
    },
    {
      "midi": 71,
      "hit": false,
      "t": 204750,
      "d": 368.75,
      "v": 81
    },
    {
      "midi": 52,
      "hit": false,
      "t": 204750,
      "d": 2243.75,
      "v": 92
    },
    {
      "midi": 71,
      "hit": false,
      "t": 204750,
      "d": 1118.75,
      "v": 92
    },
    {
      "midi": 64,
      "hit": false,
      "t": 205125,
      "d": 368.75,
      "v": 39
    },
    {
      "midi": 71,
      "hit": false,
      "t": 205500,
      "d": 368.75,
      "v": 76
    },
    {
      "midi": 64,
      "hit": false,
      "t": 205875,
      "d": 368.75,
      "v": 71
    },
    {
      "midi": 71,
      "hit": false,
      "t": 205875,
      "d": 368.75,
      "v": 90
    },
    {
      "midi": 71,
      "hit": false,
      "t": 205875,
      "d": 368.75,
      "v": 97
    },
    {
      "midi": 73,
      "hit": false,
      "t": 206250,
      "d": 368.75,
      "v": 89
    },
    {
      "midi": 73,
      "hit": false,
      "t": 206250,
      "d": 368.75,
      "v": 102
    },
    {
      "midi": 74,
      "hit": false,
      "t": 206625,
      "d": 368.75,
      "v": 60
    },
    {
      "midi": 74,
      "hit": false,
      "t": 206625,
      "d": 368.75,
      "v": 99
    },
    {
      "midi": 69,
      "hit": false,
      "t": 207000,
      "d": 368.75,
      "v": 60
    },
    {
      "midi": 73,
      "hit": false,
      "t": 207000,
      "d": 368.75,
      "v": 74
    },
    {
      "midi": 76,
      "hit": false,
      "t": 207000,
      "d": 743.75,
      "v": 68
    },
    {
      "midi": 57,
      "hit": false,
      "t": 207000,
      "d": 1493.75,
      "v": 87
    },
    {
      "midi": 76,
      "hit": false,
      "t": 207000,
      "d": 2993.75,
      "v": 85
    },
    {
      "midi": 69,
      "hit": false,
      "t": 207375,
      "d": 368.75,
      "v": 49
    },
    {
      "midi": 73,
      "hit": false,
      "t": 207750,
      "d": 1493.75,
      "v": 47
    },
    {
      "midi": 69,
      "hit": false,
      "t": 208125,
      "d": 368.75,
      "v": 57
    },
    {
      "midi": 79,
      "hit": false,
      "t": 208125,
      "d": 743.75,
      "v": 93
    },
    {
      "midi": 69,
      "hit": false,
      "t": 208500,
      "d": 368.75,
      "v": 66
    },
    {
      "midi": 57,
      "hit": false,
      "t": 208875,
      "d": 2618.75,
      "v": 102
    },
    {
      "midi": 69,
      "hit": false,
      "t": 209250,
      "d": 368.75,
      "v": 81
    },
    {
      "midi": 79,
      "hit": false,
      "t": 209250,
      "d": 368.75,
      "v": 78
    },
    {
      "midi": 73,
      "hit": false,
      "t": 209250,
      "d": 743.75,
      "v": 38
    },
    {
      "midi": 69,
      "hit": false,
      "t": 209625,
      "d": 368.75,
      "v": 69
    },
    {
      "midi": 74,
      "hit": false,
      "t": 210000,
      "d": 368.75,
      "v": 103
    },
    {
      "midi": 74,
      "hit": false,
      "t": 210000,
      "d": 368.75,
      "v": 93
    },
    {
      "midi": 74,
      "hit": false,
      "t": 210375,
      "d": 368.75,
      "v": 102
    },
    {
      "midi": 74,
      "hit": false,
      "t": 210375,
      "d": 368.75,
      "v": 99
    },
    {
      "midi": 73,
      "hit": false,
      "t": 210750,
      "d": 368.75,
      "v": 88
    },
    {
      "midi": 73,
      "hit": false,
      "t": 210750,
      "d": 368.75,
      "v": 98
    },
    {
      "midi": 71,
      "hit": false,
      "t": 211125,
      "d": 368.75,
      "v": 92
    },
    {
      "midi": 71,
      "hit": false,
      "t": 211125,
      "d": 368.75,
      "v": 85
    },
    {
      "midi": 67,
      "hit": false,
      "t": 211500,
      "d": 368.75,
      "v": 63
    },
    {
      "midi": 71,
      "hit": false,
      "t": 211500,
      "d": 368.75,
      "v": 75
    },
    {
      "midi": 74,
      "hit": false,
      "t": 211500,
      "d": 368.75,
      "v": 78
    },
    {
      "midi": 55,
      "hit": false,
      "t": 211500,
      "d": 1118.75,
      "v": 107
    },
    {
      "midi": 74,
      "hit": false,
      "t": 211500,
      "d": 1118.75,
      "v": 102
    },
    {
      "midi": 67,
      "hit": false,
      "t": 211875,
      "d": 368.75,
      "v": 58
    },
    {
      "midi": 71,
      "hit": false,
      "t": 212250,
      "d": 368.75,
      "v": 68
    },
    {
      "midi": 73,
      "hit": false,
      "t": 212625,
      "d": 368.75,
      "v": 93
    },
    {
      "midi": 76,
      "hit": false,
      "t": 212625,
      "d": 743.75,
      "v": 77
    },
    {
      "midi": 57,
      "hit": false,
      "t": 212625,
      "d": 1118.75,
      "v": 101
    },
    {
      "midi": 76,
      "hit": false,
      "t": 212625,
      "d": 1118.75,
      "v": 81
    },
    {
      "midi": 69,
      "hit": false,
      "t": 213000,
      "d": 368.75,
      "v": 71
    },
    {
      "midi": 73,
      "hit": false,
      "t": 213375,
      "d": 368.75,
      "v": 71
    },
    {
      "midi": 71,
      "hit": false,
      "t": 213750,
      "d": 368.75,
      "v": 54
    },
    {
      "midi": 74,
      "hit": false,
      "t": 213750,
      "d": 368.75,
      "v": 49
    },
    {
      "midi": 78,
      "hit": false,
      "t": 213750,
      "d": 368.75,
      "v": 76
    },
    {
      "midi": 59,
      "hit": false,
      "t": 213750,
      "d": 2243.75,
      "v": 67
    },
    {
      "midi": 78,
      "hit": false,
      "t": 213750,
      "d": 743.75,
      "v": 110
    },
    {
      "midi": 71,
      "hit": false,
      "t": 214125,
      "d": 368.75,
      "v": 85
    },
    {
      "midi": 74,
      "hit": false,
      "t": 214500,
      "d": 368.75,
      "v": 69
    },
    {
      "midi": 74,
      "hit": false,
      "t": 214500,
      "d": 368.75,
      "v": 85
    },
    {
      "midi": 74,
      "hit": false,
      "t": 214875,
      "d": 368.75,
      "v": 81
    },
    {
      "midi": 74,
      "hit": false,
      "t": 214875,
      "d": 368.75,
      "v": 78
    },
    {
      "midi": 73,
      "hit": false,
      "t": 215250,
      "d": 368.75,
      "v": 67
    },
    {
      "midi": 73,
      "hit": false,
      "t": 215250,
      "d": 368.75,
      "v": 78
    },
    {
      "midi": 71,
      "hit": false,
      "t": 215625,
      "d": 368.75,
      "v": 54
    },
    {
      "midi": 71,
      "hit": false,
      "t": 215625,
      "d": 368.75,
      "v": 92
    },
    {
      "midi": 74,
      "hit": false,
      "t": 216000,
      "d": 368.75,
      "v": 65
    },
    {
      "midi": 78,
      "hit": false,
      "t": 216000,
      "d": 368.75,
      "v": 72
    },
    {
      "midi": 81,
      "hit": false,
      "t": 216000,
      "d": 743.75,
      "v": 87
    },
    {
      "midi": 69,
      "hit": false,
      "t": 216000,
      "d": 368.75,
      "v": 100
    },
    {
      "midi": 62,
      "hit": false,
      "t": 216375,
      "d": 743.75,
      "v": 78
    },
    {
      "midi": 66,
      "hit": false,
      "t": 216375,
      "d": 2243.75,
      "v": 111
    },
    {
      "midi": 74,
      "hit": false,
      "t": 216750,
      "d": 368.75,
      "v": 72
    },
    {
      "midi": 81,
      "hit": false,
      "t": 216750,
      "d": 368.75,
      "v": 99
    },
    {
      "midi": 74,
      "hit": false,
      "t": 217125,
      "d": 368.75,
      "v": 68
    },
    {
      "midi": 78,
      "hit": false,
      "t": 217125,
      "d": 368.75,
      "v": 81
    },
    {
      "midi": 81,
      "hit": false,
      "t": 217125,
      "d": 368.75,
      "v": 87
    },
    {
      "midi": 61,
      "hit": false,
      "t": 217125,
      "d": 1118.75,
      "v": 92
    },
    {
      "midi": 74,
      "hit": false,
      "t": 217500,
      "d": 368.75,
      "v": 81
    },
    {
      "midi": 74,
      "hit": false,
      "t": 217875,
      "d": 368.75,
      "v": 58
    },
    {
      "midi": 78,
      "hit": false,
      "t": 217875,
      "d": 368.75,
      "v": 55
    },
    {
      "midi": 81,
      "hit": false,
      "t": 217875,
      "d": 368.75,
      "v": 58
    },
    {
      "midi": 59,
      "hit": false,
      "t": 218250,
      "d": 1118.75,
      "v": 80
    },
    {
      "midi": 74,
      "hit": false,
      "t": 218625,
      "d": 368.75,
      "v": 85
    },
    {
      "midi": 74,
      "hit": false,
      "t": 219000,
      "d": 1118.75,
      "v": 67
    },
    {
      "midi": 78,
      "hit": false,
      "t": 219000,
      "d": 1118.75,
      "v": 74
    },
    {
      "midi": 81,
      "hit": false,
      "t": 219000,
      "d": 1118.75,
      "v": 58
    },
    {
      "midi": 57,
      "hit": false,
      "t": 219375,
      "d": 368.75,
      "v": 102
    },
    {
      "midi": 69,
      "hit": false,
      "t": 219375,
      "d": 368.75,
      "v": 73
    },
    {
      "midi": 59,
      "hit": false,
      "t": 219750,
      "d": 368.75,
      "v": 63
    },
    {
      "midi": 71,
      "hit": false,
      "t": 219750,
      "d": 368.75,
      "v": 81
    },
    {
      "midi": 61,
      "hit": false,
      "t": 220125,
      "d": 368.75,
      "v": 107
    },
    {
      "midi": 73,
      "hit": false,
      "t": 220125,
      "d": 368.75,
      "v": 89
    },
    {
      "midi": 67,
      "hit": false,
      "t": 220500,
      "d": 368.75,
      "v": 61
    },
    {
      "midi": 71,
      "hit": false,
      "t": 220500,
      "d": 368.75,
      "v": 87
    },
    {
      "midi": 74,
      "hit": false,
      "t": 220500,
      "d": 743.75,
      "v": 90
    },
    {
      "midi": 55,
      "hit": false,
      "t": 220500,
      "d": 1118.75,
      "v": 70
    },
    {
      "midi": 74,
      "hit": false,
      "t": 220500,
      "d": 1118.75,
      "v": 98
    },
    {
      "midi": 67,
      "hit": false,
      "t": 220875,
      "d": 368.75,
      "v": 52
    },
    {
      "midi": 67,
      "hit": false,
      "t": 221250,
      "d": 368.75,
      "v": 59
    },
    {
      "midi": 71,
      "hit": false,
      "t": 221250,
      "d": 368.75,
      "v": 68
    },
    {
      "midi": 74,
      "hit": false,
      "t": 221250,
      "d": 368.75,
      "v": 65
    },
    {
      "midi": 69,
      "hit": false,
      "t": 221625,
      "d": 368.75,
      "v": 63
    },
    {
      "midi": 73,
      "hit": false,
      "t": 221625,
      "d": 368.75,
      "v": 82
    },
    {
      "midi": 54,
      "hit": false,
      "t": 221625,
      "d": 1118.75,
      "v": 110
    },
    {
      "midi": 73,
      "hit": false,
      "t": 221625,
      "d": 1118.75,
      "v": 68
    },
    {
      "midi": 66,
      "hit": false,
      "t": 222000,
      "d": 368.75,
      "v": 69
    },
    {
      "midi": 69,
      "hit": false,
      "t": 222000,
      "d": 368.75,
      "v": 43
    },
    {
      "midi": 74,
      "hit": false,
      "t": 222000,
      "d": 368.75,
      "v": 55
    },
    {
      "midi": 66,
      "hit": false,
      "t": 222375,
      "d": 368.75,
      "v": 66
    },
    {
      "midi": 64,
      "hit": false,
      "t": 222750,
      "d": 368.75,
      "v": 70
    },
    {
      "midi": 67,
      "hit": false,
      "t": 222750,
      "d": 368.75,
      "v": 73
    },
    {
      "midi": 71,
      "hit": false,
      "t": 222750,
      "d": 368.75,
      "v": 70
    },
    {
      "midi": 52,
      "hit": false,
      "t": 222750,
      "d": 2243.75,
      "v": 67
    },
    {
      "midi": 71,
      "hit": false,
      "t": 222750,
      "d": 1118.75,
      "v": 94
    },
    {
      "midi": 64,
      "hit": false,
      "t": 223125,
      "d": 368.75,
      "v": 63
    },
    {
      "midi": 71,
      "hit": false,
      "t": 223500,
      "d": 368.75,
      "v": 80
    },
    {
      "midi": 73,
      "hit": false,
      "t": 223875,
      "d": 368.75,
      "v": 98
    },
    {
      "midi": 73,
      "hit": false,
      "t": 223875,
      "d": 368.75,
      "v": 81
    },
    {
      "midi": 74,
      "hit": false,
      "t": 224250,
      "d": 368.75,
      "v": 97
    },
    {
      "midi": 74,
      "hit": false,
      "t": 224250,
      "d": 368.75,
      "v": 94
    },
    {
      "midi": 76,
      "hit": false,
      "t": 224625,
      "d": 368.75,
      "v": 69
    },
    {
      "midi": 76,
      "hit": false,
      "t": 224625,
      "d": 368.75,
      "v": 79
    },
    {
      "midi": 78,
      "hit": false,
      "t": 225000,
      "d": 368.75,
      "v": 91
    },
    {
      "midi": 81,
      "hit": false,
      "t": 225000,
      "d": 368.75,
      "v": 32
    },
    {
      "midi": 62,
      "hit": false,
      "t": 225000,
      "d": 2243.75,
      "v": 56
    },
    {
      "midi": 74,
      "hit": false,
      "t": 225000,
      "d": 3743.75,
      "v": 54
    },
    {
      "midi": 74,
      "hit": false,
      "t": 225375,
      "d": 368.75,
      "v": 74
    },
    {
      "midi": 78,
      "hit": false,
      "t": 225750,
      "d": 743.75,
      "v": 60
    },
    {
      "midi": 81,
      "hit": false,
      "t": 226125,
      "d": 368.75,
      "v": 23
    },
    {
      "midi": 74,
      "hit": false,
      "t": 226500,
      "d": 368.75,
      "v": 34
    },
    {
      "midi": 78,
      "hit": false,
      "t": 226875,
      "d": 368.75,
      "v": 55
    },
    {
      "midi": 81,
      "hit": false,
      "t": 226875,
      "d": 368.75,
      "v": 73
    },
    {
      "midi": 74,
      "hit": false,
      "t": 227250,
      "d": 368.75,
      "v": 81
    },
    {
      "midi": 78,
      "hit": false,
      "t": 227250,
      "d": 743.75,
      "v": 65
    },
    {
      "midi": 81,
      "hit": false,
      "t": 227250,
      "d": 743.75,
      "v": 76
    },
    {
      "midi": 57,
      "hit": false,
      "t": 227250,
      "d": 2243.75,
      "v": 67
    },
    {
      "midi": 64,
      "hit": false,
      "t": 227625,
      "d": 368.75,
      "v": 63
    },
    {
      "midi": 71,
      "hit": false,
      "t": 228000,
      "d": 368.75,
      "v": 80
    },
    {
      "midi": 73,
      "hit": false,
      "t": 228375,
      "d": 368.75,
      "v": 98
    },
    {
      "midi": 73,
      "hit": false,
      "t": 228375,
      "d": 368.75,
      "v": 81
    },
    {
      "midi": 74,
      "hit": false,
      "t": 228750,
      "d": 368.75,
      "v": 97
    },
    {
      "midi": 74,
      "hit": false,
      "t": 228750,
      "d": 368.75,
      "v": 94
    },
    {
      "midi": 76,
      "hit": false,
      "t": 229125,
      "d": 368.75,
      "v": 69
    },
    {
      "midi": 76,
      "hit": false,
      "t": 229125,
      "d": 368.75,
      "v": 79
    },
    {
      "midi": 78,
      "hit": false,
      "t": 229500,
      "d": 368.75,
      "v": 91
    },
    {
      "midi": 81,
      "hit": false,
      "t": 229500,
      "d": 368.75,
      "v": 32
    },
    {
      "midi": 62,
      "hit": false,
      "t": 229500,
      "d": 2243.75,
      "v": 56
    },
    {
      "midi": 74,
      "hit": false,
      "t": 229500,
      "d": 3743.75,
      "v": 54
    },
    {
      "midi": 74,
      "hit": false,
      "t": 229875,
      "d": 368.75,
      "v": 74
    },
    {
      "midi": 78,
      "hit": false,
      "t": 230250,
      "d": 743.75,
      "v": 60
    },
    {
      "midi": 81,
      "hit": false,
      "t": 230625,
      "d": 368.75,
      "v": 23
    },
    {
      "midi": 74,
      "hit": false,
      "t": 231000,
      "d": 368.75,
      "v": 34
    },
    {
      "midi": 78,
      "hit": false,
      "t": 231375,
      "d": 368.75,
      "v": 55
    },
    {
      "midi": 81,
      "hit": false,
      "t": 231375,
      "d": 368.75,
      "v": 73
    },
    {
      "midi": 64,
      "hit": false,
      "t": 231750,
      "d": 368.75,
      "v": 70
    },
    {
      "midi": 67,
      "hit": false,
      "t": 231750,
      "d": 368.75,
      "v": 73
    },
    {
      "midi": 71,
      "hit": false,
      "t": 231750,
      "d": 368.75,
      "v": 70
    },
    {
      "midi": 74,
      "hit": false,
      "t": 231750,
      "d": 368.75,
      "v": 81
    },
    {
      "midi": 78,
      "hit": false,
      "t": 231750,
      "d": 743.75,
      "v": 65
    },
    {
      "midi": 81,
      "hit": false,
      "t": 231750,
      "d": 743.75,
      "v": 76
    },
    {
      "midi": 52,
      "hit": false,
      "t": 231750,
      "d": 2243.75,
      "v": 67
    },
    {
      "midi": 64,
      "hit": false,
      "t": 232125,
      "d": 368.75,
      "v": 63
    },
    {
      "midi": 71,
      "hit": false,
      "t": 232500,
      "d": 368.75,
      "v": 80
    },
    {
      "midi": 73,
      "hit": false,
      "t": 232875,
      "d": 368.75,
      "v": 98
    },
    {
      "midi": 74,
      "hit": false,
      "t": 233250,
      "d": 368.75,
      "v": 97
    },
    {
      "midi": 76,
      "hit": false,
      "t": 233625,
      "d": 368.75,
      "v": 69
    },
    {
      "midi": 78,
      "hit": false,
      "t": 234000,
      "d": 368.75,
      "v": 91
    },
    {
      "midi": 81,
      "hit": false,
      "t": 234000,
      "d": 368.75,
      "v": 32
    },
    {
      "midi": 62,
      "hit": false,
      "t": 234000,
      "d": 2243.75,
      "v": 56
    },
    {
      "midi": 74,
      "hit": false,
      "t": 234375,
      "d": 368.75,
      "v": 74
    },
    {
      "midi": 78,
      "hit": false,
      "t": 234750,
      "d": 743.75,
      "v": 60
    },
    {
      "midi": 81,
      "hit": false,
      "t": 235125,
      "d": 368.75,
      "v": 23
    },
    {
      "midi": 74,
      "hit": false,
      "t": 235500,
      "d": 368.75,
      "v": 34
    },
    {
      "midi": 78,
      "hit": false,
      "t": 235875,
      "d": 368.75,
      "v": 55
    },
    {
      "midi": 81,
      "hit": false,
      "t": 235875,
      "d": 368.75,
      "v": 73
    },
    {
      "midi": 74,
      "hit": false,
      "t": 236250,
      "d": 368.75,
      "v": 81
    },
    {
      "midi": 78,
      "hit": false,
      "t": 236250,
      "d": 743.75,
      "v": 65
    },
    {
      "midi": 81,
      "hit": false,
      "t": 236250,
      "d": 743.75,
      "v": 76
    }
  ]
}