{
  "jsonPath": "Pop/Singer-Songwriter/Jimmy Webb/pf-sloan-album-version.json",
  "path": "Pop\\Singer-Songwriter\\Jimmy Webb\\PF Sloan (Album Version).mid",
  "name": "PF Sloan (Album Version)",
  "difficulty": "Advanced",
  "bpm": 120,
  "notes": [
    {
      "midi": 70,
      "hit": false,
      "t": 5311.113766666667,
      "d": 150.00007500000083,
      "v": 86
    },
    {
      "midi": 71,
      "hit": false,
      "t": 5461.113841666668,
      "d": 394.44464166666694,
      "v": 93
    },
    {
      "midi": 79,
      "hit": false,
      "t": 5533.336100000001,
      "d": 277.7779166666669,
      "v": 91
    },
    {
      "midi": 55,
      "hit": false,
      "t": 5572.225008333335,
      "d": 466.66690000000017,
      "v": 50
    },
    {
      "midi": 43,
      "hit": false,
      "t": 5572.225008333335,
      "d": 2105.556608333336,
      "v": 73
    },
    {
      "midi": 79,
      "hit": false,
      "t": 5972.225208333335,
      "d": 294.4445916666664,
      "v": 91
    },
    {
      "midi": 71,
      "hit": false,
      "t": 5977.780766666669,
      "d": 316.66682499999933,
      "v": 75
    },
    {
      "midi": 55,
      "hit": false,
      "t": 6350.003175000002,
      "d": 1105.556108333335,
      "v": 46
    },
    {
      "midi": 71,
      "hit": false,
      "t": 6494.447691666668,
      "d": 94.44449166666709,
      "v": 73
    },
    {
      "midi": 79,
      "hit": false,
      "t": 6666.670000000002,
      "d": 94.44449166666709,
      "v": 103
    },
    {
      "midi": 71,
      "hit": false,
      "t": 6850.003425000003,
      "d": 88.88893333333363,
      "v": 105
    },
    {
      "midi": 79,
      "hit": false,
      "t": 7005.559058333336,
      "d": 133.33340000000044,
      "v": 89
    },
    {
      "midi": 71,
      "hit": false,
      "t": 7177.78136666667,
      "d": 111.11116666666658,
      "v": 85
    },
    {
      "midi": 78,
      "hit": false,
      "t": 7350.003675000003,
      "d": 55.55558333333374,
      "v": 109
    },
    {
      "midi": 69,
      "hit": false,
      "t": 7500.0037500000035,
      "d": 61.1111416666663,
      "v": 79
    },
    {
      "midi": 55,
      "hit": false,
      "t": 7655.559383333337,
      "d": 11.11111666666693,
      "v": 78
    },
    {
      "midi": 76,
      "hit": false,
      "t": 7688.892733333338,
      "d": 161.11119166666685,
      "v": 105
    },
    {
      "midi": 66,
      "hit": false,
      "t": 8022.226233333338,
      "d": 105.55560833333311,
      "v": 75
    },
    {
      "midi": 74,
      "hit": false,
      "t": 8022.226233333338,
      "d": 244.44456666666701,
      "v": 96
    },
    {
      "midi": 59,
      "hit": false,
      "t": 8022.226233333338,
      "d": 672.2225583333347,
      "v": 66
    },
    {
      "midi": 47,
      "hit": false,
      "t": 8044.448466666671,
      "d": 1994.445441666673,
      "v": 79
    },
    {
      "midi": 66,
      "hit": false,
      "t": 8344.448616666672,
      "d": 105.55560833333402,
      "v": 54
    },
    {
      "midi": 74,
      "hit": false,
      "t": 8711.115466666673,
      "d": 233.33345000000008,
      "v": 75
    },
    {
      "midi": 59,
      "hit": false,
      "t": 9044.448966666674,
      "d": 322.2223833333337,
      "v": 61
    },
    {
      "midi": 66,
      "hit": false,
      "t": 9383.338025000008,
      "d": 111.11116666666749,
      "v": 87
    },
    {
      "midi": 74,
      "hit": false,
      "t": 9388.893583333342,
      "d": 144.44451666666646,
      "v": 86
    },
    {
      "midi": 59,
      "hit": false,
      "t": 9705.560408333342,
      "d": 411.11131666666915,
      "v": 85
    },
    {
      "midi": 66,
      "hit": false,
      "t": 9866.671600000009,
      "d": 50.00002500000119,
      "v": 76
    },
    {
      "midi": 74,
      "hit": false,
      "t": 9888.893833333343,
      "d": 33.33335000000079,
      "v": 60
    },
    {
      "midi": 66,
      "hit": false,
      "t": 10027.782791666677,
      "d": 66.66669999999976,
      "v": 78
    },
    {
      "midi": 74,
      "hit": false,
      "t": 10033.33835000001,
      "d": 61.1111416666663,
      "v": 78
    },
    {
      "midi": 73,
      "hit": false,
      "t": 10205.560658333345,
      "d": 77.7778166666667,
      "v": 106
    },
    {
      "midi": 65,
      "hit": false,
      "t": 10222.227333333345,
      "d": 72.22225833333323,
      "v": 85
    },
    {
      "midi": 72,
      "hit": false,
      "t": 10666.672000000011,
      "d": 355.5557333333327,
      "v": 88
    },
    {
      "midi": 64,
      "hit": false,
      "t": 10666.672000000011,
      "d": 377.77796666666654,
      "v": 72
    },
    {
      "midi": 48,
      "hit": false,
      "t": 10666.672000000011,
      "d": 961.1115916666677,
      "v": 93
    },
    {
      "midi": 60,
      "hit": false,
      "t": 10972.227708333345,
      "d": 372.2224083333331,
      "v": 64
    },
    {
      "midi": 72,
      "hit": false,
      "t": 11366.672350000012,
      "d": 327.7779416666672,
      "v": 97
    },
    {
      "midi": 60,
      "hit": false,
      "t": 11705.561408333346,
      "d": 105.55560833333402,
      "v": 88
    },
    {
      "midi": 64,
      "hit": false,
      "t": 11861.11704166668,
      "d": 66.66669999999976,
      "v": 78
    },
    {
      "midi": 72,
      "hit": false,
      "t": 11877.78371666668,
      "d": 44.4444666666659,
      "v": 70
    },
    {
      "midi": 50,
      "hit": false,
      "t": 12000.006000000012,
      "d": 444.4446666666681,
      "v": 88
    },
    {
      "midi": 72,
      "hit": false,
      "t": 12033.339350000013,
      "d": 266.6668000000009,
      "v": 95
    },
    {
      "midi": 64,
      "hit": false,
      "t": 12044.45046666668,
      "d": 272.22235833333434,
      "v": 83
    },
    {
      "midi": 62,
      "hit": false,
      "t": 12355.561733333347,
      "d": 111.11116666666749,
      "v": 85
    },
    {
      "midi": 72,
      "hit": false,
      "t": 12483.339575000015,
      "d": 77.7778166666667,
      "v": 73
    },
    {
      "midi": 64,
      "hit": false,
      "t": 12494.450691666681,
      "d": 61.1111416666663,
      "v": 73
    },
    {
      "midi": 72,
      "hit": false,
      "t": 12672.228558333349,
      "d": 55.555583333332834,
      "v": 76
    },
    {
      "midi": 64,
      "hit": false,
      "t": 12672.228558333349,
      "d": 61.1111416666663,
      "v": 90
    },
    {
      "midi": 71,
      "hit": false,
      "t": 12838.895308333349,
      "d": 66.66669999999976,
      "v": 86
    },
    {
      "midi": 62,
      "hit": false,
      "t": 12850.006425000016,
      "d": 55.555583333332834,
      "v": 93
    },
    {
      "midi": 43,
      "hit": false,
      "t": 13322.22888333335,
      "d": 455.55578333333324,
      "v": 89
    },
    {
      "midi": 67,
      "hit": false,
      "t": 13333.340000000017,
      "d": 372.2224083333331,
      "v": 85
    },
    {
      "midi": 59,
      "hit": false,
      "t": 13338.89555833335,
      "d": 311.1112666666668,
      "v": 83
    },
    {
      "midi": 55,
      "hit": false,
      "t": 13694.451291666683,
      "d": 105.55560833333402,
      "v": 88
    },
    {
      "midi": 67,
      "hit": false,
      "t": 13855.56248333335,
      "d": 127.77784166666606,
      "v": 99
    },
    {
      "midi": 60,
      "hit": false,
      "t": 14205.562658333349,
      "d": 44.4444666666659,
      "v": 65
    },
    {
      "midi": 67,
      "hit": false,
      "t": 14372.229408333347,
      "d": 244.44456666666701,
      "v": 79
    },
    {
      "midi": 48,
      "hit": false,
      "t": 14372.229408333347,
      "d": 638.889208333334,
      "v": 69
    },
    {
      "midi": 36,
      "hit": false,
      "t": 14372.229408333347,
      "d": 1200.0006000000012,
      "v": 77
    },
    {
      "midi": 60,
      "hit": false,
      "t": 14377.78496666668,
      "d": 216.6667749999997,
      "v": 86
    },
    {
      "midi": 64,
      "hit": false,
      "t": 14377.78496666668,
      "d": 255.55568333333395,
      "v": 91
    },
    {
      "midi": 60,
      "hit": false,
      "t": 15044.451966666682,
      "d": 61.1111416666663,
      "v": 102
    },
    {
      "midi": 64,
      "hit": false,
      "t": 15044.451966666682,
      "d": 66.66669999999976,
      "v": 102
    },
    {
      "midi": 67,
      "hit": false,
      "t": 15044.451966666682,
      "d": 66.66669999999976,
      "v": 99
    },
    {
      "midi": 60,
      "hit": false,
      "t": 15372.22990833335,
      "d": 66.66669999999976,
      "v": 109
    },
    {
      "midi": 64,
      "hit": false,
      "t": 15372.22990833335,
      "d": 66.66669999999976,
      "v": 100
    },
    {
      "midi": 67,
      "hit": false,
      "t": 15372.22990833335,
      "d": 66.66669999999976,
      "v": 100
    },
    {
      "midi": 48,
      "hit": false,
      "t": 15533.341100000016,
      "d": 88.8889333333318,
      "v": 100
    },
    {
      "midi": 55,
      "hit": false,
      "t": 15850.007925000014,
      "d": 44.4444666666659,
      "v": 59
    },
    {
      "midi": 55,
      "hit": false,
      "t": 16000.008000000014,
      "d": 222.22233333333315,
      "v": 113
    },
    {
      "midi": 59,
      "hit": false,
      "t": 16000.008000000014,
      "d": 227.77789166666662,
      "v": 115
    },
    {
      "midi": 43,
      "hit": false,
      "t": 16000.008000000014,
      "d": 255.55568333333395,
      "v": 93
    },
    {
      "midi": 43,
      "hit": false,
      "t": 17000.008500000014,
      "d": 155.5556333333334,
      "v": 92
    },
    {
      "midi": 55,
      "hit": false,
      "t": 17333.342000000015,
      "d": 33.33335000000079,
      "v": 83
    },
    {
      "midi": 43,
      "hit": false,
      "t": 17666.675500000016,
      "d": 127.77784166666606,
      "v": 67
    },
    {
      "midi": 59,
      "hit": false,
      "t": 18000.009000000016,
      "d": 44.44446666666772,
      "v": 69
    },
    {
      "midi": 47,
      "hit": false,
      "t": 18666.676000000018,
      "d": 744.4448166666662,
      "v": 97
    },
    {
      "midi": 62,
      "hit": false,
      "t": 19333.34300000002,
      "d": 855.5559833333318,
      "v": 91
    },
    {
      "midi": 47,
      "hit": false,
      "t": 19666.676500000016,
      "d": 133.33339999999953,
      "v": 93
    },
    {
      "midi": 47,
      "hit": false,
      "t": 20000.010000000017,
      "d": 772.2226083333335,
      "v": 100
    },
    {
      "midi": 54,
      "hit": false,
      "t": 20333.343500000017,
      "d": 250.00012499999866,
      "v": 69
    },
    {
      "midi": 57,
      "hit": false,
      "t": 20500.010250000018,
      "d": 111.11116666666567,
      "v": 55
    },
    {
      "midi": 62,
      "hit": false,
      "t": 20666.677000000018,
      "d": 166.66675000000032,
      "v": 97
    },
    {
      "midi": 54,
      "hit": false,
      "t": 20833.34375000002,
      "d": 83.33337499999834,
      "v": 80
    },
    {
      "midi": 55,
      "hit": false,
      "t": 21000.010500000015,
      "d": 100.00004999999874,
      "v": 41
    },
    {
      "midi": 55,
      "hit": false,
      "t": 21333.344000000012,
      "d": 194.44454166666765,
      "v": 70
    },
    {
      "midi": 60,
      "hit": false,
      "t": 21333.344000000012,
      "d": 294.4445916666664,
      "v": 74
    },
    {
      "midi": 64,
      "hit": false,
      "t": 21333.344000000012,
      "d": 300.00014999999985,
      "v": 85
    },
    {
      "midi": 48,
      "hit": false,
      "t": 21333.344000000012,
      "d": 855.5559833333318,
      "v": 80
    },
    {
      "midi": 55,
      "hit": false,
      "t": 22000.011000000013,
      "d": 88.8889333333318,
      "v": 97
    },
    {
      "midi": 60,
      "hit": false,
      "t": 22166.67775000001,
      "d": 111.11116666666567,
      "v": 122
    },
    {
      "midi": 55,
      "hit": false,
      "t": 22500.01125000001,
      "d": 105.5556083333322,
      "v": 83
    },
    {
      "midi": 55,
      "hit": false,
      "t": 22666.67800000001,
      "d": 144.44451666666646,
      "v": 78
    },
    {
      "midi": 60,
      "hit": false,
      "t": 22666.67800000001,
      "d": 161.11119166666685,
      "v": 80
    },
    {
      "midi": 64,
      "hit": false,
      "t": 22666.67800000001,
      "d": 161.11119166666685,
      "v": 85
    },
    {
      "midi": 50,
      "hit": false,
      "t": 22666.67800000001,
      "d": 1033.333849999999,
      "v": 85
    },
    {
      "midi": 55,
      "hit": false,
      "t": 23333.345000000012,
      "d": 61.11114166666812,
      "v": 88
    },
    {
      "midi": 64,
      "hit": false,
      "t": 23500.011750000012,
      "d": 83.33337499999834,
      "v": 86
    },
    {
      "midi": 55,
      "hit": false,
      "t": 23833.34525000001,
      "d": 72.22225833333505,
      "v": 69
    },
    {
      "midi": 59,
      "hit": false,
      "t": 24000.01200000001,
      "d": 177.77786666666725,
      "v": 88
    },
    {
      "midi": 62,
      "hit": false,
      "t": 24000.01200000001,
      "d": 177.77786666666725,
      "v": 90
    },
    {
      "midi": 55,
      "hit": false,
      "t": 24000.01200000001,
      "d": 183.33342500000072,
      "v": 80
    },
    {
      "midi": 43,
      "hit": false,
      "t": 24000.01200000001,
      "d": 866.6670999999988,
      "v": 71
    },
    {
      "midi": 55,
      "hit": false,
      "t": 24333.34550000001,
      "d": 83.33337499999834,
      "v": 64
    },
    {
      "midi": 55,
      "hit": false,
      "t": 25000.012500000008,
      "d": 433.3335499999994,
      "v": 93
    },
    {
      "midi": 60,
      "hit": false,
      "t": 25000.012500000008,
      "d": 477.7780166666671,
      "v": 96
    },
    {
      "midi": 64,
      "hit": false,
      "t": 25000.012500000008,
      "d": 488.88913333333403,
      "v": 89
    },
    {
      "midi": 48,
      "hit": false,
      "t": 25000.012500000008,
      "d": 744.4448166666698,
      "v": 85
    },
    {
      "midi": 55,
      "hit": false,
      "t": 25666.67950000001,
      "d": 61.11114166666812,
      "v": 100
    },
    {
      "midi": 60,
      "hit": false,
      "t": 25666.67950000001,
      "d": 61.11114166666812,
      "v": 97
    },
    {
      "midi": 64,
      "hit": false,
      "t": 25666.67950000001,
      "d": 77.77781666666851,
      "v": 92
    },
    {
      "midi": 48,
      "hit": false,
      "t": 26000.01300000001,
      "d": 188.88898333333418,
      "v": 78
    },
    {
      "midi": 64,
      "hit": false,
      "t": 26166.67975000001,
      "d": 61.11114166666812,
      "v": 83
    },
    {
      "midi": 60,
      "hit": false,
      "t": 26166.67975000001,
      "d": 66.66670000000158,
      "v": 92
    },
    {
      "midi": 55,
      "hit": false,
      "t": 26666.68000000001,
      "d": 116.66672499999913,
      "v": 83
    },
    {
      "midi": 62,
      "hit": false,
      "t": 26666.68000000001,
      "d": 327.7779416666672,
      "v": 90
    },
    {
      "midi": 59,
      "hit": false,
      "t": 26666.68000000001,
      "d": 388.8890833333353,
      "v": 91
    },
    {
      "midi": 43,
      "hit": false,
      "t": 26666.68000000001,
      "d": 644.4447666666674,
      "v": 78
    },
    {
      "midi": 55,
      "hit": false,
      "t": 27333.347000000012,
      "d": 800.0004000000008,
      "v": 83
    },
    {
      "midi": 59,
      "hit": false,
      "t": 27333.347000000012,
      "d": 877.7782166666657,
      "v": 91
    },
    {
      "midi": 62,
      "hit": false,
      "t": 27333.347000000012,
      "d": 888.8893333333326,
      "v": 89
    },
    {
      "midi": 43,
      "hit": false,
      "t": 27666.680500000013,
      "d": 166.66675000000032,
      "v": 107
    },
    {
      "midi": 43,
      "hit": false,
      "t": 28000.014000000014,
      "d": 1055.556083333333,
      "v": 105
    },
    {
      "midi": 59,
      "hit": false,
      "t": 28666.68100000001,
      "d": 88.8889333333318,
      "v": 102
    },
    {
      "midi": 62,
      "hit": false,
      "t": 28666.68100000001,
      "d": 144.44451666666646,
      "v": 102
    },
    {
      "midi": 59,
      "hit": false,
      "t": 28833.34775000001,
      "d": 50.00002500000119,
      "v": 47
    },
    {
      "midi": 62,
      "hit": false,
      "t": 28833.34775000001,
      "d": 55.55558333333465,
      "v": 56
    },
    {
      "midi": 55,
      "hit": false,
      "t": 28833.34775000001,
      "d": 105.55560833333584,
      "v": 97
    },
    {
      "midi": 54,
      "hit": false,
      "t": 29333.348000000013,
      "d": 161.11119166666685,
      "v": 73
    },
    {
      "midi": 62,
      "hit": false,
      "t": 29333.348000000013,
      "d": 305.5557083333333,
      "v": 86
    },
    {
      "midi": 57,
      "hit": false,
      "t": 29333.348000000013,
      "d": 333.33350000000064,
      "v": 91
    },
    {
      "midi": 47,
      "hit": false,
      "t": 29333.348000000013,
      "d": 711.111466666669,
      "v": 84
    },
    {
      "midi": 54,
      "hit": false,
      "t": 30000.015000000014,
      "d": 783.3337250000004,
      "v": 72
    },
    {
      "midi": 62,
      "hit": false,
      "t": 30000.015000000014,
      "d": 927.7782416666669,
      "v": 86
    },
    {
      "midi": 57,
      "hit": false,
      "t": 30000.015000000014,
      "d": 1038.8894083333325,
      "v": 86
    },
    {
      "midi": 47,
      "hit": false,
      "t": 30333.348500000015,
      "d": 166.66675000000032,
      "v": 99
    },
    {
      "midi": 47,
      "hit": false,
      "t": 30666.682000000015,
      "d": 700.0003499999984,
      "v": 89
    },
    {
      "midi": 62,
      "hit": false,
      "t": 31333.349000000013,
      "d": 305.55570833333695,
      "v": 90
    },
    {
      "midi": 54,
      "hit": false,
      "t": 31500.015750000013,
      "d": 72.22225833333505,
      "v": 90
    },
    {
      "midi": 55,
      "hit": false,
      "t": 32000.016000000014,
      "d": 161.11119166666685,
      "v": 75
    },
    {
      "midi": 60,
      "hit": false,
      "t": 32000.016000000014,
      "d": 216.6667750000015,
      "v": 85
    },
    {
      "midi": 64,
      "hit": false,
      "t": 32000.016000000014,
      "d": 250.0001250000023,
      "v": 88
    },
    {
      "midi": 48,
      "hit": false,
      "t": 32000.016000000014,
      "d": 944.4449166666709,
      "v": 85
    },
    {
      "midi": 55,
      "hit": false,
      "t": 32333.349500000015,
      "d": 72.22225833333505,
      "v": 64
    },
    {
      "midi": 55,
      "hit": false,
      "t": 32666.683000000015,
      "d": 66.66670000000158,
      "v": 82
    },
    {
      "midi": 60,
      "hit": false,
      "t": 32833.349750000016,
      "d": 61.11114166666812,
      "v": 91
    },
    {
      "midi": 64,
      "hit": false,
      "t": 32833.349750000016,
      "d": 294.4445916666664,
      "v": 102
    },
    {
      "midi": 55,
      "hit": false,
      "t": 33166.68325000002,
      "d": 111.1111666666693,
      "v": 80
    },
    {
      "midi": 55,
      "hit": false,
      "t": 33333.35000000002,
      "d": 44.44446666666772,
      "v": 46
    },
    {
      "midi": 60,
      "hit": false,
      "t": 33333.35000000002,
      "d": 127.7778416666697,
      "v": 78
    },
    {
      "midi": 64,
      "hit": false,
      "t": 33333.35000000002,
      "d": 138.88895833333663,
      "v": 90
    },
    {
      "midi": 50,
      "hit": false,
      "t": 33333.35000000002,
      "d": 1166.6672500000059,
      "v": 83
    },
    {
      "midi": 55,
      "hit": false,
      "t": 33833.350250000025,
      "d": 38.88890833333426,
      "v": 78
    },
    {
      "midi": 64,
      "hit": false,
      "t": 34166.683750000026,
      "d": 66.66670000000158,
      "v": 92
    },
    {
      "midi": 60,
      "hit": false,
      "t": 34166.683750000026,
      "d": 72.22225833333505,
      "v": 97
    },
    {
      "midi": 55,
      "hit": false,
      "t": 34500.017250000026,
      "d": 105.55560833333584,
      "v": 41
    },
    {
      "midi": 55,
      "hit": false,
      "t": 34666.68400000003,
      "d": 150.00007500000356,
      "v": 78
    },
    {
      "midi": 62,
      "hit": false,
      "t": 34666.68400000003,
      "d": 194.44454166667128,
      "v": 92
    },
    {
      "midi": 59,
      "hit": false,
      "t": 34666.68400000003,
      "d": 200.00010000000475,
      "v": 88
    },
    {
      "midi": 43,
      "hit": false,
      "t": 34666.68400000003,
      "d": 727.778141666684,
      "v": 71
    },
    {
      "midi": 59,
      "hit": false,
      "t": 35000.01750000004,
      "d": 33.33335000000079,
      "v": 48
    },
    {
      "midi": 55,
      "hit": false,
      "t": 35000.01750000004,
      "d": 88.88893333333544,
      "v": 96
    },
    {
      "midi": 57,
      "hit": false,
      "t": 35166.68425000004,
      "d": 105.55560833333584,
      "v": 97
    },
    {
      "midi": 55,
      "hit": false,
      "t": 35333.351000000046,
      "d": 77.77781666666851,
      "v": 85
    },
    {
      "midi": 55,
      "hit": false,
      "t": 35500.01775000005,
      "d": 50.00002500000119,
      "v": 50
    },
    {
      "midi": 60,
      "hit": false,
      "t": 35500.01775000005,
      "d": 83.33337500000198,
      "v": 38
    },
    {
      "midi": 55,
      "hit": false,
      "t": 35666.684500000054,
      "d": 127.7778416666697,
      "v": 83
    },
    {
      "midi": 60,
      "hit": false,
      "t": 35666.684500000054,
      "d": 172.22230833333742,
      "v": 97
    },
    {
      "midi": 64,
      "hit": false,
      "t": 35666.684500000054,
      "d": 194.44454166667128,
      "v": 89
    },
    {
      "midi": 48,
      "hit": false,
      "t": 35666.684500000054,
      "d": 1183.3339250000063,
      "v": 85
    },
    {
      "midi": 55,
      "hit": false,
      "t": 36333.351500000055,
      "d": 94.44449166666891,
      "v": 103
    },
    {
      "midi": 60,
      "hit": false,
      "t": 36333.351500000055,
      "d": 105.55560833333584,
      "v": 95
    },
    {
      "midi": 64,
      "hit": false,
      "t": 36333.351500000055,
      "d": 105.55560833333584,
      "v": 102
    },
    {
      "midi": 60,
      "hit": false,
      "t": 36666.685000000056,
      "d": 61.11114166666812,
      "v": 75
    },
    {
      "midi": 55,
      "hit": false,
      "t": 36666.685000000056,
      "d": 66.66670000000158,
      "v": 75
    },
    {
      "midi": 64,
      "hit": false,
      "t": 36666.685000000056,
      "d": 77.77781666666851,
      "v": 73
    },
    {
      "midi": 62,
      "hit": false,
      "t": 36833.35175000006,
      "d": 38.88890833333426,
      "v": 85
    },
    {
      "midi": 59,
      "hit": false,
      "t": 36833.35175000006,
      "d": 88.88893333333544,
      "v": 102
    },
    {
      "midi": 55,
      "hit": false,
      "t": 37166.68525000006,
      "d": 66.66670000000158,
      "v": 80
    },
    {
      "midi": 55,
      "hit": false,
      "t": 37333.352000000064,
      "d": 477.77801666667074,
      "v": 89
    },
    {
      "midi": 62,
      "hit": false,
      "t": 37333.352000000064,
      "d": 477.77801666667074,
      "v": 97
    },
    {
      "midi": 59,
      "hit": false,
      "t": 37333.352000000064,
      "d": 566.6669500000062,
      "v": 100
    },
    {
      "midi": 43,
      "hit": false,
      "t": 37333.352000000064,
      "d": 788.8892833333448,
      "v": 77
    },
    {
      "midi": 62,
      "hit": false,
      "t": 38000.01900000007,
      "d": 1033.3338500000027,
      "v": 90
    },
    {
      "midi": 55,
      "hit": false,
      "t": 38000.01900000007,
      "d": 1066.6672000000035,
      "v": 91
    },
    {
      "midi": 59,
      "hit": false,
      "t": 38000.01900000007,
      "d": 1066.6672000000035,
      "v": 93
    },
    {
      "midi": 43,
      "hit": false,
      "t": 38333.35250000007,
      "d": 188.88898333333054,
      "v": 85
    },
    {
      "midi": 43,
      "hit": false,
      "t": 38666.686000000074,
      "d": 633.3336500000005,
      "v": 96
    },
    {
      "midi": 59,
      "hit": false,
      "t": 39333.353000000076,
      "d": 83.33337500000198,
      "v": 83
    },
    {
      "midi": 62,
      "hit": false,
      "t": 39333.353000000076,
      "d": 150.00007500000356,
      "v": 105
    },
    {
      "midi": 62,
      "hit": false,
      "t": 39500.01975000008,
      "d": 50.00002500000119,
      "v": 49
    },
    {
      "midi": 59,
      "hit": false,
      "t": 39500.01975000008,
      "d": 61.11114166666812,
      "v": 51
    },
    {
      "midi": 55,
      "hit": false,
      "t": 39500.01975000008,
      "d": 116.66672500000277,
      "v": 99
    },
    {
      "midi": 57,
      "hit": false,
      "t": 39666.68650000008,
      "d": 66.66670000000158,
      "v": 69
    },
    {
      "midi": 54,
      "hit": false,
      "t": 39833.35325000009,
      "d": 33.33335000000079,
      "v": 59
    },
    {
      "midi": 54,
      "hit": false,
      "t": 40000.02000000009,
      "d": 550.0002749999985,
      "v": 73
    },
    {
      "midi": 62,
      "hit": false,
      "t": 40000.02000000009,
      "d": 572.2225083333324,
      "v": 102
    },
    {
      "midi": 57,
      "hit": false,
      "t": 40000.02000000009,
      "d": 633.3336500000005,
      "v": 93
    },
    {
      "midi": 47,
      "hit": false,
      "t": 40000.02000000009,
      "d": 788.8892833333375,
      "v": 93
    },
    {
      "midi": 54,
      "hit": false,
      "t": 40666.68700000009,
      "d": 883.3337749999992,
      "v": 80
    },
    {
      "midi": 62,
      "hit": false,
      "t": 40666.68700000009,
      "d": 1188.8894833333397,
      "v": 96
    },
    {
      "midi": 57,
      "hit": false,
      "t": 40666.68700000009,
      "d": 1238.889508333341,
      "v": 78
    },
    {
      "midi": 47,
      "hit": false,
      "t": 41000.02050000009,
      "d": 233.33344999999827,
      "v": 96
    },
    {
      "midi": 47,
      "hit": false,
      "t": 41333.354000000094,
      "d": 1288.8895333333494,
      "v": 102
    },
    {
      "midi": 54,
      "hit": false,
      "t": 41666.687500000095,
      "d": 150.00007500000356,
      "v": 51
    },
    {
      "midi": 57,
      "hit": false,
      "t": 42000.0210000001,
      "d": 44.44446666666772,
      "v": 66
    },
    {
      "midi": 62,
      "hit": false,
      "t": 42000.0210000001,
      "d": 55.55558333333465,
      "v": 84
    },
    {
      "midi": 54,
      "hit": false,
      "t": 42000.0210000001,
      "d": 77.77781666666851,
      "v": 82
    },
    {
      "midi": 54,
      "hit": false,
      "t": 42166.68775000011,
      "d": 77.77781666666851,
      "v": 102
    },
    {
      "midi": 57,
      "hit": false,
      "t": 42166.68775000011,
      "d": 272.2223583333325,
      "v": 97
    },
    {
      "midi": 62,
      "hit": false,
      "t": 42166.68775000011,
      "d": 288.8890333333329,
      "v": 95
    },
    {
      "midi": 55,
      "hit": false,
      "t": 42500.02125000011,
      "d": 50.00002500000119,
      "v": 50
    },
    {
      "midi": 55,
      "hit": false,
      "t": 42666.68800000011,
      "d": 283.33347499999945,
      "v": 81
    },
    {
      "midi": 60,
      "hit": false,
      "t": 42666.68800000011,
      "d": 627.7780916666743,
      "v": 78
    },
    {
      "midi": 64,
      "hit": false,
      "t": 42666.68800000011,
      "d": 722.2225833333432,
      "v": 83
    },
    {
      "midi": 48,
      "hit": false,
      "t": 42666.68800000011,
      "d": 1288.8895333333494,
      "v": 78
    },
    {
      "midi": 55,
      "hit": false,
      "t": 43000.02150000011,
      "d": 150.00007500000356,
      "v": 36
    },
    {
      "midi": 55,
      "hit": false,
      "t": 43333.35500000012,
      "d": 83.33337500000198,
      "v": 75
    },
    {
      "midi": 60,
      "hit": false,
      "t": 43500.02175000012,
      "d": 444.44466666666995,
      "v": 105
    },
    {
      "midi": 55,
      "hit": false,
      "t": 43500.02175000012,
      "d": 455.5557833333369,
      "v": 97
    },
    {
      "midi": 64,
      "hit": false,
      "t": 43500.02175000012,
      "d": 472.2224583333373,
      "v": 96
    },
    {
      "midi": 55,
      "hit": false,
      "t": 44000.02200000013,
      "d": 277.777916666666,
      "v": 77
    },
    {
      "midi": 60,
      "hit": false,
      "t": 44000.02200000013,
      "d": 422.2224333333361,
      "v": 84
    },
    {
      "midi": 64,
      "hit": false,
      "t": 44000.02200000013,
      "d": 422.2224333333361,
      "v": 62
    },
    {
      "midi": 50,
      "hit": false,
      "t": 44000.02200000013,
      "d": 1222.2228333333405,
      "v": 78
    },
    {
      "midi": 55,
      "hit": false,
      "t": 44333.35550000013,
      "d": 116.66672500000277,
      "v": 44
    },
    {
      "midi": 55,
      "hit": false,
      "t": 44666.68900000013,
      "d": 66.66670000000158,
      "v": 93
    },
    {
      "midi": 64,
      "hit": false,
      "t": 44833.35575000013,
      "d": 50.00002500000119,
      "v": 79
    },
    {
      "midi": 60,
      "hit": false,
      "t": 44833.35575000013,
      "d": 55.55558333333465,
      "v": 78
    },
    {
      "midi": 55,
      "hit": false,
      "t": 45333.35600000014,
      "d": 550.0002749999985,
      "v": 83
    },
    {
      "midi": 62,
      "hit": false,
      "t": 45333.35600000014,
      "d": 550.0002749999985,
      "v": 99
    },
    {
      "midi": 59,
      "hit": false,
      "t": 45333.35600000014,
      "d": 555.555833333332,
      "v": 96
    },
    {
      "midi": 43,
      "hit": false,
      "t": 45333.35600000014,
      "d": 861.1115416666653,
      "v": 71
    },
    {
      "midi": 55,
      "hit": false,
      "t": 46000.02300000014,
      "d": 400.0002000000022,
      "v": 78
    },
    {
      "midi": 59,
      "hit": false,
      "t": 46000.02300000014,
      "d": 605.5558583333404,
      "v": 83
    },
    {
      "midi": 62,
      "hit": false,
      "t": 46000.02300000014,
      "d": 611.1114166666739,
      "v": 88
    },
    {
      "midi": 43,
      "hit": false,
      "t": 46333.35650000014,
      "d": 794.4448416666855,
      "v": 82
    },
    {
      "midi": 55,
      "hit": false,
      "t": 46500.023250000144,
      "d": 122.22228333333624,
      "v": 92
    },
    {
      "midi": 57,
      "hit": false,
      "t": 46666.69000000015,
      "d": 100.00005000000237,
      "v": 102
    },
    {
      "midi": 57,
      "hit": false,
      "t": 46833.35675000015,
      "d": 55.55558333333465,
      "v": 58
    },
    {
      "midi": 55,
      "hit": false,
      "t": 46833.35675000015,
      "d": 111.1111666666693,
      "v": 103
    },
    {
      "midi": 62,
      "hit": false,
      "t": 47000.023500000156,
      "d": 38.88890833333426,
      "v": 66
    },
    {
      "midi": 62,
      "hit": false,
      "t": 47333.35700000016,
      "d": 111.1111666666693,
      "v": 103
    },
    {
      "midi": 55,
      "hit": false,
      "t": 47500.02375000016,
      "d": 72.22225833333505,
      "v": 102
    },
    {
      "midi": 57,
      "hit": false,
      "t": 47833.35725000016,
      "d": 83.33337500000198,
      "v": 30
    },
    {
      "midi": 57,
      "hit": false,
      "t": 48000.024000000165,
      "d": 572.2225083333324,
      "v": 81
    },
    {
      "midi": 62,
      "hit": false,
      "t": 48000.024000000165,
      "d": 577.7780666666658,
      "v": 97
    },
    {
      "midi": 66,
      "hit": false,
      "t": 48000.024000000165,
      "d": 583.3336249999993,
      "v": 102
    },
    {
      "midi": 50,
      "hit": false,
      "t": 48000.024000000165,
      "d": 783.333725000004,
      "v": 91
    },
    {
      "midi": 66,
      "hit": false,
      "t": 48666.691000000166,
      "d": 950.0004750000007,
      "v": 86
    },
    {
      "midi": 62,
      "hit": false,
      "t": 48666.691000000166,
      "d": 961.1115916666677,
      "v": 91
    },
    {
      "midi": 57,
      "hit": false,
      "t": 48666.691000000166,
      "d": 1094.4449916666708,
      "v": 78
    },
    {
      "midi": 69,
      "hit": false,
      "t": 48666.691000000166,
      "d": 1122.2227833333382,
      "v": 85
    },
    {
      "midi": 50,
      "hit": false,
      "t": 49000.02450000017,
      "d": 194.444541666664,
      "v": 86
    },
    {
      "midi": 50,
      "hit": false,
      "t": 49333.35800000017,
      "d": 594.4447416666735,
      "v": 91
    },
    {
      "midi": 62,
      "hit": false,
      "t": 49666.69150000017,
      "d": 66.66670000000158,
      "v": 57
    },
    {
      "midi": 57,
      "hit": false,
      "t": 50000.025000000176,
      "d": 66.66670000000158,
      "v": 79
    },
    {
      "midi": 57,
      "hit": false,
      "t": 50166.69175000018,
      "d": 50.00002500000119,
      "v": 65
    },
    {
      "midi": 62,
      "hit": false,
      "t": 50166.69175000018,
      "d": 55.55558333333465,
      "v": 96
    },
    {
      "midi": 66,
      "hit": false,
      "t": 50166.69175000018,
      "d": 55.55558333333465,
      "v": 100
    },
    {
      "midi": 54,
      "hit": false,
      "t": 50666.692000000185,
      "d": 761.1114916666702,
      "v": 80
    },
    {
      "midi": 61,
      "hit": false,
      "t": 50666.692000000185,
      "d": 855.5559833333391,
      "v": 87
    },
    {
      "midi": 57,
      "hit": false,
      "t": 50666.692000000185,
      "d": 905.5560083333403,
      "v": 95
    },
    {
      "midi": 42,
      "hit": false,
      "t": 50666.692000000185,
      "d": 922.2226833333407,
      "v": 71
    },
    {
      "midi": 42,
      "hit": false,
      "t": 51666.692500000194,
      "d": 227.7778916666648,
      "v": 52
    },
    {
      "midi": 54,
      "hit": false,
      "t": 51666.692500000194,
      "d": 238.88900833333173,
      "v": 92
    },
    {
      "midi": 61,
      "hit": false,
      "t": 51666.692500000194,
      "d": 244.4445666666652,
      "v": 90
    },
    {
      "midi": 57,
      "hit": false,
      "t": 51666.692500000194,
      "d": 283.33347499999945,
      "v": 86
    },
    {
      "midi": 54,
      "hit": false,
      "t": 52000.026000000194,
      "d": 455.5557833333369,
      "v": 84
    },
    {
      "midi": 61,
      "hit": false,
      "t": 52000.026000000194,
      "d": 516.666925000005,
      "v": 89
    },
    {
      "midi": 57,
      "hit": false,
      "t": 52000.026000000194,
      "d": 605.5558583333404,
      "v": 75
    },
    {
      "midi": 42,
      "hit": false,
      "t": 52000.026000000194,
      "d": 738.8892583333436,
      "v": 77
    },
    {
      "midi": 54,
      "hit": false,
      "t": 52666.6930000002,
      "d": 116.66672500000277,
      "v": 72
    },
    {
      "midi": 61,
      "hit": false,
      "t": 52833.35975000021,
      "d": 100.00005000000237,
      "v": 92
    },
    {
      "midi": 62,
      "hit": false,
      "t": 53333.36000000021,
      "d": 394.44464166666876,
      "v": 92
    },
    {
      "midi": 59,
      "hit": false,
      "t": 53333.36000000021,
      "d": 405.5557583333357,
      "v": 88
    },
    {
      "midi": 55,
      "hit": false,
      "t": 53333.36000000021,
      "d": 522.2224833333385,
      "v": 78
    },
    {
      "midi": 43,
      "hit": false,
      "t": 53333.36000000021,
      "d": 777.7781666666779,
      "v": 80
    },
    {
      "midi": 59,
      "hit": false,
      "t": 54000.02700000022,
      "d": 122.22228333333624,
      "v": 80
    },
    {
      "midi": 62,
      "hit": false,
      "t": 54000.02700000022,
      "d": 277.77791666667326,
      "v": 89
    },
    {
      "midi": 55,
      "hit": false,
      "t": 54166.693750000224,
      "d": 127.7778416666697,
      "v": 84
    },
    {
      "midi": 59,
      "hit": false,
      "t": 54333.36050000023,
      "d": 72.22225833333505,
      "v": 74
    },
    {
      "midi": 55,
      "hit": false,
      "t": 54500.02725000023,
      "d": 122.22228333333624,
      "v": 78
    },
    {
      "midi": 55,
      "hit": false,
      "t": 54666.694000000236,
      "d": 211.1112166666644,
      "v": 77
    },
    {
      "midi": 60,
      "hit": false,
      "t": 54666.694000000236,
      "d": 277.777916666666,
      "v": 99
    },
    {
      "midi": 64,
      "hit": false,
      "t": 54666.694000000236,
      "d": 300.00014999999985,
      "v": 89
    },
    {
      "midi": 48,
      "hit": false,
      "t": 54666.694000000236,
      "d": 1061.1116416666773,
      "v": 85
    },
    {
      "midi": 55,
      "hit": false,
      "t": 55000.02750000024,
      "d": 138.88895833333663,
      "v": 64
    },
    {
      "midi": 55,
      "hit": false,
      "t": 55333.36100000024,
      "d": 116.66672500000277,
      "v": 99
    },
    {
      "midi": 60,
      "hit": false,
      "t": 55500.02775000024,
      "d": 77.77781666666851,
      "v": 84
    },
    {
      "midi": 62,
      "hit": false,
      "t": 56000.028000000246,
      "d": 144.4445166666701,
      "v": 83
    },
    {
      "midi": 66,
      "hit": false,
      "t": 56000.028000000246,
      "d": 155.55563333333703,
      "v": 87
    },
    {
      "midi": 57,
      "hit": false,
      "t": 56000.028000000246,
      "d": 172.22230833333742,
      "v": 73
    },
    {
      "midi": 50,
      "hit": false,
      "t": 56000.028000000246,
      "d": 744.4448166666698,
      "v": 83
    },
    {
      "midi": 69,
      "hit": false,
      "t": 56666.69500000025,
      "d": 77.77781666666851,
      "v": 73
    },
    {
      "midi": 62,
      "hit": false,
      "t": 56666.69500000025,
      "d": 122.22228333333624,
      "v": 83
    },
    {
      "midi": 66,
      "hit": false,
      "t": 56666.69500000025,
      "d": 177.7778666666709,
      "v": 83
    },
    {
      "midi": 57,
      "hit": false,
      "t": 56666.69500000025,
      "d": 188.88898333333782,
      "v": 74
    },
    {
      "midi": 50,
      "hit": false,
      "t": 57000.028500000255,
      "d": 861.1115416666653,
      "v": 74
    },
    {
      "midi": 57,
      "hit": false,
      "t": 57166.69525000025,
      "d": 355.5557333333272,
      "v": 85
    },
    {
      "midi": 66,
      "hit": false,
      "t": 57333.36200000025,
      "d": 194.444541666664,
      "v": 124
    },
    {
      "midi": 64,
      "hit": false,
      "t": 57500.028750000245,
      "d": 250.00012500000594,
      "v": 99
    },
    {
      "midi": 62,
      "hit": false,
      "t": 57666.69550000025,
      "d": 111.1111666666693,
      "v": 84
    },
    {
      "midi": 57,
      "hit": false,
      "t": 57833.36225000025,
      "d": 200.00010000000475,
      "v": 93
    },
    {
      "midi": 50,
      "hit": false,
      "t": 58000.02900000026,
      "d": 216.66677500000515,
      "v": 85
    },
    {
      "midi": 57,
      "hit": false,
      "t": 58166.69575000026,
      "d": 144.4445166666701,
      "v": 80
    },
    {
      "midi": 62,
      "hit": false,
      "t": 58333.362500000265,
      "d": 94.44449166666891,
      "v": 70
    },
    {
      "midi": 57,
      "hit": false,
      "t": 58500.02925000027,
      "d": 122.22228333333624,
      "v": 84
    },
    {
      "midi": 66,
      "hit": false,
      "t": 58666.69600000027,
      "d": 383.33352499999455,
      "v": 112
    },
    {
      "midi": 62,
      "hit": false,
      "t": 58666.69600000027,
      "d": 405.5557583333284,
      "v": 90
    },
    {
      "midi": 57,
      "hit": false,
      "t": 58666.69600000027,
      "d": 477.77801666666346,
      "v": 69
    },
    {
      "midi": 50,
      "hit": false,
      "t": 58666.69600000027,
      "d": 700.0003499999948,
      "v": 91
    },
    {
      "midi": 57,
      "hit": false,
      "t": 59333.36300000027,
      "d": 866.667100000006,
      "v": 78
    },
    {
      "midi": 66,
      "hit": false,
      "t": 59333.36300000027,
      "d": 866.667100000006,
      "v": 83
    },
    {
      "midi": 62,
      "hit": false,
      "t": 59333.36300000027,
      "d": 877.778216666673,
      "v": 89
    },
    {
      "midi": 69,
      "hit": false,
      "t": 59333.36300000027,
      "d": 927.7782416666741,
      "v": 78
    },
    {
      "midi": 50,
      "hit": false,
      "t": 59666.69650000027,
      "d": 238.88900833333173,
      "v": 91
    },
    {
      "midi": 50,
      "hit": false,
      "t": 60000.03000000027,
      "d": 855.5559833333391,
      "v": 93
    },
    {
      "midi": 62,
      "hit": false,
      "t": 60333.363500000276,
      "d": 250.00012499999866,
      "v": 78
    },
    {
      "midi": 57,
      "hit": false,
      "t": 60500.03025000027,
      "d": 244.4445666666652,
      "v": 89
    },
    {
      "midi": 66,
      "hit": false,
      "t": 60833.36375000027,
      "d": 38.88890833333426,
      "v": 112
    },
    {
      "midi": 57,
      "hit": false,
      "t": 61333.36400000028,
      "d": 283.33347500000673,
      "v": 88
    },
    {
      "midi": 64,
      "hit": false,
      "t": 61333.36400000028,
      "d": 466.6669000000038,
      "v": 103
    },
    {
      "midi": 59,
      "hit": false,
      "t": 61333.36400000028,
      "d": 527.7780416666719,
      "v": 99
    },
    {
      "midi": 42,
      "hit": false,
      "t": 61333.36400000028,
      "d": 700.0003500000093,
      "v": 86
    },
    {
      "midi": 64,
      "hit": false,
      "t": 62000.03100000029,
      "d": 255.5556833333394,
      "v": 85
    },
    {
      "midi": 57,
      "hit": false,
      "t": 62166.69775000029,
      "d": 133.33340000000317,
      "v": 85
    },
    {
      "midi": 59,
      "hit": false,
      "t": 62666.698000000295,
      "d": 477.77801666667074,
      "v": 77
    },
    {
      "midi": 67,
      "hit": false,
      "t": 62666.698000000295,
      "d": 505.55580833333806,
      "v": 89
    },
    {
      "midi": 64,
      "hit": false,
      "t": 62666.698000000295,
      "d": 516.666925000005,
      "v": 85
    },
    {
      "midi": 40,
      "hit": false,
      "t": 62666.698000000295,
      "d": 1183.3339250000136,
      "v": 52
    },
    {
      "midi": 59,
      "hit": false,
      "t": 63333.3650000003,
      "d": 77.77781666666851,
      "v": 85
    },
    {
      "midi": 67,
      "hit": false,
      "t": 63500.03175000031,
      "d": 77.77781666666851,
      "v": 91
    },
    {
      "midi": 64,
      "hit": false,
      "t": 63500.03175000031,
      "d": 83.33337500000198,
      "v": 85
    },
    {
      "midi": 62,
      "hit": false,
      "t": 64000.03200000031,
      "d": 350.00017500000104,
      "v": 90
    },
    {
      "midi": 59,
      "hit": false,
      "t": 64000.03200000031,
      "d": 405.5557583333357,
      "v": 83
    },
    {
      "midi": 55,
      "hit": false,
      "t": 64000.03200000031,
      "d": 444.44466666666995,
      "v": 76
    },
    {
      "midi": 43,
      "hit": false,
      "t": 64000.03200000031,
      "d": 677.7781166666682,
      "v": 72
    },
    {
      "midi": 62,
      "hit": false,
      "t": 64666.69900000031,
      "d": 116.66672500000277,
      "v": 80
    },
    {
      "midi": 55,
      "hit": false,
      "t": 64833.36575000032,
      "d": 161.11119166666322,
      "v": 85
    },
    {
      "midi": 57,
      "hit": false,
      "t": 65000.032500000314,
      "d": 61.11114166666812,
      "v": 85
    },
    {
      "midi": 55,
      "hit": false,
      "t": 65166.69925000032,
      "d": 94.44449166666891,
      "v": 74
    },
    {
      "midi": 55,
      "hit": false,
      "t": 65333.36600000032,
      "d": 188.88898333333054,
      "v": 82
    },
    {
      "midi": 60,
      "hit": false,
      "t": 65333.36600000032,
      "d": 272.2223583333325,
      "v": 85
    },
    {
      "midi": 64,
      "hit": false,
      "t": 65333.36600000032,
      "d": 300.00014999999985,
      "v": 90
    },
    {
      "midi": 48,
      "hit": false,
      "t": 65333.36600000032,
      "d": 722.2225833333432,
      "v": 81
    },
    {
      "midi": 55,
      "hit": false,
      "t": 65666.69950000032,
      "d": 100.00005000000237,
      "v": 54
    },
    {
      "midi": 60,
      "hit": false,
      "t": 66000.03300000033,
      "d": 105.55560833333584,
      "v": 79
    },
    {
      "midi": 64,
      "hit": false,
      "t": 66000.03300000033,
      "d": 266.66680000000633,
      "v": 92
    },
    {
      "midi": 55,
      "hit": false,
      "t": 66166.69975000033,
      "d": 144.4445166666701,
      "v": 89
    },
    {
      "midi": 57,
      "hit": false,
      "t": 66500.03325000034,
      "d": 61.11114166666812,
      "v": 53
    },
    {
      "midi": 57,
      "hit": false,
      "t": 66666.70000000035,
      "d": 183.33342500000435,
      "v": 58
    },
    {
      "midi": 62,
      "hit": false,
      "t": 66666.70000000035,
      "d": 216.66677500000515,
      "v": 86
    },
    {
      "midi": 66,
      "hit": false,
      "t": 66666.70000000035,
      "d": 222.2223333333386,
      "v": 82
    },
    {
      "midi": 50,
      "hit": false,
      "t": 66666.70000000035,
      "d": 744.4448166666843,
      "v": 84
    },
    {
      "midi": 57,
      "hit": false,
      "t": 67000.03350000035,
      "d": 122.22228333333624,
      "v": 41
    },
    {
      "midi": 66,
      "hit": false,
      "t": 67333.36700000036,
      "d": 333.3335000000079,
      "v": 54
    },
    {
      "midi": 62,
      "hit": false,
      "t": 67333.36700000036,
      "d": 344.44461666667485,
      "v": 70
    },
    {
      "midi": 57,
      "hit": false,
      "t": 67333.36700000036,
      "d": 355.5557333333418,
      "v": 65
    },
    {
      "midi": 69,
      "hit": false,
      "t": 67333.36700000036,
      "d": 566.6669500000135,
      "v": 72
    },
    {
      "midi": 50,
      "hit": false,
      "t": 67666.70050000037,
      "d": 772.2226083333517,
      "v": 79
    },
    {
      "midi": 57,
      "hit": false,
      "t": 67833.36725000037,
      "d": 388.88908333334257,
      "v": 84
    },
    {
      "midi": 69,
      "hit": false,
      "t": 68000.03400000038,
      "d": 50.00002500000119,
      "v": 66
    },
    {
      "midi": 66,
      "hit": false,
      "t": 68000.03400000038,
      "d": 361.11129166667524,
      "v": 112
    },
    {
      "midi": 64,
      "hit": false,
      "t": 68166.70075000038,
      "d": 255.5556833333394,
      "v": 91
    },
    {
      "midi": 62,
      "hit": false,
      "t": 68333.36750000039,
      "d": 122.22228333333624,
      "v": 85
    },
    {
      "midi": 57,
      "hit": false,
      "t": 68500.03425000039,
      "d": 111.1111666666693,
      "v": 79
    },
    {
      "midi": 50,
      "hit": false,
      "t": 68666.7010000004,
      "d": 361.11129166667524,
      "v": 75
    },
    {
      "midi": 57,
      "hit": false,
      "t": 68833.3677500004,
      "d": 66.66670000000158,
      "v": 85
    },
    {
      "midi": 55,
      "hit": false,
      "t": 69166.7012500004,
      "d": 50.00002500000119,
      "v": 30
    },
    {
      "midi": 43,
      "hit": false,
      "t": 69333.36800000041,
      "d": 333.3335000000079,
      "v": 73
    },
    {
      "midi": 55,
      "hit": false,
      "t": 69333.36800000041,
      "d": 538.8891583333461,
      "v": 81
    },
    {
      "midi": 62,
      "hit": false,
      "t": 69333.36800000041,
      "d": 544.4447166666796,
      "v": 93
    },
    {
      "midi": 59,
      "hit": false,
      "t": 69333.36800000041,
      "d": 572.2225083333469,
      "v": 86
    },
    {
      "midi": 55,
      "hit": false,
      "t": 70000.03500000043,
      "d": 1161.1116916666942,
      "v": 83
    },
    {
      "midi": 62,
      "hit": false,
      "t": 70000.03500000043,
      "d": 1183.333925000028,
      "v": 85
    },
    {
      "midi": 59,
      "hit": false,
      "t": 70000.03500000043,
      "d": 1455.556283333368,
      "v": 85
    },
    {
      "midi": 43,
      "hit": false,
      "t": 70333.36850000043,
      "d": 227.77789166667208,
      "v": 107
    },
    {
      "midi": 43,
      "hit": false,
      "t": 70666.70200000044,
      "d": 588.8891833333473,
      "v": 89
    },
    {
      "midi": 55,
      "hit": false,
      "t": 71333.36900000046,
      "d": 144.4445166666701,
      "v": 95
    },
    {
      "midi": 57,
      "hit": false,
      "t": 71500.03575000046,
      "d": 122.22228333333624,
      "v": 96
    },
    {
      "midi": 47,
      "hit": false,
      "t": 72000.03600000047,
      "d": 622.2225333333336,
      "v": 85
    },
    {
      "midi": 54,
      "hit": false,
      "t": 72000.03600000047,
      "d": 1600.000800000009,
      "v": 72
    },
    {
      "midi": 57,
      "hit": false,
      "t": 72000.03600000047,
      "d": 1872.2231583333487,
      "v": 91
    },
    {
      "midi": 62,
      "hit": false,
      "t": 72000.03600000047,
      "d": 1877.7787166666822,
      "v": 91
    },
    {
      "midi": 47,
      "hit": false,
      "t": 73000.03650000047,
      "d": 222.2223333333386,
      "v": 97
    },
    {
      "midi": 47,
      "hit": false,
      "t": 73333.37000000048,
      "d": 1238.8895083333482,
      "v": 102
    },
    {
      "midi": 54,
      "hit": false,
      "t": 73666.70350000048,
      "d": 100.00005000000237,
      "v": 50
    },
    {
      "midi": 54,
      "hit": false,
      "t": 74000.03700000049,
      "d": 111.1111666666693,
      "v": 90
    },
    {
      "midi": 57,
      "hit": false,
      "t": 74166.7037500005,
      "d": 50.00002500000119,
      "v": 80
    },
    {
      "midi": 62,
      "hit": false,
      "t": 74166.7037500005,
      "d": 72.22225833333505,
      "v": 96
    },
    {
      "midi": 55,
      "hit": false,
      "t": 74666.70400000049,
      "d": 516.6669250000123,
      "v": 85
    },
    {
      "midi": 60,
      "hit": false,
      "t": 74666.70400000049,
      "d": 605.5558583333477,
      "v": 89
    },
    {
      "midi": 64,
      "hit": false,
      "t": 74666.70400000049,
      "d": 638.8892083333485,
      "v": 85
    },
    {
      "midi": 48,
      "hit": false,
      "t": 74666.70400000049,
      "d": 883.333775000021,
      "v": 85
    },
    {
      "midi": 55,
      "hit": false,
      "t": 75333.37100000051,
      "d": 77.77781666666851,
      "v": 84
    },
    {
      "midi": 55,
      "hit": false,
      "t": 75500.03775000051,
      "d": 433.33354999999574,
      "v": 89
    },
    {
      "midi": 64,
      "hit": false,
      "t": 75500.03775000051,
      "d": 444.44466666666267,
      "v": 99
    },
    {
      "midi": 60,
      "hit": false,
      "t": 75500.03775000051,
      "d": 461.11134166666307,
      "v": 107
    },
    {
      "midi": 64,
      "hit": false,
      "t": 76000.03800000051,
      "d": 438.8891083333292,
      "v": 80
    },
    {
      "midi": 55,
      "hit": false,
      "t": 76000.03800000051,
      "d": 450.00022499999614,
      "v": 80
    },
    {
      "midi": 60,
      "hit": false,
      "t": 76000.03800000051,
      "d": 461.11134166666307,
      "v": 83
    },
    {
      "midi": 50,
      "hit": false,
      "t": 76000.03800000051,
      "d": 1211.1117166666809,
      "v": 81
    },
    {
      "midi": 55,
      "hit": false,
      "t": 76666.70500000051,
      "d": 111.1111666666693,
      "v": 100
    },
    {
      "midi": 60,
      "hit": false,
      "t": 76833.37175000052,
      "d": 66.66670000000158,
      "v": 96
    },
    {
      "midi": 55,
      "hit": false,
      "t": 77166.70525000052,
      "d": 44.44446666666772,
      "v": 67
    },
    {
      "midi": 55,
      "hit": false,
      "t": 77333.37200000053,
      "d": 222.2223333333386,
      "v": 78
    },
    {
      "midi": 62,
      "hit": false,
      "t": 77333.37200000053,
      "d": 272.2223583333398,
      "v": 86
    },
    {
      "midi": 59,
      "hit": false,
      "t": 77333.37200000053,
      "d": 277.77791666667326,
      "v": 90
    },
    {
      "midi": 43,
      "hit": false,
      "t": 77333.37200000053,
      "d": 727.7781416666694,
      "v": 73
    },
    {
      "midi": 55,
      "hit": false,
      "t": 78333.37250000054,
      "d": 522.2224833333312,
      "v": 89
    },
    {
      "midi": 60,
      "hit": false,
      "t": 78333.37250000054,
      "d": 527.7780416666646,
      "v": 85
    },
    {
      "midi": 64,
      "hit": false,
      "t": 78333.37250000054,
      "d": 544.444716666665,
      "v": 89
    },
    {
      "midi": 48,
      "hit": false,
      "t": 78333.37250000054,
      "d": 1166.6672500000132,
      "v": 84
    },
    {
      "midi": 60,
      "hit": false,
      "t": 79000.03950000054,
      "d": 83.33337500000198,
      "v": 91
    },
    {
      "midi": 55,
      "hit": false,
      "t": 79000.03950000054,
      "d": 94.44449166666891,
      "v": 107
    },
    {
      "midi": 64,
      "hit": false,
      "t": 79000.03950000054,
      "d": 105.55560833333584,
      "v": 92
    },
    {
      "midi": 60,
      "hit": false,
      "t": 79333.37300000055,
      "d": 50.00002500000119,
      "v": 77
    },
    {
      "midi": 55,
      "hit": false,
      "t": 79333.37300000055,
      "d": 72.22225833333505,
      "v": 95
    },
    {
      "midi": 64,
      "hit": false,
      "t": 79333.37300000055,
      "d": 72.22225833333505,
      "v": 85
    },
    {
      "midi": 59,
      "hit": false,
      "t": 79500.03975000055,
      "d": 66.66670000000158,
      "v": 97
    },
    {
      "midi": 55,
      "hit": false,
      "t": 79833.37325000056,
      "d": 27.777791666667326,
      "v": 55
    },
    {
      "midi": 43,
      "hit": false,
      "t": 80000.04000000056,
      "d": 333.33349999999336,
      "v": 83
    },
    {
      "midi": 55,
      "hit": false,
      "t": 80000.04000000056,
      "d": 1777.7786666666652,
      "v": 85
    },
    {
      "midi": 59,
      "hit": false,
      "t": 80000.04000000056,
      "d": 1844.4453666666668,
      "v": 92
    },
    {
      "midi": 62,
      "hit": false,
      "t": 80000.04000000056,
      "d": 1844.4453666666668,
      "v": 93
    },
    {
      "midi": 43,
      "hit": false,
      "t": 81000.04050000056,
      "d": 250.00012500000594,
      "v": 99
    },
    {
      "midi": 43,
      "hit": false,
      "t": 81333.37400000056,
      "d": 494.44469166666386,
      "v": 92
    },
    {
      "midi": 59,
      "hit": false,
      "t": 82000.04100000056,
      "d": 94.44449166666891,
      "v": 57
    },
    {
      "midi": 55,
      "hit": false,
      "t": 82000.04100000056,
      "d": 155.55563333333703,
      "v": 95
    },
    {
      "midi": 59,
      "hit": false,
      "t": 82166.70775000057,
      "d": 38.88890833333426,
      "v": 57
    },
    {
      "midi": 57,
      "hit": false,
      "t": 82166.70775000057,
      "d": 122.22228333333624,
      "v": 107
    },
    {
      "midi": 54,
      "hit": false,
      "t": 82666.70800000058,
      "d": 638.8892083333194,
      "v": 78
    },
    {
      "midi": 62,
      "hit": false,
      "t": 82666.70800000058,
      "d": 650.0003249999863,
      "v": 86
    },
    {
      "midi": 47,
      "hit": false,
      "t": 82666.70800000058,
      "d": 777.778166666656,
      "v": 85
    },
    {
      "midi": 57,
      "hit": false,
      "t": 83333.37500000057,
      "d": 11.11111666666693,
      "v": 85
    },
    {
      "midi": 54,
      "hit": false,
      "t": 83333.37500000057,
      "d": 894.4448916666879,
      "v": 52
    },
    {
      "midi": 62,
      "hit": false,
      "t": 83333.37500000057,
      "d": 1172.2228083333612,
      "v": 79
    },
    {
      "midi": 47,
      "hit": false,
      "t": 83666.70850000058,
      "d": 211.11121666667168,
      "v": 88
    },
    {
      "midi": 47,
      "hit": false,
      "t": 84000.04200000058,
      "d": 1133.333900000027,
      "v": 99
    },
    {
      "midi": 54,
      "hit": false,
      "t": 84333.37550000059,
      "d": 127.7778416666697,
      "v": 54
    },
    {
      "midi": 54,
      "hit": false,
      "t": 84666.7090000006,
      "d": 105.55560833333584,
      "v": 72
    },
    {
      "midi": 62,
      "hit": false,
      "t": 84833.3757500006,
      "d": 127.7778416666697,
      "v": 95
    },
    {
      "midi": 55,
      "hit": false,
      "t": 85166.70925000061,
      "d": 72.22225833333505,
      "v": 71
    },
    {
      "midi": 55,
      "hit": false,
      "t": 85333.37600000062,
      "d": 466.6669000000111,
      "v": 80
    },
    {
      "midi": 64,
      "hit": false,
      "t": 85333.37600000062,
      "d": 472.22245833334455,
      "v": 80
    },
    {
      "midi": 60,
      "hit": false,
      "t": 85333.37600000062,
      "d": 483.3335750000115,
      "v": 92
    },
    {
      "midi": 48,
      "hit": false,
      "t": 85333.37600000062,
      "d": 822.2226333333529,
      "v": 81
    },
    {
      "midi": 55,
      "hit": false,
      "t": 86000.04300000063,
      "d": 66.66670000000158,
      "v": 85
    },
    {
      "midi": 55,
      "hit": false,
      "t": 86166.70975000063,
      "d": 416.66687499999534,
      "v": 81
    },
    {
      "midi": 60,
      "hit": false,
      "t": 86166.70975000063,
      "d": 427.7779916666623,
      "v": 88
    },
    {
      "midi": 64,
      "hit": false,
      "t": 86166.70975000063,
      "d": 438.8891083333292,
      "v": 92
    },
    {
      "midi": 55,
      "hit": false,
      "t": 86666.71000000063,
      "d": 527.7780416666792,
      "v": 77
    },
    {
      "midi": 60,
      "hit": false,
      "t": 86666.71000000063,
      "d": 550.0002750000131,
      "v": 85
    },
    {
      "midi": 64,
      "hit": false,
      "t": 86666.71000000063,
      "d": 550.0002750000131,
      "v": 75
    },
    {
      "midi": 50,
      "hit": false,
      "t": 86666.71000000063,
      "d": 1161.1116916666942,
      "v": 84
    },
    {
      "midi": 60,
      "hit": false,
      "t": 87333.37700000065,
      "d": 205.55565833333822,
      "v": 102
    },
    {
      "midi": 64,
      "hit": false,
      "t": 87333.37700000065,
      "d": 255.5556833333394,
      "v": 99
    },
    {
      "midi": 55,
      "hit": false,
      "t": 87500.04375000065,
      "d": 116.66672500000277,
      "v": 92
    },
    {
      "midi": 55,
      "hit": false,
      "t": 87833.37725000066,
      "d": 50.00002500000119,
      "v": 61
    },
    {
      "midi": 62,
      "hit": false,
      "t": 88000.04400000066,
      "d": 544.444716666665,
      "v": 91
    },
    {
      "midi": 55,
      "hit": false,
      "t": 88000.04400000066,
      "d": 572.2225083333324,
      "v": 79
    },
    {
      "midi": 59,
      "hit": false,
      "t": 88000.04400000066,
      "d": 594.4447416666662,
      "v": 90
    },
    {
      "midi": 43,
      "hit": false,
      "t": 88000.04400000066,
      "d": 811.1115166666714,
      "v": 76
    },
    {
      "midi": 55,
      "hit": false,
      "t": 88666.71100000067,
      "d": 388.88908333334257,
      "v": 84
    },
    {
      "midi": 62,
      "hit": false,
      "t": 88666.71100000067,
      "d": 500.0002500000119,
      "v": 85
    },
    {
      "midi": 59,
      "hit": false,
      "t": 88666.71100000067,
      "d": 622.2225333333481,
      "v": 85
    },
    {
      "midi": 43,
      "hit": false,
      "t": 89000.04450000067,
      "d": 822.2226333333529,
      "v": 81
    },
    {
      "midi": 55,
      "hit": false,
      "t": 89166.71125000068,
      "d": 122.22228333333624,
      "v": 88
    },
    {
      "midi": 57,
      "hit": false,
      "t": 89333.37800000068,
      "d": 111.1111666666693,
      "v": 109
    },
    {
      "midi": 62,
      "hit": false,
      "t": 89500.04475000068,
      "d": 344.44461666667485,
      "v": 105
    },
    {
      "midi": 55,
      "hit": false,
      "t": 89666.71150000069,
      "d": 50.00002500000119,
      "v": 75
    },
    {
      "midi": 62,
      "hit": false,
      "t": 90000.0450000007,
      "d": 227.77789166667208,
      "v": 93
    },
    {
      "midi": 55,
      "hit": false,
      "t": 90166.7117500007,
      "d": 77.77781666666851,
      "v": 102
    },
    {
      "midi": 66,
      "hit": false,
      "t": 90666.7120000007,
      "d": 572.2225083333324,
      "v": 82
    },
    {
      "midi": 57,
      "hit": false,
      "t": 90666.7120000007,
      "d": 594.4447416666662,
      "v": 77
    },
    {
      "midi": 62,
      "hit": false,
      "t": 90666.7120000007,
      "d": 594.4447416666662,
      "v": 91
    },
    {
      "midi": 50,
      "hit": false,
      "t": 90666.7120000007,
      "d": 761.1114916666702,
      "v": 83
    },
    {
      "midi": 66,
      "hit": false,
      "t": 91333.3790000007,
      "d": 988.8893833333568,
      "v": 80
    },
    {
      "midi": 62,
      "hit": false,
      "t": 91333.3790000007,
      "d": 1044.4449666666915,
      "v": 95
    },
    {
      "midi": 57,
      "hit": false,
      "t": 91333.3790000007,
      "d": 1050.000525000025,
      "v": 78
    },
    {
      "midi": 69,
      "hit": false,
      "t": 91333.3790000007,
      "d": 1366.6673500000325,
      "v": 83
    },
    {
      "midi": 50,
      "hit": false,
      "t": 91666.7125000007,
      "d": 216.66677500000515,
      "v": 85
    },
    {
      "midi": 50,
      "hit": false,
      "t": 92000.04600000072,
      "d": 661.1114416666824,
      "v": 96
    },
    {
      "midi": 57,
      "hit": false,
      "t": 92666.71300000073,
      "d": 172.22230833333742,
      "v": 88
    },
    {
      "midi": 66,
      "hit": false,
      "t": 92833.37975000073,
      "d": 44.44446666666772,
      "v": 100
    },
    {
      "midi": 62,
      "hit": false,
      "t": 92833.37975000073,
      "d": 61.11114166666812,
      "v": 96
    },
    {
      "midi": 54,
      "hit": false,
      "t": 93333.38000000073,
      "d": 533.3335999999981,
      "v": 79
    },
    {
      "midi": 61,
      "hit": false,
      "t": 93333.38000000073,
      "d": 550.0002749999985,
      "v": 89
    },
    {
      "midi": 57,
      "hit": false,
      "t": 93333.38000000073,
      "d": 605.5558583333332,
      "v": 92
    },
    {
      "midi": 42,
      "hit": false,
      "t": 93333.38000000073,
      "d": 761.1114916666702,
      "v": 79
    },
    {
      "midi": 61,
      "hit": false,
      "t": 94000.04700000073,
      "d": 811.1115166666859,
      "v": 94
    },
    {
      "midi": 54,
      "hit": false,
      "t": 94000.04700000073,
      "d": 877.7782166666875,
      "v": 72
    },
    {
      "midi": 57,
      "hit": false,
      "t": 94000.04700000073,
      "d": 988.8893833333568,
      "v": 82
    },
    {
      "midi": 42,
      "hit": false,
      "t": 94333.38050000074,
      "d": 155.55563333333703,
      "v": 90
    },
    {
      "midi": 42,
      "hit": false,
      "t": 94666.71400000075,
      "d": 1100.0005500000261,
      "v": 90
    },
    {
      "midi": 54,
      "hit": false,
      "t": 95000.04750000076,
      "d": 177.7778666666709,
      "v": 48
    },
    {
      "midi": 54,
      "hit": false,
      "t": 95333.38100000077,
      "d": 116.66672500000277,
      "v": 65
    },
    {
      "midi": 54,
      "hit": false,
      "t": 95500.04775000077,
      "d": 61.11114166666812,
      "v": 48
    },
    {
      "midi": 61,
      "hit": false,
      "t": 95500.04775000077,
      "d": 66.66670000000158,
      "v": 96
    },
    {
      "midi": 57,
      "hit": false,
      "t": 95500.04775000077,
      "d": 77.77781666666851,
      "v": 97
    },
    {
      "midi": 55,
      "hit": false,
      "t": 96000.04800000078,
      "d": 416.6668750000099,
      "v": 85
    },
    {
      "midi": 59,
      "hit": false,
      "t": 96000.04800000078,
      "d": 483.3335750000115,
      "v": 93
    },
    {
      "midi": 62,
      "hit": false,
      "t": 96000.04800000078,
      "d": 494.4446916666784,
      "v": 95
    },
    {
      "midi": 43,
      "hit": false,
      "t": 96000.04800000078,
      "d": 677.7781166666828,
      "v": 82
    },
    {
      "midi": 59,
      "hit": false,
      "t": 96666.7150000008,
      "d": 83.33337500000198,
      "v": 86
    },
    {
      "midi": 62,
      "hit": false,
      "t": 96666.7150000008,
      "d": 305.5557083333406,
      "v": 97
    },
    {
      "midi": 55,
      "hit": false,
      "t": 96833.3817500008,
      "d": 188.88898333333782,
      "v": 79
    },
    {
      "midi": 55,
      "hit": false,
      "t": 97166.71525000081,
      "d": 55.55558333333465,
      "v": 54
    },
    {
      "midi": 60,
      "hit": false,
      "t": 97333.38200000081,
      "d": 272.2223583333398,
      "v": 92
    },
    {
      "midi": 64,
      "hit": false,
      "t": 97333.38200000081,
      "d": 305.5557083333406,
      "v": 90
    },
    {
      "midi": 55,
      "hit": false,
      "t": 97333.38200000081,
      "d": 538.8891583333461,
      "v": 83
    },
    {
      "midi": 48,
      "hit": false,
      "t": 97333.38200000081,
      "d": 733.3337000000174,
      "v": 85
    },
    {
      "midi": 60,
      "hit": false,
      "t": 98000.04900000083,
      "d": 72.22225833333505,
      "v": 75
    },
    {
      "midi": 64,
      "hit": false,
      "t": 98000.04900000083,
      "d": 94.44449166666891,
      "v": 78
    },
    {
      "midi": 57,
      "hit": false,
      "t": 101333.38400000083,
      "d": 561.11139166668,
      "v": 71
    },
    {
      "midi": 66,
      "hit": false,
      "t": 101333.38400000083,
      "d": 577.7780666666804,
      "v": 72
    },
    {
      "midi": 62,
      "hit": false,
      "t": 101333.38400000083,
      "d": 583.3336250000139,
      "v": 91
    },
    {
      "midi": 50,
      "hit": false,
      "t": 101333.38400000083,
      "d": 755.5559333333513,
      "v": 90
    },
    {
      "midi": 57,
      "hit": false,
      "t": 102000.05100000085,
      "d": 900.0004500000214,
      "v": 65
    },
    {
      "midi": 62,
      "hit": false,
      "t": 102000.05100000085,
      "d": 966.667150000023,
      "v": 81
    },
    {
      "midi": 66,
      "hit": false,
      "t": 102000.05100000085,
      "d": 988.8893833333568,
      "v": 61
    },
    {
      "midi": 69,
      "hit": false,
      "t": 102000.05100000085,
      "d": 1233.3339500000293,
      "v": 67
    },
    {
      "midi": 50,
      "hit": false,
      "t": 102333.38450000086,
      "d": 188.88898333333782,
      "v": 85
    },
    {
      "midi": 50,
      "hit": false,
      "t": 102666.71800000087,
      "d": 750.0003750000178,
      "v": 99
    },
    {
      "midi": 57,
      "hit": false,
      "t": 103333.38500000088,
      "d": 94.44449166666891,
      "v": 91
    },
    {
      "midi": 57,
      "hit": false,
      "t": 103500.05175000089,
      "d": 33.33335000000079,
      "v": 61
    },
    {
      "midi": 62,
      "hit": false,
      "t": 103500.05175000089,
      "d": 55.55558333333465,
      "v": 100
    },
    {
      "midi": 66,
      "hit": false,
      "t": 103500.05175000089,
      "d": 61.11114166666812,
      "v": 100
    },
    {
      "midi": 60,
      "hit": false,
      "t": 104000.05200000088,
      "d": 33.33335000000079,
      "v": 78
    },
    {
      "midi": 57,
      "hit": false,
      "t": 104000.05200000088,
      "d": 527.7780416666646,
      "v": 71
    },
    {
      "midi": 59,
      "hit": false,
      "t": 104000.05200000088,
      "d": 572.2225083333324,
      "v": 75
    },
    {
      "midi": 42,
      "hit": false,
      "t": 104000.05200000088,
      "d": 838.8893083333387,
      "v": 77
    },
    {
      "midi": 59,
      "hit": false,
      "t": 104666.71900000088,
      "d": 205.55565833333822,
      "v": 78
    },
    {
      "midi": 57,
      "hit": false,
      "t": 104833.38575000089,
      "d": 138.88895833333663,
      "v": 78
    },
    {
      "midi": 59,
      "hit": false,
      "t": 105000.0525000009,
      "d": 50.00002500000119,
      "v": 73
    },
    {
      "midi": 59,
      "hit": false,
      "t": 105333.3860000009,
      "d": 388.889083333328,
      "v": 84
    },
    {
      "midi": 52,
      "hit": false,
      "t": 105333.3860000009,
      "d": 405.5557583333284,
      "v": 75
    },
    {
      "midi": 55,
      "hit": false,
      "t": 105333.3860000009,
      "d": 444.44466666666267,
      "v": 80
    },
    {
      "midi": 40,
      "hit": false,
      "t": 105333.3860000009,
      "d": 1138.8894583333458,
      "v": 74
    },
    {
      "midi": 52,
      "hit": false,
      "t": 106000.0530000009,
      "d": 88.88893333333544,
      "v": 89
    },
    {
      "midi": 55,
      "hit": false,
      "t": 106166.7197500009,
      "d": 77.77781666666851,
      "v": 97
    },
    {
      "midi": 59,
      "hit": false,
      "t": 106333.38650000091,
      "d": 77.77781666666851,
      "v": 85
    },
    {
      "midi": 55,
      "hit": false,
      "t": 106666.72000000092,
      "d": 188.88898333333782,
      "v": 83
    },
    {
      "midi": 62,
      "hit": false,
      "t": 106666.72000000092,
      "d": 355.5557333333418,
      "v": 90
    },
    {
      "midi": 59,
      "hit": false,
      "t": 106666.72000000092,
      "d": 400.0002000000095,
      "v": 88
    },
    {
      "midi": 43,
      "hit": false,
      "t": 106666.72000000092,
      "d": 794.4448416666855,
      "v": 80
    },
    {
      "midi": 55,
      "hit": false,
      "t": 107000.05350000093,
      "d": 83.33337500000198,
      "v": 41
    },
    {
      "midi": 59,
      "hit": false,
      "t": 107333.38700000093,
      "d": 94.44449166666891,
      "v": 85
    },
    {
      "midi": 62,
      "hit": false,
      "t": 107333.38700000093,
      "d": 272.2223583333398,
      "v": 88
    },
    {
      "midi": 55,
      "hit": false,
      "t": 107500.05375000094,
      "d": 144.4445166666701,
      "v": 88
    },
    {
      "midi": 59,
      "hit": false,
      "t": 107666.72050000094,
      "d": 55.55558333333465,
      "v": 77
    },
    {
      "midi": 60,
      "hit": false,
      "t": 108000.05400000095,
      "d": 388.889083333328,
      "v": 65
    },
    {
      "midi": 55,
      "hit": false,
      "t": 108000.05400000095,
      "d": 394.4446416666615,
      "v": 72
    },
    {
      "midi": 64,
      "hit": false,
      "t": 108000.05400000095,
      "d": 394.4446416666615,
      "v": 75
    },
    {
      "midi": 48,
      "hit": false,
      "t": 108000.05400000095,
      "d": 755.5559333333367,
      "v": 78
    },
    {
      "midi": 60,
      "hit": false,
      "t": 108666.72100000095,
      "d": 94.44449166666891,
      "v": 82
    },
    {
      "midi": 64,
      "hit": false,
      "t": 108666.72100000095,
      "d": 322.222383333341,
      "v": 88
    },
    {
      "midi": 60,
      "hit": false,
      "t": 108833.38775000095,
      "d": 55.55558333333465,
      "v": 40
    },
    {
      "midi": 55,
      "hit": false,
      "t": 108833.38775000095,
      "d": 138.88895833333663,
      "v": 90
    },
    {
      "midi": 66,
      "hit": false,
      "t": 109333.38800000097,
      "d": 327.77794166667445,
      "v": 80
    },
    {
      "midi": 57,
      "hit": false,
      "t": 109333.38800000097,
      "d": 388.88908333334257,
      "v": 71
    },
    {
      "midi": 62,
      "hit": false,
      "t": 109333.38800000097,
      "d": 394.44464166667603,
      "v": 85
    },
    {
      "midi": 50,
      "hit": false,
      "t": 109333.38800000097,
      "d": 761.1114916666847,
      "v": 78
    },
    {
      "midi": 66,
      "hit": false,
      "t": 110000.05500000098,
      "d": 316.6668250000075,
      "v": 72
    },
    {
      "midi": 57,
      "hit": false,
      "t": 110000.05500000098,
      "d": 366.6668500000087,
      "v": 75
    },
    {
      "midi": 62,
      "hit": false,
      "t": 110000.05500000098,
      "d": 383.3335250000091,
      "v": 82
    },
    {
      "midi": 50,
      "hit": false,
      "t": 110333.38850000099,
      "d": 694.4447916666832,
      "v": 85
    },
    {
      "midi": 57,
      "hit": false,
      "t": 110500.055250001,
      "d": 105.55560833333584,
      "v": 76
    },
    {
      "midi": 57,
      "hit": false,
      "t": 110666.722000001,
      "d": 133.33340000000317,
      "v": 59
    },
    {
      "midi": 66,
      "hit": false,
      "t": 111000.055500001,
      "d": 283.33347500000673,
      "v": 87
    },
    {
      "midi": 57,
      "hit": false,
      "t": 111000.055500001,
      "d": 288.8890333333402,
      "v": 89
    },
    {
      "midi": 62,
      "hit": false,
      "t": 111000.055500001,
      "d": 322.222383333341,
      "v": 95
    },
    {
      "midi": 50,
      "hit": false,
      "t": 111166.72225000101,
      "d": 272.2223583333398,
      "v": 90
    },
    {
      "midi": 57,
      "hit": false,
      "t": 111333.38900000101,
      "d": 194.44454166667128,
      "v": 68
    },
    {
      "midi": 62,
      "hit": false,
      "t": 111500.05575000102,
      "d": 61.11114166666812,
      "v": 91
    },
    {
      "midi": 43,
      "hit": false,
      "t": 112000.05600000103,
      "d": 505.5558083333308,
      "v": 77
    },
    {
      "midi": 62,
      "hit": false,
      "t": 112000.05600000103,
      "d": 566.6669499999989,
      "v": 88
    },
    {
      "midi": 55,
      "hit": false,
      "t": 112000.05600000103,
      "d": 594.4447416666662,
      "v": 80
    },
    {
      "midi": 59,
      "hit": false,
      "t": 112000.05600000103,
      "d": 616.6669750000001,
      "v": 85
    },
    {
      "midi": 55,
      "hit": false,
      "t": 112666.72300000103,
      "d": 1111.111666666693,
      "v": 83
    },
    {
      "midi": 62,
      "hit": false,
      "t": 112666.72300000103,
      "d": 1111.111666666693,
      "v": 80
    },
    {
      "midi": 57,
      "hit": false,
      "t": 112666.72300000103,
      "d": 1177.7783666666946,
      "v": 82
    },
    {
      "midi": 43,
      "hit": false,
      "t": 113000.05650000104,
      "d": 188.88898333333782,
      "v": 91
    },
    {
      "midi": 43,
      "hit": false,
      "t": 113333.39000000105,
      "d": 716.667025000017,
      "v": 102
    },
    {
      "midi": 62,
      "hit": false,
      "t": 114000.05700000106,
      "d": 400.0002000000095,
      "v": 95
    },
    {
      "midi": 55,
      "hit": false,
      "t": 114166.72375000107,
      "d": 127.7778416666697,
      "v": 93
    },
    {
      "midi": 54,
      "hit": false,
      "t": 114666.72400000108,
      "d": 566.6669499999989,
      "v": 79
    },
    {
      "midi": 62,
      "hit": false,
      "t": 114666.72400000108,
      "d": 611.1114166666666,
      "v": 85
    },
    {
      "midi": 57,
      "hit": false,
      "t": 114666.72400000108,
      "d": 650.0003250000009,
      "v": 92
    },
    {
      "midi": 47,
      "hit": false,
      "t": 114666.72400000108,
      "d": 772.2226083333371,
      "v": 89
    },
    {
      "midi": 54,
      "hit": false,
      "t": 115333.39100000108,
      "d": 800.000400000019,
      "v": 72
    },
    {
      "midi": 57,
      "hit": false,
      "t": 115333.39100000108,
      "d": 966.667150000023,
      "v": 67
    },
    {
      "midi": 62,
      "hit": false,
      "t": 115333.39100000108,
      "d": 977.7782666666899,
      "v": 85
    },
    {
      "midi": 47,
      "hit": false,
      "t": 115666.72450000109,
      "d": 222.2223333333386,
      "v": 95
    },
    {
      "midi": 47,
      "hit": false,
      "t": 116000.0580000011,
      "d": 566.6669500000135,
      "v": 93
    },
    {
      "midi": 54,
      "hit": false,
      "t": 116333.3915000011,
      "d": 166.66675000000396,
      "v": 72
    },
    {
      "midi": 54,
      "hit": false,
      "t": 116666.72500000111,
      "d": 111.1111666666693,
      "v": 66
    },
    {
      "midi": 62,
      "hit": false,
      "t": 116833.39175000112,
      "d": 72.22225833333505,
      "v": 89
    },
    {
      "midi": 55,
      "hit": false,
      "t": 117333.39200000113,
      "d": 422.22243333334336,
      "v": 78
    },
    {
      "midi": 60,
      "hit": false,
      "t": 117333.39200000113,
      "d": 450.0002250000107,
      "v": 80
    },
    {
      "midi": 64,
      "hit": false,
      "t": 117333.39200000113,
      "d": 461.1113416666776,
      "v": 84
    },
    {
      "midi": 48,
      "hit": false,
      "t": 117333.39200000113,
      "d": 816.6670750000194,
      "v": 84
    },
    {
      "midi": 55,
      "hit": false,
      "t": 118000.05900000114,
      "d": 100.00005000000237,
      "v": 86
    },
    {
      "midi": 64,
      "hit": false,
      "t": 118166.72575000115,
      "d": 111.1111666666693,
      "v": 95
    },
    {
      "midi": 57,
      "hit": false,
      "t": 118500.05925000116,
      "d": 94.44449166666891,
      "v": 58
    },
    {
      "midi": 57,
      "hit": false,
      "t": 118666.72600000116,
      "d": 300.0001500000071,
      "v": 65
    },
    {
      "midi": 62,
      "hit": false,
      "t": 118666.72600000116,
      "d": 516.6669250000123,
      "v": 89
    },
    {
      "midi": 50,
      "hit": false,
      "t": 118666.72600000116,
      "d": 1227.7783916666813,
      "v": 86
    },
    {
      "midi": 57,
      "hit": false,
      "t": 119333.39300000118,
      "d": 205.55565833333822,
      "v": 70
    },
    {
      "midi": 66,
      "hit": false,
      "t": 119500.05975000118,
      "d": 55.55558333333465,
      "v": 79
    },
    {
      "midi": 62,
      "hit": false,
      "t": 119500.05975000118,
      "d": 66.66670000000158,
      "v": 89
    },
    {
      "midi": 62,
      "hit": false,
      "t": 120000.06000000118,
      "d": 311.11126666667406,
      "v": 85
    },
    {
      "midi": 55,
      "hit": false,
      "t": 120000.06000000118,
      "d": 461.1113416666776,
      "v": 76
    },
    {
      "midi": 59,
      "hit": false,
      "t": 120000.06000000118,
      "d": 477.778016666678,
      "v": 77
    },
    {
      "midi": 43,
      "hit": false,
      "t": 120000.06000000118,
      "d": 805.5559583333525,
      "v": 67
    },
    {
      "midi": 55,
      "hit": false,
      "t": 120666.72700000119,
      "d": 394.44464166667603,
      "v": 74
    },
    {
      "midi": 59,
      "hit": false,
      "t": 120666.72700000119,
      "d": 405.55575833334296,
      "v": 73
    },
    {
      "midi": 62,
      "hit": false,
      "t": 120666.72700000119,
      "d": 422.22243333334336,
      "v": 83
    },
    {
      "midi": 43,
      "hit": false,
      "t": 121000.0605000012,
      "d": 177.7778666666709,
      "v": 78
    },
    {
      "midi": 55,
      "hit": false,
      "t": 121666.7275000012,
      "d": 88.88893333333544,
      "v": 73
    },
    {
      "midi": 60,
      "hit": false,
      "t": 121666.7275000012,
      "d": 88.88893333333544,
      "v": 78
    },
    {
      "midi": 64,
      "hit": false,
      "t": 121666.7275000012,
      "d": 100.00005000000237,
      "v": 85
    },
    {
      "midi": 48,
      "hit": false,
      "t": 122000.06100000121,
      "d": 450.0002250000107,
      "v": 84
    },
    {
      "midi": 55,
      "hit": false,
      "t": 122166.72775000121,
      "d": 61.11114166666812,
      "v": 73
    },
    {
      "midi": 64,
      "hit": false,
      "t": 122166.72775000121,
      "d": 61.11114166666812,
      "v": 85
    },
    {
      "midi": 60,
      "hit": false,
      "t": 122166.72775000121,
      "d": 83.33337500000198,
      "v": 86
    },
    {
      "midi": 62,
      "hit": false,
      "t": 122666.72800000123,
      "d": 511.11136666666425,
      "v": 85
    },
    {
      "midi": 55,
      "hit": false,
      "t": 122666.72800000123,
      "d": 555.555833333332,
      "v": 73
    },
    {
      "midi": 59,
      "hit": false,
      "t": 122666.72800000123,
      "d": 588.8891833333328,
      "v": 77
    },
    {
      "midi": 43,
      "hit": false,
      "t": 122666.72800000123,
      "d": 805.5559583333379,
      "v": 71
    },
    {
      "midi": 55,
      "hit": false,
      "t": 123333.39500000123,
      "d": 338.8890583333414,
      "v": 65
    },
    {
      "midi": 62,
      "hit": false,
      "t": 123333.39500000123,
      "d": 572.2225083333469,
      "v": 75
    },
    {
      "midi": 59,
      "hit": false,
      "t": 123333.39500000123,
      "d": 600.0003000000142,
      "v": 67
    },
    {
      "midi": 43,
      "hit": false,
      "t": 123666.72850000123,
      "d": 938.8893583333556,
      "v": 80
    },
    {
      "midi": 55,
      "hit": false,
      "t": 123833.39525000124,
      "d": 155.55563333333703,
      "v": 76
    },
    {
      "midi": 57,
      "hit": false,
      "t": 124000.06200000124,
      "d": 94.44449166666891,
      "v": 84
    },
    {
      "midi": 59,
      "hit": false,
      "t": 124166.72875000125,
      "d": 116.66672500000277,
      "v": 81
    },
    {
      "midi": 62,
      "hit": false,
      "t": 124333.39550000125,
      "d": 166.66675000000396,
      "v": 83
    },
    {
      "midi": 55,
      "hit": false,
      "t": 124500.06225000125,
      "d": 83.33337500000198,
      "v": 78
    },
    {
      "midi": 59,
      "hit": false,
      "t": 124666.72900000126,
      "d": 194.44454166667128,
      "v": 103
    },
    {
      "midi": 62,
      "hit": false,
      "t": 124666.72900000126,
      "d": 205.55565833333822,
      "v": 105
    },
    {
      "midi": 62,
      "hit": false,
      "t": 125333.39600000126,
      "d": 350.0001750000083,
      "v": 91
    },
    {
      "midi": 54,
      "hit": false,
      "t": 125333.39600000126,
      "d": 355.5557333333418,
      "v": 54
    },
    {
      "midi": 57,
      "hit": false,
      "t": 125333.39600000126,
      "d": 394.44464166667603,
      "v": 83
    },
    {
      "midi": 47,
      "hit": false,
      "t": 125333.39600000126,
      "d": 783.3337250000186,
      "v": 80
    },
    {
      "midi": 57,
      "hit": false,
      "t": 126000.06300000128,
      "d": 772.2226083333517,
      "v": 58
    },
    {
      "midi": 62,
      "hit": false,
      "t": 126000.06300000128,
      "d": 916.6671250000218,
      "v": 85
    },
    {
      "midi": 47,
      "hit": false,
      "t": 126333.39650000128,
      "d": 161.1111916666705,
      "v": 84
    },
    {
      "midi": 47,
      "hit": false,
      "t": 126666.73000000129,
      "d": 905.5560083333548,
      "v": 85
    },
    {
      "midi": 54,
      "hit": false,
      "t": 127000.0635000013,
      "d": 77.77781666666851,
      "v": 53
    },
    {
      "midi": 54,
      "hit": false,
      "t": 127333.3970000013,
      "d": 83.33337500000198,
      "v": 61
    },
    {
      "midi": 54,
      "hit": false,
      "t": 127500.06375000131,
      "d": 38.88890833333426,
      "v": 69
    },
    {
      "midi": 57,
      "hit": false,
      "t": 127500.06375000131,
      "d": 66.66670000000158,
      "v": 80
    },
    {
      "midi": 62,
      "hit": false,
      "t": 127500.06375000131,
      "d": 72.22225833333505,
      "v": 89
    },
    {
      "midi": 55,
      "hit": false,
      "t": 128000.06400000132,
      "d": 72.22225833333505,
      "v": 65
    },
    {
      "midi": 60,
      "hit": false,
      "t": 128000.06400000132,
      "d": 72.22225833333505,
      "v": 64
    },
    {
      "midi": 64,
      "hit": false,
      "t": 128000.06400000132,
      "d": 94.44449166666891,
      "v": 66
    },
    {
      "midi": 48,
      "hit": false,
      "t": 128000.06400000132,
      "d": 805.5559583333379,
      "v": 82
    },
    {
      "midi": 55,
      "hit": false,
      "t": 128666.73100000132,
      "d": 72.22225833333505,
      "v": 73
    },
    {
      "midi": 55,
      "hit": false,
      "t": 128833.39775000133,
      "d": 122.22228333333624,
      "v": 80
    },
    {
      "midi": 64,
      "hit": false,
      "t": 128833.39775000133,
      "d": 138.88895833333663,
      "v": 89
    },
    {
      "midi": 60,
      "hit": false,
      "t": 128833.39775000133,
      "d": 155.55563333333703,
      "v": 88
    },
    {
      "midi": 55,
      "hit": false,
      "t": 129166.73125000134,
      "d": 72.22225833333505,
      "v": 58
    },
    {
      "midi": 55,
      "hit": false,
      "t": 129333.39800000134,
      "d": 200.00010000000475,
      "v": 84
    },
    {
      "midi": 64,
      "hit": false,
      "t": 129333.39800000134,
      "d": 361.11129166667524,
      "v": 82
    },
    {
      "midi": 60,
      "hit": false,
      "t": 129333.39800000134,
      "d": 416.6668750000099,
      "v": 81
    },
    {
      "midi": 50,
      "hit": false,
      "t": 129333.39800000134,
      "d": 1122.22278333336,
      "v": 84
    },
    {
      "midi": 55,
      "hit": false,
      "t": 129666.73150000135,
      "d": 144.4445166666701,
      "v": 44
    },
    {
      "midi": 55,
      "hit": false,
      "t": 130000.06500000136,
      "d": 55.55558333333465,
      "v": 77
    },
    {
      "midi": 64,
      "hit": false,
      "t": 130166.73175000136,
      "d": 44.44446666666772,
      "v": 78
    },
    {
      "midi": 60,
      "hit": false,
      "t": 130166.73175000136,
      "d": 66.66670000000158,
      "v": 93
    },
    {
      "midi": 62,
      "hit": false,
      "t": 130666.73200000137,
      "d": 388.889083333328,
      "v": 73
    },
    {
      "midi": 55,
      "hit": false,
      "t": 130666.73200000137,
      "d": 427.7779916666477,
      "v": 70
    },
    {
      "midi": 59,
      "hit": false,
      "t": 130666.73200000137,
      "d": 511.11136666663515,
      "v": 73
    },
    {
      "midi": 43,
      "hit": false,
      "t": 130666.73200000137,
      "d": 716.6670249999588,
      "v": 73
    },
    {
      "midi": 55,
      "hit": false,
      "t": 131333.39900000134,
      "d": 366.6668499999796,
      "v": 73
    },
    {
      "midi": 62,
      "hit": false,
      "t": 131333.39900000134,
      "d": 388.88908333331347,
      "v": 82
    },
    {
      "midi": 59,
      "hit": false,
      "t": 131333.39900000134,
      "d": 472.2224583333009,
      "v": 75
    },
    {
      "midi": 43,
      "hit": false,
      "t": 131666.73250000132,
      "d": 633.3336499999277,
      "v": 81
    },
    {
      "midi": 55,
      "hit": false,
      "t": 131833.3992500013,
      "d": 127.77784166665515,
      "v": 79
    },
    {
      "midi": 57,
      "hit": false,
      "t": 132000.06600000127,
      "d": 72.2222583333205,
      "v": 89
    },
    {
      "midi": 62,
      "hit": false,
      "t": 132166.73275000125,
      "d": 322.222383333341,
      "v": 117
    },
    {
      "midi": 43,
      "hit": false,
      "t": 132500.06625000125,
      "d": 250.00012499999139,
      "v": 65
    },
    {
      "midi": 59,
      "hit": false,
      "t": 132666.73300000126,
      "d": 61.111141666653566,
      "v": 71
    },
    {
      "midi": 55,
      "hit": false,
      "t": 132666.73300000126,
      "d": 72.2222583333205,
      "v": 80
    },
    {
      "midi": 62,
      "hit": false,
      "t": 132666.73300000126,
      "d": 88.88893333330634,
      "v": 90
    },
    {
      "midi": 55,
      "hit": false,
      "t": 132833.39975000123,
      "d": 55.55558333333465,
      "v": 74
    },
    {
      "midi": 59,
      "hit": false,
      "t": 132833.39975000123,
      "d": 72.2222583333205,
      "v": 80
    },
    {
      "midi": 62,
      "hit": false,
      "t": 133333.40000000122,
      "d": 383.33352499999455,
      "v": 85
    },
    {
      "midi": 57,
      "hit": false,
      "t": 133333.40000000122,
      "d": 438.8891083333292,
      "v": 85
    },
    {
      "midi": 66,
      "hit": false,
      "t": 133333.40000000122,
      "d": 455.55578333331505,
      "v": 89
    },
    {
      "midi": 50,
      "hit": false,
      "t": 133333.40000000122,
      "d": 722.2225833333214,
      "v": 80
    },
    {
      "midi": 62,
      "hit": false,
      "t": 134000.0670000012,
      "d": 361.1112916666607,
      "v": 83
    },
    {
      "midi": 57,
      "hit": false,
      "t": 134000.0670000012,
      "d": 366.6668499999796,
      "v": 78
    },
    {
      "midi": 66,
      "hit": false,
      "t": 134000.0670000012,
      "d": 372.2224083332985,
      "v": 80
    },
    {
      "midi": 50,
      "hit": false,
      "t": 134333.4005000012,
      "d": 650.0003249999136,
      "v": 75
    },
    {
      "midi": 57,
      "hit": false,
      "t": 134500.06725000116,
      "d": 94.44449166665436,
      "v": 65
    },
    {
      "midi": 57,
      "hit": false,
      "t": 134666.73400000113,
      "d": 133.33340000000317,
      "v": 66
    },
    {
      "midi": 57,
      "hit": false,
      "t": 135000.0675000011,
      "d": 133.33340000000317,
      "v": 59
    },
    {
      "midi": 66,
      "hit": false,
      "t": 135000.0675000011,
      "d": 161.11119166665594,
      "v": 73
    },
    {
      "midi": 62,
      "hit": false,
      "t": 135000.0675000011,
      "d": 183.3334249999607,
      "v": 77
    },
    {
      "midi": 50,
      "hit": false,
      "t": 135166.7342500011,
      "d": 177.77786666664178,
      "v": 88
    },
    {
      "midi": 57,
      "hit": false,
      "t": 135333.40100000106,
      "d": 77.77781666666851,
      "v": 70
    },
    {
      "midi": 66,
      "hit": false,
      "t": 135500.06775000106,
      "d": 61.111141666653566,
      "v": 92
    },
    {
      "midi": 62,
      "hit": false,
      "t": 135500.06775000106,
      "d": 72.2222583333205,
      "v": 97
    },
    {
      "midi": 54,
      "hit": false,
      "t": 136000.06800000105,
      "d": 150.000074999989,
      "v": 77
    },
    {
      "midi": 61,
      "hit": false,
      "t": 136000.06800000105,
      "d": 333.3334999999788,
      "v": 90
    },
    {
      "midi": 57,
      "hit": false,
      "t": 136000.06800000105,
      "d": 466.666899999982,
      "v": 92
    },
    {
      "midi": 42,
      "hit": false,
      "t": 136000.06800000105,
      "d": 1033.3338499999663,
      "v": 71
    },
    {
      "midi": 61,
      "hit": false,
      "t": 136666.73500000103,
      "d": 111.1111666666693,
      "v": 79
    },
    {
      "midi": 57,
      "hit": false,
      "t": 136666.73500000103,
      "d": 183.3334249999898,
      "v": 86
    },
    {
      "midi": 54,
      "hit": false,
      "t": 136833.40175000104,
      "d": 94.44449166665436,
      "v": 69
    },
    {
      "midi": 52,
      "hit": false,
      "t": 137333.40200000102,
      "d": 216.6667749999906,
      "v": 69
    },
    {
      "midi": 59,
      "hit": false,
      "t": 137333.40200000102,
      "d": 405.5557583333284,
      "v": 82
    },
    {
      "midi": 55,
      "hit": false,
      "t": 137333.40200000102,
      "d": 427.7779916666623,
      "v": 83
    },
    {
      "midi": 40,
      "hit": false,
      "t": 137333.40200000102,
      "d": 1044.4449666666333,
      "v": 62
    },
    {
      "midi": 52,
      "hit": false,
      "t": 138000.069000001,
      "d": 77.77781666666851,
      "v": 72
    },
    {
      "midi": 55,
      "hit": false,
      "t": 138166.735750001,
      "d": 72.2222583333205,
      "v": 96
    },
    {
      "midi": 62,
      "hit": false,
      "t": 138666.736000001,
      "d": 405.5557583333284,
      "v": 91
    },
    {
      "midi": 55,
      "hit": false,
      "t": 138666.736000001,
      "d": 427.7779916666623,
      "v": 75
    },
    {
      "midi": 59,
      "hit": false,
      "t": 138666.736000001,
      "d": 461.11134166666307,
      "v": 79
    },
    {
      "midi": 43,
      "hit": false,
      "t": 138666.736000001,
      "d": 672.2225583333056,
      "v": 73
    },
    {
      "midi": 62,
      "hit": false,
      "t": 139333.40300000098,
      "d": 266.66679999997723,
      "v": 99
    },
    {
      "midi": 55,
      "hit": false,
      "t": 139500.06975000096,
      "d": 111.1111666666693,
      "v": 85
    },
    {
      "midi": 59,
      "hit": false,
      "t": 139666.73650000096,
      "d": 61.111141666653566,
      "v": 84
    },
    {
      "midi": 55,
      "hit": false,
      "t": 139833.40325000093,
      "d": 66.66669999997248,
      "v": 63
    },
    {
      "midi": 55,
      "hit": false,
      "t": 140000.0700000009,
      "d": 166.66675000000396,
      "v": 73
    },
    {
      "midi": 60,
      "hit": false,
      "t": 140000.0700000009,
      "d": 250.00012499999139,
      "v": 78
    },
    {
      "midi": 64,
      "hit": false,
      "t": 140000.0700000009,
      "d": 288.8890333333111,
      "v": 85
    },
    {
      "midi": 48,
      "hit": false,
      "t": 140000.0700000009,
      "d": 944.44491666666,
      "v": 78
    },
    {
      "midi": 55,
      "hit": false,
      "t": 140333.4035000009,
      "d": 77.77781666666851,
      "v": 52
    },
    {
      "midi": 60,
      "hit": false,
      "t": 140666.7370000009,
      "d": 155.55563333333703,
      "v": 83
    },
    {
      "midi": 64,
      "hit": false,
      "t": 140666.7370000009,
      "d": 177.7778666666709,
      "v": 80
    },
    {
      "midi": 55,
      "hit": false,
      "t": 140833.4037500009,
      "d": 111.1111666666693,
      "v": 78
    },
    {
      "midi": 60,
      "hit": false,
      "t": 141000.0705000009,
      "d": 27.777791666652774,
      "v": 65
    },
    {
      "midi": 57,
      "hit": false,
      "t": 141333.40400000088,
      "d": 205.55565833332366,
      "v": 68
    },
    {
      "midi": 66,
      "hit": false,
      "t": 141333.40400000088,
      "d": 272.22235833332525,
      "v": 75
    },
    {
      "midi": 62,
      "hit": false,
      "t": 141333.40400000088,
      "d": 322.2223833333119,
      "v": 85
    },
    {
      "midi": 50,
      "hit": false,
      "t": 141333.40400000088,
      "d": 811.1115166666568,
      "v": 78
    },
    {
      "midi": 57,
      "hit": false,
      "t": 141666.73750000086,
      "d": 122.22228333333624,
      "v": 32
    },
    {
      "midi": 62,
      "hit": false,
      "t": 142000.07100000087,
      "d": 344.44461666667485,
      "v": 79
    },
    {
      "midi": 66,
      "hit": false,
      "t": 142000.07100000087,
      "d": 344.44461666667485,
      "v": 76
    },
    {
      "midi": 57,
      "hit": false,
      "t": 142000.07100000087,
      "d": 372.2224083333276,
      "v": 75
    },
    {
      "midi": 50,
      "hit": false,
      "t": 142333.40450000088,
      "d": 788.8892833332939,
      "v": 80
    },
    {
      "midi": 57,
      "hit": false,
      "t": 142500.07125000085,
      "d": 338.88905833332683,
      "v": 70
    },
    {
      "midi": 66,
      "hit": false,
      "t": 142666.73800000086,
      "d": 255.5556833333103,
      "v": 121
    },
    {
      "midi": 64,
      "hit": false,
      "t": 142833.40475000086,
      "d": 305.55570833329693,
      "v": 113
    },
    {
      "midi": 62,
      "hit": false,
      "t": 143000.07150000083,
      "d": 272.22235833329614,
      "v": 92
    },
    {
      "midi": 57,
      "hit": false,
      "t": 143166.7382500008,
      "d": 183.3334249999607,
      "v": 85
    },
    {
      "midi": 64,
      "hit": false,
      "t": 143166.7382500008,
      "d": 227.77789166662842,
      "v": 41
    },
    {
      "midi": 50,
      "hit": false,
      "t": 143333.40500000078,
      "d": 316.66682499996386,
      "v": 80
    },
    {
      "midi": 57,
      "hit": false,
      "t": 143500.07175000076,
      "d": 127.77784166665515,
      "v": 73
    },
    {
      "midi": 69,
      "hit": false,
      "t": 143666.73850000073,
      "d": 150.000074999989,
      "v": 85
    },
    {
      "midi": 57,
      "hit": false,
      "t": 143833.4052500007,
      "d": 122.22228333330713,
      "v": 77
    },
    {
      "midi": 69,
      "hit": false,
      "t": 144000.07200000068,
      "d": 400.0002000000095,
      "v": 83
    },
    {
      "midi": 50,
      "hit": false,
      "t": 144000.07200000068,
      "d": 733.3336999999883,
      "v": 83
    },
    {
      "midi": 57,
      "hit": false,
      "t": 144333.4055000007,
      "d": 127.77784166665515,
      "v": 67
    },
    {
      "midi": 62,
      "hit": false,
      "t": 144666.73900000067,
      "d": 350.00017499999376,
      "v": 78
    },
    {
      "midi": 66,
      "hit": false,
      "t": 144666.73900000067,
      "d": 400.0001999999804,
      "v": 66
    },
    {
      "midi": 69,
      "hit": false,
      "t": 144666.73900000067,
      "d": 505.5558083333017,
      "v": 60
    },
    {
      "midi": 50,
      "hit": false,
      "t": 145000.07250000068,
      "d": 633.3336499999277,
      "v": 85
    },
    {
      "midi": 57,
      "hit": false,
      "t": 145166.73925000065,
      "d": 361.1112916666316,
      "v": 76
    },
    {
      "midi": 69,
      "hit": false,
      "t": 145333.40600000063,
      "d": 33.33335000000079,
      "v": 58
    },
    {
      "midi": 66,
      "hit": false,
      "t": 145333.40600000063,
      "d": 300.000149999978,
      "v": 124
    },
    {
      "midi": 64,
      "hit": false,
      "t": 145500.07275000063,
      "d": 194.44454166662763,
      "v": 95
    },
    {
      "midi": 62,
      "hit": false,
      "t": 145666.7395000006,
      "d": 272.22235833329614,
      "v": 93
    },
    {
      "midi": 50,
      "hit": false,
      "t": 145833.40625000058,
      "d": 222.2223333333095,
      "v": 88
    },
    {
      "midi": 62,
      "hit": false,
      "t": 146166.73975000056,
      "d": 72.2222583333205,
      "v": 93
    },
    {
      "midi": 66,
      "hit": false,
      "t": 146166.73975000056,
      "d": 77.77781666663941,
      "v": 89
    },
    {
      "midi": 54,
      "hit": false,
      "t": 146666.74000000051,
      "d": 116.66672499998822,
      "v": 79
    },
    {
      "midi": 61,
      "hit": false,
      "t": 146666.74000000051,
      "d": 194.44454166665673,
      "v": 92
    },
    {
      "midi": 57,
      "hit": false,
      "t": 146666.74000000051,
      "d": 283.3334749999922,
      "v": 91
    },
    {
      "midi": 42,
      "hit": false,
      "t": 146666.74000000051,
      "d": 1094.444991666649,
      "v": 67
    },
    {
      "midi": 61,
      "hit": false,
      "t": 147333.4070000005,
      "d": 27.777791666652774,
      "v": 79
    },
    {
      "midi": 57,
      "hit": false,
      "t": 147333.4070000005,
      "d": 50.000024999986636,
      "v": 74
    },
    {
      "midi": 40,
      "hit": false,
      "t": 147833.40725000048,
      "d": 1355.5562333332782,
      "v": 75
    },
    {
      "midi": 52,
      "hit": false,
      "t": 148000.07400000046,
      "d": 216.6667749999906,
      "v": 71
    },
    {
      "midi": 59,
      "hit": false,
      "t": 148000.07400000046,
      "d": 272.22235833332525,
      "v": 85
    },
    {
      "midi": 55,
      "hit": false,
      "t": 148000.07400000046,
      "d": 466.666899999982,
      "v": 89
    },
    {
      "midi": 59,
      "hit": false,
      "t": 148833.40775000045,
      "d": 50.000024999986636,
      "v": 75
    },
    {
      "midi": 55,
      "hit": false,
      "t": 148833.40775000045,
      "d": 61.111141666653566,
      "v": 85
    },
    {
      "midi": 62,
      "hit": false,
      "t": 149333.4080000004,
      "d": 350.00017499999376,
      "v": 75
    },
    {
      "midi": 59,
      "hit": false,
      "t": 149333.4080000004,
      "d": 394.4446416666615,
      "v": 68
    },
    {
      "midi": 55,
      "hit": false,
      "t": 149333.4080000004,
      "d": 411.1113166666473,
      "v": 85
    },
    {
      "midi": 43,
      "hit": false,
      "t": 149333.4080000004,
      "d": 688.8892333333206,
      "v": 75
    },
    {
      "midi": 59,
      "hit": false,
      "t": 150000.0750000004,
      "d": 83.33337499998743,
      "v": 78
    },
    {
      "midi": 62,
      "hit": false,
      "t": 150000.0750000004,
      "d": 161.11119166665594,
      "v": 89
    },
    {
      "midi": 55,
      "hit": false,
      "t": 150166.74175000036,
      "d": 83.33337499998743,
      "v": 75
    },
    {
      "midi": 59,
      "hit": false,
      "t": 150333.40850000034,
      "d": 22.22223333333386,
      "v": 53
    },
    {
      "midi": 55,
      "hit": false,
      "t": 150666.74200000032,
      "d": 177.7778666666709,
      "v": 73
    },
    {
      "midi": 60,
      "hit": false,
      "t": 150666.74200000032,
      "d": 222.2223333333386,
      "v": 80
    },
    {
      "midi": 64,
      "hit": false,
      "t": 150666.74200000032,
      "d": 222.2223333333386,
      "v": 81
    },
    {
      "midi": 48,
      "hit": false,
      "t": 150666.74200000032,
      "d": 1172.2228083332884,
      "v": 70
    },
    {
      "midi": 60,
      "hit": false,
      "t": 151333.40900000033,
      "d": 161.11119166665594,
      "v": 77
    },
    {
      "midi": 64,
      "hit": false,
      "t": 151333.40900000033,
      "d": 161.11119166665594,
      "v": 83
    },
    {
      "midi": 55,
      "hit": false,
      "t": 151500.0757500003,
      "d": 72.2222583333205,
      "v": 78
    },
    {
      "midi": 66,
      "hit": false,
      "t": 152000.07600000026,
      "d": 88.88893333333544,
      "v": 76
    },
    {
      "midi": 62,
      "hit": false,
      "t": 152000.07600000026,
      "d": 100.00005000000237,
      "v": 78
    },
    {
      "midi": 57,
      "hit": false,
      "t": 152000.07600000026,
      "d": 133.33340000000317,
      "v": 75
    },
    {
      "midi": 50,
      "hit": false,
      "t": 152000.07600000026,
      "d": 2161.1121916666743,
      "v": 78
    },
    {
      "midi": 62,
      "hit": false,
      "t": 152333.40950000027,
      "d": 122.22228333333624,
      "v": 93
    },
    {
      "midi": 57,
      "hit": false,
      "t": 152833.40975000028,
      "d": 138.88895833332208,
      "v": 67
    },
    {
      "midi": 66,
      "hit": false,
      "t": 152833.40975000028,
      "d": 316.66682499999297,
      "v": 59
    },
    {
      "midi": 62,
      "hit": false,
      "t": 152833.40975000028,
      "d": 327.7779416666599,
      "v": 56
    },
    {
      "midi": 57,
      "hit": false,
      "t": 153333.41000000027,
      "d": 277.77791666667326,
      "v": 74
    },
    {
      "midi": 66,
      "hit": false,
      "t": 153333.41000000027,
      "d": 288.8890333333402,
      "v": 83
    },
    {
      "midi": 62,
      "hit": false,
      "t": 153333.41000000027,
      "d": 300.0001500000071,
      "v": 91
    },
    {
      "midi": 48,
      "hit": false,
      "t": 154666.74400000027,
      "d": 366.6668500000087,
      "v": 78
    },
    {
      "midi": 36,
      "hit": false,
      "t": 154666.74400000027,
      "d": 416.66687499999534,
      "v": 89
    },
    {
      "midi": 60,
      "hit": false,
      "t": 154666.74400000027,
      "d": 538.8891583333316,
      "v": 102
    },
    {
      "midi": 64,
      "hit": false,
      "t": 154666.74400000027,
      "d": 605.5558583333332,
      "v": 99
    },
    {
      "midi": 67,
      "hit": false,
      "t": 154666.74400000027,
      "d": 861.1115416666435,
      "v": 86
    },
    {
      "midi": 47,
      "hit": false,
      "t": 155333.41100000025,
      "d": 216.6667749999906,
      "v": 73
    },
    {
      "midi": 35,
      "hit": false,
      "t": 155333.41100000025,
      "d": 222.2223333333095,
      "v": 84
    },
    {
      "midi": 62,
      "hit": false,
      "t": 155333.41100000025,
      "d": 222.2223333333095,
      "v": 109
    },
    {
      "midi": 59,
      "hit": false,
      "t": 155333.41100000025,
      "d": 233.33344999997644,
      "v": 97
    },
    {
      "midi": 60,
      "hit": false,
      "t": 156000.07800000024,
      "d": 94.44449166665436,
      "v": 84
    },
    {
      "midi": 33,
      "hit": false,
      "t": 156000.07800000024,
      "d": 100.00004999997327,
      "v": 83
    },
    {
      "midi": 57,
      "hit": false,
      "t": 156000.07800000024,
      "d": 100.00004999997327,
      "v": 85
    },
    {
      "midi": 64,
      "hit": false,
      "t": 156000.07800000024,
      "d": 105.55560833329218,
      "v": 82
    },
    {
      "midi": 45,
      "hit": false,
      "t": 156000.07800000024,
      "d": 144.4445166666119,
      "v": 70
    },
    {
      "midi": 57,
      "hit": false,
      "t": 156666.74500000017,
      "d": 83.33337499998743,
      "v": 92
    },
    {
      "midi": 66,
      "hit": false,
      "t": 156666.74500000017,
      "d": 83.33337499998743,
      "v": 96
    },
    {
      "midi": 62,
      "hit": false,
      "t": 156666.74500000017,
      "d": 88.88893333330634,
      "v": 95
    },
    {
      "midi": 38,
      "hit": false,
      "t": 156666.74500000017,
      "d": 111.1111666666402,
      "v": 90
    },
    {
      "midi": 50,
      "hit": false,
      "t": 156666.74500000017,
      "d": 111.1111666666402,
      "v": 77
    },
    {
      "midi": 55,
      "hit": false,
      "t": 157333.41200000013,
      "d": 205.55565833332366,
      "v": 90
    },
    {
      "midi": 59,
      "hit": false,
      "t": 157333.41200000013,
      "d": 211.11121666664258,
      "v": 92
    },
    {
      "midi": 62,
      "hit": false,
      "t": 157333.41200000013,
      "d": 211.11121666664258,
      "v": 93
    },
    {
      "midi": 43,
      "hit": false,
      "t": 157333.41200000013,
      "d": 794.4448416666128,
      "v": 70
    },
    {
      "midi": 31,
      "hit": false,
      "t": 157333.41200000013,
      "d": 2205.5566583331965,
      "v": 88
    },
    {
      "midi": 55,
      "hit": false,
      "t": 158000.0790000001,
      "d": 116.66672499998822,
      "v": 96
    },
    {
      "midi": 59,
      "hit": false,
      "t": 158000.0790000001,
      "d": 122.22228333330713,
      "v": 97
    },
    {
      "midi": 62,
      "hit": false,
      "t": 158000.0790000001,
      "d": 327.7779416666308,
      "v": 88
    },
    {
      "midi": 43,
      "hit": false,
      "t": 158333.41250000006,
      "d": 472.22245833333,
      "v": 77
    },
    {
      "midi": 55,
      "hit": false,
      "t": 158500.07925000007,
      "d": 88.88893333333544,
      "v": 89
    },
    {
      "midi": 57,
      "hit": false,
      "t": 158666.74600000007,
      "d": 72.2222583333205,
      "v": 111
    },
    {
      "midi": 62,
      "hit": false,
      "t": 158833.41275000005,
      "d": 277.77791666667326,
      "v": 105
    },
    {
      "midi": 43,
      "hit": false,
      "t": 159000.07950000005,
      "d": 344.44461666664574,
      "v": 83
    },
    {
      "midi": 55,
      "hit": false,
      "t": 159166.74625000005,
      "d": 83.33337499998743,
      "v": 75
    },
    {
      "midi": 55,
      "hit": false,
      "t": 159333.41300000003,
      "d": 27.777791666652774,
      "v": 86
    },
    {
      "midi": 57,
      "hit": false,
      "t": 159333.41300000003,
      "d": 100.00004999997327,
      "v": 119
    },
    {
      "midi": 62,
      "hit": false,
      "t": 159333.41300000003,
      "d": 105.55560833329218,
      "v": 109
    },
    {
      "midi": 43,
      "hit": false,
      "t": 159666.74649999998,
      "d": 105.55560833332129,
      "v": 95
    },
    {
      "midi": 52,
      "hit": false,
      "t": 159833.41324999995,
      "d": 61.111141666653566,
      "v": 57
    },
    {
      "midi": 52,
      "hit": false,
      "t": 160000.07999999993,
      "d": 100.00004999997327,
      "v": 84
    },
    {
      "midi": 55,
      "hit": false,
      "t": 160000.07999999993,
      "d": 177.77786666664178,
      "v": 109
    },
    {
      "midi": 60,
      "hit": false,
      "t": 160000.07999999993,
      "d": 188.88898333330872,
      "v": 105
    },
    {
      "midi": 33,
      "hit": false,
      "t": 160000.07999999993,
      "d": 244.44456666664337,
      "v": 95
    },
    {
      "midi": 45,
      "hit": false,
      "t": 160000.07999999993,
      "d": 322.2223833333119,
      "v": 71
    },
    {
      "midi": 52,
      "hit": false,
      "t": 160666.74699999992,
      "d": 66.66670000000158,
      "v": 83
    },
    {
      "midi": 55,
      "hit": false,
      "t": 160666.74699999992,
      "d": 94.44449166665436,
      "v": 99
    },
    {
      "midi": 60,
      "hit": false,
      "t": 160666.74699999992,
      "d": 94.44449166665436,
      "v": 91
    },
    {
      "midi": 66,
      "hit": false,
      "t": 161333.4139999999,
      "d": 361.1112916666607,
      "v": 98
    },
    {
      "midi": 62,
      "hit": false,
      "t": 161333.4139999999,
      "d": 394.4446416666615,
      "v": 93
    },
    {
      "midi": 59,
      "hit": false,
      "t": 161333.4139999999,
      "d": 455.55578333331505,
      "v": 82
    },
    {
      "midi": 35,
      "hit": false,
      "t": 161333.4139999999,
      "d": 538.8891583333025,
      "v": 79
    },
    {
      "midi": 47,
      "hit": false,
      "t": 161333.4139999999,
      "d": 644.4447666666238,
      "v": 67
    },
    {
      "midi": 62,
      "hit": false,
      "t": 162000.08099999986,
      "d": 77.77781666666851,
      "v": 99
    },
    {
      "midi": 59,
      "hit": false,
      "t": 162000.08099999986,
      "d": 105.55560833332129,
      "v": 95
    },
    {
      "midi": 66,
      "hit": false,
      "t": 162000.08099999986,
      "d": 122.22228333330713,
      "v": 106
    },
    {
      "midi": 59,
      "hit": false,
      "t": 162333.41449999984,
      "d": 166.66675000000396,
      "v": 70
    },
    {
      "midi": 59,
      "hit": false,
      "t": 162666.74799999985,
      "d": 138.88895833332208,
      "v": 81
    },
    {
      "midi": 62,
      "hit": false,
      "t": 162666.74799999985,
      "d": 138.88895833332208,
      "v": 92
    },
    {
      "midi": 67,
      "hit": false,
      "t": 162666.74799999985,
      "d": 138.88895833332208,
      "v": 95
    },
    {
      "midi": 52,
      "hit": false,
      "t": 162666.74799999985,
      "d": 683.3336749999726,
      "v": 73
    },
    {
      "midi": 40,
      "hit": false,
      "t": 162666.74799999985,
      "d": 1838.889808333217,
      "v": 88
    },
    {
      "midi": 62,
      "hit": false,
      "t": 163333.41499999983,
      "d": 66.66669999997248,
      "v": 97
    },
    {
      "midi": 67,
      "hit": false,
      "t": 163333.41499999983,
      "d": 88.88893333330634,
      "v": 86
    },
    {
      "midi": 59,
      "hit": false,
      "t": 163333.41499999983,
      "d": 94.44449166662525,
      "v": 102
    },
    {
      "midi": 52,
      "hit": false,
      "t": 163666.74849999978,
      "d": 344.44461666667485,
      "v": 95
    },
    {
      "midi": 62,
      "hit": false,
      "t": 163833.4152499998,
      "d": 44.44446666666772,
      "v": 69
    },
    {
      "midi": 59,
      "hit": false,
      "t": 163833.4152499998,
      "d": 111.1111666666693,
      "v": 99
    },
    {
      "midi": 66,
      "hit": false,
      "t": 164000.0819999998,
      "d": 83.33337499998743,
      "v": 127
    },
    {
      "midi": 67,
      "hit": false,
      "t": 164166.74874999977,
      "d": 205.55565833332366,
      "v": 88
    },
    {
      "midi": 52,
      "hit": false,
      "t": 164333.41549999977,
      "d": 133.33339999997406,
      "v": 96
    },
    {
      "midi": 59,
      "hit": false,
      "t": 164500.08224999974,
      "d": 105.55560833332129,
      "v": 78
    },
    {
      "midi": 62,
      "hit": false,
      "t": 164666.74899999972,
      "d": 127.77784166665515,
      "v": 109
    },
    {
      "midi": 67,
      "hit": false,
      "t": 164666.74899999972,
      "d": 144.444516666641,
      "v": 99
    },
    {
      "midi": 60,
      "hit": false,
      "t": 165000.0824999997,
      "d": 172.22230833332287,
      "v": 74
    },
    {
      "midi": 36,
      "hit": false,
      "t": 165333.41599999968,
      "d": 172.22230833332287,
      "v": 92
    },
    {
      "midi": 48,
      "hit": false,
      "t": 165333.41599999968,
      "d": 177.77786666664178,
      "v": 71
    },
    {
      "midi": 60,
      "hit": false,
      "t": 165333.41599999968,
      "d": 338.8890583332977,
      "v": 92
    },
    {
      "midi": 64,
      "hit": false,
      "t": 165333.41599999968,
      "d": 461.11134166663396,
      "v": 97
    },
    {
      "midi": 67,
      "hit": false,
      "t": 165333.41599999968,
      "d": 605.5558583333041,
      "v": 105
    },
    {
      "midi": 62,
      "hit": false,
      "t": 166000.08299999963,
      "d": 144.444516666641,
      "v": 103
    },
    {
      "midi": 59,
      "hit": false,
      "t": 166000.08299999963,
      "d": 155.55563333330792,
      "v": 95
    },
    {
      "midi": 35,
      "hit": false,
      "t": 166000.08299999963,
      "d": 161.11119166662684,
      "v": 85
    },
    {
      "midi": 67,
      "hit": false,
      "t": 166000.08299999963,
      "d": 166.66674999994575,
      "v": 92
    },
    {
      "midi": 47,
      "hit": false,
      "t": 166000.08299999963,
      "d": 177.77786666661268,
      "v": 69
    },
    {
      "midi": 33,
      "hit": false,
      "t": 166666.74999999956,
      "d": 94.44449166665436,
      "v": 80
    },
    {
      "midi": 57,
      "hit": false,
      "t": 166666.74999999956,
      "d": 100.00004999997327,
      "v": 85
    },
    {
      "midi": 60,
      "hit": false,
      "t": 166666.74999999956,
      "d": 100.00004999997327,
      "v": 96
    },
    {
      "midi": 64,
      "hit": false,
      "t": 166666.74999999956,
      "d": 105.55560833329218,
      "v": 91
    },
    {
      "midi": 45,
      "hit": false,
      "t": 166666.74999999956,
      "d": 155.55563333327882,
      "v": 67
    },
    {
      "midi": 66,
      "hit": false,
      "t": 167333.4169999995,
      "d": 72.2222583333205,
      "v": 84
    },
    {
      "midi": 62,
      "hit": false,
      "t": 167333.4169999995,
      "d": 94.44449166665436,
      "v": 95
    },
    {
      "midi": 57,
      "hit": false,
      "t": 167333.4169999995,
      "d": 100.00004999997327,
      "v": 85
    },
    {
      "midi": 50,
      "hit": false,
      "t": 167333.4169999995,
      "d": 111.1111666666402,
      "v": 73
    },
    {
      "midi": 38,
      "hit": false,
      "t": 167333.4169999995,
      "d": 127.77784166662605,
      "v": 93
    },
    {
      "midi": 55,
      "hit": false,
      "t": 167666.75049999944,
      "d": 44.44446666666772,
      "v": 48
    },
    {
      "midi": 55,
      "hit": false,
      "t": 168000.08399999945,
      "d": 211.11121666667168,
      "v": 92
    },
    {
      "midi": 59,
      "hit": false,
      "t": 168000.08399999945,
      "d": 238.88900833332445,
      "v": 91
    },
    {
      "midi": 62,
      "hit": false,
      "t": 168000.08399999945,
      "d": 238.88900833332445,
      "v": 97
    },
    {
      "midi": 43,
      "hit": false,
      "t": 168000.08399999945,
      "d": 705.5559083332773,
      "v": 83
    },
    {
      "midi": 31,
      "hit": false,
      "t": 168000.08399999945,
      "d": 2250.001124999835,
      "v": 93
    },
    {
      "midi": 59,
      "hit": false,
      "t": 168333.41749999943,
      "d": 72.2222583333205,
      "v": 39
    },
    {
      "midi": 55,
      "hit": false,
      "t": 168333.41749999943,
      "d": 100.00004999997327,
      "v": 56
    },
    {
      "midi": 55,
      "hit": false,
      "t": 168666.7509999994,
      "d": 138.88895833332208,
      "v": 99
    },
    {
      "midi": 62,
      "hit": false,
      "t": 168666.7509999994,
      "d": 383.33352499993634,
      "v": 99
    },
    {
      "midi": 59,
      "hit": false,
      "t": 168666.7509999994,
      "d": 433.333549999923,
      "v": 97
    },
    {
      "midi": 55,
      "hit": false,
      "t": 168833.41774999938,
      "d": 116.66672499998822,
      "v": 32
    },
    {
      "midi": 43,
      "hit": false,
      "t": 169000.08449999936,
      "d": 355.5557333333127,
      "v": 93
    },
    {
      "midi": 59,
      "hit": false,
      "t": 169166.75124999933,
      "d": 55.55558333333465,
      "v": 52
    },
    {
      "midi": 55,
      "hit": false,
      "t": 169166.75124999933,
      "d": 100.00005000000237,
      "v": 90
    },
    {
      "midi": 57,
      "hit": false,
      "t": 169333.41799999934,
      "d": 255.5556833333394,
      "v": 119
    },
    {
      "midi": 43,
      "hit": false,
      "t": 169500.08474999934,
      "d": 477.778016666678,
      "v": 96
    },
    {
      "midi": 57,
      "hit": false,
      "t": 170000.08499999935,
      "d": 83.33337499998743,
      "v": 109
    },
    {
      "midi": 55,
      "hit": false,
      "t": 170000.08499999935,
      "d": 88.88893333330634,
      "v": 107
    },
    {
      "midi": 62,
      "hit": false,
      "t": 170000.08499999935,
      "d": 105.55560833329218,
      "v": 99
    },
    {
      "midi": 43,
      "hit": false,
      "t": 170166.7517499993,
      "d": 111.1111666666402,
      "v": 83
    },
    {
      "midi": 52,
      "hit": false,
      "t": 170500.08524999928,
      "d": 94.44449166665436,
      "v": 23
    },
    {
      "midi": 52,
      "hit": false,
      "t": 170666.75199999925,
      "d": 111.1111666666402,
      "v": 92
    },
    {
      "midi": 55,
      "hit": false,
      "t": 170666.75199999925,
      "d": 166.66674999997485,
      "v": 109
    },
    {
      "midi": 60,
      "hit": false,
      "t": 170666.75199999925,
      "d": 166.66674999997485,
      "v": 105
    },
    {
      "midi": 33,
      "hit": false,
      "t": 170666.75199999925,
      "d": 194.44454166662763,
      "v": 92
    },
    {
      "midi": 45,
      "hit": false,
      "t": 170666.75199999925,
      "d": 244.44456666661426,
      "v": 78
    },
    {
      "midi": 55,
      "hit": false,
      "t": 171333.4189999992,
      "d": 83.33337499998743,
      "v": 99
    },
    {
      "midi": 60,
      "hit": false,
      "t": 171333.4189999992,
      "d": 111.1111666666402,
      "v": 91
    },
    {
      "midi": 54,
      "hit": false,
      "t": 172000.0859999992,
      "d": 133.33339999997406,
      "v": 92
    },
    {
      "midi": 57,
      "hit": false,
      "t": 172000.0859999992,
      "d": 183.3334249999607,
      "v": 102
    },
    {
      "midi": 62,
      "hit": false,
      "t": 172000.0859999992,
      "d": 188.8889833332796,
      "v": 99
    },
    {
      "midi": 47,
      "hit": false,
      "t": 172000.0859999992,
      "d": 677.7781166666246,
      "v": 74
    },
    {
      "midi": 35,
      "hit": false,
      "t": 172000.0859999992,
      "d": 872.2226583332522,
      "v": 84
    },
    {
      "midi": 54,
      "hit": false,
      "t": 172666.75299999915,
      "d": 83.33337499998743,
      "v": 98
    },
    {
      "midi": 57,
      "hit": false,
      "t": 172666.75299999915,
      "d": 133.33339999997406,
      "v": 99
    },
    {
      "midi": 62,
      "hit": false,
      "t": 172666.75299999915,
      "d": 144.444516666641,
      "v": 90
    },
    {
      "midi": 57,
      "hit": false,
      "t": 173333.4199999991,
      "d": 127.77784166665515,
      "v": 85
    },
    {
      "midi": 60,
      "hit": false,
      "t": 173333.4199999991,
      "d": 133.33339999997406,
      "v": 95
    },
    {
      "midi": 64,
      "hit": false,
      "t": 173333.4199999991,
      "d": 144.444516666641,
      "v": 95
    },
    {
      "midi": 45,
      "hit": false,
      "t": 173333.4199999991,
      "d": 588.8891833332891,
      "v": 75
    },
    {
      "midi": 33,
      "hit": false,
      "t": 173333.4199999991,
      "d": 777.7781666665978,
      "v": 90
    },
    {
      "midi": 57,
      "hit": false,
      "t": 173666.7534999991,
      "d": 61.111141666653566,
      "v": 77
    },
    {
      "midi": 60,
      "hit": false,
      "t": 174000.08699999907,
      "d": 61.111141666653566,
      "v": 93
    },
    {
      "midi": 57,
      "hit": false,
      "t": 174000.08699999907,
      "d": 72.2222583333205,
      "v": 103
    },
    {
      "midi": 64,
      "hit": false,
      "t": 174000.08699999907,
      "d": 72.2222583333205,
      "v": 93
    },
    {
      "midi": 45,
      "hit": false,
      "t": 174166.75374999904,
      "d": 77.77781666666851,
      "v": 113
    },
    {
      "midi": 64,
      "hit": false,
      "t": 174333.42049999905,
      "d": 38.888908333319705,
      "v": 75
    },
    {
      "midi": 57,
      "hit": false,
      "t": 174333.42049999905,
      "d": 44.44446666663862,
      "v": 78
    },
    {
      "midi": 60,
      "hit": false,
      "t": 174333.42049999905,
      "d": 44.44446666663862,
      "v": 78
    },
    {
      "midi": 66,
      "hit": false,
      "t": 174500.08724999902,
      "d": 22.22223333333386,
      "v": 63
    },
    {
      "midi": 50,
      "hit": false,
      "t": 174500.08724999902,
      "d": 50.000024999986636,
      "v": 49
    },
    {
      "midi": 57,
      "hit": false,
      "t": 174500.08724999902,
      "d": 100.00004999997327,
      "v": 81
    },
    {
      "midi": 66,
      "hit": false,
      "t": 174666.753999999,
      "d": 150.000074999989,
      "v": 106
    },
    {
      "midi": 57,
      "hit": false,
      "t": 174666.753999999,
      "d": 155.55563333330792,
      "v": 100
    },
    {
      "midi": 62,
      "hit": false,
      "t": 174666.753999999,
      "d": 155.55563333330792,
      "v": 113
    },
    {
      "midi": 50,
      "hit": false,
      "t": 174666.753999999,
      "d": 688.8892333333206,
      "v": 76
    },
    {
      "midi": 38,
      "hit": false,
      "t": 174666.753999999,
      "d": 805.5559583332797,
      "v": 95
    },
    {
      "midi": 57,
      "hit": false,
      "t": 175000.08749999898,
      "d": 44.44446666666772,
      "v": 59
    },
    {
      "midi": 57,
      "hit": false,
      "t": 175333.42099999898,
      "d": 66.66670000000158,
      "v": 95
    },
    {
      "midi": 62,
      "hit": false,
      "t": 175333.42099999898,
      "d": 83.33337499998743,
      "v": 107
    },
    {
      "midi": 66,
      "hit": false,
      "t": 175333.42099999898,
      "d": 88.88893333330634,
      "v": 115
    },
    {
      "midi": 38,
      "hit": false,
      "t": 175666.75449999893,
      "d": 61.111141666653566,
      "v": 80
    },
    {
      "midi": 48,
      "hit": false,
      "t": 176000.0879999989,
      "d": 188.88898333333782,
      "v": 77
    },
    {
      "midi": 36,
      "hit": false,
      "t": 176000.0879999989,
      "d": 216.6667749999906,
      "v": 102
    },
    {
      "midi": 60,
      "hit": false,
      "t": 176000.0879999989,
      "d": 222.2223333333095,
      "v": 95
    },
    {
      "midi": 64,
      "hit": false,
      "t": 176000.0879999989,
      "d": 266.66679999997723,
      "v": 99
    },
    {
      "midi": 67,
      "hit": false,
      "t": 176000.0879999989,
      "d": 277.77791666664416,
      "v": 96
    },
    {
      "midi": 67,
      "hit": false,
      "t": 176666.75499999887,
      "d": 77.77781666666851,
      "v": 90
    },
    {
      "midi": 62,
      "hit": false,
      "t": 176666.75499999887,
      "d": 94.44449166665436,
      "v": 113
    },
    {
      "midi": 47,
      "hit": false,
      "t": 176666.75499999887,
      "d": 100.00004999997327,
      "v": 80
    },
    {
      "midi": 59,
      "hit": false,
      "t": 176666.75499999887,
      "d": 100.00004999997327,
      "v": 95
    },
    {
      "midi": 35,
      "hit": false,
      "t": 176666.75499999887,
      "d": 105.55560833329218,
      "v": 88
    },
    {
      "midi": 57,
      "hit": false,
      "t": 177000.08849999882,
      "d": 94.44449166665436,
      "v": 62
    },
    {
      "midi": 57,
      "hit": false,
      "t": 177333.4219999988,
      "d": 94.44449166665436,
      "v": 74
    },
    {
      "midi": 33,
      "hit": false,
      "t": 177333.4219999988,
      "d": 111.1111666666402,
      "v": 88
    },
    {
      "midi": 60,
      "hit": false,
      "t": 177333.4219999988,
      "d": 111.1111666666402,
      "v": 86
    },
    {
      "midi": 64,
      "hit": false,
      "t": 177333.4219999988,
      "d": 111.1111666666402,
      "v": 92
    },
    {
      "midi": 45,
      "hit": false,
      "t": 177333.4219999988,
      "d": 127.77784166662605,
      "v": 65
    },
    {
      "midi": 66,
      "hit": false,
      "t": 178000.08899999876,
      "d": 66.66670000000158,
      "v": 98
    },
    {
      "midi": 57,
      "hit": false,
      "t": 178000.08899999876,
      "d": 72.2222583333205,
      "v": 79
    },
    {
      "midi": 38,
      "hit": false,
      "t": 178000.08899999876,
      "d": 88.88893333330634,
      "v": 93
    },
    {
      "midi": 50,
      "hit": false,
      "t": 178000.08899999876,
      "d": 94.44449166662525,
      "v": 74
    },
    {
      "midi": 62,
      "hit": false,
      "t": 178000.08899999876,
      "d": 94.44449166662525,
      "v": 99
    },
    {
      "midi": 59,
      "hit": false,
      "t": 178666.7559999987,
      "d": 77.77781666666851,
      "v": 99
    },
    {
      "midi": 55,
      "hit": false,
      "t": 178666.7559999987,
      "d": 94.44449166665436,
      "v": 91
    },
    {
      "midi": 62,
      "hit": false,
      "t": 178666.7559999987,
      "d": 138.88895833332208,
      "v": 97
    },
    {
      "midi": 43,
      "hit": false,
      "t": 178666.7559999987,
      "d": 722.2225833333214,
      "v": 82
    },
    {
      "midi": 31,
      "hit": false,
      "t": 178666.7559999987,
      "d": 2272.2233583332854,
      "v": 88
    },
    {
      "midi": 55,
      "hit": false,
      "t": 179333.4229999987,
      "d": 100.00005000000237,
      "v": 97
    },
    {
      "midi": 59,
      "hit": false,
      "t": 179333.4229999987,
      "d": 122.22228333333624,
      "v": 109
    },
    {
      "midi": 62,
      "hit": false,
      "t": 179333.4229999987,
      "d": 138.88895833332208,
      "v": 100
    },
    {
      "midi": 43,
      "hit": false,
      "t": 179666.75649999868,
      "d": 377.77796666664653,
      "v": 100
    },
    {
      "midi": 55,
      "hit": false,
      "t": 179833.42324999868,
      "d": 94.44449166665436,
      "v": 84
    },
    {
      "midi": 57,
      "hit": false,
      "t": 180000.08999999866,
      "d": 144.4445166666701,
      "v": 107
    },
    {
      "midi": 62,
      "hit": false,
      "t": 180000.08999999866,
      "d": 155.55563333333703,
      "v": 105
    },
    {
      "midi": 43,
      "hit": false,
      "t": 180333.42349999867,
      "d": 344.44461666667485,
      "v": 70
    },
    {
      "midi": 57,
      "hit": false,
      "t": 180666.75699999867,
      "d": 94.44449166665436,
      "v": 111
    },
    {
      "midi": 62,
      "hit": false,
      "t": 180666.75699999867,
      "d": 161.11119166665594,
      "v": 109
    },
    {
      "midi": 43,
      "hit": false,
      "t": 181000.09049999865,
      "d": 50.000024999986636,
      "v": 96
    },
    {
      "midi": 52,
      "hit": false,
      "t": 181166.75724999863,
      "d": 88.88893333330634,
      "v": 65
    },
    {
      "midi": 52,
      "hit": false,
      "t": 181333.4239999986,
      "d": 100.00004999997327,
      "v": 85
    },
    {
      "midi": 55,
      "hit": false,
      "t": 181333.4239999986,
      "d": 105.55560833329218,
      "v": 105
    },
    {
      "midi": 60,
      "hit": false,
      "t": 181333.4239999986,
      "d": 122.22228333327803,
      "v": 97
    },
    {
      "midi": 45,
      "hit": false,
      "t": 181333.4239999986,
      "d": 633.3336499999568,
      "v": 77
    },
    {
      "midi": 33,
      "hit": false,
      "t": 181333.4239999986,
      "d": 905.5560083332821,
      "v": 96
    },
    {
      "midi": 55,
      "hit": false,
      "t": 182000.09099999856,
      "d": 72.2222583333205,
      "v": 113
    },
    {
      "midi": 60,
      "hit": false,
      "t": 182000.09099999856,
      "d": 105.55560833332129,
      "v": 97
    },
    {
      "midi": 45,
      "hit": false,
      "t": 182333.42449999854,
      "d": 66.66670000000158,
      "v": 95
    },
    {
      "midi": 54,
      "hit": false,
      "t": 182666.75799999855,
      "d": 122.22228333333624,
      "v": 100
    },
    {
      "midi": 57,
      "hit": false,
      "t": 182666.75799999855,
      "d": 166.66675000000396,
      "v": 103
    },
    {
      "midi": 62,
      "hit": false,
      "t": 182666.75799999855,
      "d": 172.22230833332287,
      "v": 102
    },
    {
      "midi": 47,
      "hit": false,
      "t": 182666.75799999855,
      "d": 677.7781166666246,
      "v": 80
    },
    {
      "midi": 35,
      "hit": false,
      "t": 182666.75799999855,
      "d": 738.8892583332781,
      "v": 85
    },
    {
      "midi": 54,
      "hit": false,
      "t": 183000.09149999853,
      "d": 27.777791666652774,
      "v": 59
    },
    {
      "midi": 54,
      "hit": false,
      "t": 183333.4249999985,
      "d": 38.888908333319705,
      "v": 96
    },
    {
      "midi": 57,
      "hit": false,
      "t": 183333.4249999985,
      "d": 50.000024999986636,
      "v": 99
    },
    {
      "midi": 62,
      "hit": false,
      "t": 183333.4249999985,
      "d": 50.000024999986636,
      "v": 99
    },
    {
      "midi": 47,
      "hit": false,
      "t": 183666.75849999848,
      "d": 44.44446666666772,
      "v": 71
    },
    {
      "midi": 59,
      "hit": false,
      "t": 184000.0919999985,
      "d": 105.55560833332129,
      "v": 85
    },
    {
      "midi": 62,
      "hit": false,
      "t": 184000.0919999985,
      "d": 122.22228333330713,
      "v": 96
    },
    {
      "midi": 67,
      "hit": false,
      "t": 184000.0919999985,
      "d": 150.0000749999599,
      "v": 93
    },
    {
      "midi": 52,
      "hit": false,
      "t": 184000.0919999985,
      "d": 644.4447666666238,
      "v": 69
    },
    {
      "midi": 40,
      "hit": false,
      "t": 184000.0919999985,
      "d": 2205.5566583331674,
      "v": 74
    },
    {
      "midi": 59,
      "hit": false,
      "t": 184666.75899999845,
      "d": 116.66672499998822,
      "v": 95
    },
    {
      "midi": 62,
      "hit": false,
      "t": 184666.75899999845,
      "d": 127.77784166665515,
      "v": 100
    },
    {
      "midi": 67,
      "hit": false,
      "t": 184666.75899999845,
      "d": 355.5557333333127,
      "v": 85
    },
    {
      "midi": 52,
      "hit": false,
      "t": 185000.09249999843,
      "d": 316.66682499999297,
      "v": 96
    },
    {
      "midi": 66,
      "hit": false,
      "t": 185166.75924999843,
      "d": 44.44446666666772,
      "v": 90
    },
    {
      "midi": 66,
      "hit": false,
      "t": 185333.4259999984,
      "d": 61.111141666653566,
      "v": 79
    },
    {
      "midi": 67,
      "hit": false,
      "t": 185333.4259999984,
      "d": 283.3334749999631,
      "v": 100
    },
    {
      "midi": 52,
      "hit": false,
      "t": 185500.09274999838,
      "d": 461.11134166663396,
      "v": 99
    },
    {
      "midi": 59,
      "hit": false,
      "t": 185666.75949999836,
      "d": 155.55563333333703,
      "v": 85
    },
    {
      "midi": 59,
      "hit": false,
      "t": 186000.09299999833,
      "d": 88.88893333333544,
      "v": 102
    },
    {
      "midi": 62,
      "hit": false,
      "t": 186000.09299999833,
      "d": 100.00005000000237,
      "v": 103
    },
    {
      "midi": 66,
      "hit": false,
      "t": 186000.09299999833,
      "d": 100.00005000000237,
      "v": 104
    },
    {
      "midi": 67,
      "hit": false,
      "t": 186000.09299999833,
      "d": 100.00005000000237,
      "v": 91
    },
    {
      "midi": 40,
      "hit": false,
      "t": 186333.4264999983,
      "d": 61.111141666653566,
      "v": 78
    },
    {
      "midi": 52,
      "hit": false,
      "t": 186333.4264999983,
      "d": 61.111141666653566,
      "v": 89
    },
    {
      "midi": 60,
      "hit": false,
      "t": 186666.7599999983,
      "d": 194.44454166665673,
      "v": 91
    },
    {
      "midi": 36,
      "hit": false,
      "t": 186666.7599999983,
      "d": 200.00009999997565,
      "v": 102
    },
    {
      "midi": 67,
      "hit": false,
      "t": 186666.7599999983,
      "d": 211.11121666664258,
      "v": 107
    },
    {
      "midi": 64,
      "hit": false,
      "t": 186666.7599999983,
      "d": 216.6667749999615,
      "v": 111
    },
    {
      "midi": 48,
      "hit": false,
      "t": 186666.7599999983,
      "d": 222.2223333332804,
      "v": 75
    },
    {
      "midi": 62,
      "hit": false,
      "t": 187333.42699999825,
      "d": 94.44449166665436,
      "v": 103
    },
    {
      "midi": 67,
      "hit": false,
      "t": 187333.42699999825,
      "d": 100.00004999997327,
      "v": 99
    },
    {
      "midi": 47,
      "hit": false,
      "t": 187333.42699999825,
      "d": 105.55560833329218,
      "v": 81
    },
    {
      "midi": 59,
      "hit": false,
      "t": 187333.42699999825,
      "d": 105.55560833329218,
      "v": 93
    },
    {
      "midi": 35,
      "hit": false,
      "t": 187333.42699999825,
      "d": 133.33339999994496,
      "v": 91
    },
    {
      "midi": 60,
      "hit": false,
      "t": 188000.0939999982,
      "d": 77.77781666666851,
      "v": 89
    },
    {
      "midi": 33,
      "hit": false,
      "t": 188000.0939999982,
      "d": 88.88893333333544,
      "v": 90
    },
    {
      "midi": 57,
      "hit": false,
      "t": 188000.0939999982,
      "d": 88.88893333333544,
      "v": 85
    },
    {
      "midi": 64,
      "hit": false,
      "t": 188000.0939999982,
      "d": 88.88893333333544,
      "v": 86
    },
    {
      "midi": 45,
      "hit": false,
      "t": 188000.0939999982,
      "d": 111.1111666666693,
      "v": 75
    },
    {
      "midi": 66,
      "hit": false,
      "t": 188666.7609999982,
      "d": 72.2222583333205,
      "v": 92
    },
    {
      "midi": 50,
      "hit": false,
      "t": 188666.7609999982,
      "d": 88.88893333330634,
      "v": 75
    },
    {
      "midi": 57,
      "hit": false,
      "t": 188666.7609999982,
      "d": 88.88893333330634,
      "v": 96
    },
    {
      "midi": 62,
      "hit": false,
      "t": 188666.7609999982,
      "d": 94.44449166662525,
      "v": 99
    },
    {
      "midi": 38,
      "hit": false,
      "t": 188666.7609999982,
      "d": 100.00004999994417,
      "v": 102
    },
    {
      "midi": 55,
      "hit": false,
      "t": 189333.42799999815,
      "d": 166.66674999997485,
      "v": 85
    },
    {
      "midi": 62,
      "hit": false,
      "t": 189333.42799999815,
      "d": 172.22230833329377,
      "v": 90
    },
    {
      "midi": 59,
      "hit": false,
      "t": 189333.42799999815,
      "d": 183.3334249999607,
      "v": 95
    },
    {
      "midi": 43,
      "hit": false,
      "t": 189333.42799999815,
      "d": 727.7781416665821,
      "v": 74
    },
    {
      "midi": 31,
      "hit": false,
      "t": 189333.42799999815,
      "d": 2327.7789416665037,
      "v": 92
    },
    {
      "midi": 55,
      "hit": false,
      "t": 189666.7614999981,
      "d": 94.44449166665436,
      "v": 65
    },
    {
      "midi": 55,
      "hit": false,
      "t": 190000.09499999808,
      "d": 294.4445916666591,
      "v": 97
    },
    {
      "midi": 62,
      "hit": false,
      "t": 190000.09499999808,
      "d": 594.4447416666371,
      "v": 99
    },
    {
      "midi": 59,
      "hit": false,
      "t": 190000.09499999808,
      "d": 627.7780916666379,
      "v": 100
    },
    {
      "midi": 43,
      "hit": false,
      "t": 190333.42849999806,
      "d": 344.44461666664574,
      "v": 100
    },
    {
      "midi": 55,
      "hit": false,
      "t": 190500.09524999806,
      "d": 116.66672499998822,
      "v": 97
    },
    {
      "midi": 57,
      "hit": false,
      "t": 190666.76199999804,
      "d": 155.55563333333703,
      "v": 115
    },
    {
      "midi": 43,
      "hit": false,
      "t": 190833.42874999804,
      "d": 483.3335749999969,
      "v": 107
    },
    {
      "midi": 62,
      "hit": false,
      "t": 191000.09549999805,
      "d": 88.88893333333544,
      "v": 63
    },
    {
      "midi": 55,
      "hit": false,
      "t": 191333.42899999802,
      "d": 72.2222583333205,
      "v": 97
    },
    {
      "midi": 57,
      "hit": false,
      "t": 191333.42899999802,
      "d": 88.88893333330634,
      "v": 113
    },
    {
      "midi": 62,
      "hit": false,
      "t": 191333.42899999802,
      "d": 105.55560833329218,
      "v": 109
    },
    {
      "midi": 43,
      "hit": false,
      "t": 191666.76249999797,
      "d": 122.22228333333624,
      "v": 103
    },
    {
      "midi": 52,
      "hit": false,
      "t": 192000.09599999798,
      "d": 94.44449166665436,
      "v": 75
    },
    {
      "midi": 55,
      "hit": false,
      "t": 192000.09599999798,
      "d": 105.55560833332129,
      "v": 107
    },
    {
      "midi": 60,
      "hit": false,
      "t": 192000.09599999798,
      "d": 138.88895833332208,
      "v": 100
    },
    {
      "midi": 45,
      "hit": false,
      "t": 192000.09599999798,
      "d": 633.3336499999859,
      "v": 78
    },
    {
      "midi": 33,
      "hit": false,
      "t": 192000.09599999798,
      "d": 927.778241666645,
      "v": 96
    },
    {
      "midi": 55,
      "hit": false,
      "t": 192666.76299999797,
      "d": 66.66670000000158,
      "v": 100
    },
    {
      "midi": 60,
      "hit": false,
      "t": 192666.76299999797,
      "d": 105.55560833332129,
      "v": 100
    },
    {
      "midi": 45,
      "hit": false,
      "t": 193000.09649999795,
      "d": 94.44449166665436,
      "v": 103
    },
    {
      "midi": 54,
      "hit": false,
      "t": 193333.42999999793,
      "d": 55.55558333330555,
      "v": 83
    },
    {
      "midi": 62,
      "hit": false,
      "t": 193333.42999999793,
      "d": 122.22228333330713,
      "v": 92
    },
    {
      "midi": 57,
      "hit": false,
      "t": 193333.42999999793,
      "d": 161.11119166662684,
      "v": 100
    },
    {
      "midi": 47,
      "hit": false,
      "t": 193333.42999999793,
      "d": 616.666974999971,
      "v": 85
    },
    {
      "midi": 35,
      "hit": false,
      "t": 193333.42999999793,
      "d": 761.1114916665829,
      "v": 97
    },
    {
      "midi": 62,
      "hit": false,
      "t": 194000.09699999788,
      "d": 38.888908333319705,
      "v": 99
    },
    {
      "midi": 54,
      "hit": false,
      "t": 194000.09699999788,
      "d": 44.44446666663862,
      "v": 100
    },
    {
      "midi": 57,
      "hit": false,
      "t": 194000.09699999788,
      "d": 66.66669999997248,
      "v": 107
    },
    {
      "midi": 57,
      "hit": false,
      "t": 194666.76399999784,
      "d": 111.1111666666693,
      "v": 91
    },
    {
      "midi": 60,
      "hit": false,
      "t": 194666.76399999784,
      "d": 111.1111666666693,
      "v": 99
    },
    {
      "midi": 64,
      "hit": false,
      "t": 194666.76399999784,
      "d": 116.66672499998822,
      "v": 102
    },
    {
      "midi": 45,
      "hit": false,
      "t": 194666.76399999784,
      "d": 550.0002749999694,
      "v": 79
    },
    {
      "midi": 33,
      "hit": false,
      "t": 194666.76399999784,
      "d": 800.0003999999317,
      "v": 99
    },
    {
      "midi": 64,
      "hit": false,
      "t": 195000.09749999782,
      "d": 44.44446666666772,
      "v": 78
    },
    {
      "midi": 57,
      "hit": false,
      "t": 195000.09749999782,
      "d": 61.111141666653566,
      "v": 91
    },
    {
      "midi": 57,
      "hit": false,
      "t": 195333.4309999978,
      "d": 61.111141666653566,
      "v": 107
    },
    {
      "midi": 59,
      "hit": false,
      "t": 195333.4309999978,
      "d": 72.2222583333205,
      "v": 115
    },
    {
      "midi": 64,
      "hit": false,
      "t": 195333.4309999978,
      "d": 83.33337499998743,
      "v": 113
    },
    {
      "midi": 45,
      "hit": false,
      "t": 195500.09774999777,
      "d": 88.88893333333544,
      "v": 117
    },
    {
      "midi": 59,
      "hit": false,
      "t": 195666.76449999778,
      "d": 50.000024999986636,
      "v": 66
    },
    {
      "midi": 57,
      "hit": false,
      "t": 195833.43124999775,
      "d": 55.55558333333465,
      "v": 81
    },
    {
      "midi": 57,
      "hit": false,
      "t": 196000.09799999776,
      "d": 94.44449166665436,
      "v": 91
    },
    {
      "midi": 66,
      "hit": false,
      "t": 196000.09799999776,
      "d": 105.55560833332129,
      "v": 96
    },
    {
      "midi": 62,
      "hit": false,
      "t": 196000.09799999776,
      "d": 127.77784166665515,
      "v": 107
    },
    {
      "midi": 50,
      "hit": false,
      "t": 196000.09799999776,
      "d": 816.6670749999757,
      "v": 74
    },
    {
      "midi": 38,
      "hit": false,
      "t": 196000.09799999776,
      "d": 827.7781916666427,
      "v": 93
    },
    {
      "midi": 57,
      "hit": false,
      "t": 196333.43149999774,
      "d": 55.55558333333465,
      "v": 67
    },
    {
      "midi": 62,
      "hit": false,
      "t": 196666.76499999774,
      "d": 94.44449166665436,
      "v": 109
    },
    {
      "midi": 66,
      "hit": false,
      "t": 196666.76499999774,
      "d": 94.44449166665436,
      "v": 112
    },
    {
      "midi": 60,
      "hit": false,
      "t": 197000.09849999772,
      "d": 116.66672499998822,
      "v": 81
    },
    {
      "midi": 48,
      "hit": false,
      "t": 197333.4319999977,
      "d": 177.7778666666709,
      "v": 90
    },
    {
      "midi": 60,
      "hit": false,
      "t": 197333.4319999977,
      "d": 177.7778666666709,
      "v": 97
    },
    {
      "midi": 36,
      "hit": false,
      "t": 197333.4319999977,
      "d": 194.44454166665673,
      "v": 97
    },
    {
      "midi": 67,
      "hit": false,
      "t": 197333.4319999977,
      "d": 200.00009999997565,
      "v": 105
    },
    {
      "midi": 64,
      "hit": false,
      "t": 197333.4319999977,
      "d": 216.6667749999615,
      "v": 107
    },
    {
      "midi": 59,
      "hit": false,
      "t": 197666.76549999765,
      "d": 61.111141666653566,
      "v": 51
    },
    {
      "midi": 59,
      "hit": false,
      "t": 198000.09899999763,
      "d": 94.44449166665436,
      "v": 100
    },
    {
      "midi": 62,
      "hit": false,
      "t": 198000.09899999763,
      "d": 105.55560833332129,
      "v": 109
    },
    {
      "midi": 67,
      "hit": false,
      "t": 198000.09899999763,
      "d": 105.55560833332129,
      "v": 96
    },
    {
      "midi": 35,
      "hit": false,
      "t": 198000.09899999763,
      "d": 133.33339999997406,
      "v": 93
    },
    {
      "midi": 47,
      "hit": false,
      "t": 198000.09899999763,
      "d": 133.33339999997406,
      "v": 82
    },
    {
      "midi": 57,
      "hit": false,
      "t": 198333.4324999976,
      "d": 111.1111666666693,
      "v": 64
    },
    {
      "midi": 33,
      "hit": false,
      "t": 198666.7659999976,
      "d": 83.33337499998743,
      "v": 91
    },
    {
      "midi": 60,
      "hit": false,
      "t": 198666.7659999976,
      "d": 88.88893333330634,
      "v": 100
    },
    {
      "midi": 64,
      "hit": false,
      "t": 198666.7659999976,
      "d": 100.00004999997327,
      "v": 99
    },
    {
      "midi": 57,
      "hit": false,
      "t": 198666.7659999976,
      "d": 105.55560833329218,
      "v": 96
    },
    {
      "midi": 45,
      "hit": false,
      "t": 198666.7659999976,
      "d": 122.22228333327803,
      "v": 78
    },
    {
      "midi": 66,
      "hit": false,
      "t": 199333.43299999755,
      "d": 66.66670000000158,
      "v": 98
    },
    {
      "midi": 57,
      "hit": false,
      "t": 199333.43299999755,
      "d": 88.88893333333544,
      "v": 89
    },
    {
      "midi": 50,
      "hit": false,
      "t": 199333.43299999755,
      "d": 94.44449166665436,
      "v": 85
    },
    {
      "midi": 62,
      "hit": false,
      "t": 199333.43299999755,
      "d": 94.44449166665436,
      "v": 105
    },
    {
      "midi": 38,
      "hit": false,
      "t": 199333.43299999755,
      "d": 100.00004999997327,
      "v": 96
    },
    {
      "midi": 59,
      "hit": false,
      "t": 199666.76649999752,
      "d": 38.888908333319705,
      "v": 69
    },
    {
      "midi": 55,
      "hit": false,
      "t": 199666.76649999752,
      "d": 77.77781666663941,
      "v": 75
    },
    {
      "midi": 55,
      "hit": false,
      "t": 200000.09999999747,
      "d": 116.66672499998822,
      "v": 86
    },
    {
      "midi": 59,
      "hit": false,
      "t": 200000.09999999747,
      "d": 116.66672499998822,
      "v": 99
    },
    {
      "midi": 62,
      "hit": false,
      "t": 200000.09999999747,
      "d": 122.22228333330713,
      "v": 102
    },
    {
      "midi": 43,
      "hit": false,
      "t": 200000.09999999747,
      "d": 666.6669999999576,
      "v": 80
    },
    {
      "midi": 31,
      "hit": false,
      "t": 200000.09999999747,
      "d": 2311.112266666547,
      "v": 86
    },
    {
      "midi": 55,
      "hit": false,
      "t": 200333.43349999745,
      "d": 50.000024999986636,
      "v": 59
    },
    {
      "midi": 55,
      "hit": false,
      "t": 200666.76699999743,
      "d": 305.55570833332604,
      "v": 99
    },
    {
      "midi": 62,
      "hit": false,
      "t": 200666.76699999743,
      "d": 444.4446666666481,
      "v": 100
    },
    {
      "midi": 59,
      "hit": false,
      "t": 200666.76699999743,
      "d": 600.0002999999851,
      "v": 102
    },
    {
      "midi": 43,
      "hit": false,
      "t": 201000.1004999974,
      "d": 383.33352499999455,
      "v": 111
    },
    {
      "midi": 55,
      "hit": false,
      "t": 201166.7672499974,
      "d": 100.00005000000237,
      "v": 83
    },
    {
      "midi": 57,
      "hit": false,
      "t": 201333.43399999742,
      "d": 422.22243333331426,
      "v": 115
    },
    {
      "midi": 43,
      "hit": false,
      "t": 201500.1007499974,
      "d": 405.5557583333284,
      "v": 78
    },
    {
      "midi": 57,
      "hit": false,
      "t": 202000.10099999738,
      "d": 77.77781666666851,
      "v": 115
    },
    {
      "midi": 55,
      "hit": false,
      "t": 202000.10099999738,
      "d": 83.33337499998743,
      "v": 97
    },
    {
      "midi": 62,
      "hit": false,
      "t": 202000.10099999738,
      "d": 111.1111666666402,
      "v": 113
    },
    {
      "midi": 43,
      "hit": false,
      "t": 202333.43449999735,
      "d": 111.1111666666693,
      "v": 105
    },
    {
      "midi": 52,
      "hit": false,
      "t": 202666.76799999736,
      "d": 105.55560833332129,
      "v": 90
    },
    {
      "midi": 55,
      "hit": false,
      "t": 202666.76799999736,
      "d": 116.66672499998822,
      "v": 103
    },
    {
      "midi": 60,
      "hit": false,
      "t": 202666.76799999736,
      "d": 127.77784166665515,
      "v": 92
    },
    {
      "midi": 45,
      "hit": false,
      "t": 202666.76799999736,
      "d": 638.889208333334,
      "v": 80
    },
    {
      "midi": 33,
      "hit": false,
      "t": 202666.76799999736,
      "d": 911.1115666666301,
      "v": 97
    },
    {
      "midi": 55,
      "hit": false,
      "t": 203333.43499999735,
      "d": 77.77781666666851,
      "v": 109
    },
    {
      "midi": 60,
      "hit": false,
      "t": 203333.43499999735,
      "d": 105.55560833332129,
      "v": 100
    },
    {
      "midi": 45,
      "hit": false,
      "t": 203666.76849999733,
      "d": 105.55560833332129,
      "v": 88
    },
    {
      "midi": 54,
      "hit": false,
      "t": 204000.1019999973,
      "d": 94.44449166665436,
      "v": 92
    },
    {
      "midi": 62,
      "hit": false,
      "t": 204000.1019999973,
      "d": 138.88895833332208,
      "v": 103
    },
    {
      "midi": 57,
      "hit": false,
      "t": 204000.1019999973,
      "d": 150.000074999989,
      "v": 100
    },
    {
      "midi": 47,
      "hit": false,
      "t": 204000.1019999973,
      "d": 666.6669999999867,
      "v": 79
    },
    {
      "midi": 35,
      "hit": false,
      "t": 204000.1019999973,
      "d": 933.3337999999349,
      "v": 86
    },
    {
      "midi": 57,
      "hit": false,
      "t": 204666.7689999973,
      "d": 38.888908333319705,
      "v": 93
    },
    {
      "midi": 54,
      "hit": false,
      "t": 204666.7689999973,
      "d": 44.44446666663862,
      "v": 94
    },
    {
      "midi": 62,
      "hit": false,
      "t": 204666.7689999973,
      "d": 50.00002499995753,
      "v": 102
    },
    {
      "midi": 47,
      "hit": false,
      "t": 205000.10249999724,
      "d": 44.44446666666772,
      "v": 80
    },
    {
      "midi": 59,
      "hit": false,
      "t": 205333.43599999722,
      "d": 111.1111666666402,
      "v": 85
    },
    {
      "midi": 62,
      "hit": false,
      "t": 205333.43599999722,
      "d": 122.22228333330713,
      "v": 97
    },
    {
      "midi": 67,
      "hit": false,
      "t": 205333.43599999722,
      "d": 144.444516666641,
      "v": 97
    },
    {
      "midi": 52,
      "hit": false,
      "t": 205333.43599999722,
      "d": 650.0003249999718,
      "v": 71
    },
    {
      "midi": 40,
      "hit": false,
      "t": 205333.43599999722,
      "d": 2072.2232583331934,
      "v": 88
    },
    {
      "midi": 59,
      "hit": false,
      "t": 205666.7694999972,
      "d": 38.888908333319705,
      "v": 57
    },
    {
      "midi": 59,
      "hit": false,
      "t": 206000.10299999718,
      "d": 116.66672499998822,
      "v": 109
    },
    {
      "midi": 67,
      "hit": false,
      "t": 206000.10299999718,
      "d": 344.44461666664574,
      "v": 102
    },
    {
      "midi": 62,
      "hit": false,
      "t": 206000.10299999718,
      "d": 388.88908333331347,
      "v": 107
    },
    {
      "midi": 52,
      "hit": false,
      "t": 206333.43649999716,
      "d": 233.33345000000554,
      "v": 95
    },
    {
      "midi": 66,
      "hit": false,
      "t": 206500.10324999716,
      "d": 216.6667749999906,
      "v": 112
    },
    {
      "midi": 52,
      "hit": false,
      "t": 206666.76999999717,
      "d": 372.2224083332694,
      "v": 90
    },
    {
      "midi": 67,
      "hit": false,
      "t": 206833.43674999714,
      "d": 83.33337499998743,
      "v": 41
    },
    {
      "midi": 59,
      "hit": false,
      "t": 207000.10349999712,
      "d": 177.77786666664178,
      "v": 97
    },
    {
      "midi": 62,
      "hit": false,
      "t": 207000.10349999712,
      "d": 200.00009999997565,
      "v": 107
    },
    {
      "midi": 67,
      "hit": false,
      "t": 207000.10349999712,
      "d": 200.00009999997565,
      "v": 103
    },
    {
      "midi": 59,
      "hit": false,
      "t": 207333.4369999971,
      "d": 88.88893333330634,
      "v": 105
    },
    {
      "midi": 62,
      "hit": false,
      "t": 207333.4369999971,
      "d": 100.00004999997327,
      "v": 103
    },
    {
      "midi": 67,
      "hit": false,
      "t": 207333.4369999971,
      "d": 133.33339999997406,
      "v": 99
    },
    {
      "midi": 62,
      "hit": false,
      "t": 207666.77049999707,
      "d": 111.1111666666693,
      "v": 67
    },
    {
      "midi": 60,
      "hit": false,
      "t": 207666.77049999707,
      "d": 138.88895833332208,
      "v": 63
    },
    {
      "midi": 60,
      "hit": false,
      "t": 208000.10399999705,
      "d": 144.4445166666701,
      "v": 99
    },
    {
      "midi": 67,
      "hit": false,
      "t": 208000.10399999705,
      "d": 161.11119166665594,
      "v": 105
    },
    {
      "midi": 64,
      "hit": false,
      "t": 208000.10399999705,
      "d": 166.66674999997485,
      "v": 113
    },
    {
      "midi": 48,
      "hit": false,
      "t": 208000.10399999705,
      "d": 194.44454166662763,
      "v": 69
    },
    {
      "midi": 36,
      "hit": false,
      "t": 208000.10399999705,
      "d": 200.00009999994654,
      "v": 95
    },
    {
      "midi": 67,
      "hit": false,
      "t": 208666.77099999698,
      "d": 100.00005000000237,
      "v": 86
    },
    {
      "midi": 59,
      "hit": false,
      "t": 208666.77099999698,
      "d": 105.55560833332129,
      "v": 99
    },
    {
      "midi": 62,
      "hit": false,
      "t": 208666.77099999698,
      "d": 111.1111666666402,
      "v": 97
    },
    {
      "midi": 47,
      "hit": false,
      "t": 208666.77099999698,
      "d": 127.77784166662605,
      "v": 75
    },
    {
      "midi": 35,
      "hit": false,
      "t": 208666.77099999698,
      "d": 155.55563333327882,
      "v": 85
    },
    {
      "midi": 60,
      "hit": false,
      "t": 209333.4379999969,
      "d": 55.55558333333465,
      "v": 103
    },
    {
      "midi": 57,
      "hit": false,
      "t": 209333.4379999969,
      "d": 77.77781666666851,
      "v": 95
    },
    {
      "midi": 64,
      "hit": false,
      "t": 209333.4379999969,
      "d": 88.88893333333544,
      "v": 103
    },
    {
      "midi": 33,
      "hit": false,
      "t": 209333.4379999969,
      "d": 94.44449166665436,
      "v": 93
    },
    {
      "midi": 45,
      "hit": false,
      "t": 209333.4379999969,
      "d": 116.66672499998822,
      "v": 78
    },
    {
      "midi": 57,
      "hit": false,
      "t": 210000.1049999969,
      "d": 77.77781666666851,
      "v": 88
    },
    {
      "midi": 66,
      "hit": false,
      "t": 210000.1049999969,
      "d": 77.77781666666851,
      "v": 109
    },
    {
      "midi": 50,
      "hit": false,
      "t": 210000.1049999969,
      "d": 83.33337499998743,
      "v": 73
    },
    {
      "midi": 62,
      "hit": false,
      "t": 210000.1049999969,
      "d": 88.88893333330634,
      "v": 102
    },
    {
      "midi": 38,
      "hit": false,
      "t": 210000.1049999969,
      "d": 100.00004999997327,
      "v": 93
    },
    {
      "midi": 55,
      "hit": false,
      "t": 210666.77199999685,
      "d": 100.00005000000237,
      "v": 96
    },
    {
      "midi": 59,
      "hit": false,
      "t": 210666.77199999685,
      "d": 122.22228333333624,
      "v": 95
    },
    {
      "midi": 62,
      "hit": false,
      "t": 210666.77199999685,
      "d": 127.77784166665515,
      "v": 97
    },
    {
      "midi": 43,
      "hit": false,
      "t": 210666.77199999685,
      "d": 677.7781166666246,
      "v": 79
    },
    {
      "midi": 31,
      "hit": false,
      "t": 210666.77199999685,
      "d": 2194.4455416665296,
      "v": 85
    },
    {
      "midi": 59,
      "hit": false,
      "t": 211000.10549999683,
      "d": 27.777791666652774,
      "v": 43
    },
    {
      "midi": 55,
      "hit": false,
      "t": 211000.10549999683,
      "d": 50.000024999986636,
      "v": 64
    },
    {
      "midi": 55,
      "hit": false,
      "t": 211333.4389999968,
      "d": 94.44449166665436,
      "v": 111
    },
    {
      "midi": 59,
      "hit": false,
      "t": 211333.4389999968,
      "d": 100.00004999997327,
      "v": 102
    },
    {
      "midi": 62,
      "hit": false,
      "t": 211333.4389999968,
      "d": 377.77796666664653,
      "v": 105
    },
    {
      "midi": 43,
      "hit": false,
      "t": 211666.7724999968,
      "d": 372.2224083333276,
      "v": 99
    },
    {
      "midi": 62,
      "hit": false,
      "t": 211833.4392499968,
      "d": 66.66670000000158,
      "v": 63
    },
    {
      "midi": 55,
      "hit": false,
      "t": 211833.4392499968,
      "d": 111.1111666666693,
      "v": 100
    },
    {
      "midi": 57,
      "hit": false,
      "t": 212000.1059999968,
      "d": 94.44449166665436,
      "v": 111
    },
    {
      "midi": 62,
      "hit": false,
      "t": 212166.77274999677,
      "d": 327.7779416666599,
      "v": 102
    },
    {
      "midi": 43,
      "hit": false,
      "t": 212333.43949999678,
      "d": 316.66682499999297,
      "v": 109
    },
    {
      "midi": 57,
      "hit": false,
      "t": 212666.77299999676,
      "d": 83.33337499998743,
      "v": 117
    },
    {
      "midi": 55,
      "hit": false,
      "t": 212666.77299999676,
      "d": 88.88893333330634,
      "v": 117
    },
    {
      "midi": 62,
      "hit": false,
      "t": 212666.77299999676,
      "d": 100.00004999997327,
      "v": 109
    },
    {
      "midi": 43,
      "hit": false,
      "t": 213000.1064999967,
      "d": 122.22228333333624,
      "v": 99
    },
    {
      "midi": 52,
      "hit": false,
      "t": 213333.43999999668,
      "d": 111.1111666666402,
      "v": 79
    },
    {
      "midi": 55,
      "hit": false,
      "t": 213333.43999999668,
      "d": 122.22228333330713,
      "v": 100
    },
    {
      "midi": 60,
      "hit": false,
      "t": 213333.43999999668,
      "d": 133.33339999997406,
      "v": 103
    },
    {
      "midi": 45,
      "hit": false,
      "t": 213333.43999999668,
      "d": 638.8892083333049,
      "v": 85
    },
    {
      "midi": 33,
      "hit": false,
      "t": 213333.43999999668,
      "d": 788.8892833332648,
      "v": 100
    },
    {
      "midi": 52,
      "hit": false,
      "t": 213666.77349999666,
      "d": 44.44446666666772,
      "v": 64
    },
    {
      "midi": 55,
      "hit": false,
      "t": 214000.10699999664,
      "d": 61.111141666653566,
      "v": 96
    },
    {
      "midi": 60,
      "hit": false,
      "t": 214000.10699999664,
      "d": 88.88893333330634,
      "v": 91
    },
    {
      "midi": 45,
      "hit": false,
      "t": 214333.44049999662,
      "d": 61.111141666653566,
      "v": 86
    },
    {
      "midi": 54,
      "hit": false,
      "t": 214666.7739999966,
      "d": 83.33337499998743,
      "v": 92
    },
    {
      "midi": 62,
      "hit": false,
      "t": 214666.7739999966,
      "d": 133.33339999997406,
      "v": 99
    },
    {
      "midi": 57,
      "hit": false,
      "t": 214666.7739999966,
      "d": 138.88895833329298,
      "v": 97
    },
    {
      "midi": 47,
      "hit": false,
      "t": 214666.7739999966,
      "d": 611.111416666623,
      "v": 86
    },
    {
      "midi": 35,
      "hit": false,
      "t": 214666.7739999966,
      "d": 727.7781416666112,
      "v": 85
    },
    {
      "midi": 54,
      "hit": false,
      "t": 215000.10749999655,
      "d": 66.66670000000158,
      "v": 71
    },
    {
      "midi": 54,
      "hit": false,
      "t": 215333.44099999656,
      "d": 66.66669999997248,
      "v": 96
    },
    {
      "midi": 57,
      "hit": false,
      "t": 215333.44099999656,
      "d": 88.88893333330634,
      "v": 105
    },
    {
      "midi": 62,
      "hit": false,
      "t": 215333.44099999656,
      "d": 105.55560833329218,
      "v": 105
    },
    {
      "midi": 35,
      "hit": false,
      "t": 215666.7744999965,
      "d": 94.44449166665436,
      "v": 90
    },
    {
      "midi": 60,
      "hit": false,
      "t": 216000.10799999646,
      "d": 72.2222583333205,
      "v": 85
    },
    {
      "midi": 57,
      "hit": false,
      "t": 216000.10799999646,
      "d": 94.44449166665436,
      "v": 86
    },
    {
      "midi": 64,
      "hit": false,
      "t": 216000.10799999646,
      "d": 111.1111666666402,
      "v": 97
    },
    {
      "midi": 45,
      "hit": false,
      "t": 216000.10799999646,
      "d": 566.6669499999552,
      "v": 85
    },
    {
      "midi": 33,
      "hit": false,
      "t": 216000.10799999646,
      "d": 727.7781416666112,
      "v": 100
    },
    {
      "midi": 57,
      "hit": false,
      "t": 216333.44149999644,
      "d": 61.111141666653566,
      "v": 88
    },
    {
      "midi": 64,
      "hit": false,
      "t": 216333.44149999644,
      "d": 72.2222583333205,
      "v": 83
    },
    {
      "midi": 57,
      "hit": false,
      "t": 216666.7749999964,
      "d": 94.44449166665436,
      "v": 107
    },
    {
      "midi": 64,
      "hit": false,
      "t": 216666.7749999964,
      "d": 100.00004999997327,
      "v": 93
    },
    {
      "midi": 59,
      "hit": false,
      "t": 216833.4417499964,
      "d": 88.88893333333544,
      "v": 113
    },
    {
      "midi": 57,
      "hit": false,
      "t": 217000.1084999964,
      "d": 222.2223333333095,
      "v": 85
    },
    {
      "midi": 62,
      "hit": false,
      "t": 217166.7752499964,
      "d": 50.000024999986636,
      "v": 61
    },
    {
      "midi": 62,
      "hit": false,
      "t": 217333.44199999637,
      "d": 94.44449166665436,
      "v": 109
    },
    {
      "midi": 66,
      "hit": false,
      "t": 217333.44199999637,
      "d": 100.00004999997327,
      "v": 112
    },
    {
      "midi": 57,
      "hit": false,
      "t": 217333.44199999637,
      "d": 111.1111666666402,
      "v": 97
    },
    {
      "midi": 50,
      "hit": false,
      "t": 217333.44199999637,
      "d": 794.4448416666419,
      "v": 78
    },
    {
      "midi": 38,
      "hit": false,
      "t": 217333.44199999637,
      "d": 811.1115166666277,
      "v": 103
    },
    {
      "midi": 57,
      "hit": false,
      "t": 217666.77549999635,
      "d": 88.88893333333544,
      "v": 91
    },
    {
      "midi": 66,
      "hit": false,
      "t": 218000.10899999636,
      "d": 44.44446666666772,
      "v": 100
    },
    {
      "midi": 57,
      "hit": false,
      "t": 218000.10899999636,
      "d": 77.77781666666851,
      "v": 92
    },
    {
      "midi": 62,
      "hit": false,
      "t": 218000.10899999636,
      "d": 77.77781666666851,
      "v": 113
    },
    {
      "midi": 38,
      "hit": false,
      "t": 218333.44249999634,
      "d": 111.1111666666693,
      "v": 90
    },
    {
      "midi": 36,
      "hit": false,
      "t": 218666.77599999632,
      "d": 216.6667749999906,
      "v": 103
    },
    {
      "midi": 60,
      "hit": false,
      "t": 218666.77599999632,
      "d": 216.6667749999906,
      "v": 102
    },
    {
      "midi": 48,
      "hit": false,
      "t": 218666.77599999632,
      "d": 222.2223333333095,
      "v": 78
    },
    {
      "midi": 67,
      "hit": false,
      "t": 218666.77599999632,
      "d": 222.2223333333095,
      "v": 97
    },
    {
      "midi": 64,
      "hit": false,
      "t": 218666.77599999632,
      "d": 255.5556833333103,
      "v": 99
    },
    {
      "midi": 47,
      "hit": false,
      "t": 219333.4429999963,
      "d": 216.6667749999906,
      "v": 73
    },
    {
      "midi": 35,
      "hit": false,
      "t": 219333.4429999963,
      "d": 222.2223333333095,
      "v": 84
    },
    {
      "midi": 62,
      "hit": false,
      "t": 219333.4429999963,
      "d": 222.2223333333095,
      "v": 109
    },
    {
      "midi": 59,
      "hit": false,
      "t": 219333.4429999963,
      "d": 233.33344999997644,
      "v": 97
    },
    {
      "midi": 60,
      "hit": false,
      "t": 220000.1099999963,
      "d": 94.44449166665436,
      "v": 84
    },
    {
      "midi": 33,
      "hit": false,
      "t": 220000.1099999963,
      "d": 100.00004999997327,
      "v": 83
    },
    {
      "midi": 57,
      "hit": false,
      "t": 220000.1099999963,
      "d": 100.00004999997327,
      "v": 85
    },
    {
      "midi": 64,
      "hit": false,
      "t": 220000.1099999963,
      "d": 105.55560833329218,
      "v": 82
    },
    {
      "midi": 45,
      "hit": false,
      "t": 220000.1099999963,
      "d": 144.4445166666119,
      "v": 70
    },
    {
      "midi": 57,
      "hit": false,
      "t": 220666.77699999622,
      "d": 83.33337499998743,
      "v": 92
    },
    {
      "midi": 66,
      "hit": false,
      "t": 220666.77699999622,
      "d": 83.33337499998743,
      "v": 96
    },
    {
      "midi": 62,
      "hit": false,
      "t": 220666.77699999622,
      "d": 88.88893333330634,
      "v": 95
    },
    {
      "midi": 38,
      "hit": false,
      "t": 220666.77699999622,
      "d": 111.1111666666402,
      "v": 90
    },
    {
      "midi": 50,
      "hit": false,
      "t": 220666.77699999622,
      "d": 111.1111666666402,
      "v": 77
    },
    {
      "midi": 55,
      "hit": false,
      "t": 221333.44399999618,
      "d": 205.55565833332366,
      "v": 90
    },
    {
      "midi": 59,
      "hit": false,
      "t": 221333.44399999618,
      "d": 211.11121666664258,
      "v": 92
    },
    {
      "midi": 62,
      "hit": false,
      "t": 221333.44399999618,
      "d": 211.11121666664258,
      "v": 93
    },
    {
      "midi": 43,
      "hit": false,
      "t": 221333.44399999618,
      "d": 794.4448416666128,
      "v": 70
    },
    {
      "midi": 31,
      "hit": false,
      "t": 221333.44399999618,
      "d": 2205.5566583331965,
      "v": 88
    },
    {
      "midi": 55,
      "hit": false,
      "t": 222000.11099999616,
      "d": 116.66672499998822,
      "v": 96
    },
    {
      "midi": 59,
      "hit": false,
      "t": 222000.11099999616,
      "d": 122.22228333330713,
      "v": 97
    },
    {
      "midi": 62,
      "hit": false,
      "t": 222000.11099999616,
      "d": 327.7779416666308,
      "v": 88
    },
    {
      "midi": 43,
      "hit": false,
      "t": 222333.4444999961,
      "d": 472.22245833333,
      "v": 77
    },
    {
      "midi": 55,
      "hit": false,
      "t": 222500.11124999612,
      "d": 88.88893333333544,
      "v": 89
    },
    {
      "midi": 57,
      "hit": false,
      "t": 222666.77799999612,
      "d": 72.2222583333205,
      "v": 111
    },
    {
      "midi": 62,
      "hit": false,
      "t": 222833.4447499961,
      "d": 277.77791666667326,
      "v": 105
    },
    {
      "midi": 43,
      "hit": false,
      "t": 223000.1114999961,
      "d": 344.44461666664574,
      "v": 83
    },
    {
      "midi": 55,
      "hit": false,
      "t": 223166.7782499961,
      "d": 83.33337499998743,
      "v": 75
    },
    {
      "midi": 55,
      "hit": false,
      "t": 223333.44499999608,
      "d": 27.777791666652774,
      "v": 86
    },
    {
      "midi": 57,
      "hit": false,
      "t": 223333.44499999608,
      "d": 100.00004999997327,
      "v": 119
    },
    {
      "midi": 62,
      "hit": false,
      "t": 223333.44499999608,
      "d": 105.55560833329218,
      "v": 109
    },
    {
      "midi": 43,
      "hit": false,
      "t": 223666.77849999603,
      "d": 105.55560833332129,
      "v": 95
    },
    {
      "midi": 52,
      "hit": false,
      "t": 223833.445249996,
      "d": 61.111141666653566,
      "v": 57
    },
    {
      "midi": 52,
      "hit": false,
      "t": 224000.11199999598,
      "d": 100.00004999997327,
      "v": 84
    },
    {
      "midi": 55,
      "hit": false,
      "t": 224000.11199999598,
      "d": 177.77786666664178,
      "v": 109
    },
    {
      "midi": 60,
      "hit": false,
      "t": 224000.11199999598,
      "d": 188.88898333330872,
      "v": 105
    },
    {
      "midi": 33,
      "hit": false,
      "t": 224000.11199999598,
      "d": 244.44456666664337,
      "v": 95
    },
    {
      "midi": 45,
      "hit": false,
      "t": 224000.11199999598,
      "d": 322.2223833333119,
      "v": 71
    },
    {
      "midi": 52,
      "hit": false,
      "t": 224666.77899999596,
      "d": 66.66670000000158,
      "v": 83
    },
    {
      "midi": 55,
      "hit": false,
      "t": 224666.77899999596,
      "d": 94.44449166665436,
      "v": 99
    },
    {
      "midi": 60,
      "hit": false,
      "t": 224666.77899999596,
      "d": 94.44449166665436,
      "v": 91
    },
    {
      "midi": 66,
      "hit": false,
      "t": 225333.44599999595,
      "d": 361.1112916666607,
      "v": 98
    },
    {
      "midi": 62,
      "hit": false,
      "t": 225333.44599999595,
      "d": 394.4446416666615,
      "v": 93
    },
    {
      "midi": 59,
      "hit": false,
      "t": 225333.44599999595,
      "d": 455.55578333331505,
      "v": 82
    },
    {
      "midi": 35,
      "hit": false,
      "t": 225333.44599999595,
      "d": 538.8891583333025,
      "v": 79
    },
    {
      "midi": 47,
      "hit": false,
      "t": 225333.44599999595,
      "d": 644.4447666666238,
      "v": 67
    },
    {
      "midi": 62,
      "hit": false,
      "t": 226000.1129999959,
      "d": 77.77781666666851,
      "v": 99
    },
    {
      "midi": 59,
      "hit": false,
      "t": 226000.1129999959,
      "d": 105.55560833332129,
      "v": 95
    },
    {
      "midi": 66,
      "hit": false,
      "t": 226000.1129999959,
      "d": 122.22228333330713,
      "v": 106
    },
    {
      "midi": 59,
      "hit": false,
      "t": 226333.4464999959,
      "d": 166.66675000000396,
      "v": 70
    },
    {
      "midi": 59,
      "hit": false,
      "t": 226666.7799999959,
      "d": 138.88895833332208,
      "v": 81
    },
    {
      "midi": 62,
      "hit": false,
      "t": 226666.7799999959,
      "d": 138.88895833332208,
      "v": 92
    },
    {
      "midi": 67,
      "hit": false,
      "t": 226666.7799999959,
      "d": 138.88895833332208,
      "v": 95
    },
    {
      "midi": 52,
      "hit": false,
      "t": 226666.7799999959,
      "d": 683.3336749999726,
      "v": 73
    },
    {
      "midi": 40,
      "hit": false,
      "t": 226666.7799999959,
      "d": 1838.889808333217,
      "v": 88
    },
    {
      "midi": 62,
      "hit": false,
      "t": 227333.44699999588,
      "d": 66.66669999997248,
      "v": 97
    },
    {
      "midi": 67,
      "hit": false,
      "t": 227333.44699999588,
      "d": 88.88893333330634,
      "v": 86
    },
    {
      "midi": 59,
      "hit": false,
      "t": 227333.44699999588,
      "d": 94.44449166662525,
      "v": 102
    },
    {
      "midi": 52,
      "hit": false,
      "t": 227666.78049999583,
      "d": 344.44461666667485,
      "v": 95
    },
    {
      "midi": 62,
      "hit": false,
      "t": 227833.44724999584,
      "d": 44.44446666666772,
      "v": 69
    },
    {
      "midi": 59,
      "hit": false,
      "t": 227833.44724999584,
      "d": 111.1111666666693,
      "v": 99
    },
    {
      "midi": 66,
      "hit": false,
      "t": 228000.11399999584,
      "d": 83.33337499998743,
      "v": 127
    },
    {
      "midi": 67,
      "hit": false,
      "t": 228166.7807499958,
      "d": 205.55565833332366,
      "v": 88
    },
    {
      "midi": 52,
      "hit": false,
      "t": 228333.44749999582,
      "d": 133.33339999997406,
      "v": 96
    },
    {
      "midi": 59,
      "hit": false,
      "t": 228500.1142499958,
      "d": 105.55560833332129,
      "v": 78
    },
    {
      "midi": 62,
      "hit": false,
      "t": 228666.78099999577,
      "d": 127.77784166665515,
      "v": 109
    },
    {
      "midi": 67,
      "hit": false,
      "t": 228666.78099999577,
      "d": 144.444516666641,
      "v": 99
    },
    {
      "midi": 60,
      "hit": false,
      "t": 229000.11449999575,
      "d": 172.22230833332287,
      "v": 74
    },
    {
      "midi": 36,
      "hit": false,
      "t": 229333.44799999573,
      "d": 172.22230833332287,
      "v": 92
    },
    {
      "midi": 48,
      "hit": false,
      "t": 229333.44799999573,
      "d": 177.77786666664178,
      "v": 71
    },
    {
      "midi": 60,
      "hit": false,
      "t": 229333.44799999573,
      "d": 338.8890583332977,
      "v": 92
    },
    {
      "midi": 64,
      "hit": false,
      "t": 229333.44799999573,
      "d": 461.11134166663396,
      "v": 97
    },
    {
      "midi": 67,
      "hit": false,
      "t": 229333.44799999573,
      "d": 605.5558583333041,
      "v": 105
    },
    {
      "midi": 62,
      "hit": false,
      "t": 230000.11499999568,
      "d": 144.444516666641,
      "v": 103
    },
    {
      "midi": 59,
      "hit": false,
      "t": 230000.11499999568,
      "d": 155.55563333330792,
      "v": 95
    },
    {
      "midi": 35,
      "hit": false,
      "t": 230000.11499999568,
      "d": 161.11119166662684,
      "v": 85
    },
    {
      "midi": 67,
      "hit": false,
      "t": 230000.11499999568,
      "d": 166.66674999994575,
      "v": 92
    },
    {
      "midi": 47,
      "hit": false,
      "t": 230000.11499999568,
      "d": 177.77786666661268,
      "v": 69
    },
    {
      "midi": 33,
      "hit": false,
      "t": 230666.7819999956,
      "d": 94.44449166665436,
      "v": 80
    },
    {
      "midi": 57,
      "hit": false,
      "t": 230666.7819999956,
      "d": 100.00004999997327,
      "v": 85
    },
    {
      "midi": 60,
      "hit": false,
      "t": 230666.7819999956,
      "d": 100.00004999997327,
      "v": 96
    },
    {
      "midi": 64,
      "hit": false,
      "t": 230666.7819999956,
      "d": 105.55560833329218,
      "v": 91
    },
    {
      "midi": 45,
      "hit": false,
      "t": 230666.7819999956,
      "d": 155.55563333327882,
      "v": 67
    },
    {
      "midi": 66,
      "hit": false,
      "t": 231333.44899999554,
      "d": 72.2222583333205,
      "v": 84
    },
    {
      "midi": 62,
      "hit": false,
      "t": 231333.44899999554,
      "d": 94.44449166665436,
      "v": 95
    },
    {
      "midi": 57,
      "hit": false,
      "t": 231333.44899999554,
      "d": 100.00004999997327,
      "v": 85
    },
    {
      "midi": 50,
      "hit": false,
      "t": 231333.44899999554,
      "d": 111.1111666666402,
      "v": 73
    },
    {
      "midi": 38,
      "hit": false,
      "t": 231333.44899999554,
      "d": 127.77784166662605,
      "v": 93
    },
    {
      "midi": 55,
      "hit": false,
      "t": 231666.7824999955,
      "d": 44.44446666666772,
      "v": 48
    },
    {
      "midi": 55,
      "hit": false,
      "t": 232000.1159999955,
      "d": 211.11121666667168,
      "v": 92
    },
    {
      "midi": 59,
      "hit": false,
      "t": 232000.1159999955,
      "d": 238.88900833332445,
      "v": 91
    },
    {
      "midi": 62,
      "hit": false,
      "t": 232000.1159999955,
      "d": 238.88900833332445,
      "v": 97
    },
    {
      "midi": 43,
      "hit": false,
      "t": 232000.1159999955,
      "d": 705.5559083332773,
      "v": 83
    },
    {
      "midi": 31,
      "hit": false,
      "t": 232000.1159999955,
      "d": 2250.001124999835,
      "v": 93
    },
    {
      "midi": 59,
      "hit": false,
      "t": 232333.44949999548,
      "d": 72.2222583333205,
      "v": 39
    },
    {
      "midi": 55,
      "hit": false,
      "t": 232333.44949999548,
      "d": 100.00004999997327,
      "v": 56
    },
    {
      "midi": 55,
      "hit": false,
      "t": 232666.78299999546,
      "d": 138.88895833332208,
      "v": 99
    },
    {
      "midi": 62,
      "hit": false,
      "t": 232666.78299999546,
      "d": 383.33352499993634,
      "v": 99
    },
    {
      "midi": 59,
      "hit": false,
      "t": 232666.78299999546,
      "d": 433.333549999923,
      "v": 97
    },
    {
      "midi": 55,
      "hit": false,
      "t": 232833.44974999543,
      "d": 116.66672499998822,
      "v": 32
    },
    {
      "midi": 43,
      "hit": false,
      "t": 233000.1164999954,
      "d": 355.5557333333127,
      "v": 93
    },
    {
      "midi": 59,
      "hit": false,
      "t": 233166.78324999538,
      "d": 55.55558333333465,
      "v": 52
    },
    {
      "midi": 55,
      "hit": false,
      "t": 233166.78324999538,
      "d": 100.00005000000237,
      "v": 90
    },
    {
      "midi": 57,
      "hit": false,
      "t": 233333.44999999538,
      "d": 255.5556833333394,
      "v": 119
    },
    {
      "midi": 43,
      "hit": false,
      "t": 233500.1167499954,
      "d": 477.778016666678,
      "v": 96
    },
    {
      "midi": 57,
      "hit": false,
      "t": 234000.1169999954,
      "d": 83.33337499998743,
      "v": 109
    },
    {
      "midi": 55,
      "hit": false,
      "t": 234000.1169999954,
      "d": 88.88893333330634,
      "v": 107
    },
    {
      "midi": 62,
      "hit": false,
      "t": 234000.1169999954,
      "d": 105.55560833329218,
      "v": 99
    },
    {
      "midi": 43,
      "hit": false,
      "t": 234166.78374999535,
      "d": 111.1111666666402,
      "v": 83
    },
    {
      "midi": 52,
      "hit": false,
      "t": 234500.11724999532,
      "d": 94.44449166665436,
      "v": 23
    },
    {
      "midi": 52,
      "hit": false,
      "t": 234666.7839999953,
      "d": 111.1111666666402,
      "v": 92
    },
    {
      "midi": 55,
      "hit": false,
      "t": 234666.7839999953,
      "d": 166.66674999997485,
      "v": 109
    },
    {
      "midi": 60,
      "hit": false,
      "t": 234666.7839999953,
      "d": 166.66674999997485,
      "v": 105
    },
    {
      "midi": 33,
      "hit": false,
      "t": 234666.7839999953,
      "d": 194.44454166662763,
      "v": 92
    },
    {
      "midi": 45,
      "hit": false,
      "t": 234666.7839999953,
      "d": 244.44456666661426,
      "v": 78
    },
    {
      "midi": 55,
      "hit": false,
      "t": 235333.45099999526,
      "d": 83.33337499998743,
      "v": 99
    },
    {
      "midi": 60,
      "hit": false,
      "t": 235333.45099999526,
      "d": 111.1111666666402,
      "v": 91
    },
    {
      "midi": 54,
      "hit": false,
      "t": 236000.11799999524,
      "d": 133.33339999997406,
      "v": 92
    },
    {
      "midi": 57,
      "hit": false,
      "t": 236000.11799999524,
      "d": 183.3334249999607,
      "v": 102
    },
    {
      "midi": 62,
      "hit": false,
      "t": 236000.11799999524,
      "d": 188.8889833332796,
      "v": 99
    },
    {
      "midi": 47,
      "hit": false,
      "t": 236000.11799999524,
      "d": 677.7781166666246,
      "v": 74
    },
    {
      "midi": 35,
      "hit": false,
      "t": 236000.11799999524,
      "d": 872.2226583332522,
      "v": 84
    },
    {
      "midi": 54,
      "hit": false,
      "t": 236666.7849999952,
      "d": 83.33337499998743,
      "v": 98
    },
    {
      "midi": 57,
      "hit": false,
      "t": 236666.7849999952,
      "d": 133.33339999997406,
      "v": 99
    },
    {
      "midi": 62,
      "hit": false,
      "t": 236666.7849999952,
      "d": 144.444516666641,
      "v": 90
    },
    {
      "midi": 57,
      "hit": false,
      "t": 237333.45199999516,
      "d": 127.77784166665515,
      "v": 85
    },
    {
      "midi": 60,
      "hit": false,
      "t": 237333.45199999516,
      "d": 133.33339999997406,
      "v": 95
    },
    {
      "midi": 64,
      "hit": false,
      "t": 237333.45199999516,
      "d": 144.444516666641,
      "v": 95
    },
    {
      "midi": 45,
      "hit": false,
      "t": 237333.45199999516,
      "d": 588.8891833332891,
      "v": 75
    },
    {
      "midi": 33,
      "hit": false,
      "t": 237333.45199999516,
      "d": 777.7781666665978,
      "v": 90
    },
    {
      "midi": 57,
      "hit": false,
      "t": 237666.78549999514,
      "d": 61.111141666653566,
      "v": 77
    },
    {
      "midi": 60,
      "hit": false,
      "t": 238000.11899999512,
      "d": 61.111141666653566,
      "v": 93
    },
    {
      "midi": 57,
      "hit": false,
      "t": 238000.11899999512,
      "d": 72.2222583333205,
      "v": 103
    },
    {
      "midi": 64,
      "hit": false,
      "t": 238000.11899999512,
      "d": 72.2222583333205,
      "v": 93
    },
    {
      "midi": 45,
      "hit": false,
      "t": 238166.7857499951,
      "d": 77.77781666666851,
      "v": 113
    },
    {
      "midi": 64,
      "hit": false,
      "t": 238333.4524999951,
      "d": 38.888908333319705,
      "v": 75
    },
    {
      "midi": 57,
      "hit": false,
      "t": 238333.4524999951,
      "d": 44.44446666663862,
      "v": 78
    },
    {
      "midi": 60,
      "hit": false,
      "t": 238333.4524999951,
      "d": 44.44446666663862,
      "v": 78
    },
    {
      "midi": 66,
      "hit": false,
      "t": 238500.11924999507,
      "d": 22.22223333333386,
      "v": 63
    },
    {
      "midi": 50,
      "hit": false,
      "t": 238500.11924999507,
      "d": 50.000024999986636,
      "v": 49
    },
    {
      "midi": 57,
      "hit": false,
      "t": 238500.11924999507,
      "d": 100.00004999997327,
      "v": 81
    },
    {
      "midi": 66,
      "hit": false,
      "t": 238666.78599999505,
      "d": 150.000074999989,
      "v": 106
    },
    {
      "midi": 57,
      "hit": false,
      "t": 238666.78599999505,
      "d": 155.55563333330792,
      "v": 100
    },
    {
      "midi": 62,
      "hit": false,
      "t": 238666.78599999505,
      "d": 155.55563333330792,
      "v": 113
    },
    {
      "midi": 50,
      "hit": false,
      "t": 238666.78599999505,
      "d": 688.8892333333206,
      "v": 76
    },
    {
      "midi": 38,
      "hit": false,
      "t": 238666.78599999505,
      "d": 805.5559583332797,
      "v": 95
    },
    {
      "midi": 57,
      "hit": false,
      "t": 239000.11949999502,
      "d": 44.44446666666772,
      "v": 59
    },
    {
      "midi": 57,
      "hit": false,
      "t": 239333.45299999503,
      "d": 66.66670000000158,
      "v": 95
    },
    {
      "midi": 62,
      "hit": false,
      "t": 239333.45299999503,
      "d": 83.33337499998743,
      "v": 107
    },
    {
      "midi": 66,
      "hit": false,
      "t": 239333.45299999503,
      "d": 88.88893333330634,
      "v": 115
    },
    {
      "midi": 38,
      "hit": false,
      "t": 239666.78649999498,
      "d": 61.111141666653566,
      "v": 80
    },
    {
      "midi": 60,
      "hit": false,
      "t": 240000.11999999496,
      "d": 222.2223333333386,
      "v": 102
    },
    {
      "midi": 64,
      "hit": false,
      "t": 240000.11999999496,
      "d": 266.66680000000633,
      "v": 99
    },
    {
      "midi": 48,
      "hit": false,
      "t": 240000.11999999496,
      "d": 366.6668500000087,
      "v": 78
    },
    {
      "midi": 36,
      "hit": false,
      "t": 240000.11999999496,
      "d": 416.66687499999534,
      "v": 89
    },
    {
      "midi": 67,
      "hit": false,
      "t": 240000.11999999496,
      "d": 861.1115416666435,
      "v": 86
    },
    {
      "midi": 47,
      "hit": false,
      "t": 240666.78699999495,
      "d": 216.6667749999906,
      "v": 73
    },
    {
      "midi": 35,
      "hit": false,
      "t": 240666.78699999495,
      "d": 222.2223333333095,
      "v": 84
    },
    {
      "midi": 62,
      "hit": false,
      "t": 240666.78699999495,
      "d": 222.2223333333095,
      "v": 109
    },
    {
      "midi": 59,
      "hit": false,
      "t": 240666.78699999495,
      "d": 233.33344999997644,
      "v": 97
    },
    {
      "midi": 60,
      "hit": false,
      "t": 241333.45399999493,
      "d": 94.44449166665436,
      "v": 84
    },
    {
      "midi": 33,
      "hit": false,
      "t": 241333.45399999493,
      "d": 100.00004999997327,
      "v": 83
    },
    {
      "midi": 57,
      "hit": false,
      "t": 241333.45399999493,
      "d": 100.00004999997327,
      "v": 85
    },
    {
      "midi": 64,
      "hit": false,
      "t": 241333.45399999493,
      "d": 105.55560833329218,
      "v": 82
    },
    {
      "midi": 45,
      "hit": false,
      "t": 241333.45399999493,
      "d": 144.4445166666119,
      "v": 70
    },
    {
      "midi": 57,
      "hit": false,
      "t": 242000.12099999486,
      "d": 83.33337499998743,
      "v": 92
    },
    {
      "midi": 66,
      "hit": false,
      "t": 242000.12099999486,
      "d": 83.33337499998743,
      "v": 96
    },
    {
      "midi": 62,
      "hit": false,
      "t": 242000.12099999486,
      "d": 88.88893333330634,
      "v": 95
    },
    {
      "midi": 38,
      "hit": false,
      "t": 242000.12099999486,
      "d": 111.1111666666402,
      "v": 90
    },
    {
      "midi": 50,
      "hit": false,
      "t": 242000.12099999486,
      "d": 111.1111666666402,
      "v": 77
    },
    {
      "midi": 55,
      "hit": false,
      "t": 242666.78799999482,
      "d": 205.55565833332366,
      "v": 90
    },
    {
      "midi": 59,
      "hit": false,
      "t": 242666.78799999482,
      "d": 211.11121666664258,
      "v": 92
    },
    {
      "midi": 62,
      "hit": false,
      "t": 242666.78799999482,
      "d": 211.11121666664258,
      "v": 93
    },
    {
      "midi": 43,
      "hit": false,
      "t": 242666.78799999482,
      "d": 794.4448416666128,
      "v": 70
    },
    {
      "midi": 31,
      "hit": false,
      "t": 242666.78799999482,
      "d": 2205.5566583331674,
      "v": 88
    },
    {
      "midi": 55,
      "hit": false,
      "t": 243333.4549999948,
      "d": 116.66672499998822,
      "v": 96
    },
    {
      "midi": 59,
      "hit": false,
      "t": 243333.4549999948,
      "d": 122.22228333330713,
      "v": 97
    },
    {
      "midi": 62,
      "hit": false,
      "t": 243333.4549999948,
      "d": 327.7779416666017,
      "v": 88
    },
    {
      "midi": 43,
      "hit": false,
      "t": 243666.78849999473,
      "d": 472.22245833333,
      "v": 77
    },
    {
      "midi": 55,
      "hit": false,
      "t": 243833.45524999473,
      "d": 88.88893333333544,
      "v": 89
    },
    {
      "midi": 57,
      "hit": false,
      "t": 244000.12199999474,
      "d": 72.2222583333205,
      "v": 111
    },
    {
      "midi": 62,
      "hit": false,
      "t": 244166.7887499947,
      "d": 277.77791666667326,
      "v": 105
    },
    {
      "midi": 43,
      "hit": false,
      "t": 244333.4554999947,
      "d": 344.44461666664574,
      "v": 83
    },
    {
      "midi": 55,
      "hit": false,
      "t": 244500.12224999472,
      "d": 83.33337499998743,
      "v": 75
    },
    {
      "midi": 55,
      "hit": false,
      "t": 244666.7889999947,
      "d": 27.777791666652774,
      "v": 86
    },
    {
      "midi": 57,
      "hit": false,
      "t": 244666.7889999947,
      "d": 100.00004999997327,
      "v": 119
    },
    {
      "midi": 62,
      "hit": false,
      "t": 244666.7889999947,
      "d": 105.55560833329218,
      "v": 109
    },
    {
      "midi": 43,
      "hit": false,
      "t": 245000.12249999464,
      "d": 105.55560833332129,
      "v": 95
    },
    {
      "midi": 52,
      "hit": false,
      "t": 245166.78924999462,
      "d": 61.111141666653566,
      "v": 57
    },
    {
      "midi": 52,
      "hit": false,
      "t": 245333.4559999946,
      "d": 100.00004999997327,
      "v": 84
    },
    {
      "midi": 55,
      "hit": false,
      "t": 245333.4559999946,
      "d": 177.77786666664178,
      "v": 109
    },
    {
      "midi": 60,
      "hit": false,
      "t": 245333.4559999946,
      "d": 188.88898333330872,
      "v": 105
    },
    {
      "midi": 33,
      "hit": false,
      "t": 245333.4559999946,
      "d": 244.44456666664337,
      "v": 95
    },
    {
      "midi": 45,
      "hit": false,
      "t": 245333.4559999946,
      "d": 322.2223833333119,
      "v": 71
    },
    {
      "midi": 52,
      "hit": false,
      "t": 246000.12299999458,
      "d": 66.66670000000158,
      "v": 83
    },
    {
      "midi": 55,
      "hit": false,
      "t": 246000.12299999458,
      "d": 94.44449166665436,
      "v": 99
    },
    {
      "midi": 60,
      "hit": false,
      "t": 246000.12299999458,
      "d": 94.44449166665436,
      "v": 91
    },
    {
      "midi": 66,
      "hit": false,
      "t": 246666.78999999457,
      "d": 361.1112916666607,
      "v": 98
    },
    {
      "midi": 62,
      "hit": false,
      "t": 246666.78999999457,
      "d": 394.4446416666615,
      "v": 93
    },
    {
      "midi": 59,
      "hit": false,
      "t": 246666.78999999457,
      "d": 455.55578333331505,
      "v": 82
    },
    {
      "midi": 35,
      "hit": false,
      "t": 246666.78999999457,
      "d": 538.8891583333025,
      "v": 79
    },
    {
      "midi": 47,
      "hit": false,
      "t": 246666.78999999457,
      "d": 644.4447666666238,
      "v": 67
    },
    {
      "midi": 62,
      "hit": false,
      "t": 247333.45699999452,
      "d": 77.77781666666851,
      "v": 99
    },
    {
      "midi": 59,
      "hit": false,
      "t": 247333.45699999452,
      "d": 105.55560833332129,
      "v": 95
    },
    {
      "midi": 66,
      "hit": false,
      "t": 247333.45699999452,
      "d": 122.22228333330713,
      "v": 106
    },
    {
      "midi": 59,
      "hit": false,
      "t": 247666.7904999945,
      "d": 166.66675000000396,
      "v": 70
    },
    {
      "midi": 59,
      "hit": false,
      "t": 248000.1239999945,
      "d": 138.88895833332208,
      "v": 81
    },
    {
      "midi": 62,
      "hit": false,
      "t": 248000.1239999945,
      "d": 138.88895833332208,
      "v": 92
    },
    {
      "midi": 67,
      "hit": false,
      "t": 248000.1239999945,
      "d": 138.88895833332208,
      "v": 95
    },
    {
      "midi": 52,
      "hit": false,
      "t": 248000.1239999945,
      "d": 683.3336749999726,
      "v": 73
    },
    {
      "midi": 40,
      "hit": false,
      "t": 248000.1239999945,
      "d": 1838.889808333217,
      "v": 88
    },
    {
      "midi": 62,
      "hit": false,
      "t": 248666.7909999945,
      "d": 66.66669999997248,
      "v": 97
    },
    {
      "midi": 67,
      "hit": false,
      "t": 248666.7909999945,
      "d": 88.88893333330634,
      "v": 86
    },
    {
      "midi": 59,
      "hit": false,
      "t": 248666.7909999945,
      "d": 94.44449166662525,
      "v": 102
    },
    {
      "midi": 52,
      "hit": false,
      "t": 249000.12449999445,
      "d": 344.44461666667485,
      "v": 95
    },
    {
      "midi": 62,
      "hit": false,
      "t": 249166.79124999445,
      "d": 44.44446666666772,
      "v": 69
    },
    {
      "midi": 59,
      "hit": false,
      "t": 249166.79124999445,
      "d": 111.1111666666693,
      "v": 99
    },
    {
      "midi": 66,
      "hit": false,
      "t": 249333.45799999445,
      "d": 83.33337499998743,
      "v": 127
    },
    {
      "midi": 67,
      "hit": false,
      "t": 249500.12474999443,
      "d": 205.55565833332366,
      "v": 88
    },
    {
      "midi": 52,
      "hit": false,
      "t": 249666.79149999443,
      "d": 133.33339999997406,
      "v": 96
    },
    {
      "midi": 59,
      "hit": false,
      "t": 249833.4582499944,
      "d": 105.55560833329218,
      "v": 78
    },
    {
      "midi": 62,
      "hit": false,
      "t": 250000.12499999435,
      "d": 127.77784166665515,
      "v": 109
    },
    {
      "midi": 67,
      "hit": false,
      "t": 250000.12499999435,
      "d": 144.444516666641,
      "v": 99
    },
    {
      "midi": 60,
      "hit": false,
      "t": 250333.45849999433,
      "d": 172.22230833332287,
      "v": 74
    },
    {
      "midi": 36,
      "hit": false,
      "t": 250666.7919999943,
      "d": 172.22230833332287,
      "v": 92
    },
    {
      "midi": 48,
      "hit": false,
      "t": 250666.7919999943,
      "d": 177.77786666664178,
      "v": 71
    },
    {
      "midi": 60,
      "hit": false,
      "t": 250666.7919999943,
      "d": 338.8890583332977,
      "v": 92
    },
    {
      "midi": 64,
      "hit": false,
      "t": 250666.7919999943,
      "d": 461.11134166660486,
      "v": 97
    },
    {
      "midi": 67,
      "hit": false,
      "t": 250666.7919999943,
      "d": 605.555858333275,
      "v": 105
    },
    {
      "midi": 62,
      "hit": false,
      "t": 251333.45899999424,
      "d": 144.444516666641,
      "v": 103
    },
    {
      "midi": 59,
      "hit": false,
      "t": 251333.45899999424,
      "d": 155.55563333330792,
      "v": 95
    },
    {
      "midi": 35,
      "hit": false,
      "t": 251333.45899999424,
      "d": 161.11119166662684,
      "v": 85
    },
    {
      "midi": 67,
      "hit": false,
      "t": 251333.45899999424,
      "d": 166.66674999994575,
      "v": 92
    },
    {
      "midi": 47,
      "hit": false,
      "t": 251333.45899999424,
      "d": 177.77786666661268,
      "v": 69
    },
    {
      "midi": 33,
      "hit": false,
      "t": 252000.12599999417,
      "d": 94.44449166665436,
      "v": 80
    },
    {
      "midi": 57,
      "hit": false,
      "t": 252000.12599999417,
      "d": 100.00004999997327,
      "v": 85
    },
    {
      "midi": 60,
      "hit": false,
      "t": 252000.12599999417,
      "d": 100.00004999997327,
      "v": 96
    },
    {
      "midi": 64,
      "hit": false,
      "t": 252000.12599999417,
      "d": 105.55560833329218,
      "v": 91
    },
    {
      "midi": 45,
      "hit": false,
      "t": 252000.12599999417,
      "d": 155.55563333327882,
      "v": 67
    },
    {
      "midi": 66,
      "hit": false,
      "t": 252666.7929999941,
      "d": 72.2222583333205,
      "v": 84
    },
    {
      "midi": 62,
      "hit": false,
      "t": 252666.7929999941,
      "d": 94.44449166665436,
      "v": 95
    },
    {
      "midi": 57,
      "hit": false,
      "t": 252666.7929999941,
      "d": 100.00004999997327,
      "v": 85
    },
    {
      "midi": 50,
      "hit": false,
      "t": 252666.7929999941,
      "d": 111.1111666666402,
      "v": 73
    },
    {
      "midi": 38,
      "hit": false,
      "t": 252666.7929999941,
      "d": 127.77784166662605,
      "v": 93
    },
    {
      "midi": 55,
      "hit": false,
      "t": 253000.12649999405,
      "d": 44.44446666666772,
      "v": 48
    },
    {
      "midi": 55,
      "hit": false,
      "t": 253333.45999999405,
      "d": 211.11121666667168,
      "v": 92
    },
    {
      "midi": 59,
      "hit": false,
      "t": 253333.45999999405,
      "d": 238.88900833332445,
      "v": 91
    },
    {
      "midi": 62,
      "hit": false,
      "t": 253333.45999999405,
      "d": 238.88900833332445,
      "v": 97
    },
    {
      "midi": 43,
      "hit": false,
      "t": 253333.45999999405,
      "d": 705.5559083332773,
      "v": 83
    },
    {
      "midi": 31,
      "hit": false,
      "t": 253333.45999999405,
      "d": 2250.001124999835,
      "v": 93
    },
    {
      "midi": 59,
      "hit": false,
      "t": 253666.79349999403,
      "d": 72.2222583333205,
      "v": 39
    },
    {
      "midi": 55,
      "hit": false,
      "t": 253666.79349999403,
      "d": 100.00004999997327,
      "v": 56
    },
    {
      "midi": 55,
      "hit": false,
      "t": 254000.126999994,
      "d": 138.88895833332208,
      "v": 99
    },
    {
      "midi": 62,
      "hit": false,
      "t": 254000.126999994,
      "d": 383.33352499993634,
      "v": 99
    },
    {
      "midi": 59,
      "hit": false,
      "t": 254000.126999994,
      "d": 433.333549999923,
      "v": 97
    },
    {
      "midi": 55,
      "hit": false,
      "t": 254166.793749994,
      "d": 116.66672499998822,
      "v": 32
    },
    {
      "midi": 43,
      "hit": false,
      "t": 254333.46049999396,
      "d": 355.5557333333127,
      "v": 93
    },
    {
      "midi": 59,
      "hit": false,
      "t": 254500.12724999394,
      "d": 55.55558333333465,
      "v": 52
    },
    {
      "midi": 55,
      "hit": false,
      "t": 254500.12724999394,
      "d": 100.00005000000237,
      "v": 90
    },
    {
      "midi": 57,
      "hit": false,
      "t": 254666.79399999394,
      "d": 255.5556833333394,
      "v": 119
    },
    {
      "midi": 43,
      "hit": false,
      "t": 254833.46074999394,
      "d": 477.778016666678,
      "v": 96
    },
    {
      "midi": 57,
      "hit": false,
      "t": 255333.46099999396,
      "d": 83.33337499998743,
      "v": 109
    },
    {
      "midi": 55,
      "hit": false,
      "t": 255333.46099999396,
      "d": 88.88893333330634,
      "v": 107
    },
    {
      "midi": 62,
      "hit": false,
      "t": 255333.46099999396,
      "d": 105.55560833329218,
      "v": 99
    },
    {
      "midi": 43,
      "hit": false,
      "t": 255500.1277499939,
      "d": 111.1111666666402,
      "v": 83
    },
    {
      "midi": 52,
      "hit": false,
      "t": 255833.46124999388,
      "d": 94.44449166665436,
      "v": 23
    },
    {
      "midi": 52,
      "hit": false,
      "t": 256000.12799999386,
      "d": 111.1111666666402,
      "v": 92
    },
    {
      "midi": 55,
      "hit": false,
      "t": 256000.12799999386,
      "d": 166.66674999997485,
      "v": 109
    },
    {
      "midi": 60,
      "hit": false,
      "t": 256000.12799999386,
      "d": 166.66674999997485,
      "v": 105
    },
    {
      "midi": 33,
      "hit": false,
      "t": 256000.12799999386,
      "d": 194.44454166662763,
      "v": 92
    },
    {
      "midi": 45,
      "hit": false,
      "t": 256000.12799999386,
      "d": 244.44456666661426,
      "v": 78
    },
    {
      "midi": 55,
      "hit": false,
      "t": 256666.7949999938,
      "d": 83.33337499998743,
      "v": 99
    },
    {
      "midi": 60,
      "hit": false,
      "t": 256666.7949999938,
      "d": 111.1111666666402,
      "v": 91
    },
    {
      "midi": 54,
      "hit": false,
      "t": 257333.4619999938,
      "d": 133.33339999997406,
      "v": 92
    },
    {
      "midi": 57,
      "hit": false,
      "t": 257333.4619999938,
      "d": 183.3334249999607,
      "v": 102
    },
    {
      "midi": 62,
      "hit": false,
      "t": 257333.4619999938,
      "d": 188.8889833332796,
      "v": 99
    },
    {
      "midi": 47,
      "hit": false,
      "t": 257333.4619999938,
      "d": 677.7781166666246,
      "v": 74
    },
    {
      "midi": 35,
      "hit": false,
      "t": 257333.4619999938,
      "d": 872.2226583332522,
      "v": 84
    },
    {
      "midi": 54,
      "hit": false,
      "t": 258000.12899999376,
      "d": 83.33337499998743,
      "v": 98
    },
    {
      "midi": 57,
      "hit": false,
      "t": 258000.12899999376,
      "d": 133.33339999997406,
      "v": 99
    },
    {
      "midi": 62,
      "hit": false,
      "t": 258000.12899999376,
      "d": 144.444516666641,
      "v": 90
    },
    {
      "midi": 57,
      "hit": false,
      "t": 258666.7959999937,
      "d": 127.77784166665515,
      "v": 85
    },
    {
      "midi": 60,
      "hit": false,
      "t": 258666.7959999937,
      "d": 133.33339999997406,
      "v": 95
    },
    {
      "midi": 64,
      "hit": false,
      "t": 258666.7959999937,
      "d": 144.444516666641,
      "v": 95
    },
    {
      "midi": 45,
      "hit": false,
      "t": 258666.7959999937,
      "d": 588.8891833332891,
      "v": 75
    },
    {
      "midi": 33,
      "hit": false,
      "t": 258666.7959999937,
      "d": 777.7781666665978,
      "v": 90
    },
    {
      "midi": 57,
      "hit": false,
      "t": 259000.12949999367,
      "d": 61.111141666653566,
      "v": 77
    },
    {
      "midi": 60,
      "hit": false,
      "t": 259333.46299999364,
      "d": 61.111141666653566,
      "v": 93
    },
    {
      "midi": 57,
      "hit": false,
      "t": 259333.46299999364,
      "d": 72.2222583333205,
      "v": 103
    },
    {
      "midi": 64,
      "hit": false,
      "t": 259333.46299999364,
      "d": 72.2222583333205,
      "v": 93
    },
    {
      "midi": 45,
      "hit": false,
      "t": 259500.12974999362,
      "d": 77.77781666666851,
      "v": 113
    },
    {
      "midi": 64,
      "hit": false,
      "t": 259666.79649999362,
      "d": 38.888908333319705,
      "v": 75
    },
    {
      "midi": 57,
      "hit": false,
      "t": 259666.79649999362,
      "d": 44.44446666663862,
      "v": 78
    },
    {
      "midi": 60,
      "hit": false,
      "t": 259666.79649999362,
      "d": 44.44446666663862,
      "v": 78
    },
    {
      "midi": 66,
      "hit": false,
      "t": 259833.4632499936,
      "d": 22.22223333333386,
      "v": 63
    },
    {
      "midi": 50,
      "hit": false,
      "t": 259833.4632499936,
      "d": 50.000024999986636,
      "v": 49
    },
    {
      "midi": 57,
      "hit": false,
      "t": 259833.4632499936,
      "d": 100.00004999997327,
      "v": 81
    },
    {
      "midi": 66,
      "hit": false,
      "t": 260000.12999999357,
      "d": 150.000074999989,
      "v": 106
    },
    {
      "midi": 57,
      "hit": false,
      "t": 260000.12999999357,
      "d": 155.55563333330792,
      "v": 100
    },
    {
      "midi": 62,
      "hit": false,
      "t": 260000.12999999357,
      "d": 155.55563333330792,
      "v": 113
    },
    {
      "midi": 50,
      "hit": false,
      "t": 260000.12999999357,
      "d": 688.8892333333206,
      "v": 76
    },
    {
      "midi": 38,
      "hit": false,
      "t": 260000.12999999357,
      "d": 805.5559583332797,
      "v": 95
    },
    {
      "midi": 57,
      "hit": false,
      "t": 260333.46349999355,
      "d": 44.44446666666772,
      "v": 59
    },
    {
      "midi": 57,
      "hit": false,
      "t": 260666.79699999356,
      "d": 66.66670000000158,
      "v": 95
    },
    {
      "midi": 62,
      "hit": false,
      "t": 260666.79699999356,
      "d": 83.33337499998743,
      "v": 107
    },
    {
      "midi": 66,
      "hit": false,
      "t": 260666.79699999356,
      "d": 88.88893333330634,
      "v": 115
    },
    {
      "midi": 38,
      "hit": false,
      "t": 261000.1304999935,
      "d": 61.111141666653566,
      "v": 80
    },
    {
      "midi": 60,
      "hit": false,
      "t": 261333.4639999935,
      "d": 222.2223333333386,
      "v": 95
    },
    {
      "midi": 64,
      "hit": false,
      "t": 261333.4639999935,
      "d": 266.66680000000633,
      "v": 99
    }
  ]
}