{
  "jsonPath": "Pop/Singer-Songwriter/Jimmy Webb/wichita-lineman-instrumental-live-version.json",
  "path": "Pop\\Singer-Songwriter\\Jimmy Webb\\Wichita Lineman (Instrumental - Live Version).mid",
  "name": "Wichita Lineman (Instrumental - Live Version)",
  "difficulty": "Advanced",
  "bpm": 82.98996236405206,
  "notes": [
    {
      "midi": 46,
      "hit": false,
      "t": 4337.874,
      "d": 150.62062499999956,
      "v": 117
    },
    {
      "midi": 45,
      "hit": false,
      "t": 4518.61875,
      "d": 128.0275312499998,
      "v": 91
    },
    {
      "midi": 41,
      "hit": false,
      "t": 4880.108249999999,
      "d": 143.08959374999995,
      "v": 94
    },
    {
      "midi": 38,
      "hit": false,
      "t": 5241.597749999999,
      "d": 112.96546874999967,
      "v": 79
    },
    {
      "midi": 36,
      "hit": false,
      "t": 5422.342499999999,
      "d": 210.86887500000012,
      "v": 91
    },
    {
      "midi": 29,
      "hit": false,
      "t": 5783.8319999999985,
      "d": 881.1306562500004,
      "v": 106
    },
    {
      "midi": 53,
      "hit": false,
      "t": 5783.832,
      "d": 2681.047125000001,
      "v": 109
    },
    {
      "midi": 41,
      "hit": false,
      "t": 5783.832,
      "d": 881.1306562500004,
      "v": 126
    },
    {
      "midi": 81,
      "hit": false,
      "t": 5783.832,
      "d": 399.14465624999957,
      "v": 97
    },
    {
      "midi": 60,
      "hit": false,
      "t": 5783.832,
      "d": 2756.3574375000007,
      "v": 69
    },
    {
      "midi": 67,
      "hit": false,
      "t": 5783.832,
      "d": 2831.6677500000005,
      "v": 71
    },
    {
      "midi": 64,
      "hit": false,
      "t": 5783.832,
      "d": 2854.2608437500003,
      "v": 75
    },
    {
      "midi": 84,
      "hit": false,
      "t": 5783.832,
      "d": 105.43443750000006,
      "v": 112
    },
    {
      "midi": 69,
      "hit": false,
      "t": 5829.0181875,
      "d": 2387.3369062499987,
      "v": 96
    },
    {
      "midi": 57,
      "hit": false,
      "t": 5829.018187500001,
      "d": 2650.923,
      "v": 104
    },
    {
      "midi": 65,
      "hit": false,
      "t": 5836.549218749999,
      "d": 2349.6817499999997,
      "v": 96
    },
    {
      "midi": 72,
      "hit": false,
      "t": 5836.549218749999,
      "d": 2387.3369062499996,
      "v": 96
    },
    {
      "midi": 77,
      "hit": false,
      "t": 5844.080249999999,
      "d": 2583.1437187499996,
      "v": 96
    },
    {
      "midi": 60,
      "hit": false,
      "t": 5874.204375000001,
      "d": 2673.5160937499986,
      "v": 100
    },
    {
      "midi": 64,
      "hit": false,
      "t": 5919.390562500002,
      "d": 2696.1091874999975,
      "v": 122
    },
    {
      "midi": 84,
      "hit": false,
      "t": 6145.3215,
      "d": 1777.323375,
      "v": 97
    },
    {
      "midi": 29,
      "hit": false,
      "t": 6868.3004999999985,
      "d": 203.3378437499996,
      "v": 106
    },
    {
      "midi": 41,
      "hit": false,
      "t": 6868.3005,
      "d": 203.3378437499996,
      "v": 126
    },
    {
      "midi": 89,
      "hit": false,
      "t": 6868.3005,
      "d": 82.8413437500003,
      "v": 112
    },
    {
      "midi": 77,
      "hit": false,
      "t": 6868.3005,
      "d": 173.21371875000023,
      "v": 117
    },
    {
      "midi": 89,
      "hit": false,
      "t": 6868.3005,
      "d": 173.21371875000023,
      "v": 117
    },
    {
      "midi": 77,
      "hit": false,
      "t": 7049.04525,
      "d": 173.21371875000023,
      "v": 117
    },
    {
      "midi": 89,
      "hit": false,
      "t": 7049.04525,
      "d": 173.21371875000023,
      "v": 117
    },
    {
      "midi": 29,
      "hit": false,
      "t": 7229.789999999998,
      "d": 1001.6271562499996,
      "v": 91
    },
    {
      "midi": 41,
      "hit": false,
      "t": 7229.79,
      "d": 1001.6271562499996,
      "v": 126
    },
    {
      "midi": 79,
      "hit": false,
      "t": 7229.79,
      "d": 173.21371875000023,
      "v": 117
    },
    {
      "midi": 91,
      "hit": false,
      "t": 7229.79,
      "d": 173.21371875000023,
      "v": 117
    },
    {
      "midi": 91,
      "hit": false,
      "t": 7229.790000000001,
      "d": 75.31031249999978,
      "v": 112
    },
    {
      "midi": 79,
      "hit": false,
      "t": 7410.53475,
      "d": 173.21371875000023,
      "v": 117
    },
    {
      "midi": 91,
      "hit": false,
      "t": 7410.53475,
      "d": 173.21371875000023,
      "v": 117
    },
    {
      "midi": 86,
      "hit": false,
      "t": 7952.769,
      "d": 722.9789999999994,
      "v": 97
    },
    {
      "midi": 41,
      "hit": false,
      "t": 8314.258499999998,
      "d": 308.77228124999965,
      "v": 91
    },
    {
      "midi": 53,
      "hit": false,
      "t": 8314.2585,
      "d": 308.77228124999965,
      "v": 126
    },
    {
      "midi": 89,
      "hit": false,
      "t": 8314.2585,
      "d": 82.8413437500003,
      "v": 112
    },
    {
      "midi": 29,
      "hit": false,
      "t": 8675.747999999998,
      "d": 1227.55809375,
      "v": 79
    },
    {
      "midi": 53,
      "hit": false,
      "t": 8675.748,
      "d": 2643.3919687499983,
      "v": 104
    },
    {
      "midi": 41,
      "hit": false,
      "t": 8675.748,
      "d": 1227.55809375,
      "v": 126
    },
    {
      "midi": 86,
      "hit": false,
      "t": 8675.748,
      "d": 1.5062062500001048,
      "v": 97
    },
    {
      "midi": 91,
      "hit": false,
      "t": 8675.748,
      "d": 2854.2608437500003,
      "v": 97
    },
    {
      "midi": 58,
      "hit": false,
      "t": 8675.748,
      "d": 2816.6056874999995,
      "v": 54
    },
    {
      "midi": 91,
      "hit": false,
      "t": 8675.748,
      "d": 75.31031249999978,
      "v": 112
    },
    {
      "midi": 62,
      "hit": false,
      "t": 8675.748000000001,
      "d": 2763.8884687499994,
      "v": 73
    },
    {
      "midi": 65,
      "hit": false,
      "t": 8675.748000000001,
      "d": 2786.481562499999,
      "v": 66
    },
    {
      "midi": 70,
      "hit": false,
      "t": 8713.403156249999,
      "d": 2244.2473124999997,
      "v": 96
    },
    {
      "midi": 74,
      "hit": false,
      "t": 8713.403156249999,
      "d": 2244.2473124999997,
      "v": 96
    },
    {
      "midi": 58,
      "hit": false,
      "t": 8720.9341875,
      "d": 2665.985062499998,
      "v": 92
    },
    {
      "midi": 67,
      "hit": false,
      "t": 8720.9341875,
      "d": 2244.2473124999997,
      "v": 96
    },
    {
      "midi": 62,
      "hit": false,
      "t": 8766.120374999999,
      "d": 2703.640218749999,
      "v": 104
    },
    {
      "midi": 65,
      "hit": false,
      "t": 8811.306562499998,
      "d": 2726.2333124999986,
      "v": 96
    },
    {
      "midi": 89,
      "hit": false,
      "t": 9760.216499999999,
      "d": 67.77928124999926,
      "v": 112
    },
    {
      "midi": 77,
      "hit": false,
      "t": 9760.2165,
      "d": 173.21371874999932,
      "v": 117
    },
    {
      "midi": 89,
      "hit": false,
      "t": 9760.2165,
      "d": 173.21371874999932,
      "v": 117
    },
    {
      "midi": 77,
      "hit": false,
      "t": 9940.96125,
      "d": 173.21371874999932,
      "v": 117
    },
    {
      "midi": 89,
      "hit": false,
      "t": 9940.96125,
      "d": 173.21371874999932,
      "v": 117
    },
    {
      "midi": 46,
      "hit": false,
      "t": 10121.705999999998,
      "d": 150.62062499999956,
      "v": 79
    },
    {
      "midi": 91,
      "hit": false,
      "t": 10121.705999999998,
      "d": 60.24825000000055,
      "v": 112
    },
    {
      "midi": 58,
      "hit": false,
      "t": 10121.706,
      "d": 150.62062499999956,
      "v": 126
    },
    {
      "midi": 79,
      "hit": false,
      "t": 10121.706,
      "d": 173.21371874999932,
      "v": 117
    },
    {
      "midi": 91,
      "hit": false,
      "t": 10121.706,
      "d": 173.21371874999932,
      "v": 117
    },
    {
      "midi": 45,
      "hit": false,
      "t": 10302.450749999998,
      "d": 195.8068125000009,
      "v": 106
    },
    {
      "midi": 57,
      "hit": false,
      "t": 10302.45075,
      "d": 195.8068125000009,
      "v": 126
    },
    {
      "midi": 79,
      "hit": false,
      "t": 10302.45075,
      "d": 173.21371874999932,
      "v": 117
    },
    {
      "midi": 91,
      "hit": false,
      "t": 10302.45075,
      "d": 173.21371874999932,
      "v": 117
    },
    {
      "midi": 41,
      "hit": false,
      "t": 10663.94025,
      "d": 173.21371874999932,
      "v": 94
    },
    {
      "midi": 53,
      "hit": false,
      "t": 10663.940250000001,
      "d": 173.21371874999932,
      "v": 126
    },
    {
      "midi": 38,
      "hit": false,
      "t": 11025.42975,
      "d": 97.90340624999953,
      "v": 94
    },
    {
      "midi": 50,
      "hit": false,
      "t": 11025.429750000001,
      "d": 97.90340624999953,
      "v": 126
    },
    {
      "midi": 36,
      "hit": false,
      "t": 11206.1745,
      "d": 218.39990625000064,
      "v": 106
    },
    {
      "midi": 48,
      "hit": false,
      "t": 11206.174500000001,
      "d": 218.39990625000064,
      "v": 126
    },
    {
      "midi": 72,
      "hit": false,
      "t": 11545.07090625,
      "d": 2387.3369062500005,
      "v": 96
    },
    {
      "midi": 69,
      "hit": false,
      "t": 11552.6019375,
      "d": 2334.6196875000005,
      "v": 96
    },
    {
      "midi": 65,
      "hit": false,
      "t": 11560.13296875,
      "d": 2304.4955625000002,
      "v": 96
    },
    {
      "midi": 53,
      "hit": false,
      "t": 11567.663999999997,
      "d": 2583.143718749998,
      "v": 104
    },
    {
      "midi": 84,
      "hit": false,
      "t": 11567.663999999999,
      "d": 105.43443750000006,
      "v": 112
    },
    {
      "midi": 29,
      "hit": false,
      "t": 11567.664,
      "d": 835.9444687499999,
      "v": 106
    },
    {
      "midi": 81,
      "hit": false,
      "t": 11567.664,
      "d": 451.8618750000005,
      "v": 97
    },
    {
      "midi": 60,
      "hit": false,
      "t": 11567.664,
      "d": 2756.357437499999,
      "v": 66
    },
    {
      "midi": 67,
      "hit": false,
      "t": 11567.664,
      "d": 2824.136718749998,
      "v": 76
    },
    {
      "midi": 64,
      "hit": false,
      "t": 11567.664,
      "d": 2884.3849687499987,
      "v": 71
    },
    {
      "midi": 77,
      "hit": false,
      "t": 11567.664,
      "d": 2379.805874999998,
      "v": 96
    },
    {
      "midi": 41,
      "hit": false,
      "t": 11567.664000000002,
      "d": 835.9444687499999,
      "v": 126
    },
    {
      "midi": 57,
      "hit": false,
      "t": 11612.850187499997,
      "d": 2515.3644374999985,
      "v": 109
    },
    {
      "midi": 60,
      "hit": false,
      "t": 11658.036374999996,
      "d": 2515.3644374999985,
      "v": 88
    },
    {
      "midi": 64,
      "hit": false,
      "t": 11703.222562499996,
      "d": 2500.3023749999993,
      "v": 109
    },
    {
      "midi": 84,
      "hit": false,
      "t": 11929.1535,
      "d": 1378.1787187500013,
      "v": 97
    },
    {
      "midi": 29,
      "hit": false,
      "t": 12652.1325,
      "d": 195.8068125000009,
      "v": 106
    },
    {
      "midi": 89,
      "hit": false,
      "t": 12652.1325,
      "d": 90.37237500000083,
      "v": 112
    },
    {
      "midi": 77,
      "hit": false,
      "t": 12652.1325,
      "d": 173.21371874999932,
      "v": 117
    },
    {
      "midi": 89,
      "hit": false,
      "t": 12652.1325,
      "d": 173.21371874999932,
      "v": 117
    },
    {
      "midi": 41,
      "hit": false,
      "t": 12652.132500000003,
      "d": 195.8068125000009,
      "v": 126
    },
    {
      "midi": 77,
      "hit": false,
      "t": 12832.87725,
      "d": 173.21371874999932,
      "v": 117
    },
    {
      "midi": 89,
      "hit": false,
      "t": 12832.87725,
      "d": 173.21371874999932,
      "v": 117
    },
    {
      "midi": 79,
      "hit": false,
      "t": 13013.622,
      "d": 173.21371874999932,
      "v": 117
    },
    {
      "midi": 91,
      "hit": false,
      "t": 13013.622,
      "d": 173.21371874999932,
      "v": 117
    },
    {
      "midi": 29,
      "hit": false,
      "t": 13013.622000000001,
      "d": 1348.054593750001,
      "v": 94
    },
    {
      "midi": 91,
      "hit": false,
      "t": 13013.622000000001,
      "d": 82.8413437500003,
      "v": 112
    },
    {
      "midi": 41,
      "hit": false,
      "t": 13013.622000000005,
      "d": 1348.054593750001,
      "v": 126
    },
    {
      "midi": 79,
      "hit": false,
      "t": 13194.36675,
      "d": 173.21371874999932,
      "v": 117
    },
    {
      "midi": 91,
      "hit": false,
      "t": 13194.36675,
      "d": 173.21371874999932,
      "v": 117
    },
    {
      "midi": 86,
      "hit": false,
      "t": 13375.1115,
      "d": 414.2067187499997,
      "v": 97
    },
    {
      "midi": 81,
      "hit": false,
      "t": 13736.601,
      "d": 384.08259374999943,
      "v": 97
    },
    {
      "midi": 84,
      "hit": false,
      "t": 14098.0905,
      "d": 399.1446562500005,
      "v": 97
    },
    {
      "midi": 89,
      "hit": false,
      "t": 14098.090500000002,
      "d": 75.31031249999978,
      "v": 112
    },
    {
      "midi": 67,
      "hit": false,
      "t": 14406.862781249998,
      "d": 2327.088656250002,
      "v": 96
    },
    {
      "midi": 72,
      "hit": false,
      "t": 14414.393812499999,
      "d": 2319.5576250000013,
      "v": 96
    },
    {
      "midi": 77,
      "hit": false,
      "t": 14414.393812499999,
      "d": 2357.2127812500003,
      "v": 96
    },
    {
      "midi": 48,
      "hit": false,
      "t": 14459.579999999994,
      "d": 2809.074656249999,
      "v": 122
    },
    {
      "midi": 58,
      "hit": false,
      "t": 14459.579999999998,
      "d": 2756.357437499999,
      "v": 56
    },
    {
      "midi": 62,
      "hit": false,
      "t": 14459.58,
      "d": 2696.1091875,
      "v": 72
    },
    {
      "midi": 79,
      "hit": false,
      "t": 14459.58,
      "d": 2711.1712500000012,
      "v": 97
    },
    {
      "midi": 74,
      "hit": false,
      "t": 14459.58,
      "d": 2824.136718750002,
      "v": 97
    },
    {
      "midi": 65,
      "hit": false,
      "t": 14459.58,
      "d": 2876.853937500002,
      "v": 73
    },
    {
      "midi": 36,
      "hit": false,
      "t": 14459.580000000002,
      "d": 2748.8264062499984,
      "v": 127
    },
    {
      "midi": 91,
      "hit": false,
      "t": 14459.580000000002,
      "d": 60.24825000000055,
      "v": 112
    },
    {
      "midi": 48,
      "hit": false,
      "t": 14459.580000000005,
      "d": 2748.8264062499984,
      "v": 126
    },
    {
      "midi": 58,
      "hit": false,
      "t": 14504.766187499994,
      "d": 2809.074656249999,
      "v": 114
    },
    {
      "midi": 62,
      "hit": false,
      "t": 14549.952374999993,
      "d": 2824.13671875,
      "v": 120
    },
    {
      "midi": 65,
      "hit": false,
      "t": 14595.138562499993,
      "d": 2831.6677500000005,
      "v": 100
    },
    {
      "midi": 48,
      "hit": false,
      "t": 14821.0695,
      "d": 346.42743750000045,
      "v": 114
    },
    {
      "midi": 48,
      "hit": false,
      "t": 14821.0695,
      "d": 346.42743750000045,
      "v": 117
    },
    {
      "midi": 53,
      "hit": false,
      "t": 15182.559,
      "d": 346.42743750000045,
      "v": 114
    },
    {
      "midi": 53,
      "hit": false,
      "t": 15182.559,
      "d": 346.42743750000045,
      "v": 117
    },
    {
      "midi": 55,
      "hit": false,
      "t": 15559.1105625,
      "d": 195.8068125000009,
      "v": 114
    },
    {
      "midi": 55,
      "hit": false,
      "t": 15559.1105625,
      "d": 195.8068125000009,
      "v": 117
    },
    {
      "midi": 58,
      "hit": false,
      "t": 15762.448406250001,
      "d": 459.3929062499992,
      "v": 114
    },
    {
      "midi": 58,
      "hit": false,
      "t": 15762.448406250001,
      "d": 459.3929062499992,
      "v": 117
    },
    {
      "midi": 58,
      "hit": false,
      "t": 16244.43440625,
      "d": 331.3653749999994,
      "v": 114
    },
    {
      "midi": 58,
      "hit": false,
      "t": 16244.43440625,
      "d": 331.3653749999994,
      "v": 117
    },
    {
      "midi": 57,
      "hit": false,
      "t": 16628.517,
      "d": 361.4894999999997,
      "v": 114
    },
    {
      "midi": 57,
      "hit": false,
      "t": 16628.517,
      "d": 361.4894999999997,
      "v": 117
    },
    {
      "midi": 55,
      "hit": false,
      "t": 16990.0065,
      "d": 346.42743749999863,
      "v": 114
    },
    {
      "midi": 55,
      "hit": false,
      "t": 16990.0065,
      "d": 346.42743749999863,
      "v": 117
    },
    {
      "midi": 57,
      "hit": false,
      "t": 17351.496,
      "d": 504.5790937499987,
      "v": 114
    },
    {
      "midi": 57,
      "hit": false,
      "t": 17351.496,
      "d": 504.5790937499987,
      "v": 117
    },
    {
      "midi": 34,
      "hit": false,
      "t": 17351.496,
      "d": 828.4134374999994,
      "v": 127
    },
    {
      "midi": 58,
      "hit": false,
      "t": 17351.496000000003,
      "d": 361.4894999999997,
      "v": 112
    },
    {
      "midi": 62,
      "hit": false,
      "t": 17351.496000000003,
      "d": 361.4894999999997,
      "v": 112
    },
    {
      "midi": 57,
      "hit": false,
      "t": 17351.496000000003,
      "d": 1250.1511874999997,
      "v": 111
    },
    {
      "midi": 74,
      "hit": false,
      "t": 17359.02703125,
      "d": 2259.3093750000007,
      "v": 96
    },
    {
      "midi": 70,
      "hit": false,
      "t": 17366.5580625,
      "d": 2266.8404062500013,
      "v": 96
    },
    {
      "midi": 77,
      "hit": false,
      "t": 17374.08909375,
      "d": 2251.77834375,
      "v": 96
    },
    {
      "midi": 58,
      "hit": false,
      "t": 17712.985500000003,
      "d": 361.4894999999997,
      "v": 100
    },
    {
      "midi": 62,
      "hit": false,
      "t": 17712.985500000003,
      "d": 361.4894999999997,
      "v": 100
    },
    {
      "midi": 65,
      "hit": false,
      "t": 17712.985500000003,
      "d": 361.4894999999997,
      "v": 100
    },
    {
      "midi": 69,
      "hit": false,
      "t": 17712.985500000003,
      "d": 361.4894999999997,
      "v": 100
    },
    {
      "midi": 60,
      "hit": false,
      "t": 17863.606125,
      "d": 1686.951000000001,
      "v": 114
    },
    {
      "midi": 60,
      "hit": false,
      "t": 17863.606125,
      "d": 1686.951000000001,
      "v": 117
    },
    {
      "midi": 58,
      "hit": false,
      "t": 18074.475000000002,
      "d": 361.4894999999997,
      "v": 100
    },
    {
      "midi": 62,
      "hit": false,
      "t": 18074.475000000002,
      "d": 361.4894999999997,
      "v": 100
    },
    {
      "midi": 65,
      "hit": false,
      "t": 18074.475000000002,
      "d": 361.4894999999997,
      "v": 100
    },
    {
      "midi": 69,
      "hit": false,
      "t": 18074.475000000002,
      "d": 361.4894999999997,
      "v": 100
    },
    {
      "midi": 34,
      "hit": false,
      "t": 18435.9645,
      "d": 135.55856249999852,
      "v": 85
    },
    {
      "midi": 58,
      "hit": false,
      "t": 18435.964500000002,
      "d": 361.4894999999997,
      "v": 100
    },
    {
      "midi": 62,
      "hit": false,
      "t": 18435.964500000002,
      "d": 361.4894999999997,
      "v": 100
    },
    {
      "midi": 65,
      "hit": false,
      "t": 18435.964500000002,
      "d": 361.4894999999997,
      "v": 100
    },
    {
      "midi": 58,
      "hit": false,
      "t": 18797.454,
      "d": 361.4894999999997,
      "v": 112
    },
    {
      "midi": 62,
      "hit": false,
      "t": 18797.454,
      "d": 361.4894999999997,
      "v": 112
    },
    {
      "midi": 58,
      "hit": false,
      "t": 19158.9435,
      "d": 361.4894999999997,
      "v": 100
    },
    {
      "midi": 62,
      "hit": false,
      "t": 19158.9435,
      "d": 361.4894999999997,
      "v": 100
    },
    {
      "midi": 65,
      "hit": false,
      "t": 19158.9435,
      "d": 361.4894999999997,
      "v": 100
    },
    {
      "midi": 58,
      "hit": false,
      "t": 19520.433,
      "d": 361.4894999999997,
      "v": 100
    },
    {
      "midi": 62,
      "hit": false,
      "t": 19520.433,
      "d": 361.4894999999997,
      "v": 100
    },
    {
      "midi": 65,
      "hit": false,
      "t": 19520.433,
      "d": 361.4894999999997,
      "v": 100
    },
    {
      "midi": 69,
      "hit": false,
      "t": 19520.433,
      "d": 361.4894999999997,
      "v": 100
    },
    {
      "midi": 34,
      "hit": false,
      "t": 19881.922499999997,
      "d": 120.4965000000011,
      "v": 105
    },
    {
      "midi": 58,
      "hit": false,
      "t": 19881.9225,
      "d": 361.4894999999997,
      "v": 100
    },
    {
      "midi": 62,
      "hit": false,
      "t": 19881.9225,
      "d": 361.4894999999997,
      "v": 100
    },
    {
      "midi": 65,
      "hit": false,
      "t": 19881.9225,
      "d": 361.4894999999997,
      "v": 100
    },
    {
      "midi": 33,
      "hit": false,
      "t": 20243.411999999997,
      "d": 851.006531250001,
      "v": 94
    },
    {
      "midi": 57,
      "hit": false,
      "t": 20243.412,
      "d": 361.4894999999997,
      "v": 113
    },
    {
      "midi": 60,
      "hit": false,
      "t": 20243.412,
      "d": 361.4894999999997,
      "v": 113
    },
    {
      "midi": 76,
      "hit": false,
      "t": 20273.536125000002,
      "d": 2394.8679374999992,
      "v": 96
    },
    {
      "midi": 72,
      "hit": false,
      "t": 20273.536125000002,
      "d": 2417.461031250001,
      "v": 96
    },
    {
      "midi": 69,
      "hit": false,
      "t": 20281.067156250003,
      "d": 2424.9920625000013,
      "v": 96
    },
    {
      "midi": 57,
      "hit": false,
      "t": 20604.9015,
      "d": 361.4894999999997,
      "v": 100
    },
    {
      "midi": 60,
      "hit": false,
      "t": 20604.9015,
      "d": 361.4894999999997,
      "v": 100
    },
    {
      "midi": 64,
      "hit": false,
      "t": 20604.9015,
      "d": 361.4894999999997,
      "v": 100
    },
    {
      "midi": 53,
      "hit": false,
      "t": 20966.391,
      "d": 301.2412499999991,
      "v": 114
    },
    {
      "midi": 53,
      "hit": false,
      "t": 20966.391,
      "d": 301.2412499999991,
      "v": 117
    },
    {
      "midi": 57,
      "hit": false,
      "t": 20966.391,
      "d": 361.4894999999997,
      "v": 100
    },
    {
      "midi": 60,
      "hit": false,
      "t": 20966.391,
      "d": 361.4894999999997,
      "v": 100
    },
    {
      "midi": 64,
      "hit": false,
      "t": 20966.391,
      "d": 361.4894999999997,
      "v": 100
    },
    {
      "midi": 67,
      "hit": false,
      "t": 20966.391,
      "d": 361.4894999999997,
      "v": 100
    },
    {
      "midi": 55,
      "hit": false,
      "t": 21327.8805,
      "d": 278.6481562500012,
      "v": 114
    },
    {
      "midi": 55,
      "hit": false,
      "t": 21327.8805,
      "d": 278.6481562500012,
      "v": 117
    },
    {
      "midi": 57,
      "hit": false,
      "t": 21327.8805,
      "d": 361.4894999999997,
      "v": 100
    },
    {
      "midi": 60,
      "hit": false,
      "t": 21327.8805,
      "d": 361.4894999999997,
      "v": 100
    },
    {
      "midi": 64,
      "hit": false,
      "t": 21327.8805,
      "d": 361.4894999999997,
      "v": 100
    },
    {
      "midi": 33,
      "hit": false,
      "t": 21327.8805,
      "d": 143.08959374999904,
      "v": 79
    },
    {
      "midi": 58,
      "hit": false,
      "t": 21689.37,
      "d": 481.9860000000008,
      "v": 114
    },
    {
      "midi": 58,
      "hit": false,
      "t": 21689.37,
      "d": 481.9860000000008,
      "v": 117
    },
    {
      "midi": 57,
      "hit": false,
      "t": 21689.37,
      "d": 361.4894999999997,
      "v": 113
    },
    {
      "midi": 60,
      "hit": false,
      "t": 21689.37,
      "d": 361.4894999999997,
      "v": 113
    },
    {
      "midi": 33,
      "hit": false,
      "t": 21689.37,
      "d": 1250.1511874999997,
      "v": 79
    },
    {
      "midi": 57,
      "hit": false,
      "t": 22050.8595,
      "d": 361.4894999999997,
      "v": 100
    },
    {
      "midi": 60,
      "hit": false,
      "t": 22050.8595,
      "d": 361.4894999999997,
      "v": 100
    },
    {
      "midi": 64,
      "hit": false,
      "t": 22050.8595,
      "d": 361.4894999999997,
      "v": 100
    },
    {
      "midi": 57,
      "hit": false,
      "t": 22231.60425,
      "d": 527.1721875000003,
      "v": 114
    },
    {
      "midi": 57,
      "hit": false,
      "t": 22231.60425,
      "d": 527.1721875000003,
      "v": 117
    },
    {
      "midi": 57,
      "hit": false,
      "t": 22412.349,
      "d": 361.4894999999997,
      "v": 100
    },
    {
      "midi": 60,
      "hit": false,
      "t": 22412.349,
      "d": 361.4894999999997,
      "v": 100
    },
    {
      "midi": 64,
      "hit": false,
      "t": 22412.349,
      "d": 361.4894999999997,
      "v": 100
    },
    {
      "midi": 67,
      "hit": false,
      "t": 22412.349,
      "d": 361.4894999999997,
      "v": 100
    },
    {
      "midi": 57,
      "hit": false,
      "t": 22773.838499999998,
      "d": 361.4894999999997,
      "v": 100
    },
    {
      "midi": 60,
      "hit": false,
      "t": 22773.838499999998,
      "d": 361.4894999999997,
      "v": 100
    },
    {
      "midi": 64,
      "hit": false,
      "t": 22773.838499999998,
      "d": 361.4894999999997,
      "v": 100
    },
    {
      "midi": 53,
      "hit": false,
      "t": 22773.8385,
      "d": 369.0205312500002,
      "v": 114
    },
    {
      "midi": 53,
      "hit": false,
      "t": 22773.8385,
      "d": 369.0205312500002,
      "v": 117
    },
    {
      "midi": 55,
      "hit": false,
      "t": 23135.327999999998,
      "d": 361.4894999999997,
      "v": 115
    },
    {
      "midi": 58,
      "hit": false,
      "t": 23135.327999999998,
      "d": 361.4894999999997,
      "v": 114
    },
    {
      "midi": 36,
      "hit": false,
      "t": 23135.327999999998,
      "d": 828.4134374999994,
      "v": 85
    },
    {
      "midi": 48,
      "hit": false,
      "t": 23135.328,
      "d": 2161.405968750001,
      "v": 114
    },
    {
      "midi": 48,
      "hit": false,
      "t": 23135.328,
      "d": 2884.3849687500006,
      "v": 117
    },
    {
      "midi": 67,
      "hit": false,
      "t": 23165.452125000003,
      "d": 2545.4885625000024,
      "v": 96
    },
    {
      "midi": 70,
      "hit": false,
      "t": 23165.452125000003,
      "d": 2568.081656250004,
      "v": 96
    },
    {
      "midi": 74,
      "hit": false,
      "t": 23172.983156250004,
      "d": 2605.736812500003,
      "v": 96
    },
    {
      "midi": 55,
      "hit": false,
      "t": 23496.817499999997,
      "d": 361.4894999999997,
      "v": 100
    },
    {
      "midi": 58,
      "hit": false,
      "t": 23496.817499999997,
      "d": 361.4894999999997,
      "v": 100
    },
    {
      "midi": 62,
      "hit": false,
      "t": 23496.817499999997,
      "d": 361.4894999999997,
      "v": 100
    },
    {
      "midi": 55,
      "hit": false,
      "t": 23858.306999999997,
      "d": 361.4894999999997,
      "v": 100
    },
    {
      "midi": 58,
      "hit": false,
      "t": 23858.306999999997,
      "d": 361.4894999999997,
      "v": 100
    },
    {
      "midi": 62,
      "hit": false,
      "t": 23858.306999999997,
      "d": 361.4894999999997,
      "v": 100
    },
    {
      "midi": 67,
      "hit": false,
      "t": 23858.306999999997,
      "d": 361.4894999999997,
      "v": 100
    },
    {
      "midi": 55,
      "hit": false,
      "t": 24219.796499999997,
      "d": 361.4894999999997,
      "v": 100
    },
    {
      "midi": 58,
      "hit": false,
      "t": 24219.796499999997,
      "d": 361.4894999999997,
      "v": 100
    },
    {
      "midi": 62,
      "hit": false,
      "t": 24219.796499999997,
      "d": 361.4894999999997,
      "v": 100
    },
    {
      "midi": 36,
      "hit": false,
      "t": 24219.796499999997,
      "d": 165.6826875000006,
      "v": 74
    },
    {
      "midi": 55,
      "hit": false,
      "t": 24581.285999999996,
      "d": 361.4894999999997,
      "v": 115
    },
    {
      "midi": 58,
      "hit": false,
      "t": 24581.285999999996,
      "d": 361.4894999999997,
      "v": 114
    },
    {
      "midi": 36,
      "hit": false,
      "t": 24581.285999999996,
      "d": 361.4894999999997,
      "v": 105
    },
    {
      "midi": 55,
      "hit": false,
      "t": 24942.775499999996,
      "d": 361.4894999999997,
      "v": 100
    },
    {
      "midi": 58,
      "hit": false,
      "t": 24942.775499999996,
      "d": 361.4894999999997,
      "v": 100
    },
    {
      "midi": 62,
      "hit": false,
      "t": 24942.775499999996,
      "d": 361.4894999999997,
      "v": 100
    },
    {
      "midi": 36,
      "hit": false,
      "t": 25123.520249999998,
      "d": 120.4965000000011,
      "v": 105
    },
    {
      "midi": 55,
      "hit": false,
      "t": 25304.264999999996,
      "d": 361.4894999999997,
      "v": 100
    },
    {
      "midi": 58,
      "hit": false,
      "t": 25304.264999999996,
      "d": 361.4894999999997,
      "v": 100
    },
    {
      "midi": 62,
      "hit": false,
      "t": 25304.264999999996,
      "d": 361.4894999999997,
      "v": 100
    },
    {
      "midi": 67,
      "hit": false,
      "t": 25304.264999999996,
      "d": 361.4894999999997,
      "v": 100
    },
    {
      "midi": 31,
      "hit": false,
      "t": 25304.265,
      "d": 240.99299999999857,
      "v": 105
    },
    {
      "midi": 55,
      "hit": false,
      "t": 25665.754499999995,
      "d": 361.4894999999997,
      "v": 100
    },
    {
      "midi": 58,
      "hit": false,
      "t": 25665.754499999995,
      "d": 361.4894999999997,
      "v": 100
    },
    {
      "midi": 62,
      "hit": false,
      "t": 25665.754499999995,
      "d": 361.4894999999997,
      "v": 100
    },
    {
      "midi": 36,
      "hit": false,
      "t": 25665.7545,
      "d": 240.99299999999857,
      "v": 105
    },
    {
      "midi": 74,
      "hit": false,
      "t": 26019.712968750006,
      "d": 1152.2477812500001,
      "v": 96
    },
    {
      "midi": 69,
      "hit": false,
      "t": 26019.712968750006,
      "d": 1159.7788125000006,
      "v": 96
    },
    {
      "midi": 38,
      "hit": false,
      "t": 26027.244,
      "d": 851.006531250001,
      "v": 74
    },
    {
      "midi": 53,
      "hit": false,
      "t": 26027.244000000002,
      "d": 361.4894999999997,
      "v": 114
    },
    {
      "midi": 53,
      "hit": false,
      "t": 26027.244000000002,
      "d": 361.4894999999997,
      "v": 117
    },
    {
      "midi": 77,
      "hit": false,
      "t": 26027.244000000006,
      "d": 1189.902937499999,
      "v": 96
    },
    {
      "midi": 62,
      "hit": false,
      "t": 26388.733499999995,
      "d": 60.24825000000055,
      "v": 100
    },
    {
      "midi": 57,
      "hit": false,
      "t": 26388.733499999995,
      "d": 361.4894999999997,
      "v": 100
    },
    {
      "midi": 65,
      "hit": false,
      "t": 26388.733499999995,
      "d": 361.4894999999997,
      "v": 110
    },
    {
      "midi": 60,
      "hit": false,
      "t": 26388.733500000002,
      "d": 361.4894999999997,
      "v": 114
    },
    {
      "midi": 60,
      "hit": false,
      "t": 26388.733500000002,
      "d": 361.4894999999997,
      "v": 117
    },
    {
      "midi": 57,
      "hit": false,
      "t": 26750.222999999994,
      "d": 361.4894999999997,
      "v": 100
    },
    {
      "midi": 62,
      "hit": false,
      "t": 26750.222999999994,
      "d": 361.4894999999997,
      "v": 100
    },
    {
      "midi": 65,
      "hit": false,
      "t": 26750.222999999994,
      "d": 361.4894999999997,
      "v": 110
    },
    {
      "midi": 69,
      "hit": false,
      "t": 26750.222999999994,
      "d": 361.4894999999997,
      "v": 111
    },
    {
      "midi": 60,
      "hit": false,
      "t": 26750.223,
      "d": 323.8343437500007,
      "v": 114
    },
    {
      "midi": 60,
      "hit": false,
      "t": 26750.223,
      "d": 323.8343437500007,
      "v": 117
    },
    {
      "midi": 57,
      "hit": false,
      "t": 27111.712499999994,
      "d": 263.58609375000015,
      "v": 100
    },
    {
      "midi": 62,
      "hit": false,
      "t": 27111.712499999994,
      "d": 361.4894999999997,
      "v": 100
    },
    {
      "midi": 65,
      "hit": false,
      "t": 27111.712499999994,
      "d": 361.4894999999997,
      "v": 110
    },
    {
      "midi": 53,
      "hit": false,
      "t": 27111.7125,
      "d": 218.39990625000064,
      "v": 114
    },
    {
      "midi": 53,
      "hit": false,
      "t": 27111.7125,
      "d": 218.39990625000064,
      "v": 117
    },
    {
      "midi": 38,
      "hit": false,
      "t": 27111.7125,
      "d": 256.0550624999996,
      "v": 74
    },
    {
      "midi": 72,
      "hit": false,
      "t": 27443.077875000006,
      "d": 1235.0891249999986,
      "v": 96
    },
    {
      "midi": 76,
      "hit": false,
      "t": 27443.077875000006,
      "d": 1235.0891249999986,
      "v": 96
    },
    {
      "midi": 69,
      "hit": false,
      "t": 27450.608906250007,
      "d": 1235.0891249999986,
      "v": 96
    },
    {
      "midi": 55,
      "hit": false,
      "t": 27473.201999999994,
      "d": 361.4894999999997,
      "v": 115
    },
    {
      "midi": 60,
      "hit": false,
      "t": 27473.201999999994,
      "d": 361.4894999999997,
      "v": 115
    },
    {
      "midi": 55,
      "hit": false,
      "t": 27834.691499999994,
      "d": 361.4894999999997,
      "v": 100
    },
    {
      "midi": 60,
      "hit": false,
      "t": 27834.691499999994,
      "d": 361.4894999999997,
      "v": 100
    },
    {
      "midi": 64,
      "hit": false,
      "t": 27834.691499999994,
      "d": 361.4894999999997,
      "v": 100
    },
    {
      "midi": 55,
      "hit": false,
      "t": 28196.180999999993,
      "d": 361.4894999999997,
      "v": 100
    },
    {
      "midi": 60,
      "hit": false,
      "t": 28196.180999999993,
      "d": 361.4894999999997,
      "v": 100
    },
    {
      "midi": 64,
      "hit": false,
      "t": 28196.180999999993,
      "d": 361.4894999999997,
      "v": 100
    },
    {
      "midi": 67,
      "hit": false,
      "t": 28196.180999999993,
      "d": 361.4894999999997,
      "v": 100
    },
    {
      "midi": 60,
      "hit": false,
      "t": 28196.181000000004,
      "d": 308.77228124999965,
      "v": 114
    },
    {
      "midi": 60,
      "hit": false,
      "t": 28196.181000000004,
      "d": 308.77228124999965,
      "v": 117
    },
    {
      "midi": 67,
      "hit": false,
      "t": 28196.181000000008,
      "d": 240.99299999999857,
      "v": 96
    },
    {
      "midi": 55,
      "hit": false,
      "t": 28557.670499999993,
      "d": 361.4894999999997,
      "v": 100
    },
    {
      "midi": 60,
      "hit": false,
      "t": 28557.670499999993,
      "d": 361.4894999999997,
      "v": 100
    },
    {
      "midi": 64,
      "hit": false,
      "t": 28557.670499999993,
      "d": 361.4894999999997,
      "v": 100
    },
    {
      "midi": 33,
      "hit": false,
      "t": 28557.6705,
      "d": 120.4965000000011,
      "v": 105
    },
    {
      "midi": 60,
      "hit": false,
      "t": 28557.670500000004,
      "d": 369.0205312500002,
      "v": 114
    },
    {
      "midi": 60,
      "hit": false,
      "t": 28557.670500000004,
      "d": 369.0205312500002,
      "v": 117
    },
    {
      "midi": 55,
      "hit": false,
      "t": 28919.159999999993,
      "d": 361.4894999999997,
      "v": 115
    },
    {
      "midi": 59,
      "hit": false,
      "t": 28919.159999999993,
      "d": 361.4894999999997,
      "v": 115
    },
    {
      "midi": 31,
      "hit": false,
      "t": 28919.16,
      "d": 820.8824062499989,
      "v": 117
    },
    {
      "midi": 60,
      "hit": false,
      "t": 28926.691031250004,
      "d": 361.4894999999997,
      "v": 114
    },
    {
      "midi": 60,
      "hit": false,
      "t": 28926.691031250004,
      "d": 361.4894999999997,
      "v": 117
    },
    {
      "midi": 71,
      "hit": false,
      "t": 28926.691031250004,
      "d": 2379.805875000002,
      "v": 96
    },
    {
      "midi": 67,
      "hit": false,
      "t": 28934.222062500005,
      "d": 2296.9645312499997,
      "v": 96
    },
    {
      "midi": 74,
      "hit": false,
      "t": 28934.222062500005,
      "d": 2409.9300000000003,
      "v": 96
    },
    {
      "midi": 55,
      "hit": false,
      "t": 29280.649499999992,
      "d": 361.4894999999997,
      "v": 100
    },
    {
      "midi": 59,
      "hit": false,
      "t": 29280.649499999992,
      "d": 361.4894999999997,
      "v": 100
    },
    {
      "midi": 62,
      "hit": false,
      "t": 29280.649499999992,
      "d": 361.4894999999997,
      "v": 100
    },
    {
      "midi": 62,
      "hit": false,
      "t": 29280.649500000003,
      "d": 707.916937500002,
      "v": 114
    },
    {
      "midi": 62,
      "hit": false,
      "t": 29280.649500000003,
      "d": 707.916937500002,
      "v": 117
    },
    {
      "midi": 55,
      "hit": false,
      "t": 29642.138999999992,
      "d": 361.4894999999997,
      "v": 100
    },
    {
      "midi": 59,
      "hit": false,
      "t": 29642.138999999992,
      "d": 361.4894999999997,
      "v": 100
    },
    {
      "midi": 62,
      "hit": false,
      "t": 29642.138999999992,
      "d": 361.4894999999997,
      "v": 100
    },
    {
      "midi": 67,
      "hit": false,
      "t": 29642.138999999992,
      "d": 361.4894999999997,
      "v": 100
    },
    {
      "midi": 55,
      "hit": false,
      "t": 30003.62849999999,
      "d": 361.4894999999997,
      "v": 100
    },
    {
      "midi": 59,
      "hit": false,
      "t": 30003.62849999999,
      "d": 361.4894999999997,
      "v": 100
    },
    {
      "midi": 62,
      "hit": false,
      "t": 30003.62849999999,
      "d": 361.4894999999997,
      "v": 100
    },
    {
      "midi": 31,
      "hit": false,
      "t": 30003.6285,
      "d": 150.62062499999956,
      "v": 91
    },
    {
      "midi": 55,
      "hit": false,
      "t": 30365.11799999999,
      "d": 361.4894999999997,
      "v": 115
    },
    {
      "midi": 59,
      "hit": false,
      "t": 30365.11799999999,
      "d": 361.4894999999997,
      "v": 115
    },
    {
      "midi": 31,
      "hit": false,
      "t": 30365.118,
      "d": 1280.275312499998,
      "v": 91
    },
    {
      "midi": 59,
      "hit": false,
      "t": 30365.118000000006,
      "d": 323.8343437500007,
      "v": 114
    },
    {
      "midi": 59,
      "hit": false,
      "t": 30365.118000000006,
      "d": 323.8343437500007,
      "v": 117
    },
    {
      "midi": 57,
      "hit": false,
      "t": 30688.952343750007,
      "d": 391.6136250000018,
      "v": 114
    },
    {
      "midi": 57,
      "hit": false,
      "t": 30688.952343750007,
      "d": 391.6136250000018,
      "v": 117
    },
    {
      "midi": 55,
      "hit": false,
      "t": 30726.60749999999,
      "d": 361.4894999999997,
      "v": 100
    },
    {
      "midi": 59,
      "hit": false,
      "t": 30726.60749999999,
      "d": 361.4894999999997,
      "v": 100
    },
    {
      "midi": 62,
      "hit": false,
      "t": 30726.60749999999,
      "d": 361.4894999999997,
      "v": 100
    },
    {
      "midi": 55,
      "hit": false,
      "t": 31088.09699999999,
      "d": 361.4894999999997,
      "v": 100
    },
    {
      "midi": 59,
      "hit": false,
      "t": 31088.09699999999,
      "d": 361.4894999999997,
      "v": 100
    },
    {
      "midi": 62,
      "hit": false,
      "t": 31088.09699999999,
      "d": 361.4894999999997,
      "v": 100
    },
    {
      "midi": 67,
      "hit": false,
      "t": 31088.09699999999,
      "d": 361.4894999999997,
      "v": 100
    },
    {
      "midi": 55,
      "hit": false,
      "t": 31088.09700000001,
      "d": 361.4894999999997,
      "v": 114
    },
    {
      "midi": 55,
      "hit": false,
      "t": 31088.09700000001,
      "d": 361.4894999999997,
      "v": 117
    },
    {
      "midi": 55,
      "hit": false,
      "t": 31449.58649999999,
      "d": 361.4894999999997,
      "v": 100
    },
    {
      "midi": 59,
      "hit": false,
      "t": 31449.58649999999,
      "d": 361.4894999999997,
      "v": 100
    },
    {
      "midi": 62,
      "hit": false,
      "t": 31449.58649999999,
      "d": 361.4894999999997,
      "v": 100
    },
    {
      "midi": 57,
      "hit": false,
      "t": 31449.58650000001,
      "d": 2884.3849687500006,
      "v": 114
    },
    {
      "midi": 57,
      "hit": false,
      "t": 31449.58650000001,
      "d": 2884.3849687500006,
      "v": 117
    },
    {
      "midi": 69,
      "hit": false,
      "t": 31600.207125000004,
      "d": 5618.1493125000015,
      "v": 96
    },
    {
      "midi": 74,
      "hit": false,
      "t": 31607.738156250005,
      "d": 5580.494156249999,
      "v": 96
    },
    {
      "midi": 78,
      "hit": false,
      "t": 31615.269187500006,
      "d": 5655.804468749997,
      "v": 96
    },
    {
      "midi": 57,
      "hit": false,
      "t": 31811.07599999999,
      "d": 2786.481562500001,
      "v": 99
    },
    {
      "midi": 50,
      "hit": false,
      "t": 31811.07599999999,
      "d": 2824.1367187500036,
      "v": 111
    },
    {
      "midi": 57,
      "hit": false,
      "t": 31811.075999999994,
      "d": 1807.447500000002,
      "v": 114
    },
    {
      "midi": 50,
      "hit": false,
      "t": 31811.075999999994,
      "d": 2824.13671875,
      "v": 122
    },
    {
      "midi": 38,
      "hit": false,
      "t": 31811.075999999997,
      "d": 896.1927187500005,
      "v": 91
    },
    {
      "midi": 57,
      "hit": false,
      "t": 31811.075999999997,
      "d": 1807.4474999999984,
      "v": 97
    },
    {
      "midi": 50,
      "hit": false,
      "t": 31811.075999999997,
      "d": 5670.866531249991,
      "v": 97
    },
    {
      "midi": 66,
      "hit": false,
      "t": 31811.076,
      "d": 5693.459625000003,
      "v": 97
    },
    {
      "midi": 67,
      "hit": false,
      "t": 32172.56549999999,
      "d": 308.77228124999965,
      "v": 111
    },
    {
      "midi": 62,
      "hit": false,
      "t": 32172.56549999999,
      "d": 474.45496875000026,
      "v": 99
    },
    {
      "midi": 67,
      "hit": false,
      "t": 32172.565499999993,
      "d": 308.77228124999965,
      "v": 122
    },
    {
      "midi": 62,
      "hit": false,
      "t": 32172.565499999993,
      "d": 474.45496875000026,
      "v": 114
    },
    {
      "midi": 66,
      "hit": false,
      "t": 32534.05499999999,
      "d": 414.20671874999607,
      "v": 127
    },
    {
      "midi": 66,
      "hit": false,
      "t": 32534.054999999993,
      "d": 414.2067187499997,
      "v": 122
    },
    {
      "midi": 62,
      "hit": false,
      "t": 32895.54449999999,
      "d": 700.3859062499978,
      "v": 111
    },
    {
      "midi": 62,
      "hit": false,
      "t": 32895.544499999996,
      "d": 700.3859062499978,
      "v": 122
    },
    {
      "midi": 38,
      "hit": false,
      "t": 32895.544499999996,
      "d": 158.15165624999645,
      "v": 85
    },
    {
      "midi": 67,
      "hit": false,
      "t": 33257.033999999985,
      "d": 421.73775000000023,
      "v": 114
    },
    {
      "midi": 67,
      "hit": false,
      "t": 33257.03399999999,
      "d": 421.73775000000023,
      "v": 122
    },
    {
      "midi": 38,
      "hit": false,
      "t": 33257.03399999999,
      "d": 670.261781250003,
      "v": 85
    },
    {
      "midi": 66,
      "hit": false,
      "t": 33618.52349999999,
      "d": 406.6756874999992,
      "v": 126
    },
    {
      "midi": 66,
      "hit": false,
      "t": 33618.523499999996,
      "d": 406.6756874999992,
      "v": 122
    },
    {
      "midi": 57,
      "hit": false,
      "t": 33618.523499999996,
      "d": 722.9789999999921,
      "v": 127
    },
    {
      "midi": 45,
      "hit": false,
      "t": 33618.5235,
      "d": 173.2137187499975,
      "v": 122
    },
    {
      "midi": 59,
      "hit": false,
      "t": 33799.268249999994,
      "d": 75.31031249999796,
      "v": 125
    },
    {
      "midi": 47,
      "hit": false,
      "t": 33799.26825,
      "d": 97.90340624999953,
      "v": 122
    },
    {
      "midi": 62,
      "hit": false,
      "t": 33980.012999999984,
      "d": 579.889406250004,
      "v": 111
    },
    {
      "midi": 33,
      "hit": false,
      "t": 33980.01299999999,
      "d": 579.8894062499967,
      "v": 91
    },
    {
      "midi": 62,
      "hit": false,
      "t": 33980.01299999999,
      "d": 97.90340624999953,
      "v": 127
    },
    {
      "midi": 50,
      "hit": false,
      "t": 33980.013,
      "d": 180.74474999999802,
      "v": 122
    },
    {
      "midi": 59,
      "hit": false,
      "t": 34160.75774999999,
      "d": 82.84134374999849,
      "v": 124
    },
    {
      "midi": 47,
      "hit": false,
      "t": 34160.75775,
      "d": 82.84134374999849,
      "v": 122
    },
    {
      "midi": 67,
      "hit": false,
      "t": 34341.50249999999,
      "d": 278.64815625000483,
      "v": 111
    },
    {
      "midi": 57,
      "hit": false,
      "t": 34341.50249999999,
      "d": 3132.9089999999997,
      "v": 125
    },
    {
      "midi": 67,
      "hit": false,
      "t": 34341.502499999995,
      "d": 278.64815624999756,
      "v": 122
    },
    {
      "midi": 45,
      "hit": false,
      "t": 34341.502499999995,
      "d": 256.05506250000326,
      "v": 122
    },
    {
      "midi": 66,
      "hit": false,
      "t": 34702.99199999999,
      "d": 2673.516093749997,
      "v": 122
    },
    {
      "midi": 57,
      "hit": false,
      "t": 34702.99199999999,
      "d": 2681.0471249999973,
      "v": 114
    },
    {
      "midi": 62,
      "hit": false,
      "t": 34702.99199999999,
      "d": 2681.0471249999973,
      "v": 120
    },
    {
      "midi": 66,
      "hit": false,
      "t": 34702.99199999999,
      "d": 2673.516093749997,
      "v": 126
    },
    {
      "midi": 57,
      "hit": false,
      "t": 34702.99199999999,
      "d": 2681.0471249999973,
      "v": 94
    },
    {
      "midi": 62,
      "hit": false,
      "t": 34702.99199999999,
      "d": 2681.0471249999973,
      "v": 105
    },
    {
      "midi": 50,
      "hit": false,
      "t": 34702.99199999999,
      "d": 2696.1091874999984,
      "v": 115
    },
    {
      "midi": 26,
      "hit": false,
      "t": 34702.99199999999,
      "d": 2711.1712499999994,
      "v": 127
    },
    {
      "midi": 38,
      "hit": false,
      "t": 34702.992,
      "d": 2696.1091874999984,
      "v": 127
    },
    {
      "midi": 57,
      "hit": false,
      "t": 35425.97100000001,
      "d": 308.77228124999965,
      "v": 114
    },
    {
      "midi": 57,
      "hit": false,
      "t": 35425.97100000001,
      "d": 308.77228124999965,
      "v": 117
    },
    {
      "midi": 57,
      "hit": false,
      "t": 35787.46050000001,
      "d": 308.77228124999965,
      "v": 114
    },
    {
      "midi": 57,
      "hit": false,
      "t": 35787.46050000001,
      "d": 308.77228124999965,
      "v": 117
    },
    {
      "midi": 57,
      "hit": false,
      "t": 36148.950000000004,
      "d": 308.77228124999965,
      "v": 114
    },
    {
      "midi": 57,
      "hit": false,
      "t": 36148.950000000004,
      "d": 308.77228124999965,
      "v": 117
    },
    {
      "midi": 57,
      "hit": false,
      "t": 36510.4395,
      "d": 308.77228124999965,
      "v": 114
    },
    {
      "midi": 57,
      "hit": false,
      "t": 36510.4395,
      "d": 308.77228124999965,
      "v": 117
    },
    {
      "midi": 55,
      "hit": false,
      "t": 36871.929,
      "d": 346.42743750000227,
      "v": 114
    },
    {
      "midi": 55,
      "hit": false,
      "t": 36871.929,
      "d": 346.42743750000227,
      "v": 117
    },
    {
      "midi": 54,
      "hit": false,
      "t": 37233.4185,
      "d": 323.8343437500007,
      "v": 114
    },
    {
      "midi": 54,
      "hit": false,
      "t": 37233.4185,
      "d": 323.8343437500007,
      "v": 117
    },
    {
      "midi": 72,
      "hit": false,
      "t": 37481.94253125,
      "d": 5700.990656250004,
      "v": 96
    },
    {
      "midi": 76,
      "hit": false,
      "t": 37481.94253125,
      "d": 5723.583750000005,
      "v": 96
    },
    {
      "midi": 67,
      "hit": false,
      "t": 37489.4735625,
      "d": 5700.990656250004,
      "v": 96
    },
    {
      "midi": 36,
      "hit": false,
      "t": 37594.90799999999,
      "d": 1355.585625000007,
      "v": 122
    },
    {
      "midi": 48,
      "hit": false,
      "t": 37594.90799999999,
      "d": 444.3308437500018,
      "v": 121
    },
    {
      "midi": 36,
      "hit": false,
      "t": 37594.90799999999,
      "d": 888.6616874999963,
      "v": 106
    },
    {
      "midi": 50,
      "hit": false,
      "t": 37594.908,
      "d": 429.26878125000076,
      "v": 114
    },
    {
      "midi": 50,
      "hit": false,
      "t": 37594.908,
      "d": 429.26878125000076,
      "v": 117
    },
    {
      "midi": 67,
      "hit": false,
      "t": 37594.908,
      "d": 5603.087250000004,
      "v": 97
    },
    {
      "midi": 60,
      "hit": false,
      "t": 37594.908,
      "d": 5685.928593750003,
      "v": 97
    },
    {
      "midi": 74,
      "hit": false,
      "t": 37594.908,
      "d": 5693.459625000003,
      "v": 97
    },
    {
      "midi": 86,
      "hit": false,
      "t": 37594.908,
      "d": 52.71721874999639,
      "v": 112
    },
    {
      "midi": 55,
      "hit": false,
      "t": 37956.39749999999,
      "d": 497.04806250000547,
      "v": 122
    },
    {
      "midi": 55,
      "hit": false,
      "t": 37956.39749999999,
      "d": 225.93093750000116,
      "v": 101
    },
    {
      "midi": 60,
      "hit": false,
      "t": 38137.14224999999,
      "d": 105.43443750000006,
      "v": 121
    },
    {
      "midi": 52,
      "hit": false,
      "t": 38137.142250000004,
      "d": 2161.4059687499976,
      "v": 114
    },
    {
      "midi": 52,
      "hit": false,
      "t": 38137.142250000004,
      "d": 2161.4059687499976,
      "v": 117
    },
    {
      "midi": 55,
      "hit": false,
      "t": 38317.88699999999,
      "d": 105.43443750000006,
      "v": 125
    },
    {
      "midi": 60,
      "hit": false,
      "t": 38317.88699999999,
      "d": 105.43443750000006,
      "v": 126
    },
    {
      "midi": 64,
      "hit": false,
      "t": 38317.88699999999,
      "d": 105.43443750000006,
      "v": 125
    },
    {
      "midi": 64,
      "hit": false,
      "t": 38317.886999999995,
      "d": 1107.061593749997,
      "v": 120
    },
    {
      "midi": 60,
      "hit": false,
      "t": 38317.886999999995,
      "d": 1114.5926249999975,
      "v": 120
    },
    {
      "midi": 98,
      "hit": false,
      "t": 38317.887,
      "d": 481.98599999999715,
      "v": 118
    },
    {
      "midi": 36,
      "hit": false,
      "t": 38679.376499999984,
      "d": 180.74474999999802,
      "v": 91
    },
    {
      "midi": 48,
      "hit": false,
      "t": 38679.37649999999,
      "d": 128.02753125000163,
      "v": 119
    },
    {
      "midi": 55,
      "hit": false,
      "t": 38679.3765,
      "d": 436.799812499994,
      "v": 122
    },
    {
      "midi": 36,
      "hit": false,
      "t": 39040.86599999998,
      "d": 1039.2823124999995,
      "v": 91
    },
    {
      "midi": 36,
      "hit": false,
      "t": 39040.865999999995,
      "d": 1242.6201562499919,
      "v": 114
    },
    {
      "midi": 55,
      "hit": false,
      "t": 39040.865999999995,
      "d": 128.02753125000163,
      "v": 74
    },
    {
      "midi": 86,
      "hit": false,
      "t": 39040.866,
      "d": 1385.7097500000018,
      "v": 97
    },
    {
      "midi": 62,
      "hit": false,
      "t": 39040.866,
      "d": 361.4895000000033,
      "v": 97
    },
    {
      "midi": 86,
      "hit": false,
      "t": 39040.866,
      "d": 45.18618750000314,
      "v": 112
    },
    {
      "midi": 48,
      "hit": false,
      "t": 39221.61074999999,
      "d": 120.4965000000011,
      "v": 107
    },
    {
      "midi": 55,
      "hit": false,
      "t": 39402.35549999999,
      "d": 414.2067187499997,
      "v": 122
    },
    {
      "midi": 55,
      "hit": false,
      "t": 39402.35549999999,
      "d": 150.6206250000032,
      "v": 102
    },
    {
      "midi": 64,
      "hit": false,
      "t": 39402.355500000005,
      "d": 3878.4810937500006,
      "v": 97
    },
    {
      "midi": 60,
      "hit": false,
      "t": 39583.100249999996,
      "d": 135.55856250000215,
      "v": 118
    },
    {
      "midi": 64,
      "hit": false,
      "t": 39763.844999999994,
      "d": 1039.2823124999923,
      "v": 122
    },
    {
      "midi": 60,
      "hit": false,
      "t": 39763.844999999994,
      "d": 1054.3443749999933,
      "v": 122
    },
    {
      "midi": 55,
      "hit": false,
      "t": 39763.845,
      "d": 180.74474999999802,
      "v": 114
    },
    {
      "midi": 98,
      "hit": false,
      "t": 39763.845,
      "d": 481.98599999999715,
      "v": 118
    },
    {
      "midi": 48,
      "hit": false,
      "t": 39944.58975,
      "d": 158.15165624999645,
      "v": 115
    },
    {
      "midi": 31,
      "hit": false,
      "t": 40125.33449999998,
      "d": 316.3033125000002,
      "v": 106
    },
    {
      "midi": 55,
      "hit": false,
      "t": 40125.33449999999,
      "d": 421.73774999999296,
      "v": 122
    },
    {
      "midi": 55,
      "hit": false,
      "t": 40125.3345,
      "d": 173.2137187499975,
      "v": 102
    },
    {
      "midi": 59,
      "hit": false,
      "t": 40306.079249999995,
      "d": 90.37237499999901,
      "v": 127
    },
    {
      "midi": 36,
      "hit": false,
      "t": 40486.823999999986,
      "d": 1235.0891250000059,
      "v": 122
    },
    {
      "midi": 36,
      "hit": false,
      "t": 40486.823999999986,
      "d": 873.5996250000026,
      "v": 106
    },
    {
      "midi": 60,
      "hit": false,
      "t": 40486.82399999999,
      "d": 421.73775000000023,
      "v": 115
    },
    {
      "midi": 48,
      "hit": false,
      "t": 40486.82399999999,
      "d": 466.9239375000034,
      "v": 125
    },
    {
      "midi": 64,
      "hit": false,
      "t": 40486.82399999999,
      "d": 489.51703125000495,
      "v": 99
    },
    {
      "midi": 55,
      "hit": false,
      "t": 40486.82399999999,
      "d": 572.3583750000034,
      "v": 102
    },
    {
      "midi": 88,
      "hit": false,
      "t": 40486.824,
      "d": 2756.3574375000026,
      "v": 97
    },
    {
      "midi": 86,
      "hit": false,
      "t": 40486.82400000001,
      "d": 52.71721874999639,
      "v": 112
    },
    {
      "midi": 55,
      "hit": false,
      "t": 40848.31349999999,
      "d": 414.2067187499997,
      "v": 122
    },
    {
      "midi": 48,
      "hit": false,
      "t": 41029.058249999995,
      "d": 105.43443750000006,
      "v": 97
    },
    {
      "midi": 60,
      "hit": false,
      "t": 41209.80299999999,
      "d": 1024.2202499999985,
      "v": 122
    },
    {
      "midi": 64,
      "hit": false,
      "t": 41209.80299999999,
      "d": 1099.5305624999964,
      "v": 122
    },
    {
      "midi": 60,
      "hit": false,
      "t": 41209.80299999999,
      "d": 67.77928124999744,
      "v": 113
    },
    {
      "midi": 55,
      "hit": false,
      "t": 41209.80299999999,
      "d": 75.31031249999796,
      "v": 109
    },
    {
      "midi": 64,
      "hit": false,
      "t": 41209.80299999999,
      "d": 90.37237499999901,
      "v": 109
    },
    {
      "midi": 57,
      "hit": false,
      "t": 41209.803,
      "d": 308.77228124999965,
      "v": 114
    },
    {
      "midi": 57,
      "hit": false,
      "t": 41209.803,
      "d": 308.77228124999965,
      "v": 117
    },
    {
      "midi": 98,
      "hit": false,
      "t": 41209.803,
      "d": 481.98599999999715,
      "v": 118
    },
    {
      "midi": 55,
      "hit": false,
      "t": 41571.29249999999,
      "d": 421.73775000000023,
      "v": 122
    },
    {
      "midi": 60,
      "hit": false,
      "t": 41571.29249999999,
      "d": 75.31031249999796,
      "v": 121
    },
    {
      "midi": 55,
      "hit": false,
      "t": 41571.29249999999,
      "d": 90.37237499999901,
      "v": 118
    },
    {
      "midi": 64,
      "hit": false,
      "t": 41571.29249999999,
      "d": 90.37237499999901,
      "v": 115
    },
    {
      "midi": 36,
      "hit": false,
      "t": 41571.29249999999,
      "d": 195.80681249999907,
      "v": 91
    },
    {
      "midi": 57,
      "hit": false,
      "t": 41571.292499999996,
      "d": 308.77228124999965,
      "v": 114
    },
    {
      "midi": 57,
      "hit": false,
      "t": 41571.292499999996,
      "d": 308.77228124999965,
      "v": 117
    },
    {
      "midi": 48,
      "hit": false,
      "t": 41932.781999999985,
      "d": 82.84134374999849,
      "v": 101
    },
    {
      "midi": 36,
      "hit": false,
      "t": 41932.781999999985,
      "d": 1340.5235624999987,
      "v": 91
    },
    {
      "midi": 57,
      "hit": false,
      "t": 41932.78199999999,
      "d": 361.4895000000033,
      "v": 114
    },
    {
      "midi": 57,
      "hit": false,
      "t": 41932.78199999999,
      "d": 361.4895000000033,
      "v": 117
    },
    {
      "midi": 36,
      "hit": false,
      "t": 41932.78199999999,
      "d": 1189.9029374999955,
      "v": 120
    },
    {
      "midi": 86,
      "hit": false,
      "t": 41932.78200000001,
      "d": 52.71721874999639,
      "v": 112
    },
    {
      "midi": 55,
      "hit": false,
      "t": 42113.52674999998,
      "d": 105.43443750000006,
      "v": 99
    },
    {
      "midi": 60,
      "hit": false,
      "t": 42294.27149999998,
      "d": 128.02753125000163,
      "v": 99
    },
    {
      "midi": 55,
      "hit": false,
      "t": 42294.27149999999,
      "d": 436.7998125000013,
      "v": 122
    },
    {
      "midi": 57,
      "hit": false,
      "t": 42294.271499999995,
      "d": 489.5170312499977,
      "v": 114
    },
    {
      "midi": 57,
      "hit": false,
      "t": 42294.271499999995,
      "d": 489.5170312499977,
      "v": 117
    },
    {
      "midi": 48,
      "hit": false,
      "t": 42655.760999999984,
      "d": 90.37237499999901,
      "v": 123
    },
    {
      "midi": 55,
      "hit": false,
      "t": 42655.760999999984,
      "d": 90.37237499999901,
      "v": 115
    },
    {
      "midi": 60,
      "hit": false,
      "t": 42655.760999999984,
      "d": 105.43443750000006,
      "v": 123
    },
    {
      "midi": 64,
      "hit": false,
      "t": 42655.760999999984,
      "d": 105.43443750000006,
      "v": 117
    },
    {
      "midi": 64,
      "hit": false,
      "t": 42655.76099999999,
      "d": 497.0480624999982,
      "v": 122
    },
    {
      "midi": 60,
      "hit": false,
      "t": 42655.76099999999,
      "d": 519.6411562499998,
      "v": 122
    },
    {
      "midi": 98,
      "hit": false,
      "t": 42655.761,
      "d": 481.98599999999715,
      "v": 118
    },
    {
      "midi": 55,
      "hit": false,
      "t": 42798.850593749994,
      "d": 218.39990625000064,
      "v": 114
    },
    {
      "midi": 55,
      "hit": false,
      "t": 42798.850593749994,
      "d": 218.39990625000064,
      "v": 117
    },
    {
      "midi": 55,
      "hit": false,
      "t": 43017.25049999999,
      "d": 353.9584687500028,
      "v": 122
    },
    {
      "midi": 54,
      "hit": false,
      "t": 43017.250499999995,
      "d": 323.8343437500007,
      "v": 114
    },
    {
      "midi": 54,
      "hit": false,
      "t": 43017.250499999995,
      "d": 323.8343437500007,
      "v": 117
    },
    {
      "midi": 67,
      "hit": false,
      "t": 43197.99525000001,
      "d": 60.248249999996915,
      "v": 97
    },
    {
      "midi": 55,
      "hit": false,
      "t": 43378.73999999998,
      "d": 248.52403125000274,
      "v": 102
    },
    {
      "midi": 43,
      "hit": false,
      "t": 43378.73999999998,
      "d": 361.4895000000033,
      "v": 99
    },
    {
      "midi": 59,
      "hit": false,
      "t": 43378.73999999998,
      "d": 466.9239375000034,
      "v": 109
    },
    {
      "midi": 62,
      "hit": false,
      "t": 43378.73999999998,
      "d": 481.9860000000044,
      "v": 99
    },
    {
      "midi": 35,
      "hit": false,
      "t": 43378.73999999998,
      "d": 835.9444687499999,
      "v": 79
    },
    {
      "midi": 47,
      "hit": false,
      "t": 43378.73999999999,
      "d": 1220.027062500012,
      "v": 122
    },
    {
      "midi": 55,
      "hit": false,
      "t": 43378.74,
      "d": 256.05506250000326,
      "v": 114
    },
    {
      "midi": 55,
      "hit": false,
      "t": 43378.74,
      "d": 256.05506250000326,
      "v": 117
    },
    {
      "midi": 71,
      "hit": false,
      "t": 43378.740000000005,
      "d": 2922.0401249999995,
      "v": 97
    },
    {
      "midi": 67,
      "hit": false,
      "t": 43378.740000000005,
      "d": 5625.680343749998,
      "v": 97
    },
    {
      "midi": 62,
      "hit": false,
      "t": 43378.740000000005,
      "d": 5640.7424062499995,
      "v": 97
    },
    {
      "midi": 86,
      "hit": false,
      "t": 43378.740000000005,
      "d": 45.18618750000314,
      "v": 112
    },
    {
      "midi": 71,
      "hit": false,
      "t": 43393.802062500006,
      "d": 2613.26784375,
      "v": 96
    },
    {
      "midi": 67,
      "hit": false,
      "t": 43393.802062500006,
      "d": 2726.2333125000005,
      "v": 96
    },
    {
      "midi": 74,
      "hit": false,
      "t": 43393.802062500006,
      "d": 2726.2333125000005,
      "v": 96
    },
    {
      "midi": 54,
      "hit": false,
      "t": 43634.7950625,
      "d": 286.1791874999981,
      "v": 114
    },
    {
      "midi": 54,
      "hit": false,
      "t": 43634.7950625,
      "d": 286.1791874999981,
      "v": 117
    },
    {
      "midi": 55,
      "hit": false,
      "t": 43740.22949999999,
      "d": 150.6206250000032,
      "v": 98
    },
    {
      "midi": 55,
      "hit": false,
      "t": 43740.229499999994,
      "d": 346.42743750000227,
      "v": 122
    },
    {
      "midi": 43,
      "hit": false,
      "t": 43920.97424999999,
      "d": 112.96546875000058,
      "v": 123
    },
    {
      "midi": 50,
      "hit": false,
      "t": 43920.97425,
      "d": 2161.4059687499976,
      "v": 114
    },
    {
      "midi": 50,
      "hit": false,
      "t": 43920.97425,
      "d": 2161.4059687499976,
      "v": 117
    },
    {
      "midi": 55,
      "hit": false,
      "t": 44101.71899999999,
      "d": 112.96546875000058,
      "v": 121
    },
    {
      "midi": 62,
      "hit": false,
      "t": 44101.719,
      "d": 851.0065312500083,
      "v": 122
    },
    {
      "midi": 59,
      "hit": false,
      "t": 44101.719,
      "d": 926.3168437500062,
      "v": 120
    },
    {
      "midi": 98,
      "hit": false,
      "t": 44101.719,
      "d": 481.98599999999715,
      "v": 118
    },
    {
      "midi": 35,
      "hit": false,
      "t": 44463.208499999986,
      "d": 210.86887500000012,
      "v": 74
    },
    {
      "midi": 59,
      "hit": false,
      "t": 44463.20849999999,
      "d": 150.6206250000032,
      "v": 127
    },
    {
      "midi": 55,
      "hit": false,
      "t": 44463.2085,
      "d": 406.67568750000646,
      "v": 122
    },
    {
      "midi": 35,
      "hit": false,
      "t": 44824.69799999999,
      "d": 1287.8063437500023,
      "v": 79
    },
    {
      "midi": 62,
      "hit": false,
      "t": 44824.698,
      "d": 421.73775000000023,
      "v": 127
    },
    {
      "midi": 47,
      "hit": false,
      "t": 44824.698000000004,
      "d": 1280.2753124999945,
      "v": 109
    },
    {
      "midi": 86,
      "hit": false,
      "t": 44824.698000000004,
      "d": 1506.2062499999956,
      "v": 97
    },
    {
      "midi": 86,
      "hit": false,
      "t": 44824.69800000001,
      "d": 60.248249999996915,
      "v": 112
    },
    {
      "midi": 55,
      "hit": false,
      "t": 45186.1875,
      "d": 301.2412499999991,
      "v": 122
    },
    {
      "midi": 43,
      "hit": false,
      "t": 45186.1875,
      "d": 135.55856249999488,
      "v": 125
    },
    {
      "midi": 59,
      "hit": false,
      "t": 45547.676999999996,
      "d": 399.14465625000594,
      "v": 122
    },
    {
      "midi": 62,
      "hit": false,
      "t": 45547.676999999996,
      "d": 451.8618750000023,
      "v": 122
    },
    {
      "midi": 59,
      "hit": false,
      "t": 45547.676999999996,
      "d": 112.96546875000058,
      "v": 127
    },
    {
      "midi": 98,
      "hit": false,
      "t": 45547.676999999996,
      "d": 481.98599999999715,
      "v": 118
    },
    {
      "midi": 98,
      "hit": false,
      "t": 45547.677,
      "d": 715.4479687499988,
      "v": 110
    },
    {
      "midi": 55,
      "hit": false,
      "t": 45909.1665,
      "d": 361.48949999999604,
      "v": 122
    },
    {
      "midi": 53,
      "hit": false,
      "t": 45909.1665,
      "d": 52.71721874999639,
      "v": 90
    },
    {
      "midi": 34,
      "hit": false,
      "t": 46270.65599999999,
      "d": 835.9444687499999,
      "v": 94
    },
    {
      "midi": 46,
      "hit": false,
      "t": 46270.655999999995,
      "d": 1280.275312500009,
      "v": 122
    },
    {
      "midi": 53,
      "hit": false,
      "t": 46270.655999999995,
      "d": 218.39990625000064,
      "v": 99
    },
    {
      "midi": 58,
      "hit": false,
      "t": 46270.655999999995,
      "d": 353.9584687500028,
      "v": 95
    },
    {
      "midi": 46,
      "hit": false,
      "t": 46270.655999999995,
      "d": 421.73775000000023,
      "v": 117
    },
    {
      "midi": 62,
      "hit": false,
      "t": 46270.655999999995,
      "d": 451.8618750000023,
      "v": 102
    },
    {
      "midi": 91,
      "hit": false,
      "t": 46270.656,
      "d": 2884.384968749997,
      "v": 110
    },
    {
      "midi": 70,
      "hit": false,
      "t": 46270.656,
      "d": 2786.4815625000047,
      "v": 97
    },
    {
      "midi": 86,
      "hit": false,
      "t": 46270.65600000001,
      "d": 60.248249999996915,
      "v": 112
    },
    {
      "midi": 74,
      "hit": false,
      "t": 46293.249093750004,
      "d": 2741.2953750000015,
      "v": 96
    },
    {
      "midi": 67,
      "hit": false,
      "t": 46300.780125000005,
      "d": 2620.7988750000004,
      "v": 96
    },
    {
      "midi": 70,
      "hit": false,
      "t": 46308.311156250005,
      "d": 2681.0471249999973,
      "v": 96
    },
    {
      "midi": 55,
      "hit": false,
      "t": 46632.1455,
      "d": 399.14465625000594,
      "v": 122
    },
    {
      "midi": 53,
      "hit": false,
      "t": 46632.1455,
      "d": 218.39990625000064,
      "v": 106
    },
    {
      "midi": 58,
      "hit": false,
      "t": 46812.89025,
      "d": 150.6206250000032,
      "v": 127
    },
    {
      "midi": 58,
      "hit": false,
      "t": 46993.635,
      "d": 444.3308437500018,
      "v": 122
    },
    {
      "midi": 62,
      "hit": false,
      "t": 46993.635,
      "d": 587.4204375000045,
      "v": 120
    },
    {
      "midi": 46,
      "hit": false,
      "t": 46993.635,
      "d": 165.68268749999697,
      "v": 127
    },
    {
      "midi": 34,
      "hit": false,
      "t": 47355.12449999999,
      "d": 195.80681249999907,
      "v": 74
    },
    {
      "midi": 50,
      "hit": false,
      "t": 47355.1245,
      "d": 180.74474999999802,
      "v": 114
    },
    {
      "midi": 50,
      "hit": false,
      "t": 47355.1245,
      "d": 180.74474999999802,
      "v": 117
    },
    {
      "midi": 62,
      "hit": false,
      "t": 47355.1245,
      "d": 203.3378437499996,
      "v": 107
    },
    {
      "midi": 55,
      "hit": false,
      "t": 47355.124500000005,
      "d": 391.6136250000054,
      "v": 122
    },
    {
      "midi": 58,
      "hit": false,
      "t": 47535.869249999996,
      "d": 150.6206250000032,
      "v": 127
    },
    {
      "midi": 50,
      "hit": false,
      "t": 47543.40028125,
      "d": 256.05506250000326,
      "v": 114
    },
    {
      "midi": 50,
      "hit": false,
      "t": 47543.40028125,
      "d": 256.05506250000326,
      "v": 117
    },
    {
      "midi": 34,
      "hit": false,
      "t": 47716.61399999999,
      "d": 1174.8408750000017,
      "v": 69
    },
    {
      "midi": 53,
      "hit": false,
      "t": 47716.614,
      "d": 180.74474999999802,
      "v": 114
    },
    {
      "midi": 46,
      "hit": false,
      "t": 47716.61400000001,
      "d": 1340.5235625000132,
      "v": 122
    },
    {
      "midi": 86,
      "hit": false,
      "t": 47716.61400000001,
      "d": 67.77928124999744,
      "v": 112
    },
    {
      "midi": 57,
      "hit": false,
      "t": 47799.45534375,
      "d": 391.61362499999814,
      "v": 114
    },
    {
      "midi": 57,
      "hit": false,
      "t": 47799.45534375,
      "d": 391.61362499999814,
      "v": 117
    },
    {
      "midi": 46,
      "hit": false,
      "t": 47897.35875,
      "d": 203.3378437499996,
      "v": 125
    },
    {
      "midi": 53,
      "hit": false,
      "t": 48078.1035,
      "d": 135.55856250000215,
      "v": 107
    },
    {
      "midi": 55,
      "hit": false,
      "t": 48078.10350000001,
      "d": 406.67568750000646,
      "v": 122
    },
    {
      "midi": 55,
      "hit": false,
      "t": 48221.19309375,
      "d": 369.02053124999657,
      "v": 114
    },
    {
      "midi": 55,
      "hit": false,
      "t": 48221.19309375,
      "d": 369.02053124999657,
      "v": 117
    },
    {
      "midi": 58,
      "hit": false,
      "t": 48258.84825,
      "d": 112.96546875000058,
      "v": 127
    },
    {
      "midi": 62,
      "hit": false,
      "t": 48439.593,
      "d": 195.80681249999907,
      "v": 119
    },
    {
      "midi": 58,
      "hit": false,
      "t": 48439.593000000015,
      "d": 444.3308437500018,
      "v": 122
    },
    {
      "midi": 62,
      "hit": false,
      "t": 48439.593000000015,
      "d": 542.2342500000013,
      "v": 114
    },
    {
      "midi": 54,
      "hit": false,
      "t": 48657.992906249994,
      "d": 489.5170312499977,
      "v": 114
    },
    {
      "midi": 54,
      "hit": false,
      "t": 48657.992906249994,
      "d": 489.5170312499977,
      "v": 117
    },
    {
      "midi": 55,
      "hit": false,
      "t": 48801.08250000002,
      "d": 225.93093750000116,
      "v": 122
    },
    {
      "midi": 33,
      "hit": false,
      "t": 49162.571999999986,
      "d": 873.5996250000026,
      "v": 119
    },
    {
      "midi": 55,
      "hit": false,
      "t": 49162.57199999999,
      "d": 263.5860937499965,
      "v": 114
    },
    {
      "midi": 55,
      "hit": false,
      "t": 49162.57199999999,
      "d": 263.5860937499965,
      "v": 117
    },
    {
      "midi": 62,
      "hit": false,
      "t": 49162.572,
      "d": 391.61362499999814,
      "v": 114
    },
    {
      "midi": 66,
      "hit": false,
      "t": 49162.572,
      "d": 542.2342500000013,
      "v": 125
    },
    {
      "midi": 50,
      "hit": false,
      "t": 49162.572,
      "d": 677.7928125000035,
      "v": 117
    },
    {
      "midi": 66,
      "hit": false,
      "t": 49162.57200000001,
      "d": 2839.1987812500083,
      "v": 97
    },
    {
      "midi": 62,
      "hit": false,
      "t": 49162.57200000001,
      "d": 5738.645812500006,
      "v": 97
    },
    {
      "midi": 69,
      "hit": false,
      "t": 49162.57200000001,
      "d": 5753.707875000007,
      "v": 97
    },
    {
      "midi": 86,
      "hit": false,
      "t": 49162.57200000001,
      "d": 60.248249999996915,
      "v": 112
    },
    {
      "midi": 50,
      "hit": false,
      "t": 49162.57200000002,
      "d": 1295.3373750000028,
      "v": 122
    },
    {
      "midi": 74,
      "hit": false,
      "t": 49215.289218750004,
      "d": 1965.5991562499985,
      "v": 96
    },
    {
      "midi": 69,
      "hit": false,
      "t": 49215.289218750004,
      "d": 1973.130187499999,
      "v": 96
    },
    {
      "midi": 78,
      "hit": false,
      "t": 49222.820250000004,
      "d": 1973.130187499999,
      "v": 96
    },
    {
      "midi": 54,
      "hit": false,
      "t": 49426.15809374999,
      "d": 451.8618750000023,
      "v": 114
    },
    {
      "midi": 54,
      "hit": false,
      "t": 49426.15809374999,
      "d": 451.8618750000023,
      "v": 117
    },
    {
      "midi": 57,
      "hit": false,
      "t": 49524.061499999996,
      "d": 188.27578125000582,
      "v": 110
    },
    {
      "midi": 57,
      "hit": false,
      "t": 49524.061500000025,
      "d": 436.7998125000013,
      "v": 104
    },
    {
      "midi": 62,
      "hit": false,
      "t": 49704.80625,
      "d": 128.02753125000163,
      "v": 121
    },
    {
      "midi": 50,
      "hit": false,
      "t": 49885.55099999999,
      "d": 2161.4059687499976,
      "v": 114
    },
    {
      "midi": 50,
      "hit": false,
      "t": 49885.55099999999,
      "d": 2161.4059687499976,
      "v": 117
    },
    {
      "midi": 66,
      "hit": false,
      "t": 49885.55100000001,
      "d": 225.93093750000116,
      "v": 127
    },
    {
      "midi": 62,
      "hit": false,
      "t": 49885.55100000003,
      "d": 933.8478749999995,
      "v": 120
    },
    {
      "midi": 66,
      "hit": false,
      "t": 49885.55100000003,
      "d": 1054.3443750000006,
      "v": 122
    },
    {
      "midi": 33,
      "hit": false,
      "t": 50247.04049999999,
      "d": 195.80681249999907,
      "v": 111
    },
    {
      "midi": 62,
      "hit": false,
      "t": 50247.04050000001,
      "d": 158.15165624999645,
      "v": 127
    },
    {
      "midi": 57,
      "hit": false,
      "t": 50247.040500000025,
      "d": 399.14465625000594,
      "v": 122
    },
    {
      "midi": 33,
      "hit": false,
      "t": 50608.529999999984,
      "d": 1355.5856249999997,
      "v": 124
    },
    {
      "midi": 79,
      "hit": false,
      "t": 50608.53,
      "d": 715.4479687500061,
      "v": 122
    },
    {
      "midi": 67,
      "hit": false,
      "t": 50608.530000000006,
      "d": 173.2137187499975,
      "v": 127
    },
    {
      "midi": 79,
      "hit": false,
      "t": 50608.530000000006,
      "d": 406.67568750000646,
      "v": 97
    },
    {
      "midi": 86,
      "hit": false,
      "t": 50608.530000000006,
      "d": 37.65515625000262,
      "v": 112
    },
    {
      "midi": 50,
      "hit": false,
      "t": 50608.53000000003,
      "d": 1370.647687500008,
      "v": 122
    },
    {
      "midi": 66,
      "hit": false,
      "t": 50970.0195,
      "d": 195.80681249999907,
      "v": 127
    },
    {
      "midi": 78,
      "hit": false,
      "t": 50970.0195,
      "d": 715.4479687500061,
      "v": 122
    },
    {
      "midi": 78,
      "hit": false,
      "t": 50970.01950000001,
      "d": 391.6136250000054,
      "v": 97
    },
    {
      "midi": 57,
      "hit": false,
      "t": 50970.01950000003,
      "d": 451.8618750000023,
      "v": 122
    },
    {
      "midi": 62,
      "hit": false,
      "t": 51331.509,
      "d": 135.55856250000215,
      "v": 127
    },
    {
      "midi": 74,
      "hit": false,
      "t": 51331.509000000005,
      "d": 353.9584687500028,
      "v": 122
    },
    {
      "midi": 74,
      "hit": false,
      "t": 51331.50900000001,
      "d": 640.1376562500009,
      "v": 97
    },
    {
      "midi": 66,
      "hit": false,
      "t": 51331.509000000035,
      "d": 406.6756874999992,
      "v": 122
    },
    {
      "midi": 62,
      "hit": false,
      "t": 51331.509000000035,
      "d": 444.3308437500018,
      "v": 122
    },
    {
      "midi": 57,
      "hit": false,
      "t": 51692.9985,
      "d": 90.37237499999901,
      "v": 127
    },
    {
      "midi": 69,
      "hit": false,
      "t": 51692.99850000001,
      "d": 2884.384968749997,
      "v": 122
    },
    {
      "midi": 57,
      "hit": false,
      "t": 51692.99850000003,
      "d": 286.17918750000536,
      "v": 122
    },
    {
      "midi": 74,
      "hit": false,
      "t": 52031.89490625,
      "d": 1235.0891249999986,
      "v": 96
    },
    {
      "midi": 76,
      "hit": false,
      "t": 52031.89490625,
      "d": 1242.6201562499991,
      "v": 96
    },
    {
      "midi": 69,
      "hit": false,
      "t": 52039.425937500004,
      "d": 1242.6201562499991,
      "v": 96
    },
    {
      "midi": 33,
      "hit": false,
      "t": 52054.48799999998,
      "d": 828.4134374999994,
      "v": 106
    },
    {
      "midi": 57,
      "hit": false,
      "t": 52054.488,
      "d": 384.0825937500049,
      "v": 107
    },
    {
      "midi": 61,
      "hit": false,
      "t": 52054.488,
      "d": 429.26878125000803,
      "v": 95
    },
    {
      "midi": 45,
      "hit": false,
      "t": 52054.488,
      "d": 1024.220250000013,
      "v": 109
    },
    {
      "midi": 64,
      "hit": false,
      "t": 52054.48800000001,
      "d": 2854.260843750002,
      "v": 97
    },
    {
      "midi": 86,
      "hit": false,
      "t": 52054.48800000001,
      "d": 45.18618750000314,
      "v": 112
    },
    {
      "midi": 45,
      "hit": false,
      "t": 52054.488000000034,
      "d": 1671.8889374999999,
      "v": 122
    },
    {
      "midi": 52,
      "hit": false,
      "t": 52415.9775,
      "d": 527.1721875000076,
      "v": 111
    },
    {
      "midi": 57,
      "hit": false,
      "t": 52415.97750000004,
      "d": 301.2412499999991,
      "v": 92
    },
    {
      "midi": 59,
      "hit": false,
      "t": 52596.722250000006,
      "d": 60.248249999996915,
      "v": 95
    },
    {
      "midi": 59,
      "hit": false,
      "t": 52777.467000000004,
      "d": 150.6206250000032,
      "v": 127
    },
    {
      "midi": 62,
      "hit": false,
      "t": 52777.467000000004,
      "d": 165.68268750000425,
      "v": 127
    },
    {
      "midi": 57,
      "hit": false,
      "t": 52777.46700000003,
      "d": 180.74474999999802,
      "v": 100
    },
    {
      "midi": 62,
      "hit": false,
      "t": 52777.46700000003,
      "d": 451.86187499999505,
      "v": 120
    },
    {
      "midi": 64,
      "hit": false,
      "t": 52777.46700000003,
      "d": 489.5170312499977,
      "v": 109
    },
    {
      "midi": 33,
      "hit": false,
      "t": 53138.956499999986,
      "d": 150.6206250000032,
      "v": 94
    },
    {
      "midi": 50,
      "hit": false,
      "t": 53138.95649999999,
      "d": 346.42743750000227,
      "v": 114
    },
    {
      "midi": 50,
      "hit": false,
      "t": 53138.95649999999,
      "d": 346.42743750000227,
      "v": 117
    },
    {
      "midi": 57,
      "hit": false,
      "t": 53138.95650000003,
      "d": 256.05506250000326,
      "v": 122
    },
    {
      "midi": 73,
      "hit": false,
      "t": 53492.91496875,
      "d": 933.8478749999995,
      "v": 96
    },
    {
      "midi": 33,
      "hit": false,
      "t": 53500.44599999999,
      "d": 1408.3028437500034,
      "v": 91
    },
    {
      "midi": 53,
      "hit": false,
      "t": 53500.445999999996,
      "d": 173.2137187499975,
      "v": 100
    },
    {
      "midi": 53,
      "hit": false,
      "t": 53500.445999999996,
      "d": 173.2137187499975,
      "v": 117
    },
    {
      "midi": 76,
      "hit": false,
      "t": 53500.446,
      "d": 933.8478749999995,
      "v": 96
    },
    {
      "midi": 57,
      "hit": false,
      "t": 53500.44600000001,
      "d": 384.0825937499976,
      "v": 123
    },
    {
      "midi": 61,
      "hit": false,
      "t": 53500.44600000001,
      "d": 512.1101249999992,
      "v": 127
    },
    {
      "midi": 45,
      "hit": false,
      "t": 53500.44600000001,
      "d": 1325.4615000000122,
      "v": 119
    },
    {
      "midi": 57,
      "hit": false,
      "t": 53500.44600000003,
      "d": 640.1376562500009,
      "v": 122
    },
    {
      "midi": 69,
      "hit": false,
      "t": 53515.508062500005,
      "d": 896.1927187499969,
      "v": 96
    },
    {
      "midi": 52,
      "hit": false,
      "t": 53681.190749999994,
      "d": 143.08959375000268,
      "v": 105
    },
    {
      "midi": 52,
      "hit": false,
      "t": 53681.190749999994,
      "d": 143.08959375000268,
      "v": 117
    },
    {
      "midi": 50,
      "hit": false,
      "t": 53861.9355,
      "d": 346.42743750000227,
      "v": 114
    },
    {
      "midi": 50,
      "hit": false,
      "t": 53861.9355,
      "d": 346.42743750000227,
      "v": 117
    },
    {
      "midi": 52,
      "hit": false,
      "t": 53861.93550000001,
      "d": 429.26878125000803,
      "v": 127
    },
    {
      "midi": 45,
      "hit": false,
      "t": 53861.935500000036,
      "d": 994.0961250000037,
      "v": 120
    },
    {
      "midi": 57,
      "hit": false,
      "t": 54042.68025000001,
      "d": 135.55856250000215,
      "v": 127
    },
    {
      "midi": 50,
      "hit": false,
      "t": 54223.425,
      "d": 240.9930000000022,
      "v": 114
    },
    {
      "midi": 50,
      "hit": false,
      "t": 54223.425,
      "d": 240.9930000000022,
      "v": 117
    },
    {
      "midi": 61,
      "hit": false,
      "t": 54223.42500000002,
      "d": 150.62062499999593,
      "v": 127
    },
    {
      "midi": 62,
      "hit": false,
      "t": 54223.42500000003,
      "d": 594.951468750005,
      "v": 120
    },
    {
      "midi": 64,
      "hit": false,
      "t": 54223.42500000003,
      "d": 602.4825000000055,
      "v": 120
    },
    {
      "midi": 57,
      "hit": false,
      "t": 54404.169750000015,
      "d": 150.6206250000032,
      "v": 127
    },
    {
      "midi": 62,
      "hit": false,
      "t": 54584.914500000006,
      "d": 4789.7358749999985,
      "v": 114
    },
    {
      "midi": 62,
      "hit": false,
      "t": 54584.914500000006,
      "d": 4789.7358749999985,
      "v": 117
    },
    {
      "midi": 52,
      "hit": false,
      "t": 54584.91450000002,
      "d": 210.86887500000012,
      "v": 127
    },
    {
      "midi": 57,
      "hit": false,
      "t": 54584.914500000035,
      "d": 263.5860937500038,
      "v": 120
    },
    {
      "midi": 46,
      "hit": false,
      "t": 54946.40399999999,
      "d": 2854.260843750002,
      "v": 97
    },
    {
      "midi": 58,
      "hit": false,
      "t": 54946.40399999999,
      "d": 2869.322906250003,
      "v": 97
    },
    {
      "midi": 34,
      "hit": false,
      "t": 54946.403999999995,
      "d": 2831.6677500000005,
      "v": 127
    },
    {
      "midi": 86,
      "hit": false,
      "t": 54946.404,
      "d": 11454.698531250011,
      "v": 97
    },
    {
      "midi": 62,
      "hit": false,
      "t": 54946.40400000002,
      "d": 2937.1021875000006,
      "v": 97
    },
    {
      "midi": 46,
      "hit": false,
      "t": 54946.404000000024,
      "d": 1702.0130624999947,
      "v": 125
    },
    {
      "midi": 53,
      "hit": false,
      "t": 54946.404000000024,
      "d": 1784.8544062499932,
      "v": 119
    },
    {
      "midi": 58,
      "hit": false,
      "t": 54946.404000000024,
      "d": 1784.8544062499932,
      "v": 114
    },
    {
      "midi": 62,
      "hit": false,
      "t": 54946.404000000024,
      "d": 1807.4474999999948,
      "v": 119
    },
    {
      "midi": 53,
      "hit": false,
      "t": 54946.40400000004,
      "d": 2741.2953750000015,
      "v": 120
    },
    {
      "midi": 58,
      "hit": false,
      "t": 54946.40400000004,
      "d": 2763.888468750003,
      "v": 122
    },
    {
      "midi": 62,
      "hit": false,
      "t": 54946.40400000004,
      "d": 2786.4815625000047,
      "v": 120
    },
    {
      "midi": 74,
      "hit": false,
      "t": 54968.997093750004,
      "d": 2183.999062499999,
      "v": 96
    },
    {
      "midi": 77,
      "hit": false,
      "t": 54984.059156250005,
      "d": 2153.874937499997,
      "v": 96
    },
    {
      "midi": 70,
      "hit": false,
      "t": 54984.059156250005,
      "d": 2161.4059687499976,
      "v": 96
    },
    {
      "midi": 86,
      "hit": false,
      "t": 55127.148750000015,
      "d": 82.84134374999849,
      "v": 112
    },
    {
      "midi": 86,
      "hit": false,
      "t": 55669.383000000016,
      "d": 82.84134374999849,
      "v": 112
    },
    {
      "midi": 86,
      "hit": false,
      "t": 56211.61725000002,
      "d": 82.84134374999849,
      "v": 112
    },
    {
      "midi": 86,
      "hit": false,
      "t": 56753.85150000002,
      "d": 67.77928124999744,
      "v": 112
    },
    {
      "midi": 86,
      "hit": false,
      "t": 57296.08575000001,
      "d": 60.248249999996915,
      "v": 112
    },
    {
      "midi": 55,
      "hit": false,
      "t": 57657.575250000016,
      "d": 2010.785343750009,
      "v": 113
    },
    {
      "midi": 52,
      "hit": false,
      "t": 57657.575250000016,
      "d": 2063.5025625000053,
      "v": 119
    },
    {
      "midi": 48,
      "hit": false,
      "t": 57657.575250000016,
      "d": 2108.6887500000084,
      "v": 115
    },
    {
      "midi": 76,
      "hit": false,
      "t": 57755.47865625,
      "d": 2545.4885625000024,
      "v": 96
    },
    {
      "midi": 79,
      "hit": false,
      "t": 57763.0096875,
      "d": 2530.4265000000014,
      "v": 96
    },
    {
      "midi": 72,
      "hit": false,
      "t": 57770.54071875,
      "d": 2500.3023749999993,
      "v": 96
    },
    {
      "midi": 36,
      "hit": false,
      "t": 57838.31999999999,
      "d": 2778.950531249997,
      "v": 117
    },
    {
      "midi": 48,
      "hit": false,
      "t": 57838.31999999999,
      "d": 2937.1021875000006,
      "v": 97
    },
    {
      "midi": 88,
      "hit": false,
      "t": 57838.32,
      "d": 2869.322906250003,
      "v": 97
    },
    {
      "midi": 64,
      "hit": false,
      "t": 57838.320000000014,
      "d": 2899.4470312500052,
      "v": 97
    },
    {
      "midi": 60,
      "hit": false,
      "t": 57838.320000000014,
      "d": 2944.6332187500084,
      "v": 97
    },
    {
      "midi": 64,
      "hit": false,
      "t": 57838.32000000002,
      "d": 1965.5991562500058,
      "v": 127
    },
    {
      "midi": 60,
      "hit": false,
      "t": 57838.32000000002,
      "d": 1980.6612187500068,
      "v": 127
    },
    {
      "midi": 55,
      "hit": false,
      "t": 57838.32000000004,
      "d": 2613.26784375,
      "v": 122
    },
    {
      "midi": 60,
      "hit": false,
      "t": 57838.32000000004,
      "d": 2665.9850624999963,
      "v": 122
    },
    {
      "midi": 64,
      "hit": false,
      "t": 57838.32000000004,
      "d": 2681.0471249999973,
      "v": 120
    },
    {
      "midi": 86,
      "hit": false,
      "t": 58199.80950000001,
      "d": 67.77928124999744,
      "v": 112
    },
    {
      "midi": 86,
      "hit": false,
      "t": 58742.043750000004,
      "d": 75.31031249999796,
      "v": 112
    },
    {
      "midi": 86,
      "hit": false,
      "t": 59284.278000000006,
      "d": 82.84134374999849,
      "v": 112
    },
    {
      "midi": 86,
      "hit": false,
      "t": 59645.7675,
      "d": 97.90340624999953,
      "v": 112
    },
    {
      "midi": 88,
      "hit": false,
      "t": 60007.25699999999,
      "d": 105.43443750000006,
      "v": 112
    },
    {
      "midi": 88,
      "hit": false,
      "t": 60007.257,
      "d": 105.43443750000006,
      "v": 112
    },
    {
      "midi": 89,
      "hit": false,
      "t": 60188.00174999999,
      "d": 90.37237499999901,
      "v": 112
    },
    {
      "midi": 89,
      "hit": false,
      "t": 60188.001749999996,
      "d": 90.37237499999901,
      "v": 112
    },
    {
      "midi": 88,
      "hit": false,
      "t": 60368.74649999999,
      "d": 82.84134374999849,
      "v": 112
    },
    {
      "midi": 88,
      "hit": false,
      "t": 60368.746499999994,
      "d": 82.84134374999849,
      "v": 112
    },
    {
      "midi": 84,
      "hit": false,
      "t": 60549.491249999985,
      "d": 97.90340624999953,
      "v": 112
    },
    {
      "midi": 84,
      "hit": false,
      "t": 60549.49124999999,
      "d": 97.90340624999953,
      "v": 112
    },
    {
      "midi": 77,
      "hit": false,
      "t": 60594.6774375,
      "d": 2906.9780625000058,
      "v": 96
    },
    {
      "midi": 74,
      "hit": false,
      "t": 60594.6774375,
      "d": 2937.102187500008,
      "v": 96
    },
    {
      "midi": 70,
      "hit": false,
      "t": 60602.20846875,
      "d": 2861.7918750000026,
      "v": 96
    },
    {
      "midi": 34,
      "hit": false,
      "t": 60730.23599999999,
      "d": 2801.5436249999984,
      "v": 117
    },
    {
      "midi": 50,
      "hit": false,
      "t": 60730.23599999999,
      "d": 2952.1642500000016,
      "v": 97
    },
    {
      "midi": 89,
      "hit": false,
      "t": 60730.236000000004,
      "d": 2869.322906250003,
      "v": 97
    },
    {
      "midi": 65,
      "hit": false,
      "t": 60730.23600000002,
      "d": 2899.4470312500052,
      "v": 97
    },
    {
      "midi": 62,
      "hit": false,
      "t": 60730.23600000002,
      "d": 2974.757343750003,
      "v": 97
    },
    {
      "midi": 58,
      "hit": false,
      "t": 60730.236000000026,
      "d": 1852.633687499998,
      "v": 127
    },
    {
      "midi": 62,
      "hit": false,
      "t": 60730.236000000026,
      "d": 1852.633687499998,
      "v": 127
    },
    {
      "midi": 46,
      "hit": false,
      "t": 60730.236000000026,
      "d": 1875.2267812499995,
      "v": 127
    },
    {
      "midi": 62,
      "hit": false,
      "t": 60730.23600000004,
      "d": 2718.70228125,
      "v": 122
    },
    {
      "midi": 58,
      "hit": false,
      "t": 60730.23600000004,
      "d": 2733.764343750001,
      "v": 122
    },
    {
      "midi": 65,
      "hit": false,
      "t": 60730.23600000004,
      "d": 2733.764343750001,
      "v": 120
    },
    {
      "midi": 86,
      "hit": false,
      "t": 60910.98074999999,
      "d": 60.248249999996915,
      "v": 112
    },
    {
      "midi": 86,
      "hit": false,
      "t": 61453.21499999998,
      "d": 82.84134374999849,
      "v": 112
    },
    {
      "midi": 86,
      "hit": false,
      "t": 61995.44924999998,
      "d": 75.31031249999796,
      "v": 112
    },
    {
      "midi": 86,
      "hit": false,
      "t": 62537.683499999985,
      "d": 75.31031249999796,
      "v": 112
    },
    {
      "midi": 86,
      "hit": false,
      "t": 63079.917749999986,
      "d": 75.31031249999796,
      "v": 112
    },
    {
      "midi": 36,
      "hit": false,
      "t": 63622.15199999999,
      "d": 2861.7918749999953,
      "v": 106
    },
    {
      "midi": 84,
      "hit": false,
      "t": 63622.15199999999,
      "d": 82.84134374999849,
      "v": 112
    },
    {
      "midi": 48,
      "hit": false,
      "t": 63622.151999999995,
      "d": 2816.6056874999995,
      "v": 97
    },
    {
      "midi": 91,
      "hit": false,
      "t": 63622.15200000001,
      "d": 2824.1367187500073,
      "v": 97
    },
    {
      "midi": 58,
      "hit": false,
      "t": 63622.152000000024,
      "d": 2123.750812499995,
      "v": 107
    },
    {
      "midi": 70,
      "hit": false,
      "t": 63622.152000000024,
      "d": 2131.281843749988,
      "v": 127
    },
    {
      "midi": 62,
      "hit": false,
      "t": 63622.152000000024,
      "d": 2138.8128749999814,
      "v": 127
    },
    {
      "midi": 65,
      "hit": false,
      "t": 63622.152000000024,
      "d": 2138.8128749999814,
      "v": 127
    },
    {
      "midi": 48,
      "hit": false,
      "t": 63622.152000000024,
      "d": 2146.3439062499747,
      "v": 119
    },
    {
      "midi": 55,
      "hit": false,
      "t": 63622.152000000024,
      "d": 2146.3439062499747,
      "v": 126
    },
    {
      "midi": 60,
      "hit": false,
      "t": 63622.152000000024,
      "d": 2816.6056874999995,
      "v": 97
    },
    {
      "midi": 67,
      "hit": false,
      "t": 63622.152000000024,
      "d": 2831.6677500000005,
      "v": 97
    },
    {
      "midi": 58,
      "hit": false,
      "t": 63622.15200000004,
      "d": 2681.0471250000046,
      "v": 122
    },
    {
      "midi": 62,
      "hit": false,
      "t": 63622.15200000004,
      "d": 2681.0471250000046,
      "v": 122
    },
    {
      "midi": 53,
      "hit": false,
      "t": 63622.15200000004,
      "d": 2696.1091875000056,
      "v": 114
    },
    {
      "midi": 67,
      "hit": false,
      "t": 63622.15200000004,
      "d": 2696.1091875000056,
      "v": 122
    },
    {
      "midi": 48,
      "hit": false,
      "t": 63622.15200000004,
      "d": 2711.1712500000067,
      "v": 122
    },
    {
      "midi": 74,
      "hit": false,
      "t": 63720.05540625001,
      "d": 173.21371875000477,
      "v": 96
    },
    {
      "midi": 77,
      "hit": false,
      "t": 63742.64850000001,
      "d": 158.15165625000373,
      "v": 96
    },
    {
      "midi": 69,
      "hit": false,
      "t": 63750.17953125001,
      "d": 112.96546875000058,
      "v": 96
    },
    {
      "midi": 67,
      "hit": false,
      "t": 63750.17953125001,
      "d": 128.02753125000163,
      "v": 96
    },
    {
      "midi": 48,
      "hit": false,
      "t": 63983.641500000005,
      "d": 346.42743750000227,
      "v": 114
    },
    {
      "midi": 48,
      "hit": false,
      "t": 63983.641500000005,
      "d": 346.42743750000227,
      "v": 117
    },
    {
      "midi": 67,
      "hit": false,
      "t": 64186.97934375001,
      "d": 2108.688749999994,
      "v": 96
    },
    {
      "midi": 77,
      "hit": false,
      "t": 64186.97934375001,
      "d": 2221.6542187499945,
      "v": 96
    },
    {
      "midi": 72,
      "hit": false,
      "t": 64262.28965625001,
      "d": 2146.3439062499965,
      "v": 96
    },
    {
      "midi": 53,
      "hit": false,
      "t": 64345.13100000001,
      "d": 346.42743750000227,
      "v": 114
    },
    {
      "midi": 53,
      "hit": false,
      "t": 64345.13100000001,
      "d": 346.42743750000227,
      "v": 117
    },
    {
      "midi": 55,
      "hit": false,
      "t": 64721.68256250001,
      "d": 195.80681249999907,
      "v": 114
    },
    {
      "midi": 55,
      "hit": false,
      "t": 64721.68256250001,
      "d": 195.80681249999907,
      "v": 117
    },
    {
      "midi": 58,
      "hit": false,
      "t": 64925.02040625001,
      "d": 459.39290625000285,
      "v": 114
    },
    {
      "midi": 58,
      "hit": false,
      "t": 64925.02040625001,
      "d": 459.39290625000285,
      "v": 117
    },
    {
      "midi": 58,
      "hit": false,
      "t": 65407.00640625002,
      "d": 331.36537499999395,
      "v": 114
    },
    {
      "midi": 58,
      "hit": false,
      "t": 65407.00640625002,
      "d": 331.36537499999395,
      "v": 117
    },
    {
      "midi": 57,
      "hit": false,
      "t": 65791.089,
      "d": 361.48949999999604,
      "v": 114
    },
    {
      "midi": 57,
      "hit": false,
      "t": 65791.089,
      "d": 361.48949999999604,
      "v": 117
    },
    {
      "midi": 55,
      "hit": false,
      "t": 66152.5785,
      "d": 346.427437499995,
      "v": 114
    },
    {
      "midi": 55,
      "hit": false,
      "t": 66152.5785,
      "d": 346.427437499995,
      "v": 117
    },
    {
      "midi": 34,
      "hit": false,
      "t": 66514.06799999998,
      "d": 828.4134374999994,
      "v": 127
    },
    {
      "midi": 62,
      "hit": false,
      "t": 66514.068,
      "d": 173.21371875000477,
      "v": 100
    },
    {
      "midi": 62,
      "hit": false,
      "t": 66514.068,
      "d": 173.21371875000477,
      "v": 117
    },
    {
      "midi": 58,
      "hit": false,
      "t": 66514.068,
      "d": 361.48949999999604,
      "v": 112
    },
    {
      "midi": 62,
      "hit": false,
      "t": 66514.068,
      "d": 361.48949999999604,
      "v": 112
    },
    {
      "midi": 57,
      "hit": false,
      "t": 66514.068,
      "d": 1250.151187499985,
      "v": 111
    },
    {
      "midi": 58,
      "hit": false,
      "t": 66514.068,
      "d": 2839.198781250001,
      "v": 97
    },
    {
      "midi": 69,
      "hit": false,
      "t": 66514.06800000003,
      "d": 2063.502562499998,
      "v": 107
    },
    {
      "midi": 62,
      "hit": false,
      "t": 66514.06800000003,
      "d": 2846.7298124999797,
      "v": 107
    },
    {
      "midi": 74,
      "hit": false,
      "t": 66521.59903125,
      "d": 2259.3093749999825,
      "v": 96
    },
    {
      "midi": 70,
      "hit": false,
      "t": 66529.1300625,
      "d": 2266.840406249976,
      "v": 96
    },
    {
      "midi": 77,
      "hit": false,
      "t": 66536.66109375,
      "d": 2251.7783437499893,
      "v": 96
    },
    {
      "midi": 60,
      "hit": false,
      "t": 66694.81275,
      "d": 173.21371875000477,
      "v": 114
    },
    {
      "midi": 60,
      "hit": false,
      "t": 66694.81275,
      "d": 173.21371875000477,
      "v": 117
    },
    {
      "midi": 57,
      "hit": false,
      "t": 66875.5575,
      "d": 549.7652812499873,
      "v": 114
    },
    {
      "midi": 57,
      "hit": false,
      "t": 66875.5575,
      "d": 549.7652812499873,
      "v": 117
    },
    {
      "midi": 58,
      "hit": false,
      "t": 66875.5575,
      "d": 361.48949999999604,
      "v": 100
    },
    {
      "midi": 62,
      "hit": false,
      "t": 66875.5575,
      "d": 361.48949999999604,
      "v": 100
    },
    {
      "midi": 65,
      "hit": false,
      "t": 66875.5575,
      "d": 361.48949999999604,
      "v": 100
    },
    {
      "midi": 58,
      "hit": false,
      "t": 67237.04699999999,
      "d": 361.48949999999604,
      "v": 100
    },
    {
      "midi": 62,
      "hit": false,
      "t": 67237.04699999999,
      "d": 361.48949999999604,
      "v": 100
    },
    {
      "midi": 65,
      "hit": false,
      "t": 67237.04699999999,
      "d": 361.48949999999604,
      "v": 100
    },
    {
      "midi": 69,
      "hit": false,
      "t": 67237.04699999999,
      "d": 361.48949999999604,
      "v": 100
    },
    {
      "midi": 60,
      "hit": false,
      "t": 67417.79174999999,
      "d": 2161.4059687499976,
      "v": 114
    },
    {
      "midi": 60,
      "hit": false,
      "t": 67417.79174999999,
      "d": 2161.4059687499976,
      "v": 117
    },
    {
      "midi": 58,
      "hit": false,
      "t": 67598.53649999999,
      "d": 361.48949999999604,
      "v": 100
    },
    {
      "midi": 62,
      "hit": false,
      "t": 67598.53649999999,
      "d": 361.48949999999604,
      "v": 100
    },
    {
      "midi": 65,
      "hit": false,
      "t": 67598.53649999999,
      "d": 361.48949999999604,
      "v": 100
    },
    {
      "midi": 34,
      "hit": false,
      "t": 67598.53649999999,
      "d": 135.55856249999488,
      "v": 85
    },
    {
      "midi": 58,
      "hit": false,
      "t": 67960.02599999998,
      "d": 361.48949999999604,
      "v": 112
    },
    {
      "midi": 62,
      "hit": false,
      "t": 67960.02599999998,
      "d": 361.48949999999604,
      "v": 112
    },
    {
      "midi": 34,
      "hit": false,
      "t": 67960.02599999998,
      "d": 1348.0545937499992,
      "v": 91
    },
    {
      "midi": 58,
      "hit": false,
      "t": 68321.51549999998,
      "d": 361.48949999999604,
      "v": 100
    },
    {
      "midi": 62,
      "hit": false,
      "t": 68321.51549999998,
      "d": 361.48949999999604,
      "v": 100
    },
    {
      "midi": 65,
      "hit": false,
      "t": 68321.51549999998,
      "d": 361.48949999999604,
      "v": 100
    },
    {
      "midi": 58,
      "hit": false,
      "t": 68683.00499999998,
      "d": 361.48949999999604,
      "v": 100
    },
    {
      "midi": 62,
      "hit": false,
      "t": 68683.00499999998,
      "d": 361.48949999999604,
      "v": 100
    },
    {
      "midi": 65,
      "hit": false,
      "t": 68683.00499999998,
      "d": 361.48949999999604,
      "v": 100
    },
    {
      "midi": 69,
      "hit": false,
      "t": 68683.00499999998,
      "d": 361.48949999999604,
      "v": 100
    },
    {
      "midi": 67,
      "hit": false,
      "t": 68683.00500000002,
      "d": 655.1997187499946,
      "v": 107
    },
    {
      "midi": 58,
      "hit": false,
      "t": 69044.49449999997,
      "d": 361.48949999999604,
      "v": 100
    },
    {
      "midi": 62,
      "hit": false,
      "t": 69044.49449999997,
      "d": 361.48949999999604,
      "v": 100
    },
    {
      "midi": 65,
      "hit": false,
      "t": 69044.49449999997,
      "d": 361.48949999999604,
      "v": 100
    },
    {
      "midi": 57,
      "hit": false,
      "t": 69405.98399999997,
      "d": 361.48949999999604,
      "v": 113
    },
    {
      "midi": 60,
      "hit": false,
      "t": 69405.98399999997,
      "d": 361.48949999999604,
      "v": 113
    },
    {
      "midi": 33,
      "hit": false,
      "t": 69405.98399999998,
      "d": 851.0065312499937,
      "v": 94
    },
    {
      "midi": 70,
      "hit": false,
      "t": 69405.98400000001,
      "d": 722.9790000000066,
      "v": 107
    },
    {
      "midi": 65,
      "hit": false,
      "t": 69405.98400000001,
      "d": 1152.2477812500001,
      "v": 107
    },
    {
      "midi": 72,
      "hit": false,
      "t": 69405.98400000001,
      "d": 2861.79187500001,
      "v": 107
    },
    {
      "midi": 76,
      "hit": false,
      "t": 69436.10812499997,
      "d": 2394.867937499992,
      "v": 96
    },
    {
      "midi": 72,
      "hit": false,
      "t": 69436.10812499997,
      "d": 2417.4610312499863,
      "v": 96
    },
    {
      "midi": 69,
      "hit": false,
      "t": 69443.63915624996,
      "d": 2424.992062499994,
      "v": 96
    },
    {
      "midi": 57,
      "hit": false,
      "t": 69767.47349999996,
      "d": 361.48949999999604,
      "v": 100
    },
    {
      "midi": 60,
      "hit": false,
      "t": 69767.47349999996,
      "d": 361.48949999999604,
      "v": 100
    },
    {
      "midi": 64,
      "hit": false,
      "t": 69767.47349999996,
      "d": 361.48949999999604,
      "v": 100
    },
    {
      "midi": 57,
      "hit": false,
      "t": 70128.96299999996,
      "d": 361.48949999999604,
      "v": 100
    },
    {
      "midi": 60,
      "hit": false,
      "t": 70128.96299999996,
      "d": 361.48949999999604,
      "v": 100
    },
    {
      "midi": 64,
      "hit": false,
      "t": 70128.96299999996,
      "d": 361.48949999999604,
      "v": 100
    },
    {
      "midi": 67,
      "hit": false,
      "t": 70128.96299999996,
      "d": 361.48949999999604,
      "v": 100
    },
    {
      "midi": 69,
      "hit": false,
      "t": 70128.96300000002,
      "d": 707.916937499991,
      "v": 107
    },
    {
      "midi": 57,
      "hit": false,
      "t": 70490.45249999996,
      "d": 361.48949999999604,
      "v": 100
    },
    {
      "midi": 60,
      "hit": false,
      "t": 70490.45249999996,
      "d": 361.48949999999604,
      "v": 100
    },
    {
      "midi": 64,
      "hit": false,
      "t": 70490.45249999996,
      "d": 361.48949999999604,
      "v": 100
    },
    {
      "midi": 33,
      "hit": false,
      "t": 70490.45249999997,
      "d": 143.08959375000268,
      "v": 79
    },
    {
      "midi": 52,
      "hit": false,
      "t": 70490.45249999998,
      "d": 120.49649999999383,
      "v": 114
    },
    {
      "midi": 52,
      "hit": false,
      "t": 70490.45249999998,
      "d": 120.49649999999383,
      "v": 117
    },
    {
      "midi": 55,
      "hit": false,
      "t": 70671.19724999998,
      "d": 271.11712499998976,
      "v": 114
    },
    {
      "midi": 55,
      "hit": false,
      "t": 70671.19724999998,
      "d": 271.11712499998976,
      "v": 117
    },
    {
      "midi": 57,
      "hit": false,
      "t": 70851.94199999995,
      "d": 361.48949999999604,
      "v": 113
    },
    {
      "midi": 60,
      "hit": false,
      "t": 70851.94199999995,
      "d": 361.48949999999604,
      "v": 113
    },
    {
      "midi": 33,
      "hit": false,
      "t": 70851.94199999997,
      "d": 1250.1511874999997,
      "v": 79
    },
    {
      "midi": 67,
      "hit": false,
      "t": 70851.94200000001,
      "d": 707.9169375000056,
      "v": 107
    },
    {
      "midi": 58,
      "hit": false,
      "t": 70904.65921874998,
      "d": 481.9859999999899,
      "v": 114
    },
    {
      "midi": 58,
      "hit": false,
      "t": 70904.65921874998,
      "d": 481.9859999999899,
      "v": 117
    },
    {
      "midi": 57,
      "hit": false,
      "t": 71213.43149999995,
      "d": 361.48949999999604,
      "v": 100
    },
    {
      "midi": 60,
      "hit": false,
      "t": 71213.43149999995,
      "d": 361.48949999999604,
      "v": 100
    },
    {
      "midi": 64,
      "hit": false,
      "t": 71213.43149999995,
      "d": 361.48949999999604,
      "v": 100
    },
    {
      "midi": 57,
      "hit": false,
      "t": 71394.17624999996,
      "d": 527.172187499993,
      "v": 114
    },
    {
      "midi": 57,
      "hit": false,
      "t": 71394.17624999996,
      "d": 527.172187499993,
      "v": 117
    },
    {
      "midi": 57,
      "hit": false,
      "t": 71574.92099999994,
      "d": 361.48949999999604,
      "v": 100
    },
    {
      "midi": 60,
      "hit": false,
      "t": 71574.92099999994,
      "d": 361.48949999999604,
      "v": 100
    },
    {
      "midi": 64,
      "hit": false,
      "t": 71574.92099999994,
      "d": 361.48949999999604,
      "v": 100
    },
    {
      "midi": 67,
      "hit": false,
      "t": 71574.92099999994,
      "d": 361.48949999999604,
      "v": 100
    },
    {
      "midi": 65,
      "hit": false,
      "t": 71574.92100000002,
      "d": 707.9169375000056,
      "v": 107
    },
    {
      "midi": 57,
      "hit": false,
      "t": 71936.41049999994,
      "d": 361.48949999999604,
      "v": 100
    },
    {
      "midi": 60,
      "hit": false,
      "t": 71936.41049999994,
      "d": 361.48949999999604,
      "v": 100
    },
    {
      "midi": 64,
      "hit": false,
      "t": 71936.41049999994,
      "d": 361.48949999999604,
      "v": 100
    },
    {
      "midi": 53,
      "hit": false,
      "t": 71936.41049999995,
      "d": 369.0205312499893,
      "v": 114
    },
    {
      "midi": 53,
      "hit": false,
      "t": 71936.41049999995,
      "d": 369.0205312499893,
      "v": 117
    },
    {
      "midi": 55,
      "hit": false,
      "t": 72297.89999999994,
      "d": 361.48949999999604,
      "v": 115
    },
    {
      "midi": 58,
      "hit": false,
      "t": 72297.89999999994,
      "d": 361.48949999999604,
      "v": 114
    },
    {
      "midi": 48,
      "hit": false,
      "t": 72297.89999999995,
      "d": 2161.4059687499976,
      "v": 114
    },
    {
      "midi": 48,
      "hit": false,
      "t": 72297.89999999995,
      "d": 2161.4059687499976,
      "v": 117
    },
    {
      "midi": 36,
      "hit": false,
      "t": 72297.89999999997,
      "d": 828.4134374999994,
      "v": 85
    },
    {
      "midi": 65,
      "hit": false,
      "t": 72297.90000000002,
      "d": 2824.13671875,
      "v": 107
    },
    {
      "midi": 62,
      "hit": false,
      "t": 72297.90000000002,
      "d": 2831.6677499999932,
      "v": 107
    },
    {
      "midi": 70,
      "hit": false,
      "t": 72297.90000000002,
      "d": 2846.7298124999943,
      "v": 107
    },
    {
      "midi": 67,
      "hit": false,
      "t": 72328.02412499995,
      "d": 2545.488562499988,
      "v": 96
    },
    {
      "midi": 70,
      "hit": false,
      "t": 72328.02412499995,
      "d": 2568.081656249982,
      "v": 96
    },
    {
      "midi": 74,
      "hit": false,
      "t": 72335.55515624995,
      "d": 2605.736812499992,
      "v": 96
    },
    {
      "midi": 55,
      "hit": false,
      "t": 72659.38949999993,
      "d": 361.48949999999604,
      "v": 100
    },
    {
      "midi": 58,
      "hit": false,
      "t": 72659.38949999993,
      "d": 361.48949999999604,
      "v": 100
    },
    {
      "midi": 62,
      "hit": false,
      "t": 72659.38949999993,
      "d": 361.48949999999604,
      "v": 100
    },
    {
      "midi": 55,
      "hit": false,
      "t": 73020.87899999993,
      "d": 361.48949999999604,
      "v": 100
    },
    {
      "midi": 58,
      "hit": false,
      "t": 73020.87899999993,
      "d": 361.48949999999604,
      "v": 100
    },
    {
      "midi": 62,
      "hit": false,
      "t": 73020.87899999993,
      "d": 361.48949999999604,
      "v": 100
    },
    {
      "midi": 67,
      "hit": false,
      "t": 73020.87899999993,
      "d": 361.48949999999604,
      "v": 100
    },
    {
      "midi": 55,
      "hit": false,
      "t": 73382.36849999992,
      "d": 361.48949999999604,
      "v": 100
    },
    {
      "midi": 58,
      "hit": false,
      "t": 73382.36849999992,
      "d": 361.48949999999604,
      "v": 100
    },
    {
      "midi": 62,
      "hit": false,
      "t": 73382.36849999992,
      "d": 361.48949999999604,
      "v": 100
    },
    {
      "midi": 36,
      "hit": false,
      "t": 73382.36849999997,
      "d": 165.68268749999697,
      "v": 74
    },
    {
      "midi": 55,
      "hit": false,
      "t": 73743.85799999992,
      "d": 361.48949999999604,
      "v": 115
    },
    {
      "midi": 58,
      "hit": false,
      "t": 73743.85799999992,
      "d": 361.48949999999604,
      "v": 114
    },
    {
      "midi": 36,
      "hit": false,
      "t": 73743.85799999996,
      "d": 361.48949999999604,
      "v": 105
    },
    {
      "midi": 55,
      "hit": false,
      "t": 74105.34749999992,
      "d": 361.48949999999604,
      "v": 100
    },
    {
      "midi": 58,
      "hit": false,
      "t": 74105.34749999992,
      "d": 361.48949999999604,
      "v": 100
    },
    {
      "midi": 62,
      "hit": false,
      "t": 74105.34749999992,
      "d": 361.48949999999604,
      "v": 100
    },
    {
      "midi": 36,
      "hit": false,
      "t": 74286.09224999996,
      "d": 120.49649999999383,
      "v": 105
    },
    {
      "midi": 55,
      "hit": false,
      "t": 74466.83699999991,
      "d": 361.48949999999604,
      "v": 100
    },
    {
      "midi": 58,
      "hit": false,
      "t": 74466.83699999991,
      "d": 361.48949999999604,
      "v": 100
    },
    {
      "midi": 62,
      "hit": false,
      "t": 74466.83699999991,
      "d": 361.48949999999604,
      "v": 100
    },
    {
      "midi": 67,
      "hit": false,
      "t": 74466.83699999991,
      "d": 361.48949999999604,
      "v": 100
    },
    {
      "midi": 31,
      "hit": false,
      "t": 74466.83699999996,
      "d": 240.9930000000022,
      "v": 105
    },
    {
      "midi": 55,
      "hit": false,
      "t": 74828.32649999991,
      "d": 361.48949999999604,
      "v": 100
    },
    {
      "midi": 58,
      "hit": false,
      "t": 74828.32649999991,
      "d": 361.48949999999604,
      "v": 100
    },
    {
      "midi": 62,
      "hit": false,
      "t": 74828.32649999991,
      "d": 361.48949999999604,
      "v": 100
    },
    {
      "midi": 36,
      "hit": false,
      "t": 74828.32649999995,
      "d": 240.9930000000022,
      "v": 105
    },
    {
      "midi": 48,
      "hit": false,
      "t": 75009.07124999995,
      "d": 158.15165625000373,
      "v": 114
    },
    {
      "midi": 48,
      "hit": false,
      "t": 75009.07124999995,
      "d": 158.15165625000373,
      "v": 117
    },
    {
      "midi": 74,
      "hit": false,
      "t": 75182.28496874994,
      "d": 1152.2477812500001,
      "v": 96
    },
    {
      "midi": 69,
      "hit": false,
      "t": 75182.28496874994,
      "d": 1159.7788124999934,
      "v": 96
    },
    {
      "midi": 77,
      "hit": false,
      "t": 75189.81599999993,
      "d": 1189.9029374999955,
      "v": 96
    },
    {
      "midi": 53,
      "hit": false,
      "t": 75189.81599999995,
      "d": 361.48949999999604,
      "v": 114
    },
    {
      "midi": 53,
      "hit": false,
      "t": 75189.81599999995,
      "d": 361.48949999999604,
      "v": 117
    },
    {
      "midi": 38,
      "hit": false,
      "t": 75189.81599999995,
      "d": 851.0065312499937,
      "v": 74
    },
    {
      "midi": 65,
      "hit": false,
      "t": 75189.81600000002,
      "d": 1408.3028437500034,
      "v": 107
    },
    {
      "midi": 69,
      "hit": false,
      "t": 75189.81600000002,
      "d": 1423.3649062500044,
      "v": 107
    },
    {
      "midi": 62,
      "hit": false,
      "t": 75551.3054999999,
      "d": 60.24825000000419,
      "v": 100
    },
    {
      "midi": 57,
      "hit": false,
      "t": 75551.3054999999,
      "d": 361.4895000000106,
      "v": 100
    },
    {
      "midi": 65,
      "hit": false,
      "t": 75551.3054999999,
      "d": 361.4895000000106,
      "v": 110
    },
    {
      "midi": 60,
      "hit": false,
      "t": 75551.30549999994,
      "d": 361.48949999999604,
      "v": 114
    },
    {
      "midi": 60,
      "hit": false,
      "t": 75551.30549999994,
      "d": 361.48949999999604,
      "v": 117
    },
    {
      "midi": 57,
      "hit": false,
      "t": 75912.79499999991,
      "d": 361.48949999999604,
      "v": 100
    },
    {
      "midi": 62,
      "hit": false,
      "t": 75912.79499999991,
      "d": 361.48949999999604,
      "v": 100
    },
    {
      "midi": 65,
      "hit": false,
      "t": 75912.79499999991,
      "d": 361.48949999999604,
      "v": 110
    },
    {
      "midi": 69,
      "hit": false,
      "t": 75912.79499999991,
      "d": 361.48949999999604,
      "v": 111
    },
    {
      "midi": 60,
      "hit": false,
      "t": 75912.79499999994,
      "d": 323.8343437500007,
      "v": 114
    },
    {
      "midi": 60,
      "hit": false,
      "t": 75912.79499999994,
      "d": 323.8343437500007,
      "v": 117
    },
    {
      "midi": 57,
      "hit": false,
      "t": 76274.2844999999,
      "d": 263.5860937499965,
      "v": 100
    },
    {
      "midi": 62,
      "hit": false,
      "t": 76274.2844999999,
      "d": 361.48949999999604,
      "v": 100
    },
    {
      "midi": 65,
      "hit": false,
      "t": 76274.2844999999,
      "d": 361.48949999999604,
      "v": 110
    },
    {
      "midi": 53,
      "hit": false,
      "t": 76274.28449999994,
      "d": 218.39990624999336,
      "v": 114
    },
    {
      "midi": 53,
      "hit": false,
      "t": 76274.28449999994,
      "d": 218.39990624999336,
      "v": 117
    },
    {
      "midi": 38,
      "hit": false,
      "t": 76274.28449999994,
      "d": 256.05506250000326,
      "v": 74
    },
    {
      "midi": 60,
      "hit": false,
      "t": 76500.21543749992,
      "d": 444.33084374999453,
      "v": 114
    },
    {
      "midi": 60,
      "hit": false,
      "t": 76500.21543749992,
      "d": 444.33084374999453,
      "v": 117
    },
    {
      "midi": 72,
      "hit": false,
      "t": 76605.64987499993,
      "d": 1235.0891249999986,
      "v": 96
    },
    {
      "midi": 76,
      "hit": false,
      "t": 76605.64987499993,
      "d": 1235.0891249999986,
      "v": 96
    },
    {
      "midi": 69,
      "hit": false,
      "t": 76613.18090624992,
      "d": 1235.0891249999986,
      "v": 96
    },
    {
      "midi": 55,
      "hit": false,
      "t": 76635.7739999999,
      "d": 361.48949999999604,
      "v": 115
    },
    {
      "midi": 60,
      "hit": false,
      "t": 76635.7739999999,
      "d": 361.48949999999604,
      "v": 115
    },
    {
      "midi": 33,
      "hit": false,
      "t": 76635.77399999993,
      "d": 1212.4960312500043,
      "v": 91
    },
    {
      "midi": 67,
      "hit": false,
      "t": 76635.77400000002,
      "d": 1491.1441875000019,
      "v": 107
    },
    {
      "midi": 64,
      "hit": false,
      "t": 76635.77400000002,
      "d": 1498.675218749995,
      "v": 107
    },
    {
      "midi": 55,
      "hit": false,
      "t": 76997.2634999999,
      "d": 361.48949999999604,
      "v": 100
    },
    {
      "midi": 60,
      "hit": false,
      "t": 76997.2634999999,
      "d": 361.48949999999604,
      "v": 100
    },
    {
      "midi": 64,
      "hit": false,
      "t": 76997.2634999999,
      "d": 361.48949999999604,
      "v": 100
    },
    {
      "midi": 60,
      "hit": false,
      "t": 76997.26349999991,
      "d": 346.427437499995,
      "v": 114
    },
    {
      "midi": 60,
      "hit": false,
      "t": 76997.26349999991,
      "d": 346.427437499995,
      "v": 117
    },
    {
      "midi": 55,
      "hit": false,
      "t": 77358.7529999999,
      "d": 361.48949999999604,
      "v": 100
    },
    {
      "midi": 60,
      "hit": false,
      "t": 77358.7529999999,
      "d": 361.48949999999604,
      "v": 100
    },
    {
      "midi": 64,
      "hit": false,
      "t": 77358.7529999999,
      "d": 361.48949999999604,
      "v": 100
    },
    {
      "midi": 67,
      "hit": false,
      "t": 77358.7529999999,
      "d": 361.48949999999604,
      "v": 100
    },
    {
      "midi": 60,
      "hit": false,
      "t": 77358.75299999991,
      "d": 346.427437499995,
      "v": 114
    },
    {
      "midi": 60,
      "hit": false,
      "t": 77358.75299999991,
      "d": 346.427437499995,
      "v": 117
    },
    {
      "midi": 55,
      "hit": false,
      "t": 77720.24249999989,
      "d": 361.48949999999604,
      "v": 100
    },
    {
      "midi": 60,
      "hit": false,
      "t": 77720.24249999989,
      "d": 361.48949999999604,
      "v": 100
    },
    {
      "midi": 64,
      "hit": false,
      "t": 77720.24249999989,
      "d": 361.48949999999604,
      "v": 100
    },
    {
      "midi": 60,
      "hit": false,
      "t": 77720.2424999999,
      "d": 369.02053125000384,
      "v": 114
    },
    {
      "midi": 60,
      "hit": false,
      "t": 77720.2424999999,
      "d": 369.02053125000384,
      "v": 117
    },
    {
      "midi": 55,
      "hit": false,
      "t": 78081.73199999989,
      "d": 361.48949999999604,
      "v": 115
    },
    {
      "midi": 59,
      "hit": false,
      "t": 78081.73199999989,
      "d": 361.48949999999604,
      "v": 115
    },
    {
      "midi": 31,
      "hit": false,
      "t": 78081.73199999993,
      "d": 820.8824062500062,
      "v": 117
    },
    {
      "midi": 71,
      "hit": false,
      "t": 78081.73200000002,
      "d": 2741.2953750000015,
      "v": 107
    },
    {
      "midi": 62,
      "hit": false,
      "t": 78081.73200000002,
      "d": 2891.9159999999974,
      "v": 107
    },
    {
      "midi": 60,
      "hit": false,
      "t": 78089.26303124991,
      "d": 361.48949999999604,
      "v": 114
    },
    {
      "midi": 60,
      "hit": false,
      "t": 78089.26303124991,
      "d": 361.48949999999604,
      "v": 117
    },
    {
      "midi": 71,
      "hit": false,
      "t": 78089.26303124992,
      "d": 2379.8058750000055,
      "v": 96
    },
    {
      "midi": 67,
      "hit": false,
      "t": 78096.79406249992,
      "d": 2296.964531250007,
      "v": 96
    },
    {
      "midi": 74,
      "hit": false,
      "t": 78096.79406249992,
      "d": 2409.9300000000076,
      "v": 96
    },
    {
      "midi": 55,
      "hit": false,
      "t": 78443.22149999988,
      "d": 361.48949999999604,
      "v": 100
    },
    {
      "midi": 59,
      "hit": false,
      "t": 78443.22149999988,
      "d": 361.48949999999604,
      "v": 100
    },
    {
      "midi": 62,
      "hit": false,
      "t": 78443.22149999988,
      "d": 361.48949999999604,
      "v": 100
    },
    {
      "midi": 62,
      "hit": false,
      "t": 78443.22149999991,
      "d": 707.916937499991,
      "v": 114
    },
    {
      "midi": 62,
      "hit": false,
      "t": 78443.22149999991,
      "d": 707.916937499991,
      "v": 117
    },
    {
      "midi": 55,
      "hit": false,
      "t": 78804.71099999988,
      "d": 361.48949999999604,
      "v": 100
    },
    {
      "midi": 59,
      "hit": false,
      "t": 78804.71099999988,
      "d": 361.48949999999604,
      "v": 100
    },
    {
      "midi": 62,
      "hit": false,
      "t": 78804.71099999988,
      "d": 361.48949999999604,
      "v": 100
    },
    {
      "midi": 67,
      "hit": false,
      "t": 78804.71099999988,
      "d": 361.48949999999604,
      "v": 100
    },
    {
      "midi": 55,
      "hit": false,
      "t": 79166.20049999988,
      "d": 361.48949999999604,
      "v": 100
    },
    {
      "midi": 59,
      "hit": false,
      "t": 79166.20049999988,
      "d": 361.48949999999604,
      "v": 100
    },
    {
      "midi": 62,
      "hit": false,
      "t": 79166.20049999988,
      "d": 361.48949999999604,
      "v": 100
    },
    {
      "midi": 31,
      "hit": false,
      "t": 79166.20049999993,
      "d": 150.62062499999593,
      "v": 91
    },
    {
      "midi": 55,
      "hit": false,
      "t": 79527.68999999987,
      "d": 361.48949999999604,
      "v": 115
    },
    {
      "midi": 59,
      "hit": false,
      "t": 79527.68999999987,
      "d": 361.48949999999604,
      "v": 115
    },
    {
      "midi": 59,
      "hit": false,
      "t": 79527.6899999999,
      "d": 323.8343437500007,
      "v": 114
    },
    {
      "midi": 59,
      "hit": false,
      "t": 79527.6899999999,
      "d": 323.8343437500007,
      "v": 117
    },
    {
      "midi": 31,
      "hit": false,
      "t": 79527.68999999993,
      "d": 1280.2753125000017,
      "v": 91
    },
    {
      "midi": 57,
      "hit": false,
      "t": 79851.5243437499,
      "d": 391.61362499999814,
      "v": 114
    },
    {
      "midi": 57,
      "hit": false,
      "t": 79851.5243437499,
      "d": 391.61362499999814,
      "v": 117
    },
    {
      "midi": 55,
      "hit": false,
      "t": 79889.17949999987,
      "d": 361.48949999999604,
      "v": 100
    },
    {
      "midi": 59,
      "hit": false,
      "t": 79889.17949999987,
      "d": 361.48949999999604,
      "v": 100
    },
    {
      "midi": 62,
      "hit": false,
      "t": 79889.17949999987,
      "d": 361.48949999999604,
      "v": 100
    },
    {
      "midi": 55,
      "hit": false,
      "t": 80250.66899999986,
      "d": 361.48949999999604,
      "v": 100
    },
    {
      "midi": 59,
      "hit": false,
      "t": 80250.66899999986,
      "d": 361.48949999999604,
      "v": 100
    },
    {
      "midi": 62,
      "hit": false,
      "t": 80250.66899999986,
      "d": 361.48949999999604,
      "v": 100
    },
    {
      "midi": 67,
      "hit": false,
      "t": 80250.66899999986,
      "d": 361.48949999999604,
      "v": 100
    },
    {
      "midi": 55,
      "hit": false,
      "t": 80250.66899999989,
      "d": 361.48949999999604,
      "v": 114
    },
    {
      "midi": 55,
      "hit": false,
      "t": 80250.66899999989,
      "d": 361.48949999999604,
      "v": 117
    },
    {
      "midi": 55,
      "hit": false,
      "t": 80612.15849999986,
      "d": 361.48949999999604,
      "v": 100
    },
    {
      "midi": 59,
      "hit": false,
      "t": 80612.15849999986,
      "d": 361.48949999999604,
      "v": 100
    },
    {
      "midi": 62,
      "hit": false,
      "t": 80612.15849999986,
      "d": 361.48949999999604,
      "v": 100
    },
    {
      "midi": 57,
      "hit": false,
      "t": 80612.15849999989,
      "d": 2884.384968750004,
      "v": 114
    },
    {
      "midi": 57,
      "hit": false,
      "t": 80612.15849999989,
      "d": 2884.384968750004,
      "v": 117
    },
    {
      "midi": 69,
      "hit": false,
      "t": 80762.77912499993,
      "d": 5618.149312499983,
      "v": 96
    },
    {
      "midi": 74,
      "hit": false,
      "t": 80770.31015624992,
      "d": 5580.494156249988,
      "v": 96
    },
    {
      "midi": 78,
      "hit": false,
      "t": 80777.84118749991,
      "d": 5655.804468749993,
      "v": 96
    },
    {
      "midi": 50,
      "hit": false,
      "t": 80973.64799999986,
      "d": 2168.936999999991,
      "v": 111
    },
    {
      "midi": 57,
      "hit": false,
      "t": 80973.64799999986,
      "d": 2786.4815624999756,
      "v": 99
    },
    {
      "midi": 38,
      "hit": false,
      "t": 80973.64799999993,
      "d": 896.1927187499969,
      "v": 91
    },
    {
      "midi": 62,
      "hit": false,
      "t": 80973.64800000002,
      "d": 2891.9159999999974,
      "v": 107
    },
    {
      "midi": 66,
      "hit": false,
      "t": 80973.64800000002,
      "d": 2891.9159999999974,
      "v": 107
    },
    {
      "midi": 69,
      "hit": false,
      "t": 80973.64800000002,
      "d": 2891.9159999999974,
      "v": 107
    },
    {
      "midi": 57,
      "hit": false,
      "t": 80973.64800000004,
      "d": 2786.4815624999756,
      "v": 114
    },
    {
      "midi": 50,
      "hit": false,
      "t": 80973.64800000004,
      "d": 2824.136718749971,
      "v": 122
    },
    {
      "midi": 67,
      "hit": false,
      "t": 81335.13749999985,
      "d": 308.77228124999965,
      "v": 111
    },
    {
      "midi": 62,
      "hit": false,
      "t": 81335.13749999985,
      "d": 474.4549687499966,
      "v": 99
    },
    {
      "midi": 67,
      "hit": false,
      "t": 81335.13750000004,
      "d": 308.77228124999965,
      "v": 122
    },
    {
      "midi": 62,
      "hit": false,
      "t": 81335.13750000004,
      "d": 474.4549687499966,
      "v": 114
    },
    {
      "midi": 66,
      "hit": false,
      "t": 81696.62699999985,
      "d": 414.20671874999243,
      "v": 127
    },
    {
      "midi": 66,
      "hit": false,
      "t": 81696.62700000004,
      "d": 414.20671874999243,
      "v": 122
    },
    {
      "midi": 62,
      "hit": false,
      "t": 82058.11649999984,
      "d": 700.3859062499978,
      "v": 111
    },
    {
      "midi": 38,
      "hit": false,
      "t": 82058.11649999993,
      "d": 158.15165625000373,
      "v": 85
    },
    {
      "midi": 62,
      "hit": false,
      "t": 82058.11650000003,
      "d": 700.3859062499978,
      "v": 122
    },
    {
      "midi": 67,
      "hit": false,
      "t": 82419.60599999984,
      "d": 421.73775000000023,
      "v": 114
    },
    {
      "midi": 38,
      "hit": false,
      "t": 82419.60599999994,
      "d": 670.2617812499957,
      "v": 85
    },
    {
      "midi": 67,
      "hit": false,
      "t": 82419.60600000003,
      "d": 421.73775000000023,
      "v": 122
    },
    {
      "midi": 45,
      "hit": false,
      "t": 82781.09549999984,
      "d": 150.62062500001048,
      "v": 127
    },
    {
      "midi": 66,
      "hit": false,
      "t": 82781.09549999984,
      "d": 406.67568750001374,
      "v": 126
    },
    {
      "midi": 45,
      "hit": false,
      "t": 82781.0955,
      "d": 173.21371875000477,
      "v": 127
    },
    {
      "midi": 57,
      "hit": false,
      "t": 82781.0955,
      "d": 722.9789999999921,
      "v": 118
    },
    {
      "midi": 66,
      "hit": false,
      "t": 82781.09550000002,
      "d": 406.67568750001374,
      "v": 122
    },
    {
      "midi": 47,
      "hit": false,
      "t": 82961.84024999985,
      "d": 120.49649999999383,
      "v": 127
    },
    {
      "midi": 47,
      "hit": false,
      "t": 82961.84025,
      "d": 97.90340624999953,
      "v": 127
    },
    {
      "midi": 59,
      "hit": false,
      "t": 82961.84025,
      "d": 75.31031250000524,
      "v": 118
    },
    {
      "midi": 62,
      "hit": false,
      "t": 83142.58499999985,
      "d": 579.8894062499894,
      "v": 111
    },
    {
      "midi": 50,
      "hit": false,
      "t": 83142.58499999985,
      "d": 655.1997187499801,
      "v": 127
    },
    {
      "midi": 33,
      "hit": false,
      "t": 83142.58499999993,
      "d": 579.889406250004,
      "v": 91
    },
    {
      "midi": 50,
      "hit": false,
      "t": 83142.58499999999,
      "d": 180.74474999999802,
      "v": 127
    },
    {
      "midi": 62,
      "hit": false,
      "t": 83142.58499999999,
      "d": 97.90340624999953,
      "v": 120
    },
    {
      "midi": 62,
      "hit": false,
      "t": 83142.58500000004,
      "d": 579.8894062499894,
      "v": 122
    },
    {
      "midi": 47,
      "hit": false,
      "t": 83323.32974999984,
      "d": 143.08959375000268,
      "v": 127
    },
    {
      "midi": 47,
      "hit": false,
      "t": 83323.32974999999,
      "d": 82.84134374999849,
      "v": 127
    },
    {
      "midi": 59,
      "hit": false,
      "t": 83323.32974999999,
      "d": 82.84134374999849,
      "v": 117
    },
    {
      "midi": 45,
      "hit": false,
      "t": 83504.07449999984,
      "d": 225.9309374999866,
      "v": 127
    },
    {
      "midi": 67,
      "hit": false,
      "t": 83504.07449999984,
      "d": 278.648156249983,
      "v": 111
    },
    {
      "midi": 45,
      "hit": false,
      "t": 83504.07449999999,
      "d": 256.05506250000326,
      "v": 127
    },
    {
      "midi": 57,
      "hit": false,
      "t": 83504.07449999999,
      "d": 3132.9089999999997,
      "v": 97
    },
    {
      "midi": 67,
      "hit": false,
      "t": 83504.07450000003,
      "d": 278.648156249983,
      "v": 122
    },
    {
      "midi": 66,
      "hit": false,
      "t": 83865.56399999982,
      "d": 2673.516093750004,
      "v": 126
    },
    {
      "midi": 57,
      "hit": false,
      "t": 83865.56399999982,
      "d": 2681.0471249999973,
      "v": 94
    },
    {
      "midi": 62,
      "hit": false,
      "t": 83865.56399999982,
      "d": 2681.0471249999973,
      "v": 105
    },
    {
      "midi": 50,
      "hit": false,
      "t": 83865.56399999982,
      "d": 2696.1091874999984,
      "v": 85
    },
    {
      "midi": 38,
      "hit": false,
      "t": 83865.56399999982,
      "d": 2726.2333125000005,
      "v": 127
    },
    {
      "midi": 26,
      "hit": false,
      "t": 83865.56399999994,
      "d": 2711.1712499999994,
      "v": 127
    },
    {
      "midi": 38,
      "hit": false,
      "t": 83865.56399999998,
      "d": 2696.1091874999984,
      "v": 127
    },
    {
      "midi": 50,
      "hit": false,
      "t": 83865.56399999998,
      "d": 2778.950531249997,
      "v": 97
    },
    {
      "midi": 66,
      "hit": false,
      "t": 83865.56400000001,
      "d": 2673.516093750004,
      "v": 122
    },
    {
      "midi": 57,
      "hit": false,
      "t": 83865.56400000001,
      "d": 2681.0471249999973,
      "v": 109
    },
    {
      "midi": 62,
      "hit": false,
      "t": 83865.56400000001,
      "d": 2681.0471249999973,
      "v": 120
    },
    {
      "midi": 50,
      "hit": false,
      "t": 83865.56400000001,
      "d": 2696.1091874999984,
      "v": 100
    },
    {
      "midi": 57,
      "hit": false,
      "t": 84588.54299999989,
      "d": 308.77228124999965,
      "v": 114
    },
    {
      "midi": 57,
      "hit": false,
      "t": 84588.54299999989,
      "d": 308.77228124999965,
      "v": 117
    },
    {
      "midi": 57,
      "hit": false,
      "t": 84950.03249999988,
      "d": 308.77228124999965,
      "v": 114
    },
    {
      "midi": 57,
      "hit": false,
      "t": 84950.03249999988,
      "d": 308.77228124999965,
      "v": 117
    },
    {
      "midi": 57,
      "hit": false,
      "t": 85311.52199999988,
      "d": 308.77228124999965,
      "v": 114
    },
    {
      "midi": 57,
      "hit": false,
      "t": 85311.52199999988,
      "d": 308.77228124999965,
      "v": 117
    },
    {
      "midi": 57,
      "hit": false,
      "t": 85673.01149999988,
      "d": 308.77228124999965,
      "v": 114
    },
    {
      "midi": 57,
      "hit": false,
      "t": 85673.01149999988,
      "d": 308.77228124999965,
      "v": 117
    },
    {
      "midi": 55,
      "hit": false,
      "t": 86034.50099999987,
      "d": 346.427437499995,
      "v": 114
    },
    {
      "midi": 55,
      "hit": false,
      "t": 86034.50099999987,
      "d": 346.427437499995,
      "v": 117
    },
    {
      "midi": 54,
      "hit": false,
      "t": 86395.99049999987,
      "d": 323.8343437500007,
      "v": 114
    },
    {
      "midi": 54,
      "hit": false,
      "t": 86395.99049999987,
      "d": 323.8343437500007,
      "v": 117
    },
    {
      "midi": 72,
      "hit": false,
      "t": 86644.51453124991,
      "d": 5700.990656249996,
      "v": 96
    },
    {
      "midi": 76,
      "hit": false,
      "t": 86644.51453124991,
      "d": 5723.583749999991,
      "v": 96
    },
    {
      "midi": 67,
      "hit": false,
      "t": 86652.0455624999,
      "d": 5700.990656249996,
      "v": 96
    },
    {
      "midi": 48,
      "hit": false,
      "t": 86757.47999999982,
      "d": 444.33084374999453,
      "v": 121
    },
    {
      "midi": 50,
      "hit": false,
      "t": 86757.47999999986,
      "d": 429.2687812499935,
      "v": 114
    },
    {
      "midi": 50,
      "hit": false,
      "t": 86757.47999999986,
      "d": 429.2687812499935,
      "v": 117
    },
    {
      "midi": 36,
      "hit": false,
      "t": 86757.47999999994,
      "d": 888.6616875000036,
      "v": 106
    },
    {
      "midi": 86,
      "hit": false,
      "t": 86757.47999999998,
      "d": 52.71721874999639,
      "v": 112
    },
    {
      "midi": 36,
      "hit": false,
      "t": 86757.48000000001,
      "d": 1355.5856249999924,
      "v": 122
    },
    {
      "midi": 67,
      "hit": false,
      "t": 86757.48000000001,
      "d": 5603.087249999997,
      "v": 97
    },
    {
      "midi": 60,
      "hit": false,
      "t": 86757.48000000001,
      "d": 5685.928593749995,
      "v": 97
    },
    {
      "midi": 74,
      "hit": false,
      "t": 86757.48000000001,
      "d": 5693.459624999989,
      "v": 97
    },
    {
      "midi": 55,
      "hit": false,
      "t": 87118.96949999982,
      "d": 225.93093750000116,
      "v": 101
    },
    {
      "midi": 55,
      "hit": false,
      "t": 87118.9695,
      "d": 497.0480624999909,
      "v": 122
    },
    {
      "midi": 60,
      "hit": false,
      "t": 87299.71424999982,
      "d": 105.43443750000733,
      "v": 121
    },
    {
      "midi": 52,
      "hit": false,
      "t": 87299.71424999986,
      "d": 2161.4059687499976,
      "v": 114
    },
    {
      "midi": 52,
      "hit": false,
      "t": 87299.71424999986,
      "d": 2161.4059687499976,
      "v": 117
    },
    {
      "midi": 55,
      "hit": false,
      "t": 87480.45899999983,
      "d": 105.43443749999278,
      "v": 125
    },
    {
      "midi": 60,
      "hit": false,
      "t": 87480.45899999983,
      "d": 105.43443749999278,
      "v": 126
    },
    {
      "midi": 64,
      "hit": false,
      "t": 87480.45899999983,
      "d": 105.43443749999278,
      "v": 125
    },
    {
      "midi": 98,
      "hit": false,
      "t": 87480.45899999999,
      "d": 481.9860000000044,
      "v": 118
    },
    {
      "midi": 64,
      "hit": false,
      "t": 87480.459,
      "d": 1107.0615937500115,
      "v": 120
    },
    {
      "midi": 60,
      "hit": false,
      "t": 87480.459,
      "d": 1114.5926250000048,
      "v": 120
    },
    {
      "midi": 48,
      "hit": false,
      "t": 87841.94849999982,
      "d": 128.02753125000163,
      "v": 119
    },
    {
      "midi": 36,
      "hit": false,
      "t": 87841.94849999994,
      "d": 180.74474999999802,
      "v": 91
    },
    {
      "midi": 55,
      "hit": false,
      "t": 87841.9485,
      "d": 436.79981250001583,
      "v": 122
    },
    {
      "midi": 55,
      "hit": false,
      "t": 88203.43799999982,
      "d": 128.02753125000163,
      "v": 74
    },
    {
      "midi": 36,
      "hit": false,
      "t": 88203.43799999994,
      "d": 1039.2823124999995,
      "v": 91
    },
    {
      "midi": 62,
      "hit": false,
      "t": 88203.43799999998,
      "d": 353.9584687500028,
      "v": 110
    },
    {
      "midi": 86,
      "hit": false,
      "t": 88203.43799999998,
      "d": 45.18618750000314,
      "v": 112
    },
    {
      "midi": 36,
      "hit": false,
      "t": 88203.43800000001,
      "d": 1242.6201562499919,
      "v": 114
    },
    {
      "midi": 62,
      "hit": false,
      "t": 88203.43800000001,
      "d": 361.48949999999604,
      "v": 97
    },
    {
      "midi": 86,
      "hit": false,
      "t": 88203.43800000002,
      "d": 1385.7097499999945,
      "v": 97
    },
    {
      "midi": 48,
      "hit": false,
      "t": 88384.18274999982,
      "d": 120.49649999999383,
      "v": 107
    },
    {
      "midi": 55,
      "hit": false,
      "t": 88564.92749999982,
      "d": 150.62062499999593,
      "v": 102
    },
    {
      "midi": 64,
      "hit": false,
      "t": 88564.92749999998,
      "d": 2884.384968750004,
      "v": 110
    },
    {
      "midi": 64,
      "hit": false,
      "t": 88564.9275,
      "d": 3878.4810937500006,
      "v": 97
    },
    {
      "midi": 55,
      "hit": false,
      "t": 88564.92750000002,
      "d": 414.2067187499779,
      "v": 122
    },
    {
      "midi": 60,
      "hit": false,
      "t": 88745.67224999981,
      "d": 135.55856249999488,
      "v": 118
    },
    {
      "midi": 55,
      "hit": false,
      "t": 88926.41699999981,
      "d": 180.74474999999802,
      "v": 114
    },
    {
      "midi": 98,
      "hit": false,
      "t": 88926.41699999999,
      "d": 481.9860000000044,
      "v": 118
    },
    {
      "midi": 64,
      "hit": false,
      "t": 88926.417,
      "d": 1039.282312500014,
      "v": 122
    },
    {
      "midi": 60,
      "hit": false,
      "t": 88926.417,
      "d": 1054.3443750000151,
      "v": 122
    },
    {
      "midi": 48,
      "hit": false,
      "t": 89107.16174999981,
      "d": 158.15165625000373,
      "v": 115
    },
    {
      "midi": 55,
      "hit": false,
      "t": 89287.90649999981,
      "d": 173.21371875000477,
      "v": 102
    },
    {
      "midi": 31,
      "hit": false,
      "t": 89287.90649999994,
      "d": 316.3033124999929,
      "v": 106
    },
    {
      "midi": 55,
      "hit": false,
      "t": 89287.9065,
      "d": 421.7377500000148,
      "v": 122
    },
    {
      "midi": 59,
      "hit": false,
      "t": 89468.6512499998,
      "d": 90.37237500000629,
      "v": 127
    },
    {
      "midi": 60,
      "hit": false,
      "t": 89649.39599999982,
      "d": 421.7377499999857,
      "v": 115
    },
    {
      "midi": 48,
      "hit": false,
      "t": 89649.39599999982,
      "d": 466.9239374999888,
      "v": 125
    },
    {
      "midi": 64,
      "hit": false,
      "t": 89649.39599999982,
      "d": 489.5170312499831,
      "v": 99
    },
    {
      "midi": 55,
      "hit": false,
      "t": 89649.39599999982,
      "d": 572.3583749999816,
      "v": 102
    },
    {
      "midi": 36,
      "hit": false,
      "t": 89649.39599999994,
      "d": 828.4134374999994,
      "v": 85
    },
    {
      "midi": 86,
      "hit": false,
      "t": 89649.39599999998,
      "d": 52.71721874999639,
      "v": 112
    },
    {
      "midi": 36,
      "hit": false,
      "t": 89649.39600000001,
      "d": 1235.0891249999986,
      "v": 122
    },
    {
      "midi": 86,
      "hit": false,
      "t": 89649.39600000002,
      "d": 2756.3574375000026,
      "v": 97
    },
    {
      "midi": 55,
      "hit": false,
      "t": 90010.88550000002,
      "d": 414.20671874999243,
      "v": 122
    },
    {
      "midi": 88,
      "hit": false,
      "t": 90010.88550000002,
      "d": 2884.384968750004,
      "v": 99
    },
    {
      "midi": 48,
      "hit": false,
      "t": 90191.6302499998,
      "d": 105.43443750000733,
      "v": 97
    },
    {
      "midi": 60,
      "hit": false,
      "t": 90372.37499999981,
      "d": 67.77928124999744,
      "v": 113
    },
    {
      "midi": 55,
      "hit": false,
      "t": 90372.37499999981,
      "d": 75.31031249999069,
      "v": 109
    },
    {
      "midi": 64,
      "hit": false,
      "t": 90372.37499999981,
      "d": 90.37237499999173,
      "v": 109
    },
    {
      "midi": 57,
      "hit": false,
      "t": 90372.37499999985,
      "d": 308.77228124999965,
      "v": 114
    },
    {
      "midi": 57,
      "hit": false,
      "t": 90372.37499999985,
      "d": 308.77228124999965,
      "v": 117
    },
    {
      "midi": 98,
      "hit": false,
      "t": 90372.37499999999,
      "d": 481.9860000000044,
      "v": 118
    },
    {
      "midi": 60,
      "hit": false,
      "t": 90372.37500000001,
      "d": 1024.2202499999985,
      "v": 122
    },
    {
      "midi": 64,
      "hit": false,
      "t": 90372.37500000001,
      "d": 1099.5305625000037,
      "v": 122
    },
    {
      "midi": 60,
      "hit": false,
      "t": 90733.8644999998,
      "d": 75.31031250000524,
      "v": 121
    },
    {
      "midi": 55,
      "hit": false,
      "t": 90733.8644999998,
      "d": 90.37237500000629,
      "v": 118
    },
    {
      "midi": 64,
      "hit": false,
      "t": 90733.8644999998,
      "d": 90.37237500000629,
      "v": 115
    },
    {
      "midi": 57,
      "hit": false,
      "t": 90733.86449999985,
      "d": 308.77228124999965,
      "v": 114
    },
    {
      "midi": 57,
      "hit": false,
      "t": 90733.86449999985,
      "d": 308.77228124999965,
      "v": 117
    },
    {
      "midi": 36,
      "hit": false,
      "t": 90733.86449999994,
      "d": 165.68268749999697,
      "v": 74
    },
    {
      "midi": 55,
      "hit": false,
      "t": 90733.86450000001,
      "d": 421.73775000000023,
      "v": 122
    },
    {
      "midi": 48,
      "hit": false,
      "t": 91095.35399999982,
      "d": 82.84134374999849,
      "v": 101
    },
    {
      "midi": 57,
      "hit": false,
      "t": 91095.35399999985,
      "d": 361.48949999999604,
      "v": 114
    },
    {
      "midi": 57,
      "hit": false,
      "t": 91095.35399999985,
      "d": 361.48949999999604,
      "v": 117
    },
    {
      "midi": 36,
      "hit": false,
      "t": 91095.35399999993,
      "d": 361.48949999999604,
      "v": 105
    },
    {
      "midi": 86,
      "hit": false,
      "t": 91095.35399999998,
      "d": 52.71721874999639,
      "v": 112
    },
    {
      "midi": 36,
      "hit": false,
      "t": 91095.354,
      "d": 1189.90293750001,
      "v": 120
    },
    {
      "midi": 55,
      "hit": false,
      "t": 91276.09874999982,
      "d": 105.43443749999278,
      "v": 99
    },
    {
      "midi": 60,
      "hit": false,
      "t": 91456.84349999981,
      "d": 128.02753125000163,
      "v": 99
    },
    {
      "midi": 57,
      "hit": false,
      "t": 91456.84349999984,
      "d": 489.5170312499977,
      "v": 114
    },
    {
      "midi": 57,
      "hit": false,
      "t": 91456.84349999984,
      "d": 489.5170312499977,
      "v": 117
    },
    {
      "midi": 55,
      "hit": false,
      "t": 91456.84350000002,
      "d": 436.7998125000013,
      "v": 122
    },
    {
      "midi": 36,
      "hit": false,
      "t": 91637.58824999993,
      "d": 120.49649999999383,
      "v": 105
    },
    {
      "midi": 48,
      "hit": false,
      "t": 91818.33299999981,
      "d": 90.37237500000629,
      "v": 123
    },
    {
      "midi": 55,
      "hit": false,
      "t": 91818.33299999981,
      "d": 90.37237500000629,
      "v": 115
    },
    {
      "midi": 60,
      "hit": false,
      "t": 91818.33299999981,
      "d": 105.43443750000733,
      "v": 123
    },
    {
      "midi": 64,
      "hit": false,
      "t": 91818.33299999981,
      "d": 105.43443750000733,
      "v": 117
    },
    {
      "midi": 31,
      "hit": false,
      "t": 91818.33299999993,
      "d": 240.9930000000022,
      "v": 105
    },
    {
      "midi": 98,
      "hit": false,
      "t": 91818.33299999998,
      "d": 481.9860000000044,
      "v": 118
    },
    {
      "midi": 64,
      "hit": false,
      "t": 91818.33300000001,
      "d": 497.04806250000547,
      "v": 122
    },
    {
      "midi": 60,
      "hit": false,
      "t": 91818.33300000001,
      "d": 519.6411562499998,
      "v": 122
    },
    {
      "midi": 55,
      "hit": false,
      "t": 91961.42259374984,
      "d": 218.39990624999336,
      "v": 114
    },
    {
      "midi": 55,
      "hit": false,
      "t": 91961.42259374984,
      "d": 218.39990624999336,
      "v": 117
    },
    {
      "midi": 54,
      "hit": false,
      "t": 92179.82249999983,
      "d": 323.8343437500007,
      "v": 114
    },
    {
      "midi": 54,
      "hit": false,
      "t": 92179.82249999983,
      "d": 323.8343437500007,
      "v": 117
    },
    {
      "midi": 36,
      "hit": false,
      "t": 92179.82249999992,
      "d": 240.9930000000022,
      "v": 105
    },
    {
      "midi": 55,
      "hit": false,
      "t": 92179.82250000002,
      "d": 353.95846874998824,
      "v": 122
    },
    {
      "midi": 67,
      "hit": false,
      "t": 92360.56725000001,
      "d": 1619.1717187500035,
      "v": 97
    },
    {
      "midi": 55,
      "hit": false,
      "t": 92541.31199999982,
      "d": 248.52403124999546,
      "v": 102
    },
    {
      "midi": 43,
      "hit": false,
      "t": 92541.31199999982,
      "d": 361.48949999999604,
      "v": 99
    },
    {
      "midi": 59,
      "hit": false,
      "t": 92541.31199999982,
      "d": 466.9239374999888,
      "v": 109
    },
    {
      "midi": 62,
      "hit": false,
      "t": 92541.31199999982,
      "d": 481.9859999999899,
      "v": 99
    },
    {
      "midi": 55,
      "hit": false,
      "t": 92541.31199999983,
      "d": 256.05506250000326,
      "v": 114
    },
    {
      "midi": 55,
      "hit": false,
      "t": 92541.31199999983,
      "d": 256.05506250000326,
      "v": 117
    },
    {
      "midi": 35,
      "hit": false,
      "t": 92541.31199999992,
      "d": 835.9444687500072,
      "v": 79
    },
    {
      "midi": 86,
      "hit": false,
      "t": 92541.31199999998,
      "d": 45.18618750000314,
      "v": 112
    },
    {
      "midi": 47,
      "hit": false,
      "t": 92541.312,
      "d": 1220.027062499983,
      "v": 122
    },
    {
      "midi": 71,
      "hit": false,
      "t": 92541.312,
      "d": 1438.4269687500055,
      "v": 113
    },
    {
      "midi": 62,
      "hit": false,
      "t": 92541.312,
      "d": 5776.300968749987,
      "v": 122
    },
    {
      "midi": 71,
      "hit": false,
      "t": 92556.3740624999,
      "d": 2613.26784375,
      "v": 96
    },
    {
      "midi": 67,
      "hit": false,
      "t": 92556.3740624999,
      "d": 2726.2333125000005,
      "v": 96
    },
    {
      "midi": 74,
      "hit": false,
      "t": 92556.3740624999,
      "d": 2726.2333125000005,
      "v": 96
    },
    {
      "midi": 54,
      "hit": false,
      "t": 92797.36706249983,
      "d": 286.17918750000536,
      "v": 114
    },
    {
      "midi": 54,
      "hit": false,
      "t": 92797.36706249983,
      "d": 286.17918750000536,
      "v": 117
    },
    {
      "midi": 55,
      "hit": false,
      "t": 92902.80149999981,
      "d": 150.62062499999593,
      "v": 98
    },
    {
      "midi": 55,
      "hit": false,
      "t": 92902.8015,
      "d": 346.427437499995,
      "v": 122
    },
    {
      "midi": 43,
      "hit": false,
      "t": 93083.54624999981,
      "d": 112.96546875000058,
      "v": 123
    },
    {
      "midi": 50,
      "hit": false,
      "t": 93083.54624999984,
      "d": 2161.4059687499976,
      "v": 114
    },
    {
      "midi": 50,
      "hit": false,
      "t": 93083.54624999984,
      "d": 2161.4059687499976,
      "v": 117
    },
    {
      "midi": 55,
      "hit": false,
      "t": 93264.29099999981,
      "d": 112.96546875000058,
      "v": 121
    },
    {
      "midi": 98,
      "hit": false,
      "t": 93264.29099999998,
      "d": 481.9860000000044,
      "v": 118
    },
    {
      "midi": 62,
      "hit": false,
      "t": 93264.291,
      "d": 851.0065312499937,
      "v": 122
    },
    {
      "midi": 59,
      "hit": false,
      "t": 93264.291,
      "d": 926.316843749999,
      "v": 120
    },
    {
      "midi": 59,
      "hit": false,
      "t": 93625.7804999998,
      "d": 150.62062499999593,
      "v": 127
    },
    {
      "midi": 35,
      "hit": false,
      "t": 93625.78049999992,
      "d": 210.86887500000012,
      "v": 74
    },
    {
      "midi": 55,
      "hit": false,
      "t": 93625.7805,
      "d": 406.6756874999992,
      "v": 122
    },
    {
      "midi": 62,
      "hit": false,
      "t": 93987.2699999998,
      "d": 421.73775000000023,
      "v": 127
    },
    {
      "midi": 35,
      "hit": false,
      "t": 93987.26999999992,
      "d": 1287.806343749995,
      "v": 79
    },
    {
      "midi": 86,
      "hit": false,
      "t": 93987.26999999997,
      "d": 60.24825000000419,
      "v": 112
    },
    {
      "midi": 47,
      "hit": false,
      "t": 93987.26999999999,
      "d": 1280.2753125000017,
      "v": 109
    },
    {
      "midi": 59,
      "hit": false,
      "t": 93987.26999999999,
      "d": 353.9584687500028,
      "v": 127
    },
    {
      "midi": 71,
      "hit": false,
      "t": 93987.27,
      "d": 353.9584687500028,
      "v": 122
    },
    {
      "midi": 86,
      "hit": false,
      "t": 93987.27000000002,
      "d": 1506.2062500000175,
      "v": 97
    },
    {
      "midi": 43,
      "hit": false,
      "t": 94348.7594999998,
      "d": 135.55856250000943,
      "v": 125
    },
    {
      "midi": 60,
      "hit": false,
      "t": 94348.75949999999,
      "d": 353.9584687500028,
      "v": 95
    },
    {
      "midi": 55,
      "hit": false,
      "t": 94348.7595,
      "d": 301.2412500000064,
      "v": 122
    },
    {
      "midi": 72,
      "hit": false,
      "t": 94348.7595,
      "d": 353.9584687500028,
      "v": 122
    },
    {
      "midi": 59,
      "hit": false,
      "t": 94710.2489999998,
      "d": 112.96546875000058,
      "v": 127
    },
    {
      "midi": 59,
      "hit": false,
      "t": 94710.24899999998,
      "d": 353.9584687500028,
      "v": 95
    },
    {
      "midi": 98,
      "hit": false,
      "t": 94710.24899999998,
      "d": 481.9860000000044,
      "v": 118
    },
    {
      "midi": 71,
      "hit": false,
      "t": 94710.249,
      "d": 353.9584687500028,
      "v": 122
    },
    {
      "midi": 59,
      "hit": false,
      "t": 94710.24900000001,
      "d": 399.1446562499914,
      "v": 122
    },
    {
      "midi": 62,
      "hit": false,
      "t": 94710.24900000001,
      "d": 451.8618749999878,
      "v": 122
    },
    {
      "midi": 98,
      "hit": false,
      "t": 94710.24900000003,
      "d": 2884.384968750004,
      "v": 110
    },
    {
      "midi": 53,
      "hit": false,
      "t": 95071.7384999998,
      "d": 52.71721874999639,
      "v": 90
    },
    {
      "midi": 55,
      "hit": false,
      "t": 95071.73849999998,
      "d": 3245.8744687500002,
      "v": 95
    },
    {
      "midi": 67,
      "hit": false,
      "t": 95071.73849999999,
      "d": 3245.8744687500002,
      "v": 122
    },
    {
      "midi": 55,
      "hit": false,
      "t": 95071.7385,
      "d": 361.4894999999815,
      "v": 122
    },
    {
      "midi": 53,
      "hit": false,
      "t": 95433.2279999998,
      "d": 218.39990624999336,
      "v": 99
    },
    {
      "midi": 58,
      "hit": false,
      "t": 95433.2279999998,
      "d": 353.95846874998824,
      "v": 95
    },
    {
      "midi": 46,
      "hit": false,
      "t": 95433.2279999998,
      "d": 421.7377499999857,
      "v": 117
    },
    {
      "midi": 62,
      "hit": false,
      "t": 95433.2279999998,
      "d": 451.8618749999878,
      "v": 102
    },
    {
      "midi": 34,
      "hit": false,
      "t": 95433.22799999992,
      "d": 835.9444687500072,
      "v": 94
    },
    {
      "midi": 86,
      "hit": false,
      "t": 95433.22799999997,
      "d": 60.24825000000419,
      "v": 112
    },
    {
      "midi": 46,
      "hit": false,
      "t": 95433.22799999999,
      "d": 1280.2753124999872,
      "v": 122
    },
    {
      "midi": 70,
      "hit": false,
      "t": 95433.22799999999,
      "d": 2884.384968750004,
      "v": 122
    },
    {
      "midi": 91,
      "hit": false,
      "t": 95433.22800000003,
      "d": 2884.384968750004,
      "v": 110
    },
    {
      "midi": 74,
      "hit": false,
      "t": 95455.82109374991,
      "d": 2741.295374999987,
      "v": 96
    },
    {
      "midi": 67,
      "hit": false,
      "t": 95463.3521249999,
      "d": 2620.798874999993,
      "v": 96
    },
    {
      "midi": 70,
      "hit": false,
      "t": 95470.8831562499,
      "d": 2681.0471249999973,
      "v": 96
    },
    {
      "midi": 53,
      "hit": false,
      "t": 95794.71749999978,
      "d": 218.39990625000792,
      "v": 106
    },
    {
      "midi": 55,
      "hit": false,
      "t": 95794.71749999998,
      "d": 399.1446562499914,
      "v": 122
    },
    {
      "midi": 58,
      "hit": false,
      "t": 95975.4622499998,
      "d": 150.62062499999593,
      "v": 127
    },
    {
      "midi": 46,
      "hit": false,
      "t": 96156.20699999979,
      "d": 165.68268749999697,
      "v": 127
    },
    {
      "midi": 58,
      "hit": false,
      "t": 96156.20699999998,
      "d": 444.33084374999453,
      "v": 122
    },
    {
      "midi": 62,
      "hit": false,
      "t": 96156.20699999998,
      "d": 587.4204374999972,
      "v": 120
    },
    {
      "midi": 62,
      "hit": false,
      "t": 96517.69649999979,
      "d": 203.33784374999232,
      "v": 107
    },
    {
      "midi": 50,
      "hit": false,
      "t": 96517.69649999983,
      "d": 180.74474999999802,
      "v": 114
    },
    {
      "midi": 50,
      "hit": false,
      "t": 96517.69649999983,
      "d": 180.74474999999802,
      "v": 117
    },
    {
      "midi": 34,
      "hit": false,
      "t": 96517.69649999992,
      "d": 195.80681249999907,
      "v": 74
    },
    {
      "midi": 55,
      "hit": false,
      "t": 96517.69649999998,
      "d": 391.61362499999814,
      "v": 122
    },
    {
      "midi": 58,
      "hit": false,
      "t": 96698.44124999979,
      "d": 150.62062499999593,
      "v": 127
    },
    {
      "midi": 50,
      "hit": false,
      "t": 96705.97228124982,
      "d": 256.05506250000326,
      "v": 114
    },
    {
      "midi": 50,
      "hit": false,
      "t": 96705.97228124982,
      "d": 256.05506250000326,
      "v": 117
    },
    {
      "midi": 53,
      "hit": false,
      "t": 96879.18599999978,
      "d": 180.74474999999802,
      "v": 114
    },
    {
      "midi": 34,
      "hit": false,
      "t": 96879.18599999991,
      "d": 1174.8408749999944,
      "v": 69
    },
    {
      "midi": 46,
      "hit": false,
      "t": 96879.18599999997,
      "d": 1340.5235624999914,
      "v": 122
    },
    {
      "midi": 86,
      "hit": false,
      "t": 96879.18599999997,
      "d": 67.77928124999744,
      "v": 112
    },
    {
      "midi": 57,
      "hit": false,
      "t": 96962.02734374983,
      "d": 391.61362499999814,
      "v": 114
    },
    {
      "midi": 57,
      "hit": false,
      "t": 96962.02734374983,
      "d": 391.61362499999814,
      "v": 117
    },
    {
      "midi": 46,
      "hit": false,
      "t": 97059.93074999978,
      "d": 203.33784374999232,
      "v": 125
    },
    {
      "midi": 53,
      "hit": false,
      "t": 97240.67549999978,
      "d": 135.55856249999488,
      "v": 107
    },
    {
      "midi": 55,
      "hit": false,
      "t": 97240.67549999997,
      "d": 406.6756874999992,
      "v": 122
    },
    {
      "midi": 55,
      "hit": false,
      "t": 97383.76509374983,
      "d": 369.02053125000384,
      "v": 114
    },
    {
      "midi": 55,
      "hit": false,
      "t": 97383.76509374983,
      "d": 369.02053125000384,
      "v": 117
    },
    {
      "midi": 58,
      "hit": false,
      "t": 97421.42024999978,
      "d": 112.96546875000058,
      "v": 127
    },
    {
      "midi": 62,
      "hit": false,
      "t": 97602.16499999978,
      "d": 195.80681249999907,
      "v": 119
    },
    {
      "midi": 58,
      "hit": false,
      "t": 97602.16499999996,
      "d": 444.33084374999453,
      "v": 122
    },
    {
      "midi": 62,
      "hit": false,
      "t": 97602.16499999996,
      "d": 542.2342499999941,
      "v": 114
    },
    {
      "midi": 54,
      "hit": false,
      "t": 97820.56490624983,
      "d": 489.5170312499977,
      "v": 114
    },
    {
      "midi": 54,
      "hit": false,
      "t": 97820.56490624983,
      "d": 489.5170312499977,
      "v": 117
    },
    {
      "midi": 55,
      "hit": false,
      "t": 97963.65449999996,
      "d": 225.93093750000116,
      "v": 122
    },
    {
      "midi": 62,
      "hit": false,
      "t": 98325.14399999977,
      "d": 391.61362499999814,
      "v": 114
    },
    {
      "midi": 66,
      "hit": false,
      "t": 98325.14399999977,
      "d": 542.2342499999941,
      "v": 125
    },
    {
      "midi": 50,
      "hit": false,
      "t": 98325.14399999977,
      "d": 677.7928124999744,
      "v": 117
    },
    {
      "midi": 55,
      "hit": false,
      "t": 98325.14399999983,
      "d": 263.5860937499965,
      "v": 114
    },
    {
      "midi": 55,
      "hit": false,
      "t": 98325.14399999983,
      "d": 263.5860937499965,
      "v": 117
    },
    {
      "midi": 33,
      "hit": false,
      "t": 98325.14399999991,
      "d": 873.5996250000026,
      "v": 116
    },
    {
      "midi": 50,
      "hit": false,
      "t": 98325.14399999996,
      "d": 1295.3373750000028,
      "v": 122
    },
    {
      "midi": 86,
      "hit": false,
      "t": 98325.14399999997,
      "d": 60.24825000000419,
      "v": 112
    },
    {
      "midi": 66,
      "hit": false,
      "t": 98325.14399999999,
      "d": 2839.198781250001,
      "v": 97
    },
    {
      "midi": 62,
      "hit": false,
      "t": 98325.14399999999,
      "d": 5738.645812499992,
      "v": 97
    },
    {
      "midi": 69,
      "hit": false,
      "t": 98325.14399999999,
      "d": 5753.707874999978,
      "v": 97
    },
    {
      "midi": 74,
      "hit": false,
      "t": 98377.8612187499,
      "d": 1965.5991562499985,
      "v": 96
    },
    {
      "midi": 69,
      "hit": false,
      "t": 98377.8612187499,
      "d": 1973.1301874999917,
      "v": 96
    },
    {
      "midi": 78,
      "hit": false,
      "t": 98385.39224999989,
      "d": 1973.1301874999917,
      "v": 96
    },
    {
      "midi": 54,
      "hit": false,
      "t": 98588.73009374982,
      "d": 451.8618750000023,
      "v": 114
    },
    {
      "midi": 54,
      "hit": false,
      "t": 98588.73009374982,
      "d": 451.8618750000023,
      "v": 117
    },
    {
      "midi": 57,
      "hit": false,
      "t": 98686.63349999976,
      "d": 188.27578124999127,
      "v": 110
    },
    {
      "midi": 57,
      "hit": false,
      "t": 98686.63349999995,
      "d": 436.7998125000013,
      "v": 104
    },
    {
      "midi": 62,
      "hit": false,
      "t": 98867.37824999976,
      "d": 128.02753124998708,
      "v": 121
    },
    {
      "midi": 66,
      "hit": false,
      "t": 99048.12299999974,
      "d": 225.93093750000116,
      "v": 127
    },
    {
      "midi": 50,
      "hit": false,
      "t": 99048.12299999982,
      "d": 2161.4059687499976,
      "v": 114
    },
    {
      "midi": 50,
      "hit": false,
      "t": 99048.12299999982,
      "d": 2161.4059687499976,
      "v": 117
    },
    {
      "midi": 62,
      "hit": false,
      "t": 99048.12299999995,
      "d": 933.8478750000068,
      "v": 120
    },
    {
      "midi": 66,
      "hit": false,
      "t": 99048.12299999995,
      "d": 1054.3443750000006,
      "v": 122
    },
    {
      "midi": 62,
      "hit": false,
      "t": 99409.61249999974,
      "d": 158.15165625000373,
      "v": 127
    },
    {
      "midi": 33,
      "hit": false,
      "t": 99409.61249999992,
      "d": 195.80681249999907,
      "v": 116
    },
    {
      "midi": 57,
      "hit": false,
      "t": 99409.61249999996,
      "d": 399.1446562499914,
      "v": 122
    },
    {
      "midi": 67,
      "hit": false,
      "t": 99771.10199999975,
      "d": 173.21371875000477,
      "v": 127
    },
    {
      "midi": 33,
      "hit": false,
      "t": 99771.10199999991,
      "d": 1355.585625000007,
      "v": 118
    },
    {
      "midi": 50,
      "hit": false,
      "t": 99771.10199999996,
      "d": 1370.647687500008,
      "v": 122
    },
    {
      "midi": 86,
      "hit": false,
      "t": 99771.10199999997,
      "d": 37.65515624999534,
      "v": 112
    },
    {
      "midi": 79,
      "hit": false,
      "t": 99771.10199999998,
      "d": 406.6756874999992,
      "v": 97
    },
    {
      "midi": 79,
      "hit": false,
      "t": 99771.102,
      "d": 406.6756874999992,
      "v": 97
    },
    {
      "midi": 66,
      "hit": false,
      "t": 100132.59149999976,
      "d": 195.80681249999907,
      "v": 127
    },
    {
      "midi": 57,
      "hit": false,
      "t": 100132.59149999995,
      "d": 451.8618750000023,
      "v": 122
    },
    {
      "midi": 78,
      "hit": false,
      "t": 100132.59149999998,
      "d": 391.61362499999814,
      "v": 97
    },
    {
      "midi": 78,
      "hit": false,
      "t": 100132.5915,
      "d": 391.61362499999814,
      "v": 97
    },
    {
      "midi": 62,
      "hit": false,
      "t": 100494.08099999976,
      "d": 135.55856249999488,
      "v": 127
    },
    {
      "midi": 66,
      "hit": false,
      "t": 100494.08099999995,
      "d": 406.67568750001374,
      "v": 122
    },
    {
      "midi": 62,
      "hit": false,
      "t": 100494.08099999995,
      "d": 444.3308437500091,
      "v": 122
    },
    {
      "midi": 74,
      "hit": false,
      "t": 100494.08099999998,
      "d": 640.1376562500081,
      "v": 97
    },
    {
      "midi": 74,
      "hit": false,
      "t": 100494.08099999999,
      "d": 640.1376562499936,
      "v": 97
    },
    {
      "midi": 57,
      "hit": false,
      "t": 100855.57049999975,
      "d": 90.37237500000629,
      "v": 127
    },
    {
      "midi": 57,
      "hit": false,
      "t": 100855.57049999996,
      "d": 286.17918750000536,
      "v": 122
    },
    {
      "midi": 69,
      "hit": false,
      "t": 100855.57049999999,
      "d": 3245.8744687500002,
      "v": 118
    },
    {
      "midi": 74,
      "hit": false,
      "t": 101194.46690624987,
      "d": 1235.0891249999986,
      "v": 96
    },
    {
      "midi": 76,
      "hit": false,
      "t": 101194.46690624987,
      "d": 1242.6201562499919,
      "v": 96
    },
    {
      "midi": 57,
      "hit": false,
      "t": 101217.05999999976,
      "d": 384.0825937500049,
      "v": 107
    },
    {
      "midi": 61,
      "hit": false,
      "t": 101217.05999999976,
      "d": 429.26878125000803,
      "v": 95
    },
    {
      "midi": 45,
      "hit": false,
      "t": 101217.05999999976,
      "d": 1024.2202499999985,
      "v": 109
    },
    {
      "midi": 69,
      "hit": false,
      "t": 101217.05999999987,
      "d": 1227.5580937499908,
      "v": 64
    },
    {
      "midi": 33,
      "hit": false,
      "t": 101217.05999999992,
      "d": 828.4134374999994,
      "v": 106
    },
    {
      "midi": 45,
      "hit": false,
      "t": 101217.05999999997,
      "d": 1671.8889374999999,
      "v": 122
    },
    {
      "midi": 86,
      "hit": false,
      "t": 101217.05999999997,
      "d": 45.18618750000314,
      "v": 112
    },
    {
      "midi": 64,
      "hit": false,
      "t": 101217.05999999998,
      "d": 2854.2608437499875,
      "v": 97
    },
    {
      "midi": 52,
      "hit": false,
      "t": 101578.54949999978,
      "d": 527.172187499993,
      "v": 111
    },
    {
      "midi": 57,
      "hit": false,
      "t": 101578.54949999996,
      "d": 301.2412500000064,
      "v": 92
    },
    {
      "midi": 59,
      "hit": false,
      "t": 101759.29424999977,
      "d": 60.24825000000419,
      "v": 95
    },
    {
      "midi": 59,
      "hit": false,
      "t": 101940.03899999977,
      "d": 150.62062499999593,
      "v": 127
    },
    {
      "midi": 62,
      "hit": false,
      "t": 101940.03899999977,
      "d": 165.68268749999697,
      "v": 127
    },
    {
      "midi": 57,
      "hit": false,
      "t": 101940.03899999998,
      "d": 180.74474999999802,
      "v": 100
    },
    {
      "midi": 62,
      "hit": false,
      "t": 101940.03899999998,
      "d": 451.8618750000023,
      "v": 120
    },
    {
      "midi": 64,
      "hit": false,
      "t": 101940.03899999998,
      "d": 489.5170312499977,
      "v": 109
    },
    {
      "midi": 50,
      "hit": false,
      "t": 102301.52849999981,
      "d": 346.427437499995,
      "v": 114
    },
    {
      "midi": 50,
      "hit": false,
      "t": 102301.52849999981,
      "d": 346.427437499995,
      "v": 117
    },
    {
      "midi": 33,
      "hit": false,
      "t": 102301.52849999993,
      "d": 150.62062499999593,
      "v": 94
    },
    {
      "midi": 57,
      "hit": false,
      "t": 102301.52849999997,
      "d": 256.05506250000326,
      "v": 122
    },
    {
      "midi": 73,
      "hit": false,
      "t": 102655.48696874986,
      "d": 933.8478749999922,
      "v": 96
    },
    {
      "midi": 57,
      "hit": false,
      "t": 102663.01799999976,
      "d": 384.08259374999034,
      "v": 123
    },
    {
      "midi": 61,
      "hit": false,
      "t": 102663.01799999976,
      "d": 512.110124999992,
      "v": 127
    },
    {
      "midi": 45,
      "hit": false,
      "t": 102663.01799999976,
      "d": 1325.4614999999903,
      "v": 119
    },
    {
      "midi": 53,
      "hit": false,
      "t": 102663.0179999998,
      "d": 173.21371875000477,
      "v": 105
    },
    {
      "midi": 53,
      "hit": false,
      "t": 102663.0179999998,
      "d": 173.21371875000477,
      "v": 117
    },
    {
      "midi": 76,
      "hit": false,
      "t": 102663.01799999985,
      "d": 933.8478749999922,
      "v": 96
    },
    {
      "midi": 33,
      "hit": false,
      "t": 102663.01799999992,
      "d": 1408.3028437500034,
      "v": 91
    },
    {
      "midi": 57,
      "hit": false,
      "t": 102663.01799999997,
      "d": 640.1376562499936,
      "v": 122
    },
    {
      "midi": 86,
      "hit": false,
      "t": 102663.01799999997,
      "d": 45.18618750000314,
      "v": 112
    },
    {
      "midi": 69,
      "hit": false,
      "t": 102678.08006249985,
      "d": 896.1927187499969,
      "v": 96
    },
    {
      "midi": 52,
      "hit": false,
      "t": 102843.7627499998,
      "d": 143.08959375000268,
      "v": 105
    },
    {
      "midi": 52,
      "hit": false,
      "t": 102843.7627499998,
      "d": 143.08959375000268,
      "v": 117
    },
    {
      "midi": 52,
      "hit": false,
      "t": 103024.50749999976,
      "d": 429.2687812499935,
      "v": 127
    },
    {
      "midi": 50,
      "hit": false,
      "t": 103024.5074999998,
      "d": 346.427437499995,
      "v": 114
    },
    {
      "midi": 50,
      "hit": false,
      "t": 103024.5074999998,
      "d": 346.427437499995,
      "v": 117
    },
    {
      "midi": 45,
      "hit": false,
      "t": 103024.50749999996,
      "d": 994.0961249999673,
      "v": 120
    },
    {
      "midi": 57,
      "hit": false,
      "t": 103205.25224999976,
      "d": 135.55856249999488,
      "v": 127
    },
    {
      "midi": 61,
      "hit": false,
      "t": 103385.99699999976,
      "d": 150.62062499999593,
      "v": 127
    },
    {
      "midi": 50,
      "hit": false,
      "t": 103385.9969999998,
      "d": 240.9930000000022,
      "v": 114
    },
    {
      "midi": 50,
      "hit": false,
      "t": 103385.9969999998,
      "d": 240.9930000000022,
      "v": 117
    },
    {
      "midi": 62,
      "hit": false,
      "t": 103385.99699999996,
      "d": 594.9514687499905,
      "v": 120
    },
    {
      "midi": 64,
      "hit": false,
      "t": 103385.99699999996,
      "d": 602.4824999999837,
      "v": 120
    },
    {
      "midi": 57,
      "hit": false,
      "t": 103566.74174999975,
      "d": 150.62062499999593,
      "v": 127
    },
    {
      "midi": 52,
      "hit": false,
      "t": 103747.48649999975,
      "d": 210.86887500000012,
      "v": 127
    },
    {
      "midi": 62,
      "hit": false,
      "t": 103747.4864999998,
      "d": 4789.7358749999985,
      "v": 114
    },
    {
      "midi": 62,
      "hit": false,
      "t": 103747.4864999998,
      "d": 4789.7358749999985,
      "v": 117
    },
    {
      "midi": 57,
      "hit": false,
      "t": 103747.48649999996,
      "d": 263.58609374998196,
      "v": 120
    },
    {
      "midi": 46,
      "hit": false,
      "t": 104108.97599999975,
      "d": 1702.013062500002,
      "v": 125
    },
    {
      "midi": 53,
      "hit": false,
      "t": 104108.97599999975,
      "d": 1784.8544062500005,
      "v": 119
    },
    {
      "midi": 58,
      "hit": false,
      "t": 104108.97599999975,
      "d": 1784.8544062500005,
      "v": 114
    },
    {
      "midi": 62,
      "hit": false,
      "t": 104108.97599999975,
      "d": 1807.4474999999948,
      "v": 119
    },
    {
      "midi": 34,
      "hit": false,
      "t": 104108.97599999992,
      "d": 2831.6677499999932,
      "v": 127
    },
    {
      "midi": 53,
      "hit": false,
      "t": 104108.97599999994,
      "d": 2741.2953750000015,
      "v": 120
    },
    {
      "midi": 58,
      "hit": false,
      "t": 104108.97599999994,
      "d": 2763.888468749996,
      "v": 122
    },
    {
      "midi": 62,
      "hit": false,
      "t": 104108.97599999994,
      "d": 2786.48156249999,
      "v": 120
    },
    {
      "midi": 62,
      "hit": false,
      "t": 104108.97599999997,
      "d": 2937.1021875000006,
      "v": 97
    },
    {
      "midi": 46,
      "hit": false,
      "t": 104108.97599999998,
      "d": 2854.260843750002,
      "v": 97
    },
    {
      "midi": 58,
      "hit": false,
      "t": 104108.97599999998,
      "d": 2869.322906250003,
      "v": 97
    },
    {
      "midi": 65,
      "hit": false,
      "t": 104108.976,
      "d": 2884.384968750004,
      "v": 102
    },
    {
      "midi": 46,
      "hit": false,
      "t": 104108.976,
      "d": 2884.384968750004,
      "v": 117
    },
    {
      "midi": 53,
      "hit": false,
      "t": 104108.976,
      "d": 2884.384968750004,
      "v": 117
    },
    {
      "midi": 86,
      "hit": false,
      "t": 104108.97600000004,
      "d": 11454.69853124999,
      "v": 97
    },
    {
      "midi": 74,
      "hit": false,
      "t": 104131.56909374984,
      "d": 2183.999062499992,
      "v": 96
    },
    {
      "midi": 77,
      "hit": false,
      "t": 104146.63115624984,
      "d": 2153.8749375000043,
      "v": 96
    },
    {
      "midi": 70,
      "hit": false,
      "t": 104146.63115624984,
      "d": 2161.4059687499976,
      "v": 96
    },
    {
      "midi": 86,
      "hit": false,
      "t": 104289.72074999996,
      "d": 82.84134374999849,
      "v": 112
    },
    {
      "midi": 86,
      "hit": false,
      "t": 104831.95499999996,
      "d": 82.84134374999849,
      "v": 112
    },
    {
      "midi": 86,
      "hit": false,
      "t": 105374.18924999995,
      "d": 82.84134374999849,
      "v": 112
    },
    {
      "midi": 86,
      "hit": false,
      "t": 105916.42349999995,
      "d": 67.77928124999744,
      "v": 112
    },
    {
      "midi": 86,
      "hit": false,
      "t": 106458.65774999994,
      "d": 60.24825000000419,
      "v": 112
    },
    {
      "midi": 55,
      "hit": false,
      "t": 106820.14724999975,
      "d": 2010.7853437500016,
      "v": 113
    },
    {
      "midi": 52,
      "hit": false,
      "t": 106820.14724999975,
      "d": 2063.502562499998,
      "v": 119
    },
    {
      "midi": 48,
      "hit": false,
      "t": 106820.14724999975,
      "d": 2108.688750000001,
      "v": 115
    },
    {
      "midi": 76,
      "hit": false,
      "t": 106918.05065624983,
      "d": 2545.4885624999733,
      "v": 96
    },
    {
      "midi": 79,
      "hit": false,
      "t": 106925.58168749983,
      "d": 2530.426499999987,
      "v": 96
    },
    {
      "midi": 72,
      "hit": false,
      "t": 106933.11271874982,
      "d": 2500.3023749999993,
      "v": 96
    },
    {
      "midi": 64,
      "hit": false,
      "t": 107000.89199999975,
      "d": 1965.5991562499985,
      "v": 127
    },
    {
      "midi": 60,
      "hit": false,
      "t": 107000.89199999975,
      "d": 1980.6612187499995,
      "v": 127
    },
    {
      "midi": 55,
      "hit": false,
      "t": 107000.89199999992,
      "d": 2613.26784375,
      "v": 122
    },
    {
      "midi": 60,
      "hit": false,
      "t": 107000.89199999992,
      "d": 2665.9850624999963,
      "v": 122
    },
    {
      "midi": 64,
      "hit": false,
      "t": 107000.89199999992,
      "d": 2681.0471249999973,
      "v": 120
    },
    {
      "midi": 36,
      "hit": false,
      "t": 107000.89199999992,
      "d": 2778.950531249997,
      "v": 117
    },
    {
      "midi": 64,
      "hit": false,
      "t": 107000.89199999996,
      "d": 2899.4470312499907,
      "v": 97
    },
    {
      "midi": 60,
      "hit": false,
      "t": 107000.89199999996,
      "d": 2944.633218749994,
      "v": 97
    },
    {
      "midi": 48,
      "hit": false,
      "t": 107000.89199999998,
      "d": 2937.1021875000006,
      "v": 97
    },
    {
      "midi": 64,
      "hit": false,
      "t": 107000.89199999999,
      "d": 2884.384968750004,
      "v": 102
    },
    {
      "midi": 67,
      "hit": false,
      "t": 107000.89199999999,
      "d": 2884.384968750004,
      "v": 100
    },
    {
      "midi": 43,
      "hit": false,
      "t": 107000.89199999999,
      "d": 2884.384968750004,
      "v": 117
    },
    {
      "midi": 48,
      "hit": false,
      "t": 107000.89199999999,
      "d": 2884.384968750004,
      "v": 117
    },
    {
      "midi": 52,
      "hit": false,
      "t": 107000.89199999999,
      "d": 2884.384968750004,
      "v": 117
    },
    {
      "midi": 88,
      "hit": false,
      "t": 107000.89200000004,
      "d": 2869.322906250003,
      "v": 97
    },
    {
      "midi": 86,
      "hit": false,
      "t": 107362.38149999994,
      "d": 67.77928124999744,
      "v": 112
    },
    {
      "midi": 86,
      "hit": false,
      "t": 107904.61574999994,
      "d": 75.31031250000524,
      "v": 112
    },
    {
      "midi": 86,
      "hit": false,
      "t": 108446.84999999995,
      "d": 82.84134374999849,
      "v": 112
    },
    {
      "midi": 86,
      "hit": false,
      "t": 108808.33949999994,
      "d": 97.90340624999953,
      "v": 112
    },
    {
      "midi": 88,
      "hit": false,
      "t": 109169.82899999994,
      "d": 105.43443749999278,
      "v": 112
    },
    {
      "midi": 89,
      "hit": false,
      "t": 109350.57374999994,
      "d": 90.37237500000629,
      "v": 112
    },
    {
      "midi": 88,
      "hit": false,
      "t": 109531.31849999995,
      "d": 82.84134374999849,
      "v": 112
    },
    {
      "midi": 84,
      "hit": false,
      "t": 109712.06324999995,
      "d": 97.90340624999953,
      "v": 112
    },
    {
      "midi": 77,
      "hit": false,
      "t": 109757.2494374998,
      "d": 2906.978062499984,
      "v": 96
    },
    {
      "midi": 74,
      "hit": false,
      "t": 109757.2494374998,
      "d": 2937.102187499986,
      "v": 96
    },
    {
      "midi": 70,
      "hit": false,
      "t": 109764.7804687498,
      "d": 2861.7918749999953,
      "v": 96
    },
    {
      "midi": 58,
      "hit": false,
      "t": 109892.80799999974,
      "d": 1852.633687499998,
      "v": 127
    },
    {
      "midi": 62,
      "hit": false,
      "t": 109892.80799999974,
      "d": 1852.633687499998,
      "v": 127
    },
    {
      "midi": 46,
      "hit": false,
      "t": 109892.80799999974,
      "d": 1875.2267812499922,
      "v": 127
    },
    {
      "midi": 65,
      "hit": false,
      "t": 109892.80799999974,
      "d": 1897.8198749999865,
      "v": 127
    },
    {
      "midi": 62,
      "hit": false,
      "t": 109892.80799999992,
      "d": 2718.7022812499927,
      "v": 122
    },
    {
      "midi": 58,
      "hit": false,
      "t": 109892.80799999992,
      "d": 2733.7643437499937,
      "v": 122
    },
    {
      "midi": 65,
      "hit": false,
      "t": 109892.80799999992,
      "d": 2733.7643437499937,
      "v": 120
    },
    {
      "midi": 34,
      "hit": false,
      "t": 109892.80799999992,
      "d": 2801.5436250000057,
      "v": 117
    },
    {
      "midi": 65,
      "hit": false,
      "t": 109892.80799999996,
      "d": 2899.4470312499907,
      "v": 97
    },
    {
      "midi": 62,
      "hit": false,
      "t": 109892.80799999996,
      "d": 2974.757343749996,
      "v": 97
    },
    {
      "midi": 50,
      "hit": false,
      "t": 109892.80799999998,
      "d": 2952.1642500000016,
      "v": 97
    },
    {
      "midi": 62,
      "hit": false,
      "t": 109892.80799999999,
      "d": 2884.384968750004,
      "v": 82
    },
    {
      "midi": 69,
      "hit": false,
      "t": 109892.80799999999,
      "d": 2884.384968750004,
      "v": 93
    },
    {
      "midi": 46,
      "hit": false,
      "t": 109892.80799999999,
      "d": 2884.384968750004,
      "v": 97
    },
    {
      "midi": 50,
      "hit": false,
      "t": 109892.80799999999,
      "d": 2884.384968750004,
      "v": 97
    },
    {
      "midi": 57,
      "hit": false,
      "t": 109892.80799999999,
      "d": 2884.384968750004,
      "v": 97
    },
    {
      "midi": 89,
      "hit": false,
      "t": 109892.80800000003,
      "d": 2869.322906250003,
      "v": 97
    },
    {
      "midi": 86,
      "hit": false,
      "t": 110073.55274999994,
      "d": 60.24825000000419,
      "v": 112
    },
    {
      "midi": 86,
      "hit": false,
      "t": 110615.78699999995,
      "d": 82.84134374999849,
      "v": 112
    },
    {
      "midi": 86,
      "hit": false,
      "t": 111158.02124999995,
      "d": 75.31031250000524,
      "v": 112
    },
    {
      "midi": 86,
      "hit": false,
      "t": 111700.25549999996,
      "d": 75.31031250000524,
      "v": 112
    },
    {
      "midi": 86,
      "hit": false,
      "t": 112242.48974999996,
      "d": 75.31031250000524,
      "v": 112
    },
    {
      "midi": 58,
      "hit": false,
      "t": 112784.72399999973,
      "d": 323.8343437500007,
      "v": 96
    },
    {
      "midi": 48,
      "hit": false,
      "t": 112784.72399999973,
      "d": 338.89640625000175,
      "v": 92
    },
    {
      "midi": 55,
      "hit": false,
      "t": 112784.72399999973,
      "d": 338.89640625000175,
      "v": 93
    },
    {
      "midi": 70,
      "hit": false,
      "t": 112784.72399999973,
      "d": 346.427437499995,
      "v": 97
    },
    {
      "midi": 62,
      "hit": false,
      "t": 112784.72399999973,
      "d": 353.95846874998824,
      "v": 102
    },
    {
      "midi": 58,
      "hit": false,
      "t": 112784.72399999991,
      "d": 2681.0471249999973,
      "v": 121
    },
    {
      "midi": 62,
      "hit": false,
      "t": 112784.72399999991,
      "d": 2681.0471249999973,
      "v": 121
    },
    {
      "midi": 53,
      "hit": false,
      "t": 112784.72399999991,
      "d": 2696.1091874999984,
      "v": 113
    },
    {
      "midi": 67,
      "hit": false,
      "t": 112784.72399999991,
      "d": 2696.1091874999984,
      "v": 116
    },
    {
      "midi": 48,
      "hit": false,
      "t": 112784.72399999991,
      "d": 2711.1712499999994,
      "v": 122
    },
    {
      "midi": 36,
      "hit": false,
      "t": 112784.72399999993,
      "d": 2861.7918749999953,
      "v": 106
    },
    {
      "midi": 60,
      "hit": false,
      "t": 112784.72399999996,
      "d": 2816.605687499992,
      "v": 82
    },
    {
      "midi": 67,
      "hit": false,
      "t": 112784.72399999996,
      "d": 2831.6677499999932,
      "v": 82
    },
    {
      "midi": 48,
      "hit": false,
      "t": 112784.72399999997,
      "d": 2816.6056875000068,
      "v": 82
    },
    {
      "midi": 84,
      "hit": false,
      "t": 112784.72399999997,
      "d": 82.84134374999849,
      "v": 112
    },
    {
      "midi": 65,
      "hit": false,
      "t": 112784.72399999999,
      "d": 2884.384968750004,
      "v": 86
    },
    {
      "midi": 48,
      "hit": false,
      "t": 112784.72399999999,
      "d": 2884.384968750004,
      "v": 102
    },
    {
      "midi": 55,
      "hit": false,
      "t": 112784.72399999999,
      "d": 2884.384968750004,
      "v": 102
    },
    {
      "midi": 60,
      "hit": false,
      "t": 112784.72399999999,
      "d": 2884.384968750004,
      "v": 102
    },
    {
      "midi": 91,
      "hit": false,
      "t": 112784.72400000003,
      "d": 2824.13671875,
      "v": 81
    },
    {
      "midi": 74,
      "hit": false,
      "t": 112882.6274062498,
      "d": 173.21371874999022,
      "v": 96
    },
    {
      "midi": 77,
      "hit": false,
      "t": 112905.22049999979,
      "d": 158.15165624998917,
      "v": 96
    },
    {
      "midi": 69,
      "hit": false,
      "t": 112912.75153124979,
      "d": 112.96546875000058,
      "v": 96
    },
    {
      "midi": 67,
      "hit": false,
      "t": 112912.75153124979,
      "d": 128.02753125000163,
      "v": 96
    },
    {
      "midi": 67,
      "hit": false,
      "t": 113349.55134374979,
      "d": 2108.688750000001,
      "v": 96
    },
    {
      "midi": 77,
      "hit": false,
      "t": 113349.55134374979,
      "d": 2221.6542187500017,
      "v": 96
    },
    {
      "midi": 72,
      "hit": false,
      "t": 113424.86165624979,
      "d": 2146.3439062499965,
      "v": 96
    },
    {
      "midi": 34,
      "hit": false,
      "t": 115676.63999999993,
      "d": 828.4134374999994,
      "v": 127
    },
    {
      "midi": 65,
      "hit": false,
      "t": 115676.63999999996,
      "d": 2786.4815625000047,
      "v": 97
    },
    {
      "midi": 69,
      "hit": false,
      "t": 115676.63999999996,
      "d": 2989.819406249997,
      "v": 97
    },
    {
      "midi": 74,
      "hit": false,
      "t": 115684.17103124979,
      "d": 2259.3093749999825,
      "v": 96
    },
    {
      "midi": 70,
      "hit": false,
      "t": 115691.70206249978,
      "d": 2266.840406249976,
      "v": 96
    },
    {
      "midi": 77,
      "hit": false,
      "t": 115699.23309374978,
      "d": 2251.7783437499893,
      "v": 96
    },
    {
      "midi": 34,
      "hit": false,
      "t": 116761.10849999993,
      "d": 135.55856249999488,
      "v": 85
    },
    {
      "midi": 34,
      "hit": false,
      "t": 117122.59799999993,
      "d": 1348.0545937499992,
      "v": 91
    },
    {
      "midi": 81,
      "hit": false,
      "t": 117122.59799999997,
      "d": 986.5650937500031,
      "v": 112
    },
    {
      "midi": 69,
      "hit": false,
      "t": 117122.598,
      "d": 1076.9374687499949,
      "v": 113
    },
    {
      "midi": 57,
      "hit": false,
      "t": 117122.598,
      "d": 1076.9374687499949,
      "v": 110
    },
    {
      "midi": 79,
      "hit": false,
      "t": 118207.06649999997,
      "d": 271.1171250000043,
      "v": 112
    },
    {
      "midi": 67,
      "hit": false,
      "t": 118207.06649999999,
      "d": 1076.9374687499949,
      "v": 113
    },
    {
      "midi": 55,
      "hit": false,
      "t": 118207.06649999999,
      "d": 1076.9374687499949,
      "v": 110
    },
    {
      "midi": 33,
      "hit": false,
      "t": 118568.55599999992,
      "d": 851.0065312499937,
      "v": 94
    },
    {
      "midi": 64,
      "hit": false,
      "t": 118568.55599999995,
      "d": 2816.6056875000068,
      "v": 97
    },
    {
      "midi": 67,
      "hit": false,
      "t": 118568.55599999995,
      "d": 5738.645812500006,
      "v": 97
    },
    {
      "midi": 79,
      "hit": false,
      "t": 118568.55599999998,
      "d": 632.6066250000003,
      "v": 112
    },
    {
      "midi": 76,
      "hit": false,
      "t": 118598.68012499975,
      "d": 2394.867937499992,
      "v": 96
    },
    {
      "midi": 72,
      "hit": false,
      "t": 118598.68012499975,
      "d": 2417.4610312499863,
      "v": 96
    },
    {
      "midi": 69,
      "hit": false,
      "t": 118606.21115624974,
      "d": 2424.992062499994,
      "v": 96
    },
    {
      "midi": 77,
      "hit": false,
      "t": 119291.53499999996,
      "d": 715.4479687499988,
      "v": 97
    },
    {
      "midi": 65,
      "hit": false,
      "t": 119291.53499999997,
      "d": 2161.4059687499976,
      "v": 113
    },
    {
      "midi": 53,
      "hit": false,
      "t": 119291.53499999997,
      "d": 2161.4059687499976,
      "v": 110
    },
    {
      "midi": 33,
      "hit": false,
      "t": 119653.02449999991,
      "d": 143.08959375000268,
      "v": 79
    },
    {
      "midi": 33,
      "hit": false,
      "t": 120014.51399999991,
      "d": 1250.1511874999997,
      "v": 79
    },
    {
      "midi": 79,
      "hit": false,
      "t": 120014.51399999995,
      "d": 753.1031250000087,
      "v": 97
    },
    {
      "midi": 77,
      "hit": false,
      "t": 120737.49299999996,
      "d": 722.9790000000066,
      "v": 97
    },
    {
      "midi": 36,
      "hit": false,
      "t": 121460.4719999999,
      "d": 828.4134374999994,
      "v": 85
    },
    {
      "midi": 62,
      "hit": false,
      "t": 121460.47199999997,
      "d": 2831.6677499999932,
      "v": 97
    },
    {
      "midi": 62,
      "hit": false,
      "t": 121460.47199999997,
      "d": 2884.384968750004,
      "v": 105
    },
    {
      "midi": 65,
      "hit": false,
      "t": 121460.47199999997,
      "d": 2884.384968750004,
      "v": 105
    },
    {
      "midi": 53,
      "hit": false,
      "t": 121460.47199999997,
      "d": 2884.384968750004,
      "v": 110
    },
    {
      "midi": 58,
      "hit": false,
      "t": 121460.47199999997,
      "d": 2884.384968750004,
      "v": 110
    },
    {
      "midi": 84,
      "hit": false,
      "t": 121460.47200000004,
      "d": 2748.8264062499948,
      "v": 97
    },
    {
      "midi": 67,
      "hit": false,
      "t": 121490.59612499973,
      "d": 2545.488562499988,
      "v": 96
    },
    {
      "midi": 70,
      "hit": false,
      "t": 121490.59612499973,
      "d": 2568.081656249982,
      "v": 96
    },
    {
      "midi": 74,
      "hit": false,
      "t": 121498.12715624973,
      "d": 2605.736812499992,
      "v": 96
    },
    {
      "midi": 36,
      "hit": false,
      "t": 122544.94049999991,
      "d": 165.68268749999697,
      "v": 74
    },
    {
      "midi": 36,
      "hit": false,
      "t": 122906.4299999999,
      "d": 361.48949999999604,
      "v": 105
    },
    {
      "midi": 36,
      "hit": false,
      "t": 123448.6642499999,
      "d": 120.49649999999383,
      "v": 105
    },
    {
      "midi": 31,
      "hit": false,
      "t": 123629.4089999999,
      "d": 240.9930000000022,
      "v": 105
    },
    {
      "midi": 36,
      "hit": false,
      "t": 123990.8984999999,
      "d": 240.9930000000022,
      "v": 105
    },
    {
      "midi": 74,
      "hit": false,
      "t": 124344.85696874972,
      "d": 1152.2477812500001,
      "v": 96
    },
    {
      "midi": 69,
      "hit": false,
      "t": 124344.85696874972,
      "d": 1159.7788124999934,
      "v": 96
    },
    {
      "midi": 77,
      "hit": false,
      "t": 124352.38799999972,
      "d": 1189.9029374999955,
      "v": 96
    },
    {
      "midi": 38,
      "hit": false,
      "t": 124352.38799999989,
      "d": 851.0065312499937,
      "v": 74
    },
    {
      "midi": 77,
      "hit": false,
      "t": 124352.38799999996,
      "d": 1355.585625000007,
      "v": 97
    },
    {
      "midi": 69,
      "hit": false,
      "t": 124352.38799999996,
      "d": 1476.0821250000154,
      "v": 97
    },
    {
      "midi": 65,
      "hit": false,
      "t": 125075.36699999997,
      "d": 715.4479687499988,
      "v": 104
    },
    {
      "midi": 53,
      "hit": false,
      "t": 125075.36699999997,
      "d": 715.4479687499988,
      "v": 110
    },
    {
      "midi": 38,
      "hit": false,
      "t": 125436.85649999988,
      "d": 256.05506250000326,
      "v": 74
    },
    {
      "midi": 72,
      "hit": false,
      "t": 125768.22187499971,
      "d": 1235.0891249999986,
      "v": 96
    },
    {
      "midi": 76,
      "hit": false,
      "t": 125768.22187499971,
      "d": 1235.0891249999986,
      "v": 96
    },
    {
      "midi": 69,
      "hit": false,
      "t": 125775.7529062497,
      "d": 1235.0891249999986,
      "v": 96
    },
    {
      "midi": 33,
      "hit": false,
      "t": 125798.34599999987,
      "d": 1212.4960312500043,
      "v": 91
    },
    {
      "midi": 64,
      "hit": false,
      "t": 125798.34599999996,
      "d": 715.4479687499988,
      "v": 105
    },
    {
      "midi": 52,
      "hit": false,
      "t": 125798.34599999996,
      "d": 715.4479687499988,
      "v": 110
    },
    {
      "midi": 76,
      "hit": false,
      "t": 125798.34599999998,
      "d": 1438.4269687500055,
      "v": 97
    },
    {
      "midi": 84,
      "hit": false,
      "t": 125798.34600000003,
      "d": 1476.0821250000008,
      "v": 97
    },
    {
      "midi": 60,
      "hit": false,
      "t": 126521.32499999995,
      "d": 715.4479687499988,
      "v": 112
    },
    {
      "midi": 48,
      "hit": false,
      "t": 126521.32499999995,
      "d": 715.4479687499988,
      "v": 110
    },
    {
      "midi": 31,
      "hit": false,
      "t": 127244.30399999987,
      "d": 820.8824062500062,
      "v": 117
    },
    {
      "midi": 62,
      "hit": false,
      "t": 127244.30399999995,
      "d": 2884.384968750004,
      "v": 113
    },
    {
      "midi": 43,
      "hit": false,
      "t": 127244.30399999995,
      "d": 2884.384968750004,
      "v": 110
    },
    {
      "midi": 59,
      "hit": false,
      "t": 127244.30399999995,
      "d": 2884.384968750004,
      "v": 110
    },
    {
      "midi": 74,
      "hit": false,
      "t": 127244.30399999997,
      "d": 2839.198781250001,
      "v": 97
    },
    {
      "midi": 83,
      "hit": false,
      "t": 127244.30400000003,
      "d": 2861.7918749999953,
      "v": 97
    },
    {
      "midi": 71,
      "hit": false,
      "t": 127251.8350312497,
      "d": 2379.8058750000055,
      "v": 96
    },
    {
      "midi": 67,
      "hit": false,
      "t": 127259.3660624997,
      "d": 2296.964531250007,
      "v": 96
    },
    {
      "midi": 74,
      "hit": false,
      "t": 127259.3660624997,
      "d": 2409.9300000000076,
      "v": 96
    },
    {
      "midi": 31,
      "hit": false,
      "t": 128328.77249999988,
      "d": 150.62062499999593,
      "v": 91
    },
    {
      "midi": 31,
      "hit": false,
      "t": 128690.26199999987,
      "d": 1280.2753125000017,
      "v": 91
    },
    {
      "midi": 69,
      "hit": false,
      "t": 129925.35112499971,
      "d": 5618.149312499983,
      "v": 96
    },
    {
      "midi": 74,
      "hit": false,
      "t": 129932.8821562497,
      "d": 5580.494156249988,
      "v": 96
    },
    {
      "midi": 78,
      "hit": false,
      "t": 129940.4131874997,
      "d": 5655.804468750008,
      "v": 96
    },
    {
      "midi": 38,
      "hit": false,
      "t": 130136.21999999987,
      "d": 896.1927187499969,
      "v": 91
    },
    {
      "midi": 62,
      "hit": false,
      "t": 130136.21999999994,
      "d": 2884.384968750004,
      "v": 113
    },
    {
      "midi": 66,
      "hit": false,
      "t": 130136.21999999994,
      "d": 2884.384968750004,
      "v": 113
    },
    {
      "midi": 50,
      "hit": false,
      "t": 130136.21999999994,
      "d": 2884.384968750004,
      "v": 110
    },
    {
      "midi": 57,
      "hit": false,
      "t": 130136.21999999994,
      "d": 2884.384968750004,
      "v": 110
    },
    {
      "midi": 62,
      "hit": false,
      "t": 130136.21999999997,
      "d": 5783.831999999995,
      "v": 97
    },
    {
      "midi": 69,
      "hit": false,
      "t": 130136.21999999997,
      "d": 5783.831999999995,
      "v": 97
    },
    {
      "midi": 38,
      "hit": false,
      "t": 131220.68849999987,
      "d": 158.15165625000373,
      "v": 85
    },
    {
      "midi": 38,
      "hit": false,
      "t": 131582.17799999987,
      "d": 670.2617812500102,
      "v": 85
    },
    {
      "midi": 45,
      "hit": false,
      "t": 131943.66749999998,
      "d": 173.21371874999022,
      "v": 127
    },
    {
      "midi": 45,
      "hit": false,
      "t": 131943.66749999998,
      "d": 173.21371874999022,
      "v": 122
    },
    {
      "midi": 47,
      "hit": false,
      "t": 132124.41224999996,
      "d": 97.90340624999953,
      "v": 127
    },
    {
      "midi": 47,
      "hit": false,
      "t": 132124.41224999996,
      "d": 97.90340624999953,
      "v": 122
    },
    {
      "midi": 33,
      "hit": false,
      "t": 132305.1569999999,
      "d": 579.889406250004,
      "v": 91
    },
    {
      "midi": 50,
      "hit": false,
      "t": 132305.15699999998,
      "d": 180.74475000001257,
      "v": 127
    },
    {
      "midi": 50,
      "hit": false,
      "t": 132305.15699999998,
      "d": 180.74475000001257,
      "v": 122
    },
    {
      "midi": 47,
      "hit": false,
      "t": 132485.90175,
      "d": 82.84134375001304,
      "v": 127
    },
    {
      "midi": 47,
      "hit": false,
      "t": 132485.90175,
      "d": 82.84134375001304,
      "v": 122
    },
    {
      "midi": 45,
      "hit": false,
      "t": 132666.6465,
      "d": 256.05506250000326,
      "v": 127
    },
    {
      "midi": 45,
      "hit": false,
      "t": 132666.6465,
      "d": 256.05506250000326,
      "v": 122
    },
    {
      "midi": 26,
      "hit": false,
      "t": 133028.13599999988,
      "d": 2711.171250000014,
      "v": 127
    },
    {
      "midi": 66,
      "hit": false,
      "t": 133028.13599999997,
      "d": 2876.853937500011,
      "v": 97
    },
    {
      "midi": 38,
      "hit": false,
      "t": 133028.136,
      "d": 2696.1091874999984,
      "v": 127
    },
    {
      "midi": 57,
      "hit": false,
      "t": 133751.1149999998,
      "d": 308.7722812500142,
      "v": 114
    },
    {
      "midi": 57,
      "hit": false,
      "t": 133751.1149999998,
      "d": 308.7722812500142,
      "v": 117
    },
    {
      "midi": 57,
      "hit": false,
      "t": 134112.6044999998,
      "d": 308.7722812500142,
      "v": 114
    },
    {
      "midi": 57,
      "hit": false,
      "t": 134112.6044999998,
      "d": 308.7722812500142,
      "v": 117
    },
    {
      "midi": 57,
      "hit": false,
      "t": 134474.09399999984,
      "d": 308.7722812500142,
      "v": 114
    },
    {
      "midi": 57,
      "hit": false,
      "t": 134474.09399999984,
      "d": 308.7722812500142,
      "v": 117
    },
    {
      "midi": 57,
      "hit": false,
      "t": 134835.58349999986,
      "d": 308.7722812500142,
      "v": 114
    },
    {
      "midi": 57,
      "hit": false,
      "t": 134835.58349999986,
      "d": 308.7722812500142,
      "v": 117
    },
    {
      "midi": 55,
      "hit": false,
      "t": 135197.0729999999,
      "d": 346.42743750000955,
      "v": 114
    },
    {
      "midi": 55,
      "hit": false,
      "t": 135197.0729999999,
      "d": 346.42743750000955,
      "v": 117
    },
    {
      "midi": 54,
      "hit": false,
      "t": 135558.56249999988,
      "d": 323.8343437500007,
      "v": 114
    },
    {
      "midi": 54,
      "hit": false,
      "t": 135558.56249999988,
      "d": 323.8343437500007,
      "v": 117
    },
    {
      "midi": 72,
      "hit": false,
      "t": 135807.0865312497,
      "d": 5700.990656249982,
      "v": 96
    },
    {
      "midi": 76,
      "hit": false,
      "t": 135807.0865312497,
      "d": 5723.583749999962,
      "v": 96
    },
    {
      "midi": 67,
      "hit": false,
      "t": 135814.61756249968,
      "d": 5700.990656249982,
      "v": 96
    },
    {
      "midi": 50,
      "hit": false,
      "t": 135920.05199999988,
      "d": 429.2687812499935,
      "v": 114
    },
    {
      "midi": 50,
      "hit": false,
      "t": 135920.05199999988,
      "d": 429.2687812499935,
      "v": 117
    },
    {
      "midi": 36,
      "hit": false,
      "t": 135920.0519999999,
      "d": 888.6616874999891,
      "v": 106
    },
    {
      "midi": 67,
      "hit": false,
      "t": 135920.05199999997,
      "d": 5603.087250000011,
      "v": 97
    },
    {
      "midi": 60,
      "hit": false,
      "t": 135920.05199999997,
      "d": 5685.928593750024,
      "v": 97
    },
    {
      "midi": 74,
      "hit": false,
      "t": 135920.05199999997,
      "d": 5693.459625000018,
      "v": 97
    },
    {
      "midi": 86,
      "hit": false,
      "t": 135920.05199999997,
      "d": 52.71721875001094,
      "v": 112
    },
    {
      "midi": 52,
      "hit": false,
      "t": 136386.97593749987,
      "d": 1152.2477812499856,
      "v": 114
    },
    {
      "midi": 52,
      "hit": false,
      "t": 136386.97593749987,
      "d": 1152.2477812499856,
      "v": 117
    },
    {
      "midi": 98,
      "hit": false,
      "t": 136643.031,
      "d": 481.9860000000044,
      "v": 118
    },
    {
      "midi": 36,
      "hit": false,
      "t": 137004.5204999999,
      "d": 180.74475000001257,
      "v": 91
    },
    {
      "midi": 36,
      "hit": false,
      "t": 137366.00999999992,
      "d": 1039.2823124999995,
      "v": 91
    },
    {
      "midi": 62,
      "hit": false,
      "t": 137366.00999999998,
      "d": 361.48949999999604,
      "v": 97
    },
    {
      "midi": 86,
      "hit": false,
      "t": 137366.00999999998,
      "d": 45.18618749998859,
      "v": 112
    },
    {
      "midi": 86,
      "hit": false,
      "t": 137366.01000000004,
      "d": 1385.709750000009,
      "v": 97
    },
    {
      "midi": 64,
      "hit": false,
      "t": 137727.49949999998,
      "d": 3878.481093750015,
      "v": 97
    },
    {
      "midi": 98,
      "hit": false,
      "t": 138088.989,
      "d": 481.9860000000044,
      "v": 118
    },
    {
      "midi": 31,
      "hit": false,
      "t": 138450.4784999999,
      "d": 316.30331250000745,
      "v": 106
    },
    {
      "midi": 36,
      "hit": false,
      "t": 138811.9679999999,
      "d": 873.5996250000026,
      "v": 106
    },
    {
      "midi": 86,
      "hit": false,
      "t": 138811.96799999996,
      "d": 52.71721875001094,
      "v": 112
    },
    {
      "midi": 88,
      "hit": false,
      "t": 138811.96800000005,
      "d": 2756.3574375000026,
      "v": 97
    },
    {
      "midi": 57,
      "hit": false,
      "t": 139534.94699999984,
      "d": 308.7722812500142,
      "v": 114
    },
    {
      "midi": 57,
      "hit": false,
      "t": 139534.94699999984,
      "d": 308.7722812500142,
      "v": 117
    },
    {
      "midi": 98,
      "hit": false,
      "t": 139534.94700000001,
      "d": 481.9860000000044,
      "v": 118
    },
    {
      "midi": 57,
      "hit": false,
      "t": 139896.43649999987,
      "d": 308.7722812500142,
      "v": 114
    },
    {
      "midi": 57,
      "hit": false,
      "t": 139896.43649999987,
      "d": 308.7722812500142,
      "v": 117
    },
    {
      "midi": 36,
      "hit": false,
      "t": 139896.4364999999,
      "d": 195.80681249999907,
      "v": 91
    },
    {
      "midi": 57,
      "hit": false,
      "t": 140257.9259999999,
      "d": 361.48949999999604,
      "v": 114
    },
    {
      "midi": 57,
      "hit": false,
      "t": 140257.9259999999,
      "d": 361.48949999999604,
      "v": 117
    },
    {
      "midi": 36,
      "hit": false,
      "t": 140257.9259999999,
      "d": 1340.5235624999914,
      "v": 91
    },
    {
      "midi": 86,
      "hit": false,
      "t": 140257.92599999998,
      "d": 52.71721875001094,
      "v": 112
    },
    {
      "midi": 57,
      "hit": false,
      "t": 140619.4154999999,
      "d": 489.5170312499977,
      "v": 114
    },
    {
      "midi": 57,
      "hit": false,
      "t": 140619.4154999999,
      "d": 489.5170312499977,
      "v": 117
    },
    {
      "midi": 98,
      "hit": false,
      "t": 140980.90500000003,
      "d": 481.9860000000044,
      "v": 118
    },
    {
      "midi": 55,
      "hit": false,
      "t": 141123.99459374987,
      "d": 218.39990625000792,
      "v": 114
    },
    {
      "midi": 55,
      "hit": false,
      "t": 141123.99459374987,
      "d": 218.39990625000792,
      "v": 117
    },
    {
      "midi": 54,
      "hit": false,
      "t": 141342.39449999988,
      "d": 323.8343437500007,
      "v": 114
    },
    {
      "midi": 54,
      "hit": false,
      "t": 141342.39449999988,
      "d": 323.8343437500007,
      "v": 117
    },
    {
      "midi": 67,
      "hit": false,
      "t": 141523.13924999998,
      "d": 60.24825000000419,
      "v": 97
    },
    {
      "midi": 55,
      "hit": false,
      "t": 141703.88399999987,
      "d": 256.05506250000326,
      "v": 114
    },
    {
      "midi": 55,
      "hit": false,
      "t": 141703.88399999987,
      "d": 256.05506250000326,
      "v": 117
    },
    {
      "midi": 35,
      "hit": false,
      "t": 141703.88399999987,
      "d": 835.9444687500072,
      "v": 79
    },
    {
      "midi": 67,
      "hit": false,
      "t": 141703.884,
      "d": 5625.680343749991,
      "v": 97
    },
    {
      "midi": 86,
      "hit": false,
      "t": 141703.884,
      "d": 45.18618749998859,
      "v": 112
    },
    {
      "midi": 71,
      "hit": false,
      "t": 141718.94606249966,
      "d": 2613.2678437500144,
      "v": 96
    },
    {
      "midi": 67,
      "hit": false,
      "t": 141718.94606249966,
      "d": 2726.2333125000005,
      "v": 96
    },
    {
      "midi": 74,
      "hit": false,
      "t": 141718.94606249966,
      "d": 2726.2333125000005,
      "v": 96
    },
    {
      "midi": 54,
      "hit": false,
      "t": 141959.93906249988,
      "d": 286.17918750000536,
      "v": 114
    },
    {
      "midi": 54,
      "hit": false,
      "t": 141959.93906249988,
      "d": 286.17918750000536,
      "v": 117
    },
    {
      "midi": 50,
      "hit": false,
      "t": 142253.64928124988,
      "d": 1325.461500000005,
      "v": 114
    },
    {
      "midi": 50,
      "hit": false,
      "t": 142253.64928124988,
      "d": 1325.461500000005,
      "v": 117
    },
    {
      "midi": 35,
      "hit": false,
      "t": 142788.3524999999,
      "d": 210.86887499998556,
      "v": 74
    },
    {
      "midi": 35,
      "hit": false,
      "t": 143149.8419999999,
      "d": 1287.8063437500095,
      "v": 79
    },
    {
      "midi": 86,
      "hit": false,
      "t": 143149.84199999998,
      "d": 60.24825000000419,
      "v": 112
    },
    {
      "midi": 71,
      "hit": false,
      "t": 143149.842,
      "d": 353.9584687500028,
      "v": 125
    },
    {
      "midi": 59,
      "hit": false,
      "t": 143149.842,
      "d": 353.9584687500028,
      "v": 95
    },
    {
      "midi": 59,
      "hit": false,
      "t": 143149.842,
      "d": 353.9584687500028,
      "v": 127
    },
    {
      "midi": 83,
      "hit": false,
      "t": 143149.84200000006,
      "d": 353.9584687500028,
      "v": 118
    },
    {
      "midi": 72,
      "hit": false,
      "t": 143511.3315,
      "d": 353.9584687500028,
      "v": 125
    },
    {
      "midi": 60,
      "hit": false,
      "t": 143511.3315,
      "d": 353.9584687500028,
      "v": 95
    },
    {
      "midi": 60,
      "hit": false,
      "t": 143511.3315,
      "d": 353.9584687500028,
      "v": 127
    },
    {
      "midi": 84,
      "hit": false,
      "t": 143511.33150000006,
      "d": 353.9584687500028,
      "v": 118
    },
    {
      "midi": 71,
      "hit": false,
      "t": 143872.821,
      "d": 353.9584687500028,
      "v": 127
    },
    {
      "midi": 59,
      "hit": false,
      "t": 143872.821,
      "d": 353.9584687500028,
      "v": 95
    },
    {
      "midi": 59,
      "hit": false,
      "t": 143872.821,
      "d": 353.9584687500028,
      "v": 127
    },
    {
      "midi": 86,
      "hit": false,
      "t": 143872.82100000005,
      "d": 353.9584687500028,
      "v": 118
    },
    {
      "midi": 98,
      "hit": false,
      "t": 143872.82100000005,
      "d": 715.4479687499988,
      "v": 112
    },
    {
      "midi": 62,
      "hit": false,
      "t": 144234.3105,
      "d": 353.9584687500028,
      "v": 126
    },
    {
      "midi": 55,
      "hit": false,
      "t": 144234.3105,
      "d": 2884.384968750004,
      "v": 95
    },
    {
      "midi": 55,
      "hit": false,
      "t": 144234.3105,
      "d": 2884.384968750004,
      "v": 127
    },
    {
      "midi": 74,
      "hit": false,
      "t": 144234.31050000005,
      "d": 353.9584687500028,
      "v": 118
    },
    {
      "midi": 34,
      "hit": false,
      "t": 144595.7999999999,
      "d": 835.9444687500072,
      "v": 94
    },
    {
      "midi": 70,
      "hit": false,
      "t": 144595.8,
      "d": 2786.4815625000047,
      "v": 97
    },
    {
      "midi": 86,
      "hit": false,
      "t": 144595.8,
      "d": 60.24825000000419,
      "v": 112
    },
    {
      "midi": 79,
      "hit": false,
      "t": 144595.80000000005,
      "d": 2884.384968750004,
      "v": 118
    },
    {
      "midi": 91,
      "hit": false,
      "t": 144595.80000000005,
      "d": 2891.9159999999974,
      "v": 97
    },
    {
      "midi": 74,
      "hit": false,
      "t": 144618.39309374965,
      "d": 2741.295374999987,
      "v": 96
    },
    {
      "midi": 67,
      "hit": false,
      "t": 144625.92412499964,
      "d": 2620.7988750000077,
      "v": 96
    },
    {
      "midi": 70,
      "hit": false,
      "t": 144633.45515624963,
      "d": 2681.047125000012,
      "v": 96
    },
    {
      "midi": 50,
      "hit": false,
      "t": 145680.2684999999,
      "d": 180.74475000001257,
      "v": 114
    },
    {
      "midi": 50,
      "hit": false,
      "t": 145680.2684999999,
      "d": 180.74475000001257,
      "v": 117
    },
    {
      "midi": 34,
      "hit": false,
      "t": 145680.26849999992,
      "d": 195.80681249999907,
      "v": 74
    },
    {
      "midi": 50,
      "hit": false,
      "t": 145868.5442812499,
      "d": 256.05506250000326,
      "v": 114
    },
    {
      "midi": 50,
      "hit": false,
      "t": 145868.5442812499,
      "d": 256.05506250000326,
      "v": 117
    },
    {
      "midi": 34,
      "hit": false,
      "t": 146041.7579999999,
      "d": 1174.8408749999944,
      "v": 69
    },
    {
      "midi": 86,
      "hit": false,
      "t": 146041.758,
      "d": 67.77928124999744,
      "v": 112
    },
    {
      "midi": 57,
      "hit": false,
      "t": 146124.5993437499,
      "d": 391.61362499999814,
      "v": 114
    },
    {
      "midi": 57,
      "hit": false,
      "t": 146124.5993437499,
      "d": 391.61362499999814,
      "v": 117
    },
    {
      "midi": 55,
      "hit": false,
      "t": 146546.3370937499,
      "d": 369.0205312499893,
      "v": 114
    },
    {
      "midi": 55,
      "hit": false,
      "t": 146546.3370937499,
      "d": 369.0205312499893,
      "v": 117
    },
    {
      "midi": 54,
      "hit": false,
      "t": 146983.13690624989,
      "d": 489.5170312499977,
      "v": 114
    },
    {
      "midi": 54,
      "hit": false,
      "t": 146983.13690624989,
      "d": 489.5170312499977,
      "v": 117
    },
    {
      "midi": 55,
      "hit": false,
      "t": 147487.71599999987,
      "d": 263.5860937499965,
      "v": 114
    },
    {
      "midi": 55,
      "hit": false,
      "t": 147487.71599999987,
      "d": 263.5860937499965,
      "v": 117
    },
    {
      "midi": 33,
      "hit": false,
      "t": 147487.7159999999,
      "d": 873.5996250000026,
      "v": 123
    },
    {
      "midi": 66,
      "hit": false,
      "t": 147487.716,
      "d": 2839.1987812500156,
      "v": 97
    },
    {
      "midi": 62,
      "hit": false,
      "t": 147487.716,
      "d": 5738.645812500035,
      "v": 97
    },
    {
      "midi": 86,
      "hit": false,
      "t": 147487.716,
      "d": 60.24825000000419,
      "v": 112
    },
    {
      "midi": 74,
      "hit": false,
      "t": 147540.43321874965,
      "d": 1965.599156249984,
      "v": 96
    },
    {
      "midi": 69,
      "hit": false,
      "t": 147540.43321874965,
      "d": 1973.1301874999772,
      "v": 96
    },
    {
      "midi": 78,
      "hit": false,
      "t": 147547.96424999964,
      "d": 1973.1301874999772,
      "v": 96
    },
    {
      "midi": 54,
      "hit": false,
      "t": 147751.30209374987,
      "d": 451.8618750000023,
      "v": 114
    },
    {
      "midi": 54,
      "hit": false,
      "t": 147751.30209374987,
      "d": 451.8618750000023,
      "v": 117
    },
    {
      "midi": 50,
      "hit": false,
      "t": 148210.69499999986,
      "d": 1204.9649999999965,
      "v": 114
    },
    {
      "midi": 50,
      "hit": false,
      "t": 148210.69499999986,
      "d": 1204.9649999999965,
      "v": 117
    },
    {
      "midi": 33,
      "hit": false,
      "t": 148572.1844999999,
      "d": 195.80681249999907,
      "v": 124
    },
    {
      "midi": 33,
      "hit": false,
      "t": 148933.67399999988,
      "d": 1355.585625000007,
      "v": 124
    },
    {
      "midi": 79,
      "hit": false,
      "t": 148933.674,
      "d": 406.67568749998463,
      "v": 97
    },
    {
      "midi": 86,
      "hit": false,
      "t": 148933.674,
      "d": 37.65515624999534,
      "v": 112
    },
    {
      "midi": 91,
      "hit": false,
      "t": 148933.67400000006,
      "d": 353.9584687500028,
      "v": 118
    },
    {
      "midi": 78,
      "hit": false,
      "t": 149295.1635,
      "d": 391.61362499999814,
      "v": 97
    },
    {
      "midi": 90,
      "hit": false,
      "t": 149295.16350000005,
      "d": 353.9584687500028,
      "v": 118
    },
    {
      "midi": 74,
      "hit": false,
      "t": 149656.653,
      "d": 640.1376562500081,
      "v": 97
    },
    {
      "midi": 86,
      "hit": false,
      "t": 149656.65300000005,
      "d": 715.4479687499988,
      "v": 118
    },
    {
      "midi": 69,
      "hit": false,
      "t": 150018.1425,
      "d": 3245.8744687500293,
      "v": 118
    },
    {
      "midi": 81,
      "hit": false,
      "t": 150018.14250000005,
      "d": 3245.8744687500002,
      "v": 118
    },
    {
      "midi": 74,
      "hit": false,
      "t": 150357.03890624963,
      "d": 1235.0891249999986,
      "v": 96
    },
    {
      "midi": 76,
      "hit": false,
      "t": 150357.03890624963,
      "d": 1242.6201562499919,
      "v": 96
    },
    {
      "midi": 69,
      "hit": false,
      "t": 150364.56993749962,
      "d": 1242.6201562499919,
      "v": 96
    },
    {
      "midi": 33,
      "hit": false,
      "t": 150379.6319999999,
      "d": 828.413437500014,
      "v": 106
    },
    {
      "midi": 86,
      "hit": false,
      "t": 150379.63199999998,
      "d": 45.18618749998859,
      "v": 112
    },
    {
      "midi": 64,
      "hit": false,
      "t": 150379.632,
      "d": 2854.260843750002,
      "v": 97
    },
    {
      "midi": 50,
      "hit": false,
      "t": 151464.10049999985,
      "d": 346.42743750000955,
      "v": 114
    },
    {
      "midi": 50,
      "hit": false,
      "t": 151464.10049999985,
      "d": 346.42743750000955,
      "v": 117
    },
    {
      "midi": 33,
      "hit": false,
      "t": 151464.1004999999,
      "d": 150.62062500001048,
      "v": 94
    },
    {
      "midi": 73,
      "hit": false,
      "t": 151818.0589687496,
      "d": 933.8478749999776,
      "v": 96
    },
    {
      "midi": 76,
      "hit": false,
      "t": 151825.5899999996,
      "d": 933.8478749999776,
      "v": 96
    },
    {
      "midi": 53,
      "hit": false,
      "t": 151825.58999999985,
      "d": 173.21371874999022,
      "v": 114
    },
    {
      "midi": 53,
      "hit": false,
      "t": 151825.58999999985,
      "d": 173.21371874999022,
      "v": 117
    },
    {
      "midi": 33,
      "hit": false,
      "t": 151825.5899999999,
      "d": 1408.3028437499888,
      "v": 91
    },
    {
      "midi": 86,
      "hit": false,
      "t": 151825.58999999997,
      "d": 45.18618749998859,
      "v": 112
    },
    {
      "midi": 69,
      "hit": false,
      "t": 151840.65206249958,
      "d": 896.1927187500114,
      "v": 96
    },
    {
      "midi": 52,
      "hit": false,
      "t": 152006.33474999983,
      "d": 120.49650000000838,
      "v": 114
    },
    {
      "midi": 52,
      "hit": false,
      "t": 152006.33474999983,
      "d": 120.49650000000838,
      "v": 117
    },
    {
      "midi": 50,
      "hit": false,
      "t": 152187.07949999985,
      "d": 346.42743750000955,
      "v": 114
    },
    {
      "midi": 50,
      "hit": false,
      "t": 152187.07949999985,
      "d": 346.42743750000955,
      "v": 117
    },
    {
      "midi": 50,
      "hit": false,
      "t": 152548.56899999984,
      "d": 240.99299999998766,
      "v": 114
    },
    {
      "midi": 50,
      "hit": false,
      "t": 152548.56899999984,
      "d": 240.99299999998766,
      "v": 117
    },
    {
      "midi": 62,
      "hit": false,
      "t": 152910.05849999984,
      "d": 4789.735875000013,
      "v": 114
    },
    {
      "midi": 62,
      "hit": false,
      "t": 152910.05849999984,
      "d": 4789.735875000013,
      "v": 117
    },
    {
      "midi": 34,
      "hit": false,
      "t": 153271.5479999999,
      "d": 2831.6677499999932,
      "v": 127
    },
    {
      "midi": 98,
      "hit": false,
      "t": 153271.54800000004,
      "d": 5783.831999999995,
      "v": 97
    },
    {
      "midi": 74,
      "hit": false,
      "t": 153294.14109374955,
      "d": 2183.9990624999627,
      "v": 96
    },
    {
      "midi": 77,
      "hit": false,
      "t": 153309.20315624954,
      "d": 2153.8749374999898,
      "v": 96
    },
    {
      "midi": 70,
      "hit": false,
      "t": 153309.20315624954,
      "d": 2161.405968749983,
      "v": 96
    },
    {
      "midi": 86,
      "hit": false,
      "t": 153452.29274999996,
      "d": 82.84134375001304,
      "v": 112
    },
    {
      "midi": 86,
      "hit": false,
      "t": 153452.29275000002,
      "d": 82.84134375001304,
      "v": 112
    },
    {
      "midi": 86,
      "hit": false,
      "t": 153994.52699999997,
      "d": 82.84134375001304,
      "v": 112
    },
    {
      "midi": 86,
      "hit": false,
      "t": 153994.52700000003,
      "d": 82.84134375001304,
      "v": 112
    },
    {
      "midi": 86,
      "hit": false,
      "t": 154536.76124999998,
      "d": 82.84134375001304,
      "v": 112
    },
    {
      "midi": 86,
      "hit": false,
      "t": 154536.76125000004,
      "d": 82.84134375001304,
      "v": 112
    },
    {
      "midi": 86,
      "hit": false,
      "t": 155078.9955,
      "d": 67.77928124999744,
      "v": 112
    },
    {
      "midi": 86,
      "hit": false,
      "t": 155078.99550000005,
      "d": 67.77928124999744,
      "v": 112
    },
    {
      "midi": 86,
      "hit": false,
      "t": 155621.22975,
      "d": 60.24825000000419,
      "v": 112
    },
    {
      "midi": 86,
      "hit": false,
      "t": 155621.22975000006,
      "d": 60.24825000000419,
      "v": 112
    },
    {
      "midi": 76,
      "hit": false,
      "t": 156080.62265624953,
      "d": 2545.488562499988,
      "v": 96
    },
    {
      "midi": 79,
      "hit": false,
      "t": 156088.15368749952,
      "d": 2530.4265000000014,
      "v": 96
    },
    {
      "midi": 72,
      "hit": false,
      "t": 156095.68471874952,
      "d": 2500.3023749999993,
      "v": 96
    },
    {
      "midi": 36,
      "hit": false,
      "t": 156163.4639999999,
      "d": 2778.9505312500114,
      "v": 117
    },
    {
      "midi": 86,
      "hit": false,
      "t": 156524.9535,
      "d": 67.77928124999744,
      "v": 112
    },
    {
      "midi": 86,
      "hit": false,
      "t": 156524.95350000006,
      "d": 67.77928124999744,
      "v": 112
    },
    {
      "midi": 86,
      "hit": false,
      "t": 157067.18775,
      "d": 75.31031249999069,
      "v": 112
    },
    {
      "midi": 86,
      "hit": false,
      "t": 157067.18775000007,
      "d": 75.31031249999069,
      "v": 112
    },
    {
      "midi": 86,
      "hit": false,
      "t": 157609.422,
      "d": 82.84134375001304,
      "v": 112
    },
    {
      "midi": 86,
      "hit": false,
      "t": 157609.42200000005,
      "d": 82.84134375001304,
      "v": 112
    },
    {
      "midi": 86,
      "hit": false,
      "t": 157970.91150000002,
      "d": 67.77928124999744,
      "v": 112
    },
    {
      "midi": 86,
      "hit": false,
      "t": 157970.91150000007,
      "d": 97.90340624999953,
      "v": 112
    },
    {
      "midi": 88,
      "hit": false,
      "t": 158332.401,
      "d": 165.68268749999697,
      "v": 97
    },
    {
      "midi": 88,
      "hit": false,
      "t": 158332.40100000007,
      "d": 165.68268749999697,
      "v": 97
    },
    {
      "midi": 89,
      "hit": false,
      "t": 158513.14575,
      "d": 150.62062500001048,
      "v": 97
    },
    {
      "midi": 89,
      "hit": false,
      "t": 158513.14575000005,
      "d": 150.62062500001048,
      "v": 97
    },
    {
      "midi": 88,
      "hit": false,
      "t": 158693.8905,
      "d": 120.49650000000838,
      "v": 97
    },
    {
      "midi": 88,
      "hit": false,
      "t": 158693.89050000007,
      "d": 120.49650000000838,
      "v": 97
    },
    {
      "midi": 84,
      "hit": false,
      "t": 158874.63525000002,
      "d": 165.68268749999697,
      "v": 97
    },
    {
      "midi": 84,
      "hit": false,
      "t": 158874.63525000008,
      "d": 165.68268749999697,
      "v": 97
    },
    {
      "midi": 77,
      "hit": false,
      "t": 158919.82143749952,
      "d": 2906.978062499984,
      "v": 96
    },
    {
      "midi": 74,
      "hit": false,
      "t": 158919.82143749952,
      "d": 2937.102187499986,
      "v": 96
    },
    {
      "midi": 70,
      "hit": false,
      "t": 158927.3524687495,
      "d": 2861.7918749999953,
      "v": 96
    },
    {
      "midi": 34,
      "hit": false,
      "t": 159055.3799999999,
      "d": 2801.543624999991,
      "v": 117
    },
    {
      "midi": 46,
      "hit": false,
      "t": 159055.37999999995,
      "d": 2884.384968750004,
      "v": 97
    },
    {
      "midi": 50,
      "hit": false,
      "t": 159055.37999999995,
      "d": 2884.384968750004,
      "v": 97
    },
    {
      "midi": 53,
      "hit": false,
      "t": 159055.37999999995,
      "d": 2884.384968750004,
      "v": 97
    },
    {
      "midi": 65,
      "hit": false,
      "t": 159055.38,
      "d": 2741.295374999987,
      "v": 97
    },
    {
      "midi": 62,
      "hit": false,
      "t": 159055.38,
      "d": 2786.4815624999756,
      "v": 97
    },
    {
      "midi": 58,
      "hit": false,
      "t": 159055.38,
      "d": 2748.8264062500093,
      "v": 97
    },
    {
      "midi": 86,
      "hit": false,
      "t": 159055.38,
      "d": 82.84134375001304,
      "v": 112
    },
    {
      "midi": 98,
      "hit": false,
      "t": 159055.38000000003,
      "d": 5753.707874999993,
      "v": 97
    },
    {
      "midi": 86,
      "hit": false,
      "t": 159055.38000000006,
      "d": 82.84134375001304,
      "v": 112
    },
    {
      "midi": 86,
      "hit": false,
      "t": 159236.12475000002,
      "d": 60.24825000000419,
      "v": 112
    },
    {
      "midi": 86,
      "hit": false,
      "t": 159236.12475000008,
      "d": 60.24825000000419,
      "v": 112
    },
    {
      "midi": 86,
      "hit": false,
      "t": 159416.86950000003,
      "d": 97.90340624999953,
      "v": 112
    },
    {
      "midi": 86,
      "hit": false,
      "t": 159416.8695000001,
      "d": 97.90340624999953,
      "v": 112
    },
    {
      "midi": 86,
      "hit": false,
      "t": 159778.35900000003,
      "d": 82.84134375001304,
      "v": 112
    },
    {
      "midi": 86,
      "hit": false,
      "t": 159778.35900000008,
      "d": 82.84134375001304,
      "v": 112
    },
    {
      "midi": 86,
      "hit": false,
      "t": 160320.59325000003,
      "d": 75.31031249999069,
      "v": 112
    },
    {
      "midi": 86,
      "hit": false,
      "t": 160320.5932500001,
      "d": 75.31031249999069,
      "v": 112
    },
    {
      "midi": 86,
      "hit": false,
      "t": 160862.8275,
      "d": 75.31031249999069,
      "v": 112
    },
    {
      "midi": 86,
      "hit": false,
      "t": 160862.82750000007,
      "d": 75.31031249999069,
      "v": 112
    },
    {
      "midi": 86,
      "hit": false,
      "t": 161405.06175,
      "d": 75.31031249999069,
      "v": 112
    },
    {
      "midi": 86,
      "hit": false,
      "t": 161405.06175000005,
      "d": 75.31031249999069,
      "v": 112
    },
    {
      "midi": 36,
      "hit": false,
      "t": 161947.2959999999,
      "d": 2861.7918749999953,
      "v": 106
    },
    {
      "midi": 48,
      "hit": false,
      "t": 161947.29599999994,
      "d": 2884.384968750004,
      "v": 97
    },
    {
      "midi": 53,
      "hit": false,
      "t": 161947.29599999994,
      "d": 2884.384968750004,
      "v": 97
    },
    {
      "midi": 55,
      "hit": false,
      "t": 161947.29599999994,
      "d": 2884.384968750004,
      "v": 97
    },
    {
      "midi": 60,
      "hit": false,
      "t": 161947.29599999994,
      "d": 2884.384968750004,
      "v": 97
    },
    {
      "midi": 62,
      "hit": false,
      "t": 161947.29599999997,
      "d": 2801.543624999991,
      "v": 97
    },
    {
      "midi": 67,
      "hit": false,
      "t": 161947.29599999997,
      "d": 2809.0746562499844,
      "v": 97
    },
    {
      "midi": 84,
      "hit": false,
      "t": 161947.29599999997,
      "d": 82.84134375001304,
      "v": 127
    },
    {
      "midi": 58,
      "hit": false,
      "t": 161947.296,
      "d": 2786.4815625000047,
      "v": 97
    },
    {
      "midi": 84,
      "hit": false,
      "t": 161947.29600000003,
      "d": 82.84134375001304,
      "v": 127
    },
    {
      "midi": 74,
      "hit": false,
      "t": 162045.1994062495,
      "d": 173.21371874996112,
      "v": 96
    },
    {
      "midi": 77,
      "hit": false,
      "t": 162067.79249999952,
      "d": 158.15165624994552,
      "v": 96
    },
    {
      "midi": 69,
      "hit": false,
      "t": 162075.3235312495,
      "d": 112.96546874998603,
      "v": 96
    },
    {
      "midi": 67,
      "hit": false,
      "t": 162075.3235312495,
      "d": 128.02753124997253,
      "v": 96
    },
    {
      "midi": 67,
      "hit": false,
      "t": 162512.12334374947,
      "d": 2108.688750000001,
      "v": 96
    },
    {
      "midi": 77,
      "hit": false,
      "t": 162512.12334374947,
      "d": 2221.654218749987,
      "v": 96
    },
    {
      "midi": 72,
      "hit": false,
      "t": 162587.43365624946,
      "d": 2146.3439062499965,
      "v": 96
    },
    {
      "midi": 34,
      "hit": false,
      "t": 164839.21199999988,
      "d": 293.7102187499986,
      "v": 127
    },
    {
      "midi": 65,
      "hit": false,
      "t": 164839.21199999997,
      "d": 2688.578156250005,
      "v": 97
    },
    {
      "midi": 74,
      "hit": false,
      "t": 164839.21199999997,
      "d": 2809.0746562500135,
      "v": 97
    },
    {
      "midi": 58,
      "hit": false,
      "t": 164839.212,
      "d": 2891.9159999999974,
      "v": 97
    },
    {
      "midi": 70,
      "hit": false,
      "t": 164876.86715624944,
      "d": 2409.929999999993,
      "v": 96
    },
    {
      "midi": 74,
      "hit": false,
      "t": 164884.39818749944,
      "d": 2440.054124999995,
      "v": 96
    },
    {
      "midi": 77,
      "hit": false,
      "t": 164884.39818749944,
      "d": 2440.054124999995,
      "v": 96
    },
    {
      "midi": 34,
      "hit": false,
      "t": 165200.70149999988,
      "d": 587.4204374999972,
      "v": 94
    },
    {
      "midi": 34,
      "hit": false,
      "t": 165923.68049999987,
      "d": 994.0961250000109,
      "v": 91
    },
    {
      "midi": 62,
      "hit": false,
      "t": 166285.16999999995,
      "d": 715.4479687499988,
      "v": 109
    },
    {
      "midi": 50,
      "hit": false,
      "t": 166285.16999999995,
      "d": 715.4479687499988,
      "v": 97
    },
    {
      "midi": 86,
      "hit": false,
      "t": 166285.17,
      "d": 775.696218750003,
      "v": 97
    },
    {
      "midi": 34,
      "hit": false,
      "t": 167008.1489999999,
      "d": 677.7928125000035,
      "v": 91
    },
    {
      "midi": 67,
      "hit": false,
      "t": 167008.14899999995,
      "d": 715.4479687499988,
      "v": 109
    },
    {
      "midi": 55,
      "hit": false,
      "t": 167008.14899999995,
      "d": 715.4479687499988,
      "v": 126
    },
    {
      "midi": 91,
      "hit": false,
      "t": 167008.149,
      "d": 692.8548750000191,
      "v": 97
    },
    {
      "midi": 36,
      "hit": false,
      "t": 167731.12799999988,
      "d": 1009.1581874999974,
      "v": 94
    },
    {
      "midi": 64,
      "hit": false,
      "t": 167731.12799999994,
      "d": 2884.384968750004,
      "v": 109
    },
    {
      "midi": 67,
      "hit": false,
      "t": 167731.128,
      "d": 2771.419499999989,
      "v": 97
    },
    {
      "midi": 60,
      "hit": false,
      "t": 167731.128,
      "d": 2861.7918749999953,
      "v": 97
    },
    {
      "midi": 76,
      "hit": false,
      "t": 167731.128,
      "d": 2861.7918749999953,
      "v": 97
    },
    {
      "midi": 88,
      "hit": false,
      "t": 167731.12800000003,
      "d": 2884.384968750004,
      "v": 97
    },
    {
      "midi": 76,
      "hit": false,
      "t": 167768.78315624944,
      "d": 2424.9920624999795,
      "v": 96
    },
    {
      "midi": 79,
      "hit": false,
      "t": 167776.31418749943,
      "d": 2394.8679375000065,
      "v": 96
    },
    {
      "midi": 72,
      "hit": false,
      "t": 167783.84521874943,
      "d": 2402.3989687499998,
      "v": 96
    },
    {
      "midi": 31,
      "hit": false,
      "t": 168815.59649999987,
      "d": 316.30331250000745,
      "v": 94
    },
    {
      "midi": 52,
      "hit": false,
      "t": 168996.34124999994,
      "d": 1619.1717187500035,
      "v": 117
    },
    {
      "midi": 43,
      "hit": false,
      "t": 168996.34124999994,
      "d": 2161.405968750012,
      "v": 117
    },
    {
      "midi": 48,
      "hit": false,
      "t": 168996.34124999994,
      "d": 2161.405968750012,
      "v": 117
    },
    {
      "midi": 36,
      "hit": false,
      "t": 169177.08599999986,
      "d": 1363.1166562500002,
      "v": 91
    },
    {
      "midi": 74,
      "hit": false,
      "t": 170623.0439999994,
      "d": 2432.523093750031,
      "v": 96
    },
    {
      "midi": 34,
      "hit": false,
      "t": 170623.04399999988,
      "d": 994.0961250000109,
      "v": 117
    },
    {
      "midi": 60,
      "hit": false,
      "t": 170623.044,
      "d": 1.5062062499928288,
      "v": 97
    },
    {
      "midi": 65,
      "hit": false,
      "t": 170623.044,
      "d": 2763.888468749996,
      "v": 97
    },
    {
      "midi": 74,
      "hit": false,
      "t": 170623.044,
      "d": 2801.543624999991,
      "v": 97
    },
    {
      "midi": 58,
      "hit": false,
      "t": 170623.044,
      "d": 2854.260843750002,
      "v": 97
    },
    {
      "midi": 89,
      "hit": false,
      "t": 170623.04400000002,
      "d": 2161.405968750012,
      "v": 97
    },
    {
      "midi": 70,
      "hit": false,
      "t": 170645.63709374942,
      "d": 2357.212781250011,
      "v": 96
    },
    {
      "midi": 77,
      "hit": false,
      "t": 170645.63709374942,
      "d": 2387.3369062500133,
      "v": 96
    },
    {
      "midi": 84,
      "hit": false,
      "t": 170984.53350000005,
      "d": 173.21371874999022,
      "v": 109
    },
    {
      "midi": 84,
      "hit": false,
      "t": 171165.27824999997,
      "d": 120.49650000000838,
      "v": 100
    },
    {
      "midi": 72,
      "hit": false,
      "t": 171165.27825000003,
      "d": 120.49650000000838,
      "v": 109
    },
    {
      "midi": 84,
      "hit": false,
      "t": 171165.27825000003,
      "d": 173.21371875001932,
      "v": 109
    },
    {
      "midi": 84,
      "hit": false,
      "t": 171346.023,
      "d": 120.49650000000838,
      "v": 100
    },
    {
      "midi": 72,
      "hit": false,
      "t": 171346.02300000004,
      "d": 120.49650000000838,
      "v": 108
    },
    {
      "midi": 84,
      "hit": false,
      "t": 171346.02300000004,
      "d": 173.21371875001932,
      "v": 108
    },
    {
      "midi": 34,
      "hit": false,
      "t": 171707.5124999999,
      "d": 1370.6476874999935,
      "v": 94
    },
    {
      "midi": 58,
      "hit": false,
      "t": 172069.00199999995,
      "d": 715.4479687499988,
      "v": 109
    },
    {
      "midi": 62,
      "hit": false,
      "t": 172069.00199999995,
      "d": 715.4479687499988,
      "v": 109
    },
    {
      "midi": 50,
      "hit": false,
      "t": 172069.00199999995,
      "d": 715.4479687499988,
      "v": 116
    },
    {
      "midi": 96,
      "hit": false,
      "t": 172611.23625,
      "d": 120.49650000000838,
      "v": 96
    },
    {
      "midi": 84,
      "hit": false,
      "t": 172611.23625,
      "d": 173.21371875001932,
      "v": 96
    },
    {
      "midi": 96,
      "hit": false,
      "t": 172611.23625000007,
      "d": 120.49650000000838,
      "v": 106
    },
    {
      "midi": 84,
      "hit": false,
      "t": 172611.23625000007,
      "d": 173.21371875001932,
      "v": 106
    },
    {
      "midi": 65,
      "hit": false,
      "t": 172791.98099999994,
      "d": 715.4479687499988,
      "v": 109
    },
    {
      "midi": 69,
      "hit": false,
      "t": 172791.98099999994,
      "d": 715.4479687499988,
      "v": 109
    },
    {
      "midi": 57,
      "hit": false,
      "t": 172791.98099999994,
      "d": 715.4479687499988,
      "v": 116
    },
    {
      "midi": 84,
      "hit": false,
      "t": 172791.981,
      "d": 120.49650000000838,
      "v": 96
    },
    {
      "midi": 96,
      "hit": false,
      "t": 172791.981,
      "d": 120.49650000000838,
      "v": 96
    },
    {
      "midi": 93,
      "hit": false,
      "t": 172791.98100000003,
      "d": 677.7928125000035,
      "v": 97
    },
    {
      "midi": 84,
      "hit": false,
      "t": 172791.9810000001,
      "d": 120.49650000000838,
      "v": 105
    },
    {
      "midi": 96,
      "hit": false,
      "t": 172791.9810000001,
      "d": 120.49650000000838,
      "v": 105
    },
    {
      "midi": 34,
      "hit": false,
      "t": 173153.47049999988,
      "d": 293.7102187499986,
      "v": 85
    },
    {
      "midi": 76,
      "hit": false,
      "t": 173499.89793749945,
      "d": 2537.9575312499655,
      "v": 96
    },
    {
      "midi": 79,
      "hit": false,
      "t": 173507.42896874945,
      "d": 2507.8334062499925,
      "v": 96
    },
    {
      "midi": 72,
      "hit": false,
      "t": 173514.95999999944,
      "d": 2515.364437499986,
      "v": 96
    },
    {
      "midi": 36,
      "hit": false,
      "t": 173514.95999999988,
      "d": 994.0961250000109,
      "v": 79
    },
    {
      "midi": 64,
      "hit": false,
      "t": 173514.95999999993,
      "d": 2884.384968750004,
      "v": 109
    },
    {
      "midi": 60,
      "hit": false,
      "t": 173514.96,
      "d": 2711.171250000014,
      "v": 97
    },
    {
      "midi": 67,
      "hit": false,
      "t": 173514.96,
      "d": 2733.764343750023,
      "v": 97
    },
    {
      "midi": 76,
      "hit": false,
      "t": 173514.96,
      "d": 2801.5436250000203,
      "v": 97
    },
    {
      "midi": 88,
      "hit": false,
      "t": 173514.96000000002,
      "d": 5098.508156249998,
      "v": 97
    },
    {
      "midi": 84,
      "hit": false,
      "t": 173876.4495000001,
      "d": 173.21371874999022,
      "v": 103
    },
    {
      "midi": 84,
      "hit": false,
      "t": 174057.19425,
      "d": 120.49650000000838,
      "v": 92
    },
    {
      "midi": 72,
      "hit": false,
      "t": 174057.1942500001,
      "d": 120.49650000000838,
      "v": 103
    },
    {
      "midi": 84,
      "hit": false,
      "t": 174057.1942500001,
      "d": 173.21371875001932,
      "v": 103
    },
    {
      "midi": 84,
      "hit": false,
      "t": 174237.939,
      "d": 120.49650000000838,
      "v": 92
    },
    {
      "midi": 72,
      "hit": false,
      "t": 174237.9390000001,
      "d": 120.49650000000838,
      "v": 102
    },
    {
      "midi": 84,
      "hit": false,
      "t": 174237.9390000001,
      "d": 173.21371875001932,
      "v": 102
    },
    {
      "midi": 36,
      "hit": false,
      "t": 174599.4284999999,
      "d": 256.05506250000326,
      "v": 85
    },
    {
      "midi": 52,
      "hit": false,
      "t": 174780.17324999993,
      "d": 1619.1717187500035,
      "v": 117
    },
    {
      "midi": 43,
      "hit": false,
      "t": 174780.17324999993,
      "d": 2161.405968750012,
      "v": 117
    },
    {
      "midi": 48,
      "hit": false,
      "t": 174780.17324999993,
      "d": 2161.405968750012,
      "v": 117
    },
    {
      "midi": 36,
      "hit": false,
      "t": 174960.9179999999,
      "d": 301.24124999999185,
      "v": 85
    },
    {
      "midi": 31,
      "hit": false,
      "t": 175322.40749999988,
      "d": 361.48949999999604,
      "v": 91
    },
    {
      "midi": 96,
      "hit": false,
      "t": 175503.15225,
      "d": 120.49650000000838,
      "v": 88
    },
    {
      "midi": 84,
      "hit": false,
      "t": 175503.15225,
      "d": 173.21371875001932,
      "v": 88
    },
    {
      "midi": 96,
      "hit": false,
      "t": 175503.15225000013,
      "d": 120.49650000000838,
      "v": 100
    },
    {
      "midi": 84,
      "hit": false,
      "t": 175503.15225000013,
      "d": 173.21371875001932,
      "v": 100
    },
    {
      "midi": 36,
      "hit": false,
      "t": 175683.89699999988,
      "d": 602.4825000000128,
      "v": 91
    },
    {
      "midi": 84,
      "hit": false,
      "t": 175683.89700000003,
      "d": 120.49650000000838,
      "v": 87
    },
    {
      "midi": 96,
      "hit": false,
      "t": 175683.89700000003,
      "d": 120.49650000000838,
      "v": 87
    },
    {
      "midi": 84,
      "hit": false,
      "t": 175683.89700000014,
      "d": 120.49650000000838,
      "v": 99
    },
    {
      "midi": 96,
      "hit": false,
      "t": 175683.89700000014,
      "d": 120.49650000000838,
      "v": 99
    },
    {
      "midi": 60,
      "hit": false,
      "t": 176226.13125,
      "d": 90.37237500000629,
      "v": 97
    },
    {
      "midi": 74,
      "hit": false,
      "t": 176391.81393749942,
      "d": 2763.888468750025,
      "v": 96
    },
    {
      "midi": 77,
      "hit": false,
      "t": 176399.3449687494,
      "d": 2771.419500000018,
      "v": 96
    },
    {
      "midi": 34,
      "hit": false,
      "t": 176406.8759999999,
      "d": 963.9720000000088,
      "v": 127
    },
    {
      "midi": 58,
      "hit": false,
      "t": 176406.876,
      "d": 2861.7918749999953,
      "v": 97
    },
    {
      "midi": 65,
      "hit": false,
      "t": 176406.87600000002,
      "d": 2748.8264062500093,
      "v": 97
    },
    {
      "midi": 74,
      "hit": false,
      "t": 176406.87600000002,
      "d": 2816.6056875000068,
      "v": 97
    },
    {
      "midi": 70,
      "hit": false,
      "t": 176421.93806249942,
      "d": 2681.047125000012,
      "v": 96
    },
    {
      "midi": 72,
      "hit": false,
      "t": 176949.11025000003,
      "d": 173.21371874999022,
      "v": 84
    },
    {
      "midi": 72,
      "hit": false,
      "t": 176949.11025000014,
      "d": 173.21371874999022,
      "v": 97
    },
    {
      "midi": 72,
      "hit": false,
      "t": 177129.855,
      "d": 173.21371874999022,
      "v": 83
    },
    {
      "midi": 72,
      "hit": false,
      "t": 177129.85500000013,
      "d": 173.21371874999022,
      "v": 96
    },
    {
      "midi": 34,
      "hit": false,
      "t": 177491.34449999992,
      "d": 233.4619687499944,
      "v": 91
    },
    {
      "midi": 34,
      "hit": false,
      "t": 177852.83399999992,
      "d": 1317.9304687500116,
      "v": 94
    },
    {
      "midi": 62,
      "hit": false,
      "t": 177852.83399999994,
      "d": 715.4479687499988,
      "v": 88
    },
    {
      "midi": 50,
      "hit": false,
      "t": 177852.83399999994,
      "d": 715.4479687499988,
      "v": 101
    },
    {
      "midi": 96,
      "hit": false,
      "t": 178395.06825,
      "d": 120.49650000000838,
      "v": 80
    },
    {
      "midi": 84,
      "hit": false,
      "t": 178395.06825,
      "d": 173.21371875001932,
      "v": 80
    },
    {
      "midi": 84,
      "hit": false,
      "t": 178395.06825000013,
      "d": 173.21371874999022,
      "v": 94
    },
    {
      "midi": 67,
      "hit": false,
      "t": 178575.81299999994,
      "d": 715.4479687499988,
      "v": 87
    },
    {
      "midi": 55,
      "hit": false,
      "t": 178575.81299999994,
      "d": 715.4479687499988,
      "v": 100
    },
    {
      "midi": 89,
      "hit": false,
      "t": 178575.81300000002,
      "d": 722.9789999999921,
      "v": 97
    },
    {
      "midi": 96,
      "hit": false,
      "t": 178575.81300000002,
      "d": 120.49650000000838,
      "v": 79
    },
    {
      "midi": 84,
      "hit": false,
      "t": 178575.81300000002,
      "d": 173.21371875001932,
      "v": 79
    },
    {
      "midi": 84,
      "hit": false,
      "t": 178575.8130000001,
      "d": 173.21371874999022,
      "v": 93
    },
    {
      "midi": 36,
      "hit": false,
      "t": 179298.79199999993,
      "d": 979.0340624999953,
      "v": 100
    },
    {
      "midi": 64,
      "hit": false,
      "t": 179298.79199999993,
      "d": 2884.384968750004,
      "v": 86
    },
    {
      "midi": 88,
      "hit": false,
      "t": 179298.79200000002,
      "d": 2937.102187499986,
      "v": 100
    },
    {
      "midi": 67,
      "hit": false,
      "t": 179298.79200000002,
      "d": 2748.8264062500093,
      "v": 100
    },
    {
      "midi": 76,
      "hit": false,
      "t": 179298.79200000002,
      "d": 2801.5436250000203,
      "v": 100
    },
    {
      "midi": 60,
      "hit": false,
      "t": 179298.79200000002,
      "d": 2831.6677500000224,
      "v": 100
    },
    {
      "midi": 76,
      "hit": false,
      "t": 179313.85406249942,
      "d": 2522.895468749979,
      "v": 96
    },
    {
      "midi": 72,
      "hit": false,
      "t": 179328.9161249994,
      "d": 2507.8334062499925,
      "v": 96
    },
    {
      "midi": 79,
      "hit": false,
      "t": 179336.4471562494,
      "d": 2477.7092812499905,
      "v": 96
    },
    {
      "midi": 72,
      "hit": false,
      "t": 179841.02625000005,
      "d": 173.21371874999022,
      "v": 76
    },
    {
      "midi": 72,
      "hit": false,
      "t": 179841.0262500001,
      "d": 173.21371874999022,
      "v": 91
    },
    {
      "midi": 72,
      "hit": false,
      "t": 180021.77100000004,
      "d": 173.21371874999022,
      "v": 75
    },
    {
      "midi": 72,
      "hit": false,
      "t": 180021.7710000001,
      "d": 173.21371874999022,
      "v": 91
    },
    {
      "midi": 40,
      "hit": false,
      "t": 180564.00524999993,
      "d": 120.49650000000838,
      "v": 105
    },
    {
      "midi": 52,
      "hit": false,
      "t": 180564.00524999993,
      "d": 1619.1717187500035,
      "v": 91
    },
    {
      "midi": 40,
      "hit": false,
      "t": 180744.74999999994,
      "d": 353.9584687500028,
      "v": 105
    },
    {
      "midi": 41,
      "hit": false,
      "t": 181106.23949999994,
      "d": 240.99300000001676,
      "v": 105
    },
    {
      "midi": 43,
      "hit": false,
      "t": 181286.98424999995,
      "d": 120.49650000000838,
      "v": 105
    },
    {
      "midi": 96,
      "hit": false,
      "t": 181286.98425000004,
      "d": 120.49650000000838,
      "v": 71
    },
    {
      "midi": 84,
      "hit": false,
      "t": 181286.98425000004,
      "d": 173.21371875001932,
      "v": 71
    },
    {
      "midi": 72,
      "hit": false,
      "t": 181286.9842500001,
      "d": 173.21371874999022,
      "v": 88
    },
    {
      "midi": 84,
      "hit": false,
      "t": 181286.9842500001,
      "d": 173.21371874999022,
      "v": 88
    },
    {
      "midi": 96,
      "hit": false,
      "t": 181467.72900000005,
      "d": 120.49650000000838,
      "v": 71
    },
    {
      "midi": 84,
      "hit": false,
      "t": 181467.72900000005,
      "d": 173.21371875001932,
      "v": 71
    },
    {
      "midi": 72,
      "hit": false,
      "t": 181467.72900000008,
      "d": 173.21371874999022,
      "v": 88
    },
    {
      "midi": 84,
      "hit": false,
      "t": 181467.72900000008,
      "d": 173.21371874999022,
      "v": 88
    },
    {
      "midi": 40,
      "hit": false,
      "t": 181648.47374999995,
      "d": 240.99299999998766,
      "v": 105
    },
    {
      "midi": 36,
      "hit": false,
      "t": 182009.96324999994,
      "d": 120.49650000000838,
      "v": 105
    },
    {
      "midi": 43,
      "hit": false,
      "t": 182190.70799999993,
      "d": 534.7032187499863,
      "v": 80
    },
    {
      "midi": 48,
      "hit": false,
      "t": 182190.70799999993,
      "d": 534.7032187499863,
      "v": 81
    },
    {
      "midi": 52,
      "hit": false,
      "t": 182190.70799999993,
      "d": 534.7032187499863,
      "v": 72
    },
    {
      "midi": 34,
      "hit": false,
      "t": 182190.70799999996,
      "d": 956.4409687499865,
      "v": 84
    },
    {
      "midi": 58,
      "hit": false,
      "t": 182190.70799999998,
      "d": 2824.13671875,
      "v": 84
    },
    {
      "midi": 86,
      "hit": false,
      "t": 182190.708,
      "d": 2191.530093749985,
      "v": 84
    },
    {
      "midi": 60,
      "hit": false,
      "t": 182190.70800000004,
      "d": 1.5062062499928288,
      "v": 84
    },
    {
      "midi": 65,
      "hit": false,
      "t": 182190.70800000004,
      "d": 2741.295374999987,
      "v": 84
    },
    {
      "midi": 74,
      "hit": false,
      "t": 182190.70800000004,
      "d": 2778.9505312499823,
      "v": 84
    },
    {
      "midi": 74,
      "hit": false,
      "t": 182228.3631562494,
      "d": 2334.619687499973,
      "v": 84
    },
    {
      "midi": 77,
      "hit": false,
      "t": 182235.8941874994,
      "d": 2379.805874999991,
      "v": 84
    },
    {
      "midi": 70,
      "hit": false,
      "t": 182250.95624999938,
      "d": 2274.371437499998,
      "v": 83
    },
    {
      "midi": 72,
      "hit": false,
      "t": 182732.94225000008,
      "d": 173.21371874999022,
      "v": 67
    },
    {
      "midi": 72,
      "hit": false,
      "t": 182732.94225000008,
      "d": 173.21371874999022,
      "v": 85
    },
    {
      "midi": 72,
      "hit": false,
      "t": 182913.68700000006,
      "d": 173.21371874999022,
      "v": 67
    },
    {
      "midi": 72,
      "hit": false,
      "t": 182913.68700000006,
      "d": 173.21371874999022,
      "v": 85
    },
    {
      "midi": 34,
      "hit": false,
      "t": 183275.17649999994,
      "d": 240.99299999998766,
      "v": 78
    },
    {
      "midi": 50,
      "hit": false,
      "t": 183636.6659999999,
      "d": 715.4479687499988,
      "v": 69
    },
    {
      "midi": 34,
      "hit": false,
      "t": 183636.66599999994,
      "d": 1385.709750000009,
      "v": 75
    },
    {
      "midi": 58,
      "hit": false,
      "t": 183636.66599999994,
      "d": 715.4479687499988,
      "v": 72
    },
    {
      "midi": 62,
      "hit": false,
      "t": 183636.66599999994,
      "d": 715.4479687499988,
      "v": 76
    },
    {
      "midi": 96,
      "hit": false,
      "t": 184178.90025000006,
      "d": 120.49650000000838,
      "v": 63
    },
    {
      "midi": 84,
      "hit": false,
      "t": 184178.90025000006,
      "d": 173.21371875001932,
      "v": 63
    },
    {
      "midi": 72,
      "hit": false,
      "t": 184178.90025000006,
      "d": 173.21371874999022,
      "v": 82
    },
    {
      "midi": 84,
      "hit": false,
      "t": 184178.90025000006,
      "d": 173.21371874999022,
      "v": 82
    },
    {
      "midi": 57,
      "hit": false,
      "t": 184359.6449999999,
      "d": 715.4479687499988,
      "v": 62
    },
    {
      "midi": 65,
      "hit": false,
      "t": 184359.64499999993,
      "d": 715.4479687499988,
      "v": 74
    },
    {
      "midi": 69,
      "hit": false,
      "t": 184359.64499999993,
      "d": 715.4479687499988,
      "v": 76
    },
    {
      "midi": 93,
      "hit": false,
      "t": 184359.645,
      "d": 745.57209375003,
      "v": 71
    },
    {
      "midi": 72,
      "hit": false,
      "t": 184359.64500000005,
      "d": 173.21371874999022,
      "v": 82
    },
    {
      "midi": 84,
      "hit": false,
      "t": 184359.64500000005,
      "d": 173.21371874999022,
      "v": 82
    },
    {
      "midi": 96,
      "hit": false,
      "t": 184359.64500000008,
      "d": 120.49650000000838,
      "v": 62
    },
    {
      "midi": 84,
      "hit": false,
      "t": 184359.64500000008,
      "d": 173.21371875001932,
      "v": 62
    },
    {
      "midi": 76,
      "hit": false,
      "t": 185029.9067812494,
      "d": 2583.143718749954,
      "v": 67
    },
    {
      "midi": 79,
      "hit": false,
      "t": 185037.43781249938,
      "d": 2545.488562499988,
      "v": 67
    },
    {
      "midi": 72,
      "hit": false,
      "t": 185044.96884374938,
      "d": 2553.019593749981,
      "v": 67
    },
    {
      "midi": 64,
      "hit": false,
      "t": 185082.62399999992,
      "d": 2884.384968750004,
      "v": 63
    },
    {
      "midi": 36,
      "hit": false,
      "t": 185082.62399999995,
      "d": 1009.1581874999974,
      "v": 67
    },
    {
      "midi": 88,
      "hit": false,
      "t": 185082.624,
      "d": 2922.0401249999995,
      "v": 67
    },
    {
      "midi": 60,
      "hit": false,
      "t": 185082.624,
      "d": 2711.171250000014,
      "v": 67
    },
    {
      "midi": 67,
      "hit": false,
      "t": 185082.624,
      "d": 2733.764343750023,
      "v": 67
    },
    {
      "midi": 76,
      "hit": false,
      "t": 185082.624,
      "d": 2778.9505312500114,
      "v": 67
    },
    {
      "midi": 84,
      "hit": false,
      "t": 185624.85825000005,
      "d": 120.49650000000838,
      "v": 79
    },
    {
      "midi": 72,
      "hit": false,
      "t": 185624.8582500001,
      "d": 173.21371874999022,
      "v": 59
    },
    {
      "midi": 84,
      "hit": false,
      "t": 185805.60300000006,
      "d": 120.49650000000838,
      "v": 79
    },
    {
      "midi": 72,
      "hit": false,
      "t": 185805.6030000001,
      "d": 173.21371874999022,
      "v": 58
    },
    {
      "midi": 36,
      "hit": false,
      "t": 186167.09249999994,
      "d": 263.5860937499965,
      "v": 61
    },
    {
      "midi": 52,
      "hit": false,
      "t": 186347.8372499999,
      "d": 1619.1717187500035,
      "v": 57
    },
    {
      "midi": 36,
      "hit": false,
      "t": 186528.58199999994,
      "d": 896.1927187500114,
      "v": 59
    },
    {
      "midi": 84,
      "hit": false,
      "t": 187070.81625000006,
      "d": 120.49650000000838,
      "v": 76
    },
    {
      "midi": 96,
      "hit": false,
      "t": 187070.81625000006,
      "d": 120.49650000000838,
      "v": 76
    },
    {
      "midi": 96,
      "hit": false,
      "t": 187070.8162500001,
      "d": 120.49650000000838,
      "v": 55
    },
    {
      "midi": 84,
      "hit": false,
      "t": 187070.8162500001,
      "d": 173.21371875001932,
      "v": 55
    },
    {
      "midi": 84,
      "hit": false,
      "t": 187251.56100000007,
      "d": 120.49650000000838,
      "v": 76
    },
    {
      "midi": 96,
      "hit": false,
      "t": 187251.56100000007,
      "d": 120.49650000000838,
      "v": 76
    },
    {
      "midi": 96,
      "hit": false,
      "t": 187251.5610000001,
      "d": 120.49650000000838,
      "v": 54
    },
    {
      "midi": 84,
      "hit": false,
      "t": 187251.5610000001,
      "d": 173.21371875001932,
      "v": 54
    },
    {
      "midi": 31,
      "hit": false,
      "t": 187432.30574999994,
      "d": 143.08959374998813,
      "v": 54
    },
    {
      "midi": 36,
      "hit": false,
      "t": 187613.05049999992,
      "d": 331.36537499999395,
      "v": 53
    },
    {
      "midi": 60,
      "hit": false,
      "t": 187793.79525000002,
      "d": 105.43443749999278,
      "v": 52
    },
    {
      "midi": 43,
      "hit": false,
      "t": 187974.5399999999,
      "d": 534.7032187499863,
      "v": 47
    },
    {
      "midi": 48,
      "hit": false,
      "t": 187974.5399999999,
      "d": 534.7032187499863,
      "v": 40
    },
    {
      "midi": 52,
      "hit": false,
      "t": 187974.5399999999,
      "d": 534.7032187499863,
      "v": 37
    },
    {
      "midi": 34,
      "hit": false,
      "t": 187974.53999999992,
      "d": 888.6616874999891,
      "v": 50
    },
    {
      "midi": 58,
      "hit": false,
      "t": 187974.53999999998,
      "d": 2846.729812500009,
      "v": 50
    },
    {
      "midi": 89,
      "hit": false,
      "t": 187974.54,
      "d": 2884.384968750004,
      "v": 50
    },
    {
      "midi": 65,
      "hit": false,
      "t": 187974.54,
      "d": 2733.7643437499937,
      "v": 50
    },
    {
      "midi": 74,
      "hit": false,
      "t": 187974.54,
      "d": 2794.012593749998,
      "v": 50
    },
    {
      "midi": 77,
      "hit": false,
      "t": 188004.66412499934,
      "d": 2417.4610312499863,
      "v": 50
    },
    {
      "midi": 70,
      "hit": false,
      "t": 188012.19515624933,
      "d": 2304.4955625000002,
      "v": 50
    },
    {
      "midi": 74,
      "hit": false,
      "t": 188012.19515624933,
      "d": 2364.7438125000044,
      "v": 50
    },
    {
      "midi": 72,
      "hit": false,
      "t": 188697.51900000015,
      "d": 173.21371874999022,
      "v": 50
    },
    {
      "midi": 34,
      "hit": false,
      "t": 189059.0084999999,
      "d": 225.93093750000116,
      "v": 44
    },
    {
      "midi": 50,
      "hit": false,
      "t": 189420.49799999988,
      "d": 715.4479687499988,
      "v": 33
    },
    {
      "midi": 34,
      "hit": false,
      "t": 189420.4979999999,
      "d": 1355.585625000007,
      "v": 42
    },
    {
      "midi": 62,
      "hit": false,
      "t": 189420.49799999993,
      "d": 715.4479687499988,
      "v": 58
    },
    {
      "midi": 84,
      "hit": false,
      "t": 189962.73225000015,
      "d": 173.21371874999022,
      "v": 46
    },
    {
      "midi": 55,
      "hit": false,
      "t": 190143.47699999987,
      "d": 715.4479687499988,
      "v": 32
    },
    {
      "midi": 67,
      "hit": false,
      "t": 190143.47699999993,
      "d": 715.4479687499988,
      "v": 50
    },
    {
      "midi": 96,
      "hit": false,
      "t": 190143.47700000013,
      "d": 60.24825000000419,
      "v": 46
    },
    {
      "midi": 84,
      "hit": false,
      "t": 190143.47700000013,
      "d": 173.21371874999022,
      "v": 46
    },
    {
      "midi": 76,
      "hit": false,
      "t": 190851.39393749932,
      "d": 2342.1507187500247,
      "v": 34
    },
    {
      "midi": 79,
      "hit": false,
      "t": 190858.9249687493,
      "d": 2312.0265937500226,
      "v": 34
    },
    {
      "midi": 52,
      "hit": false,
      "t": 190866.45599999986,
      "d": 2884.384968750004,
      "v": 31
    },
    {
      "midi": 36,
      "hit": false,
      "t": 190866.45599999992,
      "d": 866.0685937500093,
      "v": 34
    },
    {
      "midi": 64,
      "hit": false,
      "t": 190866.45599999992,
      "d": 2884.384968750004,
      "v": 49
    },
    {
      "midi": 88,
      "hit": false,
      "t": 190866.456,
      "d": 2891.9159999999974,
      "v": 34
    },
    {
      "midi": 67,
      "hit": false,
      "t": 190866.456,
      "d": 2778.9505312500114,
      "v": 34
    },
    {
      "midi": 76,
      "hit": false,
      "t": 190866.456,
      "d": 2854.260843750002,
      "v": 34
    },
    {
      "midi": 60,
      "hit": false,
      "t": 190866.456,
      "d": 2876.853937500011,
      "v": 34
    },
    {
      "midi": 72,
      "hit": false,
      "t": 190881.51806249932,
      "d": 2319.557625000016,
      "v": 34
    },
    {
      "midi": 72,
      "hit": false,
      "t": 191408.69025000013,
      "d": 173.21371874999022,
      "v": 42
    },
    {
      "midi": 72,
      "hit": false,
      "t": 191589.4350000001,
      "d": 173.21371874999022,
      "v": 42
    },
    {
      "midi": 36,
      "hit": false,
      "t": 191950.92449999994,
      "d": 256.05506250000326,
      "v": 28
    },
    {
      "midi": 36,
      "hit": false,
      "t": 192312.41399999993,
      "d": 338.8964062499872,
      "v": 25
    },
    {
      "midi": 31,
      "hit": false,
      "t": 192673.90349999993,
      "d": 338.8964062499872,
      "v": 23
    },
    {
      "midi": 96,
      "hit": false,
      "t": 192854.64825000011,
      "d": 120.49650000000838,
      "v": 38
    },
    {
      "midi": 84,
      "hit": false,
      "t": 192854.64825000011,
      "d": 173.21371875001932,
      "v": 38
    },
    {
      "midi": 36,
      "hit": false,
      "t": 193035.39299999992,
      "d": 670.2617812500102,
      "v": 21
    },
    {
      "midi": 96,
      "hit": false,
      "t": 193035.39300000013,
      "d": 120.49650000000838,
      "v": 37
    },
    {
      "midi": 84,
      "hit": false,
      "t": 193035.39300000013,
      "d": 173.21371875001932,
      "v": 37
    },
    {
      "midi": 77,
      "hit": false,
      "t": 193735.77890624932,
      "d": 2583.1437187499832,
      "v": 17
    },
    {
      "midi": 74,
      "hit": false,
      "t": 193743.30993749932,
      "d": 2462.647218750004,
      "v": 17
    },
    {
      "midi": 43,
      "hit": false,
      "t": 193758.37199999986,
      "d": 534.7032187499863,
      "v": 20
    },
    {
      "midi": 48,
      "hit": false,
      "t": 193758.37199999986,
      "d": 534.7032187499863,
      "v": 16
    },
    {
      "midi": 34,
      "hit": false,
      "t": 193758.37199999994,
      "d": 933.8478750000068,
      "v": 17
    },
    {
      "midi": 58,
      "hit": false,
      "t": 193758.37199999997,
      "d": 2891.9159999999974,
      "v": 17
    },
    {
      "midi": 86,
      "hit": false,
      "t": 193758.372,
      "d": 2259.3093750000116,
      "v": 17
    },
    {
      "midi": 60,
      "hit": false,
      "t": 193758.372,
      "d": 1.5062062499928288,
      "v": 17
    },
    {
      "midi": 65,
      "hit": false,
      "t": 193758.372,
      "d": 2778.9505312499823,
      "v": 17
    },
    {
      "midi": 74,
      "hit": false,
      "t": 193758.372,
      "d": 2854.260843749973,
      "v": 17
    },
    {
      "midi": 70,
      "hit": false,
      "t": 193773.43406249932,
      "d": 2327.088656250009,
      "v": 17
    },
    {
      "midi": 34,
      "hit": false,
      "t": 194842.84049999996,
      "d": 225.93093750000116,
      "v": 11
    },
    {
      "midi": 34,
      "hit": false,
      "t": 195204.32999999996,
      "d": 1378.1787187499867,
      "v": 9
    },
    {
      "midi": 93,
      "hit": false,
      "t": 195927.309,
      "d": 722.9789999999921,
      "v": 5
    }
  ]
}