{
  "jsonPath": "Rock/Swiss Rock/Lunik/virtual-shadows.json",
  "path": "Rock\\Swiss Rock\\Lunik\\Virtual Shadows.mid",
  "name": "Virtual Shadows",
  "difficulty": "Advanced",
  "bpm": 70.00007000007,
  "notes": [
    {
      "midi": 65,
      "hit": false,
      "t": 3428.568,
      "d": 401.7853125000006,
      "v": 100
    },
    {
      "midi": 72,
      "hit": false,
      "t": 3428.568,
      "d": 785.7135000000017,
      "v": 100
    },
    {
      "midi": 53,
      "hit": false,
      "t": 3428.568,
      "d": 4.464281250000113,
      "v": 100
    },
    {
      "midi": 77,
      "hit": false,
      "t": 3428.568,
      "d": 223.21406250000064,
      "v": 95
    },
    {
      "midi": 84,
      "hit": false,
      "t": 3428.568,
      "d": 437.49956250000105,
      "v": 95
    },
    {
      "midi": 65,
      "hit": false,
      "t": 3428.568,
      "d": 3017.8541250000044,
      "v": 84
    },
    {
      "midi": 60,
      "hit": false,
      "t": 3642.8535000000006,
      "d": 562.499437500001,
      "v": 80
    },
    {
      "midi": 72,
      "hit": false,
      "t": 3642.8535000000006,
      "d": 312.4996875000006,
      "v": 75
    },
    {
      "midi": 65,
      "hit": false,
      "t": 3857.139000000001,
      "d": 303.5711250000004,
      "v": 94
    },
    {
      "midi": 77,
      "hit": false,
      "t": 3857.139000000001,
      "d": 169.6426875000002,
      "v": 89
    },
    {
      "midi": 67,
      "hit": false,
      "t": 4071.424500000001,
      "d": 401.78531250000106,
      "v": 94
    },
    {
      "midi": 71,
      "hit": false,
      "t": 4071.424500000001,
      "d": 933.0347812500013,
      "v": 94
    },
    {
      "midi": 79,
      "hit": false,
      "t": 4071.4245000000014,
      "d": 223.21406250000064,
      "v": 89
    },
    {
      "midi": 83,
      "hit": false,
      "t": 4071.4245000000014,
      "d": 517.8566250000008,
      "v": 89
    },
    {
      "midi": 62,
      "hit": false,
      "t": 4285.710000000002,
      "d": 562.4994375000006,
      "v": 94
    },
    {
      "midi": 74,
      "hit": false,
      "t": 4285.710000000002,
      "d": 312.4996875000006,
      "v": 89
    },
    {
      "midi": 67,
      "hit": false,
      "t": 4499.995500000002,
      "d": 290.1782812500005,
      "v": 91
    },
    {
      "midi": 79,
      "hit": false,
      "t": 4499.995500000002,
      "d": 160.71412500000042,
      "v": 86
    },
    {
      "midi": 72,
      "hit": false,
      "t": 4714.281000000003,
      "d": 348.2139375000006,
      "v": 87
    },
    {
      "midi": 77,
      "hit": false,
      "t": 4714.281000000003,
      "d": 366.07106250000106,
      "v": 90
    },
    {
      "midi": 81,
      "hit": false,
      "t": 4714.281000000003,
      "d": 392.85675000000083,
      "v": 88
    },
    {
      "midi": 60,
      "hit": false,
      "t": 5142.852000000003,
      "d": 857.1420000000007,
      "v": 83
    },
    {
      "midi": 65,
      "hit": false,
      "t": 5142.852000000003,
      "d": 857.1420000000007,
      "v": 95
    },
    {
      "midi": 69,
      "hit": false,
      "t": 5142.852000000003,
      "d": 857.1420000000007,
      "v": 92
    },
    {
      "midi": 77,
      "hit": false,
      "t": 5142.8520000000035,
      "d": 1107.1417499999998,
      "v": 90
    },
    {
      "midi": 72,
      "hit": false,
      "t": 5142.8520000000035,
      "d": 1116.0703125,
      "v": 78
    },
    {
      "midi": 81,
      "hit": false,
      "t": 5142.8520000000035,
      "d": 1133.9274375000005,
      "v": 87
    },
    {
      "midi": 41,
      "hit": false,
      "t": 6428.565000000003,
      "d": 401.78531250000015,
      "v": 105
    },
    {
      "midi": 53,
      "hit": false,
      "t": 6428.565000000004,
      "d": 223.21406250000018,
      "v": 100
    },
    {
      "midi": 65,
      "hit": false,
      "t": 6857.136000000003,
      "d": 276.78543750000154,
      "v": 98
    },
    {
      "midi": 72,
      "hit": false,
      "t": 6857.136000000003,
      "d": 772.3206562500018,
      "v": 102
    },
    {
      "midi": 41,
      "hit": false,
      "t": 6857.136000000003,
      "d": 3428.568000000002,
      "v": 95
    },
    {
      "midi": 53,
      "hit": false,
      "t": 6857.136000000003,
      "d": 3428.568000000002,
      "v": 92
    },
    {
      "midi": 53,
      "hit": false,
      "t": 6857.136000000004,
      "d": 4.464281249999658,
      "v": 90
    },
    {
      "midi": 77,
      "hit": false,
      "t": 6857.136000000004,
      "d": 232.1426250000004,
      "v": 93
    },
    {
      "midi": 84,
      "hit": false,
      "t": 6857.136000000004,
      "d": 428.5710000000008,
      "v": 97
    },
    {
      "midi": 65,
      "hit": false,
      "t": 6857.136000000004,
      "d": 2392.8547500000022,
      "v": 87
    },
    {
      "midi": 60,
      "hit": false,
      "t": 7071.421500000004,
      "d": 428.5710000000008,
      "v": 83
    },
    {
      "midi": 72,
      "hit": false,
      "t": 7071.421500000004,
      "d": 330.35681250000107,
      "v": 78
    },
    {
      "midi": 65,
      "hit": false,
      "t": 7285.707000000005,
      "d": 290.1782812499996,
      "v": 94
    },
    {
      "midi": 77,
      "hit": false,
      "t": 7285.707000000005,
      "d": 160.71412500000042,
      "v": 89
    },
    {
      "midi": 71,
      "hit": false,
      "t": 7499.992500000005,
      "d": 852.677718750002,
      "v": 94
    },
    {
      "midi": 62,
      "hit": false,
      "t": 7499.992500000005,
      "d": 933.0347812500013,
      "v": 86
    },
    {
      "midi": 79,
      "hit": false,
      "t": 7499.992500000006,
      "d": 249.99974999999995,
      "v": 91
    },
    {
      "midi": 83,
      "hit": false,
      "t": 7499.992500000006,
      "d": 473.21381250000013,
      "v": 89
    },
    {
      "midi": 74,
      "hit": false,
      "t": 7499.992500000006,
      "d": 517.8566250000003,
      "v": 81
    },
    {
      "midi": 67,
      "hit": false,
      "t": 7928.563500000005,
      "d": 290.1782812500014,
      "v": 89
    },
    {
      "midi": 79,
      "hit": false,
      "t": 7928.563500000006,
      "d": 160.71412500000042,
      "v": 84
    },
    {
      "midi": 72,
      "hit": false,
      "t": 8142.8490000000065,
      "d": 383.9281875000006,
      "v": 91
    },
    {
      "midi": 81,
      "hit": false,
      "t": 8142.8490000000065,
      "d": 401.78531250000106,
      "v": 89
    },
    {
      "midi": 60,
      "hit": false,
      "t": 8571.420000000006,
      "d": 642.8564999999999,
      "v": 84
    },
    {
      "midi": 69,
      "hit": false,
      "t": 8571.420000000006,
      "d": 642.8564999999999,
      "v": 87
    },
    {
      "midi": 81,
      "hit": false,
      "t": 8571.420000000007,
      "d": 491.07093749999876,
      "v": 82
    },
    {
      "midi": 72,
      "hit": false,
      "t": 8571.420000000007,
      "d": 517.8566249999985,
      "v": 79
    },
    {
      "midi": 59,
      "hit": false,
      "t": 9428.562000000005,
      "d": 1348.2129375000022,
      "v": 79
    },
    {
      "midi": 71,
      "hit": false,
      "t": 9428.562000000007,
      "d": 749.9992500000008,
      "v": 74
    },
    {
      "midi": 74,
      "hit": false,
      "t": 9428.562000000007,
      "d": 749.9992500000008,
      "v": 80
    },
    {
      "midi": 79,
      "hit": false,
      "t": 9428.562000000007,
      "d": 767.8563750000012,
      "v": 88
    },
    {
      "midi": 62,
      "hit": false,
      "t": 10285.704000000005,
      "d": 491.0709375000024,
      "v": 73
    },
    {
      "midi": 67,
      "hit": false,
      "t": 10285.704000000005,
      "d": 526.7851875000033,
      "v": 72
    },
    {
      "midi": 64,
      "hit": false,
      "t": 10285.704000000005,
      "d": 772.3206562500036,
      "v": 78
    },
    {
      "midi": 48,
      "hit": false,
      "t": 10285.704000000005,
      "d": 5272.3161562500045,
      "v": 77
    },
    {
      "midi": 60,
      "hit": false,
      "t": 10714.275000000007,
      "d": 401.78531250000196,
      "v": 49
    },
    {
      "midi": 67,
      "hit": false,
      "t": 11142.846000000009,
      "d": 593.7494062499991,
      "v": 42
    },
    {
      "midi": 62,
      "hit": false,
      "t": 11142.846000000009,
      "d": 723.2135624999992,
      "v": 35
    },
    {
      "midi": 64,
      "hit": false,
      "t": 11142.846000000009,
      "d": 741.0706874999996,
      "v": 53
    },
    {
      "midi": 60,
      "hit": false,
      "t": 11571.417000000009,
      "d": 258.92831249999836,
      "v": 40
    },
    {
      "midi": 67,
      "hit": false,
      "t": 11999.988000000008,
      "d": 544.6423125000001,
      "v": 26
    },
    {
      "midi": 62,
      "hit": false,
      "t": 11999.988000000008,
      "d": 691.9635937500007,
      "v": 36
    },
    {
      "midi": 64,
      "hit": false,
      "t": 11999.988000000008,
      "d": 691.9635937500007,
      "v": 50
    },
    {
      "midi": 60,
      "hit": false,
      "t": 12428.559000000008,
      "d": 419.6424375000006,
      "v": 42
    },
    {
      "midi": 67,
      "hit": false,
      "t": 12857.130000000008,
      "d": 691.9635937499988,
      "v": 43
    },
    {
      "midi": 62,
      "hit": false,
      "t": 12857.130000000008,
      "d": 723.2135624999992,
      "v": 47
    },
    {
      "midi": 64,
      "hit": false,
      "t": 12857.130000000008,
      "d": 741.0706874999996,
      "v": 45
    },
    {
      "midi": 60,
      "hit": false,
      "t": 13285.701000000008,
      "d": 209.8212187499994,
      "v": 67
    },
    {
      "midi": 64,
      "hit": false,
      "t": 13714.272000000008,
      "d": 723.213562500001,
      "v": 49
    },
    {
      "midi": 59,
      "hit": false,
      "t": 13714.272000000008,
      "d": 741.0706875000014,
      "v": 71
    },
    {
      "midi": 60,
      "hit": false,
      "t": 13714.272000000008,
      "d": 785.7135000000017,
      "v": 65
    },
    {
      "midi": 45,
      "hit": false,
      "t": 13714.272000000008,
      "d": 5174.101968750008,
      "v": 74
    },
    {
      "midi": 57,
      "hit": false,
      "t": 14142.84300000001,
      "d": 450.8924062499991,
      "v": 33
    },
    {
      "midi": 64,
      "hit": false,
      "t": 14571.41400000001,
      "d": 642.8564999999999,
      "v": 61
    },
    {
      "midi": 59,
      "hit": false,
      "t": 14571.41400000001,
      "d": 741.0706874999996,
      "v": 65
    },
    {
      "midi": 57,
      "hit": false,
      "t": 14999.98500000001,
      "d": 352.67821874999936,
      "v": 20
    },
    {
      "midi": 64,
      "hit": false,
      "t": 15428.55600000001,
      "d": 674.1064687500002,
      "v": 53
    },
    {
      "midi": 59,
      "hit": false,
      "t": 15428.55600000001,
      "d": 754.4635312499995,
      "v": 62
    },
    {
      "midi": 57,
      "hit": false,
      "t": 15857.12700000001,
      "d": 339.2853749999995,
      "v": 55
    },
    {
      "midi": 64,
      "hit": false,
      "t": 16285.69800000001,
      "d": 741.0706875000051,
      "v": 64
    },
    {
      "midi": 59,
      "hit": false,
      "t": 16285.69800000001,
      "d": 772.3206562500036,
      "v": 74
    },
    {
      "midi": 57,
      "hit": false,
      "t": 16714.26900000001,
      "d": 241.07118750000154,
      "v": 38
    },
    {
      "midi": 41,
      "hit": false,
      "t": 17142.840000000015,
      "d": 5656.244343750004,
      "v": 68
    },
    {
      "midi": 57,
      "hit": false,
      "t": 17571.411000000015,
      "d": 464.2852500000008,
      "v": 46
    },
    {
      "midi": 60,
      "hit": false,
      "t": 17999.982000000015,
      "d": 428.5709999999999,
      "v": 72
    },
    {
      "midi": 65,
      "hit": false,
      "t": 17999.982000000015,
      "d": 499.9995000000017,
      "v": 68
    },
    {
      "midi": 57,
      "hit": false,
      "t": 18428.553000000014,
      "d": 433.0352812500023,
      "v": 69
    },
    {
      "midi": 67,
      "hit": false,
      "t": 18857.124000000018,
      "d": 339.2853749999995,
      "v": 93
    },
    {
      "midi": 60,
      "hit": false,
      "t": 18857.124000000018,
      "d": 383.9281874999979,
      "v": 87
    },
    {
      "midi": 57,
      "hit": false,
      "t": 19071.409500000016,
      "d": 482.14237499999945,
      "v": 60
    },
    {
      "midi": 60,
      "hit": false,
      "t": 19499.980500000016,
      "d": 107.14274999999907,
      "v": 90
    },
    {
      "midi": 65,
      "hit": false,
      "t": 19499.980500000016,
      "d": 401.7853124999965,
      "v": 94
    },
    {
      "midi": 53,
      "hit": false,
      "t": 19714.266000000014,
      "d": 915.1776562499981,
      "v": 76
    },
    {
      "midi": 57,
      "hit": false,
      "t": 19928.551500000012,
      "d": 160.7141249999986,
      "v": 76
    },
    {
      "midi": 64,
      "hit": false,
      "t": 20142.83700000001,
      "d": 370.53534375000163,
      "v": 87
    },
    {
      "midi": 40,
      "hit": false,
      "t": 20571.40800000001,
      "d": 2392.8547500000095,
      "v": 78
    },
    {
      "midi": 52,
      "hit": false,
      "t": 20571.40800000001,
      "d": 2941.961343750012,
      "v": 76
    },
    {
      "midi": 55,
      "hit": false,
      "t": 20999.97900000001,
      "d": 544.6423125000038,
      "v": 58
    },
    {
      "midi": 59,
      "hit": false,
      "t": 21214.264500000012,
      "d": 142.85699999999997,
      "v": 71
    },
    {
      "midi": 59,
      "hit": false,
      "t": 21428.550000000014,
      "d": 8.928562500001135,
      "v": 53
    },
    {
      "midi": 67,
      "hit": false,
      "t": 21428.550000000014,
      "d": 401.78531250000015,
      "v": 102
    },
    {
      "midi": 62,
      "hit": false,
      "t": 21642.835500000016,
      "d": 312.4996874999997,
      "v": 91
    },
    {
      "midi": 59,
      "hit": false,
      "t": 21857.121000000014,
      "d": 352.678218750003,
      "v": 85
    },
    {
      "midi": 55,
      "hit": false,
      "t": 22071.406500000016,
      "d": 272.3211562500037,
      "v": 80
    },
    {
      "midi": 43,
      "hit": false,
      "t": 22285.692000000017,
      "d": 2589.2831250000017,
      "v": 93
    },
    {
      "midi": 53,
      "hit": false,
      "t": 22499.97750000002,
      "d": 531.2494687500002,
      "v": 69
    },
    {
      "midi": 59,
      "hit": false,
      "t": 22714.263000000017,
      "d": 183.03553125000326,
      "v": 77
    },
    {
      "midi": 62,
      "hit": false,
      "t": 22928.54850000002,
      "d": 464.28525000000445,
      "v": 90
    },
    {
      "midi": 50,
      "hit": false,
      "t": 23142.83400000002,
      "d": 1174.1059687499983,
      "v": 67
    },
    {
      "midi": 53,
      "hit": false,
      "t": 23357.119500000023,
      "d": 383.9281874999979,
      "v": 53
    },
    {
      "midi": 59,
      "hit": false,
      "t": 23571.40500000002,
      "d": 383.9281875000015,
      "v": 59
    },
    {
      "midi": 64,
      "hit": false,
      "t": 23999.97600000002,
      "d": 705.3564374999987,
      "v": 6
    },
    {
      "midi": 62,
      "hit": false,
      "t": 23999.97600000002,
      "d": 754.4635312499995,
      "v": 27
    },
    {
      "midi": 48,
      "hit": false,
      "t": 23999.97600000002,
      "d": 5848.208437500001,
      "v": 93
    },
    {
      "midi": 67,
      "hit": false,
      "t": 24214.26150000002,
      "d": 499.9995000000017,
      "v": 6
    },
    {
      "midi": 60,
      "hit": false,
      "t": 24428.54700000002,
      "d": 660.7136250000003,
      "v": 73
    },
    {
      "midi": 67,
      "hit": false,
      "t": 24857.11800000002,
      "d": 593.7494062500009,
      "v": 40
    },
    {
      "midi": 64,
      "hit": false,
      "t": 24857.11800000002,
      "d": 705.3564375000024,
      "v": 59
    },
    {
      "midi": 62,
      "hit": false,
      "t": 24857.11800000002,
      "d": 741.0706875000033,
      "v": 54
    },
    {
      "midi": 60,
      "hit": false,
      "t": 25285.68900000002,
      "d": 513.3923437500052,
      "v": 55
    },
    {
      "midi": 67,
      "hit": false,
      "t": 25714.260000000024,
      "d": 544.6423125000038,
      "v": 37
    },
    {
      "midi": 64,
      "hit": false,
      "t": 25714.260000000024,
      "d": 624.999375000003,
      "v": 33
    },
    {
      "midi": 62,
      "hit": false,
      "t": 25714.260000000024,
      "d": 660.713625000004,
      "v": 30
    },
    {
      "midi": 60,
      "hit": false,
      "t": 26142.831000000027,
      "d": 383.9281875000015,
      "v": 54
    },
    {
      "midi": 67,
      "hit": false,
      "t": 26571.402000000027,
      "d": 741.0706874999996,
      "v": 57
    },
    {
      "midi": 64,
      "hit": false,
      "t": 26571.402000000027,
      "d": 754.4635312499995,
      "v": 57
    },
    {
      "midi": 62,
      "hit": false,
      "t": 26571.402000000027,
      "d": 785.713499999998,
      "v": 57
    },
    {
      "midi": 60,
      "hit": false,
      "t": 26999.973000000027,
      "d": 383.9281874999979,
      "v": 74
    },
    {
      "midi": 59,
      "hit": false,
      "t": 27428.544000000024,
      "d": 741.0706875000033,
      "v": 63
    },
    {
      "midi": 60,
      "hit": false,
      "t": 27428.544000000024,
      "d": 741.0706875000033,
      "v": 62
    },
    {
      "midi": 64,
      "hit": false,
      "t": 27428.544000000024,
      "d": 785.7135000000017,
      "v": 38
    },
    {
      "midi": 45,
      "hit": false,
      "t": 27428.544000000024,
      "d": 4580.352562499986,
      "v": 73
    },
    {
      "midi": 57,
      "hit": false,
      "t": 27857.115000000027,
      "d": 464.2852500000008,
      "v": 65
    },
    {
      "midi": 64,
      "hit": false,
      "t": 28285.686000000027,
      "d": 705.3564374999987,
      "v": 45
    },
    {
      "midi": 60,
      "hit": false,
      "t": 28285.686000000027,
      "d": 723.2135624999974,
      "v": 70
    },
    {
      "midi": 59,
      "hit": false,
      "t": 28285.686000000027,
      "d": 741.070687499996,
      "v": 61
    },
    {
      "midi": 57,
      "hit": false,
      "t": 28714.257000000027,
      "d": 383.9281874999979,
      "v": 15
    },
    {
      "midi": 64,
      "hit": false,
      "t": 29142.828000000023,
      "d": 611.6065312499995,
      "v": 42
    },
    {
      "midi": 59,
      "hit": false,
      "t": 29142.828000000023,
      "d": 705.3564374999987,
      "v": 52
    },
    {
      "midi": 60,
      "hit": false,
      "t": 29142.828000000023,
      "d": 741.0706874999996,
      "v": 59
    },
    {
      "midi": 57,
      "hit": false,
      "t": 29571.399000000023,
      "d": 370.535343749998,
      "v": 54
    },
    {
      "midi": 60,
      "hit": false,
      "t": 29999.97000000002,
      "d": 691.9635937499988,
      "v": 82
    },
    {
      "midi": 64,
      "hit": false,
      "t": 29999.97000000002,
      "d": 723.2135624999974,
      "v": 81
    },
    {
      "midi": 59,
      "hit": false,
      "t": 29999.97000000002,
      "d": 741.070687499996,
      "v": 75
    },
    {
      "midi": 57,
      "hit": false,
      "t": 30428.54100000002,
      "d": 482.1423749999958,
      "v": 74
    },
    {
      "midi": 65,
      "hit": false,
      "t": 30857.112000000016,
      "d": 723.2135624999974,
      "v": 79
    },
    {
      "midi": 41,
      "hit": false,
      "t": 30857.112000000016,
      "d": 5513.387343750008,
      "v": 59
    },
    {
      "midi": 53,
      "hit": false,
      "t": 30857.112000000016,
      "d": 5575.887281250012,
      "v": 64
    },
    {
      "midi": 57,
      "hit": false,
      "t": 31285.68300000001,
      "d": 513.392343749998,
      "v": 69
    },
    {
      "midi": 60,
      "hit": false,
      "t": 31714.25400000001,
      "d": 58.03565624999828,
      "v": 77
    },
    {
      "midi": 67,
      "hit": false,
      "t": 31714.25400000001,
      "d": 754.4635312499959,
      "v": 88
    },
    {
      "midi": 57,
      "hit": false,
      "t": 32142.825000000008,
      "d": 531.2494687499966,
      "v": 46
    },
    {
      "midi": 60,
      "hit": false,
      "t": 32571.396000000008,
      "d": 44.6428124999984,
      "v": 76
    },
    {
      "midi": 65,
      "hit": false,
      "t": 32571.396000000008,
      "d": 705.3564374999987,
      "v": 80
    },
    {
      "midi": 57,
      "hit": false,
      "t": 32999.967000000004,
      "d": 464.2852500000008,
      "v": 64
    },
    {
      "midi": 65,
      "hit": false,
      "t": 33428.53800000001,
      "d": 321.4282499999972,
      "v": 102
    },
    {
      "midi": 64,
      "hit": false,
      "t": 33642.823500000006,
      "d": 383.9281875000015,
      "v": 89
    },
    {
      "midi": 62,
      "hit": false,
      "t": 33857.109000000004,
      "d": 209.82121875000303,
      "v": 85
    },
    {
      "midi": 59,
      "hit": false,
      "t": 34285.68000000001,
      "d": 883.9276875000069,
      "v": 90
    },
    {
      "midi": 62,
      "hit": false,
      "t": 34285.68000000001,
      "d": 901.7848125000091,
      "v": 92
    },
    {
      "midi": 52,
      "hit": false,
      "t": 34285.68000000001,
      "d": 3022.318406250015,
      "v": 88
    },
    {
      "midi": 55,
      "hit": false,
      "t": 34714.25100000001,
      "d": 531.2494687500075,
      "v": 85
    },
    {
      "midi": 67,
      "hit": false,
      "t": 35142.822000000015,
      "d": 499.99950000000536,
      "v": 103
    },
    {
      "midi": 62,
      "hit": false,
      "t": 35357.10750000002,
      "d": 482.1423750000031,
      "v": 94
    },
    {
      "midi": 59,
      "hit": false,
      "t": 35571.39300000002,
      "d": 383.9281875000015,
      "v": 94
    },
    {
      "midi": 55,
      "hit": false,
      "t": 35785.67850000002,
      "d": 209.82121874999575,
      "v": 82
    },
    {
      "midi": 62,
      "hit": false,
      "t": 35999.96400000002,
      "d": 624.9993750000067,
      "v": 95
    },
    {
      "midi": 43,
      "hit": false,
      "t": 35999.96400000002,
      "d": 2781.247218749995,
      "v": 94
    },
    {
      "midi": 55,
      "hit": false,
      "t": 36214.24950000003,
      "d": 513.3923437500052,
      "v": 87
    },
    {
      "midi": 59,
      "hit": false,
      "t": 36428.535000000025,
      "d": 191.96409375000076,
      "v": 84
    },
    {
      "midi": 62,
      "hit": false,
      "t": 36642.82050000003,
      "d": 464.28524999999354,
      "v": 96
    },
    {
      "midi": 57,
      "hit": false,
      "t": 36642.82050000003,
      "d": 482.1423749999958,
      "v": 101
    },
    {
      "midi": 50,
      "hit": false,
      "t": 36857.10600000003,
      "d": 1285.7129999999888,
      "v": 85
    },
    {
      "midi": 55,
      "hit": false,
      "t": 37071.39150000003,
      "d": 214.28549999999814,
      "v": 82
    },
    {
      "midi": 59,
      "hit": false,
      "t": 37285.677000000025,
      "d": 383.92818749999424,
      "v": 92
    },
    {
      "midi": 62,
      "hit": false,
      "t": 37285.677000000025,
      "d": 383.92818749999424,
      "v": 95
    },
    {
      "midi": 72,
      "hit": false,
      "t": 37714.24800000001,
      "d": 241.0711874999979,
      "v": 101
    },
    {
      "midi": 60,
      "hit": false,
      "t": 37714.24800000001,
      "d": 1535.7127499999915,
      "v": 97
    },
    {
      "midi": 48,
      "hit": false,
      "t": 37714.24800000002,
      "d": 2763.3900937500075,
      "v": 102
    },
    {
      "midi": 67,
      "hit": false,
      "t": 37928.533500000005,
      "d": 1196.427374999992,
      "v": 89
    },
    {
      "midi": 72,
      "hit": false,
      "t": 38142.819,
      "d": 937.4990624999919,
      "v": 96
    },
    {
      "midi": 60,
      "hit": false,
      "t": 38142.81900000002,
      "d": 642.8565000000017,
      "v": 101
    },
    {
      "midi": 74,
      "hit": false,
      "t": 38357.1045,
      "d": 276.78543749999517,
      "v": 95
    },
    {
      "midi": 62,
      "hit": false,
      "t": 38357.104500000016,
      "d": 499.99950000000536,
      "v": 100
    },
    {
      "midi": 76,
      "hit": false,
      "t": 38571.39,
      "d": 276.78543749999517,
      "v": 91
    },
    {
      "midi": 64,
      "hit": false,
      "t": 38571.390000000014,
      "d": 499.99950000000536,
      "v": 96
    },
    {
      "midi": 79,
      "hit": false,
      "t": 38785.6755,
      "d": 294.64256249999744,
      "v": 100
    },
    {
      "midi": 67,
      "hit": false,
      "t": 38785.67550000002,
      "d": 531.2494687500002,
      "v": 105
    },
    {
      "midi": 72,
      "hit": false,
      "t": 39428.532,
      "d": 232.14262500000768,
      "v": 101
    },
    {
      "midi": 64,
      "hit": false,
      "t": 39428.532,
      "d": 1642.8555000000051,
      "v": 91
    },
    {
      "midi": 60,
      "hit": false,
      "t": 39428.53200000002,
      "d": 401.78531250001106,
      "v": 106
    },
    {
      "midi": 52,
      "hit": false,
      "t": 39428.53200000002,
      "d": 2955.3541875000083,
      "v": 96
    },
    {
      "midi": 67,
      "hit": false,
      "t": 39642.817500000005,
      "d": 776.7849375000005,
      "v": 88
    },
    {
      "midi": 55,
      "hit": false,
      "t": 39642.81750000003,
      "d": 437.49956250000105,
      "v": 93
    },
    {
      "midi": 72,
      "hit": false,
      "t": 39857.10300000001,
      "d": 910.7133749999921,
      "v": 93
    },
    {
      "midi": 60,
      "hit": false,
      "t": 39857.10300000003,
      "d": 1638.3912187499955,
      "v": 98
    },
    {
      "midi": 74,
      "hit": false,
      "t": 40071.38850000001,
      "d": 303.57112499999494,
      "v": 91
    },
    {
      "midi": 62,
      "hit": false,
      "t": 40071.38850000003,
      "d": 544.6423124999928,
      "v": 96
    },
    {
      "midi": 76,
      "hit": false,
      "t": 40285.674000000006,
      "d": 258.9283125000002,
      "v": 86
    },
    {
      "midi": 64,
      "hit": false,
      "t": 40285.67400000003,
      "d": 464.28524999999354,
      "v": 91
    },
    {
      "midi": 79,
      "hit": false,
      "t": 40499.959500000004,
      "d": 232.1426250000004,
      "v": 100
    },
    {
      "midi": 67,
      "hit": false,
      "t": 40499.959500000026,
      "d": 419.6424374999988,
      "v": 105
    },
    {
      "midi": 77,
      "hit": false,
      "t": 41142.816000000006,
      "d": 366.07106249999924,
      "v": 96
    },
    {
      "midi": 65,
      "hit": false,
      "t": 41142.816000000006,
      "d": 1607.141249999986,
      "v": 98
    },
    {
      "midi": 65,
      "hit": false,
      "t": 41142.81600000003,
      "d": 660.7136249999967,
      "v": 101
    },
    {
      "midi": 53,
      "hit": false,
      "t": 41142.81600000003,
      "d": 2892.8542499999967,
      "v": 103
    },
    {
      "midi": 69,
      "hit": false,
      "t": 41357.101500000004,
      "d": 1116.0703124999927,
      "v": 77
    },
    {
      "midi": 57,
      "hit": false,
      "t": 41357.101500000026,
      "d": 2008.9265625000044,
      "v": 82
    },
    {
      "midi": 72,
      "hit": false,
      "t": 41571.387,
      "d": 910.7133749999921,
      "v": 87
    },
    {
      "midi": 60,
      "hit": false,
      "t": 41571.387000000024,
      "d": 1638.3912187500027,
      "v": 92
    },
    {
      "midi": 74,
      "hit": false,
      "t": 41785.6725,
      "d": 732.1421249999912,
      "v": 89
    },
    {
      "midi": 62,
      "hit": false,
      "t": 41785.67250000002,
      "d": 1316.9629687500055,
      "v": 94
    },
    {
      "midi": 77,
      "hit": false,
      "t": 41999.958,
      "d": 62.49993749999703,
      "v": 64
    },
    {
      "midi": 65,
      "hit": false,
      "t": 41999.95800000003,
      "d": 111.60703125000146,
      "v": 69
    },
    {
      "midi": 77,
      "hit": false,
      "t": 42214.2435,
      "d": 312.49968749999243,
      "v": 95
    },
    {
      "midi": 65,
      "hit": false,
      "t": 42214.243500000026,
      "d": 562.4994375000024,
      "v": 100
    },
    {
      "midi": 74,
      "hit": false,
      "t": 43285.670999999995,
      "d": 383.92818749999424,
      "v": 99
    },
    {
      "midi": 79,
      "hit": false,
      "t": 43285.670999999995,
      "d": 392.85674999999173,
      "v": 104
    },
    {
      "midi": 83,
      "hit": false,
      "t": 43285.670999999995,
      "d": 401.78531249998923,
      "v": 101
    },
    {
      "midi": 67,
      "hit": false,
      "t": 43285.670999999995,
      "d": 437.4995624999865,
      "v": 97
    },
    {
      "midi": 62,
      "hit": false,
      "t": 43285.67100000003,
      "d": 691.9635937499916,
      "v": 104
    },
    {
      "midi": 67,
      "hit": false,
      "t": 43285.67100000003,
      "d": 705.3564374999914,
      "v": 109
    },
    {
      "midi": 71,
      "hit": false,
      "t": 43285.67100000003,
      "d": 723.2135624999937,
      "v": 106
    },
    {
      "midi": 55,
      "hit": false,
      "t": 43285.67100000003,
      "d": 785.7134999999907,
      "v": 102
    },
    {
      "midi": 81,
      "hit": false,
      "t": 43928.52749999998,
      "d": 178.57125000000087,
      "v": 100
    },
    {
      "midi": 84,
      "hit": false,
      "t": 43928.52749999998,
      "d": 187.49981249999837,
      "v": 99
    },
    {
      "midi": 76,
      "hit": false,
      "t": 43928.52749999998,
      "d": 196.42837499999587,
      "v": 96
    },
    {
      "midi": 69,
      "hit": false,
      "t": 43928.52749999998,
      "d": 205.35693749999336,
      "v": 91
    },
    {
      "midi": 57,
      "hit": false,
      "t": 43928.527500000026,
      "d": 428.5709999999963,
      "v": 96
    },
    {
      "midi": 64,
      "hit": false,
      "t": 43928.527500000026,
      "d": 428.5709999999963,
      "v": 101
    },
    {
      "midi": 69,
      "hit": false,
      "t": 43928.527500000026,
      "d": 428.5709999999963,
      "v": 105
    },
    {
      "midi": 72,
      "hit": false,
      "t": 43928.527500000026,
      "d": 428.5709999999963,
      "v": 104
    },
    {
      "midi": 76,
      "hit": false,
      "t": 44571.38399999998,
      "d": 312.499687500007,
      "v": 101
    },
    {
      "midi": 60,
      "hit": false,
      "t": 44571.38399999998,
      "d": 1392.8557500000024,
      "v": 95
    },
    {
      "midi": 64,
      "hit": false,
      "t": 44571.38400000002,
      "d": 562.4994375000024,
      "v": 106
    },
    {
      "midi": 48,
      "hit": false,
      "t": 44571.38400000002,
      "d": 2508.926062499988,
      "v": 100
    },
    {
      "midi": 67,
      "hit": false,
      "t": 44785.66949999998,
      "d": 1142.8559999999998,
      "v": 87
    },
    {
      "midi": 72,
      "hit": false,
      "t": 44999.95499999998,
      "d": 937.4990624999991,
      "v": 94
    },
    {
      "midi": 60,
      "hit": false,
      "t": 44999.95500000002,
      "d": 1687.4983124999926,
      "v": 99
    },
    {
      "midi": 74,
      "hit": false,
      "t": 45214.24049999998,
      "d": 249.9997499999954,
      "v": 95
    },
    {
      "midi": 62,
      "hit": false,
      "t": 45214.24050000002,
      "d": 450.89240624999366,
      "v": 100
    },
    {
      "midi": 76,
      "hit": false,
      "t": 45428.525999999976,
      "d": 196.42837500000314,
      "v": 91
    },
    {
      "midi": 64,
      "hit": false,
      "t": 45428.52600000002,
      "d": 352.6782187499921,
      "v": 96
    },
    {
      "midi": 79,
      "hit": false,
      "t": 45642.81149999998,
      "d": 258.9283125000002,
      "v": 98
    },
    {
      "midi": 67,
      "hit": false,
      "t": 45642.81150000002,
      "d": 464.28524999999354,
      "v": 103
    },
    {
      "midi": 76,
      "hit": false,
      "t": 46285.667999999976,
      "d": 321.4282500000045,
      "v": 98
    },
    {
      "midi": 64,
      "hit": false,
      "t": 46285.667999999976,
      "d": 1419.641437499995,
      "v": 98
    },
    {
      "midi": 64,
      "hit": false,
      "t": 46285.66800000001,
      "d": 580.3565624999974,
      "v": 103
    },
    {
      "midi": 52,
      "hit": false,
      "t": 46285.66800000001,
      "d": 2553.568874999997,
      "v": 103
    },
    {
      "midi": 67,
      "hit": false,
      "t": 46499.95349999998,
      "d": 1080.3560624999882,
      "v": 89
    },
    {
      "midi": 55,
      "hit": false,
      "t": 46499.95350000002,
      "d": 343.7496562499946,
      "v": 94
    },
    {
      "midi": 72,
      "hit": false,
      "t": 46714.23899999998,
      "d": 919.6419374999896,
      "v": 95
    },
    {
      "midi": 74,
      "hit": false,
      "t": 46928.52449999998,
      "d": 258.9283124999929,
      "v": 93
    },
    {
      "midi": 62,
      "hit": false,
      "t": 46928.52450000001,
      "d": 464.2852500000008,
      "v": 98
    },
    {
      "midi": 76,
      "hit": false,
      "t": 47142.809999999976,
      "d": 214.28549999999814,
      "v": 91
    },
    {
      "midi": 76,
      "hit": false,
      "t": 47357.095499999974,
      "d": 8.928562499997497,
      "v": 1
    },
    {
      "midi": 79,
      "hit": false,
      "t": 47357.095499999974,
      "d": 249.9997499999954,
      "v": 99
    },
    {
      "midi": 64,
      "hit": false,
      "t": 47357.0955,
      "d": 17.85712500000227,
      "v": 6
    },
    {
      "midi": 67,
      "hit": false,
      "t": 47357.0955,
      "d": 450.8924062500082,
      "v": 104
    },
    {
      "midi": 72,
      "hit": false,
      "t": 47999.95199999997,
      "d": 89.2856249999968,
      "v": 88
    },
    {
      "midi": 77,
      "hit": false,
      "t": 47999.95199999997,
      "d": 419.6424374999988,
      "v": 98
    },
    {
      "midi": 65,
      "hit": false,
      "t": 47999.95199999997,
      "d": 1455.355687499985,
      "v": 95
    },
    {
      "midi": 60,
      "hit": false,
      "t": 47999.95200000001,
      "d": 160.7141249999986,
      "v": 93
    },
    {
      "midi": 65,
      "hit": false,
      "t": 47999.95200000001,
      "d": 754.4635312499959,
      "v": 103
    },
    {
      "midi": 69,
      "hit": false,
      "t": 48214.23749999997,
      "d": 1044.641812499991,
      "v": 77
    },
    {
      "midi": 57,
      "hit": false,
      "t": 48214.23750000001,
      "d": 1879.4624062500006,
      "v": 82
    },
    {
      "midi": 72,
      "hit": false,
      "t": 48428.522999999965,
      "d": 848.213437499995,
      "v": 93
    },
    {
      "midi": 60,
      "hit": false,
      "t": 48428.52300000001,
      "d": 1526.7841875000013,
      "v": 98
    },
    {
      "midi": 74,
      "hit": false,
      "t": 48642.80849999996,
      "d": 687.4993124999964,
      "v": 89
    },
    {
      "midi": 62,
      "hit": false,
      "t": 48642.80850000001,
      "d": 1236.6059062500062,
      "v": 94
    },
    {
      "midi": 77,
      "hit": false,
      "t": 48857.09399999996,
      "d": 482.1423749999958,
      "v": 93
    },
    {
      "midi": 65,
      "hit": false,
      "t": 48857.09400000001,
      "d": 866.0705624999973,
      "v": 98
    },
    {
      "midi": 79,
      "hit": false,
      "t": 50142.80699999995,
      "d": 330.356812500002,
      "v": 100
    },
    {
      "midi": 83,
      "hit": false,
      "t": 50142.80699999995,
      "d": 330.356812500002,
      "v": 94
    },
    {
      "midi": 74,
      "hit": false,
      "t": 50142.80699999995,
      "d": 339.2853749999995,
      "v": 94
    },
    {
      "midi": 65,
      "hit": false,
      "t": 50142.80699999995,
      "d": 357.14250000000175,
      "v": 87
    },
    {
      "midi": 53,
      "hit": false,
      "t": 50142.80700000001,
      "d": 477.6780937500007,
      "v": 92
    },
    {
      "midi": 67,
      "hit": false,
      "t": 50142.80700000001,
      "d": 593.7494062499973,
      "v": 105
    },
    {
      "midi": 71,
      "hit": false,
      "t": 50142.80700000001,
      "d": 593.7494062499973,
      "v": 99
    },
    {
      "midi": 62,
      "hit": false,
      "t": 50142.80700000001,
      "d": 611.6065312499995,
      "v": 99
    },
    {
      "midi": 81,
      "hit": false,
      "t": 50785.66349999995,
      "d": 160.7141249999986,
      "v": 102
    },
    {
      "midi": 84,
      "hit": false,
      "t": 50785.66349999995,
      "d": 178.57125000000087,
      "v": 98
    },
    {
      "midi": 65,
      "hit": false,
      "t": 50785.66349999995,
      "d": 205.35693750000064,
      "v": 91
    },
    {
      "midi": 76,
      "hit": false,
      "t": 50785.66349999995,
      "d": 205.35693750000064,
      "v": 92
    },
    {
      "midi": 69,
      "hit": false,
      "t": 50785.66350000001,
      "d": 290.17828124999505,
      "v": 107
    },
    {
      "midi": 72,
      "hit": false,
      "t": 50785.66350000001,
      "d": 321.4282499999972,
      "v": 103
    },
    {
      "midi": 64,
      "hit": false,
      "t": 50785.66350000001,
      "d": 370.53534374999435,
      "v": 97
    },
    {
      "midi": 72,
      "hit": false,
      "t": 51428.51999999995,
      "d": 214.28549999999814,
      "v": 98
    },
    {
      "midi": 76,
      "hit": false,
      "t": 51428.51999999995,
      "d": 366.07106249999924,
      "v": 98
    },
    {
      "midi": 60,
      "hit": false,
      "t": 51428.51999999995,
      "d": 1339.2843749999884,
      "v": 93
    },
    {
      "midi": 60,
      "hit": false,
      "t": 51428.520000000004,
      "d": 383.9281875000015,
      "v": 103
    },
    {
      "midi": 64,
      "hit": false,
      "t": 51428.520000000004,
      "d": 660.713625000004,
      "v": 103
    },
    {
      "midi": 48,
      "hit": false,
      "t": 51428.520000000004,
      "d": 2410.7118749999936,
      "v": 98
    },
    {
      "midi": 67,
      "hit": false,
      "t": 51642.80549999995,
      "d": 1107.141749999988,
      "v": 86
    },
    {
      "midi": 72,
      "hit": false,
      "t": 51857.09099999995,
      "d": 910.7133749999921,
      "v": 95
    },
    {
      "midi": 60,
      "hit": false,
      "t": 51857.09100000001,
      "d": 1638.3912187500027,
      "v": 100
    },
    {
      "midi": 74,
      "hit": false,
      "t": 52071.37649999995,
      "d": 241.0711874999979,
      "v": 95
    },
    {
      "midi": 62,
      "hit": false,
      "t": 52071.376500000006,
      "d": 433.03528125000594,
      "v": 100
    },
    {
      "midi": 76,
      "hit": false,
      "t": 52285.661999999946,
      "d": 205.35693750000064,
      "v": 91
    },
    {
      "midi": 64,
      "hit": false,
      "t": 52285.66200000001,
      "d": 370.53534375000163,
      "v": 96
    },
    {
      "midi": 79,
      "hit": false,
      "t": 52499.947499999944,
      "d": 241.0711874999979,
      "v": 100
    },
    {
      "midi": 67,
      "hit": false,
      "t": 52499.94750000001,
      "d": 433.03528125000594,
      "v": 105
    },
    {
      "midi": 76,
      "hit": false,
      "t": 53142.80399999994,
      "d": 321.4282499999972,
      "v": 98
    },
    {
      "midi": 64,
      "hit": false,
      "t": 53142.80399999994,
      "d": 1428.5699999999852,
      "v": 98
    },
    {
      "midi": 64,
      "hit": false,
      "t": 53142.80400000001,
      "d": 580.3565624999901,
      "v": 103
    },
    {
      "midi": 52,
      "hit": false,
      "t": 53142.80400000001,
      "d": 2571.4259999999704,
      "v": 103
    },
    {
      "midi": 67,
      "hit": false,
      "t": 53357.08949999994,
      "d": 883.9276874999923,
      "v": 87
    },
    {
      "midi": 55,
      "hit": false,
      "t": 53357.08950000001,
      "d": 276.78543749999517,
      "v": 92
    },
    {
      "midi": 72,
      "hit": false,
      "t": 53571.374999999935,
      "d": 910.7133749999921,
      "v": 95
    },
    {
      "midi": 74,
      "hit": false,
      "t": 53785.66049999993,
      "d": 241.0711874999979,
      "v": 96
    },
    {
      "midi": 62,
      "hit": false,
      "t": 53785.6605,
      "d": 433.03528124999866,
      "v": 101
    },
    {
      "midi": 76,
      "hit": false,
      "t": 53999.94599999993,
      "d": 205.35693750000064,
      "v": 91
    },
    {
      "midi": 64,
      "hit": false,
      "t": 53999.945999999996,
      "d": 370.53534375000163,
      "v": 96
    },
    {
      "midi": 79,
      "hit": false,
      "t": 54214.23149999993,
      "d": 232.1426250000004,
      "v": 100
    },
    {
      "midi": 67,
      "hit": false,
      "t": 54214.231499999994,
      "d": 419.64243750000605,
      "v": 105
    },
    {
      "midi": 72,
      "hit": false,
      "t": 54857.08799999992,
      "d": 223.21406249999563,
      "v": 97
    },
    {
      "midi": 77,
      "hit": false,
      "t": 54857.08799999992,
      "d": 294.64256249999744,
      "v": 97
    },
    {
      "midi": 65,
      "hit": false,
      "t": 54857.08799999992,
      "d": 1303.5701249999984,
      "v": 95
    },
    {
      "midi": 60,
      "hit": false,
      "t": 54857.087999999996,
      "d": 352.6782187499921,
      "v": 102
    },
    {
      "midi": 65,
      "hit": false,
      "t": 54857.087999999996,
      "d": 531.2494687499857,
      "v": 102
    },
    {
      "midi": 53,
      "hit": false,
      "t": 54857.087999999996,
      "d": 2348.2119374999747,
      "v": 100
    },
    {
      "midi": 69,
      "hit": false,
      "t": 55071.37349999992,
      "d": 553.5708749999976,
      "v": 86
    },
    {
      "midi": 57,
      "hit": false,
      "t": 55071.373499999994,
      "d": 995.5347187499865,
      "v": 91
    },
    {
      "midi": 72,
      "hit": false,
      "t": 55285.65899999992,
      "d": 705.3564374999987,
      "v": 94
    },
    {
      "midi": 60,
      "hit": false,
      "t": 55285.658999999985,
      "d": 1267.8558749999866,
      "v": 99
    },
    {
      "midi": 77,
      "hit": false,
      "t": 55499.94449999992,
      "d": 535.7137500000026,
      "v": 89
    },
    {
      "midi": 65,
      "hit": false,
      "t": 55499.94449999998,
      "d": 964.2847499999916,
      "v": 94
    },
    {
      "midi": 81,
      "hit": false,
      "t": 55714.229999999916,
      "d": 107.14274999999907,
      "v": 93
    },
    {
      "midi": 69,
      "hit": false,
      "t": 55714.22999999998,
      "d": 428.5709999999963,
      "v": 98
    },
    {
      "midi": 78,
      "hit": false,
      "t": 56571.37199999992,
      "d": 232.1426250000004,
      "v": 103
    },
    {
      "midi": 81,
      "hit": false,
      "t": 56571.37199999992,
      "d": 241.0711874999979,
      "v": 100
    },
    {
      "midi": 66,
      "hit": false,
      "t": 56571.37199999992,
      "d": 1464.2842499999897,
      "v": 94
    },
    {
      "midi": 66,
      "hit": false,
      "t": 56571.371999999974,
      "d": 419.6424374999988,
      "v": 108
    },
    {
      "midi": 69,
      "hit": false,
      "t": 56571.371999999974,
      "d": 433.03528124999866,
      "v": 105
    },
    {
      "midi": 54,
      "hit": false,
      "t": 56571.371999999974,
      "d": 2633.9259374999892,
      "v": 99
    },
    {
      "midi": 74,
      "hit": false,
      "t": 56785.65749999992,
      "d": 589.2851249999949,
      "v": 84
    },
    {
      "midi": 62,
      "hit": false,
      "t": 56785.65749999997,
      "d": 1062.4989374999932,
      "v": 89
    },
    {
      "midi": 78,
      "hit": false,
      "t": 56999.94299999992,
      "d": 678.5707499999917,
      "v": 96
    },
    {
      "midi": 81,
      "hit": false,
      "t": 57214.22849999992,
      "d": 241.0711874999979,
      "v": 96
    },
    {
      "midi": 86,
      "hit": false,
      "t": 57428.513999999916,
      "d": 374.99962499999674,
      "v": 98
    },
    {
      "midi": 74,
      "hit": false,
      "t": 57428.51399999997,
      "d": 674.1064687499966,
      "v": 103
    },
    {
      "midi": 81,
      "hit": false,
      "t": 57642.799499999914,
      "d": 276.78543749999517,
      "v": 96
    },
    {
      "midi": 69,
      "hit": false,
      "t": 57642.799499999965,
      "d": 428.5709999999963,
      "v": 101
    },
    {
      "midi": 78,
      "hit": false,
      "t": 57857.08499999991,
      "d": 160.7141249999986,
      "v": 95
    },
    {
      "midi": 66,
      "hit": false,
      "t": 57857.08499999996,
      "d": 290.1782812500023,
      "v": 100
    },
    {
      "midi": 74,
      "hit": false,
      "t": 58071.37049999991,
      "d": 8.928562499997497,
      "v": 1
    },
    {
      "midi": 62,
      "hit": false,
      "t": 58071.37049999996,
      "d": 17.85712500000227,
      "v": 6
    },
    {
      "midi": 76,
      "hit": false,
      "t": 58285.65599999991,
      "d": 214.28549999999814,
      "v": 98
    },
    {
      "midi": 79,
      "hit": false,
      "t": 58285.65599999991,
      "d": 607.1422499999971,
      "v": 99
    },
    {
      "midi": 67,
      "hit": false,
      "t": 58285.65599999991,
      "d": 3142.8539999999775,
      "v": 96
    },
    {
      "midi": 64,
      "hit": false,
      "t": 58285.655999999966,
      "d": 383.9281875000015,
      "v": 103
    },
    {
      "midi": 72,
      "hit": false,
      "t": 58499.941499999906,
      "d": 732.1421249999912,
      "v": 86
    },
    {
      "midi": 76,
      "hit": false,
      "t": 58714.226999999904,
      "d": 446.42812499999854,
      "v": 97
    },
    {
      "midi": 84,
      "hit": false,
      "t": 58928.5124999999,
      "d": 267.8568749999977,
      "v": 102
    },
    {
      "midi": 72,
      "hit": false,
      "t": 58928.51249999997,
      "d": 482.1423749999958,
      "v": 107
    },
    {
      "midi": 79,
      "hit": false,
      "t": 59142.7979999999,
      "d": 437.4995624999938,
      "v": 91
    },
    {
      "midi": 67,
      "hit": false,
      "t": 59142.797999999966,
      "d": 236.60690624999552,
      "v": 96
    },
    {
      "midi": 76,
      "hit": false,
      "t": 59357.0834999999,
      "d": 205.35693750000064,
      "v": 91
    },
    {
      "midi": 64,
      "hit": false,
      "t": 59357.083499999964,
      "d": 160.7141249999986,
      "v": 96
    },
    {
      "midi": 72,
      "hit": false,
      "t": 59571.3689999999,
      "d": 455.35668749999604,
      "v": 91
    },
    {
      "midi": 60,
      "hit": false,
      "t": 59571.36899999996,
      "d": 428.57100000000355,
      "v": 96
    },
    {
      "midi": 72,
      "hit": false,
      "t": 60214.22549999989,
      "d": 785.713499999998,
      "v": 97
    },
    {
      "midi": 60,
      "hit": false,
      "t": 60214.225499999964,
      "d": 178.57125000000087,
      "v": 102
    },
    {
      "midi": 76,
      "hit": false,
      "t": 60428.51099999989,
      "d": 446.42812499999854,
      "v": 97
    },
    {
      "midi": 84,
      "hit": false,
      "t": 60642.79649999989,
      "d": 285.71399999999994,
      "v": 102
    },
    {
      "midi": 72,
      "hit": false,
      "t": 60642.79649999996,
      "d": 513.392343749998,
      "v": 107
    },
    {
      "midi": 79,
      "hit": false,
      "t": 60857.081999999886,
      "d": 419.64243750000605,
      "v": 96
    },
    {
      "midi": 67,
      "hit": false,
      "t": 60857.08199999996,
      "d": 754.4635312499959,
      "v": 101
    },
    {
      "midi": 76,
      "hit": false,
      "t": 61071.36749999989,
      "d": 249.9997499999954,
      "v": 91
    },
    {
      "midi": 64,
      "hit": false,
      "t": 61071.36749999996,
      "d": 160.7141249999986,
      "v": 96
    },
    {
      "midi": 72,
      "hit": false,
      "t": 61285.65299999989,
      "d": 116.07131249999657,
      "v": 97
    },
    {
      "midi": 60,
      "hit": false,
      "t": 61285.652999999955,
      "d": 343.74965625000186,
      "v": 102
    },
    {
      "midi": 74,
      "hit": false,
      "t": 61714.223999999886,
      "d": 249.9997499999954,
      "v": 101
    },
    {
      "midi": 79,
      "hit": false,
      "t": 61714.223999999886,
      "d": 348.213937499997,
      "v": 99
    },
    {
      "midi": 67,
      "hit": false,
      "t": 61714.223999999886,
      "d": 2392.854749999977,
      "v": 98
    },
    {
      "midi": 67,
      "hit": false,
      "t": 61714.22399999995,
      "d": 624.9993749999994,
      "v": 104
    },
    {
      "midi": 55,
      "hit": false,
      "t": 61714.22399999995,
      "d": 2227.676343750005,
      "v": 103
    },
    {
      "midi": 71,
      "hit": false,
      "t": 61928.509499999884,
      "d": 839.2848749999903,
      "v": 84
    },
    {
      "midi": 74,
      "hit": false,
      "t": 62142.79499999988,
      "d": 464.28524999999354,
      "v": 91
    },
    {
      "midi": 62,
      "hit": false,
      "t": 62142.79499999995,
      "d": 428.57100000000355,
      "v": 96
    },
    {
      "midi": 83,
      "hit": false,
      "t": 62357.08049999988,
      "d": 214.28549999999814,
      "v": 99
    },
    {
      "midi": 71,
      "hit": false,
      "t": 62357.08049999995,
      "d": 383.9281875000015,
      "v": 104
    },
    {
      "midi": 79,
      "hit": false,
      "t": 62571.36599999988,
      "d": 428.5709999999963,
      "v": 89
    },
    {
      "midi": 67,
      "hit": false,
      "t": 62571.36599999995,
      "d": 772.3206562500054,
      "v": 94
    },
    {
      "midi": 74,
      "hit": false,
      "t": 62785.651499999876,
      "d": 482.1423749999958,
      "v": 79
    },
    {
      "midi": 62,
      "hit": false,
      "t": 62785.651499999956,
      "d": 191.96409375000076,
      "v": 84
    },
    {
      "midi": 71,
      "hit": false,
      "t": 62999.936999999874,
      "d": 276.78543749999517,
      "v": 84
    },
    {
      "midi": 59,
      "hit": false,
      "t": 62999.936999999954,
      "d": 437.49956250000105,
      "v": 89
    },
    {
      "midi": 71,
      "hit": false,
      "t": 63642.79349999987,
      "d": 499.9994999999908,
      "v": 75
    },
    {
      "midi": 59,
      "hit": false,
      "t": 63642.793499999956,
      "d": 901.7848124999946,
      "v": 80
    },
    {
      "midi": 74,
      "hit": false,
      "t": 63857.07899999987,
      "d": 392.85674999999173,
      "v": 71
    },
    {
      "midi": 62,
      "hit": false,
      "t": 63857.078999999954,
      "d": 705.3564374999987,
      "v": 76
    },
    {
      "midi": 79,
      "hit": false,
      "t": 64071.364499999865,
      "d": 160.71412499999133,
      "v": 82
    },
    {
      "midi": 67,
      "hit": false,
      "t": 64071.36449999995,
      "d": 857.1419999999998,
      "v": 87
    },
    {
      "midi": 62,
      "hit": false,
      "t": 65142.79199999995,
      "d": 785.7135000000053,
      "v": 66
    },
    {
      "midi": 48,
      "hit": false,
      "t": 65142.79199999995,
      "d": 4919.637937500003,
      "v": 87
    },
    {
      "midi": 60,
      "hit": false,
      "t": 65571.36299999995,
      "d": 513.3923437499907,
      "v": 72
    },
    {
      "midi": 64,
      "hit": false,
      "t": 65999.93399999995,
      "d": 642.8564999999944,
      "v": 73
    },
    {
      "midi": 67,
      "hit": false,
      "t": 65999.93399999995,
      "d": 642.8564999999944,
      "v": 76
    },
    {
      "midi": 62,
      "hit": false,
      "t": 65999.93399999995,
      "d": 821.4277500000026,
      "v": 63
    },
    {
      "midi": 60,
      "hit": false,
      "t": 66428.50499999995,
      "d": 383.9281875000015,
      "v": 69
    },
    {
      "midi": 67,
      "hit": false,
      "t": 66857.07599999996,
      "d": 660.7136249999894,
      "v": 85
    },
    {
      "midi": 62,
      "hit": false,
      "t": 66857.07599999996,
      "d": 691.9635937499843,
      "v": 77
    },
    {
      "midi": 64,
      "hit": false,
      "t": 66857.07599999996,
      "d": 741.0706874999887,
      "v": 83
    },
    {
      "midi": 60,
      "hit": false,
      "t": 67285.64699999995,
      "d": 450.89240625000093,
      "v": 74
    },
    {
      "midi": 62,
      "hit": false,
      "t": 67714.21799999995,
      "d": 803.5706250000076,
      "v": 96
    },
    {
      "midi": 64,
      "hit": false,
      "t": 67714.21799999995,
      "d": 803.5706250000076,
      "v": 97
    },
    {
      "midi": 67,
      "hit": false,
      "t": 67714.21799999995,
      "d": 821.4277500000026,
      "v": 99
    },
    {
      "midi": 60,
      "hit": false,
      "t": 68142.78899999996,
      "d": 428.5709999999963,
      "v": 82
    },
    {
      "midi": 59,
      "hit": false,
      "t": 68571.35999999996,
      "d": 785.7135000000126,
      "v": 86
    },
    {
      "midi": 60,
      "hit": false,
      "t": 68571.35999999996,
      "d": 803.5706250000076,
      "v": 90
    },
    {
      "midi": 45,
      "hit": false,
      "t": 68571.35999999996,
      "d": 5513.387343749986,
      "v": 92
    },
    {
      "midi": 57,
      "hit": false,
      "t": 68999.93099999997,
      "d": 499.9994999999908,
      "v": 78
    },
    {
      "midi": 64,
      "hit": false,
      "t": 69428.50199999996,
      "d": 107.14274999999907,
      "v": 93
    },
    {
      "midi": 59,
      "hit": false,
      "t": 69428.50199999996,
      "d": 785.7134999999835,
      "v": 91
    },
    {
      "midi": 60,
      "hit": false,
      "t": 69428.50199999996,
      "d": 821.427749999988,
      "v": 91
    },
    {
      "midi": 57,
      "hit": false,
      "t": 69857.07299999996,
      "d": 482.1423749999958,
      "v": 75
    },
    {
      "midi": 64,
      "hit": false,
      "t": 70285.64399999996,
      "d": 754.4635312500031,
      "v": 84
    },
    {
      "midi": 60,
      "hit": false,
      "t": 70285.64399999996,
      "d": 785.713499999998,
      "v": 84
    },
    {
      "midi": 59,
      "hit": false,
      "t": 70285.64399999996,
      "d": 834.8205937500024,
      "v": 77
    },
    {
      "midi": 57,
      "hit": false,
      "t": 70714.21499999995,
      "d": 433.03528125000594,
      "v": 74
    },
    {
      "midi": 60,
      "hit": false,
      "t": 71142.78599999996,
      "d": 834.8205937500024,
      "v": 94
    },
    {
      "midi": 59,
      "hit": false,
      "t": 71142.78599999996,
      "d": 866.0705625000119,
      "v": 91
    },
    {
      "midi": 64,
      "hit": false,
      "t": 71142.78599999996,
      "d": 883.9276875000069,
      "v": 96
    },
    {
      "midi": 57,
      "hit": false,
      "t": 71999.92799999997,
      "d": 102.6784687499894,
      "v": 83
    },
    {
      "midi": 65,
      "hit": false,
      "t": 71999.92799999997,
      "d": 723.2135624999937,
      "v": 93
    },
    {
      "midi": 57,
      "hit": false,
      "t": 72428.49899999997,
      "d": 428.5709999999963,
      "v": 80
    },
    {
      "midi": 60,
      "hit": false,
      "t": 72857.06999999996,
      "d": 642.8564999999944,
      "v": 87
    },
    {
      "midi": 65,
      "hit": false,
      "t": 72857.06999999996,
      "d": 723.2135624999937,
      "v": 92
    },
    {
      "midi": 57,
      "hit": false,
      "t": 73285.64099999996,
      "d": 513.3923437499907,
      "v": 86
    },
    {
      "midi": 69,
      "hit": false,
      "t": 73714.21199999996,
      "d": 339.2853749999922,
      "v": 104
    },
    {
      "midi": 60,
      "hit": false,
      "t": 73714.21199999996,
      "d": 428.5709999999817,
      "v": 95
    },
    {
      "midi": 57,
      "hit": false,
      "t": 73928.49749999995,
      "d": 544.6423124999856,
      "v": 86
    },
    {
      "midi": 60,
      "hit": false,
      "t": 74142.78299999994,
      "d": 428.5709999999963,
      "v": 90
    },
    {
      "midi": 67,
      "hit": false,
      "t": 74357.06849999994,
      "d": 915.1776562499872,
      "v": 105
    },
    {
      "midi": 53,
      "hit": false,
      "t": 74571.35399999993,
      "d": 1544.6413124999963,
      "v": 89
    },
    {
      "midi": 57,
      "hit": false,
      "t": 74785.63949999993,
      "d": 241.0711874999979,
      "v": 76
    },
    {
      "midi": 60,
      "hit": false,
      "t": 74999.92499999993,
      "d": 428.5709999999963,
      "v": 91
    },
    {
      "midi": 65,
      "hit": false,
      "t": 74999.92499999993,
      "d": 428.5709999999963,
      "v": 98
    },
    {
      "midi": 52,
      "hit": false,
      "t": 75428.49599999993,
      "d": 3035.711249999993,
      "v": 98
    },
    {
      "midi": 55,
      "hit": false,
      "t": 75857.06699999994,
      "d": 580.3565624999901,
      "v": 84
    },
    {
      "midi": 59,
      "hit": false,
      "t": 76285.63799999993,
      "d": 428.5709999999963,
      "v": 93
    },
    {
      "midi": 62,
      "hit": false,
      "t": 76285.63799999993,
      "d": 428.5709999999963,
      "v": 94
    },
    {
      "midi": 55,
      "hit": false,
      "t": 76714.20899999993,
      "d": 593.74940624999,
      "v": 85
    },
    {
      "midi": 59,
      "hit": false,
      "t": 77142.77999999993,
      "d": 214.28549999999814,
      "v": 99
    },
    {
      "midi": 62,
      "hit": false,
      "t": 77142.77999999993,
      "d": 214.28549999999814,
      "v": 97
    },
    {
      "midi": 55,
      "hit": false,
      "t": 77357.06549999992,
      "d": 433.0352812499914,
      "v": 94
    },
    {
      "midi": 62,
      "hit": false,
      "t": 77785.63649999992,
      "d": 531.2494687500002,
      "v": 96
    },
    {
      "midi": 43,
      "hit": false,
      "t": 77999.92199999992,
      "d": 477.6780937500007,
      "v": 93
    },
    {
      "midi": 55,
      "hit": false,
      "t": 78214.20749999992,
      "d": 450.89240625000093,
      "v": 92
    },
    {
      "midi": 57,
      "hit": false,
      "t": 78428.49299999991,
      "d": 303.5711250000022,
      "v": 100
    },
    {
      "midi": 48,
      "hit": false,
      "t": 78857.06399999991,
      "d": 4919.637937500011,
      "v": 100
    },
    {
      "midi": 55,
      "hit": false,
      "t": 79285.63499999991,
      "d": 513.3923437499907,
      "v": 82
    },
    {
      "midi": 60,
      "hit": false,
      "t": 79714.2059999999,
      "d": 303.57112499998766,
      "v": 92
    },
    {
      "midi": 62,
      "hit": false,
      "t": 79714.2059999999,
      "d": 339.2853749999922,
      "v": 93
    },
    {
      "midi": 67,
      "hit": false,
      "t": 79714.2059999999,
      "d": 642.8564999999944,
      "v": 96
    },
    {
      "midi": 60,
      "hit": false,
      "t": 80142.7769999999,
      "d": 214.28549999999814,
      "v": 69
    },
    {
      "midi": 67,
      "hit": false,
      "t": 80571.3479999999,
      "d": 785.713499999998,
      "v": 77
    },
    {
      "midi": 62,
      "hit": false,
      "t": 80571.3479999999,
      "d": 803.570624999993,
      "v": 73
    },
    {
      "midi": 64,
      "hit": false,
      "t": 80571.3479999999,
      "d": 803.570624999993,
      "v": 78
    },
    {
      "midi": 60,
      "hit": false,
      "t": 80999.91899999989,
      "d": 450.89240625000093,
      "v": 73
    },
    {
      "midi": 62,
      "hit": false,
      "t": 81428.48999999989,
      "d": 772.3206562500127,
      "v": 98
    },
    {
      "midi": 64,
      "hit": false,
      "t": 81428.48999999989,
      "d": 772.3206562500127,
      "v": 99
    },
    {
      "midi": 67,
      "hit": false,
      "t": 81428.48999999989,
      "d": 821.4277500000171,
      "v": 102
    },
    {
      "midi": 60,
      "hit": false,
      "t": 82285.63199999991,
      "d": 214.28549999999814,
      "v": 90
    },
    {
      "midi": 59,
      "hit": false,
      "t": 82285.63199999991,
      "d": 821.4277500000026,
      "v": 90
    },
    {
      "midi": 45,
      "hit": false,
      "t": 82285.63199999991,
      "d": 5093.744906250053,
      "v": 87
    },
    {
      "midi": 57,
      "hit": false,
      "t": 82714.2029999999,
      "d": 482.14237500001036,
      "v": 78
    },
    {
      "midi": 64,
      "hit": false,
      "t": 83142.77399999992,
      "d": 89.28562500000407,
      "v": 93
    },
    {
      "midi": 59,
      "hit": false,
      "t": 83142.77399999992,
      "d": 834.8205937500024,
      "v": 90
    },
    {
      "midi": 57,
      "hit": false,
      "t": 83571.34499999993,
      "d": 531.2494687500002,
      "v": 80
    },
    {
      "midi": 60,
      "hit": false,
      "t": 83999.91599999992,
      "d": 642.856500000009,
      "v": 87
    },
    {
      "midi": 64,
      "hit": false,
      "t": 83999.91599999992,
      "d": 642.856500000009,
      "v": 92
    },
    {
      "midi": 59,
      "hit": false,
      "t": 83999.91599999992,
      "d": 772.3206562500127,
      "v": 90
    },
    {
      "midi": 57,
      "hit": false,
      "t": 84428.48699999994,
      "d": 642.8564999999944,
      "v": 73
    },
    {
      "midi": 64,
      "hit": false,
      "t": 84857.05799999993,
      "d": 642.8564999999944,
      "v": 100
    },
    {
      "midi": 59,
      "hit": false,
      "t": 84857.05799999993,
      "d": 772.3206562499981,
      "v": 98
    },
    {
      "midi": 60,
      "hit": false,
      "t": 84857.05799999993,
      "d": 772.3206562499981,
      "v": 97
    },
    {
      "midi": 57,
      "hit": false,
      "t": 85285.62899999993,
      "d": 531.2494687500002,
      "v": 80
    },
    {
      "midi": 65,
      "hit": false,
      "t": 85714.19999999992,
      "d": 834.820593750017,
      "v": 98
    },
    {
      "midi": 57,
      "hit": false,
      "t": 86142.77099999994,
      "d": 544.6423125000147,
      "v": 82
    },
    {
      "midi": 60,
      "hit": false,
      "t": 86571.34199999995,
      "d": 642.856500000009,
      "v": 96
    },
    {
      "midi": 65,
      "hit": false,
      "t": 86571.34199999995,
      "d": 772.3206562500127,
      "v": 97
    },
    {
      "midi": 57,
      "hit": false,
      "t": 86999.91299999996,
      "d": 531.2494687500148,
      "v": 84
    },
    {
      "midi": 60,
      "hit": false,
      "t": 87428.48399999997,
      "d": 428.5709999999963,
      "v": 99
    },
    {
      "midi": 69,
      "hit": false,
      "t": 87428.48399999997,
      "d": 428.5709999999963,
      "v": 104
    },
    {
      "midi": 57,
      "hit": false,
      "t": 87642.76949999997,
      "d": 544.6423125000001,
      "v": 88
    },
    {
      "midi": 60,
      "hit": false,
      "t": 87857.05499999996,
      "d": 428.5709999999963,
      "v": 86
    },
    {
      "midi": 67,
      "hit": false,
      "t": 88071.34049999996,
      "d": 803.570624999993,
      "v": 105
    },
    {
      "midi": 53,
      "hit": false,
      "t": 88285.62599999996,
      "d": 1495.5342187499919,
      "v": 94
    },
    {
      "midi": 57,
      "hit": false,
      "t": 88499.91149999996,
      "d": 209.82121875000303,
      "v": 84
    },
    {
      "midi": 60,
      "hit": false,
      "t": 88714.19699999996,
      "d": 428.5709999999963,
      "v": 92
    },
    {
      "midi": 65,
      "hit": false,
      "t": 88714.19699999996,
      "d": 428.5709999999963,
      "v": 97
    },
    {
      "midi": 67,
      "hit": false,
      "t": 89142.76799999995,
      "d": 803.570624999993,
      "v": 96
    },
    {
      "midi": 59,
      "hit": false,
      "t": 89142.76799999995,
      "d": 852.6777187499974,
      "v": 94
    },
    {
      "midi": 52,
      "hit": false,
      "t": 89142.76799999995,
      "d": 2714.2829999999813,
      "v": 98
    },
    {
      "midi": 55,
      "hit": false,
      "t": 89571.33899999995,
      "d": 499.9994999999908,
      "v": 85
    },
    {
      "midi": 62,
      "hit": false,
      "t": 89999.90999999995,
      "d": 428.5709999999963,
      "v": 98
    },
    {
      "midi": 67,
      "hit": false,
      "t": 89999.90999999995,
      "d": 883.9276874999923,
      "v": 98
    },
    {
      "midi": 55,
      "hit": false,
      "t": 90428.48099999994,
      "d": 482.1423749999958,
      "v": 87
    },
    {
      "midi": 59,
      "hit": false,
      "t": 90857.05199999994,
      "d": 383.9281875000015,
      "v": 102
    },
    {
      "midi": 62,
      "hit": false,
      "t": 90857.05199999994,
      "d": 401.7853124999965,
      "v": 105
    },
    {
      "midi": 55,
      "hit": false,
      "t": 91071.33749999994,
      "d": 419.6424374999915,
      "v": 100
    },
    {
      "midi": 57,
      "hit": false,
      "t": 91499.90849999993,
      "d": 428.5709999999963,
      "v": 105
    },
    {
      "midi": 43,
      "hit": false,
      "t": 91714.19399999993,
      "d": 428.5709999999963,
      "v": 103
    },
    {
      "midi": 55,
      "hit": false,
      "t": 91928.47949999993,
      "d": 428.5709999999963,
      "v": 98
    },
    {
      "midi": 57,
      "hit": false,
      "t": 92142.76499999993,
      "d": 223.2140625000029,
      "v": 105
    },
    {
      "midi": 55,
      "hit": false,
      "t": 92357.05049999992,
      "d": 428.5709999999963,
      "v": 40
    },
    {
      "midi": 72,
      "hit": false,
      "t": 92571.33599999986,
      "d": 241.0711874999979,
      "v": 101
    },
    {
      "midi": 60,
      "hit": false,
      "t": 92571.33599999986,
      "d": 1535.7127499999915,
      "v": 97
    },
    {
      "midi": 48,
      "hit": false,
      "t": 92571.33599999992,
      "d": 2763.3900937499566,
      "v": 102
    },
    {
      "midi": 67,
      "hit": false,
      "t": 92785.62149999986,
      "d": 1196.4273749999993,
      "v": 89
    },
    {
      "midi": 72,
      "hit": false,
      "t": 92999.90699999986,
      "d": 937.4990625000064,
      "v": 96
    },
    {
      "midi": 60,
      "hit": false,
      "t": 92999.90699999992,
      "d": 428.5709999999963,
      "v": 101
    },
    {
      "midi": 74,
      "hit": false,
      "t": 93214.19249999986,
      "d": 276.78543750000244,
      "v": 95
    },
    {
      "midi": 62,
      "hit": false,
      "t": 93214.19249999992,
      "d": 499.9994999999908,
      "v": 100
    },
    {
      "midi": 76,
      "hit": false,
      "t": 93428.47799999986,
      "d": 276.785437500017,
      "v": 91
    },
    {
      "midi": 64,
      "hit": false,
      "t": 93428.47799999992,
      "d": 499.9994999999908,
      "v": 96
    },
    {
      "midi": 79,
      "hit": false,
      "t": 93642.76349999987,
      "d": 294.64256249999744,
      "v": 100
    },
    {
      "midi": 67,
      "hit": false,
      "t": 93642.76349999991,
      "d": 531.2494687499857,
      "v": 105
    },
    {
      "midi": 72,
      "hit": false,
      "t": 94285.61999999985,
      "d": 232.14262499999313,
      "v": 101
    },
    {
      "midi": 64,
      "hit": false,
      "t": 94285.61999999985,
      "d": 1642.855499999976,
      "v": 91
    },
    {
      "midi": 60,
      "hit": false,
      "t": 94285.6199999999,
      "d": 401.7853124999965,
      "v": 106
    },
    {
      "midi": 52,
      "hit": false,
      "t": 94285.6199999999,
      "d": 2955.3541874999937,
      "v": 96
    },
    {
      "midi": 67,
      "hit": false,
      "t": 94499.90549999985,
      "d": 776.7849374999787,
      "v": 88
    },
    {
      "midi": 55,
      "hit": false,
      "t": 94499.90549999989,
      "d": 437.49956250000105,
      "v": 93
    },
    {
      "midi": 72,
      "hit": false,
      "t": 94714.19099999983,
      "d": 910.7133749999921,
      "v": 93
    },
    {
      "midi": 60,
      "hit": false,
      "t": 94714.19099999989,
      "d": 1638.3912187499955,
      "v": 98
    },
    {
      "midi": 74,
      "hit": false,
      "t": 94928.47649999983,
      "d": 303.5711250000022,
      "v": 91
    },
    {
      "midi": 62,
      "hit": false,
      "t": 94928.47649999989,
      "d": 544.6423125000001,
      "v": 96
    },
    {
      "midi": 76,
      "hit": false,
      "t": 95142.76199999983,
      "d": 258.9283124999929,
      "v": 86
    },
    {
      "midi": 64,
      "hit": false,
      "t": 95142.76199999989,
      "d": 464.2852500000008,
      "v": 91
    },
    {
      "midi": 79,
      "hit": false,
      "t": 95357.04749999983,
      "d": 232.14262499999313,
      "v": 100
    },
    {
      "midi": 67,
      "hit": false,
      "t": 95357.04749999988,
      "d": 419.64243750000605,
      "v": 105
    },
    {
      "midi": 77,
      "hit": false,
      "t": 95999.90399999982,
      "d": 366.07106249999197,
      "v": 96
    },
    {
      "midi": 65,
      "hit": false,
      "t": 95999.90399999982,
      "d": 1607.1412500000006,
      "v": 98
    },
    {
      "midi": 65,
      "hit": false,
      "t": 95999.9039999999,
      "d": 660.7136249999894,
      "v": 101
    },
    {
      "midi": 53,
      "hit": false,
      "t": 95999.9039999999,
      "d": 2892.8542499999894,
      "v": 103
    },
    {
      "midi": 69,
      "hit": false,
      "t": 96214.18949999982,
      "d": 1116.0703124999854,
      "v": 77
    },
    {
      "midi": 57,
      "hit": false,
      "t": 96214.18949999989,
      "d": 2008.9265624999825,
      "v": 82
    },
    {
      "midi": 72,
      "hit": false,
      "t": 96428.47499999982,
      "d": 910.7133749999921,
      "v": 87
    },
    {
      "midi": 60,
      "hit": false,
      "t": 96428.47499999989,
      "d": 1638.3912187499955,
      "v": 92
    },
    {
      "midi": 74,
      "hit": false,
      "t": 96642.76049999981,
      "d": 732.1421249999985,
      "v": 89
    },
    {
      "midi": 62,
      "hit": false,
      "t": 96642.76049999989,
      "d": 1316.9629687499983,
      "v": 94
    },
    {
      "midi": 77,
      "hit": false,
      "t": 96857.04599999981,
      "d": 62.49993750000431,
      "v": 64
    },
    {
      "midi": 77,
      "hit": false,
      "t": 97071.33149999981,
      "d": 312.499687500007,
      "v": 95
    },
    {
      "midi": 65,
      "hit": false,
      "t": 97071.33149999988,
      "d": 214.28549999999814,
      "v": 100
    },
    {
      "midi": 74,
      "hit": false,
      "t": 98142.75899999982,
      "d": 383.9281875000015,
      "v": 99
    },
    {
      "midi": 79,
      "hit": false,
      "t": 98142.75899999982,
      "d": 392.8567500000063,
      "v": 104
    },
    {
      "midi": 83,
      "hit": false,
      "t": 98142.75899999982,
      "d": 401.78531250001106,
      "v": 101
    },
    {
      "midi": 67,
      "hit": false,
      "t": 98142.75899999982,
      "d": 437.4995625000156,
      "v": 97
    },
    {
      "midi": 62,
      "hit": false,
      "t": 98142.75899999987,
      "d": 691.9635937500134,
      "v": 104
    },
    {
      "midi": 67,
      "hit": false,
      "t": 98142.75899999987,
      "d": 705.3564375000133,
      "v": 109
    },
    {
      "midi": 71,
      "hit": false,
      "t": 98142.75899999987,
      "d": 723.2135625000083,
      "v": 106
    },
    {
      "midi": 55,
      "hit": false,
      "t": 98142.75899999987,
      "d": 785.7135000000126,
      "v": 102
    },
    {
      "midi": 81,
      "hit": false,
      "t": 98785.61549999984,
      "d": 178.5712499999936,
      "v": 100
    },
    {
      "midi": 84,
      "hit": false,
      "t": 98785.61549999984,
      "d": 187.49981249999837,
      "v": 99
    },
    {
      "midi": 76,
      "hit": false,
      "t": 98785.61549999984,
      "d": 196.42837500000314,
      "v": 96
    },
    {
      "midi": 69,
      "hit": false,
      "t": 98785.61549999984,
      "d": 205.35693750000792,
      "v": 91
    },
    {
      "midi": 57,
      "hit": false,
      "t": 98785.61549999988,
      "d": 428.5710000000108,
      "v": 96
    },
    {
      "midi": 64,
      "hit": false,
      "t": 98785.61549999988,
      "d": 428.5710000000108,
      "v": 101
    },
    {
      "midi": 69,
      "hit": false,
      "t": 98785.61549999988,
      "d": 428.5710000000108,
      "v": 105
    },
    {
      "midi": 72,
      "hit": false,
      "t": 98785.61549999988,
      "d": 428.5710000000108,
      "v": 104
    },
    {
      "midi": 76,
      "hit": false,
      "t": 99428.47199999985,
      "d": 312.49968749999243,
      "v": 101
    },
    {
      "midi": 60,
      "hit": false,
      "t": 99428.47199999985,
      "d": 1392.855749999988,
      "v": 95
    },
    {
      "midi": 64,
      "hit": false,
      "t": 99428.47199999989,
      "d": 562.4994374999951,
      "v": 106
    },
    {
      "midi": 48,
      "hit": false,
      "t": 99428.47199999989,
      "d": 2508.9260625000024,
      "v": 100
    },
    {
      "midi": 67,
      "hit": false,
      "t": 99642.75749999985,
      "d": 1142.8559999999852,
      "v": 87
    },
    {
      "midi": 72,
      "hit": false,
      "t": 99857.04299999985,
      "d": 937.4990624999919,
      "v": 94
    },
    {
      "midi": 60,
      "hit": false,
      "t": 99857.04299999989,
      "d": 1687.4983124999999,
      "v": 99
    },
    {
      "midi": 74,
      "hit": false,
      "t": 100071.32849999984,
      "d": 249.99975000000268,
      "v": 95
    },
    {
      "midi": 62,
      "hit": false,
      "t": 100071.32849999989,
      "d": 450.89240625000093,
      "v": 100
    },
    {
      "midi": 76,
      "hit": false,
      "t": 100285.61399999984,
      "d": 196.42837500000314,
      "v": 91
    },
    {
      "midi": 64,
      "hit": false,
      "t": 100285.61399999988,
      "d": 352.67821875000664,
      "v": 96
    },
    {
      "midi": 79,
      "hit": false,
      "t": 100499.89949999984,
      "d": 258.9283124999929,
      "v": 98
    },
    {
      "midi": 67,
      "hit": false,
      "t": 100499.89949999988,
      "d": 464.28525000001537,
      "v": 103
    },
    {
      "midi": 76,
      "hit": false,
      "t": 101142.75599999983,
      "d": 321.4282499999972,
      "v": 98
    },
    {
      "midi": 64,
      "hit": false,
      "t": 101142.75599999983,
      "d": 1419.6414375000022,
      "v": 98
    },
    {
      "midi": 64,
      "hit": false,
      "t": 101142.75599999989,
      "d": 580.3565625000047,
      "v": 103
    },
    {
      "midi": 52,
      "hit": false,
      "t": 101142.75599999989,
      "d": 2553.5688749999827,
      "v": 103
    },
    {
      "midi": 67,
      "hit": false,
      "t": 101357.04149999983,
      "d": 1080.35606250001,
      "v": 89
    },
    {
      "midi": 55,
      "hit": false,
      "t": 101357.04149999989,
      "d": 343.74965625000186,
      "v": 94
    },
    {
      "midi": 72,
      "hit": false,
      "t": 101571.32699999983,
      "d": 919.6419375000114,
      "v": 95
    },
    {
      "midi": 74,
      "hit": false,
      "t": 101785.61249999983,
      "d": 258.92831250000745,
      "v": 93
    },
    {
      "midi": 62,
      "hit": false,
      "t": 101785.6124999999,
      "d": 464.2852500000008,
      "v": 98
    },
    {
      "midi": 76,
      "hit": false,
      "t": 101999.89799999983,
      "d": 214.2855000000127,
      "v": 91
    },
    {
      "midi": 76,
      "hit": false,
      "t": 102214.18349999984,
      "d": 8.928562500004773,
      "v": 1
    },
    {
      "midi": 79,
      "hit": false,
      "t": 102214.18349999984,
      "d": 249.99975000000268,
      "v": 99
    },
    {
      "midi": 64,
      "hit": false,
      "t": 102214.1834999999,
      "d": 169.64268750000338,
      "v": 6
    },
    {
      "midi": 67,
      "hit": false,
      "t": 102214.1834999999,
      "d": 450.89240625000093,
      "v": 104
    },
    {
      "midi": 72,
      "hit": false,
      "t": 102857.03999999983,
      "d": 89.28562500000407,
      "v": 88
    },
    {
      "midi": 77,
      "hit": false,
      "t": 102857.03999999983,
      "d": 419.6424374999915,
      "v": 98
    },
    {
      "midi": 65,
      "hit": false,
      "t": 102857.03999999983,
      "d": 1455.3556874999922,
      "v": 95
    },
    {
      "midi": 60,
      "hit": false,
      "t": 102857.03999999989,
      "d": 160.7141249999986,
      "v": 93
    },
    {
      "midi": 65,
      "hit": false,
      "t": 102857.03999999989,
      "d": 754.4635312499886,
      "v": 103
    },
    {
      "midi": 69,
      "hit": false,
      "t": 103071.32549999983,
      "d": 1044.641812499991,
      "v": 77
    },
    {
      "midi": 57,
      "hit": false,
      "t": 103071.32549999989,
      "d": 1879.4624062499788,
      "v": 82
    },
    {
      "midi": 72,
      "hit": false,
      "t": 103285.61099999983,
      "d": 848.2134374999878,
      "v": 93
    },
    {
      "midi": 60,
      "hit": false,
      "t": 103285.61099999989,
      "d": 1526.7841874999867,
      "v": 98
    },
    {
      "midi": 74,
      "hit": false,
      "t": 103499.89649999983,
      "d": 687.4993124999892,
      "v": 89
    },
    {
      "midi": 62,
      "hit": false,
      "t": 103499.89649999989,
      "d": 1236.6059062499844,
      "v": 94
    },
    {
      "midi": 77,
      "hit": false,
      "t": 103714.18199999983,
      "d": 482.1423749999958,
      "v": 93
    },
    {
      "midi": 65,
      "hit": false,
      "t": 103714.18199999987,
      "d": 866.0705624999973,
      "v": 98
    },
    {
      "midi": 79,
      "hit": false,
      "t": 104999.89499999983,
      "d": 330.356812500002,
      "v": 100
    },
    {
      "midi": 83,
      "hit": false,
      "t": 104999.89499999983,
      "d": 330.356812500002,
      "v": 94
    },
    {
      "midi": 74,
      "hit": false,
      "t": 104999.89499999983,
      "d": 339.28537500000675,
      "v": 94
    },
    {
      "midi": 65,
      "hit": false,
      "t": 104999.89499999983,
      "d": 357.14250000000175,
      "v": 87
    },
    {
      "midi": 53,
      "hit": false,
      "t": 104999.89499999987,
      "d": 477.6780937500007,
      "v": 92
    },
    {
      "midi": 67,
      "hit": false,
      "t": 104999.89499999987,
      "d": 593.7494062500045,
      "v": 105
    },
    {
      "midi": 71,
      "hit": false,
      "t": 104999.89499999987,
      "d": 593.7494062500045,
      "v": 99
    },
    {
      "midi": 62,
      "hit": false,
      "t": 104999.89499999987,
      "d": 611.6065312499995,
      "v": 99
    },
    {
      "midi": 81,
      "hit": false,
      "t": 105642.75149999984,
      "d": 160.7141249999986,
      "v": 102
    },
    {
      "midi": 84,
      "hit": false,
      "t": 105642.75149999984,
      "d": 178.5712499999936,
      "v": 98
    },
    {
      "midi": 65,
      "hit": false,
      "t": 105642.75149999984,
      "d": 205.35693749999336,
      "v": 91
    },
    {
      "midi": 76,
      "hit": false,
      "t": 105642.75149999984,
      "d": 205.35693749999336,
      "v": 92
    },
    {
      "midi": 69,
      "hit": false,
      "t": 105642.75149999987,
      "d": 290.1782812500023,
      "v": 107
    },
    {
      "midi": 72,
      "hit": false,
      "t": 105642.75149999987,
      "d": 321.4282499999972,
      "v": 103
    },
    {
      "midi": 64,
      "hit": false,
      "t": 105642.75149999987,
      "d": 370.53534375000163,
      "v": 97
    },
    {
      "midi": 72,
      "hit": false,
      "t": 106285.60799999983,
      "d": 214.28549999999814,
      "v": 98
    },
    {
      "midi": 76,
      "hit": false,
      "t": 106285.60799999983,
      "d": 366.07106249999197,
      "v": 98
    },
    {
      "midi": 60,
      "hit": false,
      "t": 106285.60799999983,
      "d": 1339.284375000003,
      "v": 93
    },
    {
      "midi": 60,
      "hit": false,
      "t": 106285.60799999986,
      "d": 383.9281875000015,
      "v": 103
    },
    {
      "midi": 64,
      "hit": false,
      "t": 106285.60799999986,
      "d": 660.7136249999894,
      "v": 103
    },
    {
      "midi": 48,
      "hit": false,
      "t": 106285.60799999986,
      "d": 2410.7118749999936,
      "v": 98
    },
    {
      "midi": 67,
      "hit": false,
      "t": 106499.89349999983,
      "d": 1107.1417500000098,
      "v": 86
    },
    {
      "midi": 72,
      "hit": false,
      "t": 106714.17899999983,
      "d": 910.7133750000066,
      "v": 95
    },
    {
      "midi": 60,
      "hit": false,
      "t": 106714.17899999986,
      "d": 1638.391218749981,
      "v": 100
    },
    {
      "midi": 74,
      "hit": false,
      "t": 106928.46449999983,
      "d": 241.0711874999979,
      "v": 95
    },
    {
      "midi": 62,
      "hit": false,
      "t": 106928.46449999986,
      "d": 433.0352812499914,
      "v": 100
    },
    {
      "midi": 76,
      "hit": false,
      "t": 107142.74999999983,
      "d": 205.35693750000792,
      "v": 91
    },
    {
      "midi": 64,
      "hit": false,
      "t": 107142.74999999985,
      "d": 370.5353437499871,
      "v": 96
    },
    {
      "midi": 79,
      "hit": false,
      "t": 107357.03549999984,
      "d": 241.0711874999979,
      "v": 100
    },
    {
      "midi": 67,
      "hit": false,
      "t": 107357.03549999985,
      "d": 433.0352812499914,
      "v": 105
    },
    {
      "midi": 64,
      "hit": false,
      "t": 107999.89199999985,
      "d": 580.3565625000047,
      "v": 103
    },
    {
      "midi": 52,
      "hit": false,
      "t": 107999.89199999985,
      "d": 2571.4260000000068,
      "v": 103
    },
    {
      "midi": 76,
      "hit": false,
      "t": 107999.89199999985,
      "d": 321.4282499999972,
      "v": 98
    },
    {
      "midi": 64,
      "hit": false,
      "t": 107999.89199999985,
      "d": 1428.570000000007,
      "v": 98
    },
    {
      "midi": 55,
      "hit": false,
      "t": 108214.17749999985,
      "d": 276.78543750000244,
      "v": 92
    },
    {
      "midi": 67,
      "hit": false,
      "t": 108214.17749999985,
      "d": 883.9276875000069,
      "v": 87
    },
    {
      "midi": 72,
      "hit": false,
      "t": 108428.46299999984,
      "d": 910.7133750000066,
      "v": 95
    },
    {
      "midi": 74,
      "hit": false,
      "t": 108642.74849999984,
      "d": 241.0711874999979,
      "v": 96
    },
    {
      "midi": 62,
      "hit": false,
      "t": 108642.74849999986,
      "d": 433.0352812499914,
      "v": 101
    },
    {
      "midi": 76,
      "hit": false,
      "t": 108857.03399999984,
      "d": 205.35693750000792,
      "v": 91
    },
    {
      "midi": 64,
      "hit": false,
      "t": 108857.03399999985,
      "d": 370.5353437499871,
      "v": 96
    },
    {
      "midi": 67,
      "hit": false,
      "t": 109071.31949999985,
      "d": 419.6424374999915,
      "v": 105
    },
    {
      "midi": 79,
      "hit": false,
      "t": 109071.31949999985,
      "d": 232.14262499999313,
      "v": 100
    },
    {
      "midi": 60,
      "hit": false,
      "t": 109714.17599999985,
      "d": 352.67821875000664,
      "v": 102
    },
    {
      "midi": 65,
      "hit": false,
      "t": 109714.17599999985,
      "d": 531.2494687500148,
      "v": 102
    },
    {
      "midi": 53,
      "hit": false,
      "t": 109714.17599999985,
      "d": 2348.211937500004,
      "v": 100
    },
    {
      "midi": 72,
      "hit": false,
      "t": 109714.17599999986,
      "d": 223.2140625000029,
      "v": 97
    },
    {
      "midi": 77,
      "hit": false,
      "t": 109714.17599999986,
      "d": 294.64256249999744,
      "v": 97
    },
    {
      "midi": 65,
      "hit": false,
      "t": 109714.17599999986,
      "d": 1303.5701249999838,
      "v": 95
    },
    {
      "midi": 57,
      "hit": false,
      "t": 109928.46149999984,
      "d": 995.5347187500156,
      "v": 91
    },
    {
      "midi": 69,
      "hit": false,
      "t": 109928.46149999986,
      "d": 553.5708749999903,
      "v": 86
    },
    {
      "midi": 60,
      "hit": false,
      "t": 110142.74699999986,
      "d": 1267.8558750000084,
      "v": 99
    },
    {
      "midi": 72,
      "hit": false,
      "t": 110142.74699999986,
      "d": 705.3564374999987,
      "v": 94
    },
    {
      "midi": 65,
      "hit": false,
      "t": 110357.03249999986,
      "d": 964.2847500000062,
      "v": 94
    },
    {
      "midi": 77,
      "hit": false,
      "t": 110357.03249999986,
      "d": 535.7137499999953,
      "v": 89
    },
    {
      "midi": 69,
      "hit": false,
      "t": 110571.31799999985,
      "d": 428.5710000000108,
      "v": 98
    },
    {
      "midi": 81,
      "hit": false,
      "t": 110571.31799999985,
      "d": 107.14274999999907,
      "v": 93
    },
    {
      "midi": 78,
      "hit": false,
      "t": 111428.45999999985,
      "d": 232.14262499999313,
      "v": 103
    },
    {
      "midi": 81,
      "hit": false,
      "t": 111428.45999999985,
      "d": 241.0711874999979,
      "v": 100
    },
    {
      "midi": 66,
      "hit": false,
      "t": 111428.45999999985,
      "d": 1464.2842499999824,
      "v": 94
    },
    {
      "midi": 66,
      "hit": false,
      "t": 111428.45999999986,
      "d": 419.6424374999915,
      "v": 108
    },
    {
      "midi": 69,
      "hit": false,
      "t": 111428.45999999986,
      "d": 433.0352812499914,
      "v": 105
    },
    {
      "midi": 54,
      "hit": false,
      "t": 111428.45999999986,
      "d": 2633.9259374999674,
      "v": 99
    },
    {
      "midi": 74,
      "hit": false,
      "t": 111642.74549999984,
      "d": 589.2851249999949,
      "v": 84
    },
    {
      "midi": 62,
      "hit": false,
      "t": 111642.74549999986,
      "d": 1062.498937499986,
      "v": 89
    },
    {
      "midi": 78,
      "hit": false,
      "t": 111857.03099999984,
      "d": 678.570749999999,
      "v": 96
    },
    {
      "midi": 81,
      "hit": false,
      "t": 112071.31649999984,
      "d": 241.0711874999979,
      "v": 96
    },
    {
      "midi": 86,
      "hit": false,
      "t": 112285.60199999984,
      "d": 374.99962499999674,
      "v": 98
    },
    {
      "midi": 74,
      "hit": false,
      "t": 112285.60199999985,
      "d": 674.1064687499893,
      "v": 103
    },
    {
      "midi": 81,
      "hit": false,
      "t": 112499.88749999984,
      "d": 276.78543750000244,
      "v": 96
    },
    {
      "midi": 69,
      "hit": false,
      "t": 112499.88749999985,
      "d": 428.5709999999963,
      "v": 101
    },
    {
      "midi": 78,
      "hit": false,
      "t": 112714.17299999984,
      "d": 160.7141249999986,
      "v": 95
    },
    {
      "midi": 66,
      "hit": false,
      "t": 112714.17299999985,
      "d": 290.1782812499878,
      "v": 100
    },
    {
      "midi": 74,
      "hit": false,
      "t": 112928.45849999983,
      "d": 8.928562500004773,
      "v": 1
    },
    {
      "midi": 62,
      "hit": false,
      "t": 112928.45849999985,
      "d": 428.5709999999817,
      "v": 6
    },
    {
      "midi": 64,
      "hit": false,
      "t": 113142.74399999983,
      "d": 383.9281875000015,
      "v": 103
    },
    {
      "midi": 76,
      "hit": false,
      "t": 113142.74399999983,
      "d": 214.28549999999814,
      "v": 98
    },
    {
      "midi": 79,
      "hit": false,
      "t": 113142.74399999983,
      "d": 607.1422499999899,
      "v": 99
    },
    {
      "midi": 67,
      "hit": false,
      "t": 113142.74399999983,
      "d": 3142.8539999999775,
      "v": 96
    },
    {
      "midi": 72,
      "hit": false,
      "t": 113357.02949999983,
      "d": 732.1421249999985,
      "v": 86
    },
    {
      "midi": 76,
      "hit": false,
      "t": 113571.31499999983,
      "d": 446.42812499999127,
      "v": 97
    },
    {
      "midi": 72,
      "hit": false,
      "t": 113785.60049999983,
      "d": 482.1423749999958,
      "v": 107
    },
    {
      "midi": 84,
      "hit": false,
      "t": 113785.60049999983,
      "d": 267.8568749999977,
      "v": 102
    },
    {
      "midi": 67,
      "hit": false,
      "t": 113999.88599999982,
      "d": 267.8568749999977,
      "v": 96
    },
    {
      "midi": 79,
      "hit": false,
      "t": 113999.88599999982,
      "d": 437.49956250000105,
      "v": 91
    },
    {
      "midi": 64,
      "hit": false,
      "t": 114214.17149999982,
      "d": 267.8568749999977,
      "v": 96
    },
    {
      "midi": 76,
      "hit": false,
      "t": 114214.17149999982,
      "d": 205.35693749999336,
      "v": 91
    },
    {
      "midi": 60,
      "hit": false,
      "t": 114428.45699999982,
      "d": 267.8568749999977,
      "v": 96
    },
    {
      "midi": 72,
      "hit": false,
      "t": 114428.45699999982,
      "d": 455.3566875000106,
      "v": 91
    },
    {
      "midi": 60,
      "hit": false,
      "t": 115071.31349999981,
      "d": 267.8568749999977,
      "v": 102
    },
    {
      "midi": 72,
      "hit": false,
      "t": 115071.31349999983,
      "d": 785.7134999999835,
      "v": 97
    },
    {
      "midi": 76,
      "hit": false,
      "t": 115285.59899999983,
      "d": 446.42812499999127,
      "v": 97
    },
    {
      "midi": 72,
      "hit": false,
      "t": 115499.88449999981,
      "d": 513.3923437499907,
      "v": 107
    },
    {
      "midi": 84,
      "hit": false,
      "t": 115499.88449999983,
      "d": 285.71399999999267,
      "v": 102
    },
    {
      "midi": 67,
      "hit": false,
      "t": 115714.16999999981,
      "d": 754.4635312500031,
      "v": 101
    },
    {
      "midi": 79,
      "hit": false,
      "t": 115714.16999999982,
      "d": 419.64243749997695,
      "v": 96
    },
    {
      "midi": 64,
      "hit": false,
      "t": 115928.4554999998,
      "d": 160.7141249999986,
      "v": 96
    },
    {
      "midi": 76,
      "hit": false,
      "t": 115928.4554999998,
      "d": 249.99975000000268,
      "v": 91
    },
    {
      "midi": 60,
      "hit": false,
      "t": 116142.7409999998,
      "d": 209.82121875000303,
      "v": 102
    },
    {
      "midi": 72,
      "hit": false,
      "t": 116142.7409999998,
      "d": 116.07131250000384,
      "v": 97
    },
    {
      "midi": 71,
      "hit": false,
      "t": 116571.31199999982,
      "d": 624.9993749999994,
      "v": 102
    },
    {
      "midi": 55,
      "hit": false,
      "t": 116571.31199999982,
      "d": 2227.6763437499903,
      "v": 96
    },
    {
      "midi": 74,
      "hit": false,
      "t": 116571.31199999982,
      "d": 249.99975000000268,
      "v": 101
    },
    {
      "midi": 83,
      "hit": false,
      "t": 116571.31199999982,
      "d": 348.213937499997,
      "v": 97
    },
    {
      "midi": 67,
      "hit": false,
      "t": 116571.31199999982,
      "d": 2526.783187499983,
      "v": 91
    },
    {
      "midi": 67,
      "hit": false,
      "t": 116785.59749999981,
      "d": 419.64243750000605,
      "v": 94
    },
    {
      "midi": 79,
      "hit": false,
      "t": 116785.59749999981,
      "d": 232.14262499999313,
      "v": 89
    },
    {
      "midi": 62,
      "hit": false,
      "t": 116999.88299999981,
      "d": 428.5710000000108,
      "v": 82
    },
    {
      "midi": 74,
      "hit": false,
      "t": 116999.88299999981,
      "d": 464.2852500000008,
      "v": 77
    },
    {
      "midi": 79,
      "hit": false,
      "t": 117214.16849999981,
      "d": 669.6421874999942,
      "v": 84
    },
    {
      "midi": 83,
      "hit": false,
      "t": 117428.45399999981,
      "d": 249.99975000000268,
      "v": 87
    },
    {
      "midi": 86,
      "hit": false,
      "t": 117642.7394999998,
      "d": 249.99975000000268,
      "v": 96
    },
    {
      "midi": 74,
      "hit": false,
      "t": 117642.73949999982,
      "d": 450.89240625000093,
      "v": 101
    },
    {
      "midi": 83,
      "hit": false,
      "t": 117857.0249999998,
      "d": 482.1423749999958,
      "v": 86
    },
    {
      "midi": 71,
      "hit": false,
      "t": 117857.02499999982,
      "d": 428.5709999999963,
      "v": 91
    },
    {
      "midi": 79,
      "hit": false,
      "t": 118071.3104999998,
      "d": 241.0711874999979,
      "v": 87
    },
    {
      "midi": 67,
      "hit": false,
      "t": 118071.31049999982,
      "d": 348.213937499997,
      "v": 92
    },
    {
      "midi": 74,
      "hit": false,
      "t": 118285.5959999998,
      "d": 348.213937499997,
      "v": 86
    },
    {
      "midi": 62,
      "hit": false,
      "t": 118285.59599999982,
      "d": 624.9993749999849,
      "v": 91
    },
    {
      "midi": 79,
      "hit": false,
      "t": 118499.8814999998,
      "d": 312.49968749999243,
      "v": 82
    },
    {
      "midi": 67,
      "hit": false,
      "t": 118499.88149999981,
      "d": 428.5709999999817,
      "v": 87
    },
    {
      "midi": 83,
      "hit": false,
      "t": 118714.1669999998,
      "d": 303.5711250000022,
      "v": 91
    },
    {
      "midi": 71,
      "hit": false,
      "t": 118714.16699999981,
      "d": 428.5709999999817,
      "v": 96
    },
    {
      "midi": 62,
      "hit": false,
      "t": 118928.4524999998,
      "d": 428.5709999999963,
      "v": 74
    },
    {
      "midi": 74,
      "hit": false,
      "t": 118928.4524999998,
      "d": 116.07131250000384,
      "v": 69
    },
    {
      "midi": 56,
      "hit": false,
      "t": 119357.02349999979,
      "d": 642.8564999999944,
      "v": 103
    },
    {
      "midi": 68,
      "hit": false,
      "t": 119357.02349999979,
      "d": 642.8564999999944,
      "v": 107
    },
    {
      "midi": 71,
      "hit": false,
      "t": 119357.02349999979,
      "d": 642.8564999999944,
      "v": 102
    },
    {
      "midi": 68,
      "hit": false,
      "t": 119357.0234999998,
      "d": 526.7851875000051,
      "v": 98
    },
    {
      "midi": 80,
      "hit": false,
      "t": 119357.0234999998,
      "d": 544.6423125000001,
      "v": 102
    },
    {
      "midi": 83,
      "hit": false,
      "t": 119357.0234999998,
      "d": 544.6423125000001,
      "v": 97
    },
    {
      "midi": 60,
      "hit": false,
      "t": 119999.87999999979,
      "d": 995.534718750001,
      "v": 99
    },
    {
      "midi": 64,
      "hit": false,
      "t": 119999.87999999979,
      "d": 1124.9988750000048,
      "v": 101
    },
    {
      "midi": 69,
      "hit": false,
      "t": 119999.87999999979,
      "d": 1142.8559999999998,
      "v": 98
    },
    {
      "midi": 72,
      "hit": false,
      "t": 119999.87999999979,
      "d": 1142.8559999999998,
      "v": 95
    },
    {
      "midi": 57,
      "hit": false,
      "t": 119999.87999999979,
      "d": 1303.5701249999984,
      "v": 103
    },
    {
      "midi": 72,
      "hit": false,
      "t": 119999.8799999998,
      "d": 553.5708750000049,
      "v": 94
    },
    {
      "midi": 76,
      "hit": false,
      "t": 119999.8799999998,
      "d": 624.9993749999994,
      "v": 96
    },
    {
      "midi": 81,
      "hit": false,
      "t": 119999.8799999998,
      "d": 633.9279375000042,
      "v": 93
    },
    {
      "midi": 84,
      "hit": false,
      "t": 119999.8799999998,
      "d": 633.9279375000042,
      "v": 90
    },
    {
      "midi": 69,
      "hit": false,
      "t": 119999.8799999998,
      "d": 723.2135625000083,
      "v": 98
    },
    {
      "midi": 62,
      "hit": false,
      "t": 121285.59299999979,
      "d": 642.8564999999944,
      "v": 98
    },
    {
      "midi": 67,
      "hit": false,
      "t": 121285.59299999979,
      "d": 674.1064687499893,
      "v": 103
    },
    {
      "midi": 71,
      "hit": false,
      "t": 121285.59299999979,
      "d": 674.1064687499893,
      "v": 102
    },
    {
      "midi": 55,
      "hit": false,
      "t": 121285.59299999979,
      "d": 772.3206562499836,
      "v": 97
    },
    {
      "midi": 74,
      "hit": false,
      "t": 121285.5929999998,
      "d": 357.14250000000175,
      "v": 93
    },
    {
      "midi": 79,
      "hit": false,
      "t": 121285.5929999998,
      "d": 374.99962499999674,
      "v": 98
    },
    {
      "midi": 83,
      "hit": false,
      "t": 121285.5929999998,
      "d": 374.99962499999674,
      "v": 97
    },
    {
      "midi": 67,
      "hit": false,
      "t": 121285.5929999998,
      "d": 428.5709999999963,
      "v": 92
    },
    {
      "midi": 69,
      "hit": false,
      "t": 121714.16399999979,
      "d": 1736.6054062500043,
      "v": 101
    },
    {
      "midi": 65,
      "hit": false,
      "t": 121714.16399999979,
      "d": 1767.8553749999992,
      "v": 99
    },
    {
      "midi": 53,
      "hit": false,
      "t": 121714.16399999979,
      "d": 1848.2124374999985,
      "v": 101
    },
    {
      "midi": 60,
      "hit": false,
      "t": 121714.16399999979,
      "d": 1910.7123750000028,
      "v": 97
    },
    {
      "midi": 81,
      "hit": false,
      "t": 121714.1639999998,
      "d": 964.2847500000062,
      "v": 96
    },
    {
      "midi": 77,
      "hit": false,
      "t": 121714.1639999998,
      "d": 982.1418750000012,
      "v": 94
    },
    {
      "midi": 65,
      "hit": false,
      "t": 121714.1639999998,
      "d": 1026.784687499996,
      "v": 96
    },
    {
      "midi": 72,
      "hit": false,
      "t": 121714.1639999998,
      "d": 1062.4989375000005,
      "v": 92
    },
    {
      "midi": 64,
      "hit": false,
      "t": 123428.44799999979,
      "d": 1334.8200937500078,
      "v": 100
    },
    {
      "midi": 48,
      "hit": false,
      "t": 123428.44799999979,
      "d": 2522.3189062500023,
      "v": 98
    },
    {
      "midi": 76,
      "hit": false,
      "t": 123428.4479999998,
      "d": 741.0706875000033,
      "v": 95
    },
    {
      "midi": 79,
      "hit": false,
      "t": 123428.4479999998,
      "d": 767.856375000003,
      "v": 99
    },
    {
      "midi": 60,
      "hit": false,
      "t": 123428.4479999998,
      "d": 1401.7843125000072,
      "v": 93
    },
    {
      "midi": 67,
      "hit": false,
      "t": 124499.87549999979,
      "d": 428.5709999999963,
      "v": 105
    },
    {
      "midi": 62,
      "hit": false,
      "t": 124499.87549999979,
      "d": 482.1423749999958,
      "v": 104
    },
    {
      "midi": 74,
      "hit": false,
      "t": 124499.8754999998,
      "d": 267.8568749999977,
      "v": 99
    },
    {
      "midi": 79,
      "hit": false,
      "t": 124499.8754999998,
      "d": 303.5711250000022,
      "v": 100
    },
    {
      "midi": 60,
      "hit": false,
      "t": 124714.16099999979,
      "d": 428.5709999999963,
      "v": 91
    },
    {
      "midi": 72,
      "hit": false,
      "t": 124714.1609999998,
      "d": 133.92843749999884,
      "v": 86
    },
    {
      "midi": 62,
      "hit": false,
      "t": 125142.73199999979,
      "d": 915.1776562500017,
      "v": 104
    },
    {
      "midi": 67,
      "hit": false,
      "t": 125142.73199999979,
      "d": 964.2847500000062,
      "v": 103
    },
    {
      "midi": 59,
      "hit": false,
      "t": 125142.73199999979,
      "d": 1013.3918437500106,
      "v": 100
    },
    {
      "midi": 55,
      "hit": false,
      "t": 125142.73199999979,
      "d": 1285.7130000000034,
      "v": 102
    },
    {
      "midi": 74,
      "hit": false,
      "t": 125142.7319999998,
      "d": 508.9280624999956,
      "v": 99
    },
    {
      "midi": 79,
      "hit": false,
      "t": 125142.7319999998,
      "d": 535.7137499999953,
      "v": 98
    },
    {
      "midi": 71,
      "hit": false,
      "t": 125142.7319999998,
      "d": 562.4994374999951,
      "v": 95
    },
    {
      "midi": 67,
      "hit": false,
      "t": 125142.7319999998,
      "d": 714.2849999999889,
      "v": 97
    },
    {
      "midi": 71,
      "hit": false,
      "t": 126428.44499999979,
      "d": 674.1064687499893,
      "v": 105
    },
    {
      "midi": 68,
      "hit": false,
      "t": 126428.44499999979,
      "d": 691.9635937499843,
      "v": 106
    },
    {
      "midi": 56,
      "hit": false,
      "t": 126428.44499999979,
      "d": 754.4635312499886,
      "v": 98
    },
    {
      "midi": 76,
      "hit": false,
      "t": 126428.44499999979,
      "d": 357.14250000000175,
      "v": 96
    },
    {
      "midi": 83,
      "hit": false,
      "t": 126428.44499999979,
      "d": 374.99962499999674,
      "v": 100
    },
    {
      "midi": 80,
      "hit": false,
      "t": 126428.44499999979,
      "d": 383.9281875000015,
      "v": 101
    },
    {
      "midi": 68,
      "hit": false,
      "t": 126428.44499999979,
      "d": 419.64243750000605,
      "v": 93
    },
    {
      "midi": 64,
      "hit": false,
      "t": 126857.01599999978,
      "d": 214.28549999999814,
      "v": 96
    },
    {
      "midi": 69,
      "hit": false,
      "t": 126857.01599999978,
      "d": 1236.6059062499844,
      "v": 104
    },
    {
      "midi": 72,
      "hit": false,
      "t": 126857.01599999978,
      "d": 1267.8558749999793,
      "v": 103
    },
    {
      "midi": 57,
      "hit": false,
      "t": 126857.01599999978,
      "d": 1495.5342187499773,
      "v": 103
    },
    {
      "midi": 81,
      "hit": false,
      "t": 126857.0159999998,
      "d": 687.4993125000037,
      "v": 99
    },
    {
      "midi": 76,
      "hit": false,
      "t": 126857.0159999998,
      "d": 696.4278750000085,
      "v": 91
    },
    {
      "midi": 84,
      "hit": false,
      "t": 126857.0159999998,
      "d": 705.3564375000133,
      "v": 98
    },
    {
      "midi": 69,
      "hit": false,
      "t": 126857.0159999998,
      "d": 830.3563125000073,
      "v": 98
    },
    {
      "midi": 67,
      "hit": false,
      "t": 128142.72899999976,
      "d": 370.53534375000163,
      "v": 100
    },
    {
      "midi": 71,
      "hit": false,
      "t": 128142.72899999976,
      "d": 383.9281875000015,
      "v": 105
    },
    {
      "midi": 62,
      "hit": false,
      "t": 128142.72899999976,
      "d": 499.9994999999908,
      "v": 99
    },
    {
      "midi": 55,
      "hit": false,
      "t": 128142.72899999976,
      "d": 723.2135624999937,
      "v": 93
    },
    {
      "midi": 79,
      "hit": false,
      "t": 128142.7289999998,
      "d": 205.35693749999336,
      "v": 95
    },
    {
      "midi": 83,
      "hit": false,
      "t": 128142.7289999998,
      "d": 214.28549999999814,
      "v": 100
    },
    {
      "midi": 74,
      "hit": false,
      "t": 128142.7289999998,
      "d": 276.78543750000244,
      "v": 94
    },
    {
      "midi": 67,
      "hit": false,
      "t": 128142.7289999998,
      "d": 401.7853124999965,
      "v": 88
    },
    {
      "midi": 69,
      "hit": false,
      "t": 128571.29999999976,
      "d": 1638.3912187499955,
      "v": 104
    },
    {
      "midi": 65,
      "hit": false,
      "t": 128571.29999999976,
      "d": 1687.4983124999999,
      "v": 102
    },
    {
      "midi": 60,
      "hit": false,
      "t": 128571.29999999976,
      "d": 1785.7125000000087,
      "v": 102
    },
    {
      "midi": 53,
      "hit": false,
      "t": 128571.29999999976,
      "d": 1866.069562500008,
      "v": 102
    },
    {
      "midi": 81,
      "hit": false,
      "t": 128571.2999999998,
      "d": 910.7133749999921,
      "v": 99
    },
    {
      "midi": 77,
      "hit": false,
      "t": 128571.2999999998,
      "d": 937.4990624999919,
      "v": 97
    },
    {
      "midi": 72,
      "hit": false,
      "t": 128571.2999999998,
      "d": 991.0704374999914,
      "v": 97
    },
    {
      "midi": 65,
      "hit": false,
      "t": 128571.2999999998,
      "d": 1035.7132499999861,
      "v": 97
    },
    {
      "midi": 64,
      "hit": false,
      "t": 130285.58399999976,
      "d": 383.92818750001607,
      "v": 109
    },
    {
      "midi": 67,
      "hit": false,
      "t": 130285.58399999976,
      "d": 611.6065312500141,
      "v": 109
    },
    {
      "midi": 48,
      "hit": false,
      "t": 130285.58399999976,
      "d": 2459.818968750027,
      "v": 101
    },
    {
      "midi": 76,
      "hit": false,
      "t": 130285.58399999978,
      "d": 214.28549999999814,
      "v": 104
    },
    {
      "midi": 79,
      "hit": false,
      "t": 130285.58399999978,
      "d": 339.2853749999922,
      "v": 104
    },
    {
      "midi": 60,
      "hit": false,
      "t": 130285.58399999978,
      "d": 1366.0700625000027,
      "v": 96
    },
    {
      "midi": 60,
      "hit": false,
      "t": 130499.86949999977,
      "d": 562.4994374999951,
      "v": 98
    },
    {
      "midi": 72,
      "hit": false,
      "t": 130499.86949999978,
      "d": 312.49968749999243,
      "v": 93
    },
    {
      "midi": 74,
      "hit": false,
      "t": 130714.15499999978,
      "d": 178.5712499999936,
      "v": 86
    },
    {
      "midi": 62,
      "hit": false,
      "t": 130928.44049999976,
      "d": 428.5709999999963,
      "v": 103
    },
    {
      "midi": 67,
      "hit": false,
      "t": 130928.44049999976,
      "d": 901.7848125000019,
      "v": 105
    },
    {
      "midi": 74,
      "hit": false,
      "t": 130928.44049999978,
      "d": 446.4281250000204,
      "v": 98
    },
    {
      "midi": 79,
      "hit": false,
      "t": 130928.44049999978,
      "d": 499.9995000000199,
      "v": 100
    },
    {
      "midi": 67,
      "hit": false,
      "t": 131142.7259999998,
      "d": 598.2136874999851,
      "v": 95
    },
    {
      "midi": 60,
      "hit": false,
      "t": 131357.01149999976,
      "d": 450.89240625000093,
      "v": 101
    },
    {
      "midi": 72,
      "hit": false,
      "t": 131357.0114999998,
      "d": 249.99974999998813,
      "v": 96
    },
    {
      "midi": 62,
      "hit": false,
      "t": 131571.29699999976,
      "d": 160.7141249999986,
      "v": 102
    },
    {
      "midi": 74,
      "hit": false,
      "t": 131571.2969999998,
      "d": 178.57124999997905,
      "v": 97
    },
    {
      "midi": 55,
      "hit": false,
      "t": 131999.86799999978,
      "d": 218.74978124999325,
      "v": 103
    },
    {
      "midi": 62,
      "hit": false,
      "t": 131999.86799999978,
      "d": 834.8205937499879,
      "v": 104
    },
    {
      "midi": 67,
      "hit": false,
      "t": 131999.86799999978,
      "d": 852.6777187499974,
      "v": 105
    },
    {
      "midi": 74,
      "hit": false,
      "t": 131999.86799999978,
      "d": 464.28524999998626,
      "v": 99
    },
    {
      "midi": 79,
      "hit": false,
      "t": 131999.86799999978,
      "d": 473.2138124999765,
      "v": 100
    },
    {
      "midi": 67,
      "hit": false,
      "t": 131999.86799999978,
      "d": 651.7850624999846,
      "v": 98
    },
    {
      "midi": 59,
      "hit": false,
      "t": 133285.58099999977,
      "d": 290.1782812500023,
      "v": 101
    },
    {
      "midi": 64,
      "hit": false,
      "t": 133285.58099999977,
      "d": 352.6782187499921,
      "v": 101
    },
    {
      "midi": 68,
      "hit": false,
      "t": 133285.58099999977,
      "d": 383.92818749998696,
      "v": 106
    },
    {
      "midi": 56,
      "hit": false,
      "t": 133285.58099999977,
      "d": 531.2494687500002,
      "v": 99
    },
    {
      "midi": 71,
      "hit": false,
      "t": 133285.58099999977,
      "d": 160.7141249999986,
      "v": 96
    },
    {
      "midi": 76,
      "hit": false,
      "t": 133285.58099999977,
      "d": 196.4283749999886,
      "v": 96
    },
    {
      "midi": 80,
      "hit": false,
      "t": 133285.58099999977,
      "d": 214.28549999999814,
      "v": 101
    },
    {
      "midi": 68,
      "hit": false,
      "t": 133285.58099999977,
      "d": 294.64256249999744,
      "v": 94
    },
    {
      "midi": 57,
      "hit": false,
      "t": 133714.15199999977,
      "d": 1830.3553125000035,
      "v": 103
    },
    {
      "midi": 81,
      "hit": false,
      "t": 133714.15199999977,
      "d": 955.3561875000014,
      "v": 99
    },
    {
      "midi": 76,
      "hit": false,
      "t": 133714.15199999977,
      "d": 964.2847499999916,
      "v": 100
    },
    {
      "midi": 69,
      "hit": false,
      "t": 133714.15199999977,
      "d": 1017.8561249999912,
      "v": 98
    },
    {
      "midi": 62,
      "hit": false,
      "t": 134999.86499999976,
      "d": 624.999375000014,
      "v": 100
    },
    {
      "midi": 71,
      "hit": false,
      "t": 134999.86499999976,
      "d": 624.999375000014,
      "v": 102
    },
    {
      "midi": 55,
      "hit": false,
      "t": 134999.86499999976,
      "d": 642.8565000000235,
      "v": 101
    },
    {
      "midi": 67,
      "hit": false,
      "t": 134999.86499999976,
      "d": 642.8565000000235,
      "v": 103
    },
    {
      "midi": 74,
      "hit": false,
      "t": 134999.86499999976,
      "d": 348.213937499997,
      "v": 95
    },
    {
      "midi": 83,
      "hit": false,
      "t": 134999.86499999976,
      "d": 348.213937499997,
      "v": 97
    },
    {
      "midi": 79,
      "hit": false,
      "t": 134999.86499999976,
      "d": 383.92818749998696,
      "v": 98
    },
    {
      "midi": 67,
      "hit": false,
      "t": 134999.86499999976,
      "d": 419.64243749997695,
      "v": 96
    },
    {
      "midi": 76,
      "hit": false,
      "t": 135428.43599999973,
      "d": 53.571374999999534,
      "v": 86
    },
    {
      "midi": 81,
      "hit": false,
      "t": 135428.43599999973,
      "d": 991.0704374999914,
      "v": 99
    },
    {
      "midi": 77,
      "hit": false,
      "t": 135428.43599999973,
      "d": 999.9989999999816,
      "v": 97
    },
    {
      "midi": 65,
      "hit": false,
      "t": 135428.43599999973,
      "d": 1008.9275624999718,
      "v": 95
    },
    {
      "midi": 72,
      "hit": false,
      "t": 135428.43599999973,
      "d": 1071.4274999999616,
      "v": 92
    },
    {
      "midi": 64,
      "hit": false,
      "t": 135428.43599999975,
      "d": 98.21418750000885,
      "v": 91
    },
    {
      "midi": 69,
      "hit": false,
      "t": 135428.43599999975,
      "d": 1714.2840000000142,
      "v": 104
    },
    {
      "midi": 65,
      "hit": false,
      "t": 135428.43599999975,
      "d": 1799.1053437500377,
      "v": 102
    },
    {
      "midi": 53,
      "hit": false,
      "t": 135428.43599999975,
      "d": 1816.9624687500473,
      "v": 100
    },
    {
      "midi": 60,
      "hit": false,
      "t": 135428.43599999975,
      "d": 1928.5695000000414,
      "v": 97
    },
    {
      "midi": 79,
      "hit": false,
      "t": 137142.71999999968,
      "d": 589.285125000024,
      "v": 96
    },
    {
      "midi": 76,
      "hit": false,
      "t": 137142.71999999968,
      "d": 598.2136875000142,
      "v": 101
    },
    {
      "midi": 60,
      "hit": false,
      "t": 137142.71999999968,
      "d": 1446.4271250000165,
      "v": 90
    },
    {
      "midi": 67,
      "hit": false,
      "t": 137142.71999999968,
      "d": 1473.2128125000163,
      "v": 94
    },
    {
      "midi": 48,
      "hit": false,
      "t": 137142.71999999977,
      "d": 2602.6759687499725,
      "v": 95
    },
    {
      "midi": 76,
      "hit": false,
      "t": 137785.5764999997,
      "d": 89.28562499998952,
      "v": 99
    },
    {
      "midi": 79,
      "hit": false,
      "t": 137785.5764999997,
      "d": 98.21418749997974,
      "v": 99
    },
    {
      "midi": 67,
      "hit": false,
      "t": 137785.5764999998,
      "d": 419.64243749997695,
      "v": 104
    },
    {
      "midi": 64,
      "hit": false,
      "t": 137785.5764999998,
      "d": 428.57099999996717,
      "v": 104
    },
    {
      "midi": 76,
      "hit": false,
      "t": 138214.1474999997,
      "d": 312.499687500007,
      "v": 102
    },
    {
      "midi": 79,
      "hit": false,
      "t": 138214.1474999997,
      "d": 339.28537500000675,
      "v": 102
    },
    {
      "midi": 64,
      "hit": false,
      "t": 138214.14749999976,
      "d": 562.4994374999951,
      "v": 107
    },
    {
      "midi": 72,
      "hit": false,
      "t": 138428.4329999997,
      "d": 44.64281250000931,
      "v": 60
    },
    {
      "midi": 60,
      "hit": false,
      "t": 138428.43299999976,
      "d": 428.5709999999963,
      "v": 65
    },
    {
      "midi": 74,
      "hit": false,
      "t": 138857.0039999997,
      "d": 464.28524999998626,
      "v": 101
    },
    {
      "midi": 79,
      "hit": false,
      "t": 138857.0039999997,
      "d": 482.1423749999958,
      "v": 102
    },
    {
      "midi": 67,
      "hit": false,
      "t": 138857.0039999997,
      "d": 669.6421874999942,
      "v": 100
    },
    {
      "midi": 62,
      "hit": false,
      "t": 138857.00399999975,
      "d": 834.8205937499879,
      "v": 106
    },
    {
      "midi": 67,
      "hit": false,
      "t": 138857.00399999975,
      "d": 866.0705624999828,
      "v": 107
    },
    {
      "midi": 55,
      "hit": false,
      "t": 138857.00399999975,
      "d": 937.4990624999919,
      "v": 105
    },
    {
      "midi": 83,
      "hit": false,
      "t": 140142.71699999968,
      "d": 366.0710625000065,
      "v": 94
    },
    {
      "midi": 80,
      "hit": false,
      "t": 140142.71699999968,
      "d": 374.99962499999674,
      "v": 101
    },
    {
      "midi": 68,
      "hit": false,
      "t": 140142.71699999968,
      "d": 392.8567500000063,
      "v": 93
    },
    {
      "midi": 71,
      "hit": false,
      "t": 140142.71699999974,
      "d": 660.713625000004,
      "v": 99
    },
    {
      "midi": 68,
      "hit": false,
      "t": 140142.71699999974,
      "d": 674.1064687500184,
      "v": 106
    },
    {
      "midi": 56,
      "hit": false,
      "t": 140142.71699999974,
      "d": 705.3564375000133,
      "v": 98
    },
    {
      "midi": 76,
      "hit": false,
      "t": 140571.28799999968,
      "d": 991.0704374999914,
      "v": 90
    },
    {
      "midi": 84,
      "hit": false,
      "t": 140571.28799999968,
      "d": 1107.1417499999807,
      "v": 99
    },
    {
      "midi": 81,
      "hit": false,
      "t": 140571.28799999968,
      "d": 1187.49881249998,
      "v": 94
    },
    {
      "midi": 69,
      "hit": false,
      "t": 140571.28799999968,
      "d": 1205.3559374999895,
      "v": 96
    },
    {
      "midi": 64,
      "hit": false,
      "t": 140571.28799999974,
      "d": 1785.7125000000233,
      "v": 95
    },
    {
      "midi": 72,
      "hit": false,
      "t": 140571.28799999974,
      "d": 1991.0694375000312,
      "v": 104
    },
    {
      "midi": 57,
      "hit": false,
      "t": 140571.28799999974,
      "d": 2169.6406875000393,
      "v": 101
    },
    {
      "midi": 79,
      "hit": false,
      "t": 141857.00099999967,
      "d": 214.28549999999814,
      "v": 90
    },
    {
      "midi": 83,
      "hit": false,
      "t": 141857.00099999967,
      "d": 223.21406249998836,
      "v": 97
    },
    {
      "midi": 74,
      "hit": false,
      "t": 141857.00099999967,
      "d": 330.3568124999874,
      "v": 93
    },
    {
      "midi": 67,
      "hit": false,
      "t": 141857.00099999967,
      "d": 401.7853124999965,
      "v": 95
    },
    {
      "midi": 67,
      "hit": false,
      "t": 141857.00099999976,
      "d": 383.92818749998696,
      "v": 95
    },
    {
      "midi": 71,
      "hit": false,
      "t": 141857.00099999976,
      "d": 401.7853124999965,
      "v": 102
    },
    {
      "midi": 62,
      "hit": false,
      "t": 141857.00099999976,
      "d": 593.7494062500191,
      "v": 98
    },
    {
      "midi": 55,
      "hit": false,
      "t": 141857.00099999976,
      "d": 723.2135625000228,
      "v": 100
    },
    {
      "midi": 77,
      "hit": false,
      "t": 142285.57199999967,
      "d": 1062.4989375000005,
      "v": 101
    },
    {
      "midi": 81,
      "hit": false,
      "t": 142285.57199999967,
      "d": 1062.4989375000005,
      "v": 101
    },
    {
      "midi": 65,
      "hit": false,
      "t": 142285.57199999967,
      "d": 1071.4274999999907,
      "v": 98
    },
    {
      "midi": 69,
      "hit": false,
      "t": 142285.57199999975,
      "d": 1714.2840000000142,
      "v": 106
    },
    {
      "midi": 65,
      "hit": false,
      "t": 142285.57199999975,
      "d": 1910.7123750000028,
      "v": 106
    },
    {
      "midi": 53,
      "hit": false,
      "t": 142285.57199999975,
      "d": 1928.5695000000123,
      "v": 103
    },
    {
      "midi": 64,
      "hit": false,
      "t": 143999.85599999977,
      "d": 754.4635312499886,
      "v": 103
    },
    {
      "midi": 48,
      "hit": false,
      "t": 143999.85599999977,
      "d": 2910.7113749999844,
      "v": 98
    },
    {
      "midi": 60,
      "hit": false,
      "t": 144428.42699999976,
      "d": 428.5709999999963,
      "v": 84
    },
    {
      "midi": 67,
      "hit": false,
      "t": 144642.71249999976,
      "d": 214.28549999999814,
      "v": 107
    },
    {
      "midi": 55,
      "hit": false,
      "t": 144856.99799999976,
      "d": 379.46390624999185,
      "v": 101
    },
    {
      "midi": 62,
      "hit": false,
      "t": 145071.28349999976,
      "d": 428.5709999999963,
      "v": 104
    },
    {
      "midi": 67,
      "hit": false,
      "t": 145071.28349999976,
      "d": 428.5709999999963,
      "v": 109
    },
    {
      "midi": 60,
      "hit": false,
      "t": 145285.56899999976,
      "d": 290.1782812500023,
      "v": 91
    },
    {
      "midi": 59,
      "hit": false,
      "t": 146142.71099999975,
      "d": 214.28549999999814,
      "v": 103
    },
    {
      "midi": 67,
      "hit": false,
      "t": 146356.99649999975,
      "d": 214.28549999999814,
      "v": 104
    },
    {
      "midi": 71,
      "hit": false,
      "t": 146356.99649999975,
      "d": 401.7853124999965,
      "v": 107
    },
    {
      "midi": 62,
      "hit": false,
      "t": 146356.99649999975,
      "d": 419.64243750000605,
      "v": 106
    },
    {
      "midi": 55,
      "hit": false,
      "t": 146571.28199999974,
      "d": 214.28549999999814,
      "v": 101
    },
    {
      "midi": 55,
      "hit": false,
      "t": 146999.85299999974,
      "d": 428.5709999999963,
      "v": 105
    },
    {
      "midi": 69,
      "hit": false,
      "t": 147428.42399999974,
      "d": 1669.6411874999758,
      "v": 109
    },
    {
      "midi": 64,
      "hit": false,
      "t": 147428.42399999974,
      "d": 1705.3554374999658,
      "v": 105
    },
    {
      "midi": 72,
      "hit": false,
      "t": 147428.42399999974,
      "d": 1705.3554374999658,
      "v": 105
    },
    {
      "midi": 57,
      "hit": false,
      "t": 147428.42399999974,
      "d": 2008.9265624999243,
      "v": 100
    },
    {
      "midi": 62,
      "hit": false,
      "t": 148714.13699999973,
      "d": 544.6423124999565,
      "v": 101
    },
    {
      "midi": 71,
      "hit": false,
      "t": 148714.13699999973,
      "d": 580.3565624999464,
      "v": 105
    },
    {
      "midi": 67,
      "hit": false,
      "t": 148714.13699999973,
      "d": 642.8564999999362,
      "v": 100
    },
    {
      "midi": 55,
      "hit": false,
      "t": 148714.13699999973,
      "d": 705.356437499926,
      "v": 100
    },
    {
      "midi": 69,
      "hit": false,
      "t": 149142.7079999997,
      "d": 1897.3195312499884,
      "v": 103
    },
    {
      "midi": 65,
      "hit": false,
      "t": 149142.7079999997,
      "d": 1910.7123750000028,
      "v": 107
    },
    {
      "midi": 53,
      "hit": false,
      "t": 149142.7079999997,
      "d": 2008.9265625000116,
      "v": 102
    },
    {
      "midi": 60,
      "hit": false,
      "t": 149142.7079999997,
      "d": 2071.4265000000014,
      "v": 101
    },
    {
      "midi": 64,
      "hit": false,
      "t": 150856.99199999968,
      "d": 754.4635312500177,
      "v": 106
    },
    {
      "midi": 48,
      "hit": false,
      "t": 150856.99199999968,
      "d": 2669.6401875000156,
      "v": 95
    },
    {
      "midi": 60,
      "hit": false,
      "t": 151285.5629999997,
      "d": 214.28549999999814,
      "v": 91
    },
    {
      "midi": 67,
      "hit": false,
      "t": 151499.8484999997,
      "d": 214.28549999999814,
      "v": 105
    },
    {
      "midi": 62,
      "hit": false,
      "t": 151499.8484999997,
      "d": 428.5709999999963,
      "v": 108
    },
    {
      "midi": 55,
      "hit": false,
      "t": 151714.1339999997,
      "d": 428.5709999999963,
      "v": 100
    },
    {
      "midi": 67,
      "hit": false,
      "t": 151928.4194999997,
      "d": 214.28549999999814,
      "v": 108
    },
    {
      "midi": 62,
      "hit": false,
      "t": 151928.4194999997,
      "d": 450.89240625000093,
      "v": 104
    },
    {
      "midi": 60,
      "hit": false,
      "t": 152142.7049999997,
      "d": 428.5709999999963,
      "v": 73
    },
    {
      "midi": 62,
      "hit": false,
      "t": 152571.2759999997,
      "d": 1075.891781250015,
      "v": 109
    },
    {
      "midi": 67,
      "hit": false,
      "t": 152571.2759999997,
      "d": 1075.891781250015,
      "v": 110
    },
    {
      "midi": 55,
      "hit": false,
      "t": 152571.2759999997,
      "d": 1383.9271875000268,
      "v": 102
    },
    {
      "midi": 56,
      "hit": false,
      "t": 153856.9889999997,
      "d": 428.5709999999963,
      "v": 96
    },
    {
      "midi": 59,
      "hit": false,
      "t": 153856.9889999997,
      "d": 428.5709999999963,
      "v": 100
    },
    {
      "midi": 64,
      "hit": false,
      "t": 153856.9889999997,
      "d": 428.5709999999963,
      "v": 104
    },
    {
      "midi": 68,
      "hit": false,
      "t": 153856.9889999997,
      "d": 428.5709999999963,
      "v": 104
    },
    {
      "midi": 64,
      "hit": false,
      "t": 154285.5599999997,
      "d": 1785.7125000000233,
      "v": 104
    },
    {
      "midi": 72,
      "hit": false,
      "t": 154285.5599999997,
      "d": 1910.712375000032,
      "v": 109
    },
    {
      "midi": 57,
      "hit": false,
      "t": 154285.5599999997,
      "d": 2040.1765312500356,
      "v": 103
    },
    {
      "midi": 67,
      "hit": false,
      "t": 155571.27299999972,
      "d": 383.92818749998696,
      "v": 104
    },
    {
      "midi": 71,
      "hit": false,
      "t": 155571.27299999972,
      "d": 401.7853124999965,
      "v": 104
    },
    {
      "midi": 62,
      "hit": false,
      "t": 155571.27299999972,
      "d": 624.999375000014,
      "v": 102
    },
    {
      "midi": 55,
      "hit": false,
      "t": 155571.27299999972,
      "d": 754.4635312500177,
      "v": 100
    },
    {
      "midi": 69,
      "hit": false,
      "t": 155999.84399999972,
      "d": 312.499687500007,
      "v": 106
    },
    {
      "midi": 60,
      "hit": false,
      "t": 155999.84399999972,
      "d": 1687.4983125000144,
      "v": 104
    },
    {
      "midi": 65,
      "hit": false,
      "t": 155999.84399999972,
      "d": 1749.9982500000333,
      "v": 104
    },
    {
      "midi": 53,
      "hit": false,
      "t": 155999.84399999972,
      "d": 1866.0695625000226,
      "v": 99
    },
    {
      "midi": 64,
      "hit": false,
      "t": 157928.41349999973,
      "d": 401.7853124999965,
      "v": 101
    },
    {
      "midi": 60,
      "hit": false,
      "t": 158142.69899999973,
      "d": 982.1418750000012,
      "v": 105
    },
    {
      "midi": 67,
      "hit": false,
      "t": 158356.98449999973,
      "d": 428.5709999999963,
      "v": 106
    },
    {
      "midi": 72,
      "hit": false,
      "t": 158356.98449999973,
      "d": 428.5709999999963,
      "v": 108
    },
    {
      "midi": 72,
      "hit": false,
      "t": 158785.55549999973,
      "d": 383.92818750001607,
      "v": 102
    },
    {
      "midi": 67,
      "hit": false,
      "t": 158785.55549999973,
      "d": 401.7853125000256,
      "v": 108
    },
    {
      "midi": 64,
      "hit": false,
      "t": 158999.84099999972,
      "d": 428.5710000000254,
      "v": 87
    },
    {
      "midi": 60,
      "hit": false,
      "t": 159214.12649999975,
      "d": 428.5709999999963,
      "v": 91
    },
    {
      "midi": 62,
      "hit": false,
      "t": 159642.69749999975,
      "d": 499.99950000000536,
      "v": 98
    },
    {
      "midi": 67,
      "hit": false,
      "t": 160071.26849999974,
      "d": 214.28549999999814,
      "v": 103
    },
    {
      "midi": 71,
      "hit": false,
      "t": 160071.26849999974,
      "d": 303.57112499998766,
      "v": 106
    },
    {
      "midi": 74,
      "hit": false,
      "t": 160071.26849999974,
      "d": 339.28537499997765,
      "v": 108
    },
    {
      "midi": 55,
      "hit": false,
      "t": 160285.55399999974,
      "d": 410.71387499998673,
      "v": 91
    },
    {
      "midi": 68,
      "hit": false,
      "t": 160714.12499999974,
      "d": 580.3565625000047,
      "v": 104
    },
    {
      "midi": 71,
      "hit": false,
      "t": 160714.12499999974,
      "d": 691.9635937500279,
      "v": 108
    },
    {
      "midi": 56,
      "hit": false,
      "t": 160714.12499999974,
      "d": 705.3564375000424,
      "v": 100
    },
    {
      "midi": 76,
      "hit": false,
      "t": 161142.69599999973,
      "d": 245.53546875002212,
      "v": 102
    },
    {
      "midi": 69,
      "hit": false,
      "t": 161142.69599999973,
      "d": 1316.962968750042,
      "v": 104
    },
    {
      "midi": 72,
      "hit": false,
      "t": 161142.69599999973,
      "d": 1316.962968750042,
      "v": 102
    },
    {
      "midi": 64,
      "hit": false,
      "t": 161142.69599999973,
      "d": 1383.9271875000559,
      "v": 102
    },
    {
      "midi": 57,
      "hit": false,
      "t": 161142.69599999973,
      "d": 1464.2842500000552,
      "v": 103
    },
    {
      "midi": 71,
      "hit": false,
      "t": 162428.40899999978,
      "d": 370.53534375000163,
      "v": 105
    },
    {
      "midi": 74,
      "hit": false,
      "t": 162428.40899999978,
      "d": 370.53534375000163,
      "v": 97
    },
    {
      "midi": 67,
      "hit": false,
      "t": 162428.40899999978,
      "d": 383.92818750001607,
      "v": 99
    },
    {
      "midi": 55,
      "hit": false,
      "t": 162428.40899999978,
      "d": 660.713625000004,
      "v": 101
    },
    {
      "midi": 65,
      "hit": false,
      "t": 162856.9799999998,
      "d": 1928.5694999999832,
      "v": 104
    },
    {
      "midi": 53,
      "hit": false,
      "t": 162856.9799999998,
      "d": 1946.4266249999928,
      "v": 101
    },
    {
      "midi": 69,
      "hit": false,
      "t": 162856.9799999998,
      "d": 2089.283625000011,
      "v": 102
    },
    {
      "midi": 72,
      "hit": false,
      "t": 164571.2639999998,
      "d": 325.8925312500214,
      "v": 107
    },
    {
      "midi": 60,
      "hit": false,
      "t": 164785.5494999998,
      "d": 401.7853125000256,
      "v": 93
    },
    {
      "midi": 64,
      "hit": false,
      "t": 165214.12049999982,
      "d": 428.5709999999963,
      "v": 104
    },
    {
      "midi": 67,
      "hit": false,
      "t": 165214.12049999982,
      "d": 428.5709999999963,
      "v": 101
    },
    {
      "midi": 72,
      "hit": false,
      "t": 165214.12049999982,
      "d": 428.5709999999963,
      "v": 101
    },
    {
      "midi": 60,
      "hit": false,
      "t": 165642.6914999998,
      "d": 642.8564999999944,
      "v": 100
    },
    {
      "midi": 55,
      "hit": false,
      "t": 166285.5479999998,
      "d": 428.5709999999963,
      "v": 103
    },
    {
      "midi": 67,
      "hit": false,
      "t": 166285.5479999998,
      "d": 428.5709999999963,
      "v": 109
    },
    {
      "midi": 59,
      "hit": false,
      "t": 166499.8334999998,
      "d": 464.28524999998626,
      "v": 100
    },
    {
      "midi": 55,
      "hit": false,
      "t": 166714.1189999998,
      "d": 214.28549999999814,
      "v": 103
    },
    {
      "midi": 62,
      "hit": false,
      "t": 166928.4044999998,
      "d": 321.4282499999972,
      "v": 108
    },
    {
      "midi": 67,
      "hit": false,
      "t": 166928.4044999998,
      "d": 352.6782187499921,
      "v": 106
    },
    {
      "midi": 59,
      "hit": false,
      "t": 167571.2609999998,
      "d": 428.5709999999963,
      "v": 100
    },
    {
      "midi": 64,
      "hit": false,
      "t": 167571.2609999998,
      "d": 428.5709999999963,
      "v": 103
    },
    {
      "midi": 68,
      "hit": false,
      "t": 167571.2609999998,
      "d": 428.5709999999963,
      "v": 106
    },
    {
      "midi": 56,
      "hit": false,
      "t": 167571.2609999998,
      "d": 580.3565624999756,
      "v": 98
    },
    {
      "midi": 69,
      "hit": false,
      "t": 167999.8319999998,
      "d": 946.4276249999821,
      "v": 106
    },
    {
      "midi": 64,
      "hit": false,
      "t": 167999.8319999998,
      "d": 982.1418749999721,
      "v": 103
    },
    {
      "midi": 60,
      "hit": false,
      "t": 167999.8319999998,
      "d": 1026.7846874999814,
      "v": 100
    },
    {
      "midi": 57,
      "hit": false,
      "t": 167999.8319999998,
      "d": 1267.8558749999793,
      "v": 101
    },
    {
      "midi": 67,
      "hit": false,
      "t": 169285.54499999978,
      "d": 450.89240625000093,
      "v": 105
    },
    {
      "midi": 62,
      "hit": false,
      "t": 169285.54499999978,
      "d": 531.2494687500293,
      "v": 105
    },
    {
      "midi": 59,
      "hit": false,
      "t": 169285.54499999978,
      "d": 544.6423125000438,
      "v": 98
    },
    {
      "midi": 55,
      "hit": false,
      "t": 169285.54499999978,
      "d": 705.3564375000424,
      "v": 102
    },
    {
      "midi": 60,
      "hit": false,
      "t": 169714.11599999978,
      "d": 1687.4983125000435,
      "v": 105
    },
    {
      "midi": 65,
      "hit": false,
      "t": 169714.11599999978,
      "d": 1687.4983125000435,
      "v": 104
    },
    {
      "midi": 57,
      "hit": false,
      "t": 169714.11599999978,
      "d": 1749.9982500000333,
      "v": 106
    },
    {
      "midi": 53,
      "hit": false,
      "t": 169714.11599999978,
      "d": 1830.3553125000326,
      "v": 100
    },
    {
      "midi": 55,
      "hit": false,
      "t": 171856.97099999982,
      "d": 2151.7835624999425,
      "v": 99
    },
    {
      "midi": 60,
      "hit": false,
      "t": 172071.2564999998,
      "d": 339.28537500000675,
      "v": 100
    },
    {
      "midi": 64,
      "hit": false,
      "t": 172071.2564999998,
      "d": 370.53534375000163,
      "v": 100
    },
    {
      "midi": 60,
      "hit": false,
      "t": 172714.1129999998,
      "d": 383.92818749998696,
      "v": 100
    },
    {
      "midi": 62,
      "hit": false,
      "t": 173142.68399999978,
      "d": 1714.283999999985,
      "v": 107
    },
    {
      "midi": 59,
      "hit": false,
      "t": 173142.68399999978,
      "d": 2571.4259999999776,
      "v": 102
    },
    {
      "midi": 67,
      "hit": false,
      "t": 173999.82599999977,
      "d": 995.5347187499865,
      "v": 96
    },
    {
      "midi": 53,
      "hit": false,
      "t": 174856.96799999964,
      "d": 4.464281249995111,
      "v": 100
    },
    {
      "midi": 77,
      "hit": false,
      "t": 174856.96799999964,
      "d": 223.21406249998836,
      "v": 95
    },
    {
      "midi": 84,
      "hit": false,
      "t": 174856.96799999964,
      "d": 437.4995624999865,
      "v": 95
    },
    {
      "midi": 65,
      "hit": false,
      "t": 174856.96799999964,
      "d": 3017.8541249999544,
      "v": 84
    },
    {
      "midi": 41,
      "hit": false,
      "t": 174856.96799999976,
      "d": 642.8564999999944,
      "v": 105
    },
    {
      "midi": 72,
      "hit": false,
      "t": 174856.96799999976,
      "d": 785.7134999999835,
      "v": 100
    },
    {
      "midi": 72,
      "hit": false,
      "t": 175071.25349999964,
      "d": 312.4996874999779,
      "v": 75
    },
    {
      "midi": 60,
      "hit": false,
      "t": 175071.25349999976,
      "d": 562.4994374999951,
      "v": 80
    },
    {
      "midi": 77,
      "hit": false,
      "t": 175285.53899999964,
      "d": 169.64268749998882,
      "v": 89
    },
    {
      "midi": 65,
      "hit": false,
      "t": 175285.53899999976,
      "d": 214.28549999999814,
      "v": 94
    },
    {
      "midi": 79,
      "hit": false,
      "t": 175499.82449999964,
      "d": 223.21406249998836,
      "v": 89
    },
    {
      "midi": 83,
      "hit": false,
      "t": 175499.82449999964,
      "d": 517.8566249999858,
      "v": 89
    },
    {
      "midi": 67,
      "hit": false,
      "t": 175499.82449999976,
      "d": 401.7853124999965,
      "v": 94
    },
    {
      "midi": 71,
      "hit": false,
      "t": 175499.82449999976,
      "d": 933.0347812499967,
      "v": 94
    },
    {
      "midi": 74,
      "hit": false,
      "t": 175714.10999999964,
      "d": 312.4996874999779,
      "v": 89
    },
    {
      "midi": 79,
      "hit": false,
      "t": 175928.39549999963,
      "d": 160.7141249999695,
      "v": 86
    },
    {
      "midi": 67,
      "hit": false,
      "t": 175928.39549999975,
      "d": 290.1782812500023,
      "v": 91
    },
    {
      "midi": 72,
      "hit": false,
      "t": 176142.6809999996,
      "d": 348.213937499997,
      "v": 87
    },
    {
      "midi": 77,
      "hit": false,
      "t": 176142.6809999996,
      "d": 366.0710625000065,
      "v": 90
    },
    {
      "midi": 81,
      "hit": false,
      "t": 176142.6809999996,
      "d": 392.8567500000063,
      "v": 88
    },
    {
      "midi": 77,
      "hit": false,
      "t": 176571.2519999996,
      "d": 1107.1417499999807,
      "v": 90
    },
    {
      "midi": 72,
      "hit": false,
      "t": 176571.2519999996,
      "d": 1116.070312499971,
      "v": 78
    },
    {
      "midi": 81,
      "hit": false,
      "t": 176571.2519999996,
      "d": 1133.9274374999804,
      "v": 87
    },
    {
      "midi": 60,
      "hit": false,
      "t": 176571.25199999975,
      "d": 857.1419999999925,
      "v": 83
    },
    {
      "midi": 65,
      "hit": false,
      "t": 176571.25199999975,
      "d": 857.1419999999925,
      "v": 95
    },
    {
      "midi": 69,
      "hit": false,
      "t": 176571.25199999975,
      "d": 857.1419999999925,
      "v": 92
    },
    {
      "midi": 53,
      "hit": false,
      "t": 177856.9649999996,
      "d": 223.21406250001746,
      "v": 100
    },
    {
      "midi": 53,
      "hit": false,
      "t": 178285.5359999996,
      "d": 4.464281249995111,
      "v": 90
    },
    {
      "midi": 77,
      "hit": false,
      "t": 178285.5359999996,
      "d": 232.14262500000768,
      "v": 93
    },
    {
      "midi": 84,
      "hit": false,
      "t": 178285.5359999996,
      "d": 428.5709999999963,
      "v": 97
    },
    {
      "midi": 65,
      "hit": false,
      "t": 178285.5359999996,
      "d": 2392.854750000057,
      "v": 87
    },
    {
      "midi": 41,
      "hit": false,
      "t": 178285.53599999973,
      "d": 214.28549999999814,
      "v": 95
    },
    {
      "midi": 65,
      "hit": false,
      "t": 178285.53599999973,
      "d": 276.785437500017,
      "v": 98
    },
    {
      "midi": 72,
      "hit": false,
      "t": 178285.53599999973,
      "d": 772.3206562500272,
      "v": 102
    },
    {
      "midi": 53,
      "hit": false,
      "t": 178285.53599999973,
      "d": 2004.4622812500165,
      "v": 92
    },
    {
      "midi": 72,
      "hit": false,
      "t": 178499.8214999996,
      "d": 330.3568124999874,
      "v": 78
    },
    {
      "midi": 60,
      "hit": false,
      "t": 178499.82149999973,
      "d": 428.5710000000254,
      "v": 83
    },
    {
      "midi": 77,
      "hit": false,
      "t": 178714.1069999996,
      "d": 160.7141249999986,
      "v": 89
    },
    {
      "midi": 65,
      "hit": false,
      "t": 178714.10699999976,
      "d": 642.8564999999944,
      "v": 94
    },
    {
      "midi": 79,
      "hit": false,
      "t": 178928.3924999996,
      "d": 249.99975000001723,
      "v": 91
    },
    {
      "midi": 83,
      "hit": false,
      "t": 178928.3924999996,
      "d": 473.2138125000347,
      "v": 89
    },
    {
      "midi": 74,
      "hit": false,
      "t": 178928.3924999996,
      "d": 517.856625000044,
      "v": 81
    },
    {
      "midi": 71,
      "hit": false,
      "t": 178928.39249999975,
      "d": 852.6777187499974,
      "v": 94
    },
    {
      "midi": 62,
      "hit": false,
      "t": 178928.39249999975,
      "d": 933.0347812499967,
      "v": 86
    },
    {
      "midi": 79,
      "hit": false,
      "t": 179356.96349999963,
      "d": 160.7141250000277,
      "v": 84
    },
    {
      "midi": 67,
      "hit": false,
      "t": 179356.96349999975,
      "d": 290.1782812500023,
      "v": 89
    },
    {
      "midi": 72,
      "hit": false,
      "t": 179571.24899999966,
      "d": 383.92818750001607,
      "v": 91
    },
    {
      "midi": 81,
      "hit": false,
      "t": 179571.24899999966,
      "d": 401.7853125000256,
      "v": 89
    },
    {
      "midi": 81,
      "hit": false,
      "t": 179999.8199999997,
      "d": 491.07093749998603,
      "v": 82
    },
    {
      "midi": 72,
      "hit": false,
      "t": 179999.8199999997,
      "d": 517.8566249999858,
      "v": 79
    },
    {
      "midi": 60,
      "hit": false,
      "t": 179999.81999999975,
      "d": 857.1419999999925,
      "v": 84
    },
    {
      "midi": 69,
      "hit": false,
      "t": 179999.81999999975,
      "d": 857.1419999999925,
      "v": 87
    },
    {
      "midi": 71,
      "hit": false,
      "t": 180856.96199999965,
      "d": 749.9992499999935,
      "v": 74
    },
    {
      "midi": 74,
      "hit": false,
      "t": 180856.96199999965,
      "d": 749.9992499999935,
      "v": 80
    },
    {
      "midi": 79,
      "hit": false,
      "t": 180856.96199999965,
      "d": 767.856375000003,
      "v": 88
    },
    {
      "midi": 59,
      "hit": false,
      "t": 180856.96199999974,
      "d": 1348.2129375000077,
      "v": 79
    },
    {
      "midi": 62,
      "hit": false,
      "t": 180856.96199999974,
      "d": 1348.2129375000077,
      "v": 85
    },
    {
      "midi": 67,
      "hit": false,
      "t": 181714.10399999973,
      "d": 526.7851875000051,
      "v": 93
    },
    {
      "midi": 60,
      "hit": false,
      "t": 182160.53212499974,
      "d": 513.3923437499907,
      "v": 64
    },
    {
      "midi": 64,
      "hit": false,
      "t": 182589.10312499973,
      "d": 642.8564999999944,
      "v": 73
    },
    {
      "midi": 67,
      "hit": false,
      "t": 182598.03168749972,
      "d": 642.8564999999944,
      "v": 82
    },
    {
      "midi": 60,
      "hit": false,
      "t": 183017.67412499973,
      "d": 499.99949999997625,
      "v": 37
    },
    {
      "midi": 64,
      "hit": false,
      "t": 183437.3165624997,
      "d": 674.1064687499893,
      "v": 61
    },
    {
      "midi": 67,
      "hit": false,
      "t": 183446.2451249997,
      "d": 642.8564999999944,
      "v": 71
    },
    {
      "midi": 60,
      "hit": false,
      "t": 183865.8875624997,
      "d": 531.2494687500002,
      "v": 26
    },
    {
      "midi": 64,
      "hit": false,
      "t": 184294.4585624997,
      "d": 642.8565000000235,
      "v": 73
    },
    {
      "midi": 67,
      "hit": false,
      "t": 184303.3871249997,
      "d": 642.8565000000235,
      "v": 78
    },
    {
      "midi": 67,
      "hit": false,
      "t": 185142.6719999997,
      "d": 674.1064687499893,
      "v": 72
    },
    {
      "midi": 62,
      "hit": false,
      "t": 185142.6719999997,
      "d": 754.4635312499886,
      "v": 73
    },
    {
      "midi": 64,
      "hit": false,
      "t": 185142.6719999997,
      "d": 772.3206562499981,
      "v": 78
    },
    {
      "midi": 48,
      "hit": false,
      "t": 185142.6719999997,
      "d": 5272.316156249988,
      "v": 77
    },
    {
      "midi": 60,
      "hit": false,
      "t": 185571.2429999997,
      "d": 401.7853124999965,
      "v": 49
    },
    {
      "midi": 67,
      "hit": false,
      "t": 185999.8139999997,
      "d": 593.74940624999,
      "v": 42
    },
    {
      "midi": 62,
      "hit": false,
      "t": 185999.8139999997,
      "d": 723.2135624999937,
      "v": 35
    },
    {
      "midi": 64,
      "hit": false,
      "t": 185999.8139999997,
      "d": 741.0706875000033,
      "v": 53
    },
    {
      "midi": 60,
      "hit": false,
      "t": 186428.3849999997,
      "d": 258.92831250000745,
      "v": 40
    },
    {
      "midi": 67,
      "hit": false,
      "t": 186856.95599999969,
      "d": 544.6423124999856,
      "v": 26
    },
    {
      "midi": 62,
      "hit": false,
      "t": 186856.95599999969,
      "d": 691.9635937499988,
      "v": 36
    },
    {
      "midi": 64,
      "hit": false,
      "t": 186856.95599999969,
      "d": 691.9635937499988,
      "v": 50
    },
    {
      "midi": 60,
      "hit": false,
      "t": 187285.52699999968,
      "d": 419.64243750000605,
      "v": 42
    },
    {
      "midi": 67,
      "hit": false,
      "t": 187714.09799999968,
      "d": 691.9635937499988,
      "v": 60
    },
    {
      "midi": 62,
      "hit": false,
      "t": 187714.09799999968,
      "d": 723.2135624999937,
      "v": 60
    },
    {
      "midi": 64,
      "hit": false,
      "t": 187714.09799999968,
      "d": 741.0706875000033,
      "v": 73
    },
    {
      "midi": 60,
      "hit": false,
      "t": 188142.66899999967,
      "d": 209.82121875000303,
      "v": 67
    },
    {
      "midi": 64,
      "hit": false,
      "t": 188571.23999999967,
      "d": 723.2135624999646,
      "v": 49
    },
    {
      "midi": 59,
      "hit": false,
      "t": 188571.23999999967,
      "d": 741.0706874999742,
      "v": 71
    },
    {
      "midi": 60,
      "hit": false,
      "t": 188571.23999999967,
      "d": 785.7134999999835,
      "v": 65
    },
    {
      "midi": 45,
      "hit": false,
      "t": 188571.23999999967,
      "d": 5174.101968749979,
      "v": 74
    },
    {
      "midi": 57,
      "hit": false,
      "t": 188999.81099999964,
      "d": 450.89240625003004,
      "v": 33
    },
    {
      "midi": 64,
      "hit": false,
      "t": 189428.38199999966,
      "d": 642.8564999999944,
      "v": 61
    },
    {
      "midi": 59,
      "hit": false,
      "t": 189428.38199999966,
      "d": 741.0706875000033,
      "v": 65
    },
    {
      "midi": 57,
      "hit": false,
      "t": 189856.95299999966,
      "d": 352.6782187500212,
      "v": 20
    },
    {
      "midi": 64,
      "hit": false,
      "t": 190285.52399999968,
      "d": 674.1064687499893,
      "v": 53
    },
    {
      "midi": 59,
      "hit": false,
      "t": 190285.52399999968,
      "d": 754.4635312499886,
      "v": 62
    },
    {
      "midi": 57,
      "hit": false,
      "t": 190714.09499999968,
      "d": 339.28537500000675,
      "v": 55
    },
    {
      "midi": 64,
      "hit": false,
      "t": 191142.66599999968,
      "d": 741.0706875000033,
      "v": 64
    },
    {
      "midi": 59,
      "hit": false,
      "t": 191142.66599999968,
      "d": 772.3206562499981,
      "v": 74
    },
    {
      "midi": 57,
      "hit": false,
      "t": 191571.23699999967,
      "d": 241.0711874999979,
      "v": 38
    },
    {
      "midi": 41,
      "hit": false,
      "t": 191999.80799999967,
      "d": 5656.244343749975,
      "v": 68
    },
    {
      "midi": 57,
      "hit": false,
      "t": 192428.37899999967,
      "d": 464.28524999998626,
      "v": 46
    },
    {
      "midi": 60,
      "hit": false,
      "t": 192856.94999999966,
      "d": 8.928562499990221,
      "v": 72
    },
    {
      "midi": 65,
      "hit": false,
      "t": 192856.94999999966,
      "d": 499.99950000000536,
      "v": 68
    },
    {
      "midi": 57,
      "hit": false,
      "t": 193285.52099999966,
      "d": 433.0352812499914,
      "v": 69
    },
    {
      "midi": 67,
      "hit": false,
      "t": 193714.09199999965,
      "d": 339.28537500000675,
      "v": 93
    },
    {
      "midi": 60,
      "hit": false,
      "t": 193714.09199999965,
      "d": 383.92818750001607,
      "v": 87
    },
    {
      "midi": 57,
      "hit": false,
      "t": 193928.37749999965,
      "d": 482.1423750000249,
      "v": 60
    },
    {
      "midi": 60,
      "hit": false,
      "t": 194356.94849999968,
      "d": 107.14274999999907,
      "v": 90
    },
    {
      "midi": 65,
      "hit": false,
      "t": 194356.94849999968,
      "d": 401.7853124999965,
      "v": 94
    },
    {
      "midi": 53,
      "hit": false,
      "t": 194571.23399999968,
      "d": 915.1776562499872,
      "v": 76
    },
    {
      "midi": 57,
      "hit": false,
      "t": 194785.51949999967,
      "d": 160.7141249999986,
      "v": 76
    },
    {
      "midi": 64,
      "hit": false,
      "t": 194999.80499999967,
      "d": 370.53534375000163,
      "v": 87
    },
    {
      "midi": 40,
      "hit": false,
      "t": 195428.37599999967,
      "d": 2392.8547499999695,
      "v": 78
    },
    {
      "midi": 52,
      "hit": false,
      "t": 195428.37599999967,
      "d": 2941.9613437499793,
      "v": 76
    },
    {
      "midi": 55,
      "hit": false,
      "t": 195856.94699999967,
      "d": 544.6423124999856,
      "v": 58
    },
    {
      "midi": 59,
      "hit": false,
      "t": 196071.23249999966,
      "d": 142.85699999998906,
      "v": 71
    },
    {
      "midi": 59,
      "hit": false,
      "t": 196285.51799999966,
      "d": 8.928562499990221,
      "v": 53
    },
    {
      "midi": 67,
      "hit": false,
      "t": 196285.51799999966,
      "d": 401.7853124999965,
      "v": 102
    },
    {
      "midi": 62,
      "hit": false,
      "t": 196499.80349999966,
      "d": 312.499687500007,
      "v": 91
    },
    {
      "midi": 59,
      "hit": false,
      "t": 196714.08899999966,
      "d": 352.6782187499921,
      "v": 85
    },
    {
      "midi": 55,
      "hit": false,
      "t": 196928.37449999966,
      "d": 272.3211562499928,
      "v": 80
    },
    {
      "midi": 43,
      "hit": false,
      "t": 197142.65999999965,
      "d": 2589.283124999987,
      "v": 93
    },
    {
      "midi": 53,
      "hit": false,
      "t": 197356.94549999965,
      "d": 531.2494687500002,
      "v": 69
    },
    {
      "midi": 59,
      "hit": false,
      "t": 197571.23099999965,
      "d": 183.03553125000326,
      "v": 77
    },
    {
      "midi": 62,
      "hit": false,
      "t": 197785.51649999965,
      "d": 464.28524999998626,
      "v": 90
    },
    {
      "midi": 50,
      "hit": false,
      "t": 197999.80199999965,
      "d": 1174.1059687499946,
      "v": 67
    },
    {
      "midi": 53,
      "hit": false,
      "t": 198214.08749999964,
      "d": 383.92818749998696,
      "v": 53
    },
    {
      "midi": 59,
      "hit": false,
      "t": 198428.37299999964,
      "d": 160.7141249999986,
      "v": 59
    },
    {
      "midi": 64,
      "hit": false,
      "t": 198856.94399999964,
      "d": 705.3564374999842,
      "v": 6
    },
    {
      "midi": 62,
      "hit": false,
      "t": 198856.94399999964,
      "d": 754.4635312499886,
      "v": 27
    },
    {
      "midi": 48,
      "hit": false,
      "t": 198856.94399999964,
      "d": 5848.208437500027,
      "v": 93
    },
    {
      "midi": 67,
      "hit": false,
      "t": 199071.22949999964,
      "d": 499.99949999997625,
      "v": 6
    },
    {
      "midi": 60,
      "hit": false,
      "t": 199285.51499999964,
      "d": 660.713625000004,
      "v": 73
    },
    {
      "midi": 67,
      "hit": false,
      "t": 199714.08599999963,
      "d": 593.74940624999,
      "v": 40
    },
    {
      "midi": 64,
      "hit": false,
      "t": 199714.08599999963,
      "d": 705.3564374999842,
      "v": 59
    },
    {
      "midi": 62,
      "hit": false,
      "t": 199714.08599999963,
      "d": 741.0706874999742,
      "v": 54
    },
    {
      "midi": 60,
      "hit": false,
      "t": 200142.65699999963,
      "d": 513.3923437499616,
      "v": 55
    },
    {
      "midi": 67,
      "hit": false,
      "t": 200571.2279999996,
      "d": 544.6423124999856,
      "v": 37
    },
    {
      "midi": 64,
      "hit": false,
      "t": 200571.2279999996,
      "d": 624.9993749999849,
      "v": 33
    },
    {
      "midi": 62,
      "hit": false,
      "t": 200571.2279999996,
      "d": 660.7136249999749,
      "v": 6
    },
    {
      "midi": 60,
      "hit": false,
      "t": 200999.7989999996,
      "d": 383.92818749998696,
      "v": 54
    },
    {
      "midi": 67,
      "hit": false,
      "t": 201428.3699999996,
      "d": 741.0706875000033,
      "v": 81
    },
    {
      "midi": 64,
      "hit": false,
      "t": 201428.3699999996,
      "d": 754.4635312500177,
      "v": 81
    },
    {
      "midi": 62,
      "hit": false,
      "t": 201428.3699999996,
      "d": 785.7135000000126,
      "v": 81
    },
    {
      "midi": 60,
      "hit": false,
      "t": 201856.94099999958,
      "d": 111.60703124999418,
      "v": 74
    },
    {
      "midi": 59,
      "hit": false,
      "t": 202285.5119999996,
      "d": 741.0706875000033,
      "v": 63
    },
    {
      "midi": 60,
      "hit": false,
      "t": 202285.5119999996,
      "d": 741.0706875000033,
      "v": 62
    },
    {
      "midi": 64,
      "hit": false,
      "t": 202285.5119999996,
      "d": 785.7135000000126,
      "v": 38
    },
    {
      "midi": 45,
      "hit": false,
      "t": 202285.5119999996,
      "d": 4580.352562500018,
      "v": 73
    },
    {
      "midi": 57,
      "hit": false,
      "t": 202714.0829999996,
      "d": 464.28525000001537,
      "v": 65
    },
    {
      "midi": 64,
      "hit": false,
      "t": 203142.65399999963,
      "d": 705.3564374999842,
      "v": 45
    },
    {
      "midi": 60,
      "hit": false,
      "t": 203142.65399999963,
      "d": 723.2135624999937,
      "v": 70
    },
    {
      "midi": 59,
      "hit": false,
      "t": 203142.65399999963,
      "d": 741.0706875000033,
      "v": 61
    },
    {
      "midi": 57,
      "hit": false,
      "t": 203571.22499999963,
      "d": 383.92818750001607,
      "v": 15
    },
    {
      "midi": 64,
      "hit": false,
      "t": 203999.79599999965,
      "d": 611.6065312499995,
      "v": 42
    },
    {
      "midi": 59,
      "hit": false,
      "t": 203999.79599999965,
      "d": 705.3564375000133,
      "v": 52
    },
    {
      "midi": 60,
      "hit": false,
      "t": 203999.79599999965,
      "d": 741.0706875000033,
      "v": 59
    },
    {
      "midi": 57,
      "hit": false,
      "t": 204428.36699999965,
      "d": 370.53534375000163,
      "v": 54
    },
    {
      "midi": 60,
      "hit": false,
      "t": 204856.93799999965,
      "d": 691.9635937499988,
      "v": 82
    },
    {
      "midi": 64,
      "hit": false,
      "t": 204856.93799999965,
      "d": 723.2135624999937,
      "v": 81
    },
    {
      "midi": 59,
      "hit": false,
      "t": 204856.93799999965,
      "d": 741.0706875000033,
      "v": 75
    },
    {
      "midi": 57,
      "hit": false,
      "t": 205285.50899999964,
      "d": 482.1423749999958,
      "v": 74
    },
    {
      "midi": 65,
      "hit": false,
      "t": 205714.07999999964,
      "d": 723.2135624999937,
      "v": 79
    },
    {
      "midi": 41,
      "hit": false,
      "t": 205714.07999999964,
      "d": 5513.387343749957,
      "v": 59
    },
    {
      "midi": 53,
      "hit": false,
      "t": 205714.07999999964,
      "d": 5575.887281249947,
      "v": 64
    },
    {
      "midi": 57,
      "hit": false,
      "t": 206142.65099999963,
      "d": 513.3923437499907,
      "v": 69
    },
    {
      "midi": 60,
      "hit": false,
      "t": 206571.22199999963,
      "d": 428.5709999999963,
      "v": 77
    },
    {
      "midi": 67,
      "hit": false,
      "t": 206571.22199999963,
      "d": 754.4635312499886,
      "v": 88
    },
    {
      "midi": 57,
      "hit": false,
      "t": 206999.79299999963,
      "d": 531.2494687500002,
      "v": 46
    },
    {
      "midi": 60,
      "hit": false,
      "t": 207428.36399999962,
      "d": 642.8564999999944,
      "v": 76
    },
    {
      "midi": 65,
      "hit": false,
      "t": 207428.36399999962,
      "d": 705.3564374999842,
      "v": 80
    },
    {
      "midi": 57,
      "hit": false,
      "t": 207856.93499999962,
      "d": 464.28524999998626,
      "v": 64
    },
    {
      "midi": 65,
      "hit": false,
      "t": 208285.50599999962,
      "d": 321.4282499999972,
      "v": 102
    },
    {
      "midi": 64,
      "hit": false,
      "t": 208499.7914999996,
      "d": 383.92818749998696,
      "v": 89
    },
    {
      "midi": 62,
      "hit": false,
      "t": 208714.0769999996,
      "d": 428.5709999999963,
      "v": 85
    },
    {
      "midi": 59,
      "hit": false,
      "t": 209142.6479999996,
      "d": 883.9276874999923,
      "v": 90
    },
    {
      "midi": 62,
      "hit": false,
      "t": 209142.6479999996,
      "d": 901.7848125000019,
      "v": 92
    },
    {
      "midi": 52,
      "hit": false,
      "t": 209142.6479999996,
      "d": 3022.3184062499786,
      "v": 88
    },
    {
      "midi": 55,
      "hit": false,
      "t": 209571.2189999996,
      "d": 531.2494687500002,
      "v": 85
    },
    {
      "midi": 67,
      "hit": false,
      "t": 209999.7899999996,
      "d": 499.99950000000536,
      "v": 103
    },
    {
      "midi": 62,
      "hit": false,
      "t": 210214.0754999996,
      "d": 482.1423749999958,
      "v": 94
    },
    {
      "midi": 59,
      "hit": false,
      "t": 210428.3609999996,
      "d": 383.92818749998696,
      "v": 94
    },
    {
      "midi": 55,
      "hit": false,
      "t": 210642.6464999996,
      "d": 209.82121875000303,
      "v": 82
    },
    {
      "midi": 62,
      "hit": false,
      "t": 210856.9319999996,
      "d": 624.9993749999849,
      "v": 95
    },
    {
      "midi": 43,
      "hit": false,
      "t": 210856.9319999996,
      "d": 2781.2472187499807,
      "v": 94
    },
    {
      "midi": 55,
      "hit": false,
      "t": 211071.2174999996,
      "d": 513.3923437499907,
      "v": 87
    },
    {
      "midi": 59,
      "hit": false,
      "t": 211285.5029999996,
      "d": 191.96409374999348,
      "v": 84
    },
    {
      "midi": 62,
      "hit": false,
      "t": 211499.7884999996,
      "d": 464.28524999998626,
      "v": 96
    },
    {
      "midi": 57,
      "hit": false,
      "t": 211499.7884999996,
      "d": 482.1423749999958,
      "v": 101
    },
    {
      "midi": 50,
      "hit": false,
      "t": 211714.0739999996,
      "d": 1285.7129999999888,
      "v": 85
    },
    {
      "midi": 55,
      "hit": false,
      "t": 211928.35949999958,
      "d": 428.5709999999963,
      "v": 82
    },
    {
      "midi": 59,
      "hit": false,
      "t": 212142.64499999958,
      "d": 428.5709999999963,
      "v": 92
    },
    {
      "midi": 62,
      "hit": false,
      "t": 212142.64499999958,
      "d": 428.5709999999963,
      "v": 95
    },
    {
      "midi": 48,
      "hit": false,
      "t": 212571.21599999958,
      "d": 2763.390093749971,
      "v": 102
    },
    {
      "midi": 72,
      "hit": false,
      "t": 212571.21599999967,
      "d": 241.0711874999979,
      "v": 101
    },
    {
      "midi": 60,
      "hit": false,
      "t": 212571.21599999967,
      "d": 1535.712749999977,
      "v": 97
    },
    {
      "midi": 67,
      "hit": false,
      "t": 212785.50149999966,
      "d": 1196.4273749999702,
      "v": 89
    },
    {
      "midi": 60,
      "hit": false,
      "t": 212999.78699999957,
      "d": 642.8564999999944,
      "v": 101
    },
    {
      "midi": 72,
      "hit": false,
      "t": 212999.78699999966,
      "d": 937.4990624999627,
      "v": 96
    },
    {
      "midi": 62,
      "hit": false,
      "t": 213214.07249999957,
      "d": 499.99950000000536,
      "v": 100
    },
    {
      "midi": 74,
      "hit": false,
      "t": 213214.07249999966,
      "d": 276.7854374999879,
      "v": 95
    },
    {
      "midi": 64,
      "hit": false,
      "t": 213428.35799999957,
      "d": 499.99950000000536,
      "v": 96
    },
    {
      "midi": 76,
      "hit": false,
      "t": 213428.35799999966,
      "d": 276.7854374999588,
      "v": 91
    },
    {
      "midi": 67,
      "hit": false,
      "t": 213642.64349999957,
      "d": 857.1419999999925,
      "v": 105
    },
    {
      "midi": 79,
      "hit": false,
      "t": 213642.64349999963,
      "d": 294.64256249999744,
      "v": 100
    },
    {
      "midi": 60,
      "hit": false,
      "t": 214285.49999999956,
      "d": 401.7853124999965,
      "v": 106
    },
    {
      "midi": 52,
      "hit": false,
      "t": 214285.49999999956,
      "d": 2955.3541874999646,
      "v": 96
    },
    {
      "midi": 72,
      "hit": false,
      "t": 214285.49999999965,
      "d": 232.14262500000768,
      "v": 101
    },
    {
      "midi": 64,
      "hit": false,
      "t": 214285.49999999965,
      "d": 1642.8555000000051,
      "v": 91
    },
    {
      "midi": 55,
      "hit": false,
      "t": 214499.78549999956,
      "d": 437.4995624999865,
      "v": 93
    },
    {
      "midi": 67,
      "hit": false,
      "t": 214499.78549999965,
      "d": 776.7849375000224,
      "v": 88
    },
    {
      "midi": 60,
      "hit": false,
      "t": 214714.07099999956,
      "d": 1638.391218749981,
      "v": 98
    },
    {
      "midi": 72,
      "hit": false,
      "t": 214714.07099999968,
      "d": 910.7133749999921,
      "v": 93
    },
    {
      "midi": 62,
      "hit": false,
      "t": 214928.35649999956,
      "d": 544.6423124999856,
      "v": 96
    },
    {
      "midi": 74,
      "hit": false,
      "t": 214928.35649999967,
      "d": 303.57112499998766,
      "v": 91
    },
    {
      "midi": 64,
      "hit": false,
      "t": 215142.64199999956,
      "d": 464.28524999998626,
      "v": 91
    },
    {
      "midi": 76,
      "hit": false,
      "t": 215142.64199999967,
      "d": 258.92831250000745,
      "v": 86
    },
    {
      "midi": 67,
      "hit": false,
      "t": 215356.92749999955,
      "d": 857.1419999999925,
      "v": 105
    },
    {
      "midi": 79,
      "hit": false,
      "t": 215356.92749999967,
      "d": 232.14262500000768,
      "v": 100
    },
    {
      "midi": 65,
      "hit": false,
      "t": 215999.78399999955,
      "d": 660.713625000004,
      "v": 101
    },
    {
      "midi": 53,
      "hit": false,
      "t": 215999.78399999955,
      "d": 2892.854250000004,
      "v": 103
    },
    {
      "midi": 77,
      "hit": false,
      "t": 215999.78399999966,
      "d": 366.0710625000065,
      "v": 96
    },
    {
      "midi": 65,
      "hit": false,
      "t": 215999.78399999966,
      "d": 1607.141249999957,
      "v": 98
    },
    {
      "midi": 57,
      "hit": false,
      "t": 216214.06949999955,
      "d": 2008.9265624999825,
      "v": 82
    },
    {
      "midi": 69,
      "hit": false,
      "t": 216214.06949999966,
      "d": 1116.0703125,
      "v": 77
    },
    {
      "midi": 60,
      "hit": false,
      "t": 216428.35499999954,
      "d": 1638.391218749981,
      "v": 92
    },
    {
      "midi": 72,
      "hit": false,
      "t": 216428.35499999966,
      "d": 910.7133749999921,
      "v": 87
    },
    {
      "midi": 62,
      "hit": false,
      "t": 216642.64049999954,
      "d": 1316.9629687499837,
      "v": 94
    },
    {
      "midi": 74,
      "hit": false,
      "t": 216642.64049999966,
      "d": 732.1421249999839,
      "v": 89
    },
    {
      "midi": 77,
      "hit": false,
      "t": 216856.92599999966,
      "d": 62.499937499989755,
      "v": 64
    },
    {
      "midi": 65,
      "hit": false,
      "t": 217071.21149999954,
      "d": 214.28549999999814,
      "v": 100
    },
    {
      "midi": 77,
      "hit": false,
      "t": 217071.21149999966,
      "d": 312.4996874999779,
      "v": 95
    },
    {
      "midi": 62,
      "hit": false,
      "t": 218142.63899999953,
      "d": 691.9635937499988,
      "v": 104
    },
    {
      "midi": 67,
      "hit": false,
      "t": 218142.63899999953,
      "d": 705.3564375000133,
      "v": 109
    },
    {
      "midi": 71,
      "hit": false,
      "t": 218142.63899999953,
      "d": 723.2135625000228,
      "v": 106
    },
    {
      "midi": 55,
      "hit": false,
      "t": 218142.63899999953,
      "d": 785.7135000000126,
      "v": 102
    },
    {
      "midi": 74,
      "hit": false,
      "t": 218142.63899999962,
      "d": 383.92818749998696,
      "v": 99
    },
    {
      "midi": 79,
      "hit": false,
      "t": 218142.63899999962,
      "d": 392.8567499999772,
      "v": 104
    },
    {
      "midi": 83,
      "hit": false,
      "t": 218142.63899999962,
      "d": 401.7853124999674,
      "v": 101
    },
    {
      "midi": 67,
      "hit": false,
      "t": 218142.63899999962,
      "d": 437.4995624999574,
      "v": 97
    },
    {
      "midi": 57,
      "hit": false,
      "t": 218785.49549999952,
      "d": 428.5710000000254,
      "v": 96
    },
    {
      "midi": 64,
      "hit": false,
      "t": 218785.49549999952,
      "d": 428.5710000000254,
      "v": 101
    },
    {
      "midi": 69,
      "hit": false,
      "t": 218785.49549999952,
      "d": 428.5710000000254,
      "v": 105
    },
    {
      "midi": 72,
      "hit": false,
      "t": 218785.49549999952,
      "d": 428.5710000000254,
      "v": 104
    },
    {
      "midi": 81,
      "hit": false,
      "t": 218785.49549999955,
      "d": 178.57125000000815,
      "v": 100
    },
    {
      "midi": 84,
      "hit": false,
      "t": 218785.49549999955,
      "d": 187.49981249999837,
      "v": 99
    },
    {
      "midi": 76,
      "hit": false,
      "t": 218785.49549999955,
      "d": 196.4283749999886,
      "v": 96
    },
    {
      "midi": 69,
      "hit": false,
      "t": 218785.49549999955,
      "d": 205.3569374999788,
      "v": 91
    },
    {
      "midi": 76,
      "hit": false,
      "t": 219428.35199999952,
      "d": 312.499687500007,
      "v": 101
    },
    {
      "midi": 60,
      "hit": false,
      "t": 219428.35199999952,
      "d": 1392.855749999988,
      "v": 95
    },
    {
      "midi": 64,
      "hit": false,
      "t": 219428.35199999955,
      "d": 562.4994374999951,
      "v": 106
    },
    {
      "midi": 48,
      "hit": false,
      "t": 219428.35199999955,
      "d": 2508.926062499988,
      "v": 100
    },
    {
      "midi": 67,
      "hit": false,
      "t": 219642.63749999952,
      "d": 1142.8559999999998,
      "v": 87
    },
    {
      "midi": 72,
      "hit": false,
      "t": 219856.92299999952,
      "d": 937.4990624999919,
      "v": 94
    },
    {
      "midi": 60,
      "hit": false,
      "t": 219856.92299999954,
      "d": 1687.4983124999853,
      "v": 99
    },
    {
      "midi": 74,
      "hit": false,
      "t": 220071.2084999995,
      "d": 249.99974999998813,
      "v": 95
    },
    {
      "midi": 62,
      "hit": false,
      "t": 220071.20849999954,
      "d": 450.89240625000093,
      "v": 100
    },
    {
      "midi": 76,
      "hit": false,
      "t": 220285.4939999995,
      "d": 196.4283749999886,
      "v": 91
    },
    {
      "midi": 64,
      "hit": false,
      "t": 220285.49399999954,
      "d": 352.6782187499921,
      "v": 96
    },
    {
      "midi": 79,
      "hit": false,
      "t": 220499.7794999995,
      "d": 258.92831250000745,
      "v": 98
    },
    {
      "midi": 67,
      "hit": false,
      "t": 220499.77949999954,
      "d": 464.28524999998626,
      "v": 103
    },
    {
      "midi": 76,
      "hit": false,
      "t": 221142.6359999995,
      "d": 321.4282499999972,
      "v": 98
    },
    {
      "midi": 64,
      "hit": false,
      "t": 221142.6359999995,
      "d": 1419.6414374999586,
      "v": 98
    },
    {
      "midi": 64,
      "hit": false,
      "t": 221142.63599999953,
      "d": 580.3565625000047,
      "v": 103
    },
    {
      "midi": 52,
      "hit": false,
      "t": 221142.63599999953,
      "d": 2553.568874999997,
      "v": 103
    },
    {
      "midi": 67,
      "hit": false,
      "t": 221356.9214999995,
      "d": 1080.3560624999518,
      "v": 89
    },
    {
      "midi": 55,
      "hit": false,
      "t": 221356.92149999953,
      "d": 343.74965625000186,
      "v": 94
    },
    {
      "midi": 72,
      "hit": false,
      "t": 221571.2069999995,
      "d": 919.6419374999532,
      "v": 95
    },
    {
      "midi": 74,
      "hit": false,
      "t": 221785.4924999995,
      "d": 258.92831249997835,
      "v": 93
    },
    {
      "midi": 62,
      "hit": false,
      "t": 221785.49249999953,
      "d": 464.28525000001537,
      "v": 98
    },
    {
      "midi": 76,
      "hit": false,
      "t": 221999.7779999995,
      "d": 214.28549999996903,
      "v": 91
    },
    {
      "midi": 76,
      "hit": false,
      "t": 222214.06349999947,
      "d": 8.928562499990221,
      "v": 1
    },
    {
      "midi": 79,
      "hit": false,
      "t": 222214.06349999947,
      "d": 249.99974999998813,
      "v": 99
    },
    {
      "midi": 64,
      "hit": false,
      "t": 222214.06349999952,
      "d": 17.857125000009546,
      "v": 6
    },
    {
      "midi": 67,
      "hit": false,
      "t": 222214.06349999952,
      "d": 450.89240625003004,
      "v": 104
    },
    {
      "midi": 72,
      "hit": false,
      "t": 222856.91999999946,
      "d": 89.28562499998952,
      "v": 88
    },
    {
      "midi": 77,
      "hit": false,
      "t": 222856.91999999946,
      "d": 419.64243750000605,
      "v": 98
    },
    {
      "midi": 65,
      "hit": false,
      "t": 222856.91999999946,
      "d": 1455.3556874999776,
      "v": 95
    },
    {
      "midi": 60,
      "hit": false,
      "t": 222856.91999999955,
      "d": 160.7141249999986,
      "v": 93
    },
    {
      "midi": 65,
      "hit": false,
      "t": 222856.91999999955,
      "d": 754.4635312499886,
      "v": 103
    },
    {
      "midi": 69,
      "hit": false,
      "t": 223071.20549999946,
      "d": 1044.641812499991,
      "v": 77
    },
    {
      "midi": 57,
      "hit": false,
      "t": 223071.20549999955,
      "d": 1879.462406250008,
      "v": 82
    },
    {
      "midi": 72,
      "hit": false,
      "t": 223285.49099999946,
      "d": 848.2134375000023,
      "v": 93
    },
    {
      "midi": 60,
      "hit": false,
      "t": 223285.49099999954,
      "d": 1526.7841875000158,
      "v": 98
    },
    {
      "midi": 74,
      "hit": false,
      "t": 223499.77649999945,
      "d": 687.4993125000037,
      "v": 89
    },
    {
      "midi": 62,
      "hit": false,
      "t": 223499.77649999954,
      "d": 1236.6059062500135,
      "v": 94
    },
    {
      "midi": 77,
      "hit": false,
      "t": 223714.06199999945,
      "d": 482.1423749999958,
      "v": 93
    },
    {
      "midi": 65,
      "hit": false,
      "t": 223714.06199999954,
      "d": 866.0705625000119,
      "v": 98
    },
    {
      "midi": 79,
      "hit": false,
      "t": 224999.77499999944,
      "d": 330.3568124999874,
      "v": 100
    },
    {
      "midi": 83,
      "hit": false,
      "t": 224999.77499999944,
      "d": 330.3568124999874,
      "v": 94
    },
    {
      "midi": 74,
      "hit": false,
      "t": 224999.77499999944,
      "d": 339.28537499997765,
      "v": 94
    },
    {
      "midi": 65,
      "hit": false,
      "t": 224999.77499999944,
      "d": 357.1424999999872,
      "v": 87
    },
    {
      "midi": 53,
      "hit": false,
      "t": 224999.77499999956,
      "d": 477.6780937500007,
      "v": 92
    },
    {
      "midi": 67,
      "hit": false,
      "t": 224999.77499999956,
      "d": 593.74940624999,
      "v": 105
    },
    {
      "midi": 71,
      "hit": false,
      "t": 224999.77499999956,
      "d": 593.74940624999,
      "v": 99
    },
    {
      "midi": 62,
      "hit": false,
      "t": 224999.77499999956,
      "d": 611.6065312499995,
      "v": 99
    },
    {
      "midi": 81,
      "hit": false,
      "t": 225642.63149999944,
      "d": 160.7141249999986,
      "v": 102
    },
    {
      "midi": 84,
      "hit": false,
      "t": 225642.63149999944,
      "d": 178.57125000000815,
      "v": 98
    },
    {
      "midi": 65,
      "hit": false,
      "t": 225642.63149999944,
      "d": 205.35693750000792,
      "v": 91
    },
    {
      "midi": 76,
      "hit": false,
      "t": 225642.63149999944,
      "d": 205.35693750000792,
      "v": 92
    },
    {
      "midi": 64,
      "hit": false,
      "t": 225642.63149999955,
      "d": 428.5709999999963,
      "v": 97
    },
    {
      "midi": 69,
      "hit": false,
      "t": 225642.63149999955,
      "d": 428.5709999999963,
      "v": 107
    },
    {
      "midi": 72,
      "hit": false,
      "t": 225642.63149999955,
      "d": 428.5709999999963,
      "v": 103
    },
    {
      "midi": 72,
      "hit": false,
      "t": 226285.48799999946,
      "d": 214.28549999999814,
      "v": 98
    },
    {
      "midi": 76,
      "hit": false,
      "t": 226285.48799999946,
      "d": 366.0710625000065,
      "v": 98
    },
    {
      "midi": 60,
      "hit": false,
      "t": 226285.48799999946,
      "d": 1339.2843749999593,
      "v": 93
    },
    {
      "midi": 60,
      "hit": false,
      "t": 226285.48799999955,
      "d": 383.92818749998696,
      "v": 103
    },
    {
      "midi": 64,
      "hit": false,
      "t": 226285.48799999955,
      "d": 660.713625000004,
      "v": 103
    },
    {
      "midi": 48,
      "hit": false,
      "t": 226285.48799999955,
      "d": 2410.71187499995,
      "v": 98
    },
    {
      "midi": 67,
      "hit": false,
      "t": 226499.77349999946,
      "d": 1107.1417499999516,
      "v": 86
    },
    {
      "midi": 72,
      "hit": false,
      "t": 226714.05899999946,
      "d": 910.713374999963,
      "v": 95
    },
    {
      "midi": 60,
      "hit": false,
      "t": 226714.05899999954,
      "d": 1638.391218749981,
      "v": 100
    },
    {
      "midi": 74,
      "hit": false,
      "t": 226928.34449999945,
      "d": 241.0711874999979,
      "v": 95
    },
    {
      "midi": 62,
      "hit": false,
      "t": 226928.34449999954,
      "d": 433.0352812499914,
      "v": 100
    },
    {
      "midi": 76,
      "hit": false,
      "t": 227142.62999999945,
      "d": 205.3569374999788,
      "v": 91
    },
    {
      "midi": 64,
      "hit": false,
      "t": 227142.62999999954,
      "d": 370.53534375000163,
      "v": 96
    },
    {
      "midi": 79,
      "hit": false,
      "t": 227356.91549999942,
      "d": 241.0711874999979,
      "v": 100
    },
    {
      "midi": 67,
      "hit": false,
      "t": 227356.91549999954,
      "d": 433.0352812499914,
      "v": 105
    },
    {
      "midi": 76,
      "hit": false,
      "t": 227999.77199999942,
      "d": 321.4282499999972,
      "v": 98
    },
    {
      "midi": 64,
      "hit": false,
      "t": 227999.77199999942,
      "d": 1428.5699999999488,
      "v": 98
    },
    {
      "midi": 64,
      "hit": false,
      "t": 227999.77199999953,
      "d": 580.3565624999756,
      "v": 103
    },
    {
      "midi": 52,
      "hit": false,
      "t": 227999.77199999953,
      "d": 2571.4259999999485,
      "v": 103
    },
    {
      "midi": 67,
      "hit": false,
      "t": 228214.0574999994,
      "d": 883.9276874999632,
      "v": 87
    },
    {
      "midi": 55,
      "hit": false,
      "t": 228214.05749999953,
      "d": 276.7854374999879,
      "v": 92
    },
    {
      "midi": 72,
      "hit": false,
      "t": 228428.3429999994,
      "d": 910.713374999963,
      "v": 95
    },
    {
      "midi": 74,
      "hit": false,
      "t": 228642.6284999994,
      "d": 241.0711874999979,
      "v": 96
    },
    {
      "midi": 62,
      "hit": false,
      "t": 228642.6284999995,
      "d": 433.0352812499914,
      "v": 101
    },
    {
      "midi": 76,
      "hit": false,
      "t": 228856.9139999994,
      "d": 205.3569374999788,
      "v": 91
    },
    {
      "midi": 64,
      "hit": false,
      "t": 228856.9139999995,
      "d": 370.53534375000163,
      "v": 96
    },
    {
      "midi": 79,
      "hit": false,
      "t": 229071.19949999938,
      "d": 232.14262500000768,
      "v": 100
    },
    {
      "midi": 67,
      "hit": false,
      "t": 229071.1994999995,
      "d": 419.64243750000605,
      "v": 105
    },
    {
      "midi": 72,
      "hit": false,
      "t": 229714.05599999934,
      "d": 223.21406249998836,
      "v": 97
    },
    {
      "midi": 77,
      "hit": false,
      "t": 229714.05599999934,
      "d": 294.64256249999744,
      "v": 97
    },
    {
      "midi": 65,
      "hit": false,
      "t": 229714.05599999934,
      "d": 1303.5701249999984,
      "v": 95
    },
    {
      "midi": 60,
      "hit": false,
      "t": 229714.0559999995,
      "d": 352.6782187499921,
      "v": 102
    },
    {
      "midi": 65,
      "hit": false,
      "t": 229714.0559999995,
      "d": 531.2494687500002,
      "v": 102
    },
    {
      "midi": 53,
      "hit": false,
      "t": 229714.0559999995,
      "d": 2348.2119374999893,
      "v": 100
    },
    {
      "midi": 69,
      "hit": false,
      "t": 229928.34149999934,
      "d": 553.5708750000049,
      "v": 86
    },
    {
      "midi": 57,
      "hit": false,
      "t": 229928.3414999995,
      "d": 995.5347187499865,
      "v": 91
    },
    {
      "midi": 72,
      "hit": false,
      "t": 230142.62699999934,
      "d": 705.3564374999842,
      "v": 94
    },
    {
      "midi": 60,
      "hit": false,
      "t": 230142.62699999948,
      "d": 1267.8558749999793,
      "v": 99
    },
    {
      "midi": 77,
      "hit": false,
      "t": 230356.91249999934,
      "d": 535.7137499999953,
      "v": 89
    },
    {
      "midi": 65,
      "hit": false,
      "t": 230356.91249999948,
      "d": 964.2847499999916,
      "v": 94
    },
    {
      "midi": 81,
      "hit": false,
      "t": 230571.19799999933,
      "d": 107.14274999999907,
      "v": 93
    },
    {
      "midi": 69,
      "hit": false,
      "t": 230571.19799999948,
      "d": 428.5709999999963,
      "v": 98
    },
    {
      "midi": 78,
      "hit": false,
      "t": 231428.33999999933,
      "d": 232.14262500000768,
      "v": 103
    },
    {
      "midi": 81,
      "hit": false,
      "t": 231428.33999999933,
      "d": 241.0711874999979,
      "v": 100
    },
    {
      "midi": 66,
      "hit": false,
      "t": 231428.33999999933,
      "d": 1464.284249999997,
      "v": 94
    },
    {
      "midi": 66,
      "hit": false,
      "t": 231428.33999999947,
      "d": 419.64243750000605,
      "v": 108
    },
    {
      "midi": 69,
      "hit": false,
      "t": 231428.33999999947,
      "d": 433.0352812499914,
      "v": 105
    },
    {
      "midi": 54,
      "hit": false,
      "t": 231428.33999999947,
      "d": 2633.9259374999674,
      "v": 99
    },
    {
      "midi": 74,
      "hit": false,
      "t": 231642.62549999933,
      "d": 589.2851249999949,
      "v": 84
    },
    {
      "midi": 62,
      "hit": false,
      "t": 231642.62549999947,
      "d": 1062.4989375000005,
      "v": 89
    },
    {
      "midi": 78,
      "hit": false,
      "t": 231856.91099999932,
      "d": 678.5707499999844,
      "v": 96
    },
    {
      "midi": 81,
      "hit": false,
      "t": 232071.19649999932,
      "d": 241.0711874999979,
      "v": 96
    },
    {
      "midi": 86,
      "hit": false,
      "t": 232285.48199999932,
      "d": 374.99962499999674,
      "v": 98
    },
    {
      "midi": 74,
      "hit": false,
      "t": 232285.48199999947,
      "d": 674.1064687499893,
      "v": 103
    },
    {
      "midi": 81,
      "hit": false,
      "t": 232499.76749999932,
      "d": 276.7854374999879,
      "v": 96
    },
    {
      "midi": 69,
      "hit": false,
      "t": 232499.76749999946,
      "d": 428.5709999999963,
      "v": 101
    },
    {
      "midi": 78,
      "hit": false,
      "t": 232714.05299999932,
      "d": 160.7141249999986,
      "v": 95
    },
    {
      "midi": 66,
      "hit": false,
      "t": 232714.05299999946,
      "d": 366.0710625000065,
      "v": 100
    },
    {
      "midi": 74,
      "hit": false,
      "t": 232928.3384999993,
      "d": 8.928562499990221,
      "v": 1
    },
    {
      "midi": 62,
      "hit": false,
      "t": 232928.33849999946,
      "d": 428.5709999999963,
      "v": 6
    },
    {
      "midi": 76,
      "hit": false,
      "t": 233142.6239999993,
      "d": 214.28549999999814,
      "v": 98
    },
    {
      "midi": 79,
      "hit": false,
      "t": 233142.6239999993,
      "d": 607.1422500000044,
      "v": 99
    },
    {
      "midi": 67,
      "hit": false,
      "t": 233142.6239999993,
      "d": 3142.853999999992,
      "v": 96
    },
    {
      "midi": 64,
      "hit": false,
      "t": 233142.62399999946,
      "d": 383.92818749998696,
      "v": 103
    },
    {
      "midi": 72,
      "hit": false,
      "t": 233356.9094999993,
      "d": 732.1421249999839,
      "v": 86
    },
    {
      "midi": 76,
      "hit": false,
      "t": 233571.1949999993,
      "d": 446.4281250000058,
      "v": 97
    },
    {
      "midi": 84,
      "hit": false,
      "t": 233785.4804999993,
      "d": 267.8568749999977,
      "v": 102
    },
    {
      "midi": 72,
      "hit": false,
      "t": 233785.48049999945,
      "d": 482.1423749999958,
      "v": 107
    },
    {
      "midi": 79,
      "hit": false,
      "t": 233999.7659999993,
      "d": 437.4995624999865,
      "v": 91
    },
    {
      "midi": 67,
      "hit": false,
      "t": 233999.76599999945,
      "d": 236.6069062500028,
      "v": 96
    },
    {
      "midi": 76,
      "hit": false,
      "t": 234214.0514999993,
      "d": 205.35693750000792,
      "v": 91
    },
    {
      "midi": 64,
      "hit": false,
      "t": 234214.05149999945,
      "d": 370.53534375000163,
      "v": 96
    },
    {
      "midi": 72,
      "hit": false,
      "t": 234428.3369999993,
      "d": 455.35668749999604,
      "v": 91
    },
    {
      "midi": 60,
      "hit": false,
      "t": 234428.33699999945,
      "d": 642.8564999999944,
      "v": 96
    },
    {
      "midi": 72,
      "hit": false,
      "t": 235071.1934999993,
      "d": 785.7135000000126,
      "v": 97
    },
    {
      "midi": 60,
      "hit": false,
      "t": 235071.19349999944,
      "d": 178.57125000000815,
      "v": 102
    },
    {
      "midi": 76,
      "hit": false,
      "t": 235285.4789999993,
      "d": 446.4281250000058,
      "v": 97
    },
    {
      "midi": 84,
      "hit": false,
      "t": 235499.7644999993,
      "d": 285.7140000000072,
      "v": 102
    },
    {
      "midi": 72,
      "hit": false,
      "t": 235499.76449999944,
      "d": 513.3923437499907,
      "v": 107
    },
    {
      "midi": 79,
      "hit": false,
      "t": 235714.0499999993,
      "d": 419.64243750003516,
      "v": 96
    },
    {
      "midi": 67,
      "hit": false,
      "t": 235714.04999999944,
      "d": 754.4635312499886,
      "v": 101
    },
    {
      "midi": 76,
      "hit": false,
      "t": 235928.33549999932,
      "d": 249.99974999998813,
      "v": 91
    },
    {
      "midi": 64,
      "hit": false,
      "t": 235928.33549999943,
      "d": 160.7141249999986,
      "v": 96
    },
    {
      "midi": 72,
      "hit": false,
      "t": 236142.62099999932,
      "d": 116.07131249998929,
      "v": 97
    },
    {
      "midi": 60,
      "hit": false,
      "t": 236142.62099999943,
      "d": 209.82121875000303,
      "v": 102
    },
    {
      "midi": 74,
      "hit": false,
      "t": 236571.19199999928,
      "d": 249.99974999998813,
      "v": 101
    },
    {
      "midi": 83,
      "hit": false,
      "t": 236571.19199999928,
      "d": 348.213937499997,
      "v": 97
    },
    {
      "midi": 67,
      "hit": false,
      "t": 236571.19199999928,
      "d": 2526.7831874999683,
      "v": 91
    },
    {
      "midi": 71,
      "hit": false,
      "t": 236571.19199999943,
      "d": 624.9993749999849,
      "v": 102
    },
    {
      "midi": 55,
      "hit": false,
      "t": 236571.19199999943,
      "d": 2227.6763437499467,
      "v": 96
    },
    {
      "midi": 79,
      "hit": false,
      "t": 236785.47749999928,
      "d": 232.14262500000768,
      "v": 89
    },
    {
      "midi": 67,
      "hit": false,
      "t": 236785.47749999943,
      "d": 419.64243749997695,
      "v": 94
    },
    {
      "midi": 74,
      "hit": false,
      "t": 236999.76299999928,
      "d": 464.28524999998626,
      "v": 77
    },
    {
      "midi": 62,
      "hit": false,
      "t": 236999.76299999942,
      "d": 642.8564999999653,
      "v": 82
    },
    {
      "midi": 79,
      "hit": false,
      "t": 237214.04849999928,
      "d": 669.6421874999942,
      "v": 84
    },
    {
      "midi": 83,
      "hit": false,
      "t": 237428.33399999927,
      "d": 249.99974999998813,
      "v": 87
    },
    {
      "midi": 86,
      "hit": false,
      "t": 237642.61949999927,
      "d": 249.99974999998813,
      "v": 96
    },
    {
      "midi": 74,
      "hit": false,
      "t": 237642.6194999994,
      "d": 450.89240625000093,
      "v": 101
    },
    {
      "midi": 83,
      "hit": false,
      "t": 237856.90499999927,
      "d": 482.1423749999958,
      "v": 86
    },
    {
      "midi": 71,
      "hit": false,
      "t": 237856.9049999994,
      "d": 428.5709999999963,
      "v": 91
    },
    {
      "midi": 79,
      "hit": false,
      "t": 238071.19049999927,
      "d": 241.0711874999979,
      "v": 87
    },
    {
      "midi": 67,
      "hit": false,
      "t": 238071.1904999994,
      "d": 348.213937499997,
      "v": 92
    },
    {
      "midi": 74,
      "hit": false,
      "t": 238285.47599999927,
      "d": 348.213937499997,
      "v": 86
    },
    {
      "midi": 62,
      "hit": false,
      "t": 238285.47599999938,
      "d": 624.9993749999849,
      "v": 91
    },
    {
      "midi": 79,
      "hit": false,
      "t": 238499.76149999927,
      "d": 312.499687500007,
      "v": 82
    },
    {
      "midi": 67,
      "hit": false,
      "t": 238499.76149999938,
      "d": 428.5709999999963,
      "v": 87
    },
    {
      "midi": 83,
      "hit": false,
      "t": 238714.04699999926,
      "d": 303.57112499998766,
      "v": 91
    },
    {
      "midi": 71,
      "hit": false,
      "t": 238714.04699999938,
      "d": 428.5709999999963,
      "v": 96
    },
    {
      "midi": 74,
      "hit": false,
      "t": 238928.33249999926,
      "d": 116.07131249998929,
      "v": 69
    },
    {
      "midi": 62,
      "hit": false,
      "t": 238928.33249999938,
      "d": 428.5709999999963,
      "v": 74
    },
    {
      "midi": 68,
      "hit": false,
      "t": 239356.90349999923,
      "d": 526.7851875000051,
      "v": 98
    },
    {
      "midi": 80,
      "hit": false,
      "t": 239356.90349999923,
      "d": 544.6423125000147,
      "v": 102
    },
    {
      "midi": 83,
      "hit": false,
      "t": 239356.90349999923,
      "d": 544.6423125000147,
      "v": 97
    },
    {
      "midi": 56,
      "hit": false,
      "t": 239356.90349999937,
      "d": 857.1419999999925,
      "v": 103
    },
    {
      "midi": 68,
      "hit": false,
      "t": 239356.90349999937,
      "d": 857.1419999999925,
      "v": 107
    },
    {
      "midi": 71,
      "hit": false,
      "t": 239356.90349999937,
      "d": 857.1419999999925,
      "v": 102
    },
    {
      "midi": 72,
      "hit": false,
      "t": 239999.75999999925,
      "d": 553.5708749999758,
      "v": 94
    },
    {
      "midi": 76,
      "hit": false,
      "t": 239999.75999999925,
      "d": 624.9993749999849,
      "v": 96
    },
    {
      "midi": 81,
      "hit": false,
      "t": 239999.75999999925,
      "d": 633.9279374999751,
      "v": 93
    },
    {
      "midi": 84,
      "hit": false,
      "t": 239999.75999999925,
      "d": 633.9279374999751,
      "v": 90
    },
    {
      "midi": 69,
      "hit": false,
      "t": 239999.75999999925,
      "d": 723.2135624999646,
      "v": 98
    },
    {
      "midi": 60,
      "hit": false,
      "t": 239999.75999999937,
      "d": 995.5347187499865,
      "v": 99
    },
    {
      "midi": 64,
      "hit": false,
      "t": 239999.75999999937,
      "d": 1124.9988749999902,
      "v": 101
    },
    {
      "midi": 69,
      "hit": false,
      "t": 239999.75999999937,
      "d": 1142.8559999999998,
      "v": 98
    },
    {
      "midi": 72,
      "hit": false,
      "t": 239999.75999999937,
      "d": 1142.8559999999998,
      "v": 95
    },
    {
      "midi": 57,
      "hit": false,
      "t": 239999.75999999937,
      "d": 1303.5701249999984,
      "v": 103
    },
    {
      "midi": 74,
      "hit": false,
      "t": 241285.4729999992,
      "d": 357.1424999999872,
      "v": 93
    },
    {
      "midi": 79,
      "hit": false,
      "t": 241285.4729999992,
      "d": 374.99962499999674,
      "v": 98
    },
    {
      "midi": 83,
      "hit": false,
      "t": 241285.4729999992,
      "d": 374.99962499999674,
      "v": 97
    },
    {
      "midi": 67,
      "hit": false,
      "t": 241285.4729999992,
      "d": 428.5709999999963,
      "v": 92
    },
    {
      "midi": 62,
      "hit": false,
      "t": 241285.47299999936,
      "d": 642.8565000000235,
      "v": 98
    },
    {
      "midi": 67,
      "hit": false,
      "t": 241285.47299999936,
      "d": 674.1064687500184,
      "v": 103
    },
    {
      "midi": 71,
      "hit": false,
      "t": 241285.47299999936,
      "d": 674.1064687500184,
      "v": 102
    },
    {
      "midi": 55,
      "hit": false,
      "t": 241285.47299999936,
      "d": 772.3206562500272,
      "v": 97
    },
    {
      "midi": 81,
      "hit": false,
      "t": 241714.0439999992,
      "d": 964.2847499999916,
      "v": 96
    },
    {
      "midi": 77,
      "hit": false,
      "t": 241714.0439999992,
      "d": 982.1418750000012,
      "v": 94
    },
    {
      "midi": 65,
      "hit": false,
      "t": 241714.0439999992,
      "d": 1026.7846875000105,
      "v": 96
    },
    {
      "midi": 72,
      "hit": false,
      "t": 241714.0439999992,
      "d": 1062.4989375000005,
      "v": 92
    },
    {
      "midi": 69,
      "hit": false,
      "t": 241714.04399999938,
      "d": 1736.6054062499898,
      "v": 101
    },
    {
      "midi": 65,
      "hit": false,
      "t": 241714.04399999938,
      "d": 1767.8553749999846,
      "v": 99
    },
    {
      "midi": 53,
      "hit": false,
      "t": 241714.04399999938,
      "d": 1848.212437499984,
      "v": 101
    },
    {
      "midi": 60,
      "hit": false,
      "t": 241714.04399999938,
      "d": 1910.7123749999737,
      "v": 97
    },
    {
      "midi": 76,
      "hit": false,
      "t": 243428.3279999992,
      "d": 741.0706875000033,
      "v": 95
    },
    {
      "midi": 79,
      "hit": false,
      "t": 243428.3279999992,
      "d": 767.856375000003,
      "v": 99
    },
    {
      "midi": 60,
      "hit": false,
      "t": 243428.3279999992,
      "d": 1401.7843124999781,
      "v": 93
    },
    {
      "midi": 64,
      "hit": false,
      "t": 243428.32799999937,
      "d": 1334.8200937499932,
      "v": 100
    },
    {
      "midi": 48,
      "hit": false,
      "t": 243428.32799999937,
      "d": 2522.318906249973,
      "v": 98
    },
    {
      "midi": 74,
      "hit": false,
      "t": 244499.75549999918,
      "d": 267.8568749999977,
      "v": 99
    },
    {
      "midi": 79,
      "hit": false,
      "t": 244499.75549999918,
      "d": 303.57112499998766,
      "v": 100
    },
    {
      "midi": 67,
      "hit": false,
      "t": 244499.75549999936,
      "d": 428.5709999999963,
      "v": 105
    },
    {
      "midi": 62,
      "hit": false,
      "t": 244499.75549999936,
      "d": 482.1423749999958,
      "v": 104
    },
    {
      "midi": 72,
      "hit": false,
      "t": 244714.04099999918,
      "d": 133.92843749999884,
      "v": 86
    },
    {
      "midi": 60,
      "hit": false,
      "t": 244714.04099999936,
      "d": 642.8564999999944,
      "v": 91
    },
    {
      "midi": 74,
      "hit": false,
      "t": 245142.61199999918,
      "d": 508.9280624999956,
      "v": 99
    },
    {
      "midi": 79,
      "hit": false,
      "t": 245142.61199999918,
      "d": 535.7137499999953,
      "v": 98
    },
    {
      "midi": 71,
      "hit": false,
      "t": 245142.61199999918,
      "d": 562.4994374999951,
      "v": 95
    },
    {
      "midi": 67,
      "hit": false,
      "t": 245142.61199999918,
      "d": 714.2850000000035,
      "v": 97
    },
    {
      "midi": 62,
      "hit": false,
      "t": 245142.61199999935,
      "d": 915.1776562499872,
      "v": 104
    },
    {
      "midi": 67,
      "hit": false,
      "t": 245142.61199999935,
      "d": 964.2847499999916,
      "v": 103
    },
    {
      "midi": 59,
      "hit": false,
      "t": 245142.61199999935,
      "d": 1013.391843749996,
      "v": 100
    },
    {
      "midi": 55,
      "hit": false,
      "t": 245142.61199999935,
      "d": 1285.7129999999888,
      "v": 102
    },
    {
      "midi": 76,
      "hit": false,
      "t": 246428.3249999992,
      "d": 357.1425000000163,
      "v": 96
    },
    {
      "midi": 83,
      "hit": false,
      "t": 246428.3249999992,
      "d": 374.99962500002584,
      "v": 100
    },
    {
      "midi": 80,
      "hit": false,
      "t": 246428.3249999992,
      "d": 383.92818750001607,
      "v": 101
    },
    {
      "midi": 68,
      "hit": false,
      "t": 246428.3249999992,
      "d": 419.64243750000605,
      "v": 93
    },
    {
      "midi": 71,
      "hit": false,
      "t": 246428.32499999934,
      "d": 674.1064687499893,
      "v": 105
    },
    {
      "midi": 68,
      "hit": false,
      "t": 246428.32499999934,
      "d": 691.9635937499988,
      "v": 106
    },
    {
      "midi": 56,
      "hit": false,
      "t": 246428.32499999934,
      "d": 754.4635312499886,
      "v": 98
    },
    {
      "midi": 81,
      "hit": false,
      "t": 246856.8959999992,
      "d": 687.4993125000037,
      "v": 99
    },
    {
      "midi": 76,
      "hit": false,
      "t": 246856.8959999992,
      "d": 696.427874999994,
      "v": 91
    },
    {
      "midi": 84,
      "hit": false,
      "t": 246856.8959999992,
      "d": 705.3564374999842,
      "v": 98
    },
    {
      "midi": 69,
      "hit": false,
      "t": 246856.8959999992,
      "d": 830.3563124999928,
      "v": 98
    },
    {
      "midi": 64,
      "hit": false,
      "t": 246856.89599999934,
      "d": 214.28549999999814,
      "v": 96
    },
    {
      "midi": 69,
      "hit": false,
      "t": 246856.89599999934,
      "d": 1236.6059062500135,
      "v": 104
    },
    {
      "midi": 72,
      "hit": false,
      "t": 246856.89599999934,
      "d": 1267.8558750000084,
      "v": 103
    },
    {
      "midi": 57,
      "hit": false,
      "t": 246856.89599999934,
      "d": 1495.534218750021,
      "v": 103
    },
    {
      "midi": 79,
      "hit": false,
      "t": 248142.60899999918,
      "d": 205.35693750000792,
      "v": 95
    },
    {
      "midi": 83,
      "hit": false,
      "t": 248142.60899999918,
      "d": 214.28549999999814,
      "v": 100
    },
    {
      "midi": 74,
      "hit": false,
      "t": 248142.60899999918,
      "d": 276.7854374999879,
      "v": 94
    },
    {
      "midi": 67,
      "hit": false,
      "t": 248142.60899999918,
      "d": 401.7853124999965,
      "v": 88
    },
    {
      "midi": 67,
      "hit": false,
      "t": 248142.60899999936,
      "d": 370.53534375000163,
      "v": 100
    },
    {
      "midi": 71,
      "hit": false,
      "t": 248142.60899999936,
      "d": 383.92818750001607,
      "v": 105
    },
    {
      "midi": 62,
      "hit": false,
      "t": 248142.60899999936,
      "d": 499.99950000003446,
      "v": 99
    },
    {
      "midi": 55,
      "hit": false,
      "t": 248142.60899999936,
      "d": 723.2135625000228,
      "v": 93
    },
    {
      "midi": 81,
      "hit": false,
      "t": 248571.17999999918,
      "d": 910.7133750000212,
      "v": 99
    },
    {
      "midi": 77,
      "hit": false,
      "t": 248571.17999999918,
      "d": 937.499062500021,
      "v": 97
    },
    {
      "midi": 72,
      "hit": false,
      "t": 248571.17999999918,
      "d": 991.0704375000205,
      "v": 97
    },
    {
      "midi": 65,
      "hit": false,
      "t": 248571.17999999918,
      "d": 1035.7132500000298,
      "v": 97
    },
    {
      "midi": 69,
      "hit": false,
      "t": 248571.17999999938,
      "d": 1638.391218749981,
      "v": 104
    },
    {
      "midi": 65,
      "hit": false,
      "t": 248571.17999999938,
      "d": 1687.4983124999853,
      "v": 102
    },
    {
      "midi": 60,
      "hit": false,
      "t": 248571.17999999938,
      "d": 1785.712499999965,
      "v": 102
    },
    {
      "midi": 53,
      "hit": false,
      "t": 248571.17999999938,
      "d": 1866.0695624999644,
      "v": 102
    },
    {
      "midi": 76,
      "hit": false,
      "t": 250285.46399999922,
      "d": 214.28549999999814,
      "v": 104
    },
    {
      "midi": 79,
      "hit": false,
      "t": 250285.46399999922,
      "d": 339.28537500000675,
      "v": 104
    },
    {
      "midi": 60,
      "hit": false,
      "t": 250285.46399999922,
      "d": 1366.0700624999881,
      "v": 96
    },
    {
      "midi": 64,
      "hit": false,
      "t": 250285.46399999937,
      "d": 383.92818749995786,
      "v": 109
    },
    {
      "midi": 67,
      "hit": false,
      "t": 250285.46399999937,
      "d": 611.6065312499704,
      "v": 109
    },
    {
      "midi": 48,
      "hit": false,
      "t": 250285.46399999937,
      "d": 2459.8189687499544,
      "v": 101
    },
    {
      "midi": 72,
      "hit": false,
      "t": 250499.74949999922,
      "d": 312.499687500007,
      "v": 93
    },
    {
      "midi": 60,
      "hit": false,
      "t": 250499.74949999934,
      "d": 562.4994374999951,
      "v": 98
    },
    {
      "midi": 74,
      "hit": false,
      "t": 250714.03499999922,
      "d": 178.57125000000815,
      "v": 86
    },
    {
      "midi": 74,
      "hit": false,
      "t": 250928.32049999922,
      "d": 446.4281250000058,
      "v": 98
    },
    {
      "midi": 79,
      "hit": false,
      "t": 250928.32049999922,
      "d": 499.99950000000536,
      "v": 100
    },
    {
      "midi": 67,
      "hit": false,
      "t": 250928.32049999933,
      "d": 901.7848125000019,
      "v": 105
    },
    {
      "midi": 67,
      "hit": false,
      "t": 251142.6059999992,
      "d": 598.2136874999851,
      "v": 95
    },
    {
      "midi": 72,
      "hit": false,
      "t": 251356.8914999992,
      "d": 249.99974999998813,
      "v": 96
    },
    {
      "midi": 60,
      "hit": false,
      "t": 251356.89149999933,
      "d": 450.89240625000093,
      "v": 101
    },
    {
      "midi": 74,
      "hit": false,
      "t": 251571.1769999992,
      "d": 178.57124999997905,
      "v": 97
    },
    {
      "midi": 62,
      "hit": false,
      "t": 251571.17699999933,
      "d": 321.4282499999972,
      "v": 102
    },
    {
      "midi": 74,
      "hit": false,
      "t": 251999.7479999992,
      "d": 464.28524999998626,
      "v": 99
    },
    {
      "midi": 79,
      "hit": false,
      "t": 251999.7479999992,
      "d": 473.2138124999765,
      "v": 100
    },
    {
      "midi": 67,
      "hit": false,
      "t": 251999.7479999992,
      "d": 651.7850624999846,
      "v": 98
    },
    {
      "midi": 55,
      "hit": false,
      "t": 251999.74799999932,
      "d": 857.1419999999925,
      "v": 103
    },
    {
      "midi": 67,
      "hit": false,
      "t": 251999.74799999932,
      "d": 857.1419999999925,
      "v": 105
    },
    {
      "midi": 71,
      "hit": false,
      "t": 253285.4609999992,
      "d": 160.7141249999986,
      "v": 96
    },
    {
      "midi": 76,
      "hit": false,
      "t": 253285.4609999992,
      "d": 196.4283749999886,
      "v": 96
    },
    {
      "midi": 80,
      "hit": false,
      "t": 253285.4609999992,
      "d": 214.28549999999814,
      "v": 101
    },
    {
      "midi": 68,
      "hit": false,
      "t": 253285.4609999992,
      "d": 294.64256249999744,
      "v": 94
    },
    {
      "midi": 59,
      "hit": false,
      "t": 253285.4609999993,
      "d": 290.1782812500023,
      "v": 101
    },
    {
      "midi": 64,
      "hit": false,
      "t": 253285.4609999993,
      "d": 352.6782187499921,
      "v": 101
    },
    {
      "midi": 68,
      "hit": false,
      "t": 253285.4609999993,
      "d": 383.92818749998696,
      "v": 106
    },
    {
      "midi": 56,
      "hit": false,
      "t": 253285.4609999993,
      "d": 531.2494687500002,
      "v": 99
    },
    {
      "midi": 81,
      "hit": false,
      "t": 253714.0319999992,
      "d": 955.3561875000014,
      "v": 99
    },
    {
      "midi": 76,
      "hit": false,
      "t": 253714.0319999992,
      "d": 964.2847499999916,
      "v": 100
    },
    {
      "midi": 69,
      "hit": false,
      "t": 253714.0319999992,
      "d": 1017.8561249999912,
      "v": 98
    },
    {
      "midi": 57,
      "hit": false,
      "t": 253714.0319999993,
      "d": 1830.3553125000035,
      "v": 103
    },
    {
      "midi": 74,
      "hit": false,
      "t": 254999.74499999918,
      "d": 348.213937499997,
      "v": 95
    },
    {
      "midi": 83,
      "hit": false,
      "t": 254999.74499999918,
      "d": 348.213937499997,
      "v": 97
    },
    {
      "midi": 79,
      "hit": false,
      "t": 254999.74499999918,
      "d": 383.92818749998696,
      "v": 98
    },
    {
      "midi": 67,
      "hit": false,
      "t": 254999.74499999918,
      "d": 419.64243749997695,
      "v": 96
    },
    {
      "midi": 62,
      "hit": false,
      "t": 254999.7449999993,
      "d": 624.999375000014,
      "v": 100
    },
    {
      "midi": 71,
      "hit": false,
      "t": 254999.7449999993,
      "d": 624.999375000014,
      "v": 102
    },
    {
      "midi": 67,
      "hit": false,
      "t": 254999.7449999993,
      "d": 691.9635937500279,
      "v": 103
    },
    {
      "midi": 55,
      "hit": false,
      "t": 254999.7449999993,
      "d": 754.4635312500177,
      "v": 101
    },
    {
      "midi": 76,
      "hit": false,
      "t": 255428.31599999915,
      "d": 53.571374999999534,
      "v": 86
    },
    {
      "midi": 81,
      "hit": false,
      "t": 255428.31599999915,
      "d": 991.0704374999914,
      "v": 99
    },
    {
      "midi": 77,
      "hit": false,
      "t": 255428.31599999915,
      "d": 999.9989999999816,
      "v": 97
    },
    {
      "midi": 65,
      "hit": false,
      "t": 255428.31599999915,
      "d": 1008.9275624999718,
      "v": 95
    },
    {
      "midi": 72,
      "hit": false,
      "t": 255428.31599999915,
      "d": 1071.4274999999616,
      "v": 92
    },
    {
      "midi": 64,
      "hit": false,
      "t": 255428.3159999993,
      "d": 98.21418750000885,
      "v": 91
    },
    {
      "midi": 69,
      "hit": false,
      "t": 255428.3159999993,
      "d": 1714.2840000000142,
      "v": 104
    },
    {
      "midi": 65,
      "hit": false,
      "t": 255428.3159999993,
      "d": 1799.1053437500377,
      "v": 102
    },
    {
      "midi": 53,
      "hit": false,
      "t": 255428.3159999993,
      "d": 1816.9624687500473,
      "v": 100
    },
    {
      "midi": 60,
      "hit": false,
      "t": 255428.3159999993,
      "d": 1928.5695000000414,
      "v": 97
    },
    {
      "midi": 79,
      "hit": false,
      "t": 257142.5999999991,
      "d": 589.285125000024,
      "v": 96
    },
    {
      "midi": 76,
      "hit": false,
      "t": 257142.5999999991,
      "d": 598.2136875000142,
      "v": 101
    },
    {
      "midi": 60,
      "hit": false,
      "t": 257142.5999999991,
      "d": 1446.4271250000165,
      "v": 90
    },
    {
      "midi": 67,
      "hit": false,
      "t": 257142.5999999991,
      "d": 1473.2128125000163,
      "v": 94
    },
    {
      "midi": 48,
      "hit": false,
      "t": 257142.5999999993,
      "d": 2602.6759687499725,
      "v": 95
    },
    {
      "midi": 76,
      "hit": false,
      "t": 257785.45649999913,
      "d": 89.28562499998952,
      "v": 99
    },
    {
      "midi": 79,
      "hit": false,
      "t": 257785.45649999913,
      "d": 98.21418749997974,
      "v": 99
    },
    {
      "midi": 67,
      "hit": false,
      "t": 257785.45649999933,
      "d": 419.64243749997695,
      "v": 104
    },
    {
      "midi": 64,
      "hit": false,
      "t": 257785.45649999933,
      "d": 428.57099999996717,
      "v": 104
    },
    {
      "midi": 76,
      "hit": false,
      "t": 258214.02749999912,
      "d": 312.499687500007,
      "v": 102
    },
    {
      "midi": 79,
      "hit": false,
      "t": 258214.02749999912,
      "d": 339.28537500000675,
      "v": 102
    },
    {
      "midi": 64,
      "hit": false,
      "t": 258214.0274999993,
      "d": 562.4994374999951,
      "v": 107
    },
    {
      "midi": 72,
      "hit": false,
      "t": 258428.31299999912,
      "d": 44.64281250000931,
      "v": 60
    },
    {
      "midi": 60,
      "hit": false,
      "t": 258428.3129999993,
      "d": 428.5709999999963,
      "v": 65
    },
    {
      "midi": 74,
      "hit": false,
      "t": 258856.88399999912,
      "d": 464.28524999998626,
      "v": 101
    },
    {
      "midi": 79,
      "hit": false,
      "t": 258856.88399999912,
      "d": 482.1423749999958,
      "v": 102
    },
    {
      "midi": 67,
      "hit": false,
      "t": 258856.88399999912,
      "d": 669.6421874999942,
      "v": 100
    },
    {
      "midi": 62,
      "hit": false,
      "t": 258856.8839999993,
      "d": 834.8205937499879,
      "v": 106
    },
    {
      "midi": 67,
      "hit": false,
      "t": 258856.8839999993,
      "d": 866.0705624999828,
      "v": 107
    },
    {
      "midi": 55,
      "hit": false,
      "t": 258856.8839999993,
      "d": 937.4990624999919,
      "v": 105
    },
    {
      "midi": 83,
      "hit": false,
      "t": 260142.5969999991,
      "d": 366.0710625000065,
      "v": 94
    },
    {
      "midi": 80,
      "hit": false,
      "t": 260142.5969999991,
      "d": 374.99962499999674,
      "v": 101
    },
    {
      "midi": 68,
      "hit": false,
      "t": 260142.5969999991,
      "d": 392.8567500000063,
      "v": 93
    },
    {
      "midi": 71,
      "hit": false,
      "t": 260142.59699999928,
      "d": 660.713625000004,
      "v": 99
    },
    {
      "midi": 68,
      "hit": false,
      "t": 260142.59699999928,
      "d": 674.1064687500184,
      "v": 106
    },
    {
      "midi": 56,
      "hit": false,
      "t": 260142.59699999928,
      "d": 705.3564375000133,
      "v": 98
    },
    {
      "midi": 76,
      "hit": false,
      "t": 260571.1679999991,
      "d": 991.0704374999914,
      "v": 90
    },
    {
      "midi": 84,
      "hit": false,
      "t": 260571.1679999991,
      "d": 1107.1417499999807,
      "v": 99
    },
    {
      "midi": 81,
      "hit": false,
      "t": 260571.1679999991,
      "d": 1187.49881249998,
      "v": 94
    },
    {
      "midi": 69,
      "hit": false,
      "t": 260571.1679999991,
      "d": 1205.3559374999895,
      "v": 96
    },
    {
      "midi": 69,
      "hit": false,
      "t": 260571.16799999928,
      "d": 1714.2840000000142,
      "v": 99
    },
    {
      "midi": 64,
      "hit": false,
      "t": 260571.16799999928,
      "d": 1785.7124999999942,
      "v": 95
    },
    {
      "midi": 72,
      "hit": false,
      "t": 260571.16799999928,
      "d": 1991.069437500002,
      "v": 104
    },
    {
      "midi": 57,
      "hit": false,
      "t": 260571.16799999928,
      "d": 2169.640687499981,
      "v": 101
    },
    {
      "midi": 79,
      "hit": false,
      "t": 261856.8809999991,
      "d": 214.28549999999814,
      "v": 90
    },
    {
      "midi": 83,
      "hit": false,
      "t": 261856.8809999991,
      "d": 223.21406249998836,
      "v": 97
    },
    {
      "midi": 74,
      "hit": false,
      "t": 261856.8809999991,
      "d": 330.35681250001653,
      "v": 93
    },
    {
      "midi": 67,
      "hit": false,
      "t": 261856.8809999991,
      "d": 401.7853124999965,
      "v": 95
    },
    {
      "midi": 67,
      "hit": false,
      "t": 261856.8809999993,
      "d": 383.92818749998696,
      "v": 95
    },
    {
      "midi": 71,
      "hit": false,
      "t": 261856.8809999993,
      "d": 401.7853124999674,
      "v": 102
    },
    {
      "midi": 62,
      "hit": false,
      "t": 261856.8809999993,
      "d": 593.7494062499609,
      "v": 98
    },
    {
      "midi": 55,
      "hit": false,
      "t": 261856.8809999993,
      "d": 723.2135624999646,
      "v": 100
    },
    {
      "midi": 77,
      "hit": false,
      "t": 262285.4519999991,
      "d": 1062.4989374999423,
      "v": 101
    },
    {
      "midi": 81,
      "hit": false,
      "t": 262285.4519999991,
      "d": 1062.4989374999423,
      "v": 101
    },
    {
      "midi": 65,
      "hit": false,
      "t": 262285.4519999991,
      "d": 1071.4274999999325,
      "v": 98
    },
    {
      "midi": 69,
      "hit": false,
      "t": 262285.4519999993,
      "d": 1714.283999999927,
      "v": 106
    },
    {
      "midi": 65,
      "hit": false,
      "t": 262285.4519999993,
      "d": 1910.7123749999446,
      "v": 106
    },
    {
      "midi": 53,
      "hit": false,
      "t": 262285.4519999993,
      "d": 1928.569499999925,
      "v": 103
    },
    {
      "midi": 76,
      "hit": false,
      "t": 263999.73599999904,
      "d": 419.64243750000605,
      "v": 98
    },
    {
      "midi": 79,
      "hit": false,
      "t": 263999.73599999904,
      "d": 419.64243750000605,
      "v": 100
    },
    {
      "midi": 67,
      "hit": false,
      "t": 263999.73599999904,
      "d": 687.4993125000037,
      "v": 93
    },
    {
      "midi": 60,
      "hit": false,
      "t": 263999.73599999904,
      "d": 1616.0698125000927,
      "v": 93
    },
    {
      "midi": 64,
      "hit": false,
      "t": 263999.7359999992,
      "d": 754.4635312500177,
      "v": 103
    },
    {
      "midi": 48,
      "hit": false,
      "t": 263999.7359999992,
      "d": 2910.7113749999553,
      "v": 98
    },
    {
      "midi": 72,
      "hit": false,
      "t": 264428.30699999904,
      "d": 107.14274999999907,
      "v": 79
    },
    {
      "midi": 60,
      "hit": false,
      "t": 264428.3069999992,
      "d": 191.96409374999348,
      "v": 84
    },
    {
      "midi": 79,
      "hit": false,
      "t": 264642.59249999904,
      "d": 249.99975000001723,
      "v": 102
    },
    {
      "midi": 74,
      "hit": false,
      "t": 264642.59249999904,
      "d": 258.92831250000745,
      "v": 102
    },
    {
      "midi": 67,
      "hit": false,
      "t": 264642.5924999992,
      "d": 428.5709999999963,
      "v": 107
    },
    {
      "midi": 67,
      "hit": false,
      "t": 264856.87799999904,
      "d": 258.92831250000745,
      "v": 96
    },
    {
      "midi": 55,
      "hit": false,
      "t": 264856.8779999992,
      "d": 379.46390625002095,
      "v": 101
    },
    {
      "midi": 74,
      "hit": false,
      "t": 265071.16349999903,
      "d": 348.2139375000261,
      "v": 99
    },
    {
      "midi": 79,
      "hit": false,
      "t": 265071.16349999903,
      "d": 401.7853125000838,
      "v": 104
    },
    {
      "midi": 62,
      "hit": false,
      "t": 265071.1634999992,
      "d": 428.5709999999963,
      "v": 104
    },
    {
      "midi": 67,
      "hit": false,
      "t": 265071.1634999992,
      "d": 428.5709999999963,
      "v": 109
    },
    {
      "midi": 72,
      "hit": false,
      "t": 265285.44899999903,
      "d": 160.7141250000568,
      "v": 86
    },
    {
      "midi": 60,
      "hit": false,
      "t": 265285.4489999992,
      "d": 290.1782812500023,
      "v": 91
    },
    {
      "midi": 83,
      "hit": false,
      "t": 265714.01999999915,
      "d": 491.07093749998603,
      "v": 98
    },
    {
      "midi": 67,
      "hit": false,
      "t": 265714.01999999915,
      "d": 508.9280624999665,
      "v": 98
    },
    {
      "midi": 79,
      "hit": false,
      "t": 265714.01999999915,
      "d": 508.9280624999665,
      "v": 99
    },
    {
      "midi": 74,
      "hit": false,
      "t": 265714.01999999915,
      "d": 517.8566249999567,
      "v": 100
    },
    {
      "midi": 67,
      "hit": false,
      "t": 265714.0199999992,
      "d": 428.5709999999963,
      "v": 104
    },
    {
      "midi": 71,
      "hit": false,
      "t": 266142.59099999914,
      "d": 107.14274999994086,
      "v": 98
    },
    {
      "midi": 59,
      "hit": false,
      "t": 266142.5909999992,
      "d": 191.96409374999348,
      "v": 103
    },
    {
      "midi": 83,
      "hit": false,
      "t": 266356.8764999991,
      "d": 223.21406249998836,
      "v": 102
    },
    {
      "midi": 74,
      "hit": false,
      "t": 266356.8764999991,
      "d": 232.14262499997858,
      "v": 101
    },
    {
      "midi": 79,
      "hit": false,
      "t": 266356.8764999991,
      "d": 232.14262499997858,
      "v": 99
    },
    {
      "midi": 71,
      "hit": false,
      "t": 266356.8764999992,
      "d": 241.071187500027,
      "v": 107
    },
    {
      "midi": 67,
      "hit": false,
      "t": 266356.8764999992,
      "d": 272.3211562500219,
      "v": 104
    },
    {
      "midi": 62,
      "hit": false,
      "t": 266356.8764999992,
      "d": 290.1782812500023,
      "v": 106
    },
    {
      "midi": 67,
      "hit": false,
      "t": 266571.1619999991,
      "d": 223.21406249998836,
      "v": 96
    },
    {
      "midi": 55,
      "hit": false,
      "t": 266571.1619999992,
      "d": 58.03565625002375,
      "v": 101
    },
    {
      "midi": 79,
      "hit": false,
      "t": 266785.4474999991,
      "d": 187.49981249996927,
      "v": 99
    },
    {
      "midi": 74,
      "hit": false,
      "t": 266785.4474999991,
      "d": 196.4283749999595,
      "v": 101
    },
    {
      "midi": 83,
      "hit": false,
      "t": 266785.4474999991,
      "d": 205.3569374999497,
      "v": 94
    },
    {
      "midi": 67,
      "hit": false,
      "t": 266785.4474999992,
      "d": 339.28537499997765,
      "v": 104
    },
    {
      "midi": 62,
      "hit": false,
      "t": 266785.4474999992,
      "d": 352.6782187499921,
      "v": 106
    },
    {
      "midi": 71,
      "hit": false,
      "t": 266785.4474999992,
      "d": 370.5353437499725,
      "v": 99
    },
    {
      "midi": 67,
      "hit": false,
      "t": 266999.732999999,
      "d": 151.78556250000838,
      "v": 100
    },
    {
      "midi": 55,
      "hit": false,
      "t": 266999.7329999992,
      "d": 272.3211562499637,
      "v": 105
    },
    {
      "midi": 81,
      "hit": false,
      "t": 267428.303999999,
      "d": 928.5704999999725,
      "v": 104
    },
    {
      "midi": 76,
      "hit": false,
      "t": 267428.303999999,
      "d": 946.427624999953,
      "v": 100
    },
    {
      "midi": 84,
      "hit": false,
      "t": 267428.303999999,
      "d": 946.427624999953,
      "v": 100
    },
    {
      "midi": 69,
      "hit": false,
      "t": 267428.303999999,
      "d": 1116.0703124999418,
      "v": 95
    },
    {
      "midi": 69,
      "hit": false,
      "t": 267428.30399999913,
      "d": 1669.6411874999758,
      "v": 109
    },
    {
      "midi": 64,
      "hit": false,
      "t": 267428.30399999913,
      "d": 1705.3554374999949,
      "v": 105
    },
    {
      "midi": 72,
      "hit": false,
      "t": 267428.30399999913,
      "d": 1705.3554374999949,
      "v": 105
    },
    {
      "midi": 57,
      "hit": false,
      "t": 267428.30399999913,
      "d": 2008.9265624999534,
      "v": 100
    },
    {
      "midi": 74,
      "hit": false,
      "t": 268714.01699999894,
      "d": 303.57112500001676,
      "v": 96
    },
    {
      "midi": 83,
      "hit": false,
      "t": 268714.01699999894,
      "d": 321.4282499999972,
      "v": 100
    },
    {
      "midi": 79,
      "hit": false,
      "t": 268714.01699999894,
      "d": 357.1425000000163,
      "v": 95
    },
    {
      "midi": 67,
      "hit": false,
      "t": 268714.01699999894,
      "d": 392.8567500000354,
      "v": 95
    },
    {
      "midi": 62,
      "hit": false,
      "t": 268714.0169999991,
      "d": 544.6423124999856,
      "v": 101
    },
    {
      "midi": 71,
      "hit": false,
      "t": 268714.0169999991,
      "d": 580.3565625000047,
      "v": 105
    },
    {
      "midi": 67,
      "hit": false,
      "t": 268714.0169999991,
      "d": 642.8564999999944,
      "v": 100
    },
    {
      "midi": 55,
      "hit": false,
      "t": 268714.0169999991,
      "d": 705.3564374999842,
      "v": 100
    },
    {
      "midi": 81,
      "hit": false,
      "t": 269142.587999999,
      "d": 1053.5703750000102,
      "v": 98
    },
    {
      "midi": 77,
      "hit": false,
      "t": 269142.587999999,
      "d": 1062.4989375000005,
      "v": 102
    },
    {
      "midi": 65,
      "hit": false,
      "t": 269142.587999999,
      "d": 1116.0703125,
      "v": 97
    },
    {
      "midi": 72,
      "hit": false,
      "t": 269142.587999999,
      "d": 1151.784562500019,
      "v": 96
    },
    {
      "midi": 69,
      "hit": false,
      "t": 269142.5879999991,
      "d": 1897.3195312499302,
      "v": 103
    },
    {
      "midi": 65,
      "hit": false,
      "t": 269142.5879999991,
      "d": 1910.7123749999446,
      "v": 107
    },
    {
      "midi": 53,
      "hit": false,
      "t": 269142.5879999991,
      "d": 2008.9265624999534,
      "v": 102
    },
    {
      "midi": 60,
      "hit": false,
      "t": 269142.5879999991,
      "d": 2071.4265000000014,
      "v": 101
    },
    {
      "midi": 64,
      "hit": false,
      "t": 270856.87199999904,
      "d": 754.4635312500759,
      "v": 106
    },
    {
      "midi": 48,
      "hit": false,
      "t": 270856.87199999904,
      "d": 2669.640187500161,
      "v": 95
    },
    {
      "midi": 76,
      "hit": false,
      "t": 270856.87199999904,
      "d": 419.64243750000605,
      "v": 101
    },
    {
      "midi": 79,
      "hit": false,
      "t": 270856.87199999904,
      "d": 428.5709999999963,
      "v": 104
    },
    {
      "midi": 67,
      "hit": false,
      "t": 270856.87199999904,
      "d": 687.4993125000037,
      "v": 96
    },
    {
      "midi": 60,
      "hit": false,
      "t": 270856.87199999904,
      "d": 1482.1413750000065,
      "v": 90
    },
    {
      "midi": 72,
      "hit": false,
      "t": 271285.44299999904,
      "d": 98.21418750000885,
      "v": 86
    },
    {
      "midi": 60,
      "hit": false,
      "t": 271285.4429999991,
      "d": 178.57124999997905,
      "v": 91
    },
    {
      "midi": 74,
      "hit": false,
      "t": 271499.72849999904,
      "d": 223.21406249998836,
      "v": 103
    },
    {
      "midi": 79,
      "hit": false,
      "t": 271499.72849999904,
      "d": 241.0711874999688,
      "v": 100
    },
    {
      "midi": 67,
      "hit": false,
      "t": 271499.7284999991,
      "d": 129.46415625000373,
      "v": 105
    },
    {
      "midi": 62,
      "hit": false,
      "t": 271499.7284999991,
      "d": 401.7853125000256,
      "v": 108
    },
    {
      "midi": 67,
      "hit": false,
      "t": 271714.01399999904,
      "d": 249.99975000001723,
      "v": 95
    },
    {
      "midi": 55,
      "hit": false,
      "t": 271714.0139999991,
      "d": 379.46390625007916,
      "v": 100
    },
    {
      "midi": 74,
      "hit": false,
      "t": 271928.29949999903,
      "d": 249.99975000001723,
      "v": 99
    },
    {
      "midi": 79,
      "hit": false,
      "t": 271928.29949999903,
      "d": 285.7140000000363,
      "v": 103
    },
    {
      "midi": 67,
      "hit": false,
      "t": 271928.29949999915,
      "d": 428.5709999999963,
      "v": 108
    },
    {
      "midi": 62,
      "hit": false,
      "t": 271928.29949999915,
      "d": 450.89240625000093,
      "v": 104
    },
    {
      "midi": 72,
      "hit": false,
      "t": 272142.58499999903,
      "d": 89.28562500001863,
      "v": 68
    },
    {
      "midi": 60,
      "hit": false,
      "t": 272142.58499999915,
      "d": 428.5710000000545,
      "v": 73
    },
    {
      "midi": 74,
      "hit": false,
      "t": 272571.1559999991,
      "d": 598.2136874999851,
      "v": 104
    },
    {
      "midi": 79,
      "hit": false,
      "t": 272571.1559999991,
      "d": 598.2136874999851,
      "v": 105
    },
    {
      "midi": 67,
      "hit": false,
      "t": 272571.1559999991,
      "d": 767.8563749999739,
      "v": 97
    },
    {
      "midi": 62,
      "hit": false,
      "t": 272571.1559999992,
      "d": 1075.891781250015,
      "v": 109
    },
    {
      "midi": 67,
      "hit": false,
      "t": 272571.1559999992,
      "d": 1075.891781250015,
      "v": 110
    },
    {
      "midi": 55,
      "hit": false,
      "t": 272571.1559999992,
      "d": 1383.9271874999977,
      "v": 102
    },
    {
      "midi": 71,
      "hit": false,
      "t": 273856.8689999991,
      "d": 98.21418750000885,
      "v": 95
    },
    {
      "midi": 76,
      "hit": false,
      "t": 273856.8689999991,
      "d": 133.92843750002794,
      "v": 99
    },
    {
      "midi": 80,
      "hit": false,
      "t": 273856.8689999991,
      "d": 178.57125000003725,
      "v": 99
    },
    {
      "midi": 68,
      "hit": false,
      "t": 273856.8689999991,
      "d": 267.8568750000559,
      "v": 91
    },
    {
      "midi": 59,
      "hit": false,
      "t": 273856.8689999992,
      "d": 178.57125000003725,
      "v": 100
    },
    {
      "midi": 64,
      "hit": false,
      "t": 273856.8689999992,
      "d": 241.071187500027,
      "v": 104
    },
    {
      "midi": 68,
      "hit": false,
      "t": 273856.8689999992,
      "d": 321.4282500000554,
      "v": 104
    },
    {
      "midi": 56,
      "hit": false,
      "t": 273856.8689999992,
      "d": 482.142375000054,
      "v": 96
    },
    {
      "midi": 76,
      "hit": false,
      "t": 274285.43999999913,
      "d": 991.0704375000205,
      "v": 99
    },
    {
      "midi": 84,
      "hit": false,
      "t": 274285.43999999913,
      "d": 1062.4989375000005,
      "v": 104
    },
    {
      "midi": 81,
      "hit": false,
      "t": 274285.43999999913,
      "d": 1124.9988749999902,
      "v": 103
    },
    {
      "midi": 69,
      "hit": false,
      "t": 274285.43999999913,
      "d": 1133.9274374999804,
      "v": 98
    },
    {
      "midi": 64,
      "hit": false,
      "t": 274285.43999999925,
      "d": 1785.7125000000233,
      "v": 104
    },
    {
      "midi": 72,
      "hit": false,
      "t": 274285.43999999925,
      "d": 1910.7123750000028,
      "v": 109
    },
    {
      "midi": 57,
      "hit": false,
      "t": 274285.43999999925,
      "d": 2040.1765312500065,
      "v": 103
    },
    {
      "midi": 79,
      "hit": false,
      "t": 275571.1529999991,
      "d": 214.28549999999814,
      "v": 99
    },
    {
      "midi": 83,
      "hit": false,
      "t": 275571.1529999991,
      "d": 223.21406249998836,
      "v": 99
    },
    {
      "midi": 74,
      "hit": false,
      "t": 275571.1529999991,
      "d": 348.21393749996787,
      "v": 97
    },
    {
      "midi": 67,
      "hit": false,
      "t": 275571.1529999991,
      "d": 419.64243749994785,
      "v": 95
    },
    {
      "midi": 67,
      "hit": false,
      "t": 275571.15299999923,
      "d": 383.92818749998696,
      "v": 104
    },
    {
      "midi": 71,
      "hit": false,
      "t": 275571.15299999923,
      "d": 401.7853124999674,
      "v": 104
    },
    {
      "midi": 62,
      "hit": false,
      "t": 275571.15299999923,
      "d": 624.999375000014,
      "v": 102
    },
    {
      "midi": 55,
      "hit": false,
      "t": 275571.15299999923,
      "d": 754.4635312500177,
      "v": 100
    },
    {
      "midi": 72,
      "hit": false,
      "t": 275999.72399999906,
      "d": 937.499062500021,
      "v": 99
    },
    {
      "midi": 77,
      "hit": false,
      "t": 275999.72399999906,
      "d": 973.21331250004,
      "v": 99
    },
    {
      "midi": 81,
      "hit": false,
      "t": 275999.72399999906,
      "d": 991.0704375000205,
      "v": 101
    },
    {
      "midi": 65,
      "hit": false,
      "t": 275999.72399999906,
      "d": 1035.7132500000298,
      "v": 94
    },
    {
      "midi": 69,
      "hit": false,
      "t": 275999.72399999923,
      "d": 312.499687500007,
      "v": 106
    },
    {
      "midi": 60,
      "hit": false,
      "t": 275999.72399999923,
      "d": 1687.4983125000144,
      "v": 104
    },
    {
      "midi": 65,
      "hit": false,
      "t": 275999.72399999923,
      "d": 1749.9982500000042,
      "v": 104
    },
    {
      "midi": 53,
      "hit": false,
      "t": 275999.72399999923,
      "d": 1866.0695624999935,
      "v": 99
    },
    {
      "midi": 84,
      "hit": false,
      "t": 277714.0079999991,
      "d": 392.8567499999772,
      "v": 101
    },
    {
      "midi": 79,
      "hit": false,
      "t": 277714.0079999991,
      "d": 401.7853124999674,
      "v": 103
    },
    {
      "midi": 76,
      "hit": false,
      "t": 277928.2934999991,
      "d": 223.21406249998836,
      "v": 96
    },
    {
      "midi": 64,
      "hit": false,
      "t": 277928.2934999993,
      "d": 401.7853125000256,
      "v": 101
    },
    {
      "midi": 72,
      "hit": false,
      "t": 278142.5789999991,
      "d": 544.6423125000438,
      "v": 100
    },
    {
      "midi": 60,
      "hit": false,
      "t": 278142.57899999927,
      "d": 982.1418750000303,
      "v": 105
    },
    {
      "midi": 84,
      "hit": false,
      "t": 278356.8644999991,
      "d": 241.071187500027,
      "v": 103
    },
    {
      "midi": 79,
      "hit": false,
      "t": 278356.8644999991,
      "d": 276.7854375000461,
      "v": 101
    },
    {
      "midi": 67,
      "hit": false,
      "t": 278356.8644999993,
      "d": 428.5709999999963,
      "v": 106
    },
    {
      "midi": 72,
      "hit": false,
      "t": 278356.8644999993,
      "d": 428.5709999999963,
      "v": 108
    },
    {
      "midi": 84,
      "hit": false,
      "t": 278785.43549999915,
      "d": 214.28549999999814,
      "v": 97
    },
    {
      "midi": 79,
      "hit": false,
      "t": 278785.43549999915,
      "d": 223.21406249998836,
      "v": 103
    },
    {
      "midi": 72,
      "hit": false,
      "t": 278785.4354999993,
      "d": 383.92818749998696,
      "v": 102
    },
    {
      "midi": 67,
      "hit": false,
      "t": 278785.4354999993,
      "d": 401.7853124999674,
      "v": 108
    },
    {
      "midi": 76,
      "hit": false,
      "t": 278999.72099999915,
      "d": 71.42849999997998,
      "v": 82
    },
    {
      "midi": 64,
      "hit": false,
      "t": 278999.7209999993,
      "d": 428.5709999999963,
      "v": 87
    },
    {
      "midi": 72,
      "hit": false,
      "t": 279214.00649999914,
      "d": 71.42849999997998,
      "v": 86
    },
    {
      "midi": 60,
      "hit": false,
      "t": 279214.0064999993,
      "d": 428.5709999999963,
      "v": 91
    },
    {
      "midi": 79,
      "hit": false,
      "t": 279428.2919999991,
      "d": 303.57112500001676,
      "v": 102
    },
    {
      "midi": 86,
      "hit": false,
      "t": 279428.2919999991,
      "d": 410.71387500001583,
      "v": 100
    },
    {
      "midi": 83,
      "hit": false,
      "t": 279428.2919999991,
      "d": 428.5709999999963,
      "v": 99
    },
    {
      "midi": 67,
      "hit": false,
      "t": 279428.2919999991,
      "d": 705.3564374999842,
      "v": 95
    },
    {
      "midi": 74,
      "hit": false,
      "t": 279642.5774999991,
      "d": 276.7854374999879,
      "v": 93
    },
    {
      "midi": 62,
      "hit": false,
      "t": 279642.5774999993,
      "d": 499.99950000003446,
      "v": 98
    },
    {
      "midi": 79,
      "hit": false,
      "t": 279856.8629999991,
      "d": 142.85700000001816,
      "v": 88
    },
    {
      "midi": 67,
      "hit": false,
      "t": 279856.8629999993,
      "d": 116.07131249998929,
      "v": 93
    },
    {
      "midi": 79,
      "hit": false,
      "t": 280071.1484999991,
      "d": 151.78556250000838,
      "v": 98
    },
    {
      "midi": 83,
      "hit": false,
      "t": 280071.1484999991,
      "d": 169.64268749998882,
      "v": 101
    },
    {
      "midi": 86,
      "hit": false,
      "t": 280071.1484999991,
      "d": 187.49981249996927,
      "v": 103
    },
    {
      "midi": 67,
      "hit": false,
      "t": 280071.1484999993,
      "d": 44.64281250000931,
      "v": 103
    },
    {
      "midi": 74,
      "hit": false,
      "t": 280071.1484999993,
      "d": 98.21418750006706,
      "v": 108
    },
    {
      "midi": 71,
      "hit": false,
      "t": 280071.1484999993,
      "d": 129.46415625006193,
      "v": 106
    },
    {
      "midi": 67,
      "hit": false,
      "t": 280285.4339999991,
      "d": 107.14274999999907,
      "v": 86
    },
    {
      "midi": 55,
      "hit": false,
      "t": 280285.43399999937,
      "d": 191.96409374999348,
      "v": 91
    },
    {
      "midi": 80,
      "hit": false,
      "t": 280714.0049999991,
      "d": 321.4282499999972,
      "v": 99
    },
    {
      "midi": 88,
      "hit": false,
      "t": 280714.0049999991,
      "d": 374.99962499999674,
      "v": 101
    },
    {
      "midi": 83,
      "hit": false,
      "t": 280714.0049999991,
      "d": 383.92818749998696,
      "v": 103
    },
    {
      "midi": 68,
      "hit": false,
      "t": 280714.0049999991,
      "d": 392.8567499999772,
      "v": 95
    },
    {
      "midi": 68,
      "hit": false,
      "t": 280714.00499999936,
      "d": 580.3565625000047,
      "v": 104
    },
    {
      "midi": 76,
      "hit": false,
      "t": 280714.00499999936,
      "d": 674.1064687499893,
      "v": 106
    },
    {
      "midi": 71,
      "hit": false,
      "t": 280714.00499999936,
      "d": 691.9635937499697,
      "v": 108
    },
    {
      "midi": 56,
      "hit": false,
      "t": 280714.00499999936,
      "d": 705.3564374999842,
      "v": 100
    },
    {
      "midi": 72,
      "hit": false,
      "t": 281142.57599999907,
      "d": 553.5708749999758,
      "v": 94
    },
    {
      "midi": 76,
      "hit": false,
      "t": 281142.57599999907,
      "d": 624.9993749999558,
      "v": 96
    },
    {
      "midi": 81,
      "hit": false,
      "t": 281142.57599999907,
      "d": 633.927937499946,
      "v": 93
    },
    {
      "midi": 84,
      "hit": false,
      "t": 281142.57599999907,
      "d": 633.927937499946,
      "v": 90
    },
    {
      "midi": 69,
      "hit": false,
      "t": 281142.57599999907,
      "d": 723.2135624999646,
      "v": 98
    },
    {
      "midi": 60,
      "hit": false,
      "t": 281142.57599999936,
      "d": 995.5347187499865,
      "v": 99
    },
    {
      "midi": 64,
      "hit": false,
      "t": 281142.57599999936,
      "d": 1124.9988749999902,
      "v": 101
    },
    {
      "midi": 69,
      "hit": false,
      "t": 281142.57599999936,
      "d": 1142.8559999999707,
      "v": 98
    },
    {
      "midi": 72,
      "hit": false,
      "t": 281142.57599999936,
      "d": 1142.8559999999707,
      "v": 95
    },
    {
      "midi": 57,
      "hit": false,
      "t": 281142.57599999936,
      "d": 1303.5701249999693,
      "v": 103
    },
    {
      "midi": 74,
      "hit": false,
      "t": 282428.28899999906,
      "d": 357.1425000000163,
      "v": 93
    },
    {
      "midi": 79,
      "hit": false,
      "t": 282428.28899999906,
      "d": 374.99962499999674,
      "v": 98
    },
    {
      "midi": 83,
      "hit": false,
      "t": 282428.28899999906,
      "d": 374.99962499999674,
      "v": 97
    },
    {
      "midi": 67,
      "hit": false,
      "t": 282428.28899999906,
      "d": 428.5709999999963,
      "v": 92
    },
    {
      "midi": 62,
      "hit": false,
      "t": 282428.28899999935,
      "d": 642.8564999999362,
      "v": 98
    },
    {
      "midi": 67,
      "hit": false,
      "t": 282428.28899999935,
      "d": 674.1064687499311,
      "v": 103
    },
    {
      "midi": 71,
      "hit": false,
      "t": 282428.28899999935,
      "d": 674.1064687499311,
      "v": 102
    },
    {
      "midi": 55,
      "hit": false,
      "t": 282428.28899999935,
      "d": 772.3206562499399,
      "v": 97
    },
    {
      "midi": 81,
      "hit": false,
      "t": 282856.85999999905,
      "d": 964.2847499999916,
      "v": 96
    },
    {
      "midi": 77,
      "hit": false,
      "t": 282856.85999999905,
      "d": 982.1418749999721,
      "v": 94
    },
    {
      "midi": 65,
      "hit": false,
      "t": 282856.85999999905,
      "d": 1026.7846874999814,
      "v": 96
    },
    {
      "midi": 72,
      "hit": false,
      "t": 282856.85999999905,
      "d": 1062.4989375000005,
      "v": 92
    },
    {
      "midi": 69,
      "hit": false,
      "t": 282856.8599999993,
      "d": 1736.6054062499898,
      "v": 101
    },
    {
      "midi": 65,
      "hit": false,
      "t": 282856.8599999993,
      "d": 1767.8553749999846,
      "v": 99
    },
    {
      "midi": 53,
      "hit": false,
      "t": 282856.8599999993,
      "d": 1848.212437500013,
      "v": 101
    },
    {
      "midi": 60,
      "hit": false,
      "t": 282856.8599999993,
      "d": 1910.7123750000028,
      "v": 97
    },
    {
      "midi": 76,
      "hit": false,
      "t": 284571.14399999904,
      "d": 741.0706875000033,
      "v": 95
    },
    {
      "midi": 79,
      "hit": false,
      "t": 284571.14399999904,
      "d": 767.8563750000321,
      "v": 99
    },
    {
      "midi": 60,
      "hit": false,
      "t": 284571.14399999904,
      "d": 1401.7843125000945,
      "v": 93
    },
    {
      "midi": 64,
      "hit": false,
      "t": 284571.1439999993,
      "d": 1334.8200937500224,
      "v": 100
    },
    {
      "midi": 48,
      "hit": false,
      "t": 284571.1439999993,
      "d": 2522.3189062500023,
      "v": 98
    },
    {
      "midi": 74,
      "hit": false,
      "t": 285642.5714999991,
      "d": 267.8568749999977,
      "v": 99
    },
    {
      "midi": 79,
      "hit": false,
      "t": 285642.5714999991,
      "d": 303.57112500001676,
      "v": 100
    },
    {
      "midi": 67,
      "hit": false,
      "t": 285642.5714999993,
      "d": 312.4996874999488,
      "v": 105
    },
    {
      "midi": 62,
      "hit": false,
      "t": 285642.5714999993,
      "d": 482.1423749999958,
      "v": 104
    },
    {
      "midi": 72,
      "hit": false,
      "t": 285856.8569999991,
      "d": 133.92843750002794,
      "v": 86
    },
    {
      "midi": 60,
      "hit": false,
      "t": 285856.8569999993,
      "d": 241.0711874999688,
      "v": 91
    },
    {
      "midi": 74,
      "hit": false,
      "t": 286285.42799999914,
      "d": 508.9280624999665,
      "v": 99
    },
    {
      "midi": 79,
      "hit": false,
      "t": 286285.42799999914,
      "d": 535.7137499999953,
      "v": 98
    },
    {
      "midi": 71,
      "hit": false,
      "t": 286285.42799999914,
      "d": 562.4994375000242,
      "v": 95
    },
    {
      "midi": 67,
      "hit": false,
      "t": 286285.42799999914,
      "d": 714.2850000000326,
      "v": 97
    },
    {
      "midi": 62,
      "hit": false,
      "t": 286285.4279999993,
      "d": 915.1776562499581,
      "v": 104
    },
    {
      "midi": 67,
      "hit": false,
      "t": 286285.4279999993,
      "d": 964.2847499999334,
      "v": 103
    },
    {
      "midi": 59,
      "hit": false,
      "t": 286285.4279999993,
      "d": 1013.3918437499087,
      "v": 100
    },
    {
      "midi": 55,
      "hit": false,
      "t": 286285.4279999993,
      "d": 1285.7129999999306,
      "v": 102
    },
    {
      "midi": 76,
      "hit": false,
      "t": 287571.1409999992,
      "d": 357.1424999999581,
      "v": 96
    },
    {
      "midi": 83,
      "hit": false,
      "t": 287571.1409999992,
      "d": 374.99962499993853,
      "v": 100
    },
    {
      "midi": 80,
      "hit": false,
      "t": 287571.1409999992,
      "d": 383.92818749992875,
      "v": 101
    },
    {
      "midi": 68,
      "hit": false,
      "t": 287571.1409999992,
      "d": 419.64243749994785,
      "v": 93
    },
    {
      "midi": 71,
      "hit": false,
      "t": 287571.14099999925,
      "d": 674.1064687499893,
      "v": 105
    },
    {
      "midi": 68,
      "hit": false,
      "t": 287571.14099999925,
      "d": 691.9635937499697,
      "v": 106
    },
    {
      "midi": 56,
      "hit": false,
      "t": 287571.14099999925,
      "d": 754.4635312499595,
      "v": 98
    },
    {
      "midi": 81,
      "hit": false,
      "t": 287999.7119999991,
      "d": 687.4993125000037,
      "v": 99
    },
    {
      "midi": 76,
      "hit": false,
      "t": 287999.7119999991,
      "d": 696.427874999994,
      "v": 91
    },
    {
      "midi": 84,
      "hit": false,
      "t": 287999.7119999991,
      "d": 705.3564374999842,
      "v": 98
    },
    {
      "midi": 69,
      "hit": false,
      "t": 287999.7119999991,
      "d": 830.3563124999637,
      "v": 98
    },
    {
      "midi": 64,
      "hit": false,
      "t": 287999.71199999924,
      "d": 214.28549999999814,
      "v": 96
    },
    {
      "midi": 69,
      "hit": false,
      "t": 287999.71199999924,
      "d": 1236.6059062499553,
      "v": 104
    },
    {
      "midi": 72,
      "hit": false,
      "t": 287999.71199999924,
      "d": 1267.8558749999502,
      "v": 103
    },
    {
      "midi": 57,
      "hit": false,
      "t": 287999.71199999924,
      "d": 1495.5342187499045,
      "v": 103
    },
    {
      "midi": 79,
      "hit": false,
      "t": 289285.4249999991,
      "d": 205.35693750000792,
      "v": 95
    },
    {
      "midi": 83,
      "hit": false,
      "t": 289285.4249999991,
      "d": 214.28549999999814,
      "v": 100
    },
    {
      "midi": 74,
      "hit": false,
      "t": 289285.4249999991,
      "d": 276.7854374999879,
      "v": 94
    },
    {
      "midi": 67,
      "hit": false,
      "t": 289285.4249999991,
      "d": 401.7853124999674,
      "v": 88
    },
    {
      "midi": 67,
      "hit": false,
      "t": 289285.4249999992,
      "d": 370.5353437499725,
      "v": 100
    },
    {
      "midi": 71,
      "hit": false,
      "t": 289285.4249999992,
      "d": 383.92818749998696,
      "v": 105
    },
    {
      "midi": 62,
      "hit": false,
      "t": 289285.4249999992,
      "d": 499.99950000003446,
      "v": 99
    },
    {
      "midi": 55,
      "hit": false,
      "t": 289285.4249999992,
      "d": 723.2135625000228,
      "v": 93
    },
    {
      "midi": 81,
      "hit": false,
      "t": 289713.9959999991,
      "d": 910.7133750000503,
      "v": 99
    },
    {
      "midi": 77,
      "hit": false,
      "t": 289713.9959999991,
      "d": 937.4990625000792,
      "v": 97
    },
    {
      "midi": 72,
      "hit": false,
      "t": 289713.9959999991,
      "d": 991.0704375000787,
      "v": 97
    },
    {
      "midi": 65,
      "hit": false,
      "t": 289713.9959999991,
      "d": 1035.713250000088,
      "v": 97
    },
    {
      "midi": 69,
      "hit": false,
      "t": 289713.99599999917,
      "d": 1638.3912187500391,
      "v": 104
    },
    {
      "midi": 65,
      "hit": false,
      "t": 289713.99599999917,
      "d": 1687.4983125000144,
      "v": 102
    },
    {
      "midi": 60,
      "hit": false,
      "t": 289713.99599999917,
      "d": 1785.7125000000815,
      "v": 102
    },
    {
      "midi": 53,
      "hit": false,
      "t": 289713.99599999917,
      "d": 1866.06956250011,
      "v": 102
    },
    {
      "midi": 64,
      "hit": false,
      "t": 291428.2799999992,
      "d": 383.92818750004517,
      "v": 109
    },
    {
      "midi": 67,
      "hit": false,
      "t": 291428.2799999992,
      "d": 611.6065312500577,
      "v": 109
    },
    {
      "midi": 48,
      "hit": false,
      "t": 291428.2799999992,
      "d": 2459.818968750071,
      "v": 101
    },
    {
      "midi": 76,
      "hit": false,
      "t": 291428.2799999992,
      "d": 214.28549999999814,
      "v": 104
    },
    {
      "midi": 79,
      "hit": false,
      "t": 291428.2799999992,
      "d": 339.28537499997765,
      "v": 104
    },
    {
      "midi": 60,
      "hit": false,
      "t": 291428.2799999992,
      "d": 1366.0700625000754,
      "v": 96
    },
    {
      "midi": 72,
      "hit": false,
      "t": 291642.5654999992,
      "d": 312.499687500007,
      "v": 93
    },
    {
      "midi": 60,
      "hit": false,
      "t": 291642.56549999927,
      "d": 562.4994375000242,
      "v": 98
    },
    {
      "midi": 74,
      "hit": false,
      "t": 291856.8509999992,
      "d": 178.57125000003725,
      "v": 86
    },
    {
      "midi": 62,
      "hit": false,
      "t": 292071.13649999927,
      "d": 428.5710000000545,
      "v": 103
    },
    {
      "midi": 67,
      "hit": false,
      "t": 292071.13649999927,
      "d": 901.7848125000601,
      "v": 105
    },
    {
      "midi": 74,
      "hit": false,
      "t": 292071.13649999927,
      "d": 446.4281249999767,
      "v": 98
    },
    {
      "midi": 79,
      "hit": false,
      "t": 292071.13649999927,
      "d": 499.99949999997625,
      "v": 100
    },
    {
      "midi": 67,
      "hit": false,
      "t": 292285.42199999926,
      "d": 598.2136875000433,
      "v": 95
    },
    {
      "midi": 72,
      "hit": false,
      "t": 292499.70749999926,
      "d": 249.99975000001723,
      "v": 96
    },
    {
      "midi": 60,
      "hit": false,
      "t": 292499.7074999993,
      "d": 450.89240625000093,
      "v": 101
    },
    {
      "midi": 74,
      "hit": false,
      "t": 292713.99299999926,
      "d": 178.57125000003725,
      "v": 97
    },
    {
      "midi": 62,
      "hit": false,
      "t": 292713.9929999993,
      "d": 321.4282499999972,
      "v": 102
    },
    {
      "midi": 74,
      "hit": false,
      "t": 293142.56399999926,
      "d": 464.28525000001537,
      "v": 99
    },
    {
      "midi": 79,
      "hit": false,
      "t": 293142.56399999926,
      "d": 473.2138125000056,
      "v": 100
    },
    {
      "midi": 67,
      "hit": false,
      "t": 293142.56399999926,
      "d": 651.7850624999846,
      "v": 98
    },
    {
      "midi": 55,
      "hit": false,
      "t": 293142.5639999993,
      "d": 857.1419999999925,
      "v": 103
    },
    {
      "midi": 67,
      "hit": false,
      "t": 293142.5639999993,
      "d": 857.1419999999925,
      "v": 105
    },
    {
      "midi": 71,
      "hit": false,
      "t": 294428.27699999925,
      "d": 160.7141249999986,
      "v": 96
    },
    {
      "midi": 76,
      "hit": false,
      "t": 294428.27699999925,
      "d": 196.4283750000177,
      "v": 96
    },
    {
      "midi": 80,
      "hit": false,
      "t": 294428.27699999925,
      "d": 214.28549999999814,
      "v": 101
    },
    {
      "midi": 68,
      "hit": false,
      "t": 294428.27699999925,
      "d": 294.64256250002654,
      "v": 94
    },
    {
      "midi": 59,
      "hit": false,
      "t": 294428.2769999993,
      "d": 290.1782812500023,
      "v": 101
    },
    {
      "midi": 64,
      "hit": false,
      "t": 294428.2769999993,
      "d": 352.6782187499921,
      "v": 101
    },
    {
      "midi": 68,
      "hit": false,
      "t": 294428.2769999993,
      "d": 383.92818749998696,
      "v": 106
    },
    {
      "midi": 56,
      "hit": false,
      "t": 294428.2769999993,
      "d": 531.2494687499711,
      "v": 99
    },
    {
      "midi": 57,
      "hit": false,
      "t": 294856.8479999993,
      "d": 1830.3553124999744,
      "v": 103
    },
    {
      "midi": 81,
      "hit": false,
      "t": 294856.8479999993,
      "d": 955.3561875000014,
      "v": 99
    },
    {
      "midi": 76,
      "hit": false,
      "t": 294856.8479999993,
      "d": 964.2847499999916,
      "v": 100
    },
    {
      "midi": 69,
      "hit": false,
      "t": 294856.8479999993,
      "d": 1017.8561249999912,
      "v": 98
    },
    {
      "midi": 62,
      "hit": false,
      "t": 296142.5609999993,
      "d": 624.999375000014,
      "v": 100
    },
    {
      "midi": 71,
      "hit": false,
      "t": 296142.5609999993,
      "d": 624.999375000014,
      "v": 102
    },
    {
      "midi": 67,
      "hit": false,
      "t": 296142.5609999993,
      "d": 691.9635937500279,
      "v": 103
    },
    {
      "midi": 55,
      "hit": false,
      "t": 296142.5609999993,
      "d": 754.4635312500177,
      "v": 101
    },
    {
      "midi": 74,
      "hit": false,
      "t": 296142.5609999993,
      "d": 348.2139375000261,
      "v": 95
    },
    {
      "midi": 83,
      "hit": false,
      "t": 296142.5609999993,
      "d": 348.2139375000261,
      "v": 97
    },
    {
      "midi": 79,
      "hit": false,
      "t": 296142.5609999993,
      "d": 383.92818750004517,
      "v": 98
    },
    {
      "midi": 67,
      "hit": false,
      "t": 296142.5609999993,
      "d": 419.64243750006426,
      "v": 96
    },
    {
      "midi": 64,
      "hit": false,
      "t": 296571.1319999993,
      "d": 98.21418750000885,
      "v": 91
    },
    {
      "midi": 69,
      "hit": false,
      "t": 296571.1319999993,
      "d": 1714.2840000000433,
      "v": 104
    },
    {
      "midi": 65,
      "hit": false,
      "t": 296571.1319999993,
      "d": 1799.1053437500377,
      "v": 102
    },
    {
      "midi": 53,
      "hit": false,
      "t": 296571.1319999993,
      "d": 1816.9624687500182,
      "v": 100
    },
    {
      "midi": 60,
      "hit": false,
      "t": 296571.1319999993,
      "d": 1928.5695000000414,
      "v": 97
    },
    {
      "midi": 76,
      "hit": false,
      "t": 296571.13199999934,
      "d": 53.571374999999534,
      "v": 86
    },
    {
      "midi": 81,
      "hit": false,
      "t": 296571.13199999934,
      "d": 991.0704375000205,
      "v": 99
    },
    {
      "midi": 77,
      "hit": false,
      "t": 296571.13199999934,
      "d": 999.9990000000107,
      "v": 97
    },
    {
      "midi": 65,
      "hit": false,
      "t": 296571.13199999934,
      "d": 1008.9275625000009,
      "v": 95
    },
    {
      "midi": 72,
      "hit": false,
      "t": 296571.13199999934,
      "d": 1071.4274999999907,
      "v": 92
    },
    {
      "midi": 48,
      "hit": false,
      "t": 298285.4159999993,
      "d": 2602.675968750089,
      "v": 95
    },
    {
      "midi": 79,
      "hit": false,
      "t": 298285.4159999993,
      "d": 589.2851249999949,
      "v": 96
    },
    {
      "midi": 76,
      "hit": false,
      "t": 298285.4159999993,
      "d": 598.2136874999851,
      "v": 101
    },
    {
      "midi": 60,
      "hit": false,
      "t": 298285.4159999993,
      "d": 1446.4271250000456,
      "v": 90
    },
    {
      "midi": 67,
      "hit": false,
      "t": 298285.4159999993,
      "d": 1473.2128125000745,
      "v": 94
    },
    {
      "midi": 67,
      "hit": false,
      "t": 298928.2724999993,
      "d": 419.64243750000605,
      "v": 104
    },
    {
      "midi": 64,
      "hit": false,
      "t": 298928.2724999993,
      "d": 428.5709999999963,
      "v": 104
    },
    {
      "midi": 76,
      "hit": false,
      "t": 298928.2724999993,
      "d": 89.28562500001863,
      "v": 99
    },
    {
      "midi": 79,
      "hit": false,
      "t": 298928.2724999993,
      "d": 98.21418750000885,
      "v": 99
    },
    {
      "midi": 64,
      "hit": false,
      "t": 299356.8434999993,
      "d": 562.4994375000242,
      "v": 107
    },
    {
      "midi": 76,
      "hit": false,
      "t": 299356.8434999993,
      "d": 312.499687500007,
      "v": 102
    },
    {
      "midi": 79,
      "hit": false,
      "t": 299356.8434999993,
      "d": 339.28537500003586,
      "v": 102
    },
    {
      "midi": 60,
      "hit": false,
      "t": 299571.1289999993,
      "d": 428.5710000000545,
      "v": 65
    },
    {
      "midi": 72,
      "hit": false,
      "t": 299571.1289999993,
      "d": 44.64281250000931,
      "v": 60
    },
    {
      "midi": 62,
      "hit": false,
      "t": 299999.6999999994,
      "d": 834.8205937500461,
      "v": 106
    },
    {
      "midi": 67,
      "hit": false,
      "t": 299999.6999999994,
      "d": 866.070562500041,
      "v": 107
    },
    {
      "midi": 55,
      "hit": false,
      "t": 299999.6999999994,
      "d": 937.499062500021,
      "v": 105
    },
    {
      "midi": 74,
      "hit": false,
      "t": 299999.69999999943,
      "d": 464.28525000001537,
      "v": 101
    },
    {
      "midi": 79,
      "hit": false,
      "t": 299999.69999999943,
      "d": 482.1423749999958,
      "v": 102
    },
    {
      "midi": 67,
      "hit": false,
      "t": 299999.69999999943,
      "d": 669.6421875000233,
      "v": 100
    },
    {
      "midi": 71,
      "hit": false,
      "t": 301285.4129999994,
      "d": 660.7136249999749,
      "v": 99
    },
    {
      "midi": 68,
      "hit": false,
      "t": 301285.4129999994,
      "d": 674.1064687499893,
      "v": 106
    },
    {
      "midi": 56,
      "hit": false,
      "t": 301285.4129999994,
      "d": 705.3564374999842,
      "v": 98
    },
    {
      "midi": 83,
      "hit": false,
      "t": 301285.4129999995,
      "d": 366.0710625000065,
      "v": 94
    },
    {
      "midi": 80,
      "hit": false,
      "t": 301285.4129999995,
      "d": 374.99962499999674,
      "v": 101
    },
    {
      "midi": 68,
      "hit": false,
      "t": 301285.4129999995,
      "d": 392.8567499999772,
      "v": 93
    },
    {
      "midi": 69,
      "hit": false,
      "t": 301713.9839999994,
      "d": 1714.283999999985,
      "v": 99
    },
    {
      "midi": 64,
      "hit": false,
      "t": 301713.9839999994,
      "d": 1785.712499999965,
      "v": 95
    },
    {
      "midi": 72,
      "hit": false,
      "t": 301713.9839999994,
      "d": 1991.069437499973,
      "v": 104
    },
    {
      "midi": 57,
      "hit": false,
      "t": 301713.9839999994,
      "d": 2169.640687499952,
      "v": 101
    },
    {
      "midi": 76,
      "hit": false,
      "t": 301713.9839999995,
      "d": 991.0704375000205,
      "v": 90
    },
    {
      "midi": 84,
      "hit": false,
      "t": 301713.9839999995,
      "d": 1107.1417500000098,
      "v": 99
    },
    {
      "midi": 81,
      "hit": false,
      "t": 301713.9839999995,
      "d": 1187.4988125000382,
      "v": 94
    },
    {
      "midi": 69,
      "hit": false,
      "t": 301713.9839999995,
      "d": 1205.3559375000186,
      "v": 96
    },
    {
      "midi": 67,
      "hit": false,
      "t": 302999.6969999994,
      "d": 383.92818749998696,
      "v": 95
    },
    {
      "midi": 71,
      "hit": false,
      "t": 302999.6969999994,
      "d": 401.7853124999674,
      "v": 102
    },
    {
      "midi": 62,
      "hit": false,
      "t": 302999.6969999994,
      "d": 593.7494062499609,
      "v": 98
    },
    {
      "midi": 55,
      "hit": false,
      "t": 302999.6969999994,
      "d": 723.2135624999646,
      "v": 100
    },
    {
      "midi": 79,
      "hit": false,
      "t": 302999.6969999995,
      "d": 214.28549999999814,
      "v": 90
    },
    {
      "midi": 83,
      "hit": false,
      "t": 302999.6969999995,
      "d": 223.21406249998836,
      "v": 97
    },
    {
      "midi": 74,
      "hit": false,
      "t": 302999.6969999995,
      "d": 330.3568124999874,
      "v": 93
    },
    {
      "midi": 67,
      "hit": false,
      "t": 302999.6969999995,
      "d": 401.7853124999674,
      "v": 95
    },
    {
      "midi": 69,
      "hit": false,
      "t": 303428.2679999994,
      "d": 1714.283999999927,
      "v": 106
    },
    {
      "midi": 65,
      "hit": false,
      "t": 303428.2679999994,
      "d": 1910.7123749999446,
      "v": 106
    },
    {
      "midi": 53,
      "hit": false,
      "t": 303428.2679999994,
      "d": 1928.569499999925,
      "v": 103
    },
    {
      "midi": 77,
      "hit": false,
      "t": 303428.2679999995,
      "d": 1062.4989374999423,
      "v": 101
    },
    {
      "midi": 81,
      "hit": false,
      "t": 303428.2679999995,
      "d": 1062.4989374999423,
      "v": 101
    },
    {
      "midi": 65,
      "hit": false,
      "t": 303428.2679999995,
      "d": 1071.4274999999325,
      "v": 98
    },
    {
      "midi": 64,
      "hit": false,
      "t": 305142.5519999993,
      "d": 754.4635312500177,
      "v": 103
    },
    {
      "midi": 48,
      "hit": false,
      "t": 305142.5519999993,
      "d": 2910.7113749999553,
      "v": 98
    },
    {
      "midi": 76,
      "hit": false,
      "t": 305142.55199999944,
      "d": 419.64243750000605,
      "v": 98
    },
    {
      "midi": 79,
      "hit": false,
      "t": 305142.55199999944,
      "d": 419.64243750000605,
      "v": 100
    },
    {
      "midi": 67,
      "hit": false,
      "t": 305142.55199999944,
      "d": 687.4993125000037,
      "v": 93
    },
    {
      "midi": 60,
      "hit": false,
      "t": 305142.55199999944,
      "d": 1616.0698125000927,
      "v": 93
    },
    {
      "midi": 60,
      "hit": false,
      "t": 305571.1229999993,
      "d": 191.96409374999348,
      "v": 84
    },
    {
      "midi": 72,
      "hit": false,
      "t": 305571.12299999944,
      "d": 107.14274999999907,
      "v": 79
    },
    {
      "midi": 67,
      "hit": false,
      "t": 305785.4084999993,
      "d": 214.28549999999814,
      "v": 107
    },
    {
      "midi": 79,
      "hit": false,
      "t": 305785.40849999944,
      "d": 249.99975000001723,
      "v": 102
    },
    {
      "midi": 74,
      "hit": false,
      "t": 305785.40849999944,
      "d": 258.92831250000745,
      "v": 102
    },
    {
      "midi": 55,
      "hit": false,
      "t": 305999.6939999993,
      "d": 379.46390625002095,
      "v": 101
    },
    {
      "midi": 67,
      "hit": false,
      "t": 305999.69399999944,
      "d": 258.92831250000745,
      "v": 96
    },
    {
      "midi": 62,
      "hit": false,
      "t": 306213.9794999993,
      "d": 214.28549999999814,
      "v": 104
    },
    {
      "midi": 67,
      "hit": false,
      "t": 306213.9794999993,
      "d": 214.28549999999814,
      "v": 109
    },
    {
      "midi": 74,
      "hit": false,
      "t": 306213.97949999943,
      "d": 348.2139375000261,
      "v": 99
    },
    {
      "midi": 79,
      "hit": false,
      "t": 306213.97949999943,
      "d": 401.7853125000838,
      "v": 104
    },
    {
      "midi": 60,
      "hit": false,
      "t": 306428.2649999993,
      "d": 428.5709999999963,
      "v": 91
    },
    {
      "midi": 72,
      "hit": false,
      "t": 306428.26499999943,
      "d": 160.7141250000568,
      "v": 86
    },
    {
      "midi": 67,
      "hit": false,
      "t": 306856.8359999993,
      "d": 214.28549999999814,
      "v": 104
    },
    {
      "midi": 83,
      "hit": false,
      "t": 306856.83599999954,
      "d": 491.07093749998603,
      "v": 98
    },
    {
      "midi": 67,
      "hit": false,
      "t": 306856.83599999954,
      "d": 508.9280624999665,
      "v": 98
    },
    {
      "midi": 79,
      "hit": false,
      "t": 306856.83599999954,
      "d": 508.9280624999665,
      "v": 99
    },
    {
      "midi": 74,
      "hit": false,
      "t": 306856.83599999954,
      "d": 517.8566249999567,
      "v": 100
    },
    {
      "midi": 59,
      "hit": false,
      "t": 307285.4069999993,
      "d": 428.5709999999963,
      "v": 103
    },
    {
      "midi": 71,
      "hit": false,
      "t": 307285.40699999954,
      "d": 107.14274999994086,
      "v": 98
    },
    {
      "midi": 71,
      "hit": false,
      "t": 307499.6924999993,
      "d": 401.7853125000256,
      "v": 107
    },
    {
      "midi": 62,
      "hit": false,
      "t": 307499.6924999993,
      "d": 419.64243750000605,
      "v": 106
    },
    {
      "midi": 67,
      "hit": false,
      "t": 307499.6924999993,
      "d": 419.64243750000605,
      "v": 104
    },
    {
      "midi": 83,
      "hit": false,
      "t": 307499.6924999995,
      "d": 223.21406249998836,
      "v": 102
    },
    {
      "midi": 74,
      "hit": false,
      "t": 307499.6924999995,
      "d": 232.14262499997858,
      "v": 101
    },
    {
      "midi": 79,
      "hit": false,
      "t": 307499.6924999995,
      "d": 232.14262499997858,
      "v": 99
    },
    {
      "midi": 55,
      "hit": false,
      "t": 307713.9779999993,
      "d": 214.28549999999814,
      "v": 101
    },
    {
      "midi": 67,
      "hit": false,
      "t": 307713.9779999995,
      "d": 223.21406249998836,
      "v": 96
    },
    {
      "midi": 79,
      "hit": false,
      "t": 307928.2634999995,
      "d": 187.49981249996927,
      "v": 99
    },
    {
      "midi": 74,
      "hit": false,
      "t": 307928.2634999995,
      "d": 196.4283749999595,
      "v": 101
    },
    {
      "midi": 83,
      "hit": false,
      "t": 307928.2634999995,
      "d": 205.3569374999497,
      "v": 94
    },
    {
      "midi": 55,
      "hit": false,
      "t": 308142.5489999993,
      "d": 428.5709999999963,
      "v": 105
    },
    {
      "midi": 67,
      "hit": false,
      "t": 308142.5489999994,
      "d": 151.78556250000838,
      "v": 100
    },
    {
      "midi": 65,
      "hit": false,
      "t": 308571.1199999993,
      "d": 428.5709999999963,
      "v": 100
    },
    {
      "midi": 72,
      "hit": false,
      "t": 308571.1199999993,
      "d": 785.7134999999544,
      "v": 100
    },
    {
      "midi": 53,
      "hit": false,
      "t": 308571.1199999993,
      "d": 857.1419999999343,
      "v": 89
    },
    {
      "midi": 41,
      "hit": false,
      "t": 308571.1199999993,
      "d": 2571.4259999999776,
      "v": 105
    },
    {
      "midi": 53,
      "hit": false,
      "t": 308571.1199999994,
      "d": 4.464281250024214,
      "v": 100
    },
    {
      "midi": 77,
      "hit": false,
      "t": 308571.1199999994,
      "d": 223.21406250004657,
      "v": 95
    },
    {
      "midi": 84,
      "hit": false,
      "t": 308571.1199999994,
      "d": 437.4995625000447,
      "v": 95
    },
    {
      "midi": 65,
      "hit": false,
      "t": 308571.1199999994,
      "d": 3017.854125000071,
      "v": 84
    },
    {
      "midi": 60,
      "hit": false,
      "t": 308785.4054999993,
      "d": 562.499437499966,
      "v": 80
    },
    {
      "midi": 72,
      "hit": false,
      "t": 308785.40549999947,
      "d": 312.499687500007,
      "v": 75
    },
    {
      "midi": 65,
      "hit": false,
      "t": 308999.6909999993,
      "d": 303.57112499995856,
      "v": 94
    },
    {
      "midi": 77,
      "hit": false,
      "t": 308999.69099999947,
      "d": 169.64268749998882,
      "v": 89
    },
    {
      "midi": 67,
      "hit": false,
      "t": 309213.9764999993,
      "d": 401.7853124999092,
      "v": 94
    },
    {
      "midi": 71,
      "hit": false,
      "t": 309213.9764999993,
      "d": 933.0347812499385,
      "v": 94
    },
    {
      "midi": 79,
      "hit": false,
      "t": 309213.97649999947,
      "d": 223.21406249998836,
      "v": 89
    },
    {
      "midi": 83,
      "hit": false,
      "t": 309213.97649999947,
      "d": 517.8566250000149,
      "v": 89
    },
    {
      "midi": 62,
      "hit": false,
      "t": 309428.26199999923,
      "d": 562.4994375000242,
      "v": 94
    },
    {
      "midi": 74,
      "hit": false,
      "t": 309428.26199999946,
      "d": 312.499687500007,
      "v": 89
    },
    {
      "midi": 67,
      "hit": false,
      "t": 309642.54749999923,
      "d": 290.1782812500023,
      "v": 91
    },
    {
      "midi": 79,
      "hit": false,
      "t": 309642.54749999946,
      "d": 160.7141249999986,
      "v": 86
    },
    {
      "midi": 72,
      "hit": false,
      "t": 309856.83299999946,
      "d": 348.2139375000261,
      "v": 87
    },
    {
      "midi": 77,
      "hit": false,
      "t": 309856.83299999946,
      "d": 366.0710625000065,
      "v": 90
    },
    {
      "midi": 81,
      "hit": false,
      "t": 309856.83299999946,
      "d": 392.8567500000354,
      "v": 88
    },
    {
      "midi": 60,
      "hit": false,
      "t": 310285.4039999992,
      "d": 857.1420000000508,
      "v": 83
    },
    {
      "midi": 65,
      "hit": false,
      "t": 310285.4039999992,
      "d": 857.1420000000508,
      "v": 95
    },
    {
      "midi": 69,
      "hit": false,
      "t": 310285.4039999992,
      "d": 857.1420000000508,
      "v": 92
    },
    {
      "midi": 77,
      "hit": false,
      "t": 310285.4039999995,
      "d": 1107.1417500000098,
      "v": 90
    },
    {
      "midi": 72,
      "hit": false,
      "t": 310285.4039999995,
      "d": 1116.0703125,
      "v": 78
    },
    {
      "midi": 81,
      "hit": false,
      "t": 310285.4039999995,
      "d": 1133.9274374999804,
      "v": 87
    },
    {
      "midi": 41,
      "hit": false,
      "t": 311571.11699999927,
      "d": 401.7853125000256,
      "v": 105
    },
    {
      "midi": 53,
      "hit": false,
      "t": 311571.1169999995,
      "d": 223.21406249998836,
      "v": 100
    },
    {
      "midi": 53,
      "hit": false,
      "t": 311999.6879999993,
      "d": 2004.4622812499874,
      "v": 103
    },
    {
      "midi": 41,
      "hit": false,
      "t": 311999.6879999993,
      "d": 6169.636687499995,
      "v": 101
    },
    {
      "midi": 53,
      "hit": false,
      "t": 311999.6879999995,
      "d": 3428.5680000000284,
      "v": 96
    },
    {
      "midi": 65,
      "hit": false,
      "t": 311999.6879999995,
      "d": 3428.5680000000284,
      "v": 98
    }
  ]
}