{
  "jsonPath": "Unknown/Unknown/Sonny Burke And Peggy Lee/hes-a-tramp.json",
  "path": "Unknown\\Unknown\\Sonny Burke And Peggy Lee\\Hes a Tramp.mid",
  "name": "Hes a Tramp",
  "difficulty": "Advanced",
  "bpm": 100,
  "notes": [
    {
      "midi": 53,
      "hit": false,
      "t": 0,
      "d": 1200,
      "v": 68
    },
    {
      "midi": 57,
      "hit": false,
      "t": 0,
      "d": 1200,
      "v": 68
    },
    {
      "midi": 65,
      "hit": false,
      "t": 450,
      "d": 150,
      "v": 72
    },
    {
      "midi": 67,
      "hit": false,
      "t": 600,
      "d": 450,
      "v": 80
    },
    {
      "midi": 69,
      "hit": false,
      "t": 1050,
      "d": 150,
      "v": 83
    },
    {
      "midi": 67,
      "hit": false,
      "t": 1200,
      "d": 450,
      "v": 67
    },
    {
      "midi": 55,
      "hit": false,
      "t": 1200,
      "d": 600,
      "v": 73
    },
    {
      "midi": 58,
      "hit": false,
      "t": 1200,
      "d": 600,
      "v": 73
    },
    {
      "midi": 65,
      "hit": false,
      "t": 1650,
      "d": 150,
      "v": 68
    },
    {
      "midi": 62,
      "hit": false,
      "t": 1800,
      "d": 600,
      "v": 72
    },
    {
      "midi": 55,
      "hit": false,
      "t": 1800,
      "d": 600,
      "v": 73
    },
    {
      "midi": 58,
      "hit": false,
      "t": 1800,
      "d": 600,
      "v": 73
    },
    {
      "midi": 53,
      "hit": false,
      "t": 2400,
      "d": 1200,
      "v": 75
    },
    {
      "midi": 57,
      "hit": false,
      "t": 2400,
      "d": 1200,
      "v": 75
    },
    {
      "midi": 65,
      "hit": false,
      "t": 2850,
      "d": 150,
      "v": 66
    },
    {
      "midi": 67,
      "hit": false,
      "t": 3000,
      "d": 450,
      "v": 78
    },
    {
      "midi": 69,
      "hit": false,
      "t": 3450,
      "d": 150,
      "v": 78
    },
    {
      "midi": 67,
      "hit": false,
      "t": 3600,
      "d": 450,
      "v": 73
    },
    {
      "midi": 55,
      "hit": false,
      "t": 3600,
      "d": 600,
      "v": 73
    },
    {
      "midi": 59,
      "hit": false,
      "t": 3600,
      "d": 600,
      "v": 73
    },
    {
      "midi": 65,
      "hit": false,
      "t": 4050,
      "d": 150,
      "v": 74
    },
    {
      "midi": 62,
      "hit": false,
      "t": 4200,
      "d": 600,
      "v": 67
    },
    {
      "midi": 55,
      "hit": false,
      "t": 4200,
      "d": 600,
      "v": 73
    },
    {
      "midi": 59,
      "hit": false,
      "t": 4200,
      "d": 600,
      "v": 73
    },
    {
      "midi": 55,
      "hit": false,
      "t": 4800,
      "d": 1200,
      "v": 75
    },
    {
      "midi": 58,
      "hit": false,
      "t": 4800,
      "d": 1200,
      "v": 75
    },
    {
      "midi": 67,
      "hit": false,
      "t": 5250,
      "d": 150,
      "v": 69
    },
    {
      "midi": 69,
      "hit": false,
      "t": 5400,
      "d": 450,
      "v": 80
    },
    {
      "midi": 70,
      "hit": false,
      "t": 5850,
      "d": 150,
      "v": 82
    },
    {
      "midi": 69,
      "hit": false,
      "t": 6000,
      "d": 450,
      "v": 70
    },
    {
      "midi": 53,
      "hit": false,
      "t": 6000,
      "d": 1200,
      "v": 80
    },
    {
      "midi": 65,
      "hit": false,
      "t": 6450,
      "d": 150,
      "v": 71
    },
    {
      "midi": 62,
      "hit": false,
      "t": 6600,
      "d": 450,
      "v": 70
    },
    {
      "midi": 69,
      "hit": false,
      "t": 7050,
      "d": 150,
      "v": 83
    },
    {
      "midi": 64,
      "hit": false,
      "t": 7200,
      "d": 1800,
      "v": 77
    },
    {
      "midi": 67,
      "hit": false,
      "t": 7200,
      "d": 1800,
      "v": 77
    },
    {
      "midi": 52,
      "hit": false,
      "t": 7200,
      "d": 450,
      "v": 79
    },
    {
      "midi": 58,
      "hit": false,
      "t": 7200,
      "d": 450,
      "v": 79
    },
    {
      "midi": 55,
      "hit": false,
      "t": 7650,
      "d": 150,
      "v": 74
    },
    {
      "midi": 60,
      "hit": false,
      "t": 7800,
      "d": 450,
      "v": 67
    },
    {
      "midi": 64,
      "hit": false,
      "t": 8250,
      "d": 150,
      "v": 100
    },
    {
      "midi": 55,
      "hit": false,
      "t": 8400,
      "d": 600,
      "v": 100
    },
    {
      "midi": 69,
      "hit": false,
      "t": 9000,
      "d": 450,
      "v": 80
    },
    {
      "midi": 65,
      "hit": false,
      "t": 9450,
      "d": 150,
      "v": 67
    },
    {
      "midi": 60,
      "hit": false,
      "t": 9600,
      "d": 1200,
      "v": 85
    },
    {
      "midi": 64,
      "hit": false,
      "t": 9600,
      "d": 1200,
      "v": 85
    },
    {
      "midi": 67,
      "hit": false,
      "t": 9600,
      "d": 1200,
      "v": 85
    },
    {
      "midi": 48,
      "hit": false,
      "t": 9600,
      "d": 600,
      "v": 69
    },
    {
      "midi": 55,
      "hit": false,
      "t": 10200,
      "d": 600,
      "v": 83
    },
    {
      "midi": 62,
      "hit": false,
      "t": 10800,
      "d": 600,
      "v": 75
    },
    {
      "midi": 65,
      "hit": false,
      "t": 10800,
      "d": 600,
      "v": 75
    },
    {
      "midi": 67,
      "hit": false,
      "t": 10800,
      "d": 600,
      "v": 75
    },
    {
      "midi": 58,
      "hit": false,
      "t": 10800,
      "d": 600,
      "v": 78
    },
    {
      "midi": 69,
      "hit": false,
      "t": 11400,
      "d": 450,
      "v": 81
    },
    {
      "midi": 55,
      "hit": false,
      "t": 11400,
      "d": 600,
      "v": 100
    },
    {
      "midi": 65,
      "hit": false,
      "t": 11850,
      "d": 150,
      "v": 70
    },
    {
      "midi": 60,
      "hit": false,
      "t": 12000,
      "d": 300,
      "v": 70
    },
    {
      "midi": 64,
      "hit": false,
      "t": 12000,
      "d": 300,
      "v": 70
    },
    {
      "midi": 67,
      "hit": false,
      "t": 12000,
      "d": 300,
      "v": 83
    },
    {
      "midi": 48,
      "hit": false,
      "t": 12000,
      "d": 600,
      "v": 68
    },
    {
      "midi": 69,
      "hit": false,
      "t": 12300,
      "d": 300,
      "v": 86
    },
    {
      "midi": 55,
      "hit": false,
      "t": 12600,
      "d": 600,
      "v": 76
    },
    {
      "midi": 62,
      "hit": false,
      "t": 13200,
      "d": 600,
      "v": 83
    },
    {
      "midi": 65,
      "hit": false,
      "t": 13200,
      "d": 600,
      "v": 83
    },
    {
      "midi": 58,
      "hit": false,
      "t": 13200,
      "d": 600,
      "v": 84
    },
    {
      "midi": 72,
      "hit": false,
      "t": 13800,
      "d": 450,
      "v": 84
    },
    {
      "midi": 55,
      "hit": false,
      "t": 13800,
      "d": 600,
      "v": 100
    },
    {
      "midi": 69,
      "hit": false,
      "t": 14250,
      "d": 150,
      "v": 66
    },
    {
      "midi": 67,
      "hit": false,
      "t": 14400,
      "d": 300,
      "v": 80
    },
    {
      "midi": 70,
      "hit": false,
      "t": 14400,
      "d": 300,
      "v": 80
    },
    {
      "midi": 53,
      "hit": false,
      "t": 14400,
      "d": 1200,
      "v": 83
    },
    {
      "midi": 60,
      "hit": false,
      "t": 14400,
      "d": 1200,
      "v": 83
    },
    {
      "midi": 69,
      "hit": false,
      "t": 14700,
      "d": 300,
      "v": 82
    },
    {
      "midi": 72,
      "hit": false,
      "t": 14700,
      "d": 300,
      "v": 82
    },
    {
      "midi": 54,
      "hit": false,
      "t": 15600,
      "d": 1200,
      "v": 81
    },
    {
      "midi": 63,
      "hit": false,
      "t": 15600,
      "d": 1200,
      "v": 81
    },
    {
      "midi": 72,
      "hit": false,
      "t": 16200,
      "d": 450,
      "v": 77
    },
    {
      "midi": 69,
      "hit": false,
      "t": 16650,
      "d": 150,
      "v": 63
    },
    {
      "midi": 67,
      "hit": false,
      "t": 16800,
      "d": 1800,
      "v": 78
    },
    {
      "midi": 70,
      "hit": false,
      "t": 16800,
      "d": 1800,
      "v": 78
    },
    {
      "midi": 55,
      "hit": false,
      "t": 16800,
      "d": 600,
      "v": 72
    },
    {
      "midi": 62,
      "hit": false,
      "t": 17400,
      "d": 450,
      "v": 92
    },
    {
      "midi": 65,
      "hit": false,
      "t": 17400,
      "d": 450,
      "v": 92
    },
    {
      "midi": 58,
      "hit": false,
      "t": 17850,
      "d": 150,
      "v": 68
    },
    {
      "midi": 55,
      "hit": false,
      "t": 18000,
      "d": 600,
      "v": 70
    },
    {
      "midi": 72,
      "hit": false,
      "t": 18600,
      "d": 450,
      "v": 78
    },
    {
      "midi": 74,
      "hit": false,
      "t": 19050,
      "d": 150,
      "v": 85
    },
    {
      "midi": 72,
      "hit": false,
      "t": 19200,
      "d": 1200,
      "v": 84
    },
    {
      "midi": 76,
      "hit": false,
      "t": 19200,
      "d": 1200,
      "v": 84
    },
    {
      "midi": 55,
      "hit": false,
      "t": 19200,
      "d": 600,
      "v": 69
    },
    {
      "midi": 57,
      "hit": false,
      "t": 19800,
      "d": 600,
      "v": 78
    },
    {
      "midi": 70,
      "hit": false,
      "t": 20400,
      "d": 600,
      "v": 84
    },
    {
      "midi": 60,
      "hit": false,
      "t": 20400,
      "d": 1200,
      "v": 75
    },
    {
      "midi": 74,
      "hit": false,
      "t": 21000,
      "d": 450,
      "v": 71
    },
    {
      "midi": 76,
      "hit": false,
      "t": 21450,
      "d": 150,
      "v": 76
    },
    {
      "midi": 69,
      "hit": false,
      "t": 21600,
      "d": 300,
      "v": 69
    },
    {
      "midi": 74,
      "hit": false,
      "t": 21600,
      "d": 300,
      "v": 76
    },
    {
      "midi": 55,
      "hit": false,
      "t": 21600,
      "d": 600,
      "v": 69
    },
    {
      "midi": 72,
      "hit": false,
      "t": 21900,
      "d": 300,
      "v": 72
    },
    {
      "midi": 57,
      "hit": false,
      "t": 22200,
      "d": 600,
      "v": 78
    },
    {
      "midi": 69,
      "hit": false,
      "t": 22800,
      "d": 600,
      "v": 76
    },
    {
      "midi": 60,
      "hit": false,
      "t": 22800,
      "d": 1200,
      "v": 75
    },
    {
      "midi": 69,
      "hit": false,
      "t": 23400,
      "d": 450,
      "v": 71
    },
    {
      "midi": 65,
      "hit": false,
      "t": 23850,
      "d": 150,
      "v": 69
    },
    {
      "midi": 62,
      "hit": false,
      "t": 24000,
      "d": 450,
      "v": 68
    },
    {
      "midi": 68,
      "hit": false,
      "t": 24000,
      "d": 450,
      "v": 82
    },
    {
      "midi": 58,
      "hit": false,
      "t": 24000,
      "d": 1200,
      "v": 75
    },
    {
      "midi": 65,
      "hit": false,
      "t": 24450,
      "d": 150,
      "v": 73
    },
    {
      "midi": 67,
      "hit": false,
      "t": 24600,
      "d": 450,
      "v": 78
    },
    {
      "midi": 68,
      "hit": false,
      "t": 25050,
      "d": 150,
      "v": 81
    },
    {
      "midi": 64,
      "hit": false,
      "t": 25200,
      "d": 600,
      "v": 74
    },
    {
      "midi": 67,
      "hit": false,
      "t": 25200,
      "d": 600,
      "v": 74
    },
    {
      "midi": 48,
      "hit": false,
      "t": 25200,
      "d": 1200,
      "v": 72
    },
    {
      "midi": 58,
      "hit": false,
      "t": 25200,
      "d": 1200,
      "v": 72
    },
    {
      "midi": 62,
      "hit": false,
      "t": 25800,
      "d": 600,
      "v": 77
    },
    {
      "midi": 65,
      "hit": false,
      "t": 25800,
      "d": 600,
      "v": 77
    },
    {
      "midi": 65,
      "hit": false,
      "t": 26400,
      "d": 1800,
      "v": 77
    },
    {
      "midi": 53,
      "hit": false,
      "t": 26400,
      "d": 450,
      "v": 75
    },
    {
      "midi": 57,
      "hit": false,
      "t": 26400,
      "d": 450,
      "v": 75
    },
    {
      "midi": 60,
      "hit": false,
      "t": 26850,
      "d": 150,
      "v": 83
    },
    {
      "midi": 62,
      "hit": false,
      "t": 27000,
      "d": 450,
      "v": 78
    },
    {
      "midi": 60,
      "hit": false,
      "t": 27450,
      "d": 150,
      "v": 70
    },
    {
      "midi": 53,
      "hit": false,
      "t": 27600,
      "d": 600,
      "v": 73
    },
    {
      "midi": 57,
      "hit": false,
      "t": 27600,
      "d": 600,
      "v": 73
    },
    {
      "midi": 69,
      "hit": false,
      "t": 28200,
      "d": 450,
      "v": 82
    },
    {
      "midi": 65,
      "hit": false,
      "t": 28650,
      "d": 150,
      "v": 74
    },
    {
      "midi": 60,
      "hit": false,
      "t": 28800,
      "d": 1200,
      "v": 81
    },
    {
      "midi": 64,
      "hit": false,
      "t": 28800,
      "d": 1200,
      "v": 81
    },
    {
      "midi": 67,
      "hit": false,
      "t": 28800,
      "d": 1200,
      "v": 81
    },
    {
      "midi": 48,
      "hit": false,
      "t": 28800,
      "d": 600,
      "v": 69
    },
    {
      "midi": 55,
      "hit": false,
      "t": 29400,
      "d": 600,
      "v": 83
    },
    {
      "midi": 62,
      "hit": false,
      "t": 30000,
      "d": 600,
      "v": 79
    },
    {
      "midi": 65,
      "hit": false,
      "t": 30000,
      "d": 600,
      "v": 79
    },
    {
      "midi": 67,
      "hit": false,
      "t": 30000,
      "d": 600,
      "v": 79
    },
    {
      "midi": 58,
      "hit": false,
      "t": 30000,
      "d": 600,
      "v": 78
    },
    {
      "midi": 69,
      "hit": false,
      "t": 30600,
      "d": 450,
      "v": 82
    },
    {
      "midi": 55,
      "hit": false,
      "t": 30600,
      "d": 600,
      "v": 100
    },
    {
      "midi": 65,
      "hit": false,
      "t": 31050,
      "d": 150,
      "v": 67
    },
    {
      "midi": 60,
      "hit": false,
      "t": 31200,
      "d": 300,
      "v": 69
    },
    {
      "midi": 64,
      "hit": false,
      "t": 31200,
      "d": 300,
      "v": 69
    },
    {
      "midi": 67,
      "hit": false,
      "t": 31200,
      "d": 300,
      "v": 80
    },
    {
      "midi": 48,
      "hit": false,
      "t": 31200,
      "d": 600,
      "v": 69
    },
    {
      "midi": 69,
      "hit": false,
      "t": 31500,
      "d": 300,
      "v": 79
    },
    {
      "midi": 55,
      "hit": false,
      "t": 31800,
      "d": 600,
      "v": 83
    },
    {
      "midi": 62,
      "hit": false,
      "t": 32400,
      "d": 600,
      "v": 78
    },
    {
      "midi": 65,
      "hit": false,
      "t": 32400,
      "d": 600,
      "v": 78
    },
    {
      "midi": 58,
      "hit": false,
      "t": 32400,
      "d": 600,
      "v": 78
    },
    {
      "midi": 72,
      "hit": false,
      "t": 33000,
      "d": 450,
      "v": 84
    },
    {
      "midi": 55,
      "hit": false,
      "t": 33000,
      "d": 600,
      "v": 100
    },
    {
      "midi": 69,
      "hit": false,
      "t": 33450,
      "d": 150,
      "v": 69
    },
    {
      "midi": 67,
      "hit": false,
      "t": 33600,
      "d": 300,
      "v": 79
    },
    {
      "midi": 70,
      "hit": false,
      "t": 33600,
      "d": 300,
      "v": 79
    },
    {
      "midi": 53,
      "hit": false,
      "t": 33600,
      "d": 1200,
      "v": 82
    },
    {
      "midi": 60,
      "hit": false,
      "t": 33600,
      "d": 1200,
      "v": 82
    },
    {
      "midi": 69,
      "hit": false,
      "t": 33900,
      "d": 300,
      "v": 81
    },
    {
      "midi": 72,
      "hit": false,
      "t": 33900,
      "d": 300,
      "v": 81
    },
    {
      "midi": 54,
      "hit": false,
      "t": 34800,
      "d": 1200,
      "v": 83
    },
    {
      "midi": 63,
      "hit": false,
      "t": 34800,
      "d": 1200,
      "v": 83
    },
    {
      "midi": 72,
      "hit": false,
      "t": 35400,
      "d": 450,
      "v": 71
    },
    {
      "midi": 69,
      "hit": false,
      "t": 35850,
      "d": 150,
      "v": 70
    },
    {
      "midi": 67,
      "hit": false,
      "t": 36000,
      "d": 1800,
      "v": 80
    },
    {
      "midi": 70,
      "hit": false,
      "t": 36000,
      "d": 1800,
      "v": 80
    },
    {
      "midi": 55,
      "hit": false,
      "t": 36000,
      "d": 600,
      "v": 68
    },
    {
      "midi": 62,
      "hit": false,
      "t": 36600,
      "d": 450,
      "v": 94
    },
    {
      "midi": 65,
      "hit": false,
      "t": 36600,
      "d": 450,
      "v": 94
    },
    {
      "midi": 58,
      "hit": false,
      "t": 37050,
      "d": 150,
      "v": 73
    },
    {
      "midi": 55,
      "hit": false,
      "t": 37200,
      "d": 600,
      "v": 76
    },
    {
      "midi": 72,
      "hit": false,
      "t": 37800,
      "d": 450,
      "v": 78
    },
    {
      "midi": 74,
      "hit": false,
      "t": 38250,
      "d": 150,
      "v": 84
    },
    {
      "midi": 72,
      "hit": false,
      "t": 38400,
      "d": 1200,
      "v": 81
    },
    {
      "midi": 76,
      "hit": false,
      "t": 38400,
      "d": 1200,
      "v": 81
    },
    {
      "midi": 53,
      "hit": false,
      "t": 38400,
      "d": 600,
      "v": 69
    },
    {
      "midi": 55,
      "hit": false,
      "t": 39000,
      "d": 600,
      "v": 78
    },
    {
      "midi": 70,
      "hit": false,
      "t": 39600,
      "d": 600,
      "v": 78
    },
    {
      "midi": 58,
      "hit": false,
      "t": 39600,
      "d": 1200,
      "v": 75
    },
    {
      "midi": 74,
      "hit": false,
      "t": 40200,
      "d": 450,
      "v": 70
    },
    {
      "midi": 76,
      "hit": false,
      "t": 40650,
      "d": 150,
      "v": 82
    },
    {
      "midi": 69,
      "hit": false,
      "t": 40800,
      "d": 300,
      "v": 73
    },
    {
      "midi": 74,
      "hit": false,
      "t": 40800,
      "d": 300,
      "v": 75
    },
    {
      "midi": 53,
      "hit": false,
      "t": 40800,
      "d": 600,
      "v": 69
    },
    {
      "midi": 72,
      "hit": false,
      "t": 41100,
      "d": 300,
      "v": 71
    },
    {
      "midi": 55,
      "hit": false,
      "t": 41400,
      "d": 600,
      "v": 78
    },
    {
      "midi": 58,
      "hit": false,
      "t": 42000,
      "d": 600,
      "v": 75
    },
    {
      "midi": 65,
      "hit": false,
      "t": 42600,
      "d": 600,
      "v": 69
    },
    {
      "midi": 69,
      "hit": false,
      "t": 42600,
      "d": 600,
      "v": 69
    },
    {
      "midi": 62,
      "hit": false,
      "t": 43200,
      "d": 450,
      "v": 70
    },
    {
      "midi": 68,
      "hit": false,
      "t": 43200,
      "d": 450,
      "v": 72
    },
    {
      "midi": 58,
      "hit": false,
      "t": 43200,
      "d": 1200,
      "v": 77
    },
    {
      "midi": 65,
      "hit": false,
      "t": 43650,
      "d": 150,
      "v": 69
    },
    {
      "midi": 67,
      "hit": false,
      "t": 43800,
      "d": 450,
      "v": 81
    },
    {
      "midi": 68,
      "hit": false,
      "t": 44250,
      "d": 150,
      "v": 85
    },
    {
      "midi": 67,
      "hit": false,
      "t": 44400,
      "d": 450,
      "v": 71
    },
    {
      "midi": 48,
      "hit": false,
      "t": 44400,
      "d": 1200,
      "v": 74
    },
    {
      "midi": 58,
      "hit": false,
      "t": 44400,
      "d": 1200,
      "v": 74
    },
    {
      "midi": 65,
      "hit": false,
      "t": 44850,
      "d": 150,
      "v": 73
    },
    {
      "midi": 62,
      "hit": false,
      "t": 45000,
      "d": 450,
      "v": 72
    },
    {
      "midi": 60,
      "hit": false,
      "t": 45450,
      "d": 150,
      "v": 69
    },
    {
      "midi": 65,
      "hit": false,
      "t": 45600,
      "d": 1800,
      "v": 87
    },
    {
      "midi": 53,
      "hit": false,
      "t": 45600,
      "d": 450,
      "v": 76
    },
    {
      "midi": 57,
      "hit": false,
      "t": 45600,
      "d": 450,
      "v": 76
    },
    {
      "midi": 60,
      "hit": false,
      "t": 46050,
      "d": 150,
      "v": 87
    },
    {
      "midi": 62,
      "hit": false,
      "t": 46200,
      "d": 450,
      "v": 86
    },
    {
      "midi": 60,
      "hit": false,
      "t": 46650,
      "d": 150,
      "v": 68
    },
    {
      "midi": 53,
      "hit": false,
      "t": 46800,
      "d": 600,
      "v": 74
    },
    {
      "midi": 57,
      "hit": false,
      "t": 46800,
      "d": 600,
      "v": 74
    },
    {
      "midi": 64,
      "hit": false,
      "t": 47400,
      "d": 450,
      "v": 70
    },
    {
      "midi": 65,
      "hit": false,
      "t": 47850,
      "d": 150,
      "v": 80
    },
    {
      "midi": 63,
      "hit": false,
      "t": 48000,
      "d": 450,
      "v": 80
    },
    {
      "midi": 67,
      "hit": false,
      "t": 48000,
      "d": 450,
      "v": 80
    },
    {
      "midi": 48,
      "hit": false,
      "t": 48000,
      "d": 600,
      "v": 69
    },
    {
      "midi": 67,
      "hit": false,
      "t": 48450,
      "d": 150,
      "v": 79
    },
    {
      "midi": 63,
      "hit": false,
      "t": 48600,
      "d": 1200,
      "v": 75
    },
    {
      "midi": 67,
      "hit": false,
      "t": 48600,
      "d": 1200,
      "v": 75
    },
    {
      "midi": 58,
      "hit": false,
      "t": 48600,
      "d": 600,
      "v": 83
    },
    {
      "midi": 57,
      "hit": false,
      "t": 49200,
      "d": 1200,
      "v": 74
    },
    {
      "midi": 63,
      "hit": false,
      "t": 49800,
      "d": 600,
      "v": 72
    },
    {
      "midi": 65,
      "hit": false,
      "t": 49800,
      "d": 600,
      "v": 72
    },
    {
      "midi": 63,
      "hit": false,
      "t": 50400,
      "d": 450,
      "v": 83
    },
    {
      "midi": 67,
      "hit": false,
      "t": 50400,
      "d": 450,
      "v": 83
    },
    {
      "midi": 48,
      "hit": false,
      "t": 50400,
      "d": 600,
      "v": 68
    },
    {
      "midi": 67,
      "hit": false,
      "t": 50850,
      "d": 150,
      "v": 74
    },
    {
      "midi": 63,
      "hit": false,
      "t": 51000,
      "d": 1800,
      "v": 77
    },
    {
      "midi": 67,
      "hit": false,
      "t": 51000,
      "d": 1800,
      "v": 77
    },
    {
      "midi": 58,
      "hit": false,
      "t": 51000,
      "d": 600,
      "v": 83
    },
    {
      "midi": 57,
      "hit": false,
      "t": 51600,
      "d": 600,
      "v": 75
    },
    {
      "midi": 53,
      "hit": false,
      "t": 52200,
      "d": 600,
      "v": 67
    },
    {
      "midi": 46,
      "hit": false,
      "t": 52800,
      "d": 600,
      "v": 72
    },
    {
      "midi": 65,
      "hit": false,
      "t": 53250,
      "d": 150,
      "v": 72
    },
    {
      "midi": 62,
      "hit": false,
      "t": 53400,
      "d": 450,
      "v": 76
    },
    {
      "midi": 67,
      "hit": false,
      "t": 53400,
      "d": 450,
      "v": 76
    },
    {
      "midi": 53,
      "hit": false,
      "t": 53400,
      "d": 1200,
      "v": 80
    },
    {
      "midi": 69,
      "hit": false,
      "t": 53850,
      "d": 150,
      "v": 79
    },
    {
      "midi": 63,
      "hit": false,
      "t": 54000,
      "d": 450,
      "v": 82
    },
    {
      "midi": 67,
      "hit": false,
      "t": 54000,
      "d": 450,
      "v": 82
    },
    {
      "midi": 72,
      "hit": false,
      "t": 54000,
      "d": 450,
      "v": 82
    },
    {
      "midi": 70,
      "hit": false,
      "t": 54450,
      "d": 150,
      "v": 70
    },
    {
      "midi": 63,
      "hit": false,
      "t": 54600,
      "d": 600,
      "v": 76
    },
    {
      "midi": 69,
      "hit": false,
      "t": 54600,
      "d": 600,
      "v": 76
    },
    {
      "midi": 53,
      "hit": false,
      "t": 54600,
      "d": 600,
      "v": 77
    },
    {
      "midi": 62,
      "hit": false,
      "t": 55200,
      "d": 600,
      "v": 80
    },
    {
      "midi": 65,
      "hit": false,
      "t": 55200,
      "d": 600,
      "v": 80
    },
    {
      "midi": 72,
      "hit": false,
      "t": 55200,
      "d": 600,
      "v": 80
    },
    {
      "midi": 46,
      "hit": false,
      "t": 55200,
      "d": 1200,
      "v": 71
    },
    {
      "midi": 62,
      "hit": false,
      "t": 55800,
      "d": 1800,
      "v": 74
    },
    {
      "midi": 65,
      "hit": false,
      "t": 55800,
      "d": 1800,
      "v": 74
    },
    {
      "midi": 70,
      "hit": false,
      "t": 55800,
      "d": 1800,
      "v": 74
    },
    {
      "midi": 53,
      "hit": false,
      "t": 56400,
      "d": 450,
      "v": 81
    },
    {
      "midi": 55,
      "hit": false,
      "t": 56850,
      "d": 150,
      "v": 80
    },
    {
      "midi": 55,
      "hit": false,
      "t": 57000,
      "d": 450,
      "v": 74
    },
    {
      "midi": 53,
      "hit": false,
      "t": 57450,
      "d": 150,
      "v": 72
    },
    {
      "midi": 55,
      "hit": false,
      "t": 57600,
      "d": 1800,
      "v": 78
    },
    {
      "midi": 59,
      "hit": false,
      "t": 57600,
      "d": 1800,
      "v": 78
    },
    {
      "midi": 69,
      "hit": false,
      "t": 58050,
      "d": 150,
      "v": 67
    },
    {
      "midi": 69,
      "hit": false,
      "t": 58200,
      "d": 450,
      "v": 78
    },
    {
      "midi": 67,
      "hit": false,
      "t": 58650,
      "d": 150,
      "v": 73
    },
    {
      "midi": 69,
      "hit": false,
      "t": 58800,
      "d": 900,
      "v": 81
    },
    {
      "midi": 53,
      "hit": false,
      "t": 59400,
      "d": 600,
      "v": 79
    },
    {
      "midi": 55,
      "hit": false,
      "t": 59400,
      "d": 600,
      "v": 79
    },
    {
      "midi": 59,
      "hit": false,
      "t": 59400,
      "d": 600,
      "v": 79
    },
    {
      "midi": 67,
      "hit": false,
      "t": 59700,
      "d": 300,
      "v": 74
    },
    {
      "midi": 65,
      "hit": false,
      "t": 60000,
      "d": 300,
      "v": 85
    },
    {
      "midi": 69,
      "hit": false,
      "t": 60000,
      "d": 300,
      "v": 85
    },
    {
      "midi": 50,
      "hit": false,
      "t": 60000,
      "d": 1800,
      "v": 72
    },
    {
      "midi": 57,
      "hit": false,
      "t": 60000,
      "d": 1800,
      "v": 72
    },
    {
      "midi": 65,
      "hit": false,
      "t": 60300,
      "d": 600,
      "v": 73
    },
    {
      "midi": 69,
      "hit": false,
      "t": 60300,
      "d": 600,
      "v": 73
    },
    {
      "midi": 65,
      "hit": false,
      "t": 60900,
      "d": 1200,
      "v": 77
    },
    {
      "midi": 69,
      "hit": false,
      "t": 60900,
      "d": 1200,
      "v": 77
    },
    {
      "midi": 53,
      "hit": false,
      "t": 61800,
      "d": 600,
      "v": 77
    },
    {
      "midi": 50,
      "hit": false,
      "t": 62400,
      "d": 1200,
      "v": 77
    },
    {
      "midi": 54,
      "hit": false,
      "t": 62400,
      "d": 1200,
      "v": 77
    },
    {
      "midi": 74,
      "hit": false,
      "t": 63000,
      "d": 450,
      "v": 68
    },
    {
      "midi": 72,
      "hit": false,
      "t": 63450,
      "d": 150,
      "v": 67
    },
    {
      "midi": 70,
      "hit": false,
      "t": 63600,
      "d": 900,
      "v": 70
    },
    {
      "midi": 60,
      "hit": false,
      "t": 63600,
      "d": 600,
      "v": 93
    },
    {
      "midi": 62,
      "hit": false,
      "t": 63600,
      "d": 600,
      "v": 93
    },
    {
      "midi": 54,
      "hit": false,
      "t": 64200,
      "d": 600,
      "v": 69
    },
    {
      "midi": 69,
      "hit": false,
      "t": 64500,
      "d": 300,
      "v": 74
    },
    {
      "midi": 67,
      "hit": false,
      "t": 64800,
      "d": 600,
      "v": 69
    },
    {
      "midi": 55,
      "hit": false,
      "t": 64800,
      "d": 1800,
      "v": 93
    },
    {
      "midi": 58,
      "hit": false,
      "t": 64800,
      "d": 1800,
      "v": 93
    },
    {
      "midi": 62,
      "hit": false,
      "t": 64800,
      "d": 1800,
      "v": 93
    },
    {
      "midi": 69,
      "hit": false,
      "t": 65400,
      "d": 600,
      "v": 78
    },
    {
      "midi": 70,
      "hit": false,
      "t": 66000,
      "d": 450,
      "v": 79
    },
    {
      "midi": 72,
      "hit": false,
      "t": 66450,
      "d": 150,
      "v": 84
    },
    {
      "midi": 69,
      "hit": false,
      "t": 66600,
      "d": 450,
      "v": 73
    },
    {
      "midi": 65,
      "hit": false,
      "t": 67050,
      "d": 150,
      "v": 64
    },
    {
      "midi": 60,
      "hit": false,
      "t": 67200,
      "d": 1200,
      "v": 78
    },
    {
      "midi": 64,
      "hit": false,
      "t": 67200,
      "d": 1200,
      "v": 78
    },
    {
      "midi": 67,
      "hit": false,
      "t": 67200,
      "d": 1200,
      "v": 78
    },
    {
      "midi": 48,
      "hit": false,
      "t": 67200,
      "d": 600,
      "v": 68
    },
    {
      "midi": 55,
      "hit": false,
      "t": 67800,
      "d": 600,
      "v": 78
    },
    {
      "midi": 62,
      "hit": false,
      "t": 68400,
      "d": 600,
      "v": 76
    },
    {
      "midi": 65,
      "hit": false,
      "t": 68400,
      "d": 600,
      "v": 76
    },
    {
      "midi": 67,
      "hit": false,
      "t": 68400,
      "d": 600,
      "v": 76
    },
    {
      "midi": 58,
      "hit": false,
      "t": 68400,
      "d": 1200,
      "v": 81
    },
    {
      "midi": 69,
      "hit": false,
      "t": 69000,
      "d": 450,
      "v": 81
    },
    {
      "midi": 65,
      "hit": false,
      "t": 69450,
      "d": 150,
      "v": 69
    },
    {
      "midi": 60,
      "hit": false,
      "t": 69600,
      "d": 300,
      "v": 68
    },
    {
      "midi": 64,
      "hit": false,
      "t": 69600,
      "d": 300,
      "v": 68
    },
    {
      "midi": 67,
      "hit": false,
      "t": 69600,
      "d": 300,
      "v": 79
    },
    {
      "midi": 48,
      "hit": false,
      "t": 69600,
      "d": 600,
      "v": 64
    },
    {
      "midi": 69,
      "hit": false,
      "t": 69900,
      "d": 300,
      "v": 80
    },
    {
      "midi": 55,
      "hit": false,
      "t": 70200,
      "d": 600,
      "v": 79
    },
    {
      "midi": 62,
      "hit": false,
      "t": 70800,
      "d": 600,
      "v": 82
    },
    {
      "midi": 65,
      "hit": false,
      "t": 70800,
      "d": 600,
      "v": 82
    },
    {
      "midi": 58,
      "hit": false,
      "t": 70800,
      "d": 1200,
      "v": 83
    },
    {
      "midi": 72,
      "hit": false,
      "t": 71400,
      "d": 450,
      "v": 79
    },
    {
      "midi": 69,
      "hit": false,
      "t": 71850,
      "d": 150,
      "v": 75
    },
    {
      "midi": 67,
      "hit": false,
      "t": 72000,
      "d": 300,
      "v": 79
    },
    {
      "midi": 70,
      "hit": false,
      "t": 72000,
      "d": 300,
      "v": 79
    },
    {
      "midi": 53,
      "hit": false,
      "t": 72000,
      "d": 1200,
      "v": 82
    },
    {
      "midi": 60,
      "hit": false,
      "t": 72000,
      "d": 1200,
      "v": 82
    },
    {
      "midi": 69,
      "hit": false,
      "t": 72300,
      "d": 300,
      "v": 85
    },
    {
      "midi": 72,
      "hit": false,
      "t": 72300,
      "d": 300,
      "v": 85
    },
    {
      "midi": 54,
      "hit": false,
      "t": 73200,
      "d": 1200,
      "v": 84
    },
    {
      "midi": 63,
      "hit": false,
      "t": 73200,
      "d": 1200,
      "v": 84
    },
    {
      "midi": 72,
      "hit": false,
      "t": 73800,
      "d": 450,
      "v": 78
    },
    {
      "midi": 69,
      "hit": false,
      "t": 74250,
      "d": 150,
      "v": 71
    },
    {
      "midi": 67,
      "hit": false,
      "t": 74400,
      "d": 1650,
      "v": 80
    },
    {
      "midi": 70,
      "hit": false,
      "t": 74400,
      "d": 1650,
      "v": 80
    },
    {
      "midi": 55,
      "hit": false,
      "t": 74400,
      "d": 600,
      "v": 67
    },
    {
      "midi": 62,
      "hit": false,
      "t": 75000,
      "d": 450,
      "v": 94
    },
    {
      "midi": 65,
      "hit": false,
      "t": 75000,
      "d": 450,
      "v": 94
    },
    {
      "midi": 58,
      "hit": false,
      "t": 75450,
      "d": 150,
      "v": 70
    },
    {
      "midi": 55,
      "hit": false,
      "t": 75600,
      "d": 600,
      "v": 69
    },
    {
      "midi": 72,
      "hit": false,
      "t": 76050,
      "d": 150,
      "v": 80
    },
    {
      "midi": 72,
      "hit": false,
      "t": 76200,
      "d": 450,
      "v": 77
    },
    {
      "midi": 74,
      "hit": false,
      "t": 76650,
      "d": 150,
      "v": 81
    },
    {
      "midi": 72,
      "hit": false,
      "t": 76800,
      "d": 1200,
      "v": 76
    },
    {
      "midi": 76,
      "hit": false,
      "t": 76800,
      "d": 1200,
      "v": 76
    },
    {
      "midi": 55,
      "hit": false,
      "t": 76800,
      "d": 600,
      "v": 70
    },
    {
      "midi": 57,
      "hit": false,
      "t": 77400,
      "d": 600,
      "v": 78
    },
    {
      "midi": 70,
      "hit": false,
      "t": 78000,
      "d": 600,
      "v": 75
    },
    {
      "midi": 60,
      "hit": false,
      "t": 78000,
      "d": 1200,
      "v": 72
    },
    {
      "midi": 74,
      "hit": false,
      "t": 78600,
      "d": 450,
      "v": 68
    },
    {
      "midi": 76,
      "hit": false,
      "t": 79050,
      "d": 150,
      "v": 80
    },
    {
      "midi": 69,
      "hit": false,
      "t": 79200,
      "d": 300,
      "v": 70
    },
    {
      "midi": 74,
      "hit": false,
      "t": 79200,
      "d": 300,
      "v": 70
    },
    {
      "midi": 53,
      "hit": false,
      "t": 79200,
      "d": 600,
      "v": 70
    },
    {
      "midi": 72,
      "hit": false,
      "t": 79500,
      "d": 300,
      "v": 66
    },
    {
      "midi": 60,
      "hit": false,
      "t": 79800,
      "d": 600,
      "v": 85
    },
    {
      "midi": 53,
      "hit": false,
      "t": 80400,
      "d": 600,
      "v": 72
    },
    {
      "midi": 69,
      "hit": false,
      "t": 81000,
      "d": 450,
      "v": 68
    },
    {
      "midi": 60,
      "hit": false,
      "t": 81000,
      "d": 600,
      "v": 90
    },
    {
      "midi": 65,
      "hit": false,
      "t": 81450,
      "d": 150,
      "v": 66
    },
    {
      "midi": 62,
      "hit": false,
      "t": 81600,
      "d": 450,
      "v": 69
    },
    {
      "midi": 68,
      "hit": false,
      "t": 81600,
      "d": 450,
      "v": 79
    },
    {
      "midi": 58,
      "hit": false,
      "t": 81600,
      "d": 1200,
      "v": 72
    },
    {
      "midi": 65,
      "hit": false,
      "t": 82050,
      "d": 150,
      "v": 66
    },
    {
      "midi": 67,
      "hit": false,
      "t": 82200,
      "d": 450,
      "v": 82
    },
    {
      "midi": 68,
      "hit": false,
      "t": 82650,
      "d": 150,
      "v": 84
    },
    {
      "midi": 67,
      "hit": false,
      "t": 82800,
      "d": 450,
      "v": 68
    },
    {
      "midi": 48,
      "hit": false,
      "t": 82800,
      "d": 1200,
      "v": 81
    },
    {
      "midi": 58,
      "hit": false,
      "t": 82800,
      "d": 1200,
      "v": 81
    },
    {
      "midi": 65,
      "hit": false,
      "t": 83250,
      "d": 150,
      "v": 72
    },
    {
      "midi": 62,
      "hit": false,
      "t": 83400,
      "d": 600,
      "v": 69
    },
    {
      "midi": 65,
      "hit": false,
      "t": 84000,
      "d": 1800,
      "v": 80
    },
    {
      "midi": 53,
      "hit": false,
      "t": 84000,
      "d": 450,
      "v": 75
    },
    {
      "midi": 57,
      "hit": false,
      "t": 84000,
      "d": 450,
      "v": 75
    },
    {
      "midi": 60,
      "hit": false,
      "t": 84450,
      "d": 150,
      "v": 84
    },
    {
      "midi": 62,
      "hit": false,
      "t": 84600,
      "d": 450,
      "v": 82
    },
    {
      "midi": 60,
      "hit": false,
      "t": 85050,
      "d": 150,
      "v": 72
    },
    {
      "midi": 53,
      "hit": false,
      "t": 85200,
      "d": 600,
      "v": 72
    },
    {
      "midi": 57,
      "hit": false,
      "t": 85200,
      "d": 600,
      "v": 72
    },
    {
      "midi": 69,
      "hit": false,
      "t": 85800,
      "d": 450,
      "v": 85
    },
    {
      "midi": 65,
      "hit": false,
      "t": 86250,
      "d": 150,
      "v": 67
    },
    {
      "midi": 62,
      "hit": false,
      "t": 86400,
      "d": 450,
      "v": 70
    },
    {
      "midi": 68,
      "hit": false,
      "t": 86400,
      "d": 450,
      "v": 80
    },
    {
      "midi": 58,
      "hit": false,
      "t": 86400,
      "d": 1200,
      "v": 64
    },
    {
      "midi": 65,
      "hit": false,
      "t": 86850,
      "d": 150,
      "v": 68
    },
    {
      "midi": 67,
      "hit": false,
      "t": 87000,
      "d": 450,
      "v": 79
    },
    {
      "midi": 68,
      "hit": false,
      "t": 87450,
      "d": 150,
      "v": 77
    },
    {
      "midi": 67,
      "hit": false,
      "t": 87600,
      "d": 450,
      "v": 74
    },
    {
      "midi": 48,
      "hit": false,
      "t": 87600,
      "d": 1200,
      "v": 76
    },
    {
      "midi": 58,
      "hit": false,
      "t": 87600,
      "d": 1200,
      "v": 76
    },
    {
      "midi": 65,
      "hit": false,
      "t": 88050,
      "d": 150,
      "v": 70
    },
    {
      "midi": 62,
      "hit": false,
      "t": 88200,
      "d": 600,
      "v": 71
    },
    {
      "midi": 65,
      "hit": false,
      "t": 88800,
      "d": 2400,
      "v": 81
    },
    {
      "midi": 53,
      "hit": false,
      "t": 88800,
      "d": 450,
      "v": 69
    },
    {
      "midi": 57,
      "hit": false,
      "t": 88800,
      "d": 450,
      "v": 69
    },
    {
      "midi": 60,
      "hit": false,
      "t": 89250,
      "d": 150,
      "v": 82
    },
    {
      "midi": 62,
      "hit": false,
      "t": 89400,
      "d": 450,
      "v": 79
    },
    {
      "midi": 60,
      "hit": false,
      "t": 89850,
      "d": 150,
      "v": 70
    },
    {
      "midi": 62,
      "hit": false,
      "t": 90000,
      "d": 450,
      "v": 80
    },
    {
      "midi": 60,
      "hit": false,
      "t": 90450,
      "d": 150,
      "v": 73
    },
    {
      "midi": 57,
      "hit": false,
      "t": 90600,
      "d": 600,
      "v": 73
    },
    {
      "midi": 62,
      "hit": false,
      "t": 91200,
      "d": 450,
      "v": 66
    },
    {
      "midi": 68,
      "hit": false,
      "t": 91200,
      "d": 450,
      "v": 83
    },
    {
      "midi": 58,
      "hit": false,
      "t": 91200,
      "d": 1200,
      "v": 75
    },
    {
      "midi": 65,
      "hit": false,
      "t": 91650,
      "d": 150,
      "v": 70
    },
    {
      "midi": 67,
      "hit": false,
      "t": 91800,
      "d": 450,
      "v": 80
    },
    {
      "midi": 68,
      "hit": false,
      "t": 92250,
      "d": 150,
      "v": 84
    },
    {
      "midi": 64,
      "hit": false,
      "t": 92400,
      "d": 450,
      "v": 79
    },
    {
      "midi": 69,
      "hit": false,
      "t": 92400,
      "d": 450,
      "v": 79
    },
    {
      "midi": 60,
      "hit": false,
      "t": 92400,
      "d": 1200,
      "v": 80
    },
    {
      "midi": 72,
      "hit": false,
      "t": 92850,
      "d": 150,
      "v": 90
    },
    {
      "midi": 64,
      "hit": false,
      "t": 93000,
      "d": 600,
      "v": 83
    },
    {
      "midi": 70,
      "hit": false,
      "t": 93000,
      "d": 600,
      "v": 83
    },
    {
      "midi": 74,
      "hit": false,
      "t": 93000,
      "d": 600,
      "v": 83
    },
    {
      "midi": 65,
      "hit": false,
      "t": 93600,
      "d": 1800,
      "v": 75
    },
    {
      "midi": 69,
      "hit": false,
      "t": 93600,
      "d": 1800,
      "v": 75
    },
    {
      "midi": 72,
      "hit": false,
      "t": 93600,
      "d": 1800,
      "v": 75
    },
    {
      "midi": 60,
      "hit": false,
      "t": 94050,
      "d": 150,
      "v": 69
    },
    {
      "midi": 62,
      "hit": false,
      "t": 94200,
      "d": 450,
      "v": 79
    },
    {
      "midi": 60,
      "hit": false,
      "t": 94650,
      "d": 150,
      "v": 77
    },
    {
      "midi": 53,
      "hit": false,
      "t": 94800,
      "d": 600,
      "v": 66
    }
  ]
}