{
  "jsonPath": "Unknown/Unknown/Augie Meyers/walkin-the-back-streets.json",
  "path": "Unknown\\Unknown\\Augie Meyers\\Walkin The Back Streets.mid",
  "name": "Walkin The Back Streets",
  "difficulty": "Advanced",
  "bpm": 125,
  "notes": [
    {
      "midi": 43,
      "hit": false,
      "t": 3840,
      "d": 475,
      "v": 125
    },
    {
      "midi": 55,
      "hit": false,
      "t": 4320,
      "d": 475,
      "v": 125
    },
    {
      "midi": 59,
      "hit": false,
      "t": 4320,
      "d": 475,
      "v": 125
    },
    {
      "midi": 62,
      "hit": false,
      "t": 4320,
      "d": 475,
      "v": 125
    },
    {
      "midi": 50,
      "hit": false,
      "t": 4800,
      "d": 475,
      "v": 125
    },
    {
      "midi": 55,
      "hit": false,
      "t": 5280,
      "d": 475,
      "v": 125
    },
    {
      "midi": 59,
      "hit": false,
      "t": 5280,
      "d": 475,
      "v": 125
    },
    {
      "midi": 62,
      "hit": false,
      "t": 5280,
      "d": 475,
      "v": 125
    },
    {
      "midi": 43,
      "hit": false,
      "t": 5760,
      "d": 475,
      "v": 125
    },
    {
      "midi": 55,
      "hit": false,
      "t": 6240,
      "d": 475,
      "v": 125
    },
    {
      "midi": 59,
      "hit": false,
      "t": 6240,
      "d": 475,
      "v": 125
    },
    {
      "midi": 62,
      "hit": false,
      "t": 6240,
      "d": 475,
      "v": 125
    },
    {
      "midi": 50,
      "hit": false,
      "t": 6720,
      "d": 475,
      "v": 125
    },
    {
      "midi": 55,
      "hit": false,
      "t": 7200,
      "d": 475,
      "v": 125
    },
    {
      "midi": 59,
      "hit": false,
      "t": 7200,
      "d": 475,
      "v": 125
    },
    {
      "midi": 62,
      "hit": false,
      "t": 7200,
      "d": 475,
      "v": 125
    },
    {
      "midi": 48,
      "hit": false,
      "t": 7680,
      "d": 475,
      "v": 125
    },
    {
      "midi": 55,
      "hit": false,
      "t": 8160,
      "d": 475,
      "v": 125
    },
    {
      "midi": 60,
      "hit": false,
      "t": 8160,
      "d": 475,
      "v": 125
    },
    {
      "midi": 64,
      "hit": false,
      "t": 8160,
      "d": 475,
      "v": 125
    },
    {
      "midi": 43,
      "hit": false,
      "t": 8640,
      "d": 475,
      "v": 125
    },
    {
      "midi": 55,
      "hit": false,
      "t": 9120,
      "d": 475,
      "v": 125
    },
    {
      "midi": 60,
      "hit": false,
      "t": 9120,
      "d": 475,
      "v": 125
    },
    {
      "midi": 64,
      "hit": false,
      "t": 9120,
      "d": 475,
      "v": 125
    },
    {
      "midi": 48,
      "hit": false,
      "t": 9600,
      "d": 475,
      "v": 125
    },
    {
      "midi": 43,
      "hit": false,
      "t": 10080,
      "d": 475,
      "v": 98
    },
    {
      "midi": 59,
      "hit": false,
      "t": 10080,
      "d": 475,
      "v": 105
    },
    {
      "midi": 45,
      "hit": false,
      "t": 10560,
      "d": 475,
      "v": 99
    },
    {
      "midi": 60,
      "hit": false,
      "t": 10560,
      "d": 475,
      "v": 107
    },
    {
      "midi": 47,
      "hit": false,
      "t": 11040,
      "d": 475,
      "v": 107
    },
    {
      "midi": 62,
      "hit": false,
      "t": 11040,
      "d": 475,
      "v": 115
    },
    {
      "midi": 48,
      "hit": false,
      "t": 11520,
      "d": 475,
      "v": 125
    },
    {
      "midi": 64,
      "hit": false,
      "t": 11520,
      "d": 475,
      "v": 115
    },
    {
      "midi": 55,
      "hit": false,
      "t": 12000,
      "d": 475,
      "v": 125
    },
    {
      "midi": 60,
      "hit": false,
      "t": 12000,
      "d": 475,
      "v": 125
    },
    {
      "midi": 64,
      "hit": false,
      "t": 12000,
      "d": 475,
      "v": 125
    },
    {
      "midi": 43,
      "hit": false,
      "t": 12480,
      "d": 475,
      "v": 125
    },
    {
      "midi": 55,
      "hit": false,
      "t": 12960,
      "d": 475,
      "v": 125
    },
    {
      "midi": 60,
      "hit": false,
      "t": 12960,
      "d": 475,
      "v": 125
    },
    {
      "midi": 64,
      "hit": false,
      "t": 12960,
      "d": 475,
      "v": 125
    },
    {
      "midi": 48,
      "hit": false,
      "t": 13440,
      "d": 475,
      "v": 125
    },
    {
      "midi": 55,
      "hit": false,
      "t": 13920,
      "d": 475,
      "v": 125
    },
    {
      "midi": 60,
      "hit": false,
      "t": 13920,
      "d": 475,
      "v": 125
    },
    {
      "midi": 64,
      "hit": false,
      "t": 13920,
      "d": 475,
      "v": 125
    },
    {
      "midi": 43,
      "hit": false,
      "t": 14400,
      "d": 475,
      "v": 125
    },
    {
      "midi": 55,
      "hit": false,
      "t": 14880,
      "d": 475,
      "v": 125
    },
    {
      "midi": 60,
      "hit": false,
      "t": 14880,
      "d": 475,
      "v": 125
    },
    {
      "midi": 64,
      "hit": false,
      "t": 14880,
      "d": 475,
      "v": 125
    },
    {
      "midi": 41,
      "hit": false,
      "t": 15360,
      "d": 475,
      "v": 125
    },
    {
      "midi": 57,
      "hit": false,
      "t": 15840,
      "d": 475,
      "v": 125
    },
    {
      "midi": 60,
      "hit": false,
      "t": 15840,
      "d": 475,
      "v": 125
    },
    {
      "midi": 65,
      "hit": false,
      "t": 15840,
      "d": 475,
      "v": 125
    },
    {
      "midi": 48,
      "hit": false,
      "t": 16320,
      "d": 475,
      "v": 125
    },
    {
      "midi": 57,
      "hit": false,
      "t": 16800,
      "d": 475,
      "v": 125
    },
    {
      "midi": 60,
      "hit": false,
      "t": 16800,
      "d": 475,
      "v": 125
    },
    {
      "midi": 65,
      "hit": false,
      "t": 16800,
      "d": 475,
      "v": 125
    },
    {
      "midi": 41,
      "hit": false,
      "t": 17280,
      "d": 475,
      "v": 125
    },
    {
      "midi": 57,
      "hit": false,
      "t": 17760,
      "d": 475,
      "v": 125
    },
    {
      "midi": 60,
      "hit": false,
      "t": 17760,
      "d": 475,
      "v": 125
    },
    {
      "midi": 65,
      "hit": false,
      "t": 17760,
      "d": 475,
      "v": 125
    },
    {
      "midi": 48,
      "hit": false,
      "t": 18240,
      "d": 475,
      "v": 125
    },
    {
      "midi": 57,
      "hit": false,
      "t": 18720,
      "d": 475,
      "v": 125
    },
    {
      "midi": 60,
      "hit": false,
      "t": 18720,
      "d": 475,
      "v": 125
    },
    {
      "midi": 65,
      "hit": false,
      "t": 18720,
      "d": 475,
      "v": 125
    },
    {
      "midi": 43,
      "hit": false,
      "t": 19200,
      "d": 475,
      "v": 125
    },
    {
      "midi": 55,
      "hit": false,
      "t": 19680,
      "d": 475,
      "v": 125
    },
    {
      "midi": 59,
      "hit": false,
      "t": 19680,
      "d": 475,
      "v": 125
    },
    {
      "midi": 62,
      "hit": false,
      "t": 19680,
      "d": 475,
      "v": 125
    },
    {
      "midi": 50,
      "hit": false,
      "t": 20160,
      "d": 475,
      "v": 125
    },
    {
      "midi": 55,
      "hit": false,
      "t": 20640,
      "d": 475,
      "v": 125
    },
    {
      "midi": 59,
      "hit": false,
      "t": 20640,
      "d": 475,
      "v": 125
    },
    {
      "midi": 62,
      "hit": false,
      "t": 20640,
      "d": 475,
      "v": 125
    },
    {
      "midi": 43,
      "hit": false,
      "t": 21120,
      "d": 475,
      "v": 125
    },
    {
      "midi": 55,
      "hit": false,
      "t": 21600,
      "d": 475,
      "v": 125
    },
    {
      "midi": 59,
      "hit": false,
      "t": 21600,
      "d": 475,
      "v": 125
    },
    {
      "midi": 62,
      "hit": false,
      "t": 21600,
      "d": 475,
      "v": 125
    },
    {
      "midi": 50,
      "hit": false,
      "t": 22080,
      "d": 475,
      "v": 125
    },
    {
      "midi": 55,
      "hit": false,
      "t": 22560,
      "d": 475,
      "v": 125
    },
    {
      "midi": 59,
      "hit": false,
      "t": 22560,
      "d": 475,
      "v": 125
    },
    {
      "midi": 62,
      "hit": false,
      "t": 22560,
      "d": 475,
      "v": 125
    },
    {
      "midi": 48,
      "hit": false,
      "t": 23040,
      "d": 475,
      "v": 125
    },
    {
      "midi": 55,
      "hit": false,
      "t": 23520,
      "d": 475,
      "v": 125
    },
    {
      "midi": 60,
      "hit": false,
      "t": 23520,
      "d": 475,
      "v": 125
    },
    {
      "midi": 64,
      "hit": false,
      "t": 23520,
      "d": 475,
      "v": 125
    },
    {
      "midi": 43,
      "hit": false,
      "t": 24000,
      "d": 475,
      "v": 125
    },
    {
      "midi": 55,
      "hit": false,
      "t": 24480,
      "d": 475,
      "v": 125
    },
    {
      "midi": 60,
      "hit": false,
      "t": 24480,
      "d": 475,
      "v": 125
    },
    {
      "midi": 64,
      "hit": false,
      "t": 24480,
      "d": 475,
      "v": 125
    },
    {
      "midi": 48,
      "hit": false,
      "t": 24960,
      "d": 475,
      "v": 125
    },
    {
      "midi": 43,
      "hit": false,
      "t": 25440,
      "d": 475,
      "v": 101
    },
    {
      "midi": 59,
      "hit": false,
      "t": 25440,
      "d": 475,
      "v": 105
    },
    {
      "midi": 45,
      "hit": false,
      "t": 25920,
      "d": 475,
      "v": 101
    },
    {
      "midi": 60,
      "hit": false,
      "t": 25920,
      "d": 475,
      "v": 107
    },
    {
      "midi": 47,
      "hit": false,
      "t": 26400,
      "d": 475,
      "v": 112
    },
    {
      "midi": 62,
      "hit": false,
      "t": 26400,
      "d": 475,
      "v": 112
    },
    {
      "midi": 48,
      "hit": false,
      "t": 26880,
      "d": 475,
      "v": 125
    },
    {
      "midi": 64,
      "hit": false,
      "t": 26880,
      "d": 475,
      "v": 115
    },
    {
      "midi": 55,
      "hit": false,
      "t": 27360,
      "d": 475,
      "v": 125
    },
    {
      "midi": 60,
      "hit": false,
      "t": 27360,
      "d": 475,
      "v": 125
    },
    {
      "midi": 64,
      "hit": false,
      "t": 27360,
      "d": 475,
      "v": 125
    },
    {
      "midi": 43,
      "hit": false,
      "t": 27840,
      "d": 475,
      "v": 125
    },
    {
      "midi": 55,
      "hit": false,
      "t": 28320,
      "d": 475,
      "v": 125
    },
    {
      "midi": 60,
      "hit": false,
      "t": 28320,
      "d": 475,
      "v": 125
    },
    {
      "midi": 64,
      "hit": false,
      "t": 28320,
      "d": 475,
      "v": 125
    },
    {
      "midi": 48,
      "hit": false,
      "t": 28800,
      "d": 475,
      "v": 125
    },
    {
      "midi": 55,
      "hit": false,
      "t": 29280,
      "d": 475,
      "v": 125
    },
    {
      "midi": 60,
      "hit": false,
      "t": 29280,
      "d": 475,
      "v": 125
    },
    {
      "midi": 64,
      "hit": false,
      "t": 29280,
      "d": 475,
      "v": 125
    },
    {
      "midi": 43,
      "hit": false,
      "t": 29760,
      "d": 475,
      "v": 125
    },
    {
      "midi": 55,
      "hit": false,
      "t": 30240,
      "d": 475,
      "v": 125
    },
    {
      "midi": 60,
      "hit": false,
      "t": 30240,
      "d": 475,
      "v": 125
    },
    {
      "midi": 64,
      "hit": false,
      "t": 30240,
      "d": 475,
      "v": 125
    },
    {
      "midi": 41,
      "hit": false,
      "t": 30720,
      "d": 475,
      "v": 125
    },
    {
      "midi": 57,
      "hit": false,
      "t": 31200,
      "d": 475,
      "v": 125
    },
    {
      "midi": 60,
      "hit": false,
      "t": 31200,
      "d": 475,
      "v": 125
    },
    {
      "midi": 65,
      "hit": false,
      "t": 31200,
      "d": 475,
      "v": 125
    },
    {
      "midi": 48,
      "hit": false,
      "t": 31680,
      "d": 475,
      "v": 125
    },
    {
      "midi": 57,
      "hit": false,
      "t": 32160,
      "d": 475,
      "v": 125
    },
    {
      "midi": 60,
      "hit": false,
      "t": 32160,
      "d": 475,
      "v": 125
    },
    {
      "midi": 65,
      "hit": false,
      "t": 32160,
      "d": 475,
      "v": 125
    },
    {
      "midi": 41,
      "hit": false,
      "t": 32640,
      "d": 475,
      "v": 125
    },
    {
      "midi": 57,
      "hit": false,
      "t": 33120,
      "d": 475,
      "v": 125
    },
    {
      "midi": 60,
      "hit": false,
      "t": 33120,
      "d": 475,
      "v": 125
    },
    {
      "midi": 65,
      "hit": false,
      "t": 33120,
      "d": 475,
      "v": 125
    },
    {
      "midi": 48,
      "hit": false,
      "t": 33600,
      "d": 475,
      "v": 125
    },
    {
      "midi": 57,
      "hit": false,
      "t": 34080,
      "d": 475,
      "v": 125
    },
    {
      "midi": 60,
      "hit": false,
      "t": 34080,
      "d": 475,
      "v": 125
    },
    {
      "midi": 65,
      "hit": false,
      "t": 34080,
      "d": 475,
      "v": 125
    },
    {
      "midi": 43,
      "hit": false,
      "t": 34560,
      "d": 475,
      "v": 125
    },
    {
      "midi": 55,
      "hit": false,
      "t": 35040,
      "d": 475,
      "v": 125
    },
    {
      "midi": 59,
      "hit": false,
      "t": 35040,
      "d": 475,
      "v": 125
    },
    {
      "midi": 62,
      "hit": false,
      "t": 35040,
      "d": 475,
      "v": 125
    },
    {
      "midi": 50,
      "hit": false,
      "t": 35520,
      "d": 475,
      "v": 125
    },
    {
      "midi": 55,
      "hit": false,
      "t": 36000,
      "d": 475,
      "v": 125
    },
    {
      "midi": 59,
      "hit": false,
      "t": 36000,
      "d": 475,
      "v": 125
    },
    {
      "midi": 62,
      "hit": false,
      "t": 36000,
      "d": 475,
      "v": 125
    },
    {
      "midi": 43,
      "hit": false,
      "t": 36480,
      "d": 475,
      "v": 125
    },
    {
      "midi": 55,
      "hit": false,
      "t": 36960,
      "d": 475,
      "v": 125
    },
    {
      "midi": 59,
      "hit": false,
      "t": 36960,
      "d": 475,
      "v": 125
    },
    {
      "midi": 62,
      "hit": false,
      "t": 36960,
      "d": 475,
      "v": 125
    },
    {
      "midi": 50,
      "hit": false,
      "t": 37440,
      "d": 475,
      "v": 125
    },
    {
      "midi": 55,
      "hit": false,
      "t": 37920,
      "d": 475,
      "v": 125
    },
    {
      "midi": 59,
      "hit": false,
      "t": 37920,
      "d": 475,
      "v": 125
    },
    {
      "midi": 62,
      "hit": false,
      "t": 37920,
      "d": 475,
      "v": 125
    },
    {
      "midi": 48,
      "hit": false,
      "t": 38400,
      "d": 475,
      "v": 125
    },
    {
      "midi": 55,
      "hit": false,
      "t": 38880,
      "d": 475,
      "v": 125
    },
    {
      "midi": 60,
      "hit": false,
      "t": 38880,
      "d": 475,
      "v": 125
    },
    {
      "midi": 64,
      "hit": false,
      "t": 38880,
      "d": 475,
      "v": 125
    },
    {
      "midi": 43,
      "hit": false,
      "t": 39360,
      "d": 475,
      "v": 125
    },
    {
      "midi": 55,
      "hit": false,
      "t": 39840,
      "d": 475,
      "v": 125
    },
    {
      "midi": 60,
      "hit": false,
      "t": 39840,
      "d": 475,
      "v": 125
    },
    {
      "midi": 64,
      "hit": false,
      "t": 39840,
      "d": 475,
      "v": 125
    },
    {
      "midi": 48,
      "hit": false,
      "t": 40320,
      "d": 475,
      "v": 125
    },
    {
      "midi": 36,
      "hit": false,
      "t": 40800,
      "d": 475,
      "v": 107
    },
    {
      "midi": 52,
      "hit": false,
      "t": 40800,
      "d": 475,
      "v": 112
    },
    {
      "midi": 38,
      "hit": false,
      "t": 41280,
      "d": 475,
      "v": 105
    },
    {
      "midi": 53,
      "hit": false,
      "t": 41280,
      "d": 475,
      "v": 117
    },
    {
      "midi": 40,
      "hit": false,
      "t": 41760,
      "d": 475,
      "v": 110
    },
    {
      "midi": 55,
      "hit": false,
      "t": 41760,
      "d": 475,
      "v": 119
    },
    {
      "midi": 41,
      "hit": false,
      "t": 42240,
      "d": 475,
      "v": 126
    },
    {
      "midi": 57,
      "hit": false,
      "t": 42240,
      "d": 475,
      "v": 117
    },
    {
      "midi": 84,
      "hit": false,
      "t": 42720,
      "d": 240,
      "v": 110
    },
    {
      "midi": 93,
      "hit": false,
      "t": 42720,
      "d": 240,
      "v": 110
    },
    {
      "midi": 57,
      "hit": false,
      "t": 42720,
      "d": 475,
      "v": 126
    },
    {
      "midi": 60,
      "hit": false,
      "t": 42720,
      "d": 475,
      "v": 126
    },
    {
      "midi": 65,
      "hit": false,
      "t": 42720,
      "d": 475,
      "v": 126
    },
    {
      "midi": 84,
      "hit": false,
      "t": 43200,
      "d": 235,
      "v": 105
    },
    {
      "midi": 93,
      "hit": false,
      "t": 43200,
      "d": 235,
      "v": 105
    },
    {
      "midi": 48,
      "hit": false,
      "t": 43200,
      "d": 475,
      "v": 126
    },
    {
      "midi": 82,
      "hit": false,
      "t": 43680,
      "d": 240,
      "v": 99
    },
    {
      "midi": 91,
      "hit": false,
      "t": 43680,
      "d": 240,
      "v": 84
    },
    {
      "midi": 57,
      "hit": false,
      "t": 43680,
      "d": 475,
      "v": 126
    },
    {
      "midi": 60,
      "hit": false,
      "t": 43680,
      "d": 475,
      "v": 126
    },
    {
      "midi": 65,
      "hit": false,
      "t": 43680,
      "d": 475,
      "v": 126
    },
    {
      "midi": 80,
      "hit": false,
      "t": 44000,
      "d": 160,
      "v": 105
    },
    {
      "midi": 81,
      "hit": false,
      "t": 44160,
      "d": 80,
      "v": 89
    },
    {
      "midi": 41,
      "hit": false,
      "t": 44160,
      "d": 475,
      "v": 126
    },
    {
      "midi": 89,
      "hit": false,
      "t": 44240,
      "d": 80,
      "v": 95
    },
    {
      "midi": 81,
      "hit": false,
      "t": 44320,
      "d": 80,
      "v": 68
    },
    {
      "midi": 89,
      "hit": false,
      "t": 44400,
      "d": 80,
      "v": 99
    },
    {
      "midi": 81,
      "hit": false,
      "t": 44480,
      "d": 80,
      "v": 76
    },
    {
      "midi": 89,
      "hit": false,
      "t": 44560,
      "d": 80,
      "v": 99
    },
    {
      "midi": 81,
      "hit": false,
      "t": 44640,
      "d": 75,
      "v": 81
    },
    {
      "midi": 57,
      "hit": false,
      "t": 44640,
      "d": 475,
      "v": 126
    },
    {
      "midi": 60,
      "hit": false,
      "t": 44640,
      "d": 475,
      "v": 126
    },
    {
      "midi": 65,
      "hit": false,
      "t": 44640,
      "d": 475,
      "v": 126
    },
    {
      "midi": 89,
      "hit": false,
      "t": 44720,
      "d": 75,
      "v": 84
    },
    {
      "midi": 81,
      "hit": false,
      "t": 44800,
      "d": 75,
      "v": 77
    },
    {
      "midi": 89,
      "hit": false,
      "t": 44880,
      "d": 75,
      "v": 68
    },
    {
      "midi": 81,
      "hit": false,
      "t": 44960,
      "d": 75,
      "v": 76
    },
    {
      "midi": 89,
      "hit": false,
      "t": 45040,
      "d": 75,
      "v": 81
    },
    {
      "midi": 81,
      "hit": false,
      "t": 45120,
      "d": 75,
      "v": 72
    },
    {
      "midi": 41,
      "hit": false,
      "t": 45120,
      "d": 475,
      "v": 126
    },
    {
      "midi": 89,
      "hit": false,
      "t": 45200,
      "d": 75,
      "v": 80
    },
    {
      "midi": 81,
      "hit": false,
      "t": 45280,
      "d": 75,
      "v": 78
    },
    {
      "midi": 89,
      "hit": false,
      "t": 45360,
      "d": 75,
      "v": 72
    },
    {
      "midi": 81,
      "hit": false,
      "t": 45440,
      "d": 75,
      "v": 76
    },
    {
      "midi": 89,
      "hit": false,
      "t": 45520,
      "d": 75,
      "v": 71
    },
    {
      "midi": 81,
      "hit": false,
      "t": 45600,
      "d": 75,
      "v": 76
    },
    {
      "midi": 57,
      "hit": false,
      "t": 45600,
      "d": 475,
      "v": 126
    },
    {
      "midi": 60,
      "hit": false,
      "t": 45600,
      "d": 475,
      "v": 126
    },
    {
      "midi": 65,
      "hit": false,
      "t": 45600,
      "d": 475,
      "v": 126
    },
    {
      "midi": 89,
      "hit": false,
      "t": 45680,
      "d": 75,
      "v": 80
    },
    {
      "midi": 81,
      "hit": false,
      "t": 45760,
      "d": 75,
      "v": 76
    },
    {
      "midi": 89,
      "hit": false,
      "t": 45840,
      "d": 75,
      "v": 94
    },
    {
      "midi": 48,
      "hit": false,
      "t": 46080,
      "d": 475,
      "v": 126
    },
    {
      "midi": 79,
      "hit": false,
      "t": 46400,
      "d": 160,
      "v": 78
    },
    {
      "midi": 88,
      "hit": false,
      "t": 46560,
      "d": 240,
      "v": 104
    },
    {
      "midi": 55,
      "hit": false,
      "t": 46560,
      "d": 475,
      "v": 126
    },
    {
      "midi": 60,
      "hit": false,
      "t": 46560,
      "d": 475,
      "v": 126
    },
    {
      "midi": 64,
      "hit": false,
      "t": 46560,
      "d": 475,
      "v": 126
    },
    {
      "midi": 79,
      "hit": false,
      "t": 47040,
      "d": 240,
      "v": 110
    },
    {
      "midi": 88,
      "hit": false,
      "t": 47040,
      "d": 240,
      "v": 107
    },
    {
      "midi": 43,
      "hit": false,
      "t": 47040,
      "d": 475,
      "v": 126
    },
    {
      "midi": 78,
      "hit": false,
      "t": 47360,
      "d": 155,
      "v": 79
    },
    {
      "midi": 87,
      "hit": false,
      "t": 47360,
      "d": 155,
      "v": 70
    },
    {
      "midi": 77,
      "hit": false,
      "t": 47520,
      "d": 235,
      "v": 105
    },
    {
      "midi": 86,
      "hit": false,
      "t": 47520,
      "d": 240,
      "v": 94
    },
    {
      "midi": 55,
      "hit": false,
      "t": 47520,
      "d": 475,
      "v": 126
    },
    {
      "midi": 60,
      "hit": false,
      "t": 47520,
      "d": 475,
      "v": 126
    },
    {
      "midi": 64,
      "hit": false,
      "t": 47520,
      "d": 475,
      "v": 126
    },
    {
      "midi": 75,
      "hit": false,
      "t": 47840,
      "d": 155,
      "v": 112
    },
    {
      "midi": 76,
      "hit": false,
      "t": 48000,
      "d": 75,
      "v": 93
    },
    {
      "midi": 48,
      "hit": false,
      "t": 48000,
      "d": 475,
      "v": 126
    },
    {
      "midi": 84,
      "hit": false,
      "t": 48080,
      "d": 75,
      "v": 85
    },
    {
      "midi": 76,
      "hit": false,
      "t": 48160,
      "d": 75,
      "v": 98
    },
    {
      "midi": 84,
      "hit": false,
      "t": 48240,
      "d": 75,
      "v": 89
    },
    {
      "midi": 76,
      "hit": false,
      "t": 48320,
      "d": 75,
      "v": 76
    },
    {
      "midi": 84,
      "hit": false,
      "t": 48400,
      "d": 75,
      "v": 78
    },
    {
      "midi": 76,
      "hit": false,
      "t": 48480,
      "d": 75,
      "v": 64
    },
    {
      "midi": 55,
      "hit": false,
      "t": 48480,
      "d": 475,
      "v": 126
    },
    {
      "midi": 60,
      "hit": false,
      "t": 48480,
      "d": 475,
      "v": 126
    },
    {
      "midi": 64,
      "hit": false,
      "t": 48480,
      "d": 475,
      "v": 126
    },
    {
      "midi": 84,
      "hit": false,
      "t": 48560,
      "d": 75,
      "v": 67
    },
    {
      "midi": 76,
      "hit": false,
      "t": 48640,
      "d": 75,
      "v": 67
    },
    {
      "midi": 84,
      "hit": false,
      "t": 48720,
      "d": 75,
      "v": 81
    },
    {
      "midi": 76,
      "hit": false,
      "t": 48800,
      "d": 75,
      "v": 53
    },
    {
      "midi": 84,
      "hit": false,
      "t": 48880,
      "d": 75,
      "v": 89
    },
    {
      "midi": 76,
      "hit": false,
      "t": 48960,
      "d": 75,
      "v": 82
    },
    {
      "midi": 43,
      "hit": false,
      "t": 48960,
      "d": 475,
      "v": 126
    },
    {
      "midi": 84,
      "hit": false,
      "t": 49040,
      "d": 75,
      "v": 95
    },
    {
      "midi": 76,
      "hit": false,
      "t": 49120,
      "d": 75,
      "v": 82
    },
    {
      "midi": 84,
      "hit": false,
      "t": 49200,
      "d": 75,
      "v": 99
    },
    {
      "midi": 76,
      "hit": false,
      "t": 49280,
      "d": 75,
      "v": 84
    },
    {
      "midi": 84,
      "hit": false,
      "t": 49360,
      "d": 75,
      "v": 99
    },
    {
      "midi": 76,
      "hit": false,
      "t": 49440,
      "d": 75,
      "v": 78
    },
    {
      "midi": 55,
      "hit": false,
      "t": 49440,
      "d": 475,
      "v": 126
    },
    {
      "midi": 60,
      "hit": false,
      "t": 49440,
      "d": 475,
      "v": 126
    },
    {
      "midi": 64,
      "hit": false,
      "t": 49440,
      "d": 475,
      "v": 126
    },
    {
      "midi": 84,
      "hit": false,
      "t": 49520,
      "d": 75,
      "v": 101
    },
    {
      "midi": 76,
      "hit": false,
      "t": 49600,
      "d": 75,
      "v": 80
    },
    {
      "midi": 84,
      "hit": false,
      "t": 49680,
      "d": 75,
      "v": 101
    },
    {
      "midi": 50,
      "hit": false,
      "t": 49895,
      "d": 500,
      "v": 104
    },
    {
      "midi": 81,
      "hit": false,
      "t": 50240,
      "d": 155,
      "v": 112
    },
    {
      "midi": 90,
      "hit": false,
      "t": 50400,
      "d": 240,
      "v": 95
    },
    {
      "midi": 57,
      "hit": false,
      "t": 50400,
      "d": 475,
      "v": 125
    },
    {
      "midi": 62,
      "hit": false,
      "t": 50400,
      "d": 475,
      "v": 125
    },
    {
      "midi": 66,
      "hit": false,
      "t": 50400,
      "d": 475,
      "v": 125
    },
    {
      "midi": 81,
      "hit": false,
      "t": 50880,
      "d": 240,
      "v": 98
    },
    {
      "midi": 90,
      "hit": false,
      "t": 50880,
      "d": 240,
      "v": 69
    },
    {
      "midi": 45,
      "hit": false,
      "t": 50880,
      "d": 475,
      "v": 125
    },
    {
      "midi": 79,
      "hit": false,
      "t": 51360,
      "d": 235,
      "v": 101
    },
    {
      "midi": 88,
      "hit": false,
      "t": 51360,
      "d": 235,
      "v": 95
    },
    {
      "midi": 57,
      "hit": false,
      "t": 51360,
      "d": 475,
      "v": 125
    },
    {
      "midi": 62,
      "hit": false,
      "t": 51360,
      "d": 475,
      "v": 125
    },
    {
      "midi": 66,
      "hit": false,
      "t": 51360,
      "d": 475,
      "v": 125
    },
    {
      "midi": 78,
      "hit": false,
      "t": 51840,
      "d": 240,
      "v": 97
    },
    {
      "midi": 86,
      "hit": false,
      "t": 51840,
      "d": 240,
      "v": 104
    },
    {
      "midi": 50,
      "hit": false,
      "t": 51840,
      "d": 475,
      "v": 125
    },
    {
      "midi": 78,
      "hit": false,
      "t": 52320,
      "d": 235,
      "v": 97
    },
    {
      "midi": 86,
      "hit": false,
      "t": 52320,
      "d": 235,
      "v": 105
    },
    {
      "midi": 57,
      "hit": false,
      "t": 52320,
      "d": 475,
      "v": 125
    },
    {
      "midi": 62,
      "hit": false,
      "t": 52320,
      "d": 475,
      "v": 125
    },
    {
      "midi": 66,
      "hit": false,
      "t": 52320,
      "d": 475,
      "v": 125
    },
    {
      "midi": 75,
      "hit": false,
      "t": 52640,
      "d": 155,
      "v": 93
    },
    {
      "midi": 76,
      "hit": false,
      "t": 52800,
      "d": 235,
      "v": 74
    },
    {
      "midi": 45,
      "hit": false,
      "t": 52800,
      "d": 475,
      "v": 125
    },
    {
      "midi": 84,
      "hit": false,
      "t": 52880,
      "d": 275,
      "v": 61
    },
    {
      "midi": 84,
      "hit": false,
      "t": 53280,
      "d": 235,
      "v": 99
    },
    {
      "midi": 76,
      "hit": false,
      "t": 53280,
      "d": 240,
      "v": 105
    },
    {
      "midi": 57,
      "hit": false,
      "t": 53280,
      "d": 475,
      "v": 125
    },
    {
      "midi": 62,
      "hit": false,
      "t": 53280,
      "d": 475,
      "v": 125
    },
    {
      "midi": 66,
      "hit": false,
      "t": 53280,
      "d": 475,
      "v": 125
    },
    {
      "midi": 74,
      "hit": false,
      "t": 53760,
      "d": 235,
      "v": 105
    },
    {
      "midi": 83,
      "hit": false,
      "t": 53760,
      "d": 235,
      "v": 105
    },
    {
      "midi": 43,
      "hit": false,
      "t": 53760,
      "d": 475,
      "v": 125
    },
    {
      "midi": 74,
      "hit": false,
      "t": 54240,
      "d": 230,
      "v": 105
    },
    {
      "midi": 83,
      "hit": false,
      "t": 54240,
      "d": 240,
      "v": 99
    },
    {
      "midi": 55,
      "hit": false,
      "t": 54240,
      "d": 475,
      "v": 125
    },
    {
      "midi": 59,
      "hit": false,
      "t": 54240,
      "d": 475,
      "v": 125
    },
    {
      "midi": 62,
      "hit": false,
      "t": 54240,
      "d": 475,
      "v": 125
    },
    {
      "midi": 83,
      "hit": false,
      "t": 54720,
      "d": 227.5,
      "v": 95
    },
    {
      "midi": 74,
      "hit": false,
      "t": 54720,
      "d": 230,
      "v": 104
    },
    {
      "midi": 50,
      "hit": false,
      "t": 54720,
      "d": 475,
      "v": 125
    },
    {
      "midi": 73,
      "hit": false,
      "t": 55040,
      "d": 155,
      "v": 83
    },
    {
      "midi": 82,
      "hit": false,
      "t": 55040,
      "d": 155,
      "v": 82
    },
    {
      "midi": 72,
      "hit": false,
      "t": 55200,
      "d": 227.5,
      "v": 105
    },
    {
      "midi": 81,
      "hit": false,
      "t": 55200,
      "d": 235,
      "v": 99
    },
    {
      "midi": 55,
      "hit": false,
      "t": 55200,
      "d": 475,
      "v": 125
    },
    {
      "midi": 59,
      "hit": false,
      "t": 55200,
      "d": 475,
      "v": 125
    },
    {
      "midi": 62,
      "hit": false,
      "t": 55200,
      "d": 475,
      "v": 125
    },
    {
      "midi": 70,
      "hit": false,
      "t": 55520,
      "d": 150,
      "v": 107
    },
    {
      "midi": 71,
      "hit": false,
      "t": 55680,
      "d": 1442.5,
      "v": 110
    },
    {
      "midi": 43,
      "hit": false,
      "t": 55680,
      "d": 475,
      "v": 125
    },
    {
      "midi": 79,
      "hit": false,
      "t": 56000,
      "d": 1135,
      "v": 105
    },
    {
      "midi": 55,
      "hit": false,
      "t": 56160,
      "d": 475,
      "v": 125
    },
    {
      "midi": 59,
      "hit": false,
      "t": 56160,
      "d": 475,
      "v": 125
    },
    {
      "midi": 62,
      "hit": false,
      "t": 56160,
      "d": 475,
      "v": 125
    },
    {
      "midi": 45,
      "hit": false,
      "t": 56640,
      "d": 475,
      "v": 101
    },
    {
      "midi": 60,
      "hit": false,
      "t": 56640,
      "d": 475,
      "v": 107
    },
    {
      "midi": 47,
      "hit": false,
      "t": 57120,
      "d": 475,
      "v": 110
    },
    {
      "midi": 62,
      "hit": false,
      "t": 57120,
      "d": 475,
      "v": 115
    },
    {
      "midi": 48,
      "hit": false,
      "t": 57600,
      "d": 475,
      "v": 125
    },
    {
      "midi": 64,
      "hit": false,
      "t": 57600,
      "d": 475,
      "v": 117
    },
    {
      "midi": 55,
      "hit": false,
      "t": 58080,
      "d": 475,
      "v": 125
    },
    {
      "midi": 60,
      "hit": false,
      "t": 58080,
      "d": 475,
      "v": 125
    },
    {
      "midi": 64,
      "hit": false,
      "t": 58080,
      "d": 475,
      "v": 125
    },
    {
      "midi": 43,
      "hit": false,
      "t": 58560,
      "d": 475,
      "v": 125
    },
    {
      "midi": 55,
      "hit": false,
      "t": 59040,
      "d": 475,
      "v": 125
    },
    {
      "midi": 60,
      "hit": false,
      "t": 59040,
      "d": 475,
      "v": 125
    },
    {
      "midi": 64,
      "hit": false,
      "t": 59040,
      "d": 475,
      "v": 125
    },
    {
      "midi": 48,
      "hit": false,
      "t": 59520,
      "d": 475,
      "v": 125
    },
    {
      "midi": 55,
      "hit": false,
      "t": 60000,
      "d": 475,
      "v": 125
    },
    {
      "midi": 60,
      "hit": false,
      "t": 60000,
      "d": 475,
      "v": 125
    },
    {
      "midi": 64,
      "hit": false,
      "t": 60000,
      "d": 475,
      "v": 125
    },
    {
      "midi": 43,
      "hit": false,
      "t": 60480,
      "d": 475,
      "v": 125
    },
    {
      "midi": 55,
      "hit": false,
      "t": 60960,
      "d": 475,
      "v": 125
    },
    {
      "midi": 60,
      "hit": false,
      "t": 60960,
      "d": 475,
      "v": 125
    },
    {
      "midi": 64,
      "hit": false,
      "t": 60960,
      "d": 475,
      "v": 125
    },
    {
      "midi": 41,
      "hit": false,
      "t": 61440,
      "d": 475,
      "v": 125
    },
    {
      "midi": 57,
      "hit": false,
      "t": 61920,
      "d": 475,
      "v": 125
    },
    {
      "midi": 60,
      "hit": false,
      "t": 61920,
      "d": 475,
      "v": 125
    },
    {
      "midi": 65,
      "hit": false,
      "t": 61920,
      "d": 475,
      "v": 125
    },
    {
      "midi": 48,
      "hit": false,
      "t": 62400,
      "d": 475,
      "v": 125
    },
    {
      "midi": 57,
      "hit": false,
      "t": 62880,
      "d": 475,
      "v": 125
    },
    {
      "midi": 60,
      "hit": false,
      "t": 62880,
      "d": 475,
      "v": 125
    },
    {
      "midi": 65,
      "hit": false,
      "t": 62880,
      "d": 475,
      "v": 125
    },
    {
      "midi": 41,
      "hit": false,
      "t": 63360,
      "d": 475,
      "v": 125
    },
    {
      "midi": 57,
      "hit": false,
      "t": 63840,
      "d": 475,
      "v": 125
    },
    {
      "midi": 60,
      "hit": false,
      "t": 63840,
      "d": 475,
      "v": 125
    },
    {
      "midi": 65,
      "hit": false,
      "t": 63840,
      "d": 475,
      "v": 125
    },
    {
      "midi": 48,
      "hit": false,
      "t": 64320,
      "d": 475,
      "v": 125
    },
    {
      "midi": 57,
      "hit": false,
      "t": 64800,
      "d": 475,
      "v": 125
    },
    {
      "midi": 60,
      "hit": false,
      "t": 64800,
      "d": 475,
      "v": 125
    },
    {
      "midi": 65,
      "hit": false,
      "t": 64800,
      "d": 475,
      "v": 125
    },
    {
      "midi": 43,
      "hit": false,
      "t": 65280,
      "d": 475,
      "v": 125
    },
    {
      "midi": 55,
      "hit": false,
      "t": 65760,
      "d": 475,
      "v": 125
    },
    {
      "midi": 59,
      "hit": false,
      "t": 65760,
      "d": 475,
      "v": 125
    },
    {
      "midi": 62,
      "hit": false,
      "t": 65760,
      "d": 475,
      "v": 125
    },
    {
      "midi": 50,
      "hit": false,
      "t": 66240,
      "d": 475,
      "v": 125
    },
    {
      "midi": 55,
      "hit": false,
      "t": 66720,
      "d": 475,
      "v": 125
    },
    {
      "midi": 59,
      "hit": false,
      "t": 66720,
      "d": 475,
      "v": 125
    },
    {
      "midi": 62,
      "hit": false,
      "t": 66720,
      "d": 475,
      "v": 125
    },
    {
      "midi": 43,
      "hit": false,
      "t": 67200,
      "d": 475,
      "v": 125
    },
    {
      "midi": 55,
      "hit": false,
      "t": 67680,
      "d": 475,
      "v": 125
    },
    {
      "midi": 59,
      "hit": false,
      "t": 67680,
      "d": 475,
      "v": 125
    },
    {
      "midi": 62,
      "hit": false,
      "t": 67680,
      "d": 475,
      "v": 125
    },
    {
      "midi": 50,
      "hit": false,
      "t": 68160,
      "d": 475,
      "v": 125
    },
    {
      "midi": 55,
      "hit": false,
      "t": 68640,
      "d": 475,
      "v": 125
    },
    {
      "midi": 59,
      "hit": false,
      "t": 68640,
      "d": 475,
      "v": 125
    },
    {
      "midi": 62,
      "hit": false,
      "t": 68640,
      "d": 475,
      "v": 125
    },
    {
      "midi": 48,
      "hit": false,
      "t": 69120,
      "d": 475,
      "v": 125
    },
    {
      "midi": 55,
      "hit": false,
      "t": 69600,
      "d": 475,
      "v": 125
    },
    {
      "midi": 60,
      "hit": false,
      "t": 69600,
      "d": 475,
      "v": 125
    },
    {
      "midi": 64,
      "hit": false,
      "t": 69600,
      "d": 475,
      "v": 125
    },
    {
      "midi": 43,
      "hit": false,
      "t": 70080,
      "d": 475,
      "v": 125
    },
    {
      "midi": 55,
      "hit": false,
      "t": 70560,
      "d": 475,
      "v": 125
    },
    {
      "midi": 60,
      "hit": false,
      "t": 70560,
      "d": 475,
      "v": 125
    },
    {
      "midi": 64,
      "hit": false,
      "t": 70560,
      "d": 475,
      "v": 125
    },
    {
      "midi": 36,
      "hit": false,
      "t": 71040,
      "d": 475,
      "v": 107
    },
    {
      "midi": 43,
      "hit": false,
      "t": 72960,
      "d": 475,
      "v": 125
    },
    {
      "midi": 55,
      "hit": false,
      "t": 73440,
      "d": 475,
      "v": 125
    },
    {
      "midi": 59,
      "hit": false,
      "t": 73440,
      "d": 475,
      "v": 125
    },
    {
      "midi": 62,
      "hit": false,
      "t": 73440,
      "d": 475,
      "v": 125
    },
    {
      "midi": 50,
      "hit": false,
      "t": 73920,
      "d": 475,
      "v": 125
    },
    {
      "midi": 55,
      "hit": false,
      "t": 74400,
      "d": 475,
      "v": 125
    },
    {
      "midi": 59,
      "hit": false,
      "t": 74400,
      "d": 475,
      "v": 125
    },
    {
      "midi": 62,
      "hit": false,
      "t": 74400,
      "d": 475,
      "v": 125
    },
    {
      "midi": 43,
      "hit": false,
      "t": 74880,
      "d": 475,
      "v": 125
    },
    {
      "midi": 55,
      "hit": false,
      "t": 75360,
      "d": 475,
      "v": 125
    },
    {
      "midi": 59,
      "hit": false,
      "t": 75360,
      "d": 475,
      "v": 125
    },
    {
      "midi": 62,
      "hit": false,
      "t": 75360,
      "d": 475,
      "v": 125
    },
    {
      "midi": 50,
      "hit": false,
      "t": 75840,
      "d": 475,
      "v": 125
    },
    {
      "midi": 55,
      "hit": false,
      "t": 76320,
      "d": 475,
      "v": 125
    },
    {
      "midi": 59,
      "hit": false,
      "t": 76320,
      "d": 475,
      "v": 125
    },
    {
      "midi": 62,
      "hit": false,
      "t": 76320,
      "d": 475,
      "v": 125
    },
    {
      "midi": 48,
      "hit": false,
      "t": 76800,
      "d": 475,
      "v": 125
    },
    {
      "midi": 55,
      "hit": false,
      "t": 77280,
      "d": 475,
      "v": 125
    },
    {
      "midi": 60,
      "hit": false,
      "t": 77280,
      "d": 475,
      "v": 125
    },
    {
      "midi": 64,
      "hit": false,
      "t": 77280,
      "d": 475,
      "v": 125
    },
    {
      "midi": 43,
      "hit": false,
      "t": 77760,
      "d": 475,
      "v": 125
    },
    {
      "midi": 55,
      "hit": false,
      "t": 78240,
      "d": 475,
      "v": 125
    },
    {
      "midi": 60,
      "hit": false,
      "t": 78240,
      "d": 475,
      "v": 125
    },
    {
      "midi": 64,
      "hit": false,
      "t": 78240,
      "d": 475,
      "v": 125
    },
    {
      "midi": 48,
      "hit": false,
      "t": 78720,
      "d": 475,
      "v": 125
    },
    {
      "midi": 43,
      "hit": false,
      "t": 79200,
      "d": 475,
      "v": 98
    },
    {
      "midi": 59,
      "hit": false,
      "t": 79200,
      "d": 475,
      "v": 105
    },
    {
      "midi": 45,
      "hit": false,
      "t": 79680,
      "d": 475,
      "v": 99
    },
    {
      "midi": 60,
      "hit": false,
      "t": 79680,
      "d": 475,
      "v": 107
    },
    {
      "midi": 47,
      "hit": false,
      "t": 80160,
      "d": 475,
      "v": 107
    },
    {
      "midi": 62,
      "hit": false,
      "t": 80160,
      "d": 475,
      "v": 115
    },
    {
      "midi": 48,
      "hit": false,
      "t": 80640,
      "d": 475,
      "v": 125
    },
    {
      "midi": 64,
      "hit": false,
      "t": 80640,
      "d": 475,
      "v": 115
    },
    {
      "midi": 55,
      "hit": false,
      "t": 81120,
      "d": 475,
      "v": 125
    },
    {
      "midi": 60,
      "hit": false,
      "t": 81120,
      "d": 475,
      "v": 125
    },
    {
      "midi": 64,
      "hit": false,
      "t": 81120,
      "d": 475,
      "v": 125
    },
    {
      "midi": 43,
      "hit": false,
      "t": 81600,
      "d": 475,
      "v": 125
    },
    {
      "midi": 55,
      "hit": false,
      "t": 82080,
      "d": 475,
      "v": 125
    },
    {
      "midi": 60,
      "hit": false,
      "t": 82080,
      "d": 475,
      "v": 125
    },
    {
      "midi": 64,
      "hit": false,
      "t": 82080,
      "d": 475,
      "v": 125
    },
    {
      "midi": 48,
      "hit": false,
      "t": 82560,
      "d": 475,
      "v": 125
    },
    {
      "midi": 55,
      "hit": false,
      "t": 83040,
      "d": 475,
      "v": 125
    },
    {
      "midi": 60,
      "hit": false,
      "t": 83040,
      "d": 475,
      "v": 125
    },
    {
      "midi": 64,
      "hit": false,
      "t": 83040,
      "d": 475,
      "v": 125
    },
    {
      "midi": 43,
      "hit": false,
      "t": 83520,
      "d": 475,
      "v": 125
    },
    {
      "midi": 55,
      "hit": false,
      "t": 84000,
      "d": 475,
      "v": 125
    },
    {
      "midi": 60,
      "hit": false,
      "t": 84000,
      "d": 475,
      "v": 125
    },
    {
      "midi": 64,
      "hit": false,
      "t": 84000,
      "d": 475,
      "v": 125
    },
    {
      "midi": 41,
      "hit": false,
      "t": 84480,
      "d": 475,
      "v": 125
    },
    {
      "midi": 57,
      "hit": false,
      "t": 84960,
      "d": 475,
      "v": 125
    },
    {
      "midi": 60,
      "hit": false,
      "t": 84960,
      "d": 475,
      "v": 125
    },
    {
      "midi": 65,
      "hit": false,
      "t": 84960,
      "d": 475,
      "v": 125
    },
    {
      "midi": 48,
      "hit": false,
      "t": 85440,
      "d": 475,
      "v": 125
    },
    {
      "midi": 57,
      "hit": false,
      "t": 85920,
      "d": 475,
      "v": 125
    },
    {
      "midi": 60,
      "hit": false,
      "t": 85920,
      "d": 475,
      "v": 125
    },
    {
      "midi": 65,
      "hit": false,
      "t": 85920,
      "d": 475,
      "v": 125
    },
    {
      "midi": 41,
      "hit": false,
      "t": 86400,
      "d": 475,
      "v": 125
    },
    {
      "midi": 57,
      "hit": false,
      "t": 86880,
      "d": 475,
      "v": 125
    },
    {
      "midi": 60,
      "hit": false,
      "t": 86880,
      "d": 475,
      "v": 125
    },
    {
      "midi": 65,
      "hit": false,
      "t": 86880,
      "d": 475,
      "v": 125
    },
    {
      "midi": 48,
      "hit": false,
      "t": 87360,
      "d": 475,
      "v": 125
    },
    {
      "midi": 57,
      "hit": false,
      "t": 87840,
      "d": 475,
      "v": 125
    },
    {
      "midi": 60,
      "hit": false,
      "t": 87840,
      "d": 475,
      "v": 125
    },
    {
      "midi": 65,
      "hit": false,
      "t": 87840,
      "d": 475,
      "v": 125
    },
    {
      "midi": 43,
      "hit": false,
      "t": 88320,
      "d": 475,
      "v": 125
    },
    {
      "midi": 55,
      "hit": false,
      "t": 88800,
      "d": 475,
      "v": 125
    },
    {
      "midi": 59,
      "hit": false,
      "t": 88800,
      "d": 475,
      "v": 125
    },
    {
      "midi": 62,
      "hit": false,
      "t": 88800,
      "d": 475,
      "v": 125
    },
    {
      "midi": 50,
      "hit": false,
      "t": 89280,
      "d": 475,
      "v": 125
    },
    {
      "midi": 55,
      "hit": false,
      "t": 89760,
      "d": 475,
      "v": 125
    },
    {
      "midi": 59,
      "hit": false,
      "t": 89760,
      "d": 475,
      "v": 125
    },
    {
      "midi": 62,
      "hit": false,
      "t": 89760,
      "d": 475,
      "v": 125
    },
    {
      "midi": 43,
      "hit": false,
      "t": 90240,
      "d": 475,
      "v": 125
    },
    {
      "midi": 55,
      "hit": false,
      "t": 90720,
      "d": 475,
      "v": 125
    },
    {
      "midi": 59,
      "hit": false,
      "t": 90720,
      "d": 475,
      "v": 125
    },
    {
      "midi": 62,
      "hit": false,
      "t": 90720,
      "d": 475,
      "v": 125
    },
    {
      "midi": 50,
      "hit": false,
      "t": 91200,
      "d": 475,
      "v": 125
    },
    {
      "midi": 55,
      "hit": false,
      "t": 91680,
      "d": 475,
      "v": 125
    },
    {
      "midi": 59,
      "hit": false,
      "t": 91680,
      "d": 475,
      "v": 125
    },
    {
      "midi": 62,
      "hit": false,
      "t": 91680,
      "d": 475,
      "v": 125
    },
    {
      "midi": 48,
      "hit": false,
      "t": 92160,
      "d": 475,
      "v": 125
    },
    {
      "midi": 55,
      "hit": false,
      "t": 92640,
      "d": 475,
      "v": 125
    },
    {
      "midi": 60,
      "hit": false,
      "t": 92640,
      "d": 475,
      "v": 125
    },
    {
      "midi": 64,
      "hit": false,
      "t": 92640,
      "d": 475,
      "v": 125
    },
    {
      "midi": 43,
      "hit": false,
      "t": 93120,
      "d": 475,
      "v": 125
    },
    {
      "midi": 55,
      "hit": false,
      "t": 93600,
      "d": 475,
      "v": 125
    },
    {
      "midi": 60,
      "hit": false,
      "t": 93600,
      "d": 475,
      "v": 125
    },
    {
      "midi": 64,
      "hit": false,
      "t": 93600,
      "d": 475,
      "v": 125
    },
    {
      "midi": 48,
      "hit": false,
      "t": 94080,
      "d": 475,
      "v": 125
    },
    {
      "midi": 43,
      "hit": false,
      "t": 94560,
      "d": 475,
      "v": 101
    },
    {
      "midi": 59,
      "hit": false,
      "t": 94560,
      "d": 475,
      "v": 105
    },
    {
      "midi": 45,
      "hit": false,
      "t": 95040,
      "d": 475,
      "v": 101
    },
    {
      "midi": 60,
      "hit": false,
      "t": 95040,
      "d": 475,
      "v": 107
    },
    {
      "midi": 47,
      "hit": false,
      "t": 95520,
      "d": 475,
      "v": 112
    },
    {
      "midi": 62,
      "hit": false,
      "t": 95520,
      "d": 475,
      "v": 112
    },
    {
      "midi": 48,
      "hit": false,
      "t": 96000,
      "d": 475,
      "v": 125
    },
    {
      "midi": 64,
      "hit": false,
      "t": 96000,
      "d": 475,
      "v": 115
    },
    {
      "midi": 55,
      "hit": false,
      "t": 96480,
      "d": 475,
      "v": 125
    },
    {
      "midi": 60,
      "hit": false,
      "t": 96480,
      "d": 475,
      "v": 125
    },
    {
      "midi": 64,
      "hit": false,
      "t": 96480,
      "d": 475,
      "v": 125
    },
    {
      "midi": 43,
      "hit": false,
      "t": 96960,
      "d": 475,
      "v": 125
    },
    {
      "midi": 55,
      "hit": false,
      "t": 97440,
      "d": 475,
      "v": 125
    },
    {
      "midi": 60,
      "hit": false,
      "t": 97440,
      "d": 475,
      "v": 125
    },
    {
      "midi": 64,
      "hit": false,
      "t": 97440,
      "d": 475,
      "v": 125
    },
    {
      "midi": 48,
      "hit": false,
      "t": 97920,
      "d": 475,
      "v": 125
    },
    {
      "midi": 55,
      "hit": false,
      "t": 98400,
      "d": 475,
      "v": 125
    },
    {
      "midi": 60,
      "hit": false,
      "t": 98400,
      "d": 475,
      "v": 125
    },
    {
      "midi": 64,
      "hit": false,
      "t": 98400,
      "d": 475,
      "v": 125
    },
    {
      "midi": 43,
      "hit": false,
      "t": 98880,
      "d": 475,
      "v": 125
    },
    {
      "midi": 55,
      "hit": false,
      "t": 99360,
      "d": 475,
      "v": 125
    },
    {
      "midi": 60,
      "hit": false,
      "t": 99360,
      "d": 475,
      "v": 125
    },
    {
      "midi": 64,
      "hit": false,
      "t": 99360,
      "d": 475,
      "v": 125
    },
    {
      "midi": 41,
      "hit": false,
      "t": 99840,
      "d": 475,
      "v": 125
    },
    {
      "midi": 57,
      "hit": false,
      "t": 100320,
      "d": 475,
      "v": 125
    },
    {
      "midi": 60,
      "hit": false,
      "t": 100320,
      "d": 475,
      "v": 125
    },
    {
      "midi": 65,
      "hit": false,
      "t": 100320,
      "d": 475,
      "v": 125
    },
    {
      "midi": 48,
      "hit": false,
      "t": 100800,
      "d": 475,
      "v": 125
    },
    {
      "midi": 57,
      "hit": false,
      "t": 101280,
      "d": 475,
      "v": 125
    },
    {
      "midi": 60,
      "hit": false,
      "t": 101280,
      "d": 475,
      "v": 125
    },
    {
      "midi": 65,
      "hit": false,
      "t": 101280,
      "d": 475,
      "v": 125
    },
    {
      "midi": 41,
      "hit": false,
      "t": 101760,
      "d": 475,
      "v": 125
    },
    {
      "midi": 57,
      "hit": false,
      "t": 102240,
      "d": 475,
      "v": 125
    },
    {
      "midi": 60,
      "hit": false,
      "t": 102240,
      "d": 475,
      "v": 125
    },
    {
      "midi": 65,
      "hit": false,
      "t": 102240,
      "d": 475,
      "v": 125
    },
    {
      "midi": 48,
      "hit": false,
      "t": 102720,
      "d": 475,
      "v": 125
    },
    {
      "midi": 57,
      "hit": false,
      "t": 103200,
      "d": 475,
      "v": 125
    },
    {
      "midi": 60,
      "hit": false,
      "t": 103200,
      "d": 475,
      "v": 125
    },
    {
      "midi": 65,
      "hit": false,
      "t": 103200,
      "d": 475,
      "v": 125
    },
    {
      "midi": 43,
      "hit": false,
      "t": 103680,
      "d": 475,
      "v": 125
    },
    {
      "midi": 55,
      "hit": false,
      "t": 104160,
      "d": 475,
      "v": 125
    },
    {
      "midi": 59,
      "hit": false,
      "t": 104160,
      "d": 475,
      "v": 125
    },
    {
      "midi": 62,
      "hit": false,
      "t": 104160,
      "d": 475,
      "v": 125
    },
    {
      "midi": 50,
      "hit": false,
      "t": 104640,
      "d": 475,
      "v": 125
    },
    {
      "midi": 55,
      "hit": false,
      "t": 105120,
      "d": 475,
      "v": 125
    },
    {
      "midi": 59,
      "hit": false,
      "t": 105120,
      "d": 475,
      "v": 125
    },
    {
      "midi": 62,
      "hit": false,
      "t": 105120,
      "d": 475,
      "v": 125
    },
    {
      "midi": 43,
      "hit": false,
      "t": 105600,
      "d": 475,
      "v": 125
    },
    {
      "midi": 55,
      "hit": false,
      "t": 106080,
      "d": 475,
      "v": 125
    },
    {
      "midi": 59,
      "hit": false,
      "t": 106080,
      "d": 475,
      "v": 125
    },
    {
      "midi": 62,
      "hit": false,
      "t": 106080,
      "d": 475,
      "v": 125
    },
    {
      "midi": 50,
      "hit": false,
      "t": 106560,
      "d": 475,
      "v": 125
    },
    {
      "midi": 55,
      "hit": false,
      "t": 107040,
      "d": 475,
      "v": 125
    },
    {
      "midi": 59,
      "hit": false,
      "t": 107040,
      "d": 475,
      "v": 125
    },
    {
      "midi": 62,
      "hit": false,
      "t": 107040,
      "d": 475,
      "v": 125
    },
    {
      "midi": 48,
      "hit": false,
      "t": 107520,
      "d": 475,
      "v": 125
    },
    {
      "midi": 55,
      "hit": false,
      "t": 108000,
      "d": 475,
      "v": 125
    },
    {
      "midi": 60,
      "hit": false,
      "t": 108000,
      "d": 475,
      "v": 125
    },
    {
      "midi": 64,
      "hit": false,
      "t": 108000,
      "d": 475,
      "v": 125
    },
    {
      "midi": 43,
      "hit": false,
      "t": 108480,
      "d": 475,
      "v": 125
    },
    {
      "midi": 55,
      "hit": false,
      "t": 108960,
      "d": 475,
      "v": 125
    },
    {
      "midi": 60,
      "hit": false,
      "t": 108960,
      "d": 475,
      "v": 125
    },
    {
      "midi": 64,
      "hit": false,
      "t": 108960,
      "d": 475,
      "v": 125
    },
    {
      "midi": 48,
      "hit": false,
      "t": 109440,
      "d": 475,
      "v": 125
    },
    {
      "midi": 36,
      "hit": false,
      "t": 109920,
      "d": 475,
      "v": 107
    },
    {
      "midi": 52,
      "hit": false,
      "t": 109920,
      "d": 475,
      "v": 112
    },
    {
      "midi": 38,
      "hit": false,
      "t": 110400,
      "d": 475,
      "v": 105
    },
    {
      "midi": 53,
      "hit": false,
      "t": 110400,
      "d": 475,
      "v": 117
    },
    {
      "midi": 40,
      "hit": false,
      "t": 110880,
      "d": 475,
      "v": 110
    },
    {
      "midi": 55,
      "hit": false,
      "t": 110880,
      "d": 475,
      "v": 119
    },
    {
      "midi": 41,
      "hit": false,
      "t": 111360,
      "d": 475,
      "v": 126
    },
    {
      "midi": 57,
      "hit": false,
      "t": 111360,
      "d": 475,
      "v": 117
    },
    {
      "midi": 84,
      "hit": false,
      "t": 111840,
      "d": 240,
      "v": 110
    },
    {
      "midi": 93,
      "hit": false,
      "t": 111840,
      "d": 240,
      "v": 110
    },
    {
      "midi": 57,
      "hit": false,
      "t": 111840,
      "d": 475,
      "v": 126
    },
    {
      "midi": 60,
      "hit": false,
      "t": 111840,
      "d": 475,
      "v": 126
    },
    {
      "midi": 65,
      "hit": false,
      "t": 111840,
      "d": 475,
      "v": 126
    },
    {
      "midi": 84,
      "hit": false,
      "t": 112320,
      "d": 235,
      "v": 105
    },
    {
      "midi": 93,
      "hit": false,
      "t": 112320,
      "d": 235,
      "v": 105
    },
    {
      "midi": 48,
      "hit": false,
      "t": 112320,
      "d": 475,
      "v": 126
    },
    {
      "midi": 82,
      "hit": false,
      "t": 112800,
      "d": 240,
      "v": 99
    },
    {
      "midi": 91,
      "hit": false,
      "t": 112800,
      "d": 240,
      "v": 84
    },
    {
      "midi": 57,
      "hit": false,
      "t": 112800,
      "d": 475,
      "v": 126
    },
    {
      "midi": 60,
      "hit": false,
      "t": 112800,
      "d": 475,
      "v": 126
    },
    {
      "midi": 65,
      "hit": false,
      "t": 112800,
      "d": 475,
      "v": 126
    },
    {
      "midi": 80,
      "hit": false,
      "t": 113120,
      "d": 160,
      "v": 105
    },
    {
      "midi": 81,
      "hit": false,
      "t": 113280,
      "d": 80,
      "v": 89
    },
    {
      "midi": 41,
      "hit": false,
      "t": 113280,
      "d": 475,
      "v": 126
    },
    {
      "midi": 89,
      "hit": false,
      "t": 113360,
      "d": 80,
      "v": 95
    },
    {
      "midi": 81,
      "hit": false,
      "t": 113440,
      "d": 80,
      "v": 68
    },
    {
      "midi": 89,
      "hit": false,
      "t": 113520,
      "d": 80,
      "v": 99
    },
    {
      "midi": 81,
      "hit": false,
      "t": 113600,
      "d": 80,
      "v": 76
    },
    {
      "midi": 89,
      "hit": false,
      "t": 113680,
      "d": 80,
      "v": 99
    },
    {
      "midi": 81,
      "hit": false,
      "t": 113760,
      "d": 75,
      "v": 81
    },
    {
      "midi": 57,
      "hit": false,
      "t": 113760,
      "d": 475,
      "v": 126
    },
    {
      "midi": 60,
      "hit": false,
      "t": 113760,
      "d": 475,
      "v": 126
    },
    {
      "midi": 65,
      "hit": false,
      "t": 113760,
      "d": 475,
      "v": 126
    },
    {
      "midi": 89,
      "hit": false,
      "t": 113840,
      "d": 75,
      "v": 84
    },
    {
      "midi": 81,
      "hit": false,
      "t": 113920,
      "d": 75,
      "v": 77
    },
    {
      "midi": 89,
      "hit": false,
      "t": 114000,
      "d": 75,
      "v": 68
    },
    {
      "midi": 81,
      "hit": false,
      "t": 114080,
      "d": 75,
      "v": 76
    },
    {
      "midi": 89,
      "hit": false,
      "t": 114160,
      "d": 75,
      "v": 81
    },
    {
      "midi": 81,
      "hit": false,
      "t": 114240,
      "d": 75,
      "v": 72
    },
    {
      "midi": 41,
      "hit": false,
      "t": 114240,
      "d": 475,
      "v": 126
    },
    {
      "midi": 89,
      "hit": false,
      "t": 114320,
      "d": 75,
      "v": 80
    },
    {
      "midi": 81,
      "hit": false,
      "t": 114400,
      "d": 75,
      "v": 78
    },
    {
      "midi": 89,
      "hit": false,
      "t": 114480,
      "d": 75,
      "v": 72
    },
    {
      "midi": 81,
      "hit": false,
      "t": 114560,
      "d": 75,
      "v": 76
    },
    {
      "midi": 89,
      "hit": false,
      "t": 114640,
      "d": 75,
      "v": 71
    },
    {
      "midi": 81,
      "hit": false,
      "t": 114720,
      "d": 75,
      "v": 76
    },
    {
      "midi": 57,
      "hit": false,
      "t": 114720,
      "d": 475,
      "v": 126
    },
    {
      "midi": 60,
      "hit": false,
      "t": 114720,
      "d": 475,
      "v": 126
    },
    {
      "midi": 65,
      "hit": false,
      "t": 114720,
      "d": 475,
      "v": 126
    },
    {
      "midi": 89,
      "hit": false,
      "t": 114800,
      "d": 75,
      "v": 80
    },
    {
      "midi": 81,
      "hit": false,
      "t": 114880,
      "d": 75,
      "v": 76
    },
    {
      "midi": 89,
      "hit": false,
      "t": 114960,
      "d": 75,
      "v": 94
    },
    {
      "midi": 48,
      "hit": false,
      "t": 115200,
      "d": 475,
      "v": 126
    },
    {
      "midi": 79,
      "hit": false,
      "t": 115520,
      "d": 160,
      "v": 78
    },
    {
      "midi": 88,
      "hit": false,
      "t": 115680,
      "d": 240,
      "v": 104
    },
    {
      "midi": 55,
      "hit": false,
      "t": 115680,
      "d": 475,
      "v": 126
    },
    {
      "midi": 60,
      "hit": false,
      "t": 115680,
      "d": 475,
      "v": 126
    },
    {
      "midi": 64,
      "hit": false,
      "t": 115680,
      "d": 475,
      "v": 126
    },
    {
      "midi": 79,
      "hit": false,
      "t": 116160,
      "d": 240,
      "v": 110
    },
    {
      "midi": 88,
      "hit": false,
      "t": 116160,
      "d": 240,
      "v": 107
    },
    {
      "midi": 43,
      "hit": false,
      "t": 116160,
      "d": 475,
      "v": 126
    },
    {
      "midi": 78,
      "hit": false,
      "t": 116480,
      "d": 155,
      "v": 79
    },
    {
      "midi": 87,
      "hit": false,
      "t": 116480,
      "d": 155,
      "v": 70
    },
    {
      "midi": 77,
      "hit": false,
      "t": 116640,
      "d": 235,
      "v": 105
    },
    {
      "midi": 86,
      "hit": false,
      "t": 116640,
      "d": 240,
      "v": 94
    },
    {
      "midi": 55,
      "hit": false,
      "t": 116640,
      "d": 475,
      "v": 126
    },
    {
      "midi": 60,
      "hit": false,
      "t": 116640,
      "d": 475,
      "v": 126
    },
    {
      "midi": 64,
      "hit": false,
      "t": 116640,
      "d": 475,
      "v": 126
    },
    {
      "midi": 75,
      "hit": false,
      "t": 116960,
      "d": 155,
      "v": 112
    },
    {
      "midi": 76,
      "hit": false,
      "t": 117120,
      "d": 75,
      "v": 93
    },
    {
      "midi": 48,
      "hit": false,
      "t": 117120,
      "d": 475,
      "v": 126
    },
    {
      "midi": 84,
      "hit": false,
      "t": 117200,
      "d": 75,
      "v": 85
    },
    {
      "midi": 76,
      "hit": false,
      "t": 117280,
      "d": 75,
      "v": 98
    },
    {
      "midi": 84,
      "hit": false,
      "t": 117360,
      "d": 75,
      "v": 89
    },
    {
      "midi": 76,
      "hit": false,
      "t": 117440,
      "d": 75,
      "v": 76
    },
    {
      "midi": 84,
      "hit": false,
      "t": 117520,
      "d": 75,
      "v": 78
    },
    {
      "midi": 76,
      "hit": false,
      "t": 117600,
      "d": 75,
      "v": 64
    },
    {
      "midi": 55,
      "hit": false,
      "t": 117600,
      "d": 475,
      "v": 126
    },
    {
      "midi": 60,
      "hit": false,
      "t": 117600,
      "d": 475,
      "v": 126
    },
    {
      "midi": 64,
      "hit": false,
      "t": 117600,
      "d": 475,
      "v": 126
    },
    {
      "midi": 84,
      "hit": false,
      "t": 117680,
      "d": 75,
      "v": 67
    },
    {
      "midi": 76,
      "hit": false,
      "t": 117760,
      "d": 75,
      "v": 67
    },
    {
      "midi": 84,
      "hit": false,
      "t": 117840,
      "d": 75,
      "v": 81
    },
    {
      "midi": 76,
      "hit": false,
      "t": 117920,
      "d": 75,
      "v": 53
    },
    {
      "midi": 84,
      "hit": false,
      "t": 118000,
      "d": 75,
      "v": 89
    },
    {
      "midi": 76,
      "hit": false,
      "t": 118080,
      "d": 75,
      "v": 82
    },
    {
      "midi": 43,
      "hit": false,
      "t": 118080,
      "d": 475,
      "v": 126
    },
    {
      "midi": 84,
      "hit": false,
      "t": 118160,
      "d": 75,
      "v": 95
    },
    {
      "midi": 76,
      "hit": false,
      "t": 118240,
      "d": 75,
      "v": 82
    },
    {
      "midi": 84,
      "hit": false,
      "t": 118320,
      "d": 75,
      "v": 99
    },
    {
      "midi": 76,
      "hit": false,
      "t": 118400,
      "d": 75,
      "v": 84
    },
    {
      "midi": 84,
      "hit": false,
      "t": 118480,
      "d": 75,
      "v": 99
    },
    {
      "midi": 76,
      "hit": false,
      "t": 118560,
      "d": 75,
      "v": 78
    },
    {
      "midi": 55,
      "hit": false,
      "t": 118560,
      "d": 475,
      "v": 126
    },
    {
      "midi": 60,
      "hit": false,
      "t": 118560,
      "d": 475,
      "v": 126
    },
    {
      "midi": 64,
      "hit": false,
      "t": 118560,
      "d": 475,
      "v": 126
    },
    {
      "midi": 84,
      "hit": false,
      "t": 118640,
      "d": 75,
      "v": 101
    },
    {
      "midi": 76,
      "hit": false,
      "t": 118720,
      "d": 75,
      "v": 80
    },
    {
      "midi": 84,
      "hit": false,
      "t": 118800,
      "d": 75,
      "v": 101
    },
    {
      "midi": 50,
      "hit": false,
      "t": 119015,
      "d": 500,
      "v": 104
    },
    {
      "midi": 81,
      "hit": false,
      "t": 119360,
      "d": 155,
      "v": 112
    },
    {
      "midi": 90,
      "hit": false,
      "t": 119520,
      "d": 240,
      "v": 95
    },
    {
      "midi": 57,
      "hit": false,
      "t": 119520,
      "d": 475,
      "v": 125
    },
    {
      "midi": 62,
      "hit": false,
      "t": 119520,
      "d": 475,
      "v": 125
    },
    {
      "midi": 66,
      "hit": false,
      "t": 119520,
      "d": 475,
      "v": 125
    },
    {
      "midi": 81,
      "hit": false,
      "t": 120000,
      "d": 240,
      "v": 98
    },
    {
      "midi": 90,
      "hit": false,
      "t": 120000,
      "d": 240,
      "v": 69
    },
    {
      "midi": 45,
      "hit": false,
      "t": 120000,
      "d": 475,
      "v": 125
    },
    {
      "midi": 79,
      "hit": false,
      "t": 120480,
      "d": 235,
      "v": 101
    },
    {
      "midi": 88,
      "hit": false,
      "t": 120480,
      "d": 235,
      "v": 95
    },
    {
      "midi": 57,
      "hit": false,
      "t": 120480,
      "d": 475,
      "v": 125
    },
    {
      "midi": 62,
      "hit": false,
      "t": 120480,
      "d": 475,
      "v": 125
    },
    {
      "midi": 66,
      "hit": false,
      "t": 120480,
      "d": 475,
      "v": 125
    },
    {
      "midi": 78,
      "hit": false,
      "t": 120960,
      "d": 240,
      "v": 97
    },
    {
      "midi": 86,
      "hit": false,
      "t": 120960,
      "d": 240,
      "v": 104
    },
    {
      "midi": 50,
      "hit": false,
      "t": 120960,
      "d": 475,
      "v": 125
    },
    {
      "midi": 78,
      "hit": false,
      "t": 121440,
      "d": 235,
      "v": 97
    },
    {
      "midi": 86,
      "hit": false,
      "t": 121440,
      "d": 235,
      "v": 105
    },
    {
      "midi": 57,
      "hit": false,
      "t": 121440,
      "d": 475,
      "v": 125
    },
    {
      "midi": 62,
      "hit": false,
      "t": 121440,
      "d": 475,
      "v": 125
    },
    {
      "midi": 66,
      "hit": false,
      "t": 121440,
      "d": 475,
      "v": 125
    },
    {
      "midi": 75,
      "hit": false,
      "t": 121760,
      "d": 155,
      "v": 93
    },
    {
      "midi": 76,
      "hit": false,
      "t": 121920,
      "d": 235,
      "v": 74
    },
    {
      "midi": 45,
      "hit": false,
      "t": 121920,
      "d": 475,
      "v": 125
    },
    {
      "midi": 84,
      "hit": false,
      "t": 122000,
      "d": 275,
      "v": 61
    },
    {
      "midi": 84,
      "hit": false,
      "t": 122400,
      "d": 235,
      "v": 99
    },
    {
      "midi": 76,
      "hit": false,
      "t": 122400,
      "d": 240,
      "v": 105
    },
    {
      "midi": 57,
      "hit": false,
      "t": 122400,
      "d": 475,
      "v": 125
    },
    {
      "midi": 62,
      "hit": false,
      "t": 122400,
      "d": 475,
      "v": 125
    },
    {
      "midi": 66,
      "hit": false,
      "t": 122400,
      "d": 475,
      "v": 125
    },
    {
      "midi": 74,
      "hit": false,
      "t": 122880,
      "d": 235,
      "v": 105
    },
    {
      "midi": 83,
      "hit": false,
      "t": 122880,
      "d": 235,
      "v": 105
    },
    {
      "midi": 43,
      "hit": false,
      "t": 122880,
      "d": 475,
      "v": 125
    },
    {
      "midi": 74,
      "hit": false,
      "t": 123360,
      "d": 230,
      "v": 105
    },
    {
      "midi": 83,
      "hit": false,
      "t": 123360,
      "d": 240,
      "v": 99
    },
    {
      "midi": 55,
      "hit": false,
      "t": 123360,
      "d": 475,
      "v": 125
    },
    {
      "midi": 59,
      "hit": false,
      "t": 123360,
      "d": 475,
      "v": 125
    },
    {
      "midi": 62,
      "hit": false,
      "t": 123360,
      "d": 475,
      "v": 125
    },
    {
      "midi": 83,
      "hit": false,
      "t": 123840,
      "d": 227.5,
      "v": 95
    },
    {
      "midi": 74,
      "hit": false,
      "t": 123840,
      "d": 230,
      "v": 104
    },
    {
      "midi": 50,
      "hit": false,
      "t": 123840,
      "d": 475,
      "v": 125
    },
    {
      "midi": 73,
      "hit": false,
      "t": 124160,
      "d": 155,
      "v": 83
    },
    {
      "midi": 82,
      "hit": false,
      "t": 124160,
      "d": 155,
      "v": 82
    },
    {
      "midi": 72,
      "hit": false,
      "t": 124320,
      "d": 227.5,
      "v": 105
    },
    {
      "midi": 81,
      "hit": false,
      "t": 124320,
      "d": 235,
      "v": 99
    },
    {
      "midi": 55,
      "hit": false,
      "t": 124320,
      "d": 475,
      "v": 125
    },
    {
      "midi": 59,
      "hit": false,
      "t": 124320,
      "d": 475,
      "v": 125
    },
    {
      "midi": 62,
      "hit": false,
      "t": 124320,
      "d": 475,
      "v": 125
    },
    {
      "midi": 70,
      "hit": false,
      "t": 124640,
      "d": 150,
      "v": 107
    },
    {
      "midi": 71,
      "hit": false,
      "t": 124800,
      "d": 1442.5,
      "v": 110
    },
    {
      "midi": 43,
      "hit": false,
      "t": 124800,
      "d": 475,
      "v": 125
    },
    {
      "midi": 79,
      "hit": false,
      "t": 125120,
      "d": 1135,
      "v": 105
    },
    {
      "midi": 55,
      "hit": false,
      "t": 125280,
      "d": 475,
      "v": 125
    },
    {
      "midi": 59,
      "hit": false,
      "t": 125280,
      "d": 475,
      "v": 125
    },
    {
      "midi": 62,
      "hit": false,
      "t": 125280,
      "d": 475,
      "v": 125
    },
    {
      "midi": 45,
      "hit": false,
      "t": 125760,
      "d": 475,
      "v": 101
    },
    {
      "midi": 60,
      "hit": false,
      "t": 125760,
      "d": 475,
      "v": 107
    },
    {
      "midi": 47,
      "hit": false,
      "t": 126240,
      "d": 475,
      "v": 110
    },
    {
      "midi": 62,
      "hit": false,
      "t": 126240,
      "d": 475,
      "v": 115
    },
    {
      "midi": 48,
      "hit": false,
      "t": 126720,
      "d": 475,
      "v": 125
    },
    {
      "midi": 64,
      "hit": false,
      "t": 126720,
      "d": 475,
      "v": 117
    },
    {
      "midi": 55,
      "hit": false,
      "t": 127200,
      "d": 475,
      "v": 125
    },
    {
      "midi": 60,
      "hit": false,
      "t": 127200,
      "d": 475,
      "v": 125
    },
    {
      "midi": 64,
      "hit": false,
      "t": 127200,
      "d": 475,
      "v": 125
    },
    {
      "midi": 43,
      "hit": false,
      "t": 127680,
      "d": 475,
      "v": 125
    },
    {
      "midi": 55,
      "hit": false,
      "t": 128160,
      "d": 475,
      "v": 125
    },
    {
      "midi": 60,
      "hit": false,
      "t": 128160,
      "d": 475,
      "v": 125
    },
    {
      "midi": 64,
      "hit": false,
      "t": 128160,
      "d": 475,
      "v": 125
    },
    {
      "midi": 48,
      "hit": false,
      "t": 128640,
      "d": 475,
      "v": 125
    },
    {
      "midi": 55,
      "hit": false,
      "t": 129120,
      "d": 475,
      "v": 125
    },
    {
      "midi": 60,
      "hit": false,
      "t": 129120,
      "d": 475,
      "v": 125
    },
    {
      "midi": 64,
      "hit": false,
      "t": 129120,
      "d": 475,
      "v": 125
    },
    {
      "midi": 43,
      "hit": false,
      "t": 129600,
      "d": 475,
      "v": 125
    },
    {
      "midi": 55,
      "hit": false,
      "t": 130080,
      "d": 475,
      "v": 125
    },
    {
      "midi": 60,
      "hit": false,
      "t": 130080,
      "d": 475,
      "v": 125
    },
    {
      "midi": 64,
      "hit": false,
      "t": 130080,
      "d": 475,
      "v": 125
    },
    {
      "midi": 41,
      "hit": false,
      "t": 130560,
      "d": 475,
      "v": 125
    },
    {
      "midi": 57,
      "hit": false,
      "t": 131040,
      "d": 475,
      "v": 125
    },
    {
      "midi": 60,
      "hit": false,
      "t": 131040,
      "d": 475,
      "v": 125
    },
    {
      "midi": 65,
      "hit": false,
      "t": 131040,
      "d": 475,
      "v": 125
    },
    {
      "midi": 48,
      "hit": false,
      "t": 131520,
      "d": 475,
      "v": 125
    },
    {
      "midi": 57,
      "hit": false,
      "t": 132000,
      "d": 475,
      "v": 125
    },
    {
      "midi": 60,
      "hit": false,
      "t": 132000,
      "d": 475,
      "v": 125
    },
    {
      "midi": 65,
      "hit": false,
      "t": 132000,
      "d": 475,
      "v": 125
    },
    {
      "midi": 41,
      "hit": false,
      "t": 132480,
      "d": 475,
      "v": 125
    },
    {
      "midi": 57,
      "hit": false,
      "t": 132960,
      "d": 475,
      "v": 125
    },
    {
      "midi": 60,
      "hit": false,
      "t": 132960,
      "d": 475,
      "v": 125
    },
    {
      "midi": 65,
      "hit": false,
      "t": 132960,
      "d": 475,
      "v": 125
    },
    {
      "midi": 48,
      "hit": false,
      "t": 133440,
      "d": 475,
      "v": 125
    },
    {
      "midi": 57,
      "hit": false,
      "t": 133920,
      "d": 475,
      "v": 125
    },
    {
      "midi": 60,
      "hit": false,
      "t": 133920,
      "d": 475,
      "v": 125
    },
    {
      "midi": 65,
      "hit": false,
      "t": 133920,
      "d": 475,
      "v": 125
    },
    {
      "midi": 43,
      "hit": false,
      "t": 134400,
      "d": 475,
      "v": 125
    },
    {
      "midi": 55,
      "hit": false,
      "t": 134880,
      "d": 475,
      "v": 125
    },
    {
      "midi": 59,
      "hit": false,
      "t": 134880,
      "d": 475,
      "v": 125
    },
    {
      "midi": 62,
      "hit": false,
      "t": 134880,
      "d": 475,
      "v": 125
    },
    {
      "midi": 50,
      "hit": false,
      "t": 135360,
      "d": 475,
      "v": 125
    },
    {
      "midi": 55,
      "hit": false,
      "t": 135840,
      "d": 475,
      "v": 125
    },
    {
      "midi": 59,
      "hit": false,
      "t": 135840,
      "d": 475,
      "v": 125
    },
    {
      "midi": 62,
      "hit": false,
      "t": 135840,
      "d": 475,
      "v": 125
    },
    {
      "midi": 43,
      "hit": false,
      "t": 136320,
      "d": 475,
      "v": 125
    },
    {
      "midi": 55,
      "hit": false,
      "t": 136800,
      "d": 475,
      "v": 125
    },
    {
      "midi": 59,
      "hit": false,
      "t": 136800,
      "d": 475,
      "v": 125
    },
    {
      "midi": 62,
      "hit": false,
      "t": 136800,
      "d": 475,
      "v": 125
    },
    {
      "midi": 50,
      "hit": false,
      "t": 137280,
      "d": 475,
      "v": 125
    },
    {
      "midi": 55,
      "hit": false,
      "t": 137760,
      "d": 475,
      "v": 125
    },
    {
      "midi": 59,
      "hit": false,
      "t": 137760,
      "d": 475,
      "v": 125
    },
    {
      "midi": 62,
      "hit": false,
      "t": 137760,
      "d": 475,
      "v": 125
    },
    {
      "midi": 48,
      "hit": false,
      "t": 138240,
      "d": 475,
      "v": 125
    },
    {
      "midi": 55,
      "hit": false,
      "t": 138720,
      "d": 475,
      "v": 125
    },
    {
      "midi": 60,
      "hit": false,
      "t": 138720,
      "d": 475,
      "v": 125
    },
    {
      "midi": 64,
      "hit": false,
      "t": 138720,
      "d": 475,
      "v": 125
    },
    {
      "midi": 43,
      "hit": false,
      "t": 139200,
      "d": 475,
      "v": 125
    },
    {
      "midi": 55,
      "hit": false,
      "t": 139680,
      "d": 475,
      "v": 125
    },
    {
      "midi": 60,
      "hit": false,
      "t": 139680,
      "d": 475,
      "v": 125
    },
    {
      "midi": 64,
      "hit": false,
      "t": 139680,
      "d": 475,
      "v": 125
    },
    {
      "midi": 48,
      "hit": false,
      "t": 140160,
      "d": 475,
      "v": 125
    },
    {
      "midi": 55,
      "hit": false,
      "t": 140640,
      "d": 475,
      "v": 125
    },
    {
      "midi": 60,
      "hit": false,
      "t": 140640,
      "d": 475,
      "v": 125
    },
    {
      "midi": 64,
      "hit": false,
      "t": 140640,
      "d": 475,
      "v": 125
    },
    {
      "midi": 47,
      "hit": false,
      "t": 141120,
      "d": 475,
      "v": 112
    },
    {
      "midi": 62,
      "hit": false,
      "t": 141120,
      "d": 475,
      "v": 110
    },
    {
      "midi": 45,
      "hit": false,
      "t": 141600,
      "d": 475,
      "v": 112
    },
    {
      "midi": 60,
      "hit": false,
      "t": 141600,
      "d": 475,
      "v": 123
    },
    {
      "midi": 43,
      "hit": false,
      "t": 142080,
      "d": 475,
      "v": 125
    },
    {
      "midi": 55,
      "hit": false,
      "t": 142560,
      "d": 475,
      "v": 125
    },
    {
      "midi": 59,
      "hit": false,
      "t": 142560,
      "d": 475,
      "v": 125
    },
    {
      "midi": 62,
      "hit": false,
      "t": 142560,
      "d": 475,
      "v": 125
    },
    {
      "midi": 50,
      "hit": false,
      "t": 143040,
      "d": 475,
      "v": 125
    },
    {
      "midi": 55,
      "hit": false,
      "t": 143520,
      "d": 475,
      "v": 125
    },
    {
      "midi": 59,
      "hit": false,
      "t": 143520,
      "d": 475,
      "v": 125
    },
    {
      "midi": 62,
      "hit": false,
      "t": 143520,
      "d": 475,
      "v": 125
    },
    {
      "midi": 43,
      "hit": false,
      "t": 144000,
      "d": 475,
      "v": 125
    },
    {
      "midi": 55,
      "hit": false,
      "t": 144480,
      "d": 475,
      "v": 125
    },
    {
      "midi": 59,
      "hit": false,
      "t": 144480,
      "d": 475,
      "v": 125
    },
    {
      "midi": 62,
      "hit": false,
      "t": 144480,
      "d": 475,
      "v": 125
    },
    {
      "midi": 50,
      "hit": false,
      "t": 144960,
      "d": 475,
      "v": 125
    },
    {
      "midi": 55,
      "hit": false,
      "t": 145440,
      "d": 475,
      "v": 125
    },
    {
      "midi": 59,
      "hit": false,
      "t": 145440,
      "d": 475,
      "v": 125
    },
    {
      "midi": 62,
      "hit": false,
      "t": 145440,
      "d": 475,
      "v": 125
    },
    {
      "midi": 48,
      "hit": false,
      "t": 145920,
      "d": 475,
      "v": 125
    },
    {
      "midi": 55,
      "hit": false,
      "t": 146400,
      "d": 475,
      "v": 125
    },
    {
      "midi": 60,
      "hit": false,
      "t": 146400,
      "d": 475,
      "v": 125
    },
    {
      "midi": 64,
      "hit": false,
      "t": 146400,
      "d": 475,
      "v": 125
    },
    {
      "midi": 43,
      "hit": false,
      "t": 146880,
      "d": 475,
      "v": 125
    },
    {
      "midi": 55,
      "hit": false,
      "t": 147360,
      "d": 475,
      "v": 125
    },
    {
      "midi": 60,
      "hit": false,
      "t": 147360,
      "d": 475,
      "v": 125
    },
    {
      "midi": 64,
      "hit": false,
      "t": 147360,
      "d": 475,
      "v": 125
    },
    {
      "midi": 48,
      "hit": false,
      "t": 147840,
      "d": 320,
      "v": 117
    },
    {
      "midi": 43,
      "hit": false,
      "t": 148320,
      "d": 155,
      "v": 99
    },
    {
      "midi": 63,
      "hit": false,
      "t": 148320,
      "d": 155,
      "v": 99
    },
    {
      "midi": 67,
      "hit": false,
      "t": 148320,
      "d": 155,
      "v": 110
    },
    {
      "midi": 71,
      "hit": false,
      "t": 148320,
      "d": 155,
      "v": 94
    },
    {
      "midi": 48,
      "hit": false,
      "t": 148640,
      "d": 2395,
      "v": 115
    },
    {
      "midi": 64,
      "hit": false,
      "t": 148640,
      "d": 2395,
      "v": 115
    },
    {
      "midi": 67,
      "hit": false,
      "t": 148640,
      "d": 2395,
      "v": 119
    },
    {
      "midi": 72,
      "hit": false,
      "t": 148640,
      "d": 2395,
      "v": 110
    }
  ]
}