{
  "jsonPath": "Rock/Christian Alternative Rock/Relient K/when-i-go-down-album-version.json",
  "path": "Rock\\Christian Alternative Rock\\Relient K\\When I Go Down (Album Version).mid",
  "name": "When I Go Down (Album Version)",
  "difficulty": "Advanced",
  "bpm": 120,
  "notes": [
    {
      "midi": 78,
      "hit": false,
      "t": 3566.6666666666665,
      "d": 899.9999999999995,
      "v": 71
    },
    {
      "midi": 50,
      "hit": false,
      "t": 3566.6666666666665,
      "d": 3133.3333333333326,
      "v": 66
    },
    {
      "midi": 57,
      "hit": false,
      "t": 3566.6666666666665,
      "d": 3349.9999999999995,
      "v": 41
    },
    {
      "midi": 69,
      "hit": false,
      "t": 3566.6666666666665,
      "d": 3349.9999999999995,
      "v": 79
    },
    {
      "midi": 74,
      "hit": false,
      "t": 4466.666666666666,
      "d": 883.333333333333,
      "v": 61
    },
    {
      "midi": 78,
      "hit": false,
      "t": 4466.666666666666,
      "d": 883.333333333333,
      "v": 34
    },
    {
      "midi": 76,
      "hit": false,
      "t": 5349.999999999999,
      "d": 900,
      "v": 63
    },
    {
      "midi": 78,
      "hit": false,
      "t": 5349.999999999999,
      "d": 1566.666666666667,
      "v": 56
    },
    {
      "midi": 74,
      "hit": false,
      "t": 6249.999999999999,
      "d": 666.666666666667,
      "v": 69
    },
    {
      "midi": 74,
      "hit": false,
      "t": 7149.999999999999,
      "d": 883.333333333333,
      "v": 69
    },
    {
      "midi": 78,
      "hit": false,
      "t": 7149.999999999999,
      "d": 1549.999999999999,
      "v": 64
    },
    {
      "midi": 71,
      "hit": false,
      "t": 7149.999999999999,
      "d": 1783.333333333333,
      "v": 66
    },
    {
      "midi": 47,
      "hit": false,
      "t": 7149.999999999999,
      "d": 3116.666666666665,
      "v": 62
    },
    {
      "midi": 74,
      "hit": false,
      "t": 8033.333333333332,
      "d": 450,
      "v": 45
    },
    {
      "midi": 71,
      "hit": false,
      "t": 8933.333333333332,
      "d": 666.6666666666661,
      "v": 38
    },
    {
      "midi": 73,
      "hit": false,
      "t": 8933.333333333332,
      "d": 666.6666666666661,
      "v": 68
    },
    {
      "midi": 78,
      "hit": false,
      "t": 8933.333333333332,
      "d": 1549.9999999999982,
      "v": 55
    },
    {
      "midi": 71,
      "hit": false,
      "t": 9816.666666666664,
      "d": 666.6666666666661,
      "v": 58
    },
    {
      "midi": 71,
      "hit": false,
      "t": 10716.666666666664,
      "d": 666.6666666666661,
      "v": 66
    },
    {
      "midi": 74,
      "hit": false,
      "t": 10716.666666666664,
      "d": 666.6666666666661,
      "v": 61
    },
    {
      "midi": 67,
      "hit": false,
      "t": 10716.666666666664,
      "d": 2683.333333333332,
      "v": 69
    },
    {
      "midi": 43,
      "hit": false,
      "t": 10716.666666666664,
      "d": 3116.666666666666,
      "v": 46
    },
    {
      "midi": 74,
      "hit": false,
      "t": 11599.999999999996,
      "d": 683.3333333333339,
      "v": 40
    },
    {
      "midi": 71,
      "hit": false,
      "t": 11599.999999999996,
      "d": 900,
      "v": 57
    },
    {
      "midi": 69,
      "hit": false,
      "t": 12499.999999999996,
      "d": 666.6666666666661,
      "v": 76
    },
    {
      "midi": 74,
      "hit": false,
      "t": 12499.999999999996,
      "d": 900,
      "v": 63
    },
    {
      "midi": 67,
      "hit": false,
      "t": 13399.999999999996,
      "d": 666.6666666666679,
      "v": 40
    },
    {
      "midi": 71,
      "hit": false,
      "t": 13399.999999999996,
      "d": 666.6666666666679,
      "v": 66
    },
    {
      "midi": 74,
      "hit": false,
      "t": 13399.999999999996,
      "d": 666.6666666666679,
      "v": 55
    },
    {
      "midi": 69,
      "hit": false,
      "t": 14283.33333333333,
      "d": 900,
      "v": 66
    },
    {
      "midi": 73,
      "hit": false,
      "t": 14283.33333333333,
      "d": 1333.333333333334,
      "v": 68
    },
    {
      "midi": 45,
      "hit": false,
      "t": 14283.33333333333,
      "d": 1566.6666666666679,
      "v": 67
    },
    {
      "midi": 69,
      "hit": false,
      "t": 15616.666666666664,
      "d": 450,
      "v": 38
    },
    {
      "midi": 74,
      "hit": false,
      "t": 16066.666666666664,
      "d": 666.6666666666679,
      "v": 82
    },
    {
      "midi": 76,
      "hit": false,
      "t": 16066.666666666664,
      "d": 666.6666666666679,
      "v": 66
    },
    {
      "midi": 45,
      "hit": false,
      "t": 16066.666666666664,
      "d": 1116.6666666666679,
      "v": 47
    },
    {
      "midi": 69,
      "hit": false,
      "t": 16066.666666666664,
      "d": 1783.3333333333358,
      "v": 53
    },
    {
      "midi": 76,
      "hit": false,
      "t": 16966.666666666664,
      "d": 666.6666666666679,
      "v": 82
    },
    {
      "midi": 74,
      "hit": false,
      "t": 17850,
      "d": 1566.6666666666679,
      "v": 68
    },
    {
      "midi": 78,
      "hit": false,
      "t": 17850,
      "d": 1783.3333333333358,
      "v": 71
    },
    {
      "midi": 50,
      "hit": false,
      "t": 17850,
      "d": 3133.3333333333358,
      "v": 57
    },
    {
      "midi": 57,
      "hit": false,
      "t": 17850,
      "d": 3133.3333333333358,
      "v": 32
    },
    {
      "midi": 69,
      "hit": false,
      "t": 17850,
      "d": 3350.0000000000036,
      "v": 52
    },
    {
      "midi": 78,
      "hit": false,
      "t": 19633.333333333336,
      "d": 683.3333333333321,
      "v": 55
    },
    {
      "midi": 76,
      "hit": false,
      "t": 19633.333333333336,
      "d": 900,
      "v": 68
    },
    {
      "midi": 78,
      "hit": false,
      "t": 20533.333333333336,
      "d": 900,
      "v": 56
    },
    {
      "midi": 74,
      "hit": false,
      "t": 21433.333333333336,
      "d": 1333.3333333333321,
      "v": 67
    },
    {
      "midi": 47,
      "hit": false,
      "t": 21433.333333333336,
      "d": 1783.3333333333321,
      "v": 58
    },
    {
      "midi": 78,
      "hit": false,
      "t": 21433.333333333336,
      "d": 3349.9999999999964,
      "v": 61
    },
    {
      "midi": 71,
      "hit": false,
      "t": 22766.666666666668,
      "d": 1333.3333333333321,
      "v": 52
    },
    {
      "midi": 73,
      "hit": false,
      "t": 23216.666666666668,
      "d": 883.3333333333321,
      "v": 82
    },
    {
      "midi": 47,
      "hit": false,
      "t": 23216.666666666668,
      "d": 1333.3333333333321,
      "v": 55
    },
    {
      "midi": 71,
      "hit": false,
      "t": 24100,
      "d": 233.33333333333212,
      "v": 28
    },
    {
      "midi": 74,
      "hit": false,
      "t": 24100,
      "d": 683.3333333333321,
      "v": 79
    },
    {
      "midi": 67,
      "hit": false,
      "t": 25000,
      "d": 1116.6666666666679,
      "v": 64
    },
    {
      "midi": 71,
      "hit": false,
      "t": 25000,
      "d": 1566.6666666666679,
      "v": 69
    },
    {
      "midi": 74,
      "hit": false,
      "t": 25000,
      "d": 1783.3333333333358,
      "v": 64
    },
    {
      "midi": 43,
      "hit": false,
      "t": 25000,
      "d": 3116.666666666668,
      "v": 57
    },
    {
      "midi": 67,
      "hit": false,
      "t": 26333.333333333336,
      "d": 2016.6666666666642,
      "v": 41
    },
    {
      "midi": 73,
      "hit": false,
      "t": 26783.333333333336,
      "d": 900,
      "v": 87
    },
    {
      "midi": 74,
      "hit": false,
      "t": 26783.333333333336,
      "d": 900,
      "v": 35
    },
    {
      "midi": 74,
      "hit": false,
      "t": 27683.333333333336,
      "d": 666.6666666666642,
      "v": 67
    },
    {
      "midi": 69,
      "hit": false,
      "t": 28566.666666666668,
      "d": 1350,
      "v": 62
    },
    {
      "midi": 73,
      "hit": false,
      "t": 28566.666666666668,
      "d": 1350,
      "v": 64
    },
    {
      "midi": 45,
      "hit": false,
      "t": 28566.666666666668,
      "d": 1783.3333333333321,
      "v": 60
    },
    {
      "midi": 76,
      "hit": false,
      "t": 28566.666666666668,
      "d": 1783.3333333333321,
      "v": 64
    },
    {
      "midi": 69,
      "hit": false,
      "t": 29916.666666666668,
      "d": 2000,
      "v": 52
    },
    {
      "midi": 73,
      "hit": false,
      "t": 30350,
      "d": 900,
      "v": 66
    },
    {
      "midi": 76,
      "hit": false,
      "t": 30350,
      "d": 900,
      "v": 82
    },
    {
      "midi": 45,
      "hit": false,
      "t": 30350,
      "d": 1350,
      "v": 27
    },
    {
      "midi": 76,
      "hit": false,
      "t": 31250,
      "d": 450,
      "v": 69
    },
    {
      "midi": 69,
      "hit": false,
      "t": 32133.333333333336,
      "d": 1116.6666666666642,
      "v": 62
    },
    {
      "midi": 74,
      "hit": false,
      "t": 32133.333333333336,
      "d": 1350,
      "v": 66
    },
    {
      "midi": 50,
      "hit": false,
      "t": 32133.333333333336,
      "d": 1800,
      "v": 58
    },
    {
      "midi": 78,
      "hit": false,
      "t": 32133.333333333336,
      "d": 1800,
      "v": 62
    },
    {
      "midi": 76,
      "hit": false,
      "t": 33483.333333333336,
      "d": 216.66666666666424,
      "v": 31
    },
    {
      "midi": 69,
      "hit": false,
      "t": 33483.333333333336,
      "d": 1566.6666666666715,
      "v": 47
    },
    {
      "midi": 74,
      "hit": false,
      "t": 33933.333333333336,
      "d": 883.3333333333358,
      "v": 68
    },
    {
      "midi": 50,
      "hit": false,
      "t": 33933.333333333336,
      "d": 1116.6666666666715,
      "v": 55
    },
    {
      "midi": 78,
      "hit": false,
      "t": 33933.333333333336,
      "d": 1116.6666666666715,
      "v": 53
    },
    {
      "midi": 57,
      "hit": false,
      "t": 35716.66666666667,
      "d": 666.6666666666642,
      "v": 71
    },
    {
      "midi": 62,
      "hit": false,
      "t": 35716.66666666667,
      "d": 666.6666666666642,
      "v": 66
    },
    {
      "midi": 66,
      "hit": false,
      "t": 35716.66666666667,
      "d": 666.6666666666642,
      "v": 55
    },
    {
      "midi": 50,
      "hit": false,
      "t": 35716.66666666667,
      "d": 2666.666666666657,
      "v": 52
    },
    {
      "midi": 54,
      "hit": false,
      "t": 35716.66666666667,
      "d": 2899.9999999999927,
      "v": 55
    },
    {
      "midi": 57,
      "hit": false,
      "t": 36600,
      "d": 666.6666666666642,
      "v": 22
    },
    {
      "midi": 62,
      "hit": false,
      "t": 36600,
      "d": 666.6666666666642,
      "v": 68
    },
    {
      "midi": 66,
      "hit": false,
      "t": 36600,
      "d": 666.6666666666642,
      "v": 66
    },
    {
      "midi": 57,
      "hit": false,
      "t": 37500,
      "d": 666.6666666666642,
      "v": 52
    },
    {
      "midi": 62,
      "hit": false,
      "t": 37500,
      "d": 666.6666666666642,
      "v": 67
    },
    {
      "midi": 66,
      "hit": false,
      "t": 37500,
      "d": 666.6666666666642,
      "v": 64
    },
    {
      "midi": 57,
      "hit": false,
      "t": 38383.33333333333,
      "d": 233.33333333333576,
      "v": 56
    },
    {
      "midi": 62,
      "hit": false,
      "t": 38383.33333333333,
      "d": 450,
      "v": 71
    },
    {
      "midi": 66,
      "hit": false,
      "t": 38383.33333333333,
      "d": 450,
      "v": 67
    },
    {
      "midi": 57,
      "hit": false,
      "t": 38833.33333333333,
      "d": 233.33333333333576,
      "v": 37
    },
    {
      "midi": 57,
      "hit": false,
      "t": 39283.33333333333,
      "d": 900,
      "v": 66
    },
    {
      "midi": 61,
      "hit": false,
      "t": 39283.33333333333,
      "d": 900,
      "v": 79
    },
    {
      "midi": 64,
      "hit": false,
      "t": 39283.33333333333,
      "d": 900,
      "v": 67
    },
    {
      "midi": 45,
      "hit": false,
      "t": 39283.33333333333,
      "d": 3116.666666666679,
      "v": 48
    },
    {
      "midi": 52,
      "hit": false,
      "t": 39283.33333333333,
      "d": 3116.666666666679,
      "v": 37
    },
    {
      "midi": 57,
      "hit": false,
      "t": 40183.33333333333,
      "d": 883.3333333333358,
      "v": 51
    },
    {
      "midi": 61,
      "hit": false,
      "t": 40183.33333333333,
      "d": 883.3333333333358,
      "v": 56
    },
    {
      "midi": 64,
      "hit": false,
      "t": 40183.33333333333,
      "d": 883.3333333333358,
      "v": 68
    },
    {
      "midi": 57,
      "hit": false,
      "t": 41066.666666666664,
      "d": 233.33333333333576,
      "v": 29
    },
    {
      "midi": 61,
      "hit": false,
      "t": 41066.666666666664,
      "d": 666.6666666666715,
      "v": 66
    },
    {
      "midi": 64,
      "hit": false,
      "t": 41066.666666666664,
      "d": 666.6666666666715,
      "v": 66
    },
    {
      "midi": 64,
      "hit": false,
      "t": 41966.66666666667,
      "d": 433.33333333333576,
      "v": 67
    },
    {
      "midi": 57,
      "hit": false,
      "t": 41966.66666666667,
      "d": 666.6666666666715,
      "v": 61
    },
    {
      "midi": 61,
      "hit": false,
      "t": 41966.66666666667,
      "d": 666.6666666666715,
      "v": 73
    },
    {
      "midi": 59,
      "hit": false,
      "t": 42850.00000000001,
      "d": 666.6666666666642,
      "v": 68
    },
    {
      "midi": 62,
      "hit": false,
      "t": 42850.00000000001,
      "d": 666.6666666666642,
      "v": 61
    },
    {
      "midi": 55,
      "hit": false,
      "t": 42850.00000000001,
      "d": 900,
      "v": 68
    },
    {
      "midi": 43,
      "hit": false,
      "t": 42850.00000000001,
      "d": 3133.3333333333285,
      "v": 42
    },
    {
      "midi": 50,
      "hit": false,
      "t": 42850.00000000001,
      "d": 3583.3333333333285,
      "v": 48
    },
    {
      "midi": 55,
      "hit": false,
      "t": 43750.00000000001,
      "d": 666.6666666666642,
      "v": 40
    },
    {
      "midi": 59,
      "hit": false,
      "t": 43750.00000000001,
      "d": 666.6666666666642,
      "v": 68
    },
    {
      "midi": 62,
      "hit": false,
      "t": 43750.00000000001,
      "d": 666.6666666666642,
      "v": 66
    },
    {
      "midi": 55,
      "hit": false,
      "t": 44633.333333333336,
      "d": 683.3333333333358,
      "v": 47
    },
    {
      "midi": 59,
      "hit": false,
      "t": 44633.333333333336,
      "d": 683.3333333333358,
      "v": 62
    },
    {
      "midi": 62,
      "hit": false,
      "t": 44633.333333333336,
      "d": 683.3333333333358,
      "v": 63
    },
    {
      "midi": 55,
      "hit": false,
      "t": 45533.333333333336,
      "d": 216.66666666666424,
      "v": 52
    },
    {
      "midi": 59,
      "hit": false,
      "t": 45533.333333333336,
      "d": 450,
      "v": 67
    },
    {
      "midi": 62,
      "hit": false,
      "t": 45533.333333333336,
      "d": 450,
      "v": 63
    },
    {
      "midi": 57,
      "hit": false,
      "t": 45983.333333333336,
      "d": 216.66666666666424,
      "v": 45
    },
    {
      "midi": 57,
      "hit": false,
      "t": 46433.333333333336,
      "d": 666.6666666666642,
      "v": 47
    },
    {
      "midi": 64,
      "hit": false,
      "t": 46433.333333333336,
      "d": 666.6666666666642,
      "v": 66
    },
    {
      "midi": 61,
      "hit": false,
      "t": 46433.333333333336,
      "d": 883.3333333333285,
      "v": 67
    },
    {
      "midi": 42,
      "hit": false,
      "t": 46433.333333333336,
      "d": 3116.666666666657,
      "v": 46
    },
    {
      "midi": 57,
      "hit": false,
      "t": 47316.666666666664,
      "d": 666.6666666666642,
      "v": 46
    },
    {
      "midi": 61,
      "hit": false,
      "t": 47316.666666666664,
      "d": 666.6666666666642,
      "v": 51
    },
    {
      "midi": 64,
      "hit": false,
      "t": 47316.666666666664,
      "d": 666.6666666666642,
      "v": 57
    },
    {
      "midi": 57,
      "hit": false,
      "t": 48216.666666666664,
      "d": 666.6666666666642,
      "v": 63
    },
    {
      "midi": 61,
      "hit": false,
      "t": 48216.666666666664,
      "d": 666.6666666666642,
      "v": 71
    },
    {
      "midi": 64,
      "hit": false,
      "t": 48216.666666666664,
      "d": 666.6666666666642,
      "v": 63
    },
    {
      "midi": 64,
      "hit": false,
      "t": 49099.99999999999,
      "d": 450,
      "v": 67
    },
    {
      "midi": 57,
      "hit": false,
      "t": 49099.99999999999,
      "d": 666.6666666666642,
      "v": 58
    },
    {
      "midi": 61,
      "hit": false,
      "t": 49099.99999999999,
      "d": 666.6666666666642,
      "v": 62
    },
    {
      "midi": 59,
      "hit": false,
      "t": 49999.99999999999,
      "d": 666.6666666666642,
      "v": 66
    },
    {
      "midi": 62,
      "hit": false,
      "t": 49999.99999999999,
      "d": 666.6666666666642,
      "v": 66
    },
    {
      "midi": 55,
      "hit": false,
      "t": 49999.99999999999,
      "d": 883.3333333333285,
      "v": 61
    },
    {
      "midi": 40,
      "hit": false,
      "t": 49999.99999999999,
      "d": 3116.6666666666642,
      "v": 53
    },
    {
      "midi": 55,
      "hit": false,
      "t": 50883.33333333332,
      "d": 683.3333333333358,
      "v": 57
    },
    {
      "midi": 59,
      "hit": false,
      "t": 50883.33333333332,
      "d": 683.3333333333358,
      "v": 64
    },
    {
      "midi": 62,
      "hit": false,
      "t": 50883.33333333332,
      "d": 683.3333333333358,
      "v": 67
    },
    {
      "midi": 55,
      "hit": false,
      "t": 51783.33333333332,
      "d": 666.6666666666642,
      "v": 41
    },
    {
      "midi": 59,
      "hit": false,
      "t": 51783.33333333332,
      "d": 666.6666666666642,
      "v": 56
    },
    {
      "midi": 62,
      "hit": false,
      "t": 51783.33333333332,
      "d": 666.6666666666642,
      "v": 61
    },
    {
      "midi": 55,
      "hit": false,
      "t": 52683.33333333332,
      "d": 666.6666666666715,
      "v": 55
    },
    {
      "midi": 59,
      "hit": false,
      "t": 52683.33333333332,
      "d": 666.6666666666715,
      "v": 57
    },
    {
      "midi": 62,
      "hit": false,
      "t": 52683.33333333332,
      "d": 666.6666666666715,
      "v": 60
    },
    {
      "midi": 43,
      "hit": false,
      "t": 53566.66666666666,
      "d": 450,
      "v": 53
    },
    {
      "midi": 55,
      "hit": false,
      "t": 53566.66666666666,
      "d": 666.6666666666642,
      "v": 68
    },
    {
      "midi": 59,
      "hit": false,
      "t": 53566.66666666666,
      "d": 666.6666666666642,
      "v": 73
    },
    {
      "midi": 62,
      "hit": false,
      "t": 53566.66666666666,
      "d": 666.6666666666642,
      "v": 66
    },
    {
      "midi": 57,
      "hit": false,
      "t": 54466.66666666666,
      "d": 666.6666666666642,
      "v": 79
    },
    {
      "midi": 62,
      "hit": false,
      "t": 54466.66666666666,
      "d": 666.6666666666642,
      "v": 67
    },
    {
      "midi": 42,
      "hit": false,
      "t": 54466.66666666666,
      "d": 2233.3333333333285,
      "v": 57
    },
    {
      "midi": 54,
      "hit": false,
      "t": 55349.999999999985,
      "d": 666.6666666666642,
      "v": 41
    },
    {
      "midi": 57,
      "hit": false,
      "t": 55349.999999999985,
      "d": 666.6666666666642,
      "v": 57
    },
    {
      "midi": 62,
      "hit": false,
      "t": 55349.999999999985,
      "d": 666.6666666666642,
      "v": 56
    },
    {
      "midi": 54,
      "hit": false,
      "t": 56249.999999999985,
      "d": 216.66666666666424,
      "v": 62
    },
    {
      "midi": 57,
      "hit": false,
      "t": 56249.999999999985,
      "d": 666.6666666666642,
      "v": 63
    },
    {
      "midi": 62,
      "hit": false,
      "t": 56249.999999999985,
      "d": 666.6666666666642,
      "v": 57
    },
    {
      "midi": 55,
      "hit": false,
      "t": 57133.333333333314,
      "d": 683.3333333333358,
      "v": 56
    },
    {
      "midi": 59,
      "hit": false,
      "t": 57133.333333333314,
      "d": 683.3333333333358,
      "v": 57
    },
    {
      "midi": 62,
      "hit": false,
      "t": 57133.333333333314,
      "d": 683.3333333333358,
      "v": 64
    },
    {
      "midi": 40,
      "hit": false,
      "t": 57133.333333333314,
      "d": 3133.3333333333285,
      "v": 46
    },
    {
      "midi": 55,
      "hit": false,
      "t": 58033.333333333314,
      "d": 666.6666666666642,
      "v": 56
    },
    {
      "midi": 59,
      "hit": false,
      "t": 58033.333333333314,
      "d": 666.6666666666642,
      "v": 55
    },
    {
      "midi": 62,
      "hit": false,
      "t": 58033.333333333314,
      "d": 666.6666666666642,
      "v": 57
    },
    {
      "midi": 55,
      "hit": false,
      "t": 58916.66666666664,
      "d": 683.3333333333358,
      "v": 56
    },
    {
      "midi": 59,
      "hit": false,
      "t": 58916.66666666664,
      "d": 683.3333333333358,
      "v": 62
    },
    {
      "midi": 62,
      "hit": false,
      "t": 58916.66666666664,
      "d": 683.3333333333358,
      "v": 66
    },
    {
      "midi": 55,
      "hit": false,
      "t": 59816.66666666664,
      "d": 216.66666666666424,
      "v": 48
    },
    {
      "midi": 59,
      "hit": false,
      "t": 59816.66666666664,
      "d": 450,
      "v": 53
    },
    {
      "midi": 62,
      "hit": false,
      "t": 59816.66666666664,
      "d": 450,
      "v": 60
    },
    {
      "midi": 57,
      "hit": false,
      "t": 60266.66666666664,
      "d": 216.66666666666424,
      "v": 38
    },
    {
      "midi": 61,
      "hit": false,
      "t": 60716.66666666664,
      "d": 666.6666666666642,
      "v": 66
    },
    {
      "midi": 42,
      "hit": false,
      "t": 60716.66666666664,
      "d": 1333.3333333333285,
      "v": 36
    },
    {
      "midi": 57,
      "hit": false,
      "t": 60716.66666666664,
      "d": 1783.3333333333285,
      "v": 50
    },
    {
      "midi": 64,
      "hit": false,
      "t": 61599.99999999997,
      "d": 666.6666666666642,
      "v": 66
    },
    {
      "midi": 61,
      "hit": false,
      "t": 62049.99999999997,
      "d": 450,
      "v": 43
    },
    {
      "midi": 57,
      "hit": false,
      "t": 62499.99999999997,
      "d": 883.3333333333358,
      "v": 57
    },
    {
      "midi": 61,
      "hit": false,
      "t": 62499.99999999997,
      "d": 883.3333333333358,
      "v": 57
    },
    {
      "midi": 64,
      "hit": false,
      "t": 62499.99999999997,
      "d": 883.3333333333358,
      "v": 68
    },
    {
      "midi": 57,
      "hit": false,
      "t": 63383.33333333331,
      "d": 450,
      "v": 41
    },
    {
      "midi": 61,
      "hit": false,
      "t": 63383.33333333331,
      "d": 450,
      "v": 53
    },
    {
      "midi": 64,
      "hit": false,
      "t": 63383.33333333331,
      "d": 450,
      "v": 53
    },
    {
      "midi": 57,
      "hit": false,
      "t": 63833.33333333331,
      "d": 233.33333333333576,
      "v": 13
    },
    {
      "midi": 57,
      "hit": false,
      "t": 64283.33333333331,
      "d": 666.6666666666642,
      "v": 71
    },
    {
      "midi": 62,
      "hit": false,
      "t": 64283.33333333331,
      "d": 666.6666666666642,
      "v": 66
    },
    {
      "midi": 66,
      "hit": false,
      "t": 64283.33333333331,
      "d": 666.6666666666642,
      "v": 55
    },
    {
      "midi": 50,
      "hit": false,
      "t": 64283.33333333331,
      "d": 2683.3333333333358,
      "v": 52
    },
    {
      "midi": 54,
      "hit": false,
      "t": 64283.33333333331,
      "d": 2900.0000000000073,
      "v": 55
    },
    {
      "midi": 57,
      "hit": false,
      "t": 65166.666666666635,
      "d": 683.3333333333358,
      "v": 22
    },
    {
      "midi": 62,
      "hit": false,
      "t": 65166.666666666635,
      "d": 683.3333333333358,
      "v": 68
    },
    {
      "midi": 66,
      "hit": false,
      "t": 65166.666666666635,
      "d": 683.3333333333358,
      "v": 66
    },
    {
      "midi": 57,
      "hit": false,
      "t": 66066.66666666664,
      "d": 666.6666666666715,
      "v": 52
    },
    {
      "midi": 62,
      "hit": false,
      "t": 66066.66666666664,
      "d": 666.6666666666715,
      "v": 67
    },
    {
      "midi": 66,
      "hit": false,
      "t": 66066.66666666664,
      "d": 666.6666666666715,
      "v": 64
    },
    {
      "midi": 57,
      "hit": false,
      "t": 66966.66666666664,
      "d": 216.66666666667152,
      "v": 56
    },
    {
      "midi": 62,
      "hit": false,
      "t": 66966.66666666664,
      "d": 433.33333333334303,
      "v": 71
    },
    {
      "midi": 66,
      "hit": false,
      "t": 66966.66666666664,
      "d": 433.33333333334303,
      "v": 67
    },
    {
      "midi": 57,
      "hit": false,
      "t": 67399.99999999999,
      "d": 233.33333333332848,
      "v": 37
    },
    {
      "midi": 57,
      "hit": false,
      "t": 67849.99999999999,
      "d": 900,
      "v": 66
    },
    {
      "midi": 61,
      "hit": false,
      "t": 67849.99999999999,
      "d": 900,
      "v": 79
    },
    {
      "midi": 64,
      "hit": false,
      "t": 67849.99999999999,
      "d": 900,
      "v": 67
    },
    {
      "midi": 45,
      "hit": false,
      "t": 67849.99999999999,
      "d": 3133.333333333314,
      "v": 48
    },
    {
      "midi": 52,
      "hit": false,
      "t": 67849.99999999999,
      "d": 3133.333333333314,
      "v": 37
    },
    {
      "midi": 57,
      "hit": false,
      "t": 68749.99999999999,
      "d": 883.3333333333285,
      "v": 51
    },
    {
      "midi": 61,
      "hit": false,
      "t": 68749.99999999999,
      "d": 883.3333333333285,
      "v": 56
    },
    {
      "midi": 64,
      "hit": false,
      "t": 68749.99999999999,
      "d": 883.3333333333285,
      "v": 68
    },
    {
      "midi": 57,
      "hit": false,
      "t": 69633.33333333331,
      "d": 233.33333333332848,
      "v": 29
    },
    {
      "midi": 61,
      "hit": false,
      "t": 69633.33333333331,
      "d": 666.666666666657,
      "v": 66
    },
    {
      "midi": 64,
      "hit": false,
      "t": 69633.33333333331,
      "d": 666.666666666657,
      "v": 66
    },
    {
      "midi": 64,
      "hit": false,
      "t": 70533.3333333333,
      "d": 450,
      "v": 67
    },
    {
      "midi": 57,
      "hit": false,
      "t": 70533.3333333333,
      "d": 666.6666666666715,
      "v": 61
    },
    {
      "midi": 61,
      "hit": false,
      "t": 70533.3333333333,
      "d": 666.6666666666715,
      "v": 73
    },
    {
      "midi": 59,
      "hit": false,
      "t": 71416.66666666664,
      "d": 683.3333333333285,
      "v": 68
    },
    {
      "midi": 62,
      "hit": false,
      "t": 71416.66666666664,
      "d": 683.3333333333285,
      "v": 61
    },
    {
      "midi": 55,
      "hit": false,
      "t": 71416.66666666664,
      "d": 900,
      "v": 68
    },
    {
      "midi": 43,
      "hit": false,
      "t": 71416.66666666664,
      "d": 3133.333333333343,
      "v": 42
    },
    {
      "midi": 50,
      "hit": false,
      "t": 71416.66666666664,
      "d": 3583.333333333343,
      "v": 48
    },
    {
      "midi": 55,
      "hit": false,
      "t": 72316.66666666664,
      "d": 666.6666666666715,
      "v": 40
    },
    {
      "midi": 59,
      "hit": false,
      "t": 72316.66666666664,
      "d": 666.6666666666715,
      "v": 68
    },
    {
      "midi": 62,
      "hit": false,
      "t": 72316.66666666664,
      "d": 666.6666666666715,
      "v": 66
    },
    {
      "midi": 55,
      "hit": false,
      "t": 73216.66666666664,
      "d": 666.6666666666715,
      "v": 47
    },
    {
      "midi": 59,
      "hit": false,
      "t": 73216.66666666664,
      "d": 666.6666666666715,
      "v": 62
    },
    {
      "midi": 62,
      "hit": false,
      "t": 73216.66666666664,
      "d": 666.6666666666715,
      "v": 63
    },
    {
      "midi": 55,
      "hit": false,
      "t": 74099.99999999999,
      "d": 233.33333333332848,
      "v": 52
    },
    {
      "midi": 59,
      "hit": false,
      "t": 74099.99999999999,
      "d": 450,
      "v": 67
    },
    {
      "midi": 62,
      "hit": false,
      "t": 74099.99999999999,
      "d": 450,
      "v": 63
    },
    {
      "midi": 57,
      "hit": false,
      "t": 74549.99999999999,
      "d": 216.66666666667152,
      "v": 45
    },
    {
      "midi": 57,
      "hit": false,
      "t": 74999.99999999999,
      "d": 666.6666666666715,
      "v": 47
    },
    {
      "midi": 64,
      "hit": false,
      "t": 74999.99999999999,
      "d": 666.6666666666715,
      "v": 66
    },
    {
      "midi": 61,
      "hit": false,
      "t": 74999.99999999999,
      "d": 883.333333333343,
      "v": 67
    },
    {
      "midi": 42,
      "hit": false,
      "t": 74999.99999999999,
      "d": 3116.666666666686,
      "v": 46
    },
    {
      "midi": 57,
      "hit": false,
      "t": 75883.33333333333,
      "d": 666.6666666666715,
      "v": 46
    },
    {
      "midi": 61,
      "hit": false,
      "t": 75883.33333333333,
      "d": 666.6666666666715,
      "v": 51
    },
    {
      "midi": 64,
      "hit": false,
      "t": 75883.33333333333,
      "d": 666.6666666666715,
      "v": 57
    },
    {
      "midi": 57,
      "hit": false,
      "t": 76783.33333333333,
      "d": 666.6666666666715,
      "v": 63
    },
    {
      "midi": 61,
      "hit": false,
      "t": 76783.33333333333,
      "d": 666.6666666666715,
      "v": 71
    },
    {
      "midi": 64,
      "hit": false,
      "t": 76783.33333333333,
      "d": 666.6666666666715,
      "v": 63
    },
    {
      "midi": 64,
      "hit": false,
      "t": 77666.66666666667,
      "d": 450,
      "v": 67
    },
    {
      "midi": 57,
      "hit": false,
      "t": 77666.66666666667,
      "d": 683.3333333333285,
      "v": 58
    },
    {
      "midi": 61,
      "hit": false,
      "t": 77666.66666666667,
      "d": 683.3333333333285,
      "v": 62
    },
    {
      "midi": 59,
      "hit": false,
      "t": 78566.66666666667,
      "d": 666.6666666666715,
      "v": 66
    },
    {
      "midi": 62,
      "hit": false,
      "t": 78566.66666666667,
      "d": 666.6666666666715,
      "v": 66
    },
    {
      "midi": 55,
      "hit": false,
      "t": 78566.66666666667,
      "d": 900,
      "v": 61
    },
    {
      "midi": 40,
      "hit": false,
      "t": 78566.66666666667,
      "d": 3116.6666666666715,
      "v": 53
    },
    {
      "midi": 55,
      "hit": false,
      "t": 79466.66666666667,
      "d": 666.6666666666715,
      "v": 57
    },
    {
      "midi": 59,
      "hit": false,
      "t": 79466.66666666667,
      "d": 666.6666666666715,
      "v": 64
    },
    {
      "midi": 62,
      "hit": false,
      "t": 79466.66666666667,
      "d": 666.6666666666715,
      "v": 67
    },
    {
      "midi": 55,
      "hit": false,
      "t": 80350.00000000001,
      "d": 666.6666666666715,
      "v": 41
    },
    {
      "midi": 59,
      "hit": false,
      "t": 80350.00000000001,
      "d": 666.6666666666715,
      "v": 56
    },
    {
      "midi": 62,
      "hit": false,
      "t": 80350.00000000001,
      "d": 666.6666666666715,
      "v": 61
    },
    {
      "midi": 55,
      "hit": false,
      "t": 81250.00000000001,
      "d": 666.666666666657,
      "v": 55
    },
    {
      "midi": 59,
      "hit": false,
      "t": 81250.00000000001,
      "d": 666.666666666657,
      "v": 57
    },
    {
      "midi": 62,
      "hit": false,
      "t": 81250.00000000001,
      "d": 666.666666666657,
      "v": 60
    },
    {
      "midi": 43,
      "hit": false,
      "t": 82133.33333333334,
      "d": 450,
      "v": 53
    },
    {
      "midi": 55,
      "hit": false,
      "t": 82133.33333333334,
      "d": 666.6666666666715,
      "v": 68
    },
    {
      "midi": 59,
      "hit": false,
      "t": 82133.33333333334,
      "d": 666.6666666666715,
      "v": 73
    },
    {
      "midi": 62,
      "hit": false,
      "t": 82133.33333333334,
      "d": 666.6666666666715,
      "v": 66
    },
    {
      "midi": 57,
      "hit": false,
      "t": 83033.33333333334,
      "d": 666.6666666666715,
      "v": 79
    },
    {
      "midi": 62,
      "hit": false,
      "t": 83033.33333333334,
      "d": 666.6666666666715,
      "v": 67
    },
    {
      "midi": 42,
      "hit": false,
      "t": 83033.33333333334,
      "d": 2233.333333333343,
      "v": 57
    },
    {
      "midi": 54,
      "hit": false,
      "t": 83916.66666666669,
      "d": 683.3333333333285,
      "v": 41
    },
    {
      "midi": 57,
      "hit": false,
      "t": 83916.66666666669,
      "d": 683.3333333333285,
      "v": 57
    },
    {
      "midi": 62,
      "hit": false,
      "t": 83916.66666666669,
      "d": 683.3333333333285,
      "v": 56
    },
    {
      "midi": 54,
      "hit": false,
      "t": 84816.66666666669,
      "d": 216.66666666667152,
      "v": 62
    },
    {
      "midi": 57,
      "hit": false,
      "t": 84816.66666666669,
      "d": 666.6666666666715,
      "v": 63
    },
    {
      "midi": 62,
      "hit": false,
      "t": 84816.66666666669,
      "d": 666.6666666666715,
      "v": 57
    },
    {
      "midi": 55,
      "hit": false,
      "t": 85716.66666666669,
      "d": 883.3333333333285,
      "v": 64
    },
    {
      "midi": 59,
      "hit": false,
      "t": 85716.66666666669,
      "d": 883.3333333333285,
      "v": 64
    },
    {
      "midi": 64,
      "hit": false,
      "t": 85716.66666666669,
      "d": 883.3333333333285,
      "v": 64
    },
    {
      "midi": 40,
      "hit": false,
      "t": 85716.66666666669,
      "d": 1100,
      "v": 45
    },
    {
      "midi": 55,
      "hit": false,
      "t": 86600.00000000001,
      "d": 450,
      "v": 53
    },
    {
      "midi": 59,
      "hit": false,
      "t": 86600.00000000001,
      "d": 666.6666666666715,
      "v": 60
    },
    {
      "midi": 64,
      "hit": false,
      "t": 86600.00000000001,
      "d": 666.6666666666715,
      "v": 66
    },
    {
      "midi": 57,
      "hit": false,
      "t": 87500.00000000001,
      "d": 666.6666666666715,
      "v": 53
    },
    {
      "midi": 61,
      "hit": false,
      "t": 87500.00000000001,
      "d": 666.6666666666715,
      "v": 66
    },
    {
      "midi": 64,
      "hit": false,
      "t": 87500.00000000001,
      "d": 666.6666666666715,
      "v": 61
    },
    {
      "midi": 45,
      "hit": false,
      "t": 87500.00000000001,
      "d": 1550.0000000000146,
      "v": 43
    },
    {
      "midi": 57,
      "hit": false,
      "t": 88383.33333333336,
      "d": 233.33333333332848,
      "v": 43
    },
    {
      "midi": 61,
      "hit": false,
      "t": 88383.33333333336,
      "d": 450,
      "v": 76
    },
    {
      "midi": 64,
      "hit": false,
      "t": 88383.33333333336,
      "d": 450,
      "v": 64
    },
    {
      "midi": 57,
      "hit": false,
      "t": 88833.33333333336,
      "d": 216.66666666667152,
      "v": 47
    },
    {
      "midi": 57,
      "hit": false,
      "t": 89283.33333333336,
      "d": 883.3333333333285,
      "v": 66
    },
    {
      "midi": 62,
      "hit": false,
      "t": 89283.33333333336,
      "d": 883.3333333333285,
      "v": 66
    },
    {
      "midi": 66,
      "hit": false,
      "t": 89283.33333333336,
      "d": 883.3333333333285,
      "v": 63
    },
    {
      "midi": 50,
      "hit": false,
      "t": 89283.33333333336,
      "d": 1333.3333333333285,
      "v": 57
    },
    {
      "midi": 57,
      "hit": false,
      "t": 90166.66666666669,
      "d": 450,
      "v": 27
    },
    {
      "midi": 62,
      "hit": false,
      "t": 90166.66666666669,
      "d": 450,
      "v": 57
    },
    {
      "midi": 66,
      "hit": false,
      "t": 90166.66666666669,
      "d": 683.3333333333285,
      "v": 60
    },
    {
      "midi": 57,
      "hit": false,
      "t": 90616.66666666669,
      "d": 233.33333333332848,
      "v": 45
    },
    {
      "midi": 57,
      "hit": false,
      "t": 90850.00000000001,
      "d": 216.66666666667152,
      "v": 34
    },
    {
      "midi": 61,
      "hit": false,
      "t": 91066.66666666669,
      "d": 900,
      "v": 73
    },
    {
      "midi": 57,
      "hit": false,
      "t": 91066.66666666669,
      "d": 1333.3333333333285,
      "v": 68
    },
    {
      "midi": 64,
      "hit": false,
      "t": 91066.66666666669,
      "d": 1333.3333333333285,
      "v": 66
    },
    {
      "midi": 45,
      "hit": false,
      "t": 91066.66666666669,
      "d": 1566.666666666657,
      "v": 60
    },
    {
      "midi": 52,
      "hit": false,
      "t": 91066.66666666669,
      "d": 1566.666666666657,
      "v": 53
    },
    {
      "midi": 61,
      "hit": false,
      "t": 91966.66666666669,
      "d": 666.666666666657,
      "v": 57
    },
    {
      "midi": 57,
      "hit": false,
      "t": 92400.00000000001,
      "d": 666.6666666666715,
      "v": 58
    },
    {
      "midi": 62,
      "hit": false,
      "t": 92850.00000000001,
      "d": 216.66666666667152,
      "v": 84
    },
    {
      "midi": 66,
      "hit": false,
      "t": 92850.00000000001,
      "d": 216.66666666667152,
      "v": 82
    },
    {
      "midi": 81,
      "hit": false,
      "t": 92850.00000000001,
      "d": 216.66666666667152,
      "v": 79
    },
    {
      "midi": 86,
      "hit": false,
      "t": 92850.00000000001,
      "d": 216.66666666667152,
      "v": 82
    },
    {
      "midi": 90,
      "hit": false,
      "t": 92850.00000000001,
      "d": 216.66666666667152,
      "v": 79
    },
    {
      "midi": 62,
      "hit": false,
      "t": 96416.66666666669,
      "d": 683.3333333333285,
      "v": 69
    },
    {
      "midi": 66,
      "hit": false,
      "t": 96416.66666666669,
      "d": 683.3333333333285,
      "v": 79
    },
    {
      "midi": 69,
      "hit": false,
      "t": 96416.66666666669,
      "d": 683.3333333333285,
      "v": 64
    },
    {
      "midi": 50,
      "hit": false,
      "t": 96416.66666666669,
      "d": 900,
      "v": 55
    },
    {
      "midi": 57,
      "hit": false,
      "t": 96416.66666666669,
      "d": 2900.0000000000146,
      "v": 57
    },
    {
      "midi": 54,
      "hit": false,
      "t": 96416.66666666669,
      "d": 3133.333333333343,
      "v": 27
    },
    {
      "midi": 62,
      "hit": false,
      "t": 97316.66666666669,
      "d": 666.6666666666715,
      "v": 61
    },
    {
      "midi": 69,
      "hit": false,
      "t": 97316.66666666669,
      "d": 666.6666666666715,
      "v": 67
    },
    {
      "midi": 66,
      "hit": false,
      "t": 97316.66666666669,
      "d": 883.333333333343,
      "v": 82
    },
    {
      "midi": 62,
      "hit": false,
      "t": 98200.00000000003,
      "d": 683.3333333333285,
      "v": 56
    },
    {
      "midi": 66,
      "hit": false,
      "t": 98200.00000000003,
      "d": 683.3333333333285,
      "v": 51
    },
    {
      "midi": 69,
      "hit": false,
      "t": 98200.00000000003,
      "d": 683.3333333333285,
      "v": 57
    },
    {
      "midi": 62,
      "hit": false,
      "t": 99100.00000000003,
      "d": 450,
      "v": 66
    },
    {
      "midi": 66,
      "hit": false,
      "t": 99100.00000000003,
      "d": 450,
      "v": 71
    },
    {
      "midi": 69,
      "hit": false,
      "t": 99100.00000000003,
      "d": 450,
      "v": 66
    },
    {
      "midi": 66,
      "hit": false,
      "t": 100000.00000000003,
      "d": 666.6666666666715,
      "v": 73
    },
    {
      "midi": 69,
      "hit": false,
      "t": 100000.00000000003,
      "d": 666.6666666666715,
      "v": 67
    },
    {
      "midi": 73,
      "hit": false,
      "t": 100000.00000000003,
      "d": 666.6666666666715,
      "v": 63
    },
    {
      "midi": 54,
      "hit": false,
      "t": 100000.00000000003,
      "d": 3116.666666666686,
      "v": 46
    },
    {
      "midi": 66,
      "hit": false,
      "t": 100883.33333333337,
      "d": 666.6666666666715,
      "v": 76
    },
    {
      "midi": 69,
      "hit": false,
      "t": 100883.33333333337,
      "d": 666.6666666666715,
      "v": 68
    },
    {
      "midi": 73,
      "hit": false,
      "t": 100883.33333333337,
      "d": 666.6666666666715,
      "v": 62
    },
    {
      "midi": 66,
      "hit": false,
      "t": 101783.33333333337,
      "d": 666.6666666666715,
      "v": 56
    },
    {
      "midi": 69,
      "hit": false,
      "t": 101783.33333333337,
      "d": 666.6666666666715,
      "v": 53
    },
    {
      "midi": 73,
      "hit": false,
      "t": 101783.33333333337,
      "d": 666.6666666666715,
      "v": 55
    },
    {
      "midi": 66,
      "hit": false,
      "t": 102666.66666666672,
      "d": 450,
      "v": 68
    },
    {
      "midi": 69,
      "hit": false,
      "t": 102666.66666666672,
      "d": 450,
      "v": 62
    },
    {
      "midi": 73,
      "hit": false,
      "t": 102666.66666666672,
      "d": 450,
      "v": 57
    },
    {
      "midi": 64,
      "hit": false,
      "t": 103566.66666666672,
      "d": 666.6666666666715,
      "v": 67
    },
    {
      "midi": 67,
      "hit": false,
      "t": 103566.66666666672,
      "d": 666.6666666666715,
      "v": 69
    },
    {
      "midi": 71,
      "hit": false,
      "t": 103566.66666666672,
      "d": 666.6666666666715,
      "v": 61
    },
    {
      "midi": 52,
      "hit": false,
      "t": 103566.66666666672,
      "d": 1333.333333333343,
      "v": 35
    },
    {
      "midi": 64,
      "hit": false,
      "t": 104450.00000000006,
      "d": 450,
      "v": 67
    },
    {
      "midi": 67,
      "hit": false,
      "t": 104450.00000000006,
      "d": 450,
      "v": 68
    },
    {
      "midi": 71,
      "hit": false,
      "t": 104450.00000000006,
      "d": 450,
      "v": 63
    },
    {
      "midi": 66,
      "hit": false,
      "t": 105350.00000000006,
      "d": 666.6666666666715,
      "v": 69
    },
    {
      "midi": 69,
      "hit": false,
      "t": 105350.00000000006,
      "d": 666.6666666666715,
      "v": 57
    },
    {
      "midi": 73,
      "hit": false,
      "t": 105350.00000000006,
      "d": 666.6666666666715,
      "v": 62
    },
    {
      "midi": 54,
      "hit": false,
      "t": 105350.00000000006,
      "d": 1333.3333333333285,
      "v": 58
    },
    {
      "midi": 66,
      "hit": false,
      "t": 106250.00000000006,
      "d": 433.3333333333285,
      "v": 63
    },
    {
      "midi": 69,
      "hit": false,
      "t": 106250.00000000006,
      "d": 433.3333333333285,
      "v": 63
    },
    {
      "midi": 73,
      "hit": false,
      "t": 106250.00000000006,
      "d": 666.666666666657,
      "v": 53
    },
    {
      "midi": 62,
      "hit": false,
      "t": 107133.33333333339,
      "d": 900,
      "v": 79
    },
    {
      "midi": 67,
      "hit": false,
      "t": 107133.33333333339,
      "d": 900,
      "v": 79
    },
    {
      "midi": 71,
      "hit": false,
      "t": 107133.33333333339,
      "d": 900,
      "v": 66
    },
    {
      "midi": 55,
      "hit": false,
      "t": 107133.33333333339,
      "d": 3350,
      "v": 66
    },
    {
      "midi": 62,
      "hit": false,
      "t": 108033.33333333339,
      "d": 883.3333333333285,
      "v": 64
    },
    {
      "midi": 67,
      "hit": false,
      "t": 108033.33333333339,
      "d": 883.3333333333285,
      "v": 63
    },
    {
      "midi": 71,
      "hit": false,
      "t": 108033.33333333339,
      "d": 883.3333333333285,
      "v": 64
    },
    {
      "midi": 67,
      "hit": false,
      "t": 108916.66666666672,
      "d": 666.6666666666715,
      "v": 66
    },
    {
      "midi": 62,
      "hit": false,
      "t": 108916.66666666672,
      "d": 900,
      "v": 62
    },
    {
      "midi": 71,
      "hit": false,
      "t": 108916.66666666672,
      "d": 900,
      "v": 63
    },
    {
      "midi": 62,
      "hit": false,
      "t": 109816.66666666672,
      "d": 216.66666666667152,
      "v": 53
    },
    {
      "midi": 67,
      "hit": false,
      "t": 109816.66666666672,
      "d": 666.6666666666715,
      "v": 64
    },
    {
      "midi": 71,
      "hit": false,
      "t": 109816.66666666672,
      "d": 666.6666666666715,
      "v": 53
    },
    {
      "midi": 64,
      "hit": false,
      "t": 110700.00000000006,
      "d": 900,
      "v": 64
    },
    {
      "midi": 67,
      "hit": false,
      "t": 110700.00000000006,
      "d": 900,
      "v": 67
    },
    {
      "midi": 71,
      "hit": false,
      "t": 110700.00000000006,
      "d": 900,
      "v": 62
    },
    {
      "midi": 52,
      "hit": false,
      "t": 110700.00000000006,
      "d": 1350,
      "v": 48
    },
    {
      "midi": 55,
      "hit": false,
      "t": 110700.00000000006,
      "d": 1350,
      "v": 30
    },
    {
      "midi": 71,
      "hit": false,
      "t": 111600.00000000006,
      "d": 450,
      "v": 63
    },
    {
      "midi": 64,
      "hit": false,
      "t": 111600.00000000006,
      "d": 666.6666666666715,
      "v": 57
    },
    {
      "midi": 67,
      "hit": false,
      "t": 111600.00000000006,
      "d": 666.6666666666715,
      "v": 58
    },
    {
      "midi": 64,
      "hit": false,
      "t": 112500.00000000006,
      "d": 666.6666666666715,
      "v": 63
    },
    {
      "midi": 69,
      "hit": false,
      "t": 112500.00000000006,
      "d": 666.6666666666715,
      "v": 66
    },
    {
      "midi": 73,
      "hit": false,
      "t": 112500.00000000006,
      "d": 666.6666666666715,
      "v": 68
    },
    {
      "midi": 57,
      "hit": false,
      "t": 112500.00000000006,
      "d": 1333.333333333343,
      "v": 45
    },
    {
      "midi": 52,
      "hit": false,
      "t": 112500.00000000006,
      "d": 1550.0000000000146,
      "v": 43
    },
    {
      "midi": 64,
      "hit": false,
      "t": 113383.3333333334,
      "d": 666.6666666666715,
      "v": 46
    },
    {
      "midi": 69,
      "hit": false,
      "t": 113383.3333333334,
      "d": 666.6666666666715,
      "v": 57
    },
    {
      "midi": 73,
      "hit": false,
      "t": 113383.3333333334,
      "d": 666.6666666666715,
      "v": 55
    },
    {
      "midi": 64,
      "hit": false,
      "t": 114283.3333333334,
      "d": 666.6666666666715,
      "v": 52
    },
    {
      "midi": 69,
      "hit": false,
      "t": 114283.3333333334,
      "d": 666.6666666666715,
      "v": 62
    },
    {
      "midi": 73,
      "hit": false,
      "t": 114283.3333333334,
      "d": 666.6666666666715,
      "v": 66
    },
    {
      "midi": 52,
      "hit": false,
      "t": 114283.3333333334,
      "d": 1550.0000000000146,
      "v": 24
    },
    {
      "midi": 57,
      "hit": false,
      "t": 114283.3333333334,
      "d": 1550.0000000000146,
      "v": 33
    },
    {
      "midi": 64,
      "hit": false,
      "t": 115166.66666666674,
      "d": 666.6666666666715,
      "v": 66
    },
    {
      "midi": 69,
      "hit": false,
      "t": 115166.66666666674,
      "d": 666.6666666666715,
      "v": 68
    },
    {
      "midi": 73,
      "hit": false,
      "t": 115166.66666666674,
      "d": 666.6666666666715,
      "v": 68
    },
    {
      "midi": 55,
      "hit": false,
      "t": 116066.66666666674,
      "d": 483.33333333334303,
      "v": 64
    },
    {
      "midi": 67,
      "hit": false,
      "t": 116066.66666666674,
      "d": 516.6666666666715,
      "v": 84
    },
    {
      "midi": 62,
      "hit": false,
      "t": 116066.66666666674,
      "d": 533.333333333343,
      "v": 87
    },
    {
      "midi": 71,
      "hit": false,
      "t": 116066.66666666674,
      "d": 566.6666666666715,
      "v": 68
    },
    {
      "midi": 50,
      "hit": false,
      "t": 116083.33333333342,
      "d": 316.6666666666715,
      "v": 61
    },
    {
      "midi": 64,
      "hit": false,
      "t": 116716.66666666674,
      "d": 566.6666666666715,
      "v": 71
    },
    {
      "midi": 71,
      "hit": false,
      "t": 116716.66666666674,
      "d": 733.333333333343,
      "v": 73
    },
    {
      "midi": 68,
      "hit": false,
      "t": 116733.33333333342,
      "d": 700,
      "v": 87
    },
    {
      "midi": 56,
      "hit": false,
      "t": 116733.33333333342,
      "d": 750,
      "v": 69
    },
    {
      "midi": 52,
      "hit": false,
      "t": 116733.33333333342,
      "d": 783.3333333333285,
      "v": 64
    },
    {
      "midi": 64,
      "hit": false,
      "t": 117383.33333333342,
      "d": 316.66666666665697,
      "v": 61
    },
    {
      "midi": 57,
      "hit": false,
      "t": 117833.3333333334,
      "d": 283.3333333333285,
      "v": 76
    },
    {
      "midi": 69,
      "hit": false,
      "t": 117833.3333333334,
      "d": 283.3333333333285,
      "v": 99
    },
    {
      "midi": 73,
      "hit": false,
      "t": 117833.3333333334,
      "d": 283.3333333333285,
      "v": 91
    },
    {
      "midi": 64,
      "hit": false,
      "t": 117833.3333333334,
      "d": 300,
      "v": 84
    },
    {
      "midi": 52,
      "hit": false,
      "t": 117833.3333333334,
      "d": 316.6666666666715,
      "v": 62
    },
    {
      "midi": 57,
      "hit": false,
      "t": 121416.66666666674,
      "d": 666.6666666666715,
      "v": 71
    },
    {
      "midi": 62,
      "hit": false,
      "t": 121416.66666666674,
      "d": 666.6666666666715,
      "v": 66
    },
    {
      "midi": 66,
      "hit": false,
      "t": 121416.66666666674,
      "d": 666.6666666666715,
      "v": 55
    },
    {
      "midi": 50,
      "hit": false,
      "t": 121416.66666666674,
      "d": 2683.333333333343,
      "v": 52
    },
    {
      "midi": 54,
      "hit": false,
      "t": 121416.66666666674,
      "d": 2900.0000000000146,
      "v": 55
    },
    {
      "midi": 57,
      "hit": false,
      "t": 122316.66666666674,
      "d": 666.6666666666715,
      "v": 22
    },
    {
      "midi": 62,
      "hit": false,
      "t": 122316.66666666674,
      "d": 666.6666666666715,
      "v": 68
    },
    {
      "midi": 66,
      "hit": false,
      "t": 122316.66666666674,
      "d": 666.6666666666715,
      "v": 66
    },
    {
      "midi": 57,
      "hit": false,
      "t": 123200.00000000009,
      "d": 683.3333333333285,
      "v": 52
    },
    {
      "midi": 62,
      "hit": false,
      "t": 123200.00000000009,
      "d": 683.3333333333285,
      "v": 67
    },
    {
      "midi": 66,
      "hit": false,
      "t": 123200.00000000009,
      "d": 683.3333333333285,
      "v": 64
    },
    {
      "midi": 57,
      "hit": false,
      "t": 124100.00000000009,
      "d": 216.66666666667152,
      "v": 56
    },
    {
      "midi": 62,
      "hit": false,
      "t": 124100.00000000009,
      "d": 450,
      "v": 71
    },
    {
      "midi": 66,
      "hit": false,
      "t": 124100.00000000009,
      "d": 450,
      "v": 67
    },
    {
      "midi": 57,
      "hit": false,
      "t": 124550.00000000009,
      "d": 216.66666666667152,
      "v": 37
    },
    {
      "midi": 57,
      "hit": false,
      "t": 125000.00000000009,
      "d": 883.3333333333285,
      "v": 66
    },
    {
      "midi": 61,
      "hit": false,
      "t": 125000.00000000009,
      "d": 883.3333333333285,
      "v": 79
    },
    {
      "midi": 64,
      "hit": false,
      "t": 125000.00000000009,
      "d": 883.3333333333285,
      "v": 67
    },
    {
      "midi": 45,
      "hit": false,
      "t": 125000.00000000009,
      "d": 3116.6666666666715,
      "v": 48
    },
    {
      "midi": 52,
      "hit": false,
      "t": 125000.00000000009,
      "d": 3116.6666666666715,
      "v": 37
    },
    {
      "midi": 57,
      "hit": false,
      "t": 125883.33333333342,
      "d": 900,
      "v": 51
    },
    {
      "midi": 61,
      "hit": false,
      "t": 125883.33333333342,
      "d": 900,
      "v": 56
    },
    {
      "midi": 64,
      "hit": false,
      "t": 125883.33333333342,
      "d": 900,
      "v": 68
    },
    {
      "midi": 57,
      "hit": false,
      "t": 126783.33333333342,
      "d": 216.66666666667152,
      "v": 29
    },
    {
      "midi": 61,
      "hit": false,
      "t": 126783.33333333342,
      "d": 666.6666666666715,
      "v": 66
    },
    {
      "midi": 64,
      "hit": false,
      "t": 126783.33333333342,
      "d": 666.6666666666715,
      "v": 66
    },
    {
      "midi": 64,
      "hit": false,
      "t": 127666.66666666676,
      "d": 450,
      "v": 67
    },
    {
      "midi": 57,
      "hit": false,
      "t": 127666.66666666676,
      "d": 666.6666666666715,
      "v": 61
    },
    {
      "midi": 61,
      "hit": false,
      "t": 127666.66666666676,
      "d": 666.6666666666715,
      "v": 73
    },
    {
      "midi": 59,
      "hit": false,
      "t": 128566.66666666676,
      "d": 666.6666666666715,
      "v": 68
    },
    {
      "midi": 62,
      "hit": false,
      "t": 128566.66666666676,
      "d": 666.6666666666715,
      "v": 61
    },
    {
      "midi": 55,
      "hit": false,
      "t": 128566.66666666676,
      "d": 883.333333333343,
      "v": 68
    },
    {
      "midi": 43,
      "hit": false,
      "t": 128566.66666666676,
      "d": 3116.6666666666715,
      "v": 42
    },
    {
      "midi": 50,
      "hit": false,
      "t": 128566.66666666676,
      "d": 3566.6666666666715,
      "v": 48
    },
    {
      "midi": 55,
      "hit": false,
      "t": 129450.0000000001,
      "d": 683.3333333333285,
      "v": 40
    },
    {
      "midi": 59,
      "hit": false,
      "t": 129450.0000000001,
      "d": 683.3333333333285,
      "v": 68
    },
    {
      "midi": 62,
      "hit": false,
      "t": 129450.0000000001,
      "d": 683.3333333333285,
      "v": 66
    },
    {
      "midi": 55,
      "hit": false,
      "t": 130350.0000000001,
      "d": 666.6666666666715,
      "v": 47
    },
    {
      "midi": 59,
      "hit": false,
      "t": 130350.0000000001,
      "d": 666.6666666666715,
      "v": 62
    },
    {
      "midi": 62,
      "hit": false,
      "t": 130350.0000000001,
      "d": 666.6666666666715,
      "v": 63
    },
    {
      "midi": 55,
      "hit": false,
      "t": 131233.33333333343,
      "d": 233.33333333334303,
      "v": 52
    },
    {
      "midi": 59,
      "hit": false,
      "t": 131233.33333333343,
      "d": 450,
      "v": 67
    },
    {
      "midi": 62,
      "hit": false,
      "t": 131233.33333333343,
      "d": 450,
      "v": 63
    },
    {
      "midi": 57,
      "hit": false,
      "t": 131683.33333333343,
      "d": 233.33333333334303,
      "v": 45
    },
    {
      "midi": 57,
      "hit": false,
      "t": 132133.33333333343,
      "d": 666.666666666657,
      "v": 47
    },
    {
      "midi": 64,
      "hit": false,
      "t": 132133.33333333343,
      "d": 666.666666666657,
      "v": 66
    },
    {
      "midi": 61,
      "hit": false,
      "t": 132133.33333333343,
      "d": 900,
      "v": 67
    },
    {
      "midi": 42,
      "hit": false,
      "t": 132133.33333333343,
      "d": 3133.333333333314,
      "v": 46
    },
    {
      "midi": 57,
      "hit": false,
      "t": 133033.33333333343,
      "d": 666.666666666657,
      "v": 46
    },
    {
      "midi": 61,
      "hit": false,
      "t": 133033.33333333343,
      "d": 666.666666666657,
      "v": 51
    },
    {
      "midi": 64,
      "hit": false,
      "t": 133033.33333333343,
      "d": 666.666666666657,
      "v": 57
    },
    {
      "midi": 57,
      "hit": false,
      "t": 133916.66666666674,
      "d": 666.666666666657,
      "v": 63
    },
    {
      "midi": 61,
      "hit": false,
      "t": 133916.66666666674,
      "d": 666.666666666657,
      "v": 71
    },
    {
      "midi": 64,
      "hit": false,
      "t": 133916.66666666674,
      "d": 666.666666666657,
      "v": 63
    },
    {
      "midi": 64,
      "hit": false,
      "t": 134816.66666666674,
      "d": 450,
      "v": 67
    },
    {
      "midi": 57,
      "hit": false,
      "t": 134816.66666666674,
      "d": 666.666666666657,
      "v": 58
    },
    {
      "midi": 61,
      "hit": false,
      "t": 134816.66666666674,
      "d": 666.666666666657,
      "v": 62
    },
    {
      "midi": 59,
      "hit": false,
      "t": 135700.00000000006,
      "d": 683.333333333343,
      "v": 66
    },
    {
      "midi": 62,
      "hit": false,
      "t": 135700.00000000006,
      "d": 683.333333333343,
      "v": 66
    },
    {
      "midi": 55,
      "hit": false,
      "t": 135700.00000000006,
      "d": 900,
      "v": 61
    },
    {
      "midi": 40,
      "hit": false,
      "t": 135700.00000000006,
      "d": 3133.333333333314,
      "v": 53
    },
    {
      "midi": 55,
      "hit": false,
      "t": 136600.00000000006,
      "d": 666.666666666657,
      "v": 57
    },
    {
      "midi": 59,
      "hit": false,
      "t": 136600.00000000006,
      "d": 666.666666666657,
      "v": 64
    },
    {
      "midi": 62,
      "hit": false,
      "t": 136600.00000000006,
      "d": 666.666666666657,
      "v": 67
    },
    {
      "midi": 55,
      "hit": false,
      "t": 137483.33333333337,
      "d": 683.333333333343,
      "v": 41
    },
    {
      "midi": 59,
      "hit": false,
      "t": 137483.33333333337,
      "d": 683.333333333343,
      "v": 56
    },
    {
      "midi": 62,
      "hit": false,
      "t": 137483.33333333337,
      "d": 683.333333333343,
      "v": 61
    },
    {
      "midi": 55,
      "hit": false,
      "t": 138383.33333333337,
      "d": 666.666666666657,
      "v": 55
    },
    {
      "midi": 59,
      "hit": false,
      "t": 138383.33333333337,
      "d": 666.666666666657,
      "v": 57
    },
    {
      "midi": 62,
      "hit": false,
      "t": 138383.33333333337,
      "d": 666.666666666657,
      "v": 60
    },
    {
      "midi": 43,
      "hit": false,
      "t": 139283.33333333337,
      "d": 433.33333333334303,
      "v": 53
    },
    {
      "midi": 55,
      "hit": false,
      "t": 139283.33333333337,
      "d": 666.6666666666861,
      "v": 68
    },
    {
      "midi": 59,
      "hit": false,
      "t": 139283.33333333337,
      "d": 666.6666666666861,
      "v": 73
    },
    {
      "midi": 62,
      "hit": false,
      "t": 139283.33333333337,
      "d": 666.6666666666861,
      "v": 66
    },
    {
      "midi": 57,
      "hit": false,
      "t": 140166.66666666672,
      "d": 666.666666666657,
      "v": 79
    },
    {
      "midi": 62,
      "hit": false,
      "t": 140166.66666666672,
      "d": 666.666666666657,
      "v": 67
    },
    {
      "midi": 42,
      "hit": false,
      "t": 140166.66666666672,
      "d": 2233.333333333314,
      "v": 57
    },
    {
      "midi": 54,
      "hit": false,
      "t": 141066.66666666672,
      "d": 666.666666666657,
      "v": 41
    },
    {
      "midi": 57,
      "hit": false,
      "t": 141066.66666666672,
      "d": 666.666666666657,
      "v": 57
    },
    {
      "midi": 62,
      "hit": false,
      "t": 141066.66666666672,
      "d": 666.666666666657,
      "v": 56
    },
    {
      "midi": 54,
      "hit": false,
      "t": 141950.00000000003,
      "d": 233.33333333334303,
      "v": 62
    },
    {
      "midi": 57,
      "hit": false,
      "t": 141950.00000000003,
      "d": 666.666666666657,
      "v": 63
    },
    {
      "midi": 62,
      "hit": false,
      "t": 141950.00000000003,
      "d": 666.666666666657,
      "v": 57
    },
    {
      "midi": 55,
      "hit": false,
      "t": 142850.00000000003,
      "d": 883.333333333343,
      "v": 64
    },
    {
      "midi": 59,
      "hit": false,
      "t": 142850.00000000003,
      "d": 883.333333333343,
      "v": 64
    },
    {
      "midi": 64,
      "hit": false,
      "t": 142850.00000000003,
      "d": 883.333333333343,
      "v": 64
    },
    {
      "midi": 40,
      "hit": false,
      "t": 142850.00000000003,
      "d": 1116.666666666686,
      "v": 45
    },
    {
      "midi": 55,
      "hit": false,
      "t": 143733.33333333337,
      "d": 450,
      "v": 53
    },
    {
      "midi": 59,
      "hit": false,
      "t": 143733.33333333337,
      "d": 683.333333333343,
      "v": 60
    },
    {
      "midi": 64,
      "hit": false,
      "t": 143733.33333333337,
      "d": 683.333333333343,
      "v": 66
    },
    {
      "midi": 57,
      "hit": false,
      "t": 144633.33333333337,
      "d": 666.666666666657,
      "v": 53
    },
    {
      "midi": 61,
      "hit": false,
      "t": 144633.33333333337,
      "d": 666.666666666657,
      "v": 66
    },
    {
      "midi": 64,
      "hit": false,
      "t": 144633.33333333337,
      "d": 666.666666666657,
      "v": 61
    },
    {
      "midi": 45,
      "hit": false,
      "t": 144633.33333333337,
      "d": 1566.666666666657,
      "v": 43
    },
    {
      "midi": 57,
      "hit": false,
      "t": 145533.33333333337,
      "d": 216.66666666665697,
      "v": 43
    },
    {
      "midi": 61,
      "hit": false,
      "t": 145533.33333333337,
      "d": 433.33333333331393,
      "v": 76
    },
    {
      "midi": 64,
      "hit": false,
      "t": 145533.33333333337,
      "d": 433.33333333331393,
      "v": 64
    },
    {
      "midi": 57,
      "hit": false,
      "t": 145966.6666666667,
      "d": 233.33333333334303,
      "v": 47
    },
    {
      "midi": 57,
      "hit": false,
      "t": 146416.6666666667,
      "d": 900,
      "v": 66
    },
    {
      "midi": 62,
      "hit": false,
      "t": 146416.6666666667,
      "d": 900,
      "v": 66
    },
    {
      "midi": 66,
      "hit": false,
      "t": 146416.6666666667,
      "d": 900,
      "v": 63
    },
    {
      "midi": 50,
      "hit": false,
      "t": 146416.6666666667,
      "d": 1350,
      "v": 57
    },
    {
      "midi": 57,
      "hit": false,
      "t": 147316.6666666667,
      "d": 450,
      "v": 27
    },
    {
      "midi": 62,
      "hit": false,
      "t": 147316.6666666667,
      "d": 450,
      "v": 57
    },
    {
      "midi": 66,
      "hit": false,
      "t": 147316.6666666667,
      "d": 666.666666666657,
      "v": 60
    },
    {
      "midi": 57,
      "hit": false,
      "t": 147766.6666666667,
      "d": 216.66666666665697,
      "v": 45
    },
    {
      "midi": 57,
      "hit": false,
      "t": 147983.33333333334,
      "d": 216.66666666665697,
      "v": 34
    },
    {
      "midi": 61,
      "hit": false,
      "t": 148200,
      "d": 900,
      "v": 73
    },
    {
      "midi": 57,
      "hit": false,
      "t": 148200,
      "d": 1350,
      "v": 68
    },
    {
      "midi": 64,
      "hit": false,
      "t": 148200,
      "d": 1350,
      "v": 66
    },
    {
      "midi": 45,
      "hit": false,
      "t": 148200,
      "d": 1566.666666666657,
      "v": 60
    },
    {
      "midi": 52,
      "hit": false,
      "t": 148200,
      "d": 1566.666666666657,
      "v": 53
    },
    {
      "midi": 61,
      "hit": false,
      "t": 149100,
      "d": 666.666666666657,
      "v": 57
    },
    {
      "midi": 57,
      "hit": false,
      "t": 149550,
      "d": 433.33333333331393,
      "v": 58
    },
    {
      "midi": 78,
      "hit": false,
      "t": 149983.3333333333,
      "d": 900,
      "v": 71
    },
    {
      "midi": 50,
      "hit": false,
      "t": 149983.3333333333,
      "d": 3133.333333333343,
      "v": 66
    },
    {
      "midi": 57,
      "hit": false,
      "t": 149983.3333333333,
      "d": 3350,
      "v": 41
    },
    {
      "midi": 69,
      "hit": false,
      "t": 149983.3333333333,
      "d": 3350,
      "v": 79
    },
    {
      "midi": 74,
      "hit": false,
      "t": 150883.3333333333,
      "d": 900,
      "v": 61
    },
    {
      "midi": 78,
      "hit": false,
      "t": 150883.3333333333,
      "d": 900,
      "v": 34
    },
    {
      "midi": 76,
      "hit": false,
      "t": 151783.3333333333,
      "d": 883.333333333343,
      "v": 63
    },
    {
      "midi": 78,
      "hit": false,
      "t": 151783.3333333333,
      "d": 1550,
      "v": 56
    },
    {
      "midi": 74,
      "hit": false,
      "t": 152666.66666666666,
      "d": 666.666666666657,
      "v": 69
    },
    {
      "midi": 74,
      "hit": false,
      "t": 153566.66666666666,
      "d": 883.333333333343,
      "v": 69
    },
    {
      "midi": 78,
      "hit": false,
      "t": 153566.66666666666,
      "d": 1550,
      "v": 64
    },
    {
      "midi": 71,
      "hit": false,
      "t": 153566.66666666666,
      "d": 1783.333333333343,
      "v": 66
    },
    {
      "midi": 47,
      "hit": false,
      "t": 153566.66666666666,
      "d": 3116.666666666657,
      "v": 62
    },
    {
      "midi": 74,
      "hit": false,
      "t": 154450,
      "d": 450,
      "v": 45
    },
    {
      "midi": 71,
      "hit": false,
      "t": 155350,
      "d": 666.666666666657,
      "v": 38
    },
    {
      "midi": 73,
      "hit": false,
      "t": 155350,
      "d": 666.666666666657,
      "v": 68
    },
    {
      "midi": 78,
      "hit": false,
      "t": 155350,
      "d": 1566.666666666657,
      "v": 55
    },
    {
      "midi": 71,
      "hit": false,
      "t": 156233.3333333333,
      "d": 683.333333333343,
      "v": 58
    },
    {
      "midi": 71,
      "hit": false,
      "t": 157133.3333333333,
      "d": 666.666666666657,
      "v": 66
    },
    {
      "midi": 74,
      "hit": false,
      "t": 157133.3333333333,
      "d": 666.666666666657,
      "v": 61
    },
    {
      "midi": 67,
      "hit": false,
      "t": 157133.3333333333,
      "d": 2683.333333333314,
      "v": 69
    },
    {
      "midi": 43,
      "hit": false,
      "t": 157133.3333333333,
      "d": 3116.666666666657,
      "v": 46
    },
    {
      "midi": 74,
      "hit": false,
      "t": 158033.3333333333,
      "d": 666.666666666657,
      "v": 40
    },
    {
      "midi": 71,
      "hit": false,
      "t": 158033.3333333333,
      "d": 883.3333333333139,
      "v": 57
    },
    {
      "midi": 69,
      "hit": false,
      "t": 158916.66666666663,
      "d": 666.666666666657,
      "v": 76
    },
    {
      "midi": 74,
      "hit": false,
      "t": 158916.66666666663,
      "d": 900,
      "v": 63
    },
    {
      "midi": 67,
      "hit": false,
      "t": 159816.66666666663,
      "d": 666.6666666666861,
      "v": 40
    },
    {
      "midi": 71,
      "hit": false,
      "t": 159816.66666666663,
      "d": 666.6666666666861,
      "v": 66
    },
    {
      "midi": 74,
      "hit": false,
      "t": 159816.66666666663,
      "d": 666.6666666666861,
      "v": 55
    },
    {
      "midi": 69,
      "hit": false,
      "t": 160699.99999999997,
      "d": 900,
      "v": 66
    },
    {
      "midi": 73,
      "hit": false,
      "t": 160699.99999999997,
      "d": 1350,
      "v": 68
    },
    {
      "midi": 45,
      "hit": false,
      "t": 160699.99999999997,
      "d": 1566.666666666657,
      "v": 67
    },
    {
      "midi": 69,
      "hit": false,
      "t": 162049.99999999997,
      "d": 433.33333333331393,
      "v": 38
    },
    {
      "midi": 74,
      "hit": false,
      "t": 162483.33333333328,
      "d": 683.333333333343,
      "v": 82
    },
    {
      "midi": 76,
      "hit": false,
      "t": 162483.33333333328,
      "d": 683.333333333343,
      "v": 66
    },
    {
      "midi": 45,
      "hit": false,
      "t": 162483.33333333328,
      "d": 1116.666666666657,
      "v": 47
    },
    {
      "midi": 69,
      "hit": false,
      "t": 162483.33333333328,
      "d": 1800,
      "v": 53
    },
    {
      "midi": 76,
      "hit": false,
      "t": 163383.33333333328,
      "d": 666.666666666657,
      "v": 82
    },
    {
      "midi": 74,
      "hit": false,
      "t": 164283.33333333328,
      "d": 1550,
      "v": 68
    },
    {
      "midi": 78,
      "hit": false,
      "t": 164283.33333333328,
      "d": 1783.333333333343,
      "v": 71
    },
    {
      "midi": 50,
      "hit": false,
      "t": 164283.33333333328,
      "d": 3116.666666666657,
      "v": 57
    },
    {
      "midi": 57,
      "hit": false,
      "t": 164283.33333333328,
      "d": 3116.666666666657,
      "v": 32
    },
    {
      "midi": 69,
      "hit": false,
      "t": 164283.33333333328,
      "d": 3333.333333333314,
      "v": 52
    },
    {
      "midi": 78,
      "hit": false,
      "t": 166066.66666666663,
      "d": 666.666666666657,
      "v": 55
    },
    {
      "midi": 76,
      "hit": false,
      "t": 166066.66666666663,
      "d": 883.3333333333139,
      "v": 68
    },
    {
      "midi": 78,
      "hit": false,
      "t": 166949.99999999994,
      "d": 900,
      "v": 56
    },
    {
      "midi": 74,
      "hit": false,
      "t": 167849.99999999994,
      "d": 1333.333333333343,
      "v": 67
    },
    {
      "midi": 47,
      "hit": false,
      "t": 167849.99999999994,
      "d": 1783.333333333343,
      "v": 58
    },
    {
      "midi": 78,
      "hit": false,
      "t": 167849.99999999994,
      "d": 3350.000000000029,
      "v": 61
    },
    {
      "midi": 71,
      "hit": false,
      "t": 169183.33333333328,
      "d": 1333.333333333343,
      "v": 52
    },
    {
      "midi": 73,
      "hit": false,
      "t": 169633.33333333328,
      "d": 883.333333333343,
      "v": 82
    },
    {
      "midi": 47,
      "hit": false,
      "t": 169633.33333333328,
      "d": 1333.333333333343,
      "v": 55
    },
    {
      "midi": 71,
      "hit": false,
      "t": 170516.66666666663,
      "d": 233.33333333334303,
      "v": 28
    },
    {
      "midi": 74,
      "hit": false,
      "t": 170516.66666666663,
      "d": 683.333333333343,
      "v": 79
    },
    {
      "midi": 67,
      "hit": false,
      "t": 171416.66666666663,
      "d": 1116.666666666657,
      "v": 64
    },
    {
      "midi": 71,
      "hit": false,
      "t": 171416.66666666663,
      "d": 1566.666666666657,
      "v": 69
    },
    {
      "midi": 74,
      "hit": false,
      "t": 171416.66666666663,
      "d": 1783.333333333314,
      "v": 64
    },
    {
      "midi": 43,
      "hit": false,
      "t": 171416.66666666663,
      "d": 3133.333333333314,
      "v": 57
    },
    {
      "midi": 67,
      "hit": false,
      "t": 172749.99999999994,
      "d": 2016.666666666657,
      "v": 41
    },
    {
      "midi": 73,
      "hit": false,
      "t": 173199.99999999994,
      "d": 900,
      "v": 87
    },
    {
      "midi": 74,
      "hit": false,
      "t": 173199.99999999994,
      "d": 900,
      "v": 35
    },
    {
      "midi": 74,
      "hit": false,
      "t": 174099.99999999994,
      "d": 666.666666666657,
      "v": 67
    },
    {
      "midi": 69,
      "hit": false,
      "t": 174983.33333333326,
      "d": 1350,
      "v": 62
    },
    {
      "midi": 73,
      "hit": false,
      "t": 174983.33333333326,
      "d": 1350,
      "v": 64
    },
    {
      "midi": 45,
      "hit": false,
      "t": 174983.33333333326,
      "d": 1783.333333333343,
      "v": 60
    },
    {
      "midi": 76,
      "hit": false,
      "t": 174983.33333333326,
      "d": 1783.333333333343,
      "v": 64
    },
    {
      "midi": 69,
      "hit": false,
      "t": 176333.33333333326,
      "d": 2000,
      "v": 52
    },
    {
      "midi": 73,
      "hit": false,
      "t": 176766.6666666666,
      "d": 900,
      "v": 66
    },
    {
      "midi": 76,
      "hit": false,
      "t": 176766.6666666666,
      "d": 900,
      "v": 82
    },
    {
      "midi": 45,
      "hit": false,
      "t": 176766.6666666666,
      "d": 1350,
      "v": 27
    },
    {
      "midi": 76,
      "hit": false,
      "t": 177666.6666666666,
      "d": 450,
      "v": 69
    },
    {
      "midi": 69,
      "hit": false,
      "t": 178566.6666666666,
      "d": 1116.666666666657,
      "v": 62
    },
    {
      "midi": 74,
      "hit": false,
      "t": 178566.6666666666,
      "d": 1333.333333333314,
      "v": 66
    },
    {
      "midi": 50,
      "hit": false,
      "t": 178566.6666666666,
      "d": 1783.333333333314,
      "v": 58
    },
    {
      "midi": 78,
      "hit": false,
      "t": 178566.6666666666,
      "d": 1783.333333333314,
      "v": 62
    },
    {
      "midi": 76,
      "hit": false,
      "t": 179899.9999999999,
      "d": 216.66666666665697,
      "v": 31
    },
    {
      "midi": 69,
      "hit": false,
      "t": 179899.9999999999,
      "d": 1566.666666666686,
      "v": 47
    },
    {
      "midi": 74,
      "hit": false,
      "t": 180349.9999999999,
      "d": 883.333333333343,
      "v": 68
    },
    {
      "midi": 50,
      "hit": false,
      "t": 180349.9999999999,
      "d": 1116.666666666686,
      "v": 55
    },
    {
      "midi": 78,
      "hit": false,
      "t": 180349.9999999999,
      "d": 1116.666666666686,
      "v": 53
    },
    {
      "midi": 57,
      "hit": false,
      "t": 182133.33333333326,
      "d": 666.666666666657,
      "v": 71
    },
    {
      "midi": 62,
      "hit": false,
      "t": 182133.33333333326,
      "d": 666.666666666657,
      "v": 66
    },
    {
      "midi": 66,
      "hit": false,
      "t": 182133.33333333326,
      "d": 666.666666666657,
      "v": 55
    },
    {
      "midi": 50,
      "hit": false,
      "t": 182133.33333333326,
      "d": 2683.333333333314,
      "v": 52
    },
    {
      "midi": 54,
      "hit": false,
      "t": 182133.33333333326,
      "d": 2899.999999999971,
      "v": 55
    },
    {
      "midi": 57,
      "hit": false,
      "t": 183016.66666666657,
      "d": 683.333333333343,
      "v": 22
    },
    {
      "midi": 62,
      "hit": false,
      "t": 183016.66666666657,
      "d": 683.333333333343,
      "v": 68
    },
    {
      "midi": 66,
      "hit": false,
      "t": 183016.66666666657,
      "d": 683.333333333343,
      "v": 66
    },
    {
      "midi": 57,
      "hit": false,
      "t": 183916.66666666657,
      "d": 666.666666666657,
      "v": 52
    },
    {
      "midi": 62,
      "hit": false,
      "t": 183916.66666666657,
      "d": 666.666666666657,
      "v": 67
    },
    {
      "midi": 66,
      "hit": false,
      "t": 183916.66666666657,
      "d": 666.666666666657,
      "v": 64
    },
    {
      "midi": 57,
      "hit": false,
      "t": 184816.66666666657,
      "d": 216.66666666665697,
      "v": 56
    },
    {
      "midi": 62,
      "hit": false,
      "t": 184816.66666666657,
      "d": 433.33333333331393,
      "v": 71
    },
    {
      "midi": 66,
      "hit": false,
      "t": 184816.66666666657,
      "d": 433.33333333331393,
      "v": 67
    },
    {
      "midi": 57,
      "hit": false,
      "t": 185249.99999999988,
      "d": 233.33333333334303,
      "v": 37
    },
    {
      "midi": 57,
      "hit": false,
      "t": 185699.99999999988,
      "d": 900,
      "v": 66
    },
    {
      "midi": 61,
      "hit": false,
      "t": 185699.99999999988,
      "d": 900,
      "v": 79
    },
    {
      "midi": 64,
      "hit": false,
      "t": 185699.99999999988,
      "d": 900,
      "v": 67
    },
    {
      "midi": 45,
      "hit": false,
      "t": 185699.99999999988,
      "d": 3133.333333333372,
      "v": 48
    },
    {
      "midi": 52,
      "hit": false,
      "t": 185699.99999999988,
      "d": 3133.333333333372,
      "v": 37
    },
    {
      "midi": 57,
      "hit": false,
      "t": 186599.99999999988,
      "d": 883.333333333343,
      "v": 51
    },
    {
      "midi": 61,
      "hit": false,
      "t": 186599.99999999988,
      "d": 883.333333333343,
      "v": 56
    },
    {
      "midi": 64,
      "hit": false,
      "t": 186599.99999999988,
      "d": 883.333333333343,
      "v": 68
    },
    {
      "midi": 57,
      "hit": false,
      "t": 187483.33333333323,
      "d": 233.33333333334303,
      "v": 29
    },
    {
      "midi": 61,
      "hit": false,
      "t": 187483.33333333323,
      "d": 666.6666666666861,
      "v": 66
    },
    {
      "midi": 64,
      "hit": false,
      "t": 187483.33333333323,
      "d": 666.6666666666861,
      "v": 66
    },
    {
      "midi": 64,
      "hit": false,
      "t": 188383.33333333326,
      "d": 450,
      "v": 67
    },
    {
      "midi": 57,
      "hit": false,
      "t": 188383.33333333326,
      "d": 666.666666666657,
      "v": 61
    },
    {
      "midi": 61,
      "hit": false,
      "t": 188383.33333333326,
      "d": 666.666666666657,
      "v": 73
    },
    {
      "midi": 59,
      "hit": false,
      "t": 189266.66666666657,
      "d": 683.333333333343,
      "v": 68
    },
    {
      "midi": 62,
      "hit": false,
      "t": 189266.66666666657,
      "d": 683.333333333343,
      "v": 61
    },
    {
      "midi": 55,
      "hit": false,
      "t": 189266.66666666657,
      "d": 900,
      "v": 68
    },
    {
      "midi": 43,
      "hit": false,
      "t": 189266.66666666657,
      "d": 3133.333333333314,
      "v": 42
    },
    {
      "midi": 50,
      "hit": false,
      "t": 189266.66666666657,
      "d": 3583.333333333314,
      "v": 48
    },
    {
      "midi": 55,
      "hit": false,
      "t": 190166.66666666657,
      "d": 666.666666666657,
      "v": 40
    },
    {
      "midi": 59,
      "hit": false,
      "t": 190166.66666666657,
      "d": 666.666666666657,
      "v": 68
    },
    {
      "midi": 62,
      "hit": false,
      "t": 190166.66666666657,
      "d": 666.666666666657,
      "v": 66
    },
    {
      "midi": 55,
      "hit": false,
      "t": 191066.66666666657,
      "d": 666.666666666657,
      "v": 47
    },
    {
      "midi": 59,
      "hit": false,
      "t": 191066.66666666657,
      "d": 666.666666666657,
      "v": 62
    },
    {
      "midi": 62,
      "hit": false,
      "t": 191066.66666666657,
      "d": 666.666666666657,
      "v": 63
    },
    {
      "midi": 55,
      "hit": false,
      "t": 191949.99999999988,
      "d": 233.33333333334303,
      "v": 52
    },
    {
      "midi": 59,
      "hit": false,
      "t": 191949.99999999988,
      "d": 450,
      "v": 67
    },
    {
      "midi": 62,
      "hit": false,
      "t": 191949.99999999988,
      "d": 450,
      "v": 63
    },
    {
      "midi": 57,
      "hit": false,
      "t": 192399.99999999988,
      "d": 216.66666666665697,
      "v": 45
    },
    {
      "midi": 57,
      "hit": false,
      "t": 192849.99999999988,
      "d": 666.666666666657,
      "v": 47
    },
    {
      "midi": 64,
      "hit": false,
      "t": 192849.99999999988,
      "d": 666.666666666657,
      "v": 66
    },
    {
      "midi": 61,
      "hit": false,
      "t": 192849.99999999988,
      "d": 883.3333333333139,
      "v": 67
    },
    {
      "midi": 42,
      "hit": false,
      "t": 192849.99999999988,
      "d": 3116.666666666628,
      "v": 46
    },
    {
      "midi": 57,
      "hit": false,
      "t": 193733.3333333332,
      "d": 666.666666666657,
      "v": 46
    },
    {
      "midi": 61,
      "hit": false,
      "t": 193733.3333333332,
      "d": 666.666666666657,
      "v": 51
    },
    {
      "midi": 64,
      "hit": false,
      "t": 193733.3333333332,
      "d": 666.666666666657,
      "v": 57
    },
    {
      "midi": 57,
      "hit": false,
      "t": 194633.3333333332,
      "d": 666.666666666657,
      "v": 63
    },
    {
      "midi": 61,
      "hit": false,
      "t": 194633.3333333332,
      "d": 666.666666666657,
      "v": 71
    },
    {
      "midi": 64,
      "hit": false,
      "t": 194633.3333333332,
      "d": 666.666666666657,
      "v": 63
    },
    {
      "midi": 64,
      "hit": false,
      "t": 195516.6666666665,
      "d": 450,
      "v": 67
    },
    {
      "midi": 57,
      "hit": false,
      "t": 195516.6666666665,
      "d": 683.333333333343,
      "v": 58
    },
    {
      "midi": 61,
      "hit": false,
      "t": 195516.6666666665,
      "d": 683.333333333343,
      "v": 62
    },
    {
      "midi": 59,
      "hit": false,
      "t": 196416.6666666665,
      "d": 666.666666666657,
      "v": 66
    },
    {
      "midi": 62,
      "hit": false,
      "t": 196416.6666666665,
      "d": 666.666666666657,
      "v": 66
    },
    {
      "midi": 55,
      "hit": false,
      "t": 196416.6666666665,
      "d": 900,
      "v": 61
    },
    {
      "midi": 40,
      "hit": false,
      "t": 196416.6666666665,
      "d": 3116.666666666657,
      "v": 53
    },
    {
      "midi": 55,
      "hit": false,
      "t": 197316.6666666665,
      "d": 666.666666666657,
      "v": 57
    },
    {
      "midi": 59,
      "hit": false,
      "t": 197316.6666666665,
      "d": 666.666666666657,
      "v": 64
    },
    {
      "midi": 62,
      "hit": false,
      "t": 197316.6666666665,
      "d": 666.666666666657,
      "v": 67
    },
    {
      "midi": 55,
      "hit": false,
      "t": 198199.99999999983,
      "d": 666.666666666657,
      "v": 41
    },
    {
      "midi": 59,
      "hit": false,
      "t": 198199.99999999983,
      "d": 666.666666666657,
      "v": 56
    },
    {
      "midi": 62,
      "hit": false,
      "t": 198199.99999999983,
      "d": 666.666666666657,
      "v": 61
    },
    {
      "midi": 55,
      "hit": false,
      "t": 199099.99999999983,
      "d": 666.6666666666861,
      "v": 55
    },
    {
      "midi": 59,
      "hit": false,
      "t": 199099.99999999983,
      "d": 666.6666666666861,
      "v": 57
    },
    {
      "midi": 62,
      "hit": false,
      "t": 199099.99999999983,
      "d": 666.6666666666861,
      "v": 60
    },
    {
      "midi": 43,
      "hit": false,
      "t": 199983.33333333317,
      "d": 450,
      "v": 53
    },
    {
      "midi": 55,
      "hit": false,
      "t": 199983.33333333317,
      "d": 666.666666666657,
      "v": 68
    },
    {
      "midi": 59,
      "hit": false,
      "t": 199983.33333333317,
      "d": 666.666666666657,
      "v": 73
    },
    {
      "midi": 62,
      "hit": false,
      "t": 199983.33333333317,
      "d": 666.666666666657,
      "v": 66
    },
    {
      "midi": 57,
      "hit": false,
      "t": 200883.33333333317,
      "d": 666.666666666657,
      "v": 79
    },
    {
      "midi": 62,
      "hit": false,
      "t": 200883.33333333317,
      "d": 666.666666666657,
      "v": 67
    },
    {
      "midi": 42,
      "hit": false,
      "t": 200883.33333333317,
      "d": 2233.333333333314,
      "v": 57
    },
    {
      "midi": 54,
      "hit": false,
      "t": 201766.66666666648,
      "d": 683.333333333343,
      "v": 41
    },
    {
      "midi": 57,
      "hit": false,
      "t": 201766.66666666648,
      "d": 683.333333333343,
      "v": 57
    },
    {
      "midi": 62,
      "hit": false,
      "t": 201766.66666666648,
      "d": 683.333333333343,
      "v": 56
    },
    {
      "midi": 54,
      "hit": false,
      "t": 202666.66666666648,
      "d": 216.66666666665697,
      "v": 62
    },
    {
      "midi": 57,
      "hit": false,
      "t": 202666.66666666648,
      "d": 666.666666666657,
      "v": 63
    },
    {
      "midi": 62,
      "hit": false,
      "t": 202666.66666666648,
      "d": 666.666666666657,
      "v": 57
    },
    {
      "midi": 55,
      "hit": false,
      "t": 203566.66666666648,
      "d": 666.666666666657,
      "v": 56
    },
    {
      "midi": 59,
      "hit": false,
      "t": 203566.66666666648,
      "d": 666.666666666657,
      "v": 57
    },
    {
      "midi": 62,
      "hit": false,
      "t": 203566.66666666648,
      "d": 666.666666666657,
      "v": 64
    },
    {
      "midi": 40,
      "hit": false,
      "t": 203566.66666666648,
      "d": 3116.666666666628,
      "v": 46
    },
    {
      "midi": 55,
      "hit": false,
      "t": 204449.9999999998,
      "d": 666.666666666657,
      "v": 56
    },
    {
      "midi": 59,
      "hit": false,
      "t": 204449.9999999998,
      "d": 666.666666666657,
      "v": 55
    },
    {
      "midi": 62,
      "hit": false,
      "t": 204449.9999999998,
      "d": 666.666666666657,
      "v": 57
    },
    {
      "midi": 55,
      "hit": false,
      "t": 205349.9999999998,
      "d": 666.666666666657,
      "v": 56
    },
    {
      "midi": 59,
      "hit": false,
      "t": 205349.9999999998,
      "d": 666.666666666657,
      "v": 62
    },
    {
      "midi": 62,
      "hit": false,
      "t": 205349.9999999998,
      "d": 666.666666666657,
      "v": 66
    },
    {
      "midi": 55,
      "hit": false,
      "t": 206233.3333333331,
      "d": 233.33333333334303,
      "v": 48
    },
    {
      "midi": 59,
      "hit": false,
      "t": 206233.3333333331,
      "d": 450,
      "v": 53
    },
    {
      "midi": 62,
      "hit": false,
      "t": 206233.3333333331,
      "d": 450,
      "v": 60
    },
    {
      "midi": 57,
      "hit": false,
      "t": 206683.3333333331,
      "d": 216.66666666665697,
      "v": 38
    },
    {
      "midi": 61,
      "hit": false,
      "t": 207133.3333333331,
      "d": 666.666666666657,
      "v": 66
    },
    {
      "midi": 42,
      "hit": false,
      "t": 207133.3333333331,
      "d": 1333.333333333314,
      "v": 36
    },
    {
      "midi": 57,
      "hit": false,
      "t": 207133.3333333331,
      "d": 1783.333333333314,
      "v": 50
    },
    {
      "midi": 64,
      "hit": false,
      "t": 208016.66666666642,
      "d": 683.333333333343,
      "v": 66
    },
    {
      "midi": 61,
      "hit": false,
      "t": 208466.66666666642,
      "d": 450,
      "v": 43
    },
    {
      "midi": 57,
      "hit": false,
      "t": 208916.66666666642,
      "d": 883.333333333343,
      "v": 57
    },
    {
      "midi": 61,
      "hit": false,
      "t": 208916.66666666642,
      "d": 883.333333333343,
      "v": 57
    },
    {
      "midi": 64,
      "hit": false,
      "t": 208916.66666666642,
      "d": 883.333333333343,
      "v": 68
    },
    {
      "midi": 57,
      "hit": false,
      "t": 209799.99999999977,
      "d": 450,
      "v": 41
    },
    {
      "midi": 61,
      "hit": false,
      "t": 209799.99999999977,
      "d": 450,
      "v": 53
    },
    {
      "midi": 64,
      "hit": false,
      "t": 209799.99999999977,
      "d": 450,
      "v": 53
    },
    {
      "midi": 57,
      "hit": false,
      "t": 210249.99999999977,
      "d": 233.33333333334303,
      "v": 13
    },
    {
      "midi": 57,
      "hit": false,
      "t": 210699.99999999977,
      "d": 666.666666666657,
      "v": 71
    },
    {
      "midi": 62,
      "hit": false,
      "t": 210699.99999999977,
      "d": 666.666666666657,
      "v": 66
    },
    {
      "midi": 66,
      "hit": false,
      "t": 210699.99999999977,
      "d": 666.666666666657,
      "v": 55
    },
    {
      "midi": 50,
      "hit": false,
      "t": 210699.99999999977,
      "d": 2683.333333333314,
      "v": 52
    },
    {
      "midi": 54,
      "hit": false,
      "t": 210699.99999999977,
      "d": 2899.999999999971,
      "v": 55
    },
    {
      "midi": 57,
      "hit": false,
      "t": 211599.99999999977,
      "d": 666.666666666657,
      "v": 22
    },
    {
      "midi": 62,
      "hit": false,
      "t": 211599.99999999977,
      "d": 666.666666666657,
      "v": 68
    },
    {
      "midi": 66,
      "hit": false,
      "t": 211599.99999999977,
      "d": 666.666666666657,
      "v": 66
    },
    {
      "midi": 57,
      "hit": false,
      "t": 212483.33333333308,
      "d": 666.666666666657,
      "v": 52
    },
    {
      "midi": 62,
      "hit": false,
      "t": 212483.33333333308,
      "d": 666.666666666657,
      "v": 67
    },
    {
      "midi": 66,
      "hit": false,
      "t": 212483.33333333308,
      "d": 666.666666666657,
      "v": 64
    },
    {
      "midi": 57,
      "hit": false,
      "t": 213383.33333333308,
      "d": 216.66666666665697,
      "v": 56
    },
    {
      "midi": 62,
      "hit": false,
      "t": 213383.33333333308,
      "d": 450,
      "v": 71
    },
    {
      "midi": 66,
      "hit": false,
      "t": 213383.33333333308,
      "d": 450,
      "v": 67
    },
    {
      "midi": 57,
      "hit": false,
      "t": 213833.33333333308,
      "d": 216.66666666665697,
      "v": 37
    },
    {
      "midi": 57,
      "hit": false,
      "t": 214266.6666666664,
      "d": 900,
      "v": 66
    },
    {
      "midi": 61,
      "hit": false,
      "t": 214266.6666666664,
      "d": 900,
      "v": 79
    },
    {
      "midi": 64,
      "hit": false,
      "t": 214266.6666666664,
      "d": 900,
      "v": 67
    },
    {
      "midi": 45,
      "hit": false,
      "t": 214266.6666666664,
      "d": 3133.333333333343,
      "v": 48
    },
    {
      "midi": 52,
      "hit": false,
      "t": 214266.6666666664,
      "d": 3133.333333333343,
      "v": 37
    },
    {
      "midi": 57,
      "hit": false,
      "t": 215166.6666666664,
      "d": 883.333333333343,
      "v": 51
    },
    {
      "midi": 61,
      "hit": false,
      "t": 215166.6666666664,
      "d": 883.333333333343,
      "v": 56
    },
    {
      "midi": 64,
      "hit": false,
      "t": 215166.6666666664,
      "d": 883.333333333343,
      "v": 68
    },
    {
      "midi": 57,
      "hit": false,
      "t": 216049.99999999974,
      "d": 233.33333333334303,
      "v": 29
    },
    {
      "midi": 61,
      "hit": false,
      "t": 216049.99999999974,
      "d": 683.333333333343,
      "v": 66
    },
    {
      "midi": 64,
      "hit": false,
      "t": 216049.99999999974,
      "d": 683.333333333343,
      "v": 66
    },
    {
      "midi": 64,
      "hit": false,
      "t": 216949.99999999974,
      "d": 450,
      "v": 67
    },
    {
      "midi": 57,
      "hit": false,
      "t": 216949.99999999974,
      "d": 666.666666666657,
      "v": 61
    },
    {
      "midi": 61,
      "hit": false,
      "t": 216949.99999999974,
      "d": 666.666666666657,
      "v": 73
    },
    {
      "midi": 59,
      "hit": false,
      "t": 217849.99999999974,
      "d": 666.666666666657,
      "v": 68
    },
    {
      "midi": 62,
      "hit": false,
      "t": 217849.99999999974,
      "d": 666.666666666657,
      "v": 61
    },
    {
      "midi": 55,
      "hit": false,
      "t": 217849.99999999974,
      "d": 883.3333333333139,
      "v": 68
    },
    {
      "midi": 43,
      "hit": false,
      "t": 217849.99999999974,
      "d": 3116.666666666628,
      "v": 42
    },
    {
      "midi": 50,
      "hit": false,
      "t": 217849.99999999974,
      "d": 3566.666666666628,
      "v": 48
    },
    {
      "midi": 55,
      "hit": false,
      "t": 218733.33333333305,
      "d": 666.666666666657,
      "v": 40
    },
    {
      "midi": 59,
      "hit": false,
      "t": 218733.33333333305,
      "d": 666.666666666657,
      "v": 68
    },
    {
      "midi": 62,
      "hit": false,
      "t": 218733.33333333305,
      "d": 666.666666666657,
      "v": 66
    },
    {
      "midi": 55,
      "hit": false,
      "t": 219633.33333333305,
      "d": 666.666666666657,
      "v": 47
    },
    {
      "midi": 59,
      "hit": false,
      "t": 219633.33333333305,
      "d": 666.666666666657,
      "v": 62
    },
    {
      "midi": 62,
      "hit": false,
      "t": 219633.33333333305,
      "d": 666.666666666657,
      "v": 63
    },
    {
      "midi": 55,
      "hit": false,
      "t": 220516.66666666637,
      "d": 233.33333333334303,
      "v": 52
    },
    {
      "midi": 59,
      "hit": false,
      "t": 220516.66666666637,
      "d": 450,
      "v": 67
    },
    {
      "midi": 62,
      "hit": false,
      "t": 220516.66666666637,
      "d": 450,
      "v": 63
    },
    {
      "midi": 57,
      "hit": false,
      "t": 220966.66666666637,
      "d": 216.66666666665697,
      "v": 45
    },
    {
      "midi": 57,
      "hit": false,
      "t": 221416.66666666637,
      "d": 666.666666666657,
      "v": 47
    },
    {
      "midi": 64,
      "hit": false,
      "t": 221416.66666666637,
      "d": 666.666666666657,
      "v": 66
    },
    {
      "midi": 61,
      "hit": false,
      "t": 221416.66666666637,
      "d": 883.3333333333139,
      "v": 67
    },
    {
      "midi": 42,
      "hit": false,
      "t": 221416.66666666637,
      "d": 3116.666666666657,
      "v": 46
    },
    {
      "midi": 57,
      "hit": false,
      "t": 222299.99999999968,
      "d": 683.333333333343,
      "v": 46
    },
    {
      "midi": 61,
      "hit": false,
      "t": 222299.99999999968,
      "d": 683.333333333343,
      "v": 51
    },
    {
      "midi": 64,
      "hit": false,
      "t": 222299.99999999968,
      "d": 683.333333333343,
      "v": 57
    },
    {
      "midi": 57,
      "hit": false,
      "t": 223199.99999999968,
      "d": 666.666666666657,
      "v": 63
    },
    {
      "midi": 61,
      "hit": false,
      "t": 223199.99999999968,
      "d": 666.666666666657,
      "v": 71
    },
    {
      "midi": 64,
      "hit": false,
      "t": 223199.99999999968,
      "d": 666.666666666657,
      "v": 63
    },
    {
      "midi": 64,
      "hit": false,
      "t": 224099.99999999968,
      "d": 433.33333333334303,
      "v": 67
    },
    {
      "midi": 57,
      "hit": false,
      "t": 224099.99999999968,
      "d": 666.6666666666861,
      "v": 58
    },
    {
      "midi": 61,
      "hit": false,
      "t": 224099.99999999968,
      "d": 666.6666666666861,
      "v": 62
    },
    {
      "midi": 59,
      "hit": false,
      "t": 224983.33333333302,
      "d": 666.666666666657,
      "v": 66
    },
    {
      "midi": 62,
      "hit": false,
      "t": 224983.33333333302,
      "d": 666.666666666657,
      "v": 66
    },
    {
      "midi": 55,
      "hit": false,
      "t": 224983.33333333302,
      "d": 900,
      "v": 61
    },
    {
      "midi": 40,
      "hit": false,
      "t": 224983.33333333302,
      "d": 3133.333333333314,
      "v": 53
    },
    {
      "midi": 55,
      "hit": false,
      "t": 225883.33333333302,
      "d": 666.666666666657,
      "v": 57
    },
    {
      "midi": 59,
      "hit": false,
      "t": 225883.33333333302,
      "d": 666.666666666657,
      "v": 64
    },
    {
      "midi": 62,
      "hit": false,
      "t": 225883.33333333302,
      "d": 666.666666666657,
      "v": 67
    },
    {
      "midi": 55,
      "hit": false,
      "t": 226766.66666666634,
      "d": 666.666666666657,
      "v": 41
    },
    {
      "midi": 59,
      "hit": false,
      "t": 226766.66666666634,
      "d": 666.666666666657,
      "v": 56
    },
    {
      "midi": 62,
      "hit": false,
      "t": 226766.66666666634,
      "d": 666.666666666657,
      "v": 61
    },
    {
      "midi": 55,
      "hit": false,
      "t": 227666.66666666634,
      "d": 666.666666666657,
      "v": 55
    },
    {
      "midi": 59,
      "hit": false,
      "t": 227666.66666666634,
      "d": 666.666666666657,
      "v": 57
    },
    {
      "midi": 62,
      "hit": false,
      "t": 227666.66666666634,
      "d": 666.666666666657,
      "v": 60
    },
    {
      "midi": 43,
      "hit": false,
      "t": 228549.99999999965,
      "d": 450,
      "v": 53
    },
    {
      "midi": 55,
      "hit": false,
      "t": 228549.99999999965,
      "d": 683.333333333343,
      "v": 68
    },
    {
      "midi": 59,
      "hit": false,
      "t": 228549.99999999965,
      "d": 683.333333333343,
      "v": 73
    },
    {
      "midi": 62,
      "hit": false,
      "t": 228549.99999999965,
      "d": 683.333333333343,
      "v": 66
    },
    {
      "midi": 57,
      "hit": false,
      "t": 229449.99999999965,
      "d": 666.666666666657,
      "v": 79
    },
    {
      "midi": 62,
      "hit": false,
      "t": 229449.99999999965,
      "d": 666.666666666657,
      "v": 67
    },
    {
      "midi": 42,
      "hit": false,
      "t": 229449.99999999965,
      "d": 2233.333333333314,
      "v": 57
    },
    {
      "midi": 54,
      "hit": false,
      "t": 230349.99999999965,
      "d": 666.666666666657,
      "v": 41
    },
    {
      "midi": 57,
      "hit": false,
      "t": 230349.99999999965,
      "d": 666.666666666657,
      "v": 57
    },
    {
      "midi": 62,
      "hit": false,
      "t": 230349.99999999965,
      "d": 666.666666666657,
      "v": 56
    },
    {
      "midi": 54,
      "hit": false,
      "t": 231233.33333333296,
      "d": 233.33333333334303,
      "v": 62
    },
    {
      "midi": 57,
      "hit": false,
      "t": 231233.33333333296,
      "d": 666.666666666657,
      "v": 63
    },
    {
      "midi": 62,
      "hit": false,
      "t": 231233.33333333296,
      "d": 666.666666666657,
      "v": 57
    },
    {
      "midi": 55,
      "hit": false,
      "t": 232133.33333333296,
      "d": 883.333333333343,
      "v": 64
    },
    {
      "midi": 59,
      "hit": false,
      "t": 232133.33333333296,
      "d": 883.333333333343,
      "v": 64
    },
    {
      "midi": 64,
      "hit": false,
      "t": 232133.33333333296,
      "d": 883.333333333343,
      "v": 64
    },
    {
      "midi": 40,
      "hit": false,
      "t": 232133.33333333296,
      "d": 1116.666666666686,
      "v": 45
    },
    {
      "midi": 55,
      "hit": false,
      "t": 233016.6666666663,
      "d": 450,
      "v": 53
    },
    {
      "midi": 59,
      "hit": false,
      "t": 233016.6666666663,
      "d": 666.666666666657,
      "v": 60
    },
    {
      "midi": 64,
      "hit": false,
      "t": 233016.6666666663,
      "d": 666.666666666657,
      "v": 66
    },
    {
      "midi": 57,
      "hit": false,
      "t": 233916.6666666663,
      "d": 666.666666666657,
      "v": 53
    },
    {
      "midi": 61,
      "hit": false,
      "t": 233916.6666666663,
      "d": 666.666666666657,
      "v": 66
    },
    {
      "midi": 64,
      "hit": false,
      "t": 233916.6666666663,
      "d": 666.666666666657,
      "v": 61
    },
    {
      "midi": 45,
      "hit": false,
      "t": 233916.6666666663,
      "d": 1566.666666666657,
      "v": 43
    },
    {
      "midi": 57,
      "hit": false,
      "t": 234799.99999999962,
      "d": 233.33333333334303,
      "v": 43
    },
    {
      "midi": 61,
      "hit": false,
      "t": 234799.99999999962,
      "d": 450,
      "v": 76
    },
    {
      "midi": 64,
      "hit": false,
      "t": 234799.99999999962,
      "d": 450,
      "v": 64
    },
    {
      "midi": 57,
      "hit": false,
      "t": 235249.99999999962,
      "d": 233.33333333334303,
      "v": 47
    },
    {
      "midi": 57,
      "hit": false,
      "t": 235699.99999999962,
      "d": 900,
      "v": 66
    },
    {
      "midi": 62,
      "hit": false,
      "t": 235699.99999999962,
      "d": 900,
      "v": 66
    },
    {
      "midi": 66,
      "hit": false,
      "t": 235699.99999999962,
      "d": 900,
      "v": 63
    },
    {
      "midi": 50,
      "hit": false,
      "t": 235699.99999999962,
      "d": 1333.333333333343,
      "v": 57
    },
    {
      "midi": 57,
      "hit": false,
      "t": 236599.99999999962,
      "d": 433.33333333334303,
      "v": 27
    },
    {
      "midi": 62,
      "hit": false,
      "t": 236599.99999999962,
      "d": 433.33333333334303,
      "v": 57
    },
    {
      "midi": 66,
      "hit": false,
      "t": 236599.99999999962,
      "d": 666.6666666666861,
      "v": 60
    },
    {
      "midi": 57,
      "hit": false,
      "t": 237033.33333333296,
      "d": 233.33333333334303,
      "v": 45
    },
    {
      "midi": 57,
      "hit": false,
      "t": 237266.6666666663,
      "d": 216.66666666665697,
      "v": 34
    },
    {
      "midi": 61,
      "hit": false,
      "t": 237483.33333333296,
      "d": 900,
      "v": 73
    },
    {
      "midi": 57,
      "hit": false,
      "t": 237483.33333333296,
      "d": 1333.333333333343,
      "v": 68
    },
    {
      "midi": 64,
      "hit": false,
      "t": 237483.33333333296,
      "d": 1333.333333333343,
      "v": 66
    },
    {
      "midi": 45,
      "hit": false,
      "t": 237483.33333333296,
      "d": 1566.666666666686,
      "v": 60
    },
    {
      "midi": 52,
      "hit": false,
      "t": 237483.33333333296,
      "d": 1566.666666666686,
      "v": 53
    },
    {
      "midi": 61,
      "hit": false,
      "t": 238383.33333333296,
      "d": 666.6666666666861,
      "v": 57
    },
    {
      "midi": 57,
      "hit": false,
      "t": 238816.6666666663,
      "d": 683.333333333343,
      "v": 58
    },
    {
      "midi": 62,
      "hit": false,
      "t": 239266.6666666663,
      "d": 233.33333333334303,
      "v": 84
    },
    {
      "midi": 66,
      "hit": false,
      "t": 239266.6666666663,
      "d": 233.33333333334303,
      "v": 82
    },
    {
      "midi": 81,
      "hit": false,
      "t": 239266.6666666663,
      "d": 233.33333333334303,
      "v": 79
    },
    {
      "midi": 86,
      "hit": false,
      "t": 239266.6666666663,
      "d": 233.33333333334303,
      "v": 82
    },
    {
      "midi": 90,
      "hit": false,
      "t": 239266.6666666663,
      "d": 233.33333333334303,
      "v": 79
    },
    {
      "midi": 62,
      "hit": false,
      "t": 242833.333333333,
      "d": 683.333333333343,
      "v": 69
    },
    {
      "midi": 66,
      "hit": false,
      "t": 242833.333333333,
      "d": 683.333333333343,
      "v": 79
    },
    {
      "midi": 69,
      "hit": false,
      "t": 242833.333333333,
      "d": 683.333333333343,
      "v": 64
    },
    {
      "midi": 50,
      "hit": false,
      "t": 242833.333333333,
      "d": 900,
      "v": 55
    },
    {
      "midi": 57,
      "hit": false,
      "t": 242833.333333333,
      "d": 2916.666666666657,
      "v": 57
    },
    {
      "midi": 54,
      "hit": false,
      "t": 242833.333333333,
      "d": 3133.333333333314,
      "v": 27
    },
    {
      "midi": 62,
      "hit": false,
      "t": 243733.333333333,
      "d": 666.666666666657,
      "v": 61
    },
    {
      "midi": 69,
      "hit": false,
      "t": 243733.333333333,
      "d": 666.666666666657,
      "v": 67
    },
    {
      "midi": 66,
      "hit": false,
      "t": 243733.333333333,
      "d": 900,
      "v": 82
    },
    {
      "midi": 62,
      "hit": false,
      "t": 244633.333333333,
      "d": 666.666666666657,
      "v": 56
    },
    {
      "midi": 66,
      "hit": false,
      "t": 244633.333333333,
      "d": 666.666666666657,
      "v": 51
    },
    {
      "midi": 69,
      "hit": false,
      "t": 244633.333333333,
      "d": 666.666666666657,
      "v": 57
    },
    {
      "midi": 62,
      "hit": false,
      "t": 245516.6666666663,
      "d": 450,
      "v": 66
    },
    {
      "midi": 66,
      "hit": false,
      "t": 245516.6666666663,
      "d": 450,
      "v": 71
    },
    {
      "midi": 69,
      "hit": false,
      "t": 245516.6666666663,
      "d": 450,
      "v": 66
    },
    {
      "midi": 66,
      "hit": false,
      "t": 246416.6666666663,
      "d": 666.666666666657,
      "v": 73
    },
    {
      "midi": 69,
      "hit": false,
      "t": 246416.6666666663,
      "d": 666.666666666657,
      "v": 67
    },
    {
      "midi": 73,
      "hit": false,
      "t": 246416.6666666663,
      "d": 666.666666666657,
      "v": 63
    },
    {
      "midi": 54,
      "hit": false,
      "t": 246416.6666666663,
      "d": 3116.666666666628,
      "v": 46
    },
    {
      "midi": 66,
      "hit": false,
      "t": 247299.99999999962,
      "d": 683.333333333343,
      "v": 76
    },
    {
      "midi": 69,
      "hit": false,
      "t": 247299.99999999962,
      "d": 683.333333333343,
      "v": 68
    },
    {
      "midi": 73,
      "hit": false,
      "t": 247299.99999999962,
      "d": 683.333333333343,
      "v": 62
    },
    {
      "midi": 66,
      "hit": false,
      "t": 248199.99999999962,
      "d": 666.666666666657,
      "v": 56
    },
    {
      "midi": 69,
      "hit": false,
      "t": 248199.99999999962,
      "d": 666.666666666657,
      "v": 53
    },
    {
      "midi": 73,
      "hit": false,
      "t": 248199.99999999962,
      "d": 666.666666666657,
      "v": 55
    },
    {
      "midi": 66,
      "hit": false,
      "t": 249083.33333333294,
      "d": 450,
      "v": 68
    },
    {
      "midi": 69,
      "hit": false,
      "t": 249083.33333333294,
      "d": 450,
      "v": 62
    },
    {
      "midi": 73,
      "hit": false,
      "t": 249083.33333333294,
      "d": 450,
      "v": 57
    },
    {
      "midi": 64,
      "hit": false,
      "t": 249983.33333333294,
      "d": 666.666666666657,
      "v": 67
    },
    {
      "midi": 67,
      "hit": false,
      "t": 249983.33333333294,
      "d": 666.666666666657,
      "v": 69
    },
    {
      "midi": 71,
      "hit": false,
      "t": 249983.33333333294,
      "d": 666.666666666657,
      "v": 61
    },
    {
      "midi": 52,
      "hit": false,
      "t": 249983.33333333294,
      "d": 1333.333333333343,
      "v": 35
    },
    {
      "midi": 64,
      "hit": false,
      "t": 250883.33333333294,
      "d": 433.33333333334303,
      "v": 67
    },
    {
      "midi": 67,
      "hit": false,
      "t": 250883.33333333294,
      "d": 433.33333333334303,
      "v": 68
    },
    {
      "midi": 71,
      "hit": false,
      "t": 250883.33333333294,
      "d": 433.33333333334303,
      "v": 63
    },
    {
      "midi": 66,
      "hit": false,
      "t": 251766.66666666628,
      "d": 666.666666666657,
      "v": 69
    },
    {
      "midi": 69,
      "hit": false,
      "t": 251766.66666666628,
      "d": 666.666666666657,
      "v": 57
    },
    {
      "midi": 73,
      "hit": false,
      "t": 251766.66666666628,
      "d": 666.666666666657,
      "v": 62
    },
    {
      "midi": 54,
      "hit": false,
      "t": 251766.66666666628,
      "d": 1350,
      "v": 58
    },
    {
      "midi": 66,
      "hit": false,
      "t": 252666.66666666628,
      "d": 450,
      "v": 63
    },
    {
      "midi": 69,
      "hit": false,
      "t": 252666.66666666628,
      "d": 450,
      "v": 63
    },
    {
      "midi": 73,
      "hit": false,
      "t": 252666.66666666628,
      "d": 666.666666666657,
      "v": 53
    },
    {
      "midi": 62,
      "hit": false,
      "t": 253549.9999999996,
      "d": 900,
      "v": 79
    },
    {
      "midi": 67,
      "hit": false,
      "t": 253549.9999999996,
      "d": 900,
      "v": 79
    },
    {
      "midi": 71,
      "hit": false,
      "t": 253549.9999999996,
      "d": 900,
      "v": 66
    },
    {
      "midi": 55,
      "hit": false,
      "t": 253549.9999999996,
      "d": 3350,
      "v": 66
    },
    {
      "midi": 62,
      "hit": false,
      "t": 254449.9999999996,
      "d": 883.333333333343,
      "v": 64
    },
    {
      "midi": 67,
      "hit": false,
      "t": 254449.9999999996,
      "d": 883.333333333343,
      "v": 63
    },
    {
      "midi": 71,
      "hit": false,
      "t": 254449.9999999996,
      "d": 883.333333333343,
      "v": 64
    },
    {
      "midi": 67,
      "hit": false,
      "t": 255333.33333333294,
      "d": 683.333333333343,
      "v": 66
    },
    {
      "midi": 62,
      "hit": false,
      "t": 255333.33333333294,
      "d": 900,
      "v": 62
    },
    {
      "midi": 71,
      "hit": false,
      "t": 255333.33333333294,
      "d": 900,
      "v": 63
    },
    {
      "midi": 62,
      "hit": false,
      "t": 256233.33333333294,
      "d": 216.66666666665697,
      "v": 53
    },
    {
      "midi": 67,
      "hit": false,
      "t": 256233.33333333294,
      "d": 666.666666666657,
      "v": 64
    },
    {
      "midi": 71,
      "hit": false,
      "t": 256233.33333333294,
      "d": 666.666666666657,
      "v": 53
    },
    {
      "midi": 64,
      "hit": false,
      "t": 257133.33333333294,
      "d": 883.333333333343,
      "v": 64
    },
    {
      "midi": 67,
      "hit": false,
      "t": 257133.33333333294,
      "d": 883.333333333343,
      "v": 67
    },
    {
      "midi": 71,
      "hit": false,
      "t": 257133.33333333294,
      "d": 883.333333333343,
      "v": 62
    },
    {
      "midi": 52,
      "hit": false,
      "t": 257133.33333333294,
      "d": 1333.333333333343,
      "v": 48
    },
    {
      "midi": 55,
      "hit": false,
      "t": 257133.33333333294,
      "d": 1333.333333333343,
      "v": 30
    },
    {
      "midi": 71,
      "hit": false,
      "t": 258016.66666666628,
      "d": 450,
      "v": 63
    },
    {
      "midi": 64,
      "hit": false,
      "t": 258016.66666666628,
      "d": 666.666666666657,
      "v": 57
    },
    {
      "midi": 67,
      "hit": false,
      "t": 258016.66666666628,
      "d": 666.666666666657,
      "v": 58
    },
    {
      "midi": 64,
      "hit": false,
      "t": 258916.66666666628,
      "d": 666.666666666657,
      "v": 63
    },
    {
      "midi": 69,
      "hit": false,
      "t": 258916.66666666628,
      "d": 666.666666666657,
      "v": 66
    },
    {
      "midi": 73,
      "hit": false,
      "t": 258916.66666666628,
      "d": 666.666666666657,
      "v": 68
    },
    {
      "midi": 57,
      "hit": false,
      "t": 258916.66666666628,
      "d": 1333.333333333314,
      "v": 45
    },
    {
      "midi": 52,
      "hit": false,
      "t": 258916.66666666628,
      "d": 1549.999999999971,
      "v": 43
    },
    {
      "midi": 64,
      "hit": false,
      "t": 259799.9999999996,
      "d": 666.666666666657,
      "v": 46
    },
    {
      "midi": 69,
      "hit": false,
      "t": 259799.9999999996,
      "d": 666.666666666657,
      "v": 57
    },
    {
      "midi": 73,
      "hit": false,
      "t": 259799.9999999996,
      "d": 666.666666666657,
      "v": 55
    },
    {
      "midi": 64,
      "hit": false,
      "t": 260699.9999999996,
      "d": 666.666666666657,
      "v": 52
    },
    {
      "midi": 69,
      "hit": false,
      "t": 260699.9999999996,
      "d": 666.666666666657,
      "v": 62
    },
    {
      "midi": 73,
      "hit": false,
      "t": 260699.9999999996,
      "d": 666.666666666657,
      "v": 66
    },
    {
      "midi": 52,
      "hit": false,
      "t": 260699.9999999996,
      "d": 1566.6666666666279,
      "v": 24
    },
    {
      "midi": 57,
      "hit": false,
      "t": 260699.9999999996,
      "d": 1566.6666666666279,
      "v": 33
    },
    {
      "midi": 64,
      "hit": false,
      "t": 261583.3333333329,
      "d": 683.3333333333139,
      "v": 66
    },
    {
      "midi": 69,
      "hit": false,
      "t": 261583.3333333329,
      "d": 683.3333333333139,
      "v": 68
    },
    {
      "midi": 73,
      "hit": false,
      "t": 261583.3333333329,
      "d": 683.3333333333139,
      "v": 68
    },
    {
      "midi": 55,
      "hit": false,
      "t": 262483.3333333329,
      "d": 483.33333333337214,
      "v": 64
    },
    {
      "midi": 67,
      "hit": false,
      "t": 262483.3333333329,
      "d": 516.6666666666861,
      "v": 84
    },
    {
      "midi": 62,
      "hit": false,
      "t": 262483.3333333329,
      "d": 533.3333333333721,
      "v": 87
    },
    {
      "midi": 71,
      "hit": false,
      "t": 262483.3333333329,
      "d": 566.6666666666861,
      "v": 68
    },
    {
      "midi": 50,
      "hit": false,
      "t": 262499.9999999996,
      "d": 316.66666666668607,
      "v": 61
    },
    {
      "midi": 64,
      "hit": false,
      "t": 263133.3333333329,
      "d": 566.6666666666861,
      "v": 71
    },
    {
      "midi": 71,
      "hit": false,
      "t": 263133.3333333329,
      "d": 733.3333333333721,
      "v": 73
    },
    {
      "midi": 68,
      "hit": false,
      "t": 263149.9999999996,
      "d": 700,
      "v": 87
    },
    {
      "midi": 56,
      "hit": false,
      "t": 263149.9999999996,
      "d": 750,
      "v": 69
    },
    {
      "midi": 52,
      "hit": false,
      "t": 263149.9999999996,
      "d": 783.3333333333139,
      "v": 64
    },
    {
      "midi": 64,
      "hit": false,
      "t": 263799.9999999996,
      "d": 316.66666666662786,
      "v": 61
    },
    {
      "midi": 57,
      "hit": false,
      "t": 264249.99999999953,
      "d": 283.33333333331393,
      "v": 76
    },
    {
      "midi": 73,
      "hit": false,
      "t": 264249.99999999953,
      "d": 283.33333333331393,
      "v": 91
    },
    {
      "midi": 64,
      "hit": false,
      "t": 264249.99999999953,
      "d": 300,
      "v": 84
    },
    {
      "midi": 69,
      "hit": false,
      "t": 264249.99999999953,
      "d": 300,
      "v": 99
    },
    {
      "midi": 52,
      "hit": false,
      "t": 264249.99999999953,
      "d": 316.66666666668607,
      "v": 62
    },
    {
      "midi": 57,
      "hit": false,
      "t": 267833.3333333329,
      "d": 683.3333333333139,
      "v": 71
    },
    {
      "midi": 62,
      "hit": false,
      "t": 267833.3333333329,
      "d": 683.3333333333139,
      "v": 66
    },
    {
      "midi": 66,
      "hit": false,
      "t": 267833.3333333329,
      "d": 683.3333333333139,
      "v": 55
    },
    {
      "midi": 50,
      "hit": false,
      "t": 267833.3333333329,
      "d": 2683.333333333372,
      "v": 52
    },
    {
      "midi": 54,
      "hit": false,
      "t": 267833.3333333329,
      "d": 2900.000000000058,
      "v": 55
    },
    {
      "midi": 57,
      "hit": false,
      "t": 268733.3333333329,
      "d": 666.6666666666861,
      "v": 22
    },
    {
      "midi": 62,
      "hit": false,
      "t": 268733.3333333329,
      "d": 666.6666666666861,
      "v": 68
    },
    {
      "midi": 66,
      "hit": false,
      "t": 268733.3333333329,
      "d": 666.6666666666861,
      "v": 66
    },
    {
      "midi": 57,
      "hit": false,
      "t": 269633.3333333329,
      "d": 666.6666666666861,
      "v": 52
    },
    {
      "midi": 62,
      "hit": false,
      "t": 269633.3333333329,
      "d": 666.6666666666861,
      "v": 67
    },
    {
      "midi": 66,
      "hit": false,
      "t": 269633.3333333329,
      "d": 666.6666666666861,
      "v": 64
    },
    {
      "midi": 57,
      "hit": false,
      "t": 270516.6666666663,
      "d": 216.66666666668607,
      "v": 56
    },
    {
      "midi": 62,
      "hit": false,
      "t": 270516.6666666663,
      "d": 450,
      "v": 71
    },
    {
      "midi": 66,
      "hit": false,
      "t": 270516.6666666663,
      "d": 450,
      "v": 67
    },
    {
      "midi": 57,
      "hit": false,
      "t": 270966.6666666663,
      "d": 216.66666666668607,
      "v": 37
    },
    {
      "midi": 57,
      "hit": false,
      "t": 271416.6666666663,
      "d": 883.3333333333139,
      "v": 66
    },
    {
      "midi": 61,
      "hit": false,
      "t": 271416.6666666663,
      "d": 883.3333333333139,
      "v": 79
    },
    {
      "midi": 64,
      "hit": false,
      "t": 271416.6666666663,
      "d": 883.3333333333139,
      "v": 67
    },
    {
      "midi": 45,
      "hit": false,
      "t": 271416.6666666663,
      "d": 3116.666666666686,
      "v": 48
    },
    {
      "midi": 52,
      "hit": false,
      "t": 271416.6666666663,
      "d": 3116.666666666686,
      "v": 37
    },
    {
      "midi": 57,
      "hit": false,
      "t": 272299.9999999996,
      "d": 900,
      "v": 51
    },
    {
      "midi": 61,
      "hit": false,
      "t": 272299.9999999996,
      "d": 900,
      "v": 56
    },
    {
      "midi": 64,
      "hit": false,
      "t": 272299.9999999996,
      "d": 900,
      "v": 68
    },
    {
      "midi": 57,
      "hit": false,
      "t": 273199.9999999996,
      "d": 216.66666666668607,
      "v": 29
    },
    {
      "midi": 61,
      "hit": false,
      "t": 273199.9999999996,
      "d": 666.6666666666861,
      "v": 66
    },
    {
      "midi": 64,
      "hit": false,
      "t": 273199.9999999996,
      "d": 666.6666666666861,
      "v": 66
    },
    {
      "midi": 64,
      "hit": false,
      "t": 274083.33333333296,
      "d": 450,
      "v": 67
    },
    {
      "midi": 57,
      "hit": false,
      "t": 274083.33333333296,
      "d": 683.3333333333139,
      "v": 61
    },
    {
      "midi": 61,
      "hit": false,
      "t": 274083.33333333296,
      "d": 683.3333333333139,
      "v": 73
    },
    {
      "midi": 59,
      "hit": false,
      "t": 274983.33333333296,
      "d": 666.6666666666861,
      "v": 68
    },
    {
      "midi": 62,
      "hit": false,
      "t": 274983.33333333296,
      "d": 666.6666666666861,
      "v": 61
    },
    {
      "midi": 55,
      "hit": false,
      "t": 274983.33333333296,
      "d": 900,
      "v": 68
    },
    {
      "midi": 43,
      "hit": false,
      "t": 274983.33333333296,
      "d": 3116.6666666667443,
      "v": 42
    },
    {
      "midi": 50,
      "hit": false,
      "t": 274983.33333333296,
      "d": 3566.6666666667443,
      "v": 48
    },
    {
      "midi": 55,
      "hit": false,
      "t": 275883.33333333296,
      "d": 666.6666666666861,
      "v": 40
    },
    {
      "midi": 59,
      "hit": false,
      "t": 275883.33333333296,
      "d": 666.6666666666861,
      "v": 68
    },
    {
      "midi": 62,
      "hit": false,
      "t": 275883.33333333296,
      "d": 666.6666666666861,
      "v": 66
    },
    {
      "midi": 55,
      "hit": false,
      "t": 276766.66666666634,
      "d": 666.6666666666861,
      "v": 47
    },
    {
      "midi": 59,
      "hit": false,
      "t": 276766.66666666634,
      "d": 666.6666666666861,
      "v": 62
    },
    {
      "midi": 62,
      "hit": false,
      "t": 276766.66666666634,
      "d": 666.6666666666861,
      "v": 63
    },
    {
      "midi": 55,
      "hit": false,
      "t": 277666.66666666634,
      "d": 216.66666666668607,
      "v": 52
    },
    {
      "midi": 59,
      "hit": false,
      "t": 277666.66666666634,
      "d": 433.33333333337214,
      "v": 67
    },
    {
      "midi": 62,
      "hit": false,
      "t": 277666.66666666634,
      "d": 433.33333333337214,
      "v": 63
    },
    {
      "midi": 57,
      "hit": false,
      "t": 278099.9999999997,
      "d": 233.33333333331393,
      "v": 45
    },
    {
      "midi": 57,
      "hit": false,
      "t": 278549.9999999997,
      "d": 666.6666666666861,
      "v": 47
    },
    {
      "midi": 64,
      "hit": false,
      "t": 278549.9999999997,
      "d": 666.6666666666861,
      "v": 66
    },
    {
      "midi": 61,
      "hit": false,
      "t": 278549.9999999997,
      "d": 900,
      "v": 67
    },
    {
      "midi": 42,
      "hit": false,
      "t": 278549.9999999997,
      "d": 3133.333333333372,
      "v": 46
    },
    {
      "midi": 57,
      "hit": false,
      "t": 279449.9999999997,
      "d": 666.6666666666861,
      "v": 46
    },
    {
      "midi": 61,
      "hit": false,
      "t": 279449.9999999997,
      "d": 666.6666666666861,
      "v": 51
    },
    {
      "midi": 64,
      "hit": false,
      "t": 279449.9999999997,
      "d": 666.6666666666861,
      "v": 57
    },
    {
      "midi": 57,
      "hit": false,
      "t": 280333.3333333331,
      "d": 683.3333333333139,
      "v": 63
    },
    {
      "midi": 61,
      "hit": false,
      "t": 280333.3333333331,
      "d": 683.3333333333139,
      "v": 71
    },
    {
      "midi": 64,
      "hit": false,
      "t": 280333.3333333331,
      "d": 683.3333333333139,
      "v": 63
    },
    {
      "midi": 64,
      "hit": false,
      "t": 281233.3333333331,
      "d": 450,
      "v": 67
    },
    {
      "midi": 57,
      "hit": false,
      "t": 281233.3333333331,
      "d": 666.6666666666861,
      "v": 58
    },
    {
      "midi": 61,
      "hit": false,
      "t": 281233.3333333331,
      "d": 666.6666666666861,
      "v": 62
    },
    {
      "midi": 59,
      "hit": false,
      "t": 282116.66666666645,
      "d": 683.3333333333139,
      "v": 66
    },
    {
      "midi": 62,
      "hit": false,
      "t": 282116.66666666645,
      "d": 683.3333333333139,
      "v": 66
    },
    {
      "midi": 55,
      "hit": false,
      "t": 282116.66666666645,
      "d": 900,
      "v": 61
    },
    {
      "midi": 40,
      "hit": false,
      "t": 282116.66666666645,
      "d": 3133.333333333372,
      "v": 53
    },
    {
      "midi": 55,
      "hit": false,
      "t": 283016.66666666645,
      "d": 666.6666666666861,
      "v": 57
    },
    {
      "midi": 59,
      "hit": false,
      "t": 283016.66666666645,
      "d": 666.6666666666861,
      "v": 64
    },
    {
      "midi": 62,
      "hit": false,
      "t": 283016.66666666645,
      "d": 666.6666666666861,
      "v": 67
    },
    {
      "midi": 55,
      "hit": false,
      "t": 283916.66666666645,
      "d": 666.6666666666861,
      "v": 41
    },
    {
      "midi": 59,
      "hit": false,
      "t": 283916.66666666645,
      "d": 666.6666666666861,
      "v": 56
    },
    {
      "midi": 62,
      "hit": false,
      "t": 283916.66666666645,
      "d": 666.6666666666861,
      "v": 61
    },
    {
      "midi": 55,
      "hit": false,
      "t": 284799.9999999998,
      "d": 666.6666666666861,
      "v": 55
    },
    {
      "midi": 59,
      "hit": false,
      "t": 284799.9999999998,
      "d": 666.6666666666861,
      "v": 57
    },
    {
      "midi": 62,
      "hit": false,
      "t": 284799.9999999998,
      "d": 666.6666666666861,
      "v": 60
    },
    {
      "midi": 43,
      "hit": false,
      "t": 285699.9999999998,
      "d": 450,
      "v": 53
    },
    {
      "midi": 55,
      "hit": false,
      "t": 285699.9999999998,
      "d": 666.6666666666861,
      "v": 68
    },
    {
      "midi": 59,
      "hit": false,
      "t": 285699.9999999998,
      "d": 666.6666666666861,
      "v": 73
    },
    {
      "midi": 62,
      "hit": false,
      "t": 285699.9999999998,
      "d": 666.6666666666861,
      "v": 66
    },
    {
      "midi": 57,
      "hit": false,
      "t": 286583.3333333332,
      "d": 683.3333333333139,
      "v": 79
    },
    {
      "midi": 62,
      "hit": false,
      "t": 286583.3333333332,
      "d": 683.3333333333139,
      "v": 67
    },
    {
      "midi": 42,
      "hit": false,
      "t": 286583.3333333332,
      "d": 2233.333333333372,
      "v": 57
    },
    {
      "midi": 54,
      "hit": false,
      "t": 287483.3333333332,
      "d": 666.6666666666861,
      "v": 41
    },
    {
      "midi": 57,
      "hit": false,
      "t": 287483.3333333332,
      "d": 666.6666666666861,
      "v": 57
    },
    {
      "midi": 62,
      "hit": false,
      "t": 287483.3333333332,
      "d": 666.6666666666861,
      "v": 56
    },
    {
      "midi": 54,
      "hit": false,
      "t": 288366.66666666657,
      "d": 233.33333333331393,
      "v": 62
    },
    {
      "midi": 57,
      "hit": false,
      "t": 288366.66666666657,
      "d": 683.3333333333139,
      "v": 63
    },
    {
      "midi": 62,
      "hit": false,
      "t": 288366.66666666657,
      "d": 683.3333333333139,
      "v": 57
    },
    {
      "midi": 55,
      "hit": false,
      "t": 289266.66666666657,
      "d": 900,
      "v": 64
    },
    {
      "midi": 59,
      "hit": false,
      "t": 289266.66666666657,
      "d": 900,
      "v": 64
    },
    {
      "midi": 64,
      "hit": false,
      "t": 289266.66666666657,
      "d": 900,
      "v": 64
    },
    {
      "midi": 40,
      "hit": false,
      "t": 289266.66666666657,
      "d": 1116.666666666686,
      "v": 45
    },
    {
      "midi": 55,
      "hit": false,
      "t": 290166.66666666657,
      "d": 433.33333333337214,
      "v": 53
    },
    {
      "midi": 59,
      "hit": false,
      "t": 290166.66666666657,
      "d": 666.6666666666861,
      "v": 60
    },
    {
      "midi": 64,
      "hit": false,
      "t": 290166.66666666657,
      "d": 666.6666666666861,
      "v": 66
    },
    {
      "midi": 57,
      "hit": false,
      "t": 291049.99999999994,
      "d": 666.6666666666861,
      "v": 53
    },
    {
      "midi": 61,
      "hit": false,
      "t": 291049.99999999994,
      "d": 666.6666666666861,
      "v": 66
    },
    {
      "midi": 64,
      "hit": false,
      "t": 291049.99999999994,
      "d": 666.6666666666861,
      "v": 61
    },
    {
      "midi": 45,
      "hit": false,
      "t": 291049.99999999994,
      "d": 1566.666666666686,
      "v": 43
    },
    {
      "midi": 57,
      "hit": false,
      "t": 291949.99999999994,
      "d": 216.66666666668607,
      "v": 43
    },
    {
      "midi": 61,
      "hit": false,
      "t": 291949.99999999994,
      "d": 450,
      "v": 76
    },
    {
      "midi": 64,
      "hit": false,
      "t": 291949.99999999994,
      "d": 450,
      "v": 64
    },
    {
      "midi": 57,
      "hit": false,
      "t": 292399.99999999994,
      "d": 216.66666666668607,
      "v": 47
    },
    {
      "midi": 57,
      "hit": false,
      "t": 292833.3333333333,
      "d": 900,
      "v": 66
    },
    {
      "midi": 62,
      "hit": false,
      "t": 292833.3333333333,
      "d": 900,
      "v": 66
    },
    {
      "midi": 66,
      "hit": false,
      "t": 292833.3333333333,
      "d": 900,
      "v": 63
    },
    {
      "midi": 50,
      "hit": false,
      "t": 292833.3333333333,
      "d": 1350,
      "v": 57
    },
    {
      "midi": 57,
      "hit": false,
      "t": 293733.3333333333,
      "d": 450,
      "v": 27
    },
    {
      "midi": 62,
      "hit": false,
      "t": 293733.3333333333,
      "d": 450,
      "v": 57
    },
    {
      "midi": 66,
      "hit": false,
      "t": 293733.3333333333,
      "d": 666.6666666666861,
      "v": 60
    },
    {
      "midi": 57,
      "hit": false,
      "t": 294183.3333333333,
      "d": 216.66666666668607,
      "v": 45
    },
    {
      "midi": 57,
      "hit": false,
      "t": 294400,
      "d": 216.66666666668607,
      "v": 34
    },
    {
      "midi": 61,
      "hit": false,
      "t": 294616.6666666667,
      "d": 900,
      "v": 73
    },
    {
      "midi": 57,
      "hit": false,
      "t": 294616.6666666667,
      "d": 1350,
      "v": 68
    },
    {
      "midi": 64,
      "hit": false,
      "t": 294616.6666666667,
      "d": 1350,
      "v": 66
    },
    {
      "midi": 45,
      "hit": false,
      "t": 294616.6666666667,
      "d": 1566.666666666686,
      "v": 60
    },
    {
      "midi": 52,
      "hit": false,
      "t": 294616.6666666667,
      "d": 1566.666666666686,
      "v": 53
    },
    {
      "midi": 61,
      "hit": false,
      "t": 295516.6666666667,
      "d": 666.6666666666861,
      "v": 57
    },
    {
      "midi": 57,
      "hit": false,
      "t": 295966.6666666667,
      "d": 450,
      "v": 58
    },
    {
      "midi": 59,
      "hit": false,
      "t": 296416.6666666667,
      "d": 666.6666666666861,
      "v": 66
    },
    {
      "midi": 62,
      "hit": false,
      "t": 296416.6666666667,
      "d": 666.6666666666861,
      "v": 66
    },
    {
      "midi": 55,
      "hit": false,
      "t": 296416.6666666667,
      "d": 883.3333333333721,
      "v": 61
    },
    {
      "midi": 40,
      "hit": false,
      "t": 296416.6666666667,
      "d": 3116.6666666667443,
      "v": 53
    },
    {
      "midi": 55,
      "hit": false,
      "t": 297300.00000000006,
      "d": 666.6666666666861,
      "v": 57
    },
    {
      "midi": 59,
      "hit": false,
      "t": 297300.00000000006,
      "d": 666.6666666666861,
      "v": 64
    },
    {
      "midi": 62,
      "hit": false,
      "t": 297300.00000000006,
      "d": 666.6666666666861,
      "v": 67
    },
    {
      "midi": 55,
      "hit": false,
      "t": 298200.00000000006,
      "d": 666.6666666666861,
      "v": 41
    },
    {
      "midi": 59,
      "hit": false,
      "t": 298200.00000000006,
      "d": 666.6666666666861,
      "v": 56
    },
    {
      "midi": 62,
      "hit": false,
      "t": 298200.00000000006,
      "d": 666.6666666666861,
      "v": 61
    },
    {
      "midi": 55,
      "hit": false,
      "t": 299083.33333333343,
      "d": 666.6666666666861,
      "v": 55
    },
    {
      "midi": 59,
      "hit": false,
      "t": 299083.33333333343,
      "d": 666.6666666666861,
      "v": 57
    },
    {
      "midi": 62,
      "hit": false,
      "t": 299083.33333333343,
      "d": 666.6666666666861,
      "v": 60
    },
    {
      "midi": 43,
      "hit": false,
      "t": 299983.33333333343,
      "d": 450,
      "v": 53
    },
    {
      "midi": 55,
      "hit": false,
      "t": 299983.33333333343,
      "d": 666.6666666666861,
      "v": 68
    },
    {
      "midi": 59,
      "hit": false,
      "t": 299983.33333333343,
      "d": 666.6666666666861,
      "v": 73
    },
    {
      "midi": 62,
      "hit": false,
      "t": 299983.33333333343,
      "d": 666.6666666666861,
      "v": 66
    },
    {
      "midi": 57,
      "hit": false,
      "t": 300866.6666666668,
      "d": 683.3333333333139,
      "v": 79
    },
    {
      "midi": 62,
      "hit": false,
      "t": 300866.6666666668,
      "d": 683.3333333333139,
      "v": 67
    },
    {
      "midi": 42,
      "hit": false,
      "t": 300866.6666666668,
      "d": 2233.333333333372,
      "v": 57
    },
    {
      "midi": 54,
      "hit": false,
      "t": 301766.6666666668,
      "d": 666.6666666666861,
      "v": 41
    },
    {
      "midi": 57,
      "hit": false,
      "t": 301766.6666666668,
      "d": 666.6666666666861,
      "v": 57
    },
    {
      "midi": 62,
      "hit": false,
      "t": 301766.6666666668,
      "d": 666.6666666666861,
      "v": 56
    },
    {
      "midi": 54,
      "hit": false,
      "t": 302666.6666666668,
      "d": 216.66666666668607,
      "v": 62
    },
    {
      "midi": 57,
      "hit": false,
      "t": 302666.6666666668,
      "d": 666.6666666666861,
      "v": 63
    },
    {
      "midi": 62,
      "hit": false,
      "t": 302666.6666666668,
      "d": 666.6666666666861,
      "v": 57
    },
    {
      "midi": 55,
      "hit": false,
      "t": 303550.0000000002,
      "d": 900,
      "v": 64
    },
    {
      "midi": 59,
      "hit": false,
      "t": 303550.0000000002,
      "d": 900,
      "v": 64
    },
    {
      "midi": 64,
      "hit": false,
      "t": 303550.0000000002,
      "d": 900,
      "v": 64
    },
    {
      "midi": 40,
      "hit": false,
      "t": 303550.0000000002,
      "d": 1116.666666666686,
      "v": 45
    },
    {
      "midi": 55,
      "hit": false,
      "t": 304450.0000000002,
      "d": 433.33333333337214,
      "v": 53
    },
    {
      "midi": 59,
      "hit": false,
      "t": 304450.0000000002,
      "d": 666.6666666666861,
      "v": 60
    },
    {
      "midi": 64,
      "hit": false,
      "t": 304450.0000000002,
      "d": 666.6666666666861,
      "v": 66
    },
    {
      "midi": 57,
      "hit": false,
      "t": 305333.33333333355,
      "d": 666.6666666666861,
      "v": 53
    },
    {
      "midi": 61,
      "hit": false,
      "t": 305333.33333333355,
      "d": 666.6666666666861,
      "v": 66
    },
    {
      "midi": 64,
      "hit": false,
      "t": 305333.33333333355,
      "d": 666.6666666666861,
      "v": 61
    },
    {
      "midi": 45,
      "hit": false,
      "t": 305333.33333333355,
      "d": 1566.666666666686,
      "v": 43
    },
    {
      "midi": 78,
      "hit": false,
      "t": 310700.00000000023,
      "d": 883.3333333333139,
      "v": 71
    },
    {
      "midi": 50,
      "hit": false,
      "t": 310700.00000000023,
      "d": 3116.666666666628,
      "v": 66
    },
    {
      "midi": 57,
      "hit": false,
      "t": 310700.00000000023,
      "d": 3349.999999999942,
      "v": 41
    },
    {
      "midi": 69,
      "hit": false,
      "t": 310700.00000000023,
      "d": 3349.999999999942,
      "v": 79
    },
    {
      "midi": 74,
      "hit": false,
      "t": 311583.33333333355,
      "d": 900,
      "v": 61
    },
    {
      "midi": 78,
      "hit": false,
      "t": 311583.33333333355,
      "d": 900,
      "v": 34
    },
    {
      "midi": 76,
      "hit": false,
      "t": 312483.33333333355,
      "d": 883.3333333333139,
      "v": 63
    },
    {
      "midi": 78,
      "hit": false,
      "t": 312483.33333333355,
      "d": 1566.6666666666279,
      "v": 56
    },
    {
      "midi": 74,
      "hit": false,
      "t": 313366.66666666686,
      "d": 683.3333333333139,
      "v": 69
    },
    {
      "midi": 74,
      "hit": false,
      "t": 314266.66666666686,
      "d": 900,
      "v": 69
    },
    {
      "midi": 78,
      "hit": false,
      "t": 314266.66666666686,
      "d": 1566.6666666666279,
      "v": 64
    },
    {
      "midi": 71,
      "hit": false,
      "t": 314266.66666666686,
      "d": 1783.333333333314,
      "v": 66
    },
    {
      "midi": 47,
      "hit": false,
      "t": 314266.66666666686,
      "d": 3116.666666666628,
      "v": 62
    },
    {
      "midi": 74,
      "hit": false,
      "t": 315166.66666666686,
      "d": 433.33333333331393,
      "v": 45
    },
    {
      "midi": 71,
      "hit": false,
      "t": 316050.0000000002,
      "d": 666.6666666666861,
      "v": 38
    },
    {
      "midi": 73,
      "hit": false,
      "t": 316050.0000000002,
      "d": 666.6666666666861,
      "v": 68
    },
    {
      "midi": 78,
      "hit": false,
      "t": 316050.0000000002,
      "d": 1566.6666666666279,
      "v": 55
    },
    {
      "midi": 71,
      "hit": false,
      "t": 316950.0000000002,
      "d": 666.6666666666279,
      "v": 58
    },
    {
      "midi": 71,
      "hit": false,
      "t": 317833.3333333335,
      "d": 666.6666666666861,
      "v": 66
    },
    {
      "midi": 74,
      "hit": false,
      "t": 317833.3333333335,
      "d": 666.6666666666861,
      "v": 61
    },
    {
      "midi": 67,
      "hit": false,
      "t": 317833.3333333335,
      "d": 2683.333333333372,
      "v": 69
    },
    {
      "midi": 43,
      "hit": false,
      "t": 317833.3333333335,
      "d": 3133.333333333372,
      "v": 46
    },
    {
      "midi": 74,
      "hit": false,
      "t": 318733.3333333335,
      "d": 666.6666666666861,
      "v": 40
    },
    {
      "midi": 71,
      "hit": false,
      "t": 318733.3333333335,
      "d": 883.3333333333721,
      "v": 57
    },
    {
      "midi": 69,
      "hit": false,
      "t": 319616.66666666686,
      "d": 683.3333333333139,
      "v": 76
    },
    {
      "midi": 74,
      "hit": false,
      "t": 319616.66666666686,
      "d": 900,
      "v": 63
    },
    {
      "midi": 67,
      "hit": false,
      "t": 320516.66666666686,
      "d": 666.6666666666861,
      "v": 40
    },
    {
      "midi": 71,
      "hit": false,
      "t": 320516.66666666686,
      "d": 666.6666666666861,
      "v": 66
    },
    {
      "midi": 74,
      "hit": false,
      "t": 320516.66666666686,
      "d": 666.6666666666861,
      "v": 55
    },
    {
      "midi": 69,
      "hit": false,
      "t": 321400.00000000023,
      "d": 900,
      "v": 66
    },
    {
      "midi": 73,
      "hit": false,
      "t": 321400.00000000023,
      "d": 1350,
      "v": 68
    },
    {
      "midi": 45,
      "hit": false,
      "t": 321400.00000000023,
      "d": 1566.666666666686,
      "v": 67
    },
    {
      "midi": 69,
      "hit": false,
      "t": 322750.00000000023,
      "d": 450,
      "v": 38
    },
    {
      "midi": 74,
      "hit": false,
      "t": 323200.00000000023,
      "d": 666.6666666666861,
      "v": 82
    },
    {
      "midi": 76,
      "hit": false,
      "t": 323200.00000000023,
      "d": 666.6666666666861,
      "v": 66
    },
    {
      "midi": 45,
      "hit": false,
      "t": 323200.00000000023,
      "d": 1116.666666666686,
      "v": 47
    },
    {
      "midi": 69,
      "hit": false,
      "t": 323200.00000000023,
      "d": 1783.333333333314,
      "v": 53
    },
    {
      "midi": 76,
      "hit": false,
      "t": 324083.3333333336,
      "d": 666.6666666666279,
      "v": 82
    },
    {
      "midi": 74,
      "hit": false,
      "t": 324983.33333333355,
      "d": 1550,
      "v": 68
    },
    {
      "midi": 78,
      "hit": false,
      "t": 324983.33333333355,
      "d": 1783.333333333314,
      "v": 71
    },
    {
      "midi": 50,
      "hit": false,
      "t": 324983.33333333355,
      "d": 3116.666666666686,
      "v": 57
    },
    {
      "midi": 57,
      "hit": false,
      "t": 324983.33333333355,
      "d": 3116.666666666686,
      "v": 32
    },
    {
      "midi": 69,
      "hit": false,
      "t": 324983.33333333355,
      "d": 3350,
      "v": 52
    },
    {
      "midi": 78,
      "hit": false,
      "t": 326766.66666666686,
      "d": 666.6666666666861,
      "v": 55
    },
    {
      "midi": 76,
      "hit": false,
      "t": 326766.66666666686,
      "d": 883.3333333333721,
      "v": 68
    },
    {
      "midi": 78,
      "hit": false,
      "t": 327650.00000000023,
      "d": 900,
      "v": 56
    }
  ]
}