{
  "jsonPath": "Rock/Soft Rock/Seal/hey-joe-live.json",
  "path": "Rock\\Soft Rock\\Seal\\Hey Joe Live.mid",
  "name": "Hey Joe Live",
  "difficulty": "Advanced",
  "bpm": 80,
  "notes": [
    {
      "midi": 64,
      "hit": false,
      "t": 9000,
      "d": 695.3125,
      "v": 94
    },
    {
      "midi": 60,
      "hit": false,
      "t": 9000,
      "d": 718.75,
      "v": 95
    },
    {
      "midi": 55,
      "hit": false,
      "t": 9000,
      "d": 859.375,
      "v": 89
    },
    {
      "midi": 48,
      "hit": false,
      "t": 9000,
      "d": 1460.9375,
      "v": 97
    },
    {
      "midi": 64,
      "hit": false,
      "t": 9750,
      "d": 257.8125,
      "v": 89
    },
    {
      "midi": 60,
      "hit": false,
      "t": 9750,
      "d": 445.3125,
      "v": 85
    },
    {
      "midi": 55,
      "hit": false,
      "t": 10125,
      "d": 289.0625,
      "v": 81
    },
    {
      "midi": 55,
      "hit": false,
      "t": 10500,
      "d": 671.875,
      "v": 81
    },
    {
      "midi": 43,
      "hit": false,
      "t": 10500,
      "d": 679.6875,
      "v": 93
    },
    {
      "midi": 62,
      "hit": false,
      "t": 10500,
      "d": 695.3125,
      "v": 89
    },
    {
      "midi": 59,
      "hit": false,
      "t": 10500,
      "d": 703.125,
      "v": 86
    },
    {
      "midi": 55,
      "hit": false,
      "t": 11250,
      "d": 109.375,
      "v": 79
    },
    {
      "midi": 59,
      "hit": false,
      "t": 11250,
      "d": 390.625,
      "v": 81
    },
    {
      "midi": 62,
      "hit": false,
      "t": 11250,
      "d": 398.4375,
      "v": 85
    },
    {
      "midi": 43,
      "hit": false,
      "t": 11250,
      "d": 648.4375,
      "v": 93
    },
    {
      "midi": 55,
      "hit": false,
      "t": 11625,
      "d": 93.75,
      "v": 79
    },
    {
      "midi": 50,
      "hit": false,
      "t": 12000,
      "d": 679.6875,
      "v": 92
    },
    {
      "midi": 62,
      "hit": false,
      "t": 12000,
      "d": 687.5,
      "v": 88
    },
    {
      "midi": 66,
      "hit": false,
      "t": 12000,
      "d": 703.125,
      "v": 93
    },
    {
      "midi": 57,
      "hit": false,
      "t": 12000,
      "d": 882.8125,
      "v": 82
    },
    {
      "midi": 62,
      "hit": false,
      "t": 12750,
      "d": 429.6875,
      "v": 90
    },
    {
      "midi": 66,
      "hit": false,
      "t": 12750,
      "d": 468.75,
      "v": 83
    },
    {
      "midi": 50,
      "hit": false,
      "t": 12750,
      "d": 703.125,
      "v": 90
    },
    {
      "midi": 57,
      "hit": false,
      "t": 13125,
      "d": 234.375,
      "v": 62
    },
    {
      "midi": 64,
      "hit": false,
      "t": 13500,
      "d": 117.1875,
      "v": 63
    },
    {
      "midi": 57,
      "hit": false,
      "t": 13500,
      "d": 125,
      "v": 70
    },
    {
      "midi": 61,
      "hit": false,
      "t": 13500,
      "d": 132.8125,
      "v": 57
    },
    {
      "midi": 45,
      "hit": false,
      "t": 13500,
      "d": 687.5,
      "v": 93
    },
    {
      "midi": 57,
      "hit": false,
      "t": 13875,
      "d": 148.4375,
      "v": 69
    },
    {
      "midi": 64,
      "hit": false,
      "t": 13875,
      "d": 164.0625,
      "v": 57
    },
    {
      "midi": 57,
      "hit": false,
      "t": 14250,
      "d": 109.375,
      "v": 81
    },
    {
      "midi": 61,
      "hit": false,
      "t": 14250,
      "d": 460.9375,
      "v": 82
    },
    {
      "midi": 64,
      "hit": false,
      "t": 14250,
      "d": 500,
      "v": 88
    },
    {
      "midi": 45,
      "hit": false,
      "t": 14250,
      "d": 687.5,
      "v": 93
    },
    {
      "midi": 57,
      "hit": false,
      "t": 14625,
      "d": 359.375,
      "v": 72
    },
    {
      "midi": 40,
      "hit": false,
      "t": 15000,
      "d": 632.8125,
      "v": 81
    },
    {
      "midi": 52,
      "hit": false,
      "t": 15750,
      "d": 187.5,
      "v": 93
    },
    {
      "midi": 59,
      "hit": false,
      "t": 15750,
      "d": 632.8125,
      "v": 93
    },
    {
      "midi": 40,
      "hit": false,
      "t": 15750,
      "d": 656.25,
      "v": 95
    },
    {
      "midi": 52,
      "hit": false,
      "t": 16125,
      "d": 257.8125,
      "v": 82
    },
    {
      "midi": 52,
      "hit": false,
      "t": 16500,
      "d": 132.8125,
      "v": 92
    },
    {
      "midi": 40,
      "hit": false,
      "t": 16500,
      "d": 382.8125,
      "v": 94
    },
    {
      "midi": 59,
      "hit": false,
      "t": 16500,
      "d": 992.1875,
      "v": 95
    },
    {
      "midi": 52,
      "hit": false,
      "t": 16875,
      "d": 242.1875,
      "v": 86
    },
    {
      "midi": 40,
      "hit": false,
      "t": 17062.5,
      "d": 812.5,
      "v": 109
    },
    {
      "midi": 52,
      "hit": false,
      "t": 17437.5,
      "d": 132.8125,
      "v": 91
    },
    {
      "midi": 59,
      "hit": false,
      "t": 17625,
      "d": 1039.0625,
      "v": 95
    },
    {
      "midi": 40,
      "hit": false,
      "t": 18000,
      "d": 679.6875,
      "v": 114
    },
    {
      "midi": 52,
      "hit": false,
      "t": 18750,
      "d": 132.8125,
      "v": 84
    },
    {
      "midi": 40,
      "hit": false,
      "t": 18750,
      "d": 429.6875,
      "v": 87
    },
    {
      "midi": 59,
      "hit": false,
      "t": 18750,
      "d": 648.4375,
      "v": 93
    },
    {
      "midi": 52,
      "hit": false,
      "t": 19125,
      "d": 210.9375,
      "v": 81
    },
    {
      "midi": 40,
      "hit": false,
      "t": 19312.5,
      "d": 664.0625,
      "v": 93
    },
    {
      "midi": 52,
      "hit": false,
      "t": 19500,
      "d": 148.4375,
      "v": 83
    },
    {
      "midi": 59,
      "hit": false,
      "t": 19500,
      "d": 1015.625,
      "v": 87
    },
    {
      "midi": 52,
      "hit": false,
      "t": 19875,
      "d": 234.375,
      "v": 83
    },
    {
      "midi": 40,
      "hit": false,
      "t": 20062.5,
      "d": 882.8125,
      "v": 94
    },
    {
      "midi": 52,
      "hit": false,
      "t": 20437.5,
      "d": 250,
      "v": 92
    },
    {
      "midi": 59,
      "hit": false,
      "t": 20625,
      "d": 148.4375,
      "v": 93
    },
    {
      "midi": 64,
      "hit": false,
      "t": 21000,
      "d": 695.3125,
      "v": 94
    },
    {
      "midi": 60,
      "hit": false,
      "t": 21000,
      "d": 718.75,
      "v": 95
    },
    {
      "midi": 55,
      "hit": false,
      "t": 21000,
      "d": 859.375,
      "v": 89
    },
    {
      "midi": 48,
      "hit": false,
      "t": 21000,
      "d": 1460.9375,
      "v": 97
    },
    {
      "midi": 64,
      "hit": false,
      "t": 21750,
      "d": 257.8125,
      "v": 89
    },
    {
      "midi": 60,
      "hit": false,
      "t": 21750,
      "d": 445.3125,
      "v": 85
    },
    {
      "midi": 55,
      "hit": false,
      "t": 22125,
      "d": 289.0625,
      "v": 81
    },
    {
      "midi": 55,
      "hit": false,
      "t": 22500,
      "d": 671.875,
      "v": 81
    },
    {
      "midi": 43,
      "hit": false,
      "t": 22500,
      "d": 679.6875,
      "v": 93
    },
    {
      "midi": 62,
      "hit": false,
      "t": 22500,
      "d": 695.3125,
      "v": 89
    },
    {
      "midi": 59,
      "hit": false,
      "t": 22500,
      "d": 703.125,
      "v": 86
    },
    {
      "midi": 55,
      "hit": false,
      "t": 23250,
      "d": 109.375,
      "v": 79
    },
    {
      "midi": 59,
      "hit": false,
      "t": 23250,
      "d": 390.625,
      "v": 81
    },
    {
      "midi": 62,
      "hit": false,
      "t": 23250,
      "d": 398.4375,
      "v": 85
    },
    {
      "midi": 43,
      "hit": false,
      "t": 23250,
      "d": 648.4375,
      "v": 93
    },
    {
      "midi": 55,
      "hit": false,
      "t": 23625,
      "d": 93.75,
      "v": 79
    },
    {
      "midi": 50,
      "hit": false,
      "t": 24000,
      "d": 679.6875,
      "v": 92
    },
    {
      "midi": 62,
      "hit": false,
      "t": 24000,
      "d": 687.5,
      "v": 88
    },
    {
      "midi": 66,
      "hit": false,
      "t": 24000,
      "d": 703.125,
      "v": 93
    },
    {
      "midi": 57,
      "hit": false,
      "t": 24000,
      "d": 882.8125,
      "v": 82
    },
    {
      "midi": 62,
      "hit": false,
      "t": 24750,
      "d": 429.6875,
      "v": 90
    },
    {
      "midi": 66,
      "hit": false,
      "t": 24750,
      "d": 468.75,
      "v": 83
    },
    {
      "midi": 50,
      "hit": false,
      "t": 24750,
      "d": 703.125,
      "v": 90
    },
    {
      "midi": 57,
      "hit": false,
      "t": 25125,
      "d": 234.375,
      "v": 62
    },
    {
      "midi": 64,
      "hit": false,
      "t": 25500,
      "d": 117.1875,
      "v": 63
    },
    {
      "midi": 57,
      "hit": false,
      "t": 25500,
      "d": 125,
      "v": 70
    },
    {
      "midi": 61,
      "hit": false,
      "t": 25500,
      "d": 132.8125,
      "v": 57
    },
    {
      "midi": 45,
      "hit": false,
      "t": 25500,
      "d": 687.5,
      "v": 93
    },
    {
      "midi": 57,
      "hit": false,
      "t": 25875,
      "d": 148.4375,
      "v": 69
    },
    {
      "midi": 64,
      "hit": false,
      "t": 25875,
      "d": 164.0625,
      "v": 57
    },
    {
      "midi": 57,
      "hit": false,
      "t": 26250,
      "d": 109.375,
      "v": 81
    },
    {
      "midi": 61,
      "hit": false,
      "t": 26250,
      "d": 460.9375,
      "v": 82
    },
    {
      "midi": 64,
      "hit": false,
      "t": 26250,
      "d": 500,
      "v": 88
    },
    {
      "midi": 45,
      "hit": false,
      "t": 26250,
      "d": 687.5,
      "v": 93
    },
    {
      "midi": 57,
      "hit": false,
      "t": 26625,
      "d": 359.375,
      "v": 72
    },
    {
      "midi": 40,
      "hit": false,
      "t": 27000,
      "d": 632.8125,
      "v": 81
    },
    {
      "midi": 52,
      "hit": false,
      "t": 27750,
      "d": 187.5,
      "v": 93
    },
    {
      "midi": 59,
      "hit": false,
      "t": 27750,
      "d": 632.8125,
      "v": 93
    },
    {
      "midi": 40,
      "hit": false,
      "t": 27750,
      "d": 656.25,
      "v": 95
    },
    {
      "midi": 52,
      "hit": false,
      "t": 28125,
      "d": 257.8125,
      "v": 82
    },
    {
      "midi": 52,
      "hit": false,
      "t": 28500,
      "d": 132.8125,
      "v": 92
    },
    {
      "midi": 40,
      "hit": false,
      "t": 28500,
      "d": 382.8125,
      "v": 94
    },
    {
      "midi": 59,
      "hit": false,
      "t": 28500,
      "d": 992.1875,
      "v": 95
    },
    {
      "midi": 52,
      "hit": false,
      "t": 28875,
      "d": 242.1875,
      "v": 86
    },
    {
      "midi": 40,
      "hit": false,
      "t": 29062.5,
      "d": 812.5,
      "v": 109
    },
    {
      "midi": 52,
      "hit": false,
      "t": 29437.5,
      "d": 132.8125,
      "v": 91
    },
    {
      "midi": 59,
      "hit": false,
      "t": 29625,
      "d": 1039.0625,
      "v": 95
    },
    {
      "midi": 40,
      "hit": false,
      "t": 30000,
      "d": 679.6875,
      "v": 114
    },
    {
      "midi": 52,
      "hit": false,
      "t": 30750,
      "d": 132.8125,
      "v": 84
    },
    {
      "midi": 40,
      "hit": false,
      "t": 30750,
      "d": 429.6875,
      "v": 87
    },
    {
      "midi": 59,
      "hit": false,
      "t": 30750,
      "d": 648.4375,
      "v": 93
    },
    {
      "midi": 52,
      "hit": false,
      "t": 31125,
      "d": 210.9375,
      "v": 81
    },
    {
      "midi": 40,
      "hit": false,
      "t": 31312.5,
      "d": 664.0625,
      "v": 93
    },
    {
      "midi": 52,
      "hit": false,
      "t": 31500,
      "d": 148.4375,
      "v": 83
    },
    {
      "midi": 59,
      "hit": false,
      "t": 31500,
      "d": 1015.625,
      "v": 87
    },
    {
      "midi": 52,
      "hit": false,
      "t": 31875,
      "d": 234.375,
      "v": 83
    },
    {
      "midi": 40,
      "hit": false,
      "t": 32062.5,
      "d": 882.8125,
      "v": 94
    },
    {
      "midi": 52,
      "hit": false,
      "t": 32437.5,
      "d": 250,
      "v": 92
    },
    {
      "midi": 59,
      "hit": false,
      "t": 32625,
      "d": 148.4375,
      "v": 93
    },
    {
      "midi": 64,
      "hit": false,
      "t": 33000,
      "d": 695.3125,
      "v": 94
    },
    {
      "midi": 60,
      "hit": false,
      "t": 33000,
      "d": 718.75,
      "v": 95
    },
    {
      "midi": 55,
      "hit": false,
      "t": 33000,
      "d": 859.375,
      "v": 89
    },
    {
      "midi": 48,
      "hit": false,
      "t": 33000,
      "d": 1460.9375,
      "v": 97
    },
    {
      "midi": 64,
      "hit": false,
      "t": 33750,
      "d": 257.8125,
      "v": 89
    },
    {
      "midi": 60,
      "hit": false,
      "t": 33750,
      "d": 445.3125,
      "v": 85
    },
    {
      "midi": 55,
      "hit": false,
      "t": 34125,
      "d": 289.0625,
      "v": 81
    },
    {
      "midi": 55,
      "hit": false,
      "t": 34500,
      "d": 671.875,
      "v": 81
    },
    {
      "midi": 43,
      "hit": false,
      "t": 34500,
      "d": 679.6875,
      "v": 93
    },
    {
      "midi": 62,
      "hit": false,
      "t": 34500,
      "d": 695.3125,
      "v": 89
    },
    {
      "midi": 59,
      "hit": false,
      "t": 34500,
      "d": 703.125,
      "v": 86
    },
    {
      "midi": 55,
      "hit": false,
      "t": 35250,
      "d": 109.375,
      "v": 79
    },
    {
      "midi": 59,
      "hit": false,
      "t": 35250,
      "d": 390.625,
      "v": 81
    },
    {
      "midi": 62,
      "hit": false,
      "t": 35250,
      "d": 398.4375,
      "v": 85
    },
    {
      "midi": 43,
      "hit": false,
      "t": 35250,
      "d": 648.4375,
      "v": 93
    },
    {
      "midi": 55,
      "hit": false,
      "t": 35625,
      "d": 93.75,
      "v": 79
    },
    {
      "midi": 50,
      "hit": false,
      "t": 36000,
      "d": 679.6875,
      "v": 92
    },
    {
      "midi": 62,
      "hit": false,
      "t": 36000,
      "d": 687.5,
      "v": 88
    },
    {
      "midi": 66,
      "hit": false,
      "t": 36000,
      "d": 703.125,
      "v": 93
    },
    {
      "midi": 57,
      "hit": false,
      "t": 36000,
      "d": 882.8125,
      "v": 82
    },
    {
      "midi": 62,
      "hit": false,
      "t": 36750,
      "d": 429.6875,
      "v": 90
    },
    {
      "midi": 66,
      "hit": false,
      "t": 36750,
      "d": 468.75,
      "v": 83
    },
    {
      "midi": 50,
      "hit": false,
      "t": 36750,
      "d": 703.125,
      "v": 90
    },
    {
      "midi": 57,
      "hit": false,
      "t": 37125,
      "d": 234.375,
      "v": 62
    },
    {
      "midi": 64,
      "hit": false,
      "t": 37500,
      "d": 117.1875,
      "v": 63
    },
    {
      "midi": 57,
      "hit": false,
      "t": 37500,
      "d": 125,
      "v": 70
    },
    {
      "midi": 61,
      "hit": false,
      "t": 37500,
      "d": 132.8125,
      "v": 57
    },
    {
      "midi": 45,
      "hit": false,
      "t": 37500,
      "d": 687.5,
      "v": 93
    },
    {
      "midi": 57,
      "hit": false,
      "t": 37875,
      "d": 148.4375,
      "v": 69
    },
    {
      "midi": 64,
      "hit": false,
      "t": 37875,
      "d": 164.0625,
      "v": 57
    },
    {
      "midi": 57,
      "hit": false,
      "t": 38250,
      "d": 109.375,
      "v": 81
    },
    {
      "midi": 61,
      "hit": false,
      "t": 38250,
      "d": 460.9375,
      "v": 82
    },
    {
      "midi": 64,
      "hit": false,
      "t": 38250,
      "d": 500,
      "v": 88
    },
    {
      "midi": 45,
      "hit": false,
      "t": 38250,
      "d": 687.5,
      "v": 93
    },
    {
      "midi": 57,
      "hit": false,
      "t": 38625,
      "d": 359.375,
      "v": 72
    },
    {
      "midi": 40,
      "hit": false,
      "t": 39000,
      "d": 632.8125,
      "v": 81
    },
    {
      "midi": 52,
      "hit": false,
      "t": 39750,
      "d": 187.5,
      "v": 93
    }
  ]
}