{
  "jsonPath": "Unknown/Unknown/Vanity Project/hit-the-weekend-like-a-freak-jake-cymo-mix.json",
  "path": "Unknown\\Unknown\\Vanity Project\\Hit The Weekend Like A Freak ( Jake Cymo Mix ).mid",
  "name": "Hit The Weekend Like A Freak ( Jake Cymo Mix )",
  "difficulty": "Advanced",
  "bpm": 134.00065660321735,
  "notes": [
    {
      "midi": 72,
      "hit": false,
      "t": 1735.066125,
      "d": 64.13214843749984,
      "v": 109
    },
    {
      "midi": 38,
      "hit": false,
      "t": 1791.036,
      "d": 1775.8774921875001,
      "v": 66
    },
    {
      "midi": 38,
      "hit": false,
      "t": 1791.036,
      "d": 482.7401718750002,
      "v": 99
    },
    {
      "midi": 69,
      "hit": false,
      "t": 1795.70015625,
      "d": 1821.353015625,
      "v": 101
    },
    {
      "midi": 53,
      "hit": false,
      "t": 2014.9155,
      "d": 214.5511875000002,
      "v": 88
    },
    {
      "midi": 57,
      "hit": false,
      "t": 2238.795,
      "d": 465.2495859374999,
      "v": 86
    },
    {
      "midi": 38,
      "hit": false,
      "t": 2462.6745,
      "d": 447.75899999999956,
      "v": 83
    },
    {
      "midi": 53,
      "hit": false,
      "t": 2686.554,
      "d": 214.55118749999974,
      "v": 79
    },
    {
      "midi": 57,
      "hit": false,
      "t": 2910.4334999999996,
      "d": 465.2495859374999,
      "v": 86
    },
    {
      "midi": 38,
      "hit": false,
      "t": 3134.3129999999996,
      "d": 268.188984375,
      "v": 88
    },
    {
      "midi": 53,
      "hit": false,
      "t": 3358.1924999999997,
      "d": 232.04177343750007,
      "v": 80
    },
    {
      "midi": 46,
      "hit": false,
      "t": 3582.0719999999997,
      "d": 447.759,
      "v": 95
    },
    {
      "midi": 46,
      "hit": false,
      "t": 3582.072,
      "d": 1796.8661953125002,
      "v": 61
    },
    {
      "midi": 53,
      "hit": false,
      "t": 3805.9514999999997,
      "d": 232.04177343750007,
      "v": 94
    },
    {
      "midi": 58,
      "hit": false,
      "t": 4029.8309999999997,
      "d": 233.20781250000027,
      "v": 85
    },
    {
      "midi": 46,
      "hit": false,
      "t": 4253.7105,
      "d": 447.759,
      "v": 97
    },
    {
      "midi": 53,
      "hit": false,
      "t": 4477.59,
      "d": 250.69839843750015,
      "v": 95
    },
    {
      "midi": 67,
      "hit": false,
      "t": 4682.812875,
      "d": 312.49846875000003,
      "v": 112
    },
    {
      "midi": 58,
      "hit": false,
      "t": 4701.4695,
      "d": 214.5511875000002,
      "v": 87
    },
    {
      "midi": 46,
      "hit": false,
      "t": 4925.349,
      "d": 304.3361953125004,
      "v": 92
    },
    {
      "midi": 65,
      "hit": false,
      "t": 5017.4660859375,
      "d": 250.69839843750015,
      "v": 103
    },
    {
      "midi": 53,
      "hit": false,
      "t": 5149.2285,
      "d": 195.89456250000057,
      "v": 86
    },
    {
      "midi": 64,
      "hit": false,
      "t": 5289.1531875,
      "d": 354.4758750000001,
      "v": 99
    },
    {
      "midi": 38,
      "hit": false,
      "t": 5373.108,
      "d": 1754.8887890625,
      "v": 59
    },
    {
      "midi": 38,
      "hit": false,
      "t": 5373.108000000001,
      "d": 375.4645781250001,
      "v": 86
    },
    {
      "midi": 53,
      "hit": false,
      "t": 5596.987500000001,
      "d": 250.69839843750015,
      "v": 89
    },
    {
      "midi": 65,
      "hit": false,
      "t": 5652.957375,
      "d": 103.77747656249994,
      "v": 88
    },
    {
      "midi": 64,
      "hit": false,
      "t": 5764.8971249999995,
      "d": 82.78877343749991,
      "v": 103
    },
    {
      "midi": 62,
      "hit": false,
      "t": 5811.5386874999995,
      "d": 1547.3338359375011,
      "v": 103
    },
    {
      "midi": 57,
      "hit": false,
      "t": 5820.867000000001,
      "d": 142.2567656250003,
      "v": 80
    },
    {
      "midi": 38,
      "hit": false,
      "t": 6044.746500000001,
      "d": 375.4645781250001,
      "v": 91
    },
    {
      "midi": 53,
      "hit": false,
      "t": 6268.626000000001,
      "d": 268.18898437499956,
      "v": 85
    },
    {
      "midi": 57,
      "hit": false,
      "t": 6492.505500000001,
      "d": 107.27559374999964,
      "v": 72
    },
    {
      "midi": 38,
      "hit": false,
      "t": 6716.385000000001,
      "d": 304.3361953125004,
      "v": 77
    },
    {
      "midi": 53,
      "hit": false,
      "t": 6940.264500000001,
      "d": 214.5511875000002,
      "v": 86
    },
    {
      "midi": 46,
      "hit": false,
      "t": 7164.144,
      "d": 1837.677562500001,
      "v": 55
    },
    {
      "midi": 46,
      "hit": false,
      "t": 7164.144000000001,
      "d": 411.61178906250007,
      "v": 97
    },
    {
      "midi": 53,
      "hit": false,
      "t": 7388.023500000001,
      "d": 232.04177343749961,
      "v": 88
    },
    {
      "midi": 58,
      "hit": false,
      "t": 7611.903000000001,
      "d": 125.93221874999927,
      "v": 75
    },
    {
      "midi": 46,
      "hit": false,
      "t": 7835.7825,
      "d": 429.1023749999995,
      "v": 64
    },
    {
      "midi": 53,
      "hit": false,
      "t": 8059.662,
      "d": 195.89456249999967,
      "v": 94
    },
    {
      "midi": 58,
      "hit": false,
      "t": 8283.5415,
      "d": 197.06060156249987,
      "v": 77
    },
    {
      "midi": 46,
      "hit": false,
      "t": 8507.420999999998,
      "d": 303.1701562499984,
      "v": 97
    },
    {
      "midi": 53,
      "hit": false,
      "t": 8731.300499999998,
      "d": 178.40397656249843,
      "v": 88
    },
    {
      "midi": 72,
      "hit": false,
      "t": 8800.0968046875,
      "d": 103.77747656249994,
      "v": 115
    },
    {
      "midi": 69,
      "hit": false,
      "t": 8903.87428125,
      "d": 1548.4998750000013,
      "v": 115
    },
    {
      "midi": 38,
      "hit": false,
      "t": 8955.179999999997,
      "d": 357.9739921874989,
      "v": 88
    },
    {
      "midi": 38,
      "hit": false,
      "t": 8955.18,
      "d": 1817.8548984374993,
      "v": 59
    },
    {
      "midi": 53,
      "hit": false,
      "t": 9179.059499999996,
      "d": 232.0417734374987,
      "v": 83
    },
    {
      "midi": 81,
      "hit": false,
      "t": 9179.059500000001,
      "d": 61.800070312499884,
      "v": 125
    },
    {
      "midi": 74,
      "hit": false,
      "t": 9179.059500000001,
      "d": 82.78877343749991,
      "v": 107
    },
    {
      "midi": 77,
      "hit": false,
      "t": 9179.059500000001,
      "d": 82.78877343749991,
      "v": 125
    },
    {
      "midi": 57,
      "hit": false,
      "t": 9402.938999999995,
      "d": 125.93221875000017,
      "v": 85
    },
    {
      "midi": 38,
      "hit": false,
      "t": 9626.818499999996,
      "d": 392.95516406250135,
      "v": 82
    },
    {
      "midi": 77,
      "hit": false,
      "t": 9626.818500000001,
      "d": 40.811367187499854,
      "v": 120
    },
    {
      "midi": 74,
      "hit": false,
      "t": 9626.818500000001,
      "d": 61.800070312499884,
      "v": 101
    },
    {
      "midi": 81,
      "hit": false,
      "t": 9626.818500000001,
      "d": 104.94351562500015,
      "v": 120
    },
    {
      "midi": 53,
      "hit": false,
      "t": 9850.697999999997,
      "d": 214.5511875000011,
      "v": 88
    },
    {
      "midi": 77,
      "hit": false,
      "t": 9850.698000000002,
      "d": 354.4758750000001,
      "v": 123
    },
    {
      "midi": 82,
      "hit": false,
      "t": 9850.698000000002,
      "d": 354.4758750000001,
      "v": 127
    },
    {
      "midi": 74,
      "hit": false,
      "t": 9850.698000000002,
      "d": 376.6306171875003,
      "v": 92
    },
    {
      "midi": 57,
      "hit": false,
      "t": 10074.577499999998,
      "d": 124.76617968749997,
      "v": 74
    },
    {
      "midi": 38,
      "hit": false,
      "t": 10298.456999999997,
      "d": 268.1889843750014,
      "v": 85
    },
    {
      "midi": 77,
      "hit": false,
      "t": 10298.457000000002,
      "d": 354.4758750000001,
      "v": 107
    },
    {
      "midi": 74,
      "hit": false,
      "t": 10298.457000000002,
      "d": 376.6306171875003,
      "v": 95
    },
    {
      "midi": 81,
      "hit": false,
      "t": 10298.457000000002,
      "d": 376.6306171875003,
      "v": 117
    },
    {
      "midi": 53,
      "hit": false,
      "t": 10522.336499999998,
      "d": 160.91339062500083,
      "v": 67
    },
    {
      "midi": 46,
      "hit": false,
      "t": 10746.215999999999,
      "d": 411.611789062501,
      "v": 95
    },
    {
      "midi": 46,
      "hit": false,
      "t": 10746.216,
      "d": 1795.7001562500009,
      "v": 56
    },
    {
      "midi": 53,
      "hit": false,
      "t": 10750.880156250001,
      "d": 61.800070312499884,
      "v": 108
    },
    {
      "midi": 55,
      "hit": false,
      "t": 10881.47653125,
      "d": 74.6265000000003,
      "v": 108
    },
    {
      "midi": 53,
      "hit": false,
      "t": 10970.0955,
      "d": 233.20781250000073,
      "v": 85
    },
    {
      "midi": 82,
      "hit": false,
      "t": 10970.095500000003,
      "d": 61.800070312499884,
      "v": 127
    },
    {
      "midi": 74,
      "hit": false,
      "t": 10970.095500000003,
      "d": 83.95481250000012,
      "v": 99
    },
    {
      "midi": 77,
      "hit": false,
      "t": 10970.095500000003,
      "d": 83.95481250000012,
      "v": 123
    },
    {
      "midi": 57,
      "hit": false,
      "t": 11021.401218750001,
      "d": 48.97364062499946,
      "v": 108
    },
    {
      "midi": 58,
      "hit": false,
      "t": 11161.32590625,
      "d": 61.800070312499884,
      "v": 108
    },
    {
      "midi": 58,
      "hit": false,
      "t": 11193.975,
      "d": 125.93221875000017,
      "v": 85
    },
    {
      "midi": 60,
      "hit": false,
      "t": 11315.2430625,
      "d": 61.800070312499884,
      "v": 108
    },
    {
      "midi": 46,
      "hit": false,
      "t": 11417.854500000001,
      "d": 321.82678124999984,
      "v": 73
    },
    {
      "midi": 74,
      "hit": false,
      "t": 11417.854500000003,
      "d": 41.97740625000006,
      "v": 74
    },
    {
      "midi": 77,
      "hit": false,
      "t": 11417.854500000003,
      "d": 61.800070312499884,
      "v": 109
    },
    {
      "midi": 82,
      "hit": false,
      "t": 11417.854500000003,
      "d": 103.77747656249994,
      "v": 121
    },
    {
      "midi": 62,
      "hit": false,
      "t": 11441.17528125,
      "d": 88.61896874999911,
      "v": 108
    },
    {
      "midi": 64,
      "hit": false,
      "t": 11581.099968749999,
      "d": 61.800070312499884,
      "v": 102
    },
    {
      "midi": 53,
      "hit": false,
      "t": 11641.734,
      "d": 233.20781250000073,
      "v": 89
    },
    {
      "midi": 74,
      "hit": false,
      "t": 11641.734000000002,
      "d": 354.4758750000001,
      "v": 95
    },
    {
      "midi": 77,
      "hit": false,
      "t": 11641.734000000002,
      "d": 375.4645781250001,
      "v": 123
    },
    {
      "midi": 84,
      "hit": false,
      "t": 11641.734000000002,
      "d": 375.4645781250001,
      "v": 123
    },
    {
      "midi": 65,
      "hit": false,
      "t": 11711.696343749998,
      "d": 88.61896874999911,
      "v": 102
    },
    {
      "midi": 67,
      "hit": false,
      "t": 11837.628562499996,
      "d": 74.6265000000003,
      "v": 108
    },
    {
      "midi": 58,
      "hit": false,
      "t": 11865.613500000001,
      "d": 107.27559375000055,
      "v": 81
    },
    {
      "midi": 69,
      "hit": false,
      "t": 11986.881562499997,
      "d": 88.61896874999911,
      "v": 108
    },
    {
      "midi": 46,
      "hit": false,
      "t": 12089.493000000002,
      "d": 289.1776874999996,
      "v": 89
    },
    {
      "midi": 74,
      "hit": false,
      "t": 12089.493000000002,
      "d": 480.40809375000026,
      "v": 94
    },
    {
      "midi": 77,
      "hit": false,
      "t": 12089.493000000002,
      "d": 522.3855000000003,
      "v": 117
    },
    {
      "midi": 82,
      "hit": false,
      "t": 12089.493000000002,
      "d": 522.3855000000003,
      "v": 127
    },
    {
      "midi": 69,
      "hit": false,
      "t": 12150.127031249996,
      "d": 208.72099218749827,
      "v": 108
    },
    {
      "midi": 58,
      "hit": false,
      "t": 12313.372500000001,
      "d": 143.4228046874996,
      "v": 87
    },
    {
      "midi": 72,
      "hit": false,
      "t": 12346.021593749994,
      "d": 187.73228906250006,
      "v": 120
    },
    {
      "midi": 38,
      "hit": false,
      "t": 12537.252,
      "d": 1775.877492187501,
      "v": 54
    },
    {
      "midi": 38,
      "hit": false,
      "t": 12537.252,
      "d": 392.95516406249953,
      "v": 80
    },
    {
      "midi": 74,
      "hit": false,
      "t": 12555.908624999995,
      "d": 1651.111312500001,
      "v": 109
    },
    {
      "midi": 53,
      "hit": false,
      "t": 12761.1315,
      "d": 214.5511875000011,
      "v": 86
    },
    {
      "midi": 77,
      "hit": false,
      "t": 12761.131500000003,
      "d": 61.800070312499884,
      "v": 127
    },
    {
      "midi": 74,
      "hit": false,
      "t": 12761.131500000003,
      "d": 82.78877343749991,
      "v": 107
    },
    {
      "midi": 81,
      "hit": false,
      "t": 12761.131500000003,
      "d": 82.78877343749991,
      "v": 127
    },
    {
      "midi": 57,
      "hit": false,
      "t": 12985.011,
      "d": 107.27559375000055,
      "v": 82
    },
    {
      "midi": 38,
      "hit": false,
      "t": 13208.890500000001,
      "d": 357.9739921874989,
      "v": 85
    },
    {
      "midi": 77,
      "hit": false,
      "t": 13208.890500000003,
      "d": 61.800070312499884,
      "v": 112
    },
    {
      "midi": 74,
      "hit": false,
      "t": 13208.890500000003,
      "d": 83.95481250000012,
      "v": 91
    },
    {
      "midi": 81,
      "hit": false,
      "t": 13208.890500000003,
      "d": 83.95481250000012,
      "v": 109
    },
    {
      "midi": 53,
      "hit": false,
      "t": 13432.77,
      "d": 232.0417734374987,
      "v": 83
    },
    {
      "midi": 74,
      "hit": false,
      "t": 13432.770000000004,
      "d": 354.4758750000001,
      "v": 89
    },
    {
      "midi": 77,
      "hit": false,
      "t": 13432.770000000004,
      "d": 354.4758750000001,
      "v": 120
    },
    {
      "midi": 82,
      "hit": false,
      "t": 13432.770000000004,
      "d": 376.6306171875003,
      "v": 127
    },
    {
      "midi": 57,
      "hit": false,
      "t": 13656.6495,
      "d": 125.93221875000017,
      "v": 70
    },
    {
      "midi": 38,
      "hit": false,
      "t": 13880.529,
      "d": 268.1889843750014,
      "v": 72
    },
    {
      "midi": 74,
      "hit": false,
      "t": 13880.529000000004,
      "d": 292.6758046875002,
      "v": 85
    },
    {
      "midi": 77,
      "hit": false,
      "t": 13880.529000000004,
      "d": 292.6758046875002,
      "v": 109
    },
    {
      "midi": 81,
      "hit": false,
      "t": 13880.529000000004,
      "d": 312.49846875000003,
      "v": 115
    },
    {
      "midi": 53,
      "hit": false,
      "t": 14104.408500000001,
      "d": 178.40397656250025,
      "v": 83
    },
    {
      "midi": 81,
      "hit": false,
      "t": 14276.982281249995,
      "d": 2026.5758906250012,
      "v": 127
    },
    {
      "midi": 46,
      "hit": false,
      "t": 14328.288000000002,
      "d": 1733.9000859374992,
      "v": 59
    },
    {
      "midi": 46,
      "hit": false,
      "t": 14328.288000000002,
      "d": 447.759,
      "v": 79
    },
    {
      "midi": 77,
      "hit": false,
      "t": 14328.288000000004,
      "d": 1753.7227500000008,
      "v": 123
    },
    {
      "midi": 81,
      "hit": false,
      "t": 14328.288000000004,
      "d": 1753.7227500000008,
      "v": 117
    },
    {
      "midi": 74,
      "hit": false,
      "t": 14328.288000000004,
      "d": 1754.888789062501,
      "v": 99
    },
    {
      "midi": 53,
      "hit": false,
      "t": 14552.167500000003,
      "d": 233.2078124999989,
      "v": 82
    },
    {
      "midi": 58,
      "hit": false,
      "t": 14776.047000000002,
      "d": 124.76617968749997,
      "v": 79
    },
    {
      "midi": 46,
      "hit": false,
      "t": 14999.926500000001,
      "d": 304.3361953124986,
      "v": 87
    },
    {
      "midi": 53,
      "hit": false,
      "t": 15223.806,
      "d": 232.0417734374987,
      "v": 92
    },
    {
      "midi": 58,
      "hit": false,
      "t": 15447.6855,
      "d": 88.61896874999911,
      "v": 75
    },
    {
      "midi": 46,
      "hit": false,
      "t": 15671.564999999999,
      "d": 321.82678124999984,
      "v": 89
    },
    {
      "midi": 53,
      "hit": false,
      "t": 15895.444499999998,
      "d": 107.27559375000055,
      "v": 86
    },
    {
      "midi": 62,
      "hit": false,
      "t": 15895.444500000001,
      "d": 111.93974999999955,
      "v": 83
    },
    {
      "midi": 62,
      "hit": false,
      "t": 15895.444500000001,
      "d": 111.93974999999955,
      "v": 83
    },
    {
      "midi": 38,
      "hit": false,
      "t": 16119.323999999999,
      "d": 542.208164062502,
      "v": 91
    },
    {
      "midi": 62,
      "hit": false,
      "t": 16119.324,
      "d": 111.93974999999955,
      "v": 94
    },
    {
      "midi": 62,
      "hit": false,
      "t": 16119.324,
      "d": 111.93974999999955,
      "v": 94
    },
    {
      "midi": 38,
      "hit": false,
      "t": 16119.324000000002,
      "d": 1796.8661953124993,
      "v": 58
    },
    {
      "midi": 53,
      "hit": false,
      "t": 16343.2035,
      "d": 228.5436562499999,
      "v": 65
    },
    {
      "midi": 62,
      "hit": false,
      "t": 16343.2035,
      "d": 111.93975000000137,
      "v": 88
    },
    {
      "midi": 62,
      "hit": false,
      "t": 16343.2035,
      "d": 111.93975000000137,
      "v": 88
    },
    {
      "midi": 57,
      "hit": false,
      "t": 16567.083,
      "d": 417.4419843750038,
      "v": 83
    },
    {
      "midi": 62,
      "hit": false,
      "t": 16567.083000000002,
      "d": 111.93975000000137,
      "v": 97
    },
    {
      "midi": 62,
      "hit": false,
      "t": 16567.083000000002,
      "d": 111.93975000000137,
      "v": 97
    },
    {
      "midi": 38,
      "hit": false,
      "t": 16790.9625,
      "d": 522.385500000004,
      "v": 82
    },
    {
      "midi": 62,
      "hit": false,
      "t": 16790.962500000005,
      "d": 111.93975000000137,
      "v": 99
    },
    {
      "midi": 62,
      "hit": false,
      "t": 16790.962500000005,
      "d": 111.93975000000137,
      "v": 99
    },
    {
      "midi": 53,
      "hit": false,
      "t": 17014.842000000004,
      "d": 292.6758046875002,
      "v": 58
    },
    {
      "midi": 62,
      "hit": false,
      "t": 17014.842000000008,
      "d": 111.93975000000137,
      "v": 95
    },
    {
      "midi": 62,
      "hit": false,
      "t": 17014.842000000008,
      "d": 111.93975000000137,
      "v": 95
    },
    {
      "midi": 57,
      "hit": false,
      "t": 17238.721500000003,
      "d": 459.41939062500023,
      "v": 72
    },
    {
      "midi": 62,
      "hit": false,
      "t": 17238.72150000001,
      "d": 223.8794999999991,
      "v": 101
    },
    {
      "midi": 62,
      "hit": false,
      "t": 17238.72150000001,
      "d": 223.8794999999991,
      "v": 101
    },
    {
      "midi": 38,
      "hit": false,
      "t": 17462.601000000006,
      "d": 291.50976562499636,
      "v": 85
    },
    {
      "midi": 64,
      "hit": false,
      "t": 17462.60100000001,
      "d": 223.8794999999991,
      "v": 112
    },
    {
      "midi": 64,
      "hit": false,
      "t": 17462.60100000001,
      "d": 223.8794999999991,
      "v": 112
    },
    {
      "midi": 53,
      "hit": false,
      "t": 17686.480500000005,
      "d": 166.7435859374964,
      "v": 85
    },
    {
      "midi": 65,
      "hit": false,
      "t": 17686.48050000001,
      "d": 111.93975000000137,
      "v": 97
    },
    {
      "midi": 65,
      "hit": false,
      "t": 17686.48050000001,
      "d": 111.93975000000137,
      "v": 97
    },
    {
      "midi": 46,
      "hit": false,
      "t": 17910.36,
      "d": 1775.877492187501,
      "v": 54
    },
    {
      "midi": 46,
      "hit": false,
      "t": 17910.36,
      "d": 563.1968671875002,
      "v": 83
    },
    {
      "midi": 69,
      "hit": false,
      "t": 17910.36000000001,
      "d": 223.8794999999991,
      "v": 105
    },
    {
      "midi": 69,
      "hit": false,
      "t": 17910.36000000001,
      "d": 223.8794999999991,
      "v": 105
    },
    {
      "midi": 53,
      "hit": false,
      "t": 18134.2395,
      "d": 229.70969531250012,
      "v": 79
    },
    {
      "midi": 69,
      "hit": false,
      "t": 18134.23950000001,
      "d": 111.93975000000137,
      "v": 115
    },
    {
      "midi": 69,
      "hit": false,
      "t": 18134.23950000001,
      "d": 111.93975000000137,
      "v": 115
    },
    {
      "midi": 58,
      "hit": false,
      "t": 18358.119,
      "d": 187.7322890625037,
      "v": 75
    },
    {
      "midi": 46,
      "hit": false,
      "t": 18581.9985,
      "d": 459.41939062500023,
      "v": 64
    },
    {
      "midi": 53,
      "hit": false,
      "t": 18805.878,
      "d": 228.5436562499999,
      "v": 82
    },
    {
      "midi": 58,
      "hit": false,
      "t": 19029.7575,
      "d": 208.72099218750373,
      "v": 73
    },
    {
      "midi": 62,
      "hit": false,
      "t": 19029.75750000001,
      "d": 223.8794999999991,
      "v": 92
    },
    {
      "midi": 62,
      "hit": false,
      "t": 19029.75750000001,
      "d": 223.8794999999991,
      "v": 92
    },
    {
      "midi": 46,
      "hit": false,
      "t": 19253.637000000002,
      "d": 333.48717187500006,
      "v": 87
    },
    {
      "midi": 62,
      "hit": false,
      "t": 19253.63700000001,
      "d": 111.93975000000137,
      "v": 79
    },
    {
      "midi": 62,
      "hit": false,
      "t": 19253.63700000001,
      "d": 111.93975000000137,
      "v": 79
    },
    {
      "midi": 58,
      "hit": false,
      "t": 19477.5165,
      "d": 124.76617968749997,
      "v": 83
    },
    {
      "midi": 62,
      "hit": false,
      "t": 19477.516500000012,
      "d": 111.93975000000137,
      "v": 75
    },
    {
      "midi": 62,
      "hit": false,
      "t": 19477.516500000012,
      "d": 111.93975000000137,
      "v": 75
    },
    {
      "midi": 38,
      "hit": false,
      "t": 19701.396,
      "d": 1796.866195312501,
      "v": 60
    },
    {
      "midi": 38,
      "hit": false,
      "t": 19701.396,
      "d": 438.4306875000002,
      "v": 88
    },
    {
      "midi": 62,
      "hit": false,
      "t": 19701.396000000015,
      "d": 223.8794999999991,
      "v": 86
    },
    {
      "midi": 62,
      "hit": false,
      "t": 19701.396000000015,
      "d": 223.8794999999991,
      "v": 86
    },
    {
      "midi": 53,
      "hit": false,
      "t": 19925.2755,
      "d": 228.54365625000355,
      "v": 67
    },
    {
      "midi": 57,
      "hit": false,
      "t": 20149.155000000002,
      "d": 229.70969531250012,
      "v": 72
    },
    {
      "midi": 38,
      "hit": false,
      "t": 20373.0345,
      "d": 396.4532812500038,
      "v": 77
    },
    {
      "midi": 62,
      "hit": false,
      "t": 20373.034500000016,
      "d": 111.93975000000137,
      "v": 86
    },
    {
      "midi": 62,
      "hit": false,
      "t": 20373.034500000016,
      "d": 111.93975000000137,
      "v": 86
    },
    {
      "midi": 53,
      "hit": false,
      "t": 20596.914000000004,
      "d": 292.67580468750384,
      "v": 72
    },
    {
      "midi": 62,
      "hit": false,
      "t": 20596.91400000002,
      "d": 111.93975000000137,
      "v": 89
    },
    {
      "midi": 62,
      "hit": false,
      "t": 20596.91400000002,
      "d": 111.93975000000137,
      "v": 89
    },
    {
      "midi": 57,
      "hit": false,
      "t": 20820.793500000007,
      "d": 459.41939062500023,
      "v": 74
    },
    {
      "midi": 62,
      "hit": false,
      "t": 20820.79350000002,
      "d": 223.8794999999991,
      "v": 92
    },
    {
      "midi": 62,
      "hit": false,
      "t": 20820.79350000002,
      "d": 223.8794999999991,
      "v": 92
    },
    {
      "midi": 38,
      "hit": false,
      "t": 21044.67300000001,
      "d": 270.52106249999633,
      "v": 56
    },
    {
      "midi": 64,
      "hit": false,
      "t": 21044.67300000002,
      "d": 223.8794999999991,
      "v": 112
    },
    {
      "midi": 64,
      "hit": false,
      "t": 21044.67300000002,
      "d": 223.8794999999991,
      "v": 112
    },
    {
      "midi": 53,
      "hit": false,
      "t": 21268.55250000001,
      "d": 228.54365624999627,
      "v": 77
    },
    {
      "midi": 65,
      "hit": false,
      "t": 21268.55250000002,
      "d": 223.8794999999991,
      "v": 97
    },
    {
      "midi": 65,
      "hit": false,
      "t": 21268.55250000002,
      "d": 223.8794999999991,
      "v": 97
    },
    {
      "midi": 46,
      "hit": false,
      "t": 21492.432,
      "d": 1775.877492187501,
      "v": 60
    },
    {
      "midi": 46,
      "hit": false,
      "t": 21492.432000000004,
      "d": 480.4080937499966,
      "v": 72
    },
    {
      "midi": 62,
      "hit": false,
      "t": 21492.43200000002,
      "d": 223.8794999999991,
      "v": 107
    },
    {
      "midi": 62,
      "hit": false,
      "t": 21492.43200000002,
      "d": 223.8794999999991,
      "v": 107
    },
    {
      "midi": 53,
      "hit": false,
      "t": 21716.311500000003,
      "d": 208.7209921875001,
      "v": 79
    },
    {
      "midi": 58,
      "hit": false,
      "t": 21940.191000000003,
      "d": 250.69839843750015,
      "v": 70
    },
    {
      "midi": 46,
      "hit": false,
      "t": 22164.0705,
      "d": 438.43068750000384,
      "v": 83
    },
    {
      "midi": 53,
      "hit": false,
      "t": 22387.950000000004,
      "d": 249.53235937500358,
      "v": 77
    },
    {
      "midi": 58,
      "hit": false,
      "t": 22611.829500000007,
      "d": 396.45328125000015,
      "v": 68
    },
    {
      "midi": 46,
      "hit": false,
      "t": 22835.709000000006,
      "d": 271.6871015625038,
      "v": 69
    },
    {
      "midi": 53,
      "hit": false,
      "t": 23059.58850000001,
      "d": 228.54365625000355,
      "v": 79
    },
    {
      "midi": 38,
      "hit": false,
      "t": 23283.468,
      "d": 1753.7227500000008,
      "v": 59
    },
    {
      "midi": 38,
      "hit": false,
      "t": 23283.46800000001,
      "d": 544.5402421875006,
      "v": 72
    },
    {
      "midi": 69,
      "hit": false,
      "t": 23283.46800000002,
      "d": 447.75900000000183,
      "v": 107
    },
    {
      "midi": 69,
      "hit": false,
      "t": 23283.46800000002,
      "d": 447.75900000000183,
      "v": 107
    },
    {
      "midi": 53,
      "hit": false,
      "t": 23507.34750000001,
      "d": 249.53235937499994,
      "v": 80
    },
    {
      "midi": 57,
      "hit": false,
      "t": 23731.22700000001,
      "d": 271.6871015625038,
      "v": 79
    },
    {
      "midi": 70,
      "hit": false,
      "t": 23731.22700000002,
      "d": 223.8794999999991,
      "v": 85
    },
    {
      "midi": 70,
      "hit": false,
      "t": 23731.22700000002,
      "d": 223.8794999999991,
      "v": 85
    },
    {
      "midi": 38,
      "hit": false,
      "t": 23955.106500000013,
      "d": 438.43068750000384,
      "v": 83
    },
    {
      "midi": 69,
      "hit": false,
      "t": 23955.10650000002,
      "d": 335.81925000000047,
      "v": 94
    },
    {
      "midi": 69,
      "hit": false,
      "t": 23955.10650000002,
      "d": 335.81925000000047,
      "v": 94
    },
    {
      "midi": 53,
      "hit": false,
      "t": 24178.986000000015,
      "d": 250.69839843750378,
      "v": 75
    },
    {
      "midi": 57,
      "hit": false,
      "t": 24402.865500000018,
      "d": 208.7209921875001,
      "v": 75
    },
    {
      "midi": 65,
      "hit": false,
      "t": 24402.86550000002,
      "d": 111.93975000000137,
      "v": 89
    },
    {
      "midi": 65,
      "hit": false,
      "t": 24402.86550000002,
      "d": 111.93975000000137,
      "v": 89
    },
    {
      "midi": 38,
      "hit": false,
      "t": 24626.745000000017,
      "d": 333.48717187500006,
      "v": 67
    },
    {
      "midi": 65,
      "hit": false,
      "t": 24626.745000000024,
      "d": 111.93975000000137,
      "v": 72
    },
    {
      "midi": 65,
      "hit": false,
      "t": 24626.745000000024,
      "d": 111.93975000000137,
      "v": 72
    },
    {
      "midi": 53,
      "hit": false,
      "t": 24850.624500000016,
      "d": 228.54365625000355,
      "v": 83
    },
    {
      "midi": 65,
      "hit": false,
      "t": 24850.624500000027,
      "d": 111.93975000000137,
      "v": 83
    },
    {
      "midi": 65,
      "hit": false,
      "t": 24850.624500000027,
      "d": 111.93975000000137,
      "v": 83
    },
    {
      "midi": 46,
      "hit": false,
      "t": 25074.504,
      "d": 1586.9791640625008,
      "v": 54
    },
    {
      "midi": 46,
      "hit": false,
      "t": 25074.50400000002,
      "d": 459.4193906249966,
      "v": 75
    },
    {
      "midi": 65,
      "hit": false,
      "t": 25074.50400000003,
      "d": 447.7589999999982,
      "v": 86
    },
    {
      "midi": 65,
      "hit": false,
      "t": 25074.50400000003,
      "d": 447.7589999999982,
      "v": 86
    },
    {
      "midi": 53,
      "hit": false,
      "t": 25298.383500000018,
      "d": 208.7209921875001,
      "v": 74
    },
    {
      "midi": 58,
      "hit": false,
      "t": 25522.263000000017,
      "d": 396.45328125000015,
      "v": 70
    },
    {
      "midi": 67,
      "hit": false,
      "t": 25522.263000000028,
      "d": 223.8794999999991,
      "v": 83
    },
    {
      "midi": 67,
      "hit": false,
      "t": 25522.263000000028,
      "d": 223.8794999999991,
      "v": 83
    },
    {
      "midi": 46,
      "hit": false,
      "t": 25746.142500000016,
      "d": 354.4758750000037,
      "v": 70
    },
    {
      "midi": 65,
      "hit": false,
      "t": 25746.142500000027,
      "d": 335.81925000000047,
      "v": 89
    },
    {
      "midi": 65,
      "hit": false,
      "t": 25746.142500000027,
      "d": 335.81925000000047,
      "v": 89
    },
    {
      "midi": 53,
      "hit": false,
      "t": 25970.02200000002,
      "d": 270.5210625000036,
      "v": 60
    },
    {
      "midi": 58,
      "hit": false,
      "t": 26193.90150000002,
      "d": 480.40809375000026,
      "v": 72
    },
    {
      "midi": 46,
      "hit": false,
      "t": 26417.78100000002,
      "d": 229.70969531250012,
      "v": 83
    },
    {
      "midi": 65,
      "hit": false,
      "t": 26417.781000000028,
      "d": 111.93975000000137,
      "v": 91
    },
    {
      "midi": 65,
      "hit": false,
      "t": 26417.781000000028,
      "d": 111.93975000000137,
      "v": 91
    },
    {
      "midi": 53,
      "hit": false,
      "t": 26641.66050000002,
      "d": 124.76617968750361,
      "v": 80
    },
    {
      "midi": 65,
      "hit": false,
      "t": 26641.66050000003,
      "d": 111.93975000000137,
      "v": 82
    },
    {
      "midi": 65,
      "hit": false,
      "t": 26641.66050000003,
      "d": 111.93975000000137,
      "v": 82
    },
    {
      "midi": 43,
      "hit": false,
      "t": 26851.547531250006,
      "d": 3488.7888749999984,
      "v": 107
    },
    {
      "midi": 55,
      "hit": false,
      "t": 26851.547531250006,
      "d": 3488.7888749999984,
      "v": 99
    },
    {
      "midi": 43,
      "hit": false,
      "t": 26865.54,
      "d": 1775.877492187501,
      "v": 97
    },
    {
      "midi": 60,
      "hit": false,
      "t": 26865.540000000023,
      "d": 1441.2242812499971,
      "v": 91
    },
    {
      "midi": 55,
      "hit": false,
      "t": 26865.540000000023,
      "d": 3301.0565859374983,
      "v": 75
    },
    {
      "midi": 43,
      "hit": false,
      "t": 26865.540000000023,
      "d": 3320.879249999998,
      "v": 86
    },
    {
      "midi": 67,
      "hit": false,
      "t": 26865.540000000034,
      "d": 223.8794999999991,
      "v": 94
    },
    {
      "midi": 67,
      "hit": false,
      "t": 26865.540000000034,
      "d": 223.8794999999991,
      "v": 94
    },
    {
      "midi": 67,
      "hit": false,
      "t": 27089.419500000033,
      "d": 335.81925000000047,
      "v": 88
    },
    {
      "midi": 67,
      "hit": false,
      "t": 27089.419500000033,
      "d": 335.81925000000047,
      "v": 88
    },
    {
      "midi": 67,
      "hit": false,
      "t": 27537.178500000035,
      "d": 111.93975000000137,
      "v": 86
    },
    {
      "midi": 67,
      "hit": false,
      "t": 27537.178500000035,
      "d": 111.93975000000137,
      "v": 86
    },
    {
      "midi": 67,
      "hit": false,
      "t": 27761.058000000037,
      "d": 111.93975000000137,
      "v": 86
    },
    {
      "midi": 67,
      "hit": false,
      "t": 27761.058000000037,
      "d": 111.93975000000137,
      "v": 86
    },
    {
      "midi": 67,
      "hit": false,
      "t": 27984.93750000004,
      "d": 111.93975000000137,
      "v": 83
    },
    {
      "midi": 67,
      "hit": false,
      "t": 27984.93750000004,
      "d": 111.93975000000137,
      "v": 83
    },
    {
      "midi": 67,
      "hit": false,
      "t": 28208.817000000043,
      "d": 223.8794999999991,
      "v": 86
    },
    {
      "midi": 67,
      "hit": false,
      "t": 28208.817000000043,
      "d": 223.8794999999991,
      "v": 86
    },
    {
      "midi": 69,
      "hit": false,
      "t": 28432.696500000042,
      "d": 111.93975000000137,
      "v": 86
    },
    {
      "midi": 69,
      "hit": false,
      "t": 28432.696500000042,
      "d": 111.93975000000137,
      "v": 86
    },
    {
      "midi": 47,
      "hit": false,
      "t": 28656.576,
      "d": 1733.900085937501,
      "v": 92
    },
    {
      "midi": 59,
      "hit": false,
      "t": 28656.57600000002,
      "d": 1525.179093750001,
      "v": 88
    },
    {
      "midi": 69,
      "hit": false,
      "t": 28656.576000000045,
      "d": 223.8794999999991,
      "v": 101
    },
    {
      "midi": 69,
      "hit": false,
      "t": 28656.576000000045,
      "d": 223.8794999999991,
      "v": 101
    },
    {
      "midi": 67,
      "hit": false,
      "t": 28880.455500000044,
      "d": 335.81925000000047,
      "v": 64
    },
    {
      "midi": 67,
      "hit": false,
      "t": 28880.455500000044,
      "d": 335.81925000000047,
      "v": 64
    },
    {
      "midi": 62,
      "hit": false,
      "t": 30223.732500000046,
      "d": 111.93975000000137,
      "v": 95
    },
    {
      "midi": 62,
      "hit": false,
      "t": 30223.732500000046,
      "d": 111.93975000000137,
      "v": 95
    },
    {
      "midi": 38,
      "hit": false,
      "t": 30447.612,
      "d": 1795.7001562500009,
      "v": 123
    },
    {
      "midi": 38,
      "hit": false,
      "t": 30447.61200000002,
      "d": 542.2081640625001,
      "v": 91
    },
    {
      "midi": 62,
      "hit": false,
      "t": 30447.61200000005,
      "d": 111.93975000000137,
      "v": 89
    },
    {
      "midi": 62,
      "hit": false,
      "t": 30447.61200000005,
      "d": 111.93975000000137,
      "v": 89
    },
    {
      "midi": 65,
      "hit": false,
      "t": 30671.491500000004,
      "d": 41.97740625000006,
      "v": 86
    },
    {
      "midi": 69,
      "hit": false,
      "t": 30671.491500000004,
      "d": 61.800070312499884,
      "v": 101
    },
    {
      "midi": 74,
      "hit": false,
      "t": 30671.491500000004,
      "d": 83.95481250000012,
      "v": 91
    },
    {
      "midi": 53,
      "hit": false,
      "t": 30671.49150000002,
      "d": 228.5436562499999,
      "v": 65
    },
    {
      "midi": 62,
      "hit": false,
      "t": 30671.49150000005,
      "d": 111.93975000000137,
      "v": 83
    },
    {
      "midi": 62,
      "hit": false,
      "t": 30671.49150000005,
      "d": 111.93975000000137,
      "v": 83
    },
    {
      "midi": 65,
      "hit": false,
      "t": 30895.371000000003,
      "d": 62.96610937500009,
      "v": 91
    },
    {
      "midi": 69,
      "hit": false,
      "t": 30895.371000000003,
      "d": 62.96610937500009,
      "v": 109
    },
    {
      "midi": 74,
      "hit": false,
      "t": 30895.371000000003,
      "d": 62.96610937500009,
      "v": 86
    },
    {
      "midi": 57,
      "hit": false,
      "t": 30895.371000000017,
      "d": 417.4419843750038,
      "v": 83
    },
    {
      "midi": 62,
      "hit": false,
      "t": 30895.371000000054,
      "d": 111.93975000000137,
      "v": 92
    },
    {
      "midi": 62,
      "hit": false,
      "t": 30895.371000000054,
      "d": 111.93975000000137,
      "v": 92
    },
    {
      "midi": 38,
      "hit": false,
      "t": 31119.25050000002,
      "d": 522.385500000004,
      "v": 82
    },
    {
      "midi": 62,
      "hit": false,
      "t": 31119.250500000056,
      "d": 111.93975000000137,
      "v": 85
    },
    {
      "midi": 62,
      "hit": false,
      "t": 31119.250500000056,
      "d": 111.93975000000137,
      "v": 85
    },
    {
      "midi": 69,
      "hit": false,
      "t": 31343.130000000005,
      "d": 61.800070312499884,
      "v": 117
    },
    {
      "midi": 65,
      "hit": false,
      "t": 31343.130000000005,
      "d": 83.95481250000012,
      "v": 103
    },
    {
      "midi": 74,
      "hit": false,
      "t": 31343.130000000005,
      "d": 83.95481250000012,
      "v": 95
    },
    {
      "midi": 53,
      "hit": false,
      "t": 31343.130000000023,
      "d": 292.6758046875002,
      "v": 58
    },
    {
      "midi": 62,
      "hit": false,
      "t": 31343.13000000006,
      "d": 111.93975000000137,
      "v": 91
    },
    {
      "midi": 62,
      "hit": false,
      "t": 31343.13000000006,
      "d": 111.93975000000137,
      "v": 91
    },
    {
      "midi": 69,
      "hit": false,
      "t": 31567.009500000004,
      "d": 40.811367187499854,
      "v": 120
    },
    {
      "midi": 65,
      "hit": false,
      "t": 31567.009500000004,
      "d": 61.800070312499884,
      "v": 109
    },
    {
      "midi": 74,
      "hit": false,
      "t": 31567.009500000004,
      "d": 61.800070312499884,
      "v": 95
    },
    {
      "midi": 57,
      "hit": false,
      "t": 31567.009500000022,
      "d": 459.41939062500023,
      "v": 72
    },
    {
      "midi": 62,
      "hit": false,
      "t": 31567.009500000062,
      "d": 223.8794999999991,
      "v": 95
    },
    {
      "midi": 62,
      "hit": false,
      "t": 31567.009500000062,
      "d": 223.8794999999991,
      "v": 95
    },
    {
      "midi": 38,
      "hit": false,
      "t": 31790.889000000025,
      "d": 291.50976562499636,
      "v": 85
    },
    {
      "midi": 64,
      "hit": false,
      "t": 31790.88900000006,
      "d": 223.8794999999991,
      "v": 107
    },
    {
      "midi": 64,
      "hit": false,
      "t": 31790.88900000006,
      "d": 223.8794999999991,
      "v": 107
    },
    {
      "midi": 65,
      "hit": false,
      "t": 32014.768500000002,
      "d": 62.96610937500009,
      "v": 99
    },
    {
      "midi": 69,
      "hit": false,
      "t": 32014.768500000002,
      "d": 62.96610937500009,
      "v": 109
    },
    {
      "midi": 74,
      "hit": false,
      "t": 32014.768500000002,
      "d": 83.95481250000012,
      "v": 91
    },
    {
      "midi": 53,
      "hit": false,
      "t": 32014.768500000024,
      "d": 166.7435859374964,
      "v": 85
    },
    {
      "midi": 65,
      "hit": false,
      "t": 32014.76850000006,
      "d": 111.93975000000137,
      "v": 97
    },
    {
      "midi": 65,
      "hit": false,
      "t": 32014.76850000006,
      "d": 111.93975000000137,
      "v": 97
    },
    {
      "midi": 34,
      "hit": false,
      "t": 32238.648,
      "d": 1775.877492187501,
      "v": 124
    },
    {
      "midi": 46,
      "hit": false,
      "t": 32238.64800000002,
      "d": 563.1968671874965,
      "v": 83
    },
    {
      "midi": 72,
      "hit": false,
      "t": 32238.648000000063,
      "d": 223.8794999999991,
      "v": 115
    },
    {
      "midi": 72,
      "hit": false,
      "t": 32238.648000000063,
      "d": 223.8794999999991,
      "v": 115
    },
    {
      "midi": 74,
      "hit": false,
      "t": 32462.527500000004,
      "d": 40.811367187499854,
      "v": 94
    },
    {
      "midi": 65,
      "hit": false,
      "t": 32462.527500000004,
      "d": 61.800070312499884,
      "v": 94
    },
    {
      "midi": 70,
      "hit": false,
      "t": 32462.527500000004,
      "d": 61.800070312499884,
      "v": 121
    },
    {
      "midi": 53,
      "hit": false,
      "t": 32462.52750000002,
      "d": 229.70969531250012,
      "v": 79
    },
    {
      "midi": 70,
      "hit": false,
      "t": 32462.527500000062,
      "d": 111.93975000000137,
      "v": 121
    },
    {
      "midi": 70,
      "hit": false,
      "t": 32462.527500000062,
      "d": 111.93975000000137,
      "v": 121
    },
    {
      "midi": 65,
      "hit": false,
      "t": 32686.407,
      "d": 36.14721093749904,
      "v": 107
    },
    {
      "midi": 70,
      "hit": false,
      "t": 32686.407000000003,
      "d": 61.800070312499884,
      "v": 111
    },
    {
      "midi": 74,
      "hit": false,
      "t": 32686.407000000003,
      "d": 61.800070312499884,
      "v": 88
    },
    {
      "midi": 65,
      "hit": false,
      "t": 32686.407000000003,
      "d": 83.95481249999648,
      "v": 91
    },
    {
      "midi": 58,
      "hit": false,
      "t": 32686.407000000017,
      "d": 187.73228906249642,
      "v": 75
    },
    {
      "midi": 65,
      "hit": false,
      "t": 32798.34675,
      "d": 52.471757812498254,
      "v": 105
    },
    {
      "midi": 65,
      "hit": false,
      "t": 32910.286499999995,
      "d": 34.981171874998836,
      "v": 97
    },
    {
      "midi": 46,
      "hit": false,
      "t": 32910.28650000002,
      "d": 459.4193906250075,
      "v": 64
    },
    {
      "midi": 65,
      "hit": false,
      "t": 33022.22624999999,
      "d": 71.12838281250151,
      "v": 95
    },
    {
      "midi": 64,
      "hit": false,
      "t": 33134.166,
      "d": 53.637796875002095,
      "v": 117
    },
    {
      "midi": 70,
      "hit": false,
      "t": 33134.166,
      "d": 41.97740625000006,
      "v": 97
    },
    {
      "midi": 65,
      "hit": false,
      "t": 33134.166,
      "d": 62.96610937499645,
      "v": 88
    },
    {
      "midi": 74,
      "hit": false,
      "t": 33134.166,
      "d": 62.96610937499645,
      "v": 91
    },
    {
      "midi": 53,
      "hit": false,
      "t": 33134.16600000002,
      "d": 228.54365625000355,
      "v": 82
    },
    {
      "midi": 70,
      "hit": false,
      "t": 33358.04549999999,
      "d": 41.97740625000006,
      "v": 111
    },
    {
      "midi": 74,
      "hit": false,
      "t": 33358.04549999999,
      "d": 41.97740625000006,
      "v": 94
    },
    {
      "midi": 65,
      "hit": false,
      "t": 33358.04549999999,
      "d": 62.96610937499645,
      "v": 91
    },
    {
      "midi": 64,
      "hit": false,
      "t": 33358.0455,
      "d": 88.61896875000093,
      "v": 120
    },
    {
      "midi": 58,
      "hit": false,
      "t": 33358.04550000002,
      "d": 208.72099218750373,
      "v": 73
    },
    {
      "midi": 60,
      "hit": false,
      "t": 33581.925,
      "d": 195.89456249999785,
      "v": 95
    },
    {
      "midi": 46,
      "hit": false,
      "t": 33581.925000000025,
      "d": 333.48717187500006,
      "v": 87
    },
    {
      "midi": 62,
      "hit": false,
      "t": 33581.92500000006,
      "d": 111.93974999999773,
      "v": 91
    },
    {
      "midi": 62,
      "hit": false,
      "t": 33581.92500000006,
      "d": 111.93974999999773,
      "v": 91
    },
    {
      "midi": 65,
      "hit": false,
      "t": 33805.80449999999,
      "d": 61.800070312499884,
      "v": 85
    },
    {
      "midi": 70,
      "hit": false,
      "t": 33805.80449999999,
      "d": 83.95481250000012,
      "v": 97
    },
    {
      "midi": 74,
      "hit": false,
      "t": 33805.80449999999,
      "d": 83.95481250000012,
      "v": 95
    },
    {
      "midi": 57,
      "hit": false,
      "t": 33805.8045,
      "d": 53.637796875002095,
      "v": 123
    },
    {
      "midi": 58,
      "hit": false,
      "t": 33805.80450000003,
      "d": 124.76617968749633,
      "v": 83
    },
    {
      "midi": 62,
      "hit": false,
      "t": 33805.80450000006,
      "d": 111.93974999999773,
      "v": 97
    },
    {
      "midi": 62,
      "hit": false,
      "t": 33805.80450000006,
      "d": 111.93974999999773,
      "v": 97
    },
    {
      "midi": 38,
      "hit": false,
      "t": 34029.684,
      "d": 1754.8887890624974,
      "v": 120
    },
    {
      "midi": 38,
      "hit": false,
      "t": 34029.68400000002,
      "d": 438.43068750000384,
      "v": 88
    },
    {
      "midi": 62,
      "hit": false,
      "t": 34029.68400000005,
      "d": 111.93974999999773,
      "v": 101
    },
    {
      "midi": 62,
      "hit": false,
      "t": 34029.68400000005,
      "d": 111.93974999999773,
      "v": 101
    },
    {
      "midi": 65,
      "hit": false,
      "t": 34253.56349999999,
      "d": 61.800070312499884,
      "v": 83
    },
    {
      "midi": 74,
      "hit": false,
      "t": 34253.56349999999,
      "d": 61.800070312499884,
      "v": 95
    },
    {
      "midi": 69,
      "hit": false,
      "t": 34253.56349999999,
      "d": 82.78877343749627,
      "v": 103
    },
    {
      "midi": 53,
      "hit": false,
      "t": 34253.563500000026,
      "d": 228.54365625000355,
      "v": 67
    },
    {
      "midi": 62,
      "hit": false,
      "t": 34253.56350000005,
      "d": 111.93974999999773,
      "v": 95
    },
    {
      "midi": 62,
      "hit": false,
      "t": 34253.56350000005,
      "d": 111.93974999999773,
      "v": 95
    },
    {
      "midi": 65,
      "hit": false,
      "t": 34477.442999999985,
      "d": 61.800070312499884,
      "v": 103
    },
    {
      "midi": 69,
      "hit": false,
      "t": 34477.442999999985,
      "d": 61.800070312499884,
      "v": 112
    },
    {
      "midi": 74,
      "hit": false,
      "t": 34477.442999999985,
      "d": 61.800070312499884,
      "v": 91
    },
    {
      "midi": 57,
      "hit": false,
      "t": 34477.44300000003,
      "d": 229.70969531250012,
      "v": 72
    },
    {
      "midi": 62,
      "hit": false,
      "t": 34477.44300000004,
      "d": 223.87950000000274,
      "v": 94
    },
    {
      "midi": 62,
      "hit": false,
      "t": 34477.44300000004,
      "d": 223.87950000000274,
      "v": 94
    },
    {
      "midi": 38,
      "hit": false,
      "t": 34701.32250000003,
      "d": 396.4532812499965,
      "v": 77
    },
    {
      "midi": 64,
      "hit": false,
      "t": 34701.322500000046,
      "d": 223.87950000000274,
      "v": 115
    },
    {
      "midi": 64,
      "hit": false,
      "t": 34701.322500000046,
      "d": 223.87950000000274,
      "v": 115
    },
    {
      "midi": 65,
      "hit": false,
      "t": 34925.20199999998,
      "d": 62.96610937499645,
      "v": 101
    },
    {
      "midi": 69,
      "hit": false,
      "t": 34925.20199999998,
      "d": 62.96610937499645,
      "v": 109
    },
    {
      "midi": 74,
      "hit": false,
      "t": 34925.20199999998,
      "d": 62.96610937499645,
      "v": 88
    },
    {
      "midi": 53,
      "hit": false,
      "t": 34925.20200000003,
      "d": 292.67580468750384,
      "v": 72
    },
    {
      "midi": 65,
      "hit": false,
      "t": 34925.20200000005,
      "d": 111.93974999999773,
      "v": 103
    },
    {
      "midi": 65,
      "hit": false,
      "t": 34925.20200000005,
      "d": 111.93974999999773,
      "v": 103
    },
    {
      "midi": 65,
      "hit": false,
      "t": 35149.08149999998,
      "d": 62.96610937499645,
      "v": 86
    },
    {
      "midi": 69,
      "hit": false,
      "t": 35149.08149999998,
      "d": 62.96610937499645,
      "v": 109
    },
    {
      "midi": 74,
      "hit": false,
      "t": 35149.08149999998,
      "d": 62.96610937499645,
      "v": 86
    },
    {
      "midi": 57,
      "hit": false,
      "t": 35149.08150000003,
      "d": 459.4193906250075,
      "v": 74
    },
    {
      "midi": 65,
      "hit": false,
      "t": 35149.081500000044,
      "d": 223.87950000000274,
      "v": 89
    },
    {
      "midi": 65,
      "hit": false,
      "t": 35149.081500000044,
      "d": 223.87950000000274,
      "v": 89
    },
    {
      "midi": 38,
      "hit": false,
      "t": 35372.96100000003,
      "d": 270.5210625000036,
      "v": 56
    },
    {
      "midi": 64,
      "hit": false,
      "t": 35372.96100000005,
      "d": 223.87950000000274,
      "v": 112
    },
    {
      "midi": 64,
      "hit": false,
      "t": 35372.96100000005,
      "d": 223.87950000000274,
      "v": 112
    },
    {
      "midi": 69,
      "hit": false,
      "t": 35596.84049999998,
      "d": 61.800070312499884,
      "v": 107
    },
    {
      "midi": 65,
      "hit": false,
      "t": 35596.84049999998,
      "d": 83.95481250000012,
      "v": 89
    },
    {
      "midi": 74,
      "hit": false,
      "t": 35596.84049999998,
      "d": 83.95481250000012,
      "v": 94
    },
    {
      "midi": 53,
      "hit": false,
      "t": 35596.840500000035,
      "d": 228.54365625000355,
      "v": 77
    },
    {
      "midi": 65,
      "hit": false,
      "t": 35596.84050000005,
      "d": 223.87950000000274,
      "v": 94
    },
    {
      "midi": 65,
      "hit": false,
      "t": 35596.84050000005,
      "d": 223.87950000000274,
      "v": 94
    },
    {
      "midi": 34,
      "hit": false,
      "t": 35820.72,
      "d": 1754.8887890624974,
      "v": 124
    },
    {
      "midi": 46,
      "hit": false,
      "t": 35820.72000000004,
      "d": 480.4080937499966,
      "v": 72
    },
    {
      "midi": 62,
      "hit": false,
      "t": 35820.72000000005,
      "d": 223.87950000000274,
      "v": 105
    },
    {
      "midi": 62,
      "hit": false,
      "t": 35820.72000000005,
      "d": 223.87950000000274,
      "v": 105
    },
    {
      "midi": 65,
      "hit": false,
      "t": 36044.599499999975,
      "d": 41.97740625000006,
      "v": 86
    },
    {
      "midi": 70,
      "hit": false,
      "t": 36044.599499999975,
      "d": 41.97740625000006,
      "v": 114
    },
    {
      "midi": 74,
      "hit": false,
      "t": 36044.599499999975,
      "d": 41.97740625000006,
      "v": 91
    },
    {
      "midi": 53,
      "hit": false,
      "t": 36044.59950000004,
      "d": 208.72099218749645,
      "v": 79
    },
    {
      "midi": 70,
      "hit": false,
      "t": 36268.47899999998,
      "d": 61.800070312499884,
      "v": 118
    },
    {
      "midi": 74,
      "hit": false,
      "t": 36268.47899999998,
      "d": 61.800070312499884,
      "v": 92
    },
    {
      "midi": 65,
      "hit": false,
      "t": 36268.47899999998,
      "d": 82.78877343749627,
      "v": 97
    },
    {
      "midi": 65,
      "hit": false,
      "t": 36268.479,
      "d": 36.14721093750268,
      "v": 99
    },
    {
      "midi": 58,
      "hit": false,
      "t": 36268.479000000036,
      "d": 250.6983984374965,
      "v": 70
    },
    {
      "midi": 65,
      "hit": false,
      "t": 36380.418750000004,
      "d": 36.14721093750268,
      "v": 101
    },
    {
      "midi": 65,
      "hit": false,
      "t": 36492.35850000001,
      "d": 52.471757812498254,
      "v": 88
    },
    {
      "midi": 46,
      "hit": false,
      "t": 36492.35850000003,
      "d": 438.43068750000384,
      "v": 83
    },
    {
      "midi": 65,
      "hit": false,
      "t": 36604.29825000001,
      "d": 34.981171874998836,
      "v": 97
    },
    {
      "midi": 64,
      "hit": false,
      "t": 36706.9096875,
      "d": 71.12838281250151,
      "v": 125
    },
    {
      "midi": 70,
      "hit": false,
      "t": 36716.237999999976,
      "d": 62.96610937499645,
      "v": 111
    },
    {
      "midi": 65,
      "hit": false,
      "t": 36716.237999999976,
      "d": 83.95481249999284,
      "v": 89
    },
    {
      "midi": 74,
      "hit": false,
      "t": 36716.237999999976,
      "d": 83.95481249999284,
      "v": 95
    },
    {
      "midi": 53,
      "hit": false,
      "t": 36716.238000000034,
      "d": 249.53235937499994,
      "v": 77
    },
    {
      "midi": 70,
      "hit": false,
      "t": 36940.11749999997,
      "d": 41.97740625000006,
      "v": 121
    },
    {
      "midi": 74,
      "hit": false,
      "t": 36940.11749999997,
      "d": 41.97740625000006,
      "v": 85
    },
    {
      "midi": 65,
      "hit": false,
      "t": 36940.11749999997,
      "d": 61.800070312499884,
      "v": 97
    },
    {
      "midi": 64,
      "hit": false,
      "t": 36940.11750000001,
      "d": 52.471757812498254,
      "v": 120
    },
    {
      "midi": 58,
      "hit": false,
      "t": 36940.11750000004,
      "d": 396.4532812499965,
      "v": 68
    },
    {
      "midi": 60,
      "hit": false,
      "t": 37163.997,
      "d": 214.5511875000011,
      "v": 97
    },
    {
      "midi": 46,
      "hit": false,
      "t": 37163.99700000003,
      "d": 271.6871015625002,
      "v": 69
    },
    {
      "midi": 65,
      "hit": false,
      "t": 37387.87649999997,
      "d": 61.800070312499884,
      "v": 101
    },
    {
      "midi": 70,
      "hit": false,
      "t": 37387.87649999997,
      "d": 61.800070312499884,
      "v": 121
    },
    {
      "midi": 74,
      "hit": false,
      "t": 37387.87649999997,
      "d": 61.800070312499884,
      "v": 89
    },
    {
      "midi": 57,
      "hit": false,
      "t": 37387.876500000006,
      "d": 88.61896875000093,
      "v": 120
    },
    {
      "midi": 53,
      "hit": false,
      "t": 37387.876500000035,
      "d": 228.54365624999627,
      "v": 79
    },
    {
      "midi": 69,
      "hit": false,
      "t": 37387.87650000006,
      "d": 111.93974999999773,
      "v": 103
    },
    {
      "midi": 69,
      "hit": false,
      "t": 37387.87650000006,
      "d": 111.93974999999773,
      "v": 103
    },
    {
      "midi": 38,
      "hit": false,
      "t": 37611.756,
      "d": 1778.2095703125015,
      "v": 120
    },
    {
      "midi": 38,
      "hit": false,
      "t": 37611.75600000003,
      "d": 544.5402421875042,
      "v": 72
    },
    {
      "midi": 69,
      "hit": false,
      "t": 37611.75600000005,
      "d": 111.93974999999773,
      "v": 97
    },
    {
      "midi": 69,
      "hit": false,
      "t": 37611.75600000005,
      "d": 111.93974999999773,
      "v": 97
    },
    {
      "midi": 65,
      "hit": false,
      "t": 37835.63549999997,
      "d": 61.800070312499884,
      "v": 105
    },
    {
      "midi": 69,
      "hit": false,
      "t": 37835.63549999997,
      "d": 61.800070312499884,
      "v": 117
    },
    {
      "midi": 74,
      "hit": false,
      "t": 37835.63549999997,
      "d": 61.800070312499884,
      "v": 103
    },
    {
      "midi": 53,
      "hit": false,
      "t": 37835.63550000003,
      "d": 249.53235937499994,
      "v": 80
    },
    {
      "midi": 69,
      "hit": false,
      "t": 37835.63550000005,
      "d": 335.81925000000047,
      "v": 103
    },
    {
      "midi": 69,
      "hit": false,
      "t": 37835.63550000005,
      "d": 335.81925000000047,
      "v": 103
    },
    {
      "midi": 65,
      "hit": false,
      "t": 38059.51499999997,
      "d": 61.800070312499884,
      "v": 99
    },
    {
      "midi": 69,
      "hit": false,
      "t": 38059.51499999997,
      "d": 61.800070312499884,
      "v": 115
    },
    {
      "midi": 74,
      "hit": false,
      "t": 38059.51499999997,
      "d": 61.800070312499884,
      "v": 95
    },
    {
      "midi": 57,
      "hit": false,
      "t": 38059.515000000036,
      "d": 271.6871015624929,
      "v": 79
    },
    {
      "midi": 38,
      "hit": false,
      "t": 38283.39450000003,
      "d": 438.43068749999657,
      "v": 83
    },
    {
      "midi": 69,
      "hit": false,
      "t": 38283.394500000046,
      "d": 111.93974999999773,
      "v": 101
    },
    {
      "midi": 69,
      "hit": false,
      "t": 38283.394500000046,
      "d": 111.93974999999773,
      "v": 101
    },
    {
      "midi": 65,
      "hit": false,
      "t": 38507.27399999997,
      "d": 61.800070312499884,
      "v": 89
    },
    {
      "midi": 69,
      "hit": false,
      "t": 38507.27399999997,
      "d": 61.800070312499884,
      "v": 103
    },
    {
      "midi": 74,
      "hit": false,
      "t": 38507.27399999997,
      "d": 61.800070312499884,
      "v": 94
    },
    {
      "midi": 53,
      "hit": false,
      "t": 38507.27400000003,
      "d": 250.69839843750378,
      "v": 75
    },
    {
      "midi": 69,
      "hit": false,
      "t": 38507.27400000004,
      "d": 223.87950000000274,
      "v": 103
    },
    {
      "midi": 69,
      "hit": false,
      "t": 38507.27400000004,
      "d": 223.87950000000274,
      "v": 103
    },
    {
      "midi": 69,
      "hit": false,
      "t": 38731.15349999997,
      "d": 41.97740625000006,
      "v": 117
    },
    {
      "midi": 65,
      "hit": false,
      "t": 38731.15349999997,
      "d": 61.800070312499884,
      "v": 105
    },
    {
      "midi": 74,
      "hit": false,
      "t": 38731.15349999997,
      "d": 82.78877343749627,
      "v": 99
    },
    {
      "midi": 57,
      "hit": false,
      "t": 38731.15350000003,
      "d": 208.72099218750373,
      "v": 75
    },
    {
      "midi": 67,
      "hit": false,
      "t": 38731.153500000044,
      "d": 223.87950000000274,
      "v": 89
    },
    {
      "midi": 67,
      "hit": false,
      "t": 38731.153500000044,
      "d": 223.87950000000274,
      "v": 89
    },
    {
      "midi": 38,
      "hit": false,
      "t": 38955.03300000003,
      "d": 333.48717187500006,
      "v": 67
    },
    {
      "midi": 65,
      "hit": false,
      "t": 38955.03300000005,
      "d": 223.87950000000274,
      "v": 88
    },
    {
      "midi": 65,
      "hit": false,
      "t": 38955.03300000005,
      "d": 223.87950000000274,
      "v": 88
    },
    {
      "midi": 65,
      "hit": false,
      "t": 39178.91249999997,
      "d": 61.800070312499884,
      "v": 101
    },
    {
      "midi": 69,
      "hit": false,
      "t": 39178.91249999997,
      "d": 61.800070312499884,
      "v": 112
    },
    {
      "midi": 74,
      "hit": false,
      "t": 39178.91249999997,
      "d": 83.95481250000012,
      "v": 99
    },
    {
      "midi": 53,
      "hit": false,
      "t": 39178.912500000035,
      "d": 228.54365624999627,
      "v": 83
    },
    {
      "midi": 67,
      "hit": false,
      "t": 39178.91250000005,
      "d": 111.93974999999773,
      "v": 92
    },
    {
      "midi": 67,
      "hit": false,
      "t": 39178.91250000005,
      "d": 111.93974999999773,
      "v": 92
    },
    {
      "midi": 34,
      "hit": false,
      "t": 39402.792,
      "d": 1753.7227500000008,
      "v": 127
    },
    {
      "midi": 46,
      "hit": false,
      "t": 39402.79200000003,
      "d": 459.41939062500023,
      "v": 75
    },
    {
      "midi": 67,
      "hit": false,
      "t": 39402.792000000045,
      "d": 223.87950000000274,
      "v": 94
    },
    {
      "midi": 67,
      "hit": false,
      "t": 39402.792000000045,
      "d": 223.87950000000274,
      "v": 94
    },
    {
      "midi": 65,
      "hit": false,
      "t": 39626.67149999997,
      "d": 61.800070312499884,
      "v": 88
    },
    {
      "midi": 70,
      "hit": false,
      "t": 39626.67149999997,
      "d": 61.800070312499884,
      "v": 111
    },
    {
      "midi": 74,
      "hit": false,
      "t": 39626.67149999997,
      "d": 61.800070312499884,
      "v": 95
    },
    {
      "midi": 53,
      "hit": false,
      "t": 39626.67150000003,
      "d": 208.72099218749645,
      "v": 74
    },
    {
      "midi": 65,
      "hit": false,
      "t": 39626.67150000005,
      "d": 223.87950000000274,
      "v": 88
    },
    {
      "midi": 65,
      "hit": false,
      "t": 39626.67150000005,
      "d": 223.87950000000274,
      "v": 88
    },
    {
      "midi": 70,
      "hit": false,
      "t": 39850.55099999997,
      "d": 41.97740625000006,
      "v": 121
    },
    {
      "midi": 65,
      "hit": false,
      "t": 39850.55099999997,
      "d": 61.800070312499884,
      "v": 101
    },
    {
      "midi": 74,
      "hit": false,
      "t": 39850.55099999997,
      "d": 61.800070312499884,
      "v": 101
    },
    {
      "midi": 65,
      "hit": false,
      "t": 39850.55100000001,
      "d": 53.637796875002095,
      "v": 88
    },
    {
      "midi": 58,
      "hit": false,
      "t": 39850.55100000003,
      "d": 396.4532812500038,
      "v": 70
    },
    {
      "midi": 65,
      "hit": false,
      "t": 39962.49075000001,
      "d": 52.471757812498254,
      "v": 99
    },
    {
      "midi": 46,
      "hit": false,
      "t": 40074.43050000003,
      "d": 354.4758750000037,
      "v": 70
    },
    {
      "midi": 65,
      "hit": false,
      "t": 40079.09465625001,
      "d": 78.12461718750274,
      "v": 99
    },
    {
      "midi": 65,
      "hit": false,
      "t": 40191.034406250015,
      "d": 68.7963046875011,
      "v": 100
    },
    {
      "midi": 70,
      "hit": false,
      "t": 40298.30999999997,
      "d": 41.97740625000006,
      "v": 118
    },
    {
      "midi": 65,
      "hit": false,
      "t": 40298.30999999997,
      "d": 61.800070312499884,
      "v": 97
    },
    {
      "midi": 74,
      "hit": false,
      "t": 40298.30999999997,
      "d": 61.800070312499884,
      "v": 94
    },
    {
      "midi": 64,
      "hit": false,
      "t": 40298.31000000002,
      "d": 88.61896875000093,
      "v": 117
    },
    {
      "midi": 53,
      "hit": false,
      "t": 40298.310000000034,
      "d": 270.5210625000036,
      "v": 60
    },
    {
      "midi": 70,
      "hit": false,
      "t": 40522.18949999997,
      "d": 41.97740625000006,
      "v": 114
    },
    {
      "midi": 65,
      "hit": false,
      "t": 40522.18949999997,
      "d": 61.800070312499884,
      "v": 99
    },
    {
      "midi": 74,
      "hit": false,
      "t": 40522.18949999997,
      "d": 61.800070312499884,
      "v": 95
    },
    {
      "midi": 64,
      "hit": false,
      "t": 40522.18950000002,
      "d": 71.12838281250151,
      "v": 109
    },
    {
      "midi": 58,
      "hit": false,
      "t": 40522.18950000004,
      "d": 480.4080937500039,
      "v": 72
    },
    {
      "midi": 60,
      "hit": false,
      "t": 40746.069000000025,
      "d": 195.89456249999785,
      "v": 101
    },
    {
      "midi": 46,
      "hit": false,
      "t": 40746.06900000004,
      "d": 229.70969531250012,
      "v": 83
    },
    {
      "midi": 69,
      "hit": false,
      "t": 40746.06900000005,
      "d": 111.93974999999773,
      "v": 101
    },
    {
      "midi": 69,
      "hit": false,
      "t": 40746.06900000005,
      "d": 111.93974999999773,
      "v": 101
    },
    {
      "midi": 70,
      "hit": false,
      "t": 40969.94849999997,
      "d": 40.81136718750349,
      "v": 118
    },
    {
      "midi": 65,
      "hit": false,
      "t": 40969.94849999997,
      "d": 61.800070312499884,
      "v": 101
    },
    {
      "midi": 74,
      "hit": false,
      "t": 40969.94849999997,
      "d": 61.800070312499884,
      "v": 101
    },
    {
      "midi": 57,
      "hit": false,
      "t": 40969.94850000002,
      "d": 88.61896875000093,
      "v": 112
    },
    {
      "midi": 53,
      "hit": false,
      "t": 40969.94850000004,
      "d": 124.76617968749633,
      "v": 80
    },
    {
      "midi": 69,
      "hit": false,
      "t": 40969.94850000004,
      "d": 223.87950000000274,
      "v": 101
    },
    {
      "midi": 69,
      "hit": false,
      "t": 40969.94850000004,
      "d": 223.87950000000274,
      "v": 101
    },
    {
      "midi": 72,
      "hit": false,
      "t": 41193.82799999997,
      "d": 1628.9565703124972,
      "v": 127
    },
    {
      "midi": 74,
      "hit": false,
      "t": 41193.82799999997,
      "d": 1649.9452734374936,
      "v": 120
    },
    {
      "midi": 79,
      "hit": false,
      "t": 41193.82799999997,
      "d": 1649.9452734374936,
      "v": 127
    },
    {
      "midi": 43,
      "hit": false,
      "t": 41193.828,
      "d": 1775.877492187501,
      "v": 123
    },
    {
      "midi": 60,
      "hit": false,
      "t": 41193.82800000004,
      "d": 1441.2242812499971,
      "v": 91
    },
    {
      "midi": 55,
      "hit": false,
      "t": 41193.82800000004,
      "d": 3301.0565859374983,
      "v": 75
    },
    {
      "midi": 43,
      "hit": false,
      "t": 41193.82800000004,
      "d": 3320.879249999998,
      "v": 86
    },
    {
      "midi": 67,
      "hit": false,
      "t": 41193.828000000045,
      "d": 111.93974999999773,
      "v": 94
    },
    {
      "midi": 67,
      "hit": false,
      "t": 41193.828000000045,
      "d": 111.93974999999773,
      "v": 94
    },
    {
      "midi": 67,
      "hit": false,
      "t": 41417.70750000004,
      "d": 111.93974999999773,
      "v": 101
    },
    {
      "midi": 67,
      "hit": false,
      "t": 41417.70750000004,
      "d": 111.93974999999773,
      "v": 101
    },
    {
      "midi": 67,
      "hit": false,
      "t": 41641.587000000036,
      "d": 223.87950000000274,
      "v": 103
    },
    {
      "midi": 67,
      "hit": false,
      "t": 41641.587000000036,
      "d": 223.87950000000274,
      "v": 103
    },
    {
      "midi": 69,
      "hit": false,
      "t": 41865.46650000004,
      "d": 111.93974999999773,
      "v": 89
    },
    {
      "midi": 69,
      "hit": false,
      "t": 41865.46650000004,
      "d": 111.93974999999773,
      "v": 89
    },
    {
      "midi": 69,
      "hit": false,
      "t": 42089.346000000034,
      "d": 335.81925000000047,
      "v": 105
    },
    {
      "midi": 69,
      "hit": false,
      "t": 42089.346000000034,
      "d": 335.81925000000047,
      "v": 105
    },
    {
      "midi": 67,
      "hit": false,
      "t": 42537.10500000003,
      "d": 111.93974999999773,
      "v": 89
    },
    {
      "midi": 67,
      "hit": false,
      "t": 42537.10500000003,
      "d": 111.93974999999773,
      "v": 89
    },
    {
      "midi": 67,
      "hit": false,
      "t": 42760.98450000003,
      "d": 671.6385000000009,
      "v": 105
    },
    {
      "midi": 67,
      "hit": false,
      "t": 42760.98450000003,
      "d": 671.6385000000009,
      "v": 105
    },
    {
      "midi": 62,
      "hit": false,
      "t": 42769.14677343752,
      "d": 82.78877343750355,
      "v": 82
    },
    {
      "midi": 60,
      "hit": false,
      "t": 42872.92425000002,
      "d": 103.77747656249994,
      "v": 117
    },
    {
      "midi": 59,
      "hit": false,
      "t": 42976.70172656252,
      "d": 1705.9151484374597,
      "v": 117
    },
    {
      "midi": 71,
      "hit": false,
      "t": 42984.863999999965,
      "d": 1712.9113828124973,
      "v": 101
    },
    {
      "midi": 74,
      "hit": false,
      "t": 42984.863999999965,
      "d": 1712.9113828124973,
      "v": 101
    },
    {
      "midi": 79,
      "hit": false,
      "t": 42984.863999999965,
      "d": 1712.9113828124973,
      "v": 107
    },
    {
      "midi": 47,
      "hit": false,
      "t": 42984.864,
      "d": 1630.122609375001,
      "v": 107
    },
    {
      "midi": 59,
      "hit": false,
      "t": 42984.86400000004,
      "d": 1525.1790937499973,
      "v": 88
    },
    {
      "midi": 50,
      "hit": false,
      "t": 44775.89999999998,
      "d": 1779.375609374998,
      "v": 127
    },
    {
      "midi": 38,
      "hit": false,
      "t": 44775.9,
      "d": 648.3177187499969,
      "v": 127
    },
    {
      "midi": 69,
      "hit": false,
      "t": 44775.90000000003,
      "d": 1343.2770000000019,
      "v": 109
    },
    {
      "midi": 69,
      "hit": false,
      "t": 44775.90000000003,
      "d": 1343.2770000000019,
      "v": 109
    },
    {
      "midi": 74,
      "hit": false,
      "t": 44999.77949999996,
      "d": 61.800070312499884,
      "v": 115
    },
    {
      "midi": 77,
      "hit": false,
      "t": 44999.77949999996,
      "d": 61.800070312499884,
      "v": 127
    },
    {
      "midi": 81,
      "hit": false,
      "t": 44999.77949999996,
      "d": 83.95481250000012,
      "v": 127
    },
    {
      "midi": 74,
      "hit": false,
      "t": 45447.53849999996,
      "d": 62.96610937499645,
      "v": 105
    },
    {
      "midi": 77,
      "hit": false,
      "t": 45447.53849999996,
      "d": 62.96610937499645,
      "v": 125
    },
    {
      "midi": 81,
      "hit": false,
      "t": 45447.53849999996,
      "d": 83.95481249999284,
      "v": 123
    },
    {
      "midi": 45,
      "hit": false,
      "t": 45447.538499999995,
      "d": 668.1403828124967,
      "v": 117
    },
    {
      "midi": 74,
      "hit": false,
      "t": 45671.417999999954,
      "d": 375.4645781250001,
      "v": 101
    },
    {
      "midi": 77,
      "hit": false,
      "t": 45671.417999999954,
      "d": 375.4645781250001,
      "v": 123
    },
    {
      "midi": 82,
      "hit": false,
      "t": 45671.417999999954,
      "d": 375.4645781250001,
      "v": 127
    },
    {
      "midi": 77,
      "hit": false,
      "t": 46119.17699999995,
      "d": 396.4532812499965,
      "v": 120
    },
    {
      "midi": 81,
      "hit": false,
      "t": 46119.17699999995,
      "d": 396.4532812499965,
      "v": 125
    },
    {
      "midi": 74,
      "hit": false,
      "t": 46119.17699999995,
      "d": 417.4419843749929,
      "v": 92
    },
    {
      "midi": 38,
      "hit": false,
      "t": 46119.17699999999,
      "d": 417.4419843750002,
      "v": 112
    },
    {
      "midi": 72,
      "hit": false,
      "t": 46119.17700000003,
      "d": 223.87950000000274,
      "v": 101
    },
    {
      "midi": 72,
      "hit": false,
      "t": 46119.17700000003,
      "d": 223.87950000000274,
      "v": 101
    },
    {
      "midi": 70,
      "hit": false,
      "t": 46343.056500000035,
      "d": 335.81925000000047,
      "v": 107
    },
    {
      "midi": 70,
      "hit": false,
      "t": 46343.056500000035,
      "d": 335.81925000000047,
      "v": 107
    },
    {
      "midi": 46,
      "hit": false,
      "t": 46566.93599999998,
      "d": 1756.0548281250012,
      "v": 127
    },
    {
      "midi": 34,
      "hit": false,
      "t": 46566.93599999999,
      "d": 626.1629765624966,
      "v": 127
    },
    {
      "midi": 74,
      "hit": false,
      "t": 46790.815499999946,
      "d": 61.800070312499884,
      "v": 103
    },
    {
      "midi": 77,
      "hit": false,
      "t": 46790.815499999946,
      "d": 83.95481250000012,
      "v": 125
    },
    {
      "midi": 82,
      "hit": false,
      "t": 46790.815499999946,
      "d": 103.77747656249994,
      "v": 127
    },
    {
      "midi": 74,
      "hit": false,
      "t": 47238.574499999944,
      "d": 83.95481250000012,
      "v": 85
    },
    {
      "midi": 77,
      "hit": false,
      "t": 47238.574499999944,
      "d": 83.95481250000012,
      "v": 112
    },
    {
      "midi": 82,
      "hit": false,
      "t": 47238.574499999944,
      "d": 125.93221875000017,
      "v": 121
    },
    {
      "midi": 34,
      "hit": false,
      "t": 47238.57449999998,
      "d": 648.3177187499969,
      "v": 124
    },
    {
      "midi": 74,
      "hit": false,
      "t": 47462.45399999995,
      "d": 375.4645781250001,
      "v": 95
    },
    {
      "midi": 84,
      "hit": false,
      "t": 47462.45399999995,
      "d": 396.4532812499965,
      "v": 125
    },
    {
      "midi": 77,
      "hit": false,
      "t": 47462.45399999995,
      "d": 417.4419843749929,
      "v": 120
    },
    {
      "midi": 82,
      "hit": false,
      "t": 47686.33349999995,
      "d": 61.800070312499884,
      "v": 23
    },
    {
      "midi": 74,
      "hit": false,
      "t": 47910.21299999994,
      "d": 354.47587499999645,
      "v": 97
    },
    {
      "midi": 82,
      "hit": false,
      "t": 47910.21299999994,
      "d": 354.47587499999645,
      "v": 127
    },
    {
      "midi": 77,
      "hit": false,
      "t": 47910.21299999994,
      "d": 375.46457812499284,
      "v": 123
    },
    {
      "midi": 34,
      "hit": false,
      "t": 47910.212999999974,
      "d": 375.4645781250001,
      "v": 118
    },
    {
      "midi": 72,
      "hit": false,
      "t": 48134.092500000035,
      "d": 111.93974999999773,
      "v": 99
    },
    {
      "midi": 72,
      "hit": false,
      "t": 48134.092500000035,
      "d": 111.93974999999773,
      "v": 99
    },
    {
      "midi": 41,
      "hit": false,
      "t": 48357.97199999997,
      "d": 668.1403828124967,
      "v": 127
    },
    {
      "midi": 48,
      "hit": false,
      "t": 48357.97199999998,
      "d": 1735.0661249999976,
      "v": 120
    },
    {
      "midi": 72,
      "hit": false,
      "t": 48357.97200000003,
      "d": 447.7589999999982,
      "v": 109
    },
    {
      "midi": 72,
      "hit": false,
      "t": 48357.97200000003,
      "d": 447.7589999999982,
      "v": 109
    },
    {
      "midi": 77,
      "hit": false,
      "t": 48581.85149999993,
      "d": 61.800070312499884,
      "v": 120
    },
    {
      "midi": 72,
      "hit": false,
      "t": 48581.85149999993,
      "d": 83.95481250000012,
      "v": 112
    },
    {
      "midi": 81,
      "hit": false,
      "t": 48581.85149999993,
      "d": 125.93221875000017,
      "v": 115
    },
    {
      "midi": 69,
      "hit": false,
      "t": 48805.73100000003,
      "d": 111.93974999999773,
      "v": 95
    },
    {
      "midi": 69,
      "hit": false,
      "t": 48805.73100000003,
      "d": 111.93974999999773,
      "v": 95
    },
    {
      "midi": 72,
      "hit": false,
      "t": 49029.61049999993,
      "d": 83.95481250000012,
      "v": 99
    },
    {
      "midi": 77,
      "hit": false,
      "t": 49029.61049999993,
      "d": 83.95481250000012,
      "v": 107
    },
    {
      "midi": 81,
      "hit": false,
      "t": 49029.61049999993,
      "d": 124.76617968750361,
      "v": 109
    },
    {
      "midi": 36,
      "hit": false,
      "t": 49029.610499999966,
      "d": 564.3629062499967,
      "v": 112
    },
    {
      "midi": 72,
      "hit": false,
      "t": 49029.610500000024,
      "d": 111.93974999999773,
      "v": 105
    },
    {
      "midi": 72,
      "hit": false,
      "t": 49029.610500000024,
      "d": 111.93974999999773,
      "v": 105
    },
    {
      "midi": 82,
      "hit": false,
      "t": 49253.48999999993,
      "d": 354.47587499999645,
      "v": 121
    },
    {
      "midi": 72,
      "hit": false,
      "t": 49253.48999999993,
      "d": 396.4532812499965,
      "v": 94
    },
    {
      "midi": 77,
      "hit": false,
      "t": 49253.48999999993,
      "d": 417.4419843749929,
      "v": 112
    },
    {
      "midi": 72,
      "hit": false,
      "t": 49253.49000000002,
      "d": 223.87950000000274,
      "v": 101
    },
    {
      "midi": 72,
      "hit": false,
      "t": 49253.49000000002,
      "d": 223.87950000000274,
      "v": 101
    },
    {
      "midi": 69,
      "hit": false,
      "t": 49477.36950000002,
      "d": 223.87950000000274,
      "v": 92
    },
    {
      "midi": 69,
      "hit": false,
      "t": 49477.36950000002,
      "d": 223.87950000000274,
      "v": 92
    },
    {
      "midi": 72,
      "hit": false,
      "t": 49701.24899999992,
      "d": 354.47587499999645,
      "v": 112
    },
    {
      "midi": 77,
      "hit": false,
      "t": 49701.24899999992,
      "d": 354.47587499999645,
      "v": 117
    },
    {
      "midi": 81,
      "hit": false,
      "t": 49701.24899999992,
      "d": 354.47587499999645,
      "v": 117
    },
    {
      "midi": 36,
      "hit": false,
      "t": 49701.24899999996,
      "d": 376.6306171874967,
      "v": 117
    },
    {
      "midi": 70,
      "hit": false,
      "t": 49701.249000000025,
      "d": 223.87950000000274,
      "v": 92
    },
    {
      "midi": 70,
      "hit": false,
      "t": 49701.249000000025,
      "d": 223.87950000000274,
      "v": 92
    },
    {
      "midi": 72,
      "hit": false,
      "t": 49925.12850000003,
      "d": 223.87950000000274,
      "v": 105
    },
    {
      "midi": 72,
      "hit": false,
      "t": 49925.12850000003,
      "d": 223.87950000000274,
      "v": 105
    },
    {
      "midi": 72,
      "hit": false,
      "t": 50149.00799999992,
      "d": 1716.4095000000016,
      "v": 101
    },
    {
      "midi": 79,
      "hit": false,
      "t": 50149.00799999992,
      "d": 1716.4095000000016,
      "v": 117
    },
    {
      "midi": 76,
      "hit": false,
      "t": 50149.00799999992,
      "d": 1738.5642421875018,
      "v": 117
    },
    {
      "midi": 36,
      "hit": false,
      "t": 50149.00799999996,
      "d": 626.1629765624966,
      "v": 117
    },
    {
      "midi": 48,
      "hit": false,
      "t": 50149.00799999998,
      "d": 1756.0548281250012,
      "v": 120
    },
    {
      "midi": 67,
      "hit": false,
      "t": 50149.00800000003,
      "d": 559.6987500000032,
      "v": 107
    },
    {
      "midi": 67,
      "hit": false,
      "t": 50149.00800000003,
      "d": 559.6987500000032,
      "v": 107
    },
    {
      "midi": 43,
      "hit": false,
      "t": 50820.64649999995,
      "d": 626.1629765624966,
      "v": 123
    },
    {
      "midi": 36,
      "hit": false,
      "t": 51492.284999999945,
      "d": 438.43068749999657,
      "v": 123
    },
    {
      "midi": 38,
      "hit": false,
      "t": 51940.04399999994,
      "d": 668.1403828124967,
      "v": 117
    },
    {
      "midi": 50,
      "hit": false,
      "t": 51940.04399999998,
      "d": 1796.8661953124974,
      "v": 109
    },
    {
      "midi": 77,
      "hit": false,
      "t": 52163.923499999924,
      "d": 41.97740625000006,
      "v": 127
    },
    {
      "midi": 74,
      "hit": false,
      "t": 52163.923499999924,
      "d": 61.800070312499884,
      "v": 107
    },
    {
      "midi": 81,
      "hit": false,
      "t": 52163.923499999924,
      "d": 103.77747656249994,
      "v": 120
    },
    {
      "midi": 69,
      "hit": false,
      "t": 52387.803000000036,
      "d": 895.5180000000037,
      "v": 103
    },
    {
      "midi": 69,
      "hit": false,
      "t": 52387.803000000036,
      "d": 895.5180000000037,
      "v": 103
    },
    {
      "midi": 77,
      "hit": false,
      "t": 52611.68249999992,
      "d": 61.800070312499884,
      "v": 120
    },
    {
      "midi": 74,
      "hit": false,
      "t": 52611.68249999992,
      "d": 83.95481250000012,
      "v": 89
    },
    {
      "midi": 81,
      "hit": false,
      "t": 52611.68249999992,
      "d": 83.95481250000012,
      "v": 112
    },
    {
      "midi": 38,
      "hit": false,
      "t": 52611.68249999994,
      "d": 648.3177187499969,
      "v": 125
    },
    {
      "midi": 74,
      "hit": false,
      "t": 52835.561999999925,
      "d": 354.47587499999645,
      "v": 79
    },
    {
      "midi": 77,
      "hit": false,
      "t": 52835.561999999925,
      "d": 375.46457812499284,
      "v": 109
    },
    {
      "midi": 82,
      "hit": false,
      "t": 52835.561999999925,
      "d": 396.45328124998923,
      "v": 127
    },
    {
      "midi": 74,
      "hit": false,
      "t": 53283.320999999916,
      "d": 396.4532812499965,
      "v": 101
    },
    {
      "midi": 77,
      "hit": false,
      "t": 53283.320999999916,
      "d": 417.4419843749929,
      "v": 115
    },
    {
      "midi": 81,
      "hit": false,
      "t": 53283.320999999916,
      "d": 417.4419843749929,
      "v": 120
    },
    {
      "midi": 38,
      "hit": false,
      "t": 53283.32099999993,
      "d": 417.4419843750002,
      "v": 103
    },
    {
      "midi": 72,
      "hit": false,
      "t": 53283.32100000004,
      "d": 447.7589999999982,
      "v": 103
    },
    {
      "midi": 72,
      "hit": false,
      "t": 53283.32100000004,
      "d": 447.7589999999982,
      "v": 103
    },
    {
      "midi": 34,
      "hit": false,
      "t": 53731.07999999993,
      "d": 584.1855703124966,
      "v": 124
    },
    {
      "midi": 46,
      "hit": false,
      "t": 53731.07999999998,
      "d": 1777.0435312499976,
      "v": 127
    },
    {
      "midi": 74,
      "hit": false,
      "t": 53731.08000000004,
      "d": 447.7589999999982,
      "v": 92
    },
    {
      "midi": 74,
      "hit": false,
      "t": 53731.08000000004,
      "d": 447.7589999999982,
      "v": 92
    },
    {
      "midi": 74,
      "hit": false,
      "t": 53954.95949999991,
      "d": 61.800070312499884,
      "v": 103
    },
    {
      "midi": 77,
      "hit": false,
      "t": 53954.95949999991,
      "d": 85.12085156249668,
      "v": 125
    },
    {
      "midi": 82,
      "hit": false,
      "t": 53954.95949999991,
      "d": 106.10955468749307,
      "v": 127
    },
    {
      "midi": 72,
      "hit": false,
      "t": 54178.839000000036,
      "d": 223.87950000000274,
      "v": 99
    },
    {
      "midi": 72,
      "hit": false,
      "t": 54178.839000000036,
      "d": 223.87950000000274,
      "v": 99
    },
    {
      "midi": 74,
      "hit": false,
      "t": 54402.7184999999,
      "d": 61.800070312499884,
      "v": 94
    },
    {
      "midi": 77,
      "hit": false,
      "t": 54402.7184999999,
      "d": 61.800070312499884,
      "v": 109
    },
    {
      "midi": 82,
      "hit": false,
      "t": 54402.7184999999,
      "d": 103.77747656249994,
      "v": 127
    },
    {
      "midi": 34,
      "hit": false,
      "t": 54402.71849999992,
      "d": 564.3629062499967,
      "v": 127
    },
    {
      "midi": 70,
      "hit": false,
      "t": 54402.71850000004,
      "d": 783.5782499999987,
      "v": 97
    },
    {
      "midi": 70,
      "hit": false,
      "t": 54402.71850000004,
      "d": 783.5782499999987,
      "v": 97
    },
    {
      "midi": 74,
      "hit": false,
      "t": 54626.5979999999,
      "d": 354.47587499999645,
      "v": 86
    },
    {
      "midi": 77,
      "hit": false,
      "t": 54626.5979999999,
      "d": 375.46457812499284,
      "v": 112
    },
    {
      "midi": 84,
      "hit": false,
      "t": 54626.5979999999,
      "d": 375.46457812499284,
      "v": 120
    },
    {
      "midi": 74,
      "hit": false,
      "t": 55074.356999999894,
      "d": 375.4645781250001,
      "v": 94
    },
    {
      "midi": 77,
      "hit": false,
      "t": 55074.356999999894,
      "d": 375.4645781250001,
      "v": 112
    },
    {
      "midi": 82,
      "hit": false,
      "t": 55074.356999999894,
      "d": 396.4532812499965,
      "v": 127
    },
    {
      "midi": 34,
      "hit": false,
      "t": 55074.356999999916,
      "d": 459.41939062500023,
      "v": 81
    },
    {
      "midi": 72,
      "hit": false,
      "t": 55298.236500000035,
      "d": 111.93974999999773,
      "v": 101
    },
    {
      "midi": 72,
      "hit": false,
      "t": 55298.236500000035,
      "d": 111.93974999999773,
      "v": 101
    },
    {
      "midi": 41,
      "hit": false,
      "t": 55522.115999999914,
      "d": 584.1855703125038,
      "v": 127
    },
    {
      "midi": 48,
      "hit": false,
      "t": 55522.11599999998,
      "d": 1733.900085937501,
      "v": 125
    },
    {
      "midi": 72,
      "hit": false,
      "t": 55522.11600000003,
      "d": 671.6385000000009,
      "v": 107
    },
    {
      "midi": 72,
      "hit": false,
      "t": 55522.11600000003,
      "d": 671.6385000000009,
      "v": 107
    },
    {
      "midi": 81,
      "hit": false,
      "t": 55745.99549999989,
      "d": 61.800070312499884,
      "v": 120
    },
    {
      "midi": 77,
      "hit": false,
      "t": 55745.99549999989,
      "d": 82.78877343749627,
      "v": 115
    },
    {
      "midi": 84,
      "hit": false,
      "t": 55745.99549999989,
      "d": 82.78877343749627,
      "v": 125
    },
    {
      "midi": 77,
      "hit": false,
      "t": 56193.754499999886,
      "d": 103.77747656249994,
      "v": 103
    },
    {
      "midi": 81,
      "hit": false,
      "t": 56193.754499999886,
      "d": 103.77747656249994,
      "v": 112
    },
    {
      "midi": 84,
      "hit": false,
      "t": 56193.754499999886,
      "d": 103.77747656249994,
      "v": 117
    },
    {
      "midi": 41,
      "hit": false,
      "t": 56193.754499999915,
      "d": 584.1855703124966,
      "v": 117
    },
    {
      "midi": 69,
      "hit": false,
      "t": 56193.75450000003,
      "d": 447.7589999999982,
      "v": 94
    },
    {
      "midi": 69,
      "hit": false,
      "t": 56193.75450000003,
      "d": 447.7589999999982,
      "v": 94
    },
    {
      "midi": 77,
      "hit": false,
      "t": 56417.63399999989,
      "d": 334.6532109374966,
      "v": 115
    },
    {
      "midi": 81,
      "hit": false,
      "t": 56417.63399999989,
      "d": 354.47587499999645,
      "v": 127
    },
    {
      "midi": 86,
      "hit": false,
      "t": 56417.63399999989,
      "d": 354.47587499999645,
      "v": 115
    },
    {
      "midi": 72,
      "hit": false,
      "t": 56641.51350000003,
      "d": 447.7589999999982,
      "v": 112
    },
    {
      "midi": 72,
      "hit": false,
      "t": 56641.51350000003,
      "d": 447.7589999999982,
      "v": 112
    },
    {
      "midi": 77,
      "hit": false,
      "t": 56865.39299999989,
      "d": 333.48717187500006,
      "v": 120
    },
    {
      "midi": 81,
      "hit": false,
      "t": 56865.39299999989,
      "d": 354.47587499999645,
      "v": 125
    },
    {
      "midi": 84,
      "hit": false,
      "t": 56865.39299999989,
      "d": 375.46457812499284,
      "v": 127
    },
    {
      "midi": 41,
      "hit": false,
      "t": 56865.39299999991,
      "d": 459.41939062500023,
      "v": 117
    },
    {
      "midi": 71,
      "hit": false,
      "t": 57089.27250000003,
      "d": 111.93974999999773,
      "v": 99
    },
    {
      "midi": 71,
      "hit": false,
      "t": 57089.27250000003,
      "d": 111.93974999999773,
      "v": 99
    },
    {
      "midi": 79,
      "hit": false,
      "t": 57313.15199999988,
      "d": 1590.4772812500014,
      "v": 120
    },
    {
      "midi": 86,
      "hit": false,
      "t": 57313.15199999988,
      "d": 1590.4772812500014,
      "v": 117
    },
    {
      "midi": 83,
      "hit": false,
      "t": 57313.15199999988,
      "d": 1612.6320234375016,
      "v": 127
    },
    {
      "midi": 43,
      "hit": false,
      "t": 57313.15199999991,
      "d": 647.1516796875003,
      "v": 127
    },
    {
      "midi": 50,
      "hit": false,
      "t": 57313.15199999998,
      "d": 1631.288648437505,
      "v": 109
    },
    {
      "midi": 71,
      "hit": false,
      "t": 57313.152000000024,
      "d": 1007.4577500000014,
      "v": 103
    },
    {
      "midi": 71,
      "hit": false,
      "t": 57313.152000000024,
      "d": 1007.4577500000014,
      "v": 103
    },
    {
      "midi": 43,
      "hit": false,
      "t": 57984.79049999991,
      "d": 564.3629062499967,
      "v": 109
    },
    {
      "midi": 43,
      "hit": false,
      "t": 58656.4289999999,
      "d": 438.43068749999657,
      "v": 115
    },
    {
      "midi": 62,
      "hit": false,
      "t": 58880.30850000003,
      "d": 111.93974999999773,
      "v": 74
    },
    {
      "midi": 62,
      "hit": false,
      "t": 58880.30850000003,
      "d": 111.93974999999773,
      "v": 74
    },
    {
      "midi": 38,
      "hit": false,
      "t": 59104.1879999999,
      "d": 1795.7001562500009,
      "v": 123
    },
    {
      "midi": 62,
      "hit": false,
      "t": 59104.188000000024,
      "d": 111.93974999999773,
      "v": 91
    },
    {
      "midi": 62,
      "hit": false,
      "t": 59104.188000000024,
      "d": 111.93974999999773,
      "v": 91
    },
    {
      "midi": 38,
      "hit": false,
      "t": 59104.18800000004,
      "d": 542.2081640625038,
      "v": 91
    },
    {
      "midi": 57,
      "hit": false,
      "t": 59328.06749999998,
      "d": 80.45669531250314,
      "v": 112
    },
    {
      "midi": 62,
      "hit": false,
      "t": 59328.06750000002,
      "d": 111.93974999999773,
      "v": 79
    },
    {
      "midi": 62,
      "hit": false,
      "t": 59328.06750000002,
      "d": 111.93974999999773,
      "v": 79
    },
    {
      "midi": 53,
      "hit": false,
      "t": 59328.06750000004,
      "d": 228.54365625000355,
      "v": 65
    },
    {
      "midi": 65,
      "hit": false,
      "t": 59551.946999999986,
      "d": 222.7134609374989,
      "v": 105
    },
    {
      "midi": 62,
      "hit": false,
      "t": 59551.947000000015,
      "d": 223.87950000000274,
      "v": 77
    },
    {
      "midi": 62,
      "hit": false,
      "t": 59551.947000000015,
      "d": 223.87950000000274,
      "v": 77
    },
    {
      "midi": 57,
      "hit": false,
      "t": 59551.947000000044,
      "d": 417.4419843749929,
      "v": 83
    },
    {
      "midi": 57,
      "hit": false,
      "t": 59775.82649999998,
      "d": 80.45669531250314,
      "v": 91
    },
    {
      "midi": 64,
      "hit": false,
      "t": 59775.82650000002,
      "d": 223.87950000000274,
      "v": 107
    },
    {
      "midi": 64,
      "hit": false,
      "t": 59775.82650000002,
      "d": 223.87950000000274,
      "v": 107
    },
    {
      "midi": 38,
      "hit": false,
      "t": 59775.82650000004,
      "d": 522.3854999999967,
      "v": 82
    },
    {
      "midi": 64,
      "hit": false,
      "t": 59999.705999999984,
      "d": 202.89079687499907,
      "v": 123
    },
    {
      "midi": 65,
      "hit": false,
      "t": 59999.70600000002,
      "d": 111.93974999999773,
      "v": 91
    },
    {
      "midi": 65,
      "hit": false,
      "t": 59999.70600000002,
      "d": 111.93974999999773,
      "v": 91
    },
    {
      "midi": 53,
      "hit": false,
      "t": 59999.706000000035,
      "d": 292.67580468750384,
      "v": 58
    },
    {
      "midi": 60,
      "hit": false,
      "t": 60223.58549999998,
      "d": 80.45669531250314,
      "v": 92
    },
    {
      "midi": 65,
      "hit": false,
      "t": 60223.585500000016,
      "d": 223.87950000000274,
      "v": 92
    },
    {
      "midi": 65,
      "hit": false,
      "t": 60223.585500000016,
      "d": 223.87950000000274,
      "v": 92
    },
    {
      "midi": 57,
      "hit": false,
      "t": 60223.58550000004,
      "d": 459.41939062500023,
      "v": 72
    },
    {
      "midi": 57,
      "hit": false,
      "t": 60447.46499999998,
      "d": 60.63403125000332,
      "v": 92
    },
    {
      "midi": 64,
      "hit": false,
      "t": 60447.46500000002,
      "d": 223.87950000000274,
      "v": 112
    },
    {
      "midi": 64,
      "hit": false,
      "t": 60447.46500000002,
      "d": 223.87950000000274,
      "v": 112
    },
    {
      "midi": 38,
      "hit": false,
      "t": 60447.46500000003,
      "d": 291.5097656250073,
      "v": 85
    },
    {
      "midi": 53,
      "hit": false,
      "t": 60671.344499999985,
      "d": 60.63403125000332,
      "v": 112
    },
    {
      "midi": 65,
      "hit": false,
      "t": 60671.34450000002,
      "d": 223.87950000000274,
      "v": 77
    },
    {
      "midi": 65,
      "hit": false,
      "t": 60671.34450000002,
      "d": 223.87950000000274,
      "v": 77
    },
    {
      "midi": 53,
      "hit": false,
      "t": 60671.344500000036,
      "d": 166.74358593750367,
      "v": 85
    },
    {
      "midi": 34,
      "hit": false,
      "t": 60895.2239999999,
      "d": 1775.877492187501,
      "v": 124
    },
    {
      "midi": 64,
      "hit": false,
      "t": 60895.224000000024,
      "d": 223.87950000000274,
      "v": 109
    },
    {
      "midi": 64,
      "hit": false,
      "t": 60895.224000000024,
      "d": 223.87950000000274,
      "v": 109
    },
    {
      "midi": 46,
      "hit": false,
      "t": 60895.22400000004,
      "d": 563.1968671875002,
      "v": 83
    },
    {
      "midi": 57,
      "hit": false,
      "t": 61119.10349999999,
      "d": 60.63403125000332,
      "v": 115
    },
    {
      "midi": 62,
      "hit": false,
      "t": 61119.10350000003,
      "d": 111.93974999999773,
      "v": 79
    },
    {
      "midi": 62,
      "hit": false,
      "t": 61119.10350000003,
      "d": 111.93974999999773,
      "v": 79
    },
    {
      "midi": 53,
      "hit": false,
      "t": 61119.10350000004,
      "d": 229.70969531250012,
      "v": 79
    },
    {
      "midi": 65,
      "hit": false,
      "t": 61342.98299999999,
      "d": 242.536125000006,
      "v": 109
    },
    {
      "midi": 62,
      "hit": false,
      "t": 61342.98300000002,
      "d": 111.93974999999773,
      "v": 86
    },
    {
      "midi": 62,
      "hit": false,
      "t": 61342.98300000002,
      "d": 111.93974999999773,
      "v": 86
    },
    {
      "midi": 58,
      "hit": false,
      "t": 61342.983000000044,
      "d": 187.73228906249278,
      "v": 75
    },
    {
      "midi": 57,
      "hit": false,
      "t": 61566.862499999996,
      "d": 80.45669531250314,
      "v": 105
    },
    {
      "midi": 46,
      "hit": false,
      "t": 61566.86250000004,
      "d": 459.4193906250075,
      "v": 64
    },
    {
      "midi": 64,
      "hit": false,
      "t": 61790.742,
      "d": 222.7134609374989,
      "v": 123
    },
    {
      "midi": 53,
      "hit": false,
      "t": 61790.74200000004,
      "d": 228.54365625000355,
      "v": 82
    },
    {
      "midi": 60,
      "hit": false,
      "t": 62014.621499999994,
      "d": 80.45669531250314,
      "v": 91
    },
    {
      "midi": 58,
      "hit": false,
      "t": 62014.621500000045,
      "d": 208.72099218750373,
      "v": 73
    },
    {
      "midi": 57,
      "hit": false,
      "t": 62238.501,
      "d": 60.63403125000332,
      "v": 94
    },
    {
      "midi": 46,
      "hit": false,
      "t": 62238.50100000005,
      "d": 333.48717187500006,
      "v": 87
    },
    {
      "midi": 53,
      "hit": false,
      "t": 62462.3805,
      "d": 40.81136718750349,
      "v": 109
    },
    {
      "midi": 62,
      "hit": false,
      "t": 62462.38050000002,
      "d": 111.93974999999773,
      "v": 91
    },
    {
      "midi": 62,
      "hit": false,
      "t": 62462.38050000002,
      "d": 111.93974999999773,
      "v": 91
    },
    {
      "midi": 58,
      "hit": false,
      "t": 62462.38050000005,
      "d": 124.76617968749633,
      "v": 83
    },
    {
      "midi": 38,
      "hit": false,
      "t": 62686.2599999999,
      "d": 1754.8887890624974,
      "v": 120
    },
    {
      "midi": 62,
      "hit": false,
      "t": 62686.26000000002,
      "d": 111.93974999999773,
      "v": 107
    },
    {
      "midi": 62,
      "hit": false,
      "t": 62686.26000000002,
      "d": 111.93974999999773,
      "v": 107
    },
    {
      "midi": 38,
      "hit": false,
      "t": 62686.260000000046,
      "d": 438.43068750000384,
      "v": 88
    },
    {
      "midi": 57,
      "hit": false,
      "t": 62910.139500000005,
      "d": 80.45669531250314,
      "v": 101
    },
    {
      "midi": 62,
      "hit": false,
      "t": 62910.13950000001,
      "d": 111.93974999999773,
      "v": 91
    },
    {
      "midi": 62,
      "hit": false,
      "t": 62910.13950000001,
      "d": 111.93974999999773,
      "v": 91
    },
    {
      "midi": 53,
      "hit": false,
      "t": 62910.13950000005,
      "d": 228.54365625000355,
      "v": 67
    },
    {
      "midi": 62,
      "hit": false,
      "t": 63134.01900000001,
      "d": 111.93974999999773,
      "v": 94
    },
    {
      "midi": 65,
      "hit": false,
      "t": 63134.01900000001,
      "d": 222.7134609374989,
      "v": 107
    },
    {
      "midi": 62,
      "hit": false,
      "t": 63134.01900000001,
      "d": 111.93974999999773,
      "v": 94
    },
    {
      "midi": 57,
      "hit": false,
      "t": 63134.01900000005,
      "d": 229.70969531250012,
      "v": 72
    },
    {
      "midi": 62,
      "hit": false,
      "t": 63357.8985,
      "d": 223.87950000000274,
      "v": 92
    },
    {
      "midi": 57,
      "hit": false,
      "t": 63357.8985,
      "d": 121.26806249999936,
      "v": 103
    },
    {
      "midi": 62,
      "hit": false,
      "t": 63357.8985,
      "d": 223.87950000000274,
      "v": 92
    },
    {
      "midi": 38,
      "hit": false,
      "t": 63357.898500000054,
      "d": 396.4532812499965,
      "v": 77
    },
    {
      "midi": 64,
      "hit": false,
      "t": 63581.778000000006,
      "d": 447.7589999999982,
      "v": 120
    },
    {
      "midi": 64,
      "hit": false,
      "t": 63581.778000000006,
      "d": 223.87950000000274,
      "v": 120
    },
    {
      "midi": 64,
      "hit": false,
      "t": 63581.778000000006,
      "d": 447.7589999999982,
      "v": 120
    },
    {
      "midi": 53,
      "hit": false,
      "t": 63581.77800000005,
      "d": 292.67580468750384,
      "v": 72
    },
    {
      "midi": 60,
      "hit": false,
      "t": 63805.65750000001,
      "d": 80.45669531250314,
      "v": 85
    },
    {
      "midi": 57,
      "hit": false,
      "t": 63805.65750000005,
      "d": 459.4193906250075,
      "v": 74
    },
    {
      "midi": 65,
      "hit": false,
      "t": 64029.537000000004,
      "d": 447.7589999999982,
      "v": 95
    },
    {
      "midi": 65,
      "hit": false,
      "t": 64029.537000000004,
      "d": 447.7589999999982,
      "v": 95
    },
    {
      "midi": 57,
      "hit": false,
      "t": 64029.53700000001,
      "d": 80.45669531250314,
      "v": 105
    },
    {
      "midi": 38,
      "hit": false,
      "t": 64029.537000000055,
      "d": 270.5210625000036,
      "v": 56
    },
    {
      "midi": 53,
      "hit": false,
      "t": 64253.416500000014,
      "d": 60.63403125000332,
      "v": 95
    },
    {
      "midi": 53,
      "hit": false,
      "t": 64253.41650000006,
      "d": 228.54365625000355,
      "v": 77
    },
    {
      "midi": 34,
      "hit": false,
      "t": 64477.2959999999,
      "d": 1754.8887890625047,
      "v": 124
    },
    {
      "midi": 69,
      "hit": false,
      "t": 64477.296,
      "d": 335.81925000000047,
      "v": 107
    },
    {
      "midi": 69,
      "hit": false,
      "t": 64477.296,
      "d": 335.81925000000047,
      "v": 107
    },
    {
      "midi": 46,
      "hit": false,
      "t": 64477.29600000006,
      "d": 480.4080937499966,
      "v": 72
    },
    {
      "midi": 57,
      "hit": false,
      "t": 64701.17550000002,
      "d": 80.45669531250314,
      "v": 99
    },
    {
      "midi": 53,
      "hit": false,
      "t": 64701.17550000006,
      "d": 208.72099218749645,
      "v": 79
    },
    {
      "midi": 65,
      "hit": false,
      "t": 64925.05500000002,
      "d": 202.89079687499907,
      "v": 103
    },
    {
      "midi": 58,
      "hit": false,
      "t": 64925.05500000006,
      "d": 250.6983984374965,
      "v": 70
    },
    {
      "midi": 57,
      "hit": false,
      "t": 65148.93450000002,
      "d": 101.44539843749953,
      "v": 109
    },
    {
      "midi": 46,
      "hit": false,
      "t": 65148.934500000054,
      "d": 438.43068749999657,
      "v": 83
    },
    {
      "midi": 64,
      "hit": false,
      "t": 65372.81400000002,
      "d": 202.89079687500634,
      "v": 120
    },
    {
      "midi": 53,
      "hit": false,
      "t": 65372.81400000006,
      "d": 249.53235937499267,
      "v": 77
    },
    {
      "midi": 60,
      "hit": false,
      "t": 65596.69350000002,
      "d": 101.44539843749953,
      "v": 79
    },
    {
      "midi": 58,
      "hit": false,
      "t": 65596.69350000005,
      "d": 396.4532812499965,
      "v": 68
    },
    {
      "midi": 57,
      "hit": false,
      "t": 65820.57300000002,
      "d": 60.63403124999604,
      "v": 92
    },
    {
      "midi": 46,
      "hit": false,
      "t": 65820.57300000005,
      "d": 271.6871015624929,
      "v": 69
    },
    {
      "midi": 69,
      "hit": false,
      "t": 66044.4525,
      "d": 111.939750000005,
      "v": 95
    },
    {
      "midi": 69,
      "hit": false,
      "t": 66044.4525,
      "d": 111.939750000005,
      "v": 95
    },
    {
      "midi": 53,
      "hit": false,
      "t": 66044.45250000001,
      "d": 60.63403124999604,
      "v": 107
    },
    {
      "midi": 53,
      "hit": false,
      "t": 66044.45250000004,
      "d": 228.54365624999627,
      "v": 79
    },
    {
      "midi": 38,
      "hit": false,
      "t": 66268.33199999991,
      "d": 1778.2095703124942,
      "v": 120
    },
    {
      "midi": 69,
      "hit": false,
      "t": 66268.33200000001,
      "d": 111.939750000005,
      "v": 105
    },
    {
      "midi": 69,
      "hit": false,
      "t": 66268.33200000001,
      "d": 111.939750000005,
      "v": 105
    },
    {
      "midi": 38,
      "hit": false,
      "t": 66268.33200000004,
      "d": 544.5402421874896,
      "v": 72
    },
    {
      "midi": 57,
      "hit": false,
      "t": 66492.2115,
      "d": 101.44539843749953,
      "v": 109
    },
    {
      "midi": 69,
      "hit": false,
      "t": 66492.21150000002,
      "d": 111.939750000005,
      "v": 97
    },
    {
      "midi": 69,
      "hit": false,
      "t": 66492.21150000002,
      "d": 111.939750000005,
      "v": 97
    },
    {
      "midi": 53,
      "hit": false,
      "t": 66492.21150000003,
      "d": 249.53235937499267,
      "v": 80
    },
    {
      "midi": 65,
      "hit": false,
      "t": 66716.091,
      "d": 181.90209375000268,
      "v": 105
    },
    {
      "midi": 57,
      "hit": false,
      "t": 66716.09100000003,
      "d": 271.6871015624929,
      "v": 79
    },
    {
      "midi": 69,
      "hit": false,
      "t": 66716.09100000003,
      "d": 111.939750000005,
      "v": 101
    },
    {
      "midi": 69,
      "hit": false,
      "t": 66716.09100000003,
      "d": 111.939750000005,
      "v": 101
    },
    {
      "midi": 57,
      "hit": false,
      "t": 66939.9705,
      "d": 80.45669531250314,
      "v": 99
    },
    {
      "midi": 38,
      "hit": false,
      "t": 66939.97050000002,
      "d": 438.4306874999893,
      "v": 83
    },
    {
      "midi": 69,
      "hit": false,
      "t": 66939.97050000004,
      "d": 223.87949999999546,
      "v": 95
    },
    {
      "midi": 69,
      "hit": false,
      "t": 66939.97050000004,
      "d": 223.87949999999546,
      "v": 95
    },
    {
      "midi": 64,
      "hit": false,
      "t": 67163.85,
      "d": 202.89079687499907,
      "v": 125
    },
    {
      "midi": 53,
      "hit": false,
      "t": 67163.85000000002,
      "d": 250.6983984374965,
      "v": 75
    },
    {
      "midi": 70,
      "hit": false,
      "t": 67163.85000000003,
      "d": 223.87949999999546,
      "v": 85
    },
    {
      "midi": 70,
      "hit": false,
      "t": 67163.85000000003,
      "d": 223.87949999999546,
      "v": 85
    },
    {
      "midi": 60,
      "hit": false,
      "t": 67387.7295,
      "d": 80.45669531250314,
      "v": 86
    },
    {
      "midi": 57,
      "hit": false,
      "t": 67387.72950000002,
      "d": 208.72099218750373,
      "v": 75
    },
    {
      "midi": 69,
      "hit": false,
      "t": 67387.72950000003,
      "d": 223.87949999999546,
      "v": 94
    },
    {
      "midi": 69,
      "hit": false,
      "t": 67387.72950000003,
      "d": 223.87949999999546,
      "v": 94
    },
    {
      "midi": 57,
      "hit": false,
      "t": 67611.60900000001,
      "d": 80.45669531250314,
      "v": 97
    },
    {
      "midi": 38,
      "hit": false,
      "t": 67611.60900000003,
      "d": 333.4871718749928,
      "v": 67
    },
    {
      "midi": 67,
      "hit": false,
      "t": 67611.60900000003,
      "d": 223.87949999999546,
      "v": 83
    },
    {
      "midi": 67,
      "hit": false,
      "t": 67611.60900000003,
      "d": 223.87949999999546,
      "v": 83
    },
    {
      "midi": 53,
      "hit": false,
      "t": 67835.48850000002,
      "d": 228.54365624999627,
      "v": 83
    },
    {
      "midi": 69,
      "hit": false,
      "t": 67835.48850000002,
      "d": 223.87949999999546,
      "v": 89
    },
    {
      "midi": 53,
      "hit": false,
      "t": 67835.48850000002,
      "d": 60.63403124999604,
      "v": 115
    },
    {
      "midi": 69,
      "hit": false,
      "t": 67835.48850000002,
      "d": 223.87949999999546,
      "v": 89
    },
    {
      "midi": 34,
      "hit": false,
      "t": 68059.3679999999,
      "d": 1753.7227500000008,
      "v": 127
    },
    {
      "midi": 46,
      "hit": false,
      "t": 68059.36800000002,
      "d": 459.41939062500023,
      "v": 75
    },
    {
      "midi": 67,
      "hit": false,
      "t": 68059.36800000002,
      "d": 223.87949999999546,
      "v": 95
    },
    {
      "midi": 67,
      "hit": false,
      "t": 68059.36800000002,
      "d": 223.87949999999546,
      "v": 95
    },
    {
      "midi": 53,
      "hit": false,
      "t": 68283.24750000001,
      "d": 208.72099218750373,
      "v": 74
    },
    {
      "midi": 65,
      "hit": false,
      "t": 68283.24750000001,
      "d": 223.87949999999546,
      "v": 95
    },
    {
      "midi": 57,
      "hit": false,
      "t": 68283.24750000001,
      "d": 80.45669531250314,
      "v": 109
    },
    {
      "midi": 65,
      "hit": false,
      "t": 68283.24750000001,
      "d": 223.87949999999546,
      "v": 95
    },
    {
      "midi": 58,
      "hit": false,
      "t": 68507.12700000002,
      "d": 396.4532812499965,
      "v": 70
    },
    {
      "midi": 65,
      "hit": false,
      "t": 68507.12700000002,
      "d": 181.90209375000268,
      "v": 95
    },
    {
      "midi": 46,
      "hit": false,
      "t": 68731.00650000002,
      "d": 354.4758749999892,
      "v": 70
    },
    {
      "midi": 57,
      "hit": false,
      "t": 68731.00650000002,
      "d": 121.26806250000664,
      "v": 105
    },
    {
      "midi": 53,
      "hit": false,
      "t": 68954.88600000001,
      "d": 270.52106249998906,
      "v": 60
    },
    {
      "midi": 64,
      "hit": false,
      "t": 68954.88600000003,
      "d": 181.90209375000268,
      "v": 117
    },
    {
      "midi": 58,
      "hit": false,
      "t": 69178.76550000001,
      "d": 480.4080937499966,
      "v": 72
    },
    {
      "midi": 60,
      "hit": false,
      "t": 69178.76550000002,
      "d": 80.45669531250314,
      "v": 99
    },
    {
      "midi": 46,
      "hit": false,
      "t": 69402.645,
      "d": 229.70969531250012,
      "v": 83
    },
    {
      "midi": 57,
      "hit": false,
      "t": 69402.64500000003,
      "d": 121.26806250000664,
      "v": 99
    },
    {
      "midi": 53,
      "hit": false,
      "t": 69626.5245,
      "d": 124.76617968750361,
      "v": 80
    },
    {
      "midi": 69,
      "hit": false,
      "t": 69626.52450000001,
      "d": 111.939750000005,
      "v": 103
    },
    {
      "midi": 69,
      "hit": false,
      "t": 69626.52450000001,
      "d": 111.939750000005,
      "v": 103
    },
    {
      "midi": 53,
      "hit": false,
      "t": 69626.52450000004,
      "d": 101.44539843749953,
      "v": 105
    },
    {
      "midi": 72,
      "hit": false,
      "t": 69850.40399999988,
      "d": 1745.560476562503,
      "v": 127
    },
    {
      "midi": 74,
      "hit": false,
      "t": 69850.40399999988,
      "d": 1745.560476562503,
      "v": 120
    },
    {
      "midi": 79,
      "hit": false,
      "t": 69850.40399999988,
      "d": 1745.560476562503,
      "v": 123
    },
    {
      "midi": 43,
      "hit": false,
      "t": 69850.40399999991,
      "d": 1775.877492187501,
      "v": 123
    },
    {
      "midi": 60,
      "hit": false,
      "t": 69850.40400000001,
      "d": 1441.2242812500044,
      "v": 91
    },
    {
      "midi": 55,
      "hit": false,
      "t": 69850.40400000001,
      "d": 3301.0565859375056,
      "v": 75
    },
    {
      "midi": 43,
      "hit": false,
      "t": 69850.40400000001,
      "d": 3320.8792500000127,
      "v": 86
    },
    {
      "midi": 67,
      "hit": false,
      "t": 69850.40400000002,
      "d": 111.939750000005,
      "v": 95
    },
    {
      "midi": 67,
      "hit": false,
      "t": 69850.40400000002,
      "d": 111.939750000005,
      "v": 95
    },
    {
      "midi": 60,
      "hit": false,
      "t": 69850.40400000004,
      "d": 1563.6583828125003,
      "v": 115
    },
    {
      "midi": 67,
      "hit": false,
      "t": 70074.28350000003,
      "d": 111.939750000005,
      "v": 97
    },
    {
      "midi": 67,
      "hit": false,
      "t": 70074.28350000003,
      "d": 111.939750000005,
      "v": 97
    },
    {
      "midi": 67,
      "hit": false,
      "t": 70298.16300000004,
      "d": 111.939750000005,
      "v": 103
    },
    {
      "midi": 67,
      "hit": false,
      "t": 70298.16300000004,
      "d": 111.939750000005,
      "v": 103
    },
    {
      "midi": 67,
      "hit": false,
      "t": 70522.04250000005,
      "d": 111.939750000005,
      "v": 101
    },
    {
      "midi": 67,
      "hit": false,
      "t": 70522.04250000005,
      "d": 111.939750000005,
      "v": 101
    },
    {
      "midi": 67,
      "hit": false,
      "t": 70745.92200000006,
      "d": 111.939750000005,
      "v": 107
    },
    {
      "midi": 67,
      "hit": false,
      "t": 70745.92200000006,
      "d": 111.939750000005,
      "v": 107
    },
    {
      "midi": 67,
      "hit": false,
      "t": 70969.80150000007,
      "d": 111.939750000005,
      "v": 105
    },
    {
      "midi": 67,
      "hit": false,
      "t": 70969.80150000007,
      "d": 111.939750000005,
      "v": 105
    },
    {
      "midi": 67,
      "hit": false,
      "t": 71193.68100000008,
      "d": 223.87949999999546,
      "v": 112
    },
    {
      "midi": 67,
      "hit": false,
      "t": 71193.68100000008,
      "d": 223.87949999999546,
      "v": 112
    },
    {
      "midi": 69,
      "hit": false,
      "t": 71417.56050000008,
      "d": 111.939750000005,
      "v": 112
    },
    {
      "midi": 69,
      "hit": false,
      "t": 71417.56050000008,
      "d": 111.939750000005,
      "v": 112
    },
    {
      "midi": 62,
      "hit": false,
      "t": 71436.21712500004,
      "d": 181.90209375000268,
      "v": 74
    },
    {
      "midi": 60,
      "hit": false,
      "t": 71548.15687500004,
      "d": 121.26806250000664,
      "v": 101
    },
    {
      "midi": 71,
      "hit": false,
      "t": 71641.43999999989,
      "d": 1521.680976562493,
      "v": 117
    },
    {
      "midi": 74,
      "hit": false,
      "t": 71641.43999999989,
      "d": 1562.4923437499965,
      "v": 117
    },
    {
      "midi": 79,
      "hit": false,
      "t": 71641.43999999989,
      "d": 1562.4923437499965,
      "v": 117
    },
    {
      "midi": 47,
      "hit": false,
      "t": 71641.43999999992,
      "d": 1630.122609375001,
      "v": 107
    },
    {
      "midi": 59,
      "hit": false,
      "t": 71641.44000000002,
      "d": 1525.1790937500045,
      "v": 88
    },
    {
      "midi": 59,
      "hit": false,
      "t": 71641.44000000005,
      "d": 1562.4923437499965,
      "v": 117
    },
    {
      "midi": 67,
      "hit": false,
      "t": 71641.44000000009,
      "d": 111.939750000005,
      "v": 123
    },
    {
      "midi": 67,
      "hit": false,
      "t": 71641.44000000009,
      "d": 111.939750000005,
      "v": 123
    },
    {
      "midi": 69,
      "hit": false,
      "t": 72760.8375000001,
      "d": 111.939750000005,
      "v": 109
    },
    {
      "midi": 69,
      "hit": false,
      "t": 72760.8375000001,
      "d": 111.939750000005,
      "v": 109
    },
    {
      "midi": 69,
      "hit": false,
      "t": 72984.7170000001,
      "d": 111.939750000005,
      "v": 91
    },
    {
      "midi": 69,
      "hit": false,
      "t": 72984.7170000001,
      "d": 111.939750000005,
      "v": 91
    },
    {
      "midi": 69,
      "hit": false,
      "t": 73208.59650000012,
      "d": 111.939750000005,
      "v": 95
    },
    {
      "midi": 69,
      "hit": false,
      "t": 73208.59650000012,
      "d": 111.939750000005,
      "v": 95
    },
    {
      "midi": 77,
      "hit": false,
      "t": 73432.47599999988,
      "d": 181.90209375000268,
      "v": 123
    },
    {
      "midi": 74,
      "hit": false,
      "t": 73432.47599999988,
      "d": 202.89079687499907,
      "v": 109
    },
    {
      "midi": 81,
      "hit": false,
      "t": 73432.47599999988,
      "d": 202.89079687499907,
      "v": 125
    },
    {
      "midi": 38,
      "hit": false,
      "t": 73432.47599999992,
      "d": 1795.7001562500081,
      "v": 123
    },
    {
      "midi": 38,
      "hit": false,
      "t": 73432.47600000002,
      "d": 542.2081640624965,
      "v": 91
    },
    {
      "midi": 69,
      "hit": false,
      "t": 73432.47600000013,
      "d": 223.87949999999546,
      "v": 107
    },
    {
      "midi": 69,
      "hit": false,
      "t": 73432.47600000013,
      "d": 223.87949999999546,
      "v": 107
    },
    {
      "midi": 77,
      "hit": false,
      "t": 73656.35549999987,
      "d": 60.63403124999604,
      "v": 115
    },
    {
      "midi": 74,
      "hit": false,
      "t": 73656.35549999987,
      "d": 80.45669531250314,
      "v": 95
    },
    {
      "midi": 81,
      "hit": false,
      "t": 73656.35549999987,
      "d": 80.45669531250314,
      "v": 117
    },
    {
      "midi": 53,
      "hit": false,
      "t": 73656.35550000002,
      "d": 228.54365624999627,
      "v": 65
    },
    {
      "midi": 57,
      "hit": false,
      "t": 73656.35550000005,
      "d": 60.63403124999604,
      "v": 112
    },
    {
      "midi": 57,
      "hit": false,
      "t": 73880.23500000002,
      "d": 417.44198437500745,
      "v": 83
    },
    {
      "midi": 65,
      "hit": false,
      "t": 73880.23500000004,
      "d": 201.72475781249523,
      "v": 107
    },
    {
      "midi": 81,
      "hit": false,
      "t": 74104.11449999988,
      "d": 60.63403124999604,
      "v": 127
    },
    {
      "midi": 74,
      "hit": false,
      "t": 74104.11449999988,
      "d": 81.62273437499243,
      "v": 97
    },
    {
      "midi": 77,
      "hit": false,
      "t": 74104.11449999988,
      "d": 81.62273437499243,
      "v": 123
    },
    {
      "midi": 38,
      "hit": false,
      "t": 74104.11450000003,
      "d": 522.3854999999894,
      "v": 82
    },
    {
      "midi": 57,
      "hit": false,
      "t": 74104.11450000004,
      "d": 80.45669531250314,
      "v": 107
    },
    {
      "midi": 69,
      "hit": false,
      "t": 74104.11450000013,
      "d": 111.939750000005,
      "v": 89
    },
    {
      "midi": 69,
      "hit": false,
      "t": 74104.11450000013,
      "d": 111.939750000005,
      "v": 89
    },
    {
      "midi": 53,
      "hit": false,
      "t": 74327.99400000002,
      "d": 292.6758046874893,
      "v": 58
    },
    {
      "midi": 64,
      "hit": false,
      "t": 74327.99400000005,
      "d": 222.71346093750617,
      "v": 120
    },
    {
      "midi": 69,
      "hit": false,
      "t": 74327.99400000014,
      "d": 111.939750000005,
      "v": 95
    },
    {
      "midi": 69,
      "hit": false,
      "t": 74327.99400000014,
      "d": 111.939750000005,
      "v": 95
    },
    {
      "midi": 74,
      "hit": false,
      "t": 74551.87349999987,
      "d": 60.63403124999604,
      "v": 97
    },
    {
      "midi": 77,
      "hit": false,
      "t": 74551.87349999987,
      "d": 60.63403124999604,
      "v": 123
    },
    {
      "midi": 81,
      "hit": false,
      "t": 74551.87349999987,
      "d": 80.45669531250314,
      "v": 120
    },
    {
      "midi": 57,
      "hit": false,
      "t": 74551.87350000002,
      "d": 459.4193906249857,
      "v": 72
    },
    {
      "midi": 60,
      "hit": false,
      "t": 74551.87350000006,
      "d": 80.45669531250314,
      "v": 97
    },
    {
      "midi": 69,
      "hit": false,
      "t": 74551.87350000015,
      "d": 223.87949999999546,
      "v": 97
    },
    {
      "midi": 69,
      "hit": false,
      "t": 74551.87350000015,
      "d": 223.87949999999546,
      "v": 97
    },
    {
      "midi": 38,
      "hit": false,
      "t": 74775.75300000001,
      "d": 291.50976562498545,
      "v": 85
    },
    {
      "midi": 57,
      "hit": false,
      "t": 74775.75300000007,
      "d": 80.45669531250314,
      "v": 103
    },
    {
      "midi": 70,
      "hit": false,
      "t": 74775.75300000014,
      "d": 223.87949999999546,
      "v": 92
    },
    {
      "midi": 70,
      "hit": false,
      "t": 74775.75300000014,
      "d": 223.87949999999546,
      "v": 92
    },
    {
      "midi": 74,
      "hit": false,
      "t": 74999.63249999988,
      "d": 60.63403124999604,
      "v": 95
    },
    {
      "midi": 77,
      "hit": false,
      "t": 74999.63249999988,
      "d": 60.63403124999604,
      "v": 125
    },
    {
      "midi": 81,
      "hit": false,
      "t": 74999.63249999988,
      "d": 60.63403124999604,
      "v": 117
    },
    {
      "midi": 53,
      "hit": false,
      "t": 74999.6325,
      "d": 166.7435859374964,
      "v": 85
    },
    {
      "midi": 53,
      "hit": false,
      "t": 74999.63250000008,
      "d": 60.63403124999604,
      "v": 115
    },
    {
      "midi": 72,
      "hit": false,
      "t": 74999.63250000014,
      "d": 111.939750000005,
      "v": 103
    },
    {
      "midi": 72,
      "hit": false,
      "t": 74999.63250000014,
      "d": 111.939750000005,
      "v": 103
    },
    {
      "midi": 77,
      "hit": false,
      "t": 75223.51199999987,
      "d": 202.89079687499907,
      "v": 120
    },
    {
      "midi": 82,
      "hit": false,
      "t": 75223.51199999987,
      "d": 202.89079687499907,
      "v": 127
    },
    {
      "midi": 74,
      "hit": false,
      "t": 75223.51199999987,
      "d": 223.87949999999546,
      "v": 86
    },
    {
      "midi": 34,
      "hit": false,
      "t": 75223.51199999993,
      "d": 1775.877492187501,
      "v": 124
    },
    {
      "midi": 46,
      "hit": false,
      "t": 75223.512,
      "d": 563.1968671874929,
      "v": 83
    },
    {
      "midi": 74,
      "hit": false,
      "t": 75223.51200000015,
      "d": 447.75900000000547,
      "v": 95
    },
    {
      "midi": 74,
      "hit": false,
      "t": 75223.51200000015,
      "d": 447.75900000000547,
      "v": 95
    },
    {
      "midi": 77,
      "hit": false,
      "t": 75447.39149999987,
      "d": 80.45669531250314,
      "v": 117
    },
    {
      "midi": 74,
      "hit": false,
      "t": 75447.39149999987,
      "d": 101.44539843749953,
      "v": 72
    },
    {
      "midi": 82,
      "hit": false,
      "t": 75447.39149999987,
      "d": 101.44539843749953,
      "v": 124
    },
    {
      "midi": 53,
      "hit": false,
      "t": 75447.3915,
      "d": 229.70969531250012,
      "v": 79
    },
    {
      "midi": 57,
      "hit": false,
      "t": 75447.39150000007,
      "d": 101.44539843749953,
      "v": 105
    },
    {
      "midi": 58,
      "hit": false,
      "t": 75671.271,
      "d": 187.73228906250733,
      "v": 75
    },
    {
      "midi": 65,
      "hit": false,
      "t": 75671.27100000007,
      "d": 202.89079687499907,
      "v": 112
    },
    {
      "midi": 72,
      "hit": false,
      "t": 75671.27100000015,
      "d": 223.87949999999546,
      "v": 107
    },
    {
      "midi": 72,
      "hit": false,
      "t": 75671.27100000015,
      "d": 223.87949999999546,
      "v": 107
    },
    {
      "midi": 74,
      "hit": false,
      "t": 75895.15049999987,
      "d": 60.63403124999604,
      "v": 97
    },
    {
      "midi": 77,
      "hit": false,
      "t": 75895.15049999987,
      "d": 60.63403124999604,
      "v": 125
    },
    {
      "midi": 82,
      "hit": false,
      "t": 75895.15049999987,
      "d": 60.63403124999604,
      "v": 127
    },
    {
      "midi": 46,
      "hit": false,
      "t": 75895.1505,
      "d": 459.4193906249857,
      "v": 64
    },
    {
      "midi": 57,
      "hit": false,
      "t": 75895.15050000006,
      "d": 100.27935937499569,
      "v": 99
    },
    {
      "midi": 53,
      "hit": false,
      "t": 76119.03,
      "d": 228.54365624999627,
      "v": 82
    },
    {
      "midi": 64,
      "hit": false,
      "t": 76119.03000000006,
      "d": 201.72475781249523,
      "v": 123
    },
    {
      "midi": 74,
      "hit": false,
      "t": 76342.90949999986,
      "d": 60.63403124999604,
      "v": 97
    },
    {
      "midi": 77,
      "hit": false,
      "t": 76342.90949999986,
      "d": 60.63403124999604,
      "v": 120
    },
    {
      "midi": 82,
      "hit": false,
      "t": 76342.90949999986,
      "d": 80.45669531250314,
      "v": 127
    },
    {
      "midi": 58,
      "hit": false,
      "t": 76342.9095,
      "d": 208.72099218748917,
      "v": 73
    },
    {
      "midi": 60,
      "hit": false,
      "t": 76342.90950000005,
      "d": 81.62273437500698,
      "v": 83
    },
    {
      "midi": 46,
      "hit": false,
      "t": 76566.78899999999,
      "d": 333.4871718749928,
      "v": 87
    },
    {
      "midi": 57,
      "hit": false,
      "t": 76566.78900000006,
      "d": 60.63403124999604,
      "v": 107
    },
    {
      "midi": 74,
      "hit": false,
      "t": 76790.66849999987,
      "d": 60.63403124999604,
      "v": 92
    },
    {
      "midi": 77,
      "hit": false,
      "t": 76790.66849999987,
      "d": 60.63403124999604,
      "v": 117
    },
    {
      "midi": 82,
      "hit": false,
      "t": 76790.66849999987,
      "d": 81.62273437499243,
      "v": 121
    },
    {
      "midi": 58,
      "hit": false,
      "t": 76790.66849999999,
      "d": 124.76617968750361,
      "v": 83
    },
    {
      "midi": 53,
      "hit": false,
      "t": 76790.66850000006,
      "d": 60.63403124999604,
      "v": 109
    },
    {
      "midi": 72,
      "hit": false,
      "t": 76790.66850000015,
      "d": 111.939750000005,
      "v": 112
    },
    {
      "midi": 72,
      "hit": false,
      "t": 76790.66850000015,
      "d": 111.939750000005,
      "v": 112
    },
    {
      "midi": 74,
      "hit": false,
      "t": 77014.54799999986,
      "d": 141.09072656249919,
      "v": 103
    },
    {
      "midi": 77,
      "hit": false,
      "t": 77014.54799999986,
      "d": 162.07942968749558,
      "v": 123
    },
    {
      "midi": 81,
      "hit": false,
      "t": 77014.54799999986,
      "d": 181.90209375000268,
      "v": 117
    },
    {
      "midi": 38,
      "hit": false,
      "t": 77014.54799999994,
      "d": 1754.8887890625047,
      "v": 120
    },
    {
      "midi": 38,
      "hit": false,
      "t": 77014.548,
      "d": 438.4306874999893,
      "v": 88
    },
    {
      "midi": 74,
      "hit": false,
      "t": 77014.54800000016,
      "d": 223.87949999999546,
      "v": 85
    },
    {
      "midi": 74,
      "hit": false,
      "t": 77014.54800000016,
      "d": 223.87949999999546,
      "v": 85
    },
    {
      "midi": 74,
      "hit": false,
      "t": 77238.42749999986,
      "d": 80.45669531250314,
      "v": 85
    },
    {
      "midi": 77,
      "hit": false,
      "t": 77238.42749999986,
      "d": 80.45669531250314,
      "v": 107
    },
    {
      "midi": 81,
      "hit": false,
      "t": 77238.42749999986,
      "d": 101.44539843749953,
      "v": 105
    },
    {
      "midi": 53,
      "hit": false,
      "t": 77238.42749999999,
      "d": 228.54365624999627,
      "v": 67
    },
    {
      "midi": 57,
      "hit": false,
      "t": 77238.42750000005,
      "d": 101.44539843749953,
      "v": 117
    },
    {
      "midi": 69,
      "hit": false,
      "t": 77238.42750000015,
      "d": 111.939750000005,
      "v": 101
    },
    {
      "midi": 69,
      "hit": false,
      "t": 77238.42750000015,
      "d": 111.939750000005,
      "v": 101
    },
    {
      "midi": 57,
      "hit": false,
      "t": 77462.30699999999,
      "d": 229.70969531250012,
      "v": 72
    },
    {
      "midi": 65,
      "hit": false,
      "t": 77462.30700000004,
      "d": 201.72475781249523,
      "v": 103
    },
    {
      "midi": 69,
      "hit": false,
      "t": 77462.30700000016,
      "d": 111.939750000005,
      "v": 92
    },
    {
      "midi": 69,
      "hit": false,
      "t": 77462.30700000016,
      "d": 111.939750000005,
      "v": 92
    },
    {
      "midi": 74,
      "hit": false,
      "t": 77686.18649999987,
      "d": 60.63403124999604,
      "v": 101
    },
    {
      "midi": 77,
      "hit": false,
      "t": 77686.18649999987,
      "d": 60.63403124999604,
      "v": 127
    },
    {
      "midi": 81,
      "hit": false,
      "t": 77686.18649999987,
      "d": 60.63403124999604,
      "v": 117
    },
    {
      "midi": 38,
      "hit": false,
      "t": 77686.18649999998,
      "d": 396.45328125001106,
      "v": 77
    },
    {
      "midi": 57,
      "hit": false,
      "t": 77686.18650000004,
      "d": 102.61143750000338,
      "v": 101
    },
    {
      "midi": 69,
      "hit": false,
      "t": 77686.18650000017,
      "d": 111.939750000005,
      "v": 99
    },
    {
      "midi": 69,
      "hit": false,
      "t": 77686.18650000017,
      "d": 111.939750000005,
      "v": 99
    },
    {
      "midi": 53,
      "hit": false,
      "t": 77910.06599999999,
      "d": 292.6758046874893,
      "v": 72
    },
    {
      "midi": 64,
      "hit": false,
      "t": 77910.06600000005,
      "d": 181.90209375000268,
      "v": 125
    },
    {
      "midi": 69,
      "hit": false,
      "t": 77910.06600000018,
      "d": 111.939750000005,
      "v": 97
    },
    {
      "midi": 69,
      "hit": false,
      "t": 77910.06600000018,
      "d": 111.939750000005,
      "v": 97
    },
    {
      "midi": 74,
      "hit": false,
      "t": 78133.94549999986,
      "d": 60.63403124999604,
      "v": 97
    },
    {
      "midi": 77,
      "hit": false,
      "t": 78133.94549999986,
      "d": 60.63403124999604,
      "v": 123
    },
    {
      "midi": 81,
      "hit": false,
      "t": 78133.94549999986,
      "d": 80.45669531250314,
      "v": 120
    },
    {
      "midi": 57,
      "hit": false,
      "t": 78133.94549999999,
      "d": 459.4193906249857,
      "v": 74
    },
    {
      "midi": 60,
      "hit": false,
      "t": 78133.94550000005,
      "d": 80.45669531250314,
      "v": 95
    },
    {
      "midi": 69,
      "hit": false,
      "t": 78133.94550000019,
      "d": 223.87949999999546,
      "v": 99
    },
    {
      "midi": 69,
      "hit": false,
      "t": 78133.94550000019,
      "d": 223.87949999999546,
      "v": 99
    },
    {
      "midi": 38,
      "hit": false,
      "t": 78357.82499999998,
      "d": 270.52106249998906,
      "v": 56
    },
    {
      "midi": 57,
      "hit": false,
      "t": 78357.82500000006,
      "d": 60.63403124999604,
      "v": 109
    },
    {
      "midi": 70,
      "hit": false,
      "t": 78357.82500000019,
      "d": 223.87949999999546,
      "v": 92
    },
    {
      "midi": 70,
      "hit": false,
      "t": 78357.82500000019,
      "d": 223.87949999999546,
      "v": 92
    },
    {
      "midi": 74,
      "hit": false,
      "t": 78581.70449999986,
      "d": 60.63403124999604,
      "v": 97
    },
    {
      "midi": 77,
      "hit": false,
      "t": 78581.70449999986,
      "d": 60.63403124999604,
      "v": 117
    },
    {
      "midi": 81,
      "hit": false,
      "t": 78581.70449999986,
      "d": 60.63403124999604,
      "v": 117
    },
    {
      "midi": 53,
      "hit": false,
      "t": 78581.70449999998,
      "d": 228.54365624999627,
      "v": 77
    },
    {
      "midi": 53,
      "hit": false,
      "t": 78581.70450000005,
      "d": 60.63403124999604,
      "v": 112
    },
    {
      "midi": 72,
      "hit": false,
      "t": 78581.70450000018,
      "d": 223.87949999999546,
      "v": 101
    },
    {
      "midi": 72,
      "hit": false,
      "t": 78581.70450000018,
      "d": 223.87949999999546,
      "v": 101
    },
    {
      "midi": 82,
      "hit": false,
      "t": 78805.58399999986,
      "d": 162.07942968749558,
      "v": 127
    },
    {
      "midi": 74,
      "hit": false,
      "t": 78805.58399999986,
      "d": 183.06813281249197,
      "v": 95
    },
    {
      "midi": 77,
      "hit": false,
      "t": 78805.58399999986,
      "d": 183.06813281249197,
      "v": 120
    },
    {
      "midi": 34,
      "hit": false,
      "t": 78805.58399999994,
      "d": 1754.8887890625047,
      "v": 124
    },
    {
      "midi": 46,
      "hit": false,
      "t": 78805.58399999997,
      "d": 480.4080937500112,
      "v": 72
    },
    {
      "midi": 70,
      "hit": false,
      "t": 78805.58400000018,
      "d": 223.87949999999546,
      "v": 114
    },
    {
      "midi": 70,
      "hit": false,
      "t": 78805.58400000018,
      "d": 223.87949999999546,
      "v": 114
    },
    {
      "midi": 74,
      "hit": false,
      "t": 79029.46349999985,
      "d": 60.63403124999604,
      "v": 85
    },
    {
      "midi": 77,
      "hit": false,
      "t": 79029.46349999985,
      "d": 80.45669531250314,
      "v": 109
    },
    {
      "midi": 82,
      "hit": false,
      "t": 79029.46349999985,
      "d": 80.45669531250314,
      "v": 127
    },
    {
      "midi": 53,
      "hit": false,
      "t": 79029.46349999997,
      "d": 208.72099218750373,
      "v": 79
    },
    {
      "midi": 57,
      "hit": false,
      "t": 79029.46350000004,
      "d": 80.45669531250314,
      "v": 117
    },
    {
      "midi": 58,
      "hit": false,
      "t": 79253.34299999998,
      "d": 250.69839843751106,
      "v": 70
    },
    {
      "midi": 65,
      "hit": false,
      "t": 79253.34300000005,
      "d": 202.89079687499907,
      "v": 101
    },
    {
      "midi": 74,
      "hit": false,
      "t": 79477.22249999986,
      "d": 60.63403124999604,
      "v": 101
    },
    {
      "midi": 77,
      "hit": false,
      "t": 79477.22249999986,
      "d": 60.63403124999604,
      "v": 123
    },
    {
      "midi": 82,
      "hit": false,
      "t": 79477.22249999986,
      "d": 60.63403124999604,
      "v": 127
    },
    {
      "midi": 46,
      "hit": false,
      "t": 79477.22249999999,
      "d": 438.4306874999893,
      "v": 83
    },
    {
      "midi": 57,
      "hit": false,
      "t": 79477.22250000005,
      "d": 100.27935937499569,
      "v": 107
    },
    {
      "midi": 53,
      "hit": false,
      "t": 79701.10199999998,
      "d": 249.53235937499267,
      "v": 77
    },
    {
      "midi": 64,
      "hit": false,
      "t": 79701.10200000004,
      "d": 201.72475781249523,
      "v": 107
    },
    {
      "midi": 74,
      "hit": false,
      "t": 79924.98149999985,
      "d": 40.81136718750349,
      "v": 91
    },
    {
      "midi": 77,
      "hit": false,
      "t": 79924.98149999985,
      "d": 40.81136718750349,
      "v": 120
    },
    {
      "midi": 82,
      "hit": false,
      "t": 79924.98149999985,
      "d": 80.45669531250314,
      "v": 127
    },
    {
      "midi": 58,
      "hit": false,
      "t": 79924.98149999998,
      "d": 396.4532812499965,
      "v": 68
    },
    {
      "midi": 60,
      "hit": false,
      "t": 79924.98150000004,
      "d": 102.61143750000338,
      "v": 92
    },
    {
      "midi": 46,
      "hit": false,
      "t": 80148.86099999998,
      "d": 271.6871015624929,
      "v": 69
    },
    {
      "midi": 57,
      "hit": false,
      "t": 80148.86100000005,
      "d": 80.45669531250314,
      "v": 99
    },
    {
      "midi": 77,
      "hit": false,
      "t": 80372.74049999985,
      "d": 40.81136718750349,
      "v": 117
    },
    {
      "midi": 74,
      "hit": false,
      "t": 80372.74049999985,
      "d": 60.634031250010594,
      "v": 99
    },
    {
      "midi": 82,
      "hit": false,
      "t": 80372.74049999985,
      "d": 60.634031250010594,
      "v": 121
    },
    {
      "midi": 53,
      "hit": false,
      "t": 80372.74049999997,
      "d": 228.54365624999627,
      "v": 79
    },
    {
      "midi": 53,
      "hit": false,
      "t": 80372.74050000006,
      "d": 80.45669531250314,
      "v": 109
    },
    {
      "midi": 74,
      "hit": false,
      "t": 80372.74050000017,
      "d": 111.939750000005,
      "v": 105
    },
    {
      "midi": 74,
      "hit": false,
      "t": 80372.74050000017,
      "d": 111.939750000005,
      "v": 105
    },
    {
      "midi": 74,
      "hit": false,
      "t": 80596.61999999986,
      "d": 162.07942968749558,
      "v": 97
    },
    {
      "midi": 77,
      "hit": false,
      "t": 80596.61999999986,
      "d": 162.07942968749558,
      "v": 120
    },
    {
      "midi": 81,
      "hit": false,
      "t": 80596.61999999986,
      "d": 162.07942968749558,
      "v": 120
    },
    {
      "midi": 38,
      "hit": false,
      "t": 80596.61999999995,
      "d": 1778.2095703124942,
      "v": 120
    },
    {
      "midi": 38,
      "hit": false,
      "t": 80596.61999999997,
      "d": 544.5402421874896,
      "v": 72
    },
    {
      "midi": 74,
      "hit": false,
      "t": 80596.62000000018,
      "d": 111.939750000005,
      "v": 95
    },
    {
      "midi": 74,
      "hit": false,
      "t": 80596.62000000018,
      "d": 111.939750000005,
      "v": 95
    },
    {
      "midi": 74,
      "hit": false,
      "t": 80820.49949999986,
      "d": 80.45669531250314,
      "v": 86
    },
    {
      "midi": 77,
      "hit": false,
      "t": 80820.49949999986,
      "d": 80.45669531250314,
      "v": 120
    },
    {
      "midi": 81,
      "hit": false,
      "t": 80820.49949999986,
      "d": 80.45669531250314,
      "v": 120
    },
    {
      "midi": 53,
      "hit": false,
      "t": 80820.49949999996,
      "d": 249.53235937499267,
      "v": 80
    },
    {
      "midi": 57,
      "hit": false,
      "t": 80820.49950000006,
      "d": 100.27935937499569,
      "v": 112
    },
    {
      "midi": 74,
      "hit": false,
      "t": 80820.4995000002,
      "d": 111.939750000005,
      "v": 99
    },
    {
      "midi": 74,
      "hit": false,
      "t": 80820.4995000002,
      "d": 111.939750000005,
      "v": 99
    },
    {
      "midi": 57,
      "hit": false,
      "t": 81044.37899999996,
      "d": 271.6871015624929,
      "v": 79
    },
    {
      "midi": 65,
      "hit": false,
      "t": 81044.37900000006,
      "d": 223.87949999999546,
      "v": 107
    },
    {
      "midi": 74,
      "hit": false,
      "t": 81044.3790000002,
      "d": 111.939750000005,
      "v": 92
    },
    {
      "midi": 74,
      "hit": false,
      "t": 81044.3790000002,
      "d": 111.939750000005,
      "v": 92
    },
    {
      "midi": 77,
      "hit": false,
      "t": 81268.25849999987,
      "d": 60.63403124999604,
      "v": 123
    },
    {
      "midi": 74,
      "hit": false,
      "t": 81268.25849999987,
      "d": 82.78877343749627,
      "v": 103
    },
    {
      "midi": 81,
      "hit": false,
      "t": 81268.25849999987,
      "d": 82.78877343749627,
      "v": 123
    },
    {
      "midi": 38,
      "hit": false,
      "t": 81268.25849999995,
      "d": 438.4306874999893,
      "v": 83
    },
    {
      "midi": 57,
      "hit": false,
      "t": 81268.25850000005,
      "d": 80.45669531250314,
      "v": 101
    },
    {
      "midi": 74,
      "hit": false,
      "t": 81268.25850000021,
      "d": 111.939750000005,
      "v": 94
    },
    {
      "midi": 74,
      "hit": false,
      "t": 81268.25850000021,
      "d": 111.939750000005,
      "v": 94
    },
    {
      "midi": 53,
      "hit": false,
      "t": 81492.13799999995,
      "d": 250.6983984374965,
      "v": 75
    },
    {
      "midi": 64,
      "hit": false,
      "t": 81492.13800000006,
      "d": 181.90209375000268,
      "v": 123
    },
    {
      "midi": 74,
      "hit": false,
      "t": 81492.13800000022,
      "d": 111.939750000005,
      "v": 94
    },
    {
      "midi": 74,
      "hit": false,
      "t": 81492.13800000022,
      "d": 111.939750000005,
      "v": 94
    },
    {
      "midi": 74,
      "hit": false,
      "t": 81716.01749999986,
      "d": 60.63403124999604,
      "v": 99
    },
    {
      "midi": 77,
      "hit": false,
      "t": 81716.01749999986,
      "d": 60.63403124999604,
      "v": 120
    },
    {
      "midi": 81,
      "hit": false,
      "t": 81716.01749999986,
      "d": 80.45669531250314,
      "v": 125
    },
    {
      "midi": 57,
      "hit": false,
      "t": 81716.01749999994,
      "d": 208.72099218750373,
      "v": 75
    },
    {
      "midi": 60,
      "hit": false,
      "t": 81716.01750000006,
      "d": 80.45669531250314,
      "v": 97
    },
    {
      "midi": 74,
      "hit": false,
      "t": 81716.01750000023,
      "d": 223.87949999999546,
      "v": 86
    },
    {
      "midi": 74,
      "hit": false,
      "t": 81716.01750000023,
      "d": 223.87949999999546,
      "v": 86
    },
    {
      "midi": 38,
      "hit": false,
      "t": 81939.89699999995,
      "d": 333.4871718749928,
      "v": 67
    },
    {
      "midi": 57,
      "hit": false,
      "t": 81939.89700000007,
      "d": 80.45669531250314,
      "v": 88
    },
    {
      "midi": 72,
      "hit": false,
      "t": 81939.89700000023,
      "d": 223.87949999999546,
      "v": 97
    },
    {
      "midi": 72,
      "hit": false,
      "t": 81939.89700000023,
      "d": 223.87949999999546,
      "v": 97
    },
    {
      "midi": 77,
      "hit": false,
      "t": 82163.77649999986,
      "d": 60.63403124999604,
      "v": 107
    },
    {
      "midi": 74,
      "hit": false,
      "t": 82163.77649999986,
      "d": 80.45669531250314,
      "v": 80
    },
    {
      "midi": 81,
      "hit": false,
      "t": 82163.77649999986,
      "d": 80.45669531250314,
      "v": 109
    },
    {
      "midi": 53,
      "hit": false,
      "t": 82163.77649999995,
      "d": 228.54365624999627,
      "v": 83
    },
    {
      "midi": 53,
      "hit": false,
      "t": 82163.77650000008,
      "d": 60.63403124999604,
      "v": 115
    },
    {
      "midi": 74,
      "hit": false,
      "t": 82163.77650000023,
      "d": 223.87949999999546,
      "v": 82
    },
    {
      "midi": 74,
      "hit": false,
      "t": 82163.77650000023,
      "d": 223.87949999999546,
      "v": 82
    },
    {
      "midi": 74,
      "hit": false,
      "t": 82387.65599999987,
      "d": 181.90209375000268,
      "v": 94
    },
    {
      "midi": 77,
      "hit": false,
      "t": 82387.65599999987,
      "d": 181.90209375000268,
      "v": 120
    },
    {
      "midi": 82,
      "hit": false,
      "t": 82387.65599999987,
      "d": 181.90209375000268,
      "v": 127
    },
    {
      "midi": 34,
      "hit": false,
      "t": 82387.65599999994,
      "d": 1753.7227500000008,
      "v": 127
    },
    {
      "midi": 46,
      "hit": false,
      "t": 82387.65599999994,
      "d": 459.41939062500023,
      "v": 75
    },
    {
      "midi": 72,
      "hit": false,
      "t": 82387.65600000022,
      "d": 223.87949999999546,
      "v": 103
    },
    {
      "midi": 72,
      "hit": false,
      "t": 82387.65600000022,
      "d": 223.87949999999546,
      "v": 103
    },
    {
      "midi": 77,
      "hit": false,
      "t": 82611.53549999987,
      "d": 60.63403124999604,
      "v": 117
    },
    {
      "midi": 74,
      "hit": false,
      "t": 82611.53549999987,
      "d": 80.45669531250314,
      "v": 89
    },
    {
      "midi": 82,
      "hit": false,
      "t": 82611.53549999987,
      "d": 80.45669531250314,
      "v": 121
    },
    {
      "midi": 53,
      "hit": false,
      "t": 82611.53549999994,
      "d": 208.72099218750373,
      "v": 74
    },
    {
      "midi": 57,
      "hit": false,
      "t": 82611.53550000007,
      "d": 80.45669531250314,
      "v": 109
    },
    {
      "midi": 70,
      "hit": false,
      "t": 82611.53550000022,
      "d": 223.87949999999546,
      "v": 95
    },
    {
      "midi": 70,
      "hit": false,
      "t": 82611.53550000022,
      "d": 223.87949999999546,
      "v": 95
    },
    {
      "midi": 58,
      "hit": false,
      "t": 82835.41499999995,
      "d": 396.4532812499965,
      "v": 70
    },
    {
      "midi": 65,
      "hit": false,
      "t": 82835.41500000008,
      "d": 181.90209375000268,
      "v": 103
    },
    {
      "midi": 74,
      "hit": false,
      "t": 83059.29449999987,
      "d": 60.63403124999604,
      "v": 101
    },
    {
      "midi": 77,
      "hit": false,
      "t": 83059.29449999987,
      "d": 60.63403124999604,
      "v": 127
    },
    {
      "midi": 82,
      "hit": false,
      "t": 83059.29449999987,
      "d": 80.45669531250314,
      "v": 127
    },
    {
      "midi": 46,
      "hit": false,
      "t": 83059.29449999995,
      "d": 354.4758749999892,
      "v": 70
    },
    {
      "midi": 57,
      "hit": false,
      "t": 83059.29450000008,
      "d": 101.44539843749953,
      "v": 99
    },
    {
      "midi": 53,
      "hit": false,
      "t": 83283.17399999994,
      "d": 270.52106249998906,
      "v": 60
    },
    {
      "midi": 64,
      "hit": false,
      "t": 83283.17400000007,
      "d": 181.90209375000268,
      "v": 123
    },
    {
      "midi": 74,
      "hit": false,
      "t": 83507.05349999988,
      "d": 60.63403124999604,
      "v": 94
    },
    {
      "midi": 77,
      "hit": false,
      "t": 83507.05349999988,
      "d": 60.63403124999604,
      "v": 120
    },
    {
      "midi": 82,
      "hit": false,
      "t": 83507.05349999988,
      "d": 80.45669531250314,
      "v": 127
    },
    {
      "midi": 58,
      "hit": false,
      "t": 83507.05349999994,
      "d": 480.4080937499966,
      "v": 72
    },
    {
      "midi": 60,
      "hit": false,
      "t": 83507.05350000007,
      "d": 100.27935937499569,
      "v": 95
    },
    {
      "midi": 46,
      "hit": false,
      "t": 83730.93299999993,
      "d": 229.70969531250012,
      "v": 83
    },
    {
      "midi": 57,
      "hit": false,
      "t": 83730.93300000006,
      "d": 162.07942968749558,
      "v": 83
    },
    {
      "midi": 74,
      "hit": false,
      "t": 83954.81249999988,
      "d": 40.81136718750349,
      "v": 89
    },
    {
      "midi": 77,
      "hit": false,
      "t": 83954.81249999988,
      "d": 40.81136718750349,
      "v": 115
    },
    {
      "midi": 82,
      "hit": false,
      "t": 83954.81249999988,
      "d": 80.45669531250314,
      "v": 118
    },
    {
      "midi": 53,
      "hit": false,
      "t": 83954.81249999993,
      "d": 124.76617968750361,
      "v": 80
    },
    {
      "midi": 53,
      "hit": false,
      "t": 83954.81250000006,
      "d": 80.45669531250314,
      "v": 105
    },
    {
      "midi": 72,
      "hit": false,
      "t": 83954.81250000022,
      "d": 111.939750000005,
      "v": 123
    },
    {
      "midi": 72,
      "hit": false,
      "t": 83954.81250000022,
      "d": 111.939750000005,
      "v": 123
    },
    {
      "midi": 79,
      "hit": false,
      "t": 84178.6919999999,
      "d": 1683.7604062500031,
      "v": 127
    },
    {
      "midi": 84,
      "hit": false,
      "t": 84178.6919999999,
      "d": 1683.7604062500031,
      "v": 127
    },
    {
      "midi": 86,
      "hit": false,
      "t": 84178.6919999999,
      "d": 1683.7604062500031,
      "v": 120
    },
    {
      "midi": 60,
      "hit": false,
      "t": 84178.69199999994,
      "d": 1441.2242812500044,
      "v": 91
    },
    {
      "midi": 55,
      "hit": false,
      "t": 84178.69199999994,
      "d": 3301.0565859375056,
      "v": 75
    },
    {
      "midi": 43,
      "hit": false,
      "t": 84178.69199999994,
      "d": 3320.8792500000127,
      "v": 86
    },
    {
      "midi": 43,
      "hit": false,
      "t": 84178.69199999995,
      "d": 1775.877492187501,
      "v": 123
    },
    {
      "midi": 60,
      "hit": false,
      "t": 84178.69200000007,
      "d": 1541.5036406250001,
      "v": 120
    },
    {
      "midi": 72,
      "hit": false,
      "t": 84178.69200000023,
      "d": 111.939750000005,
      "v": 105
    },
    {
      "midi": 72,
      "hit": false,
      "t": 84178.69200000023,
      "d": 111.939750000005,
      "v": 105
    },
    {
      "midi": 72,
      "hit": false,
      "t": 84402.57150000024,
      "d": 111.939750000005,
      "v": 107
    },
    {
      "midi": 72,
      "hit": false,
      "t": 84402.57150000024,
      "d": 111.939750000005,
      "v": 107
    },
    {
      "midi": 72,
      "hit": false,
      "t": 84626.45100000025,
      "d": 111.939750000005,
      "v": 109
    },
    {
      "midi": 72,
      "hit": false,
      "t": 84626.45100000025,
      "d": 111.939750000005,
      "v": 109
    },
    {
      "midi": 72,
      "hit": false,
      "t": 84850.33050000026,
      "d": 111.939750000005,
      "v": 112
    },
    {
      "midi": 72,
      "hit": false,
      "t": 84850.33050000026,
      "d": 111.939750000005,
      "v": 112
    },
    {
      "midi": 72,
      "hit": false,
      "t": 85074.21000000027,
      "d": 111.939750000005,
      "v": 107
    },
    {
      "midi": 72,
      "hit": false,
      "t": 85074.21000000027,
      "d": 111.939750000005,
      "v": 107
    },
    {
      "midi": 72,
      "hit": false,
      "t": 85298.08950000028,
      "d": 111.939750000005,
      "v": 109
    },
    {
      "midi": 72,
      "hit": false,
      "t": 85298.08950000028,
      "d": 111.939750000005,
      "v": 109
    },
    {
      "midi": 72,
      "hit": false,
      "t": 85521.96900000029,
      "d": 223.87949999999546,
      "v": 112
    },
    {
      "midi": 72,
      "hit": false,
      "t": 85521.96900000029,
      "d": 223.87949999999546,
      "v": 112
    },
    {
      "midi": 62,
      "hit": false,
      "t": 85745.84850000007,
      "d": 101.44539843749953,
      "v": 68
    },
    {
      "midi": 74,
      "hit": false,
      "t": 85745.84850000028,
      "d": 111.939750000005,
      "v": 83
    },
    {
      "midi": 74,
      "hit": false,
      "t": 85745.84850000028,
      "d": 111.939750000005,
      "v": 83
    },
    {
      "midi": 60,
      "hit": false,
      "t": 85857.78825000007,
      "d": 121.26806250000664,
      "v": 105
    },
    {
      "midi": 79,
      "hit": false,
      "t": 85969.7279999999,
      "d": 1563.6583828125003,
      "v": 109
    },
    {
      "midi": 83,
      "hit": false,
      "t": 85969.7279999999,
      "d": 1563.6583828125003,
      "v": 125
    },
    {
      "midi": 86,
      "hit": false,
      "t": 85969.7279999999,
      "d": 1563.6583828125003,
      "v": 112
    },
    {
      "midi": 59,
      "hit": false,
      "t": 85969.72799999994,
      "d": 1525.1790937500045,
      "v": 88
    },
    {
      "midi": 47,
      "hit": false,
      "t": 85969.72799999996,
      "d": 1630.122609375001,
      "v": 107
    },
    {
      "midi": 59,
      "hit": false,
      "t": 85969.72800000008,
      "d": 1521.6809765625076,
      "v": 107
    },
    {
      "midi": 74,
      "hit": false,
      "t": 85969.7280000003,
      "d": 223.87949999999546,
      "v": 99
    },
    {
      "midi": 74,
      "hit": false,
      "t": 85969.7280000003,
      "d": 223.87949999999546,
      "v": 99
    },
    {
      "midi": 38,
      "hit": false,
      "t": 87760.76399999997,
      "d": 648.3177187499969,
      "v": 127
    },
    {
      "midi": 50,
      "hit": false,
      "t": 87760.76400000008,
      "d": 1779.375609374998,
      "v": 127
    },
    {
      "midi": 69,
      "hit": false,
      "t": 87760.76400000029,
      "d": 1343.2770000000019,
      "v": 117
    },
    {
      "midi": 69,
      "hit": false,
      "t": 87760.76400000029,
      "d": 1343.2770000000019,
      "v": 117
    },
    {
      "midi": 74,
      "hit": false,
      "t": 87984.6434999999,
      "d": 61.800070312499884,
      "v": 115
    },
    {
      "midi": 77,
      "hit": false,
      "t": 87984.6434999999,
      "d": 61.800070312499884,
      "v": 127
    },
    {
      "midi": 81,
      "hit": false,
      "t": 87984.6434999999,
      "d": 83.95481250000012,
      "v": 127
    },
    {
      "midi": 74,
      "hit": false,
      "t": 88432.40249999991,
      "d": 62.966109375003725,
      "v": 105
    },
    {
      "midi": 77,
      "hit": false,
      "t": 88432.40249999991,
      "d": 62.966109375003725,
      "v": 125
    },
    {
      "midi": 81,
      "hit": false,
      "t": 88432.40249999991,
      "d": 83.95481250000012,
      "v": 123
    },
    {
      "midi": 45,
      "hit": false,
      "t": 88432.40249999997,
      "d": 668.140382812504,
      "v": 117
    },
    {
      "midi": 74,
      "hit": false,
      "t": 88656.2819999999,
      "d": 375.4645781250001,
      "v": 101
    },
    {
      "midi": 77,
      "hit": false,
      "t": 88656.2819999999,
      "d": 375.4645781250001,
      "v": 123
    },
    {
      "midi": 82,
      "hit": false,
      "t": 88656.2819999999,
      "d": 375.4645781250001,
      "v": 127
    },
    {
      "midi": 77,
      "hit": false,
      "t": 89104.04099999991,
      "d": 396.4532812499965,
      "v": 120
    },
    {
      "midi": 81,
      "hit": false,
      "t": 89104.04099999991,
      "d": 396.4532812499965,
      "v": 125
    },
    {
      "midi": 74,
      "hit": false,
      "t": 89104.04099999991,
      "d": 417.4419843749929,
      "v": 92
    },
    {
      "midi": 38,
      "hit": false,
      "t": 89104.04099999997,
      "d": 417.4419843749929,
      "v": 112
    },
    {
      "midi": 72,
      "hit": false,
      "t": 89104.04100000029,
      "d": 223.87949999999546,
      "v": 105
    },
    {
      "midi": 72,
      "hit": false,
      "t": 89104.04100000029,
      "d": 223.87949999999546,
      "v": 105
    },
    {
      "midi": 70,
      "hit": false,
      "t": 89327.92050000028,
      "d": 335.81925000000047,
      "v": 100
    },
    {
      "midi": 70,
      "hit": false,
      "t": 89327.92050000028,
      "d": 335.81925000000047,
      "v": 100
    },
    {
      "midi": 34,
      "hit": false,
      "t": 89551.79999999996,
      "d": 626.1629765624966,
      "v": 127
    },
    {
      "midi": 46,
      "hit": false,
      "t": 89551.80000000008,
      "d": 1756.054828124994,
      "v": 127
    },
    {
      "midi": 74,
      "hit": false,
      "t": 89775.6794999999,
      "d": 61.800070312499884,
      "v": 103
    },
    {
      "midi": 77,
      "hit": false,
      "t": 89775.6794999999,
      "d": 83.95481250000012,
      "v": 125
    },
    {
      "midi": 82,
      "hit": false,
      "t": 89775.6794999999,
      "d": 103.77747656250722,
      "v": 127
    },
    {
      "midi": 74,
      "hit": false,
      "t": 90223.4384999999,
      "d": 83.95481250000012,
      "v": 85
    },
    {
      "midi": 77,
      "hit": false,
      "t": 90223.4384999999,
      "d": 83.95481250000012,
      "v": 112
    },
    {
      "midi": 82,
      "hit": false,
      "t": 90223.4384999999,
      "d": 125.9322187499929,
      "v": 121
    },
    {
      "midi": 34,
      "hit": false,
      "t": 90223.43849999996,
      "d": 648.3177187499969,
      "v": 124
    },
    {
      "midi": 74,
      "hit": false,
      "t": 90447.3179999999,
      "d": 375.4645781250001,
      "v": 95
    },
    {
      "midi": 84,
      "hit": false,
      "t": 90447.3179999999,
      "d": 396.4532812499965,
      "v": 125
    },
    {
      "midi": 77,
      "hit": false,
      "t": 90447.3179999999,
      "d": 417.4419843749929,
      "v": 120
    },
    {
      "midi": 82,
      "hit": false,
      "t": 90671.1974999999,
      "d": 61.800070312499884,
      "v": 23
    },
    {
      "midi": 74,
      "hit": false,
      "t": 90895.07699999989,
      "d": 354.4758750000037,
      "v": 97
    },
    {
      "midi": 82,
      "hit": false,
      "t": 90895.07699999989,
      "d": 354.4758750000037,
      "v": 127
    },
    {
      "midi": 77,
      "hit": false,
      "t": 90895.07699999989,
      "d": 375.4645781250001,
      "v": 123
    },
    {
      "midi": 34,
      "hit": false,
      "t": 90895.07699999996,
      "d": 375.4645781250001,
      "v": 118
    },
    {
      "midi": 72,
      "hit": false,
      "t": 91118.95650000029,
      "d": 111.939750000005,
      "v": 103
    },
    {
      "midi": 72,
      "hit": false,
      "t": 91118.95650000029,
      "d": 111.939750000005,
      "v": 103
    },
    {
      "midi": 41,
      "hit": false,
      "t": 91342.83599999997,
      "d": 668.140382812504,
      "v": 127
    },
    {
      "midi": 48,
      "hit": false,
      "t": 91342.83600000007,
      "d": 1735.0661249999976,
      "v": 120
    },
    {
      "midi": 72,
      "hit": false,
      "t": 91342.8360000003,
      "d": 447.75900000000547,
      "v": 112
    },
    {
      "midi": 72,
      "hit": false,
      "t": 91342.8360000003,
      "d": 447.75900000000547,
      "v": 112
    },
    {
      "midi": 77,
      "hit": false,
      "t": 91566.71549999989,
      "d": 61.800070312499884,
      "v": 120
    },
    {
      "midi": 72,
      "hit": false,
      "t": 91566.71549999989,
      "d": 83.95481250000012,
      "v": 112
    },
    {
      "midi": 81,
      "hit": false,
      "t": 91566.71549999989,
      "d": 125.9322187499929,
      "v": 115
    },
    {
      "midi": 69,
      "hit": false,
      "t": 91790.5950000003,
      "d": 111.939750000005,
      "v": 92
    },
    {
      "midi": 69,
      "hit": false,
      "t": 91790.5950000003,
      "d": 111.939750000005,
      "v": 92
    },
    {
      "midi": 72,
      "hit": false,
      "t": 92014.47449999988,
      "d": 83.95481250000012,
      "v": 99
    },
    {
      "midi": 77,
      "hit": false,
      "t": 92014.47449999988,
      "d": 83.95481250000012,
      "v": 107
    },
    {
      "midi": 81,
      "hit": false,
      "t": 92014.47449999988,
      "d": 124.76617968750361,
      "v": 109
    },
    {
      "midi": 36,
      "hit": false,
      "t": 92014.47449999997,
      "d": 564.3629062499967,
      "v": 112
    },
    {
      "midi": 72,
      "hit": false,
      "t": 92014.47450000032,
      "d": 111.939750000005,
      "v": 107
    },
    {
      "midi": 72,
      "hit": false,
      "t": 92014.47450000032,
      "d": 111.939750000005,
      "v": 107
    },
    {
      "midi": 82,
      "hit": false,
      "t": 92238.35399999989,
      "d": 354.4758750000037,
      "v": 121
    },
    {
      "midi": 72,
      "hit": false,
      "t": 92238.35399999989,
      "d": 396.4532812499965,
      "v": 94
    },
    {
      "midi": 77,
      "hit": false,
      "t": 92238.35399999989,
      "d": 417.4419843749929,
      "v": 112
    },
    {
      "midi": 72,
      "hit": false,
      "t": 92238.35400000033,
      "d": 223.87949999999546,
      "v": 103
    },
    {
      "midi": 72,
      "hit": false,
      "t": 92238.35400000033,
      "d": 223.87949999999546,
      "v": 103
    },
    {
      "midi": 69,
      "hit": false,
      "t": 92462.23350000032,
      "d": 223.87949999999546,
      "v": 92
    },
    {
      "midi": 69,
      "hit": false,
      "t": 92462.23350000032,
      "d": 223.87949999999546,
      "v": 92
    },
    {
      "midi": 72,
      "hit": false,
      "t": 92686.11299999988,
      "d": 354.4758750000037,
      "v": 112
    },
    {
      "midi": 77,
      "hit": false,
      "t": 92686.11299999988,
      "d": 354.4758750000037,
      "v": 117
    },
    {
      "midi": 81,
      "hit": false,
      "t": 92686.11299999988,
      "d": 354.4758750000037,
      "v": 117
    },
    {
      "midi": 36,
      "hit": false,
      "t": 92686.11299999997,
      "d": 376.63061718750396,
      "v": 117
    },
    {
      "midi": 70,
      "hit": false,
      "t": 92686.11300000032,
      "d": 223.87949999999546,
      "v": 87
    },
    {
      "midi": 70,
      "hit": false,
      "t": 92686.11300000032,
      "d": 223.87949999999546,
      "v": 87
    },
    {
      "midi": 72,
      "hit": false,
      "t": 92909.99250000031,
      "d": 223.87949999999546,
      "v": 101
    },
    {
      "midi": 72,
      "hit": false,
      "t": 92909.99250000031,
      "d": 223.87949999999546,
      "v": 101
    },
    {
      "midi": 72,
      "hit": false,
      "t": 93133.87199999989,
      "d": 1716.4095000000088,
      "v": 101
    },
    {
      "midi": 79,
      "hit": false,
      "t": 93133.87199999989,
      "d": 1716.4095000000088,
      "v": 117
    },
    {
      "midi": 76,
      "hit": false,
      "t": 93133.87199999989,
      "d": 1738.564242187509,
      "v": 117
    },
    {
      "midi": 36,
      "hit": false,
      "t": 93133.87199999997,
      "d": 626.1629765624966,
      "v": 117
    },
    {
      "midi": 48,
      "hit": false,
      "t": 93133.87200000006,
      "d": 1756.054828124994,
      "v": 120
    },
    {
      "midi": 67,
      "hit": false,
      "t": 93133.87200000031,
      "d": 335.81925000000047,
      "v": 107
    },
    {
      "midi": 67,
      "hit": false,
      "t": 93133.87200000031,
      "d": 335.81925000000047,
      "v": 107
    },
    {
      "midi": 43,
      "hit": false,
      "t": 93805.51049999997,
      "d": 626.1629765624966,
      "v": 123
    },
    {
      "midi": 36,
      "hit": false,
      "t": 94477.14899999998,
      "d": 438.43068750000384,
      "v": 123
    },
    {
      "midi": 38,
      "hit": false,
      "t": 94924.90799999998,
      "d": 668.140382812504,
      "v": 117
    },
    {
      "midi": 50,
      "hit": false,
      "t": 94924.90800000005,
      "d": 1796.8661953124974,
      "v": 109
    },
    {
      "midi": 77,
      "hit": false,
      "t": 95148.78749999989,
      "d": 41.97740624999278,
      "v": 127
    },
    {
      "midi": 74,
      "hit": false,
      "t": 95148.78749999989,
      "d": 61.800070312499884,
      "v": 107
    },
    {
      "midi": 81,
      "hit": false,
      "t": 95148.78749999989,
      "d": 103.77747656249267,
      "v": 120
    },
    {
      "midi": 69,
      "hit": false,
      "t": 95372.6670000003,
      "d": 895.5179999999964,
      "v": 112
    },
    {
      "midi": 69,
      "hit": false,
      "t": 95372.6670000003,
      "d": 895.5179999999964,
      "v": 112
    },
    {
      "midi": 77,
      "hit": false,
      "t": 95596.54649999988,
      "d": 61.800070312499884,
      "v": 120
    },
    {
      "midi": 74,
      "hit": false,
      "t": 95596.54649999988,
      "d": 83.95481250000012,
      "v": 89
    },
    {
      "midi": 81,
      "hit": false,
      "t": 95596.54649999988,
      "d": 83.95481250000012,
      "v": 112
    },
    {
      "midi": 38,
      "hit": false,
      "t": 95596.54649999998,
      "d": 648.3177187499969,
      "v": 125
    },
    {
      "midi": 74,
      "hit": false,
      "t": 95820.42599999988,
      "d": 354.4758750000037,
      "v": 79
    },
    {
      "midi": 77,
      "hit": false,
      "t": 95820.42599999988,
      "d": 375.4645781250001,
      "v": 109
    },
    {
      "midi": 82,
      "hit": false,
      "t": 95820.42599999988,
      "d": 396.4532812499965,
      "v": 127
    },
    {
      "midi": 74,
      "hit": false,
      "t": 96268.18499999987,
      "d": 396.4532812499965,
      "v": 101
    },
    {
      "midi": 77,
      "hit": false,
      "t": 96268.18499999987,
      "d": 417.4419843749929,
      "v": 115
    },
    {
      "midi": 81,
      "hit": false,
      "t": 96268.18499999987,
      "d": 417.4419843749929,
      "v": 120
    },
    {
      "midi": 38,
      "hit": false,
      "t": 96268.18499999998,
      "d": 417.4419843749929,
      "v": 103
    },
    {
      "midi": 72,
      "hit": false,
      "t": 96268.1850000003,
      "d": 447.75900000000547,
      "v": 101
    },
    {
      "midi": 72,
      "hit": false,
      "t": 96268.1850000003,
      "d": 447.75900000000547,
      "v": 101
    },
    {
      "midi": 34,
      "hit": false,
      "t": 96715.94399999997,
      "d": 584.1855703125038,
      "v": 124
    },
    {
      "midi": 46,
      "hit": false,
      "t": 96715.94400000005,
      "d": 1777.043531250005,
      "v": 127
    },
    {
      "midi": 74,
      "hit": false,
      "t": 96715.94400000031,
      "d": 447.75900000000547,
      "v": 88
    },
    {
      "midi": 74,
      "hit": false,
      "t": 96715.94400000031,
      "d": 447.75900000000547,
      "v": 88
    },
    {
      "midi": 74,
      "hit": false,
      "t": 96939.82349999985,
      "d": 61.800070312499884,
      "v": 103
    },
    {
      "midi": 77,
      "hit": false,
      "t": 96939.82349999985,
      "d": 85.12085156250396,
      "v": 125
    },
    {
      "midi": 82,
      "hit": false,
      "t": 96939.82349999985,
      "d": 106.10955468750035,
      "v": 127
    },
    {
      "midi": 72,
      "hit": false,
      "t": 97163.70300000031,
      "d": 223.87949999999546,
      "v": 99
    },
    {
      "midi": 72,
      "hit": false,
      "t": 97163.70300000031,
      "d": 223.87949999999546,
      "v": 99
    },
    {
      "midi": 74,
      "hit": false,
      "t": 97387.58249999986,
      "d": 61.800070312499884,
      "v": 94
    },
    {
      "midi": 77,
      "hit": false,
      "t": 97387.58249999986,
      "d": 61.800070312499884,
      "v": 109
    },
    {
      "midi": 82,
      "hit": false,
      "t": 97387.58249999986,
      "d": 103.77747656249267,
      "v": 127
    },
    {
      "midi": 34,
      "hit": false,
      "t": 97387.58249999997,
      "d": 564.3629062499967,
      "v": 127
    },
    {
      "midi": 70,
      "hit": false,
      "t": 97387.58250000031,
      "d": 671.6385000000009,
      "v": 104
    },
    {
      "midi": 70,
      "hit": false,
      "t": 97387.58250000031,
      "d": 671.6385000000009,
      "v": 104
    },
    {
      "midi": 74,
      "hit": false,
      "t": 97611.46199999985,
      "d": 354.4758750000037,
      "v": 86
    },
    {
      "midi": 77,
      "hit": false,
      "t": 97611.46199999985,
      "d": 375.4645781250001,
      "v": 112
    },
    {
      "midi": 84,
      "hit": false,
      "t": 97611.46199999985,
      "d": 375.4645781250001,
      "v": 120
    },
    {
      "midi": 74,
      "hit": false,
      "t": 98059.22099999986,
      "d": 375.4645781250001,
      "v": 94
    },
    {
      "midi": 77,
      "hit": false,
      "t": 98059.22099999986,
      "d": 375.4645781250001,
      "v": 112
    },
    {
      "midi": 82,
      "hit": false,
      "t": 98059.22099999986,
      "d": 396.4532812499965,
      "v": 127
    },
    {
      "midi": 34,
      "hit": false,
      "t": 98059.22099999998,
      "d": 459.41939062500023,
      "v": 81
    },
    {
      "midi": 41,
      "hit": false,
      "t": 98506.97999999998,
      "d": 584.1855703124893,
      "v": 127
    },
    {
      "midi": 48,
      "hit": false,
      "t": 98506.98000000005,
      "d": 1733.9000859374937,
      "v": 125
    },
    {
      "midi": 72,
      "hit": false,
      "t": 98506.98000000032,
      "d": 111.939750000005,
      "v": 117
    },
    {
      "midi": 72,
      "hit": false,
      "t": 98506.98000000032,
      "d": 111.939750000005,
      "v": 117
    },
    {
      "midi": 81,
      "hit": false,
      "t": 98730.85949999986,
      "d": 61.800070312499884,
      "v": 120
    },
    {
      "midi": 77,
      "hit": false,
      "t": 98730.85949999986,
      "d": 82.78877343749627,
      "v": 115
    },
    {
      "midi": 84,
      "hit": false,
      "t": 98730.85949999986,
      "d": 82.78877343749627,
      "v": 125
    },
    {
      "midi": 72,
      "hit": false,
      "t": 98730.85950000033,
      "d": 111.939750000005,
      "v": 107
    },
    {
      "midi": 72,
      "hit": false,
      "t": 98730.85950000033,
      "d": 111.939750000005,
      "v": 107
    },
    {
      "midi": 72,
      "hit": false,
      "t": 98954.73900000034,
      "d": 111.939750000005,
      "v": 105
    },
    {
      "midi": 72,
      "hit": false,
      "t": 98954.73900000034,
      "d": 111.939750000005,
      "v": 105
    },
    {
      "midi": 77,
      "hit": false,
      "t": 99178.61849999985,
      "d": 103.77747656250722,
      "v": 103
    },
    {
      "midi": 81,
      "hit": false,
      "t": 99178.61849999985,
      "d": 103.77747656250722,
      "v": 112
    },
    {
      "midi": 84,
      "hit": false,
      "t": 99178.61849999985,
      "d": 103.77747656250722,
      "v": 117
    },
    {
      "midi": 41,
      "hit": false,
      "t": 99178.61849999997,
      "d": 584.1855703125038,
      "v": 117
    },
    {
      "midi": 72,
      "hit": false,
      "t": 99178.61850000035,
      "d": 111.939750000005,
      "v": 99
    },
    {
      "midi": 72,
      "hit": false,
      "t": 99178.61850000035,
      "d": 111.939750000005,
      "v": 99
    },
    {
      "midi": 77,
      "hit": false,
      "t": 99402.49799999986,
      "d": 334.6532109374966,
      "v": 115
    },
    {
      "midi": 81,
      "hit": false,
      "t": 99402.49799999986,
      "d": 354.4758750000037,
      "v": 127
    },
    {
      "midi": 86,
      "hit": false,
      "t": 99402.49799999986,
      "d": 354.4758750000037,
      "v": 115
    },
    {
      "midi": 72,
      "hit": false,
      "t": 99402.49800000036,
      "d": 111.939750000005,
      "v": 103
    },
    {
      "midi": 72,
      "hit": false,
      "t": 99402.49800000036,
      "d": 111.939750000005,
      "v": 103
    },
    {
      "midi": 72,
      "hit": false,
      "t": 99626.37750000037,
      "d": 111.939750000005,
      "v": 99
    },
    {
      "midi": 72,
      "hit": false,
      "t": 99626.37750000037,
      "d": 111.939750000005,
      "v": 99
    },
    {
      "midi": 77,
      "hit": false,
      "t": 99850.25699999987,
      "d": 333.4871718749928,
      "v": 120
    },
    {
      "midi": 81,
      "hit": false,
      "t": 99850.25699999987,
      "d": 354.4758749999892,
      "v": 125
    },
    {
      "midi": 84,
      "hit": false,
      "t": 99850.25699999987,
      "d": 375.46457812498556,
      "v": 127
    },
    {
      "midi": 41,
      "hit": false,
      "t": 99850.25699999997,
      "d": 459.41939062500023,
      "v": 117
    },
    {
      "midi": 72,
      "hit": false,
      "t": 99850.25700000038,
      "d": 111.939750000005,
      "v": 105
    },
    {
      "midi": 72,
      "hit": false,
      "t": 99850.25700000038,
      "d": 111.939750000005,
      "v": 105
    },
    {
      "midi": 72,
      "hit": false,
      "t": 100074.13650000039,
      "d": 223.87949999999546,
      "v": 105
    },
    {
      "midi": 72,
      "hit": false,
      "t": 100074.13650000039,
      "d": 223.87949999999546,
      "v": 105
    },
    {
      "midi": 79,
      "hit": false,
      "t": 100298.01599999986,
      "d": 3487.6228359374945,
      "v": 120
    },
    {
      "midi": 83,
      "hit": false,
      "t": 100298.01599999986,
      "d": 3506.279460937498,
      "v": 127
    },
    {
      "midi": 86,
      "hit": false,
      "t": 100298.01599999986,
      "d": 3506.279460937498,
      "v": 117
    },
    {
      "midi": 43,
      "hit": false,
      "t": 100298.01599999997,
      "d": 647.151679687493,
      "v": 127
    },
    {
      "midi": 50,
      "hit": false,
      "t": 100298.01600000005,
      "d": 1631.288648437505,
      "v": 109
    },
    {
      "midi": 74,
      "hit": false,
      "t": 100298.01600000038,
      "d": 335.81925000000047,
      "v": 97
    },
    {
      "midi": 74,
      "hit": false,
      "t": 100298.01600000038,
      "d": 335.81925000000047,
      "v": 97
    },
    {
      "midi": 43,
      "hit": false,
      "t": 100969.65449999996,
      "d": 564.3629062499967,
      "v": 109
    },
    {
      "midi": 74,
      "hit": false,
      "t": 102047.07459375005,
      "d": 125.93221875000745,
      "v": 112
    },
    {
      "midi": 43,
      "hit": false,
      "t": 102073.89349218746,
      "d": 5.830195312504657,
      "v": 123
    },
    {
      "midi": 71,
      "hit": false,
      "t": 102157.84830468755,
      "d": 141.09072656251374,
      "v": 115
    },
    {
      "midi": 69,
      "hit": false,
      "t": 102266.28993750006,
      "d": 125.93221875000745,
      "v": 112
    },
    {
      "midi": 67,
      "hit": false,
      "t": 102392.22215625006,
      "d": 109.60767187499732,
      "v": 117
    },
    {
      "midi": 74,
      "hit": false,
      "t": 102501.82982812506,
      "d": 156.24923437499092,
      "v": 112
    },
    {
      "midi": 71,
      "hit": false,
      "t": 102627.76204687505,
      "d": 124.76617968750361,
      "v": 115
    },
    {
      "midi": 69,
      "hit": false,
      "t": 102721.04517187506,
      "d": 156.24923437500547,
      "v": 105
    },
    {
      "midi": 38,
      "hit": false,
      "t": 102760.69049999997,
      "d": 629.6610937499936,
      "v": 123
    },
    {
      "midi": 67,
      "hit": false,
      "t": 102846.97739062506,
      "d": 109.60767187499732,
      "v": 107
    },
    {
      "midi": 69,
      "hit": false,
      "t": 102971.74357031257,
      "d": 141.09072656249919,
      "v": 107
    },
    {
      "midi": 67,
      "hit": false,
      "t": 103082.51728125007,
      "d": 172.57378125000105,
      "v": 97
    },
    {
      "midi": 64,
      "hit": false,
      "t": 103207.28346093757,
      "d": 141.09072656249919,
      "v": 112
    },
    {
      "midi": 62,
      "hit": false,
      "t": 103316.89113281257,
      "d": 94.44916406250559,
      "v": 94
    },
    {
      "midi": 69,
      "hit": false,
      "t": 103411.34029687507,
      "d": 124.76617968750361,
      "v": 101
    },
    {
      "midi": 31,
      "hit": false,
      "t": 103432.32899999995,
      "d": 405.78159374999814,
      "v": 120
    },
    {
      "midi": 67,
      "hit": false,
      "t": 103536.10647656258,
      "d": 345.1475625000021,
      "v": 123
    },
    {
      "midi": 43,
      "hit": false,
      "t": 103880.08799999995,
      "d": 587.6836875000008,
      "v": 125
    },
    {
      "midi": 74,
      "hit": false,
      "t": 103889.41631249986,
      "d": 1542.669679687504,
      "v": 123
    },
    {
      "midi": 67,
      "hit": false,
      "t": 103889.41631249986,
      "d": 1562.492343750011,
      "v": 127
    },
    {
      "midi": 71,
      "hit": false,
      "t": 103889.41631249986,
      "d": 1562.492343750011,
      "v": 127
    },
    {
      "midi": 43,
      "hit": false,
      "t": 103889.41631250008,
      "d": 1766.5491796874994,
      "v": 127
    },
    {
      "midi": 74,
      "hit": false,
      "t": 104327.84700000039,
      "d": 111.939750000005,
      "v": 103
    },
    {
      "midi": 74,
      "hit": false,
      "t": 104327.84700000039,
      "d": 111.939750000005,
      "v": 103
    },
    {
      "midi": 43,
      "hit": false,
      "t": 104551.72649999995,
      "d": 669.3064218749932,
      "v": 117
    },
    {
      "midi": 74,
      "hit": false,
      "t": 104551.7265000004,
      "d": 335.81925000000047,
      "v": 95
    },
    {
      "midi": 74,
      "hit": false,
      "t": 104551.7265000004,
      "d": 335.81925000000047,
      "v": 95
    },
    {
      "midi": 74,
      "hit": false,
      "t": 104999.4855000004,
      "d": 223.87949999999546,
      "v": 79
    },
    {
      "midi": 74,
      "hit": false,
      "t": 104999.4855000004,
      "d": 223.87949999999546,
      "v": 79
    },
    {
      "midi": 31,
      "hit": false,
      "t": 105223.36499999993,
      "d": 425.60425781250524,
      "v": 120
    },
    {
      "midi": 71,
      "hit": false,
      "t": 105223.3650000004,
      "d": 447.75900000000547,
      "v": 103
    },
    {
      "midi": 71,
      "hit": false,
      "t": 105223.3650000004,
      "d": 447.75900000000547,
      "v": 103
    },
    {
      "midi": 72,
      "hit": false,
      "t": 105655.96549218737,
      "d": 1663.9377421875106,
      "v": 127
    },
    {
      "midi": 36,
      "hit": false,
      "t": 105671.12399999994,
      "d": 567.8610234374937,
      "v": 109
    },
    {
      "midi": 69,
      "hit": false,
      "t": 105671.1240000004,
      "d": 671.6385000000009,
      "v": 92
    },
    {
      "midi": 69,
      "hit": false,
      "t": 105671.1240000004,
      "d": 671.6385000000009,
      "v": 92
    },
    {
      "midi": 77,
      "hit": false,
      "t": 105675.78815624988,
      "d": 690.2951250000042,
      "v": 127
    },
    {
      "midi": 67,
      "hit": false,
      "t": 105675.78815624988,
      "d": 1623.126375000007,
      "v": 120
    },
    {
      "midi": 48,
      "hit": false,
      "t": 105675.78815625008,
      "d": 1725.7378125000105,
      "v": 127
    },
    {
      "midi": 45,
      "hit": false,
      "t": 105695.61082031259,
      "d": 20.98870312499639,
      "v": 72
    },
    {
      "midi": 76,
      "hit": false,
      "t": 106325.27191406238,
      "d": 1015.6200234374992,
      "v": 125
    },
    {
      "midi": 36,
      "hit": false,
      "t": 106342.76249999994,
      "d": 567.8610234374937,
      "v": 115
    },
    {
      "midi": 67,
      "hit": false,
      "t": 106342.7625000004,
      "d": 895.5179999999964,
      "v": 99
    },
    {
      "midi": 67,
      "hit": false,
      "t": 106342.7625000004,
      "d": 895.5179999999964,
      "v": 99
    },
    {
      "midi": 36,
      "hit": false,
      "t": 107014.40099999994,
      "d": 425.60425781250524,
      "v": 101
    },
    {
      "midi": 43,
      "hit": false,
      "t": 107441.1712968751,
      "d": 1807.360546875003,
      "v": 127
    },
    {
      "midi": 67,
      "hit": false,
      "t": 107462.15999999989,
      "d": 1645.2811171874928,
      "v": 125
    },
    {
      "midi": 71,
      "hit": false,
      "t": 107462.15999999989,
      "d": 1684.9264453124924,
      "v": 127
    },
    {
      "midi": 43,
      "hit": false,
      "t": 107462.15999999995,
      "d": 546.8723203124973,
      "v": 112
    },
    {
      "midi": 67,
      "hit": false,
      "t": 107462.1600000004,
      "d": 111.939750000005,
      "v": 105
    },
    {
      "midi": 67,
      "hit": false,
      "t": 107462.1600000004,
      "d": 111.939750000005,
      "v": 105
    },
    {
      "midi": 74,
      "hit": false,
      "t": 107483.14870312488,
      "d": 1663.937742187496,
      "v": 120
    },
    {
      "midi": 67,
      "hit": false,
      "t": 107686.0395000004,
      "d": 111.939750000005,
      "v": 95
    },
    {
      "midi": 67,
      "hit": false,
      "t": 107686.0395000004,
      "d": 111.939750000005,
      "v": 95
    },
    {
      "midi": 67,
      "hit": false,
      "t": 107909.91900000042,
      "d": 223.87949999999546,
      "v": 99
    },
    {
      "midi": 67,
      "hit": false,
      "t": 107909.91900000042,
      "d": 223.87949999999546,
      "v": 99
    },
    {
      "midi": 43,
      "hit": false,
      "t": 108133.79849999995,
      "d": 628.4950546875043,
      "v": 115
    },
    {
      "midi": 69,
      "hit": false,
      "t": 108133.79850000041,
      "d": 223.87949999999546,
      "v": 92
    },
    {
      "midi": 69,
      "hit": false,
      "t": 108133.79850000041,
      "d": 223.87949999999546,
      "v": 92
    },
    {
      "midi": 67,
      "hit": false,
      "t": 108357.67800000041,
      "d": 447.75900000000547,
      "v": 95
    },
    {
      "midi": 67,
      "hit": false,
      "t": 108357.67800000041,
      "d": 447.75900000000547,
      "v": 95
    },
    {
      "midi": 31,
      "hit": false,
      "t": 108805.43699999995,
      "d": 425.60425781250524,
      "v": 109
    },
    {
      "midi": 62,
      "hit": false,
      "t": 108805.43700000041,
      "d": 111.939750000005,
      "v": 86
    },
    {
      "midi": 62,
      "hit": false,
      "t": 108805.43700000041,
      "d": 111.939750000005,
      "v": 86
    },
    {
      "midi": 62,
      "hit": false,
      "t": 109029.31650000042,
      "d": 223.87949999999546,
      "v": 82
    },
    {
      "midi": 62,
      "hit": false,
      "t": 109029.31650000042,
      "d": 223.87949999999546,
      "v": 82
    },
    {
      "midi": 67,
      "hit": false,
      "t": 109228.70917968739,
      "d": 852.3745546875143,
      "v": 117
    },
    {
      "midi": 72,
      "hit": false,
      "t": 109228.70917968739,
      "d": 852.3745546875143,
      "v": 127
    },
    {
      "midi": 76,
      "hit": false,
      "t": 109248.5318437499,
      "d": 812.7292265625001,
      "v": 127
    },
    {
      "midi": 40,
      "hit": false,
      "t": 109248.5318437501,
      "d": 893.1859218750033,
      "v": 127
    },
    {
      "midi": 40,
      "hit": false,
      "t": 109253.19599999995,
      "d": 669.3064218749932,
      "v": 117
    },
    {
      "midi": 67,
      "hit": false,
      "t": 109253.19600000042,
      "d": 111.939750000005,
      "v": 103
    },
    {
      "midi": 67,
      "hit": false,
      "t": 109253.19600000042,
      "d": 111.939750000005,
      "v": 103
    },
    {
      "midi": 67,
      "hit": false,
      "t": 109477.07550000043,
      "d": 111.939750000005,
      "v": 91
    },
    {
      "midi": 67,
      "hit": false,
      "t": 109477.07550000043,
      "d": 111.939750000005,
      "v": 91
    },
    {
      "midi": 67,
      "hit": false,
      "t": 109700.95500000044,
      "d": 111.939750000005,
      "v": 94
    },
    {
      "midi": 67,
      "hit": false,
      "t": 109700.95500000044,
      "d": 111.939750000005,
      "v": 94
    },
    {
      "midi": 40,
      "hit": false,
      "t": 109924.83449999994,
      "d": 202.89079687499907,
      "v": 99
    },
    {
      "midi": 67,
      "hit": false,
      "t": 109924.83450000045,
      "d": 223.87949999999546,
      "v": 83
    },
    {
      "midi": 67,
      "hit": false,
      "t": 109924.83450000045,
      "d": 223.87949999999546,
      "v": 83
    },
    {
      "midi": 38,
      "hit": false,
      "t": 110141.7177656251,
      "d": 851.2085156249959,
      "v": 127
    },
    {
      "midi": 38,
      "hit": false,
      "t": 110148.71399999993,
      "d": 852.3745546874998,
      "v": 105
    },
    {
      "midi": 66,
      "hit": false,
      "t": 110148.71400000044,
      "d": 223.87949999999546,
      "v": 111
    },
    {
      "midi": 66,
      "hit": false,
      "t": 110148.71400000044,
      "d": 223.87949999999546,
      "v": 111
    },
    {
      "midi": 66,
      "hit": false,
      "t": 110162.70646874991,
      "d": 710.1177890624967,
      "v": 127
    },
    {
      "midi": 69,
      "hit": false,
      "t": 110162.70646874991,
      "d": 731.1064921874931,
      "v": 125
    },
    {
      "midi": 74,
      "hit": false,
      "t": 110162.70646874991,
      "d": 750.9291562500002,
      "v": 117
    },
    {
      "midi": 64,
      "hit": false,
      "t": 110372.59350000044,
      "d": 223.87949999999546,
      "v": 105
    },
    {
      "midi": 64,
      "hit": false,
      "t": 110372.59350000044,
      "d": 223.87949999999546,
      "v": 105
    },
    {
      "midi": 62,
      "hit": false,
      "t": 110596.47300000043,
      "d": 335.81925000000047,
      "v": 86
    },
    {
      "midi": 62,
      "hit": false,
      "t": 110596.47300000043,
      "d": 335.81925000000047,
      "v": 86
    },
    {
      "midi": 67,
      "hit": false,
      "t": 111015.08102343741,
      "d": 1603.3037109375,
      "v": 123
    },
    {
      "midi": 71,
      "hit": false,
      "t": 111015.08102343741,
      "d": 1603.3037109375,
      "v": 127
    },
    {
      "midi": 74,
      "hit": false,
      "t": 111015.08102343741,
      "d": 1603.3037109375,
      "v": 123
    },
    {
      "midi": 43,
      "hit": false,
      "t": 111034.90368750009,
      "d": 1744.3944374999992,
      "v": 127
    },
    {
      "midi": 43,
      "hit": false,
      "t": 111044.23199999993,
      "d": 548.0383593750012,
      "v": 127
    },
    {
      "midi": 74,
      "hit": false,
      "t": 111491.99100000043,
      "d": 223.87949999999546,
      "v": 94
    },
    {
      "midi": 74,
      "hit": false,
      "t": 111491.99100000043,
      "d": 223.87949999999546,
      "v": 94
    },
    {
      "midi": 43,
      "hit": false,
      "t": 111715.87049999993,
      "d": 669.3064218749932,
      "v": 115
    },
    {
      "midi": 74,
      "hit": false,
      "t": 111715.87050000043,
      "d": 335.81925000000047,
      "v": 85
    },
    {
      "midi": 74,
      "hit": false,
      "t": 111715.87050000043,
      "d": 335.81925000000047,
      "v": 85
    },
    {
      "midi": 74,
      "hit": false,
      "t": 112163.62950000043,
      "d": 223.87949999999546,
      "v": 86
    },
    {
      "midi": 74,
      "hit": false,
      "t": 112163.62950000043,
      "d": 223.87949999999546,
      "v": 86
    },
    {
      "midi": 31,
      "hit": false,
      "t": 112387.50899999992,
      "d": 405.78159374999814,
      "v": 109
    },
    {
      "midi": 76,
      "hit": false,
      "t": 112387.50900000043,
      "d": 335.81925000000047,
      "v": 99
    },
    {
      "midi": 76,
      "hit": false,
      "t": 112387.50900000043,
      "d": 335.81925000000047,
      "v": 99
    },
    {
      "midi": 77,
      "hit": false,
      "t": 112780.4641640624,
      "d": 731.1064921874931,
      "v": 127
    },
    {
      "midi": 72,
      "hit": false,
      "t": 112780.4641640624,
      "d": 1624.2924140624964,
      "v": 127
    },
    {
      "midi": 67,
      "hit": false,
      "t": 112801.4528671874,
      "d": 1603.3037109375,
      "v": 117
    },
    {
      "midi": 48,
      "hit": false,
      "t": 112821.27553125008,
      "d": 1704.7491093749995,
      "v": 127
    },
    {
      "midi": 36,
      "hit": false,
      "t": 112835.26799999991,
      "d": 608.6723906249972,
      "v": 109
    },
    {
      "midi": 67,
      "hit": false,
      "t": 112835.26800000043,
      "d": 1007.4577500000014,
      "v": 97
    },
    {
      "midi": 67,
      "hit": false,
      "t": 112835.26800000043,
      "d": 1007.4577500000014,
      "v": 97
    },
    {
      "midi": 36,
      "hit": false,
      "t": 113506.90649999991,
      "d": 548.0383593750012,
      "v": 107
    },
    {
      "midi": 76,
      "hit": false,
      "t": 113511.5706562499,
      "d": 933.9972890625068,
      "v": 112
    },
    {
      "midi": 36,
      "hit": false,
      "t": 114178.54499999991,
      "d": 425.60425781250524,
      "v": 107
    },
    {
      "midi": 62,
      "hit": false,
      "t": 114402.42450000043,
      "d": 223.87949999999546,
      "v": 77
    },
    {
      "midi": 62,
      "hit": false,
      "t": 114402.42450000043,
      "d": 223.87949999999546,
      "v": 77
    },
    {
      "midi": 67,
      "hit": false,
      "t": 114607.6473749999,
      "d": 1583.481046874993,
      "v": 125
    },
    {
      "midi": 71,
      "hit": false,
      "t": 114607.6473749999,
      "d": 1583.481046874993,
      "v": 127
    },
    {
      "midi": 43,
      "hit": false,
      "t": 114626.30399999992,
      "d": 587.6836875000008,
      "v": 120
    },
    {
      "midi": 67,
      "hit": false,
      "t": 114626.30400000043,
      "d": 111.939750000005,
      "v": 97
    },
    {
      "midi": 67,
      "hit": false,
      "t": 114626.30400000043,
      "d": 111.939750000005,
      "v": 97
    },
    {
      "midi": 74,
      "hit": false,
      "t": 114628.6360781249,
      "d": 1541.5036406250001,
      "v": 123
    },
    {
      "midi": 43,
      "hit": false,
      "t": 114663.61725000008,
      "d": 1582.3150078125036,
      "v": 127
    },
    {
      "midi": 67,
      "hit": false,
      "t": 114850.18350000044,
      "d": 111.939750000005,
      "v": 99
    },
    {
      "midi": 67,
      "hit": false,
      "t": 114850.18350000044,
      "d": 111.939750000005,
      "v": 99
    },
    {
      "midi": 67,
      "hit": false,
      "t": 115074.06300000045,
      "d": 223.87949999999546,
      "v": 103
    },
    {
      "midi": 67,
      "hit": false,
      "t": 115074.06300000045,
      "d": 223.87949999999546,
      "v": 103
    },
    {
      "midi": 43,
      "hit": false,
      "t": 115297.94249999992,
      "d": 1014.4539843749953,
      "v": 107
    },
    {
      "midi": 69,
      "hit": false,
      "t": 115297.94250000044,
      "d": 223.87949999999546,
      "v": 91
    },
    {
      "midi": 69,
      "hit": false,
      "t": 115297.94250000044,
      "d": 223.87949999999546,
      "v": 91
    },
    {
      "midi": 67,
      "hit": false,
      "t": 115521.82200000044,
      "d": 335.81925000000047,
      "v": 99
    },
    {
      "midi": 67,
      "hit": false,
      "t": 115521.82200000044,
      "d": 335.81925000000047,
      "v": 99
    },
    {
      "midi": 75,
      "hit": false,
      "t": 116394.01921874989,
      "d": 3552.921023437506,
      "v": 127
    },
    {
      "midi": 67,
      "hit": false,
      "t": 116394.01921874989,
      "d": 3572.743687500013,
      "v": 127
    },
    {
      "midi": 70,
      "hit": false,
      "t": 116394.01921874989,
      "d": 3572.743687500013,
      "v": 127
    },
    {
      "midi": 39,
      "hit": false,
      "t": 116417.33999999991,
      "d": 3491.120953125006,
      "v": 127
    },
    {
      "midi": 39,
      "hit": false,
      "t": 116435.99662500009,
      "d": 3551.7549843750458,
      "v": 127
    },
    {
      "midi": 67,
      "hit": false,
      "t": 118432.25550000044,
      "d": 111.939750000005,
      "v": 97
    },
    {
      "midi": 67,
      "hit": false,
      "t": 118432.25550000044,
      "d": 111.939750000005,
      "v": 97
    },
    {
      "midi": 67,
      "hit": false,
      "t": 118656.13500000045,
      "d": 223.87949999999546,
      "v": 109
    },
    {
      "midi": 67,
      "hit": false,
      "t": 118656.13500000045,
      "d": 223.87949999999546,
      "v": 109
    },
    {
      "midi": 69,
      "hit": false,
      "t": 118880.01450000044,
      "d": 223.87949999999546,
      "v": 89
    },
    {
      "midi": 69,
      "hit": false,
      "t": 118880.01450000044,
      "d": 223.87949999999546,
      "v": 89
    },
    {
      "midi": 70,
      "hit": false,
      "t": 119103.89400000044,
      "d": 223.87949999999546,
      "v": 100
    },
    {
      "midi": 70,
      "hit": false,
      "t": 119103.89400000044,
      "d": 223.87949999999546,
      "v": 100
    },
    {
      "midi": 69,
      "hit": false,
      "t": 119327.77350000043,
      "d": 223.87949999999546,
      "v": 92
    },
    {
      "midi": 69,
      "hit": false,
      "t": 119327.77350000043,
      "d": 223.87949999999546,
      "v": 92
    },
    {
      "midi": 67,
      "hit": false,
      "t": 119551.65300000043,
      "d": 223.87949999999546,
      "v": 95
    },
    {
      "midi": 67,
      "hit": false,
      "t": 119551.65300000043,
      "d": 223.87949999999546,
      "v": 95
    },
    {
      "midi": 69,
      "hit": false,
      "t": 119775.53250000042,
      "d": 111.939750000005,
      "v": 103
    },
    {
      "midi": 69,
      "hit": false,
      "t": 119775.53250000042,
      "d": 111.939750000005,
      "v": 103
    },
    {
      "midi": 74,
      "hit": false,
      "t": 119977.25725781263,
      "d": 1522.847015625026,
      "v": 127
    },
    {
      "midi": 75,
      "hit": false,
      "t": 119998.24596093764,
      "d": 19.8226640625071,
      "v": 100
    },
    {
      "midi": 38,
      "hit": false,
      "t": 119999.41199999991,
      "d": 1076.2540546874952,
      "v": 125
    },
    {
      "midi": 50,
      "hit": false,
      "t": 119999.41199999995,
      "d": 181.90209375000268,
      "v": 103
    },
    {
      "midi": 38,
      "hit": false,
      "t": 119999.41199999995,
      "d": 587.6836875000008,
      "v": 117
    },
    {
      "midi": 69,
      "hit": false,
      "t": 119999.41200000043,
      "d": 3470.132249999995,
      "v": 89
    },
    {
      "midi": 69,
      "hit": false,
      "t": 119999.41200000043,
      "d": 3470.132249999995,
      "v": 89
    },
    {
      "midi": 50,
      "hit": false,
      "t": 120223.29149999995,
      "d": 121.26806250000664,
      "v": 82
    },
    {
      "midi": 50,
      "hit": false,
      "t": 120447.17099999996,
      "d": 162.07942968749558,
      "v": 55
    },
    {
      "midi": 50,
      "hit": false,
      "t": 120671.05049999995,
      "d": 325.324898437495,
      "v": 85
    },
    {
      "midi": 38,
      "hit": false,
      "t": 120671.05049999995,
      "d": 628.4950546874898,
      "v": 99
    },
    {
      "midi": 38,
      "hit": false,
      "t": 121118.8094999999,
      "d": 384.79289062500175,
      "v": 101
    },
    {
      "midi": 50,
      "hit": false,
      "t": 121118.80949999994,
      "d": 201.72475781249523,
      "v": 53
    },
    {
      "midi": 50,
      "hit": false,
      "t": 121342.68899999994,
      "d": 141.09072656249919,
      "v": 86
    },
    {
      "midi": 38,
      "hit": false,
      "t": 121342.68899999994,
      "d": 385.95892968749104,
      "v": 72
    },
    {
      "midi": 69,
      "hit": false,
      "t": 121540.91564062516,
      "d": 446.5929609374871,
      "v": 123
    },
    {
      "midi": 38,
      "hit": false,
      "t": 121566.5684999999,
      "d": 80.45669531250314,
      "v": 101
    },
    {
      "midi": 50,
      "hit": false,
      "t": 121566.56849999994,
      "d": 183.06813281249197,
      "v": 80
    },
    {
      "midi": 38,
      "hit": false,
      "t": 121790.44799999992,
      "d": 1035.4426875000063,
      "v": 107
    },
    {
      "midi": 46,
      "hit": false,
      "t": 121790.44799999993,
      "d": 181.90209375000268,
      "v": 100
    },
    {
      "midi": 38,
      "hit": false,
      "t": 121790.44799999993,
      "d": 587.6836874999863,
      "v": 103
    },
    {
      "midi": 72,
      "hit": false,
      "t": 121987.50860156264,
      "d": 264.69086718749895,
      "v": 127
    },
    {
      "midi": 46,
      "hit": false,
      "t": 122014.32749999993,
      "d": 141.09072656249919,
      "v": 31
    },
    {
      "midi": 46,
      "hit": false,
      "t": 122238.20699999992,
      "d": 162.07942968749558,
      "v": 68
    },
    {
      "midi": 65,
      "hit": false,
      "t": 122252.19946875014,
      "d": 1156.7107500000275,
      "v": 127
    },
    {
      "midi": 46,
      "hit": false,
      "t": 122462.08649999992,
      "d": 162.07942968749558,
      "v": 83
    },
    {
      "midi": 38,
      "hit": false,
      "t": 122462.08649999992,
      "d": 567.8610234374937,
      "v": 101
    },
    {
      "midi": 46,
      "hit": false,
      "t": 122685.96599999991,
      "d": 141.09072656249919,
      "v": 65
    },
    {
      "midi": 46,
      "hit": false,
      "t": 122909.84549999991,
      "d": 162.07942968749558,
      "v": 66
    },
    {
      "midi": 38,
      "hit": false,
      "t": 122909.84549999992,
      "d": 385.9589296875056,
      "v": 94
    },
    {
      "midi": 46,
      "hit": false,
      "t": 123133.7249999999,
      "d": 202.89079687499907,
      "v": 73
    },
    {
      "midi": 38,
      "hit": false,
      "t": 123133.7249999999,
      "d": 405.78159374999814,
      "v": 92
    },
    {
      "midi": 46,
      "hit": false,
      "t": 123357.6044999999,
      "d": 181.90209375000268,
      "v": 48
    },
    {
      "midi": 38,
      "hit": false,
      "t": 123357.60449999993,
      "d": 141.09072656249919,
      "v": 86
    },
    {
      "midi": 45,
      "hit": false,
      "t": 123581.4839999999,
      "d": 345.1475625000021,
      "v": 82
    },
    {
      "midi": 38,
      "hit": false,
      "t": 123581.4839999999,
      "d": 608.6723906250118,
      "v": 107
    },
    {
      "midi": 38,
      "hit": false,
      "t": 123581.48399999992,
      "d": 994.6313203125028,
      "v": 103
    },
    {
      "midi": 53,
      "hit": false,
      "t": 123581.48400000017,
      "d": 67.63026562500454,
      "v": 118
    },
    {
      "midi": 55,
      "hit": false,
      "t": 123730.73700000018,
      "d": 81.62273437500698,
      "v": 118
    },
    {
      "midi": 57,
      "hit": false,
      "t": 123879.9900000002,
      "d": 81.62273437500698,
      "v": 120
    },
    {
      "midi": 45,
      "hit": false,
      "t": 124029.2429999999,
      "d": 141.09072656249919,
      "v": 38
    },
    {
      "midi": 58,
      "hit": false,
      "t": 124029.2430000002,
      "d": 54.80383593750594,
      "v": 120
    },
    {
      "midi": 60,
      "hit": false,
      "t": 124178.49600000022,
      "d": 68.79630468749383,
      "v": 120
    },
    {
      "midi": 45,
      "hit": false,
      "t": 124253.12249999991,
      "d": 324.1588593750057,
      "v": 77
    },
    {
      "midi": 38,
      "hit": false,
      "t": 124253.12249999991,
      "d": 588.8497265625047,
      "v": 103
    },
    {
      "midi": 62,
      "hit": false,
      "t": 124327.74900000021,
      "d": 68.79630468749383,
      "v": 121
    },
    {
      "midi": 64,
      "hit": false,
      "t": 124477.00200000021,
      "d": 67.63026562500454,
      "v": 121
    },
    {
      "midi": 65,
      "hit": false,
      "t": 124626.25500000022,
      "d": 82.78877343749627,
      "v": 121
    },
    {
      "midi": 45,
      "hit": false,
      "t": 124700.88149999992,
      "d": 162.07942968749558,
      "v": 53
    },
    {
      "midi": 38,
      "hit": false,
      "t": 124700.88149999993,
      "d": 405.78159374999814,
      "v": 97
    },
    {
      "midi": 67,
      "hit": false,
      "t": 124775.50800000022,
      "d": 67.63026562500454,
      "v": 121
    },
    {
      "midi": 45,
      "hit": false,
      "t": 124924.76099999991,
      "d": 181.90209375000268,
      "v": 66
    },
    {
      "midi": 38,
      "hit": false,
      "t": 124924.76099999991,
      "d": 384.79289062500175,
      "v": 99
    },
    {
      "midi": 69,
      "hit": false,
      "t": 124924.76100000023,
      "d": 95.61520312499488,
      "v": 121
    },
    {
      "midi": 70,
      "hit": false,
      "t": 125074.01400000023,
      "d": 54.80383593750594,
      "v": 121
    },
    {
      "midi": 45,
      "hit": false,
      "t": 125148.6404999999,
      "d": 162.07942968751013,
      "v": 45
    },
    {
      "midi": 38,
      "hit": false,
      "t": 125148.64049999992,
      "d": 101.44539843749953,
      "v": 66
    },
    {
      "midi": 72,
      "hit": false,
      "t": 125223.26700000024,
      "d": 96.78124218749872,
      "v": 121
    },
    {
      "midi": 38,
      "hit": false,
      "t": 125372.51999999992,
      "d": 1135.722046875002,
      "v": 112
    },
    {
      "midi": 46,
      "hit": false,
      "t": 125372.51999999992,
      "d": 142.25676562500303,
      "v": 95
    },
    {
      "midi": 38,
      "hit": false,
      "t": 125372.51999999992,
      "d": 587.6836875000154,
      "v": 101
    },
    {
      "midi": 74,
      "hit": false,
      "t": 125391.17662500024,
      "d": 1441.2242812500335,
      "v": 121
    },
    {
      "midi": 46,
      "hit": false,
      "t": 125596.39949999993,
      "d": 162.07942968749558,
      "v": 58
    },
    {
      "midi": 46,
      "hit": false,
      "t": 125820.27899999992,
      "d": 121.26806250000664,
      "v": 44
    },
    {
      "midi": 46,
      "hit": false,
      "t": 126044.15849999993,
      "d": 142.25676562500303,
      "v": 79
    },
    {
      "midi": 38,
      "hit": false,
      "t": 126044.15849999993,
      "d": 569.0270625000121,
      "v": 105
    },
    {
      "midi": 46,
      "hit": false,
      "t": 126268.03799999994,
      "d": 141.09072656249919,
      "v": 47
    },
    {
      "midi": 33,
      "hit": false,
      "t": 126491.91749999992,
      "d": 223.87949999999546,
      "v": 123
    },
    {
      "midi": 46,
      "hit": false,
      "t": 126491.91749999994,
      "d": 162.07942968751013,
      "v": 59
    },
    {
      "midi": 36,
      "hit": false,
      "t": 126715.79699999992,
      "d": 181.90209375000268,
      "v": 117
    },
    {
      "midi": 46,
      "hit": false,
      "t": 126715.79699999995,
      "d": 142.25676562500303,
      "v": 75
    },
    {
      "midi": 38,
      "hit": false,
      "t": 126715.79699999995,
      "d": 425.60425781250524,
      "v": 95
    },
    {
      "midi": 37,
      "hit": false,
      "t": 126939.67649999991,
      "d": 162.07942968749558,
      "v": 124
    },
    {
      "midi": 46,
      "hit": false,
      "t": 126939.67649999996,
      "d": 141.09072656249919,
      "v": 63
    },
    {
      "midi": 62,
      "hit": false,
      "t": 126939.67650000042,
      "d": 111.939750000005,
      "v": 97
    },
    {
      "midi": 62,
      "hit": false,
      "t": 126939.67650000042,
      "d": 111.939750000005,
      "v": 97
    },
    {
      "midi": 38,
      "hit": false,
      "t": 127163.55599999991,
      "d": 1795.7001562500081,
      "v": 123
    },
    {
      "midi": 38,
      "hit": false,
      "t": 127163.55599999995,
      "d": 542.2081640624965,
      "v": 91
    },
    {
      "midi": 62,
      "hit": false,
      "t": 127163.55600000043,
      "d": 111.939750000005,
      "v": 97
    },
    {
      "midi": 62,
      "hit": false,
      "t": 127163.55600000043,
      "d": 111.939750000005,
      "v": 97
    },
    {
      "midi": 53,
      "hit": false,
      "t": 127387.43549999995,
      "d": 228.54365624999627,
      "v": 65
    },
    {
      "midi": 57,
      "hit": false,
      "t": 127387.43550000027,
      "d": 80.45669531250314,
      "v": 112
    },
    {
      "midi": 62,
      "hit": false,
      "t": 127387.43550000044,
      "d": 111.939750000005,
      "v": 94
    },
    {
      "midi": 62,
      "hit": false,
      "t": 127387.43550000044,
      "d": 111.939750000005,
      "v": 94
    },
    {
      "midi": 57,
      "hit": false,
      "t": 127611.31499999994,
      "d": 417.44198437500745,
      "v": 83
    },
    {
      "midi": 65,
      "hit": false,
      "t": 127611.31500000028,
      "d": 222.71346093750617,
      "v": 105
    },
    {
      "midi": 62,
      "hit": false,
      "t": 127611.31500000045,
      "d": 111.939750000005,
      "v": 89
    },
    {
      "midi": 62,
      "hit": false,
      "t": 127611.31500000045,
      "d": 111.939750000005,
      "v": 89
    },
    {
      "midi": 38,
      "hit": false,
      "t": 127835.19449999995,
      "d": 522.3854999999894,
      "v": 82
    },
    {
      "midi": 57,
      "hit": false,
      "t": 127835.19450000029,
      "d": 80.45669531250314,
      "v": 91
    },
    {
      "midi": 62,
      "hit": false,
      "t": 127835.19450000046,
      "d": 111.939750000005,
      "v": 88
    },
    {
      "midi": 62,
      "hit": false,
      "t": 127835.19450000046,
      "d": 111.939750000005,
      "v": 88
    },
    {
      "midi": 53,
      "hit": false,
      "t": 128059.07399999995,
      "d": 292.6758046874893,
      "v": 58
    },
    {
      "midi": 64,
      "hit": false,
      "t": 128059.0740000003,
      "d": 202.89079687499907,
      "v": 123
    },
    {
      "midi": 62,
      "hit": false,
      "t": 128059.07400000047,
      "d": 111.939750000005,
      "v": 95
    },
    {
      "midi": 62,
      "hit": false,
      "t": 128059.07400000047,
      "d": 111.939750000005,
      "v": 95
    },
    {
      "midi": 57,
      "hit": false,
      "t": 128282.95349999995,
      "d": 459.4193906249857,
      "v": 72
    },
    {
      "midi": 60,
      "hit": false,
      "t": 128282.9535000003,
      "d": 80.45669531250314,
      "v": 92
    },
    {
      "midi": 62,
      "hit": false,
      "t": 128282.95350000048,
      "d": 223.87949999999546,
      "v": 95
    },
    {
      "midi": 62,
      "hit": false,
      "t": 128282.95350000048,
      "d": 223.87949999999546,
      "v": 95
    },
    {
      "midi": 38,
      "hit": false,
      "t": 128506.83299999994,
      "d": 291.50976562498545,
      "v": 85
    },
    {
      "midi": 57,
      "hit": false,
      "t": 128506.8330000003,
      "d": 60.63403124999604,
      "v": 92
    },
    {
      "midi": 64,
      "hit": false,
      "t": 128506.83300000048,
      "d": 223.87949999999546,
      "v": 103
    },
    {
      "midi": 64,
      "hit": false,
      "t": 128506.83300000048,
      "d": 223.87949999999546,
      "v": 103
    },
    {
      "midi": 53,
      "hit": false,
      "t": 128730.71249999994,
      "d": 166.7435859374964,
      "v": 85
    },
    {
      "midi": 53,
      "hit": false,
      "t": 128730.7125000003,
      "d": 60.63403124999604,
      "v": 112
    },
    {
      "midi": 65,
      "hit": false,
      "t": 128730.71250000047,
      "d": 111.939750000005,
      "v": 92
    },
    {
      "midi": 65,
      "hit": false,
      "t": 128730.71250000047,
      "d": 111.939750000005,
      "v": 92
    },
    {
      "midi": 34,
      "hit": false,
      "t": 128954.59199999992,
      "d": 1775.877492187501,
      "v": 124
    },
    {
      "midi": 46,
      "hit": false,
      "t": 128954.59199999993,
      "d": 563.1968671874929,
      "v": 83
    },
    {
      "midi": 69,
      "hit": false,
      "t": 128954.59200000048,
      "d": 111.939750000005,
      "v": 105
    },
    {
      "midi": 69,
      "hit": false,
      "t": 128954.59200000048,
      "d": 111.939750000005,
      "v": 105
    },
    {
      "midi": 53,
      "hit": false,
      "t": 129178.47149999993,
      "d": 229.70969531250012,
      "v": 79
    },
    {
      "midi": 57,
      "hit": false,
      "t": 129178.47150000029,
      "d": 60.63403124999604,
      "v": 115
    },
    {
      "midi": 69,
      "hit": false,
      "t": 129178.4715000005,
      "d": 111.939750000005,
      "v": 97
    },
    {
      "midi": 69,
      "hit": false,
      "t": 129178.4715000005,
      "d": 111.939750000005,
      "v": 97
    },
    {
      "midi": 58,
      "hit": false,
      "t": 129402.35099999992,
      "d": 187.73228906250733,
      "v": 75
    },
    {
      "midi": 65,
      "hit": false,
      "t": 129402.35100000029,
      "d": 242.53612499999872,
      "v": 109
    },
    {
      "midi": 46,
      "hit": false,
      "t": 129626.23049999993,
      "d": 459.4193906249857,
      "v": 64
    },
    {
      "midi": 57,
      "hit": false,
      "t": 129626.23050000028,
      "d": 80.45669531250314,
      "v": 105
    },
    {
      "midi": 53,
      "hit": false,
      "t": 129850.10999999993,
      "d": 228.54365624999627,
      "v": 82
    },
    {
      "midi": 64,
      "hit": false,
      "t": 129850.11000000029,
      "d": 222.71346093750617,
      "v": 123
    },
    {
      "midi": 58,
      "hit": false,
      "t": 130073.98949999992,
      "d": 208.72099218748917,
      "v": 73
    },
    {
      "midi": 60,
      "hit": false,
      "t": 130073.9895000003,
      "d": 80.45669531250314,
      "v": 91
    },
    {
      "midi": 46,
      "hit": false,
      "t": 130297.86899999992,
      "d": 333.4871718749928,
      "v": 87
    },
    {
      "midi": 57,
      "hit": false,
      "t": 130297.86900000031,
      "d": 60.63403124999604,
      "v": 94
    },
    {
      "midi": 58,
      "hit": false,
      "t": 130521.74849999991,
      "d": 124.76617968750361,
      "v": 83
    },
    {
      "midi": 53,
      "hit": false,
      "t": 130521.7485000003,
      "d": 40.81136718750349,
      "v": 109
    },
    {
      "midi": 62,
      "hit": false,
      "t": 130521.7485000005,
      "d": 111.939750000005,
      "v": 88
    },
    {
      "midi": 62,
      "hit": false,
      "t": 130521.7485000005,
      "d": 111.939750000005,
      "v": 88
    },
    {
      "midi": 38,
      "hit": false,
      "t": 130745.62799999992,
      "d": 1754.88878906249,
      "v": 120
    },
    {
      "midi": 38,
      "hit": false,
      "t": 130745.62799999992,
      "d": 438.43068750000384,
      "v": 88
    },
    {
      "midi": 62,
      "hit": false,
      "t": 130745.6280000005,
      "d": 111.939750000005,
      "v": 91
    },
    {
      "midi": 62,
      "hit": false,
      "t": 130745.6280000005,
      "d": 111.939750000005,
      "v": 91
    },
    {
      "midi": 53,
      "hit": false,
      "t": 130969.50749999992,
      "d": 228.54365624999627,
      "v": 67
    },
    {
      "midi": 57,
      "hit": false,
      "t": 130969.50750000031,
      "d": 80.45669531250314,
      "v": 101
    },
    {
      "midi": 62,
      "hit": false,
      "t": 130969.50750000052,
      "d": 111.939750000005,
      "v": 83
    },
    {
      "midi": 62,
      "hit": false,
      "t": 130969.50750000052,
      "d": 111.939750000005,
      "v": 83
    },
    {
      "midi": 57,
      "hit": false,
      "t": 131193.38699999993,
      "d": 229.70969531248556,
      "v": 72
    },
    {
      "midi": 65,
      "hit": false,
      "t": 131193.3870000003,
      "d": 222.71346093749162,
      "v": 107
    },
    {
      "midi": 62,
      "hit": false,
      "t": 131193.3870000005,
      "d": 111.93974999999045,
      "v": 91
    },
    {
      "midi": 62,
      "hit": false,
      "t": 131193.3870000005,
      "d": 111.93974999999045,
      "v": 91
    },
    {
      "midi": 38,
      "hit": false,
      "t": 131417.2664999999,
      "d": 396.4532812499965,
      "v": 77
    },
    {
      "midi": 57,
      "hit": false,
      "t": 131417.2665000003,
      "d": 121.26806249999208,
      "v": 103
    },
    {
      "midi": 62,
      "hit": false,
      "t": 131417.2665000005,
      "d": 223.87950000001,
      "v": 85
    },
    {
      "midi": 62,
      "hit": false,
      "t": 131417.2665000005,
      "d": 223.87950000001,
      "v": 85
    },
    {
      "midi": 53,
      "hit": false,
      "t": 131641.14599999992,
      "d": 292.6758046874893,
      "v": 72
    },
    {
      "midi": 64,
      "hit": false,
      "t": 131641.14600000027,
      "d": 223.87950000001,
      "v": 120
    },
    {
      "midi": 64,
      "hit": false,
      "t": 131641.1460000005,
      "d": 447.7589999999909,
      "v": 117
    },
    {
      "midi": 64,
      "hit": false,
      "t": 131641.1460000005,
      "d": 447.7589999999909,
      "v": 117
    },
    {
      "midi": 57,
      "hit": false,
      "t": 131865.0254999999,
      "d": 459.41939062502934,
      "v": 74
    },
    {
      "midi": 60,
      "hit": false,
      "t": 131865.02550000028,
      "d": 80.45669531248859,
      "v": 85
    },
    {
      "midi": 38,
      "hit": false,
      "t": 132088.9049999999,
      "d": 270.52106250001816,
      "v": 56
    },
    {
      "midi": 57,
      "hit": false,
      "t": 132088.90500000026,
      "d": 80.45669531248859,
      "v": 105
    },
    {
      "midi": 65,
      "hit": false,
      "t": 132088.9050000005,
      "d": 335.81925000000047,
      "v": 94
    },
    {
      "midi": 65,
      "hit": false,
      "t": 132088.9050000005,
      "d": 335.81925000000047,
      "v": 94
    },
    {
      "midi": 53,
      "hit": false,
      "t": 132312.78449999992,
      "d": 228.54365624999627,
      "v": 77
    },
    {
      "midi": 53,
      "hit": false,
      "t": 132312.78450000024,
      "d": 60.63403124999604,
      "v": 95
    },
    {
      "midi": 34,
      "hit": false,
      "t": 132536.6639999999,
      "d": 1754.8887890625047,
      "v": 124
    },
    {
      "midi": 46,
      "hit": false,
      "t": 132536.66399999993,
      "d": 480.4080937499821,
      "v": 72
    },
    {
      "midi": 69,
      "hit": false,
      "t": 132536.66400000048,
      "d": 335.81925000000047,
      "v": 105
    },
    {
      "midi": 69,
      "hit": false,
      "t": 132536.66400000048,
      "d": 335.81925000000047,
      "v": 105
    },
    {
      "midi": 53,
      "hit": false,
      "t": 132760.5434999999,
      "d": 208.72099218750373,
      "v": 79
    },
    {
      "midi": 57,
      "hit": false,
      "t": 132760.54350000023,
      "d": 80.45669531248859,
      "v": 99
    },
    {
      "midi": 58,
      "hit": false,
      "t": 132984.42299999992,
      "d": 250.6983984374674,
      "v": 70
    },
    {
      "midi": 65,
      "hit": false,
      "t": 132984.4230000002,
      "d": 202.89079687499907,
      "v": 103
    },
    {
      "midi": 70,
      "hit": false,
      "t": 132984.42300000048,
      "d": 111.93974999999045,
      "v": 114
    },
    {
      "midi": 70,
      "hit": false,
      "t": 132984.42300000048,
      "d": 111.93974999999045,
      "v": 114
    },
    {
      "midi": 46,
      "hit": false,
      "t": 133208.3024999999,
      "d": 438.4306874999893,
      "v": 83
    },
    {
      "midi": 57,
      "hit": false,
      "t": 133208.30250000022,
      "d": 101.44539843749953,
      "v": 109
    },
    {
      "midi": 69,
      "hit": false,
      "t": 133208.30250000046,
      "d": 335.81925000000047,
      "v": 101
    },
    {
      "midi": 69,
      "hit": false,
      "t": 133208.30250000046,
      "d": 335.81925000000047,
      "v": 101
    },
    {
      "midi": 53,
      "hit": false,
      "t": 133432.18199999988,
      "d": 249.53235937500722,
      "v": 77
    },
    {
      "midi": 64,
      "hit": false,
      "t": 133432.18200000023,
      "d": 202.89079687499907,
      "v": 120
    },
    {
      "midi": 58,
      "hit": false,
      "t": 133656.0614999999,
      "d": 396.4532812499965,
      "v": 68
    },
    {
      "midi": 60,
      "hit": false,
      "t": 133656.06150000024,
      "d": 101.44539843749953,
      "v": 79
    },
    {
      "midi": 46,
      "hit": false,
      "t": 133879.9409999999,
      "d": 271.68710156247835,
      "v": 69
    },
    {
      "midi": 57,
      "hit": false,
      "t": 133879.94100000025,
      "d": 60.63403124999604,
      "v": 92
    },
    {
      "midi": 53,
      "hit": false,
      "t": 134103.82049999989,
      "d": 228.54365624999627,
      "v": 79
    },
    {
      "midi": 53,
      "hit": false,
      "t": 134103.82050000026,
      "d": 60.63403124999604,
      "v": 107
    },
    {
      "midi": 69,
      "hit": false,
      "t": 134103.82050000047,
      "d": 223.87950000001,
      "v": 105
    },
    {
      "midi": 69,
      "hit": false,
      "t": 134103.82050000047,
      "d": 223.87950000001,
      "v": 105
    },
    {
      "midi": 38,
      "hit": false,
      "t": 134327.6999999999,
      "d": 1778.2095703124942,
      "v": 120
    },
    {
      "midi": 38,
      "hit": false,
      "t": 134327.6999999999,
      "d": 544.5402421874751,
      "v": 72
    },
    {
      "midi": 69,
      "hit": false,
      "t": 134327.70000000048,
      "d": 111.93974999999045,
      "v": 97
    },
    {
      "midi": 69,
      "hit": false,
      "t": 134327.70000000048,
      "d": 111.93974999999045,
      "v": 97
    },
    {
      "midi": 53,
      "hit": false,
      "t": 134551.57949999988,
      "d": 249.53235937500722,
      "v": 80
    },
    {
      "midi": 57,
      "hit": false,
      "t": 134551.57950000025,
      "d": 101.44539843749953,
      "v": 109
    },
    {
      "midi": 69,
      "hit": false,
      "t": 134551.57950000046,
      "d": 111.93974999999045,
      "v": 103
    },
    {
      "midi": 69,
      "hit": false,
      "t": 134551.57950000046,
      "d": 111.93974999999045,
      "v": 103
    },
    {
      "midi": 57,
      "hit": false,
      "t": 134775.4589999999,
      "d": 271.68710156247835,
      "v": 79
    },
    {
      "midi": 65,
      "hit": false,
      "t": 134775.45900000026,
      "d": 181.90209374998813,
      "v": 105
    },
    {
      "midi": 69,
      "hit": false,
      "t": 134775.45900000044,
      "d": 111.93974999999045,
      "v": 101
    },
    {
      "midi": 69,
      "hit": false,
      "t": 134775.45900000044,
      "d": 111.93974999999045,
      "v": 101
    },
    {
      "midi": 38,
      "hit": false,
      "t": 134999.33849999987,
      "d": 438.4306875000184,
      "v": 83
    },
    {
      "midi": 57,
      "hit": false,
      "t": 134999.33850000025,
      "d": 80.45669531248859,
      "v": 99
    },
    {
      "midi": 69,
      "hit": false,
      "t": 134999.33850000042,
      "d": 223.87950000001,
      "v": 97
    },
    {
      "midi": 69,
      "hit": false,
      "t": 134999.33850000042,
      "d": 223.87950000001,
      "v": 97
    },
    {
      "midi": 53,
      "hit": false,
      "t": 135223.21799999988,
      "d": 250.6983984374965,
      "v": 75
    },
    {
      "midi": 64,
      "hit": false,
      "t": 135223.21800000023,
      "d": 202.89079687499907,
      "v": 125
    },
    {
      "midi": 70,
      "hit": false,
      "t": 135223.21800000043,
      "d": 223.87950000001,
      "v": 95
    },
    {
      "midi": 70,
      "hit": false,
      "t": 135223.21800000043,
      "d": 223.87950000001,
      "v": 95
    },
    {
      "midi": 57,
      "hit": false,
      "t": 135447.0974999999,
      "d": 208.72099218747462,
      "v": 75
    },
    {
      "midi": 60,
      "hit": false,
      "t": 135447.09750000024,
      "d": 80.45669531248859,
      "v": 86
    },
    {
      "midi": 69,
      "hit": false,
      "t": 135447.09750000044,
      "d": 223.87950000001,
      "v": 99
    },
    {
      "midi": 69,
      "hit": false,
      "t": 135447.09750000044,
      "d": 223.87950000001,
      "v": 99
    },
    {
      "midi": 38,
      "hit": false,
      "t": 135670.97699999987,
      "d": 333.4871718750219,
      "v": 67
    },
    {
      "midi": 57,
      "hit": false,
      "t": 135670.97700000022,
      "d": 80.45669531248859,
      "v": 97
    },
    {
      "midi": 67,
      "hit": false,
      "t": 135670.97700000045,
      "d": 223.87950000001,
      "v": 91
    },
    {
      "midi": 67,
      "hit": false,
      "t": 135670.97700000045,
      "d": 223.87950000001,
      "v": 91
    },
    {
      "midi": 53,
      "hit": false,
      "t": 135894.85649999988,
      "d": 228.54365624999627,
      "v": 83
    },
    {
      "midi": 53,
      "hit": false,
      "t": 135894.8565000002,
      "d": 60.63403124999604,
      "v": 115
    },
    {
      "midi": 69,
      "hit": false,
      "t": 135894.85650000046,
      "d": 223.87950000001,
      "v": 94
    },
    {
      "midi": 69,
      "hit": false,
      "t": 135894.85650000046,
      "d": 223.87950000001,
      "v": 94
    },
    {
      "midi": 34,
      "hit": false,
      "t": 136118.7359999999,
      "d": 1753.7227499999863,
      "v": 127
    },
    {
      "midi": 46,
      "hit": false,
      "t": 136118.7359999999,
      "d": 459.41939062500023,
      "v": 75
    },
    {
      "midi": 67,
      "hit": false,
      "t": 136118.73600000047,
      "d": 223.87950000001,
      "v": 89
    },
    {
      "midi": 67,
      "hit": false,
      "t": 136118.73600000047,
      "d": 223.87950000001,
      "v": 89
    },
    {
      "midi": 53,
      "hit": false,
      "t": 136342.61549999987,
      "d": 208.72099218750373,
      "v": 74
    },
    {
      "midi": 57,
      "hit": false,
      "t": 136342.6155000002,
      "d": 80.45669531248859,
      "v": 109
    },
    {
      "midi": 65,
      "hit": false,
      "t": 136342.61550000048,
      "d": 223.87950000001,
      "v": 92
    },
    {
      "midi": 65,
      "hit": false,
      "t": 136342.61550000048,
      "d": 223.87950000001,
      "v": 92
    },
    {
      "midi": 58,
      "hit": false,
      "t": 136566.49499999988,
      "d": 396.4532812499965,
      "v": 70
    },
    {
      "midi": 65,
      "hit": false,
      "t": 136566.49500000017,
      "d": 181.90209374998813,
      "v": 95
    },
    {
      "midi": 46,
      "hit": false,
      "t": 136790.3744999999,
      "d": 354.4758749999746,
      "v": 70
    },
    {
      "midi": 57,
      "hit": false,
      "t": 136790.37450000015,
      "d": 121.26806249999208,
      "v": 105
    },
    {
      "midi": 53,
      "hit": false,
      "t": 137014.25399999987,
      "d": 270.52106249998906,
      "v": 60
    },
    {
      "midi": 64,
      "hit": false,
      "t": 137014.25400000013,
      "d": 181.90209374998813,
      "v": 117
    },
    {
      "midi": 58,
      "hit": false,
      "t": 137238.13349999985,
      "d": 480.4080937500112,
      "v": 72
    },
    {
      "midi": 60,
      "hit": false,
      "t": 137238.1335000001,
      "d": 80.45669531248859,
      "v": 99
    },
    {
      "midi": 46,
      "hit": false,
      "t": 137462.01299999986,
      "d": 229.70969531251467,
      "v": 83
    },
    {
      "midi": 57,
      "hit": false,
      "t": 137462.0130000001,
      "d": 121.26806249999208,
      "v": 99
    },
    {
      "midi": 53,
      "hit": false,
      "t": 137685.89249999987,
      "d": 124.76617968748906,
      "v": 80
    },
    {
      "midi": 53,
      "hit": false,
      "t": 137685.89250000007,
      "d": 101.44539843749953,
      "v": 105
    },
    {
      "midi": 60,
      "hit": false,
      "t": 137909.77199999985,
      "d": 1441.2242812500044,
      "v": 91
    },
    {
      "midi": 55,
      "hit": false,
      "t": 137909.77199999985,
      "d": 3301.0565859375056,
      "v": 75
    },
    {
      "midi": 43,
      "hit": false,
      "t": 137909.77199999985,
      "d": 3320.879249999998,
      "v": 86
    },
    {
      "midi": 43,
      "hit": false,
      "t": 137909.77199999988,
      "d": 1775.8774921874865,
      "v": 123
    },
    {
      "midi": 72,
      "hit": false,
      "t": 137909.7719999999,
      "d": 1745.560476562503,
      "v": 127
    },
    {
      "midi": 74,
      "hit": false,
      "t": 137909.7719999999,
      "d": 1745.560476562503,
      "v": 120
    },
    {
      "midi": 79,
      "hit": false,
      "t": 137909.7719999999,
      "d": 1745.560476562503,
      "v": 123
    },
    {
      "midi": 60,
      "hit": false,
      "t": 137909.77200000008,
      "d": 1563.6583828124858,
      "v": 115
    },
    {
      "midi": 67,
      "hit": false,
      "t": 137909.7720000005,
      "d": 335.81925000000047,
      "v": 115
    },
    {
      "midi": 67,
      "hit": false,
      "t": 137909.7720000005,
      "d": 335.81925000000047,
      "v": 115
    },
    {
      "midi": 67,
      "hit": false,
      "t": 138357.53100000048,
      "d": 111.93974999999045,
      "v": 101
    },
    {
      "midi": 67,
      "hit": false,
      "t": 138357.53100000048,
      "d": 111.93974999999045,
      "v": 101
    },
    {
      "midi": 67,
      "hit": false,
      "t": 138581.41050000046,
      "d": 111.93974999999045,
      "v": 103
    },
    {
      "midi": 67,
      "hit": false,
      "t": 138581.41050000046,
      "d": 111.93974999999045,
      "v": 103
    },
    {
      "midi": 67,
      "hit": false,
      "t": 138805.29000000044,
      "d": 111.93974999999045,
      "v": 105
    },
    {
      "midi": 67,
      "hit": false,
      "t": 138805.29000000044,
      "d": 111.93974999999045,
      "v": 105
    },
    {
      "midi": 67,
      "hit": false,
      "t": 139029.16950000043,
      "d": 111.93974999999045,
      "v": 103
    },
    {
      "midi": 67,
      "hit": false,
      "t": 139029.16950000043,
      "d": 111.93974999999045,
      "v": 103
    },
    {
      "midi": 67,
      "hit": false,
      "t": 139253.0490000004,
      "d": 223.87950000001,
      "v": 112
    },
    {
      "midi": 67,
      "hit": false,
      "t": 139253.0490000004,
      "d": 223.87950000001,
      "v": 112
    },
    {
      "midi": 69,
      "hit": false,
      "t": 139476.92850000042,
      "d": 111.93974999999045,
      "v": 101
    },
    {
      "midi": 69,
      "hit": false,
      "t": 139476.92850000042,
      "d": 111.93974999999045,
      "v": 101
    },
    {
      "midi": 62,
      "hit": false,
      "t": 139495.58512500007,
      "d": 181.90209374998813,
      "v": 74
    },
    {
      "midi": 60,
      "hit": false,
      "t": 139607.52487500006,
      "d": 121.26806249999208,
      "v": 101
    },
    {
      "midi": 59,
      "hit": false,
      "t": 139700.80799999984,
      "d": 1525.179093750019,
      "v": 88
    },
    {
      "midi": 47,
      "hit": false,
      "t": 139700.80799999987,
      "d": 1630.1226093749865,
      "v": 107
    },
    {
      "midi": 71,
      "hit": false,
      "t": 139700.8079999999,
      "d": 1521.680976562493,
      "v": 117
    },
    {
      "midi": 74,
      "hit": false,
      "t": 139700.8079999999,
      "d": 1562.4923437499965,
      "v": 117
    },
    {
      "midi": 79,
      "hit": false,
      "t": 139700.8079999999,
      "d": 1562.4923437499965,
      "v": 117
    },
    {
      "midi": 59,
      "hit": false,
      "t": 139700.80800000005,
      "d": 1562.4923437499965,
      "v": 117
    },
    {
      "midi": 69,
      "hit": false,
      "t": 139700.8080000004,
      "d": 223.87950000001,
      "v": 107
    },
    {
      "midi": 69,
      "hit": false,
      "t": 139700.8080000004,
      "d": 223.87950000001,
      "v": 107
    },
    {
      "midi": 67,
      "hit": false,
      "t": 139924.6875000004,
      "d": 223.87950000001,
      "v": 109
    },
    {
      "midi": 67,
      "hit": false,
      "t": 139924.6875000004,
      "d": 223.87950000001,
      "v": 109
    },
    {
      "midi": 69,
      "hit": false,
      "t": 141267.9645000004,
      "d": 111.93974999999045,
      "v": 109
    },
    {
      "midi": 69,
      "hit": false,
      "t": 141267.9645000004,
      "d": 111.93974999999045,
      "v": 109
    },
    {
      "midi": 38,
      "hit": false,
      "t": 141491.84399999984,
      "d": 542.2081640624965,
      "v": 91
    },
    {
      "midi": 38,
      "hit": false,
      "t": 141491.84399999987,
      "d": 1795.700156249979,
      "v": 123
    },
    {
      "midi": 77,
      "hit": false,
      "t": 141491.8439999999,
      "d": 181.90209374998813,
      "v": 123
    },
    {
      "midi": 74,
      "hit": false,
      "t": 141491.8439999999,
      "d": 202.89079687499907,
      "v": 109
    },
    {
      "midi": 81,
      "hit": false,
      "t": 141491.8439999999,
      "d": 202.89079687499907,
      "v": 125
    },
    {
      "midi": 69,
      "hit": false,
      "t": 141491.8440000004,
      "d": 335.81925000000047,
      "v": 105
    },
    {
      "midi": 69,
      "hit": false,
      "t": 141491.8440000004,
      "d": 335.81925000000047,
      "v": 105
    },
    {
      "midi": 53,
      "hit": false,
      "t": 141715.72349999985,
      "d": 228.54365624999627,
      "v": 65
    },
    {
      "midi": 77,
      "hit": false,
      "t": 141715.7234999999,
      "d": 60.63403124999604,
      "v": 115
    },
    {
      "midi": 74,
      "hit": false,
      "t": 141715.7234999999,
      "d": 80.45669531248859,
      "v": 95
    },
    {
      "midi": 81,
      "hit": false,
      "t": 141715.7234999999,
      "d": 80.45669531248859,
      "v": 117
    },
    {
      "midi": 57,
      "hit": false,
      "t": 141715.72350000005,
      "d": 60.63403124999604,
      "v": 112
    },
    {
      "midi": 57,
      "hit": false,
      "t": 141939.60299999986,
      "d": 417.44198437497835,
      "v": 83
    },
    {
      "midi": 65,
      "hit": false,
      "t": 141939.60300000006,
      "d": 201.72475781250978,
      "v": 107
    },
    {
      "midi": 69,
      "hit": false,
      "t": 141939.60300000038,
      "d": 335.81925000000047,
      "v": 109
    },
    {
      "midi": 69,
      "hit": false,
      "t": 141939.60300000038,
      "d": 335.81925000000047,
      "v": 109
    },
    {
      "midi": 38,
      "hit": false,
      "t": 142163.48249999984,
      "d": 522.3855000000331,
      "v": 82
    },
    {
      "midi": 81,
      "hit": false,
      "t": 142163.4824999999,
      "d": 60.63403124999604,
      "v": 127
    },
    {
      "midi": 74,
      "hit": false,
      "t": 142163.4824999999,
      "d": 81.62273437500698,
      "v": 97
    },
    {
      "midi": 77,
      "hit": false,
      "t": 142163.4824999999,
      "d": 81.62273437500698,
      "v": 123
    },
    {
      "midi": 57,
      "hit": false,
      "t": 142163.48250000007,
      "d": 80.45669531248859,
      "v": 107
    },
    {
      "midi": 53,
      "hit": false,
      "t": 142387.36199999985,
      "d": 292.6758046875184,
      "v": 58
    },
    {
      "midi": 64,
      "hit": false,
      "t": 142387.36200000005,
      "d": 222.71346093749162,
      "v": 120
    },
    {
      "midi": 57,
      "hit": false,
      "t": 142611.24149999986,
      "d": 459.41939062502934,
      "v": 72
    },
    {
      "midi": 74,
      "hit": false,
      "t": 142611.24149999992,
      "d": 60.63403124999604,
      "v": 97
    },
    {
      "midi": 77,
      "hit": false,
      "t": 142611.24149999992,
      "d": 60.63403124999604,
      "v": 123
    },
    {
      "midi": 81,
      "hit": false,
      "t": 142611.24149999992,
      "d": 80.45669531248859,
      "v": 120
    },
    {
      "midi": 60,
      "hit": false,
      "t": 142611.24150000003,
      "d": 80.45669531248859,
      "v": 97
    },
    {
      "midi": 69,
      "hit": false,
      "t": 142611.24150000038,
      "d": 335.81925000000047,
      "v": 105
    },
    {
      "midi": 69,
      "hit": false,
      "t": 142611.24150000038,
      "d": 335.81925000000047,
      "v": 105
    },
    {
      "midi": 38,
      "hit": false,
      "t": 142835.12099999987,
      "d": 291.5097656250291,
      "v": 85
    },
    {
      "midi": 57,
      "hit": false,
      "t": 142835.121,
      "d": 80.45669531248859,
      "v": 103
    },
    {
      "midi": 53,
      "hit": false,
      "t": 143059.00049999988,
      "d": 166.74358593751094,
      "v": 85
    },
    {
      "midi": 74,
      "hit": false,
      "t": 143059.0004999999,
      "d": 60.63403124999604,
      "v": 95
    },
    {
      "midi": 77,
      "hit": false,
      "t": 143059.0004999999,
      "d": 60.63403124999604,
      "v": 125
    },
    {
      "midi": 81,
      "hit": false,
      "t": 143059.0004999999,
      "d": 60.63403124999604,
      "v": 117
    },
    {
      "midi": 53,
      "hit": false,
      "t": 143059.0005,
      "d": 60.63403124999604,
      "v": 115
    },
    {
      "midi": 69,
      "hit": false,
      "t": 143059.00050000037,
      "d": 223.87950000001,
      "v": 105
    },
    {
      "midi": 69,
      "hit": false,
      "t": 143059.00050000037,
      "d": 223.87950000001,
      "v": 105
    },
    {
      "midi": 34,
      "hit": false,
      "t": 143282.87999999986,
      "d": 1775.8774921874865,
      "v": 124
    },
    {
      "midi": 46,
      "hit": false,
      "t": 143282.8799999999,
      "d": 563.1968671875366,
      "v": 83
    },
    {
      "midi": 77,
      "hit": false,
      "t": 143282.87999999992,
      "d": 202.89079687499907,
      "v": 120
    },
    {
      "midi": 82,
      "hit": false,
      "t": 143282.87999999992,
      "d": 202.89079687499907,
      "v": 127
    },
    {
      "midi": 74,
      "hit": false,
      "t": 143282.87999999992,
      "d": 223.87950000001,
      "v": 86
    },
    {
      "midi": 70,
      "hit": false,
      "t": 143282.88000000038,
      "d": 223.87950000001,
      "v": 100
    },
    {
      "midi": 70,
      "hit": false,
      "t": 143282.88000000038,
      "d": 223.87950000001,
      "v": 100
    },
    {
      "midi": 53,
      "hit": false,
      "t": 143506.7594999999,
      "d": 229.70969531251467,
      "v": 79
    },
    {
      "midi": 77,
      "hit": false,
      "t": 143506.75949999993,
      "d": 80.45669531248859,
      "v": 117
    },
    {
      "midi": 74,
      "hit": false,
      "t": 143506.75949999993,
      "d": 101.44539843749953,
      "v": 72
    },
    {
      "midi": 82,
      "hit": false,
      "t": 143506.75949999993,
      "d": 101.44539843749953,
      "v": 124
    },
    {
      "midi": 57,
      "hit": false,
      "t": 143506.7595,
      "d": 101.44539843749953,
      "v": 105
    },
    {
      "midi": 72,
      "hit": false,
      "t": 143506.7595000004,
      "d": 111.93974999999045,
      "v": 101
    },
    {
      "midi": 72,
      "hit": false,
      "t": 143506.7595000004,
      "d": 111.93974999999045,
      "v": 101
    },
    {
      "midi": 58,
      "hit": false,
      "t": 143730.6389999999,
      "d": 187.7322890625219,
      "v": 75
    },
    {
      "midi": 65,
      "hit": false,
      "t": 143730.639,
      "d": 202.89079687499907,
      "v": 112
    },
    {
      "midi": 72,
      "hit": false,
      "t": 143730.63900000037,
      "d": 223.87950000001,
      "v": 103
    },
    {
      "midi": 72,
      "hit": false,
      "t": 143730.63900000037,
      "d": 223.87950000001,
      "v": 103
    },
    {
      "midi": 46,
      "hit": false,
      "t": 143954.51849999992,
      "d": 459.41939062500023,
      "v": 64
    },
    {
      "midi": 74,
      "hit": false,
      "t": 143954.51849999992,
      "d": 60.63403124999604,
      "v": 97
    },
    {
      "midi": 77,
      "hit": false,
      "t": 143954.51849999992,
      "d": 60.63403124999604,
      "v": 125
    },
    {
      "midi": 82,
      "hit": false,
      "t": 143954.51849999992,
      "d": 60.63403124999604,
      "v": 127
    },
    {
      "midi": 57,
      "hit": false,
      "t": 143954.5185,
      "d": 100.27935937501024,
      "v": 99
    },
    {
      "midi": 70,
      "hit": false,
      "t": 143954.51850000038,
      "d": 111.93974999999045,
      "v": 107
    },
    {
      "midi": 70,
      "hit": false,
      "t": 143954.51850000038,
      "d": 111.93974999999045,
      "v": 107
    },
    {
      "midi": 53,
      "hit": false,
      "t": 144178.39799999993,
      "d": 228.54365624999627,
      "v": 82
    },
    {
      "midi": 64,
      "hit": false,
      "t": 144178.39800000002,
      "d": 201.72475781250978,
      "v": 123
    },
    {
      "midi": 70,
      "hit": false,
      "t": 144178.39800000036,
      "d": 335.81925000000047,
      "v": 95
    },
    {
      "midi": 70,
      "hit": false,
      "t": 144178.39800000036,
      "d": 335.81925000000047,
      "v": 95
    },
    {
      "midi": 74,
      "hit": false,
      "t": 144402.2774999999,
      "d": 60.63403124999604,
      "v": 97
    },
    {
      "midi": 77,
      "hit": false,
      "t": 144402.2774999999,
      "d": 60.63403124999604,
      "v": 120
    },
    {
      "midi": 82,
      "hit": false,
      "t": 144402.2774999999,
      "d": 80.45669531248859,
      "v": 127
    },
    {
      "midi": 58,
      "hit": false,
      "t": 144402.27749999994,
      "d": 208.72099218747462,
      "v": 73
    },
    {
      "midi": 60,
      "hit": false,
      "t": 144402.27750000003,
      "d": 81.62273437500698,
      "v": 83
    },
    {
      "midi": 46,
      "hit": false,
      "t": 144626.15699999992,
      "d": 333.4871718750219,
      "v": 87
    },
    {
      "midi": 57,
      "hit": false,
      "t": 144626.15700000004,
      "d": 60.63403124999604,
      "v": 107
    },
    {
      "midi": 74,
      "hit": false,
      "t": 144850.0364999999,
      "d": 60.63403124999604,
      "v": 92
    },
    {
      "midi": 77,
      "hit": false,
      "t": 144850.0364999999,
      "d": 60.63403124999604,
      "v": 117
    },
    {
      "midi": 82,
      "hit": false,
      "t": 144850.0364999999,
      "d": 81.62273437500698,
      "v": 121
    },
    {
      "midi": 58,
      "hit": false,
      "t": 144850.03649999993,
      "d": 124.76617968751816,
      "v": 83
    },
    {
      "midi": 53,
      "hit": false,
      "t": 144850.03650000005,
      "d": 60.63403124999604,
      "v": 109
    },
    {
      "midi": 38,
      "hit": false,
      "t": 145073.91599999985,
      "d": 1754.8887890625047,
      "v": 120
    },
    {
      "midi": 74,
      "hit": false,
      "t": 145073.9159999999,
      "d": 141.09072656251374,
      "v": 103
    },
    {
      "midi": 77,
      "hit": false,
      "t": 145073.9159999999,
      "d": 162.07942968752468,
      "v": 123
    },
    {
      "midi": 81,
      "hit": false,
      "t": 145073.9159999999,
      "d": 181.90209375001723,
      "v": 117
    },
    {
      "midi": 38,
      "hit": false,
      "t": 145073.91599999994,
      "d": 438.4306875000184,
      "v": 88
    },
    {
      "midi": 69,
      "hit": false,
      "t": 145073.91600000038,
      "d": 335.81925000000047,
      "v": 115
    },
    {
      "midi": 69,
      "hit": false,
      "t": 145073.91600000038,
      "d": 335.81925000000047,
      "v": 115
    },
    {
      "midi": 74,
      "hit": false,
      "t": 145297.79549999992,
      "d": 80.45669531248859,
      "v": 85
    },
    {
      "midi": 77,
      "hit": false,
      "t": 145297.79549999992,
      "d": 80.45669531248859,
      "v": 107
    },
    {
      "midi": 81,
      "hit": false,
      "t": 145297.79549999992,
      "d": 101.44539843749953,
      "v": 105
    },
    {
      "midi": 53,
      "hit": false,
      "t": 145297.79549999995,
      "d": 228.54365624999627,
      "v": 67
    },
    {
      "midi": 57,
      "hit": false,
      "t": 145297.79550000004,
      "d": 101.44539843749953,
      "v": 117
    },
    {
      "midi": 57,
      "hit": false,
      "t": 145521.67499999996,
      "d": 229.70969531248556,
      "v": 72
    },
    {
      "midi": 65,
      "hit": false,
      "t": 145521.67500000005,
      "d": 201.72475781250978,
      "v": 103
    },
    {
      "midi": 69,
      "hit": false,
      "t": 145521.67500000037,
      "d": 111.93974999999045,
      "v": 97
    },
    {
      "midi": 69,
      "hit": false,
      "t": 145521.67500000037,
      "d": 111.93974999999045,
      "v": 97
    },
    {
      "midi": 74,
      "hit": false,
      "t": 145745.5544999999,
      "d": 60.63403124999604,
      "v": 101
    },
    {
      "midi": 77,
      "hit": false,
      "t": 145745.5544999999,
      "d": 60.63403124999604,
      "v": 127
    },
    {
      "midi": 81,
      "hit": false,
      "t": 145745.5544999999,
      "d": 60.63403124999604,
      "v": 117
    },
    {
      "midi": 38,
      "hit": false,
      "t": 145745.55449999994,
      "d": 396.4532812499965,
      "v": 77
    },
    {
      "midi": 57,
      "hit": false,
      "t": 145745.55450000006,
      "d": 102.61143749998882,
      "v": 101
    },
    {
      "midi": 69,
      "hit": false,
      "t": 145745.55450000035,
      "d": 111.93974999999045,
      "v": 97
    },
    {
      "midi": 69,
      "hit": false,
      "t": 145745.55450000035,
      "d": 111.93974999999045,
      "v": 97
    },
    {
      "midi": 53,
      "hit": false,
      "t": 145969.43399999995,
      "d": 292.6758046874893,
      "v": 72
    },
    {
      "midi": 64,
      "hit": false,
      "t": 145969.43400000004,
      "d": 181.90209374998813,
      "v": 125
    },
    {
      "midi": 69,
      "hit": false,
      "t": 145969.43400000033,
      "d": 223.87950000001,
      "v": 103
    },
    {
      "midi": 69,
      "hit": false,
      "t": 145969.43400000033,
      "d": 223.87950000001,
      "v": 103
    },
    {
      "midi": 74,
      "hit": false,
      "t": 146193.3134999999,
      "d": 60.63403124999604,
      "v": 97
    },
    {
      "midi": 77,
      "hit": false,
      "t": 146193.3134999999,
      "d": 60.63403124999604,
      "v": 123
    },
    {
      "midi": 81,
      "hit": false,
      "t": 146193.3134999999,
      "d": 80.45669531248859,
      "v": 120
    },
    {
      "midi": 57,
      "hit": false,
      "t": 146193.31349999993,
      "d": 459.41939062502934,
      "v": 74
    },
    {
      "midi": 60,
      "hit": false,
      "t": 146193.31350000002,
      "d": 80.45669531248859,
      "v": 95
    },
    {
      "midi": 69,
      "hit": false,
      "t": 146193.31350000034,
      "d": 111.93974999999045,
      "v": 101
    },
    {
      "midi": 69,
      "hit": false,
      "t": 146193.31350000034,
      "d": 111.93974999999045,
      "v": 101
    },
    {
      "midi": 38,
      "hit": false,
      "t": 146417.19299999994,
      "d": 270.52106250001816,
      "v": 56
    },
    {
      "midi": 57,
      "hit": false,
      "t": 146417.193,
      "d": 60.63403124999604,
      "v": 109
    },
    {
      "midi": 69,
      "hit": false,
      "t": 146417.19300000032,
      "d": 223.87950000001,
      "v": 92
    },
    {
      "midi": 69,
      "hit": false,
      "t": 146417.19300000032,
      "d": 223.87950000001,
      "v": 92
    },
    {
      "midi": 74,
      "hit": false,
      "t": 146641.0724999999,
      "d": 60.63403124999604,
      "v": 97
    },
    {
      "midi": 77,
      "hit": false,
      "t": 146641.0724999999,
      "d": 60.63403124999604,
      "v": 117
    },
    {
      "midi": 81,
      "hit": false,
      "t": 146641.0724999999,
      "d": 60.63403124999604,
      "v": 117
    },
    {
      "midi": 53,
      "hit": false,
      "t": 146641.07249999995,
      "d": 228.54365624999627,
      "v": 77
    },
    {
      "midi": 53,
      "hit": false,
      "t": 146641.0725,
      "d": 60.63403124999604,
      "v": 112
    },
    {
      "midi": 70,
      "hit": false,
      "t": 146641.07250000033,
      "d": 447.7589999999909,
      "v": 114
    },
    {
      "midi": 70,
      "hit": false,
      "t": 146641.07250000033,
      "d": 447.7589999999909,
      "v": 114
    },
    {
      "midi": 34,
      "hit": false,
      "t": 146864.95199999984,
      "d": 1754.8887890625047,
      "v": 124
    },
    {
      "midi": 82,
      "hit": false,
      "t": 146864.9519999999,
      "d": 162.07942968749558,
      "v": 127
    },
    {
      "midi": 74,
      "hit": false,
      "t": 146864.9519999999,
      "d": 183.06813281250652,
      "v": 95
    },
    {
      "midi": 77,
      "hit": false,
      "t": 146864.9519999999,
      "d": 183.06813281250652,
      "v": 120
    },
    {
      "midi": 46,
      "hit": false,
      "t": 146864.95199999996,
      "d": 480.4080937499821,
      "v": 72
    },
    {
      "midi": 74,
      "hit": false,
      "t": 147088.8314999999,
      "d": 60.63403124999604,
      "v": 85
    },
    {
      "midi": 77,
      "hit": false,
      "t": 147088.8314999999,
      "d": 80.45669531248859,
      "v": 109
    },
    {
      "midi": 82,
      "hit": false,
      "t": 147088.8314999999,
      "d": 80.45669531248859,
      "v": 127
    },
    {
      "midi": 53,
      "hit": false,
      "t": 147088.83149999994,
      "d": 208.72099218750373,
      "v": 79
    },
    {
      "midi": 57,
      "hit": false,
      "t": 147088.8315,
      "d": 80.45669531248859,
      "v": 117
    },
    {
      "midi": 65,
      "hit": false,
      "t": 147088.83150000032,
      "d": 111.93974999999045,
      "v": 101
    },
    {
      "midi": 65,
      "hit": false,
      "t": 147088.83150000032,
      "d": 111.93974999999045,
      "v": 101
    },
    {
      "midi": 58,
      "hit": false,
      "t": 147312.71099999995,
      "d": 250.6983984374674,
      "v": 70
    },
    {
      "midi": 65,
      "hit": false,
      "t": 147312.71099999998,
      "d": 202.89079687499907,
      "v": 101
    },
    {
      "midi": 65,
      "hit": false,
      "t": 147312.7110000003,
      "d": 223.87950000001,
      "v": 99
    },
    {
      "midi": 65,
      "hit": false,
      "t": 147312.7110000003,
      "d": 223.87950000001,
      "v": 99
    },
    {
      "midi": 74,
      "hit": false,
      "t": 147536.5904999999,
      "d": 60.63403124999604,
      "v": 101
    },
    {
      "midi": 77,
      "hit": false,
      "t": 147536.5904999999,
      "d": 60.63403124999604,
      "v": 123
    },
    {
      "midi": 82,
      "hit": false,
      "t": 147536.5904999999,
      "d": 60.63403124999604,
      "v": 127
    },
    {
      "midi": 46,
      "hit": false,
      "t": 147536.59049999993,
      "d": 438.4306874999893,
      "v": 83
    },
    {
      "midi": 57,
      "hit": false,
      "t": 147536.5905,
      "d": 100.27935937501024,
      "v": 107
    },
    {
      "midi": 67,
      "hit": false,
      "t": 147536.5905000003,
      "d": 223.87950000001,
      "v": 97
    },
    {
      "midi": 67,
      "hit": false,
      "t": 147536.5905000003,
      "d": 223.87950000001,
      "v": 97
    },
    {
      "midi": 53,
      "hit": false,
      "t": 147760.4699999999,
      "d": 249.53235937500722,
      "v": 77
    },
    {
      "midi": 64,
      "hit": false,
      "t": 147760.47,
      "d": 201.72475781250978,
      "v": 107
    },
    {
      "midi": 65,
      "hit": false,
      "t": 147760.47000000032,
      "d": 335.81925000000047,
      "v": 112
    },
    {
      "midi": 65,
      "hit": false,
      "t": 147760.47000000032,
      "d": 335.81925000000047,
      "v": 112
    },
    {
      "midi": 74,
      "hit": false,
      "t": 147984.3494999999,
      "d": 40.81136718750349,
      "v": 91
    },
    {
      "midi": 77,
      "hit": false,
      "t": 147984.3494999999,
      "d": 40.81136718750349,
      "v": 120
    },
    {
      "midi": 82,
      "hit": false,
      "t": 147984.3494999999,
      "d": 80.4566953125177,
      "v": 127
    },
    {
      "midi": 58,
      "hit": false,
      "t": 147984.34949999992,
      "d": 396.4532812499965,
      "v": 68
    },
    {
      "midi": 60,
      "hit": false,
      "t": 147984.3495,
      "d": 102.61143749998882,
      "v": 92
    },
    {
      "midi": 46,
      "hit": false,
      "t": 148208.22899999993,
      "d": 271.68710156247835,
      "v": 69
    },
    {
      "midi": 57,
      "hit": false,
      "t": 148208.229,
      "d": 80.45669531248859,
      "v": 99
    },
    {
      "midi": 53,
      "hit": false,
      "t": 148432.10849999991,
      "d": 228.54365624999627,
      "v": 79
    },
    {
      "midi": 77,
      "hit": false,
      "t": 148432.10849999991,
      "d": 40.81136718750349,
      "v": 117
    },
    {
      "midi": 74,
      "hit": false,
      "t": 148432.10849999991,
      "d": 60.63403124999604,
      "v": 99
    },
    {
      "midi": 82,
      "hit": false,
      "t": 148432.10849999991,
      "d": 60.63403124999604,
      "v": 121
    },
    {
      "midi": 53,
      "hit": false,
      "t": 148432.10849999997,
      "d": 80.45669531248859,
      "v": 109
    },
    {
      "midi": 69,
      "hit": false,
      "t": 148432.10850000032,
      "d": 111.93974999999045,
      "v": 101
    },
    {
      "midi": 69,
      "hit": false,
      "t": 148432.10850000032,
      "d": 111.93974999999045,
      "v": 101
    },
    {
      "midi": 38,
      "hit": false,
      "t": 148655.98799999984,
      "d": 1778.2095703124942,
      "v": 120
    },
    {
      "midi": 38,
      "hit": false,
      "t": 148655.98799999992,
      "d": 544.5402421874751,
      "v": 72
    },
    {
      "midi": 74,
      "hit": false,
      "t": 148655.98799999992,
      "d": 162.07942968749558,
      "v": 97
    },
    {
      "midi": 77,
      "hit": false,
      "t": 148655.98799999992,
      "d": 162.07942968749558,
      "v": 120
    },
    {
      "midi": 81,
      "hit": false,
      "t": 148655.98799999992,
      "d": 162.07942968749558,
      "v": 120
    },
    {
      "midi": 69,
      "hit": false,
      "t": 148655.9880000003,
      "d": 223.87950000001,
      "v": 95
    },
    {
      "midi": 69,
      "hit": false,
      "t": 148655.9880000003,
      "d": 223.87950000001,
      "v": 95
    },
    {
      "midi": 53,
      "hit": false,
      "t": 148879.8674999999,
      "d": 249.53235937500722,
      "v": 80
    },
    {
      "midi": 74,
      "hit": false,
      "t": 148879.86749999993,
      "d": 80.45669531248859,
      "v": 86
    },
    {
      "midi": 77,
      "hit": false,
      "t": 148879.86749999993,
      "d": 80.45669531248859,
      "v": 120
    },
    {
      "midi": 81,
      "hit": false,
      "t": 148879.86749999993,
      "d": 80.45669531248859,
      "v": 120
    },
    {
      "midi": 57,
      "hit": false,
      "t": 148879.86749999996,
      "d": 100.27935937501024,
      "v": 112
    },
    {
      "midi": 57,
      "hit": false,
      "t": 149103.74699999992,
      "d": 271.68710156247835,
      "v": 79
    },
    {
      "midi": 65,
      "hit": false,
      "t": 149103.74699999997,
      "d": 223.87950000001,
      "v": 107
    },
    {
      "midi": 69,
      "hit": false,
      "t": 149103.74700000032,
      "d": 335.81925000000047,
      "v": 95
    },
    {
      "midi": 69,
      "hit": false,
      "t": 149103.74700000032,
      "d": 335.81925000000047,
      "v": 95
    },
    {
      "midi": 38,
      "hit": false,
      "t": 149327.6264999999,
      "d": 438.4306875000184,
      "v": 83
    },
    {
      "midi": 77,
      "hit": false,
      "t": 149327.62649999993,
      "d": 60.63403124999604,
      "v": 123
    },
    {
      "midi": 74,
      "hit": false,
      "t": 149327.62649999993,
      "d": 82.78877343749627,
      "v": 103
    },
    {
      "midi": 81,
      "hit": false,
      "t": 149327.62649999993,
      "d": 82.78877343749627,
      "v": 123
    },
    {
      "midi": 57,
      "hit": false,
      "t": 149327.62649999998,
      "d": 80.45669531248859,
      "v": 101
    },
    {
      "midi": 53,
      "hit": false,
      "t": 149551.5059999999,
      "d": 250.6983984374965,
      "v": 75
    },
    {
      "midi": 64,
      "hit": false,
      "t": 149551.50599999996,
      "d": 181.90209374998813,
      "v": 123
    },
    {
      "midi": 57,
      "hit": false,
      "t": 149775.38549999992,
      "d": 208.72099218747462,
      "v": 75
    },
    {
      "midi": 74,
      "hit": false,
      "t": 149775.38549999992,
      "d": 60.63403124999604,
      "v": 99
    },
    {
      "midi": 77,
      "hit": false,
      "t": 149775.38549999992,
      "d": 60.63403124999604,
      "v": 120
    },
    {
      "midi": 81,
      "hit": false,
      "t": 149775.38549999992,
      "d": 80.45669531248859,
      "v": 125
    },
    {
      "midi": 60,
      "hit": false,
      "t": 149775.38549999995,
      "d": 80.45669531248859,
      "v": 97
    },
    {
      "midi": 69,
      "hit": false,
      "t": 149775.38550000032,
      "d": 223.87950000001,
      "v": 105
    },
    {
      "midi": 69,
      "hit": false,
      "t": 149775.38550000032,
      "d": 223.87950000001,
      "v": 105
    },
    {
      "midi": 38,
      "hit": false,
      "t": 149999.2649999999,
      "d": 333.4871718750219,
      "v": 67
    },
    {
      "midi": 57,
      "hit": false,
      "t": 149999.26499999993,
      "d": 80.45669531248859,
      "v": 88
    },
    {
      "midi": 53,
      "hit": false,
      "t": 150223.1444999999,
      "d": 228.54365624999627,
      "v": 83
    },
    {
      "midi": 53,
      "hit": false,
      "t": 150223.1444999999,
      "d": 60.63403124999604,
      "v": 115
    },
    {
      "midi": 77,
      "hit": false,
      "t": 150223.1444999999,
      "d": 60.63403124999604,
      "v": 107
    },
    {
      "midi": 74,
      "hit": false,
      "t": 150223.1444999999,
      "d": 80.45669531248859,
      "v": 80
    },
    {
      "midi": 81,
      "hit": false,
      "t": 150223.1444999999,
      "d": 80.45669531248859,
      "v": 109
    },
    {
      "midi": 69,
      "hit": false,
      "t": 150223.14450000034,
      "d": 111.93974999999045,
      "v": 105
    },
    {
      "midi": 69,
      "hit": false,
      "t": 150223.14450000034,
      "d": 111.93974999999045,
      "v": 105
    },
    {
      "midi": 34,
      "hit": false,
      "t": 150447.02399999983,
      "d": 1753.7227499999863,
      "v": 127
    },
    {
      "midi": 74,
      "hit": false,
      "t": 150447.0239999999,
      "d": 181.90209374998813,
      "v": 94
    },
    {
      "midi": 77,
      "hit": false,
      "t": 150447.0239999999,
      "d": 181.90209374998813,
      "v": 120
    },
    {
      "midi": 82,
      "hit": false,
      "t": 150447.0239999999,
      "d": 181.90209374998813,
      "v": 127
    },
    {
      "midi": 46,
      "hit": false,
      "t": 150447.02399999992,
      "d": 459.41939062500023,
      "v": 75
    },
    {
      "midi": 70,
      "hit": false,
      "t": 150447.02400000033,
      "d": 223.87950000001,
      "v": 107
    },
    {
      "midi": 70,
      "hit": false,
      "t": 150447.02400000033,
      "d": 223.87950000001,
      "v": 107
    },
    {
      "midi": 77,
      "hit": false,
      "t": 150670.90349999987,
      "d": 60.63403124999604,
      "v": 117
    },
    {
      "midi": 74,
      "hit": false,
      "t": 150670.90349999987,
      "d": 80.45669531248859,
      "v": 89
    },
    {
      "midi": 82,
      "hit": false,
      "t": 150670.90349999987,
      "d": 80.45669531248859,
      "v": 121
    },
    {
      "midi": 53,
      "hit": false,
      "t": 150670.9034999999,
      "d": 208.72099218750373,
      "v": 74
    },
    {
      "midi": 57,
      "hit": false,
      "t": 150670.9034999999,
      "d": 80.45669531248859,
      "v": 109
    },
    {
      "midi": 72,
      "hit": false,
      "t": 150670.90350000034,
      "d": 111.93974999999045,
      "v": 101
    },
    {
      "midi": 72,
      "hit": false,
      "t": 150670.90350000034,
      "d": 111.93974999999045,
      "v": 101
    },
    {
      "midi": 65,
      "hit": false,
      "t": 150894.78299999988,
      "d": 181.90209374998813,
      "v": 103
    },
    {
      "midi": 58,
      "hit": false,
      "t": 150894.7829999999,
      "d": 396.4532812499965,
      "v": 70
    },
    {
      "midi": 72,
      "hit": false,
      "t": 150894.78300000032,
      "d": 223.87950000001,
      "v": 103
    },
    {
      "midi": 72,
      "hit": false,
      "t": 150894.78300000032,
      "d": 223.87950000001,
      "v": 103
    },
    {
      "midi": 57,
      "hit": false,
      "t": 151118.66249999986,
      "d": 101.44539843749953,
      "v": 99
    },
    {
      "midi": 74,
      "hit": false,
      "t": 151118.66249999986,
      "d": 60.63403124999604,
      "v": 101
    },
    {
      "midi": 77,
      "hit": false,
      "t": 151118.66249999986,
      "d": 60.63403124999604,
      "v": 127
    },
    {
      "midi": 82,
      "hit": false,
      "t": 151118.66249999986,
      "d": 80.45669531248859,
      "v": 127
    },
    {
      "midi": 46,
      "hit": false,
      "t": 151118.66249999992,
      "d": 354.4758749999746,
      "v": 70
    },
    {
      "midi": 70,
      "hit": false,
      "t": 151118.66250000033,
      "d": 111.93974999999045,
      "v": 100
    },
    {
      "midi": 70,
      "hit": false,
      "t": 151118.66250000033,
      "d": 111.93974999999045,
      "v": 100
    },
    {
      "midi": 64,
      "hit": false,
      "t": 151342.54199999987,
      "d": 181.90209374998813,
      "v": 123
    },
    {
      "midi": 53,
      "hit": false,
      "t": 151342.5419999999,
      "d": 270.52106249998906,
      "v": 60
    },
    {
      "midi": 70,
      "hit": false,
      "t": 151342.5420000003,
      "d": 111.93974999999045,
      "v": 97
    },
    {
      "midi": 70,
      "hit": false,
      "t": 151342.5420000003,
      "d": 111.93974999999045,
      "v": 97
    },
    {
      "midi": 60,
      "hit": false,
      "t": 151566.42149999985,
      "d": 100.27935937501024,
      "v": 95
    },
    {
      "midi": 74,
      "hit": false,
      "t": 151566.42149999985,
      "d": 60.63403124999604,
      "v": 94
    },
    {
      "midi": 77,
      "hit": false,
      "t": 151566.42149999985,
      "d": 60.63403124999604,
      "v": 120
    },
    {
      "midi": 82,
      "hit": false,
      "t": 151566.42149999985,
      "d": 80.45669531248859,
      "v": 127
    },
    {
      "midi": 58,
      "hit": false,
      "t": 151566.42149999988,
      "d": 480.4080937500112,
      "v": 72
    },
    {
      "midi": 70,
      "hit": false,
      "t": 151566.4215000003,
      "d": 111.93974999999045,
      "v": 104
    },
    {
      "midi": 70,
      "hit": false,
      "t": 151566.4215000003,
      "d": 111.93974999999045,
      "v": 104
    },
    {
      "midi": 57,
      "hit": false,
      "t": 151790.30099999986,
      "d": 162.07942968749558,
      "v": 83
    },
    {
      "midi": 46,
      "hit": false,
      "t": 151790.3009999999,
      "d": 229.70969531251467,
      "v": 83
    },
    {
      "midi": 70,
      "hit": false,
      "t": 151790.30100000027,
      "d": 111.93974999999045,
      "v": 100
    },
    {
      "midi": 70,
      "hit": false,
      "t": 151790.30100000027,
      "d": 111.93974999999045,
      "v": 100
    },
    {
      "midi": 74,
      "hit": false,
      "t": 152014.18049999984,
      "d": 40.81136718750349,
      "v": 89
    },
    {
      "midi": 77,
      "hit": false,
      "t": 152014.18049999984,
      "d": 40.81136718750349,
      "v": 115
    },
    {
      "midi": 82,
      "hit": false,
      "t": 152014.18049999984,
      "d": 80.4566953125177,
      "v": 118
    },
    {
      "midi": 53,
      "hit": false,
      "t": 152014.18049999987,
      "d": 80.45669531248859,
      "v": 105
    },
    {
      "midi": 53,
      "hit": false,
      "t": 152014.1804999999,
      "d": 124.76617968748906,
      "v": 80
    },
    {
      "midi": 70,
      "hit": false,
      "t": 152014.18050000025,
      "d": 223.87950000001,
      "v": 100
    },
    {
      "midi": 70,
      "hit": false,
      "t": 152014.18050000025,
      "d": 223.87950000001,
      "v": 100
    },
    {
      "midi": 43,
      "hit": false,
      "t": 152238.05999999982,
      "d": 1775.8774921874865,
      "v": 123
    },
    {
      "midi": 60,
      "hit": false,
      "t": 152238.05999999985,
      "d": 1541.5036406250147,
      "v": 120
    },
    {
      "midi": 79,
      "hit": false,
      "t": 152238.05999999985,
      "d": 1683.7604062499886,
      "v": 127
    },
    {
      "midi": 84,
      "hit": false,
      "t": 152238.05999999985,
      "d": 1683.7604062499886,
      "v": 127
    },
    {
      "midi": 86,
      "hit": false,
      "t": 152238.05999999985,
      "d": 1683.7604062499886,
      "v": 120
    },
    {
      "midi": 60,
      "hit": false,
      "t": 152238.05999999988,
      "d": 1441.2242812500044,
      "v": 91
    },
    {
      "midi": 55,
      "hit": false,
      "t": 152238.05999999988,
      "d": 3301.0565859375056,
      "v": 75
    },
    {
      "midi": 43,
      "hit": false,
      "t": 152238.05999999988,
      "d": 3320.879249999998,
      "v": 86
    },
    {
      "midi": 74,
      "hit": false,
      "t": 152238.06000000026,
      "d": 335.81925000000047,
      "v": 97
    },
    {
      "midi": 74,
      "hit": false,
      "t": 152238.06000000026,
      "d": 335.81925000000047,
      "v": 97
    },
    {
      "midi": 72,
      "hit": false,
      "t": 152685.81900000025,
      "d": 335.81925000000047,
      "v": 112
    },
    {
      "midi": 72,
      "hit": false,
      "t": 152685.81900000025,
      "d": 335.81925000000047,
      "v": 112
    },
    {
      "midi": 72,
      "hit": false,
      "t": 153133.57800000024,
      "d": 447.7589999999909,
      "v": 115
    },
    {
      "midi": 72,
      "hit": false,
      "t": 153133.57800000024,
      "d": 447.7589999999909,
      "v": 115
    },
    {
      "midi": 62,
      "hit": false,
      "t": 153805.21649999986,
      "d": 101.44539843749953,
      "v": 68
    },
    {
      "midi": 72,
      "hit": false,
      "t": 153805.21650000024,
      "d": 447.7589999999909,
      "v": 109
    },
    {
      "midi": 72,
      "hit": false,
      "t": 153805.21650000024,
      "d": 447.7589999999909,
      "v": 109
    },
    {
      "midi": 60,
      "hit": false,
      "t": 153917.15624999985,
      "d": 121.26806249999208,
      "v": 105
    },
    {
      "midi": 47,
      "hit": false,
      "t": 154029.09599999982,
      "d": 1630.1226093749865,
      "v": 107
    },
    {
      "midi": 59,
      "hit": false,
      "t": 154029.09599999984,
      "d": 1521.680976562493,
      "v": 107
    },
    {
      "midi": 79,
      "hit": false,
      "t": 154029.09599999984,
      "d": 1563.658382812515,
      "v": 109
    },
    {
      "midi": 83,
      "hit": false,
      "t": 154029.09599999984,
      "d": 1563.658382812515,
      "v": 125
    },
    {
      "midi": 86,
      "hit": false,
      "t": 154029.09599999984,
      "d": 1563.658382812515,
      "v": 112
    },
    {
      "midi": 59,
      "hit": false,
      "t": 154029.09599999987,
      "d": 1525.179093750019,
      "v": 88
    },
    {
      "midi": 71,
      "hit": false,
      "t": 154252.97550000023,
      "d": 111.93974999999045,
      "v": 97
    },
    {
      "midi": 71,
      "hit": false,
      "t": 154252.97550000023,
      "d": 111.93974999999045,
      "v": 97
    },
    {
      "midi": 71,
      "hit": false,
      "t": 154476.8550000002,
      "d": 223.87950000001,
      "v": 101
    },
    {
      "midi": 71,
      "hit": false,
      "t": 154476.8550000002,
      "d": 223.87950000001,
      "v": 101
    },
    {
      "midi": 70,
      "hit": false,
      "t": 154700.73450000022,
      "d": 111.93974999999045,
      "v": 100
    },
    {
      "midi": 70,
      "hit": false,
      "t": 154700.73450000022,
      "d": 111.93974999999045,
      "v": 100
    },
    {
      "midi": 71,
      "hit": false,
      "t": 154924.6140000002,
      "d": 447.7589999999909,
      "v": 107
    },
    {
      "midi": 71,
      "hit": false,
      "t": 154924.6140000002,
      "d": 447.7589999999909,
      "v": 107
    },
    {
      "midi": 38,
      "hit": false,
      "t": 155820.1319999998,
      "d": 648.3177187500114,
      "v": 127
    },
    {
      "midi": 50,
      "hit": false,
      "t": 155820.13199999984,
      "d": 1779.3756093750126,
      "v": 127
    },
    {
      "midi": 69,
      "hit": false,
      "t": 155820.1320000002,
      "d": 1343.2770000000019,
      "v": 117
    },
    {
      "midi": 69,
      "hit": false,
      "t": 155820.1320000002,
      "d": 1343.2770000000019,
      "v": 117
    },
    {
      "midi": 74,
      "hit": false,
      "t": 156044.01149999985,
      "d": 61.800070312514435,
      "v": 115
    },
    {
      "midi": 77,
      "hit": false,
      "t": 156044.01149999985,
      "d": 61.800070312514435,
      "v": 127
    },
    {
      "midi": 81,
      "hit": false,
      "t": 156044.01149999985,
      "d": 83.95481250001467,
      "v": 127
    },
    {
      "midi": 45,
      "hit": false,
      "t": 156491.7704999998,
      "d": 668.140382812504,
      "v": 117
    },
    {
      "midi": 74,
      "hit": false,
      "t": 156491.77049999987,
      "d": 62.966109375003725,
      "v": 105
    },
    {
      "midi": 77,
      "hit": false,
      "t": 156491.77049999987,
      "d": 62.966109375003725,
      "v": 125
    },
    {
      "midi": 81,
      "hit": false,
      "t": 156491.77049999987,
      "d": 83.95481250001467,
      "v": 123
    },
    {
      "midi": 74,
      "hit": false,
      "t": 156715.64999999988,
      "d": 375.46457812498556,
      "v": 101
    },
    {
      "midi": 77,
      "hit": false,
      "t": 156715.64999999988,
      "d": 375.46457812498556,
      "v": 123
    },
    {
      "midi": 82,
      "hit": false,
      "t": 156715.64999999988,
      "d": 375.46457812498556,
      "v": 127
    },
    {
      "midi": 38,
      "hit": false,
      "t": 157163.4089999998,
      "d": 417.44198437500745,
      "v": 112
    },
    {
      "midi": 77,
      "hit": false,
      "t": 157163.40899999987,
      "d": 396.4532812499965,
      "v": 120
    },
    {
      "midi": 81,
      "hit": false,
      "t": 157163.40899999987,
      "d": 396.4532812499965,
      "v": 125
    },
    {
      "midi": 74,
      "hit": false,
      "t": 157163.40899999987,
      "d": 417.44198437500745,
      "v": 92
    },
    {
      "midi": 72,
      "hit": false,
      "t": 157163.4090000002,
      "d": 223.87950000001,
      "v": 105
    },
    {
      "midi": 72,
      "hit": false,
      "t": 157163.4090000002,
      "d": 223.87950000001,
      "v": 105
    },
    {
      "midi": 70,
      "hit": false,
      "t": 157387.2885000002,
      "d": 335.81925000000047,
      "v": 100
    },
    {
      "midi": 70,
      "hit": false,
      "t": 157387.2885000002,
      "d": 335.81925000000047,
      "v": 100
    },
    {
      "midi": 34,
      "hit": false,
      "t": 157611.16799999983,
      "d": 626.1629765625112,
      "v": 127
    },
    {
      "midi": 46,
      "hit": false,
      "t": 157611.16799999986,
      "d": 1756.054828125023,
      "v": 127
    },
    {
      "midi": 74,
      "hit": false,
      "t": 157835.04749999987,
      "d": 61.800070312514435,
      "v": 103
    },
    {
      "midi": 77,
      "hit": false,
      "t": 157835.04749999987,
      "d": 83.95481250001467,
      "v": 125
    },
    {
      "midi": 82,
      "hit": false,
      "t": 157835.04749999987,
      "d": 103.77747656250722,
      "v": 127
    },
    {
      "midi": 34,
      "hit": false,
      "t": 158282.80649999983,
      "d": 648.3177187500114,
      "v": 124
    },
    {
      "midi": 74,
      "hit": false,
      "t": 158282.8064999999,
      "d": 83.95481249998556,
      "v": 85
    },
    {
      "midi": 77,
      "hit": false,
      "t": 158282.8064999999,
      "d": 83.95481249998556,
      "v": 112
    },
    {
      "midi": 82,
      "hit": false,
      "t": 158282.8064999999,
      "d": 125.93221874997835,
      "v": 121
    },
    {
      "midi": 74,
      "hit": false,
      "t": 158506.68599999987,
      "d": 375.46457812501467,
      "v": 95
    },
    {
      "midi": 84,
      "hit": false,
      "t": 158506.68599999987,
      "d": 396.4532812500256,
      "v": 125
    },
    {
      "midi": 77,
      "hit": false,
      "t": 158506.68599999987,
      "d": 417.44198437503655,
      "v": 120
    },
    {
      "midi": 82,
      "hit": false,
      "t": 158730.56549999988,
      "d": 61.800070312514435,
      "v": 23
    },
    {
      "midi": 34,
      "hit": false,
      "t": 158954.44499999983,
      "d": 375.46457812498556,
      "v": 118
    },
    {
      "midi": 74,
      "hit": false,
      "t": 158954.44499999992,
      "d": 354.4758750000037,
      "v": 97
    },
    {
      "midi": 82,
      "hit": false,
      "t": 158954.44499999992,
      "d": 354.4758750000037,
      "v": 127
    },
    {
      "midi": 77,
      "hit": false,
      "t": 158954.44499999992,
      "d": 375.46457812501467,
      "v": 123
    },
    {
      "midi": 72,
      "hit": false,
      "t": 159178.3245000002,
      "d": 111.93974999999045,
      "v": 103
    },
    {
      "midi": 72,
      "hit": false,
      "t": 159178.3245000002,
      "d": 111.93974999999045,
      "v": 103
    },
    {
      "midi": 41,
      "hit": false,
      "t": 159402.20399999982,
      "d": 668.140382812504,
      "v": 127
    },
    {
      "midi": 48,
      "hit": false,
      "t": 159402.20399999988,
      "d": 1735.066125000012,
      "v": 120
    },
    {
      "midi": 72,
      "hit": false,
      "t": 159402.20400000017,
      "d": 447.7589999999909,
      "v": 112
    },
    {
      "midi": 72,
      "hit": false,
      "t": 159402.20400000017,
      "d": 447.7589999999909,
      "v": 112
    },
    {
      "midi": 77,
      "hit": false,
      "t": 159626.08349999992,
      "d": 61.800070312514435,
      "v": 120
    },
    {
      "midi": 72,
      "hit": false,
      "t": 159626.08349999992,
      "d": 83.95481250001467,
      "v": 112
    },
    {
      "midi": 81,
      "hit": false,
      "t": 159626.08349999992,
      "d": 125.93221875000745,
      "v": 115
    },
    {
      "midi": 69,
      "hit": false,
      "t": 159849.96300000016,
      "d": 111.93974999999045,
      "v": 92
    },
    {
      "midi": 69,
      "hit": false,
      "t": 159849.96300000016,
      "d": 111.93974999999045,
      "v": 92
    },
    {
      "midi": 36,
      "hit": false,
      "t": 160073.84249999982,
      "d": 564.3629062499967,
      "v": 112
    },
    {
      "midi": 72,
      "hit": false,
      "t": 160073.84249999994,
      "d": 83.95481249998556,
      "v": 99
    },
    {
      "midi": 77,
      "hit": false,
      "t": 160073.84249999994,
      "d": 83.95481249998556,
      "v": 107
    },
    {
      "midi": 81,
      "hit": false,
      "t": 160073.84249999994,
      "d": 124.76617968748906,
      "v": 109
    },
    {
      "midi": 72,
      "hit": false,
      "t": 160073.84250000014,
      "d": 111.93974999999045,
      "v": 107
    },
    {
      "midi": 72,
      "hit": false,
      "t": 160073.84250000014,
      "d": 111.93974999999045,
      "v": 107
    },
    {
      "midi": 82,
      "hit": false,
      "t": 160297.72199999992,
      "d": 354.4758750000037,
      "v": 121
    },
    {
      "midi": 72,
      "hit": false,
      "t": 160297.72199999992,
      "d": 396.4532812499965,
      "v": 94
    },
    {
      "midi": 77,
      "hit": false,
      "t": 160297.72199999992,
      "d": 417.44198437500745,
      "v": 112
    },
    {
      "midi": 72,
      "hit": false,
      "t": 160297.72200000013,
      "d": 223.87950000001,
      "v": 103
    },
    {
      "midi": 72,
      "hit": false,
      "t": 160297.72200000013,
      "d": 223.87950000001,
      "v": 103
    },
    {
      "midi": 69,
      "hit": false,
      "t": 160521.60150000014,
      "d": 223.87950000001,
      "v": 92
    },
    {
      "midi": 69,
      "hit": false,
      "t": 160521.60150000014,
      "d": 223.87950000001,
      "v": 92
    },
    {
      "midi": 36,
      "hit": false,
      "t": 160745.48099999983,
      "d": 376.63061718750396,
      "v": 117
    },
    {
      "midi": 72,
      "hit": false,
      "t": 160745.48099999994,
      "d": 354.4758750000037,
      "v": 112
    },
    {
      "midi": 77,
      "hit": false,
      "t": 160745.48099999994,
      "d": 354.4758750000037,
      "v": 117
    },
    {
      "midi": 81,
      "hit": false,
      "t": 160745.48099999994,
      "d": 354.4758750000037,
      "v": 117
    },
    {
      "midi": 70,
      "hit": false,
      "t": 160745.48100000015,
      "d": 223.87950000001,
      "v": 87
    },
    {
      "midi": 70,
      "hit": false,
      "t": 160745.48100000015,
      "d": 223.87950000001,
      "v": 87
    },
    {
      "midi": 72,
      "hit": false,
      "t": 160969.36050000016,
      "d": 223.87950000001,
      "v": 101
    },
    {
      "midi": 72,
      "hit": false,
      "t": 160969.36050000016,
      "d": 223.87950000001,
      "v": 101
    },
    {
      "midi": 36,
      "hit": false,
      "t": 161193.23999999982,
      "d": 626.1629765625112,
      "v": 117
    },
    {
      "midi": 48,
      "hit": false,
      "t": 161193.2399999999,
      "d": 1756.054828124994,
      "v": 120
    },
    {
      "midi": 72,
      "hit": false,
      "t": 161193.23999999993,
      "d": 1716.4094999999797,
      "v": 101
    },
    {
      "midi": 79,
      "hit": false,
      "t": 161193.23999999993,
      "d": 1716.4094999999797,
      "v": 117
    },
    {
      "midi": 76,
      "hit": false,
      "t": 161193.23999999993,
      "d": 1738.56424218748,
      "v": 117
    },
    {
      "midi": 67,
      "hit": false,
      "t": 161193.24000000017,
      "d": 335.81925000000047,
      "v": 107
    },
    {
      "midi": 67,
      "hit": false,
      "t": 161193.24000000017,
      "d": 335.81925000000047,
      "v": 107
    },
    {
      "midi": 43,
      "hit": false,
      "t": 161864.87849999982,
      "d": 626.1629765625112,
      "v": 123
    },
    {
      "midi": 36,
      "hit": false,
      "t": 162536.51699999982,
      "d": 438.4306874999893,
      "v": 123
    },
    {
      "midi": 38,
      "hit": false,
      "t": 162984.2759999998,
      "d": 668.140382812504,
      "v": 117
    },
    {
      "midi": 50,
      "hit": false,
      "t": 162984.2759999999,
      "d": 1796.8661953124974,
      "v": 109
    },
    {
      "midi": 77,
      "hit": false,
      "t": 163208.15549999994,
      "d": 41.97740624999278,
      "v": 127
    },
    {
      "midi": 74,
      "hit": false,
      "t": 163208.15549999994,
      "d": 61.80007031248533,
      "v": 107
    },
    {
      "midi": 81,
      "hit": false,
      "t": 163208.15549999994,
      "d": 103.77747656247811,
      "v": 120
    },
    {
      "midi": 69,
      "hit": false,
      "t": 163432.03500000018,
      "d": 895.5180000000109,
      "v": 112
    },
    {
      "midi": 69,
      "hit": false,
      "t": 163432.03500000018,
      "d": 895.5180000000109,
      "v": 112
    },
    {
      "midi": 38,
      "hit": false,
      "t": 163655.9144999998,
      "d": 648.3177187500114,
      "v": 125
    },
    {
      "midi": 77,
      "hit": false,
      "t": 163655.91449999993,
      "d": 61.800070312514435,
      "v": 120
    },
    {
      "midi": 74,
      "hit": false,
      "t": 163655.91449999993,
      "d": 83.95481250001467,
      "v": 89
    },
    {
      "midi": 81,
      "hit": false,
      "t": 163655.91449999993,
      "d": 83.95481250001467,
      "v": 112
    },
    {
      "midi": 74,
      "hit": false,
      "t": 163879.79399999994,
      "d": 354.4758750000037,
      "v": 79
    },
    {
      "midi": 77,
      "hit": false,
      "t": 163879.79399999994,
      "d": 375.46457812501467,
      "v": 109
    },
    {
      "midi": 82,
      "hit": false,
      "t": 163879.79399999994,
      "d": 396.4532812500256,
      "v": 127
    },
    {
      "midi": 38,
      "hit": false,
      "t": 164327.5529999998,
      "d": 417.44198437500745,
      "v": 103
    },
    {
      "midi": 74,
      "hit": false,
      "t": 164327.55299999996,
      "d": 396.4532812499965,
      "v": 101
    },
    {
      "midi": 77,
      "hit": false,
      "t": 164327.55299999996,
      "d": 417.44198437500745,
      "v": 115
    },
    {
      "midi": 81,
      "hit": false,
      "t": 164327.55299999996,
      "d": 417.44198437500745,
      "v": 120
    },
    {
      "midi": 72,
      "hit": false,
      "t": 164327.5530000002,
      "d": 447.7589999999909,
      "v": 101
    },
    {
      "midi": 72,
      "hit": false,
      "t": 164327.5530000002,
      "d": 447.7589999999909,
      "v": 101
    },
    {
      "midi": 34,
      "hit": false,
      "t": 164775.31199999983,
      "d": 584.1855703124893,
      "v": 124
    },
    {
      "midi": 46,
      "hit": false,
      "t": 164775.3119999999,
      "d": 1777.043531250005,
      "v": 127
    },
    {
      "midi": 74,
      "hit": false,
      "t": 164775.31200000018,
      "d": 447.7589999999909,
      "v": 88
    },
    {
      "midi": 74,
      "hit": false,
      "t": 164775.31200000018,
      "d": 447.7589999999909,
      "v": 88
    },
    {
      "midi": 74,
      "hit": false,
      "t": 164999.19149999996,
      "d": 61.800070312514435,
      "v": 103
    },
    {
      "midi": 77,
      "hit": false,
      "t": 164999.19149999996,
      "d": 85.12085156250396,
      "v": 125
    },
    {
      "midi": 82,
      "hit": false,
      "t": 164999.19149999996,
      "d": 106.1095546875149,
      "v": 127
    },
    {
      "midi": 72,
      "hit": false,
      "t": 165223.07100000017,
      "d": 223.87950000001,
      "v": 99
    },
    {
      "midi": 72,
      "hit": false,
      "t": 165223.07100000017,
      "d": 223.87950000001,
      "v": 99
    },
    {
      "midi": 34,
      "hit": false,
      "t": 165446.95049999983,
      "d": 564.3629062499967,
      "v": 127
    },
    {
      "midi": 74,
      "hit": false,
      "t": 165446.95049999998,
      "d": 61.800070312514435,
      "v": 94
    },
    {
      "midi": 77,
      "hit": false,
      "t": 165446.95049999998,
      "d": 61.800070312514435,
      "v": 109
    },
    {
      "midi": 82,
      "hit": false,
      "t": 165446.95049999998,
      "d": 103.77747656250722,
      "v": 127
    },
    {
      "midi": 70,
      "hit": false,
      "t": 165446.95050000018,
      "d": 671.6385000000009,
      "v": 104
    },
    {
      "midi": 70,
      "hit": false,
      "t": 165446.95050000018,
      "d": 671.6385000000009,
      "v": 104
    },
    {
      "midi": 74,
      "hit": false,
      "t": 165670.83,
      "d": 354.4758750000037,
      "v": 86
    },
    {
      "midi": 77,
      "hit": false,
      "t": 165670.83,
      "d": 375.46457812501467,
      "v": 112
    },
    {
      "midi": 84,
      "hit": false,
      "t": 165670.83,
      "d": 375.46457812501467,
      "v": 120
    },
    {
      "midi": 34,
      "hit": false,
      "t": 166118.58899999983,
      "d": 459.41939062500023,
      "v": 81
    },
    {
      "midi": 74,
      "hit": false,
      "t": 166118.589,
      "d": 375.46457812498556,
      "v": 94
    },
    {
      "midi": 77,
      "hit": false,
      "t": 166118.589,
      "d": 375.46457812498556,
      "v": 112
    },
    {
      "midi": 82,
      "hit": false,
      "t": 166118.589,
      "d": 396.4532812499965,
      "v": 127
    },
    {
      "midi": 41,
      "hit": false,
      "t": 166566.34799999982,
      "d": 584.1855703125184,
      "v": 127
    },
    {
      "midi": 48,
      "hit": false,
      "t": 166566.34799999988,
      "d": 1733.9000859374937,
      "v": 125
    },
    {
      "midi": 72,
      "hit": false,
      "t": 166566.34800000017,
      "d": 111.93974999999045,
      "v": 117
    },
    {
      "midi": 72,
      "hit": false,
      "t": 166566.34800000017,
      "d": 111.93974999999045,
      "v": 117
    },
    {
      "midi": 81,
      "hit": false,
      "t": 166790.2275,
      "d": 61.800070312514435,
      "v": 120
    },
    {
      "midi": 77,
      "hit": false,
      "t": 166790.2275,
      "d": 82.78877343752538,
      "v": 115
    },
    {
      "midi": 84,
      "hit": false,
      "t": 166790.2275,
      "d": 82.78877343752538,
      "v": 125
    },
    {
      "midi": 72,
      "hit": false,
      "t": 166790.22750000015,
      "d": 111.93974999999045,
      "v": 107
    },
    {
      "midi": 72,
      "hit": false,
      "t": 166790.22750000015,
      "d": 111.93974999999045,
      "v": 107
    },
    {
      "midi": 72,
      "hit": false,
      "t": 167014.10700000013,
      "d": 111.93974999999045,
      "v": 105
    },
    {
      "midi": 72,
      "hit": false,
      "t": 167014.10700000013,
      "d": 111.93974999999045,
      "v": 105
    },
    {
      "midi": 41,
      "hit": false,
      "t": 167237.98649999985,
      "d": 584.1855703124893,
      "v": 117
    },
    {
      "midi": 77,
      "hit": false,
      "t": 167237.98650000003,
      "d": 103.77747656250722,
      "v": 103
    },
    {
      "midi": 81,
      "hit": false,
      "t": 167237.98650000003,
      "d": 103.77747656250722,
      "v": 112
    },
    {
      "midi": 84,
      "hit": false,
      "t": 167237.98650000003,
      "d": 103.77747656250722,
      "v": 117
    },
    {
      "midi": 72,
      "hit": false,
      "t": 167237.98650000012,
      "d": 111.93974999999045,
      "v": 99
    },
    {
      "midi": 72,
      "hit": false,
      "t": 167237.98650000012,
      "d": 111.93974999999045,
      "v": 99
    },
    {
      "midi": 77,
      "hit": false,
      "t": 167461.86600000004,
      "d": 334.6532109375112,
      "v": 115
    },
    {
      "midi": 81,
      "hit": false,
      "t": 167461.86600000004,
      "d": 354.4758750000037,
      "v": 127
    },
    {
      "midi": 86,
      "hit": false,
      "t": 167461.86600000004,
      "d": 354.4758750000037,
      "v": 115
    },
    {
      "midi": 72,
      "hit": false,
      "t": 167461.8660000001,
      "d": 111.93974999999045,
      "v": 103
    },
    {
      "midi": 72,
      "hit": false,
      "t": 167461.8660000001,
      "d": 111.93974999999045,
      "v": 103
    },
    {
      "midi": 72,
      "hit": false,
      "t": 167685.74550000008,
      "d": 111.93974999999045,
      "v": 99
    },
    {
      "midi": 72,
      "hit": false,
      "t": 167685.74550000008,
      "d": 111.93974999999045,
      "v": 99
    },
    {
      "midi": 41,
      "hit": false,
      "t": 167909.62499999985,
      "d": 459.41939062500023,
      "v": 117
    },
    {
      "midi": 77,
      "hit": false,
      "t": 167909.62500000003,
      "d": 333.4871718749928,
      "v": 120
    },
    {
      "midi": 81,
      "hit": false,
      "t": 167909.62500000003,
      "d": 354.4758750000037,
      "v": 125
    },
    {
      "midi": 84,
      "hit": false,
      "t": 167909.62500000003,
      "d": 375.46457812501467,
      "v": 127
    },
    {
      "midi": 72,
      "hit": false,
      "t": 167909.62500000006,
      "d": 111.93974999999045,
      "v": 105
    },
    {
      "midi": 72,
      "hit": false,
      "t": 167909.62500000006,
      "d": 111.93974999999045,
      "v": 105
    },
    {
      "midi": 72,
      "hit": false,
      "t": 168133.50450000004,
      "d": 223.87950000001,
      "v": 105
    },
    {
      "midi": 72,
      "hit": false,
      "t": 168133.50450000004,
      "d": 223.87950000001,
      "v": 105
    },
    {
      "midi": 43,
      "hit": false,
      "t": 168357.38399999985,
      "d": 647.1516796875221,
      "v": 127
    },
    {
      "midi": 50,
      "hit": false,
      "t": 168357.38399999987,
      "d": 1631.288648437505,
      "v": 109
    },
    {
      "midi": 74,
      "hit": false,
      "t": 168357.38400000005,
      "d": 335.81925000000047,
      "v": 97
    },
    {
      "midi": 79,
      "hit": false,
      "t": 168357.38400000005,
      "d": 3487.622835937538,
      "v": 120
    },
    {
      "midi": 83,
      "hit": false,
      "t": 168357.38400000005,
      "d": 3506.2794609375414,
      "v": 127
    },
    {
      "midi": 86,
      "hit": false,
      "t": 168357.38400000005,
      "d": 3506.2794609375414,
      "v": 117
    },
    {
      "midi": 74,
      "hit": false,
      "t": 168357.38400000005,
      "d": 335.81925000000047,
      "v": 97
    },
    {
      "midi": 43,
      "hit": false,
      "t": 169029.02249999988,
      "d": 564.3629062499967,
      "v": 109
    },
    {
      "midi": 74,
      "hit": false,
      "t": 170106.44259374987,
      "d": 125.93221875000745,
      "v": 112
    },
    {
      "midi": 43,
      "hit": false,
      "t": 170133.2614921874,
      "d": 5.830195312504657,
      "v": 123
    },
    {
      "midi": 71,
      "hit": false,
      "t": 170217.21630468738,
      "d": 141.09072656248463,
      "v": 115
    },
    {
      "midi": 69,
      "hit": false,
      "t": 170325.65793749987,
      "d": 125.93221874997835,
      "v": 112
    },
    {
      "midi": 67,
      "hit": false,
      "t": 170451.59015624985,
      "d": 109.60767187501187,
      "v": 117
    },
    {
      "midi": 74,
      "hit": false,
      "t": 170561.19782812486,
      "d": 156.24923437502002,
      "v": 112
    },
    {
      "midi": 71,
      "hit": false,
      "t": 170687.13004687487,
      "d": 124.76617968751816,
      "v": 115
    },
    {
      "midi": 69,
      "hit": false,
      "t": 170780.41317187488,
      "d": 156.24923437502002,
      "v": 105
    },
    {
      "midi": 38,
      "hit": false,
      "t": 170820.0584999999,
      "d": 629.6610937500081,
      "v": 123
    },
    {
      "midi": 67,
      "hit": false,
      "t": 170906.3453906249,
      "d": 109.60767187501187,
      "v": 107
    },
    {
      "midi": 69,
      "hit": false,
      "t": 171031.1115703124,
      "d": 141.09072656251374,
      "v": 107
    },
    {
      "midi": 67,
      "hit": false,
      "t": 171141.8852812499,
      "d": 172.5737812500156,
      "v": 97
    },
    {
      "midi": 64,
      "hit": false,
      "t": 171266.65146093743,
      "d": 141.09072656251374,
      "v": 112
    },
    {
      "midi": 62,
      "hit": false,
      "t": 171376.25913281244,
      "d": 94.44916406250559,
      "v": 94
    },
    {
      "midi": 69,
      "hit": false,
      "t": 171470.70829687495,
      "d": 124.76617968748906,
      "v": 101
    },
    {
      "midi": 31,
      "hit": false,
      "t": 171491.6969999999,
      "d": 405.78159374999814,
      "v": 120
    },
    {
      "midi": 67,
      "hit": false,
      "t": 171595.47447656243,
      "d": 345.1475625000312,
      "v": 123
    },
    {
      "midi": 43,
      "hit": false,
      "t": 171939.4559999999,
      "d": 587.6836874999863,
      "v": 125
    },
    {
      "midi": 43,
      "hit": false,
      "t": 171948.78431249998,
      "d": 1766.549179687514,
      "v": 127
    },
    {
      "midi": 74,
      "hit": false,
      "t": 171948.7843125001,
      "d": 1542.669679687504,
      "v": 123
    },
    {
      "midi": 67,
      "hit": false,
      "t": 171948.7843125001,
      "d": 1562.4923437499965,
      "v": 127
    },
    {
      "midi": 71,
      "hit": false,
      "t": 171948.7843125001,
      "d": 1562.4923437499965,
      "v": 127
    },
    {
      "midi": 74,
      "hit": false,
      "t": 172387.21500000005,
      "d": 111.93974999999045,
      "v": 103
    },
    {
      "midi": 74,
      "hit": false,
      "t": 172387.21500000005,
      "d": 111.93974999999045,
      "v": 103
    },
    {
      "midi": 43,
      "hit": false,
      "t": 172611.09449999986,
      "d": 669.3064218749932,
      "v": 117
    },
    {
      "midi": 74,
      "hit": false,
      "t": 172611.09450000004,
      "d": 335.81925000000047,
      "v": 95
    },
    {
      "midi": 74,
      "hit": false,
      "t": 172611.09450000004,
      "d": 335.81925000000047,
      "v": 95
    },
    {
      "midi": 74,
      "hit": false,
      "t": 173058.85350000003,
      "d": 223.87950000001,
      "v": 79
    },
    {
      "midi": 74,
      "hit": false,
      "t": 173058.85350000003,
      "d": 223.87950000001,
      "v": 79
    },
    {
      "midi": 31,
      "hit": false,
      "t": 173282.73299999986,
      "d": 425.6042578124907,
      "v": 120
    },
    {
      "midi": 71,
      "hit": false,
      "t": 173282.73300000004,
      "d": 447.7589999999909,
      "v": 103
    },
    {
      "midi": 71,
      "hit": false,
      "t": 173282.73300000004,
      "d": 447.7589999999909,
      "v": 103
    },
    {
      "midi": 72,
      "hit": false,
      "t": 173715.33349218758,
      "d": 1663.937742187496,
      "v": 127
    },
    {
      "midi": 36,
      "hit": false,
      "t": 173730.49199999985,
      "d": 567.8610234374937,
      "v": 109
    },
    {
      "midi": 69,
      "hit": false,
      "t": 173730.49200000003,
      "d": 671.6385000000009,
      "v": 92
    },
    {
      "midi": 69,
      "hit": false,
      "t": 173730.49200000003,
      "d": 671.6385000000009,
      "v": 92
    },
    {
      "midi": 48,
      "hit": false,
      "t": 173735.15615624998,
      "d": 1725.7378125000105,
      "v": 127
    },
    {
      "midi": 77,
      "hit": false,
      "t": 173735.15615625007,
      "d": 690.2951250000042,
      "v": 127
    },
    {
      "midi": 67,
      "hit": false,
      "t": 173735.15615625007,
      "d": 1623.1263749999925,
      "v": 120
    },
    {
      "midi": 45,
      "hit": false,
      "t": 173754.97882031248,
      "d": 20.988703125010943,
      "v": 72
    },
    {
      "midi": 76,
      "hit": false,
      "t": 174384.63991406257,
      "d": 1015.6200234375137,
      "v": 125
    },
    {
      "midi": 36,
      "hit": false,
      "t": 174402.13049999985,
      "d": 567.8610234374937,
      "v": 115
    },
    {
      "midi": 67,
      "hit": false,
      "t": 174402.13050000003,
      "d": 895.5180000000109,
      "v": 99
    },
    {
      "midi": 67,
      "hit": false,
      "t": 174402.13050000003,
      "d": 895.5180000000109,
      "v": 99
    },
    {
      "midi": 36,
      "hit": false,
      "t": 175073.76899999985,
      "d": 425.6042578124907,
      "v": 101
    },
    {
      "midi": 43,
      "hit": false,
      "t": 175500.539296875,
      "d": 1807.3605468749884,
      "v": 127
    },
    {
      "midi": 43,
      "hit": false,
      "t": 175521.52799999985,
      "d": 546.8723203125119,
      "v": 112
    },
    {
      "midi": 67,
      "hit": false,
      "t": 175521.52800000005,
      "d": 111.93974999999045,
      "v": 105
    },
    {
      "midi": 67,
      "hit": false,
      "t": 175521.52800000005,
      "d": 111.93974999999045,
      "v": 105
    },
    {
      "midi": 67,
      "hit": false,
      "t": 175521.52800000008,
      "d": 1645.2811171875219,
      "v": 125
    },
    {
      "midi": 71,
      "hit": false,
      "t": 175521.52800000008,
      "d": 1684.926445312536,
      "v": 127
    },
    {
      "midi": 74,
      "hit": false,
      "t": 175542.5167031251,
      "d": 1663.9377421875251,
      "v": 120
    },
    {
      "midi": 67,
      "hit": false,
      "t": 175745.40750000003,
      "d": 111.93974999999045,
      "v": 95
    },
    {
      "midi": 67,
      "hit": false,
      "t": 175745.40750000003,
      "d": 111.93974999999045,
      "v": 95
    },
    {
      "midi": 67,
      "hit": false,
      "t": 175969.287,
      "d": 223.87950000001,
      "v": 99
    },
    {
      "midi": 67,
      "hit": false,
      "t": 175969.287,
      "d": 223.87950000001,
      "v": 99
    },
    {
      "midi": 43,
      "hit": false,
      "t": 176193.16649999985,
      "d": 628.4950546874898,
      "v": 115
    },
    {
      "midi": 69,
      "hit": false,
      "t": 176193.16650000002,
      "d": 223.87950000001,
      "v": 92
    },
    {
      "midi": 69,
      "hit": false,
      "t": 176193.16650000002,
      "d": 223.87950000001,
      "v": 92
    },
    {
      "midi": 67,
      "hit": false,
      "t": 176417.04600000003,
      "d": 447.7589999999909,
      "v": 95
    },
    {
      "midi": 67,
      "hit": false,
      "t": 176417.04600000003,
      "d": 447.7589999999909,
      "v": 95
    },
    {
      "midi": 31,
      "hit": false,
      "t": 176864.80499999985,
      "d": 425.6042578124907,
      "v": 109
    },
    {
      "midi": 62,
      "hit": false,
      "t": 176864.80500000002,
      "d": 111.93974999999045,
      "v": 86
    },
    {
      "midi": 62,
      "hit": false,
      "t": 176864.80500000002,
      "d": 111.93974999999045,
      "v": 86
    },
    {
      "midi": 62,
      "hit": false,
      "t": 177088.6845,
      "d": 223.87950000001,
      "v": 82
    },
    {
      "midi": 62,
      "hit": false,
      "t": 177088.6845,
      "d": 223.87950000001,
      "v": 82
    },
    {
      "midi": 67,
      "hit": false,
      "t": 177288.07717968762,
      "d": 852.3745546874707,
      "v": 117
    },
    {
      "midi": 72,
      "hit": false,
      "t": 177288.07717968762,
      "d": 852.3745546874707,
      "v": 127
    },
    {
      "midi": 40,
      "hit": false,
      "t": 177307.89984375,
      "d": 893.1859218750033,
      "v": 127
    },
    {
      "midi": 76,
      "hit": false,
      "t": 177307.8998437501,
      "d": 812.7292265624856,
      "v": 127
    },
    {
      "midi": 40,
      "hit": false,
      "t": 177312.56399999984,
      "d": 669.3064218749932,
      "v": 117
    },
    {
      "midi": 67,
      "hit": false,
      "t": 177312.564,
      "d": 111.93974999999045,
      "v": 103
    },
    {
      "midi": 67,
      "hit": false,
      "t": 177312.564,
      "d": 111.93974999999045,
      "v": 103
    },
    {
      "midi": 67,
      "hit": false,
      "t": 177536.4435,
      "d": 111.93974999999045,
      "v": 91
    },
    {
      "midi": 67,
      "hit": false,
      "t": 177536.4435,
      "d": 111.93974999999045,
      "v": 91
    },
    {
      "midi": 67,
      "hit": false,
      "t": 177760.32299999997,
      "d": 111.93974999999045,
      "v": 94
    },
    {
      "midi": 67,
      "hit": false,
      "t": 177760.32299999997,
      "d": 111.93974999999045,
      "v": 94
    },
    {
      "midi": 40,
      "hit": false,
      "t": 177984.20249999984,
      "d": 202.89079687499907,
      "v": 99
    },
    {
      "midi": 67,
      "hit": false,
      "t": 177984.20249999996,
      "d": 223.87950000001,
      "v": 83
    },
    {
      "midi": 67,
      "hit": false,
      "t": 177984.20249999996,
      "d": 223.87950000001,
      "v": 83
    },
    {
      "midi": 38,
      "hit": false,
      "t": 178201.085765625,
      "d": 851.2085156250105,
      "v": 127
    },
    {
      "midi": 38,
      "hit": false,
      "t": 178208.08199999985,
      "d": 852.3745546874998,
      "v": 105
    },
    {
      "midi": 66,
      "hit": false,
      "t": 178208.08199999997,
      "d": 223.87950000001,
      "v": 111
    },
    {
      "midi": 66,
      "hit": false,
      "t": 178208.08199999997,
      "d": 223.87950000001,
      "v": 111
    },
    {
      "midi": 66,
      "hit": false,
      "t": 178222.0744687501,
      "d": 710.1177890624967,
      "v": 127
    },
    {
      "midi": 69,
      "hit": false,
      "t": 178222.0744687501,
      "d": 731.1064921875077,
      "v": 125
    },
    {
      "midi": 74,
      "hit": false,
      "t": 178222.0744687501,
      "d": 750.9291562500002,
      "v": 117
    },
    {
      "midi": 64,
      "hit": false,
      "t": 178431.96149999998,
      "d": 223.87950000001,
      "v": 105
    },
    {
      "midi": 64,
      "hit": false,
      "t": 178431.96149999998,
      "d": 223.87950000001,
      "v": 105
    },
    {
      "midi": 62,
      "hit": false,
      "t": 178655.841,
      "d": 335.81925000000047,
      "v": 86
    },
    {
      "midi": 62,
      "hit": false,
      "t": 178655.841,
      "d": 335.81925000000047,
      "v": 86
    },
    {
      "midi": 67,
      "hit": false,
      "t": 179074.4490234376,
      "d": 1603.3037109375,
      "v": 123
    },
    {
      "midi": 71,
      "hit": false,
      "t": 179074.4490234376,
      "d": 1603.3037109375,
      "v": 127
    },
    {
      "midi": 74,
      "hit": false,
      "t": 179074.4490234376,
      "d": 1603.3037109375,
      "v": 123
    },
    {
      "midi": 43,
      "hit": false,
      "t": 179094.2716875,
      "d": 1744.3944375000137,
      "v": 127
    },
    {
      "midi": 43,
      "hit": false,
      "t": 179103.59999999986,
      "d": 548.0383593750012,
      "v": 127
    },
    {
      "midi": 74,
      "hit": false,
      "t": 179551.359,
      "d": 223.87950000001,
      "v": 94
    },
    {
      "midi": 74,
      "hit": false,
      "t": 179551.359,
      "d": 223.87950000001,
      "v": 94
    },
    {
      "midi": 43,
      "hit": false,
      "t": 179775.23849999986,
      "d": 669.3064218749932,
      "v": 115
    },
    {
      "midi": 74,
      "hit": false,
      "t": 179775.2385,
      "d": 335.81925000000047,
      "v": 85
    },
    {
      "midi": 74,
      "hit": false,
      "t": 179775.2385,
      "d": 335.81925000000047,
      "v": 85
    },
    {
      "midi": 74,
      "hit": false,
      "t": 180222.9975,
      "d": 223.87950000001,
      "v": 86
    },
    {
      "midi": 74,
      "hit": false,
      "t": 180222.9975,
      "d": 223.87950000001,
      "v": 86
    },
    {
      "midi": 31,
      "hit": false,
      "t": 180446.87699999986,
      "d": 405.78159374999814,
      "v": 109
    },
    {
      "midi": 76,
      "hit": false,
      "t": 180446.877,
      "d": 335.81925000000047,
      "v": 99
    },
    {
      "midi": 76,
      "hit": false,
      "t": 180446.877,
      "d": 335.81925000000047,
      "v": 99
    },
    {
      "midi": 77,
      "hit": false,
      "t": 180839.8321640626,
      "d": 731.1064921875077,
      "v": 127
    },
    {
      "midi": 72,
      "hit": false,
      "t": 180839.8321640626,
      "d": 1624.292414062511,
      "v": 127
    },
    {
      "midi": 67,
      "hit": false,
      "t": 180860.8208671876,
      "d": 1603.3037109375,
      "v": 117
    },
    {
      "midi": 48,
      "hit": false,
      "t": 180880.64353125,
      "d": 1704.7491093749995,
      "v": 127
    },
    {
      "midi": 36,
      "hit": false,
      "t": 180894.63599999985,
      "d": 608.6723906249972,
      "v": 109
    },
    {
      "midi": 67,
      "hit": false,
      "t": 180894.636,
      "d": 1007.4577500000014,
      "v": 97
    },
    {
      "midi": 67,
      "hit": false,
      "t": 180894.636,
      "d": 1007.4577500000014,
      "v": 97
    },
    {
      "midi": 36,
      "hit": false,
      "t": 181566.27449999985,
      "d": 548.0383593750012,
      "v": 107
    },
    {
      "midi": 76,
      "hit": false,
      "t": 181570.9386562501,
      "d": 933.9972890625068,
      "v": 112
    },
    {
      "midi": 36,
      "hit": false,
      "t": 182237.91299999985,
      "d": 425.6042578124907,
      "v": 107
    },
    {
      "midi": 62,
      "hit": false,
      "t": 182461.7925,
      "d": 223.87950000001,
      "v": 77
    },
    {
      "midi": 62,
      "hit": false,
      "t": 182461.7925,
      "d": 223.87950000001,
      "v": 77
    },
    {
      "midi": 67,
      "hit": false,
      "t": 182667.0153750001,
      "d": 1583.4810468750075,
      "v": 125
    },
    {
      "midi": 71,
      "hit": false,
      "t": 182667.0153750001,
      "d": 1583.4810468750075,
      "v": 127
    },
    {
      "midi": 43,
      "hit": false,
      "t": 182685.67199999985,
      "d": 587.6836874999863,
      "v": 120
    },
    {
      "midi": 67,
      "hit": false,
      "t": 182685.67200000002,
      "d": 111.93974999999045,
      "v": 97
    },
    {
      "midi": 67,
      "hit": false,
      "t": 182685.67200000002,
      "d": 111.93974999999045,
      "v": 97
    },
    {
      "midi": 74,
      "hit": false,
      "t": 182688.00407812512,
      "d": 1541.5036406249856,
      "v": 123
    },
    {
      "midi": 43,
      "hit": false,
      "t": 182722.98525,
      "d": 1582.315007812489,
      "v": 127
    },
    {
      "midi": 67,
      "hit": false,
      "t": 182909.5515,
      "d": 111.93974999999045,
      "v": 99
    },
    {
      "midi": 67,
      "hit": false,
      "t": 182909.5515,
      "d": 111.93974999999045,
      "v": 99
    },
    {
      "midi": 67,
      "hit": false,
      "t": 183133.43099999998,
      "d": 223.87950000001,
      "v": 103
    },
    {
      "midi": 67,
      "hit": false,
      "t": 183133.43099999998,
      "d": 223.87950000001,
      "v": 103
    },
    {
      "midi": 43,
      "hit": false,
      "t": 183357.31049999982,
      "d": 1014.4539843749953,
      "v": 107
    },
    {
      "midi": 69,
      "hit": false,
      "t": 183357.3105,
      "d": 223.87950000001,
      "v": 91
    },
    {
      "midi": 69,
      "hit": false,
      "t": 183357.3105,
      "d": 223.87950000001,
      "v": 91
    },
    {
      "midi": 67,
      "hit": false,
      "t": 183581.19,
      "d": 335.81925000000047,
      "v": 99
    },
    {
      "midi": 67,
      "hit": false,
      "t": 183581.19,
      "d": 335.81925000000047,
      "v": 99
    },
    {
      "midi": 75,
      "hit": false,
      "t": 184453.3872187501,
      "d": 3552.9210234374914,
      "v": 127
    },
    {
      "midi": 67,
      "hit": false,
      "t": 184453.3872187501,
      "d": 3572.743687499984,
      "v": 127
    },
    {
      "midi": 70,
      "hit": false,
      "t": 184453.3872187501,
      "d": 3572.743687499984,
      "v": 127
    },
    {
      "midi": 39,
      "hit": false,
      "t": 184476.7079999998,
      "d": 3491.120953125006,
      "v": 127
    },
    {
      "midi": 39,
      "hit": false,
      "t": 184495.364625,
      "d": 3551.754984375002,
      "v": 127
    },
    {
      "midi": 67,
      "hit": false,
      "t": 186491.62350000002,
      "d": 223.87950000001,
      "v": 89
    },
    {
      "midi": 67,
      "hit": false,
      "t": 186491.62350000002,
      "d": 223.87950000001,
      "v": 89
    },
    {
      "midi": 70,
      "hit": false,
      "t": 186715.50300000003,
      "d": 223.87950000001,
      "v": 85
    },
    {
      "midi": 70,
      "hit": false,
      "t": 186715.50300000003,
      "d": 223.87950000001,
      "v": 85
    },
    {
      "midi": 67,
      "hit": false,
      "t": 186939.38250000004,
      "d": 223.87950000001,
      "v": 85
    },
    {
      "midi": 67,
      "hit": false,
      "t": 186939.38250000004,
      "d": 223.87950000001,
      "v": 85
    },
    {
      "midi": 70,
      "hit": false,
      "t": 187163.26200000005,
      "d": 111.93974999999045,
      "v": 100
    },
    {
      "midi": 70,
      "hit": false,
      "t": 187163.26200000005,
      "d": 111.93974999999045,
      "v": 100
    },
    {
      "midi": 67,
      "hit": false,
      "t": 187387.14150000003,
      "d": 223.87950000001,
      "v": 86
    },
    {
      "midi": 67,
      "hit": false,
      "t": 187387.14150000003,
      "d": 223.87950000001,
      "v": 86
    },
    {
      "midi": 70,
      "hit": false,
      "t": 187611.02100000004,
      "d": 223.87950000001,
      "v": 87
    },
    {
      "midi": 70,
      "hit": false,
      "t": 187611.02100000004,
      "d": 223.87950000001,
      "v": 87
    },
    {
      "midi": 67,
      "hit": false,
      "t": 187834.90050000005,
      "d": 223.87950000001,
      "v": 53
    },
    {
      "midi": 67,
      "hit": false,
      "t": 187834.90050000005,
      "d": 223.87950000001,
      "v": 53
    },
    {
      "midi": 63,
      "hit": false,
      "t": 188058.77999999988,
      "d": 466.4156250000233,
      "v": 69
    },
    {
      "midi": 39,
      "hit": false,
      "t": 188058.77999999988,
      "d": 1501.8583125000587,
      "v": 62
    },
    {
      "midi": 70,
      "hit": false,
      "t": 188058.78000000006,
      "d": 3358.1925000000047,
      "v": 89
    },
    {
      "midi": 70,
      "hit": false,
      "t": 188058.78000000006,
      "d": 3358.1925000000047,
      "v": 89
    },
    {
      "midi": 63,
      "hit": false,
      "t": 188066.94227343748,
      "d": 1806.1945078125282,
      "v": 111
    },
    {
      "midi": 55,
      "hit": false,
      "t": 188282.6594999999,
      "d": 364.97022656252375,
      "v": 65
    },
    {
      "midi": 58,
      "hit": false,
      "t": 188506.5389999999,
      "d": 202.89079687502817,
      "v": 70
    },
    {
      "midi": 63,
      "hit": false,
      "t": 188730.41849999994,
      "d": 384.7928906250163,
      "v": 83
    },
    {
      "midi": 55,
      "hit": false,
      "t": 188954.29799999995,
      "d": 405.78159374999814,
      "v": 49
    },
    {
      "midi": 58,
      "hit": false,
      "t": 189178.17749999996,
      "d": 223.8794999999809,
      "v": 79
    },
    {
      "midi": 63,
      "hit": false,
      "t": 189402.05699999994,
      "d": 242.53612500001327,
      "v": 79
    },
    {
      "midi": 39,
      "hit": false,
      "t": 189625.93649999984,
      "d": 160.9133906250063,
      "v": 127
    },
    {
      "midi": 55,
      "hit": false,
      "t": 189625.93649999995,
      "d": 222.71346093749162,
      "v": 56
    },
    {
      "midi": 62,
      "hit": false,
      "t": 189849.81599999993,
      "d": 446.59296093750163,
      "v": 56
    },
    {
      "midi": 39,
      "hit": false,
      "t": 189849.81599999993,
      "d": 1441.2242812500335,
      "v": 62
    },
    {
      "midi": 62,
      "hit": false,
      "t": 189873.13678125,
      "d": 1746.7265156250214,
      "v": 79
    },
    {
      "midi": 55,
      "hit": false,
      "t": 190073.69549999994,
      "d": 324.15885937499115,
      "v": 60
    },
    {
      "midi": 58,
      "hit": false,
      "t": 190297.57499999992,
      "d": 202.89079687499907,
      "v": 72
    },
    {
      "midi": 62,
      "hit": false,
      "t": 190521.45449999993,
      "d": 466.4156250000233,
      "v": 82
    },
    {
      "midi": 55,
      "hit": false,
      "t": 190745.33399999994,
      "d": 425.6042578125198,
      "v": 60
    },
    {
      "midi": 58,
      "hit": false,
      "t": 190969.21349999995,
      "d": 284.51353125000605,
      "v": 64
    },
    {
      "midi": 62,
      "hit": false,
      "t": 191193.09299999996,
      "d": 363.80418750000536,
      "v": 74
    },
    {
      "midi": 41,
      "hit": false,
      "t": 191416.97249999983,
      "d": 222.71346093749162,
      "v": 107
    },
    {
      "midi": 39,
      "hit": false,
      "t": 191416.97249999997,
      "d": 80.45669531248859,
      "v": 60
    },
    {
      "midi": 55,
      "hit": false,
      "t": 191416.97249999997,
      "d": 181.90209374998813,
      "v": 64
    },
    {
      "midi": 61,
      "hit": false,
      "t": 191619.86329687503,
      "d": 3450.3095859375608,
      "v": 92
    },
    {
      "midi": 42,
      "hit": false,
      "t": 191640.8519999998,
      "d": 1786.3718437500065,
      "v": 121
    },
    {
      "midi": 61,
      "hit": false,
      "t": 191640.85199999996,
      "d": 263.5248281250242,
      "v": 79
    },
    {
      "midi": 42,
      "hit": false,
      "t": 191640.85199999996,
      "d": 1197.5221171875892,
      "v": 68
    },
    {
      "midi": 54,
      "hit": false,
      "t": 191864.73149999997,
      "d": 364.97022656252375,
      "v": 75
    },
    {
      "midi": 58,
      "hit": false,
      "t": 192088.61099999998,
      "d": 162.07942968752468,
      "v": 68
    },
    {
      "midi": 61,
      "hit": false,
      "t": 192312.4905,
      "d": 425.6042578125198,
      "v": 77
    },
    {
      "midi": 54,
      "hit": false,
      "t": 192536.37000000002,
      "d": 466.4156250000233,
      "v": 68
    },
    {
      "midi": 58,
      "hit": false,
      "t": 192760.24950000003,
      "d": 202.89079687499907,
      "v": 81
    },
    {
      "midi": 61,
      "hit": false,
      "t": 192984.12900000004,
      "d": 223.87950000001,
      "v": 73
    },
    {
      "midi": 54,
      "hit": false,
      "t": 193208.00850000005,
      "d": 222.71346093749162,
      "v": 65
    },
    {
      "midi": 37,
      "hit": false,
      "t": 193431.8879999998,
      "d": 1828.3492499999993,
      "v": 111
    },
    {
      "midi": 61,
      "hit": false,
      "t": 193431.88800000004,
      "d": 446.59296093750163,
      "v": 72
    },
    {
      "midi": 37,
      "hit": false,
      "t": 193431.88800000004,
      "d": 1522.8470156250114,
      "v": 75
    },
    {
      "midi": 53,
      "hit": false,
      "t": 193655.76750000005,
      "d": 446.5929609374725,
      "v": 72
    },
    {
      "midi": 56,
      "hit": false,
      "t": 193879.64700000003,
      "d": 222.71346093749162,
      "v": 87
    },
    {
      "midi": 61,
      "hit": false,
      "t": 194103.5265,
      "d": 466.4156250000233,
      "v": 66
    },
    {
      "midi": 53,
      "hit": false,
      "t": 194327.40600000002,
      "d": 385.9589296875056,
      "v": 70
    },
    {
      "midi": 56,
      "hit": false,
      "t": 194551.28550000003,
      "d": 263.5248281250242,
      "v": 79
    },
    {
      "midi": 61,
      "hit": false,
      "t": 194775.16500000004,
      "d": 223.87950000001,
      "v": 73
    },
    {
      "midi": 53,
      "hit": false,
      "t": 194999.04450000005,
      "d": 181.90209374998813,
      "v": 75
    },
    {
      "midi": 63,
      "hit": false,
      "t": 195171.6182812501,
      "d": 1828.3492500000284,
      "v": 111
    },
    {
      "midi": 39,
      "hit": false,
      "t": 195222.9239999998,
      "d": 3329.0415234375105,
      "v": 127
    },
    {
      "midi": 63,
      "hit": false,
      "t": 195222.92400000003,
      "d": 486.23828906251583,
      "v": 81
    },
    {
      "midi": 39,
      "hit": false,
      "t": 195222.92400000003,
      "d": 1668.6018984375114,
      "v": 75
    },
    {
      "midi": 70,
      "hit": false,
      "t": 195222.92400000006,
      "d": 335.81925000000047,
      "v": 100
    },
    {
      "midi": 70,
      "hit": false,
      "t": 195222.92400000006,
      "d": 335.81925000000047,
      "v": 100
    },
    {
      "midi": 55,
      "hit": false,
      "t": 195446.80350000004,
      "d": 446.59296093750163,
      "v": 61
    },
    {
      "midi": 58,
      "hit": false,
      "t": 195670.68300000005,
      "d": 242.53612499998417,
      "v": 72
    },
    {
      "midi": 70,
      "hit": false,
      "t": 195670.68300000005,
      "d": 223.87950000001,
      "v": 79
    },
    {
      "midi": 70,
      "hit": false,
      "t": 195670.68300000005,
      "d": 223.87950000001,
      "v": 79
    },
    {
      "midi": 63,
      "hit": false,
      "t": 195894.56250000003,
      "d": 471.07978125000955,
      "v": 73
    },
    {
      "midi": 72,
      "hit": false,
      "t": 195894.56250000006,
      "d": 223.87950000001,
      "v": 92
    },
    {
      "midi": 72,
      "hit": false,
      "t": 195894.56250000006,
      "d": 223.87950000001,
      "v": 92
    },
    {
      "midi": 55,
      "hit": false,
      "t": 196118.44200000004,
      "d": 466.4156249999942,
      "v": 62
    },
    {
      "midi": 70,
      "hit": false,
      "t": 196118.44200000007,
      "d": 335.81925000000047,
      "v": 72
    },
    {
      "midi": 70,
      "hit": false,
      "t": 196118.44200000007,
      "d": 335.81925000000047,
      "v": 72
    },
    {
      "midi": 58,
      "hit": false,
      "t": 196342.32150000005,
      "d": 284.51353124997695,
      "v": 73
    },
    {
      "midi": 63,
      "hit": false,
      "t": 196566.20100000003,
      "d": 283.34749218751676,
      "v": 83
    },
    {
      "midi": 67,
      "hit": false,
      "t": 196566.20100000006,
      "d": 1455.2167499999923,
      "v": 85
    },
    {
      "midi": 67,
      "hit": false,
      "t": 196566.20100000006,
      "d": 1455.2167499999923,
      "v": 85
    },
    {
      "midi": 55,
      "hit": false,
      "t": 196790.08050000004,
      "d": 222.71346093749162,
      "v": 66
    },
    {
      "midi": 62,
      "hit": false,
      "t": 196978.9788281251,
      "d": 1807.3605468750175,
      "v": 83
    },
    {
      "midi": 62,
      "hit": false,
      "t": 197013.96000000002,
      "d": 446.59296093750163,
      "v": 66
    },
    {
      "midi": 39,
      "hit": false,
      "t": 197013.96000000002,
      "d": 1441.2242812500335,
      "v": 66
    },
    {
      "midi": 55,
      "hit": false,
      "t": 197237.83950000003,
      "d": 384.7928906249872,
      "v": 56
    },
    {
      "midi": 58,
      "hit": false,
      "t": 197461.719,
      "d": 222.71346093752072,
      "v": 72
    },
    {
      "midi": 62,
      "hit": false,
      "t": 197685.59850000002,
      "d": 284.51353125000605,
      "v": 62
    },
    {
      "midi": 55,
      "hit": false,
      "t": 197909.47800000003,
      "d": 487.4043281250342,
      "v": 67
    },
    {
      "midi": 58,
      "hit": false,
      "t": 198133.35750000004,
      "d": 242.53612500001327,
      "v": 69
    },
    {
      "midi": 62,
      "hit": false,
      "t": 198357.23700000005,
      "d": 363.80418750000536,
      "v": 68
    },
    {
      "midi": 70,
      "hit": false,
      "t": 198357.23700000005,
      "d": 111.93974999999045,
      "v": 95
    },
    {
      "midi": 70,
      "hit": false,
      "t": 198357.23700000005,
      "d": 111.93974999999045,
      "v": 95
    },
    {
      "midi": 41,
      "hit": false,
      "t": 198581.1164999998,
      "d": 242.53612500001327,
      "v": 99
    },
    {
      "midi": 70,
      "hit": false,
      "t": 198581.11650000003,
      "d": 111.93974999999045,
      "v": 85
    },
    {
      "midi": 70,
      "hit": false,
      "t": 198581.11650000003,
      "d": 111.93974999999045,
      "v": 85
    },
    {
      "midi": 39,
      "hit": false,
      "t": 198581.11650000006,
      "d": 141.09072656248463,
      "v": 73
    },
    {
      "midi": 55,
      "hit": false,
      "t": 198581.11650000006,
      "d": 162.07942968749558,
      "v": 67
    },
    {
      "midi": 61,
      "hit": false,
      "t": 198786.33937500013,
      "d": 3576.2418046876264,
      "v": 107
    },
    {
      "midi": 42,
      "hit": false,
      "t": 198804.9959999998,
      "d": 1828.3492499999993,
      "v": 104
    },
    {
      "midi": 70,
      "hit": false,
      "t": 198804.996,
      "d": 447.7589999999909,
      "v": 83
    },
    {
      "midi": 70,
      "hit": false,
      "t": 198804.996,
      "d": 447.7589999999909,
      "v": 83
    },
    {
      "midi": 61,
      "hit": false,
      "t": 198804.99600000007,
      "d": 405.78159374999814,
      "v": 69
    },
    {
      "midi": 42,
      "hit": false,
      "t": 198804.99600000007,
      "d": 1240.665562500013,
      "v": 70
    },
    {
      "midi": 54,
      "hit": false,
      "t": 199028.87550000008,
      "d": 445.42692187498324,
      "v": 66
    },
    {
      "midi": 72,
      "hit": false,
      "t": 199252.755,
      "d": 223.87950000001,
      "v": 94
    },
    {
      "midi": 72,
      "hit": false,
      "t": 199252.755,
      "d": 223.87950000001,
      "v": 94
    },
    {
      "midi": 58,
      "hit": false,
      "t": 199252.75500000006,
      "d": 181.90209374998813,
      "v": 77
    },
    {
      "midi": 73,
      "hit": false,
      "t": 199476.63450000001,
      "d": 2014.9155000000028,
      "v": 77
    },
    {
      "midi": 73,
      "hit": false,
      "t": 199476.63450000001,
      "d": 2014.9155000000028,
      "v": 77
    },
    {
      "midi": 61,
      "hit": false,
      "t": 199476.63450000007,
      "d": 385.9589296875056,
      "v": 65
    },
    {
      "midi": 54,
      "hit": false,
      "t": 199700.51400000008,
      "d": 447.7589999999909,
      "v": 69
    },
    {
      "midi": 58,
      "hit": false,
      "t": 199924.3935000001,
      "d": 223.8794999999809,
      "v": 79
    },
    {
      "midi": 61,
      "hit": false,
      "t": 200148.27300000007,
      "d": 181.90209374998813,
      "v": 51
    },
    {
      "midi": 54,
      "hit": false,
      "t": 200372.15250000005,
      "d": 242.53612500001327,
      "v": 52
    },
    {
      "midi": 37,
      "hit": false,
      "t": 200596.0319999998,
      "d": 1767.7152187500033,
      "v": 111
    },
    {
      "midi": 61,
      "hit": false,
      "t": 200596.03200000006,
      "d": 446.59296093750163,
      "v": 79
    },
    {
      "midi": 37,
      "hit": false,
      "t": 200596.03200000006,
      "d": 1745.560476562503,
      "v": 68
    },
    {
      "midi": 53,
      "hit": false,
      "t": 200819.91150000007,
      "d": 385.9589296874765,
      "v": 77
    },
    {
      "midi": 56,
      "hit": false,
      "t": 201043.79100000006,
      "d": 222.71346093749162,
      "v": 85
    },
    {
      "midi": 61,
      "hit": false,
      "t": 201267.67050000004,
      "d": 242.53612500001327,
      "v": 75
    },
    {
      "midi": 53,
      "hit": false,
      "t": 201491.55000000005,
      "d": 284.51353125000605,
      "v": 83
    },
    {
      "midi": 56,
      "hit": false,
      "t": 201715.42950000006,
      "d": 202.89079687499907,
      "v": 77
    },
    {
      "midi": 61,
      "hit": false,
      "t": 201939.30900000007,
      "d": 243.70216406250256,
      "v": 81
    },
    {
      "midi": 63,
      "hit": false,
      "t": 201941.64107812502,
      "d": 111.93974999999045,
      "v": 87
    },
    {
      "midi": 63,
      "hit": false,
      "t": 201941.64107812502,
      "d": 111.93974999999045,
      "v": 87
    },
    {
      "midi": 63,
      "hit": false,
      "t": 202144.53187500002,
      "d": 223.87950000001,
      "v": 92
    },
    {
      "midi": 63,
      "hit": false,
      "t": 202144.53187500002,
      "d": 223.87950000001,
      "v": 92
    },
    {
      "midi": 53,
      "hit": false,
      "t": 202163.18850000008,
      "d": 222.71346093749162,
      "v": 79
    },
    {
      "midi": 63,
      "hit": false,
      "t": 202382.40384375025,
      "d": 1786.3718437500065,
      "v": 111
    },
    {
      "midi": 39,
      "hit": false,
      "t": 202387.0679999998,
      "d": 3006.0487031250086,
      "v": 124
    },
    {
      "midi": 63,
      "hit": false,
      "t": 202387.06800000006,
      "d": 429.10237500001676,
      "v": 72
    },
    {
      "midi": 39,
      "hit": false,
      "t": 202387.06800000006,
      "d": 1545.0017578125407,
      "v": 70
    },
    {
      "midi": 70,
      "hit": false,
      "t": 202388.23403906252,
      "d": 223.87950000001,
      "v": 81
    },
    {
      "midi": 70,
      "hit": false,
      "t": 202388.23403906252,
      "d": 223.87950000001,
      "v": 81
    },
    {
      "midi": 55,
      "hit": false,
      "t": 202610.94750000007,
      "d": 425.6042578125198,
      "v": 28
    },
    {
      "midi": 70,
      "hit": false,
      "t": 202692.57023437502,
      "d": 223.87950000001,
      "v": 87
    },
    {
      "midi": 70,
      "hit": false,
      "t": 202692.57023437502,
      "d": 223.87950000001,
      "v": 87
    },
    {
      "midi": 58,
      "hit": false,
      "t": 202834.82700000008,
      "d": 223.87950000001,
      "v": 77
    },
    {
      "midi": 70,
      "hit": false,
      "t": 202998.07246875003,
      "d": 335.81925000000047,
      "v": 85
    },
    {
      "midi": 70,
      "hit": false,
      "t": 202998.07246875003,
      "d": 335.81925000000047,
      "v": 85
    },
    {
      "midi": 63,
      "hit": false,
      "t": 203058.7065000001,
      "d": 303.1701562500093,
      "v": 83
    },
    {
      "midi": 72,
      "hit": false,
      "t": 203281.41996093752,
      "d": 335.81925000000047,
      "v": 94
    },
    {
      "midi": 72,
      "hit": false,
      "t": 203281.41996093752,
      "d": 335.81925000000047,
      "v": 94
    },
    {
      "midi": 55,
      "hit": false,
      "t": 203282.5860000001,
      "d": 325.32489843750955,
      "v": 70
    },
    {
      "midi": 58,
      "hit": false,
      "t": 203506.4655000001,
      "d": 181.90209374998813,
      "v": 73
    },
    {
      "midi": 70,
      "hit": false,
      "t": 203585.75615625002,
      "d": 335.81925000000047,
      "v": 79
    },
    {
      "midi": 70,
      "hit": false,
      "t": 203585.75615625002,
      "d": 335.81925000000047,
      "v": 79
    },
    {
      "midi": 63,
      "hit": false,
      "t": 203730.3450000001,
      "d": 202.89079687499907,
      "v": 83
    },
    {
      "midi": 67,
      "hit": false,
      "t": 203950.7263828125,
      "d": 1343.2770000000019,
      "v": 86
    },
    {
      "midi": 67,
      "hit": false,
      "t": 203950.7263828125,
      "d": 1343.2770000000019,
      "v": 86
    },
    {
      "midi": 55,
      "hit": false,
      "t": 203954.2245000001,
      "d": 222.71346093749162,
      "v": 66
    },
    {
      "midi": 62,
      "hit": false,
      "t": 204148.95302343776,
      "d": 1806.194507812499,
      "v": 92
    },
    {
      "midi": 62,
      "hit": false,
      "t": 204178.10400000008,
      "d": 466.4156250000233,
      "v": 65
    },
    {
      "midi": 39,
      "hit": false,
      "t": 204178.10400000008,
      "d": 1461.046945312526,
      "v": 72
    },
    {
      "midi": 55,
      "hit": false,
      "t": 204401.9835000001,
      "d": 445.42692187501234,
      "v": 58
    },
    {
      "midi": 58,
      "hit": false,
      "t": 204625.8630000001,
      "d": 201.72475781250978,
      "v": 70
    },
    {
      "midi": 62,
      "hit": false,
      "t": 204849.7425000001,
      "d": 242.53612500001327,
      "v": 68
    },
    {
      "midi": 55,
      "hit": false,
      "t": 205073.62200000012,
      "d": 363.80418750000536,
      "v": 59
    },
    {
      "midi": 58,
      "hit": false,
      "t": 205297.50150000013,
      "d": 222.71346093749162,
      "v": 73
    },
    {
      "midi": 39,
      "hit": false,
      "t": 205521.3809999998,
      "d": 202.89079687499907,
      "v": 104
    },
    {
      "midi": 62,
      "hit": false,
      "t": 205521.3810000001,
      "d": 324.15885937499115,
      "v": 61
    },
    {
      "midi": 63,
      "hit": false,
      "t": 205735.9321875,
      "d": 223.87950000001,
      "v": 104
    },
    {
      "midi": 63,
      "hit": false,
      "t": 205735.9321875,
      "d": 223.87950000001,
      "v": 104
    },
    {
      "midi": 41,
      "hit": false,
      "t": 205745.2604999998,
      "d": 201.72475781250978,
      "v": 105
    },
    {
      "midi": 39,
      "hit": false,
      "t": 205745.2605000001,
      "d": 141.09072656251374,
      "v": 69
    },
    {
      "midi": 55,
      "hit": false,
      "t": 205745.2605000001,
      "d": 141.09072656251374,
      "v": 56
    },
    {
      "midi": 61,
      "hit": false,
      "t": 205955.14753125026,
      "d": 3572.743687500013,
      "v": 114
    },
    {
      "midi": 70,
      "hit": false,
      "t": 205959.8116875,
      "d": 111.93974999999045,
      "v": 89
    },
    {
      "midi": 70,
      "hit": false,
      "t": 205959.8116875,
      "d": 111.93974999999045,
      "v": 89
    },
    {
      "midi": 42,
      "hit": false,
      "t": 205969.1399999998,
      "d": 1747.8925546875107,
      "v": 97
    },
    {
      "midi": 61,
      "hit": false,
      "t": 205969.1400000001,
      "d": 385.9589296875056,
      "v": 68
    },
    {
      "midi": 42,
      "hit": false,
      "t": 205969.1400000001,
      "d": 1623.1263750000217,
      "v": 72
    },
    {
      "midi": 70,
      "hit": false,
      "t": 206182.5251484375,
      "d": 111.93974999999045,
      "v": 95
    },
    {
      "midi": 70,
      "hit": false,
      "t": 206182.5251484375,
      "d": 111.93974999999045,
      "v": 95
    },
    {
      "midi": 54,
      "hit": false,
      "t": 206193.0195000001,
      "d": 304.3361953124986,
      "v": 72
    },
    {
      "midi": 70,
      "hit": false,
      "t": 206384.24990624998,
      "d": 223.87950000001,
      "v": 89
    },
    {
      "midi": 70,
      "hit": false,
      "t": 206384.24990624998,
      "d": 223.87950000001,
      "v": 89
    },
    {
      "midi": 58,
      "hit": false,
      "t": 206416.89900000012,
      "d": 201.72475781248068,
      "v": 79
    },
    {
      "midi": 72,
      "hit": false,
      "t": 206608.12940625,
      "d": 223.87950000001,
      "v": 97
    },
    {
      "midi": 72,
      "hit": false,
      "t": 206608.12940625,
      "d": 223.87950000001,
      "v": 97
    },
    {
      "midi": 61,
      "hit": false,
      "t": 206640.7785000001,
      "d": 263.5248281250242,
      "v": 69
    },
    {
      "midi": 73,
      "hit": false,
      "t": 206832.00890625,
      "d": 447.7589999999909,
      "v": 104
    },
    {
      "midi": 73,
      "hit": false,
      "t": 206832.00890625,
      "d": 447.7589999999909,
      "v": 104
    },
    {
      "midi": 54,
      "hit": false,
      "t": 206864.6580000001,
      "d": 324.15885937502026,
      "v": 62
    },
    {
      "midi": 58,
      "hit": false,
      "t": 207088.53750000012,
      "d": 181.90209375001723,
      "v": 81
    },
    {
      "midi": 70,
      "hit": false,
      "t": 207298.42453125,
      "d": 783.5782499999914,
      "v": 107
    },
    {
      "midi": 70,
      "hit": false,
      "t": 207298.42453125,
      "d": 783.5782499999914,
      "v": 107
    },
    {
      "midi": 61,
      "hit": false,
      "t": 207312.41700000013,
      "d": 181.90209374998813,
      "v": 66
    },
    {
      "midi": 54,
      "hit": false,
      "t": 207536.2965000001,
      "d": 181.90209375001723,
      "v": 62
    },
    {
      "midi": 37,
      "hit": false,
      "t": 207760.17599999983,
      "d": 1847.0058750000026,
      "v": 124
    },
    {
      "midi": 61,
      "hit": false,
      "t": 207760.17600000012,
      "d": 446.59296093750163,
      "v": 72
    },
    {
      "midi": 37,
      "hit": false,
      "t": 207760.17600000012,
      "d": 1645.2811171875219,
      "v": 66
    },
    {
      "midi": 53,
      "hit": false,
      "t": 207984.05550000013,
      "d": 364.97022656249464,
      "v": 83
    },
    {
      "midi": 68,
      "hit": false,
      "t": 208170.62175,
      "d": 111.93974999999045,
      "v": 95
    },
    {
      "midi": 68,
      "hit": false,
      "t": 208170.62175,
      "d": 111.93974999999045,
      "v": 95
    },
    {
      "midi": 56,
      "hit": false,
      "t": 208207.9350000001,
      "d": 222.71346093752072,
      "v": 89
    },
    {
      "midi": 68,
      "hit": false,
      "t": 208394.50124999997,
      "d": 111.93974999999045,
      "v": 95
    },
    {
      "midi": 68,
      "hit": false,
      "t": 208394.50124999997,
      "d": 111.93974999999045,
      "v": 95
    },
    {
      "midi": 61,
      "hit": false,
      "t": 208431.81450000012,
      "d": 242.53612500001327,
      "v": 70
    },
    {
      "midi": 68,
      "hit": false,
      "t": 208638.20341406247,
      "d": 223.87950000001,
      "v": 89
    },
    {
      "midi": 68,
      "hit": false,
      "t": 208638.20341406247,
      "d": 223.87950000001,
      "v": 89
    },
    {
      "midi": 53,
      "hit": false,
      "t": 208655.69400000013,
      "d": 264.6908671875135,
      "v": 68
    },
    {
      "midi": 70,
      "hit": false,
      "t": 208841.09421093747,
      "d": 223.87950000001,
      "v": 95
    },
    {
      "midi": 70,
      "hit": false,
      "t": 208841.09421093747,
      "d": 223.87950000001,
      "v": 95
    },
    {
      "midi": 56,
      "hit": false,
      "t": 208879.57350000014,
      "d": 243.70216406250256,
      "v": 83
    },
    {
      "midi": 68,
      "hit": false,
      "t": 209064.97371093748,
      "d": 223.8794999999809,
      "v": 92
    },
    {
      "midi": 68,
      "hit": false,
      "t": 209064.97371093748,
      "d": 223.8794999999809,
      "v": 92
    },
    {
      "midi": 61,
      "hit": false,
      "t": 209103.45300000015,
      "d": 223.8794999999809,
      "v": 69
    },
    {
      "midi": 70,
      "hit": false,
      "t": 209287.68717187498,
      "d": 2574.614249999984,
      "v": 104
    },
    {
      "midi": 70,
      "hit": false,
      "t": 209287.68717187498,
      "d": 2574.614249999984,
      "v": 104
    },
    {
      "midi": 53,
      "hit": false,
      "t": 209327.33250000014,
      "d": 162.07942968749558,
      "v": 77
    },
    {
      "midi": 39,
      "hit": false,
      "t": 209551.21199999982,
      "d": 3006.0487031250086,
      "v": 118
    },
    {
      "midi": 63,
      "hit": false,
      "t": 209551.21200000015,
      "d": 425.6042578125198,
      "v": 79
    },
    {
      "midi": 39,
      "hit": false,
      "t": 209551.21200000015,
      "d": 1642.9490390625433,
      "v": 70
    },
    {
      "midi": 63,
      "hit": false,
      "t": 209567.5365468753,
      "d": 1627.7905312500661,
      "v": 111
    },
    {
      "midi": 55,
      "hit": false,
      "t": 209775.09150000016,
      "d": 405.78159374999814,
      "v": 50
    },
    {
      "midi": 58,
      "hit": false,
      "t": 209998.97100000017,
      "d": 201.72475781248068,
      "v": 81
    },
    {
      "midi": 63,
      "hit": false,
      "t": 210222.85050000015,
      "d": 507.2269921875268,
      "v": 81
    },
    {
      "midi": 55,
      "hit": false,
      "t": 210446.73000000016,
      "d": 466.4156250000233,
      "v": 70
    },
    {
      "midi": 58,
      "hit": false,
      "t": 210670.60950000017,
      "d": 223.87950000001,
      "v": 72
    },
    {
      "midi": 63,
      "hit": false,
      "t": 210894.48900000018,
      "d": 263.5248281250242,
      "v": 85
    },
    {
      "midi": 55,
      "hit": false,
      "t": 211118.3685000002,
      "d": 202.89079687499907,
      "v": 70
    },
    {
      "midi": 75,
      "hit": false,
      "t": 211342.24800000034,
      "d": 167.90962500000023,
      "v": 114
    },
    {
      "midi": 72,
      "hit": false,
      "t": 211454.18775000033,
      "d": 74.62650000001304,
      "v": 107
    },
    {
      "midi": 70,
      "hit": false,
      "t": 211566.12750000035,
      "d": 167.90962500000023,
      "v": 100
    },
    {
      "midi": 67,
      "hit": false,
      "t": 211678.06725000034,
      "d": 111.93975000001956,
      "v": 99
    },
    {
      "midi": 72,
      "hit": false,
      "t": 211790.00700000036,
      "d": 130.5963749999937,
      "v": 115
    },
    {
      "midi": 70,
      "hit": false,
      "t": 211901.94675000035,
      "d": 130.5963749999937,
      "v": 107
    },
    {
      "midi": 67,
      "hit": false,
      "t": 212013.88650000034,
      "d": 93.2831250000163,
      "v": 99
    },
    {
      "midi": 65,
      "hit": false,
      "t": 212125.82625000036,
      "d": 130.5963749999937,
      "v": 88
    },
    {
      "midi": 67,
      "hit": false,
      "t": 212237.76600000035,
      "d": 51.30571874999441,
      "v": 86
    },
    {
      "midi": 65,
      "hit": false,
      "t": 212349.70575000034,
      "d": 93.2831249999872,
      "v": 92
    },
    {
      "midi": 63,
      "hit": false,
      "t": 212461.64550000033,
      "d": 93.2831249999872,
      "v": 77
    },
    {
      "midi": 60,
      "hit": false,
      "t": 212573.58525000032,
      "d": 111.93974999999045,
      "v": 105
    },
    {
      "midi": 65,
      "hit": false,
      "t": 212685.5250000003,
      "d": 111.93974999999045,
      "v": 92
    },
    {
      "midi": 63,
      "hit": false,
      "t": 212797.4647500003,
      "d": 111.93974999999045,
      "v": 100
    },
    {
      "midi": 60,
      "hit": false,
      "t": 212918.7328125003,
      "d": 93.2831249999872,
      "v": 103
    },
    {
      "midi": 58,
      "hit": false,
      "t": 213026.00840625027,
      "d": 111.93974999999045,
      "v": 118
    },
    {
      "midi": 44,
      "hit": false,
      "t": 213133.28399999984,
      "d": 587.6836874999863,
      "v": 125
    },
    {
      "midi": 75,
      "hit": false,
      "t": 213142.6123125001,
      "d": 1542.669679687504,
      "v": 123
    },
    {
      "midi": 68,
      "hit": false,
      "t": 213142.6123125001,
      "d": 1562.4923437499965,
      "v": 127
    },
    {
      "midi": 72,
      "hit": false,
      "t": 213142.6123125001,
      "d": 1562.4923437499965,
      "v": 127
    },
    {
      "midi": 44,
      "hit": false,
      "t": 213142.61231250025,
      "d": 1766.549179687514,
      "v": 127
    },
    {
      "midi": 75,
      "hit": false,
      "t": 213581.04299999995,
      "d": 111.93974999999045,
      "v": 121
    },
    {
      "midi": 75,
      "hit": false,
      "t": 213581.04299999995,
      "d": 111.93974999999045,
      "v": 121
    },
    {
      "midi": 44,
      "hit": false,
      "t": 213804.9224999998,
      "d": 669.3064218749932,
      "v": 117
    },
    {
      "midi": 75,
      "hit": false,
      "t": 213804.92249999993,
      "d": 335.81925000000047,
      "v": 97
    },
    {
      "midi": 75,
      "hit": false,
      "t": 213804.92249999993,
      "d": 335.81925000000047,
      "v": 97
    },
    {
      "midi": 75,
      "hit": false,
      "t": 214252.68149999992,
      "d": 223.87950000001,
      "v": 85
    },
    {
      "midi": 75,
      "hit": false,
      "t": 214252.68149999992,
      "d": 223.87950000001,
      "v": 85
    },
    {
      "midi": 32,
      "hit": false,
      "t": 214476.5609999998,
      "d": 425.6042578124907,
      "v": 120
    },
    {
      "midi": 72,
      "hit": false,
      "t": 214476.56099999993,
      "d": 447.7589999999909,
      "v": 115
    },
    {
      "midi": 72,
      "hit": false,
      "t": 214476.56099999993,
      "d": 447.7589999999909,
      "v": 115
    },
    {
      "midi": 73,
      "hit": false,
      "t": 214909.1614921876,
      "d": 1663.937742187496,
      "v": 127
    },
    {
      "midi": 37,
      "hit": false,
      "t": 214924.3199999998,
      "d": 567.8610234374937,
      "v": 109
    },
    {
      "midi": 70,
      "hit": false,
      "t": 214924.31999999992,
      "d": 671.6385000000009,
      "v": 97
    },
    {
      "midi": 70,
      "hit": false,
      "t": 214924.31999999992,
      "d": 671.6385000000009,
      "v": 97
    },
    {
      "midi": 78,
      "hit": false,
      "t": 214928.98415625008,
      "d": 690.2951250000042,
      "v": 127
    },
    {
      "midi": 68,
      "hit": false,
      "t": 214928.98415625008,
      "d": 1623.1263749999925,
      "v": 120
    },
    {
      "midi": 49,
      "hit": false,
      "t": 214928.98415625026,
      "d": 1725.7378125000105,
      "v": 127
    },
    {
      "midi": 46,
      "hit": false,
      "t": 214948.80682031275,
      "d": 20.988703125010943,
      "v": 72
    },
    {
      "midi": 77,
      "hit": false,
      "t": 215578.46791406258,
      "d": 1015.6200234375137,
      "v": 125
    },
    {
      "midi": 37,
      "hit": false,
      "t": 215595.9584999998,
      "d": 567.8610234374937,
      "v": 115
    },
    {
      "midi": 68,
      "hit": false,
      "t": 215595.95849999992,
      "d": 895.5180000000109,
      "v": 95
    },
    {
      "midi": 68,
      "hit": false,
      "t": 215595.95849999992,
      "d": 895.5180000000109,
      "v": 95
    },
    {
      "midi": 37,
      "hit": false,
      "t": 216267.5969999998,
      "d": 425.6042578124907,
      "v": 101
    },
    {
      "midi": 44,
      "hit": false,
      "t": 216694.36729687528,
      "d": 1807.3605468749884,
      "v": 127
    },
    {
      "midi": 44,
      "hit": false,
      "t": 216715.3559999998,
      "d": 546.8723203125119,
      "v": 112
    },
    {
      "midi": 68,
      "hit": false,
      "t": 216715.35599999994,
      "d": 111.93974999999045,
      "v": 100
    },
    {
      "midi": 68,
      "hit": false,
      "t": 216715.35599999994,
      "d": 111.93974999999045,
      "v": 100
    },
    {
      "midi": 68,
      "hit": false,
      "t": 216715.3560000001,
      "d": 1645.2811171875219,
      "v": 125
    },
    {
      "midi": 72,
      "hit": false,
      "t": 216715.3560000001,
      "d": 1684.926445312536,
      "v": 127
    },
    {
      "midi": 75,
      "hit": false,
      "t": 216736.3447031251,
      "d": 1663.9377421875251,
      "v": 120
    },
    {
      "midi": 68,
      "hit": false,
      "t": 216939.23549999992,
      "d": 111.93974999999045,
      "v": 97
    },
    {
      "midi": 68,
      "hit": false,
      "t": 216939.23549999992,
      "d": 111.93974999999045,
      "v": 97
    },
    {
      "midi": 68,
      "hit": false,
      "t": 217163.1149999999,
      "d": 223.87950000001,
      "v": 95
    },
    {
      "midi": 68,
      "hit": false,
      "t": 217163.1149999999,
      "d": 223.87950000001,
      "v": 95
    },
    {
      "midi": 44,
      "hit": false,
      "t": 217386.9944999998,
      "d": 628.4950546874898,
      "v": 115
    },
    {
      "midi": 70,
      "hit": false,
      "t": 217386.9944999999,
      "d": 223.87950000001,
      "v": 100
    },
    {
      "midi": 70,
      "hit": false,
      "t": 217386.9944999999,
      "d": 223.87950000001,
      "v": 100
    },
    {
      "midi": 68,
      "hit": false,
      "t": 217610.87399999992,
      "d": 447.7589999999909,
      "v": 104
    },
    {
      "midi": 68,
      "hit": false,
      "t": 217610.87399999992,
      "d": 447.7589999999909,
      "v": 104
    },
    {
      "midi": 32,
      "hit": false,
      "t": 218058.6329999998,
      "d": 425.6042578124907,
      "v": 109
    },
    {
      "midi": 63,
      "hit": false,
      "t": 218058.6329999999,
      "d": 223.87950000001,
      "v": 92
    },
    {
      "midi": 63,
      "hit": false,
      "t": 218058.6329999999,
      "d": 223.87950000001,
      "v": 92
    },
    {
      "midi": 63,
      "hit": false,
      "t": 218282.51249999992,
      "d": 223.87950000001,
      "v": 83
    },
    {
      "midi": 63,
      "hit": false,
      "t": 218282.51249999992,
      "d": 223.87950000001,
      "v": 83
    },
    {
      "midi": 68,
      "hit": false,
      "t": 218481.90517968763,
      "d": 852.3745546874707,
      "v": 117
    },
    {
      "midi": 73,
      "hit": false,
      "t": 218481.90517968763,
      "d": 852.3745546874707,
      "v": 127
    },
    {
      "midi": 77,
      "hit": false,
      "t": 218501.72784375012,
      "d": 812.7292265624856,
      "v": 127
    },
    {
      "midi": 41,
      "hit": false,
      "t": 218501.72784375027,
      "d": 893.1859218750033,
      "v": 127
    },
    {
      "midi": 41,
      "hit": false,
      "t": 218506.3919999998,
      "d": 669.3064218749932,
      "v": 117
    },
    {
      "midi": 68,
      "hit": false,
      "t": 218506.39199999993,
      "d": 111.93974999999045,
      "v": 85
    },
    {
      "midi": 68,
      "hit": false,
      "t": 218506.39199999993,
      "d": 111.93974999999045,
      "v": 85
    },
    {
      "midi": 68,
      "hit": false,
      "t": 218730.27149999992,
      "d": 111.93974999999045,
      "v": 87
    },
    {
      "midi": 68,
      "hit": false,
      "t": 218730.27149999992,
      "d": 111.93974999999045,
      "v": 87
    },
    {
      "midi": 68,
      "hit": false,
      "t": 218954.1509999999,
      "d": 111.93974999999045,
      "v": 87
    },
    {
      "midi": 68,
      "hit": false,
      "t": 218954.1509999999,
      "d": 111.93974999999045,
      "v": 87
    },
    {
      "midi": 41,
      "hit": false,
      "t": 219178.0304999998,
      "d": 202.89079687499907,
      "v": 99
    },
    {
      "midi": 68,
      "hit": false,
      "t": 219178.03049999988,
      "d": 223.87950000001,
      "v": 87
    },
    {
      "midi": 68,
      "hit": false,
      "t": 219178.03049999988,
      "d": 223.87950000001,
      "v": 87
    },
    {
      "midi": 39,
      "hit": false,
      "t": 219394.91376562527,
      "d": 851.2085156250105,
      "v": 127
    },
    {
      "midi": 39,
      "hit": false,
      "t": 219401.9099999998,
      "d": 852.3745546874998,
      "v": 105
    },
    {
      "midi": 67,
      "hit": false,
      "t": 219401.9099999999,
      "d": 223.87950000001,
      "v": 94
    },
    {
      "midi": 67,
      "hit": false,
      "t": 219401.9099999999,
      "d": 223.87950000001,
      "v": 94
    },
    {
      "midi": 67,
      "hit": false,
      "t": 219415.9024687501,
      "d": 710.1177890624967,
      "v": 127
    },
    {
      "midi": 70,
      "hit": false,
      "t": 219415.9024687501,
      "d": 731.1064921875077,
      "v": 125
    },
    {
      "midi": 75,
      "hit": false,
      "t": 219415.9024687501,
      "d": 750.9291562500002,
      "v": 117
    },
    {
      "midi": 65,
      "hit": false,
      "t": 219625.7894999999,
      "d": 223.87950000001,
      "v": 99
    },
    {
      "midi": 65,
      "hit": false,
      "t": 219625.7894999999,
      "d": 223.87950000001,
      "v": 99
    },
    {
      "midi": 63,
      "hit": false,
      "t": 219849.6689999999,
      "d": 223.87950000001,
      "v": 97
    },
    {
      "midi": 63,
      "hit": false,
      "t": 219849.6689999999,
      "d": 223.87950000001,
      "v": 97
    },
    {
      "midi": 44,
      "hit": false,
      "t": 220297.4279999998,
      "d": 587.6836874999863,
      "v": 125
    },
    {
      "midi": 75,
      "hit": false,
      "t": 220306.7563125001,
      "d": 1542.669679687504,
      "v": 123
    },
    {
      "midi": 68,
      "hit": false,
      "t": 220306.7563125001,
      "d": 1562.4923437499965,
      "v": 127
    },
    {
      "midi": 72,
      "hit": false,
      "t": 220306.7563125001,
      "d": 1562.4923437499965,
      "v": 127
    },
    {
      "midi": 44,
      "hit": false,
      "t": 220306.75631250028,
      "d": 1725.7378125000105,
      "v": 127
    },
    {
      "midi": 75,
      "hit": false,
      "t": 220745.18699999992,
      "d": 111.93974999999045,
      "v": 104
    },
    {
      "midi": 75,
      "hit": false,
      "t": 220745.18699999992,
      "d": 111.93974999999045,
      "v": 104
    },
    {
      "midi": 44,
      "hit": false,
      "t": 220969.06649999978,
      "d": 669.3064218749932,
      "v": 117
    },
    {
      "midi": 75,
      "hit": false,
      "t": 220969.0664999999,
      "d": 335.81925000000047,
      "v": 104
    },
    {
      "midi": 75,
      "hit": false,
      "t": 220969.0664999999,
      "d": 335.81925000000047,
      "v": 104
    },
    {
      "midi": 75,
      "hit": false,
      "t": 221416.8254999999,
      "d": 223.87950000001,
      "v": 111
    },
    {
      "midi": 75,
      "hit": false,
      "t": 221416.8254999999,
      "d": 223.87950000001,
      "v": 111
    },
    {
      "midi": 32,
      "hit": false,
      "t": 221640.70499999978,
      "d": 425.6042578124907,
      "v": 120
    },
    {
      "midi": 77,
      "hit": false,
      "t": 221640.7049999999,
      "d": 447.7589999999909,
      "v": 99
    },
    {
      "midi": 77,
      "hit": false,
      "t": 221640.7049999999,
      "d": 447.7589999999909,
      "v": 99
    },
    {
      "midi": 73,
      "hit": false,
      "t": 222073.3054921876,
      "d": 1663.937742187496,
      "v": 127
    },
    {
      "midi": 37,
      "hit": false,
      "t": 222088.46399999977,
      "d": 567.8610234374937,
      "v": 109
    },
    {
      "midi": 68,
      "hit": false,
      "t": 222088.4639999999,
      "d": 1231.3372500000114,
      "v": 111
    },
    {
      "midi": 68,
      "hit": false,
      "t": 222088.4639999999,
      "d": 1231.3372500000114,
      "v": 111
    },
    {
      "midi": 78,
      "hit": false,
      "t": 222093.12815625008,
      "d": 690.2951250000042,
      "v": 127
    },
    {
      "midi": 68,
      "hit": false,
      "t": 222093.12815625008,
      "d": 1623.1263749999925,
      "v": 120
    },
    {
      "midi": 49,
      "hit": false,
      "t": 222093.12815625028,
      "d": 1725.7378125000105,
      "v": 127
    },
    {
      "midi": 46,
      "hit": false,
      "t": 222112.95082031278,
      "d": 20.988703125010943,
      "v": 72
    },
    {
      "midi": 77,
      "hit": false,
      "t": 222742.61191406258,
      "d": 1015.6200234375137,
      "v": 125
    },
    {
      "midi": 37,
      "hit": false,
      "t": 222760.10249999978,
      "d": 567.8610234374937,
      "v": 115
    },
    {
      "midi": 37,
      "hit": false,
      "t": 223431.74099999978,
      "d": 425.6042578124907,
      "v": 101
    },
    {
      "midi": 63,
      "hit": false,
      "t": 223655.6204999999,
      "d": 223.87950000001,
      "v": 87
    },
    {
      "midi": 63,
      "hit": false,
      "t": 223655.6204999999,
      "d": 223.87950000001,
      "v": 87
    },
    {
      "midi": 44,
      "hit": false,
      "t": 223858.5112968753,
      "d": 1807.3605468749884,
      "v": 127
    },
    {
      "midi": 44,
      "hit": false,
      "t": 223879.49999999977,
      "d": 546.8723203125119,
      "v": 112
    },
    {
      "midi": 68,
      "hit": false,
      "t": 223879.4999999999,
      "d": 111.93974999999045,
      "v": 92
    },
    {
      "midi": 68,
      "hit": false,
      "t": 223879.4999999999,
      "d": 111.93974999999045,
      "v": 92
    },
    {
      "midi": 68,
      "hit": false,
      "t": 223879.5000000001,
      "d": 1645.2811171875219,
      "v": 125
    },
    {
      "midi": 72,
      "hit": false,
      "t": 223879.5000000001,
      "d": 1684.926445312536,
      "v": 127
    },
    {
      "midi": 75,
      "hit": false,
      "t": 223900.4887031251,
      "d": 1663.9377421875251,
      "v": 120
    },
    {
      "midi": 68,
      "hit": false,
      "t": 224103.3794999999,
      "d": 111.93974999999045,
      "v": 87
    },
    {
      "midi": 68,
      "hit": false,
      "t": 224103.3794999999,
      "d": 111.93974999999045,
      "v": 87
    },
    {
      "midi": 68,
      "hit": false,
      "t": 224327.25899999987,
      "d": 223.87950000001,
      "v": 97
    },
    {
      "midi": 68,
      "hit": false,
      "t": 224327.25899999987,
      "d": 223.87950000001,
      "v": 97
    },
    {
      "midi": 44,
      "hit": false,
      "t": 224551.13849999977,
      "d": 628.4950546874898,
      "v": 115
    },
    {
      "midi": 70,
      "hit": false,
      "t": 224551.13849999988,
      "d": 223.87950000001,
      "v": 97
    },
    {
      "midi": 70,
      "hit": false,
      "t": 224551.13849999988,
      "d": 223.87950000001,
      "v": 97
    },
    {
      "midi": 68,
      "hit": false,
      "t": 224775.0179999999,
      "d": 223.87950000001,
      "v": 111
    },
    {
      "midi": 68,
      "hit": false,
      "t": 224775.0179999999,
      "d": 223.87950000001,
      "v": 111
    },
    {
      "midi": 32,
      "hit": false,
      "t": 225222.77699999977,
      "d": 425.6042578124907,
      "v": 109
    },
    {
      "midi": 68,
      "hit": false,
      "t": 225646.04917968763,
      "d": 852.3745546874707,
      "v": 117
    },
    {
      "midi": 73,
      "hit": false,
      "t": 225646.04917968763,
      "d": 852.3745546874707,
      "v": 127
    },
    {
      "midi": 77,
      "hit": false,
      "t": 225665.87184375012,
      "d": 812.7292265624856,
      "v": 127
    },
    {
      "midi": 41,
      "hit": false,
      "t": 225665.8718437503,
      "d": 893.1859218750033,
      "v": 127
    },
    {
      "midi": 41,
      "hit": false,
      "t": 225670.53599999976,
      "d": 669.3064218749932,
      "v": 117
    },
    {
      "midi": 68,
      "hit": false,
      "t": 225894.41549999992,
      "d": 111.93974999999045,
      "v": 114
    },
    {
      "midi": 68,
      "hit": false,
      "t": 225894.41549999992,
      "d": 111.93974999999045,
      "v": 114
    },
    {
      "midi": 68,
      "hit": false,
      "t": 226118.2949999999,
      "d": 223.87950000001,
      "v": 104
    },
    {
      "midi": 68,
      "hit": false,
      "t": 226118.2949999999,
      "d": 223.87950000001,
      "v": 104
    },
    {
      "midi": 41,
      "hit": false,
      "t": 226342.17449999976,
      "d": 202.89079687499907,
      "v": 99
    },
    {
      "midi": 70,
      "hit": false,
      "t": 226342.1744999999,
      "d": 223.87950000001,
      "v": 107
    },
    {
      "midi": 70,
      "hit": false,
      "t": 226342.1744999999,
      "d": 223.87950000001,
      "v": 107
    },
    {
      "midi": 39,
      "hit": false,
      "t": 226559.0577656253,
      "d": 851.2085156250105,
      "v": 127
    },
    {
      "midi": 39,
      "hit": false,
      "t": 226566.05399999977,
      "d": 852.3745546874998,
      "v": 105
    },
    {
      "midi": 72,
      "hit": false,
      "t": 226566.05399999992,
      "d": 223.87950000001,
      "v": 105
    },
    {
      "midi": 72,
      "hit": false,
      "t": 226566.05399999992,
      "d": 223.87950000001,
      "v": 105
    },
    {
      "midi": 67,
      "hit": false,
      "t": 226580.0464687501,
      "d": 710.1177890624967,
      "v": 127
    },
    {
      "midi": 70,
      "hit": false,
      "t": 226580.0464687501,
      "d": 731.1064921875077,
      "v": 125
    },
    {
      "midi": 75,
      "hit": false,
      "t": 226580.0464687501,
      "d": 750.9291562500002,
      "v": 117
    },
    {
      "midi": 70,
      "hit": false,
      "t": 226789.93349999993,
      "d": 223.87950000001,
      "v": 97
    },
    {
      "midi": 70,
      "hit": false,
      "t": 226789.93349999993,
      "d": 223.87950000001,
      "v": 97
    },
    {
      "midi": 68,
      "hit": false,
      "t": 227013.81299999994,
      "d": 223.87950000001,
      "v": 104
    },
    {
      "midi": 68,
      "hit": false,
      "t": 227013.81299999994,
      "d": 223.87950000001,
      "v": 104
    },
    {
      "midi": 70,
      "hit": false,
      "t": 227237.69249999995,
      "d": 111.93974999999045,
      "v": 95
    },
    {
      "midi": 70,
      "hit": false,
      "t": 227237.69249999995,
      "d": 111.93974999999045,
      "v": 95
    },
    {
      "midi": 44,
      "hit": false,
      "t": 227461.57199999978,
      "d": 587.6836874999863,
      "v": 125
    },
    {
      "midi": 68,
      "hit": false,
      "t": 227461.57199999993,
      "d": 223.87950000001,
      "v": 111
    },
    {
      "midi": 68,
      "hit": false,
      "t": 227461.57199999993,
      "d": 223.87950000001,
      "v": 111
    },
    {
      "midi": 75,
      "hit": false,
      "t": 227470.9003125001,
      "d": 1542.669679687504,
      "v": 123
    },
    {
      "midi": 68,
      "hit": false,
      "t": 227470.9003125001,
      "d": 1562.4923437499965,
      "v": 127
    },
    {
      "midi": 72,
      "hit": false,
      "t": 227470.9003125001,
      "d": 1562.4923437499965,
      "v": 127
    },
    {
      "midi": 44,
      "hit": false,
      "t": 227470.9003125003,
      "d": 1725.7378125000105,
      "v": 127
    },
    {
      "midi": 75,
      "hit": false,
      "t": 227909.33099999995,
      "d": 111.93974999999045,
      "v": 104
    },
    {
      "midi": 75,
      "hit": false,
      "t": 227909.33099999995,
      "d": 111.93974999999045,
      "v": 104
    },
    {
      "midi": 44,
      "hit": false,
      "t": 228133.21049999975,
      "d": 669.3064218749932,
      "v": 117
    },
    {
      "midi": 75,
      "hit": false,
      "t": 228133.21049999993,
      "d": 335.81925000000047,
      "v": 100
    },
    {
      "midi": 75,
      "hit": false,
      "t": 228133.21049999993,
      "d": 335.81925000000047,
      "v": 100
    },
    {
      "midi": 75,
      "hit": false,
      "t": 228580.96949999992,
      "d": 223.87950000001,
      "v": 92
    },
    {
      "midi": 75,
      "hit": false,
      "t": 228580.96949999992,
      "d": 223.87950000001,
      "v": 92
    },
    {
      "midi": 32,
      "hit": false,
      "t": 228804.84899999975,
      "d": 425.6042578124907,
      "v": 120
    },
    {
      "midi": 72,
      "hit": false,
      "t": 228804.84899999993,
      "d": 447.7589999999909,
      "v": 91
    },
    {
      "midi": 72,
      "hit": false,
      "t": 228804.84899999993,
      "d": 447.7589999999909,
      "v": 91
    },
    {
      "midi": 73,
      "hit": false,
      "t": 229237.4494921876,
      "d": 1663.937742187496,
      "v": 127
    },
    {
      "midi": 37,
      "hit": false,
      "t": 229252.60799999975,
      "d": 567.8610234374937,
      "v": 109
    },
    {
      "midi": 70,
      "hit": false,
      "t": 229252.60799999992,
      "d": 671.6385000000009,
      "v": 100
    },
    {
      "midi": 70,
      "hit": false,
      "t": 229252.60799999992,
      "d": 671.6385000000009,
      "v": 100
    },
    {
      "midi": 78,
      "hit": false,
      "t": 229257.27215625008,
      "d": 690.2951250000042,
      "v": 127
    },
    {
      "midi": 68,
      "hit": false,
      "t": 229257.27215625008,
      "d": 1623.1263749999925,
      "v": 120
    },
    {
      "midi": 49,
      "hit": false,
      "t": 229257.2721562503,
      "d": 1725.7378125000105,
      "v": 127
    },
    {
      "midi": 46,
      "hit": false,
      "t": 229277.0948203128,
      "d": 20.988703125010943,
      "v": 72
    },
    {
      "midi": 77,
      "hit": false,
      "t": 229906.75591406258,
      "d": 1015.6200234375137,
      "v": 125
    },
    {
      "midi": 37,
      "hit": false,
      "t": 229924.24649999975,
      "d": 567.8610234374937,
      "v": 115
    },
    {
      "midi": 68,
      "hit": false,
      "t": 229924.24649999992,
      "d": 895.5180000000109,
      "v": 97
    },
    {
      "midi": 68,
      "hit": false,
      "t": 229924.24649999992,
      "d": 895.5180000000109,
      "v": 97
    },
    {
      "midi": 37,
      "hit": false,
      "t": 230595.88499999975,
      "d": 425.6042578124907,
      "v": 101
    },
    {
      "midi": 44,
      "hit": false,
      "t": 231022.65529687534,
      "d": 1807.3605468749884,
      "v": 127
    },
    {
      "midi": 44,
      "hit": false,
      "t": 231043.64399999974,
      "d": 546.8723203125119,
      "v": 112
    },
    {
      "midi": 68,
      "hit": false,
      "t": 231043.64399999994,
      "d": 335.81925000000047,
      "v": 111
    },
    {
      "midi": 68,
      "hit": false,
      "t": 231043.64399999994,
      "d": 335.81925000000047,
      "v": 111
    },
    {
      "midi": 68,
      "hit": false,
      "t": 231043.6440000001,
      "d": 1645.2811171875219,
      "v": 125
    },
    {
      "midi": 72,
      "hit": false,
      "t": 231043.6440000001,
      "d": 1684.926445312536,
      "v": 127
    },
    {
      "midi": 75,
      "hit": false,
      "t": 231064.6327031251,
      "d": 1663.9377421875251,
      "v": 120
    },
    {
      "midi": 68,
      "hit": false,
      "t": 231491.40299999993,
      "d": 335.81925000000047,
      "v": 95
    },
    {
      "midi": 68,
      "hit": false,
      "t": 231491.40299999993,
      "d": 335.81925000000047,
      "v": 95
    },
    {
      "midi": 44,
      "hit": false,
      "t": 231715.28249999974,
      "d": 628.4950546874898,
      "v": 115
    },
    {
      "midi": 68,
      "hit": false,
      "t": 231939.16199999992,
      "d": 335.81925000000047,
      "v": 87
    },
    {
      "midi": 68,
      "hit": false,
      "t": 231939.16199999992,
      "d": 335.81925000000047,
      "v": 87
    },
    {
      "midi": 32,
      "hit": false,
      "t": 232386.92099999974,
      "d": 425.6042578124907,
      "v": 109
    },
    {
      "midi": 68,
      "hit": false,
      "t": 232386.92099999991,
      "d": 335.81925000000047,
      "v": 95
    },
    {
      "midi": 68,
      "hit": false,
      "t": 232386.92099999991,
      "d": 335.81925000000047,
      "v": 95
    },
    {
      "midi": 68,
      "hit": false,
      "t": 232810.19317968763,
      "d": 852.3745546874707,
      "v": 117
    },
    {
      "midi": 73,
      "hit": false,
      "t": 232810.19317968763,
      "d": 852.3745546874707,
      "v": 127
    },
    {
      "midi": 77,
      "hit": false,
      "t": 232830.01584375012,
      "d": 812.7292265624856,
      "v": 127
    },
    {
      "midi": 41,
      "hit": false,
      "t": 232830.01584375033,
      "d": 893.1859218750033,
      "v": 127
    },
    {
      "midi": 41,
      "hit": false,
      "t": 232834.67999999973,
      "d": 669.3064218749932,
      "v": 117
    },
    {
      "midi": 68,
      "hit": false,
      "t": 232834.6799999999,
      "d": 111.93974999999045,
      "v": 92
    },
    {
      "midi": 68,
      "hit": false,
      "t": 232834.6799999999,
      "d": 111.93974999999045,
      "v": 92
    },
    {
      "midi": 68,
      "hit": false,
      "t": 233058.5594999999,
      "d": 111.93974999999045,
      "v": 92
    },
    {
      "midi": 68,
      "hit": false,
      "t": 233058.5594999999,
      "d": 111.93974999999045,
      "v": 92
    },
    {
      "midi": 68,
      "hit": false,
      "t": 233282.43899999987,
      "d": 111.93974999999045,
      "v": 100
    },
    {
      "midi": 68,
      "hit": false,
      "t": 233282.43899999987,
      "d": 111.93974999999045,
      "v": 100
    },
    {
      "midi": 41,
      "hit": false,
      "t": 233506.31849999973,
      "d": 202.89079687499907,
      "v": 99
    },
    {
      "midi": 68,
      "hit": false,
      "t": 233506.31849999985,
      "d": 223.87950000001,
      "v": 97
    },
    {
      "midi": 68,
      "hit": false,
      "t": 233506.31849999985,
      "d": 223.87950000001,
      "v": 97
    },
    {
      "midi": 39,
      "hit": false,
      "t": 233723.20176562533,
      "d": 851.2085156250105,
      "v": 127
    },
    {
      "midi": 39,
      "hit": false,
      "t": 233730.19799999974,
      "d": 852.3745546874998,
      "v": 105
    },
    {
      "midi": 67,
      "hit": false,
      "t": 233730.19799999986,
      "d": 223.87950000001,
      "v": 94
    },
    {
      "midi": 67,
      "hit": false,
      "t": 233730.19799999986,
      "d": 223.87950000001,
      "v": 94
    },
    {
      "midi": 67,
      "hit": false,
      "t": 233744.1904687501,
      "d": 710.1177890624967,
      "v": 127
    },
    {
      "midi": 70,
      "hit": false,
      "t": 233744.1904687501,
      "d": 731.1064921875077,
      "v": 125
    },
    {
      "midi": 75,
      "hit": false,
      "t": 233744.1904687501,
      "d": 750.9291562500002,
      "v": 117
    },
    {
      "midi": 65,
      "hit": false,
      "t": 233954.07749999987,
      "d": 223.87950000001,
      "v": 88
    },
    {
      "midi": 65,
      "hit": false,
      "t": 233954.07749999987,
      "d": 223.87950000001,
      "v": 88
    },
    {
      "midi": 63,
      "hit": false,
      "t": 234177.95699999988,
      "d": 447.7589999999909,
      "v": 111
    },
    {
      "midi": 63,
      "hit": false,
      "t": 234177.95699999988,
      "d": 447.7589999999909,
      "v": 111
    },
    {
      "midi": 44,
      "hit": false,
      "t": 234625.71599999975,
      "d": 587.6836874999863,
      "v": 125
    },
    {
      "midi": 75,
      "hit": false,
      "t": 234635.0443125001,
      "d": 1542.669679687504,
      "v": 123
    },
    {
      "midi": 68,
      "hit": false,
      "t": 234635.0443125001,
      "d": 1562.4923437499965,
      "v": 127
    },
    {
      "midi": 72,
      "hit": false,
      "t": 234635.0443125001,
      "d": 1562.4923437499965,
      "v": 127
    },
    {
      "midi": 44,
      "hit": false,
      "t": 234635.04431250034,
      "d": 1725.7378125000105,
      "v": 127
    },
    {
      "midi": 75,
      "hit": false,
      "t": 235073.47499999986,
      "d": 111.93974999999045,
      "v": 100
    },
    {
      "midi": 75,
      "hit": false,
      "t": 235073.47499999986,
      "d": 111.93974999999045,
      "v": 100
    },
    {
      "midi": 44,
      "hit": false,
      "t": 235297.35449999972,
      "d": 669.3064218749932,
      "v": 117
    },
    {
      "midi": 75,
      "hit": false,
      "t": 235297.35449999984,
      "d": 335.81925000000047,
      "v": 104
    },
    {
      "midi": 75,
      "hit": false,
      "t": 235297.35449999984,
      "d": 335.81925000000047,
      "v": 104
    },
    {
      "midi": 75,
      "hit": false,
      "t": 235745.11349999983,
      "d": 223.87950000001,
      "v": 92
    },
    {
      "midi": 75,
      "hit": false,
      "t": 235745.11349999983,
      "d": 223.87950000001,
      "v": 92
    },
    {
      "midi": 32,
      "hit": false,
      "t": 235968.99299999973,
      "d": 425.6042578124907,
      "v": 120
    },
    {
      "midi": 77,
      "hit": false,
      "t": 235968.99299999984,
      "d": 447.7589999999909,
      "v": 103
    },
    {
      "midi": 77,
      "hit": false,
      "t": 235968.99299999984,
      "d": 447.7589999999909,
      "v": 103
    },
    {
      "midi": 73,
      "hit": false,
      "t": 236401.5934921876,
      "d": 1663.937742187496,
      "v": 127
    },
    {
      "midi": 37,
      "hit": false,
      "t": 236416.75199999972,
      "d": 567.8610234374937,
      "v": 109
    },
    {
      "midi": 68,
      "hit": false,
      "t": 236416.75199999983,
      "d": 1231.3372500000114,
      "v": 111
    },
    {
      "midi": 68,
      "hit": false,
      "t": 236416.75199999983,
      "d": 1231.3372500000114,
      "v": 111
    },
    {
      "midi": 78,
      "hit": false,
      "t": 236421.41615625008,
      "d": 690.2951250000042,
      "v": 127
    },
    {
      "midi": 68,
      "hit": false,
      "t": 236421.41615625008,
      "d": 1623.1263749999925,
      "v": 120
    },
    {
      "midi": 49,
      "hit": false,
      "t": 236421.41615625034,
      "d": 1725.7378125000105,
      "v": 127
    },
    {
      "midi": 46,
      "hit": false,
      "t": 236441.23882031284,
      "d": 20.988703125010943,
      "v": 72
    },
    {
      "midi": 77,
      "hit": false,
      "t": 237070.89991406258,
      "d": 1015.6200234375137,
      "v": 125
    },
    {
      "midi": 37,
      "hit": false,
      "t": 237088.39049999972,
      "d": 567.8610234374937,
      "v": 115
    },
    {
      "midi": 37,
      "hit": false,
      "t": 237760.02899999972,
      "d": 425.6042578124907,
      "v": 101
    },
    {
      "midi": 68,
      "hit": false,
      "t": 237983.90849999984,
      "d": 111.93974999999045,
      "v": 114
    },
    {
      "midi": 68,
      "hit": false,
      "t": 237983.90849999984,
      "d": 111.93974999999045,
      "v": 114
    },
    {
      "midi": 44,
      "hit": false,
      "t": 238186.79929687537,
      "d": 1807.3605468749884,
      "v": 127
    },
    {
      "midi": 44,
      "hit": false,
      "t": 238207.7879999997,
      "d": 546.8723203125119,
      "v": 112
    },
    {
      "midi": 68,
      "hit": false,
      "t": 238207.78799999983,
      "d": 111.93974999999045,
      "v": 89
    },
    {
      "midi": 68,
      "hit": false,
      "t": 238207.78799999983,
      "d": 111.93974999999045,
      "v": 89
    },
    {
      "midi": 68,
      "hit": false,
      "t": 238207.7880000001,
      "d": 1645.2811171875219,
      "v": 125
    },
    {
      "midi": 72,
      "hit": false,
      "t": 238207.7880000001,
      "d": 1684.926445312536,
      "v": 127
    },
    {
      "midi": 75,
      "hit": false,
      "t": 238228.7767031251,
      "d": 1663.9377421875251,
      "v": 120
    },
    {
      "midi": 68,
      "hit": false,
      "t": 238431.6674999998,
      "d": 111.93974999999045,
      "v": 85
    },
    {
      "midi": 68,
      "hit": false,
      "t": 238431.6674999998,
      "d": 111.93974999999045,
      "v": 85
    },
    {
      "midi": 68,
      "hit": false,
      "t": 238655.5469999998,
      "d": 223.87950000001,
      "v": 100
    },
    {
      "midi": 68,
      "hit": false,
      "t": 238655.5469999998,
      "d": 223.87950000001,
      "v": 100
    },
    {
      "midi": 44,
      "hit": false,
      "t": 238879.4264999997,
      "d": 628.4950546874898,
      "v": 115
    },
    {
      "midi": 72,
      "hit": false,
      "t": 238879.4264999998,
      "d": 223.87950000001,
      "v": 105
    },
    {
      "midi": 72,
      "hit": false,
      "t": 238879.4264999998,
      "d": 223.87950000001,
      "v": 105
    },
    {
      "midi": 75,
      "hit": false,
      "t": 239103.3059999998,
      "d": 2462.6744999999937,
      "v": 104
    },
    {
      "midi": 75,
      "hit": false,
      "t": 239103.3059999998,
      "d": 2462.6744999999937,
      "v": 104
    },
    {
      "midi": 32,
      "hit": false,
      "t": 239551.0649999997,
      "d": 425.6042578124907,
      "v": 109
    },
    {
      "midi": 68,
      "hit": false,
      "t": 239974.33717968763,
      "d": 852.3745546874707,
      "v": 117
    },
    {
      "midi": 73,
      "hit": false,
      "t": 239974.33717968763,
      "d": 852.3745546874707,
      "v": 127
    },
    {
      "midi": 77,
      "hit": false,
      "t": 239994.15984375012,
      "d": 812.7292265624856,
      "v": 127
    },
    {
      "midi": 41,
      "hit": false,
      "t": 239994.15984375036,
      "d": 893.1859218750033,
      "v": 127
    },
    {
      "midi": 41,
      "hit": false,
      "t": 239998.8239999997,
      "d": 669.3064218749932,
      "v": 117
    },
    {
      "midi": 41,
      "hit": false,
      "t": 240670.4624999997,
      "d": 202.89079687499907,
      "v": 99
    },
    {
      "midi": 39,
      "hit": false,
      "t": 240887.34576562536,
      "d": 851.2085156250105,
      "v": 127
    },
    {
      "midi": 39,
      "hit": false,
      "t": 240894.3419999997,
      "d": 852.3745546874998,
      "v": 105
    },
    {
      "midi": 67,
      "hit": false,
      "t": 240908.3344687501,
      "d": 710.1177890624967,
      "v": 127
    },
    {
      "midi": 70,
      "hit": false,
      "t": 240908.3344687501,
      "d": 731.1064921875077,
      "v": 125
    },
    {
      "midi": 75,
      "hit": false,
      "t": 240908.3344687501,
      "d": 750.9291562500002,
      "v": 117
    },
    {
      "midi": 44,
      "hit": false,
      "t": 241789.85999999972,
      "d": 587.6836874999863,
      "v": 125
    },
    {
      "midi": 68,
      "hit": false,
      "t": 241789.8599999998,
      "d": 335.81925000000047,
      "v": 97
    },
    {
      "midi": 68,
      "hit": false,
      "t": 241789.8599999998,
      "d": 335.81925000000047,
      "v": 97
    },
    {
      "midi": 75,
      "hit": false,
      "t": 241799.1883125001,
      "d": 1542.669679687504,
      "v": 123
    },
    {
      "midi": 68,
      "hit": false,
      "t": 241799.1883125001,
      "d": 1562.4923437499965,
      "v": 127
    },
    {
      "midi": 72,
      "hit": false,
      "t": 241799.1883125001,
      "d": 1562.4923437499965,
      "v": 127
    },
    {
      "midi": 44,
      "hit": false,
      "t": 241799.18831250037,
      "d": 1725.7378125000105,
      "v": 127
    },
    {
      "midi": 68,
      "hit": false,
      "t": 242237.6189999998,
      "d": 223.87950000001,
      "v": 95
    },
    {
      "midi": 68,
      "hit": false,
      "t": 242237.6189999998,
      "d": 223.87950000001,
      "v": 95
    },
    {
      "midi": 44,
      "hit": false,
      "t": 242461.4984999997,
      "d": 669.3064218749932,
      "v": 117
    },
    {
      "midi": 72,
      "hit": false,
      "t": 242461.4984999998,
      "d": 223.87950000001,
      "v": 91
    },
    {
      "midi": 72,
      "hit": false,
      "t": 242461.4984999998,
      "d": 223.87950000001,
      "v": 91
    },
    {
      "midi": 77,
      "hit": false,
      "t": 242685.37799999982,
      "d": 223.87950000001,
      "v": 92
    },
    {
      "midi": 77,
      "hit": false,
      "t": 242685.37799999982,
      "d": 223.87950000001,
      "v": 92
    },
    {
      "midi": 75,
      "hit": false,
      "t": 242909.25749999983,
      "d": 5820.866999999998,
      "v": 85
    },
    {
      "midi": 75,
      "hit": false,
      "t": 242909.25749999983,
      "d": 5820.866999999998,
      "v": 85
    },
    {
      "midi": 32,
      "hit": false,
      "t": 243133.1369999997,
      "d": 425.6042578124907,
      "v": 120
    },
    {
      "midi": 73,
      "hit": false,
      "t": 243565.7374921876,
      "d": 1663.937742187496,
      "v": 127
    },
    {
      "midi": 37,
      "hit": false,
      "t": 243580.8959999997,
      "d": 567.8610234374937,
      "v": 109
    },
    {
      "midi": 78,
      "hit": false,
      "t": 243585.56015625008,
      "d": 690.2951250000042,
      "v": 127
    },
    {
      "midi": 68,
      "hit": false,
      "t": 243585.56015625008,
      "d": 1623.1263749999925,
      "v": 120
    },
    {
      "midi": 49,
      "hit": false,
      "t": 243585.56015625037,
      "d": 1725.7378125000105,
      "v": 127
    },
    {
      "midi": 46,
      "hit": false,
      "t": 243605.38282031287,
      "d": 20.988703125010943,
      "v": 72
    },
    {
      "midi": 77,
      "hit": false,
      "t": 244235.04391406258,
      "d": 1015.6200234375137,
      "v": 125
    },
    {
      "midi": 37,
      "hit": false,
      "t": 244252.5344999997,
      "d": 567.8610234374937,
      "v": 115
    },
    {
      "midi": 37,
      "hit": false,
      "t": 244924.1729999997,
      "d": 425.6042578124907,
      "v": 101
    },
    {
      "midi": 44,
      "hit": false,
      "t": 245350.9432968754,
      "d": 1807.3605468749884,
      "v": 127
    },
    {
      "midi": 44,
      "hit": false,
      "t": 245371.93199999968,
      "d": 546.8723203125119,
      "v": 112
    },
    {
      "midi": 68,
      "hit": false,
      "t": 245371.9320000001,
      "d": 1645.2811171875219,
      "v": 125
    },
    {
      "midi": 72,
      "hit": false,
      "t": 245371.9320000001,
      "d": 1684.926445312536,
      "v": 127
    },
    {
      "midi": 75,
      "hit": false,
      "t": 245392.9207031251,
      "d": 1663.9377421875251,
      "v": 120
    },
    {
      "midi": 44,
      "hit": false,
      "t": 246043.57049999968,
      "d": 628.4950546874898,
      "v": 115
    },
    {
      "midi": 32,
      "hit": false,
      "t": 246715.20899999968,
      "d": 425.6042578124907,
      "v": 109
    },
    {
      "midi": 68,
      "hit": false,
      "t": 247138.48117968763,
      "d": 852.3745546874707,
      "v": 117
    },
    {
      "midi": 73,
      "hit": false,
      "t": 247138.48117968763,
      "d": 852.3745546874707,
      "v": 127
    },
    {
      "midi": 77,
      "hit": false,
      "t": 247158.30384375012,
      "d": 812.7292265624856,
      "v": 127
    },
    {
      "midi": 41,
      "hit": false,
      "t": 247158.3038437504,
      "d": 893.1859218750033,
      "v": 127
    },
    {
      "midi": 41,
      "hit": false,
      "t": 247162.96799999967,
      "d": 669.3064218749932,
      "v": 117
    },
    {
      "midi": 41,
      "hit": false,
      "t": 247834.60649999967,
      "d": 202.89079687499907,
      "v": 99
    },
    {
      "midi": 39,
      "hit": false,
      "t": 248051.4897656254,
      "d": 851.2085156250105,
      "v": 127
    },
    {
      "midi": 39,
      "hit": false,
      "t": 248058.48599999968,
      "d": 852.3745546874998,
      "v": 105
    },
    {
      "midi": 67,
      "hit": false,
      "t": 248072.4784687501,
      "d": 710.1177890624967,
      "v": 127
    },
    {
      "midi": 70,
      "hit": false,
      "t": 248072.4784687501,
      "d": 731.1064921875077,
      "v": 125
    },
    {
      "midi": 75,
      "hit": false,
      "t": 248072.4784687501,
      "d": 750.9291562500002,
      "v": 117
    },
    {
      "midi": 73,
      "hit": false,
      "t": 248730.12449999983,
      "d": 223.87950000001,
      "v": 81
    },
    {
      "midi": 73,
      "hit": false,
      "t": 248730.12449999983,
      "d": 223.87950000001,
      "v": 81
    },
    {
      "midi": 68,
      "hit": false,
      "t": 248924.8530234376,
      "d": 1603.3037109375,
      "v": 123
    },
    {
      "midi": 72,
      "hit": false,
      "t": 248924.8530234376,
      "d": 1603.3037109375,
      "v": 127
    },
    {
      "midi": 75,
      "hit": false,
      "t": 248924.8530234376,
      "d": 1603.3037109375,
      "v": 123
    },
    {
      "midi": 44,
      "hit": false,
      "t": 248944.6756875004,
      "d": 1744.3944375000137,
      "v": 127
    },
    {
      "midi": 72,
      "hit": false,
      "t": 248954.00399999984,
      "d": 1791.0359999999928,
      "v": 86
    },
    {
      "midi": 72,
      "hit": false,
      "t": 248954.00399999984,
      "d": 1791.0359999999928,
      "v": 86
    }
  ]
}