{
  "jsonPath": "Rock/Rap Rock/Ashes to Ashes/life-on-mars-tribute-to-david-bowie.json",
  "path": "Rock\\Rap Rock\\Ashes to Ashes\\Life On Mars - (Tribute to David Bowie).mid",
  "name": "Life On Mars - (Tribute to David Bowie)",
  "difficulty": "Advanced",
  "bpm": 128,
  "notes": [
    {
      "midi": 69,
      "hit": false,
      "t": 1875,
      "d": 1390.625,
      "v": 77
    },
    {
      "midi": 60,
      "hit": false,
      "t": 1875,
      "d": 695.3125,
      "v": 64
    },
    {
      "midi": 65,
      "hit": false,
      "t": 1875,
      "d": 695.3125,
      "v": 64
    },
    {
      "midi": 69,
      "hit": false,
      "t": 1875,
      "d": 695.3125,
      "v": 64
    },
    {
      "midi": 41,
      "hit": false,
      "t": 1875,
      "d": 921.875,
      "v": 96
    },
    {
      "midi": 53,
      "hit": false,
      "t": 1875,
      "d": 1843.75,
      "v": 64
    },
    {
      "midi": 65,
      "hit": false,
      "t": 2343.75,
      "d": 218.75,
      "v": 64
    },
    {
      "midi": 60,
      "hit": false,
      "t": 2578.125,
      "d": 453.125,
      "v": 64
    },
    {
      "midi": 69,
      "hit": false,
      "t": 2578.125,
      "d": 218.75,
      "v": 64
    },
    {
      "midi": 65,
      "hit": false,
      "t": 2812.5,
      "d": 218.75,
      "v": 64
    },
    {
      "midi": 65,
      "hit": false,
      "t": 3046.875,
      "d": 703.125,
      "v": 64
    },
    {
      "midi": 69,
      "hit": false,
      "t": 3046.875,
      "d": 218.75,
      "v": 64
    },
    {
      "midi": 70,
      "hit": false,
      "t": 3281.25,
      "d": 218.75,
      "v": 64
    },
    {
      "midi": 65,
      "hit": false,
      "t": 3281.25,
      "d": 218.75,
      "v": 64
    },
    {
      "midi": 41,
      "hit": false,
      "t": 3281.25,
      "d": 437.5,
      "v": 96
    },
    {
      "midi": 72,
      "hit": false,
      "t": 3515.625,
      "d": 218.75,
      "v": 64
    },
    {
      "midi": 67,
      "hit": false,
      "t": 3515.625,
      "d": 218.75,
      "v": 64
    },
    {
      "midi": 69,
      "hit": false,
      "t": 3750,
      "d": 1390.625,
      "v": 87
    },
    {
      "midi": 40,
      "hit": false,
      "t": 3750,
      "d": 1312.5,
      "v": 64
    },
    {
      "midi": 52,
      "hit": false,
      "t": 3750,
      "d": 1843.75,
      "v": 64
    },
    {
      "midi": 60,
      "hit": false,
      "t": 3750,
      "d": 1843.75,
      "v": 64
    },
    {
      "midi": 64,
      "hit": false,
      "t": 4218.75,
      "d": 218.75,
      "v": 64
    },
    {
      "midi": 60,
      "hit": false,
      "t": 4453.125,
      "d": 437.5,
      "v": 64
    },
    {
      "midi": 64,
      "hit": false,
      "t": 4921.875,
      "d": 687.5,
      "v": 64
    },
    {
      "midi": 70,
      "hit": false,
      "t": 5156.25,
      "d": 218.75,
      "v": 64
    },
    {
      "midi": 40,
      "hit": false,
      "t": 5156.25,
      "d": 437.5,
      "v": 96
    },
    {
      "midi": 72,
      "hit": false,
      "t": 5390.625,
      "d": 218.75,
      "v": 64
    },
    {
      "midi": 69,
      "hit": false,
      "t": 5625,
      "d": 1390.625,
      "v": 64
    },
    {
      "midi": 60,
      "hit": false,
      "t": 5625,
      "d": 664.0625,
      "v": 64
    },
    {
      "midi": 63,
      "hit": false,
      "t": 5625,
      "d": 671.875,
      "v": 64
    },
    {
      "midi": 39,
      "hit": false,
      "t": 5625,
      "d": 1359.375,
      "v": 64
    },
    {
      "midi": 51,
      "hit": false,
      "t": 5625,
      "d": 1843.75,
      "v": 64
    },
    {
      "midi": 63,
      "hit": false,
      "t": 6093.75,
      "d": 218.75,
      "v": 64
    },
    {
      "midi": 67,
      "hit": false,
      "t": 6093.75,
      "d": 226.5625,
      "v": 64
    },
    {
      "midi": 60,
      "hit": false,
      "t": 6328.125,
      "d": 437.5,
      "v": 64
    },
    {
      "midi": 60,
      "hit": false,
      "t": 6328.125,
      "d": 664.0625,
      "v": 64
    },
    {
      "midi": 63,
      "hit": false,
      "t": 6328.125,
      "d": 664.0625,
      "v": 64
    },
    {
      "midi": 63,
      "hit": false,
      "t": 6796.875,
      "d": 656.25,
      "v": 64
    },
    {
      "midi": 70,
      "hit": false,
      "t": 7031.25,
      "d": 218.75,
      "v": 64
    },
    {
      "midi": 39,
      "hit": false,
      "t": 7031.25,
      "d": 437.5,
      "v": 96
    },
    {
      "midi": 72,
      "hit": false,
      "t": 7265.625,
      "d": 218.75,
      "v": 64
    },
    {
      "midi": 74,
      "hit": false,
      "t": 7500,
      "d": 218.75,
      "v": 64
    },
    {
      "midi": 66,
      "hit": false,
      "t": 7500,
      "d": 929.6875,
      "v": 64
    },
    {
      "midi": 62,
      "hit": false,
      "t": 7500,
      "d": 718.75,
      "v": 64
    },
    {
      "midi": 66,
      "hit": false,
      "t": 7500,
      "d": 718.75,
      "v": 64
    },
    {
      "midi": 38,
      "hit": false,
      "t": 7500,
      "d": 1296.875,
      "v": 64
    },
    {
      "midi": 50,
      "hit": false,
      "t": 7500,
      "d": 1851.5625,
      "v": 64
    },
    {
      "midi": 69,
      "hit": false,
      "t": 7734.375,
      "d": 218.75,
      "v": 64
    },
    {
      "midi": 67,
      "hit": false,
      "t": 7968.75,
      "d": 218.75,
      "v": 64
    },
    {
      "midi": 62,
      "hit": false,
      "t": 8203.125,
      "d": 218.75,
      "v": 64
    },
    {
      "midi": 66,
      "hit": false,
      "t": 8437.5,
      "d": 671.875,
      "v": 64
    },
    {
      "midi": 69,
      "hit": false,
      "t": 8671.875,
      "d": 218.75,
      "v": 64
    },
    {
      "midi": 72,
      "hit": false,
      "t": 8906.25,
      "d": 125,
      "v": 64
    },
    {
      "midi": 69,
      "hit": false,
      "t": 9023.4375,
      "d": 140.625,
      "v": 64
    },
    {
      "midi": 66,
      "hit": false,
      "t": 9140.625,
      "d": 125,
      "v": 64
    },
    {
      "midi": 62,
      "hit": false,
      "t": 9257.8125,
      "d": 109.375,
      "v": 64
    },
    {
      "midi": 70,
      "hit": false,
      "t": 9375,
      "d": 710.9375,
      "v": 64
    },
    {
      "midi": 62,
      "hit": false,
      "t": 9375,
      "d": 1859.375,
      "v": 64
    },
    {
      "midi": 70,
      "hit": false,
      "t": 9375,
      "d": 718.75,
      "v": 64
    },
    {
      "midi": 62,
      "hit": false,
      "t": 9375,
      "d": 914.0625,
      "v": 64
    },
    {
      "midi": 43,
      "hit": false,
      "t": 9375,
      "d": 1851.5625,
      "v": 64
    },
    {
      "midi": 55,
      "hit": false,
      "t": 9375,
      "d": 1851.5625,
      "v": 64
    },
    {
      "midi": 67,
      "hit": false,
      "t": 10078.125,
      "d": 226.5625,
      "v": 64
    },
    {
      "midi": 67,
      "hit": false,
      "t": 10078.125,
      "d": 218.75,
      "v": 64
    },
    {
      "midi": 70,
      "hit": false,
      "t": 10312.5,
      "d": 468.75,
      "v": 64
    },
    {
      "midi": 79,
      "hit": false,
      "t": 10312.5,
      "d": 929.6875,
      "v": 64
    },
    {
      "midi": 70,
      "hit": false,
      "t": 10312.5,
      "d": 460.9375,
      "v": 64
    },
    {
      "midi": 79,
      "hit": false,
      "t": 10312.5,
      "d": 460.9375,
      "v": 64
    },
    {
      "midi": 91,
      "hit": false,
      "t": 10390.625,
      "d": 460.9375,
      "v": 64
    },
    {
      "midi": 74,
      "hit": false,
      "t": 10781.25,
      "d": 468.75,
      "v": 64
    },
    {
      "midi": 70,
      "hit": false,
      "t": 11250,
      "d": 226.5625,
      "v": 64
    },
    {
      "midi": 62,
      "hit": false,
      "t": 11250,
      "d": 1390.625,
      "v": 64
    },
    {
      "midi": 41,
      "hit": false,
      "t": 11250,
      "d": 1851.5625,
      "v": 64
    },
    {
      "midi": 53,
      "hit": false,
      "t": 11250,
      "d": 1851.5625,
      "v": 64
    },
    {
      "midi": 62,
      "hit": false,
      "t": 11250,
      "d": 1851.5625,
      "v": 64
    },
    {
      "midi": 67,
      "hit": false,
      "t": 11250,
      "d": 1851.5625,
      "v": 64
    },
    {
      "midi": 74,
      "hit": false,
      "t": 11484.375,
      "d": 476.5625,
      "v": 64
    },
    {
      "midi": 70,
      "hit": false,
      "t": 11953.125,
      "d": 437.5,
      "v": 64
    },
    {
      "midi": 69,
      "hit": false,
      "t": 12421.875,
      "d": 226.5625,
      "v": 64
    },
    {
      "midi": 65,
      "hit": false,
      "t": 12656.25,
      "d": 226.5625,
      "v": 64
    },
    {
      "midi": 70,
      "hit": false,
      "t": 12656.25,
      "d": 226.5625,
      "v": 64
    },
    {
      "midi": 74,
      "hit": false,
      "t": 12890.625,
      "d": 226.5625,
      "v": 64
    },
    {
      "midi": 70,
      "hit": false,
      "t": 13125,
      "d": 718.75,
      "v": 64
    },
    {
      "midi": 64,
      "hit": false,
      "t": 13125,
      "d": 1398.4375,
      "v": 64
    },
    {
      "midi": 67,
      "hit": false,
      "t": 13125,
      "d": 703.125,
      "v": 64
    },
    {
      "midi": 40,
      "hit": false,
      "t": 13125,
      "d": 1851.5625,
      "v": 64
    },
    {
      "midi": 52,
      "hit": false,
      "t": 13125,
      "d": 1851.5625,
      "v": 64
    },
    {
      "midi": 60,
      "hit": false,
      "t": 13828.125,
      "d": 234.375,
      "v": 64
    },
    {
      "midi": 55,
      "hit": false,
      "t": 14062.5,
      "d": 226.5625,
      "v": 64
    },
    {
      "midi": 67,
      "hit": false,
      "t": 14062.5,
      "d": 703.125,
      "v": 64
    },
    {
      "midi": 60,
      "hit": false,
      "t": 14296.875,
      "d": 226.5625,
      "v": 64
    },
    {
      "midi": 67,
      "hit": false,
      "t": 14531.25,
      "d": 226.5625,
      "v": 64
    },
    {
      "midi": 64,
      "hit": false,
      "t": 14531.25,
      "d": 445.3125,
      "v": 64
    },
    {
      "midi": 58,
      "hit": false,
      "t": 14531.25,
      "d": 445.3125,
      "v": 64
    },
    {
      "midi": 70,
      "hit": false,
      "t": 14765.625,
      "d": 226.5625,
      "v": 64
    },
    {
      "midi": 64,
      "hit": false,
      "t": 15000,
      "d": 1390.625,
      "v": 64
    },
    {
      "midi": 36,
      "hit": false,
      "t": 15000,
      "d": 1851.5625,
      "v": 64
    },
    {
      "midi": 48,
      "hit": false,
      "t": 15000,
      "d": 1851.5625,
      "v": 64
    },
    {
      "midi": 60,
      "hit": false,
      "t": 15234.375,
      "d": 226.5625,
      "v": 64
    },
    {
      "midi": 64,
      "hit": false,
      "t": 15468.75,
      "d": 226.5625,
      "v": 64
    },
    {
      "midi": 60,
      "hit": false,
      "t": 15703.125,
      "d": 437.5,
      "v": 64
    },
    {
      "midi": 67,
      "hit": false,
      "t": 15937.5,
      "d": 937.5,
      "v": 64
    },
    {
      "midi": 58,
      "hit": false,
      "t": 16171.875,
      "d": 226.5625,
      "v": 64
    },
    {
      "midi": 55,
      "hit": false,
      "t": 16406.25,
      "d": 117.1875,
      "v": 64
    },
    {
      "midi": 64,
      "hit": false,
      "t": 16406.25,
      "d": 234.375,
      "v": 64
    },
    {
      "midi": 58,
      "hit": false,
      "t": 16523.4375,
      "d": 101.5625,
      "v": 64
    },
    {
      "midi": 55,
      "hit": false,
      "t": 16640.625,
      "d": 132.8125,
      "v": 64
    },
    {
      "midi": 65,
      "hit": false,
      "t": 16640.625,
      "d": 906.25,
      "v": 64
    },
    {
      "midi": 69,
      "hit": false,
      "t": 16640.625,
      "d": 914.0625,
      "v": 64
    },
    {
      "midi": 52,
      "hit": false,
      "t": 16757.8125,
      "d": 117.1875,
      "v": 64
    },
    {
      "midi": 69,
      "hit": false,
      "t": 16875,
      "d": 898.4375,
      "v": 64
    },
    {
      "midi": 53,
      "hit": false,
      "t": 16875,
      "d": 1859.375,
      "v": 64
    },
    {
      "midi": 60,
      "hit": false,
      "t": 16875,
      "d": 1859.375,
      "v": 64
    },
    {
      "midi": 41,
      "hit": false,
      "t": 16875,
      "d": 1851.5625,
      "v": 64
    },
    {
      "midi": 53,
      "hit": false,
      "t": 16875,
      "d": 1851.5625,
      "v": 64
    },
    {
      "midi": 60,
      "hit": false,
      "t": 17578.125,
      "d": 234.375,
      "v": 64
    },
    {
      "midi": 69,
      "hit": false,
      "t": 17812.5,
      "d": 304.6875,
      "v": 64
    },
    {
      "midi": 69,
      "hit": false,
      "t": 17812.5,
      "d": 234.375,
      "v": 64
    },
    {
      "midi": 65,
      "hit": false,
      "t": 18046.875,
      "d": 203.125,
      "v": 64
    },
    {
      "midi": 67,
      "hit": false,
      "t": 18125,
      "d": 281.25,
      "v": 64
    },
    {
      "midi": 65,
      "hit": false,
      "t": 18437.5,
      "d": 296.875,
      "v": 64
    },
    {
      "midi": 65,
      "hit": false,
      "t": 18750,
      "d": 468.75,
      "v": 64
    },
    {
      "midi": 69,
      "hit": false,
      "t": 18750,
      "d": 929.6875,
      "v": 64
    },
    {
      "midi": 65,
      "hit": false,
      "t": 18750,
      "d": 1390.625,
      "v": 64
    },
    {
      "midi": 40,
      "hit": false,
      "t": 18750,
      "d": 1851.5625,
      "v": 64
    },
    {
      "midi": 52,
      "hit": false,
      "t": 18750,
      "d": 1851.5625,
      "v": 64
    },
    {
      "midi": 64,
      "hit": false,
      "t": 19218.75,
      "d": 1398.4375,
      "v": 64
    },
    {
      "midi": 69,
      "hit": false,
      "t": 19687.5,
      "d": 929.6875,
      "v": 64
    },
    {
      "midi": 72,
      "hit": false,
      "t": 19687.5,
      "d": 929.6875,
      "v": 64
    },
    {
      "midi": 65,
      "hit": false,
      "t": 20156.25,
      "d": 234.375,
      "v": 64
    },
    {
      "midi": 63,
      "hit": false,
      "t": 20390.625,
      "d": 914.0625,
      "v": 64
    },
    {
      "midi": 67,
      "hit": false,
      "t": 20390.625,
      "d": 953.125,
      "v": 64
    },
    {
      "midi": 39,
      "hit": false,
      "t": 20625,
      "d": 1851.5625,
      "v": 64
    },
    {
      "midi": 51,
      "hit": false,
      "t": 20625,
      "d": 1851.5625,
      "v": 64
    },
    {
      "midi": 60,
      "hit": false,
      "t": 21093.75,
      "d": 226.5625,
      "v": 64
    },
    {
      "midi": 63,
      "hit": false,
      "t": 21328.125,
      "d": 226.5625,
      "v": 64
    },
    {
      "midi": 63,
      "hit": false,
      "t": 21328.125,
      "d": 242.1875,
      "v": 64
    },
    {
      "midi": 69,
      "hit": false,
      "t": 21562.5,
      "d": 226.5625,
      "v": 64
    },
    {
      "midi": 70,
      "hit": false,
      "t": 21796.875,
      "d": 226.5625,
      "v": 64
    },
    {
      "midi": 72,
      "hit": false,
      "t": 22031.25,
      "d": 226.5625,
      "v": 64
    },
    {
      "midi": 60,
      "hit": false,
      "t": 22031.25,
      "d": 429.6875,
      "v": 64
    },
    {
      "midi": 63,
      "hit": false,
      "t": 22031.25,
      "d": 437.5,
      "v": 64
    },
    {
      "midi": 67,
      "hit": false,
      "t": 22031.25,
      "d": 445.3125,
      "v": 64
    },
    {
      "midi": 70,
      "hit": false,
      "t": 22265.625,
      "d": 226.5625,
      "v": 64
    },
    {
      "midi": 69,
      "hit": false,
      "t": 22500,
      "d": 460.9375,
      "v": 64
    },
    {
      "midi": 66,
      "hit": false,
      "t": 22500,
      "d": 1375,
      "v": 64
    },
    {
      "midi": 38,
      "hit": false,
      "t": 22500,
      "d": 1851.5625,
      "v": 64
    },
    {
      "midi": 50,
      "hit": false,
      "t": 22500,
      "d": 1851.5625,
      "v": 64
    },
    {
      "midi": 67,
      "hit": false,
      "t": 22968.75,
      "d": 226.5625,
      "v": 64
    },
    {
      "midi": 74,
      "hit": false,
      "t": 23203.125,
      "d": 1156.25,
      "v": 64
    },
    {
      "midi": 62,
      "hit": false,
      "t": 23437.5,
      "d": 132.8125,
      "v": 64
    },
    {
      "midi": 67,
      "hit": false,
      "t": 23554.6875,
      "d": 101.5625,
      "v": 64
    },
    {
      "midi": 69,
      "hit": false,
      "t": 23671.875,
      "d": 125,
      "v": 64
    },
    {
      "midi": 62,
      "hit": false,
      "t": 23789.0625,
      "d": 109.375,
      "v": 64
    },
    {
      "midi": 66,
      "hit": false,
      "t": 23906.25,
      "d": 93.75,
      "v": 64
    },
    {
      "midi": 62,
      "hit": false,
      "t": 23906.25,
      "d": 929.6875,
      "v": 64
    },
    {
      "midi": 69,
      "hit": false,
      "t": 24023.4375,
      "d": 117.1875,
      "v": 64
    },
    {
      "midi": 72,
      "hit": false,
      "t": 24140.625,
      "d": 109.375,
      "v": 64
    },
    {
      "midi": 69,
      "hit": false,
      "t": 24257.8125,
      "d": 125,
      "v": 64
    },
    {
      "midi": 70,
      "hit": false,
      "t": 24375,
      "d": 226.5625,
      "v": 64
    },
    {
      "midi": 43,
      "hit": false,
      "t": 24375,
      "d": 1851.5625,
      "v": 64
    },
    {
      "midi": 55,
      "hit": false,
      "t": 24375,
      "d": 1851.5625,
      "v": 64
    },
    {
      "midi": 67,
      "hit": false,
      "t": 24609.375,
      "d": 226.5625,
      "v": 64
    },
    {
      "midi": 70,
      "hit": false,
      "t": 24843.75,
      "d": 226.5625,
      "v": 64
    },
    {
      "midi": 67,
      "hit": false,
      "t": 24843.75,
      "d": 445.3125,
      "v": 64
    },
    {
      "midi": 74,
      "hit": false,
      "t": 25078.125,
      "d": 460.9375,
      "v": 64
    },
    {
      "midi": 79,
      "hit": false,
      "t": 25078.125,
      "d": 1164.0625,
      "v": 64
    },
    {
      "midi": 70,
      "hit": false,
      "t": 25312.5,
      "d": 445.3125,
      "v": 64
    },
    {
      "midi": 74,
      "hit": false,
      "t": 25546.875,
      "d": 226.5625,
      "v": 64
    },
    {
      "midi": 70,
      "hit": false,
      "t": 25781.25,
      "d": 226.5625,
      "v": 64
    },
    {
      "midi": 70,
      "hit": false,
      "t": 25781.25,
      "d": 445.3125,
      "v": 64
    },
    {
      "midi": 79,
      "hit": false,
      "t": 25781.25,
      "d": 445.3125,
      "v": 64
    },
    {
      "midi": 67,
      "hit": false,
      "t": 26015.625,
      "d": 226.5625,
      "v": 64
    },
    {
      "midi": 70,
      "hit": false,
      "t": 26250,
      "d": 1167.96875,
      "v": 64
    },
    {
      "midi": 41,
      "hit": false,
      "t": 26250,
      "d": 1367.1875,
      "v": 64
    },
    {
      "midi": 67,
      "hit": false,
      "t": 26250,
      "d": 1367.1875,
      "v": 64
    },
    {
      "midi": 70,
      "hit": false,
      "t": 26250,
      "d": 1367.1875,
      "v": 64
    },
    {
      "midi": 53,
      "hit": false,
      "t": 26250,
      "d": 1375,
      "v": 64
    },
    {
      "midi": 58,
      "hit": false,
      "t": 26718.75,
      "d": 226.5625,
      "v": 64
    },
    {
      "midi": 62,
      "hit": false,
      "t": 26953.125,
      "d": 1156.25,
      "v": 64
    },
    {
      "midi": 65,
      "hit": false,
      "t": 27421.875,
      "d": 226.5625,
      "v": 64
    },
    {
      "midi": 67,
      "hit": false,
      "t": 27656.25,
      "d": 226.5625,
      "v": 64
    },
    {
      "midi": 67,
      "hit": false,
      "t": 27656.25,
      "d": 914.0625,
      "v": 64
    },
    {
      "midi": 70,
      "hit": false,
      "t": 27656.25,
      "d": 921.875,
      "v": 64
    },
    {
      "midi": 74,
      "hit": false,
      "t": 27656.25,
      "d": 929.6875,
      "v": 64
    },
    {
      "midi": 70,
      "hit": false,
      "t": 27890.625,
      "d": 226.5625,
      "v": 64
    },
    {
      "midi": 74,
      "hit": false,
      "t": 28125,
      "d": 468.75,
      "v": 64
    },
    {
      "midi": 40,
      "hit": false,
      "t": 28125,
      "d": 210.9375,
      "v": 64
    },
    {
      "midi": 52,
      "hit": false,
      "t": 28125,
      "d": 210.9375,
      "v": 64
    },
    {
      "midi": 40,
      "hit": false,
      "t": 28359.375,
      "d": 1617.1875,
      "v": 64
    },
    {
      "midi": 52,
      "hit": false,
      "t": 28359.375,
      "d": 1617.1875,
      "v": 64
    },
    {
      "midi": 64,
      "hit": false,
      "t": 28593.75,
      "d": 226.5625,
      "v": 64
    },
    {
      "midi": 70,
      "hit": false,
      "t": 28828.125,
      "d": 460.9375,
      "v": 64
    },
    {
      "midi": 67,
      "hit": false,
      "t": 29296.875,
      "d": 484.375,
      "v": 64
    },
    {
      "midi": 64,
      "hit": false,
      "t": 29765.625,
      "d": 226.5625,
      "v": 64
    },
    {
      "midi": 67,
      "hit": false,
      "t": 30000,
      "d": 226.5625,
      "v": 64
    },
    {
      "midi": 48,
      "hit": false,
      "t": 30000,
      "d": 210.9375,
      "v": 64
    },
    {
      "midi": 58,
      "hit": false,
      "t": 30000,
      "d": 210.9375,
      "v": 64
    },
    {
      "midi": 72,
      "hit": false,
      "t": 30234.375,
      "d": 226.5625,
      "v": 64
    },
    {
      "midi": 48,
      "hit": false,
      "t": 30234.375,
      "d": 1835.9375,
      "v": 64
    },
    {
      "midi": 58,
      "hit": false,
      "t": 30234.375,
      "d": 1835.9375,
      "v": 64
    },
    {
      "midi": 60,
      "hit": false,
      "t": 30468.75,
      "d": 226.5625,
      "v": 64
    },
    {
      "midi": 64,
      "hit": false,
      "t": 30703.125,
      "d": 468.75,
      "v": 64
    },
    {
      "midi": 60,
      "hit": false,
      "t": 31171.875,
      "d": 226.5625,
      "v": 64
    },
    {
      "midi": 67,
      "hit": false,
      "t": 31171.875,
      "d": 226.5625,
      "v": 64
    },
    {
      "midi": 72,
      "hit": false,
      "t": 31406.25,
      "d": 226.5625,
      "v": 64
    },
    {
      "midi": 67,
      "hit": false,
      "t": 31640.625,
      "d": 203.125,
      "v": 64
    },
    {
      "midi": 63,
      "hit": false,
      "t": 31875,
      "d": 929.6875,
      "v": 64
    },
    {
      "midi": 68,
      "hit": false,
      "t": 31875,
      "d": 929.6875,
      "v": 64
    },
    {
      "midi": 72,
      "hit": false,
      "t": 31875,
      "d": 929.6875,
      "v": 64
    },
    {
      "midi": 51,
      "hit": false,
      "t": 31875,
      "d": 1843.75,
      "v": 87
    },
    {
      "midi": 39,
      "hit": false,
      "t": 31875,
      "d": 1859.375,
      "v": 117
    },
    {
      "midi": 68,
      "hit": false,
      "t": 32812.5,
      "d": 460.9375,
      "v": 64
    },
    {
      "midi": 72,
      "hit": false,
      "t": 32812.5,
      "d": 679.6875,
      "v": 64
    },
    {
      "midi": 75,
      "hit": false,
      "t": 32812.5,
      "d": 929.6875,
      "v": 64
    },
    {
      "midi": 68,
      "hit": false,
      "t": 33281.25,
      "d": 101.5625,
      "v": 64
    },
    {
      "midi": 63,
      "hit": false,
      "t": 33398.4375,
      "d": 101.5625,
      "v": 64
    },
    {
      "midi": 72,
      "hit": false,
      "t": 33515.625,
      "d": 101.5625,
      "v": 64
    },
    {
      "midi": 63,
      "hit": false,
      "t": 33632.8125,
      "d": 101.5625,
      "v": 64
    },
    {
      "midi": 68,
      "hit": false,
      "t": 33750,
      "d": 226.5625,
      "v": 64
    },
    {
      "midi": 40,
      "hit": false,
      "t": 33750,
      "d": 1843.75,
      "v": 87
    },
    {
      "midi": 52,
      "hit": false,
      "t": 33750,
      "d": 1843.75,
      "v": 87
    },
    {
      "midi": 64,
      "hit": false,
      "t": 33984.375,
      "d": 226.5625,
      "v": 64
    },
    {
      "midi": 68,
      "hit": false,
      "t": 34218.75,
      "d": 226.5625,
      "v": 64
    },
    {
      "midi": 72,
      "hit": false,
      "t": 34453.125,
      "d": 226.5625,
      "v": 64
    },
    {
      "midi": 72,
      "hit": false,
      "t": 34687.5,
      "d": 460.9375,
      "v": 64
    },
    {
      "midi": 68,
      "hit": false,
      "t": 34687.5,
      "d": 914.0625,
      "v": 64
    },
    {
      "midi": 64,
      "hit": false,
      "t": 34687.5,
      "d": 937.5,
      "v": 64
    },
    {
      "midi": 72,
      "hit": false,
      "t": 35156.25,
      "d": 226.5625,
      "v": 64
    },
    {
      "midi": 76,
      "hit": false,
      "t": 35156.25,
      "d": 226.5625,
      "v": 64
    },
    {
      "midi": 80,
      "hit": false,
      "t": 35390.625,
      "d": 226.5625,
      "v": 64
    },
    {
      "midi": 60,
      "hit": false,
      "t": 35625,
      "d": 226.5625,
      "v": 64
    },
    {
      "midi": 65,
      "hit": false,
      "t": 35625,
      "d": 453.125,
      "v": 64
    },
    {
      "midi": 68,
      "hit": false,
      "t": 35625,
      "d": 695.3125,
      "v": 64
    },
    {
      "midi": 41,
      "hit": false,
      "t": 35625,
      "d": 1843.75,
      "v": 87
    },
    {
      "midi": 53,
      "hit": false,
      "t": 35625,
      "d": 1843.75,
      "v": 87
    },
    {
      "midi": 65,
      "hit": false,
      "t": 36093.75,
      "d": 226.5625,
      "v": 64
    },
    {
      "midi": 68,
      "hit": false,
      "t": 36328.125,
      "d": 226.5625,
      "v": 64
    },
    {
      "midi": 68,
      "hit": false,
      "t": 36562.5,
      "d": 195.3125,
      "v": 64
    },
    {
      "midi": 65,
      "hit": false,
      "t": 36562.5,
      "d": 226.5625,
      "v": 64
    },
    {
      "midi": 72,
      "hit": false,
      "t": 36562.5,
      "d": 929.6875,
      "v": 64
    },
    {
      "midi": 77,
      "hit": false,
      "t": 36562.5,
      "d": 929.6875,
      "v": 64
    },
    {
      "midi": 68,
      "hit": false,
      "t": 36796.875,
      "d": 226.5625,
      "v": 64
    },
    {
      "midi": 67,
      "hit": false,
      "t": 37031.25,
      "d": 226.5625,
      "v": 64
    },
    {
      "midi": 65,
      "hit": false,
      "t": 37265.625,
      "d": 226.5625,
      "v": 64
    },
    {
      "midi": 63,
      "hit": false,
      "t": 37500,
      "d": 226.5625,
      "v": 64
    },
    {
      "midi": 66,
      "hit": false,
      "t": 37500,
      "d": 453.125,
      "v": 64
    },
    {
      "midi": 72,
      "hit": false,
      "t": 37500,
      "d": 929.6875,
      "v": 64
    },
    {
      "midi": 42,
      "hit": false,
      "t": 37500,
      "d": 1843.75,
      "v": 87
    },
    {
      "midi": 54,
      "hit": false,
      "t": 37500,
      "d": 1843.75,
      "v": 87
    },
    {
      "midi": 63,
      "hit": false,
      "t": 37734.375,
      "d": 226.5625,
      "v": 64
    },
    {
      "midi": 66,
      "hit": false,
      "t": 37968.75,
      "d": 226.5625,
      "v": 64
    },
    {
      "midi": 68,
      "hit": false,
      "t": 38203.125,
      "d": 226.5625,
      "v": 64
    },
    {
      "midi": 66,
      "hit": false,
      "t": 38437.5,
      "d": 226.5625,
      "v": 64
    },
    {
      "midi": 63,
      "hit": false,
      "t": 38437.5,
      "d": 921.875,
      "v": 64
    },
    {
      "midi": 73,
      "hit": false,
      "t": 38437.5,
      "d": 921.875,
      "v": 64
    },
    {
      "midi": 68,
      "hit": false,
      "t": 38671.875,
      "d": 226.5625,
      "v": 64
    },
    {
      "midi": 66,
      "hit": false,
      "t": 38906.25,
      "d": 226.5625,
      "v": 64
    },
    {
      "midi": 68,
      "hit": false,
      "t": 39140.625,
      "d": 226.5625,
      "v": 64
    },
    {
      "midi": 65,
      "hit": false,
      "t": 39375,
      "d": 687.5,
      "v": 64
    },
    {
      "midi": 68,
      "hit": false,
      "t": 39375,
      "d": 1867.1875,
      "v": 64
    },
    {
      "midi": 73,
      "hit": false,
      "t": 39375,
      "d": 1867.1875,
      "v": 64
    },
    {
      "midi": 37,
      "hit": false,
      "t": 39375,
      "d": 1843.75,
      "v": 87
    },
    {
      "midi": 49,
      "hit": false,
      "t": 39375,
      "d": 1843.75,
      "v": 87
    },
    {
      "midi": 61,
      "hit": false,
      "t": 39843.75,
      "d": 210.9375,
      "v": 64
    },
    {
      "midi": 65,
      "hit": false,
      "t": 40078.125,
      "d": 210.9375,
      "v": 64
    },
    {
      "midi": 61,
      "hit": false,
      "t": 40312.5,
      "d": 210.9375,
      "v": 64
    },
    {
      "midi": 59,
      "hit": false,
      "t": 40546.875,
      "d": 210.9375,
      "v": 64
    },
    {
      "midi": 56,
      "hit": false,
      "t": 40781.25,
      "d": 210.9375,
      "v": 64
    },
    {
      "midi": 52,
      "hit": false,
      "t": 41015.625,
      "d": 210.9375,
      "v": 64
    },
    {
      "midi": 53,
      "hit": false,
      "t": 41250,
      "d": 929.6875,
      "v": 64
    },
    {
      "midi": 57,
      "hit": false,
      "t": 41250,
      "d": 929.6875,
      "v": 64
    },
    {
      "midi": 60,
      "hit": false,
      "t": 41250,
      "d": 929.6875,
      "v": 64
    },
    {
      "midi": 53,
      "hit": false,
      "t": 41250,
      "d": 203.125,
      "v": 87
    },
    {
      "midi": 41,
      "hit": false,
      "t": 41484.375,
      "d": 203.125,
      "v": 87
    },
    {
      "midi": 53,
      "hit": false,
      "t": 41718.75,
      "d": 203.125,
      "v": 87
    },
    {
      "midi": 41,
      "hit": false,
      "t": 41953.125,
      "d": 203.125,
      "v": 87
    },
    {
      "midi": 60,
      "hit": false,
      "t": 42187.5,
      "d": 453.125,
      "v": 64
    },
    {
      "midi": 65,
      "hit": false,
      "t": 42187.5,
      "d": 460.9375,
      "v": 64
    },
    {
      "midi": 57,
      "hit": false,
      "t": 42187.5,
      "d": 476.5625,
      "v": 64
    },
    {
      "midi": 53,
      "hit": false,
      "t": 42187.5,
      "d": 54.6875,
      "v": 87
    },
    {
      "midi": 41,
      "hit": false,
      "t": 42265.625,
      "d": 54.6875,
      "v": 87
    },
    {
      "midi": 53,
      "hit": false,
      "t": 42343.75,
      "d": 54.6875,
      "v": 87
    },
    {
      "midi": 41,
      "hit": false,
      "t": 42421.875,
      "d": 54.6875,
      "v": 87
    },
    {
      "midi": 53,
      "hit": false,
      "t": 42500,
      "d": 54.6875,
      "v": 87
    },
    {
      "midi": 41,
      "hit": false,
      "t": 42578.125,
      "d": 54.6875,
      "v": 87
    },
    {
      "midi": 65,
      "hit": false,
      "t": 42656.25,
      "d": 460.9375,
      "v": 64
    },
    {
      "midi": 69,
      "hit": false,
      "t": 42656.25,
      "d": 460.9375,
      "v": 64
    },
    {
      "midi": 60,
      "hit": false,
      "t": 42656.25,
      "d": 476.5625,
      "v": 64
    },
    {
      "midi": 53,
      "hit": false,
      "t": 42656.25,
      "d": 203.125,
      "v": 87
    },
    {
      "midi": 41,
      "hit": false,
      "t": 42890.625,
      "d": 203.125,
      "v": 87
    },
    {
      "midi": 61,
      "hit": false,
      "t": 43125,
      "d": 929.6875,
      "v": 64
    },
    {
      "midi": 65,
      "hit": false,
      "t": 43125,
      "d": 1867.1875,
      "v": 64
    },
    {
      "midi": 70,
      "hit": false,
      "t": 43125,
      "d": 1867.1875,
      "v": 64
    },
    {
      "midi": 46,
      "hit": false,
      "t": 43125,
      "d": 1843.75,
      "v": 87
    },
    {
      "midi": 58,
      "hit": false,
      "t": 43125,
      "d": 1843.75,
      "v": 87
    },
    {
      "midi": 53,
      "hit": false,
      "t": 43593.75,
      "d": 210.9375,
      "v": 64
    },
    {
      "midi": 58,
      "hit": false,
      "t": 43828.125,
      "d": 210.9375,
      "v": 64
    },
    {
      "midi": 61,
      "hit": false,
      "t": 44062.5,
      "d": 210.9375,
      "v": 64
    },
    {
      "midi": 58,
      "hit": false,
      "t": 44296.875,
      "d": 210.9375,
      "v": 64
    },
    {
      "midi": 53,
      "hit": false,
      "t": 44531.25,
      "d": 210.9375,
      "v": 64
    },
    {
      "midi": 58,
      "hit": false,
      "t": 44765.625,
      "d": 210.9375,
      "v": 64
    },
    {
      "midi": 56,
      "hit": false,
      "t": 45000,
      "d": 1859.375,
      "v": 64
    },
    {
      "midi": 59,
      "hit": false,
      "t": 45000,
      "d": 1859.375,
      "v": 64
    },
    {
      "midi": 61,
      "hit": false,
      "t": 45000,
      "d": 1859.375,
      "v": 64
    },
    {
      "midi": 65,
      "hit": false,
      "t": 45000,
      "d": 1859.375,
      "v": 64
    },
    {
      "midi": 37,
      "hit": false,
      "t": 45000,
      "d": 1843.75,
      "v": 87
    },
    {
      "midi": 49,
      "hit": false,
      "t": 45000,
      "d": 1843.75,
      "v": 87
    },
    {
      "midi": 62,
      "hit": false,
      "t": 46875,
      "d": 921.875,
      "v": 64
    },
    {
      "midi": 65,
      "hit": false,
      "t": 46875,
      "d": 921.875,
      "v": 64
    },
    {
      "midi": 70,
      "hit": false,
      "t": 46875,
      "d": 921.875,
      "v": 64
    },
    {
      "midi": 46,
      "hit": false,
      "t": 46875,
      "d": 1843.75,
      "v": 87
    },
    {
      "midi": 58,
      "hit": false,
      "t": 46875,
      "d": 1843.75,
      "v": 87
    },
    {
      "midi": 65,
      "hit": false,
      "t": 47812.5,
      "d": 921.875,
      "v": 64
    },
    {
      "midi": 70,
      "hit": false,
      "t": 47812.5,
      "d": 921.875,
      "v": 64
    },
    {
      "midi": 74,
      "hit": false,
      "t": 47812.5,
      "d": 921.875,
      "v": 64
    },
    {
      "midi": 63,
      "hit": false,
      "t": 48750,
      "d": 921.875,
      "v": 64
    },
    {
      "midi": 51,
      "hit": false,
      "t": 48750,
      "d": 1859.375,
      "v": 64
    },
    {
      "midi": 55,
      "hit": false,
      "t": 48750,
      "d": 1859.375,
      "v": 64
    },
    {
      "midi": 63,
      "hit": false,
      "t": 49687.5,
      "d": 445.3125,
      "v": 64
    },
    {
      "midi": 67,
      "hit": false,
      "t": 49687.5,
      "d": 445.3125,
      "v": 64
    },
    {
      "midi": 70,
      "hit": false,
      "t": 49687.5,
      "d": 445.3125,
      "v": 64
    },
    {
      "midi": 67,
      "hit": false,
      "t": 50156.25,
      "d": 453.125,
      "v": 64
    },
    {
      "midi": 75,
      "hit": false,
      "t": 50156.25,
      "d": 453.125,
      "v": 64
    },
    {
      "midi": 70,
      "hit": false,
      "t": 50156.25,
      "d": 460.9375,
      "v": 64
    },
    {
      "midi": 62,
      "hit": false,
      "t": 50625,
      "d": 921.875,
      "v": 64
    },
    {
      "midi": 65,
      "hit": false,
      "t": 50625,
      "d": 921.875,
      "v": 64
    },
    {
      "midi": 70,
      "hit": false,
      "t": 50625,
      "d": 921.875,
      "v": 64
    },
    {
      "midi": 65,
      "hit": false,
      "t": 51562.5,
      "d": 921.875,
      "v": 64
    },
    {
      "midi": 70,
      "hit": false,
      "t": 51562.5,
      "d": 921.875,
      "v": 64
    },
    {
      "midi": 74,
      "hit": false,
      "t": 51562.5,
      "d": 921.875,
      "v": 64
    },
    {
      "midi": 66,
      "hit": false,
      "t": 52500,
      "d": 453.125,
      "v": 64
    },
    {
      "midi": 70,
      "hit": false,
      "t": 52500,
      "d": 687.5,
      "v": 64
    },
    {
      "midi": 62,
      "hit": false,
      "t": 52734.375,
      "d": 218.75,
      "v": 64
    },
    {
      "midi": 66,
      "hit": false,
      "t": 52968.75,
      "d": 218.75,
      "v": 64
    },
    {
      "midi": 70,
      "hit": false,
      "t": 53203.125,
      "d": 218.75,
      "v": 64
    },
    {
      "midi": 74,
      "hit": false,
      "t": 53437.5,
      "d": 218.75,
      "v": 64
    },
    {
      "midi": 74,
      "hit": false,
      "t": 53671.875,
      "d": 218.75,
      "v": 64
    },
    {
      "midi": 70,
      "hit": false,
      "t": 53906.25,
      "d": 218.75,
      "v": 64
    },
    {
      "midi": 66,
      "hit": false,
      "t": 54140.625,
      "d": 218.75,
      "v": 64
    },
    {
      "midi": 60,
      "hit": false,
      "t": 54375,
      "d": 453.125,
      "v": 64
    },
    {
      "midi": 65,
      "hit": false,
      "t": 54375,
      "d": 453.125,
      "v": 64
    },
    {
      "midi": 69,
      "hit": false,
      "t": 54375,
      "d": 453.125,
      "v": 64
    },
    {
      "midi": 41,
      "hit": false,
      "t": 54375,
      "d": 1843.75,
      "v": 87
    },
    {
      "midi": 53,
      "hit": false,
      "t": 54375,
      "d": 1843.75,
      "v": 87
    },
    {
      "midi": 60,
      "hit": false,
      "t": 54843.75,
      "d": 210.9375,
      "v": 64
    },
    {
      "midi": 65,
      "hit": false,
      "t": 54843.75,
      "d": 210.9375,
      "v": 64
    },
    {
      "midi": 69,
      "hit": false,
      "t": 54843.75,
      "d": 210.9375,
      "v": 64
    },
    {
      "midi": 65,
      "hit": false,
      "t": 54843.75,
      "d": 156.25,
      "v": 87
    },
    {
      "midi": 69,
      "hit": false,
      "t": 54843.75,
      "d": 156.25,
      "v": 87
    },
    {
      "midi": 60,
      "hit": false,
      "t": 55078.125,
      "d": 210.9375,
      "v": 64
    },
    {
      "midi": 65,
      "hit": false,
      "t": 55078.125,
      "d": 210.9375,
      "v": 64
    },
    {
      "midi": 69,
      "hit": false,
      "t": 55078.125,
      "d": 210.9375,
      "v": 64
    },
    {
      "midi": 65,
      "hit": false,
      "t": 55078.125,
      "d": 156.25,
      "v": 87
    },
    {
      "midi": 69,
      "hit": false,
      "t": 55078.125,
      "d": 156.25,
      "v": 87
    },
    {
      "midi": 60,
      "hit": false,
      "t": 55312.5,
      "d": 210.9375,
      "v": 64
    },
    {
      "midi": 65,
      "hit": false,
      "t": 55312.5,
      "d": 210.9375,
      "v": 64
    },
    {
      "midi": 69,
      "hit": false,
      "t": 55312.5,
      "d": 210.9375,
      "v": 64
    },
    {
      "midi": 65,
      "hit": false,
      "t": 55312.5,
      "d": 156.25,
      "v": 87
    },
    {
      "midi": 69,
      "hit": false,
      "t": 55312.5,
      "d": 156.25,
      "v": 87
    },
    {
      "midi": 60,
      "hit": false,
      "t": 55546.875,
      "d": 210.9375,
      "v": 64
    },
    {
      "midi": 65,
      "hit": false,
      "t": 55546.875,
      "d": 210.9375,
      "v": 64
    },
    {
      "midi": 69,
      "hit": false,
      "t": 55546.875,
      "d": 210.9375,
      "v": 64
    },
    {
      "midi": 65,
      "hit": false,
      "t": 55546.875,
      "d": 156.25,
      "v": 87
    },
    {
      "midi": 69,
      "hit": false,
      "t": 55546.875,
      "d": 156.25,
      "v": 87
    },
    {
      "midi": 60,
      "hit": false,
      "t": 55781.25,
      "d": 210.9375,
      "v": 64
    },
    {
      "midi": 65,
      "hit": false,
      "t": 55781.25,
      "d": 210.9375,
      "v": 64
    },
    {
      "midi": 69,
      "hit": false,
      "t": 55781.25,
      "d": 210.9375,
      "v": 64
    },
    {
      "midi": 65,
      "hit": false,
      "t": 55781.25,
      "d": 156.25,
      "v": 87
    },
    {
      "midi": 69,
      "hit": false,
      "t": 55781.25,
      "d": 156.25,
      "v": 87
    },
    {
      "midi": 60,
      "hit": false,
      "t": 56015.625,
      "d": 210.9375,
      "v": 64
    },
    {
      "midi": 65,
      "hit": false,
      "t": 56015.625,
      "d": 210.9375,
      "v": 64
    },
    {
      "midi": 69,
      "hit": false,
      "t": 56015.625,
      "d": 210.9375,
      "v": 64
    },
    {
      "midi": 65,
      "hit": false,
      "t": 56015.625,
      "d": 156.25,
      "v": 87
    },
    {
      "midi": 69,
      "hit": false,
      "t": 56015.625,
      "d": 156.25,
      "v": 87
    },
    {
      "midi": 60,
      "hit": false,
      "t": 56250,
      "d": 210.9375,
      "v": 64
    },
    {
      "midi": 65,
      "hit": false,
      "t": 56250,
      "d": 210.9375,
      "v": 64
    },
    {
      "midi": 68,
      "hit": false,
      "t": 56250,
      "d": 210.9375,
      "v": 64
    },
    {
      "midi": 65,
      "hit": false,
      "t": 56250,
      "d": 156.25,
      "v": 87
    },
    {
      "midi": 68,
      "hit": false,
      "t": 56250,
      "d": 156.25,
      "v": 87
    },
    {
      "midi": 41,
      "hit": false,
      "t": 56250,
      "d": 1109.375,
      "v": 87
    },
    {
      "midi": 53,
      "hit": false,
      "t": 56250,
      "d": 1109.375,
      "v": 87
    },
    {
      "midi": 60,
      "hit": false,
      "t": 56484.375,
      "d": 210.9375,
      "v": 64
    },
    {
      "midi": 65,
      "hit": false,
      "t": 56484.375,
      "d": 210.9375,
      "v": 64
    },
    {
      "midi": 68,
      "hit": false,
      "t": 56484.375,
      "d": 210.9375,
      "v": 64
    },
    {
      "midi": 65,
      "hit": false,
      "t": 56484.375,
      "d": 156.25,
      "v": 87
    },
    {
      "midi": 68,
      "hit": false,
      "t": 56484.375,
      "d": 156.25,
      "v": 87
    },
    {
      "midi": 60,
      "hit": false,
      "t": 56718.75,
      "d": 210.9375,
      "v": 64
    },
    {
      "midi": 65,
      "hit": false,
      "t": 56718.75,
      "d": 210.9375,
      "v": 64
    },
    {
      "midi": 68,
      "hit": false,
      "t": 56718.75,
      "d": 210.9375,
      "v": 64
    },
    {
      "midi": 65,
      "hit": false,
      "t": 56718.75,
      "d": 156.25,
      "v": 87
    },
    {
      "midi": 68,
      "hit": false,
      "t": 56718.75,
      "d": 156.25,
      "v": 87
    },
    {
      "midi": 60,
      "hit": false,
      "t": 56953.125,
      "d": 210.9375,
      "v": 64
    },
    {
      "midi": 65,
      "hit": false,
      "t": 56953.125,
      "d": 210.9375,
      "v": 64
    },
    {
      "midi": 68,
      "hit": false,
      "t": 56953.125,
      "d": 210.9375,
      "v": 64
    },
    {
      "midi": 65,
      "hit": false,
      "t": 56953.125,
      "d": 156.25,
      "v": 87
    },
    {
      "midi": 68,
      "hit": false,
      "t": 56953.125,
      "d": 156.25,
      "v": 87
    },
    {
      "midi": 60,
      "hit": false,
      "t": 57187.5,
      "d": 921.875,
      "v": 64
    },
    {
      "midi": 65,
      "hit": false,
      "t": 57187.5,
      "d": 921.875,
      "v": 64
    },
    {
      "midi": 68,
      "hit": false,
      "t": 57187.5,
      "d": 929.6875,
      "v": 64
    },
    {
      "midi": 65,
      "hit": false,
      "t": 57187.5,
      "d": 156.25,
      "v": 87
    },
    {
      "midi": 68,
      "hit": false,
      "t": 57187.5,
      "d": 156.25,
      "v": 87
    },
    {
      "midi": 41,
      "hit": false,
      "t": 57421.875,
      "d": 234.375,
      "v": 87
    },
    {
      "midi": 53,
      "hit": false,
      "t": 57421.875,
      "d": 234.375,
      "v": 87
    },
    {
      "midi": 65,
      "hit": false,
      "t": 57656.25,
      "d": 156.25,
      "v": 87
    },
    {
      "midi": 68,
      "hit": false,
      "t": 57656.25,
      "d": 156.25,
      "v": 87
    },
    {
      "midi": 39,
      "hit": false,
      "t": 57656.25,
      "d": 234.375,
      "v": 87
    },
    {
      "midi": 51,
      "hit": false,
      "t": 57656.25,
      "d": 234.375,
      "v": 87
    },
    {
      "midi": 37,
      "hit": false,
      "t": 57890.625,
      "d": 234.375,
      "v": 87
    },
    {
      "midi": 49,
      "hit": false,
      "t": 57890.625,
      "d": 234.375,
      "v": 87
    },
    {
      "midi": 67,
      "hit": false,
      "t": 57890.625,
      "d": 1578.125,
      "v": 87
    },
    {
      "midi": 70,
      "hit": false,
      "t": 57890.625,
      "d": 1578.125,
      "v": 87
    },
    {
      "midi": 60,
      "hit": false,
      "t": 58125,
      "d": 1859.375,
      "v": 64
    },
    {
      "midi": 63,
      "hit": false,
      "t": 58125,
      "d": 1867.1875,
      "v": 64
    },
    {
      "midi": 67,
      "hit": false,
      "t": 58125,
      "d": 1867.1875,
      "v": 64
    },
    {
      "midi": 70,
      "hit": false,
      "t": 58125,
      "d": 1867.1875,
      "v": 64
    },
    {
      "midi": 36,
      "hit": false,
      "t": 58125,
      "d": 1843.75,
      "v": 87
    },
    {
      "midi": 48,
      "hit": false,
      "t": 58125,
      "d": 1843.75,
      "v": 87
    },
    {
      "midi": 82,
      "hit": false,
      "t": 58828.125,
      "d": 62.5,
      "v": 64
    },
    {
      "midi": 79,
      "hit": false,
      "t": 58906.25,
      "d": 62.5,
      "v": 64
    },
    {
      "midi": 75,
      "hit": false,
      "t": 58984.375,
      "d": 62.5,
      "v": 64
    },
    {
      "midi": 72,
      "hit": false,
      "t": 59062.5,
      "d": 914.0625,
      "v": 64
    },
    {
      "midi": 67,
      "hit": false,
      "t": 59531.25,
      "d": 234.375,
      "v": 87
    },
    {
      "midi": 70,
      "hit": false,
      "t": 59531.25,
      "d": 234.375,
      "v": 87
    },
    {
      "midi": 61,
      "hit": false,
      "t": 60000,
      "d": 445.3125,
      "v": 64
    },
    {
      "midi": 66,
      "hit": false,
      "t": 60000,
      "d": 921.875,
      "v": 64
    },
    {
      "midi": 70,
      "hit": false,
      "t": 60000,
      "d": 1148.4375,
      "v": 64
    },
    {
      "midi": 39,
      "hit": false,
      "t": 60000,
      "d": 906.25,
      "v": 87
    },
    {
      "midi": 51,
      "hit": false,
      "t": 60000,
      "d": 921.875,
      "v": 87
    },
    {
      "midi": 61,
      "hit": false,
      "t": 60000,
      "d": 921.875,
      "v": 87
    },
    {
      "midi": 66,
      "hit": false,
      "t": 60000,
      "d": 921.875,
      "v": 87
    },
    {
      "midi": 61,
      "hit": false,
      "t": 60468.75,
      "d": 218.75,
      "v": 64
    },
    {
      "midi": 63,
      "hit": false,
      "t": 60703.125,
      "d": 218.75,
      "v": 64
    },
    {
      "midi": 66,
      "hit": false,
      "t": 60937.5,
      "d": 218.75,
      "v": 64
    },
    {
      "midi": 61,
      "hit": false,
      "t": 60937.5,
      "d": 234.375,
      "v": 87
    },
    {
      "midi": 66,
      "hit": false,
      "t": 60937.5,
      "d": 234.375,
      "v": 87
    },
    {
      "midi": 70,
      "hit": false,
      "t": 61171.875,
      "d": 218.75,
      "v": 64
    },
    {
      "midi": 73,
      "hit": false,
      "t": 61406.25,
      "d": 453.125,
      "v": 64
    },
    {
      "midi": 61,
      "hit": false,
      "t": 61406.25,
      "d": 234.375,
      "v": 87
    },
    {
      "midi": 66,
      "hit": false,
      "t": 61406.25,
      "d": 234.375,
      "v": 87
    },
    {
      "midi": 62,
      "hit": false,
      "t": 61875,
      "d": 921.875,
      "v": 64
    },
    {
      "midi": 65,
      "hit": false,
      "t": 61875,
      "d": 921.875,
      "v": 64
    },
    {
      "midi": 70,
      "hit": false,
      "t": 61875,
      "d": 921.875,
      "v": 64
    },
    {
      "midi": 46,
      "hit": false,
      "t": 61875,
      "d": 1828.125,
      "v": 87
    },
    {
      "midi": 58,
      "hit": false,
      "t": 61875,
      "d": 1843.75,
      "v": 87
    },
    {
      "midi": 65,
      "hit": false,
      "t": 62812.5,
      "d": 921.875,
      "v": 64
    },
    {
      "midi": 70,
      "hit": false,
      "t": 62812.5,
      "d": 921.875,
      "v": 64
    },
    {
      "midi": 74,
      "hit": false,
      "t": 62812.5,
      "d": 921.875,
      "v": 64
    },
    {
      "midi": 63,
      "hit": false,
      "t": 63750,
      "d": 921.875,
      "v": 64
    },
    {
      "midi": 55,
      "hit": false,
      "t": 63750,
      "d": 1859.375,
      "v": 64
    },
    {
      "midi": 58,
      "hit": false,
      "t": 63750,
      "d": 1867.1875,
      "v": 64
    },
    {
      "midi": 70,
      "hit": false,
      "t": 64687.5,
      "d": 445.3125,
      "v": 64
    },
    {
      "midi": 67,
      "hit": false,
      "t": 64687.5,
      "d": 453.125,
      "v": 64
    },
    {
      "midi": 63,
      "hit": false,
      "t": 64687.5,
      "d": 460.9375,
      "v": 64
    },
    {
      "midi": 67,
      "hit": false,
      "t": 65156.25,
      "d": 445.3125,
      "v": 64
    },
    {
      "midi": 70,
      "hit": false,
      "t": 65156.25,
      "d": 453.125,
      "v": 64
    },
    {
      "midi": 75,
      "hit": false,
      "t": 65156.25,
      "d": 460.9375,
      "v": 64
    },
    {
      "midi": 62,
      "hit": false,
      "t": 65625,
      "d": 929.6875,
      "v": 64
    },
    {
      "midi": 65,
      "hit": false,
      "t": 65625,
      "d": 929.6875,
      "v": 64
    },
    {
      "midi": 70,
      "hit": false,
      "t": 65625,
      "d": 929.6875,
      "v": 64
    },
    {
      "midi": 65,
      "hit": false,
      "t": 66562.5,
      "d": 929.6875,
      "v": 64
    },
    {
      "midi": 70,
      "hit": false,
      "t": 66562.5,
      "d": 929.6875,
      "v": 64
    },
    {
      "midi": 74,
      "hit": false,
      "t": 66562.5,
      "d": 929.6875,
      "v": 64
    },
    {
      "midi": 66,
      "hit": false,
      "t": 67500,
      "d": 460.9375,
      "v": 64
    },
    {
      "midi": 70,
      "hit": false,
      "t": 67500,
      "d": 687.5,
      "v": 64
    },
    {
      "midi": 62,
      "hit": false,
      "t": 67734.375,
      "d": 210.9375,
      "v": 64
    },
    {
      "midi": 66,
      "hit": false,
      "t": 67968.75,
      "d": 210.9375,
      "v": 64
    },
    {
      "midi": 70,
      "hit": false,
      "t": 68203.125,
      "d": 210.9375,
      "v": 64
    },
    {
      "midi": 74,
      "hit": false,
      "t": 68437.5,
      "d": 210.9375,
      "v": 64
    },
    {
      "midi": 74,
      "hit": false,
      "t": 68671.875,
      "d": 210.9375,
      "v": 64
    },
    {
      "midi": 70,
      "hit": false,
      "t": 68906.25,
      "d": 210.9375,
      "v": 64
    },
    {
      "midi": 66,
      "hit": false,
      "t": 69140.625,
      "d": 210.9375,
      "v": 64
    },
    {
      "midi": 77,
      "hit": false,
      "t": 69375,
      "d": 437.5,
      "v": 64
    },
    {
      "midi": 72,
      "hit": false,
      "t": 69375,
      "d": 445.3125,
      "v": 64
    },
    {
      "midi": 69,
      "hit": false,
      "t": 69375,
      "d": 453.125,
      "v": 64
    },
    {
      "midi": 41,
      "hit": false,
      "t": 69375,
      "d": 1843.75,
      "v": 87
    },
    {
      "midi": 53,
      "hit": false,
      "t": 69375,
      "d": 1843.75,
      "v": 87
    },
    {
      "midi": 69,
      "hit": false,
      "t": 69843.75,
      "d": 210.9375,
      "v": 64
    },
    {
      "midi": 72,
      "hit": false,
      "t": 69843.75,
      "d": 210.9375,
      "v": 64
    },
    {
      "midi": 77,
      "hit": false,
      "t": 69843.75,
      "d": 210.9375,
      "v": 64
    },
    {
      "midi": 65,
      "hit": false,
      "t": 69843.75,
      "d": 156.25,
      "v": 87
    },
    {
      "midi": 69,
      "hit": false,
      "t": 69843.75,
      "d": 156.25,
      "v": 87
    },
    {
      "midi": 69,
      "hit": false,
      "t": 70078.125,
      "d": 210.9375,
      "v": 64
    },
    {
      "midi": 72,
      "hit": false,
      "t": 70078.125,
      "d": 210.9375,
      "v": 64
    },
    {
      "midi": 77,
      "hit": false,
      "t": 70078.125,
      "d": 210.9375,
      "v": 64
    },
    {
      "midi": 65,
      "hit": false,
      "t": 70078.125,
      "d": 156.25,
      "v": 87
    },
    {
      "midi": 69,
      "hit": false,
      "t": 70078.125,
      "d": 156.25,
      "v": 87
    },
    {
      "midi": 69,
      "hit": false,
      "t": 70312.5,
      "d": 210.9375,
      "v": 64
    },
    {
      "midi": 72,
      "hit": false,
      "t": 70312.5,
      "d": 210.9375,
      "v": 64
    },
    {
      "midi": 77,
      "hit": false,
      "t": 70312.5,
      "d": 210.9375,
      "v": 64
    },
    {
      "midi": 65,
      "hit": false,
      "t": 70312.5,
      "d": 156.25,
      "v": 87
    },
    {
      "midi": 69,
      "hit": false,
      "t": 70312.5,
      "d": 156.25,
      "v": 87
    },
    {
      "midi": 69,
      "hit": false,
      "t": 70546.875,
      "d": 210.9375,
      "v": 64
    },
    {
      "midi": 72,
      "hit": false,
      "t": 70546.875,
      "d": 210.9375,
      "v": 64
    },
    {
      "midi": 77,
      "hit": false,
      "t": 70546.875,
      "d": 210.9375,
      "v": 64
    },
    {
      "midi": 65,
      "hit": false,
      "t": 70546.875,
      "d": 156.25,
      "v": 87
    },
    {
      "midi": 69,
      "hit": false,
      "t": 70546.875,
      "d": 156.25,
      "v": 87
    },
    {
      "midi": 69,
      "hit": false,
      "t": 70781.25,
      "d": 210.9375,
      "v": 64
    },
    {
      "midi": 72,
      "hit": false,
      "t": 70781.25,
      "d": 210.9375,
      "v": 64
    },
    {
      "midi": 77,
      "hit": false,
      "t": 70781.25,
      "d": 210.9375,
      "v": 64
    },
    {
      "midi": 65,
      "hit": false,
      "t": 70781.25,
      "d": 156.25,
      "v": 87
    },
    {
      "midi": 69,
      "hit": false,
      "t": 70781.25,
      "d": 156.25,
      "v": 87
    },
    {
      "midi": 69,
      "hit": false,
      "t": 71015.625,
      "d": 210.9375,
      "v": 64
    },
    {
      "midi": 72,
      "hit": false,
      "t": 71015.625,
      "d": 210.9375,
      "v": 64
    },
    {
      "midi": 77,
      "hit": false,
      "t": 71015.625,
      "d": 210.9375,
      "v": 64
    },
    {
      "midi": 65,
      "hit": false,
      "t": 71015.625,
      "d": 156.25,
      "v": 87
    },
    {
      "midi": 69,
      "hit": false,
      "t": 71015.625,
      "d": 156.25,
      "v": 87
    },
    {
      "midi": 68,
      "hit": false,
      "t": 71250,
      "d": 210.9375,
      "v": 64
    },
    {
      "midi": 72,
      "hit": false,
      "t": 71250,
      "d": 210.9375,
      "v": 64
    },
    {
      "midi": 77,
      "hit": false,
      "t": 71250,
      "d": 210.9375,
      "v": 64
    },
    {
      "midi": 65,
      "hit": false,
      "t": 71250,
      "d": 156.25,
      "v": 87
    },
    {
      "midi": 68,
      "hit": false,
      "t": 71250,
      "d": 156.25,
      "v": 87
    },
    {
      "midi": 41,
      "hit": false,
      "t": 71250,
      "d": 1109.375,
      "v": 87
    },
    {
      "midi": 53,
      "hit": false,
      "t": 71250,
      "d": 1109.375,
      "v": 87
    },
    {
      "midi": 68,
      "hit": false,
      "t": 71484.375,
      "d": 210.9375,
      "v": 64
    },
    {
      "midi": 72,
      "hit": false,
      "t": 71484.375,
      "d": 210.9375,
      "v": 64
    },
    {
      "midi": 77,
      "hit": false,
      "t": 71484.375,
      "d": 210.9375,
      "v": 64
    },
    {
      "midi": 65,
      "hit": false,
      "t": 71484.375,
      "d": 156.25,
      "v": 87
    },
    {
      "midi": 68,
      "hit": false,
      "t": 71484.375,
      "d": 156.25,
      "v": 87
    },
    {
      "midi": 68,
      "hit": false,
      "t": 71718.75,
      "d": 210.9375,
      "v": 64
    },
    {
      "midi": 72,
      "hit": false,
      "t": 71718.75,
      "d": 210.9375,
      "v": 64
    },
    {
      "midi": 77,
      "hit": false,
      "t": 71718.75,
      "d": 210.9375,
      "v": 64
    },
    {
      "midi": 65,
      "hit": false,
      "t": 71718.75,
      "d": 156.25,
      "v": 87
    },
    {
      "midi": 68,
      "hit": false,
      "t": 71718.75,
      "d": 156.25,
      "v": 87
    },
    {
      "midi": 68,
      "hit": false,
      "t": 71953.125,
      "d": 210.9375,
      "v": 64
    },
    {
      "midi": 72,
      "hit": false,
      "t": 71953.125,
      "d": 210.9375,
      "v": 64
    },
    {
      "midi": 77,
      "hit": false,
      "t": 71953.125,
      "d": 210.9375,
      "v": 64
    },
    {
      "midi": 65,
      "hit": false,
      "t": 71953.125,
      "d": 156.25,
      "v": 87
    },
    {
      "midi": 68,
      "hit": false,
      "t": 71953.125,
      "d": 156.25,
      "v": 87
    },
    {
      "midi": 68,
      "hit": false,
      "t": 72187.5,
      "d": 914.0625,
      "v": 64
    },
    {
      "midi": 77,
      "hit": false,
      "t": 72187.5,
      "d": 914.0625,
      "v": 64
    },
    {
      "midi": 72,
      "hit": false,
      "t": 72187.5,
      "d": 921.875,
      "v": 64
    },
    {
      "midi": 65,
      "hit": false,
      "t": 72187.5,
      "d": 156.25,
      "v": 87
    },
    {
      "midi": 68,
      "hit": false,
      "t": 72187.5,
      "d": 156.25,
      "v": 87
    },
    {
      "midi": 41,
      "hit": false,
      "t": 72421.875,
      "d": 234.375,
      "v": 87
    },
    {
      "midi": 53,
      "hit": false,
      "t": 72421.875,
      "d": 234.375,
      "v": 87
    },
    {
      "midi": 65,
      "hit": false,
      "t": 72656.25,
      "d": 156.25,
      "v": 87
    },
    {
      "midi": 68,
      "hit": false,
      "t": 72656.25,
      "d": 156.25,
      "v": 87
    },
    {
      "midi": 39,
      "hit": false,
      "t": 72656.25,
      "d": 234.375,
      "v": 87
    },
    {
      "midi": 51,
      "hit": false,
      "t": 72656.25,
      "d": 234.375,
      "v": 87
    },
    {
      "midi": 37,
      "hit": false,
      "t": 72890.625,
      "d": 234.375,
      "v": 87
    },
    {
      "midi": 49,
      "hit": false,
      "t": 72890.625,
      "d": 234.375,
      "v": 87
    },
    {
      "midi": 67,
      "hit": false,
      "t": 72890.625,
      "d": 1578.125,
      "v": 87
    },
    {
      "midi": 70,
      "hit": false,
      "t": 72890.625,
      "d": 1578.125,
      "v": 87
    },
    {
      "midi": 70,
      "hit": false,
      "t": 73125,
      "d": 1859.375,
      "v": 64
    },
    {
      "midi": 60,
      "hit": false,
      "t": 73125,
      "d": 1882.8125,
      "v": 64
    },
    {
      "midi": 63,
      "hit": false,
      "t": 73125,
      "d": 1882.8125,
      "v": 64
    },
    {
      "midi": 67,
      "hit": false,
      "t": 73125,
      "d": 1882.8125,
      "v": 64
    },
    {
      "midi": 36,
      "hit": false,
      "t": 73125,
      "d": 1843.75,
      "v": 87
    },
    {
      "midi": 48,
      "hit": false,
      "t": 73125,
      "d": 1843.75,
      "v": 87
    },
    {
      "midi": 84,
      "hit": false,
      "t": 73828.125,
      "d": 62.5,
      "v": 64
    },
    {
      "midi": 82,
      "hit": false,
      "t": 73906.25,
      "d": 62.5,
      "v": 64
    },
    {
      "midi": 79,
      "hit": false,
      "t": 73984.375,
      "d": 62.5,
      "v": 64
    },
    {
      "midi": 75,
      "hit": false,
      "t": 74062.5,
      "d": 921.875,
      "v": 64
    },
    {
      "midi": 67,
      "hit": false,
      "t": 74531.25,
      "d": 234.375,
      "v": 87
    },
    {
      "midi": 70,
      "hit": false,
      "t": 74531.25,
      "d": 234.375,
      "v": 87
    },
    {
      "midi": 61,
      "hit": false,
      "t": 75000,
      "d": 460.9375,
      "v": 64
    },
    {
      "midi": 66,
      "hit": false,
      "t": 75000,
      "d": 921.875,
      "v": 64
    },
    {
      "midi": 70,
      "hit": false,
      "t": 75000,
      "d": 1164.0625,
      "v": 64
    },
    {
      "midi": 61,
      "hit": false,
      "t": 75000,
      "d": 921.875,
      "v": 87
    },
    {
      "midi": 66,
      "hit": false,
      "t": 75000,
      "d": 921.875,
      "v": 87
    },
    {
      "midi": 39,
      "hit": false,
      "t": 75000,
      "d": 1843.75,
      "v": 87
    },
    {
      "midi": 51,
      "hit": false,
      "t": 75000,
      "d": 1843.75,
      "v": 87
    },
    {
      "midi": 61,
      "hit": false,
      "t": 75468.75,
      "d": 210.9375,
      "v": 64
    },
    {
      "midi": 63,
      "hit": false,
      "t": 75703.125,
      "d": 210.9375,
      "v": 64
    },
    {
      "midi": 66,
      "hit": false,
      "t": 75937.5,
      "d": 210.9375,
      "v": 64
    },
    {
      "midi": 61,
      "hit": false,
      "t": 75937.5,
      "d": 437.5,
      "v": 87
    },
    {
      "midi": 66,
      "hit": false,
      "t": 75937.5,
      "d": 437.5,
      "v": 87
    },
    {
      "midi": 70,
      "hit": false,
      "t": 76171.875,
      "d": 210.9375,
      "v": 64
    },
    {
      "midi": 73,
      "hit": false,
      "t": 76406.25,
      "d": 460.9375,
      "v": 64
    },
    {
      "midi": 61,
      "hit": false,
      "t": 76406.25,
      "d": 437.5,
      "v": 87
    },
    {
      "midi": 66,
      "hit": false,
      "t": 76406.25,
      "d": 437.5,
      "v": 87
    },
    {
      "midi": 70,
      "hit": false,
      "t": 76875,
      "d": 210.9375,
      "v": 64
    },
    {
      "midi": 43,
      "hit": false,
      "t": 76875,
      "d": 1843.75,
      "v": 87
    },
    {
      "midi": 55,
      "hit": false,
      "t": 76875,
      "d": 1843.75,
      "v": 87
    },
    {
      "midi": 62,
      "hit": false,
      "t": 77109.375,
      "d": 210.9375,
      "v": 64
    },
    {
      "midi": 65,
      "hit": false,
      "t": 77343.75,
      "d": 210.9375,
      "v": 64
    },
    {
      "midi": 67,
      "hit": false,
      "t": 77578.125,
      "d": 210.9375,
      "v": 64
    },
    {
      "midi": 62,
      "hit": false,
      "t": 77812.5,
      "d": 914.0625,
      "v": 64
    },
    {
      "midi": 67,
      "hit": false,
      "t": 77812.5,
      "d": 921.875,
      "v": 64
    },
    {
      "midi": 70,
      "hit": false,
      "t": 77812.5,
      "d": 929.6875,
      "v": 64
    },
    {
      "midi": 70,
      "hit": false,
      "t": 78750,
      "d": 921.875,
      "v": 64
    },
    {
      "midi": 62,
      "hit": false,
      "t": 78750,
      "d": 1867.1875,
      "v": 64
    },
    {
      "midi": 66,
      "hit": false,
      "t": 78750,
      "d": 1867.1875,
      "v": 64
    },
    {
      "midi": 42,
      "hit": false,
      "t": 78750,
      "d": 1843.75,
      "v": 87
    },
    {
      "midi": 54,
      "hit": false,
      "t": 78750,
      "d": 1843.75,
      "v": 87
    },
    {
      "midi": 70,
      "hit": false,
      "t": 79687.5,
      "d": 921.875,
      "v": 64
    },
    {
      "midi": 74,
      "hit": false,
      "t": 79687.5,
      "d": 921.875,
      "v": 64
    },
    {
      "midi": 78,
      "hit": false,
      "t": 79687.5,
      "d": 921.875,
      "v": 64
    },
    {
      "midi": 53,
      "hit": false,
      "t": 80625,
      "d": 1859.375,
      "v": 64
    },
    {
      "midi": 58,
      "hit": false,
      "t": 80625,
      "d": 1859.375,
      "v": 64
    },
    {
      "midi": 62,
      "hit": false,
      "t": 80625,
      "d": 1859.375,
      "v": 64
    },
    {
      "midi": 41,
      "hit": false,
      "t": 80625,
      "d": 1843.75,
      "v": 87
    },
    {
      "midi": 53,
      "hit": false,
      "t": 80625,
      "d": 1843.75,
      "v": 87
    },
    {
      "midi": 65,
      "hit": false,
      "t": 81562.5,
      "d": 914.0625,
      "v": 64
    },
    {
      "midi": 70,
      "hit": false,
      "t": 81562.5,
      "d": 914.0625,
      "v": 64
    },
    {
      "midi": 74,
      "hit": false,
      "t": 81562.5,
      "d": 914.0625,
      "v": 64
    },
    {
      "midi": 52,
      "hit": false,
      "t": 82500,
      "d": 1875,
      "v": 64
    },
    {
      "midi": 55,
      "hit": false,
      "t": 82500,
      "d": 1875,
      "v": 64
    },
    {
      "midi": 58,
      "hit": false,
      "t": 82500,
      "d": 1875,
      "v": 64
    },
    {
      "midi": 62,
      "hit": false,
      "t": 82500,
      "d": 1875,
      "v": 64
    },
    {
      "midi": 40,
      "hit": false,
      "t": 82500,
      "d": 1843.75,
      "v": 87
    },
    {
      "midi": 52,
      "hit": false,
      "t": 82500,
      "d": 1843.75,
      "v": 87
    },
    {
      "midi": 67,
      "hit": false,
      "t": 83203.125,
      "d": 226.5625,
      "v": 64
    },
    {
      "midi": 67,
      "hit": false,
      "t": 83437.5,
      "d": 929.6875,
      "v": 64
    },
    {
      "midi": 70,
      "hit": false,
      "t": 83437.5,
      "d": 929.6875,
      "v": 64
    },
    {
      "midi": 74,
      "hit": false,
      "t": 83437.5,
      "d": 929.6875,
      "v": 64
    },
    {
      "midi": 55,
      "hit": false,
      "t": 83437.5,
      "d": 906.25,
      "v": 87
    },
    {
      "midi": 58,
      "hit": false,
      "t": 83437.5,
      "d": 906.25,
      "v": 87
    },
    {
      "midi": 64,
      "hit": false,
      "t": 83437.5,
      "d": 906.25,
      "v": 87
    },
    {
      "midi": 60,
      "hit": false,
      "t": 84375,
      "d": 1851.5625,
      "v": 64
    },
    {
      "midi": 65,
      "hit": false,
      "t": 84375,
      "d": 1851.5625,
      "v": 64
    },
    {
      "midi": 57,
      "hit": false,
      "t": 84375,
      "d": 1859.375,
      "v": 64
    },
    {
      "midi": 41,
      "hit": false,
      "t": 84375,
      "d": 1843.75,
      "v": 87
    },
    {
      "midi": 53,
      "hit": false,
      "t": 84375,
      "d": 1843.75,
      "v": 87
    },
    {
      "midi": 72,
      "hit": false,
      "t": 85312.5,
      "d": 929.6875,
      "v": 64
    },
    {
      "midi": 77,
      "hit": false,
      "t": 85312.5,
      "d": 929.6875,
      "v": 64
    },
    {
      "midi": 81,
      "hit": false,
      "t": 85312.5,
      "d": 929.6875,
      "v": 64
    },
    {
      "midi": 57,
      "hit": false,
      "t": 85312.5,
      "d": 906.25,
      "v": 87
    },
    {
      "midi": 60,
      "hit": false,
      "t": 85312.5,
      "d": 906.25,
      "v": 87
    },
    {
      "midi": 65,
      "hit": false,
      "t": 85312.5,
      "d": 906.25,
      "v": 87
    },
    {
      "midi": 63,
      "hit": false,
      "t": 86250,
      "d": 921.875,
      "v": 64
    },
    {
      "midi": 66,
      "hit": false,
      "t": 86250,
      "d": 921.875,
      "v": 64
    },
    {
      "midi": 60,
      "hit": false,
      "t": 86250,
      "d": 1851.5625,
      "v": 64
    },
    {
      "midi": 57,
      "hit": false,
      "t": 86250,
      "d": 1859.375,
      "v": 64
    },
    {
      "midi": 42,
      "hit": false,
      "t": 86250,
      "d": 1843.75,
      "v": 87
    },
    {
      "midi": 54,
      "hit": false,
      "t": 86250,
      "d": 1843.75,
      "v": 87
    },
    {
      "midi": 63,
      "hit": false,
      "t": 87187.5,
      "d": 921.875,
      "v": 64
    },
    {
      "midi": 66,
      "hit": false,
      "t": 87187.5,
      "d": 921.875,
      "v": 64
    },
    {
      "midi": 69,
      "hit": false,
      "t": 87187.5,
      "d": 929.6875,
      "v": 64
    },
    {
      "midi": 72,
      "hit": false,
      "t": 87187.5,
      "d": 929.6875,
      "v": 64
    },
    {
      "midi": 57,
      "hit": false,
      "t": 87187.5,
      "d": 906.25,
      "v": 87
    },
    {
      "midi": 60,
      "hit": false,
      "t": 87187.5,
      "d": 906.25,
      "v": 87
    },
    {
      "midi": 63,
      "hit": false,
      "t": 87187.5,
      "d": 906.25,
      "v": 87
    },
    {
      "midi": 66,
      "hit": false,
      "t": 87187.5,
      "d": 906.25,
      "v": 87
    },
    {
      "midi": 58,
      "hit": false,
      "t": 88125,
      "d": 1859.375,
      "v": 64
    },
    {
      "midi": 62,
      "hit": false,
      "t": 88125,
      "d": 1859.375,
      "v": 64
    },
    {
      "midi": 67,
      "hit": false,
      "t": 88125,
      "d": 1859.375,
      "v": 64
    },
    {
      "midi": 43,
      "hit": false,
      "t": 88125,
      "d": 1843.75,
      "v": 87
    },
    {
      "midi": 55,
      "hit": false,
      "t": 88125,
      "d": 1843.75,
      "v": 87
    },
    {
      "midi": 79,
      "hit": false,
      "t": 89062.5,
      "d": 929.6875,
      "v": 64
    },
    {
      "midi": 82,
      "hit": false,
      "t": 89062.5,
      "d": 929.6875,
      "v": 64
    },
    {
      "midi": 86,
      "hit": false,
      "t": 89062.5,
      "d": 929.6875,
      "v": 64
    },
    {
      "midi": 58,
      "hit": false,
      "t": 89062.5,
      "d": 906.25,
      "v": 87
    },
    {
      "midi": 62,
      "hit": false,
      "t": 89062.5,
      "d": 906.25,
      "v": 87
    },
    {
      "midi": 67,
      "hit": false,
      "t": 89062.5,
      "d": 906.25,
      "v": 87
    },
    {
      "midi": 53,
      "hit": false,
      "t": 90000,
      "d": 1859.375,
      "v": 64
    },
    {
      "midi": 56,
      "hit": false,
      "t": 90000,
      "d": 1859.375,
      "v": 64
    },
    {
      "midi": 59,
      "hit": false,
      "t": 90000,
      "d": 1859.375,
      "v": 64
    },
    {
      "midi": 62,
      "hit": false,
      "t": 90000,
      "d": 1859.375,
      "v": 64
    },
    {
      "midi": 38,
      "hit": false,
      "t": 90000,
      "d": 1843.75,
      "v": 87
    },
    {
      "midi": 50,
      "hit": false,
      "t": 90000,
      "d": 1843.75,
      "v": 87
    },
    {
      "midi": 65,
      "hit": false,
      "t": 90937.5,
      "d": 929.6875,
      "v": 64
    },
    {
      "midi": 68,
      "hit": false,
      "t": 90937.5,
      "d": 929.6875,
      "v": 64
    },
    {
      "midi": 71,
      "hit": false,
      "t": 90937.5,
      "d": 929.6875,
      "v": 64
    },
    {
      "midi": 74,
      "hit": false,
      "t": 90937.5,
      "d": 929.6875,
      "v": 64
    },
    {
      "midi": 56,
      "hit": false,
      "t": 90937.5,
      "d": 906.25,
      "v": 87
    },
    {
      "midi": 59,
      "hit": false,
      "t": 90937.5,
      "d": 906.25,
      "v": 87
    },
    {
      "midi": 62,
      "hit": false,
      "t": 90937.5,
      "d": 906.25,
      "v": 87
    },
    {
      "midi": 57,
      "hit": false,
      "t": 91875,
      "d": 1867.1875,
      "v": 64
    },
    {
      "midi": 60,
      "hit": false,
      "t": 91875,
      "d": 1867.1875,
      "v": 64
    },
    {
      "midi": 64,
      "hit": false,
      "t": 91875,
      "d": 1867.1875,
      "v": 64
    },
    {
      "midi": 45,
      "hit": false,
      "t": 91875,
      "d": 906.25,
      "v": 87
    },
    {
      "midi": 57,
      "hit": false,
      "t": 91875,
      "d": 906.25,
      "v": 87
    },
    {
      "midi": 72,
      "hit": false,
      "t": 92812.5,
      "d": 929.6875,
      "v": 64
    },
    {
      "midi": 81,
      "hit": false,
      "t": 92812.5,
      "d": 929.6875,
      "v": 64
    },
    {
      "midi": 76,
      "hit": false,
      "t": 92812.5,
      "d": 937.5,
      "v": 64
    },
    {
      "midi": 45,
      "hit": false,
      "t": 92812.5,
      "d": 906.25,
      "v": 87
    },
    {
      "midi": 57,
      "hit": false,
      "t": 92812.5,
      "d": 906.25,
      "v": 87
    },
    {
      "midi": 53,
      "hit": false,
      "t": 93750,
      "d": 1867.1875,
      "v": 64
    },
    {
      "midi": 58,
      "hit": false,
      "t": 93750,
      "d": 1867.1875,
      "v": 64
    },
    {
      "midi": 62,
      "hit": false,
      "t": 93750,
      "d": 1867.1875,
      "v": 64
    },
    {
      "midi": 46,
      "hit": false,
      "t": 93750,
      "d": 906.25,
      "v": 87
    },
    {
      "midi": 58,
      "hit": false,
      "t": 93750,
      "d": 906.25,
      "v": 87
    },
    {
      "midi": 82,
      "hit": false,
      "t": 94218.75,
      "d": 453.125,
      "v": 64
    },
    {
      "midi": 82,
      "hit": false,
      "t": 94687.5,
      "d": 453.125,
      "v": 64
    },
    {
      "midi": 46,
      "hit": false,
      "t": 94687.5,
      "d": 906.25,
      "v": 87
    },
    {
      "midi": 58,
      "hit": false,
      "t": 94687.5,
      "d": 906.25,
      "v": 87
    },
    {
      "midi": 82,
      "hit": false,
      "t": 95156.25,
      "d": 453.125,
      "v": 64
    },
    {
      "midi": 53,
      "hit": false,
      "t": 95625,
      "d": 3710.9375,
      "v": 64
    },
    {
      "midi": 58,
      "hit": false,
      "t": 95625,
      "d": 3710.9375,
      "v": 64
    },
    {
      "midi": 61,
      "hit": false,
      "t": 95625,
      "d": 3726.5625,
      "v": 64
    },
    {
      "midi": 46,
      "hit": false,
      "t": 95625,
      "d": 906.25,
      "v": 87
    },
    {
      "midi": 58,
      "hit": false,
      "t": 95625,
      "d": 906.25,
      "v": 87
    },
    {
      "midi": 82,
      "hit": false,
      "t": 96328.125,
      "d": 453.125,
      "v": 64
    },
    {
      "midi": 82,
      "hit": false,
      "t": 97187.5,
      "d": 453.125,
      "v": 64
    },
    {
      "midi": 82,
      "hit": false,
      "t": 98046.875,
      "d": 453.125,
      "v": 64
    },
    {
      "midi": 69,
      "hit": false,
      "t": 99375,
      "d": 1398.4375,
      "v": 64
    },
    {
      "midi": 60,
      "hit": false,
      "t": 99375,
      "d": 695.3125,
      "v": 64
    },
    {
      "midi": 65,
      "hit": false,
      "t": 99375,
      "d": 695.3125,
      "v": 64
    },
    {
      "midi": 69,
      "hit": false,
      "t": 99375,
      "d": 695.3125,
      "v": 64
    },
    {
      "midi": 41,
      "hit": false,
      "t": 99375,
      "d": 1843.75,
      "v": 64
    },
    {
      "midi": 53,
      "hit": false,
      "t": 99375,
      "d": 1843.75,
      "v": 64
    },
    {
      "midi": 65,
      "hit": false,
      "t": 99843.75,
      "d": 242.1875,
      "v": 64
    },
    {
      "midi": 60,
      "hit": false,
      "t": 100078.125,
      "d": 476.5625,
      "v": 64
    },
    {
      "midi": 69,
      "hit": false,
      "t": 100078.125,
      "d": 218.75,
      "v": 64
    },
    {
      "midi": 65,
      "hit": false,
      "t": 100312.5,
      "d": 218.75,
      "v": 64
    },
    {
      "midi": 65,
      "hit": false,
      "t": 100546.875,
      "d": 242.1875,
      "v": 64
    },
    {
      "midi": 69,
      "hit": false,
      "t": 100546.875,
      "d": 218.75,
      "v": 64
    },
    {
      "midi": 70,
      "hit": false,
      "t": 100781.25,
      "d": 242.1875,
      "v": 64
    },
    {
      "midi": 65,
      "hit": false,
      "t": 100781.25,
      "d": 218.75,
      "v": 64
    },
    {
      "midi": 72,
      "hit": false,
      "t": 101015.625,
      "d": 242.1875,
      "v": 64
    },
    {
      "midi": 67,
      "hit": false,
      "t": 101015.625,
      "d": 218.75,
      "v": 64
    },
    {
      "midi": 69,
      "hit": false,
      "t": 101250,
      "d": 1390.625,
      "v": 64
    },
    {
      "midi": 40,
      "hit": false,
      "t": 101250,
      "d": 1843.75,
      "v": 64
    },
    {
      "midi": 52,
      "hit": false,
      "t": 101250,
      "d": 1843.75,
      "v": 64
    },
    {
      "midi": 60,
      "hit": false,
      "t": 101250,
      "d": 1843.75,
      "v": 64
    },
    {
      "midi": 65,
      "hit": false,
      "t": 101250,
      "d": 1843.75,
      "v": 64
    },
    {
      "midi": 64,
      "hit": false,
      "t": 101718.75,
      "d": 218.75,
      "v": 64
    },
    {
      "midi": 60,
      "hit": false,
      "t": 101953.125,
      "d": 437.5,
      "v": 64
    },
    {
      "midi": 64,
      "hit": false,
      "t": 102421.875,
      "d": 687.5,
      "v": 64
    },
    {
      "midi": 70,
      "hit": false,
      "t": 102656.25,
      "d": 218.75,
      "v": 64
    },
    {
      "midi": 72,
      "hit": false,
      "t": 102890.625,
      "d": 218.75,
      "v": 64
    },
    {
      "midi": 69,
      "hit": false,
      "t": 103125,
      "d": 1390.625,
      "v": 64
    },
    {
      "midi": 60,
      "hit": false,
      "t": 103125,
      "d": 664.0625,
      "v": 64
    },
    {
      "midi": 63,
      "hit": false,
      "t": 103125,
      "d": 671.875,
      "v": 64
    },
    {
      "midi": 39,
      "hit": false,
      "t": 103125,
      "d": 1843.75,
      "v": 64
    },
    {
      "midi": 51,
      "hit": false,
      "t": 103125,
      "d": 1843.75,
      "v": 64
    },
    {
      "midi": 68,
      "hit": false,
      "t": 103359.375,
      "d": 226.5625,
      "v": 64
    },
    {
      "midi": 63,
      "hit": false,
      "t": 103593.75,
      "d": 218.75,
      "v": 64
    },
    {
      "midi": 67,
      "hit": false,
      "t": 103593.75,
      "d": 226.5625,
      "v": 64
    },
    {
      "midi": 60,
      "hit": false,
      "t": 103828.125,
      "d": 437.5,
      "v": 64
    },
    {
      "midi": 60,
      "hit": false,
      "t": 103828.125,
      "d": 664.0625,
      "v": 64
    },
    {
      "midi": 63,
      "hit": false,
      "t": 103828.125,
      "d": 664.0625,
      "v": 64
    },
    {
      "midi": 63,
      "hit": false,
      "t": 104296.875,
      "d": 656.25,
      "v": 64
    },
    {
      "midi": 70,
      "hit": false,
      "t": 104531.25,
      "d": 218.75,
      "v": 64
    },
    {
      "midi": 72,
      "hit": false,
      "t": 104765.625,
      "d": 218.75,
      "v": 64
    },
    {
      "midi": 74,
      "hit": false,
      "t": 105000,
      "d": 218.75,
      "v": 64
    },
    {
      "midi": 66,
      "hit": false,
      "t": 105000,
      "d": 929.6875,
      "v": 64
    },
    {
      "midi": 62,
      "hit": false,
      "t": 105000,
      "d": 718.75,
      "v": 64
    },
    {
      "midi": 66,
      "hit": false,
      "t": 105000,
      "d": 718.75,
      "v": 64
    },
    {
      "midi": 38,
      "hit": false,
      "t": 105000,
      "d": 1851.5625,
      "v": 64
    },
    {
      "midi": 50,
      "hit": false,
      "t": 105000,
      "d": 1851.5625,
      "v": 64
    },
    {
      "midi": 69,
      "hit": false,
      "t": 105234.375,
      "d": 218.75,
      "v": 64
    },
    {
      "midi": 67,
      "hit": false,
      "t": 105468.75,
      "d": 218.75,
      "v": 64
    },
    {
      "midi": 62,
      "hit": false,
      "t": 105703.125,
      "d": 218.75,
      "v": 64
    },
    {
      "midi": 66,
      "hit": false,
      "t": 105937.5,
      "d": 671.875,
      "v": 64
    },
    {
      "midi": 69,
      "hit": false,
      "t": 106171.875,
      "d": 218.75,
      "v": 64
    },
    {
      "midi": 72,
      "hit": false,
      "t": 106406.25,
      "d": 125,
      "v": 64
    },
    {
      "midi": 69,
      "hit": false,
      "t": 106523.4375,
      "d": 140.625,
      "v": 64
    },
    {
      "midi": 66,
      "hit": false,
      "t": 106640.625,
      "d": 125,
      "v": 64
    },
    {
      "midi": 62,
      "hit": false,
      "t": 106757.8125,
      "d": 109.375,
      "v": 64
    },
    {
      "midi": 70,
      "hit": false,
      "t": 106875,
      "d": 710.9375,
      "v": 64
    },
    {
      "midi": 62,
      "hit": false,
      "t": 106875,
      "d": 1859.375,
      "v": 64
    },
    {
      "midi": 70,
      "hit": false,
      "t": 106875,
      "d": 718.75,
      "v": 64
    },
    {
      "midi": 62,
      "hit": false,
      "t": 106875,
      "d": 914.0625,
      "v": 64
    },
    {
      "midi": 43,
      "hit": false,
      "t": 106875,
      "d": 1851.5625,
      "v": 64
    },
    {
      "midi": 55,
      "hit": false,
      "t": 106875,
      "d": 1851.5625,
      "v": 64
    },
    {
      "midi": 67,
      "hit": false,
      "t": 107578.125,
      "d": 226.5625,
      "v": 64
    },
    {
      "midi": 67,
      "hit": false,
      "t": 107578.125,
      "d": 218.75,
      "v": 64
    },
    {
      "midi": 70,
      "hit": false,
      "t": 107812.5,
      "d": 468.75,
      "v": 64
    },
    {
      "midi": 79,
      "hit": false,
      "t": 107812.5,
      "d": 929.6875,
      "v": 64
    },
    {
      "midi": 70,
      "hit": false,
      "t": 107812.5,
      "d": 460.9375,
      "v": 64
    },
    {
      "midi": 79,
      "hit": false,
      "t": 107812.5,
      "d": 460.9375,
      "v": 64
    },
    {
      "midi": 74,
      "hit": false,
      "t": 108281.25,
      "d": 468.75,
      "v": 64
    },
    {
      "midi": 70,
      "hit": false,
      "t": 108750,
      "d": 226.5625,
      "v": 64
    },
    {
      "midi": 62,
      "hit": false,
      "t": 108750,
      "d": 1390.625,
      "v": 64
    },
    {
      "midi": 41,
      "hit": false,
      "t": 108750,
      "d": 1851.5625,
      "v": 64
    },
    {
      "midi": 53,
      "hit": false,
      "t": 108750,
      "d": 1851.5625,
      "v": 64
    },
    {
      "midi": 62,
      "hit": false,
      "t": 108750,
      "d": 1851.5625,
      "v": 64
    },
    {
      "midi": 67,
      "hit": false,
      "t": 108750,
      "d": 1851.5625,
      "v": 64
    },
    {
      "midi": 74,
      "hit": false,
      "t": 108984.375,
      "d": 476.5625,
      "v": 64
    },
    {
      "midi": 70,
      "hit": false,
      "t": 109453.125,
      "d": 437.5,
      "v": 64
    },
    {
      "midi": 69,
      "hit": false,
      "t": 109921.875,
      "d": 226.5625,
      "v": 64
    },
    {
      "midi": 65,
      "hit": false,
      "t": 110156.25,
      "d": 226.5625,
      "v": 64
    },
    {
      "midi": 70,
      "hit": false,
      "t": 110156.25,
      "d": 226.5625,
      "v": 64
    },
    {
      "midi": 74,
      "hit": false,
      "t": 110390.625,
      "d": 226.5625,
      "v": 64
    },
    {
      "midi": 70,
      "hit": false,
      "t": 110625,
      "d": 718.75,
      "v": 64
    },
    {
      "midi": 64,
      "hit": false,
      "t": 110625,
      "d": 1398.4375,
      "v": 64
    },
    {
      "midi": 67,
      "hit": false,
      "t": 110625,
      "d": 703.125,
      "v": 64
    },
    {
      "midi": 40,
      "hit": false,
      "t": 110625,
      "d": 1851.5625,
      "v": 64
    },
    {
      "midi": 52,
      "hit": false,
      "t": 110625,
      "d": 1851.5625,
      "v": 64
    },
    {
      "midi": 60,
      "hit": false,
      "t": 111328.125,
      "d": 234.375,
      "v": 64
    },
    {
      "midi": 55,
      "hit": false,
      "t": 111562.5,
      "d": 226.5625,
      "v": 64
    },
    {
      "midi": 67,
      "hit": false,
      "t": 111562.5,
      "d": 703.125,
      "v": 64
    },
    {
      "midi": 60,
      "hit": false,
      "t": 111796.875,
      "d": 226.5625,
      "v": 64
    },
    {
      "midi": 67,
      "hit": false,
      "t": 112031.25,
      "d": 226.5625,
      "v": 64
    },
    {
      "midi": 64,
      "hit": false,
      "t": 112031.25,
      "d": 445.3125,
      "v": 64
    },
    {
      "midi": 58,
      "hit": false,
      "t": 112031.25,
      "d": 445.3125,
      "v": 64
    },
    {
      "midi": 70,
      "hit": false,
      "t": 112265.625,
      "d": 226.5625,
      "v": 64
    },
    {
      "midi": 64,
      "hit": false,
      "t": 112500,
      "d": 1390.625,
      "v": 64
    },
    {
      "midi": 36,
      "hit": false,
      "t": 112500,
      "d": 1851.5625,
      "v": 64
    },
    {
      "midi": 48,
      "hit": false,
      "t": 112500,
      "d": 1851.5625,
      "v": 64
    },
    {
      "midi": 60,
      "hit": false,
      "t": 112734.375,
      "d": 226.5625,
      "v": 64
    },
    {
      "midi": 64,
      "hit": false,
      "t": 112968.75,
      "d": 226.5625,
      "v": 64
    },
    {
      "midi": 60,
      "hit": false,
      "t": 113203.125,
      "d": 437.5,
      "v": 64
    },
    {
      "midi": 67,
      "hit": false,
      "t": 113437.5,
      "d": 937.5,
      "v": 64
    },
    {
      "midi": 58,
      "hit": false,
      "t": 113671.875,
      "d": 226.5625,
      "v": 64
    },
    {
      "midi": 55,
      "hit": false,
      "t": 113906.25,
      "d": 117.1875,
      "v": 64
    },
    {
      "midi": 64,
      "hit": false,
      "t": 113906.25,
      "d": 234.375,
      "v": 64
    },
    {
      "midi": 58,
      "hit": false,
      "t": 114023.4375,
      "d": 101.5625,
      "v": 64
    },
    {
      "midi": 55,
      "hit": false,
      "t": 114140.625,
      "d": 132.8125,
      "v": 64
    },
    {
      "midi": 65,
      "hit": false,
      "t": 114140.625,
      "d": 906.25,
      "v": 64
    },
    {
      "midi": 69,
      "hit": false,
      "t": 114140.625,
      "d": 914.0625,
      "v": 64
    },
    {
      "midi": 52,
      "hit": false,
      "t": 114257.8125,
      "d": 117.1875,
      "v": 64
    },
    {
      "midi": 69,
      "hit": false,
      "t": 114375,
      "d": 898.4375,
      "v": 64
    },
    {
      "midi": 53,
      "hit": false,
      "t": 114375,
      "d": 1859.375,
      "v": 64
    },
    {
      "midi": 60,
      "hit": false,
      "t": 114375,
      "d": 1859.375,
      "v": 64
    },
    {
      "midi": 41,
      "hit": false,
      "t": 114375,
      "d": 1851.5625,
      "v": 64
    },
    {
      "midi": 53,
      "hit": false,
      "t": 114375,
      "d": 1851.5625,
      "v": 64
    },
    {
      "midi": 60,
      "hit": false,
      "t": 115078.125,
      "d": 234.375,
      "v": 64
    },
    {
      "midi": 69,
      "hit": false,
      "t": 115312.5,
      "d": 304.6875,
      "v": 64
    },
    {
      "midi": 69,
      "hit": false,
      "t": 115312.5,
      "d": 234.375,
      "v": 64
    },
    {
      "midi": 65,
      "hit": false,
      "t": 115546.875,
      "d": 203.125,
      "v": 64
    },
    {
      "midi": 67,
      "hit": false,
      "t": 115625,
      "d": 281.25,
      "v": 64
    },
    {
      "midi": 65,
      "hit": false,
      "t": 115937.5,
      "d": 296.875,
      "v": 64
    },
    {
      "midi": 65,
      "hit": false,
      "t": 116250,
      "d": 468.75,
      "v": 64
    },
    {
      "midi": 69,
      "hit": false,
      "t": 116250,
      "d": 929.6875,
      "v": 64
    },
    {
      "midi": 65,
      "hit": false,
      "t": 116250,
      "d": 1390.625,
      "v": 64
    },
    {
      "midi": 40,
      "hit": false,
      "t": 116250,
      "d": 1851.5625,
      "v": 64
    },
    {
      "midi": 52,
      "hit": false,
      "t": 116250,
      "d": 1851.5625,
      "v": 64
    },
    {
      "midi": 64,
      "hit": false,
      "t": 116718.75,
      "d": 1398.4375,
      "v": 64
    },
    {
      "midi": 69,
      "hit": false,
      "t": 117187.5,
      "d": 929.6875,
      "v": 64
    },
    {
      "midi": 72,
      "hit": false,
      "t": 117187.5,
      "d": 929.6875,
      "v": 64
    },
    {
      "midi": 65,
      "hit": false,
      "t": 117656.25,
      "d": 234.375,
      "v": 64
    },
    {
      "midi": 63,
      "hit": false,
      "t": 117890.625,
      "d": 914.0625,
      "v": 64
    },
    {
      "midi": 67,
      "hit": false,
      "t": 117890.625,
      "d": 953.125,
      "v": 64
    },
    {
      "midi": 39,
      "hit": false,
      "t": 118125,
      "d": 1851.5625,
      "v": 64
    },
    {
      "midi": 51,
      "hit": false,
      "t": 118125,
      "d": 1851.5625,
      "v": 64
    },
    {
      "midi": 60,
      "hit": false,
      "t": 118593.75,
      "d": 226.5625,
      "v": 64
    },
    {
      "midi": 63,
      "hit": false,
      "t": 118828.125,
      "d": 226.5625,
      "v": 64
    },
    {
      "midi": 63,
      "hit": false,
      "t": 118828.125,
      "d": 242.1875,
      "v": 64
    },
    {
      "midi": 69,
      "hit": false,
      "t": 119062.5,
      "d": 226.5625,
      "v": 64
    },
    {
      "midi": 67,
      "hit": false,
      "t": 119062.5,
      "d": 242.1875,
      "v": 64
    },
    {
      "midi": 70,
      "hit": false,
      "t": 119296.875,
      "d": 226.5625,
      "v": 64
    },
    {
      "midi": 72,
      "hit": false,
      "t": 119531.25,
      "d": 226.5625,
      "v": 64
    },
    {
      "midi": 60,
      "hit": false,
      "t": 119531.25,
      "d": 429.6875,
      "v": 64
    },
    {
      "midi": 63,
      "hit": false,
      "t": 119531.25,
      "d": 437.5,
      "v": 64
    },
    {
      "midi": 67,
      "hit": false,
      "t": 119531.25,
      "d": 445.3125,
      "v": 64
    },
    {
      "midi": 70,
      "hit": false,
      "t": 119765.625,
      "d": 226.5625,
      "v": 64
    },
    {
      "midi": 69,
      "hit": false,
      "t": 120000,
      "d": 460.9375,
      "v": 64
    },
    {
      "midi": 66,
      "hit": false,
      "t": 120000,
      "d": 1375,
      "v": 64
    },
    {
      "midi": 38,
      "hit": false,
      "t": 120000,
      "d": 1851.5625,
      "v": 64
    },
    {
      "midi": 50,
      "hit": false,
      "t": 120000,
      "d": 1851.5625,
      "v": 64
    },
    {
      "midi": 67,
      "hit": false,
      "t": 120468.75,
      "d": 226.5625,
      "v": 64
    },
    {
      "midi": 74,
      "hit": false,
      "t": 120703.125,
      "d": 1156.25,
      "v": 64
    },
    {
      "midi": 62,
      "hit": false,
      "t": 120937.5,
      "d": 132.8125,
      "v": 64
    },
    {
      "midi": 67,
      "hit": false,
      "t": 121054.6875,
      "d": 101.5625,
      "v": 64
    },
    {
      "midi": 69,
      "hit": false,
      "t": 121171.875,
      "d": 125,
      "v": 64
    },
    {
      "midi": 62,
      "hit": false,
      "t": 121289.0625,
      "d": 109.375,
      "v": 64
    },
    {
      "midi": 66,
      "hit": false,
      "t": 121406.25,
      "d": 93.75,
      "v": 64
    },
    {
      "midi": 62,
      "hit": false,
      "t": 121406.25,
      "d": 929.6875,
      "v": 64
    },
    {
      "midi": 69,
      "hit": false,
      "t": 121523.4375,
      "d": 117.1875,
      "v": 64
    },
    {
      "midi": 72,
      "hit": false,
      "t": 121640.625,
      "d": 109.375,
      "v": 64
    },
    {
      "midi": 69,
      "hit": false,
      "t": 121757.8125,
      "d": 125,
      "v": 64
    },
    {
      "midi": 70,
      "hit": false,
      "t": 121875,
      "d": 226.5625,
      "v": 64
    },
    {
      "midi": 43,
      "hit": false,
      "t": 121875,
      "d": 1851.5625,
      "v": 64
    },
    {
      "midi": 55,
      "hit": false,
      "t": 121875,
      "d": 1851.5625,
      "v": 64
    },
    {
      "midi": 67,
      "hit": false,
      "t": 122109.375,
      "d": 226.5625,
      "v": 64
    },
    {
      "midi": 70,
      "hit": false,
      "t": 122343.75,
      "d": 226.5625,
      "v": 64
    },
    {
      "midi": 67,
      "hit": false,
      "t": 122343.75,
      "d": 445.3125,
      "v": 64
    },
    {
      "midi": 74,
      "hit": false,
      "t": 122578.125,
      "d": 460.9375,
      "v": 64
    },
    {
      "midi": 79,
      "hit": false,
      "t": 122578.125,
      "d": 1164.0625,
      "v": 64
    },
    {
      "midi": 70,
      "hit": false,
      "t": 122812.5,
      "d": 445.3125,
      "v": 64
    },
    {
      "midi": 74,
      "hit": false,
      "t": 123046.875,
      "d": 226.5625,
      "v": 64
    },
    {
      "midi": 70,
      "hit": false,
      "t": 123281.25,
      "d": 226.5625,
      "v": 64
    },
    {
      "midi": 70,
      "hit": false,
      "t": 123281.25,
      "d": 445.3125,
      "v": 64
    },
    {
      "midi": 79,
      "hit": false,
      "t": 123281.25,
      "d": 445.3125,
      "v": 64
    },
    {
      "midi": 67,
      "hit": false,
      "t": 123515.625,
      "d": 226.5625,
      "v": 64
    },
    {
      "midi": 70,
      "hit": false,
      "t": 123750,
      "d": 1167.96875,
      "v": 64
    },
    {
      "midi": 41,
      "hit": false,
      "t": 123750,
      "d": 1367.1875,
      "v": 64
    },
    {
      "midi": 67,
      "hit": false,
      "t": 123750,
      "d": 1367.1875,
      "v": 64
    },
    {
      "midi": 70,
      "hit": false,
      "t": 123750,
      "d": 1367.1875,
      "v": 64
    },
    {
      "midi": 53,
      "hit": false,
      "t": 123750,
      "d": 1375,
      "v": 64
    },
    {
      "midi": 58,
      "hit": false,
      "t": 124218.75,
      "d": 226.5625,
      "v": 64
    },
    {
      "midi": 62,
      "hit": false,
      "t": 124453.125,
      "d": 1156.25,
      "v": 64
    },
    {
      "midi": 65,
      "hit": false,
      "t": 124921.875,
      "d": 226.5625,
      "v": 64
    },
    {
      "midi": 67,
      "hit": false,
      "t": 125156.25,
      "d": 226.5625,
      "v": 64
    },
    {
      "midi": 67,
      "hit": false,
      "t": 125156.25,
      "d": 914.0625,
      "v": 64
    },
    {
      "midi": 70,
      "hit": false,
      "t": 125156.25,
      "d": 921.875,
      "v": 64
    },
    {
      "midi": 74,
      "hit": false,
      "t": 125156.25,
      "d": 929.6875,
      "v": 64
    },
    {
      "midi": 70,
      "hit": false,
      "t": 125390.625,
      "d": 226.5625,
      "v": 64
    },
    {
      "midi": 74,
      "hit": false,
      "t": 125625,
      "d": 468.75,
      "v": 64
    },
    {
      "midi": 40,
      "hit": false,
      "t": 125625,
      "d": 210.9375,
      "v": 64
    },
    {
      "midi": 52,
      "hit": false,
      "t": 125625,
      "d": 210.9375,
      "v": 64
    },
    {
      "midi": 40,
      "hit": false,
      "t": 125859.375,
      "d": 1617.1875,
      "v": 64
    },
    {
      "midi": 52,
      "hit": false,
      "t": 125859.375,
      "d": 1617.1875,
      "v": 64
    },
    {
      "midi": 64,
      "hit": false,
      "t": 126093.75,
      "d": 226.5625,
      "v": 64
    },
    {
      "midi": 70,
      "hit": false,
      "t": 126328.125,
      "d": 460.9375,
      "v": 64
    },
    {
      "midi": 67,
      "hit": false,
      "t": 126796.875,
      "d": 484.375,
      "v": 64
    },
    {
      "midi": 64,
      "hit": false,
      "t": 127265.625,
      "d": 226.5625,
      "v": 64
    },
    {
      "midi": 67,
      "hit": false,
      "t": 127500,
      "d": 226.5625,
      "v": 64
    },
    {
      "midi": 48,
      "hit": false,
      "t": 127500,
      "d": 210.9375,
      "v": 64
    },
    {
      "midi": 58,
      "hit": false,
      "t": 127500,
      "d": 210.9375,
      "v": 64
    },
    {
      "midi": 72,
      "hit": false,
      "t": 127734.375,
      "d": 226.5625,
      "v": 64
    },
    {
      "midi": 48,
      "hit": false,
      "t": 127734.375,
      "d": 1835.9375,
      "v": 64
    },
    {
      "midi": 58,
      "hit": false,
      "t": 127734.375,
      "d": 1835.9375,
      "v": 64
    },
    {
      "midi": 60,
      "hit": false,
      "t": 127968.75,
      "d": 226.5625,
      "v": 64
    },
    {
      "midi": 64,
      "hit": false,
      "t": 128203.125,
      "d": 468.75,
      "v": 64
    },
    {
      "midi": 60,
      "hit": false,
      "t": 128671.875,
      "d": 226.5625,
      "v": 64
    },
    {
      "midi": 67,
      "hit": false,
      "t": 128671.875,
      "d": 226.5625,
      "v": 64
    },
    {
      "midi": 72,
      "hit": false,
      "t": 128906.25,
      "d": 226.5625,
      "v": 64
    },
    {
      "midi": 67,
      "hit": false,
      "t": 129140.625,
      "d": 203.125,
      "v": 64
    },
    {
      "midi": 63,
      "hit": false,
      "t": 129375,
      "d": 929.6875,
      "v": 64
    },
    {
      "midi": 68,
      "hit": false,
      "t": 129375,
      "d": 929.6875,
      "v": 64
    },
    {
      "midi": 72,
      "hit": false,
      "t": 129375,
      "d": 929.6875,
      "v": 64
    },
    {
      "midi": 51,
      "hit": false,
      "t": 129375,
      "d": 1843.75,
      "v": 87
    },
    {
      "midi": 39,
      "hit": false,
      "t": 129375,
      "d": 1859.375,
      "v": 117
    },
    {
      "midi": 68,
      "hit": false,
      "t": 130312.5,
      "d": 460.9375,
      "v": 64
    },
    {
      "midi": 72,
      "hit": false,
      "t": 130312.5,
      "d": 679.6875,
      "v": 64
    },
    {
      "midi": 75,
      "hit": false,
      "t": 130312.5,
      "d": 929.6875,
      "v": 64
    },
    {
      "midi": 68,
      "hit": false,
      "t": 130781.25,
      "d": 101.5625,
      "v": 64
    },
    {
      "midi": 63,
      "hit": false,
      "t": 130898.4375,
      "d": 101.5625,
      "v": 64
    },
    {
      "midi": 72,
      "hit": false,
      "t": 131015.625,
      "d": 101.5625,
      "v": 64
    },
    {
      "midi": 63,
      "hit": false,
      "t": 131132.8125,
      "d": 101.5625,
      "v": 64
    },
    {
      "midi": 68,
      "hit": false,
      "t": 131250,
      "d": 226.5625,
      "v": 64
    },
    {
      "midi": 40,
      "hit": false,
      "t": 131250,
      "d": 1843.75,
      "v": 87
    },
    {
      "midi": 52,
      "hit": false,
      "t": 131250,
      "d": 1843.75,
      "v": 87
    },
    {
      "midi": 64,
      "hit": false,
      "t": 131484.375,
      "d": 226.5625,
      "v": 64
    },
    {
      "midi": 68,
      "hit": false,
      "t": 131718.75,
      "d": 226.5625,
      "v": 64
    },
    {
      "midi": 72,
      "hit": false,
      "t": 131953.125,
      "d": 226.5625,
      "v": 64
    },
    {
      "midi": 72,
      "hit": false,
      "t": 132187.5,
      "d": 460.9375,
      "v": 64
    },
    {
      "midi": 68,
      "hit": false,
      "t": 132187.5,
      "d": 914.0625,
      "v": 64
    },
    {
      "midi": 64,
      "hit": false,
      "t": 132187.5,
      "d": 937.5,
      "v": 64
    },
    {
      "midi": 72,
      "hit": false,
      "t": 132656.25,
      "d": 226.5625,
      "v": 64
    },
    {
      "midi": 76,
      "hit": false,
      "t": 132656.25,
      "d": 226.5625,
      "v": 64
    },
    {
      "midi": 80,
      "hit": false,
      "t": 132890.625,
      "d": 226.5625,
      "v": 64
    },
    {
      "midi": 60,
      "hit": false,
      "t": 133125,
      "d": 226.5625,
      "v": 64
    },
    {
      "midi": 65,
      "hit": false,
      "t": 133125,
      "d": 453.125,
      "v": 64
    },
    {
      "midi": 68,
      "hit": false,
      "t": 133125,
      "d": 695.3125,
      "v": 64
    },
    {
      "midi": 41,
      "hit": false,
      "t": 133125,
      "d": 1843.75,
      "v": 87
    },
    {
      "midi": 53,
      "hit": false,
      "t": 133125,
      "d": 1843.75,
      "v": 87
    },
    {
      "midi": 65,
      "hit": false,
      "t": 133593.75,
      "d": 226.5625,
      "v": 64
    },
    {
      "midi": 68,
      "hit": false,
      "t": 133828.125,
      "d": 226.5625,
      "v": 64
    },
    {
      "midi": 68,
      "hit": false,
      "t": 134062.5,
      "d": 195.3125,
      "v": 64
    },
    {
      "midi": 65,
      "hit": false,
      "t": 134062.5,
      "d": 226.5625,
      "v": 64
    },
    {
      "midi": 72,
      "hit": false,
      "t": 134062.5,
      "d": 929.6875,
      "v": 64
    },
    {
      "midi": 77,
      "hit": false,
      "t": 134062.5,
      "d": 929.6875,
      "v": 64
    },
    {
      "midi": 68,
      "hit": false,
      "t": 134296.875,
      "d": 226.5625,
      "v": 64
    },
    {
      "midi": 67,
      "hit": false,
      "t": 134531.25,
      "d": 226.5625,
      "v": 64
    },
    {
      "midi": 65,
      "hit": false,
      "t": 134765.625,
      "d": 226.5625,
      "v": 64
    },
    {
      "midi": 63,
      "hit": false,
      "t": 135000,
      "d": 226.5625,
      "v": 64
    },
    {
      "midi": 66,
      "hit": false,
      "t": 135000,
      "d": 453.125,
      "v": 64
    },
    {
      "midi": 72,
      "hit": false,
      "t": 135000,
      "d": 929.6875,
      "v": 64
    },
    {
      "midi": 42,
      "hit": false,
      "t": 135000,
      "d": 1843.75,
      "v": 87
    },
    {
      "midi": 54,
      "hit": false,
      "t": 135000,
      "d": 1843.75,
      "v": 87
    },
    {
      "midi": 63,
      "hit": false,
      "t": 135234.375,
      "d": 226.5625,
      "v": 64
    },
    {
      "midi": 66,
      "hit": false,
      "t": 135468.75,
      "d": 226.5625,
      "v": 64
    },
    {
      "midi": 68,
      "hit": false,
      "t": 135703.125,
      "d": 226.5625,
      "v": 64
    },
    {
      "midi": 66,
      "hit": false,
      "t": 135937.5,
      "d": 226.5625,
      "v": 64
    },
    {
      "midi": 63,
      "hit": false,
      "t": 135937.5,
      "d": 921.875,
      "v": 64
    },
    {
      "midi": 73,
      "hit": false,
      "t": 135937.5,
      "d": 921.875,
      "v": 64
    },
    {
      "midi": 68,
      "hit": false,
      "t": 136171.875,
      "d": 226.5625,
      "v": 64
    },
    {
      "midi": 66,
      "hit": false,
      "t": 136406.25,
      "d": 226.5625,
      "v": 64
    },
    {
      "midi": 68,
      "hit": false,
      "t": 136640.625,
      "d": 226.5625,
      "v": 64
    },
    {
      "midi": 65,
      "hit": false,
      "t": 136875,
      "d": 687.5,
      "v": 64
    },
    {
      "midi": 68,
      "hit": false,
      "t": 136875,
      "d": 1867.1875,
      "v": 64
    },
    {
      "midi": 73,
      "hit": false,
      "t": 136875,
      "d": 1867.1875,
      "v": 64
    },
    {
      "midi": 37,
      "hit": false,
      "t": 136875,
      "d": 1843.75,
      "v": 87
    },
    {
      "midi": 49,
      "hit": false,
      "t": 136875,
      "d": 1843.75,
      "v": 87
    },
    {
      "midi": 61,
      "hit": false,
      "t": 137343.75,
      "d": 210.9375,
      "v": 64
    },
    {
      "midi": 65,
      "hit": false,
      "t": 137578.125,
      "d": 210.9375,
      "v": 64
    },
    {
      "midi": 61,
      "hit": false,
      "t": 137812.5,
      "d": 210.9375,
      "v": 64
    },
    {
      "midi": 59,
      "hit": false,
      "t": 138046.875,
      "d": 210.9375,
      "v": 64
    },
    {
      "midi": 56,
      "hit": false,
      "t": 138281.25,
      "d": 210.9375,
      "v": 64
    },
    {
      "midi": 52,
      "hit": false,
      "t": 138515.625,
      "d": 210.9375,
      "v": 64
    },
    {
      "midi": 53,
      "hit": false,
      "t": 138750,
      "d": 929.6875,
      "v": 64
    },
    {
      "midi": 57,
      "hit": false,
      "t": 138750,
      "d": 929.6875,
      "v": 64
    },
    {
      "midi": 60,
      "hit": false,
      "t": 138750,
      "d": 929.6875,
      "v": 64
    },
    {
      "midi": 41,
      "hit": false,
      "t": 138750,
      "d": 1843.75,
      "v": 87
    },
    {
      "midi": 53,
      "hit": false,
      "t": 138750,
      "d": 1843.75,
      "v": 87
    },
    {
      "midi": 60,
      "hit": false,
      "t": 139687.5,
      "d": 453.125,
      "v": 64
    },
    {
      "midi": 65,
      "hit": false,
      "t": 139687.5,
      "d": 460.9375,
      "v": 64
    },
    {
      "midi": 57,
      "hit": false,
      "t": 139687.5,
      "d": 476.5625,
      "v": 64
    },
    {
      "midi": 65,
      "hit": false,
      "t": 140156.25,
      "d": 460.9375,
      "v": 64
    },
    {
      "midi": 69,
      "hit": false,
      "t": 140156.25,
      "d": 460.9375,
      "v": 64
    },
    {
      "midi": 60,
      "hit": false,
      "t": 140156.25,
      "d": 476.5625,
      "v": 64
    },
    {
      "midi": 61,
      "hit": false,
      "t": 140625,
      "d": 929.6875,
      "v": 64
    },
    {
      "midi": 65,
      "hit": false,
      "t": 140625,
      "d": 1867.1875,
      "v": 64
    },
    {
      "midi": 70,
      "hit": false,
      "t": 140625,
      "d": 1867.1875,
      "v": 64
    },
    {
      "midi": 46,
      "hit": false,
      "t": 140625,
      "d": 1843.75,
      "v": 87
    },
    {
      "midi": 58,
      "hit": false,
      "t": 140625,
      "d": 1843.75,
      "v": 87
    },
    {
      "midi": 53,
      "hit": false,
      "t": 141093.75,
      "d": 210.9375,
      "v": 64
    },
    {
      "midi": 58,
      "hit": false,
      "t": 141328.125,
      "d": 210.9375,
      "v": 64
    },
    {
      "midi": 61,
      "hit": false,
      "t": 141562.5,
      "d": 210.9375,
      "v": 64
    },
    {
      "midi": 58,
      "hit": false,
      "t": 141796.875,
      "d": 210.9375,
      "v": 64
    },
    {
      "midi": 53,
      "hit": false,
      "t": 142031.25,
      "d": 210.9375,
      "v": 64
    },
    {
      "midi": 58,
      "hit": false,
      "t": 142265.625,
      "d": 210.9375,
      "v": 64
    },
    {
      "midi": 56,
      "hit": false,
      "t": 142500,
      "d": 1859.375,
      "v": 64
    },
    {
      "midi": 59,
      "hit": false,
      "t": 142500,
      "d": 1859.375,
      "v": 64
    },
    {
      "midi": 61,
      "hit": false,
      "t": 142500,
      "d": 1859.375,
      "v": 64
    },
    {
      "midi": 65,
      "hit": false,
      "t": 142500,
      "d": 1859.375,
      "v": 64
    },
    {
      "midi": 37,
      "hit": false,
      "t": 142500,
      "d": 1843.75,
      "v": 87
    },
    {
      "midi": 49,
      "hit": false,
      "t": 142500,
      "d": 1843.75,
      "v": 87
    },
    {
      "midi": 62,
      "hit": false,
      "t": 144375,
      "d": 921.875,
      "v": 64
    },
    {
      "midi": 65,
      "hit": false,
      "t": 144375,
      "d": 921.875,
      "v": 64
    },
    {
      "midi": 70,
      "hit": false,
      "t": 144375,
      "d": 921.875,
      "v": 64
    },
    {
      "midi": 46,
      "hit": false,
      "t": 144375,
      "d": 1843.75,
      "v": 87
    },
    {
      "midi": 58,
      "hit": false,
      "t": 144375,
      "d": 1843.75,
      "v": 87
    },
    {
      "midi": 65,
      "hit": false,
      "t": 145312.5,
      "d": 921.875,
      "v": 64
    },
    {
      "midi": 70,
      "hit": false,
      "t": 145312.5,
      "d": 921.875,
      "v": 64
    },
    {
      "midi": 74,
      "hit": false,
      "t": 145312.5,
      "d": 921.875,
      "v": 64
    },
    {
      "midi": 63,
      "hit": false,
      "t": 146250,
      "d": 921.875,
      "v": 64
    },
    {
      "midi": 51,
      "hit": false,
      "t": 146250,
      "d": 1859.375,
      "v": 64
    },
    {
      "midi": 55,
      "hit": false,
      "t": 146250,
      "d": 1859.375,
      "v": 64
    },
    {
      "midi": 63,
      "hit": false,
      "t": 147187.5,
      "d": 445.3125,
      "v": 64
    },
    {
      "midi": 67,
      "hit": false,
      "t": 147187.5,
      "d": 445.3125,
      "v": 64
    },
    {
      "midi": 70,
      "hit": false,
      "t": 147187.5,
      "d": 445.3125,
      "v": 64
    },
    {
      "midi": 67,
      "hit": false,
      "t": 147656.25,
      "d": 453.125,
      "v": 64
    },
    {
      "midi": 75,
      "hit": false,
      "t": 147656.25,
      "d": 453.125,
      "v": 64
    },
    {
      "midi": 70,
      "hit": false,
      "t": 147656.25,
      "d": 460.9375,
      "v": 64
    },
    {
      "midi": 62,
      "hit": false,
      "t": 148125,
      "d": 921.875,
      "v": 64
    },
    {
      "midi": 65,
      "hit": false,
      "t": 148125,
      "d": 921.875,
      "v": 64
    },
    {
      "midi": 70,
      "hit": false,
      "t": 148125,
      "d": 921.875,
      "v": 64
    },
    {
      "midi": 65,
      "hit": false,
      "t": 149062.5,
      "d": 921.875,
      "v": 64
    },
    {
      "midi": 70,
      "hit": false,
      "t": 149062.5,
      "d": 921.875,
      "v": 64
    },
    {
      "midi": 74,
      "hit": false,
      "t": 149062.5,
      "d": 921.875,
      "v": 64
    },
    {
      "midi": 66,
      "hit": false,
      "t": 150000,
      "d": 453.125,
      "v": 64
    },
    {
      "midi": 70,
      "hit": false,
      "t": 150000,
      "d": 687.5,
      "v": 64
    },
    {
      "midi": 62,
      "hit": false,
      "t": 150234.375,
      "d": 218.75,
      "v": 64
    },
    {
      "midi": 66,
      "hit": false,
      "t": 150468.75,
      "d": 218.75,
      "v": 64
    },
    {
      "midi": 70,
      "hit": false,
      "t": 150703.125,
      "d": 218.75,
      "v": 64
    },
    {
      "midi": 74,
      "hit": false,
      "t": 150937.5,
      "d": 218.75,
      "v": 64
    },
    {
      "midi": 74,
      "hit": false,
      "t": 151171.875,
      "d": 218.75,
      "v": 64
    },
    {
      "midi": 70,
      "hit": false,
      "t": 151406.25,
      "d": 218.75,
      "v": 64
    },
    {
      "midi": 66,
      "hit": false,
      "t": 151640.625,
      "d": 218.75,
      "v": 64
    },
    {
      "midi": 60,
      "hit": false,
      "t": 151875,
      "d": 453.125,
      "v": 64
    },
    {
      "midi": 65,
      "hit": false,
      "t": 151875,
      "d": 453.125,
      "v": 64
    },
    {
      "midi": 69,
      "hit": false,
      "t": 151875,
      "d": 453.125,
      "v": 64
    },
    {
      "midi": 41,
      "hit": false,
      "t": 151875,
      "d": 1843.75,
      "v": 87
    },
    {
      "midi": 53,
      "hit": false,
      "t": 151875,
      "d": 1843.75,
      "v": 87
    },
    {
      "midi": 60,
      "hit": false,
      "t": 152343.75,
      "d": 210.9375,
      "v": 64
    },
    {
      "midi": 65,
      "hit": false,
      "t": 152343.75,
      "d": 210.9375,
      "v": 64
    },
    {
      "midi": 69,
      "hit": false,
      "t": 152343.75,
      "d": 210.9375,
      "v": 64
    },
    {
      "midi": 65,
      "hit": false,
      "t": 152343.75,
      "d": 156.25,
      "v": 87
    },
    {
      "midi": 69,
      "hit": false,
      "t": 152343.75,
      "d": 156.25,
      "v": 87
    },
    {
      "midi": 60,
      "hit": false,
      "t": 152578.125,
      "d": 210.9375,
      "v": 64
    },
    {
      "midi": 65,
      "hit": false,
      "t": 152578.125,
      "d": 210.9375,
      "v": 64
    },
    {
      "midi": 69,
      "hit": false,
      "t": 152578.125,
      "d": 210.9375,
      "v": 64
    },
    {
      "midi": 65,
      "hit": false,
      "t": 152578.125,
      "d": 156.25,
      "v": 87
    },
    {
      "midi": 69,
      "hit": false,
      "t": 152578.125,
      "d": 156.25,
      "v": 87
    },
    {
      "midi": 60,
      "hit": false,
      "t": 152812.5,
      "d": 210.9375,
      "v": 64
    },
    {
      "midi": 65,
      "hit": false,
      "t": 152812.5,
      "d": 210.9375,
      "v": 64
    },
    {
      "midi": 69,
      "hit": false,
      "t": 152812.5,
      "d": 210.9375,
      "v": 64
    },
    {
      "midi": 65,
      "hit": false,
      "t": 152812.5,
      "d": 156.25,
      "v": 87
    },
    {
      "midi": 69,
      "hit": false,
      "t": 152812.5,
      "d": 156.25,
      "v": 87
    },
    {
      "midi": 60,
      "hit": false,
      "t": 153046.875,
      "d": 210.9375,
      "v": 64
    },
    {
      "midi": 65,
      "hit": false,
      "t": 153046.875,
      "d": 210.9375,
      "v": 64
    },
    {
      "midi": 69,
      "hit": false,
      "t": 153046.875,
      "d": 210.9375,
      "v": 64
    },
    {
      "midi": 65,
      "hit": false,
      "t": 153046.875,
      "d": 156.25,
      "v": 87
    },
    {
      "midi": 69,
      "hit": false,
      "t": 153046.875,
      "d": 156.25,
      "v": 87
    },
    {
      "midi": 60,
      "hit": false,
      "t": 153281.25,
      "d": 210.9375,
      "v": 64
    },
    {
      "midi": 65,
      "hit": false,
      "t": 153281.25,
      "d": 210.9375,
      "v": 64
    },
    {
      "midi": 69,
      "hit": false,
      "t": 153281.25,
      "d": 210.9375,
      "v": 64
    },
    {
      "midi": 65,
      "hit": false,
      "t": 153281.25,
      "d": 156.25,
      "v": 87
    },
    {
      "midi": 69,
      "hit": false,
      "t": 153281.25,
      "d": 156.25,
      "v": 87
    },
    {
      "midi": 60,
      "hit": false,
      "t": 153515.625,
      "d": 210.9375,
      "v": 64
    },
    {
      "midi": 65,
      "hit": false,
      "t": 153515.625,
      "d": 210.9375,
      "v": 64
    },
    {
      "midi": 69,
      "hit": false,
      "t": 153515.625,
      "d": 210.9375,
      "v": 64
    },
    {
      "midi": 65,
      "hit": false,
      "t": 153515.625,
      "d": 156.25,
      "v": 87
    },
    {
      "midi": 69,
      "hit": false,
      "t": 153515.625,
      "d": 156.25,
      "v": 87
    },
    {
      "midi": 60,
      "hit": false,
      "t": 153750,
      "d": 210.9375,
      "v": 64
    },
    {
      "midi": 65,
      "hit": false,
      "t": 153750,
      "d": 210.9375,
      "v": 64
    },
    {
      "midi": 68,
      "hit": false,
      "t": 153750,
      "d": 210.9375,
      "v": 64
    },
    {
      "midi": 65,
      "hit": false,
      "t": 153750,
      "d": 156.25,
      "v": 87
    },
    {
      "midi": 68,
      "hit": false,
      "t": 153750,
      "d": 156.25,
      "v": 87
    },
    {
      "midi": 41,
      "hit": false,
      "t": 153750,
      "d": 1109.375,
      "v": 87
    },
    {
      "midi": 53,
      "hit": false,
      "t": 153750,
      "d": 1109.375,
      "v": 87
    },
    {
      "midi": 60,
      "hit": false,
      "t": 153984.375,
      "d": 210.9375,
      "v": 64
    },
    {
      "midi": 65,
      "hit": false,
      "t": 153984.375,
      "d": 210.9375,
      "v": 64
    },
    {
      "midi": 68,
      "hit": false,
      "t": 153984.375,
      "d": 210.9375,
      "v": 64
    },
    {
      "midi": 65,
      "hit": false,
      "t": 153984.375,
      "d": 156.25,
      "v": 87
    },
    {
      "midi": 68,
      "hit": false,
      "t": 153984.375,
      "d": 156.25,
      "v": 87
    },
    {
      "midi": 60,
      "hit": false,
      "t": 154218.75,
      "d": 210.9375,
      "v": 64
    },
    {
      "midi": 65,
      "hit": false,
      "t": 154218.75,
      "d": 210.9375,
      "v": 64
    },
    {
      "midi": 68,
      "hit": false,
      "t": 154218.75,
      "d": 210.9375,
      "v": 64
    },
    {
      "midi": 65,
      "hit": false,
      "t": 154218.75,
      "d": 156.25,
      "v": 87
    },
    {
      "midi": 68,
      "hit": false,
      "t": 154218.75,
      "d": 156.25,
      "v": 87
    },
    {
      "midi": 60,
      "hit": false,
      "t": 154453.125,
      "d": 210.9375,
      "v": 64
    },
    {
      "midi": 65,
      "hit": false,
      "t": 154453.125,
      "d": 210.9375,
      "v": 64
    },
    {
      "midi": 68,
      "hit": false,
      "t": 154453.125,
      "d": 210.9375,
      "v": 64
    },
    {
      "midi": 65,
      "hit": false,
      "t": 154453.125,
      "d": 156.25,
      "v": 87
    },
    {
      "midi": 68,
      "hit": false,
      "t": 154453.125,
      "d": 156.25,
      "v": 87
    },
    {
      "midi": 60,
      "hit": false,
      "t": 154687.5,
      "d": 921.875,
      "v": 64
    },
    {
      "midi": 65,
      "hit": false,
      "t": 154687.5,
      "d": 921.875,
      "v": 64
    },
    {
      "midi": 68,
      "hit": false,
      "t": 154687.5,
      "d": 929.6875,
      "v": 64
    },
    {
      "midi": 65,
      "hit": false,
      "t": 154687.5,
      "d": 156.25,
      "v": 87
    },
    {
      "midi": 68,
      "hit": false,
      "t": 154687.5,
      "d": 156.25,
      "v": 87
    },
    {
      "midi": 41,
      "hit": false,
      "t": 154921.875,
      "d": 234.375,
      "v": 87
    },
    {
      "midi": 53,
      "hit": false,
      "t": 154921.875,
      "d": 234.375,
      "v": 87
    },
    {
      "midi": 65,
      "hit": false,
      "t": 155156.25,
      "d": 156.25,
      "v": 87
    },
    {
      "midi": 68,
      "hit": false,
      "t": 155156.25,
      "d": 156.25,
      "v": 87
    },
    {
      "midi": 39,
      "hit": false,
      "t": 155156.25,
      "d": 234.375,
      "v": 87
    },
    {
      "midi": 51,
      "hit": false,
      "t": 155156.25,
      "d": 234.375,
      "v": 87
    },
    {
      "midi": 37,
      "hit": false,
      "t": 155390.625,
      "d": 234.375,
      "v": 87
    },
    {
      "midi": 49,
      "hit": false,
      "t": 155390.625,
      "d": 234.375,
      "v": 87
    },
    {
      "midi": 67,
      "hit": false,
      "t": 155390.625,
      "d": 1578.125,
      "v": 87
    },
    {
      "midi": 70,
      "hit": false,
      "t": 155390.625,
      "d": 1578.125,
      "v": 87
    },
    {
      "midi": 60,
      "hit": false,
      "t": 155625,
      "d": 1859.375,
      "v": 64
    },
    {
      "midi": 63,
      "hit": false,
      "t": 155625,
      "d": 1867.1875,
      "v": 64
    },
    {
      "midi": 67,
      "hit": false,
      "t": 155625,
      "d": 1867.1875,
      "v": 64
    },
    {
      "midi": 70,
      "hit": false,
      "t": 155625,
      "d": 1867.1875,
      "v": 64
    },
    {
      "midi": 36,
      "hit": false,
      "t": 155625,
      "d": 1843.75,
      "v": 87
    },
    {
      "midi": 48,
      "hit": false,
      "t": 155625,
      "d": 1843.75,
      "v": 87
    },
    {
      "midi": 82,
      "hit": false,
      "t": 156328.125,
      "d": 62.5,
      "v": 64
    },
    {
      "midi": 79,
      "hit": false,
      "t": 156406.25,
      "d": 62.5,
      "v": 64
    },
    {
      "midi": 75,
      "hit": false,
      "t": 156484.375,
      "d": 62.5,
      "v": 64
    },
    {
      "midi": 72,
      "hit": false,
      "t": 156562.5,
      "d": 914.0625,
      "v": 64
    },
    {
      "midi": 67,
      "hit": false,
      "t": 157031.25,
      "d": 234.375,
      "v": 87
    },
    {
      "midi": 70,
      "hit": false,
      "t": 157031.25,
      "d": 234.375,
      "v": 87
    },
    {
      "midi": 61,
      "hit": false,
      "t": 157500,
      "d": 445.3125,
      "v": 64
    },
    {
      "midi": 66,
      "hit": false,
      "t": 157500,
      "d": 921.875,
      "v": 64
    },
    {
      "midi": 70,
      "hit": false,
      "t": 157500,
      "d": 1148.4375,
      "v": 64
    },
    {
      "midi": 39,
      "hit": false,
      "t": 157500,
      "d": 906.25,
      "v": 87
    },
    {
      "midi": 51,
      "hit": false,
      "t": 157500,
      "d": 921.875,
      "v": 87
    },
    {
      "midi": 61,
      "hit": false,
      "t": 157500,
      "d": 921.875,
      "v": 87
    },
    {
      "midi": 66,
      "hit": false,
      "t": 157500,
      "d": 921.875,
      "v": 87
    },
    {
      "midi": 61,
      "hit": false,
      "t": 157968.75,
      "d": 218.75,
      "v": 64
    },
    {
      "midi": 63,
      "hit": false,
      "t": 158203.125,
      "d": 218.75,
      "v": 64
    },
    {
      "midi": 66,
      "hit": false,
      "t": 158437.5,
      "d": 218.75,
      "v": 64
    },
    {
      "midi": 61,
      "hit": false,
      "t": 158437.5,
      "d": 234.375,
      "v": 87
    },
    {
      "midi": 66,
      "hit": false,
      "t": 158437.5,
      "d": 234.375,
      "v": 87
    },
    {
      "midi": 70,
      "hit": false,
      "t": 158671.875,
      "d": 218.75,
      "v": 64
    },
    {
      "midi": 73,
      "hit": false,
      "t": 158906.25,
      "d": 453.125,
      "v": 64
    },
    {
      "midi": 61,
      "hit": false,
      "t": 158906.25,
      "d": 234.375,
      "v": 87
    },
    {
      "midi": 66,
      "hit": false,
      "t": 158906.25,
      "d": 234.375,
      "v": 87
    },
    {
      "midi": 62,
      "hit": false,
      "t": 159375,
      "d": 921.875,
      "v": 64
    },
    {
      "midi": 65,
      "hit": false,
      "t": 159375,
      "d": 921.875,
      "v": 64
    },
    {
      "midi": 70,
      "hit": false,
      "t": 159375,
      "d": 921.875,
      "v": 64
    },
    {
      "midi": 46,
      "hit": false,
      "t": 159375,
      "d": 1828.125,
      "v": 87
    },
    {
      "midi": 58,
      "hit": false,
      "t": 159375,
      "d": 1843.75,
      "v": 87
    },
    {
      "midi": 65,
      "hit": false,
      "t": 160312.5,
      "d": 921.875,
      "v": 64
    },
    {
      "midi": 70,
      "hit": false,
      "t": 160312.5,
      "d": 921.875,
      "v": 64
    },
    {
      "midi": 74,
      "hit": false,
      "t": 160312.5,
      "d": 921.875,
      "v": 64
    },
    {
      "midi": 63,
      "hit": false,
      "t": 161250,
      "d": 921.875,
      "v": 64
    },
    {
      "midi": 55,
      "hit": false,
      "t": 161250,
      "d": 1859.375,
      "v": 64
    },
    {
      "midi": 58,
      "hit": false,
      "t": 161250,
      "d": 1867.1875,
      "v": 64
    },
    {
      "midi": 70,
      "hit": false,
      "t": 162187.5,
      "d": 445.3125,
      "v": 64
    },
    {
      "midi": 67,
      "hit": false,
      "t": 162187.5,
      "d": 453.125,
      "v": 64
    },
    {
      "midi": 63,
      "hit": false,
      "t": 162187.5,
      "d": 460.9375,
      "v": 64
    },
    {
      "midi": 67,
      "hit": false,
      "t": 162656.25,
      "d": 445.3125,
      "v": 64
    },
    {
      "midi": 70,
      "hit": false,
      "t": 162656.25,
      "d": 453.125,
      "v": 64
    },
    {
      "midi": 75,
      "hit": false,
      "t": 162656.25,
      "d": 460.9375,
      "v": 64
    },
    {
      "midi": 62,
      "hit": false,
      "t": 163125,
      "d": 929.6875,
      "v": 64
    },
    {
      "midi": 65,
      "hit": false,
      "t": 163125,
      "d": 929.6875,
      "v": 64
    },
    {
      "midi": 70,
      "hit": false,
      "t": 163125,
      "d": 929.6875,
      "v": 64
    },
    {
      "midi": 65,
      "hit": false,
      "t": 164062.5,
      "d": 929.6875,
      "v": 64
    },
    {
      "midi": 70,
      "hit": false,
      "t": 164062.5,
      "d": 929.6875,
      "v": 64
    },
    {
      "midi": 74,
      "hit": false,
      "t": 164062.5,
      "d": 929.6875,
      "v": 64
    },
    {
      "midi": 66,
      "hit": false,
      "t": 165000,
      "d": 460.9375,
      "v": 64
    },
    {
      "midi": 70,
      "hit": false,
      "t": 165000,
      "d": 687.5,
      "v": 64
    },
    {
      "midi": 62,
      "hit": false,
      "t": 165234.375,
      "d": 210.9375,
      "v": 64
    },
    {
      "midi": 66,
      "hit": false,
      "t": 165468.75,
      "d": 210.9375,
      "v": 64
    },
    {
      "midi": 70,
      "hit": false,
      "t": 165703.125,
      "d": 210.9375,
      "v": 64
    },
    {
      "midi": 74,
      "hit": false,
      "t": 165937.5,
      "d": 210.9375,
      "v": 64
    },
    {
      "midi": 74,
      "hit": false,
      "t": 166171.875,
      "d": 210.9375,
      "v": 64
    },
    {
      "midi": 70,
      "hit": false,
      "t": 166406.25,
      "d": 210.9375,
      "v": 64
    },
    {
      "midi": 66,
      "hit": false,
      "t": 166640.625,
      "d": 210.9375,
      "v": 64
    },
    {
      "midi": 77,
      "hit": false,
      "t": 166875,
      "d": 437.5,
      "v": 64
    },
    {
      "midi": 72,
      "hit": false,
      "t": 166875,
      "d": 445.3125,
      "v": 64
    },
    {
      "midi": 69,
      "hit": false,
      "t": 166875,
      "d": 453.125,
      "v": 64
    },
    {
      "midi": 41,
      "hit": false,
      "t": 166875,
      "d": 1843.75,
      "v": 87
    },
    {
      "midi": 53,
      "hit": false,
      "t": 166875,
      "d": 1843.75,
      "v": 87
    },
    {
      "midi": 69,
      "hit": false,
      "t": 167343.75,
      "d": 210.9375,
      "v": 64
    },
    {
      "midi": 72,
      "hit": false,
      "t": 167343.75,
      "d": 210.9375,
      "v": 64
    },
    {
      "midi": 77,
      "hit": false,
      "t": 167343.75,
      "d": 210.9375,
      "v": 64
    },
    {
      "midi": 65,
      "hit": false,
      "t": 167343.75,
      "d": 156.25,
      "v": 87
    },
    {
      "midi": 69,
      "hit": false,
      "t": 167343.75,
      "d": 156.25,
      "v": 87
    },
    {
      "midi": 69,
      "hit": false,
      "t": 167578.125,
      "d": 210.9375,
      "v": 64
    },
    {
      "midi": 72,
      "hit": false,
      "t": 167578.125,
      "d": 210.9375,
      "v": 64
    },
    {
      "midi": 77,
      "hit": false,
      "t": 167578.125,
      "d": 210.9375,
      "v": 64
    },
    {
      "midi": 65,
      "hit": false,
      "t": 167578.125,
      "d": 156.25,
      "v": 87
    },
    {
      "midi": 69,
      "hit": false,
      "t": 167578.125,
      "d": 156.25,
      "v": 87
    },
    {
      "midi": 69,
      "hit": false,
      "t": 167812.5,
      "d": 210.9375,
      "v": 64
    },
    {
      "midi": 72,
      "hit": false,
      "t": 167812.5,
      "d": 210.9375,
      "v": 64
    },
    {
      "midi": 77,
      "hit": false,
      "t": 167812.5,
      "d": 210.9375,
      "v": 64
    },
    {
      "midi": 65,
      "hit": false,
      "t": 167812.5,
      "d": 156.25,
      "v": 87
    },
    {
      "midi": 69,
      "hit": false,
      "t": 167812.5,
      "d": 156.25,
      "v": 87
    },
    {
      "midi": 69,
      "hit": false,
      "t": 168046.875,
      "d": 210.9375,
      "v": 64
    },
    {
      "midi": 72,
      "hit": false,
      "t": 168046.875,
      "d": 210.9375,
      "v": 64
    },
    {
      "midi": 77,
      "hit": false,
      "t": 168046.875,
      "d": 210.9375,
      "v": 64
    },
    {
      "midi": 65,
      "hit": false,
      "t": 168046.875,
      "d": 156.25,
      "v": 87
    },
    {
      "midi": 69,
      "hit": false,
      "t": 168046.875,
      "d": 156.25,
      "v": 87
    },
    {
      "midi": 69,
      "hit": false,
      "t": 168281.25,
      "d": 210.9375,
      "v": 64
    },
    {
      "midi": 72,
      "hit": false,
      "t": 168281.25,
      "d": 210.9375,
      "v": 64
    },
    {
      "midi": 77,
      "hit": false,
      "t": 168281.25,
      "d": 210.9375,
      "v": 64
    },
    {
      "midi": 65,
      "hit": false,
      "t": 168281.25,
      "d": 156.25,
      "v": 87
    },
    {
      "midi": 69,
      "hit": false,
      "t": 168281.25,
      "d": 156.25,
      "v": 87
    },
    {
      "midi": 69,
      "hit": false,
      "t": 168515.625,
      "d": 210.9375,
      "v": 64
    },
    {
      "midi": 72,
      "hit": false,
      "t": 168515.625,
      "d": 210.9375,
      "v": 64
    },
    {
      "midi": 77,
      "hit": false,
      "t": 168515.625,
      "d": 210.9375,
      "v": 64
    },
    {
      "midi": 65,
      "hit": false,
      "t": 168515.625,
      "d": 156.25,
      "v": 87
    },
    {
      "midi": 69,
      "hit": false,
      "t": 168515.625,
      "d": 156.25,
      "v": 87
    },
    {
      "midi": 68,
      "hit": false,
      "t": 168750,
      "d": 210.9375,
      "v": 64
    },
    {
      "midi": 72,
      "hit": false,
      "t": 168750,
      "d": 210.9375,
      "v": 64
    },
    {
      "midi": 77,
      "hit": false,
      "t": 168750,
      "d": 210.9375,
      "v": 64
    },
    {
      "midi": 65,
      "hit": false,
      "t": 168750,
      "d": 156.25,
      "v": 87
    },
    {
      "midi": 68,
      "hit": false,
      "t": 168750,
      "d": 156.25,
      "v": 87
    },
    {
      "midi": 41,
      "hit": false,
      "t": 168750,
      "d": 1109.375,
      "v": 87
    },
    {
      "midi": 53,
      "hit": false,
      "t": 168750,
      "d": 1109.375,
      "v": 87
    },
    {
      "midi": 68,
      "hit": false,
      "t": 168984.375,
      "d": 210.9375,
      "v": 64
    },
    {
      "midi": 72,
      "hit": false,
      "t": 168984.375,
      "d": 210.9375,
      "v": 64
    },
    {
      "midi": 77,
      "hit": false,
      "t": 168984.375,
      "d": 210.9375,
      "v": 64
    },
    {
      "midi": 65,
      "hit": false,
      "t": 168984.375,
      "d": 156.25,
      "v": 87
    },
    {
      "midi": 68,
      "hit": false,
      "t": 168984.375,
      "d": 156.25,
      "v": 87
    },
    {
      "midi": 68,
      "hit": false,
      "t": 169218.75,
      "d": 210.9375,
      "v": 64
    },
    {
      "midi": 72,
      "hit": false,
      "t": 169218.75,
      "d": 210.9375,
      "v": 64
    },
    {
      "midi": 77,
      "hit": false,
      "t": 169218.75,
      "d": 210.9375,
      "v": 64
    },
    {
      "midi": 65,
      "hit": false,
      "t": 169218.75,
      "d": 156.25,
      "v": 87
    },
    {
      "midi": 68,
      "hit": false,
      "t": 169218.75,
      "d": 156.25,
      "v": 87
    },
    {
      "midi": 68,
      "hit": false,
      "t": 169453.125,
      "d": 210.9375,
      "v": 64
    },
    {
      "midi": 72,
      "hit": false,
      "t": 169453.125,
      "d": 210.9375,
      "v": 64
    },
    {
      "midi": 77,
      "hit": false,
      "t": 169453.125,
      "d": 210.9375,
      "v": 64
    },
    {
      "midi": 65,
      "hit": false,
      "t": 169453.125,
      "d": 156.25,
      "v": 87
    },
    {
      "midi": 68,
      "hit": false,
      "t": 169453.125,
      "d": 156.25,
      "v": 87
    },
    {
      "midi": 68,
      "hit": false,
      "t": 169687.5,
      "d": 914.0625,
      "v": 64
    },
    {
      "midi": 77,
      "hit": false,
      "t": 169687.5,
      "d": 914.0625,
      "v": 64
    },
    {
      "midi": 72,
      "hit": false,
      "t": 169687.5,
      "d": 921.875,
      "v": 64
    },
    {
      "midi": 65,
      "hit": false,
      "t": 169687.5,
      "d": 156.25,
      "v": 87
    },
    {
      "midi": 68,
      "hit": false,
      "t": 169687.5,
      "d": 156.25,
      "v": 87
    },
    {
      "midi": 41,
      "hit": false,
      "t": 169921.875,
      "d": 234.375,
      "v": 87
    },
    {
      "midi": 53,
      "hit": false,
      "t": 169921.875,
      "d": 234.375,
      "v": 87
    },
    {
      "midi": 65,
      "hit": false,
      "t": 170156.25,
      "d": 156.25,
      "v": 87
    },
    {
      "midi": 68,
      "hit": false,
      "t": 170156.25,
      "d": 156.25,
      "v": 87
    },
    {
      "midi": 39,
      "hit": false,
      "t": 170156.25,
      "d": 234.375,
      "v": 87
    },
    {
      "midi": 51,
      "hit": false,
      "t": 170156.25,
      "d": 234.375,
      "v": 87
    },
    {
      "midi": 37,
      "hit": false,
      "t": 170390.625,
      "d": 234.375,
      "v": 87
    },
    {
      "midi": 49,
      "hit": false,
      "t": 170390.625,
      "d": 234.375,
      "v": 87
    },
    {
      "midi": 67,
      "hit": false,
      "t": 170390.625,
      "d": 1578.125,
      "v": 87
    },
    {
      "midi": 70,
      "hit": false,
      "t": 170390.625,
      "d": 1578.125,
      "v": 87
    },
    {
      "midi": 70,
      "hit": false,
      "t": 170625,
      "d": 1859.375,
      "v": 64
    },
    {
      "midi": 60,
      "hit": false,
      "t": 170625,
      "d": 1882.8125,
      "v": 64
    },
    {
      "midi": 63,
      "hit": false,
      "t": 170625,
      "d": 1882.8125,
      "v": 64
    },
    {
      "midi": 67,
      "hit": false,
      "t": 170625,
      "d": 1882.8125,
      "v": 64
    },
    {
      "midi": 36,
      "hit": false,
      "t": 170625,
      "d": 1843.75,
      "v": 87
    },
    {
      "midi": 48,
      "hit": false,
      "t": 170625,
      "d": 1843.75,
      "v": 87
    },
    {
      "midi": 84,
      "hit": false,
      "t": 171328.125,
      "d": 62.5,
      "v": 64
    },
    {
      "midi": 82,
      "hit": false,
      "t": 171406.25,
      "d": 62.5,
      "v": 64
    },
    {
      "midi": 79,
      "hit": false,
      "t": 171484.375,
      "d": 62.5,
      "v": 64
    },
    {
      "midi": 75,
      "hit": false,
      "t": 171562.5,
      "d": 921.875,
      "v": 64
    },
    {
      "midi": 67,
      "hit": false,
      "t": 172031.25,
      "d": 234.375,
      "v": 87
    },
    {
      "midi": 70,
      "hit": false,
      "t": 172031.25,
      "d": 234.375,
      "v": 87
    },
    {
      "midi": 61,
      "hit": false,
      "t": 172500,
      "d": 460.9375,
      "v": 64
    },
    {
      "midi": 66,
      "hit": false,
      "t": 172500,
      "d": 921.875,
      "v": 64
    },
    {
      "midi": 70,
      "hit": false,
      "t": 172500,
      "d": 1164.0625,
      "v": 64
    },
    {
      "midi": 61,
      "hit": false,
      "t": 172500,
      "d": 921.875,
      "v": 87
    },
    {
      "midi": 66,
      "hit": false,
      "t": 172500,
      "d": 921.875,
      "v": 87
    },
    {
      "midi": 39,
      "hit": false,
      "t": 172500,
      "d": 1843.75,
      "v": 87
    },
    {
      "midi": 51,
      "hit": false,
      "t": 172500,
      "d": 1843.75,
      "v": 87
    },
    {
      "midi": 61,
      "hit": false,
      "t": 172968.75,
      "d": 210.9375,
      "v": 64
    },
    {
      "midi": 63,
      "hit": false,
      "t": 173203.125,
      "d": 210.9375,
      "v": 64
    },
    {
      "midi": 66,
      "hit": false,
      "t": 173437.5,
      "d": 210.9375,
      "v": 64
    },
    {
      "midi": 61,
      "hit": false,
      "t": 173437.5,
      "d": 437.5,
      "v": 87
    },
    {
      "midi": 66,
      "hit": false,
      "t": 173437.5,
      "d": 437.5,
      "v": 87
    },
    {
      "midi": 70,
      "hit": false,
      "t": 173671.875,
      "d": 210.9375,
      "v": 64
    },
    {
      "midi": 73,
      "hit": false,
      "t": 173906.25,
      "d": 460.9375,
      "v": 64
    },
    {
      "midi": 61,
      "hit": false,
      "t": 173906.25,
      "d": 437.5,
      "v": 87
    },
    {
      "midi": 66,
      "hit": false,
      "t": 173906.25,
      "d": 437.5,
      "v": 87
    },
    {
      "midi": 70,
      "hit": false,
      "t": 174375,
      "d": 210.9375,
      "v": 64
    },
    {
      "midi": 43,
      "hit": false,
      "t": 174375,
      "d": 1843.75,
      "v": 87
    },
    {
      "midi": 55,
      "hit": false,
      "t": 174375,
      "d": 1843.75,
      "v": 87
    },
    {
      "midi": 62,
      "hit": false,
      "t": 174609.375,
      "d": 210.9375,
      "v": 64
    },
    {
      "midi": 65,
      "hit": false,
      "t": 174843.75,
      "d": 210.9375,
      "v": 64
    },
    {
      "midi": 67,
      "hit": false,
      "t": 175078.125,
      "d": 210.9375,
      "v": 64
    },
    {
      "midi": 62,
      "hit": false,
      "t": 175312.5,
      "d": 914.0625,
      "v": 64
    },
    {
      "midi": 67,
      "hit": false,
      "t": 175312.5,
      "d": 921.875,
      "v": 64
    },
    {
      "midi": 70,
      "hit": false,
      "t": 175312.5,
      "d": 929.6875,
      "v": 64
    },
    {
      "midi": 70,
      "hit": false,
      "t": 176250,
      "d": 921.875,
      "v": 64
    },
    {
      "midi": 62,
      "hit": false,
      "t": 176250,
      "d": 1867.1875,
      "v": 64
    },
    {
      "midi": 66,
      "hit": false,
      "t": 176250,
      "d": 1867.1875,
      "v": 64
    },
    {
      "midi": 42,
      "hit": false,
      "t": 176250,
      "d": 1843.75,
      "v": 87
    },
    {
      "midi": 54,
      "hit": false,
      "t": 176250,
      "d": 1843.75,
      "v": 87
    },
    {
      "midi": 70,
      "hit": false,
      "t": 177187.5,
      "d": 921.875,
      "v": 64
    },
    {
      "midi": 74,
      "hit": false,
      "t": 177187.5,
      "d": 921.875,
      "v": 64
    },
    {
      "midi": 78,
      "hit": false,
      "t": 177187.5,
      "d": 921.875,
      "v": 64
    },
    {
      "midi": 53,
      "hit": false,
      "t": 178125,
      "d": 1859.375,
      "v": 64
    },
    {
      "midi": 58,
      "hit": false,
      "t": 178125,
      "d": 1859.375,
      "v": 64
    },
    {
      "midi": 62,
      "hit": false,
      "t": 178125,
      "d": 1859.375,
      "v": 64
    },
    {
      "midi": 41,
      "hit": false,
      "t": 178125,
      "d": 1843.75,
      "v": 87
    },
    {
      "midi": 53,
      "hit": false,
      "t": 178125,
      "d": 1843.75,
      "v": 87
    },
    {
      "midi": 65,
      "hit": false,
      "t": 179062.5,
      "d": 914.0625,
      "v": 64
    },
    {
      "midi": 70,
      "hit": false,
      "t": 179062.5,
      "d": 914.0625,
      "v": 64
    },
    {
      "midi": 74,
      "hit": false,
      "t": 179062.5,
      "d": 914.0625,
      "v": 64
    },
    {
      "midi": 52,
      "hit": false,
      "t": 180000,
      "d": 1828.125,
      "v": 64
    },
    {
      "midi": 55,
      "hit": false,
      "t": 180000,
      "d": 1828.125,
      "v": 64
    },
    {
      "midi": 58,
      "hit": false,
      "t": 180000,
      "d": 1828.125,
      "v": 64
    },
    {
      "midi": 62,
      "hit": false,
      "t": 180000,
      "d": 1828.125,
      "v": 64
    },
    {
      "midi": 40,
      "hit": false,
      "t": 180000,
      "d": 1843.75,
      "v": 87
    },
    {
      "midi": 52,
      "hit": false,
      "t": 180000,
      "d": 1843.75,
      "v": 87
    },
    {
      "midi": 64,
      "hit": false,
      "t": 180703.125,
      "d": 203.125,
      "v": 64
    },
    {
      "midi": 67,
      "hit": false,
      "t": 180703.125,
      "d": 203.125,
      "v": 64
    },
    {
      "midi": 70,
      "hit": false,
      "t": 180703.125,
      "d": 203.125,
      "v": 64
    },
    {
      "midi": 74,
      "hit": false,
      "t": 180703.125,
      "d": 203.125,
      "v": 64
    },
    {
      "midi": 67,
      "hit": false,
      "t": 180937.5,
      "d": 890.625,
      "v": 64
    },
    {
      "midi": 64,
      "hit": false,
      "t": 180937.5,
      "d": 906.25,
      "v": 64
    },
    {
      "midi": 70,
      "hit": false,
      "t": 180937.5,
      "d": 906.25,
      "v": 64
    },
    {
      "midi": 74,
      "hit": false,
      "t": 180937.5,
      "d": 906.25,
      "v": 64
    },
    {
      "midi": 55,
      "hit": false,
      "t": 180937.5,
      "d": 906.25,
      "v": 87
    },
    {
      "midi": 58,
      "hit": false,
      "t": 180937.5,
      "d": 906.25,
      "v": 87
    },
    {
      "midi": 64,
      "hit": false,
      "t": 180937.5,
      "d": 906.25,
      "v": 87
    },
    {
      "midi": 60,
      "hit": false,
      "t": 181875,
      "d": 1828.125,
      "v": 64
    },
    {
      "midi": 57,
      "hit": false,
      "t": 181875,
      "d": 1843.75,
      "v": 64
    },
    {
      "midi": 65,
      "hit": false,
      "t": 181875,
      "d": 1843.75,
      "v": 64
    },
    {
      "midi": 41,
      "hit": false,
      "t": 181875,
      "d": 1843.75,
      "v": 87
    },
    {
      "midi": 53,
      "hit": false,
      "t": 181875,
      "d": 1843.75,
      "v": 87
    },
    {
      "midi": 72,
      "hit": false,
      "t": 182812.5,
      "d": 906.25,
      "v": 64
    },
    {
      "midi": 77,
      "hit": false,
      "t": 182812.5,
      "d": 906.25,
      "v": 64
    },
    {
      "midi": 81,
      "hit": false,
      "t": 182812.5,
      "d": 906.25,
      "v": 64
    },
    {
      "midi": 57,
      "hit": false,
      "t": 182812.5,
      "d": 906.25,
      "v": 87
    },
    {
      "midi": 60,
      "hit": false,
      "t": 182812.5,
      "d": 906.25,
      "v": 87
    },
    {
      "midi": 65,
      "hit": false,
      "t": 182812.5,
      "d": 906.25,
      "v": 87
    },
    {
      "midi": 64,
      "hit": false,
      "t": 183750,
      "d": 906.25,
      "v": 64
    },
    {
      "midi": 66,
      "hit": false,
      "t": 183750,
      "d": 906.25,
      "v": 64
    },
    {
      "midi": 57,
      "hit": false,
      "t": 183750,
      "d": 1843.75,
      "v": 64
    },
    {
      "midi": 60,
      "hit": false,
      "t": 183750,
      "d": 1843.75,
      "v": 64
    },
    {
      "midi": 42,
      "hit": false,
      "t": 183750,
      "d": 1843.75,
      "v": 87
    },
    {
      "midi": 54,
      "hit": false,
      "t": 183750,
      "d": 1843.75,
      "v": 87
    },
    {
      "midi": 64,
      "hit": false,
      "t": 184687.5,
      "d": 906.25,
      "v": 64
    },
    {
      "midi": 66,
      "hit": false,
      "t": 184687.5,
      "d": 906.25,
      "v": 64
    },
    {
      "midi": 69,
      "hit": false,
      "t": 184687.5,
      "d": 906.25,
      "v": 64
    },
    {
      "midi": 72,
      "hit": false,
      "t": 184687.5,
      "d": 906.25,
      "v": 64
    },
    {
      "midi": 57,
      "hit": false,
      "t": 184687.5,
      "d": 906.25,
      "v": 87
    },
    {
      "midi": 60,
      "hit": false,
      "t": 184687.5,
      "d": 906.25,
      "v": 87
    },
    {
      "midi": 63,
      "hit": false,
      "t": 184687.5,
      "d": 906.25,
      "v": 87
    },
    {
      "midi": 66,
      "hit": false,
      "t": 184687.5,
      "d": 906.25,
      "v": 87
    },
    {
      "midi": 58,
      "hit": false,
      "t": 185625,
      "d": 1843.75,
      "v": 64
    },
    {
      "midi": 62,
      "hit": false,
      "t": 185625,
      "d": 1843.75,
      "v": 64
    },
    {
      "midi": 67,
      "hit": false,
      "t": 185625,
      "d": 1843.75,
      "v": 64
    },
    {
      "midi": 43,
      "hit": false,
      "t": 185625,
      "d": 1843.75,
      "v": 87
    },
    {
      "midi": 55,
      "hit": false,
      "t": 185625,
      "d": 1843.75,
      "v": 87
    },
    {
      "midi": 79,
      "hit": false,
      "t": 186562.5,
      "d": 890.625,
      "v": 64
    },
    {
      "midi": 82,
      "hit": false,
      "t": 186562.5,
      "d": 890.625,
      "v": 64
    },
    {
      "midi": 86,
      "hit": false,
      "t": 186562.5,
      "d": 890.625,
      "v": 64
    },
    {
      "midi": 58,
      "hit": false,
      "t": 186562.5,
      "d": 906.25,
      "v": 87
    },
    {
      "midi": 62,
      "hit": false,
      "t": 186562.5,
      "d": 906.25,
      "v": 87
    },
    {
      "midi": 67,
      "hit": false,
      "t": 186562.5,
      "d": 906.25,
      "v": 87
    },
    {
      "midi": 53,
      "hit": false,
      "t": 187500,
      "d": 1843.75,
      "v": 64
    },
    {
      "midi": 58,
      "hit": false,
      "t": 187500,
      "d": 1843.75,
      "v": 64
    },
    {
      "midi": 62,
      "hit": false,
      "t": 187500,
      "d": 1843.75,
      "v": 64
    },
    {
      "midi": 70,
      "hit": false,
      "t": 187500,
      "d": 453.125,
      "v": 87
    },
    {
      "midi": 62,
      "hit": false,
      "t": 187500,
      "d": 906.25,
      "v": 87
    },
    {
      "midi": 41,
      "hit": false,
      "t": 187500,
      "d": 1843.75,
      "v": 87
    },
    {
      "midi": 53,
      "hit": false,
      "t": 187500,
      "d": 1843.75,
      "v": 87
    },
    {
      "midi": 65,
      "hit": false,
      "t": 187968.75,
      "d": 453.125,
      "v": 87
    },
    {
      "midi": 65,
      "hit": false,
      "t": 188437.5,
      "d": 890.625,
      "v": 64
    },
    {
      "midi": 70,
      "hit": false,
      "t": 188437.5,
      "d": 890.625,
      "v": 64
    },
    {
      "midi": 74,
      "hit": false,
      "t": 188437.5,
      "d": 890.625,
      "v": 64
    },
    {
      "midi": 70,
      "hit": false,
      "t": 188437.5,
      "d": 453.125,
      "v": 87
    },
    {
      "midi": 62,
      "hit": false,
      "t": 188437.5,
      "d": 906.25,
      "v": 87
    },
    {
      "midi": 65,
      "hit": false,
      "t": 188437.5,
      "d": 906.25,
      "v": 87
    },
    {
      "midi": 74,
      "hit": false,
      "t": 188906.25,
      "d": 453.125,
      "v": 87
    },
    {
      "midi": 53,
      "hit": false,
      "t": 189375,
      "d": 1843.75,
      "v": 64
    },
    {
      "midi": 58,
      "hit": false,
      "t": 189375,
      "d": 1843.75,
      "v": 64
    },
    {
      "midi": 62,
      "hit": false,
      "t": 189375,
      "d": 1843.75,
      "v": 64
    },
    {
      "midi": 77,
      "hit": false,
      "t": 189375,
      "d": 453.125,
      "v": 87
    },
    {
      "midi": 65,
      "hit": false,
      "t": 189375,
      "d": 906.25,
      "v": 87
    },
    {
      "midi": 70,
      "hit": false,
      "t": 189375,
      "d": 906.25,
      "v": 87
    },
    {
      "midi": 41,
      "hit": false,
      "t": 189375,
      "d": 1843.75,
      "v": 87
    },
    {
      "midi": 53,
      "hit": false,
      "t": 189375,
      "d": 1843.75,
      "v": 87
    },
    {
      "midi": 74,
      "hit": false,
      "t": 189843.75,
      "d": 453.125,
      "v": 87
    },
    {
      "midi": 65,
      "hit": false,
      "t": 190312.5,
      "d": 890.625,
      "v": 64
    },
    {
      "midi": 70,
      "hit": false,
      "t": 190312.5,
      "d": 890.625,
      "v": 64
    },
    {
      "midi": 74,
      "hit": false,
      "t": 190312.5,
      "d": 890.625,
      "v": 64
    },
    {
      "midi": 72,
      "hit": false,
      "t": 190312.5,
      "d": 453.125,
      "v": 87
    },
    {
      "midi": 62,
      "hit": false,
      "t": 190312.5,
      "d": 906.25,
      "v": 87
    },
    {
      "midi": 65,
      "hit": false,
      "t": 190312.5,
      "d": 906.25,
      "v": 87
    },
    {
      "midi": 70,
      "hit": false,
      "t": 190781.25,
      "d": 453.125,
      "v": 87
    },
    {
      "midi": 58,
      "hit": false,
      "t": 191250,
      "d": 2156.25,
      "v": 64
    },
    {
      "midi": 62,
      "hit": false,
      "t": 191250,
      "d": 2156.25,
      "v": 64
    },
    {
      "midi": 53,
      "hit": false,
      "t": 191250,
      "d": 2171.875,
      "v": 64
    },
    {
      "midi": 70,
      "hit": false,
      "t": 191250,
      "d": 453.125,
      "v": 87
    },
    {
      "midi": 62,
      "hit": false,
      "t": 191250,
      "d": 906.25,
      "v": 87
    },
    {
      "midi": 65,
      "hit": false,
      "t": 191250,
      "d": 906.25,
      "v": 87
    },
    {
      "midi": 41,
      "hit": false,
      "t": 191250,
      "d": 1843.75,
      "v": 87
    },
    {
      "midi": 53,
      "hit": false,
      "t": 191250,
      "d": 1843.75,
      "v": 87
    },
    {
      "midi": 69,
      "hit": false,
      "t": 191796.875,
      "d": 453.125,
      "v": 87
    },
    {
      "midi": 65,
      "hit": false,
      "t": 192265.625,
      "d": 1164.0625,
      "v": 64
    },
    {
      "midi": 70,
      "hit": false,
      "t": 192265.625,
      "d": 1187.5,
      "v": 64
    },
    {
      "midi": 74,
      "hit": false,
      "t": 192265.625,
      "d": 1187.5,
      "v": 64
    },
    {
      "midi": 67,
      "hit": false,
      "t": 192265.625,
      "d": 453.125,
      "v": 87
    },
    {
      "midi": 65,
      "hit": false,
      "t": 192265.625,
      "d": 468.75,
      "v": 87
    },
    {
      "midi": 58,
      "hit": false,
      "t": 192265.625,
      "d": 906.25,
      "v": 87
    },
    {
      "midi": 65,
      "hit": false,
      "t": 192812.5,
      "d": 453.125,
      "v": 87
    },
    {
      "midi": 67,
      "hit": false,
      "t": 193515.625,
      "d": 1242.1875,
      "v": 64
    },
    {
      "midi": 58,
      "hit": false,
      "t": 193515.625,
      "d": 2406.25,
      "v": 64
    },
    {
      "midi": 63,
      "hit": false,
      "t": 193515.625,
      "d": 2414.0625,
      "v": 64
    },
    {
      "midi": 65,
      "hit": false,
      "t": 193515.625,
      "d": 453.125,
      "v": 87
    },
    {
      "midi": 39,
      "hit": false,
      "t": 193515.625,
      "d": 1843.75,
      "v": 87
    },
    {
      "midi": 51,
      "hit": false,
      "t": 193515.625,
      "d": 1843.75,
      "v": 87
    },
    {
      "midi": 63,
      "hit": false,
      "t": 194140.625,
      "d": 453.125,
      "v": 87
    },
    {
      "midi": 67,
      "hit": false,
      "t": 194765.625,
      "d": 1187.5,
      "v": 64
    },
    {
      "midi": 70,
      "hit": false,
      "t": 194765.625,
      "d": 1187.5,
      "v": 64
    },
    {
      "midi": 75,
      "hit": false,
      "t": 194765.625,
      "d": 1187.5,
      "v": 64
    },
    {
      "midi": 62,
      "hit": false,
      "t": 194765.625,
      "d": 453.125,
      "v": 87
    },
    {
      "midi": 58,
      "hit": false,
      "t": 194765.625,
      "d": 906.25,
      "v": 87
    },
    {
      "midi": 63,
      "hit": false,
      "t": 194765.625,
      "d": 906.25,
      "v": 87
    },
    {
      "midi": 60,
      "hit": false,
      "t": 195312.5,
      "d": 429.6875,
      "v": 87
    },
    {
      "midi": 66,
      "hit": false,
      "t": 196015.625,
      "d": 1226.5625,
      "v": 64
    },
    {
      "midi": 58,
      "hit": false,
      "t": 196015.625,
      "d": 2406.25,
      "v": 64
    },
    {
      "midi": 63,
      "hit": false,
      "t": 196015.625,
      "d": 2406.25,
      "v": 64
    },
    {
      "midi": 58,
      "hit": false,
      "t": 196015.625,
      "d": 320.3125,
      "v": 87
    },
    {
      "midi": 39,
      "hit": false,
      "t": 196015.625,
      "d": 828.125,
      "v": 87
    },
    {
      "midi": 51,
      "hit": false,
      "t": 196015.625,
      "d": 1304.6875,
      "v": 87
    },
    {
      "midi": 60,
      "hit": false,
      "t": 196328.125,
      "d": 281.25,
      "v": 87
    },
    {
      "midi": 63,
      "hit": false,
      "t": 196640.625,
      "d": 359.375,
      "v": 87
    },
    {
      "midi": 66,
      "hit": false,
      "t": 196953.125,
      "d": 250,
      "v": 87
    },
    {
      "midi": 66,
      "hit": false,
      "t": 197265.625,
      "d": 1187.5,
      "v": 64
    },
    {
      "midi": 69,
      "hit": false,
      "t": 197265.625,
      "d": 1187.5,
      "v": 64
    },
    {
      "midi": 75,
      "hit": false,
      "t": 197265.625,
      "d": 1187.5,
      "v": 64
    },
    {
      "midi": 66,
      "hit": false,
      "t": 197265.625,
      "d": 414.0625,
      "v": 87
    },
    {
      "midi": 63,
      "hit": false,
      "t": 197265.625,
      "d": 429.6875,
      "v": 87
    },
    {
      "midi": 39,
      "hit": false,
      "t": 197265.625,
      "d": 453.125,
      "v": 87
    },
    {
      "midi": 70,
      "hit": false,
      "t": 197578.125,
      "d": 359.375,
      "v": 87
    },
    {
      "midi": 73,
      "hit": false,
      "t": 197890.625,
      "d": 359.375,
      "v": 87
    },
    {
      "midi": 63,
      "hit": false,
      "t": 197890.625,
      "d": 429.6875,
      "v": 87
    },
    {
      "midi": 66,
      "hit": false,
      "t": 197890.625,
      "d": 429.6875,
      "v": 87
    },
    {
      "midi": 39,
      "hit": false,
      "t": 197890.625,
      "d": 453.125,
      "v": 87
    },
    {
      "midi": 75,
      "hit": false,
      "t": 198203.125,
      "d": 359.375,
      "v": 87
    },
    {
      "midi": 58,
      "hit": false,
      "t": 198515.625,
      "d": 5812.5,
      "v": 64
    },
    {
      "midi": 62,
      "hit": false,
      "t": 198515.625,
      "d": 5812.5,
      "v": 64
    },
    {
      "midi": 65,
      "hit": false,
      "t": 198515.625,
      "d": 5812.5,
      "v": 64
    },
    {
      "midi": 70,
      "hit": false,
      "t": 198515.625,
      "d": 5812.5,
      "v": 64
    },
    {
      "midi": 34,
      "hit": false,
      "t": 198515.625,
      "d": 5796.875,
      "v": 87
    },
    {
      "midi": 46,
      "hit": false,
      "t": 198515.625,
      "d": 5796.875,
      "v": 87
    },
    {
      "midi": 65,
      "hit": false,
      "t": 198515.625,
      "d": 5804.6875,
      "v": 87
    },
    {
      "midi": 70,
      "hit": false,
      "t": 198515.625,
      "d": 5804.6875,
      "v": 87
    },
    {
      "midi": 74,
      "hit": false,
      "t": 198515.625,
      "d": 5804.6875,
      "v": 87
    },
    {
      "midi": 77,
      "hit": false,
      "t": 200468.75,
      "d": 3875,
      "v": 64
    },
    {
      "midi": 82,
      "hit": false,
      "t": 200546.875,
      "d": 3796.875,
      "v": 64
    },
    {
      "midi": 86,
      "hit": false,
      "t": 200625,
      "d": 3726.5625,
      "v": 64
    }
  ]
}