{
  "jsonPath": "Rock/Alternative Metal/Evanescence/all-that-im-living-for.json",
  "path": "Rock\\Alternative Metal\\Evanescence\\All That Im Living For.mid",
  "name": "All That Im Living For",
  "difficulty": "Advanced",
  "bpm": 137.00037675103607,
  "notes": [
    {
      "midi": 39,
      "hit": false,
      "t": 21021.84,
      "d": 1751.8200000000033,
      "v": 95
    },
    {
      "midi": 46,
      "hit": false,
      "t": 21240.8175,
      "d": 1751.8200000000033,
      "v": 95
    },
    {
      "midi": 51,
      "hit": false,
      "t": 21459.795000000002,
      "d": 1751.8200000000033,
      "v": 95
    },
    {
      "midi": 58,
      "hit": false,
      "t": 21678.772500000003,
      "d": 1751.8200000000033,
      "v": 95
    },
    {
      "midi": 39,
      "hit": false,
      "t": 22773.660000000003,
      "d": 1751.8200000000033,
      "v": 95
    },
    {
      "midi": 46,
      "hit": false,
      "t": 22992.637500000004,
      "d": 1751.8200000000033,
      "v": 95
    },
    {
      "midi": 51,
      "hit": false,
      "t": 23211.615000000005,
      "d": 1751.8200000000033,
      "v": 95
    },
    {
      "midi": 56,
      "hit": false,
      "t": 23430.592500000006,
      "d": 1751.8200000000033,
      "v": 95
    },
    {
      "midi": 39,
      "hit": false,
      "t": 24525.480000000007,
      "d": 1751.8200000000033,
      "v": 95
    },
    {
      "midi": 46,
      "hit": false,
      "t": 24744.457500000008,
      "d": 1751.8200000000033,
      "v": 95
    },
    {
      "midi": 51,
      "hit": false,
      "t": 24963.43500000001,
      "d": 1751.8200000000033,
      "v": 95
    },
    {
      "midi": 54,
      "hit": false,
      "t": 25182.41250000001,
      "d": 1751.8200000000033,
      "v": 95
    },
    {
      "midi": 39,
      "hit": false,
      "t": 26277.30000000001,
      "d": 1751.820000000007,
      "v": 95
    },
    {
      "midi": 46,
      "hit": false,
      "t": 26496.27750000001,
      "d": 437.95500000000175,
      "v": 95
    },
    {
      "midi": 51,
      "hit": false,
      "t": 26715.255000000012,
      "d": 1094.8875000000044,
      "v": 95
    },
    {
      "midi": 46,
      "hit": false,
      "t": 26934.232500000013,
      "d": 1313.8650000000052,
      "v": 95
    },
    {
      "midi": 53,
      "hit": false,
      "t": 27153.210000000014,
      "d": 218.97750000000087,
      "v": 95
    },
    {
      "midi": 54,
      "hit": false,
      "t": 27372.187500000015,
      "d": 218.97750000000087,
      "v": 95
    },
    {
      "midi": 53,
      "hit": false,
      "t": 27591.165000000015,
      "d": 1094.8875000000044,
      "v": 95
    },
    {
      "midi": 49,
      "hit": false,
      "t": 27810.142500000016,
      "d": 218.97750000000087,
      "v": 95
    },
    {
      "midi": 35,
      "hit": false,
      "t": 28029.120000000017,
      "d": 1751.8200000000033,
      "v": 95
    },
    {
      "midi": 42,
      "hit": false,
      "t": 28248.097500000018,
      "d": 1751.8200000000033,
      "v": 95
    },
    {
      "midi": 47,
      "hit": false,
      "t": 28467.07500000002,
      "d": 1751.8200000000033,
      "v": 95
    },
    {
      "midi": 54,
      "hit": false,
      "t": 28686.05250000002,
      "d": 1751.8200000000033,
      "v": 95
    },
    {
      "midi": 35,
      "hit": false,
      "t": 29780.94000000002,
      "d": 1751.8200000000033,
      "v": 95
    },
    {
      "midi": 42,
      "hit": false,
      "t": 29999.91750000002,
      "d": 1751.8200000000033,
      "v": 95
    },
    {
      "midi": 47,
      "hit": false,
      "t": 30218.895000000022,
      "d": 1751.8200000000033,
      "v": 95
    },
    {
      "midi": 54,
      "hit": false,
      "t": 30437.872500000023,
      "d": 1751.8200000000033,
      "v": 79
    },
    {
      "midi": 66,
      "hit": false,
      "t": 30437.872500000023,
      "d": 1751.8200000000033,
      "v": 79
    },
    {
      "midi": 35,
      "hit": false,
      "t": 31532.760000000024,
      "d": 1751.8199999999997,
      "v": 95
    },
    {
      "midi": 42,
      "hit": false,
      "t": 31751.737500000025,
      "d": 1751.8199999999997,
      "v": 95
    },
    {
      "midi": 47,
      "hit": false,
      "t": 31970.715000000026,
      "d": 1751.8199999999997,
      "v": 95
    },
    {
      "midi": 58,
      "hit": false,
      "t": 32189.692500000026,
      "d": 1751.8199999999997,
      "v": 95
    },
    {
      "midi": 35,
      "hit": false,
      "t": 33284.58000000002,
      "d": 1751.8199999999997,
      "v": 95
    },
    {
      "midi": 42,
      "hit": false,
      "t": 33503.557500000024,
      "d": 1751.8199999999997,
      "v": 95
    },
    {
      "midi": 47,
      "hit": false,
      "t": 33722.535000000025,
      "d": 1751.8199999999997,
      "v": 95
    },
    {
      "midi": 56,
      "hit": false,
      "t": 33941.512500000026,
      "d": 1751.8199999999997,
      "v": 95
    },
    {
      "midi": 39,
      "hit": false,
      "t": 35036.40000000002,
      "d": 1751.8199999999997,
      "v": 95
    },
    {
      "midi": 46,
      "hit": false,
      "t": 35255.377500000024,
      "d": 1751.8199999999997,
      "v": 95
    },
    {
      "midi": 51,
      "hit": false,
      "t": 35474.355000000025,
      "d": 1751.8199999999997,
      "v": 95
    },
    {
      "midi": 58,
      "hit": false,
      "t": 35693.332500000026,
      "d": 1751.8199999999997,
      "v": 95
    },
    {
      "midi": 39,
      "hit": false,
      "t": 36788.22000000002,
      "d": 1751.8199999999997,
      "v": 95
    },
    {
      "midi": 46,
      "hit": false,
      "t": 37007.197500000024,
      "d": 1751.8199999999997,
      "v": 95
    },
    {
      "midi": 51,
      "hit": false,
      "t": 37226.175000000025,
      "d": 1751.8199999999997,
      "v": 95
    },
    {
      "midi": 56,
      "hit": false,
      "t": 37445.152500000026,
      "d": 1751.8199999999997,
      "v": 95
    },
    {
      "midi": 39,
      "hit": false,
      "t": 38540.04000000002,
      "d": 1751.8199999999997,
      "v": 95
    },
    {
      "midi": 46,
      "hit": false,
      "t": 38759.01750000002,
      "d": 1751.8199999999997,
      "v": 95
    },
    {
      "midi": 51,
      "hit": false,
      "t": 38977.995000000024,
      "d": 1751.8199999999997,
      "v": 95
    },
    {
      "midi": 54,
      "hit": false,
      "t": 39196.972500000025,
      "d": 1751.8199999999997,
      "v": 95
    },
    {
      "midi": 39,
      "hit": false,
      "t": 40291.86000000002,
      "d": 1751.820000000007,
      "v": 95
    },
    {
      "midi": 46,
      "hit": false,
      "t": 40510.83750000002,
      "d": 437.95500000000175,
      "v": 95
    },
    {
      "midi": 51,
      "hit": false,
      "t": 40729.815000000024,
      "d": 1094.8875000000044,
      "v": 95
    },
    {
      "midi": 46,
      "hit": false,
      "t": 40948.792500000025,
      "d": 1313.8650000000052,
      "v": 95
    },
    {
      "midi": 53,
      "hit": false,
      "t": 41167.770000000026,
      "d": 218.97750000000087,
      "v": 95
    },
    {
      "midi": 54,
      "hit": false,
      "t": 41386.74750000003,
      "d": 218.97750000000087,
      "v": 95
    },
    {
      "midi": 53,
      "hit": false,
      "t": 41605.72500000003,
      "d": 1094.8875000000044,
      "v": 95
    },
    {
      "midi": 49,
      "hit": false,
      "t": 41824.70250000003,
      "d": 218.97750000000087,
      "v": 95
    },
    {
      "midi": 35,
      "hit": false,
      "t": 42043.68000000003,
      "d": 1751.8199999999997,
      "v": 95
    },
    {
      "midi": 42,
      "hit": false,
      "t": 42262.65750000003,
      "d": 1751.8199999999997,
      "v": 95
    },
    {
      "midi": 47,
      "hit": false,
      "t": 42481.63500000003,
      "d": 1751.8199999999997,
      "v": 95
    },
    {
      "midi": 54,
      "hit": false,
      "t": 42700.61250000003,
      "d": 1751.8199999999997,
      "v": 95
    },
    {
      "midi": 35,
      "hit": false,
      "t": 43795.50000000003,
      "d": 1751.8199999999997,
      "v": 95
    },
    {
      "midi": 42,
      "hit": false,
      "t": 44014.47750000003,
      "d": 1751.8199999999997,
      "v": 95
    },
    {
      "midi": 47,
      "hit": false,
      "t": 44233.45500000003,
      "d": 1751.8199999999997,
      "v": 95
    },
    {
      "midi": 53,
      "hit": false,
      "t": 44452.43250000003,
      "d": 1751.8199999999997,
      "v": 95
    },
    {
      "midi": 34,
      "hit": false,
      "t": 45547.32000000003,
      "d": 1751.820000000007,
      "v": 111
    },
    {
      "midi": 41,
      "hit": false,
      "t": 45766.29750000003,
      "d": 1094.8875000000044,
      "v": 79
    },
    {
      "midi": 46,
      "hit": false,
      "t": 45985.27500000003,
      "d": 656.9325000000026,
      "v": 95
    },
    {
      "midi": 50,
      "hit": false,
      "t": 46204.25250000003,
      "d": 1313.8650000000052,
      "v": 95
    },
    {
      "midi": 46,
      "hit": false,
      "t": 46642.20750000003,
      "d": 1094.8875000000044,
      "v": 95
    },
    {
      "midi": 41,
      "hit": false,
      "t": 46861.185000000034,
      "d": 1751.820000000007,
      "v": 79
    },
    {
      "midi": 58,
      "hit": false,
      "t": 47299.140000000036,
      "d": 656.9325000000026,
      "v": 95
    },
    {
      "midi": 50,
      "hit": false,
      "t": 47518.11750000004,
      "d": 656.9325000000026,
      "v": 95
    },
    {
      "midi": 46,
      "hit": false,
      "t": 47737.09500000004,
      "d": 656.9325000000026,
      "v": 95
    },
    {
      "midi": 56,
      "hit": false,
      "t": 47956.07250000004,
      "d": 656.9325000000026,
      "v": 95
    },
    {
      "midi": 50,
      "hit": false,
      "t": 48175.05000000004,
      "d": 875.9100000000035,
      "v": 95
    },
    {
      "midi": 46,
      "hit": false,
      "t": 48394.02750000004,
      "d": 656.9325000000026,
      "v": 95
    },
    {
      "midi": 54,
      "hit": false,
      "t": 48613.00500000004,
      "d": 218.97750000000087,
      "v": 95
    },
    {
      "midi": 53,
      "hit": false,
      "t": 48831.98250000004,
      "d": 218.97750000000087,
      "v": 95
    },
    {
      "midi": 51,
      "hit": false,
      "t": 140145.60000000003,
      "d": 1751.820000000007,
      "v": 95
    },
    {
      "midi": 58,
      "hit": false,
      "t": 140364.57750000004,
      "d": 1751.820000000007,
      "v": 95
    },
    {
      "midi": 63,
      "hit": false,
      "t": 140583.55500000005,
      "d": 218.97750000000815,
      "v": 95
    },
    {
      "midi": 65,
      "hit": false,
      "t": 140802.53250000006,
      "d": 437.9549999999872,
      "v": 95
    },
    {
      "midi": 66,
      "hit": false,
      "t": 141240.48750000005,
      "d": 1094.8875000000116,
      "v": 95
    },
    {
      "midi": 49,
      "hit": false,
      "t": 141897.42000000004,
      "d": 1751.820000000007,
      "v": 95
    },
    {
      "midi": 56,
      "hit": false,
      "t": 142116.39750000005,
      "d": 1751.820000000007,
      "v": 95
    },
    {
      "midi": 61,
      "hit": false,
      "t": 142335.37500000006,
      "d": 218.97750000000815,
      "v": 95
    },
    {
      "midi": 65,
      "hit": false,
      "t": 142554.35250000007,
      "d": 437.9549999999872,
      "v": 95
    },
    {
      "midi": 66,
      "hit": false,
      "t": 142992.30750000005,
      "d": 656.9324999999953,
      "v": 95
    },
    {
      "midi": 47,
      "hit": false,
      "t": 143649.24000000005,
      "d": 1751.8200000000652,
      "v": 95
    },
    {
      "midi": 54,
      "hit": false,
      "t": 143868.21750000006,
      "d": 437.9550000000163,
      "v": 95
    },
    {
      "midi": 59,
      "hit": false,
      "t": 144087.19500000007,
      "d": 656.9325000000244,
      "v": 95
    },
    {
      "midi": 54,
      "hit": false,
      "t": 144306.17250000007,
      "d": 656.9325000000244,
      "v": 95
    },
    {
      "midi": 63,
      "hit": false,
      "t": 144525.15000000008,
      "d": 875.9100000000326,
      "v": 95
    },
    {
      "midi": 59,
      "hit": false,
      "t": 144744.1275000001,
      "d": 437.9550000000163,
      "v": 95
    },
    {
      "midi": 54,
      "hit": false,
      "t": 144963.1050000001,
      "d": 875.9100000000326,
      "v": 95
    },
    {
      "midi": 59,
      "hit": false,
      "t": 145182.0825000001,
      "d": 437.9550000000163,
      "v": 95
    },
    {
      "midi": 66,
      "hit": false,
      "t": 145401.0600000001,
      "d": 656.9325000000244,
      "v": 95
    },
    {
      "midi": 59,
      "hit": false,
      "t": 145620.03750000012,
      "d": 1751.8200000000652,
      "v": 95
    },
    {
      "midi": 54,
      "hit": false,
      "t": 145839.01500000013,
      "d": 437.9550000000163,
      "v": 95
    },
    {
      "midi": 65,
      "hit": false,
      "t": 146057.99250000014,
      "d": 437.9550000000163,
      "v": 95
    },
    {
      "midi": 54,
      "hit": false,
      "t": 146276.97000000015,
      "d": 437.9550000000163,
      "v": 95
    },
    {
      "midi": 66,
      "hit": false,
      "t": 146495.94750000015,
      "d": 1313.865000000049,
      "v": 95
    },
    {
      "midi": 54,
      "hit": false,
      "t": 146714.92500000016,
      "d": 218.97750000000815,
      "v": 95
    },
    {
      "midi": 51,
      "hit": false,
      "t": 146933.90250000017,
      "d": 437.9550000000163,
      "v": 95
    },
    {
      "midi": 42,
      "hit": false,
      "t": 147152.88000000018,
      "d": 1751.8200000000652,
      "v": 95
    },
    {
      "midi": 49,
      "hit": false,
      "t": 147371.8575000002,
      "d": 1313.865000000049,
      "v": 95
    },
    {
      "midi": 54,
      "hit": false,
      "t": 147590.8350000002,
      "d": 875.9100000000326,
      "v": 95
    },
    {
      "midi": 58,
      "hit": false,
      "t": 147809.8125000002,
      "d": 437.9550000000163,
      "v": 95
    },
    {
      "midi": 70,
      "hit": false,
      "t": 148028.7900000002,
      "d": 875.9100000000326,
      "v": 95
    },
    {
      "midi": 58,
      "hit": false,
      "t": 148247.76750000022,
      "d": 1313.865000000049,
      "v": 95
    },
    {
      "midi": 54,
      "hit": false,
      "t": 148466.74500000023,
      "d": 875.9100000000326,
      "v": 95
    },
    {
      "midi": 49,
      "hit": false,
      "t": 148685.72250000024,
      "d": 437.9550000000163,
      "v": 95
    },
    {
      "midi": 68,
      "hit": false,
      "t": 148904.70000000024,
      "d": 875.9100000000326,
      "v": 95
    },
    {
      "midi": 42,
      "hit": false,
      "t": 148904.70000000024,
      "d": 1751.8200000000652,
      "v": 95
    },
    {
      "midi": 49,
      "hit": false,
      "t": 149123.67750000025,
      "d": 1313.865000000049,
      "v": 95
    },
    {
      "midi": 54,
      "hit": false,
      "t": 149342.65500000026,
      "d": 875.9100000000326,
      "v": 95
    },
    {
      "midi": 58,
      "hit": false,
      "t": 149561.63250000027,
      "d": 437.9550000000163,
      "v": 95
    },
    {
      "midi": 71,
      "hit": false,
      "t": 149780.61000000028,
      "d": 875.9100000000326,
      "v": 95
    },
    {
      "midi": 54,
      "hit": false,
      "t": 150218.5650000003,
      "d": 875.9100000000326,
      "v": 95
    },
    {
      "midi": 49,
      "hit": false,
      "t": 150437.5425000003,
      "d": 437.9550000000163,
      "v": 95
    },
    {
      "midi": 70,
      "hit": false,
      "t": 150656.5200000003,
      "d": 656.9325000000244,
      "v": 95
    },
    {
      "midi": 46,
      "hit": false,
      "t": 150656.5200000003,
      "d": 1751.8200000000652,
      "v": 95
    },
    {
      "midi": 50,
      "hit": false,
      "t": 150875.49750000032,
      "d": 656.9325000000244,
      "v": 95
    },
    {
      "midi": 58,
      "hit": false,
      "t": 151094.47500000033,
      "d": 218.97750000000815,
      "v": 95
    },
    {
      "midi": 74,
      "hit": false,
      "t": 151313.45250000033,
      "d": 1094.8875000000407,
      "v": 95
    },
    {
      "midi": 62,
      "hit": false,
      "t": 151313.45250000033,
      "d": 1751.8200000000652,
      "v": 95
    },
    {
      "midi": 50,
      "hit": false,
      "t": 151532.43000000034,
      "d": 218.97750000000815,
      "v": 95
    },
    {
      "midi": 53,
      "hit": false,
      "t": 151751.40750000035,
      "d": 218.97750000000815,
      "v": 95
    },
    {
      "midi": 50,
      "hit": false,
      "t": 151970.38500000036,
      "d": 218.97750000000815,
      "v": 95
    },
    {
      "midi": 51,
      "hit": false,
      "t": 152189.36250000037,
      "d": 437.9550000000163,
      "v": 95
    },
    {
      "midi": 70,
      "hit": false,
      "t": 152408.34000000037,
      "d": 656.9325000000244,
      "v": 95
    },
    {
      "midi": 46,
      "hit": false,
      "t": 152408.34000000037,
      "d": 1751.8200000000652,
      "v": 95
    },
    {
      "midi": 50,
      "hit": false,
      "t": 152627.31750000038,
      "d": 656.9325000000244,
      "v": 95
    },
    {
      "midi": 58,
      "hit": false,
      "t": 152846.2950000004,
      "d": 1751.8200000000652,
      "v": 95
    },
    {
      "midi": 62,
      "hit": false,
      "t": 153065.2725000004,
      "d": 1751.8200000000652,
      "v": 95
    },
    {
      "midi": 74,
      "hit": false,
      "t": 153065.2725000004,
      "d": 1751.8200000000652,
      "v": 95
    },
    {
      "midi": 50,
      "hit": false,
      "t": 153284.2500000004,
      "d": 218.97750000000815,
      "v": 95
    },
    {
      "midi": 53,
      "hit": false,
      "t": 153503.22750000042,
      "d": 218.97750000000815,
      "v": 95
    },
    {
      "midi": 50,
      "hit": false,
      "t": 153722.20500000042,
      "d": 218.97750000000815,
      "v": 95
    },
    {
      "midi": 51,
      "hit": false,
      "t": 153941.18250000043,
      "d": 656.9325000000244,
      "v": 95
    },
    {
      "midi": 39,
      "hit": false,
      "t": 154160.16000000044,
      "d": 1751.8200000000652,
      "v": 95
    },
    {
      "midi": 46,
      "hit": false,
      "t": 154379.13750000045,
      "d": 437.9550000000163,
      "v": 95
    },
    {
      "midi": 51,
      "hit": false,
      "t": 154598.11500000046,
      "d": 437.9550000000163,
      "v": 95
    },
    {
      "midi": 46,
      "hit": false,
      "t": 154817.09250000046,
      "d": 656.9325000000244,
      "v": 95
    },
    {
      "midi": 54,
      "hit": false,
      "t": 155036.07000000047,
      "d": 218.97750000000815,
      "v": 95
    },
    {
      "midi": 66,
      "hit": false,
      "t": 155036.07000000047,
      "d": 875.9100000000326,
      "v": 95
    },
    {
      "midi": 51,
      "hit": false,
      "t": 155255.04750000048,
      "d": 437.9550000000163,
      "v": 95
    },
    {
      "midi": 46,
      "hit": false,
      "t": 155474.0250000005,
      "d": 656.9325000000244,
      "v": 95
    },
    {
      "midi": 51,
      "hit": false,
      "t": 155693.0025000005,
      "d": 656.9325000000244,
      "v": 95
    },
    {
      "midi": 65,
      "hit": false,
      "t": 155911.9800000005,
      "d": 875.9100000000326,
      "v": 95
    },
    {
      "midi": 39,
      "hit": false,
      "t": 155911.9800000005,
      "d": 1751.8200000000652,
      "v": 95
    },
    {
      "midi": 46,
      "hit": false,
      "t": 156130.9575000005,
      "d": 437.9550000000163,
      "v": 95
    },
    {
      "midi": 51,
      "hit": false,
      "t": 156349.93500000052,
      "d": 437.9550000000163,
      "v": 95
    },
    {
      "midi": 46,
      "hit": false,
      "t": 156568.91250000053,
      "d": 656.9325000000244,
      "v": 95
    },
    {
      "midi": 54,
      "hit": false,
      "t": 156787.89000000054,
      "d": 218.97750000000815,
      "v": 95
    },
    {
      "midi": 66,
      "hit": false,
      "t": 156787.89000000054,
      "d": 875.9100000000326,
      "v": 95
    },
    {
      "midi": 51,
      "hit": false,
      "t": 157006.86750000055,
      "d": 437.9550000000163,
      "v": 95
    },
    {
      "midi": 46,
      "hit": false,
      "t": 157225.84500000055,
      "d": 656.9325000000244,
      "v": 95
    },
    {
      "midi": 51,
      "hit": false,
      "t": 157444.82250000056,
      "d": 218.97750000000815,
      "v": 95
    },
    {
      "midi": 66,
      "hit": false,
      "t": 157663.80000000057,
      "d": 875.9100000000326,
      "v": 79
    },
    {
      "midi": 38,
      "hit": false,
      "t": 157663.80000000057,
      "d": 1751.8200000000652,
      "v": 95
    },
    {
      "midi": 45,
      "hit": false,
      "t": 157882.77750000058,
      "d": 1751.8200000000652,
      "v": 95
    },
    {
      "midi": 50,
      "hit": false,
      "t": 158101.7550000006,
      "d": 875.9100000000326,
      "v": 95
    },
    {
      "midi": 54,
      "hit": false,
      "t": 158320.7325000006,
      "d": 218.97750000000815,
      "v": 95
    },
    {
      "midi": 57,
      "hit": false,
      "t": 158539.7100000006,
      "d": 218.97750000000815,
      "v": 95
    },
    {
      "midi": 66,
      "hit": false,
      "t": 158539.7100000006,
      "d": 875.9100000000326,
      "v": 95
    },
    {
      "midi": 54,
      "hit": false,
      "t": 158758.6875000006,
      "d": 437.9550000000163,
      "v": 95
    },
    {
      "midi": 50,
      "hit": false,
      "t": 158977.66500000062,
      "d": 875.9100000000326,
      "v": 95
    },
    {
      "midi": 54,
      "hit": false,
      "t": 159196.64250000063,
      "d": 875.9100000000326,
      "v": 95
    },
    {
      "midi": 66,
      "hit": false,
      "t": 159415.62000000064,
      "d": 875.9100000000326,
      "v": 79
    },
    {
      "midi": 38,
      "hit": false,
      "t": 159415.62000000064,
      "d": 1751.8200000000652,
      "v": 95
    },
    {
      "midi": 45,
      "hit": false,
      "t": 159634.59750000064,
      "d": 1751.8200000000652,
      "v": 95
    },
    {
      "midi": 50,
      "hit": false,
      "t": 159853.57500000065,
      "d": 875.9100000000326,
      "v": 95
    },
    {
      "midi": 54,
      "hit": false,
      "t": 160072.55250000066,
      "d": 218.97750000000815,
      "v": 95
    },
    {
      "midi": 57,
      "hit": false,
      "t": 160291.53000000067,
      "d": 218.97750000000815,
      "v": 95
    },
    {
      "midi": 66,
      "hit": false,
      "t": 160291.53000000067,
      "d": 1751.8200000000652,
      "v": 79
    },
    {
      "midi": 54,
      "hit": false,
      "t": 160510.50750000068,
      "d": 437.9550000000163,
      "v": 95
    },
    {
      "midi": 50,
      "hit": false,
      "t": 160729.48500000068,
      "d": 875.9100000000326,
      "v": 95
    },
    {
      "midi": 42,
      "hit": false,
      "t": 161167.4400000007,
      "d": 1751.8200000000652,
      "v": 95
    },
    {
      "midi": 49,
      "hit": false,
      "t": 161386.4175000007,
      "d": 437.9550000000163,
      "v": 95
    },
    {
      "midi": 54,
      "hit": false,
      "t": 161605.39500000072,
      "d": 437.9550000000163,
      "v": 95
    },
    {
      "midi": 49,
      "hit": false,
      "t": 161824.37250000073,
      "d": 656.9325000000244,
      "v": 95
    },
    {
      "midi": 58,
      "hit": false,
      "t": 162043.35000000073,
      "d": 1751.8200000000652,
      "v": 95
    },
    {
      "midi": 66,
      "hit": false,
      "t": 162043.35000000073,
      "d": 1751.8200000000652,
      "v": 79
    },
    {
      "midi": 54,
      "hit": false,
      "t": 162262.32750000074,
      "d": 437.9550000000163,
      "v": 95
    },
    {
      "midi": 49,
      "hit": false,
      "t": 162481.30500000075,
      "d": 656.9325000000244,
      "v": 95
    },
    {
      "midi": 54,
      "hit": false,
      "t": 162700.28250000076,
      "d": 656.9325000000244,
      "v": 95
    },
    {
      "midi": 42,
      "hit": false,
      "t": 162919.26000000077,
      "d": 1751.8200000000652,
      "v": 95
    },
    {
      "midi": 49,
      "hit": false,
      "t": 163138.23750000077,
      "d": 437.9550000000163,
      "v": 95
    },
    {
      "midi": 54,
      "hit": false,
      "t": 163357.21500000078,
      "d": 656.9325000000244,
      "v": 95
    },
    {
      "midi": 49,
      "hit": false,
      "t": 163576.1925000008,
      "d": 656.9325000000244,
      "v": 95
    },
    {
      "midi": 59,
      "hit": false,
      "t": 163795.1700000008,
      "d": 1313.865000000049,
      "v": 95
    },
    {
      "midi": 68,
      "hit": false,
      "t": 163795.1700000008,
      "d": 1751.8200000000652,
      "v": 95
    },
    {
      "midi": 54,
      "hit": false,
      "t": 164014.1475000008,
      "d": 437.9550000000163,
      "v": 95
    },
    {
      "midi": 49,
      "hit": false,
      "t": 164233.12500000081,
      "d": 437.9550000000163,
      "v": 95
    },
    {
      "midi": 54,
      "hit": false,
      "t": 164452.10250000082,
      "d": 437.9550000000163,
      "v": 95
    },
    {
      "midi": 46,
      "hit": false,
      "t": 164671.08000000083,
      "d": 656.9325000000244,
      "v": 95
    },
    {
      "midi": 74,
      "hit": false,
      "t": 164671.08000000083,
      "d": 656.9325000000244,
      "v": 79
    },
    {
      "midi": 53,
      "hit": false,
      "t": 164890.05750000084,
      "d": 656.9325000000244,
      "v": 95
    },
    {
      "midi": 58,
      "hit": false,
      "t": 165109.03500000085,
      "d": 1751.8200000000652,
      "v": 95
    },
    {
      "midi": 46,
      "hit": false,
      "t": 165328.01250000086,
      "d": 656.9325000000244,
      "v": 95
    },
    {
      "midi": 74,
      "hit": false,
      "t": 165328.01250000086,
      "d": 1094.8875000000407,
      "v": 95
    },
    {
      "midi": 53,
      "hit": false,
      "t": 165546.99000000086,
      "d": 656.9325000000244,
      "v": 95
    },
    {
      "midi": 41,
      "hit": false,
      "t": 165765.96750000087,
      "d": 1751.8200000000652,
      "v": 95
    },
    {
      "midi": 50,
      "hit": false,
      "t": 165984.94500000088,
      "d": 437.9550000000163,
      "v": 95
    },
    {
      "midi": 53,
      "hit": false,
      "t": 166203.9225000009,
      "d": 437.9550000000163,
      "v": 95
    },
    {
      "midi": 46,
      "hit": false,
      "t": 166422.9000000009,
      "d": 656.9325000000244,
      "v": 95
    },
    {
      "midi": 74,
      "hit": false,
      "t": 166422.9000000009,
      "d": 875.9100000000326,
      "v": 79
    },
    {
      "midi": 53,
      "hit": false,
      "t": 166641.8775000009,
      "d": 656.9325000000244,
      "v": 95
    },
    {
      "midi": 58,
      "hit": false,
      "t": 166860.8550000009,
      "d": 1751.8200000000652,
      "v": 95
    },
    {
      "midi": 46,
      "hit": false,
      "t": 167079.83250000092,
      "d": 656.9325000000244,
      "v": 95
    },
    {
      "midi": 75,
      "hit": false,
      "t": 167298.81000000093,
      "d": 218.97750000000815,
      "v": 95
    },
    {
      "midi": 53,
      "hit": false,
      "t": 167298.81000000093,
      "d": 656.9325000000244,
      "v": 95
    },
    {
      "midi": 41,
      "hit": false,
      "t": 167517.78750000094,
      "d": 656.9325000000244,
      "v": 95
    },
    {
      "midi": 74,
      "hit": false,
      "t": 167517.78750000094,
      "d": 1532.842500000057,
      "v": 95
    },
    {
      "midi": 50,
      "hit": false,
      "t": 167736.76500000095,
      "d": 656.9325000000244,
      "v": 95
    },
    {
      "midi": 53,
      "hit": false,
      "t": 167955.74250000095,
      "d": 656.9325000000244,
      "v": 95
    },
    {
      "midi": 39,
      "hit": false,
      "t": 168174.72000000096,
      "d": 1313.865000000049,
      "v": 95
    },
    {
      "midi": 46,
      "hit": false,
      "t": 168393.69750000097,
      "d": 437.9550000000163,
      "v": 95
    },
    {
      "midi": 51,
      "hit": false,
      "t": 168612.67500000098,
      "d": 437.9550000000163,
      "v": 95
    },
    {
      "midi": 46,
      "hit": false,
      "t": 168831.652500001,
      "d": 437.9550000000163,
      "v": 95
    },
    {
      "midi": 70,
      "hit": false,
      "t": 169050.630000001,
      "d": 875.9100000000326,
      "v": 95
    },
    {
      "midi": 51,
      "hit": false,
      "t": 169050.630000001,
      "d": 1313.865000000049,
      "v": 95
    },
    {
      "midi": 46,
      "hit": false,
      "t": 169269.607500001,
      "d": 437.9550000000163,
      "v": 95
    },
    {
      "midi": 39,
      "hit": false,
      "t": 169488.585000001,
      "d": 437.9550000000163,
      "v": 95
    },
    {
      "midi": 46,
      "hit": false,
      "t": 169707.56250000102,
      "d": 437.9550000000163,
      "v": 95
    },
    {
      "midi": 68,
      "hit": false,
      "t": 169926.54000000103,
      "d": 875.9100000000326,
      "v": 79
    },
    {
      "midi": 37,
      "hit": false,
      "t": 169926.54000000103,
      "d": 1313.865000000049,
      "v": 95
    },
    {
      "midi": 44,
      "hit": false,
      "t": 170145.51750000103,
      "d": 437.9550000000163,
      "v": 95
    },
    {
      "midi": 49,
      "hit": false,
      "t": 170364.49500000104,
      "d": 437.9550000000163,
      "v": 95
    },
    {
      "midi": 44,
      "hit": false,
      "t": 170583.47250000105,
      "d": 437.9550000000163,
      "v": 95
    },
    {
      "midi": 49,
      "hit": false,
      "t": 170802.45000000106,
      "d": 1313.865000000049,
      "v": 95
    },
    {
      "midi": 68,
      "hit": false,
      "t": 170802.45000000106,
      "d": 1751.8200000000652,
      "v": 79
    },
    {
      "midi": 44,
      "hit": false,
      "t": 171021.42750000107,
      "d": 437.9550000000163,
      "v": 95
    },
    {
      "midi": 37,
      "hit": false,
      "t": 171240.40500000108,
      "d": 437.9550000000163,
      "v": 95
    },
    {
      "midi": 44,
      "hit": false,
      "t": 171459.38250000108,
      "d": 437.9550000000163,
      "v": 95
    },
    {
      "midi": 35,
      "hit": false,
      "t": 171678.3600000011,
      "d": 1751.8200000000652,
      "v": 95
    },
    {
      "midi": 59,
      "hit": false,
      "t": 171678.3600000011,
      "d": 1751.8200000000652,
      "v": 95
    },
    {
      "midi": 42,
      "hit": false,
      "t": 171897.3375000011,
      "d": 875.9100000000326,
      "v": 95
    },
    {
      "midi": 47,
      "hit": false,
      "t": 172116.3150000011,
      "d": 218.97750000000815,
      "v": 95
    },
    {
      "midi": 51,
      "hit": false,
      "t": 172335.29250000112,
      "d": 218.97750000000815,
      "v": 95
    },
    {
      "midi": 47,
      "hit": false,
      "t": 172554.27000000112,
      "d": 437.9550000000163,
      "v": 95
    },
    {
      "midi": 42,
      "hit": false,
      "t": 172773.24750000113,
      "d": 437.9550000000163,
      "v": 95
    },
    {
      "midi": 47,
      "hit": false,
      "t": 172992.22500000114,
      "d": 875.9100000000326,
      "v": 95
    },
    {
      "midi": 42,
      "hit": false,
      "t": 173211.20250000115,
      "d": 437.9550000000163,
      "v": 95
    },
    {
      "midi": 35,
      "hit": false,
      "t": 173430.18000000116,
      "d": 1751.8200000000652,
      "v": 95
    },
    {
      "midi": 42,
      "hit": false,
      "t": 173649.15750000117,
      "d": 875.9100000000326,
      "v": 95
    },
    {
      "midi": 47,
      "hit": false,
      "t": 173868.13500000117,
      "d": 218.97750000000815,
      "v": 95
    },
    {
      "midi": 51,
      "hit": false,
      "t": 174087.11250000118,
      "d": 218.97750000000815,
      "v": 95
    },
    {
      "midi": 47,
      "hit": false,
      "t": 174306.0900000012,
      "d": 437.9550000000163,
      "v": 95
    },
    {
      "midi": 42,
      "hit": false,
      "t": 174525.0675000012,
      "d": 437.9550000000163,
      "v": 95
    },
    {
      "midi": 47,
      "hit": false,
      "t": 174744.0450000012,
      "d": 656.9325000000244,
      "v": 95
    },
    {
      "midi": 42,
      "hit": false,
      "t": 174963.0225000012,
      "d": 218.97750000000815,
      "v": 95
    },
    {
      "midi": 44,
      "hit": false,
      "t": 175182.00000000122,
      "d": 1751.8200000000652,
      "v": 95
    },
    {
      "midi": 51,
      "hit": false,
      "t": 175400.97750000123,
      "d": 875.9100000000326,
      "v": 95
    },
    {
      "midi": 56,
      "hit": false,
      "t": 175619.95500000124,
      "d": 437.9550000000163,
      "v": 95
    },
    {
      "midi": 59,
      "hit": false,
      "t": 175838.93250000125,
      "d": 656.9325000000244,
      "v": 95
    },
    {
      "midi": 56,
      "hit": false,
      "t": 176057.91000000125,
      "d": 656.9325000000244,
      "v": 95
    },
    {
      "midi": 51,
      "hit": false,
      "t": 176276.88750000126,
      "d": 875.9100000000326,
      "v": 95
    },
    {
      "midi": 59,
      "hit": false,
      "t": 176495.86500000127,
      "d": 1094.8875000000407,
      "v": 95
    },
    {
      "midi": 56,
      "hit": false,
      "t": 176714.84250000128,
      "d": 656.9325000000244,
      "v": 95
    },
    {
      "midi": 44,
      "hit": false,
      "t": 176933.8200000013,
      "d": 1751.8200000000652,
      "v": 95
    },
    {
      "midi": 51,
      "hit": false,
      "t": 177152.7975000013,
      "d": 875.9100000000326,
      "v": 95
    },
    {
      "midi": 56,
      "hit": false,
      "t": 177371.7750000013,
      "d": 437.9550000000163,
      "v": 95
    },
    {
      "midi": 59,
      "hit": false,
      "t": 177590.7525000013,
      "d": 656.9325000000244,
      "v": 95
    },
    {
      "midi": 56,
      "hit": false,
      "t": 177809.73000000132,
      "d": 656.9325000000244,
      "v": 95
    },
    {
      "midi": 51,
      "hit": false,
      "t": 178028.70750000133,
      "d": 656.9325000000244,
      "v": 95
    },
    {
      "midi": 59,
      "hit": false,
      "t": 178247.68500000134,
      "d": 437.9550000000163,
      "v": 95
    },
    {
      "midi": 56,
      "hit": false,
      "t": 178466.66250000134,
      "d": 218.97750000000815,
      "v": 95
    }
  ]
}