{
  "jsonPath": "Rock/Mexican Rock-And-Roll/Roberto Jordan/juntos-felices-happy-together.json",
  "path": "Rock\\Mexican Rock-And-Roll\\Roberto Jordan\\Juntos Felices (Happy Together).mid",
  "name": "Juntos Felices (Happy Together)",
  "difficulty": "Advanced",
  "bpm": 121.00213972117074,
  "notes": [
    {
      "midi": 49,
      "hit": false,
      "t": 3801.585666666667,
      "d": 191.11232291666693,
      "v": 127
    },
    {
      "midi": 54,
      "hit": false,
      "t": 3966.8720000000003,
      "d": 216.9383125000004,
      "v": 127
    },
    {
      "midi": 54,
      "hit": false,
      "t": 4462.731000000001,
      "d": 224.68610937500034,
      "v": 77
    },
    {
      "midi": 57,
      "hit": false,
      "t": 4462.731000000001,
      "d": 253.09469791666743,
      "v": 80
    },
    {
      "midi": 61,
      "hit": false,
      "t": 4462.731000000001,
      "d": 268.5902916666673,
      "v": 88
    },
    {
      "midi": 69,
      "hit": false,
      "t": 4462.731000000001,
      "d": 268.5902916666673,
      "v": 97
    },
    {
      "midi": 57,
      "hit": false,
      "t": 4958.590000000001,
      "d": 242.76430208333295,
      "v": 62
    },
    {
      "midi": 68,
      "hit": false,
      "t": 4958.590000000001,
      "d": 242.76430208333295,
      "v": 99
    },
    {
      "midi": 61,
      "hit": false,
      "t": 4958.590000000001,
      "d": 253.09469791666652,
      "v": 88
    },
    {
      "midi": 66,
      "hit": false,
      "t": 5289.162666666668,
      "d": 296.9988802083335,
      "v": 127
    },
    {
      "midi": 61,
      "hit": false,
      "t": 5289.162666666668,
      "d": 361.5638541666667,
      "v": 47
    },
    {
      "midi": 54,
      "hit": false,
      "t": 5289.162666666668,
      "d": 506.18939583333395,
      "v": 56
    },
    {
      "midi": 49,
      "hit": false,
      "t": 5785.021666666668,
      "d": 165.28633333333346,
      "v": 116
    },
    {
      "midi": 54,
      "hit": false,
      "t": 5950.308000000002,
      "d": 206.60791666666682,
      "v": 127
    },
    {
      "midi": 57,
      "hit": false,
      "t": 6446.167000000002,
      "d": 227.26870833333305,
      "v": 97
    },
    {
      "midi": 61,
      "hit": false,
      "t": 6446.167000000002,
      "d": 227.26870833333305,
      "v": 97
    },
    {
      "midi": 66,
      "hit": false,
      "t": 6446.167000000002,
      "d": 271.17289062500004,
      "v": 127
    },
    {
      "midi": 64,
      "hit": false,
      "t": 6942.026000000003,
      "d": 206.60791666666682,
      "v": 97
    },
    {
      "midi": 54,
      "hit": false,
      "t": 6942.026000000003,
      "d": 237.59910416666662,
      "v": 68
    },
    {
      "midi": 57,
      "hit": false,
      "t": 6942.026000000003,
      "d": 266.0076927083337,
      "v": 84
    },
    {
      "midi": 66,
      "hit": false,
      "t": 7272.5986666666695,
      "d": 219.5209114583331,
      "v": 127
    },
    {
      "midi": 54,
      "hit": false,
      "t": 7272.5986666666695,
      "d": 426.1288281249999,
      "v": 80
    },
    {
      "midi": 61,
      "hit": false,
      "t": 7272.5986666666695,
      "d": 426.1288281249999,
      "v": 88
    },
    {
      "midi": 57,
      "hit": false,
      "t": 7272.5986666666695,
      "d": 444.20702083333344,
      "v": 74
    },
    {
      "midi": 49,
      "hit": false,
      "t": 7768.45766666667,
      "d": 134.29514583333366,
      "v": 127
    },
    {
      "midi": 54,
      "hit": false,
      "t": 7933.744000000003,
      "d": 1.2912994791668098,
      "v": 127
    },
    {
      "midi": 57,
      "hit": false,
      "t": 7933.744000000003,
      "d": 162.70373437499984,
      "v": 99
    },
    {
      "midi": 61,
      "hit": false,
      "t": 7933.744000000003,
      "d": 165.28633333333346,
      "v": 108
    },
    {
      "midi": 54,
      "hit": false,
      "t": 8429.603000000003,
      "d": 180.78192708333336,
      "v": 88
    },
    {
      "midi": 61,
      "hit": false,
      "t": 8429.603000000003,
      "d": 191.11232291666602,
      "v": 92
    },
    {
      "midi": 57,
      "hit": false,
      "t": 8429.603000000003,
      "d": 198.86011979166688,
      "v": 88
    },
    {
      "midi": 69,
      "hit": false,
      "t": 8429.603000000003,
      "d": 258.25989583333285,
      "v": 108
    },
    {
      "midi": 54,
      "hit": false,
      "t": 8925.462000000003,
      "d": 198.86011979166688,
      "v": 88
    },
    {
      "midi": 68,
      "hit": false,
      "t": 8925.462000000003,
      "d": 198.86011979166688,
      "v": 116
    },
    {
      "midi": 57,
      "hit": false,
      "t": 8925.462000000003,
      "d": 204.02531770833411,
      "v": 88
    },
    {
      "midi": 61,
      "hit": false,
      "t": 8925.462000000003,
      "d": 204.02531770833411,
      "v": 99
    },
    {
      "midi": 66,
      "hit": false,
      "t": 9256.03466666667,
      "d": 320.24227083333426,
      "v": 127
    },
    {
      "midi": 54,
      "hit": false,
      "t": 9421.321000000004,
      "d": 170.4515312500007,
      "v": 84
    },
    {
      "midi": 57,
      "hit": false,
      "t": 9421.321000000004,
      "d": 193.69492187500146,
      "v": 84
    },
    {
      "midi": 61,
      "hit": false,
      "t": 9421.321000000004,
      "d": 204.02531770833411,
      "v": 97
    },
    {
      "midi": 49,
      "hit": false,
      "t": 9751.89366666667,
      "d": 183.36452604166516,
      "v": 127
    },
    {
      "midi": 54,
      "hit": false,
      "t": 9917.180000000004,
      "d": 1.2912994791659003,
      "v": 127
    },
    {
      "midi": 57,
      "hit": false,
      "t": 9917.180000000004,
      "d": 198.86011979166506,
      "v": 84
    },
    {
      "midi": 61,
      "hit": false,
      "t": 9917.180000000004,
      "d": 211.77311458333133,
      "v": 92
    },
    {
      "midi": 57,
      "hit": false,
      "t": 10413.039000000002,
      "d": 178.19932812499974,
      "v": 80
    },
    {
      "midi": 54,
      "hit": false,
      "t": 10413.039000000002,
      "d": 185.9471250000006,
      "v": 80
    },
    {
      "midi": 61,
      "hit": false,
      "t": 10413.039000000002,
      "d": 206.60791666666773,
      "v": 92
    },
    {
      "midi": 66,
      "hit": false,
      "t": 10413.039000000002,
      "d": 273.75548958333457,
      "v": 127
    },
    {
      "midi": 54,
      "hit": false,
      "t": 10908.898000000003,
      "d": 175.61672916666612,
      "v": 84
    },
    {
      "midi": 57,
      "hit": false,
      "t": 10908.898000000003,
      "d": 201.44271874999868,
      "v": 77
    },
    {
      "midi": 61,
      "hit": false,
      "t": 10908.898000000003,
      "d": 201.44271874999868,
      "v": 88
    },
    {
      "midi": 64,
      "hit": false,
      "t": 10908.898000000003,
      "d": 211.77311458333133,
      "v": 97
    },
    {
      "midi": 66,
      "hit": false,
      "t": 11239.470666666668,
      "d": 309.9118749999998,
      "v": 127
    },
    {
      "midi": 54,
      "hit": false,
      "t": 11404.757000000001,
      "d": 170.45153124999888,
      "v": 84
    },
    {
      "midi": 61,
      "hit": false,
      "t": 11404.757000000001,
      "d": 183.36452604166516,
      "v": 92
    },
    {
      "midi": 57,
      "hit": false,
      "t": 11404.757000000001,
      "d": 196.27752083333144,
      "v": 84
    },
    {
      "midi": 54,
      "hit": false,
      "t": 11900.616,
      "d": 173.0341302083325,
      "v": 92
    },
    {
      "midi": 57,
      "hit": false,
      "t": 11900.616,
      "d": 188.5297239583324,
      "v": 99
    },
    {
      "midi": 61,
      "hit": false,
      "t": 11900.616,
      "d": 204.0253177083323,
      "v": 97
    },
    {
      "midi": 54,
      "hit": false,
      "t": 12396.474999999999,
      "d": 167.86893229166708,
      "v": 80
    },
    {
      "midi": 57,
      "hit": false,
      "t": 12396.474999999999,
      "d": 196.27752083333326,
      "v": 92
    },
    {
      "midi": 61,
      "hit": false,
      "t": 12396.474999999999,
      "d": 211.77311458333315,
      "v": 99
    },
    {
      "midi": 54,
      "hit": false,
      "t": 12892.333999999999,
      "d": 154.9559375000008,
      "v": 92
    },
    {
      "midi": 57,
      "hit": false,
      "t": 12892.333999999999,
      "d": 175.61672916666794,
      "v": 97
    },
    {
      "midi": 61,
      "hit": false,
      "t": 12892.333999999999,
      "d": 196.27752083333507,
      "v": 97
    },
    {
      "midi": 54,
      "hit": false,
      "t": 13388.193000000001,
      "d": 165.28633333333346,
      "v": 84
    },
    {
      "midi": 57,
      "hit": false,
      "t": 13388.193000000001,
      "d": 175.61672916666612,
      "v": 84
    },
    {
      "midi": 61,
      "hit": false,
      "t": 13388.193000000001,
      "d": 193.69492187499964,
      "v": 88
    },
    {
      "midi": 54,
      "hit": false,
      "t": 13884.052000000001,
      "d": 165.28633333333346,
      "v": 99
    },
    {
      "midi": 57,
      "hit": false,
      "t": 13884.052000000001,
      "d": 165.28633333333346,
      "v": 108
    },
    {
      "midi": 61,
      "hit": false,
      "t": 13884.052000000001,
      "d": 196.27752083333326,
      "v": 92
    },
    {
      "midi": 54,
      "hit": false,
      "t": 14379.911000000002,
      "d": 178.19932812499974,
      "v": 88
    },
    {
      "midi": 57,
      "hit": false,
      "t": 14379.911000000002,
      "d": 204.0253177083323,
      "v": 88
    },
    {
      "midi": 61,
      "hit": false,
      "t": 14379.911000000002,
      "d": 214.35571354166495,
      "v": 92
    },
    {
      "midi": 54,
      "hit": false,
      "t": 14875.77,
      "d": 175.61672916666612,
      "v": 88
    },
    {
      "midi": 61,
      "hit": false,
      "t": 14875.77,
      "d": 196.27752083333326,
      "v": 97
    },
    {
      "midi": 57,
      "hit": false,
      "t": 14875.77,
      "d": 198.86011979166688,
      "v": 97
    },
    {
      "midi": 57,
      "hit": false,
      "t": 15371.629,
      "d": 113.63435416666653,
      "v": 97
    },
    {
      "midi": 54,
      "hit": false,
      "t": 15371.629,
      "d": 149.79073958333356,
      "v": 97
    },
    {
      "midi": 61,
      "hit": false,
      "t": 15371.629,
      "d": 165.28633333333346,
      "v": 99
    },
    {
      "midi": 56,
      "hit": false,
      "t": 15867.488000000001,
      "d": 180.78192708333336,
      "v": 99
    },
    {
      "midi": 52,
      "hit": false,
      "t": 15867.488000000001,
      "d": 188.52972395833422,
      "v": 88
    },
    {
      "midi": 59,
      "hit": false,
      "t": 15867.488000000001,
      "d": 193.69492187500146,
      "v": 99
    },
    {
      "midi": 59,
      "hit": false,
      "t": 16363.347000000003,
      "d": 175.61672916666612,
      "v": 88
    },
    {
      "midi": 56,
      "hit": false,
      "t": 16363.347000000003,
      "d": 227.26870833333123,
      "v": 92
    },
    {
      "midi": 52,
      "hit": false,
      "t": 16363.347000000003,
      "d": 242.76430208333295,
      "v": 84
    },
    {
      "midi": 56,
      "hit": false,
      "t": 16859.206000000002,
      "d": 175.61672916666794,
      "v": 99
    },
    {
      "midi": 59,
      "hit": false,
      "t": 16859.206000000002,
      "d": 175.61672916666794,
      "v": 92
    },
    {
      "midi": 52,
      "hit": false,
      "t": 16859.206000000002,
      "d": 206.60791666666773,
      "v": 88
    },
    {
      "midi": 56,
      "hit": false,
      "t": 17355.065000000002,
      "d": 183.36452604166698,
      "v": 92
    },
    {
      "midi": 59,
      "hit": false,
      "t": 17355.065000000002,
      "d": 193.69492187500146,
      "v": 88
    },
    {
      "midi": 52,
      "hit": false,
      "t": 17355.065000000002,
      "d": 201.4427187500005,
      "v": 80
    },
    {
      "midi": 56,
      "hit": false,
      "t": 17850.924000000003,
      "d": 160.12113541666622,
      "v": 97
    },
    {
      "midi": 59,
      "hit": false,
      "t": 17850.924000000003,
      "d": 167.86893229166526,
      "v": 88
    },
    {
      "midi": 52,
      "hit": false,
      "t": 17850.924000000003,
      "d": 173.0341302083325,
      "v": 84
    },
    {
      "midi": 56,
      "hit": false,
      "t": 18346.783000000003,
      "d": 175.61672916666794,
      "v": 99
    },
    {
      "midi": 52,
      "hit": false,
      "t": 18346.783000000003,
      "d": 193.69492187500146,
      "v": 88
    },
    {
      "midi": 59,
      "hit": false,
      "t": 18346.783000000003,
      "d": 193.69492187500146,
      "v": 97
    },
    {
      "midi": 56,
      "hit": false,
      "t": 18842.642000000003,
      "d": 183.36452604166698,
      "v": 97
    },
    {
      "midi": 52,
      "hit": false,
      "t": 18842.642000000003,
      "d": 188.52972395833422,
      "v": 80
    },
    {
      "midi": 59,
      "hit": false,
      "t": 18842.642000000003,
      "d": 206.60791666666773,
      "v": 80
    },
    {
      "midi": 56,
      "hit": false,
      "t": 19338.501000000004,
      "d": 152.37333854166718,
      "v": 99
    },
    {
      "midi": 59,
      "hit": false,
      "t": 19338.501000000004,
      "d": 152.37333854166718,
      "v": 88
    },
    {
      "midi": 52,
      "hit": false,
      "t": 19338.501000000004,
      "d": 188.52972395833422,
      "v": 88
    },
    {
      "midi": 54,
      "hit": false,
      "t": 19834.360000000004,
      "d": 175.61672916666794,
      "v": 97
    },
    {
      "midi": 50,
      "hit": false,
      "t": 19834.360000000004,
      "d": 201.4427187500005,
      "v": 84
    },
    {
      "midi": 57,
      "hit": false,
      "t": 19834.360000000004,
      "d": 214.35571354166677,
      "v": 88
    },
    {
      "midi": 54,
      "hit": false,
      "t": 20330.219000000005,
      "d": 193.69492187500146,
      "v": 92
    },
    {
      "midi": 50,
      "hit": false,
      "t": 20330.219000000005,
      "d": 198.8601197916687,
      "v": 77
    },
    {
      "midi": 57,
      "hit": false,
      "t": 20330.219000000005,
      "d": 209.19051562500317,
      "v": 88
    },
    {
      "midi": 54,
      "hit": false,
      "t": 20826.07800000001,
      "d": 173.0341302083325,
      "v": 88
    },
    {
      "midi": 57,
      "hit": false,
      "t": 20826.07800000001,
      "d": 188.52972395833422,
      "v": 84
    },
    {
      "midi": 50,
      "hit": false,
      "t": 20826.07800000001,
      "d": 196.27752083333326,
      "v": 80
    },
    {
      "midi": 54,
      "hit": false,
      "t": 21321.93700000001,
      "d": 175.61672916666794,
      "v": 84
    },
    {
      "midi": 50,
      "hit": false,
      "t": 21321.93700000001,
      "d": 206.60791666666773,
      "v": 77
    },
    {
      "midi": 57,
      "hit": false,
      "t": 21321.93700000001,
      "d": 216.9383125000022,
      "v": 88
    },
    {
      "midi": 54,
      "hit": false,
      "t": 21817.79600000001,
      "d": 178.19932812499974,
      "v": 88
    },
    {
      "midi": 57,
      "hit": false,
      "t": 21817.79600000001,
      "d": 209.19051562499953,
      "v": 88
    },
    {
      "midi": 50,
      "hit": false,
      "t": 21817.79600000001,
      "d": 216.93831249999857,
      "v": 80
    },
    {
      "midi": 54,
      "hit": false,
      "t": 22313.655000000006,
      "d": 160.12113541666622,
      "v": 92
    },
    {
      "midi": 50,
      "hit": false,
      "t": 22313.655000000006,
      "d": 175.61672916666794,
      "v": 80
    },
    {
      "midi": 57,
      "hit": false,
      "t": 22313.655000000006,
      "d": 196.27752083333326,
      "v": 92
    },
    {
      "midi": 54,
      "hit": false,
      "t": 22809.514000000006,
      "d": 178.19932812499974,
      "v": 97
    },
    {
      "midi": 50,
      "hit": false,
      "t": 22809.514000000006,
      "d": 196.27752083333326,
      "v": 80
    },
    {
      "midi": 57,
      "hit": false,
      "t": 22809.514000000006,
      "d": 214.35571354166677,
      "v": 88
    },
    {
      "midi": 50,
      "hit": false,
      "t": 23305.373000000007,
      "d": 165.28633333333346,
      "v": 84
    },
    {
      "midi": 54,
      "hit": false,
      "t": 23305.373000000007,
      "d": 173.0341302083325,
      "v": 97
    },
    {
      "midi": 57,
      "hit": false,
      "t": 23305.373000000007,
      "d": 173.0341302083325,
      "v": 92
    },
    {
      "midi": 49,
      "hit": false,
      "t": 23801.232000000007,
      "d": 149.79073958333174,
      "v": 127
    },
    {
      "midi": 53,
      "hit": false,
      "t": 23801.232000000007,
      "d": 154.95593749999898,
      "v": 97
    },
    {
      "midi": 56,
      "hit": false,
      "t": 23801.232000000007,
      "d": 165.28633333333346,
      "v": 97
    },
    {
      "midi": 53,
      "hit": false,
      "t": 24297.091000000008,
      "d": 154.95593749999898,
      "v": 88
    },
    {
      "midi": 49,
      "hit": false,
      "t": 24297.091000000008,
      "d": 170.4515312500007,
      "v": 97
    },
    {
      "midi": 56,
      "hit": false,
      "t": 24297.091000000008,
      "d": 185.94712500000242,
      "v": 92
    },
    {
      "midi": 49,
      "hit": false,
      "t": 24792.95000000001,
      "d": 175.61672916666794,
      "v": 88
    },
    {
      "midi": 53,
      "hit": false,
      "t": 24792.95000000001,
      "d": 178.19932812499974,
      "v": 84
    },
    {
      "midi": 56,
      "hit": false,
      "t": 24792.95000000001,
      "d": 178.19932812499974,
      "v": 84
    },
    {
      "midi": 49,
      "hit": false,
      "t": 25288.809000000012,
      "d": 180.78192708333154,
      "v": 92
    },
    {
      "midi": 56,
      "hit": false,
      "t": 25288.809000000012,
      "d": 180.78192708333154,
      "v": 80
    },
    {
      "midi": 53,
      "hit": false,
      "t": 25288.809000000012,
      "d": 193.69492187499782,
      "v": 84
    },
    {
      "midi": 49,
      "hit": false,
      "t": 25784.66800000001,
      "d": 165.28633333333346,
      "v": 92
    },
    {
      "midi": 53,
      "hit": false,
      "t": 25784.66800000001,
      "d": 170.4515312500007,
      "v": 92
    },
    {
      "midi": 56,
      "hit": false,
      "t": 25784.66800000001,
      "d": 188.52972395833422,
      "v": 97
    },
    {
      "midi": 49,
      "hit": false,
      "t": 26280.52700000001,
      "d": 185.94712499999878,
      "v": 88
    },
    {
      "midi": 53,
      "hit": false,
      "t": 26280.52700000001,
      "d": 185.94712499999878,
      "v": 92
    },
    {
      "midi": 56,
      "hit": false,
      "t": 26280.52700000001,
      "d": 198.86011979166506,
      "v": 84
    },
    {
      "midi": 49,
      "hit": false,
      "t": 26776.386000000006,
      "d": 175.61672916666794,
      "v": 88
    },
    {
      "midi": 56,
      "hit": false,
      "t": 26776.386000000006,
      "d": 183.36452604166698,
      "v": 84
    },
    {
      "midi": 53,
      "hit": false,
      "t": 26776.386000000006,
      "d": 188.52972395833422,
      "v": 92
    },
    {
      "midi": 53,
      "hit": false,
      "t": 27272.245000000006,
      "d": 123.96474999999919,
      "v": 99
    },
    {
      "midi": 49,
      "hit": false,
      "t": 27272.245000000006,
      "d": 134.29514583333366,
      "v": 99
    },
    {
      "midi": 56,
      "hit": false,
      "t": 27272.245000000006,
      "d": 160.12113541666622,
      "v": 88
    },
    {
      "midi": 54,
      "hit": false,
      "t": 27768.104000000007,
      "d": 173.0341302083325,
      "v": 92
    },
    {
      "midi": 57,
      "hit": false,
      "t": 27768.104000000007,
      "d": 188.52972395833422,
      "v": 99
    },
    {
      "midi": 61,
      "hit": false,
      "t": 27768.104000000007,
      "d": 204.02531770833593,
      "v": 97
    },
    {
      "midi": 73,
      "hit": false,
      "t": 27768.104000000007,
      "d": 989.1354010416726,
      "v": 116
    },
    {
      "midi": 54,
      "hit": false,
      "t": 28263.96300000001,
      "d": 167.86893229166526,
      "v": 80
    },
    {
      "midi": 57,
      "hit": false,
      "t": 28263.96300000001,
      "d": 196.27752083333326,
      "v": 92
    },
    {
      "midi": 61,
      "hit": false,
      "t": 28263.96300000001,
      "d": 211.77311458333497,
      "v": 99
    },
    {
      "midi": 54,
      "hit": false,
      "t": 28759.82200000001,
      "d": 154.95593749999898,
      "v": 92
    },
    {
      "midi": 57,
      "hit": false,
      "t": 28759.82200000001,
      "d": 175.6167291666643,
      "v": 97
    },
    {
      "midi": 61,
      "hit": false,
      "t": 28759.82200000001,
      "d": 196.27752083332962,
      "v": 97
    },
    {
      "midi": 71,
      "hit": false,
      "t": 28759.82200000001,
      "d": 940.066020833332,
      "v": 99
    },
    {
      "midi": 54,
      "hit": false,
      "t": 29255.681000000008,
      "d": 165.28633333333346,
      "v": 84
    },
    {
      "midi": 57,
      "hit": false,
      "t": 29255.681000000008,
      "d": 175.61672916666794,
      "v": 84
    },
    {
      "midi": 61,
      "hit": false,
      "t": 29255.681000000008,
      "d": 193.69492187500146,
      "v": 88
    },
    {
      "midi": 54,
      "hit": false,
      "t": 29751.540000000008,
      "d": 165.28633333333346,
      "v": 99
    },
    {
      "midi": 57,
      "hit": false,
      "t": 29751.540000000008,
      "d": 165.28633333333346,
      "v": 108
    },
    {
      "midi": 61,
      "hit": false,
      "t": 29751.540000000008,
      "d": 196.27752083333326,
      "v": 92
    },
    {
      "midi": 69,
      "hit": false,
      "t": 29751.540000000008,
      "d": 2006.6793906250023,
      "v": 99
    },
    {
      "midi": 54,
      "hit": false,
      "t": 30247.39900000001,
      "d": 178.19932812499974,
      "v": 88
    },
    {
      "midi": 57,
      "hit": false,
      "t": 30247.39900000001,
      "d": 204.0253177083323,
      "v": 88
    },
    {
      "midi": 61,
      "hit": false,
      "t": 30247.39900000001,
      "d": 214.35571354166677,
      "v": 92
    },
    {
      "midi": 73,
      "hit": false,
      "t": 30577.971666666675,
      "d": 206.60791666666773,
      "v": 108
    },
    {
      "midi": 54,
      "hit": false,
      "t": 30743.25800000001,
      "d": 175.61672916666794,
      "v": 88
    },
    {
      "midi": 61,
      "hit": false,
      "t": 30743.25800000001,
      "d": 196.27752083333326,
      "v": 97
    },
    {
      "midi": 57,
      "hit": false,
      "t": 30743.25800000001,
      "d": 198.86011979166506,
      "v": 97
    },
    {
      "midi": 81,
      "hit": false,
      "t": 30743.25800000001,
      "d": 284.0858854166654,
      "v": 88
    },
    {
      "midi": 78,
      "hit": false,
      "t": 30743.25800000001,
      "d": 320.24227083333244,
      "v": 99
    },
    {
      "midi": 73,
      "hit": false,
      "t": 31073.830666666676,
      "d": 209.19051562499953,
      "v": 116
    },
    {
      "midi": 57,
      "hit": false,
      "t": 31239.11700000001,
      "d": 113.6343541666647,
      "v": 97
    },
    {
      "midi": 54,
      "hit": false,
      "t": 31239.11700000001,
      "d": 149.79073958333174,
      "v": 97
    },
    {
      "midi": 61,
      "hit": false,
      "t": 31239.11700000001,
      "d": 165.28633333333346,
      "v": 99
    },
    {
      "midi": 78,
      "hit": false,
      "t": 31239.11700000001,
      "d": 418.38103124999907,
      "v": 99
    },
    {
      "midi": 81,
      "hit": false,
      "t": 31239.11700000001,
      "d": 436.4592239583326,
      "v": 88
    },
    {
      "midi": 56,
      "hit": false,
      "t": 31734.97600000001,
      "d": 180.78192708333518,
      "v": 99
    },
    {
      "midi": 52,
      "hit": false,
      "t": 31734.97600000001,
      "d": 188.52972395833422,
      "v": 88
    },
    {
      "midi": 59,
      "hit": false,
      "t": 31734.97600000001,
      "d": 193.69492187500146,
      "v": 99
    },
    {
      "midi": 71,
      "hit": false,
      "t": 31734.97600000001,
      "d": 976.2224062500027,
      "v": 99
    },
    {
      "midi": 59,
      "hit": false,
      "t": 32230.83500000001,
      "d": 175.61672916666794,
      "v": 88
    },
    {
      "midi": 56,
      "hit": false,
      "t": 32230.83500000001,
      "d": 227.26870833333305,
      "v": 92
    },
    {
      "midi": 52,
      "hit": false,
      "t": 32230.83500000001,
      "d": 242.76430208333477,
      "v": 84
    },
    {
      "midi": 56,
      "hit": false,
      "t": 32726.694000000014,
      "d": 175.61672916666794,
      "v": 99
    },
    {
      "midi": 59,
      "hit": false,
      "t": 32726.694000000014,
      "d": 175.61672916666794,
      "v": 92
    },
    {
      "midi": 52,
      "hit": false,
      "t": 32726.694000000014,
      "d": 206.60791666667137,
      "v": 88
    },
    {
      "midi": 69,
      "hit": false,
      "t": 32726.694000000014,
      "d": 1020.126588541676,
      "v": 99
    },
    {
      "midi": 56,
      "hit": false,
      "t": 33222.55300000002,
      "d": 183.36452604166698,
      "v": 92
    },
    {
      "midi": 59,
      "hit": false,
      "t": 33222.55300000002,
      "d": 193.69492187500146,
      "v": 88
    },
    {
      "midi": 52,
      "hit": false,
      "t": 33222.55300000002,
      "d": 201.44271875000413,
      "v": 80
    },
    {
      "midi": 56,
      "hit": false,
      "t": 33718.412000000026,
      "d": 160.12113541666622,
      "v": 97
    },
    {
      "midi": 59,
      "hit": false,
      "t": 33718.412000000026,
      "d": 167.8689322916689,
      "v": 88
    },
    {
      "midi": 52,
      "hit": false,
      "t": 33718.412000000026,
      "d": 173.0341302083325,
      "v": 84
    },
    {
      "midi": 68,
      "hit": false,
      "t": 33718.412000000026,
      "d": 1699.3501145833216,
      "v": 127
    },
    {
      "midi": 56,
      "hit": false,
      "t": 34214.27100000002,
      "d": 175.6167291666643,
      "v": 99
    },
    {
      "midi": 52,
      "hit": false,
      "t": 34214.27100000002,
      "d": 193.69492187499418,
      "v": 88
    },
    {
      "midi": 59,
      "hit": false,
      "t": 34214.27100000002,
      "d": 193.69492187499418,
      "v": 97
    },
    {
      "midi": 56,
      "hit": false,
      "t": 34710.13000000002,
      "d": 183.36452604166698,
      "v": 97
    },
    {
      "midi": 52,
      "hit": false,
      "t": 34710.13000000002,
      "d": 188.52972395833058,
      "v": 80
    },
    {
      "midi": 59,
      "hit": false,
      "t": 34710.13000000002,
      "d": 206.60791666666046,
      "v": 80
    },
    {
      "midi": 56,
      "hit": false,
      "t": 35205.989000000016,
      "d": 152.37333854166354,
      "v": 99
    },
    {
      "midi": 59,
      "hit": false,
      "t": 35205.989000000016,
      "d": 152.37333854166354,
      "v": 88
    },
    {
      "midi": 52,
      "hit": false,
      "t": 35205.989000000016,
      "d": 188.52972395833058,
      "v": 88
    },
    {
      "midi": 54,
      "hit": false,
      "t": 35701.84800000001,
      "d": 175.6167291666643,
      "v": 97
    },
    {
      "midi": 50,
      "hit": false,
      "t": 35701.84800000001,
      "d": 201.44271874999686,
      "v": 84
    },
    {
      "midi": 57,
      "hit": false,
      "t": 35701.84800000001,
      "d": 214.35571354166314,
      "v": 88
    },
    {
      "midi": 69,
      "hit": false,
      "t": 35701.84800000001,
      "d": 965.8920104166609,
      "v": 116
    },
    {
      "midi": 54,
      "hit": false,
      "t": 36197.70700000001,
      "d": 193.69492187500146,
      "v": 92
    },
    {
      "midi": 50,
      "hit": false,
      "t": 36197.70700000001,
      "d": 198.86011979166506,
      "v": 77
    },
    {
      "midi": 57,
      "hit": false,
      "t": 36197.70700000001,
      "d": 209.19051562499953,
      "v": 88
    },
    {
      "midi": 54,
      "hit": false,
      "t": 36693.566000000006,
      "d": 173.0341302083325,
      "v": 88
    },
    {
      "midi": 57,
      "hit": false,
      "t": 36693.566000000006,
      "d": 188.52972395833058,
      "v": 84
    },
    {
      "midi": 50,
      "hit": false,
      "t": 36693.566000000006,
      "d": 196.27752083333326,
      "v": 80
    },
    {
      "midi": 68,
      "hit": false,
      "t": 36693.566000000006,
      "d": 973.6398072916636,
      "v": 108
    },
    {
      "midi": 54,
      "hit": false,
      "t": 37189.425,
      "d": 175.6167291666643,
      "v": 84
    },
    {
      "midi": 50,
      "hit": false,
      "t": 37189.425,
      "d": 206.60791666666773,
      "v": 77
    },
    {
      "midi": 57,
      "hit": false,
      "t": 37189.425,
      "d": 216.9383125000022,
      "v": 88
    },
    {
      "midi": 54,
      "hit": false,
      "t": 37685.284,
      "d": 178.19932812500338,
      "v": 88
    },
    {
      "midi": 57,
      "hit": false,
      "t": 37685.284,
      "d": 209.1905156250068,
      "v": 88
    },
    {
      "midi": 50,
      "hit": false,
      "t": 37685.284,
      "d": 216.9383125000095,
      "v": 80
    },
    {
      "midi": 66,
      "hit": false,
      "t": 37685.284,
      "d": 1774.245484375002,
      "v": 108
    },
    {
      "midi": 54,
      "hit": false,
      "t": 38181.14300000001,
      "d": 160.12113541666622,
      "v": 92
    },
    {
      "midi": 50,
      "hit": false,
      "t": 38181.14300000001,
      "d": 175.6167291666643,
      "v": 80
    },
    {
      "midi": 57,
      "hit": false,
      "t": 38181.14300000001,
      "d": 196.27752083333326,
      "v": 92
    },
    {
      "midi": 54,
      "hit": false,
      "t": 38677.00200000001,
      "d": 178.19932812500338,
      "v": 97
    },
    {
      "midi": 50,
      "hit": false,
      "t": 38677.00200000001,
      "d": 196.27752083333326,
      "v": 80
    },
    {
      "midi": 57,
      "hit": false,
      "t": 38677.00200000001,
      "d": 214.35571354166314,
      "v": 88
    },
    {
      "midi": 50,
      "hit": false,
      "t": 39172.861000000004,
      "d": 165.28633333332982,
      "v": 84
    },
    {
      "midi": 54,
      "hit": false,
      "t": 39172.861000000004,
      "d": 173.0341302083325,
      "v": 97
    },
    {
      "midi": 57,
      "hit": false,
      "t": 39172.861000000004,
      "d": 173.0341302083325,
      "v": 92
    },
    {
      "midi": 49,
      "hit": false,
      "t": 39668.72,
      "d": 149.79073958333174,
      "v": 127
    },
    {
      "midi": 53,
      "hit": false,
      "t": 39668.72,
      "d": 154.95593749999534,
      "v": 97
    },
    {
      "midi": 56,
      "hit": false,
      "t": 39668.72,
      "d": 165.28633333332982,
      "v": 97
    },
    {
      "midi": 53,
      "hit": false,
      "t": 40164.579,
      "d": 154.95593750000262,
      "v": 88
    },
    {
      "midi": 49,
      "hit": false,
      "t": 40164.579,
      "d": 170.4515312500007,
      "v": 97
    },
    {
      "midi": 56,
      "hit": false,
      "t": 40164.579,
      "d": 185.94712499999878,
      "v": 92
    },
    {
      "midi": 49,
      "hit": false,
      "t": 40660.437999999995,
      "d": 175.6167291666643,
      "v": 88
    },
    {
      "midi": 53,
      "hit": false,
      "t": 40660.437999999995,
      "d": 178.1993281249961,
      "v": 84
    },
    {
      "midi": 56,
      "hit": false,
      "t": 40660.437999999995,
      "d": 178.1993281249961,
      "v": 84
    },
    {
      "midi": 49,
      "hit": false,
      "t": 41156.29699999999,
      "d": 180.78192708333518,
      "v": 92
    },
    {
      "midi": 56,
      "hit": false,
      "t": 41156.29699999999,
      "d": 180.78192708333518,
      "v": 80
    },
    {
      "midi": 53,
      "hit": false,
      "t": 41156.29699999999,
      "d": 193.69492187500146,
      "v": 84
    },
    {
      "midi": 49,
      "hit": false,
      "t": 41652.155999999995,
      "d": 165.28633333332982,
      "v": 92
    },
    {
      "midi": 53,
      "hit": false,
      "t": 41652.155999999995,
      "d": 170.45153124999342,
      "v": 92
    },
    {
      "midi": 56,
      "hit": false,
      "t": 41652.155999999995,
      "d": 188.5297239583233,
      "v": 97
    },
    {
      "midi": 49,
      "hit": false,
      "t": 42148.014999999985,
      "d": 185.94712499999878,
      "v": 88
    },
    {
      "midi": 53,
      "hit": false,
      "t": 42148.014999999985,
      "d": 185.94712499999878,
      "v": 92
    },
    {
      "midi": 56,
      "hit": false,
      "t": 42148.014999999985,
      "d": 198.86011979166506,
      "v": 84
    },
    {
      "midi": 49,
      "hit": false,
      "t": 42643.87399999998,
      "d": 175.6167291666643,
      "v": 88
    },
    {
      "midi": 56,
      "hit": false,
      "t": 42643.87399999998,
      "d": 183.36452604166698,
      "v": 84
    },
    {
      "midi": 53,
      "hit": false,
      "t": 42643.87399999998,
      "d": 188.52972395833058,
      "v": 92
    },
    {
      "midi": 53,
      "hit": false,
      "t": 43139.73299999998,
      "d": 123.96474999999919,
      "v": 99
    },
    {
      "midi": 49,
      "hit": false,
      "t": 43139.73299999998,
      "d": 134.29514583333366,
      "v": 99
    },
    {
      "midi": 56,
      "hit": false,
      "t": 43139.73299999998,
      "d": 160.12113541666622,
      "v": 88
    },
    {
      "midi": 66,
      "hit": false,
      "t": 43635.591999999975,
      "d": 1066.6133697916666,
      "v": 127
    },
    {
      "midi": 70,
      "hit": false,
      "t": 43635.591999999975,
      "d": 1095.021958333331,
      "v": 116
    },
    {
      "midi": 42,
      "hit": false,
      "t": 43635.591999999975,
      "d": 1107.9349531249973,
      "v": 127
    },
    {
      "midi": 61,
      "hit": false,
      "t": 43635.591999999975,
      "d": 1164.7521302083333,
      "v": 127
    },
    {
      "midi": 37,
      "hit": false,
      "t": 45619.02799999998,
      "d": 996.8831979166716,
      "v": 127
    },
    {
      "midi": 64,
      "hit": false,
      "t": 45619.02799999998,
      "d": 1033.0395833333387,
      "v": 116
    },
    {
      "midi": 61,
      "hit": false,
      "t": 45619.02799999998,
      "d": 1064.030770833342,
      "v": 116
    },
    {
      "midi": 68,
      "hit": false,
      "t": 45619.02799999998,
      "d": 1074.3611666666766,
      "v": 108
    },
    {
      "midi": 42,
      "hit": false,
      "t": 47602.463999999985,
      "d": 947.813817708331,
      "v": 127
    },
    {
      "midi": 66,
      "hit": false,
      "t": 47602.463999999985,
      "d": 960.7268124999973,
      "v": 127
    },
    {
      "midi": 70,
      "hit": false,
      "t": 47602.463999999985,
      "d": 965.8920104166609,
      "v": 127
    },
    {
      "midi": 61,
      "hit": false,
      "t": 47602.463999999985,
      "d": 1020.1265885416578,
      "v": 127
    },
    {
      "midi": 33,
      "hit": false,
      "t": 49585.89999999998,
      "d": 1203.491114583332,
      "v": 127
    },
    {
      "midi": 61,
      "hit": false,
      "t": 49585.89999999998,
      "d": 1218.9867083333302,
      "v": 108
    },
    {
      "midi": 64,
      "hit": false,
      "t": 49585.89999999998,
      "d": 1224.1519062499938,
      "v": 116
    },
    {
      "midi": 69,
      "hit": false,
      "t": 49585.89999999998,
      "d": 1224.1519062499938,
      "v": 108
    },
    {
      "midi": 42,
      "hit": false,
      "t": 51569.335999999974,
      "d": 1043.3699791666731,
      "v": 127
    },
    {
      "midi": 66,
      "hit": false,
      "t": 51569.335999999974,
      "d": 1043.3699791666731,
      "v": 127
    },
    {
      "midi": 70,
      "hit": false,
      "t": 51569.335999999974,
      "d": 1043.3699791666731,
      "v": 116
    },
    {
      "midi": 61,
      "hit": false,
      "t": 51569.335999999974,
      "d": 1373.94264583334,
      "v": 127
    },
    {
      "midi": 37,
      "hit": false,
      "t": 53552.771999999975,
      "d": 1022.7091875000042,
      "v": 127
    },
    {
      "midi": 64,
      "hit": false,
      "t": 53552.771999999975,
      "d": 1071.7785677083375,
      "v": 99
    },
    {
      "midi": 61,
      "hit": false,
      "t": 53552.771999999975,
      "d": 1087.2741614583356,
      "v": 108
    },
    {
      "midi": 68,
      "hit": false,
      "t": 53552.771999999975,
      "d": 1100.1871562500019,
      "v": 108
    },
    {
      "midi": 66,
      "hit": false,
      "t": 55536.20799999998,
      "d": 1002.0483958333352,
      "v": 127
    },
    {
      "midi": 70,
      "hit": false,
      "t": 55536.20799999998,
      "d": 1033.0395833333387,
      "v": 127
    },
    {
      "midi": 42,
      "hit": false,
      "t": 55536.20799999998,
      "d": 1040.7873802083413,
      "v": 127
    },
    {
      "midi": 61,
      "hit": false,
      "t": 55536.20799999998,
      "d": 1074.3611666666766,
      "v": 116
    },
    {
      "midi": 33,
      "hit": false,
      "t": 57519.643999999986,
      "d": 1792.3236770833319,
      "v": 116
    },
    {
      "midi": 64,
      "hit": false,
      "t": 57519.643999999986,
      "d": 1802.6540729166663,
      "v": 116
    },
    {
      "midi": 61,
      "hit": false,
      "t": 57519.643999999986,
      "d": 1812.9844687500008,
      "v": 127
    },
    {
      "midi": 69,
      "hit": false,
      "t": 57519.643999999986,
      "d": 1838.8104583333334,
      "v": 116
    },
    {
      "midi": 54,
      "hit": false,
      "t": 59503.07999999999,
      "d": 173.0341302083325,
      "v": 92
    },
    {
      "midi": 57,
      "hit": false,
      "t": 59503.07999999999,
      "d": 188.52972395833058,
      "v": 99
    },
    {
      "midi": 61,
      "hit": false,
      "t": 59503.07999999999,
      "d": 204.02531770832866,
      "v": 97
    },
    {
      "midi": 54,
      "hit": false,
      "t": 59998.938999999984,
      "d": 167.8689322916689,
      "v": 80
    },
    {
      "midi": 57,
      "hit": false,
      "t": 59998.938999999984,
      "d": 196.27752083333326,
      "v": 92
    },
    {
      "midi": 61,
      "hit": false,
      "t": 59998.938999999984,
      "d": 211.77311458333133,
      "v": 99
    },
    {
      "midi": 54,
      "hit": false,
      "t": 60494.79799999998,
      "d": 154.95593750000262,
      "v": 92
    },
    {
      "midi": 57,
      "hit": false,
      "t": 60494.79799999998,
      "d": 175.61672916667158,
      "v": 97
    },
    {
      "midi": 61,
      "hit": false,
      "t": 60494.79799999998,
      "d": 196.27752083334053,
      "v": 97
    },
    {
      "midi": 54,
      "hit": false,
      "t": 60990.656999999985,
      "d": 165.28633333332982,
      "v": 84
    },
    {
      "midi": 57,
      "hit": false,
      "t": 60990.656999999985,
      "d": 175.6167291666643,
      "v": 84
    },
    {
      "midi": 61,
      "hit": false,
      "t": 60990.656999999985,
      "d": 193.69492187499418,
      "v": 88
    },
    {
      "midi": 54,
      "hit": false,
      "t": 61486.51599999998,
      "d": 165.28633333332982,
      "v": 99
    },
    {
      "midi": 57,
      "hit": false,
      "t": 61486.51599999998,
      "d": 165.28633333332982,
      "v": 108
    },
    {
      "midi": 61,
      "hit": false,
      "t": 61486.51599999998,
      "d": 196.27752083333326,
      "v": 92
    },
    {
      "midi": 54,
      "hit": false,
      "t": 61982.37499999998,
      "d": 178.19932812500338,
      "v": 88
    },
    {
      "midi": 57,
      "hit": false,
      "t": 61982.37499999998,
      "d": 204.02531770833593,
      "v": 88
    },
    {
      "midi": 61,
      "hit": false,
      "t": 61982.37499999998,
      "d": 214.3557135416704,
      "v": 92
    },
    {
      "midi": 54,
      "hit": false,
      "t": 62478.23399999998,
      "d": 175.6167291666643,
      "v": 88
    },
    {
      "midi": 61,
      "hit": false,
      "t": 62478.23399999998,
      "d": 196.27752083333326,
      "v": 97
    },
    {
      "midi": 57,
      "hit": false,
      "t": 62478.23399999998,
      "d": 198.86011979166506,
      "v": 97
    },
    {
      "midi": 57,
      "hit": false,
      "t": 62974.09299999998,
      "d": 113.6343541666647,
      "v": 97
    },
    {
      "midi": 54,
      "hit": false,
      "t": 62974.09299999998,
      "d": 149.79073958333174,
      "v": 97
    },
    {
      "midi": 61,
      "hit": false,
      "t": 62974.09299999998,
      "d": 165.28633333332982,
      "v": 99
    },
    {
      "midi": 56,
      "hit": false,
      "t": 63469.951999999976,
      "d": 180.78192708333518,
      "v": 99
    },
    {
      "midi": 52,
      "hit": false,
      "t": 63469.951999999976,
      "d": 188.52972395833785,
      "v": 88
    },
    {
      "midi": 59,
      "hit": false,
      "t": 63469.951999999976,
      "d": 193.69492187500146,
      "v": 99
    },
    {
      "midi": 59,
      "hit": false,
      "t": 63965.81099999998,
      "d": 175.6167291666643,
      "v": 88
    },
    {
      "midi": 56,
      "hit": false,
      "t": 63965.81099999998,
      "d": 227.2687083333294,
      "v": 92
    },
    {
      "midi": 52,
      "hit": false,
      "t": 63965.81099999998,
      "d": 242.7643020833275,
      "v": 84
    },
    {
      "midi": 56,
      "hit": false,
      "t": 64461.66999999998,
      "d": 175.6167291666643,
      "v": 99
    },
    {
      "midi": 59,
      "hit": false,
      "t": 64461.66999999998,
      "d": 175.6167291666643,
      "v": 92
    },
    {
      "midi": 52,
      "hit": false,
      "t": 64461.66999999998,
      "d": 206.60791666666773,
      "v": 88
    },
    {
      "midi": 56,
      "hit": false,
      "t": 64957.52899999998,
      "d": 183.36452604166698,
      "v": 92
    },
    {
      "midi": 59,
      "hit": false,
      "t": 64957.52899999998,
      "d": 193.69492187500146,
      "v": 88
    },
    {
      "midi": 52,
      "hit": false,
      "t": 64957.52899999998,
      "d": 201.44271875000413,
      "v": 80
    },
    {
      "midi": 56,
      "hit": false,
      "t": 65453.387999999984,
      "d": 160.12113541666622,
      "v": 97
    },
    {
      "midi": 59,
      "hit": false,
      "t": 65453.387999999984,
      "d": 167.8689322916689,
      "v": 88
    },
    {
      "midi": 52,
      "hit": false,
      "t": 65453.387999999984,
      "d": 173.0341302083325,
      "v": 84
    },
    {
      "midi": 56,
      "hit": false,
      "t": 65949.24699999999,
      "d": 175.6167291666643,
      "v": 99
    },
    {
      "midi": 52,
      "hit": false,
      "t": 65949.24699999999,
      "d": 193.69492187499418,
      "v": 88
    },
    {
      "midi": 59,
      "hit": false,
      "t": 65949.24699999999,
      "d": 193.69492187499418,
      "v": 97
    },
    {
      "midi": 56,
      "hit": false,
      "t": 66445.10599999999,
      "d": 183.36452604166698,
      "v": 97
    },
    {
      "midi": 52,
      "hit": false,
      "t": 66445.10599999999,
      "d": 188.52972395833058,
      "v": 80
    },
    {
      "midi": 59,
      "hit": false,
      "t": 66445.10599999999,
      "d": 206.60791666666046,
      "v": 80
    },
    {
      "midi": 56,
      "hit": false,
      "t": 66940.96499999998,
      "d": 152.37333854167082,
      "v": 99
    },
    {
      "midi": 59,
      "hit": false,
      "t": 66940.96499999998,
      "d": 152.37333854167082,
      "v": 88
    },
    {
      "midi": 52,
      "hit": false,
      "t": 66940.96499999998,
      "d": 188.52972395833058,
      "v": 88
    },
    {
      "midi": 54,
      "hit": false,
      "t": 67436.82399999998,
      "d": 175.6167291666643,
      "v": 97
    },
    {
      "midi": 50,
      "hit": false,
      "t": 67436.82399999998,
      "d": 201.44271874999686,
      "v": 84
    },
    {
      "midi": 57,
      "hit": false,
      "t": 67436.82399999998,
      "d": 214.35571354166314,
      "v": 88
    },
    {
      "midi": 54,
      "hit": false,
      "t": 67932.68299999998,
      "d": 193.69492187499418,
      "v": 92
    },
    {
      "midi": 50,
      "hit": false,
      "t": 67932.68299999998,
      "d": 198.86011979165778,
      "v": 77
    },
    {
      "midi": 57,
      "hit": false,
      "t": 67932.68299999998,
      "d": 209.19051562498498,
      "v": 88
    },
    {
      "midi": 54,
      "hit": false,
      "t": 68428.54199999996,
      "d": 173.03413020833977,
      "v": 88
    },
    {
      "midi": 57,
      "hit": false,
      "t": 68428.54199999996,
      "d": 188.52972395834513,
      "v": 84
    },
    {
      "midi": 50,
      "hit": false,
      "t": 68428.54199999996,
      "d": 196.2775208333478,
      "v": 80
    },
    {
      "midi": 54,
      "hit": false,
      "t": 68924.40099999997,
      "d": 175.6167291666643,
      "v": 84
    },
    {
      "midi": 50,
      "hit": false,
      "t": 68924.40099999997,
      "d": 206.60791666666046,
      "v": 77
    },
    {
      "midi": 57,
      "hit": false,
      "t": 68924.40099999997,
      "d": 216.93831249998766,
      "v": 88
    },
    {
      "midi": 54,
      "hit": false,
      "t": 69420.25999999995,
      "d": 178.19932812500338,
      "v": 88
    },
    {
      "midi": 57,
      "hit": false,
      "t": 69420.25999999995,
      "d": 209.19051562499953,
      "v": 88
    },
    {
      "midi": 50,
      "hit": false,
      "t": 69420.25999999995,
      "d": 216.9383125000022,
      "v": 80
    },
    {
      "midi": 54,
      "hit": false,
      "t": 69916.11899999995,
      "d": 160.1211354166735,
      "v": 92
    },
    {
      "midi": 50,
      "hit": false,
      "t": 69916.11899999995,
      "d": 175.61672916667885,
      "v": 80
    },
    {
      "midi": 57,
      "hit": false,
      "t": 69916.11899999995,
      "d": 196.2775208333478,
      "v": 92
    },
    {
      "midi": 54,
      "hit": false,
      "t": 70411.97799999996,
      "d": 178.19932812500338,
      "v": 97
    },
    {
      "midi": 50,
      "hit": false,
      "t": 70411.97799999996,
      "d": 196.27752083333326,
      "v": 80
    },
    {
      "midi": 57,
      "hit": false,
      "t": 70411.97799999996,
      "d": 214.35571354166314,
      "v": 88
    },
    {
      "midi": 50,
      "hit": false,
      "t": 70907.83699999996,
      "d": 165.2863333333371,
      "v": 84
    },
    {
      "midi": 54,
      "hit": false,
      "t": 70907.83699999996,
      "d": 173.03413020833977,
      "v": 97
    },
    {
      "midi": 57,
      "hit": false,
      "t": 70907.83699999996,
      "d": 173.03413020833977,
      "v": 92
    },
    {
      "midi": 49,
      "hit": false,
      "t": 71403.69599999997,
      "d": 149.79073958333174,
      "v": 127
    },
    {
      "midi": 53,
      "hit": false,
      "t": 71403.69599999997,
      "d": 154.95593749999534,
      "v": 97
    },
    {
      "midi": 56,
      "hit": false,
      "t": 71403.69599999997,
      "d": 165.28633333332255,
      "v": 97
    },
    {
      "midi": 53,
      "hit": false,
      "t": 71899.55499999995,
      "d": 154.95593749999534,
      "v": 88
    },
    {
      "midi": 49,
      "hit": false,
      "t": 71899.55499999995,
      "d": 170.4515312500007,
      "v": 97
    },
    {
      "midi": 56,
      "hit": false,
      "t": 71899.55499999995,
      "d": 185.94712500000605,
      "v": 92
    },
    {
      "midi": 49,
      "hit": false,
      "t": 72395.41399999996,
      "d": 175.6167291666643,
      "v": 88
    },
    {
      "midi": 53,
      "hit": false,
      "t": 72395.41399999996,
      "d": 178.19932812500338,
      "v": 84
    },
    {
      "midi": 56,
      "hit": false,
      "t": 72395.41399999996,
      "d": 178.19932812500338,
      "v": 84
    },
    {
      "midi": 49,
      "hit": false,
      "t": 72891.27299999996,
      "d": 180.7819270833279,
      "v": 92
    },
    {
      "midi": 56,
      "hit": false,
      "t": 72891.27299999996,
      "d": 180.7819270833279,
      "v": 80
    },
    {
      "midi": 53,
      "hit": false,
      "t": 72891.27299999996,
      "d": 193.69492187499418,
      "v": 84
    },
    {
      "midi": 49,
      "hit": false,
      "t": 73387.13199999995,
      "d": 165.2863333333371,
      "v": 92
    },
    {
      "midi": 53,
      "hit": false,
      "t": 73387.13199999995,
      "d": 170.4515312500007,
      "v": 92
    },
    {
      "midi": 56,
      "hit": false,
      "t": 73387.13199999995,
      "d": 188.52972395833058,
      "v": 97
    },
    {
      "midi": 49,
      "hit": false,
      "t": 73882.99099999995,
      "d": 185.94712500000605,
      "v": 88
    },
    {
      "midi": 53,
      "hit": false,
      "t": 73882.99099999995,
      "d": 185.94712500000605,
      "v": 92
    },
    {
      "midi": 56,
      "hit": false,
      "t": 73882.99099999995,
      "d": 198.86011979167233,
      "v": 84
    },
    {
      "midi": 49,
      "hit": false,
      "t": 74378.84999999996,
      "d": 175.6167291666643,
      "v": 88
    },
    {
      "midi": 56,
      "hit": false,
      "t": 74378.84999999996,
      "d": 183.36452604166698,
      "v": 84
    },
    {
      "midi": 53,
      "hit": false,
      "t": 74378.84999999996,
      "d": 188.52972395833058,
      "v": 92
    },
    {
      "midi": 53,
      "hit": false,
      "t": 74874.70899999996,
      "d": 123.96474999999919,
      "v": 99
    },
    {
      "midi": 49,
      "hit": false,
      "t": 74874.70899999996,
      "d": 134.2951458333264,
      "v": 99
    },
    {
      "midi": 56,
      "hit": false,
      "t": 74874.70899999996,
      "d": 160.12113541665894,
      "v": 88
    },
    {
      "midi": 66,
      "hit": false,
      "t": 75370.56799999996,
      "d": 1066.6133697916666,
      "v": 127
    },
    {
      "midi": 70,
      "hit": false,
      "t": 75370.56799999996,
      "d": 1095.0219583333383,
      "v": 116
    },
    {
      "midi": 42,
      "hit": false,
      "t": 75370.56799999996,
      "d": 1107.9349531250045,
      "v": 127
    },
    {
      "midi": 61,
      "hit": false,
      "t": 75370.56799999996,
      "d": 1164.7521302083333,
      "v": 127
    },
    {
      "midi": 37,
      "hit": false,
      "t": 77354.00399999996,
      "d": 996.8831979166716,
      "v": 127
    },
    {
      "midi": 64,
      "hit": false,
      "t": 77354.00399999996,
      "d": 1033.0395833333314,
      "v": 116
    },
    {
      "midi": 61,
      "hit": false,
      "t": 77354.00399999996,
      "d": 1064.0307708333276,
      "v": 116
    },
    {
      "midi": 68,
      "hit": false,
      "t": 77354.00399999996,
      "d": 1074.3611666666548,
      "v": 108
    },
    {
      "midi": 42,
      "hit": false,
      "t": 79337.43999999994,
      "d": 947.813817708331,
      "v": 127
    },
    {
      "midi": 66,
      "hit": false,
      "t": 79337.43999999994,
      "d": 960.7268124999973,
      "v": 127
    },
    {
      "midi": 70,
      "hit": false,
      "t": 79337.43999999994,
      "d": 965.8920104166609,
      "v": 127
    },
    {
      "midi": 61,
      "hit": false,
      "t": 79337.43999999994,
      "d": 1020.1265885416651,
      "v": 127
    },
    {
      "midi": 33,
      "hit": false,
      "t": 81320.87599999995,
      "d": 1203.491114583332,
      "v": 127
    },
    {
      "midi": 61,
      "hit": false,
      "t": 81320.87599999995,
      "d": 1218.9867083333374,
      "v": 108
    },
    {
      "midi": 64,
      "hit": false,
      "t": 81320.87599999995,
      "d": 1224.151906250001,
      "v": 116
    },
    {
      "midi": 69,
      "hit": false,
      "t": 81320.87599999995,
      "d": 1224.151906250001,
      "v": 108
    },
    {
      "midi": 42,
      "hit": false,
      "t": 83304.31199999995,
      "d": 1043.3699791666731,
      "v": 127
    },
    {
      "midi": 66,
      "hit": false,
      "t": 83304.31199999995,
      "d": 1043.3699791666731,
      "v": 127
    },
    {
      "midi": 70,
      "hit": false,
      "t": 83304.31199999995,
      "d": 1043.3699791666731,
      "v": 116
    },
    {
      "midi": 61,
      "hit": false,
      "t": 83304.31199999995,
      "d": 1373.9426458333328,
      "v": 127
    },
    {
      "midi": 37,
      "hit": false,
      "t": 85287.74799999995,
      "d": 1022.7091874999896,
      "v": 127
    },
    {
      "midi": 64,
      "hit": false,
      "t": 85287.74799999995,
      "d": 1071.7785677083302,
      "v": 99
    },
    {
      "midi": 61,
      "hit": false,
      "t": 85287.74799999995,
      "d": 1087.2741614583356,
      "v": 108
    },
    {
      "midi": 68,
      "hit": false,
      "t": 85287.74799999995,
      "d": 1100.1871562500019,
      "v": 108
    },
    {
      "midi": 66,
      "hit": false,
      "t": 87271.18399999995,
      "d": 1002.0483958333207,
      "v": 127
    },
    {
      "midi": 70,
      "hit": false,
      "t": 87271.18399999995,
      "d": 1033.0395833333168,
      "v": 127
    },
    {
      "midi": 42,
      "hit": false,
      "t": 87271.18399999995,
      "d": 1040.7873802083195,
      "v": 127
    },
    {
      "midi": 61,
      "hit": false,
      "t": 87271.18399999995,
      "d": 1074.3611666666548,
      "v": 116
    },
    {
      "midi": 33,
      "hit": false,
      "t": 89254.61999999994,
      "d": 1792.3236770833319,
      "v": 116
    },
    {
      "midi": 64,
      "hit": false,
      "t": 89254.61999999994,
      "d": 1802.654072916659,
      "v": 116
    },
    {
      "midi": 61,
      "hit": false,
      "t": 89254.61999999994,
      "d": 1812.9844687499863,
      "v": 127
    },
    {
      "midi": 69,
      "hit": false,
      "t": 89254.61999999994,
      "d": 1838.8104583333188,
      "v": 116
    },
    {
      "midi": 54,
      "hit": false,
      "t": 91238.05599999992,
      "d": 173.03413020833977,
      "v": 92
    },
    {
      "midi": 57,
      "hit": false,
      "t": 91238.05599999992,
      "d": 188.52972395834513,
      "v": 99
    },
    {
      "midi": 61,
      "hit": false,
      "t": 91238.05599999992,
      "d": 204.02531770835049,
      "v": 97
    },
    {
      "midi": 54,
      "hit": false,
      "t": 91733.91499999994,
      "d": 167.86893229166162,
      "v": 80
    },
    {
      "midi": 57,
      "hit": false,
      "t": 91733.91499999994,
      "d": 196.27752083333326,
      "v": 92
    },
    {
      "midi": 61,
      "hit": false,
      "t": 91733.91499999994,
      "d": 211.7731145833386,
      "v": 99
    },
    {
      "midi": 54,
      "hit": false,
      "t": 92229.77399999995,
      "d": 154.95593749999534,
      "v": 92
    },
    {
      "midi": 57,
      "hit": false,
      "t": 92229.77399999995,
      "d": 175.6167291666643,
      "v": 97
    },
    {
      "midi": 61,
      "hit": false,
      "t": 92229.77399999995,
      "d": 196.27752083333326,
      "v": 97
    },
    {
      "midi": 54,
      "hit": false,
      "t": 92725.63299999994,
      "d": 165.2863333333371,
      "v": 84
    },
    {
      "midi": 57,
      "hit": false,
      "t": 92725.63299999994,
      "d": 175.6167291666643,
      "v": 84
    },
    {
      "midi": 61,
      "hit": false,
      "t": 92725.63299999994,
      "d": 193.69492187499418,
      "v": 88
    },
    {
      "midi": 54,
      "hit": false,
      "t": 93221.49199999994,
      "d": 165.2863333333371,
      "v": 99
    },
    {
      "midi": 57,
      "hit": false,
      "t": 93221.49199999994,
      "d": 165.2863333333371,
      "v": 108
    },
    {
      "midi": 61,
      "hit": false,
      "t": 93221.49199999994,
      "d": 196.27752083333326,
      "v": 92
    },
    {
      "midi": 54,
      "hit": false,
      "t": 93717.35099999994,
      "d": 178.19932812500338,
      "v": 88
    },
    {
      "midi": 57,
      "hit": false,
      "t": 93717.35099999994,
      "d": 204.02531770833593,
      "v": 88
    },
    {
      "midi": 61,
      "hit": false,
      "t": 93717.35099999994,
      "d": 214.35571354166314,
      "v": 92
    },
    {
      "midi": 54,
      "hit": false,
      "t": 94213.20999999993,
      "d": 175.6167291666643,
      "v": 88
    },
    {
      "midi": 61,
      "hit": false,
      "t": 94213.20999999993,
      "d": 196.27752083333326,
      "v": 97
    },
    {
      "midi": 57,
      "hit": false,
      "t": 94213.20999999993,
      "d": 198.86011979167233,
      "v": 97
    },
    {
      "midi": 57,
      "hit": false,
      "t": 94709.06899999994,
      "d": 113.63435416667198,
      "v": 97
    },
    {
      "midi": 54,
      "hit": false,
      "t": 94709.06899999994,
      "d": 149.79073958333174,
      "v": 97
    },
    {
      "midi": 61,
      "hit": false,
      "t": 94709.06899999994,
      "d": 165.2863333333371,
      "v": 99
    },
    {
      "midi": 56,
      "hit": false,
      "t": 95204.92799999994,
      "d": 180.7819270833279,
      "v": 99
    },
    {
      "midi": 52,
      "hit": false,
      "t": 95204.92799999994,
      "d": 188.52972395833058,
      "v": 88
    },
    {
      "midi": 59,
      "hit": false,
      "t": 95204.92799999994,
      "d": 193.69492187499418,
      "v": 99
    },
    {
      "midi": 59,
      "hit": false,
      "t": 95700.78699999994,
      "d": 175.6167291666643,
      "v": 88
    },
    {
      "midi": 56,
      "hit": false,
      "t": 95700.78699999994,
      "d": 227.2687083333294,
      "v": 92
    },
    {
      "midi": 52,
      "hit": false,
      "t": 95700.78699999994,
      "d": 242.76430208333477,
      "v": 84
    },
    {
      "midi": 56,
      "hit": false,
      "t": 96196.64599999994,
      "d": 175.6167291666643,
      "v": 99
    },
    {
      "midi": 59,
      "hit": false,
      "t": 96196.64599999994,
      "d": 175.6167291666643,
      "v": 92
    },
    {
      "midi": 52,
      "hit": false,
      "t": 96196.64599999994,
      "d": 206.60791666666046,
      "v": 88
    },
    {
      "midi": 56,
      "hit": false,
      "t": 96692.50499999993,
      "d": 183.36452604166698,
      "v": 92
    },
    {
      "midi": 59,
      "hit": false,
      "t": 96692.50499999993,
      "d": 193.69492187499418,
      "v": 88
    },
    {
      "midi": 52,
      "hit": false,
      "t": 96692.50499999993,
      "d": 201.44271874999686,
      "v": 80
    },
    {
      "midi": 56,
      "hit": false,
      "t": 97188.36399999993,
      "d": 160.1211354166735,
      "v": 97
    },
    {
      "midi": 59,
      "hit": false,
      "t": 97188.36399999993,
      "d": 167.86893229167617,
      "v": 88
    },
    {
      "midi": 52,
      "hit": false,
      "t": 97188.36399999993,
      "d": 173.03413020833977,
      "v": 84
    },
    {
      "midi": 56,
      "hit": false,
      "t": 97684.22299999994,
      "d": 175.6167291666643,
      "v": 99
    },
    {
      "midi": 52,
      "hit": false,
      "t": 97684.22299999994,
      "d": 193.69492187499418,
      "v": 88
    },
    {
      "midi": 59,
      "hit": false,
      "t": 97684.22299999994,
      "d": 193.69492187499418,
      "v": 97
    },
    {
      "midi": 56,
      "hit": false,
      "t": 98180.08199999994,
      "d": 183.36452604166698,
      "v": 97
    },
    {
      "midi": 52,
      "hit": false,
      "t": 98180.08199999994,
      "d": 188.52972395833058,
      "v": 80
    },
    {
      "midi": 59,
      "hit": false,
      "t": 98180.08199999994,
      "d": 206.60791666666046,
      "v": 80
    },
    {
      "midi": 56,
      "hit": false,
      "t": 98675.94099999993,
      "d": 152.37333854167082,
      "v": 99
    },
    {
      "midi": 59,
      "hit": false,
      "t": 98675.94099999993,
      "d": 152.37333854167082,
      "v": 88
    },
    {
      "midi": 52,
      "hit": false,
      "t": 98675.94099999993,
      "d": 188.52972395833058,
      "v": 88
    },
    {
      "midi": 54,
      "hit": false,
      "t": 99171.79999999993,
      "d": 175.6167291666643,
      "v": 97
    },
    {
      "midi": 50,
      "hit": false,
      "t": 99171.79999999993,
      "d": 201.44271874999686,
      "v": 84
    },
    {
      "midi": 57,
      "hit": false,
      "t": 99171.79999999993,
      "d": 214.35571354166314,
      "v": 88
    },
    {
      "midi": 54,
      "hit": false,
      "t": 99667.65899999993,
      "d": 193.69492187499418,
      "v": 92
    },
    {
      "midi": 50,
      "hit": false,
      "t": 99667.65899999993,
      "d": 198.86011979165778,
      "v": 77
    },
    {
      "midi": 57,
      "hit": false,
      "t": 99667.65899999993,
      "d": 209.19051562498498,
      "v": 88
    },
    {
      "midi": 54,
      "hit": false,
      "t": 100163.51799999991,
      "d": 173.03413020833977,
      "v": 88
    },
    {
      "midi": 57,
      "hit": false,
      "t": 100163.51799999991,
      "d": 188.52972395834513,
      "v": 84
    },
    {
      "midi": 50,
      "hit": false,
      "t": 100163.51799999991,
      "d": 196.2775208333478,
      "v": 80
    },
    {
      "midi": 54,
      "hit": false,
      "t": 100659.37699999992,
      "d": 175.6167291666643,
      "v": 84
    },
    {
      "midi": 50,
      "hit": false,
      "t": 100659.37699999992,
      "d": 206.60791666666046,
      "v": 77
    },
    {
      "midi": 57,
      "hit": false,
      "t": 100659.37699999992,
      "d": 216.93831249998766,
      "v": 88
    },
    {
      "midi": 54,
      "hit": false,
      "t": 101155.2359999999,
      "d": 178.19932812500338,
      "v": 88
    },
    {
      "midi": 57,
      "hit": false,
      "t": 101155.2359999999,
      "d": 209.19051562499953,
      "v": 88
    },
    {
      "midi": 50,
      "hit": false,
      "t": 101155.2359999999,
      "d": 216.9383125000022,
      "v": 80
    },
    {
      "midi": 54,
      "hit": false,
      "t": 101651.0949999999,
      "d": 160.1211354166735,
      "v": 92
    },
    {
      "midi": 50,
      "hit": false,
      "t": 101651.0949999999,
      "d": 175.61672916667885,
      "v": 80
    },
    {
      "midi": 57,
      "hit": false,
      "t": 101651.0949999999,
      "d": 196.2775208333478,
      "v": 92
    },
    {
      "midi": 54,
      "hit": false,
      "t": 102146.95399999991,
      "d": 178.19932812500338,
      "v": 97
    },
    {
      "midi": 50,
      "hit": false,
      "t": 102146.95399999991,
      "d": 196.27752083333326,
      "v": 80
    },
    {
      "midi": 57,
      "hit": false,
      "t": 102146.95399999991,
      "d": 214.35571354166314,
      "v": 88
    },
    {
      "midi": 50,
      "hit": false,
      "t": 102642.81299999991,
      "d": 165.2863333333371,
      "v": 84
    },
    {
      "midi": 54,
      "hit": false,
      "t": 102642.81299999991,
      "d": 173.03413020833977,
      "v": 97
    },
    {
      "midi": 57,
      "hit": false,
      "t": 102642.81299999991,
      "d": 173.03413020833977,
      "v": 92
    },
    {
      "midi": 49,
      "hit": false,
      "t": 103138.67199999992,
      "d": 149.79073958333174,
      "v": 127
    },
    {
      "midi": 53,
      "hit": false,
      "t": 103138.67199999992,
      "d": 154.95593749999534,
      "v": 97
    },
    {
      "midi": 56,
      "hit": false,
      "t": 103138.67199999992,
      "d": 165.28633333332255,
      "v": 97
    },
    {
      "midi": 53,
      "hit": false,
      "t": 103634.5309999999,
      "d": 154.95593749999534,
      "v": 88
    },
    {
      "midi": 49,
      "hit": false,
      "t": 103634.5309999999,
      "d": 170.4515312500007,
      "v": 97
    },
    {
      "midi": 56,
      "hit": false,
      "t": 103634.5309999999,
      "d": 185.94712500000605,
      "v": 92
    },
    {
      "midi": 49,
      "hit": false,
      "t": 104130.38999999991,
      "d": 175.6167291666643,
      "v": 88
    },
    {
      "midi": 53,
      "hit": false,
      "t": 104130.38999999991,
      "d": 178.19932812500338,
      "v": 84
    },
    {
      "midi": 56,
      "hit": false,
      "t": 104130.38999999991,
      "d": 178.19932812500338,
      "v": 84
    },
    {
      "midi": 49,
      "hit": false,
      "t": 104626.24899999991,
      "d": 180.7819270833279,
      "v": 92
    },
    {
      "midi": 56,
      "hit": false,
      "t": 104626.24899999991,
      "d": 180.7819270833279,
      "v": 80
    },
    {
      "midi": 53,
      "hit": false,
      "t": 104626.24899999991,
      "d": 193.69492187499418,
      "v": 84
    },
    {
      "midi": 49,
      "hit": false,
      "t": 105122.1079999999,
      "d": 165.2863333333371,
      "v": 92
    },
    {
      "midi": 53,
      "hit": false,
      "t": 105122.1079999999,
      "d": 170.4515312500007,
      "v": 92
    },
    {
      "midi": 56,
      "hit": false,
      "t": 105122.1079999999,
      "d": 188.52972395833058,
      "v": 97
    },
    {
      "midi": 49,
      "hit": false,
      "t": 105617.9669999999,
      "d": 185.94712500000605,
      "v": 88
    },
    {
      "midi": 53,
      "hit": false,
      "t": 105617.9669999999,
      "d": 185.94712500000605,
      "v": 92
    },
    {
      "midi": 56,
      "hit": false,
      "t": 105617.9669999999,
      "d": 198.86011979167233,
      "v": 84
    },
    {
      "midi": 49,
      "hit": false,
      "t": 106113.82599999991,
      "d": 175.6167291666643,
      "v": 88
    },
    {
      "midi": 56,
      "hit": false,
      "t": 106113.82599999991,
      "d": 183.36452604166698,
      "v": 84
    },
    {
      "midi": 53,
      "hit": false,
      "t": 106113.82599999991,
      "d": 188.52972395833058,
      "v": 92
    },
    {
      "midi": 53,
      "hit": false,
      "t": 106609.68499999991,
      "d": 123.96474999999919,
      "v": 99
    },
    {
      "midi": 49,
      "hit": false,
      "t": 106609.68499999991,
      "d": 134.2951458333264,
      "v": 99
    },
    {
      "midi": 56,
      "hit": false,
      "t": 106609.68499999991,
      "d": 160.12113541665894,
      "v": 88
    },
    {
      "midi": 66,
      "hit": false,
      "t": 107105.5439999999,
      "d": 1066.6133697916666,
      "v": 127
    },
    {
      "midi": 70,
      "hit": false,
      "t": 107105.5439999999,
      "d": 1095.0219583333383,
      "v": 116
    },
    {
      "midi": 42,
      "hit": false,
      "t": 107105.5439999999,
      "d": 1107.9349531250045,
      "v": 127
    },
    {
      "midi": 61,
      "hit": false,
      "t": 107105.5439999999,
      "d": 1164.7521302083333,
      "v": 127
    },
    {
      "midi": 37,
      "hit": false,
      "t": 109088.97999999991,
      "d": 996.8831979166716,
      "v": 127
    },
    {
      "midi": 64,
      "hit": false,
      "t": 109088.97999999991,
      "d": 1033.0395833333314,
      "v": 116
    },
    {
      "midi": 61,
      "hit": false,
      "t": 109088.97999999991,
      "d": 1064.0307708333276,
      "v": 116
    },
    {
      "midi": 68,
      "hit": false,
      "t": 109088.97999999991,
      "d": 1074.3611666666548,
      "v": 108
    },
    {
      "midi": 42,
      "hit": false,
      "t": 111072.4159999999,
      "d": 947.813817708331,
      "v": 127
    },
    {
      "midi": 66,
      "hit": false,
      "t": 111072.4159999999,
      "d": 960.7268124999973,
      "v": 127
    },
    {
      "midi": 70,
      "hit": false,
      "t": 111072.4159999999,
      "d": 965.8920104166609,
      "v": 127
    },
    {
      "midi": 61,
      "hit": false,
      "t": 111072.4159999999,
      "d": 1020.1265885416651,
      "v": 127
    },
    {
      "midi": 33,
      "hit": false,
      "t": 113055.8519999999,
      "d": 1203.491114583332,
      "v": 127
    },
    {
      "midi": 61,
      "hit": false,
      "t": 113055.8519999999,
      "d": 1218.9867083333374,
      "v": 108
    },
    {
      "midi": 64,
      "hit": false,
      "t": 113055.8519999999,
      "d": 1224.151906250001,
      "v": 116
    },
    {
      "midi": 69,
      "hit": false,
      "t": 113055.8519999999,
      "d": 1224.151906250001,
      "v": 108
    },
    {
      "midi": 42,
      "hit": false,
      "t": 115039.2879999999,
      "d": 1043.3699791666731,
      "v": 127
    },
    {
      "midi": 66,
      "hit": false,
      "t": 115039.2879999999,
      "d": 1043.3699791666731,
      "v": 127
    },
    {
      "midi": 70,
      "hit": false,
      "t": 115039.2879999999,
      "d": 1043.3699791666731,
      "v": 116
    },
    {
      "midi": 61,
      "hit": false,
      "t": 115039.2879999999,
      "d": 1373.9426458333328,
      "v": 127
    },
    {
      "midi": 37,
      "hit": false,
      "t": 117022.7239999999,
      "d": 1022.7091874999896,
      "v": 127
    },
    {
      "midi": 64,
      "hit": false,
      "t": 117022.7239999999,
      "d": 1071.7785677083302,
      "v": 99
    },
    {
      "midi": 61,
      "hit": false,
      "t": 117022.7239999999,
      "d": 1087.2741614583356,
      "v": 108
    },
    {
      "midi": 68,
      "hit": false,
      "t": 117022.7239999999,
      "d": 1100.1871562500019,
      "v": 108
    },
    {
      "midi": 54,
      "hit": false,
      "t": 119006.1599999999,
      "d": 1441.0902187500033,
      "v": 127
    },
    {
      "midi": 58,
      "hit": false,
      "t": 119006.1599999999,
      "d": 1441.0902187500033,
      "v": 116
    },
    {
      "midi": 66,
      "hit": false,
      "t": 119006.1599999999,
      "d": 1448.838015625006,
      "v": 127
    },
    {
      "midi": 49,
      "hit": false,
      "t": 119006.1599999999,
      "d": 1454.0032135416695,
      "v": 127
    },
    {
      "midi": 70,
      "hit": false,
      "t": 119006.1599999999,
      "d": 1456.5858125000086,
      "v": 127
    },
    {
      "midi": 61,
      "hit": false,
      "t": 119006.1599999999,
      "d": 1510.8203906250128,
      "v": 127
    },
    {
      "midi": 56,
      "hit": false,
      "t": 120989.59599999992,
      "d": 3558.821364583331,
      "v": 99
    },
    {
      "midi": 52,
      "hit": false,
      "t": 120989.59599999992,
      "d": 3569.1517604166584,
      "v": 99
    },
    {
      "midi": 49,
      "hit": false,
      "t": 120989.59599999992,
      "d": 3582.0647552083246,
      "v": 116
    },
    {
      "midi": 61,
      "hit": false,
      "t": 120989.59599999992,
      "d": 3589.8125520833273,
      "v": 127
    },
    {
      "midi": 64,
      "hit": false,
      "t": 120989.59599999992,
      "d": 3592.3951510416664,
      "v": 116
    },
    {
      "midi": 68,
      "hit": false,
      "t": 120989.59599999992,
      "d": 3615.63854166666,
      "v": 127
    },
    {
      "midi": 54,
      "hit": false,
      "t": 125948.18599999991,
      "d": 154.95593749999534,
      "v": 92
    },
    {
      "midi": 57,
      "hit": false,
      "t": 125948.18599999991,
      "d": 175.6167291666643,
      "v": 97
    },
    {
      "midi": 61,
      "hit": false,
      "t": 125948.18599999991,
      "d": 196.27752083333326,
      "v": 97
    },
    {
      "midi": 54,
      "hit": false,
      "t": 126444.04499999991,
      "d": 165.2863333333371,
      "v": 84
    },
    {
      "midi": 57,
      "hit": false,
      "t": 126444.04499999991,
      "d": 175.6167291666643,
      "v": 84
    },
    {
      "midi": 61,
      "hit": false,
      "t": 126444.04499999991,
      "d": 193.69492187499418,
      "v": 88
    },
    {
      "midi": 54,
      "hit": false,
      "t": 126939.90399999991,
      "d": 165.2863333333371,
      "v": 99
    },
    {
      "midi": 57,
      "hit": false,
      "t": 126939.90399999991,
      "d": 165.2863333333371,
      "v": 108
    },
    {
      "midi": 61,
      "hit": false,
      "t": 126939.90399999991,
      "d": 196.27752083333326,
      "v": 92
    },
    {
      "midi": 54,
      "hit": false,
      "t": 127435.7629999999,
      "d": 178.19932812500338,
      "v": 88
    },
    {
      "midi": 57,
      "hit": false,
      "t": 127435.7629999999,
      "d": 204.02531770833593,
      "v": 88
    },
    {
      "midi": 61,
      "hit": false,
      "t": 127435.7629999999,
      "d": 214.35571354166314,
      "v": 92
    },
    {
      "midi": 54,
      "hit": false,
      "t": 127931.6219999999,
      "d": 175.6167291666643,
      "v": 88
    },
    {
      "midi": 61,
      "hit": false,
      "t": 127931.6219999999,
      "d": 196.27752083333326,
      "v": 97
    },
    {
      "midi": 57,
      "hit": false,
      "t": 127931.6219999999,
      "d": 198.86011979167233,
      "v": 97
    },
    {
      "midi": 57,
      "hit": false,
      "t": 128427.48099999991,
      "d": 113.63435416667198,
      "v": 97
    },
    {
      "midi": 54,
      "hit": false,
      "t": 128427.48099999991,
      "d": 149.79073958333174,
      "v": 97
    },
    {
      "midi": 61,
      "hit": false,
      "t": 128427.48099999991,
      "d": 165.2863333333371,
      "v": 99
    },
    {
      "midi": 56,
      "hit": false,
      "t": 128923.33999999991,
      "d": 180.7819270833279,
      "v": 99
    },
    {
      "midi": 52,
      "hit": false,
      "t": 128923.33999999991,
      "d": 188.52972395833058,
      "v": 88
    },
    {
      "midi": 59,
      "hit": false,
      "t": 128923.33999999991,
      "d": 193.69492187499418,
      "v": 99
    },
    {
      "midi": 59,
      "hit": false,
      "t": 129419.1989999999,
      "d": 175.6167291666643,
      "v": 88
    },
    {
      "midi": 56,
      "hit": false,
      "t": 129419.1989999999,
      "d": 227.2687083333294,
      "v": 92
    },
    {
      "midi": 52,
      "hit": false,
      "t": 129419.1989999999,
      "d": 242.76430208333477,
      "v": 84
    },
    {
      "midi": 56,
      "hit": false,
      "t": 129915.0579999999,
      "d": 175.6167291666643,
      "v": 99
    },
    {
      "midi": 59,
      "hit": false,
      "t": 129915.0579999999,
      "d": 175.6167291666643,
      "v": 92
    },
    {
      "midi": 52,
      "hit": false,
      "t": 129915.0579999999,
      "d": 206.60791666666046,
      "v": 88
    },
    {
      "midi": 56,
      "hit": false,
      "t": 130410.9169999999,
      "d": 183.36452604166698,
      "v": 92
    },
    {
      "midi": 59,
      "hit": false,
      "t": 130410.9169999999,
      "d": 193.69492187499418,
      "v": 88
    },
    {
      "midi": 52,
      "hit": false,
      "t": 130410.9169999999,
      "d": 201.44271874999686,
      "v": 80
    },
    {
      "midi": 56,
      "hit": false,
      "t": 130906.7759999999,
      "d": 160.1211354166735,
      "v": 97
    },
    {
      "midi": 59,
      "hit": false,
      "t": 130906.7759999999,
      "d": 167.86893229166162,
      "v": 88
    },
    {
      "midi": 52,
      "hit": false,
      "t": 130906.7759999999,
      "d": 173.03413020833977,
      "v": 84
    },
    {
      "midi": 56,
      "hit": false,
      "t": 131402.6349999999,
      "d": 175.61672916667885,
      "v": 99
    },
    {
      "midi": 52,
      "hit": false,
      "t": 131402.6349999999,
      "d": 193.69492187502328,
      "v": 88
    },
    {
      "midi": 59,
      "hit": false,
      "t": 131402.6349999999,
      "d": 193.69492187502328,
      "v": 97
    },
    {
      "midi": 56,
      "hit": false,
      "t": 131898.49399999992,
      "d": 183.36452604166698,
      "v": 97
    },
    {
      "midi": 52,
      "hit": false,
      "t": 131898.49399999992,
      "d": 188.52972395834513,
      "v": 80
    },
    {
      "midi": 59,
      "hit": false,
      "t": 131898.49399999992,
      "d": 206.60791666668956,
      "v": 80
    },
    {
      "midi": 56,
      "hit": false,
      "t": 132394.35299999994,
      "d": 152.37333854165627,
      "v": 99
    },
    {
      "midi": 59,
      "hit": false,
      "t": 132394.35299999994,
      "d": 152.37333854165627,
      "v": 88
    },
    {
      "midi": 52,
      "hit": false,
      "t": 132394.35299999994,
      "d": 188.52972395831603,
      "v": 88
    },
    {
      "midi": 54,
      "hit": false,
      "t": 132890.21199999994,
      "d": 175.61672916667885,
      "v": 97
    },
    {
      "midi": 50,
      "hit": false,
      "t": 132890.21199999994,
      "d": 201.4427187500114,
      "v": 84
    },
    {
      "midi": 57,
      "hit": false,
      "t": 132890.21199999994,
      "d": 214.3557135416777,
      "v": 88
    },
    {
      "midi": 54,
      "hit": false,
      "t": 133386.07099999994,
      "d": 193.69492187499418,
      "v": 92
    },
    {
      "midi": 50,
      "hit": false,
      "t": 133386.07099999994,
      "d": 198.86011979167233,
      "v": 77
    },
    {
      "midi": 57,
      "hit": false,
      "t": 133386.07099999994,
      "d": 209.19051562499953,
      "v": 88
    },
    {
      "midi": 54,
      "hit": false,
      "t": 133881.92999999993,
      "d": 173.03413020833977,
      "v": 88
    },
    {
      "midi": 57,
      "hit": false,
      "t": 133881.92999999993,
      "d": 188.52972395834513,
      "v": 84
    },
    {
      "midi": 50,
      "hit": false,
      "t": 133881.92999999993,
      "d": 196.27752083333326,
      "v": 80
    },
    {
      "midi": 54,
      "hit": false,
      "t": 134377.78899999993,
      "d": 175.61672916667885,
      "v": 84
    },
    {
      "midi": 50,
      "hit": false,
      "t": 134377.78899999993,
      "d": 206.60791666668956,
      "v": 77
    },
    {
      "midi": 57,
      "hit": false,
      "t": 134377.78899999993,
      "d": 216.93831250001676,
      "v": 88
    },
    {
      "midi": 54,
      "hit": false,
      "t": 134873.64799999996,
      "d": 178.19932812498882,
      "v": 88
    },
    {
      "midi": 57,
      "hit": false,
      "t": 134873.64799999996,
      "d": 209.19051562499953,
      "v": 88
    },
    {
      "midi": 50,
      "hit": false,
      "t": 134873.64799999996,
      "d": 216.93831249998766,
      "v": 80
    },
    {
      "midi": 54,
      "hit": false,
      "t": 135369.50699999995,
      "d": 160.1211354166735,
      "v": 92
    },
    {
      "midi": 50,
      "hit": false,
      "t": 135369.50699999995,
      "d": 175.61672916667885,
      "v": 80
    },
    {
      "midi": 57,
      "hit": false,
      "t": 135369.50699999995,
      "d": 196.27752083333326,
      "v": 92
    },
    {
      "midi": 54,
      "hit": false,
      "t": 135865.36599999995,
      "d": 178.19932812498882,
      "v": 97
    },
    {
      "midi": 50,
      "hit": false,
      "t": 135865.36599999995,
      "d": 196.27752083333326,
      "v": 80
    },
    {
      "midi": 57,
      "hit": false,
      "t": 135865.36599999995,
      "d": 214.3557135416777,
      "v": 88
    },
    {
      "midi": 50,
      "hit": false,
      "t": 136361.22499999995,
      "d": 165.28633333332255,
      "v": 84
    },
    {
      "midi": 54,
      "hit": false,
      "t": 136361.22499999995,
      "d": 173.03413020831067,
      "v": 97
    },
    {
      "midi": 57,
      "hit": false,
      "t": 136361.22499999995,
      "d": 173.03413020831067,
      "v": 92
    },
    {
      "midi": 49,
      "hit": false,
      "t": 136857.08399999992,
      "d": 149.7907395833463,
      "v": 127
    },
    {
      "midi": 53,
      "hit": false,
      "t": 136857.08399999992,
      "d": 154.95593750002445,
      "v": 97
    },
    {
      "midi": 56,
      "hit": false,
      "t": 136857.08399999992,
      "d": 165.28633333335165,
      "v": 97
    },
    {
      "midi": 53,
      "hit": false,
      "t": 137352.94299999994,
      "d": 154.95593749999534,
      "v": 88
    },
    {
      "midi": 49,
      "hit": false,
      "t": 137352.94299999994,
      "d": 170.4515312500007,
      "v": 97
    },
    {
      "midi": 56,
      "hit": false,
      "t": 137352.94299999994,
      "d": 185.94712500000605,
      "v": 92
    },
    {
      "midi": 49,
      "hit": false,
      "t": 137848.80199999994,
      "d": 175.61672916667885,
      "v": 88
    },
    {
      "midi": 53,
      "hit": false,
      "t": 137848.80199999994,
      "d": 178.19932812501793,
      "v": 84
    },
    {
      "midi": 56,
      "hit": false,
      "t": 137848.80199999994,
      "d": 178.19932812501793,
      "v": 84
    },
    {
      "midi": 61,
      "hit": false,
      "t": 137848.80199999994,
      "d": 333.15526562501327,
      "v": 127
    },
    {
      "midi": 65,
      "hit": false,
      "t": 137848.80199999994,
      "d": 392.5550416666665,
      "v": 127
    },
    {
      "midi": 63,
      "hit": false,
      "t": 138220.69624999995,
      "d": 322.82486979165697,
      "v": 101
    },
    {
      "midi": 66,
      "hit": false,
      "t": 138220.69624999995,
      "d": 361.5638541666558,
      "v": 127
    },
    {
      "midi": 49,
      "hit": false,
      "t": 138344.66099999993,
      "d": 180.7819270833279,
      "v": 92
    },
    {
      "midi": 56,
      "hit": false,
      "t": 138344.66099999993,
      "d": 180.7819270833279,
      "v": 80
    },
    {
      "midi": 53,
      "hit": false,
      "t": 138344.66099999993,
      "d": 193.69492187499418,
      "v": 84
    },
    {
      "midi": 68,
      "hit": false,
      "t": 138592.59049999993,
      "d": 309.9118749999907,
      "v": 120
    },
    {
      "midi": 65,
      "hit": false,
      "t": 138592.59049999993,
      "d": 369.3116510416439,
      "v": 120
    },
    {
      "midi": 49,
      "hit": false,
      "t": 138840.51999999993,
      "d": 126.54734895832371,
      "v": 97
    },
    {
      "midi": 54,
      "hit": false,
      "t": 138840.51999999993,
      "d": 173.03413020831067,
      "v": 92
    },
    {
      "midi": 57,
      "hit": false,
      "t": 138840.51999999993,
      "d": 196.27752083330415,
      "v": 88
    },
    {
      "midi": 66,
      "hit": false,
      "t": 138840.51999999993,
      "d": 1632.2025416666584,
      "v": 124
    },
    {
      "midi": 69,
      "hit": false,
      "t": 138840.51999999993,
      "d": 1673.5241249999672,
      "v": 127
    },
    {
      "midi": 49,
      "hit": false,
      "t": 139336.3789999999,
      "d": 144.62554166666814,
      "v": 99
    },
    {
      "midi": 54,
      "hit": false,
      "t": 139336.3789999999,
      "d": 152.37333854165627,
      "v": 99
    },
    {
      "midi": 57,
      "hit": false,
      "t": 139336.3789999999,
      "d": 152.37333854165627,
      "v": 97
    },
    {
      "midi": 49,
      "hit": false,
      "t": 139832.2379999999,
      "d": 162.70373437501257,
      "v": 97
    },
    {
      "midi": 54,
      "hit": false,
      "t": 139832.2379999999,
      "d": 191.1123229166842,
      "v": 97
    },
    {
      "midi": 57,
      "hit": false,
      "t": 139832.2379999999,
      "d": 235.0165052083612,
      "v": 88
    },
    {
      "midi": 54,
      "hit": false,
      "t": 140328.09699999992,
      "d": 144.62554166666814,
      "v": 99
    },
    {
      "midi": 57,
      "hit": false,
      "t": 140328.09699999992,
      "d": 152.37333854165627,
      "v": 97
    },
    {
      "midi": 49,
      "hit": false,
      "t": 140328.09699999992,
      "d": 185.94712499997695,
      "v": 99
    },
    {
      "midi": 49,
      "hit": false,
      "t": 140823.9559999999,
      "d": 167.86893229166162,
      "v": 108
    },
    {
      "midi": 53,
      "hit": false,
      "t": 140823.9559999999,
      "d": 173.03413020833977,
      "v": 99
    },
    {
      "midi": 56,
      "hit": false,
      "t": 140823.9559999999,
      "d": 183.36452604166698,
      "v": 108
    },
    {
      "midi": 53,
      "hit": false,
      "t": 141319.8149999999,
      "d": 154.95593749999534,
      "v": 99
    },
    {
      "midi": 49,
      "hit": false,
      "t": 141319.8149999999,
      "d": 180.7819270833279,
      "v": 108
    },
    {
      "midi": 56,
      "hit": false,
      "t": 141319.8149999999,
      "d": 185.94712500000605,
      "v": 108
    },
    {
      "midi": 49,
      "hit": false,
      "t": 141815.67399999988,
      "d": 175.61672916667885,
      "v": 99
    },
    {
      "midi": 53,
      "hit": false,
      "t": 141815.67399999988,
      "d": 175.61672916667885,
      "v": 99
    },
    {
      "midi": 56,
      "hit": false,
      "t": 141815.67399999988,
      "d": 198.86011979167233,
      "v": 97
    },
    {
      "midi": 61,
      "hit": false,
      "t": 141815.67399999988,
      "d": 330.5726666666742,
      "v": 127
    },
    {
      "midi": 65,
      "hit": false,
      "t": 141815.67399999988,
      "d": 410.63323437501094,
      "v": 127
    },
    {
      "midi": 63,
      "hit": false,
      "t": 142187.5682499999,
      "d": 258.2598958333256,
      "v": 120
    },
    {
      "midi": 66,
      "hit": false,
      "t": 142187.5682499999,
      "d": 338.3204635416623,
      "v": 127
    },
    {
      "midi": 53,
      "hit": false,
      "t": 142311.53299999988,
      "d": 175.61672916667885,
      "v": 108
    },
    {
      "midi": 49,
      "hit": false,
      "t": 142311.53299999988,
      "d": 193.69492187502328,
      "v": 108
    },
    {
      "midi": 56,
      "hit": false,
      "t": 142311.53299999988,
      "d": 224.6861093750049,
      "v": 108
    },
    {
      "midi": 65,
      "hit": false,
      "t": 142559.46249999988,
      "d": 273.7554895833309,
      "v": 127
    },
    {
      "midi": 68,
      "hit": false,
      "t": 142559.46249999988,
      "d": 309.9118749999907,
      "v": 117
    },
    {
      "midi": 57,
      "hit": false,
      "t": 142807.39199999988,
      "d": 170.4515312500007,
      "v": 92
    },
    {
      "midi": 49,
      "hit": false,
      "t": 142807.39199999988,
      "d": 183.36452604166698,
      "v": 99
    },
    {
      "midi": 54,
      "hit": false,
      "t": 142807.39199999988,
      "d": 209.19051562499953,
      "v": 97
    },
    {
      "midi": 69,
      "hit": false,
      "t": 142807.39199999988,
      "d": 1722.5935052083514,
      "v": 127
    },
    {
      "midi": 66,
      "hit": false,
      "t": 142807.39199999988,
      "d": 1748.419494791684,
      "v": 127
    },
    {
      "midi": 49,
      "hit": false,
      "t": 143303.25099999987,
      "d": 196.27752083333326,
      "v": 116
    },
    {
      "midi": 57,
      "hit": false,
      "t": 143303.25099999987,
      "d": 211.7731145833386,
      "v": 88
    },
    {
      "midi": 54,
      "hit": false,
      "t": 143303.25099999987,
      "d": 216.93831250001676,
      "v": 97
    },
    {
      "midi": 49,
      "hit": false,
      "t": 143799.1099999999,
      "d": 167.86893229166162,
      "v": 99
    },
    {
      "midi": 54,
      "hit": false,
      "t": 143799.1099999999,
      "d": 206.60791666666046,
      "v": 99
    },
    {
      "midi": 57,
      "hit": false,
      "t": 143799.1099999999,
      "d": 214.35571354164858,
      "v": 92
    },
    {
      "midi": 49,
      "hit": false,
      "t": 144294.96899999987,
      "d": 77.47796874999767,
      "v": 108
    },
    {
      "midi": 54,
      "hit": false,
      "t": 144294.96899999987,
      "d": 108.46915625000838,
      "v": 99
    },
    {
      "midi": 57,
      "hit": false,
      "t": 144294.96899999987,
      "d": 136.87774479168002,
      "v": 92
    },
    {
      "midi": 68,
      "hit": false,
      "t": 144790.8279999999,
      "d": 167.86893229166162,
      "v": 57
    },
    {
      "midi": 61,
      "hit": false,
      "t": 144790.8279999999,
      "d": 180.7819270833279,
      "v": 71
    },
    {
      "midi": 65,
      "hit": false,
      "t": 144790.8279999999,
      "d": 180.7819270833279,
      "v": 77
    },
    {
      "midi": 65,
      "hit": false,
      "t": 145286.6869999999,
      "d": 180.7819270833279,
      "v": 92
    },
    {
      "midi": 61,
      "hit": false,
      "t": 145286.6869999999,
      "d": 193.69492187499418,
      "v": 97
    },
    {
      "midi": 68,
      "hit": false,
      "t": 145286.6869999999,
      "d": 227.26870833331486,
      "v": 92
    },
    {
      "midi": 65,
      "hit": false,
      "t": 145782.54599999986,
      "d": 183.36452604166698,
      "v": 92
    },
    {
      "midi": 61,
      "hit": false,
      "t": 145782.54599999986,
      "d": 196.27752083333326,
      "v": 99
    },
    {
      "midi": 68,
      "hit": false,
      "t": 145782.54599999986,
      "d": 222.1035104166658,
      "v": 92
    },
    {
      "midi": 65,
      "hit": false,
      "t": 146278.40499999985,
      "d": 139.46034374999,
      "v": 97
    },
    {
      "midi": 61,
      "hit": false,
      "t": 146278.40499999985,
      "d": 157.53853645833442,
      "v": 97
    },
    {
      "midi": 68,
      "hit": false,
      "t": 146278.40499999985,
      "d": 185.94712500000605,
      "v": 92
    },
    {
      "midi": 61,
      "hit": false,
      "t": 146774.26399999985,
      "d": 193.69492187499418,
      "v": 99
    },
    {
      "midi": 66,
      "hit": false,
      "t": 146774.26399999985,
      "d": 211.7731145833386,
      "v": 99
    },
    {
      "midi": 69,
      "hit": false,
      "t": 146774.26399999985,
      "d": 222.1035104166658,
      "v": 88
    },
    {
      "midi": 61,
      "hit": false,
      "t": 147270.12299999985,
      "d": 193.69492187499418,
      "v": 99
    },
    {
      "midi": 66,
      "hit": false,
      "t": 147270.12299999985,
      "d": 216.93831249998766,
      "v": 116
    },
    {
      "midi": 69,
      "hit": false,
      "t": 147270.12299999985,
      "d": 237.59910416664206,
      "v": 97
    },
    {
      "midi": 61,
      "hit": false,
      "t": 147765.9819999998,
      "d": 222.1035104166658,
      "v": 97
    },
    {
      "midi": 66,
      "hit": false,
      "t": 147765.9819999998,
      "d": 245.3469010416593,
      "v": 108
    },
    {
      "midi": 69,
      "hit": false,
      "t": 147765.9819999998,
      "d": 247.92949999999837,
      "v": 92
    },
    {
      "midi": 66,
      "hit": false,
      "t": 148261.8409999998,
      "d": 173.03413020833977,
      "v": 116
    },
    {
      "midi": 69,
      "hit": false,
      "t": 148261.8409999998,
      "d": 185.94712500000605,
      "v": 99
    },
    {
      "midi": 61,
      "hit": false,
      "t": 148261.8409999998,
      "d": 268.5902916666819,
      "v": 99
    },
    {
      "midi": 61,
      "hit": false,
      "t": 148757.69999999984,
      "d": 198.86011979167233,
      "v": 97
    },
    {
      "midi": 65,
      "hit": false,
      "t": 148757.69999999984,
      "d": 198.86011979167233,
      "v": 92
    },
    {
      "midi": 68,
      "hit": false,
      "t": 148757.69999999984,
      "d": 227.26870833334397,
      "v": 92
    },
    {
      "midi": 61,
      "hit": false,
      "t": 149253.55899999983,
      "d": 198.86011979167233,
      "v": 108
    },
    {
      "midi": 65,
      "hit": false,
      "t": 149253.55899999983,
      "d": 211.7731145833386,
      "v": 99
    },
    {
      "midi": 68,
      "hit": false,
      "t": 149253.55899999983,
      "d": 237.59910416667117,
      "v": 97
    },
    {
      "midi": 61,
      "hit": false,
      "t": 149749.41799999983,
      "d": 224.6861093750049,
      "v": 92
    },
    {
      "midi": 65,
      "hit": false,
      "t": 149749.41799999983,
      "d": 235.0165052083321,
      "v": 92
    },
    {
      "midi": 68,
      "hit": false,
      "t": 149749.41799999983,
      "d": 260.84249479166465,
      "v": 92
    },
    {
      "midi": 65,
      "hit": false,
      "t": 150245.27699999983,
      "d": 196.27752083333326,
      "v": 97
    },
    {
      "midi": 61,
      "hit": false,
      "t": 150245.27699999983,
      "d": 216.93831249998766,
      "v": 99
    },
    {
      "midi": 68,
      "hit": false,
      "t": 150245.27699999983,
      "d": 255.6772968749865,
      "v": 97
    },
    {
      "midi": 61,
      "hit": false,
      "t": 150741.13599999982,
      "d": 240.18170312501024,
      "v": 108
    },
    {
      "midi": 66,
      "hit": false,
      "t": 150741.13599999982,
      "d": 240.18170312501024,
      "v": 108
    },
    {
      "midi": 69,
      "hit": false,
      "t": 150741.13599999982,
      "d": 260.84249479166465,
      "v": 92
    },
    {
      "midi": 61,
      "hit": false,
      "t": 151236.99499999982,
      "d": 214.3557135416777,
      "v": 99
    },
    {
      "midi": 66,
      "hit": false,
      "t": 151236.99499999982,
      "d": 219.52091145835584,
      "v": 108
    },
    {
      "midi": 69,
      "hit": false,
      "t": 151236.99499999982,
      "d": 237.59910416670027,
      "v": 92
    },
    {
      "midi": 61,
      "hit": false,
      "t": 151732.85399999985,
      "d": 240.18170312501024,
      "v": 97
    },
    {
      "midi": 66,
      "hit": false,
      "t": 151732.85399999985,
      "d": 278.9206875000091,
      "v": 116
    },
    {
      "midi": 69,
      "hit": false,
      "t": 151732.85399999985,
      "d": 294.41628125001444,
      "v": 92
    },
    {
      "midi": 66,
      "hit": false,
      "t": 152228.71299999987,
      "d": 196.27752083333326,
      "v": 127
    },
    {
      "midi": 69,
      "hit": false,
      "t": 152228.71299999987,
      "d": 214.3557135416777,
      "v": 99
    },
    {
      "midi": 61,
      "hit": false,
      "t": 152228.71299999987,
      "d": 364.146453125024,
      "v": 116
    },
    {
      "midi": 61,
      "hit": false,
      "t": 152724.5719999999,
      "d": 371.8942500000121,
      "v": 99
    },
    {
      "midi": 65,
      "hit": false,
      "t": 152724.5719999999,
      "d": 395.1376406250056,
      "v": 92
    },
    {
      "midi": 68,
      "hit": false,
      "t": 152724.5719999999,
      "d": 402.8854374999937,
      "v": 97
    },
    {
      "midi": 61,
      "hit": false,
      "t": 153220.4309999999,
      "d": 371.8942500000121,
      "v": 99
    },
    {
      "midi": 65,
      "hit": false,
      "t": 153220.4309999999,
      "d": 379.64204687500023,
      "v": 108
    },
    {
      "midi": 68,
      "hit": false,
      "t": 153220.4309999999,
      "d": 402.8854374999937,
      "v": 99
    },
    {
      "midi": 61,
      "hit": false,
      "t": 153716.2899999999,
      "d": 358.98125520834583,
      "v": 99
    },
    {
      "midi": 65,
      "hit": false,
      "t": 153716.2899999999,
      "d": 358.98125520834583,
      "v": 97
    },
    {
      "midi": 68,
      "hit": false,
      "t": 153716.2899999999,
      "d": 371.8942500000121,
      "v": 97
    },
    {
      "midi": 65,
      "hit": false,
      "t": 154212.14899999992,
      "d": 348.6508593749895,
      "v": 97
    },
    {
      "midi": 61,
      "hit": false,
      "t": 154212.14899999992,
      "d": 371.894249999983,
      "v": 97
    },
    {
      "midi": 68,
      "hit": false,
      "t": 154212.14899999992,
      "d": 397.72023958331556,
      "v": 97
    },
    {
      "midi": 61,
      "hit": false,
      "t": 154708.0079999999,
      "d": 346.06826041667955,
      "v": 99
    },
    {
      "midi": 69,
      "hit": false,
      "t": 154708.0079999999,
      "d": 353.8160572916677,
      "v": 99
    },
    {
      "midi": 66,
      "hit": false,
      "t": 154708.0079999999,
      "d": 364.1464531249949,
      "v": 116
    },
    {
      "midi": 61,
      "hit": false,
      "t": 155203.8669999999,
      "d": 387.38984374998836,
      "v": 99
    },
    {
      "midi": 69,
      "hit": false,
      "t": 155203.8669999999,
      "d": 400.30283854165464,
      "v": 97
    },
    {
      "midi": 66,
      "hit": false,
      "t": 155203.8669999999,
      "d": 405.4680364583328,
      "v": 116
    },
    {
      "midi": 61,
      "hit": false,
      "t": 155699.7259999999,
      "d": 353.8160572916677,
      "v": 116
    },
    {
      "midi": 69,
      "hit": false,
      "t": 155699.7259999999,
      "d": 369.31165104167303,
      "v": 108
    },
    {
      "midi": 66,
      "hit": false,
      "t": 155699.7259999999,
      "d": 392.5550416666665,
      "v": 116
    },
    {
      "midi": 69,
      "hit": false,
      "t": 156195.5849999999,
      "d": 377.05944791666116,
      "v": 97
    },
    {
      "midi": 61,
      "hit": false,
      "t": 156195.5849999999,
      "d": 400.30283854165464,
      "v": 108
    },
    {
      "midi": 66,
      "hit": false,
      "t": 156195.5849999999,
      "d": 400.30283854165464,
      "v": 108
    },
    {
      "midi": 65,
      "hit": false,
      "t": 156691.4439999999,
      "d": 387.38984374998836,
      "v": 108
    },
    {
      "midi": 61,
      "hit": false,
      "t": 156691.4439999999,
      "d": 392.5550416666665,
      "v": 88
    },
    {
      "midi": 68,
      "hit": false,
      "t": 156691.4439999999,
      "d": 402.8854374999937,
      "v": 92
    },
    {
      "midi": 61,
      "hit": false,
      "t": 157187.3029999999,
      "d": 371.8942500000121,
      "v": 99
    },
    {
      "midi": 65,
      "hit": false,
      "t": 157187.3029999999,
      "d": 387.38984375001746,
      "v": 108
    },
    {
      "midi": 68,
      "hit": false,
      "t": 157187.3029999999,
      "d": 392.5550416666956,
      "v": 99
    },
    {
      "midi": 61,
      "hit": false,
      "t": 157683.16199999992,
      "d": 351.2334583333286,
      "v": 108
    },
    {
      "midi": 65,
      "hit": false,
      "t": 157683.16199999992,
      "d": 371.894249999983,
      "v": 99
    },
    {
      "midi": 68,
      "hit": false,
      "t": 157683.16199999992,
      "d": 371.894249999983,
      "v": 99
    },
    {
      "midi": 61,
      "hit": false,
      "t": 158179.02099999992,
      "d": 382.2246458333393,
      "v": 97
    },
    {
      "midi": 65,
      "hit": false,
      "t": 158179.02099999992,
      "d": 382.2246458333393,
      "v": 108
    },
    {
      "midi": 68,
      "hit": false,
      "t": 158179.02099999992,
      "d": 402.8854374999937,
      "v": 97
    },
    {
      "midi": 69,
      "hit": false,
      "t": 158674.87999999992,
      "d": 371.8942500000121,
      "v": 108
    },
    {
      "midi": 61,
      "hit": false,
      "t": 158674.87999999992,
      "d": 387.38984375001746,
      "v": 108
    },
    {
      "midi": 66,
      "hit": false,
      "t": 158674.87999999992,
      "d": 408.05063541667187,
      "v": 116
    },
    {
      "midi": 61,
      "hit": false,
      "t": 159170.7389999999,
      "d": 348.6508593749895,
      "v": 108
    },
    {
      "midi": 69,
      "hit": false,
      "t": 159170.7389999999,
      "d": 361.5638541666558,
      "v": 108
    },
    {
      "midi": 66,
      "hit": false,
      "t": 159170.7389999999,
      "d": 371.894249999983,
      "v": 108
    },
    {
      "midi": 61,
      "hit": false,
      "t": 159666.5979999999,
      "d": 343.4856614583405,
      "v": 99
    },
    {
      "midi": 69,
      "hit": false,
      "t": 159666.5979999999,
      "d": 358.98125520834583,
      "v": 97
    },
    {
      "midi": 66,
      "hit": false,
      "t": 159666.5979999999,
      "d": 371.8942500000121,
      "v": 108
    },
    {
      "midi": 69,
      "hit": false,
      "t": 160162.45699999994,
      "d": 338.3204635416623,
      "v": 99
    },
    {
      "midi": 66,
      "hit": false,
      "t": 160162.45699999994,
      "d": 364.1464531249949,
      "v": 108
    },
    {
      "midi": 61,
      "hit": false,
      "t": 160162.45699999994,
      "d": 377.05944791666116,
      "v": 108
    },
    {
      "midi": 61,
      "hit": false,
      "t": 160658.31599999993,
      "d": 382.2246458333393,
      "v": 99
    },
    {
      "midi": 65,
      "hit": false,
      "t": 160658.31599999993,
      "d": 387.38984375001746,
      "v": 99
    },
    {
      "midi": 68,
      "hit": false,
      "t": 160658.31599999993,
      "d": 392.5550416666956,
      "v": 99
    },
    {
      "midi": 61,
      "hit": false,
      "t": 161154.17499999996,
      "d": 333.15526562501327,
      "v": 108
    },
    {
      "midi": 65,
      "hit": false,
      "t": 161154.17499999996,
      "d": 340.9030625000014,
      "v": 108
    },
    {
      "midi": 68,
      "hit": false,
      "t": 161154.17499999996,
      "d": 348.6508593749895,
      "v": 99
    },
    {
      "midi": 61,
      "hit": false,
      "t": 161650.03399999996,
      "d": 356.39865625000675,
      "v": 99
    },
    {
      "midi": 65,
      "hit": false,
      "t": 161650.03399999996,
      "d": 356.39865625000675,
      "v": 99
    },
    {
      "midi": 68,
      "hit": false,
      "t": 161650.03399999996,
      "d": 371.8942500000121,
      "v": 97
    },
    {
      "midi": 65,
      "hit": false,
      "t": 162145.89299999998,
      "d": 346.06826041667955,
      "v": 108
    },
    {
      "midi": 61,
      "hit": false,
      "t": 162145.89299999998,
      "d": 351.2334583333577,
      "v": 108
    },
    {
      "midi": 68,
      "hit": false,
      "t": 162145.89299999998,
      "d": 361.5638541666849,
      "v": 97
    },
    {
      "midi": 69,
      "hit": false,
      "t": 162641.752,
      "d": 371.8942500000121,
      "v": 108
    },
    {
      "midi": 61,
      "hit": false,
      "t": 162641.752,
      "d": 382.2246458333393,
      "v": 108
    },
    {
      "midi": 66,
      "hit": false,
      "t": 162641.752,
      "d": 402.8854374999937,
      "v": 116
    },
    {
      "midi": 61,
      "hit": false,
      "t": 163137.611,
      "d": 364.1464531249949,
      "v": 108
    },
    {
      "midi": 69,
      "hit": false,
      "t": 163137.611,
      "d": 374.4768489583221,
      "v": 99
    },
    {
      "midi": 66,
      "hit": false,
      "t": 163137.611,
      "d": 395.1376406249765,
      "v": 116
    },
    {
      "midi": 61,
      "hit": false,
      "t": 163633.46999999997,
      "d": 325.40746874999604,
      "v": 99
    },
    {
      "midi": 69,
      "hit": false,
      "t": 163633.46999999997,
      "d": 335.73786458332324,
      "v": 97
    },
    {
      "midi": 66,
      "hit": false,
      "t": 163633.46999999997,
      "d": 358.9812552083167,
      "v": 108
    },
    {
      "midi": 69,
      "hit": false,
      "t": 164129.32899999997,
      "d": 289.2510833333363,
      "v": 108
    },
    {
      "midi": 66,
      "hit": false,
      "t": 164129.32899999997,
      "d": 307.3292760416807,
      "v": 108
    },
    {
      "midi": 61,
      "hit": false,
      "t": 164129.32899999997,
      "d": 371.8942500000121,
      "v": 108
    },
    {
      "midi": 61,
      "hit": false,
      "t": 164625.188,
      "d": 423.5462291666772,
      "v": 88
    },
    {
      "midi": 65,
      "hit": false,
      "t": 164625.188,
      "d": 423.5462291666772,
      "v": 99
    },
    {
      "midi": 68,
      "hit": false,
      "t": 164625.188,
      "d": 423.5462291666772,
      "v": 99
    },
    {
      "midi": 61,
      "hit": false,
      "t": 165121.047,
      "d": 351.2334583333286,
      "v": 97
    },
    {
      "midi": 65,
      "hit": false,
      "t": 165121.047,
      "d": 351.2334583333286,
      "v": 99
    },
    {
      "midi": 68,
      "hit": false,
      "t": 165121.047,
      "d": 371.894249999983,
      "v": 99
    },
    {
      "midi": 61,
      "hit": false,
      "t": 165616.906,
      "d": 333.15526562501327,
      "v": 99
    },
    {
      "midi": 65,
      "hit": false,
      "t": 165616.906,
      "d": 333.15526562501327,
      "v": 99
    },
    {
      "midi": 68,
      "hit": false,
      "t": 165616.906,
      "d": 351.2334583333577,
      "v": 99
    },
    {
      "midi": 65,
      "hit": false,
      "t": 166112.765,
      "d": 317.6596718750079,
      "v": 99
    },
    {
      "midi": 61,
      "hit": false,
      "t": 166112.765,
      "d": 343.4856614583405,
      "v": 97
    },
    {
      "midi": 68,
      "hit": false,
      "t": 166112.765,
      "d": 364.1464531249949,
      "v": 97
    },
    {
      "midi": 61,
      "hit": false,
      "t": 166608.624,
      "d": 387.38984374998836,
      "v": 108
    },
    {
      "midi": 69,
      "hit": false,
      "t": 166608.624,
      "d": 387.38984374998836,
      "v": 99
    },
    {
      "midi": 66,
      "hit": false,
      "t": 166608.624,
      "d": 418.38103124999907,
      "v": 127
    },
    {
      "midi": 61,
      "hit": false,
      "t": 167104.483,
      "d": 351.2334583333286,
      "v": 108
    },
    {
      "midi": 69,
      "hit": false,
      "t": 167104.483,
      "d": 364.1464531249949,
      "v": 99
    },
    {
      "midi": 66,
      "hit": false,
      "t": 167104.483,
      "d": 371.894249999983,
      "v": 127
    },
    {
      "midi": 69,
      "hit": false,
      "t": 167600.342,
      "d": 348.6508593749895,
      "v": 97
    },
    {
      "midi": 61,
      "hit": false,
      "t": 167600.342,
      "d": 358.9812552083167,
      "v": 99
    },
    {
      "midi": 66,
      "hit": false,
      "t": 167600.342,
      "d": 366.72905208330485,
      "v": 99
    },
    {
      "midi": 69,
      "hit": false,
      "t": 168096.20099999997,
      "d": 291.83368229167536,
      "v": 99
    },
    {
      "midi": 66,
      "hit": false,
      "t": 168096.20099999997,
      "d": 309.9118750000198,
      "v": 116
    },
    {
      "midi": 61,
      "hit": false,
      "t": 168096.20099999997,
      "d": 343.4856614583405,
      "v": 108
    },
    {
      "midi": 61,
      "hit": false,
      "t": 168592.05999999997,
      "d": 358.98125520834583,
      "v": 97
    },
    {
      "midi": 65,
      "hit": false,
      "t": 168592.05999999997,
      "d": 379.64204687500023,
      "v": 108
    },
    {
      "midi": 68,
      "hit": false,
      "t": 168592.05999999997,
      "d": 392.5550416666665,
      "v": 99
    },
    {
      "midi": 65,
      "hit": false,
      "t": 169087.91899999997,
      "d": 366.72905208333395,
      "v": 108
    },
    {
      "midi": 61,
      "hit": false,
      "t": 169087.91899999997,
      "d": 379.64204687500023,
      "v": 108
    },
    {
      "midi": 68,
      "hit": false,
      "t": 169087.91899999997,
      "d": 379.64204687500023,
      "v": 108
    },
    {
      "midi": 65,
      "hit": false,
      "t": 169583.77799999996,
      "d": 353.8160572916677,
      "v": 108
    },
    {
      "midi": 61,
      "hit": false,
      "t": 169583.77799999996,
      "d": 369.31165104167303,
      "v": 108
    },
    {
      "midi": 68,
      "hit": false,
      "t": 169583.77799999996,
      "d": 382.2246458333393,
      "v": 99
    },
    {
      "midi": 65,
      "hit": false,
      "t": 170079.63699999996,
      "d": 304.74667708334164,
      "v": 108
    },
    {
      "midi": 61,
      "hit": false,
      "t": 170079.63699999996,
      "d": 320.242270833347,
      "v": 99
    },
    {
      "midi": 68,
      "hit": false,
      "t": 170079.63699999996,
      "d": 346.06826041667955,
      "v": 99
    },
    {
      "midi": 66,
      "hit": false,
      "t": 170575.49599999998,
      "d": 4111.497541666671,
      "v": 127
    },
    {
      "midi": 70,
      "hit": false,
      "t": 170575.49599999998,
      "d": 4116.662739583349,
      "v": 127
    },
    {
      "midi": 61,
      "hit": false,
      "t": 170575.49599999998,
      "d": 4121.8279375000275,
      "v": 108
    }
  ]
}