{
  "jsonPath": "Soundtracks/Video Game Music/Disney Adventures in the Magic Kingdom/disney-adventures-in-the-magic-kingdom-themagickingdom.json",
  "path": "Soundtracks\\Video Game Music\\Disney Adventures in the Magic Kingdom\\Disney_Adventures_in_the_Magic_Kingdom_TheMagicKingdom.mid",
  "name": "Disney_Adventures_in_the_Magic_Kingdom_TheMagicKingdom",
  "difficulty": "Advanced",
  "bpm": 128,
  "notes": [
    {
      "midi": 38,
      "hit": false,
      "t": 0,
      "d": 229.4921875,
      "v": 110
    },
    {
      "midi": 62,
      "hit": false,
      "t": 234.375,
      "d": 229.4921875,
      "v": 110
    },
    {
      "midi": 66,
      "hit": false,
      "t": 234.375,
      "d": 229.4921875,
      "v": 110
    },
    {
      "midi": 50,
      "hit": false,
      "t": 234.375,
      "d": 229.4921875,
      "v": 110
    },
    {
      "midi": 37,
      "hit": false,
      "t": 468.75,
      "d": 229.4921875,
      "v": 110
    },
    {
      "midi": 62,
      "hit": false,
      "t": 703.125,
      "d": 112.3046875,
      "v": 110
    },
    {
      "midi": 66,
      "hit": false,
      "t": 703.125,
      "d": 112.3046875,
      "v": 110
    },
    {
      "midi": 49,
      "hit": false,
      "t": 703.125,
      "d": 229.4921875,
      "v": 110
    },
    {
      "midi": 62,
      "hit": false,
      "t": 820.3125,
      "d": 112.3046875,
      "v": 110
    },
    {
      "midi": 66,
      "hit": false,
      "t": 820.3125,
      "d": 112.3046875,
      "v": 110
    },
    {
      "midi": 35,
      "hit": false,
      "t": 937.5,
      "d": 229.4921875,
      "v": 110
    },
    {
      "midi": 62,
      "hit": false,
      "t": 1171.875,
      "d": 229.4921875,
      "v": 110
    },
    {
      "midi": 66,
      "hit": false,
      "t": 1171.875,
      "d": 229.4921875,
      "v": 110
    },
    {
      "midi": 47,
      "hit": false,
      "t": 1171.875,
      "d": 229.4921875,
      "v": 110
    },
    {
      "midi": 37,
      "hit": false,
      "t": 1406.25,
      "d": 229.4921875,
      "v": 110
    },
    {
      "midi": 62,
      "hit": false,
      "t": 1640.625,
      "d": 112.3046875,
      "v": 110
    },
    {
      "midi": 66,
      "hit": false,
      "t": 1640.625,
      "d": 112.3046875,
      "v": 110
    },
    {
      "midi": 49,
      "hit": false,
      "t": 1640.625,
      "d": 229.4921875,
      "v": 110
    },
    {
      "midi": 62,
      "hit": false,
      "t": 1757.8125,
      "d": 112.3046875,
      "v": 110
    },
    {
      "midi": 66,
      "hit": false,
      "t": 1757.8125,
      "d": 112.3046875,
      "v": 110
    },
    {
      "midi": 38,
      "hit": false,
      "t": 1875,
      "d": 229.4921875,
      "v": 110
    },
    {
      "midi": 62,
      "hit": false,
      "t": 2109.375,
      "d": 229.4921875,
      "v": 110
    },
    {
      "midi": 66,
      "hit": false,
      "t": 2109.375,
      "d": 229.4921875,
      "v": 110
    },
    {
      "midi": 50,
      "hit": false,
      "t": 2109.375,
      "d": 229.4921875,
      "v": 110
    },
    {
      "midi": 37,
      "hit": false,
      "t": 2343.75,
      "d": 229.4921875,
      "v": 110
    },
    {
      "midi": 62,
      "hit": false,
      "t": 2578.125,
      "d": 112.3046875,
      "v": 110
    },
    {
      "midi": 66,
      "hit": false,
      "t": 2578.125,
      "d": 112.3046875,
      "v": 110
    },
    {
      "midi": 49,
      "hit": false,
      "t": 2578.125,
      "d": 229.4921875,
      "v": 110
    },
    {
      "midi": 62,
      "hit": false,
      "t": 2695.3125,
      "d": 112.3046875,
      "v": 110
    },
    {
      "midi": 66,
      "hit": false,
      "t": 2695.3125,
      "d": 112.3046875,
      "v": 110
    },
    {
      "midi": 35,
      "hit": false,
      "t": 2812.5,
      "d": 229.4921875,
      "v": 110
    },
    {
      "midi": 62,
      "hit": false,
      "t": 3046.875,
      "d": 229.4921875,
      "v": 110
    },
    {
      "midi": 66,
      "hit": false,
      "t": 3046.875,
      "d": 229.4921875,
      "v": 110
    },
    {
      "midi": 47,
      "hit": false,
      "t": 3046.875,
      "d": 229.4921875,
      "v": 110
    },
    {
      "midi": 37,
      "hit": false,
      "t": 3281.25,
      "d": 229.4921875,
      "v": 110
    },
    {
      "midi": 62,
      "hit": false,
      "t": 3515.625,
      "d": 112.3046875,
      "v": 110
    },
    {
      "midi": 66,
      "hit": false,
      "t": 3515.625,
      "d": 112.3046875,
      "v": 110
    },
    {
      "midi": 49,
      "hit": false,
      "t": 3515.625,
      "d": 229.4921875,
      "v": 110
    },
    {
      "midi": 62,
      "hit": false,
      "t": 3632.8125,
      "d": 112.3046875,
      "v": 110
    },
    {
      "midi": 66,
      "hit": false,
      "t": 3632.8125,
      "d": 112.3046875,
      "v": 110
    },
    {
      "midi": 62,
      "hit": false,
      "t": 3750,
      "d": 346.6796875,
      "v": 110
    },
    {
      "midi": 66,
      "hit": false,
      "t": 3750,
      "d": 346.6796875,
      "v": 110
    },
    {
      "midi": 38,
      "hit": false,
      "t": 3750,
      "d": 229.4921875,
      "v": 110
    },
    {
      "midi": 50,
      "hit": false,
      "t": 3984.375,
      "d": 229.4921875,
      "v": 110
    },
    {
      "midi": 64,
      "hit": false,
      "t": 4101.5625,
      "d": 112.3046875,
      "v": 110
    },
    {
      "midi": 67,
      "hit": false,
      "t": 4101.5625,
      "d": 112.3046875,
      "v": 110
    },
    {
      "midi": 66,
      "hit": false,
      "t": 4218.75,
      "d": 229.4921875,
      "v": 110
    },
    {
      "midi": 69,
      "hit": false,
      "t": 4218.75,
      "d": 229.4921875,
      "v": 110
    },
    {
      "midi": 37,
      "hit": false,
      "t": 4218.75,
      "d": 229.4921875,
      "v": 110
    },
    {
      "midi": 62,
      "hit": false,
      "t": 4453.125,
      "d": 229.4921875,
      "v": 110
    },
    {
      "midi": 49,
      "hit": false,
      "t": 4453.125,
      "d": 229.4921875,
      "v": 110
    },
    {
      "midi": 61,
      "hit": false,
      "t": 4687.5,
      "d": 229.4921875,
      "v": 110
    },
    {
      "midi": 35,
      "hit": false,
      "t": 4687.5,
      "d": 229.4921875,
      "v": 110
    },
    {
      "midi": 67,
      "hit": false,
      "t": 4921.875,
      "d": 229.4921875,
      "v": 110
    },
    {
      "midi": 71,
      "hit": false,
      "t": 4921.875,
      "d": 229.4921875,
      "v": 110
    },
    {
      "midi": 47,
      "hit": false,
      "t": 4921.875,
      "d": 229.4921875,
      "v": 110
    },
    {
      "midi": 66,
      "hit": false,
      "t": 5156.25,
      "d": 112.3046875,
      "v": 110
    },
    {
      "midi": 69,
      "hit": false,
      "t": 5156.25,
      "d": 112.3046875,
      "v": 110
    },
    {
      "midi": 37,
      "hit": false,
      "t": 5156.25,
      "d": 229.4921875,
      "v": 110
    },
    {
      "midi": 64,
      "hit": false,
      "t": 5273.4375,
      "d": 112.3046875,
      "v": 110
    },
    {
      "midi": 67,
      "hit": false,
      "t": 5273.4375,
      "d": 112.3046875,
      "v": 110
    },
    {
      "midi": 66,
      "hit": false,
      "t": 5390.625,
      "d": 229.4921875,
      "v": 110
    },
    {
      "midi": 69,
      "hit": false,
      "t": 5390.625,
      "d": 229.4921875,
      "v": 110
    },
    {
      "midi": 49,
      "hit": false,
      "t": 5390.625,
      "d": 229.4921875,
      "v": 110
    },
    {
      "midi": 62,
      "hit": false,
      "t": 5625,
      "d": 346.6796875,
      "v": 110
    },
    {
      "midi": 66,
      "hit": false,
      "t": 5625,
      "d": 346.6796875,
      "v": 110
    },
    {
      "midi": 38,
      "hit": false,
      "t": 5625,
      "d": 229.4921875,
      "v": 110
    },
    {
      "midi": 50,
      "hit": false,
      "t": 5859.375,
      "d": 229.4921875,
      "v": 110
    },
    {
      "midi": 64,
      "hit": false,
      "t": 5976.5625,
      "d": 112.3046875,
      "v": 110
    },
    {
      "midi": 67,
      "hit": false,
      "t": 5976.5625,
      "d": 112.3046875,
      "v": 110
    },
    {
      "midi": 66,
      "hit": false,
      "t": 6093.75,
      "d": 229.4921875,
      "v": 110
    },
    {
      "midi": 69,
      "hit": false,
      "t": 6093.75,
      "d": 229.4921875,
      "v": 110
    },
    {
      "midi": 37,
      "hit": false,
      "t": 6093.75,
      "d": 229.4921875,
      "v": 110
    },
    {
      "midi": 62,
      "hit": false,
      "t": 6328.125,
      "d": 229.4921875,
      "v": 110
    },
    {
      "midi": 49,
      "hit": false,
      "t": 6328.125,
      "d": 229.4921875,
      "v": 110
    },
    {
      "midi": 61,
      "hit": false,
      "t": 6562.5,
      "d": 229.4921875,
      "v": 110
    },
    {
      "midi": 35,
      "hit": false,
      "t": 6562.5,
      "d": 229.4921875,
      "v": 110
    },
    {
      "midi": 67,
      "hit": false,
      "t": 6796.875,
      "d": 112.3046875,
      "v": 110
    },
    {
      "midi": 71,
      "hit": false,
      "t": 6796.875,
      "d": 112.3046875,
      "v": 110
    },
    {
      "midi": 47,
      "hit": false,
      "t": 6796.875,
      "d": 229.4921875,
      "v": 110
    },
    {
      "midi": 66,
      "hit": false,
      "t": 6914.0625,
      "d": 112.3046875,
      "v": 110
    },
    {
      "midi": 69,
      "hit": false,
      "t": 6914.0625,
      "d": 112.3046875,
      "v": 110
    },
    {
      "midi": 64,
      "hit": false,
      "t": 7031.25,
      "d": 112.3046875,
      "v": 110
    },
    {
      "midi": 67,
      "hit": false,
      "t": 7031.25,
      "d": 112.3046875,
      "v": 110
    },
    {
      "midi": 37,
      "hit": false,
      "t": 7031.25,
      "d": 229.4921875,
      "v": 110
    },
    {
      "midi": 62,
      "hit": false,
      "t": 7148.4375,
      "d": 112.3046875,
      "v": 110
    },
    {
      "midi": 66,
      "hit": false,
      "t": 7148.4375,
      "d": 112.3046875,
      "v": 110
    },
    {
      "midi": 64,
      "hit": false,
      "t": 7265.625,
      "d": 112.3046875,
      "v": 110
    },
    {
      "midi": 67,
      "hit": false,
      "t": 7265.625,
      "d": 112.3046875,
      "v": 110
    },
    {
      "midi": 49,
      "hit": false,
      "t": 7265.625,
      "d": 229.4921875,
      "v": 110
    },
    {
      "midi": 64,
      "hit": false,
      "t": 7382.8125,
      "d": 112.3046875,
      "v": 110
    },
    {
      "midi": 62,
      "hit": false,
      "t": 7500,
      "d": 346.6796875,
      "v": 110
    },
    {
      "midi": 66,
      "hit": false,
      "t": 7500,
      "d": 346.6796875,
      "v": 110
    },
    {
      "midi": 38,
      "hit": false,
      "t": 7500,
      "d": 229.4921875,
      "v": 110
    },
    {
      "midi": 50,
      "hit": false,
      "t": 7734.375,
      "d": 229.4921875,
      "v": 110
    },
    {
      "midi": 64,
      "hit": false,
      "t": 7851.5625,
      "d": 112.3046875,
      "v": 110
    },
    {
      "midi": 67,
      "hit": false,
      "t": 7851.5625,
      "d": 112.3046875,
      "v": 110
    },
    {
      "midi": 66,
      "hit": false,
      "t": 7968.75,
      "d": 229.4921875,
      "v": 110
    },
    {
      "midi": 69,
      "hit": false,
      "t": 7968.75,
      "d": 229.4921875,
      "v": 110
    },
    {
      "midi": 37,
      "hit": false,
      "t": 7968.75,
      "d": 229.4921875,
      "v": 110
    },
    {
      "midi": 62,
      "hit": false,
      "t": 8203.125,
      "d": 229.4921875,
      "v": 110
    },
    {
      "midi": 49,
      "hit": false,
      "t": 8203.125,
      "d": 229.4921875,
      "v": 110
    },
    {
      "midi": 61,
      "hit": false,
      "t": 8437.5,
      "d": 229.4921875,
      "v": 110
    },
    {
      "midi": 35,
      "hit": false,
      "t": 8437.5,
      "d": 229.4921875,
      "v": 110
    },
    {
      "midi": 67,
      "hit": false,
      "t": 8671.875,
      "d": 229.4921875,
      "v": 110
    },
    {
      "midi": 71,
      "hit": false,
      "t": 8671.875,
      "d": 229.4921875,
      "v": 110
    },
    {
      "midi": 47,
      "hit": false,
      "t": 8671.875,
      "d": 229.4921875,
      "v": 110
    },
    {
      "midi": 66,
      "hit": false,
      "t": 8906.25,
      "d": 112.3046875,
      "v": 110
    },
    {
      "midi": 69,
      "hit": false,
      "t": 8906.25,
      "d": 112.3046875,
      "v": 110
    },
    {
      "midi": 37,
      "hit": false,
      "t": 8906.25,
      "d": 229.4921875,
      "v": 110
    },
    {
      "midi": 64,
      "hit": false,
      "t": 9023.4375,
      "d": 112.3046875,
      "v": 110
    },
    {
      "midi": 67,
      "hit": false,
      "t": 9023.4375,
      "d": 112.3046875,
      "v": 110
    },
    {
      "midi": 66,
      "hit": false,
      "t": 9140.625,
      "d": 229.4921875,
      "v": 110
    },
    {
      "midi": 69,
      "hit": false,
      "t": 9140.625,
      "d": 229.4921875,
      "v": 110
    },
    {
      "midi": 49,
      "hit": false,
      "t": 9140.625,
      "d": 229.4921875,
      "v": 110
    },
    {
      "midi": 61,
      "hit": false,
      "t": 9375,
      "d": 229.4921875,
      "v": 110
    },
    {
      "midi": 64,
      "hit": false,
      "t": 9375,
      "d": 229.4921875,
      "v": 110
    },
    {
      "midi": 33,
      "hit": false,
      "t": 9375,
      "d": 229.4921875,
      "v": 110
    },
    {
      "midi": 61,
      "hit": false,
      "t": 9609.375,
      "d": 112.3046875,
      "v": 110
    },
    {
      "midi": 69,
      "hit": false,
      "t": 9609.375,
      "d": 112.3046875,
      "v": 110
    },
    {
      "midi": 45,
      "hit": false,
      "t": 9609.375,
      "d": 229.4921875,
      "v": 110
    },
    {
      "midi": 69,
      "hit": false,
      "t": 9726.5625,
      "d": 112.3046875,
      "v": 110
    },
    {
      "midi": 64,
      "hit": false,
      "t": 9843.75,
      "d": 229.4921875,
      "v": 110
    },
    {
      "midi": 68,
      "hit": false,
      "t": 9843.75,
      "d": 229.4921875,
      "v": 110
    },
    {
      "midi": 40,
      "hit": false,
      "t": 9843.75,
      "d": 229.4921875,
      "v": 110
    },
    {
      "midi": 64,
      "hit": false,
      "t": 10078.125,
      "d": 112.3046875,
      "v": 110
    },
    {
      "midi": 71,
      "hit": false,
      "t": 10078.125,
      "d": 112.3046875,
      "v": 110
    },
    {
      "midi": 52,
      "hit": false,
      "t": 10078.125,
      "d": 229.4921875,
      "v": 110
    },
    {
      "midi": 71,
      "hit": false,
      "t": 10195.3125,
      "d": 112.3046875,
      "v": 110
    },
    {
      "midi": 61,
      "hit": false,
      "t": 10312.5,
      "d": 820.3125,
      "v": 110
    },
    {
      "midi": 64,
      "hit": false,
      "t": 10312.5,
      "d": 820.3125,
      "v": 110
    },
    {
      "midi": 69,
      "hit": false,
      "t": 10312.5,
      "d": 820.3125,
      "v": 110
    },
    {
      "midi": 45,
      "hit": false,
      "t": 10312.5,
      "d": 229.4921875,
      "v": 110
    },
    {
      "midi": 40,
      "hit": false,
      "t": 10546.875,
      "d": 229.4921875,
      "v": 110
    },
    {
      "midi": 33,
      "hit": false,
      "t": 10781.25,
      "d": 390.625,
      "v": 110
    },
    {
      "midi": 62,
      "hit": false,
      "t": 11250,
      "d": 581.0546875,
      "v": 110
    },
    {
      "midi": 67,
      "hit": false,
      "t": 11250,
      "d": 581.0546875,
      "v": 110
    },
    {
      "midi": 71,
      "hit": false,
      "t": 11250,
      "d": 581.0546875,
      "v": 110
    },
    {
      "midi": 31,
      "hit": false,
      "t": 11250,
      "d": 229.4921875,
      "v": 110
    },
    {
      "midi": 43,
      "hit": false,
      "t": 11484.375,
      "d": 229.4921875,
      "v": 110
    },
    {
      "midi": 31,
      "hit": false,
      "t": 11718.75,
      "d": 229.4921875,
      "v": 110
    },
    {
      "midi": 73,
      "hit": false,
      "t": 11835.9375,
      "d": 112.3046875,
      "v": 110
    },
    {
      "midi": 74,
      "hit": false,
      "t": 11953.125,
      "d": 112.3046875,
      "v": 110
    },
    {
      "midi": 43,
      "hit": false,
      "t": 11953.125,
      "d": 229.4921875,
      "v": 110
    },
    {
      "midi": 76,
      "hit": false,
      "t": 12070.3125,
      "d": 112.3046875,
      "v": 110
    },
    {
      "midi": 62,
      "hit": false,
      "t": 12187.5,
      "d": 229.4921875,
      "v": 110
    },
    {
      "midi": 69,
      "hit": false,
      "t": 12187.5,
      "d": 229.4921875,
      "v": 110
    },
    {
      "midi": 33,
      "hit": false,
      "t": 12187.5,
      "d": 229.4921875,
      "v": 110
    },
    {
      "midi": 66,
      "hit": false,
      "t": 12421.875,
      "d": 229.4921875,
      "v": 110
    },
    {
      "midi": 45,
      "hit": false,
      "t": 12421.875,
      "d": 229.4921875,
      "v": 110
    },
    {
      "midi": 69,
      "hit": false,
      "t": 12656.25,
      "d": 229.4921875,
      "v": 110
    },
    {
      "midi": 33,
      "hit": false,
      "t": 12656.25,
      "d": 229.4921875,
      "v": 110
    },
    {
      "midi": 67,
      "hit": false,
      "t": 12890.625,
      "d": 112.3046875,
      "v": 110
    },
    {
      "midi": 45,
      "hit": false,
      "t": 12890.625,
      "d": 229.4921875,
      "v": 110
    },
    {
      "midi": 66,
      "hit": false,
      "t": 13007.8125,
      "d": 112.3046875,
      "v": 110
    },
    {
      "midi": 61,
      "hit": false,
      "t": 13125,
      "d": 229.4921875,
      "v": 110
    },
    {
      "midi": 67,
      "hit": false,
      "t": 13125,
      "d": 229.4921875,
      "v": 110
    },
    {
      "midi": 33,
      "hit": false,
      "t": 13125,
      "d": 229.4921875,
      "v": 110
    },
    {
      "midi": 64,
      "hit": false,
      "t": 13359.375,
      "d": 229.4921875,
      "v": 110
    },
    {
      "midi": 45,
      "hit": false,
      "t": 13359.375,
      "d": 229.4921875,
      "v": 110
    },
    {
      "midi": 67,
      "hit": false,
      "t": 13593.75,
      "d": 229.4921875,
      "v": 110
    },
    {
      "midi": 33,
      "hit": false,
      "t": 13593.75,
      "d": 229.4921875,
      "v": 110
    },
    {
      "midi": 66,
      "hit": false,
      "t": 13828.125,
      "d": 112.3046875,
      "v": 110
    },
    {
      "midi": 45,
      "hit": false,
      "t": 13828.125,
      "d": 229.4921875,
      "v": 110
    },
    {
      "midi": 64,
      "hit": false,
      "t": 13945.3125,
      "d": 112.3046875,
      "v": 110
    },
    {
      "midi": 62,
      "hit": false,
      "t": 14062.5,
      "d": 229.4921875,
      "v": 110
    },
    {
      "midi": 66,
      "hit": false,
      "t": 14062.5,
      "d": 229.4921875,
      "v": 110
    },
    {
      "midi": 38,
      "hit": false,
      "t": 14062.5,
      "d": 229.4921875,
      "v": 110
    },
    {
      "midi": 69,
      "hit": false,
      "t": 14296.875,
      "d": 229.4921875,
      "v": 110
    },
    {
      "midi": 50,
      "hit": false,
      "t": 14296.875,
      "d": 229.4921875,
      "v": 110
    },
    {
      "midi": 66,
      "hit": false,
      "t": 14531.25,
      "d": 390.625,
      "v": 110
    },
    {
      "midi": 74,
      "hit": false,
      "t": 14531.25,
      "d": 390.625,
      "v": 110
    },
    {
      "midi": 38,
      "hit": false,
      "t": 14531.25,
      "d": 229.4921875,
      "v": 110
    },
    {
      "midi": 50,
      "hit": false,
      "t": 14765.625,
      "d": 229.4921875,
      "v": 110
    },
    {
      "midi": 67,
      "hit": false,
      "t": 15000,
      "d": 390.625,
      "v": 110
    },
    {
      "midi": 71,
      "hit": false,
      "t": 15000,
      "d": 581.0546875,
      "v": 110
    },
    {
      "midi": 31,
      "hit": false,
      "t": 15000,
      "d": 229.4921875,
      "v": 110
    },
    {
      "midi": 43,
      "hit": false,
      "t": 15234.375,
      "d": 229.4921875,
      "v": 110
    },
    {
      "midi": 31,
      "hit": false,
      "t": 15468.75,
      "d": 229.4921875,
      "v": 110
    },
    {
      "midi": 73,
      "hit": false,
      "t": 15585.9375,
      "d": 112.3046875,
      "v": 110
    },
    {
      "midi": 74,
      "hit": false,
      "t": 15703.125,
      "d": 112.3046875,
      "v": 110
    },
    {
      "midi": 43,
      "hit": false,
      "t": 15703.125,
      "d": 229.4921875,
      "v": 110
    },
    {
      "midi": 76,
      "hit": false,
      "t": 15820.3125,
      "d": 112.3046875,
      "v": 110
    },
    {
      "midi": 62,
      "hit": false,
      "t": 15937.5,
      "d": 229.4921875,
      "v": 110
    },
    {
      "midi": 66,
      "hit": false,
      "t": 15937.5,
      "d": 229.4921875,
      "v": 110
    },
    {
      "midi": 69,
      "hit": false,
      "t": 15937.5,
      "d": 229.4921875,
      "v": 110
    },
    {
      "midi": 33,
      "hit": false,
      "t": 15937.5,
      "d": 229.4921875,
      "v": 110
    },
    {
      "midi": 66,
      "hit": false,
      "t": 16171.875,
      "d": 229.4921875,
      "v": 110
    },
    {
      "midi": 45,
      "hit": false,
      "t": 16171.875,
      "d": 229.4921875,
      "v": 110
    },
    {
      "midi": 69,
      "hit": false,
      "t": 16406.25,
      "d": 229.4921875,
      "v": 110
    },
    {
      "midi": 33,
      "hit": false,
      "t": 16406.25,
      "d": 229.4921875,
      "v": 110
    },
    {
      "midi": 67,
      "hit": false,
      "t": 16640.625,
      "d": 112.3046875,
      "v": 110
    },
    {
      "midi": 45,
      "hit": false,
      "t": 16640.625,
      "d": 229.4921875,
      "v": 110
    },
    {
      "midi": 66,
      "hit": false,
      "t": 16757.8125,
      "d": 112.3046875,
      "v": 110
    },
    {
      "midi": 61,
      "hit": false,
      "t": 16875,
      "d": 229.4921875,
      "v": 110
    },
    {
      "midi": 64,
      "hit": false,
      "t": 16875,
      "d": 229.4921875,
      "v": 110
    },
    {
      "midi": 67,
      "hit": false,
      "t": 16875,
      "d": 229.4921875,
      "v": 110
    },
    {
      "midi": 33,
      "hit": false,
      "t": 16875,
      "d": 229.4921875,
      "v": 110
    },
    {
      "midi": 64,
      "hit": false,
      "t": 17109.375,
      "d": 229.4921875,
      "v": 110
    },
    {
      "midi": 45,
      "hit": false,
      "t": 17109.375,
      "d": 229.4921875,
      "v": 110
    },
    {
      "midi": 67,
      "hit": false,
      "t": 17343.75,
      "d": 229.4921875,
      "v": 110
    },
    {
      "midi": 33,
      "hit": false,
      "t": 17343.75,
      "d": 229.4921875,
      "v": 110
    },
    {
      "midi": 66,
      "hit": false,
      "t": 17578.125,
      "d": 112.3046875,
      "v": 110
    },
    {
      "midi": 45,
      "hit": false,
      "t": 17578.125,
      "d": 229.4921875,
      "v": 110
    },
    {
      "midi": 64,
      "hit": false,
      "t": 17695.3125,
      "d": 112.3046875,
      "v": 110
    },
    {
      "midi": 62,
      "hit": false,
      "t": 17812.5,
      "d": 112.3046875,
      "v": 110
    },
    {
      "midi": 66,
      "hit": false,
      "t": 17812.5,
      "d": 112.3046875,
      "v": 110
    },
    {
      "midi": 38,
      "hit": false,
      "t": 17812.5,
      "d": 229.4921875,
      "v": 110
    },
    {
      "midi": 69,
      "hit": false,
      "t": 17929.6875,
      "d": 112.3046875,
      "v": 110
    },
    {
      "midi": 74,
      "hit": false,
      "t": 18046.875,
      "d": 112.3046875,
      "v": 110
    },
    {
      "midi": 50,
      "hit": false,
      "t": 18046.875,
      "d": 229.4921875,
      "v": 110
    },
    {
      "midi": 76,
      "hit": false,
      "t": 18164.0625,
      "d": 112.3046875,
      "v": 110
    },
    {
      "midi": 78,
      "hit": false,
      "t": 18281.25,
      "d": 229.4921875,
      "v": 110
    },
    {
      "midi": 38,
      "hit": false,
      "t": 18281.25,
      "d": 229.4921875,
      "v": 110
    },
    {
      "midi": 74,
      "hit": false,
      "t": 18515.625,
      "d": 112.3046875,
      "v": 110
    },
    {
      "midi": 50,
      "hit": false,
      "t": 18515.625,
      "d": 229.4921875,
      "v": 110
    },
    {
      "midi": 74,
      "hit": false,
      "t": 18632.8125,
      "d": 112.3046875,
      "v": 110
    },
    {
      "midi": 71,
      "hit": false,
      "t": 18750,
      "d": 229.4921875,
      "v": 110
    },
    {
      "midi": 74,
      "hit": false,
      "t": 18750,
      "d": 229.4921875,
      "v": 110
    },
    {
      "midi": 31,
      "hit": false,
      "t": 18750,
      "d": 229.4921875,
      "v": 110
    },
    {
      "midi": 83,
      "hit": false,
      "t": 18984.375,
      "d": 229.4921875,
      "v": 110
    },
    {
      "midi": 43,
      "hit": false,
      "t": 18984.375,
      "d": 229.4921875,
      "v": 110
    },
    {
      "midi": 71,
      "hit": false,
      "t": 19218.75,
      "d": 112.3046875,
      "v": 110
    },
    {
      "midi": 79,
      "hit": false,
      "t": 19218.75,
      "d": 112.3046875,
      "v": 110
    },
    {
      "midi": 31,
      "hit": false,
      "t": 19218.75,
      "d": 229.4921875,
      "v": 110
    },
    {
      "midi": 73,
      "hit": false,
      "t": 19335.9375,
      "d": 112.3046875,
      "v": 110
    },
    {
      "midi": 74,
      "hit": false,
      "t": 19453.125,
      "d": 112.3046875,
      "v": 110
    },
    {
      "midi": 43,
      "hit": false,
      "t": 19453.125,
      "d": 229.4921875,
      "v": 110
    },
    {
      "midi": 76,
      "hit": false,
      "t": 19570.3125,
      "d": 112.3046875,
      "v": 110
    },
    {
      "midi": 69,
      "hit": false,
      "t": 19687.5,
      "d": 229.4921875,
      "v": 110
    },
    {
      "midi": 74,
      "hit": false,
      "t": 19687.5,
      "d": 229.4921875,
      "v": 110
    },
    {
      "midi": 33,
      "hit": false,
      "t": 19687.5,
      "d": 229.4921875,
      "v": 110
    },
    {
      "midi": 81,
      "hit": false,
      "t": 19921.875,
      "d": 229.4921875,
      "v": 110
    },
    {
      "midi": 45,
      "hit": false,
      "t": 19921.875,
      "d": 229.4921875,
      "v": 110
    },
    {
      "midi": 69,
      "hit": false,
      "t": 20156.25,
      "d": 229.4921875,
      "v": 110
    },
    {
      "midi": 78,
      "hit": false,
      "t": 20156.25,
      "d": 229.4921875,
      "v": 110
    },
    {
      "midi": 33,
      "hit": false,
      "t": 20156.25,
      "d": 229.4921875,
      "v": 110
    },
    {
      "midi": 67,
      "hit": false,
      "t": 20390.625,
      "d": 112.3046875,
      "v": 110
    },
    {
      "midi": 74,
      "hit": false,
      "t": 20390.625,
      "d": 112.3046875,
      "v": 110
    },
    {
      "midi": 45,
      "hit": false,
      "t": 20390.625,
      "d": 229.4921875,
      "v": 110
    },
    {
      "midi": 66,
      "hit": false,
      "t": 20507.8125,
      "d": 112.3046875,
      "v": 110
    },
    {
      "midi": 74,
      "hit": false,
      "t": 20507.8125,
      "d": 112.3046875,
      "v": 110
    },
    {
      "midi": 67,
      "hit": false,
      "t": 20625,
      "d": 229.4921875,
      "v": 110
    },
    {
      "midi": 73,
      "hit": false,
      "t": 20625,
      "d": 229.4921875,
      "v": 110
    },
    {
      "midi": 33,
      "hit": false,
      "t": 20625,
      "d": 229.4921875,
      "v": 110
    },
    {
      "midi": 74,
      "hit": false,
      "t": 20859.375,
      "d": 112.3046875,
      "v": 110
    },
    {
      "midi": 45,
      "hit": false,
      "t": 20859.375,
      "d": 229.4921875,
      "v": 110
    },
    {
      "midi": 76,
      "hit": false,
      "t": 20976.5625,
      "d": 112.3046875,
      "v": 110
    },
    {
      "midi": 73,
      "hit": false,
      "t": 21093.75,
      "d": 112.3046875,
      "v": 110
    },
    {
      "midi": 33,
      "hit": false,
      "t": 21093.75,
      "d": 229.4921875,
      "v": 110
    },
    {
      "midi": 69,
      "hit": false,
      "t": 21210.9375,
      "d": 112.3046875,
      "v": 110
    },
    {
      "midi": 71,
      "hit": false,
      "t": 21328.125,
      "d": 112.3046875,
      "v": 110
    },
    {
      "midi": 45,
      "hit": false,
      "t": 21328.125,
      "d": 229.4921875,
      "v": 110
    },
    {
      "midi": 73,
      "hit": false,
      "t": 21445.3125,
      "d": 112.3046875,
      "v": 110
    },
    {
      "midi": 66,
      "hit": false,
      "t": 21562.5,
      "d": 229.4921875,
      "v": 110
    },
    {
      "midi": 74,
      "hit": false,
      "t": 21562.5,
      "d": 229.4921875,
      "v": 110
    },
    {
      "midi": 38,
      "hit": false,
      "t": 21562.5,
      "d": 229.4921875,
      "v": 110
    },
    {
      "midi": 69,
      "hit": false,
      "t": 21796.875,
      "d": 229.4921875,
      "v": 110
    },
    {
      "midi": 76,
      "hit": false,
      "t": 21796.875,
      "d": 229.4921875,
      "v": 110
    },
    {
      "midi": 50,
      "hit": false,
      "t": 21796.875,
      "d": 229.4921875,
      "v": 110
    },
    {
      "midi": 66,
      "hit": false,
      "t": 22031.25,
      "d": 229.4921875,
      "v": 110
    },
    {
      "midi": 78,
      "hit": false,
      "t": 22031.25,
      "d": 229.4921875,
      "v": 110
    },
    {
      "midi": 38,
      "hit": false,
      "t": 22031.25,
      "d": 229.4921875,
      "v": 110
    },
    {
      "midi": 78,
      "hit": false,
      "t": 22265.625,
      "d": 112.3046875,
      "v": 110
    },
    {
      "midi": 50,
      "hit": false,
      "t": 22265.625,
      "d": 229.4921875,
      "v": 110
    },
    {
      "midi": 78,
      "hit": false,
      "t": 22382.8125,
      "d": 112.3046875,
      "v": 110
    },
    {
      "midi": 67,
      "hit": false,
      "t": 22500,
      "d": 390.625,
      "v": 110
    },
    {
      "midi": 71,
      "hit": false,
      "t": 22500,
      "d": 581.0546875,
      "v": 110
    },
    {
      "midi": 31,
      "hit": false,
      "t": 22500,
      "d": 229.4921875,
      "v": 110
    },
    {
      "midi": 43,
      "hit": false,
      "t": 22734.375,
      "d": 229.4921875,
      "v": 110
    },
    {
      "midi": 31,
      "hit": false,
      "t": 22968.75,
      "d": 229.4921875,
      "v": 110
    },
    {
      "midi": 73,
      "hit": false,
      "t": 23085.9375,
      "d": 112.3046875,
      "v": 110
    },
    {
      "midi": 74,
      "hit": false,
      "t": 23203.125,
      "d": 112.3046875,
      "v": 110
    },
    {
      "midi": 43,
      "hit": false,
      "t": 23203.125,
      "d": 229.4921875,
      "v": 110
    },
    {
      "midi": 76,
      "hit": false,
      "t": 23320.3125,
      "d": 112.3046875,
      "v": 110
    },
    {
      "midi": 66,
      "hit": false,
      "t": 23437.5,
      "d": 229.4921875,
      "v": 110
    },
    {
      "midi": 69,
      "hit": false,
      "t": 23437.5,
      "d": 229.4921875,
      "v": 110
    },
    {
      "midi": 33,
      "hit": false,
      "t": 23437.5,
      "d": 229.4921875,
      "v": 110
    },
    {
      "midi": 78,
      "hit": false,
      "t": 23671.875,
      "d": 229.4921875,
      "v": 110
    },
    {
      "midi": 45,
      "hit": false,
      "t": 23671.875,
      "d": 229.4921875,
      "v": 110
    },
    {
      "midi": 76,
      "hit": false,
      "t": 23906.25,
      "d": 229.4921875,
      "v": 110
    },
    {
      "midi": 33,
      "hit": false,
      "t": 23906.25,
      "d": 229.4921875,
      "v": 110
    },
    {
      "midi": 74,
      "hit": false,
      "t": 24140.625,
      "d": 112.3046875,
      "v": 110
    },
    {
      "midi": 45,
      "hit": false,
      "t": 24140.625,
      "d": 229.4921875,
      "v": 110
    },
    {
      "midi": 76,
      "hit": false,
      "t": 24257.8125,
      "d": 112.3046875,
      "v": 110
    },
    {
      "midi": 69,
      "hit": false,
      "t": 24375,
      "d": 229.4921875,
      "v": 110
    },
    {
      "midi": 74,
      "hit": false,
      "t": 24375,
      "d": 229.4921875,
      "v": 110
    },
    {
      "midi": 78,
      "hit": false,
      "t": 24375,
      "d": 229.4921875,
      "v": 110
    },
    {
      "midi": 33,
      "hit": false,
      "t": 24375,
      "d": 229.4921875,
      "v": 110
    },
    {
      "midi": 76,
      "hit": false,
      "t": 24609.375,
      "d": 112.3046875,
      "v": 110
    },
    {
      "midi": 45,
      "hit": false,
      "t": 24609.375,
      "d": 229.4921875,
      "v": 110
    },
    {
      "midi": 74,
      "hit": false,
      "t": 24726.5625,
      "d": 112.3046875,
      "v": 110
    },
    {
      "midi": 64,
      "hit": false,
      "t": 24843.75,
      "d": 229.4921875,
      "v": 110
    },
    {
      "midi": 69,
      "hit": false,
      "t": 24843.75,
      "d": 229.4921875,
      "v": 110
    },
    {
      "midi": 73,
      "hit": false,
      "t": 24843.75,
      "d": 229.4921875,
      "v": 110
    },
    {
      "midi": 33,
      "hit": false,
      "t": 24843.75,
      "d": 229.4921875,
      "v": 110
    },
    {
      "midi": 69,
      "hit": false,
      "t": 25078.125,
      "d": 229.4921875,
      "v": 110
    },
    {
      "midi": 73,
      "hit": false,
      "t": 25078.125,
      "d": 229.4921875,
      "v": 110
    },
    {
      "midi": 76,
      "hit": false,
      "t": 25078.125,
      "d": 229.4921875,
      "v": 110
    },
    {
      "midi": 45,
      "hit": false,
      "t": 25078.125,
      "d": 229.4921875,
      "v": 110
    },
    {
      "midi": 62,
      "hit": false,
      "t": 25312.5,
      "d": 820.3125,
      "v": 110
    },
    {
      "midi": 66,
      "hit": false,
      "t": 25312.5,
      "d": 820.3125,
      "v": 110
    },
    {
      "midi": 69,
      "hit": false,
      "t": 25312.5,
      "d": 820.3125,
      "v": 110
    },
    {
      "midi": 74,
      "hit": false,
      "t": 25312.5,
      "d": 820.3125,
      "v": 110
    },
    {
      "midi": 50,
      "hit": false,
      "t": 25312.5,
      "d": 229.4921875,
      "v": 110
    },
    {
      "midi": 45,
      "hit": false,
      "t": 25546.875,
      "d": 229.4921875,
      "v": 110
    },
    {
      "midi": 38,
      "hit": false,
      "t": 25781.25,
      "d": 390.625,
      "v": 110
    },
    {
      "midi": 38,
      "hit": false,
      "t": 26250,
      "d": 229.4921875,
      "v": 110
    },
    {
      "midi": 62,
      "hit": false,
      "t": 26484.375,
      "d": 229.4921875,
      "v": 110
    },
    {
      "midi": 66,
      "hit": false,
      "t": 26484.375,
      "d": 229.4921875,
      "v": 110
    },
    {
      "midi": 50,
      "hit": false,
      "t": 26484.375,
      "d": 229.4921875,
      "v": 110
    },
    {
      "midi": 37,
      "hit": false,
      "t": 26718.75,
      "d": 229.4921875,
      "v": 110
    },
    {
      "midi": 62,
      "hit": false,
      "t": 26953.125,
      "d": 112.3046875,
      "v": 110
    },
    {
      "midi": 66,
      "hit": false,
      "t": 26953.125,
      "d": 112.3046875,
      "v": 110
    },
    {
      "midi": 49,
      "hit": false,
      "t": 26953.125,
      "d": 229.4921875,
      "v": 110
    },
    {
      "midi": 62,
      "hit": false,
      "t": 27070.3125,
      "d": 112.3046875,
      "v": 110
    },
    {
      "midi": 66,
      "hit": false,
      "t": 27070.3125,
      "d": 112.3046875,
      "v": 110
    },
    {
      "midi": 35,
      "hit": false,
      "t": 27187.5,
      "d": 229.4921875,
      "v": 110
    },
    {
      "midi": 62,
      "hit": false,
      "t": 27421.875,
      "d": 229.4921875,
      "v": 110
    },
    {
      "midi": 66,
      "hit": false,
      "t": 27421.875,
      "d": 229.4921875,
      "v": 110
    },
    {
      "midi": 47,
      "hit": false,
      "t": 27421.875,
      "d": 229.4921875,
      "v": 110
    },
    {
      "midi": 37,
      "hit": false,
      "t": 27656.25,
      "d": 229.4921875,
      "v": 110
    },
    {
      "midi": 62,
      "hit": false,
      "t": 27890.625,
      "d": 112.3046875,
      "v": 110
    },
    {
      "midi": 66,
      "hit": false,
      "t": 27890.625,
      "d": 112.3046875,
      "v": 110
    },
    {
      "midi": 49,
      "hit": false,
      "t": 27890.625,
      "d": 229.4921875,
      "v": 110
    },
    {
      "midi": 62,
      "hit": false,
      "t": 28007.8125,
      "d": 112.3046875,
      "v": 110
    },
    {
      "midi": 66,
      "hit": false,
      "t": 28007.8125,
      "d": 112.3046875,
      "v": 110
    },
    {
      "midi": 38,
      "hit": false,
      "t": 28125,
      "d": 229.4921875,
      "v": 110
    },
    {
      "midi": 62,
      "hit": false,
      "t": 28359.375,
      "d": 229.4921875,
      "v": 110
    },
    {
      "midi": 66,
      "hit": false,
      "t": 28359.375,
      "d": 229.4921875,
      "v": 110
    },
    {
      "midi": 50,
      "hit": false,
      "t": 28359.375,
      "d": 229.4921875,
      "v": 110
    },
    {
      "midi": 37,
      "hit": false,
      "t": 28593.75,
      "d": 229.4921875,
      "v": 110
    },
    {
      "midi": 62,
      "hit": false,
      "t": 28828.125,
      "d": 112.3046875,
      "v": 110
    },
    {
      "midi": 66,
      "hit": false,
      "t": 28828.125,
      "d": 112.3046875,
      "v": 110
    },
    {
      "midi": 49,
      "hit": false,
      "t": 28828.125,
      "d": 229.4921875,
      "v": 110
    },
    {
      "midi": 62,
      "hit": false,
      "t": 28945.3125,
      "d": 112.3046875,
      "v": 110
    },
    {
      "midi": 66,
      "hit": false,
      "t": 28945.3125,
      "d": 112.3046875,
      "v": 110
    },
    {
      "midi": 35,
      "hit": false,
      "t": 29062.5,
      "d": 229.4921875,
      "v": 110
    },
    {
      "midi": 62,
      "hit": false,
      "t": 29296.875,
      "d": 229.4921875,
      "v": 110
    },
    {
      "midi": 66,
      "hit": false,
      "t": 29296.875,
      "d": 229.4921875,
      "v": 110
    },
    {
      "midi": 47,
      "hit": false,
      "t": 29296.875,
      "d": 229.4921875,
      "v": 110
    },
    {
      "midi": 37,
      "hit": false,
      "t": 29531.25,
      "d": 229.4921875,
      "v": 110
    },
    {
      "midi": 62,
      "hit": false,
      "t": 29765.625,
      "d": 112.3046875,
      "v": 110
    },
    {
      "midi": 66,
      "hit": false,
      "t": 29765.625,
      "d": 112.3046875,
      "v": 110
    },
    {
      "midi": 49,
      "hit": false,
      "t": 29765.625,
      "d": 229.4921875,
      "v": 110
    },
    {
      "midi": 62,
      "hit": false,
      "t": 29882.8125,
      "d": 112.3046875,
      "v": 110
    },
    {
      "midi": 66,
      "hit": false,
      "t": 29882.8125,
      "d": 112.3046875,
      "v": 110
    },
    {
      "midi": 62,
      "hit": false,
      "t": 30000,
      "d": 346.6796875,
      "v": 110
    },
    {
      "midi": 66,
      "hit": false,
      "t": 30000,
      "d": 346.6796875,
      "v": 110
    },
    {
      "midi": 38,
      "hit": false,
      "t": 30000,
      "d": 229.4921875,
      "v": 110
    },
    {
      "midi": 50,
      "hit": false,
      "t": 30234.375,
      "d": 229.4921875,
      "v": 110
    },
    {
      "midi": 64,
      "hit": false,
      "t": 30351.5625,
      "d": 112.3046875,
      "v": 110
    },
    {
      "midi": 67,
      "hit": false,
      "t": 30351.5625,
      "d": 112.3046875,
      "v": 110
    },
    {
      "midi": 66,
      "hit": false,
      "t": 30468.75,
      "d": 229.4921875,
      "v": 110
    },
    {
      "midi": 69,
      "hit": false,
      "t": 30468.75,
      "d": 229.4921875,
      "v": 110
    },
    {
      "midi": 37,
      "hit": false,
      "t": 30468.75,
      "d": 229.4921875,
      "v": 110
    },
    {
      "midi": 62,
      "hit": false,
      "t": 30703.125,
      "d": 229.4921875,
      "v": 110
    },
    {
      "midi": 49,
      "hit": false,
      "t": 30703.125,
      "d": 229.4921875,
      "v": 110
    },
    {
      "midi": 61,
      "hit": false,
      "t": 30937.5,
      "d": 229.4921875,
      "v": 110
    },
    {
      "midi": 35,
      "hit": false,
      "t": 30937.5,
      "d": 229.4921875,
      "v": 110
    },
    {
      "midi": 67,
      "hit": false,
      "t": 31171.875,
      "d": 229.4921875,
      "v": 110
    },
    {
      "midi": 71,
      "hit": false,
      "t": 31171.875,
      "d": 229.4921875,
      "v": 110
    },
    {
      "midi": 47,
      "hit": false,
      "t": 31171.875,
      "d": 229.4921875,
      "v": 110
    },
    {
      "midi": 66,
      "hit": false,
      "t": 31406.25,
      "d": 112.3046875,
      "v": 110
    },
    {
      "midi": 69,
      "hit": false,
      "t": 31406.25,
      "d": 112.3046875,
      "v": 110
    },
    {
      "midi": 37,
      "hit": false,
      "t": 31406.25,
      "d": 229.4921875,
      "v": 110
    },
    {
      "midi": 64,
      "hit": false,
      "t": 31523.4375,
      "d": 112.3046875,
      "v": 110
    },
    {
      "midi": 67,
      "hit": false,
      "t": 31523.4375,
      "d": 112.3046875,
      "v": 110
    },
    {
      "midi": 66,
      "hit": false,
      "t": 31640.625,
      "d": 229.4921875,
      "v": 110
    },
    {
      "midi": 69,
      "hit": false,
      "t": 31640.625,
      "d": 229.4921875,
      "v": 110
    },
    {
      "midi": 49,
      "hit": false,
      "t": 31640.625,
      "d": 229.4921875,
      "v": 110
    },
    {
      "midi": 62,
      "hit": false,
      "t": 31875,
      "d": 346.6796875,
      "v": 110
    },
    {
      "midi": 66,
      "hit": false,
      "t": 31875,
      "d": 346.6796875,
      "v": 110
    },
    {
      "midi": 38,
      "hit": false,
      "t": 31875,
      "d": 229.4921875,
      "v": 110
    },
    {
      "midi": 50,
      "hit": false,
      "t": 32109.375,
      "d": 229.4921875,
      "v": 110
    },
    {
      "midi": 64,
      "hit": false,
      "t": 32226.5625,
      "d": 112.3046875,
      "v": 110
    },
    {
      "midi": 67,
      "hit": false,
      "t": 32226.5625,
      "d": 112.3046875,
      "v": 110
    },
    {
      "midi": 66,
      "hit": false,
      "t": 32343.75,
      "d": 229.4921875,
      "v": 110
    },
    {
      "midi": 69,
      "hit": false,
      "t": 32343.75,
      "d": 229.4921875,
      "v": 110
    },
    {
      "midi": 37,
      "hit": false,
      "t": 32343.75,
      "d": 229.4921875,
      "v": 110
    },
    {
      "midi": 62,
      "hit": false,
      "t": 32578.125,
      "d": 229.4921875,
      "v": 110
    },
    {
      "midi": 49,
      "hit": false,
      "t": 32578.125,
      "d": 229.4921875,
      "v": 110
    },
    {
      "midi": 61,
      "hit": false,
      "t": 32812.5,
      "d": 229.4921875,
      "v": 110
    },
    {
      "midi": 35,
      "hit": false,
      "t": 32812.5,
      "d": 229.4921875,
      "v": 110
    },
    {
      "midi": 67,
      "hit": false,
      "t": 33046.875,
      "d": 112.3046875,
      "v": 110
    },
    {
      "midi": 71,
      "hit": false,
      "t": 33046.875,
      "d": 112.3046875,
      "v": 110
    },
    {
      "midi": 47,
      "hit": false,
      "t": 33046.875,
      "d": 229.4921875,
      "v": 110
    },
    {
      "midi": 66,
      "hit": false,
      "t": 33164.0625,
      "d": 112.3046875,
      "v": 110
    },
    {
      "midi": 69,
      "hit": false,
      "t": 33164.0625,
      "d": 112.3046875,
      "v": 110
    },
    {
      "midi": 64,
      "hit": false,
      "t": 33281.25,
      "d": 112.3046875,
      "v": 110
    },
    {
      "midi": 67,
      "hit": false,
      "t": 33281.25,
      "d": 112.3046875,
      "v": 110
    },
    {
      "midi": 37,
      "hit": false,
      "t": 33281.25,
      "d": 229.4921875,
      "v": 110
    },
    {
      "midi": 62,
      "hit": false,
      "t": 33398.4375,
      "d": 112.3046875,
      "v": 110
    },
    {
      "midi": 66,
      "hit": false,
      "t": 33398.4375,
      "d": 112.3046875,
      "v": 110
    },
    {
      "midi": 64,
      "hit": false,
      "t": 33515.625,
      "d": 112.3046875,
      "v": 110
    },
    {
      "midi": 67,
      "hit": false,
      "t": 33515.625,
      "d": 112.3046875,
      "v": 110
    },
    {
      "midi": 49,
      "hit": false,
      "t": 33515.625,
      "d": 229.4921875,
      "v": 110
    },
    {
      "midi": 64,
      "hit": false,
      "t": 33632.8125,
      "d": 112.3046875,
      "v": 110
    },
    {
      "midi": 62,
      "hit": false,
      "t": 33750,
      "d": 346.6796875,
      "v": 110
    },
    {
      "midi": 66,
      "hit": false,
      "t": 33750,
      "d": 346.6796875,
      "v": 110
    },
    {
      "midi": 38,
      "hit": false,
      "t": 33750,
      "d": 229.4921875,
      "v": 110
    },
    {
      "midi": 50,
      "hit": false,
      "t": 33984.375,
      "d": 229.4921875,
      "v": 110
    },
    {
      "midi": 64,
      "hit": false,
      "t": 34101.5625,
      "d": 112.3046875,
      "v": 110
    },
    {
      "midi": 67,
      "hit": false,
      "t": 34101.5625,
      "d": 112.3046875,
      "v": 110
    },
    {
      "midi": 66,
      "hit": false,
      "t": 34218.75,
      "d": 229.4921875,
      "v": 110
    },
    {
      "midi": 69,
      "hit": false,
      "t": 34218.75,
      "d": 229.4921875,
      "v": 110
    },
    {
      "midi": 37,
      "hit": false,
      "t": 34218.75,
      "d": 229.4921875,
      "v": 110
    },
    {
      "midi": 62,
      "hit": false,
      "t": 34453.125,
      "d": 229.4921875,
      "v": 110
    },
    {
      "midi": 49,
      "hit": false,
      "t": 34453.125,
      "d": 229.4921875,
      "v": 110
    },
    {
      "midi": 61,
      "hit": false,
      "t": 34687.5,
      "d": 229.4921875,
      "v": 110
    },
    {
      "midi": 35,
      "hit": false,
      "t": 34687.5,
      "d": 229.4921875,
      "v": 110
    },
    {
      "midi": 67,
      "hit": false,
      "t": 34921.875,
      "d": 229.4921875,
      "v": 110
    },
    {
      "midi": 71,
      "hit": false,
      "t": 34921.875,
      "d": 229.4921875,
      "v": 110
    },
    {
      "midi": 47,
      "hit": false,
      "t": 34921.875,
      "d": 229.4921875,
      "v": 110
    },
    {
      "midi": 66,
      "hit": false,
      "t": 35156.25,
      "d": 112.3046875,
      "v": 110
    },
    {
      "midi": 69,
      "hit": false,
      "t": 35156.25,
      "d": 112.3046875,
      "v": 110
    },
    {
      "midi": 37,
      "hit": false,
      "t": 35156.25,
      "d": 229.4921875,
      "v": 110
    },
    {
      "midi": 64,
      "hit": false,
      "t": 35273.4375,
      "d": 112.3046875,
      "v": 110
    },
    {
      "midi": 67,
      "hit": false,
      "t": 35273.4375,
      "d": 112.3046875,
      "v": 110
    },
    {
      "midi": 66,
      "hit": false,
      "t": 35390.625,
      "d": 229.4921875,
      "v": 110
    },
    {
      "midi": 69,
      "hit": false,
      "t": 35390.625,
      "d": 229.4921875,
      "v": 110
    },
    {
      "midi": 49,
      "hit": false,
      "t": 35390.625,
      "d": 229.4921875,
      "v": 110
    },
    {
      "midi": 61,
      "hit": false,
      "t": 35625,
      "d": 229.4921875,
      "v": 110
    },
    {
      "midi": 64,
      "hit": false,
      "t": 35625,
      "d": 229.4921875,
      "v": 110
    },
    {
      "midi": 33,
      "hit": false,
      "t": 35625,
      "d": 229.4921875,
      "v": 110
    },
    {
      "midi": 61,
      "hit": false,
      "t": 35859.375,
      "d": 112.3046875,
      "v": 110
    },
    {
      "midi": 69,
      "hit": false,
      "t": 35859.375,
      "d": 112.3046875,
      "v": 110
    },
    {
      "midi": 45,
      "hit": false,
      "t": 35859.375,
      "d": 229.4921875,
      "v": 110
    },
    {
      "midi": 69,
      "hit": false,
      "t": 35976.5625,
      "d": 112.3046875,
      "v": 110
    },
    {
      "midi": 64,
      "hit": false,
      "t": 36093.75,
      "d": 229.4921875,
      "v": 110
    },
    {
      "midi": 68,
      "hit": false,
      "t": 36093.75,
      "d": 229.4921875,
      "v": 110
    },
    {
      "midi": 40,
      "hit": false,
      "t": 36093.75,
      "d": 229.4921875,
      "v": 110
    },
    {
      "midi": 64,
      "hit": false,
      "t": 36328.125,
      "d": 112.3046875,
      "v": 110
    },
    {
      "midi": 71,
      "hit": false,
      "t": 36328.125,
      "d": 112.3046875,
      "v": 110
    },
    {
      "midi": 52,
      "hit": false,
      "t": 36328.125,
      "d": 229.4921875,
      "v": 110
    },
    {
      "midi": 71,
      "hit": false,
      "t": 36445.3125,
      "d": 112.3046875,
      "v": 110
    },
    {
      "midi": 61,
      "hit": false,
      "t": 36562.5,
      "d": 820.3125,
      "v": 110
    },
    {
      "midi": 64,
      "hit": false,
      "t": 36562.5,
      "d": 820.3125,
      "v": 110
    },
    {
      "midi": 69,
      "hit": false,
      "t": 36562.5,
      "d": 820.3125,
      "v": 110
    },
    {
      "midi": 45,
      "hit": false,
      "t": 36562.5,
      "d": 229.4921875,
      "v": 110
    },
    {
      "midi": 40,
      "hit": false,
      "t": 36796.875,
      "d": 229.4921875,
      "v": 110
    },
    {
      "midi": 33,
      "hit": false,
      "t": 37031.25,
      "d": 390.625,
      "v": 110
    },
    {
      "midi": 62,
      "hit": false,
      "t": 37500,
      "d": 581.0546875,
      "v": 110
    },
    {
      "midi": 67,
      "hit": false,
      "t": 37500,
      "d": 581.0546875,
      "v": 110
    },
    {
      "midi": 71,
      "hit": false,
      "t": 37500,
      "d": 581.0546875,
      "v": 110
    },
    {
      "midi": 31,
      "hit": false,
      "t": 37500,
      "d": 229.4921875,
      "v": 110
    },
    {
      "midi": 43,
      "hit": false,
      "t": 37734.375,
      "d": 229.4921875,
      "v": 110
    },
    {
      "midi": 31,
      "hit": false,
      "t": 37968.75,
      "d": 229.4921875,
      "v": 110
    },
    {
      "midi": 73,
      "hit": false,
      "t": 38085.9375,
      "d": 112.3046875,
      "v": 110
    },
    {
      "midi": 74,
      "hit": false,
      "t": 38203.125,
      "d": 112.3046875,
      "v": 110
    },
    {
      "midi": 43,
      "hit": false,
      "t": 38203.125,
      "d": 229.4921875,
      "v": 110
    },
    {
      "midi": 76,
      "hit": false,
      "t": 38320.3125,
      "d": 112.3046875,
      "v": 110
    },
    {
      "midi": 62,
      "hit": false,
      "t": 38437.5,
      "d": 229.4921875,
      "v": 110
    },
    {
      "midi": 69,
      "hit": false,
      "t": 38437.5,
      "d": 229.4921875,
      "v": 110
    },
    {
      "midi": 33,
      "hit": false,
      "t": 38437.5,
      "d": 229.4921875,
      "v": 110
    },
    {
      "midi": 66,
      "hit": false,
      "t": 38671.875,
      "d": 229.4921875,
      "v": 110
    },
    {
      "midi": 45,
      "hit": false,
      "t": 38671.875,
      "d": 229.4921875,
      "v": 110
    },
    {
      "midi": 69,
      "hit": false,
      "t": 38906.25,
      "d": 229.4921875,
      "v": 110
    },
    {
      "midi": 33,
      "hit": false,
      "t": 38906.25,
      "d": 229.4921875,
      "v": 110
    },
    {
      "midi": 67,
      "hit": false,
      "t": 39140.625,
      "d": 112.3046875,
      "v": 110
    },
    {
      "midi": 45,
      "hit": false,
      "t": 39140.625,
      "d": 229.4921875,
      "v": 110
    },
    {
      "midi": 66,
      "hit": false,
      "t": 39257.8125,
      "d": 112.3046875,
      "v": 110
    },
    {
      "midi": 61,
      "hit": false,
      "t": 39375,
      "d": 229.4921875,
      "v": 110
    },
    {
      "midi": 67,
      "hit": false,
      "t": 39375,
      "d": 229.4921875,
      "v": 110
    },
    {
      "midi": 33,
      "hit": false,
      "t": 39375,
      "d": 229.4921875,
      "v": 110
    },
    {
      "midi": 64,
      "hit": false,
      "t": 39609.375,
      "d": 229.4921875,
      "v": 110
    },
    {
      "midi": 45,
      "hit": false,
      "t": 39609.375,
      "d": 229.4921875,
      "v": 110
    },
    {
      "midi": 67,
      "hit": false,
      "t": 39843.75,
      "d": 229.4921875,
      "v": 110
    },
    {
      "midi": 33,
      "hit": false,
      "t": 39843.75,
      "d": 229.4921875,
      "v": 110
    },
    {
      "midi": 66,
      "hit": false,
      "t": 40078.125,
      "d": 112.3046875,
      "v": 110
    },
    {
      "midi": 45,
      "hit": false,
      "t": 40078.125,
      "d": 229.4921875,
      "v": 110
    },
    {
      "midi": 64,
      "hit": false,
      "t": 40195.3125,
      "d": 112.3046875,
      "v": 110
    },
    {
      "midi": 62,
      "hit": false,
      "t": 40312.5,
      "d": 229.4921875,
      "v": 110
    },
    {
      "midi": 66,
      "hit": false,
      "t": 40312.5,
      "d": 229.4921875,
      "v": 110
    },
    {
      "midi": 38,
      "hit": false,
      "t": 40312.5,
      "d": 229.4921875,
      "v": 110
    },
    {
      "midi": 69,
      "hit": false,
      "t": 40546.875,
      "d": 229.4921875,
      "v": 110
    },
    {
      "midi": 50,
      "hit": false,
      "t": 40546.875,
      "d": 229.4921875,
      "v": 110
    },
    {
      "midi": 66,
      "hit": false,
      "t": 40781.25,
      "d": 390.625,
      "v": 110
    },
    {
      "midi": 74,
      "hit": false,
      "t": 40781.25,
      "d": 390.625,
      "v": 110
    },
    {
      "midi": 38,
      "hit": false,
      "t": 40781.25,
      "d": 229.4921875,
      "v": 110
    },
    {
      "midi": 50,
      "hit": false,
      "t": 41015.625,
      "d": 229.4921875,
      "v": 110
    },
    {
      "midi": 67,
      "hit": false,
      "t": 41250,
      "d": 390.625,
      "v": 110
    },
    {
      "midi": 71,
      "hit": false,
      "t": 41250,
      "d": 581.0546875,
      "v": 110
    },
    {
      "midi": 31,
      "hit": false,
      "t": 41250,
      "d": 229.4921875,
      "v": 110
    },
    {
      "midi": 43,
      "hit": false,
      "t": 41484.375,
      "d": 229.4921875,
      "v": 110
    },
    {
      "midi": 31,
      "hit": false,
      "t": 41718.75,
      "d": 229.4921875,
      "v": 110
    },
    {
      "midi": 73,
      "hit": false,
      "t": 41835.9375,
      "d": 112.3046875,
      "v": 110
    },
    {
      "midi": 74,
      "hit": false,
      "t": 41953.125,
      "d": 112.3046875,
      "v": 110
    },
    {
      "midi": 43,
      "hit": false,
      "t": 41953.125,
      "d": 229.4921875,
      "v": 110
    },
    {
      "midi": 76,
      "hit": false,
      "t": 42070.3125,
      "d": 112.3046875,
      "v": 110
    },
    {
      "midi": 62,
      "hit": false,
      "t": 42187.5,
      "d": 229.4921875,
      "v": 110
    },
    {
      "midi": 66,
      "hit": false,
      "t": 42187.5,
      "d": 229.4921875,
      "v": 110
    },
    {
      "midi": 69,
      "hit": false,
      "t": 42187.5,
      "d": 229.4921875,
      "v": 110
    },
    {
      "midi": 33,
      "hit": false,
      "t": 42187.5,
      "d": 229.4921875,
      "v": 110
    },
    {
      "midi": 66,
      "hit": false,
      "t": 42421.875,
      "d": 229.4921875,
      "v": 110
    },
    {
      "midi": 45,
      "hit": false,
      "t": 42421.875,
      "d": 229.4921875,
      "v": 110
    },
    {
      "midi": 69,
      "hit": false,
      "t": 42656.25,
      "d": 229.4921875,
      "v": 110
    },
    {
      "midi": 33,
      "hit": false,
      "t": 42656.25,
      "d": 229.4921875,
      "v": 110
    },
    {
      "midi": 67,
      "hit": false,
      "t": 42890.625,
      "d": 112.3046875,
      "v": 110
    },
    {
      "midi": 45,
      "hit": false,
      "t": 42890.625,
      "d": 229.4921875,
      "v": 110
    },
    {
      "midi": 66,
      "hit": false,
      "t": 43007.8125,
      "d": 112.3046875,
      "v": 110
    },
    {
      "midi": 61,
      "hit": false,
      "t": 43125,
      "d": 229.4921875,
      "v": 110
    },
    {
      "midi": 64,
      "hit": false,
      "t": 43125,
      "d": 229.4921875,
      "v": 110
    },
    {
      "midi": 67,
      "hit": false,
      "t": 43125,
      "d": 229.4921875,
      "v": 110
    },
    {
      "midi": 33,
      "hit": false,
      "t": 43125,
      "d": 229.4921875,
      "v": 110
    },
    {
      "midi": 64,
      "hit": false,
      "t": 43359.375,
      "d": 229.4921875,
      "v": 110
    },
    {
      "midi": 45,
      "hit": false,
      "t": 43359.375,
      "d": 229.4921875,
      "v": 110
    },
    {
      "midi": 67,
      "hit": false,
      "t": 43593.75,
      "d": 229.4921875,
      "v": 110
    },
    {
      "midi": 33,
      "hit": false,
      "t": 43593.75,
      "d": 229.4921875,
      "v": 110
    },
    {
      "midi": 66,
      "hit": false,
      "t": 43828.125,
      "d": 112.3046875,
      "v": 110
    },
    {
      "midi": 45,
      "hit": false,
      "t": 43828.125,
      "d": 229.4921875,
      "v": 110
    },
    {
      "midi": 64,
      "hit": false,
      "t": 43945.3125,
      "d": 112.3046875,
      "v": 110
    },
    {
      "midi": 62,
      "hit": false,
      "t": 44062.5,
      "d": 112.3046875,
      "v": 110
    },
    {
      "midi": 66,
      "hit": false,
      "t": 44062.5,
      "d": 112.3046875,
      "v": 110
    },
    {
      "midi": 38,
      "hit": false,
      "t": 44062.5,
      "d": 229.4921875,
      "v": 110
    },
    {
      "midi": 69,
      "hit": false,
      "t": 44179.6875,
      "d": 112.3046875,
      "v": 110
    },
    {
      "midi": 74,
      "hit": false,
      "t": 44296.875,
      "d": 112.3046875,
      "v": 110
    },
    {
      "midi": 50,
      "hit": false,
      "t": 44296.875,
      "d": 229.4921875,
      "v": 110
    },
    {
      "midi": 76,
      "hit": false,
      "t": 44414.0625,
      "d": 112.3046875,
      "v": 110
    },
    {
      "midi": 78,
      "hit": false,
      "t": 44531.25,
      "d": 229.4921875,
      "v": 110
    },
    {
      "midi": 38,
      "hit": false,
      "t": 44531.25,
      "d": 229.4921875,
      "v": 110
    },
    {
      "midi": 74,
      "hit": false,
      "t": 44765.625,
      "d": 112.3046875,
      "v": 110
    },
    {
      "midi": 50,
      "hit": false,
      "t": 44765.625,
      "d": 229.4921875,
      "v": 110
    },
    {
      "midi": 74,
      "hit": false,
      "t": 44882.8125,
      "d": 112.3046875,
      "v": 110
    },
    {
      "midi": 71,
      "hit": false,
      "t": 45000,
      "d": 229.4921875,
      "v": 110
    },
    {
      "midi": 74,
      "hit": false,
      "t": 45000,
      "d": 229.4921875,
      "v": 110
    },
    {
      "midi": 31,
      "hit": false,
      "t": 45000,
      "d": 229.4921875,
      "v": 110
    },
    {
      "midi": 83,
      "hit": false,
      "t": 45234.375,
      "d": 229.4921875,
      "v": 110
    },
    {
      "midi": 43,
      "hit": false,
      "t": 45234.375,
      "d": 229.4921875,
      "v": 110
    },
    {
      "midi": 71,
      "hit": false,
      "t": 45468.75,
      "d": 112.3046875,
      "v": 110
    },
    {
      "midi": 79,
      "hit": false,
      "t": 45468.75,
      "d": 112.3046875,
      "v": 110
    },
    {
      "midi": 31,
      "hit": false,
      "t": 45468.75,
      "d": 229.4921875,
      "v": 110
    },
    {
      "midi": 73,
      "hit": false,
      "t": 45585.9375,
      "d": 112.3046875,
      "v": 110
    },
    {
      "midi": 74,
      "hit": false,
      "t": 45703.125,
      "d": 112.3046875,
      "v": 110
    },
    {
      "midi": 43,
      "hit": false,
      "t": 45703.125,
      "d": 229.4921875,
      "v": 110
    },
    {
      "midi": 76,
      "hit": false,
      "t": 45820.3125,
      "d": 112.3046875,
      "v": 110
    },
    {
      "midi": 69,
      "hit": false,
      "t": 45937.5,
      "d": 229.4921875,
      "v": 110
    },
    {
      "midi": 74,
      "hit": false,
      "t": 45937.5,
      "d": 229.4921875,
      "v": 110
    },
    {
      "midi": 33,
      "hit": false,
      "t": 45937.5,
      "d": 229.4921875,
      "v": 110
    },
    {
      "midi": 81,
      "hit": false,
      "t": 46171.875,
      "d": 229.4921875,
      "v": 110
    },
    {
      "midi": 45,
      "hit": false,
      "t": 46171.875,
      "d": 229.4921875,
      "v": 110
    },
    {
      "midi": 69,
      "hit": false,
      "t": 46406.25,
      "d": 229.4921875,
      "v": 110
    },
    {
      "midi": 78,
      "hit": false,
      "t": 46406.25,
      "d": 229.4921875,
      "v": 110
    },
    {
      "midi": 33,
      "hit": false,
      "t": 46406.25,
      "d": 229.4921875,
      "v": 110
    },
    {
      "midi": 67,
      "hit": false,
      "t": 46640.625,
      "d": 112.3046875,
      "v": 110
    },
    {
      "midi": 74,
      "hit": false,
      "t": 46640.625,
      "d": 112.3046875,
      "v": 110
    },
    {
      "midi": 45,
      "hit": false,
      "t": 46640.625,
      "d": 229.4921875,
      "v": 110
    },
    {
      "midi": 66,
      "hit": false,
      "t": 46757.8125,
      "d": 112.3046875,
      "v": 110
    },
    {
      "midi": 74,
      "hit": false,
      "t": 46757.8125,
      "d": 112.3046875,
      "v": 110
    },
    {
      "midi": 67,
      "hit": false,
      "t": 46875,
      "d": 229.4921875,
      "v": 110
    },
    {
      "midi": 73,
      "hit": false,
      "t": 46875,
      "d": 229.4921875,
      "v": 110
    },
    {
      "midi": 33,
      "hit": false,
      "t": 46875,
      "d": 229.4921875,
      "v": 110
    },
    {
      "midi": 74,
      "hit": false,
      "t": 47109.375,
      "d": 112.3046875,
      "v": 110
    },
    {
      "midi": 45,
      "hit": false,
      "t": 47109.375,
      "d": 229.4921875,
      "v": 110
    },
    {
      "midi": 76,
      "hit": false,
      "t": 47226.5625,
      "d": 112.3046875,
      "v": 110
    },
    {
      "midi": 73,
      "hit": false,
      "t": 47343.75,
      "d": 112.3046875,
      "v": 110
    },
    {
      "midi": 33,
      "hit": false,
      "t": 47343.75,
      "d": 229.4921875,
      "v": 110
    },
    {
      "midi": 69,
      "hit": false,
      "t": 47460.9375,
      "d": 112.3046875,
      "v": 110
    },
    {
      "midi": 71,
      "hit": false,
      "t": 47578.125,
      "d": 112.3046875,
      "v": 110
    },
    {
      "midi": 45,
      "hit": false,
      "t": 47578.125,
      "d": 229.4921875,
      "v": 110
    },
    {
      "midi": 73,
      "hit": false,
      "t": 47695.3125,
      "d": 112.3046875,
      "v": 110
    },
    {
      "midi": 66,
      "hit": false,
      "t": 47812.5,
      "d": 229.4921875,
      "v": 110
    },
    {
      "midi": 74,
      "hit": false,
      "t": 47812.5,
      "d": 229.4921875,
      "v": 110
    },
    {
      "midi": 38,
      "hit": false,
      "t": 47812.5,
      "d": 229.4921875,
      "v": 110
    },
    {
      "midi": 69,
      "hit": false,
      "t": 48046.875,
      "d": 229.4921875,
      "v": 110
    },
    {
      "midi": 76,
      "hit": false,
      "t": 48046.875,
      "d": 229.4921875,
      "v": 110
    },
    {
      "midi": 50,
      "hit": false,
      "t": 48046.875,
      "d": 229.4921875,
      "v": 110
    },
    {
      "midi": 66,
      "hit": false,
      "t": 48281.25,
      "d": 229.4921875,
      "v": 110
    },
    {
      "midi": 78,
      "hit": false,
      "t": 48281.25,
      "d": 229.4921875,
      "v": 110
    },
    {
      "midi": 38,
      "hit": false,
      "t": 48281.25,
      "d": 229.4921875,
      "v": 110
    },
    {
      "midi": 78,
      "hit": false,
      "t": 48515.625,
      "d": 112.3046875,
      "v": 110
    },
    {
      "midi": 50,
      "hit": false,
      "t": 48515.625,
      "d": 229.4921875,
      "v": 110
    },
    {
      "midi": 78,
      "hit": false,
      "t": 48632.8125,
      "d": 112.3046875,
      "v": 110
    },
    {
      "midi": 67,
      "hit": false,
      "t": 48750,
      "d": 390.625,
      "v": 110
    },
    {
      "midi": 71,
      "hit": false,
      "t": 48750,
      "d": 581.0546875,
      "v": 110
    },
    {
      "midi": 31,
      "hit": false,
      "t": 48750,
      "d": 229.4921875,
      "v": 110
    },
    {
      "midi": 43,
      "hit": false,
      "t": 48984.375,
      "d": 229.4921875,
      "v": 110
    },
    {
      "midi": 31,
      "hit": false,
      "t": 49218.75,
      "d": 229.4921875,
      "v": 110
    },
    {
      "midi": 73,
      "hit": false,
      "t": 49335.9375,
      "d": 112.3046875,
      "v": 110
    },
    {
      "midi": 74,
      "hit": false,
      "t": 49453.125,
      "d": 112.3046875,
      "v": 110
    },
    {
      "midi": 43,
      "hit": false,
      "t": 49453.125,
      "d": 229.4921875,
      "v": 110
    },
    {
      "midi": 76,
      "hit": false,
      "t": 49570.3125,
      "d": 112.3046875,
      "v": 110
    },
    {
      "midi": 66,
      "hit": false,
      "t": 49687.5,
      "d": 229.4921875,
      "v": 110
    },
    {
      "midi": 69,
      "hit": false,
      "t": 49687.5,
      "d": 229.4921875,
      "v": 110
    },
    {
      "midi": 33,
      "hit": false,
      "t": 49687.5,
      "d": 229.4921875,
      "v": 110
    },
    {
      "midi": 78,
      "hit": false,
      "t": 49921.875,
      "d": 229.4921875,
      "v": 110
    },
    {
      "midi": 45,
      "hit": false,
      "t": 49921.875,
      "d": 229.4921875,
      "v": 110
    },
    {
      "midi": 76,
      "hit": false,
      "t": 50156.25,
      "d": 229.4921875,
      "v": 110
    },
    {
      "midi": 33,
      "hit": false,
      "t": 50156.25,
      "d": 229.4921875,
      "v": 110
    },
    {
      "midi": 74,
      "hit": false,
      "t": 50390.625,
      "d": 112.3046875,
      "v": 110
    },
    {
      "midi": 45,
      "hit": false,
      "t": 50390.625,
      "d": 229.4921875,
      "v": 110
    },
    {
      "midi": 76,
      "hit": false,
      "t": 50507.8125,
      "d": 112.3046875,
      "v": 110
    },
    {
      "midi": 69,
      "hit": false,
      "t": 50625,
      "d": 229.4921875,
      "v": 110
    },
    {
      "midi": 74,
      "hit": false,
      "t": 50625,
      "d": 229.4921875,
      "v": 110
    },
    {
      "midi": 78,
      "hit": false,
      "t": 50625,
      "d": 229.4921875,
      "v": 110
    },
    {
      "midi": 33,
      "hit": false,
      "t": 50625,
      "d": 229.4921875,
      "v": 110
    },
    {
      "midi": 76,
      "hit": false,
      "t": 50859.375,
      "d": 112.3046875,
      "v": 110
    },
    {
      "midi": 45,
      "hit": false,
      "t": 50859.375,
      "d": 229.4921875,
      "v": 110
    },
    {
      "midi": 74,
      "hit": false,
      "t": 50976.5625,
      "d": 112.3046875,
      "v": 110
    },
    {
      "midi": 64,
      "hit": false,
      "t": 51093.75,
      "d": 229.4921875,
      "v": 110
    },
    {
      "midi": 69,
      "hit": false,
      "t": 51093.75,
      "d": 229.4921875,
      "v": 110
    },
    {
      "midi": 73,
      "hit": false,
      "t": 51093.75,
      "d": 229.4921875,
      "v": 110
    },
    {
      "midi": 33,
      "hit": false,
      "t": 51093.75,
      "d": 229.4921875,
      "v": 110
    },
    {
      "midi": 69,
      "hit": false,
      "t": 51328.125,
      "d": 229.4921875,
      "v": 110
    },
    {
      "midi": 73,
      "hit": false,
      "t": 51328.125,
      "d": 229.4921875,
      "v": 110
    },
    {
      "midi": 76,
      "hit": false,
      "t": 51328.125,
      "d": 229.4921875,
      "v": 110
    },
    {
      "midi": 45,
      "hit": false,
      "t": 51328.125,
      "d": 229.4921875,
      "v": 110
    },
    {
      "midi": 62,
      "hit": false,
      "t": 51562.5,
      "d": 820.3125,
      "v": 110
    },
    {
      "midi": 66,
      "hit": false,
      "t": 51562.5,
      "d": 820.3125,
      "v": 110
    },
    {
      "midi": 69,
      "hit": false,
      "t": 51562.5,
      "d": 820.3125,
      "v": 110
    },
    {
      "midi": 74,
      "hit": false,
      "t": 51562.5,
      "d": 820.3125,
      "v": 110
    },
    {
      "midi": 50,
      "hit": false,
      "t": 51562.5,
      "d": 229.4921875,
      "v": 110
    },
    {
      "midi": 45,
      "hit": false,
      "t": 51796.875,
      "d": 229.4921875,
      "v": 110
    },
    {
      "midi": 38,
      "hit": false,
      "t": 52031.25,
      "d": 390.625,
      "v": 110
    }
  ]
}