{
  "jsonPath": "Unknown/Unknown/Henri Bertini/light-repeated-notes-in-the-right-hand.json",
  "path": "Unknown\\Unknown\\Henri Bertini\\Light Repeated Notes in the Right Hand.mid",
  "name": "Light Repeated Notes in the Right Hand",
  "difficulty": "Advanced",
  "bpm": 100,
  "notes": [
    {
      "midi": 67,
      "hit": false,
      "t": 0,
      "d": 150,
      "v": 70
    },
    {
      "midi": 48,
      "hit": false,
      "t": 0,
      "d": 900,
      "v": 66
    },
    {
      "midi": 52,
      "hit": false,
      "t": 0,
      "d": 900,
      "v": 66
    },
    {
      "midi": 55,
      "hit": false,
      "t": 0,
      "d": 900,
      "v": 66
    },
    {
      "midi": 67,
      "hit": false,
      "t": 150,
      "d": 150,
      "v": 76
    },
    {
      "midi": 67,
      "hit": false,
      "t": 300,
      "d": 150,
      "v": 77
    },
    {
      "midi": 67,
      "hit": false,
      "t": 450,
      "d": 150,
      "v": 72
    },
    {
      "midi": 69,
      "hit": false,
      "t": 600,
      "d": 150,
      "v": 79
    },
    {
      "midi": 71,
      "hit": false,
      "t": 750,
      "d": 150,
      "v": 81
    },
    {
      "midi": 72,
      "hit": false,
      "t": 900,
      "d": 150,
      "v": 78
    },
    {
      "midi": 48,
      "hit": false,
      "t": 900,
      "d": 900,
      "v": 77
    },
    {
      "midi": 52,
      "hit": false,
      "t": 900,
      "d": 900,
      "v": 77
    },
    {
      "midi": 55,
      "hit": false,
      "t": 900,
      "d": 900,
      "v": 77
    },
    {
      "midi": 72,
      "hit": false,
      "t": 1050,
      "d": 150,
      "v": 72
    },
    {
      "midi": 72,
      "hit": false,
      "t": 1200,
      "d": 150,
      "v": 70
    },
    {
      "midi": 72,
      "hit": false,
      "t": 1350,
      "d": 150,
      "v": 77
    },
    {
      "midi": 74,
      "hit": false,
      "t": 1500,
      "d": 150,
      "v": 82
    },
    {
      "midi": 76,
      "hit": false,
      "t": 1650,
      "d": 150,
      "v": 84
    },
    {
      "midi": 77,
      "hit": false,
      "t": 1800,
      "d": 1200,
      "v": 83
    },
    {
      "midi": 48,
      "hit": false,
      "t": 1800,
      "d": 1200,
      "v": 78
    },
    {
      "midi": 50,
      "hit": false,
      "t": 1800,
      "d": 1200,
      "v": 78
    },
    {
      "midi": 57,
      "hit": false,
      "t": 1800,
      "d": 1200,
      "v": 78
    },
    {
      "midi": 74,
      "hit": false,
      "t": 3600,
      "d": 150,
      "v": 67
    },
    {
      "midi": 48,
      "hit": false,
      "t": 3600,
      "d": 900,
      "v": 68
    },
    {
      "midi": 53,
      "hit": false,
      "t": 3600,
      "d": 900,
      "v": 68
    },
    {
      "midi": 59,
      "hit": false,
      "t": 3600,
      "d": 900,
      "v": 68
    },
    {
      "midi": 74,
      "hit": false,
      "t": 3750,
      "d": 150,
      "v": 73
    },
    {
      "midi": 74,
      "hit": false,
      "t": 3900,
      "d": 150,
      "v": 75
    },
    {
      "midi": 74,
      "hit": false,
      "t": 4050,
      "d": 150,
      "v": 74
    },
    {
      "midi": 76,
      "hit": false,
      "t": 4200,
      "d": 150,
      "v": 82
    },
    {
      "midi": 77,
      "hit": false,
      "t": 4350,
      "d": 150,
      "v": 79
    },
    {
      "midi": 79,
      "hit": false,
      "t": 4500,
      "d": 150,
      "v": 81
    },
    {
      "midi": 48,
      "hit": false,
      "t": 4500,
      "d": 900,
      "v": 71
    },
    {
      "midi": 53,
      "hit": false,
      "t": 4500,
      "d": 900,
      "v": 71
    },
    {
      "midi": 55,
      "hit": false,
      "t": 4500,
      "d": 900,
      "v": 71
    },
    {
      "midi": 79,
      "hit": false,
      "t": 4650,
      "d": 150,
      "v": 80
    },
    {
      "midi": 79,
      "hit": false,
      "t": 4800,
      "d": 150,
      "v": 77
    },
    {
      "midi": 79,
      "hit": false,
      "t": 4950,
      "d": 150,
      "v": 77
    },
    {
      "midi": 81,
      "hit": false,
      "t": 5100,
      "d": 150,
      "v": 75
    },
    {
      "midi": 83,
      "hit": false,
      "t": 5250,
      "d": 150,
      "v": 80
    },
    {
      "midi": 84,
      "hit": false,
      "t": 5400,
      "d": 1200,
      "v": 85
    },
    {
      "midi": 48,
      "hit": false,
      "t": 5400,
      "d": 1200,
      "v": 78
    },
    {
      "midi": 52,
      "hit": false,
      "t": 5400,
      "d": 1200,
      "v": 78
    },
    {
      "midi": 55,
      "hit": false,
      "t": 5400,
      "d": 1200,
      "v": 78
    },
    {
      "midi": 81,
      "hit": false,
      "t": 7200,
      "d": 150,
      "v": 72
    },
    {
      "midi": 54,
      "hit": false,
      "t": 7200,
      "d": 900,
      "v": 70
    },
    {
      "midi": 60,
      "hit": false,
      "t": 7200,
      "d": 900,
      "v": 70
    },
    {
      "midi": 62,
      "hit": false,
      "t": 7200,
      "d": 900,
      "v": 70
    },
    {
      "midi": 81,
      "hit": false,
      "t": 7350,
      "d": 150,
      "v": 75
    },
    {
      "midi": 81,
      "hit": false,
      "t": 7500,
      "d": 150,
      "v": 75
    },
    {
      "midi": 81,
      "hit": false,
      "t": 7650,
      "d": 150,
      "v": 79
    },
    {
      "midi": 83,
      "hit": false,
      "t": 7800,
      "d": 150,
      "v": 85
    },
    {
      "midi": 84,
      "hit": false,
      "t": 7950,
      "d": 150,
      "v": 81
    },
    {
      "midi": 86,
      "hit": false,
      "t": 8100,
      "d": 300,
      "v": 84
    },
    {
      "midi": 54,
      "hit": false,
      "t": 8100,
      "d": 900,
      "v": 71
    },
    {
      "midi": 60,
      "hit": false,
      "t": 8100,
      "d": 900,
      "v": 71
    },
    {
      "midi": 62,
      "hit": false,
      "t": 8100,
      "d": 900,
      "v": 71
    },
    {
      "midi": 86,
      "hit": false,
      "t": 9000,
      "d": 150,
      "v": 68
    },
    {
      "midi": 55,
      "hit": false,
      "t": 9000,
      "d": 900,
      "v": 78
    },
    {
      "midi": 59,
      "hit": false,
      "t": 9000,
      "d": 900,
      "v": 78
    },
    {
      "midi": 62,
      "hit": false,
      "t": 9000,
      "d": 900,
      "v": 78
    },
    {
      "midi": 86,
      "hit": false,
      "t": 9150,
      "d": 150,
      "v": 73
    },
    {
      "midi": 86,
      "hit": false,
      "t": 9300,
      "d": 150,
      "v": 80
    },
    {
      "midi": 86,
      "hit": false,
      "t": 9450,
      "d": 150,
      "v": 76
    },
    {
      "midi": 88,
      "hit": false,
      "t": 9600,
      "d": 150,
      "v": 80
    },
    {
      "midi": 90,
      "hit": false,
      "t": 9750,
      "d": 150,
      "v": 81
    },
    {
      "midi": 91,
      "hit": false,
      "t": 9900,
      "d": 300,
      "v": 81
    },
    {
      "midi": 55,
      "hit": false,
      "t": 9900,
      "d": 900,
      "v": 76
    },
    {
      "midi": 59,
      "hit": false,
      "t": 9900,
      "d": 900,
      "v": 76
    },
    {
      "midi": 62,
      "hit": false,
      "t": 9900,
      "d": 900,
      "v": 76
    },
    {
      "midi": 91,
      "hit": false,
      "t": 10800,
      "d": 150,
      "v": 71
    },
    {
      "midi": 50,
      "hit": false,
      "t": 10800,
      "d": 900,
      "v": 71
    },
    {
      "midi": 55,
      "hit": false,
      "t": 10800,
      "d": 900,
      "v": 71
    },
    {
      "midi": 59,
      "hit": false,
      "t": 10800,
      "d": 900,
      "v": 71
    },
    {
      "midi": 93,
      "hit": false,
      "t": 10950,
      "d": 150,
      "v": 79
    },
    {
      "midi": 95,
      "hit": false,
      "t": 11100,
      "d": 150,
      "v": 80
    },
    {
      "midi": 96,
      "hit": false,
      "t": 11250,
      "d": 150,
      "v": 79
    },
    {
      "midi": 98,
      "hit": false,
      "t": 11400,
      "d": 300,
      "v": 83
    },
    {
      "midi": 50,
      "hit": false,
      "t": 11700,
      "d": 900,
      "v": 83
    },
    {
      "midi": 57,
      "hit": false,
      "t": 11700,
      "d": 900,
      "v": 83
    },
    {
      "midi": 60,
      "hit": false,
      "t": 11700,
      "d": 900,
      "v": 83
    },
    {
      "midi": 86,
      "hit": false,
      "t": 12000,
      "d": 150,
      "v": 71
    },
    {
      "midi": 88,
      "hit": false,
      "t": 12150,
      "d": 150,
      "v": 82
    },
    {
      "midi": 89,
      "hit": false,
      "t": 12300,
      "d": 150,
      "v": 79
    },
    {
      "midi": 90,
      "hit": false,
      "t": 12450,
      "d": 150,
      "v": 82
    },
    {
      "midi": 91,
      "hit": false,
      "t": 12600,
      "d": 900,
      "v": 78
    },
    {
      "midi": 55,
      "hit": false,
      "t": 12600,
      "d": 900,
      "v": 71
    },
    {
      "midi": 59,
      "hit": false,
      "t": 12600,
      "d": 900,
      "v": 71
    },
    {
      "midi": 79,
      "hit": false,
      "t": 13500,
      "d": 300,
      "v": 55
    },
    {
      "midi": 55,
      "hit": false,
      "t": 13500,
      "d": 300,
      "v": 77
    },
    {
      "midi": 59,
      "hit": false,
      "t": 13500,
      "d": 300,
      "v": 77
    },
    {
      "midi": 74,
      "hit": false,
      "t": 14400,
      "d": 150,
      "v": 65
    },
    {
      "midi": 55,
      "hit": false,
      "t": 14400,
      "d": 900,
      "v": 69
    },
    {
      "midi": 58,
      "hit": false,
      "t": 14400,
      "d": 900,
      "v": 69
    },
    {
      "midi": 62,
      "hit": false,
      "t": 14400,
      "d": 900,
      "v": 69
    },
    {
      "midi": 74,
      "hit": false,
      "t": 14550,
      "d": 150,
      "v": 76
    },
    {
      "midi": 74,
      "hit": false,
      "t": 14700,
      "d": 150,
      "v": 71
    },
    {
      "midi": 74,
      "hit": false,
      "t": 14850,
      "d": 150,
      "v": 77
    },
    {
      "midi": 76,
      "hit": false,
      "t": 15000,
      "d": 150,
      "v": 81
    },
    {
      "midi": 78,
      "hit": false,
      "t": 15150,
      "d": 150,
      "v": 79
    },
    {
      "midi": 79,
      "hit": false,
      "t": 15300,
      "d": 150,
      "v": 81
    },
    {
      "midi": 55,
      "hit": false,
      "t": 15300,
      "d": 900,
      "v": 72
    },
    {
      "midi": 58,
      "hit": false,
      "t": 15300,
      "d": 900,
      "v": 72
    },
    {
      "midi": 62,
      "hit": false,
      "t": 15300,
      "d": 900,
      "v": 72
    },
    {
      "midi": 79,
      "hit": false,
      "t": 15450,
      "d": 150,
      "v": 78
    },
    {
      "midi": 79,
      "hit": false,
      "t": 15600,
      "d": 150,
      "v": 75
    },
    {
      "midi": 79,
      "hit": false,
      "t": 15750,
      "d": 150,
      "v": 74
    },
    {
      "midi": 81,
      "hit": false,
      "t": 15900,
      "d": 150,
      "v": 80
    },
    {
      "midi": 82,
      "hit": false,
      "t": 16050,
      "d": 150,
      "v": 77
    },
    {
      "midi": 86,
      "hit": false,
      "t": 16200,
      "d": 900,
      "v": 83
    },
    {
      "midi": 57,
      "hit": false,
      "t": 16200,
      "d": 1200,
      "v": 89
    },
    {
      "midi": 64,
      "hit": false,
      "t": 16200,
      "d": 1200,
      "v": 89
    },
    {
      "midi": 67,
      "hit": false,
      "t": 16200,
      "d": 1200,
      "v": 89
    },
    {
      "midi": 85,
      "hit": false,
      "t": 17100,
      "d": 300,
      "v": 73
    },
    {
      "midi": 81,
      "hit": false,
      "t": 18000,
      "d": 150,
      "v": 70
    },
    {
      "midi": 57,
      "hit": false,
      "t": 18000,
      "d": 900,
      "v": 70
    },
    {
      "midi": 64,
      "hit": false,
      "t": 18000,
      "d": 900,
      "v": 70
    },
    {
      "midi": 67,
      "hit": false,
      "t": 18000,
      "d": 900,
      "v": 70
    },
    {
      "midi": 81,
      "hit": false,
      "t": 18150,
      "d": 150,
      "v": 72
    },
    {
      "midi": 81,
      "hit": false,
      "t": 18300,
      "d": 150,
      "v": 72
    },
    {
      "midi": 81,
      "hit": false,
      "t": 18450,
      "d": 150,
      "v": 78
    },
    {
      "midi": 83,
      "hit": false,
      "t": 18600,
      "d": 150,
      "v": 83
    },
    {
      "midi": 85,
      "hit": false,
      "t": 18750,
      "d": 150,
      "v": 80
    },
    {
      "midi": 86,
      "hit": false,
      "t": 18900,
      "d": 150,
      "v": 77
    },
    {
      "midi": 57,
      "hit": false,
      "t": 18900,
      "d": 900,
      "v": 71
    },
    {
      "midi": 62,
      "hit": false,
      "t": 18900,
      "d": 900,
      "v": 71
    },
    {
      "midi": 65,
      "hit": false,
      "t": 18900,
      "d": 900,
      "v": 71
    },
    {
      "midi": 86,
      "hit": false,
      "t": 19050,
      "d": 150,
      "v": 78
    },
    {
      "midi": 86,
      "hit": false,
      "t": 19200,
      "d": 150,
      "v": 77
    },
    {
      "midi": 86,
      "hit": false,
      "t": 19350,
      "d": 150,
      "v": 76
    },
    {
      "midi": 88,
      "hit": false,
      "t": 19500,
      "d": 150,
      "v": 81
    },
    {
      "midi": 89,
      "hit": false,
      "t": 19650,
      "d": 150,
      "v": 78
    },
    {
      "midi": 93,
      "hit": false,
      "t": 19800,
      "d": 600,
      "v": 85
    },
    {
      "midi": 57,
      "hit": false,
      "t": 19800,
      "d": 900,
      "v": 73
    },
    {
      "midi": 61,
      "hit": false,
      "t": 19800,
      "d": 900,
      "v": 73
    },
    {
      "midi": 64,
      "hit": false,
      "t": 19800,
      "d": 900,
      "v": 73
    },
    {
      "midi": 91,
      "hit": false,
      "t": 20400,
      "d": 300,
      "v": 74
    },
    {
      "midi": 89,
      "hit": false,
      "t": 20700,
      "d": 300,
      "v": 68
    },
    {
      "midi": 62,
      "hit": false,
      "t": 20700,
      "d": 300,
      "v": 69
    },
    {
      "midi": 76,
      "hit": false,
      "t": 21600,
      "d": 150,
      "v": 70
    },
    {
      "midi": 55,
      "hit": false,
      "t": 21600,
      "d": 300,
      "v": 68
    },
    {
      "midi": 62,
      "hit": false,
      "t": 21600,
      "d": 300,
      "v": 68
    },
    {
      "midi": 64,
      "hit": false,
      "t": 21600,
      "d": 300,
      "v": 68
    },
    {
      "midi": 76,
      "hit": false,
      "t": 21750,
      "d": 150,
      "v": 76
    },
    {
      "midi": 76,
      "hit": false,
      "t": 21900,
      "d": 150,
      "v": 76
    },
    {
      "midi": 76,
      "hit": false,
      "t": 22050,
      "d": 150,
      "v": 75
    },
    {
      "midi": 79,
      "hit": false,
      "t": 22200,
      "d": 150,
      "v": 84
    },
    {
      "midi": 81,
      "hit": false,
      "t": 22350,
      "d": 150,
      "v": 80
    },
    {
      "midi": 82,
      "hit": false,
      "t": 22500,
      "d": 300,
      "v": 82
    },
    {
      "midi": 81,
      "hit": false,
      "t": 23400,
      "d": 150,
      "v": 69
    },
    {
      "midi": 57,
      "hit": false,
      "t": 23400,
      "d": 300,
      "v": 70
    },
    {
      "midi": 64,
      "hit": false,
      "t": 23400,
      "d": 300,
      "v": 70
    },
    {
      "midi": 67,
      "hit": false,
      "t": 23400,
      "d": 300,
      "v": 70
    },
    {
      "midi": 81,
      "hit": false,
      "t": 23550,
      "d": 150,
      "v": 70
    },
    {
      "midi": 81,
      "hit": false,
      "t": 23700,
      "d": 150,
      "v": 77
    },
    {
      "midi": 81,
      "hit": false,
      "t": 23850,
      "d": 150,
      "v": 78
    },
    {
      "midi": 85,
      "hit": false,
      "t": 24000,
      "d": 150,
      "v": 82
    },
    {
      "midi": 86,
      "hit": false,
      "t": 24150,
      "d": 150,
      "v": 78
    },
    {
      "midi": 88,
      "hit": false,
      "t": 24300,
      "d": 300,
      "v": 82
    },
    {
      "midi": 86,
      "hit": false,
      "t": 25200,
      "d": 150,
      "v": 70
    },
    {
      "midi": 57,
      "hit": false,
      "t": 25200,
      "d": 300,
      "v": 69
    },
    {
      "midi": 62,
      "hit": false,
      "t": 25200,
      "d": 300,
      "v": 69
    },
    {
      "midi": 65,
      "hit": false,
      "t": 25200,
      "d": 300,
      "v": 69
    },
    {
      "midi": 86,
      "hit": false,
      "t": 25350,
      "d": 150,
      "v": 70
    },
    {
      "midi": 86,
      "hit": false,
      "t": 25500,
      "d": 150,
      "v": 82
    },
    {
      "midi": 86,
      "hit": false,
      "t": 25650,
      "d": 150,
      "v": 79
    },
    {
      "midi": 89,
      "hit": false,
      "t": 25800,
      "d": 150,
      "v": 76
    },
    {
      "midi": 91,
      "hit": false,
      "t": 25950,
      "d": 150,
      "v": 80
    },
    {
      "midi": 93,
      "hit": false,
      "t": 26100,
      "d": 150,
      "v": 86
    },
    {
      "midi": 57,
      "hit": false,
      "t": 26100,
      "d": 300,
      "v": 68
    },
    {
      "midi": 64,
      "hit": false,
      "t": 26100,
      "d": 300,
      "v": 68
    },
    {
      "midi": 67,
      "hit": false,
      "t": 26100,
      "d": 300,
      "v": 68
    },
    {
      "midi": 93,
      "hit": false,
      "t": 26250,
      "d": 150,
      "v": 78
    },
    {
      "midi": 93,
      "hit": false,
      "t": 26400,
      "d": 150,
      "v": 75
    },
    {
      "midi": 93,
      "hit": false,
      "t": 26550,
      "d": 150,
      "v": 76
    },
    {
      "midi": 95,
      "hit": false,
      "t": 26700,
      "d": 150,
      "v": 80
    },
    {
      "midi": 97,
      "hit": false,
      "t": 26850,
      "d": 150,
      "v": 82
    },
    {
      "midi": 98,
      "hit": false,
      "t": 27000,
      "d": 300,
      "v": 80
    },
    {
      "midi": 62,
      "hit": false,
      "t": 27000,
      "d": 300,
      "v": 71
    },
    {
      "midi": 65,
      "hit": false,
      "t": 27000,
      "d": 300,
      "v": 71
    },
    {
      "midi": 67,
      "hit": false,
      "t": 28800,
      "d": 150,
      "v": 69
    },
    {
      "midi": 55,
      "hit": false,
      "t": 28800,
      "d": 900,
      "v": 66
    },
    {
      "midi": 59,
      "hit": false,
      "t": 28800,
      "d": 900,
      "v": 66
    },
    {
      "midi": 62,
      "hit": false,
      "t": 28800,
      "d": 900,
      "v": 66
    },
    {
      "midi": 67,
      "hit": false,
      "t": 28950,
      "d": 150,
      "v": 79
    },
    {
      "midi": 67,
      "hit": false,
      "t": 29100,
      "d": 150,
      "v": 75
    },
    {
      "midi": 67,
      "hit": false,
      "t": 29250,
      "d": 150,
      "v": 77
    },
    {
      "midi": 71,
      "hit": false,
      "t": 29400,
      "d": 150,
      "v": 83
    },
    {
      "midi": 72,
      "hit": false,
      "t": 29550,
      "d": 150,
      "v": 80
    },
    {
      "midi": 74,
      "hit": false,
      "t": 29700,
      "d": 150,
      "v": 80
    },
    {
      "midi": 53,
      "hit": false,
      "t": 29700,
      "d": 900,
      "v": 68
    },
    {
      "midi": 55,
      "hit": false,
      "t": 29700,
      "d": 900,
      "v": 68
    },
    {
      "midi": 59,
      "hit": false,
      "t": 29700,
      "d": 900,
      "v": 68
    },
    {
      "midi": 74,
      "hit": false,
      "t": 29850,
      "d": 150,
      "v": 80
    },
    {
      "midi": 74,
      "hit": false,
      "t": 30000,
      "d": 150,
      "v": 77
    },
    {
      "midi": 74,
      "hit": false,
      "t": 30150,
      "d": 150,
      "v": 71
    },
    {
      "midi": 76,
      "hit": false,
      "t": 30300,
      "d": 150,
      "v": 81
    },
    {
      "midi": 77,
      "hit": false,
      "t": 30450,
      "d": 150,
      "v": 81
    },
    {
      "midi": 79,
      "hit": false,
      "t": 30600,
      "d": 150,
      "v": 81
    },
    {
      "midi": 52,
      "hit": false,
      "t": 30600,
      "d": 300,
      "v": 73
    },
    {
      "midi": 55,
      "hit": false,
      "t": 30600,
      "d": 300,
      "v": 73
    },
    {
      "midi": 60,
      "hit": false,
      "t": 30600,
      "d": 300,
      "v": 73
    },
    {
      "midi": 79,
      "hit": false,
      "t": 30750,
      "d": 150,
      "v": 76
    },
    {
      "midi": 79,
      "hit": false,
      "t": 30900,
      "d": 150,
      "v": 73
    },
    {
      "midi": 79,
      "hit": false,
      "t": 31050,
      "d": 150,
      "v": 80
    },
    {
      "midi": 81,
      "hit": false,
      "t": 31200,
      "d": 150,
      "v": 81
    },
    {
      "midi": 83,
      "hit": false,
      "t": 31350,
      "d": 150,
      "v": 81
    },
    {
      "midi": 84,
      "hit": false,
      "t": 31500,
      "d": 300,
      "v": 82
    },
    {
      "midi": 86,
      "hit": false,
      "t": 32400,
      "d": 150,
      "v": 70
    },
    {
      "midi": 53,
      "hit": false,
      "t": 32400,
      "d": 300,
      "v": 64
    },
    {
      "midi": 55,
      "hit": false,
      "t": 32400,
      "d": 300,
      "v": 64
    },
    {
      "midi": 59,
      "hit": false,
      "t": 32400,
      "d": 300,
      "v": 64
    },
    {
      "midi": 62,
      "hit": false,
      "t": 32400,
      "d": 300,
      "v": 64
    },
    {
      "midi": 86,
      "hit": false,
      "t": 32550,
      "d": 150,
      "v": 77
    },
    {
      "midi": 86,
      "hit": false,
      "t": 32700,
      "d": 150,
      "v": 79
    },
    {
      "midi": 86,
      "hit": false,
      "t": 32850,
      "d": 150,
      "v": 78
    },
    {
      "midi": 88,
      "hit": false,
      "t": 33000,
      "d": 150,
      "v": 78
    },
    {
      "midi": 89,
      "hit": false,
      "t": 33150,
      "d": 150,
      "v": 87
    },
    {
      "midi": 91,
      "hit": false,
      "t": 33300,
      "d": 300,
      "v": 84
    },
    {
      "midi": 91,
      "hit": false,
      "t": 34200,
      "d": 150,
      "v": 67
    },
    {
      "midi": 52,
      "hit": false,
      "t": 34200,
      "d": 300,
      "v": 73
    },
    {
      "midi": 55,
      "hit": false,
      "t": 34200,
      "d": 300,
      "v": 73
    },
    {
      "midi": 60,
      "hit": false,
      "t": 34200,
      "d": 300,
      "v": 73
    },
    {
      "midi": 91,
      "hit": false,
      "t": 34350,
      "d": 150,
      "v": 78
    },
    {
      "midi": 91,
      "hit": false,
      "t": 34500,
      "d": 150,
      "v": 79
    },
    {
      "midi": 91,
      "hit": false,
      "t": 34650,
      "d": 150,
      "v": 74
    },
    {
      "midi": 93,
      "hit": false,
      "t": 34800,
      "d": 150,
      "v": 79
    },
    {
      "midi": 95,
      "hit": false,
      "t": 34950,
      "d": 150,
      "v": 85
    },
    {
      "midi": 96,
      "hit": false,
      "t": 35100,
      "d": 300,
      "v": 83
    },
    {
      "midi": 84,
      "hit": false,
      "t": 37800,
      "d": 150,
      "v": 68
    },
    {
      "midi": 55,
      "hit": false,
      "t": 37800,
      "d": 900,
      "v": 74
    },
    {
      "midi": 60,
      "hit": false,
      "t": 37800,
      "d": 900,
      "v": 74
    },
    {
      "midi": 64,
      "hit": false,
      "t": 37800,
      "d": 900,
      "v": 74
    },
    {
      "midi": 86,
      "hit": false,
      "t": 37950,
      "d": 150,
      "v": 78
    },
    {
      "midi": 88,
      "hit": false,
      "t": 38100,
      "d": 150,
      "v": 81
    },
    {
      "midi": 89,
      "hit": false,
      "t": 38250,
      "d": 150,
      "v": 85
    },
    {
      "midi": 91,
      "hit": false,
      "t": 38400,
      "d": 300,
      "v": 85
    },
    {
      "midi": 55,
      "hit": false,
      "t": 38700,
      "d": 900,
      "v": 127
    },
    {
      "midi": 62,
      "hit": false,
      "t": 38700,
      "d": 900,
      "v": 127
    },
    {
      "midi": 65,
      "hit": false,
      "t": 38700,
      "d": 900,
      "v": 127
    },
    {
      "midi": 79,
      "hit": false,
      "t": 39000,
      "d": 150,
      "v": 75
    },
    {
      "midi": 81,
      "hit": false,
      "t": 39150,
      "d": 150,
      "v": 77
    },
    {
      "midi": 82,
      "hit": false,
      "t": 39300,
      "d": 150,
      "v": 82
    },
    {
      "midi": 83,
      "hit": false,
      "t": 39450,
      "d": 150,
      "v": 81
    },
    {
      "midi": 84,
      "hit": false,
      "t": 39600,
      "d": 900,
      "v": 78
    },
    {
      "midi": 60,
      "hit": false,
      "t": 39600,
      "d": 1200,
      "v": 67
    },
    {
      "midi": 64,
      "hit": false,
      "t": 39600,
      "d": 1200,
      "v": 67
    },
    {
      "midi": 72,
      "hit": false,
      "t": 40500,
      "d": 300,
      "v": 56
    }
  ]
}