{
  "jsonPath": "Rock/Deep Christian Rock/Wayne Watson/friend-of-a-wounded-heart-lp-version.json",
  "path": "Rock\\Deep Christian Rock\\Wayne Watson\\Friend Of A Wounded Heart (LP Version).mid",
  "name": "Friend Of A Wounded Heart (LP Version)",
  "difficulty": "Advanced",
  "bpm": 104.00001386666851,
  "notes": [
    {
      "midi": 75,
      "hit": false,
      "t": 2295.6727708333333,
      "d": 312.4999583333333,
      "v": 109
    },
    {
      "midi": 72,
      "hit": false,
      "t": 2301.6823854166664,
      "d": 294.4711145833335,
      "v": 121
    },
    {
      "midi": 58,
      "hit": false,
      "t": 2307.6919999999996,
      "d": 2349.7593020833324,
      "v": 125
    },
    {
      "midi": 65,
      "hit": false,
      "t": 2614.1823437499997,
      "d": 150.2403645833333,
      "v": 93
    },
    {
      "midi": 75,
      "hit": false,
      "t": 2872.595770833333,
      "d": 132.211520833333,
      "v": 93
    },
    {
      "midi": 72,
      "hit": false,
      "t": 2878.605385416666,
      "d": 144.23074999999972,
      "v": 87
    },
    {
      "midi": 75,
      "hit": false,
      "t": 3161.0572708333325,
      "d": 588.9422291666665,
      "v": 109
    },
    {
      "midi": 72,
      "hit": false,
      "t": 3161.0572708333325,
      "d": 600.9614583333332,
      "v": 121
    },
    {
      "midi": 65,
      "hit": false,
      "t": 3774.0379583333324,
      "d": 246.3941979166666,
      "v": 93
    },
    {
      "midi": 72,
      "hit": false,
      "t": 4050.4802291666656,
      "d": 132.21152083333345,
      "v": 121
    },
    {
      "midi": 72,
      "hit": false,
      "t": 4320.912885416666,
      "d": 180.28843750000033,
      "v": 121
    },
    {
      "midi": 75,
      "hit": false,
      "t": 4320.912885416666,
      "d": 186.29805208333346,
      "v": 109
    },
    {
      "midi": 72,
      "hit": false,
      "t": 4621.393614583332,
      "d": 264.423041666666,
      "v": 125
    },
    {
      "midi": 75,
      "hit": false,
      "t": 4621.393614583332,
      "d": 582.9326145833329,
      "v": 109
    },
    {
      "midi": 57,
      "hit": false,
      "t": 4633.4128437499985,
      "d": 1953.1247395833343,
      "v": 109
    },
    {
      "midi": 65,
      "hit": false,
      "t": 4921.874343749998,
      "d": 264.4230416666669,
      "v": 98
    },
    {
      "midi": 72,
      "hit": false,
      "t": 5204.326229166665,
      "d": 84.13460416666658,
      "v": 121
    },
    {
      "midi": 77,
      "hit": false,
      "t": 5498.797343749999,
      "d": 841.3460416666667,
      "v": 125
    },
    {
      "midi": 65,
      "hit": false,
      "t": 5775.239614583332,
      "d": 282.4518854166663,
      "v": 93
    },
    {
      "midi": 72,
      "hit": false,
      "t": 6075.720343749998,
      "d": 258.4134270833338,
      "v": 125
    },
    {
      "midi": 65,
      "hit": false,
      "t": 6358.172229166666,
      "d": 72.11537500000031,
      "v": 82
    },
    {
      "midi": 72,
      "hit": false,
      "t": 6634.6145,
      "d": 126.20190625000032,
      "v": 125
    },
    {
      "midi": 75,
      "hit": false,
      "t": 6634.6145,
      "d": 156.2499791666669,
      "v": 98
    },
    {
      "midi": 75,
      "hit": false,
      "t": 6911.056770833334,
      "d": 390.6249479166663,
      "v": 109
    },
    {
      "midi": 72,
      "hit": false,
      "t": 6923.076,
      "d": 300.4807291666666,
      "v": 121
    },
    {
      "midi": 58,
      "hit": false,
      "t": 6923.076,
      "d": 2289.6631562499997,
      "v": 125
    },
    {
      "midi": 65,
      "hit": false,
      "t": 7223.556729166667,
      "d": 426.6826354166669,
      "v": 125
    },
    {
      "midi": 72,
      "hit": false,
      "t": 7512.018229166667,
      "d": 174.2788229166663,
      "v": 109
    },
    {
      "midi": 75,
      "hit": false,
      "t": 7770.43165625,
      "d": 78.12498958333254,
      "v": 98
    },
    {
      "midi": 65,
      "hit": false,
      "t": 7782.450885416666,
      "d": 54.08653125000001,
      "v": 121
    },
    {
      "midi": 72,
      "hit": false,
      "t": 7788.460499999999,
      "d": 42.06730208333374,
      "v": 121
    },
    {
      "midi": 74,
      "hit": false,
      "t": 8082.931614583333,
      "d": 576.9230000000007,
      "v": 125
    },
    {
      "midi": 70,
      "hit": false,
      "t": 8088.941229166666,
      "d": 564.9037708333335,
      "v": 125
    },
    {
      "midi": 65,
      "hit": false,
      "t": 8088.941229166666,
      "d": 570.9133854166676,
      "v": 121
    },
    {
      "midi": 70,
      "hit": false,
      "t": 9224.758385416666,
      "d": 618.9903020833335,
      "v": 125
    },
    {
      "midi": 74,
      "hit": false,
      "t": 9230.768,
      "d": 697.1152916666651,
      "v": 125
    },
    {
      "midi": 67,
      "hit": false,
      "t": 9236.777614583334,
      "d": 649.0383749999983,
      "v": 125
    },
    {
      "midi": 51,
      "hit": false,
      "t": 9236.777614583334,
      "d": 1634.6151666666647,
      "v": 98
    },
    {
      "midi": 72,
      "hit": false,
      "t": 10090.142885416664,
      "d": 102.16344791666779,
      "v": 125
    },
    {
      "midi": 69,
      "hit": false,
      "t": 10096.152499999998,
      "d": 90.14421874999971,
      "v": 121
    },
    {
      "midi": 70,
      "hit": false,
      "t": 10667.065885416665,
      "d": 96.15383333333375,
      "v": 109
    },
    {
      "midi": 62,
      "hit": false,
      "t": 10673.075499999999,
      "d": 60.09614583333314,
      "v": 121
    },
    {
      "midi": 67,
      "hit": false,
      "t": 10679.085114583333,
      "d": 60.09614583333314,
      "v": 125
    },
    {
      "midi": 74,
      "hit": false,
      "t": 11231.96965625,
      "d": 120.19229166666992,
      "v": 121
    },
    {
      "midi": 70,
      "hit": false,
      "t": 11237.979270833333,
      "d": 108.17306250000183,
      "v": 109
    },
    {
      "midi": 65,
      "hit": false,
      "t": 11243.988885416667,
      "d": 66.10576041666718,
      "v": 121
    },
    {
      "midi": 44,
      "hit": false,
      "t": 11508.411927083334,
      "d": 342.54803125000035,
      "v": 121
    },
    {
      "midi": 74,
      "hit": false,
      "t": 11520.43115625,
      "d": 679.0864479166685,
      "v": 125
    },
    {
      "midi": 70,
      "hit": false,
      "t": 11526.440770833335,
      "d": 618.9903020833335,
      "v": 125
    },
    {
      "midi": 65,
      "hit": false,
      "t": 11526.440770833335,
      "d": 655.0479895833341,
      "v": 125
    },
    {
      "midi": 51,
      "hit": false,
      "t": 11814.902270833334,
      "d": 252.40381250000064,
      "v": 121
    },
    {
      "midi": 56,
      "hit": false,
      "t": 12103.363770833335,
      "d": 198.31728124999972,
      "v": 109
    },
    {
      "midi": 58,
      "hit": false,
      "t": 12355.767583333334,
      "d": 288.46150000000125,
      "v": 109
    },
    {
      "midi": 70,
      "hit": false,
      "t": 12367.7868125,
      "d": 408.65379166666935,
      "v": 121
    },
    {
      "midi": 72,
      "hit": false,
      "t": 12373.796427083334,
      "d": 564.9037708333344,
      "v": 125
    },
    {
      "midi": 60,
      "hit": false,
      "t": 12662.257927083336,
      "d": 2343.749687499998,
      "v": 109
    },
    {
      "midi": 70,
      "hit": false,
      "t": 12950.719427083335,
      "d": 78.12498958333344,
      "v": 121
    },
    {
      "midi": 75,
      "hit": false,
      "t": 13239.180927083335,
      "d": 2055.2881874999985,
      "v": 125
    },
    {
      "midi": 72,
      "hit": false,
      "t": 13527.642427083334,
      "d": 1448.317114583333,
      "v": 121
    },
    {
      "midi": 63,
      "hit": false,
      "t": 14993.988385416667,
      "d": 576.9230000000007,
      "v": 109
    },
    {
      "midi": 68,
      "hit": false,
      "t": 15282.449885416667,
      "d": 282.4518854166672,
      "v": 121
    },
    {
      "midi": 72,
      "hit": false,
      "t": 15546.872927083334,
      "d": 66.10576041666718,
      "v": 109
    },
    {
      "midi": 74,
      "hit": false,
      "t": 15835.334427083335,
      "d": 204.32689583333377,
      "v": 112
    },
    {
      "midi": 74,
      "hit": false,
      "t": 16117.786312500002,
      "d": 1802.8843750000033,
      "v": 121
    },
    {
      "midi": 69,
      "hit": false,
      "t": 16123.795927083336,
      "d": 1400.2401979166698,
      "v": 121
    },
    {
      "midi": 43,
      "hit": false,
      "t": 16129.80554166667,
      "d": 522.8364687500016,
      "v": 121
    },
    {
      "midi": 50,
      "hit": false,
      "t": 16424.276656250004,
      "d": 246.3941979166666,
      "v": 109
    },
    {
      "midi": 55,
      "hit": false,
      "t": 16712.738156250005,
      "d": 210.336510416666,
      "v": 93
    },
    {
      "midi": 57,
      "hit": false,
      "t": 16983.170812500004,
      "d": 300.4807291666657,
      "v": 109
    },
    {
      "midi": 67,
      "hit": false,
      "t": 16989.180427083338,
      "d": 462.7403229166666,
      "v": 121
    },
    {
      "midi": 59,
      "hit": false,
      "t": 17289.661156250004,
      "d": 1995.192041666669,
      "v": 121
    },
    {
      "midi": 74,
      "hit": false,
      "t": 18167.064885416672,
      "d": 1183.894072916668,
      "v": 125
    },
    {
      "midi": 69,
      "hit": false,
      "t": 18173.074500000006,
      "d": 1189.903687500002,
      "v": 125
    },
    {
      "midi": 67,
      "hit": false,
      "t": 18749.997500000005,
      "d": 96.15383333333375,
      "v": 98
    },
    {
      "midi": 62,
      "hit": false,
      "t": 19038.459000000006,
      "d": 300.4807291666657,
      "v": 121
    },
    {
      "midi": 60,
      "hit": false,
      "t": 20228.362687500008,
      "d": 258.41342708333104,
      "v": 121
    },
    {
      "midi": 59,
      "hit": false,
      "t": 20468.74727083334,
      "d": 288.4614999999976,
      "v": 109
    },
    {
      "midi": 60,
      "hit": false,
      "t": 20781.247229166675,
      "d": 1544.4709479166668,
      "v": 121
    },
    {
      "midi": 57,
      "hit": false,
      "t": 20787.25684375001,
      "d": 1412.2594270833324,
      "v": 121
    },
    {
      "midi": 43,
      "hit": false,
      "t": 20793.266458333343,
      "d": 655.0479895833341,
      "v": 121
    },
    {
      "midi": 52,
      "hit": false,
      "t": 20799.276072916677,
      "d": 1280.047906249998,
      "v": 125
    },
    {
      "midi": 43,
      "hit": false,
      "t": 21658.650958333343,
      "d": 36.05768750000061,
      "v": 72
    },
    {
      "midi": 43,
      "hit": false,
      "t": 21935.093229166676,
      "d": 661.0576041666682,
      "v": 98
    },
    {
      "midi": 52,
      "hit": false,
      "t": 22205.525885416675,
      "d": 558.894156250004,
      "v": 121
    },
    {
      "midi": 55,
      "hit": false,
      "t": 22493.987385416676,
      "d": 258.4134270833347,
      "v": 109
    },
    {
      "midi": 60,
      "hit": false,
      "t": 22758.410427083345,
      "d": 312.4999583333338,
      "v": 121
    },
    {
      "midi": 43,
      "hit": false,
      "t": 22776.439270833347,
      "d": 312.4999583333338,
      "v": 109
    },
    {
      "midi": 57,
      "hit": false,
      "t": 23076.920000000013,
      "d": 1304.0863645833342,
      "v": 121
    },
    {
      "midi": 42,
      "hit": false,
      "t": 23082.929614583347,
      "d": 661.0576041666682,
      "v": 121
    },
    {
      "midi": 50,
      "hit": false,
      "t": 23082.929614583347,
      "d": 1249.9998333333351,
      "v": 121
    },
    {
      "midi": 54,
      "hit": false,
      "t": 23082.929614583347,
      "d": 1280.0479062500017,
      "v": 109
    },
    {
      "midi": 42,
      "hit": false,
      "t": 23954.32372916668,
      "d": 72.11537500000122,
      "v": 109
    },
    {
      "midi": 42,
      "hit": false,
      "t": 24242.785229166682,
      "d": 1141.826770833337,
      "v": 125
    },
    {
      "midi": 62,
      "hit": false,
      "t": 24789.660156250015,
      "d": 66.10576041666718,
      "v": 125
    },
    {
      "midi": 60,
      "hit": false,
      "t": 25360.573541666683,
      "d": 871.3941145833342,
      "v": 125
    },
    {
      "midi": 52,
      "hit": false,
      "t": 25366.583156250017,
      "d": 883.4133437499986,
      "v": 125
    },
    {
      "midi": 55,
      "hit": false,
      "t": 25366.583156250017,
      "d": 883.4133437499986,
      "v": 125
    },
    {
      "midi": 43,
      "hit": false,
      "t": 25378.602385416685,
      "d": 606.9710729166654,
      "v": 109
    },
    {
      "midi": 43,
      "hit": false,
      "t": 26231.967656250017,
      "d": 54.0865312499991,
      "v": 109
    },
    {
      "midi": 43,
      "hit": false,
      "t": 26538.458000000017,
      "d": 649.0383750000001,
      "v": 121
    },
    {
      "midi": 50,
      "hit": false,
      "t": 26538.458000000017,
      "d": 1760.8170729166704,
      "v": 109
    },
    {
      "midi": 57,
      "hit": false,
      "t": 26538.458000000017,
      "d": 1977.1631979166705,
      "v": 98
    },
    {
      "midi": 55,
      "hit": false,
      "t": 26544.46761458335,
      "d": 1971.1535833333364,
      "v": 109
    },
    {
      "midi": 59,
      "hit": false,
      "t": 26544.46761458335,
      "d": 1989.182427083335,
      "v": 109
    },
    {
      "midi": 43,
      "hit": false,
      "t": 27385.81365625002,
      "d": 42.06730208333465,
      "v": 77
    },
    {
      "midi": 43,
      "hit": false,
      "t": 27674.27515625002,
      "d": 1754.8074583333364,
      "v": 93
    },
    {
      "midi": 50,
      "hit": false,
      "t": 28545.669270833354,
      "d": 570.9133854166685,
      "v": 125
    },
    {
      "midi": 55,
      "hit": false,
      "t": 29128.60188541669,
      "d": 282.4518854166672,
      "v": 121
    },
    {
      "midi": 57,
      "hit": false,
      "t": 29411.053770833358,
      "d": 336.53841666666267,
      "v": 121
    },
    {
      "midi": 59,
      "hit": false,
      "t": 29693.50565625002,
      "d": 288.46150000000125,
      "v": 109
    },
    {
      "midi": 52,
      "hit": false,
      "t": 29975.95754166669,
      "d": 1237.980604166667,
      "v": 125
    },
    {
      "midi": 60,
      "hit": false,
      "t": 29975.95754166669,
      "d": 1424.2786562500005,
      "v": 121
    },
    {
      "midi": 57,
      "hit": false,
      "t": 29981.967156250023,
      "d": 1424.2786562500005,
      "v": 121
    },
    {
      "midi": 43,
      "hit": false,
      "t": 29987.976770833357,
      "d": 624.9999166666676,
      "v": 98
    },
    {
      "midi": 43,
      "hit": false,
      "t": 30853.361270833357,
      "d": 54.0865312499991,
      "v": 109
    },
    {
      "midi": 43,
      "hit": false,
      "t": 31117.78431250002,
      "d": 661.0576041666718,
      "v": 98
    },
    {
      "midi": 52,
      "hit": false,
      "t": 31424.27465625002,
      "d": 342.548031250004,
      "v": 125
    },
    {
      "midi": 58,
      "hit": false,
      "t": 31652.64001041669,
      "d": 6.0096145833340415,
      "v": 35
    },
    {
      "midi": 55,
      "hit": false,
      "t": 31724.75538541669,
      "d": 60.09614583333678,
      "v": 125
    },
    {
      "midi": 43,
      "hit": false,
      "t": 31983.16881250003,
      "d": 84.13460416666567,
      "v": 109
    },
    {
      "midi": 62,
      "hit": false,
      "t": 32283.649541666695,
      "d": 492.7883958333332,
      "v": 109
    },
    {
      "midi": 60,
      "hit": false,
      "t": 32289.65915625003,
      "d": 462.7403229166666,
      "v": 121
    },
    {
      "midi": 54,
      "hit": false,
      "t": 32295.668770833363,
      "d": 426.682635416666,
      "v": 125
    },
    {
      "midi": 57,
      "hit": false,
      "t": 32295.668770833363,
      "d": 426.682635416666,
      "v": 125
    },
    {
      "midi": 42,
      "hit": false,
      "t": 32301.678385416697,
      "d": 1772.8363020833167,
      "v": 109
    },
    {
      "midi": 57,
      "hit": false,
      "t": 33155.043656250025,
      "d": 66.10576041666354,
      "v": 67
    },
    {
      "midi": 66,
      "hit": false,
      "t": 33455.52438541669,
      "d": 102.16344791665324,
      "v": 109
    },
    {
      "midi": 62,
      "hit": false,
      "t": 33461.53400000002,
      "d": 84.13460416666203,
      "v": 125
    },
    {
      "midi": 57,
      "hit": false,
      "t": 33467.54361458335,
      "d": 66.10576041666354,
      "v": 109
    },
    {
      "midi": 60,
      "hit": false,
      "t": 33467.54361458335,
      "d": 84.13460416666203,
      "v": 109
    },
    {
      "midi": 42,
      "hit": false,
      "t": 34332.928114583345,
      "d": 300.4807291666657,
      "v": 93
    },
    {
      "midi": 43,
      "hit": false,
      "t": 34621.38961458335,
      "d": 637.0191458333284,
      "v": 93
    },
    {
      "midi": 62,
      "hit": false,
      "t": 34627.39922916668,
      "d": 691.1056770833311,
      "v": 121
    },
    {
      "midi": 55,
      "hit": false,
      "t": 34627.39922916668,
      "d": 697.1152916666615,
      "v": 121
    },
    {
      "midi": 60,
      "hit": false,
      "t": 34633.40884375001,
      "d": 727.1633645833281,
      "v": 121
    },
    {
      "midi": 43,
      "hit": false,
      "t": 35480.764500000005,
      "d": 973.557562499991,
      "v": 109
    },
    {
      "midi": 62,
      "hit": false,
      "t": 35480.764500000005,
      "d": 1724.759385416648,
      "v": 93
    },
    {
      "midi": 55,
      "hit": false,
      "t": 35486.774114583335,
      "d": 1556.490177083324,
      "v": 93
    },
    {
      "midi": 59,
      "hit": false,
      "t": 35486.774114583335,
      "d": 1712.7401562499872,
      "v": 98
    },
    {
      "midi": 43,
      "hit": false,
      "t": 36658.64895833333,
      "d": 6.0096145833304035,
      "v": 35
    },
    {
      "midi": 55,
      "hit": false,
      "t": 37217.54311458332,
      "d": 564.9037708333271,
      "v": 125
    },
    {
      "midi": 57,
      "hit": false,
      "t": 37487.97577083332,
      "d": 276.4422708333368,
      "v": 121
    },
    {
      "midi": 62,
      "hit": false,
      "t": 37770.42765624999,
      "d": 192.30766666666023,
      "v": 125
    },
    {
      "midi": 43,
      "hit": false,
      "t": 37776.43727083332,
      "d": 114.1826770833286,
      "v": 109
    },
    {
      "midi": 62,
      "hit": false,
      "t": 38058.889156249985,
      "d": 408.6537916666639,
      "v": 98
    },
    {
      "midi": 54,
      "hit": false,
      "t": 38070.90838541665,
      "d": 342.5480312499931,
      "v": 125
    },
    {
      "midi": 57,
      "hit": false,
      "t": 38070.90838541665,
      "d": 342.5480312499931,
      "v": 125
    },
    {
      "midi": 42,
      "hit": false,
      "t": 38070.90838541665,
      "d": 1147.8363854166528,
      "v": 121
    },
    {
      "midi": 67,
      "hit": false,
      "t": 39200.715927083314,
      "d": 564.9037708333271,
      "v": 98
    },
    {
      "midi": 64,
      "hit": false,
      "t": 39206.725541666645,
      "d": 546.8749270833287,
      "v": 109
    },
    {
      "midi": 62,
      "hit": false,
      "t": 39212.735156249975,
      "d": 534.8556979166679,
      "v": 121
    },
    {
      "midi": 59,
      "hit": false,
      "t": 39218.744770833306,
      "d": 414.6634062500016,
      "v": 109
    },
    {
      "midi": 40,
      "hit": false,
      "t": 39218.744770833306,
      "d": 1856.970906249997,
      "v": 98
    },
    {
      "midi": 59,
      "hit": false,
      "t": 39813.69661458331,
      "d": 48.076916666665056,
      "v": 77
    },
    {
      "midi": 52,
      "hit": false,
      "t": 40096.148499999974,
      "d": 925.480645833326,
      "v": 93
    },
    {
      "midi": 67,
      "hit": false,
      "t": 40372.59077083331,
      "d": 258.41342708333104,
      "v": 121
    },
    {
      "midi": 64,
      "hit": false,
      "t": 40378.60038541664,
      "d": 180.28843749999942,
      "v": 109
    },
    {
      "midi": 62,
      "hit": false,
      "t": 40384.60999999997,
      "d": 90.14421874999971,
      "v": 125
    },
    {
      "midi": 59,
      "hit": false,
      "t": 40384.60999999997,
      "d": 204.32689583333558,
      "v": 121
    },
    {
      "midi": 69,
      "hit": false,
      "t": 40769.22533333331,
      "d": 234.37496874999488,
      "v": 121
    },
    {
      "midi": 66,
      "hit": false,
      "t": 40775.23494791664,
      "d": 240.38458333333256,
      "v": 125
    },
    {
      "midi": 71,
      "hit": false,
      "t": 41147.831052083304,
      "d": 54.08653124999546,
      "v": 121
    },
    {
      "midi": 67,
      "hit": false,
      "t": 41153.840666666634,
      "d": 42.06730208333465,
      "v": 121
    },
    {
      "midi": 67,
      "hit": false,
      "t": 41544.4656145833,
      "d": 823.3171979166509,
      "v": 109
    },
    {
      "midi": 59,
      "hit": false,
      "t": 41556.48484374997,
      "d": 679.0864479166557,
      "v": 87
    },
    {
      "midi": 71,
      "hit": false,
      "t": 41562.4944583333,
      "d": 793.2691249999916,
      "v": 93
    },
    {
      "midi": 36,
      "hit": false,
      "t": 41568.50407291663,
      "d": 1249.9998333333206,
      "v": 93
    },
    {
      "midi": 64,
      "hit": false,
      "t": 41574.51368749996,
      "d": 787.2595104166612,
      "v": 93
    },
    {
      "midi": 48,
      "hit": false,
      "t": 41574.51368749996,
      "d": 973.557562499991,
      "v": 77
    },
    {
      "midi": 59,
      "hit": false,
      "t": 42367.78281249995,
      "d": 48.076916666665056,
      "v": 109
    },
    {
      "midi": 66,
      "hit": false,
      "t": 42950.71542708328,
      "d": 534.8556979166606,
      "v": 121
    },
    {
      "midi": 57,
      "hit": false,
      "t": 42956.725041666614,
      "d": 444.71147916666087,
      "v": 125
    },
    {
      "midi": 62,
      "hit": false,
      "t": 42956.725041666614,
      "d": 444.71147916666087,
      "v": 125
    },
    {
      "midi": 38,
      "hit": false,
      "t": 42962.734656249944,
      "d": 877.4037291666609,
      "v": 109
    },
    {
      "midi": 59,
      "hit": false,
      "t": 43828.119156249944,
      "d": 480.7691666666651,
      "v": 98
    },
    {
      "midi": 67,
      "hit": false,
      "t": 43834.128770833275,
      "d": 679.0864479166703,
      "v": 109
    },
    {
      "midi": 64,
      "hit": false,
      "t": 43834.128770833275,
      "d": 691.1056770833384,
      "v": 98
    },
    {
      "midi": 40,
      "hit": false,
      "t": 43840.138385416605,
      "d": 1502.4036458333285,
      "v": 121
    },
    {
      "midi": 52,
      "hit": false,
      "t": 44687.494041666614,
      "d": 1478.3651874999705,
      "v": 87
    },
    {
      "midi": 67,
      "hit": false,
      "t": 44975.95554166661,
      "d": 258.41342708332377,
      "v": 121
    },
    {
      "midi": 59,
      "hit": false,
      "t": 44981.96515624994,
      "d": 198.3172812499979,
      "v": 121
    },
    {
      "midi": 64,
      "hit": false,
      "t": 44981.96515624994,
      "d": 204.3268958333283,
      "v": 121
    },
    {
      "midi": 69,
      "hit": false,
      "t": 45372.5901041666,
      "d": 216.3461249999964,
      "v": 125
    },
    {
      "midi": 66,
      "hit": false,
      "t": 45372.5901041666,
      "d": 234.37496874999488,
      "v": 125
    },
    {
      "midi": 71,
      "hit": false,
      "t": 45745.18620833326,
      "d": 48.076916666665056,
      "v": 121
    },
    {
      "midi": 67,
      "hit": false,
      "t": 45751.19582291659,
      "d": 30.04807291666657,
      "v": 121
    },
    {
      "midi": 66,
      "hit": false,
      "t": 46147.83038541659,
      "d": 1412.2594270833215,
      "v": 109
    },
    {
      "midi": 57,
      "hit": false,
      "t": 46153.839999999924,
      "d": 1280.0479062499944,
      "v": 93
    },
    {
      "midi": 62,
      "hit": false,
      "t": 46153.839999999924,
      "d": 1406.249812499991,
      "v": 98
    },
    {
      "midi": 47,
      "hit": false,
      "t": 46159.849614583254,
      "d": 624.9999166666676,
      "v": 109
    },
    {
      "midi": 47,
      "hit": false,
      "t": 47013.214885416586,
      "d": 66.10576041666354,
      "v": 93
    },
    {
      "midi": 47,
      "hit": false,
      "t": 47289.657156249916,
      "d": 1189.903687500002,
      "v": 93
    },
    {
      "midi": 57,
      "hit": false,
      "t": 47578.11865624991,
      "d": 612.9806875000068,
      "v": 125
    },
    {
      "midi": 62,
      "hit": false,
      "t": 47854.56092708325,
      "d": 330.52880208333954,
      "v": 121
    },
    {
      "midi": 66,
      "hit": false,
      "t": 48131.00319791659,
      "d": 60.09614583333314,
      "v": 109
    },
    {
      "midi": 66,
      "hit": false,
      "t": 48443.50315624992,
      "d": 594.9518437499864,
      "v": 98
    },
    {
      "midi": 62,
      "hit": false,
      "t": 48461.53199999992,
      "d": 258.41342708332377,
      "v": 121
    },
    {
      "midi": 48,
      "hit": false,
      "t": 48485.57045833325,
      "d": 787.2595104166539,
      "v": 98
    },
    {
      "midi": 57,
      "hit": false,
      "t": 48749.99349999991,
      "d": 432.6922499999928,
      "v": 87
    },
    {
      "midi": 62,
      "hit": false,
      "t": 49044.46461458324,
      "d": 264.42304166666145,
      "v": 109
    },
    {
      "midi": 64,
      "hit": false,
      "t": 49320.90688541657,
      "d": 1370.1921249999941,
      "v": 121
    },
    {
      "midi": 48,
      "hit": false,
      "t": 49326.9164999999,
      "d": 1129.8075416666688,
      "v": 98
    },
    {
      "midi": 55,
      "hit": false,
      "t": 49326.9164999999,
      "d": 1177.884458333334,
      "v": 121
    },
    {
      "midi": 60,
      "hit": false,
      "t": 49332.92611458323,
      "d": 1262.0190625000032,
      "v": 121
    },
    {
      "midi": 62,
      "hit": false,
      "t": 49344.945343749896,
      "d": 30.04807291666657,
      "v": 77
    },
    {
      "midi": 43,
      "hit": false,
      "t": 50474.752885416565,
      "d": 42.06730208333465,
      "v": 67
    },
    {
      "midi": 62,
      "hit": false,
      "t": 50763.21438541656,
      "d": 276.44227083332953,
      "v": 125
    },
    {
      "midi": 66,
      "hit": false,
      "t": 50763.21438541656,
      "d": 576.9229999999952,
      "v": 121
    },
    {
      "midi": 48,
      "hit": false,
      "t": 50769.22399999989,
      "d": 2301.682385416665,
      "v": 98
    },
    {
      "midi": 57,
      "hit": false,
      "t": 51039.65665624989,
      "d": 306.4903437499961,
      "v": 98
    },
    {
      "midi": 60,
      "hit": false,
      "t": 51322.10854166656,
      "d": 48.076916666665056,
      "v": 109
    },
    {
      "midi": 64,
      "hit": false,
      "t": 51616.579656249894,
      "d": 853.3652708333393,
      "v": 98
    },
    {
      "midi": 62,
      "hit": false,
      "t": 51628.59888541656,
      "d": 84.1346041666693,
      "v": 109
    },
    {
      "midi": 60,
      "hit": false,
      "t": 51628.59888541656,
      "d": 721.153750000005,
      "v": 109
    },
    {
      "midi": 67,
      "hit": false,
      "t": 51628.59888541656,
      "d": 835.3364270833408,
      "v": 98
    },
    {
      "midi": 55,
      "hit": false,
      "t": 53046.86792708323,
      "d": 631.009531249998,
      "v": 98
    },
    {
      "midi": 60,
      "hit": false,
      "t": 53052.87754166656,
      "d": 600.9614583333314,
      "v": 121
    },
    {
      "midi": 62,
      "hit": false,
      "t": 53052.87754166656,
      "d": 624.9999166666676,
      "v": 121
    },
    {
      "midi": 43,
      "hit": false,
      "t": 53058.88715624989,
      "d": 673.0768333333399,
      "v": 98
    },
    {
      "midi": 60,
      "hit": false,
      "t": 53924.2716562499,
      "d": 2283.6535416666593,
      "v": 98
    },
    {
      "midi": 62,
      "hit": false,
      "t": 53924.2716562499,
      "d": 2295.6727708333274,
      "v": 98
    },
    {
      "midi": 55,
      "hit": false,
      "t": 53930.28127083323,
      "d": 1652.6440104166613,
      "v": 98
    },
    {
      "midi": 43,
      "hit": false,
      "t": 53930.28127083323,
      "d": 3191.105343749994,
      "v": 98
    },
    {
      "midi": 55,
      "hit": false,
      "t": 56237.97327083322,
      "d": 186.29805208332982,
      "v": 93
    },
    {
      "midi": 62,
      "hit": false,
      "t": 56808.88665624989,
      "d": 318.5095729166642,
      "v": 125
    },
    {
      "midi": 60,
      "hit": false,
      "t": 57091.338541666555,
      "d": 294.4711145833353,
      "v": 109
    },
    {
      "midi": 59,
      "hit": false,
      "t": 57373.79042708322,
      "d": 246.39419791667024,
      "v": 98
    },
    {
      "midi": 43,
      "hit": false,
      "t": 57662.25192708323,
      "d": 649.0383749999964,
      "v": 109
    },
    {
      "midi": 52,
      "hit": false,
      "t": 57662.25192708323,
      "d": 1298.0767500000002,
      "v": 109
    },
    {
      "midi": 60,
      "hit": false,
      "t": 57662.25192708323,
      "d": 1556.4901770833312,
      "v": 109
    },
    {
      "midi": 57,
      "hit": false,
      "t": 57668.26154166656,
      "d": 1454.3267291666707,
      "v": 121
    },
    {
      "midi": 43,
      "hit": false,
      "t": 58539.65565624989,
      "d": 54.086531250002736,
      "v": 61
    },
    {
      "midi": 43,
      "hit": false,
      "t": 58828.11715624989,
      "d": 673.0768333333326,
      "v": 98
    },
    {
      "midi": 52,
      "hit": false,
      "t": 59128.59788541656,
      "d": 594.951843750001,
      "v": 109
    },
    {
      "midi": 57,
      "hit": false,
      "t": 59411.049770833226,
      "d": 516.8268541666694,
      "v": 125
    },
    {
      "midi": 43,
      "hit": false,
      "t": 59705.52088541656,
      "d": 318.5095729166642,
      "v": 121
    },
    {
      "midi": 60,
      "hit": false,
      "t": 59705.52088541656,
      "d": 1724.7593854166553,
      "v": 109
    },
    {
      "midi": 62,
      "hit": false,
      "t": 60006.00161458323,
      "d": 1382.2113541666622,
      "v": 109
    },
    {
      "midi": 42,
      "hit": false,
      "t": 60012.01122916656,
      "d": 667.0672187500022,
      "v": 109
    },
    {
      "midi": 54,
      "hit": false,
      "t": 60012.01122916656,
      "d": 757.2114375000019,
      "v": 121
    },
    {
      "midi": 57,
      "hit": false,
      "t": 60012.01122916656,
      "d": 1412.2594270833288,
      "v": 125
    },
    {
      "midi": 42,
      "hit": false,
      "t": 60883.405343749895,
      "d": 96.15383333333011,
      "v": 93
    },
    {
      "midi": 42,
      "hit": false,
      "t": 61165.857229166555,
      "d": 685.0960624999934,
      "v": 98
    },
    {
      "midi": 54,
      "hit": false,
      "t": 61436.28988541655,
      "d": 606.9710729166618,
      "v": 109
    },
    {
      "midi": 57,
      "hit": false,
      "t": 61730.76099999988,
      "d": 306.4903437499961,
      "v": 121
    },
    {
      "midi": 62,
      "hit": false,
      "t": 61989.17442708321,
      "d": 66.10576041666354,
      "v": 109
    },
    {
      "midi": 42,
      "hit": false,
      "t": 62001.19365624988,
      "d": 312.4999583333265,
      "v": 109
    },
    {
      "midi": 60,
      "hit": false,
      "t": 62301.67438541655,
      "d": 877.4037291666609,
      "v": 125
    },
    {
      "midi": 55,
      "hit": false,
      "t": 62301.67438541655,
      "d": 883.4133437499913,
      "v": 109
    },
    {
      "midi": 43,
      "hit": false,
      "t": 62307.68399999988,
      "d": 612.9806874999995,
      "v": 109
    },
    {
      "midi": 52,
      "hit": false,
      "t": 62307.68399999988,
      "d": 841.346041666664,
      "v": 121
    },
    {
      "midi": 43,
      "hit": false,
      "t": 63155.03965624987,
      "d": 66.10576041666354,
      "v": 109
    },
    {
      "midi": 43,
      "hit": false,
      "t": 63437.49154166653,
      "d": 3022.83613541667,
      "v": 98
    },
    {
      "midi": 57,
      "hit": false,
      "t": 63443.50115624986,
      "d": 2013.2208854166602,
      "v": 109
    },
    {
      "midi": 59,
      "hit": false,
      "t": 63443.50115624986,
      "d": 2235.5766249999942,
      "v": 93
    },
    {
      "midi": 55,
      "hit": false,
      "t": 63449.51077083319,
      "d": 2007.2112708333298,
      "v": 98
    },
    {
      "midi": 50,
      "hit": false,
      "t": 63455.52038541652,
      "d": 1796.8747604166638,
      "v": 98
    },
    {
      "midi": 50,
      "hit": false,
      "t": 65468.74127083319,
      "d": 540.8653125000055,
      "v": 121
    },
    {
      "midi": 62,
      "hit": false,
      "t": 66045.6642708332,
      "d": 552.8845416666736,
      "v": 125
    },
    {
      "midi": 57,
      "hit": false,
      "t": 66334.1257708332,
      "d": 270.4326562500064,
      "v": 98
    },
    {
      "midi": 55,
      "hit": false,
      "t": 66604.5584270832,
      "d": 78.12498958333163,
      "v": 109
    },
    {
      "midi": 52,
      "hit": false,
      "t": 66899.02954166655,
      "d": 1316.105593750006,
      "v": 109
    },
    {
      "midi": 60,
      "hit": false,
      "t": 66899.02954166655,
      "d": 1556.490177083353,
      "v": 109
    },
    {
      "midi": 43,
      "hit": false,
      "t": 66905.03915624988,
      "d": 618.9903020833444,
      "v": 109
    },
    {
      "midi": 57,
      "hit": false,
      "t": 66905.03915624988,
      "d": 1436.2978854166722,
      "v": 121
    },
    {
      "midi": 43,
      "hit": false,
      "t": 67788.4524999999,
      "d": 54.08653124999546,
      "v": 93
    },
    {
      "midi": 43,
      "hit": false,
      "t": 68076.91399999989,
      "d": 631.0095312500052,
      "v": 109
    },
    {
      "midi": 52,
      "hit": false,
      "t": 68365.3754999999,
      "d": 324.51918750000186,
      "v": 121
    },
    {
      "midi": 55,
      "hit": false,
      "t": 68647.82738541656,
      "d": 60.09614583333314,
      "v": 121
    },
    {
      "midi": 43,
      "hit": false,
      "t": 68936.28888541656,
      "d": 48.07691666667233,
      "v": 98
    },
    {
      "midi": 42,
      "hit": false,
      "t": 69218.74077083323,
      "d": 546.8749270833359,
      "v": 98
    },
    {
      "midi": 66,
      "hit": false,
      "t": 69218.74077083323,
      "d": 1003.6056354166503,
      "v": 109
    },
    {
      "midi": 62,
      "hit": false,
      "t": 69224.75038541657,
      "d": 985.5767916666518,
      "v": 121
    },
    {
      "midi": 60,
      "hit": false,
      "t": 69224.75038541657,
      "d": 1015.6248645833111,
      "v": 109
    },
    {
      "midi": 57,
      "hit": false,
      "t": 69224.75038541657,
      "d": 1231.970989583322,
      "v": 109
    },
    {
      "midi": 42,
      "hit": false,
      "t": 70078.1156562499,
      "d": 60.09614583333314,
      "v": 98
    },
    {
      "midi": 42,
      "hit": false,
      "t": 70366.57715624988,
      "d": 1183.8940729166934,
      "v": 98
    },
    {
      "midi": 54,
      "hit": false,
      "t": 70661.04827083323,
      "d": 258.41342708333104,
      "v": 98
    },
    {
      "midi": 57,
      "hit": false,
      "t": 70943.5001562499,
      "d": 282.4518854166672,
      "v": 125
    },
    {
      "midi": 60,
      "hit": false,
      "t": 71532.44238541657,
      "d": 979.5671770833578,
      "v": 121
    },
    {
      "midi": 62,
      "hit": false,
      "t": 71538.4519999999,
      "d": 973.5575625000201,
      "v": 109
    },
    {
      "midi": 43,
      "hit": false,
      "t": 71544.46161458324,
      "d": 793.2691250000207,
      "v": 109
    },
    {
      "midi": 55,
      "hit": false,
      "t": 71544.46161458324,
      "d": 925.4806458333478,
      "v": 121
    },
    {
      "midi": 62,
      "hit": false,
      "t": 72674.26915624992,
      "d": 1478.3651875000214,
      "v": 98
    },
    {
      "midi": 43,
      "hit": false,
      "t": 72680.27877083326,
      "d": 618.9903020833444,
      "v": 93
    },
    {
      "midi": 55,
      "hit": false,
      "t": 72686.2883854166,
      "d": 1280.047906250009,
      "v": 98
    },
    {
      "midi": 59,
      "hit": false,
      "t": 72686.2883854166,
      "d": 1430.288270833349,
      "v": 121
    },
    {
      "midi": 43,
      "hit": false,
      "t": 73858.1632291666,
      "d": 643.0287604166806,
      "v": 87
    },
    {
      "midi": 55,
      "hit": false,
      "t": 74128.59588541661,
      "d": 384.615333333335,
      "v": 121
    },
    {
      "midi": 57,
      "hit": false,
      "t": 74411.04777083328,
      "d": 84.1346041666693,
      "v": 121
    },
    {
      "midi": 66,
      "hit": false,
      "t": 74999.98999999995,
      "d": 1105.7690833333472,
      "v": 121
    },
    {
      "midi": 57,
      "hit": false,
      "t": 75005.99961458328,
      "d": 528.846083333352,
      "v": 121
    },
    {
      "midi": 62,
      "hit": false,
      "t": 75005.99961458328,
      "d": 805.2883541666815,
      "v": 125
    },
    {
      "midi": 42,
      "hit": false,
      "t": 75012.00922916662,
      "d": 637.0191458333429,
      "v": 125
    },
    {
      "midi": 42,
      "hit": false,
      "t": 75847.34565624996,
      "d": 300.48072916668025,
      "v": 121
    },
    {
      "midi": 64,
      "hit": false,
      "t": 76135.80715624997,
      "d": 883.4133437500132,
      "v": 121
    },
    {
      "midi": 62,
      "hit": false,
      "t": 76141.8167708333,
      "d": 883.4133437500132,
      "v": 121
    },
    {
      "midi": 40,
      "hit": false,
      "t": 76141.8167708333,
      "d": 1832.9324479166826,
      "v": 82
    },
    {
      "midi": 67,
      "hit": false,
      "t": 76147.82638541664,
      "d": 877.4037291666755,
      "v": 98
    },
    {
      "midi": 59,
      "hit": false,
      "t": 76147.82638541664,
      "d": 919.4710312500101,
      "v": 121
    },
    {
      "midi": 52,
      "hit": false,
      "t": 76965.13396874999,
      "d": 955.5287187500071,
      "v": 98
    },
    {
      "midi": 67,
      "hit": false,
      "t": 77295.66277083333,
      "d": 210.33651041667326,
      "v": 121
    },
    {
      "midi": 59,
      "hit": false,
      "t": 77301.67238541666,
      "d": 132.21152083332709,
      "v": 125
    },
    {
      "midi": 62,
      "hit": false,
      "t": 77301.67238541666,
      "d": 138.22113541666477,
      "v": 121
    },
    {
      "midi": 64,
      "hit": false,
      "t": 77301.67238541666,
      "d": 180.28843749999942,
      "v": 109
    },
    {
      "midi": 66,
      "hit": false,
      "t": 77680.27810416666,
      "d": 222.35573958333407,
      "v": 125
    },
    {
      "midi": 69,
      "hit": false,
      "t": 77680.27810416666,
      "d": 228.36535416667175,
      "v": 125
    },
    {
      "midi": 67,
      "hit": false,
      "t": 78070.90305208332,
      "d": 48.07691666667233,
      "v": 125
    },
    {
      "midi": 71,
      "hit": false,
      "t": 78076.91266666666,
      "d": 60.09614583333314,
      "v": 125
    },
    {
      "midi": 59,
      "hit": false,
      "t": 78473.54722916665,
      "d": 462.7403229166812,
      "v": 98
    },
    {
      "midi": 67,
      "hit": false,
      "t": 78473.54722916665,
      "d": 817.3075833333569,
      "v": 109
    },
    {
      "midi": 64,
      "hit": false,
      "t": 78479.55684374999,
      "d": 817.3075833333569,
      "v": 109
    },
    {
      "midi": 71,
      "hit": false,
      "t": 78485.56645833333,
      "d": 799.2787395833438,
      "v": 109
    },
    {
      "midi": 48,
      "hit": false,
      "t": 78491.57607291666,
      "d": 961.5383333333448,
      "v": 87
    },
    {
      "midi": 36,
      "hit": false,
      "t": 78497.5856875,
      "d": 907.4518020833348,
      "v": 82
    },
    {
      "midi": 59,
      "hit": false,
      "t": 79308.88365625001,
      "d": 60.09614583333314,
      "v": 109
    },
    {
      "midi": 61,
      "hit": false,
      "t": 79573.30669791668,
      "d": 24.038458333336166,
      "v": 35
    },
    {
      "midi": 66,
      "hit": false,
      "t": 79891.81627083334,
      "d": 546.8749270833359,
      "v": 121
    },
    {
      "midi": 57,
      "hit": false,
      "t": 79897.82588541668,
      "d": 450.7210937500058,
      "v": 125
    },
    {
      "midi": 62,
      "hit": false,
      "t": 79903.83550000002,
      "d": 462.7403229166666,
      "v": 125
    },
    {
      "midi": 38,
      "hit": false,
      "t": 79903.83550000002,
      "d": 588.942229166656,
      "v": 125
    },
    {
      "midi": 67,
      "hit": false,
      "t": 80474.74888541667,
      "d": 853.3652708333393,
      "v": 109
    },
    {
      "midi": 59,
      "hit": false,
      "t": 80486.76811458333,
      "d": 703.1249062499992,
      "v": 125
    },
    {
      "midi": 62,
      "hit": false,
      "t": 80486.76811458333,
      "d": 793.2691250000062,
      "v": 125
    },
    {
      "midi": 64,
      "hit": false,
      "t": 80486.76811458333,
      "d": 823.31719791668,
      "v": 125
    },
    {
      "midi": 40,
      "hit": false,
      "t": 80492.77772916667,
      "d": 1640.6247812500078,
      "v": 121
    },
    {
      "midi": 52,
      "hit": false,
      "t": 81616.57565625002,
      "d": 1496.39403125002,
      "v": 109
    },
    {
      "midi": 67,
      "hit": false,
      "t": 81917.05638541668,
      "d": 180.28843749999942,
      "v": 125
    },
    {
      "midi": 62,
      "hit": false,
      "t": 81923.06600000002,
      "d": 84.1346041666693,
      "v": 109
    },
    {
      "midi": 64,
      "hit": false,
      "t": 81923.06600000002,
      "d": 102.16344791666779,
      "v": 125
    },
    {
      "midi": 59,
      "hit": false,
      "t": 81929.07561458336,
      "d": 510.8172395833244,
      "v": 121
    },
    {
      "midi": 69,
      "hit": false,
      "t": 82313.69094791668,
      "d": 162.25959375001548,
      "v": 109
    },
    {
      "midi": 66,
      "hit": false,
      "t": 82319.70056250002,
      "d": 150.24036458334012,
      "v": 121
    },
    {
      "midi": 67,
      "hit": false,
      "t": 82704.31589583337,
      "d": 54.08653124999546,
      "v": 93
    },
    {
      "midi": 71,
      "hit": false,
      "t": 82704.31589583337,
      "d": 60.09614583333314,
      "v": 117
    },
    {
      "midi": 66,
      "hit": false,
      "t": 83088.9312291667,
      "d": 1135.817156249992,
      "v": 98
    },
    {
      "midi": 57,
      "hit": false,
      "t": 83088.9312291667,
      "d": 1400.2401979166607,
      "v": 109
    },
    {
      "midi": 47,
      "hit": false,
      "t": 83094.94084375004,
      "d": 600.9614583333314,
      "v": 98
    },
    {
      "midi": 62,
      "hit": false,
      "t": 83094.94084375004,
      "d": 1093.7498541666573,
      "v": 109
    },
    {
      "midi": 47,
      "hit": false,
      "t": 83942.29650000004,
      "d": 72.11537499999395,
      "v": 87
    },
    {
      "midi": 47,
      "hit": false,
      "t": 84212.72915625003,
      "d": 1159.8556145833281,
      "v": 98
    },
    {
      "midi": 69,
      "hit": false,
      "t": 84525.22911458336,
      "d": 594.9518437499937,
      "v": 121
    },
    {
      "midi": 64,
      "hit": false,
      "t": 84819.70022916669,
      "d": 198.3172812499979,
      "v": 109
    },
    {
      "midi": 62,
      "hit": false,
      "t": 85084.12327083336,
      "d": 42.06730208333465,
      "v": 93
    },
    {
      "midi": 66,
      "hit": false,
      "t": 85372.58477083336,
      "d": 510.81723958333896,
      "v": 98
    },
    {
      "midi": 62,
      "hit": false,
      "t": 85378.5943854167,
      "d": 468.7499375000043,
      "v": 121
    },
    {
      "midi": 57,
      "hit": false,
      "t": 85378.5943854167,
      "d": 649.0383750000037,
      "v": 109
    },
    {
      "midi": 48,
      "hit": false,
      "t": 85384.60400000004,
      "d": 1141.8267708333442,
      "v": 109
    },
    {
      "midi": 43,
      "hit": false,
      "t": 85997.58468750003,
      "d": 234.37496875000943,
      "v": 43
    },
    {
      "midi": 64,
      "hit": false,
      "t": 86243.9788854167,
      "d": 883.4133437499986,
      "v": 98
    },
    {
      "midi": 60,
      "hit": false,
      "t": 86249.98850000004,
      "d": 853.3652708333393,
      "v": 121
    },
    {
      "midi": 55,
      "hit": false,
      "t": 86249.98850000004,
      "d": 865.3845000000001,
      "v": 109
    },
    {
      "midi": 36,
      "hit": false,
      "t": 86255.99811458337,
      "d": 1448.3171145833476,
      "v": 93
    },
    {
      "midi": 43,
      "hit": false,
      "t": 87397.8248854167,
      "d": 288.4615000000049,
      "v": 67
    },
    {
      "midi": 62,
      "hit": false,
      "t": 87698.30561458338,
      "d": 252.40381249999336,
      "v": 125
    },
    {
      "midi": 66,
      "hit": false,
      "t": 87698.30561458338,
      "d": 612.9806875000068,
      "v": 125
    },
    {
      "midi": 48,
      "hit": false,
      "t": 87704.31522916672,
      "d": 1814.9036041666695,
      "v": 98
    },
    {
      "midi": 57,
      "hit": false,
      "t": 87974.74788541671,
      "d": 288.4615000000049,
      "v": 121
    },
    {
      "midi": 62,
      "hit": false,
      "t": 88281.23822916672,
      "d": 132.21152083334164,
      "v": 109
    },
    {
      "midi": 43,
      "hit": false,
      "t": 88281.23822916672,
      "d": 258.4134270833456,
      "v": 87
    },
    {
      "midi": 64,
      "hit": false,
      "t": 88557.68050000006,
      "d": 847.3556562500016,
      "v": 109
    },
    {
      "midi": 60,
      "hit": false,
      "t": 88563.6901145834,
      "d": 685.0960625000007,
      "v": 121
    },
    {
      "midi": 67,
      "hit": false,
      "t": 88563.6901145834,
      "d": 841.346041666664,
      "v": 109
    },
    {
      "midi": 62,
      "hit": false,
      "t": 88569.69972916674,
      "d": 847.3556562499871,
      "v": 121
    },
    {
      "midi": 36,
      "hit": false,
      "t": 88569.69972916674,
      "d": 853.3652708333248,
      "v": 98
    },
    {
      "midi": 60,
      "hit": false,
      "t": 89435.08422916672,
      "d": 18.028843749998487,
      "v": 56
    },
    {
      "midi": 48,
      "hit": false,
      "t": 89723.54572916673,
      "d": 306.4903437500179,
      "v": 93
    },
    {
      "midi": 62,
      "hit": false,
      "t": 89999.98800000007,
      "d": 691.1056770833384,
      "v": 121
    },
    {
      "midi": 55,
      "hit": false,
      "t": 90005.99761458341,
      "d": 679.086447916663,
      "v": 125
    },
    {
      "midi": 60,
      "hit": false,
      "t": 90005.99761458341,
      "d": 709.1345208333369,
      "v": 125
    },
    {
      "midi": 43,
      "hit": false,
      "t": 90012.00722916675,
      "d": 612.9806874999922,
      "v": 109
    },
    {
      "midi": 62,
      "hit": false,
      "t": 90853.35327083341,
      "d": 2379.8073750000185,
      "v": 125
    },
    {
      "midi": 55,
      "hit": false,
      "t": 90859.36288541675,
      "d": 2079.3266458333383,
      "v": 125
    },
    {
      "midi": 59,
      "hit": false,
      "t": 90859.36288541675,
      "d": 2283.653541666674,
      "v": 125
    },
    {
      "midi": 43,
      "hit": false,
      "t": 90865.37250000008,
      "d": 3473.557229166676,
      "v": 72
    },
    {
      "midi": 55,
      "hit": false,
      "t": 93173.0645000001,
      "d": 570.9133854166721,
      "v": 125
    },
    {
      "midi": 57,
      "hit": false,
      "t": 93743.97788541677,
      "d": 336.53841666666267,
      "v": 109
    },
    {
      "midi": 59,
      "hit": false,
      "t": 94044.45861458343,
      "d": 264.4230416666687,
      "v": 125
    },
    {
      "midi": 62,
      "hit": false,
      "t": 94320.90088541676,
      "d": 216.3461249999964,
      "v": 125
    },
    {
      "midi": 72,
      "hit": false,
      "t": 94621.38161458334,
      "d": 204.32689583333558,
      "v": 127
    },
    {
      "midi": 57,
      "hit": false,
      "t": 94627.39122916668,
      "d": 570.9133854166721,
      "v": 127
    },
    {
      "midi": 69,
      "hit": false,
      "t": 94771.62197916668,
      "d": 150.24036458332557,
      "v": 96
    },
    {
      "midi": 64,
      "hit": false,
      "t": 94909.84311458335,
      "d": 126.2019062499894,
      "v": 96
    },
    {
      "midi": 69,
      "hit": false,
      "t": 95066.09309375001,
      "d": 126.20190625000396,
      "v": 108
    },
    {
      "midi": 54,
      "hit": false,
      "t": 95210.32384375001,
      "d": 564.903770833349,
      "v": 108
    },
    {
      "midi": 72,
      "hit": false,
      "t": 95222.34307291667,
      "d": 162.25959375000093,
      "v": 119
    },
    {
      "midi": 69,
      "hit": false,
      "t": 95360.56420833334,
      "d": 54.08653125001001,
      "v": 119
    },
    {
      "midi": 74,
      "hit": false,
      "t": 95480.75650000002,
      "d": 156.24997916666325,
      "v": 127
    },
    {
      "midi": 69,
      "hit": false,
      "t": 95624.98725000002,
      "d": 138.22113541666477,
      "v": 127
    },
    {
      "midi": 71,
      "hit": false,
      "t": 95769.21800000002,
      "d": 234.37496875000943,
      "v": 127
    },
    {
      "midi": 55,
      "hit": false,
      "t": 95769.21800000002,
      "d": 570.9133854166867,
      "v": 127
    },
    {
      "midi": 67,
      "hit": false,
      "t": 95925.4679791667,
      "d": 114.1826770833286,
      "v": 59
    },
    {
      "midi": 62,
      "hit": false,
      "t": 96045.66027083337,
      "d": 138.22113541666477,
      "v": 108
    },
    {
      "midi": 67,
      "hit": false,
      "t": 96213.9294791667,
      "d": 102.16344791666779,
      "v": 127
    },
    {
      "midi": 52,
      "hit": false,
      "t": 96346.14100000005,
      "d": 570.9133854166721,
      "v": 119
    },
    {
      "midi": 71,
      "hit": false,
      "t": 96358.16022916671,
      "d": 168.2692083333386,
      "v": 127
    },
    {
      "midi": 67,
      "hit": false,
      "t": 96496.38136458337,
      "d": 84.1346041666693,
      "v": 108
    },
    {
      "midi": 72,
      "hit": false,
      "t": 96640.61211458337,
      "d": 90.14421875000698,
      "v": 127
    },
    {
      "midi": 67,
      "hit": false,
      "t": 96778.83325000005,
      "d": 144.23075000000244,
      "v": 127
    },
    {
      "midi": 69,
      "hit": false,
      "t": 96905.03515625006,
      "d": 582.9326145833329,
      "v": 127
    },
    {
      "midi": 53,
      "hit": false,
      "t": 96917.05438541672,
      "d": 1069.7113958333503,
      "v": 127
    },
    {
      "midi": 65,
      "hit": false,
      "t": 97193.49665625006,
      "d": 294.471114583328,
      "v": 108
    },
    {
      "midi": 60,
      "hit": false,
      "t": 97193.49665625009,
      "d": 1346.1536666666652,
      "v": 125
    },
    {
      "midi": 65,
      "hit": false,
      "t": 97487.96777083342,
      "d": 1021.6344791666634,
      "v": 109
    },
    {
      "midi": 60,
      "hit": false,
      "t": 97499.98700000005,
      "d": 150.24036458334012,
      "v": 119
    },
    {
      "midi": 67,
      "hit": false,
      "t": 97782.43888541675,
      "d": 342.54803125000035,
      "v": 109
    },
    {
      "midi": 65,
      "hit": false,
      "t": 97794.4581145834,
      "d": 90.14421875000698,
      "v": 127
    },
    {
      "midi": 69,
      "hit": false,
      "t": 98076.91000000008,
      "d": 438.701864583345,
      "v": 121
    },
    {
      "midi": 69,
      "hit": false,
      "t": 98076.91000000008,
      "d": 222.35573958333407,
      "v": 119
    },
    {
      "midi": 65,
      "hit": false,
      "t": 98082.91961458341,
      "d": 192.30766666666023,
      "v": 127
    },
    {
      "midi": 53,
      "hit": false,
      "t": 98082.91961458341,
      "d": 270.43265624999185,
      "v": 108
    },
    {
      "midi": 60,
      "hit": false,
      "t": 98088.92922916675,
      "d": 174.27882291666174,
      "v": 127
    },
    {
      "midi": 71,
      "hit": false,
      "t": 98383.40034375008,
      "d": 228.36535416667175,
      "v": 127
    },
    {
      "midi": 55,
      "hit": false,
      "t": 98383.40034375008,
      "d": 276.44227083332953,
      "v": 127
    },
    {
      "midi": 62,
      "hit": false,
      "t": 98389.40995833342,
      "d": 168.26920833332406,
      "v": 127
    },
    {
      "midi": 67,
      "hit": false,
      "t": 98389.40995833342,
      "d": 192.30766666666023,
      "v": 119
    },
    {
      "midi": 65,
      "hit": false,
      "t": 98683.88107291675,
      "d": 108.17306250000547,
      "v": 119
    },
    {
      "midi": 57,
      "hit": false,
      "t": 98689.89068750008,
      "d": 114.1826770833286,
      "v": 127
    },
    {
      "midi": 69,
      "hit": false,
      "t": 98689.89068750008,
      "d": 120.19229166666628,
      "v": 119
    },
    {
      "midi": 72,
      "hit": false,
      "t": 98689.89068750008,
      "d": 162.25959375000093,
      "v": 127
    },
    {
      "midi": 74,
      "hit": false,
      "t": 98960.32334375009,
      "d": 90.14421875002154,
      "v": 127
    },
    {
      "midi": 67,
      "hit": false,
      "t": 98966.33295833343,
      "d": 48.07691666667233,
      "v": 119
    },
    {
      "midi": 71,
      "hit": false,
      "t": 98966.33295833343,
      "d": 54.08653125001001,
      "v": 108
    },
    {
      "midi": 62,
      "hit": false,
      "t": 98966.33295833343,
      "d": 306.4903437500179,
      "v": 119
    },
    {
      "midi": 76,
      "hit": false,
      "t": 99260.80407291677,
      "d": 631.0095312500198,
      "v": 127
    },
    {
      "midi": 67,
      "hit": false,
      "t": 99266.81368750011,
      "d": 492.7883958333405,
      "v": 127
    },
    {
      "midi": 72,
      "hit": false,
      "t": 99272.82330208345,
      "d": 552.8845416666736,
      "v": 127
    },
    {
      "midi": 60,
      "hit": false,
      "t": 99272.82330208345,
      "d": 2265.62469791669,
      "v": 119
    },
    {
      "midi": 55,
      "hit": false,
      "t": 99543.25595833342,
      "d": 1526.4421041666792,
      "v": 125
    },
    {
      "midi": 60,
      "hit": false,
      "t": 99819.69822916677,
      "d": 1243.9902187499974,
      "v": 125
    },
    {
      "midi": 62,
      "hit": false,
      "t": 100096.1405000001,
      "d": 420.673020833332,
      "v": 121
    },
    {
      "midi": 67,
      "hit": false,
      "t": 100108.15972916679,
      "d": 72.11537499999395,
      "v": 127
    },
    {
      "midi": 64,
      "hit": false,
      "t": 100390.61161458342,
      "d": 673.0768333333399,
      "v": 121
    },
    {
      "midi": 48,
      "hit": false,
      "t": 100390.61161458345,
      "d": 324.51918750000186,
      "v": 85
    },
    {
      "midi": 76,
      "hit": false,
      "t": 100390.61161458345,
      "d": 342.54803125000035,
      "v": 127
    },
    {
      "midi": 67,
      "hit": false,
      "t": 100396.62122916679,
      "d": 300.4807291666657,
      "v": 127
    },
    {
      "midi": 72,
      "hit": false,
      "t": 100396.62122916679,
      "d": 324.51918750000186,
      "v": 127
    },
    {
      "midi": 72,
      "hit": false,
      "t": 100823.30386458346,
      "d": 276.44227083332953,
      "v": 127
    },
    {
      "midi": 69,
      "hit": false,
      "t": 100823.30386458346,
      "d": 282.4518854166672,
      "v": 119
    },
    {
      "midi": 77,
      "hit": false,
      "t": 100823.30386458346,
      "d": 372.5961041666742,
      "v": 127
    },
    {
      "midi": 67,
      "hit": false,
      "t": 101249.98650000013,
      "d": 42.06730208333465,
      "v": 127
    },
    {
      "midi": 76,
      "hit": false,
      "t": 101249.98650000013,
      "d": 48.07691666667233,
      "v": 119
    },
    {
      "midi": 72,
      "hit": false,
      "t": 101262.00572916679,
      "d": 30.048072916673846,
      "v": 119
    },
    {
      "midi": 59,
      "hit": false,
      "t": 101550.46722916677,
      "d": 330.52880208333954,
      "v": 125
    },
    {
      "midi": 62,
      "hit": false,
      "t": 101550.46722916677,
      "d": 618.9903020833444,
      "v": 121
    },
    {
      "midi": 55,
      "hit": false,
      "t": 101556.4768437501,
      "d": 114.1826770833286,
      "v": 121
    },
    {
      "midi": 57,
      "hit": false,
      "t": 101556.4768437501,
      "d": 114.1826770833286,
      "v": 125
    },
    {
      "midi": 71,
      "hit": false,
      "t": 101562.48645833347,
      "d": 300.48072916668025,
      "v": 119
    },
    {
      "midi": 74,
      "hit": false,
      "t": 101562.48645833347,
      "d": 492.7883958333405,
      "v": 127
    },
    {
      "midi": 67,
      "hit": false,
      "t": 101568.49607291681,
      "d": 216.34612500001094,
      "v": 119
    },
    {
      "midi": 69,
      "hit": false,
      "t": 101568.49607291681,
      "d": 288.4615000000049,
      "v": 127
    },
    {
      "midi": 55,
      "hit": false,
      "t": 101574.50568750015,
      "d": 1808.8939895833173,
      "v": 119
    },
    {
      "midi": 55,
      "hit": false,
      "t": 101874.98641666677,
      "d": 72.1153750000085,
      "v": 98
    },
    {
      "midi": 55,
      "hit": false,
      "t": 102133.39984375011,
      "d": 114.1826770833286,
      "v": 82
    },
    {
      "midi": 79,
      "hit": false,
      "t": 102397.82288541681,
      "d": 114.1826770833286,
      "v": 108
    },
    {
      "midi": 74,
      "hit": false,
      "t": 102409.84211458347,
      "d": 96.15383333333011,
      "v": 119
    },
    {
      "midi": 57,
      "hit": false,
      "t": 102415.85172916678,
      "d": 378.6057187500119,
      "v": 125
    },
    {
      "midi": 62,
      "hit": false,
      "t": 102704.31322916679,
      "d": 456.7307083333435,
      "v": 125
    },
    {
      "midi": 67,
      "hit": false,
      "t": 102986.76511458347,
      "d": 72.11537499999395,
      "v": 108
    },
    {
      "midi": 69,
      "hit": false,
      "t": 103275.22661458346,
      "d": 90.14421875000698,
      "v": 108
    },
    {
      "midi": 74,
      "hit": false,
      "t": 103275.22661458346,
      "d": 96.15383333334466,
      "v": 127
    },
    {
      "midi": 55,
      "hit": false,
      "t": 103557.67850000013,
      "d": 288.4615000000049,
      "v": 108
    },
    {
      "midi": 72,
      "hit": false,
      "t": 103858.15922916679,
      "d": 186.2980520833371,
      "v": 127
    },
    {
      "midi": 57,
      "hit": false,
      "t": 103864.16884375013,
      "d": 552.8845416666591,
      "v": 119
    },
    {
      "midi": 69,
      "hit": false,
      "t": 104002.3899791668,
      "d": 120.19229166666628,
      "v": 127
    },
    {
      "midi": 64,
      "hit": false,
      "t": 104134.60150000012,
      "d": 126.20190625000396,
      "v": 108
    },
    {
      "midi": 69,
      "hit": false,
      "t": 104284.84186458346,
      "d": 132.21152083332709,
      "v": 119
    },
    {
      "midi": 72,
      "hit": false,
      "t": 104423.06300000013,
      "d": 126.20190625000396,
      "v": 119
    },
    {
      "midi": 54,
      "hit": false,
      "t": 104423.06300000013,
      "d": 540.8653125000128,
      "v": 119
    },
    {
      "midi": 69,
      "hit": false,
      "t": 104567.29375000013,
      "d": 54.08653124999546,
      "v": 119
    },
    {
      "midi": 74,
      "hit": false,
      "t": 104711.52450000013,
      "d": 150.24036458334012,
      "v": 127
    },
    {
      "midi": 69,
      "hit": false,
      "t": 104855.75525000013,
      "d": 144.230750000017,
      "v": 127
    },
    {
      "midi": 55,
      "hit": false,
      "t": 104969.93792708348,
      "d": 576.9230000000098,
      "v": 119
    },
    {
      "midi": 71,
      "hit": false,
      "t": 104999.98600000015,
      "d": 228.3653541666572,
      "v": 127
    },
    {
      "midi": 67,
      "hit": false,
      "t": 105150.22636458348,
      "d": 108.17306250000547,
      "v": 110
    },
    {
      "midi": 62,
      "hit": false,
      "t": 105288.44750000015,
      "d": 132.21152083332709,
      "v": 106
    },
    {
      "midi": 67,
      "hit": false,
      "t": 105432.67825000014,
      "d": 108.17306250000547,
      "v": 119
    },
    {
      "midi": 52,
      "hit": false,
      "t": 105546.86092708349,
      "d": 570.9133854166721,
      "v": 119
    },
    {
      "midi": 71,
      "hit": false,
      "t": 105570.89938541682,
      "d": 198.3172812499979,
      "v": 127
    },
    {
      "midi": 67,
      "hit": false,
      "t": 105721.13975000015,
      "d": 66.10576041667082,
      "v": 119
    },
    {
      "midi": 72,
      "hit": false,
      "t": 105859.36088541681,
      "d": 120.19229166666628,
      "v": 127
    },
    {
      "midi": 67,
      "hit": false,
      "t": 106009.60125000015,
      "d": 138.22113541667932,
      "v": 127
    },
    {
      "midi": 69,
      "hit": false,
      "t": 106153.83200000017,
      "d": 414.66340625000885,
      "v": 127
    },
    {
      "midi": 53,
      "hit": false,
      "t": 106153.83200000017,
      "d": 1081.730625000011,
      "v": 127
    },
    {
      "midi": 65,
      "hit": false,
      "t": 106418.25504166684,
      "d": 270.4326562500064,
      "v": 127
    },
    {
      "midi": 60,
      "hit": false,
      "t": 106424.26465625013,
      "d": 1358.1728958333406,
      "v": 125
    },
    {
      "midi": 60,
      "hit": false,
      "t": 106706.71654166684,
      "d": 126.20190625000396,
      "v": 127
    },
    {
      "midi": 65,
      "hit": false,
      "t": 106718.73577083346,
      "d": 1051.6825520833518,
      "v": 121
    },
    {
      "midi": 65,
      "hit": false,
      "t": 106983.15881250019,
      "d": 180.28843749999942,
      "v": 127
    },
    {
      "midi": 67,
      "hit": false,
      "t": 107007.19727083347,
      "d": 757.2114375000092,
      "v": 109
    },
    {
      "midi": 69,
      "hit": false,
      "t": 107271.62031250013,
      "d": 468.7499375000043,
      "v": 109
    },
    {
      "midi": 65,
      "hit": false,
      "t": 107277.62992708352,
      "d": 156.2499791666778,
      "v": 127
    },
    {
      "midi": 60,
      "hit": false,
      "t": 107283.63954166685,
      "d": 144.23075000000244,
      "v": 127
    },
    {
      "midi": 53,
      "hit": false,
      "t": 107283.63954166685,
      "d": 270.43265625002095,
      "v": 108
    },
    {
      "midi": 69,
      "hit": false,
      "t": 107289.64915625019,
      "d": 174.2788229166763,
      "v": 119
    },
    {
      "midi": 62,
      "hit": false,
      "t": 107566.09142708353,
      "d": 144.23075000000244,
      "v": 119
    },
    {
      "midi": 71,
      "hit": false,
      "t": 107572.10104166687,
      "d": 198.31728125001246,
      "v": 127
    },
    {
      "midi": 67,
      "hit": false,
      "t": 107578.11065625021,
      "d": 162.25959375000093,
      "v": 119
    },
    {
      "midi": 55,
      "hit": false,
      "t": 107578.11065625021,
      "d": 276.4422708333441,
      "v": 119
    },
    {
      "midi": 57,
      "hit": false,
      "t": 107860.56254166689,
      "d": 108.17306250000547,
      "v": 119
    },
    {
      "midi": 65,
      "hit": false,
      "t": 107866.57215625023,
      "d": 120.19229166666628,
      "v": 127
    },
    {
      "midi": 69,
      "hit": false,
      "t": 107866.57215625023,
      "d": 132.21152083332709,
      "v": 127
    },
    {
      "midi": 72,
      "hit": false,
      "t": 107872.58177083357,
      "d": 156.24997916666325,
      "v": 127
    },
    {
      "midi": 74,
      "hit": false,
      "t": 108149.0240416669,
      "d": 210.33651041667326,
      "v": 119
    },
    {
      "midi": 62,
      "hit": false,
      "t": 108149.0240416669,
      "d": 288.4615000000049,
      "v": 108
    },
    {
      "midi": 71,
      "hit": false,
      "t": 108155.03365625023,
      "d": 102.16344791666779,
      "v": 119
    },
    {
      "midi": 67,
      "hit": false,
      "t": 108155.03365625023,
      "d": 186.2980520833371,
      "v": 127
    },
    {
      "midi": 60,
      "hit": false,
      "t": 108449.50477083356,
      "d": 805.2883541666524,
      "v": 119
    },
    {
      "midi": 67,
      "hit": false,
      "t": 108455.5143854169,
      "d": 504.80762499998673,
      "v": 127
    },
    {
      "midi": 72,
      "hit": false,
      "t": 108455.5143854169,
      "d": 721.1537499999831,
      "v": 127
    },
    {
      "midi": 76,
      "hit": false,
      "t": 108455.5143854169,
      "d": 775.2402812499786,
      "v": 127
    },
    {
      "midi": 55,
      "hit": false,
      "t": 108725.9470416668,
      "d": 1676.6824687500048,
      "v": 125
    },
    {
      "midi": 60,
      "hit": false,
      "t": 109014.40854166681,
      "d": 1322.115208333329,
      "v": 109
    },
    {
      "midi": 62,
      "hit": false,
      "t": 109302.87004166681,
      "d": 1033.6537083333242,
      "v": 125
    },
    {
      "midi": 67,
      "hit": false,
      "t": 109314.88927083355,
      "d": 102.16344791666779,
      "v": 119
    },
    {
      "midi": 60,
      "hit": false,
      "t": 109332.91811458355,
      "d": 84.1346041666693,
      "v": 43
    },
    {
      "midi": 64,
      "hit": false,
      "t": 109579.31231250014,
      "d": 757.2114374999946,
      "v": 109
    },
    {
      "midi": 60,
      "hit": false,
      "t": 109603.35077083355,
      "d": 1189.903687500031,
      "v": 119
    },
    {
      "midi": 67,
      "hit": false,
      "t": 109609.36038541689,
      "d": 300.4807291666657,
      "v": 127
    },
    {
      "midi": 72,
      "hit": false,
      "t": 109615.37000000023,
      "d": 330.528802083325,
      "v": 108
    },
    {
      "midi": 76,
      "hit": false,
      "t": 109615.37000000023,
      "d": 336.53841666666267,
      "v": 119
    },
    {
      "midi": 69,
      "hit": false,
      "t": 110036.04302083356,
      "d": 300.4807291666657,
      "v": 127
    },
    {
      "midi": 72,
      "hit": false,
      "t": 110036.04302083356,
      "d": 324.51918750000186,
      "v": 127
    },
    {
      "midi": 77,
      "hit": false,
      "t": 110042.0526354169,
      "d": 336.53841666666267,
      "v": 127
    },
    {
      "midi": 76,
      "hit": false,
      "t": 110480.75450000023,
      "d": 60.09614583334769,
      "v": 119
    },
    {
      "midi": 67,
      "hit": false,
      "t": 110486.76411458357,
      "d": 222.35573958334862,
      "v": 127
    },
    {
      "midi": 72,
      "hit": false,
      "t": 110492.7737291669,
      "d": 54.08653125001001,
      "v": 119
    },
    {
      "midi": 67,
      "hit": false,
      "t": 110805.27368750024,
      "d": 378.6057187500119,
      "v": 119
    },
    {
      "midi": 71,
      "hit": false,
      "t": 110805.27368750024,
      "d": 474.759552083342,
      "v": 108
    },
    {
      "midi": 74,
      "hit": false,
      "t": 110805.27368750024,
      "d": 504.80762500001583,
      "v": 119
    },
    {
      "midi": 55,
      "hit": false,
      "t": 110805.27368750024,
      "d": 588.9422291666851,
      "v": 119
    },
    {
      "midi": 69,
      "hit": false,
      "t": 110811.28330208358,
      "d": 468.7499375000043,
      "v": 119
    },
    {
      "midi": 55,
      "hit": false,
      "t": 111057.67750000015,
      "d": 1460.3363437500084,
      "v": 125
    },
    {
      "midi": 59,
      "hit": false,
      "t": 111328.11015625016,
      "d": 1183.8940729166643,
      "v": 121
    },
    {
      "midi": 67,
      "hit": false,
      "t": 111328.11015625026,
      "d": 42.06730208333465,
      "v": 108
    },
    {
      "midi": 60,
      "hit": false,
      "t": 111604.55242708349,
      "d": 378.6057187499973,
      "v": 109
    },
    {
      "midi": 55,
      "hit": false,
      "t": 111622.5812708336,
      "d": 66.10576041667082,
      "v": 108
    },
    {
      "midi": 62,
      "hit": false,
      "t": 111911.04277083349,
      "d": 631.0095312500052,
      "v": 121
    },
    {
      "midi": 74,
      "hit": false,
      "t": 111929.0716145836,
      "d": 156.2499791666778,
      "v": 127
    },
    {
      "midi": 71,
      "hit": false,
      "t": 111935.08122916694,
      "d": 456.7307083333435,
      "v": 127
    },
    {
      "midi": 55,
      "hit": false,
      "t": 111935.08122916694,
      "d": 787.259510416683,
      "v": 119
    },
    {
      "midi": 69,
      "hit": false,
      "t": 111941.09084375028,
      "d": 450.7210937500058,
      "v": 127
    },
    {
      "midi": 67,
      "hit": false,
      "t": 111941.09084375028,
      "d": 456.7307083333435,
      "v": 119
    },
    {
      "midi": 76,
      "hit": false,
      "t": 112229.55234375029,
      "d": 138.22113541666477,
      "v": 119
    },
    {
      "midi": 72,
      "hit": false,
      "t": 112241.57157291695,
      "d": 24.038458333336166,
      "v": 85
    },
    {
      "midi": 74,
      "hit": false,
      "t": 112512.00422916695,
      "d": 78.12498958334618,
      "v": 108
    },
    {
      "midi": 69,
      "hit": false,
      "t": 112518.01384375029,
      "d": 48.07691666667233,
      "v": 108
    },
    {
      "midi": 71,
      "hit": false,
      "t": 112518.01384375029,
      "d": 48.07691666667233,
      "v": 108
    },
    {
      "midi": 67,
      "hit": false,
      "t": 112524.02345833363,
      "d": 48.07691666667233,
      "v": 108
    },
    {
      "midi": 72,
      "hit": false,
      "t": 112800.46572916696,
      "d": 697.1152916666906,
      "v": 127
    },
    {
      "midi": 65,
      "hit": false,
      "t": 112806.4753437503,
      "d": 480.76916666667967,
      "v": 127
    },
    {
      "midi": 69,
      "hit": false,
      "t": 112806.4753437503,
      "d": 552.8845416666736,
      "v": 127
    },
    {
      "midi": 65,
      "hit": false,
      "t": 113064.8887708335,
      "d": 390.6249479166727,
      "v": 125
    },
    {
      "midi": 57,
      "hit": false,
      "t": 113070.89838541683,
      "d": 210.3365104166587,
      "v": 125
    },
    {
      "midi": 60,
      "hit": false,
      "t": 113070.89838541683,
      "d": 348.5576458333235,
      "v": 125
    },
    {
      "midi": 53,
      "hit": false,
      "t": 113082.91761458364,
      "d": 2704.3265625000495,
      "v": 108
    },
    {
      "midi": 41,
      "hit": false,
      "t": 113088.92722916698,
      "d": 138.22113541666477,
      "v": 127
    },
    {
      "midi": 65,
      "hit": false,
      "t": 113389.40795833364,
      "d": 108.17306250000547,
      "v": 96
    },
    {
      "midi": 57,
      "hit": false,
      "t": 113395.41757291682,
      "d": 30.048072916673846,
      "v": 67
    },
    {
      "midi": 60,
      "hit": false,
      "t": 113659.8406145835,
      "d": 48.07691666667233,
      "v": 121
    },
    {
      "midi": 69,
      "hit": false,
      "t": 113665.85022916699,
      "d": 54.08653125001001,
      "v": 108
    },
    {
      "midi": 65,
      "hit": false,
      "t": 113683.87907291699,
      "d": 30.048072916673846,
      "v": 85
    },
    {
      "midi": 65,
      "hit": false,
      "t": 113948.30211458351,
      "d": 582.9326145833329,
      "v": 125
    },
    {
      "midi": 69,
      "hit": false,
      "t": 113948.30211458351,
      "d": 600.9614583333314,
      "v": 125
    },
    {
      "midi": 69,
      "hit": false,
      "t": 113948.30211458367,
      "d": 204.32689583333558,
      "v": 127
    },
    {
      "midi": 72,
      "hit": false,
      "t": 113948.30211458367,
      "d": 618.9903020833444,
      "v": 127
    },
    {
      "midi": 77,
      "hit": false,
      "t": 113948.30211458367,
      "d": 823.31719791668,
      "v": 127
    },
    {
      "midi": 60,
      "hit": false,
      "t": 113954.31172916685,
      "d": 438.70186458333046,
      "v": 125
    },
    {
      "midi": 65,
      "hit": false,
      "t": 114513.205885417,
      "d": 48.07691666667233,
      "v": 96
    },
    {
      "midi": 60,
      "hit": false,
      "t": 114519.21550000018,
      "d": 108.17306249999092,
      "v": 98
    },
    {
      "midi": 69,
      "hit": false,
      "t": 114801.66738541702,
      "d": 66.10576041667082,
      "v": 119
    },
    {
      "midi": 65,
      "hit": false,
      "t": 114807.67700000017,
      "d": 90.14421875000698,
      "v": 109
    },
    {
      "midi": 60,
      "hit": false,
      "t": 115096.13850000018,
      "d": 378.6057187499973,
      "v": 125
    },
    {
      "midi": 69,
      "hit": false,
      "t": 115096.13850000018,
      "d": 576.9229999999952,
      "v": 125
    },
    {
      "midi": 69,
      "hit": false,
      "t": 115096.13850000036,
      "d": 631.0095312500052,
      "v": 127
    },
    {
      "midi": 79,
      "hit": false,
      "t": 115096.13850000036,
      "d": 655.0479895833269,
      "v": 127
    },
    {
      "midi": 65,
      "hit": false,
      "t": 115102.14811458351,
      "d": 546.8749270833214,
      "v": 125
    },
    {
      "midi": 72,
      "hit": false,
      "t": 115102.1481145837,
      "d": 703.1249062499846,
      "v": 127
    },
    {
      "midi": 74,
      "hit": false,
      "t": 115102.1481145837,
      "d": 703.1249062499846,
      "v": 127
    },
    {
      "midi": 65,
      "hit": false,
      "t": 115685.08072916704,
      "d": 54.08653124999546,
      "v": 108
    },
    {
      "midi": 60,
      "hit": false,
      "t": 115691.09034375017,
      "d": 42.06730208333465,
      "v": 98
    },
    {
      "midi": 67,
      "hit": false,
      "t": 115961.52300000035,
      "d": 84.1346041666693,
      "v": 119
    },
    {
      "midi": 65,
      "hit": false,
      "t": 115967.5326145835,
      "d": 54.08653124999546,
      "v": 98
    },
    {
      "midi": 72,
      "hit": false,
      "t": 116237.96527083368,
      "d": 631.0095312500052,
      "v": 127
    },
    {
      "midi": 74,
      "hit": false,
      "t": 116237.96527083368,
      "d": 631.0095312500052,
      "v": 127
    },
    {
      "midi": 79,
      "hit": false,
      "t": 116237.96527083368,
      "d": 643.028760416666,
      "v": 127
    },
    {
      "midi": 67,
      "hit": false,
      "t": 116243.97488541702,
      "d": 679.086447916663,
      "v": 119
    },
    {
      "midi": 53,
      "hit": false,
      "t": 116255.99411458368,
      "d": 835.3364270833408,
      "v": 108
    },
    {
      "midi": 69,
      "hit": false,
      "t": 116262.00372916683,
      "d": 66.10576041667082,
      "v": 125
    },
    {
      "midi": 65,
      "hit": false,
      "t": 116262.00372916683,
      "d": 78.12498958333163,
      "v": 125
    },
    {
      "midi": 72,
      "hit": false,
      "t": 116268.01334375016,
      "d": 72.11537499999395,
      "v": 125
    },
    {
      "midi": 65,
      "hit": false,
      "t": 116826.90750000035,
      "d": 102.16344791666779,
      "v": 127
    },
    {
      "midi": 72,
      "hit": false,
      "t": 117115.36900000036,
      "d": 156.2499791666778,
      "v": 127
    },
    {
      "midi": 74,
      "hit": false,
      "t": 117115.36900000036,
      "d": 174.2788229166763,
      "v": 127
    },
    {
      "midi": 67,
      "hit": false,
      "t": 117115.36900000036,
      "d": 180.28843750001397,
      "v": 127
    },
    {
      "midi": 79,
      "hit": false,
      "t": 117121.3786145837,
      "d": 186.2980520833371,
      "v": 127
    },
    {
      "midi": 60,
      "hit": false,
      "t": 117692.29200000037,
      "d": 853.3652708333393,
      "v": 127
    },
    {
      "midi": 64,
      "hit": false,
      "t": 117692.29200000037,
      "d": 1129.8075416666688,
      "v": 127
    },
    {
      "midi": 67,
      "hit": false,
      "t": 117692.29200000037,
      "d": 1129.8075416666688,
      "v": 127
    },
    {
      "midi": 36,
      "hit": false,
      "t": 117692.29200000037,
      "d": 1574.519020833337,
      "v": 96
    },
    {
      "midi": 48,
      "hit": false,
      "t": 117692.29200000037,
      "d": 2259.6150833333522,
      "v": 108
    },
    {
      "midi": 60,
      "hit": false,
      "t": 118545.6572708337,
      "d": 288.46149999999034,
      "v": 108
    },
    {
      "midi": 67,
      "hit": false,
      "t": 118840.12838541703,
      "d": 853.3652708333393,
      "v": 127
    },
    {
      "midi": 64,
      "hit": false,
      "t": 118840.12838541703,
      "d": 865.3845000000147,
      "v": 127
    },
    {
      "midi": 60,
      "hit": false,
      "t": 118846.13800000037,
      "d": 865.3845000000147,
      "v": 127
    },
    {
      "midi": 67,
      "hit": false,
      "t": 119693.49365625037,
      "d": 288.46150000001944,
      "v": 127
    },
    {
      "midi": 59,
      "hit": false,
      "t": 119699.50327083371,
      "d": 288.46150000001944,
      "v": 127
    },
    {
      "midi": 62,
      "hit": false,
      "t": 119699.50327083371,
      "d": 294.4711145833571,
      "v": 127
    },
    {
      "midi": 67,
      "hit": false,
      "t": 119981.95515625039,
      "d": 552.8845416666736,
      "v": 127
    },
    {
      "midi": 59,
      "hit": false,
      "t": 119987.96477083373,
      "d": 390.6249479166727,
      "v": 127
    },
    {
      "midi": 43,
      "hit": false,
      "t": 119987.96477083373,
      "d": 546.8749270833359,
      "v": 119
    },
    {
      "midi": 62,
      "hit": false,
      "t": 119993.97438541707,
      "d": 546.8749270833359,
      "v": 127
    },
    {
      "midi": 59,
      "hit": false,
      "t": 120570.89738541708,
      "d": 240.38458333333256,
      "v": 80
    },
    {
      "midi": 65,
      "hit": false,
      "t": 120853.34927083374,
      "d": 288.4615000000049,
      "v": 119
    },
    {
      "midi": 57,
      "hit": false,
      "t": 120853.34927083374,
      "d": 294.47111458334257,
      "v": 127
    },
    {
      "midi": 60,
      "hit": false,
      "t": 120853.34927083374,
      "d": 294.47111458334257,
      "v": 127
    },
    {
      "midi": 65,
      "hit": false,
      "t": 121141.81077083375,
      "d": 643.0287604166951,
      "v": 127
    },
    {
      "midi": 57,
      "hit": false,
      "t": 121147.82038541709,
      "d": 552.8845416666736,
      "v": 127
    },
    {
      "midi": 60,
      "hit": false,
      "t": 121147.82038541709,
      "d": 552.8845416666736,
      "v": 127
    },
    {
      "midi": 41,
      "hit": false,
      "t": 121147.82038541709,
      "d": 582.9326145833475,
      "v": 119
    },
    {
      "midi": 53,
      "hit": false,
      "t": 121436.28188541709,
      "d": 288.4615000000049,
      "v": 96
    },
    {
      "midi": 57,
      "hit": false,
      "t": 121736.76261458377,
      "d": 216.34612500001094,
      "v": 108
    },
    {
      "midi": 64,
      "hit": false,
      "t": 121995.17604166712,
      "d": 276.4422708333441,
      "v": 108
    },
    {
      "midi": 55,
      "hit": false,
      "t": 122001.18565625045,
      "d": 282.4518854166672,
      "v": 127
    },
    {
      "midi": 60,
      "hit": false,
      "t": 122001.18565625045,
      "d": 282.4518854166672,
      "v": 119
    },
    {
      "midi": 64,
      "hit": false,
      "t": 122271.61831250046,
      "d": 2145.43240624998,
      "v": 127
    },
    {
      "midi": 55,
      "hit": false,
      "t": 122283.63754166712,
      "d": 1574.5190208333224,
      "v": 127
    },
    {
      "midi": 60,
      "hit": false,
      "t": 122283.63754166712,
      "d": 1983.172812499979,
      "v": 127
    },
    {
      "midi": 36,
      "hit": false,
      "t": 122289.64715625046,
      "d": 1117.7883124999935,
      "v": 119
    },
    {
      "midi": 48,
      "hit": false,
      "t": 123155.03165625046,
      "d": 288.46149999999034,
      "v": 108
    },
    {
      "midi": 48,
      "hit": false,
      "t": 123455.51238541711,
      "d": 576.9229999999952,
      "v": 127
    },
    {
      "midi": 48,
      "hit": false,
      "t": 124302.8680416671,
      "d": 685.0960625000153,
      "v": 91
    },
    {
      "midi": 55,
      "hit": false,
      "t": 124308.87765625044,
      "d": 312.49995833334106,
      "v": 96
    },
    {
      "midi": 36,
      "hit": false,
      "t": 124603.34877083378,
      "d": 552.8845416666736,
      "v": 108
    },
    {
      "midi": 60,
      "hit": false,
      "t": 124879.79104166711,
      "d": 576.9230000000098,
      "v": 127
    },
    {
      "midi": 64,
      "hit": false,
      "t": 124879.79104166711,
      "d": 576.9230000000098,
      "v": 127
    },
    {
      "midi": 55,
      "hit": false,
      "t": 124885.80065625045,
      "d": 576.9230000000098,
      "v": 127
    },
    {
      "midi": 48,
      "hit": false,
      "t": 125174.26215625045,
      "d": 288.4615000000049,
      "v": 108
    },
    {
      "midi": 57,
      "hit": false,
      "t": 125462.72365625045,
      "d": 552.8845416666736,
      "v": 119
    },
    {
      "midi": 65,
      "hit": false,
      "t": 125462.72365625045,
      "d": 552.8845416666736,
      "v": 127
    },
    {
      "midi": 60,
      "hit": false,
      "t": 125468.73327083379,
      "d": 552.8845416666736,
      "v": 127
    },
    {
      "midi": 48,
      "hit": false,
      "t": 125739.1659270838,
      "d": 336.5384166666772,
      "v": 96
    },
    {
      "midi": 67,
      "hit": false,
      "t": 126039.64665625046,
      "d": 811.2979687500047,
      "v": 127
    },
    {
      "midi": 59,
      "hit": false,
      "t": 126045.6562708338,
      "d": 703.1249062499992,
      "v": 127
    },
    {
      "midi": 62,
      "hit": false,
      "t": 126045.6562708338,
      "d": 835.3364270833408,
      "v": 127
    },
    {
      "midi": 43,
      "hit": false,
      "t": 126292.05046875047,
      "d": 606.9710729166691,
      "v": 127
    },
    {
      "midi": 48,
      "hit": false,
      "t": 126616.56965625047,
      "d": 1820.9132187500363,
      "v": 127
    },
    {
      "midi": 67,
      "hit": false,
      "t": 126923.06000000048,
      "d": 637.0191458333429,
      "v": 119
    },
    {
      "midi": 64,
      "hit": false,
      "t": 126923.06000000048,
      "d": 841.3460416666785,
      "v": 127
    },
    {
      "midi": 60,
      "hit": false,
      "t": 126929.06961458382,
      "d": 841.3460416666785,
      "v": 127
    },
    {
      "midi": 36,
      "hit": false,
      "t": 126929.06961458382,
      "d": 1177.8844583333557,
      "v": 119
    },
    {
      "midi": 64,
      "hit": false,
      "t": 127782.43488541715,
      "d": 288.4615000000049,
      "v": 119
    },
    {
      "midi": 67,
      "hit": false,
      "t": 127782.43488541715,
      "d": 288.4615000000049,
      "v": 108
    },
    {
      "midi": 60,
      "hit": false,
      "t": 127788.44450000049,
      "d": 288.4615000000049,
      "v": 108
    },
    {
      "midi": 64,
      "hit": false,
      "t": 128070.89638541716,
      "d": 793.2691250000207,
      "v": 127
    },
    {
      "midi": 67,
      "hit": false,
      "t": 128070.89638541716,
      "d": 793.2691250000207,
      "v": 127
    },
    {
      "midi": 60,
      "hit": false,
      "t": 128076.9060000005,
      "d": 793.2691250000207,
      "v": 127
    },
    {
      "midi": 59,
      "hit": false,
      "t": 128918.25204166719,
      "d": 264.4230416666687,
      "v": 127
    },
    {
      "midi": 50,
      "hit": false,
      "t": 128948.30011458386,
      "d": 264.4230416666687,
      "v": 117
    },
    {
      "midi": 67,
      "hit": false,
      "t": 129206.7135416672,
      "d": 18.02884375001304,
      "v": 127
    },
    {
      "midi": 59,
      "hit": false,
      "t": 129206.7135416672,
      "d": 643.0287604166806,
      "v": 127
    },
    {
      "midi": 62,
      "hit": false,
      "t": 129212.72315625053,
      "d": 12.019229166675359,
      "v": 127
    },
    {
      "midi": 43,
      "hit": false,
      "t": 129218.73277083387,
      "d": 679.0864479166776,
      "v": 108
    },
    {
      "midi": 55,
      "hit": false,
      "t": 129819.6942291672,
      "d": 240.3845833333471,
      "v": 96
    },
    {
      "midi": 65,
      "hit": false,
      "t": 130090.12688541722,
      "d": 288.4615000000049,
      "v": 108
    },
    {
      "midi": 57,
      "hit": false,
      "t": 130096.13650000056,
      "d": 282.4518854166672,
      "v": 108
    },
    {
      "midi": 60,
      "hit": false,
      "t": 130096.13650000056,
      "d": 288.4615000000049,
      "v": 108
    },
    {
      "midi": 57,
      "hit": false,
      "t": 130378.58838541723,
      "d": 408.65379166667117,
      "v": 127
    },
    {
      "midi": 65,
      "hit": false,
      "t": 130378.58838541723,
      "d": 594.9518437500083,
      "v": 127
    },
    {
      "midi": 60,
      "hit": false,
      "t": 130384.59800000057,
      "d": 564.9037708333344,
      "v": 127
    },
    {
      "midi": 41,
      "hit": false,
      "t": 130384.59800000057,
      "d": 631.0095312500052,
      "v": 119
    },
    {
      "midi": 53,
      "hit": false,
      "t": 130673.05950000057,
      "d": 234.37496874999488,
      "v": 96
    },
    {
      "midi": 57,
      "hit": false,
      "t": 130979.54984375057,
      "d": 264.42304166665417,
      "v": 108
    },
    {
      "midi": 64,
      "hit": false,
      "t": 131237.9632708339,
      "d": 288.4615000000049,
      "v": 108
    },
    {
      "midi": 55,
      "hit": false,
      "t": 131243.97288541723,
      "d": 288.4615000000049,
      "v": 119
    },
    {
      "midi": 60,
      "hit": false,
      "t": 131243.97288541723,
      "d": 288.4615000000049,
      "v": 119
    },
    {
      "midi": 64,
      "hit": false,
      "t": 131526.4247708339,
      "d": 895.432572916674,
      "v": 108
    },
    {
      "midi": 55,
      "hit": false,
      "t": 131532.43438541723,
      "d": 847.3556562500016,
      "v": 127
    },
    {
      "midi": 60,
      "hit": false,
      "t": 131532.43438541723,
      "d": 859.374885416677,
      "v": 127
    },
    {
      "midi": 36,
      "hit": false,
      "t": 131532.43438541723,
      "d": 1147.8363854166528,
      "v": 127
    },
    {
      "midi": 48,
      "hit": false,
      "t": 132397.81888541725,
      "d": 216.34612499998184,
      "v": 119
    },
    {
      "midi": 48,
      "hit": false,
      "t": 132686.28038541722,
      "d": 667.0672187500168,
      "v": 119
    },
    {
      "midi": 67,
      "hit": false,
      "t": 132974.74188541723,
      "d": 300.48072916668025,
      "v": 127
    },
    {
      "midi": 62,
      "hit": false,
      "t": 133263.20338541723,
      "d": 576.9230000000098,
      "v": 127
    },
    {
      "midi": 48,
      "hit": false,
      "t": 133551.66488541724,
      "d": 288.4615000000049,
      "v": 108
    },
    {
      "midi": 64,
      "hit": false,
      "t": 133846.13600000058,
      "d": 793.2691250000207,
      "v": 119
    },
    {
      "midi": 59,
      "hit": false,
      "t": 133852.14561458392,
      "d": 793.2691250000207,
      "v": 127
    },
    {
      "midi": 56,
      "hit": false,
      "t": 133858.15522916726,
      "d": 793.2691250000207,
      "v": 127
    },
    {
      "midi": 44,
      "hit": false,
      "t": 133864.1648437506,
      "d": 841.346041666693,
      "v": 127
    },
    {
      "midi": 64,
      "hit": false,
      "t": 134693.4916562506,
      "d": 624.9999166666821,
      "v": 108
    },
    {
      "midi": 60,
      "hit": false,
      "t": 134699.50127083395,
      "d": 624.9999166666821,
      "v": 127
    },
    {
      "midi": 57,
      "hit": false,
      "t": 134705.5108854173,
      "d": 582.9326145833475,
      "v": 127
    },
    {
      "midi": 45,
      "hit": false,
      "t": 134705.5108854173,
      "d": 1135.8171562500356,
      "v": 119
    },
    {
      "midi": 57,
      "hit": false,
      "t": 135288.44350000063,
      "d": 288.4615000000049,
      "v": 108
    },
    {
      "midi": 59,
      "hit": false,
      "t": 135588.9242291673,
      "d": 240.38458333333256,
      "v": 101
    },
    {
      "midi": 67,
      "hit": false,
      "t": 135847.33765625066,
      "d": 649.0383750000037,
      "v": 119
    },
    {
      "midi": 59,
      "hit": false,
      "t": 135853.347270834,
      "d": 576.9230000000098,
      "v": 127
    },
    {
      "midi": 62,
      "hit": false,
      "t": 135853.347270834,
      "d": 649.0383750000037,
      "v": 127
    },
    {
      "midi": 47,
      "hit": false,
      "t": 135859.35688541734,
      "d": 1159.8556145833572,
      "v": 127
    },
    {
      "midi": 59,
      "hit": false,
      "t": 136430.270270834,
      "d": 528.8460833333374,
      "v": 119
    },
    {
      "midi": 62,
      "hit": false,
      "t": 136718.731770834,
      "d": 288.4615000000049,
      "v": 119
    },
    {
      "midi": 64,
      "hit": false,
      "t": 136995.17404166734,
      "d": 552.8845416666882,
      "v": 127
    },
    {
      "midi": 60,
      "hit": false,
      "t": 137007.19327083402,
      "d": 552.8845416666882,
      "v": 127
    },
    {
      "midi": 67,
      "hit": false,
      "t": 137007.19327083402,
      "d": 552.8845416666882,
      "v": 127
    },
    {
      "midi": 48,
      "hit": false,
      "t": 137013.20288541735,
      "d": 516.8268541666621,
      "v": 118
    },
    {
      "midi": 60,
      "hit": false,
      "t": 137560.0778125007,
      "d": 841.346041666693,
      "v": 127
    },
    {
      "midi": 64,
      "hit": false,
      "t": 137560.0778125007,
      "d": 841.346041666693,
      "v": 119
    },
    {
      "midi": 55,
      "hit": false,
      "t": 137566.08742708404,
      "d": 865.3845000000147,
      "v": 127
    },
    {
      "midi": 40,
      "hit": false,
      "t": 137578.10665625072,
      "d": 865.3845000000147,
      "v": 127
    },
    {
      "midi": 67,
      "hit": false,
      "t": 138395.41423958406,
      "d": 793.2691249999916,
      "v": 119
    },
    {
      "midi": 41,
      "hit": false,
      "t": 138401.4238541674,
      "d": 793.2691249999916,
      "v": 127
    },
    {
      "midi": 60,
      "hit": false,
      "t": 138401.4238541674,
      "d": 793.2691249999916,
      "v": 127
    },
    {
      "midi": 64,
      "hit": false,
      "t": 138401.4238541674,
      "d": 793.2691249999916,
      "v": 127
    },
    {
      "midi": 60,
      "hit": false,
      "t": 139320.8948854174,
      "d": 270.43265624999185,
      "v": 91
    },
    {
      "midi": 57,
      "hit": false,
      "t": 139320.8948854174,
      "d": 276.44227083332953,
      "v": 91
    },
    {
      "midi": 53,
      "hit": false,
      "t": 139326.90450000073,
      "d": 270.43265624999185,
      "v": 80
    },
    {
      "midi": 60,
      "hit": false,
      "t": 139591.3275416674,
      "d": 576.9230000000098,
      "v": 127
    },
    {
      "midi": 53,
      "hit": false,
      "t": 139597.33715625072,
      "d": 576.9230000000098,
      "v": 127
    },
    {
      "midi": 57,
      "hit": false,
      "t": 139597.33715625072,
      "d": 576.9230000000098,
      "v": 127
    },
    {
      "midi": 53,
      "hit": false,
      "t": 140174.26015625073,
      "d": 240.38458333333256,
      "v": 119
    },
    {
      "midi": 53,
      "hit": false,
      "t": 140450.70242708406,
      "d": 312.4999583333265,
      "v": 96
    },
    {
      "midi": 53,
      "hit": false,
      "t": 140769.21200000073,
      "d": 384.61533333334955,
      "v": 119
    },
    {
      "midi": 57,
      "hit": false,
      "t": 140769.21200000073,
      "d": 384.61533333334955,
      "v": 127
    },
    {
      "midi": 60,
      "hit": false,
      "t": 140769.21200000073,
      "d": 384.61533333334955,
      "v": 127
    },
    {
      "midi": 43,
      "hit": false,
      "t": 140775.22161458406,
      "d": 997.5960208333563,
      "v": 119
    },
    {
      "midi": 55,
      "hit": false,
      "t": 141177.8657916674,
      "d": 312.4999583333265,
      "v": 127
    },
    {
      "midi": 59,
      "hit": false,
      "t": 141183.87540625074,
      "d": 312.4999583333265,
      "v": 127
    },
    {
      "midi": 62,
      "hit": false,
      "t": 141183.87540625074,
      "d": 312.4999583333265,
      "v": 127
    },
    {
      "midi": 57,
      "hit": false,
      "t": 141550.46189583407,
      "d": 360.57687500002794,
      "v": 127
    },
    {
      "midi": 64,
      "hit": false,
      "t": 141550.46189583407,
      "d": 360.57687500002794,
      "v": 127
    },
    {
      "midi": 60,
      "hit": false,
      "t": 141556.4715104174,
      "d": 360.57687500002794,
      "v": 127
    },
    {
      "midi": 62,
      "hit": false,
      "t": 141893.0099270841,
      "d": 384.61533333334955,
      "v": 127
    },
    {
      "midi": 55,
      "hit": false,
      "t": 141899.01954166743,
      "d": 414.66340625000885,
      "v": 127
    },
    {
      "midi": 59,
      "hit": false,
      "t": 141899.01954166743,
      "d": 414.66340625000885,
      "v": 119
    },
    {
      "midi": 43,
      "hit": false,
      "t": 141899.01954166743,
      "d": 637.0191458333284,
      "v": 108
    },
    {
      "midi": 57,
      "hit": false,
      "t": 142457.91369791742,
      "d": 252.40381250000792,
      "v": 127
    },
    {
      "midi": 60,
      "hit": false,
      "t": 142463.92331250076,
      "d": 474.75955208332743,
      "v": 119
    },
    {
      "midi": 53,
      "hit": false,
      "t": 142469.9329270841,
      "d": 366.5864895833365,
      "v": 108
    },
    {
      "midi": 43,
      "hit": false,
      "t": 142716.32712500077,
      "d": 318.5095729166642,
      "v": 119
    },
    {
      "midi": 60,
      "hit": false,
      "t": 143016.80785416742,
      "d": 3010.8169062500237,
      "v": 91
    },
    {
      "midi": 55,
      "hit": false,
      "t": 143028.8270833341,
      "d": 3004.807291666686,
      "v": 127
    },
    {
      "midi": 52,
      "hit": false,
      "t": 143028.8270833341,
      "d": 3010.8169062500237,
      "v": 127
    },
    {
      "midi": 36,
      "hit": false,
      "t": 143034.83669791743,
      "d": 2950.720760416676,
      "v": 119
    },
    {
      "midi": 60,
      "hit": false,
      "t": 146219.9324270835,
      "d": 168.2692083333095,
      "v": 121
    },
    {
      "midi": 62,
      "hit": false,
      "t": 146364.16317708348,
      "d": 132.21152083331253,
      "v": 109
    },
    {
      "midi": 64,
      "hit": false,
      "t": 146514.4035416668,
      "d": 354.56726041666116,
      "v": 121
    },
    {
      "midi": 62,
      "hit": false,
      "t": 146826.90350000013,
      "d": 324.51918750000186,
      "v": 121
    },
    {
      "midi": 60,
      "hit": false,
      "t": 147115.36500000014,
      "d": 294.47111458334257,
      "v": 109
    },
    {
      "midi": 59,
      "hit": false,
      "t": 147397.8168854168,
      "d": 270.43265625002095,
      "v": 109
    },
    {
      "midi": 43,
      "hit": false,
      "t": 147692.28800000015,
      "d": 570.9133854166721,
      "v": 125
    },
    {
      "midi": 43,
      "hit": false,
      "t": 148828.10515625015,
      "d": 673.0768333333544,
      "v": 98
    },
    {
      "midi": 52,
      "hit": false,
      "t": 149128.58588541683,
      "d": 594.9518437500228,
      "v": 109
    },
    {
      "midi": 57,
      "hit": false,
      "t": 149411.0377708335,
      "d": 516.8268541666912,
      "v": 125
    },
    {
      "midi": 60,
      "hit": false,
      "t": 149705.50888541684,
      "d": 288.4615000000049,
      "v": 109
    },
    {
      "midi": 43,
      "hit": false,
      "t": 149705.50888541684,
      "d": 318.5095729166933,
      "v": 121
    },
    {
      "midi": 62,
      "hit": false,
      "t": 150005.98961458352,
      "d": 1382.2113541666768,
      "v": 109
    },
    {
      "midi": 42,
      "hit": false,
      "t": 150011.99922916686,
      "d": 667.0672187500168,
      "v": 109
    },
    {
      "midi": 54,
      "hit": false,
      "t": 150011.99922916686,
      "d": 757.2114375000237,
      "v": 121
    },
    {
      "midi": 57,
      "hit": false,
      "t": 150011.99922916686,
      "d": 1412.259427083336,
      "v": 125
    },
    {
      "midi": 42,
      "hit": false,
      "t": 150883.3933437502,
      "d": 96.15383333334466,
      "v": 93
    },
    {
      "midi": 42,
      "hit": false,
      "t": 151165.84522916688,
      "d": 685.0960625000007,
      "v": 98
    },
    {
      "midi": 54,
      "hit": false,
      "t": 151436.27788541687,
      "d": 606.9710729166982,
      "v": 109
    },
    {
      "midi": 57,
      "hit": false,
      "t": 151730.7490000002,
      "d": 306.4903437500179,
      "v": 121
    },
    {
      "midi": 62,
      "hit": false,
      "t": 151989.16242708356,
      "d": 66.10576041668537,
      "v": 109
    },
    {
      "midi": 42,
      "hit": false,
      "t": 152001.18165625024,
      "d": 312.4999583333556,
      "v": 109
    },
    {
      "midi": 60,
      "hit": false,
      "t": 152301.66238541692,
      "d": 877.4037291666609,
      "v": 125
    },
    {
      "midi": 55,
      "hit": false,
      "t": 152301.66238541692,
      "d": 883.4133437499986,
      "v": 109
    },
    {
      "midi": 43,
      "hit": false,
      "t": 152307.67200000025,
      "d": 612.9806875000068,
      "v": 109
    },
    {
      "midi": 52,
      "hit": false,
      "t": 152307.67200000025,
      "d": 841.346041666664,
      "v": 121
    },
    {
      "midi": 43,
      "hit": false,
      "t": 153155.02765625025,
      "d": 66.10576041665627,
      "v": 109
    },
    {
      "midi": 43,
      "hit": false,
      "t": 153437.47954166692,
      "d": 3022.836135416728,
      "v": 98
    },
    {
      "midi": 57,
      "hit": false,
      "t": 153443.48915625026,
      "d": 2013.2208854166965,
      "v": 109
    },
    {
      "midi": 59,
      "hit": false,
      "t": 153443.48915625026,
      "d": 2235.576625000045,
      "v": 93
    },
    {
      "midi": 55,
      "hit": false,
      "t": 153449.4987708336,
      "d": 2007.2112708333589,
      "v": 98
    },
    {
      "midi": 50,
      "hit": false,
      "t": 153455.50838541694,
      "d": 1796.8747604166856,
      "v": 98
    },
    {
      "midi": 50,
      "hit": false,
      "t": 155468.72927083363,
      "d": 540.8653125000128,
      "v": 121
    },
    {
      "midi": 62,
      "hit": false,
      "t": 156045.65227083364,
      "d": 552.8845416666882,
      "v": 125
    },
    {
      "midi": 57,
      "hit": false,
      "t": 156334.11377083365,
      "d": 270.43265625002095,
      "v": 98
    },
    {
      "midi": 55,
      "hit": false,
      "t": 156604.54642708367,
      "d": 78.12498958333163,
      "v": 109
    },
    {
      "midi": 52,
      "hit": false,
      "t": 156899.017541667,
      "d": 1316.1055937500205,
      "v": 109
    },
    {
      "midi": 60,
      "hit": false,
      "t": 156899.017541667,
      "d": 1556.490177083353,
      "v": 109
    },
    {
      "midi": 43,
      "hit": false,
      "t": 156905.02715625035,
      "d": 618.9903020833444,
      "v": 109
    },
    {
      "midi": 57,
      "hit": false,
      "t": 156905.02715625035,
      "d": 1436.2978854166868,
      "v": 121
    },
    {
      "midi": 43,
      "hit": false,
      "t": 157788.44050000035,
      "d": 54.08653125001001,
      "v": 93
    },
    {
      "midi": 43,
      "hit": false,
      "t": 158076.90200000035,
      "d": 631.0095312500198,
      "v": 109
    },
    {
      "midi": 52,
      "hit": false,
      "t": 158365.36350000036,
      "d": 324.51918750000186,
      "v": 121
    },
    {
      "midi": 55,
      "hit": false,
      "t": 158647.81538541702,
      "d": 60.09614583334769,
      "v": 121
    },
    {
      "midi": 43,
      "hit": false,
      "t": 158936.27688541703,
      "d": 48.07691666667233,
      "v": 98
    },
    {
      "midi": 42,
      "hit": false,
      "t": 159218.7287708337,
      "d": 546.8749270833505,
      "v": 98
    },
    {
      "midi": 66,
      "hit": false,
      "t": 159218.7287708337,
      "d": 1003.605635416694,
      "v": 109
    },
    {
      "midi": 62,
      "hit": false,
      "t": 159224.73838541703,
      "d": 985.576791666681,
      "v": 121
    },
    {
      "midi": 60,
      "hit": false,
      "t": 159224.73838541703,
      "d": 1015.6248645833693,
      "v": 109
    },
    {
      "midi": 57,
      "hit": false,
      "t": 159224.73838541703,
      "d": 1231.9709895833803,
      "v": 109
    },
    {
      "midi": 42,
      "hit": false,
      "t": 160078.10365625037,
      "d": 60.09614583334769,
      "v": 98
    },
    {
      "midi": 42,
      "hit": false,
      "t": 160366.5651562504,
      "d": 1183.8940729166789,
      "v": 98
    },
    {
      "midi": 54,
      "hit": false,
      "t": 160661.03627083375,
      "d": 258.4134270833456,
      "v": 98
    },
    {
      "midi": 57,
      "hit": false,
      "t": 160943.48815625042,
      "d": 282.4518854166672,
      "v": 125
    },
    {
      "midi": 60,
      "hit": false,
      "t": 161532.43038541707,
      "d": 979.5671770833433,
      "v": 121
    },
    {
      "midi": 62,
      "hit": false,
      "t": 161538.4400000004,
      "d": 973.5575625000056,
      "v": 109
    },
    {
      "midi": 43,
      "hit": false,
      "t": 161544.44961458375,
      "d": 793.2691249999916,
      "v": 109
    },
    {
      "midi": 55,
      "hit": false,
      "t": 161544.44961458375,
      "d": 925.4806458333333,
      "v": 121
    },
    {
      "midi": 62,
      "hit": false,
      "t": 162674.25715625042,
      "d": 1478.3651874999923,
      "v": 98
    },
    {
      "midi": 43,
      "hit": false,
      "t": 162680.26677083375,
      "d": 618.9903020833444,
      "v": 93
    },
    {
      "midi": 55,
      "hit": false,
      "t": 162686.2763854171,
      "d": 1280.0479062499944,
      "v": 98
    },
    {
      "midi": 59,
      "hit": false,
      "t": 162686.2763854171,
      "d": 1430.28827083332,
      "v": 121
    },
    {
      "midi": 43,
      "hit": false,
      "t": 163858.1512291671,
      "d": 643.028760416666,
      "v": 87
    },
    {
      "midi": 55,
      "hit": false,
      "t": 164128.5838854171,
      "d": 384.61533333334955,
      "v": 121
    },
    {
      "midi": 57,
      "hit": false,
      "t": 164411.03577083375,
      "d": 84.1346041666693,
      "v": 121
    },
    {
      "midi": 66,
      "hit": false,
      "t": 164999.97800000044,
      "d": 1105.7690833333472,
      "v": 121
    },
    {
      "midi": 57,
      "hit": false,
      "t": 165005.98761458378,
      "d": 528.8460833333374,
      "v": 121
    },
    {
      "midi": 62,
      "hit": false,
      "t": 165005.98761458378,
      "d": 805.288354166667,
      "v": 125
    },
    {
      "midi": 42,
      "hit": false,
      "t": 165011.99722916711,
      "d": 637.0191458333284,
      "v": 125
    },
    {
      "midi": 42,
      "hit": false,
      "t": 165847.33365625044,
      "d": 300.48072916668025,
      "v": 121
    },
    {
      "midi": 64,
      "hit": false,
      "t": 166135.79515625045,
      "d": 883.4133437500277,
      "v": 121
    },
    {
      "midi": 62,
      "hit": false,
      "t": 166141.80477083378,
      "d": 883.4133437500277,
      "v": 121
    },
    {
      "midi": 40,
      "hit": false,
      "t": 166141.80477083378,
      "d": 1832.9324479167117,
      "v": 82
    },
    {
      "midi": 67,
      "hit": false,
      "t": 166147.81438541712,
      "d": 877.40372916669,
      "v": 98
    },
    {
      "midi": 59,
      "hit": false,
      "t": 166147.81438541712,
      "d": 919.4710312500247,
      "v": 121
    },
    {
      "midi": 52,
      "hit": false,
      "t": 166965.12196875046,
      "d": 955.5287187500217,
      "v": 98
    },
    {
      "midi": 67,
      "hit": false,
      "t": 167295.6507708338,
      "d": 210.33651041667326,
      "v": 121
    },
    {
      "midi": 59,
      "hit": false,
      "t": 167301.66038541714,
      "d": 132.21152083334164,
      "v": 125
    },
    {
      "midi": 62,
      "hit": false,
      "t": 167301.66038541714,
      "d": 138.22113541667932,
      "v": 121
    },
    {
      "midi": 64,
      "hit": false,
      "t": 167301.66038541714,
      "d": 180.28843750001397,
      "v": 109
    },
    {
      "midi": 66,
      "hit": false,
      "t": 167680.26610416715,
      "d": 222.35573958331952,
      "v": 125
    },
    {
      "midi": 69,
      "hit": false,
      "t": 167680.26610416715,
      "d": 228.3653541666572,
      "v": 125
    },
    {
      "midi": 67,
      "hit": false,
      "t": 168070.89105208384,
      "d": 48.07691666667233,
      "v": 125
    },
    {
      "midi": 71,
      "hit": false,
      "t": 168076.90066666718,
      "d": 60.09614583334769,
      "v": 125
    },
    {
      "midi": 59,
      "hit": false,
      "t": 168473.5352291672,
      "d": 462.7403229166812,
      "v": 98
    },
    {
      "midi": 67,
      "hit": false,
      "t": 168473.5352291672,
      "d": 817.3075833333423,
      "v": 109
    },
    {
      "midi": 64,
      "hit": false,
      "t": 168479.54484375054,
      "d": 817.3075833333423,
      "v": 109
    },
    {
      "midi": 71,
      "hit": false,
      "t": 168485.55445833388,
      "d": 799.2787395833293,
      "v": 109
    },
    {
      "midi": 48,
      "hit": false,
      "t": 168491.56407291722,
      "d": 961.5383333333593,
      "v": 87
    },
    {
      "midi": 36,
      "hit": false,
      "t": 168497.57368750055,
      "d": 907.4518020833493,
      "v": 82
    },
    {
      "midi": 59,
      "hit": false,
      "t": 169308.87165625056,
      "d": 60.09614583334769,
      "v": 109
    },
    {
      "midi": 61,
      "hit": false,
      "t": 169573.29469791724,
      "d": 24.038458333321614,
      "v": 35
    },
    {
      "midi": 66,
      "hit": false,
      "t": 169891.8042708339,
      "d": 546.8749270833505,
      "v": 121
    },
    {
      "midi": 57,
      "hit": false,
      "t": 169897.81388541724,
      "d": 450.7210937500058,
      "v": 125
    },
    {
      "midi": 62,
      "hit": false,
      "t": 169903.82350000058,
      "d": 462.7403229166812,
      "v": 125
    },
    {
      "midi": 38,
      "hit": false,
      "t": 169903.82350000058,
      "d": 588.9422291666851,
      "v": 125
    },
    {
      "midi": 67,
      "hit": false,
      "t": 170474.73688541725,
      "d": 853.3652708333393,
      "v": 109
    },
    {
      "midi": 59,
      "hit": false,
      "t": 170486.75611458393,
      "d": 703.1249062499846,
      "v": 125
    },
    {
      "midi": 62,
      "hit": false,
      "t": 170486.75611458393,
      "d": 793.2691249999916,
      "v": 125
    },
    {
      "midi": 64,
      "hit": false,
      "t": 170486.75611458393,
      "d": 823.3171979166509,
      "v": 125
    },
    {
      "midi": 40,
      "hit": false,
      "t": 170492.76572916727,
      "d": 1640.6247812500224,
      "v": 121
    },
    {
      "midi": 52,
      "hit": false,
      "t": 171616.5636562506,
      "d": 1496.3940312500636,
      "v": 109
    },
    {
      "midi": 67,
      "hit": false,
      "t": 171917.04438541728,
      "d": 180.28843750001397,
      "v": 125
    },
    {
      "midi": 62,
      "hit": false,
      "t": 171923.05400000061,
      "d": 84.1346041666693,
      "v": 109
    },
    {
      "midi": 64,
      "hit": false,
      "t": 171923.05400000061,
      "d": 102.16344791668234,
      "v": 125
    },
    {
      "midi": 59,
      "hit": false,
      "t": 171929.06361458395,
      "d": 510.8172395833535,
      "v": 121
    },
    {
      "midi": 69,
      "hit": false,
      "t": 172313.6789479173,
      "d": 162.25959375000093,
      "v": 109
    },
    {
      "midi": 66,
      "hit": false,
      "t": 172319.68856250064,
      "d": 150.24036458332557,
      "v": 121
    },
    {
      "midi": 67,
      "hit": false,
      "t": 172704.30389583396,
      "d": 54.08653125001001,
      "v": 93
    },
    {
      "midi": 71,
      "hit": false,
      "t": 172704.30389583396,
      "d": 60.09614583334769,
      "v": 117
    },
    {
      "midi": 66,
      "hit": false,
      "t": 173088.9192291673,
      "d": 1135.8171562500356,
      "v": 98
    },
    {
      "midi": 57,
      "hit": false,
      "t": 173088.9192291673,
      "d": 1400.2401979166898,
      "v": 109
    },
    {
      "midi": 47,
      "hit": false,
      "t": 173094.92884375065,
      "d": 600.9614583333605,
      "v": 98
    },
    {
      "midi": 62,
      "hit": false,
      "t": 173094.92884375065,
      "d": 1093.749854166701,
      "v": 109
    },
    {
      "midi": 47,
      "hit": false,
      "t": 173942.28450000068,
      "d": 72.11537499999395,
      "v": 87
    },
    {
      "midi": 47,
      "hit": false,
      "t": 174212.71715625067,
      "d": 1159.8556145833281,
      "v": 98
    },
    {
      "midi": 69,
      "hit": false,
      "t": 174525.217114584,
      "d": 594.9518437499937,
      "v": 121
    },
    {
      "midi": 64,
      "hit": false,
      "t": 174819.68822916734,
      "d": 198.3172812499979,
      "v": 109
    },
    {
      "midi": 62,
      "hit": false,
      "t": 175084.111270834,
      "d": 42.06730208333465,
      "v": 93
    },
    {
      "midi": 66,
      "hit": false,
      "t": 175372.572770834,
      "d": 510.8172395833535,
      "v": 98
    },
    {
      "midi": 62,
      "hit": false,
      "t": 175378.58238541734,
      "d": 468.74993750001886,
      "v": 121
    },
    {
      "midi": 57,
      "hit": false,
      "t": 175378.58238541734,
      "d": 649.0383750000037,
      "v": 109
    },
    {
      "midi": 48,
      "hit": false,
      "t": 175384.59200000067,
      "d": 1141.8267708333733,
      "v": 109
    },
    {
      "midi": 43,
      "hit": false,
      "t": 175997.57268750068,
      "d": 234.37496874999488,
      "v": 43
    },
    {
      "midi": 64,
      "hit": false,
      "t": 176243.96688541735,
      "d": 883.4133437500568,
      "v": 98
    },
    {
      "midi": 60,
      "hit": false,
      "t": 176249.9765000007,
      "d": 853.3652708333684,
      "v": 121
    },
    {
      "midi": 55,
      "hit": false,
      "t": 176249.9765000007,
      "d": 865.3845000000438,
      "v": 109
    },
    {
      "midi": 36,
      "hit": false,
      "t": 176255.98611458403,
      "d": 1448.3171145833912,
      "v": 93
    },
    {
      "midi": 43,
      "hit": false,
      "t": 177397.8128854174,
      "d": 288.4615000000049,
      "v": 67
    },
    {
      "midi": 62,
      "hit": false,
      "t": 177698.29361458408,
      "d": 252.40381250000792,
      "v": 125
    },
    {
      "midi": 66,
      "hit": false,
      "t": 177698.29361458408,
      "d": 612.9806875000068,
      "v": 125
    },
    {
      "midi": 48,
      "hit": false,
      "t": 177704.30322916742,
      "d": 1814.9036041667277,
      "v": 98
    },
    {
      "midi": 57,
      "hit": false,
      "t": 177974.7358854174,
      "d": 288.4615000000049,
      "v": 121
    },
    {
      "midi": 62,
      "hit": false,
      "t": 178281.22622916743,
      "d": 132.21152083331253,
      "v": 109
    },
    {
      "midi": 43,
      "hit": false,
      "t": 178281.22622916743,
      "d": 258.4134270833165,
      "v": 87
    },
    {
      "midi": 64,
      "hit": false,
      "t": 178557.66850000076,
      "d": 847.3556562500307,
      "v": 109
    },
    {
      "midi": 60,
      "hit": false,
      "t": 178563.6781145841,
      "d": 685.0960625000298,
      "v": 121
    },
    {
      "midi": 67,
      "hit": false,
      "t": 178563.6781145841,
      "d": 841.346041666693,
      "v": 109
    },
    {
      "midi": 62,
      "hit": false,
      "t": 178569.68772916743,
      "d": 847.3556562500307,
      "v": 121
    },
    {
      "midi": 36,
      "hit": false,
      "t": 178569.68772916743,
      "d": 853.3652708333684,
      "v": 98
    },
    {
      "midi": 60,
      "hit": false,
      "t": 179435.07222916748,
      "d": 18.02884375001304,
      "v": 56
    },
    {
      "midi": 48,
      "hit": false,
      "t": 179723.53372916748,
      "d": 306.4903437500179,
      "v": 93
    },
    {
      "midi": 62,
      "hit": false,
      "t": 179999.9760000008,
      "d": 691.1056770833675,
      "v": 121
    },
    {
      "midi": 55,
      "hit": false,
      "t": 180005.98561458415,
      "d": 679.0864479166921,
      "v": 125
    },
    {
      "midi": 60,
      "hit": false,
      "t": 180005.98561458415,
      "d": 709.1345208333514,
      "v": 125
    },
    {
      "midi": 43,
      "hit": false,
      "t": 180011.99522916749,
      "d": 612.9806875000068,
      "v": 109
    },
    {
      "midi": 55,
      "hit": false,
      "t": 180859.35088541752,
      "d": 2079.326645833382,
      "v": 125
    },
    {
      "midi": 59,
      "hit": false,
      "t": 180859.35088541752,
      "d": 2283.6535416667175,
      "v": 125
    },
    {
      "midi": 43,
      "hit": false,
      "t": 180865.36050000085,
      "d": 3473.557229166705,
      "v": 72
    },
    {
      "midi": 62,
      "hit": false,
      "t": 182596.12950000088,
      "d": 264.42304166665417,
      "v": 119
    },
    {
      "midi": 67,
      "hit": false,
      "t": 182878.58138541755,
      "d": 336.5384166666772,
      "v": 125
    },
    {
      "midi": 74,
      "hit": false,
      "t": 183173.0525000009,
      "d": 264.42304166665417,
      "v": 125
    },
    {
      "midi": 71,
      "hit": false,
      "t": 183455.50438541756,
      "d": 288.4615000000049,
      "v": 125
    },
    {
      "midi": 72,
      "hit": false,
      "t": 184621.36961458414,
      "d": 204.3268958333647,
      "v": 127
    },
    {
      "midi": 57,
      "hit": false,
      "t": 184627.37922916748,
      "d": 570.9133854167012,
      "v": 127
    },
    {
      "midi": 69,
      "hit": false,
      "t": 184771.6099791675,
      "d": 150.24036458335468,
      "v": 96
    },
    {
      "midi": 64,
      "hit": false,
      "t": 184909.83111458417,
      "d": 126.20190625000396,
      "v": 96
    },
    {
      "midi": 69,
      "hit": false,
      "t": 185066.08109375084,
      "d": 126.20190625000396,
      "v": 108
    },
    {
      "midi": 54,
      "hit": false,
      "t": 185210.31184375085,
      "d": 564.9037708333344,
      "v": 108
    },
    {
      "midi": 72,
      "hit": false,
      "t": 185222.33107291753,
      "d": 162.25959375000093,
      "v": 119
    },
    {
      "midi": 69,
      "hit": false,
      "t": 185360.5522083342,
      "d": 54.08653124998091,
      "v": 119
    },
    {
      "midi": 74,
      "hit": false,
      "t": 185480.74450000084,
      "d": 156.24997916666325,
      "v": 127
    },
    {
      "midi": 69,
      "hit": false,
      "t": 185624.97525000083,
      "d": 138.22113541667932,
      "v": 127
    },
    {
      "midi": 71,
      "hit": false,
      "t": 185769.20600000085,
      "d": 234.37496874999488,
      "v": 127
    },
    {
      "midi": 55,
      "hit": false,
      "t": 185769.20600000085,
      "d": 570.913385416643,
      "v": 127
    },
    {
      "midi": 67,
      "hit": false,
      "t": 185925.4559791675,
      "d": 114.1826770833286,
      "v": 59
    },
    {
      "midi": 62,
      "hit": false,
      "t": 186045.64827083418,
      "d": 138.22113541667932,
      "v": 108
    },
    {
      "midi": 67,
      "hit": false,
      "t": 186213.91747916752,
      "d": 102.16344791665324,
      "v": 127
    },
    {
      "midi": 52,
      "hit": false,
      "t": 186346.12900000083,
      "d": 570.9133854167303,
      "v": 119
    },
    {
      "midi": 71,
      "hit": false,
      "t": 186358.1482291675,
      "d": 168.2692083333386,
      "v": 127
    },
    {
      "midi": 67,
      "hit": false,
      "t": 186496.36936458418,
      "d": 84.1346041666693,
      "v": 108
    },
    {
      "midi": 72,
      "hit": false,
      "t": 186640.6001145842,
      "d": 90.14421875000698,
      "v": 127
    },
    {
      "midi": 67,
      "hit": false,
      "t": 186778.82125000088,
      "d": 144.230750000017,
      "v": 127
    },
    {
      "midi": 69,
      "hit": false,
      "t": 186905.02315625089,
      "d": 582.9326145833475,
      "v": 127
    },
    {
      "midi": 53,
      "hit": false,
      "t": 186917.04238541756,
      "d": 1069.7113958333211,
      "v": 127
    },
    {
      "midi": 60,
      "hit": false,
      "t": 187193.4846562509,
      "d": 1346.1536666666798,
      "v": 125
    },
    {
      "midi": 65,
      "hit": false,
      "t": 187193.4846562509,
      "d": 294.47111458334257,
      "v": 108
    },
    {
      "midi": 65,
      "hit": false,
      "t": 187487.95577083423,
      "d": 1021.6344791666779,
      "v": 109
    },
    {
      "midi": 60,
      "hit": false,
      "t": 187499.9750000009,
      "d": 150.24036458332557,
      "v": 119
    },
    {
      "midi": 67,
      "hit": false,
      "t": 187782.42688541758,
      "d": 342.5480312500149,
      "v": 109
    },
    {
      "midi": 65,
      "hit": false,
      "t": 187794.44611458422,
      "d": 90.14421875000698,
      "v": 127
    },
    {
      "midi": 69,
      "hit": false,
      "t": 188076.8980000009,
      "d": 222.35573958334862,
      "v": 119
    },
    {
      "midi": 69,
      "hit": false,
      "t": 188076.89800000092,
      "d": 438.70186458333046,
      "v": 121
    },
    {
      "midi": 65,
      "hit": false,
      "t": 188082.90761458423,
      "d": 192.30766666668933,
      "v": 127
    },
    {
      "midi": 53,
      "hit": false,
      "t": 188082.90761458423,
      "d": 270.43265625002095,
      "v": 108
    },
    {
      "midi": 60,
      "hit": false,
      "t": 188088.91722916756,
      "d": 174.2788229166763,
      "v": 127
    },
    {
      "midi": 71,
      "hit": false,
      "t": 188383.3883437509,
      "d": 228.3653541666572,
      "v": 127
    },
    {
      "midi": 55,
      "hit": false,
      "t": 188383.3883437509,
      "d": 276.44227083332953,
      "v": 127
    },
    {
      "midi": 62,
      "hit": false,
      "t": 188389.39795833424,
      "d": 168.2692083333386,
      "v": 127
    },
    {
      "midi": 67,
      "hit": false,
      "t": 188389.39795833424,
      "d": 192.30766666666023,
      "v": 119
    },
    {
      "midi": 65,
      "hit": false,
      "t": 188683.86907291756,
      "d": 108.17306250002002,
      "v": 119
    },
    {
      "midi": 57,
      "hit": false,
      "t": 188689.8786875009,
      "d": 114.1826770833577,
      "v": 127
    },
    {
      "midi": 69,
      "hit": false,
      "t": 188689.8786875009,
      "d": 120.19229166669538,
      "v": 119
    },
    {
      "midi": 72,
      "hit": false,
      "t": 188689.8786875009,
      "d": 162.25959375003004,
      "v": 127
    },
    {
      "midi": 74,
      "hit": false,
      "t": 188960.31134375092,
      "d": 90.14421875000698,
      "v": 127
    },
    {
      "midi": 67,
      "hit": false,
      "t": 188966.32095833425,
      "d": 48.07691666667233,
      "v": 119
    },
    {
      "midi": 71,
      "hit": false,
      "t": 188966.32095833425,
      "d": 54.08653125001001,
      "v": 108
    },
    {
      "midi": 62,
      "hit": false,
      "t": 188966.32095833425,
      "d": 306.4903437500179,
      "v": 119
    },
    {
      "midi": 76,
      "hit": false,
      "t": 189260.7920729176,
      "d": 631.0095312499907,
      "v": 127
    },
    {
      "midi": 67,
      "hit": false,
      "t": 189266.80168750093,
      "d": 492.7883958333405,
      "v": 127
    },
    {
      "midi": 72,
      "hit": false,
      "t": 189272.81130208427,
      "d": 552.8845416666591,
      "v": 127
    },
    {
      "midi": 60,
      "hit": false,
      "t": 189272.81130208427,
      "d": 2265.6246979167336,
      "v": 119
    },
    {
      "midi": 55,
      "hit": false,
      "t": 189543.24395833423,
      "d": 1526.4421041666646,
      "v": 125
    },
    {
      "midi": 60,
      "hit": false,
      "t": 189819.68622916756,
      "d": 1243.9902187499974,
      "v": 125
    },
    {
      "midi": 62,
      "hit": false,
      "t": 190096.1285000009,
      "d": 420.6730208333465,
      "v": 121
    },
    {
      "midi": 67,
      "hit": false,
      "t": 190108.1477291676,
      "d": 72.11537499999395,
      "v": 127
    },
    {
      "midi": 64,
      "hit": false,
      "t": 190390.59961458424,
      "d": 673.0768333333253,
      "v": 121
    },
    {
      "midi": 48,
      "hit": false,
      "t": 190390.59961458427,
      "d": 324.51918750003097,
      "v": 85
    },
    {
      "midi": 76,
      "hit": false,
      "t": 190390.59961458427,
      "d": 342.548031250044,
      "v": 127
    },
    {
      "midi": 67,
      "hit": false,
      "t": 190396.6092291676,
      "d": 300.48072916668025,
      "v": 127
    },
    {
      "midi": 72,
      "hit": false,
      "t": 190396.6092291676,
      "d": 324.51918750003097,
      "v": 127
    },
    {
      "midi": 72,
      "hit": false,
      "t": 190823.29186458432,
      "d": 276.44227083332953,
      "v": 127
    },
    {
      "midi": 69,
      "hit": false,
      "t": 190823.29186458432,
      "d": 282.4518854166672,
      "v": 119
    },
    {
      "midi": 77,
      "hit": false,
      "t": 190823.29186458432,
      "d": 372.5961041666742,
      "v": 127
    },
    {
      "midi": 67,
      "hit": false,
      "t": 191249.974500001,
      "d": 42.06730208333465,
      "v": 127
    },
    {
      "midi": 76,
      "hit": false,
      "t": 191249.974500001,
      "d": 48.07691666667233,
      "v": 119
    },
    {
      "midi": 72,
      "hit": false,
      "t": 191261.99372916768,
      "d": 30.048072916659294,
      "v": 119
    },
    {
      "midi": 59,
      "hit": false,
      "t": 191550.45522916756,
      "d": 330.52880208333954,
      "v": 125
    },
    {
      "midi": 62,
      "hit": false,
      "t": 191550.45522916756,
      "d": 618.9903020833153,
      "v": 121
    },
    {
      "midi": 55,
      "hit": false,
      "t": 191556.4648437509,
      "d": 114.1826770833286,
      "v": 121
    },
    {
      "midi": 57,
      "hit": false,
      "t": 191556.4648437509,
      "d": 114.1826770833286,
      "v": 125
    },
    {
      "midi": 71,
      "hit": false,
      "t": 191562.47445833433,
      "d": 300.48072916668025,
      "v": 119
    },
    {
      "midi": 74,
      "hit": false,
      "t": 191562.47445833433,
      "d": 492.7883958333405,
      "v": 127
    },
    {
      "midi": 67,
      "hit": false,
      "t": 191568.48407291766,
      "d": 216.34612500001094,
      "v": 119
    },
    {
      "midi": 69,
      "hit": false,
      "t": 191568.48407291766,
      "d": 288.4615000000049,
      "v": 127
    },
    {
      "midi": 55,
      "hit": false,
      "t": 191574.493687501,
      "d": 1808.893989583361,
      "v": 119
    },
    {
      "midi": 55,
      "hit": false,
      "t": 191874.97441666757,
      "d": 72.11537499999395,
      "v": 98
    },
    {
      "midi": 55,
      "hit": false,
      "t": 192133.38784375088,
      "d": 114.1826770833286,
      "v": 82
    },
    {
      "midi": 79,
      "hit": false,
      "t": 192397.81088541765,
      "d": 114.1826770833577,
      "v": 108
    },
    {
      "midi": 74,
      "hit": false,
      "t": 192409.83011458433,
      "d": 96.15383333334466,
      "v": 119
    },
    {
      "midi": 57,
      "hit": false,
      "t": 192415.83972916755,
      "d": 378.6057187500119,
      "v": 125
    },
    {
      "midi": 62,
      "hit": false,
      "t": 192704.30122916755,
      "d": 456.7307083333435,
      "v": 125
    },
    {
      "midi": 67,
      "hit": false,
      "t": 192986.75311458434,
      "d": 72.11537499999395,
      "v": 108
    },
    {
      "midi": 69,
      "hit": false,
      "t": 193275.21461458434,
      "d": 90.14421875000698,
      "v": 108
    },
    {
      "midi": 74,
      "hit": false,
      "t": 193275.21461458434,
      "d": 96.15383333334466,
      "v": 127
    },
    {
      "midi": 55,
      "hit": false,
      "t": 193557.66650000104,
      "d": 288.4614999999758,
      "v": 108
    },
    {
      "midi": 72,
      "hit": false,
      "t": 193858.1472291677,
      "d": 186.29805208332255,
      "v": 127
    },
    {
      "midi": 57,
      "hit": false,
      "t": 193864.15684375103,
      "d": 552.8845416666591,
      "v": 119
    },
    {
      "midi": 69,
      "hit": false,
      "t": 194002.37797916768,
      "d": 120.19229166666628,
      "v": 127
    },
    {
      "midi": 64,
      "hit": false,
      "t": 194134.58950000102,
      "d": 126.20190625000396,
      "v": 108
    },
    {
      "midi": 69,
      "hit": false,
      "t": 194284.82986458435,
      "d": 132.21152083334164,
      "v": 119
    },
    {
      "midi": 72,
      "hit": false,
      "t": 194423.05100000103,
      "d": 126.20190625000396,
      "v": 119
    },
    {
      "midi": 54,
      "hit": false,
      "t": 194423.05100000103,
      "d": 540.8653125000419,
      "v": 119
    },
    {
      "midi": 69,
      "hit": false,
      "t": 194567.28175000104,
      "d": 54.08653125001001,
      "v": 119
    },
    {
      "midi": 74,
      "hit": false,
      "t": 194711.51250000106,
      "d": 150.24036458332557,
      "v": 127
    },
    {
      "midi": 69,
      "hit": false,
      "t": 194855.74325000105,
      "d": 144.230750000017,
      "v": 127
    },
    {
      "midi": 55,
      "hit": false,
      "t": 194969.9259270844,
      "d": 576.9229999999807,
      "v": 119
    },
    {
      "midi": 71,
      "hit": false,
      "t": 194999.97400000106,
      "d": 228.3653541666572,
      "v": 127
    },
    {
      "midi": 67,
      "hit": false,
      "t": 195150.2143645844,
      "d": 108.17306249999092,
      "v": 110
    },
    {
      "midi": 62,
      "hit": false,
      "t": 195288.43550000104,
      "d": 132.21152083334164,
      "v": 106
    },
    {
      "midi": 67,
      "hit": false,
      "t": 195432.66625000106,
      "d": 108.17306249999092,
      "v": 119
    },
    {
      "midi": 52,
      "hit": false,
      "t": 195546.8489270844,
      "d": 570.9133854166721,
      "v": 119
    },
    {
      "midi": 71,
      "hit": false,
      "t": 195570.88738541774,
      "d": 198.3172812499979,
      "v": 127
    },
    {
      "midi": 67,
      "hit": false,
      "t": 195721.12775000106,
      "d": 66.10576041668537,
      "v": 119
    },
    {
      "midi": 72,
      "hit": false,
      "t": 195859.34888541774,
      "d": 120.19229166666628,
      "v": 127
    },
    {
      "midi": 67,
      "hit": false,
      "t": 196009.58925000107,
      "d": 138.2211354166502,
      "v": 127
    },
    {
      "midi": 69,
      "hit": false,
      "t": 196153.82000000105,
      "d": 414.66340625000885,
      "v": 127
    },
    {
      "midi": 53,
      "hit": false,
      "t": 196153.82000000105,
      "d": 1081.7306250000256,
      "v": 127
    },
    {
      "midi": 65,
      "hit": false,
      "t": 196418.24304166774,
      "d": 270.43265624999185,
      "v": 127
    },
    {
      "midi": 60,
      "hit": false,
      "t": 196424.25265625087,
      "d": 1358.172895833326,
      "v": 125
    },
    {
      "midi": 60,
      "hit": false,
      "t": 196706.70454166774,
      "d": 126.20190625000396,
      "v": 127
    },
    {
      "midi": 65,
      "hit": false,
      "t": 196718.7237708342,
      "d": 1051.682552083308,
      "v": 121
    },
    {
      "midi": 65,
      "hit": false,
      "t": 196983.14681250107,
      "d": 180.28843750001397,
      "v": 127
    },
    {
      "midi": 67,
      "hit": false,
      "t": 197007.18527083422,
      "d": 757.2114374999655,
      "v": 109
    },
    {
      "midi": 69,
      "hit": false,
      "t": 197271.60831250087,
      "d": 468.74993749998976,
      "v": 109
    },
    {
      "midi": 65,
      "hit": false,
      "t": 197277.61792708441,
      "d": 156.24997916669236,
      "v": 127
    },
    {
      "midi": 60,
      "hit": false,
      "t": 197283.62754166775,
      "d": 144.230750000017,
      "v": 127
    },
    {
      "midi": 53,
      "hit": false,
      "t": 197283.62754166775,
      "d": 270.43265625002095,
      "v": 108
    },
    {
      "midi": 69,
      "hit": false,
      "t": 197289.6371562511,
      "d": 174.2788229166763,
      "v": 119
    },
    {
      "midi": 62,
      "hit": false,
      "t": 197566.07942708445,
      "d": 144.230750000017,
      "v": 119
    },
    {
      "midi": 71,
      "hit": false,
      "t": 197572.0890416678,
      "d": 198.3172812499979,
      "v": 127
    },
    {
      "midi": 67,
      "hit": false,
      "t": 197578.09865625112,
      "d": 162.25959375000093,
      "v": 119
    },
    {
      "midi": 55,
      "hit": false,
      "t": 197578.09865625112,
      "d": 276.44227083332953,
      "v": 119
    },
    {
      "midi": 57,
      "hit": false,
      "t": 197860.5505416678,
      "d": 108.17306249999092,
      "v": 119
    },
    {
      "midi": 65,
      "hit": false,
      "t": 197866.56015625113,
      "d": 120.19229166666628,
      "v": 127
    },
    {
      "midi": 69,
      "hit": false,
      "t": 197866.56015625113,
      "d": 132.21152083334164,
      "v": 127
    },
    {
      "midi": 72,
      "hit": false,
      "t": 197872.56977083447,
      "d": 156.24997916666325,
      "v": 127
    },
    {
      "midi": 74,
      "hit": false,
      "t": 198149.0120416678,
      "d": 210.33651041667326,
      "v": 119
    },
    {
      "midi": 62,
      "hit": false,
      "t": 198149.0120416678,
      "d": 288.4615000000049,
      "v": 108
    },
    {
      "midi": 71,
      "hit": false,
      "t": 198155.02165625113,
      "d": 102.16344791665324,
      "v": 119
    },
    {
      "midi": 67,
      "hit": false,
      "t": 198155.02165625113,
      "d": 186.29805208332255,
      "v": 127
    },
    {
      "midi": 60,
      "hit": false,
      "t": 198449.49277083448,
      "d": 805.288354166667,
      "v": 119
    },
    {
      "midi": 67,
      "hit": false,
      "t": 198455.5023854178,
      "d": 504.80762499998673,
      "v": 127
    },
    {
      "midi": 72,
      "hit": false,
      "t": 198455.5023854178,
      "d": 721.1537499999977,
      "v": 127
    },
    {
      "midi": 76,
      "hit": false,
      "t": 198455.5023854178,
      "d": 775.2402812500077,
      "v": 127
    },
    {
      "midi": 55,
      "hit": false,
      "t": 198725.93504166754,
      "d": 1676.6824687499902,
      "v": 125
    },
    {
      "midi": 60,
      "hit": false,
      "t": 199014.39654166755,
      "d": 1322.115208333329,
      "v": 109
    },
    {
      "midi": 62,
      "hit": false,
      "t": 199302.85804166755,
      "d": 1033.6537083333242,
      "v": 125
    },
    {
      "midi": 67,
      "hit": false,
      "t": 199314.8772708345,
      "d": 102.16344791668234,
      "v": 119
    },
    {
      "midi": 60,
      "hit": false,
      "t": 199332.9061145845,
      "d": 84.1346041666693,
      "v": 43
    },
    {
      "midi": 64,
      "hit": false,
      "t": 199579.30031250088,
      "d": 757.2114374999946,
      "v": 109
    },
    {
      "midi": 60,
      "hit": false,
      "t": 199603.33877083453,
      "d": 1189.9036875000165,
      "v": 119
    },
    {
      "midi": 67,
      "hit": false,
      "t": 199609.34838541786,
      "d": 300.48072916665114,
      "v": 127
    },
    {
      "midi": 72,
      "hit": false,
      "t": 199615.3580000012,
      "d": 330.52880208331044,
      "v": 108
    },
    {
      "midi": 76,
      "hit": false,
      "t": 199615.3580000012,
      "d": 336.5384166666481,
      "v": 119
    },
    {
      "midi": 69,
      "hit": false,
      "t": 200036.03102083452,
      "d": 300.48072916668025,
      "v": 127
    },
    {
      "midi": 72,
      "hit": false,
      "t": 200036.03102083452,
      "d": 324.51918750000186,
      "v": 127
    },
    {
      "midi": 77,
      "hit": false,
      "t": 200042.04063541786,
      "d": 336.5384166666772,
      "v": 127
    },
    {
      "midi": 76,
      "hit": false,
      "t": 200480.7425000012,
      "d": 60.09614583334769,
      "v": 119
    },
    {
      "midi": 67,
      "hit": false,
      "t": 200486.75211458452,
      "d": 222.35573958334862,
      "v": 127
    },
    {
      "midi": 72,
      "hit": false,
      "t": 200492.76172916786,
      "d": 54.08653125001001,
      "v": 119
    },
    {
      "midi": 67,
      "hit": false,
      "t": 200805.26168750122,
      "d": 378.60571874998277,
      "v": 119
    },
    {
      "midi": 71,
      "hit": false,
      "t": 200805.26168750122,
      "d": 474.75955208332743,
      "v": 108
    },
    {
      "midi": 74,
      "hit": false,
      "t": 200805.26168750122,
      "d": 504.80762499998673,
      "v": 119
    },
    {
      "midi": 55,
      "hit": false,
      "t": 200805.26168750122,
      "d": 588.942229166656,
      "v": 119
    },
    {
      "midi": 69,
      "hit": false,
      "t": 200811.27130208455,
      "d": 468.74993749998976,
      "v": 119
    },
    {
      "midi": 55,
      "hit": false,
      "t": 201057.66550000088,
      "d": 1460.3363437499793,
      "v": 125
    },
    {
      "midi": 59,
      "hit": false,
      "t": 201328.09815625087,
      "d": 1183.8940729166497,
      "v": 121
    },
    {
      "midi": 67,
      "hit": false,
      "t": 201328.09815625122,
      "d": 42.06730208333465,
      "v": 108
    },
    {
      "midi": 60,
      "hit": false,
      "t": 201604.5404270842,
      "d": 378.60571874998277,
      "v": 109
    },
    {
      "midi": 55,
      "hit": false,
      "t": 201622.56927083453,
      "d": 66.10576041665627,
      "v": 108
    },
    {
      "midi": 62,
      "hit": false,
      "t": 201911.0307708342,
      "d": 631.0095312499907,
      "v": 121
    },
    {
      "midi": 74,
      "hit": false,
      "t": 201929.05961458452,
      "d": 156.24997916666325,
      "v": 127
    },
    {
      "midi": 71,
      "hit": false,
      "t": 201935.06922916786,
      "d": 456.7307083332853,
      "v": 127
    },
    {
      "midi": 55,
      "hit": false,
      "t": 201935.06922916786,
      "d": 787.2595104166539,
      "v": 119
    },
    {
      "midi": 69,
      "hit": false,
      "t": 201941.0788437512,
      "d": 450.7210937499476,
      "v": 127
    },
    {
      "midi": 67,
      "hit": false,
      "t": 201941.0788437512,
      "d": 456.7307083332853,
      "v": 119
    },
    {
      "midi": 76,
      "hit": false,
      "t": 202229.54034375117,
      "d": 138.2211354166502,
      "v": 119
    },
    {
      "midi": 72,
      "hit": false,
      "t": 202241.55957291785,
      "d": 24.038458333321614,
      "v": 85
    },
    {
      "midi": 74,
      "hit": false,
      "t": 202511.9922291678,
      "d": 78.12498958336073,
      "v": 108
    },
    {
      "midi": 69,
      "hit": false,
      "t": 202518.00184375115,
      "d": 48.07691666667233,
      "v": 108
    },
    {
      "midi": 71,
      "hit": false,
      "t": 202518.00184375115,
      "d": 48.07691666667233,
      "v": 108
    },
    {
      "midi": 67,
      "hit": false,
      "t": 202524.01145833448,
      "d": 48.07691666667233,
      "v": 108
    },
    {
      "midi": 72,
      "hit": false,
      "t": 202800.45372916784,
      "d": 697.1152916666761,
      "v": 127
    },
    {
      "midi": 65,
      "hit": false,
      "t": 202806.46334375118,
      "d": 480.7691666666942,
      "v": 127
    },
    {
      "midi": 69,
      "hit": false,
      "t": 202806.46334375118,
      "d": 552.8845416666882,
      "v": 127
    },
    {
      "midi": 65,
      "hit": false,
      "t": 203064.87677083418,
      "d": 390.62494791665813,
      "v": 125
    },
    {
      "midi": 57,
      "hit": false,
      "t": 203070.8863854175,
      "d": 210.33651041667326,
      "v": 125
    },
    {
      "midi": 60,
      "hit": false,
      "t": 203070.8863854175,
      "d": 348.5576458333235,
      "v": 125
    },
    {
      "midi": 53,
      "hit": false,
      "t": 203082.9056145845,
      "d": 2704.326562500035,
      "v": 108
    },
    {
      "midi": 41,
      "hit": false,
      "t": 203088.91522916785,
      "d": 138.22113541667932,
      "v": 127
    },
    {
      "midi": 65,
      "hit": false,
      "t": 203389.39595833453,
      "d": 108.17306249999092,
      "v": 96
    },
    {
      "midi": 57,
      "hit": false,
      "t": 203395.40557291752,
      "d": 30.048072916659294,
      "v": 67
    },
    {
      "midi": 60,
      "hit": false,
      "t": 203659.82861458417,
      "d": 48.07691666667233,
      "v": 121
    },
    {
      "midi": 69,
      "hit": false,
      "t": 203665.83822916786,
      "d": 54.08653125001001,
      "v": 108
    },
    {
      "midi": 65,
      "hit": false,
      "t": 203683.86707291787,
      "d": 30.048072916659294,
      "v": 85
    },
    {
      "midi": 65,
      "hit": false,
      "t": 203948.29011458418,
      "d": 582.9326145833475,
      "v": 125
    },
    {
      "midi": 69,
      "hit": false,
      "t": 203948.29011458418,
      "d": 600.9614583333605,
      "v": 125
    },
    {
      "midi": 69,
      "hit": false,
      "t": 203948.29011458452,
      "d": 204.32689583333558,
      "v": 127
    },
    {
      "midi": 72,
      "hit": false,
      "t": 203948.29011458452,
      "d": 618.9903020833444,
      "v": 127
    },
    {
      "midi": 77,
      "hit": false,
      "t": 203948.29011458452,
      "d": 823.31719791668,
      "v": 127
    },
    {
      "midi": 60,
      "hit": false,
      "t": 203954.2997291675,
      "d": 438.70186458333046,
      "v": 125
    },
    {
      "midi": 65,
      "hit": false,
      "t": 204513.19388541786,
      "d": 48.07691666667233,
      "v": 96
    },
    {
      "midi": 60,
      "hit": false,
      "t": 204519.20350000085,
      "d": 108.17306250002002,
      "v": 98
    },
    {
      "midi": 69,
      "hit": false,
      "t": 204801.65538541786,
      "d": 66.10576041665627,
      "v": 119
    },
    {
      "midi": 65,
      "hit": false,
      "t": 204807.66500000088,
      "d": 90.14421875000698,
      "v": 109
    },
    {
      "midi": 60,
      "hit": false,
      "t": 205096.1265000009,
      "d": 378.6057187500119,
      "v": 125
    },
    {
      "midi": 69,
      "hit": false,
      "t": 205096.1265000009,
      "d": 576.9230000000098,
      "v": 125
    },
    {
      "midi": 69,
      "hit": false,
      "t": 205096.12650000118,
      "d": 631.0095312500198,
      "v": 127
    },
    {
      "midi": 79,
      "hit": false,
      "t": 205096.12650000118,
      "d": 655.0479895833705,
      "v": 127
    },
    {
      "midi": 65,
      "hit": false,
      "t": 205102.13611458422,
      "d": 546.8749270833505,
      "v": 125
    },
    {
      "midi": 72,
      "hit": false,
      "t": 205102.13611458451,
      "d": 703.1249062500428,
      "v": 127
    },
    {
      "midi": 74,
      "hit": false,
      "t": 205102.13611458451,
      "d": 703.1249062500428,
      "v": 127
    },
    {
      "midi": 65,
      "hit": false,
      "t": 205685.06872916786,
      "d": 54.08653125001001,
      "v": 108
    },
    {
      "midi": 60,
      "hit": false,
      "t": 205691.0783437509,
      "d": 42.06730208333465,
      "v": 98
    },
    {
      "midi": 67,
      "hit": false,
      "t": 205961.51100000122,
      "d": 84.1346041666693,
      "v": 119
    },
    {
      "midi": 65,
      "hit": false,
      "t": 205967.52061458424,
      "d": 54.08653125001001,
      "v": 98
    },
    {
      "midi": 72,
      "hit": false,
      "t": 206237.95327083455,
      "d": 631.0095312500198,
      "v": 127
    },
    {
      "midi": 74,
      "hit": false,
      "t": 206237.95327083455,
      "d": 631.0095312500198,
      "v": 127
    },
    {
      "midi": 79,
      "hit": false,
      "t": 206237.95327083455,
      "d": 643.0287604166951,
      "v": 127
    },
    {
      "midi": 67,
      "hit": false,
      "t": 206243.9628854179,
      "d": 679.0864479166921,
      "v": 119
    },
    {
      "midi": 53,
      "hit": false,
      "t": 206255.98211458456,
      "d": 835.3364270833554,
      "v": 108
    },
    {
      "midi": 69,
      "hit": false,
      "t": 206261.99172916758,
      "d": 66.10576041668537,
      "v": 125
    },
    {
      "midi": 65,
      "hit": false,
      "t": 206261.99172916758,
      "d": 78.12498958336073,
      "v": 125
    },
    {
      "midi": 72,
      "hit": false,
      "t": 206268.00134375092,
      "d": 72.11537500002305,
      "v": 125
    },
    {
      "midi": 65,
      "hit": false,
      "t": 206826.89550000124,
      "d": 102.16344791668234,
      "v": 127
    },
    {
      "midi": 72,
      "hit": false,
      "t": 207115.35700000124,
      "d": 156.24997916666325,
      "v": 127
    },
    {
      "midi": 74,
      "hit": false,
      "t": 207115.35700000124,
      "d": 174.2788229166763,
      "v": 127
    },
    {
      "midi": 67,
      "hit": false,
      "t": 207115.35700000124,
      "d": 180.28843750001397,
      "v": 127
    },
    {
      "midi": 79,
      "hit": false,
      "t": 207121.36661458458,
      "d": 186.29805208335165,
      "v": 127
    },
    {
      "midi": 60,
      "hit": false,
      "t": 207692.28000000128,
      "d": 853.3652708333393,
      "v": 127
    },
    {
      "midi": 64,
      "hit": false,
      "t": 207692.28000000128,
      "d": 1129.8075416666688,
      "v": 127
    },
    {
      "midi": 67,
      "hit": false,
      "t": 207692.28000000128,
      "d": 1129.8075416666688,
      "v": 127
    },
    {
      "midi": 36,
      "hit": false,
      "t": 207692.28000000128,
      "d": 1574.519020833366,
      "v": 96
    },
    {
      "midi": 48,
      "hit": false,
      "t": 207692.28000000128,
      "d": 2259.615083333367,
      "v": 108
    },
    {
      "midi": 60,
      "hit": false,
      "t": 208545.64527083462,
      "d": 288.4615000000049,
      "v": 108
    },
    {
      "midi": 67,
      "hit": false,
      "t": 208840.11638541796,
      "d": 853.3652708333393,
      "v": 127
    },
    {
      "midi": 64,
      "hit": false,
      "t": 208840.11638541796,
      "d": 865.3845000000147,
      "v": 127
    },
    {
      "midi": 60,
      "hit": false,
      "t": 208846.1260000013,
      "d": 865.3845000000147,
      "v": 127
    },
    {
      "midi": 67,
      "hit": false,
      "t": 209693.4816562513,
      "d": 288.4615000000049,
      "v": 127
    },
    {
      "midi": 59,
      "hit": false,
      "t": 209699.49127083464,
      "d": 288.4615000000049,
      "v": 127
    },
    {
      "midi": 62,
      "hit": false,
      "t": 209699.49127083464,
      "d": 294.47111458334257,
      "v": 127
    },
    {
      "midi": 67,
      "hit": false,
      "t": 209981.9431562513,
      "d": 552.8845416666591,
      "v": 127
    },
    {
      "midi": 59,
      "hit": false,
      "t": 209987.95277083464,
      "d": 390.62494791665813,
      "v": 127
    },
    {
      "midi": 43,
      "hit": false,
      "t": 209987.95277083464,
      "d": 546.8749270833214,
      "v": 119
    },
    {
      "midi": 62,
      "hit": false,
      "t": 209993.96238541798,
      "d": 546.8749270833214,
      "v": 127
    },
    {
      "midi": 59,
      "hit": false,
      "t": 210570.88538541796,
      "d": 240.38458333333256,
      "v": 80
    },
    {
      "midi": 65,
      "hit": false,
      "t": 210853.33727083463,
      "d": 288.4615000000049,
      "v": 119
    },
    {
      "midi": 57,
      "hit": false,
      "t": 210853.33727083463,
      "d": 294.47111458334257,
      "v": 127
    },
    {
      "midi": 60,
      "hit": false,
      "t": 210853.33727083463,
      "d": 294.47111458334257,
      "v": 127
    },
    {
      "midi": 65,
      "hit": false,
      "t": 211141.79877083463,
      "d": 643.028760416666,
      "v": 127
    },
    {
      "midi": 57,
      "hit": false,
      "t": 211147.80838541797,
      "d": 552.8845416666591,
      "v": 127
    },
    {
      "midi": 60,
      "hit": false,
      "t": 211147.80838541797,
      "d": 552.8845416666591,
      "v": 127
    },
    {
      "midi": 41,
      "hit": false,
      "t": 211147.80838541797,
      "d": 582.9326145833184,
      "v": 119
    },
    {
      "midi": 53,
      "hit": false,
      "t": 211436.26988541798,
      "d": 288.4614999999758,
      "v": 96
    },
    {
      "midi": 57,
      "hit": false,
      "t": 211736.75061458463,
      "d": 216.34612500001094,
      "v": 108
    },
    {
      "midi": 64,
      "hit": false,
      "t": 211995.16404166797,
      "d": 276.44227083332953,
      "v": 108
    },
    {
      "midi": 55,
      "hit": false,
      "t": 212001.1736562513,
      "d": 282.4518854166672,
      "v": 127
    },
    {
      "midi": 60,
      "hit": false,
      "t": 212001.1736562513,
      "d": 282.4518854166672,
      "v": 119
    },
    {
      "midi": 64,
      "hit": false,
      "t": 212271.6063125013,
      "d": 2145.432406250009,
      "v": 127
    },
    {
      "midi": 55,
      "hit": false,
      "t": 212283.62554166798,
      "d": 1574.519020833337,
      "v": 127
    },
    {
      "midi": 60,
      "hit": false,
      "t": 212283.62554166798,
      "d": 1983.1728125000081,
      "v": 127
    },
    {
      "midi": 36,
      "hit": false,
      "t": 212289.63515625132,
      "d": 1117.7883124999935,
      "v": 119
    },
    {
      "midi": 48,
      "hit": false,
      "t": 213155.0196562513,
      "d": 288.4615000000049,
      "v": 108
    },
    {
      "midi": 48,
      "hit": false,
      "t": 213455.50038541798,
      "d": 576.9230000000098,
      "v": 127
    },
    {
      "midi": 48,
      "hit": false,
      "t": 214302.85604166798,
      "d": 685.0960625000007,
      "v": 91
    },
    {
      "midi": 55,
      "hit": false,
      "t": 214308.86565625132,
      "d": 312.4999583333265,
      "v": 96
    },
    {
      "midi": 36,
      "hit": false,
      "t": 214603.33677083463,
      "d": 552.8845416666882,
      "v": 108
    },
    {
      "midi": 60,
      "hit": false,
      "t": 214879.779041668,
      "d": 576.9230000000098,
      "v": 127
    },
    {
      "midi": 64,
      "hit": false,
      "t": 214879.779041668,
      "d": 576.9230000000098,
      "v": 127
    },
    {
      "midi": 55,
      "hit": false,
      "t": 214885.78865625133,
      "d": 576.9230000000098,
      "v": 127
    },
    {
      "midi": 48,
      "hit": false,
      "t": 215174.25015625134,
      "d": 288.4615000000049,
      "v": 108
    },
    {
      "midi": 57,
      "hit": false,
      "t": 215462.71165625134,
      "d": 552.8845416666591,
      "v": 119
    },
    {
      "midi": 65,
      "hit": false,
      "t": 215462.71165625134,
      "d": 552.8845416666591,
      "v": 127
    },
    {
      "midi": 60,
      "hit": false,
      "t": 215468.72127083468,
      "d": 552.8845416666591,
      "v": 127
    },
    {
      "midi": 48,
      "hit": false,
      "t": 215739.15392708467,
      "d": 336.5384166666772,
      "v": 96
    },
    {
      "midi": 67,
      "hit": false,
      "t": 216039.63465625135,
      "d": 811.2979687500047,
      "v": 127
    },
    {
      "midi": 59,
      "hit": false,
      "t": 216045.6442708347,
      "d": 703.1249062500137,
      "v": 127
    },
    {
      "midi": 62,
      "hit": false,
      "t": 216045.6442708347,
      "d": 835.3364270833263,
      "v": 127
    },
    {
      "midi": 43,
      "hit": false,
      "t": 216292.03846875136,
      "d": 606.9710729166691,
      "v": 127
    },
    {
      "midi": 48,
      "hit": false,
      "t": 216616.55765625136,
      "d": 1820.9132187500072,
      "v": 127
    },
    {
      "midi": 67,
      "hit": false,
      "t": 216923.04800000135,
      "d": 637.0191458333284,
      "v": 119
    },
    {
      "midi": 64,
      "hit": false,
      "t": 216923.04800000135,
      "d": 841.346041666664,
      "v": 127
    },
    {
      "midi": 60,
      "hit": false,
      "t": 216929.0576145847,
      "d": 841.346041666664,
      "v": 127
    },
    {
      "midi": 36,
      "hit": false,
      "t": 216929.0576145847,
      "d": 1177.8844583333412,
      "v": 119
    },
    {
      "midi": 64,
      "hit": false,
      "t": 217782.42288541803,
      "d": 288.4615000000049,
      "v": 119
    },
    {
      "midi": 67,
      "hit": false,
      "t": 217782.42288541803,
      "d": 288.4615000000049,
      "v": 108
    },
    {
      "midi": 60,
      "hit": false,
      "t": 217788.43250000136,
      "d": 288.4615000000049,
      "v": 108
    },
    {
      "midi": 64,
      "hit": false,
      "t": 218070.88438541803,
      "d": 793.2691249999916,
      "v": 127
    },
    {
      "midi": 67,
      "hit": false,
      "t": 218070.88438541803,
      "d": 793.2691249999916,
      "v": 127
    },
    {
      "midi": 60,
      "hit": false,
      "t": 218076.89400000137,
      "d": 793.2691249999916,
      "v": 127
    },
    {
      "midi": 59,
      "hit": false,
      "t": 218918.24004166803,
      "d": 264.42304166665417,
      "v": 127
    },
    {
      "midi": 50,
      "hit": false,
      "t": 218948.2881145847,
      "d": 264.42304166665417,
      "v": 117
    },
    {
      "midi": 67,
      "hit": false,
      "t": 219206.701541668,
      "d": 18.02884375001304,
      "v": 127
    },
    {
      "midi": 59,
      "hit": false,
      "t": 219206.701541668,
      "d": 643.028760416666,
      "v": 127
    },
    {
      "midi": 62,
      "hit": false,
      "t": 219212.71115625135,
      "d": 12.019229166675359,
      "v": 127
    },
    {
      "midi": 43,
      "hit": false,
      "t": 219218.72077083468,
      "d": 679.086447916663,
      "v": 108
    },
    {
      "midi": 55,
      "hit": false,
      "t": 219819.68222916801,
      "d": 240.38458333333256,
      "v": 96
    },
    {
      "midi": 65,
      "hit": false,
      "t": 220090.114885418,
      "d": 288.4615000000049,
      "v": 108
    },
    {
      "midi": 57,
      "hit": false,
      "t": 220096.12450000134,
      "d": 282.4518854166672,
      "v": 108
    },
    {
      "midi": 60,
      "hit": false,
      "t": 220096.12450000134,
      "d": 288.4615000000049,
      "v": 108
    },
    {
      "midi": 57,
      "hit": false,
      "t": 220378.576385418,
      "d": 408.65379166667117,
      "v": 127
    },
    {
      "midi": 65,
      "hit": false,
      "t": 220378.576385418,
      "d": 594.9518437499937,
      "v": 127
    },
    {
      "midi": 60,
      "hit": false,
      "t": 220384.58600000135,
      "d": 564.9037708333344,
      "v": 127
    },
    {
      "midi": 41,
      "hit": false,
      "t": 220384.58600000135,
      "d": 631.0095312499907,
      "v": 119
    },
    {
      "midi": 53,
      "hit": false,
      "t": 220673.04750000135,
      "d": 234.37496874999488,
      "v": 96
    },
    {
      "midi": 57,
      "hit": false,
      "t": 220979.53784375134,
      "d": 264.42304166665417,
      "v": 108
    },
    {
      "midi": 64,
      "hit": false,
      "t": 221237.95127083466,
      "d": 288.4615000000049,
      "v": 108
    },
    {
      "midi": 55,
      "hit": false,
      "t": 221243.960885418,
      "d": 288.4615000000049,
      "v": 119
    },
    {
      "midi": 60,
      "hit": false,
      "t": 221243.960885418,
      "d": 288.4615000000049,
      "v": 119
    },
    {
      "midi": 64,
      "hit": false,
      "t": 221526.41277083466,
      "d": 895.432572916674,
      "v": 108
    },
    {
      "midi": 55,
      "hit": false,
      "t": 221532.422385418,
      "d": 847.3556562500016,
      "v": 127
    },
    {
      "midi": 60,
      "hit": false,
      "t": 221532.422385418,
      "d": 859.374885416677,
      "v": 127
    },
    {
      "midi": 36,
      "hit": false,
      "t": 221532.422385418,
      "d": 1147.8363854166528,
      "v": 127
    },
    {
      "midi": 48,
      "hit": false,
      "t": 222397.80688541802,
      "d": 216.34612499998184,
      "v": 119
    },
    {
      "midi": 48,
      "hit": false,
      "t": 222686.268385418,
      "d": 667.0672187500168,
      "v": 119
    },
    {
      "midi": 67,
      "hit": false,
      "t": 222974.729885418,
      "d": 300.48072916668025,
      "v": 127
    },
    {
      "midi": 62,
      "hit": false,
      "t": 223263.191385418,
      "d": 576.9230000000098,
      "v": 127
    },
    {
      "midi": 48,
      "hit": false,
      "t": 223551.652885418,
      "d": 288.4615000000049,
      "v": 108
    },
    {
      "midi": 64,
      "hit": false,
      "t": 223846.12400000135,
      "d": 793.2691250000207,
      "v": 119
    },
    {
      "midi": 59,
      "hit": false,
      "t": 223852.1336145847,
      "d": 793.2691250000207,
      "v": 127
    },
    {
      "midi": 56,
      "hit": false,
      "t": 223858.14322916802,
      "d": 793.2691250000207,
      "v": 127
    },
    {
      "midi": 44,
      "hit": false,
      "t": 223864.15284375136,
      "d": 841.346041666693,
      "v": 127
    },
    {
      "midi": 64,
      "hit": false,
      "t": 224693.47965625138,
      "d": 624.9999166666821,
      "v": 108
    },
    {
      "midi": 60,
      "hit": false,
      "t": 224699.48927083472,
      "d": 624.9999166666821,
      "v": 127
    },
    {
      "midi": 57,
      "hit": false,
      "t": 224705.49888541806,
      "d": 582.9326145833475,
      "v": 127
    },
    {
      "midi": 45,
      "hit": false,
      "t": 224705.49888541806,
      "d": 1135.8171562500356,
      "v": 119
    },
    {
      "midi": 57,
      "hit": false,
      "t": 225288.4315000014,
      "d": 288.4615000000049,
      "v": 108
    },
    {
      "midi": 59,
      "hit": false,
      "t": 225588.91222916808,
      "d": 240.38458333333256,
      "v": 101
    },
    {
      "midi": 67,
      "hit": false,
      "t": 225847.32565625143,
      "d": 649.0383750000037,
      "v": 119
    },
    {
      "midi": 59,
      "hit": false,
      "t": 225853.33527083477,
      "d": 576.9230000000098,
      "v": 127
    },
    {
      "midi": 62,
      "hit": false,
      "t": 225853.33527083477,
      "d": 649.0383750000037,
      "v": 127
    },
    {
      "midi": 47,
      "hit": false,
      "t": 225859.3448854181,
      "d": 1159.8556145833572,
      "v": 127
    },
    {
      "midi": 59,
      "hit": false,
      "t": 226430.25827083478,
      "d": 528.8460833333374,
      "v": 119
    },
    {
      "midi": 62,
      "hit": false,
      "t": 226718.71977083478,
      "d": 288.4615000000049,
      "v": 119
    },
    {
      "midi": 64,
      "hit": false,
      "t": 226995.1620416681,
      "d": 552.8845416666882,
      "v": 127
    },
    {
      "midi": 60,
      "hit": false,
      "t": 227007.1812708348,
      "d": 552.8845416666882,
      "v": 127
    },
    {
      "midi": 67,
      "hit": false,
      "t": 227007.1812708348,
      "d": 552.8845416666882,
      "v": 127
    },
    {
      "midi": 48,
      "hit": false,
      "t": 227013.19088541812,
      "d": 516.8268541666621,
      "v": 118
    },
    {
      "midi": 60,
      "hit": false,
      "t": 227560.06581250147,
      "d": 841.346041666693,
      "v": 127
    },
    {
      "midi": 64,
      "hit": false,
      "t": 227560.06581250147,
      "d": 841.346041666693,
      "v": 119
    },
    {
      "midi": 55,
      "hit": false,
      "t": 227566.0754270848,
      "d": 865.3845000000147,
      "v": 127
    },
    {
      "midi": 40,
      "hit": false,
      "t": 227578.0946562515,
      "d": 865.3845000000147,
      "v": 127
    },
    {
      "midi": 67,
      "hit": false,
      "t": 228395.40223958483,
      "d": 793.2691249999916,
      "v": 119
    },
    {
      "midi": 41,
      "hit": false,
      "t": 228401.41185416817,
      "d": 793.2691249999916,
      "v": 127
    },
    {
      "midi": 60,
      "hit": false,
      "t": 228401.41185416817,
      "d": 793.2691249999916,
      "v": 127
    },
    {
      "midi": 64,
      "hit": false,
      "t": 228401.41185416817,
      "d": 793.2691249999916,
      "v": 127
    },
    {
      "midi": 60,
      "hit": false,
      "t": 229320.88288541816,
      "d": 270.43265624999185,
      "v": 91
    },
    {
      "midi": 57,
      "hit": false,
      "t": 229320.88288541816,
      "d": 276.44227083332953,
      "v": 91
    },
    {
      "midi": 53,
      "hit": false,
      "t": 229326.8925000015,
      "d": 270.43265624999185,
      "v": 80
    },
    {
      "midi": 60,
      "hit": false,
      "t": 229591.31554166815,
      "d": 576.9230000000098,
      "v": 127
    },
    {
      "midi": 53,
      "hit": false,
      "t": 229597.3251562515,
      "d": 576.9230000000098,
      "v": 127
    },
    {
      "midi": 57,
      "hit": false,
      "t": 229597.3251562515,
      "d": 576.9230000000098,
      "v": 127
    },
    {
      "midi": 53,
      "hit": false,
      "t": 230174.2481562515,
      "d": 240.38458333333256,
      "v": 119
    },
    {
      "midi": 53,
      "hit": false,
      "t": 230450.69042708483,
      "d": 312.4999583333265,
      "v": 96
    },
    {
      "midi": 53,
      "hit": false,
      "t": 230769.2000000015,
      "d": 384.61533333334955,
      "v": 119
    },
    {
      "midi": 57,
      "hit": false,
      "t": 230769.2000000015,
      "d": 384.61533333334955,
      "v": 127
    },
    {
      "midi": 60,
      "hit": false,
      "t": 230769.2000000015,
      "d": 384.61533333334955,
      "v": 127
    },
    {
      "midi": 43,
      "hit": false,
      "t": 230775.20961458483,
      "d": 997.5960208333563,
      "v": 119
    },
    {
      "midi": 55,
      "hit": false,
      "t": 231177.85379166817,
      "d": 312.4999583333265,
      "v": 127
    },
    {
      "midi": 59,
      "hit": false,
      "t": 231183.8634062515,
      "d": 312.4999583333265,
      "v": 127
    },
    {
      "midi": 62,
      "hit": false,
      "t": 231183.8634062515,
      "d": 312.4999583333265,
      "v": 127
    },
    {
      "midi": 57,
      "hit": false,
      "t": 231550.44989583484,
      "d": 360.57687500002794,
      "v": 127
    },
    {
      "midi": 64,
      "hit": false,
      "t": 231550.44989583484,
      "d": 360.57687500002794,
      "v": 127
    },
    {
      "midi": 60,
      "hit": false,
      "t": 231556.45951041818,
      "d": 360.57687500002794,
      "v": 127
    },
    {
      "midi": 62,
      "hit": false,
      "t": 231892.99792708486,
      "d": 384.61533333334955,
      "v": 127
    },
    {
      "midi": 55,
      "hit": false,
      "t": 231899.0075416682,
      "d": 414.66340625000885,
      "v": 127
    },
    {
      "midi": 59,
      "hit": false,
      "t": 231899.0075416682,
      "d": 414.66340625000885,
      "v": 119
    },
    {
      "midi": 43,
      "hit": false,
      "t": 231899.0075416682,
      "d": 637.0191458333284,
      "v": 108
    },
    {
      "midi": 57,
      "hit": false,
      "t": 232457.9016979182,
      "d": 252.40381250000792,
      "v": 127
    },
    {
      "midi": 60,
      "hit": false,
      "t": 232463.91131250153,
      "d": 474.75955208332743,
      "v": 119
    },
    {
      "midi": 53,
      "hit": false,
      "t": 232469.92092708487,
      "d": 366.5864895833365,
      "v": 108
    },
    {
      "midi": 43,
      "hit": false,
      "t": 232716.31512500154,
      "d": 318.5095729166642,
      "v": 119
    },
    {
      "midi": 55,
      "hit": false,
      "t": 233028.81508333486,
      "d": 3004.807291666686,
      "v": 127
    },
    {
      "midi": 52,
      "hit": false,
      "t": 233028.81508333486,
      "d": 3010.8169062500237,
      "v": 127
    },
    {
      "midi": 60,
      "hit": false,
      "t": 233076.89200000154,
      "d": 853.3652708333393,
      "v": 127
    },
    {
      "midi": 64,
      "hit": false,
      "t": 233076.89200000154,
      "d": 1129.8075416666688,
      "v": 127
    },
    {
      "midi": 67,
      "hit": false,
      "t": 233076.89200000154,
      "d": 1129.8075416666688,
      "v": 127
    },
    {
      "midi": 36,
      "hit": false,
      "t": 233076.89200000154,
      "d": 1574.519020833366,
      "v": 96
    },
    {
      "midi": 48,
      "hit": false,
      "t": 233076.89200000154,
      "d": 2259.615083333367,
      "v": 108
    },
    {
      "midi": 60,
      "hit": false,
      "t": 233930.25727083487,
      "d": 288.4615000000049,
      "v": 108
    },
    {
      "midi": 67,
      "hit": false,
      "t": 234224.72838541822,
      "d": 853.3652708333393,
      "v": 127
    },
    {
      "midi": 64,
      "hit": false,
      "t": 234224.72838541822,
      "d": 865.3845000000147,
      "v": 127
    },
    {
      "midi": 60,
      "hit": false,
      "t": 234230.73800000155,
      "d": 865.3845000000147,
      "v": 127
    },
    {
      "midi": 67,
      "hit": false,
      "t": 235078.09365625156,
      "d": 288.4615000000049,
      "v": 127
    },
    {
      "midi": 59,
      "hit": false,
      "t": 235084.1032708349,
      "d": 288.4615000000049,
      "v": 127
    },
    {
      "midi": 62,
      "hit": false,
      "t": 235084.1032708349,
      "d": 294.47111458334257,
      "v": 127
    },
    {
      "midi": 67,
      "hit": false,
      "t": 235366.55515625156,
      "d": 552.8845416666591,
      "v": 127
    },
    {
      "midi": 59,
      "hit": false,
      "t": 235372.5647708349,
      "d": 390.62494791665813,
      "v": 127
    },
    {
      "midi": 43,
      "hit": false,
      "t": 235372.5647708349,
      "d": 546.8749270833214,
      "v": 119
    },
    {
      "midi": 62,
      "hit": false,
      "t": 235378.57438541824,
      "d": 546.8749270833214,
      "v": 127
    },
    {
      "midi": 59,
      "hit": false,
      "t": 235955.49738541822,
      "d": 240.38458333333256,
      "v": 80
    },
    {
      "midi": 65,
      "hit": false,
      "t": 236237.94927083488,
      "d": 288.4615000000049,
      "v": 119
    },
    {
      "midi": 57,
      "hit": false,
      "t": 236237.94927083488,
      "d": 294.47111458334257,
      "v": 127
    },
    {
      "midi": 60,
      "hit": false,
      "t": 236237.94927083488,
      "d": 294.47111458334257,
      "v": 127
    },
    {
      "midi": 65,
      "hit": false,
      "t": 236526.4107708349,
      "d": 643.028760416666,
      "v": 127
    },
    {
      "midi": 57,
      "hit": false,
      "t": 236532.42038541823,
      "d": 552.8845416666591,
      "v": 127
    },
    {
      "midi": 60,
      "hit": false,
      "t": 236532.42038541823,
      "d": 552.8845416666591,
      "v": 127
    },
    {
      "midi": 41,
      "hit": false,
      "t": 236532.42038541823,
      "d": 582.9326145833184,
      "v": 119
    },
    {
      "midi": 53,
      "hit": false,
      "t": 236820.88188541823,
      "d": 288.4614999999758,
      "v": 96
    },
    {
      "midi": 57,
      "hit": false,
      "t": 237121.36261458488,
      "d": 216.34612500001094,
      "v": 108
    },
    {
      "midi": 64,
      "hit": false,
      "t": 237379.77604166823,
      "d": 276.44227083332953,
      "v": 108
    },
    {
      "midi": 55,
      "hit": false,
      "t": 237385.78565625157,
      "d": 282.4518854166672,
      "v": 127
    },
    {
      "midi": 60,
      "hit": false,
      "t": 237385.78565625157,
      "d": 282.4518854166672,
      "v": 119
    },
    {
      "midi": 64,
      "hit": false,
      "t": 237656.21831250156,
      "d": 2145.432406250009,
      "v": 127
    },
    {
      "midi": 55,
      "hit": false,
      "t": 237668.23754166823,
      "d": 1574.519020833337,
      "v": 127
    },
    {
      "midi": 60,
      "hit": false,
      "t": 237668.23754166823,
      "d": 1983.1728125000081,
      "v": 127
    },
    {
      "midi": 36,
      "hit": false,
      "t": 237674.24715625157,
      "d": 1117.7883124999935,
      "v": 119
    },
    {
      "midi": 48,
      "hit": false,
      "t": 238539.63165625156,
      "d": 288.4615000000049,
      "v": 108
    },
    {
      "midi": 48,
      "hit": false,
      "t": 238840.11238541824,
      "d": 576.9230000000098,
      "v": 127
    },
    {
      "midi": 48,
      "hit": false,
      "t": 239687.46804166824,
      "d": 685.0960625000007,
      "v": 91
    },
    {
      "midi": 55,
      "hit": false,
      "t": 239693.47765625158,
      "d": 312.4999583333265,
      "v": 96
    },
    {
      "midi": 36,
      "hit": false,
      "t": 239987.9487708349,
      "d": 552.8845416666882,
      "v": 108
    },
    {
      "midi": 60,
      "hit": false,
      "t": 240264.39104166825,
      "d": 576.9230000000098,
      "v": 127
    },
    {
      "midi": 64,
      "hit": false,
      "t": 240264.39104166825,
      "d": 576.9230000000098,
      "v": 127
    },
    {
      "midi": 55,
      "hit": false,
      "t": 240270.4006562516,
      "d": 576.9230000000098,
      "v": 127
    },
    {
      "midi": 48,
      "hit": false,
      "t": 240558.8621562516,
      "d": 288.4615000000049,
      "v": 108
    },
    {
      "midi": 57,
      "hit": false,
      "t": 240847.3236562516,
      "d": 552.8845416666591,
      "v": 119
    },
    {
      "midi": 65,
      "hit": false,
      "t": 240847.3236562516,
      "d": 552.8845416666591,
      "v": 127
    },
    {
      "midi": 60,
      "hit": false,
      "t": 240853.33327083493,
      "d": 552.8845416666591,
      "v": 127
    },
    {
      "midi": 48,
      "hit": false,
      "t": 241123.76592708493,
      "d": 336.5384166666772,
      "v": 96
    },
    {
      "midi": 67,
      "hit": false,
      "t": 241424.2466562516,
      "d": 811.2979687500047,
      "v": 127
    },
    {
      "midi": 59,
      "hit": false,
      "t": 241430.25627083494,
      "d": 703.1249062500137,
      "v": 127
    },
    {
      "midi": 62,
      "hit": false,
      "t": 241430.25627083494,
      "d": 835.3364270833263,
      "v": 127
    },
    {
      "midi": 43,
      "hit": false,
      "t": 241676.6504687516,
      "d": 606.9710729166691,
      "v": 127
    },
    {
      "midi": 48,
      "hit": false,
      "t": 242001.16965625162,
      "d": 1820.9132187500072,
      "v": 127
    },
    {
      "midi": 67,
      "hit": false,
      "t": 242307.6600000016,
      "d": 637.0191458333284,
      "v": 119
    },
    {
      "midi": 64,
      "hit": false,
      "t": 242307.6600000016,
      "d": 841.346041666664,
      "v": 127
    },
    {
      "midi": 60,
      "hit": false,
      "t": 242313.66961458494,
      "d": 841.346041666664,
      "v": 127
    },
    {
      "midi": 36,
      "hit": false,
      "t": 242313.66961458494,
      "d": 1177.8844583333412,
      "v": 119
    },
    {
      "midi": 64,
      "hit": false,
      "t": 243167.03488541828,
      "d": 288.4615000000049,
      "v": 119
    },
    {
      "midi": 67,
      "hit": false,
      "t": 243167.03488541828,
      "d": 288.4615000000049,
      "v": 108
    },
    {
      "midi": 60,
      "hit": false,
      "t": 243173.04450000162,
      "d": 288.4615000000049,
      "v": 108
    },
    {
      "midi": 64,
      "hit": false,
      "t": 243455.4963854183,
      "d": 793.2691249999916,
      "v": 127
    },
    {
      "midi": 67,
      "hit": false,
      "t": 243455.4963854183,
      "d": 793.2691249999916,
      "v": 127
    },
    {
      "midi": 60,
      "hit": false,
      "t": 243461.50600000162,
      "d": 793.2691249999916,
      "v": 127
    },
    {
      "midi": 59,
      "hit": false,
      "t": 244302.8520416683,
      "d": 264.42304166665417,
      "v": 127
    },
    {
      "midi": 67,
      "hit": false,
      "t": 244326.8905000016,
      "d": 264.42304166665417,
      "v": 127
    },
    {
      "midi": 62,
      "hit": false,
      "t": 244326.8905000016,
      "d": 270.43265624999185,
      "v": 96
    },
    {
      "midi": 50,
      "hit": false,
      "t": 244332.90011458495,
      "d": 264.42304166665417,
      "v": 117
    },
    {
      "midi": 67,
      "hit": false,
      "t": 244591.31354166826,
      "d": 18.02884375001304,
      "v": 127
    },
    {
      "midi": 59,
      "hit": false,
      "t": 244591.31354166826,
      "d": 643.028760416666,
      "v": 127
    },
    {
      "midi": 62,
      "hit": false,
      "t": 244597.3231562516,
      "d": 12.019229166675359,
      "v": 127
    },
    {
      "midi": 43,
      "hit": false,
      "t": 244603.33277083494,
      "d": 679.086447916663,
      "v": 108
    },
    {
      "midi": 55,
      "hit": false,
      "t": 245204.29422916827,
      "d": 240.38458333333256,
      "v": 96
    },
    {
      "midi": 65,
      "hit": false,
      "t": 245474.72688541826,
      "d": 288.4615000000049,
      "v": 108
    },
    {
      "midi": 57,
      "hit": false,
      "t": 245480.7365000016,
      "d": 282.4518854166672,
      "v": 108
    },
    {
      "midi": 60,
      "hit": false,
      "t": 245480.7365000016,
      "d": 288.4615000000049,
      "v": 108
    },
    {
      "midi": 57,
      "hit": false,
      "t": 245763.18838541827,
      "d": 408.65379166667117,
      "v": 127
    },
    {
      "midi": 65,
      "hit": false,
      "t": 245763.18838541827,
      "d": 594.9518437499937,
      "v": 127
    },
    {
      "midi": 60,
      "hit": false,
      "t": 245769.1980000016,
      "d": 564.9037708333344,
      "v": 127
    },
    {
      "midi": 41,
      "hit": false,
      "t": 245769.1980000016,
      "d": 631.0095312499907,
      "v": 119
    },
    {
      "midi": 53,
      "hit": false,
      "t": 246057.6595000016,
      "d": 234.37496874999488,
      "v": 96
    },
    {
      "midi": 57,
      "hit": false,
      "t": 246364.1498437516,
      "d": 264.42304166665417,
      "v": 108
    },
    {
      "midi": 64,
      "hit": false,
      "t": 246622.56327083491,
      "d": 288.4615000000049,
      "v": 108
    },
    {
      "midi": 55,
      "hit": false,
      "t": 246628.57288541825,
      "d": 288.4615000000049,
      "v": 119
    },
    {
      "midi": 60,
      "hit": false,
      "t": 246628.57288541825,
      "d": 288.4615000000049,
      "v": 119
    },
    {
      "midi": 64,
      "hit": false,
      "t": 246911.02477083492,
      "d": 895.432572916674,
      "v": 108
    },
    {
      "midi": 55,
      "hit": false,
      "t": 246917.03438541826,
      "d": 847.3556562500016,
      "v": 127
    },
    {
      "midi": 60,
      "hit": false,
      "t": 246917.03438541826,
      "d": 859.374885416677,
      "v": 127
    },
    {
      "midi": 36,
      "hit": false,
      "t": 246917.03438541826,
      "d": 1147.8363854166528,
      "v": 127
    },
    {
      "midi": 48,
      "hit": false,
      "t": 247782.41888541827,
      "d": 216.34612499998184,
      "v": 119
    },
    {
      "midi": 48,
      "hit": false,
      "t": 248070.88038541825,
      "d": 667.0672187500168,
      "v": 119
    },
    {
      "midi": 67,
      "hit": false,
      "t": 248359.34188541825,
      "d": 300.48072916668025,
      "v": 127
    },
    {
      "midi": 62,
      "hit": false,
      "t": 248647.80338541826,
      "d": 576.9230000000098,
      "v": 127
    },
    {
      "midi": 48,
      "hit": false,
      "t": 248936.26488541826,
      "d": 288.4615000000049,
      "v": 108
    },
    {
      "midi": 64,
      "hit": false,
      "t": 249230.7360000016,
      "d": 793.2691250000207,
      "v": 119
    },
    {
      "midi": 59,
      "hit": false,
      "t": 249236.74561458494,
      "d": 793.2691250000207,
      "v": 127
    },
    {
      "midi": 56,
      "hit": false,
      "t": 249242.75522916828,
      "d": 793.2691250000207,
      "v": 127
    },
    {
      "midi": 44,
      "hit": false,
      "t": 249248.76484375162,
      "d": 841.346041666693,
      "v": 127
    },
    {
      "midi": 64,
      "hit": false,
      "t": 250078.09165625164,
      "d": 624.9999166666821,
      "v": 108
    },
    {
      "midi": 60,
      "hit": false,
      "t": 250084.10127083497,
      "d": 624.9999166666821,
      "v": 127
    },
    {
      "midi": 57,
      "hit": false,
      "t": 250090.1108854183,
      "d": 582.9326145833475,
      "v": 127
    },
    {
      "midi": 45,
      "hit": false,
      "t": 250090.1108854183,
      "d": 1135.8171562500356,
      "v": 119
    },
    {
      "midi": 57,
      "hit": false,
      "t": 250673.04350000166,
      "d": 288.4615000000049,
      "v": 108
    },
    {
      "midi": 59,
      "hit": false,
      "t": 250973.52422916834,
      "d": 240.38458333333256,
      "v": 101
    },
    {
      "midi": 67,
      "hit": false,
      "t": 251231.93765625168,
      "d": 649.0383750000037,
      "v": 119
    },
    {
      "midi": 59,
      "hit": false,
      "t": 251237.94727083502,
      "d": 576.9230000000098,
      "v": 127
    },
    {
      "midi": 62,
      "hit": false,
      "t": 251237.94727083502,
      "d": 649.0383750000037,
      "v": 127
    },
    {
      "midi": 47,
      "hit": false,
      "t": 251243.95688541836,
      "d": 1159.8556145833572,
      "v": 127
    },
    {
      "midi": 59,
      "hit": false,
      "t": 251814.87027083503,
      "d": 528.8460833333374,
      "v": 119
    },
    {
      "midi": 62,
      "hit": false,
      "t": 252103.33177083504,
      "d": 288.4615000000049,
      "v": 119
    },
    {
      "midi": 64,
      "hit": false,
      "t": 252379.77404166837,
      "d": 552.8845416666882,
      "v": 127
    },
    {
      "midi": 60,
      "hit": false,
      "t": 252391.79327083504,
      "d": 552.8845416666882,
      "v": 127
    },
    {
      "midi": 67,
      "hit": false,
      "t": 252391.79327083504,
      "d": 552.8845416666882,
      "v": 127
    },
    {
      "midi": 48,
      "hit": false,
      "t": 252397.80288541838,
      "d": 516.8268541666621,
      "v": 118
    },
    {
      "midi": 60,
      "hit": false,
      "t": 252944.67781250173,
      "d": 841.346041666693,
      "v": 127
    },
    {
      "midi": 64,
      "hit": false,
      "t": 252944.67781250173,
      "d": 841.346041666693,
      "v": 119
    },
    {
      "midi": 55,
      "hit": false,
      "t": 252950.68742708507,
      "d": 847.3556562500307,
      "v": 127
    },
    {
      "midi": 40,
      "hit": false,
      "t": 252962.70665625174,
      "d": 835.3364270833554,
      "v": 127
    },
    {
      "midi": 64,
      "hit": false,
      "t": 253864.14884375175,
      "d": 438.70186458333046,
      "v": 119
    },
    {
      "midi": 40,
      "hit": false,
      "t": 253864.14884375175,
      "d": 787.259510416683,
      "v": 127
    },
    {
      "midi": 56,
      "hit": false,
      "t": 253870.1584583351,
      "d": 402.6441770833335,
      "v": 127
    },
    {
      "midi": 59,
      "hit": false,
      "t": 253870.1584583351,
      "d": 426.6826354166551,
      "v": 127
    },
    {
      "midi": 64,
      "hit": false,
      "t": 254405.01415625174,
      "d": 192.30766666668933,
      "v": 119
    },
    {
      "midi": 59,
      "hit": false,
      "t": 254417.0333854184,
      "d": 222.35573958334862,
      "v": 127
    },
    {
      "midi": 56,
      "hit": false,
      "t": 254417.0333854184,
      "d": 294.4711145833717,
      "v": 127
    },
    {
      "midi": 52,
      "hit": false,
      "t": 254669.43719791845,
      "d": 276.44227083332953,
      "v": 96
    },
    {
      "midi": 68,
      "hit": false,
      "t": 254963.9083125018,
      "d": 444.71147916669725,
      "v": 119
    },
    {
      "midi": 64,
      "hit": false,
      "t": 254969.91792708513,
      "d": 414.66340625000885,
      "v": 127
    },
    {
      "midi": 59,
      "hit": false,
      "t": 254969.91792708513,
      "d": 432.6922500000219,
      "v": 127
    },
    {
      "midi": 44,
      "hit": false,
      "t": 254981.9371562518,
      "d": 883.4133437500277,
      "v": 127
    },
    {
      "midi": 59,
      "hit": false,
      "t": 255540.83131250183,
      "d": 210.33651041667326,
      "v": 127
    },
    {
      "midi": 68,
      "hit": false,
      "t": 255540.83131250183,
      "d": 234.37496874999488,
      "v": 119
    },
    {
      "midi": 64,
      "hit": false,
      "t": 255546.84092708517,
      "d": 198.3172812499979,
      "v": 127
    },
    {
      "midi": 69,
      "hit": false,
      "t": 255829.29281250184,
      "d": 901.4421875000116,
      "v": 127
    },
    {
      "midi": 60,
      "hit": false,
      "t": 255835.30242708517,
      "d": 486.7787812500028,
      "v": 127
    },
    {
      "midi": 64,
      "hit": false,
      "t": 255835.30242708517,
      "d": 612.9806875000068,
      "v": 127
    },
    {
      "midi": 66,
      "hit": false,
      "t": 255841.3120416685,
      "d": 24.038458333321614,
      "v": 96
    },
    {
      "midi": 45,
      "hit": false,
      "t": 255841.3120416685,
      "d": 1159.8556145833572,
      "v": 108
    },
    {
      "midi": 60,
      "hit": false,
      "t": 256418.23504166852,
      "d": 420.6730208333174,
      "v": 127
    },
    {
      "midi": 64,
      "hit": false,
      "t": 256688.6676979185,
      "d": 144.2307499999879,
      "v": 108
    },
    {
      "midi": 59,
      "hit": false,
      "t": 256971.11958333518,
      "d": 450.7210937500349,
      "v": 127
    },
    {
      "midi": 62,
      "hit": false,
      "t": 256977.12919791852,
      "d": 504.80762500001583,
      "v": 127
    },
    {
      "midi": 67,
      "hit": false,
      "t": 256977.12919791852,
      "d": 612.9806875000068,
      "v": 127
    },
    {
      "midi": 47,
      "hit": false,
      "t": 256983.13881250186,
      "d": 462.7403229166812,
      "v": 108
    },
    {
      "midi": 48,
      "hit": false,
      "t": 257596.11950000186,
      "d": 817.3075833333423,
      "v": 119
    },
    {
      "midi": 60,
      "hit": false,
      "t": 257596.11950000186,
      "d": 817.3075833333423,
      "v": 127
    },
    {
      "midi": 64,
      "hit": false,
      "t": 257596.11950000186,
      "d": 817.3075833333423,
      "v": 127
    },
    {
      "midi": 67,
      "hit": false,
      "t": 257596.11950000186,
      "d": 817.3075833333423,
      "v": 119
    },
    {
      "midi": 60,
      "hit": false,
      "t": 258461.50400000188,
      "d": 817.3075833333423,
      "v": 119
    },
    {
      "midi": 64,
      "hit": false,
      "t": 258461.50400000188,
      "d": 817.3075833333423,
      "v": 127
    },
    {
      "midi": 67,
      "hit": false,
      "t": 258467.51361458522,
      "d": 817.3075833333423,
      "v": 127
    },
    {
      "midi": 41,
      "hit": false,
      "t": 258473.52322916855,
      "d": 817.3075833333423,
      "v": 108
    },
    {
      "midi": 60,
      "hit": false,
      "t": 259320.87888541856,
      "d": 270.43265624999185,
      "v": 91
    },
    {
      "midi": 57,
      "hit": false,
      "t": 259320.87888541856,
      "d": 276.44227083332953,
      "v": 91
    },
    {
      "midi": 53,
      "hit": false,
      "t": 259326.8885000019,
      "d": 270.43265624999185,
      "v": 80
    },
    {
      "midi": 60,
      "hit": false,
      "t": 259591.31154166855,
      "d": 576.9230000000098,
      "v": 127
    },
    {
      "midi": 53,
      "hit": false,
      "t": 259597.32115625188,
      "d": 576.9230000000098,
      "v": 127
    },
    {
      "midi": 57,
      "hit": false,
      "t": 259597.32115625188,
      "d": 576.9230000000098,
      "v": 127
    },
    {
      "midi": 53,
      "hit": false,
      "t": 260174.2441562519,
      "d": 240.38458333333256,
      "v": 119
    },
    {
      "midi": 53,
      "hit": false,
      "t": 260450.68642708522,
      "d": 312.4999583333265,
      "v": 96
    },
    {
      "midi": 53,
      "hit": false,
      "t": 260769.1960000019,
      "d": 384.61533333334955,
      "v": 119
    },
    {
      "midi": 57,
      "hit": false,
      "t": 260769.1960000019,
      "d": 384.61533333334955,
      "v": 127
    },
    {
      "midi": 60,
      "hit": false,
      "t": 260769.1960000019,
      "d": 384.61533333334955,
      "v": 127
    },
    {
      "midi": 43,
      "hit": false,
      "t": 260775.20561458523,
      "d": 997.5960208333563,
      "v": 119
    },
    {
      "midi": 55,
      "hit": false,
      "t": 261177.84979166856,
      "d": 312.4999583333265,
      "v": 127
    },
    {
      "midi": 59,
      "hit": false,
      "t": 261183.8594062519,
      "d": 312.4999583333265,
      "v": 127
    },
    {
      "midi": 62,
      "hit": false,
      "t": 261183.8594062519,
      "d": 312.4999583333265,
      "v": 127
    },
    {
      "midi": 57,
      "hit": false,
      "t": 261550.44589583523,
      "d": 360.57687500002794,
      "v": 127
    },
    {
      "midi": 64,
      "hit": false,
      "t": 261550.44589583523,
      "d": 360.57687500002794,
      "v": 127
    },
    {
      "midi": 60,
      "hit": false,
      "t": 261556.45551041857,
      "d": 360.57687500002794,
      "v": 127
    },
    {
      "midi": 62,
      "hit": false,
      "t": 261892.99392708525,
      "d": 384.61533333337866,
      "v": 127
    },
    {
      "midi": 55,
      "hit": false,
      "t": 261899.0035416686,
      "d": 414.66340625006706,
      "v": 127
    },
    {
      "midi": 59,
      "hit": false,
      "t": 261899.0035416686,
      "d": 414.66340625006706,
      "v": 119
    },
    {
      "midi": 43,
      "hit": false,
      "t": 261899.0035416686,
      "d": 637.0191458333866,
      "v": 108
    },
    {
      "midi": 57,
      "hit": false,
      "t": 262457.89769791864,
      "d": 252.40381250000792,
      "v": 127
    },
    {
      "midi": 60,
      "hit": false,
      "t": 262463.907312502,
      "d": 474.75955208338564,
      "v": 119
    },
    {
      "midi": 53,
      "hit": false,
      "t": 262469.9169270853,
      "d": 366.5864895833656,
      "v": 108
    },
    {
      "midi": 43,
      "hit": false,
      "t": 262716.311125002,
      "d": 318.5095729167224,
      "v": 119
    },
    {
      "midi": 60,
      "hit": false,
      "t": 263016.7918541687,
      "d": 2896.634229166666,
      "v": 91
    },
    {
      "midi": 52,
      "hit": false,
      "t": 263028.8110833354,
      "d": 2884.6149999999907,
      "v": 127
    },
    {
      "midi": 55,
      "hit": false,
      "t": 263028.8110833354,
      "d": 2884.6149999999907,
      "v": 127
    },
    {
      "midi": 36,
      "hit": false,
      "t": 263034.8206979187,
      "d": 2878.605385416653,
      "v": 119
    },
    {
      "midi": 60,
      "hit": false,
      "t": 266826.88750000205,
      "d": 210.33651041664416,
      "v": 127
    },
    {
      "midi": 55,
      "hit": false,
      "t": 266826.88750000205,
      "d": 228.3653541666572,
      "v": 127
    },
    {
      "midi": 64,
      "hit": false,
      "t": 266826.88750000205,
      "d": 246.39419791667024,
      "v": 127
    },
    {
      "midi": 40,
      "hit": false,
      "t": 266826.88750000205,
      "d": 258.4134270833456,
      "v": 119
    },
    {
      "midi": 57,
      "hit": false,
      "t": 267403.81050000206,
      "d": 1502.403645833314,
      "v": 127
    },
    {
      "midi": 62,
      "hit": false,
      "t": 267403.81050000206,
      "d": 1502.403645833314,
      "v": 127
    },
    {
      "midi": 66,
      "hit": false,
      "t": 267403.81050000206,
      "d": 1526.4421041666646,
      "v": 127
    },
    {
      "midi": 38,
      "hit": false,
      "t": 267403.81050000206,
      "d": 1652.6440104166395,
      "v": 127
    },
    {
      "midi": 57,
      "hit": false,
      "t": 269134.57950000203,
      "d": 390.62494791665813,
      "v": 127
    },
    {
      "midi": 62,
      "hit": false,
      "t": 269134.57950000203,
      "d": 402.6441770833335,
      "v": 127
    },
    {
      "midi": 66,
      "hit": false,
      "t": 269134.57950000203,
      "d": 420.6730208333465,
      "v": 127
    },
    {
      "midi": 42,
      "hit": false,
      "t": 269134.57950000203,
      "d": 528.8460833333666,
      "v": 127
    },
    {
      "midi": 59,
      "hit": false,
      "t": 269711.50250000204,
      "d": 396.6345624999958,
      "v": 127
    },
    {
      "midi": 62,
      "hit": false,
      "t": 269711.50250000204,
      "d": 408.65379166667117,
      "v": 127
    },
    {
      "midi": 67,
      "hit": false,
      "t": 269711.50250000204,
      "d": 432.6922500000219,
      "v": 127
    },
    {
      "midi": 43,
      "hit": false,
      "t": 269711.50250000204,
      "d": 600.9614583333605,
      "v": 119
    },
    {
      "midi": 59,
      "hit": false,
      "t": 270288.42550000205,
      "d": 384.61533333337866,
      "v": 127
    },
    {
      "midi": 62,
      "hit": false,
      "t": 270288.42550000205,
      "d": 402.6441770833917,
      "v": 127
    },
    {
      "midi": 67,
      "hit": false,
      "t": 270288.42550000205,
      "d": 420.67302083340473,
      "v": 127
    },
    {
      "midi": 47,
      "hit": false,
      "t": 270288.42550000205,
      "d": 540.8653125001001,
      "v": 119
    },
    {
      "midi": 60,
      "hit": false,
      "t": 270865.3485000022,
      "d": 426.6826354166842,
      "v": 127
    },
    {
      "midi": 64,
      "hit": false,
      "t": 270865.3485000022,
      "d": 444.71147916669725,
      "v": 127
    },
    {
      "midi": 67,
      "hit": false,
      "t": 270865.3485000022,
      "d": 456.7307083333726,
      "v": 127
    },
    {
      "midi": 36,
      "hit": false,
      "t": 270865.3485000022,
      "d": 552.8845416667173,
      "v": 119
    },
    {
      "midi": 40,
      "hit": false,
      "t": 271442.27150000224,
      "d": 450.7210937499767,
      "v": 127
    },
    {
      "midi": 60,
      "hit": false,
      "t": 271442.27150000224,
      "d": 715.1441354166018,
      "v": 127
    },
    {
      "midi": 64,
      "hit": false,
      "t": 271442.27150000224,
      "d": 715.1441354166018,
      "v": 127
    },
    {
      "midi": 67,
      "hit": false,
      "t": 271442.27150000224,
      "d": 721.1537499999395,
      "v": 127
    },
    {
      "midi": 40,
      "hit": false,
      "t": 272019.1945000022,
      "d": 276.4422708333004,
      "v": 127
    },
    {
      "midi": 67,
      "hit": false,
      "t": 272307.6560000022,
      "d": 943.5094895833172,
      "v": 127
    },
    {
      "midi": 60,
      "hit": false,
      "t": 272307.6560000022,
      "d": 1009.6152499999735,
      "v": 127
    },
    {
      "midi": 64,
      "hit": false,
      "t": 272307.6560000022,
      "d": 1027.6440937499865,
      "v": 127
    },
    {
      "midi": 41,
      "hit": false,
      "t": 272307.6560000022,
      "d": 1147.8363854166819,
      "v": 127
    },
    {
      "midi": 57,
      "hit": false,
      "t": 273461.5020000022,
      "d": 973.5575625000056,
      "v": 119
    },
    {
      "midi": 60,
      "hit": false,
      "t": 273461.5020000022,
      "d": 979.5671770833433,
      "v": 127
    },
    {
      "midi": 67,
      "hit": false,
      "t": 273461.5020000022,
      "d": 991.5864062500186,
      "v": 127
    },
    {
      "midi": 65,
      "hit": false,
      "t": 273461.5020000022,
      "d": 1075.721010416688,
      "v": 127
    },
    {
      "midi": 43,
      "hit": false,
      "t": 273461.5020000022,
      "d": 1135.8171562500065,
      "v": 127
    },
    {
      "midi": 55,
      "hit": false,
      "t": 274615.3480000022,
      "d": 3287.259177083324,
      "v": 127
    },
    {
      "midi": 60,
      "hit": false,
      "t": 274615.3480000022,
      "d": 3329.3264791666297,
      "v": 127
    },
    {
      "midi": 64,
      "hit": false,
      "t": 274615.3480000022,
      "d": 3347.3553229166428,
      "v": 119
    },
    {
      "midi": 67,
      "hit": false,
      "t": 274615.3480000022,
      "d": 3347.3553229166428,
      "v": 108
    },
    {
      "midi": 36,
      "hit": false,
      "t": 274615.3480000022,
      "d": 3509.6149166666437,
      "v": 127
    },
    {
      "midi": 67,
      "hit": false,
      "t": 278365.3475000022,
      "d": 210.33651041664416,
      "v": 127
    },
    {
      "midi": 64,
      "hit": false,
      "t": 278365.3475000022,
      "d": 216.34612499998184,
      "v": 127
    },
    {
      "midi": 60,
      "hit": false,
      "t": 278365.3475000022,
      "d": 258.4134270832874,
      "v": 127
    },
    {
      "midi": 40,
      "hit": false,
      "t": 278365.3475000022,
      "d": 306.4903437499306,
      "v": 127
    },
    {
      "midi": 68,
      "hit": false,
      "t": 278942.27050000214,
      "d": 18.02884375001304,
      "v": 70
    },
    {
      "midi": 57,
      "hit": false,
      "t": 278942.27050000214,
      "d": 1538.46133333334,
      "v": 127
    },
    {
      "midi": 62,
      "hit": false,
      "t": 278942.27050000214,
      "d": 1538.46133333334,
      "v": 127
    },
    {
      "midi": 66,
      "hit": false,
      "t": 278942.27050000214,
      "d": 1538.46133333334,
      "v": 127
    },
    {
      "midi": 69,
      "hit": false,
      "t": 278942.27050000214,
      "d": 1550.4805625000154,
      "v": 127
    },
    {
      "midi": 38,
      "hit": false,
      "t": 278942.27050000214,
      "d": 1562.4997916666907,
      "v": 127
    },
    {
      "midi": 69,
      "hit": false,
      "t": 280673.03950000217,
      "d": 342.5480312500149,
      "v": 127
    },
    {
      "midi": 57,
      "hit": false,
      "t": 280673.03950000217,
      "d": 354.56726041669026,
      "v": 127
    },
    {
      "midi": 62,
      "hit": false,
      "t": 280673.03950000217,
      "d": 384.61533333337866,
      "v": 127
    },
    {
      "midi": 66,
      "hit": false,
      "t": 280673.03950000217,
      "d": 384.61533333337866,
      "v": 127
    },
    {
      "midi": 42,
      "hit": false,
      "t": 280673.03950000217,
      "d": 492.7883958333987,
      "v": 127
    },
    {
      "midi": 59,
      "hit": false,
      "t": 281249.96250000224,
      "d": 348.5576458333526,
      "v": 127
    },
    {
      "midi": 62,
      "hit": false,
      "t": 281249.96250000224,
      "d": 354.56726041669026,
      "v": 127
    },
    {
      "midi": 67,
      "hit": false,
      "t": 281249.96250000224,
      "d": 384.61533333337866,
      "v": 127
    },
    {
      "midi": 43,
      "hit": false,
      "t": 281249.96250000224,
      "d": 564.9037708333926,
      "v": 127
    },
    {
      "midi": 59,
      "hit": false,
      "t": 281826.8855000023,
      "d": 354.56726041669026,
      "v": 127
    },
    {
      "midi": 62,
      "hit": false,
      "t": 281826.8855000023,
      "d": 372.5961041667033,
      "v": 127
    },
    {
      "midi": 67,
      "hit": false,
      "t": 281826.8855000023,
      "d": 396.634562500054,
      "v": 127
    },
    {
      "midi": 47,
      "hit": false,
      "t": 281826.8855000023,
      "d": 528.8460833333666,
      "v": 119
    },
    {
      "midi": 64,
      "hit": false,
      "t": 282403.8085000023,
      "d": 390.62494791665813,
      "v": 127
    },
    {
      "midi": 60,
      "hit": false,
      "t": 282403.8085000023,
      "d": 396.6345624999958,
      "v": 127
    },
    {
      "midi": 67,
      "hit": false,
      "t": 282403.8085000023,
      "d": 396.6345624999958,
      "v": 127
    },
    {
      "midi": 36,
      "hit": false,
      "t": 282403.8085000023,
      "d": 516.8268541666912,
      "v": 127
    },
    {
      "midi": 60,
      "hit": false,
      "t": 282980.7315000023,
      "d": 697.115291666647,
      "v": 127
    },
    {
      "midi": 67,
      "hit": false,
      "t": 282980.7315000023,
      "d": 721.1537499999977,
      "v": 127
    },
    {
      "midi": 64,
      "hit": false,
      "t": 282980.7315000023,
      "d": 733.172979166673,
      "v": 127
    },
    {
      "midi": 40,
      "hit": false,
      "t": 282980.7315000023,
      "d": 841.346041666693,
      "v": 127
    },
    {
      "midi": 60,
      "hit": false,
      "t": 283846.11600000237,
      "d": 973.5575625000056,
      "v": 127
    },
    {
      "midi": 57,
      "hit": false,
      "t": 283846.11600000237,
      "d": 979.5671770833433,
      "v": 127
    },
    {
      "midi": 65,
      "hit": false,
      "t": 283846.11600000237,
      "d": 1045.6729374999995,
      "v": 127
    },
    {
      "midi": 67,
      "hit": false,
      "t": 283846.11600000237,
      "d": 1057.692166666675,
      "v": 127
    },
    {
      "midi": 41,
      "hit": false,
      "t": 283846.11600000237,
      "d": 1147.8363854166819,
      "v": 127
    },
    {
      "midi": 59,
      "hit": false,
      "t": 284999.9620000024,
      "d": 985.576791666681,
      "v": 127
    },
    {
      "midi": 62,
      "hit": false,
      "t": 284999.9620000024,
      "d": 1039.6633229166619,
      "v": 127
    },
    {
      "midi": 67,
      "hit": false,
      "t": 284999.9620000024,
      "d": 1039.6633229166619,
      "v": 127
    },
    {
      "midi": 65,
      "hit": false,
      "t": 284999.9620000024,
      "d": 1087.740239583305,
      "v": 127
    },
    {
      "midi": 43,
      "hit": false,
      "t": 284999.9620000024,
      "d": 1147.8363854166237,
      "v": 127
    },
    {
      "midi": 65,
      "hit": false,
      "t": 286153.80800000235,
      "d": 24.038458333350718,
      "v": 65
    },
    {
      "midi": 60,
      "hit": false,
      "t": 286153.80800000235,
      "d": 3203.124572916713,
      "v": 127
    },
    {
      "midi": 64,
      "hit": false,
      "t": 286153.80800000235,
      "d": 3221.153416666726,
      "v": 127
    },
    {
      "midi": 67,
      "hit": false,
      "t": 286153.80800000235,
      "d": 3227.163031250064,
      "v": 127
    },
    {
      "midi": 36,
      "hit": false,
      "t": 286153.80800000235,
      "d": 3359.3745520833763,
      "v": 119
    },
    {
      "midi": 40,
      "hit": false,
      "t": 289903.8075000024,
      "d": 282.4518854166381,
      "v": 127
    },
    {
      "midi": 72,
      "hit": false,
      "t": 289903.8075000024,
      "d": 300.48072916665114,
      "v": 119
    },
    {
      "midi": 64,
      "hit": false,
      "t": 289903.8075000024,
      "d": 312.4999583333265,
      "v": 127
    },
    {
      "midi": 67,
      "hit": false,
      "t": 289903.8075000024,
      "d": 2860.576541666698,
      "v": 127
    },
    {
      "midi": 66,
      "hit": false,
      "t": 290480.7305000024,
      "d": 1370.1921250000014,
      "v": 127
    },
    {
      "midi": 69,
      "hit": false,
      "t": 290480.7305000024,
      "d": 1370.1921250000014,
      "v": 127
    },
    {
      "midi": 62,
      "hit": false,
      "t": 290480.7305000024,
      "d": 1430.28827083332,
      "v": 127
    },
    {
      "midi": 38,
      "hit": false,
      "t": 290480.7305000024,
      "d": 1532.4517187500023,
      "v": 127
    },
    {
      "midi": 66,
      "hit": false,
      "t": 292211.4995000024,
      "d": 240.38458333333256,
      "v": 127
    },
    {
      "midi": 69,
      "hit": false,
      "t": 292211.4995000024,
      "d": 264.4230416666833,
      "v": 119
    },
    {
      "midi": 74,
      "hit": false,
      "t": 292211.4995000024,
      "d": 288.461500000034,
      "v": 127
    },
    {
      "midi": 42,
      "hit": false,
      "t": 292211.4995000024,
      "d": 414.66340625000885,
      "v": 127
    },
    {
      "midi": 67,
      "hit": false,
      "t": 292788.42250000243,
      "d": 378.60571874998277,
      "v": 127
    },
    {
      "midi": 71,
      "hit": false,
      "t": 292788.42250000243,
      "d": 378.60571874998277,
      "v": 127
    },
    {
      "midi": 74,
      "hit": false,
      "t": 292788.42250000243,
      "d": 390.62494791665813,
      "v": 127
    },
    {
      "midi": 43,
      "hit": false,
      "t": 292788.42250000243,
      "d": 546.8749270833214,
      "v": 127
    },
    {
      "midi": 71,
      "hit": false,
      "t": 293365.34550000244,
      "d": 240.38458333333256,
      "v": 127
    },
    {
      "midi": 74,
      "hit": false,
      "t": 293365.34550000244,
      "d": 252.40381250000792,
      "v": 127
    },
    {
      "midi": 67,
      "hit": false,
      "t": 293365.34550000244,
      "d": 384.61533333332045,
      "v": 127
    },
    {
      "midi": 47,
      "hit": false,
      "t": 293365.34550000244,
      "d": 522.8364687499707,
      "v": 127
    },
    {
      "midi": 67,
      "hit": false,
      "t": 293942.2685000024,
      "d": 372.5961041666451,
      "v": 127
    },
    {
      "midi": 64,
      "hit": false,
      "t": 293942.2685000024,
      "d": 378.60571874998277,
      "v": 127
    },
    {
      "midi": 72,
      "hit": false,
      "t": 293942.2685000024,
      "d": 396.6345624999958,
      "v": 127
    },
    {
      "midi": 36,
      "hit": false,
      "t": 293942.2685000024,
      "d": 444.71147916663904,
      "v": 127
    },
    {
      "midi": 64,
      "hit": false,
      "t": 294519.19150000234,
      "d": 733.172979166673,
      "v": 127
    },
    {
      "midi": 67,
      "hit": false,
      "t": 294519.19150000234,
      "d": 751.2018229166861,
      "v": 127
    },
    {
      "midi": 72,
      "hit": false,
      "t": 294519.19150000234,
      "d": 769.2306666666991,
      "v": 127
    },
    {
      "midi": 40,
      "hit": false,
      "t": 294519.19150000234,
      "d": 853.3652708333684,
      "v": 127
    },
    {
      "midi": 64,
      "hit": false,
      "t": 295384.5760000024,
      "d": 949.5191041666549,
      "v": 127
    },
    {
      "midi": 67,
      "hit": false,
      "t": 295384.5760000024,
      "d": 955.5287187499925,
      "v": 127
    },
    {
      "midi": 72,
      "hit": false,
      "t": 295384.5760000024,
      "d": 1075.721010416688,
      "v": 127
    },
    {
      "midi": 41,
      "hit": false,
      "t": 295384.5760000024,
      "d": 1171.8748437500326,
      "v": 127
    },
    {
      "midi": 65,
      "hit": false,
      "t": 296538.4220000024,
      "d": 1021.634479166707,
      "v": 127
    },
    {
      "midi": 71,
      "hit": false,
      "t": 296538.4220000024,
      "d": 1021.634479166707,
      "v": 127
    },
    {
      "midi": 67,
      "hit": false,
      "t": 296538.4220000024,
      "d": 1081.7306250000256,
      "v": 127
    },
    {
      "midi": 43,
      "hit": false,
      "t": 296538.4220000024,
      "d": 1129.8075416666688,
      "v": 127
    },
    {
      "midi": 71,
      "hit": false,
      "t": 297692.2680000024,
      "d": 30.048072916688398,
      "v": 96
    },
    {
      "midi": 72,
      "hit": false,
      "t": 297692.2680000024,
      "d": 3311.297635416675,
      "v": 127
    },
    {
      "midi": 67,
      "hit": false,
      "t": 297692.2680000024,
      "d": 3329.326479166688,
      "v": 127
    },
    {
      "midi": 64,
      "hit": false,
      "t": 297692.2680000024,
      "d": 3365.384166666714,
      "v": 127
    },
    {
      "midi": 36,
      "hit": false,
      "t": 297692.2680000024,
      "d": 3557.6918333334033,
      "v": 127
    },
    {
      "midi": 64,
      "hit": false,
      "t": 301442.2675000025,
      "d": 210.33651041664416,
      "v": 127
    },
    {
      "midi": 67,
      "hit": false,
      "t": 301442.2675000025,
      "d": 234.37496874999488,
      "v": 127
    },
    {
      "midi": 40,
      "hit": false,
      "t": 301442.2675000025,
      "d": 300.48072916665114,
      "v": 127
    },
    {
      "midi": 60,
      "hit": false,
      "t": 301442.2675000025,
      "d": 300.48072916665114,
      "v": 127
    },
    {
      "midi": 66,
      "hit": false,
      "t": 302019.1905000025,
      "d": 1568.5094062500284,
      "v": 127
    },
    {
      "midi": 38,
      "hit": false,
      "t": 302019.1905000025,
      "d": 1580.5286354167038,
      "v": 127
    },
    {
      "midi": 62,
      "hit": false,
      "t": 302019.1905000025,
      "d": 1580.5286354167038,
      "v": 127
    },
    {
      "midi": 69,
      "hit": false,
      "t": 302019.1905000025,
      "d": 1580.5286354167038,
      "v": 127
    },
    {
      "midi": 66,
      "hit": false,
      "t": 303749.95950000256,
      "d": 240.38458333333256,
      "v": 127
    },
    {
      "midi": 69,
      "hit": false,
      "t": 303749.95950000256,
      "d": 240.38458333333256,
      "v": 127
    },
    {
      "midi": 62,
      "hit": false,
      "t": 303749.95950000256,
      "d": 354.56726041669026,
      "v": 127
    },
    {
      "midi": 42,
      "hit": false,
      "t": 303749.95950000256,
      "d": 450.7210937500349,
      "v": 127
    },
    {
      "midi": 59,
      "hit": false,
      "t": 304326.88250000257,
      "d": 378.60571874998277,
      "v": 127
    },
    {
      "midi": 62,
      "hit": false,
      "t": 304326.88250000257,
      "d": 384.61533333332045,
      "v": 127
    },
    {
      "midi": 67,
      "hit": false,
      "t": 304326.88250000257,
      "d": 408.65379166667117,
      "v": 127
    },
    {
      "midi": 43,
      "hit": false,
      "t": 304326.88250000257,
      "d": 540.8653124999837,
      "v": 127
    },
    {
      "midi": 59,
      "hit": false,
      "t": 304903.8055000026,
      "d": 366.5864895833074,
      "v": 127
    },
    {
      "midi": 62,
      "hit": false,
      "t": 304903.8055000026,
      "d": 390.62494791665813,
      "v": 127
    },
    {
      "midi": 67,
      "hit": false,
      "t": 304903.8055000026,
      "d": 420.6730208333465,
      "v": 127
    },
    {
      "midi": 47,
      "hit": false,
      "t": 304903.8055000026,
      "d": 522.8364687500289,
      "v": 127
    },
    {
      "midi": 60,
      "hit": false,
      "t": 305480.7285000026,
      "d": 390.62494791665813,
      "v": 127
    },
    {
      "midi": 64,
      "hit": false,
      "t": 305480.7285000026,
      "d": 402.6441770833335,
      "v": 127
    },
    {
      "midi": 67,
      "hit": false,
      "t": 305480.7285000026,
      "d": 414.66340625000885,
      "v": 127
    },
    {
      "midi": 36,
      "hit": false,
      "t": 305480.7285000026,
      "d": 444.71147916669725,
      "v": 119
    },
    {
      "midi": 64,
      "hit": false,
      "t": 306057.6515000026,
      "d": 576.9230000000098,
      "v": 127
    },
    {
      "midi": 67,
      "hit": false,
      "t": 306057.6515000026,
      "d": 679.0864479166921,
      "v": 127
    },
    {
      "midi": 60,
      "hit": false,
      "t": 306057.6515000026,
      "d": 727.1633645833354,
      "v": 127
    },
    {
      "midi": 40,
      "hit": false,
      "t": 306057.6515000026,
      "d": 919.4710312499665,
      "v": 127
    },
    {
      "midi": 60,
      "hit": false,
      "t": 306923.0360000026,
      "d": 919.4710312499665,
      "v": 127
    },
    {
      "midi": 57,
      "hit": false,
      "t": 306923.0360000026,
      "d": 985.5767916666227,
      "v": 127
    },
    {
      "midi": 65,
      "hit": false,
      "t": 306923.0360000026,
      "d": 1039.6633229166036,
      "v": 127
    },
    {
      "midi": 67,
      "hit": false,
      "t": 306923.0360000026,
      "d": 1039.6633229166036,
      "v": 119
    },
    {
      "midi": 41,
      "hit": false,
      "t": 306923.0360000026,
      "d": 1165.8652291666367,
      "v": 127
    },
    {
      "midi": 67,
      "hit": false,
      "t": 308076.88200000254,
      "d": 967.5479479166679,
      "v": 127
    },
    {
      "midi": 59,
      "hit": false,
      "t": 308076.88200000254,
      "d": 973.5575625000056,
      "v": 127
    },
    {
      "midi": 62,
      "hit": false,
      "t": 308076.88200000254,
      "d": 991.5864062500186,
      "v": 127
    },
    {
      "midi": 65,
      "hit": false,
      "t": 308076.88200000254,
      "d": 1081.7306250000256,
      "v": 127
    },
    {
      "midi": 43,
      "hit": false,
      "t": 308076.88200000254,
      "d": 1111.778697916714,
      "v": 119
    },
    {
      "midi": 36,
      "hit": false,
      "t": 309230.72800000256,
      "d": 3569.7110625000205,
      "v": 127
    },
    {
      "midi": 60,
      "hit": false,
      "t": 309230.72800000256,
      "d": 3593.749520833371,
      "v": 127
    },
    {
      "midi": 64,
      "hit": false,
      "t": 309230.72800000256,
      "d": 3593.749520833371,
      "v": 127
    },
    {
      "midi": 67,
      "hit": false,
      "t": 309230.72800000256,
      "d": 3599.759135416709,
      "v": 127
    },
    {
      "midi": 64,
      "hit": false,
      "t": 312980.7275000026,
      "d": 270.43265625002095,
      "v": 127
    },
    {
      "midi": 40,
      "hit": false,
      "t": 312980.7275000026,
      "d": 318.5095729166642,
      "v": 127
    },
    {
      "midi": 60,
      "hit": false,
      "t": 312980.7275000026,
      "d": 318.5095729166642,
      "v": 127
    },
    {
      "midi": 67,
      "hit": false,
      "t": 312980.7275000026,
      "d": 324.51918750000186,
      "v": 127
    },
    {
      "midi": 38,
      "hit": false,
      "t": 313557.6505000026,
      "d": 1556.490177083353,
      "v": 127
    },
    {
      "midi": 66,
      "hit": false,
      "t": 313557.6505000026,
      "d": 1556.490177083353,
      "v": 127
    },
    {
      "midi": 62,
      "hit": false,
      "t": 313557.6505000026,
      "d": 1568.5094062500284,
      "v": 127
    },
    {
      "midi": 69,
      "hit": false,
      "t": 313557.6505000026,
      "d": 1574.519020833366,
      "v": 127
    },
    {
      "midi": 66,
      "hit": false,
      "t": 315288.41950000264,
      "d": 366.5864895833074,
      "v": 127
    },
    {
      "midi": 62,
      "hit": false,
      "t": 315288.41950000264,
      "d": 378.60571874998277,
      "v": 127
    },
    {
      "midi": 69,
      "hit": false,
      "t": 315288.41950000264,
      "d": 384.61533333332045,
      "v": 127
    },
    {
      "midi": 42,
      "hit": false,
      "t": 315288.41950000264,
      "d": 420.6730208333465,
      "v": 127
    },
    {
      "midi": 67,
      "hit": false,
      "t": 315865.34250000265,
      "d": 240.38458333333256,
      "v": 127
    },
    {
      "midi": 71,
      "hit": false,
      "t": 315865.34250000265,
      "d": 246.39419791667024,
      "v": 119
    },
    {
      "midi": 62,
      "hit": false,
      "t": 315865.34250000265,
      "d": 426.6826354166842,
      "v": 127
    },
    {
      "midi": 43,
      "hit": false,
      "t": 315865.34250000265,
      "d": 564.9037708333344,
      "v": 127
    },
    {
      "midi": 59,
      "hit": false,
      "t": 316442.26550000266,
      "d": 384.61533333332045,
      "v": 127
    },
    {
      "midi": 62,
      "hit": false,
      "t": 316442.26550000266,
      "d": 408.65379166667117,
      "v": 127
    },
    {
      "midi": 67,
      "hit": false,
      "t": 316442.26550000266,
      "d": 426.6826354166842,
      "v": 119
    },
    {
      "midi": 47,
      "hit": false,
      "t": 316442.26550000266,
      "d": 528.8460833333666,
      "v": 127
    },
    {
      "midi": 60,
      "hit": false,
      "t": 317019.18850000267,
      "d": 438.70186458335957,
      "v": 127
    },
    {
      "midi": 64,
      "hit": false,
      "t": 317019.18850000267,
      "d": 450.7210937500349,
      "v": 127
    },
    {
      "midi": 67,
      "hit": false,
      "t": 317019.18850000267,
      "d": 450.7210937500349,
      "v": 127
    },
    {
      "midi": 36,
      "hit": false,
      "t": 317019.18850000267,
      "d": 498.79801041667815,
      "v": 119
    },
    {
      "midi": 67,
      "hit": false,
      "t": 317596.1115000027,
      "d": 709.1345208333223,
      "v": 127
    },
    {
      "midi": 60,
      "hit": false,
      "t": 317596.1115000027,
      "d": 727.1633645833354,
      "v": 127
    },
    {
      "midi": 64,
      "hit": false,
      "t": 317596.1115000027,
      "d": 757.2114375000237,
      "v": 127
    },
    {
      "midi": 40,
      "hit": false,
      "t": 317596.1115000027,
      "d": 841.346041666693,
      "v": 127
    },
    {
      "midi": 60,
      "hit": false,
      "t": 318461.4960000027,
      "d": 973.5575625000056,
      "v": 127
    },
    {
      "midi": 57,
      "hit": false,
      "t": 318461.4960000027,
      "d": 1045.6729374999995,
      "v": 127
    },
    {
      "midi": 67,
      "hit": false,
      "t": 318461.4960000027,
      "d": 1087.740239583305,
      "v": 119
    },
    {
      "midi": 65,
      "hit": false,
      "t": 318461.4960000027,
      "d": 1093.7498541666428,
      "v": 127
    },
    {
      "midi": 41,
      "hit": false,
      "t": 318461.4960000027,
      "d": 1135.8171562499483,
      "v": 127
    },
    {
      "midi": 59,
      "hit": false,
      "t": 319615.3420000027,
      "d": 979.5671770833433,
      "v": 127
    },
    {
      "midi": 67,
      "hit": false,
      "t": 319615.3420000027,
      "d": 1015.6248645833693,
      "v": 127
    },
    {
      "midi": 62,
      "hit": false,
      "t": 319615.3420000027,
      "d": 1033.6537083333824,
      "v": 127
    },
    {
      "midi": 65,
      "hit": false,
      "t": 319615.3420000027,
      "d": 1093.749854166701,
      "v": 127
    },
    {
      "midi": 43,
      "hit": false,
      "t": 319615.3420000027,
      "d": 1135.8171562500065,
      "v": 119
    },
    {
      "midi": 65,
      "hit": false,
      "t": 320769.1880000027,
      "d": 24.038458333350718,
      "v": 75
    },
    {
      "midi": 36,
      "hit": false,
      "t": 320769.1880000027,
      "d": 3605.7687499999884,
      "v": 127
    },
    {
      "midi": 60,
      "hit": false,
      "t": 320769.1880000027,
      "d": 3605.7687499999884,
      "v": 127
    },
    {
      "midi": 64,
      "hit": false,
      "t": 320769.1880000027,
      "d": 3611.778364583326,
      "v": 127
    },
    {
      "midi": 67,
      "hit": false,
      "t": 320769.1880000027,
      "d": 3617.7879791666637,
      "v": 127
    },
    {
      "midi": 36,
      "hit": false,
      "t": 324519.1875000027,
      "d": 312.4999583333265,
      "v": 127
    },
    {
      "midi": 64,
      "hit": false,
      "t": 324519.1875000027,
      "d": 330.52880208333954,
      "v": 127
    },
    {
      "midi": 60,
      "hit": false,
      "t": 324519.1875000027,
      "d": 342.5480312500149,
      "v": 127
    },
    {
      "midi": 67,
      "hit": false,
      "t": 324519.1875000027,
      "d": 348.5576458333526,
      "v": 127
    },
    {
      "midi": 57,
      "hit": false,
      "t": 325096.1105000027,
      "d": 1556.490177083353,
      "v": 127
    },
    {
      "midi": 38,
      "hit": false,
      "t": 325096.1105000027,
      "d": 1574.519020833366,
      "v": 127
    },
    {
      "midi": 66,
      "hit": false,
      "t": 325096.1105000027,
      "d": 1574.519020833366,
      "v": 127
    },
    {
      "midi": 62,
      "hit": false,
      "t": 325096.1105000027,
      "d": 1580.5286354167038,
      "v": 127
    },
    {
      "midi": 69,
      "hit": false,
      "t": 325096.1105000027,
      "d": 1598.5574791667168,
      "v": 127
    },
    {
      "midi": 69,
      "hit": false,
      "t": 326826.8795000027,
      "d": 330.52880208333954,
      "v": 127
    },
    {
      "midi": 57,
      "hit": false,
      "t": 326826.8795000027,
      "d": 342.5480312500149,
      "v": 127
    },
    {
      "midi": 62,
      "hit": false,
      "t": 326826.8795000027,
      "d": 366.5864895833656,
      "v": 127
    },
    {
      "midi": 66,
      "hit": false,
      "t": 326826.8795000027,
      "d": 378.605718750041,
      "v": 127
    },
    {
      "midi": 42,
      "hit": false,
      "t": 326826.8795000027,
      "d": 408.6537916667294,
      "v": 127
    },
    {
      "midi": 67,
      "hit": false,
      "t": 327403.8025000028,
      "d": 246.39419791667024,
      "v": 127
    },
    {
      "midi": 62,
      "hit": false,
      "t": 327403.8025000028,
      "d": 270.43265625002095,
      "v": 127
    },
    {
      "midi": 59,
      "hit": false,
      "t": 327403.8025000028,
      "d": 318.5095729166642,
      "v": 127
    },
    {
      "midi": 43,
      "hit": false,
      "t": 327403.8025000028,
      "d": 558.8941562499967,
      "v": 127
    },
    {
      "midi": 67,
      "hit": false,
      "t": 327980.7255000028,
      "d": 252.40381250000792,
      "v": 127
    },
    {
      "midi": 71,
      "hit": false,
      "t": 327980.7255000028,
      "d": 270.43265625002095,
      "v": 127
    },
    {
      "midi": 62,
      "hit": false,
      "t": 327980.7255000028,
      "d": 408.65379166667117,
      "v": 127
    },
    {
      "midi": 47,
      "hit": false,
      "t": 327980.7255000028,
      "d": 546.8749270833214,
      "v": 127
    },
    {
      "midi": 64,
      "hit": false,
      "t": 328557.6485000028,
      "d": 378.60571874998277,
      "v": 127
    },
    {
      "midi": 67,
      "hit": false,
      "t": 328557.6485000028,
      "d": 384.61533333332045,
      "v": 127
    },
    {
      "midi": 72,
      "hit": false,
      "t": 328557.6485000028,
      "d": 396.6345624999958,
      "v": 127
    },
    {
      "midi": 36,
      "hit": false,
      "t": 328557.6485000028,
      "d": 426.6826354166842,
      "v": 119
    },
    {
      "midi": 64,
      "hit": false,
      "t": 329134.5715000028,
      "d": 709.1345208333223,
      "v": 119
    },
    {
      "midi": 67,
      "hit": false,
      "t": 329134.5715000028,
      "d": 727.1633645833354,
      "v": 127
    },
    {
      "midi": 72,
      "hit": false,
      "t": 329134.5715000028,
      "d": 757.2114375000237,
      "v": 127
    },
    {
      "midi": 40,
      "hit": false,
      "t": 329134.5715000028,
      "d": 847.3556562500307,
      "v": 127
    },
    {
      "midi": 69,
      "hit": false,
      "t": 329999.95600000286,
      "d": 961.5383333333302,
      "v": 127
    },
    {
      "midi": 65,
      "hit": false,
      "t": 329999.95600000286,
      "d": 991.5864062500186,
      "v": 127
    },
    {
      "midi": 72,
      "hit": false,
      "t": 329999.95600000286,
      "d": 1021.634479166707,
      "v": 127
    },
    {
      "midi": 41,
      "hit": false,
      "t": 329999.95600000286,
      "d": 1129.807541666727,
      "v": 119
    },
    {
      "midi": 65,
      "hit": false,
      "t": 331153.80200000294,
      "d": 1039.6633229166619,
      "v": 127
    },
    {
      "midi": 67,
      "hit": false,
      "t": 331153.80200000294,
      "d": 1057.692166666675,
      "v": 127
    },
    {
      "midi": 71,
      "hit": false,
      "t": 331153.80200000294,
      "d": 1069.7113958333503,
      "v": 127
    },
    {
      "midi": 43,
      "hit": false,
      "t": 331153.80200000294,
      "d": 1147.8363854166819,
      "v": 127
    },
    {
      "midi": 67,
      "hit": false,
      "t": 332307.64800000296,
      "d": 3473.557229166676,
      "v": 127
    },
    {
      "midi": 72,
      "hit": false,
      "t": 332307.64800000296,
      "d": 3473.557229166676,
      "v": 127
    },
    {
      "midi": 36,
      "hit": false,
      "t": 332307.64800000296,
      "d": 3485.576458333351,
      "v": 119
    },
    {
      "midi": 64,
      "hit": false,
      "t": 332307.64800000296,
      "d": 3485.576458333351,
      "v": 127
    }
  ]
}