{
  "jsonPath": "Unknown/Unknown/Neil Young with The Stray Gators/are-you-ready-for-the-country.json",
  "path": "Unknown\\Unknown\\Neil Young with The Stray Gators\\Are You Ready For The Country.mid",
  "name": "Are You Ready For The Country",
  "difficulty": "Advanced",
  "bpm": 93.000186000372,
  "notes": [
    {
      "midi": 69,
      "hit": false,
      "t": 2580.64,
      "d": 215.05333333333328,
      "v": 79
    },
    {
      "midi": 73,
      "hit": false,
      "t": 2580.64,
      "d": 215.05333333333328,
      "v": 79
    },
    {
      "midi": 76,
      "hit": false,
      "t": 2580.64,
      "d": 215.05333333333328,
      "v": 79
    },
    {
      "midi": 45,
      "hit": false,
      "t": 2580.64,
      "d": 430.10666666666657,
      "v": 79
    },
    {
      "midi": 52,
      "hit": false,
      "t": 2580.64,
      "d": 430.10666666666657,
      "v": 79
    },
    {
      "midi": 69,
      "hit": false,
      "t": 2903.22,
      "d": 215.05333333333328,
      "v": 79
    },
    {
      "midi": 73,
      "hit": false,
      "t": 2903.22,
      "d": 215.05333333333328,
      "v": 79
    },
    {
      "midi": 76,
      "hit": false,
      "t": 2903.22,
      "d": 215.05333333333328,
      "v": 79
    },
    {
      "midi": 69,
      "hit": false,
      "t": 3225.7999999999997,
      "d": 215.05333333333328,
      "v": 79
    },
    {
      "midi": 73,
      "hit": false,
      "t": 3225.7999999999997,
      "d": 215.05333333333328,
      "v": 79
    },
    {
      "midi": 76,
      "hit": false,
      "t": 3225.7999999999997,
      "d": 215.05333333333328,
      "v": 79
    },
    {
      "midi": 45,
      "hit": false,
      "t": 3225.7999999999997,
      "d": 430.10666666666657,
      "v": 79
    },
    {
      "midi": 52,
      "hit": false,
      "t": 3225.7999999999997,
      "d": 430.10666666666657,
      "v": 79
    },
    {
      "midi": 69,
      "hit": false,
      "t": 3548.3799999999997,
      "d": 215.05333333333328,
      "v": 79
    },
    {
      "midi": 73,
      "hit": false,
      "t": 3548.3799999999997,
      "d": 215.05333333333328,
      "v": 79
    },
    {
      "midi": 76,
      "hit": false,
      "t": 3548.3799999999997,
      "d": 215.05333333333328,
      "v": 79
    },
    {
      "midi": 69,
      "hit": false,
      "t": 3870.9599999999996,
      "d": 215.05333333333328,
      "v": 79
    },
    {
      "midi": 73,
      "hit": false,
      "t": 3870.9599999999996,
      "d": 215.05333333333328,
      "v": 79
    },
    {
      "midi": 76,
      "hit": false,
      "t": 3870.9599999999996,
      "d": 215.05333333333328,
      "v": 79
    },
    {
      "midi": 45,
      "hit": false,
      "t": 3870.9599999999996,
      "d": 430.106666666667,
      "v": 79
    },
    {
      "midi": 52,
      "hit": false,
      "t": 3870.9599999999996,
      "d": 430.106666666667,
      "v": 79
    },
    {
      "midi": 69,
      "hit": false,
      "t": 4193.54,
      "d": 215.05333333333328,
      "v": 79
    },
    {
      "midi": 73,
      "hit": false,
      "t": 4193.54,
      "d": 215.05333333333328,
      "v": 79
    },
    {
      "midi": 76,
      "hit": false,
      "t": 4193.54,
      "d": 215.05333333333328,
      "v": 79
    },
    {
      "midi": 45,
      "hit": false,
      "t": 4516.12,
      "d": 215.05333333333328,
      "v": 79
    },
    {
      "midi": 52,
      "hit": false,
      "t": 4516.12,
      "d": 215.05333333333328,
      "v": 79
    },
    {
      "midi": 69,
      "hit": false,
      "t": 4516.12,
      "d": 215.05333333333328,
      "v": 79
    },
    {
      "midi": 73,
      "hit": false,
      "t": 4516.12,
      "d": 215.05333333333328,
      "v": 79
    },
    {
      "midi": 76,
      "hit": false,
      "t": 4516.12,
      "d": 215.05333333333328,
      "v": 79
    },
    {
      "midi": 67,
      "hit": false,
      "t": 4838.7,
      "d": 215.05333333333328,
      "v": 79
    },
    {
      "midi": 67,
      "hit": false,
      "t": 5161.28,
      "d": 215.05333333333328,
      "v": 79
    },
    {
      "midi": 74,
      "hit": false,
      "t": 5161.28,
      "d": 215.05333333333328,
      "v": 79
    },
    {
      "midi": 77,
      "hit": false,
      "t": 5161.28,
      "d": 215.05333333333328,
      "v": 79
    },
    {
      "midi": 43,
      "hit": false,
      "t": 5161.28,
      "d": 430.10666666666657,
      "v": 79
    },
    {
      "midi": 50,
      "hit": false,
      "t": 5161.28,
      "d": 430.10666666666657,
      "v": 79
    },
    {
      "midi": 67,
      "hit": false,
      "t": 5483.86,
      "d": 215.05333333333328,
      "v": 79
    },
    {
      "midi": 76,
      "hit": false,
      "t": 5483.86,
      "d": 215.05333333333328,
      "v": 79
    },
    {
      "midi": 67,
      "hit": false,
      "t": 5806.44,
      "d": 215.05333333333328,
      "v": 79
    },
    {
      "midi": 74,
      "hit": false,
      "t": 5806.44,
      "d": 215.05333333333328,
      "v": 79
    },
    {
      "midi": 43,
      "hit": false,
      "t": 5806.44,
      "d": 430.10666666666657,
      "v": 79
    },
    {
      "midi": 50,
      "hit": false,
      "t": 5806.44,
      "d": 430.10666666666657,
      "v": 79
    },
    {
      "midi": 67,
      "hit": false,
      "t": 6129.0199999999995,
      "d": 215.05333333333328,
      "v": 79
    },
    {
      "midi": 71,
      "hit": false,
      "t": 6129.0199999999995,
      "d": 215.05333333333328,
      "v": 79
    },
    {
      "midi": 74,
      "hit": false,
      "t": 6129.0199999999995,
      "d": 215.05333333333328,
      "v": 79
    },
    {
      "midi": 65,
      "hit": false,
      "t": 6451.599999999999,
      "d": 215.05333333333328,
      "v": 79
    },
    {
      "midi": 69,
      "hit": false,
      "t": 6451.599999999999,
      "d": 215.05333333333328,
      "v": 79
    },
    {
      "midi": 72,
      "hit": false,
      "t": 6451.599999999999,
      "d": 215.05333333333328,
      "v": 79
    },
    {
      "midi": 41,
      "hit": false,
      "t": 6451.599999999999,
      "d": 430.10666666666657,
      "v": 79
    },
    {
      "midi": 48,
      "hit": false,
      "t": 6451.599999999999,
      "d": 430.10666666666657,
      "v": 79
    },
    {
      "midi": 65,
      "hit": false,
      "t": 6774.179999999999,
      "d": 215.05333333333328,
      "v": 79
    },
    {
      "midi": 41,
      "hit": false,
      "t": 7096.759999999999,
      "d": 215.05333333333328,
      "v": 79
    },
    {
      "midi": 48,
      "hit": false,
      "t": 7096.759999999999,
      "d": 215.05333333333328,
      "v": 79
    },
    {
      "midi": 65,
      "hit": false,
      "t": 7096.759999999999,
      "d": 215.05333333333328,
      "v": 79
    },
    {
      "midi": 69,
      "hit": false,
      "t": 7096.759999999999,
      "d": 215.05333333333328,
      "v": 79
    },
    {
      "midi": 72,
      "hit": false,
      "t": 7096.759999999999,
      "d": 215.05333333333328,
      "v": 79
    },
    {
      "midi": 50,
      "hit": false,
      "t": 7419.339999999999,
      "d": 215.05333333333328,
      "v": 79
    },
    {
      "midi": 54,
      "hit": false,
      "t": 7419.339999999999,
      "d": 215.05333333333328,
      "v": 79
    },
    {
      "midi": 57,
      "hit": false,
      "t": 7419.339999999999,
      "d": 215.05333333333328,
      "v": 79
    },
    {
      "midi": 38,
      "hit": false,
      "t": 7741.919999999999,
      "d": 215.05333333333328,
      "v": 79
    },
    {
      "midi": 48,
      "hit": false,
      "t": 7741.919999999999,
      "d": 215.05333333333328,
      "v": 79
    },
    {
      "midi": 50,
      "hit": false,
      "t": 8064.499999999999,
      "d": 107.52666666666664,
      "v": 79
    },
    {
      "midi": 57,
      "hit": false,
      "t": 8064.499999999999,
      "d": 107.52666666666664,
      "v": 79
    },
    {
      "midi": 60,
      "hit": false,
      "t": 8064.499999999999,
      "d": 107.52666666666664,
      "v": 79
    },
    {
      "midi": 50,
      "hit": false,
      "t": 8387.08,
      "d": 215.05333333333328,
      "v": 79
    },
    {
      "midi": 55,
      "hit": false,
      "t": 8387.08,
      "d": 215.05333333333328,
      "v": 79
    },
    {
      "midi": 59,
      "hit": false,
      "t": 8387.08,
      "d": 215.05333333333328,
      "v": 79
    },
    {
      "midi": 33,
      "hit": false,
      "t": 8387.08,
      "d": 430.10666666666657,
      "v": 79
    },
    {
      "midi": 45,
      "hit": false,
      "t": 8387.08,
      "d": 430.10666666666657,
      "v": 79
    },
    {
      "midi": 50,
      "hit": false,
      "t": 8709.66,
      "d": 107.52666666666664,
      "v": 79
    },
    {
      "midi": 54,
      "hit": false,
      "t": 8709.66,
      "d": 107.52666666666664,
      "v": 79
    },
    {
      "midi": 57,
      "hit": false,
      "t": 8709.66,
      "d": 107.52666666666664,
      "v": 79
    },
    {
      "midi": 54,
      "hit": false,
      "t": 8870.95,
      "d": 376.34333333333416,
      "v": 79
    },
    {
      "midi": 57,
      "hit": false,
      "t": 8870.95,
      "d": 376.34333333333416,
      "v": 79
    },
    {
      "midi": 62,
      "hit": false,
      "t": 8870.95,
      "d": 376.34333333333416,
      "v": 79
    },
    {
      "midi": 38,
      "hit": false,
      "t": 9032.240000000002,
      "d": 215.05333333333328,
      "v": 79
    },
    {
      "midi": 45,
      "hit": false,
      "t": 9032.240000000002,
      "d": 215.05333333333328,
      "v": 79
    },
    {
      "midi": 50,
      "hit": false,
      "t": 9354.820000000002,
      "d": 107.52666666666664,
      "v": 79
    },
    {
      "midi": 57,
      "hit": false,
      "t": 9354.820000000002,
      "d": 107.52666666666664,
      "v": 79
    },
    {
      "midi": 60,
      "hit": false,
      "t": 9354.820000000002,
      "d": 107.52666666666664,
      "v": 79
    },
    {
      "midi": 50,
      "hit": false,
      "t": 9677.400000000001,
      "d": 215.05333333333328,
      "v": 79
    },
    {
      "midi": 59,
      "hit": false,
      "t": 9677.400000000001,
      "d": 215.05333333333328,
      "v": 79
    },
    {
      "midi": 33,
      "hit": false,
      "t": 9677.400000000001,
      "d": 430.10666666666657,
      "v": 79
    },
    {
      "midi": 45,
      "hit": false,
      "t": 9677.400000000001,
      "d": 430.10666666666657,
      "v": 79
    },
    {
      "midi": 50,
      "hit": false,
      "t": 9999.980000000001,
      "d": 537.6333333333332,
      "v": 79
    },
    {
      "midi": 54,
      "hit": false,
      "t": 9999.980000000001,
      "d": 537.6333333333332,
      "v": 79
    },
    {
      "midi": 57,
      "hit": false,
      "t": 9999.980000000001,
      "d": 537.6333333333332,
      "v": 79
    },
    {
      "midi": 38,
      "hit": false,
      "t": 10322.560000000001,
      "d": 215.05333333333328,
      "v": 79
    },
    {
      "midi": 45,
      "hit": false,
      "t": 10322.560000000001,
      "d": 215.05333333333328,
      "v": 79
    },
    {
      "midi": 50,
      "hit": false,
      "t": 10645.140000000001,
      "d": 107.52666666666664,
      "v": 79
    },
    {
      "midi": 55,
      "hit": false,
      "t": 10645.140000000001,
      "d": 107.52666666666664,
      "v": 79
    },
    {
      "midi": 60,
      "hit": false,
      "t": 10645.140000000001,
      "d": 107.52666666666664,
      "v": 79
    },
    {
      "midi": 57,
      "hit": false,
      "t": 10806.430000000002,
      "d": 107.52666666666664,
      "v": 79
    },
    {
      "midi": 50,
      "hit": false,
      "t": 10967.720000000003,
      "d": 215.05333333333328,
      "v": 79
    },
    {
      "midi": 55,
      "hit": false,
      "t": 10967.720000000003,
      "d": 215.05333333333328,
      "v": 79
    },
    {
      "midi": 59,
      "hit": false,
      "t": 10967.720000000003,
      "d": 215.05333333333328,
      "v": 79
    },
    {
      "midi": 33,
      "hit": false,
      "t": 10967.720000000003,
      "d": 430.10666666666657,
      "v": 79
    },
    {
      "midi": 45,
      "hit": false,
      "t": 10967.720000000003,
      "d": 430.10666666666657,
      "v": 79
    },
    {
      "midi": 50,
      "hit": false,
      "t": 11290.300000000003,
      "d": 107.52666666666664,
      "v": 79
    },
    {
      "midi": 54,
      "hit": false,
      "t": 11290.300000000003,
      "d": 107.52666666666664,
      "v": 79
    },
    {
      "midi": 57,
      "hit": false,
      "t": 11290.300000000003,
      "d": 107.52666666666664,
      "v": 79
    },
    {
      "midi": 50,
      "hit": false,
      "t": 11451.590000000004,
      "d": 107.52666666666664,
      "v": 79
    },
    {
      "midi": 54,
      "hit": false,
      "t": 11451.590000000004,
      "d": 107.52666666666664,
      "v": 79
    },
    {
      "midi": 57,
      "hit": false,
      "t": 11451.590000000004,
      "d": 107.52666666666664,
      "v": 79
    },
    {
      "midi": 38,
      "hit": false,
      "t": 11612.880000000005,
      "d": 215.05333333333328,
      "v": 79
    },
    {
      "midi": 45,
      "hit": false,
      "t": 11612.880000000005,
      "d": 215.05333333333328,
      "v": 79
    },
    {
      "midi": 50,
      "hit": false,
      "t": 11935.460000000005,
      "d": 537.6333333333332,
      "v": 79
    },
    {
      "midi": 54,
      "hit": false,
      "t": 11935.460000000005,
      "d": 537.6333333333332,
      "v": 79
    },
    {
      "midi": 57,
      "hit": false,
      "t": 11935.460000000005,
      "d": 537.6333333333332,
      "v": 79
    },
    {
      "midi": 38,
      "hit": false,
      "t": 12258.040000000005,
      "d": 430.10666666666657,
      "v": 79
    },
    {
      "midi": 45,
      "hit": false,
      "t": 12258.040000000005,
      "d": 430.10666666666657,
      "v": 79
    },
    {
      "midi": 50,
      "hit": false,
      "t": 12580.620000000004,
      "d": 215.05333333333328,
      "v": 79
    },
    {
      "midi": 54,
      "hit": false,
      "t": 12580.620000000004,
      "d": 215.05333333333328,
      "v": 79
    },
    {
      "midi": 57,
      "hit": false,
      "t": 12580.620000000004,
      "d": 215.05333333333328,
      "v": 79
    },
    {
      "midi": 43,
      "hit": false,
      "t": 12903.200000000004,
      "d": 430.10666666666657,
      "v": 79
    },
    {
      "midi": 50,
      "hit": false,
      "t": 12903.200000000004,
      "d": 430.10666666666657,
      "v": 79
    },
    {
      "midi": 55,
      "hit": false,
      "t": 13225.780000000004,
      "d": 537.6333333333332,
      "v": 79
    },
    {
      "midi": 59,
      "hit": false,
      "t": 13225.780000000004,
      "d": 537.6333333333332,
      "v": 79
    },
    {
      "midi": 62,
      "hit": false,
      "t": 13225.780000000004,
      "d": 537.6333333333332,
      "v": 79
    },
    {
      "midi": 43,
      "hit": false,
      "t": 13548.360000000004,
      "d": 430.10666666666657,
      "v": 79
    },
    {
      "midi": 52,
      "hit": false,
      "t": 13548.360000000004,
      "d": 430.10666666666657,
      "v": 79
    },
    {
      "midi": 55,
      "hit": false,
      "t": 13870.940000000004,
      "d": 537.6333333333332,
      "v": 79
    },
    {
      "midi": 59,
      "hit": false,
      "t": 13870.940000000004,
      "d": 537.6333333333332,
      "v": 79
    },
    {
      "midi": 62,
      "hit": false,
      "t": 13870.940000000004,
      "d": 537.6333333333332,
      "v": 79
    },
    {
      "midi": 43,
      "hit": false,
      "t": 14193.520000000004,
      "d": 430.10666666666657,
      "v": 79
    },
    {
      "midi": 50,
      "hit": false,
      "t": 14193.520000000004,
      "d": 430.10666666666657,
      "v": 79
    },
    {
      "midi": 55,
      "hit": false,
      "t": 14516.100000000004,
      "d": 537.6333333333332,
      "v": 79
    },
    {
      "midi": 59,
      "hit": false,
      "t": 14516.100000000004,
      "d": 537.6333333333332,
      "v": 79
    },
    {
      "midi": 62,
      "hit": false,
      "t": 14516.100000000004,
      "d": 537.6333333333332,
      "v": 79
    },
    {
      "midi": 43,
      "hit": false,
      "t": 14838.680000000004,
      "d": 430.10666666666657,
      "v": 79
    },
    {
      "midi": 52,
      "hit": false,
      "t": 14838.680000000004,
      "d": 430.10666666666657,
      "v": 79
    },
    {
      "midi": 55,
      "hit": false,
      "t": 15161.260000000004,
      "d": 215.05333333333328,
      "v": 79
    },
    {
      "midi": 59,
      "hit": false,
      "t": 15161.260000000004,
      "d": 215.05333333333328,
      "v": 79
    },
    {
      "midi": 62,
      "hit": false,
      "t": 15161.260000000004,
      "d": 215.05333333333328,
      "v": 79
    },
    {
      "midi": 55,
      "hit": false,
      "t": 15483.840000000004,
      "d": 215.05333333333328,
      "v": 79
    },
    {
      "midi": 59,
      "hit": false,
      "t": 15483.840000000004,
      "d": 215.05333333333328,
      "v": 79
    },
    {
      "midi": 62,
      "hit": false,
      "t": 15483.840000000004,
      "d": 215.05333333333328,
      "v": 79
    },
    {
      "midi": 43,
      "hit": false,
      "t": 15483.840000000004,
      "d": 430.10666666666657,
      "v": 79
    },
    {
      "midi": 50,
      "hit": false,
      "t": 15483.840000000004,
      "d": 430.10666666666657,
      "v": 79
    },
    {
      "midi": 55,
      "hit": false,
      "t": 15806.420000000004,
      "d": 537.6333333333332,
      "v": 79
    },
    {
      "midi": 59,
      "hit": false,
      "t": 15806.420000000004,
      "d": 537.6333333333332,
      "v": 79
    },
    {
      "midi": 62,
      "hit": false,
      "t": 15806.420000000004,
      "d": 537.6333333333332,
      "v": 79
    },
    {
      "midi": 43,
      "hit": false,
      "t": 16129.000000000004,
      "d": 430.1066666666702,
      "v": 79
    },
    {
      "midi": 50,
      "hit": false,
      "t": 16129.000000000004,
      "d": 430.1066666666702,
      "v": 79
    },
    {
      "midi": 55,
      "hit": false,
      "t": 16451.580000000005,
      "d": 215.05333333333692,
      "v": 79
    },
    {
      "midi": 59,
      "hit": false,
      "t": 16451.580000000005,
      "d": 215.05333333333692,
      "v": 79
    },
    {
      "midi": 62,
      "hit": false,
      "t": 16451.580000000005,
      "d": 215.05333333333692,
      "v": 79
    },
    {
      "midi": 53,
      "hit": false,
      "t": 16774.16000000001,
      "d": 215.05333333333328,
      "v": 79
    },
    {
      "midi": 57,
      "hit": false,
      "t": 16774.16000000001,
      "d": 215.05333333333328,
      "v": 79
    },
    {
      "midi": 60,
      "hit": false,
      "t": 16774.16000000001,
      "d": 215.05333333333328,
      "v": 79
    },
    {
      "midi": 41,
      "hit": false,
      "t": 16774.16000000001,
      "d": 430.1066666666702,
      "v": 79
    },
    {
      "midi": 48,
      "hit": false,
      "t": 16774.16000000001,
      "d": 430.1066666666702,
      "v": 79
    },
    {
      "midi": 53,
      "hit": false,
      "t": 17096.740000000013,
      "d": 215.05333333333692,
      "v": 79
    },
    {
      "midi": 57,
      "hit": false,
      "t": 17096.740000000013,
      "d": 215.05333333333692,
      "v": 79
    },
    {
      "midi": 60,
      "hit": false,
      "t": 17096.740000000013,
      "d": 215.05333333333692,
      "v": 79
    },
    {
      "midi": 41,
      "hit": false,
      "t": 17419.320000000018,
      "d": 215.05333333333328,
      "v": 79
    },
    {
      "midi": 48,
      "hit": false,
      "t": 17419.320000000018,
      "d": 215.05333333333328,
      "v": 79
    },
    {
      "midi": 50,
      "hit": false,
      "t": 17741.90000000002,
      "d": 645.1600000000035,
      "v": 79
    },
    {
      "midi": 38,
      "hit": false,
      "t": 18064.48000000002,
      "d": 430.1066666666702,
      "v": 79
    },
    {
      "midi": 50,
      "hit": false,
      "t": 18387.060000000023,
      "d": 215.05333333333692,
      "v": 79
    },
    {
      "midi": 57,
      "hit": false,
      "t": 18387.060000000023,
      "d": 215.05333333333692,
      "v": 79
    },
    {
      "midi": 60,
      "hit": false,
      "t": 18387.060000000023,
      "d": 215.05333333333692,
      "v": 79
    },
    {
      "midi": 52,
      "hit": false,
      "t": 18709.64000000003,
      "d": 215.05333333333328,
      "v": 79
    },
    {
      "midi": 55,
      "hit": false,
      "t": 18709.64000000003,
      "d": 215.05333333333328,
      "v": 79
    },
    {
      "midi": 59,
      "hit": false,
      "t": 18709.64000000003,
      "d": 215.05333333333328,
      "v": 79
    },
    {
      "midi": 33,
      "hit": false,
      "t": 18709.64000000003,
      "d": 430.1066666666702,
      "v": 79
    },
    {
      "midi": 45,
      "hit": false,
      "t": 18709.64000000003,
      "d": 430.1066666666702,
      "v": 79
    },
    {
      "midi": 50,
      "hit": false,
      "t": 19032.22000000003,
      "d": 107.52666666666846,
      "v": 79
    },
    {
      "midi": 54,
      "hit": false,
      "t": 19032.22000000003,
      "d": 107.52666666666846,
      "v": 79
    },
    {
      "midi": 57,
      "hit": false,
      "t": 19032.22000000003,
      "d": 107.52666666666846,
      "v": 79
    },
    {
      "midi": 50,
      "hit": false,
      "t": 19193.51000000003,
      "d": 376.34333333333416,
      "v": 79
    },
    {
      "midi": 54,
      "hit": false,
      "t": 19193.51000000003,
      "d": 376.34333333333416,
      "v": 79
    },
    {
      "midi": 57,
      "hit": false,
      "t": 19193.51000000003,
      "d": 376.34333333333416,
      "v": 79
    },
    {
      "midi": 38,
      "hit": false,
      "t": 19354.800000000032,
      "d": 430.1066666666702,
      "v": 79
    },
    {
      "midi": 45,
      "hit": false,
      "t": 19354.800000000032,
      "d": 430.1066666666702,
      "v": 79
    },
    {
      "midi": 50,
      "hit": false,
      "t": 19677.380000000034,
      "d": 215.05333333333692,
      "v": 79
    },
    {
      "midi": 57,
      "hit": false,
      "t": 19677.380000000034,
      "d": 215.05333333333692,
      "v": 79
    },
    {
      "midi": 60,
      "hit": false,
      "t": 19677.380000000034,
      "d": 215.05333333333692,
      "v": 79
    },
    {
      "midi": 50,
      "hit": false,
      "t": 19999.96000000004,
      "d": 215.05333333333328,
      "v": 79
    },
    {
      "midi": 57,
      "hit": false,
      "t": 19999.96000000004,
      "d": 215.05333333333328,
      "v": 79
    },
    {
      "midi": 59,
      "hit": false,
      "t": 19999.96000000004,
      "d": 215.05333333333328,
      "v": 79
    },
    {
      "midi": 33,
      "hit": false,
      "t": 19999.96000000004,
      "d": 430.1066666666702,
      "v": 79
    },
    {
      "midi": 45,
      "hit": false,
      "t": 19999.96000000004,
      "d": 430.1066666666702,
      "v": 79
    },
    {
      "midi": 50,
      "hit": false,
      "t": 20322.54000000004,
      "d": 537.633333333335,
      "v": 79
    },
    {
      "midi": 54,
      "hit": false,
      "t": 20322.54000000004,
      "d": 537.633333333335,
      "v": 79
    },
    {
      "midi": 57,
      "hit": false,
      "t": 20322.54000000004,
      "d": 537.633333333335,
      "v": 79
    },
    {
      "midi": 38,
      "hit": false,
      "t": 20645.120000000043,
      "d": 430.1066666666702,
      "v": 79
    },
    {
      "midi": 45,
      "hit": false,
      "t": 20645.120000000043,
      "d": 430.1066666666702,
      "v": 79
    },
    {
      "midi": 50,
      "hit": false,
      "t": 20967.700000000044,
      "d": 215.05333333333692,
      "v": 79
    },
    {
      "midi": 54,
      "hit": false,
      "t": 20967.700000000044,
      "d": 215.05333333333692,
      "v": 79
    },
    {
      "midi": 59,
      "hit": false,
      "t": 20967.700000000044,
      "d": 215.05333333333692,
      "v": 79
    },
    {
      "midi": 50,
      "hit": false,
      "t": 21290.28000000005,
      "d": 215.05333333333328,
      "v": 79
    },
    {
      "midi": 57,
      "hit": false,
      "t": 21290.28000000005,
      "d": 215.05333333333328,
      "v": 79
    },
    {
      "midi": 33,
      "hit": false,
      "t": 21290.28000000005,
      "d": 430.1066666666702,
      "v": 79
    },
    {
      "midi": 45,
      "hit": false,
      "t": 21290.28000000005,
      "d": 430.1066666666702,
      "v": 79
    },
    {
      "midi": 50,
      "hit": false,
      "t": 21612.86000000005,
      "d": 107.52666666666846,
      "v": 79
    },
    {
      "midi": 54,
      "hit": false,
      "t": 21612.86000000005,
      "d": 107.52666666666846,
      "v": 79
    },
    {
      "midi": 57,
      "hit": false,
      "t": 21612.86000000005,
      "d": 107.52666666666846,
      "v": 79
    },
    {
      "midi": 50,
      "hit": false,
      "t": 21774.150000000052,
      "d": 376.34333333333416,
      "v": 79
    },
    {
      "midi": 54,
      "hit": false,
      "t": 21774.150000000052,
      "d": 376.34333333333416,
      "v": 79
    },
    {
      "midi": 57,
      "hit": false,
      "t": 21774.150000000052,
      "d": 376.34333333333416,
      "v": 79
    },
    {
      "midi": 38,
      "hit": false,
      "t": 21935.440000000053,
      "d": 430.1066666666702,
      "v": 79
    },
    {
      "midi": 45,
      "hit": false,
      "t": 21935.440000000053,
      "d": 430.1066666666702,
      "v": 79
    },
    {
      "midi": 50,
      "hit": false,
      "t": 22258.020000000055,
      "d": 537.633333333335,
      "v": 79
    },
    {
      "midi": 54,
      "hit": false,
      "t": 22258.020000000055,
      "d": 537.633333333335,
      "v": 79
    },
    {
      "midi": 57,
      "hit": false,
      "t": 22258.020000000055,
      "d": 537.633333333335,
      "v": 79
    },
    {
      "midi": 38,
      "hit": false,
      "t": 22580.600000000057,
      "d": 215.05333333333328,
      "v": 79
    },
    {
      "midi": 45,
      "hit": false,
      "t": 22580.600000000057,
      "d": 215.05333333333328,
      "v": 79
    },
    {
      "midi": 55,
      "hit": false,
      "t": 22903.18000000006,
      "d": 215.05333333333328,
      "v": 79
    },
    {
      "midi": 59,
      "hit": false,
      "t": 22903.18000000006,
      "d": 215.05333333333328,
      "v": 79
    },
    {
      "midi": 62,
      "hit": false,
      "t": 22903.18000000006,
      "d": 215.05333333333328,
      "v": 79
    },
    {
      "midi": 55,
      "hit": false,
      "t": 23225.76000000006,
      "d": 215.05333333333328,
      "v": 79
    },
    {
      "midi": 59,
      "hit": false,
      "t": 23225.76000000006,
      "d": 215.05333333333328,
      "v": 79
    },
    {
      "midi": 62,
      "hit": false,
      "t": 23225.76000000006,
      "d": 215.05333333333328,
      "v": 79
    },
    {
      "midi": 43,
      "hit": false,
      "t": 23225.76000000006,
      "d": 430.1066666666702,
      "v": 79
    },
    {
      "midi": 50,
      "hit": false,
      "t": 23225.76000000006,
      "d": 430.1066666666702,
      "v": 79
    },
    {
      "midi": 55,
      "hit": false,
      "t": 23548.340000000062,
      "d": 537.633333333335,
      "v": 79
    },
    {
      "midi": 59,
      "hit": false,
      "t": 23548.340000000062,
      "d": 537.633333333335,
      "v": 79
    },
    {
      "midi": 62,
      "hit": false,
      "t": 23548.340000000062,
      "d": 537.633333333335,
      "v": 79
    },
    {
      "midi": 43,
      "hit": false,
      "t": 23870.920000000064,
      "d": 430.1066666666702,
      "v": 79
    },
    {
      "midi": 52,
      "hit": false,
      "t": 23870.920000000064,
      "d": 430.1066666666702,
      "v": 79
    },
    {
      "midi": 55,
      "hit": false,
      "t": 24193.500000000065,
      "d": 537.633333333335,
      "v": 79
    },
    {
      "midi": 59,
      "hit": false,
      "t": 24193.500000000065,
      "d": 537.633333333335,
      "v": 79
    },
    {
      "midi": 62,
      "hit": false,
      "t": 24193.500000000065,
      "d": 537.633333333335,
      "v": 79
    },
    {
      "midi": 43,
      "hit": false,
      "t": 24516.080000000067,
      "d": 430.1066666666702,
      "v": 79
    },
    {
      "midi": 50,
      "hit": false,
      "t": 24516.080000000067,
      "d": 430.1066666666702,
      "v": 79
    },
    {
      "midi": 55,
      "hit": false,
      "t": 24838.66000000007,
      "d": 215.05333333333692,
      "v": 79
    },
    {
      "midi": 59,
      "hit": false,
      "t": 24838.66000000007,
      "d": 215.05333333333692,
      "v": 79
    },
    {
      "midi": 62,
      "hit": false,
      "t": 24838.66000000007,
      "d": 215.05333333333692,
      "v": 79
    },
    {
      "midi": 55,
      "hit": false,
      "t": 25161.240000000074,
      "d": 215.05333333333328,
      "v": 79
    },
    {
      "midi": 59,
      "hit": false,
      "t": 25161.240000000074,
      "d": 215.05333333333328,
      "v": 79
    },
    {
      "midi": 62,
      "hit": false,
      "t": 25161.240000000074,
      "d": 215.05333333333328,
      "v": 79
    },
    {
      "midi": 43,
      "hit": false,
      "t": 25161.240000000074,
      "d": 430.1066666666702,
      "v": 79
    },
    {
      "midi": 52,
      "hit": false,
      "t": 25161.240000000074,
      "d": 430.1066666666702,
      "v": 79
    },
    {
      "midi": 55,
      "hit": false,
      "t": 25483.820000000076,
      "d": 215.05333333333692,
      "v": 79
    },
    {
      "midi": 59,
      "hit": false,
      "t": 25483.820000000076,
      "d": 215.05333333333692,
      "v": 79
    },
    {
      "midi": 62,
      "hit": false,
      "t": 25483.820000000076,
      "d": 215.05333333333692,
      "v": 79
    },
    {
      "midi": 43,
      "hit": false,
      "t": 25806.40000000008,
      "d": 430.1066666666702,
      "v": 79
    },
    {
      "midi": 53,
      "hit": false,
      "t": 25806.40000000008,
      "d": 430.1066666666702,
      "v": 79
    },
    {
      "midi": 55,
      "hit": false,
      "t": 26128.980000000083,
      "d": 215.05333333333692,
      "v": 79
    },
    {
      "midi": 59,
      "hit": false,
      "t": 26128.980000000083,
      "d": 215.05333333333692,
      "v": 79
    },
    {
      "midi": 62,
      "hit": false,
      "t": 26128.980000000083,
      "d": 215.05333333333692,
      "v": 79
    },
    {
      "midi": 55,
      "hit": false,
      "t": 26451.56000000009,
      "d": 215.05333333333328,
      "v": 79
    },
    {
      "midi": 59,
      "hit": false,
      "t": 26451.56000000009,
      "d": 215.05333333333328,
      "v": 79
    },
    {
      "midi": 62,
      "hit": false,
      "t": 26451.56000000009,
      "d": 215.05333333333328,
      "v": 79
    },
    {
      "midi": 43,
      "hit": false,
      "t": 26451.56000000009,
      "d": 430.1066666666702,
      "v": 79
    },
    {
      "midi": 52,
      "hit": false,
      "t": 26451.56000000009,
      "d": 430.1066666666702,
      "v": 79
    },
    {
      "midi": 55,
      "hit": false,
      "t": 26774.14000000009,
      "d": 215.05333333333692,
      "v": 79
    },
    {
      "midi": 59,
      "hit": false,
      "t": 26774.14000000009,
      "d": 215.05333333333692,
      "v": 79
    },
    {
      "midi": 62,
      "hit": false,
      "t": 26774.14000000009,
      "d": 215.05333333333692,
      "v": 79
    },
    {
      "midi": 53,
      "hit": false,
      "t": 27096.720000000096,
      "d": 215.05333333333328,
      "v": 79
    },
    {
      "midi": 57,
      "hit": false,
      "t": 27096.720000000096,
      "d": 215.05333333333328,
      "v": 79
    },
    {
      "midi": 60,
      "hit": false,
      "t": 27096.720000000096,
      "d": 215.05333333333328,
      "v": 79
    },
    {
      "midi": 41,
      "hit": false,
      "t": 27096.720000000096,
      "d": 430.1066666666702,
      "v": 79
    },
    {
      "midi": 48,
      "hit": false,
      "t": 27096.720000000096,
      "d": 430.1066666666702,
      "v": 79
    },
    {
      "midi": 53,
      "hit": false,
      "t": 27419.300000000097,
      "d": 215.05333333333692,
      "v": 79
    },
    {
      "midi": 57,
      "hit": false,
      "t": 27419.300000000097,
      "d": 215.05333333333692,
      "v": 79
    },
    {
      "midi": 60,
      "hit": false,
      "t": 27419.300000000097,
      "d": 215.05333333333692,
      "v": 79
    },
    {
      "midi": 41,
      "hit": false,
      "t": 27741.880000000103,
      "d": 215.05333333333328,
      "v": 79
    },
    {
      "midi": 48,
      "hit": false,
      "t": 27741.880000000103,
      "d": 215.05333333333328,
      "v": 79
    },
    {
      "midi": 50,
      "hit": false,
      "t": 28064.460000000105,
      "d": 645.1600000000035,
      "v": 79
    },
    {
      "midi": 38,
      "hit": false,
      "t": 28387.040000000106,
      "d": 430.1066666666702,
      "v": 79
    },
    {
      "midi": 50,
      "hit": false,
      "t": 28709.620000000108,
      "d": 215.05333333333692,
      "v": 79
    },
    {
      "midi": 57,
      "hit": false,
      "t": 28709.620000000108,
      "d": 215.05333333333692,
      "v": 79
    },
    {
      "midi": 60,
      "hit": false,
      "t": 28709.620000000108,
      "d": 215.05333333333692,
      "v": 79
    },
    {
      "midi": 50,
      "hit": false,
      "t": 29032.200000000114,
      "d": 215.05333333333328,
      "v": 79
    },
    {
      "midi": 55,
      "hit": false,
      "t": 29032.200000000114,
      "d": 215.05333333333328,
      "v": 79
    },
    {
      "midi": 59,
      "hit": false,
      "t": 29032.200000000114,
      "d": 215.05333333333328,
      "v": 79
    },
    {
      "midi": 33,
      "hit": false,
      "t": 29032.200000000114,
      "d": 430.1066666666702,
      "v": 79
    },
    {
      "midi": 45,
      "hit": false,
      "t": 29032.200000000114,
      "d": 430.1066666666702,
      "v": 79
    },
    {
      "midi": 50,
      "hit": false,
      "t": 29354.780000000115,
      "d": 107.52666666666846,
      "v": 79
    },
    {
      "midi": 54,
      "hit": false,
      "t": 29354.780000000115,
      "d": 107.52666666666846,
      "v": 79
    },
    {
      "midi": 57,
      "hit": false,
      "t": 29354.780000000115,
      "d": 107.52666666666846,
      "v": 79
    },
    {
      "midi": 50,
      "hit": false,
      "t": 29516.070000000116,
      "d": 376.34333333333416,
      "v": 79
    },
    {
      "midi": 54,
      "hit": false,
      "t": 29516.070000000116,
      "d": 376.34333333333416,
      "v": 79
    },
    {
      "midi": 57,
      "hit": false,
      "t": 29516.070000000116,
      "d": 376.34333333333416,
      "v": 79
    },
    {
      "midi": 38,
      "hit": false,
      "t": 29677.360000000117,
      "d": 430.1066666666702,
      "v": 79
    },
    {
      "midi": 45,
      "hit": false,
      "t": 29677.360000000117,
      "d": 430.1066666666702,
      "v": 79
    },
    {
      "midi": 50,
      "hit": false,
      "t": 29999.94000000012,
      "d": 322.58000000000175,
      "v": 79
    },
    {
      "midi": 57,
      "hit": false,
      "t": 29999.94000000012,
      "d": 322.58000000000175,
      "v": 79
    },
    {
      "midi": 60,
      "hit": false,
      "t": 29999.94000000012,
      "d": 322.58000000000175,
      "v": 79
    },
    {
      "midi": 50,
      "hit": false,
      "t": 30322.52000000012,
      "d": 215.05333333333328,
      "v": 79
    },
    {
      "midi": 57,
      "hit": false,
      "t": 30322.52000000012,
      "d": 215.05333333333328,
      "v": 79
    },
    {
      "midi": 59,
      "hit": false,
      "t": 30322.52000000012,
      "d": 215.05333333333328,
      "v": 79
    },
    {
      "midi": 33,
      "hit": false,
      "t": 30322.52000000012,
      "d": 430.1066666666702,
      "v": 79
    },
    {
      "midi": 45,
      "hit": false,
      "t": 30322.52000000012,
      "d": 430.1066666666702,
      "v": 79
    },
    {
      "midi": 50,
      "hit": false,
      "t": 30645.100000000122,
      "d": 537.633333333335,
      "v": 79
    },
    {
      "midi": 54,
      "hit": false,
      "t": 30645.100000000122,
      "d": 537.633333333335,
      "v": 79
    },
    {
      "midi": 57,
      "hit": false,
      "t": 30645.100000000122,
      "d": 537.633333333335,
      "v": 79
    },
    {
      "midi": 38,
      "hit": false,
      "t": 30967.680000000124,
      "d": 430.1066666666702,
      "v": 79
    },
    {
      "midi": 45,
      "hit": false,
      "t": 30967.680000000124,
      "d": 430.1066666666702,
      "v": 79
    },
    {
      "midi": 50,
      "hit": false,
      "t": 31290.260000000126,
      "d": 215.05333333333692,
      "v": 79
    },
    {
      "midi": 57,
      "hit": false,
      "t": 31290.260000000126,
      "d": 215.05333333333692,
      "v": 79
    },
    {
      "midi": 60,
      "hit": false,
      "t": 31290.260000000126,
      "d": 215.05333333333692,
      "v": 79
    },
    {
      "midi": 50,
      "hit": false,
      "t": 31612.84000000013,
      "d": 215.05333333333328,
      "v": 79
    },
    {
      "midi": 55,
      "hit": false,
      "t": 31612.84000000013,
      "d": 215.05333333333328,
      "v": 79
    },
    {
      "midi": 59,
      "hit": false,
      "t": 31612.84000000013,
      "d": 215.05333333333328,
      "v": 79
    },
    {
      "midi": 33,
      "hit": false,
      "t": 31612.84000000013,
      "d": 430.1066666666702,
      "v": 79
    },
    {
      "midi": 45,
      "hit": false,
      "t": 31612.84000000013,
      "d": 430.1066666666702,
      "v": 79
    },
    {
      "midi": 50,
      "hit": false,
      "t": 31935.420000000133,
      "d": 107.52666666666846,
      "v": 79
    },
    {
      "midi": 54,
      "hit": false,
      "t": 31935.420000000133,
      "d": 107.52666666666846,
      "v": 79
    },
    {
      "midi": 57,
      "hit": false,
      "t": 31935.420000000133,
      "d": 107.52666666666846,
      "v": 79
    },
    {
      "midi": 50,
      "hit": false,
      "t": 32096.710000000134,
      "d": 376.34333333333416,
      "v": 79
    },
    {
      "midi": 54,
      "hit": false,
      "t": 32096.710000000134,
      "d": 376.34333333333416,
      "v": 79
    },
    {
      "midi": 57,
      "hit": false,
      "t": 32096.710000000134,
      "d": 376.34333333333416,
      "v": 79
    },
    {
      "midi": 38,
      "hit": false,
      "t": 32258.000000000135,
      "d": 430.1066666666702,
      "v": 79
    },
    {
      "midi": 45,
      "hit": false,
      "t": 32258.000000000135,
      "d": 430.1066666666702,
      "v": 79
    },
    {
      "midi": 50,
      "hit": false,
      "t": 32580.580000000136,
      "d": 215.05333333333328,
      "v": 79
    },
    {
      "midi": 57,
      "hit": false,
      "t": 32580.580000000136,
      "d": 215.05333333333328,
      "v": 79
    },
    {
      "midi": 60,
      "hit": false,
      "t": 32580.580000000136,
      "d": 215.05333333333328,
      "v": 79
    },
    {
      "midi": 38,
      "hit": false,
      "t": 32903.160000000134,
      "d": 215.05333333333692,
      "v": 79
    },
    {
      "midi": 45,
      "hit": false,
      "t": 32903.160000000134,
      "d": 215.05333333333692,
      "v": 79
    },
    {
      "midi": 50,
      "hit": false,
      "t": 32903.160000000134,
      "d": 215.05333333333692,
      "v": 79
    },
    {
      "midi": 55,
      "hit": false,
      "t": 32903.160000000134,
      "d": 215.05333333333692,
      "v": 79
    },
    {
      "midi": 59,
      "hit": false,
      "t": 32903.160000000134,
      "d": 215.05333333333692,
      "v": 79
    },
    {
      "midi": 50,
      "hit": false,
      "t": 33225.740000000136,
      "d": 215.05333333333692,
      "v": 79
    },
    {
      "midi": 54,
      "hit": false,
      "t": 33225.740000000136,
      "d": 215.05333333333692,
      "v": 79
    },
    {
      "midi": 57,
      "hit": false,
      "t": 33225.740000000136,
      "d": 215.05333333333692,
      "v": 79
    },
    {
      "midi": 57,
      "hit": false,
      "t": 33548.32000000014,
      "d": 215.05333333333692,
      "v": 79
    },
    {
      "midi": 61,
      "hit": false,
      "t": 33548.32000000014,
      "d": 215.05333333333692,
      "v": 79
    },
    {
      "midi": 64,
      "hit": false,
      "t": 33548.32000000014,
      "d": 215.05333333333692,
      "v": 79
    },
    {
      "midi": 45,
      "hit": false,
      "t": 33548.32000000014,
      "d": 430.10666666666657,
      "v": 79
    },
    {
      "midi": 52,
      "hit": false,
      "t": 33548.32000000014,
      "d": 430.10666666666657,
      "v": 79
    },
    {
      "midi": 57,
      "hit": false,
      "t": 33870.90000000014,
      "d": 215.05333333332965,
      "v": 79
    },
    {
      "midi": 61,
      "hit": false,
      "t": 33870.90000000014,
      "d": 215.05333333332965,
      "v": 79
    },
    {
      "midi": 64,
      "hit": false,
      "t": 33870.90000000014,
      "d": 215.05333333332965,
      "v": 79
    },
    {
      "midi": 57,
      "hit": false,
      "t": 34193.480000000134,
      "d": 215.05333333333692,
      "v": 79
    },
    {
      "midi": 61,
      "hit": false,
      "t": 34193.480000000134,
      "d": 215.05333333333692,
      "v": 79
    },
    {
      "midi": 64,
      "hit": false,
      "t": 34193.480000000134,
      "d": 215.05333333333692,
      "v": 79
    },
    {
      "midi": 45,
      "hit": false,
      "t": 34193.480000000134,
      "d": 430.10666666666657,
      "v": 79
    },
    {
      "midi": 52,
      "hit": false,
      "t": 34193.480000000134,
      "d": 430.10666666666657,
      "v": 79
    },
    {
      "midi": 57,
      "hit": false,
      "t": 34516.060000000136,
      "d": 215.05333333332965,
      "v": 79
    },
    {
      "midi": 61,
      "hit": false,
      "t": 34516.060000000136,
      "d": 215.05333333332965,
      "v": 79
    },
    {
      "midi": 64,
      "hit": false,
      "t": 34516.060000000136,
      "d": 215.05333333332965,
      "v": 79
    },
    {
      "midi": 57,
      "hit": false,
      "t": 34838.64000000013,
      "d": 215.05333333333692,
      "v": 79
    },
    {
      "midi": 61,
      "hit": false,
      "t": 34838.64000000013,
      "d": 215.05333333333692,
      "v": 79
    },
    {
      "midi": 64,
      "hit": false,
      "t": 34838.64000000013,
      "d": 215.05333333333692,
      "v": 79
    },
    {
      "midi": 45,
      "hit": false,
      "t": 34838.64000000013,
      "d": 430.10666666666657,
      "v": 79
    },
    {
      "midi": 52,
      "hit": false,
      "t": 34838.64000000013,
      "d": 430.10666666666657,
      "v": 79
    },
    {
      "midi": 57,
      "hit": false,
      "t": 35161.22000000013,
      "d": 215.05333333332965,
      "v": 79
    },
    {
      "midi": 61,
      "hit": false,
      "t": 35161.22000000013,
      "d": 215.05333333332965,
      "v": 79
    },
    {
      "midi": 64,
      "hit": false,
      "t": 35161.22000000013,
      "d": 215.05333333332965,
      "v": 79
    },
    {
      "midi": 45,
      "hit": false,
      "t": 35483.80000000013,
      "d": 215.05333333333692,
      "v": 79
    },
    {
      "midi": 52,
      "hit": false,
      "t": 35483.80000000013,
      "d": 215.05333333333692,
      "v": 79
    },
    {
      "midi": 57,
      "hit": false,
      "t": 35483.80000000013,
      "d": 215.05333333333692,
      "v": 79
    },
    {
      "midi": 61,
      "hit": false,
      "t": 35483.80000000013,
      "d": 215.05333333333692,
      "v": 79
    },
    {
      "midi": 64,
      "hit": false,
      "t": 35483.80000000013,
      "d": 215.05333333333692,
      "v": 79
    },
    {
      "midi": 52,
      "hit": false,
      "t": 35806.38000000013,
      "d": 215.05333333333692,
      "v": 79
    },
    {
      "midi": 55,
      "hit": false,
      "t": 35806.38000000013,
      "d": 215.05333333333692,
      "v": 79
    },
    {
      "midi": 59,
      "hit": false,
      "t": 35806.38000000013,
      "d": 215.05333333333692,
      "v": 79
    },
    {
      "midi": 55,
      "hit": false,
      "t": 36128.96000000013,
      "d": 215.05333333333692,
      "v": 79
    },
    {
      "midi": 59,
      "hit": false,
      "t": 36128.96000000013,
      "d": 215.05333333333692,
      "v": 79
    },
    {
      "midi": 62,
      "hit": false,
      "t": 36128.96000000013,
      "d": 215.05333333333692,
      "v": 79
    },
    {
      "midi": 43,
      "hit": false,
      "t": 36128.96000000013,
      "d": 430.10666666666657,
      "v": 79
    },
    {
      "midi": 50,
      "hit": false,
      "t": 36128.96000000013,
      "d": 430.10666666666657,
      "v": 79
    },
    {
      "midi": 55,
      "hit": false,
      "t": 36451.54000000013,
      "d": 215.05333333332965,
      "v": 79
    },
    {
      "midi": 59,
      "hit": false,
      "t": 36451.54000000013,
      "d": 215.05333333332965,
      "v": 79
    },
    {
      "midi": 62,
      "hit": false,
      "t": 36451.54000000013,
      "d": 215.05333333332965,
      "v": 79
    },
    {
      "midi": 55,
      "hit": false,
      "t": 36774.120000000126,
      "d": 215.05333333333692,
      "v": 79
    },
    {
      "midi": 59,
      "hit": false,
      "t": 36774.120000000126,
      "d": 215.05333333333692,
      "v": 79
    },
    {
      "midi": 62,
      "hit": false,
      "t": 36774.120000000126,
      "d": 215.05333333333692,
      "v": 79
    },
    {
      "midi": 43,
      "hit": false,
      "t": 36774.120000000126,
      "d": 430.10666666666657,
      "v": 79
    },
    {
      "midi": 50,
      "hit": false,
      "t": 36774.120000000126,
      "d": 430.10666666666657,
      "v": 79
    },
    {
      "midi": 55,
      "hit": false,
      "t": 37096.70000000013,
      "d": 215.05333333332965,
      "v": 79
    },
    {
      "midi": 59,
      "hit": false,
      "t": 37096.70000000013,
      "d": 215.05333333332965,
      "v": 79
    },
    {
      "midi": 62,
      "hit": false,
      "t": 37096.70000000013,
      "d": 215.05333333332965,
      "v": 79
    },
    {
      "midi": 53,
      "hit": false,
      "t": 37419.28000000012,
      "d": 215.05333333333692,
      "v": 79
    },
    {
      "midi": 57,
      "hit": false,
      "t": 37419.28000000012,
      "d": 215.05333333333692,
      "v": 79
    },
    {
      "midi": 60,
      "hit": false,
      "t": 37419.28000000012,
      "d": 215.05333333333692,
      "v": 79
    },
    {
      "midi": 41,
      "hit": false,
      "t": 37419.28000000012,
      "d": 430.10666666666657,
      "v": 79
    },
    {
      "midi": 48,
      "hit": false,
      "t": 37419.28000000012,
      "d": 430.10666666666657,
      "v": 79
    },
    {
      "midi": 53,
      "hit": false,
      "t": 37741.860000000124,
      "d": 215.05333333332965,
      "v": 79
    },
    {
      "midi": 57,
      "hit": false,
      "t": 37741.860000000124,
      "d": 215.05333333332965,
      "v": 79
    },
    {
      "midi": 60,
      "hit": false,
      "t": 37741.860000000124,
      "d": 215.05333333332965,
      "v": 79
    },
    {
      "midi": 41,
      "hit": false,
      "t": 38064.44000000012,
      "d": 215.05333333333692,
      "v": 79
    },
    {
      "midi": 48,
      "hit": false,
      "t": 38064.44000000012,
      "d": 215.05333333333692,
      "v": 79
    },
    {
      "midi": 53,
      "hit": false,
      "t": 38064.44000000012,
      "d": 215.05333333333692,
      "v": 79
    },
    {
      "midi": 57,
      "hit": false,
      "t": 38064.44000000012,
      "d": 215.05333333333692,
      "v": 79
    },
    {
      "midi": 60,
      "hit": false,
      "t": 38064.44000000012,
      "d": 215.05333333333692,
      "v": 79
    },
    {
      "midi": 53,
      "hit": false,
      "t": 38387.02000000012,
      "d": 215.05333333333692,
      "v": 79
    },
    {
      "midi": 58,
      "hit": false,
      "t": 38387.02000000012,
      "d": 215.05333333333692,
      "v": 79
    },
    {
      "midi": 60,
      "hit": false,
      "t": 38387.02000000012,
      "d": 215.05333333333692,
      "v": 79
    },
    {
      "midi": 50,
      "hit": false,
      "t": 38387.02000000012,
      "d": 645.1600000000035,
      "v": 79
    },
    {
      "midi": 38,
      "hit": false,
      "t": 38709.60000000012,
      "d": 430.10666666666657,
      "v": 79
    },
    {
      "midi": 50,
      "hit": false,
      "t": 39032.180000000124,
      "d": 215.05333333332965,
      "v": 79
    },
    {
      "midi": 57,
      "hit": false,
      "t": 39032.180000000124,
      "d": 215.05333333332965,
      "v": 79
    },
    {
      "midi": 60,
      "hit": false,
      "t": 39032.180000000124,
      "d": 215.05333333332965,
      "v": 79
    },
    {
      "midi": 50,
      "hit": false,
      "t": 39354.76000000012,
      "d": 215.05333333333692,
      "v": 79
    },
    {
      "midi": 55,
      "hit": false,
      "t": 39354.76000000012,
      "d": 215.05333333333692,
      "v": 79
    },
    {
      "midi": 59,
      "hit": false,
      "t": 39354.76000000012,
      "d": 215.05333333333692,
      "v": 79
    },
    {
      "midi": 33,
      "hit": false,
      "t": 39354.76000000012,
      "d": 430.10666666666657,
      "v": 79
    },
    {
      "midi": 45,
      "hit": false,
      "t": 39354.76000000012,
      "d": 430.10666666666657,
      "v": 79
    },
    {
      "midi": 50,
      "hit": false,
      "t": 39677.34000000012,
      "d": 107.52666666666482,
      "v": 79
    },
    {
      "midi": 54,
      "hit": false,
      "t": 39677.34000000012,
      "d": 107.52666666666482,
      "v": 79
    },
    {
      "midi": 57,
      "hit": false,
      "t": 39677.34000000012,
      "d": 107.52666666666482,
      "v": 79
    },
    {
      "midi": 50,
      "hit": false,
      "t": 39838.63000000012,
      "d": 376.3433333333378,
      "v": 79
    },
    {
      "midi": 54,
      "hit": false,
      "t": 39838.63000000012,
      "d": 376.3433333333378,
      "v": 79
    },
    {
      "midi": 57,
      "hit": false,
      "t": 39838.63000000012,
      "d": 376.3433333333378,
      "v": 79
    },
    {
      "midi": 38,
      "hit": false,
      "t": 39999.92000000012,
      "d": 430.10666666666657,
      "v": 79
    },
    {
      "midi": 45,
      "hit": false,
      "t": 39999.92000000012,
      "d": 430.10666666666657,
      "v": 79
    },
    {
      "midi": 50,
      "hit": false,
      "t": 40322.500000000124,
      "d": 215.05333333332965,
      "v": 79
    },
    {
      "midi": 57,
      "hit": false,
      "t": 40322.500000000124,
      "d": 215.05333333332965,
      "v": 79
    },
    {
      "midi": 60,
      "hit": false,
      "t": 40322.500000000124,
      "d": 215.05333333332965,
      "v": 79
    },
    {
      "midi": 50,
      "hit": false,
      "t": 40645.08000000012,
      "d": 215.05333333333692,
      "v": 79
    },
    {
      "midi": 57,
      "hit": false,
      "t": 40645.08000000012,
      "d": 215.05333333333692,
      "v": 79
    },
    {
      "midi": 59,
      "hit": false,
      "t": 40645.08000000012,
      "d": 215.05333333333692,
      "v": 79
    },
    {
      "midi": 33,
      "hit": false,
      "t": 40645.08000000012,
      "d": 430.10666666666657,
      "v": 79
    },
    {
      "midi": 45,
      "hit": false,
      "t": 40645.08000000012,
      "d": 430.10666666666657,
      "v": 79
    },
    {
      "midi": 50,
      "hit": false,
      "t": 40967.66000000012,
      "d": 537.6333333333387,
      "v": 79
    },
    {
      "midi": 54,
      "hit": false,
      "t": 40967.66000000012,
      "d": 537.6333333333387,
      "v": 79
    },
    {
      "midi": 57,
      "hit": false,
      "t": 40967.66000000012,
      "d": 537.6333333333387,
      "v": 79
    },
    {
      "midi": 38,
      "hit": false,
      "t": 41290.24000000012,
      "d": 430.10666666666657,
      "v": 79
    },
    {
      "midi": 45,
      "hit": false,
      "t": 41290.24000000012,
      "d": 430.10666666666657,
      "v": 79
    },
    {
      "midi": 50,
      "hit": false,
      "t": 41612.82000000012,
      "d": 215.05333333332965,
      "v": 79
    },
    {
      "midi": 57,
      "hit": false,
      "t": 41612.82000000012,
      "d": 215.05333333332965,
      "v": 79
    },
    {
      "midi": 60,
      "hit": false,
      "t": 41612.82000000012,
      "d": 215.05333333332965,
      "v": 79
    },
    {
      "midi": 50,
      "hit": false,
      "t": 41935.40000000012,
      "d": 215.05333333333692,
      "v": 79
    },
    {
      "midi": 55,
      "hit": false,
      "t": 41935.40000000012,
      "d": 215.05333333333692,
      "v": 79
    },
    {
      "midi": 59,
      "hit": false,
      "t": 41935.40000000012,
      "d": 215.05333333333692,
      "v": 79
    },
    {
      "midi": 33,
      "hit": false,
      "t": 41935.40000000012,
      "d": 430.10666666666657,
      "v": 79
    },
    {
      "midi": 45,
      "hit": false,
      "t": 41935.40000000012,
      "d": 430.10666666666657,
      "v": 79
    },
    {
      "midi": 50,
      "hit": false,
      "t": 42257.98000000012,
      "d": 537.6333333333387,
      "v": 79
    },
    {
      "midi": 54,
      "hit": false,
      "t": 42257.98000000012,
      "d": 537.6333333333387,
      "v": 79
    },
    {
      "midi": 57,
      "hit": false,
      "t": 42257.98000000012,
      "d": 537.6333333333387,
      "v": 79
    },
    {
      "midi": 38,
      "hit": false,
      "t": 42580.56000000012,
      "d": 430.10666666666657,
      "v": 79
    },
    {
      "midi": 45,
      "hit": false,
      "t": 42580.56000000012,
      "d": 430.10666666666657,
      "v": 79
    },
    {
      "midi": 50,
      "hit": false,
      "t": 42903.14000000012,
      "d": 752.6866666666683,
      "v": 79
    },
    {
      "midi": 54,
      "hit": false,
      "t": 42903.14000000012,
      "d": 752.6866666666683,
      "v": 79
    },
    {
      "midi": 57,
      "hit": false,
      "t": 42903.14000000012,
      "d": 752.6866666666683,
      "v": 79
    },
    {
      "midi": 38,
      "hit": false,
      "t": 43225.720000000125,
      "d": 430.10666666666657,
      "v": 79
    },
    {
      "midi": 45,
      "hit": false,
      "t": 43225.720000000125,
      "d": 430.10666666666657,
      "v": 79
    },
    {
      "midi": 67,
      "hit": false,
      "t": 43870.88000000013,
      "d": 215.05333333333692,
      "v": 79
    },
    {
      "midi": 71,
      "hit": false,
      "t": 43870.88000000013,
      "d": 215.05333333333692,
      "v": 79
    },
    {
      "midi": 74,
      "hit": false,
      "t": 43870.88000000013,
      "d": 215.05333333333692,
      "v": 79
    },
    {
      "midi": 43,
      "hit": false,
      "t": 43870.88000000013,
      "d": 430.10666666666657,
      "v": 79
    },
    {
      "midi": 50,
      "hit": false,
      "t": 43870.88000000013,
      "d": 430.10666666666657,
      "v": 79
    },
    {
      "midi": 67,
      "hit": false,
      "t": 44193.46000000013,
      "d": 215.05333333332965,
      "v": 79
    },
    {
      "midi": 71,
      "hit": false,
      "t": 44193.46000000013,
      "d": 215.05333333332965,
      "v": 79
    },
    {
      "midi": 74,
      "hit": false,
      "t": 44193.46000000013,
      "d": 215.05333333332965,
      "v": 79
    },
    {
      "midi": 67,
      "hit": false,
      "t": 44516.040000000125,
      "d": 215.05333333333692,
      "v": 79
    },
    {
      "midi": 71,
      "hit": false,
      "t": 44516.040000000125,
      "d": 215.05333333333692,
      "v": 79
    },
    {
      "midi": 74,
      "hit": false,
      "t": 44516.040000000125,
      "d": 215.05333333333692,
      "v": 79
    },
    {
      "midi": 43,
      "hit": false,
      "t": 44516.040000000125,
      "d": 430.10666666666657,
      "v": 79
    },
    {
      "midi": 52,
      "hit": false,
      "t": 44516.040000000125,
      "d": 430.10666666666657,
      "v": 79
    },
    {
      "midi": 67,
      "hit": false,
      "t": 44838.620000000126,
      "d": 215.05333333332965,
      "v": 79
    },
    {
      "midi": 71,
      "hit": false,
      "t": 44838.620000000126,
      "d": 215.05333333332965,
      "v": 79
    },
    {
      "midi": 74,
      "hit": false,
      "t": 44838.620000000126,
      "d": 215.05333333332965,
      "v": 79
    },
    {
      "midi": 67,
      "hit": false,
      "t": 45161.20000000012,
      "d": 215.05333333333692,
      "v": 79
    },
    {
      "midi": 71,
      "hit": false,
      "t": 45161.20000000012,
      "d": 215.05333333333692,
      "v": 79
    },
    {
      "midi": 74,
      "hit": false,
      "t": 45161.20000000012,
      "d": 215.05333333333692,
      "v": 79
    },
    {
      "midi": 43,
      "hit": false,
      "t": 45161.20000000012,
      "d": 430.10666666666657,
      "v": 79
    },
    {
      "midi": 50,
      "hit": false,
      "t": 45161.20000000012,
      "d": 430.10666666666657,
      "v": 79
    },
    {
      "midi": 67,
      "hit": false,
      "t": 45483.78000000012,
      "d": 215.05333333332965,
      "v": 79
    },
    {
      "midi": 71,
      "hit": false,
      "t": 45483.78000000012,
      "d": 215.05333333332965,
      "v": 79
    },
    {
      "midi": 74,
      "hit": false,
      "t": 45483.78000000012,
      "d": 215.05333333332965,
      "v": 79
    },
    {
      "midi": 67,
      "hit": false,
      "t": 45806.36000000012,
      "d": 215.05333333333692,
      "v": 79
    },
    {
      "midi": 71,
      "hit": false,
      "t": 45806.36000000012,
      "d": 215.05333333333692,
      "v": 79
    },
    {
      "midi": 74,
      "hit": false,
      "t": 45806.36000000012,
      "d": 215.05333333333692,
      "v": 79
    },
    {
      "midi": 43,
      "hit": false,
      "t": 45806.36000000012,
      "d": 430.10666666666657,
      "v": 79
    },
    {
      "midi": 52,
      "hit": false,
      "t": 45806.36000000012,
      "d": 430.10666666666657,
      "v": 79
    },
    {
      "midi": 67,
      "hit": false,
      "t": 46128.94000000012,
      "d": 215.05333333332965,
      "v": 79
    },
    {
      "midi": 71,
      "hit": false,
      "t": 46128.94000000012,
      "d": 215.05333333332965,
      "v": 79
    },
    {
      "midi": 74,
      "hit": false,
      "t": 46128.94000000012,
      "d": 215.05333333332965,
      "v": 79
    },
    {
      "midi": 67,
      "hit": false,
      "t": 46451.52000000011,
      "d": 215.05333333333692,
      "v": 79
    },
    {
      "midi": 71,
      "hit": false,
      "t": 46451.52000000011,
      "d": 215.05333333333692,
      "v": 79
    },
    {
      "midi": 74,
      "hit": false,
      "t": 46451.52000000011,
      "d": 215.05333333333692,
      "v": 79
    },
    {
      "midi": 43,
      "hit": false,
      "t": 46451.52000000011,
      "d": 430.10666666666657,
      "v": 79
    },
    {
      "midi": 50,
      "hit": false,
      "t": 46451.52000000011,
      "d": 430.10666666666657,
      "v": 79
    },
    {
      "midi": 67,
      "hit": false,
      "t": 46774.100000000115,
      "d": 215.05333333332965,
      "v": 79
    },
    {
      "midi": 71,
      "hit": false,
      "t": 46774.100000000115,
      "d": 215.05333333332965,
      "v": 79
    },
    {
      "midi": 74,
      "hit": false,
      "t": 46774.100000000115,
      "d": 215.05333333332965,
      "v": 79
    },
    {
      "midi": 67,
      "hit": false,
      "t": 47096.68000000011,
      "d": 215.05333333333692,
      "v": 79
    },
    {
      "midi": 71,
      "hit": false,
      "t": 47096.68000000011,
      "d": 215.05333333333692,
      "v": 79
    },
    {
      "midi": 74,
      "hit": false,
      "t": 47096.68000000011,
      "d": 215.05333333333692,
      "v": 79
    },
    {
      "midi": 43,
      "hit": false,
      "t": 47096.68000000011,
      "d": 430.10666666666657,
      "v": 79
    },
    {
      "midi": 52,
      "hit": false,
      "t": 47096.68000000011,
      "d": 430.10666666666657,
      "v": 79
    },
    {
      "midi": 67,
      "hit": false,
      "t": 47419.26000000011,
      "d": 215.05333333332965,
      "v": 79
    },
    {
      "midi": 71,
      "hit": false,
      "t": 47419.26000000011,
      "d": 215.05333333332965,
      "v": 79
    },
    {
      "midi": 74,
      "hit": false,
      "t": 47419.26000000011,
      "d": 215.05333333332965,
      "v": 79
    },
    {
      "midi": 65,
      "hit": false,
      "t": 47741.840000000106,
      "d": 215.05333333333692,
      "v": 79
    },
    {
      "midi": 69,
      "hit": false,
      "t": 47741.840000000106,
      "d": 215.05333333333692,
      "v": 79
    },
    {
      "midi": 72,
      "hit": false,
      "t": 47741.840000000106,
      "d": 215.05333333333692,
      "v": 79
    },
    {
      "midi": 41,
      "hit": false,
      "t": 47741.840000000106,
      "d": 430.10666666666657,
      "v": 79
    },
    {
      "midi": 48,
      "hit": false,
      "t": 47741.840000000106,
      "d": 430.10666666666657,
      "v": 79
    },
    {
      "midi": 65,
      "hit": false,
      "t": 48064.42000000011,
      "d": 215.05333333332965,
      "v": 79
    },
    {
      "midi": 69,
      "hit": false,
      "t": 48064.42000000011,
      "d": 215.05333333332965,
      "v": 79
    },
    {
      "midi": 72,
      "hit": false,
      "t": 48064.42000000011,
      "d": 215.05333333332965,
      "v": 79
    },
    {
      "midi": 41,
      "hit": false,
      "t": 48387.0000000001,
      "d": 215.05333333333692,
      "v": 79
    },
    {
      "midi": 48,
      "hit": false,
      "t": 48387.0000000001,
      "d": 215.05333333333692,
      "v": 79
    },
    {
      "midi": 65,
      "hit": false,
      "t": 48387.0000000001,
      "d": 215.05333333333692,
      "v": 79
    },
    {
      "midi": 69,
      "hit": false,
      "t": 48387.0000000001,
      "d": 215.05333333333692,
      "v": 79
    },
    {
      "midi": 72,
      "hit": false,
      "t": 48387.0000000001,
      "d": 215.05333333333692,
      "v": 79
    },
    {
      "midi": 62,
      "hit": false,
      "t": 48709.5800000001,
      "d": 215.05333333333692,
      "v": 79
    },
    {
      "midi": 66,
      "hit": false,
      "t": 48709.5800000001,
      "d": 215.05333333333692,
      "v": 79
    },
    {
      "midi": 69,
      "hit": false,
      "t": 48709.5800000001,
      "d": 215.05333333333692,
      "v": 79
    },
    {
      "midi": 38,
      "hit": false,
      "t": 49032.160000000105,
      "d": 430.10666666666657,
      "v": 79
    },
    {
      "midi": 45,
      "hit": false,
      "t": 49032.160000000105,
      "d": 430.10666666666657,
      "v": 79
    },
    {
      "midi": 62,
      "hit": false,
      "t": 49354.74000000011,
      "d": 215.05333333332965,
      "v": 79
    },
    {
      "midi": 69,
      "hit": false,
      "t": 49354.74000000011,
      "d": 215.05333333332965,
      "v": 79
    },
    {
      "midi": 72,
      "hit": false,
      "t": 49354.74000000011,
      "d": 215.05333333332965,
      "v": 79
    },
    {
      "midi": 62,
      "hit": false,
      "t": 49677.3200000001,
      "d": 215.05333333333692,
      "v": 79
    },
    {
      "midi": 67,
      "hit": false,
      "t": 49677.3200000001,
      "d": 215.05333333333692,
      "v": 79
    },
    {
      "midi": 71,
      "hit": false,
      "t": 49677.3200000001,
      "d": 215.05333333333692,
      "v": 79
    },
    {
      "midi": 33,
      "hit": false,
      "t": 49677.3200000001,
      "d": 430.10666666666657,
      "v": 79
    },
    {
      "midi": 45,
      "hit": false,
      "t": 49677.3200000001,
      "d": 430.10666666666657,
      "v": 79
    },
    {
      "midi": 62,
      "hit": false,
      "t": 49999.9000000001,
      "d": 107.52666666666482,
      "v": 79
    },
    {
      "midi": 69,
      "hit": false,
      "t": 49999.9000000001,
      "d": 107.52666666666482,
      "v": 79
    },
    {
      "midi": 62,
      "hit": false,
      "t": 50161.190000000104,
      "d": 376.3433333333378,
      "v": 79
    },
    {
      "midi": 69,
      "hit": false,
      "t": 50161.190000000104,
      "d": 376.3433333333378,
      "v": 79
    },
    {
      "midi": 38,
      "hit": false,
      "t": 50322.480000000105,
      "d": 430.10666666666657,
      "v": 79
    },
    {
      "midi": 45,
      "hit": false,
      "t": 50322.480000000105,
      "d": 430.10666666666657,
      "v": 79
    },
    {
      "midi": 62,
      "hit": false,
      "t": 50645.06000000011,
      "d": 215.05333333332965,
      "v": 79
    },
    {
      "midi": 69,
      "hit": false,
      "t": 50645.06000000011,
      "d": 215.05333333332965,
      "v": 79
    },
    {
      "midi": 72,
      "hit": false,
      "t": 50645.06000000011,
      "d": 215.05333333332965,
      "v": 79
    },
    {
      "midi": 62,
      "hit": false,
      "t": 50967.6400000001,
      "d": 215.05333333333692,
      "v": 79
    },
    {
      "midi": 67,
      "hit": false,
      "t": 50967.6400000001,
      "d": 215.05333333333692,
      "v": 79
    },
    {
      "midi": 71,
      "hit": false,
      "t": 50967.6400000001,
      "d": 215.05333333333692,
      "v": 79
    },
    {
      "midi": 33,
      "hit": false,
      "t": 50967.6400000001,
      "d": 430.10666666666657,
      "v": 79
    },
    {
      "midi": 45,
      "hit": false,
      "t": 50967.6400000001,
      "d": 430.10666666666657,
      "v": 79
    },
    {
      "midi": 62,
      "hit": false,
      "t": 51290.2200000001,
      "d": 215.05333333332965,
      "v": 79
    },
    {
      "midi": 69,
      "hit": false,
      "t": 51290.2200000001,
      "d": 215.05333333332965,
      "v": 79
    },
    {
      "midi": 36,
      "hit": false,
      "t": 51612.8000000001,
      "d": 430.10666666666657,
      "v": 79
    },
    {
      "midi": 43,
      "hit": false,
      "t": 51612.8000000001,
      "d": 430.10666666666657,
      "v": 79
    },
    {
      "midi": 62,
      "hit": false,
      "t": 51935.3800000001,
      "d": 215.05333333332965,
      "v": 79
    },
    {
      "midi": 69,
      "hit": false,
      "t": 51935.3800000001,
      "d": 215.05333333332965,
      "v": 79
    },
    {
      "midi": 71,
      "hit": false,
      "t": 51935.3800000001,
      "d": 215.05333333332965,
      "v": 79
    },
    {
      "midi": 72,
      "hit": false,
      "t": 51935.3800000001,
      "d": 215.05333333332965,
      "v": 79
    },
    {
      "midi": 64,
      "hit": false,
      "t": 52257.960000000094,
      "d": 215.05333333333692,
      "v": 79
    },
    {
      "midi": 69,
      "hit": false,
      "t": 52257.960000000094,
      "d": 215.05333333333692,
      "v": 79
    },
    {
      "midi": 72,
      "hit": false,
      "t": 52257.960000000094,
      "d": 215.05333333333692,
      "v": 79
    },
    {
      "midi": 36,
      "hit": false,
      "t": 52257.960000000094,
      "d": 430.10666666666657,
      "v": 79
    },
    {
      "midi": 43,
      "hit": false,
      "t": 52257.960000000094,
      "d": 430.10666666666657,
      "v": 79
    },
    {
      "midi": 64,
      "hit": false,
      "t": 52580.540000000095,
      "d": 215.05333333332965,
      "v": 79
    },
    {
      "midi": 69,
      "hit": false,
      "t": 52580.540000000095,
      "d": 215.05333333332965,
      "v": 79
    },
    {
      "midi": 72,
      "hit": false,
      "t": 52580.540000000095,
      "d": 215.05333333332965,
      "v": 79
    },
    {
      "midi": 64,
      "hit": false,
      "t": 52903.12000000009,
      "d": 215.05333333333692,
      "v": 79
    },
    {
      "midi": 69,
      "hit": false,
      "t": 52903.12000000009,
      "d": 215.05333333333692,
      "v": 79
    },
    {
      "midi": 72,
      "hit": false,
      "t": 52903.12000000009,
      "d": 215.05333333333692,
      "v": 79
    },
    {
      "midi": 38,
      "hit": false,
      "t": 52903.12000000009,
      "d": 430.10666666666657,
      "v": 79
    },
    {
      "midi": 45,
      "hit": false,
      "t": 52903.12000000009,
      "d": 430.10666666666657,
      "v": 79
    },
    {
      "midi": 64,
      "hit": false,
      "t": 53225.70000000009,
      "d": 215.05333333332965,
      "v": 79
    },
    {
      "midi": 69,
      "hit": false,
      "t": 53225.70000000009,
      "d": 215.05333333332965,
      "v": 79
    },
    {
      "midi": 72,
      "hit": false,
      "t": 53225.70000000009,
      "d": 215.05333333332965,
      "v": 79
    },
    {
      "midi": 64,
      "hit": false,
      "t": 53548.280000000086,
      "d": 215.05333333333692,
      "v": 79
    },
    {
      "midi": 69,
      "hit": false,
      "t": 53548.280000000086,
      "d": 215.05333333333692,
      "v": 79
    },
    {
      "midi": 72,
      "hit": false,
      "t": 53548.280000000086,
      "d": 215.05333333333692,
      "v": 79
    },
    {
      "midi": 38,
      "hit": false,
      "t": 53548.280000000086,
      "d": 430.10666666666657,
      "v": 79
    },
    {
      "midi": 45,
      "hit": false,
      "t": 53548.280000000086,
      "d": 430.10666666666657,
      "v": 79
    },
    {
      "midi": 64,
      "hit": false,
      "t": 53870.86000000009,
      "d": 215.05333333332965,
      "v": 79
    },
    {
      "midi": 69,
      "hit": false,
      "t": 53870.86000000009,
      "d": 215.05333333332965,
      "v": 79
    },
    {
      "midi": 72,
      "hit": false,
      "t": 53870.86000000009,
      "d": 215.05333333332965,
      "v": 79
    },
    {
      "midi": 55,
      "hit": false,
      "t": 54193.44000000008,
      "d": 215.05333333333692,
      "v": 79
    },
    {
      "midi": 59,
      "hit": false,
      "t": 54193.44000000008,
      "d": 215.05333333333692,
      "v": 79
    },
    {
      "midi": 62,
      "hit": false,
      "t": 54193.44000000008,
      "d": 215.05333333333692,
      "v": 79
    },
    {
      "midi": 43,
      "hit": false,
      "t": 54193.44000000008,
      "d": 430.10666666666657,
      "v": 79
    },
    {
      "midi": 50,
      "hit": false,
      "t": 54193.44000000008,
      "d": 430.10666666666657,
      "v": 79
    },
    {
      "midi": 55,
      "hit": false,
      "t": 54516.020000000084,
      "d": 537.6333333333387,
      "v": 79
    },
    {
      "midi": 59,
      "hit": false,
      "t": 54516.020000000084,
      "d": 537.6333333333387,
      "v": 79
    },
    {
      "midi": 62,
      "hit": false,
      "t": 54516.020000000084,
      "d": 537.6333333333387,
      "v": 79
    },
    {
      "midi": 43,
      "hit": false,
      "t": 54838.600000000086,
      "d": 430.10666666666657,
      "v": 79
    },
    {
      "midi": 52,
      "hit": false,
      "t": 54838.600000000086,
      "d": 430.10666666666657,
      "v": 79
    },
    {
      "midi": 55,
      "hit": false,
      "t": 55161.18000000009,
      "d": 537.6333333333387,
      "v": 79
    },
    {
      "midi": 59,
      "hit": false,
      "t": 55161.18000000009,
      "d": 537.6333333333387,
      "v": 79
    },
    {
      "midi": 62,
      "hit": false,
      "t": 55161.18000000009,
      "d": 537.6333333333387,
      "v": 79
    },
    {
      "midi": 43,
      "hit": false,
      "t": 55483.76000000009,
      "d": 430.10666666666657,
      "v": 79
    },
    {
      "midi": 50,
      "hit": false,
      "t": 55483.76000000009,
      "d": 430.10666666666657,
      "v": 79
    },
    {
      "midi": 55,
      "hit": false,
      "t": 55806.34000000009,
      "d": 537.6333333333387,
      "v": 79
    },
    {
      "midi": 59,
      "hit": false,
      "t": 55806.34000000009,
      "d": 537.6333333333387,
      "v": 79
    },
    {
      "midi": 62,
      "hit": false,
      "t": 55806.34000000009,
      "d": 537.6333333333387,
      "v": 79
    },
    {
      "midi": 43,
      "hit": false,
      "t": 56128.92000000009,
      "d": 430.10666666666657,
      "v": 79
    },
    {
      "midi": 52,
      "hit": false,
      "t": 56128.92000000009,
      "d": 430.10666666666657,
      "v": 79
    },
    {
      "midi": 55,
      "hit": false,
      "t": 56451.500000000095,
      "d": 537.6333333333387,
      "v": 79
    },
    {
      "midi": 59,
      "hit": false,
      "t": 56451.500000000095,
      "d": 537.6333333333387,
      "v": 79
    },
    {
      "midi": 62,
      "hit": false,
      "t": 56451.500000000095,
      "d": 537.6333333333387,
      "v": 79
    },
    {
      "midi": 43,
      "hit": false,
      "t": 56774.080000000096,
      "d": 430.10666666666657,
      "v": 79
    },
    {
      "midi": 50,
      "hit": false,
      "t": 56774.080000000096,
      "d": 430.10666666666657,
      "v": 79
    },
    {
      "midi": 55,
      "hit": false,
      "t": 57096.6600000001,
      "d": 537.6333333333387,
      "v": 79
    },
    {
      "midi": 59,
      "hit": false,
      "t": 57096.6600000001,
      "d": 537.6333333333387,
      "v": 79
    },
    {
      "midi": 62,
      "hit": false,
      "t": 57096.6600000001,
      "d": 537.6333333333387,
      "v": 79
    },
    {
      "midi": 43,
      "hit": false,
      "t": 57419.2400000001,
      "d": 430.10666666666657,
      "v": 79
    },
    {
      "midi": 52,
      "hit": false,
      "t": 57419.2400000001,
      "d": 430.10666666666657,
      "v": 79
    },
    {
      "midi": 55,
      "hit": false,
      "t": 57741.8200000001,
      "d": 215.05333333332965,
      "v": 79
    },
    {
      "midi": 59,
      "hit": false,
      "t": 57741.8200000001,
      "d": 215.05333333332965,
      "v": 79
    },
    {
      "midi": 62,
      "hit": false,
      "t": 57741.8200000001,
      "d": 215.05333333332965,
      "v": 79
    },
    {
      "midi": 53,
      "hit": false,
      "t": 58064.400000000096,
      "d": 215.05333333333692,
      "v": 79
    },
    {
      "midi": 57,
      "hit": false,
      "t": 58064.400000000096,
      "d": 215.05333333333692,
      "v": 79
    },
    {
      "midi": 60,
      "hit": false,
      "t": 58064.400000000096,
      "d": 215.05333333333692,
      "v": 79
    },
    {
      "midi": 41,
      "hit": false,
      "t": 58064.400000000096,
      "d": 430.10666666666657,
      "v": 79
    },
    {
      "midi": 48,
      "hit": false,
      "t": 58064.400000000096,
      "d": 430.10666666666657,
      "v": 79
    },
    {
      "midi": 53,
      "hit": false,
      "t": 58386.9800000001,
      "d": 215.05333333332965,
      "v": 79
    },
    {
      "midi": 57,
      "hit": false,
      "t": 58386.9800000001,
      "d": 215.05333333332965,
      "v": 79
    },
    {
      "midi": 60,
      "hit": false,
      "t": 58386.9800000001,
      "d": 215.05333333332965,
      "v": 79
    },
    {
      "midi": 41,
      "hit": false,
      "t": 58709.56000000009,
      "d": 215.05333333333692,
      "v": 79
    },
    {
      "midi": 48,
      "hit": false,
      "t": 58709.56000000009,
      "d": 215.05333333333692,
      "v": 79
    },
    {
      "midi": 50,
      "hit": false,
      "t": 59032.140000000094,
      "d": 645.1600000000035,
      "v": 79
    },
    {
      "midi": 38,
      "hit": false,
      "t": 59354.720000000096,
      "d": 430.10666666666657,
      "v": 79
    },
    {
      "midi": 50,
      "hit": false,
      "t": 59677.3000000001,
      "d": 215.05333333332965,
      "v": 79
    },
    {
      "midi": 57,
      "hit": false,
      "t": 59677.3000000001,
      "d": 215.05333333332965,
      "v": 79
    },
    {
      "midi": 60,
      "hit": false,
      "t": 59677.3000000001,
      "d": 215.05333333332965,
      "v": 79
    },
    {
      "midi": 50,
      "hit": false,
      "t": 59999.88000000009,
      "d": 215.05333333333692,
      "v": 79
    },
    {
      "midi": 55,
      "hit": false,
      "t": 59999.88000000009,
      "d": 215.05333333333692,
      "v": 79
    },
    {
      "midi": 59,
      "hit": false,
      "t": 59999.88000000009,
      "d": 215.05333333333692,
      "v": 79
    },
    {
      "midi": 33,
      "hit": false,
      "t": 59999.88000000009,
      "d": 430.10666666666657,
      "v": 79
    },
    {
      "midi": 45,
      "hit": false,
      "t": 59999.88000000009,
      "d": 430.10666666666657,
      "v": 79
    },
    {
      "midi": 50,
      "hit": false,
      "t": 60322.460000000094,
      "d": 107.52666666666482,
      "v": 79
    },
    {
      "midi": 54,
      "hit": false,
      "t": 60322.460000000094,
      "d": 107.52666666666482,
      "v": 79
    },
    {
      "midi": 57,
      "hit": false,
      "t": 60322.460000000094,
      "d": 107.52666666666482,
      "v": 79
    },
    {
      "midi": 50,
      "hit": false,
      "t": 60483.750000000095,
      "d": 376.3433333333378,
      "v": 79
    },
    {
      "midi": 54,
      "hit": false,
      "t": 60483.750000000095,
      "d": 376.3433333333378,
      "v": 79
    },
    {
      "midi": 57,
      "hit": false,
      "t": 60483.750000000095,
      "d": 376.3433333333378,
      "v": 79
    },
    {
      "midi": 38,
      "hit": false,
      "t": 60645.040000000095,
      "d": 430.10666666666657,
      "v": 79
    },
    {
      "midi": 45,
      "hit": false,
      "t": 60645.040000000095,
      "d": 430.10666666666657,
      "v": 79
    },
    {
      "midi": 50,
      "hit": false,
      "t": 60967.6200000001,
      "d": 322.58000000000175,
      "v": 79
    },
    {
      "midi": 57,
      "hit": false,
      "t": 60967.6200000001,
      "d": 322.58000000000175,
      "v": 79
    },
    {
      "midi": 60,
      "hit": false,
      "t": 60967.6200000001,
      "d": 322.58000000000175,
      "v": 79
    },
    {
      "midi": 50,
      "hit": false,
      "t": 61290.2000000001,
      "d": 322.58000000000175,
      "v": 79
    },
    {
      "midi": 57,
      "hit": false,
      "t": 61290.2000000001,
      "d": 322.58000000000175,
      "v": 79
    },
    {
      "midi": 59,
      "hit": false,
      "t": 61290.2000000001,
      "d": 322.58000000000175,
      "v": 79
    },
    {
      "midi": 33,
      "hit": false,
      "t": 61290.2000000001,
      "d": 430.10666666666657,
      "v": 79
    },
    {
      "midi": 45,
      "hit": false,
      "t": 61290.2000000001,
      "d": 430.10666666666657,
      "v": 79
    },
    {
      "midi": 50,
      "hit": false,
      "t": 61612.7800000001,
      "d": 537.6333333333387,
      "v": 79
    },
    {
      "midi": 54,
      "hit": false,
      "t": 61612.7800000001,
      "d": 537.6333333333387,
      "v": 79
    },
    {
      "midi": 57,
      "hit": false,
      "t": 61612.7800000001,
      "d": 537.6333333333387,
      "v": 79
    },
    {
      "midi": 38,
      "hit": false,
      "t": 61935.3600000001,
      "d": 430.10666666666657,
      "v": 79
    },
    {
      "midi": 45,
      "hit": false,
      "t": 61935.3600000001,
      "d": 430.10666666666657,
      "v": 79
    },
    {
      "midi": 50,
      "hit": false,
      "t": 62257.940000000104,
      "d": 215.05333333332965,
      "v": 79
    },
    {
      "midi": 57,
      "hit": false,
      "t": 62257.940000000104,
      "d": 215.05333333332965,
      "v": 79
    },
    {
      "midi": 60,
      "hit": false,
      "t": 62257.940000000104,
      "d": 215.05333333332965,
      "v": 79
    },
    {
      "midi": 50,
      "hit": false,
      "t": 62580.5200000001,
      "d": 215.05333333333692,
      "v": 79
    },
    {
      "midi": 57,
      "hit": false,
      "t": 62580.5200000001,
      "d": 215.05333333333692,
      "v": 79
    },
    {
      "midi": 60,
      "hit": false,
      "t": 62580.5200000001,
      "d": 215.05333333333692,
      "v": 79
    },
    {
      "midi": 33,
      "hit": false,
      "t": 62580.5200000001,
      "d": 430.10666666666657,
      "v": 79
    },
    {
      "midi": 45,
      "hit": false,
      "t": 62580.5200000001,
      "d": 430.10666666666657,
      "v": 79
    },
    {
      "midi": 50,
      "hit": false,
      "t": 62903.1000000001,
      "d": 107.52666666666482,
      "v": 79
    },
    {
      "midi": 54,
      "hit": false,
      "t": 62903.1000000001,
      "d": 107.52666666666482,
      "v": 79
    },
    {
      "midi": 57,
      "hit": false,
      "t": 62903.1000000001,
      "d": 107.52666666666482,
      "v": 79
    },
    {
      "midi": 50,
      "hit": false,
      "t": 63064.3900000001,
      "d": 376.3433333333378,
      "v": 79
    },
    {
      "midi": 54,
      "hit": false,
      "t": 63064.3900000001,
      "d": 376.3433333333378,
      "v": 79
    },
    {
      "midi": 57,
      "hit": false,
      "t": 63064.3900000001,
      "d": 376.3433333333378,
      "v": 79
    },
    {
      "midi": 38,
      "hit": false,
      "t": 63225.6800000001,
      "d": 430.10666666666657,
      "v": 79
    },
    {
      "midi": 45,
      "hit": false,
      "t": 63225.6800000001,
      "d": 430.10666666666657,
      "v": 79
    },
    {
      "midi": 50,
      "hit": false,
      "t": 63548.260000000104,
      "d": 537.6333333333387,
      "v": 79
    },
    {
      "midi": 54,
      "hit": false,
      "t": 63548.260000000104,
      "d": 537.6333333333387,
      "v": 79
    },
    {
      "midi": 57,
      "hit": false,
      "t": 63548.260000000104,
      "d": 537.6333333333387,
      "v": 79
    },
    {
      "midi": 38,
      "hit": false,
      "t": 63870.840000000106,
      "d": 430.10666666666657,
      "v": 79
    },
    {
      "midi": 45,
      "hit": false,
      "t": 63870.840000000106,
      "d": 430.10666666666657,
      "v": 79
    },
    {
      "midi": 50,
      "hit": false,
      "t": 64193.42000000011,
      "d": 215.05333333332965,
      "v": 79
    },
    {
      "midi": 54,
      "hit": false,
      "t": 64193.42000000011,
      "d": 215.05333333332965,
      "v": 79
    },
    {
      "midi": 57,
      "hit": false,
      "t": 64193.42000000011,
      "d": 215.05333333332965,
      "v": 79
    },
    {
      "midi": 45,
      "hit": false,
      "t": 64516.0000000001,
      "d": 430.10666666666657,
      "v": 79
    },
    {
      "midi": 52,
      "hit": false,
      "t": 64516.0000000001,
      "d": 430.10666666666657,
      "v": 79
    },
    {
      "midi": 69,
      "hit": false,
      "t": 64838.5800000001,
      "d": 215.05333333332965,
      "v": 79
    },
    {
      "midi": 73,
      "hit": false,
      "t": 64838.5800000001,
      "d": 215.05333333332965,
      "v": 79
    },
    {
      "midi": 76,
      "hit": false,
      "t": 64838.5800000001,
      "d": 215.05333333332965,
      "v": 79
    },
    {
      "midi": 69,
      "hit": false,
      "t": 65161.1600000001,
      "d": 215.05333333333692,
      "v": 79
    },
    {
      "midi": 73,
      "hit": false,
      "t": 65161.1600000001,
      "d": 215.05333333333692,
      "v": 79
    },
    {
      "midi": 76,
      "hit": false,
      "t": 65161.1600000001,
      "d": 215.05333333333692,
      "v": 79
    },
    {
      "midi": 45,
      "hit": false,
      "t": 65161.1600000001,
      "d": 430.10666666666657,
      "v": 79
    },
    {
      "midi": 52,
      "hit": false,
      "t": 65161.1600000001,
      "d": 430.10666666666657,
      "v": 79
    },
    {
      "midi": 69,
      "hit": false,
      "t": 65483.7400000001,
      "d": 215.05333333333692,
      "v": 79
    },
    {
      "midi": 73,
      "hit": false,
      "t": 65483.7400000001,
      "d": 215.05333333333692,
      "v": 79
    },
    {
      "midi": 76,
      "hit": false,
      "t": 65483.7400000001,
      "d": 215.05333333333692,
      "v": 79
    },
    {
      "midi": 69,
      "hit": false,
      "t": 65806.32000000011,
      "d": 215.05333333332965,
      "v": 79
    },
    {
      "midi": 73,
      "hit": false,
      "t": 65806.32000000011,
      "d": 215.05333333332965,
      "v": 79
    },
    {
      "midi": 76,
      "hit": false,
      "t": 65806.32000000011,
      "d": 215.05333333332965,
      "v": 79
    },
    {
      "midi": 45,
      "hit": false,
      "t": 65806.32000000011,
      "d": 430.10666666667385,
      "v": 79
    },
    {
      "midi": 52,
      "hit": false,
      "t": 65806.32000000011,
      "d": 430.10666666667385,
      "v": 79
    },
    {
      "midi": 69,
      "hit": false,
      "t": 66128.90000000011,
      "d": 215.0533333333442,
      "v": 79
    },
    {
      "midi": 73,
      "hit": false,
      "t": 66128.90000000011,
      "d": 215.0533333333442,
      "v": 79
    },
    {
      "midi": 76,
      "hit": false,
      "t": 66128.90000000011,
      "d": 215.0533333333442,
      "v": 79
    },
    {
      "midi": 47,
      "hit": false,
      "t": 66451.48000000013,
      "d": 215.05333333332965,
      "v": 79
    },
    {
      "midi": 52,
      "hit": false,
      "t": 66451.48000000013,
      "d": 215.05333333332965,
      "v": 79
    },
    {
      "midi": 69,
      "hit": false,
      "t": 66451.48000000013,
      "d": 215.05333333332965,
      "v": 79
    },
    {
      "midi": 73,
      "hit": false,
      "t": 66451.48000000013,
      "d": 215.05333333332965,
      "v": 79
    },
    {
      "midi": 76,
      "hit": false,
      "t": 66451.48000000013,
      "d": 215.05333333332965,
      "v": 79
    },
    {
      "midi": 67,
      "hit": false,
      "t": 66774.06000000013,
      "d": 215.05333333332965,
      "v": 79
    },
    {
      "midi": 67,
      "hit": false,
      "t": 67096.64000000013,
      "d": 215.05333333332965,
      "v": 79
    },
    {
      "midi": 74,
      "hit": false,
      "t": 67096.64000000013,
      "d": 215.05333333332965,
      "v": 79
    },
    {
      "midi": 77,
      "hit": false,
      "t": 67096.64000000013,
      "d": 215.05333333332965,
      "v": 79
    },
    {
      "midi": 43,
      "hit": false,
      "t": 67096.64000000013,
      "d": 430.10666666667385,
      "v": 79
    },
    {
      "midi": 50,
      "hit": false,
      "t": 67096.64000000013,
      "d": 430.10666666667385,
      "v": 79
    },
    {
      "midi": 67,
      "hit": false,
      "t": 67419.22000000013,
      "d": 215.0533333333442,
      "v": 79
    },
    {
      "midi": 74,
      "hit": false,
      "t": 67419.22000000013,
      "d": 215.0533333333442,
      "v": 79
    },
    {
      "midi": 77,
      "hit": false,
      "t": 67419.22000000013,
      "d": 215.0533333333442,
      "v": 79
    },
    {
      "midi": 67,
      "hit": false,
      "t": 67741.80000000015,
      "d": 215.05333333332965,
      "v": 79
    },
    {
      "midi": 72,
      "hit": false,
      "t": 67741.80000000015,
      "d": 215.05333333332965,
      "v": 79
    },
    {
      "midi": 76,
      "hit": false,
      "t": 67741.80000000015,
      "d": 215.05333333332965,
      "v": 79
    },
    {
      "midi": 43,
      "hit": false,
      "t": 67741.80000000015,
      "d": 430.10666666667385,
      "v": 79
    },
    {
      "midi": 50,
      "hit": false,
      "t": 67741.80000000015,
      "d": 430.10666666667385,
      "v": 79
    },
    {
      "midi": 67,
      "hit": false,
      "t": 68064.38000000015,
      "d": 215.0533333333442,
      "v": 79
    },
    {
      "midi": 71,
      "hit": false,
      "t": 68064.38000000015,
      "d": 215.0533333333442,
      "v": 79
    },
    {
      "midi": 74,
      "hit": false,
      "t": 68064.38000000015,
      "d": 215.0533333333442,
      "v": 79
    },
    {
      "midi": 65,
      "hit": false,
      "t": 68386.96000000017,
      "d": 215.05333333332965,
      "v": 79
    },
    {
      "midi": 69,
      "hit": false,
      "t": 68386.96000000017,
      "d": 215.05333333332965,
      "v": 79
    },
    {
      "midi": 72,
      "hit": false,
      "t": 68386.96000000017,
      "d": 215.05333333332965,
      "v": 79
    },
    {
      "midi": 41,
      "hit": false,
      "t": 68386.96000000017,
      "d": 430.10666666667385,
      "v": 79
    },
    {
      "midi": 48,
      "hit": false,
      "t": 68386.96000000017,
      "d": 430.10666666667385,
      "v": 79
    },
    {
      "midi": 65,
      "hit": false,
      "t": 68709.54000000017,
      "d": 215.0533333333442,
      "v": 79
    },
    {
      "midi": 41,
      "hit": false,
      "t": 69032.12000000018,
      "d": 215.05333333332965,
      "v": 79
    },
    {
      "midi": 48,
      "hit": false,
      "t": 69032.12000000018,
      "d": 215.05333333332965,
      "v": 79
    },
    {
      "midi": 65,
      "hit": false,
      "t": 69032.12000000018,
      "d": 215.05333333332965,
      "v": 79
    },
    {
      "midi": 69,
      "hit": false,
      "t": 69032.12000000018,
      "d": 215.05333333332965,
      "v": 79
    },
    {
      "midi": 72,
      "hit": false,
      "t": 69032.12000000018,
      "d": 215.05333333332965,
      "v": 79
    },
    {
      "midi": 60,
      "hit": false,
      "t": 69354.70000000019,
      "d": 215.05333333332965,
      "v": 79
    },
    {
      "midi": 62,
      "hit": false,
      "t": 69354.70000000019,
      "d": 215.05333333332965,
      "v": 79
    },
    {
      "midi": 67,
      "hit": false,
      "t": 69354.70000000019,
      "d": 215.05333333332965,
      "v": 79
    },
    {
      "midi": 38,
      "hit": false,
      "t": 69677.28000000019,
      "d": 430.10666666667385,
      "v": 79
    },
    {
      "midi": 45,
      "hit": false,
      "t": 69677.28000000019,
      "d": 430.10666666667385,
      "v": 79
    },
    {
      "midi": 50,
      "hit": false,
      "t": 69999.86000000019,
      "d": 215.0533333333442,
      "v": 79
    },
    {
      "midi": 57,
      "hit": false,
      "t": 69999.86000000019,
      "d": 215.0533333333442,
      "v": 79
    },
    {
      "midi": 50,
      "hit": false,
      "t": 70322.4400000002,
      "d": 215.05333333332965,
      "v": 79
    },
    {
      "midi": 54,
      "hit": false,
      "t": 70322.4400000002,
      "d": 215.05333333332965,
      "v": 79
    },
    {
      "midi": 60,
      "hit": false,
      "t": 70322.4400000002,
      "d": 215.05333333332965,
      "v": 79
    },
    {
      "midi": 33,
      "hit": false,
      "t": 70322.4400000002,
      "d": 430.10666666667385,
      "v": 79
    },
    {
      "midi": 45,
      "hit": false,
      "t": 70322.4400000002,
      "d": 430.10666666667385,
      "v": 79
    },
    {
      "midi": 57,
      "hit": false,
      "t": 70645.02000000021,
      "d": 215.0533333333442,
      "v": 79
    },
    {
      "midi": 50,
      "hit": false,
      "t": 70967.60000000022,
      "d": 215.05333333332965,
      "v": 79
    },
    {
      "midi": 54,
      "hit": false,
      "t": 70967.60000000022,
      "d": 215.05333333332965,
      "v": 79
    },
    {
      "midi": 60,
      "hit": false,
      "t": 70967.60000000022,
      "d": 215.05333333332965,
      "v": 79
    },
    {
      "midi": 38,
      "hit": false,
      "t": 70967.60000000022,
      "d": 430.10666666667385,
      "v": 79
    },
    {
      "midi": 45,
      "hit": false,
      "t": 70967.60000000022,
      "d": 430.10666666667385,
      "v": 79
    },
    {
      "midi": 57,
      "hit": false,
      "t": 71290.18000000023,
      "d": 215.0533333333442,
      "v": 79
    },
    {
      "midi": 50,
      "hit": false,
      "t": 71612.76000000024,
      "d": 215.05333333332965,
      "v": 79
    },
    {
      "midi": 54,
      "hit": false,
      "t": 71612.76000000024,
      "d": 215.05333333332965,
      "v": 79
    },
    {
      "midi": 60,
      "hit": false,
      "t": 71612.76000000024,
      "d": 215.05333333332965,
      "v": 79
    },
    {
      "midi": 33,
      "hit": false,
      "t": 71612.76000000024,
      "d": 430.10666666667385,
      "v": 79
    },
    {
      "midi": 45,
      "hit": false,
      "t": 71612.76000000024,
      "d": 430.10666666667385,
      "v": 79
    },
    {
      "midi": 50,
      "hit": false,
      "t": 71935.34000000024,
      "d": 215.0533333333442,
      "v": 79
    },
    {
      "midi": 54,
      "hit": false,
      "t": 71935.34000000024,
      "d": 215.0533333333442,
      "v": 79
    },
    {
      "midi": 57,
      "hit": false,
      "t": 71935.34000000024,
      "d": 215.0533333333442,
      "v": 79
    },
    {
      "midi": 38,
      "hit": false,
      "t": 72257.92000000026,
      "d": 430.10666666667385,
      "v": 79
    },
    {
      "midi": 45,
      "hit": false,
      "t": 72257.92000000026,
      "d": 430.10666666667385,
      "v": 79
    },
    {
      "midi": 71,
      "hit": false,
      "t": 72580.50000000026,
      "d": 107.5266666666721,
      "v": 79
    },
    {
      "midi": 78,
      "hit": false,
      "t": 72580.50000000026,
      "d": 107.5266666666721,
      "v": 79
    },
    {
      "midi": 81,
      "hit": false,
      "t": 72580.50000000026,
      "d": 107.5266666666721,
      "v": 79
    },
    {
      "midi": 71,
      "hit": false,
      "t": 72903.08000000026,
      "d": 215.05333333332965,
      "v": 79
    },
    {
      "midi": 76,
      "hit": false,
      "t": 72903.08000000026,
      "d": 215.05333333332965,
      "v": 79
    },
    {
      "midi": 79,
      "hit": false,
      "t": 72903.08000000026,
      "d": 215.05333333332965,
      "v": 79
    },
    {
      "midi": 33,
      "hit": false,
      "t": 72903.08000000026,
      "d": 430.10666666667385,
      "v": 79
    },
    {
      "midi": 45,
      "hit": false,
      "t": 72903.08000000026,
      "d": 430.10666666667385,
      "v": 79
    },
    {
      "midi": 71,
      "hit": false,
      "t": 73225.66000000027,
      "d": 107.5266666666721,
      "v": 79
    },
    {
      "midi": 74,
      "hit": false,
      "t": 73225.66000000027,
      "d": 107.5266666666721,
      "v": 79
    },
    {
      "midi": 78,
      "hit": false,
      "t": 73225.66000000027,
      "d": 107.5266666666721,
      "v": 79
    },
    {
      "midi": 71,
      "hit": false,
      "t": 73386.95000000027,
      "d": 376.34333333332324,
      "v": 79
    },
    {
      "midi": 74,
      "hit": false,
      "t": 73386.95000000027,
      "d": 376.34333333332324,
      "v": 79
    },
    {
      "midi": 78,
      "hit": false,
      "t": 73386.95000000027,
      "d": 376.34333333332324,
      "v": 79
    },
    {
      "midi": 38,
      "hit": false,
      "t": 73548.24000000027,
      "d": 430.10666666667385,
      "v": 79
    },
    {
      "midi": 45,
      "hit": false,
      "t": 73548.24000000027,
      "d": 430.10666666667385,
      "v": 79
    },
    {
      "midi": 71,
      "hit": false,
      "t": 73870.82000000027,
      "d": 537.6333333333314,
      "v": 79
    },
    {
      "midi": 74,
      "hit": false,
      "t": 73870.82000000027,
      "d": 537.6333333333314,
      "v": 79
    },
    {
      "midi": 78,
      "hit": false,
      "t": 73870.82000000027,
      "d": 537.6333333333314,
      "v": 79
    },
    {
      "midi": 33,
      "hit": false,
      "t": 74193.40000000027,
      "d": 430.10666666667385,
      "v": 79
    },
    {
      "midi": 45,
      "hit": false,
      "t": 74193.40000000027,
      "d": 430.10666666667385,
      "v": 79
    },
    {
      "midi": 71,
      "hit": false,
      "t": 74515.98000000027,
      "d": 215.0533333333442,
      "v": 79
    },
    {
      "midi": 74,
      "hit": false,
      "t": 74515.98000000027,
      "d": 215.0533333333442,
      "v": 79
    },
    {
      "midi": 78,
      "hit": false,
      "t": 74515.98000000027,
      "d": 215.0533333333442,
      "v": 79
    },
    {
      "midi": 55,
      "hit": false,
      "t": 74838.56000000029,
      "d": 215.05333333332965,
      "v": 79
    },
    {
      "midi": 59,
      "hit": false,
      "t": 74838.56000000029,
      "d": 215.05333333332965,
      "v": 79
    },
    {
      "midi": 62,
      "hit": false,
      "t": 74838.56000000029,
      "d": 215.05333333332965,
      "v": 79
    },
    {
      "midi": 43,
      "hit": false,
      "t": 74838.56000000029,
      "d": 430.10666666667385,
      "v": 79
    },
    {
      "midi": 50,
      "hit": false,
      "t": 74838.56000000029,
      "d": 430.10666666667385,
      "v": 79
    },
    {
      "midi": 55,
      "hit": false,
      "t": 75161.14000000029,
      "d": 537.6333333333314,
      "v": 79
    },
    {
      "midi": 59,
      "hit": false,
      "t": 75161.14000000029,
      "d": 537.6333333333314,
      "v": 79
    },
    {
      "midi": 62,
      "hit": false,
      "t": 75161.14000000029,
      "d": 537.6333333333314,
      "v": 79
    },
    {
      "midi": 43,
      "hit": false,
      "t": 75483.72000000029,
      "d": 430.10666666667385,
      "v": 79
    },
    {
      "midi": 52,
      "hit": false,
      "t": 75483.72000000029,
      "d": 430.10666666667385,
      "v": 79
    },
    {
      "midi": 55,
      "hit": false,
      "t": 75806.3000000003,
      "d": 537.6333333333314,
      "v": 79
    },
    {
      "midi": 59,
      "hit": false,
      "t": 75806.3000000003,
      "d": 537.6333333333314,
      "v": 79
    },
    {
      "midi": 62,
      "hit": false,
      "t": 75806.3000000003,
      "d": 537.6333333333314,
      "v": 79
    },
    {
      "midi": 43,
      "hit": false,
      "t": 76128.8800000003,
      "d": 430.10666666667385,
      "v": 79
    },
    {
      "midi": 50,
      "hit": false,
      "t": 76128.8800000003,
      "d": 430.10666666667385,
      "v": 79
    },
    {
      "midi": 55,
      "hit": false,
      "t": 76451.4600000003,
      "d": 537.6333333333314,
      "v": 79
    },
    {
      "midi": 59,
      "hit": false,
      "t": 76451.4600000003,
      "d": 537.6333333333314,
      "v": 79
    },
    {
      "midi": 62,
      "hit": false,
      "t": 76451.4600000003,
      "d": 537.6333333333314,
      "v": 79
    },
    {
      "midi": 43,
      "hit": false,
      "t": 76774.0400000003,
      "d": 430.10666666667385,
      "v": 79
    },
    {
      "midi": 52,
      "hit": false,
      "t": 76774.0400000003,
      "d": 430.10666666667385,
      "v": 79
    },
    {
      "midi": 55,
      "hit": false,
      "t": 77096.6200000003,
      "d": 537.6333333333314,
      "v": 79
    },
    {
      "midi": 59,
      "hit": false,
      "t": 77096.6200000003,
      "d": 537.6333333333314,
      "v": 79
    },
    {
      "midi": 62,
      "hit": false,
      "t": 77096.6200000003,
      "d": 537.6333333333314,
      "v": 79
    },
    {
      "midi": 43,
      "hit": false,
      "t": 77419.2000000003,
      "d": 430.10666666667385,
      "v": 79
    },
    {
      "midi": 50,
      "hit": false,
      "t": 77419.2000000003,
      "d": 430.10666666667385,
      "v": 79
    },
    {
      "midi": 55,
      "hit": false,
      "t": 77741.7800000003,
      "d": 537.6333333333314,
      "v": 79
    },
    {
      "midi": 59,
      "hit": false,
      "t": 77741.7800000003,
      "d": 537.6333333333314,
      "v": 79
    },
    {
      "midi": 62,
      "hit": false,
      "t": 77741.7800000003,
      "d": 537.6333333333314,
      "v": 79
    },
    {
      "midi": 43,
      "hit": false,
      "t": 78064.3600000003,
      "d": 430.10666666667385,
      "v": 79
    },
    {
      "midi": 52,
      "hit": false,
      "t": 78064.3600000003,
      "d": 430.10666666667385,
      "v": 79
    },
    {
      "midi": 55,
      "hit": false,
      "t": 78386.94000000031,
      "d": 215.0533333333442,
      "v": 79
    },
    {
      "midi": 59,
      "hit": false,
      "t": 78386.94000000031,
      "d": 215.0533333333442,
      "v": 79
    },
    {
      "midi": 62,
      "hit": false,
      "t": 78386.94000000031,
      "d": 215.0533333333442,
      "v": 79
    },
    {
      "midi": 53,
      "hit": false,
      "t": 78709.52000000032,
      "d": 215.05333333332965,
      "v": 79
    },
    {
      "midi": 57,
      "hit": false,
      "t": 78709.52000000032,
      "d": 215.05333333332965,
      "v": 79
    },
    {
      "midi": 60,
      "hit": false,
      "t": 78709.52000000032,
      "d": 215.05333333332965,
      "v": 79
    },
    {
      "midi": 41,
      "hit": false,
      "t": 78709.52000000032,
      "d": 430.1066666666593,
      "v": 79
    },
    {
      "midi": 48,
      "hit": false,
      "t": 78709.52000000032,
      "d": 430.1066666666593,
      "v": 79
    },
    {
      "midi": 41,
      "hit": false,
      "t": 79354.68000000031,
      "d": 215.05333333332965,
      "v": 79
    },
    {
      "midi": 48,
      "hit": false,
      "t": 79354.68000000031,
      "d": 215.05333333332965,
      "v": 79
    },
    {
      "midi": 53,
      "hit": false,
      "t": 79354.68000000031,
      "d": 215.05333333332965,
      "v": 79
    },
    {
      "midi": 57,
      "hit": false,
      "t": 79354.68000000031,
      "d": 215.05333333332965,
      "v": 79
    },
    {
      "midi": 60,
      "hit": false,
      "t": 79354.68000000031,
      "d": 215.05333333332965,
      "v": 79
    },
    {
      "midi": 50,
      "hit": false,
      "t": 79677.26000000031,
      "d": 2.6881666666595265,
      "v": 79
    },
    {
      "midi": 54,
      "hit": false,
      "t": 79677.26000000031,
      "d": 537.6333333333168,
      "v": 79
    },
    {
      "midi": 57,
      "hit": false,
      "t": 79677.26000000031,
      "d": 537.6333333333168,
      "v": 79
    },
    {
      "midi": 40,
      "hit": false,
      "t": 79999.8400000003,
      "d": 430.10666666667385,
      "v": 79
    },
    {
      "midi": 54,
      "hit": false,
      "t": 80322.4200000003,
      "d": 107.5266666666721,
      "v": 79
    },
    {
      "midi": 59,
      "hit": false,
      "t": 80322.4200000003,
      "d": 107.5266666666721,
      "v": 79
    },
    {
      "midi": 62,
      "hit": false,
      "t": 80483.71000000031,
      "d": 107.5266666666721,
      "v": 79
    },
    {
      "midi": 54,
      "hit": false,
      "t": 80645.00000000032,
      "d": 215.05333333332965,
      "v": 79
    },
    {
      "midi": 59,
      "hit": false,
      "t": 80645.00000000032,
      "d": 215.05333333332965,
      "v": 79
    },
    {
      "midi": 33,
      "hit": false,
      "t": 80645.00000000032,
      "d": 430.10666666667385,
      "v": 79
    },
    {
      "midi": 45,
      "hit": false,
      "t": 80645.00000000032,
      "d": 430.10666666667385,
      "v": 79
    },
    {
      "midi": 50,
      "hit": false,
      "t": 80967.58000000032,
      "d": 107.5266666666721,
      "v": 79
    },
    {
      "midi": 54,
      "hit": false,
      "t": 80967.58000000032,
      "d": 107.5266666666721,
      "v": 79
    },
    {
      "midi": 57,
      "hit": false,
      "t": 80967.58000000032,
      "d": 107.5266666666721,
      "v": 79
    },
    {
      "midi": 50,
      "hit": false,
      "t": 81128.87000000033,
      "d": 376.34333333332324,
      "v": 79
    },
    {
      "midi": 54,
      "hit": false,
      "t": 81128.87000000033,
      "d": 376.34333333332324,
      "v": 79
    },
    {
      "midi": 57,
      "hit": false,
      "t": 81128.87000000033,
      "d": 376.34333333332324,
      "v": 79
    },
    {
      "midi": 38,
      "hit": false,
      "t": 81290.16000000032,
      "d": 430.10666666667385,
      "v": 79
    },
    {
      "midi": 45,
      "hit": false,
      "t": 81290.16000000032,
      "d": 430.10666666667385,
      "v": 79
    },
    {
      "midi": 50,
      "hit": false,
      "t": 81612.74000000033,
      "d": 322.58000000000175,
      "v": 79
    },
    {
      "midi": 57,
      "hit": false,
      "t": 81612.74000000033,
      "d": 322.58000000000175,
      "v": 79
    },
    {
      "midi": 60,
      "hit": false,
      "t": 81612.74000000033,
      "d": 322.58000000000175,
      "v": 79
    },
    {
      "midi": 50,
      "hit": false,
      "t": 81935.32000000033,
      "d": 322.58000000000175,
      "v": 79
    },
    {
      "midi": 57,
      "hit": false,
      "t": 81935.32000000033,
      "d": 322.58000000000175,
      "v": 79
    },
    {
      "midi": 59,
      "hit": false,
      "t": 81935.32000000033,
      "d": 322.58000000000175,
      "v": 79
    },
    {
      "midi": 33,
      "hit": false,
      "t": 81935.32000000033,
      "d": 430.10666666667385,
      "v": 79
    },
    {
      "midi": 45,
      "hit": false,
      "t": 81935.32000000033,
      "d": 430.10666666667385,
      "v": 79
    },
    {
      "midi": 50,
      "hit": false,
      "t": 82257.90000000033,
      "d": 537.6333333333314,
      "v": 79
    },
    {
      "midi": 54,
      "hit": false,
      "t": 82257.90000000033,
      "d": 537.6333333333314,
      "v": 79
    },
    {
      "midi": 57,
      "hit": false,
      "t": 82257.90000000033,
      "d": 537.6333333333314,
      "v": 79
    },
    {
      "midi": 38,
      "hit": false,
      "t": 82580.48000000033,
      "d": 430.10666666667385,
      "v": 79
    },
    {
      "midi": 45,
      "hit": false,
      "t": 82580.48000000033,
      "d": 430.10666666667385,
      "v": 79
    },
    {
      "midi": 50,
      "hit": false,
      "t": 82903.06000000033,
      "d": 215.0533333333442,
      "v": 79
    },
    {
      "midi": 57,
      "hit": false,
      "t": 82903.06000000033,
      "d": 215.0533333333442,
      "v": 79
    },
    {
      "midi": 60,
      "hit": false,
      "t": 82903.06000000033,
      "d": 215.0533333333442,
      "v": 79
    },
    {
      "midi": 50,
      "hit": false,
      "t": 83225.64000000035,
      "d": 215.05333333332965,
      "v": 79
    },
    {
      "midi": 57,
      "hit": false,
      "t": 83225.64000000035,
      "d": 215.05333333332965,
      "v": 79
    },
    {
      "midi": 59,
      "hit": false,
      "t": 83225.64000000035,
      "d": 215.05333333332965,
      "v": 79
    },
    {
      "midi": 33,
      "hit": false,
      "t": 83225.64000000035,
      "d": 430.10666666667385,
      "v": 79
    },
    {
      "midi": 45,
      "hit": false,
      "t": 83225.64000000035,
      "d": 430.10666666667385,
      "v": 79
    },
    {
      "midi": 50,
      "hit": false,
      "t": 83548.22000000035,
      "d": 537.6333333333314,
      "v": 79
    },
    {
      "midi": 54,
      "hit": false,
      "t": 83548.22000000035,
      "d": 537.6333333333314,
      "v": 79
    },
    {
      "midi": 57,
      "hit": false,
      "t": 83548.22000000035,
      "d": 537.6333333333314,
      "v": 79
    },
    {
      "midi": 38,
      "hit": false,
      "t": 83870.80000000035,
      "d": 430.10666666667385,
      "v": 79
    },
    {
      "midi": 45,
      "hit": false,
      "t": 83870.80000000035,
      "d": 430.10666666667385,
      "v": 79
    },
    {
      "midi": 50,
      "hit": false,
      "t": 84193.38000000035,
      "d": 537.6333333333314,
      "v": 79
    },
    {
      "midi": 54,
      "hit": false,
      "t": 84193.38000000035,
      "d": 537.6333333333314,
      "v": 79
    },
    {
      "midi": 57,
      "hit": false,
      "t": 84193.38000000035,
      "d": 537.6333333333314,
      "v": 79
    },
    {
      "midi": 38,
      "hit": false,
      "t": 84515.96000000036,
      "d": 430.10666666667385,
      "v": 79
    },
    {
      "midi": 45,
      "hit": false,
      "t": 84515.96000000036,
      "d": 430.10666666667385,
      "v": 79
    },
    {
      "midi": 50,
      "hit": false,
      "t": 84838.54000000036,
      "d": 215.0533333333442,
      "v": 79
    },
    {
      "midi": 54,
      "hit": false,
      "t": 84838.54000000036,
      "d": 215.0533333333442,
      "v": 79
    },
    {
      "midi": 57,
      "hit": false,
      "t": 84838.54000000036,
      "d": 215.0533333333442,
      "v": 79
    },
    {
      "midi": 55,
      "hit": false,
      "t": 85161.12000000037,
      "d": 215.05333333332965,
      "v": 79
    },
    {
      "midi": 59,
      "hit": false,
      "t": 85161.12000000037,
      "d": 215.05333333332965,
      "v": 79
    },
    {
      "midi": 62,
      "hit": false,
      "t": 85161.12000000037,
      "d": 215.05333333332965,
      "v": 79
    },
    {
      "midi": 43,
      "hit": false,
      "t": 85161.12000000037,
      "d": 430.10666666667385,
      "v": 79
    },
    {
      "midi": 50,
      "hit": false,
      "t": 85161.12000000037,
      "d": 430.10666666667385,
      "v": 79
    },
    {
      "midi": 55,
      "hit": false,
      "t": 85483.70000000038,
      "d": 537.6333333333314,
      "v": 79
    },
    {
      "midi": 59,
      "hit": false,
      "t": 85483.70000000038,
      "d": 537.6333333333314,
      "v": 79
    },
    {
      "midi": 62,
      "hit": false,
      "t": 85483.70000000038,
      "d": 537.6333333333314,
      "v": 79
    },
    {
      "midi": 43,
      "hit": false,
      "t": 85806.28000000038,
      "d": 430.10666666667385,
      "v": 79
    },
    {
      "midi": 52,
      "hit": false,
      "t": 85806.28000000038,
      "d": 430.10666666667385,
      "v": 79
    },
    {
      "midi": 55,
      "hit": false,
      "t": 86128.86000000038,
      "d": 537.6333333333314,
      "v": 79
    },
    {
      "midi": 59,
      "hit": false,
      "t": 86128.86000000038,
      "d": 537.6333333333314,
      "v": 79
    },
    {
      "midi": 62,
      "hit": false,
      "t": 86128.86000000038,
      "d": 537.6333333333314,
      "v": 79
    },
    {
      "midi": 43,
      "hit": false,
      "t": 86451.44000000038,
      "d": 430.10666666667385,
      "v": 79
    },
    {
      "midi": 50,
      "hit": false,
      "t": 86451.44000000038,
      "d": 430.10666666667385,
      "v": 79
    },
    {
      "midi": 55,
      "hit": false,
      "t": 86774.02000000038,
      "d": 537.6333333333314,
      "v": 79
    },
    {
      "midi": 59,
      "hit": false,
      "t": 86774.02000000038,
      "d": 537.6333333333314,
      "v": 79
    },
    {
      "midi": 62,
      "hit": false,
      "t": 86774.02000000038,
      "d": 537.6333333333314,
      "v": 79
    },
    {
      "midi": 43,
      "hit": false,
      "t": 87096.60000000038,
      "d": 430.10666666667385,
      "v": 79
    },
    {
      "midi": 52,
      "hit": false,
      "t": 87096.60000000038,
      "d": 430.10666666667385,
      "v": 79
    },
    {
      "midi": 55,
      "hit": false,
      "t": 87419.18000000039,
      "d": 215.0533333333442,
      "v": 79
    },
    {
      "midi": 59,
      "hit": false,
      "t": 87419.18000000039,
      "d": 215.0533333333442,
      "v": 79
    },
    {
      "midi": 62,
      "hit": false,
      "t": 87419.18000000039,
      "d": 215.0533333333442,
      "v": 79
    },
    {
      "midi": 67,
      "hit": false,
      "t": 87741.7600000004,
      "d": 215.05333333332965,
      "v": 79
    },
    {
      "midi": 71,
      "hit": false,
      "t": 87741.7600000004,
      "d": 215.05333333332965,
      "v": 79
    },
    {
      "midi": 74,
      "hit": false,
      "t": 87741.7600000004,
      "d": 215.05333333332965,
      "v": 79
    },
    {
      "midi": 43,
      "hit": false,
      "t": 87741.7600000004,
      "d": 430.10666666667385,
      "v": 79
    },
    {
      "midi": 50,
      "hit": false,
      "t": 87741.7600000004,
      "d": 430.10666666667385,
      "v": 79
    },
    {
      "midi": 67,
      "hit": false,
      "t": 88064.3400000004,
      "d": 215.0533333333442,
      "v": 79
    },
    {
      "midi": 71,
      "hit": false,
      "t": 88064.3400000004,
      "d": 215.0533333333442,
      "v": 79
    },
    {
      "midi": 74,
      "hit": false,
      "t": 88064.3400000004,
      "d": 215.0533333333442,
      "v": 79
    },
    {
      "midi": 67,
      "hit": false,
      "t": 88386.92000000042,
      "d": 215.05333333332965,
      "v": 79
    },
    {
      "midi": 71,
      "hit": false,
      "t": 88386.92000000042,
      "d": 215.05333333332965,
      "v": 79
    },
    {
      "midi": 74,
      "hit": false,
      "t": 88386.92000000042,
      "d": 215.05333333332965,
      "v": 79
    },
    {
      "midi": 43,
      "hit": false,
      "t": 88386.92000000042,
      "d": 430.10666666667385,
      "v": 79
    },
    {
      "midi": 52,
      "hit": false,
      "t": 88386.92000000042,
      "d": 430.10666666667385,
      "v": 79
    },
    {
      "midi": 67,
      "hit": false,
      "t": 88709.50000000042,
      "d": 215.0533333333442,
      "v": 79
    },
    {
      "midi": 71,
      "hit": false,
      "t": 88709.50000000042,
      "d": 215.0533333333442,
      "v": 79
    },
    {
      "midi": 74,
      "hit": false,
      "t": 88709.50000000042,
      "d": 215.0533333333442,
      "v": 79
    },
    {
      "midi": 65,
      "hit": false,
      "t": 89032.08000000044,
      "d": 215.05333333332965,
      "v": 79
    },
    {
      "midi": 69,
      "hit": false,
      "t": 89032.08000000044,
      "d": 215.05333333332965,
      "v": 79
    },
    {
      "midi": 72,
      "hit": false,
      "t": 89032.08000000044,
      "d": 215.05333333332965,
      "v": 79
    },
    {
      "midi": 41,
      "hit": false,
      "t": 89032.08000000044,
      "d": 430.10666666667385,
      "v": 79
    },
    {
      "midi": 48,
      "hit": false,
      "t": 89032.08000000044,
      "d": 430.10666666667385,
      "v": 79
    },
    {
      "midi": 65,
      "hit": false,
      "t": 89354.66000000044,
      "d": 215.0533333333442,
      "v": 79
    },
    {
      "midi": 69,
      "hit": false,
      "t": 89354.66000000044,
      "d": 215.0533333333442,
      "v": 79
    },
    {
      "midi": 72,
      "hit": false,
      "t": 89354.66000000044,
      "d": 215.0533333333442,
      "v": 79
    },
    {
      "midi": 41,
      "hit": false,
      "t": 89677.24000000046,
      "d": 215.05333333332965,
      "v": 79
    },
    {
      "midi": 48,
      "hit": false,
      "t": 89677.24000000046,
      "d": 215.05333333332965,
      "v": 79
    },
    {
      "midi": 65,
      "hit": false,
      "t": 89677.24000000046,
      "d": 215.05333333332965,
      "v": 79
    },
    {
      "midi": 69,
      "hit": false,
      "t": 89677.24000000046,
      "d": 215.05333333332965,
      "v": 79
    },
    {
      "midi": 72,
      "hit": false,
      "t": 89677.24000000046,
      "d": 215.05333333332965,
      "v": 79
    },
    {
      "midi": 62,
      "hit": false,
      "t": 89999.82000000046,
      "d": 215.05333333332965,
      "v": 79
    },
    {
      "midi": 66,
      "hit": false,
      "t": 89999.82000000046,
      "d": 215.05333333332965,
      "v": 79
    },
    {
      "midi": 69,
      "hit": false,
      "t": 89999.82000000046,
      "d": 215.05333333332965,
      "v": 79
    },
    {
      "midi": 50,
      "hit": false,
      "t": 89999.82000000046,
      "d": 645.1600000000035,
      "v": 79
    },
    {
      "midi": 38,
      "hit": false,
      "t": 90322.40000000046,
      "d": 430.10666666667385,
      "v": 79
    },
    {
      "midi": 50,
      "hit": false,
      "t": 90644.98000000046,
      "d": 215.0533333333442,
      "v": 79
    },
    {
      "midi": 57,
      "hit": false,
      "t": 90644.98000000046,
      "d": 215.0533333333442,
      "v": 79
    },
    {
      "midi": 60,
      "hit": false,
      "t": 90644.98000000046,
      "d": 215.0533333333442,
      "v": 79
    },
    {
      "midi": 50,
      "hit": false,
      "t": 90967.56000000048,
      "d": 215.05333333332965,
      "v": 79
    },
    {
      "midi": 57,
      "hit": false,
      "t": 90967.56000000048,
      "d": 215.05333333332965,
      "v": 79
    },
    {
      "midi": 59,
      "hit": false,
      "t": 90967.56000000048,
      "d": 215.05333333332965,
      "v": 79
    },
    {
      "midi": 33,
      "hit": false,
      "t": 90967.56000000048,
      "d": 430.10666666667385,
      "v": 79
    },
    {
      "midi": 45,
      "hit": false,
      "t": 90967.56000000048,
      "d": 430.10666666667385,
      "v": 79
    },
    {
      "midi": 50,
      "hit": false,
      "t": 91290.14000000048,
      "d": 537.6333333333314,
      "v": 79
    },
    {
      "midi": 54,
      "hit": false,
      "t": 91290.14000000048,
      "d": 537.6333333333314,
      "v": 79
    },
    {
      "midi": 57,
      "hit": false,
      "t": 91290.14000000048,
      "d": 537.6333333333314,
      "v": 79
    },
    {
      "midi": 38,
      "hit": false,
      "t": 91612.72000000048,
      "d": 430.10666666667385,
      "v": 79
    },
    {
      "midi": 45,
      "hit": false,
      "t": 91612.72000000048,
      "d": 430.10666666667385,
      "v": 79
    },
    {
      "midi": 50,
      "hit": false,
      "t": 91935.30000000048,
      "d": 215.0533333333442,
      "v": 79
    },
    {
      "midi": 57,
      "hit": false,
      "t": 91935.30000000048,
      "d": 215.0533333333442,
      "v": 79
    },
    {
      "midi": 60,
      "hit": false,
      "t": 91935.30000000048,
      "d": 215.0533333333442,
      "v": 79
    },
    {
      "midi": 50,
      "hit": false,
      "t": 92257.8800000005,
      "d": 215.05333333332965,
      "v": 79
    },
    {
      "midi": 55,
      "hit": false,
      "t": 92257.8800000005,
      "d": 215.05333333332965,
      "v": 79
    },
    {
      "midi": 59,
      "hit": false,
      "t": 92257.8800000005,
      "d": 215.05333333332965,
      "v": 79
    },
    {
      "midi": 33,
      "hit": false,
      "t": 92257.8800000005,
      "d": 430.10666666667385,
      "v": 79
    },
    {
      "midi": 45,
      "hit": false,
      "t": 92257.8800000005,
      "d": 430.10666666667385,
      "v": 79
    },
    {
      "midi": 50,
      "hit": false,
      "t": 92580.4600000005,
      "d": 537.6333333333314,
      "v": 79
    },
    {
      "midi": 54,
      "hit": false,
      "t": 92580.4600000005,
      "d": 537.6333333333314,
      "v": 79
    },
    {
      "midi": 57,
      "hit": false,
      "t": 92580.4600000005,
      "d": 537.6333333333314,
      "v": 79
    },
    {
      "midi": 38,
      "hit": false,
      "t": 92903.0400000005,
      "d": 430.10666666667385,
      "v": 79
    },
    {
      "midi": 45,
      "hit": false,
      "t": 92903.0400000005,
      "d": 430.10666666667385,
      "v": 79
    },
    {
      "midi": 50,
      "hit": false,
      "t": 93225.6200000005,
      "d": 215.0533333333442,
      "v": 79
    },
    {
      "midi": 57,
      "hit": false,
      "t": 93225.6200000005,
      "d": 215.0533333333442,
      "v": 79
    },
    {
      "midi": 60,
      "hit": false,
      "t": 93225.6200000005,
      "d": 215.0533333333442,
      "v": 79
    },
    {
      "midi": 50,
      "hit": false,
      "t": 93548.20000000052,
      "d": 215.05333333332965,
      "v": 79
    },
    {
      "midi": 55,
      "hit": false,
      "t": 93548.20000000052,
      "d": 215.05333333332965,
      "v": 79
    },
    {
      "midi": 59,
      "hit": false,
      "t": 93548.20000000052,
      "d": 215.05333333332965,
      "v": 79
    },
    {
      "midi": 33,
      "hit": false,
      "t": 93548.20000000052,
      "d": 430.10666666667385,
      "v": 79
    },
    {
      "midi": 45,
      "hit": false,
      "t": 93548.20000000052,
      "d": 430.10666666667385,
      "v": 79
    },
    {
      "midi": 50,
      "hit": false,
      "t": 93870.78000000052,
      "d": 537.6333333333314,
      "v": 79
    },
    {
      "midi": 54,
      "hit": false,
      "t": 93870.78000000052,
      "d": 537.6333333333314,
      "v": 79
    },
    {
      "midi": 57,
      "hit": false,
      "t": 93870.78000000052,
      "d": 537.6333333333314,
      "v": 79
    },
    {
      "midi": 38,
      "hit": false,
      "t": 94193.36000000052,
      "d": 430.10666666667385,
      "v": 79
    },
    {
      "midi": 45,
      "hit": false,
      "t": 94193.36000000052,
      "d": 430.10666666667385,
      "v": 79
    },
    {
      "midi": 50,
      "hit": false,
      "t": 94515.94000000053,
      "d": 215.0533333333442,
      "v": 79
    },
    {
      "midi": 54,
      "hit": false,
      "t": 94838.52000000054,
      "d": 215.05333333332965,
      "v": 79
    },
    {
      "midi": 57,
      "hit": false,
      "t": 94838.52000000054,
      "d": 215.05333333332965,
      "v": 79
    },
    {
      "midi": 38,
      "hit": false,
      "t": 94838.52000000054,
      "d": 430.10666666667385,
      "v": 79
    },
    {
      "midi": 45,
      "hit": false,
      "t": 94838.52000000054,
      "d": 430.10666666667385,
      "v": 79
    },
    {
      "midi": 62,
      "hit": false,
      "t": 95161.10000000054,
      "d": 215.0533333333442,
      "v": 79
    },
    {
      "midi": 61,
      "hit": false,
      "t": 95483.68000000056,
      "d": 215.05333333332965,
      "v": 79
    },
    {
      "midi": 64,
      "hit": false,
      "t": 95483.68000000056,
      "d": 215.05333333332965,
      "v": 79
    },
    {
      "midi": 45,
      "hit": false,
      "t": 95483.68000000056,
      "d": 430.10666666667385,
      "v": 79
    },
    {
      "midi": 52,
      "hit": false,
      "t": 95483.68000000056,
      "d": 430.10666666667385,
      "v": 79
    },
    {
      "midi": 57,
      "hit": false,
      "t": 95806.26000000056,
      "d": 215.0533333333442,
      "v": 79
    },
    {
      "midi": 61,
      "hit": false,
      "t": 96128.84000000058,
      "d": 215.05333333332965,
      "v": 79
    },
    {
      "midi": 64,
      "hit": false,
      "t": 96128.84000000058,
      "d": 215.05333333332965,
      "v": 79
    },
    {
      "midi": 45,
      "hit": false,
      "t": 96128.84000000058,
      "d": 430.10666666667385,
      "v": 79
    },
    {
      "midi": 52,
      "hit": false,
      "t": 96128.84000000058,
      "d": 430.10666666667385,
      "v": 79
    },
    {
      "midi": 57,
      "hit": false,
      "t": 96451.42000000058,
      "d": 215.0533333333442,
      "v": 79
    },
    {
      "midi": 61,
      "hit": false,
      "t": 96774.0000000006,
      "d": 215.05333333332965,
      "v": 79
    },
    {
      "midi": 64,
      "hit": false,
      "t": 96774.0000000006,
      "d": 215.05333333332965,
      "v": 79
    },
    {
      "midi": 45,
      "hit": false,
      "t": 96774.0000000006,
      "d": 430.10666666667385,
      "v": 79
    },
    {
      "midi": 52,
      "hit": false,
      "t": 96774.0000000006,
      "d": 430.10666666667385,
      "v": 79
    },
    {
      "midi": 57,
      "hit": false,
      "t": 97096.5800000006,
      "d": 215.0533333333442,
      "v": 79
    },
    {
      "midi": 61,
      "hit": false,
      "t": 97419.16000000061,
      "d": 215.05333333332965,
      "v": 79
    },
    {
      "midi": 45,
      "hit": false,
      "t": 97419.16000000061,
      "d": 430.10666666667385,
      "v": 79
    },
    {
      "midi": 52,
      "hit": false,
      "t": 97419.16000000061,
      "d": 430.10666666667385,
      "v": 79
    },
    {
      "midi": 64,
      "hit": false,
      "t": 97741.74000000062,
      "d": 215.0533333333442,
      "v": 79
    },
    {
      "midi": 59,
      "hit": false,
      "t": 98064.32000000063,
      "d": 215.05333333332965,
      "v": 79
    },
    {
      "midi": 65,
      "hit": false,
      "t": 98064.32000000063,
      "d": 215.05333333332965,
      "v": 79
    },
    {
      "midi": 43,
      "hit": false,
      "t": 98064.32000000063,
      "d": 430.10666666667385,
      "v": 79
    },
    {
      "midi": 50,
      "hit": false,
      "t": 98064.32000000063,
      "d": 430.10666666667385,
      "v": 79
    },
    {
      "midi": 55,
      "hit": false,
      "t": 98386.90000000063,
      "d": 215.0533333333442,
      "v": 79
    },
    {
      "midi": 62,
      "hit": false,
      "t": 98709.48000000065,
      "d": 215.05333333332965,
      "v": 79
    },
    {
      "midi": 65,
      "hit": false,
      "t": 98709.48000000065,
      "d": 215.05333333332965,
      "v": 79
    },
    {
      "midi": 43,
      "hit": false,
      "t": 98709.48000000065,
      "d": 430.10666666667385,
      "v": 79
    },
    {
      "midi": 50,
      "hit": false,
      "t": 98709.48000000065,
      "d": 430.10666666667385,
      "v": 79
    },
    {
      "midi": 64,
      "hit": false,
      "t": 99032.06000000065,
      "d": 215.0533333333442,
      "v": 79
    },
    {
      "midi": 65,
      "hit": false,
      "t": 99032.06000000065,
      "d": 215.0533333333442,
      "v": 79
    },
    {
      "midi": 57,
      "hit": false,
      "t": 99354.64000000067,
      "d": 215.05333333332965,
      "v": 79
    },
    {
      "midi": 62,
      "hit": false,
      "t": 99354.64000000067,
      "d": 215.05333333332965,
      "v": 79
    },
    {
      "midi": 41,
      "hit": false,
      "t": 99354.64000000067,
      "d": 430.10666666667385,
      "v": 79
    },
    {
      "midi": 48,
      "hit": false,
      "t": 99354.64000000067,
      "d": 430.10666666667385,
      "v": 79
    },
    {
      "midi": 53,
      "hit": false,
      "t": 99677.22000000067,
      "d": 215.0533333333442,
      "v": 79
    },
    {
      "midi": 41,
      "hit": false,
      "t": 99999.80000000069,
      "d": 430.10666666667385,
      "v": 79
    },
    {
      "midi": 48,
      "hit": false,
      "t": 99999.80000000069,
      "d": 430.10666666667385,
      "v": 79
    },
    {
      "midi": 53,
      "hit": false,
      "t": 99999.80000000069,
      "d": 430.10666666667385,
      "v": 79
    },
    {
      "midi": 57,
      "hit": false,
      "t": 99999.80000000069,
      "d": 430.10666666667385,
      "v": 79
    },
    {
      "midi": 60,
      "hit": false,
      "t": 99999.80000000069,
      "d": 430.10666666667385,
      "v": 79
    },
    {
      "midi": 38,
      "hit": false,
      "t": 100644.96000000069,
      "d": 430.10666666667385,
      "v": 79
    },
    {
      "midi": 45,
      "hit": false,
      "t": 100644.96000000069,
      "d": 430.10666666667385,
      "v": 79
    },
    {
      "midi": 50,
      "hit": false,
      "t": 100967.54000000069,
      "d": 215.0533333333442,
      "v": 79
    },
    {
      "midi": 57,
      "hit": false,
      "t": 100967.54000000069,
      "d": 215.0533333333442,
      "v": 79
    },
    {
      "midi": 60,
      "hit": false,
      "t": 100967.54000000069,
      "d": 215.0533333333442,
      "v": 79
    },
    {
      "midi": 50,
      "hit": false,
      "t": 101290.12000000071,
      "d": 215.05333333332965,
      "v": 79
    },
    {
      "midi": 55,
      "hit": false,
      "t": 101290.12000000071,
      "d": 215.05333333332965,
      "v": 79
    },
    {
      "midi": 59,
      "hit": false,
      "t": 101290.12000000071,
      "d": 215.05333333332965,
      "v": 79
    },
    {
      "midi": 33,
      "hit": false,
      "t": 101290.12000000071,
      "d": 430.10666666667385,
      "v": 79
    },
    {
      "midi": 45,
      "hit": false,
      "t": 101290.12000000071,
      "d": 430.10666666667385,
      "v": 79
    },
    {
      "midi": 50,
      "hit": false,
      "t": 101612.70000000071,
      "d": 107.5266666666721,
      "v": 79
    },
    {
      "midi": 54,
      "hit": false,
      "t": 101612.70000000071,
      "d": 107.5266666666721,
      "v": 79
    },
    {
      "midi": 57,
      "hit": false,
      "t": 101612.70000000071,
      "d": 107.5266666666721,
      "v": 79
    },
    {
      "midi": 50,
      "hit": false,
      "t": 101773.99000000072,
      "d": 376.34333333332324,
      "v": 79
    },
    {
      "midi": 54,
      "hit": false,
      "t": 101773.99000000072,
      "d": 376.34333333332324,
      "v": 79
    },
    {
      "midi": 57,
      "hit": false,
      "t": 101773.99000000072,
      "d": 376.34333333332324,
      "v": 79
    },
    {
      "midi": 38,
      "hit": false,
      "t": 101935.28000000071,
      "d": 430.10666666667385,
      "v": 79
    },
    {
      "midi": 45,
      "hit": false,
      "t": 101935.28000000071,
      "d": 430.10666666667385,
      "v": 79
    },
    {
      "midi": 50,
      "hit": false,
      "t": 102257.86000000071,
      "d": 215.0533333333442,
      "v": 79
    },
    {
      "midi": 57,
      "hit": false,
      "t": 102257.86000000071,
      "d": 215.0533333333442,
      "v": 79
    },
    {
      "midi": 60,
      "hit": false,
      "t": 102257.86000000071,
      "d": 215.0533333333442,
      "v": 79
    },
    {
      "midi": 50,
      "hit": false,
      "t": 102580.44000000073,
      "d": 215.05333333332965,
      "v": 79
    },
    {
      "midi": 57,
      "hit": false,
      "t": 102580.44000000073,
      "d": 215.05333333332965,
      "v": 79
    },
    {
      "midi": 59,
      "hit": false,
      "t": 102580.44000000073,
      "d": 215.05333333332965,
      "v": 79
    },
    {
      "midi": 33,
      "hit": false,
      "t": 102580.44000000073,
      "d": 430.10666666667385,
      "v": 79
    },
    {
      "midi": 45,
      "hit": false,
      "t": 102580.44000000073,
      "d": 430.10666666667385,
      "v": 79
    },
    {
      "midi": 50,
      "hit": false,
      "t": 102903.02000000073,
      "d": 537.6333333333314,
      "v": 79
    },
    {
      "midi": 54,
      "hit": false,
      "t": 102903.02000000073,
      "d": 537.6333333333314,
      "v": 79
    },
    {
      "midi": 57,
      "hit": false,
      "t": 102903.02000000073,
      "d": 537.6333333333314,
      "v": 79
    },
    {
      "midi": 38,
      "hit": false,
      "t": 103225.60000000073,
      "d": 430.10666666667385,
      "v": 79
    },
    {
      "midi": 45,
      "hit": false,
      "t": 103225.60000000073,
      "d": 430.10666666667385,
      "v": 79
    },
    {
      "midi": 50,
      "hit": false,
      "t": 103548.18000000074,
      "d": 215.0533333333442,
      "v": 79
    },
    {
      "midi": 57,
      "hit": false,
      "t": 103548.18000000074,
      "d": 215.0533333333442,
      "v": 79
    },
    {
      "midi": 60,
      "hit": false,
      "t": 103548.18000000074,
      "d": 215.0533333333442,
      "v": 79
    },
    {
      "midi": 50,
      "hit": false,
      "t": 103870.76000000075,
      "d": 215.05333333332965,
      "v": 79
    },
    {
      "midi": 57,
      "hit": false,
      "t": 103870.76000000075,
      "d": 215.05333333332965,
      "v": 79
    },
    {
      "midi": 59,
      "hit": false,
      "t": 103870.76000000075,
      "d": 215.05333333332965,
      "v": 79
    },
    {
      "midi": 33,
      "hit": false,
      "t": 103870.76000000075,
      "d": 430.10666666667385,
      "v": 79
    },
    {
      "midi": 45,
      "hit": false,
      "t": 103870.76000000075,
      "d": 430.10666666667385,
      "v": 79
    },
    {
      "midi": 50,
      "hit": false,
      "t": 104193.34000000075,
      "d": 537.6333333333314,
      "v": 79
    },
    {
      "midi": 54,
      "hit": false,
      "t": 104193.34000000075,
      "d": 537.6333333333314,
      "v": 79
    },
    {
      "midi": 57,
      "hit": false,
      "t": 104193.34000000075,
      "d": 537.6333333333314,
      "v": 79
    },
    {
      "midi": 38,
      "hit": false,
      "t": 104515.92000000075,
      "d": 430.10666666667385,
      "v": 79
    },
    {
      "midi": 45,
      "hit": false,
      "t": 104515.92000000075,
      "d": 430.10666666667385,
      "v": 79
    },
    {
      "midi": 50,
      "hit": false,
      "t": 104838.50000000076,
      "d": 537.6333333333314,
      "v": 79
    },
    {
      "midi": 54,
      "hit": false,
      "t": 104838.50000000076,
      "d": 537.6333333333314,
      "v": 79
    },
    {
      "midi": 57,
      "hit": false,
      "t": 104838.50000000076,
      "d": 537.6333333333314,
      "v": 79
    },
    {
      "midi": 38,
      "hit": false,
      "t": 105161.08000000076,
      "d": 215.05333333332965,
      "v": 79
    },
    {
      "midi": 45,
      "hit": false,
      "t": 105161.08000000076,
      "d": 215.05333333332965,
      "v": 79
    },
    {
      "midi": 55,
      "hit": false,
      "t": 105483.66000000076,
      "d": 215.05333333332965,
      "v": 79
    },
    {
      "midi": 59,
      "hit": false,
      "t": 105483.66000000076,
      "d": 215.05333333332965,
      "v": 79
    },
    {
      "midi": 62,
      "hit": false,
      "t": 105483.66000000076,
      "d": 215.05333333332965,
      "v": 79
    },
    {
      "midi": 55,
      "hit": false,
      "t": 105806.24000000076,
      "d": 215.05333333332965,
      "v": 79
    },
    {
      "midi": 59,
      "hit": false,
      "t": 105806.24000000076,
      "d": 215.05333333332965,
      "v": 79
    },
    {
      "midi": 62,
      "hit": false,
      "t": 105806.24000000076,
      "d": 215.05333333332965,
      "v": 79
    },
    {
      "midi": 43,
      "hit": false,
      "t": 105806.24000000076,
      "d": 430.10666666667385,
      "v": 79
    },
    {
      "midi": 50,
      "hit": false,
      "t": 105806.24000000076,
      "d": 430.10666666667385,
      "v": 79
    },
    {
      "midi": 55,
      "hit": false,
      "t": 106128.82000000076,
      "d": 537.6333333333314,
      "v": 79
    },
    {
      "midi": 59,
      "hit": false,
      "t": 106128.82000000076,
      "d": 537.6333333333314,
      "v": 79
    },
    {
      "midi": 62,
      "hit": false,
      "t": 106128.82000000076,
      "d": 537.6333333333314,
      "v": 79
    },
    {
      "midi": 43,
      "hit": false,
      "t": 106451.40000000077,
      "d": 430.10666666667385,
      "v": 79
    },
    {
      "midi": 52,
      "hit": false,
      "t": 106451.40000000077,
      "d": 430.10666666667385,
      "v": 79
    },
    {
      "midi": 55,
      "hit": false,
      "t": 106773.98000000077,
      "d": 537.6333333333314,
      "v": 79
    },
    {
      "midi": 59,
      "hit": false,
      "t": 106773.98000000077,
      "d": 537.6333333333314,
      "v": 79
    },
    {
      "midi": 62,
      "hit": false,
      "t": 106773.98000000077,
      "d": 537.6333333333314,
      "v": 79
    },
    {
      "midi": 43,
      "hit": false,
      "t": 107096.56000000077,
      "d": 430.10666666667385,
      "v": 79
    },
    {
      "midi": 50,
      "hit": false,
      "t": 107096.56000000077,
      "d": 430.10666666667385,
      "v": 79
    },
    {
      "midi": 55,
      "hit": false,
      "t": 107419.14000000077,
      "d": 537.6333333333314,
      "v": 79
    },
    {
      "midi": 59,
      "hit": false,
      "t": 107419.14000000077,
      "d": 537.6333333333314,
      "v": 79
    },
    {
      "midi": 62,
      "hit": false,
      "t": 107419.14000000077,
      "d": 537.6333333333314,
      "v": 79
    },
    {
      "midi": 43,
      "hit": false,
      "t": 107741.72000000077,
      "d": 430.10666666667385,
      "v": 79
    },
    {
      "midi": 52,
      "hit": false,
      "t": 107741.72000000077,
      "d": 430.10666666667385,
      "v": 79
    },
    {
      "midi": 55,
      "hit": false,
      "t": 108064.30000000077,
      "d": 215.0533333333442,
      "v": 79
    },
    {
      "midi": 59,
      "hit": false,
      "t": 108064.30000000077,
      "d": 215.0533333333442,
      "v": 79
    },
    {
      "midi": 62,
      "hit": false,
      "t": 108064.30000000077,
      "d": 215.0533333333442,
      "v": 79
    },
    {
      "midi": 55,
      "hit": false,
      "t": 108386.88000000079,
      "d": 215.05333333332965,
      "v": 79
    },
    {
      "midi": 59,
      "hit": false,
      "t": 108386.88000000079,
      "d": 215.05333333332965,
      "v": 79
    },
    {
      "midi": 62,
      "hit": false,
      "t": 108386.88000000079,
      "d": 215.05333333332965,
      "v": 79
    },
    {
      "midi": 43,
      "hit": false,
      "t": 108386.88000000079,
      "d": 430.10666666667385,
      "v": 79
    },
    {
      "midi": 50,
      "hit": false,
      "t": 108386.88000000079,
      "d": 430.10666666667385,
      "v": 79
    },
    {
      "midi": 55,
      "hit": false,
      "t": 108709.46000000079,
      "d": 537.6333333333314,
      "v": 79
    },
    {
      "midi": 59,
      "hit": false,
      "t": 108709.46000000079,
      "d": 537.6333333333314,
      "v": 79
    },
    {
      "midi": 62,
      "hit": false,
      "t": 108709.46000000079,
      "d": 537.6333333333314,
      "v": 79
    },
    {
      "midi": 43,
      "hit": false,
      "t": 109032.0400000008,
      "d": 430.10666666667385,
      "v": 79
    },
    {
      "midi": 52,
      "hit": false,
      "t": 109032.0400000008,
      "d": 430.10666666667385,
      "v": 79
    },
    {
      "midi": 55,
      "hit": false,
      "t": 109354.6200000008,
      "d": 215.0533333333442,
      "v": 79
    },
    {
      "midi": 59,
      "hit": false,
      "t": 109354.6200000008,
      "d": 215.0533333333442,
      "v": 79
    },
    {
      "midi": 62,
      "hit": false,
      "t": 109354.6200000008,
      "d": 215.0533333333442,
      "v": 79
    },
    {
      "midi": 53,
      "hit": false,
      "t": 109677.20000000081,
      "d": 215.05333333332965,
      "v": 79
    },
    {
      "midi": 57,
      "hit": false,
      "t": 109677.20000000081,
      "d": 215.05333333332965,
      "v": 79
    },
    {
      "midi": 60,
      "hit": false,
      "t": 109677.20000000081,
      "d": 215.05333333332965,
      "v": 79
    },
    {
      "midi": 41,
      "hit": false,
      "t": 109677.20000000081,
      "d": 430.10666666667385,
      "v": 79
    },
    {
      "midi": 48,
      "hit": false,
      "t": 109677.20000000081,
      "d": 430.10666666667385,
      "v": 79
    },
    {
      "midi": 53,
      "hit": false,
      "t": 109999.78000000081,
      "d": 215.0533333333442,
      "v": 79
    },
    {
      "midi": 57,
      "hit": false,
      "t": 109999.78000000081,
      "d": 215.0533333333442,
      "v": 79
    },
    {
      "midi": 60,
      "hit": false,
      "t": 109999.78000000081,
      "d": 215.0533333333442,
      "v": 79
    },
    {
      "midi": 41,
      "hit": false,
      "t": 110322.36000000083,
      "d": 215.05333333332965,
      "v": 79
    },
    {
      "midi": 48,
      "hit": false,
      "t": 110322.36000000083,
      "d": 215.05333333332965,
      "v": 79
    },
    {
      "midi": 50,
      "hit": false,
      "t": 110644.94000000083,
      "d": 322.58000000000175,
      "v": 79
    },
    {
      "midi": 50,
      "hit": false,
      "t": 110967.52000000083,
      "d": 215.05333333332965,
      "v": 79
    },
    {
      "midi": 54,
      "hit": false,
      "t": 110967.52000000083,
      "d": 215.05333333332965,
      "v": 79
    },
    {
      "midi": 57,
      "hit": false,
      "t": 110967.52000000083,
      "d": 215.05333333332965,
      "v": 79
    },
    {
      "midi": 38,
      "hit": false,
      "t": 110967.52000000083,
      "d": 430.10666666667385,
      "v": 79
    },
    {
      "midi": 50,
      "hit": false,
      "t": 111290.10000000084,
      "d": 215.0533333333442,
      "v": 79
    },
    {
      "midi": 54,
      "hit": false,
      "t": 111290.10000000084,
      "d": 215.0533333333442,
      "v": 79
    },
    {
      "midi": 59,
      "hit": false,
      "t": 111290.10000000084,
      "d": 215.0533333333442,
      "v": 79
    },
    {
      "midi": 50,
      "hit": false,
      "t": 111612.68000000085,
      "d": 215.05333333332965,
      "v": 79
    },
    {
      "midi": 57,
      "hit": false,
      "t": 111612.68000000085,
      "d": 215.05333333332965,
      "v": 79
    },
    {
      "midi": 33,
      "hit": false,
      "t": 111612.68000000085,
      "d": 430.10666666667385,
      "v": 79
    },
    {
      "midi": 45,
      "hit": false,
      "t": 111612.68000000085,
      "d": 430.10666666667385,
      "v": 79
    },
    {
      "midi": 50,
      "hit": false,
      "t": 111935.26000000085,
      "d": 537.6333333333314,
      "v": 79
    },
    {
      "midi": 54,
      "hit": false,
      "t": 111935.26000000085,
      "d": 537.6333333333314,
      "v": 79
    },
    {
      "midi": 57,
      "hit": false,
      "t": 111935.26000000085,
      "d": 537.6333333333314,
      "v": 79
    },
    {
      "midi": 38,
      "hit": false,
      "t": 112257.84000000086,
      "d": 430.10666666667385,
      "v": 79
    },
    {
      "midi": 45,
      "hit": false,
      "t": 112257.84000000086,
      "d": 430.10666666667385,
      "v": 79
    },
    {
      "midi": 50,
      "hit": false,
      "t": 112580.42000000086,
      "d": 215.0533333333442,
      "v": 79
    },
    {
      "midi": 54,
      "hit": false,
      "t": 112580.42000000086,
      "d": 215.0533333333442,
      "v": 79
    },
    {
      "midi": 60,
      "hit": false,
      "t": 112580.42000000086,
      "d": 215.0533333333442,
      "v": 79
    },
    {
      "midi": 50,
      "hit": false,
      "t": 112903.00000000087,
      "d": 215.05333333332965,
      "v": 79
    },
    {
      "midi": 54,
      "hit": false,
      "t": 112903.00000000087,
      "d": 215.05333333332965,
      "v": 79
    },
    {
      "midi": 59,
      "hit": false,
      "t": 112903.00000000087,
      "d": 215.05333333332965,
      "v": 79
    },
    {
      "midi": 33,
      "hit": false,
      "t": 112903.00000000087,
      "d": 430.10666666667385,
      "v": 79
    },
    {
      "midi": 45,
      "hit": false,
      "t": 112903.00000000087,
      "d": 430.10666666667385,
      "v": 79
    },
    {
      "midi": 50,
      "hit": false,
      "t": 113225.58000000087,
      "d": 537.6333333333314,
      "v": 79
    },
    {
      "midi": 54,
      "hit": false,
      "t": 113225.58000000087,
      "d": 537.6333333333314,
      "v": 79
    },
    {
      "midi": 57,
      "hit": false,
      "t": 113225.58000000087,
      "d": 537.6333333333314,
      "v": 79
    },
    {
      "midi": 38,
      "hit": false,
      "t": 113548.16000000088,
      "d": 430.10666666667385,
      "v": 79
    },
    {
      "midi": 45,
      "hit": false,
      "t": 113548.16000000088,
      "d": 430.10666666667385,
      "v": 79
    },
    {
      "midi": 50,
      "hit": false,
      "t": 113870.74000000088,
      "d": 215.0533333333442,
      "v": 79
    },
    {
      "midi": 57,
      "hit": false,
      "t": 113870.74000000088,
      "d": 215.0533333333442,
      "v": 79
    },
    {
      "midi": 60,
      "hit": false,
      "t": 113870.74000000088,
      "d": 215.0533333333442,
      "v": 79
    },
    {
      "midi": 50,
      "hit": false,
      "t": 114193.3200000009,
      "d": 215.05333333332965,
      "v": 79
    },
    {
      "midi": 57,
      "hit": false,
      "t": 114193.3200000009,
      "d": 215.05333333332965,
      "v": 79
    },
    {
      "midi": 59,
      "hit": false,
      "t": 114193.3200000009,
      "d": 215.05333333332965,
      "v": 79
    },
    {
      "midi": 33,
      "hit": false,
      "t": 114193.3200000009,
      "d": 430.10666666667385,
      "v": 79
    },
    {
      "midi": 45,
      "hit": false,
      "t": 114193.3200000009,
      "d": 430.10666666667385,
      "v": 79
    },
    {
      "midi": 50,
      "hit": false,
      "t": 114515.9000000009,
      "d": 107.5266666666721,
      "v": 79
    },
    {
      "midi": 56,
      "hit": false,
      "t": 114515.9000000009,
      "d": 107.5266666666721,
      "v": 79
    },
    {
      "midi": 59,
      "hit": false,
      "t": 114515.9000000009,
      "d": 107.5266666666721,
      "v": 79
    },
    {
      "midi": 56,
      "hit": false,
      "t": 114677.1900000009,
      "d": 107.5266666666721,
      "v": 79
    },
    {
      "midi": 38,
      "hit": false,
      "t": 114838.48000000091,
      "d": 430.10666666667385,
      "v": 79
    },
    {
      "midi": 45,
      "hit": false,
      "t": 114838.48000000091,
      "d": 430.10666666667385,
      "v": 79
    },
    {
      "midi": 50,
      "hit": false,
      "t": 115161.06000000091,
      "d": 537.6333333333314,
      "v": 79
    },
    {
      "midi": 54,
      "hit": false,
      "t": 115161.06000000091,
      "d": 537.6333333333314,
      "v": 79
    },
    {
      "midi": 57,
      "hit": false,
      "t": 115161.06000000091,
      "d": 537.6333333333314,
      "v": 79
    },
    {
      "midi": 38,
      "hit": false,
      "t": 115483.64000000092,
      "d": 215.05333333332965,
      "v": 79
    },
    {
      "midi": 45,
      "hit": false,
      "t": 115483.64000000092,
      "d": 215.05333333332965,
      "v": 79
    },
    {
      "midi": 56,
      "hit": false,
      "t": 115806.22000000092,
      "d": 215.05333333332965,
      "v": 79
    },
    {
      "midi": 59,
      "hit": false,
      "t": 115806.22000000092,
      "d": 215.05333333332965,
      "v": 79
    },
    {
      "midi": 62,
      "hit": false,
      "t": 115806.22000000092,
      "d": 215.05333333332965,
      "v": 79
    },
    {
      "midi": 55,
      "hit": false,
      "t": 116128.80000000092,
      "d": 215.05333333332965,
      "v": 79
    },
    {
      "midi": 59,
      "hit": false,
      "t": 116128.80000000092,
      "d": 215.05333333332965,
      "v": 79
    },
    {
      "midi": 62,
      "hit": false,
      "t": 116128.80000000092,
      "d": 215.05333333332965,
      "v": 79
    },
    {
      "midi": 43,
      "hit": false,
      "t": 116128.80000000092,
      "d": 430.10666666667385,
      "v": 79
    },
    {
      "midi": 50,
      "hit": false,
      "t": 116128.80000000092,
      "d": 430.10666666667385,
      "v": 79
    },
    {
      "midi": 55,
      "hit": false,
      "t": 116451.38000000092,
      "d": 537.6333333333314,
      "v": 79
    },
    {
      "midi": 59,
      "hit": false,
      "t": 116451.38000000092,
      "d": 537.6333333333314,
      "v": 79
    },
    {
      "midi": 62,
      "hit": false,
      "t": 116451.38000000092,
      "d": 537.6333333333314,
      "v": 79
    },
    {
      "midi": 43,
      "hit": false,
      "t": 116773.96000000092,
      "d": 430.10666666667385,
      "v": 79
    },
    {
      "midi": 52,
      "hit": false,
      "t": 116773.96000000092,
      "d": 430.10666666667385,
      "v": 79
    },
    {
      "midi": 55,
      "hit": false,
      "t": 117096.54000000092,
      "d": 215.0533333333442,
      "v": 79
    },
    {
      "midi": 59,
      "hit": false,
      "t": 117096.54000000092,
      "d": 215.0533333333442,
      "v": 79
    },
    {
      "midi": 62,
      "hit": false,
      "t": 117096.54000000092,
      "d": 215.0533333333442,
      "v": 79
    },
    {
      "midi": 55,
      "hit": false,
      "t": 117419.12000000094,
      "d": 215.05333333332965,
      "v": 79
    },
    {
      "midi": 59,
      "hit": false,
      "t": 117419.12000000094,
      "d": 215.05333333332965,
      "v": 79
    },
    {
      "midi": 62,
      "hit": false,
      "t": 117419.12000000094,
      "d": 215.05333333332965,
      "v": 79
    },
    {
      "midi": 43,
      "hit": false,
      "t": 117419.12000000094,
      "d": 430.10666666667385,
      "v": 79
    },
    {
      "midi": 50,
      "hit": false,
      "t": 117419.12000000094,
      "d": 430.10666666667385,
      "v": 79
    },
    {
      "midi": 55,
      "hit": false,
      "t": 117741.70000000094,
      "d": 215.0533333333442,
      "v": 79
    },
    {
      "midi": 55,
      "hit": false,
      "t": 118064.28000000096,
      "d": 215.05333333332965,
      "v": 79
    },
    {
      "midi": 59,
      "hit": false,
      "t": 118064.28000000096,
      "d": 215.05333333332965,
      "v": 79
    },
    {
      "midi": 62,
      "hit": false,
      "t": 118064.28000000096,
      "d": 215.05333333332965,
      "v": 79
    },
    {
      "midi": 43,
      "hit": false,
      "t": 118064.28000000096,
      "d": 430.10666666667385,
      "v": 79
    },
    {
      "midi": 52,
      "hit": false,
      "t": 118064.28000000096,
      "d": 430.10666666667385,
      "v": 79
    },
    {
      "midi": 55,
      "hit": false,
      "t": 118386.86000000096,
      "d": 215.0533333333442,
      "v": 79
    },
    {
      "midi": 59,
      "hit": false,
      "t": 118386.86000000096,
      "d": 215.0533333333442,
      "v": 79
    },
    {
      "midi": 62,
      "hit": false,
      "t": 118386.86000000096,
      "d": 215.0533333333442,
      "v": 79
    },
    {
      "midi": 55,
      "hit": false,
      "t": 118709.44000000098,
      "d": 215.05333333332965,
      "v": 79
    },
    {
      "midi": 59,
      "hit": false,
      "t": 118709.44000000098,
      "d": 215.05333333332965,
      "v": 79
    },
    {
      "midi": 62,
      "hit": false,
      "t": 118709.44000000098,
      "d": 215.05333333332965,
      "v": 79
    },
    {
      "midi": 43,
      "hit": false,
      "t": 118709.44000000098,
      "d": 430.10666666667385,
      "v": 79
    },
    {
      "midi": 50,
      "hit": false,
      "t": 118709.44000000098,
      "d": 430.10666666667385,
      "v": 79
    },
    {
      "midi": 55,
      "hit": false,
      "t": 119032.02000000098,
      "d": 215.0533333333442,
      "v": 79
    },
    {
      "midi": 59,
      "hit": false,
      "t": 119032.02000000098,
      "d": 215.0533333333442,
      "v": 79
    },
    {
      "midi": 62,
      "hit": false,
      "t": 119032.02000000098,
      "d": 215.0533333333442,
      "v": 79
    },
    {
      "midi": 55,
      "hit": false,
      "t": 119354.600000001,
      "d": 215.05333333332965,
      "v": 79
    },
    {
      "midi": 59,
      "hit": false,
      "t": 119354.600000001,
      "d": 215.05333333332965,
      "v": 79
    },
    {
      "midi": 62,
      "hit": false,
      "t": 119354.600000001,
      "d": 215.05333333332965,
      "v": 79
    },
    {
      "midi": 43,
      "hit": false,
      "t": 119354.600000001,
      "d": 430.10666666667385,
      "v": 79
    },
    {
      "midi": 52,
      "hit": false,
      "t": 119354.600000001,
      "d": 430.10666666667385,
      "v": 79
    },
    {
      "midi": 55,
      "hit": false,
      "t": 119677.180000001,
      "d": 215.0533333333442,
      "v": 79
    },
    {
      "midi": 59,
      "hit": false,
      "t": 119677.180000001,
      "d": 215.0533333333442,
      "v": 79
    },
    {
      "midi": 62,
      "hit": false,
      "t": 119677.180000001,
      "d": 215.0533333333442,
      "v": 79
    },
    {
      "midi": 53,
      "hit": false,
      "t": 119999.76000000101,
      "d": 215.05333333332965,
      "v": 79
    },
    {
      "midi": 57,
      "hit": false,
      "t": 119999.76000000101,
      "d": 215.05333333332965,
      "v": 79
    },
    {
      "midi": 60,
      "hit": false,
      "t": 119999.76000000101,
      "d": 215.05333333332965,
      "v": 79
    },
    {
      "midi": 41,
      "hit": false,
      "t": 119999.76000000101,
      "d": 430.10666666667385,
      "v": 79
    },
    {
      "midi": 48,
      "hit": false,
      "t": 119999.76000000101,
      "d": 430.10666666667385,
      "v": 79
    },
    {
      "midi": 53,
      "hit": false,
      "t": 120322.34000000102,
      "d": 215.0533333333442,
      "v": 79
    },
    {
      "midi": 57,
      "hit": false,
      "t": 120322.34000000102,
      "d": 215.0533333333442,
      "v": 79
    },
    {
      "midi": 60,
      "hit": false,
      "t": 120322.34000000102,
      "d": 215.0533333333442,
      "v": 79
    },
    {
      "midi": 41,
      "hit": false,
      "t": 120644.92000000103,
      "d": 215.05333333332965,
      "v": 79
    },
    {
      "midi": 48,
      "hit": false,
      "t": 120644.92000000103,
      "d": 215.05333333332965,
      "v": 79
    },
    {
      "midi": 53,
      "hit": false,
      "t": 120644.92000000103,
      "d": 215.05333333332965,
      "v": 79
    },
    {
      "midi": 57,
      "hit": false,
      "t": 120644.92000000103,
      "d": 215.05333333332965,
      "v": 79
    },
    {
      "midi": 60,
      "hit": false,
      "t": 120644.92000000103,
      "d": 215.05333333332965,
      "v": 79
    },
    {
      "midi": 50,
      "hit": false,
      "t": 120967.50000000103,
      "d": 2.6881666666595265,
      "v": 79
    },
    {
      "midi": 54,
      "hit": false,
      "t": 120967.50000000103,
      "d": 215.05333333332965,
      "v": 79
    },
    {
      "midi": 57,
      "hit": false,
      "t": 120967.50000000103,
      "d": 215.05333333332965,
      "v": 79
    },
    {
      "midi": 38,
      "hit": false,
      "t": 121290.08000000103,
      "d": 430.10666666667385,
      "v": 79
    },
    {
      "midi": 50,
      "hit": false,
      "t": 121290.08000000103,
      "d": 430.10666666667385,
      "v": 79
    },
    {
      "midi": 54,
      "hit": false,
      "t": 121290.08000000103,
      "d": 430.10666666667385,
      "v": 79
    },
    {
      "midi": 57,
      "hit": false,
      "t": 121290.08000000103,
      "d": 430.10666666667385,
      "v": 79
    },
    {
      "midi": 50,
      "hit": false,
      "t": 121935.24000000104,
      "d": 215.05333333332965,
      "v": 79
    },
    {
      "midi": 55,
      "hit": false,
      "t": 121935.24000000104,
      "d": 215.05333333332965,
      "v": 79
    },
    {
      "midi": 58,
      "hit": false,
      "t": 121935.24000000104,
      "d": 215.05333333332965,
      "v": 79
    },
    {
      "midi": 33,
      "hit": false,
      "t": 121935.24000000104,
      "d": 430.10666666667385,
      "v": 79
    },
    {
      "midi": 45,
      "hit": false,
      "t": 121935.24000000104,
      "d": 430.10666666667385,
      "v": 79
    },
    {
      "midi": 50,
      "hit": false,
      "t": 122257.82000000104,
      "d": 215.0533333333442,
      "v": 79
    },
    {
      "midi": 56,
      "hit": false,
      "t": 122257.82000000104,
      "d": 215.0533333333442,
      "v": 79
    },
    {
      "midi": 59,
      "hit": false,
      "t": 122257.82000000104,
      "d": 215.0533333333442,
      "v": 79
    },
    {
      "midi": 38,
      "hit": false,
      "t": 122580.40000000106,
      "d": 430.10666666667385,
      "v": 79
    },
    {
      "midi": 45,
      "hit": false,
      "t": 122580.40000000106,
      "d": 430.10666666667385,
      "v": 79
    },
    {
      "midi": 50,
      "hit": false,
      "t": 122580.40000000106,
      "d": 430.10666666667385,
      "v": 79
    },
    {
      "midi": 54,
      "hit": false,
      "t": 122580.40000000106,
      "d": 430.10666666667385,
      "v": 79
    },
    {
      "midi": 57,
      "hit": false,
      "t": 122580.40000000106,
      "d": 430.10666666667385,
      "v": 79
    },
    {
      "midi": 50,
      "hit": false,
      "t": 123225.56000000106,
      "d": 215.05333333332965,
      "v": 79
    },
    {
      "midi": 57,
      "hit": false,
      "t": 123225.56000000106,
      "d": 215.05333333332965,
      "v": 79
    },
    {
      "midi": 60,
      "hit": false,
      "t": 123225.56000000106,
      "d": 215.05333333332965,
      "v": 79
    },
    {
      "midi": 33,
      "hit": false,
      "t": 123225.56000000106,
      "d": 430.10666666667385,
      "v": 79
    },
    {
      "midi": 45,
      "hit": false,
      "t": 123225.56000000106,
      "d": 430.10666666667385,
      "v": 79
    },
    {
      "midi": 50,
      "hit": false,
      "t": 123548.14000000106,
      "d": 215.0533333333442,
      "v": 79
    },
    {
      "midi": 57,
      "hit": false,
      "t": 123548.14000000106,
      "d": 215.0533333333442,
      "v": 79
    },
    {
      "midi": 59,
      "hit": false,
      "t": 123548.14000000106,
      "d": 215.0533333333442,
      "v": 79
    },
    {
      "midi": 50,
      "hit": false,
      "t": 123870.72000000108,
      "d": 215.05333333332965,
      "v": 79
    },
    {
      "midi": 54,
      "hit": false,
      "t": 123870.72000000108,
      "d": 215.05333333332965,
      "v": 79
    },
    {
      "midi": 57,
      "hit": false,
      "t": 123870.72000000108,
      "d": 215.05333333332965,
      "v": 79
    },
    {
      "midi": 38,
      "hit": false,
      "t": 123870.72000000108,
      "d": 430.10666666667385,
      "v": 79
    },
    {
      "midi": 45,
      "hit": false,
      "t": 123870.72000000108,
      "d": 430.10666666667385,
      "v": 79
    },
    {
      "midi": 50,
      "hit": false,
      "t": 124193.30000000108,
      "d": 215.0533333333442,
      "v": 79
    },
    {
      "midi": 54,
      "hit": false,
      "t": 124193.30000000108,
      "d": 215.0533333333442,
      "v": 79
    },
    {
      "midi": 57,
      "hit": false,
      "t": 124193.30000000108,
      "d": 215.0533333333442,
      "v": 79
    },
    {
      "midi": 50,
      "hit": false,
      "t": 124515.8800000011,
      "d": 215.05333333332965,
      "v": 79
    },
    {
      "midi": 55,
      "hit": false,
      "t": 124515.8800000011,
      "d": 215.05333333332965,
      "v": 79
    },
    {
      "midi": 59,
      "hit": false,
      "t": 124515.8800000011,
      "d": 215.05333333332965,
      "v": 79
    },
    {
      "midi": 33,
      "hit": false,
      "t": 124515.8800000011,
      "d": 430.10666666667385,
      "v": 79
    },
    {
      "midi": 45,
      "hit": false,
      "t": 124515.8800000011,
      "d": 430.10666666667385,
      "v": 79
    },
    {
      "midi": 50,
      "hit": false,
      "t": 124838.4600000011,
      "d": 537.6333333333314,
      "v": 79
    },
    {
      "midi": 54,
      "hit": false,
      "t": 124838.4600000011,
      "d": 537.6333333333314,
      "v": 79
    },
    {
      "midi": 60,
      "hit": false,
      "t": 124838.4600000011,
      "d": 537.6333333333314,
      "v": 79
    },
    {
      "midi": 45,
      "hit": false,
      "t": 125161.0400000011,
      "d": 322.58000000000175,
      "v": 79
    },
    {
      "midi": 38,
      "hit": false,
      "t": 125161.0400000011,
      "d": 430.10666666667385,
      "v": 79
    },
    {
      "midi": 50,
      "hit": false,
      "t": 125483.6200000011,
      "d": 537.6333333333314,
      "v": 79
    },
    {
      "midi": 54,
      "hit": false,
      "t": 125483.6200000011,
      "d": 537.6333333333314,
      "v": 79
    },
    {
      "midi": 59,
      "hit": false,
      "t": 125483.6200000011,
      "d": 537.6333333333314,
      "v": 79
    },
    {
      "midi": 38,
      "hit": false,
      "t": 125806.2000000011,
      "d": 430.10666666667385,
      "v": 79
    },
    {
      "midi": 45,
      "hit": false,
      "t": 125806.2000000011,
      "d": 537.633333333346,
      "v": 79
    },
    {
      "midi": 57,
      "hit": false,
      "t": 126128.7800000011,
      "d": 215.0533333333442,
      "v": 79
    },
    {
      "midi": 61,
      "hit": false,
      "t": 126128.7800000011,
      "d": 215.0533333333442,
      "v": 79
    },
    {
      "midi": 64,
      "hit": false,
      "t": 126128.7800000011,
      "d": 215.0533333333442,
      "v": 79
    },
    {
      "midi": 57,
      "hit": false,
      "t": 126451.36000000112,
      "d": 215.05333333332965,
      "v": 79
    },
    {
      "midi": 61,
      "hit": false,
      "t": 126451.36000000112,
      "d": 215.05333333332965,
      "v": 79
    },
    {
      "midi": 64,
      "hit": false,
      "t": 126451.36000000112,
      "d": 215.05333333332965,
      "v": 79
    },
    {
      "midi": 45,
      "hit": false,
      "t": 126451.36000000112,
      "d": 430.10666666667385,
      "v": 79
    },
    {
      "midi": 52,
      "hit": false,
      "t": 126451.36000000112,
      "d": 430.10666666667385,
      "v": 79
    },
    {
      "midi": 57,
      "hit": false,
      "t": 126773.94000000112,
      "d": 215.0533333333442,
      "v": 79
    },
    {
      "midi": 61,
      "hit": false,
      "t": 126773.94000000112,
      "d": 215.0533333333442,
      "v": 79
    },
    {
      "midi": 64,
      "hit": false,
      "t": 126773.94000000112,
      "d": 215.0533333333442,
      "v": 79
    },
    {
      "midi": 57,
      "hit": false,
      "t": 127096.52000000114,
      "d": 215.05333333332965,
      "v": 79
    },
    {
      "midi": 61,
      "hit": false,
      "t": 127096.52000000114,
      "d": 215.05333333332965,
      "v": 79
    },
    {
      "midi": 64,
      "hit": false,
      "t": 127096.52000000114,
      "d": 215.05333333332965,
      "v": 79
    },
    {
      "midi": 45,
      "hit": false,
      "t": 127096.52000000114,
      "d": 430.10666666667385,
      "v": 79
    },
    {
      "midi": 52,
      "hit": false,
      "t": 127096.52000000114,
      "d": 430.10666666667385,
      "v": 79
    },
    {
      "midi": 57,
      "hit": false,
      "t": 127419.10000000114,
      "d": 537.6333333333314,
      "v": 79
    },
    {
      "midi": 61,
      "hit": false,
      "t": 127419.10000000114,
      "d": 537.6333333333314,
      "v": 79
    },
    {
      "midi": 64,
      "hit": false,
      "t": 127419.10000000114,
      "d": 537.6333333333314,
      "v": 79
    },
    {
      "midi": 45,
      "hit": false,
      "t": 127741.68000000114,
      "d": 430.10666666667385,
      "v": 79
    },
    {
      "midi": 52,
      "hit": false,
      "t": 127741.68000000114,
      "d": 430.10666666667385,
      "v": 79
    },
    {
      "midi": 57,
      "hit": false,
      "t": 128064.26000000114,
      "d": 537.6333333333314,
      "v": 79
    },
    {
      "midi": 61,
      "hit": false,
      "t": 128064.26000000114,
      "d": 537.6333333333314,
      "v": 79
    },
    {
      "midi": 64,
      "hit": false,
      "t": 128064.26000000114,
      "d": 537.6333333333314,
      "v": 79
    },
    {
      "midi": 45,
      "hit": false,
      "t": 128386.84000000115,
      "d": 215.05333333332965,
      "v": 79
    },
    {
      "midi": 52,
      "hit": false,
      "t": 128386.84000000115,
      "d": 215.05333333332965,
      "v": 79
    },
    {
      "midi": 55,
      "hit": false,
      "t": 128709.42000000115,
      "d": 537.6333333333314,
      "v": 79
    },
    {
      "midi": 59,
      "hit": false,
      "t": 128709.42000000115,
      "d": 537.6333333333314,
      "v": 79
    },
    {
      "midi": 62,
      "hit": false,
      "t": 128709.42000000115,
      "d": 537.6333333333314,
      "v": 79
    },
    {
      "midi": 43,
      "hit": false,
      "t": 129032.00000000115,
      "d": 430.10666666667385,
      "v": 79
    },
    {
      "midi": 50,
      "hit": false,
      "t": 129032.00000000115,
      "d": 430.10666666667385,
      "v": 79
    },
    {
      "midi": 55,
      "hit": false,
      "t": 129354.58000000115,
      "d": 752.6866666666756,
      "v": 79
    },
    {
      "midi": 59,
      "hit": false,
      "t": 129354.58000000115,
      "d": 752.6866666666756,
      "v": 79
    },
    {
      "midi": 62,
      "hit": false,
      "t": 129354.58000000115,
      "d": 752.6866666666756,
      "v": 79
    },
    {
      "midi": 43,
      "hit": false,
      "t": 129677.16000000115,
      "d": 430.10666666667385,
      "v": 79
    },
    {
      "midi": 50,
      "hit": false,
      "t": 129677.16000000115,
      "d": 430.10666666667385,
      "v": 79
    },
    {
      "midi": 41,
      "hit": false,
      "t": 130322.32000000116,
      "d": 430.10666666667385,
      "v": 79
    },
    {
      "midi": 48,
      "hit": false,
      "t": 130322.32000000116,
      "d": 430.10666666667385,
      "v": 79
    },
    {
      "midi": 53,
      "hit": false,
      "t": 130322.32000000116,
      "d": 430.10666666667385,
      "v": 79
    },
    {
      "midi": 57,
      "hit": false,
      "t": 130322.32000000116,
      "d": 430.10666666667385,
      "v": 79
    },
    {
      "midi": 60,
      "hit": false,
      "t": 130322.32000000116,
      "d": 430.10666666667385,
      "v": 79
    },
    {
      "midi": 41,
      "hit": false,
      "t": 130967.48000000116,
      "d": 215.05333333332965,
      "v": 79
    },
    {
      "midi": 48,
      "hit": false,
      "t": 130967.48000000116,
      "d": 215.05333333332965,
      "v": 79
    },
    {
      "midi": 53,
      "hit": false,
      "t": 130967.48000000116,
      "d": 215.05333333332965,
      "v": 79
    },
    {
      "midi": 57,
      "hit": false,
      "t": 130967.48000000116,
      "d": 215.05333333332965,
      "v": 79
    },
    {
      "midi": 60,
      "hit": false,
      "t": 130967.48000000116,
      "d": 215.05333333332965,
      "v": 79
    },
    {
      "midi": 50,
      "hit": false,
      "t": 131290.06000000116,
      "d": 2.6881666666595265,
      "v": 79
    },
    {
      "midi": 54,
      "hit": false,
      "t": 131290.06000000116,
      "d": 537.6333333333314,
      "v": 79
    },
    {
      "midi": 57,
      "hit": false,
      "t": 131290.06000000116,
      "d": 537.6333333333314,
      "v": 79
    },
    {
      "midi": 50,
      "hit": false,
      "t": 131612.64000000115,
      "d": 215.0533333333442,
      "v": 79
    },
    {
      "midi": 38,
      "hit": false,
      "t": 131612.64000000115,
      "d": 430.1066666666884,
      "v": 79
    },
    {
      "midi": 50,
      "hit": false,
      "t": 131935.22000000117,
      "d": 215.0533333333442,
      "v": 79
    },
    {
      "midi": 57,
      "hit": false,
      "t": 131935.22000000117,
      "d": 215.0533333333442,
      "v": 79
    },
    {
      "midi": 60,
      "hit": false,
      "t": 131935.22000000117,
      "d": 215.0533333333442,
      "v": 79
    },
    {
      "midi": 50,
      "hit": false,
      "t": 132257.80000000118,
      "d": 215.0533333333442,
      "v": 79
    },
    {
      "midi": 57,
      "hit": false,
      "t": 132257.80000000118,
      "d": 215.0533333333442,
      "v": 79
    },
    {
      "midi": 59,
      "hit": false,
      "t": 132257.80000000118,
      "d": 215.0533333333442,
      "v": 79
    },
    {
      "midi": 33,
      "hit": false,
      "t": 132257.80000000118,
      "d": 430.1066666666884,
      "v": 79
    },
    {
      "midi": 45,
      "hit": false,
      "t": 132257.80000000118,
      "d": 430.1066666666884,
      "v": 79
    },
    {
      "midi": 50,
      "hit": false,
      "t": 132580.3800000012,
      "d": 537.6333333333605,
      "v": 79
    },
    {
      "midi": 54,
      "hit": false,
      "t": 132580.3800000012,
      "d": 537.6333333333605,
      "v": 79
    },
    {
      "midi": 57,
      "hit": false,
      "t": 132580.3800000012,
      "d": 537.6333333333605,
      "v": 79
    },
    {
      "midi": 38,
      "hit": false,
      "t": 132902.9600000012,
      "d": 430.1066666666884,
      "v": 79
    },
    {
      "midi": 45,
      "hit": false,
      "t": 132902.9600000012,
      "d": 430.1066666666884,
      "v": 79
    },
    {
      "midi": 50,
      "hit": false,
      "t": 133225.54000000123,
      "d": 215.0533333333442,
      "v": 79
    },
    {
      "midi": 57,
      "hit": false,
      "t": 133225.54000000123,
      "d": 215.0533333333442,
      "v": 79
    },
    {
      "midi": 60,
      "hit": false,
      "t": 133225.54000000123,
      "d": 215.0533333333442,
      "v": 79
    },
    {
      "midi": 62,
      "hit": false,
      "t": 133225.54000000123,
      "d": 215.0533333333442,
      "v": 79
    },
    {
      "midi": 50,
      "hit": false,
      "t": 133548.12000000125,
      "d": 215.0533333333442,
      "v": 79
    },
    {
      "midi": 55,
      "hit": false,
      "t": 133548.12000000125,
      "d": 215.0533333333442,
      "v": 79
    },
    {
      "midi": 59,
      "hit": false,
      "t": 133548.12000000125,
      "d": 215.0533333333442,
      "v": 79
    },
    {
      "midi": 33,
      "hit": false,
      "t": 133548.12000000125,
      "d": 430.1066666666884,
      "v": 79
    },
    {
      "midi": 45,
      "hit": false,
      "t": 133548.12000000125,
      "d": 430.1066666666884,
      "v": 79
    },
    {
      "midi": 50,
      "hit": false,
      "t": 133870.70000000126,
      "d": 537.6333333333605,
      "v": 79
    },
    {
      "midi": 54,
      "hit": false,
      "t": 133870.70000000126,
      "d": 537.6333333333605,
      "v": 79
    },
    {
      "midi": 57,
      "hit": false,
      "t": 133870.70000000126,
      "d": 537.6333333333605,
      "v": 79
    },
    {
      "midi": 38,
      "hit": false,
      "t": 134193.28000000128,
      "d": 430.1066666666884,
      "v": 79
    },
    {
      "midi": 45,
      "hit": false,
      "t": 134193.28000000128,
      "d": 430.1066666666884,
      "v": 79
    },
    {
      "midi": 50,
      "hit": false,
      "t": 134515.8600000013,
      "d": 215.0533333333442,
      "v": 79
    },
    {
      "midi": 57,
      "hit": false,
      "t": 134515.8600000013,
      "d": 215.0533333333442,
      "v": 79
    },
    {
      "midi": 60,
      "hit": false,
      "t": 134515.8600000013,
      "d": 215.0533333333442,
      "v": 79
    },
    {
      "midi": 50,
      "hit": false,
      "t": 134838.4400000013,
      "d": 215.0533333333442,
      "v": 79
    },
    {
      "midi": 57,
      "hit": false,
      "t": 134838.4400000013,
      "d": 215.0533333333442,
      "v": 79
    },
    {
      "midi": 60,
      "hit": false,
      "t": 134838.4400000013,
      "d": 215.0533333333442,
      "v": 79
    },
    {
      "midi": 33,
      "hit": false,
      "t": 134838.4400000013,
      "d": 430.1066666666884,
      "v": 79
    },
    {
      "midi": 45,
      "hit": false,
      "t": 134838.4400000013,
      "d": 430.1066666666884,
      "v": 79
    },
    {
      "midi": 50,
      "hit": false,
      "t": 135161.02000000133,
      "d": 215.0533333333442,
      "v": 79
    },
    {
      "midi": 57,
      "hit": false,
      "t": 135161.02000000133,
      "d": 215.0533333333442,
      "v": 79
    },
    {
      "midi": 60,
      "hit": false,
      "t": 135161.02000000133,
      "d": 215.0533333333442,
      "v": 79
    },
    {
      "midi": 50,
      "hit": false,
      "t": 135483.60000000134,
      "d": 215.0533333333442,
      "v": 79
    },
    {
      "midi": 57,
      "hit": false,
      "t": 135483.60000000134,
      "d": 215.0533333333442,
      "v": 79
    },
    {
      "midi": 60,
      "hit": false,
      "t": 135483.60000000134,
      "d": 215.0533333333442,
      "v": 79
    },
    {
      "midi": 38,
      "hit": false,
      "t": 135483.60000000134,
      "d": 430.1066666666884,
      "v": 79
    },
    {
      "midi": 45,
      "hit": false,
      "t": 135483.60000000134,
      "d": 430.1066666666884,
      "v": 79
    },
    {
      "midi": 50,
      "hit": false,
      "t": 135806.18000000136,
      "d": 215.0533333333442,
      "v": 79
    },
    {
      "midi": 57,
      "hit": false,
      "t": 135806.18000000136,
      "d": 215.0533333333442,
      "v": 79
    },
    {
      "midi": 60,
      "hit": false,
      "t": 135806.18000000136,
      "d": 215.0533333333442,
      "v": 79
    },
    {
      "midi": 50,
      "hit": false,
      "t": 136128.76000000138,
      "d": 215.0533333333442,
      "v": 79
    },
    {
      "midi": 57,
      "hit": false,
      "t": 136128.76000000138,
      "d": 215.0533333333442,
      "v": 79
    },
    {
      "midi": 60,
      "hit": false,
      "t": 136128.76000000138,
      "d": 215.0533333333442,
      "v": 79
    },
    {
      "midi": 38,
      "hit": false,
      "t": 136128.76000000138,
      "d": 430.1066666666884,
      "v": 79
    },
    {
      "midi": 45,
      "hit": false,
      "t": 136128.76000000138,
      "d": 430.1066666666884,
      "v": 79
    },
    {
      "midi": 50,
      "hit": false,
      "t": 136451.3400000014,
      "d": 215.0533333333442,
      "v": 79
    },
    {
      "midi": 57,
      "hit": false,
      "t": 136451.3400000014,
      "d": 215.0533333333442,
      "v": 79
    },
    {
      "midi": 62,
      "hit": false,
      "t": 136451.3400000014,
      "d": 215.0533333333442,
      "v": 79
    },
    {
      "midi": 43,
      "hit": false,
      "t": 136773.9200000014,
      "d": 430.1066666666593,
      "v": 79
    },
    {
      "midi": 50,
      "hit": false,
      "t": 136773.9200000014,
      "d": 430.1066666666593,
      "v": 79
    },
    {
      "midi": 67,
      "hit": false,
      "t": 137096.5000000014,
      "d": 215.0533333333442,
      "v": 79
    },
    {
      "midi": 71,
      "hit": false,
      "t": 137096.5000000014,
      "d": 215.0533333333442,
      "v": 79
    },
    {
      "midi": 74,
      "hit": false,
      "t": 137096.5000000014,
      "d": 215.0533333333442,
      "v": 79
    },
    {
      "midi": 67,
      "hit": false,
      "t": 137419.0800000014,
      "d": 215.0533333333442,
      "v": 79
    },
    {
      "midi": 71,
      "hit": false,
      "t": 137419.0800000014,
      "d": 215.0533333333442,
      "v": 79
    },
    {
      "midi": 74,
      "hit": false,
      "t": 137419.0800000014,
      "d": 215.0533333333442,
      "v": 79
    },
    {
      "midi": 43,
      "hit": false,
      "t": 137419.0800000014,
      "d": 430.1066666666884,
      "v": 79
    },
    {
      "midi": 52,
      "hit": false,
      "t": 137419.0800000014,
      "d": 430.1066666666884,
      "v": 79
    },
    {
      "midi": 67,
      "hit": false,
      "t": 137741.66000000143,
      "d": 215.0533333333442,
      "v": 79
    },
    {
      "midi": 71,
      "hit": false,
      "t": 137741.66000000143,
      "d": 215.0533333333442,
      "v": 79
    },
    {
      "midi": 74,
      "hit": false,
      "t": 137741.66000000143,
      "d": 215.0533333333442,
      "v": 79
    },
    {
      "midi": 67,
      "hit": false,
      "t": 138064.24000000145,
      "d": 215.0533333333442,
      "v": 79
    },
    {
      "midi": 71,
      "hit": false,
      "t": 138064.24000000145,
      "d": 215.0533333333442,
      "v": 79
    },
    {
      "midi": 74,
      "hit": false,
      "t": 138064.24000000145,
      "d": 215.0533333333442,
      "v": 79
    },
    {
      "midi": 43,
      "hit": false,
      "t": 138064.24000000145,
      "d": 322.5800000000163,
      "v": 79
    },
    {
      "midi": 50,
      "hit": false,
      "t": 138064.24000000145,
      "d": 430.1066666666884,
      "v": 79
    },
    {
      "midi": 67,
      "hit": false,
      "t": 138386.82000000146,
      "d": 215.0533333333442,
      "v": 79
    },
    {
      "midi": 71,
      "hit": false,
      "t": 138386.82000000146,
      "d": 215.0533333333442,
      "v": 79
    },
    {
      "midi": 74,
      "hit": false,
      "t": 138386.82000000146,
      "d": 215.0533333333442,
      "v": 79
    },
    {
      "midi": 67,
      "hit": false,
      "t": 138709.40000000148,
      "d": 215.0533333333442,
      "v": 79
    },
    {
      "midi": 71,
      "hit": false,
      "t": 138709.40000000148,
      "d": 215.0533333333442,
      "v": 79
    },
    {
      "midi": 74,
      "hit": false,
      "t": 138709.40000000148,
      "d": 215.0533333333442,
      "v": 79
    },
    {
      "midi": 43,
      "hit": false,
      "t": 138709.40000000148,
      "d": 430.1066666666884,
      "v": 79
    },
    {
      "midi": 52,
      "hit": false,
      "t": 138709.40000000148,
      "d": 430.1066666666884,
      "v": 79
    },
    {
      "midi": 67,
      "hit": false,
      "t": 139031.9800000015,
      "d": 215.0533333333442,
      "v": 79
    },
    {
      "midi": 71,
      "hit": false,
      "t": 139031.9800000015,
      "d": 215.0533333333442,
      "v": 79
    },
    {
      "midi": 74,
      "hit": false,
      "t": 139031.9800000015,
      "d": 215.0533333333442,
      "v": 79
    },
    {
      "midi": 67,
      "hit": false,
      "t": 139354.5600000015,
      "d": 215.0533333333442,
      "v": 79
    },
    {
      "midi": 71,
      "hit": false,
      "t": 139354.5600000015,
      "d": 215.0533333333442,
      "v": 79
    },
    {
      "midi": 74,
      "hit": false,
      "t": 139354.5600000015,
      "d": 215.0533333333442,
      "v": 79
    },
    {
      "midi": 43,
      "hit": false,
      "t": 139354.5600000015,
      "d": 430.1066666666884,
      "v": 79
    },
    {
      "midi": 50,
      "hit": false,
      "t": 139354.5600000015,
      "d": 430.1066666666884,
      "v": 79
    },
    {
      "midi": 67,
      "hit": false,
      "t": 139677.14000000153,
      "d": 215.0533333333442,
      "v": 79
    },
    {
      "midi": 71,
      "hit": false,
      "t": 139677.14000000153,
      "d": 215.0533333333442,
      "v": 79
    },
    {
      "midi": 74,
      "hit": false,
      "t": 139677.14000000153,
      "d": 215.0533333333442,
      "v": 79
    },
    {
      "midi": 67,
      "hit": false,
      "t": 139999.72000000154,
      "d": 215.0533333333442,
      "v": 79
    },
    {
      "midi": 71,
      "hit": false,
      "t": 139999.72000000154,
      "d": 215.0533333333442,
      "v": 79
    },
    {
      "midi": 74,
      "hit": false,
      "t": 139999.72000000154,
      "d": 215.0533333333442,
      "v": 79
    },
    {
      "midi": 43,
      "hit": false,
      "t": 139999.72000000154,
      "d": 430.1066666666884,
      "v": 79
    },
    {
      "midi": 52,
      "hit": false,
      "t": 139999.72000000154,
      "d": 430.1066666666884,
      "v": 79
    },
    {
      "midi": 67,
      "hit": false,
      "t": 140322.30000000156,
      "d": 215.0533333333442,
      "v": 79
    },
    {
      "midi": 71,
      "hit": false,
      "t": 140322.30000000156,
      "d": 215.0533333333442,
      "v": 79
    },
    {
      "midi": 74,
      "hit": false,
      "t": 140322.30000000156,
      "d": 215.0533333333442,
      "v": 79
    },
    {
      "midi": 65,
      "hit": false,
      "t": 140644.88000000158,
      "d": 215.0533333333442,
      "v": 79
    },
    {
      "midi": 69,
      "hit": false,
      "t": 140644.88000000158,
      "d": 215.0533333333442,
      "v": 79
    },
    {
      "midi": 72,
      "hit": false,
      "t": 140644.88000000158,
      "d": 215.0533333333442,
      "v": 79
    },
    {
      "midi": 41,
      "hit": false,
      "t": 140644.88000000158,
      "d": 430.1066666666884,
      "v": 79
    },
    {
      "midi": 48,
      "hit": false,
      "t": 140644.88000000158,
      "d": 430.1066666666884,
      "v": 79
    },
    {
      "midi": 65,
      "hit": false,
      "t": 140967.4600000016,
      "d": 215.0533333333442,
      "v": 79
    },
    {
      "midi": 69,
      "hit": false,
      "t": 140967.4600000016,
      "d": 215.0533333333442,
      "v": 79
    },
    {
      "midi": 72,
      "hit": false,
      "t": 140967.4600000016,
      "d": 215.0533333333442,
      "v": 79
    },
    {
      "midi": 41,
      "hit": false,
      "t": 141290.0400000016,
      "d": 215.0533333333442,
      "v": 79
    },
    {
      "midi": 48,
      "hit": false,
      "t": 141290.0400000016,
      "d": 215.0533333333442,
      "v": 79
    },
    {
      "midi": 65,
      "hit": false,
      "t": 141290.0400000016,
      "d": 215.0533333333442,
      "v": 79
    },
    {
      "midi": 69,
      "hit": false,
      "t": 141290.0400000016,
      "d": 215.0533333333442,
      "v": 79
    },
    {
      "midi": 72,
      "hit": false,
      "t": 141290.0400000016,
      "d": 215.0533333333442,
      "v": 79
    },
    {
      "midi": 62,
      "hit": false,
      "t": 141612.62000000163,
      "d": 215.0533333333442,
      "v": 79
    },
    {
      "midi": 66,
      "hit": false,
      "t": 141612.62000000163,
      "d": 215.0533333333442,
      "v": 79
    },
    {
      "midi": 69,
      "hit": false,
      "t": 141612.62000000163,
      "d": 215.0533333333442,
      "v": 79
    },
    {
      "midi": 38,
      "hit": false,
      "t": 141935.20000000164,
      "d": 430.1066666666593,
      "v": 79
    },
    {
      "midi": 45,
      "hit": false,
      "t": 141935.20000000164,
      "d": 430.1066666666593,
      "v": 79
    },
    {
      "midi": 74,
      "hit": false,
      "t": 142257.78000000163,
      "d": 215.0533333333442,
      "v": 79
    },
    {
      "midi": 78,
      "hit": false,
      "t": 142257.78000000163,
      "d": 215.0533333333442,
      "v": 79
    },
    {
      "midi": 81,
      "hit": false,
      "t": 142257.78000000163,
      "d": 215.0533333333442,
      "v": 79
    },
    {
      "midi": 74,
      "hit": false,
      "t": 142580.36000000164,
      "d": 215.0533333333442,
      "v": 79
    },
    {
      "midi": 78,
      "hit": false,
      "t": 142580.36000000164,
      "d": 215.0533333333442,
      "v": 79
    },
    {
      "midi": 81,
      "hit": false,
      "t": 142580.36000000164,
      "d": 215.0533333333442,
      "v": 79
    },
    {
      "midi": 33,
      "hit": false,
      "t": 142580.36000000164,
      "d": 430.1066666666884,
      "v": 79
    },
    {
      "midi": 45,
      "hit": false,
      "t": 142580.36000000164,
      "d": 430.1066666666884,
      "v": 79
    },
    {
      "midi": 74,
      "hit": false,
      "t": 142902.94000000166,
      "d": 215.0533333333442,
      "v": 79
    },
    {
      "midi": 78,
      "hit": false,
      "t": 142902.94000000166,
      "d": 215.0533333333442,
      "v": 79
    },
    {
      "midi": 81,
      "hit": false,
      "t": 142902.94000000166,
      "d": 215.0533333333442,
      "v": 79
    },
    {
      "midi": 74,
      "hit": false,
      "t": 143225.52000000168,
      "d": 215.0533333333442,
      "v": 79
    },
    {
      "midi": 78,
      "hit": false,
      "t": 143225.52000000168,
      "d": 215.0533333333442,
      "v": 79
    },
    {
      "midi": 81,
      "hit": false,
      "t": 143225.52000000168,
      "d": 215.0533333333442,
      "v": 79
    },
    {
      "midi": 38,
      "hit": false,
      "t": 143225.52000000168,
      "d": 430.1066666666884,
      "v": 79
    },
    {
      "midi": 45,
      "hit": false,
      "t": 143225.52000000168,
      "d": 430.1066666666884,
      "v": 79
    },
    {
      "midi": 74,
      "hit": false,
      "t": 143548.1000000017,
      "d": 215.0533333333442,
      "v": 79
    },
    {
      "midi": 78,
      "hit": false,
      "t": 143548.1000000017,
      "d": 215.0533333333442,
      "v": 79
    },
    {
      "midi": 81,
      "hit": false,
      "t": 143548.1000000017,
      "d": 215.0533333333442,
      "v": 79
    },
    {
      "midi": 74,
      "hit": false,
      "t": 143870.6800000017,
      "d": 215.0533333333442,
      "v": 79
    },
    {
      "midi": 78,
      "hit": false,
      "t": 143870.6800000017,
      "d": 215.0533333333442,
      "v": 79
    },
    {
      "midi": 81,
      "hit": false,
      "t": 143870.6800000017,
      "d": 215.0533333333442,
      "v": 79
    },
    {
      "midi": 33,
      "hit": false,
      "t": 143870.6800000017,
      "d": 430.1066666666884,
      "v": 79
    },
    {
      "midi": 45,
      "hit": false,
      "t": 143870.6800000017,
      "d": 430.1066666666884,
      "v": 79
    },
    {
      "midi": 74,
      "hit": false,
      "t": 144193.26000000173,
      "d": 215.0533333333442,
      "v": 79
    },
    {
      "midi": 78,
      "hit": false,
      "t": 144193.26000000173,
      "d": 215.0533333333442,
      "v": 79
    },
    {
      "midi": 81,
      "hit": false,
      "t": 144193.26000000173,
      "d": 215.0533333333442,
      "v": 79
    },
    {
      "midi": 38,
      "hit": false,
      "t": 144515.84000000174,
      "d": 430.1066666666593,
      "v": 79
    },
    {
      "midi": 45,
      "hit": false,
      "t": 144515.84000000174,
      "d": 430.1066666666593,
      "v": 79
    },
    {
      "midi": 62,
      "hit": false,
      "t": 144838.42000000173,
      "d": 215.0533333333442,
      "v": 79
    },
    {
      "midi": 69,
      "hit": false,
      "t": 144838.42000000173,
      "d": 215.0533333333442,
      "v": 79
    },
    {
      "midi": 62,
      "hit": false,
      "t": 145161.00000000175,
      "d": 215.0533333333442,
      "v": 79
    },
    {
      "midi": 69,
      "hit": false,
      "t": 145161.00000000175,
      "d": 215.0533333333442,
      "v": 79
    },
    {
      "midi": 33,
      "hit": false,
      "t": 145161.00000000175,
      "d": 430.1066666666884,
      "v": 79
    },
    {
      "midi": 45,
      "hit": false,
      "t": 145161.00000000175,
      "d": 430.1066666666884,
      "v": 79
    },
    {
      "midi": 62,
      "hit": false,
      "t": 145483.58000000176,
      "d": 215.0533333333442,
      "v": 79
    },
    {
      "midi": 66,
      "hit": false,
      "t": 145483.58000000176,
      "d": 215.0533333333442,
      "v": 79
    },
    {
      "midi": 69,
      "hit": false,
      "t": 145483.58000000176,
      "d": 215.0533333333442,
      "v": 79
    },
    {
      "midi": 62,
      "hit": false,
      "t": 145806.16000000178,
      "d": 215.0533333333442,
      "v": 79
    },
    {
      "midi": 69,
      "hit": false,
      "t": 145806.16000000178,
      "d": 215.0533333333442,
      "v": 79
    },
    {
      "midi": 38,
      "hit": false,
      "t": 145806.16000000178,
      "d": 430.1066666666884,
      "v": 79
    },
    {
      "midi": 45,
      "hit": false,
      "t": 145806.16000000178,
      "d": 430.1066666666884,
      "v": 79
    },
    {
      "midi": 62,
      "hit": false,
      "t": 146128.7400000018,
      "d": 215.0533333333442,
      "v": 79
    },
    {
      "midi": 69,
      "hit": false,
      "t": 146128.7400000018,
      "d": 215.0533333333442,
      "v": 79
    },
    {
      "midi": 38,
      "hit": false,
      "t": 146451.3200000018,
      "d": 430.1066666666593,
      "v": 79
    },
    {
      "midi": 45,
      "hit": false,
      "t": 146451.3200000018,
      "d": 430.1066666666593,
      "v": 79
    },
    {
      "midi": 55,
      "hit": false,
      "t": 147096.48000000181,
      "d": 215.0533333333442,
      "v": 79
    },
    {
      "midi": 59,
      "hit": false,
      "t": 147096.48000000181,
      "d": 215.0533333333442,
      "v": 79
    },
    {
      "midi": 62,
      "hit": false,
      "t": 147096.48000000181,
      "d": 215.0533333333442,
      "v": 79
    },
    {
      "midi": 43,
      "hit": false,
      "t": 147096.48000000181,
      "d": 430.1066666666884,
      "v": 79
    },
    {
      "midi": 50,
      "hit": false,
      "t": 147096.48000000181,
      "d": 430.1066666666884,
      "v": 79
    },
    {
      "midi": 55,
      "hit": false,
      "t": 147419.06000000183,
      "d": 215.0533333333442,
      "v": 79
    },
    {
      "midi": 59,
      "hit": false,
      "t": 147419.06000000183,
      "d": 215.0533333333442,
      "v": 79
    },
    {
      "midi": 62,
      "hit": false,
      "t": 147419.06000000183,
      "d": 215.0533333333442,
      "v": 79
    },
    {
      "midi": 55,
      "hit": false,
      "t": 147741.64000000185,
      "d": 215.0533333333442,
      "v": 79
    },
    {
      "midi": 59,
      "hit": false,
      "t": 147741.64000000185,
      "d": 215.0533333333442,
      "v": 79
    },
    {
      "midi": 62,
      "hit": false,
      "t": 147741.64000000185,
      "d": 215.0533333333442,
      "v": 79
    },
    {
      "midi": 43,
      "hit": false,
      "t": 147741.64000000185,
      "d": 430.1066666666884,
      "v": 79
    },
    {
      "midi": 52,
      "hit": false,
      "t": 147741.64000000185,
      "d": 430.1066666666884,
      "v": 79
    },
    {
      "midi": 55,
      "hit": false,
      "t": 148064.22000000186,
      "d": 215.0533333333442,
      "v": 79
    },
    {
      "midi": 59,
      "hit": false,
      "t": 148064.22000000186,
      "d": 215.0533333333442,
      "v": 79
    },
    {
      "midi": 62,
      "hit": false,
      "t": 148064.22000000186,
      "d": 215.0533333333442,
      "v": 79
    },
    {
      "midi": 55,
      "hit": false,
      "t": 148386.80000000188,
      "d": 215.0533333333442,
      "v": 79
    },
    {
      "midi": 59,
      "hit": false,
      "t": 148386.80000000188,
      "d": 215.0533333333442,
      "v": 79
    },
    {
      "midi": 62,
      "hit": false,
      "t": 148386.80000000188,
      "d": 215.0533333333442,
      "v": 79
    },
    {
      "midi": 43,
      "hit": false,
      "t": 148386.80000000188,
      "d": 430.1066666666884,
      "v": 79
    },
    {
      "midi": 50,
      "hit": false,
      "t": 148386.80000000188,
      "d": 430.1066666666884,
      "v": 79
    },
    {
      "midi": 55,
      "hit": false,
      "t": 148709.3800000019,
      "d": 215.0533333333442,
      "v": 79
    },
    {
      "midi": 59,
      "hit": false,
      "t": 148709.3800000019,
      "d": 215.0533333333442,
      "v": 79
    },
    {
      "midi": 62,
      "hit": false,
      "t": 148709.3800000019,
      "d": 215.0533333333442,
      "v": 79
    },
    {
      "midi": 55,
      "hit": false,
      "t": 149031.9600000019,
      "d": 215.0533333333442,
      "v": 79
    },
    {
      "midi": 59,
      "hit": false,
      "t": 149031.9600000019,
      "d": 215.0533333333442,
      "v": 79
    },
    {
      "midi": 62,
      "hit": false,
      "t": 149031.9600000019,
      "d": 215.0533333333442,
      "v": 79
    },
    {
      "midi": 43,
      "hit": false,
      "t": 149031.9600000019,
      "d": 430.1066666666884,
      "v": 79
    },
    {
      "midi": 54,
      "hit": false,
      "t": 149031.9600000019,
      "d": 430.1066666666884,
      "v": 79
    },
    {
      "midi": 55,
      "hit": false,
      "t": 149354.54000000193,
      "d": 215.0533333333442,
      "v": 79
    },
    {
      "midi": 59,
      "hit": false,
      "t": 149354.54000000193,
      "d": 215.0533333333442,
      "v": 79
    },
    {
      "midi": 62,
      "hit": false,
      "t": 149354.54000000193,
      "d": 215.0533333333442,
      "v": 79
    },
    {
      "midi": 43,
      "hit": false,
      "t": 149677.12000000195,
      "d": 430.1066666666593,
      "v": 79
    },
    {
      "midi": 50,
      "hit": false,
      "t": 149677.12000000195,
      "d": 430.1066666666593,
      "v": 79
    },
    {
      "midi": 55,
      "hit": false,
      "t": 149677.12000000195,
      "d": 430.1066666666593,
      "v": 79
    },
    {
      "midi": 59,
      "hit": false,
      "t": 149677.12000000195,
      "d": 430.1066666666593,
      "v": 79
    },
    {
      "midi": 62,
      "hit": false,
      "t": 149677.12000000195,
      "d": 430.1066666666593,
      "v": 79
    },
    {
      "midi": 55,
      "hit": false,
      "t": 150322.28000000195,
      "d": 215.0533333333442,
      "v": 79
    },
    {
      "midi": 59,
      "hit": false,
      "t": 150322.28000000195,
      "d": 215.0533333333442,
      "v": 79
    },
    {
      "midi": 62,
      "hit": false,
      "t": 150322.28000000195,
      "d": 215.0533333333442,
      "v": 79
    },
    {
      "midi": 43,
      "hit": false,
      "t": 150322.28000000195,
      "d": 430.1066666666884,
      "v": 79
    },
    {
      "midi": 52,
      "hit": false,
      "t": 150322.28000000195,
      "d": 430.1066666666884,
      "v": 79
    },
    {
      "midi": 55,
      "hit": false,
      "t": 150644.86000000197,
      "d": 215.0533333333442,
      "v": 79
    },
    {
      "midi": 41,
      "hit": false,
      "t": 150967.44000000198,
      "d": 430.1066666666593,
      "v": 79
    },
    {
      "midi": 48,
      "hit": false,
      "t": 150967.44000000198,
      "d": 430.1066666666593,
      "v": 79
    },
    {
      "midi": 53,
      "hit": false,
      "t": 150967.44000000198,
      "d": 430.1066666666593,
      "v": 79
    },
    {
      "midi": 57,
      "hit": false,
      "t": 150967.44000000198,
      "d": 430.1066666666593,
      "v": 79
    },
    {
      "midi": 60,
      "hit": false,
      "t": 150967.44000000198,
      "d": 430.1066666666593,
      "v": 79
    },
    {
      "midi": 41,
      "hit": false,
      "t": 151612.60000000198,
      "d": 215.0533333333442,
      "v": 79
    },
    {
      "midi": 48,
      "hit": false,
      "t": 151612.60000000198,
      "d": 215.0533333333442,
      "v": 79
    },
    {
      "midi": 53,
      "hit": false,
      "t": 151612.60000000198,
      "d": 215.0533333333442,
      "v": 79
    },
    {
      "midi": 57,
      "hit": false,
      "t": 151612.60000000198,
      "d": 215.0533333333442,
      "v": 79
    },
    {
      "midi": 60,
      "hit": false,
      "t": 151612.60000000198,
      "d": 215.0533333333442,
      "v": 79
    },
    {
      "midi": 50,
      "hit": false,
      "t": 151935.180000002,
      "d": 2.6881666666595265,
      "v": 79
    },
    {
      "midi": 54,
      "hit": false,
      "t": 151935.180000002,
      "d": 537.6333333333314,
      "v": 79
    },
    {
      "midi": 57,
      "hit": false,
      "t": 151935.180000002,
      "d": 537.6333333333314,
      "v": 79
    },
    {
      "midi": 38,
      "hit": false,
      "t": 152257.760000002,
      "d": 430.1066666666884,
      "v": 79
    },
    {
      "midi": 50,
      "hit": false,
      "t": 152580.340000002,
      "d": 215.0533333333442,
      "v": 79
    },
    {
      "midi": 57,
      "hit": false,
      "t": 152580.340000002,
      "d": 215.0533333333442,
      "v": 79
    },
    {
      "midi": 60,
      "hit": false,
      "t": 152580.340000002,
      "d": 215.0533333333442,
      "v": 79
    },
    {
      "midi": 50,
      "hit": false,
      "t": 152902.92000000202,
      "d": 215.0533333333442,
      "v": 79
    },
    {
      "midi": 55,
      "hit": false,
      "t": 152902.92000000202,
      "d": 215.0533333333442,
      "v": 79
    },
    {
      "midi": 59,
      "hit": false,
      "t": 152902.92000000202,
      "d": 215.0533333333442,
      "v": 79
    },
    {
      "midi": 33,
      "hit": false,
      "t": 152902.92000000202,
      "d": 430.1066666666884,
      "v": 79
    },
    {
      "midi": 50,
      "hit": false,
      "t": 153225.50000000204,
      "d": 107.5266666666721,
      "v": 79
    },
    {
      "midi": 54,
      "hit": false,
      "t": 153225.50000000204,
      "d": 107.5266666666721,
      "v": 79
    },
    {
      "midi": 57,
      "hit": false,
      "t": 153225.50000000204,
      "d": 107.5266666666721,
      "v": 79
    },
    {
      "midi": 50,
      "hit": false,
      "t": 153386.79000000205,
      "d": 376.34333333335235,
      "v": 79
    },
    {
      "midi": 54,
      "hit": false,
      "t": 153386.79000000205,
      "d": 376.34333333335235,
      "v": 79
    },
    {
      "midi": 57,
      "hit": false,
      "t": 153386.79000000205,
      "d": 376.34333333335235,
      "v": 79
    },
    {
      "midi": 38,
      "hit": false,
      "t": 153548.08000000205,
      "d": 430.1066666666884,
      "v": 79
    },
    {
      "midi": 45,
      "hit": false,
      "t": 153548.08000000205,
      "d": 430.1066666666884,
      "v": 79
    },
    {
      "midi": 50,
      "hit": false,
      "t": 153870.66000000207,
      "d": 215.0533333333442,
      "v": 79
    },
    {
      "midi": 57,
      "hit": false,
      "t": 153870.66000000207,
      "d": 215.0533333333442,
      "v": 79
    },
    {
      "midi": 60,
      "hit": false,
      "t": 153870.66000000207,
      "d": 215.0533333333442,
      "v": 79
    },
    {
      "midi": 50,
      "hit": false,
      "t": 154193.2400000021,
      "d": 215.0533333333442,
      "v": 79
    },
    {
      "midi": 57,
      "hit": false,
      "t": 154193.2400000021,
      "d": 215.0533333333442,
      "v": 79
    },
    {
      "midi": 59,
      "hit": false,
      "t": 154193.2400000021,
      "d": 215.0533333333442,
      "v": 79
    },
    {
      "midi": 33,
      "hit": false,
      "t": 154193.2400000021,
      "d": 430.1066666666884,
      "v": 79
    },
    {
      "midi": 45,
      "hit": false,
      "t": 154193.2400000021,
      "d": 430.1066666666884,
      "v": 79
    },
    {
      "midi": 50,
      "hit": false,
      "t": 154515.8200000021,
      "d": 537.6333333333605,
      "v": 79
    },
    {
      "midi": 54,
      "hit": false,
      "t": 154515.8200000021,
      "d": 537.6333333333605,
      "v": 79
    },
    {
      "midi": 57,
      "hit": false,
      "t": 154515.8200000021,
      "d": 537.6333333333605,
      "v": 79
    },
    {
      "midi": 38,
      "hit": false,
      "t": 154838.40000000212,
      "d": 430.1066666666884,
      "v": 79
    },
    {
      "midi": 45,
      "hit": false,
      "t": 154838.40000000212,
      "d": 430.1066666666884,
      "v": 79
    },
    {
      "midi": 50,
      "hit": false,
      "t": 155160.98000000214,
      "d": 215.0533333333442,
      "v": 79
    },
    {
      "midi": 57,
      "hit": false,
      "t": 155160.98000000214,
      "d": 215.0533333333442,
      "v": 79
    },
    {
      "midi": 60,
      "hit": false,
      "t": 155160.98000000214,
      "d": 215.0533333333442,
      "v": 79
    },
    {
      "midi": 50,
      "hit": false,
      "t": 155483.56000000215,
      "d": 215.0533333333442,
      "v": 79
    },
    {
      "midi": 57,
      "hit": false,
      "t": 155483.56000000215,
      "d": 215.0533333333442,
      "v": 79
    },
    {
      "midi": 59,
      "hit": false,
      "t": 155483.56000000215,
      "d": 215.0533333333442,
      "v": 79
    },
    {
      "midi": 33,
      "hit": false,
      "t": 155483.56000000215,
      "d": 430.1066666666884,
      "v": 79
    },
    {
      "midi": 45,
      "hit": false,
      "t": 155483.56000000215,
      "d": 430.1066666666884,
      "v": 79
    },
    {
      "midi": 50,
      "hit": false,
      "t": 155806.14000000217,
      "d": 537.6333333333605,
      "v": 79
    },
    {
      "midi": 54,
      "hit": false,
      "t": 155806.14000000217,
      "d": 537.6333333333605,
      "v": 79
    },
    {
      "midi": 57,
      "hit": false,
      "t": 155806.14000000217,
      "d": 537.6333333333605,
      "v": 79
    },
    {
      "midi": 38,
      "hit": false,
      "t": 156128.72000000218,
      "d": 430.1066666666884,
      "v": 79
    },
    {
      "midi": 45,
      "hit": false,
      "t": 156128.72000000218,
      "d": 430.1066666666884,
      "v": 79
    },
    {
      "midi": 50,
      "hit": false,
      "t": 156451.3000000022,
      "d": 537.6333333333605,
      "v": 79
    },
    {
      "midi": 54,
      "hit": false,
      "t": 156451.3000000022,
      "d": 537.6333333333605,
      "v": 79
    },
    {
      "midi": 57,
      "hit": false,
      "t": 156451.3000000022,
      "d": 537.6333333333605,
      "v": 79
    },
    {
      "midi": 38,
      "hit": false,
      "t": 156773.88000000222,
      "d": 215.0533333333442,
      "v": 79
    },
    {
      "midi": 45,
      "hit": false,
      "t": 156773.88000000222,
      "d": 215.0533333333442,
      "v": 79
    },
    {
      "midi": 55,
      "hit": false,
      "t": 157096.46000000223,
      "d": 215.0533333333442,
      "v": 79
    },
    {
      "midi": 59,
      "hit": false,
      "t": 157096.46000000223,
      "d": 215.0533333333442,
      "v": 79
    },
    {
      "midi": 62,
      "hit": false,
      "t": 157096.46000000223,
      "d": 215.0533333333442,
      "v": 79
    },
    {
      "midi": 57,
      "hit": false,
      "t": 157419.04000000225,
      "d": 215.0533333333442,
      "v": 79
    },
    {
      "midi": 63,
      "hit": false,
      "t": 157419.04000000225,
      "d": 215.0533333333442,
      "v": 79
    },
    {
      "midi": 64,
      "hit": false,
      "t": 157419.04000000225,
      "d": 215.0533333333442,
      "v": 79
    },
    {
      "midi": 45,
      "hit": false,
      "t": 157419.04000000225,
      "d": 430.1066666666884,
      "v": 79
    },
    {
      "midi": 52,
      "hit": false,
      "t": 157419.04000000225,
      "d": 430.1066666666884,
      "v": 79
    },
    {
      "midi": 62,
      "hit": false,
      "t": 157741.62000000227,
      "d": 215.0533333333442,
      "v": 79
    },
    {
      "midi": 61,
      "hit": false,
      "t": 158064.20000000228,
      "d": 215.0533333333442,
      "v": 79
    },
    {
      "midi": 64,
      "hit": false,
      "t": 158064.20000000228,
      "d": 215.0533333333442,
      "v": 79
    },
    {
      "midi": 45,
      "hit": false,
      "t": 158064.20000000228,
      "d": 430.1066666666884,
      "v": 79
    },
    {
      "midi": 52,
      "hit": false,
      "t": 158064.20000000228,
      "d": 430.1066666666884,
      "v": 79
    },
    {
      "midi": 57,
      "hit": false,
      "t": 158386.7800000023,
      "d": 537.6333333333605,
      "v": 79
    },
    {
      "midi": 45,
      "hit": false,
      "t": 158709.3600000023,
      "d": 430.1066666666884,
      "v": 79
    },
    {
      "midi": 52,
      "hit": false,
      "t": 158709.3600000023,
      "d": 430.1066666666884,
      "v": 79
    },
    {
      "midi": 57,
      "hit": false,
      "t": 159031.94000000233,
      "d": 430.1066666666884,
      "v": 79
    },
    {
      "midi": 45,
      "hit": false,
      "t": 159354.52000000235,
      "d": 215.0533333333442,
      "v": 79
    },
    {
      "midi": 52,
      "hit": false,
      "t": 159354.52000000235,
      "d": 215.0533333333442,
      "v": 79
    },
    {
      "midi": 55,
      "hit": false,
      "t": 159677.10000000236,
      "d": 215.0533333333442,
      "v": 79
    },
    {
      "midi": 55,
      "hit": false,
      "t": 159999.68000000238,
      "d": 215.0533333333442,
      "v": 79
    },
    {
      "midi": 62,
      "hit": false,
      "t": 159999.68000000238,
      "d": 215.0533333333442,
      "v": 79
    },
    {
      "midi": 65,
      "hit": false,
      "t": 159999.68000000238,
      "d": 215.0533333333442,
      "v": 79
    },
    {
      "midi": 43,
      "hit": false,
      "t": 159999.68000000238,
      "d": 430.1066666666884,
      "v": 79
    },
    {
      "midi": 50,
      "hit": false,
      "t": 159999.68000000238,
      "d": 430.1066666666884,
      "v": 79
    },
    {
      "midi": 64,
      "hit": false,
      "t": 160322.2600000024,
      "d": 215.0533333333442,
      "v": 79
    },
    {
      "midi": 55,
      "hit": false,
      "t": 160644.8400000024,
      "d": 215.0533333333442,
      "v": 79
    },
    {
      "midi": 62,
      "hit": false,
      "t": 160644.8400000024,
      "d": 215.0533333333442,
      "v": 79
    },
    {
      "midi": 43,
      "hit": false,
      "t": 160644.8400000024,
      "d": 430.1066666666884,
      "v": 79
    },
    {
      "midi": 50,
      "hit": false,
      "t": 160644.8400000024,
      "d": 430.1066666666884,
      "v": 79
    },
    {
      "midi": 55,
      "hit": false,
      "t": 160967.42000000243,
      "d": 215.0533333333442,
      "v": 79
    },
    {
      "midi": 59,
      "hit": false,
      "t": 160967.42000000243,
      "d": 215.0533333333442,
      "v": 79
    },
    {
      "midi": 41,
      "hit": false,
      "t": 161290.00000000244,
      "d": 430.1066666666593,
      "v": 79
    },
    {
      "midi": 48,
      "hit": false,
      "t": 161290.00000000244,
      "d": 430.1066666666593,
      "v": 79
    },
    {
      "midi": 53,
      "hit": false,
      "t": 161290.00000000244,
      "d": 430.1066666666593,
      "v": 79
    },
    {
      "midi": 57,
      "hit": false,
      "t": 161290.00000000244,
      "d": 430.1066666666593,
      "v": 79
    },
    {
      "midi": 62,
      "hit": false,
      "t": 161290.00000000244,
      "d": 430.1066666666593,
      "v": 79
    },
    {
      "midi": 41,
      "hit": false,
      "t": 161935.16000000245,
      "d": 215.0533333333442,
      "v": 79
    },
    {
      "midi": 48,
      "hit": false,
      "t": 161935.16000000245,
      "d": 215.0533333333442,
      "v": 79
    },
    {
      "midi": 53,
      "hit": false,
      "t": 161935.16000000245,
      "d": 215.0533333333442,
      "v": 79
    },
    {
      "midi": 57,
      "hit": false,
      "t": 161935.16000000245,
      "d": 215.0533333333442,
      "v": 79
    },
    {
      "midi": 60,
      "hit": false,
      "t": 161935.16000000245,
      "d": 215.0533333333442,
      "v": 79
    },
    {
      "midi": 50,
      "hit": false,
      "t": 162257.74000000246,
      "d": 2.6881666666595265,
      "v": 79
    },
    {
      "midi": 54,
      "hit": false,
      "t": 162257.74000000246,
      "d": 537.6333333333314,
      "v": 79
    },
    {
      "midi": 57,
      "hit": false,
      "t": 162257.74000000246,
      "d": 537.6333333333314,
      "v": 79
    },
    {
      "midi": 38,
      "hit": false,
      "t": 162580.32000000245,
      "d": 430.1066666666884,
      "v": 79
    },
    {
      "midi": 50,
      "hit": false,
      "t": 162902.90000000247,
      "d": 107.5266666666721,
      "v": 79
    },
    {
      "midi": 57,
      "hit": false,
      "t": 162902.90000000247,
      "d": 107.5266666666721,
      "v": 79
    },
    {
      "midi": 60,
      "hit": false,
      "t": 162902.90000000247,
      "d": 107.5266666666721,
      "v": 79
    },
    {
      "midi": 50,
      "hit": false,
      "t": 163225.48000000248,
      "d": 215.0533333333442,
      "v": 79
    },
    {
      "midi": 57,
      "hit": false,
      "t": 163225.48000000248,
      "d": 215.0533333333442,
      "v": 79
    },
    {
      "midi": 59,
      "hit": false,
      "t": 163225.48000000248,
      "d": 215.0533333333442,
      "v": 79
    },
    {
      "midi": 33,
      "hit": false,
      "t": 163225.48000000248,
      "d": 430.1066666666884,
      "v": 79
    },
    {
      "midi": 45,
      "hit": false,
      "t": 163225.48000000248,
      "d": 430.1066666666884,
      "v": 79
    },
    {
      "midi": 50,
      "hit": false,
      "t": 163548.0600000025,
      "d": 537.6333333333605,
      "v": 79
    },
    {
      "midi": 54,
      "hit": false,
      "t": 163548.0600000025,
      "d": 537.6333333333605,
      "v": 79
    },
    {
      "midi": 57,
      "hit": false,
      "t": 163548.0600000025,
      "d": 537.6333333333605,
      "v": 79
    },
    {
      "midi": 38,
      "hit": false,
      "t": 163870.64000000252,
      "d": 430.1066666666884,
      "v": 79
    },
    {
      "midi": 45,
      "hit": false,
      "t": 163870.64000000252,
      "d": 430.1066666666884,
      "v": 79
    },
    {
      "midi": 50,
      "hit": false,
      "t": 164193.22000000253,
      "d": 215.0533333333442,
      "v": 79
    },
    {
      "midi": 57,
      "hit": false,
      "t": 164193.22000000253,
      "d": 215.0533333333442,
      "v": 79
    },
    {
      "midi": 60,
      "hit": false,
      "t": 164193.22000000253,
      "d": 215.0533333333442,
      "v": 79
    },
    {
      "midi": 50,
      "hit": false,
      "t": 164515.80000000255,
      "d": 215.0533333333442,
      "v": 79
    },
    {
      "midi": 53,
      "hit": false,
      "t": 164515.80000000255,
      "d": 215.0533333333442,
      "v": 79
    },
    {
      "midi": 59,
      "hit": false,
      "t": 164515.80000000255,
      "d": 215.0533333333442,
      "v": 79
    },
    {
      "midi": 33,
      "hit": false,
      "t": 164515.80000000255,
      "d": 430.1066666666884,
      "v": 79
    },
    {
      "midi": 45,
      "hit": false,
      "t": 164515.80000000255,
      "d": 430.1066666666884,
      "v": 79
    },
    {
      "midi": 50,
      "hit": false,
      "t": 164838.38000000257,
      "d": 537.6333333333605,
      "v": 79
    },
    {
      "midi": 54,
      "hit": false,
      "t": 164838.38000000257,
      "d": 537.6333333333605,
      "v": 79
    },
    {
      "midi": 57,
      "hit": false,
      "t": 164838.38000000257,
      "d": 537.6333333333605,
      "v": 79
    },
    {
      "midi": 38,
      "hit": false,
      "t": 165160.96000000258,
      "d": 537.6333333333605,
      "v": 79
    },
    {
      "midi": 45,
      "hit": false,
      "t": 165160.96000000258,
      "d": 537.6333333333605,
      "v": 79
    },
    {
      "midi": 50,
      "hit": false,
      "t": 165483.5400000026,
      "d": 107.5266666666721,
      "v": 79
    },
    {
      "midi": 57,
      "hit": false,
      "t": 165483.5400000026,
      "d": 107.5266666666721,
      "v": 79
    },
    {
      "midi": 60,
      "hit": false,
      "t": 165483.5400000026,
      "d": 107.5266666666721,
      "v": 79
    },
    {
      "midi": 50,
      "hit": false,
      "t": 165806.12000000261,
      "d": 215.0533333333442,
      "v": 79
    },
    {
      "midi": 53,
      "hit": false,
      "t": 165806.12000000261,
      "d": 215.0533333333442,
      "v": 79
    },
    {
      "midi": 59,
      "hit": false,
      "t": 165806.12000000261,
      "d": 215.0533333333442,
      "v": 79
    },
    {
      "midi": 33,
      "hit": false,
      "t": 165806.12000000261,
      "d": 537.6333333333605,
      "v": 79
    },
    {
      "midi": 45,
      "hit": false,
      "t": 165806.12000000261,
      "d": 537.6333333333605,
      "v": 79
    },
    {
      "midi": 50,
      "hit": false,
      "t": 166128.70000000263,
      "d": 107.5266666666721,
      "v": 79
    },
    {
      "midi": 54,
      "hit": false,
      "t": 166128.70000000263,
      "d": 107.5266666666721,
      "v": 79
    },
    {
      "midi": 57,
      "hit": false,
      "t": 166128.70000000263,
      "d": 107.5266666666721,
      "v": 79
    },
    {
      "midi": 50,
      "hit": false,
      "t": 166289.99000000264,
      "d": 376.34333333335235,
      "v": 79
    },
    {
      "midi": 54,
      "hit": false,
      "t": 166289.99000000264,
      "d": 376.34333333335235,
      "v": 79
    },
    {
      "midi": 57,
      "hit": false,
      "t": 166289.99000000264,
      "d": 376.34333333335235,
      "v": 79
    },
    {
      "midi": 38,
      "hit": false,
      "t": 166451.28000000265,
      "d": 537.6333333333605,
      "v": 79
    },
    {
      "midi": 45,
      "hit": false,
      "t": 166451.28000000265,
      "d": 537.6333333333605,
      "v": 79
    },
    {
      "midi": 50,
      "hit": false,
      "t": 166773.86000000266,
      "d": 591.3966666666965,
      "v": 79
    },
    {
      "midi": 54,
      "hit": false,
      "t": 166773.86000000266,
      "d": 591.3966666666965,
      "v": 79
    },
    {
      "midi": 57,
      "hit": false,
      "t": 166773.86000000266,
      "d": 591.3966666666965,
      "v": 79
    },
    {
      "midi": 38,
      "hit": false,
      "t": 167096.44000000268,
      "d": 268.81666666668025,
      "v": 79
    },
    {
      "midi": 45,
      "hit": false,
      "t": 167096.44000000268,
      "d": 268.81666666668025,
      "v": 79
    },
    {
      "midi": 65,
      "hit": false,
      "t": 167419.0200000027,
      "d": 268.81666666668025,
      "v": 79
    },
    {
      "midi": 67,
      "hit": false,
      "t": 167741.6000000027,
      "d": 215.0533333333442,
      "v": 79
    },
    {
      "midi": 71,
      "hit": false,
      "t": 167741.6000000027,
      "d": 215.0533333333442,
      "v": 79
    },
    {
      "midi": 74,
      "hit": false,
      "t": 167741.6000000027,
      "d": 215.0533333333442,
      "v": 79
    },
    {
      "midi": 43,
      "hit": false,
      "t": 167741.6000000027,
      "d": 430.1066666666884,
      "v": 79
    },
    {
      "midi": 50,
      "hit": false,
      "t": 167741.6000000027,
      "d": 430.1066666666884,
      "v": 79
    },
    {
      "midi": 67,
      "hit": false,
      "t": 168064.18000000273,
      "d": 215.0533333333442,
      "v": 79
    },
    {
      "midi": 67,
      "hit": false,
      "t": 168386.76000000275,
      "d": 215.0533333333442,
      "v": 79
    },
    {
      "midi": 71,
      "hit": false,
      "t": 168386.76000000275,
      "d": 215.0533333333442,
      "v": 79
    },
    {
      "midi": 74,
      "hit": false,
      "t": 168386.76000000275,
      "d": 215.0533333333442,
      "v": 79
    },
    {
      "midi": 43,
      "hit": false,
      "t": 168386.76000000275,
      "d": 430.1066666666884,
      "v": 79
    },
    {
      "midi": 52,
      "hit": false,
      "t": 168386.76000000275,
      "d": 430.1066666666884,
      "v": 79
    },
    {
      "midi": 67,
      "hit": false,
      "t": 168709.34000000276,
      "d": 215.0533333333442,
      "v": 79
    },
    {
      "midi": 67,
      "hit": false,
      "t": 169031.92000000278,
      "d": 215.0533333333442,
      "v": 79
    },
    {
      "midi": 71,
      "hit": false,
      "t": 169031.92000000278,
      "d": 215.0533333333442,
      "v": 79
    },
    {
      "midi": 74,
      "hit": false,
      "t": 169031.92000000278,
      "d": 215.0533333333442,
      "v": 79
    },
    {
      "midi": 43,
      "hit": false,
      "t": 169031.92000000278,
      "d": 430.1066666666884,
      "v": 79
    },
    {
      "midi": 50,
      "hit": false,
      "t": 169031.92000000278,
      "d": 430.1066666666884,
      "v": 79
    },
    {
      "midi": 67,
      "hit": false,
      "t": 169354.5000000028,
      "d": 215.0533333333442,
      "v": 79
    },
    {
      "midi": 71,
      "hit": false,
      "t": 169354.5000000028,
      "d": 215.0533333333442,
      "v": 79
    },
    {
      "midi": 74,
      "hit": false,
      "t": 169354.5000000028,
      "d": 215.0533333333442,
      "v": 79
    },
    {
      "midi": 67,
      "hit": false,
      "t": 169677.0800000028,
      "d": 215.0533333333442,
      "v": 79
    },
    {
      "midi": 71,
      "hit": false,
      "t": 169677.0800000028,
      "d": 215.0533333333442,
      "v": 79
    },
    {
      "midi": 74,
      "hit": false,
      "t": 169677.0800000028,
      "d": 215.0533333333442,
      "v": 79
    },
    {
      "midi": 43,
      "hit": false,
      "t": 169677.0800000028,
      "d": 430.1066666666884,
      "v": 79
    },
    {
      "midi": 52,
      "hit": false,
      "t": 169677.0800000028,
      "d": 430.1066666666884,
      "v": 79
    },
    {
      "midi": 67,
      "hit": false,
      "t": 169999.66000000283,
      "d": 215.0533333333442,
      "v": 79
    },
    {
      "midi": 71,
      "hit": false,
      "t": 169999.66000000283,
      "d": 215.0533333333442,
      "v": 79
    },
    {
      "midi": 74,
      "hit": false,
      "t": 169999.66000000283,
      "d": 215.0533333333442,
      "v": 79
    },
    {
      "midi": 67,
      "hit": false,
      "t": 170322.24000000284,
      "d": 215.0533333333442,
      "v": 79
    },
    {
      "midi": 71,
      "hit": false,
      "t": 170322.24000000284,
      "d": 215.0533333333442,
      "v": 79
    },
    {
      "midi": 74,
      "hit": false,
      "t": 170322.24000000284,
      "d": 215.0533333333442,
      "v": 79
    },
    {
      "midi": 43,
      "hit": false,
      "t": 170322.24000000284,
      "d": 430.1066666666884,
      "v": 79
    },
    {
      "midi": 50,
      "hit": false,
      "t": 170322.24000000284,
      "d": 430.1066666666884,
      "v": 79
    },
    {
      "midi": 67,
      "hit": false,
      "t": 170644.82000000286,
      "d": 215.0533333333442,
      "v": 79
    },
    {
      "midi": 71,
      "hit": false,
      "t": 170644.82000000286,
      "d": 215.0533333333442,
      "v": 79
    },
    {
      "midi": 74,
      "hit": false,
      "t": 170644.82000000286,
      "d": 215.0533333333442,
      "v": 79
    },
    {
      "midi": 67,
      "hit": false,
      "t": 170967.40000000288,
      "d": 215.0533333333442,
      "v": 79
    },
    {
      "midi": 71,
      "hit": false,
      "t": 170967.40000000288,
      "d": 215.0533333333442,
      "v": 79
    },
    {
      "midi": 74,
      "hit": false,
      "t": 170967.40000000288,
      "d": 215.0533333333442,
      "v": 79
    },
    {
      "midi": 43,
      "hit": false,
      "t": 170967.40000000288,
      "d": 430.1066666666884,
      "v": 79
    },
    {
      "midi": 52,
      "hit": false,
      "t": 170967.40000000288,
      "d": 430.1066666666884,
      "v": 79
    },
    {
      "midi": 67,
      "hit": false,
      "t": 171289.9800000029,
      "d": 215.0533333333442,
      "v": 79
    },
    {
      "midi": 71,
      "hit": false,
      "t": 171289.9800000029,
      "d": 215.0533333333442,
      "v": 79
    },
    {
      "midi": 74,
      "hit": false,
      "t": 171289.9800000029,
      "d": 215.0533333333442,
      "v": 79
    },
    {
      "midi": 65,
      "hit": false,
      "t": 171612.5600000029,
      "d": 215.0533333333442,
      "v": 79
    },
    {
      "midi": 69,
      "hit": false,
      "t": 171612.5600000029,
      "d": 215.0533333333442,
      "v": 79
    },
    {
      "midi": 72,
      "hit": false,
      "t": 171612.5600000029,
      "d": 215.0533333333442,
      "v": 79
    },
    {
      "midi": 41,
      "hit": false,
      "t": 171612.5600000029,
      "d": 430.1066666666884,
      "v": 79
    },
    {
      "midi": 48,
      "hit": false,
      "t": 171612.5600000029,
      "d": 430.1066666666884,
      "v": 79
    },
    {
      "midi": 65,
      "hit": false,
      "t": 171935.14000000292,
      "d": 107.5266666666721,
      "v": 79
    },
    {
      "midi": 69,
      "hit": false,
      "t": 171935.14000000292,
      "d": 107.5266666666721,
      "v": 79
    },
    {
      "midi": 72,
      "hit": false,
      "t": 171935.14000000292,
      "d": 107.5266666666721,
      "v": 79
    },
    {
      "midi": 65,
      "hit": false,
      "t": 172096.43000000293,
      "d": 107.5266666666721,
      "v": 79
    },
    {
      "midi": 69,
      "hit": false,
      "t": 172096.43000000293,
      "d": 107.5266666666721,
      "v": 79
    },
    {
      "midi": 72,
      "hit": false,
      "t": 172096.43000000293,
      "d": 107.5266666666721,
      "v": 79
    },
    {
      "midi": 41,
      "hit": false,
      "t": 172257.72000000294,
      "d": 215.0533333333442,
      "v": 79
    },
    {
      "midi": 48,
      "hit": false,
      "t": 172257.72000000294,
      "d": 215.0533333333442,
      "v": 79
    },
    {
      "midi": 65,
      "hit": false,
      "t": 172257.72000000294,
      "d": 215.0533333333442,
      "v": 79
    },
    {
      "midi": 69,
      "hit": false,
      "t": 172257.72000000294,
      "d": 215.0533333333442,
      "v": 79
    },
    {
      "midi": 72,
      "hit": false,
      "t": 172257.72000000294,
      "d": 215.0533333333442,
      "v": 79
    },
    {
      "midi": 62,
      "hit": false,
      "t": 172580.30000000296,
      "d": 215.0533333333442,
      "v": 79
    },
    {
      "midi": 64,
      "hit": false,
      "t": 172580.30000000296,
      "d": 215.0533333333442,
      "v": 79
    },
    {
      "midi": 71,
      "hit": false,
      "t": 172580.30000000296,
      "d": 215.0533333333442,
      "v": 79
    },
    {
      "midi": 38,
      "hit": false,
      "t": 172902.88000000297,
      "d": 430.1066666666593,
      "v": 79
    },
    {
      "midi": 45,
      "hit": false,
      "t": 172902.88000000297,
      "d": 430.1066666666593,
      "v": 79
    },
    {
      "midi": 52,
      "hit": false,
      "t": 173225.46000000296,
      "d": 215.0533333333442,
      "v": 79
    },
    {
      "midi": 53,
      "hit": false,
      "t": 173225.46000000296,
      "d": 215.0533333333442,
      "v": 79
    },
    {
      "midi": 57,
      "hit": false,
      "t": 173225.46000000296,
      "d": 215.0533333333442,
      "v": 79
    },
    {
      "midi": 52,
      "hit": false,
      "t": 173548.04000000298,
      "d": 215.0533333333442,
      "v": 79
    },
    {
      "midi": 59,
      "hit": false,
      "t": 173548.04000000298,
      "d": 215.0533333333442,
      "v": 79
    },
    {
      "midi": 33,
      "hit": false,
      "t": 173548.04000000298,
      "d": 430.1066666666884,
      "v": 79
    },
    {
      "midi": 45,
      "hit": false,
      "t": 173548.04000000298,
      "d": 430.1066666666884,
      "v": 79
    },
    {
      "midi": 50,
      "hit": false,
      "t": 173870.620000003,
      "d": 537.6333333333605,
      "v": 79
    },
    {
      "midi": 54,
      "hit": false,
      "t": 173870.620000003,
      "d": 537.6333333333605,
      "v": 79
    },
    {
      "midi": 57,
      "hit": false,
      "t": 173870.620000003,
      "d": 537.6333333333605,
      "v": 79
    },
    {
      "midi": 38,
      "hit": false,
      "t": 174193.200000003,
      "d": 430.1066666666884,
      "v": 79
    },
    {
      "midi": 45,
      "hit": false,
      "t": 174193.200000003,
      "d": 430.1066666666884,
      "v": 79
    },
    {
      "midi": 50,
      "hit": false,
      "t": 174515.78000000303,
      "d": 215.0533333333442,
      "v": 79
    },
    {
      "midi": 57,
      "hit": false,
      "t": 174515.78000000303,
      "d": 215.0533333333442,
      "v": 79
    },
    {
      "midi": 60,
      "hit": false,
      "t": 174515.78000000303,
      "d": 215.0533333333442,
      "v": 79
    },
    {
      "midi": 50,
      "hit": false,
      "t": 174838.36000000304,
      "d": 215.0533333333442,
      "v": 79
    },
    {
      "midi": 55,
      "hit": false,
      "t": 174838.36000000304,
      "d": 215.0533333333442,
      "v": 79
    },
    {
      "midi": 59,
      "hit": false,
      "t": 174838.36000000304,
      "d": 215.0533333333442,
      "v": 79
    },
    {
      "midi": 33,
      "hit": false,
      "t": 174838.36000000304,
      "d": 430.1066666666884,
      "v": 79
    },
    {
      "midi": 45,
      "hit": false,
      "t": 174838.36000000304,
      "d": 430.1066666666884,
      "v": 79
    },
    {
      "midi": 50,
      "hit": false,
      "t": 175160.94000000306,
      "d": 537.6333333333605,
      "v": 79
    },
    {
      "midi": 54,
      "hit": false,
      "t": 175160.94000000306,
      "d": 537.6333333333605,
      "v": 79
    },
    {
      "midi": 57,
      "hit": false,
      "t": 175160.94000000306,
      "d": 537.6333333333605,
      "v": 79
    },
    {
      "midi": 38,
      "hit": false,
      "t": 175483.52000000307,
      "d": 430.1066666666884,
      "v": 79
    },
    {
      "midi": 45,
      "hit": false,
      "t": 175483.52000000307,
      "d": 430.1066666666884,
      "v": 79
    },
    {
      "midi": 50,
      "hit": false,
      "t": 175806.1000000031,
      "d": 215.0533333333442,
      "v": 79
    },
    {
      "midi": 57,
      "hit": false,
      "t": 175806.1000000031,
      "d": 215.0533333333442,
      "v": 79
    },
    {
      "midi": 60,
      "hit": false,
      "t": 175806.1000000031,
      "d": 215.0533333333442,
      "v": 79
    },
    {
      "midi": 50,
      "hit": false,
      "t": 176128.6800000031,
      "d": 215.0533333333442,
      "v": 79
    },
    {
      "midi": 55,
      "hit": false,
      "t": 176128.6800000031,
      "d": 215.0533333333442,
      "v": 79
    },
    {
      "midi": 59,
      "hit": false,
      "t": 176128.6800000031,
      "d": 215.0533333333442,
      "v": 79
    },
    {
      "midi": 33,
      "hit": false,
      "t": 176128.6800000031,
      "d": 430.1066666666884,
      "v": 79
    },
    {
      "midi": 45,
      "hit": false,
      "t": 176128.6800000031,
      "d": 430.1066666666884,
      "v": 79
    },
    {
      "midi": 50,
      "hit": false,
      "t": 176451.26000000312,
      "d": 107.5266666666721,
      "v": 79
    },
    {
      "midi": 54,
      "hit": false,
      "t": 176451.26000000312,
      "d": 107.5266666666721,
      "v": 79
    },
    {
      "midi": 57,
      "hit": false,
      "t": 176451.26000000312,
      "d": 107.5266666666721,
      "v": 79
    },
    {
      "midi": 50,
      "hit": false,
      "t": 176612.55000000313,
      "d": 376.34333333335235,
      "v": 79
    },
    {
      "midi": 54,
      "hit": false,
      "t": 176612.55000000313,
      "d": 376.34333333335235,
      "v": 79
    },
    {
      "midi": 57,
      "hit": false,
      "t": 176612.55000000313,
      "d": 376.34333333335235,
      "v": 79
    },
    {
      "midi": 38,
      "hit": false,
      "t": 176773.84000000314,
      "d": 430.1066666666884,
      "v": 79
    },
    {
      "midi": 45,
      "hit": false,
      "t": 176773.84000000314,
      "d": 430.1066666666884,
      "v": 79
    },
    {
      "midi": 50,
      "hit": false,
      "t": 177096.42000000316,
      "d": 537.6333333333605,
      "v": 79
    },
    {
      "midi": 54,
      "hit": false,
      "t": 177096.42000000316,
      "d": 537.6333333333605,
      "v": 79
    },
    {
      "midi": 57,
      "hit": false,
      "t": 177096.42000000316,
      "d": 537.6333333333605,
      "v": 79
    },
    {
      "midi": 38,
      "hit": false,
      "t": 177419.00000000317,
      "d": 215.0533333333442,
      "v": 79
    },
    {
      "midi": 45,
      "hit": false,
      "t": 177419.00000000317,
      "d": 215.0533333333442,
      "v": 79
    },
    {
      "midi": 50,
      "hit": false,
      "t": 177741.5800000032,
      "d": 215.0533333333442,
      "v": 79
    },
    {
      "midi": 55,
      "hit": false,
      "t": 177741.5800000032,
      "d": 215.0533333333442,
      "v": 79
    },
    {
      "midi": 59,
      "hit": false,
      "t": 177741.5800000032,
      "d": 215.0533333333442,
      "v": 79
    },
    {
      "midi": 31,
      "hit": false,
      "t": 178064.1600000032,
      "d": 215.0533333333442,
      "v": 79
    },
    {
      "midi": 38,
      "hit": false,
      "t": 178064.1600000032,
      "d": 215.0533333333442,
      "v": 79
    },
    {
      "midi": 31,
      "hit": false,
      "t": 178386.7400000032,
      "d": 215.0533333333151,
      "v": 79
    },
    {
      "midi": 38,
      "hit": false,
      "t": 178386.7400000032,
      "d": 215.0533333333151,
      "v": 79
    },
    {
      "midi": 47,
      "hit": false,
      "t": 178386.7400000032,
      "d": 215.0533333333151,
      "v": 95
    },
    {
      "midi": 31,
      "hit": false,
      "t": 178709.32000000318,
      "d": 215.0533333333151,
      "v": 79
    },
    {
      "midi": 38,
      "hit": false,
      "t": 178709.32000000318,
      "d": 215.0533333333151,
      "v": 79
    },
    {
      "midi": 52,
      "hit": false,
      "t": 178709.32000000318,
      "d": 215.0533333333151,
      "v": 95
    },
    {
      "midi": 31,
      "hit": false,
      "t": 179031.90000000314,
      "d": 215.0533333333442,
      "v": 79
    },
    {
      "midi": 38,
      "hit": false,
      "t": 179031.90000000314,
      "d": 215.0533333333442,
      "v": 79
    },
    {
      "midi": 47,
      "hit": false,
      "t": 179031.90000000314,
      "d": 215.0533333333442,
      "v": 95
    },
    {
      "midi": 31,
      "hit": false,
      "t": 179354.48000000312,
      "d": 215.0533333333151,
      "v": 79
    },
    {
      "midi": 38,
      "hit": false,
      "t": 179354.48000000312,
      "d": 215.0533333333151,
      "v": 79
    },
    {
      "midi": 31,
      "hit": false,
      "t": 179677.0600000031,
      "d": 215.0533333333151,
      "v": 79
    },
    {
      "midi": 38,
      "hit": false,
      "t": 179677.0600000031,
      "d": 215.0533333333151,
      "v": 79
    },
    {
      "midi": 47,
      "hit": false,
      "t": 179677.0600000031,
      "d": 215.0533333333151,
      "v": 95
    },
    {
      "midi": 31,
      "hit": false,
      "t": 179999.64000000307,
      "d": 215.0533333333151,
      "v": 79
    },
    {
      "midi": 38,
      "hit": false,
      "t": 179999.64000000307,
      "d": 215.0533333333151,
      "v": 79
    },
    {
      "midi": 52,
      "hit": false,
      "t": 179999.64000000307,
      "d": 215.0533333333151,
      "v": 95
    },
    {
      "midi": 31,
      "hit": false,
      "t": 180322.22000000303,
      "d": 215.0533333333442,
      "v": 79
    },
    {
      "midi": 38,
      "hit": false,
      "t": 180322.22000000303,
      "d": 215.0533333333442,
      "v": 79
    },
    {
      "midi": 47,
      "hit": false,
      "t": 180322.22000000303,
      "d": 215.0533333333442,
      "v": 95
    },
    {
      "midi": 31,
      "hit": false,
      "t": 180644.80000000302,
      "d": 215.0533333333151,
      "v": 79
    },
    {
      "midi": 38,
      "hit": false,
      "t": 180644.80000000302,
      "d": 215.0533333333151,
      "v": 79
    },
    {
      "midi": 31,
      "hit": false,
      "t": 180967.380000003,
      "d": 215.0533333333151,
      "v": 79
    },
    {
      "midi": 38,
      "hit": false,
      "t": 180967.380000003,
      "d": 215.0533333333151,
      "v": 79
    },
    {
      "midi": 47,
      "hit": false,
      "t": 180967.380000003,
      "d": 215.0533333333151,
      "v": 95
    },
    {
      "midi": 31,
      "hit": false,
      "t": 181289.96000000296,
      "d": 215.0533333333442,
      "v": 79
    },
    {
      "midi": 38,
      "hit": false,
      "t": 181289.96000000296,
      "d": 215.0533333333442,
      "v": 79
    },
    {
      "midi": 52,
      "hit": false,
      "t": 181289.96000000296,
      "d": 215.0533333333442,
      "v": 95
    },
    {
      "midi": 31,
      "hit": false,
      "t": 181612.54000000295,
      "d": 215.0533333333151,
      "v": 79
    },
    {
      "midi": 38,
      "hit": false,
      "t": 181612.54000000295,
      "d": 215.0533333333151,
      "v": 79
    },
    {
      "midi": 47,
      "hit": false,
      "t": 181612.54000000295,
      "d": 215.0533333333151,
      "v": 95
    },
    {
      "midi": 41,
      "hit": false,
      "t": 181935.1200000029,
      "d": 215.0533333333151,
      "v": 79
    },
    {
      "midi": 45,
      "hit": false,
      "t": 181935.1200000029,
      "d": 215.0533333333151,
      "v": 79
    },
    {
      "midi": 48,
      "hit": false,
      "t": 181935.1200000029,
      "d": 215.0533333333151,
      "v": 79
    },
    {
      "midi": 29,
      "hit": false,
      "t": 181935.1200000029,
      "d": 430.1066666666302,
      "v": 79
    },
    {
      "midi": 36,
      "hit": false,
      "t": 181935.1200000029,
      "d": 430.1066666666302,
      "v": 79
    },
    {
      "midi": 41,
      "hit": false,
      "t": 182257.7000000029,
      "d": 215.0533333333151,
      "v": 79
    },
    {
      "midi": 45,
      "hit": false,
      "t": 182257.7000000029,
      "d": 215.0533333333151,
      "v": 79
    },
    {
      "midi": 48,
      "hit": false,
      "t": 182257.7000000029,
      "d": 215.0533333333151,
      "v": 79
    },
    {
      "midi": 29,
      "hit": false,
      "t": 182580.28000000285,
      "d": 430.1066666666593,
      "v": 79
    },
    {
      "midi": 36,
      "hit": false,
      "t": 182580.28000000285,
      "d": 430.1066666666593,
      "v": 79
    },
    {
      "midi": 41,
      "hit": false,
      "t": 182580.28000000285,
      "d": 430.1066666666593,
      "v": 79
    },
    {
      "midi": 45,
      "hit": false,
      "t": 182580.28000000285,
      "d": 430.1066666666593,
      "v": 79
    },
    {
      "midi": 48,
      "hit": false,
      "t": 182580.28000000285,
      "d": 430.1066666666593,
      "v": 79
    },
    {
      "midi": 38,
      "hit": false,
      "t": 183225.44000000285,
      "d": 322.5799999999872,
      "v": 79
    },
    {
      "midi": 45,
      "hit": false,
      "t": 183225.44000000285,
      "d": 430.1066666666302,
      "v": 79
    },
    {
      "midi": 50,
      "hit": false,
      "t": 183548.02000000284,
      "d": 107.526666666643,
      "v": 79
    },
    {
      "midi": 57,
      "hit": false,
      "t": 183548.02000000284,
      "d": 107.526666666643,
      "v": 79
    },
    {
      "midi": 60,
      "hit": false,
      "t": 183548.02000000284,
      "d": 107.526666666643,
      "v": 79
    },
    {
      "midi": 50,
      "hit": false,
      "t": 183870.6000000028,
      "d": 215.0533333333442,
      "v": 79
    },
    {
      "midi": 55,
      "hit": false,
      "t": 183870.6000000028,
      "d": 215.0533333333442,
      "v": 79
    },
    {
      "midi": 59,
      "hit": false,
      "t": 183870.6000000028,
      "d": 215.0533333333442,
      "v": 79
    },
    {
      "midi": 45,
      "hit": false,
      "t": 183870.6000000028,
      "d": 322.5799999999872,
      "v": 79
    },
    {
      "midi": 33,
      "hit": false,
      "t": 183870.6000000028,
      "d": 430.1066666666302,
      "v": 79
    },
    {
      "midi": 50,
      "hit": false,
      "t": 184193.1800000028,
      "d": 537.6333333333023,
      "v": 79
    },
    {
      "midi": 54,
      "hit": false,
      "t": 184193.1800000028,
      "d": 537.6333333333023,
      "v": 79
    },
    {
      "midi": 57,
      "hit": false,
      "t": 184193.1800000028,
      "d": 537.6333333333023,
      "v": 79
    },
    {
      "midi": 38,
      "hit": false,
      "t": 184515.76000000277,
      "d": 322.5799999999581,
      "v": 79
    },
    {
      "midi": 45,
      "hit": false,
      "t": 184515.76000000277,
      "d": 430.1066666666302,
      "v": 79
    },
    {
      "midi": 50,
      "hit": false,
      "t": 184838.34000000273,
      "d": 215.0533333333442,
      "v": 79
    },
    {
      "midi": 57,
      "hit": false,
      "t": 184838.34000000273,
      "d": 215.0533333333442,
      "v": 79
    },
    {
      "midi": 60,
      "hit": false,
      "t": 184838.34000000273,
      "d": 215.0533333333442,
      "v": 79
    },
    {
      "midi": 50,
      "hit": false,
      "t": 185160.92000000272,
      "d": 215.0533333333151,
      "v": 79
    },
    {
      "midi": 55,
      "hit": false,
      "t": 185160.92000000272,
      "d": 215.0533333333151,
      "v": 79
    },
    {
      "midi": 59,
      "hit": false,
      "t": 185160.92000000272,
      "d": 215.0533333333151,
      "v": 79
    },
    {
      "midi": 45,
      "hit": false,
      "t": 185160.92000000272,
      "d": 322.5799999999872,
      "v": 79
    },
    {
      "midi": 33,
      "hit": false,
      "t": 185160.92000000272,
      "d": 430.1066666666302,
      "v": 79
    },
    {
      "midi": 54,
      "hit": false,
      "t": 185483.5000000027,
      "d": 483.86999999996624,
      "v": 79
    },
    {
      "midi": 50,
      "hit": false,
      "t": 185483.5000000027,
      "d": 537.6333333333023,
      "v": 79
    },
    {
      "midi": 57,
      "hit": false,
      "t": 185483.5000000027,
      "d": 537.6333333333023,
      "v": 79
    },
    {
      "midi": 38,
      "hit": false,
      "t": 185806.0800000027,
      "d": 416.66583333330345,
      "v": 79
    },
    {
      "midi": 45,
      "hit": false,
      "t": 185806.0800000027,
      "d": 416.66583333330345,
      "v": 79
    },
    {
      "midi": 54,
      "hit": false,
      "t": 186128.66000000265,
      "d": 215.0533333333442,
      "v": 79
    },
    {
      "midi": 57,
      "hit": false,
      "t": 186128.66000000265,
      "d": 215.0533333333442,
      "v": 79
    },
    {
      "midi": 60,
      "hit": false,
      "t": 186128.66000000265,
      "d": 215.0533333333442,
      "v": 79
    },
    {
      "midi": 50,
      "hit": false,
      "t": 186451.24000000264,
      "d": 215.0533333333151,
      "v": 79
    },
    {
      "midi": 57,
      "hit": false,
      "t": 186451.24000000264,
      "d": 215.0533333333151,
      "v": 79
    },
    {
      "midi": 59,
      "hit": false,
      "t": 186451.24000000264,
      "d": 215.0533333333151,
      "v": 79
    },
    {
      "midi": 33,
      "hit": false,
      "t": 186451.24000000264,
      "d": 416.66583333330345,
      "v": 79
    },
    {
      "midi": 45,
      "hit": false,
      "t": 186451.24000000264,
      "d": 416.66583333330345,
      "v": 79
    },
    {
      "midi": 50,
      "hit": false,
      "t": 186773.82000000263,
      "d": 1169.3524999999208,
      "v": 79
    },
    {
      "midi": 54,
      "hit": false,
      "t": 186773.82000000263,
      "d": 1169.3524999999208,
      "v": 79
    },
    {
      "midi": 57,
      "hit": false,
      "t": 186773.82000000263,
      "d": 1169.3524999999208,
      "v": 79
    },
    {
      "midi": 38,
      "hit": false,
      "t": 187096.40000000258,
      "d": 833.331666666636,
      "v": 79
    },
    {
      "midi": 45,
      "hit": false,
      "t": 187096.40000000258,
      "d": 833.331666666636,
      "v": 79
    },
    {
      "midi": 57,
      "hit": false,
      "t": 188386.72000000253,
      "d": 215.0533333333442,
      "v": 79
    },
    {
      "midi": 61,
      "hit": false,
      "t": 188386.72000000253,
      "d": 215.0533333333442,
      "v": 79
    },
    {
      "midi": 64,
      "hit": false,
      "t": 188386.72000000253,
      "d": 215.0533333333442,
      "v": 79
    },
    {
      "midi": 45,
      "hit": false,
      "t": 188386.72000000253,
      "d": 416.66583333330345,
      "v": 79
    },
    {
      "midi": 52,
      "hit": false,
      "t": 188386.72000000253,
      "d": 416.66583333330345,
      "v": 79
    },
    {
      "midi": 57,
      "hit": false,
      "t": 188709.30000000252,
      "d": 215.0533333333151,
      "v": 79
    },
    {
      "midi": 61,
      "hit": false,
      "t": 188709.30000000252,
      "d": 215.0533333333151,
      "v": 79
    },
    {
      "midi": 64,
      "hit": false,
      "t": 188709.30000000252,
      "d": 215.0533333333151,
      "v": 79
    },
    {
      "midi": 57,
      "hit": false,
      "t": 189031.8800000025,
      "d": 215.0533333333151,
      "v": 79
    },
    {
      "midi": 61,
      "hit": false,
      "t": 189031.8800000025,
      "d": 215.0533333333151,
      "v": 79
    },
    {
      "midi": 64,
      "hit": false,
      "t": 189031.8800000025,
      "d": 215.0533333333151,
      "v": 79
    },
    {
      "midi": 45,
      "hit": false,
      "t": 189031.8800000025,
      "d": 416.66583333330345,
      "v": 79
    },
    {
      "midi": 52,
      "hit": false,
      "t": 189031.8800000025,
      "d": 416.66583333330345,
      "v": 79
    },
    {
      "midi": 57,
      "hit": false,
      "t": 189354.4600000025,
      "d": 215.0533333333151,
      "v": 79
    },
    {
      "midi": 61,
      "hit": false,
      "t": 189354.4600000025,
      "d": 215.0533333333151,
      "v": 79
    },
    {
      "midi": 64,
      "hit": false,
      "t": 189354.4600000025,
      "d": 215.0533333333151,
      "v": 79
    },
    {
      "midi": 57,
      "hit": false,
      "t": 189677.04000000245,
      "d": 215.0533333333442,
      "v": 79
    },
    {
      "midi": 61,
      "hit": false,
      "t": 189677.04000000245,
      "d": 215.0533333333442,
      "v": 79
    },
    {
      "midi": 64,
      "hit": false,
      "t": 189677.04000000245,
      "d": 215.0533333333442,
      "v": 79
    },
    {
      "midi": 45,
      "hit": false,
      "t": 189677.04000000245,
      "d": 416.66583333330345,
      "v": 79
    },
    {
      "midi": 52,
      "hit": false,
      "t": 189677.04000000245,
      "d": 416.66583333330345,
      "v": 79
    },
    {
      "midi": 57,
      "hit": false,
      "t": 189999.62000000244,
      "d": 215.0533333333151,
      "v": 79
    },
    {
      "midi": 61,
      "hit": false,
      "t": 189999.62000000244,
      "d": 215.0533333333151,
      "v": 79
    },
    {
      "midi": 64,
      "hit": false,
      "t": 189999.62000000244,
      "d": 215.0533333333151,
      "v": 79
    },
    {
      "midi": 57,
      "hit": false,
      "t": 190322.20000000243,
      "d": 215.0533333333151,
      "v": 79
    },
    {
      "midi": 61,
      "hit": false,
      "t": 190322.20000000243,
      "d": 215.0533333333151,
      "v": 79
    },
    {
      "midi": 64,
      "hit": false,
      "t": 190322.20000000243,
      "d": 215.0533333333151,
      "v": 79
    },
    {
      "midi": 45,
      "hit": false,
      "t": 190322.20000000243,
      "d": 416.66583333330345,
      "v": 79
    },
    {
      "midi": 52,
      "hit": false,
      "t": 190322.20000000243,
      "d": 416.66583333330345,
      "v": 79
    },
    {
      "midi": 55,
      "hit": false,
      "t": 190644.78000000239,
      "d": 215.0533333333442,
      "v": 79
    }
  ]
}