{
  "jsonPath": "Rock/Art Rock/Brian Eno/put-a-straw-under-baby-2004-digital-remaster.json",
  "path": "Rock\\Art Rock\\Brian Eno\\Put A Straw Under Baby (2004 Digital Remaster).mid",
  "name": "Put A Straw Under Baby (2004 Digital Remaster)",
  "difficulty": "Advanced",
  "bpm": 100,
  "notes": [
    {
      "midi": 60,
      "hit": false,
      "t": 4800,
      "d": 2020,
      "v": 74
    },
    {
      "midi": 65,
      "hit": false,
      "t": 4800,
      "d": 2085,
      "v": 76
    },
    {
      "midi": 69,
      "hit": false,
      "t": 4800,
      "d": 2105,
      "v": 81
    },
    {
      "midi": 41,
      "hit": false,
      "t": 4800,
      "d": 4800,
      "v": 60
    },
    {
      "midi": 57,
      "hit": false,
      "t": 6750,
      "d": 2680,
      "v": 90
    },
    {
      "midi": 60,
      "hit": false,
      "t": 6900,
      "d": 580,
      "v": 67
    },
    {
      "midi": 65,
      "hit": false,
      "t": 7050,
      "d": 2530,
      "v": 68
    },
    {
      "midi": 69,
      "hit": false,
      "t": 7200,
      "d": 2370,
      "v": 77
    },
    {
      "midi": 60,
      "hit": false,
      "t": 8100,
      "d": 455,
      "v": 59
    },
    {
      "midi": 60,
      "hit": false,
      "t": 8700,
      "d": 320,
      "v": 68
    },
    {
      "midi": 77,
      "hit": false,
      "t": 9000,
      "d": 580,
      "v": 88
    },
    {
      "midi": 55,
      "hit": false,
      "t": 9600,
      "d": 1915,
      "v": 65
    },
    {
      "midi": 58,
      "hit": false,
      "t": 9600,
      "d": 2255,
      "v": 71
    },
    {
      "midi": 60,
      "hit": false,
      "t": 9600,
      "d": 3450,
      "v": 79
    },
    {
      "midi": 64,
      "hit": false,
      "t": 9600,
      "d": 3460,
      "v": 84
    },
    {
      "midi": 67,
      "hit": false,
      "t": 9600,
      "d": 3485,
      "v": 80
    },
    {
      "midi": 48,
      "hit": false,
      "t": 9600,
      "d": 4800,
      "v": 79
    },
    {
      "midi": 55,
      "hit": false,
      "t": 11700,
      "d": 985,
      "v": 88
    },
    {
      "midi": 58,
      "hit": false,
      "t": 12000,
      "d": 990,
      "v": 78
    },
    {
      "midi": 55,
      "hit": false,
      "t": 12900,
      "d": 495,
      "v": 83
    },
    {
      "midi": 58,
      "hit": false,
      "t": 13050,
      "d": 1350,
      "v": 79
    },
    {
      "midi": 60,
      "hit": false,
      "t": 13200,
      "d": 1200,
      "v": 94
    },
    {
      "midi": 55,
      "hit": false,
      "t": 13500,
      "d": 900,
      "v": 80
    },
    {
      "midi": 64,
      "hit": false,
      "t": 13800,
      "d": 350,
      "v": 81
    },
    {
      "midi": 67,
      "hit": false,
      "t": 14100,
      "d": 300,
      "v": 88
    },
    {
      "midi": 55,
      "hit": false,
      "t": 14400,
      "d": 1915,
      "v": 65
    },
    {
      "midi": 58,
      "hit": false,
      "t": 14400,
      "d": 2255,
      "v": 71
    },
    {
      "midi": 60,
      "hit": false,
      "t": 14400,
      "d": 3450,
      "v": 79
    },
    {
      "midi": 64,
      "hit": false,
      "t": 14400,
      "d": 3460,
      "v": 84
    },
    {
      "midi": 67,
      "hit": false,
      "t": 14400,
      "d": 3485,
      "v": 80
    },
    {
      "midi": 48,
      "hit": false,
      "t": 14400,
      "d": 4800,
      "v": 79
    },
    {
      "midi": 55,
      "hit": false,
      "t": 16500,
      "d": 985,
      "v": 88
    },
    {
      "midi": 58,
      "hit": false,
      "t": 16800,
      "d": 990,
      "v": 78
    },
    {
      "midi": 55,
      "hit": false,
      "t": 17700,
      "d": 495,
      "v": 83
    },
    {
      "midi": 58,
      "hit": false,
      "t": 17850,
      "d": 1350,
      "v": 79
    },
    {
      "midi": 60,
      "hit": false,
      "t": 18000,
      "d": 1200,
      "v": 94
    },
    {
      "midi": 55,
      "hit": false,
      "t": 18300,
      "d": 900,
      "v": 80
    },
    {
      "midi": 64,
      "hit": false,
      "t": 18600,
      "d": 350,
      "v": 81
    },
    {
      "midi": 67,
      "hit": false,
      "t": 18900,
      "d": 300,
      "v": 88
    },
    {
      "midi": 57,
      "hit": false,
      "t": 19200,
      "d": 1790,
      "v": 59
    },
    {
      "midi": 60,
      "hit": false,
      "t": 19200,
      "d": 1965,
      "v": 78
    },
    {
      "midi": 65,
      "hit": false,
      "t": 19200,
      "d": 2045,
      "v": 80
    },
    {
      "midi": 41,
      "hit": false,
      "t": 19200,
      "d": 2400,
      "v": 68
    },
    {
      "midi": 69,
      "hit": false,
      "t": 19200,
      "d": 2400,
      "v": 79
    },
    {
      "midi": 57,
      "hit": false,
      "t": 21150,
      "d": 450,
      "v": 77
    },
    {
      "midi": 60,
      "hit": false,
      "t": 21300,
      "d": 300,
      "v": 65
    },
    {
      "midi": 65,
      "hit": false,
      "t": 21450,
      "d": 150,
      "v": 88
    },
    {
      "midi": 57,
      "hit": false,
      "t": 21600,
      "d": 1555,
      "v": 75
    },
    {
      "midi": 60,
      "hit": false,
      "t": 21600,
      "d": 1650,
      "v": 98
    },
    {
      "midi": 63,
      "hit": false,
      "t": 21600,
      "d": 1650,
      "v": 74
    },
    {
      "midi": 65,
      "hit": false,
      "t": 21600,
      "d": 1665,
      "v": 79
    },
    {
      "midi": 41,
      "hit": false,
      "t": 21600,
      "d": 2400,
      "v": 92
    },
    {
      "midi": 53,
      "hit": false,
      "t": 23100,
      "d": 860,
      "v": 83
    },
    {
      "midi": 57,
      "hit": false,
      "t": 23265,
      "d": 675,
      "v": 73
    },
    {
      "midi": 60,
      "hit": false,
      "t": 23400,
      "d": 505,
      "v": 79
    },
    {
      "midi": 63,
      "hit": false,
      "t": 23550,
      "d": 325,
      "v": 78
    },
    {
      "midi": 65,
      "hit": false,
      "t": 23700,
      "d": 205,
      "v": 88
    },
    {
      "midi": 65,
      "hit": false,
      "t": 24000,
      "d": 35,
      "v": 86
    },
    {
      "midi": 62,
      "hit": false,
      "t": 24000,
      "d": 1665,
      "v": 84
    },
    {
      "midi": 46,
      "hit": false,
      "t": 24000,
      "d": 2400,
      "v": 73
    },
    {
      "midi": 58,
      "hit": false,
      "t": 24000,
      "d": 2400,
      "v": 72
    },
    {
      "midi": 53,
      "hit": false,
      "t": 25500,
      "d": 900,
      "v": 86
    },
    {
      "midi": 62,
      "hit": false,
      "t": 25800,
      "d": 600,
      "v": 78
    },
    {
      "midi": 65,
      "hit": false,
      "t": 26100,
      "d": 295,
      "v": 102
    },
    {
      "midi": 65,
      "hit": false,
      "t": 26400,
      "d": 1230,
      "v": 83
    },
    {
      "midi": 44,
      "hit": false,
      "t": 26400,
      "d": 2400,
      "v": 66
    },
    {
      "midi": 56,
      "hit": false,
      "t": 26400,
      "d": 2400,
      "v": 75
    },
    {
      "midi": 59,
      "hit": false,
      "t": 26400,
      "d": 2400,
      "v": 63
    },
    {
      "midi": 62,
      "hit": false,
      "t": 26400,
      "d": 2400,
      "v": 73
    },
    {
      "midi": 74,
      "hit": false,
      "t": 27600,
      "d": 655,
      "v": 96
    },
    {
      "midi": 65,
      "hit": false,
      "t": 28200,
      "d": 570,
      "v": 83
    },
    {
      "midi": 84,
      "hit": false,
      "t": 28800,
      "d": 2230,
      "v": 81
    },
    {
      "midi": 41,
      "hit": false,
      "t": 28800,
      "d": 4800,
      "v": 80
    },
    {
      "midi": 57,
      "hit": false,
      "t": 31050,
      "d": 2550,
      "v": 74
    },
    {
      "midi": 60,
      "hit": false,
      "t": 32550,
      "d": 555,
      "v": 70
    },
    {
      "midi": 65,
      "hit": false,
      "t": 32700,
      "d": 900,
      "v": 77
    },
    {
      "midi": 69,
      "hit": false,
      "t": 33000,
      "d": 600,
      "v": 79
    },
    {
      "midi": 60,
      "hit": false,
      "t": 33300,
      "d": 300,
      "v": 66
    },
    {
      "midi": 84,
      "hit": false,
      "t": 33600,
      "d": 2230,
      "v": 81
    },
    {
      "midi": 48,
      "hit": false,
      "t": 33600,
      "d": 4800,
      "v": 80
    },
    {
      "midi": 58,
      "hit": false,
      "t": 35850,
      "d": 2550,
      "v": 74
    },
    {
      "midi": 60,
      "hit": false,
      "t": 37350,
      "d": 555,
      "v": 70
    },
    {
      "midi": 64,
      "hit": false,
      "t": 37500,
      "d": 900,
      "v": 77
    },
    {
      "midi": 67,
      "hit": false,
      "t": 37800,
      "d": 600,
      "v": 79
    },
    {
      "midi": 60,
      "hit": false,
      "t": 38100,
      "d": 300,
      "v": 66
    },
    {
      "midi": 57,
      "hit": false,
      "t": 38400,
      "d": 1790,
      "v": 59
    },
    {
      "midi": 60,
      "hit": false,
      "t": 38400,
      "d": 1965,
      "v": 78
    },
    {
      "midi": 65,
      "hit": false,
      "t": 38400,
      "d": 2045,
      "v": 80
    },
    {
      "midi": 41,
      "hit": false,
      "t": 38400,
      "d": 2400,
      "v": 68
    },
    {
      "midi": 69,
      "hit": false,
      "t": 38400,
      "d": 2400,
      "v": 79
    },
    {
      "midi": 57,
      "hit": false,
      "t": 40350,
      "d": 450,
      "v": 77
    },
    {
      "midi": 60,
      "hit": false,
      "t": 40500,
      "d": 300,
      "v": 65
    },
    {
      "midi": 65,
      "hit": false,
      "t": 40650,
      "d": 150,
      "v": 88
    },
    {
      "midi": 63,
      "hit": false,
      "t": 40800,
      "d": 1230,
      "v": 83
    },
    {
      "midi": 41,
      "hit": false,
      "t": 40800,
      "d": 2400,
      "v": 66
    },
    {
      "midi": 53,
      "hit": false,
      "t": 40800,
      "d": 2400,
      "v": 75
    },
    {
      "midi": 57,
      "hit": false,
      "t": 40800,
      "d": 2400,
      "v": 63
    },
    {
      "midi": 60,
      "hit": false,
      "t": 40800,
      "d": 2400,
      "v": 73
    },
    {
      "midi": 72,
      "hit": false,
      "t": 42000,
      "d": 655,
      "v": 96
    },
    {
      "midi": 63,
      "hit": false,
      "t": 42600,
      "d": 570,
      "v": 83
    },
    {
      "midi": 53,
      "hit": false,
      "t": 43200,
      "d": 1915,
      "v": 65
    },
    {
      "midi": 58,
      "hit": false,
      "t": 43200,
      "d": 2255,
      "v": 71
    },
    {
      "midi": 62,
      "hit": false,
      "t": 43200,
      "d": 3450,
      "v": 79
    },
    {
      "midi": 65,
      "hit": false,
      "t": 43200,
      "d": 3460,
      "v": 84
    },
    {
      "midi": 46,
      "hit": false,
      "t": 43200,
      "d": 4800,
      "v": 79
    },
    {
      "midi": 53,
      "hit": false,
      "t": 45300,
      "d": 985,
      "v": 88
    },
    {
      "midi": 58,
      "hit": false,
      "t": 45600,
      "d": 990,
      "v": 78
    },
    {
      "midi": 53,
      "hit": false,
      "t": 46500,
      "d": 495,
      "v": 83
    },
    {
      "midi": 58,
      "hit": false,
      "t": 46650,
      "d": 1350,
      "v": 79
    },
    {
      "midi": 62,
      "hit": false,
      "t": 46800,
      "d": 1200,
      "v": 94
    },
    {
      "midi": 53,
      "hit": false,
      "t": 47100,
      "d": 900,
      "v": 80
    },
    {
      "midi": 65,
      "hit": false,
      "t": 47400,
      "d": 350,
      "v": 81
    },
    {
      "midi": 84,
      "hit": false,
      "t": 48000,
      "d": 2230,
      "v": 81
    },
    {
      "midi": 41,
      "hit": false,
      "t": 48000,
      "d": 4800,
      "v": 80
    },
    {
      "midi": 57,
      "hit": false,
      "t": 50250,
      "d": 2550,
      "v": 74
    },
    {
      "midi": 60,
      "hit": false,
      "t": 51750,
      "d": 555,
      "v": 70
    },
    {
      "midi": 65,
      "hit": false,
      "t": 51900,
      "d": 900,
      "v": 77
    },
    {
      "midi": 69,
      "hit": false,
      "t": 52200,
      "d": 600,
      "v": 79
    },
    {
      "midi": 60,
      "hit": false,
      "t": 52500,
      "d": 300,
      "v": 66
    },
    {
      "midi": 58,
      "hit": false,
      "t": 52800,
      "d": 2020,
      "v": 74
    },
    {
      "midi": 60,
      "hit": false,
      "t": 52800,
      "d": 2085,
      "v": 76
    },
    {
      "midi": 64,
      "hit": false,
      "t": 52800,
      "d": 2105,
      "v": 81
    },
    {
      "midi": 67,
      "hit": false,
      "t": 52800,
      "d": 2110,
      "v": 78
    },
    {
      "midi": 48,
      "hit": false,
      "t": 52800,
      "d": 4800,
      "v": 60
    },
    {
      "midi": 55,
      "hit": false,
      "t": 54750,
      "d": 2680,
      "v": 90
    },
    {
      "midi": 58,
      "hit": false,
      "t": 54900,
      "d": 580,
      "v": 67
    },
    {
      "midi": 60,
      "hit": false,
      "t": 55050,
      "d": 2530,
      "v": 68
    },
    {
      "midi": 64,
      "hit": false,
      "t": 55200,
      "d": 2370,
      "v": 77
    },
    {
      "midi": 58,
      "hit": false,
      "t": 56100,
      "d": 455,
      "v": 59
    },
    {
      "midi": 67,
      "hit": false,
      "t": 56400,
      "d": 1170,
      "v": 102
    },
    {
      "midi": 58,
      "hit": false,
      "t": 56700,
      "d": 320,
      "v": 68
    },
    {
      "midi": 72,
      "hit": false,
      "t": 57000,
      "d": 580,
      "v": 88
    },
    {
      "midi": 60,
      "hit": false,
      "t": 57600,
      "d": 1555,
      "v": 75
    },
    {
      "midi": 65,
      "hit": false,
      "t": 57600,
      "d": 1650,
      "v": 98
    },
    {
      "midi": 69,
      "hit": false,
      "t": 57600,
      "d": 1650,
      "v": 74
    },
    {
      "midi": 41,
      "hit": false,
      "t": 57600,
      "d": 2400,
      "v": 92
    },
    {
      "midi": 57,
      "hit": false,
      "t": 59100,
      "d": 860,
      "v": 83
    },
    {
      "midi": 60,
      "hit": false,
      "t": 59265,
      "d": 675,
      "v": 73
    },
    {
      "midi": 65,
      "hit": false,
      "t": 59400,
      "d": 505,
      "v": 79
    },
    {
      "midi": 69,
      "hit": false,
      "t": 59550,
      "d": 325,
      "v": 78
    },
    {
      "midi": 57,
      "hit": false,
      "t": 60000,
      "d": 495,
      "v": 65
    },
    {
      "midi": 60,
      "hit": false,
      "t": 60000,
      "d": 625,
      "v": 75
    },
    {
      "midi": 63,
      "hit": false,
      "t": 60000,
      "d": 860,
      "v": 78
    },
    {
      "midi": 65,
      "hit": false,
      "t": 60000,
      "d": 885,
      "v": 76
    },
    {
      "midi": 41,
      "hit": false,
      "t": 60000,
      "d": 2360,
      "v": 83
    },
    {
      "midi": 53,
      "hit": false,
      "t": 60300,
      "d": 975,
      "v": 77
    },
    {
      "midi": 57,
      "hit": false,
      "t": 60625,
      "d": 1100,
      "v": 75
    },
    {
      "midi": 60,
      "hit": false,
      "t": 60900,
      "d": 620,
      "v": 61
    },
    {
      "midi": 63,
      "hit": false,
      "t": 61200,
      "d": 415,
      "v": 76
    },
    {
      "midi": 53,
      "hit": false,
      "t": 61500,
      "d": 550,
      "v": 72
    },
    {
      "midi": 57,
      "hit": false,
      "t": 61800,
      "d": 340,
      "v": 30
    },
    {
      "midi": 63,
      "hit": false,
      "t": 61800,
      "d": 340,
      "v": 65
    },
    {
      "midi": 65,
      "hit": false,
      "t": 62100,
      "d": 185,
      "v": 107
    },
    {
      "midi": 58,
      "hit": false,
      "t": 62400,
      "d": 1555,
      "v": 75
    },
    {
      "midi": 62,
      "hit": false,
      "t": 62400,
      "d": 1650,
      "v": 98
    },
    {
      "midi": 65,
      "hit": false,
      "t": 62400,
      "d": 1650,
      "v": 74
    },
    {
      "midi": 46,
      "hit": false,
      "t": 62400,
      "d": 2400,
      "v": 92
    },
    {
      "midi": 53,
      "hit": false,
      "t": 63900,
      "d": 860,
      "v": 83
    },
    {
      "midi": 58,
      "hit": false,
      "t": 64065,
      "d": 675,
      "v": 73
    },
    {
      "midi": 62,
      "hit": false,
      "t": 64200,
      "d": 505,
      "v": 79
    },
    {
      "midi": 65,
      "hit": false,
      "t": 64350,
      "d": 325,
      "v": 78
    },
    {
      "midi": 65,
      "hit": false,
      "t": 64800,
      "d": 1230,
      "v": 83
    },
    {
      "midi": 44,
      "hit": false,
      "t": 64800,
      "d": 2400,
      "v": 66
    },
    {
      "midi": 56,
      "hit": false,
      "t": 64800,
      "d": 2400,
      "v": 75
    },
    {
      "midi": 59,
      "hit": false,
      "t": 64800,
      "d": 2400,
      "v": 63
    },
    {
      "midi": 62,
      "hit": false,
      "t": 64800,
      "d": 2400,
      "v": 73
    },
    {
      "midi": 74,
      "hit": false,
      "t": 66000,
      "d": 655,
      "v": 96
    },
    {
      "midi": 65,
      "hit": false,
      "t": 66600,
      "d": 570,
      "v": 83
    },
    {
      "midi": 57,
      "hit": false,
      "t": 67200,
      "d": 1915,
      "v": 65
    },
    {
      "midi": 60,
      "hit": false,
      "t": 67200,
      "d": 2255,
      "v": 71
    },
    {
      "midi": 65,
      "hit": false,
      "t": 67200,
      "d": 3450,
      "v": 79
    },
    {
      "midi": 69,
      "hit": false,
      "t": 67200,
      "d": 3460,
      "v": 84
    },
    {
      "midi": 41,
      "hit": false,
      "t": 67200,
      "d": 4800,
      "v": 79
    },
    {
      "midi": 57,
      "hit": false,
      "t": 69300,
      "d": 985,
      "v": 88
    },
    {
      "midi": 60,
      "hit": false,
      "t": 69600,
      "d": 990,
      "v": 78
    },
    {
      "midi": 57,
      "hit": false,
      "t": 70500,
      "d": 495,
      "v": 83
    },
    {
      "midi": 60,
      "hit": false,
      "t": 70650,
      "d": 1350,
      "v": 79
    },
    {
      "midi": 65,
      "hit": false,
      "t": 70800,
      "d": 1200,
      "v": 94
    },
    {
      "midi": 57,
      "hit": false,
      "t": 71100,
      "d": 900,
      "v": 80
    },
    {
      "midi": 69,
      "hit": false,
      "t": 71400,
      "d": 350,
      "v": 81
    },
    {
      "midi": 55,
      "hit": false,
      "t": 72000,
      "d": 1915,
      "v": 65
    },
    {
      "midi": 58,
      "hit": false,
      "t": 72000,
      "d": 2255,
      "v": 71
    },
    {
      "midi": 60,
      "hit": false,
      "t": 72000,
      "d": 3450,
      "v": 79
    },
    {
      "midi": 64,
      "hit": false,
      "t": 72000,
      "d": 3460,
      "v": 84
    },
    {
      "midi": 67,
      "hit": false,
      "t": 72000,
      "d": 3485,
      "v": 80
    },
    {
      "midi": 48,
      "hit": false,
      "t": 72000,
      "d": 4800,
      "v": 79
    },
    {
      "midi": 55,
      "hit": false,
      "t": 74100,
      "d": 985,
      "v": 88
    },
    {
      "midi": 58,
      "hit": false,
      "t": 74400,
      "d": 990,
      "v": 78
    },
    {
      "midi": 55,
      "hit": false,
      "t": 75300,
      "d": 495,
      "v": 83
    },
    {
      "midi": 58,
      "hit": false,
      "t": 75450,
      "d": 1350,
      "v": 79
    },
    {
      "midi": 60,
      "hit": false,
      "t": 75600,
      "d": 1200,
      "v": 94
    },
    {
      "midi": 55,
      "hit": false,
      "t": 75900,
      "d": 900,
      "v": 80
    },
    {
      "midi": 64,
      "hit": false,
      "t": 76200,
      "d": 350,
      "v": 81
    },
    {
      "midi": 67,
      "hit": false,
      "t": 76500,
      "d": 300,
      "v": 88
    },
    {
      "midi": 84,
      "hit": false,
      "t": 76800,
      "d": 2230,
      "v": 81
    },
    {
      "midi": 41,
      "hit": false,
      "t": 76800,
      "d": 4800,
      "v": 80
    },
    {
      "midi": 57,
      "hit": false,
      "t": 79050,
      "d": 2550,
      "v": 74
    },
    {
      "midi": 60,
      "hit": false,
      "t": 80550,
      "d": 555,
      "v": 70
    },
    {
      "midi": 65,
      "hit": false,
      "t": 80700,
      "d": 900,
      "v": 77
    },
    {
      "midi": 69,
      "hit": false,
      "t": 81000,
      "d": 600,
      "v": 79
    },
    {
      "midi": 60,
      "hit": false,
      "t": 81300,
      "d": 300,
      "v": 66
    },
    {
      "midi": 57,
      "hit": false,
      "t": 81600,
      "d": 1915,
      "v": 65
    },
    {
      "midi": 60,
      "hit": false,
      "t": 81600,
      "d": 2255,
      "v": 71
    },
    {
      "midi": 65,
      "hit": false,
      "t": 81600,
      "d": 3450,
      "v": 79
    },
    {
      "midi": 69,
      "hit": false,
      "t": 81600,
      "d": 3460,
      "v": 84
    },
    {
      "midi": 41,
      "hit": false,
      "t": 81600,
      "d": 4800,
      "v": 79
    },
    {
      "midi": 57,
      "hit": false,
      "t": 83700,
      "d": 985,
      "v": 88
    },
    {
      "midi": 60,
      "hit": false,
      "t": 84000,
      "d": 990,
      "v": 78
    },
    {
      "midi": 57,
      "hit": false,
      "t": 84900,
      "d": 495,
      "v": 83
    },
    {
      "midi": 60,
      "hit": false,
      "t": 85050,
      "d": 1350,
      "v": 79
    },
    {
      "midi": 65,
      "hit": false,
      "t": 85200,
      "d": 1200,
      "v": 94
    },
    {
      "midi": 57,
      "hit": false,
      "t": 85500,
      "d": 900,
      "v": 80
    },
    {
      "midi": 69,
      "hit": false,
      "t": 85800,
      "d": 350,
      "v": 81
    },
    {
      "midi": 55,
      "hit": false,
      "t": 86400,
      "d": 1915,
      "v": 65
    },
    {
      "midi": 58,
      "hit": false,
      "t": 86400,
      "d": 2255,
      "v": 71
    },
    {
      "midi": 60,
      "hit": false,
      "t": 86400,
      "d": 3450,
      "v": 79
    },
    {
      "midi": 64,
      "hit": false,
      "t": 86400,
      "d": 3460,
      "v": 84
    },
    {
      "midi": 67,
      "hit": false,
      "t": 86400,
      "d": 3485,
      "v": 80
    },
    {
      "midi": 48,
      "hit": false,
      "t": 86400,
      "d": 4800,
      "v": 79
    },
    {
      "midi": 55,
      "hit": false,
      "t": 88500,
      "d": 985,
      "v": 88
    },
    {
      "midi": 58,
      "hit": false,
      "t": 88800,
      "d": 990,
      "v": 78
    },
    {
      "midi": 55,
      "hit": false,
      "t": 89700,
      "d": 495,
      "v": 83
    },
    {
      "midi": 58,
      "hit": false,
      "t": 89850,
      "d": 1350,
      "v": 79
    },
    {
      "midi": 60,
      "hit": false,
      "t": 90000,
      "d": 1200,
      "v": 94
    },
    {
      "midi": 55,
      "hit": false,
      "t": 90300,
      "d": 900,
      "v": 80
    },
    {
      "midi": 64,
      "hit": false,
      "t": 90600,
      "d": 350,
      "v": 81
    },
    {
      "midi": 67,
      "hit": false,
      "t": 90900,
      "d": 300,
      "v": 88
    },
    {
      "midi": 55,
      "hit": false,
      "t": 91200,
      "d": 1915,
      "v": 65
    },
    {
      "midi": 58,
      "hit": false,
      "t": 91200,
      "d": 2255,
      "v": 71
    },
    {
      "midi": 60,
      "hit": false,
      "t": 91200,
      "d": 3450,
      "v": 79
    },
    {
      "midi": 64,
      "hit": false,
      "t": 91200,
      "d": 3460,
      "v": 84
    },
    {
      "midi": 67,
      "hit": false,
      "t": 91200,
      "d": 3485,
      "v": 80
    },
    {
      "midi": 48,
      "hit": false,
      "t": 91200,
      "d": 4800,
      "v": 79
    },
    {
      "midi": 55,
      "hit": false,
      "t": 93300,
      "d": 985,
      "v": 88
    },
    {
      "midi": 58,
      "hit": false,
      "t": 93600,
      "d": 990,
      "v": 78
    },
    {
      "midi": 55,
      "hit": false,
      "t": 94500,
      "d": 495,
      "v": 83
    },
    {
      "midi": 58,
      "hit": false,
      "t": 94650,
      "d": 1350,
      "v": 79
    },
    {
      "midi": 60,
      "hit": false,
      "t": 94800,
      "d": 1200,
      "v": 94
    },
    {
      "midi": 55,
      "hit": false,
      "t": 95100,
      "d": 900,
      "v": 80
    },
    {
      "midi": 64,
      "hit": false,
      "t": 95400,
      "d": 350,
      "v": 81
    },
    {
      "midi": 67,
      "hit": false,
      "t": 95700,
      "d": 300,
      "v": 88
    },
    {
      "midi": 60,
      "hit": false,
      "t": 96000,
      "d": 1555,
      "v": 75
    },
    {
      "midi": 65,
      "hit": false,
      "t": 96000,
      "d": 1650,
      "v": 98
    },
    {
      "midi": 69,
      "hit": false,
      "t": 96000,
      "d": 1650,
      "v": 74
    },
    {
      "midi": 41,
      "hit": false,
      "t": 96000,
      "d": 2400,
      "v": 92
    },
    {
      "midi": 57,
      "hit": false,
      "t": 97500,
      "d": 860,
      "v": 83
    },
    {
      "midi": 60,
      "hit": false,
      "t": 97665,
      "d": 675,
      "v": 73
    },
    {
      "midi": 65,
      "hit": false,
      "t": 97800,
      "d": 505,
      "v": 79
    },
    {
      "midi": 69,
      "hit": false,
      "t": 97950,
      "d": 325,
      "v": 78
    },
    {
      "midi": 65,
      "hit": false,
      "t": 98400,
      "d": 35,
      "v": 50
    },
    {
      "midi": 60,
      "hit": false,
      "t": 98400,
      "d": 1665,
      "v": 84
    },
    {
      "midi": 63,
      "hit": false,
      "t": 98400,
      "d": 2015,
      "v": 86
    },
    {
      "midi": 41,
      "hit": false,
      "t": 98400,
      "d": 2400,
      "v": 73
    },
    {
      "midi": 57,
      "hit": false,
      "t": 98400,
      "d": 2400,
      "v": 72
    },
    {
      "midi": 53,
      "hit": false,
      "t": 99900,
      "d": 900,
      "v": 86
    },
    {
      "midi": 60,
      "hit": false,
      "t": 100200,
      "d": 600,
      "v": 78
    },
    {
      "midi": 63,
      "hit": false,
      "t": 100500,
      "d": 295,
      "v": 102
    },
    {
      "midi": 65,
      "hit": false,
      "t": 100800,
      "d": 1015,
      "v": 71
    },
    {
      "midi": 58,
      "hit": false,
      "t": 100800,
      "d": 1030,
      "v": 71
    },
    {
      "midi": 46,
      "hit": false,
      "t": 100800,
      "d": 2400,
      "v": 72
    },
    {
      "midi": 53,
      "hit": false,
      "t": 101700,
      "d": 1500,
      "v": 66
    },
    {
      "midi": 58,
      "hit": false,
      "t": 102000,
      "d": 1200,
      "v": 63
    },
    {
      "midi": 65,
      "hit": false,
      "t": 102000,
      "d": 1200,
      "v": 71
    },
    {
      "midi": 59,
      "hit": false,
      "t": 103200,
      "d": 495,
      "v": 65
    },
    {
      "midi": 62,
      "hit": false,
      "t": 103200,
      "d": 625,
      "v": 75
    },
    {
      "midi": 65,
      "hit": false,
      "t": 103200,
      "d": 860,
      "v": 78
    },
    {
      "midi": 68,
      "hit": false,
      "t": 103200,
      "d": 885,
      "v": 76
    },
    {
      "midi": 44,
      "hit": false,
      "t": 103200,
      "d": 2360,
      "v": 83
    },
    {
      "midi": 56,
      "hit": false,
      "t": 103500,
      "d": 975,
      "v": 77
    },
    {
      "midi": 59,
      "hit": false,
      "t": 103825,
      "d": 1100,
      "v": 75
    },
    {
      "midi": 62,
      "hit": false,
      "t": 104100,
      "d": 620,
      "v": 61
    },
    {
      "midi": 65,
      "hit": false,
      "t": 104400,
      "d": 415,
      "v": 76
    },
    {
      "midi": 56,
      "hit": false,
      "t": 104700,
      "d": 550,
      "v": 72
    },
    {
      "midi": 59,
      "hit": false,
      "t": 105000,
      "d": 340,
      "v": 30
    },
    {
      "midi": 65,
      "hit": false,
      "t": 105000,
      "d": 340,
      "v": 65
    },
    {
      "midi": 68,
      "hit": false,
      "t": 105300,
      "d": 185,
      "v": 107
    },
    {
      "midi": 84,
      "hit": false,
      "t": 105600,
      "d": 2230,
      "v": 81
    },
    {
      "midi": 41,
      "hit": false,
      "t": 105600,
      "d": 4800,
      "v": 80
    },
    {
      "midi": 57,
      "hit": false,
      "t": 107850,
      "d": 2550,
      "v": 74
    },
    {
      "midi": 60,
      "hit": false,
      "t": 109350,
      "d": 555,
      "v": 70
    },
    {
      "midi": 65,
      "hit": false,
      "t": 109500,
      "d": 900,
      "v": 77
    },
    {
      "midi": 69,
      "hit": false,
      "t": 109800,
      "d": 600,
      "v": 79
    },
    {
      "midi": 60,
      "hit": false,
      "t": 110100,
      "d": 300,
      "v": 66
    },
    {
      "midi": 58,
      "hit": false,
      "t": 110400,
      "d": 2020,
      "v": 74
    },
    {
      "midi": 60,
      "hit": false,
      "t": 110400,
      "d": 2085,
      "v": 76
    },
    {
      "midi": 64,
      "hit": false,
      "t": 110400,
      "d": 2105,
      "v": 81
    },
    {
      "midi": 67,
      "hit": false,
      "t": 110400,
      "d": 2110,
      "v": 78
    },
    {
      "midi": 48,
      "hit": false,
      "t": 110400,
      "d": 4800,
      "v": 60
    },
    {
      "midi": 55,
      "hit": false,
      "t": 112350,
      "d": 2680,
      "v": 90
    },
    {
      "midi": 58,
      "hit": false,
      "t": 112500,
      "d": 580,
      "v": 67
    },
    {
      "midi": 60,
      "hit": false,
      "t": 112650,
      "d": 2530,
      "v": 68
    },
    {
      "midi": 64,
      "hit": false,
      "t": 112800,
      "d": 2370,
      "v": 77
    },
    {
      "midi": 58,
      "hit": false,
      "t": 113700,
      "d": 455,
      "v": 59
    },
    {
      "midi": 67,
      "hit": false,
      "t": 114000,
      "d": 1170,
      "v": 102
    },
    {
      "midi": 58,
      "hit": false,
      "t": 114300,
      "d": 320,
      "v": 68
    },
    {
      "midi": 72,
      "hit": false,
      "t": 114600,
      "d": 580,
      "v": 88
    },
    {
      "midi": 69,
      "hit": false,
      "t": 115200,
      "d": 1230,
      "v": 83
    },
    {
      "midi": 41,
      "hit": false,
      "t": 115200,
      "d": 2400,
      "v": 66
    },
    {
      "midi": 57,
      "hit": false,
      "t": 115200,
      "d": 2400,
      "v": 75
    },
    {
      "midi": 60,
      "hit": false,
      "t": 115200,
      "d": 2400,
      "v": 63
    },
    {
      "midi": 65,
      "hit": false,
      "t": 115200,
      "d": 2400,
      "v": 73
    },
    {
      "midi": 77,
      "hit": false,
      "t": 116400,
      "d": 655,
      "v": 96
    },
    {
      "midi": 69,
      "hit": false,
      "t": 117000,
      "d": 570,
      "v": 83
    },
    {
      "midi": 57,
      "hit": false,
      "t": 117600,
      "d": 495,
      "v": 65
    },
    {
      "midi": 60,
      "hit": false,
      "t": 117600,
      "d": 625,
      "v": 75
    },
    {
      "midi": 63,
      "hit": false,
      "t": 117600,
      "d": 860,
      "v": 78
    },
    {
      "midi": 65,
      "hit": false,
      "t": 117600,
      "d": 885,
      "v": 76
    },
    {
      "midi": 41,
      "hit": false,
      "t": 117600,
      "d": 2360,
      "v": 83
    },
    {
      "midi": 53,
      "hit": false,
      "t": 117900,
      "d": 975,
      "v": 77
    },
    {
      "midi": 57,
      "hit": false,
      "t": 118225,
      "d": 1100,
      "v": 75
    },
    {
      "midi": 60,
      "hit": false,
      "t": 118500,
      "d": 620,
      "v": 61
    },
    {
      "midi": 63,
      "hit": false,
      "t": 118800,
      "d": 415,
      "v": 76
    },
    {
      "midi": 53,
      "hit": false,
      "t": 119100,
      "d": 550,
      "v": 72
    },
    {
      "midi": 57,
      "hit": false,
      "t": 119400,
      "d": 340,
      "v": 30
    },
    {
      "midi": 63,
      "hit": false,
      "t": 119400,
      "d": 340,
      "v": 65
    },
    {
      "midi": 65,
      "hit": false,
      "t": 119700,
      "d": 185,
      "v": 107
    },
    {
      "midi": 53,
      "hit": false,
      "t": 120000,
      "d": 1790,
      "v": 59
    },
    {
      "midi": 58,
      "hit": false,
      "t": 120000,
      "d": 1965,
      "v": 78
    },
    {
      "midi": 62,
      "hit": false,
      "t": 120000,
      "d": 2045,
      "v": 80
    },
    {
      "midi": 46,
      "hit": false,
      "t": 120000,
      "d": 2400,
      "v": 68
    },
    {
      "midi": 65,
      "hit": false,
      "t": 120000,
      "d": 2400,
      "v": 79
    },
    {
      "midi": 53,
      "hit": false,
      "t": 121950,
      "d": 450,
      "v": 77
    },
    {
      "midi": 58,
      "hit": false,
      "t": 122100,
      "d": 300,
      "v": 65
    },
    {
      "midi": 62,
      "hit": false,
      "t": 122250,
      "d": 150,
      "v": 88
    },
    {
      "midi": 58,
      "hit": false,
      "t": 122400,
      "d": 495,
      "v": 65
    },
    {
      "midi": 62,
      "hit": false,
      "t": 122400,
      "d": 625,
      "v": 75
    },
    {
      "midi": 65,
      "hit": false,
      "t": 122400,
      "d": 860,
      "v": 78
    },
    {
      "midi": 46,
      "hit": false,
      "t": 122400,
      "d": 2360,
      "v": 83
    },
    {
      "midi": 53,
      "hit": false,
      "t": 122700,
      "d": 975,
      "v": 77
    },
    {
      "midi": 58,
      "hit": false,
      "t": 123025,
      "d": 1100,
      "v": 75
    },
    {
      "midi": 62,
      "hit": false,
      "t": 123300,
      "d": 620,
      "v": 61
    },
    {
      "midi": 65,
      "hit": false,
      "t": 123600,
      "d": 415,
      "v": 76
    },
    {
      "midi": 53,
      "hit": false,
      "t": 123900,
      "d": 550,
      "v": 72
    },
    {
      "midi": 58,
      "hit": false,
      "t": 124200,
      "d": 340,
      "v": 30
    },
    {
      "midi": 65,
      "hit": false,
      "t": 124200,
      "d": 340,
      "v": 65
    },
    {
      "midi": 69,
      "hit": false,
      "t": 124800,
      "d": 1230,
      "v": 83
    },
    {
      "midi": 41,
      "hit": false,
      "t": 124800,
      "d": 2400,
      "v": 66
    },
    {
      "midi": 57,
      "hit": false,
      "t": 124800,
      "d": 2400,
      "v": 75
    },
    {
      "midi": 60,
      "hit": false,
      "t": 124800,
      "d": 2400,
      "v": 63
    },
    {
      "midi": 65,
      "hit": false,
      "t": 124800,
      "d": 2400,
      "v": 73
    },
    {
      "midi": 77,
      "hit": false,
      "t": 126000,
      "d": 655,
      "v": 96
    },
    {
      "midi": 69,
      "hit": false,
      "t": 126600,
      "d": 570,
      "v": 83
    },
    {
      "midi": 69,
      "hit": false,
      "t": 127200,
      "d": 35,
      "v": 86
    },
    {
      "midi": 65,
      "hit": false,
      "t": 127200,
      "d": 1665,
      "v": 84
    },
    {
      "midi": 41,
      "hit": false,
      "t": 127200,
      "d": 2400,
      "v": 73
    },
    {
      "midi": 60,
      "hit": false,
      "t": 127200,
      "d": 2400,
      "v": 72
    },
    {
      "midi": 57,
      "hit": false,
      "t": 128700,
      "d": 900,
      "v": 86
    },
    {
      "midi": 65,
      "hit": false,
      "t": 129000,
      "d": 600,
      "v": 78
    },
    {
      "midi": 69,
      "hit": false,
      "t": 129300,
      "d": 295,
      "v": 102
    },
    {
      "midi": 58,
      "hit": false,
      "t": 129600,
      "d": 1790,
      "v": 59
    },
    {
      "midi": 60,
      "hit": false,
      "t": 129600,
      "d": 1965,
      "v": 78
    },
    {
      "midi": 64,
      "hit": false,
      "t": 129600,
      "d": 2045,
      "v": 80
    },
    {
      "midi": 48,
      "hit": false,
      "t": 129600,
      "d": 2400,
      "v": 68
    },
    {
      "midi": 67,
      "hit": false,
      "t": 129600,
      "d": 2400,
      "v": 79
    },
    {
      "midi": 58,
      "hit": false,
      "t": 131550,
      "d": 450,
      "v": 77
    },
    {
      "midi": 60,
      "hit": false,
      "t": 131700,
      "d": 300,
      "v": 65
    },
    {
      "midi": 64,
      "hit": false,
      "t": 131850,
      "d": 150,
      "v": 88
    },
    {
      "midi": 64,
      "hit": false,
      "t": 132000,
      "d": 1230,
      "v": 83
    },
    {
      "midi": 48,
      "hit": false,
      "t": 132000,
      "d": 2400,
      "v": 66
    },
    {
      "midi": 55,
      "hit": false,
      "t": 132000,
      "d": 2400,
      "v": 75
    },
    {
      "midi": 58,
      "hit": false,
      "t": 132000,
      "d": 2400,
      "v": 63
    },
    {
      "midi": 60,
      "hit": false,
      "t": 132000,
      "d": 2400,
      "v": 73
    },
    {
      "midi": 72,
      "hit": false,
      "t": 133200,
      "d": 655,
      "v": 96
    },
    {
      "midi": 64,
      "hit": false,
      "t": 133800,
      "d": 570,
      "v": 83
    },
    {
      "midi": 60,
      "hit": false,
      "t": 134400,
      "d": 495,
      "v": 65
    },
    {
      "midi": 65,
      "hit": false,
      "t": 134400,
      "d": 625,
      "v": 75
    },
    {
      "midi": 69,
      "hit": false,
      "t": 134400,
      "d": 860,
      "v": 78
    },
    {
      "midi": 41,
      "hit": false,
      "t": 134400,
      "d": 2360,
      "v": 83
    },
    {
      "midi": 57,
      "hit": false,
      "t": 134700,
      "d": 975,
      "v": 77
    },
    {
      "midi": 60,
      "hit": false,
      "t": 135025,
      "d": 1100,
      "v": 75
    },
    {
      "midi": 65,
      "hit": false,
      "t": 135300,
      "d": 620,
      "v": 61
    },
    {
      "midi": 69,
      "hit": false,
      "t": 135600,
      "d": 415,
      "v": 76
    },
    {
      "midi": 57,
      "hit": false,
      "t": 135900,
      "d": 550,
      "v": 72
    },
    {
      "midi": 60,
      "hit": false,
      "t": 136200,
      "d": 340,
      "v": 30
    },
    {
      "midi": 69,
      "hit": false,
      "t": 136200,
      "d": 340,
      "v": 65
    },
    {
      "midi": 65,
      "hit": false,
      "t": 136800,
      "d": 1015,
      "v": 71
    },
    {
      "midi": 63,
      "hit": false,
      "t": 136800,
      "d": 1025,
      "v": 80
    },
    {
      "midi": 57,
      "hit": false,
      "t": 136800,
      "d": 1030,
      "v": 71
    },
    {
      "midi": 41,
      "hit": false,
      "t": 136800,
      "d": 2400,
      "v": 72
    },
    {
      "midi": 53,
      "hit": false,
      "t": 137700,
      "d": 1500,
      "v": 66
    },
    {
      "midi": 57,
      "hit": false,
      "t": 138000,
      "d": 1200,
      "v": 63
    },
    {
      "midi": 63,
      "hit": false,
      "t": 138000,
      "d": 1200,
      "v": 75
    },
    {
      "midi": 65,
      "hit": false,
      "t": 138000,
      "d": 1200,
      "v": 71
    },
    {
      "midi": 53,
      "hit": false,
      "t": 139200,
      "d": 1790,
      "v": 59
    },
    {
      "midi": 58,
      "hit": false,
      "t": 139200,
      "d": 1965,
      "v": 78
    },
    {
      "midi": 62,
      "hit": false,
      "t": 139200,
      "d": 2045,
      "v": 80
    },
    {
      "midi": 46,
      "hit": false,
      "t": 139200,
      "d": 2400,
      "v": 68
    },
    {
      "midi": 65,
      "hit": false,
      "t": 139200,
      "d": 2400,
      "v": 79
    },
    {
      "midi": 53,
      "hit": false,
      "t": 141150,
      "d": 450,
      "v": 77
    },
    {
      "midi": 58,
      "hit": false,
      "t": 141300,
      "d": 300,
      "v": 65
    },
    {
      "midi": 62,
      "hit": false,
      "t": 141450,
      "d": 150,
      "v": 88
    },
    {
      "midi": 59,
      "hit": false,
      "t": 141600,
      "d": 1555,
      "v": 75
    },
    {
      "midi": 62,
      "hit": false,
      "t": 141600,
      "d": 1650,
      "v": 98
    },
    {
      "midi": 65,
      "hit": false,
      "t": 141600,
      "d": 1650,
      "v": 74
    },
    {
      "midi": 68,
      "hit": false,
      "t": 141600,
      "d": 1665,
      "v": 79
    },
    {
      "midi": 44,
      "hit": false,
      "t": 141600,
      "d": 2400,
      "v": 92
    },
    {
      "midi": 56,
      "hit": false,
      "t": 143100,
      "d": 860,
      "v": 83
    },
    {
      "midi": 59,
      "hit": false,
      "t": 143265,
      "d": 675,
      "v": 73
    },
    {
      "midi": 62,
      "hit": false,
      "t": 143400,
      "d": 505,
      "v": 79
    },
    {
      "midi": 65,
      "hit": false,
      "t": 143550,
      "d": 325,
      "v": 78
    },
    {
      "midi": 68,
      "hit": false,
      "t": 143700,
      "d": 205,
      "v": 88
    },
    {
      "midi": 69,
      "hit": false,
      "t": 144000,
      "d": 35,
      "v": 86
    },
    {
      "midi": 65,
      "hit": false,
      "t": 144000,
      "d": 1665,
      "v": 84
    },
    {
      "midi": 41,
      "hit": false,
      "t": 144000,
      "d": 2400,
      "v": 73
    },
    {
      "midi": 60,
      "hit": false,
      "t": 144000,
      "d": 2400,
      "v": 72
    },
    {
      "midi": 57,
      "hit": false,
      "t": 145500,
      "d": 900,
      "v": 86
    },
    {
      "midi": 65,
      "hit": false,
      "t": 145800,
      "d": 600,
      "v": 78
    },
    {
      "midi": 69,
      "hit": false,
      "t": 146100,
      "d": 295,
      "v": 102
    },
    {
      "midi": 57,
      "hit": false,
      "t": 146400,
      "d": 1790,
      "v": 59
    },
    {
      "midi": 60,
      "hit": false,
      "t": 146400,
      "d": 1965,
      "v": 78
    },
    {
      "midi": 65,
      "hit": false,
      "t": 146400,
      "d": 2045,
      "v": 80
    },
    {
      "midi": 41,
      "hit": false,
      "t": 146400,
      "d": 2400,
      "v": 68
    },
    {
      "midi": 69,
      "hit": false,
      "t": 146400,
      "d": 2400,
      "v": 79
    },
    {
      "midi": 57,
      "hit": false,
      "t": 148350,
      "d": 450,
      "v": 77
    },
    {
      "midi": 60,
      "hit": false,
      "t": 148500,
      "d": 300,
      "v": 65
    },
    {
      "midi": 65,
      "hit": false,
      "t": 148650,
      "d": 150,
      "v": 88
    },
    {
      "midi": 58,
      "hit": false,
      "t": 148800,
      "d": 1555,
      "v": 75
    },
    {
      "midi": 60,
      "hit": false,
      "t": 148800,
      "d": 1650,
      "v": 98
    },
    {
      "midi": 64,
      "hit": false,
      "t": 148800,
      "d": 1650,
      "v": 74
    },
    {
      "midi": 67,
      "hit": false,
      "t": 148800,
      "d": 1665,
      "v": 79
    },
    {
      "midi": 48,
      "hit": false,
      "t": 148800,
      "d": 2400,
      "v": 92
    },
    {
      "midi": 55,
      "hit": false,
      "t": 150300,
      "d": 860,
      "v": 83
    },
    {
      "midi": 58,
      "hit": false,
      "t": 150465,
      "d": 675,
      "v": 73
    },
    {
      "midi": 60,
      "hit": false,
      "t": 150600,
      "d": 505,
      "v": 79
    },
    {
      "midi": 64,
      "hit": false,
      "t": 150750,
      "d": 325,
      "v": 78
    },
    {
      "midi": 67,
      "hit": false,
      "t": 150900,
      "d": 205,
      "v": 88
    },
    {
      "midi": 64,
      "hit": false,
      "t": 151200,
      "d": 1230,
      "v": 83
    },
    {
      "midi": 48,
      "hit": false,
      "t": 151200,
      "d": 2400,
      "v": 66
    },
    {
      "midi": 55,
      "hit": false,
      "t": 151200,
      "d": 2400,
      "v": 75
    },
    {
      "midi": 58,
      "hit": false,
      "t": 151200,
      "d": 2400,
      "v": 63
    },
    {
      "midi": 60,
      "hit": false,
      "t": 151200,
      "d": 2400,
      "v": 73
    },
    {
      "midi": 72,
      "hit": false,
      "t": 152400,
      "d": 655,
      "v": 96
    },
    {
      "midi": 64,
      "hit": false,
      "t": 153000,
      "d": 570,
      "v": 83
    },
    {
      "midi": 57,
      "hit": false,
      "t": 153600,
      "d": 1790,
      "v": 59
    },
    {
      "midi": 60,
      "hit": false,
      "t": 153600,
      "d": 1965,
      "v": 78
    },
    {
      "midi": 65,
      "hit": false,
      "t": 153600,
      "d": 2045,
      "v": 80
    },
    {
      "midi": 41,
      "hit": false,
      "t": 153600,
      "d": 2400,
      "v": 68
    },
    {
      "midi": 69,
      "hit": false,
      "t": 153600,
      "d": 2400,
      "v": 79
    },
    {
      "midi": 57,
      "hit": false,
      "t": 155550,
      "d": 450,
      "v": 77
    },
    {
      "midi": 60,
      "hit": false,
      "t": 155700,
      "d": 300,
      "v": 65
    },
    {
      "midi": 65,
      "hit": false,
      "t": 155850,
      "d": 150,
      "v": 88
    },
    {
      "midi": 57,
      "hit": false,
      "t": 156000,
      "d": 2310,
      "v": 65
    },
    {
      "midi": 60,
      "hit": false,
      "t": 156000,
      "d": 2310,
      "v": 65
    },
    {
      "midi": 65,
      "hit": false,
      "t": 156000,
      "d": 2310,
      "v": 65
    },
    {
      "midi": 67,
      "hit": false,
      "t": 157500,
      "d": 290,
      "v": 51
    },
    {
      "midi": 69,
      "hit": false,
      "t": 157800,
      "d": 690,
      "v": 31
    },
    {
      "midi": 57,
      "hit": false,
      "t": 158400,
      "d": 2355,
      "v": 78
    },
    {
      "midi": 60,
      "hit": false,
      "t": 158400,
      "d": 2355,
      "v": 78
    },
    {
      "midi": 65,
      "hit": false,
      "t": 158400,
      "d": 2355,
      "v": 78
    },
    {
      "midi": 41,
      "hit": false,
      "t": 159600,
      "d": 1200,
      "v": 43
    }
  ]
}