{
  "jsonPath": "Rock/Album Rock/Steely Dan/doctor-wu.json",
  "path": "Rock\\Album Rock\\Steely Dan\\Doctor Wu.mid",
  "name": "Doctor Wu",
  "difficulty": "Advanced",
  "bpm": 120,
  "notes": [
    {
      "midi": 62,
      "hit": false,
      "t": 3870.9679999999985,
      "d": 483.87099999999964,
      "v": 96
    },
    {
      "midi": 66,
      "hit": false,
      "t": 3870.9679999999985,
      "d": 483.87099999999964,
      "v": 96
    },
    {
      "midi": 69,
      "hit": false,
      "t": 3870.9679999999985,
      "d": 483.87099999999964,
      "v": 96
    },
    {
      "midi": 54,
      "hit": false,
      "t": 3870.9679999999985,
      "d": 483.87099999999964,
      "v": 112
    },
    {
      "midi": 57,
      "hit": false,
      "t": 3870.9679999999985,
      "d": 483.87099999999964,
      "v": 112
    },
    {
      "midi": 62,
      "hit": false,
      "t": 3870.9679999999985,
      "d": 483.87099999999964,
      "v": 112
    },
    {
      "midi": 40,
      "hit": false,
      "t": 3870.968,
      "d": 483.8710000000001,
      "v": 96
    },
    {
      "midi": 62,
      "hit": false,
      "t": 4596.774499999998,
      "d": 967.7420000000002,
      "v": 96
    },
    {
      "midi": 66,
      "hit": false,
      "t": 4596.774499999998,
      "d": 967.7420000000002,
      "v": 96
    },
    {
      "midi": 69,
      "hit": false,
      "t": 4596.774499999998,
      "d": 967.7420000000002,
      "v": 96
    },
    {
      "midi": 54,
      "hit": false,
      "t": 4596.774499999998,
      "d": 2903.2260000000006,
      "v": 112
    },
    {
      "midi": 57,
      "hit": false,
      "t": 4596.774499999998,
      "d": 2903.2260000000006,
      "v": 112
    },
    {
      "midi": 62,
      "hit": false,
      "t": 4596.774499999998,
      "d": 2903.2260000000006,
      "v": 112
    },
    {
      "midi": 40,
      "hit": false,
      "t": 4596.7744999999995,
      "d": 3145.1615,
      "v": 96
    },
    {
      "midi": 69,
      "hit": false,
      "t": 5564.516499999998,
      "d": 1209.6774999999998,
      "v": 96
    },
    {
      "midi": 74,
      "hit": false,
      "t": 5564.516499999998,
      "d": 1209.6774999999998,
      "v": 112
    },
    {
      "midi": 71,
      "hit": false,
      "t": 5685.484249999998,
      "d": 1088.70975,
      "v": 96
    },
    {
      "midi": 57,
      "hit": false,
      "t": 6532.258499999998,
      "d": 1209.6774999999998,
      "v": 96
    },
    {
      "midi": 62,
      "hit": false,
      "t": 6532.258499999998,
      "d": 1209.6774999999998,
      "v": 112
    },
    {
      "midi": 59,
      "hit": false,
      "t": 6653.226249999998,
      "d": 1088.70975,
      "v": 96
    },
    {
      "midi": 64,
      "hit": false,
      "t": 7741.935999999998,
      "d": 1088.70975,
      "v": 96
    },
    {
      "midi": 67,
      "hit": false,
      "t": 7741.935999999998,
      "d": 1088.70975,
      "v": 96
    },
    {
      "midi": 72,
      "hit": false,
      "t": 7741.935999999998,
      "d": 1088.70975,
      "v": 96
    },
    {
      "midi": 55,
      "hit": false,
      "t": 7741.935999999998,
      "d": 1209.6774999999998,
      "v": 112
    },
    {
      "midi": 60,
      "hit": false,
      "t": 7741.935999999998,
      "d": 1209.6774999999998,
      "v": 112
    },
    {
      "midi": 64,
      "hit": false,
      "t": 7741.935999999998,
      "d": 1209.6774999999998,
      "v": 112
    },
    {
      "midi": 41,
      "hit": false,
      "t": 7741.936,
      "d": 1209.6774999999998,
      "v": 96
    },
    {
      "midi": 62,
      "hit": false,
      "t": 8951.613499999998,
      "d": 362.9032499999994,
      "v": 96
    },
    {
      "midi": 67,
      "hit": false,
      "t": 8951.613499999998,
      "d": 362.9032499999994,
      "v": 96
    },
    {
      "midi": 71,
      "hit": false,
      "t": 8951.613499999998,
      "d": 362.9032499999994,
      "v": 96
    },
    {
      "midi": 55,
      "hit": false,
      "t": 8951.613499999998,
      "d": 483.8709999999992,
      "v": 112
    },
    {
      "midi": 59,
      "hit": false,
      "t": 8951.613499999998,
      "d": 483.8709999999992,
      "v": 112
    },
    {
      "midi": 62,
      "hit": false,
      "t": 8951.613499999998,
      "d": 483.8709999999992,
      "v": 112
    },
    {
      "midi": 36,
      "hit": false,
      "t": 8951.6135,
      "d": 362.9032499999994,
      "v": 96
    },
    {
      "midi": 64,
      "hit": false,
      "t": 9435.484499999997,
      "d": 967.7420000000002,
      "v": 96
    },
    {
      "midi": 67,
      "hit": false,
      "t": 9435.484499999997,
      "d": 967.7420000000002,
      "v": 96
    },
    {
      "midi": 72,
      "hit": false,
      "t": 9435.484499999997,
      "d": 967.7420000000002,
      "v": 96
    },
    {
      "midi": 55,
      "hit": false,
      "t": 9435.484499999997,
      "d": 2177.4195,
      "v": 112
    },
    {
      "midi": 60,
      "hit": false,
      "t": 9435.484499999997,
      "d": 2177.4195,
      "v": 112
    },
    {
      "midi": 64,
      "hit": false,
      "t": 9435.484499999997,
      "d": 2177.4195,
      "v": 112
    },
    {
      "midi": 41,
      "hit": false,
      "t": 9435.484499999999,
      "d": 1935.4840000000004,
      "v": 96
    },
    {
      "midi": 64,
      "hit": false,
      "t": 10403.226499999997,
      "d": 967.7419999999984,
      "v": 112
    },
    {
      "midi": 72,
      "hit": false,
      "t": 10403.226499999997,
      "d": 967.7419999999984,
      "v": 127
    },
    {
      "midi": 60,
      "hit": false,
      "t": 10887.097499999996,
      "d": 241.9354999999996,
      "v": 64
    },
    {
      "midi": 67,
      "hit": false,
      "t": 11129.032999999996,
      "d": 241.9354999999996,
      "v": 64
    },
    {
      "midi": 40,
      "hit": false,
      "t": 11612.903999999999,
      "d": 1935.4840000000004,
      "v": 64
    },
    {
      "midi": 57,
      "hit": false,
      "t": 12096.774999999996,
      "d": 60.4838749999999,
      "v": 64
    },
    {
      "midi": 62,
      "hit": false,
      "t": 12096.774999999996,
      "d": 60.4838749999999,
      "v": 64
    },
    {
      "midi": 67,
      "hit": false,
      "t": 12096.774999999996,
      "d": 60.4838749999999,
      "v": 64
    },
    {
      "midi": 57,
      "hit": false,
      "t": 12822.581499999997,
      "d": 60.4838749999999,
      "v": 64
    },
    {
      "midi": 62,
      "hit": false,
      "t": 12822.581499999997,
      "d": 60.4838749999999,
      "v": 64
    },
    {
      "midi": 67,
      "hit": false,
      "t": 12822.581499999997,
      "d": 60.4838749999999,
      "v": 64
    },
    {
      "midi": 57,
      "hit": false,
      "t": 13306.452499999996,
      "d": 967.7420000000002,
      "v": 64
    },
    {
      "midi": 62,
      "hit": false,
      "t": 13306.452499999996,
      "d": 967.7420000000002,
      "v": 64
    },
    {
      "midi": 67,
      "hit": false,
      "t": 13306.452499999996,
      "d": 967.7420000000002,
      "v": 64
    },
    {
      "midi": 62,
      "hit": false,
      "t": 14274.194499999996,
      "d": 725.8064999999988,
      "v": 127
    },
    {
      "midi": 57,
      "hit": false,
      "t": 14516.129999999996,
      "d": 483.8709999999992,
      "v": 64
    },
    {
      "midi": 50,
      "hit": false,
      "t": 15000.000999999995,
      "d": 483.8709999999992,
      "v": 64
    },
    {
      "midi": 52,
      "hit": false,
      "t": 15241.936499999994,
      "d": 241.9354999999996,
      "v": 64
    },
    {
      "midi": 40,
      "hit": false,
      "t": 15483.872,
      "d": 1935.4840000000004,
      "v": 64
    },
    {
      "midi": 57,
      "hit": false,
      "t": 15967.742999999993,
      "d": 60.4838749999999,
      "v": 64
    },
    {
      "midi": 62,
      "hit": false,
      "t": 15967.742999999993,
      "d": 60.4838749999999,
      "v": 64
    },
    {
      "midi": 67,
      "hit": false,
      "t": 15967.742999999993,
      "d": 60.4838749999999,
      "v": 64
    },
    {
      "midi": 57,
      "hit": false,
      "t": 16693.549499999994,
      "d": 60.48387500000172,
      "v": 64
    },
    {
      "midi": 62,
      "hit": false,
      "t": 16693.549499999994,
      "d": 60.48387500000172,
      "v": 64
    },
    {
      "midi": 67,
      "hit": false,
      "t": 16693.549499999994,
      "d": 60.48387500000172,
      "v": 64
    },
    {
      "midi": 57,
      "hit": false,
      "t": 17177.420499999997,
      "d": 483.8709999999992,
      "v": 64
    },
    {
      "midi": 62,
      "hit": false,
      "t": 17177.420499999997,
      "d": 483.8709999999992,
      "v": 64
    },
    {
      "midi": 67,
      "hit": false,
      "t": 17177.420499999997,
      "d": 483.8709999999992,
      "v": 64
    },
    {
      "midi": 52,
      "hit": false,
      "t": 17661.2915,
      "d": 211.69356250000055,
      "v": 80
    },
    {
      "midi": 52,
      "hit": false,
      "t": 17903.227,
      "d": 241.9354999999996,
      "v": 80
    },
    {
      "midi": 71,
      "hit": false,
      "t": 18145.162499999995,
      "d": 1209.677499999998,
      "v": 96
    },
    {
      "midi": 83,
      "hit": false,
      "t": 18145.162499999995,
      "d": 1209.677499999998,
      "v": 96
    },
    {
      "midi": 66,
      "hit": false,
      "t": 18629.033499999994,
      "d": 725.8064999999988,
      "v": 96
    },
    {
      "midi": 78,
      "hit": false,
      "t": 18629.033499999994,
      "d": 725.8064999999988,
      "v": 96
    },
    {
      "midi": 52,
      "hit": false,
      "t": 18629.033499999998,
      "d": 211.69356250000055,
      "v": 64
    },
    {
      "midi": 52,
      "hit": false,
      "t": 18870.968999999997,
      "d": 211.69356250000055,
      "v": 64
    },
    {
      "midi": 52,
      "hit": false,
      "t": 19112.904499999997,
      "d": 211.69356250000055,
      "v": 64
    },
    {
      "midi": 55,
      "hit": false,
      "t": 19354.839999999993,
      "d": 1451.6130000000012,
      "v": 64
    },
    {
      "midi": 59,
      "hit": false,
      "t": 19354.839999999993,
      "d": 1935.4840000000004,
      "v": 64
    },
    {
      "midi": 64,
      "hit": false,
      "t": 19354.839999999993,
      "d": 1935.4840000000004,
      "v": 64
    },
    {
      "midi": 40,
      "hit": false,
      "t": 19354.839999999997,
      "d": 1935.4840000000004,
      "v": 64
    },
    {
      "midi": 67,
      "hit": false,
      "t": 20806.452999999994,
      "d": 483.8709999999992,
      "v": 112
    },
    {
      "midi": 62,
      "hit": false,
      "t": 21290.323999999993,
      "d": 1935.4840000000004,
      "v": 64
    },
    {
      "midi": 69,
      "hit": false,
      "t": 21290.323999999993,
      "d": 1935.4840000000004,
      "v": 64
    },
    {
      "midi": 40,
      "hit": false,
      "t": 21290.323999999997,
      "d": 1935.4840000000004,
      "v": 64
    },
    {
      "midi": 64,
      "hit": false,
      "t": 22500.001499999995,
      "d": 483.8709999999992,
      "v": 112
    },
    {
      "midi": 66,
      "hit": false,
      "t": 22741.936999999994,
      "d": 483.8709999999992,
      "v": 96
    },
    {
      "midi": 60,
      "hit": false,
      "t": 23225.807999999994,
      "d": 1935.4840000000004,
      "v": 64
    },
    {
      "midi": 36,
      "hit": false,
      "t": 23225.807999999997,
      "d": 1935.4840000000004,
      "v": 64
    },
    {
      "midi": 48,
      "hit": false,
      "t": 24435.4855,
      "d": 483.8709999999992,
      "v": 64
    },
    {
      "midi": 55,
      "hit": false,
      "t": 24677.420999999995,
      "d": 483.8709999999992,
      "v": 64
    },
    {
      "midi": 62,
      "hit": false,
      "t": 25100.808124999996,
      "d": 1451.6129999999976,
      "v": 64
    },
    {
      "midi": 64,
      "hit": false,
      "t": 25131.050062499995,
      "d": 30.24193749999904,
      "v": 64
    },
    {
      "midi": 66,
      "hit": false,
      "t": 25161.291999999994,
      "d": 1451.6130000000012,
      "v": 64
    },
    {
      "midi": 40,
      "hit": false,
      "t": 25161.291999999998,
      "d": 1209.677499999998,
      "v": 64
    },
    {
      "midi": 69,
      "hit": false,
      "t": 25191.533937499993,
      "d": 1451.6130000000012,
      "v": 64
    },
    {
      "midi": 47,
      "hit": false,
      "t": 25887.098499999996,
      "d": 241.9354999999996,
      "v": 64
    },
    {
      "midi": 52,
      "hit": false,
      "t": 26129.033999999996,
      "d": 967.7419999999984,
      "v": 64
    },
    {
      "midi": 59,
      "hit": false,
      "t": 26370.969499999992,
      "d": 725.8065000000024,
      "v": 96
    },
    {
      "midi": 71,
      "hit": false,
      "t": 26370.969499999992,
      "d": 725.8065000000024,
      "v": 80
    },
    {
      "midi": 62,
      "hit": false,
      "t": 26733.872749999995,
      "d": 362.9032499999994,
      "v": 80
    },
    {
      "midi": 55,
      "hit": false,
      "t": 27096.775999999994,
      "d": 483.8709999999992,
      "v": 64
    },
    {
      "midi": 60,
      "hit": false,
      "t": 27096.775999999994,
      "d": 483.8709999999992,
      "v": 64
    },
    {
      "midi": 64,
      "hit": false,
      "t": 27096.775999999994,
      "d": 483.8709999999992,
      "v": 64
    },
    {
      "midi": 36,
      "hit": false,
      "t": 27096.775999999994,
      "d": 1451.6130000000012,
      "v": 64
    },
    {
      "midi": 55,
      "hit": false,
      "t": 28548.388999999996,
      "d": 241.9354999999996,
      "v": 64
    },
    {
      "midi": 47,
      "hit": false,
      "t": 28790.324499999995,
      "d": 241.9354999999996,
      "v": 64
    },
    {
      "midi": 59,
      "hit": false,
      "t": 29032.259999999995,
      "d": 1935.4840000000004,
      "v": 64
    },
    {
      "midi": 67,
      "hit": false,
      "t": 29032.259999999995,
      "d": 1935.4840000000004,
      "v": 64
    },
    {
      "midi": 52,
      "hit": false,
      "t": 29032.259999999995,
      "d": 443.54841666666834,
      "v": 64
    },
    {
      "midi": 62,
      "hit": false,
      "t": 29274.195499999994,
      "d": 1693.5485000000008,
      "v": 64
    },
    {
      "midi": 60,
      "hit": false,
      "t": 30967.743999999995,
      "d": 483.8709999999992,
      "v": 64
    },
    {
      "midi": 64,
      "hit": false,
      "t": 30967.743999999995,
      "d": 483.8709999999992,
      "v": 64
    },
    {
      "midi": 67,
      "hit": false,
      "t": 30967.743999999995,
      "d": 483.8709999999992,
      "v": 64
    },
    {
      "midi": 45,
      "hit": false,
      "t": 30967.743999999995,
      "d": 1451.6130000000012,
      "v": 64
    },
    {
      "midi": 64,
      "hit": false,
      "t": 31774.195666666663,
      "d": 483.8710000000028,
      "v": 80
    },
    {
      "midi": 62,
      "hit": false,
      "t": 31935.485999999997,
      "d": 161.29033333333427,
      "v": 96
    },
    {
      "midi": 67,
      "hit": false,
      "t": 31935.485999999997,
      "d": 483.8710000000028,
      "v": 112
    },
    {
      "midi": 59,
      "hit": false,
      "t": 32419.357,
      "d": 483.8710000000028,
      "v": 64
    },
    {
      "midi": 64,
      "hit": false,
      "t": 32419.357,
      "d": 483.8710000000028,
      "v": 64
    },
    {
      "midi": 47,
      "hit": false,
      "t": 32903.227999999996,
      "d": 483.8709999999992,
      "v": 64
    },
    {
      "midi": 59,
      "hit": false,
      "t": 32903.228,
      "d": 967.7419999999984,
      "v": 80
    },
    {
      "midi": 62,
      "hit": false,
      "t": 32903.228,
      "d": 967.7419999999984,
      "v": 80
    },
    {
      "midi": 66,
      "hit": false,
      "t": 32903.228,
      "d": 967.7419999999984,
      "v": 80
    },
    {
      "midi": 45,
      "hit": false,
      "t": 33870.969999999994,
      "d": 483.8709999999992,
      "v": 64
    },
    {
      "midi": 60,
      "hit": false,
      "t": 33870.97,
      "d": 967.7420000000056,
      "v": 64
    },
    {
      "midi": 64,
      "hit": false,
      "t": 33870.97,
      "d": 967.7420000000056,
      "v": 64
    },
    {
      "midi": 50,
      "hit": false,
      "t": 34596.7765,
      "d": 967.7420000000056,
      "v": 64
    },
    {
      "midi": 55,
      "hit": false,
      "t": 34677.42166666667,
      "d": 161.2903333333379,
      "v": 64
    },
    {
      "midi": 57,
      "hit": false,
      "t": 34758.06683333334,
      "d": 967.7419999999984,
      "v": 64
    },
    {
      "midi": 43,
      "hit": false,
      "t": 34838.71199999999,
      "d": 1935.4839999999967,
      "v": 64
    },
    {
      "midi": 59,
      "hit": false,
      "t": 34838.71200000001,
      "d": 967.7419999999984,
      "v": 64
    },
    {
      "midi": 62,
      "hit": false,
      "t": 36290.325000000004,
      "d": 483.8709999999992,
      "v": 96
    },
    {
      "midi": 45,
      "hit": false,
      "t": 36774.19599999999,
      "d": 1935.4839999999967,
      "v": 64
    },
    {
      "midi": 60,
      "hit": false,
      "t": 36774.196,
      "d": 1209.677499999998,
      "v": 64
    },
    {
      "midi": 55,
      "hit": false,
      "t": 37258.067,
      "d": 725.8064999999988,
      "v": 64
    },
    {
      "midi": 52,
      "hit": false,
      "t": 37500.0025,
      "d": 483.8709999999992,
      "v": 64
    },
    {
      "midi": 60,
      "hit": false,
      "t": 37983.8735,
      "d": 725.8064999999988,
      "v": 80
    },
    {
      "midi": 67,
      "hit": false,
      "t": 37983.8735,
      "d": 725.8064999999988,
      "v": 80
    },
    {
      "midi": 71,
      "hit": false,
      "t": 37983.8735,
      "d": 725.8064999999988,
      "v": 80
    },
    {
      "midi": 48,
      "hit": false,
      "t": 38467.744499999986,
      "d": 241.9354999999996,
      "v": 64
    },
    {
      "midi": 36,
      "hit": false,
      "t": 38709.679999999986,
      "d": 1935.4839999999967,
      "v": 64
    },
    {
      "midi": 55,
      "hit": false,
      "t": 38709.68,
      "d": 967.7419999999984,
      "v": 64
    },
    {
      "midi": 59,
      "hit": false,
      "t": 38709.68,
      "d": 967.7419999999984,
      "v": 64
    },
    {
      "midi": 59,
      "hit": false,
      "t": 39919.3575,
      "d": 483.8709999999992,
      "v": 64
    },
    {
      "midi": 64,
      "hit": false,
      "t": 39919.3575,
      "d": 483.8709999999992,
      "v": 64
    },
    {
      "midi": 55,
      "hit": false,
      "t": 40403.2285,
      "d": 241.9354999999996,
      "v": 64
    },
    {
      "midi": 47,
      "hit": false,
      "t": 40645.16399999998,
      "d": 1693.5484999999971,
      "v": 64
    },
    {
      "midi": 57,
      "hit": false,
      "t": 40645.164,
      "d": 967.7420000000056,
      "v": 80
    },
    {
      "midi": 62,
      "hit": false,
      "t": 40645.164,
      "d": 967.7420000000056,
      "v": 80
    },
    {
      "midi": 66,
      "hit": false,
      "t": 41370.970499999996,
      "d": 120.96775000000343,
      "v": 96
    },
    {
      "midi": 67,
      "hit": false,
      "t": 41491.93825,
      "d": 120.96775000000343,
      "v": 96
    },
    {
      "midi": 57,
      "hit": false,
      "t": 41612.906,
      "d": 725.8064999999988,
      "v": 80
    },
    {
      "midi": 62,
      "hit": false,
      "t": 41612.906,
      "d": 725.8064999999988,
      "v": 80
    },
    {
      "midi": 66,
      "hit": false,
      "t": 41612.906,
      "d": 725.8064999999988,
      "v": 96
    },
    {
      "midi": 52,
      "hit": false,
      "t": 42338.71249999998,
      "d": 241.9354999999996,
      "v": 48
    },
    {
      "midi": 64,
      "hit": false,
      "t": 42338.7125,
      "d": 120.96775000000343,
      "v": 64
    },
    {
      "midi": 62,
      "hit": false,
      "t": 42459.680250000005,
      "d": 120.96775000000343,
      "v": 64
    },
    {
      "midi": 45,
      "hit": false,
      "t": 42580.64799999998,
      "d": 1935.4839999999967,
      "v": 64
    },
    {
      "midi": 64,
      "hit": false,
      "t": 42580.64800000001,
      "d": 1209.677499999998,
      "v": 64
    },
    {
      "midi": 55,
      "hit": false,
      "t": 43064.51900000001,
      "d": 725.8064999999988,
      "v": 64
    },
    {
      "midi": 52,
      "hit": false,
      "t": 43306.45450000001,
      "d": 483.8709999999992,
      "v": 64
    },
    {
      "midi": 64,
      "hit": false,
      "t": 43790.325500000006,
      "d": 725.8064999999988,
      "v": 80
    },
    {
      "midi": 72,
      "hit": false,
      "t": 43790.325500000006,
      "d": 725.8064999999988,
      "v": 80
    },
    {
      "midi": 52,
      "hit": false,
      "t": 44516.131999999976,
      "d": 1935.4839999999967,
      "v": 64
    },
    {
      "midi": 62,
      "hit": false,
      "t": 44516.132000000005,
      "d": 725.8064999999988,
      "v": 80
    },
    {
      "midi": 71,
      "hit": false,
      "t": 44516.132000000005,
      "d": 725.8064999999988,
      "v": 80
    },
    {
      "midi": 59,
      "hit": false,
      "t": 45241.938500000004,
      "d": 967.7419999999984,
      "v": 80
    },
    {
      "midi": 67,
      "hit": false,
      "t": 45241.938500000004,
      "d": 967.7419999999984,
      "v": 80
    },
    {
      "midi": 62,
      "hit": false,
      "t": 45725.8095,
      "d": 483.8709999999992,
      "v": 80
    },
    {
      "midi": 50,
      "hit": false,
      "t": 46451.61599999997,
      "d": 967.7419999999984,
      "v": 64
    },
    {
      "midi": 55,
      "hit": false,
      "t": 46451.616,
      "d": 604.8387500000026,
      "v": 80
    },
    {
      "midi": 60,
      "hit": false,
      "t": 46451.616,
      "d": 604.8387500000026,
      "v": 80
    },
    {
      "midi": 64,
      "hit": false,
      "t": 46451.616,
      "d": 604.8387500000026,
      "v": 80
    },
    {
      "midi": 60,
      "hit": false,
      "t": 47177.42250000001,
      "d": 967.7419999999984,
      "v": 96
    },
    {
      "midi": 64,
      "hit": false,
      "t": 47177.42250000001,
      "d": 967.7419999999984,
      "v": 96
    },
    {
      "midi": 67,
      "hit": false,
      "t": 47177.42250000001,
      "d": 967.7419999999984,
      "v": 96
    },
    {
      "midi": 50,
      "hit": false,
      "t": 47661.29349999997,
      "d": 120.96775000000343,
      "v": 64
    },
    {
      "midi": 50,
      "hit": false,
      "t": 48145.16449999998,
      "d": 725.8064999999988,
      "v": 64
    },
    {
      "midi": 64,
      "hit": false,
      "t": 48145.164500000006,
      "d": 967.7419999999984,
      "v": 96
    },
    {
      "midi": 67,
      "hit": false,
      "t": 48145.164500000006,
      "d": 967.7419999999984,
      "v": 96
    },
    {
      "midi": 72,
      "hit": false,
      "t": 48145.164500000006,
      "d": 967.7419999999984,
      "v": 96
    },
    {
      "midi": 50,
      "hit": false,
      "t": 49112.906499999975,
      "d": 120.96775000000343,
      "v": 64
    },
    {
      "midi": 64,
      "hit": false,
      "t": 49112.906500000005,
      "d": 483.8709999999992,
      "v": 96
    },
    {
      "midi": 67,
      "hit": false,
      "t": 49112.906500000005,
      "d": 483.8709999999992,
      "v": 96
    },
    {
      "midi": 72,
      "hit": false,
      "t": 49112.906500000005,
      "d": 483.8709999999992,
      "v": 96
    },
    {
      "midi": 50,
      "hit": false,
      "t": 49596.77749999998,
      "d": 725.8064999999988,
      "v": 64
    },
    {
      "midi": 60,
      "hit": false,
      "t": 49596.777500000004,
      "d": 725.8064999999988,
      "v": 96
    },
    {
      "midi": 64,
      "hit": false,
      "t": 49596.777500000004,
      "d": 725.8064999999988,
      "v": 96
    },
    {
      "midi": 67,
      "hit": false,
      "t": 49596.777500000004,
      "d": 725.8064999999988,
      "v": 96
    },
    {
      "midi": 62,
      "hit": false,
      "t": 50201.61625000001,
      "d": 1330.6452499999941,
      "v": 80
    },
    {
      "midi": 66,
      "hit": false,
      "t": 50262.100125000004,
      "d": 1270.161374999996,
      "v": 80
    },
    {
      "midi": 43,
      "hit": false,
      "t": 50322.58399999998,
      "d": 1935.4839999999967,
      "v": 64
    },
    {
      "midi": 59,
      "hit": false,
      "t": 50322.583999999995,
      "d": 1935.4839999999967,
      "v": 64
    },
    {
      "midi": 62,
      "hit": false,
      "t": 50322.583999999995,
      "d": 1935.4839999999967,
      "v": 64
    },
    {
      "midi": 66,
      "hit": false,
      "t": 50322.583999999995,
      "d": 1935.4839999999967,
      "v": 64
    },
    {
      "midi": 71,
      "hit": false,
      "t": 50322.584,
      "d": 1209.677499999998,
      "v": 80
    },
    {
      "midi": 55,
      "hit": false,
      "t": 51532.2615,
      "d": 241.9354999999996,
      "v": 64
    },
    {
      "midi": 66,
      "hit": false,
      "t": 51774.197,
      "d": 483.8709999999992,
      "v": 80
    },
    {
      "midi": 69,
      "hit": false,
      "t": 51774.197,
      "d": 483.8709999999992,
      "v": 80
    },
    {
      "midi": 74,
      "hit": false,
      "t": 51774.197,
      "d": 483.8709999999992,
      "v": 80
    },
    {
      "midi": 50,
      "hit": false,
      "t": 52258.06799999998,
      "d": 1935.4839999999967,
      "v": 64
    },
    {
      "midi": 57,
      "hit": false,
      "t": 52258.06799999999,
      "d": 1935.4839999999967,
      "v": 64
    },
    {
      "midi": 60,
      "hit": false,
      "t": 52258.06799999999,
      "d": 1935.4839999999967,
      "v": 64
    },
    {
      "midi": 65,
      "hit": false,
      "t": 52258.06799999999,
      "d": 1935.4839999999967,
      "v": 64
    },
    {
      "midi": 72,
      "hit": false,
      "t": 52258.068,
      "d": 725.8064999999988,
      "v": 64
    },
    {
      "midi": 65,
      "hit": false,
      "t": 52258.068,
      "d": 967.7419999999984,
      "v": 64
    },
    {
      "midi": 69,
      "hit": false,
      "t": 52258.068,
      "d": 967.7419999999984,
      "v": 64
    },
    {
      "midi": 72,
      "hit": false,
      "t": 52983.8745,
      "d": 1209.677499999998,
      "v": 112
    },
    {
      "midi": 60,
      "hit": false,
      "t": 53225.81,
      "d": 241.9354999999996,
      "v": 64
    },
    {
      "midi": 64,
      "hit": false,
      "t": 53467.7455,
      "d": 725.8064999999988,
      "v": 64
    },
    {
      "midi": 48,
      "hit": false,
      "t": 54193.551999999974,
      "d": 1209.677499999998,
      "v": 64
    },
    {
      "midi": 55,
      "hit": false,
      "t": 54193.55199999999,
      "d": 1935.4839999999967,
      "v": 64
    },
    {
      "midi": 59,
      "hit": false,
      "t": 54193.55199999999,
      "d": 1935.4839999999967,
      "v": 64
    },
    {
      "midi": 64,
      "hit": false,
      "t": 54193.55199999999,
      "d": 1935.4839999999967,
      "v": 64
    },
    {
      "midi": 64,
      "hit": false,
      "t": 54193.551999999996,
      "d": 967.7419999999984,
      "v": 64
    },
    {
      "midi": 67,
      "hit": false,
      "t": 54193.551999999996,
      "d": 967.7419999999984,
      "v": 64
    },
    {
      "midi": 71,
      "hit": false,
      "t": 54193.551999999996,
      "d": 967.7419999999984,
      "v": 64
    },
    {
      "midi": 55,
      "hit": false,
      "t": 55403.22949999997,
      "d": 241.9354999999996,
      "v": 48
    },
    {
      "midi": 59,
      "hit": false,
      "t": 55403.229499999994,
      "d": 725.8064999999988,
      "v": 96
    },
    {
      "midi": 67,
      "hit": false,
      "t": 55403.229499999994,
      "d": 725.8064999999988,
      "v": 96
    },
    {
      "midi": 52,
      "hit": false,
      "t": 55645.16499999997,
      "d": 241.9354999999996,
      "v": 48
    },
    {
      "midi": 64,
      "hit": false,
      "t": 55645.16499999999,
      "d": 483.8709999999992,
      "v": 80
    },
    {
      "midi": 54,
      "hit": false,
      "t": 55887.10049999997,
      "d": 241.9354999999996,
      "v": 64
    },
    {
      "midi": 47,
      "hit": false,
      "t": 56129.03599999997,
      "d": 1935.4839999999967,
      "v": 64
    },
    {
      "midi": 54,
      "hit": false,
      "t": 56129.035999999986,
      "d": 1935.4839999999967,
      "v": 64
    },
    {
      "midi": 57,
      "hit": false,
      "t": 56129.035999999986,
      "d": 1935.4839999999967,
      "v": 64
    },
    {
      "midi": 62,
      "hit": false,
      "t": 56129.035999999986,
      "d": 1935.4839999999967,
      "v": 64
    },
    {
      "midi": 64,
      "hit": false,
      "t": 56129.03599999999,
      "d": 725.8064999999988,
      "v": 64
    },
    {
      "midi": 66,
      "hit": false,
      "t": 56129.03599999999,
      "d": 725.8064999999988,
      "v": 80
    },
    {
      "midi": 59,
      "hit": false,
      "t": 56129.03599999999,
      "d": 967.7419999999984,
      "v": 64
    },
    {
      "midi": 62,
      "hit": false,
      "t": 56129.03599999999,
      "d": 1209.677499999998,
      "v": 64
    },
    {
      "midi": 64,
      "hit": false,
      "t": 56854.84249999999,
      "d": 241.9354999999996,
      "v": 64
    },
    {
      "midi": 67,
      "hit": false,
      "t": 56854.84249999999,
      "d": 967.7419999999984,
      "v": 80
    },
    {
      "midi": 66,
      "hit": false,
      "t": 57096.77799999999,
      "d": 967.7419999999984,
      "v": 80
    },
    {
      "midi": 62,
      "hit": false,
      "t": 57580.64899999999,
      "d": 483.8709999999992,
      "v": 64
    },
    {
      "midi": 57,
      "hit": false,
      "t": 57822.58449999999,
      "d": 241.9354999999996,
      "v": 64
    },
    {
      "midi": 45,
      "hit": false,
      "t": 58064.51999999997,
      "d": 1693.5484999999971,
      "v": 64
    },
    {
      "midi": 55,
      "hit": false,
      "t": 58064.51999999998,
      "d": 1935.4839999999967,
      "v": 64
    },
    {
      "midi": 60,
      "hit": false,
      "t": 58064.51999999998,
      "d": 1935.4839999999967,
      "v": 64
    },
    {
      "midi": 64,
      "hit": false,
      "t": 58064.51999999998,
      "d": 1935.4839999999967,
      "v": 64
    },
    {
      "midi": 55,
      "hit": false,
      "t": 58064.51999999999,
      "d": 967.7419999999984,
      "v": 64
    },
    {
      "midi": 59,
      "hit": false,
      "t": 58064.51999999999,
      "d": 967.7419999999984,
      "v": 64
    },
    {
      "midi": 62,
      "hit": false,
      "t": 58064.51999999999,
      "d": 967.7419999999984,
      "v": 64
    },
    {
      "midi": 64,
      "hit": false,
      "t": 58064.51999999999,
      "d": 967.7419999999984,
      "v": 64
    },
    {
      "midi": 67,
      "hit": false,
      "t": 59274.19749999999,
      "d": 725.8064999999988,
      "v": 96
    },
    {
      "midi": 76,
      "hit": false,
      "t": 59274.19749999999,
      "d": 725.8064999999988,
      "v": 96
    },
    {
      "midi": 47,
      "hit": false,
      "t": 59758.068499999965,
      "d": 241.9354999999996,
      "v": 64
    },
    {
      "midi": 52,
      "hit": false,
      "t": 60000.003999999964,
      "d": 1693.5484999999971,
      "v": 64
    },
    {
      "midi": 55,
      "hit": false,
      "t": 60000.00399999998,
      "d": 1935.4839999999967,
      "v": 64
    },
    {
      "midi": 59,
      "hit": false,
      "t": 60000.00399999998,
      "d": 1935.4839999999967,
      "v": 64
    },
    {
      "midi": 62,
      "hit": false,
      "t": 60000.00399999998,
      "d": 1935.4839999999967,
      "v": 64
    },
    {
      "midi": 62,
      "hit": false,
      "t": 60000.003999999986,
      "d": 967.7419999999984,
      "v": 64
    },
    {
      "midi": 59,
      "hit": false,
      "t": 60725.810499999985,
      "d": 241.9354999999996,
      "v": 96
    },
    {
      "midi": 67,
      "hit": false,
      "t": 60725.810499999985,
      "d": 241.9354999999996,
      "v": 96
    },
    {
      "midi": 62,
      "hit": false,
      "t": 61209.681499999984,
      "d": 725.8064999999988,
      "v": 96
    },
    {
      "midi": 67,
      "hit": false,
      "t": 61209.681499999984,
      "d": 725.8064999999988,
      "v": 96
    },
    {
      "midi": 36,
      "hit": false,
      "t": 61935.48799999996,
      "d": 967.7419999999984,
      "v": 80
    },
    {
      "midi": 55,
      "hit": false,
      "t": 61935.487999999976,
      "d": 967.7419999999984,
      "v": 64
    },
    {
      "midi": 59,
      "hit": false,
      "t": 61935.487999999976,
      "d": 967.7419999999984,
      "v": 64
    },
    {
      "midi": 64,
      "hit": false,
      "t": 61935.487999999976,
      "d": 967.7419999999984,
      "v": 64
    },
    {
      "midi": 55,
      "hit": false,
      "t": 61935.48799999998,
      "d": 967.7419999999984,
      "v": 80
    },
    {
      "midi": 60,
      "hit": false,
      "t": 61935.48799999998,
      "d": 967.7419999999984,
      "v": 80
    },
    {
      "midi": 64,
      "hit": false,
      "t": 61935.48799999998,
      "d": 967.7419999999984,
      "v": 80
    },
    {
      "midi": 35,
      "hit": false,
      "t": 62903.22999999996,
      "d": 967.7419999999984,
      "v": 80
    },
    {
      "midi": 54,
      "hit": false,
      "t": 62903.229999999974,
      "d": 967.7419999999984,
      "v": 64
    },
    {
      "midi": 57,
      "hit": false,
      "t": 62903.229999999974,
      "d": 967.7419999999984,
      "v": 64
    },
    {
      "midi": 62,
      "hit": false,
      "t": 62903.229999999974,
      "d": 967.7419999999984,
      "v": 64
    },
    {
      "midi": 54,
      "hit": false,
      "t": 62903.22999999998,
      "d": 967.7419999999984,
      "v": 96
    },
    {
      "midi": 57,
      "hit": false,
      "t": 62903.22999999998,
      "d": 967.7419999999984,
      "v": 96
    },
    {
      "midi": 62,
      "hit": false,
      "t": 62903.22999999998,
      "d": 967.7419999999984,
      "v": 96
    },
    {
      "midi": 38,
      "hit": false,
      "t": 63870.97199999996,
      "d": 725.8064999999988,
      "v": 80
    },
    {
      "midi": 55,
      "hit": false,
      "t": 63870.97199999997,
      "d": 1935.484000000004,
      "v": 64
    },
    {
      "midi": 60,
      "hit": false,
      "t": 63870.97199999997,
      "d": 1935.484000000004,
      "v": 64
    },
    {
      "midi": 64,
      "hit": false,
      "t": 63870.97199999997,
      "d": 1935.484000000004,
      "v": 64
    },
    {
      "midi": 55,
      "hit": false,
      "t": 63870.97199999998,
      "d": 967.7419999999984,
      "v": 96
    },
    {
      "midi": 60,
      "hit": false,
      "t": 63870.97199999998,
      "d": 967.7419999999984,
      "v": 96
    },
    {
      "midi": 64,
      "hit": false,
      "t": 63870.97199999998,
      "d": 967.7419999999984,
      "v": 96
    },
    {
      "midi": 50,
      "hit": false,
      "t": 64596.77849999996,
      "d": 241.9354999999996,
      "v": 80
    },
    {
      "midi": 38,
      "hit": false,
      "t": 64838.713999999956,
      "d": 241.9354999999996,
      "v": 80
    },
    {
      "midi": 55,
      "hit": false,
      "t": 64838.71399999998,
      "d": 362.903250000003,
      "v": 96
    },
    {
      "midi": 59,
      "hit": false,
      "t": 64838.71399999998,
      "d": 362.903250000003,
      "v": 96
    },
    {
      "midi": 62,
      "hit": false,
      "t": 64838.71399999998,
      "d": 362.903250000003,
      "v": 96
    },
    {
      "midi": 50,
      "hit": false,
      "t": 65080.649499999956,
      "d": 241.9354999999996,
      "v": 80
    },
    {
      "midi": 38,
      "hit": false,
      "t": 65322.584999999955,
      "d": 483.87100000000646,
      "v": 80
    },
    {
      "midi": 55,
      "hit": false,
      "t": 65322.584999999985,
      "d": 362.90324999999575,
      "v": 96
    },
    {
      "midi": 60,
      "hit": false,
      "t": 65322.584999999985,
      "d": 362.90324999999575,
      "v": 96
    },
    {
      "midi": 64,
      "hit": false,
      "t": 65322.584999999985,
      "d": 362.90324999999575,
      "v": 96
    },
    {
      "midi": 43,
      "hit": false,
      "t": 65806.45599999996,
      "d": 483.8709999999992,
      "v": 80
    },
    {
      "midi": 57,
      "hit": false,
      "t": 65806.45599999998,
      "d": 604.8387499999953,
      "v": 96
    },
    {
      "midi": 62,
      "hit": false,
      "t": 65806.45599999998,
      "d": 604.8387499999953,
      "v": 96
    },
    {
      "midi": 66,
      "hit": false,
      "t": 65806.45599999998,
      "d": 604.8387499999953,
      "v": 96
    },
    {
      "midi": 57,
      "hit": false,
      "t": 66048.39149999998,
      "d": 241.93550000000687,
      "v": 112
    },
    {
      "midi": 62,
      "hit": false,
      "t": 66290.32699999999,
      "d": 241.93550000000687,
      "v": 112
    },
    {
      "midi": 57,
      "hit": false,
      "t": 66532.26249999997,
      "d": 181.4516250000015,
      "v": 96
    },
    {
      "midi": 62,
      "hit": false,
      "t": 66532.26249999997,
      "d": 181.4516250000015,
      "v": 96
    },
    {
      "midi": 66,
      "hit": false,
      "t": 66532.26249999997,
      "d": 181.4516250000015,
      "v": 96
    },
    {
      "midi": 43,
      "hit": false,
      "t": 66532.26249999997,
      "d": 241.93550000000687,
      "v": 80
    },
    {
      "midi": 66,
      "hit": false,
      "t": 66532.2625,
      "d": 1209.6775000000052,
      "v": 112
    },
    {
      "midi": 57,
      "hit": false,
      "t": 66774.19799999997,
      "d": 181.4516250000015,
      "v": 96
    },
    {
      "midi": 62,
      "hit": false,
      "t": 66774.19799999997,
      "d": 181.4516250000015,
      "v": 96
    },
    {
      "midi": 66,
      "hit": false,
      "t": 66774.19799999997,
      "d": 181.4516250000015,
      "v": 96
    },
    {
      "midi": 50,
      "hit": false,
      "t": 66774.19799999997,
      "d": 483.8709999999992,
      "v": 80
    },
    {
      "midi": 59,
      "hit": false,
      "t": 67016.13349999998,
      "d": 362.903250000003,
      "v": 96
    },
    {
      "midi": 62,
      "hit": false,
      "t": 67016.13349999998,
      "d": 362.903250000003,
      "v": 96
    },
    {
      "midi": 67,
      "hit": false,
      "t": 67016.13349999998,
      "d": 362.903250000003,
      "v": 96
    },
    {
      "midi": 57,
      "hit": false,
      "t": 67500.00449999998,
      "d": 725.806500000006,
      "v": 96
    },
    {
      "midi": 62,
      "hit": false,
      "t": 67500.00449999998,
      "d": 725.806500000006,
      "v": 96
    },
    {
      "midi": 66,
      "hit": false,
      "t": 67500.00449999998,
      "d": 725.806500000006,
      "v": 96
    },
    {
      "midi": 50,
      "hit": false,
      "t": 67500.00449999998,
      "d": 241.93550000000687,
      "v": 80
    },
    {
      "midi": 43,
      "hit": false,
      "t": 67741.93999999999,
      "d": 483.8709999999992,
      "v": 80
    },
    {
      "midi": 57,
      "hit": false,
      "t": 67983.87550000001,
      "d": 241.93550000000687,
      "v": 112
    },
    {
      "midi": 62,
      "hit": false,
      "t": 68225.81100000002,
      "d": 241.93550000000687,
      "v": 112
    },
    {
      "midi": 43,
      "hit": false,
      "t": 68467.7465,
      "d": 241.93550000000687,
      "v": 80
    },
    {
      "midi": 66,
      "hit": false,
      "t": 68467.74650000002,
      "d": 1209.6775000000052,
      "v": 112
    },
    {
      "midi": 55,
      "hit": false,
      "t": 68709.68199999999,
      "d": 362.903250000003,
      "v": 96
    },
    {
      "midi": 59,
      "hit": false,
      "t": 68709.68199999999,
      "d": 362.903250000003,
      "v": 96
    },
    {
      "midi": 62,
      "hit": false,
      "t": 68709.68199999999,
      "d": 362.903250000003,
      "v": 96
    },
    {
      "midi": 50,
      "hit": false,
      "t": 68709.682,
      "d": 483.8709999999992,
      "v": 80
    },
    {
      "midi": 55,
      "hit": false,
      "t": 69193.55299999999,
      "d": 362.903250000003,
      "v": 96
    },
    {
      "midi": 60,
      "hit": false,
      "t": 69193.55299999999,
      "d": 362.903250000003,
      "v": 96
    },
    {
      "midi": 64,
      "hit": false,
      "t": 69193.55299999999,
      "d": 362.903250000003,
      "v": 96
    },
    {
      "midi": 50,
      "hit": false,
      "t": 69435.4885,
      "d": 241.93550000000687,
      "v": 80
    },
    {
      "midi": 57,
      "hit": false,
      "t": 69677.42399999998,
      "d": 604.8387499999953,
      "v": 96
    },
    {
      "midi": 62,
      "hit": false,
      "t": 69677.42399999998,
      "d": 604.8387499999953,
      "v": 96
    },
    {
      "midi": 65,
      "hit": false,
      "t": 69677.42399999998,
      "d": 604.8387499999953,
      "v": 96
    },
    {
      "midi": 46,
      "hit": false,
      "t": 69677.42400000001,
      "d": 483.8709999999992,
      "v": 80
    },
    {
      "midi": 57,
      "hit": false,
      "t": 69919.35950000004,
      "d": 241.93550000000687,
      "v": 112
    },
    {
      "midi": 62,
      "hit": false,
      "t": 70161.29500000004,
      "d": 241.93550000000687,
      "v": 112
    },
    {
      "midi": 57,
      "hit": false,
      "t": 70403.23049999998,
      "d": 181.4516250000015,
      "v": 96
    },
    {
      "midi": 62,
      "hit": false,
      "t": 70403.23049999998,
      "d": 181.4516250000015,
      "v": 96
    },
    {
      "midi": 65,
      "hit": false,
      "t": 70403.23049999998,
      "d": 181.4516250000015,
      "v": 96
    },
    {
      "midi": 46,
      "hit": false,
      "t": 70403.23050000002,
      "d": 241.93550000000687,
      "v": 80
    },
    {
      "midi": 65,
      "hit": false,
      "t": 70403.23050000005,
      "d": 1209.6775000000052,
      "v": 112
    },
    {
      "midi": 57,
      "hit": false,
      "t": 70645.16599999998,
      "d": 181.4516250000015,
      "v": 96
    },
    {
      "midi": 62,
      "hit": false,
      "t": 70645.16599999998,
      "d": 181.4516250000015,
      "v": 96
    },
    {
      "midi": 65,
      "hit": false,
      "t": 70645.16599999998,
      "d": 181.4516250000015,
      "v": 96
    },
    {
      "midi": 41,
      "hit": false,
      "t": 70645.16600000003,
      "d": 483.8709999999992,
      "v": 80
    },
    {
      "midi": 58,
      "hit": false,
      "t": 70887.10149999999,
      "d": 362.903250000003,
      "v": 96
    },
    {
      "midi": 62,
      "hit": false,
      "t": 70887.10149999999,
      "d": 362.903250000003,
      "v": 96
    },
    {
      "midi": 67,
      "hit": false,
      "t": 70887.10149999999,
      "d": 362.903250000003,
      "v": 96
    },
    {
      "midi": 60,
      "hit": false,
      "t": 71370.97249999999,
      "d": 362.903250000003,
      "v": 96
    },
    {
      "midi": 65,
      "hit": false,
      "t": 71370.97249999999,
      "d": 362.903250000003,
      "v": 96
    },
    {
      "midi": 69,
      "hit": false,
      "t": 71370.97249999999,
      "d": 362.903250000003,
      "v": 96
    },
    {
      "midi": 41,
      "hit": false,
      "t": 71370.97250000003,
      "d": 241.93550000000687,
      "v": 80
    },
    {
      "midi": 46,
      "hit": false,
      "t": 71612.90800000004,
      "d": 483.8709999999992,
      "v": 80
    },
    {
      "midi": 57,
      "hit": false,
      "t": 71854.84349999999,
      "d": 362.903250000003,
      "v": 96
    },
    {
      "midi": 60,
      "hit": false,
      "t": 71854.84349999999,
      "d": 362.903250000003,
      "v": 96
    },
    {
      "midi": 65,
      "hit": false,
      "t": 71854.84349999999,
      "d": 362.903250000003,
      "v": 96
    },
    {
      "midi": 57,
      "hit": false,
      "t": 71854.84350000006,
      "d": 241.93550000000687,
      "v": 112
    },
    {
      "midi": 62,
      "hit": false,
      "t": 72096.77900000007,
      "d": 241.93550000000687,
      "v": 112
    },
    {
      "midi": 57,
      "hit": false,
      "t": 72338.71449999999,
      "d": 362.903250000003,
      "v": 96
    },
    {
      "midi": 60,
      "hit": false,
      "t": 72338.71449999999,
      "d": 362.903250000003,
      "v": 96
    },
    {
      "midi": 65,
      "hit": false,
      "t": 72338.71449999999,
      "d": 362.903250000003,
      "v": 96
    },
    {
      "midi": 46,
      "hit": false,
      "t": 72338.71450000005,
      "d": 241.93550000000687,
      "v": 80
    },
    {
      "midi": 65,
      "hit": false,
      "t": 72338.71450000007,
      "d": 1209.6775000000052,
      "v": 112
    },
    {
      "midi": 41,
      "hit": false,
      "t": 72580.65000000005,
      "d": 483.8709999999992,
      "v": 80
    },
    {
      "midi": 60,
      "hit": false,
      "t": 72822.58549999999,
      "d": 362.903250000003,
      "v": 96
    },
    {
      "midi": 65,
      "hit": false,
      "t": 72822.58549999999,
      "d": 362.903250000003,
      "v": 96
    },
    {
      "midi": 69,
      "hit": false,
      "t": 72822.58549999999,
      "d": 362.903250000003,
      "v": 96
    },
    {
      "midi": 53,
      "hit": false,
      "t": 73306.45649999999,
      "d": 725.806500000006,
      "v": 96
    },
    {
      "midi": 58,
      "hit": false,
      "t": 73306.45649999999,
      "d": 725.806500000006,
      "v": 96
    },
    {
      "midi": 62,
      "hit": false,
      "t": 73306.45649999999,
      "d": 725.806500000006,
      "v": 96
    },
    {
      "midi": 41,
      "hit": false,
      "t": 73306.45650000006,
      "d": 241.93550000000687,
      "v": 80
    },
    {
      "midi": 51,
      "hit": false,
      "t": 73548.39200000007,
      "d": 483.8709999999992,
      "v": 80
    },
    {
      "midi": 55,
      "hit": false,
      "t": 73790.32750000009,
      "d": 241.93550000000687,
      "v": 112
    },
    {
      "midi": 58,
      "hit": false,
      "t": 74032.2630000001,
      "d": 241.93550000000687,
      "v": 112
    },
    {
      "midi": 53,
      "hit": false,
      "t": 74274.1985,
      "d": 181.4516250000015,
      "v": 96
    },
    {
      "midi": 58,
      "hit": false,
      "t": 74274.1985,
      "d": 181.4516250000015,
      "v": 96
    },
    {
      "midi": 62,
      "hit": false,
      "t": 74274.1985,
      "d": 181.4516250000015,
      "v": 96
    },
    {
      "midi": 51,
      "hit": false,
      "t": 74274.19850000007,
      "d": 241.93550000000687,
      "v": 80
    },
    {
      "midi": 62,
      "hit": false,
      "t": 74274.1985000001,
      "d": 1209.6775000000052,
      "v": 112
    },
    {
      "midi": 53,
      "hit": false,
      "t": 74516.134,
      "d": 181.4516250000015,
      "v": 96
    },
    {
      "midi": 58,
      "hit": false,
      "t": 74516.134,
      "d": 181.4516250000015,
      "v": 96
    },
    {
      "midi": 62,
      "hit": false,
      "t": 74516.134,
      "d": 181.4516250000015,
      "v": 96
    },
    {
      "midi": 46,
      "hit": false,
      "t": 74516.13400000008,
      "d": 483.8709999999992,
      "v": 80
    },
    {
      "midi": 58,
      "hit": false,
      "t": 74758.06950000001,
      "d": 362.903250000003,
      "v": 96
    },
    {
      "midi": 62,
      "hit": false,
      "t": 74758.06950000001,
      "d": 362.903250000003,
      "v": 96
    },
    {
      "midi": 65,
      "hit": false,
      "t": 74758.06950000001,
      "d": 362.903250000003,
      "v": 96
    },
    {
      "midi": 53,
      "hit": false,
      "t": 75241.94050000001,
      "d": 483.8709999999992,
      "v": 96
    },
    {
      "midi": 58,
      "hit": false,
      "t": 75241.94050000001,
      "d": 483.8709999999992,
      "v": 96
    },
    {
      "midi": 62,
      "hit": false,
      "t": 75241.94050000001,
      "d": 483.8709999999992,
      "v": 96
    },
    {
      "midi": 46,
      "hit": false,
      "t": 75241.94050000008,
      "d": 241.93550000000687,
      "v": 80
    },
    {
      "midi": 43,
      "hit": false,
      "t": 75483.87600000009,
      "d": 483.8709999999992,
      "v": 80
    },
    {
      "midi": 57,
      "hit": false,
      "t": 75725.81150000011,
      "d": 241.93550000000687,
      "v": 112
    },
    {
      "midi": 58,
      "hit": false,
      "t": 75967.74700000012,
      "d": 241.93550000000687,
      "v": 112
    },
    {
      "midi": 43,
      "hit": false,
      "t": 76209.6825000001,
      "d": 241.93550000000687,
      "v": 80
    },
    {
      "midi": 65,
      "hit": false,
      "t": 76209.68250000013,
      "d": 1209.6775000000052,
      "v": 112
    },
    {
      "midi": 50,
      "hit": false,
      "t": 76451.61800000002,
      "d": 362.903250000003,
      "v": 96
    },
    {
      "midi": 55,
      "hit": false,
      "t": 76451.61800000002,
      "d": 362.903250000003,
      "v": 96
    },
    {
      "midi": 58,
      "hit": false,
      "t": 76451.61800000002,
      "d": 362.903250000003,
      "v": 96
    },
    {
      "midi": 50,
      "hit": false,
      "t": 76451.6180000001,
      "d": 483.8709999999992,
      "v": 80
    },
    {
      "midi": 53,
      "hit": false,
      "t": 76935.48900000002,
      "d": 362.903250000003,
      "v": 96
    },
    {
      "midi": 55,
      "hit": false,
      "t": 76935.48900000002,
      "d": 362.903250000003,
      "v": 96
    },
    {
      "midi": 62,
      "hit": false,
      "t": 76935.48900000002,
      "d": 362.903250000003,
      "v": 96
    },
    {
      "midi": 50,
      "hit": false,
      "t": 77177.42450000011,
      "d": 241.93550000000687,
      "v": 80
    },
    {
      "midi": 55,
      "hit": false,
      "t": 77419.36000000002,
      "d": 604.8387499999953,
      "v": 96
    },
    {
      "midi": 58,
      "hit": false,
      "t": 77419.36000000002,
      "d": 604.8387499999953,
      "v": 96
    },
    {
      "midi": 62,
      "hit": false,
      "t": 77419.36000000002,
      "d": 604.8387499999953,
      "v": 96
    },
    {
      "midi": 48,
      "hit": false,
      "t": 77419.36000000012,
      "d": 483.8709999999992,
      "v": 80
    },
    {
      "midi": 62,
      "hit": false,
      "t": 77661.29550000014,
      "d": 241.93550000000687,
      "v": 112
    },
    {
      "midi": 63,
      "hit": false,
      "t": 77903.23100000015,
      "d": 241.93550000000687,
      "v": 112
    },
    {
      "midi": 55,
      "hit": false,
      "t": 78145.1665,
      "d": 181.4516250000015,
      "v": 96
    },
    {
      "midi": 58,
      "hit": false,
      "t": 78145.1665,
      "d": 181.4516250000015,
      "v": 96
    },
    {
      "midi": 60,
      "hit": false,
      "t": 78145.1665,
      "d": 181.4516250000015,
      "v": 96
    },
    {
      "midi": 48,
      "hit": false,
      "t": 78145.16650000012,
      "d": 241.93550000000687,
      "v": 80
    },
    {
      "midi": 70,
      "hit": false,
      "t": 78145.16650000015,
      "d": 1209.6775000000052,
      "v": 112
    },
    {
      "midi": 55,
      "hit": false,
      "t": 78387.10200000001,
      "d": 181.4516250000015,
      "v": 96
    },
    {
      "midi": 58,
      "hit": false,
      "t": 78387.10200000001,
      "d": 181.4516250000015,
      "v": 96
    },
    {
      "midi": 60,
      "hit": false,
      "t": 78387.10200000001,
      "d": 181.4516250000015,
      "v": 96
    },
    {
      "midi": 43,
      "hit": false,
      "t": 78387.10200000013,
      "d": 483.8709999999992,
      "v": 80
    },
    {
      "midi": 55,
      "hit": false,
      "t": 78629.03750000002,
      "d": 362.903250000003,
      "v": 96
    },
    {
      "midi": 58,
      "hit": false,
      "t": 78629.03750000002,
      "d": 362.903250000003,
      "v": 96
    },
    {
      "midi": 62,
      "hit": false,
      "t": 78629.03750000002,
      "d": 362.903250000003,
      "v": 96
    },
    {
      "midi": 55,
      "hit": false,
      "t": 79112.90850000002,
      "d": 725.806500000006,
      "v": 96
    },
    {
      "midi": 60,
      "hit": false,
      "t": 79112.90850000002,
      "d": 725.806500000006,
      "v": 96
    },
    {
      "midi": 63,
      "hit": false,
      "t": 79112.90850000002,
      "d": 725.806500000006,
      "v": 96
    },
    {
      "midi": 43,
      "hit": false,
      "t": 79112.90850000014,
      "d": 241.93550000000687,
      "v": 80
    },
    {
      "midi": 41,
      "hit": false,
      "t": 79354.84400000014,
      "d": 483.8709999999992,
      "v": 80
    },
    {
      "midi": 58,
      "hit": false,
      "t": 79596.77950000016,
      "d": 241.93550000000687,
      "v": 112
    },
    {
      "midi": 63,
      "hit": false,
      "t": 79838.71500000017,
      "d": 241.93550000000687,
      "v": 112
    },
    {
      "midi": 55,
      "hit": false,
      "t": 80080.65050000003,
      "d": 181.4516250000015,
      "v": 96
    },
    {
      "midi": 58,
      "hit": false,
      "t": 80080.65050000003,
      "d": 181.4516250000015,
      "v": 96
    },
    {
      "midi": 62,
      "hit": false,
      "t": 80080.65050000003,
      "d": 181.4516250000015,
      "v": 96
    },
    {
      "midi": 41,
      "hit": false,
      "t": 80080.65050000015,
      "d": 241.93550000000687,
      "v": 80
    },
    {
      "midi": 67,
      "hit": false,
      "t": 80080.65050000018,
      "d": 241.93550000000687,
      "v": 112
    },
    {
      "midi": 55,
      "hit": false,
      "t": 80322.58600000004,
      "d": 362.903250000003,
      "v": 96
    },
    {
      "midi": 60,
      "hit": false,
      "t": 80322.58600000004,
      "d": 362.903250000003,
      "v": 96
    },
    {
      "midi": 63,
      "hit": false,
      "t": 80322.58600000004,
      "d": 362.903250000003,
      "v": 96
    },
    {
      "midi": 48,
      "hit": false,
      "t": 80322.58600000016,
      "d": 483.8709999999992,
      "v": 80
    },
    {
      "midi": 70,
      "hit": false,
      "t": 80322.58600000018,
      "d": 967.7419999999984,
      "v": 112
    },
    {
      "midi": 57,
      "hit": false,
      "t": 80806.45700000004,
      "d": 362.903250000003,
      "v": 96
    },
    {
      "midi": 60,
      "hit": false,
      "t": 80806.45700000004,
      "d": 362.903250000003,
      "v": 96
    },
    {
      "midi": 65,
      "hit": false,
      "t": 80806.45700000004,
      "d": 362.903250000003,
      "v": 96
    },
    {
      "midi": 48,
      "hit": false,
      "t": 81048.39250000016,
      "d": 241.93550000000687,
      "v": 80
    },
    {
      "midi": 57,
      "hit": false,
      "t": 81290.32800000004,
      "d": 604.8387499999953,
      "v": 96
    },
    {
      "midi": 62,
      "hit": false,
      "t": 81290.32800000004,
      "d": 604.8387499999953,
      "v": 96
    },
    {
      "midi": 66,
      "hit": false,
      "t": 81290.32800000004,
      "d": 604.8387499999953,
      "v": 96
    },
    {
      "midi": 43,
      "hit": false,
      "t": 81290.32800000017,
      "d": 483.8709999999992,
      "v": 64
    },
    {
      "midi": 55,
      "hit": false,
      "t": 82016.13450000003,
      "d": 181.4516250000015,
      "v": 96
    },
    {
      "midi": 59,
      "hit": false,
      "t": 82016.13450000003,
      "d": 181.4516250000015,
      "v": 96
    },
    {
      "midi": 62,
      "hit": false,
      "t": 82016.13450000003,
      "d": 181.4516250000015,
      "v": 96
    },
    {
      "midi": 43,
      "hit": false,
      "t": 82016.13450000017,
      "d": 241.93550000000687,
      "v": 64
    },
    {
      "midi": 62,
      "hit": false,
      "t": 82016.13450000019,
      "d": 241.93550000000687,
      "v": 112
    },
    {
      "midi": 55,
      "hit": false,
      "t": 82258.07000000004,
      "d": 181.4516250000015,
      "v": 96
    },
    {
      "midi": 59,
      "hit": false,
      "t": 82258.07000000004,
      "d": 181.4516250000015,
      "v": 96
    },
    {
      "midi": 62,
      "hit": false,
      "t": 82258.07000000004,
      "d": 181.4516250000015,
      "v": 96
    },
    {
      "midi": 50,
      "hit": false,
      "t": 82258.07000000018,
      "d": 483.8709999999992,
      "v": 64
    },
    {
      "midi": 66,
      "hit": false,
      "t": 82258.0700000002,
      "d": 967.7419999999984,
      "v": 112
    },
    {
      "midi": 57,
      "hit": false,
      "t": 82500.00550000004,
      "d": 362.903250000003,
      "v": 96
    },
    {
      "midi": 62,
      "hit": false,
      "t": 82500.00550000004,
      "d": 362.903250000003,
      "v": 96
    },
    {
      "midi": 66,
      "hit": false,
      "t": 82500.00550000004,
      "d": 362.903250000003,
      "v": 96
    },
    {
      "midi": 57,
      "hit": false,
      "t": 82983.87650000004,
      "d": 725.806500000006,
      "v": 96
    },
    {
      "midi": 62,
      "hit": false,
      "t": 82983.87650000004,
      "d": 725.806500000006,
      "v": 96
    },
    {
      "midi": 66,
      "hit": false,
      "t": 82983.87650000004,
      "d": 725.806500000006,
      "v": 96
    },
    {
      "midi": 50,
      "hit": false,
      "t": 82983.87650000019,
      "d": 241.93550000000687,
      "v": 64
    },
    {
      "midi": 47,
      "hit": false,
      "t": 83225.8120000002,
      "d": 483.8709999999992,
      "v": 64
    },
    {
      "midi": 57,
      "hit": false,
      "t": 83467.7475000002,
      "d": 241.93550000000687,
      "v": 112
    },
    {
      "midi": 62,
      "hit": false,
      "t": 83709.68300000021,
      "d": 241.93550000000687,
      "v": 112
    },
    {
      "midi": 47,
      "hit": false,
      "t": 83951.6185000002,
      "d": 241.93550000000687,
      "v": 64
    },
    {
      "midi": 66,
      "hit": false,
      "t": 83951.61850000022,
      "d": 1209.6775000000052,
      "v": 112
    },
    {
      "midi": 57,
      "hit": false,
      "t": 84193.55400000005,
      "d": 181.4516250000015,
      "v": 96
    },
    {
      "midi": 62,
      "hit": false,
      "t": 84193.55400000005,
      "d": 181.4516250000015,
      "v": 96
    },
    {
      "midi": 42,
      "hit": false,
      "t": 84193.55400000021,
      "d": 483.8709999999992,
      "v": 64
    },
    {
      "midi": 57,
      "hit": false,
      "t": 84435.48950000005,
      "d": 362.903250000003,
      "v": 96
    },
    {
      "midi": 62,
      "hit": false,
      "t": 84435.48950000005,
      "d": 362.903250000003,
      "v": 96
    },
    {
      "midi": 66,
      "hit": false,
      "t": 84435.48950000005,
      "d": 362.903250000003,
      "v": 96
    },
    {
      "midi": 57,
      "hit": false,
      "t": 84919.36050000005,
      "d": 362.903250000003,
      "v": 96
    },
    {
      "midi": 62,
      "hit": false,
      "t": 84919.36050000005,
      "d": 362.903250000003,
      "v": 96
    },
    {
      "midi": 66,
      "hit": false,
      "t": 84919.36050000005,
      "d": 362.903250000003,
      "v": 96
    },
    {
      "midi": 42,
      "hit": false,
      "t": 84919.36050000021,
      "d": 241.93550000000687,
      "v": 64
    },
    {
      "midi": 48,
      "hit": false,
      "t": 85161.29600000022,
      "d": 483.8709999999992,
      "v": 64
    },
    {
      "midi": 59,
      "hit": false,
      "t": 85403.23150000005,
      "d": 362.903250000003,
      "v": 96
    },
    {
      "midi": 64,
      "hit": false,
      "t": 85403.23150000005,
      "d": 362.903250000003,
      "v": 96
    },
    {
      "midi": 67,
      "hit": false,
      "t": 85403.23150000005,
      "d": 362.903250000003,
      "v": 96
    },
    {
      "midi": 60,
      "hit": false,
      "t": 85403.23150000023,
      "d": 241.93550000000687,
      "v": 112
    },
    {
      "midi": 64,
      "hit": false,
      "t": 85645.16700000023,
      "d": 241.93550000000687,
      "v": 112
    },
    {
      "midi": 55,
      "hit": false,
      "t": 85887.10250000005,
      "d": 362.903250000003,
      "v": 96
    },
    {
      "midi": 59,
      "hit": false,
      "t": 85887.10250000005,
      "d": 362.903250000003,
      "v": 96
    },
    {
      "midi": 62,
      "hit": false,
      "t": 85887.10250000005,
      "d": 362.903250000003,
      "v": 96
    },
    {
      "midi": 48,
      "hit": false,
      "t": 85887.10250000023,
      "d": 241.93550000000687,
      "v": 64
    },
    {
      "midi": 67,
      "hit": false,
      "t": 85887.10250000024,
      "d": 1209.6775000000052,
      "v": 112
    },
    {
      "midi": 43,
      "hit": false,
      "t": 86129.03800000023,
      "d": 483.8709999999992,
      "v": 64
    },
    {
      "midi": 55,
      "hit": false,
      "t": 86370.97350000005,
      "d": 362.903250000003,
      "v": 96
    },
    {
      "midi": 57,
      "hit": false,
      "t": 86370.97350000005,
      "d": 362.903250000003,
      "v": 96
    },
    {
      "midi": 60,
      "hit": false,
      "t": 86370.97350000005,
      "d": 362.903250000003,
      "v": 96
    },
    {
      "midi": 54,
      "hit": false,
      "t": 86854.84450000005,
      "d": 725.806500000006,
      "v": 96
    },
    {
      "midi": 59,
      "hit": false,
      "t": 86854.84450000005,
      "d": 725.806500000006,
      "v": 96
    },
    {
      "midi": 62,
      "hit": false,
      "t": 86854.84450000005,
      "d": 725.806500000006,
      "v": 96
    },
    {
      "midi": 43,
      "hit": false,
      "t": 86854.84450000024,
      "d": 241.93550000000687,
      "v": 64
    },
    {
      "midi": 43,
      "hit": false,
      "t": 87096.78000000025,
      "d": 483.8709999999992,
      "v": 64
    },
    {
      "midi": 57,
      "hit": false,
      "t": 87338.71550000025,
      "d": 241.93550000000687,
      "v": 112
    },
    {
      "midi": 62,
      "hit": false,
      "t": 87580.65100000006,
      "d": 241.93550000000687,
      "v": 80
    },
    {
      "midi": 62,
      "hit": false,
      "t": 87580.65100000026,
      "d": 241.93550000000687,
      "v": 112
    },
    {
      "midi": 66,
      "hit": false,
      "t": 87822.58650000006,
      "d": 120.96774999999616,
      "v": 80
    },
    {
      "midi": 59,
      "hit": false,
      "t": 87822.58650000006,
      "d": 241.93549999999232,
      "v": 64
    },
    {
      "midi": 43,
      "hit": false,
      "t": 87822.58650000025,
      "d": 241.93550000000687,
      "v": 64
    },
    {
      "midi": 66,
      "hit": false,
      "t": 87822.58650000027,
      "d": 1209.6775000000052,
      "v": 112
    },
    {
      "midi": 59,
      "hit": false,
      "t": 88064.52200000006,
      "d": 604.8387500000099,
      "v": 96
    },
    {
      "midi": 66,
      "hit": false,
      "t": 88064.52200000006,
      "d": 604.8387500000099,
      "v": 80
    },
    {
      "midi": 71,
      "hit": false,
      "t": 88064.52200000006,
      "d": 604.8387500000099,
      "v": 96
    },
    {
      "midi": 50,
      "hit": false,
      "t": 88064.52200000026,
      "d": 483.8709999999992,
      "v": 64
    },
    {
      "midi": 62,
      "hit": false,
      "t": 88427.42525000006,
      "d": 483.8709999999992,
      "v": 96
    },
    {
      "midi": 74,
      "hit": false,
      "t": 88427.42525000006,
      "d": 483.8709999999992,
      "v": 96
    },
    {
      "midi": 59,
      "hit": false,
      "t": 88790.32850000006,
      "d": 362.9032499999885,
      "v": 96
    },
    {
      "midi": 71,
      "hit": false,
      "t": 88790.32850000006,
      "d": 362.9032499999885,
      "v": 96
    },
    {
      "midi": 50,
      "hit": false,
      "t": 88790.32850000027,
      "d": 241.93550000000687,
      "v": 64
    },
    {
      "midi": 57,
      "hit": false,
      "t": 89032.26400000005,
      "d": 483.8709999999992,
      "v": 64
    },
    {
      "midi": 60,
      "hit": false,
      "t": 89032.26400000005,
      "d": 483.8709999999992,
      "v": 64
    },
    {
      "midi": 64,
      "hit": false,
      "t": 89032.26400000005,
      "d": 483.8709999999992,
      "v": 64
    },
    {
      "midi": 41,
      "hit": false,
      "t": 89032.26400000027,
      "d": 483.8709999999992,
      "v": 64
    },
    {
      "midi": 53,
      "hit": false,
      "t": 89032.26400000027,
      "d": 1935.4839999999967,
      "v": 112
    },
    {
      "midi": 57,
      "hit": false,
      "t": 89032.26400000027,
      "d": 1935.4839999999967,
      "v": 112
    },
    {
      "midi": 60,
      "hit": false,
      "t": 89032.26400000027,
      "d": 1935.4839999999967,
      "v": 112
    },
    {
      "midi": 64,
      "hit": false,
      "t": 89032.26400000027,
      "d": 1935.4839999999967,
      "v": 112
    },
    {
      "midi": 79,
      "hit": false,
      "t": 89758.07050000006,
      "d": 1209.6775000000052,
      "v": 96
    },
    {
      "midi": 41,
      "hit": false,
      "t": 89758.07050000028,
      "d": 241.93550000000687,
      "v": 64
    },
    {
      "midi": 76,
      "hit": false,
      "t": 89838.71566666673,
      "d": 1129.0323333333363,
      "v": 96
    },
    {
      "midi": 74,
      "hit": false,
      "t": 89919.3608333334,
      "d": 1048.3871666666673,
      "v": 96
    },
    {
      "midi": 72,
      "hit": false,
      "t": 90000.00600000007,
      "d": 967.7419999999984,
      "v": 80
    },
    {
      "midi": 48,
      "hit": false,
      "t": 90000.00600000028,
      "d": 483.8709999999992,
      "v": 64
    },
    {
      "midi": 67,
      "hit": false,
      "t": 90080.65116666674,
      "d": 967.7419999999984,
      "v": 80
    },
    {
      "midi": 48,
      "hit": false,
      "t": 90725.81250000029,
      "d": 241.93550000000687,
      "v": 64
    },
    {
      "midi": 62,
      "hit": false,
      "t": 90967.74800000007,
      "d": 483.8709999999992,
      "v": 96
    },
    {
      "midi": 66,
      "hit": false,
      "t": 90967.74800000007,
      "d": 483.8709999999992,
      "v": 96
    },
    {
      "midi": 69,
      "hit": false,
      "t": 90967.74800000007,
      "d": 483.8709999999992,
      "v": 96
    },
    {
      "midi": 54,
      "hit": false,
      "t": 90967.74800000027,
      "d": 3387.0969999999943,
      "v": 112
    },
    {
      "midi": 57,
      "hit": false,
      "t": 90967.74800000027,
      "d": 3387.0969999999943,
      "v": 112
    },
    {
      "midi": 62,
      "hit": false,
      "t": 90967.74800000027,
      "d": 3387.0969999999943,
      "v": 112
    },
    {
      "midi": 40,
      "hit": false,
      "t": 90967.7480000003,
      "d": 483.8709999999992,
      "v": 96
    },
    {
      "midi": 62,
      "hit": false,
      "t": 91693.55450000007,
      "d": 967.7419999999984,
      "v": 96
    },
    {
      "midi": 66,
      "hit": false,
      "t": 91693.55450000007,
      "d": 967.7419999999984,
      "v": 96
    },
    {
      "midi": 69,
      "hit": false,
      "t": 91693.55450000007,
      "d": 967.7419999999984,
      "v": 96
    },
    {
      "midi": 40,
      "hit": false,
      "t": 91693.5545000003,
      "d": 3145.161500000002,
      "v": 96
    },
    {
      "midi": 76,
      "hit": false,
      "t": 92903.23200000006,
      "d": 967.7419999999838,
      "v": 80
    },
    {
      "midi": 81,
      "hit": false,
      "t": 93024.19975000006,
      "d": 725.8064999999915,
      "v": 80
    },
    {
      "midi": 86,
      "hit": false,
      "t": 93145.16750000005,
      "d": 483.8709999999992,
      "v": 80
    },
    {
      "midi": 69,
      "hit": false,
      "t": 93870.97400000005,
      "d": 241.93549999999232,
      "v": 80
    },
    {
      "midi": 74,
      "hit": false,
      "t": 93870.97400000005,
      "d": 967.7419999999838,
      "v": 80
    },
    {
      "midi": 71,
      "hit": false,
      "t": 93991.94175000004,
      "d": 241.93549999999232,
      "v": 80
    },
    {
      "midi": 69,
      "hit": false,
      "t": 94233.87725000003,
      "d": 483.8709999999992,
      "v": 64
    },
    {
      "midi": 71,
      "hit": false,
      "t": 94354.84500000003,
      "d": 483.8709999999992,
      "v": 64
    },
    {
      "midi": 64,
      "hit": false,
      "t": 94838.71600000003,
      "d": 1088.7097499999945,
      "v": 96
    },
    {
      "midi": 67,
      "hit": false,
      "t": 94838.71600000003,
      "d": 1088.7097499999945,
      "v": 96
    },
    {
      "midi": 72,
      "hit": false,
      "t": 94838.71600000003,
      "d": 1088.7097499999945,
      "v": 96
    },
    {
      "midi": 55,
      "hit": false,
      "t": 94838.71600000026,
      "d": 1088.7097499999945,
      "v": 112
    },
    {
      "midi": 60,
      "hit": false,
      "t": 94838.71600000026,
      "d": 1088.7097499999945,
      "v": 112
    },
    {
      "midi": 64,
      "hit": false,
      "t": 94838.71600000026,
      "d": 1088.7097499999945,
      "v": 112
    },
    {
      "midi": 41,
      "hit": false,
      "t": 94838.7160000003,
      "d": 1209.6775000000052,
      "v": 96
    },
    {
      "midi": 62,
      "hit": false,
      "t": 96048.39350000002,
      "d": 362.903250000003,
      "v": 96
    },
    {
      "midi": 67,
      "hit": false,
      "t": 96048.39350000002,
      "d": 362.903250000003,
      "v": 96
    },
    {
      "midi": 71,
      "hit": false,
      "t": 96048.39350000002,
      "d": 362.903250000003,
      "v": 96
    },
    {
      "midi": 55,
      "hit": false,
      "t": 96048.39350000025,
      "d": 241.93550000000687,
      "v": 112
    },
    {
      "midi": 59,
      "hit": false,
      "t": 96048.39350000025,
      "d": 241.93550000000687,
      "v": 112
    },
    {
      "midi": 62,
      "hit": false,
      "t": 96048.39350000025,
      "d": 241.93550000000687,
      "v": 112
    },
    {
      "midi": 36,
      "hit": false,
      "t": 96048.39350000031,
      "d": 362.903250000003,
      "v": 96
    },
    {
      "midi": 64,
      "hit": false,
      "t": 96532.26450000002,
      "d": 967.7419999999984,
      "v": 96
    },
    {
      "midi": 67,
      "hit": false,
      "t": 96532.26450000002,
      "d": 967.7419999999984,
      "v": 96
    },
    {
      "midi": 72,
      "hit": false,
      "t": 96532.26450000002,
      "d": 967.7419999999984,
      "v": 96
    },
    {
      "midi": 55,
      "hit": false,
      "t": 96532.26450000027,
      "d": 2177.4195000000036,
      "v": 112
    },
    {
      "midi": 60,
      "hit": false,
      "t": 96532.26450000027,
      "d": 2177.4195000000036,
      "v": 112
    },
    {
      "midi": 64,
      "hit": false,
      "t": 96532.26450000027,
      "d": 2177.4195000000036,
      "v": 112
    },
    {
      "midi": 41,
      "hit": false,
      "t": 96532.26450000031,
      "d": 1935.4839999999967,
      "v": 96
    },
    {
      "midi": 72,
      "hit": false,
      "t": 97741.94200000002,
      "d": 483.8709999999992,
      "v": 112
    },
    {
      "midi": 64,
      "hit": false,
      "t": 97741.94200000002,
      "d": 967.7419999999984,
      "v": 96
    },
    {
      "midi": 67,
      "hit": false,
      "t": 97741.94200000002,
      "d": 967.7419999999984,
      "v": 112
    },
    {
      "midi": 72,
      "hit": false,
      "t": 98225.81300000002,
      "d": 483.8709999999992,
      "v": 96
    },
    {
      "midi": 76,
      "hit": false,
      "t": 98225.81300000002,
      "d": 483.8709999999992,
      "v": 112
    },
    {
      "midi": 79,
      "hit": false,
      "t": 98225.81300000002,
      "d": 483.8709999999992,
      "v": 112
    },
    {
      "midi": 76,
      "hit": false,
      "t": 98709.68400000002,
      "d": 241.93549999999232,
      "v": 96
    },
    {
      "midi": 54,
      "hit": false,
      "t": 98709.68400000027,
      "d": 1935.4839999999967,
      "v": 112
    },
    {
      "midi": 57,
      "hit": false,
      "t": 98709.68400000027,
      "d": 1935.4839999999967,
      "v": 112
    },
    {
      "midi": 62,
      "hit": false,
      "t": 98709.68400000027,
      "d": 1935.4839999999967,
      "v": 112
    },
    {
      "midi": 43,
      "hit": false,
      "t": 98709.68400000031,
      "d": 604.8387499999953,
      "v": 64
    },
    {
      "midi": 78,
      "hit": false,
      "t": 98830.65175000002,
      "d": 1330.6452500000014,
      "v": 96
    },
    {
      "midi": 55,
      "hit": false,
      "t": 99435.4905000003,
      "d": 120.96774999999616,
      "v": 64
    },
    {
      "midi": 55,
      "hit": false,
      "t": 99677.4260000003,
      "d": 483.8709999999992,
      "v": 64
    },
    {
      "midi": 69,
      "hit": false,
      "t": 99919.36150000001,
      "d": 241.93550000000687,
      "v": 96
    },
    {
      "midi": 74,
      "hit": false,
      "t": 99919.36150000001,
      "d": 241.93550000000687,
      "v": 96
    },
    {
      "midi": 66,
      "hit": false,
      "t": 99919.36150000001,
      "d": 483.87100000001374,
      "v": 96
    },
    {
      "midi": 43,
      "hit": false,
      "t": 100161.2970000003,
      "d": 241.93550000000687,
      "v": 64
    },
    {
      "midi": 60,
      "hit": false,
      "t": 100403.23250000003,
      "d": 241.93550000000687,
      "v": 80
    },
    {
      "midi": 67,
      "hit": false,
      "t": 100645.16800000003,
      "d": 967.7419999999984,
      "v": 96
    },
    {
      "midi": 72,
      "hit": false,
      "t": 100645.16800000003,
      "d": 967.7419999999984,
      "v": 96
    },
    {
      "midi": 76,
      "hit": false,
      "t": 100645.16800000003,
      "d": 967.7419999999984,
      "v": 96
    },
    {
      "midi": 55,
      "hit": false,
      "t": 100645.16800000027,
      "d": 1935.4839999999967,
      "v": 112
    },
    {
      "midi": 60,
      "hit": false,
      "t": 100645.16800000027,
      "d": 1935.4839999999967,
      "v": 112
    },
    {
      "midi": 64,
      "hit": false,
      "t": 100645.16800000027,
      "d": 1935.4839999999967,
      "v": 112
    },
    {
      "midi": 41,
      "hit": false,
      "t": 100645.16800000031,
      "d": 1935.4839999999967,
      "v": 64
    },
    {
      "midi": 62,
      "hit": false,
      "t": 101854.84550000004,
      "d": 241.93549999999232,
      "v": 96
    },
    {
      "midi": 67,
      "hit": false,
      "t": 101854.84550000004,
      "d": 241.93549999999232,
      "v": 80
    },
    {
      "midi": 60,
      "hit": false,
      "t": 101975.81325000004,
      "d": 241.93549999999232,
      "v": 80
    },
    {
      "midi": 65,
      "hit": false,
      "t": 101975.81325000004,
      "d": 241.93549999999232,
      "v": 80
    },
    {
      "midi": 62,
      "hit": false,
      "t": 102096.78100000003,
      "d": 241.93549999999232,
      "v": 96
    },
    {
      "midi": 67,
      "hit": false,
      "t": 102096.78100000003,
      "d": 483.8709999999992,
      "v": 80
    },
    {
      "midi": 64,
      "hit": false,
      "t": 102338.71650000002,
      "d": 241.93550000000687,
      "v": 96
    },
    {
      "midi": 55,
      "hit": false,
      "t": 102580.65200000003,
      "d": 725.806500000006,
      "v": 80
    },
    {
      "midi": 59,
      "hit": false,
      "t": 102580.65200000003,
      "d": 725.806500000006,
      "v": 80
    },
    {
      "midi": 62,
      "hit": false,
      "t": 102580.65200000003,
      "d": 725.806500000006,
      "v": 80
    },
    {
      "midi": 55,
      "hit": false,
      "t": 102580.65200000026,
      "d": 967.7419999999984,
      "v": 112
    },
    {
      "midi": 59,
      "hit": false,
      "t": 102580.65200000026,
      "d": 967.7419999999984,
      "v": 112
    },
    {
      "midi": 62,
      "hit": false,
      "t": 102580.65200000026,
      "d": 967.7419999999984,
      "v": 112
    },
    {
      "midi": 40,
      "hit": false,
      "t": 102580.65200000031,
      "d": 483.8709999999992,
      "v": 96
    },
    {
      "midi": 47,
      "hit": false,
      "t": 103306.45850000031,
      "d": 241.93550000000687,
      "v": 80
    },
    {
      "midi": 59,
      "hit": false,
      "t": 103548.39400000004,
      "d": 725.806500000006,
      "v": 80
    },
    {
      "midi": 62,
      "hit": false,
      "t": 103548.39400000004,
      "d": 725.806500000006,
      "v": 80
    },
    {
      "midi": 66,
      "hit": false,
      "t": 103548.39400000004,
      "d": 725.806500000006,
      "v": 80
    },
    {
      "midi": 59,
      "hit": false,
      "t": 103548.39400000026,
      "d": 967.7419999999984,
      "v": 112
    },
    {
      "midi": 62,
      "hit": false,
      "t": 103548.39400000026,
      "d": 967.7419999999984,
      "v": 112
    },
    {
      "midi": 66,
      "hit": false,
      "t": 103548.39400000026,
      "d": 967.7419999999984,
      "v": 112
    },
    {
      "midi": 43,
      "hit": false,
      "t": 103548.39400000032,
      "d": 483.8709999999992,
      "v": 96
    },
    {
      "midi": 50,
      "hit": false,
      "t": 104274.20050000033,
      "d": 241.93550000000687,
      "v": 80
    },
    {
      "midi": 60,
      "hit": false,
      "t": 104516.13600000006,
      "d": 322.5806666666613,
      "v": 80
    },
    {
      "midi": 64,
      "hit": false,
      "t": 104516.13600000006,
      "d": 322.5806666666613,
      "v": 80
    },
    {
      "midi": 67,
      "hit": false,
      "t": 104516.13600000006,
      "d": 322.5806666666613,
      "v": 80
    },
    {
      "midi": 71,
      "hit": false,
      "t": 104516.13600000006,
      "d": 322.5806666666613,
      "v": 80
    },
    {
      "midi": 59,
      "hit": false,
      "t": 104516.13600000026,
      "d": 967.7419999999984,
      "v": 112
    },
    {
      "midi": 64,
      "hit": false,
      "t": 104516.13600000026,
      "d": 967.7419999999984,
      "v": 112
    },
    {
      "midi": 67,
      "hit": false,
      "t": 104516.13600000026,
      "d": 967.7419999999984,
      "v": 112
    },
    {
      "midi": 36,
      "hit": false,
      "t": 104516.13600000033,
      "d": 967.7419999999984,
      "v": 80
    },
    {
      "midi": 57,
      "hit": false,
      "t": 104838.71666666672,
      "d": 322.5806666666613,
      "v": 112
    },
    {
      "midi": 69,
      "hit": false,
      "t": 104838.71666666672,
      "d": 322.5806666666613,
      "v": 112
    },
    {
      "midi": 55,
      "hit": false,
      "t": 105161.29733333338,
      "d": 322.5806666666613,
      "v": 96
    },
    {
      "midi": 67,
      "hit": false,
      "t": 105161.29733333338,
      "d": 322.5806666666613,
      "v": 96
    },
    {
      "midi": 54,
      "hit": false,
      "t": 105483.87800000004,
      "d": 967.7419999999984,
      "v": 96
    },
    {
      "midi": 66,
      "hit": false,
      "t": 105483.87800000004,
      "d": 967.7419999999984,
      "v": 96
    },
    {
      "midi": 57,
      "hit": false,
      "t": 105483.87800000026,
      "d": 967.7419999999984,
      "v": 112
    },
    {
      "midi": 62,
      "hit": false,
      "t": 105483.87800000026,
      "d": 967.7419999999984,
      "v": 112
    },
    {
      "midi": 66,
      "hit": false,
      "t": 105483.87800000026,
      "d": 967.7419999999984,
      "v": 112
    },
    {
      "midi": 35,
      "hit": false,
      "t": 105483.87800000033,
      "d": 967.7419999999984,
      "v": 80
    },
    {
      "midi": 55,
      "hit": false,
      "t": 106451.62000000004,
      "d": 725.806500000006,
      "v": 96
    },
    {
      "midi": 60,
      "hit": false,
      "t": 106451.62000000004,
      "d": 725.806500000006,
      "v": 96
    },
    {
      "midi": 64,
      "hit": false,
      "t": 106451.62000000004,
      "d": 725.806500000006,
      "v": 96
    },
    {
      "midi": 55,
      "hit": false,
      "t": 106451.62000000026,
      "d": 967.7419999999984,
      "v": 112
    },
    {
      "midi": 60,
      "hit": false,
      "t": 106451.62000000026,
      "d": 967.7419999999984,
      "v": 112
    },
    {
      "midi": 64,
      "hit": false,
      "t": 106451.62000000026,
      "d": 967.7419999999984,
      "v": 112
    },
    {
      "midi": 45,
      "hit": false,
      "t": 106451.62000000033,
      "d": 967.7419999999984,
      "v": 80
    },
    {
      "midi": 79,
      "hit": false,
      "t": 107177.42650000005,
      "d": 1209.6775000000198,
      "v": 96
    },
    {
      "midi": 76,
      "hit": false,
      "t": 107258.07166666671,
      "d": 1129.0323333333508,
      "v": 80
    },
    {
      "midi": 72,
      "hit": false,
      "t": 107338.71683333338,
      "d": 1048.3871666666819,
      "v": 80
    },
    {
      "midi": 57,
      "hit": false,
      "t": 107661.29750000006,
      "d": 362.903250000003,
      "v": 96
    },
    {
      "midi": 62,
      "hit": false,
      "t": 107661.29750000006,
      "d": 362.903250000003,
      "v": 96
    },
    {
      "midi": 66,
      "hit": false,
      "t": 107661.29750000006,
      "d": 362.903250000003,
      "v": 96
    },
    {
      "midi": 55,
      "hit": false,
      "t": 107661.29750000026,
      "d": 241.93550000000687,
      "v": 112
    },
    {
      "midi": 59,
      "hit": false,
      "t": 107661.29750000026,
      "d": 241.93550000000687,
      "v": 112
    },
    {
      "midi": 62,
      "hit": false,
      "t": 107661.29750000026,
      "d": 241.93550000000687,
      "v": 112
    },
    {
      "midi": 47,
      "hit": false,
      "t": 107661.29750000034,
      "d": 241.93550000000687,
      "v": 80
    },
    {
      "midi": 67,
      "hit": false,
      "t": 108145.16850000006,
      "d": 241.93550000000687,
      "v": 96
    },
    {
      "midi": 59,
      "hit": false,
      "t": 108145.16850000006,
      "d": 362.903250000003,
      "v": 96
    },
    {
      "midi": 64,
      "hit": false,
      "t": 108145.16850000006,
      "d": 362.903250000003,
      "v": 96
    },
    {
      "midi": 55,
      "hit": false,
      "t": 108145.16850000028,
      "d": 725.806500000006,
      "v": 112
    },
    {
      "midi": 60,
      "hit": false,
      "t": 108145.16850000028,
      "d": 725.806500000006,
      "v": 112
    },
    {
      "midi": 64,
      "hit": false,
      "t": 108145.16850000028,
      "d": 725.806500000006,
      "v": 112
    },
    {
      "midi": 48,
      "hit": false,
      "t": 108145.16850000035,
      "d": 967.7419999999984,
      "v": 80
    },
    {
      "midi": 60,
      "hit": false,
      "t": 108629.03950000006,
      "d": 241.93550000000687,
      "v": 80
    },
    {
      "midi": 55,
      "hit": false,
      "t": 108870.97500000006,
      "d": 241.93550000000687,
      "v": 80
    },
    {
      "midi": 55,
      "hit": false,
      "t": 109112.91050000007,
      "d": 181.4516250000015,
      "v": 80
    },
    {
      "midi": 59,
      "hit": false,
      "t": 109112.91050000007,
      "d": 181.4516250000015,
      "v": 80
    },
    {
      "midi": 64,
      "hit": false,
      "t": 109112.91050000007,
      "d": 181.4516250000015,
      "v": 80
    },
    {
      "midi": 55,
      "hit": false,
      "t": 109112.91050000029,
      "d": 181.4516250000015,
      "v": 112
    },
    {
      "midi": 60,
      "hit": false,
      "t": 109112.91050000029,
      "d": 181.4516250000015,
      "v": 112
    },
    {
      "midi": 64,
      "hit": false,
      "t": 109112.91050000029,
      "d": 181.4516250000015,
      "v": 112
    },
    {
      "midi": 36,
      "hit": false,
      "t": 109112.91050000035,
      "d": 241.93550000000687,
      "v": 80
    },
    {
      "midi": 59,
      "hit": false,
      "t": 109354.84600000008,
      "d": 483.8709999999992,
      "v": 96
    },
    {
      "midi": 64,
      "hit": false,
      "t": 109354.84600000008,
      "d": 483.8709999999992,
      "v": 96
    },
    {
      "midi": 55,
      "hit": false,
      "t": 109354.8460000003,
      "d": 967.7419999999984,
      "v": 112
    },
    {
      "midi": 60,
      "hit": false,
      "t": 109354.8460000003,
      "d": 967.7419999999984,
      "v": 112
    },
    {
      "midi": 64,
      "hit": false,
      "t": 109354.8460000003,
      "d": 967.7419999999984,
      "v": 112
    },
    {
      "midi": 40,
      "hit": false,
      "t": 109354.84600000035,
      "d": 967.7419999999984,
      "v": 80
    },
    {
      "midi": 55,
      "hit": false,
      "t": 109838.71700000008,
      "d": 241.93550000000687,
      "v": 96
    },
    {
      "midi": 52,
      "hit": false,
      "t": 110080.65250000008,
      "d": 241.93550000000687,
      "v": 96
    },
    {
      "midi": 55,
      "hit": false,
      "t": 110322.58800000009,
      "d": 1088.7097499999945,
      "v": 96
    },
    {
      "midi": 60,
      "hit": false,
      "t": 110322.58800000009,
      "d": 1088.7097499999945,
      "v": 96
    },
    {
      "midi": 64,
      "hit": false,
      "t": 110322.58800000009,
      "d": 1088.7097499999945,
      "v": 96
    },
    {
      "midi": 55,
      "hit": false,
      "t": 110322.5880000003,
      "d": 967.7419999999984,
      "v": 112
    },
    {
      "midi": 60,
      "hit": false,
      "t": 110322.5880000003,
      "d": 967.7419999999984,
      "v": 112
    },
    {
      "midi": 64,
      "hit": false,
      "t": 110322.5880000003,
      "d": 967.7419999999984,
      "v": 112
    },
    {
      "midi": 45,
      "hit": false,
      "t": 110322.58800000035,
      "d": 967.7419999999984,
      "v": 80
    },
    {
      "midi": 62,
      "hit": false,
      "t": 111532.26550000008,
      "d": 241.93550000000687,
      "v": 96
    },
    {
      "midi": 66,
      "hit": false,
      "t": 111532.26550000008,
      "d": 241.93550000000687,
      "v": 96
    },
    {
      "midi": 69,
      "hit": false,
      "t": 111532.26550000008,
      "d": 241.93550000000687,
      "v": 96
    },
    {
      "midi": 55,
      "hit": false,
      "t": 111532.2655000003,
      "d": 241.93550000000687,
      "v": 112
    },
    {
      "midi": 59,
      "hit": false,
      "t": 111532.2655000003,
      "d": 241.93550000000687,
      "v": 112
    },
    {
      "midi": 62,
      "hit": false,
      "t": 111532.2655000003,
      "d": 241.93550000000687,
      "v": 112
    },
    {
      "midi": 43,
      "hit": false,
      "t": 111532.26550000036,
      "d": 241.93550000000687,
      "v": 80
    },
    {
      "midi": 60,
      "hit": false,
      "t": 112016.1365000001,
      "d": 967.7419999999984,
      "v": 96
    },
    {
      "midi": 64,
      "hit": false,
      "t": 112016.1365000001,
      "d": 967.7419999999984,
      "v": 96
    },
    {
      "midi": 67,
      "hit": false,
      "t": 112016.1365000001,
      "d": 967.7419999999984,
      "v": 96
    },
    {
      "midi": 55,
      "hit": false,
      "t": 112016.13650000031,
      "d": 2177.4195000000036,
      "v": 112
    },
    {
      "midi": 60,
      "hit": false,
      "t": 112016.13650000031,
      "d": 2177.4195000000036,
      "v": 112
    },
    {
      "midi": 64,
      "hit": false,
      "t": 112016.13650000031,
      "d": 2177.4195000000036,
      "v": 112
    },
    {
      "midi": 41,
      "hit": false,
      "t": 112016.13650000037,
      "d": 2177.419500000018,
      "v": 80
    },
    {
      "midi": 79,
      "hit": false,
      "t": 112983.8785000001,
      "d": 181.4516250000015,
      "v": 96
    },
    {
      "midi": 84,
      "hit": false,
      "t": 112983.8785000001,
      "d": 181.4516250000015,
      "v": 96
    },
    {
      "midi": 88,
      "hit": false,
      "t": 112983.8785000001,
      "d": 181.4516250000015,
      "v": 96
    },
    {
      "midi": 79,
      "hit": false,
      "t": 113225.8140000001,
      "d": 967.7419999999984,
      "v": 96
    },
    {
      "midi": 84,
      "hit": false,
      "t": 113225.8140000001,
      "d": 967.7419999999984,
      "v": 96
    },
    {
      "midi": 88,
      "hit": false,
      "t": 113225.8140000001,
      "d": 967.7419999999984,
      "v": 96
    },
    {
      "midi": 53,
      "hit": false,
      "t": 113709.68500000038,
      "d": 241.93550000000687,
      "v": 80
    },
    {
      "midi": 48,
      "hit": false,
      "t": 113951.62050000038,
      "d": 241.93550000000687,
      "v": 80
    },
    {
      "midi": 62,
      "hit": false,
      "t": 114193.5560000001,
      "d": 483.8709999999992,
      "v": 96
    },
    {
      "midi": 66,
      "hit": false,
      "t": 114193.5560000001,
      "d": 483.8709999999992,
      "v": 96
    },
    {
      "midi": 69,
      "hit": false,
      "t": 114193.5560000001,
      "d": 483.8709999999992,
      "v": 96
    },
    {
      "midi": 54,
      "hit": false,
      "t": 114193.55600000032,
      "d": 483.8709999999992,
      "v": 112
    },
    {
      "midi": 57,
      "hit": false,
      "t": 114193.55600000032,
      "d": 483.8709999999992,
      "v": 112
    },
    {
      "midi": 62,
      "hit": false,
      "t": 114193.55600000032,
      "d": 483.8709999999992,
      "v": 112
    },
    {
      "midi": 40,
      "hit": false,
      "t": 114193.55600000039,
      "d": 483.8709999999992,
      "v": 96
    },
    {
      "midi": 62,
      "hit": false,
      "t": 114919.3625000001,
      "d": 967.7419999999984,
      "v": 96
    },
    {
      "midi": 66,
      "hit": false,
      "t": 114919.3625000001,
      "d": 967.7419999999984,
      "v": 96
    },
    {
      "midi": 69,
      "hit": false,
      "t": 114919.3625000001,
      "d": 967.7419999999984,
      "v": 96
    },
    {
      "midi": 54,
      "hit": false,
      "t": 114919.36250000032,
      "d": 2903.225999999995,
      "v": 112
    },
    {
      "midi": 57,
      "hit": false,
      "t": 114919.36250000032,
      "d": 2903.225999999995,
      "v": 112
    },
    {
      "midi": 62,
      "hit": false,
      "t": 114919.36250000032,
      "d": 2903.225999999995,
      "v": 112
    },
    {
      "midi": 40,
      "hit": false,
      "t": 114919.3625000004,
      "d": 3145.161500000002,
      "v": 96
    },
    {
      "midi": 86,
      "hit": false,
      "t": 115887.1045000001,
      "d": 967.7420000000129,
      "v": 96
    },
    {
      "midi": 83,
      "hit": false,
      "t": 115967.74966666677,
      "d": 967.7420000000129,
      "v": 80
    },
    {
      "midi": 81,
      "hit": false,
      "t": 116048.39483333344,
      "d": 967.7420000000129,
      "v": 80
    },
    {
      "midi": 66,
      "hit": false,
      "t": 116129.04000000011,
      "d": 967.7420000000129,
      "v": 64
    },
    {
      "midi": 69,
      "hit": false,
      "t": 116129.04000000011,
      "d": 967.7420000000129,
      "v": 64
    },
    {
      "midi": 74,
      "hit": false,
      "t": 116129.04000000011,
      "d": 967.7420000000129,
      "v": 80
    },
    {
      "midi": 64,
      "hit": false,
      "t": 117096.78200000012,
      "d": 181.4516250000015,
      "v": 96
    },
    {
      "midi": 64,
      "hit": false,
      "t": 117338.71750000013,
      "d": 362.903250000003,
      "v": 96
    },
    {
      "midi": 57,
      "hit": false,
      "t": 117701.62075000013,
      "d": 120.96774999999616,
      "v": 64
    },
    {
      "midi": 62,
      "hit": false,
      "t": 117822.58850000013,
      "d": 241.93550000000687,
      "v": 80
    },
    {
      "midi": 64,
      "hit": false,
      "t": 118064.52400000014,
      "d": 1088.7097499999945,
      "v": 96
    },
    {
      "midi": 67,
      "hit": false,
      "t": 118064.52400000014,
      "d": 1088.7097499999945,
      "v": 96
    },
    {
      "midi": 72,
      "hit": false,
      "t": 118064.52400000014,
      "d": 1088.7097499999945,
      "v": 96
    },
    {
      "midi": 55,
      "hit": false,
      "t": 118064.52400000033,
      "d": 1088.7097499999945,
      "v": 112
    },
    {
      "midi": 60,
      "hit": false,
      "t": 118064.52400000033,
      "d": 1088.7097499999945,
      "v": 112
    },
    {
      "midi": 64,
      "hit": false,
      "t": 118064.52400000033,
      "d": 1088.7097499999945,
      "v": 112
    },
    {
      "midi": 41,
      "hit": false,
      "t": 118064.5240000004,
      "d": 1209.6775000000052,
      "v": 96
    },
    {
      "midi": 62,
      "hit": false,
      "t": 119274.20150000013,
      "d": 362.903250000003,
      "v": 96
    },
    {
      "midi": 67,
      "hit": false,
      "t": 119274.20150000013,
      "d": 362.903250000003,
      "v": 96
    },
    {
      "midi": 71,
      "hit": false,
      "t": 119274.20150000013,
      "d": 362.903250000003,
      "v": 96
    },
    {
      "midi": 55,
      "hit": false,
      "t": 119274.20150000032,
      "d": 241.93550000000687,
      "v": 112
    },
    {
      "midi": 59,
      "hit": false,
      "t": 119274.20150000032,
      "d": 241.93550000000687,
      "v": 112
    },
    {
      "midi": 62,
      "hit": false,
      "t": 119274.20150000032,
      "d": 241.93550000000687,
      "v": 112
    },
    {
      "midi": 36,
      "hit": false,
      "t": 119274.2015000004,
      "d": 362.903250000003,
      "v": 96
    },
    {
      "midi": 64,
      "hit": false,
      "t": 119758.07250000013,
      "d": 967.7419999999984,
      "v": 96
    },
    {
      "midi": 67,
      "hit": false,
      "t": 119758.07250000013,
      "d": 967.7419999999984,
      "v": 96
    },
    {
      "midi": 72,
      "hit": false,
      "t": 119758.07250000013,
      "d": 967.7419999999984,
      "v": 96
    },
    {
      "midi": 55,
      "hit": false,
      "t": 119758.07250000033,
      "d": 2177.4195000000036,
      "v": 112
    },
    {
      "midi": 60,
      "hit": false,
      "t": 119758.07250000033,
      "d": 2177.4195000000036,
      "v": 112
    },
    {
      "midi": 64,
      "hit": false,
      "t": 119758.07250000033,
      "d": 2177.4195000000036,
      "v": 112
    },
    {
      "midi": 41,
      "hit": false,
      "t": 119758.0725000004,
      "d": 1935.4840000000113,
      "v": 96
    },
    {
      "midi": 64,
      "hit": false,
      "t": 120725.81450000012,
      "d": 241.93550000000687,
      "v": 64
    },
    {
      "midi": 60,
      "hit": false,
      "t": 120725.81450000012,
      "d": 725.806500000006,
      "v": 64
    },
    {
      "midi": 52,
      "hit": false,
      "t": 120725.8145000004,
      "d": 241.93550000000687,
      "v": 80
    },
    {
      "midi": 67,
      "hit": false,
      "t": 120967.75000000013,
      "d": 967.7420000000129,
      "v": 64
    },
    {
      "midi": 55,
      "hit": false,
      "t": 120967.75000000041,
      "d": 483.8709999999992,
      "v": 80
    },
    {
      "midi": 64,
      "hit": false,
      "t": 121451.62100000013,
      "d": 483.87100000001374,
      "v": 64
    },
    {
      "midi": 52,
      "hit": false,
      "t": 121451.6210000004,
      "d": 241.93550000000687,
      "v": 80
    },
    {
      "midi": 59,
      "hit": false,
      "t": 121693.55650000014,
      "d": 241.93550000000687,
      "v": 64
    },
    {
      "midi": 47,
      "hit": false,
      "t": 121693.55650000041,
      "d": 241.93550000000687,
      "v": 80
    },
    {
      "midi": 40,
      "hit": false,
      "t": 121935.49200000042,
      "d": 1935.4839999999967,
      "v": 64
    },
    {
      "midi": 57,
      "hit": false,
      "t": 122419.36300000014,
      "d": 60.483875000005355,
      "v": 64
    },
    {
      "midi": 62,
      "hit": false,
      "t": 122419.36300000014,
      "d": 60.483875000005355,
      "v": 64
    },
    {
      "midi": 67,
      "hit": false,
      "t": 122419.36300000014,
      "d": 60.483875000005355,
      "v": 64
    },
    {
      "midi": 57,
      "hit": false,
      "t": 123145.16950000015,
      "d": 60.483875000005355,
      "v": 64
    },
    {
      "midi": 62,
      "hit": false,
      "t": 123145.16950000015,
      "d": 60.483875000005355,
      "v": 64
    },
    {
      "midi": 67,
      "hit": false,
      "t": 123145.16950000015,
      "d": 60.483875000005355,
      "v": 64
    },
    {
      "midi": 57,
      "hit": false,
      "t": 123629.04050000015,
      "d": 967.7420000000129,
      "v": 64
    },
    {
      "midi": 62,
      "hit": false,
      "t": 123629.04050000015,
      "d": 967.7420000000129,
      "v": 64
    },
    {
      "midi": 67,
      "hit": false,
      "t": 123629.04050000015,
      "d": 967.7420000000129,
      "v": 64
    },
    {
      "midi": 71,
      "hit": false,
      "t": 124354.84700000015,
      "d": 483.87100000001374,
      "v": 80
    },
    {
      "midi": 74,
      "hit": false,
      "t": 124516.13733333349,
      "d": 483.8709999999992,
      "v": 80
    },
    {
      "midi": 69,
      "hit": false,
      "t": 124677.42766666683,
      "d": 302.4193749999977,
      "v": 80
    },
    {
      "midi": 69,
      "hit": false,
      "t": 125000.00833333349,
      "d": 483.87100000001374,
      "v": 80
    },
    {
      "midi": 67,
      "hit": false,
      "t": 125161.29866666683,
      "d": 483.87100000001374,
      "v": 80
    },
    {
      "midi": 62,
      "hit": false,
      "t": 125322.58900000017,
      "d": 483.87100000001374,
      "v": 80
    },
    {
      "midi": 59,
      "hit": false,
      "t": 125564.52450000017,
      "d": 483.87100000001374,
      "v": 64
    },
    {
      "midi": 40,
      "hit": false,
      "t": 125806.46000000041,
      "d": 1935.4839999999967,
      "v": 64
    },
    {
      "midi": 57,
      "hit": false,
      "t": 126290.3310000002,
      "d": 60.483875000005355,
      "v": 64
    },
    {
      "midi": 62,
      "hit": false,
      "t": 126290.3310000002,
      "d": 60.483875000005355,
      "v": 64
    },
    {
      "midi": 67,
      "hit": false,
      "t": 126290.3310000002,
      "d": 60.483875000005355,
      "v": 64
    },
    {
      "midi": 57,
      "hit": false,
      "t": 127016.1375000002,
      "d": 60.483875000005355,
      "v": 64
    },
    {
      "midi": 62,
      "hit": false,
      "t": 127016.1375000002,
      "d": 60.483875000005355,
      "v": 64
    },
    {
      "midi": 67,
      "hit": false,
      "t": 127016.1375000002,
      "d": 60.483875000005355,
      "v": 64
    },
    {
      "midi": 57,
      "hit": false,
      "t": 127500.0085000002,
      "d": 483.8709999999992,
      "v": 64
    },
    {
      "midi": 62,
      "hit": false,
      "t": 127500.0085000002,
      "d": 483.8709999999992,
      "v": 64
    },
    {
      "midi": 67,
      "hit": false,
      "t": 127500.0085000002,
      "d": 483.8709999999992,
      "v": 64
    },
    {
      "midi": 71,
      "hit": false,
      "t": 128467.7505000002,
      "d": 1209.6775000000052,
      "v": 96
    },
    {
      "midi": 83,
      "hit": false,
      "t": 128467.7505000002,
      "d": 1209.6775000000052,
      "v": 96
    },
    {
      "midi": 66,
      "hit": false,
      "t": 128951.6215000002,
      "d": 725.806500000006,
      "v": 96
    },
    {
      "midi": 78,
      "hit": false,
      "t": 128951.6215000002,
      "d": 725.806500000006,
      "v": 96
    },
    {
      "midi": 55,
      "hit": false,
      "t": 129677.4280000002,
      "d": 1451.6129999999976,
      "v": 64
    },
    {
      "midi": 59,
      "hit": false,
      "t": 129677.4280000002,
      "d": 1935.4840000000113,
      "v": 64
    },
    {
      "midi": 64,
      "hit": false,
      "t": 129677.4280000002,
      "d": 1935.4840000000113,
      "v": 64
    },
    {
      "midi": 40,
      "hit": false,
      "t": 129677.42800000041,
      "d": 1935.4840000000113,
      "v": 64
    },
    {
      "midi": 67,
      "hit": false,
      "t": 131129.0410000002,
      "d": 483.87100000001374,
      "v": 112
    },
    {
      "midi": 62,
      "hit": false,
      "t": 131612.91200000021,
      "d": 1935.4839999999967,
      "v": 64
    },
    {
      "midi": 66,
      "hit": false,
      "t": 131612.91200000021,
      "d": 1935.4839999999967,
      "v": 64
    },
    {
      "midi": 40,
      "hit": false,
      "t": 131612.91200000042,
      "d": 1935.4839999999967,
      "v": 64
    },
    {
      "midi": 69,
      "hit": false,
      "t": 132822.5895000002,
      "d": 483.87100000001374,
      "v": 96
    },
    {
      "midi": 60,
      "hit": false,
      "t": 133548.3960000002,
      "d": 1935.4839999999967,
      "v": 64
    },
    {
      "midi": 36,
      "hit": false,
      "t": 133548.39600000042,
      "d": 1935.4839999999967,
      "v": 64
    },
    {
      "midi": 48,
      "hit": false,
      "t": 134758.0735000004,
      "d": 483.87100000001374,
      "v": 64
    },
    {
      "midi": 55,
      "hit": false,
      "t": 135000.00900000022,
      "d": 483.87099999998463,
      "v": 64
    },
    {
      "midi": 62,
      "hit": false,
      "t": 135423.39612500023,
      "d": 1935.4839999999676,
      "v": 64
    },
    {
      "midi": 64,
      "hit": false,
      "t": 135453.63806250022,
      "d": 30.241937499988126,
      "v": 64
    },
    {
      "midi": 66,
      "hit": false,
      "t": 135483.8800000002,
      "d": 1935.4839999999967,
      "v": 64
    },
    {
      "midi": 40,
      "hit": false,
      "t": 135483.8800000004,
      "d": 1209.6774999999907,
      "v": 64
    },
    {
      "midi": 69,
      "hit": false,
      "t": 136209.68650000019,
      "d": 483.87100000001374,
      "v": 96
    },
    {
      "midi": 78,
      "hit": false,
      "t": 136209.68650000019,
      "d": 483.87100000001374,
      "v": 96
    },
    {
      "midi": 47,
      "hit": false,
      "t": 136209.68650000042,
      "d": 241.93549999999232,
      "v": 64
    },
    {
      "midi": 52,
      "hit": false,
      "t": 136451.6220000004,
      "d": 967.7419999999984,
      "v": 64
    },
    {
      "midi": 74,
      "hit": false,
      "t": 136693.5575000002,
      "d": 725.806500000006,
      "v": 96
    },
    {
      "midi": 81,
      "hit": false,
      "t": 136693.5575000002,
      "d": 725.806500000006,
      "v": 96
    },
    {
      "midi": 64,
      "hit": false,
      "t": 137419.3640000002,
      "d": 483.87100000001374,
      "v": 64
    },
    {
      "midi": 72,
      "hit": false,
      "t": 137419.3640000002,
      "d": 483.87100000001374,
      "v": 64
    },
    {
      "midi": 79,
      "hit": false,
      "t": 137419.3640000002,
      "d": 483.87100000001374,
      "v": 64
    },
    {
      "midi": 36,
      "hit": false,
      "t": 137419.3640000004,
      "d": 1451.613000000012,
      "v": 64
    },
    {
      "midi": 48,
      "hit": false,
      "t": 138145.1705000002,
      "d": 120.96775000001071,
      "v": 64
    },
    {
      "midi": 48,
      "hit": false,
      "t": 138387.10600000023,
      "d": 241.93549999999232,
      "v": 64
    },
    {
      "midi": 55,
      "hit": false,
      "t": 138629.04150000022,
      "d": 241.93549999999232,
      "v": 64
    },
    {
      "midi": 67,
      "hit": false,
      "t": 138870.97700000022,
      "d": 241.93549999999232,
      "v": 64
    },
    {
      "midi": 55,
      "hit": false,
      "t": 138870.97700000042,
      "d": 241.93549999999232,
      "v": 64
    },
    {
      "midi": 55,
      "hit": false,
      "t": 139112.9125000002,
      "d": 241.93549999999232,
      "v": 64
    },
    {
      "midi": 47,
      "hit": false,
      "t": 139112.9125000004,
      "d": 241.93549999999232,
      "v": 64
    },
    {
      "midi": 59,
      "hit": false,
      "t": 139354.8480000002,
      "d": 1935.4839999999967,
      "v": 64
    },
    {
      "midi": 62,
      "hit": false,
      "t": 139354.8480000002,
      "d": 1935.4839999999967,
      "v": 64
    },
    {
      "midi": 67,
      "hit": false,
      "t": 139354.8480000002,
      "d": 1935.4839999999967,
      "v": 64
    },
    {
      "midi": 52,
      "hit": false,
      "t": 139354.8480000004,
      "d": 443.54841666665743,
      "v": 64
    },
    {
      "midi": 60,
      "hit": false,
      "t": 141290.3320000002,
      "d": 483.87100000001374,
      "v": 64
    },
    {
      "midi": 64,
      "hit": false,
      "t": 141290.3320000002,
      "d": 483.87100000001374,
      "v": 64
    },
    {
      "midi": 67,
      "hit": false,
      "t": 141290.3320000002,
      "d": 483.87100000001374,
      "v": 64
    },
    {
      "midi": 45,
      "hit": false,
      "t": 141290.3320000004,
      "d": 1451.613000000012,
      "v": 64
    },
    {
      "midi": 62,
      "hit": false,
      "t": 141774.2030000002,
      "d": 241.93549999999232,
      "v": 96
    },
    {
      "midi": 64,
      "hit": false,
      "t": 142016.1385000002,
      "d": 483.87100000001374,
      "v": 96
    },
    {
      "midi": 67,
      "hit": false,
      "t": 142500.00950000022,
      "d": 483.87099999998463,
      "v": 112
    },
    {
      "midi": 64,
      "hit": false,
      "t": 142741.9450000002,
      "d": 483.87099999998463,
      "v": 64
    },
    {
      "midi": 57,
      "hit": false,
      "t": 142983.8805000002,
      "d": 967.7419999999984,
      "v": 80
    },
    {
      "midi": 62,
      "hit": false,
      "t": 142983.8805000002,
      "d": 967.7419999999984,
      "v": 80
    },
    {
      "midi": 66,
      "hit": false,
      "t": 142983.8805000002,
      "d": 967.7419999999984,
      "v": 80
    },
    {
      "midi": 47,
      "hit": false,
      "t": 143225.81600000043,
      "d": 483.87100000001374,
      "v": 64
    },
    {
      "midi": 54,
      "hit": false,
      "t": 143467.7515000002,
      "d": 967.7419999999693,
      "v": 64
    },
    {
      "midi": 55,
      "hit": false,
      "t": 144032.26766666686,
      "d": 967.7419999999693,
      "v": 64
    },
    {
      "midi": 60,
      "hit": false,
      "t": 144112.9128333335,
      "d": 967.7419999999693,
      "v": 64
    },
    {
      "midi": 64,
      "hit": false,
      "t": 144193.55800000016,
      "d": 967.7419999999693,
      "v": 64
    },
    {
      "midi": 45,
      "hit": false,
      "t": 144193.55800000046,
      "d": 483.87100000001374,
      "v": 64
    },
    {
      "midi": 55,
      "hit": false,
      "t": 144677.42900000047,
      "d": 483.87100000001374,
      "v": 80
    },
    {
      "midi": 67,
      "hit": false,
      "t": 145161.30000000013,
      "d": 967.7419999999984,
      "v": 64
    },
    {
      "midi": 71,
      "hit": false,
      "t": 145161.30000000013,
      "d": 967.7419999999984,
      "v": 64
    },
    {
      "midi": 74,
      "hit": false,
      "t": 145161.30000000013,
      "d": 967.7419999999984,
      "v": 80
    },
    {
      "midi": 43,
      "hit": false,
      "t": 145161.30000000048,
      "d": 1935.4839999999967,
      "v": 64
    },
    {
      "midi": 62,
      "hit": false,
      "t": 146370.97750000012,
      "d": 483.87099999998463,
      "v": 96
    },
    {
      "midi": 74,
      "hit": false,
      "t": 146612.91300000012,
      "d": 483.87099999998463,
      "v": 96
    },
    {
      "midi": 55,
      "hit": false,
      "t": 147096.7840000001,
      "d": 483.87100000001374,
      "v": 64
    },
    {
      "midi": 52,
      "hit": false,
      "t": 147096.7840000001,
      "d": 967.7419999999984,
      "v": 64
    },
    {
      "midi": 60,
      "hit": false,
      "t": 147096.7840000001,
      "d": 967.7419999999984,
      "v": 64
    },
    {
      "midi": 45,
      "hit": false,
      "t": 147096.78400000048,
      "d": 1935.4839999999967,
      "v": 64
    },
    {
      "midi": 55,
      "hit": false,
      "t": 147822.5905000001,
      "d": 483.87099999998463,
      "v": 64
    },
    {
      "midi": 64,
      "hit": false,
      "t": 148306.4615000001,
      "d": 725.806500000006,
      "v": 80
    },
    {
      "midi": 67,
      "hit": false,
      "t": 148790.3325000001,
      "d": 967.7419999999984,
      "v": 80
    },
    {
      "midi": 59,
      "hit": false,
      "t": 149032.2680000001,
      "d": 967.7419999999984,
      "v": 64
    },
    {
      "midi": 62,
      "hit": false,
      "t": 149032.2680000001,
      "d": 967.7419999999984,
      "v": 64
    },
    {
      "midi": 36,
      "hit": false,
      "t": 149032.26800000048,
      "d": 1935.4839999999967,
      "v": 64
    },
    {
      "midi": 64,
      "hit": false,
      "t": 150241.9455000001,
      "d": 241.93549999999232,
      "v": 80
    },
    {
      "midi": 55,
      "hit": false,
      "t": 150241.9455000001,
      "d": 725.806500000006,
      "v": 64
    },
    {
      "midi": 67,
      "hit": false,
      "t": 150483.88100000008,
      "d": 483.87100000001374,
      "v": 80
    },
    {
      "midi": 59,
      "hit": false,
      "t": 150967.7520000001,
      "d": 1935.484000000055,
      "v": 64
    },
    {
      "midi": 47,
      "hit": false,
      "t": 150967.75200000047,
      "d": 1935.4839999999967,
      "v": 64
    },
    {
      "midi": 67,
      "hit": false,
      "t": 151290.33266666677,
      "d": 967.7420000000275,
      "v": 96
    },
    {
      "midi": 66,
      "hit": false,
      "t": 151612.91333333345,
      "d": 322.5806666666758,
      "v": 96
    },
    {
      "midi": 66,
      "hit": false,
      "t": 152258.0746666668,
      "d": 322.5806666666758,
      "v": 96
    },
    {
      "midi": 62,
      "hit": false,
      "t": 152580.65533333347,
      "d": 322.5806666666758,
      "v": 96
    },
    {
      "midi": 59,
      "hit": false,
      "t": 152903.23600000015,
      "d": 967.7420000000275,
      "v": 96
    },
    {
      "midi": 45,
      "hit": false,
      "t": 152903.23600000047,
      "d": 1935.4839999999967,
      "v": 64
    },
    {
      "midi": 60,
      "hit": false,
      "t": 153225.81666666683,
      "d": 967.7420000000275,
      "v": 96
    },
    {
      "midi": 52,
      "hit": false,
      "t": 153870.97800000018,
      "d": 967.7419999999984,
      "v": 80
    },
    {
      "midi": 55,
      "hit": false,
      "t": 154354.8490000002,
      "d": 161.2903333333379,
      "v": 64
    },
    {
      "midi": 47,
      "hit": false,
      "t": 154596.78450000018,
      "d": 241.93549999999232,
      "v": 64
    },
    {
      "midi": 59,
      "hit": false,
      "t": 154838.72000000018,
      "d": 483.87100000001374,
      "v": 64
    },
    {
      "midi": 55,
      "hit": false,
      "t": 154838.72000000018,
      "d": 967.7419999999984,
      "v": 64
    },
    {
      "midi": 62,
      "hit": false,
      "t": 154838.72000000018,
      "d": 967.7419999999984,
      "v": 64
    },
    {
      "midi": 52,
      "hit": false,
      "t": 154838.72000000047,
      "d": 1935.4839999999967,
      "v": 64
    },
    {
      "midi": 59,
      "hit": false,
      "t": 155564.52650000018,
      "d": 967.7419999999984,
      "v": 96
    },
    {
      "midi": 71,
      "hit": false,
      "t": 155564.52650000018,
      "d": 967.7419999999984,
      "v": 96
    },
    {
      "midi": 55,
      "hit": false,
      "t": 156048.39750000017,
      "d": 725.806500000006,
      "v": 96
    },
    {
      "midi": 67,
      "hit": false,
      "t": 156048.39750000017,
      "d": 725.806500000006,
      "v": 96
    },
    {
      "midi": 55,
      "hit": false,
      "t": 156774.20400000017,
      "d": 604.8387499999953,
      "v": 80
    },
    {
      "midi": 60,
      "hit": false,
      "t": 156774.20400000017,
      "d": 604.8387499999953,
      "v": 80
    },
    {
      "midi": 64,
      "hit": false,
      "t": 156774.20400000017,
      "d": 604.8387499999953,
      "v": 80
    },
    {
      "midi": 50,
      "hit": false,
      "t": 156774.20400000046,
      "d": 967.7419999999984,
      "v": 80
    },
    {
      "midi": 60,
      "hit": false,
      "t": 157500.01050000018,
      "d": 967.7419999999984,
      "v": 96
    },
    {
      "midi": 64,
      "hit": false,
      "t": 157500.01050000018,
      "d": 967.7419999999984,
      "v": 96
    },
    {
      "midi": 67,
      "hit": false,
      "t": 157500.01050000018,
      "d": 967.7419999999984,
      "v": 96
    },
    {
      "midi": 50,
      "hit": false,
      "t": 157983.88150000045,
      "d": 120.96775000001071,
      "v": 80
    },
    {
      "midi": 64,
      "hit": false,
      "t": 158467.75250000018,
      "d": 483.87100000001374,
      "v": 96
    },
    {
      "midi": 67,
      "hit": false,
      "t": 158467.75250000018,
      "d": 483.87100000001374,
      "v": 96
    },
    {
      "midi": 69,
      "hit": false,
      "t": 158467.75250000018,
      "d": 483.87100000001374,
      "v": 96
    },
    {
      "midi": 50,
      "hit": false,
      "t": 158467.75250000047,
      "d": 725.806500000006,
      "v": 96
    },
    {
      "midi": 64,
      "hit": false,
      "t": 158951.6235000002,
      "d": 483.87100000001374,
      "v": 96
    },
    {
      "midi": 67,
      "hit": false,
      "t": 158951.6235000002,
      "d": 483.87100000001374,
      "v": 96
    },
    {
      "midi": 71,
      "hit": false,
      "t": 158951.6235000002,
      "d": 483.87100000001374,
      "v": 96
    },
    {
      "midi": 64,
      "hit": false,
      "t": 159435.4945000002,
      "d": 483.87100000001374,
      "v": 112
    },
    {
      "midi": 67,
      "hit": false,
      "t": 159435.4945000002,
      "d": 483.87100000001374,
      "v": 112
    },
    {
      "midi": 72,
      "hit": false,
      "t": 159435.4945000002,
      "d": 483.87100000001374,
      "v": 112
    },
    {
      "midi": 50,
      "hit": false,
      "t": 159435.49450000047,
      "d": 120.96775000001071,
      "v": 96
    },
    {
      "midi": 64,
      "hit": false,
      "t": 159919.36550000022,
      "d": 725.806500000006,
      "v": 112
    },
    {
      "midi": 67,
      "hit": false,
      "t": 159919.36550000022,
      "d": 725.806500000006,
      "v": 112
    },
    {
      "midi": 74,
      "hit": false,
      "t": 159919.36550000022,
      "d": 725.806500000006,
      "v": 112
    },
    {
      "midi": 50,
      "hit": false,
      "t": 159919.36550000048,
      "d": 725.806500000006,
      "v": 96
    },
    {
      "midi": 66,
      "hit": false,
      "t": 160645.17200000022,
      "d": 604.8387499999953,
      "v": 96
    },
    {
      "midi": 74,
      "hit": false,
      "t": 160645.17200000022,
      "d": 1451.612999999983,
      "v": 96
    },
    {
      "midi": 43,
      "hit": false,
      "t": 160645.1720000005,
      "d": 483.87100000001374,
      "v": 80
    },
    {
      "midi": 57,
      "hit": false,
      "t": 160887.10750000033,
      "d": 241.93549999999232,
      "v": 112
    },
    {
      "midi": 62,
      "hit": false,
      "t": 161129.04300000033,
      "d": 241.93549999999232,
      "v": 112
    },
    {
      "midi": 66,
      "hit": false,
      "t": 161370.97850000032,
      "d": 1209.6774999999907,
      "v": 112
    },
    {
      "midi": 43,
      "hit": false,
      "t": 161370.9785000005,
      "d": 241.93549999999232,
      "v": 80
    },
    {
      "midi": 62,
      "hit": false,
      "t": 161612.91400000022,
      "d": 967.7419999999693,
      "v": 96
    },
    {
      "midi": 50,
      "hit": false,
      "t": 161612.91400000048,
      "d": 725.806500000006,
      "v": 80
    },
    {
      "midi": 66,
      "hit": false,
      "t": 161854.84950000021,
      "d": 241.93549999999232,
      "v": 96
    },
    {
      "midi": 69,
      "hit": false,
      "t": 161854.84950000021,
      "d": 241.93549999999232,
      "v": 96
    },
    {
      "midi": 71,
      "hit": false,
      "t": 161854.84950000021,
      "d": 241.93549999999232,
      "v": 96
    },
    {
      "midi": 64,
      "hit": false,
      "t": 162338.7205000002,
      "d": 1209.6774999999907,
      "v": 96
    },
    {
      "midi": 67,
      "hit": false,
      "t": 162338.7205000002,
      "d": 1209.6774999999907,
      "v": 96
    },
    {
      "midi": 72,
      "hit": false,
      "t": 162338.7205000002,
      "d": 1209.6774999999907,
      "v": 96
    },
    {
      "midi": 38,
      "hit": false,
      "t": 162580.65600000048,
      "d": 1935.4839999999967,
      "v": 80
    },
    {
      "midi": 57,
      "hit": false,
      "t": 162822.5915000003,
      "d": 241.93549999999232,
      "v": 112
    },
    {
      "midi": 60,
      "hit": false,
      "t": 163064.5270000003,
      "d": 241.93549999999232,
      "v": 112
    },
    {
      "midi": 65,
      "hit": false,
      "t": 163306.46250000029,
      "d": 1209.6774999999907,
      "v": 112
    },
    {
      "midi": 60,
      "hit": false,
      "t": 163548.3980000002,
      "d": 483.87100000001374,
      "v": 64
    },
    {
      "midi": 62,
      "hit": false,
      "t": 163548.3980000002,
      "d": 483.87100000001374,
      "v": 64
    },
    {
      "midi": 65,
      "hit": false,
      "t": 163548.3980000002,
      "d": 483.87100000001374,
      "v": 64
    },
    {
      "midi": 60,
      "hit": false,
      "t": 164032.2690000002,
      "d": 483.87100000001374,
      "v": 80
    },
    {
      "midi": 62,
      "hit": false,
      "t": 164032.2690000002,
      "d": 483.87100000001374,
      "v": 80
    },
    {
      "midi": 69,
      "hit": false,
      "t": 164032.2690000002,
      "d": 483.87100000001374,
      "v": 80
    },
    {
      "midi": 59,
      "hit": false,
      "t": 164516.14000000022,
      "d": 604.8387499999953,
      "v": 96
    },
    {
      "midi": 64,
      "hit": false,
      "t": 164516.14000000022,
      "d": 604.8387499999953,
      "v": 96
    },
    {
      "midi": 67,
      "hit": false,
      "t": 164516.14000000022,
      "d": 604.8387499999953,
      "v": 96
    },
    {
      "midi": 36,
      "hit": false,
      "t": 164516.14000000048,
      "d": 725.806500000006,
      "v": 80
    },
    {
      "midi": 59,
      "hit": false,
      "t": 164758.07550000027,
      "d": 241.93549999999232,
      "v": 112
    },
    {
      "midi": 62,
      "hit": false,
      "t": 165000.01100000026,
      "d": 241.93549999999232,
      "v": 112
    },
    {
      "midi": 64,
      "hit": false,
      "t": 165241.94650000022,
      "d": 362.903250000003,
      "v": 80
    },
    {
      "midi": 67,
      "hit": false,
      "t": 165241.94650000022,
      "d": 362.903250000003,
      "v": 80
    },
    {
      "midi": 71,
      "hit": false,
      "t": 165241.94650000022,
      "d": 362.903250000003,
      "v": 80
    },
    {
      "midi": 67,
      "hit": false,
      "t": 165241.94650000025,
      "d": 1209.6774999999907,
      "v": 112
    },
    {
      "midi": 43,
      "hit": false,
      "t": 165241.9465000005,
      "d": 725.806500000006,
      "v": 80
    },
    {
      "midi": 59,
      "hit": false,
      "t": 165725.81750000024,
      "d": 725.806500000006,
      "v": 80
    },
    {
      "midi": 64,
      "hit": false,
      "t": 165725.81750000024,
      "d": 725.806500000006,
      "v": 80
    },
    {
      "midi": 67,
      "hit": false,
      "t": 165725.81750000024,
      "d": 725.806500000006,
      "v": 80
    },
    {
      "midi": 36,
      "hit": false,
      "t": 165967.7530000005,
      "d": 483.87100000001374,
      "v": 80
    },
    {
      "midi": 62,
      "hit": false,
      "t": 166451.62400000024,
      "d": 483.87100000001374,
      "v": 80
    },
    {
      "midi": 66,
      "hit": false,
      "t": 166451.62400000024,
      "d": 483.87100000001374,
      "v": 80
    },
    {
      "midi": 69,
      "hit": false,
      "t": 166451.62400000024,
      "d": 483.87100000001374,
      "v": 80
    },
    {
      "midi": 47,
      "hit": false,
      "t": 166451.6240000005,
      "d": 483.87100000001374,
      "v": 80
    },
    {
      "midi": 57,
      "hit": false,
      "t": 166693.55950000024,
      "d": 241.93549999999232,
      "v": 112
    },
    {
      "midi": 62,
      "hit": false,
      "t": 166935.49500000023,
      "d": 241.93549999999232,
      "v": 112
    },
    {
      "midi": 66,
      "hit": false,
      "t": 167177.43050000022,
      "d": 1209.6774999999907,
      "v": 112
    },
    {
      "midi": 74,
      "hit": false,
      "t": 167177.43050000025,
      "d": 483.87100000001374,
      "v": 96
    },
    {
      "midi": 78,
      "hit": false,
      "t": 167177.43050000025,
      "d": 483.87100000001374,
      "v": 96
    },
    {
      "midi": 81,
      "hit": false,
      "t": 167177.43050000025,
      "d": 483.87100000001374,
      "v": 96
    },
    {
      "midi": 47,
      "hit": false,
      "t": 167177.4305000005,
      "d": 483.87100000001374,
      "v": 80
    },
    {
      "midi": 66,
      "hit": false,
      "t": 167661.30150000026,
      "d": 725.806500000006,
      "v": 64
    },
    {
      "midi": 54,
      "hit": false,
      "t": 167661.30150000053,
      "d": 241.93549999999232,
      "v": 80
    },
    {
      "midi": 62,
      "hit": false,
      "t": 167903.23700000026,
      "d": 483.87100000001374,
      "v": 64
    },
    {
      "midi": 69,
      "hit": false,
      "t": 167903.23700000026,
      "d": 483.87100000001374,
      "v": 80
    },
    {
      "midi": 47,
      "hit": false,
      "t": 167903.23700000052,
      "d": 483.87100000001374,
      "v": 80
    },
    {
      "midi": 60,
      "hit": false,
      "t": 168387.10800000027,
      "d": 967.7419999999984,
      "v": 80
    },
    {
      "midi": 64,
      "hit": false,
      "t": 168387.10800000027,
      "d": 967.7419999999984,
      "v": 80
    },
    {
      "midi": 67,
      "hit": false,
      "t": 168387.10800000027,
      "d": 967.7419999999984,
      "v": 80
    },
    {
      "midi": 45,
      "hit": false,
      "t": 168387.10800000053,
      "d": 725.806500000006,
      "v": 80
    },
    {
      "midi": 55,
      "hit": false,
      "t": 168629.0435000002,
      "d": 241.93549999999232,
      "v": 112
    },
    {
      "midi": 60,
      "hit": false,
      "t": 168870.9790000002,
      "d": 241.93549999999232,
      "v": 112
    },
    {
      "midi": 64,
      "hit": false,
      "t": 169112.9145000002,
      "d": 1209.6774999999907,
      "v": 112
    },
    {
      "midi": 57,
      "hit": false,
      "t": 169112.91450000054,
      "d": 1209.6774999999907,
      "v": 80
    },
    {
      "midi": 55,
      "hit": false,
      "t": 169354.85000000027,
      "d": 241.93549999999232,
      "v": 64
    },
    {
      "midi": 64,
      "hit": false,
      "t": 169596.78550000026,
      "d": 725.806500000006,
      "v": 96
    },
    {
      "midi": 67,
      "hit": false,
      "t": 169596.78550000026,
      "d": 725.806500000006,
      "v": 96
    },
    {
      "midi": 72,
      "hit": false,
      "t": 169596.78550000026,
      "d": 725.806500000006,
      "v": 96
    },
    {
      "midi": 67,
      "hit": false,
      "t": 170322.59200000027,
      "d": 483.87100000001374,
      "v": 80
    },
    {
      "midi": 62,
      "hit": false,
      "t": 170322.59200000027,
      "d": 1088.709750000009,
      "v": 80
    },
    {
      "midi": 71,
      "hit": false,
      "t": 170322.59200000027,
      "d": 1935.4840000000258,
      "v": 80
    },
    {
      "midi": 40,
      "hit": false,
      "t": 170322.59200000053,
      "d": 1935.4839999999967,
      "v": 80
    },
    {
      "midi": 59,
      "hit": false,
      "t": 170564.52750000017,
      "d": 241.93549999999232,
      "v": 112
    },
    {
      "midi": 62,
      "hit": false,
      "t": 170806.46300000016,
      "d": 241.93549999999232,
      "v": 112
    },
    {
      "midi": 67,
      "hit": false,
      "t": 171048.39850000016,
      "d": 1209.6774999999907,
      "v": 112
    },
    {
      "midi": 67,
      "hit": false,
      "t": 171048.39850000027,
      "d": 483.87100000001374,
      "v": 96
    },
    {
      "midi": 62,
      "hit": false,
      "t": 171532.2695000003,
      "d": 725.806500000006,
      "v": 96
    },
    {
      "midi": 67,
      "hit": false,
      "t": 171532.2695000003,
      "d": 725.806500000006,
      "v": 80
    },
    {
      "midi": 60,
      "hit": false,
      "t": 172258.07600000015,
      "d": 241.93549999999232,
      "v": 112
    },
    {
      "midi": 55,
      "hit": false,
      "t": 172258.0760000003,
      "d": 967.7419999999984,
      "v": 96
    },
    {
      "midi": 60,
      "hit": false,
      "t": 172258.0760000003,
      "d": 967.7419999999984,
      "v": 96
    },
    {
      "midi": 64,
      "hit": false,
      "t": 172258.0760000003,
      "d": 967.7419999999984,
      "v": 96
    },
    {
      "midi": 36,
      "hit": false,
      "t": 172258.07600000052,
      "d": 967.7419999999984,
      "v": 80
    },
    {
      "midi": 64,
      "hit": false,
      "t": 172500.01150000014,
      "d": 241.93549999999232,
      "v": 112
    },
    {
      "midi": 67,
      "hit": false,
      "t": 172741.94700000013,
      "d": 1209.6774999999907,
      "v": 112
    },
    {
      "midi": 57,
      "hit": false,
      "t": 173225.81800000014,
      "d": 241.93549999999232,
      "v": 112
    },
    {
      "midi": 57,
      "hit": false,
      "t": 173225.8180000003,
      "d": 967.7419999999984,
      "v": 96
    },
    {
      "midi": 62,
      "hit": false,
      "t": 173225.8180000003,
      "d": 967.7419999999984,
      "v": 96
    },
    {
      "midi": 66,
      "hit": false,
      "t": 173225.8180000003,
      "d": 967.7419999999984,
      "v": 96
    },
    {
      "midi": 35,
      "hit": false,
      "t": 173225.81800000052,
      "d": 967.7419999999984,
      "v": 80
    },
    {
      "midi": 62,
      "hit": false,
      "t": 173467.75350000014,
      "d": 241.93549999999232,
      "v": 112
    },
    {
      "midi": 66,
      "hit": false,
      "t": 173709.68900000013,
      "d": 1209.6774999999907,
      "v": 112
    },
    {
      "midi": 60,
      "hit": false,
      "t": 174193.5600000003,
      "d": 967.7419999999984,
      "v": 112
    },
    {
      "midi": 64,
      "hit": false,
      "t": 174193.5600000003,
      "d": 967.7419999999984,
      "v": 112
    },
    {
      "midi": 67,
      "hit": false,
      "t": 174193.5600000003,
      "d": 967.7419999999984,
      "v": 112
    },
    {
      "midi": 38,
      "hit": false,
      "t": 174193.56000000052,
      "d": 725.806500000006,
      "v": 80
    },
    {
      "midi": 55,
      "hit": false,
      "t": 174435.49550000014,
      "d": 241.93549999999232,
      "v": 112
    },
    {
      "midi": 60,
      "hit": false,
      "t": 174677.43100000013,
      "d": 241.93549999999232,
      "v": 112
    },
    {
      "midi": 64,
      "hit": false,
      "t": 174919.36650000012,
      "d": 241.93549999999232,
      "v": 112
    },
    {
      "midi": 50,
      "hit": false,
      "t": 174919.36650000053,
      "d": 241.93549999999232,
      "v": 80
    },
    {
      "midi": 67,
      "hit": false,
      "t": 175161.3020000001,
      "d": 1209.6774999999907,
      "v": 112
    },
    {
      "midi": 59,
      "hit": false,
      "t": 175161.3020000003,
      "d": 362.903250000003,
      "v": 96
    },
    {
      "midi": 67,
      "hit": false,
      "t": 175161.3020000003,
      "d": 362.903250000003,
      "v": 96
    },
    {
      "midi": 74,
      "hit": false,
      "t": 175161.3020000003,
      "d": 362.903250000003,
      "v": 96
    },
    {
      "midi": 38,
      "hit": false,
      "t": 175161.30200000052,
      "d": 241.93549999999232,
      "v": 80
    },
    {
      "midi": 50,
      "hit": false,
      "t": 175403.2375000005,
      "d": 241.93549999999232,
      "v": 80
    },
    {
      "midi": 60,
      "hit": false,
      "t": 175645.1730000003,
      "d": 362.903250000003,
      "v": 96
    },
    {
      "midi": 67,
      "hit": false,
      "t": 175645.1730000003,
      "d": 362.903250000003,
      "v": 96
    },
    {
      "midi": 76,
      "hit": false,
      "t": 175645.1730000003,
      "d": 362.903250000003,
      "v": 96
    },
    {
      "midi": 38,
      "hit": false,
      "t": 175645.1730000005,
      "d": 483.87100000001374,
      "v": 80
    },
    {
      "midi": 69,
      "hit": false,
      "t": 176129.04400000031,
      "d": 604.8387499999953,
      "v": 96
    },
    {
      "midi": 74,
      "hit": false,
      "t": 176129.04400000031,
      "d": 604.8387499999953,
      "v": 96
    },
    {
      "midi": 78,
      "hit": false,
      "t": 176129.04400000031,
      "d": 604.8387499999953,
      "v": 96
    },
    {
      "midi": 43,
      "hit": false,
      "t": 176129.04400000052,
      "d": 483.87100000001374,
      "v": 80
    },
    {
      "midi": 57,
      "hit": false,
      "t": 176370.9795000001,
      "d": 241.93549999999232,
      "v": 112
    },
    {
      "midi": 62,
      "hit": false,
      "t": 176612.9150000001,
      "d": 241.93549999999232,
      "v": 112
    },
    {
      "midi": 66,
      "hit": false,
      "t": 176854.8505000001,
      "d": 1209.6774999999907,
      "v": 112
    },
    {
      "midi": 69,
      "hit": false,
      "t": 176854.85050000032,
      "d": 181.45162499998696,
      "v": 96
    },
    {
      "midi": 74,
      "hit": false,
      "t": 176854.85050000032,
      "d": 181.45162499998696,
      "v": 96
    },
    {
      "midi": 78,
      "hit": false,
      "t": 176854.85050000032,
      "d": 181.45162499998696,
      "v": 96
    },
    {
      "midi": 43,
      "hit": false,
      "t": 176854.85050000052,
      "d": 241.93549999999232,
      "v": 80
    },
    {
      "midi": 69,
      "hit": false,
      "t": 177096.7860000003,
      "d": 181.45162499998696,
      "v": 96
    },
    {
      "midi": 74,
      "hit": false,
      "t": 177096.7860000003,
      "d": 181.45162499998696,
      "v": 96
    },
    {
      "midi": 78,
      "hit": false,
      "t": 177096.7860000003,
      "d": 181.45162499998696,
      "v": 96
    },
    {
      "midi": 50,
      "hit": false,
      "t": 177096.78600000052,
      "d": 483.87100000001374,
      "v": 80
    },
    {
      "midi": 71,
      "hit": false,
      "t": 177338.7215000003,
      "d": 362.903250000003,
      "v": 96
    },
    {
      "midi": 74,
      "hit": false,
      "t": 177338.7215000003,
      "d": 362.903250000003,
      "v": 96
    },
    {
      "midi": 79,
      "hit": false,
      "t": 177338.7215000003,
      "d": 362.903250000003,
      "v": 96
    },
    {
      "midi": 69,
      "hit": false,
      "t": 177822.59250000032,
      "d": 725.806500000006,
      "v": 96
    },
    {
      "midi": 74,
      "hit": false,
      "t": 177822.59250000032,
      "d": 725.806500000006,
      "v": 96
    },
    {
      "midi": 78,
      "hit": false,
      "t": 177822.59250000032,
      "d": 725.806500000006,
      "v": 96
    },
    {
      "midi": 50,
      "hit": false,
      "t": 177822.59250000052,
      "d": 241.93549999999232,
      "v": 80
    },
    {
      "midi": 43,
      "hit": false,
      "t": 178064.52800000052,
      "d": 483.87100000001374,
      "v": 80
    },
    {
      "midi": 57,
      "hit": false,
      "t": 178306.46350000007,
      "d": 241.93549999999232,
      "v": 112
    },
    {
      "midi": 55,
      "hit": false,
      "t": 178306.46350000033,
      "d": 241.93549999999232,
      "v": 80
    },
    {
      "midi": 62,
      "hit": false,
      "t": 178548.39900000006,
      "d": 241.93549999999232,
      "v": 112
    },
    {
      "midi": 62,
      "hit": false,
      "t": 178548.39900000033,
      "d": 241.93549999999232,
      "v": 80
    },
    {
      "midi": 66,
      "hit": false,
      "t": 178790.33450000006,
      "d": 1209.6774999999907,
      "v": 112
    },
    {
      "midi": 55,
      "hit": false,
      "t": 178790.33450000032,
      "d": 241.93549999999232,
      "v": 80
    },
    {
      "midi": 43,
      "hit": false,
      "t": 178790.33450000052,
      "d": 241.93549999999232,
      "v": 80
    },
    {
      "midi": 67,
      "hit": false,
      "t": 179032.2700000003,
      "d": 362.903250000003,
      "v": 96
    },
    {
      "midi": 71,
      "hit": false,
      "t": 179032.2700000003,
      "d": 362.903250000003,
      "v": 96
    },
    {
      "midi": 74,
      "hit": false,
      "t": 179032.2700000003,
      "d": 362.903250000003,
      "v": 96
    },
    {
      "midi": 50,
      "hit": false,
      "t": 179032.2700000005,
      "d": 483.87100000001374,
      "v": 80
    },
    {
      "midi": 67,
      "hit": false,
      "t": 179516.14100000032,
      "d": 362.903250000003,
      "v": 96
    },
    {
      "midi": 72,
      "hit": false,
      "t": 179516.14100000032,
      "d": 362.903250000003,
      "v": 96
    },
    {
      "midi": 76,
      "hit": false,
      "t": 179516.14100000032,
      "d": 362.903250000003,
      "v": 96
    },
    {
      "midi": 50,
      "hit": false,
      "t": 179758.07650000052,
      "d": 241.93549999999232,
      "v": 80
    },
    {
      "midi": 69,
      "hit": false,
      "t": 180000.01200000034,
      "d": 604.8387499999953,
      "v": 96
    },
    {
      "midi": 74,
      "hit": false,
      "t": 180000.01200000034,
      "d": 604.8387499999953,
      "v": 96
    },
    {
      "midi": 77,
      "hit": false,
      "t": 180000.01200000034,
      "d": 604.8387499999953,
      "v": 96
    },
    {
      "midi": 46,
      "hit": false,
      "t": 180000.0120000005,
      "d": 483.87100000001374,
      "v": 80
    },
    {
      "midi": 57,
      "hit": false,
      "t": 180241.94750000004,
      "d": 241.93549999999232,
      "v": 112
    },
    {
      "midi": 62,
      "hit": false,
      "t": 180483.88300000003,
      "d": 241.93549999999232,
      "v": 112
    },
    {
      "midi": 65,
      "hit": false,
      "t": 180725.81850000002,
      "d": 1209.6774999999907,
      "v": 112
    },
    {
      "midi": 69,
      "hit": false,
      "t": 180725.81850000034,
      "d": 181.45162499998696,
      "v": 96
    },
    {
      "midi": 74,
      "hit": false,
      "t": 180725.81850000034,
      "d": 181.45162499998696,
      "v": 96
    },
    {
      "midi": 77,
      "hit": false,
      "t": 180725.81850000034,
      "d": 181.45162499998696,
      "v": 96
    },
    {
      "midi": 46,
      "hit": false,
      "t": 180725.81850000052,
      "d": 241.93549999999232,
      "v": 80
    },
    {
      "midi": 69,
      "hit": false,
      "t": 180967.75400000034,
      "d": 181.45162499998696,
      "v": 96
    },
    {
      "midi": 74,
      "hit": false,
      "t": 180967.75400000034,
      "d": 181.45162499998696,
      "v": 96
    },
    {
      "midi": 77,
      "hit": false,
      "t": 180967.75400000034,
      "d": 181.45162499998696,
      "v": 96
    },
    {
      "midi": 41,
      "hit": false,
      "t": 180967.7540000005,
      "d": 483.87100000001374,
      "v": 80
    },
    {
      "midi": 70,
      "hit": false,
      "t": 181209.68950000033,
      "d": 362.903250000003,
      "v": 96
    },
    {
      "midi": 74,
      "hit": false,
      "t": 181209.68950000033,
      "d": 362.903250000003,
      "v": 96
    },
    {
      "midi": 79,
      "hit": false,
      "t": 181209.68950000033,
      "d": 362.903250000003,
      "v": 96
    },
    {
      "midi": 72,
      "hit": false,
      "t": 181693.56050000034,
      "d": 362.903250000003,
      "v": 96
    },
    {
      "midi": 77,
      "hit": false,
      "t": 181693.56050000034,
      "d": 362.903250000003,
      "v": 96
    },
    {
      "midi": 81,
      "hit": false,
      "t": 181693.56050000034,
      "d": 362.903250000003,
      "v": 96
    },
    {
      "midi": 41,
      "hit": false,
      "t": 181693.56050000052,
      "d": 241.93549999999232,
      "v": 80
    },
    {
      "midi": 46,
      "hit": false,
      "t": 181935.4960000005,
      "d": 483.87100000001374,
      "v": 80
    },
    {
      "midi": 57,
      "hit": false,
      "t": 182177.4315,
      "d": 241.93549999999232,
      "v": 112
    },
    {
      "midi": 69,
      "hit": false,
      "t": 182177.43150000036,
      "d": 362.903250000003,
      "v": 96
    },
    {
      "midi": 72,
      "hit": false,
      "t": 182177.43150000036,
      "d": 362.903250000003,
      "v": 96
    },
    {
      "midi": 77,
      "hit": false,
      "t": 182177.43150000036,
      "d": 362.903250000003,
      "v": 96
    },
    {
      "midi": 62,
      "hit": false,
      "t": 182419.367,
      "d": 241.93549999999232,
      "v": 112
    },
    {
      "midi": 65,
      "hit": false,
      "t": 182661.3025,
      "d": 1209.6774999999907,
      "v": 112
    },
    {
      "midi": 69,
      "hit": false,
      "t": 182661.30250000037,
      "d": 362.903250000003,
      "v": 96
    },
    {
      "midi": 72,
      "hit": false,
      "t": 182661.30250000037,
      "d": 362.903250000003,
      "v": 96
    },
    {
      "midi": 77,
      "hit": false,
      "t": 182661.30250000037,
      "d": 362.903250000003,
      "v": 96
    },
    {
      "midi": 46,
      "hit": false,
      "t": 182661.30250000051,
      "d": 241.93549999999232,
      "v": 80
    },
    {
      "midi": 41,
      "hit": false,
      "t": 182903.2380000005,
      "d": 483.87100000001374,
      "v": 80
    },
    {
      "midi": 72,
      "hit": false,
      "t": 183145.17350000038,
      "d": 362.903250000003,
      "v": 96
    },
    {
      "midi": 77,
      "hit": false,
      "t": 183145.17350000038,
      "d": 362.903250000003,
      "v": 96
    },
    {
      "midi": 81,
      "hit": false,
      "t": 183145.17350000038,
      "d": 362.903250000003,
      "v": 96
    },
    {
      "midi": 70,
      "hit": false,
      "t": 183629.0445000004,
      "d": 725.806500000006,
      "v": 96
    },
    {
      "midi": 74,
      "hit": false,
      "t": 183629.0445000004,
      "d": 725.806500000006,
      "v": 96
    },
    {
      "midi": 77,
      "hit": false,
      "t": 183629.0445000004,
      "d": 725.806500000006,
      "v": 96
    },
    {
      "midi": 41,
      "hit": false,
      "t": 183629.0445000005,
      "d": 241.93549999999232,
      "v": 80
    },
    {
      "midi": 51,
      "hit": false,
      "t": 183870.9800000005,
      "d": 483.87100000001374,
      "v": 80
    },
    {
      "midi": 55,
      "hit": false,
      "t": 184112.91549999997,
      "d": 241.93549999999232,
      "v": 112
    },
    {
      "midi": 58,
      "hit": false,
      "t": 184354.85099999997,
      "d": 241.93549999999232,
      "v": 112
    },
    {
      "midi": 62,
      "hit": false,
      "t": 184596.78649999996,
      "d": 1209.6774999999907,
      "v": 112
    },
    {
      "midi": 65,
      "hit": false,
      "t": 184596.7865000004,
      "d": 181.45162499998696,
      "v": 96
    },
    {
      "midi": 70,
      "hit": false,
      "t": 184596.7865000004,
      "d": 181.45162499998696,
      "v": 96
    },
    {
      "midi": 74,
      "hit": false,
      "t": 184596.7865000004,
      "d": 181.45162499998696,
      "v": 96
    },
    {
      "midi": 51,
      "hit": false,
      "t": 184596.7865000005,
      "d": 241.93549999999232,
      "v": 80
    },
    {
      "midi": 65,
      "hit": false,
      "t": 184838.7220000004,
      "d": 181.45162499998696,
      "v": 96
    },
    {
      "midi": 70,
      "hit": false,
      "t": 184838.7220000004,
      "d": 181.45162499998696,
      "v": 96
    },
    {
      "midi": 74,
      "hit": false,
      "t": 184838.7220000004,
      "d": 181.45162499998696,
      "v": 96
    },
    {
      "midi": 46,
      "hit": false,
      "t": 184838.7220000005,
      "d": 483.87100000001374,
      "v": 80
    },
    {
      "midi": 65,
      "hit": false,
      "t": 185080.65750000038,
      "d": 362.903250000003,
      "v": 96
    },
    {
      "midi": 70,
      "hit": false,
      "t": 185080.65750000038,
      "d": 362.903250000003,
      "v": 96
    },
    {
      "midi": 74,
      "hit": false,
      "t": 185080.65750000038,
      "d": 362.903250000003,
      "v": 96
    },
    {
      "midi": 65,
      "hit": false,
      "t": 185564.5285000004,
      "d": 483.87100000001374,
      "v": 96
    },
    {
      "midi": 70,
      "hit": false,
      "t": 185564.5285000004,
      "d": 483.87100000001374,
      "v": 96
    },
    {
      "midi": 74,
      "hit": false,
      "t": 185564.5285000004,
      "d": 483.87100000001374,
      "v": 96
    },
    {
      "midi": 46,
      "hit": false,
      "t": 185564.5285000005,
      "d": 241.93549999999232,
      "v": 80
    },
    {
      "midi": 43,
      "hit": false,
      "t": 185806.4640000005,
      "d": 483.87100000001374,
      "v": 80
    },
    {
      "midi": 57,
      "hit": false,
      "t": 186048.39949999994,
      "d": 241.93549999999232,
      "v": 112
    },
    {
      "midi": 58,
      "hit": false,
      "t": 186290.33499999993,
      "d": 241.93549999999232,
      "v": 112
    },
    {
      "midi": 65,
      "hit": false,
      "t": 186532.27049999993,
      "d": 1209.6774999999907,
      "v": 112
    },
    {
      "midi": 43,
      "hit": false,
      "t": 186532.2705000005,
      "d": 241.93549999999232,
      "v": 80
    },
    {
      "midi": 62,
      "hit": false,
      "t": 186774.2060000004,
      "d": 362.903250000003,
      "v": 96
    },
    {
      "midi": 67,
      "hit": false,
      "t": 186774.2060000004,
      "d": 362.903250000003,
      "v": 96
    },
    {
      "midi": 50,
      "hit": false,
      "t": 186774.2060000005,
      "d": 483.87100000001374,
      "v": 80
    },
    {
      "midi": 62,
      "hit": false,
      "t": 187258.07700000043,
      "d": 362.903250000003,
      "v": 96
    },
    {
      "midi": 70,
      "hit": false,
      "t": 187258.07700000043,
      "d": 362.903250000003,
      "v": 96
    },
    {
      "midi": 50,
      "hit": false,
      "t": 187500.0125000005,
      "d": 241.93549999999232,
      "v": 80
    },
    {
      "midi": 67,
      "hit": false,
      "t": 187741.94800000044,
      "d": 604.8387499999953,
      "v": 96
    },
    {
      "midi": 70,
      "hit": false,
      "t": 187741.94800000044,
      "d": 604.8387499999953,
      "v": 96
    },
    {
      "midi": 74,
      "hit": false,
      "t": 187741.94800000044,
      "d": 604.8387499999953,
      "v": 96
    },
    {
      "midi": 48,
      "hit": false,
      "t": 187741.9480000005,
      "d": 483.87100000001374,
      "v": 80
    },
    {
      "midi": 62,
      "hit": false,
      "t": 187983.8834999999,
      "d": 241.93549999999232,
      "v": 112
    },
    {
      "midi": 63,
      "hit": false,
      "t": 188225.8189999999,
      "d": 241.93549999999232,
      "v": 112
    },
    {
      "midi": 70,
      "hit": false,
      "t": 188467.7544999999,
      "d": 1209.6774999999907,
      "v": 112
    },
    {
      "midi": 67,
      "hit": false,
      "t": 188467.75450000045,
      "d": 181.45162499998696,
      "v": 96
    },
    {
      "midi": 70,
      "hit": false,
      "t": 188467.75450000045,
      "d": 181.45162499998696,
      "v": 96
    },
    {
      "midi": 72,
      "hit": false,
      "t": 188467.75450000045,
      "d": 181.45162499998696,
      "v": 96
    },
    {
      "midi": 48,
      "hit": false,
      "t": 188467.7545000005,
      "d": 241.93549999999232,
      "v": 80
    },
    {
      "midi": 67,
      "hit": false,
      "t": 188709.69000000044,
      "d": 181.45162499998696,
      "v": 96
    },
    {
      "midi": 70,
      "hit": false,
      "t": 188709.69000000044,
      "d": 181.45162499998696,
      "v": 96
    },
    {
      "midi": 72,
      "hit": false,
      "t": 188709.69000000044,
      "d": 181.45162499998696,
      "v": 96
    },
    {
      "midi": 43,
      "hit": false,
      "t": 188709.6900000005,
      "d": 483.87100000001374,
      "v": 80
    },
    {
      "midi": 67,
      "hit": false,
      "t": 188951.62550000043,
      "d": 362.903250000003,
      "v": 96
    },
    {
      "midi": 70,
      "hit": false,
      "t": 188951.62550000043,
      "d": 362.903250000003,
      "v": 96
    },
    {
      "midi": 74,
      "hit": false,
      "t": 188951.62550000043,
      "d": 362.903250000003,
      "v": 96
    },
    {
      "midi": 67,
      "hit": false,
      "t": 189435.49650000044,
      "d": 725.806500000006,
      "v": 96
    },
    {
      "midi": 72,
      "hit": false,
      "t": 189435.49650000044,
      "d": 725.806500000006,
      "v": 96
    },
    {
      "midi": 75,
      "hit": false,
      "t": 189435.49650000044,
      "d": 725.806500000006,
      "v": 96
    },
    {
      "midi": 43,
      "hit": false,
      "t": 189435.4965000005,
      "d": 241.93549999999232,
      "v": 80
    },
    {
      "midi": 41,
      "hit": false,
      "t": 189677.4320000005,
      "d": 483.87100000001374,
      "v": 80
    },
    {
      "midi": 58,
      "hit": false,
      "t": 189919.36749999988,
      "d": 241.93549999999232,
      "v": 112
    },
    {
      "midi": 63,
      "hit": false,
      "t": 190161.30299999987,
      "d": 241.93549999999232,
      "v": 112
    },
    {
      "midi": 67,
      "hit": false,
      "t": 190403.23849999986,
      "d": 241.93549999999232,
      "v": 112
    },
    {
      "midi": 62,
      "hit": false,
      "t": 190403.23850000044,
      "d": 181.45162499998696,
      "v": 96
    },
    {
      "midi": 67,
      "hit": false,
      "t": 190403.23850000044,
      "d": 181.45162499998696,
      "v": 96
    },
    {
      "midi": 70,
      "hit": false,
      "t": 190403.23850000044,
      "d": 181.45162499998696,
      "v": 96
    },
    {
      "midi": 41,
      "hit": false,
      "t": 190403.2385000005,
      "d": 241.93549999999232,
      "v": 80
    },
    {
      "midi": 70,
      "hit": false,
      "t": 190645.17399999985,
      "d": 967.7419999999984,
      "v": 112
    },
    {
      "midi": 63,
      "hit": false,
      "t": 190645.17400000044,
      "d": 362.903250000003,
      "v": 96
    },
    {
      "midi": 67,
      "hit": false,
      "t": 190645.17400000044,
      "d": 362.903250000003,
      "v": 96
    },
    {
      "midi": 72,
      "hit": false,
      "t": 190645.17400000044,
      "d": 362.903250000003,
      "v": 96
    },
    {
      "midi": 48,
      "hit": false,
      "t": 190645.1740000005,
      "d": 483.87100000001374,
      "v": 80
    },
    {
      "midi": 65,
      "hit": false,
      "t": 191129.04500000045,
      "d": 362.903250000003,
      "v": 96
    },
    {
      "midi": 69,
      "hit": false,
      "t": 191129.04500000045,
      "d": 362.903250000003,
      "v": 96
    },
    {
      "midi": 72,
      "hit": false,
      "t": 191129.04500000045,
      "d": 362.903250000003,
      "v": 96
    },
    {
      "midi": 48,
      "hit": false,
      "t": 191370.9805000005,
      "d": 241.93549999999232,
      "v": 80
    },
    {
      "midi": 69,
      "hit": false,
      "t": 191612.91600000046,
      "d": 604.8387499999953,
      "v": 96
    },
    {
      "midi": 74,
      "hit": false,
      "t": 191612.91600000046,
      "d": 604.8387499999953,
      "v": 96
    },
    {
      "midi": 78,
      "hit": false,
      "t": 191612.91600000046,
      "d": 604.8387499999953,
      "v": 96
    },
    {
      "midi": 43,
      "hit": false,
      "t": 191612.9160000005,
      "d": 483.87100000001374,
      "v": 80
    },
    {
      "midi": 62,
      "hit": false,
      "t": 192338.72249999986,
      "d": 241.93549999999232,
      "v": 112
    },
    {
      "midi": 67,
      "hit": false,
      "t": 192338.72250000047,
      "d": 181.45162499998696,
      "v": 96
    },
    {
      "midi": 71,
      "hit": false,
      "t": 192338.72250000047,
      "d": 181.45162499998696,
      "v": 96
    },
    {
      "midi": 74,
      "hit": false,
      "t": 192338.72250000047,
      "d": 181.45162499998696,
      "v": 96
    },
    {
      "midi": 43,
      "hit": false,
      "t": 192338.7225000005,
      "d": 241.93549999999232,
      "v": 80
    },
    {
      "midi": 66,
      "hit": false,
      "t": 192580.65799999985,
      "d": 967.7419999999984,
      "v": 112
    },
    {
      "midi": 67,
      "hit": false,
      "t": 192580.65800000046,
      "d": 181.45162499998696,
      "v": 96
    },
    {
      "midi": 71,
      "hit": false,
      "t": 192580.65800000046,
      "d": 181.45162499998696,
      "v": 96
    },
    {
      "midi": 74,
      "hit": false,
      "t": 192580.65800000046,
      "d": 181.45162499998696,
      "v": 96
    },
    {
      "midi": 50,
      "hit": false,
      "t": 192580.6580000005,
      "d": 483.87100000001374,
      "v": 80
    },
    {
      "midi": 69,
      "hit": false,
      "t": 192822.59350000045,
      "d": 362.903250000003,
      "v": 96
    },
    {
      "midi": 74,
      "hit": false,
      "t": 192822.59350000045,
      "d": 362.903250000003,
      "v": 96
    },
    {
      "midi": 78,
      "hit": false,
      "t": 192822.59350000045,
      "d": 362.903250000003,
      "v": 96
    },
    {
      "midi": 69,
      "hit": false,
      "t": 193306.46450000047,
      "d": 725.806500000006,
      "v": 96
    },
    {
      "midi": 74,
      "hit": false,
      "t": 193306.46450000047,
      "d": 725.806500000006,
      "v": 96
    },
    {
      "midi": 78,
      "hit": false,
      "t": 193306.46450000047,
      "d": 725.806500000006,
      "v": 96
    },
    {
      "midi": 50,
      "hit": false,
      "t": 193306.4645000005,
      "d": 241.93549999999232,
      "v": 80
    },
    {
      "midi": 47,
      "hit": false,
      "t": 193548.4000000005,
      "d": 483.87100000001374,
      "v": 80
    },
    {
      "midi": 57,
      "hit": false,
      "t": 193790.33549999984,
      "d": 241.93549999999232,
      "v": 112
    },
    {
      "midi": 62,
      "hit": false,
      "t": 194032.27099999983,
      "d": 241.93549999999232,
      "v": 112
    },
    {
      "midi": 66,
      "hit": false,
      "t": 194274.20649999983,
      "d": 1209.6774999999907,
      "v": 112
    },
    {
      "midi": 47,
      "hit": false,
      "t": 194274.2065000005,
      "d": 241.93549999999232,
      "v": 80
    },
    {
      "midi": 69,
      "hit": false,
      "t": 194516.1420000005,
      "d": 181.45162499998696,
      "v": 96
    },
    {
      "midi": 74,
      "hit": false,
      "t": 194516.1420000005,
      "d": 181.45162499998696,
      "v": 96
    },
    {
      "midi": 42,
      "hit": false,
      "t": 194516.1420000005,
      "d": 483.87100000001374,
      "v": 80
    },
    {
      "midi": 69,
      "hit": false,
      "t": 194758.07750000048,
      "d": 362.903250000003,
      "v": 96
    },
    {
      "midi": 74,
      "hit": false,
      "t": 194758.07750000048,
      "d": 362.903250000003,
      "v": 96
    },
    {
      "midi": 78,
      "hit": false,
      "t": 194758.07750000048,
      "d": 362.903250000003,
      "v": 96
    },
    {
      "midi": 69,
      "hit": false,
      "t": 195241.9485000005,
      "d": 362.903250000003,
      "v": 96
    },
    {
      "midi": 74,
      "hit": false,
      "t": 195241.9485000005,
      "d": 362.903250000003,
      "v": 96
    },
    {
      "midi": 78,
      "hit": false,
      "t": 195241.9485000005,
      "d": 362.903250000003,
      "v": 96
    },
    {
      "midi": 42,
      "hit": false,
      "t": 195241.9485000005,
      "d": 241.93549999999232,
      "v": 80
    },
    {
      "midi": 48,
      "hit": false,
      "t": 195483.8840000005,
      "d": 483.87100000001374,
      "v": 80
    },
    {
      "midi": 60,
      "hit": false,
      "t": 195725.8194999998,
      "d": 241.93549999999232,
      "v": 112
    },
    {
      "midi": 71,
      "hit": false,
      "t": 195725.8195000005,
      "d": 362.903250000003,
      "v": 96
    },
    {
      "midi": 76,
      "hit": false,
      "t": 195725.8195000005,
      "d": 362.903250000003,
      "v": 96
    },
    {
      "midi": 79,
      "hit": false,
      "t": 195725.8195000005,
      "d": 362.903250000003,
      "v": 96
    },
    {
      "midi": 64,
      "hit": false,
      "t": 195967.7549999998,
      "d": 241.93549999999232,
      "v": 112
    },
    {
      "midi": 67,
      "hit": false,
      "t": 196209.6904999998,
      "d": 1209.6774999999907,
      "v": 112
    },
    {
      "midi": 48,
      "hit": false,
      "t": 196209.6905000005,
      "d": 241.93549999999232,
      "v": 80
    },
    {
      "midi": 67,
      "hit": false,
      "t": 196209.69050000052,
      "d": 362.903250000003,
      "v": 96
    },
    {
      "midi": 71,
      "hit": false,
      "t": 196209.69050000052,
      "d": 362.903250000003,
      "v": 96
    },
    {
      "midi": 74,
      "hit": false,
      "t": 196209.69050000052,
      "d": 362.903250000003,
      "v": 96
    },
    {
      "midi": 43,
      "hit": false,
      "t": 196451.62600000048,
      "d": 483.87100000001374,
      "v": 80
    },
    {
      "midi": 67,
      "hit": false,
      "t": 196693.56150000053,
      "d": 362.903250000003,
      "v": 96
    },
    {
      "midi": 69,
      "hit": false,
      "t": 196693.56150000053,
      "d": 362.903250000003,
      "v": 96
    },
    {
      "midi": 72,
      "hit": false,
      "t": 196693.56150000053,
      "d": 362.903250000003,
      "v": 96
    },
    {
      "midi": 43,
      "hit": false,
      "t": 197177.4325000005,
      "d": 241.93549999999232,
      "v": 80
    },
    {
      "midi": 66,
      "hit": false,
      "t": 197177.43250000055,
      "d": 1209.6774999999907,
      "v": 96
    },
    {
      "midi": 71,
      "hit": false,
      "t": 197177.43250000055,
      "d": 1209.6774999999907,
      "v": 96
    },
    {
      "midi": 74,
      "hit": false,
      "t": 197177.43250000055,
      "d": 1209.6774999999907,
      "v": 96
    },
    {
      "midi": 43,
      "hit": false,
      "t": 197419.36800000048,
      "d": 483.87100000001374,
      "v": 80
    },
    {
      "midi": 57,
      "hit": false,
      "t": 197661.30349999978,
      "d": 241.93549999999232,
      "v": 112
    },
    {
      "midi": 62,
      "hit": false,
      "t": 197903.23899999977,
      "d": 241.93549999999232,
      "v": 112
    },
    {
      "midi": 66,
      "hit": false,
      "t": 198145.17449999976,
      "d": 1209.6774999999907,
      "v": 112
    },
    {
      "midi": 43,
      "hit": false,
      "t": 198145.1745000005,
      "d": 241.93549999999232,
      "v": 80
    },
    {
      "midi": 50,
      "hit": false,
      "t": 198387.11000000048,
      "d": 483.87100000001374,
      "v": 80
    },
    {
      "midi": 64,
      "hit": false,
      "t": 198387.11000000054,
      "d": 241.93549999999232,
      "v": 80
    },
    {
      "midi": 59,
      "hit": false,
      "t": 198629.04550000053,
      "d": 725.806500000006,
      "v": 80
    },
    {
      "midi": 66,
      "hit": false,
      "t": 198629.04550000053,
      "d": 725.806500000006,
      "v": 80
    },
    {
      "midi": 50,
      "hit": false,
      "t": 199112.9165000005,
      "d": 241.93549999999232,
      "v": 80
    },
    {
      "midi": 53,
      "hit": false,
      "t": 199354.85199999975,
      "d": 1935.4839999999967,
      "v": 112
    },
    {
      "midi": 57,
      "hit": false,
      "t": 199354.85199999975,
      "d": 1935.4839999999967,
      "v": 112
    },
    {
      "midi": 60,
      "hit": false,
      "t": 199354.85199999975,
      "d": 1935.4839999999967,
      "v": 112
    },
    {
      "midi": 64,
      "hit": false,
      "t": 199354.85199999975,
      "d": 1935.4839999999967,
      "v": 112
    },
    {
      "midi": 41,
      "hit": false,
      "t": 199354.85200000048,
      "d": 1935.4839999999967,
      "v": 80
    },
    {
      "midi": 67,
      "hit": false,
      "t": 199354.85200000054,
      "d": 241.93550000002142,
      "v": 112
    },
    {
      "midi": 69,
      "hit": false,
      "t": 199475.81975000055,
      "d": 483.87100000004284,
      "v": 80
    },
    {
      "midi": 67,
      "hit": false,
      "t": 199596.78750000056,
      "d": 483.87100000004284,
      "v": 96
    },
    {
      "midi": 65,
      "hit": false,
      "t": 199717.75525000057,
      "d": 120.96775000001071,
      "v": 80
    },
    {
      "midi": 65,
      "hit": false,
      "t": 199838.72300000058,
      "d": 483.87100000004284,
      "v": 80
    },
    {
      "midi": 60,
      "hit": false,
      "t": 200080.6585000006,
      "d": 241.93550000002142,
      "v": 112
    },
    {
      "midi": 62,
      "hit": false,
      "t": 200201.6262500006,
      "d": 483.87100000004284,
      "v": 80
    },
    {
      "midi": 60,
      "hit": false,
      "t": 200322.59400000062,
      "d": 241.93550000002142,
      "v": 96
    },
    {
      "midi": 57,
      "hit": false,
      "t": 200443.56175000063,
      "d": 483.87100000001374,
      "v": 80
    },
    {
      "midi": 60,
      "hit": false,
      "t": 200564.52950000064,
      "d": 725.806500000006,
      "v": 96
    },
    {
      "midi": 54,
      "hit": false,
      "t": 201290.33599999975,
      "d": 483.87100000001374,
      "v": 112
    },
    {
      "midi": 57,
      "hit": false,
      "t": 201290.33599999975,
      "d": 483.87100000001374,
      "v": 112
    },
    {
      "midi": 62,
      "hit": false,
      "t": 201290.33599999975,
      "d": 483.87100000001374,
      "v": 112
    },
    {
      "midi": 40,
      "hit": false,
      "t": 201290.33600000048,
      "d": 483.87100000001374,
      "v": 80
    },
    {
      "midi": 59,
      "hit": false,
      "t": 201290.33600000065,
      "d": 604.8387499999953,
      "v": 96
    },
    {
      "midi": 62,
      "hit": false,
      "t": 201290.33600000065,
      "d": 604.8387499999953,
      "v": 96
    },
    {
      "midi": 66,
      "hit": false,
      "t": 201290.33600000065,
      "d": 604.8387499999953,
      "v": 96
    },
    {
      "midi": 69,
      "hit": false,
      "t": 201290.33600000065,
      "d": 604.8387499999953,
      "v": 96
    },
    {
      "midi": 54,
      "hit": false,
      "t": 202016.14249999975,
      "d": 1209.6774999999907,
      "v": 112
    },
    {
      "midi": 57,
      "hit": false,
      "t": 202016.14249999975,
      "d": 1209.6774999999907,
      "v": 112
    },
    {
      "midi": 62,
      "hit": false,
      "t": 202016.14249999975,
      "d": 1209.6774999999907,
      "v": 112
    },
    {
      "midi": 40,
      "hit": false,
      "t": 202016.14250000048,
      "d": 483.87100000001374,
      "v": 80
    },
    {
      "midi": 59,
      "hit": false,
      "t": 202016.14250000066,
      "d": 1209.6774999999907,
      "v": 96
    },
    {
      "midi": 62,
      "hit": false,
      "t": 202016.14250000066,
      "d": 1209.6774999999907,
      "v": 96
    },
    {
      "midi": 66,
      "hit": false,
      "t": 202016.14250000066,
      "d": 1209.6774999999907,
      "v": 96
    },
    {
      "midi": 69,
      "hit": false,
      "t": 202016.14250000066,
      "d": 1209.6774999999907,
      "v": 96
    },
    {
      "midi": 52,
      "hit": false,
      "t": 202500.0135000005,
      "d": 483.87100000001374,
      "v": 80
    },
    {
      "midi": 48,
      "hit": false,
      "t": 202983.8845000005,
      "d": 241.93549999999232,
      "v": 80
    },
    {
      "midi": 53,
      "hit": false,
      "t": 203225.81999999975,
      "d": 1935.4839999999967,
      "v": 112
    },
    {
      "midi": 57,
      "hit": false,
      "t": 203225.81999999975,
      "d": 1935.4839999999967,
      "v": 112
    },
    {
      "midi": 60,
      "hit": false,
      "t": 203225.81999999975,
      "d": 1935.4839999999967,
      "v": 112
    },
    {
      "midi": 64,
      "hit": false,
      "t": 203225.81999999975,
      "d": 1935.4839999999967,
      "v": 112
    },
    {
      "midi": 41,
      "hit": false,
      "t": 203225.8200000005,
      "d": 725.806500000006,
      "v": 80
    },
    {
      "midi": 67,
      "hit": false,
      "t": 203467.75550000064,
      "d": 241.93549999999232,
      "v": 96
    },
    {
      "midi": 67,
      "hit": false,
      "t": 203709.69100000063,
      "d": 241.93549999999232,
      "v": 80
    },
    {
      "midi": 53,
      "hit": false,
      "t": 203951.6265000005,
      "d": 362.903250000003,
      "v": 80
    },
    {
      "midi": 67,
      "hit": false,
      "t": 204193.56200000062,
      "d": 241.93549999999232,
      "v": 96
    },
    {
      "midi": 69,
      "hit": false,
      "t": 204193.56200000062,
      "d": 241.93549999999232,
      "v": 96
    },
    {
      "midi": 72,
      "hit": false,
      "t": 204193.56200000062,
      "d": 241.93549999999232,
      "v": 96
    },
    {
      "midi": 53,
      "hit": false,
      "t": 204435.49750000052,
      "d": 725.806500000006,
      "v": 80
    },
    {
      "midi": 67,
      "hit": false,
      "t": 204435.4975000006,
      "d": 725.806500000006,
      "v": 80
    },
    {
      "midi": 54,
      "hit": false,
      "t": 205161.30399999974,
      "d": 483.87100000001374,
      "v": 112
    },
    {
      "midi": 57,
      "hit": false,
      "t": 205161.30399999974,
      "d": 483.87100000001374,
      "v": 112
    },
    {
      "midi": 62,
      "hit": false,
      "t": 205161.30399999974,
      "d": 483.87100000001374,
      "v": 112
    },
    {
      "midi": 40,
      "hit": false,
      "t": 205161.30400000053,
      "d": 483.87100000001374,
      "v": 80
    },
    {
      "midi": 59,
      "hit": false,
      "t": 205161.30400000061,
      "d": 604.8387499999953,
      "v": 96
    },
    {
      "midi": 62,
      "hit": false,
      "t": 205161.30400000061,
      "d": 604.8387499999953,
      "v": 96
    },
    {
      "midi": 66,
      "hit": false,
      "t": 205161.30400000061,
      "d": 604.8387499999953,
      "v": 96
    },
    {
      "midi": 69,
      "hit": false,
      "t": 205161.30400000061,
      "d": 604.8387499999953,
      "v": 96
    },
    {
      "midi": 54,
      "hit": false,
      "t": 205887.11049999975,
      "d": 1209.6774999999907,
      "v": 112
    },
    {
      "midi": 57,
      "hit": false,
      "t": 205887.11049999975,
      "d": 1209.6774999999907,
      "v": 112
    },
    {
      "midi": 62,
      "hit": false,
      "t": 205887.11049999975,
      "d": 1209.6774999999907,
      "v": 112
    },
    {
      "midi": 40,
      "hit": false,
      "t": 205887.11050000053,
      "d": 483.87100000001374,
      "v": 80
    },
    {
      "midi": 59,
      "hit": false,
      "t": 205887.11050000062,
      "d": 1209.6774999999907,
      "v": 96
    },
    {
      "midi": 62,
      "hit": false,
      "t": 205887.11050000062,
      "d": 1209.6774999999907,
      "v": 96
    },
    {
      "midi": 66,
      "hit": false,
      "t": 205887.11050000062,
      "d": 1209.6774999999907,
      "v": 96
    },
    {
      "midi": 69,
      "hit": false,
      "t": 205887.11050000062,
      "d": 1209.6774999999907,
      "v": 96
    },
    {
      "midi": 52,
      "hit": false,
      "t": 206370.98150000055,
      "d": 483.87100000001374,
      "v": 80
    },
    {
      "midi": 48,
      "hit": false,
      "t": 206854.85250000056,
      "d": 241.93549999999232,
      "v": 80
    },
    {
      "midi": 53,
      "hit": false,
      "t": 207096.78799999974,
      "d": 1935.4839999999967,
      "v": 112
    },
    {
      "midi": 57,
      "hit": false,
      "t": 207096.78799999974,
      "d": 1935.4839999999967,
      "v": 112
    },
    {
      "midi": 60,
      "hit": false,
      "t": 207096.78799999974,
      "d": 1935.4839999999967,
      "v": 112
    },
    {
      "midi": 64,
      "hit": false,
      "t": 207096.78799999974,
      "d": 1935.4839999999967,
      "v": 112
    },
    {
      "midi": 41,
      "hit": false,
      "t": 207096.78800000055,
      "d": 1935.4839999999967,
      "v": 80
    },
    {
      "midi": 67,
      "hit": false,
      "t": 207338.7235000006,
      "d": 241.93550000002142,
      "v": 96
    },
    {
      "midi": 72,
      "hit": false,
      "t": 207338.7235000006,
      "d": 241.93550000002142,
      "v": 96
    },
    {
      "midi": 69,
      "hit": false,
      "t": 207459.69125000061,
      "d": 120.96775000001071,
      "v": 96
    },
    {
      "midi": 64,
      "hit": false,
      "t": 207822.59450000062,
      "d": 362.903250000003,
      "v": 112
    },
    {
      "midi": 67,
      "hit": false,
      "t": 207822.59450000062,
      "d": 362.903250000003,
      "v": 112
    },
    {
      "midi": 72,
      "hit": false,
      "t": 207822.59450000062,
      "d": 362.903250000003,
      "v": 112
    },
    {
      "midi": 64,
      "hit": false,
      "t": 208306.46550000063,
      "d": 725.806500000006,
      "v": 96
    },
    {
      "midi": 67,
      "hit": false,
      "t": 208306.46550000063,
      "d": 725.806500000006,
      "v": 96
    },
    {
      "midi": 72,
      "hit": false,
      "t": 208306.46550000063,
      "d": 725.806500000006,
      "v": 96
    },
    {
      "midi": 54,
      "hit": false,
      "t": 209032.27199999974,
      "d": 483.87100000001374,
      "v": 112
    },
    {
      "midi": 57,
      "hit": false,
      "t": 209032.27199999974,
      "d": 483.87100000001374,
      "v": 112
    },
    {
      "midi": 62,
      "hit": false,
      "t": 209032.27199999974,
      "d": 483.87100000001374,
      "v": 112
    },
    {
      "midi": 40,
      "hit": false,
      "t": 209032.27200000055,
      "d": 483.87100000001374,
      "v": 80
    },
    {
      "midi": 59,
      "hit": false,
      "t": 209032.27200000064,
      "d": 604.8387499999953,
      "v": 96
    },
    {
      "midi": 62,
      "hit": false,
      "t": 209032.27200000064,
      "d": 604.8387499999953,
      "v": 96
    },
    {
      "midi": 66,
      "hit": false,
      "t": 209032.27200000064,
      "d": 604.8387499999953,
      "v": 96
    },
    {
      "midi": 69,
      "hit": false,
      "t": 209032.27200000064,
      "d": 604.8387499999953,
      "v": 96
    },
    {
      "midi": 54,
      "hit": false,
      "t": 209758.07849999974,
      "d": 1209.6774999999907,
      "v": 112
    },
    {
      "midi": 57,
      "hit": false,
      "t": 209758.07849999974,
      "d": 1209.6774999999907,
      "v": 112
    },
    {
      "midi": 62,
      "hit": false,
      "t": 209758.07849999974,
      "d": 1209.6774999999907,
      "v": 112
    },
    {
      "midi": 40,
      "hit": false,
      "t": 209758.07850000056,
      "d": 483.87100000001374,
      "v": 80
    },
    {
      "midi": 59,
      "hit": false,
      "t": 209758.07850000064,
      "d": 1209.6774999999907,
      "v": 96
    },
    {
      "midi": 62,
      "hit": false,
      "t": 209758.07850000064,
      "d": 1209.6774999999907,
      "v": 96
    },
    {
      "midi": 66,
      "hit": false,
      "t": 209758.07850000064,
      "d": 1209.6774999999907,
      "v": 96
    },
    {
      "midi": 69,
      "hit": false,
      "t": 209758.07850000064,
      "d": 1209.6774999999907,
      "v": 96
    },
    {
      "midi": 52,
      "hit": false,
      "t": 210241.94950000057,
      "d": 483.87100000001374,
      "v": 80
    },
    {
      "midi": 48,
      "hit": false,
      "t": 210725.82050000058,
      "d": 241.93549999999232,
      "v": 80
    },
    {
      "midi": 53,
      "hit": false,
      "t": 210967.75599999973,
      "d": 1935.4839999999967,
      "v": 112
    },
    {
      "midi": 57,
      "hit": false,
      "t": 210967.75599999973,
      "d": 1935.4839999999967,
      "v": 112
    },
    {
      "midi": 60,
      "hit": false,
      "t": 210967.75599999973,
      "d": 1935.4839999999967,
      "v": 112
    },
    {
      "midi": 64,
      "hit": false,
      "t": 210967.75599999973,
      "d": 1935.4839999999967,
      "v": 112
    },
    {
      "midi": 41,
      "hit": false,
      "t": 210967.75600000058,
      "d": 1935.4839999999967,
      "v": 80
    },
    {
      "midi": 79,
      "hit": false,
      "t": 210967.75600000063,
      "d": 241.93550000002142,
      "v": 112
    },
    {
      "midi": 81,
      "hit": false,
      "t": 211088.72375000064,
      "d": 241.93550000002142,
      "v": 96
    },
    {
      "midi": 76,
      "hit": false,
      "t": 211209.69150000066,
      "d": 241.93550000002142,
      "v": 96
    },
    {
      "midi": 74,
      "hit": false,
      "t": 211330.65925000067,
      "d": 241.93550000002142,
      "v": 80
    },
    {
      "midi": 77,
      "hit": false,
      "t": 211451.62700000068,
      "d": 120.96775000001071,
      "v": 96
    },
    {
      "midi": 77,
      "hit": false,
      "t": 211693.5625000007,
      "d": 241.93549999999232,
      "v": 112
    },
    {
      "midi": 68,
      "hit": false,
      "t": 211935.4980000007,
      "d": 241.93550000002142,
      "v": 96
    },
    {
      "midi": 69,
      "hit": false,
      "t": 212056.4657500007,
      "d": 241.93550000002142,
      "v": 80
    },
    {
      "midi": 72,
      "hit": false,
      "t": 212177.4335000007,
      "d": 120.96775000001071,
      "v": 96
    },
    {
      "midi": 72,
      "hit": false,
      "t": 212419.36900000073,
      "d": 483.87100000001374,
      "v": 112
    },
    {
      "midi": 54,
      "hit": false,
      "t": 212903.23999999973,
      "d": 483.87100000001374,
      "v": 112
    },
    {
      "midi": 57,
      "hit": false,
      "t": 212903.23999999973,
      "d": 483.87100000001374,
      "v": 112
    },
    {
      "midi": 62,
      "hit": false,
      "t": 212903.23999999973,
      "d": 483.87100000001374,
      "v": 112
    },
    {
      "midi": 40,
      "hit": false,
      "t": 212903.24000000057,
      "d": 483.87100000001374,
      "v": 80
    },
    {
      "midi": 59,
      "hit": false,
      "t": 212903.24000000075,
      "d": 604.8387499999953,
      "v": 96
    },
    {
      "midi": 62,
      "hit": false,
      "t": 212903.24000000075,
      "d": 604.8387499999953,
      "v": 96
    },
    {
      "midi": 66,
      "hit": false,
      "t": 212903.24000000075,
      "d": 604.8387499999953,
      "v": 96
    },
    {
      "midi": 69,
      "hit": false,
      "t": 212903.24000000075,
      "d": 604.8387499999953,
      "v": 96
    },
    {
      "midi": 54,
      "hit": false,
      "t": 213629.04649999973,
      "d": 1209.6774999999907,
      "v": 112
    },
    {
      "midi": 57,
      "hit": false,
      "t": 213629.04649999973,
      "d": 1209.6774999999907,
      "v": 112
    },
    {
      "midi": 62,
      "hit": false,
      "t": 213629.04649999973,
      "d": 1209.6774999999907,
      "v": 112
    },
    {
      "midi": 40,
      "hit": false,
      "t": 213629.04650000058,
      "d": 483.87100000001374,
      "v": 80
    },
    {
      "midi": 59,
      "hit": false,
      "t": 213629.04650000075,
      "d": 1209.6774999999907,
      "v": 96
    },
    {
      "midi": 62,
      "hit": false,
      "t": 213629.04650000075,
      "d": 1209.6774999999907,
      "v": 96
    },
    {
      "midi": 66,
      "hit": false,
      "t": 213629.04650000075,
      "d": 1209.6774999999907,
      "v": 96
    },
    {
      "midi": 69,
      "hit": false,
      "t": 213629.04650000075,
      "d": 1209.6774999999907,
      "v": 96
    },
    {
      "midi": 52,
      "hit": false,
      "t": 214112.9175000006,
      "d": 483.87100000001374,
      "v": 80
    },
    {
      "midi": 48,
      "hit": false,
      "t": 214596.7885000006,
      "d": 241.93549999999232,
      "v": 80
    },
    {
      "midi": 53,
      "hit": false,
      "t": 214838.72399999973,
      "d": 1935.4839999999967,
      "v": 112
    },
    {
      "midi": 57,
      "hit": false,
      "t": 214838.72399999973,
      "d": 1935.4839999999967,
      "v": 112
    },
    {
      "midi": 60,
      "hit": false,
      "t": 214838.72399999973,
      "d": 1935.4839999999967,
      "v": 112
    },
    {
      "midi": 64,
      "hit": false,
      "t": 214838.72399999973,
      "d": 1935.4839999999967,
      "v": 112
    },
    {
      "midi": 41,
      "hit": false,
      "t": 214838.7240000006,
      "d": 1935.4839999999967,
      "v": 80
    },
    {
      "midi": 60,
      "hit": false,
      "t": 214838.72400000074,
      "d": 1935.484000000055,
      "v": 96
    },
    {
      "midi": 67,
      "hit": false,
      "t": 214838.72400000074,
      "d": 1935.484000000055,
      "v": 96
    },
    {
      "midi": 79,
      "hit": false,
      "t": 215322.59500000076,
      "d": 483.87100000001374,
      "v": 96
    },
    {
      "midi": 76,
      "hit": false,
      "t": 215483.8853333341,
      "d": 483.87100000001374,
      "v": 96
    },
    {
      "midi": 64,
      "hit": false,
      "t": 215645.17566666743,
      "d": 483.87100000001374,
      "v": 96
    },
    {
      "midi": 79,
      "hit": false,
      "t": 215806.46600000077,
      "d": 483.87100000001374,
      "v": 96
    },
    {
      "midi": 76,
      "hit": false,
      "t": 215967.7563333341,
      "d": 483.87100000001374,
      "v": 96
    },
    {
      "midi": 64,
      "hit": false,
      "t": 216129.04666666745,
      "d": 483.87100000001374,
      "v": 96
    },
    {
      "midi": 79,
      "hit": false,
      "t": 216290.33700000079,
      "d": 483.87100000001374,
      "v": 96
    },
    {
      "midi": 76,
      "hit": false,
      "t": 216451.62733333412,
      "d": 483.87100000001374,
      "v": 96
    },
    {
      "midi": 64,
      "hit": false,
      "t": 216612.91766666746,
      "d": 161.2903333333379,
      "v": 96
    },
    {
      "midi": 54,
      "hit": false,
      "t": 216774.20799999972,
      "d": 483.87100000001374,
      "v": 112
    },
    {
      "midi": 57,
      "hit": false,
      "t": 216774.20799999972,
      "d": 483.87100000001374,
      "v": 112
    },
    {
      "midi": 62,
      "hit": false,
      "t": 216774.20799999972,
      "d": 483.87100000001374,
      "v": 112
    },
    {
      "midi": 40,
      "hit": false,
      "t": 216774.2080000006,
      "d": 483.87100000001374,
      "v": 80
    },
    {
      "midi": 59,
      "hit": false,
      "t": 216774.2080000008,
      "d": 604.8387499999953,
      "v": 96
    },
    {
      "midi": 62,
      "hit": false,
      "t": 216774.2080000008,
      "d": 604.8387499999953,
      "v": 96
    },
    {
      "midi": 66,
      "hit": false,
      "t": 216774.2080000008,
      "d": 604.8387499999953,
      "v": 96
    },
    {
      "midi": 69,
      "hit": false,
      "t": 216774.2080000008,
      "d": 604.8387499999953,
      "v": 96
    },
    {
      "midi": 54,
      "hit": false,
      "t": 217500.01449999973,
      "d": 1209.6774999999907,
      "v": 112
    },
    {
      "midi": 57,
      "hit": false,
      "t": 217500.01449999973,
      "d": 1209.6774999999907,
      "v": 112
    },
    {
      "midi": 62,
      "hit": false,
      "t": 217500.01449999973,
      "d": 1209.6774999999907,
      "v": 112
    },
    {
      "midi": 40,
      "hit": false,
      "t": 217500.0145000006,
      "d": 483.87100000001374,
      "v": 80
    },
    {
      "midi": 59,
      "hit": false,
      "t": 217500.0145000008,
      "d": 1209.6774999999907,
      "v": 96
    },
    {
      "midi": 62,
      "hit": false,
      "t": 217500.0145000008,
      "d": 1209.6774999999907,
      "v": 96
    },
    {
      "midi": 66,
      "hit": false,
      "t": 217500.0145000008,
      "d": 1209.6774999999907,
      "v": 96
    },
    {
      "midi": 69,
      "hit": false,
      "t": 217500.0145000008,
      "d": 1209.6774999999907,
      "v": 96
    },
    {
      "midi": 52,
      "hit": false,
      "t": 217983.88550000062,
      "d": 483.87100000001374,
      "v": 80
    },
    {
      "midi": 48,
      "hit": false,
      "t": 218467.75650000063,
      "d": 241.93549999999232,
      "v": 80
    },
    {
      "midi": 53,
      "hit": false,
      "t": 218709.69199999972,
      "d": 1935.4839999999967,
      "v": 112
    },
    {
      "midi": 57,
      "hit": false,
      "t": 218709.69199999972,
      "d": 1935.4839999999967,
      "v": 112
    },
    {
      "midi": 60,
      "hit": false,
      "t": 218709.69199999972,
      "d": 1935.4839999999967,
      "v": 112
    },
    {
      "midi": 64,
      "hit": false,
      "t": 218709.69199999972,
      "d": 1935.4839999999967,
      "v": 112
    },
    {
      "midi": 41,
      "hit": false,
      "t": 218709.69200000062,
      "d": 1935.4839999999967,
      "v": 80
    },
    {
      "midi": 65,
      "hit": false,
      "t": 218951.6275000008,
      "d": 241.93550000002142,
      "v": 96
    },
    {
      "midi": 69,
      "hit": false,
      "t": 219072.5952500008,
      "d": 241.93550000002142,
      "v": 96
    },
    {
      "midi": 72,
      "hit": false,
      "t": 219193.5630000008,
      "d": 241.93550000002142,
      "v": 96
    },
    {
      "midi": 69,
      "hit": false,
      "t": 219314.53075000082,
      "d": 241.93550000002142,
      "v": 96
    },
    {
      "midi": 72,
      "hit": false,
      "t": 219435.49850000083,
      "d": 241.93550000002142,
      "v": 96
    },
    {
      "midi": 76,
      "hit": false,
      "t": 219556.46625000084,
      "d": 241.93550000002142,
      "v": 96
    },
    {
      "midi": 72,
      "hit": false,
      "t": 219677.43400000085,
      "d": 241.93550000002142,
      "v": 96
    },
    {
      "midi": 76,
      "hit": false,
      "t": 219798.40175000086,
      "d": 241.93550000002142,
      "v": 96
    },
    {
      "midi": 79,
      "hit": false,
      "t": 219919.36950000087,
      "d": 241.93550000002142,
      "v": 96
    },
    {
      "midi": 72,
      "hit": false,
      "t": 220040.33725000088,
      "d": 241.93550000002142,
      "v": 96
    },
    {
      "midi": 76,
      "hit": false,
      "t": 220161.3050000009,
      "d": 241.93550000002142,
      "v": 96
    },
    {
      "midi": 79,
      "hit": false,
      "t": 220282.2727500009,
      "d": 241.93550000002142,
      "v": 96
    },
    {
      "midi": 76,
      "hit": false,
      "t": 220403.24050000092,
      "d": 241.93550000002142,
      "v": 96
    },
    {
      "midi": 79,
      "hit": false,
      "t": 220524.20825000093,
      "d": 241.93550000002142,
      "v": 96
    },
    {
      "midi": 54,
      "hit": false,
      "t": 220645.17599999972,
      "d": 483.87100000001374,
      "v": 112
    },
    {
      "midi": 57,
      "hit": false,
      "t": 220645.17599999972,
      "d": 483.87100000001374,
      "v": 112
    },
    {
      "midi": 62,
      "hit": false,
      "t": 220645.17599999972,
      "d": 483.87100000001374,
      "v": 112
    },
    {
      "midi": 40,
      "hit": false,
      "t": 220645.17600000062,
      "d": 483.87100000001374,
      "v": 80
    },
    {
      "midi": 59,
      "hit": false,
      "t": 220645.17600000094,
      "d": 604.8387500000244,
      "v": 96
    },
    {
      "midi": 62,
      "hit": false,
      "t": 220645.17600000094,
      "d": 604.8387500000244,
      "v": 96
    },
    {
      "midi": 66,
      "hit": false,
      "t": 220645.17600000094,
      "d": 604.8387500000244,
      "v": 96
    },
    {
      "midi": 69,
      "hit": false,
      "t": 220645.17600000094,
      "d": 604.8387500000244,
      "v": 96
    },
    {
      "midi": 54,
      "hit": false,
      "t": 221370.98249999972,
      "d": 1209.6774999999907,
      "v": 112
    },
    {
      "midi": 57,
      "hit": false,
      "t": 221370.98249999972,
      "d": 1209.6774999999907,
      "v": 112
    },
    {
      "midi": 62,
      "hit": false,
      "t": 221370.98249999972,
      "d": 1209.6774999999907,
      "v": 112
    },
    {
      "midi": 40,
      "hit": false,
      "t": 221370.98250000062,
      "d": 483.87100000001374,
      "v": 80
    },
    {
      "midi": 59,
      "hit": false,
      "t": 221370.98250000097,
      "d": 1209.6774999999907,
      "v": 96
    },
    {
      "midi": 62,
      "hit": false,
      "t": 221370.98250000097,
      "d": 1209.6774999999907,
      "v": 96
    },
    {
      "midi": 66,
      "hit": false,
      "t": 221370.98250000097,
      "d": 1209.6774999999907,
      "v": 96
    },
    {
      "midi": 69,
      "hit": false,
      "t": 221370.98250000097,
      "d": 1209.6774999999907,
      "v": 96
    },
    {
      "midi": 52,
      "hit": false,
      "t": 221854.85350000064,
      "d": 483.87100000001374,
      "v": 80
    },
    {
      "midi": 48,
      "hit": false,
      "t": 222338.72450000065,
      "d": 241.93549999999232,
      "v": 80
    },
    {
      "midi": 53,
      "hit": false,
      "t": 222580.6599999997,
      "d": 1935.4839999999967,
      "v": 112
    },
    {
      "midi": 57,
      "hit": false,
      "t": 222580.6599999997,
      "d": 1935.4839999999967,
      "v": 112
    },
    {
      "midi": 60,
      "hit": false,
      "t": 222580.6599999997,
      "d": 1935.4839999999967,
      "v": 112
    },
    {
      "midi": 64,
      "hit": false,
      "t": 222580.6599999997,
      "d": 1935.4839999999967,
      "v": 112
    },
    {
      "midi": 41,
      "hit": false,
      "t": 222580.66000000064,
      "d": 1935.4839999999967,
      "v": 80
    },
    {
      "midi": 69,
      "hit": false,
      "t": 222822.59550000096,
      "d": 483.87100000001374,
      "v": 96
    },
    {
      "midi": 72,
      "hit": false,
      "t": 222822.59550000096,
      "d": 483.87100000001374,
      "v": 96
    },
    {
      "midi": 69,
      "hit": false,
      "t": 223306.46650000097,
      "d": 120.9677499999816,
      "v": 96
    },
    {
      "midi": 72,
      "hit": false,
      "t": 223387.11166666762,
      "d": 120.9677499999816,
      "v": 96
    },
    {
      "midi": 69,
      "hit": false,
      "t": 223467.75683333428,
      "d": 120.9677499999816,
      "v": 96
    },
    {
      "midi": 65,
      "hit": false,
      "t": 223548.40200000093,
      "d": 483.87099999995553,
      "v": 96
    },
    {
      "midi": 69,
      "hit": false,
      "t": 223790.33750000093,
      "d": 120.9677499999816,
      "v": 96
    },
    {
      "midi": 72,
      "hit": false,
      "t": 223870.98266666758,
      "d": 120.9677499999816,
      "v": 96
    },
    {
      "midi": 69,
      "hit": false,
      "t": 223951.62783333423,
      "d": 120.9677499999816,
      "v": 96
    },
    {
      "midi": 65,
      "hit": false,
      "t": 224032.2730000009,
      "d": 483.87099999995553,
      "v": 96
    },
    {
      "midi": 69,
      "hit": false,
      "t": 224274.20850000088,
      "d": 120.9677499999816,
      "v": 96
    },
    {
      "midi": 72,
      "hit": false,
      "t": 224354.85366666754,
      "d": 120.9677499999816,
      "v": 96
    },
    {
      "midi": 54,
      "hit": false,
      "t": 224516.1439999997,
      "d": 483.87100000001374,
      "v": 112
    },
    {
      "midi": 57,
      "hit": false,
      "t": 224516.1439999997,
      "d": 483.87100000001374,
      "v": 112
    },
    {
      "midi": 62,
      "hit": false,
      "t": 224516.1439999997,
      "d": 483.87100000001374,
      "v": 112
    },
    {
      "midi": 40,
      "hit": false,
      "t": 224516.14400000064,
      "d": 483.87100000001374,
      "v": 80
    },
    {
      "midi": 59,
      "hit": false,
      "t": 224516.14400000084,
      "d": 604.8387499999953,
      "v": 96
    },
    {
      "midi": 62,
      "hit": false,
      "t": 224516.14400000084,
      "d": 604.8387499999953,
      "v": 96
    },
    {
      "midi": 66,
      "hit": false,
      "t": 224516.14400000084,
      "d": 604.8387499999953,
      "v": 96
    },
    {
      "midi": 69,
      "hit": false,
      "t": 224516.14400000084,
      "d": 604.8387499999953,
      "v": 96
    },
    {
      "midi": 54,
      "hit": false,
      "t": 225241.95049999972,
      "d": 1209.6774999999907,
      "v": 112
    },
    {
      "midi": 57,
      "hit": false,
      "t": 225241.95049999972,
      "d": 1209.6774999999907,
      "v": 112
    },
    {
      "midi": 62,
      "hit": false,
      "t": 225241.95049999972,
      "d": 1209.6774999999907,
      "v": 112
    },
    {
      "midi": 40,
      "hit": false,
      "t": 225241.95050000065,
      "d": 483.87100000001374,
      "v": 80
    },
    {
      "midi": 59,
      "hit": false,
      "t": 225241.95050000085,
      "d": 1209.6774999999907,
      "v": 96
    },
    {
      "midi": 62,
      "hit": false,
      "t": 225241.95050000085,
      "d": 1209.6774999999907,
      "v": 96
    },
    {
      "midi": 66,
      "hit": false,
      "t": 225241.95050000085,
      "d": 1209.6774999999907,
      "v": 96
    },
    {
      "midi": 69,
      "hit": false,
      "t": 225241.95050000085,
      "d": 1209.6774999999907,
      "v": 96
    },
    {
      "midi": 52,
      "hit": false,
      "t": 225725.82150000066,
      "d": 483.87100000001374,
      "v": 80
    },
    {
      "midi": 48,
      "hit": false,
      "t": 226209.69250000067,
      "d": 241.93549999999232,
      "v": 80
    },
    {
      "midi": 53,
      "hit": false,
      "t": 226451.6279999997,
      "d": 1935.4839999999967,
      "v": 112
    },
    {
      "midi": 57,
      "hit": false,
      "t": 226451.6279999997,
      "d": 1935.4839999999967,
      "v": 112
    },
    {
      "midi": 60,
      "hit": false,
      "t": 226451.6279999997,
      "d": 1935.4839999999967,
      "v": 112
    },
    {
      "midi": 64,
      "hit": false,
      "t": 226451.6279999997,
      "d": 1935.4839999999967,
      "v": 112
    },
    {
      "midi": 41,
      "hit": false,
      "t": 226451.62800000067,
      "d": 1935.4839999999967,
      "v": 80
    },
    {
      "midi": 91,
      "hit": false,
      "t": 226451.62800000084,
      "d": 161.2903333333379,
      "v": 80
    },
    {
      "midi": 88,
      "hit": false,
      "t": 226572.59575000085,
      "d": 161.2903333333088,
      "v": 80
    },
    {
      "midi": 86,
      "hit": false,
      "t": 226693.56350000083,
      "d": 161.2903333333088,
      "v": 80
    },
    {
      "midi": 79,
      "hit": false,
      "t": 226814.53125000081,
      "d": 161.2903333333088,
      "v": 80
    },
    {
      "midi": 86,
      "hit": false,
      "t": 226854.85383333414,
      "d": 161.2903333333088,
      "v": 80
    },
    {
      "midi": 88,
      "hit": false,
      "t": 226935.4990000008,
      "d": 161.2903333333088,
      "v": 80
    },
    {
      "midi": 91,
      "hit": false,
      "t": 227016.14416666745,
      "d": 161.2903333333088,
      "v": 80
    },
    {
      "midi": 88,
      "hit": false,
      "t": 227096.7893333341,
      "d": 161.2903333333088,
      "v": 80
    },
    {
      "midi": 86,
      "hit": false,
      "t": 227177.43450000076,
      "d": 161.2903333333088,
      "v": 80
    },
    {
      "midi": 79,
      "hit": false,
      "t": 227258.0796666674,
      "d": 161.2903333333088,
      "v": 80
    },
    {
      "midi": 86,
      "hit": false,
      "t": 227338.72483333407,
      "d": 161.2903333333088,
      "v": 80
    },
    {
      "midi": 88,
      "hit": false,
      "t": 227419.37000000072,
      "d": 161.2903333333088,
      "v": 80
    },
    {
      "midi": 91,
      "hit": false,
      "t": 227500.01516666738,
      "d": 161.2903333333088,
      "v": 80
    },
    {
      "midi": 88,
      "hit": false,
      "t": 227580.66033333403,
      "d": 161.2903333333088,
      "v": 80
    },
    {
      "midi": 86,
      "hit": false,
      "t": 227661.3055000007,
      "d": 161.2903333333088,
      "v": 80
    },
    {
      "midi": 79,
      "hit": false,
      "t": 227741.95066666734,
      "d": 161.2903333333088,
      "v": 80
    },
    {
      "midi": 86,
      "hit": false,
      "t": 227822.595833334,
      "d": 161.2903333333088,
      "v": 80
    },
    {
      "midi": 88,
      "hit": false,
      "t": 227903.24100000065,
      "d": 161.2903333333088,
      "v": 80
    },
    {
      "midi": 91,
      "hit": false,
      "t": 227983.8861666673,
      "d": 161.2903333333088,
      "v": 80
    },
    {
      "midi": 88,
      "hit": false,
      "t": 228064.53133333396,
      "d": 161.2903333333088,
      "v": 80
    },
    {
      "midi": 86,
      "hit": false,
      "t": 228145.1765000006,
      "d": 161.2903333333088,
      "v": 80
    },
    {
      "midi": 79,
      "hit": false,
      "t": 228225.82166666727,
      "d": 161.2903333333088,
      "v": 80
    },
    {
      "midi": 54,
      "hit": false,
      "t": 228387.1119999997,
      "d": 483.87100000001374,
      "v": 112
    },
    {
      "midi": 57,
      "hit": false,
      "t": 228387.1119999997,
      "d": 483.87100000001374,
      "v": 112
    },
    {
      "midi": 62,
      "hit": false,
      "t": 228387.1119999997,
      "d": 483.87100000001374,
      "v": 112
    },
    {
      "midi": 59,
      "hit": false,
      "t": 228387.11200000058,
      "d": 604.8387499999953,
      "v": 96
    },
    {
      "midi": 62,
      "hit": false,
      "t": 228387.11200000058,
      "d": 604.8387499999953,
      "v": 96
    },
    {
      "midi": 66,
      "hit": false,
      "t": 228387.11200000058,
      "d": 604.8387499999953,
      "v": 96
    },
    {
      "midi": 69,
      "hit": false,
      "t": 228387.11200000058,
      "d": 604.8387499999953,
      "v": 96
    },
    {
      "midi": 40,
      "hit": false,
      "t": 228387.11200000066,
      "d": 483.87100000001374,
      "v": 80
    },
    {
      "midi": 54,
      "hit": false,
      "t": 229112.9184999997,
      "d": 1209.6774999999907,
      "v": 112
    },
    {
      "midi": 57,
      "hit": false,
      "t": 229112.9184999997,
      "d": 1209.6774999999907,
      "v": 112
    },
    {
      "midi": 62,
      "hit": false,
      "t": 229112.9184999997,
      "d": 1209.6774999999907,
      "v": 112
    },
    {
      "midi": 59,
      "hit": false,
      "t": 229112.91850000058,
      "d": 1209.6774999999907,
      "v": 96
    },
    {
      "midi": 62,
      "hit": false,
      "t": 229112.91850000058,
      "d": 1209.6774999999907,
      "v": 96
    },
    {
      "midi": 66,
      "hit": false,
      "t": 229112.91850000058,
      "d": 1209.6774999999907,
      "v": 96
    },
    {
      "midi": 69,
      "hit": false,
      "t": 229112.91850000058,
      "d": 1209.6774999999907,
      "v": 96
    },
    {
      "midi": 40,
      "hit": false,
      "t": 229112.91850000067,
      "d": 483.87100000001374,
      "v": 80
    },
    {
      "midi": 52,
      "hit": false,
      "t": 229596.78950000068,
      "d": 483.87100000001374,
      "v": 80
    },
    {
      "midi": 48,
      "hit": false,
      "t": 230080.6605000007,
      "d": 241.93549999999232,
      "v": 80
    },
    {
      "midi": 53,
      "hit": false,
      "t": 230322.5959999997,
      "d": 1935.4839999999967,
      "v": 112
    },
    {
      "midi": 57,
      "hit": false,
      "t": 230322.5959999997,
      "d": 1935.4839999999967,
      "v": 112
    },
    {
      "midi": 60,
      "hit": false,
      "t": 230322.5959999997,
      "d": 1935.4839999999967,
      "v": 112
    },
    {
      "midi": 64,
      "hit": false,
      "t": 230322.5959999997,
      "d": 1935.4839999999967,
      "v": 112
    },
    {
      "midi": 41,
      "hit": false,
      "t": 230322.5960000007,
      "d": 1935.4839999999967,
      "v": 80
    },
    {
      "midi": 76,
      "hit": false,
      "t": 230564.53150000056,
      "d": 241.93550000002142,
      "v": 80
    },
    {
      "midi": 74,
      "hit": false,
      "t": 230685.49925000058,
      "d": 241.93550000002142,
      "v": 80
    },
    {
      "midi": 72,
      "hit": false,
      "t": 230806.4670000006,
      "d": 241.93550000002142,
      "v": 80
    },
    {
      "midi": 67,
      "hit": false,
      "t": 230927.4347500006,
      "d": 241.93550000002142,
      "v": 80
    },
    {
      "midi": 72,
      "hit": false,
      "t": 231048.4025000006,
      "d": 241.93550000002142,
      "v": 80
    },
    {
      "midi": 74,
      "hit": false,
      "t": 231169.37025000062,
      "d": 241.93550000002142,
      "v": 80
    },
    {
      "midi": 76,
      "hit": false,
      "t": 231290.33800000063,
      "d": 241.93550000002142,
      "v": 80
    },
    {
      "midi": 79,
      "hit": false,
      "t": 231411.30575000064,
      "d": 241.93550000002142,
      "v": 80
    },
    {
      "midi": 81,
      "hit": false,
      "t": 231653.24125000066,
      "d": 241.93550000002142,
      "v": 80
    },
    {
      "midi": 83,
      "hit": false,
      "t": 231774.20900000067,
      "d": 241.93550000002142,
      "v": 80
    },
    {
      "midi": 54,
      "hit": false,
      "t": 232258.0799999997,
      "d": 483.87100000001374,
      "v": 112
    },
    {
      "midi": 57,
      "hit": false,
      "t": 232258.0799999997,
      "d": 483.87100000001374,
      "v": 112
    },
    {
      "midi": 62,
      "hit": false,
      "t": 232258.0799999997,
      "d": 483.87100000001374,
      "v": 112
    },
    {
      "midi": 59,
      "hit": false,
      "t": 232258.0800000007,
      "d": 604.8387499999953,
      "v": 96
    },
    {
      "midi": 62,
      "hit": false,
      "t": 232258.0800000007,
      "d": 604.8387499999953,
      "v": 96
    },
    {
      "midi": 66,
      "hit": false,
      "t": 232258.0800000007,
      "d": 604.8387499999953,
      "v": 96
    },
    {
      "midi": 69,
      "hit": false,
      "t": 232258.0800000007,
      "d": 604.8387499999953,
      "v": 96
    },
    {
      "midi": 40,
      "hit": false,
      "t": 232258.0800000007,
      "d": 483.87100000001374,
      "v": 80
    },
    {
      "midi": 54,
      "hit": false,
      "t": 232983.8864999997,
      "d": 1209.6774999999907,
      "v": 112
    },
    {
      "midi": 57,
      "hit": false,
      "t": 232983.8864999997,
      "d": 1209.6774999999907,
      "v": 112
    },
    {
      "midi": 62,
      "hit": false,
      "t": 232983.8864999997,
      "d": 1209.6774999999907,
      "v": 112
    },
    {
      "midi": 59,
      "hit": false,
      "t": 232983.8865000007,
      "d": 1209.6774999999907,
      "v": 96
    },
    {
      "midi": 62,
      "hit": false,
      "t": 232983.8865000007,
      "d": 1209.6774999999907,
      "v": 96
    },
    {
      "midi": 66,
      "hit": false,
      "t": 232983.8865000007,
      "d": 1209.6774999999907,
      "v": 96
    },
    {
      "midi": 69,
      "hit": false,
      "t": 232983.8865000007,
      "d": 1209.6774999999907,
      "v": 96
    },
    {
      "midi": 40,
      "hit": false,
      "t": 232983.8865000007,
      "d": 483.87100000001374,
      "v": 80
    },
    {
      "midi": 52,
      "hit": false,
      "t": 233467.7575000007,
      "d": 483.87100000001374,
      "v": 80
    },
    {
      "midi": 48,
      "hit": false,
      "t": 233951.62850000072,
      "d": 241.93549999999232,
      "v": 80
    }
  ]
}