{
  "jsonPath": "Rock/Album Rock/Steely Dan/fm.json",
  "path": "Rock\\Album Rock\\Steely Dan\\FM.mid",
  "name": "FM",
  "difficulty": "Advanced",
  "bpm": 113.00030886751091,
  "notes": [
    {
      "midi": 61,
      "hit": false,
      "t": 2115.038466666667,
      "d": 265.48600000000033,
      "v": 100
    },
    {
      "midi": 57,
      "hit": false,
      "t": 2123.8880000000004,
      "d": 274.33553333333384,
      "v": 98
    },
    {
      "midi": 62,
      "hit": false,
      "t": 2389.3740000000007,
      "d": 265.48600000000033,
      "v": 81
    },
    {
      "midi": 59,
      "hit": false,
      "t": 2389.3740000000007,
      "d": 278.76030000000037,
      "v": 82
    },
    {
      "midi": 57,
      "hit": false,
      "t": 2654.860000000001,
      "d": 243.36216666666678,
      "v": 82
    },
    {
      "midi": 61,
      "hit": false,
      "t": 2654.860000000001,
      "d": 287.6098333333339,
      "v": 79
    },
    {
      "midi": 62,
      "hit": false,
      "t": 2920.3460000000014,
      "d": 234.51263333333372,
      "v": 82
    },
    {
      "midi": 59,
      "hit": false,
      "t": 2920.3460000000014,
      "d": 296.45936666666694,
      "v": 81
    },
    {
      "midi": 57,
      "hit": false,
      "t": 3185.8320000000017,
      "d": 252.21169999999984,
      "v": 82
    },
    {
      "midi": 61,
      "hit": false,
      "t": 3185.8320000000017,
      "d": 265.4859999999999,
      "v": 77
    },
    {
      "midi": 62,
      "hit": false,
      "t": 3451.3180000000016,
      "d": 225.6631000000002,
      "v": 83
    },
    {
      "midi": 59,
      "hit": false,
      "t": 3451.3180000000016,
      "d": 256.6364666666668,
      "v": 82
    },
    {
      "midi": 57,
      "hit": false,
      "t": 3716.804000000002,
      "d": 247.7869333333333,
      "v": 81
    },
    {
      "midi": 61,
      "hit": false,
      "t": 3716.804000000002,
      "d": 269.9107666666664,
      "v": 79
    },
    {
      "midi": 62,
      "hit": false,
      "t": 3982.290000000002,
      "d": 225.66309999999976,
      "v": 83
    },
    {
      "midi": 59,
      "hit": false,
      "t": 3982.290000000002,
      "d": 278.7602999999999,
      "v": 82
    },
    {
      "midi": 57,
      "hit": false,
      "t": 4247.776000000002,
      "d": 265.4859999999999,
      "v": 79
    },
    {
      "midi": 61,
      "hit": false,
      "t": 4247.776000000002,
      "d": 287.609833333333,
      "v": 80
    },
    {
      "midi": 62,
      "hit": false,
      "t": 4513.2620000000015,
      "d": 252.21169999999984,
      "v": 80
    },
    {
      "midi": 59,
      "hit": false,
      "t": 4513.2620000000015,
      "d": 296.45936666666694,
      "v": 82
    },
    {
      "midi": 57,
      "hit": false,
      "t": 4778.748000000001,
      "d": 274.33553333333384,
      "v": 81
    },
    {
      "midi": 61,
      "hit": false,
      "t": 4778.748000000001,
      "d": 287.6098333333339,
      "v": 79
    },
    {
      "midi": 62,
      "hit": false,
      "t": 5044.234000000002,
      "d": 247.78693333333285,
      "v": 81
    },
    {
      "midi": 59,
      "hit": false,
      "t": 5044.234000000002,
      "d": 292.03459999999995,
      "v": 80
    },
    {
      "midi": 57,
      "hit": false,
      "t": 5309.720000000002,
      "d": 261.0612333333338,
      "v": 80
    },
    {
      "midi": 61,
      "hit": false,
      "t": 5309.720000000002,
      "d": 269.91076666666777,
      "v": 80
    },
    {
      "midi": 62,
      "hit": false,
      "t": 5575.206000000003,
      "d": 238.9374000000007,
      "v": 82
    },
    {
      "midi": 59,
      "hit": false,
      "t": 5575.206000000003,
      "d": 296.45936666666785,
      "v": 81
    },
    {
      "midi": 61,
      "hit": false,
      "t": 5840.692000000004,
      "d": 265.4860000000008,
      "v": 79
    },
    {
      "midi": 57,
      "hit": false,
      "t": 5840.692000000004,
      "d": 278.7603000000008,
      "v": 82
    },
    {
      "midi": 62,
      "hit": false,
      "t": 6106.178000000004,
      "d": 265.4859999999999,
      "v": 82
    },
    {
      "midi": 59,
      "hit": false,
      "t": 6106.178000000004,
      "d": 296.45936666666694,
      "v": 80
    },
    {
      "midi": 61,
      "hit": false,
      "t": 6371.664000000004,
      "d": 265.4860000000008,
      "v": 80
    },
    {
      "midi": 57,
      "hit": false,
      "t": 6371.664000000004,
      "d": 287.6098333333339,
      "v": 79
    },
    {
      "midi": 62,
      "hit": false,
      "t": 6637.150000000005,
      "d": 274.33553333333293,
      "v": 81
    },
    {
      "midi": 59,
      "hit": false,
      "t": 6637.150000000005,
      "d": 287.609833333333,
      "v": 79
    },
    {
      "midi": 61,
      "hit": false,
      "t": 6902.636000000005,
      "d": 287.609833333333,
      "v": 79
    },
    {
      "midi": 57,
      "hit": false,
      "t": 6902.636000000005,
      "d": 296.459366666666,
      "v": 79
    },
    {
      "midi": 62,
      "hit": false,
      "t": 7168.122000000005,
      "d": 265.4859999999999,
      "v": 80
    },
    {
      "midi": 59,
      "hit": false,
      "t": 7168.122000000005,
      "d": 296.45936666666694,
      "v": 81
    },
    {
      "midi": 57,
      "hit": false,
      "t": 7433.608000000005,
      "d": 287.6098333333339,
      "v": 77
    },
    {
      "midi": 61,
      "hit": false,
      "t": 7433.608000000005,
      "d": 287.6098333333339,
      "v": 80
    },
    {
      "midi": 62,
      "hit": false,
      "t": 7699.0940000000055,
      "d": 247.78693333333285,
      "v": 80
    },
    {
      "midi": 59,
      "hit": false,
      "t": 7699.0940000000055,
      "d": 283.1850666666669,
      "v": 81
    },
    {
      "midi": 57,
      "hit": false,
      "t": 7964.580000000005,
      "d": 252.21169999999984,
      "v": 74
    },
    {
      "midi": 61,
      "hit": false,
      "t": 7964.580000000005,
      "d": 269.91076666666595,
      "v": 78
    },
    {
      "midi": 62,
      "hit": false,
      "t": 8230.066000000004,
      "d": 252.21169999999984,
      "v": 82
    },
    {
      "midi": 59,
      "hit": false,
      "t": 8230.066000000004,
      "d": 287.60983333333206,
      "v": 80
    },
    {
      "midi": 57,
      "hit": false,
      "t": 8495.552000000003,
      "d": 265.48599999999897,
      "v": 79
    },
    {
      "midi": 61,
      "hit": false,
      "t": 8495.552000000003,
      "d": 309.73366666666516,
      "v": 80
    },
    {
      "midi": 62,
      "hit": false,
      "t": 8761.038000000002,
      "d": 234.51263333333372,
      "v": 76
    },
    {
      "midi": 59,
      "hit": false,
      "t": 8761.038000000002,
      "d": 287.6098333333339,
      "v": 81
    },
    {
      "midi": 57,
      "hit": false,
      "t": 9026.524000000003,
      "d": 269.91076666666595,
      "v": 78
    },
    {
      "midi": 61,
      "hit": false,
      "t": 9026.524000000003,
      "d": 296.459366666666,
      "v": 79
    },
    {
      "midi": 62,
      "hit": false,
      "t": 9292.010000000002,
      "d": 252.21169999999984,
      "v": 80
    },
    {
      "midi": 59,
      "hit": false,
      "t": 9292.010000000002,
      "d": 296.459366666666,
      "v": 81
    },
    {
      "midi": 57,
      "hit": false,
      "t": 9557.496000000001,
      "d": 265.4860000000008,
      "v": 80
    },
    {
      "midi": 61,
      "hit": false,
      "t": 9557.496000000001,
      "d": 318.58320000000094,
      "v": 81
    },
    {
      "midi": 62,
      "hit": false,
      "t": 9822.982000000002,
      "d": 252.21169999999984,
      "v": 82
    },
    {
      "midi": 59,
      "hit": false,
      "t": 9822.982000000002,
      "d": 296.459366666666,
      "v": 81
    },
    {
      "midi": 57,
      "hit": false,
      "t": 10088.468,
      "d": 247.78693333333285,
      "v": 80
    },
    {
      "midi": 61,
      "hit": false,
      "t": 10088.468,
      "d": 287.60983333333206,
      "v": 80
    },
    {
      "midi": 62,
      "hit": false,
      "t": 10353.954,
      "d": 252.21169999999984,
      "v": 80
    },
    {
      "midi": 59,
      "hit": false,
      "t": 10353.954,
      "d": 309.73366666666516,
      "v": 82
    },
    {
      "midi": 57,
      "hit": false,
      "t": 10619.439999999999,
      "d": 265.48599999999897,
      "v": 80
    },
    {
      "midi": 61,
      "hit": false,
      "t": 10619.439999999999,
      "d": 296.459366666666,
      "v": 80
    },
    {
      "midi": 62,
      "hit": false,
      "t": 10884.925999999998,
      "d": 287.6098333333339,
      "v": 81
    },
    {
      "midi": 59,
      "hit": false,
      "t": 10884.925999999998,
      "d": 296.45936666666785,
      "v": 81
    },
    {
      "midi": 57,
      "hit": false,
      "t": 11150.411999999998,
      "d": 296.45936666666785,
      "v": 79
    },
    {
      "midi": 61,
      "hit": false,
      "t": 11150.411999999998,
      "d": 296.45936666666785,
      "v": 80
    },
    {
      "midi": 62,
      "hit": false,
      "t": 11415.898,
      "d": 252.21169999999984,
      "v": 73
    },
    {
      "midi": 59,
      "hit": false,
      "t": 11415.898,
      "d": 309.73366666666516,
      "v": 80
    },
    {
      "midi": 57,
      "hit": false,
      "t": 11681.383999999998,
      "d": 274.33553333333293,
      "v": 81
    },
    {
      "midi": 61,
      "hit": false,
      "t": 11681.383999999998,
      "d": 305.3089,
      "v": 80
    },
    {
      "midi": 62,
      "hit": false,
      "t": 11946.869999999997,
      "d": 265.4860000000008,
      "v": 76
    },
    {
      "midi": 59,
      "hit": false,
      "t": 11946.869999999997,
      "d": 309.733666666667,
      "v": 81
    },
    {
      "midi": 61,
      "hit": false,
      "t": 12212.355999999998,
      "d": 274.33553333333293,
      "v": 78
    },
    {
      "midi": 57,
      "hit": false,
      "t": 12212.355999999998,
      "d": 283.1850666666669,
      "v": 76
    },
    {
      "midi": 62,
      "hit": false,
      "t": 12477.841999999997,
      "d": 274.33553333333475,
      "v": 80
    },
    {
      "midi": 59,
      "hit": false,
      "t": 12477.841999999997,
      "d": 296.45936666666785,
      "v": 79
    },
    {
      "midi": 61,
      "hit": false,
      "t": 12743.327999999998,
      "d": 283.1850666666669,
      "v": 78
    },
    {
      "midi": 57,
      "hit": false,
      "t": 12743.327999999998,
      "d": 287.6098333333339,
      "v": 79
    },
    {
      "midi": 59,
      "hit": false,
      "t": 12876.070999999998,
      "d": 309.733666666667,
      "v": 81
    },
    {
      "midi": 62,
      "hit": false,
      "t": 13008.813999999998,
      "d": 252.21169999999984,
      "v": 80
    },
    {
      "midi": 57,
      "hit": false,
      "t": 13274.299999999997,
      "d": 274.33553333333293,
      "v": 77
    },
    {
      "midi": 61,
      "hit": false,
      "t": 13274.299999999997,
      "d": 283.1850666666669,
      "v": 80
    },
    {
      "midi": 62,
      "hit": false,
      "t": 13407.042999999998,
      "d": 265.48599999999897,
      "v": 82
    },
    {
      "midi": 59,
      "hit": false,
      "t": 13407.042999999998,
      "d": 292.03459999999905,
      "v": 81
    },
    {
      "midi": 57,
      "hit": false,
      "t": 13672.528999999997,
      "d": 309.733666666667,
      "v": 80
    },
    {
      "midi": 61,
      "hit": false,
      "t": 13805.271999999997,
      "d": 318.58320000000094,
      "v": 80
    },
    {
      "midi": 62,
      "hit": false,
      "t": 14070.757999999998,
      "d": 238.9374000000007,
      "v": 81
    },
    {
      "midi": 59,
      "hit": false,
      "t": 14070.757999999998,
      "d": 309.733666666667,
      "v": 80
    },
    {
      "midi": 57,
      "hit": false,
      "t": 14336.243999999999,
      "d": 309.73366666666516,
      "v": 76
    },
    {
      "midi": 61,
      "hit": false,
      "t": 14336.243999999999,
      "d": 336.28226666666524,
      "v": 78
    },
    {
      "midi": 62,
      "hit": false,
      "t": 14601.729999999998,
      "d": 252.21169999999984,
      "v": 81
    },
    {
      "midi": 59,
      "hit": false,
      "t": 14601.729999999998,
      "d": 309.73366666666516,
      "v": 78
    },
    {
      "midi": 61,
      "hit": false,
      "t": 14867.215999999997,
      "d": 265.48599999999897,
      "v": 79
    },
    {
      "midi": 57,
      "hit": false,
      "t": 14867.215999999997,
      "d": 278.7602999999981,
      "v": 80
    },
    {
      "midi": 62,
      "hit": false,
      "t": 15132.701999999996,
      "d": 243.36216666666587,
      "v": 80
    },
    {
      "midi": 59,
      "hit": false,
      "t": 15132.701999999996,
      "d": 340.7070333333322,
      "v": 81
    },
    {
      "midi": 57,
      "hit": false,
      "t": 15398.187999999995,
      "d": 283.1850666666669,
      "v": 79
    },
    {
      "midi": 61,
      "hit": false,
      "t": 15398.187999999995,
      "d": 296.459366666666,
      "v": 79
    },
    {
      "midi": 62,
      "hit": false,
      "t": 15663.673999999995,
      "d": 274.33553333333293,
      "v": 81
    },
    {
      "midi": 59,
      "hit": false,
      "t": 15663.673999999995,
      "d": 300.884133333333,
      "v": 81
    },
    {
      "midi": 57,
      "hit": false,
      "t": 15929.159999999994,
      "d": 283.1850666666669,
      "v": 77
    },
    {
      "midi": 61,
      "hit": false,
      "t": 15929.159999999994,
      "d": 300.884133333333,
      "v": 80
    },
    {
      "midi": 62,
      "hit": false,
      "t": 16194.645999999995,
      "d": 234.51263333333372,
      "v": 79
    },
    {
      "midi": 59,
      "hit": false,
      "t": 16194.645999999995,
      "d": 296.4593666666642,
      "v": 80
    },
    {
      "midi": 57,
      "hit": false,
      "t": 16460.131999999994,
      "d": 278.7602999999981,
      "v": 77
    },
    {
      "midi": 61,
      "hit": false,
      "t": 16460.131999999994,
      "d": 292.03459999999905,
      "v": 80
    },
    {
      "midi": 62,
      "hit": false,
      "t": 16725.61799999999,
      "d": 225.66310000000158,
      "v": 82
    },
    {
      "midi": 59,
      "hit": false,
      "t": 16725.61799999999,
      "d": 292.03459999999905,
      "v": 81
    },
    {
      "midi": 57,
      "hit": false,
      "t": 16991.103999999992,
      "d": 265.48599999999715,
      "v": 80
    },
    {
      "midi": 61,
      "hit": false,
      "t": 16991.103999999992,
      "d": 283.1850666666651,
      "v": 78
    },
    {
      "midi": 62,
      "hit": false,
      "t": 17256.58999999999,
      "d": 274.33553333333475,
      "v": 81
    },
    {
      "midi": 59,
      "hit": false,
      "t": 17256.58999999999,
      "d": 292.0346000000027,
      "v": 81
    },
    {
      "midi": 57,
      "hit": false,
      "t": 17522.07599999999,
      "d": 296.459366666666,
      "v": 77
    },
    {
      "midi": 61,
      "hit": false,
      "t": 17522.07599999999,
      "d": 296.459366666666,
      "v": 80
    },
    {
      "midi": 59,
      "hit": false,
      "t": 17654.818999999992,
      "d": 309.73366666666334,
      "v": 79
    },
    {
      "midi": 62,
      "hit": false,
      "t": 17787.56199999999,
      "d": 278.7602999999981,
      "v": 80
    },
    {
      "midi": 57,
      "hit": false,
      "t": 18053.047999999988,
      "d": 274.33553333333475,
      "v": 77
    },
    {
      "midi": 61,
      "hit": false,
      "t": 18053.047999999988,
      "d": 318.58320000000094,
      "v": 79
    },
    {
      "midi": 62,
      "hit": false,
      "t": 18318.53399999999,
      "d": 247.78693333333285,
      "v": 82
    },
    {
      "midi": 59,
      "hit": false,
      "t": 18318.53399999999,
      "d": 318.58320000000094,
      "v": 80
    },
    {
      "midi": 61,
      "hit": false,
      "t": 18584.01999999999,
      "d": 309.733666666667,
      "v": 78
    },
    {
      "midi": 57,
      "hit": false,
      "t": 18584.01999999999,
      "d": 318.58320000000094,
      "v": 79
    },
    {
      "midi": 62,
      "hit": false,
      "t": 18849.50599999999,
      "d": 265.4860000000008,
      "v": 81
    },
    {
      "midi": 59,
      "hit": false,
      "t": 18849.50599999999,
      "d": 296.459366666666,
      "v": 81
    },
    {
      "midi": 57,
      "hit": false,
      "t": 19114.99199999999,
      "d": 265.48599999999715,
      "v": 79
    },
    {
      "midi": 61,
      "hit": false,
      "t": 19114.99199999999,
      "d": 309.73366666666334,
      "v": 77
    },
    {
      "midi": 62,
      "hit": false,
      "t": 19380.47799999999,
      "d": 252.21169999999984,
      "v": 82
    },
    {
      "midi": 59,
      "hit": false,
      "t": 19380.47799999999,
      "d": 309.733666666667,
      "v": 80
    },
    {
      "midi": 57,
      "hit": false,
      "t": 19645.96399999999,
      "d": 247.78693333333285,
      "v": 74
    },
    {
      "midi": 61,
      "hit": false,
      "t": 19645.96399999999,
      "d": 283.1850666666687,
      "v": 68
    },
    {
      "midi": 62,
      "hit": false,
      "t": 19911.44999999999,
      "d": 265.4860000000008,
      "v": 83
    },
    {
      "midi": 59,
      "hit": false,
      "t": 19911.44999999999,
      "d": 309.733666666667,
      "v": 80
    },
    {
      "midi": 57,
      "hit": false,
      "t": 20176.93599999999,
      "d": 252.21169999999984,
      "v": 81
    },
    {
      "midi": 61,
      "hit": false,
      "t": 20176.93599999999,
      "d": 287.6098333333357,
      "v": 80
    },
    {
      "midi": 62,
      "hit": false,
      "t": 20442.42199999999,
      "d": 256.6364666666668,
      "v": 82
    },
    {
      "midi": 59,
      "hit": false,
      "t": 20442.42199999999,
      "d": 287.6098333333357,
      "v": 80
    },
    {
      "midi": 57,
      "hit": false,
      "t": 20707.907999999992,
      "d": 252.21169999999984,
      "v": 78
    },
    {
      "midi": 61,
      "hit": false,
      "t": 20707.907999999992,
      "d": 269.91076666666777,
      "v": 80
    },
    {
      "midi": 62,
      "hit": false,
      "t": 20973.393999999993,
      "d": 234.5126333333319,
      "v": 82
    },
    {
      "midi": 59,
      "hit": false,
      "t": 20973.393999999993,
      "d": 274.3355333333311,
      "v": 80
    },
    {
      "midi": 57,
      "hit": false,
      "t": 21238.87999999999,
      "d": 292.03459999999905,
      "v": 80
    },
    {
      "midi": 61,
      "hit": false,
      "t": 21238.87999999999,
      "d": 292.03459999999905,
      "v": 80
    },
    {
      "midi": 62,
      "hit": false,
      "t": 21504.36599999999,
      "d": 252.21169999999984,
      "v": 79
    },
    {
      "midi": 59,
      "hit": false,
      "t": 21504.36599999999,
      "d": 318.58320000000094,
      "v": 81
    },
    {
      "midi": 57,
      "hit": false,
      "t": 21769.85199999999,
      "d": 287.6098333333357,
      "v": 81
    },
    {
      "midi": 61,
      "hit": false,
      "t": 21769.85199999999,
      "d": 300.88413333333665,
      "v": 80
    },
    {
      "midi": 62,
      "hit": false,
      "t": 22035.337999999992,
      "d": 238.93740000000253,
      "v": 81
    },
    {
      "midi": 59,
      "hit": false,
      "t": 22035.337999999992,
      "d": 296.459366666666,
      "v": 82
    },
    {
      "midi": 57,
      "hit": false,
      "t": 22300.823999999993,
      "d": 296.4593666666624,
      "v": 78
    },
    {
      "midi": 61,
      "hit": false,
      "t": 22300.823999999993,
      "d": 296.4593666666624,
      "v": 80
    },
    {
      "midi": 62,
      "hit": false,
      "t": 22566.30999999999,
      "d": 261.06123333333016,
      "v": 80
    },
    {
      "midi": 59,
      "hit": false,
      "t": 22566.30999999999,
      "d": 309.73366666666334,
      "v": 81
    },
    {
      "midi": 57,
      "hit": false,
      "t": 22831.795999999988,
      "d": 296.459366666666,
      "v": 80
    },
    {
      "midi": 61,
      "hit": false,
      "t": 22831.795999999988,
      "d": 296.459366666666,
      "v": 80
    },
    {
      "midi": 62,
      "hit": false,
      "t": 23097.28199999999,
      "d": 252.21169999999984,
      "v": 79
    },
    {
      "midi": 59,
      "hit": false,
      "t": 23097.28199999999,
      "d": 309.733666666667,
      "v": 81
    },
    {
      "midi": 57,
      "hit": false,
      "t": 23362.76799999999,
      "d": 292.03459999999905,
      "v": 73
    },
    {
      "midi": 61,
      "hit": false,
      "t": 23362.76799999999,
      "d": 309.733666666667,
      "v": 77
    },
    {
      "midi": 62,
      "hit": false,
      "t": 23628.25399999999,
      "d": 230.08786666666492,
      "v": 82
    },
    {
      "midi": 59,
      "hit": false,
      "t": 23628.25399999999,
      "d": 309.73366666666334,
      "v": 81
    },
    {
      "midi": 57,
      "hit": false,
      "t": 23893.739999999987,
      "d": 287.6098333333357,
      "v": 78
    },
    {
      "midi": 61,
      "hit": false,
      "t": 23893.739999999987,
      "d": 305.30890000000363,
      "v": 77
    },
    {
      "midi": 59,
      "hit": false,
      "t": 24159.225999999988,
      "d": 287.60983333333934,
      "v": 80
    },
    {
      "midi": 62,
      "hit": false,
      "t": 24159.225999999988,
      "d": 287.60983333333934,
      "v": 79
    },
    {
      "midi": 57,
      "hit": false,
      "t": 24424.711999999992,
      "d": 243.3621666666695,
      "v": 73
    },
    {
      "midi": 61,
      "hit": false,
      "t": 24424.711999999992,
      "d": 287.60983333333934,
      "v": 78
    },
    {
      "midi": 62,
      "hit": false,
      "t": 24690.197999999997,
      "d": 238.93740000000253,
      "v": 80
    },
    {
      "midi": 59,
      "hit": false,
      "t": 24690.197999999997,
      "d": 296.459366666666,
      "v": 80
    },
    {
      "midi": 57,
      "hit": false,
      "t": 24955.683999999997,
      "d": 1168.1383999999998,
      "v": 77
    },
    {
      "midi": 61,
      "hit": false,
      "t": 24955.683999999997,
      "d": 1199.111766666665,
      "v": 70
    },
    {
      "midi": 69,
      "hit": false,
      "t": 26548.599999999995,
      "d": 4.424766666666983,
      "v": 75
    },
    {
      "midi": 67,
      "hit": false,
      "t": 26548.599999999995,
      "d": 132.74299999999857,
      "v": 100
    },
    {
      "midi": 68,
      "hit": false,
      "t": 26548.599999999995,
      "d": 132.74299999999857,
      "v": 100
    },
    {
      "midi": 64,
      "hit": false,
      "t": 26548.599999999995,
      "d": 429.2023666666646,
      "v": 106
    },
    {
      "midi": 73,
      "hit": false,
      "t": 26548.599999999995,
      "d": 442.47666666666555,
      "v": 99
    },
    {
      "midi": 67,
      "hit": false,
      "t": 27079.571999999993,
      "d": 154.8668333333335,
      "v": 101
    },
    {
      "midi": 64,
      "hit": false,
      "t": 27079.571999999993,
      "d": 473.45003333333443,
      "v": 105
    },
    {
      "midi": 73,
      "hit": false,
      "t": 27079.571999999993,
      "d": 499.9986333333327,
      "v": 95
    },
    {
      "midi": 69,
      "hit": false,
      "t": 27212.31499999999,
      "d": 398.22899999999936,
      "v": 85
    },
    {
      "midi": 47,
      "hit": false,
      "t": 27610.54399999999,
      "d": 146.01729999999952,
      "v": 92
    },
    {
      "midi": 40,
      "hit": false,
      "t": 27610.54399999999,
      "d": 154.8668333333335,
      "v": 97
    },
    {
      "midi": 62,
      "hit": false,
      "t": 27610.54399999999,
      "d": 2849.5497333333333,
      "v": 98
    },
    {
      "midi": 67,
      "hit": false,
      "t": 27610.54399999999,
      "d": 2920.3460000000014,
      "v": 93
    },
    {
      "midi": 71,
      "hit": false,
      "t": 27610.54399999999,
      "d": 2951.3193666666666,
      "v": 80
    },
    {
      "midi": 49,
      "hit": false,
      "t": 28407.00199999999,
      "d": 199.11449999999968,
      "v": 87
    },
    {
      "midi": 42,
      "hit": false,
      "t": 28415.851533333323,
      "d": 185.84019999999873,
      "v": 86
    },
    {
      "midi": 50,
      "hit": false,
      "t": 28659.21369999999,
      "d": 256.6364666666668,
      "v": 93
    },
    {
      "midi": 43,
      "hit": false,
      "t": 28672.48799999999,
      "d": 199.11449999999968,
      "v": 86
    },
    {
      "midi": 47,
      "hit": false,
      "t": 29446.822166666658,
      "d": 274.33553333333475,
      "v": 97
    },
    {
      "midi": 40,
      "hit": false,
      "t": 29460.09646666666,
      "d": 238.9373999999989,
      "v": 100
    },
    {
      "midi": 42,
      "hit": false,
      "t": 30522.040466666658,
      "d": 247.78693333333285,
      "v": 92
    },
    {
      "midi": 49,
      "hit": false,
      "t": 30535.31476666666,
      "d": 323.0079666666679,
      "v": 100
    },
    {
      "midi": 64,
      "hit": false,
      "t": 30774.252166666658,
      "d": 1004.4220333333396,
      "v": 103
    },
    {
      "midi": 67,
      "hit": false,
      "t": 30778.676933333325,
      "d": 230.08786666666856,
      "v": 100
    },
    {
      "midi": 73,
      "hit": false,
      "t": 30796.375999999993,
      "d": 486.7243333333354,
      "v": 102
    },
    {
      "midi": 68,
      "hit": false,
      "t": 30805.225533333327,
      "d": 22.123833333334915,
      "v": 88
    },
    {
      "midi": 43,
      "hit": false,
      "t": 30805.225533333327,
      "d": 274.33553333333475,
      "v": 82
    },
    {
      "midi": 50,
      "hit": false,
      "t": 30818.499833333328,
      "d": 256.6364666666668,
      "v": 90
    },
    {
      "midi": 69,
      "hit": false,
      "t": 30898.145633333326,
      "d": 367.2556333333341,
      "v": 82
    },
    {
      "midi": 67,
      "hit": false,
      "t": 31340.622299999995,
      "d": 163.71636666666745,
      "v": 94
    },
    {
      "midi": 73,
      "hit": false,
      "t": 31371.59566666666,
      "d": 442.4766666666692,
      "v": 97
    },
    {
      "midi": 69,
      "hit": false,
      "t": 31437.96716666666,
      "d": 376.1051666666681,
      "v": 89
    },
    {
      "midi": 40,
      "hit": false,
      "t": 31858.319999999996,
      "d": 238.93740000000253,
      "v": 95
    },
    {
      "midi": 47,
      "hit": false,
      "t": 31858.319999999996,
      "d": 265.4860000000008,
      "v": 93
    },
    {
      "midi": 71,
      "hit": false,
      "t": 31858.319999999996,
      "d": 2929.195533333328,
      "v": 87
    },
    {
      "midi": 62,
      "hit": false,
      "t": 31880.44383333333,
      "d": 2796.4525333333295,
      "v": 95
    },
    {
      "midi": 67,
      "hit": false,
      "t": 31880.44383333333,
      "d": 2902.64693333333,
      "v": 88
    },
    {
      "midi": 42,
      "hit": false,
      "t": 32645.928466666664,
      "d": 230.08786666666856,
      "v": 89
    },
    {
      "midi": 49,
      "hit": false,
      "t": 32654.778,
      "d": 243.36216666666587,
      "v": 86
    },
    {
      "midi": 50,
      "hit": false,
      "t": 32933.5383,
      "d": 247.7869333333365,
      "v": 95
    },
    {
      "midi": 43,
      "hit": false,
      "t": 32942.387833333334,
      "d": 247.7869333333365,
      "v": 90
    },
    {
      "midi": 47,
      "hit": false,
      "t": 33694.59816666667,
      "d": 296.4593666666624,
      "v": 90
    },
    {
      "midi": 40,
      "hit": false,
      "t": 33716.722,
      "d": 287.6098333333284,
      "v": 97
    },
    {
      "midi": 42,
      "hit": false,
      "t": 34765.39169999999,
      "d": 234.5126333333319,
      "v": 95
    },
    {
      "midi": 49,
      "hit": false,
      "t": 34783.09076666666,
      "d": 256.6364666666559,
      "v": 99
    },
    {
      "midi": 43,
      "hit": false,
      "t": 35022.028166666656,
      "d": 252.21169999998529,
      "v": 82
    },
    {
      "midi": 64,
      "hit": false,
      "t": 35022.028166666656,
      "d": 477.8747999999832,
      "v": 105
    },
    {
      "midi": 73,
      "hit": false,
      "t": 35022.028166666656,
      "d": 477.8747999999832,
      "v": 92
    },
    {
      "midi": 50,
      "hit": false,
      "t": 35035.30246666665,
      "d": 225.66309999999066,
      "v": 93
    },
    {
      "midi": 67,
      "hit": false,
      "t": 35044.15199999998,
      "d": 212.38880000000063,
      "v": 102
    },
    {
      "midi": 69,
      "hit": false,
      "t": 35190.16929999998,
      "d": 353.98133333332953,
      "v": 80
    },
    {
      "midi": 67,
      "hit": false,
      "t": 35579.548766666645,
      "d": 230.08786666666128,
      "v": 105
    },
    {
      "midi": 64,
      "hit": false,
      "t": 35583.97353333331,
      "d": 433.62713333332795,
      "v": 99
    },
    {
      "midi": 73,
      "hit": false,
      "t": 35583.97353333331,
      "d": 464.6004999999932,
      "v": 92
    },
    {
      "midi": 69,
      "hit": false,
      "t": 35729.99083333331,
      "d": 331.857499999991,
      "v": 82
    },
    {
      "midi": 47,
      "hit": false,
      "t": 36106.09599999997,
      "d": 203.53926666666666,
      "v": 90
    },
    {
      "midi": 40,
      "hit": false,
      "t": 36106.09599999997,
      "d": 221.2383333333346,
      "v": 94
    },
    {
      "midi": 62,
      "hit": false,
      "t": 36106.09599999997,
      "d": 2907.071699999993,
      "v": 97
    },
    {
      "midi": 67,
      "hit": false,
      "t": 36114.9455333333,
      "d": 2973.443199999987,
      "v": 88
    },
    {
      "midi": 71,
      "hit": false,
      "t": 36128.2198333333,
      "d": 3013.266099999986,
      "v": 80
    },
    {
      "midi": 49,
      "hit": false,
      "t": 36902.55399999997,
      "d": 225.66309999999794,
      "v": 87
    },
    {
      "midi": 42,
      "hit": false,
      "t": 36911.4035333333,
      "d": 225.66309999999794,
      "v": 94
    },
    {
      "midi": 43,
      "hit": false,
      "t": 37145.91616666663,
      "d": 265.48599999999715,
      "v": 80
    },
    {
      "midi": 50,
      "hit": false,
      "t": 37176.8895333333,
      "d": 274.3355333333311,
      "v": 91
    },
    {
      "midi": 40,
      "hit": false,
      "t": 37995.47136666663,
      "d": 287.6098333333357,
      "v": 99
    },
    {
      "midi": 47,
      "hit": false,
      "t": 37995.47136666663,
      "d": 287.6098333333357,
      "v": 93
    },
    {
      "midi": 42,
      "hit": false,
      "t": 39035.29153333329,
      "d": 243.36216666665132,
      "v": 83
    },
    {
      "midi": 49,
      "hit": false,
      "t": 39035.29153333329,
      "d": 318.5831999999791,
      "v": 105
    },
    {
      "midi": 67,
      "hit": false,
      "t": 39269.80416666662,
      "d": 265.4859999999826,
      "v": 105
    },
    {
      "midi": 73,
      "hit": false,
      "t": 39269.80416666662,
      "d": 442.47666666664736,
      "v": 93
    },
    {
      "midi": 64,
      "hit": false,
      "t": 39274.22893333328,
      "d": 438.051899999984,
      "v": 100
    },
    {
      "midi": 43,
      "hit": false,
      "t": 39291.92799999994,
      "d": 265.4859999999899,
      "v": 83
    },
    {
      "midi": 50,
      "hit": false,
      "t": 39300.777533333276,
      "d": 230.08786666666128,
      "v": 89
    },
    {
      "midi": 69,
      "hit": false,
      "t": 39415.8214666666,
      "d": 309.7336666666597,
      "v": 80
    },
    {
      "midi": 64,
      "hit": false,
      "t": 39805.20093333326,
      "d": 455.7509666666738,
      "v": 105
    },
    {
      "midi": 67,
      "hit": false,
      "t": 39814.050466666595,
      "d": 225.66310000000522,
      "v": 103
    },
    {
      "midi": 73,
      "hit": false,
      "t": 39822.89999999993,
      "d": 451.32620000000315,
      "v": 71
    },
    {
      "midi": 69,
      "hit": false,
      "t": 39955.64299999993,
      "d": 380.5299333333314,
      "v": 83
    },
    {
      "midi": 40,
      "hit": false,
      "t": 40353.87199999993,
      "d": 163.71636666666745,
      "v": 96
    },
    {
      "midi": 62,
      "hit": false,
      "t": 40353.87199999993,
      "d": 1380.527200000004,
      "v": 106
    },
    {
      "midi": 47,
      "hit": false,
      "t": 40362.721533333264,
      "d": 190.26496666666935,
      "v": 94
    },
    {
      "midi": 67,
      "hit": false,
      "t": 40367.14629999993,
      "d": 1309.7309333333396,
      "v": 95
    },
    {
      "midi": 71,
      "hit": false,
      "t": 40367.14629999993,
      "d": 1336.2795333333415,
      "v": 85
    },
    {
      "midi": 42,
      "hit": false,
      "t": 41128.2061666666,
      "d": 243.36216666666587,
      "v": 97
    },
    {
      "midi": 49,
      "hit": false,
      "t": 41137.05569999993,
      "d": 230.08786666666856,
      "v": 97
    },
    {
      "midi": 50,
      "hit": false,
      "t": 41429.09029999993,
      "d": 283.18506666667236,
      "v": 92
    },
    {
      "midi": 43,
      "hit": false,
      "t": 41437.939833333265,
      "d": 230.08786666666856,
      "v": 83
    },
    {
      "midi": 59,
      "hit": false,
      "t": 42212.27399999993,
      "d": 623.8920999999973,
      "v": 94
    },
    {
      "midi": 67,
      "hit": false,
      "t": 42212.27399999993,
      "d": 707.9626666666591,
      "v": 95
    },
    {
      "midi": 64,
      "hit": false,
      "t": 42221.123533333266,
      "d": 685.8388333333278,
      "v": 101
    },
    {
      "midi": 48,
      "hit": false,
      "t": 42234.39783333326,
      "d": 663.7149999999965,
      "v": 106
    },
    {
      "midi": 62,
      "hit": false,
      "t": 42977.75863333326,
      "d": 402.65376666667,
      "v": 96
    },
    {
      "midi": 57,
      "hit": false,
      "t": 42986.60816666659,
      "d": 398.22899999999936,
      "v": 95
    },
    {
      "midi": 66,
      "hit": false,
      "t": 42986.60816666659,
      "d": 420.35283333333064,
      "v": 88
    },
    {
      "midi": 47,
      "hit": false,
      "t": 42995.457699999926,
      "d": 420.35283333333064,
      "v": 97
    },
    {
      "midi": 64,
      "hit": false,
      "t": 43530.85446666659,
      "d": 305.30890000000363,
      "v": 97
    },
    {
      "midi": 55,
      "hit": false,
      "t": 43539.703999999925,
      "d": 331.85750000000553,
      "v": 99
    },
    {
      "midi": 60,
      "hit": false,
      "t": 43548.55353333326,
      "d": 314.1584333333376,
      "v": 103
    },
    {
      "midi": 45,
      "hit": false,
      "t": 43561.82783333326,
      "d": 247.7869333333365,
      "v": 105
    },
    {
      "midi": 43,
      "hit": false,
      "t": 44092.799833333265,
      "d": 190.26496666666935,
      "v": 100
    },
    {
      "midi": 59,
      "hit": false,
      "t": 44101.6493666666,
      "d": 252.21169999999984,
      "v": 99
    },
    {
      "midi": 42,
      "hit": false,
      "t": 44349.436299999936,
      "d": 862.8294999999925,
      "v": 84
    },
    {
      "midi": 58,
      "hit": false,
      "t": 44358.28583333326,
      "d": 1070.7935333333298,
      "v": 71
    },
    {
      "midi": 42,
      "hit": false,
      "t": 45442.35366666659,
      "d": 309.733666666667,
      "v": 99
    },
    {
      "midi": 61,
      "hit": false,
      "t": 48849.423999999926,
      "d": 920.351466666667,
      "v": 99
    },
    {
      "midi": 66,
      "hit": false,
      "t": 48849.423999999926,
      "d": 929.2010000000009,
      "v": 93
    },
    {
      "midi": 56,
      "hit": false,
      "t": 48858.27353333326,
      "d": 907.0771666666697,
      "v": 87
    },
    {
      "midi": 40,
      "hit": false,
      "t": 48858.27353333326,
      "d": 942.4752999999982,
      "v": 88
    },
    {
      "midi": 55,
      "hit": false,
      "t": 49889.24416666659,
      "d": 902.652399999999,
      "v": 95
    },
    {
      "midi": 45,
      "hit": false,
      "t": 49889.24416666659,
      "d": 1017.6963333333333,
      "v": 96
    },
    {
      "midi": 61,
      "hit": false,
      "t": 49911.36799999992,
      "d": 973.4486666666708,
      "v": 100
    },
    {
      "midi": 66,
      "hit": false,
      "t": 49911.36799999992,
      "d": 995.572500000002,
      "v": 83
    },
    {
      "midi": 54,
      "hit": false,
      "t": 50973.311999999925,
      "d": 588.4939666666614,
      "v": 85
    },
    {
      "midi": 63,
      "hit": false,
      "t": 50982.16153333326,
      "d": 641.591166666658,
      "v": 89
    },
    {
      "midi": 47,
      "hit": false,
      "t": 50982.16153333326,
      "d": 1004.4220333333215,
      "v": 100
    },
    {
      "midi": 58,
      "hit": false,
      "t": 50995.43583333326,
      "d": 597.3434999999954,
      "v": 71
    },
    {
      "midi": 66,
      "hit": false,
      "t": 51915.787299999916,
      "d": 265.4859999999899,
      "v": 70
    },
    {
      "midi": 68,
      "hit": false,
      "t": 51924.63683333325,
      "d": 243.3621666666586,
      "v": 81
    },
    {
      "midi": 71,
      "hit": false,
      "t": 51991.008333333244,
      "d": 185.84019999999873,
      "v": 87
    },
    {
      "midi": 73,
      "hit": false,
      "t": 52013.132166666575,
      "d": 176.99066666666477,
      "v": 80
    },
    {
      "midi": 75,
      "hit": false,
      "t": 52057.379833333245,
      "d": 163.71636666666018,
      "v": 95
    },
    {
      "midi": 60,
      "hit": false,
      "t": 53075.07616666657,
      "d": 243.36216666666587,
      "v": 103
    },
    {
      "midi": 64,
      "hit": false,
      "t": 53083.925699999905,
      "d": 243.36216666666587,
      "v": 104
    },
    {
      "midi": 71,
      "hit": false,
      "t": 53088.35046666657,
      "d": 230.08786666666856,
      "v": 96
    },
    {
      "midi": 67,
      "hit": false,
      "t": 53088.35046666657,
      "d": 243.36216666666587,
      "v": 102
    },
    {
      "midi": 60,
      "hit": false,
      "t": 54424.6299999999,
      "d": 707.9626666666663,
      "v": 103
    },
    {
      "midi": 64,
      "hit": false,
      "t": 54429.054766666566,
      "d": 623.8920999999973,
      "v": 94
    },
    {
      "midi": 59,
      "hit": false,
      "t": 54433.47953333323,
      "d": 663.7150000000038,
      "v": 90
    },
    {
      "midi": 67,
      "hit": false,
      "t": 54433.47953333323,
      "d": 663.7150000000038,
      "v": 92
    },
    {
      "midi": 62,
      "hit": false,
      "t": 55229.937533333235,
      "d": 1004.4220333333287,
      "v": 88
    },
    {
      "midi": 55,
      "hit": false,
      "t": 55243.21183333323,
      "d": 995.5724999999948,
      "v": 92
    },
    {
      "midi": 66,
      "hit": false,
      "t": 55265.335666666564,
      "d": 1048.6696999999986,
      "v": 84
    },
    {
      "midi": 62,
      "hit": false,
      "t": 56517.54463333323,
      "d": 641.5911666666652,
      "v": 104
    },
    {
      "midi": 69,
      "hit": false,
      "t": 56526.39416666656,
      "d": 553.0958333333328,
      "v": 94
    },
    {
      "midi": 66,
      "hit": false,
      "t": 56526.39416666656,
      "d": 641.5911666666652,
      "v": 92
    },
    {
      "midi": 67,
      "hit": false,
      "t": 57322.85216666656,
      "d": 946.9000666666543,
      "v": 90
    },
    {
      "midi": 49,
      "hit": false,
      "t": 57327.276933333225,
      "d": 1017.6963333333188,
      "v": 103
    },
    {
      "midi": 64,
      "hit": false,
      "t": 57331.70169999989,
      "d": 960.1743666666589,
      "v": 95
    },
    {
      "midi": 59,
      "hit": false,
      "t": 57336.12646666655,
      "d": 867.2542666666632,
      "v": 90
    },
    {
      "midi": 69,
      "hit": false,
      "t": 58406.919999999875,
      "d": 831.8561333333346,
      "v": 91
    },
    {
      "midi": 64,
      "hit": false,
      "t": 58406.919999999875,
      "d": 915.9267000000036,
      "v": 95
    },
    {
      "midi": 48,
      "hit": false,
      "t": 58406.919999999875,
      "d": 951.3248333333395,
      "v": 95
    },
    {
      "midi": 58,
      "hit": false,
      "t": 58415.76953333321,
      "d": 840.7056666666685,
      "v": 100
    },
    {
      "midi": 57,
      "hit": false,
      "t": 59460.014466666544,
      "d": 548.6710666666622,
      "v": 97
    },
    {
      "midi": 61,
      "hit": false,
      "t": 59468.86399999988,
      "d": 566.3701333333302,
      "v": 90
    },
    {
      "midi": 64,
      "hit": false,
      "t": 59468.86399999988,
      "d": 566.3701333333302,
      "v": 105
    },
    {
      "midi": 66,
      "hit": false,
      "t": 59477.71353333321,
      "d": 597.3434999999954,
      "v": 92
    },
    {
      "midi": 47,
      "hit": false,
      "t": 59490.98783333321,
      "d": 884.9533333333311,
      "v": 99
    },
    {
      "midi": 64,
      "hit": false,
      "t": 60508.68416666654,
      "d": 393.80423333332874,
      "v": 101
    },
    {
      "midi": 67,
      "hit": false,
      "t": 60513.108933333206,
      "d": 128.3182333333316,
      "v": 100
    },
    {
      "midi": 73,
      "hit": false,
      "t": 60530.80799999987,
      "d": 411.50329999999667,
      "v": 97
    },
    {
      "midi": 69,
      "hit": false,
      "t": 60539.65753333321,
      "d": 8.849533333333966,
      "v": 90
    },
    {
      "midi": 69,
      "hit": false,
      "t": 60588.32996666654,
      "d": 353.98133333332953,
      "v": 87
    },
    {
      "midi": 67,
      "hit": false,
      "t": 61030.8066333332,
      "d": 154.8668333333335,
      "v": 89
    },
    {
      "midi": 73,
      "hit": false,
      "t": 61048.50569999987,
      "d": 464.60050000000047,
      "v": 91
    },
    {
      "midi": 64,
      "hit": false,
      "t": 61052.930466666534,
      "d": 464.60050000000047,
      "v": 97
    },
    {
      "midi": 69,
      "hit": false,
      "t": 61137.0010333332,
      "d": 442.4766666666619,
      "v": 83
    },
    {
      "midi": 47,
      "hit": false,
      "t": 61579.477699999865,
      "d": 88.4953333333251,
      "v": 91
    },
    {
      "midi": 40,
      "hit": false,
      "t": 61592.75199999986,
      "d": 70.79626666666445,
      "v": 92
    },
    {
      "midi": 71,
      "hit": false,
      "t": 61597.176766666526,
      "d": 2929.1955333333244,
      "v": 90
    },
    {
      "midi": 67,
      "hit": false,
      "t": 61606.02629999986,
      "d": 2911.4964666666565,
      "v": 92
    },
    {
      "midi": 62,
      "hit": false,
      "t": 61614.87583333319,
      "d": 2818.5763666666535,
      "v": 102
    },
    {
      "midi": 42,
      "hit": false,
      "t": 62367.08616666652,
      "d": 199.11450000000332,
      "v": 94
    },
    {
      "midi": 49,
      "hit": false,
      "t": 62367.08616666652,
      "d": 221.2383333333346,
      "v": 86
    },
    {
      "midi": 43,
      "hit": false,
      "t": 62610.44833333319,
      "d": 221.2383333333346,
      "v": 80
    },
    {
      "midi": 50,
      "hit": false,
      "t": 62645.846466666524,
      "d": 190.26496666666208,
      "v": 92
    },
    {
      "midi": 47,
      "hit": false,
      "t": 63429.03016666652,
      "d": 230.08786666666128,
      "v": 95
    },
    {
      "midi": 40,
      "hit": false,
      "t": 63442.304466666516,
      "d": 238.93739999999525,
      "v": 93
    },
    {
      "midi": 42,
      "hit": false,
      "t": 64468.85033333318,
      "d": 243.36216666666587,
      "v": 88
    },
    {
      "midi": 49,
      "hit": false,
      "t": 64468.85033333318,
      "d": 269.9107666666605,
      "v": 99
    },
    {
      "midi": 43,
      "hit": false,
      "t": 64734.33633333318,
      "d": 287.6098333333284,
      "v": 88
    },
    {
      "midi": 50,
      "hit": false,
      "t": 64756.46016666651,
      "d": 243.36216666666587,
      "v": 97
    },
    {
      "midi": 64,
      "hit": false,
      "t": 64756.46016666651,
      "d": 442.4766666666619,
      "v": 96
    },
    {
      "midi": 67,
      "hit": false,
      "t": 64765.309699999845,
      "d": 168.1411333333308,
      "v": 101
    },
    {
      "midi": 73,
      "hit": false,
      "t": 64791.85829999985,
      "d": 446.90143333332526,
      "v": 93
    },
    {
      "midi": 69,
      "hit": false,
      "t": 64880.35363333318,
      "d": 340.70703333332494,
      "v": 83
    },
    {
      "midi": 73,
      "hit": false,
      "t": 65318.40553333317,
      "d": 451.3261999999886,
      "v": 95
    },
    {
      "midi": 67,
      "hit": false,
      "t": 65331.67983333317,
      "d": 225.66309999999066,
      "v": 102
    },
    {
      "midi": 64,
      "hit": false,
      "t": 65331.67983333317,
      "d": 442.47666666665464,
      "v": 103
    },
    {
      "midi": 69,
      "hit": false,
      "t": 65433.4494666665,
      "d": 411.5032999999821,
      "v": 88
    },
    {
      "midi": 71,
      "hit": false,
      "t": 65840.52799999982,
      "d": 3013.266099999979,
      "v": 88
    },
    {
      "midi": 67,
      "hit": false,
      "t": 65849.37753333314,
      "d": 2973.4431999999797,
      "v": 88
    },
    {
      "midi": 62,
      "hit": false,
      "t": 65853.8022999998,
      "d": 2853.974499999982,
      "v": 93
    },
    {
      "midi": 40,
      "hit": false,
      "t": 65862.65183333313,
      "d": 221.23833333332732,
      "v": 90
    },
    {
      "midi": 47,
      "hit": false,
      "t": 65862.65183333313,
      "d": 238.93739999999525,
      "v": 88
    },
    {
      "midi": 42,
      "hit": false,
      "t": 66614.86216666645,
      "d": 221.23833333332732,
      "v": 93
    },
    {
      "midi": 49,
      "hit": false,
      "t": 66636.98599999979,
      "d": 230.08786666666856,
      "v": 82
    },
    {
      "midi": 43,
      "hit": false,
      "t": 66902.47199999979,
      "d": 252.21169999999984,
      "v": 85
    },
    {
      "midi": 50,
      "hit": false,
      "t": 66902.47199999979,
      "d": 265.4860000000044,
      "v": 94
    },
    {
      "midi": 47,
      "hit": false,
      "t": 67698.92999999979,
      "d": 287.6098333333357,
      "v": 102
    },
    {
      "midi": 40,
      "hit": false,
      "t": 67712.2042999998,
      "d": 265.4860000000044,
      "v": 100
    },
    {
      "midi": 49,
      "hit": false,
      "t": 68760.87399999979,
      "d": 287.60983333332115,
      "v": 105
    },
    {
      "midi": 42,
      "hit": false,
      "t": 68765.29876666646,
      "d": 225.66310000000522,
      "v": 92
    },
    {
      "midi": 43,
      "hit": false,
      "t": 69013.08569999979,
      "d": 296.45936666664784,
      "v": 85
    },
    {
      "midi": 64,
      "hit": false,
      "t": 69017.51046666646,
      "d": 429.20236666665005,
      "v": 99
    },
    {
      "midi": 50,
      "hit": false,
      "t": 69026.35999999978,
      "d": 261.0612333333265,
      "v": 99
    },
    {
      "midi": 67,
      "hit": false,
      "t": 69035.20953333311,
      "d": 168.14113333333808,
      "v": 105
    },
    {
      "midi": 73,
      "hit": false,
      "t": 69035.20953333311,
      "d": 407.0785333333333,
      "v": 99
    },
    {
      "midi": 69,
      "hit": false,
      "t": 69136.97916666645,
      "d": 318.5831999999791,
      "v": 83
    },
    {
      "midi": 67,
      "hit": false,
      "t": 69544.05769999977,
      "d": 132.74299999998766,
      "v": 96
    },
    {
      "midi": 64,
      "hit": false,
      "t": 69544.05769999977,
      "d": 442.47666666665464,
      "v": 97
    },
    {
      "midi": 73,
      "hit": false,
      "t": 69548.48246666644,
      "d": 464.6004999999859,
      "v": 92
    },
    {
      "midi": 69,
      "hit": false,
      "t": 69654.67686666643,
      "d": 420.35283333332336,
      "v": 85
    },
    {
      "midi": 71,
      "hit": false,
      "t": 70088.30399999976,
      "d": 2973.443200000009,
      "v": 94
    },
    {
      "midi": 40,
      "hit": false,
      "t": 70101.57829999976,
      "d": 159.29159999999683,
      "v": 99
    },
    {
      "midi": 62,
      "hit": false,
      "t": 70101.57829999976,
      "d": 2792.027766666666,
      "v": 94
    },
    {
      "midi": 67,
      "hit": false,
      "t": 70101.57829999976,
      "d": 2924.7707666666684,
      "v": 92
    },
    {
      "midi": 47,
      "hit": false,
      "t": 70110.42783333309,
      "d": 185.840200000006,
      "v": 95
    },
    {
      "midi": 42,
      "hit": false,
      "t": 70871.48769999977,
      "d": 199.11449999999604,
      "v": 89
    },
    {
      "midi": 49,
      "hit": false,
      "t": 70871.48769999977,
      "d": 243.3621666666586,
      "v": 92
    },
    {
      "midi": 43,
      "hit": false,
      "t": 71141.39846666642,
      "d": 194.6897333333327,
      "v": 91
    },
    {
      "midi": 50,
      "hit": false,
      "t": 71141.39846666642,
      "d": 216.81356666666397,
      "v": 95
    },
    {
      "midi": 40,
      "hit": false,
      "t": 71968.82983333309,
      "d": 230.08786666666856,
      "v": 97
    },
    {
      "midi": 47,
      "hit": false,
      "t": 71968.82983333309,
      "d": 274.3355333333311,
      "v": 94
    },
    {
      "midi": 42,
      "hit": false,
      "t": 73008.64999999976,
      "d": 225.66310000000522,
      "v": 92
    },
    {
      "midi": 49,
      "hit": false,
      "t": 73021.92429999977,
      "d": 287.60983333332115,
      "v": 104
    },
    {
      "midi": 67,
      "hit": false,
      "t": 73256.4369333331,
      "d": 181.41543333331356,
      "v": 104
    },
    {
      "midi": 73,
      "hit": false,
      "t": 73256.4369333331,
      "d": 429.20236666665005,
      "v": 95
    },
    {
      "midi": 43,
      "hit": false,
      "t": 73274.13599999977,
      "d": 274.33553333331656,
      "v": 83
    },
    {
      "midi": 64,
      "hit": false,
      "t": 73274.13599999977,
      "d": 420.3528333333088,
      "v": 103
    },
    {
      "midi": 50,
      "hit": false,
      "t": 73300.68459999976,
      "d": 247.78693333332194,
      "v": 90
    },
    {
      "midi": 69,
      "hit": false,
      "t": 73371.48086666642,
      "d": 340.70703333332494,
      "v": 83
    },
    {
      "midi": 67,
      "hit": false,
      "t": 73796.2584666664,
      "d": 159.29159999999683,
      "v": 100
    },
    {
      "midi": 64,
      "hit": false,
      "t": 73813.95753333307,
      "d": 407.0785333333333,
      "v": 100
    },
    {
      "midi": 73,
      "hit": false,
      "t": 73813.95753333307,
      "d": 424.77760000000126,
      "v": 90
    },
    {
      "midi": 69,
      "hit": false,
      "t": 73915.7271666664,
      "d": 376.10516666667536,
      "v": 87
    },
    {
      "midi": 40,
      "hit": false,
      "t": 74344.92953333308,
      "d": 176.9906666666502,
      "v": 95
    },
    {
      "midi": 62,
      "hit": false,
      "t": 74344.92953333308,
      "d": 1283.1823333332868,
      "v": 100
    },
    {
      "midi": 47,
      "hit": false,
      "t": 74349.35429999974,
      "d": 194.68973333331815,
      "v": 92
    },
    {
      "midi": 67,
      "hit": false,
      "t": 74358.20383333307,
      "d": 1225.6603666666342,
      "v": 87
    },
    {
      "midi": 71,
      "hit": false,
      "t": 74358.20383333307,
      "d": 1238.9346666666388,
      "v": 89
    },
    {
      "midi": 42,
      "hit": false,
      "t": 75114.83893333306,
      "d": 203.5392666666594,
      "v": 86
    },
    {
      "midi": 49,
      "hit": false,
      "t": 75119.26369999972,
      "d": 221.23833333332732,
      "v": 88
    },
    {
      "midi": 43,
      "hit": false,
      "t": 75367.05063333304,
      "d": 194.6897333333327,
      "v": 85
    },
    {
      "midi": 50,
      "hit": false,
      "t": 75398.02399999971,
      "d": 221.23833333332732,
      "v": 92
    },
    {
      "midi": 64,
      "hit": false,
      "t": 76172.35816666637,
      "d": 628.3168666666606,
      "v": 104
    },
    {
      "midi": 67,
      "hit": false,
      "t": 76181.2076999997,
      "d": 672.5645333333377,
      "v": 95
    },
    {
      "midi": 59,
      "hit": false,
      "t": 76185.63246666636,
      "d": 619.467333333334,
      "v": 103
    },
    {
      "midi": 48,
      "hit": false,
      "t": 76203.33153333302,
      "d": 650.4407000000065,
      "v": 102
    },
    {
      "midi": 57,
      "hit": false,
      "t": 76946.69233333303,
      "d": 398.2289999999921,
      "v": 97
    },
    {
      "midi": 47,
      "hit": false,
      "t": 76951.1170999997,
      "d": 389.3794666666654,
      "v": 97
    },
    {
      "midi": 66,
      "hit": false,
      "t": 76955.54186666636,
      "d": 429.2023666666646,
      "v": 83
    },
    {
      "midi": 62,
      "hit": false,
      "t": 76959.96663333302,
      "d": 380.5299333333387,
      "v": 90
    },
    {
      "midi": 64,
      "hit": false,
      "t": 77490.93863333302,
      "d": 345.1317999999883,
      "v": 94
    },
    {
      "midi": 55,
      "hit": false,
      "t": 77499.78816666635,
      "d": 353.98133333332953,
      "v": 100
    },
    {
      "midi": 60,
      "hit": false,
      "t": 77508.63769999967,
      "d": 309.733666666667,
      "v": 99
    },
    {
      "midi": 45,
      "hit": false,
      "t": 77513.06246666634,
      "d": 283.18506666667236,
      "v": 95
    },
    {
      "midi": 59,
      "hit": false,
      "t": 78044.03446666634,
      "d": 292.0346000000136,
      "v": 105
    },
    {
      "midi": 43,
      "hit": false,
      "t": 78061.73353333301,
      "d": 207.96403333333728,
      "v": 97
    },
    {
      "midi": 42,
      "hit": false,
      "t": 78322.79476666635,
      "d": 778.7589333333308,
      "v": 90
    },
    {
      "midi": 58,
      "hit": false,
      "t": 78340.49383333302,
      "d": 1106.1916666666657,
      "v": 83
    },
    {
      "midi": 42,
      "hit": false,
      "t": 79424.56166666636,
      "d": 230.08786666666856,
      "v": 106
    },
    {
      "midi": 57,
      "hit": false,
      "t": 80464.38183333303,
      "d": 176.9906666666502,
      "v": 106
    },
    {
      "midi": 51,
      "hit": false,
      "t": 80473.23136666635,
      "d": 163.71636666666018,
      "v": 102
    },
    {
      "midi": 56,
      "hit": false,
      "t": 82796.23386666634,
      "d": 964.5991333333077,
      "v": 95
    },
    {
      "midi": 61,
      "hit": false,
      "t": 82800.658633333,
      "d": 964.5991333333077,
      "v": 97
    },
    {
      "midi": 63,
      "hit": false,
      "t": 82809.50816666633,
      "d": 1026.5458666666527,
      "v": 95
    },
    {
      "midi": 66,
      "hit": false,
      "t": 82813.932933333,
      "d": 1008.8467999999848,
      "v": 95
    },
    {
      "midi": 40,
      "hit": false,
      "t": 82822.78246666632,
      "d": 982.2981999999902,
      "v": 97
    },
    {
      "midi": 56,
      "hit": false,
      "t": 83884.72646666632,
      "d": 840.7056666666613,
      "v": 92
    },
    {
      "midi": 60,
      "hit": false,
      "t": 83902.425533333,
      "d": 942.475299999991,
      "v": 94
    },
    {
      "midi": 44,
      "hit": false,
      "t": 83902.425533333,
      "d": 986.7229666666681,
      "v": 83
    },
    {
      "midi": 64,
      "hit": false,
      "t": 83902.425533333,
      "d": 995.5724999999948,
      "v": 88
    },
    {
      "midi": 54,
      "hit": false,
      "t": 83906.85029999966,
      "d": 969.0239000000001,
      "v": 90
    },
    {
      "midi": 56,
      "hit": false,
      "t": 84946.67046666633,
      "d": 907.0771666666551,
      "v": 90
    },
    {
      "midi": 66,
      "hit": false,
      "t": 84946.67046666633,
      "d": 933.6257666666497,
      "v": 83
    },
    {
      "midi": 63,
      "hit": false,
      "t": 84955.51999999965,
      "d": 951.3248333333177,
      "v": 75
    },
    {
      "midi": 49,
      "hit": false,
      "t": 84959.94476666632,
      "d": 969.0238999999856,
      "v": 94
    },
    {
      "midi": 59,
      "hit": false,
      "t": 84964.36953333298,
      "d": 942.475299999991,
      "v": 92
    },
    {
      "midi": 68,
      "hit": false,
      "t": 86008.6144666663,
      "d": 977.8734333333123,
      "v": 95
    },
    {
      "midi": 58,
      "hit": false,
      "t": 86026.31353333297,
      "d": 898.2276333333139,
      "v": 91
    },
    {
      "midi": 42,
      "hit": false,
      "t": 86026.31353333297,
      "d": 973.4486666666489,
      "v": 83
    },
    {
      "midi": 63,
      "hit": false,
      "t": 86030.73829999963,
      "d": 938.0505333333131,
      "v": 75
    },
    {
      "midi": 60,
      "hit": false,
      "t": 86039.58783333296,
      "d": 840.7056666666613,
      "v": 95
    },
    {
      "midi": 64,
      "hit": false,
      "t": 87088.25753333296,
      "d": 1181.4126999999717,
      "v": 92
    },
    {
      "midi": 61,
      "hit": false,
      "t": 87092.68229999962,
      "d": 1150.4393333333137,
      "v": 103
    },
    {
      "midi": 57,
      "hit": false,
      "t": 87101.53183333295,
      "d": 1163.7136333333183,
      "v": 103
    },
    {
      "midi": 49,
      "hit": false,
      "t": 87862.59169999961,
      "d": 694.6883666666545,
      "v": 102
    },
    {
      "midi": 42,
      "hit": false,
      "t": 87884.71553333294,
      "d": 641.5911666666507,
      "v": 100
    },
    {
      "midi": 61,
      "hit": false,
      "t": 88406.8379999996,
      "d": 699.1131333333469,
      "v": 100
    },
    {
      "midi": 59,
      "hit": false,
      "t": 88406.8379999996,
      "d": 712.3874333333515,
      "v": 103
    },
    {
      "midi": 57,
      "hit": false,
      "t": 88411.26276666626,
      "d": 681.414066666679,
      "v": 103
    },
    {
      "midi": 64,
      "hit": false,
      "t": 88411.26276666626,
      "d": 681.414066666679,
      "v": 106
    },
    {
      "midi": 55,
      "hit": false,
      "t": 89172.32263333295,
      "d": 1185.8374666666496,
      "v": 106
    },
    {
      "midi": 61,
      "hit": false,
      "t": 89172.32263333295,
      "d": 1194.6869999999763,
      "v": 103
    },
    {
      "midi": 64,
      "hit": false,
      "t": 89181.17216666628,
      "d": 1194.6869999999763,
      "v": 93
    },
    {
      "midi": 59,
      "hit": false,
      "t": 89190.0216999996,
      "d": 1181.4126999999862,
      "v": 98
    },
    {
      "midi": 59,
      "hit": false,
      "t": 90517.45169999958,
      "d": 221.23833333334187,
      "v": 105
    },
    {
      "midi": 61,
      "hit": false,
      "t": 90539.57553333291,
      "d": 203.53926666667394,
      "v": 100
    },
    {
      "midi": 55,
      "hit": false,
      "t": 90552.84983333292,
      "d": 185.840200000006,
      "v": 101
    },
    {
      "midi": 66,
      "hit": false,
      "t": 90552.84983333292,
      "d": 199.11449999999604,
      "v": 92
    },
    {
      "midi": 59,
      "hit": false,
      "t": 90805.06153333292,
      "d": 221.23833333332732,
      "v": 92
    },
    {
      "midi": 61,
      "hit": false,
      "t": 90805.06153333292,
      "d": 221.23833333332732,
      "v": 71
    },
    {
      "midi": 55,
      "hit": false,
      "t": 90809.48629999958,
      "d": 194.6897333333327,
      "v": 88
    },
    {
      "midi": 66,
      "hit": false,
      "t": 90809.48629999958,
      "d": 221.23833333332732,
      "v": 75
    },
    {
      "midi": 59,
      "hit": false,
      "t": 91066.12276666625,
      "d": 207.96403333332273,
      "v": 98
    },
    {
      "midi": 55,
      "hit": false,
      "t": 91070.54753333291,
      "d": 207.96403333332273,
      "v": 95
    },
    {
      "midi": 61,
      "hit": false,
      "t": 91074.97229999957,
      "d": 207.96403333332273,
      "v": 97
    },
    {
      "midi": 66,
      "hit": false,
      "t": 91083.8218333329,
      "d": 199.11449999999604,
      "v": 95
    },
    {
      "midi": 55,
      "hit": false,
      "t": 92380.27846666623,
      "d": 867.2542666666559,
      "v": 100
    },
    {
      "midi": 62,
      "hit": false,
      "t": 92389.12799999956,
      "d": 911.501933333333,
      "v": 101
    },
    {
      "midi": 66,
      "hit": false,
      "t": 92389.12799999956,
      "d": 924.7762333333376,
      "v": 97
    },
    {
      "midi": 40,
      "hit": false,
      "t": 92389.12799999956,
      "d": 929.2010000000009,
      "v": 93
    },
    {
      "midi": 67,
      "hit": false,
      "t": 93442.22246666622,
      "d": 1703.5351666666538,
      "v": 97
    },
    {
      "midi": 62,
      "hit": false,
      "t": 93442.22246666622,
      "d": 1721.2342333333218,
      "v": 99
    },
    {
      "midi": 58,
      "hit": false,
      "t": 93455.49676666623,
      "d": 1703.5351666666538,
      "v": 90
    },
    {
      "midi": 64,
      "hit": false,
      "t": 93464.34629999955,
      "d": 1641.5884333333233,
      "v": 90
    },
    {
      "midi": 48,
      "hit": false,
      "t": 93473.19583333288,
      "d": 1747.782833333331,
      "v": 98
    },
    {
      "midi": 63,
      "hit": false,
      "t": 95322.74829999954,
      "d": 902.6523999999918,
      "v": 96
    },
    {
      "midi": 57,
      "hit": false,
      "t": 95331.59783333287,
      "d": 867.2542666666704,
      "v": 99
    },
    {
      "midi": 62,
      "hit": false,
      "t": 95344.87213333287,
      "d": 880.5285666666605,
      "v": 102
    },
    {
      "midi": 67,
      "hit": false,
      "t": 95353.7216666662,
      "d": 898.2276333333284,
      "v": 101
    },
    {
      "midi": 69,
      "hit": false,
      "t": 96628.05446666619,
      "d": 274.3355333333311,
      "v": 105
    },
    {
      "midi": 74,
      "hit": false,
      "t": 96641.32876666619,
      "d": 269.9107666666532,
      "v": 100
    },
    {
      "midi": 71,
      "hit": false,
      "t": 97172.30076666617,
      "d": 327.4327333333349,
      "v": 97
    },
    {
      "midi": 67,
      "hit": false,
      "t": 97176.72553333284,
      "d": 323.00796666667156,
      "v": 104
    },
    {
      "midi": 62,
      "hit": false,
      "t": 97689.99846666618,
      "d": 2592.9132666666555,
      "v": 99
    },
    {
      "midi": 67,
      "hit": false,
      "t": 97698.8479999995,
      "d": 2641.585699999996,
      "v": 104
    },
    {
      "midi": 71,
      "hit": false,
      "t": 97698.8479999995,
      "d": 2654.8600000000006,
      "v": 100
    },
    {
      "midi": 42,
      "hit": false,
      "t": 98495.3059999995,
      "d": 199.11449999999604,
      "v": 94
    },
    {
      "midi": 49,
      "hit": false,
      "t": 98517.42983333283,
      "d": 221.23833333332732,
      "v": 71
    },
    {
      "midi": 43,
      "hit": false,
      "t": 98751.94246666617,
      "d": 265.4860000000044,
      "v": 67
    },
    {
      "midi": 50,
      "hit": false,
      "t": 98760.79199999949,
      "d": 243.36216666667315,
      "v": 102
    },
    {
      "midi": 47,
      "hit": false,
      "t": 99548.40046666616,
      "d": 247.7869333333365,
      "v": 99
    },
    {
      "midi": 40,
      "hit": false,
      "t": 99566.09953333283,
      "d": 243.36216666667315,
      "v": 105
    },
    {
      "midi": 42,
      "hit": false,
      "t": 100597.07016666618,
      "d": 243.3621666666586,
      "v": 87
    },
    {
      "midi": 49,
      "hit": false,
      "t": 100619.19399999951,
      "d": 252.21169999998529,
      "v": 98
    },
    {
      "midi": 64,
      "hit": false,
      "t": 100853.70663333284,
      "d": 398.22899999997753,
      "v": 95
    },
    {
      "midi": 73,
      "hit": false,
      "t": 100862.55616666617,
      "d": 420.35283333332336,
      "v": 96
    },
    {
      "midi": 67,
      "hit": false,
      "t": 100871.4056999995,
      "d": 176.99066666666477,
      "v": 102
    },
    {
      "midi": 43,
      "hit": false,
      "t": 100875.83046666616,
      "d": 238.93739999999525,
      "v": 83
    },
    {
      "midi": 50,
      "hit": false,
      "t": 100884.67999999948,
      "d": 221.23833333334187,
      "v": 83
    },
    {
      "midi": 69,
      "hit": false,
      "t": 100973.17533333282,
      "d": 292.03459999999905,
      "v": 83
    },
    {
      "midi": 64,
      "hit": false,
      "t": 101415.65199999949,
      "d": 367.25563333331957,
      "v": 102
    },
    {
      "midi": 73,
      "hit": false,
      "t": 101424.50153333282,
      "d": 389.3794666666654,
      "v": 98
    },
    {
      "midi": 67,
      "hit": false,
      "t": 101428.92629999948,
      "d": 203.5392666666594,
      "v": 99
    },
    {
      "midi": 69,
      "hit": false,
      "t": 101512.99686666614,
      "d": 287.6098333333357,
      "v": 83
    },
    {
      "midi": 62,
      "hit": false,
      "t": 101937.77446666615,
      "d": 1641.5884333333088,
      "v": 98
    },
    {
      "midi": 67,
      "hit": false,
      "t": 101937.77446666615,
      "d": 1681.411333333308,
      "v": 96
    },
    {
      "midi": 40,
      "hit": false,
      "t": 101946.62399999947,
      "d": 256.6364666666632,
      "v": 102
    },
    {
      "midi": 47,
      "hit": false,
      "t": 101946.62399999947,
      "d": 269.91076666666777,
      "v": 101
    },
    {
      "midi": 71,
      "hit": false,
      "t": 101946.62399999947,
      "d": 1659.2874999999767,
      "v": 91
    },
    {
      "midi": 49,
      "hit": false,
      "t": 102743.08199999947,
      "d": 221.23833333332732,
      "v": 102
    },
    {
      "midi": 42,
      "hit": false,
      "t": 102751.9315333328,
      "d": 212.38880000000063,
      "v": 85
    },
    {
      "midi": 43,
      "hit": false,
      "t": 102999.71846666613,
      "d": 225.66309999999066,
      "v": 85
    },
    {
      "midi": 50,
      "hit": false,
      "t": 103008.56799999946,
      "d": 252.21169999999984,
      "v": 95
    },
    {
      "midi": 59,
      "hit": false,
      "t": 103787.32693333279,
      "d": 650.4406999999919,
      "v": 100
    },
    {
      "midi": 64,
      "hit": false,
      "t": 103791.75169999946,
      "d": 619.467333333334,
      "v": 100
    },
    {
      "midi": 67,
      "hit": false,
      "t": 103805.02599999946,
      "d": 716.8121999999858,
      "v": 102
    },
    {
      "midi": 48,
      "hit": false,
      "t": 103809.45076666612,
      "d": 606.1930333333294,
      "v": 101
    },
    {
      "midi": 47,
      "hit": false,
      "t": 104548.38679999944,
      "d": 376.1051666666608,
      "v": 99
    },
    {
      "midi": 66,
      "hit": false,
      "t": 104610.33353333277,
      "d": 362.8308666666562,
      "v": 94
    },
    {
      "midi": 57,
      "hit": false,
      "t": 104614.75829999943,
      "d": 362.8308666666562,
      "v": 104
    },
    {
      "midi": 62,
      "hit": false,
      "t": 104623.60783333276,
      "d": 340.7070333333395,
      "v": 105
    },
    {
      "midi": 64,
      "hit": false,
      "t": 105154.57983333275,
      "d": 345.1317999999883,
      "v": 99
    },
    {
      "midi": 55,
      "hit": false,
      "t": 105159.00459999942,
      "d": 371.68039999999746,
      "v": 106
    },
    {
      "midi": 45,
      "hit": false,
      "t": 105163.42936666608,
      "d": 274.3355333333311,
      "v": 104
    },
    {
      "midi": 60,
      "hit": false,
      "t": 105167.85413333274,
      "d": 314.1584333333303,
      "v": 103
    },
    {
      "midi": 43,
      "hit": false,
      "t": 105689.97659999941,
      "d": 314.1584333333303,
      "v": 100
    },
    {
      "midi": 59,
      "hit": false,
      "t": 105694.40136666608,
      "d": 287.6098333333357,
      "v": 103
    },
    {
      "midi": 42,
      "hit": false,
      "t": 105964.31213333274,
      "d": 933.6257666666643,
      "v": 97
    },
    {
      "midi": 58,
      "hit": false,
      "t": 105986.43596666607,
      "d": 1920.3487333333323,
      "v": 85
    },
    {
      "midi": 42,
      "hit": false,
      "t": 107057.2294999994,
      "d": 265.4860000000044,
      "v": 100
    },
    {
      "midi": 41,
      "hit": false,
      "t": 108057.22676666608,
      "d": 2101.764166666675,
      "v": 96
    },
    {
      "midi": 57,
      "hit": false,
      "t": 108074.92583333275,
      "d": 1893.8001333333377,
      "v": 105
    },
    {
      "midi": 66,
      "hit": false,
      "t": 110442.17599999942,
      "d": 1092.917366666661,
      "v": 71
    },
    {
      "midi": 71,
      "hit": false,
      "t": 110451.02553333275,
      "d": 1084.0678333333344,
      "v": 94
    },
    {
      "midi": 55,
      "hit": false,
      "t": 110451.02553333275,
      "d": 1358.4033666666655,
      "v": 88
    },
    {
      "midi": 59,
      "hit": false,
      "t": 110455.45029999941,
      "d": 1353.9786000000022,
      "v": 90
    },
    {
      "midi": 81,
      "hit": false,
      "t": 111990.84433333275,
      "d": 221.23833333332732,
      "v": 98
    },
    {
      "midi": 74,
      "hit": false,
      "t": 111990.84433333275,
      "d": 234.5126333333319,
      "v": 100
    },
    {
      "midi": 71,
      "hit": false,
      "t": 111999.69386666607,
      "d": 234.5126333333319,
      "v": 100
    },
    {
      "midi": 78,
      "hit": false,
      "t": 112017.39293333274,
      "d": 247.7869333333365,
      "v": 98
    },
    {
      "midi": 71,
      "hit": false,
      "t": 112300.57799999941,
      "d": 146.01729999999225,
      "v": 97
    },
    {
      "midi": 78,
      "hit": false,
      "t": 112305.00276666608,
      "d": 137.16776666666556,
      "v": 94
    },
    {
      "midi": 74,
      "hit": false,
      "t": 112322.70183333274,
      "d": 150.4420666666556,
      "v": 101
    },
    {
      "midi": 81,
      "hit": false,
      "t": 112322.70183333274,
      "d": 150.4420666666556,
      "v": 103
    },
    {
      "midi": 59,
      "hit": false,
      "t": 112866.94813333273,
      "d": 88.49533333333966,
      "v": 83
    },
    {
      "midi": 74,
      "hit": false,
      "t": 112866.94813333273,
      "d": 128.31823333333887,
      "v": 103
    },
    {
      "midi": 78,
      "hit": false,
      "t": 112866.94813333273,
      "d": 128.31823333333887,
      "v": 91
    },
    {
      "midi": 67,
      "hit": false,
      "t": 112866.94813333273,
      "d": 132.7430000000022,
      "v": 92
    },
    {
      "midi": 55,
      "hit": false,
      "t": 112880.22243333273,
      "d": 92.920100000003,
      "v": 83
    },
    {
      "midi": 71,
      "hit": false,
      "t": 112880.22243333273,
      "d": 128.31823333332432,
      "v": 97
    },
    {
      "midi": 67,
      "hit": false,
      "t": 113366.94676666605,
      "d": 141.59253333331435,
      "v": 94
    },
    {
      "midi": 71,
      "hit": false,
      "t": 113371.37153333271,
      "d": 154.86683333330438,
      "v": 97
    },
    {
      "midi": 59,
      "hit": false,
      "t": 113375.79629999938,
      "d": 141.59253333331435,
      "v": 82
    },
    {
      "midi": 55,
      "hit": false,
      "t": 113384.6458333327,
      "d": 119.46869999999763,
      "v": 75
    },
    {
      "midi": 74,
      "hit": false,
      "t": 113384.6458333327,
      "d": 154.86683333331894,
      "v": 98
    },
    {
      "midi": 78,
      "hit": false,
      "t": 113384.6458333327,
      "d": 163.71636666664563,
      "v": 86
    },
    {
      "midi": 78,
      "hit": false,
      "t": 113871.37016666602,
      "d": 575.2196666666714,
      "v": 78
    },
    {
      "midi": 74,
      "hit": false,
      "t": 113893.49399999935,
      "d": 504.4233999999997,
      "v": 86
    },
    {
      "midi": 59,
      "hit": false,
      "t": 113906.76829999936,
      "d": 707.9626666666736,
      "v": 80
    },
    {
      "midi": 55,
      "hit": false,
      "t": 113928.89213333269,
      "d": 685.8388333333423,
      "v": 80
    },
    {
      "midi": 71,
      "hit": false,
      "t": 113964.29026666602,
      "d": 424.77760000000126,
      "v": 68
    },
    {
      "midi": 67,
      "hit": false,
      "t": 114079.33419999936,
      "d": 309.733666666667,
      "v": 75
    },
    {
      "midi": 76,
      "hit": false,
      "t": 114694.37676666603,
      "d": 566.3701333333302,
      "v": 83
    },
    {
      "midi": 85,
      "hit": false,
      "t": 114720.92536666602,
      "d": 730.0865000000049,
      "v": 81
    },
    {
      "midi": 81,
      "hit": false,
      "t": 115256.3221333327,
      "d": 1110.616433333329,
      "v": 67
    },
    {
      "midi": 76,
      "hit": false,
      "t": 115375.79083333269,
      "d": 1207.96130000001,
      "v": 87
    },
    {
      "midi": 85,
      "hit": false,
      "t": 115557.20626666602,
      "d": 955.7496000000101,
      "v": 83
    },
    {
      "midi": 88,
      "hit": false,
      "t": 116804.99046666603,
      "d": 690.2635999999911,
      "v": 84
    },
    {
      "midi": 83,
      "hit": false,
      "t": 116822.6895333327,
      "d": 163.71636666666018,
      "v": 99
    },
    {
      "midi": 85,
      "hit": false,
      "t": 116946.58299999936,
      "d": 548.6710666666622,
      "v": 90
    },
    {
      "midi": 78,
      "hit": false,
      "t": 117123.57366666602,
      "d": 353.98133333332953,
      "v": 82
    },
    {
      "midi": 83,
      "hit": false,
      "t": 117632.42183333269,
      "d": 150.44206666667014,
      "v": 83
    },
    {
      "midi": 88,
      "hit": false,
      "t": 117632.42183333269,
      "d": 734.5112666666682,
      "v": 91
    },
    {
      "midi": 85,
      "hit": false,
      "t": 117765.16483333269,
      "d": 929.2010000000009,
      "v": 83
    },
    {
      "midi": 78,
      "hit": false,
      "t": 117920.03166666602,
      "d": 796.4579999999987,
      "v": 82
    },
    {
      "midi": 76,
      "hit": false,
      "t": 118420.03029999936,
      "d": 314.1584333333303,
      "v": 80
    },
    {
      "midi": 64,
      "hit": false,
      "t": 118928.87846666602,
      "d": 3831.847933333338,
      "v": 82
    },
    {
      "midi": 78,
      "hit": false,
      "t": 118959.8518333327,
      "d": 716.8122000000003,
      "v": 83
    },
    {
      "midi": 67,
      "hit": false,
      "t": 118968.70136666602,
      "d": 3805.2993333333434,
      "v": 67
    },
    {
      "midi": 71,
      "hit": false,
      "t": 118973.12613333268,
      "d": 690.2636000000057,
      "v": 83
    },
    {
      "midi": 74,
      "hit": false,
      "t": 118973.12613333268,
      "d": 703.5379000000103,
      "v": 90
    },
    {
      "midi": 74,
      "hit": false,
      "t": 119725.33646666603,
      "d": 747.7855666666728,
      "v": 101
    },
    {
      "midi": 81,
      "hit": false,
      "t": 119738.61076666604,
      "d": 809.7323000000033,
      "v": 94
    },
    {
      "midi": 71,
      "hit": false,
      "t": 119747.46029999937,
      "d": 707.9626666666736,
      "v": 104
    },
    {
      "midi": 78,
      "hit": false,
      "t": 119999.67199999937,
      "d": 575.2196666666714,
      "v": 67
    },
    {
      "midi": 85,
      "hit": false,
      "t": 120809.40429999937,
      "d": 707.9626666666591,
      "v": 101
    },
    {
      "midi": 78,
      "hit": false,
      "t": 120827.10336666604,
      "d": 849.555199999988,
      "v": 99
    },
    {
      "midi": 74,
      "hit": false,
      "t": 120831.5281333327,
      "d": 836.2808999999979,
      "v": 103
    },
    {
      "midi": 81,
      "hit": false,
      "t": 121105.86366666603,
      "d": 486.72433333333174,
      "v": 90
    },
    {
      "midi": 74,
      "hit": false,
      "t": 121880.1978333327,
      "d": 309.733666666667,
      "v": 94
    },
    {
      "midi": 78,
      "hit": false,
      "t": 121889.04736666603,
      "d": 318.5832000000082,
      "v": 93
    },
    {
      "midi": 81,
      "hit": false,
      "t": 121889.04736666603,
      "d": 398.22900000000664,
      "v": 94
    },
    {
      "midi": 74,
      "hit": false,
      "t": 122389.04599999936,
      "d": 442.4766666666692,
      "v": 85
    },
    {
      "midi": 71,
      "hit": false,
      "t": 122393.47076666603,
      "d": 415.92806666667457,
      "v": 83
    },
    {
      "midi": 78,
      "hit": false,
      "t": 122411.1698333327,
      "d": 486.72433333333174,
      "v": 77
    },
    {
      "midi": 64,
      "hit": false,
      "t": 123163.38016666603,
      "d": 743.3607999999949,
      "v": 71
    },
    {
      "midi": 86,
      "hit": false,
      "t": 123163.38016666603,
      "d": 818.58183333333,
      "v": 75
    },
    {
      "midi": 58,
      "hit": false,
      "t": 123163.38016666603,
      "d": 3761.0516666665935,
      "v": 80
    },
    {
      "midi": 79,
      "hit": false,
      "t": 123185.50399999936,
      "d": 632.741633333324,
      "v": 82
    },
    {
      "midi": 82,
      "hit": false,
      "t": 123185.50399999936,
      "d": 734.5112666666682,
      "v": 78
    },
    {
      "midi": 90,
      "hit": false,
      "t": 123189.92876666602,
      "d": 1734.5085333333263,
      "v": 80
    },
    {
      "midi": 69,
      "hit": false,
      "t": 123198.77829999935,
      "d": 725.6617333333415,
      "v": 95
    },
    {
      "midi": 93,
      "hit": false,
      "t": 123995.23629999936,
      "d": 889.3780999999872,
      "v": 91
    },
    {
      "midi": 82,
      "hit": false,
      "t": 124004.08583333269,
      "d": 929.2009999999864,
      "v": 76
    },
    {
      "midi": 86,
      "hit": false,
      "t": 124004.08583333269,
      "d": 933.6257666666497,
      "v": 80
    },
    {
      "midi": 64,
      "hit": false,
      "t": 124004.08583333269,
      "d": 2898.222166666601,
      "v": 89
    },
    {
      "midi": 69,
      "hit": false,
      "t": 124008.51059999935,
      "d": 2884.947866666611,
      "v": 90
    },
    {
      "midi": 81,
      "hit": false,
      "t": 125021.782166666,
      "d": 464.6004999999859,
      "v": 95
    },
    {
      "midi": 86,
      "hit": false,
      "t": 125035.056466666,
      "d": 287.60983333332115,
      "v": 88
    },
    {
      "midi": 90,
      "hit": false,
      "t": 125043.90599999933,
      "d": 274.3355333333311,
      "v": 83
    },
    {
      "midi": 81,
      "hit": false,
      "t": 125530.63033333265,
      "d": 464.6004999999859,
      "v": 82
    },
    {
      "midi": 86,
      "hit": false,
      "t": 125552.75416666598,
      "d": 446.901433333318,
      "v": 87
    },
    {
      "midi": 78,
      "hit": false,
      "t": 125561.60369999931,
      "d": 446.901433333318,
      "v": 81
    },
    {
      "midi": 74,
      "hit": false,
      "t": 126083.72616666596,
      "d": 774.3341666666674,
      "v": 80
    },
    {
      "midi": 78,
      "hit": false,
      "t": 126105.8499999993,
      "d": 738.9360333333316,
      "v": 82
    },
    {
      "midi": 81,
      "hit": false,
      "t": 126119.1242999993,
      "d": 761.0598666666629,
      "v": 82
    },
    {
      "midi": 66,
      "hit": false,
      "t": 127464.25336666596,
      "d": 973.4486666666635,
      "v": 95
    },
    {
      "midi": 69,
      "hit": false,
      "t": 127468.67813333262,
      "d": 929.2010000000009,
      "v": 99
    },
    {
      "midi": 61,
      "hit": false,
      "t": 127468.67813333262,
      "d": 1084.0678333333344,
      "v": 90
    },
    {
      "midi": 73,
      "hit": false,
      "t": 128504.07353333262,
      "d": 960.1743666666734,
      "v": 94
    },
    {
      "midi": 69,
      "hit": false,
      "t": 128517.34783333262,
      "d": 951.3248333333322,
      "v": 94
    },
    {
      "midi": 64,
      "hit": false,
      "t": 128539.47166666595,
      "d": 911.501933333333,
      "v": 91
    },
    {
      "midi": 61,
      "hit": false,
      "t": 129557.16799999929,
      "d": 973.4486666666635,
      "v": 100
    },
    {
      "midi": 65,
      "hit": false,
      "t": 129561.59276666596,
      "d": 2092.9146333333483,
      "v": 94
    },
    {
      "midi": 71,
      "hit": false,
      "t": 129579.29183333262,
      "d": 2141.5870666666306,
      "v": 105
    },
    {
      "midi": 64,
      "hit": false,
      "t": 130641.23583333263,
      "d": 1026.5458666666673,
      "v": 88
    },
    {
      "midi": 48,
      "hit": false,
      "t": 131681.05599999928,
      "d": 2022.1183666666038,
      "v": 87
    },
    {
      "midi": 59,
      "hit": false,
      "t": 131689.9055333326,
      "d": 1999.994533333287,
      "v": 83
    },
    {
      "midi": 52,
      "hit": false,
      "t": 131694.33029999927,
      "d": 1986.720233333297,
      "v": 86
    },
    {
      "midi": 55,
      "hit": false,
      "t": 131703.1798333326,
      "d": 1991.1449999999604,
      "v": 88
    },
    {
      "midi": 69,
      "hit": false,
      "t": 132481.93876666593,
      "d": 159.29159999999683,
      "v": 90
    },
    {
      "midi": 72,
      "hit": false,
      "t": 132481.93876666593,
      "d": 203.5392666666594,
      "v": 80
    },
    {
      "midi": 76,
      "hit": false,
      "t": 132490.78829999926,
      "d": 194.6897333333327,
      "v": 90
    },
    {
      "midi": 81,
      "hit": false,
      "t": 132499.63783333258,
      "d": 199.11449999999604,
      "v": 91
    },
    {
      "midi": 72,
      "hit": false,
      "t": 132773.97336666592,
      "d": 207.96403333332273,
      "v": 84
    },
    {
      "midi": 76,
      "hit": false,
      "t": 132778.39813333258,
      "d": 203.5392666666594,
      "v": 67
    },
    {
      "midi": 81,
      "hit": false,
      "t": 132791.67243333257,
      "d": 243.3621666666586,
      "v": 89
    },
    {
      "midi": 69,
      "hit": false,
      "t": 132800.5219666659,
      "d": 181.41543333334266,
      "v": 86
    },
    {
      "midi": 79,
      "hit": false,
      "t": 133141.22899999924,
      "d": 274.335533333302,
      "v": 88
    },
    {
      "midi": 71,
      "hit": false,
      "t": 133154.50329999923,
      "d": 238.93739999999525,
      "v": 91
    },
    {
      "midi": 76,
      "hit": false,
      "t": 133163.35283333255,
      "d": 247.78693333332194,
      "v": 99
    },
    {
      "midi": 83,
      "hit": false,
      "t": 133163.35283333255,
      "d": 247.78693333332194,
      "v": 89
    },
    {
      "midi": 79,
      "hit": false,
      "t": 133517.33416666588,
      "d": 243.3621666666877,
      "v": 88
    },
    {
      "midi": 72,
      "hit": false,
      "t": 133539.45799999923,
      "d": 199.11449999999604,
      "v": 99
    },
    {
      "midi": 75,
      "hit": false,
      "t": 133539.45799999923,
      "d": 221.23833333334187,
      "v": 95
    },
    {
      "midi": 84,
      "hit": false,
      "t": 133543.8827666659,
      "d": 216.81356666667853,
      "v": 96
    },
    {
      "midi": 84,
      "hit": false,
      "t": 133818.21829999922,
      "d": 929.2009999999718,
      "v": 94
    },
    {
      "midi": 79,
      "hit": false,
      "t": 133827.06783333255,
      "d": 960.1743666666443,
      "v": 94
    },
    {
      "midi": 72,
      "hit": false,
      "t": 133835.91736666588,
      "d": 920.3514666666451,
      "v": 96
    },
    {
      "midi": 51,
      "hit": false,
      "t": 133835.91736666588,
      "d": 2013.268833333248,
      "v": 82
    },
    {
      "midi": 47,
      "hit": false,
      "t": 133835.91736666588,
      "d": 2154.8613666665624,
      "v": 83
    },
    {
      "midi": 75,
      "hit": false,
      "t": 133840.34213333254,
      "d": 955.749599999981,
      "v": 94
    },
    {
      "midi": 57,
      "hit": false,
      "t": 133840.34213333254,
      "d": 1862.826766666607,
      "v": 82
    },
    {
      "midi": 75,
      "hit": false,
      "t": 134875.73753333252,
      "d": 619.467333333334,
      "v": 85
    },
    {
      "midi": 71,
      "hit": false,
      "t": 134880.16229999918,
      "d": 570.794900000008,
      "v": 91
    },
    {
      "midi": 79,
      "hit": false,
      "t": 134902.28613333253,
      "d": 610.6177999999782,
      "v": 83
    },
    {
      "midi": 83,
      "hit": false,
      "t": 134919.98519999918,
      "d": 561.9453666666814,
      "v": 80
    },
    {
      "midi": 69,
      "hit": false,
      "t": 135663.34599999918,
      "d": 168.14113333329442,
      "v": 82
    },
    {
      "midi": 75,
      "hit": false,
      "t": 135672.1955333325,
      "d": 154.86683333330438,
      "v": 80
    },
    {
      "midi": 81,
      "hit": false,
      "t": 135685.4698333325,
      "d": 123.89346666666097,
      "v": 83
    },
    {
      "midi": 76,
      "hit": false,
      "t": 135942.1062999991,
      "d": 2079.6403333333437,
      "v": 81
    },
    {
      "midi": 55,
      "hit": false,
      "t": 135942.1062999991,
      "d": 2106.188933333324,
      "v": 80
    },
    {
      "midi": 79,
      "hit": false,
      "t": 135950.95583333244,
      "d": 2044.2422000000079,
      "v": 81
    },
    {
      "midi": 52,
      "hit": false,
      "t": 135950.95583333244,
      "d": 2079.6403333333437,
      "v": 79
    },
    {
      "midi": 71,
      "hit": false,
      "t": 135950.95583333244,
      "d": 2084.065100000007,
      "v": 87
    },
    {
      "midi": 67,
      "hit": false,
      "t": 135964.23013333243,
      "d": 2057.516500000027,
      "v": 81
    },
    {
      "midi": 67,
      "hit": false,
      "t": 139127.9382999991,
      "d": 172.56589999998687,
      "v": 103
    },
    {
      "midi": 73,
      "hit": false,
      "t": 139127.9382999991,
      "d": 424.77760000000126,
      "v": 90
    },
    {
      "midi": 64,
      "hit": false,
      "t": 139136.78783333243,
      "d": 420.3528333333379,
      "v": 103
    },
    {
      "midi": 69,
      "hit": false,
      "t": 139247.4069999991,
      "d": 331.8575000000128,
      "v": 82
    },
    {
      "midi": 67,
      "hit": false,
      "t": 139672.1845999991,
      "d": 132.74299999998766,
      "v": 105
    },
    {
      "midi": 73,
      "hit": false,
      "t": 139689.88366666576,
      "d": 517.6976999999897,
      "v": 94
    },
    {
      "midi": 64,
      "hit": false,
      "t": 139698.7331999991,
      "d": 508.848166666663,
      "v": 99
    },
    {
      "midi": 69,
      "hit": false,
      "t": 139800.50283333243,
      "d": 389.3794666666654,
      "v": 83
    },
    {
      "midi": 69,
      "hit": false,
      "t": 140950.94216666574,
      "d": 66.37149999997928,
      "v": 99
    },
    {
      "midi": 58,
      "hit": false,
      "t": 140959.79169999907,
      "d": 66.37149999997928,
      "v": 95
    },
    {
      "midi": 64,
      "hit": false,
      "t": 140973.06599999906,
      "d": 57.52196666665259,
      "v": 100
    },
    {
      "midi": 58,
      "hit": false,
      "t": 141238.55199999904,
      "d": 384.95470000000205,
      "v": 100
    },
    {
      "midi": 64,
      "hit": false,
      "t": 141238.55199999904,
      "d": 398.2289999999921,
      "v": 102
    },
    {
      "midi": 69,
      "hit": false,
      "t": 141251.82629999903,
      "d": 384.95470000000205,
      "v": 99
    },
    {
      "midi": 64,
      "hit": false,
      "t": 141782.79829999903,
      "d": 296.45936666664784,
      "v": 95
    },
    {
      "midi": 58,
      "hit": false,
      "t": 141791.64783333236,
      "d": 194.6897333333327,
      "v": 102
    },
    {
      "midi": 69,
      "hit": false,
      "t": 141791.64783333236,
      "d": 216.81356666667853,
      "v": 92
    },
    {
      "midi": 67,
      "hit": false,
      "t": 142043.85953333238,
      "d": 1092.917366666661,
      "v": 80
    },
    {
      "midi": 57,
      "hit": false,
      "t": 142057.13383333237,
      "d": 1283.1823333333305,
      "v": 98
    },
    {
      "midi": 63,
      "hit": false,
      "t": 142070.40813333236,
      "d": 1039.8201666666719,
      "v": 90
    },
    {
      "midi": 74,
      "hit": false,
      "t": 143353.5904666657,
      "d": 991.1477333333751,
      "v": 103
    },
    {
      "midi": 69,
      "hit": false,
      "t": 143375.71429999903,
      "d": 411.5033000000112,
      "v": 97
    },
    {
      "midi": 71,
      "hit": false,
      "t": 143782.79283333238,
      "d": 88.4953333333251,
      "v": 83
    },
    {
      "midi": 69,
      "hit": false,
      "t": 143871.2881666657,
      "d": 97.3448666666809,
      "v": 93
    },
    {
      "midi": 67,
      "hit": false,
      "t": 143937.6596666657,
      "d": 491.14910000000964,
      "v": 105
    },
    {
      "midi": 47,
      "hit": false,
      "t": 144424.38399999906,
      "d": 256.63646666664863,
      "v": 106
    },
    {
      "midi": 40,
      "hit": false,
      "t": 144437.65829999905,
      "d": 225.66310000000522,
      "v": 103
    },
    {
      "midi": 71,
      "hit": false,
      "t": 144459.7821333324,
      "d": 3079.6375999999873,
      "v": 86
    },
    {
      "midi": 62,
      "hit": false,
      "t": 144468.63166666572,
      "d": 3075.212833333324,
      "v": 102
    },
    {
      "midi": 49,
      "hit": false,
      "t": 145229.69153333237,
      "d": 234.5126333333319,
      "v": 84
    },
    {
      "midi": 42,
      "hit": false,
      "t": 145242.96583333236,
      "d": 199.11449999999604,
      "v": 89
    },
    {
      "midi": 50,
      "hit": false,
      "t": 145495.17753333237,
      "d": 185.840200000006,
      "v": 94
    },
    {
      "midi": 43,
      "hit": false,
      "t": 145517.30136666572,
      "d": 199.11449999999604,
      "v": 85
    },
    {
      "midi": 47,
      "hit": false,
      "t": 146282.78599999906,
      "d": 181.41543333331356,
      "v": 97
    },
    {
      "midi": 40,
      "hit": false,
      "t": 146296.06029999905,
      "d": 190.26496666666935,
      "v": 91
    },
    {
      "midi": 42,
      "hit": false,
      "t": 147344.72999999905,
      "d": 212.38879999998608,
      "v": 90
    },
    {
      "midi": 49,
      "hit": false,
      "t": 147358.00429999904,
      "d": 181.41543333334266,
      "v": 103
    },
    {
      "midi": 50,
      "hit": false,
      "t": 147601.3664666657,
      "d": 252.21169999995618,
      "v": 79
    },
    {
      "midi": 43,
      "hit": false,
      "t": 147601.3664666657,
      "d": 269.91076666660956,
      "v": 83
    },
    {
      "midi": 67,
      "hit": false,
      "t": 147614.6407666657,
      "d": 146.0172999999777,
      "v": 103
    },
    {
      "midi": 64,
      "hit": false,
      "t": 147619.06553333235,
      "d": 309.73366666660877,
      "v": 99
    },
    {
      "midi": 73,
      "hit": false,
      "t": 147632.33983333234,
      "d": 318.58319999996456,
      "v": 97
    },
    {
      "midi": 69,
      "hit": false,
      "t": 147720.83516666567,
      "d": 207.96403333329363,
      "v": 83
    },
    {
      "midi": 64,
      "hit": false,
      "t": 148154.46229999897,
      "d": 287.60983333332115,
      "v": 95
    },
    {
      "midi": 67,
      "hit": false,
      "t": 148163.3118333323,
      "d": 141.59253333331435,
      "v": 103
    },
    {
      "midi": 73,
      "hit": false,
      "t": 148172.16136666562,
      "d": 296.45936666667694,
      "v": 94
    },
    {
      "midi": 69,
      "hit": false,
      "t": 148296.05483333228,
      "d": 199.11450000002515,
      "v": 83
    },
    {
      "midi": 62,
      "hit": false,
      "t": 148672.15999999898,
      "d": 2849.5497333333187,
      "v": 92
    },
    {
      "midi": 47,
      "hit": false,
      "t": 148685.43429999897,
      "d": 234.5126333333319,
      "v": 104
    },
    {
      "midi": 71,
      "hit": false,
      "t": 148685.43429999897,
      "d": 2938.045066666644,
      "v": 88
    },
    {
      "midi": 67,
      "hit": false,
      "t": 148694.2838333323,
      "d": 2915.921233333327,
      "v": 101
    },
    {
      "midi": 40,
      "hit": false,
      "t": 148698.70859999896,
      "d": 225.66310000000522,
      "v": 89
    },
    {
      "midi": 49,
      "hit": false,
      "t": 149468.61799999897,
      "d": 185.840200000006,
      "v": 105
    },
    {
      "midi": 42,
      "hit": false,
      "t": 149468.61799999897,
      "d": 207.96403333335184,
      "v": 88
    },
    {
      "midi": 43,
      "hit": false,
      "t": 149689.8563333323,
      "d": 269.91076666666777,
      "v": 88
    },
    {
      "midi": 50,
      "hit": false,
      "t": 149716.40493333232,
      "d": 243.3621666666586,
      "v": 83
    },
    {
      "midi": 47,
      "hit": false,
      "t": 150530.561999999,
      "d": 163.71636666666018,
      "v": 98
    },
    {
      "midi": 40,
      "hit": false,
      "t": 150543.83629999898,
      "d": 159.29159999999683,
      "v": 90
    },
    {
      "midi": 49,
      "hit": false,
      "t": 151574.8069333323,
      "d": 181.41543333331356,
      "v": 102
    },
    {
      "midi": 42,
      "hit": false,
      "t": 151579.23169999896,
      "d": 185.8401999999769,
      "v": 80
    },
    {
      "midi": 50,
      "hit": false,
      "t": 151813.74433333226,
      "d": 256.63646666664863,
      "v": 89
    },
    {
      "midi": 43,
      "hit": false,
      "t": 151818.16909999892,
      "d": 283.1850666666578,
      "v": 82
    },
    {
      "midi": 64,
      "hit": false,
      "t": 151818.16909999892,
      "d": 300.8841333333112,
      "v": 89
    },
    {
      "midi": 65,
      "hit": false,
      "t": 151835.86816666558,
      "d": 8.84953333332669,
      "v": 85
    },
    {
      "midi": 68,
      "hit": false,
      "t": 151835.86816666558,
      "d": 35.39813333333586,
      "v": 96
    },
    {
      "midi": 67,
      "hit": false,
      "t": 151835.86816666558,
      "d": 154.8668333333335,
      "v": 100
    },
    {
      "midi": 73,
      "hit": false,
      "t": 151844.7176999989,
      "d": 309.733666666667,
      "v": 95
    },
    {
      "midi": 69,
      "hit": false,
      "t": 151924.3634999989,
      "d": 230.08786666666856,
      "v": 85
    },
    {
      "midi": 67,
      "hit": false,
      "t": 152388.9639999989,
      "d": 128.31823333335342,
      "v": 106
    },
    {
      "midi": 64,
      "hit": false,
      "t": 152388.9639999989,
      "d": 287.60983333335025,
      "v": 99
    },
    {
      "midi": 73,
      "hit": false,
      "t": 152411.08783333225,
      "d": 274.3355333333311,
      "v": 92
    },
    {
      "midi": 69,
      "hit": false,
      "t": 152486.30886666558,
      "d": 199.11449999999604,
      "v": 71
    },
    {
      "midi": 67,
      "hit": false,
      "t": 152902.23693333226,
      "d": 2867.248799999972,
      "v": 99
    },
    {
      "midi": 71,
      "hit": false,
      "t": 152906.66169999892,
      "d": 2862.8240333333088,
      "v": 99
    },
    {
      "midi": 47,
      "hit": false,
      "t": 152911.08646666558,
      "d": 84.07056666666176,
      "v": 99
    },
    {
      "midi": 40,
      "hit": false,
      "t": 152919.9359999989,
      "d": 115.04393333333428,
      "v": 92
    },
    {
      "midi": 62,
      "hit": false,
      "t": 152924.36076666557,
      "d": 2831.8506666666653,
      "v": 99
    },
    {
      "midi": 49,
      "hit": false,
      "t": 153729.6682999989,
      "d": 216.81356666667853,
      "v": 88
    },
    {
      "midi": 42,
      "hit": false,
      "t": 153751.79213333226,
      "d": 194.6897333333327,
      "v": 96
    },
    {
      "midi": 50,
      "hit": false,
      "t": 154004.00383333224,
      "d": 154.8668333333335,
      "v": 94
    },
    {
      "midi": 43,
      "hit": false,
      "t": 154008.4285999989,
      "d": 159.29159999999683,
      "v": 75
    },
    {
      "midi": 40,
      "hit": false,
      "t": 154791.6122999989,
      "d": 199.11449999999604,
      "v": 96
    },
    {
      "midi": 47,
      "hit": false,
      "t": 154800.46183333223,
      "d": 199.11449999999604,
      "v": 102
    },
    {
      "midi": 49,
      "hit": false,
      "t": 155840.2819999989,
      "d": 212.38879999998608,
      "v": 101
    },
    {
      "midi": 42,
      "hit": false,
      "t": 155844.70676666556,
      "d": 199.11449999999604,
      "v": 100
    },
    {
      "midi": 50,
      "hit": false,
      "t": 156083.64416666556,
      "d": 261.061233333312,
      "v": 86
    },
    {
      "midi": 43,
      "hit": false,
      "t": 156083.64416666556,
      "d": 278.76029999996535,
      "v": 85
    },
    {
      "midi": 64,
      "hit": false,
      "t": 156110.19276666557,
      "d": 318.58319999996456,
      "v": 103
    },
    {
      "midi": 68,
      "hit": false,
      "t": 156119.0422999989,
      "d": 30.973366666643415,
      "v": 90
    },
    {
      "midi": 67,
      "hit": false,
      "t": 156119.0422999989,
      "d": 181.41543333331356,
      "v": 104
    },
    {
      "midi": 73,
      "hit": false,
      "t": 156136.74136666555,
      "d": 318.58319999996456,
      "v": 97
    },
    {
      "midi": 69,
      "hit": false,
      "t": 156216.38716666555,
      "d": 230.08786666663946,
      "v": 83
    },
    {
      "midi": 67,
      "hit": false,
      "t": 156641.16476666552,
      "d": 154.86683333330438,
      "v": 103
    },
    {
      "midi": 64,
      "hit": false,
      "t": 156650.01429999885,
      "d": 362.8308666666562,
      "v": 96
    },
    {
      "midi": 73,
      "hit": false,
      "t": 156658.86383333217,
      "d": 358.4060999999929,
      "v": 89
    },
    {
      "midi": 69,
      "hit": false,
      "t": 156791.60683333216,
      "d": 265.4860000000044,
      "v": 83
    },
    {
      "midi": 71,
      "hit": false,
      "t": 157180.98629999883,
      "d": 1292.031866666599,
      "v": 97
    },
    {
      "midi": 67,
      "hit": false,
      "t": 157189.83583333215,
      "d": 1314.1556999999448,
      "v": 106
    },
    {
      "midi": 47,
      "hit": false,
      "t": 157198.68536666548,
      "d": 110.61916666667094,
      "v": 97
    },
    {
      "midi": 62,
      "hit": false,
      "t": 157198.68536666548,
      "d": 1358.4033666666073,
      "v": 95
    },
    {
      "midi": 40,
      "hit": false,
      "t": 157203.11013333214,
      "d": 119.46869999999763,
      "v": 91
    },
    {
      "midi": 49,
      "hit": false,
      "t": 157942.04616666547,
      "d": 199.11449999999604,
      "v": 91
    },
    {
      "midi": 42,
      "hit": false,
      "t": 157955.32046666546,
      "d": 185.840200000006,
      "v": 94
    },
    {
      "midi": 50,
      "hit": false,
      "t": 158194.25786666546,
      "d": 287.60983333329204,
      "v": 91
    },
    {
      "midi": 43,
      "hit": false,
      "t": 158211.9569333321,
      "d": 212.38879999998608,
      "v": 85
    },
    {
      "midi": 59,
      "hit": false,
      "t": 159026.11399999875,
      "d": 619.467333333334,
      "v": 99
    },
    {
      "midi": 64,
      "hit": false,
      "t": 159026.11399999875,
      "d": 646.0159333333431,
      "v": 106
    },
    {
      "midi": 67,
      "hit": false,
      "t": 159026.11399999875,
      "d": 646.0159333333431,
      "v": 103
    },
    {
      "midi": 48,
      "hit": false,
      "t": 159026.11399999875,
      "d": 685.8388333333423,
      "v": 106
    },
    {
      "midi": 47,
      "hit": false,
      "t": 159787.17386666543,
      "d": 345.13179999997374,
      "v": 100
    },
    {
      "midi": 62,
      "hit": false,
      "t": 159791.5986333321,
      "d": 305.30890000000363,
      "v": 94
    },
    {
      "midi": 57,
      "hit": false,
      "t": 159800.44816666542,
      "d": 309.733666666667,
      "v": 94
    },
    {
      "midi": 66,
      "hit": false,
      "t": 159804.87293333208,
      "d": 318.58319999999367,
      "v": 87
    },
    {
      "midi": 64,
      "hit": false,
      "t": 160322.57063333207,
      "d": 309.7336666666379,
      "v": 90
    },
    {
      "midi": 45,
      "hit": false,
      "t": 160331.4201666654,
      "d": 261.061233333312,
      "v": 95
    },
    {
      "midi": 55,
      "hit": false,
      "t": 160331.4201666654,
      "d": 318.58319999996456,
      "v": 87
    },
    {
      "midi": 60,
      "hit": false,
      "t": 160344.6944666654,
      "d": 305.3088999999745,
      "v": 80
    },
    {
      "midi": 43,
      "hit": false,
      "t": 160884.5159999987,
      "d": 199.11449999999604,
      "v": 98
    },
    {
      "midi": 59,
      "hit": false,
      "t": 160884.5159999987,
      "d": 252.21169999998529,
      "v": 98
    },
    {
      "midi": 58,
      "hit": false,
      "t": 161141.15246666534,
      "d": 1137.1650333333237,
      "v": 82
    },
    {
      "midi": 42,
      "hit": false,
      "t": 161150.00199999867,
      "d": 929.2010000000009,
      "v": 83
    },
    {
      "midi": 42,
      "hit": false,
      "t": 162220.795533332,
      "d": 265.4859999999753,
      "v": 103
    },
    {
      "midi": 56,
      "hit": false,
      "t": 165645.56493333197,
      "d": 982.2981999999902,
      "v": 91
    },
    {
      "midi": 47,
      "hit": false,
      "t": 165645.56493333197,
      "d": 1039.8201666666428,
      "v": 75
    },
    {
      "midi": 40,
      "hit": false,
      "t": 165654.4144666653,
      "d": 991.1477333333169,
      "v": 85
    },
    {
      "midi": 63,
      "hit": false,
      "t": 165654.4144666653,
      "d": 1039.8201666666428,
      "v": 93
    },
    {
      "midi": 61,
      "hit": false,
      "t": 165663.26399999863,
      "d": 964.5991333333368,
      "v": 92
    },
    {
      "midi": 66,
      "hit": false,
      "t": 165663.26399999863,
      "d": 1013.2715666666627,
      "v": 92
    },
    {
      "midi": 60,
      "hit": false,
      "t": 166747.33183333193,
      "d": 907.0771666666551,
      "v": 95
    },
    {
      "midi": 54,
      "hit": false,
      "t": 166747.33183333193,
      "d": 973.4486666666344,
      "v": 82
    },
    {
      "midi": 64,
      "hit": false,
      "t": 166751.7565999986,
      "d": 951.3248333333177,
      "v": 92
    },
    {
      "midi": 44,
      "hit": false,
      "t": 166760.60613333192,
      "d": 982.2981999999902,
      "v": 71
    },
    {
      "midi": 56,
      "hit": false,
      "t": 166769.45566666525,
      "d": 898.2276333333284,
      "v": 80
    },
    {
      "midi": 59,
      "hit": false,
      "t": 167796.0015333319,
      "d": 893.802866666636,
      "v": 90
    },
    {
      "midi": 66,
      "hit": false,
      "t": 167800.42629999857,
      "d": 915.9266999999818,
      "v": 82
    },
    {
      "midi": 56,
      "hit": false,
      "t": 167809.2758333319,
      "d": 929.2010000000009,
      "v": 80
    },
    {
      "midi": 63,
      "hit": false,
      "t": 167809.2758333319,
      "d": 942.475299999991,
      "v": 80
    },
    {
      "midi": 49,
      "hit": false,
      "t": 167818.12536666522,
      "d": 986.7229666666535,
      "v": 82
    },
    {
      "midi": 68,
      "hit": false,
      "t": 168840.2464666652,
      "d": 991.1477333333169,
      "v": 88
    },
    {
      "midi": 42,
      "hit": false,
      "t": 168849.09599999854,
      "d": 1101.7668999999587,
      "v": 82
    },
    {
      "midi": 60,
      "hit": false,
      "t": 168857.94553333186,
      "d": 805.3075333333109,
      "v": 97
    },
    {
      "midi": 58,
      "hit": false,
      "t": 168871.21983333185,
      "d": 938.0505333333276,
      "v": 93
    },
    {
      "midi": 63,
      "hit": false,
      "t": 168871.21983333185,
      "d": 969.0239000000001,
      "v": 83
    },
    {
      "midi": 61,
      "hit": false,
      "t": 169924.3142999985,
      "d": 889.3781000000017,
      "v": 83
    },
    {
      "midi": 57,
      "hit": false,
      "t": 169933.16383333184,
      "d": 849.5552000000025,
      "v": 102
    },
    {
      "midi": 64,
      "hit": false,
      "t": 169933.16383333184,
      "d": 920.3514666666742,
      "v": 87
    },
    {
      "midi": 49,
      "hit": false,
      "t": 170760.5951999985,
      "d": 1845.1277000000118,
      "v": 86
    },
    {
      "midi": 42,
      "hit": false,
      "t": 170760.5951999985,
      "d": 1858.4020000000019,
      "v": 87
    },
    {
      "midi": 76,
      "hit": false,
      "t": 171269.4433666652,
      "d": 495.573866666673,
      "v": 100
    },
    {
      "midi": 64,
      "hit": false,
      "t": 171273.86813333185,
      "d": 491.14910000000964,
      "v": 101
    },
    {
      "midi": 55,
      "hit": false,
      "t": 172012.80416666518,
      "d": 734.5112666666391,
      "v": 94
    },
    {
      "midi": 64,
      "hit": false,
      "t": 172034.92799999853,
      "d": 734.5112666666391,
      "v": 105
    },
    {
      "midi": 61,
      "hit": false,
      "t": 172039.3527666652,
      "d": 743.3607999999658,
      "v": 105
    },
    {
      "midi": 59,
      "hit": false,
      "t": 172043.77753333186,
      "d": 743.3607999999658,
      "v": 94
    },
    {
      "midi": 55,
      "hit": false,
      "t": 172844.66029999848,
      "d": 314.1584333333303,
      "v": 95
    },
    {
      "midi": 59,
      "hit": false,
      "t": 172853.5098333318,
      "d": 318.58319999999367,
      "v": 96
    },
    {
      "midi": 64,
      "hit": false,
      "t": 172862.35936666513,
      "d": 309.733666666667,
      "v": 99
    },
    {
      "midi": 61,
      "hit": false,
      "t": 172866.7841333318,
      "d": 331.8575000000128,
      "v": 95
    },
    {
      "midi": 59,
      "hit": false,
      "t": 173371.2075333318,
      "d": 331.8574999999837,
      "v": 96
    },
    {
      "midi": 55,
      "hit": false,
      "t": 173375.63229999845,
      "d": 309.733666666667,
      "v": 97
    },
    {
      "midi": 61,
      "hit": false,
      "t": 173375.63229999845,
      "d": 349.5565666666371,
      "v": 100
    },
    {
      "midi": 66,
      "hit": false,
      "t": 173384.48183333178,
      "d": 336.28226666664705,
      "v": 88
    },
    {
      "midi": 55,
      "hit": false,
      "t": 173884.4804666651,
      "d": 287.60983333332115,
      "v": 104
    },
    {
      "midi": 59,
      "hit": false,
      "t": 173884.4804666651,
      "d": 296.45936666664784,
      "v": 100
    },
    {
      "midi": 66,
      "hit": false,
      "t": 173884.4804666651,
      "d": 314.1584333333012,
      "v": 97
    },
    {
      "midi": 61,
      "hit": false,
      "t": 173893.32999999842,
      "d": 296.45936666664784,
      "v": 103
    },
    {
      "midi": 55,
      "hit": false,
      "t": 175242.88383333173,
      "d": 884.9533333333093,
      "v": 105
    },
    {
      "midi": 59,
      "hit": false,
      "t": 175251.73336666505,
      "d": 796.4579999999842,
      "v": 101
    },
    {
      "midi": 62,
      "hit": false,
      "t": 175251.73336666505,
      "d": 871.6790333333192,
      "v": 103
    },
    {
      "midi": 66,
      "hit": false,
      "t": 175256.15813333172,
      "d": 871.6790333333192,
      "v": 100
    },
    {
      "midi": 67,
      "hit": false,
      "t": 176304.8278333317,
      "d": 309.733666666667,
      "v": 103
    },
    {
      "midi": 62,
      "hit": false,
      "t": 176313.67736666504,
      "d": 362.8308666666562,
      "v": 101
    },
    {
      "midi": 64,
      "hit": false,
      "t": 176313.67736666504,
      "d": 362.8308666666562,
      "v": 101
    },
    {
      "midi": 58,
      "hit": false,
      "t": 176318.1021333317,
      "d": 353.98133333332953,
      "v": 97
    },
    {
      "midi": 58,
      "hit": false,
      "t": 176813.67599999838,
      "d": 314.1584333333012,
      "v": 95
    },
    {
      "midi": 67,
      "hit": false,
      "t": 176818.10076666504,
      "d": 30.973366666643415,
      "v": 95
    },
    {
      "midi": 62,
      "hit": false,
      "t": 176818.10076666504,
      "d": 309.7336666666379,
      "v": 96
    },
    {
      "midi": 64,
      "hit": false,
      "t": 176835.7998333317,
      "d": 305.3088999999745,
      "v": 94
    },
    {
      "midi": 69,
      "hit": false,
      "t": 176835.7998333317,
      "d": 309.7336666666379,
      "v": 93
    },
    {
      "midi": 62,
      "hit": false,
      "t": 177353.49753333165,
      "d": 300.8841333333112,
      "v": 100
    },
    {
      "midi": 69,
      "hit": false,
      "t": 177366.77183333164,
      "d": 300.8841333333112,
      "v": 99
    },
    {
      "midi": 64,
      "hit": false,
      "t": 177375.62136666497,
      "d": 309.7336666666379,
      "v": 100
    },
    {
      "midi": 58,
      "hit": false,
      "t": 177380.04613333163,
      "d": 309.7336666666379,
      "v": 105
    },
    {
      "midi": 67,
      "hit": false,
      "t": 177388.89566666496,
      "d": 8.84953333332669,
      "v": 91
    },
    {
      "midi": 57,
      "hit": false,
      "t": 178118.98216666494,
      "d": 1141.589799999987,
      "v": 106
    },
    {
      "midi": 67,
      "hit": false,
      "t": 178127.83169999826,
      "d": 1216.810833333322,
      "v": 102
    },
    {
      "midi": 63,
      "hit": false,
      "t": 178145.53076666492,
      "d": 1181.4127000000153,
      "v": 100
    },
    {
      "midi": 62,
      "hit": false,
      "t": 178149.95553333158,
      "d": 1150.4393333333428,
      "v": 100
    },
    {
      "midi": 74,
      "hit": false,
      "t": 179472.9607666649,
      "d": 438.0518999999913,
      "v": 99
    },
    {
      "midi": 69,
      "hit": false,
      "t": 179477.38553333157,
      "d": 451.3261999999813,
      "v": 105
    },
    {
      "midi": 67,
      "hit": false,
      "t": 180021.63183333154,
      "d": 384.95470000000205,
      "v": 99
    },
    {
      "midi": 71,
      "hit": false,
      "t": 180021.63183333154,
      "d": 393.80423333332874,
      "v": 100
    },
    {
      "midi": 60,
      "hit": false,
      "t": 180508.35616666486,
      "d": 88.4953333333251,
      "v": 88
    },
    {
      "midi": 62,
      "hit": false,
      "t": 180552.60383333152,
      "d": 2951.319366666634,
      "v": 95
    },
    {
      "midi": 67,
      "hit": false,
      "t": 180552.60383333152,
      "d": 3008.8413333332865,
      "v": 101
    },
    {
      "midi": 66,
      "hit": false,
      "t": 180557.0285999982,
      "d": 132.74299999998766,
      "v": 88
    },
    {
      "midi": 71,
      "hit": false,
      "t": 180583.5771999982,
      "d": 2999.9917999999598,
      "v": 103
    },
    {
      "midi": 42,
      "hit": false,
      "t": 181295.96463333152,
      "d": 238.93740000002435,
      "v": 95
    },
    {
      "midi": 49,
      "hit": false,
      "t": 181318.08846666486,
      "d": 238.93739999999525,
      "v": 103
    },
    {
      "midi": 43,
      "hit": false,
      "t": 181548.17633333153,
      "d": 243.3621666666586,
      "v": 92
    },
    {
      "midi": 50,
      "hit": false,
      "t": 181579.1496999982,
      "d": 199.11449999999604,
      "v": 85
    },
    {
      "midi": 47,
      "hit": false,
      "t": 182380.03246666485,
      "d": 225.6630999999761,
      "v": 98
    },
    {
      "midi": 40,
      "hit": false,
      "t": 182388.88199999818,
      "d": 199.11449999999604,
      "v": 89
    },
    {
      "midi": 49,
      "hit": false,
      "t": 183472.94983333148,
      "d": 203.5392666666594,
      "v": 105
    },
    {
      "midi": 42,
      "hit": false,
      "t": 183472.94983333148,
      "d": 225.66310000000522,
      "v": 96
    },
    {
      "midi": 50,
      "hit": false,
      "t": 183707.46246666482,
      "d": 238.93739999996615,
      "v": 83
    },
    {
      "midi": 43,
      "hit": false,
      "t": 183707.46246666482,
      "d": 247.78693333329284,
      "v": 85
    },
    {
      "midi": 64,
      "hit": false,
      "t": 183725.16153333147,
      "d": 331.8574999999837,
      "v": 102
    },
    {
      "midi": 67,
      "hit": false,
      "t": 183738.43583333146,
      "d": 212.38879999998608,
      "v": 96
    },
    {
      "midi": 73,
      "hit": false,
      "t": 183738.43583333146,
      "d": 362.8308666666562,
      "v": 100
    },
    {
      "midi": 69,
      "hit": false,
      "t": 183831.35593333145,
      "d": 252.2117000000144,
      "v": 82
    },
    {
      "midi": 64,
      "hit": false,
      "t": 184260.5582999981,
      "d": 340.7070333333395,
      "v": 100
    },
    {
      "midi": 67,
      "hit": false,
      "t": 184269.40783333144,
      "d": 146.0173000000068,
      "v": 103
    },
    {
      "midi": 73,
      "hit": false,
      "t": 184269.40783333144,
      "d": 331.8575000000128,
      "v": 91
    },
    {
      "midi": 69,
      "hit": false,
      "t": 184344.62886666477,
      "d": 278.76030000002356,
      "v": 67
    },
    {
      "midi": 40,
      "hit": false,
      "t": 184778.25599999813,
      "d": 296.45936666664784,
      "v": 98
    },
    {
      "midi": 47,
      "hit": false,
      "t": 184787.10553333146,
      "d": 309.733666666667,
      "v": 105
    },
    {
      "midi": 71,
      "hit": false,
      "t": 184791.53029999812,
      "d": 2946.8945999999996,
      "v": 98
    },
    {
      "midi": 62,
      "hit": false,
      "t": 184800.37983333145,
      "d": 2871.6735666666646,
      "v": 102
    },
    {
      "midi": 67,
      "hit": false,
      "t": 184809.22936666477,
      "d": 2920.3460000000196,
      "v": 103
    },
    {
      "midi": 49,
      "hit": false,
      "t": 185583.56353333147,
      "d": 176.9906666666502,
      "v": 102
    },
    {
      "midi": 42,
      "hit": false,
      "t": 185601.26259999812,
      "d": 225.66310000000522,
      "v": 86
    },
    {
      "midi": 43,
      "hit": false,
      "t": 185826.92569999813,
      "d": 243.3621666666586,
      "v": 89
    },
    {
      "midi": 50,
      "hit": false,
      "t": 185840.19999999812,
      "d": 230.08786666666856,
      "v": 94
    },
    {
      "midi": 47,
      "hit": false,
      "t": 186623.3836999981,
      "d": 296.45936666667694,
      "v": 102
    },
    {
      "midi": 40,
      "hit": false,
      "t": 186627.80846666478,
      "d": 265.4860000000044,
      "v": 91
    },
    {
      "midi": 42,
      "hit": false,
      "t": 187698.60199999812,
      "d": 261.061233333312,
      "v": 97
    },
    {
      "midi": 49,
      "hit": false,
      "t": 187707.45153333145,
      "d": 230.08786666666856,
      "v": 102
    },
    {
      "midi": 67,
      "hit": false,
      "t": 187955.23846666477,
      "d": 172.56589999998687,
      "v": 100
    },
    {
      "midi": 64,
      "hit": false,
      "t": 187955.23846666477,
      "d": 309.733666666667,
      "v": 105
    },
    {
      "midi": 73,
      "hit": false,
      "t": 187964.0879999981,
      "d": 314.1584333333303,
      "v": 85
    },
    {
      "midi": 50,
      "hit": false,
      "t": 187977.3622999981,
      "d": 181.41543333334266,
      "v": 67
    },
    {
      "midi": 43,
      "hit": false,
      "t": 187986.2118333314,
      "d": 203.5392666666885,
      "v": 86
    },
    {
      "midi": 69,
      "hit": false,
      "t": 188087.98146666476,
      "d": 221.23833333334187,
      "v": 83
    },
    {
      "midi": 67,
      "hit": false,
      "t": 188486.21046666478,
      "d": 119.46870000002673,
      "v": 100
    },
    {
      "midi": 64,
      "hit": false,
      "t": 188486.21046666478,
      "d": 349.5565666666953,
      "v": 96
    },
    {
      "midi": 73,
      "hit": false,
      "t": 188508.33429999813,
      "d": 327.43273333334946,
      "v": 88
    },
    {
      "midi": 69,
      "hit": false,
      "t": 188574.70579999813,
      "d": 283.1850666666869,
      "v": 87
    },
    {
      "midi": 47,
      "hit": false,
      "t": 189003.90816666483,
      "d": 287.60983333335025,
      "v": 97
    },
    {
      "midi": 40,
      "hit": false,
      "t": 189017.18246666482,
      "d": 252.2117000000144,
      "v": 89
    },
    {
      "midi": 62,
      "hit": false,
      "t": 189017.18246666482,
      "d": 3101.761433333333,
      "v": 103
    },
    {
      "midi": 71,
      "hit": false,
      "t": 189017.18246666482,
      "d": 3123.885266666679,
      "v": 95
    },
    {
      "midi": 67,
      "hit": false,
      "t": 189017.18246666482,
      "d": 3141.5843333333323,
      "v": 98
    },
    {
      "midi": 49,
      "hit": false,
      "t": 189826.91476666485,
      "d": 234.5126333333319,
      "v": 99
    },
    {
      "midi": 42,
      "hit": false,
      "t": 189844.6138333315,
      "d": 185.840200000006,
      "v": 86
    },
    {
      "midi": 43,
      "hit": false,
      "t": 190052.57786666485,
      "d": 252.21169999998529,
      "v": 71
    },
    {
      "midi": 50,
      "hit": false,
      "t": 190079.12646666483,
      "d": 216.81356666667853,
      "v": 95
    },
    {
      "midi": 47,
      "hit": false,
      "t": 190884.43399999817,
      "d": 207.96403333332273,
      "v": 102
    },
    {
      "midi": 40,
      "hit": false,
      "t": 190884.43399999817,
      "d": 221.23833333331277,
      "v": 85
    },
    {
      "midi": 42,
      "hit": false,
      "t": 191946.37799999816,
      "d": 230.08786666663946,
      "v": 88
    },
    {
      "midi": 49,
      "hit": false,
      "t": 191950.80276666483,
      "d": 194.6897333333327,
      "v": 106
    },
    {
      "midi": 43,
      "hit": false,
      "t": 192189.7401666648,
      "d": 247.78693333332194,
      "v": 89
    },
    {
      "midi": 67,
      "hit": false,
      "t": 192203.01446666478,
      "d": 194.6897333333327,
      "v": 97
    },
    {
      "midi": 72,
      "hit": false,
      "t": 192211.8639999981,
      "d": 22.12383333334583,
      "v": 99
    },
    {
      "midi": 50,
      "hit": false,
      "t": 192211.8639999981,
      "d": 199.11449999999604,
      "v": 97
    },
    {
      "midi": 64,
      "hit": false,
      "t": 192211.8639999981,
      "d": 353.98133333332953,
      "v": 100
    },
    {
      "midi": 69,
      "hit": false,
      "t": 192211.8639999981,
      "d": 362.8308666666562,
      "v": 98
    },
    {
      "midi": 73,
      "hit": false,
      "t": 192233.98783333146,
      "d": 340.7070333333104,
      "v": 94
    },
    {
      "midi": 64,
      "hit": false,
      "t": 192711.86263333145,
      "d": 384.95469999997295,
      "v": 103
    },
    {
      "midi": 73,
      "hit": false,
      "t": 192725.13693333144,
      "d": 353.98133333332953,
      "v": 97
    },
    {
      "midi": 69,
      "hit": false,
      "t": 192729.5616999981,
      "d": 22.12383333334583,
      "v": 87
    },
    {
      "midi": 67,
      "hit": false,
      "t": 192729.5616999981,
      "d": 176.99066666667932,
      "v": 99
    },
    {
      "midi": 69,
      "hit": false,
      "t": 192809.2074999981,
      "d": 309.733666666667,
      "v": 83
    },
    {
      "midi": 62,
      "hit": false,
      "t": 193229.56033333144,
      "d": 2995.5670333333546,
      "v": 97
    },
    {
      "midi": 71,
      "hit": false,
      "t": 193229.56033333144,
      "d": 3070.7880666666606,
      "v": 91
    },
    {
      "midi": 67,
      "hit": false,
      "t": 193233.9850999981,
      "d": 3048.664233333344,
      "v": 88
    },
    {
      "midi": 40,
      "hit": false,
      "t": 193242.83463333143,
      "d": 234.5126333333319,
      "v": 94
    },
    {
      "midi": 47,
      "hit": false,
      "t": 193260.53369999808,
      "d": 247.78693333335104,
      "v": 99
    },
    {
      "midi": 42,
      "hit": false,
      "t": 194034.86786666478,
      "d": 221.23833333334187,
      "v": 90
    },
    {
      "midi": 49,
      "hit": false,
      "t": 194056.99169999812,
      "d": 154.8668333333335,
      "v": 103
    },
    {
      "midi": 43,
      "hit": false,
      "t": 194282.65479999813,
      "d": 243.3621666666586,
      "v": 90
    },
    {
      "midi": 50,
      "hit": false,
      "t": 194291.50433333145,
      "d": 225.66310000000522,
      "v": 95
    },
    {
      "midi": 47,
      "hit": false,
      "t": 195118.9356999981,
      "d": 225.66310000000522,
      "v": 102
    },
    {
      "midi": 40,
      "hit": false,
      "t": 195123.36046666477,
      "d": 221.23833333334187,
      "v": 99
    },
    {
      "midi": 42,
      "hit": false,
      "t": 196158.75586666478,
      "d": 212.38879999998608,
      "v": 99
    },
    {
      "midi": 49,
      "hit": false,
      "t": 196194.15399999812,
      "d": 168.14113333332352,
      "v": 101
    },
    {
      "midi": 43,
      "hit": false,
      "t": 196424.24186666476,
      "d": 221.23833333334187,
      "v": 87
    },
    {
      "midi": 50,
      "hit": false,
      "t": 196428.66663333142,
      "d": 194.6897333333327,
      "v": 90
    },
    {
      "midi": 64,
      "hit": false,
      "t": 196437.51616666475,
      "d": 318.58320000002277,
      "v": 100
    },
    {
      "midi": 67,
      "hit": false,
      "t": 196441.9409333314,
      "d": 154.8668333333335,
      "v": 96
    },
    {
      "midi": 69,
      "hit": false,
      "t": 196446.36569999807,
      "d": 331.8575000000419,
      "v": 92
    },
    {
      "midi": 73,
      "hit": false,
      "t": 196446.36569999807,
      "d": 353.98133333338774,
      "v": 92
    },
    {
      "midi": 64,
      "hit": false,
      "t": 196959.63863333146,
      "d": 353.9813333333004,
      "v": 104
    },
    {
      "midi": 68,
      "hit": false,
      "t": 196968.48816666479,
      "d": 22.123833333316725,
      "v": 67
    },
    {
      "midi": 67,
      "hit": false,
      "t": 196972.91293333145,
      "d": 146.0172999999777,
      "v": 106
    },
    {
      "midi": 73,
      "hit": false,
      "t": 196977.3376999981,
      "d": 353.9813333333004,
      "v": 88
    },
    {
      "midi": 69,
      "hit": false,
      "t": 197003.8862999981,
      "d": 420.3528333333088,
      "v": 90
    },
    {
      "midi": 67,
      "hit": false,
      "t": 197490.6106333314,
      "d": 2915.921233333298,
      "v": 88
    },
    {
      "midi": 40,
      "hit": false,
      "t": 197499.46016666474,
      "d": 176.9906666666502,
      "v": 94
    },
    {
      "midi": 47,
      "hit": false,
      "t": 197512.73446666473,
      "d": 172.56589999998687,
      "v": 100
    },
    {
      "midi": 62,
      "hit": false,
      "t": 197512.73446666473,
      "d": 2858.3992666666454,
      "v": 103
    },
    {
      "midi": 71,
      "hit": false,
      "t": 197521.58399999805,
      "d": 2982.2927333333355,
      "v": 91
    },
    {
      "midi": 49,
      "hit": false,
      "t": 198318.04199999804,
      "d": 265.4860000000044,
      "v": 99
    },
    {
      "midi": 42,
      "hit": false,
      "t": 198318.04199999804,
      "d": 287.60983333332115,
      "v": 93
    },
    {
      "midi": 43,
      "hit": false,
      "t": 198592.37753333137,
      "d": 185.840200000006,
      "v": 83
    },
    {
      "midi": 50,
      "hit": false,
      "t": 198605.65183333136,
      "d": 146.0173000000068,
      "v": 82
    },
    {
      "midi": 40,
      "hit": false,
      "t": 199402.10983333137,
      "d": 221.23833333334187,
      "v": 93
    },
    {
      "midi": 47,
      "hit": false,
      "t": 199402.10983333137,
      "d": 221.23833333334187,
      "v": 99
    },
    {
      "midi": 42,
      "hit": false,
      "t": 200410.95663333137,
      "d": 212.38880000001518,
      "v": 102
    },
    {
      "midi": 49,
      "hit": false,
      "t": 200433.08046666472,
      "d": 190.26496666666935,
      "v": 102
    },
    {
      "midi": 50,
      "hit": false,
      "t": 200685.29216666473,
      "d": 225.66310000000522,
      "v": 93
    },
    {
      "midi": 43,
      "hit": false,
      "t": 200698.56646666472,
      "d": 269.91076666666777,
      "v": 83
    },
    {
      "midi": 64,
      "hit": false,
      "t": 200698.56646666472,
      "d": 336.28226666667615,
      "v": 99
    },
    {
      "midi": 73,
      "hit": false,
      "t": 200698.56646666472,
      "d": 358.406100000022,
      "v": 93
    },
    {
      "midi": 67,
      "hit": false,
      "t": 200720.69029999807,
      "d": 163.71636666666018,
      "v": 99
    },
    {
      "midi": 69,
      "hit": false,
      "t": 200729.5398333314,
      "d": 44.24766666666255,
      "v": 95
    },
    {
      "midi": 69,
      "hit": false,
      "t": 200795.9113333314,
      "d": 265.4860000000044,
      "v": 83
    },
    {
      "midi": 67,
      "hit": false,
      "t": 201225.11369999807,
      "d": 132.74299999998766,
      "v": 99
    },
    {
      "midi": 64,
      "hit": false,
      "t": 201238.38799999806,
      "d": 323.007966666657,
      "v": 100
    },
    {
      "midi": 73,
      "hit": false,
      "t": 201247.23753333138,
      "d": 331.8574999999837,
      "v": 86
    },
    {
      "midi": 69,
      "hit": false,
      "t": 201309.18426666473,
      "d": 296.45936666664784,
      "v": 71
    },
    {
      "midi": 40,
      "hit": false,
      "t": 201729.53709999804,
      "d": 181.41543333331356,
      "v": 96
    },
    {
      "midi": 47,
      "hit": false,
      "t": 201733.9618666647,
      "d": 190.26496666664025,
      "v": 100
    },
    {
      "midi": 62,
      "hit": false,
      "t": 201773.7847666647,
      "d": 2902.646933333308,
      "v": 100
    },
    {
      "midi": 67,
      "hit": false,
      "t": 201778.20953333136,
      "d": 2973.4431999999797,
      "v": 99
    },
    {
      "midi": 71,
      "hit": false,
      "t": 201778.20953333136,
      "d": 2991.142266666633,
      "v": 99
    },
    {
      "midi": 42,
      "hit": false,
      "t": 202565.81799999802,
      "d": 190.26496666666935,
      "v": 90
    },
    {
      "midi": 49,
      "hit": false,
      "t": 202570.24276666468,
      "d": 150.44206666667014,
      "v": 100
    },
    {
      "midi": 43,
      "hit": false,
      "t": 202795.9058666647,
      "d": 234.5126333333319,
      "v": 75
    },
    {
      "midi": 50,
      "hit": false,
      "t": 202800.33063333135,
      "d": 203.5392666666594,
      "v": 99
    },
    {
      "midi": 47,
      "hit": false,
      "t": 203614.48769999802,
      "d": 221.23833333334187,
      "v": 94
    },
    {
      "midi": 40,
      "hit": false,
      "t": 203618.91246666468,
      "d": 221.23833333334187,
      "v": 89
    },
    {
      "midi": 42,
      "hit": false,
      "t": 204667.58216666468,
      "d": 199.11449999999604,
      "v": 96
    },
    {
      "midi": 49,
      "hit": false,
      "t": 204672.00693333134,
      "d": 159.29159999999683,
      "v": 105
    },
    {
      "midi": 43,
      "hit": false,
      "t": 204924.21863333133,
      "d": 247.78693333335104,
      "v": 103
    },
    {
      "midi": 67,
      "hit": false,
      "t": 204933.06816666466,
      "d": 176.99066666667932,
      "v": 102
    },
    {
      "midi": 50,
      "hit": false,
      "t": 204937.49293333132,
      "d": 212.38880000001518,
      "v": 91
    },
    {
      "midi": 64,
      "hit": false,
      "t": 204946.34246666465,
      "d": 358.406100000022,
      "v": 101
    },
    {
      "midi": 69,
      "hit": false,
      "t": 204955.19199999797,
      "d": 30.97336666667252,
      "v": 103
    },
    {
      "midi": 73,
      "hit": false,
      "t": 204964.0415333313,
      "d": 345.13180000003194,
      "v": 95
    },
    {
      "midi": 69,
      "hit": false,
      "t": 205012.71396666465,
      "d": 287.60983333335025,
      "v": 72
    },
    {
      "midi": 73,
      "hit": false,
      "t": 205472.889699998,
      "d": 318.58319999999367,
      "v": 87
    },
    {
      "midi": 67,
      "hit": false,
      "t": 205477.31446666465,
      "d": 115.04393333333428,
      "v": 97
    },
    {
      "midi": 64,
      "hit": false,
      "t": 205477.31446666465,
      "d": 327.43273333332036,
      "v": 96
    },
    {
      "midi": 69,
      "hit": false,
      "t": 205552.535499998,
      "d": 318.58319999999367,
      "v": 70
    },
    {
      "midi": 40,
      "hit": false,
      "t": 205972.88833333133,
      "d": 172.56589999998687,
      "v": 97
    },
    {
      "midi": 71,
      "hit": false,
      "t": 205981.73786666465,
      "d": 3039.814699999988,
      "v": 85
    },
    {
      "midi": 47,
      "hit": false,
      "t": 205986.16263333132,
      "d": 176.9906666666502,
      "v": 105
    },
    {
      "midi": 62,
      "hit": false,
      "t": 205995.01216666464,
      "d": 2942.4698333333363,
      "v": 98
    },
    {
      "midi": 67,
      "hit": false,
      "t": 206003.86169999797,
      "d": 3017.6908666666714,
      "v": 88
    },
    {
      "midi": 42,
      "hit": false,
      "t": 206813.59399999797,
      "d": 221.23833333334187,
      "v": 94
    },
    {
      "midi": 49,
      "hit": false,
      "t": 206813.59399999797,
      "d": 265.4860000000044,
      "v": 106
    },
    {
      "midi": 43,
      "hit": false,
      "t": 207061.38093333133,
      "d": 247.78693333332194,
      "v": 85
    },
    {
      "midi": 50,
      "hit": false,
      "t": 207070.23046666465,
      "d": 230.08786666666856,
      "v": 88
    },
    {
      "midi": 40,
      "hit": false,
      "t": 207866.68846666464,
      "d": 225.66310000000522,
      "v": 96
    },
    {
      "midi": 47,
      "hit": false,
      "t": 207866.68846666464,
      "d": 247.78693333335104,
      "v": 100
    },
    {
      "midi": 49,
      "hit": false,
      "t": 208915.35816666466,
      "d": 146.0172999999777,
      "v": 99
    },
    {
      "midi": 42,
      "hit": false,
      "t": 208919.78293333133,
      "d": 212.38879999998608,
      "v": 91
    },
    {
      "midi": 43,
      "hit": false,
      "t": 209180.84416666464,
      "d": 300.8841333333403,
      "v": 90
    },
    {
      "midi": 50,
      "hit": false,
      "t": 209189.69369999797,
      "d": 265.4860000000044,
      "v": 94
    },
    {
      "midi": 73,
      "hit": false,
      "t": 209216.24229999798,
      "d": 371.680400000012,
      "v": 89
    },
    {
      "midi": 69,
      "hit": false,
      "t": 209216.24229999798,
      "d": 380.5299333333387,
      "v": 100
    },
    {
      "midi": 67,
      "hit": false,
      "t": 209225.0918333313,
      "d": 132.74299999998766,
      "v": 102
    },
    {
      "midi": 64,
      "hit": false,
      "t": 209225.0918333313,
      "d": 358.406100000022,
      "v": 99
    },
    {
      "midi": 67,
      "hit": false,
      "t": 209711.81616666465,
      "d": 163.71636666668928,
      "v": 90
    },
    {
      "midi": 73,
      "hit": false,
      "t": 209733.939999998,
      "d": 349.5565666666662,
      "v": 71
    },
    {
      "midi": 64,
      "hit": false,
      "t": 209733.939999998,
      "d": 376.10516666667536,
      "v": 88
    },
    {
      "midi": 69,
      "hit": false,
      "t": 209733.939999998,
      "d": 433.62713333332795,
      "v": 91
    },
    {
      "midi": 47,
      "hit": false,
      "t": 210229.51386666467,
      "d": 243.3621666666586,
      "v": 98
    },
    {
      "midi": 62,
      "hit": false,
      "t": 210242.78816666466,
      "d": 2889.372633333318,
      "v": 83
    },
    {
      "midi": 67,
      "hit": false,
      "t": 210242.78816666466,
      "d": 2964.593666666653,
      "v": 82
    },
    {
      "midi": 40,
      "hit": false,
      "t": 210247.21293333132,
      "d": 243.3621666666586,
      "v": 90
    },
    {
      "midi": 71,
      "hit": false,
      "t": 210247.21293333132,
      "d": 2991.142266666662,
      "v": 83
    },
    {
      "midi": 42,
      "hit": false,
      "t": 211030.39663333131,
      "d": 203.5392666666594,
      "v": 94
    },
    {
      "midi": 49,
      "hit": false,
      "t": 211030.39663333131,
      "d": 221.23833333331277,
      "v": 105
    },
    {
      "midi": 43,
      "hit": false,
      "t": 211251.63496666463,
      "d": 278.76030000002356,
      "v": 83
    },
    {
      "midi": 50,
      "hit": false,
      "t": 211282.6083333313,
      "d": 221.23833333334187,
      "v": 90
    },
    {
      "midi": 40,
      "hit": false,
      "t": 212079.0663333313,
      "d": 243.3621666666586,
      "v": 86
    },
    {
      "midi": 47,
      "hit": false,
      "t": 212087.91586666464,
      "d": 243.3621666666586,
      "v": 103
    },
    {
      "midi": 49,
      "hit": false,
      "t": 213163.13416666465,
      "d": 278.76029999999446,
      "v": 104
    },
    {
      "midi": 42,
      "hit": false,
      "t": 213171.98369999797,
      "d": 243.3621666666877,
      "v": 106
    },
    {
      "midi": 43,
      "hit": false,
      "t": 213428.62016666465,
      "d": 247.78693333332194,
      "v": 89
    },
    {
      "midi": 50,
      "hit": false,
      "t": 213441.89446666464,
      "d": 212.38879999998608,
      "v": 95
    },
    {
      "midi": 64,
      "hit": false,
      "t": 213441.89446666464,
      "d": 340.7070333333395,
      "v": 98
    },
    {
      "midi": 67,
      "hit": false,
      "t": 213450.74399999797,
      "d": 106.19439999997849,
      "v": 104
    },
    {
      "midi": 69,
      "hit": false,
      "t": 213464.01829999796,
      "d": 353.98133333335863,
      "v": 105
    },
    {
      "midi": 73,
      "hit": false,
      "t": 213472.8678333313,
      "d": 362.8308666666853,
      "v": 88
    },
    {
      "midi": 73,
      "hit": false,
      "t": 213981.71599999798,
      "d": 327.43273333332036,
      "v": 86
    },
    {
      "midi": 67,
      "hit": false,
      "t": 213994.99029999797,
      "d": 84.07056666666176,
      "v": 94
    },
    {
      "midi": 69,
      "hit": false,
      "t": 213994.99029999797,
      "d": 384.95470000000205,
      "v": 88
    },
    {
      "midi": 64,
      "hit": false,
      "t": 214003.8398333313,
      "d": 336.28226666667615,
      "v": 92
    },
    {
      "midi": 40,
      "hit": false,
      "t": 214472.86509999796,
      "d": 269.91076666666777,
      "v": 95
    },
    {
      "midi": 67,
      "hit": false,
      "t": 214477.28986666462,
      "d": 2964.593666666595,
      "v": 95
    },
    {
      "midi": 47,
      "hit": false,
      "t": 214481.71463333128,
      "d": 300.8841333333403,
      "v": 99
    },
    {
      "midi": 62,
      "hit": false,
      "t": 214490.5641666646,
      "d": 2920.3459999999322,
      "v": 96
    },
    {
      "midi": 71,
      "hit": false,
      "t": 214490.5641666646,
      "d": 2986.7174999999406,
      "v": 95
    },
    {
      "midi": 49,
      "hit": false,
      "t": 215273.74786666463,
      "d": 176.9906666666502,
      "v": 102
    },
    {
      "midi": 42,
      "hit": false,
      "t": 215278.1726333313,
      "d": 190.26496666664025,
      "v": 85
    },
    {
      "midi": 50,
      "hit": false,
      "t": 215552.5081666646,
      "d": 247.78693333332194,
      "v": 94
    },
    {
      "midi": 43,
      "hit": false,
      "t": 215552.5081666646,
      "d": 252.21169999998529,
      "v": 85
    },
    {
      "midi": 40,
      "hit": false,
      "t": 216357.8156999979,
      "d": 207.96403333332273,
      "v": 91
    },
    {
      "midi": 47,
      "hit": false,
      "t": 216371.0899999979,
      "d": 207.96403333332273,
      "v": 100
    },
    {
      "midi": 42,
      "hit": false,
      "t": 217379.9367999979,
      "d": 247.78693333332194,
      "v": 106
    },
    {
      "midi": 49,
      "hit": false,
      "t": 217397.63586666455,
      "d": 243.3621666666586,
      "v": 105
    },
    {
      "midi": 43,
      "hit": false,
      "t": 217676.39616666455,
      "d": 230.08786666663946,
      "v": 85
    },
    {
      "midi": 64,
      "hit": false,
      "t": 217680.8209333312,
      "d": 349.5565666666371,
      "v": 103
    },
    {
      "midi": 50,
      "hit": false,
      "t": 217685.24569999787,
      "d": 221.23833333331277,
      "v": 85
    },
    {
      "midi": 67,
      "hit": false,
      "t": 217689.67046666454,
      "d": 123.89346666666097,
      "v": 99
    },
    {
      "midi": 73,
      "hit": false,
      "t": 217698.51999999786,
      "d": 376.10516666664626,
      "v": 97
    },
    {
      "midi": 69,
      "hit": false,
      "t": 217698.51999999786,
      "d": 380.5299333333096,
      "v": 100
    },
    {
      "midi": 69,
      "hit": false,
      "t": 218198.51863333117,
      "d": 433.62713333332795,
      "v": 97
    },
    {
      "midi": 73,
      "hit": false,
      "t": 218207.3681666645,
      "d": 353.98133333332953,
      "v": 89
    },
    {
      "midi": 64,
      "hit": false,
      "t": 218211.79293333116,
      "d": 389.3794666666654,
      "v": 99
    },
    {
      "midi": 67,
      "hit": false,
      "t": 218216.21769999783,
      "d": 97.3448666666809,
      "v": 99
    },
    {
      "midi": 40,
      "hit": false,
      "t": 218729.49063333118,
      "d": 185.8401999999769,
      "v": 91
    },
    {
      "midi": 47,
      "hit": false,
      "t": 218729.49063333118,
      "d": 238.93739999996615,
      "v": 102
    },
    {
      "midi": 71,
      "hit": false,
      "t": 218773.73829999784,
      "d": 2907.0716999999713,
      "v": 97
    },
    {
      "midi": 62,
      "hit": false,
      "t": 218782.58783333117,
      "d": 2761.0543999999936,
      "v": 99
    },
    {
      "midi": 67,
      "hit": false,
      "t": 218782.58783333117,
      "d": 2907.0716999999713,
      "v": 97
    },
    {
      "midi": 42,
      "hit": false,
      "t": 219539.22293333116,
      "d": 185.840200000006,
      "v": 103
    },
    {
      "midi": 49,
      "hit": false,
      "t": 219539.22293333116,
      "d": 247.78693333335104,
      "v": 99
    },
    {
      "midi": 43,
      "hit": false,
      "t": 219791.43463333117,
      "d": 212.38879999998608,
      "v": 83
    },
    {
      "midi": 50,
      "hit": false,
      "t": 219800.2841666645,
      "d": 190.26496666666935,
      "v": 95
    },
    {
      "midi": 40,
      "hit": false,
      "t": 220583.4678666645,
      "d": 185.840200000006,
      "v": 98
    },
    {
      "midi": 47,
      "hit": false,
      "t": 220605.59169999784,
      "d": 199.11449999999604,
      "v": 99
    },
    {
      "midi": 42,
      "hit": false,
      "t": 221649.83663333117,
      "d": 221.23833333331277,
      "v": 101
    },
    {
      "midi": 49,
      "hit": false,
      "t": 221663.11093333116,
      "d": 221.23833333331277,
      "v": 104
    },
    {
      "midi": 50,
      "hit": false,
      "t": 221902.04833333113,
      "d": 234.5126333333028,
      "v": 90
    },
    {
      "midi": 43,
      "hit": false,
      "t": 221910.89786666445,
      "d": 252.21169999998529,
      "v": 75
    },
    {
      "midi": 67,
      "hit": false,
      "t": 221968.4198333311,
      "d": 132.74299999998766,
      "v": 102
    },
    {
      "midi": 64,
      "hit": false,
      "t": 221972.84459999777,
      "d": 318.58319999999367,
      "v": 103
    },
    {
      "midi": 73,
      "hit": false,
      "t": 221977.26936666443,
      "d": 353.98133333332953,
      "v": 90
    },
    {
      "midi": 69,
      "hit": false,
      "t": 221990.54366666442,
      "d": 30.97336666667252,
      "v": 100
    },
    {
      "midi": 69,
      "hit": false,
      "t": 222065.76469999776,
      "d": 274.3355333333311,
      "v": 78
    },
    {
      "midi": 67,
      "hit": false,
      "t": 222499.3918333311,
      "d": 141.59253333331435,
      "v": 101
    },
    {
      "midi": 73,
      "hit": false,
      "t": 222499.3918333311,
      "d": 362.8308666666562,
      "v": 85
    },
    {
      "midi": 64,
      "hit": false,
      "t": 222499.3918333311,
      "d": 384.95470000000205,
      "v": 95
    },
    {
      "midi": 69,
      "hit": false,
      "t": 222587.8871666644,
      "d": 309.733666666667,
      "v": 83
    },
    {
      "midi": 40,
      "hit": false,
      "t": 222977.26663333108,
      "d": 230.08786666663946,
      "v": 97
    },
    {
      "midi": 47,
      "hit": false,
      "t": 222977.26663333108,
      "d": 243.3621666666295,
      "v": 105
    },
    {
      "midi": 67,
      "hit": false,
      "t": 222994.96569999773,
      "d": 3017.690866666584,
      "v": 85
    },
    {
      "midi": 62,
      "hit": false,
      "t": 222999.3904666644,
      "d": 2969.018433333258,
      "v": 91
    },
    {
      "midi": 71,
      "hit": false,
      "t": 223008.23999999772,
      "d": 3053.08899999992,
      "v": 85
    },
    {
      "midi": 42,
      "hit": false,
      "t": 223782.57416666436,
      "d": 243.3621666666586,
      "v": 95
    },
    {
      "midi": 49,
      "hit": false,
      "t": 223791.4236999977,
      "d": 265.4859999999753,
      "v": 100
    },
    {
      "midi": 43,
      "hit": false,
      "t": 224039.210633331,
      "d": 230.08786666666856,
      "v": 80
    },
    {
      "midi": 50,
      "hit": false,
      "t": 224048.06016666433,
      "d": 199.11449999999604,
      "v": 96
    },
    {
      "midi": 47,
      "hit": false,
      "t": 224844.51816666435,
      "d": 225.66310000000522,
      "v": 103
    },
    {
      "midi": 40,
      "hit": false,
      "t": 224853.36769999767,
      "d": 234.5126333333319,
      "v": 90
    },
    {
      "midi": 42,
      "hit": false,
      "t": 225906.46216666434,
      "d": 247.78693333329284,
      "v": 105
    },
    {
      "midi": 49,
      "hit": false,
      "t": 225910.886933331,
      "d": 278.76029999993625,
      "v": 105
    },
    {
      "midi": 67,
      "hit": false,
      "t": 226171.94816666428,
      "d": 123.89346666663187,
      "v": 104
    },
    {
      "midi": 64,
      "hit": false,
      "t": 226171.94816666428,
      "d": 367.25563333329046,
      "v": 99
    },
    {
      "midi": 43,
      "hit": false,
      "t": 226176.37293333095,
      "d": 216.81356666662032,
      "v": 83
    },
    {
      "midi": 73,
      "hit": false,
      "t": 226176.37293333095,
      "d": 367.25563333329046,
      "v": 87
    },
    {
      "midi": 69,
      "hit": false,
      "t": 226207.3462999976,
      "d": 4.424766666663345,
      "v": 85
    },
    {
      "midi": 50,
      "hit": false,
      "t": 226207.3462999976,
      "d": 172.56589999998687,
      "v": 93
    },
    {
      "midi": 69,
      "hit": false,
      "t": 226282.56733333092,
      "d": 287.60983333332115,
      "v": 81
    },
    {
      "midi": 67,
      "hit": false,
      "t": 226689.64586666424,
      "d": 110.61916666661273,
      "v": 102
    },
    {
      "midi": 64,
      "hit": false,
      "t": 226702.92016666423,
      "d": 398.228999999963,
      "v": 103
    },
    {
      "midi": 73,
      "hit": false,
      "t": 226711.76969999756,
      "d": 398.228999999963,
      "v": 88
    },
    {
      "midi": 69,
      "hit": false,
      "t": 226716.19446666422,
      "d": 17.69906666665338,
      "v": 84
    },
    {
      "midi": 69,
      "hit": false,
      "t": 226782.5659666642,
      "d": 491.14909999998054,
      "v": 76
    },
    {
      "midi": 40,
      "hit": false,
      "t": 227198.49403333085,
      "d": 190.26496666666935,
      "v": 95
    },
    {
      "midi": 47,
      "hit": false,
      "t": 227220.6178666642,
      "d": 181.41543333331356,
      "v": 100
    },
    {
      "midi": 67,
      "hit": false,
      "t": 227238.31693333085,
      "d": 3030.9651666666614,
      "v": 84
    },
    {
      "midi": 71,
      "hit": false,
      "t": 227238.31693333085,
      "d": 3053.089000000007,
      "v": 91
    },
    {
      "midi": 62,
      "hit": false,
      "t": 227242.7416999975,
      "d": 2986.717499999999,
      "v": 87
    },
    {
      "midi": 42,
      "hit": false,
      "t": 228008.22633333085,
      "d": 199.11450000002515,
      "v": 98
    },
    {
      "midi": 49,
      "hit": false,
      "t": 228030.3501666642,
      "d": 185.840200000006,
      "v": 105
    },
    {
      "midi": 43,
      "hit": false,
      "t": 228264.86279999753,
      "d": 247.78693333332194,
      "v": 85
    },
    {
      "midi": 50,
      "hit": false,
      "t": 228273.71233333086,
      "d": 225.66310000000522,
      "v": 93
    },
    {
      "midi": 47,
      "hit": false,
      "t": 229070.17033333084,
      "d": 168.14113333332352,
      "v": 103
    },
    {
      "midi": 40,
      "hit": false,
      "t": 229083.44463333083,
      "d": 181.41543333334266,
      "v": 92
    },
    {
      "midi": 49,
      "hit": false,
      "t": 230158.66293333084,
      "d": 256.63646666667773,
      "v": 105
    },
    {
      "midi": 42,
      "hit": false,
      "t": 230167.51246666416,
      "d": 269.91076666666777,
      "v": 103
    },
    {
      "midi": 43,
      "hit": false,
      "t": 230424.14893333084,
      "d": 225.6630999999761,
      "v": 90
    },
    {
      "midi": 64,
      "hit": false,
      "t": 230441.8479999975,
      "d": 367.25563333331957,
      "v": 99
    },
    {
      "midi": 73,
      "hit": false,
      "t": 230441.8479999975,
      "d": 398.2289999999921,
      "v": 88
    },
    {
      "midi": 50,
      "hit": false,
      "t": 230446.27276666416,
      "d": 203.5392666666594,
      "v": 71
    },
    {
      "midi": 69,
      "hit": false,
      "t": 230446.27276666416,
      "d": 415.92806666667457,
      "v": 94
    },
    {
      "midi": 67,
      "hit": false,
      "t": 230455.12229999749,
      "d": 106.19440000000759,
      "v": 106
    },
    {
      "midi": 73,
      "hit": false,
      "t": 230950.69616666416,
      "d": 433.62713333332795,
      "v": 83
    },
    {
      "midi": 67,
      "hit": false,
      "t": 230963.97046666415,
      "d": 154.8668333333335,
      "v": 90
    },
    {
      "midi": 64,
      "hit": false,
      "t": 230972.81999999747,
      "d": 420.3528333333379,
      "v": 97
    },
    {
      "midi": 69,
      "hit": false,
      "t": 231070.16486666416,
      "d": 464.60049999994226,
      "v": 83
    },
    {
      "midi": 47,
      "hit": false,
      "t": 231472.8186333308,
      "d": 221.23833333328366,
      "v": 99
    },
    {
      "midi": 67,
      "hit": false,
      "t": 231490.51769999746,
      "d": 3008.8413333332574,
      "v": 85
    },
    {
      "midi": 40,
      "hit": false,
      "t": 231494.94246666413,
      "d": 221.23833333331277,
      "v": 95
    },
    {
      "midi": 62,
      "hit": false,
      "t": 231503.79199999745,
      "d": 2920.3459999999322,
      "v": 90
    },
    {
      "midi": 71,
      "hit": false,
      "t": 231517.06629999744,
      "d": 3035.3899333332665,
      "v": 88
    },
    {
      "midi": 42,
      "hit": false,
      "t": 232264.8518666641,
      "d": 247.78693333332194,
      "v": 95
    },
    {
      "midi": 49,
      "hit": false,
      "t": 232282.55093333076,
      "d": 207.96403333332273,
      "v": 102
    },
    {
      "midi": 43,
      "hit": false,
      "t": 232521.48833333075,
      "d": 225.66310000000522,
      "v": 89
    },
    {
      "midi": 50,
      "hit": false,
      "t": 232543.6121666641,
      "d": 199.11449999999604,
      "v": 83
    },
    {
      "midi": 40,
      "hit": false,
      "t": 233340.07016666408,
      "d": 261.061233333312,
      "v": 99
    },
    {
      "midi": 47,
      "hit": false,
      "t": 233353.34446666407,
      "d": 274.3355333333311,
      "v": 105
    },
    {
      "midi": 42,
      "hit": false,
      "t": 234379.89033333072,
      "d": 247.78693333332194,
      "v": 104
    },
    {
      "midi": 49,
      "hit": false,
      "t": 234388.73986666405,
      "d": 269.91076666666777,
      "v": 103
    },
    {
      "midi": 67,
      "hit": false,
      "t": 234658.65063333072,
      "d": 137.1677666666219,
      "v": 103
    },
    {
      "midi": 73,
      "hit": false,
      "t": 234658.65063333072,
      "d": 398.2289999999339,
      "v": 90
    },
    {
      "midi": 50,
      "hit": false,
      "t": 234667.50016666405,
      "d": 176.9906666666211,
      "v": 87
    },
    {
      "midi": 69,
      "hit": false,
      "t": 234671.9249333307,
      "d": 384.95469999994384,
      "v": 96
    },
    {
      "midi": 64,
      "hit": false,
      "t": 234676.34969999737,
      "d": 362.8308666666271,
      "v": 99
    },
    {
      "midi": 43,
      "hit": false,
      "t": 234680.77446666404,
      "d": 194.6897333333036,
      "v": 80
    },
    {
      "midi": 72,
      "hit": false,
      "t": 234698.4735333307,
      "d": 8.84953333332669,
      "v": 83
    },
    {
      "midi": 67,
      "hit": false,
      "t": 235176.34833333065,
      "d": 97.3448666666518,
      "v": 94
    },
    {
      "midi": 69,
      "hit": false,
      "t": 235176.34833333065,
      "d": 584.0691999999399,
      "v": 94
    },
    {
      "midi": 64,
      "hit": false,
      "t": 235185.19786666398,
      "d": 442.47666666665464,
      "v": 102
    },
    {
      "midi": 73,
      "hit": false,
      "t": 235198.47216666397,
      "d": 464.60050000000047,
      "v": 80
    },
    {
      "midi": 40,
      "hit": false,
      "t": 235716.16986666396,
      "d": 190.26496666664025,
      "v": 94
    },
    {
      "midi": 47,
      "hit": false,
      "t": 235729.44416666395,
      "d": 185.8401999999769,
      "v": 100
    },
    {
      "midi": 67,
      "hit": false,
      "t": 235742.71846666394,
      "d": 3035.3899333333247,
      "v": 92
    },
    {
      "midi": 71,
      "hit": false,
      "t": 235742.71846666394,
      "d": 3057.5137666666706,
      "v": 94
    },
    {
      "midi": 62,
      "hit": false,
      "t": 235751.56799999726,
      "d": 2986.717499999999,
      "v": 92
    },
    {
      "midi": 42,
      "hit": false,
      "t": 236517.0526333306,
      "d": 203.5392666666594,
      "v": 95
    },
    {
      "midi": 49,
      "hit": false,
      "t": 236517.0526333306,
      "d": 252.21169999998529,
      "v": 100
    },
    {
      "midi": 43,
      "hit": false,
      "t": 236769.2643333306,
      "d": 212.38879999998608,
      "v": 89
    },
    {
      "midi": 50,
      "hit": false,
      "t": 236778.11386666392,
      "d": 190.26496666666935,
      "v": 93
    },
    {
      "midi": 40,
      "hit": false,
      "t": 237587.84616666392,
      "d": 238.93739999999525,
      "v": 101
    },
    {
      "midi": 47,
      "hit": false,
      "t": 237587.84616666392,
      "d": 247.78693333332194,
      "v": 99
    },
    {
      "midi": 42,
      "hit": false,
      "t": 238636.51586666392,
      "d": 265.4860000000335,
      "v": 100
    },
    {
      "midi": 49,
      "hit": false,
      "t": 238658.63969999726,
      "d": 269.91076666666777,
      "v": 98
    },
    {
      "midi": 43,
      "hit": false,
      "t": 238915.27616666394,
      "d": 203.5392666666594,
      "v": 85
    },
    {
      "midi": 69,
      "hit": false,
      "t": 238928.55046666393,
      "d": 48.6724333333259,
      "v": 93
    },
    {
      "midi": 67,
      "hit": false,
      "t": 238928.55046666393,
      "d": 119.46869999999763,
      "v": 99
    },
    {
      "midi": 50,
      "hit": false,
      "t": 238937.39999999726,
      "d": 159.29159999999683,
      "v": 90
    },
    {
      "midi": 64,
      "hit": false,
      "t": 238937.39999999726,
      "d": 336.28226666667615,
      "v": 100
    },
    {
      "midi": 73,
      "hit": false,
      "t": 238937.39999999726,
      "d": 349.5565666666662,
      "v": 89
    },
    {
      "midi": 69,
      "hit": false,
      "t": 239012.6210333306,
      "d": 274.3355333333311,
      "v": 79
    },
    {
      "midi": 64,
      "hit": false,
      "t": 239437.3986333306,
      "d": 446.901433333318,
      "v": 97
    },
    {
      "midi": 73,
      "hit": false,
      "t": 239437.3986333306,
      "d": 469.0252666666638,
      "v": 75
    },
    {
      "midi": 67,
      "hit": false,
      "t": 239450.67293333058,
      "d": 137.167766666651,
      "v": 106
    },
    {
      "midi": 69,
      "hit": false,
      "t": 239468.37199999724,
      "d": 495.573866666673,
      "v": 83
    },
    {
      "midi": 40,
      "hit": false,
      "t": 239968.37063333057,
      "d": 176.9906666666502,
      "v": 94
    },
    {
      "midi": 47,
      "hit": false,
      "t": 239977.2201666639,
      "d": 176.9906666666502,
      "v": 99
    },
    {
      "midi": 71,
      "hit": false,
      "t": 239990.4944666639,
      "d": 3092.911899999919,
      "v": 90
    },
    {
      "midi": 62,
      "hit": false,
      "t": 239999.34399999722,
      "d": 2995.5670333332673,
      "v": 99
    },
    {
      "midi": 67,
      "hit": false,
      "t": 239999.34399999722,
      "d": 3075.2128333332657,
      "v": 88
    },
    {
      "midi": 42,
      "hit": false,
      "t": 240773.67816666389,
      "d": 256.63646666664863,
      "v": 103
    },
    {
      "midi": 49,
      "hit": false,
      "t": 240782.5276999972,
      "d": 265.4859999999753,
      "v": 99
    },
    {
      "midi": 43,
      "hit": false,
      "t": 241048.0136999972,
      "d": 221.23833333334187,
      "v": 94
    },
    {
      "midi": 50,
      "hit": false,
      "t": 241061.28799999718,
      "d": 176.99066666667932,
      "v": 95
    },
    {
      "midi": 40,
      "hit": false,
      "t": 241866.59553333052,
      "d": 199.11449999999604,
      "v": 101
    },
    {
      "midi": 47,
      "hit": false,
      "t": 241871.02029999718,
      "d": 203.5392666666594,
      "v": 98
    },
    {
      "midi": 49,
      "hit": false,
      "t": 242906.41569999716,
      "d": 230.08786666663946,
      "v": 105
    },
    {
      "midi": 42,
      "hit": false,
      "t": 242906.41569999716,
      "d": 243.3621666666295,
      "v": 103
    },
    {
      "midi": 43,
      "hit": false,
      "t": 243149.7778666638,
      "d": 243.3621666666877,
      "v": 98
    },
    {
      "midi": 67,
      "hit": false,
      "t": 243171.90169999714,
      "d": 132.74299999998766,
      "v": 103
    },
    {
      "midi": 50,
      "hit": false,
      "t": 243171.90169999714,
      "d": 199.11449999999604,
      "v": 95
    },
    {
      "midi": 73,
      "hit": false,
      "t": 243189.6007666638,
      "d": 398.2290000000212,
      "v": 89
    },
    {
      "midi": 64,
      "hit": false,
      "t": 243194.02553333045,
      "d": 358.406100000022,
      "v": 101
    },
    {
      "midi": 69,
      "hit": false,
      "t": 243198.45029999712,
      "d": 398.2290000000212,
      "v": 100
    },
    {
      "midi": 73,
      "hit": false,
      "t": 243694.02416666382,
      "d": 446.901433333318,
      "v": 88
    },
    {
      "midi": 67,
      "hit": false,
      "t": 243698.44893333048,
      "d": 70.79626666664262,
      "v": 98
    },
    {
      "midi": 69,
      "hit": false,
      "t": 243707.2984666638,
      "d": 491.14909999998054,
      "v": 96
    },
    {
      "midi": 64,
      "hit": false,
      "t": 243716.14799999713,
      "d": 402.65376666665543,
      "v": 98
    },
    {
      "midi": 47,
      "hit": false,
      "t": 244216.14663333044,
      "d": 234.5126333333028,
      "v": 99
    },
    {
      "midi": 67,
      "hit": false,
      "t": 244224.99616666377,
      "d": 3066.3632999999973,
      "v": 88
    },
    {
      "midi": 40,
      "hit": false,
      "t": 244238.27046666376,
      "d": 238.93739999999525,
      "v": 98
    },
    {
      "midi": 71,
      "hit": false,
      "t": 244251.54476666375,
      "d": 3057.5137666666706,
      "v": 86
    },
    {
      "midi": 62,
      "hit": false,
      "t": 244255.9695333304,
      "d": 2991.1422666666913,
      "v": 90
    },
    {
      "midi": 42,
      "hit": false,
      "t": 245043.5779999971,
      "d": 221.23833333334187,
      "v": 102
    },
    {
      "midi": 49,
      "hit": false,
      "t": 245048.00276666376,
      "d": 225.66310000000522,
      "v": 104
    },
    {
      "midi": 43,
      "hit": false,
      "t": 245286.94016666376,
      "d": 216.81356666667853,
      "v": 87
    },
    {
      "midi": 50,
      "hit": false,
      "t": 245300.21446666375,
      "d": 176.99066666667932,
      "v": 87
    },
    {
      "midi": 47,
      "hit": false,
      "t": 246105.52199999712,
      "d": 207.96403333332273,
      "v": 102
    },
    {
      "midi": 40,
      "hit": false,
      "t": 246109.94676666378,
      "d": 199.11449999999604,
      "v": 96
    },
    {
      "midi": 42,
      "hit": false,
      "t": 247132.06786666377,
      "d": 256.63646666664863,
      "v": 106
    },
    {
      "midi": 49,
      "hit": false,
      "t": 247132.06786666377,
      "d": 269.91076666663866,
      "v": 106
    },
    {
      "midi": 50,
      "hit": false,
      "t": 247393.12909999708,
      "d": 203.53926666663028,
      "v": 89
    },
    {
      "midi": 43,
      "hit": false,
      "t": 247397.55386666374,
      "d": 230.08786666663946,
      "v": 87
    },
    {
      "midi": 67,
      "hit": false,
      "t": 247410.82816666373,
      "d": 154.86683333330438,
      "v": 106
    },
    {
      "midi": 73,
      "hit": false,
      "t": 247424.10246666372,
      "d": 362.8308666666562,
      "v": 90
    },
    {
      "midi": 64,
      "hit": false,
      "t": 247432.95199999705,
      "d": 353.98133333332953,
      "v": 103
    },
    {
      "midi": 69,
      "hit": false,
      "t": 247508.1730333304,
      "d": 296.45936666664784,
      "v": 80
    },
    {
      "midi": 67,
      "hit": false,
      "t": 247946.22493333038,
      "d": 203.5392666666594,
      "v": 101
    },
    {
      "midi": 64,
      "hit": false,
      "t": 247950.64969999704,
      "d": 384.95470000000205,
      "v": 94
    },
    {
      "midi": 73,
      "hit": false,
      "t": 247963.92399999703,
      "d": 398.2290000000212,
      "v": 80
    },
    {
      "midi": 69,
      "hit": false,
      "t": 248074.5431666637,
      "d": 340.7070333333395,
      "v": 81
    },
    {
      "midi": 40,
      "hit": false,
      "t": 248450.64833333038,
      "d": 181.41543333331356,
      "v": 95
    },
    {
      "midi": 67,
      "hit": false,
      "t": 248455.07309999704,
      "d": 2973.4431999999215,
      "v": 75
    },
    {
      "midi": 47,
      "hit": false,
      "t": 248459.4978666637,
      "d": 176.9906666666502,
      "v": 100
    },
    {
      "midi": 62,
      "hit": false,
      "t": 248472.7721666637,
      "d": 2840.700199999963,
      "v": 95
    },
    {
      "midi": 71,
      "hit": false,
      "t": 248472.7721666637,
      "d": 3017.690866666613,
      "v": 86
    },
    {
      "midi": 49,
      "hit": false,
      "t": 249260.38063333035,
      "d": 190.26496666666935,
      "v": 99
    },
    {
      "midi": 42,
      "hit": false,
      "t": 249260.38063333035,
      "d": 234.5126333333319,
      "v": 99
    },
    {
      "midi": 50,
      "hit": false,
      "t": 249499.31803333035,
      "d": 199.11449999996694,
      "v": 81
    },
    {
      "midi": 43,
      "hit": false,
      "t": 249503.742799997,
      "d": 225.6630999999761,
      "v": 83
    },
    {
      "midi": 41,
      "hit": false,
      "t": 249512.59233333034,
      "d": 13.274299999990035,
      "v": 82
    },
    {
      "midi": 40,
      "hit": false,
      "t": 250344.44846666366,
      "d": 190.26496666666935,
      "v": 94
    },
    {
      "midi": 47,
      "hit": false,
      "t": 250353.29799999698,
      "d": 185.840200000006,
      "v": 100
    },
    {
      "midi": 49,
      "hit": false,
      "t": 251370.9943333303,
      "d": 230.08786666666856,
      "v": 99
    },
    {
      "midi": 42,
      "hit": false,
      "t": 251370.9943333303,
      "d": 247.78693333332194,
      "v": 103
    },
    {
      "midi": 43,
      "hit": false,
      "t": 251636.48033333028,
      "d": 216.81356666664942,
      "v": 71
    },
    {
      "midi": 50,
      "hit": false,
      "t": 251640.90509999695,
      "d": 181.41543333331356,
      "v": 81
    },
    {
      "midi": 73,
      "hit": false,
      "t": 251649.75463333027,
      "d": 376.10516666664626,
      "v": 94
    },
    {
      "midi": 69,
      "hit": false,
      "t": 251658.6041666636,
      "d": 22.123833333316725,
      "v": 88
    },
    {
      "midi": 67,
      "hit": false,
      "t": 251658.6041666636,
      "d": 137.167766666651,
      "v": 99
    },
    {
      "midi": 64,
      "hit": false,
      "t": 251663.02893333026,
      "d": 362.8308666666562,
      "v": 100
    },
    {
      "midi": 69,
      "hit": false,
      "t": 251716.12613333025,
      "d": 318.58319999999367,
      "v": 82
    },
    {
      "midi": 64,
      "hit": false,
      "t": 252154.17803333024,
      "d": 398.228999999963,
      "v": 100
    },
    {
      "midi": 73,
      "hit": false,
      "t": 252171.8770999969,
      "d": 442.47666666665464,
      "v": 90
    },
    {
      "midi": 67,
      "hit": false,
      "t": 252176.30186666356,
      "d": 132.74299999998766,
      "v": 101
    },
    {
      "midi": 69,
      "hit": false,
      "t": 252255.94766666356,
      "d": 376.10516666664626,
      "v": 67
    },
    {
      "midi": 40,
      "hit": false,
      "t": 252685.1500333302,
      "d": 163.71636666663107,
      "v": 92
    },
    {
      "midi": 47,
      "hit": false,
      "t": 252689.57479999686,
      "d": 159.29159999996773,
      "v": 99
    },
    {
      "midi": 62,
      "hit": false,
      "t": 252707.2738666635,
      "d": 2924.7707666665956,
      "v": 92
    },
    {
      "midi": 67,
      "hit": false,
      "t": 252720.5481666635,
      "d": 2986.7174999999406,
      "v": 89
    },
    {
      "midi": 71,
      "hit": false,
      "t": 252729.39769999683,
      "d": 3053.088999999949,
      "v": 89
    },
    {
      "midi": 42,
      "hit": false,
      "t": 253486.0327999968,
      "d": 221.23833333331277,
      "v": 98
    },
    {
      "midi": 49,
      "hit": false,
      "t": 253494.88233333014,
      "d": 247.78693333332194,
      "v": 103
    },
    {
      "midi": 50,
      "hit": false,
      "t": 253747.09403333013,
      "d": 190.26496666666935,
      "v": 93
    },
    {
      "midi": 43,
      "hit": false,
      "t": 253747.09403333013,
      "d": 225.66310000000522,
      "v": 84
    },
    {
      "midi": 47,
      "hit": false,
      "t": 254565.67586666346,
      "d": 185.840200000006,
      "v": 102
    },
    {
      "midi": 40,
      "hit": false,
      "t": 254570.10063333012,
      "d": 181.41543333334266,
      "v": 95
    },
    {
      "midi": 42,
      "hit": false,
      "t": 255609.9207999968,
      "d": 238.93739999999525,
      "v": 95
    },
    {
      "midi": 49,
      "hit": false,
      "t": 255618.77033333012,
      "d": 265.4859999999753,
      "v": 100
    },
    {
      "midi": 64,
      "hit": false,
      "t": 255862.13249999678,
      "d": 433.62713333326974,
      "v": 106
    },
    {
      "midi": 67,
      "hit": false,
      "t": 255870.9820333301,
      "d": 154.86683333330438,
      "v": 100
    },
    {
      "midi": 73,
      "hit": false,
      "t": 255875.40679999677,
      "d": 429.2023666666064,
      "v": 90
    },
    {
      "midi": 43,
      "hit": false,
      "t": 255884.2563333301,
      "d": 247.78693333329284,
      "v": 83
    },
    {
      "midi": 50,
      "hit": false,
      "t": 255893.10586666342,
      "d": 225.6630999999761,
      "v": 84
    },
    {
      "midi": 69,
      "hit": false,
      "t": 255906.3801666634,
      "d": 13.274299999990035,
      "v": 85
    },
    {
      "midi": 69,
      "hit": false,
      "t": 255963.90213333006,
      "d": 353.9813333333004,
      "v": 83
    },
    {
      "midi": 64,
      "hit": false,
      "t": 256437.35216666336,
      "d": 407.0785333333479,
      "v": 103
    },
    {
      "midi": 67,
      "hit": false,
      "t": 256459.4759999967,
      "d": 75.22103333333507,
      "v": 103
    },
    {
      "midi": 73,
      "hit": false,
      "t": 256459.4759999967,
      "d": 420.3528333333379,
      "v": 92
    },
    {
      "midi": 69,
      "hit": false,
      "t": 256472.7502999967,
      "d": 464.60050000000047,
      "v": 91
    },
    {
      "midi": 47,
      "hit": false,
      "t": 256955.04986666335,
      "d": 221.23833333331277,
      "v": 106
    },
    {
      "midi": 62,
      "hit": false,
      "t": 256959.47463333,
      "d": 2814.1515999999247,
      "v": 106
    },
    {
      "midi": 67,
      "hit": false,
      "t": 256968.32416666334,
      "d": 2946.8945999999414,
      "v": 90
    },
    {
      "midi": 71,
      "hit": false,
      "t": 256972.74893333,
      "d": 3008.8413333332865,
      "v": 94
    },
    {
      "midi": 40,
      "hit": false,
      "t": 256977.17369999667,
      "d": 203.5392666666594,
      "v": 99
    },
    {
      "midi": 42,
      "hit": false,
      "t": 257764.78216666332,
      "d": 252.21169999998529,
      "v": 88
    },
    {
      "midi": 49,
      "hit": false,
      "t": 257764.78216666332,
      "d": 300.8841333333112,
      "v": 101
    },
    {
      "midi": 41,
      "hit": false,
      "t": 258008.14433332998,
      "d": 44.24766666666255,
      "v": 81
    },
    {
      "midi": 50,
      "hit": false,
      "t": 258043.54246666332,
      "d": 181.41543333331356,
      "v": 100
    },
    {
      "midi": 43,
      "hit": false,
      "t": 258056.8167666633,
      "d": 225.6630999999761,
      "v": 74
    },
    {
      "midi": 47,
      "hit": false,
      "t": 258809.02709999663,
      "d": 207.96403333332273,
      "v": 105
    },
    {
      "midi": 40,
      "hit": false,
      "t": 258813.4518666633,
      "d": 207.96403333332273,
      "v": 91
    },
    {
      "midi": 42,
      "hit": false,
      "t": 259879.82063332995,
      "d": 274.3355333333311,
      "v": 96
    },
    {
      "midi": 49,
      "hit": false,
      "t": 259901.9444666633,
      "d": 309.7336666666379,
      "v": 100
    },
    {
      "midi": 64,
      "hit": false,
      "t": 260167.43046666327,
      "d": 358.4060999999929,
      "v": 97
    },
    {
      "midi": 69,
      "hit": false,
      "t": 260167.43046666327,
      "d": 371.6803999999829,
      "v": 99
    },
    {
      "midi": 67,
      "hit": false,
      "t": 260176.2799999966,
      "d": 119.46869999999763,
      "v": 97
    },
    {
      "midi": 43,
      "hit": false,
      "t": 260176.2799999966,
      "d": 256.63646666667773,
      "v": 92
    },
    {
      "midi": 73,
      "hit": false,
      "t": 260176.2799999966,
      "d": 362.8308666666562,
      "v": 86
    },
    {
      "midi": 50,
      "hit": false,
      "t": 260189.55429999658,
      "d": 207.96403333335184,
      "v": 88
    },
    {
      "midi": 67,
      "hit": false,
      "t": 260640.8804999966,
      "d": 106.19439999997849,
      "v": 97
    },
    {
      "midi": 73,
      "hit": false,
      "t": 260654.15479999658,
      "d": 442.47666666665464,
      "v": 87
    },
    {
      "midi": 64,
      "hit": false,
      "t": 260663.0043333299,
      "d": 429.2023666666646,
      "v": 103
    },
    {
      "midi": 69,
      "hit": false,
      "t": 260676.2786333299,
      "d": 486.7243333333463,
      "v": 94
    },
    {
      "midi": 40,
      "hit": false,
      "t": 261193.97633332992,
      "d": 221.23833333328366,
      "v": 97
    },
    {
      "midi": 47,
      "hit": false,
      "t": 261202.82586666325,
      "d": 203.53926666663028,
      "v": 106
    },
    {
      "midi": 67,
      "hit": false,
      "t": 261216.10016666324,
      "d": 2991.142266666575,
      "v": 87
    },
    {
      "midi": 62,
      "hit": false,
      "t": 261220.5249333299,
      "d": 2946.894599999883,
      "v": 92
    },
    {
      "midi": 71,
      "hit": false,
      "t": 261238.22399999655,
      "d": 3039.81469999993,
      "v": 75
    },
    {
      "midi": 42,
      "hit": false,
      "t": 262003.70863332986,
      "d": 238.93739999996615,
      "v": 97
    },
    {
      "midi": 49,
      "hit": false,
      "t": 262012.5581666632,
      "d": 243.3621666666295,
      "v": 105
    },
    {
      "midi": 43,
      "hit": false,
      "t": 262247.0707999965,
      "d": 256.63646666664863,
      "v": 93
    },
    {
      "midi": 50,
      "hit": false,
      "t": 262264.76986666315,
      "d": 212.38880000001518,
      "v": 85
    },
    {
      "midi": 40,
      "hit": false,
      "t": 263101.05076666316,
      "d": 203.53926666663028,
      "v": 95
    },
    {
      "midi": 47,
      "hit": false,
      "t": 263127.59936666314,
      "d": 181.41543333331356,
      "v": 100
    },
    {
      "midi": 42,
      "hit": false,
      "t": 264123.17186666315,
      "d": 265.4859999999753,
      "v": 97
    },
    {
      "midi": 49,
      "hit": false,
      "t": 264145.29569999647,
      "d": 309.73366666660877,
      "v": 106
    },
    {
      "midi": 67,
      "hit": false,
      "t": 264401.9321666631,
      "d": 119.46869999996852,
      "v": 101
    },
    {
      "midi": 73,
      "hit": false,
      "t": 264410.78169999644,
      "d": 358.40609999996377,
      "v": 92
    },
    {
      "midi": 43,
      "hit": false,
      "t": 264415.2064666631,
      "d": 256.63646666664863,
      "v": 89
    },
    {
      "midi": 64,
      "hit": false,
      "t": 264424.05599999643,
      "d": 353.9813333333004,
      "v": 99
    },
    {
      "midi": 50,
      "hit": false,
      "t": 264432.90553332976,
      "d": 212.38880000001518,
      "v": 84
    },
    {
      "midi": 69,
      "hit": false,
      "t": 264437.3302999964,
      "d": 340.7070333333104,
      "v": 82
    },
    {
      "midi": 64,
      "hit": false,
      "t": 264910.78033332975,
      "d": 429.2023666666355,
      "v": 94
    },
    {
      "midi": 73,
      "hit": false,
      "t": 264924.05463332974,
      "d": 438.0518999999622,
      "v": 87
    },
    {
      "midi": 67,
      "hit": false,
      "t": 264932.90416666307,
      "d": 123.89346666663187,
      "v": 97
    },
    {
      "midi": 69,
      "hit": false,
      "t": 265021.3994999964,
      "d": 362.8308666666271,
      "v": 85
    },
    {
      "midi": 40,
      "hit": false,
      "t": 265477.150466663,
      "d": 216.81356666667853,
      "v": 94
    },
    {
      "midi": 71,
      "hit": false,
      "t": 265477.150466663,
      "d": 3013.26609999995,
      "v": 95
    },
    {
      "midi": 47,
      "hit": false,
      "t": 265485.99999999633,
      "d": 216.81356666667853,
      "v": 103
    },
    {
      "midi": 62,
      "hit": false,
      "t": 265485.99999999633,
      "d": 2915.921233333298,
      "v": 100
    },
    {
      "midi": 67,
      "hit": false,
      "t": 265499.2742999963,
      "d": 2982.2927333333064,
      "v": 97
    },
    {
      "midi": 42,
      "hit": false,
      "t": 266264.75893332966,
      "d": 238.93739999999525,
      "v": 100
    },
    {
      "midi": 49,
      "hit": false,
      "t": 266291.30753332964,
      "d": 300.8841333333985,
      "v": 105
    },
    {
      "midi": 43,
      "hit": false,
      "t": 266503.69633332966,
      "d": 252.2117000000435,
      "v": 90
    },
    {
      "midi": 50,
      "hit": false,
      "t": 266547.94399999635,
      "d": 212.38880000001518,
      "v": 90
    },
    {
      "midi": 40,
      "hit": false,
      "t": 267326.7029333297,
      "d": 225.66310000000522,
      "v": 94
    },
    {
      "midi": 47,
      "hit": false,
      "t": 267331.12769999634,
      "d": 207.96403333335184,
      "v": 100
    },
    {
      "midi": 42,
      "hit": false,
      "t": 268362.09833332966,
      "d": 265.4859999999753,
      "v": 104
    },
    {
      "midi": 49,
      "hit": false,
      "t": 268370.947866663,
      "d": 309.73366666660877,
      "v": 101
    },
    {
      "midi": 43,
      "hit": false,
      "t": 268649.70816666295,
      "d": 269.91076666663866,
      "v": 92
    },
    {
      "midi": 50,
      "hit": false,
      "t": 268671.83199999627,
      "d": 230.08786666666856,
      "v": 98
    },
    {
      "midi": 64,
      "hit": false,
      "t": 268671.83199999627,
      "d": 367.25563333334867,
      "v": 101
    },
    {
      "midi": 67,
      "hit": false,
      "t": 268680.6815333296,
      "d": 154.8668333333335,
      "v": 98
    },
    {
      "midi": 73,
      "hit": false,
      "t": 268693.9558333296,
      "d": 376.10516666667536,
      "v": 97
    },
    {
      "midi": 69,
      "hit": false,
      "t": 268760.3273333296,
      "d": 296.45936666667694,
      "v": 83
    },
    {
      "midi": 64,
      "hit": false,
      "t": 269202.8039999963,
      "d": 398.2289999999921,
      "v": 97
    },
    {
      "midi": 67,
      "hit": false,
      "t": 269224.9278333296,
      "d": 137.1677666666801,
      "v": 96
    },
    {
      "midi": 73,
      "hit": false,
      "t": 269224.9278333296,
      "d": 398.2289999999921,
      "v": 85
    },
    {
      "midi": 69,
      "hit": false,
      "t": 269304.5736333296,
      "d": 331.8574999999837,
      "v": 80
    },
    {
      "midi": 47,
      "hit": false,
      "t": 269724.9264666629,
      "d": 203.53926666663028,
      "v": 102
    },
    {
      "midi": 40,
      "hit": false,
      "t": 269733.7759999962,
      "d": 199.11449999996694,
      "v": 98
    },
    {
      "midi": 62,
      "hit": false,
      "t": 269742.62553332956,
      "d": 2929.19553333323,
      "v": 105
    },
    {
      "midi": 67,
      "hit": false,
      "t": 269747.0502999962,
      "d": 2982.292733333248,
      "v": 105
    },
    {
      "midi": 71,
      "hit": false,
      "t": 269764.7493666629,
      "d": 3017.690866666613,
      "v": 97
    },
    {
      "midi": 42,
      "hit": false,
      "t": 270516.9596999962,
      "d": 252.21169999998529,
      "v": 100
    },
    {
      "midi": 49,
      "hit": false,
      "t": 270516.9596999962,
      "d": 252.21169999998529,
      "v": 101
    },
    {
      "midi": 50,
      "hit": false,
      "t": 270782.4456999962,
      "d": 185.8401999999769,
      "v": 90
    },
    {
      "midi": 43,
      "hit": false,
      "t": 270782.4456999962,
      "d": 212.38879999995697,
      "v": 90
    },
    {
      "midi": 47,
      "hit": false,
      "t": 271570.0541666628,
      "d": 190.26496666664025,
      "v": 105
    },
    {
      "midi": 40,
      "hit": false,
      "t": 271583.3284666628,
      "d": 190.26496666664025,
      "v": 93
    },
    {
      "midi": 49,
      "hit": false,
      "t": 272618.72386666277,
      "d": 252.2117000000435,
      "v": 103
    },
    {
      "midi": 42,
      "hit": false,
      "t": 272618.72386666277,
      "d": 274.3355333333602,
      "v": 105
    },
    {
      "midi": 43,
      "hit": false,
      "t": 272906.3336999961,
      "d": 203.53926666663028,
      "v": 87
    },
    {
      "midi": 64,
      "hit": false,
      "t": 272910.7584666628,
      "d": 380.5299333332805,
      "v": 102
    },
    {
      "midi": 67,
      "hit": false,
      "t": 272919.6079999961,
      "d": 119.46869999996852,
      "v": 103
    },
    {
      "midi": 50,
      "hit": false,
      "t": 272919.6079999961,
      "d": 190.26496666664025,
      "v": 83
    },
    {
      "midi": 73,
      "hit": false,
      "t": 272928.45753332943,
      "d": 389.3794666666072,
      "v": 94
    },
    {
      "midi": 69,
      "hit": false,
      "t": 272932.8822999961,
      "d": 17.69906666665338,
      "v": 90
    },
    {
      "midi": 69,
      "hit": false,
      "t": 273008.10333332943,
      "d": 331.8574999999255,
      "v": 80
    },
    {
      "midi": 67,
      "hit": false,
      "t": 273437.305699996,
      "d": 97.3448666666518,
      "v": 100
    },
    {
      "midi": 64,
      "hit": false,
      "t": 273441.7304666627,
      "d": 371.680400000012,
      "v": 99
    },
    {
      "midi": 73,
      "hit": false,
      "t": 273450.579999996,
      "d": 398.2289999999921,
      "v": 94
    },
    {
      "midi": 69,
      "hit": false,
      "t": 273450.579999996,
      "d": 420.3528333333088,
      "v": 101
    },
    {
      "midi": 47,
      "hit": false,
      "t": 273946.15386666264,
      "d": 203.53926666663028,
      "v": 105
    },
    {
      "midi": 71,
      "hit": false,
      "t": 273950.5786333293,
      "d": 3017.690866666613,
      "v": 93
    },
    {
      "midi": 67,
      "hit": false,
      "t": 273959.42816666263,
      "d": 3053.088999999978,
      "v": 92
    },
    {
      "midi": 62,
      "hit": false,
      "t": 273968.27769999596,
      "d": 2995.5670333332964,
      "v": 91
    },
    {
      "midi": 40,
      "hit": false,
      "t": 273985.9767666626,
      "d": 181.41543333331356,
      "v": 97
    },
    {
      "midi": 49,
      "hit": false,
      "t": 274724.9127999959,
      "d": 234.5126333333319,
      "v": 104
    },
    {
      "midi": 42,
      "hit": false,
      "t": 274747.03663332923,
      "d": 261.0612333333702,
      "v": 101
    },
    {
      "midi": 43,
      "hit": false,
      "t": 274999.2483333293,
      "d": 207.96403333329363,
      "v": 75
    },
    {
      "midi": 50,
      "hit": false,
      "t": 275003.67309999594,
      "d": 185.8401999999769,
      "v": 89
    },
    {
      "midi": 40,
      "hit": false,
      "t": 275822.25493332924,
      "d": 154.8668333333335,
      "v": 96
    },
    {
      "midi": 47,
      "hit": false,
      "t": 275831.10446666257,
      "d": 150.44206666667014,
      "v": 100
    },
    {
      "midi": 42,
      "hit": false,
      "t": 276879.7741666626,
      "d": 265.4860000000335,
      "v": 104
    },
    {
      "midi": 49,
      "hit": false,
      "t": 276893.0484666626,
      "d": 331.8574999999837,
      "v": 100
    },
    {
      "midi": 67,
      "hit": false,
      "t": 277149.6849333293,
      "d": 128.3182333332952,
      "v": 102
    },
    {
      "midi": 73,
      "hit": false,
      "t": 277149.6849333293,
      "d": 384.95470000000205,
      "v": 88
    },
    {
      "midi": 64,
      "hit": false,
      "t": 277154.10969999596,
      "d": 384.95470000000205,
      "v": 105
    },
    {
      "midi": 43,
      "hit": false,
      "t": 277176.2335333293,
      "d": 221.23833333334187,
      "v": 91
    },
    {
      "midi": 69,
      "hit": false,
      "t": 277180.65829999594,
      "d": 22.123833333316725,
      "v": 90
    },
    {
      "midi": 50,
      "hit": false,
      "t": 277198.3573666626,
      "d": 199.11450000002515,
      "v": 89
    },
    {
      "midi": 69,
      "hit": false,
      "t": 277233.7554999959,
      "d": 331.8575000000419,
      "v": 76
    },
    {
      "midi": 73,
      "hit": false,
      "t": 277689.5064666626,
      "d": 376.10516666661715,
      "v": 90
    },
    {
      "midi": 67,
      "hit": false,
      "t": 277698.35599999595,
      "d": 132.74299999995856,
      "v": 99
    },
    {
      "midi": 64,
      "hit": false,
      "t": 277698.35599999595,
      "d": 384.95469999994384,
      "v": 106
    },
    {
      "midi": 69,
      "hit": false,
      "t": 277720.4798333293,
      "d": 22.123833333316725,
      "v": 83
    },
    {
      "midi": 69,
      "hit": false,
      "t": 277764.7274999959,
      "d": 340.7070333333104,
      "v": 81
    },
    {
      "midi": 47,
      "hit": false,
      "t": 278216.05369999586,
      "d": 168.14113333332352,
      "v": 106
    },
    {
      "midi": 40,
      "hit": false,
      "t": 278220.4784666625,
      "d": 181.41543333331356,
      "v": 98
    },
    {
      "midi": 67,
      "hit": false,
      "t": 278220.4784666625,
      "d": 1796.4552666666568,
      "v": 99
    },
    {
      "midi": 71,
      "hit": false,
      "t": 278229.32799999585,
      "d": 1796.4552666666568,
      "v": 99
    },
    {
      "midi": 62,
      "hit": false,
      "t": 278238.1775333292,
      "d": 1783.1809666666668,
      "v": 96
    },
    {
      "midi": 42,
      "hit": false,
      "t": 279030.2107666625,
      "d": 247.78693333332194,
      "v": 103
    },
    {
      "midi": 49,
      "hit": false,
      "t": 279039.0602999958,
      "d": 225.66310000000522,
      "v": 104
    },
    {
      "midi": 50,
      "hit": false,
      "t": 279291.2719999958,
      "d": 194.6897333333618,
      "v": 90
    },
    {
      "midi": 43,
      "hit": false,
      "t": 279291.2719999958,
      "d": 216.81356666667853,
      "v": 100
    },
    {
      "midi": 59,
      "hit": false,
      "t": 280074.45569999586,
      "d": 716.8121999999858,
      "v": 100
    },
    {
      "midi": 67,
      "hit": false,
      "t": 280078.8804666625,
      "d": 707.9626666666591,
      "v": 106
    },
    {
      "midi": 48,
      "hit": false,
      "t": 280078.8804666625,
      "d": 730.0864999999758,
      "v": 103
    },
    {
      "midi": 64,
      "hit": false,
      "t": 280096.5795333292,
      "d": 685.8388333333423,
      "v": 105
    },
    {
      "midi": 62,
      "hit": false,
      "t": 280884.18799999583,
      "d": 274.335533333302,
      "v": 100
    },
    {
      "midi": 57,
      "hit": false,
      "t": 280897.4622999958,
      "d": 292.0345999999554,
      "v": 99
    },
    {
      "midi": 66,
      "hit": false,
      "t": 280906.31183332915,
      "d": 265.4859999999753,
      "v": 95
    },
    {
      "midi": 47,
      "hit": false,
      "t": 280915.1613666625,
      "d": 221.23833333334187,
      "v": 104
    },
    {
      "midi": 45,
      "hit": false,
      "t": 281437.2838333291,
      "d": 194.6897333333036,
      "v": 101
    },
    {
      "midi": 55,
      "hit": false,
      "t": 281437.2838333291,
      "d": 247.78693333326373,
      "v": 103
    },
    {
      "midi": 64,
      "hit": false,
      "t": 281459.4076666624,
      "d": 203.53926666663028,
      "v": 99
    },
    {
      "midi": 60,
      "hit": false,
      "t": 281459.4076666624,
      "d": 221.23833333328366,
      "v": 103
    },
    {
      "midi": 54,
      "hit": false,
      "t": 281959.4062999957,
      "d": 256.63646666664863,
      "v": 105
    },
    {
      "midi": 59,
      "hit": false,
      "t": 281959.4062999957,
      "d": 261.061233333312,
      "v": 105
    },
    {
      "midi": 43,
      "hit": false,
      "t": 281968.25583332905,
      "d": 243.3621666666586,
      "v": 100
    },
    {
      "midi": 62,
      "hit": false,
      "t": 281968.25583332905,
      "d": 256.63646666664863,
      "v": 100
    },
    {
      "midi": 55,
      "hit": false,
      "t": 282242.59136666235,
      "d": 4499.987699999998,
      "v": 90
    },
    {
      "midi": 59,
      "hit": false,
      "t": 282255.86566666234,
      "d": 4491.138166666671,
      "v": 99
    },
    {
      "midi": 40,
      "hit": false,
      "t": 282264.71519999567,
      "d": 4491.138166666671,
      "v": 75
    },
    {
      "midi": 61,
      "hit": false,
      "t": 282269.13996666233,
      "d": 4486.713400000008,
      "v": 105
    },
    {
      "midi": 66,
      "hit": false,
      "t": 282277.98949999566,
      "d": 4477.863866666681,
      "v": 103
    }
  ]
}