{
  "jsonPath": "Rock/Album Rock/Steely Dan/home-at-last.json",
  "path": "Rock\\Album Rock\\Steely Dan\\Home At Last.mid",
  "name": "Home At Last",
  "difficulty": "Advanced",
  "bpm": 122.99996925000768,
  "notes": [
    {
      "midi": 38,
      "hit": false,
      "t": 1755.809125,
      "d": 96.89895833333344,
      "v": 73
    },
    {
      "midi": 31,
      "hit": false,
      "t": 1883.71575,
      "d": 333.33241666666686,
      "v": 82
    },
    {
      "midi": 70,
      "hit": false,
      "t": 2790.6900000000005,
      "d": 244.18537499999957,
      "v": 87
    },
    {
      "midi": 74,
      "hit": false,
      "t": 2798.441916666667,
      "d": 228.68154166666636,
      "v": 88
    },
    {
      "midi": 65,
      "hit": false,
      "t": 2802.3178750000006,
      "d": 186.04599999999982,
      "v": 88
    },
    {
      "midi": 69,
      "hit": false,
      "t": 2810.0697916666672,
      "d": 201.54983333333303,
      "v": 88
    },
    {
      "midi": 70,
      "hit": false,
      "t": 3089.1387916666667,
      "d": 112.40279166666687,
      "v": 54
    },
    {
      "midi": 69,
      "hit": false,
      "t": 3100.766666666667,
      "d": 93.02300000000014,
      "v": 54
    },
    {
      "midi": 74,
      "hit": false,
      "t": 3100.766666666667,
      "d": 108.52683333333334,
      "v": 54
    },
    {
      "midi": 65,
      "hit": false,
      "t": 3112.394541666667,
      "d": 73.6432083333334,
      "v": 54
    },
    {
      "midi": 74,
      "hit": false,
      "t": 3534.8740000000003,
      "d": 108.52683333333334,
      "v": 34
    },
    {
      "midi": 69,
      "hit": false,
      "t": 3542.625916666667,
      "d": 81.39512500000001,
      "v": 33
    },
    {
      "midi": 65,
      "hit": false,
      "t": 3546.5018750000004,
      "d": 62.015333333333274,
      "v": 33
    },
    {
      "midi": 70,
      "hit": false,
      "t": 3546.5018750000004,
      "d": 93.02299999999968,
      "v": 33
    },
    {
      "midi": 38,
      "hit": false,
      "t": 4488.3597500000005,
      "d": 58.139374999999745,
      "v": 74
    },
    {
      "midi": 65,
      "hit": false,
      "t": 4635.646166666667,
      "d": 232.5575000000008,
      "v": 74
    },
    {
      "midi": 69,
      "hit": false,
      "t": 4643.398083333334,
      "d": 232.5575000000008,
      "v": 74
    },
    {
      "midi": 70,
      "hit": false,
      "t": 4643.398083333334,
      "d": 232.5575000000008,
      "v": 74
    },
    {
      "midi": 74,
      "hit": false,
      "t": 4643.398083333334,
      "d": 232.5575000000008,
      "v": 74
    },
    {
      "midi": 43,
      "hit": false,
      "t": 4934.094958333335,
      "d": 58.139374999999745,
      "v": 64
    },
    {
      "midi": 72,
      "hit": false,
      "t": 5100.761166666668,
      "d": 220.92962499999976,
      "v": 84
    },
    {
      "midi": 64,
      "hit": false,
      "t": 5108.513083333335,
      "d": 217.05366666666578,
      "v": 84
    },
    {
      "midi": 67,
      "hit": false,
      "t": 5112.389041666668,
      "d": 182.1700416666663,
      "v": 84
    },
    {
      "midi": 69,
      "hit": false,
      "t": 5116.265000000001,
      "d": 193.79791666666642,
      "v": 84
    },
    {
      "midi": 72,
      "hit": false,
      "t": 5387.582083333335,
      "d": 62.01533333333282,
      "v": 53
    },
    {
      "midi": 64,
      "hit": false,
      "t": 5399.209958333335,
      "d": 62.01533333333282,
      "v": 54
    },
    {
      "midi": 67,
      "hit": false,
      "t": 5403.085916666668,
      "d": 62.01533333333282,
      "v": 54
    },
    {
      "midi": 69,
      "hit": false,
      "t": 5403.085916666668,
      "d": 62.01533333333282,
      "v": 54
    },
    {
      "midi": 38,
      "hit": false,
      "t": 5418.589750000001,
      "d": 124.03066666666655,
      "v": 81
    },
    {
      "midi": 31,
      "hit": false,
      "t": 5558.124250000001,
      "d": 201.54983333333348,
      "v": 87
    },
    {
      "midi": 38,
      "hit": false,
      "t": 6360.447625000001,
      "d": 50.3874583333336,
      "v": 64
    },
    {
      "midi": 65,
      "hit": false,
      "t": 6507.7340416666675,
      "d": 189.92195833333335,
      "v": 88
    },
    {
      "midi": 74,
      "hit": false,
      "t": 6507.7340416666675,
      "d": 213.1777083333336,
      "v": 89
    },
    {
      "midi": 69,
      "hit": false,
      "t": 6507.7340416666675,
      "d": 217.0536666666667,
      "v": 89
    },
    {
      "midi": 70,
      "hit": false,
      "t": 6507.7340416666675,
      "d": 217.0536666666667,
      "v": 88
    },
    {
      "midi": 69,
      "hit": false,
      "t": 6782.927083333334,
      "d": 120.15470833333438,
      "v": 64
    },
    {
      "midi": 74,
      "hit": false,
      "t": 6794.554958333334,
      "d": 120.15470833333438,
      "v": 64
    },
    {
      "midi": 65,
      "hit": false,
      "t": 6802.306875000001,
      "d": 62.01533333333373,
      "v": 64
    },
    {
      "midi": 70,
      "hit": false,
      "t": 6802.306875000001,
      "d": 62.01533333333373,
      "v": 45
    },
    {
      "midi": 70,
      "hit": false,
      "t": 7236.414208333335,
      "d": 104.65087500000027,
      "v": 50
    },
    {
      "midi": 74,
      "hit": false,
      "t": 7240.2901666666685,
      "d": 104.65087500000027,
      "v": 50
    },
    {
      "midi": 65,
      "hit": false,
      "t": 7248.0420833333355,
      "d": 69.76724999999988,
      "v": 50
    },
    {
      "midi": 69,
      "hit": false,
      "t": 7251.918041666669,
      "d": 81.39512500000001,
      "v": 50
    },
    {
      "midi": 43,
      "hit": false,
      "t": 8197.651875000003,
      "d": 81.3951249999991,
      "v": 65
    },
    {
      "midi": 67,
      "hit": false,
      "t": 8360.442125000001,
      "d": 298.4487916666676,
      "v": 89
    },
    {
      "midi": 76,
      "hit": false,
      "t": 8360.442125000001,
      "d": 341.08433333333414,
      "v": 89
    },
    {
      "midi": 45,
      "hit": false,
      "t": 8360.442125000001,
      "d": 383.7198750000007,
      "v": 89
    },
    {
      "midi": 72,
      "hit": false,
      "t": 8364.318083333335,
      "d": 306.20070833333375,
      "v": 89
    },
    {
      "midi": 46,
      "hit": false,
      "t": 8825.557125000001,
      "d": 356.58816666666644,
      "v": 90
    },
    {
      "midi": 69,
      "hit": false,
      "t": 8825.557125000001,
      "d": 364.3400833333326,
      "v": 89
    },
    {
      "midi": 77,
      "hit": false,
      "t": 8825.557125000001,
      "d": 406.9756249999991,
      "v": 89
    },
    {
      "midi": 74,
      "hit": false,
      "t": 8833.309041666667,
      "d": 375.9679583333327,
      "v": 89
    },
    {
      "midi": 31,
      "hit": false,
      "t": 9302.300000000001,
      "d": 333.3324166666662,
      "v": 82
    },
    {
      "midi": 70,
      "hit": false,
      "t": 10232.53,
      "d": 244.18537500000093,
      "v": 87
    },
    {
      "midi": 74,
      "hit": false,
      "t": 10240.281916666667,
      "d": 228.68154166666864,
      "v": 88
    },
    {
      "midi": 65,
      "hit": false,
      "t": 10244.157875,
      "d": 186.04600000000028,
      "v": 88
    },
    {
      "midi": 69,
      "hit": false,
      "t": 10251.909791666667,
      "d": 201.5498333333344,
      "v": 88
    },
    {
      "midi": 70,
      "hit": false,
      "t": 10530.978791666668,
      "d": 112.40279166666551,
      "v": 54
    },
    {
      "midi": 69,
      "hit": false,
      "t": 10542.606666666668,
      "d": 93.02299999999923,
      "v": 54
    },
    {
      "midi": 74,
      "hit": false,
      "t": 10542.606666666668,
      "d": 108.52683333333152,
      "v": 54
    },
    {
      "midi": 65,
      "hit": false,
      "t": 10554.234541666669,
      "d": 73.64320833333295,
      "v": 54
    },
    {
      "midi": 74,
      "hit": false,
      "t": 10976.714,
      "d": 108.52683333333516,
      "v": 34
    },
    {
      "midi": 69,
      "hit": false,
      "t": 10984.465916666666,
      "d": 81.39512500000092,
      "v": 33
    },
    {
      "midi": 65,
      "hit": false,
      "t": 10988.341875,
      "d": 62.01533333333282,
      "v": 33
    },
    {
      "midi": 70,
      "hit": false,
      "t": 10988.341875,
      "d": 93.02300000000105,
      "v": 33
    },
    {
      "midi": 38,
      "hit": false,
      "t": 11930.199750000002,
      "d": 58.139375000000655,
      "v": 74
    },
    {
      "midi": 65,
      "hit": false,
      "t": 12077.48616666667,
      "d": 232.55749999999898,
      "v": 74
    },
    {
      "midi": 69,
      "hit": false,
      "t": 12085.238083333335,
      "d": 232.55749999999898,
      "v": 74
    },
    {
      "midi": 70,
      "hit": false,
      "t": 12085.238083333335,
      "d": 232.55749999999898,
      "v": 74
    },
    {
      "midi": 74,
      "hit": false,
      "t": 12085.238083333335,
      "d": 232.55749999999898,
      "v": 74
    },
    {
      "midi": 43,
      "hit": false,
      "t": 12375.934958333335,
      "d": 58.139375000000655,
      "v": 64
    },
    {
      "midi": 72,
      "hit": false,
      "t": 12542.601166666669,
      "d": 220.9296250000025,
      "v": 84
    },
    {
      "midi": 64,
      "hit": false,
      "t": 12550.353083333335,
      "d": 217.05366666667032,
      "v": 84
    },
    {
      "midi": 67,
      "hit": false,
      "t": 12554.22904166667,
      "d": 182.1700416666681,
      "v": 84
    },
    {
      "midi": 69,
      "hit": false,
      "t": 12558.105000000003,
      "d": 193.79791666666824,
      "v": 84
    },
    {
      "midi": 72,
      "hit": false,
      "t": 12829.422083333338,
      "d": 62.01533333333464,
      "v": 53
    },
    {
      "midi": 64,
      "hit": false,
      "t": 12841.049958333339,
      "d": 62.01533333333464,
      "v": 54
    },
    {
      "midi": 67,
      "hit": false,
      "t": 12844.925916666672,
      "d": 62.01533333333464,
      "v": 54
    },
    {
      "midi": 69,
      "hit": false,
      "t": 12844.925916666672,
      "d": 62.01533333333464,
      "v": 54
    },
    {
      "midi": 38,
      "hit": false,
      "t": 12860.429750000007,
      "d": 124.03066666666746,
      "v": 81
    },
    {
      "midi": 31,
      "hit": false,
      "t": 12999.964250000008,
      "d": 201.54983333333257,
      "v": 87
    },
    {
      "midi": 38,
      "hit": false,
      "t": 13802.287625000008,
      "d": 50.38745833333269,
      "v": 64
    },
    {
      "midi": 65,
      "hit": false,
      "t": 13949.574041666674,
      "d": 189.92195833333244,
      "v": 88
    },
    {
      "midi": 74,
      "hit": false,
      "t": 13949.574041666674,
      "d": 213.1777083333327,
      "v": 89
    },
    {
      "midi": 69,
      "hit": false,
      "t": 13949.574041666674,
      "d": 217.0536666666667,
      "v": 89
    },
    {
      "midi": 70,
      "hit": false,
      "t": 13949.574041666674,
      "d": 217.0536666666667,
      "v": 88
    },
    {
      "midi": 69,
      "hit": false,
      "t": 14224.767083333341,
      "d": 120.15470833333166,
      "v": 64
    },
    {
      "midi": 74,
      "hit": false,
      "t": 14236.394958333341,
      "d": 120.15470833333166,
      "v": 64
    },
    {
      "midi": 65,
      "hit": false,
      "t": 14244.146875000008,
      "d": 62.01533333333282,
      "v": 64
    },
    {
      "midi": 70,
      "hit": false,
      "t": 14244.146875000008,
      "d": 62.01533333333282,
      "v": 45
    },
    {
      "midi": 70,
      "hit": false,
      "t": 14678.25420833334,
      "d": 104.65087500000118,
      "v": 49
    },
    {
      "midi": 74,
      "hit": false,
      "t": 14682.130166666673,
      "d": 104.65087500000118,
      "v": 50
    },
    {
      "midi": 65,
      "hit": false,
      "t": 14689.88208333334,
      "d": 69.76725000000079,
      "v": 49
    },
    {
      "midi": 69,
      "hit": false,
      "t": 14693.758041666673,
      "d": 81.39512500000092,
      "v": 50
    },
    {
      "midi": 43,
      "hit": false,
      "t": 15639.491875000007,
      "d": 81.3951249999991,
      "v": 65
    },
    {
      "midi": 67,
      "hit": false,
      "t": 15802.282125000005,
      "d": 298.4487916666676,
      "v": 89
    },
    {
      "midi": 76,
      "hit": false,
      "t": 15802.282125000005,
      "d": 341.08433333333414,
      "v": 89
    },
    {
      "midi": 45,
      "hit": false,
      "t": 15802.282125000005,
      "d": 383.7198750000007,
      "v": 89
    },
    {
      "midi": 72,
      "hit": false,
      "t": 15806.15808333334,
      "d": 306.20070833333375,
      "v": 89
    },
    {
      "midi": 46,
      "hit": false,
      "t": 16267.397125000005,
      "d": 356.58816666666644,
      "v": 90
    },
    {
      "midi": 69,
      "hit": false,
      "t": 16267.397125000005,
      "d": 364.3400833333344,
      "v": 89
    },
    {
      "midi": 77,
      "hit": false,
      "t": 16267.397125000005,
      "d": 406.97562500000095,
      "v": 89
    },
    {
      "midi": 74,
      "hit": false,
      "t": 16275.149041666671,
      "d": 375.96795833333454,
      "v": 89
    },
    {
      "midi": 70,
      "hit": false,
      "t": 17674.370000000006,
      "d": 244.18537500000457,
      "v": 41
    },
    {
      "midi": 74,
      "hit": false,
      "t": 17682.121916666674,
      "d": 228.68154166666864,
      "v": 41
    },
    {
      "midi": 65,
      "hit": false,
      "t": 17685.99787500001,
      "d": 186.0460000000021,
      "v": 41
    },
    {
      "midi": 69,
      "hit": false,
      "t": 17693.749791666676,
      "d": 201.5498333333344,
      "v": 41
    },
    {
      "midi": 70,
      "hit": false,
      "t": 17972.818791666676,
      "d": 112.40279166666733,
      "v": 54
    },
    {
      "midi": 69,
      "hit": false,
      "t": 17984.446666666674,
      "d": 93.02300000000105,
      "v": 54
    },
    {
      "midi": 74,
      "hit": false,
      "t": 17984.446666666674,
      "d": 108.52683333333698,
      "v": 54
    },
    {
      "midi": 65,
      "hit": false,
      "t": 17996.074541666672,
      "d": 73.64320833333477,
      "v": 54
    },
    {
      "midi": 74,
      "hit": false,
      "t": 18418.55400000001,
      "d": 108.52683333333698,
      "v": 64
    },
    {
      "midi": 69,
      "hit": false,
      "t": 18426.30591666668,
      "d": 81.39512500000274,
      "v": 64
    },
    {
      "midi": 70,
      "hit": false,
      "t": 18430.181875000013,
      "d": 93.02300000000105,
      "v": 64
    },
    {
      "midi": 65,
      "hit": false,
      "t": 18437.93379166668,
      "d": 62.01533333333282,
      "v": 64
    },
    {
      "midi": 74,
      "hit": false,
      "t": 19503.822333333348,
      "d": 131.7825833333336,
      "v": 64
    },
    {
      "midi": 70,
      "hit": false,
      "t": 19511.574250000016,
      "d": 93.02300000000105,
      "v": 64
    },
    {
      "midi": 65,
      "hit": false,
      "t": 19519.326166666684,
      "d": 104.65087499999936,
      "v": 64
    },
    {
      "midi": 69,
      "hit": false,
      "t": 19527.078083333352,
      "d": 89.14704166666343,
      "v": 64
    },
    {
      "midi": 72,
      "hit": false,
      "t": 19980.565208333348,
      "d": 220.92962500000067,
      "v": 64
    },
    {
      "midi": 64,
      "hit": false,
      "t": 19992.193083333346,
      "d": 217.05366666667032,
      "v": 64
    },
    {
      "midi": 67,
      "hit": false,
      "t": 19996.06904166668,
      "d": 182.1700416666681,
      "v": 64
    },
    {
      "midi": 69,
      "hit": false,
      "t": 19999.945000000014,
      "d": 193.79791666666642,
      "v": 64
    },
    {
      "midi": 72,
      "hit": false,
      "t": 20271.26208333335,
      "d": 228.681541666665,
      "v": 64
    },
    {
      "midi": 64,
      "hit": false,
      "t": 20282.889958333348,
      "d": 197.6738750000004,
      "v": 64
    },
    {
      "midi": 67,
      "hit": false,
      "t": 20286.76591666668,
      "d": 186.04599999999846,
      "v": 64
    },
    {
      "midi": 69,
      "hit": false,
      "t": 20286.76591666668,
      "d": 197.6738750000004,
      "v": 64
    },
    {
      "midi": 38,
      "hit": false,
      "t": 20302.269750000014,
      "d": 124.03066666666564,
      "v": 64
    },
    {
      "midi": 31,
      "hit": false,
      "t": 20441.804250000012,
      "d": 201.5498333333344,
      "v": 58
    },
    {
      "midi": 70,
      "hit": false,
      "t": 21368.15829166668,
      "d": 244.18537500000093,
      "v": 40
    },
    {
      "midi": 69,
      "hit": false,
      "t": 21372.034250000015,
      "d": 217.0536666666667,
      "v": 40
    },
    {
      "midi": 74,
      "hit": false,
      "t": 21379.786166666683,
      "d": 213.1777083333327,
      "v": 40
    },
    {
      "midi": 65,
      "hit": false,
      "t": 21391.41404166668,
      "d": 189.92195833333244,
      "v": 40
    },
    {
      "midi": 69,
      "hit": false,
      "t": 21666.607083333347,
      "d": 120.15470833333166,
      "v": 64
    },
    {
      "midi": 74,
      "hit": false,
      "t": 21678.234958333345,
      "d": 120.15470833333166,
      "v": 64
    },
    {
      "midi": 65,
      "hit": false,
      "t": 21685.986875000013,
      "d": 62.01533333333282,
      "v": 64
    },
    {
      "midi": 70,
      "hit": false,
      "t": 21685.986875000013,
      "d": 62.01533333333282,
      "v": 45
    },
    {
      "midi": 70,
      "hit": false,
      "t": 22120.094208333343,
      "d": 104.650875000003,
      "v": 64
    },
    {
      "midi": 74,
      "hit": false,
      "t": 22123.970166666677,
      "d": 104.650875000003,
      "v": 64
    },
    {
      "midi": 65,
      "hit": false,
      "t": 22131.722083333345,
      "d": 69.76725000000079,
      "v": 64
    },
    {
      "midi": 69,
      "hit": false,
      "t": 22135.59804166668,
      "d": 81.3951249999991,
      "v": 64
    },
    {
      "midi": 76,
      "hit": false,
      "t": 23236.37020833335,
      "d": 341.0843333333323,
      "v": 41
    },
    {
      "midi": 67,
      "hit": false,
      "t": 23244.122125000016,
      "d": 298.4487916666658,
      "v": 41
    },
    {
      "midi": 45,
      "hit": false,
      "t": 23244.122125000016,
      "d": 383.71987499999886,
      "v": 64
    },
    {
      "midi": 72,
      "hit": false,
      "t": 23247.99808333335,
      "d": 306.2007083333301,
      "v": 41
    },
    {
      "midi": 77,
      "hit": false,
      "t": 23693.733291666682,
      "d": 406.97562500000276,
      "v": 64
    },
    {
      "midi": 46,
      "hit": false,
      "t": 23709.237125000014,
      "d": 356.58816666666826,
      "v": 64
    },
    {
      "midi": 69,
      "hit": false,
      "t": 23709.237125000014,
      "d": 364.3400833333362,
      "v": 41
    },
    {
      "midi": 74,
      "hit": false,
      "t": 23716.989041666682,
      "d": 375.96795833333454,
      "v": 41
    },
    {
      "midi": 31,
      "hit": false,
      "t": 24209.235750000018,
      "d": 186.04599999999846,
      "v": 64
    },
    {
      "midi": 70,
      "hit": false,
      "t": 25116.210000000017,
      "d": 244.18537500000457,
      "v": 41
    },
    {
      "midi": 74,
      "hit": false,
      "t": 25123.961916666685,
      "d": 228.68154166666864,
      "v": 41
    },
    {
      "midi": 65,
      "hit": false,
      "t": 25127.83787500002,
      "d": 186.0460000000021,
      "v": 41
    },
    {
      "midi": 69,
      "hit": false,
      "t": 25135.589791666687,
      "d": 201.5498333333344,
      "v": 41
    },
    {
      "midi": 70,
      "hit": false,
      "t": 25414.658791666687,
      "d": 112.40279166666733,
      "v": 54
    },
    {
      "midi": 69,
      "hit": false,
      "t": 25426.286666666685,
      "d": 93.02300000000105,
      "v": 54
    },
    {
      "midi": 74,
      "hit": false,
      "t": 25426.286666666685,
      "d": 108.52683333333698,
      "v": 54
    },
    {
      "midi": 65,
      "hit": false,
      "t": 25437.914541666683,
      "d": 73.64320833333477,
      "v": 54
    },
    {
      "midi": 74,
      "hit": false,
      "t": 25860.394000000022,
      "d": 108.52683333333698,
      "v": 64
    },
    {
      "midi": 69,
      "hit": false,
      "t": 25868.14591666669,
      "d": 81.39512500000274,
      "v": 64
    },
    {
      "midi": 70,
      "hit": false,
      "t": 25872.021875000024,
      "d": 93.02300000000105,
      "v": 64
    },
    {
      "midi": 65,
      "hit": false,
      "t": 25879.773791666692,
      "d": 62.01533333333282,
      "v": 64
    },
    {
      "midi": 38,
      "hit": false,
      "t": 26813.879750000026,
      "d": 58.139374999998836,
      "v": 64
    },
    {
      "midi": 74,
      "hit": false,
      "t": 26945.66233333336,
      "d": 131.7825833333336,
      "v": 64
    },
    {
      "midi": 70,
      "hit": false,
      "t": 26953.414250000027,
      "d": 93.02300000000105,
      "v": 64
    },
    {
      "midi": 65,
      "hit": false,
      "t": 26961.166166666695,
      "d": 104.65087499999936,
      "v": 64
    },
    {
      "midi": 69,
      "hit": false,
      "t": 26968.918083333363,
      "d": 89.14704166666343,
      "v": 64
    },
    {
      "midi": 72,
      "hit": false,
      "t": 27422.40520833336,
      "d": 220.92962500000067,
      "v": 64
    },
    {
      "midi": 64,
      "hit": false,
      "t": 27434.033083333357,
      "d": 217.05366666667032,
      "v": 64
    },
    {
      "midi": 67,
      "hit": false,
      "t": 27437.90904166669,
      "d": 182.1700416666681,
      "v": 64
    },
    {
      "midi": 69,
      "hit": false,
      "t": 27441.785000000025,
      "d": 193.79791666666642,
      "v": 64
    },
    {
      "midi": 72,
      "hit": false,
      "t": 27713.10208333336,
      "d": 228.681541666665,
      "v": 64
    },
    {
      "midi": 64,
      "hit": false,
      "t": 27724.72995833336,
      "d": 197.6738750000004,
      "v": 64
    },
    {
      "midi": 67,
      "hit": false,
      "t": 27728.605916666693,
      "d": 186.04599999999846,
      "v": 64
    },
    {
      "midi": 69,
      "hit": false,
      "t": 27728.605916666693,
      "d": 197.6738750000004,
      "v": 64
    },
    {
      "midi": 38,
      "hit": false,
      "t": 27744.109750000025,
      "d": 124.03066666666564,
      "v": 64
    },
    {
      "midi": 31,
      "hit": false,
      "t": 27883.644250000023,
      "d": 201.5498333333344,
      "v": 58
    },
    {
      "midi": 70,
      "hit": false,
      "t": 28809.998291666692,
      "d": 244.18537500000093,
      "v": 40
    },
    {
      "midi": 69,
      "hit": false,
      "t": 28813.874250000026,
      "d": 217.0536666666667,
      "v": 40
    },
    {
      "midi": 74,
      "hit": false,
      "t": 28821.626166666694,
      "d": 213.1777083333327,
      "v": 40
    },
    {
      "midi": 65,
      "hit": false,
      "t": 28833.254041666693,
      "d": 189.92195833333244,
      "v": 40
    },
    {
      "midi": 69,
      "hit": false,
      "t": 29108.447083333358,
      "d": 120.15470833333166,
      "v": 64
    },
    {
      "midi": 74,
      "hit": false,
      "t": 29120.074958333356,
      "d": 120.15470833333166,
      "v": 64
    },
    {
      "midi": 65,
      "hit": false,
      "t": 29127.826875000024,
      "d": 62.01533333333282,
      "v": 64
    },
    {
      "midi": 70,
      "hit": false,
      "t": 29127.826875000024,
      "d": 62.01533333333282,
      "v": 45
    },
    {
      "midi": 70,
      "hit": false,
      "t": 29561.934208333354,
      "d": 104.650875000003,
      "v": 64
    },
    {
      "midi": 74,
      "hit": false,
      "t": 29565.810166666688,
      "d": 104.650875000003,
      "v": 64
    },
    {
      "midi": 65,
      "hit": false,
      "t": 29573.562083333356,
      "d": 69.76725000000079,
      "v": 64
    },
    {
      "midi": 69,
      "hit": false,
      "t": 29577.43804166669,
      "d": 81.3951249999991,
      "v": 64
    },
    {
      "midi": 76,
      "hit": false,
      "t": 30678.21020833336,
      "d": 341.0843333333323,
      "v": 82
    },
    {
      "midi": 67,
      "hit": false,
      "t": 30685.962125000027,
      "d": 298.4487916666658,
      "v": 82
    },
    {
      "midi": 72,
      "hit": false,
      "t": 30689.83808333336,
      "d": 306.2007083333301,
      "v": 82
    },
    {
      "midi": 45,
      "hit": false,
      "t": 30689.83808333336,
      "d": 383.7198749999952,
      "v": 82
    },
    {
      "midi": 46,
      "hit": false,
      "t": 31151.07712500002,
      "d": 356.58816666666826,
      "v": 80
    },
    {
      "midi": 69,
      "hit": false,
      "t": 31151.07712500002,
      "d": 364.3400833333362,
      "v": 86
    },
    {
      "midi": 77,
      "hit": false,
      "t": 31151.07712500002,
      "d": 406.97562500000276,
      "v": 87
    },
    {
      "midi": 74,
      "hit": false,
      "t": 31158.82904166669,
      "d": 375.96795833333454,
      "v": 86
    },
    {
      "midi": 62,
      "hit": false,
      "t": 31627.820000000025,
      "d": 1565.8871666666637,
      "v": 64
    },
    {
      "midi": 58,
      "hit": false,
      "t": 31627.820000000025,
      "d": 1596.8948333333283,
      "v": 64
    },
    {
      "midi": 65,
      "hit": false,
      "t": 31627.820000000025,
      "d": 1608.5227083333266,
      "v": 64
    },
    {
      "midi": 55,
      "hit": false,
      "t": 31627.820000000025,
      "d": 1627.9024999999929,
      "v": 64
    },
    {
      "midi": 39,
      "hit": false,
      "t": 31627.820000000025,
      "d": 1635.6544166666608,
      "v": 64
    },
    {
      "midi": 46,
      "hit": false,
      "t": 33488.28000000002,
      "d": 1441.8565000000017,
      "v": 64
    },
    {
      "midi": 58,
      "hit": false,
      "t": 33499.90787500002,
      "d": 1503.8718333333309,
      "v": 64
    },
    {
      "midi": 62,
      "hit": false,
      "t": 33507.65979166669,
      "d": 1511.6237499999988,
      "v": 64
    },
    {
      "midi": 57,
      "hit": false,
      "t": 33515.411708333355,
      "d": 1484.4920416666646,
      "v": 64
    },
    {
      "midi": 65,
      "hit": false,
      "t": 33527.03958333335,
      "d": 1507.7477916666685,
      "v": 64
    },
    {
      "midi": 39,
      "hit": false,
      "t": 35352.61595833336,
      "d": 1674.4139999999898,
      "v": 64
    },
    {
      "midi": 58,
      "hit": false,
      "t": 35364.243833333356,
      "d": 1639.5303749999948,
      "v": 64
    },
    {
      "midi": 62,
      "hit": false,
      "t": 35368.119791666686,
      "d": 1662.7861249999914,
      "v": 64
    },
    {
      "midi": 65,
      "hit": false,
      "t": 35379.747666666684,
      "d": 1643.4063333333324,
      "v": 64
    },
    {
      "midi": 55,
      "hit": false,
      "t": 35395.25150000002,
      "d": 1643.4063333333252,
      "v": 64
    },
    {
      "midi": 46,
      "hit": false,
      "t": 37201.448083333344,
      "d": 1507.7477916666685,
      "v": 64
    },
    {
      "midi": 57,
      "hit": false,
      "t": 37216.95191666668,
      "d": 1496.119916666663,
      "v": 64
    },
    {
      "midi": 58,
      "hit": false,
      "t": 37216.95191666668,
      "d": 1531.0035416666651,
      "v": 64
    },
    {
      "midi": 62,
      "hit": false,
      "t": 37240.207666666676,
      "d": 1480.6160833333342,
      "v": 64
    },
    {
      "midi": 65,
      "hit": false,
      "t": 37240.207666666676,
      "d": 1511.6237499999988,
      "v": 64
    },
    {
      "midi": 39,
      "hit": false,
      "t": 39061.90808333334,
      "d": 643.4090833333248,
      "v": 64
    },
    {
      "midi": 65,
      "hit": false,
      "t": 39065.78404166667,
      "d": 627.9052499999962,
      "v": 64
    },
    {
      "midi": 55,
      "hit": false,
      "t": 39077.41191666667,
      "d": 635.6571666666641,
      "v": 64
    },
    {
      "midi": 58,
      "hit": false,
      "t": 39081.287875,
      "d": 585.2697083333333,
      "v": 64
    },
    {
      "midi": 62,
      "hit": false,
      "t": 39092.91575,
      "d": 538.7582083333327,
      "v": 64
    },
    {
      "midi": 38,
      "hit": false,
      "t": 39999.89,
      "d": 689.9205833333253,
      "v": 64
    },
    {
      "midi": 54,
      "hit": false,
      "t": 40007.64191666667,
      "d": 658.9129166666607,
      "v": 64
    },
    {
      "midi": 60,
      "hit": false,
      "t": 40011.517875,
      "d": 620.1533333333282,
      "v": 64
    },
    {
      "midi": 57,
      "hit": false,
      "t": 40027.021708333334,
      "d": 573.6418333333277,
      "v": 64
    },
    {
      "midi": 65,
      "hit": false,
      "t": 40030.897666666664,
      "d": 620.1533333333282,
      "v": 64
    },
    {
      "midi": 43,
      "hit": false,
      "t": 40895.23637499999,
      "d": 527.1303333333344,
      "v": 64
    },
    {
      "midi": 58,
      "hit": false,
      "t": 40910.74020833333,
      "d": 674.4167499999967,
      "v": 64
    },
    {
      "midi": 55,
      "hit": false,
      "t": 40922.36808333333,
      "d": 705.4244166666613,
      "v": 64
    },
    {
      "midi": 62,
      "hit": false,
      "t": 40926.24404166666,
      "d": 682.1686666666646,
      "v": 64
    },
    {
      "midi": 65,
      "hit": false,
      "t": 40941.747874999994,
      "d": 678.292708333327,
      "v": 64
    },
    {
      "midi": 44,
      "hit": false,
      "t": 41829.34233333332,
      "d": 748.0599583333315,
      "v": 64
    },
    {
      "midi": 54,
      "hit": false,
      "t": 41844.846166666655,
      "d": 767.4397499999977,
      "v": 64
    },
    {
      "midi": 60,
      "hit": false,
      "t": 41856.474041666654,
      "d": 782.9435833333337,
      "v": 64
    },
    {
      "midi": 62,
      "hit": false,
      "t": 41860.349999999984,
      "d": 786.8195416666713,
      "v": 64
    },
    {
      "midi": 65,
      "hit": false,
      "t": 41879.72979166665,
      "d": 786.8195416666713,
      "v": 64
    },
    {
      "midi": 43,
      "hit": false,
      "t": 42817.71170833332,
      "d": 251.9372916666689,
      "v": 64
    },
    {
      "midi": 70,
      "hit": false,
      "t": 43732.43787499999,
      "d": 267.4411249999903,
      "v": 64
    },
    {
      "midi": 65,
      "hit": false,
      "t": 43744.06574999999,
      "d": 232.55749999999534,
      "v": 86
    },
    {
      "midi": 69,
      "hit": false,
      "t": 43747.94170833332,
      "d": 232.55749999999534,
      "v": 86
    },
    {
      "midi": 74,
      "hit": false,
      "t": 43755.693624999985,
      "d": 248.061333333324,
      "v": 86
    },
    {
      "midi": 69,
      "hit": false,
      "t": 44042.51454166664,
      "d": 96.8989583333314,
      "v": 64
    },
    {
      "midi": 70,
      "hit": false,
      "t": 44046.39049999997,
      "d": 108.52683333333698,
      "v": 64
    },
    {
      "midi": 74,
      "hit": false,
      "t": 44061.89433333331,
      "d": 104.65087499999936,
      "v": 64
    },
    {
      "midi": 65,
      "hit": false,
      "t": 44065.77029166664,
      "d": 65.8912916666668,
      "v": 64
    },
    {
      "midi": 70,
      "hit": false,
      "t": 44476.621874999975,
      "d": 112.4027916666746,
      "v": 48
    },
    {
      "midi": 65,
      "hit": false,
      "t": 44484.37379166664,
      "d": 73.64320833333477,
      "v": 50
    },
    {
      "midi": 69,
      "hit": false,
      "t": 44488.24974999997,
      "d": 77.51916666667239,
      "v": 49
    },
    {
      "midi": 74,
      "hit": false,
      "t": 44496.00166666664,
      "d": 85.27108333334036,
      "v": 46
    },
    {
      "midi": 60,
      "hit": false,
      "t": 45550.26233333332,
      "d": 434.1073333333261,
      "v": 64
    },
    {
      "midi": 55,
      "hit": false,
      "t": 45561.890208333316,
      "d": 391.4717916666632,
      "v": 64
    },
    {
      "midi": 64,
      "hit": false,
      "t": 45569.642124999984,
      "d": 395.34774999999354,
      "v": 64
    },
    {
      "midi": 45,
      "hit": false,
      "t": 45581.26999999998,
      "d": 348.8362500000003,
      "v": 64
    },
    {
      "midi": 46,
      "hit": false,
      "t": 46046.38499999998,
      "d": 383.7198750000025,
      "v": 64
    },
    {
      "midi": 57,
      "hit": false,
      "t": 46061.888833333316,
      "d": 391.4717916666632,
      "v": 64
    },
    {
      "midi": 62,
      "hit": false,
      "t": 46061.888833333316,
      "d": 399.22370833333116,
      "v": 64
    },
    {
      "midi": 65,
      "hit": false,
      "t": 46077.39266666665,
      "d": 399.22370833333116,
      "v": 64
    },
    {
      "midi": 62,
      "hit": false,
      "t": 46511.499999999985,
      "d": 1565.8871666666673,
      "v": 64
    },
    {
      "midi": 58,
      "hit": false,
      "t": 46511.499999999985,
      "d": 1596.894833333332,
      "v": 64
    },
    {
      "midi": 65,
      "hit": false,
      "t": 46511.499999999985,
      "d": 1608.5227083333302,
      "v": 64
    },
    {
      "midi": 55,
      "hit": false,
      "t": 46511.499999999985,
      "d": 1627.9024999999965,
      "v": 64
    },
    {
      "midi": 39,
      "hit": false,
      "t": 46511.499999999985,
      "d": 1635.6544166666645,
      "v": 64
    },
    {
      "midi": 46,
      "hit": false,
      "t": 48371.959999999985,
      "d": 1441.8565000000017,
      "v": 64
    },
    {
      "midi": 58,
      "hit": false,
      "t": 48383.58787499998,
      "d": 1503.8718333333309,
      "v": 64
    },
    {
      "midi": 62,
      "hit": false,
      "t": 48391.33979166665,
      "d": 1511.6237499999988,
      "v": 64
    },
    {
      "midi": 57,
      "hit": false,
      "t": 48399.09170833332,
      "d": 1484.4920416666646,
      "v": 64
    },
    {
      "midi": 65,
      "hit": false,
      "t": 48410.71958333332,
      "d": 1507.7477916666685,
      "v": 64
    },
    {
      "midi": 39,
      "hit": false,
      "t": 50236.29595833332,
      "d": 1674.4139999999898,
      "v": 64
    },
    {
      "midi": 58,
      "hit": false,
      "t": 50247.92383333332,
      "d": 1639.5303749999948,
      "v": 64
    },
    {
      "midi": 62,
      "hit": false,
      "t": 50251.79979166665,
      "d": 1662.7861249999914,
      "v": 64
    },
    {
      "midi": 65,
      "hit": false,
      "t": 50263.42766666665,
      "d": 1643.4063333333324,
      "v": 64
    },
    {
      "midi": 55,
      "hit": false,
      "t": 50278.931499999984,
      "d": 1643.4063333333252,
      "v": 64
    },
    {
      "midi": 46,
      "hit": false,
      "t": 52085.12808333331,
      "d": 1507.7477916666685,
      "v": 64
    },
    {
      "midi": 57,
      "hit": false,
      "t": 52100.63191666664,
      "d": 1496.119916666663,
      "v": 64
    },
    {
      "midi": 58,
      "hit": false,
      "t": 52100.63191666664,
      "d": 1531.0035416666651,
      "v": 64
    },
    {
      "midi": 62,
      "hit": false,
      "t": 52123.88766666664,
      "d": 1480.6160833333342,
      "v": 64
    },
    {
      "midi": 65,
      "hit": false,
      "t": 52123.88766666664,
      "d": 1511.6237499999988,
      "v": 64
    },
    {
      "midi": 39,
      "hit": false,
      "t": 53945.58808333331,
      "d": 643.4090833333248,
      "v": 64
    },
    {
      "midi": 65,
      "hit": false,
      "t": 53949.46404166664,
      "d": 627.9052499999962,
      "v": 64
    },
    {
      "midi": 55,
      "hit": false,
      "t": 53961.091916666635,
      "d": 635.6571666666641,
      "v": 64
    },
    {
      "midi": 58,
      "hit": false,
      "t": 53964.967874999966,
      "d": 585.2697083333333,
      "v": 64
    },
    {
      "midi": 62,
      "hit": false,
      "t": 53976.595749999964,
      "d": 538.7582083333327,
      "v": 64
    },
    {
      "midi": 38,
      "hit": false,
      "t": 54883.56999999996,
      "d": 689.9205833333253,
      "v": 64
    },
    {
      "midi": 54,
      "hit": false,
      "t": 54891.32191666663,
      "d": 658.9129166666607,
      "v": 64
    },
    {
      "midi": 60,
      "hit": false,
      "t": 54895.19787499996,
      "d": 620.1533333333282,
      "v": 64
    },
    {
      "midi": 57,
      "hit": false,
      "t": 54910.7017083333,
      "d": 573.6418333333277,
      "v": 64
    },
    {
      "midi": 65,
      "hit": false,
      "t": 54914.57766666663,
      "d": 620.1533333333282,
      "v": 64
    },
    {
      "midi": 43,
      "hit": false,
      "t": 55778.91637499996,
      "d": 527.1303333333344,
      "v": 64
    },
    {
      "midi": 58,
      "hit": false,
      "t": 55794.42020833329,
      "d": 674.4167499999967,
      "v": 64
    },
    {
      "midi": 55,
      "hit": false,
      "t": 55806.04808333329,
      "d": 705.4244166666613,
      "v": 64
    },
    {
      "midi": 62,
      "hit": false,
      "t": 55809.92404166662,
      "d": 682.1686666666646,
      "v": 64
    },
    {
      "midi": 65,
      "hit": false,
      "t": 55825.42787499996,
      "d": 678.292708333327,
      "v": 64
    },
    {
      "midi": 44,
      "hit": false,
      "t": 56713.02233333328,
      "d": 748.0599583333315,
      "v": 64
    },
    {
      "midi": 54,
      "hit": false,
      "t": 56728.52616666662,
      "d": 767.4397499999977,
      "v": 64
    },
    {
      "midi": 60,
      "hit": false,
      "t": 56740.15404166662,
      "d": 782.9435833333337,
      "v": 64
    },
    {
      "midi": 62,
      "hit": false,
      "t": 56744.02999999995,
      "d": 786.8195416666713,
      "v": 64
    },
    {
      "midi": 65,
      "hit": false,
      "t": 56763.409791666614,
      "d": 786.8195416666713,
      "v": 64
    },
    {
      "midi": 43,
      "hit": false,
      "t": 57701.391708333285,
      "d": 251.9372916666689,
      "v": 64
    },
    {
      "midi": 70,
      "hit": false,
      "t": 58119.99520833329,
      "d": 205.42579166666837,
      "v": 64
    },
    {
      "midi": 65,
      "hit": false,
      "t": 58131.62308333329,
      "d": 217.0536666666667,
      "v": 64
    },
    {
      "midi": 67,
      "hit": false,
      "t": 58604.489999999954,
      "d": 267.44112500000483,
      "v": 64
    },
    {
      "midi": 62,
      "hit": false,
      "t": 58612.24191666662,
      "d": 294.5728333333391,
      "v": 64
    },
    {
      "midi": 65,
      "hit": false,
      "t": 59069.60499999996,
      "d": 224.80558333333465,
      "v": 64
    },
    {
      "midi": 60,
      "hit": false,
      "t": 59073.48095833329,
      "d": 186.0460000000021,
      "v": 64
    },
    {
      "midi": 67,
      "hit": false,
      "t": 59395.18549999996,
      "d": 810.0752916666679,
      "v": 64
    },
    {
      "midi": 62,
      "hit": false,
      "t": 59406.81337499996,
      "d": 779.0676250000033,
      "v": 64
    },
    {
      "midi": 58,
      "hit": false,
      "t": 60468.8259583333,
      "d": 344.96029166666267,
      "v": 64
    },
    {
      "midi": 62,
      "hit": false,
      "t": 60476.577874999966,
      "d": 337.2083749999947,
      "v": 64
    },
    {
      "midi": 43,
      "hit": false,
      "t": 60488.205749999965,
      "d": 306.2007083333301,
      "v": 64
    },
    {
      "midi": 50,
      "hit": false,
      "t": 60492.081708333295,
      "d": 275.1930416666655,
      "v": 64
    },
    {
      "midi": 46,
      "hit": false,
      "t": 60926.18904166663,
      "d": 406.9756249999991,
      "v": 64
    },
    {
      "midi": 53,
      "hit": false,
      "t": 60930.06499999996,
      "d": 410.85158333333675,
      "v": 64
    },
    {
      "midi": 58,
      "hit": false,
      "t": 60945.568833333295,
      "d": 379.8439166666649,
      "v": 64
    },
    {
      "midi": 62,
      "hit": false,
      "t": 60949.444791666625,
      "d": 414.7275416666671,
      "v": 64
    },
    {
      "midi": 36,
      "hit": false,
      "t": 61395.17999999996,
      "d": 3209.2934999999925,
      "v": 77
    },
    {
      "midi": 48,
      "hit": false,
      "t": 61395.17999999996,
      "d": 3275.1847916666593,
      "v": 77
    },
    {
      "midi": 70,
      "hit": false,
      "t": 63096.72570833329,
      "d": 461.2390416666676,
      "v": 64
    },
    {
      "midi": 75,
      "hit": false,
      "t": 63096.72570833329,
      "d": 461.2390416666676,
      "v": 64
    },
    {
      "midi": 79,
      "hit": false,
      "t": 63096.72570833329,
      "d": 461.2390416666676,
      "v": 64
    },
    {
      "midi": 77,
      "hit": false,
      "t": 63720.754999999954,
      "d": 189.92195833333244,
      "v": 64
    },
    {
      "midi": 74,
      "hit": false,
      "t": 63720.754999999954,
      "d": 248.06133333333128,
      "v": 64
    },
    {
      "midi": 69,
      "hit": false,
      "t": 63720.754999999954,
      "d": 259.6892083333296,
      "v": 64
    },
    {
      "midi": 75,
      "hit": false,
      "t": 64185.86999999995,
      "d": 263.5651666666672,
      "v": 64
    },
    {
      "midi": 72,
      "hit": false,
      "t": 64185.86999999995,
      "d": 298.4487916666694,
      "v": 64
    },
    {
      "midi": 67,
      "hit": false,
      "t": 64185.86999999995,
      "d": 321.70454166666605,
      "v": 64
    },
    {
      "midi": 70,
      "hit": false,
      "t": 64650.98499999995,
      "d": 178.29408333333413,
      "v": 64
    },
    {
      "midi": 74,
      "hit": false,
      "t": 64650.98499999995,
      "d": 220.9296250000043,
      "v": 64
    },
    {
      "midi": 65,
      "hit": false,
      "t": 64650.98499999995,
      "d": 251.9372916666689,
      "v": 64
    },
    {
      "midi": 70,
      "hit": false,
      "t": 65116.099999999955,
      "d": 957.3617083333302,
      "v": 64
    },
    {
      "midi": 74,
      "hit": false,
      "t": 65116.099999999955,
      "d": 961.2376666666605,
      "v": 64
    },
    {
      "midi": 77,
      "hit": false,
      "t": 65116.099999999955,
      "d": 961.2376666666605,
      "v": 64
    },
    {
      "midi": 50,
      "hit": false,
      "t": 65116.099999999955,
      "d": 1023.2529999999897,
      "v": 74
    },
    {
      "midi": 43,
      "hit": false,
      "t": 65119.975958333285,
      "d": 1023.2529999999897,
      "v": 76
    },
    {
      "midi": 69,
      "hit": false,
      "t": 66511.44499999993,
      "d": 217.0536666666594,
      "v": 86
    },
    {
      "midi": 74,
      "hit": false,
      "t": 66511.44499999993,
      "d": 232.55749999999534,
      "v": 86
    },
    {
      "midi": 70,
      "hit": false,
      "t": 66515.32095833326,
      "d": 228.681541666665,
      "v": 86
    },
    {
      "midi": 77,
      "hit": false,
      "t": 66515.32095833326,
      "d": 228.681541666665,
      "v": 86
    },
    {
      "midi": 77,
      "hit": false,
      "t": 66833.1495416666,
      "d": 158.91429166666057,
      "v": 50
    },
    {
      "midi": 69,
      "hit": false,
      "t": 66844.7774166666,
      "d": 127.90662500000326,
      "v": 50
    },
    {
      "midi": 70,
      "hit": false,
      "t": 66864.15720833327,
      "d": 112.40279166666733,
      "v": 50
    },
    {
      "midi": 74,
      "hit": false,
      "t": 66864.15720833327,
      "d": 120.15470833332802,
      "v": 50
    },
    {
      "midi": 38,
      "hit": false,
      "t": 67321.52029166659,
      "d": 104.65087500000664,
      "v": 65
    },
    {
      "midi": 57,
      "hit": false,
      "t": 67658.72866666659,
      "d": 139.5344999999943,
      "v": 64
    },
    {
      "midi": 58,
      "hit": false,
      "t": 67771.13145833326,
      "d": 170.5421666666516,
      "v": 64
    },
    {
      "midi": 50,
      "hit": false,
      "t": 67895.16212499992,
      "d": 317.82858333332115,
      "v": 77
    },
    {
      "midi": 43,
      "hit": false,
      "t": 67899.03808333325,
      "d": 313.9526249999908,
      "v": 77
    },
    {
      "midi": 57,
      "hit": false,
      "t": 67902.91404166658,
      "d": 511.6264999999985,
      "v": 64
    },
    {
      "midi": 46,
      "hit": false,
      "t": 68364.15308333324,
      "d": 282.94495833334804,
      "v": 77
    },
    {
      "midi": 53,
      "hit": false,
      "t": 68375.78095833324,
      "d": 240.3094166666706,
      "v": 77
    },
    {
      "midi": 36,
      "hit": false,
      "t": 68837.01999999992,
      "d": 3457.3548333333456,
      "v": 74
    },
    {
      "midi": 48,
      "hit": false,
      "t": 68837.01999999992,
      "d": 3527.12208333335,
      "v": 74
    },
    {
      "midi": 67,
      "hit": false,
      "t": 70542.44166666658,
      "d": 387.5958333333401,
      "v": 64
    },
    {
      "midi": 70,
      "hit": false,
      "t": 70542.44166666658,
      "d": 387.5958333333401,
      "v": 64
    },
    {
      "midi": 63,
      "hit": false,
      "t": 70542.44166666658,
      "d": 414.7275416666671,
      "v": 64
    },
    {
      "midi": 69,
      "hit": false,
      "t": 71162.59499999991,
      "d": 298.4487916666694,
      "v": 64
    },
    {
      "midi": 65,
      "hit": false,
      "t": 71162.59499999991,
      "d": 321.70454166666605,
      "v": 64
    },
    {
      "midi": 62,
      "hit": false,
      "t": 71162.59499999991,
      "d": 360.4641249999986,
      "v": 64
    },
    {
      "midi": 67,
      "hit": false,
      "t": 71627.70999999992,
      "d": 263.5651666666672,
      "v": 64
    },
    {
      "midi": 60,
      "hit": false,
      "t": 71627.70999999992,
      "d": 267.44112499999756,
      "v": 64
    },
    {
      "midi": 63,
      "hit": false,
      "t": 71627.70999999992,
      "d": 356.58816666666826,
      "v": 64
    },
    {
      "midi": 62,
      "hit": false,
      "t": 72092.82499999992,
      "d": 232.5575000000099,
      "v": 64
    },
    {
      "midi": 65,
      "hit": false,
      "t": 72092.82499999992,
      "d": 255.81325000000652,
      "v": 64
    },
    {
      "midi": 58,
      "hit": false,
      "t": 72092.82499999992,
      "d": 271.31708333334245,
      "v": 64
    },
    {
      "midi": 62,
      "hit": false,
      "t": 72557.93999999993,
      "d": 968.9895833333285,
      "v": 75
    },
    {
      "midi": 60,
      "hit": false,
      "t": 72557.93999999993,
      "d": 999.9972500000003,
      "v": 75
    },
    {
      "midi": 65,
      "hit": false,
      "t": 72557.93999999993,
      "d": 1011.6251250000059,
      "v": 76
    },
    {
      "midi": 69,
      "hit": false,
      "t": 72557.93999999993,
      "d": 1023.2530000000115,
      "v": 75
    },
    {
      "midi": 50,
      "hit": false,
      "t": 72557.93999999993,
      "d": 1259.6864583333518,
      "v": 75
    },
    {
      "midi": 38,
      "hit": false,
      "t": 72557.93999999993,
      "d": 1271.3143333333574,
      "v": 75
    },
    {
      "midi": 69,
      "hit": false,
      "t": 73953.28499999996,
      "d": 220.9296250000043,
      "v": 92
    },
    {
      "midi": 67,
      "hit": false,
      "t": 73953.28499999996,
      "d": 240.3094166666706,
      "v": 92
    },
    {
      "midi": 72,
      "hit": false,
      "t": 73953.28499999996,
      "d": 240.3094166666706,
      "v": 92
    },
    {
      "midi": 77,
      "hit": false,
      "t": 73953.28499999996,
      "d": 275.1930416666728,
      "v": 92
    },
    {
      "midi": 72,
      "hit": false,
      "t": 74259.4857083333,
      "d": 96.89895833331684,
      "v": 64
    },
    {
      "midi": 77,
      "hit": false,
      "t": 74263.36166666663,
      "d": 116.27874999998312,
      "v": 64
    },
    {
      "midi": 69,
      "hit": false,
      "t": 74267.23762499997,
      "d": 62.01533333332918,
      "v": 64
    },
    {
      "midi": 67,
      "hit": false,
      "t": 74267.23762499997,
      "d": 69.76724999998987,
      "v": 64
    },
    {
      "midi": 38,
      "hit": false,
      "t": 75333.12616666663,
      "d": 841.0829583333543,
      "v": 64
    },
    {
      "midi": 50,
      "hit": false,
      "t": 75348.62999999996,
      "d": 806.1993333333521,
      "v": 64
    },
    {
      "midi": 57,
      "hit": false,
      "t": 75364.1338333333,
      "d": 325.5804999999964,
      "v": 64
    },
    {
      "midi": 60,
      "hit": false,
      "t": 75371.88574999996,
      "d": 317.8285833333357,
      "v": 64
    },
    {
      "midi": 65,
      "hit": false,
      "t": 75375.76170833329,
      "d": 344.9602916666772,
      "v": 64
    },
    {
      "midi": 65,
      "hit": false,
      "t": 75829.2488333333,
      "d": 372.09200000001874,
      "v": 64
    },
    {
      "midi": 60,
      "hit": false,
      "t": 75840.87670833331,
      "d": 344.9602916666772,
      "v": 64
    },
    {
      "midi": 69,
      "hit": false,
      "t": 75840.87670833331,
      "d": 379.84391666667943,
      "v": 64
    },
    {
      "midi": 36,
      "hit": false,
      "t": 76278.85999999999,
      "d": 3263.5569166666683,
      "v": 74
    },
    {
      "midi": 48,
      "hit": false,
      "t": 76278.85999999999,
      "d": 3306.192458333331,
      "v": 73
    },
    {
      "midi": 67,
      "hit": false,
      "t": 77984.28166666665,
      "d": 313.95262500000536,
      "v": 64
    },
    {
      "midi": 58,
      "hit": false,
      "t": 77984.28166666665,
      "d": 348.83625000000757,
      "v": 64
    },
    {
      "midi": 63,
      "hit": false,
      "t": 77984.28166666665,
      "d": 348.83625000000757,
      "v": 64
    },
    {
      "midi": 57,
      "hit": false,
      "t": 78604.43499999998,
      "d": 282.9449583333335,
      "v": 64
    },
    {
      "midi": 65,
      "hit": false,
      "t": 78604.43499999998,
      "d": 313.95262500000536,
      "v": 64
    },
    {
      "midi": 62,
      "hit": false,
      "t": 78604.43499999998,
      "d": 321.70454166666605,
      "v": 64
    },
    {
      "midi": 63,
      "hit": false,
      "t": 79069.54999999999,
      "d": 259.68920833333686,
      "v": 64
    },
    {
      "midi": 55,
      "hit": false,
      "t": 79069.54999999999,
      "d": 271.31708333334245,
      "v": 64
    },
    {
      "midi": 60,
      "hit": false,
      "t": 79069.54999999999,
      "d": 271.31708333334245,
      "v": 64
    },
    {
      "midi": 53,
      "hit": false,
      "t": 79534.665,
      "d": 189.9219583333179,
      "v": 64
    },
    {
      "midi": 58,
      "hit": false,
      "t": 79534.665,
      "d": 213.1777083333145,
      "v": 64
    },
    {
      "midi": 62,
      "hit": false,
      "t": 79534.665,
      "d": 232.5574999999808,
      "v": 64
    },
    {
      "midi": 58,
      "hit": false,
      "t": 79844.74166666664,
      "d": 872.0906249999971,
      "v": 74
    },
    {
      "midi": 57,
      "hit": false,
      "t": 79844.74166666664,
      "d": 891.4704166666634,
      "v": 72
    },
    {
      "midi": 65,
      "hit": false,
      "t": 79844.74166666664,
      "d": 903.098291666669,
      "v": 64
    },
    {
      "midi": 62,
      "hit": false,
      "t": 79844.74166666664,
      "d": 910.8502083333296,
      "v": 64
    },
    {
      "midi": 46,
      "hit": false,
      "t": 79844.74166666664,
      "d": 984.4934166666644,
      "v": 73
    },
    {
      "midi": 74,
      "hit": false,
      "t": 81395.12499999997,
      "d": 217.0536666666594,
      "v": 86
    },
    {
      "midi": 70,
      "hit": false,
      "t": 81395.12499999997,
      "d": 232.55749999999534,
      "v": 86
    },
    {
      "midi": 77,
      "hit": false,
      "t": 81395.12499999997,
      "d": 236.4334583333257,
      "v": 86
    },
    {
      "midi": 69,
      "hit": false,
      "t": 81395.12499999997,
      "d": 255.81324999999197,
      "v": 86
    },
    {
      "midi": 77,
      "hit": false,
      "t": 81701.3257083333,
      "d": 124.03066666665836,
      "v": 59
    },
    {
      "midi": 74,
      "hit": false,
      "t": 81701.3257083333,
      "d": 131.78258333331905,
      "v": 59
    },
    {
      "midi": 70,
      "hit": false,
      "t": 81701.3257083333,
      "d": 143.4104583333101,
      "v": 58
    },
    {
      "midi": 69,
      "hit": false,
      "t": 81705.20166666663,
      "d": 131.78258333331905,
      "v": 59
    },
    {
      "midi": 65,
      "hit": false,
      "t": 84181.93904166661,
      "d": 635.6571666666714,
      "v": 76
    },
    {
      "midi": 63,
      "hit": false,
      "t": 84957.13070833328,
      "d": 492.2467083333322,
      "v": 82
    },
    {
      "midi": 62,
      "hit": false,
      "t": 85581.15999999995,
      "d": 577.5177916666726,
      "v": 82
    },
    {
      "midi": 60,
      "hit": false,
      "t": 86352.47570833328,
      "d": 186.0460000000021,
      "v": 85
    },
    {
      "midi": 58,
      "hit": false,
      "t": 86817.59070833329,
      "d": 147.28641666666954,
      "v": 87
    },
    {
      "midi": 57,
      "hit": false,
      "t": 86976.50499999996,
      "d": 426.3554166666727,
      "v": 86
    },
    {
      "midi": 67,
      "hit": false,
      "t": 87906.73499999997,
      "d": 461.23904166666034,
      "v": 64
    },
    {
      "midi": 58,
      "hit": false,
      "t": 87906.73499999997,
      "d": 484.49479166665697,
      "v": 70
    },
    {
      "midi": 69,
      "hit": false,
      "t": 88678.05070833329,
      "d": 457.36308333333,
      "v": 64
    },
    {
      "midi": 60,
      "hit": false,
      "t": 88678.05070833329,
      "d": 488.37075000000186,
      "v": 64
    },
    {
      "midi": 70,
      "hit": false,
      "t": 89302.07999999996,
      "d": 480.6188333333266,
      "v": 64
    },
    {
      "midi": 62,
      "hit": false,
      "t": 89302.07999999996,
      "d": 499.9986249999929,
      "v": 64
    },
    {
      "midi": 69,
      "hit": false,
      "t": 90073.39570833328,
      "d": 112.40279166666733,
      "v": 64
    },
    {
      "midi": 60,
      "hit": false,
      "t": 90073.39570833328,
      "d": 116.27874999999767,
      "v": 64
    },
    {
      "midi": 57,
      "hit": false,
      "t": 90538.51070833327,
      "d": 100.77491666666174,
      "v": 64
    },
    {
      "midi": 65,
      "hit": false,
      "t": 90538.51070833327,
      "d": 104.65087499999208,
      "v": 64
    },
    {
      "midi": 58,
      "hit": false,
      "t": 90697.42499999993,
      "d": 465.11500000000524,
      "v": 64
    },
    {
      "midi": 67,
      "hit": false,
      "t": 90697.42499999993,
      "d": 465.11500000000524,
      "v": 64
    },
    {
      "midi": 53,
      "hit": false,
      "t": 91162.53999999994,
      "d": 1395.3449999999866,
      "v": 30
    },
    {
      "midi": 55,
      "hit": false,
      "t": 91162.53999999994,
      "d": 1395.3449999999866,
      "v": 30
    },
    {
      "midi": 60,
      "hit": false,
      "t": 91162.53999999994,
      "d": 1395.3449999999866,
      "v": 30
    },
    {
      "midi": 65,
      "hit": false,
      "t": 92088.8940416666,
      "d": 151.16237499999988,
      "v": 87
    },
    {
      "midi": 69,
      "hit": false,
      "t": 92088.8940416666,
      "d": 155.03833333333023,
      "v": 88
    },
    {
      "midi": 74,
      "hit": false,
      "t": 92088.8940416666,
      "d": 209.30174999999872,
      "v": 88
    },
    {
      "midi": 70,
      "hit": false,
      "t": 92092.76999999993,
      "d": 162.79025000000547,
      "v": 88
    },
    {
      "midi": 69,
      "hit": false,
      "t": 92398.97070833326,
      "d": 77.51916666666511,
      "v": 54
    },
    {
      "midi": 70,
      "hit": false,
      "t": 92398.97070833326,
      "d": 100.77491666666174,
      "v": 53
    },
    {
      "midi": 74,
      "hit": false,
      "t": 92398.97070833326,
      "d": 124.03066666665836,
      "v": 54
    },
    {
      "midi": 65,
      "hit": false,
      "t": 92402.84666666659,
      "d": 58.139374999998836,
      "v": 54
    },
    {
      "midi": 69,
      "hit": false,
      "t": 92864.08570833325,
      "d": 62.01533333332918,
      "v": 40
    },
    {
      "midi": 65,
      "hit": false,
      "t": 92864.08570833325,
      "d": 65.89129166665953,
      "v": 40
    },
    {
      "midi": 74,
      "hit": false,
      "t": 92864.08570833325,
      "d": 89.14704166665615,
      "v": 37
    },
    {
      "midi": 70,
      "hit": false,
      "t": 92887.34145833325,
      "d": 77.51916666666511,
      "v": 64
    },
    {
      "midi": 74,
      "hit": false,
      "t": 93960.98191666658,
      "d": 217.0536666666594,
      "v": 64
    },
    {
      "midi": 65,
      "hit": false,
      "t": 93972.60979166659,
      "d": 182.1700416666572,
      "v": 64
    },
    {
      "midi": 69,
      "hit": false,
      "t": 93980.36170833325,
      "d": 174.4181249999965,
      "v": 64
    },
    {
      "midi": 70,
      "hit": false,
      "t": 93988.11362499991,
      "d": 182.17004166667175,
      "v": 64
    },
    {
      "midi": 64,
      "hit": false,
      "t": 94414.46904166658,
      "d": 240.30941666665603,
      "v": 64
    },
    {
      "midi": 67,
      "hit": false,
      "t": 94422.22095833324,
      "d": 217.0536666666594,
      "v": 64
    },
    {
      "midi": 72,
      "hit": false,
      "t": 94429.9728749999,
      "d": 236.4334583333257,
      "v": 64
    },
    {
      "midi": 69,
      "hit": false,
      "t": 94441.60074999991,
      "d": 220.92962499998976,
      "v": 64
    },
    {
      "midi": 69,
      "hit": false,
      "t": 94701.28995833323,
      "d": 108.52683333332243,
      "v": 64
    },
    {
      "midi": 72,
      "hit": false,
      "t": 94705.16591666656,
      "d": 124.03066666665836,
      "v": 64
    },
    {
      "midi": 64,
      "hit": false,
      "t": 94724.54570833323,
      "d": 73.64320833333477,
      "v": 64
    },
    {
      "midi": 67,
      "hit": false,
      "t": 94728.42166666656,
      "d": 77.51916666666511,
      "v": 64
    },
    {
      "midi": 43,
      "hit": false,
      "t": 94883.45999999989,
      "d": 193.7979166666628,
      "v": 78
    },
    {
      "midi": 65,
      "hit": false,
      "t": 95805.93808333323,
      "d": 271.3170833332988,
      "v": 64
    },
    {
      "midi": 69,
      "hit": false,
      "t": 95813.68999999989,
      "d": 236.43345833331114,
      "v": 64
    },
    {
      "midi": 70,
      "hit": false,
      "t": 95821.44191666655,
      "d": 232.5574999999808,
      "v": 64
    },
    {
      "midi": 74,
      "hit": false,
      "t": 95829.19383333321,
      "d": 244.18537499998638,
      "v": 64
    },
    {
      "midi": 69,
      "hit": false,
      "t": 96119.89070833319,
      "d": 96.89895833334594,
      "v": 64
    },
    {
      "midi": 70,
      "hit": false,
      "t": 96123.76666666652,
      "d": 108.52683333335153,
      "v": 64
    },
    {
      "midi": 74,
      "hit": false,
      "t": 96135.39454166652,
      "d": 104.65087500000664,
      "v": 64
    },
    {
      "midi": 65,
      "hit": false,
      "t": 96150.89837499986,
      "d": 50.387458333338145,
      "v": 64
    },
    {
      "midi": 65,
      "hit": false,
      "t": 96526.8663333332,
      "d": 77.51916666665056,
      "v": 64
    },
    {
      "midi": 69,
      "hit": false,
      "t": 96530.74229166652,
      "d": 81.39512499998091,
      "v": 64
    },
    {
      "midi": 70,
      "hit": false,
      "t": 96534.61824999985,
      "d": 93.0229999999865,
      "v": 64
    },
    {
      "midi": 74,
      "hit": false,
      "t": 96542.37016666651,
      "d": 89.14704166665615,
      "v": 64
    },
    {
      "midi": 45,
      "hit": false,
      "t": 97670.2740416665,
      "d": 341.0843333333323,
      "v": 77
    },
    {
      "midi": 67,
      "hit": false,
      "t": 97670.2740416665,
      "d": 356.58816666666826,
      "v": 77
    },
    {
      "midi": 72,
      "hit": false,
      "t": 97670.2740416665,
      "d": 356.58816666666826,
      "v": 78
    },
    {
      "midi": 57,
      "hit": false,
      "t": 97670.2740416665,
      "d": 368.21604166667385,
      "v": 77
    },
    {
      "midi": 76,
      "hit": false,
      "t": 97670.2740416665,
      "d": 375.96795833333454,
      "v": 77
    },
    {
      "midi": 69,
      "hit": false,
      "t": 98139.26499999984,
      "d": 422.4794583333278,
      "v": 78
    },
    {
      "midi": 77,
      "hit": false,
      "t": 98139.26499999984,
      "d": 426.35541666665813,
      "v": 77
    },
    {
      "midi": 74,
      "hit": false,
      "t": 98139.26499999984,
      "d": 434.1073333333188,
      "v": 79
    },
    {
      "midi": 46,
      "hit": false,
      "t": 98139.26499999984,
      "d": 461.2390416666458,
      "v": 80
    },
    {
      "midi": 58,
      "hit": false,
      "t": 98147.0169166665,
      "d": 414.7275416666671,
      "v": 80
    },
    {
      "midi": 65,
      "hit": false,
      "t": 99530.73404166648,
      "d": 151.16237499999988,
      "v": 87
    },
    {
      "midi": 69,
      "hit": false,
      "t": 99530.73404166648,
      "d": 155.03833333333023,
      "v": 88
    },
    {
      "midi": 74,
      "hit": false,
      "t": 99530.73404166648,
      "d": 209.30174999999872,
      "v": 88
    },
    {
      "midi": 70,
      "hit": false,
      "t": 99534.60999999981,
      "d": 162.79025000000547,
      "v": 88
    },
    {
      "midi": 69,
      "hit": false,
      "t": 99840.81070833314,
      "d": 77.51916666666511,
      "v": 54
    },
    {
      "midi": 70,
      "hit": false,
      "t": 99840.81070833314,
      "d": 100.77491666666174,
      "v": 53
    },
    {
      "midi": 74,
      "hit": false,
      "t": 99840.81070833314,
      "d": 124.03066666665836,
      "v": 54
    },
    {
      "midi": 65,
      "hit": false,
      "t": 99844.68666666647,
      "d": 58.139374999998836,
      "v": 54
    },
    {
      "midi": 69,
      "hit": false,
      "t": 100305.92570833313,
      "d": 62.01533333332918,
      "v": 40
    },
    {
      "midi": 65,
      "hit": false,
      "t": 100305.92570833313,
      "d": 65.89129166665953,
      "v": 40
    },
    {
      "midi": 74,
      "hit": false,
      "t": 100305.92570833313,
      "d": 89.14704166665615,
      "v": 37
    },
    {
      "midi": 70,
      "hit": false,
      "t": 100329.18145833313,
      "d": 77.51916666666511,
      "v": 64
    },
    {
      "midi": 74,
      "hit": false,
      "t": 101402.82191666646,
      "d": 217.0536666666594,
      "v": 64
    },
    {
      "midi": 65,
      "hit": false,
      "t": 101414.44979166647,
      "d": 182.1700416666572,
      "v": 64
    },
    {
      "midi": 69,
      "hit": false,
      "t": 101422.20170833313,
      "d": 174.4181249999965,
      "v": 64
    },
    {
      "midi": 70,
      "hit": false,
      "t": 101429.95362499979,
      "d": 182.17004166667175,
      "v": 64
    },
    {
      "midi": 64,
      "hit": false,
      "t": 101856.30904166646,
      "d": 240.30941666665603,
      "v": 64
    },
    {
      "midi": 67,
      "hit": false,
      "t": 101864.06095833312,
      "d": 217.0536666666594,
      "v": 64
    },
    {
      "midi": 72,
      "hit": false,
      "t": 101871.81287499978,
      "d": 236.4334583333257,
      "v": 64
    },
    {
      "midi": 69,
      "hit": false,
      "t": 101883.44074999979,
      "d": 220.92962499998976,
      "v": 64
    },
    {
      "midi": 69,
      "hit": false,
      "t": 102143.12995833311,
      "d": 108.52683333332243,
      "v": 64
    },
    {
      "midi": 72,
      "hit": false,
      "t": 102147.00591666644,
      "d": 124.03066666665836,
      "v": 64
    },
    {
      "midi": 64,
      "hit": false,
      "t": 102166.38570833311,
      "d": 73.64320833333477,
      "v": 64
    },
    {
      "midi": 67,
      "hit": false,
      "t": 102170.26166666644,
      "d": 77.51916666666511,
      "v": 64
    },
    {
      "midi": 43,
      "hit": false,
      "t": 102325.29999999977,
      "d": 193.7979166666628,
      "v": 78
    },
    {
      "midi": 65,
      "hit": false,
      "t": 103247.7780833331,
      "d": 271.31708333331335,
      "v": 64
    },
    {
      "midi": 69,
      "hit": false,
      "t": 103255.52999999977,
      "d": 236.4334583333257,
      "v": 64
    },
    {
      "midi": 70,
      "hit": false,
      "t": 103263.28191666643,
      "d": 232.55749999999534,
      "v": 64
    },
    {
      "midi": 74,
      "hit": false,
      "t": 103271.03383333309,
      "d": 244.18537500000093,
      "v": 64
    },
    {
      "midi": 69,
      "hit": false,
      "t": 103561.73070833308,
      "d": 96.89895833334594,
      "v": 64
    },
    {
      "midi": 70,
      "hit": false,
      "t": 103565.60666666641,
      "d": 108.52683333335153,
      "v": 64
    },
    {
      "midi": 74,
      "hit": false,
      "t": 103577.23454166642,
      "d": 104.65087500000664,
      "v": 64
    },
    {
      "midi": 65,
      "hit": false,
      "t": 103592.73837499975,
      "d": 50.387458333338145,
      "v": 64
    },
    {
      "midi": 65,
      "hit": false,
      "t": 103968.70633333309,
      "d": 77.51916666665056,
      "v": 64
    },
    {
      "midi": 69,
      "hit": false,
      "t": 103972.58229166642,
      "d": 81.39512499998091,
      "v": 64
    },
    {
      "midi": 70,
      "hit": false,
      "t": 103976.45824999975,
      "d": 93.0229999999865,
      "v": 64
    },
    {
      "midi": 74,
      "hit": false,
      "t": 103984.21016666641,
      "d": 89.14704166665615,
      "v": 64
    },
    {
      "midi": 45,
      "hit": false,
      "t": 105112.1140416664,
      "d": 341.0843333333323,
      "v": 77
    },
    {
      "midi": 67,
      "hit": false,
      "t": 105112.1140416664,
      "d": 356.58816666666826,
      "v": 77
    },
    {
      "midi": 72,
      "hit": false,
      "t": 105112.1140416664,
      "d": 356.58816666666826,
      "v": 78
    },
    {
      "midi": 57,
      "hit": false,
      "t": 105112.1140416664,
      "d": 368.21604166667385,
      "v": 77
    },
    {
      "midi": 76,
      "hit": false,
      "t": 105112.1140416664,
      "d": 375.96795833333454,
      "v": 77
    },
    {
      "midi": 69,
      "hit": false,
      "t": 105581.10499999973,
      "d": 422.4794583333278,
      "v": 78
    },
    {
      "midi": 77,
      "hit": false,
      "t": 105581.10499999973,
      "d": 426.35541666665813,
      "v": 77
    },
    {
      "midi": 74,
      "hit": false,
      "t": 105581.10499999973,
      "d": 434.1073333333188,
      "v": 79
    },
    {
      "midi": 46,
      "hit": false,
      "t": 105581.10499999973,
      "d": 461.2390416666458,
      "v": 80
    },
    {
      "midi": 58,
      "hit": false,
      "t": 105588.8569166664,
      "d": 414.7275416666671,
      "v": 80
    },
    {
      "midi": 62,
      "hit": false,
      "t": 106046.21999999971,
      "d": 1565.8871666666673,
      "v": 64
    },
    {
      "midi": 58,
      "hit": false,
      "t": 106046.21999999971,
      "d": 1596.8948333333392,
      "v": 64
    },
    {
      "midi": 65,
      "hit": false,
      "t": 106046.21999999971,
      "d": 1608.5227083333448,
      "v": 64
    },
    {
      "midi": 55,
      "hit": false,
      "t": 106046.21999999971,
      "d": 1627.902500000011,
      "v": 64
    },
    {
      "midi": 39,
      "hit": false,
      "t": 106046.21999999971,
      "d": 1635.6544166666718,
      "v": 64
    },
    {
      "midi": 46,
      "hit": false,
      "t": 107906.67999999972,
      "d": 1441.8564999999944,
      "v": 64
    },
    {
      "midi": 58,
      "hit": false,
      "t": 107918.30787499972,
      "d": 1503.8718333333236,
      "v": 64
    },
    {
      "midi": 62,
      "hit": false,
      "t": 107926.05979166638,
      "d": 1511.6237499999988,
      "v": 64
    },
    {
      "midi": 57,
      "hit": false,
      "t": 107933.81170833304,
      "d": 1484.4920416666719,
      "v": 64
    },
    {
      "midi": 65,
      "hit": false,
      "t": 107945.43958333305,
      "d": 1507.7477916666685,
      "v": 64
    },
    {
      "midi": 39,
      "hit": false,
      "t": 109771.01595833305,
      "d": 1674.4140000000043,
      "v": 64
    },
    {
      "midi": 58,
      "hit": false,
      "t": 109782.64383333306,
      "d": 1639.530375000002,
      "v": 64
    },
    {
      "midi": 62,
      "hit": false,
      "t": 109786.51979166639,
      "d": 1662.7861249999987,
      "v": 64
    },
    {
      "midi": 65,
      "hit": false,
      "t": 109798.1476666664,
      "d": 1643.4063333333324,
      "v": 64
    },
    {
      "midi": 55,
      "hit": false,
      "t": 109813.65149999973,
      "d": 1643.406333333318,
      "v": 64
    },
    {
      "midi": 46,
      "hit": false,
      "t": 111619.84808333305,
      "d": 1507.7477916666685,
      "v": 64
    },
    {
      "midi": 57,
      "hit": false,
      "t": 111635.35191666639,
      "d": 1496.119916666663,
      "v": 64
    },
    {
      "midi": 58,
      "hit": false,
      "t": 111635.35191666639,
      "d": 1531.0035416666506,
      "v": 64
    },
    {
      "midi": 62,
      "hit": false,
      "t": 111658.60766666639,
      "d": 1480.616083333327,
      "v": 64
    },
    {
      "midi": 65,
      "hit": false,
      "t": 111658.60766666639,
      "d": 1511.6237499999843,
      "v": 64
    },
    {
      "midi": 39,
      "hit": false,
      "t": 113480.30808333303,
      "d": 643.4090833333466,
      "v": 64
    },
    {
      "midi": 65,
      "hit": false,
      "t": 113484.18404166636,
      "d": 627.9052500000107,
      "v": 64
    },
    {
      "midi": 55,
      "hit": false,
      "t": 113495.81191666637,
      "d": 635.6571666666714,
      "v": 64
    },
    {
      "midi": 58,
      "hit": false,
      "t": 113499.6878749997,
      "d": 585.2697083333478,
      "v": 64
    },
    {
      "midi": 62,
      "hit": false,
      "t": 113511.3157499997,
      "d": 538.75820833334,
      "v": 64
    },
    {
      "midi": 38,
      "hit": false,
      "t": 114418.2899999997,
      "d": 689.9205833333253,
      "v": 64
    },
    {
      "midi": 54,
      "hit": false,
      "t": 114426.04191666636,
      "d": 658.912916666668,
      "v": 64
    },
    {
      "midi": 60,
      "hit": false,
      "t": 114429.9178749997,
      "d": 620.1533333333355,
      "v": 64
    },
    {
      "midi": 57,
      "hit": false,
      "t": 114445.42170833303,
      "d": 573.6418333333277,
      "v": 64
    },
    {
      "midi": 65,
      "hit": false,
      "t": 114449.29766666636,
      "d": 620.1533333333355,
      "v": 64
    },
    {
      "midi": 43,
      "hit": false,
      "t": 115313.6363749997,
      "d": 527.1303333333344,
      "v": 64
    },
    {
      "midi": 58,
      "hit": false,
      "t": 115329.14020833303,
      "d": 674.416750000004,
      "v": 64
    },
    {
      "midi": 55,
      "hit": false,
      "t": 115340.76808333304,
      "d": 705.4244166666613,
      "v": 64
    },
    {
      "midi": 62,
      "hit": false,
      "t": 115344.64404166637,
      "d": 682.1686666666646,
      "v": 64
    },
    {
      "midi": 65,
      "hit": false,
      "t": 115360.1478749997,
      "d": 678.2927083333343,
      "v": 64
    },
    {
      "midi": 44,
      "hit": false,
      "t": 116247.74233333304,
      "d": 748.0599583333387,
      "v": 64
    },
    {
      "midi": 54,
      "hit": false,
      "t": 116263.24616666637,
      "d": 767.439750000005,
      "v": 64
    },
    {
      "midi": 60,
      "hit": false,
      "t": 116274.87404166638,
      "d": 782.9435833333264,
      "v": 64
    },
    {
      "midi": 62,
      "hit": false,
      "t": 116278.74999999971,
      "d": 786.8195416666567,
      "v": 64
    },
    {
      "midi": 65,
      "hit": false,
      "t": 116298.12979166638,
      "d": 786.8195416666567,
      "v": 64
    },
    {
      "midi": 43,
      "hit": false,
      "t": 117236.11170833303,
      "d": 251.93729166666162,
      "v": 64
    },
    {
      "midi": 70,
      "hit": false,
      "t": 118150.83787499969,
      "d": 267.44112499999756,
      "v": 64
    },
    {
      "midi": 65,
      "hit": false,
      "t": 118162.4657499997,
      "d": 232.55749999999534,
      "v": 86
    },
    {
      "midi": 69,
      "hit": false,
      "t": 118166.34170833303,
      "d": 232.55749999999534,
      "v": 86
    },
    {
      "midi": 74,
      "hit": false,
      "t": 118174.09362499969,
      "d": 248.06133333333128,
      "v": 86
    },
    {
      "midi": 69,
      "hit": false,
      "t": 118460.91454166635,
      "d": 96.89895833331684,
      "v": 64
    },
    {
      "midi": 70,
      "hit": false,
      "t": 118464.79049999968,
      "d": 108.52683333332243,
      "v": 64
    },
    {
      "midi": 74,
      "hit": false,
      "t": 118480.29433333302,
      "d": 104.65087499999208,
      "v": 64
    },
    {
      "midi": 65,
      "hit": false,
      "t": 118484.17029166635,
      "d": 65.89129166665953,
      "v": 64
    },
    {
      "midi": 70,
      "hit": false,
      "t": 118895.02187499967,
      "d": 112.40279166663822,
      "v": 48
    },
    {
      "midi": 65,
      "hit": false,
      "t": 118902.77379166633,
      "d": 73.64320833332022,
      "v": 50
    },
    {
      "midi": 69,
      "hit": false,
      "t": 118906.64974999966,
      "d": 77.51916666665056,
      "v": 49
    },
    {
      "midi": 74,
      "hit": false,
      "t": 118914.40166666632,
      "d": 85.2710833333258,
      "v": 46
    },
    {
      "midi": 60,
      "hit": false,
      "t": 119968.66233333298,
      "d": 434.1073333333334,
      "v": 64
    },
    {
      "midi": 55,
      "hit": false,
      "t": 119980.29020833298,
      "d": 391.4717916666559,
      "v": 64
    },
    {
      "midi": 64,
      "hit": false,
      "t": 119988.04212499964,
      "d": 395.3477500000008,
      "v": 64
    },
    {
      "midi": 45,
      "hit": false,
      "t": 119999.66999999965,
      "d": 348.836249999993,
      "v": 64
    },
    {
      "midi": 46,
      "hit": false,
      "t": 120464.78499999964,
      "d": 383.7198750000098,
      "v": 64
    },
    {
      "midi": 57,
      "hit": false,
      "t": 120480.28883333298,
      "d": 391.47179166667047,
      "v": 64
    },
    {
      "midi": 62,
      "hit": false,
      "t": 120480.28883333298,
      "d": 399.22370833333116,
      "v": 64
    },
    {
      "midi": 65,
      "hit": false,
      "t": 120495.79266666631,
      "d": 399.22370833333116,
      "v": 64
    },
    {
      "midi": 62,
      "hit": false,
      "t": 120929.89999999964,
      "d": 1565.8871666666673,
      "v": 64
    },
    {
      "midi": 58,
      "hit": false,
      "t": 120929.89999999964,
      "d": 1596.8948333333392,
      "v": 64
    },
    {
      "midi": 65,
      "hit": false,
      "t": 120929.89999999964,
      "d": 1608.5227083333448,
      "v": 64
    },
    {
      "midi": 55,
      "hit": false,
      "t": 120929.89999999964,
      "d": 1627.902500000011,
      "v": 64
    },
    {
      "midi": 39,
      "hit": false,
      "t": 120929.89999999964,
      "d": 1635.6544166666718,
      "v": 64
    },
    {
      "midi": 46,
      "hit": false,
      "t": 122790.35999999965,
      "d": 1441.8564999999944,
      "v": 64
    },
    {
      "midi": 58,
      "hit": false,
      "t": 122801.98787499966,
      "d": 1503.8718333333236,
      "v": 64
    },
    {
      "midi": 62,
      "hit": false,
      "t": 122809.73979166632,
      "d": 1511.6237499999988,
      "v": 64
    },
    {
      "midi": 57,
      "hit": false,
      "t": 122817.49170833298,
      "d": 1484.4920416666719,
      "v": 64
    },
    {
      "midi": 65,
      "hit": false,
      "t": 122829.11958333298,
      "d": 1507.7477916666685,
      "v": 64
    },
    {
      "midi": 39,
      "hit": false,
      "t": 124654.69595833299,
      "d": 1674.4140000000043,
      "v": 64
    },
    {
      "midi": 58,
      "hit": false,
      "t": 124666.323833333,
      "d": 1639.530375000002,
      "v": 64
    },
    {
      "midi": 62,
      "hit": false,
      "t": 124670.19979166632,
      "d": 1662.7861249999987,
      "v": 64
    },
    {
      "midi": 65,
      "hit": false,
      "t": 124681.82766666633,
      "d": 1643.4063333333324,
      "v": 64
    },
    {
      "midi": 55,
      "hit": false,
      "t": 124697.33149999967,
      "d": 1643.406333333318,
      "v": 64
    },
    {
      "midi": 46,
      "hit": false,
      "t": 126503.52808333299,
      "d": 1507.7477916666685,
      "v": 64
    },
    {
      "midi": 57,
      "hit": false,
      "t": 126519.03191666632,
      "d": 1496.119916666663,
      "v": 64
    },
    {
      "midi": 58,
      "hit": false,
      "t": 126519.03191666632,
      "d": 1531.0035416666506,
      "v": 64
    },
    {
      "midi": 62,
      "hit": false,
      "t": 126542.28766666632,
      "d": 1480.616083333327,
      "v": 64
    },
    {
      "midi": 65,
      "hit": false,
      "t": 126542.28766666632,
      "d": 1511.6237499999843,
      "v": 64
    },
    {
      "midi": 39,
      "hit": false,
      "t": 128363.98808333297,
      "d": 643.4090833333466,
      "v": 64
    },
    {
      "midi": 65,
      "hit": false,
      "t": 128367.8640416663,
      "d": 627.9052500000107,
      "v": 64
    },
    {
      "midi": 55,
      "hit": false,
      "t": 128379.4919166663,
      "d": 635.6571666666714,
      "v": 64
    },
    {
      "midi": 58,
      "hit": false,
      "t": 128383.36787499963,
      "d": 585.2697083333478,
      "v": 64
    },
    {
      "midi": 62,
      "hit": false,
      "t": 128394.99574999964,
      "d": 538.75820833334,
      "v": 64
    },
    {
      "midi": 38,
      "hit": false,
      "t": 129301.96999999964,
      "d": 689.9205833333253,
      "v": 64
    },
    {
      "midi": 54,
      "hit": false,
      "t": 129309.7219166663,
      "d": 658.912916666668,
      "v": 64
    },
    {
      "midi": 60,
      "hit": false,
      "t": 129313.59787499963,
      "d": 620.1533333333355,
      "v": 64
    },
    {
      "midi": 57,
      "hit": false,
      "t": 129329.10170833296,
      "d": 573.6418333333277,
      "v": 64
    },
    {
      "midi": 65,
      "hit": false,
      "t": 129332.9776666663,
      "d": 620.1533333333355,
      "v": 64
    },
    {
      "midi": 43,
      "hit": false,
      "t": 130197.31637499963,
      "d": 527.1303333333344,
      "v": 64
    },
    {
      "midi": 58,
      "hit": false,
      "t": 130212.82020833297,
      "d": 674.416750000004,
      "v": 64
    },
    {
      "midi": 55,
      "hit": false,
      "t": 130224.44808333297,
      "d": 705.4244166666613,
      "v": 64
    },
    {
      "midi": 62,
      "hit": false,
      "t": 130228.3240416663,
      "d": 682.1686666666646,
      "v": 64
    },
    {
      "midi": 65,
      "hit": false,
      "t": 130243.82787499964,
      "d": 678.2927083333343,
      "v": 64
    },
    {
      "midi": 44,
      "hit": false,
      "t": 131131.42233333297,
      "d": 748.0599583333242,
      "v": 64
    },
    {
      "midi": 54,
      "hit": false,
      "t": 131146.9261666663,
      "d": 767.4397499999905,
      "v": 64
    },
    {
      "midi": 60,
      "hit": false,
      "t": 131158.5540416663,
      "d": 782.9435833333118,
      "v": 64
    },
    {
      "midi": 62,
      "hit": false,
      "t": 131162.42999999964,
      "d": 786.8195416666276,
      "v": 64
    },
    {
      "midi": 65,
      "hit": false,
      "t": 131181.8097916663,
      "d": 786.8195416666276,
      "v": 64
    },
    {
      "midi": 43,
      "hit": false,
      "t": 132119.79170833295,
      "d": 251.93729166666162,
      "v": 64
    },
    {
      "midi": 70,
      "hit": false,
      "t": 132538.39520833295,
      "d": 205.42579166666837,
      "v": 64
    },
    {
      "midi": 65,
      "hit": false,
      "t": 132550.02308333296,
      "d": 217.05366666667396,
      "v": 64
    },
    {
      "midi": 67,
      "hit": false,
      "t": 133022.88999999964,
      "d": 267.441124999983,
      "v": 64
    },
    {
      "midi": 62,
      "hit": false,
      "t": 133030.6419166663,
      "d": 294.57283333331,
      "v": 64
    },
    {
      "midi": 65,
      "hit": false,
      "t": 133488.0049999996,
      "d": 224.80558333333465,
      "v": 64
    },
    {
      "midi": 60,
      "hit": false,
      "t": 133491.88095833294,
      "d": 186.0460000000021,
      "v": 64
    },
    {
      "midi": 67,
      "hit": false,
      "t": 133813.5854999996,
      "d": 810.0752916666679,
      "v": 64
    },
    {
      "midi": 62,
      "hit": false,
      "t": 133825.2133749996,
      "d": 779.067624999996,
      "v": 64
    },
    {
      "midi": 43,
      "hit": false,
      "t": 134867.84616666628,
      "d": 383.7198750000098,
      "v": 64
    },
    {
      "midi": 58,
      "hit": false,
      "t": 134879.47404166628,
      "d": 341.0843333333323,
      "v": 64
    },
    {
      "midi": 62,
      "hit": false,
      "t": 134883.34999999963,
      "d": 348.836249999993,
      "v": 64
    },
    {
      "midi": 53,
      "hit": false,
      "t": 134898.85383333295,
      "d": 313.95262500000536,
      "v": 64
    },
    {
      "midi": 46,
      "hit": false,
      "t": 135336.8371249996,
      "d": 375.9679583333491,
      "v": 64
    },
    {
      "midi": 58,
      "hit": false,
      "t": 135340.71308333296,
      "d": 383.7198750000098,
      "v": 64
    },
    {
      "midi": 53,
      "hit": false,
      "t": 135360.09287499962,
      "d": 387.5958333333547,
      "v": 64
    },
    {
      "midi": 62,
      "hit": false,
      "t": 135363.96883333297,
      "d": 391.47179166667047,
      "v": 64
    },
    {
      "midi": 36,
      "hit": false,
      "t": 135813.57999999964,
      "d": 3209.293500000029,
      "v": 77
    },
    {
      "midi": 48,
      "hit": false,
      "t": 135813.57999999964,
      "d": 3275.1847916666884,
      "v": 77
    },
    {
      "midi": 70,
      "hit": false,
      "t": 137515.12570833298,
      "d": 461.2390416666749,
      "v": 64
    },
    {
      "midi": 75,
      "hit": false,
      "t": 137515.12570833298,
      "d": 461.2390416666749,
      "v": 64
    },
    {
      "midi": 79,
      "hit": false,
      "t": 137515.12570833298,
      "d": 461.2390416666749,
      "v": 64
    },
    {
      "midi": 77,
      "hit": false,
      "t": 138139.15499999965,
      "d": 189.921958333347,
      "v": 64
    },
    {
      "midi": 74,
      "hit": false,
      "t": 138139.15499999965,
      "d": 248.06133333334583,
      "v": 64
    },
    {
      "midi": 69,
      "hit": false,
      "t": 138139.15499999965,
      "d": 259.6892083333514,
      "v": 64
    },
    {
      "midi": 75,
      "hit": false,
      "t": 138604.26999999967,
      "d": 263.5651666666672,
      "v": 64
    },
    {
      "midi": 72,
      "hit": false,
      "t": 138604.26999999967,
      "d": 298.44879166665487,
      "v": 64
    },
    {
      "midi": 67,
      "hit": false,
      "t": 138604.26999999967,
      "d": 321.70454166666605,
      "v": 64
    },
    {
      "midi": 70,
      "hit": false,
      "t": 139069.38499999966,
      "d": 178.2940833333414,
      "v": 64
    },
    {
      "midi": 74,
      "hit": false,
      "t": 139069.38499999966,
      "d": 220.92962500001886,
      "v": 64
    },
    {
      "midi": 65,
      "hit": false,
      "t": 139069.38499999966,
      "d": 251.93729166669073,
      "v": 64
    },
    {
      "midi": 70,
      "hit": false,
      "t": 139534.49999999968,
      "d": 957.3617083333374,
      "v": 64
    },
    {
      "midi": 74,
      "hit": false,
      "t": 139534.49999999968,
      "d": 961.2376666666823,
      "v": 64
    },
    {
      "midi": 77,
      "hit": false,
      "t": 139534.49999999968,
      "d": 961.2376666666823,
      "v": 64
    },
    {
      "midi": 50,
      "hit": false,
      "t": 139534.49999999968,
      "d": 1023.2530000000261,
      "v": 74
    },
    {
      "midi": 43,
      "hit": false,
      "t": 139538.37595833302,
      "d": 1023.2530000000261,
      "v": 76
    },
    {
      "midi": 69,
      "hit": false,
      "t": 140929.84499999974,
      "d": 217.05366666667396,
      "v": 96
    },
    {
      "midi": 70,
      "hit": false,
      "t": 140929.84499999974,
      "d": 228.68154166667955,
      "v": 96
    },
    {
      "midi": 77,
      "hit": false,
      "t": 140929.84499999974,
      "d": 228.68154166667955,
      "v": 96
    },
    {
      "midi": 74,
      "hit": false,
      "t": 140929.84499999974,
      "d": 232.55750000002445,
      "v": 96
    },
    {
      "midi": 77,
      "hit": false,
      "t": 141251.54954166643,
      "d": 158.91429166667513,
      "v": 50
    },
    {
      "midi": 69,
      "hit": false,
      "t": 141263.17741666644,
      "d": 127.90662500000326,
      "v": 50
    },
    {
      "midi": 70,
      "hit": false,
      "t": 141282.5572083331,
      "d": 112.40279166668188,
      "v": 50
    },
    {
      "midi": 74,
      "hit": false,
      "t": 141282.5572083331,
      "d": 120.15470833334257,
      "v": 50
    },
    {
      "midi": 53,
      "hit": false,
      "t": 142321.31404166645,
      "d": 344.9602916666772,
      "v": 82
    },
    {
      "midi": 43,
      "hit": false,
      "t": 142321.31404166645,
      "d": 356.5881666666828,
      "v": 82
    },
    {
      "midi": 58,
      "hit": false,
      "t": 142321.31404166645,
      "d": 368.2160416666884,
      "v": 82
    },
    {
      "midi": 62,
      "hit": false,
      "t": 142325.1899999998,
      "d": 267.4411250000121,
      "v": 82
    },
    {
      "midi": 58,
      "hit": false,
      "t": 142790.30499999982,
      "d": 356.5881666666828,
      "v": 82
    },
    {
      "midi": 62,
      "hit": false,
      "t": 142790.30499999982,
      "d": 360.4641250000277,
      "v": 82
    },
    {
      "midi": 65,
      "hit": false,
      "t": 142790.30499999982,
      "d": 368.2160416666884,
      "v": 82
    },
    {
      "midi": 46,
      "hit": false,
      "t": 142794.18095833316,
      "d": 352.7122083333379,
      "v": 82
    },
    {
      "midi": 36,
      "hit": false,
      "t": 143255.41999999984,
      "d": 3457.3548333333165,
      "v": 74
    },
    {
      "midi": 48,
      "hit": false,
      "t": 143255.41999999984,
      "d": 3527.122083333321,
      "v": 74
    },
    {
      "midi": 67,
      "hit": false,
      "t": 144960.8416666665,
      "d": 387.5958333333256,
      "v": 64
    },
    {
      "midi": 70,
      "hit": false,
      "t": 144960.8416666665,
      "d": 387.5958333333256,
      "v": 64
    },
    {
      "midi": 63,
      "hit": false,
      "t": 144960.8416666665,
      "d": 414.72754166665254,
      "v": 64
    },
    {
      "midi": 69,
      "hit": false,
      "t": 145580.99499999982,
      "d": 298.44879166665487,
      "v": 64
    },
    {
      "midi": 65,
      "hit": false,
      "t": 145580.99499999982,
      "d": 321.70454166666605,
      "v": 64
    },
    {
      "midi": 62,
      "hit": false,
      "t": 145580.99499999982,
      "d": 360.4641249999986,
      "v": 64
    },
    {
      "midi": 67,
      "hit": false,
      "t": 146046.1099999998,
      "d": 263.5651666666672,
      "v": 64
    },
    {
      "midi": 60,
      "hit": false,
      "t": 146046.1099999998,
      "d": 267.4411250000121,
      "v": 64
    },
    {
      "midi": 63,
      "hit": false,
      "t": 146046.1099999998,
      "d": 356.5881666666828,
      "v": 64
    },
    {
      "midi": 62,
      "hit": false,
      "t": 146511.22499999983,
      "d": 232.55749999999534,
      "v": 64
    },
    {
      "midi": 65,
      "hit": false,
      "t": 146511.22499999983,
      "d": 255.81325000000652,
      "v": 64
    },
    {
      "midi": 58,
      "hit": false,
      "t": 146511.22499999983,
      "d": 271.3170833333279,
      "v": 64
    },
    {
      "midi": 62,
      "hit": false,
      "t": 146976.33999999982,
      "d": 968.989583333343,
      "v": 75
    },
    {
      "midi": 60,
      "hit": false,
      "t": 146976.33999999982,
      "d": 999.9972500000149,
      "v": 75
    },
    {
      "midi": 65,
      "hit": false,
      "t": 146976.33999999982,
      "d": 1011.6251250000205,
      "v": 76
    },
    {
      "midi": 69,
      "hit": false,
      "t": 146976.33999999982,
      "d": 1023.2530000000261,
      "v": 75
    },
    {
      "midi": 50,
      "hit": false,
      "t": 146976.33999999982,
      "d": 1259.6864583333663,
      "v": 75
    },
    {
      "midi": 38,
      "hit": false,
      "t": 146976.33999999982,
      "d": 1271.314333333372,
      "v": 75
    },
    {
      "midi": 69,
      "hit": false,
      "t": 148371.68499999985,
      "d": 220.92962499998976,
      "v": 92
    },
    {
      "midi": 67,
      "hit": false,
      "t": 148371.68499999985,
      "d": 240.30941666665603,
      "v": 92
    },
    {
      "midi": 72,
      "hit": false,
      "t": 148371.68499999985,
      "d": 240.30941666665603,
      "v": 92
    },
    {
      "midi": 77,
      "hit": false,
      "t": 148371.68499999985,
      "d": 275.1930416666437,
      "v": 92
    },
    {
      "midi": 72,
      "hit": false,
      "t": 148677.88570833317,
      "d": 96.8989583333605,
      "v": 64
    },
    {
      "midi": 77,
      "hit": false,
      "t": 148681.7616666665,
      "d": 116.27875000002678,
      "v": 64
    },
    {
      "midi": 69,
      "hit": false,
      "t": 148685.63762499986,
      "d": 62.01533333334373,
      "v": 64
    },
    {
      "midi": 67,
      "hit": false,
      "t": 148685.63762499986,
      "d": 69.76725000000442,
      "v": 64
    },
    {
      "midi": 38,
      "hit": false,
      "t": 149751.52616666653,
      "d": 841.0829583333398,
      "v": 64
    },
    {
      "midi": 50,
      "hit": false,
      "t": 149767.02999999985,
      "d": 806.1993333333521,
      "v": 64
    },
    {
      "midi": 57,
      "hit": false,
      "t": 149782.53383333317,
      "d": 325.58050000001094,
      "v": 64
    },
    {
      "midi": 60,
      "hit": false,
      "t": 149790.28574999984,
      "d": 317.82858333335025,
      "v": 64
    },
    {
      "midi": 65,
      "hit": false,
      "t": 149794.16170833318,
      "d": 344.9602916666772,
      "v": 64
    },
    {
      "midi": 65,
      "hit": false,
      "t": 150247.6488333332,
      "d": 372.0920000000042,
      "v": 64
    },
    {
      "midi": 60,
      "hit": false,
      "t": 150259.2767083332,
      "d": 344.9602916666772,
      "v": 64
    },
    {
      "midi": 69,
      "hit": false,
      "t": 150259.2767083332,
      "d": 379.8439166666649,
      "v": 64
    },
    {
      "midi": 36,
      "hit": false,
      "t": 150697.25999999986,
      "d": 3263.5569166666246,
      "v": 74
    },
    {
      "midi": 48,
      "hit": false,
      "t": 150697.25999999986,
      "d": 3306.192458333302,
      "v": 73
    },
    {
      "midi": 67,
      "hit": false,
      "t": 152402.68166666653,
      "d": 313.95262500000536,
      "v": 64
    },
    {
      "midi": 58,
      "hit": false,
      "t": 152402.68166666653,
      "d": 348.836249999993,
      "v": 64
    },
    {
      "midi": 63,
      "hit": false,
      "t": 152402.68166666653,
      "d": 348.836249999993,
      "v": 64
    },
    {
      "midi": 57,
      "hit": false,
      "t": 153022.83499999985,
      "d": 282.9449583333335,
      "v": 64
    },
    {
      "midi": 65,
      "hit": false,
      "t": 153022.83499999985,
      "d": 313.95262500000536,
      "v": 64
    },
    {
      "midi": 62,
      "hit": false,
      "t": 153022.83499999985,
      "d": 321.70454166666605,
      "v": 64
    },
    {
      "midi": 63,
      "hit": false,
      "t": 153487.94999999984,
      "d": 259.6892083333223,
      "v": 64
    },
    {
      "midi": 55,
      "hit": false,
      "t": 153487.94999999984,
      "d": 271.3170833333279,
      "v": 64
    },
    {
      "midi": 60,
      "hit": false,
      "t": 153487.94999999984,
      "d": 271.3170833333279,
      "v": 64
    },
    {
      "midi": 53,
      "hit": false,
      "t": 153953.06499999983,
      "d": 189.921958333347,
      "v": 64
    },
    {
      "midi": 58,
      "hit": false,
      "t": 153953.06499999983,
      "d": 213.17770833335817,
      "v": 64
    },
    {
      "midi": 62,
      "hit": false,
      "t": 153953.06499999983,
      "d": 232.55750000002445,
      "v": 64
    },
    {
      "midi": 58,
      "hit": false,
      "t": 154263.14166666652,
      "d": 872.0906250000116,
      "v": 74
    },
    {
      "midi": 57,
      "hit": false,
      "t": 154263.14166666652,
      "d": 891.4704166666779,
      "v": 72
    },
    {
      "midi": 65,
      "hit": false,
      "t": 154263.14166666652,
      "d": 903.0982916666835,
      "v": 64
    },
    {
      "midi": 62,
      "hit": false,
      "t": 154263.14166666652,
      "d": 910.8502083333442,
      "v": 64
    },
    {
      "midi": 46,
      "hit": false,
      "t": 154263.14166666652,
      "d": 984.4934166666644,
      "v": 73
    },
    {
      "midi": 74,
      "hit": false,
      "t": 155813.52499999985,
      "d": 217.05366666667396,
      "v": 86
    },
    {
      "midi": 70,
      "hit": false,
      "t": 155813.52499999985,
      "d": 232.55749999999534,
      "v": 86
    },
    {
      "midi": 77,
      "hit": false,
      "t": 155813.52499999985,
      "d": 236.43345833334024,
      "v": 86
    },
    {
      "midi": 69,
      "hit": false,
      "t": 155813.52499999985,
      "d": 255.81325000000652,
      "v": 86
    },
    {
      "midi": 77,
      "hit": false,
      "t": 156119.7257083332,
      "d": 124.03066666668747,
      "v": 59
    },
    {
      "midi": 74,
      "hit": false,
      "t": 156119.7257083332,
      "d": 131.78258333334816,
      "v": 59
    },
    {
      "midi": 70,
      "hit": false,
      "t": 156119.7257083332,
      "d": 143.41045833335374,
      "v": 58
    },
    {
      "midi": 69,
      "hit": false,
      "t": 156123.60166666654,
      "d": 131.78258333334816,
      "v": 59
    },
    {
      "midi": 74,
      "hit": false,
      "t": 158596.46308333322,
      "d": 674.416750000004,
      "v": 86
    },
    {
      "midi": 65,
      "hit": false,
      "t": 158600.33904166656,
      "d": 635.6571666666714,
      "v": 86
    },
    {
      "midi": 63,
      "hit": false,
      "t": 159375.53070833322,
      "d": 492.24670833334676,
      "v": 87
    },
    {
      "midi": 72,
      "hit": false,
      "t": 159375.53070833322,
      "d": 581.3937500000175,
      "v": 87
    },
    {
      "midi": 62,
      "hit": false,
      "t": 159999.5599999999,
      "d": 577.5177916666726,
      "v": 86
    },
    {
      "midi": 70,
      "hit": false,
      "t": 159999.5599999999,
      "d": 736.4320833333477,
      "v": 86
    },
    {
      "midi": 69,
      "hit": false,
      "t": 160770.87570833325,
      "d": 170.5421666666807,
      "v": 85
    },
    {
      "midi": 60,
      "hit": false,
      "t": 160770.87570833325,
      "d": 186.0460000000021,
      "v": 85
    },
    {
      "midi": 67,
      "hit": false,
      "t": 161232.11474999992,
      "d": 139.53450000000885,
      "v": 89
    },
    {
      "midi": 58,
      "hit": false,
      "t": 161235.99070833327,
      "d": 147.28641666666954,
      "v": 87
    },
    {
      "midi": 57,
      "hit": false,
      "t": 161394.90499999994,
      "d": 426.35541666665813,
      "v": 86
    },
    {
      "midi": 65,
      "hit": false,
      "t": 161394.90499999994,
      "d": 763.5637916666456,
      "v": 87
    },
    {
      "midi": 67,
      "hit": false,
      "t": 162325.13499999992,
      "d": 461.2390416666749,
      "v": 64
    },
    {
      "midi": 58,
      "hit": false,
      "t": 162325.13499999992,
      "d": 484.49479166668607,
      "v": 70
    },
    {
      "midi": 69,
      "hit": false,
      "t": 163096.4507083333,
      "d": 457.36308333333,
      "v": 64
    },
    {
      "midi": 60,
      "hit": false,
      "t": 163096.4507083333,
      "d": 488.37075000000186,
      "v": 64
    },
    {
      "midi": 70,
      "hit": false,
      "t": 163720.47999999995,
      "d": 480.6188333333412,
      "v": 64
    },
    {
      "midi": 62,
      "hit": false,
      "t": 163720.47999999995,
      "d": 499.99862500000745,
      "v": 64
    },
    {
      "midi": 69,
      "hit": false,
      "t": 164491.7957083333,
      "d": 112.40279166665277,
      "v": 64
    },
    {
      "midi": 60,
      "hit": false,
      "t": 164491.7957083333,
      "d": 116.27874999999767,
      "v": 64
    },
    {
      "midi": 57,
      "hit": false,
      "t": 164956.91070833328,
      "d": 100.77491666667629,
      "v": 64
    },
    {
      "midi": 65,
      "hit": false,
      "t": 164956.91070833328,
      "d": 104.65087500002119,
      "v": 64
    },
    {
      "midi": 58,
      "hit": false,
      "t": 165115.82499999995,
      "d": 465.1149999999907,
      "v": 59
    },
    {
      "midi": 67,
      "hit": false,
      "t": 165115.82499999995,
      "d": 465.1149999999907,
      "v": 83
    },
    {
      "midi": 53,
      "hit": false,
      "t": 165115.82499999995,
      "d": 1395.3450000000012,
      "v": 50
    },
    {
      "midi": 55,
      "hit": false,
      "t": 165115.82499999995,
      "d": 1395.3450000000012,
      "v": 51
    },
    {
      "midi": 60,
      "hit": false,
      "t": 165115.82499999995,
      "d": 1395.3450000000012,
      "v": 50
    },
    {
      "midi": 65,
      "hit": false,
      "t": 166507.2940416666,
      "d": 151.16237500001444,
      "v": 87
    },
    {
      "midi": 69,
      "hit": false,
      "t": 166507.2940416666,
      "d": 155.03833333335933,
      "v": 88
    },
    {
      "midi": 74,
      "hit": false,
      "t": 166507.2940416666,
      "d": 209.30175000004238,
      "v": 88
    },
    {
      "midi": 70,
      "hit": false,
      "t": 166511.16999999995,
      "d": 162.79025000002002,
      "v": 88
    },
    {
      "midi": 69,
      "hit": false,
      "t": 166817.37070833333,
      "d": 77.51916666666511,
      "v": 54
    },
    {
      "midi": 70,
      "hit": false,
      "t": 166817.37070833333,
      "d": 100.77491666667629,
      "v": 53
    },
    {
      "midi": 74,
      "hit": false,
      "t": 166817.37070833333,
      "d": 124.03066666668747,
      "v": 54
    },
    {
      "midi": 65,
      "hit": false,
      "t": 166821.24666666667,
      "d": 58.139374999998836,
      "v": 54
    },
    {
      "midi": 69,
      "hit": false,
      "t": 167282.48570833335,
      "d": 62.01533333334373,
      "v": 40
    },
    {
      "midi": 65,
      "hit": false,
      "t": 167282.48570833335,
      "d": 65.89129166668863,
      "v": 40
    },
    {
      "midi": 74,
      "hit": false,
      "t": 167282.48570833335,
      "d": 89.1470416666998,
      "v": 37
    },
    {
      "midi": 70,
      "hit": false,
      "t": 167305.74145833336,
      "d": 77.51916666669422,
      "v": 64
    },
    {
      "midi": 74,
      "hit": false,
      "t": 168379.38191666672,
      "d": 217.05366666664486,
      "v": 64
    },
    {
      "midi": 65,
      "hit": false,
      "t": 168391.00979166673,
      "d": 182.1700416666572,
      "v": 64
    },
    {
      "midi": 69,
      "hit": false,
      "t": 168398.7617083334,
      "d": 174.4181249999965,
      "v": 64
    },
    {
      "midi": 70,
      "hit": false,
      "t": 168406.51362500005,
      "d": 182.1700416666572,
      "v": 64
    },
    {
      "midi": 64,
      "hit": false,
      "t": 168832.8690416667,
      "d": 240.30941666665603,
      "v": 64
    },
    {
      "midi": 67,
      "hit": false,
      "t": 168840.62095833337,
      "d": 217.05366666667396,
      "v": 64
    },
    {
      "midi": 72,
      "hit": false,
      "t": 168848.37287500003,
      "d": 236.43345833334024,
      "v": 64
    },
    {
      "midi": 69,
      "hit": false,
      "t": 168860.00075000004,
      "d": 220.92962499998976,
      "v": 64
    },
    {
      "midi": 69,
      "hit": false,
      "t": 169119.68995833336,
      "d": 108.52683333336608,
      "v": 64
    },
    {
      "midi": 72,
      "hit": false,
      "t": 169123.5659166667,
      "d": 124.03066666668747,
      "v": 64
    },
    {
      "midi": 64,
      "hit": false,
      "t": 169142.94570833337,
      "d": 73.64320833334932,
      "v": 64
    },
    {
      "midi": 67,
      "hit": false,
      "t": 169146.8216666667,
      "d": 77.51916666666511,
      "v": 64
    },
    {
      "midi": 43,
      "hit": false,
      "t": 169301.86000000004,
      "d": 193.7979166666628,
      "v": 78
    },
    {
      "midi": 65,
      "hit": false,
      "t": 170224.33808333336,
      "d": 271.3170833333279,
      "v": 64
    },
    {
      "midi": 69,
      "hit": false,
      "t": 170232.09000000003,
      "d": 236.43345833331114,
      "v": 64
    },
    {
      "midi": 70,
      "hit": false,
      "t": 170239.8419166667,
      "d": 232.55749999999534,
      "v": 64
    },
    {
      "midi": 74,
      "hit": false,
      "t": 170247.59383333335,
      "d": 244.18537500000093,
      "v": 64
    },
    {
      "midi": 69,
      "hit": false,
      "t": 170538.29070833337,
      "d": 96.8989583333314,
      "v": 64
    },
    {
      "midi": 70,
      "hit": false,
      "t": 170542.16666666672,
      "d": 108.52683333330788,
      "v": 64
    },
    {
      "midi": 74,
      "hit": false,
      "t": 170553.79454166672,
      "d": 104.65087499996298,
      "v": 64
    },
    {
      "midi": 65,
      "hit": false,
      "t": 170569.29837500004,
      "d": 50.387458333338145,
      "v": 64
    },
    {
      "midi": 65,
      "hit": false,
      "t": 170945.26633333336,
      "d": 77.51916666669422,
      "v": 64
    },
    {
      "midi": 69,
      "hit": false,
      "t": 170949.1422916667,
      "d": 81.39512500001001,
      "v": 64
    },
    {
      "midi": 70,
      "hit": false,
      "t": 170953.01825000005,
      "d": 93.0229999999865,
      "v": 64
    },
    {
      "midi": 74,
      "hit": false,
      "t": 170960.7701666667,
      "d": 89.1470416666707,
      "v": 64
    },
    {
      "midi": 45,
      "hit": false,
      "t": 172088.67404166673,
      "d": 341.0843333333323,
      "v": 77
    },
    {
      "midi": 67,
      "hit": false,
      "t": 172088.67404166673,
      "d": 356.5881666666537,
      "v": 77
    },
    {
      "midi": 72,
      "hit": false,
      "t": 172088.67404166673,
      "d": 356.5881666666537,
      "v": 78
    },
    {
      "midi": 57,
      "hit": false,
      "t": 172088.67404166673,
      "d": 368.2160416666593,
      "v": 77
    },
    {
      "midi": 76,
      "hit": false,
      "t": 172088.67404166673,
      "d": 375.96795833332,
      "v": 77
    },
    {
      "midi": 69,
      "hit": false,
      "t": 172557.66500000004,
      "d": 422.47945833331323,
      "v": 78
    },
    {
      "midi": 77,
      "hit": false,
      "t": 172557.66500000004,
      "d": 426.35541666665813,
      "v": 77
    },
    {
      "midi": 74,
      "hit": false,
      "t": 172557.66500000004,
      "d": 434.1073333333188,
      "v": 79
    },
    {
      "midi": 46,
      "hit": false,
      "t": 172557.66500000004,
      "d": 461.2390416666458,
      "v": 80
    },
    {
      "midi": 58,
      "hit": false,
      "t": 172565.4169166667,
      "d": 414.72754166665254,
      "v": 80
    },
    {
      "midi": 65,
      "hit": false,
      "t": 173949.1340416667,
      "d": 151.16237500001444,
      "v": 87
    },
    {
      "midi": 69,
      "hit": false,
      "t": 173949.1340416667,
      "d": 155.03833333335933,
      "v": 88
    },
    {
      "midi": 74,
      "hit": false,
      "t": 173949.1340416667,
      "d": 209.30175000004238,
      "v": 88
    },
    {
      "midi": 70,
      "hit": false,
      "t": 173953.01000000004,
      "d": 162.79025000002002,
      "v": 88
    },
    {
      "midi": 69,
      "hit": false,
      "t": 174259.2107083334,
      "d": 77.51916666666511,
      "v": 54
    },
    {
      "midi": 70,
      "hit": false,
      "t": 174259.2107083334,
      "d": 100.77491666667629,
      "v": 53
    },
    {
      "midi": 74,
      "hit": false,
      "t": 174259.2107083334,
      "d": 124.03066666668747,
      "v": 54
    },
    {
      "midi": 65,
      "hit": false,
      "t": 174263.08666666676,
      "d": 58.139374999998836,
      "v": 54
    },
    {
      "midi": 69,
      "hit": false,
      "t": 174724.32570833343,
      "d": 62.01533333334373,
      "v": 40
    },
    {
      "midi": 65,
      "hit": false,
      "t": 174724.32570833343,
      "d": 65.89129166668863,
      "v": 40
    },
    {
      "midi": 74,
      "hit": false,
      "t": 174724.32570833343,
      "d": 89.1470416666998,
      "v": 37
    },
    {
      "midi": 70,
      "hit": false,
      "t": 174747.58145833344,
      "d": 77.51916666669422,
      "v": 64
    },
    {
      "midi": 74,
      "hit": false,
      "t": 175821.2219166668,
      "d": 217.05366666664486,
      "v": 64
    },
    {
      "midi": 65,
      "hit": false,
      "t": 175832.8497916668,
      "d": 182.1700416666572,
      "v": 64
    },
    {
      "midi": 69,
      "hit": false,
      "t": 175840.60170833347,
      "d": 174.4181249999965,
      "v": 64
    },
    {
      "midi": 70,
      "hit": false,
      "t": 175848.35362500013,
      "d": 182.1700416666572,
      "v": 64
    },
    {
      "midi": 64,
      "hit": false,
      "t": 176274.7090416668,
      "d": 240.30941666665603,
      "v": 64
    },
    {
      "midi": 67,
      "hit": false,
      "t": 176282.46095833345,
      "d": 217.05366666667396,
      "v": 64
    },
    {
      "midi": 72,
      "hit": false,
      "t": 176290.2128750001,
      "d": 236.43345833334024,
      "v": 64
    },
    {
      "midi": 69,
      "hit": false,
      "t": 176301.84075000012,
      "d": 220.92962499998976,
      "v": 64
    },
    {
      "midi": 69,
      "hit": false,
      "t": 176561.52995833344,
      "d": 108.52683333336608,
      "v": 64
    },
    {
      "midi": 72,
      "hit": false,
      "t": 176565.4059166668,
      "d": 124.03066666668747,
      "v": 64
    },
    {
      "midi": 64,
      "hit": false,
      "t": 176584.78570833345,
      "d": 73.64320833334932,
      "v": 64
    },
    {
      "midi": 67,
      "hit": false,
      "t": 176588.6616666668,
      "d": 77.51916666666511,
      "v": 64
    },
    {
      "midi": 43,
      "hit": false,
      "t": 176743.70000000013,
      "d": 193.7979166666628,
      "v": 78
    },
    {
      "midi": 65,
      "hit": false,
      "t": 177666.17808333345,
      "d": 271.3170833333279,
      "v": 64
    },
    {
      "midi": 69,
      "hit": false,
      "t": 177673.9300000001,
      "d": 236.43345833331114,
      "v": 64
    },
    {
      "midi": 70,
      "hit": false,
      "t": 177681.68191666677,
      "d": 232.55749999999534,
      "v": 64
    },
    {
      "midi": 74,
      "hit": false,
      "t": 177689.43383333343,
      "d": 244.18537500000093,
      "v": 64
    },
    {
      "midi": 69,
      "hit": false,
      "t": 177980.13070833345,
      "d": 96.8989583333314,
      "v": 64
    },
    {
      "midi": 70,
      "hit": false,
      "t": 177984.0066666668,
      "d": 108.52683333330788,
      "v": 64
    },
    {
      "midi": 74,
      "hit": false,
      "t": 177995.6345416668,
      "d": 104.65087499996298,
      "v": 64
    },
    {
      "midi": 65,
      "hit": false,
      "t": 178011.13837500013,
      "d": 50.387458333338145,
      "v": 64
    },
    {
      "midi": 65,
      "hit": false,
      "t": 178387.10633333345,
      "d": 77.51916666669422,
      "v": 64
    },
    {
      "midi": 69,
      "hit": false,
      "t": 178390.9822916668,
      "d": 81.39512500001001,
      "v": 64
    },
    {
      "midi": 70,
      "hit": false,
      "t": 178394.85825000014,
      "d": 93.0229999999865,
      "v": 64
    },
    {
      "midi": 74,
      "hit": false,
      "t": 178402.6101666668,
      "d": 89.1470416666707,
      "v": 64
    },
    {
      "midi": 45,
      "hit": false,
      "t": 179530.51404166681,
      "d": 341.0843333333323,
      "v": 77
    },
    {
      "midi": 67,
      "hit": false,
      "t": 179530.51404166681,
      "d": 356.5881666666537,
      "v": 77
    },
    {
      "midi": 72,
      "hit": false,
      "t": 179530.51404166681,
      "d": 356.5881666666537,
      "v": 78
    },
    {
      "midi": 57,
      "hit": false,
      "t": 179530.51404166681,
      "d": 368.2160416666593,
      "v": 77
    },
    {
      "midi": 76,
      "hit": false,
      "t": 179530.51404166681,
      "d": 375.96795833332,
      "v": 77
    },
    {
      "midi": 69,
      "hit": false,
      "t": 179999.50500000012,
      "d": 422.47945833331323,
      "v": 78
    },
    {
      "midi": 77,
      "hit": false,
      "t": 179999.50500000012,
      "d": 426.35541666665813,
      "v": 77
    },
    {
      "midi": 74,
      "hit": false,
      "t": 179999.50500000012,
      "d": 434.1073333333188,
      "v": 79
    },
    {
      "midi": 46,
      "hit": false,
      "t": 179999.50500000012,
      "d": 461.2390416666458,
      "v": 80
    },
    {
      "midi": 58,
      "hit": false,
      "t": 180007.25691666678,
      "d": 414.72754166665254,
      "v": 80
    },
    {
      "midi": 57,
      "hit": false,
      "t": 180464.6200000001,
      "d": 1298.4460416666698,
      "v": 86
    },
    {
      "midi": 41,
      "hit": false,
      "t": 180464.6200000001,
      "d": 1337.2056250000023,
      "v": 86
    },
    {
      "midi": 69,
      "hit": false,
      "t": 180464.6200000001,
      "d": 1348.833500000008,
      "v": 86
    },
    {
      "midi": 67,
      "hit": false,
      "t": 180464.6200000001,
      "d": 1360.4613750000135,
      "v": 86
    },
    {
      "midi": 63,
      "hit": false,
      "t": 180464.6200000001,
      "d": 1364.3373333333584,
      "v": 86
    },
    {
      "midi": 62,
      "hit": false,
      "t": 180464.6200000001,
      "d": 1399.220958333346,
      "v": 86
    },
    {
      "midi": 69,
      "hit": false,
      "t": 182154.53783333345,
      "d": 1604.6467500000435,
      "v": 86
    },
    {
      "midi": 53,
      "hit": false,
      "t": 182166.16570833346,
      "d": 1375.965208333364,
      "v": 86
    },
    {
      "midi": 62,
      "hit": false,
      "t": 182166.16570833346,
      "d": 1542.6314166666998,
      "v": 86
    },
    {
      "midi": 60,
      "hit": false,
      "t": 182166.16570833346,
      "d": 1585.2669583333773,
      "v": 86
    },
    {
      "midi": 65,
      "hit": false,
      "t": 182166.16570833346,
      "d": 1600.7707916666986,
      "v": 84
    },
    {
      "midi": 41,
      "hit": false,
      "t": 182170.0416666668,
      "d": 1360.4613750000135,
      "v": 86
    },
    {
      "midi": 67,
      "hit": false,
      "t": 182170.0416666668,
      "d": 1589.142916666693,
      "v": 87
    },
    {
      "midi": 67,
      "hit": false,
      "t": 184018.87379166682,
      "d": 1503.8718333333381,
      "v": 83
    },
    {
      "midi": 41,
      "hit": false,
      "t": 184026.62570833348,
      "d": 1437.9805416666786,
      "v": 86
    },
    {
      "midi": 55,
      "hit": false,
      "t": 184026.62570833348,
      "d": 1437.9805416666786,
      "v": 86
    },
    {
      "midi": 69,
      "hit": false,
      "t": 184026.62570833348,
      "d": 1511.6237499999988,
      "v": 88
    },
    {
      "midi": 63,
      "hit": false,
      "t": 184030.50166666682,
      "d": 1511.6237499999988,
      "v": 88
    },
    {
      "midi": 62,
      "hit": false,
      "t": 184030.50166666682,
      "d": 1534.87950000001,
      "v": 85
    },
    {
      "midi": 57,
      "hit": false,
      "t": 185883.20975000015,
      "d": 1767.4370000000345,
      "v": 86
    },
    {
      "midi": 41,
      "hit": false,
      "t": 185887.0857083335,
      "d": 1383.7171250000247,
      "v": 86
    },
    {
      "midi": 50,
      "hit": false,
      "t": 185887.0857083335,
      "d": 1383.7171250000247,
      "v": 86
    },
    {
      "midi": 65,
      "hit": false,
      "t": 185887.0857083335,
      "d": 1798.4446666666772,
      "v": 84
    },
    {
      "midi": 61,
      "hit": false,
      "t": 185890.96166666684,
      "d": 50.387458333338145,
      "v": 88
    },
    {
      "midi": 62,
      "hit": false,
      "t": 185890.96166666684,
      "d": 1775.188916666666,
      "v": 88
    },
    {
      "midi": 60,
      "hit": false,
      "t": 185890.96166666684,
      "d": 1798.4446666666772,
      "v": 86
    },
    {
      "midi": 72,
      "hit": false,
      "t": 188371.5750000002,
      "d": 1085.2683333333407,
      "v": 86
    },
    {
      "midi": 60,
      "hit": false,
      "t": 188371.5750000002,
      "d": 1124.0279166666733,
      "v": 84
    },
    {
      "midi": 65,
      "hit": false,
      "t": 188371.5750000002,
      "d": 1131.779833333334,
      "v": 83
    },
    {
      "midi": 61,
      "hit": false,
      "t": 188371.5750000002,
      "d": 1162.7875000000058,
      "v": 86
    },
    {
      "midi": 67,
      "hit": false,
      "t": 188371.5750000002,
      "d": 1240.3066666667,
      "v": 82
    },
    {
      "midi": 52,
      "hit": false,
      "t": 188371.5750000002,
      "d": 1682.1659166667087,
      "v": 87
    },
    {
      "midi": 33,
      "hit": false,
      "t": 189301.8050000002,
      "d": 236.43345833334024,
      "v": 90
    },
    {
      "midi": 60,
      "hit": false,
      "t": 189608.00570833354,
      "d": 569.7658750000119,
      "v": 86
    },
    {
      "midi": 38,
      "hit": false,
      "t": 189608.00570833354,
      "d": 879.8425416666723,
      "v": 90
    },
    {
      "midi": 57,
      "hit": false,
      "t": 189611.8816666669,
      "d": 344.9602916666772,
      "v": 85
    },
    {
      "midi": 45,
      "hit": false,
      "t": 189611.8816666669,
      "d": 457.36308333333,
      "v": 101
    },
    {
      "midi": 59,
      "hit": false,
      "t": 189611.8816666669,
      "d": 558.1380000000063,
      "v": 86
    },
    {
      "midi": 53,
      "hit": false,
      "t": 189611.8816666669,
      "d": 643.4090833333321,
      "v": 85
    },
    {
      "midi": 64,
      "hit": false,
      "t": 189611.8816666669,
      "d": 670.5407916666591,
      "v": 86
    },
    {
      "midi": 54,
      "hit": false,
      "t": 190534.3597500002,
      "d": 748.0599583333242,
      "v": 86
    },
    {
      "midi": 44,
      "hit": false,
      "t": 190534.3597500002,
      "d": 798.4474166666623,
      "v": 86
    },
    {
      "midi": 65,
      "hit": false,
      "t": 190534.3597500002,
      "d": 802.3233750000072,
      "v": 86
    },
    {
      "midi": 60,
      "hit": false,
      "t": 190534.3597500002,
      "d": 806.1993333333521,
      "v": 86
    },
    {
      "midi": 51,
      "hit": false,
      "t": 190534.3597500002,
      "d": 910.8502083333442,
      "v": 86
    },
    {
      "midi": 53,
      "hit": false,
      "t": 191464.58975000022,
      "d": 1856.584041666676,
      "v": 90
    },
    {
      "midi": 56,
      "hit": false,
      "t": 191464.58975000022,
      "d": 1856.584041666676,
      "v": 90
    },
    {
      "midi": 37,
      "hit": false,
      "t": 191464.58975000022,
      "d": 1860.460000000021,
      "v": 90
    },
    {
      "midi": 44,
      "hit": false,
      "t": 191464.58975000022,
      "d": 1860.460000000021,
      "v": 90
    },
    {
      "midi": 60,
      "hit": false,
      "t": 191468.46570833356,
      "d": 1852.7080833333312,
      "v": 90
    },
    {
      "midi": 63,
      "hit": false,
      "t": 191468.46570833356,
      "d": 1945.7310833333468,
      "v": 90
    },
    {
      "midi": 65,
      "hit": false,
      "t": 193321.1737916669,
      "d": 81.39512500001001,
      "v": 91
    },
    {
      "midi": 38,
      "hit": false,
      "t": 193325.04975000024,
      "d": 1779.064875000011,
      "v": 92
    },
    {
      "midi": 45,
      "hit": false,
      "t": 193325.04975000024,
      "d": 1829.452333333349,
      "v": 89
    },
    {
      "midi": 62,
      "hit": false,
      "t": 193328.92570833358,
      "d": 1662.7861249999842,
      "v": 91
    },
    {
      "midi": 54,
      "hit": false,
      "t": 193328.92570833358,
      "d": 1674.4139999999898,
      "v": 90
    },
    {
      "midi": 60,
      "hit": false,
      "t": 193328.92570833358,
      "d": 1678.2899583333347,
      "v": 90
    },
    {
      "midi": 70,
      "hit": false,
      "t": 196290.15787500027,
      "d": 244.18537500000093,
      "v": 87
    },
    {
      "midi": 74,
      "hit": false,
      "t": 196297.90979166693,
      "d": 228.68154166667955,
      "v": 88
    },
    {
      "midi": 65,
      "hit": false,
      "t": 196301.78575000027,
      "d": 186.0460000000021,
      "v": 88
    },
    {
      "midi": 69,
      "hit": false,
      "t": 196309.53766666693,
      "d": 201.54983333335258,
      "v": 88
    },
    {
      "midi": 70,
      "hit": false,
      "t": 196588.60666666692,
      "d": 112.40279166665277,
      "v": 54
    },
    {
      "midi": 69,
      "hit": false,
      "t": 196600.23454166693,
      "d": 93.0229999999865,
      "v": 54
    },
    {
      "midi": 74,
      "hit": false,
      "t": 196600.23454166693,
      "d": 108.52683333330788,
      "v": 54
    },
    {
      "midi": 65,
      "hit": false,
      "t": 196611.86241666693,
      "d": 73.64320833332022,
      "v": 54
    },
    {
      "midi": 74,
      "hit": false,
      "t": 197034.34187500025,
      "d": 108.52683333333698,
      "v": 34
    },
    {
      "midi": 69,
      "hit": false,
      "t": 197042.0937916669,
      "d": 81.39512500001001,
      "v": 33
    },
    {
      "midi": 65,
      "hit": false,
      "t": 197045.96975000025,
      "d": 62.01533333334373,
      "v": 33
    },
    {
      "midi": 70,
      "hit": false,
      "t": 197045.96975000025,
      "d": 93.0229999999865,
      "v": 33
    },
    {
      "midi": 65,
      "hit": false,
      "t": 198135.1140416669,
      "d": 232.55749999999534,
      "v": 74
    },
    {
      "midi": 69,
      "hit": false,
      "t": 198142.86595833357,
      "d": 232.55749999999534,
      "v": 74
    },
    {
      "midi": 70,
      "hit": false,
      "t": 198142.86595833357,
      "d": 232.55749999999534,
      "v": 74
    },
    {
      "midi": 74,
      "hit": false,
      "t": 198142.86595833357,
      "d": 232.55749999999534,
      "v": 74
    },
    {
      "midi": 72,
      "hit": false,
      "t": 198600.2290416669,
      "d": 220.92962500001886,
      "v": 84
    },
    {
      "midi": 64,
      "hit": false,
      "t": 198607.98095833356,
      "d": 217.05366666670307,
      "v": 84
    },
    {
      "midi": 67,
      "hit": false,
      "t": 198611.8569166669,
      "d": 182.1700416666863,
      "v": 84
    },
    {
      "midi": 69,
      "hit": false,
      "t": 198615.73287500025,
      "d": 193.7979166666628,
      "v": 84
    },
    {
      "midi": 72,
      "hit": false,
      "t": 198887.0499583336,
      "d": 62.01533333334373,
      "v": 53
    },
    {
      "midi": 64,
      "hit": false,
      "t": 198898.6778333336,
      "d": 62.01533333334373,
      "v": 54
    },
    {
      "midi": 67,
      "hit": false,
      "t": 198902.55379166696,
      "d": 62.01533333334373,
      "v": 54
    },
    {
      "midi": 69,
      "hit": false,
      "t": 198902.55379166696,
      "d": 62.01533333334373,
      "v": 54
    },
    {
      "midi": 65,
      "hit": false,
      "t": 200007.20191666696,
      "d": 189.921958333347,
      "v": 88
    },
    {
      "midi": 74,
      "hit": false,
      "t": 200007.20191666696,
      "d": 213.17770833335817,
      "v": 89
    },
    {
      "midi": 69,
      "hit": false,
      "t": 200007.20191666696,
      "d": 217.05366666670307,
      "v": 89
    },
    {
      "midi": 70,
      "hit": false,
      "t": 200007.20191666696,
      "d": 217.05366666670307,
      "v": 88
    },
    {
      "midi": 69,
      "hit": false,
      "t": 200282.39495833367,
      "d": 120.15470833334257,
      "v": 64
    },
    {
      "midi": 74,
      "hit": false,
      "t": 200294.02283333367,
      "d": 120.15470833334257,
      "v": 64
    },
    {
      "midi": 65,
      "hit": false,
      "t": 200301.77475000033,
      "d": 62.01533333334373,
      "v": 64
    },
    {
      "midi": 70,
      "hit": false,
      "t": 200301.77475000033,
      "d": 62.01533333334373,
      "v": 45
    },
    {
      "midi": 70,
      "hit": false,
      "t": 200735.88208333368,
      "d": 104.65087499999208,
      "v": 50
    },
    {
      "midi": 74,
      "hit": false,
      "t": 200739.75804166702,
      "d": 104.65087499999208,
      "v": 50
    },
    {
      "midi": 65,
      "hit": false,
      "t": 200747.50995833369,
      "d": 69.76725000000442,
      "v": 50
    },
    {
      "midi": 69,
      "hit": false,
      "t": 200751.38591666703,
      "d": 81.39512499998091,
      "v": 50
    },
    {
      "midi": 43,
      "hit": false,
      "t": 201697.11975000033,
      "d": 81.39512500001001,
      "v": 65
    },
    {
      "midi": 67,
      "hit": false,
      "t": 201859.91000000035,
      "d": 298.448791666684,
      "v": 89
    },
    {
      "midi": 76,
      "hit": false,
      "t": 201859.91000000035,
      "d": 341.0843333333614,
      "v": 89
    },
    {
      "midi": 45,
      "hit": false,
      "t": 201859.91000000035,
      "d": 383.7198750000389,
      "v": 89
    },
    {
      "midi": 72,
      "hit": false,
      "t": 201863.7859583337,
      "d": 306.20070833334466,
      "v": 89
    },
    {
      "midi": 46,
      "hit": false,
      "t": 202325.0250000004,
      "d": 356.5881666666537,
      "v": 90
    },
    {
      "midi": 69,
      "hit": false,
      "t": 202325.0250000004,
      "d": 364.3400833333144,
      "v": 89
    },
    {
      "midi": 77,
      "hit": false,
      "t": 202325.0250000004,
      "d": 406.97562499999185,
      "v": 89
    },
    {
      "midi": 74,
      "hit": false,
      "t": 202332.77691666706,
      "d": 375.96795833332,
      "v": 89
    },
    {
      "midi": 70,
      "hit": false,
      "t": 203731.99787500038,
      "d": 244.18537500000093,
      "v": 87
    },
    {
      "midi": 74,
      "hit": false,
      "t": 203739.74979166704,
      "d": 228.68154166667955,
      "v": 88
    },
    {
      "midi": 65,
      "hit": false,
      "t": 203743.62575000038,
      "d": 186.0460000000021,
      "v": 88
    },
    {
      "midi": 69,
      "hit": false,
      "t": 203751.37766666705,
      "d": 201.54983333335258,
      "v": 88
    },
    {
      "midi": 70,
      "hit": false,
      "t": 204030.44666666703,
      "d": 112.40279166665277,
      "v": 54
    },
    {
      "midi": 69,
      "hit": false,
      "t": 204042.07454166704,
      "d": 93.0229999999865,
      "v": 54
    },
    {
      "midi": 74,
      "hit": false,
      "t": 204042.07454166704,
      "d": 108.52683333330788,
      "v": 54
    },
    {
      "midi": 65,
      "hit": false,
      "t": 204053.70241666705,
      "d": 73.64320833332022,
      "v": 54
    },
    {
      "midi": 74,
      "hit": false,
      "t": 204476.18187500036,
      "d": 108.52683333333698,
      "v": 34
    },
    {
      "midi": 69,
      "hit": false,
      "t": 204483.93379166702,
      "d": 81.39512500001001,
      "v": 33
    },
    {
      "midi": 65,
      "hit": false,
      "t": 204487.80975000036,
      "d": 62.01533333334373,
      "v": 33
    },
    {
      "midi": 70,
      "hit": false,
      "t": 204487.80975000036,
      "d": 93.0229999999865,
      "v": 33
    },
    {
      "midi": 65,
      "hit": false,
      "t": 205576.95404166702,
      "d": 232.55749999999534,
      "v": 74
    },
    {
      "midi": 69,
      "hit": false,
      "t": 205584.70595833368,
      "d": 232.55749999999534,
      "v": 74
    },
    {
      "midi": 70,
      "hit": false,
      "t": 205584.70595833368,
      "d": 232.55749999999534,
      "v": 74
    },
    {
      "midi": 74,
      "hit": false,
      "t": 205584.70595833368,
      "d": 232.55749999999534,
      "v": 74
    },
    {
      "midi": 72,
      "hit": false,
      "t": 206042.069041667,
      "d": 220.92962500001886,
      "v": 84
    },
    {
      "midi": 64,
      "hit": false,
      "t": 206049.82095833367,
      "d": 217.05366666670307,
      "v": 84
    },
    {
      "midi": 67,
      "hit": false,
      "t": 206053.69691666702,
      "d": 182.1700416666863,
      "v": 84
    },
    {
      "midi": 69,
      "hit": false,
      "t": 206057.57287500036,
      "d": 193.7979166666628,
      "v": 84
    },
    {
      "midi": 72,
      "hit": false,
      "t": 206328.88995833372,
      "d": 62.01533333334373,
      "v": 53
    },
    {
      "midi": 64,
      "hit": false,
      "t": 206340.51783333372,
      "d": 62.01533333334373,
      "v": 54
    },
    {
      "midi": 67,
      "hit": false,
      "t": 206344.39379166707,
      "d": 62.01533333334373,
      "v": 54
    },
    {
      "midi": 69,
      "hit": false,
      "t": 206344.39379166707,
      "d": 62.01533333334373,
      "v": 54
    },
    {
      "midi": 65,
      "hit": false,
      "t": 207449.04191666708,
      "d": 189.921958333347,
      "v": 88
    },
    {
      "midi": 74,
      "hit": false,
      "t": 207449.04191666708,
      "d": 213.17770833335817,
      "v": 89
    },
    {
      "midi": 69,
      "hit": false,
      "t": 207449.04191666708,
      "d": 217.05366666670307,
      "v": 89
    },
    {
      "midi": 70,
      "hit": false,
      "t": 207449.04191666708,
      "d": 217.05366666670307,
      "v": 88
    },
    {
      "midi": 69,
      "hit": false,
      "t": 207724.23495833378,
      "d": 120.15470833334257,
      "v": 64
    },
    {
      "midi": 74,
      "hit": false,
      "t": 207735.86283333378,
      "d": 120.15470833334257,
      "v": 64
    },
    {
      "midi": 65,
      "hit": false,
      "t": 207743.61475000044,
      "d": 62.01533333334373,
      "v": 64
    },
    {
      "midi": 70,
      "hit": false,
      "t": 207743.61475000044,
      "d": 62.01533333334373,
      "v": 45
    },
    {
      "midi": 70,
      "hit": false,
      "t": 208177.7220833338,
      "d": 104.65087499999208,
      "v": 49
    },
    {
      "midi": 74,
      "hit": false,
      "t": 208181.59804166714,
      "d": 104.65087499999208,
      "v": 50
    },
    {
      "midi": 65,
      "hit": false,
      "t": 208189.3499583338,
      "d": 69.76725000000442,
      "v": 49
    },
    {
      "midi": 69,
      "hit": false,
      "t": 208193.22591666714,
      "d": 81.39512499998091,
      "v": 50
    },
    {
      "midi": 43,
      "hit": false,
      "t": 209138.95975000047,
      "d": 81.39512500001001,
      "v": 65
    },
    {
      "midi": 67,
      "hit": false,
      "t": 209301.7500000005,
      "d": 298.448791666684,
      "v": 89
    },
    {
      "midi": 76,
      "hit": false,
      "t": 209301.7500000005,
      "d": 341.0843333333614,
      "v": 89
    },
    {
      "midi": 45,
      "hit": false,
      "t": 209301.7500000005,
      "d": 383.7198750000389,
      "v": 89
    },
    {
      "midi": 72,
      "hit": false,
      "t": 209305.62595833384,
      "d": 306.20070833334466,
      "v": 89
    },
    {
      "midi": 46,
      "hit": false,
      "t": 209766.86500000054,
      "d": 356.5881666666537,
      "v": 90
    },
    {
      "midi": 69,
      "hit": false,
      "t": 209766.86500000054,
      "d": 364.3400833333144,
      "v": 89
    },
    {
      "midi": 77,
      "hit": false,
      "t": 209766.86500000054,
      "d": 406.97562499999185,
      "v": 89
    },
    {
      "midi": 74,
      "hit": false,
      "t": 209774.6169166672,
      "d": 375.96795833332,
      "v": 89
    },
    {
      "midi": 62,
      "hit": false,
      "t": 210231.98000000053,
      "d": 1565.8871666666528,
      "v": 64
    },
    {
      "midi": 58,
      "hit": false,
      "t": 210231.98000000053,
      "d": 1596.8948333333246,
      "v": 64
    },
    {
      "midi": 65,
      "hit": false,
      "t": 210231.98000000053,
      "d": 1608.5227083333302,
      "v": 64
    },
    {
      "midi": 55,
      "hit": false,
      "t": 210231.98000000053,
      "d": 1627.9024999999965,
      "v": 64
    },
    {
      "midi": 39,
      "hit": false,
      "t": 210231.98000000053,
      "d": 1635.6544166666572,
      "v": 64
    },
    {
      "midi": 46,
      "hit": false,
      "t": 212092.44000000053,
      "d": 1441.8564999999944,
      "v": 64
    },
    {
      "midi": 58,
      "hit": false,
      "t": 212104.06787500053,
      "d": 1503.8718333333381,
      "v": 64
    },
    {
      "midi": 62,
      "hit": false,
      "t": 212111.8197916672,
      "d": 1511.6237499999988,
      "v": 64
    },
    {
      "midi": 57,
      "hit": false,
      "t": 212119.57170833385,
      "d": 1484.4920416666719,
      "v": 64
    },
    {
      "midi": 65,
      "hit": false,
      "t": 212131.19958333386,
      "d": 1507.747791666654,
      "v": 64
    },
    {
      "midi": 39,
      "hit": false,
      "t": 213956.77595833383,
      "d": 1674.4140000000189,
      "v": 64
    },
    {
      "midi": 58,
      "hit": false,
      "t": 213968.40383333384,
      "d": 1639.530375000002,
      "v": 64
    },
    {
      "midi": 62,
      "hit": false,
      "t": 213972.27979166718,
      "d": 1662.7861250000133,
      "v": 64
    },
    {
      "midi": 65,
      "hit": false,
      "t": 213983.9076666672,
      "d": 1643.406333333318,
      "v": 64
    },
    {
      "midi": 55,
      "hit": false,
      "t": 213999.4115000005,
      "d": 1643.406333333347,
      "v": 64
    },
    {
      "midi": 46,
      "hit": false,
      "t": 215805.60808333385,
      "d": 1507.747791666654,
      "v": 64
    },
    {
      "midi": 62,
      "hit": false,
      "t": 215813.3600000005,
      "d": 1480.616083333327,
      "v": 64
    },
    {
      "midi": 65,
      "hit": false,
      "t": 215813.3600000005,
      "d": 1511.6237499999988,
      "v": 64
    },
    {
      "midi": 57,
      "hit": false,
      "t": 215821.11191666717,
      "d": 1496.1199166666775,
      "v": 64
    },
    {
      "midi": 58,
      "hit": false,
      "t": 215821.11191666717,
      "d": 1531.0035416666651,
      "v": 64
    },
    {
      "midi": 39,
      "hit": false,
      "t": 217666.06808333384,
      "d": 643.4090833333612,
      "v": 64
    },
    {
      "midi": 65,
      "hit": false,
      "t": 217669.9440416672,
      "d": 627.9052500000107,
      "v": 64
    },
    {
      "midi": 55,
      "hit": false,
      "t": 217681.5719166672,
      "d": 635.6571666666714,
      "v": 64
    },
    {
      "midi": 58,
      "hit": false,
      "t": 217685.44787500054,
      "d": 585.2697083333333,
      "v": 64
    },
    {
      "midi": 62,
      "hit": false,
      "t": 217697.07575000054,
      "d": 538.75820833334,
      "v": 64
    },
    {
      "midi": 38,
      "hit": false,
      "t": 218604.05000000054,
      "d": 689.9205833333544,
      "v": 64
    },
    {
      "midi": 54,
      "hit": false,
      "t": 218611.8019166672,
      "d": 658.9129166666826,
      "v": 64
    },
    {
      "midi": 60,
      "hit": false,
      "t": 218615.67787500055,
      "d": 620.15333333335,
      "v": 64
    },
    {
      "midi": 57,
      "hit": false,
      "t": 218631.18170833387,
      "d": 573.6418333333568,
      "v": 64
    },
    {
      "midi": 65,
      "hit": false,
      "t": 218635.0576666672,
      "d": 620.15333333335,
      "v": 64
    },
    {
      "midi": 43,
      "hit": false,
      "t": 219499.39637500056,
      "d": 527.1303333333344,
      "v": 64
    },
    {
      "midi": 58,
      "hit": false,
      "t": 219514.9002083339,
      "d": 674.416750000004,
      "v": 64
    },
    {
      "midi": 55,
      "hit": false,
      "t": 219526.5280833339,
      "d": 705.4244166666758,
      "v": 64
    },
    {
      "midi": 62,
      "hit": false,
      "t": 219530.40404166724,
      "d": 682.1686666666646,
      "v": 64
    },
    {
      "midi": 65,
      "hit": false,
      "t": 219545.90787500056,
      "d": 678.2927083333489,
      "v": 64
    },
    {
      "midi": 44,
      "hit": false,
      "t": 220433.5023333339,
      "d": 748.0599583333242,
      "v": 64
    },
    {
      "midi": 54,
      "hit": false,
      "t": 220449.0061666672,
      "d": 767.4397499999905,
      "v": 64
    },
    {
      "midi": 60,
      "hit": false,
      "t": 220460.63404166722,
      "d": 782.9435833333118,
      "v": 64
    },
    {
      "midi": 62,
      "hit": false,
      "t": 220464.51000000056,
      "d": 786.8195416666276,
      "v": 64
    },
    {
      "midi": 65,
      "hit": false,
      "t": 220483.88979166723,
      "d": 786.8195416666276,
      "v": 64
    },
    {
      "midi": 43,
      "hit": false,
      "t": 221390.8640416672,
      "d": 391.47179166667047,
      "v": 83
    },
    {
      "midi": 65,
      "hit": false,
      "t": 222324.97000000053,
      "d": 620.1533333333209,
      "v": 86
    },
    {
      "midi": 69,
      "hit": false,
      "t": 222324.97000000053,
      "d": 620.1533333333209,
      "v": 86
    },
    {
      "midi": 70,
      "hit": false,
      "t": 222324.97000000053,
      "d": 658.9129166666535,
      "v": 86
    },
    {
      "midi": 74,
      "hit": false,
      "t": 222324.97000000053,
      "d": 666.6648333333142,
      "v": 86
    },
    {
      "midi": 70,
      "hit": false,
      "t": 223092.40975000052,
      "d": 120.15470833334257,
      "v": 72
    },
    {
      "midi": 74,
      "hit": false,
      "t": 223096.28570833386,
      "d": 127.90662500000326,
      "v": 72
    },
    {
      "midi": 65,
      "hit": false,
      "t": 223100.1616666672,
      "d": 77.51916666666511,
      "v": 67
    },
    {
      "midi": 69,
      "hit": false,
      "t": 223100.1616666672,
      "d": 85.2710833333258,
      "v": 72
    },
    {
      "midi": 76,
      "hit": false,
      "t": 224177.67808333386,
      "d": 321.70454166666605,
      "v": 83
    },
    {
      "midi": 72,
      "hit": false,
      "t": 224181.5540416672,
      "d": 294.5728333333391,
      "v": 82
    },
    {
      "midi": 57,
      "hit": false,
      "t": 224181.5540416672,
      "d": 302.32474999999977,
      "v": 82
    },
    {
      "midi": 67,
      "hit": false,
      "t": 224181.5540416672,
      "d": 356.5881666666537,
      "v": 82
    },
    {
      "midi": 45,
      "hit": false,
      "t": 224185.43000000055,
      "d": 290.6968749999942,
      "v": 82
    },
    {
      "midi": 46,
      "hit": false,
      "t": 224646.6690416672,
      "d": 418.60349999999744,
      "v": 84
    },
    {
      "midi": 58,
      "hit": false,
      "t": 224650.54500000054,
      "d": 387.5958333333256,
      "v": 84
    },
    {
      "midi": 70,
      "hit": false,
      "t": 224650.54500000054,
      "d": 387.5958333333256,
      "v": 85
    },
    {
      "midi": 65,
      "hit": false,
      "t": 224650.54500000054,
      "d": 403.09966666664695,
      "v": 84
    },
    {
      "midi": 74,
      "hit": false,
      "t": 224650.54500000054,
      "d": 403.09966666664695,
      "v": 84
    },
    {
      "midi": 62,
      "hit": false,
      "t": 225115.66000000053,
      "d": 1565.8871666666528,
      "v": 64
    },
    {
      "midi": 58,
      "hit": false,
      "t": 225115.66000000053,
      "d": 1596.8948333333246,
      "v": 64
    },
    {
      "midi": 65,
      "hit": false,
      "t": 225115.66000000053,
      "d": 1608.5227083333302,
      "v": 64
    },
    {
      "midi": 55,
      "hit": false,
      "t": 225115.66000000053,
      "d": 1627.9024999999965,
      "v": 64
    },
    {
      "midi": 39,
      "hit": false,
      "t": 225115.66000000053,
      "d": 1635.6544166666572,
      "v": 64
    },
    {
      "midi": 46,
      "hit": false,
      "t": 226976.12000000052,
      "d": 1441.8564999999944,
      "v": 64
    },
    {
      "midi": 58,
      "hit": false,
      "t": 226987.74787500052,
      "d": 1503.8718333333381,
      "v": 64
    },
    {
      "midi": 62,
      "hit": false,
      "t": 226995.4997916672,
      "d": 1511.6237499999988,
      "v": 64
    },
    {
      "midi": 57,
      "hit": false,
      "t": 227003.25170833385,
      "d": 1484.4920416666719,
      "v": 64
    },
    {
      "midi": 65,
      "hit": false,
      "t": 227014.87958333385,
      "d": 1507.747791666654,
      "v": 64
    },
    {
      "midi": 39,
      "hit": false,
      "t": 228840.45595833383,
      "d": 1674.4140000000189,
      "v": 64
    },
    {
      "midi": 58,
      "hit": false,
      "t": 228852.08383333383,
      "d": 1639.530375000002,
      "v": 64
    },
    {
      "midi": 62,
      "hit": false,
      "t": 228855.95979166718,
      "d": 1662.7861250000133,
      "v": 64
    },
    {
      "midi": 65,
      "hit": false,
      "t": 228867.58766666718,
      "d": 1643.406333333318,
      "v": 64
    },
    {
      "midi": 55,
      "hit": false,
      "t": 228883.0915000005,
      "d": 1643.406333333347,
      "v": 64
    },
    {
      "midi": 46,
      "hit": false,
      "t": 230689.28808333384,
      "d": 1507.747791666654,
      "v": 64
    },
    {
      "midi": 57,
      "hit": false,
      "t": 230704.79191666716,
      "d": 1496.1199166666775,
      "v": 64
    },
    {
      "midi": 58,
      "hit": false,
      "t": 230704.79191666716,
      "d": 1531.0035416666651,
      "v": 64
    },
    {
      "midi": 62,
      "hit": false,
      "t": 230728.04766666717,
      "d": 1480.616083333327,
      "v": 64
    },
    {
      "midi": 65,
      "hit": false,
      "t": 230728.04766666717,
      "d": 1511.6237499999988,
      "v": 64
    },
    {
      "midi": 39,
      "hit": false,
      "t": 232549.74808333383,
      "d": 643.4090833333612,
      "v": 64
    },
    {
      "midi": 65,
      "hit": false,
      "t": 232553.62404166718,
      "d": 627.9052500000107,
      "v": 64
    },
    {
      "midi": 55,
      "hit": false,
      "t": 232565.25191666718,
      "d": 635.6571666666714,
      "v": 64
    },
    {
      "midi": 58,
      "hit": false,
      "t": 232569.12787500053,
      "d": 585.2697083333333,
      "v": 64
    },
    {
      "midi": 62,
      "hit": false,
      "t": 232580.75575000054,
      "d": 538.75820833334,
      "v": 64
    },
    {
      "midi": 38,
      "hit": false,
      "t": 233487.73000000053,
      "d": 689.9205833333544,
      "v": 64
    },
    {
      "midi": 54,
      "hit": false,
      "t": 233495.4819166672,
      "d": 658.9129166666826,
      "v": 64
    },
    {
      "midi": 60,
      "hit": false,
      "t": 233499.35787500054,
      "d": 620.15333333335,
      "v": 64
    },
    {
      "midi": 57,
      "hit": false,
      "t": 233514.86170833386,
      "d": 573.6418333333568,
      "v": 64
    },
    {
      "midi": 65,
      "hit": false,
      "t": 233518.7376666672,
      "d": 620.15333333335,
      "v": 64
    },
    {
      "midi": 43,
      "hit": false,
      "t": 234383.07637500056,
      "d": 527.1303333333344,
      "v": 64
    },
    {
      "midi": 58,
      "hit": false,
      "t": 234398.58020833388,
      "d": 674.416750000004,
      "v": 64
    },
    {
      "midi": 55,
      "hit": false,
      "t": 234410.20808333388,
      "d": 705.4244166666758,
      "v": 64
    },
    {
      "midi": 62,
      "hit": false,
      "t": 234414.08404166723,
      "d": 682.1686666666646,
      "v": 64
    },
    {
      "midi": 65,
      "hit": false,
      "t": 234429.58787500055,
      "d": 678.2927083333489,
      "v": 64
    },
    {
      "midi": 54,
      "hit": false,
      "t": 235332.68616666723,
      "d": 767.4397500000196,
      "v": 64
    },
    {
      "midi": 44,
      "hit": false,
      "t": 235344.31404166724,
      "d": 748.0599583333533,
      "v": 64
    },
    {
      "midi": 60,
      "hit": false,
      "t": 235344.31404166724,
      "d": 782.9435833333409,
      "v": 64
    },
    {
      "midi": 62,
      "hit": false,
      "t": 235348.19000000058,
      "d": 786.8195416666567,
      "v": 64
    },
    {
      "midi": 65,
      "hit": false,
      "t": 235367.56979166725,
      "d": 786.8195416666567,
      "v": 64
    },
    {
      "midi": 43,
      "hit": false,
      "t": 236305.55170833392,
      "d": 251.93729166666162,
      "v": 64
    },
    {
      "midi": 70,
      "hit": false,
      "t": 236724.15520833392,
      "d": 205.42579166666837,
      "v": 64
    },
    {
      "midi": 65,
      "hit": false,
      "t": 236735.78308333392,
      "d": 217.05366666667396,
      "v": 64
    },
    {
      "midi": 67,
      "hit": false,
      "t": 237208.6500000006,
      "d": 267.441124999983,
      "v": 64
    },
    {
      "midi": 62,
      "hit": false,
      "t": 237216.40191666727,
      "d": 294.57283333331,
      "v": 64
    },
    {
      "midi": 65,
      "hit": false,
      "t": 237673.76500000057,
      "d": 224.80558333333465,
      "v": 64
    },
    {
      "midi": 60,
      "hit": false,
      "t": 237677.6409583339,
      "d": 186.0460000000021,
      "v": 64
    },
    {
      "midi": 62,
      "hit": false,
      "t": 237983.84166666723,
      "d": 779.067624999996,
      "v": 64
    },
    {
      "midi": 67,
      "hit": false,
      "t": 237983.84166666723,
      "d": 810.0752916666679,
      "v": 64
    },
    {
      "midi": 43,
      "hit": false,
      "t": 239053.60616666722,
      "d": 364.3400833333435,
      "v": 64
    },
    {
      "midi": 53,
      "hit": false,
      "t": 239065.23404166722,
      "d": 360.4641250000277,
      "v": 64
    },
    {
      "midi": 58,
      "hit": false,
      "t": 239069.11000000057,
      "d": 329.45645833332674,
      "v": 64
    },
    {
      "midi": 62,
      "hit": false,
      "t": 239069.11000000057,
      "d": 352.7122083333379,
      "v": 64
    },
    {
      "midi": 46,
      "hit": false,
      "t": 239530.34904166724,
      "d": 317.82858333335025,
      "v": 64
    },
    {
      "midi": 53,
      "hit": false,
      "t": 239534.2250000006,
      "d": 286.8209166666784,
      "v": 64
    },
    {
      "midi": 62,
      "hit": false,
      "t": 239534.2250000006,
      "d": 298.448791666684,
      "v": 64
    },
    {
      "midi": 58,
      "hit": false,
      "t": 239534.2250000006,
      "d": 333.33241666667163,
      "v": 64
    },
    {
      "midi": 36,
      "hit": false,
      "t": 239999.34000000058,
      "d": 3209.293500000029,
      "v": 77
    },
    {
      "midi": 48,
      "hit": false,
      "t": 239999.34000000058,
      "d": 3275.1847916666884,
      "v": 77
    },
    {
      "midi": 70,
      "hit": false,
      "t": 241700.88570833392,
      "d": 461.2390416666749,
      "v": 64
    },
    {
      "midi": 75,
      "hit": false,
      "t": 241700.88570833392,
      "d": 461.2390416666749,
      "v": 64
    },
    {
      "midi": 79,
      "hit": false,
      "t": 241700.88570833392,
      "d": 461.2390416666749,
      "v": 64
    },
    {
      "midi": 77,
      "hit": false,
      "t": 242324.9150000006,
      "d": 189.921958333347,
      "v": 64
    },
    {
      "midi": 74,
      "hit": false,
      "t": 242324.9150000006,
      "d": 248.06133333334583,
      "v": 64
    },
    {
      "midi": 69,
      "hit": false,
      "t": 242324.9150000006,
      "d": 259.6892083333514,
      "v": 64
    },
    {
      "midi": 75,
      "hit": false,
      "t": 242790.0300000006,
      "d": 263.5651666666672,
      "v": 64
    },
    {
      "midi": 72,
      "hit": false,
      "t": 242790.0300000006,
      "d": 298.44879166665487,
      "v": 64
    },
    {
      "midi": 67,
      "hit": false,
      "t": 242790.0300000006,
      "d": 321.70454166666605,
      "v": 64
    },
    {
      "midi": 70,
      "hit": false,
      "t": 243255.1450000006,
      "d": 178.2940833333414,
      "v": 64
    },
    {
      "midi": 74,
      "hit": false,
      "t": 243255.1450000006,
      "d": 220.92962500001886,
      "v": 64
    },
    {
      "midi": 65,
      "hit": false,
      "t": 243255.1450000006,
      "d": 251.93729166669073,
      "v": 64
    },
    {
      "midi": 70,
      "hit": false,
      "t": 243720.26000000062,
      "d": 957.3617083333374,
      "v": 64
    },
    {
      "midi": 74,
      "hit": false,
      "t": 243720.26000000062,
      "d": 961.2376666666823,
      "v": 64
    },
    {
      "midi": 77,
      "hit": false,
      "t": 243720.26000000062,
      "d": 961.2376666666823,
      "v": 64
    },
    {
      "midi": 50,
      "hit": false,
      "t": 243720.26000000062,
      "d": 1023.2530000000261,
      "v": 74
    },
    {
      "midi": 43,
      "hit": false,
      "t": 243724.13595833397,
      "d": 1023.2530000000261,
      "v": 76
    },
    {
      "midi": 69,
      "hit": false,
      "t": 245115.60500000068,
      "d": 217.05366666667396,
      "v": 96
    },
    {
      "midi": 70,
      "hit": false,
      "t": 245115.60500000068,
      "d": 228.68154166667955,
      "v": 96
    },
    {
      "midi": 77,
      "hit": false,
      "t": 245115.60500000068,
      "d": 228.68154166667955,
      "v": 96
    },
    {
      "midi": 74,
      "hit": false,
      "t": 245115.60500000068,
      "d": 232.55750000002445,
      "v": 96
    },
    {
      "midi": 77,
      "hit": false,
      "t": 245437.30954166738,
      "d": 158.91429166667513,
      "v": 50
    },
    {
      "midi": 69,
      "hit": false,
      "t": 245448.93741666738,
      "d": 127.90662500000326,
      "v": 50
    },
    {
      "midi": 70,
      "hit": false,
      "t": 245468.31720833405,
      "d": 112.40279166668188,
      "v": 50
    },
    {
      "midi": 74,
      "hit": false,
      "t": 245468.31720833405,
      "d": 120.15470833334257,
      "v": 50
    },
    {
      "midi": 53,
      "hit": false,
      "t": 246507.0740416674,
      "d": 344.9602916666772,
      "v": 82
    },
    {
      "midi": 43,
      "hit": false,
      "t": 246507.0740416674,
      "d": 356.5881666666828,
      "v": 82
    },
    {
      "midi": 58,
      "hit": false,
      "t": 246507.0740416674,
      "d": 368.2160416666884,
      "v": 82
    },
    {
      "midi": 62,
      "hit": false,
      "t": 246510.95000000074,
      "d": 267.4411250000121,
      "v": 82
    },
    {
      "midi": 58,
      "hit": false,
      "t": 246976.06500000076,
      "d": 356.5881666666828,
      "v": 82
    },
    {
      "midi": 62,
      "hit": false,
      "t": 246976.06500000076,
      "d": 360.4641250000277,
      "v": 82
    },
    {
      "midi": 65,
      "hit": false,
      "t": 246976.06500000076,
      "d": 368.2160416666884,
      "v": 82
    },
    {
      "midi": 46,
      "hit": false,
      "t": 246979.9409583341,
      "d": 352.7122083333379,
      "v": 82
    },
    {
      "midi": 36,
      "hit": false,
      "t": 247441.18000000078,
      "d": 3457.3548333333165,
      "v": 74
    },
    {
      "midi": 48,
      "hit": false,
      "t": 247441.18000000078,
      "d": 3527.122083333321,
      "v": 74
    },
    {
      "midi": 67,
      "hit": false,
      "t": 249146.60166666744,
      "d": 387.5958333333256,
      "v": 64
    },
    {
      "midi": 70,
      "hit": false,
      "t": 249146.60166666744,
      "d": 387.5958333333256,
      "v": 64
    },
    {
      "midi": 63,
      "hit": false,
      "t": 249146.60166666744,
      "d": 414.72754166665254,
      "v": 64
    },
    {
      "midi": 69,
      "hit": false,
      "t": 249766.75500000076,
      "d": 298.44879166665487,
      "v": 64
    },
    {
      "midi": 65,
      "hit": false,
      "t": 249766.75500000076,
      "d": 321.70454166666605,
      "v": 64
    },
    {
      "midi": 62,
      "hit": false,
      "t": 249766.75500000076,
      "d": 360.4641249999986,
      "v": 64
    },
    {
      "midi": 67,
      "hit": false,
      "t": 250231.87000000075,
      "d": 263.5651666666672,
      "v": 64
    },
    {
      "midi": 60,
      "hit": false,
      "t": 250231.87000000075,
      "d": 267.4411250000121,
      "v": 64
    },
    {
      "midi": 63,
      "hit": false,
      "t": 250231.87000000075,
      "d": 356.5881666666828,
      "v": 64
    },
    {
      "midi": 62,
      "hit": false,
      "t": 250696.98500000077,
      "d": 232.55749999999534,
      "v": 64
    },
    {
      "midi": 65,
      "hit": false,
      "t": 250696.98500000077,
      "d": 255.81325000000652,
      "v": 64
    },
    {
      "midi": 58,
      "hit": false,
      "t": 250696.98500000077,
      "d": 271.3170833333279,
      "v": 64
    },
    {
      "midi": 62,
      "hit": false,
      "t": 251162.10000000076,
      "d": 968.989583333343,
      "v": 75
    },
    {
      "midi": 60,
      "hit": false,
      "t": 251162.10000000076,
      "d": 999.9972500000149,
      "v": 75
    },
    {
      "midi": 65,
      "hit": false,
      "t": 251162.10000000076,
      "d": 1011.6251250000205,
      "v": 76
    },
    {
      "midi": 69,
      "hit": false,
      "t": 251162.10000000076,
      "d": 1023.2530000000261,
      "v": 75
    },
    {
      "midi": 50,
      "hit": false,
      "t": 251162.10000000076,
      "d": 1259.6864583333663,
      "v": 75
    },
    {
      "midi": 38,
      "hit": false,
      "t": 251162.10000000076,
      "d": 1271.314333333372,
      "v": 75
    },
    {
      "midi": 69,
      "hit": false,
      "t": 252557.4450000008,
      "d": 220.92962499998976,
      "v": 92
    },
    {
      "midi": 67,
      "hit": false,
      "t": 252557.4450000008,
      "d": 240.30941666665603,
      "v": 92
    },
    {
      "midi": 72,
      "hit": false,
      "t": 252557.4450000008,
      "d": 240.30941666665603,
      "v": 92
    },
    {
      "midi": 77,
      "hit": false,
      "t": 252557.4450000008,
      "d": 275.1930416666437,
      "v": 92
    },
    {
      "midi": 72,
      "hit": false,
      "t": 252863.6457083341,
      "d": 96.8989583333605,
      "v": 64
    },
    {
      "midi": 77,
      "hit": false,
      "t": 252867.52166666745,
      "d": 116.27875000002678,
      "v": 64
    },
    {
      "midi": 69,
      "hit": false,
      "t": 252871.3976250008,
      "d": 62.01533333334373,
      "v": 64
    },
    {
      "midi": 67,
      "hit": false,
      "t": 252871.3976250008,
      "d": 69.76725000000442,
      "v": 64
    },
    {
      "midi": 38,
      "hit": false,
      "t": 253937.28616666747,
      "d": 841.0829583333398,
      "v": 64
    },
    {
      "midi": 50,
      "hit": false,
      "t": 253952.7900000008,
      "d": 806.1993333333521,
      "v": 64
    },
    {
      "midi": 57,
      "hit": false,
      "t": 253968.29383333412,
      "d": 325.58050000001094,
      "v": 64
    },
    {
      "midi": 60,
      "hit": false,
      "t": 253976.04575000078,
      "d": 317.82858333335025,
      "v": 64
    },
    {
      "midi": 65,
      "hit": false,
      "t": 253979.92170833412,
      "d": 344.9602916666772,
      "v": 64
    },
    {
      "midi": 65,
      "hit": false,
      "t": 254433.40883333414,
      "d": 372.0920000000042,
      "v": 64
    },
    {
      "midi": 60,
      "hit": false,
      "t": 254445.03670833414,
      "d": 344.9602916666772,
      "v": 64
    },
    {
      "midi": 69,
      "hit": false,
      "t": 254445.03670833414,
      "d": 379.8439166666649,
      "v": 64
    },
    {
      "midi": 36,
      "hit": false,
      "t": 254883.0200000008,
      "d": 3263.5569166666246,
      "v": 74
    },
    {
      "midi": 48,
      "hit": false,
      "t": 254883.0200000008,
      "d": 3306.192458333302,
      "v": 73
    },
    {
      "midi": 67,
      "hit": false,
      "t": 256588.44166666747,
      "d": 313.95262500000536,
      "v": 64
    },
    {
      "midi": 58,
      "hit": false,
      "t": 256588.44166666747,
      "d": 348.836249999993,
      "v": 64
    },
    {
      "midi": 63,
      "hit": false,
      "t": 256588.44166666747,
      "d": 348.836249999993,
      "v": 64
    },
    {
      "midi": 57,
      "hit": false,
      "t": 257208.5950000008,
      "d": 282.9449583333335,
      "v": 64
    },
    {
      "midi": 65,
      "hit": false,
      "t": 257208.5950000008,
      "d": 313.95262500000536,
      "v": 64
    },
    {
      "midi": 62,
      "hit": false,
      "t": 257208.5950000008,
      "d": 321.70454166666605,
      "v": 64
    },
    {
      "midi": 63,
      "hit": false,
      "t": 257673.71000000078,
      "d": 259.6892083333223,
      "v": 64
    },
    {
      "midi": 55,
      "hit": false,
      "t": 257673.71000000078,
      "d": 271.3170833333279,
      "v": 64
    },
    {
      "midi": 60,
      "hit": false,
      "t": 257673.71000000078,
      "d": 271.3170833333279,
      "v": 64
    },
    {
      "midi": 53,
      "hit": false,
      "t": 258138.82500000077,
      "d": 189.921958333347,
      "v": 64
    },
    {
      "midi": 58,
      "hit": false,
      "t": 258138.82500000077,
      "d": 213.17770833335817,
      "v": 64
    },
    {
      "midi": 62,
      "hit": false,
      "t": 258138.82500000077,
      "d": 232.55750000002445,
      "v": 64
    },
    {
      "midi": 58,
      "hit": false,
      "t": 258448.90166666746,
      "d": 872.0906250000116,
      "v": 74
    },
    {
      "midi": 57,
      "hit": false,
      "t": 258448.90166666746,
      "d": 891.4704166666779,
      "v": 72
    },
    {
      "midi": 65,
      "hit": false,
      "t": 258448.90166666746,
      "d": 903.0982916666835,
      "v": 64
    },
    {
      "midi": 62,
      "hit": false,
      "t": 258448.90166666746,
      "d": 910.8502083333442,
      "v": 64
    },
    {
      "midi": 46,
      "hit": false,
      "t": 258448.90166666746,
      "d": 984.4934166666644,
      "v": 73
    },
    {
      "midi": 74,
      "hit": false,
      "t": 259999.2850000008,
      "d": 217.05366666667396,
      "v": 86
    },
    {
      "midi": 70,
      "hit": false,
      "t": 259999.2850000008,
      "d": 232.55749999999534,
      "v": 86
    },
    {
      "midi": 77,
      "hit": false,
      "t": 259999.2850000008,
      "d": 236.43345833334024,
      "v": 86
    },
    {
      "midi": 69,
      "hit": false,
      "t": 259999.2850000008,
      "d": 255.81325000000652,
      "v": 86
    },
    {
      "midi": 77,
      "hit": false,
      "t": 260305.48570833413,
      "d": 124.03066666668747,
      "v": 59
    },
    {
      "midi": 74,
      "hit": false,
      "t": 260305.48570833413,
      "d": 131.78258333334816,
      "v": 59
    },
    {
      "midi": 70,
      "hit": false,
      "t": 260305.48570833413,
      "d": 143.41045833335374,
      "v": 58
    },
    {
      "midi": 69,
      "hit": false,
      "t": 260309.36166666748,
      "d": 131.78258333334816,
      "v": 59
    },
    {
      "midi": 74,
      "hit": false,
      "t": 262782.22308333416,
      "d": 674.4167499999749,
      "v": 86
    },
    {
      "midi": 65,
      "hit": false,
      "t": 262786.0990416675,
      "d": 635.6571666666423,
      "v": 86
    },
    {
      "midi": 63,
      "hit": false,
      "t": 263561.2907083341,
      "d": 492.24670833331766,
      "v": 87
    },
    {
      "midi": 72,
      "hit": false,
      "t": 263561.2907083341,
      "d": 581.3937499999884,
      "v": 87
    },
    {
      "midi": 62,
      "hit": false,
      "t": 264185.32000000076,
      "d": 577.5177916666726,
      "v": 86
    },
    {
      "midi": 70,
      "hit": false,
      "t": 264185.32000000076,
      "d": 736.4320833333186,
      "v": 86
    },
    {
      "midi": 69,
      "hit": false,
      "t": 264956.6357083341,
      "d": 170.5421666666516,
      "v": 85
    },
    {
      "midi": 60,
      "hit": false,
      "t": 264956.6357083341,
      "d": 186.045999999973,
      "v": 85
    },
    {
      "midi": 67,
      "hit": false,
      "t": 265417.8747500007,
      "d": 139.53450000000885,
      "v": 89
    },
    {
      "midi": 58,
      "hit": false,
      "t": 265421.75070833403,
      "d": 147.28641666669864,
      "v": 87
    },
    {
      "midi": 57,
      "hit": false,
      "t": 265580.66500000074,
      "d": 426.35541666665813,
      "v": 86
    },
    {
      "midi": 65,
      "hit": false,
      "t": 265580.66500000074,
      "d": 763.5637916666456,
      "v": 87
    },
    {
      "midi": 67,
      "hit": false,
      "t": 266510.8950000007,
      "d": 461.2390416666749,
      "v": 64
    },
    {
      "midi": 58,
      "hit": false,
      "t": 266510.8950000007,
      "d": 484.49479166668607,
      "v": 70
    },
    {
      "midi": 69,
      "hit": false,
      "t": 267282.21070833405,
      "d": 457.3630833333591,
      "v": 64
    },
    {
      "midi": 60,
      "hit": false,
      "t": 267282.21070833405,
      "d": 488.37075000000186,
      "v": 64
    },
    {
      "midi": 70,
      "hit": false,
      "t": 267906.24000000075,
      "d": 480.61883333331207,
      "v": 64
    },
    {
      "midi": 62,
      "hit": false,
      "t": 267906.24000000075,
      "d": 499.99862500000745,
      "v": 64
    },
    {
      "midi": 69,
      "hit": false,
      "t": 268677.5557083341,
      "d": 112.40279166668188,
      "v": 64
    },
    {
      "midi": 60,
      "hit": false,
      "t": 268677.5557083341,
      "d": 116.27874999999767,
      "v": 64
    },
    {
      "midi": 57,
      "hit": false,
      "t": 269142.6707083341,
      "d": 100.77491666667629,
      "v": 64
    },
    {
      "midi": 65,
      "hit": false,
      "t": 269142.6707083341,
      "d": 104.65087499999208,
      "v": 64
    },
    {
      "midi": 58,
      "hit": false,
      "t": 269301.5850000007,
      "d": 465.1149999999907,
      "v": 59
    },
    {
      "midi": 67,
      "hit": false,
      "t": 269301.5850000007,
      "d": 465.1149999999907,
      "v": 83
    },
    {
      "midi": 53,
      "hit": false,
      "t": 269301.5850000007,
      "d": 1395.344999999972,
      "v": 50
    },
    {
      "midi": 55,
      "hit": false,
      "t": 269301.5850000007,
      "d": 1395.344999999972,
      "v": 51
    },
    {
      "midi": 60,
      "hit": false,
      "t": 269301.5850000007,
      "d": 1395.344999999972,
      "v": 50
    },
    {
      "midi": 65,
      "hit": false,
      "t": 270693.0540416674,
      "d": 151.16237499995623,
      "v": 87
    },
    {
      "midi": 69,
      "hit": false,
      "t": 270693.0540416674,
      "d": 155.03833333327202,
      "v": 88
    },
    {
      "midi": 74,
      "hit": false,
      "t": 270693.0540416674,
      "d": 209.30174999992596,
      "v": 88
    },
    {
      "midi": 70,
      "hit": false,
      "t": 270696.9300000007,
      "d": 162.79024999996182,
      "v": 88
    },
    {
      "midi": 69,
      "hit": false,
      "t": 271003.130708334,
      "d": 77.51916666666511,
      "v": 54
    },
    {
      "midi": 70,
      "hit": false,
      "t": 271003.130708334,
      "d": 100.77491666667629,
      "v": 53
    },
    {
      "midi": 74,
      "hit": false,
      "t": 271003.130708334,
      "d": 124.03066666668747,
      "v": 54
    },
    {
      "midi": 65,
      "hit": false,
      "t": 271007.0066666673,
      "d": 58.13937500002794,
      "v": 54
    },
    {
      "midi": 69,
      "hit": false,
      "t": 271468.245708334,
      "d": 62.01533333334373,
      "v": 40
    },
    {
      "midi": 65,
      "hit": false,
      "t": 271468.245708334,
      "d": 65.89129166665953,
      "v": 40
    },
    {
      "midi": 74,
      "hit": false,
      "t": 271468.245708334,
      "d": 89.1470416666707,
      "v": 37
    },
    {
      "midi": 70,
      "hit": false,
      "t": 271491.50145833404,
      "d": 77.51916666666511,
      "v": 64
    },
    {
      "midi": 74,
      "hit": false,
      "t": 272565.14191666734,
      "d": 217.05366666673217,
      "v": 64
    },
    {
      "midi": 65,
      "hit": false,
      "t": 272576.76979166735,
      "d": 182.1700416667154,
      "v": 64
    },
    {
      "midi": 69,
      "hit": false,
      "t": 272584.52170833404,
      "d": 174.4181250000256,
      "v": 64
    },
    {
      "midi": 70,
      "hit": false,
      "t": 272592.27362500073,
      "d": 182.1700416666572,
      "v": 64
    },
    {
      "midi": 64,
      "hit": false,
      "t": 273018.6290416674,
      "d": 240.30941666668514,
      "v": 64
    },
    {
      "midi": 67,
      "hit": false,
      "t": 273026.3809583341,
      "d": 217.05366666667396,
      "v": 64
    },
    {
      "midi": 72,
      "hit": false,
      "t": 273034.13287500077,
      "d": 236.43345833331114,
      "v": 64
    },
    {
      "midi": 69,
      "hit": false,
      "t": 273045.7607500008,
      "d": 220.92962499998976,
      "v": 64
    },
    {
      "midi": 69,
      "hit": false,
      "t": 273305.4499583341,
      "d": 108.52683333330788,
      "v": 64
    },
    {
      "midi": 72,
      "hit": false,
      "t": 273309.3259166674,
      "d": 124.03066666668747,
      "v": 64
    },
    {
      "midi": 64,
      "hit": false,
      "t": 273328.7057083341,
      "d": 73.64320833329111,
      "v": 64
    },
    {
      "midi": 67,
      "hit": false,
      "t": 273332.5816666674,
      "d": 77.51916666666511,
      "v": 64
    },
    {
      "midi": 43,
      "hit": false,
      "t": 273487.62000000075,
      "d": 193.7979166666628,
      "v": 78
    },
    {
      "midi": 65,
      "hit": false,
      "t": 274410.0980833341,
      "d": 271.3170833333861,
      "v": 64
    },
    {
      "midi": 69,
      "hit": false,
      "t": 274417.8500000008,
      "d": 236.43345833336934,
      "v": 64
    },
    {
      "midi": 70,
      "hit": false,
      "t": 274425.6019166675,
      "d": 232.55749999999534,
      "v": 64
    },
    {
      "midi": 74,
      "hit": false,
      "t": 274433.3538333342,
      "d": 244.18537500000093,
      "v": 64
    },
    {
      "midi": 69,
      "hit": false,
      "t": 274724.05070833414,
      "d": 96.89895833330229,
      "v": 64
    },
    {
      "midi": 70,
      "hit": false,
      "t": 274727.92666666745,
      "d": 108.52683333330788,
      "v": 64
    },
    {
      "midi": 74,
      "hit": false,
      "t": 274739.55454166746,
      "d": 104.65087499999208,
      "v": 64
    },
    {
      "midi": 65,
      "hit": false,
      "t": 274755.0583750008,
      "d": 50.387458333338145,
      "v": 64
    },
    {
      "midi": 65,
      "hit": false,
      "t": 275131.0263333341,
      "d": 77.51916666666511,
      "v": 64
    },
    {
      "midi": 69,
      "hit": false,
      "t": 275134.9022916674,
      "d": 81.39512500003912,
      "v": 64
    },
    {
      "midi": 70,
      "hit": false,
      "t": 275138.77825000073,
      "d": 93.0230000000447,
      "v": 64
    },
    {
      "midi": 74,
      "hit": false,
      "t": 275146.5301666674,
      "d": 89.1470416666707,
      "v": 64
    },
    {
      "midi": 45,
      "hit": false,
      "t": 276274.43404166744,
      "d": 341.0843333333614,
      "v": 77
    },
    {
      "midi": 67,
      "hit": false,
      "t": 276274.43404166744,
      "d": 356.5881666666828,
      "v": 77
    },
    {
      "midi": 72,
      "hit": false,
      "t": 276274.43404166744,
      "d": 356.5881666666828,
      "v": 78
    },
    {
      "midi": 57,
      "hit": false,
      "t": 276274.43404166744,
      "d": 368.2160416666884,
      "v": 77
    },
    {
      "midi": 76,
      "hit": false,
      "t": 276274.43404166744,
      "d": 375.9679583333782,
      "v": 77
    },
    {
      "midi": 69,
      "hit": false,
      "t": 276743.4250000008,
      "d": 422.47945833334234,
      "v": 78
    },
    {
      "midi": 77,
      "hit": false,
      "t": 276743.4250000008,
      "d": 426.35541666665813,
      "v": 77
    },
    {
      "midi": 74,
      "hit": false,
      "t": 276743.4250000008,
      "d": 434.1073333333479,
      "v": 79
    },
    {
      "midi": 46,
      "hit": false,
      "t": 276743.4250000008,
      "d": 461.2390416666749,
      "v": 80
    },
    {
      "midi": 58,
      "hit": false,
      "t": 276751.1769166675,
      "d": 414.72754166665254,
      "v": 80
    },
    {
      "midi": 65,
      "hit": false,
      "t": 278134.89404166746,
      "d": 151.16237499995623,
      "v": 87
    },
    {
      "midi": 69,
      "hit": false,
      "t": 278134.89404166746,
      "d": 155.03833333327202,
      "v": 88
    },
    {
      "midi": 74,
      "hit": false,
      "t": 278134.89404166746,
      "d": 209.30174999992596,
      "v": 88
    },
    {
      "midi": 70,
      "hit": false,
      "t": 278138.7700000008,
      "d": 162.79024999996182,
      "v": 88
    },
    {
      "midi": 69,
      "hit": false,
      "t": 278444.97070833406,
      "d": 77.51916666666511,
      "v": 54
    },
    {
      "midi": 70,
      "hit": false,
      "t": 278444.97070833406,
      "d": 100.77491666667629,
      "v": 53
    },
    {
      "midi": 74,
      "hit": false,
      "t": 278444.97070833406,
      "d": 124.03066666668747,
      "v": 54
    },
    {
      "midi": 65,
      "hit": false,
      "t": 278448.8466666674,
      "d": 58.13937500002794,
      "v": 54
    },
    {
      "midi": 69,
      "hit": false,
      "t": 278910.0857083341,
      "d": 62.01533333334373,
      "v": 40
    },
    {
      "midi": 65,
      "hit": false,
      "t": 278910.0857083341,
      "d": 65.89129166665953,
      "v": 40
    },
    {
      "midi": 74,
      "hit": false,
      "t": 278910.0857083341,
      "d": 89.1470416666707,
      "v": 37
    },
    {
      "midi": 70,
      "hit": false,
      "t": 278933.3414583341,
      "d": 77.51916666666511,
      "v": 64
    },
    {
      "midi": 74,
      "hit": false,
      "t": 280006.9819166674,
      "d": 217.05366666673217,
      "v": 64
    },
    {
      "midi": 65,
      "hit": false,
      "t": 280018.60979166743,
      "d": 182.1700416667154,
      "v": 64
    },
    {
      "midi": 69,
      "hit": false,
      "t": 280026.3617083341,
      "d": 174.4181250000256,
      "v": 64
    },
    {
      "midi": 70,
      "hit": false,
      "t": 280034.1136250008,
      "d": 182.1700416666572,
      "v": 64
    },
    {
      "midi": 64,
      "hit": false,
      "t": 280460.4690416675,
      "d": 240.30941666668514,
      "v": 64
    },
    {
      "midi": 67,
      "hit": false,
      "t": 280468.22095833416,
      "d": 217.05366666667396,
      "v": 64
    },
    {
      "midi": 72,
      "hit": false,
      "t": 280475.97287500085,
      "d": 236.43345833331114,
      "v": 64
    },
    {
      "midi": 69,
      "hit": false,
      "t": 280487.60075000086,
      "d": 220.92962499998976,
      "v": 64
    },
    {
      "midi": 69,
      "hit": false,
      "t": 280747.2899583342,
      "d": 108.52683333330788,
      "v": 64
    },
    {
      "midi": 72,
      "hit": false,
      "t": 280751.1659166675,
      "d": 124.03066666668747,
      "v": 64
    },
    {
      "midi": 64,
      "hit": false,
      "t": 280770.5457083342,
      "d": 73.64320833329111,
      "v": 64
    },
    {
      "midi": 67,
      "hit": false,
      "t": 280774.4216666675,
      "d": 77.51916666666511,
      "v": 64
    },
    {
      "midi": 43,
      "hit": false,
      "t": 280929.46000000084,
      "d": 193.7979166666628,
      "v": 78
    },
    {
      "midi": 65,
      "hit": false,
      "t": 281851.9380833342,
      "d": 271.3170833333861,
      "v": 64
    },
    {
      "midi": 69,
      "hit": false,
      "t": 281859.6900000009,
      "d": 236.43345833336934,
      "v": 64
    },
    {
      "midi": 70,
      "hit": false,
      "t": 281867.44191666757,
      "d": 232.55749999999534,
      "v": 64
    },
    {
      "midi": 74,
      "hit": false,
      "t": 281875.19383333426,
      "d": 244.18537500000093,
      "v": 64
    },
    {
      "midi": 69,
      "hit": false,
      "t": 282165.8907083342,
      "d": 96.89895833330229,
      "v": 64
    },
    {
      "midi": 70,
      "hit": false,
      "t": 282169.76666666754,
      "d": 108.52683333330788,
      "v": 64
    },
    {
      "midi": 74,
      "hit": false,
      "t": 282181.39454166754,
      "d": 104.65087499999208,
      "v": 64
    },
    {
      "midi": 65,
      "hit": false,
      "t": 282196.89837500086,
      "d": 50.387458333338145,
      "v": 64
    },
    {
      "midi": 65,
      "hit": false,
      "t": 282572.8663333342,
      "d": 77.51916666666511,
      "v": 64
    },
    {
      "midi": 69,
      "hit": false,
      "t": 282576.7422916675,
      "d": 81.39512500003912,
      "v": 64
    },
    {
      "midi": 70,
      "hit": false,
      "t": 282580.6182500008,
      "d": 93.0230000000447,
      "v": 64
    },
    {
      "midi": 74,
      "hit": false,
      "t": 282588.3701666675,
      "d": 89.1470416666707,
      "v": 64
    },
    {
      "midi": 45,
      "hit": false,
      "t": 283716.2740416675,
      "d": 341.0843333333614,
      "v": 77
    },
    {
      "midi": 67,
      "hit": false,
      "t": 283716.2740416675,
      "d": 356.5881666666828,
      "v": 77
    },
    {
      "midi": 72,
      "hit": false,
      "t": 283716.2740416675,
      "d": 356.5881666666828,
      "v": 78
    },
    {
      "midi": 57,
      "hit": false,
      "t": 283716.2740416675,
      "d": 368.2160416666884,
      "v": 77
    },
    {
      "midi": 76,
      "hit": false,
      "t": 283716.2740416675,
      "d": 375.9679583333782,
      "v": 77
    },
    {
      "midi": 69,
      "hit": false,
      "t": 284185.2650000009,
      "d": 422.47945833334234,
      "v": 78
    },
    {
      "midi": 77,
      "hit": false,
      "t": 284185.2650000009,
      "d": 426.35541666665813,
      "v": 77
    },
    {
      "midi": 74,
      "hit": false,
      "t": 284185.2650000009,
      "d": 434.1073333333479,
      "v": 79
    },
    {
      "midi": 46,
      "hit": false,
      "t": 284185.2650000009,
      "d": 461.2390416666749,
      "v": 80
    },
    {
      "midi": 58,
      "hit": false,
      "t": 284193.0169166676,
      "d": 414.72754166665254,
      "v": 80
    },
    {
      "midi": 65,
      "hit": false,
      "t": 285576.73404166754,
      "d": 151.16237499995623,
      "v": 87
    },
    {
      "midi": 69,
      "hit": false,
      "t": 285576.73404166754,
      "d": 155.03833333327202,
      "v": 88
    },
    {
      "midi": 74,
      "hit": false,
      "t": 285576.73404166754,
      "d": 209.30174999992596,
      "v": 88
    },
    {
      "midi": 70,
      "hit": false,
      "t": 285580.61000000086,
      "d": 162.79024999996182,
      "v": 88
    },
    {
      "midi": 69,
      "hit": false,
      "t": 285886.81070833415,
      "d": 77.51916666666511,
      "v": 54
    },
    {
      "midi": 70,
      "hit": false,
      "t": 285886.81070833415,
      "d": 100.77491666667629,
      "v": 53
    },
    {
      "midi": 74,
      "hit": false,
      "t": 285886.81070833415,
      "d": 124.03066666668747,
      "v": 54
    },
    {
      "midi": 65,
      "hit": false,
      "t": 285890.68666666746,
      "d": 58.13937500002794,
      "v": 54
    },
    {
      "midi": 69,
      "hit": false,
      "t": 286351.9257083342,
      "d": 62.01533333334373,
      "v": 40
    },
    {
      "midi": 65,
      "hit": false,
      "t": 286351.9257083342,
      "d": 65.89129166665953,
      "v": 40
    },
    {
      "midi": 74,
      "hit": false,
      "t": 286351.9257083342,
      "d": 89.1470416666707,
      "v": 37
    },
    {
      "midi": 70,
      "hit": false,
      "t": 286375.1814583342,
      "d": 77.51916666666511,
      "v": 64
    },
    {
      "midi": 74,
      "hit": false,
      "t": 287448.8219166675,
      "d": 217.05366666673217,
      "v": 64
    },
    {
      "midi": 65,
      "hit": false,
      "t": 287460.4497916675,
      "d": 182.1700416667154,
      "v": 64
    },
    {
      "midi": 69,
      "hit": false,
      "t": 287468.2017083342,
      "d": 174.4181250000256,
      "v": 64
    },
    {
      "midi": 70,
      "hit": false,
      "t": 287475.9536250009,
      "d": 182.1700416666572,
      "v": 64
    },
    {
      "midi": 64,
      "hit": false,
      "t": 287902.30904166755,
      "d": 240.30941666668514,
      "v": 64
    },
    {
      "midi": 67,
      "hit": false,
      "t": 287910.06095833424,
      "d": 217.05366666667396,
      "v": 64
    },
    {
      "midi": 72,
      "hit": false,
      "t": 287917.81287500093,
      "d": 236.43345833331114,
      "v": 64
    },
    {
      "midi": 69,
      "hit": false,
      "t": 287929.44075000094,
      "d": 220.92962499998976,
      "v": 64
    },
    {
      "midi": 69,
      "hit": false,
      "t": 288189.12995833426,
      "d": 108.52683333330788,
      "v": 64
    },
    {
      "midi": 72,
      "hit": false,
      "t": 288193.0059166676,
      "d": 124.03066666668747,
      "v": 64
    },
    {
      "midi": 64,
      "hit": false,
      "t": 288212.3857083343,
      "d": 73.64320833329111,
      "v": 64
    },
    {
      "midi": 67,
      "hit": false,
      "t": 288216.2616666676,
      "d": 77.51916666666511,
      "v": 64
    },
    {
      "midi": 43,
      "hit": false,
      "t": 288371.3000000009,
      "d": 193.7979166666628,
      "v": 78
    },
    {
      "midi": 65,
      "hit": false,
      "t": 289293.77808333427,
      "d": 271.3170833333861,
      "v": 64
    },
    {
      "midi": 69,
      "hit": false,
      "t": 289301.53000000096,
      "d": 236.43345833336934,
      "v": 64
    },
    {
      "midi": 70,
      "hit": false,
      "t": 289309.28191666765,
      "d": 232.55749999999534,
      "v": 64
    },
    {
      "midi": 74,
      "hit": false,
      "t": 289317.03383333434,
      "d": 244.18537500000093,
      "v": 64
    },
    {
      "midi": 69,
      "hit": false,
      "t": 289607.7307083343,
      "d": 96.89895833330229,
      "v": 64
    },
    {
      "midi": 70,
      "hit": false,
      "t": 289611.6066666676,
      "d": 108.52683333330788,
      "v": 64
    },
    {
      "midi": 74,
      "hit": false,
      "t": 289623.2345416676,
      "d": 104.65087499999208,
      "v": 64
    },
    {
      "midi": 65,
      "hit": false,
      "t": 289638.73837500095,
      "d": 50.387458333338145,
      "v": 64
    },
    {
      "midi": 65,
      "hit": false,
      "t": 290014.70633333427,
      "d": 77.51916666666511,
      "v": 64
    },
    {
      "midi": 69,
      "hit": false,
      "t": 290018.5822916676,
      "d": 81.39512500003912,
      "v": 64
    },
    {
      "midi": 70,
      "hit": false,
      "t": 290022.4582500009,
      "d": 93.0230000000447,
      "v": 64
    },
    {
      "midi": 74,
      "hit": false,
      "t": 290030.2101666676,
      "d": 89.1470416666707,
      "v": 64
    },
    {
      "midi": 45,
      "hit": false,
      "t": 291158.1140416676,
      "d": 341.0843333333614,
      "v": 77
    },
    {
      "midi": 67,
      "hit": false,
      "t": 291158.1140416676,
      "d": 356.5881666666828,
      "v": 77
    },
    {
      "midi": 72,
      "hit": false,
      "t": 291158.1140416676,
      "d": 356.5881666666828,
      "v": 78
    },
    {
      "midi": 57,
      "hit": false,
      "t": 291158.1140416676,
      "d": 368.2160416666884,
      "v": 77
    },
    {
      "midi": 76,
      "hit": false,
      "t": 291158.1140416676,
      "d": 375.9679583333782,
      "v": 77
    },
    {
      "midi": 69,
      "hit": false,
      "t": 291627.105000001,
      "d": 422.47945833334234,
      "v": 78
    },
    {
      "midi": 77,
      "hit": false,
      "t": 291627.105000001,
      "d": 426.35541666665813,
      "v": 77
    },
    {
      "midi": 74,
      "hit": false,
      "t": 291627.105000001,
      "d": 434.1073333333479,
      "v": 79
    },
    {
      "midi": 46,
      "hit": false,
      "t": 291627.105000001,
      "d": 461.2390416666749,
      "v": 80
    },
    {
      "midi": 58,
      "hit": false,
      "t": 291634.85691666766,
      "d": 414.72754166665254,
      "v": 80
    },
    {
      "midi": 65,
      "hit": false,
      "t": 293018.5740416676,
      "d": 151.16237499995623,
      "v": 87
    },
    {
      "midi": 69,
      "hit": false,
      "t": 293018.5740416676,
      "d": 155.03833333327202,
      "v": 88
    },
    {
      "midi": 74,
      "hit": false,
      "t": 293018.5740416676,
      "d": 209.30174999992596,
      "v": 88
    },
    {
      "midi": 70,
      "hit": false,
      "t": 293022.45000000094,
      "d": 162.79024999996182,
      "v": 88
    },
    {
      "midi": 69,
      "hit": false,
      "t": 293328.65070833423,
      "d": 77.51916666666511,
      "v": 54
    },
    {
      "midi": 70,
      "hit": false,
      "t": 293328.65070833423,
      "d": 100.77491666667629,
      "v": 53
    },
    {
      "midi": 74,
      "hit": false,
      "t": 293328.65070833423,
      "d": 124.03066666668747,
      "v": 54
    },
    {
      "midi": 65,
      "hit": false,
      "t": 293332.52666666755,
      "d": 58.13937500002794,
      "v": 54
    },
    {
      "midi": 69,
      "hit": false,
      "t": 293793.7657083343,
      "d": 62.01533333334373,
      "v": 40
    },
    {
      "midi": 65,
      "hit": false,
      "t": 293793.7657083343,
      "d": 65.89129166665953,
      "v": 40
    },
    {
      "midi": 74,
      "hit": false,
      "t": 293793.7657083343,
      "d": 89.1470416666707,
      "v": 37
    },
    {
      "midi": 70,
      "hit": false,
      "t": 293817.0214583343,
      "d": 77.51916666666511,
      "v": 64
    },
    {
      "midi": 74,
      "hit": false,
      "t": 294890.6619166676,
      "d": 217.05366666673217,
      "v": 64
    },
    {
      "midi": 65,
      "hit": false,
      "t": 294902.2897916676,
      "d": 182.1700416667154,
      "v": 64
    },
    {
      "midi": 69,
      "hit": false,
      "t": 294910.0417083343,
      "d": 174.4181250000256,
      "v": 64
    },
    {
      "midi": 70,
      "hit": false,
      "t": 294917.793625001,
      "d": 182.1700416666572,
      "v": 64
    },
    {
      "midi": 64,
      "hit": false,
      "t": 295344.14904166764,
      "d": 240.30941666668514,
      "v": 64
    },
    {
      "midi": 67,
      "hit": false,
      "t": 295351.9009583343,
      "d": 217.05366666667396,
      "v": 64
    },
    {
      "midi": 72,
      "hit": false,
      "t": 295359.652875001,
      "d": 236.43345833331114,
      "v": 64
    },
    {
      "midi": 69,
      "hit": false,
      "t": 295371.280750001,
      "d": 220.92962499998976,
      "v": 64
    },
    {
      "midi": 69,
      "hit": false,
      "t": 295630.96995833435,
      "d": 108.52683333330788,
      "v": 64
    },
    {
      "midi": 72,
      "hit": false,
      "t": 295634.84591666766,
      "d": 124.03066666668747,
      "v": 64
    },
    {
      "midi": 64,
      "hit": false,
      "t": 295654.22570833436,
      "d": 73.64320833329111,
      "v": 64
    },
    {
      "midi": 67,
      "hit": false,
      "t": 295658.1016666677,
      "d": 77.51916666666511,
      "v": 64
    },
    {
      "midi": 43,
      "hit": false,
      "t": 295813.140000001,
      "d": 193.7979166666628,
      "v": 78
    },
    {
      "midi": 65,
      "hit": false,
      "t": 296735.61808333435,
      "d": 271.3170833333861,
      "v": 64
    },
    {
      "midi": 69,
      "hit": false,
      "t": 296743.37000000104,
      "d": 236.43345833336934,
      "v": 64
    },
    {
      "midi": 70,
      "hit": false,
      "t": 296751.12191666773,
      "d": 232.55749999999534,
      "v": 64
    },
    {
      "midi": 74,
      "hit": false,
      "t": 296758.8738333344,
      "d": 244.18537500000093,
      "v": 64
    },
    {
      "midi": 69,
      "hit": false,
      "t": 297049.5707083344,
      "d": 96.89895833330229,
      "v": 64
    },
    {
      "midi": 70,
      "hit": false,
      "t": 297053.4466666677,
      "d": 108.52683333330788,
      "v": 64
    },
    {
      "midi": 74,
      "hit": false,
      "t": 297065.0745416677,
      "d": 104.65087499999208,
      "v": 64
    },
    {
      "midi": 65,
      "hit": false,
      "t": 297080.57837500103,
      "d": 50.387458333338145,
      "v": 64
    },
    {
      "midi": 65,
      "hit": false,
      "t": 297456.54633333435,
      "d": 77.51916666666511,
      "v": 64
    },
    {
      "midi": 69,
      "hit": false,
      "t": 297460.42229166767,
      "d": 81.39512500003912,
      "v": 64
    },
    {
      "midi": 70,
      "hit": false,
      "t": 297464.298250001,
      "d": 93.0230000000447,
      "v": 64
    },
    {
      "midi": 74,
      "hit": false,
      "t": 297472.0501666677,
      "d": 89.1470416666707,
      "v": 64
    },
    {
      "midi": 45,
      "hit": false,
      "t": 298599.9540416677,
      "d": 341.0843333333614,
      "v": 77
    },
    {
      "midi": 67,
      "hit": false,
      "t": 298599.9540416677,
      "d": 356.5881666666828,
      "v": 77
    },
    {
      "midi": 72,
      "hit": false,
      "t": 298599.9540416677,
      "d": 356.5881666666828,
      "v": 78
    },
    {
      "midi": 57,
      "hit": false,
      "t": 298599.9540416677,
      "d": 368.2160416666884,
      "v": 77
    },
    {
      "midi": 76,
      "hit": false,
      "t": 298599.9540416677,
      "d": 375.9679583333782,
      "v": 77
    },
    {
      "midi": 69,
      "hit": false,
      "t": 299068.94500000105,
      "d": 422.47945833334234,
      "v": 78
    },
    {
      "midi": 77,
      "hit": false,
      "t": 299068.94500000105,
      "d": 426.35541666665813,
      "v": 77
    },
    {
      "midi": 74,
      "hit": false,
      "t": 299068.94500000105,
      "d": 434.1073333333479,
      "v": 79
    },
    {
      "midi": 46,
      "hit": false,
      "t": 299068.94500000105,
      "d": 461.2390416666749,
      "v": 80
    },
    {
      "midi": 58,
      "hit": false,
      "t": 299076.69691666774,
      "d": 414.72754166665254,
      "v": 80
    },
    {
      "midi": 65,
      "hit": false,
      "t": 300460.4140416677,
      "d": 151.16237499995623,
      "v": 87
    },
    {
      "midi": 69,
      "hit": false,
      "t": 300460.4140416677,
      "d": 155.03833333327202,
      "v": 88
    },
    {
      "midi": 74,
      "hit": false,
      "t": 300460.4140416677,
      "d": 209.30174999992596,
      "v": 88
    },
    {
      "midi": 70,
      "hit": false,
      "t": 300464.290000001,
      "d": 162.79024999996182,
      "v": 88
    },
    {
      "midi": 69,
      "hit": false,
      "t": 300770.4907083343,
      "d": 77.51916666666511,
      "v": 54
    },
    {
      "midi": 70,
      "hit": false,
      "t": 300770.4907083343,
      "d": 100.77491666667629,
      "v": 53
    },
    {
      "midi": 74,
      "hit": false,
      "t": 300770.4907083343,
      "d": 124.03066666668747,
      "v": 54
    },
    {
      "midi": 65,
      "hit": false,
      "t": 300774.3666666676,
      "d": 58.13937500002794,
      "v": 54
    },
    {
      "midi": 69,
      "hit": false,
      "t": 301235.60570833436,
      "d": 62.01533333334373,
      "v": 40
    },
    {
      "midi": 65,
      "hit": false,
      "t": 301235.60570833436,
      "d": 65.89129166665953,
      "v": 40
    },
    {
      "midi": 74,
      "hit": false,
      "t": 301235.60570833436,
      "d": 89.1470416666707,
      "v": 37
    },
    {
      "midi": 70,
      "hit": false,
      "t": 301258.8614583344,
      "d": 77.51916666666511,
      "v": 64
    },
    {
      "midi": 74,
      "hit": false,
      "t": 302332.5019166677,
      "d": 217.05366666673217,
      "v": 64
    },
    {
      "midi": 65,
      "hit": false,
      "t": 302344.1297916677,
      "d": 182.1700416667154,
      "v": 64
    },
    {
      "midi": 69,
      "hit": false,
      "t": 302351.8817083344,
      "d": 174.4181250000256,
      "v": 64
    },
    {
      "midi": 70,
      "hit": false,
      "t": 302359.63362500106,
      "d": 182.1700416666572,
      "v": 64
    },
    {
      "midi": 64,
      "hit": false,
      "t": 302785.9890416677,
      "d": 240.30941666668514,
      "v": 64
    },
    {
      "midi": 67,
      "hit": false,
      "t": 302793.7409583344,
      "d": 217.05366666667396,
      "v": 64
    },
    {
      "midi": 72,
      "hit": false,
      "t": 302801.4928750011,
      "d": 236.43345833331114,
      "v": 64
    },
    {
      "midi": 69,
      "hit": false,
      "t": 302813.1207500011,
      "d": 220.92962499998976,
      "v": 64
    },
    {
      "midi": 69,
      "hit": false,
      "t": 303072.80995833443,
      "d": 108.52683333330788,
      "v": 64
    },
    {
      "midi": 72,
      "hit": false,
      "t": 303076.68591666775,
      "d": 124.03066666668747,
      "v": 64
    },
    {
      "midi": 64,
      "hit": false,
      "t": 303096.06570833444,
      "d": 73.64320833329111,
      "v": 64
    },
    {
      "midi": 67,
      "hit": false,
      "t": 303099.94166666776,
      "d": 77.51916666666511,
      "v": 64
    },
    {
      "midi": 43,
      "hit": false,
      "t": 303254.9800000011,
      "d": 193.7979166666628,
      "v": 78
    },
    {
      "midi": 65,
      "hit": false,
      "t": 304177.45808333444,
      "d": 271.3170833333861,
      "v": 64
    },
    {
      "midi": 69,
      "hit": false,
      "t": 304185.2100000011,
      "d": 236.43345833336934,
      "v": 64
    },
    {
      "midi": 70,
      "hit": false,
      "t": 304192.9619166678,
      "d": 232.55749999999534,
      "v": 64
    },
    {
      "midi": 74,
      "hit": false,
      "t": 304200.7138333345,
      "d": 244.18537500000093,
      "v": 64
    },
    {
      "midi": 69,
      "hit": false,
      "t": 304491.4107083345,
      "d": 96.89895833330229,
      "v": 64
    },
    {
      "midi": 70,
      "hit": false,
      "t": 304495.2866666678,
      "d": 108.52683333330788,
      "v": 64
    },
    {
      "midi": 74,
      "hit": false,
      "t": 304506.9145416678,
      "d": 104.65087499999208,
      "v": 64
    },
    {
      "midi": 65,
      "hit": false,
      "t": 304522.4183750011,
      "d": 50.387458333338145,
      "v": 64
    },
    {
      "midi": 65,
      "hit": false,
      "t": 304898.38633333443,
      "d": 77.51916666666511,
      "v": 64
    },
    {
      "midi": 69,
      "hit": false,
      "t": 304902.26229166775,
      "d": 81.39512500003912,
      "v": 64
    },
    {
      "midi": 70,
      "hit": false,
      "t": 304906.13825000107,
      "d": 93.0230000000447,
      "v": 64
    },
    {
      "midi": 74,
      "hit": false,
      "t": 304913.89016666776,
      "d": 89.1470416666707,
      "v": 64
    },
    {
      "midi": 45,
      "hit": false,
      "t": 306041.7940416678,
      "d": 341.0843333333614,
      "v": 77
    },
    {
      "midi": 67,
      "hit": false,
      "t": 306041.7940416678,
      "d": 356.5881666666828,
      "v": 77
    },
    {
      "midi": 72,
      "hit": false,
      "t": 306041.7940416678,
      "d": 356.5881666666828,
      "v": 78
    },
    {
      "midi": 57,
      "hit": false,
      "t": 306041.7940416678,
      "d": 368.2160416666884,
      "v": 77
    },
    {
      "midi": 76,
      "hit": false,
      "t": 306041.7940416678,
      "d": 375.9679583333782,
      "v": 77
    },
    {
      "midi": 69,
      "hit": false,
      "t": 306510.78500000114,
      "d": 422.47945833334234,
      "v": 78
    },
    {
      "midi": 77,
      "hit": false,
      "t": 306510.78500000114,
      "d": 426.35541666665813,
      "v": 77
    },
    {
      "midi": 74,
      "hit": false,
      "t": 306510.78500000114,
      "d": 434.1073333333479,
      "v": 79
    },
    {
      "midi": 46,
      "hit": false,
      "t": 306510.78500000114,
      "d": 461.2390416666749,
      "v": 80
    },
    {
      "midi": 58,
      "hit": false,
      "t": 306518.5369166678,
      "d": 414.72754166665254,
      "v": 80
    },
    {
      "midi": 65,
      "hit": false,
      "t": 307902.2540416678,
      "d": 151.16237499995623,
      "v": 87
    },
    {
      "midi": 69,
      "hit": false,
      "t": 307902.2540416678,
      "d": 155.03833333327202,
      "v": 88
    },
    {
      "midi": 74,
      "hit": false,
      "t": 307902.2540416678,
      "d": 209.30174999992596,
      "v": 88
    },
    {
      "midi": 70,
      "hit": false,
      "t": 307906.1300000011,
      "d": 162.79024999996182,
      "v": 88
    },
    {
      "midi": 69,
      "hit": false,
      "t": 308212.3307083344,
      "d": 77.51916666666511,
      "v": 54
    },
    {
      "midi": 70,
      "hit": false,
      "t": 308212.3307083344,
      "d": 100.77491666667629,
      "v": 53
    },
    {
      "midi": 74,
      "hit": false,
      "t": 308212.3307083344,
      "d": 124.03066666668747,
      "v": 54
    },
    {
      "midi": 65,
      "hit": false,
      "t": 308216.2066666677,
      "d": 58.13937500002794,
      "v": 54
    },
    {
      "midi": 69,
      "hit": false,
      "t": 308677.44570833445,
      "d": 62.01533333334373,
      "v": 40
    },
    {
      "midi": 65,
      "hit": false,
      "t": 308677.44570833445,
      "d": 65.89129166665953,
      "v": 40
    },
    {
      "midi": 74,
      "hit": false,
      "t": 308677.44570833445,
      "d": 89.1470416666707,
      "v": 37
    },
    {
      "midi": 70,
      "hit": false,
      "t": 308700.70145833446,
      "d": 77.51916666666511,
      "v": 64
    },
    {
      "midi": 74,
      "hit": false,
      "t": 309774.34191666776,
      "d": 217.05366666673217,
      "v": 64
    },
    {
      "midi": 65,
      "hit": false,
      "t": 309785.96979166777,
      "d": 182.1700416667154,
      "v": 64
    },
    {
      "midi": 69,
      "hit": false,
      "t": 309793.72170833446,
      "d": 174.4181250000256,
      "v": 64
    },
    {
      "midi": 70,
      "hit": false,
      "t": 309801.47362500115,
      "d": 182.1700416666572,
      "v": 64
    },
    {
      "midi": 64,
      "hit": false,
      "t": 310227.8290416678,
      "d": 240.30941666668514,
      "v": 64
    },
    {
      "midi": 67,
      "hit": false,
      "t": 310235.5809583345,
      "d": 217.05366666667396,
      "v": 64
    },
    {
      "midi": 72,
      "hit": false,
      "t": 310243.3328750012,
      "d": 236.43345833331114,
      "v": 64
    },
    {
      "midi": 69,
      "hit": false,
      "t": 310254.9607500012,
      "d": 220.92962499998976,
      "v": 64
    },
    {
      "midi": 69,
      "hit": false,
      "t": 310514.6499583345,
      "d": 108.52683333330788,
      "v": 64
    },
    {
      "midi": 72,
      "hit": false,
      "t": 310518.52591666783,
      "d": 124.03066666668747,
      "v": 64
    },
    {
      "midi": 64,
      "hit": false,
      "t": 310537.9057083345,
      "d": 73.64320833329111,
      "v": 64
    },
    {
      "midi": 67,
      "hit": false,
      "t": 310541.78166666784,
      "d": 77.51916666666511,
      "v": 64
    },
    {
      "midi": 43,
      "hit": false,
      "t": 310696.8200000012,
      "d": 193.7979166666628,
      "v": 78
    },
    {
      "midi": 65,
      "hit": false,
      "t": 311619.2980833345,
      "d": 271.3170833333861,
      "v": 64
    },
    {
      "midi": 69,
      "hit": false,
      "t": 311627.0500000012,
      "d": 236.43345833336934,
      "v": 64
    },
    {
      "midi": 70,
      "hit": false,
      "t": 311634.8019166679,
      "d": 232.55749999999534,
      "v": 64
    },
    {
      "midi": 74,
      "hit": false,
      "t": 311642.5538333346,
      "d": 244.18537500000093,
      "v": 64
    },
    {
      "midi": 69,
      "hit": false,
      "t": 311933.25070833456,
      "d": 96.89895833330229,
      "v": 64
    },
    {
      "midi": 70,
      "hit": false,
      "t": 311937.1266666679,
      "d": 108.52683333330788,
      "v": 64
    },
    {
      "midi": 74,
      "hit": false,
      "t": 311948.7545416679,
      "d": 104.65087499999208,
      "v": 64
    },
    {
      "midi": 65,
      "hit": false,
      "t": 311964.2583750012,
      "d": 50.387458333338145,
      "v": 64
    },
    {
      "midi": 65,
      "hit": false,
      "t": 312340.2263333345,
      "d": 77.51916666666511,
      "v": 64
    },
    {
      "midi": 69,
      "hit": false,
      "t": 312344.10229166783,
      "d": 81.39512500003912,
      "v": 64
    },
    {
      "midi": 70,
      "hit": false,
      "t": 312347.97825000115,
      "d": 93.0230000000447,
      "v": 64
    },
    {
      "midi": 74,
      "hit": false,
      "t": 312355.73016666784,
      "d": 89.1470416666707,
      "v": 64
    },
    {
      "midi": 45,
      "hit": false,
      "t": 313483.63404166786,
      "d": 341.0843333333032,
      "v": 77
    },
    {
      "midi": 67,
      "hit": false,
      "t": 313483.63404166786,
      "d": 356.5881666666246,
      "v": 77
    },
    {
      "midi": 72,
      "hit": false,
      "t": 313483.63404166786,
      "d": 356.5881666666246,
      "v": 78
    },
    {
      "midi": 57,
      "hit": false,
      "t": 313483.63404166786,
      "d": 368.2160416666302,
      "v": 77
    },
    {
      "midi": 76,
      "hit": false,
      "t": 313483.63404166786,
      "d": 375.96795833332,
      "v": 77
    },
    {
      "midi": 69,
      "hit": false,
      "t": 313952.62500000116,
      "d": 422.47945833334234,
      "v": 78
    },
    {
      "midi": 77,
      "hit": false,
      "t": 313952.62500000116,
      "d": 426.35541666665813,
      "v": 77
    },
    {
      "midi": 74,
      "hit": false,
      "t": 313952.62500000116,
      "d": 434.1073333333479,
      "v": 79
    },
    {
      "midi": 46,
      "hit": false,
      "t": 313952.62500000116,
      "d": 461.2390416666749,
      "v": 80
    },
    {
      "midi": 58,
      "hit": false,
      "t": 313960.37691666785,
      "d": 414.72754166665254,
      "v": 80
    },
    {
      "midi": 65,
      "hit": false,
      "t": 315344.0940416678,
      "d": 151.16237499995623,
      "v": 87
    },
    {
      "midi": 69,
      "hit": false,
      "t": 315344.0940416678,
      "d": 155.03833333327202,
      "v": 88
    },
    {
      "midi": 74,
      "hit": false,
      "t": 315344.0940416678,
      "d": 209.30174999992596,
      "v": 88
    },
    {
      "midi": 70,
      "hit": false,
      "t": 315347.97000000114,
      "d": 162.79024999996182,
      "v": 88
    },
    {
      "midi": 69,
      "hit": false,
      "t": 315654.1707083344,
      "d": 77.51916666666511,
      "v": 54
    },
    {
      "midi": 70,
      "hit": false,
      "t": 315654.1707083344,
      "d": 100.77491666667629,
      "v": 53
    },
    {
      "midi": 74,
      "hit": false,
      "t": 315654.1707083344,
      "d": 124.03066666668747,
      "v": 54
    },
    {
      "midi": 65,
      "hit": false,
      "t": 315658.04666666774,
      "d": 58.13937500002794,
      "v": 54
    },
    {
      "midi": 69,
      "hit": false,
      "t": 316119.2857083345,
      "d": 62.01533333334373,
      "v": 40
    },
    {
      "midi": 65,
      "hit": false,
      "t": 316119.2857083345,
      "d": 65.89129166665953,
      "v": 40
    },
    {
      "midi": 74,
      "hit": false,
      "t": 316119.2857083345,
      "d": 89.1470416666707,
      "v": 37
    },
    {
      "midi": 70,
      "hit": false,
      "t": 316142.5414583345,
      "d": 77.51916666666511,
      "v": 64
    },
    {
      "midi": 74,
      "hit": false,
      "t": 317216.18191666773,
      "d": 217.05366666679038,
      "v": 64
    },
    {
      "midi": 65,
      "hit": false,
      "t": 317227.80979166774,
      "d": 182.1700416667736,
      "v": 64
    },
    {
      "midi": 69,
      "hit": false,
      "t": 317235.5617083344,
      "d": 174.41812500008382,
      "v": 64
    },
    {
      "midi": 70,
      "hit": false,
      "t": 317243.3136250011,
      "d": 182.1700416667154,
      "v": 64
    },
    {
      "midi": 64,
      "hit": false,
      "t": 317669.6690416679,
      "d": 240.30941666668514,
      "v": 64
    },
    {
      "midi": 67,
      "hit": false,
      "t": 317677.4209583346,
      "d": 217.05366666667396,
      "v": 64
    },
    {
      "midi": 72,
      "hit": false,
      "t": 317685.17287500127,
      "d": 236.43345833331114,
      "v": 64
    },
    {
      "midi": 69,
      "hit": false,
      "t": 317696.8007500013,
      "d": 220.92962499998976,
      "v": 64
    },
    {
      "midi": 69,
      "hit": false,
      "t": 317956.4899583346,
      "d": 108.52683333324967,
      "v": 64
    },
    {
      "midi": 72,
      "hit": false,
      "t": 317960.3659166679,
      "d": 124.03066666662926,
      "v": 64
    },
    {
      "midi": 64,
      "hit": false,
      "t": 317979.74570833455,
      "d": 73.64320833329111,
      "v": 64
    },
    {
      "midi": 67,
      "hit": false,
      "t": 317983.62166666787,
      "d": 77.51916666666511,
      "v": 64
    },
    {
      "midi": 43,
      "hit": false,
      "t": 318138.6600000012,
      "d": 193.7979166666628,
      "v": 78
    },
    {
      "midi": 65,
      "hit": false,
      "t": 319061.1380833346,
      "d": 271.3170833333861,
      "v": 64
    },
    {
      "midi": 69,
      "hit": false,
      "t": 319068.8900000013,
      "d": 236.43345833336934,
      "v": 64
    },
    {
      "midi": 70,
      "hit": false,
      "t": 319076.641916668,
      "d": 232.55749999999534,
      "v": 64
    },
    {
      "midi": 74,
      "hit": false,
      "t": 319084.3938333347,
      "d": 244.18537500000093,
      "v": 64
    },
    {
      "midi": 69,
      "hit": false,
      "t": 319375.09070833464,
      "d": 96.89895833330229,
      "v": 64
    },
    {
      "midi": 70,
      "hit": false,
      "t": 319378.96666666795,
      "d": 108.52683333330788,
      "v": 64
    },
    {
      "midi": 74,
      "hit": false,
      "t": 319390.59454166796,
      "d": 104.65087499999208,
      "v": 64
    },
    {
      "midi": 65,
      "hit": false,
      "t": 319406.0983750013,
      "d": 50.387458333338145,
      "v": 64
    },
    {
      "midi": 65,
      "hit": false,
      "t": 319782.06633333466,
      "d": 77.51916666666511,
      "v": 64
    },
    {
      "midi": 69,
      "hit": false,
      "t": 319785.942291668,
      "d": 81.39512500003912,
      "v": 64
    },
    {
      "midi": 70,
      "hit": false,
      "t": 319789.8182500013,
      "d": 93.0230000000447,
      "v": 64
    },
    {
      "midi": 74,
      "hit": false,
      "t": 319797.570166668,
      "d": 89.1470416666707,
      "v": 64
    },
    {
      "midi": 45,
      "hit": false,
      "t": 320925.47404166794,
      "d": 341.0843333333032,
      "v": 77
    },
    {
      "midi": 67,
      "hit": false,
      "t": 320925.47404166794,
      "d": 356.5881666666246,
      "v": 77
    },
    {
      "midi": 72,
      "hit": false,
      "t": 320925.47404166794,
      "d": 356.5881666666246,
      "v": 78
    },
    {
      "midi": 57,
      "hit": false,
      "t": 320925.47404166794,
      "d": 368.2160416666302,
      "v": 77
    },
    {
      "midi": 76,
      "hit": false,
      "t": 320925.47404166794,
      "d": 375.96795833332,
      "v": 77
    },
    {
      "midi": 69,
      "hit": false,
      "t": 321394.46500000125,
      "d": 422.47945833334234,
      "v": 78
    },
    {
      "midi": 77,
      "hit": false,
      "t": 321394.46500000125,
      "d": 426.35541666665813,
      "v": 77
    },
    {
      "midi": 74,
      "hit": false,
      "t": 321394.46500000125,
      "d": 434.1073333333479,
      "v": 79
    },
    {
      "midi": 46,
      "hit": false,
      "t": 321394.46500000125,
      "d": 461.2390416666749,
      "v": 80
    },
    {
      "midi": 58,
      "hit": false,
      "t": 321402.21691666794,
      "d": 414.72754166665254,
      "v": 80
    },
    {
      "midi": 65,
      "hit": false,
      "t": 322785.9340416679,
      "d": 151.16237499995623,
      "v": 87
    },
    {
      "midi": 69,
      "hit": false,
      "t": 322785.9340416679,
      "d": 155.03833333327202,
      "v": 88
    },
    {
      "midi": 74,
      "hit": false,
      "t": 322785.9340416679,
      "d": 209.30174999992596,
      "v": 88
    },
    {
      "midi": 70,
      "hit": false,
      "t": 322789.8100000012,
      "d": 162.79024999996182,
      "v": 88
    },
    {
      "midi": 69,
      "hit": false,
      "t": 323096.0107083345,
      "d": 77.51916666666511,
      "v": 54
    },
    {
      "midi": 70,
      "hit": false,
      "t": 323096.0107083345,
      "d": 100.77491666667629,
      "v": 53
    },
    {
      "midi": 74,
      "hit": false,
      "t": 323096.0107083345,
      "d": 124.03066666668747,
      "v": 54
    },
    {
      "midi": 65,
      "hit": false,
      "t": 323099.8866666678,
      "d": 58.13937500002794,
      "v": 54
    },
    {
      "midi": 69,
      "hit": false,
      "t": 323561.1257083345,
      "d": 62.01533333334373,
      "v": 40
    },
    {
      "midi": 65,
      "hit": false,
      "t": 323561.1257083345,
      "d": 65.89129166665953,
      "v": 40
    },
    {
      "midi": 74,
      "hit": false,
      "t": 323561.1257083345,
      "d": 89.1470416666707,
      "v": 37
    },
    {
      "midi": 70,
      "hit": false,
      "t": 323584.3814583345,
      "d": 77.51916666666511,
      "v": 64
    },
    {
      "midi": 74,
      "hit": false,
      "t": 324658.0219166679,
      "d": 217.05366666673217,
      "v": 64
    },
    {
      "midi": 65,
      "hit": false,
      "t": 324669.6497916679,
      "d": 182.1700416667154,
      "v": 64
    },
    {
      "midi": 69,
      "hit": false,
      "t": 324677.40170833457,
      "d": 174.4181250000256,
      "v": 64
    },
    {
      "midi": 70,
      "hit": false,
      "t": 324685.15362500126,
      "d": 182.1700416666572,
      "v": 64
    },
    {
      "midi": 64,
      "hit": false,
      "t": 325111.509041668,
      "d": 240.30941666668514,
      "v": 64
    },
    {
      "midi": 67,
      "hit": false,
      "t": 325119.26095833466,
      "d": 217.05366666667396,
      "v": 64
    },
    {
      "midi": 72,
      "hit": false,
      "t": 325127.01287500135,
      "d": 236.43345833331114,
      "v": 64
    },
    {
      "midi": 69,
      "hit": false,
      "t": 325138.64075000136,
      "d": 220.92962499998976,
      "v": 64
    },
    {
      "midi": 69,
      "hit": false,
      "t": 325398.3299583347,
      "d": 108.52683333336608,
      "v": 64
    },
    {
      "midi": 72,
      "hit": false,
      "t": 325402.205916668,
      "d": 124.03066666674567,
      "v": 64
    },
    {
      "midi": 64,
      "hit": false,
      "t": 325421.5857083347,
      "d": 73.64320833334932,
      "v": 64
    },
    {
      "midi": 67,
      "hit": false,
      "t": 325425.461666668,
      "d": 77.51916666672332,
      "v": 64
    },
    {
      "midi": 43,
      "hit": false,
      "t": 325580.5000000014,
      "d": 193.7979166666628,
      "v": 78
    },
    {
      "midi": 65,
      "hit": false,
      "t": 326502.97808333475,
      "d": 271.3170833333861,
      "v": 64
    },
    {
      "midi": 69,
      "hit": false,
      "t": 326510.73000000144,
      "d": 236.43345833336934,
      "v": 64
    },
    {
      "midi": 70,
      "hit": false,
      "t": 326518.4819166681,
      "d": 232.55749999999534,
      "v": 64
    },
    {
      "midi": 74,
      "hit": false,
      "t": 326526.2338333348,
      "d": 244.18537500000093,
      "v": 64
    },
    {
      "midi": 69,
      "hit": false,
      "t": 326816.9307083348,
      "d": 96.89895833330229,
      "v": 64
    },
    {
      "midi": 70,
      "hit": false,
      "t": 326820.8066666681,
      "d": 108.52683333330788,
      "v": 64
    },
    {
      "midi": 74,
      "hit": false,
      "t": 326832.4345416681,
      "d": 104.65087499999208,
      "v": 64
    },
    {
      "midi": 65,
      "hit": false,
      "t": 326847.9383750014,
      "d": 50.387458333338145,
      "v": 64
    },
    {
      "midi": 65,
      "hit": false,
      "t": 327223.9063333348,
      "d": 77.51916666666511,
      "v": 64
    },
    {
      "midi": 69,
      "hit": false,
      "t": 327227.7822916681,
      "d": 81.39512500003912,
      "v": 64
    },
    {
      "midi": 70,
      "hit": false,
      "t": 327231.65825000143,
      "d": 93.0230000000447,
      "v": 64
    },
    {
      "midi": 74,
      "hit": false,
      "t": 327239.4101666681,
      "d": 89.1470416666707,
      "v": 64
    },
    {
      "midi": 45,
      "hit": false,
      "t": 328367.31404166814,
      "d": 341.0843333333614,
      "v": 77
    },
    {
      "midi": 67,
      "hit": false,
      "t": 328367.31404166814,
      "d": 356.5881666666828,
      "v": 77
    },
    {
      "midi": 72,
      "hit": false,
      "t": 328367.31404166814,
      "d": 356.5881666666828,
      "v": 78
    },
    {
      "midi": 57,
      "hit": false,
      "t": 328367.31404166814,
      "d": 368.2160416666884,
      "v": 77
    },
    {
      "midi": 76,
      "hit": false,
      "t": 328367.31404166814,
      "d": 375.9679583333782,
      "v": 77
    },
    {
      "midi": 69,
      "hit": false,
      "t": 328836.3050000015,
      "d": 422.47945833334234,
      "v": 78
    },
    {
      "midi": 77,
      "hit": false,
      "t": 328836.3050000015,
      "d": 426.35541666665813,
      "v": 77
    },
    {
      "midi": 74,
      "hit": false,
      "t": 328836.3050000015,
      "d": 434.1073333333479,
      "v": 79
    },
    {
      "midi": 46,
      "hit": false,
      "t": 328836.3050000015,
      "d": 461.2390416666749,
      "v": 80
    },
    {
      "midi": 58,
      "hit": false,
      "t": 328844.0569166682,
      "d": 414.72754166665254,
      "v": 80
    }
  ]
}