{
  "jsonPath": "Animes/Revolutionary Girl Utena MIDI Collection/absolute-destiny-apocalipsy.json",
  "path": "Animes\\Revolutionary Girl Utena MIDI Collection\\Absolute Destiny Apocalipsy.mid",
  "name": "Absolute Destiny Apocalipsy",
  "difficulty": "Advanced",
  "bpm": 93.00004185001883,
  "notes": [
    {
      "midi": 45,
      "hit": false,
      "t": 3809.5239999999994,
      "d": 7619.048000000001,
      "v": 110
    },
    {
      "midi": 57,
      "hit": false,
      "t": 3809.5239999999994,
      "d": 7619.048000000001,
      "v": 110
    },
    {
      "midi": 45,
      "hit": false,
      "t": 3809.5239999999994,
      "d": 952.3810000000003,
      "v": 106
    },
    {
      "midi": 48,
      "hit": false,
      "t": 3833.3335249999996,
      "d": 952.3809999999999,
      "v": 106
    },
    {
      "midi": 72,
      "hit": false,
      "t": 4761.905,
      "d": 912.6984583333333,
      "v": 107
    },
    {
      "midi": 69,
      "hit": false,
      "t": 4761.905,
      "d": 912.6984583333333,
      "v": 107
    },
    {
      "midi": 72,
      "hit": false,
      "t": 4761.905,
      "d": 912.6984583333333,
      "v": 110
    },
    {
      "midi": 69,
      "hit": false,
      "t": 4761.905,
      "d": 912.6984583333333,
      "v": 110
    },
    {
      "midi": 72,
      "hit": false,
      "t": 4761.905,
      "d": 912.6984583333333,
      "v": 107
    },
    {
      "midi": 69,
      "hit": false,
      "t": 4761.905,
      "d": 912.6984583333333,
      "v": 107
    },
    {
      "midi": 72,
      "hit": false,
      "t": 5714.286,
      "d": 912.6984583333333,
      "v": 107
    },
    {
      "midi": 69,
      "hit": false,
      "t": 5714.286,
      "d": 912.6984583333333,
      "v": 107
    },
    {
      "midi": 72,
      "hit": false,
      "t": 5714.286,
      "d": 912.6984583333333,
      "v": 103
    },
    {
      "midi": 69,
      "hit": false,
      "t": 5714.286,
      "d": 912.6984583333333,
      "v": 103
    },
    {
      "midi": 72,
      "hit": false,
      "t": 5714.286,
      "d": 912.6984583333333,
      "v": 107
    },
    {
      "midi": 69,
      "hit": false,
      "t": 5714.286,
      "d": 912.6984583333333,
      "v": 107
    },
    {
      "midi": 71,
      "hit": false,
      "t": 6666.667,
      "d": 1190.4762499999997,
      "v": 110
    },
    {
      "midi": 68,
      "hit": false,
      "t": 6666.667,
      "d": 1190.4762499999997,
      "v": 110
    },
    {
      "midi": 71,
      "hit": false,
      "t": 6666.667,
      "d": 1190.4762499999997,
      "v": 110
    },
    {
      "midi": 68,
      "hit": false,
      "t": 6666.667,
      "d": 1190.4762499999997,
      "v": 110
    },
    {
      "midi": 71,
      "hit": false,
      "t": 6666.667,
      "d": 1190.4762499999997,
      "v": 110
    },
    {
      "midi": 68,
      "hit": false,
      "t": 6666.667,
      "d": 1190.4762499999997,
      "v": 110
    },
    {
      "midi": 72,
      "hit": false,
      "t": 8571.429,
      "d": 912.6984583333324,
      "v": 111
    },
    {
      "midi": 69,
      "hit": false,
      "t": 8571.429,
      "d": 912.6984583333324,
      "v": 111
    },
    {
      "midi": 72,
      "hit": false,
      "t": 8571.429,
      "d": 912.6984583333324,
      "v": 102
    },
    {
      "midi": 69,
      "hit": false,
      "t": 8571.429,
      "d": 912.6984583333324,
      "v": 102
    },
    {
      "midi": 72,
      "hit": false,
      "t": 8571.429,
      "d": 912.6984583333324,
      "v": 111
    },
    {
      "midi": 69,
      "hit": false,
      "t": 8571.429,
      "d": 912.6984583333324,
      "v": 111
    },
    {
      "midi": 71,
      "hit": false,
      "t": 9523.81,
      "d": 436.5079583333336,
      "v": 107
    },
    {
      "midi": 68,
      "hit": false,
      "t": 9523.81,
      "d": 436.5079583333336,
      "v": 107
    },
    {
      "midi": 71,
      "hit": false,
      "t": 9523.81,
      "d": 436.5079583333336,
      "v": 110
    },
    {
      "midi": 68,
      "hit": false,
      "t": 9523.81,
      "d": 436.5079583333336,
      "v": 110
    },
    {
      "midi": 71,
      "hit": false,
      "t": 9523.81,
      "d": 436.5079583333336,
      "v": 107
    },
    {
      "midi": 68,
      "hit": false,
      "t": 9523.81,
      "d": 436.5079583333336,
      "v": 107
    },
    {
      "midi": 72,
      "hit": false,
      "t": 10000.0005,
      "d": 436.5079583333336,
      "v": 108
    },
    {
      "midi": 69,
      "hit": false,
      "t": 10000.0005,
      "d": 436.5079583333336,
      "v": 108
    },
    {
      "midi": 72,
      "hit": false,
      "t": 10000.0005,
      "d": 436.5079583333336,
      "v": 110
    },
    {
      "midi": 69,
      "hit": false,
      "t": 10000.0005,
      "d": 436.5079583333336,
      "v": 110
    },
    {
      "midi": 72,
      "hit": false,
      "t": 10000.0005,
      "d": 436.5079583333336,
      "v": 108
    },
    {
      "midi": 69,
      "hit": false,
      "t": 10000.0005,
      "d": 436.5079583333336,
      "v": 108
    },
    {
      "midi": 74,
      "hit": false,
      "t": 10476.191,
      "d": 1190.4762499999997,
      "v": 112
    },
    {
      "midi": 71,
      "hit": false,
      "t": 10476.191,
      "d": 1190.4762499999997,
      "v": 112
    },
    {
      "midi": 74,
      "hit": false,
      "t": 10476.191,
      "d": 1190.4762499999997,
      "v": 112
    },
    {
      "midi": 71,
      "hit": false,
      "t": 10476.191,
      "d": 1190.4762499999997,
      "v": 112
    },
    {
      "midi": 74,
      "hit": false,
      "t": 10476.191,
      "d": 1190.4762499999997,
      "v": 112
    },
    {
      "midi": 71,
      "hit": false,
      "t": 10476.191,
      "d": 1190.4762499999997,
      "v": 112
    },
    {
      "midi": 45,
      "hit": false,
      "t": 10952.3815,
      "d": 119.04762500000106,
      "v": 105
    },
    {
      "midi": 48,
      "hit": false,
      "t": 10976.191025,
      "d": 119.04762500000106,
      "v": 105
    },
    {
      "midi": 45,
      "hit": false,
      "t": 11190.476750000002,
      "d": 119.04762500000106,
      "v": 105
    },
    {
      "midi": 48,
      "hit": false,
      "t": 11214.286275000002,
      "d": 119.04762500000106,
      "v": 105
    },
    {
      "midi": 45,
      "hit": false,
      "t": 11428.572,
      "d": 7619.047999999999,
      "v": 105
    },
    {
      "midi": 57,
      "hit": false,
      "t": 11428.572,
      "d": 7619.047999999999,
      "v": 105
    },
    {
      "midi": 45,
      "hit": false,
      "t": 11428.572000000004,
      "d": 952.3810000000012,
      "v": 127
    },
    {
      "midi": 48,
      "hit": false,
      "t": 11452.381525000004,
      "d": 952.3810000000012,
      "v": 127
    },
    {
      "midi": 72,
      "hit": false,
      "t": 12380.953000000001,
      "d": 912.6984583333324,
      "v": 105
    },
    {
      "midi": 69,
      "hit": false,
      "t": 12380.953000000001,
      "d": 912.6984583333324,
      "v": 105
    },
    {
      "midi": 72,
      "hit": false,
      "t": 12380.953000000001,
      "d": 912.6984583333324,
      "v": 105
    },
    {
      "midi": 69,
      "hit": false,
      "t": 12380.953000000001,
      "d": 912.6984583333324,
      "v": 105
    },
    {
      "midi": 72,
      "hit": false,
      "t": 12380.953000000001,
      "d": 912.6984583333324,
      "v": 105
    },
    {
      "midi": 69,
      "hit": false,
      "t": 12380.953000000001,
      "d": 912.6984583333324,
      "v": 105
    },
    {
      "midi": 72,
      "hit": false,
      "t": 13333.334,
      "d": 912.6984583333342,
      "v": 107
    },
    {
      "midi": 69,
      "hit": false,
      "t": 13333.334,
      "d": 912.6984583333342,
      "v": 107
    },
    {
      "midi": 72,
      "hit": false,
      "t": 13333.334,
      "d": 912.6984583333342,
      "v": 110
    },
    {
      "midi": 69,
      "hit": false,
      "t": 13333.334,
      "d": 912.6984583333342,
      "v": 110
    },
    {
      "midi": 72,
      "hit": false,
      "t": 13333.334,
      "d": 912.6984583333342,
      "v": 107
    },
    {
      "midi": 69,
      "hit": false,
      "t": 13333.334,
      "d": 912.6984583333342,
      "v": 107
    },
    {
      "midi": 71,
      "hit": false,
      "t": 14285.715000000002,
      "d": 1190.4762499999997,
      "v": 113
    },
    {
      "midi": 68,
      "hit": false,
      "t": 14285.715000000002,
      "d": 1190.4762499999997,
      "v": 113
    },
    {
      "midi": 71,
      "hit": false,
      "t": 14285.715000000002,
      "d": 1190.4762499999997,
      "v": 114
    },
    {
      "midi": 68,
      "hit": false,
      "t": 14285.715000000002,
      "d": 1190.4762499999997,
      "v": 114
    },
    {
      "midi": 71,
      "hit": false,
      "t": 14285.715000000002,
      "d": 1190.4762499999997,
      "v": 113
    },
    {
      "midi": 68,
      "hit": false,
      "t": 14285.715000000002,
      "d": 1190.4762499999997,
      "v": 113
    },
    {
      "midi": 59,
      "hit": false,
      "t": 14579.365808333338,
      "d": 23.809525000000576,
      "v": 33
    },
    {
      "midi": 59,
      "hit": false,
      "t": 14650.794383333337,
      "d": 23.809525000000576,
      "v": 34
    },
    {
      "midi": 59,
      "hit": false,
      "t": 14714.286450000005,
      "d": 23.809525000000576,
      "v": 35
    },
    {
      "midi": 59,
      "hit": false,
      "t": 14793.65153333334,
      "d": 23.809525000000576,
      "v": 38
    },
    {
      "midi": 59,
      "hit": false,
      "t": 14865.080108333339,
      "d": 23.809525000000576,
      "v": 38
    },
    {
      "midi": 59,
      "hit": false,
      "t": 14944.445191666673,
      "d": 23.809525000000576,
      "v": 39
    },
    {
      "midi": 59,
      "hit": false,
      "t": 15015.873766666673,
      "d": 23.809525000000576,
      "v": 40
    },
    {
      "midi": 59,
      "hit": false,
      "t": 15079.36583333334,
      "d": 23.809525000000576,
      "v": 42
    },
    {
      "midi": 59,
      "hit": false,
      "t": 15142.857900000008,
      "d": 23.809525000000576,
      "v": 42
    },
    {
      "midi": 59,
      "hit": false,
      "t": 15230.159491666675,
      "d": 23.809525000000576,
      "v": 43
    },
    {
      "midi": 59,
      "hit": false,
      "t": 15309.524575000009,
      "d": 23.809525000000576,
      "v": 46
    },
    {
      "midi": 59,
      "hit": false,
      "t": 15380.953150000008,
      "d": 23.809525000000576,
      "v": 48
    },
    {
      "midi": 59,
      "hit": false,
      "t": 15460.318233333343,
      "d": 23.809525000000576,
      "v": 50
    },
    {
      "midi": 59,
      "hit": false,
      "t": 15539.683316666677,
      "d": 23.809525000000576,
      "v": 53
    },
    {
      "midi": 59,
      "hit": false,
      "t": 15626.984908333343,
      "d": 23.809525000000576,
      "v": 56
    },
    {
      "midi": 59,
      "hit": false,
      "t": 15706.349991666677,
      "d": 23.809525000000576,
      "v": 59
    },
    {
      "midi": 59,
      "hit": false,
      "t": 15777.778566666677,
      "d": 23.809525000000576,
      "v": 62
    },
    {
      "midi": 59,
      "hit": false,
      "t": 15857.14365000001,
      "d": 23.809525000000576,
      "v": 65
    },
    {
      "midi": 59,
      "hit": false,
      "t": 15952.381750000011,
      "d": 23.809525000000576,
      "v": 69
    },
    {
      "midi": 59,
      "hit": false,
      "t": 16039.683341666678,
      "d": 23.809525000000576,
      "v": 69
    },
    {
      "midi": 59,
      "hit": false,
      "t": 16119.048425000012,
      "d": 23.809525000000576,
      "v": 70
    },
    {
      "midi": 72,
      "hit": false,
      "t": 16190.477000000003,
      "d": 912.6984583333324,
      "v": 106
    },
    {
      "midi": 69,
      "hit": false,
      "t": 16190.477000000003,
      "d": 912.6984583333324,
      "v": 106
    },
    {
      "midi": 72,
      "hit": false,
      "t": 16190.477000000003,
      "d": 912.6984583333324,
      "v": 106
    },
    {
      "midi": 69,
      "hit": false,
      "t": 16190.477000000003,
      "d": 912.6984583333324,
      "v": 106
    },
    {
      "midi": 72,
      "hit": false,
      "t": 16190.477000000003,
      "d": 912.6984583333324,
      "v": 106
    },
    {
      "midi": 69,
      "hit": false,
      "t": 16190.477000000003,
      "d": 912.6984583333324,
      "v": 106
    },
    {
      "midi": 59,
      "hit": false,
      "t": 16190.477000000012,
      "d": 23.809525000000576,
      "v": 72
    },
    {
      "midi": 59,
      "hit": false,
      "t": 16269.842083333346,
      "d": 23.809525000000576,
      "v": 75
    },
    {
      "midi": 59,
      "hit": false,
      "t": 16333.334150000013,
      "d": 23.809525000000576,
      "v": 78
    },
    {
      "midi": 59,
      "hit": false,
      "t": 16420.63574166668,
      "d": 23.809525000000576,
      "v": 80
    },
    {
      "midi": 59,
      "hit": false,
      "t": 16500.000825000014,
      "d": 23.809525000000576,
      "v": 83
    },
    {
      "midi": 59,
      "hit": false,
      "t": 16571.429400000015,
      "d": 23.809525000000576,
      "v": 83
    },
    {
      "midi": 59,
      "hit": false,
      "t": 16650.79448333335,
      "d": 23.809525000000576,
      "v": 86
    },
    {
      "midi": 59,
      "hit": false,
      "t": 16746.03258333335,
      "d": 7.936508333332313,
      "v": 90
    },
    {
      "midi": 59,
      "hit": false,
      "t": 16865.08020833335,
      "d": 55.555558333333465,
      "v": 94
    },
    {
      "midi": 59,
      "hit": false,
      "t": 16960.31830833335,
      "d": 47.61905000000115,
      "v": 98
    },
    {
      "midi": 59,
      "hit": false,
      "t": 17031.74688333335,
      "d": 87.30159166666635,
      "v": 100
    },
    {
      "midi": 71,
      "hit": false,
      "t": 17142.858,
      "d": 436.50795833333177,
      "v": 110
    },
    {
      "midi": 68,
      "hit": false,
      "t": 17142.858,
      "d": 436.50795833333177,
      "v": 110
    },
    {
      "midi": 71,
      "hit": false,
      "t": 17142.858,
      "d": 436.50795833333177,
      "v": 110
    },
    {
      "midi": 68,
      "hit": false,
      "t": 17142.858,
      "d": 436.50795833333177,
      "v": 110
    },
    {
      "midi": 71,
      "hit": false,
      "t": 17142.858,
      "d": 436.50795833333177,
      "v": 110
    },
    {
      "midi": 68,
      "hit": false,
      "t": 17142.858,
      "d": 436.50795833333177,
      "v": 110
    },
    {
      "midi": 59,
      "hit": false,
      "t": 17206.350066666684,
      "d": 7.936508333332313,
      "v": 102
    },
    {
      "midi": 59,
      "hit": false,
      "t": 17301.588166666683,
      "d": 31.74603333333289,
      "v": 103
    },
    {
      "midi": 59,
      "hit": false,
      "t": 17396.826266666685,
      "d": 79.36508333333404,
      "v": 104
    },
    {
      "midi": 59,
      "hit": false,
      "t": 17587.302466666686,
      "d": 15.873016666668263,
      "v": 101
    },
    {
      "midi": 72,
      "hit": false,
      "t": 17619.048499999997,
      "d": 436.50795833333177,
      "v": 110
    },
    {
      "midi": 69,
      "hit": false,
      "t": 17619.048499999997,
      "d": 436.50795833333177,
      "v": 110
    },
    {
      "midi": 72,
      "hit": false,
      "t": 17619.048499999997,
      "d": 436.50795833333177,
      "v": 110
    },
    {
      "midi": 69,
      "hit": false,
      "t": 17619.048499999997,
      "d": 436.50795833333177,
      "v": 110
    },
    {
      "midi": 72,
      "hit": false,
      "t": 17619.048499999997,
      "d": 436.50795833333177,
      "v": 110
    },
    {
      "midi": 69,
      "hit": false,
      "t": 17619.048499999997,
      "d": 436.50795833333177,
      "v": 110
    },
    {
      "midi": 59,
      "hit": false,
      "t": 17674.604058333352,
      "d": 55.555558333333465,
      "v": 96
    },
    {
      "midi": 59,
      "hit": false,
      "t": 18079.36598333335,
      "d": 2523.8096499999956,
      "v": 85
    },
    {
      "midi": 74,
      "hit": false,
      "t": 18095.238999999994,
      "d": 1190.4762499999997,
      "v": 116
    },
    {
      "midi": 71,
      "hit": false,
      "t": 18095.238999999994,
      "d": 1190.4762499999997,
      "v": 116
    },
    {
      "midi": 74,
      "hit": false,
      "t": 18095.238999999994,
      "d": 1190.4762499999997,
      "v": 116
    },
    {
      "midi": 71,
      "hit": false,
      "t": 18095.238999999994,
      "d": 1190.4762499999997,
      "v": 116
    },
    {
      "midi": 74,
      "hit": false,
      "t": 18095.238999999994,
      "d": 1190.4762499999997,
      "v": 116
    },
    {
      "midi": 71,
      "hit": false,
      "t": 18095.238999999994,
      "d": 1190.4762499999997,
      "v": 116
    },
    {
      "midi": 45,
      "hit": false,
      "t": 18571.429500000017,
      "d": 119.04762499999924,
      "v": 109
    },
    {
      "midi": 48,
      "hit": false,
      "t": 18595.239025000017,
      "d": 119.04762499999924,
      "v": 109
    },
    {
      "midi": 45,
      "hit": false,
      "t": 18809.524750000015,
      "d": 119.04762499999924,
      "v": 109
    },
    {
      "midi": 48,
      "hit": false,
      "t": 18833.334275000016,
      "d": 119.04762499999924,
      "v": 109
    },
    {
      "midi": 45,
      "hit": false,
      "t": 19047.62,
      "d": 7619.047999999999,
      "v": 107
    },
    {
      "midi": 57,
      "hit": false,
      "t": 19047.62,
      "d": 7619.047999999999,
      "v": 107
    },
    {
      "midi": 45,
      "hit": false,
      "t": 19047.620000000014,
      "d": 952.3810000000012,
      "v": 127
    },
    {
      "midi": 48,
      "hit": false,
      "t": 19071.429525000014,
      "d": 952.3810000000012,
      "v": 127
    },
    {
      "midi": 72,
      "hit": false,
      "t": 20000.000999999993,
      "d": 912.6984583333324,
      "v": 107
    },
    {
      "midi": 69,
      "hit": false,
      "t": 20000.000999999993,
      "d": 912.6984583333324,
      "v": 107
    },
    {
      "midi": 72,
      "hit": false,
      "t": 20000.000999999993,
      "d": 912.6984583333324,
      "v": 110
    },
    {
      "midi": 69,
      "hit": false,
      "t": 20000.000999999993,
      "d": 912.6984583333324,
      "v": 110
    },
    {
      "midi": 72,
      "hit": false,
      "t": 20000.000999999993,
      "d": 912.6984583333324,
      "v": 107
    },
    {
      "midi": 69,
      "hit": false,
      "t": 20000.000999999993,
      "d": 912.6984583333324,
      "v": 107
    },
    {
      "midi": 72,
      "hit": false,
      "t": 20952.38199999999,
      "d": 912.6984583333324,
      "v": 109
    },
    {
      "midi": 69,
      "hit": false,
      "t": 20952.38199999999,
      "d": 912.6984583333324,
      "v": 109
    },
    {
      "midi": 72,
      "hit": false,
      "t": 20952.38199999999,
      "d": 912.6984583333324,
      "v": 103
    },
    {
      "midi": 69,
      "hit": false,
      "t": 20952.38199999999,
      "d": 912.6984583333324,
      "v": 103
    },
    {
      "midi": 72,
      "hit": false,
      "t": 20952.38199999999,
      "d": 912.6984583333324,
      "v": 109
    },
    {
      "midi": 69,
      "hit": false,
      "t": 20952.38199999999,
      "d": 912.6984583333324,
      "v": 109
    },
    {
      "midi": 71,
      "hit": false,
      "t": 21904.762999999988,
      "d": 1190.4762499999997,
      "v": 114
    },
    {
      "midi": 68,
      "hit": false,
      "t": 21904.762999999988,
      "d": 1190.4762499999997,
      "v": 114
    },
    {
      "midi": 71,
      "hit": false,
      "t": 21904.762999999988,
      "d": 1190.4762499999997,
      "v": 110
    },
    {
      "midi": 68,
      "hit": false,
      "t": 21904.762999999988,
      "d": 1190.4762499999997,
      "v": 110
    },
    {
      "midi": 71,
      "hit": false,
      "t": 21904.762999999988,
      "d": 1190.4762499999997,
      "v": 114
    },
    {
      "midi": 68,
      "hit": false,
      "t": 21904.762999999988,
      "d": 1190.4762499999997,
      "v": 114
    },
    {
      "midi": 72,
      "hit": false,
      "t": 23809.524999999987,
      "d": 912.6984583333324,
      "v": 110
    },
    {
      "midi": 69,
      "hit": false,
      "t": 23809.524999999987,
      "d": 912.6984583333324,
      "v": 110
    },
    {
      "midi": 72,
      "hit": false,
      "t": 23809.524999999987,
      "d": 912.6984583333324,
      "v": 110
    },
    {
      "midi": 69,
      "hit": false,
      "t": 23809.524999999987,
      "d": 912.6984583333324,
      "v": 110
    },
    {
      "midi": 72,
      "hit": false,
      "t": 23809.524999999987,
      "d": 912.6984583333324,
      "v": 110
    },
    {
      "midi": 69,
      "hit": false,
      "t": 23809.524999999987,
      "d": 912.6984583333324,
      "v": 110
    },
    {
      "midi": 71,
      "hit": false,
      "t": 24761.905999999984,
      "d": 436.50795833333177,
      "v": 104
    },
    {
      "midi": 68,
      "hit": false,
      "t": 24761.905999999984,
      "d": 436.50795833333177,
      "v": 104
    },
    {
      "midi": 71,
      "hit": false,
      "t": 24761.905999999984,
      "d": 436.50795833333177,
      "v": 104
    },
    {
      "midi": 68,
      "hit": false,
      "t": 24761.905999999984,
      "d": 436.50795833333177,
      "v": 104
    },
    {
      "midi": 71,
      "hit": false,
      "t": 24761.905999999984,
      "d": 436.50795833333177,
      "v": 104
    },
    {
      "midi": 68,
      "hit": false,
      "t": 24761.905999999984,
      "d": 436.50795833333177,
      "v": 104
    },
    {
      "midi": 72,
      "hit": false,
      "t": 25238.09649999998,
      "d": 436.50795833333177,
      "v": 107
    },
    {
      "midi": 69,
      "hit": false,
      "t": 25238.09649999998,
      "d": 436.50795833333177,
      "v": 107
    },
    {
      "midi": 72,
      "hit": false,
      "t": 25238.09649999998,
      "d": 436.50795833333177,
      "v": 110
    },
    {
      "midi": 69,
      "hit": false,
      "t": 25238.09649999998,
      "d": 436.50795833333177,
      "v": 110
    },
    {
      "midi": 72,
      "hit": false,
      "t": 25238.09649999998,
      "d": 436.50795833333177,
      "v": 107
    },
    {
      "midi": 69,
      "hit": false,
      "t": 25238.09649999998,
      "d": 436.50795833333177,
      "v": 107
    },
    {
      "midi": 74,
      "hit": false,
      "t": 25714.28699999998,
      "d": 1190.4762499999997,
      "v": 112
    },
    {
      "midi": 71,
      "hit": false,
      "t": 25714.28699999998,
      "d": 1190.4762499999997,
      "v": 112
    },
    {
      "midi": 74,
      "hit": false,
      "t": 25714.28699999998,
      "d": 1190.4762499999997,
      "v": 115
    },
    {
      "midi": 71,
      "hit": false,
      "t": 25714.28699999998,
      "d": 1190.4762499999997,
      "v": 115
    },
    {
      "midi": 74,
      "hit": false,
      "t": 25714.28699999998,
      "d": 1190.4762499999997,
      "v": 112
    },
    {
      "midi": 71,
      "hit": false,
      "t": 25714.28699999998,
      "d": 1190.4762499999997,
      "v": 112
    },
    {
      "midi": 45,
      "hit": false,
      "t": 26190.477500000008,
      "d": 119.04762499999924,
      "v": 110
    },
    {
      "midi": 48,
      "hit": false,
      "t": 26214.28702500001,
      "d": 119.04762499999924,
      "v": 110
    },
    {
      "midi": 45,
      "hit": false,
      "t": 26428.572750000007,
      "d": 119.04762499999924,
      "v": 110
    },
    {
      "midi": 48,
      "hit": false,
      "t": 26452.382275000007,
      "d": 119.04762499999924,
      "v": 110
    },
    {
      "midi": 45,
      "hit": false,
      "t": 26666.667999999998,
      "d": 7619.0480000000025,
      "v": 110
    },
    {
      "midi": 57,
      "hit": false,
      "t": 26666.667999999998,
      "d": 7619.0480000000025,
      "v": 110
    },
    {
      "midi": 45,
      "hit": false,
      "t": 26666.668000000005,
      "d": 952.3810000000012,
      "v": 127
    },
    {
      "midi": 48,
      "hit": false,
      "t": 26690.477525000006,
      "d": 952.3810000000012,
      "v": 127
    },
    {
      "midi": 72,
      "hit": false,
      "t": 27619.048999999977,
      "d": 912.6984583333324,
      "v": 108
    },
    {
      "midi": 69,
      "hit": false,
      "t": 27619.048999999977,
      "d": 912.6984583333324,
      "v": 108
    },
    {
      "midi": 72,
      "hit": false,
      "t": 27619.048999999977,
      "d": 912.6984583333324,
      "v": 110
    },
    {
      "midi": 69,
      "hit": false,
      "t": 27619.048999999977,
      "d": 912.6984583333324,
      "v": 110
    },
    {
      "midi": 72,
      "hit": false,
      "t": 27619.048999999977,
      "d": 912.6984583333324,
      "v": 108
    },
    {
      "midi": 69,
      "hit": false,
      "t": 27619.048999999977,
      "d": 912.6984583333324,
      "v": 108
    },
    {
      "midi": 72,
      "hit": false,
      "t": 28571.429999999975,
      "d": 912.6984583333324,
      "v": 108
    },
    {
      "midi": 69,
      "hit": false,
      "t": 28571.429999999975,
      "d": 912.6984583333324,
      "v": 108
    },
    {
      "midi": 72,
      "hit": false,
      "t": 28571.429999999975,
      "d": 912.6984583333324,
      "v": 105
    },
    {
      "midi": 69,
      "hit": false,
      "t": 28571.429999999975,
      "d": 912.6984583333324,
      "v": 105
    },
    {
      "midi": 72,
      "hit": false,
      "t": 28571.429999999975,
      "d": 912.6984583333324,
      "v": 108
    },
    {
      "midi": 69,
      "hit": false,
      "t": 28571.429999999975,
      "d": 912.6984583333324,
      "v": 108
    },
    {
      "midi": 71,
      "hit": false,
      "t": 29523.810999999972,
      "d": 912.6984583333324,
      "v": 110
    },
    {
      "midi": 68,
      "hit": false,
      "t": 29523.810999999972,
      "d": 912.6984583333324,
      "v": 110
    },
    {
      "midi": 71,
      "hit": false,
      "t": 29523.810999999972,
      "d": 912.6984583333324,
      "v": 110
    },
    {
      "midi": 68,
      "hit": false,
      "t": 29523.810999999972,
      "d": 912.6984583333324,
      "v": 110
    },
    {
      "midi": 71,
      "hit": false,
      "t": 29523.810999999972,
      "d": 912.6984583333324,
      "v": 110
    },
    {
      "midi": 68,
      "hit": false,
      "t": 29523.810999999972,
      "d": 912.6984583333324,
      "v": 110
    },
    {
      "midi": 59,
      "hit": false,
      "t": 29817.46180833334,
      "d": 23.809525000000576,
      "v": 30
    },
    {
      "midi": 59,
      "hit": false,
      "t": 29873.017366666674,
      "d": 23.809525000000576,
      "v": 30
    },
    {
      "midi": 59,
      "hit": false,
      "t": 29936.50943333334,
      "d": 23.809525000000576,
      "v": 31
    },
    {
      "midi": 59,
      "hit": false,
      "t": 30023.811025000006,
      "d": 23.809525000000576,
      "v": 31
    },
    {
      "midi": 59,
      "hit": false,
      "t": 30103.17610833334,
      "d": 23.809525000000576,
      "v": 32
    },
    {
      "midi": 59,
      "hit": false,
      "t": 30174.604683333342,
      "d": 23.809525000000576,
      "v": 34
    },
    {
      "midi": 59,
      "hit": false,
      "t": 30253.969766666676,
      "d": 23.809525000000576,
      "v": 34
    },
    {
      "midi": 59,
      "hit": false,
      "t": 30317.461833333342,
      "d": 23.809525000000576,
      "v": 36
    },
    {
      "midi": 59,
      "hit": false,
      "t": 30396.826916666676,
      "d": 23.809525000000576,
      "v": 37
    },
    {
      "midi": 59,
      "hit": false,
      "t": 30468.255491666678,
      "d": 23.809525000000576,
      "v": 39
    },
    {
      "midi": 59,
      "hit": false,
      "t": 30547.62057500001,
      "d": 23.809525000000576,
      "v": 41
    },
    {
      "midi": 59,
      "hit": false,
      "t": 30619.049150000013,
      "d": 23.809525000000576,
      "v": 42
    },
    {
      "midi": 59,
      "hit": false,
      "t": 30698.414233333348,
      "d": 23.809525000000576,
      "v": 44
    },
    {
      "midi": 59,
      "hit": false,
      "t": 30777.77931666668,
      "d": 23.809525000000576,
      "v": 47
    },
    {
      "midi": 59,
      "hit": false,
      "t": 30865.080908333348,
      "d": 23.809525000000576,
      "v": 50
    },
    {
      "midi": 59,
      "hit": false,
      "t": 30944.445991666682,
      "d": 23.809525000000576,
      "v": 52
    },
    {
      "midi": 59,
      "hit": false,
      "t": 31015.874566666684,
      "d": 23.809525000000576,
      "v": 53
    },
    {
      "midi": 59,
      "hit": false,
      "t": 31095.239650000018,
      "d": 23.809525000000576,
      "v": 54
    },
    {
      "midi": 59,
      "hit": false,
      "t": 31174.60473333335,
      "d": 23.809525000000576,
      "v": 57
    },
    {
      "midi": 59,
      "hit": false,
      "t": 31261.906325000018,
      "d": 23.809525000000576,
      "v": 60
    },
    {
      "midi": 59,
      "hit": false,
      "t": 31317.46188333335,
      "d": 23.809525000000576,
      "v": 64
    },
    {
      "midi": 59,
      "hit": false,
      "t": 31404.763475000018,
      "d": 23.809525000000576,
      "v": 68
    },
    {
      "midi": 72,
      "hit": false,
      "t": 31428.57299999997,
      "d": 912.6984583333324,
      "v": 110
    },
    {
      "midi": 69,
      "hit": false,
      "t": 31428.57299999997,
      "d": 912.6984583333324,
      "v": 110
    },
    {
      "midi": 72,
      "hit": false,
      "t": 31428.57299999997,
      "d": 912.6984583333324,
      "v": 110
    },
    {
      "midi": 69,
      "hit": false,
      "t": 31428.57299999997,
      "d": 912.6984583333324,
      "v": 110
    },
    {
      "midi": 72,
      "hit": false,
      "t": 31428.57299999997,
      "d": 912.6984583333324,
      "v": 110
    },
    {
      "midi": 69,
      "hit": false,
      "t": 31428.57299999997,
      "d": 912.6984583333324,
      "v": 110
    },
    {
      "midi": 59,
      "hit": false,
      "t": 31476.19205000002,
      "d": 23.809525000000576,
      "v": 71
    },
    {
      "midi": 59,
      "hit": false,
      "t": 31555.557133333354,
      "d": 23.809525000000576,
      "v": 74
    },
    {
      "midi": 59,
      "hit": false,
      "t": 31658.73174166669,
      "d": 7.936508333332313,
      "v": 78
    },
    {
      "midi": 59,
      "hit": false,
      "t": 31761.90635000002,
      "d": 95.23809999999867,
      "v": 80
    },
    {
      "midi": 59,
      "hit": false,
      "t": 31857.144450000018,
      "d": 87.30159166666635,
      "v": 82
    },
    {
      "midi": 59,
      "hit": false,
      "t": 32063.493666666684,
      "d": 7.936508333332313,
      "v": 90
    },
    {
      "midi": 59,
      "hit": false,
      "t": 32166.66827500002,
      "d": 87.30159166666635,
      "v": 95
    },
    {
      "midi": 59,
      "hit": false,
      "t": 32261.906375000017,
      "d": 79.36508333333404,
      "v": 98
    },
    {
      "midi": 59,
      "hit": false,
      "t": 32349.207966666683,
      "d": 87.30159166666635,
      "v": 100
    },
    {
      "midi": 71,
      "hit": false,
      "t": 32380.95399999997,
      "d": 436.5079583333354,
      "v": 106
    },
    {
      "midi": 68,
      "hit": false,
      "t": 32380.95399999997,
      "d": 436.5079583333354,
      "v": 106
    },
    {
      "midi": 71,
      "hit": false,
      "t": 32380.95399999997,
      "d": 436.5079583333354,
      "v": 106
    },
    {
      "midi": 68,
      "hit": false,
      "t": 32380.95399999997,
      "d": 436.5079583333354,
      "v": 106
    },
    {
      "midi": 71,
      "hit": false,
      "t": 32380.95399999997,
      "d": 436.5079583333354,
      "v": 106
    },
    {
      "midi": 68,
      "hit": false,
      "t": 32380.95399999997,
      "d": 436.5079583333354,
      "v": 106
    },
    {
      "midi": 59,
      "hit": false,
      "t": 32539.684166666684,
      "d": 7.936508333332313,
      "v": 103
    },
    {
      "midi": 59,
      "hit": false,
      "t": 32619.04925000002,
      "d": 31.74603333333289,
      "v": 103
    },
    {
      "midi": 59,
      "hit": false,
      "t": 32714.287350000017,
      "d": 15.873016666668263,
      "v": 103
    },
    {
      "midi": 59,
      "hit": false,
      "t": 32793.65243333335,
      "d": 31.746033333336527,
      "v": 103
    },
    {
      "midi": 72,
      "hit": false,
      "t": 32857.14449999997,
      "d": 436.5079583333354,
      "v": 105
    },
    {
      "midi": 69,
      "hit": false,
      "t": 32857.14449999997,
      "d": 436.5079583333354,
      "v": 105
    },
    {
      "midi": 72,
      "hit": false,
      "t": 32857.14449999997,
      "d": 436.5079583333354,
      "v": 104
    },
    {
      "midi": 69,
      "hit": false,
      "t": 32857.14449999997,
      "d": 436.5079583333354,
      "v": 104
    },
    {
      "midi": 72,
      "hit": false,
      "t": 32857.14449999997,
      "d": 436.5079583333354,
      "v": 105
    },
    {
      "midi": 69,
      "hit": false,
      "t": 32857.14449999997,
      "d": 436.5079583333354,
      "v": 105
    },
    {
      "midi": 59,
      "hit": false,
      "t": 32873.01751666669,
      "d": 31.746033333336527,
      "v": 101
    },
    {
      "midi": 59,
      "hit": false,
      "t": 32952.382600000026,
      "d": 31.746033333336527,
      "v": 99
    },
    {
      "midi": 59,
      "hit": false,
      "t": 33047.62070000003,
      "d": 15.873016666664626,
      "v": 95
    },
    {
      "midi": 59,
      "hit": false,
      "t": 33142.85880000002,
      "d": 15.873016666664626,
      "v": 94
    },
    {
      "midi": 59,
      "hit": false,
      "t": 33238.09690000002,
      "d": 15.873016666664626,
      "v": 92
    },
    {
      "midi": 59,
      "hit": false,
      "t": 33317.46198333335,
      "d": 31.746033333336527,
      "v": 90
    },
    {
      "midi": 74,
      "hit": false,
      "t": 33333.33499999998,
      "d": 912.6984583333324,
      "v": 110
    },
    {
      "midi": 71,
      "hit": false,
      "t": 33333.33499999998,
      "d": 912.6984583333324,
      "v": 110
    },
    {
      "midi": 74,
      "hit": false,
      "t": 33333.33499999998,
      "d": 912.6984583333324,
      "v": 110
    },
    {
      "midi": 71,
      "hit": false,
      "t": 33333.33499999998,
      "d": 912.6984583333324,
      "v": 110
    },
    {
      "midi": 74,
      "hit": false,
      "t": 33333.33499999998,
      "d": 912.6984583333324,
      "v": 110
    },
    {
      "midi": 71,
      "hit": false,
      "t": 33333.33499999998,
      "d": 912.6984583333324,
      "v": 110
    },
    {
      "midi": 69,
      "hit": false,
      "t": 34285.71599999998,
      "d": 198.41270833333692,
      "v": 95
    },
    {
      "midi": 69,
      "hit": false,
      "t": 34285.71599999998,
      "d": 238.0952499999985,
      "v": 95
    },
    {
      "midi": 69,
      "hit": false,
      "t": 34285.71599999998,
      "d": 198.41270833333692,
      "v": 95
    },
    {
      "midi": 45,
      "hit": false,
      "t": 34285.716,
      "d": 1904.7620000000024,
      "v": 108
    },
    {
      "midi": 57,
      "hit": false,
      "t": 34285.716,
      "d": 1904.7620000000024,
      "v": 108
    },
    {
      "midi": 71,
      "hit": false,
      "t": 34523.81124999998,
      "d": 238.0952499999985,
      "v": 91
    },
    {
      "midi": 71,
      "hit": false,
      "t": 34523.811249999984,
      "d": 198.41270833333692,
      "v": 91
    },
    {
      "midi": 71,
      "hit": false,
      "t": 34523.811249999984,
      "d": 198.41270833333692,
      "v": 91
    },
    {
      "midi": 72,
      "hit": false,
      "t": 34761.906499999975,
      "d": 238.0952499999985,
      "v": 93
    },
    {
      "midi": 72,
      "hit": false,
      "t": 34761.90649999999,
      "d": 198.41270833333692,
      "v": 93
    },
    {
      "midi": 72,
      "hit": false,
      "t": 34761.90649999999,
      "d": 198.41270833333692,
      "v": 93
    },
    {
      "midi": 71,
      "hit": false,
      "t": 35000.001749999974,
      "d": 238.0952499999985,
      "v": 94
    },
    {
      "midi": 71,
      "hit": false,
      "t": 35000.001749999996,
      "d": 198.41270833333692,
      "v": 94
    },
    {
      "midi": 71,
      "hit": false,
      "t": 35000.001749999996,
      "d": 198.41270833333692,
      "v": 94
    },
    {
      "midi": 69,
      "hit": false,
      "t": 35238.09699999997,
      "d": 238.0952499999985,
      "v": 95
    },
    {
      "midi": 69,
      "hit": false,
      "t": 35238.097,
      "d": 198.41270833333692,
      "v": 95
    },
    {
      "midi": 69,
      "hit": false,
      "t": 35238.097,
      "d": 198.41270833333692,
      "v": 95
    },
    {
      "midi": 74,
      "hit": false,
      "t": 35476.19224999997,
      "d": 238.0952499999985,
      "v": 102
    },
    {
      "midi": 74,
      "hit": false,
      "t": 35476.19225000001,
      "d": 198.41270833333692,
      "v": 102
    },
    {
      "midi": 74,
      "hit": false,
      "t": 35476.19225000001,
      "d": 198.41270833333692,
      "v": 102
    },
    {
      "midi": 72,
      "hit": false,
      "t": 35714.28749999997,
      "d": 238.0952499999985,
      "v": 99
    },
    {
      "midi": 72,
      "hit": false,
      "t": 35714.28750000001,
      "d": 198.41270833333692,
      "v": 99
    },
    {
      "midi": 72,
      "hit": false,
      "t": 35714.28750000001,
      "d": 198.41270833333692,
      "v": 99
    },
    {
      "midi": 71,
      "hit": false,
      "t": 35952.38274999997,
      "d": 238.0952499999985,
      "v": 95
    },
    {
      "midi": 71,
      "hit": false,
      "t": 35952.38275000002,
      "d": 198.41270833333692,
      "v": 95
    },
    {
      "midi": 71,
      "hit": false,
      "t": 35952.38275000002,
      "d": 198.41270833333692,
      "v": 95
    },
    {
      "midi": 69,
      "hit": false,
      "t": 36190.47799999997,
      "d": 238.0952499999985,
      "v": 94
    },
    {
      "midi": 55,
      "hit": false,
      "t": 36190.478,
      "d": 1904.7620000000024,
      "v": 107
    },
    {
      "midi": 43,
      "hit": false,
      "t": 36190.478,
      "d": 1904.7620000000024,
      "v": 107
    },
    {
      "midi": 69,
      "hit": false,
      "t": 36190.478000000025,
      "d": 198.41270833333692,
      "v": 94
    },
    {
      "midi": 69,
      "hit": false,
      "t": 36190.478000000025,
      "d": 198.41270833333692,
      "v": 94
    },
    {
      "midi": 71,
      "hit": false,
      "t": 36428.573249999965,
      "d": 238.0952499999985,
      "v": 97
    },
    {
      "midi": 71,
      "hit": false,
      "t": 36428.57325000003,
      "d": 198.41270833333692,
      "v": 97
    },
    {
      "midi": 71,
      "hit": false,
      "t": 36428.57325000003,
      "d": 198.41270833333692,
      "v": 97
    },
    {
      "midi": 72,
      "hit": false,
      "t": 36666.66849999996,
      "d": 238.0952499999985,
      "v": 98
    },
    {
      "midi": 72,
      "hit": false,
      "t": 36666.668500000036,
      "d": 198.41270833333692,
      "v": 98
    },
    {
      "midi": 72,
      "hit": false,
      "t": 36666.668500000036,
      "d": 198.41270833333692,
      "v": 98
    },
    {
      "midi": 71,
      "hit": false,
      "t": 36904.76374999996,
      "d": 238.0952499999985,
      "v": 93
    },
    {
      "midi": 71,
      "hit": false,
      "t": 36904.76375000004,
      "d": 198.41270833333692,
      "v": 93
    },
    {
      "midi": 71,
      "hit": false,
      "t": 36904.76375000004,
      "d": 198.41270833333692,
      "v": 93
    },
    {
      "midi": 69,
      "hit": false,
      "t": 37142.85899999996,
      "d": 238.0952499999985,
      "v": 98
    },
    {
      "midi": 69,
      "hit": false,
      "t": 37142.85900000005,
      "d": 198.41270833333692,
      "v": 98
    },
    {
      "midi": 69,
      "hit": false,
      "t": 37142.85900000005,
      "d": 198.41270833333692,
      "v": 98
    },
    {
      "midi": 74,
      "hit": false,
      "t": 37380.95424999996,
      "d": 238.0952499999985,
      "v": 95
    },
    {
      "midi": 74,
      "hit": false,
      "t": 37380.95425000005,
      "d": 198.41270833333692,
      "v": 95
    },
    {
      "midi": 74,
      "hit": false,
      "t": 37380.95425000005,
      "d": 198.41270833333692,
      "v": 95
    },
    {
      "midi": 72,
      "hit": false,
      "t": 37619.04949999996,
      "d": 238.0952499999985,
      "v": 98
    },
    {
      "midi": 72,
      "hit": false,
      "t": 37619.04950000006,
      "d": 198.41270833333692,
      "v": 98
    },
    {
      "midi": 72,
      "hit": false,
      "t": 37619.04950000006,
      "d": 198.41270833333692,
      "v": 98
    },
    {
      "midi": 71,
      "hit": false,
      "t": 37857.144749999956,
      "d": 238.0952499999985,
      "v": 100
    },
    {
      "midi": 71,
      "hit": false,
      "t": 37857.144750000065,
      "d": 198.41270833333692,
      "v": 100
    },
    {
      "midi": 71,
      "hit": false,
      "t": 37857.144750000065,
      "d": 198.41270833333692,
      "v": 100
    },
    {
      "midi": 69,
      "hit": false,
      "t": 38095.239999999954,
      "d": 238.0952499999985,
      "v": 98
    },
    {
      "midi": 53,
      "hit": false,
      "t": 38095.240000000005,
      "d": 1904.7620000000024,
      "v": 113
    },
    {
      "midi": 41,
      "hit": false,
      "t": 38095.240000000005,
      "d": 1904.7620000000024,
      "v": 113
    },
    {
      "midi": 69,
      "hit": false,
      "t": 38095.24000000007,
      "d": 198.41270833333692,
      "v": 98
    },
    {
      "midi": 69,
      "hit": false,
      "t": 38095.24000000007,
      "d": 198.41270833333692,
      "v": 98
    },
    {
      "midi": 71,
      "hit": false,
      "t": 38333.33524999995,
      "d": 238.0952499999985,
      "v": 93
    },
    {
      "midi": 71,
      "hit": false,
      "t": 38333.33525000008,
      "d": 198.41270833333692,
      "v": 93
    },
    {
      "midi": 71,
      "hit": false,
      "t": 38333.33525000008,
      "d": 198.41270833333692,
      "v": 93
    },
    {
      "midi": 72,
      "hit": false,
      "t": 38571.43049999995,
      "d": 238.0952499999985,
      "v": 93
    },
    {
      "midi": 72,
      "hit": false,
      "t": 38571.43050000008,
      "d": 198.41270833333692,
      "v": 93
    },
    {
      "midi": 72,
      "hit": false,
      "t": 38571.43050000008,
      "d": 198.41270833333692,
      "v": 93
    },
    {
      "midi": 71,
      "hit": false,
      "t": 38809.52574999995,
      "d": 238.0952499999985,
      "v": 99
    },
    {
      "midi": 71,
      "hit": false,
      "t": 38809.52575000009,
      "d": 198.41270833333692,
      "v": 99
    },
    {
      "midi": 71,
      "hit": false,
      "t": 38809.52575000009,
      "d": 198.41270833333692,
      "v": 99
    },
    {
      "midi": 69,
      "hit": false,
      "t": 39047.62099999995,
      "d": 238.0952499999985,
      "v": 94
    },
    {
      "midi": 69,
      "hit": false,
      "t": 39047.621000000094,
      "d": 198.41270833333692,
      "v": 94
    },
    {
      "midi": 69,
      "hit": false,
      "t": 39047.621000000094,
      "d": 198.41270833333692,
      "v": 94
    },
    {
      "midi": 74,
      "hit": false,
      "t": 39285.71624999995,
      "d": 238.0952499999985,
      "v": 101
    },
    {
      "midi": 74,
      "hit": false,
      "t": 39285.7162500001,
      "d": 198.41270833333692,
      "v": 101
    },
    {
      "midi": 74,
      "hit": false,
      "t": 39285.7162500001,
      "d": 198.41270833333692,
      "v": 101
    },
    {
      "midi": 72,
      "hit": false,
      "t": 39523.811499999945,
      "d": 238.0952499999985,
      "v": 93
    },
    {
      "midi": 72,
      "hit": false,
      "t": 39523.811500000105,
      "d": 198.41270833333692,
      "v": 93
    },
    {
      "midi": 72,
      "hit": false,
      "t": 39523.811500000105,
      "d": 198.41270833333692,
      "v": 93
    },
    {
      "midi": 71,
      "hit": false,
      "t": 39761.906749999944,
      "d": 238.0952499999985,
      "v": 102
    },
    {
      "midi": 71,
      "hit": false,
      "t": 39761.90675000011,
      "d": 198.41270833333692,
      "v": 102
    },
    {
      "midi": 71,
      "hit": false,
      "t": 39761.90675000011,
      "d": 198.41270833333692,
      "v": 102
    },
    {
      "midi": 69,
      "hit": false,
      "t": 40000.00199999994,
      "d": 238.0952499999985,
      "v": 95
    },
    {
      "midi": 55,
      "hit": false,
      "t": 40000.00200000001,
      "d": 1904.7620000000024,
      "v": 110
    },
    {
      "midi": 43,
      "hit": false,
      "t": 40000.00200000001,
      "d": 1904.7620000000024,
      "v": 110
    },
    {
      "midi": 69,
      "hit": false,
      "t": 40000.00200000012,
      "d": 198.41270833333692,
      "v": 95
    },
    {
      "midi": 69,
      "hit": false,
      "t": 40000.00200000012,
      "d": 198.41270833333692,
      "v": 95
    },
    {
      "midi": 71,
      "hit": false,
      "t": 40238.09724999994,
      "d": 238.0952499999985,
      "v": 103
    },
    {
      "midi": 71,
      "hit": false,
      "t": 40238.09725000012,
      "d": 198.41270833333692,
      "v": 103
    },
    {
      "midi": 71,
      "hit": false,
      "t": 40238.09725000012,
      "d": 198.41270833333692,
      "v": 103
    },
    {
      "midi": 72,
      "hit": false,
      "t": 40476.19249999994,
      "d": 238.0952499999985,
      "v": 94
    },
    {
      "midi": 72,
      "hit": false,
      "t": 40476.19250000013,
      "d": 198.41270833333692,
      "v": 94
    },
    {
      "midi": 72,
      "hit": false,
      "t": 40476.19250000013,
      "d": 198.41270833333692,
      "v": 94
    },
    {
      "midi": 71,
      "hit": false,
      "t": 40714.28774999994,
      "d": 238.0952499999985,
      "v": 98
    },
    {
      "midi": 71,
      "hit": false,
      "t": 40714.287750000134,
      "d": 198.41270833333692,
      "v": 98
    },
    {
      "midi": 71,
      "hit": false,
      "t": 40714.287750000134,
      "d": 198.41270833333692,
      "v": 98
    },
    {
      "midi": 69,
      "hit": false,
      "t": 40952.382999999936,
      "d": 238.0952499999985,
      "v": 96
    },
    {
      "midi": 69,
      "hit": false,
      "t": 40952.38300000014,
      "d": 198.41270833333692,
      "v": 96
    },
    {
      "midi": 69,
      "hit": false,
      "t": 40952.38300000014,
      "d": 198.41270833333692,
      "v": 96
    },
    {
      "midi": 76,
      "hit": false,
      "t": 41190.478249999935,
      "d": 238.0952499999985,
      "v": 100
    },
    {
      "midi": 76,
      "hit": false,
      "t": 41190.478250000146,
      "d": 198.41270833333692,
      "v": 100
    },
    {
      "midi": 76,
      "hit": false,
      "t": 41190.478250000146,
      "d": 198.41270833333692,
      "v": 100
    },
    {
      "midi": 74,
      "hit": false,
      "t": 41428.57349999993,
      "d": 238.0952499999985,
      "v": 94
    },
    {
      "midi": 74,
      "hit": false,
      "t": 41428.57350000015,
      "d": 198.41270833333692,
      "v": 94
    },
    {
      "midi": 74,
      "hit": false,
      "t": 41428.57350000015,
      "d": 198.41270833333692,
      "v": 94
    },
    {
      "midi": 72,
      "hit": false,
      "t": 41666.66874999993,
      "d": 238.0952499999985,
      "v": 96
    },
    {
      "midi": 72,
      "hit": false,
      "t": 41666.66875000016,
      "d": 198.41270833333692,
      "v": 96
    },
    {
      "midi": 72,
      "hit": false,
      "t": 41666.66875000016,
      "d": 198.41270833333692,
      "v": 96
    },
    {
      "midi": 69,
      "hit": false,
      "t": 41904.76399999993,
      "d": 238.0952499999985,
      "v": 94
    },
    {
      "midi": 57,
      "hit": false,
      "t": 41904.76400000001,
      "d": 1904.7620000000024,
      "v": 105
    },
    {
      "midi": 45,
      "hit": false,
      "t": 41904.76400000001,
      "d": 1904.7620000000024,
      "v": 105
    },
    {
      "midi": 69,
      "hit": false,
      "t": 41904.76400000016,
      "d": 198.41270833333692,
      "v": 94
    },
    {
      "midi": 69,
      "hit": false,
      "t": 41904.76400000016,
      "d": 198.41270833333692,
      "v": 94
    },
    {
      "midi": 71,
      "hit": false,
      "t": 42142.85924999993,
      "d": 238.0952499999985,
      "v": 93
    },
    {
      "midi": 71,
      "hit": false,
      "t": 42142.85925000017,
      "d": 198.41270833333692,
      "v": 93
    },
    {
      "midi": 71,
      "hit": false,
      "t": 42142.85925000017,
      "d": 198.41270833333692,
      "v": 93
    },
    {
      "midi": 72,
      "hit": false,
      "t": 42380.95449999993,
      "d": 238.0952499999985,
      "v": 96
    },
    {
      "midi": 72,
      "hit": false,
      "t": 42380.954500000174,
      "d": 198.41270833333692,
      "v": 96
    },
    {
      "midi": 72,
      "hit": false,
      "t": 42380.954500000174,
      "d": 198.41270833333692,
      "v": 96
    },
    {
      "midi": 71,
      "hit": false,
      "t": 42619.049749999926,
      "d": 238.0952499999985,
      "v": 94
    },
    {
      "midi": 71,
      "hit": false,
      "t": 42619.04975000018,
      "d": 198.41270833333692,
      "v": 94
    },
    {
      "midi": 71,
      "hit": false,
      "t": 42619.04975000018,
      "d": 198.41270833333692,
      "v": 94
    },
    {
      "midi": 69,
      "hit": false,
      "t": 42857.144999999924,
      "d": 238.0952499999985,
      "v": 102
    },
    {
      "midi": 69,
      "hit": false,
      "t": 42857.145000000186,
      "d": 198.41270833333692,
      "v": 102
    },
    {
      "midi": 69,
      "hit": false,
      "t": 42857.145000000186,
      "d": 198.41270833333692,
      "v": 102
    },
    {
      "midi": 74,
      "hit": false,
      "t": 43095.24024999992,
      "d": 238.0952499999985,
      "v": 97
    },
    {
      "midi": 74,
      "hit": false,
      "t": 43095.24025000019,
      "d": 198.41270833333692,
      "v": 97
    },
    {
      "midi": 74,
      "hit": false,
      "t": 43095.24025000019,
      "d": 198.41270833333692,
      "v": 97
    },
    {
      "midi": 72,
      "hit": false,
      "t": 43333.33549999992,
      "d": 238.0952499999985,
      "v": 97
    },
    {
      "midi": 72,
      "hit": false,
      "t": 43333.3355000002,
      "d": 198.41270833333692,
      "v": 97
    },
    {
      "midi": 72,
      "hit": false,
      "t": 43333.3355000002,
      "d": 198.41270833333692,
      "v": 97
    },
    {
      "midi": 71,
      "hit": false,
      "t": 43571.43074999992,
      "d": 238.0952499999985,
      "v": 96
    },
    {
      "midi": 71,
      "hit": false,
      "t": 43571.4307500002,
      "d": 198.41270833333692,
      "v": 96
    },
    {
      "midi": 71,
      "hit": false,
      "t": 43571.4307500002,
      "d": 198.41270833333692,
      "v": 96
    },
    {
      "midi": 69,
      "hit": false,
      "t": 43809.52599999992,
      "d": 238.0952499999985,
      "v": 100
    },
    {
      "midi": 55,
      "hit": false,
      "t": 43809.52600000001,
      "d": 1904.7620000000024,
      "v": 107
    },
    {
      "midi": 43,
      "hit": false,
      "t": 43809.52600000001,
      "d": 1904.7620000000024,
      "v": 107
    },
    {
      "midi": 69,
      "hit": false,
      "t": 43809.52600000021,
      "d": 198.41270833333692,
      "v": 100
    },
    {
      "midi": 69,
      "hit": false,
      "t": 43809.52600000021,
      "d": 198.41270833333692,
      "v": 100
    },
    {
      "midi": 71,
      "hit": false,
      "t": 44047.62124999992,
      "d": 238.0952499999985,
      "v": 97
    },
    {
      "midi": 71,
      "hit": false,
      "t": 44047.621250000215,
      "d": 198.41270833333692,
      "v": 97
    },
    {
      "midi": 71,
      "hit": false,
      "t": 44047.621250000215,
      "d": 198.41270833333692,
      "v": 97
    },
    {
      "midi": 72,
      "hit": false,
      "t": 44285.716499999915,
      "d": 238.0952499999985,
      "v": 100
    },
    {
      "midi": 72,
      "hit": false,
      "t": 44285.71650000022,
      "d": 198.41270833333692,
      "v": 100
    },
    {
      "midi": 72,
      "hit": false,
      "t": 44285.71650000022,
      "d": 198.41270833333692,
      "v": 100
    },
    {
      "midi": 71,
      "hit": false,
      "t": 44523.81174999991,
      "d": 238.0952499999985,
      "v": 100
    },
    {
      "midi": 71,
      "hit": false,
      "t": 44523.811750000226,
      "d": 198.41270833333692,
      "v": 100
    },
    {
      "midi": 71,
      "hit": false,
      "t": 44523.811750000226,
      "d": 198.41270833333692,
      "v": 100
    },
    {
      "midi": 69,
      "hit": false,
      "t": 44761.90699999991,
      "d": 238.0952499999985,
      "v": 100
    },
    {
      "midi": 69,
      "hit": false,
      "t": 44761.90700000023,
      "d": 198.41270833333692,
      "v": 100
    },
    {
      "midi": 69,
      "hit": false,
      "t": 44761.90700000023,
      "d": 198.41270833333692,
      "v": 100
    },
    {
      "midi": 74,
      "hit": false,
      "t": 45000.00224999991,
      "d": 238.0952499999985,
      "v": 98
    },
    {
      "midi": 74,
      "hit": false,
      "t": 45000.00225000024,
      "d": 198.41270833333692,
      "v": 98
    },
    {
      "midi": 74,
      "hit": false,
      "t": 45000.00225000024,
      "d": 198.41270833333692,
      "v": 98
    },
    {
      "midi": 72,
      "hit": false,
      "t": 45238.09749999991,
      "d": 238.0952499999985,
      "v": 105
    },
    {
      "midi": 72,
      "hit": false,
      "t": 45238.09750000024,
      "d": 198.41270833333692,
      "v": 105
    },
    {
      "midi": 72,
      "hit": false,
      "t": 45238.09750000024,
      "d": 198.41270833333692,
      "v": 105
    },
    {
      "midi": 71,
      "hit": false,
      "t": 45476.19274999991,
      "d": 238.0952499999985,
      "v": 99
    },
    {
      "midi": 71,
      "hit": false,
      "t": 45476.19275000025,
      "d": 198.41270833333692,
      "v": 99
    },
    {
      "midi": 71,
      "hit": false,
      "t": 45476.19275000025,
      "d": 198.41270833333692,
      "v": 99
    },
    {
      "midi": 69,
      "hit": false,
      "t": 45714.287999999906,
      "d": 238.0952499999985,
      "v": 98
    },
    {
      "midi": 53,
      "hit": false,
      "t": 45714.288000000015,
      "d": 1904.7620000000024,
      "v": 111
    },
    {
      "midi": 41,
      "hit": false,
      "t": 45714.288000000015,
      "d": 1904.7620000000024,
      "v": 111
    },
    {
      "midi": 69,
      "hit": false,
      "t": 45714.288000000255,
      "d": 198.41270833333692,
      "v": 98
    },
    {
      "midi": 69,
      "hit": false,
      "t": 45714.288000000255,
      "d": 198.41270833333692,
      "v": 98
    },
    {
      "midi": 71,
      "hit": false,
      "t": 45952.383249999904,
      "d": 238.0952499999985,
      "v": 96
    },
    {
      "midi": 71,
      "hit": false,
      "t": 45952.38325000026,
      "d": 198.41270833333692,
      "v": 96
    },
    {
      "midi": 71,
      "hit": false,
      "t": 45952.38325000026,
      "d": 198.41270833333692,
      "v": 96
    },
    {
      "midi": 72,
      "hit": false,
      "t": 46190.4784999999,
      "d": 238.0952499999985,
      "v": 99
    },
    {
      "midi": 72,
      "hit": false,
      "t": 46190.47850000027,
      "d": 198.41270833333692,
      "v": 99
    },
    {
      "midi": 72,
      "hit": false,
      "t": 46190.47850000027,
      "d": 198.41270833333692,
      "v": 99
    },
    {
      "midi": 71,
      "hit": false,
      "t": 46428.5737499999,
      "d": 238.0952499999985,
      "v": 101
    },
    {
      "midi": 71,
      "hit": false,
      "t": 46428.57375000027,
      "d": 198.41270833333692,
      "v": 101
    },
    {
      "midi": 71,
      "hit": false,
      "t": 46428.57375000027,
      "d": 198.41270833333692,
      "v": 101
    },
    {
      "midi": 69,
      "hit": false,
      "t": 46666.6689999999,
      "d": 238.0952499999985,
      "v": 96
    },
    {
      "midi": 69,
      "hit": false,
      "t": 46666.66900000028,
      "d": 198.41270833333692,
      "v": 96
    },
    {
      "midi": 69,
      "hit": false,
      "t": 46666.66900000028,
      "d": 198.41270833333692,
      "v": 96
    },
    {
      "midi": 74,
      "hit": false,
      "t": 46904.7642499999,
      "d": 238.0952499999985,
      "v": 101
    },
    {
      "midi": 74,
      "hit": false,
      "t": 46904.764250000284,
      "d": 198.41270833333692,
      "v": 101
    },
    {
      "midi": 74,
      "hit": false,
      "t": 46904.764250000284,
      "d": 198.41270833333692,
      "v": 101
    },
    {
      "midi": 72,
      "hit": false,
      "t": 47142.8594999999,
      "d": 238.0952499999985,
      "v": 96
    },
    {
      "midi": 72,
      "hit": false,
      "t": 47142.85950000029,
      "d": 198.41270833333692,
      "v": 96
    },
    {
      "midi": 72,
      "hit": false,
      "t": 47142.85950000029,
      "d": 198.41270833333692,
      "v": 96
    },
    {
      "midi": 71,
      "hit": false,
      "t": 47380.954749999895,
      "d": 238.0952499999985,
      "v": 101
    },
    {
      "midi": 71,
      "hit": false,
      "t": 47380.954750000295,
      "d": 198.41270833333692,
      "v": 101
    },
    {
      "midi": 71,
      "hit": false,
      "t": 47380.954750000295,
      "d": 198.41270833333692,
      "v": 101
    },
    {
      "midi": 69,
      "hit": false,
      "t": 47619.049999999894,
      "d": 238.0952499999985,
      "v": 96
    },
    {
      "midi": 55,
      "hit": false,
      "t": 47619.05000000002,
      "d": 1904.7620000000024,
      "v": 106
    },
    {
      "midi": 43,
      "hit": false,
      "t": 47619.05000000002,
      "d": 1904.7620000000024,
      "v": 106
    },
    {
      "midi": 69,
      "hit": false,
      "t": 47619.0500000003,
      "d": 198.41270833333692,
      "v": 96
    },
    {
      "midi": 69,
      "hit": false,
      "t": 47619.0500000003,
      "d": 198.41270833333692,
      "v": 96
    },
    {
      "midi": 57,
      "hit": false,
      "t": 47650.79603333335,
      "d": 7.936508333332313,
      "v": 43
    },
    {
      "midi": 57,
      "hit": false,
      "t": 47714.28810000001,
      "d": 7.936508333332313,
      "v": 43
    },
    {
      "midi": 57,
      "hit": false,
      "t": 47777.78016666668,
      "d": 23.80952499999694,
      "v": 45
    },
    {
      "midi": 57,
      "hit": false,
      "t": 47841.272233333344,
      "d": 23.80952499999694,
      "v": 46
    },
    {
      "midi": 71,
      "hit": false,
      "t": 47857.14524999989,
      "d": 238.0952499999985,
      "v": 95
    },
    {
      "midi": 71,
      "hit": false,
      "t": 47857.14525000031,
      "d": 198.41270833333692,
      "v": 95
    },
    {
      "midi": 71,
      "hit": false,
      "t": 47857.14525000031,
      "d": 198.41270833333692,
      "v": 95
    },
    {
      "midi": 57,
      "hit": false,
      "t": 47904.76430000001,
      "d": 23.80952499999694,
      "v": 47
    },
    {
      "midi": 57,
      "hit": false,
      "t": 47976.19287500001,
      "d": 23.80952499999694,
      "v": 48
    },
    {
      "midi": 57,
      "hit": false,
      "t": 48031.74843333334,
      "d": 23.80952499999694,
      "v": 51
    },
    {
      "midi": 72,
      "hit": false,
      "t": 48095.24049999989,
      "d": 238.0952499999985,
      "v": 92
    },
    {
      "midi": 72,
      "hit": false,
      "t": 48095.24050000031,
      "d": 198.41270833333692,
      "v": 92
    },
    {
      "midi": 72,
      "hit": false,
      "t": 48095.24050000031,
      "d": 198.41270833333692,
      "v": 92
    },
    {
      "midi": 57,
      "hit": false,
      "t": 48103.17700833334,
      "d": 23.80952499999694,
      "v": 51
    },
    {
      "midi": 57,
      "hit": false,
      "t": 48182.54209166667,
      "d": 23.80952499999694,
      "v": 51
    },
    {
      "midi": 57,
      "hit": false,
      "t": 48253.97066666667,
      "d": 23.80952499999694,
      "v": 52
    },
    {
      "midi": 71,
      "hit": false,
      "t": 48333.33574999989,
      "d": 238.0952499999985,
      "v": 91
    },
    {
      "midi": 71,
      "hit": false,
      "t": 48333.33575000032,
      "d": 198.41270833333692,
      "v": 91
    },
    {
      "midi": 71,
      "hit": false,
      "t": 48333.33575000032,
      "d": 198.41270833333692,
      "v": 91
    },
    {
      "midi": 57,
      "hit": false,
      "t": 48341.27225833333,
      "d": 23.80952499999694,
      "v": 53
    },
    {
      "midi": 57,
      "hit": false,
      "t": 48420.63734166666,
      "d": 23.80952499999694,
      "v": 59
    },
    {
      "midi": 57,
      "hit": false,
      "t": 48484.12940833333,
      "d": 23.80952499999694,
      "v": 61
    },
    {
      "midi": 57,
      "hit": false,
      "t": 48555.557983333325,
      "d": 23.80952499999694,
      "v": 66
    },
    {
      "midi": 69,
      "hit": false,
      "t": 48571.43099999989,
      "d": 238.0952499999985,
      "v": 97
    },
    {
      "midi": 69,
      "hit": false,
      "t": 48571.431000000324,
      "d": 198.41270833333692,
      "v": 97
    },
    {
      "midi": 69,
      "hit": false,
      "t": 48571.431000000324,
      "d": 198.41270833333692,
      "v": 97
    },
    {
      "midi": 57,
      "hit": false,
      "t": 48642.85957499999,
      "d": 23.80952499999694,
      "v": 70
    },
    {
      "midi": 57,
      "hit": false,
      "t": 48714.288149999986,
      "d": 23.80952499999694,
      "v": 74
    },
    {
      "midi": 57,
      "hit": false,
      "t": 48785.716724999984,
      "d": 23.80952499999694,
      "v": 77
    },
    {
      "midi": 76,
      "hit": false,
      "t": 48809.526249999886,
      "d": 238.0952499999985,
      "v": 97
    },
    {
      "midi": 76,
      "hit": false,
      "t": 48809.52625000033,
      "d": 198.41270833333692,
      "v": 97
    },
    {
      "midi": 76,
      "hit": false,
      "t": 48809.52625000033,
      "d": 198.41270833333692,
      "v": 97
    },
    {
      "midi": 57,
      "hit": false,
      "t": 48873.01831666665,
      "d": 23.80952499999694,
      "v": 78
    },
    {
      "midi": 57,
      "hit": false,
      "t": 48976.192924999974,
      "d": 23.80952499999694,
      "v": 82
    },
    {
      "midi": 74,
      "hit": false,
      "t": 49047.621499999885,
      "d": 238.0952499999985,
      "v": 100
    },
    {
      "midi": 74,
      "hit": false,
      "t": 49047.621500000336,
      "d": 198.41270833333692,
      "v": 100
    },
    {
      "midi": 74,
      "hit": false,
      "t": 49047.621500000336,
      "d": 198.41270833333692,
      "v": 100
    },
    {
      "midi": 57,
      "hit": false,
      "t": 49071.43102499997,
      "d": 23.80952499999694,
      "v": 86
    },
    {
      "midi": 57,
      "hit": false,
      "t": 49142.85959999997,
      "d": 23.80952499999694,
      "v": 88
    },
    {
      "midi": 57,
      "hit": false,
      "t": 49238.09769999996,
      "d": 23.80952499999694,
      "v": 92
    },
    {
      "midi": 72,
      "hit": false,
      "t": 49285.71674999988,
      "d": 238.0952499999985,
      "v": 97
    },
    {
      "midi": 72,
      "hit": false,
      "t": 49285.71675000034,
      "d": 198.41270833333692,
      "v": 97
    },
    {
      "midi": 72,
      "hit": false,
      "t": 49285.71675000034,
      "d": 198.41270833333692,
      "v": 97
    },
    {
      "midi": 57,
      "hit": false,
      "t": 49317.46278333329,
      "d": 23.80952499999694,
      "v": 96
    },
    {
      "midi": 57,
      "hit": false,
      "t": 49412.70088333329,
      "d": 23.80952499999694,
      "v": 101
    },
    {
      "midi": 57,
      "hit": false,
      "t": 49500.00247499995,
      "d": 23.80952499999694,
      "v": 100
    },
    {
      "midi": 48,
      "hit": false,
      "t": 49523.81199999995,
      "d": 1904.7619999999806,
      "v": 110
    },
    {
      "midi": 45,
      "hit": false,
      "t": 49523.81199999995,
      "d": 1904.7619999999806,
      "v": 110
    },
    {
      "midi": 45,
      "hit": false,
      "t": 49523.81200000002,
      "d": 7619.0480000000025,
      "v": 106
    },
    {
      "midi": 57,
      "hit": false,
      "t": 49523.81200000002,
      "d": 7619.0480000000025,
      "v": 106
    },
    {
      "midi": 57,
      "hit": false,
      "t": 49587.30406666661,
      "d": 23.80952499999694,
      "v": 100
    },
    {
      "midi": 57,
      "hit": false,
      "t": 49674.605658333276,
      "d": 23.80952499999694,
      "v": 100
    },
    {
      "midi": 57,
      "hit": false,
      "t": 49761.90724999994,
      "d": 23.80952499999694,
      "v": 99
    },
    {
      "midi": 57,
      "hit": false,
      "t": 49857.14534999993,
      "d": 23.80952499999694,
      "v": 97
    },
    {
      "midi": 57,
      "hit": false,
      "t": 49952.38344999993,
      "d": 23.80952499999694,
      "v": 97
    },
    {
      "midi": 57,
      "hit": false,
      "t": 50039.68504166659,
      "d": 23.80952499999694,
      "v": 95
    },
    {
      "midi": 57,
      "hit": false,
      "t": 50261.907274999925,
      "d": 2706.349341666668,
      "v": 88
    },
    {
      "midi": 69,
      "hit": false,
      "t": 50476.19299999988,
      "d": 912.6984583333324,
      "v": 104
    },
    {
      "midi": 72,
      "hit": false,
      "t": 50476.19299999988,
      "d": 912.6984583333324,
      "v": 104
    },
    {
      "midi": 69,
      "hit": false,
      "t": 50476.19300000035,
      "d": 912.6984583333324,
      "v": 107
    },
    {
      "midi": 72,
      "hit": false,
      "t": 50476.19300000035,
      "d": 912.6984583333324,
      "v": 107
    },
    {
      "midi": 69,
      "hit": false,
      "t": 50476.19300000035,
      "d": 912.6984583333324,
      "v": 107
    },
    {
      "midi": 72,
      "hit": false,
      "t": 50476.19300000035,
      "d": 912.6984583333324,
      "v": 107
    },
    {
      "midi": 69,
      "hit": false,
      "t": 51428.573999999884,
      "d": 912.6984583333324,
      "v": 110
    },
    {
      "midi": 72,
      "hit": false,
      "t": 51428.573999999884,
      "d": 912.6984583333324,
      "v": 110
    },
    {
      "midi": 69,
      "hit": false,
      "t": 51428.57400000035,
      "d": 912.6984583333324,
      "v": 107
    },
    {
      "midi": 72,
      "hit": false,
      "t": 51428.57400000035,
      "d": 912.6984583333324,
      "v": 107
    },
    {
      "midi": 69,
      "hit": false,
      "t": 51428.57400000035,
      "d": 912.6984583333324,
      "v": 107
    },
    {
      "midi": 72,
      "hit": false,
      "t": 51428.57400000035,
      "d": 912.6984583333324,
      "v": 107
    },
    {
      "midi": 68,
      "hit": false,
      "t": 52380.954999999885,
      "d": 1190.4762499999997,
      "v": 110
    },
    {
      "midi": 71,
      "hit": false,
      "t": 52380.954999999885,
      "d": 1190.4762499999997,
      "v": 110
    },
    {
      "midi": 68,
      "hit": false,
      "t": 52380.95500000035,
      "d": 1190.4762499999997,
      "v": 110
    },
    {
      "midi": 71,
      "hit": false,
      "t": 52380.95500000035,
      "d": 1190.4762499999997,
      "v": 110
    },
    {
      "midi": 68,
      "hit": false,
      "t": 52380.95500000035,
      "d": 1190.4762499999997,
      "v": 110
    },
    {
      "midi": 71,
      "hit": false,
      "t": 52380.95500000035,
      "d": 1190.4762499999997,
      "v": 110
    },
    {
      "midi": 72,
      "hit": false,
      "t": 54285.71699999989,
      "d": 912.6984583333324,
      "v": 104
    },
    {
      "midi": 69,
      "hit": false,
      "t": 54285.71699999989,
      "d": 912.6984583333324,
      "v": 104
    },
    {
      "midi": 72,
      "hit": false,
      "t": 54285.71700000035,
      "d": 912.6984583333324,
      "v": 107
    },
    {
      "midi": 69,
      "hit": false,
      "t": 54285.71700000035,
      "d": 912.6984583333324,
      "v": 107
    },
    {
      "midi": 72,
      "hit": false,
      "t": 54285.71700000035,
      "d": 912.6984583333324,
      "v": 107
    },
    {
      "midi": 69,
      "hit": false,
      "t": 54285.71700000035,
      "d": 912.6984583333324,
      "v": 107
    },
    {
      "midi": 71,
      "hit": false,
      "t": 55238.09799999989,
      "d": 436.5079583333354,
      "v": 110
    },
    {
      "midi": 68,
      "hit": false,
      "t": 55238.09799999989,
      "d": 436.5079583333354,
      "v": 110
    },
    {
      "midi": 71,
      "hit": false,
      "t": 55238.098000000355,
      "d": 436.5079583333354,
      "v": 106
    },
    {
      "midi": 68,
      "hit": false,
      "t": 55238.098000000355,
      "d": 436.5079583333354,
      "v": 106
    },
    {
      "midi": 71,
      "hit": false,
      "t": 55238.098000000355,
      "d": 436.5079583333354,
      "v": 106
    },
    {
      "midi": 68,
      "hit": false,
      "t": 55238.098000000355,
      "d": 436.5079583333354,
      "v": 106
    },
    {
      "midi": 69,
      "hit": false,
      "t": 55714.28849999989,
      "d": 436.5079583333354,
      "v": 104
    },
    {
      "midi": 72,
      "hit": false,
      "t": 55714.28849999989,
      "d": 436.5079583333354,
      "v": 104
    },
    {
      "midi": 69,
      "hit": false,
      "t": 55714.28850000036,
      "d": 436.5079583333354,
      "v": 106
    },
    {
      "midi": 72,
      "hit": false,
      "t": 55714.28850000036,
      "d": 436.5079583333354,
      "v": 106
    },
    {
      "midi": 69,
      "hit": false,
      "t": 55714.28850000036,
      "d": 436.5079583333354,
      "v": 106
    },
    {
      "midi": 72,
      "hit": false,
      "t": 55714.28850000036,
      "d": 436.5079583333354,
      "v": 106
    },
    {
      "midi": 71,
      "hit": false,
      "t": 56190.4789999999,
      "d": 1190.4762499999997,
      "v": 114
    },
    {
      "midi": 74,
      "hit": false,
      "t": 56190.4789999999,
      "d": 1190.4762499999997,
      "v": 114
    },
    {
      "midi": 71,
      "hit": false,
      "t": 56190.47900000036,
      "d": 1190.4762499999997,
      "v": 114
    },
    {
      "midi": 74,
      "hit": false,
      "t": 56190.47900000036,
      "d": 1190.4762499999997,
      "v": 114
    },
    {
      "midi": 71,
      "hit": false,
      "t": 56190.47900000036,
      "d": 1190.4762499999997,
      "v": 114
    },
    {
      "midi": 74,
      "hit": false,
      "t": 56190.47900000036,
      "d": 1190.4762499999997,
      "v": 114
    },
    {
      "midi": 45,
      "hit": false,
      "t": 56666.66949999993,
      "d": 119.04762499999924,
      "v": 108
    },
    {
      "midi": 48,
      "hit": false,
      "t": 56690.47902499993,
      "d": 119.04762499999924,
      "v": 108
    },
    {
      "midi": 45,
      "hit": false,
      "t": 56904.76474999993,
      "d": 119.04762499999924,
      "v": 111
    },
    {
      "midi": 48,
      "hit": false,
      "t": 56928.574274999926,
      "d": 119.04762499999924,
      "v": 111
    },
    {
      "midi": 45,
      "hit": false,
      "t": 57142.85999999993,
      "d": 952.380999999994,
      "v": 127
    },
    {
      "midi": 45,
      "hit": false,
      "t": 57142.86000000002,
      "d": 7619.0480000000025,
      "v": 107
    },
    {
      "midi": 57,
      "hit": false,
      "t": 57142.86000000002,
      "d": 7619.0480000000025,
      "v": 107
    },
    {
      "midi": 48,
      "hit": false,
      "t": 57166.669524999925,
      "d": 952.380999999994,
      "v": 127
    },
    {
      "midi": 72,
      "hit": false,
      "t": 58095.2409999999,
      "d": 912.6984583333324,
      "v": 110
    },
    {
      "midi": 69,
      "hit": false,
      "t": 58095.2409999999,
      "d": 912.6984583333324,
      "v": 110
    },
    {
      "midi": 72,
      "hit": false,
      "t": 58095.241000000366,
      "d": 912.6984583333324,
      "v": 108
    },
    {
      "midi": 69,
      "hit": false,
      "t": 58095.241000000366,
      "d": 912.6984583333324,
      "v": 108
    },
    {
      "midi": 72,
      "hit": false,
      "t": 58095.241000000366,
      "d": 912.6984583333324,
      "v": 108
    },
    {
      "midi": 69,
      "hit": false,
      "t": 58095.241000000366,
      "d": 912.6984583333324,
      "v": 108
    },
    {
      "midi": 69,
      "hit": false,
      "t": 59047.6219999999,
      "d": 912.6984583333324,
      "v": 106
    },
    {
      "midi": 72,
      "hit": false,
      "t": 59047.6219999999,
      "d": 912.6984583333324,
      "v": 106
    },
    {
      "midi": 69,
      "hit": false,
      "t": 59047.62200000037,
      "d": 912.6984583333324,
      "v": 110
    },
    {
      "midi": 72,
      "hit": false,
      "t": 59047.62200000037,
      "d": 912.6984583333324,
      "v": 110
    },
    {
      "midi": 69,
      "hit": false,
      "t": 59047.62200000037,
      "d": 912.6984583333324,
      "v": 110
    },
    {
      "midi": 72,
      "hit": false,
      "t": 59047.62200000037,
      "d": 912.6984583333324,
      "v": 110
    },
    {
      "midi": 68,
      "hit": false,
      "t": 60000.0029999999,
      "d": 1190.4762499999997,
      "v": 110
    },
    {
      "midi": 71,
      "hit": false,
      "t": 60000.0029999999,
      "d": 1190.4762499999997,
      "v": 110
    },
    {
      "midi": 68,
      "hit": false,
      "t": 60000.00300000037,
      "d": 1190.4762499999997,
      "v": 110
    },
    {
      "midi": 71,
      "hit": false,
      "t": 60000.00300000037,
      "d": 1190.4762499999997,
      "v": 110
    },
    {
      "midi": 68,
      "hit": false,
      "t": 60000.00300000037,
      "d": 1190.4762499999997,
      "v": 110
    },
    {
      "midi": 71,
      "hit": false,
      "t": 60000.00300000037,
      "d": 1190.4762499999997,
      "v": 110
    },
    {
      "midi": 59,
      "hit": false,
      "t": 60293.65380833325,
      "d": 23.80952499999694,
      "v": 26
    },
    {
      "midi": 59,
      "hit": false,
      "t": 60357.145874999915,
      "d": 23.80952499999694,
      "v": 26
    },
    {
      "midi": 59,
      "hit": false,
      "t": 60420.63794166658,
      "d": 23.80952499999694,
      "v": 27
    },
    {
      "midi": 59,
      "hit": false,
      "t": 60484.130008333246,
      "d": 23.80952499999694,
      "v": 29
    },
    {
      "midi": 59,
      "hit": false,
      "t": 60563.49509166658,
      "d": 23.80952499999694,
      "v": 29
    },
    {
      "midi": 59,
      "hit": false,
      "t": 60626.98715833324,
      "d": 23.80952499999694,
      "v": 32
    },
    {
      "midi": 59,
      "hit": false,
      "t": 60706.35224166657,
      "d": 23.80952499999694,
      "v": 32
    },
    {
      "midi": 59,
      "hit": false,
      "t": 60785.7173249999,
      "d": 23.80952499999694,
      "v": 34
    },
    {
      "midi": 59,
      "hit": false,
      "t": 60865.08240833323,
      "d": 23.80952499999694,
      "v": 34
    },
    {
      "midi": 59,
      "hit": false,
      "t": 60952.383999999896,
      "d": 23.80952499999694,
      "v": 36
    },
    {
      "midi": 59,
      "hit": false,
      "t": 61031.74908333323,
      "d": 23.80952499999694,
      "v": 39
    },
    {
      "midi": 59,
      "hit": false,
      "t": 61111.11416666656,
      "d": 23.80952499999694,
      "v": 40
    },
    {
      "midi": 59,
      "hit": false,
      "t": 61190.47924999989,
      "d": 23.80952499999694,
      "v": 42
    },
    {
      "midi": 59,
      "hit": false,
      "t": 61277.78084166655,
      "d": 23.80952499999694,
      "v": 43
    },
    {
      "midi": 59,
      "hit": false,
      "t": 61349.20941666655,
      "d": 23.80952499999694,
      "v": 46
    },
    {
      "midi": 59,
      "hit": false,
      "t": 61428.57449999988,
      "d": 23.80952499999694,
      "v": 46
    },
    {
      "midi": 59,
      "hit": false,
      "t": 61515.87609166654,
      "d": 23.80952499999694,
      "v": 49
    },
    {
      "midi": 59,
      "hit": false,
      "t": 61579.36815833321,
      "d": 23.80952499999694,
      "v": 50
    },
    {
      "midi": 59,
      "hit": false,
      "t": 61658.73324166654,
      "d": 23.80952499999694,
      "v": 53
    },
    {
      "midi": 59,
      "hit": false,
      "t": 61730.161816666536,
      "d": 23.80952499999694,
      "v": 55
    },
    {
      "midi": 59,
      "hit": false,
      "t": 61801.590391666534,
      "d": 23.80952499999694,
      "v": 57
    },
    {
      "midi": 59,
      "hit": false,
      "t": 61880.955474999864,
      "d": 23.80952499999694,
      "v": 60
    },
    {
      "midi": 69,
      "hit": false,
      "t": 61904.764999999905,
      "d": 912.6984583333324,
      "v": 106
    },
    {
      "midi": 72,
      "hit": false,
      "t": 61904.764999999905,
      "d": 912.6984583333324,
      "v": 106
    },
    {
      "midi": 69,
      "hit": false,
      "t": 61904.76500000037,
      "d": 912.6984583333324,
      "v": 106
    },
    {
      "midi": 72,
      "hit": false,
      "t": 61904.76500000037,
      "d": 912.6984583333324,
      "v": 106
    },
    {
      "midi": 69,
      "hit": false,
      "t": 61904.76500000037,
      "d": 912.6984583333324,
      "v": 106
    },
    {
      "midi": 72,
      "hit": false,
      "t": 61904.76500000037,
      "d": 912.6984583333324,
      "v": 106
    },
    {
      "midi": 59,
      "hit": false,
      "t": 61976.19357499986,
      "d": 23.80952499999694,
      "v": 62
    },
    {
      "midi": 59,
      "hit": false,
      "t": 62047.62214999986,
      "d": 23.80952499999694,
      "v": 65
    },
    {
      "midi": 59,
      "hit": false,
      "t": 62134.92374166652,
      "d": 23.80952499999694,
      "v": 68
    },
    {
      "midi": 59,
      "hit": false,
      "t": 62214.28882499985,
      "d": 23.80952499999694,
      "v": 73
    },
    {
      "midi": 59,
      "hit": false,
      "t": 62309.526924999846,
      "d": 23.80952499999694,
      "v": 78
    },
    {
      "midi": 59,
      "hit": false,
      "t": 62380.95549999984,
      "d": 23.80952499999694,
      "v": 82
    },
    {
      "midi": 59,
      "hit": false,
      "t": 62484.13010833317,
      "d": 23.80952499999694,
      "v": 86
    },
    {
      "midi": 59,
      "hit": false,
      "t": 62571.431699999834,
      "d": 23.80952499999694,
      "v": 92
    },
    {
      "midi": 59,
      "hit": false,
      "t": 62674.60630833316,
      "d": 23.80952499999694,
      "v": 95
    },
    {
      "midi": 59,
      "hit": false,
      "t": 62761.907899999824,
      "d": 23.80952499999694,
      "v": 95
    },
    {
      "midi": 59,
      "hit": false,
      "t": 62857.14599999982,
      "d": 23.80952499999694,
      "v": 95
    },
    {
      "midi": 68,
      "hit": false,
      "t": 62857.145999999906,
      "d": 436.5079583333354,
      "v": 110
    },
    {
      "midi": 71,
      "hit": false,
      "t": 62857.145999999906,
      "d": 436.5079583333354,
      "v": 110
    },
    {
      "midi": 68,
      "hit": false,
      "t": 62857.14600000037,
      "d": 436.5079583333354,
      "v": 104
    },
    {
      "midi": 71,
      "hit": false,
      "t": 62857.14600000037,
      "d": 436.5079583333354,
      "v": 104
    },
    {
      "midi": 68,
      "hit": false,
      "t": 62857.14600000037,
      "d": 436.5079583333354,
      "v": 104
    },
    {
      "midi": 71,
      "hit": false,
      "t": 62857.14600000037,
      "d": 436.5079583333354,
      "v": 104
    },
    {
      "midi": 59,
      "hit": false,
      "t": 62960.320608333146,
      "d": 23.80952499999694,
      "v": 95
    },
    {
      "midi": 59,
      "hit": false,
      "t": 63071.43172499981,
      "d": 23.80952499999694,
      "v": 93
    },
    {
      "midi": 59,
      "hit": false,
      "t": 63174.60633333314,
      "d": 23.80952499999694,
      "v": 90
    },
    {
      "midi": 59,
      "hit": false,
      "t": 63277.78094166647,
      "d": 23.80952499999694,
      "v": 87
    },
    {
      "midi": 72,
      "hit": false,
      "t": 63333.33649999991,
      "d": 436.5079583333354,
      "v": 105
    },
    {
      "midi": 69,
      "hit": false,
      "t": 63333.33649999991,
      "d": 436.5079583333354,
      "v": 105
    },
    {
      "midi": 72,
      "hit": false,
      "t": 63333.336500000376,
      "d": 436.5079583333354,
      "v": 107
    },
    {
      "midi": 69,
      "hit": false,
      "t": 63333.336500000376,
      "d": 436.5079583333354,
      "v": 107
    },
    {
      "midi": 72,
      "hit": false,
      "t": 63333.336500000376,
      "d": 436.5079583333354,
      "v": 107
    },
    {
      "midi": 69,
      "hit": false,
      "t": 63333.336500000376,
      "d": 436.5079583333354,
      "v": 107
    },
    {
      "midi": 59,
      "hit": false,
      "t": 63373.01904166646,
      "d": 23.80952499999694,
      "v": 85
    },
    {
      "midi": 59,
      "hit": false,
      "t": 63468.25714166646,
      "d": 23.80952499999694,
      "v": 83
    },
    {
      "midi": 71,
      "hit": false,
      "t": 63809.526999999915,
      "d": 1190.4762499999997,
      "v": 115
    },
    {
      "midi": 74,
      "hit": false,
      "t": 63809.526999999915,
      "d": 1190.4762499999997,
      "v": 115
    },
    {
      "midi": 71,
      "hit": false,
      "t": 63809.52700000038,
      "d": 1190.4762499999997,
      "v": 115
    },
    {
      "midi": 74,
      "hit": false,
      "t": 63809.52700000038,
      "d": 1190.4762499999997,
      "v": 115
    },
    {
      "midi": 71,
      "hit": false,
      "t": 63809.52700000038,
      "d": 1190.4762499999997,
      "v": 115
    },
    {
      "midi": 74,
      "hit": false,
      "t": 63809.52700000038,
      "d": 1190.4762499999997,
      "v": 115
    },
    {
      "midi": 59,
      "hit": false,
      "t": 63896.82859166645,
      "d": 2515.8731416666633,
      "v": 78
    },
    {
      "midi": 45,
      "hit": false,
      "t": 64285.71749999979,
      "d": 119.04762499999924,
      "v": 114
    },
    {
      "midi": 48,
      "hit": false,
      "t": 64309.527024999785,
      "d": 119.04762499999924,
      "v": 114
    },
    {
      "midi": 45,
      "hit": false,
      "t": 64523.812749999786,
      "d": 119.04762499999924,
      "v": 117
    },
    {
      "midi": 48,
      "hit": false,
      "t": 64547.62227499978,
      "d": 119.04762499999924,
      "v": 117
    },
    {
      "midi": 45,
      "hit": false,
      "t": 64761.907999999785,
      "d": 952.3810000000012,
      "v": 127
    },
    {
      "midi": 45,
      "hit": false,
      "t": 64761.908000000025,
      "d": 7619.047999999995,
      "v": 110
    },
    {
      "midi": 57,
      "hit": false,
      "t": 64761.908000000025,
      "d": 7619.047999999995,
      "v": 110
    },
    {
      "midi": 48,
      "hit": false,
      "t": 64785.71752499978,
      "d": 952.3810000000085,
      "v": 127
    },
    {
      "midi": 72,
      "hit": false,
      "t": 65714.28899999992,
      "d": 912.6984583333397,
      "v": 110
    },
    {
      "midi": 69,
      "hit": false,
      "t": 65714.28899999992,
      "d": 912.6984583333397,
      "v": 110
    },
    {
      "midi": 72,
      "hit": false,
      "t": 65714.28900000038,
      "d": 912.6984583333397,
      "v": 109
    },
    {
      "midi": 69,
      "hit": false,
      "t": 65714.28900000038,
      "d": 912.6984583333397,
      "v": 109
    },
    {
      "midi": 72,
      "hit": false,
      "t": 65714.28900000038,
      "d": 912.6984583333397,
      "v": 109
    },
    {
      "midi": 69,
      "hit": false,
      "t": 65714.28900000038,
      "d": 912.6984583333397,
      "v": 109
    },
    {
      "midi": 72,
      "hit": false,
      "t": 66666.66999999993,
      "d": 912.6984583333397,
      "v": 105
    },
    {
      "midi": 69,
      "hit": false,
      "t": 66666.66999999993,
      "d": 912.6984583333397,
      "v": 105
    },
    {
      "midi": 72,
      "hit": false,
      "t": 66666.67000000039,
      "d": 912.6984583333397,
      "v": 108
    },
    {
      "midi": 69,
      "hit": false,
      "t": 66666.67000000039,
      "d": 912.6984583333397,
      "v": 108
    },
    {
      "midi": 72,
      "hit": false,
      "t": 66666.67000000039,
      "d": 912.6984583333397,
      "v": 108
    },
    {
      "midi": 69,
      "hit": false,
      "t": 66666.67000000039,
      "d": 912.6984583333397,
      "v": 108
    },
    {
      "midi": 71,
      "hit": false,
      "t": 67619.05099999993,
      "d": 1190.476250000007,
      "v": 113
    },
    {
      "midi": 68,
      "hit": false,
      "t": 67619.05099999993,
      "d": 1190.476250000007,
      "v": 113
    },
    {
      "midi": 71,
      "hit": false,
      "t": 67619.0510000004,
      "d": 1190.476250000007,
      "v": 113
    },
    {
      "midi": 68,
      "hit": false,
      "t": 67619.0510000004,
      "d": 1190.476250000007,
      "v": 113
    },
    {
      "midi": 71,
      "hit": false,
      "t": 67619.0510000004,
      "d": 1190.476250000007,
      "v": 113
    },
    {
      "midi": 68,
      "hit": false,
      "t": 67619.0510000004,
      "d": 1190.476250000007,
      "v": 113
    },
    {
      "midi": 69,
      "hit": false,
      "t": 69523.81299999994,
      "d": 912.6984583333397,
      "v": 107
    },
    {
      "midi": 72,
      "hit": false,
      "t": 69523.81299999994,
      "d": 912.6984583333397,
      "v": 107
    },
    {
      "midi": 69,
      "hit": false,
      "t": 69523.8130000004,
      "d": 912.6984583333397,
      "v": 107
    },
    {
      "midi": 72,
      "hit": false,
      "t": 69523.8130000004,
      "d": 912.6984583333397,
      "v": 107
    },
    {
      "midi": 69,
      "hit": false,
      "t": 69523.8130000004,
      "d": 912.6984583333397,
      "v": 107
    },
    {
      "midi": 72,
      "hit": false,
      "t": 69523.8130000004,
      "d": 912.6984583333397,
      "v": 107
    },
    {
      "midi": 68,
      "hit": false,
      "t": 70476.19399999994,
      "d": 436.50795833332813,
      "v": 110
    },
    {
      "midi": 71,
      "hit": false,
      "t": 70476.19399999994,
      "d": 436.50795833332813,
      "v": 110
    },
    {
      "midi": 68,
      "hit": false,
      "t": 70476.19400000041,
      "d": 436.50795833332813,
      "v": 110
    },
    {
      "midi": 71,
      "hit": false,
      "t": 70476.19400000041,
      "d": 436.50795833332813,
      "v": 110
    },
    {
      "midi": 68,
      "hit": false,
      "t": 70476.19400000041,
      "d": 436.50795833332813,
      "v": 110
    },
    {
      "midi": 71,
      "hit": false,
      "t": 70476.19400000041,
      "d": 436.50795833332813,
      "v": 110
    },
    {
      "midi": 69,
      "hit": false,
      "t": 70952.38449999994,
      "d": 436.50795833332813,
      "v": 110
    },
    {
      "midi": 72,
      "hit": false,
      "t": 70952.38449999994,
      "d": 436.50795833332813,
      "v": 110
    },
    {
      "midi": 69,
      "hit": false,
      "t": 70952.38450000041,
      "d": 436.50795833332813,
      "v": 110
    },
    {
      "midi": 72,
      "hit": false,
      "t": 70952.38450000041,
      "d": 436.50795833332813,
      "v": 110
    },
    {
      "midi": 69,
      "hit": false,
      "t": 70952.38450000041,
      "d": 436.50795833332813,
      "v": 110
    },
    {
      "midi": 72,
      "hit": false,
      "t": 70952.38450000041,
      "d": 436.50795833332813,
      "v": 110
    },
    {
      "midi": 74,
      "hit": false,
      "t": 71428.57499999994,
      "d": 1190.4762499999924,
      "v": 115
    },
    {
      "midi": 71,
      "hit": false,
      "t": 71428.57499999994,
      "d": 1190.4762499999924,
      "v": 115
    },
    {
      "midi": 74,
      "hit": false,
      "t": 71428.5750000004,
      "d": 1190.476250000007,
      "v": 115
    },
    {
      "midi": 71,
      "hit": false,
      "t": 71428.5750000004,
      "d": 1190.476250000007,
      "v": 115
    },
    {
      "midi": 74,
      "hit": false,
      "t": 71428.5750000004,
      "d": 1190.476250000007,
      "v": 115
    },
    {
      "midi": 71,
      "hit": false,
      "t": 71428.5750000004,
      "d": 1190.476250000007,
      "v": 115
    },
    {
      "midi": 45,
      "hit": false,
      "t": 71904.76549999979,
      "d": 119.04762500000652,
      "v": 109
    },
    {
      "midi": 48,
      "hit": false,
      "t": 71928.5750249998,
      "d": 119.04762500000652,
      "v": 109
    },
    {
      "midi": 45,
      "hit": false,
      "t": 72142.8607499998,
      "d": 119.04762500000652,
      "v": 108
    },
    {
      "midi": 48,
      "hit": false,
      "t": 72166.67027499981,
      "d": 119.04762500000652,
      "v": 108
    },
    {
      "midi": 45,
      "hit": false,
      "t": 72380.95599999982,
      "d": 952.3810000000085,
      "v": 127
    },
    {
      "midi": 45,
      "hit": false,
      "t": 72380.95600000002,
      "d": 7619.047999999995,
      "v": 104
    },
    {
      "midi": 57,
      "hit": false,
      "t": 72380.95600000002,
      "d": 7619.047999999995,
      "v": 104
    },
    {
      "midi": 48,
      "hit": false,
      "t": 72404.76552499982,
      "d": 952.3810000000085,
      "v": 127
    },
    {
      "midi": 72,
      "hit": false,
      "t": 73333.33699999993,
      "d": 912.6984583333397,
      "v": 106
    },
    {
      "midi": 69,
      "hit": false,
      "t": 73333.33699999993,
      "d": 912.6984583333397,
      "v": 106
    },
    {
      "midi": 72,
      "hit": false,
      "t": 73333.3370000004,
      "d": 912.6984583333397,
      "v": 106
    },
    {
      "midi": 69,
      "hit": false,
      "t": 73333.3370000004,
      "d": 912.6984583333397,
      "v": 106
    },
    {
      "midi": 72,
      "hit": false,
      "t": 73333.3370000004,
      "d": 912.6984583333397,
      "v": 106
    },
    {
      "midi": 69,
      "hit": false,
      "t": 73333.3370000004,
      "d": 912.6984583333397,
      "v": 106
    },
    {
      "midi": 69,
      "hit": false,
      "t": 74285.71799999994,
      "d": 912.6984583333397,
      "v": 110
    },
    {
      "midi": 72,
      "hit": false,
      "t": 74285.71799999994,
      "d": 912.6984583333397,
      "v": 110
    },
    {
      "midi": 69,
      "hit": false,
      "t": 74285.71800000042,
      "d": 912.6984583333397,
      "v": 110
    },
    {
      "midi": 72,
      "hit": false,
      "t": 74285.71800000042,
      "d": 912.6984583333397,
      "v": 110
    },
    {
      "midi": 69,
      "hit": false,
      "t": 74285.71800000042,
      "d": 912.6984583333397,
      "v": 110
    },
    {
      "midi": 72,
      "hit": false,
      "t": 74285.71800000042,
      "d": 912.6984583333397,
      "v": 110
    },
    {
      "midi": 68,
      "hit": false,
      "t": 75238.09899999994,
      "d": 1190.476250000007,
      "v": 113
    },
    {
      "midi": 71,
      "hit": false,
      "t": 75238.09899999994,
      "d": 1190.476250000007,
      "v": 113
    },
    {
      "midi": 68,
      "hit": false,
      "t": 75238.09900000042,
      "d": 1190.476250000007,
      "v": 113
    },
    {
      "midi": 71,
      "hit": false,
      "t": 75238.09900000042,
      "d": 1190.476250000007,
      "v": 113
    },
    {
      "midi": 68,
      "hit": false,
      "t": 75238.09900000042,
      "d": 1190.476250000007,
      "v": 113
    },
    {
      "midi": 71,
      "hit": false,
      "t": 75238.09900000042,
      "d": 1190.476250000007,
      "v": 113
    },
    {
      "midi": 59,
      "hit": false,
      "t": 75531.74980833316,
      "d": 23.809525000004214,
      "v": 28
    },
    {
      "midi": 59,
      "hit": false,
      "t": 75595.24187499983,
      "d": 23.809525000004214,
      "v": 28
    },
    {
      "midi": 59,
      "hit": false,
      "t": 75666.67044999983,
      "d": 23.809525000004214,
      "v": 28
    },
    {
      "midi": 59,
      "hit": false,
      "t": 75730.1625166665,
      "d": 23.809525000004214,
      "v": 29
    },
    {
      "midi": 59,
      "hit": false,
      "t": 75793.65458333318,
      "d": 23.809525000004214,
      "v": 31
    },
    {
      "midi": 59,
      "hit": false,
      "t": 75880.95617499985,
      "d": 23.809525000004214,
      "v": 31
    },
    {
      "midi": 59,
      "hit": false,
      "t": 75936.51173333319,
      "d": 23.809525000004214,
      "v": 33
    },
    {
      "midi": 59,
      "hit": false,
      "t": 75992.06729166652,
      "d": 23.809525000004214,
      "v": 33
    },
    {
      "midi": 59,
      "hit": false,
      "t": 76055.5593583332,
      "d": 23.809525000004214,
      "v": 34
    },
    {
      "midi": 59,
      "hit": false,
      "t": 76126.98793333319,
      "d": 23.809525000004214,
      "v": 37
    },
    {
      "midi": 59,
      "hit": false,
      "t": 76214.28952499987,
      "d": 23.809525000004214,
      "v": 39
    },
    {
      "midi": 59,
      "hit": false,
      "t": 76285.71809999987,
      "d": 23.809525000004214,
      "v": 41
    },
    {
      "midi": 59,
      "hit": false,
      "t": 76349.21016666654,
      "d": 23.809525000004214,
      "v": 43
    },
    {
      "midi": 59,
      "hit": false,
      "t": 76420.63874166654,
      "d": 23.809525000004214,
      "v": 45
    },
    {
      "midi": 59,
      "hit": false,
      "t": 76500.00382499988,
      "d": 23.809525000004214,
      "v": 47
    },
    {
      "midi": 59,
      "hit": false,
      "t": 76571.43239999987,
      "d": 23.809525000004214,
      "v": 50
    },
    {
      "midi": 59,
      "hit": false,
      "t": 76642.86097499987,
      "d": 23.809525000004214,
      "v": 50
    },
    {
      "midi": 59,
      "hit": false,
      "t": 76722.22605833321,
      "d": 23.809525000004214,
      "v": 52
    },
    {
      "midi": 59,
      "hit": false,
      "t": 76777.78161666654,
      "d": 23.809525000004214,
      "v": 54
    },
    {
      "midi": 59,
      "hit": false,
      "t": 76865.08320833322,
      "d": 23.809525000004214,
      "v": 57
    },
    {
      "midi": 59,
      "hit": false,
      "t": 76944.44829166656,
      "d": 23.809525000004214,
      "v": 61
    },
    {
      "midi": 59,
      "hit": false,
      "t": 77023.8133749999,
      "d": 23.809525000004214,
      "v": 62
    },
    {
      "midi": 59,
      "hit": false,
      "t": 77095.2419499999,
      "d": 23.809525000004214,
      "v": 63
    },
    {
      "midi": 72,
      "hit": false,
      "t": 77142.86099999995,
      "d": 912.6984583333397,
      "v": 110
    },
    {
      "midi": 69,
      "hit": false,
      "t": 77142.86099999995,
      "d": 912.6984583333397,
      "v": 110
    },
    {
      "midi": 72,
      "hit": false,
      "t": 77142.86100000043,
      "d": 912.6984583333397,
      "v": 110
    },
    {
      "midi": 69,
      "hit": false,
      "t": 77142.86100000043,
      "d": 912.6984583333397,
      "v": 110
    },
    {
      "midi": 72,
      "hit": false,
      "t": 77142.86100000043,
      "d": 912.6984583333397,
      "v": 110
    },
    {
      "midi": 69,
      "hit": false,
      "t": 77142.86100000043,
      "d": 912.6984583333397,
      "v": 110
    },
    {
      "midi": 59,
      "hit": false,
      "t": 77182.54354166657,
      "d": 23.809525000004214,
      "v": 65
    },
    {
      "midi": 59,
      "hit": false,
      "t": 77277.78164166657,
      "d": 23.809525000004214,
      "v": 68
    },
    {
      "midi": 59,
      "hit": false,
      "t": 77365.08323333325,
      "d": 23.809525000004214,
      "v": 71
    },
    {
      "midi": 59,
      "hit": false,
      "t": 77460.32133333325,
      "d": 23.809525000004214,
      "v": 74
    },
    {
      "midi": 59,
      "hit": false,
      "t": 77563.4959416666,
      "d": 23.809525000004214,
      "v": 77
    },
    {
      "midi": 59,
      "hit": false,
      "t": 77658.7340416666,
      "d": 23.809525000004214,
      "v": 82
    },
    {
      "midi": 59,
      "hit": false,
      "t": 77746.03563333327,
      "d": 23.809525000004214,
      "v": 85
    },
    {
      "midi": 59,
      "hit": false,
      "t": 77825.40071666661,
      "d": 23.809525000004214,
      "v": 88
    },
    {
      "midi": 59,
      "hit": false,
      "t": 77928.57532499995,
      "d": 23.809525000004214,
      "v": 90
    },
    {
      "midi": 59,
      "hit": false,
      "t": 78007.94040833329,
      "d": 23.809525000004214,
      "v": 93
    },
    {
      "midi": 68,
      "hit": false,
      "t": 78095.24199999995,
      "d": 436.50795833332813,
      "v": 119
    },
    {
      "midi": 71,
      "hit": false,
      "t": 78095.24199999995,
      "d": 436.50795833332813,
      "v": 119
    },
    {
      "midi": 59,
      "hit": false,
      "t": 78095.24199999997,
      "d": 23.809525000004214,
      "v": 94
    },
    {
      "midi": 68,
      "hit": false,
      "t": 78095.24200000043,
      "d": 436.50795833332813,
      "v": 110
    },
    {
      "midi": 71,
      "hit": false,
      "t": 78095.24200000043,
      "d": 436.50795833332813,
      "v": 110
    },
    {
      "midi": 68,
      "hit": false,
      "t": 78095.24200000043,
      "d": 436.50795833332813,
      "v": 110
    },
    {
      "midi": 71,
      "hit": false,
      "t": 78095.24200000043,
      "d": 436.50795833332813,
      "v": 110
    },
    {
      "midi": 59,
      "hit": false,
      "t": 78190.48009999997,
      "d": 23.809525000004214,
      "v": 96
    },
    {
      "midi": 59,
      "hit": false,
      "t": 78301.59121666664,
      "d": 23.809525000004214,
      "v": 96
    },
    {
      "midi": 59,
      "hit": false,
      "t": 78396.82931666664,
      "d": 23.809525000004214,
      "v": 95
    },
    {
      "midi": 59,
      "hit": false,
      "t": 78476.19439999998,
      "d": 23.809525000004214,
      "v": 93
    },
    {
      "midi": 59,
      "hit": false,
      "t": 78563.49599166666,
      "d": 23.809525000004214,
      "v": 91
    },
    {
      "midi": 72,
      "hit": false,
      "t": 78571.43249999995,
      "d": 436.50795833332813,
      "v": 110
    },
    {
      "midi": 69,
      "hit": false,
      "t": 78571.43249999995,
      "d": 436.50795833332813,
      "v": 110
    },
    {
      "midi": 72,
      "hit": false,
      "t": 78571.43250000043,
      "d": 436.50795833332813,
      "v": 110
    },
    {
      "midi": 69,
      "hit": false,
      "t": 78571.43250000043,
      "d": 436.50795833332813,
      "v": 110
    },
    {
      "midi": 72,
      "hit": false,
      "t": 78571.43250000043,
      "d": 436.50795833332813,
      "v": 110
    },
    {
      "midi": 69,
      "hit": false,
      "t": 78571.43250000043,
      "d": 436.50795833332813,
      "v": 110
    },
    {
      "midi": 59,
      "hit": false,
      "t": 78634.92456666665,
      "d": 23.809525000004214,
      "v": 90
    },
    {
      "midi": 59,
      "hit": false,
      "t": 78722.22615833333,
      "d": 23.809525000004214,
      "v": 88
    },
    {
      "midi": 59,
      "hit": false,
      "t": 79031.74998333334,
      "d": 2619.047749999998,
      "v": 83
    },
    {
      "midi": 71,
      "hit": false,
      "t": 79047.62299999995,
      "d": 912.6984583333397,
      "v": 113
    },
    {
      "midi": 74,
      "hit": false,
      "t": 79047.62299999995,
      "d": 912.6984583333397,
      "v": 113
    },
    {
      "midi": 71,
      "hit": false,
      "t": 79047.62300000043,
      "d": 912.6984583333397,
      "v": 113
    },
    {
      "midi": 74,
      "hit": false,
      "t": 79047.62300000043,
      "d": 912.6984583333397,
      "v": 113
    },
    {
      "midi": 71,
      "hit": false,
      "t": 79047.62300000043,
      "d": 912.6984583333397,
      "v": 113
    },
    {
      "midi": 74,
      "hit": false,
      "t": 79047.62300000043,
      "d": 912.6984583333397,
      "v": 113
    },
    {
      "midi": 74,
      "hit": false,
      "t": 80000.00399999996,
      "d": 1904.7620000000024,
      "v": 106
    },
    {
      "midi": 71,
      "hit": false,
      "t": 80000.00399999996,
      "d": 1904.7620000000024,
      "v": 106
    },
    {
      "midi": 57,
      "hit": false,
      "t": 80000.00400000002,
      "d": 7619.047999999995,
      "v": 106
    },
    {
      "midi": 45,
      "hit": false,
      "t": 80000.00400000002,
      "d": 7619.047999999995,
      "v": 106
    },
    {
      "midi": 74,
      "hit": false,
      "t": 80000.00400000044,
      "d": 1904.7620000000024,
      "v": 106
    },
    {
      "midi": 71,
      "hit": false,
      "t": 80000.00400000044,
      "d": 1904.7620000000024,
      "v": 106
    },
    {
      "midi": 74,
      "hit": false,
      "t": 80000.00400000044,
      "d": 1904.7620000000024,
      "v": 106
    },
    {
      "midi": 71,
      "hit": false,
      "t": 80000.00400000044,
      "d": 1904.7620000000024,
      "v": 106
    },
    {
      "midi": 71,
      "hit": false,
      "t": 81904.76599999996,
      "d": 952.380999999994,
      "v": 103
    },
    {
      "midi": 71,
      "hit": false,
      "t": 81904.76600000044,
      "d": 952.380999999994,
      "v": 106
    },
    {
      "midi": 71,
      "hit": false,
      "t": 81904.76600000044,
      "d": 952.380999999994,
      "v": 106
    },
    {
      "midi": 74,
      "hit": false,
      "t": 82857.14699999995,
      "d": 952.380999999994,
      "v": 106
    },
    {
      "midi": 74,
      "hit": false,
      "t": 82857.14700000043,
      "d": 952.380999999994,
      "v": 106
    },
    {
      "midi": 74,
      "hit": false,
      "t": 82857.14700000043,
      "d": 952.380999999994,
      "v": 106
    },
    {
      "midi": 73,
      "hit": false,
      "t": 83809.52799999995,
      "d": 3809.524000000005,
      "v": 109
    },
    {
      "midi": 71,
      "hit": false,
      "t": 83809.52799999995,
      "d": 3809.524000000005,
      "v": 109
    },
    {
      "midi": 73,
      "hit": false,
      "t": 83809.52800000043,
      "d": 3809.524000000005,
      "v": 113
    },
    {
      "midi": 71,
      "hit": false,
      "t": 83809.52800000043,
      "d": 3809.524000000005,
      "v": 113
    },
    {
      "midi": 73,
      "hit": false,
      "t": 83809.52800000043,
      "d": 3809.524000000005,
      "v": 113
    },
    {
      "midi": 71,
      "hit": false,
      "t": 83809.52800000043,
      "d": 3809.524000000005,
      "v": 113
    }
  ]
}