{
  "jsonPath": "Animes/Revolutionary Girl Utena MIDI Collection/in-the-sunlit-garden.json",
  "path": "Animes\\Revolutionary Girl Utena MIDI Collection\\In the Sunlit Garden.mid",
  "name": "In the Sunlit Garden",
  "difficulty": "Advanced",
  "bpm": 72.00002880001152,
  "notes": [
    {
      "midi": 83,
      "hit": false,
      "t": 1500,
      "d": 208.3332499999999,
      "v": 64
    },
    {
      "midi": 84,
      "hit": false,
      "t": 1708.33325,
      "d": 208.33325000000013,
      "v": 64
    },
    {
      "midi": 83,
      "hit": false,
      "t": 1916.6665,
      "d": 208.3332499999999,
      "v": 64
    },
    {
      "midi": 81,
      "hit": false,
      "t": 2124.99975,
      "d": 208.33325000000013,
      "v": 64
    },
    {
      "midi": 60,
      "hit": false,
      "t": 2333.333,
      "d": 416.6664999999998,
      "v": 64
    },
    {
      "midi": 79,
      "hit": false,
      "t": 2333.333,
      "d": 1249.9994999999994,
      "v": 64
    },
    {
      "midi": 67,
      "hit": false,
      "t": 2749.9995,
      "d": 416.6664999999998,
      "v": 64
    },
    {
      "midi": 64,
      "hit": false,
      "t": 3166.6659999999997,
      "d": 416.6664999999998,
      "v": 64
    },
    {
      "midi": 79,
      "hit": false,
      "t": 3583.3324999999995,
      "d": 416.6664999999998,
      "v": 64
    },
    {
      "midi": 67,
      "hit": false,
      "t": 3583.3324999999995,
      "d": 416.6664999999998,
      "v": 64
    },
    {
      "midi": 79,
      "hit": false,
      "t": 3999.9989999999993,
      "d": 416.6664999999998,
      "v": 64
    },
    {
      "midi": 53,
      "hit": false,
      "t": 3999.9989999999993,
      "d": 416.6664999999998,
      "v": 64
    },
    {
      "midi": 81,
      "hit": false,
      "t": 4416.665499999999,
      "d": 416.66650000000027,
      "v": 64
    },
    {
      "midi": 60,
      "hit": false,
      "t": 4416.665499999999,
      "d": 416.66650000000027,
      "v": 64
    },
    {
      "midi": 77,
      "hit": false,
      "t": 4833.331999999999,
      "d": 416.66650000000027,
      "v": 64
    },
    {
      "midi": 57,
      "hit": false,
      "t": 4833.331999999999,
      "d": 416.66650000000027,
      "v": 64
    },
    {
      "midi": 76,
      "hit": false,
      "t": 5249.9985,
      "d": 416.66650000000027,
      "v": 64
    },
    {
      "midi": 60,
      "hit": false,
      "t": 5249.9985,
      "d": 416.66650000000027,
      "v": 64
    },
    {
      "midi": 55,
      "hit": false,
      "t": 5666.665,
      "d": 416.66650000000027,
      "v": 64
    },
    {
      "midi": 74,
      "hit": false,
      "t": 5666.665,
      "d": 1249.9995000000008,
      "v": 64
    },
    {
      "midi": 62,
      "hit": false,
      "t": 6083.3315,
      "d": 416.66650000000027,
      "v": 64
    },
    {
      "midi": 59,
      "hit": false,
      "t": 6499.9980000000005,
      "d": 416.66650000000027,
      "v": 64
    },
    {
      "midi": 74,
      "hit": false,
      "t": 6916.664500000001,
      "d": 416.66650000000027,
      "v": 64
    },
    {
      "midi": 62,
      "hit": false,
      "t": 6916.664500000001,
      "d": 416.66650000000027,
      "v": 64
    },
    {
      "midi": 56,
      "hit": false,
      "t": 7333.331000000001,
      "d": 416.66650000000027,
      "v": 64
    },
    {
      "midi": 74,
      "hit": false,
      "t": 7333.331000000001,
      "d": 416.66650000000027,
      "v": 64
    },
    {
      "midi": 79,
      "hit": false,
      "t": 7749.997500000001,
      "d": 416.66650000000027,
      "v": 64
    },
    {
      "midi": 62,
      "hit": false,
      "t": 7749.997500000001,
      "d": 416.66650000000027,
      "v": 64
    },
    {
      "midi": 76,
      "hit": false,
      "t": 8166.664000000002,
      "d": 416.66650000000027,
      "v": 64
    },
    {
      "midi": 59,
      "hit": false,
      "t": 8166.664000000002,
      "d": 416.66650000000027,
      "v": 64
    },
    {
      "midi": 74,
      "hit": false,
      "t": 8583.330500000002,
      "d": 416.66649999999936,
      "v": 64
    },
    {
      "midi": 62,
      "hit": false,
      "t": 8583.330500000002,
      "d": 416.66649999999936,
      "v": 64
    },
    {
      "midi": 57,
      "hit": false,
      "t": 8999.997000000001,
      "d": 416.66649999999936,
      "v": 64
    },
    {
      "midi": 72,
      "hit": false,
      "t": 8999.997000000001,
      "d": 1249.999499999998,
      "v": 64
    },
    {
      "midi": 64,
      "hit": false,
      "t": 9416.6635,
      "d": 416.66649999999936,
      "v": 64
    },
    {
      "midi": 60,
      "hit": false,
      "t": 9833.33,
      "d": 416.66649999999936,
      "v": 64
    },
    {
      "midi": 71,
      "hit": false,
      "t": 10249.9965,
      "d": 208.33324999999968,
      "v": 64
    },
    {
      "midi": 72,
      "hit": false,
      "t": 10458.329749999999,
      "d": 208.33324999999968,
      "v": 64
    },
    {
      "midi": 54,
      "hit": false,
      "t": 10666.662999999999,
      "d": 416.66649999999936,
      "v": 64
    },
    {
      "midi": 42,
      "hit": false,
      "t": 10666.662999999999,
      "d": 833.3329999999987,
      "v": 64
    },
    {
      "midi": 74,
      "hit": false,
      "t": 10666.662999999999,
      "d": 833.3329999999987,
      "v": 64
    },
    {
      "midi": 83,
      "hit": false,
      "t": 10666.662999999999,
      "d": 833.3329999999987,
      "v": 64
    },
    {
      "midi": 60,
      "hit": false,
      "t": 11083.329499999998,
      "d": 416.66649999999936,
      "v": 64
    },
    {
      "midi": 64,
      "hit": false,
      "t": 11499.995999999997,
      "d": 416.66649999999936,
      "v": 64
    },
    {
      "midi": 76,
      "hit": false,
      "t": 11499.995999999997,
      "d": 833.3329999999987,
      "v": 64
    },
    {
      "midi": 84,
      "hit": false,
      "t": 11499.995999999997,
      "d": 833.3329999999987,
      "v": 64
    },
    {
      "midi": 60,
      "hit": false,
      "t": 11916.662499999997,
      "d": 416.66649999999936,
      "v": 64
    },
    {
      "midi": 50,
      "hit": false,
      "t": 12333.328999999996,
      "d": 416.66649999999936,
      "v": 64
    },
    {
      "midi": 72,
      "hit": false,
      "t": 12333.328999999996,
      "d": 1666.6659999999974,
      "v": 64
    },
    {
      "midi": 79,
      "hit": false,
      "t": 12333.328999999996,
      "d": 1666.6659999999974,
      "v": 64
    },
    {
      "midi": 57,
      "hit": false,
      "t": 12749.995499999995,
      "d": 416.66649999999936,
      "v": 64
    },
    {
      "midi": 60,
      "hit": false,
      "t": 13166.661999999995,
      "d": 416.66649999999936,
      "v": 64
    },
    {
      "midi": 57,
      "hit": false,
      "t": 13583.328499999994,
      "d": 416.66649999999936,
      "v": 64
    },
    {
      "midi": 55,
      "hit": false,
      "t": 13999.994999999994,
      "d": 416.66649999999936,
      "v": 64
    },
    {
      "midi": 71,
      "hit": false,
      "t": 13999.994999999994,
      "d": 833.3329999999987,
      "v": 64
    },
    {
      "midi": 62,
      "hit": false,
      "t": 14416.661499999993,
      "d": 416.66649999999936,
      "v": 64
    },
    {
      "midi": 74,
      "hit": false,
      "t": 14833.327999999992,
      "d": 208.33324999999968,
      "v": 64
    },
    {
      "midi": 83,
      "hit": false,
      "t": 14833.327999999992,
      "d": 208.33324999999968,
      "v": 64
    },
    {
      "midi": 59,
      "hit": false,
      "t": 14833.327999999992,
      "d": 416.66649999999936,
      "v": 64
    },
    {
      "midi": 76,
      "hit": false,
      "t": 15041.661249999992,
      "d": 208.33324999999968,
      "v": 64
    },
    {
      "midi": 84,
      "hit": false,
      "t": 15041.661249999992,
      "d": 208.33324999999968,
      "v": 64
    },
    {
      "midi": 74,
      "hit": false,
      "t": 15249.994499999992,
      "d": 208.33324999999968,
      "v": 64
    },
    {
      "midi": 83,
      "hit": false,
      "t": 15249.994499999992,
      "d": 208.33324999999968,
      "v": 64
    },
    {
      "midi": 62,
      "hit": false,
      "t": 15249.994499999992,
      "d": 416.66649999999936,
      "v": 64
    },
    {
      "midi": 72,
      "hit": false,
      "t": 15458.327749999991,
      "d": 208.33324999999968,
      "v": 64
    },
    {
      "midi": 81,
      "hit": false,
      "t": 15458.327749999991,
      "d": 208.33324999999968,
      "v": 64
    },
    {
      "midi": 60,
      "hit": false,
      "t": 15666.660999999991,
      "d": 416.66649999999936,
      "v": 64
    },
    {
      "midi": 71,
      "hit": false,
      "t": 15666.660999999991,
      "d": 1249.9995,
      "v": 64
    },
    {
      "midi": 79,
      "hit": false,
      "t": 15666.660999999991,
      "d": 1249.9995,
      "v": 64
    },
    {
      "midi": 67,
      "hit": false,
      "t": 16083.32749999999,
      "d": 416.6665000000012,
      "v": 64
    },
    {
      "midi": 64,
      "hit": false,
      "t": 16499.99399999999,
      "d": 416.66649999999936,
      "v": 64
    },
    {
      "midi": 79,
      "hit": false,
      "t": 16916.66049999999,
      "d": 416.66649999999936,
      "v": 64
    },
    {
      "midi": 67,
      "hit": false,
      "t": 16916.66049999999,
      "d": 416.66649999999936,
      "v": 64
    },
    {
      "midi": 79,
      "hit": false,
      "t": 17333.32699999999,
      "d": 416.66649999999936,
      "v": 64
    },
    {
      "midi": 53,
      "hit": false,
      "t": 17333.32699999999,
      "d": 416.66649999999936,
      "v": 64
    },
    {
      "midi": 81,
      "hit": false,
      "t": 17749.99349999999,
      "d": 416.66649999999936,
      "v": 64
    },
    {
      "midi": 60,
      "hit": false,
      "t": 17749.99349999999,
      "d": 416.66649999999936,
      "v": 64
    },
    {
      "midi": 77,
      "hit": false,
      "t": 18166.65999999999,
      "d": 416.66649999999936,
      "v": 64
    },
    {
      "midi": 57,
      "hit": false,
      "t": 18166.65999999999,
      "d": 416.66649999999936,
      "v": 64
    },
    {
      "midi": 76,
      "hit": false,
      "t": 18583.32649999999,
      "d": 416.66649999999936,
      "v": 64
    },
    {
      "midi": 60,
      "hit": false,
      "t": 18583.32649999999,
      "d": 416.66649999999936,
      "v": 64
    },
    {
      "midi": 55,
      "hit": false,
      "t": 18999.992999999988,
      "d": 416.66649999999936,
      "v": 64
    },
    {
      "midi": 62,
      "hit": false,
      "t": 19416.659499999987,
      "d": 416.66649999999936,
      "v": 64
    },
    {
      "midi": 74,
      "hit": false,
      "t": 19416.659499999987,
      "d": 833.3329999999987,
      "v": 64
    },
    {
      "midi": 59,
      "hit": false,
      "t": 19833.325999999986,
      "d": 416.66649999999936,
      "v": 64
    },
    {
      "midi": 74,
      "hit": false,
      "t": 20249.992499999986,
      "d": 0,
      "v": 64
    },
    {
      "midi": 62,
      "hit": false,
      "t": 20249.992499999986,
      "d": 416.66649999999936,
      "v": 64
    },
    {
      "midi": 56,
      "hit": false,
      "t": 20666.658999999985,
      "d": 416.66649999999936,
      "v": 64
    },
    {
      "midi": 74,
      "hit": false,
      "t": 20666.658999999985,
      "d": 416.66649999999936,
      "v": 64
    },
    {
      "midi": 79,
      "hit": false,
      "t": 21083.325499999984,
      "d": 416.66649999999936,
      "v": 64
    },
    {
      "midi": 62,
      "hit": false,
      "t": 21083.325499999984,
      "d": 416.66649999999936,
      "v": 64
    },
    {
      "midi": 76,
      "hit": false,
      "t": 21499.991999999984,
      "d": 416.66649999999936,
      "v": 64
    },
    {
      "midi": 59,
      "hit": false,
      "t": 21499.991999999984,
      "d": 416.66649999999936,
      "v": 64
    },
    {
      "midi": 74,
      "hit": false,
      "t": 21916.658499999983,
      "d": 416.66649999999936,
      "v": 64
    },
    {
      "midi": 62,
      "hit": false,
      "t": 21916.658499999983,
      "d": 416.66649999999936,
      "v": 64
    },
    {
      "midi": 57,
      "hit": false,
      "t": 22333.324999999983,
      "d": 416.66649999999936,
      "v": 64
    },
    {
      "midi": 72,
      "hit": false,
      "t": 22333.324999999983,
      "d": 1249.999499999998,
      "v": 64
    },
    {
      "midi": 64,
      "hit": false,
      "t": 22749.991499999982,
      "d": 416.66649999999936,
      "v": 64
    },
    {
      "midi": 60,
      "hit": false,
      "t": 23166.65799999998,
      "d": 416.66649999999936,
      "v": 64
    },
    {
      "midi": 71,
      "hit": false,
      "t": 23583.32449999998,
      "d": 208.33324999999968,
      "v": 64
    },
    {
      "midi": 64,
      "hit": false,
      "t": 23583.32449999998,
      "d": 416.66649999999936,
      "v": 64
    },
    {
      "midi": 72,
      "hit": false,
      "t": 23791.65774999998,
      "d": 208.33324999999968,
      "v": 64
    },
    {
      "midi": 54,
      "hit": false,
      "t": 23999.99099999998,
      "d": 416.66649999999936,
      "v": 64
    },
    {
      "midi": 74,
      "hit": false,
      "t": 23999.99099999998,
      "d": 833.3329999999987,
      "v": 64
    },
    {
      "midi": 83,
      "hit": false,
      "t": 23999.99099999998,
      "d": 833.3329999999987,
      "v": 64
    },
    {
      "midi": 60,
      "hit": false,
      "t": 24416.65749999998,
      "d": 416.66649999999936,
      "v": 64
    },
    {
      "midi": 64,
      "hit": false,
      "t": 24833.32399999998,
      "d": 416.66649999999936,
      "v": 64
    },
    {
      "midi": 76,
      "hit": false,
      "t": 24833.32399999998,
      "d": 833.3329999999987,
      "v": 64
    },
    {
      "midi": 84,
      "hit": false,
      "t": 24833.32399999998,
      "d": 833.3329999999987,
      "v": 64
    },
    {
      "midi": 60,
      "hit": false,
      "t": 25249.990499999978,
      "d": 416.66649999999936,
      "v": 64
    },
    {
      "midi": 50,
      "hit": false,
      "t": 25666.656999999977,
      "d": 416.66649999999936,
      "v": 64
    },
    {
      "midi": 72,
      "hit": false,
      "t": 25666.656999999977,
      "d": 833.3329999999987,
      "v": 64
    },
    {
      "midi": 79,
      "hit": false,
      "t": 25666.656999999977,
      "d": 833.3329999999987,
      "v": 64
    },
    {
      "midi": 57,
      "hit": false,
      "t": 26083.323499999977,
      "d": 416.66649999999936,
      "v": 64
    },
    {
      "midi": 60,
      "hit": false,
      "t": 26499.989999999976,
      "d": 416.66649999999936,
      "v": 64
    },
    {
      "midi": 69,
      "hit": false,
      "t": 26499.989999999976,
      "d": 833.3329999999987,
      "v": 64
    },
    {
      "midi": 77,
      "hit": false,
      "t": 26499.989999999976,
      "d": 833.3329999999987,
      "v": 64
    },
    {
      "midi": 57,
      "hit": false,
      "t": 26916.656499999975,
      "d": 416.66649999999936,
      "v": 64
    },
    {
      "midi": 43,
      "hit": false,
      "t": 27333.322999999975,
      "d": 416.66649999999936,
      "v": 64
    },
    {
      "midi": 65,
      "hit": false,
      "t": 27333.322999999975,
      "d": 833.3329999999987,
      "v": 64
    },
    {
      "midi": 72,
      "hit": false,
      "t": 27333.322999999975,
      "d": 833.3329999999987,
      "v": 64
    },
    {
      "midi": 50,
      "hit": false,
      "t": 27749.989499999974,
      "d": 416.66649999999936,
      "v": 64
    },
    {
      "midi": 67,
      "hit": false,
      "t": 28166.655999999974,
      "d": 833.3329999999987,
      "v": 64
    },
    {
      "midi": 74,
      "hit": false,
      "t": 28166.655999999974,
      "d": 833.3329999999987,
      "v": 64
    },
    {
      "midi": 59,
      "hit": false,
      "t": 28166.655999999974,
      "d": 833.3329999999987,
      "v": 64
    },
    {
      "midi": 45,
      "hit": false,
      "t": 28999.988999999972,
      "d": 416.66649999999936,
      "v": 64
    },
    {
      "midi": 67,
      "hit": false,
      "t": 28999.988999999972,
      "d": 2916.6654999999955,
      "v": 64
    },
    {
      "midi": 76,
      "hit": false,
      "t": 28999.988999999972,
      "d": 2916.6654999999955,
      "v": 64
    },
    {
      "midi": 52,
      "hit": false,
      "t": 29416.65549999997,
      "d": 416.66649999999936,
      "v": 64
    },
    {
      "midi": 59,
      "hit": false,
      "t": 29833.32199999997,
      "d": 416.66649999999936,
      "v": 64
    },
    {
      "midi": 52,
      "hit": false,
      "t": 30249.98849999997,
      "d": 416.66649999999936,
      "v": 64
    },
    {
      "midi": 60,
      "hit": false,
      "t": 30666.65499999997,
      "d": 1666.6659999999974,
      "v": 64
    },
    {
      "midi": 76,
      "hit": false,
      "t": 31916.654499999968,
      "d": 416.66649999999936,
      "v": 64
    },
    {
      "midi": 76,
      "hit": false,
      "t": 32333.320999999967,
      "d": 555.0127988281238,
      "v": 64
    },
    {
      "midi": 38,
      "hit": false,
      "t": 32333.320999999967,
      "d": 833.3329999999987,
      "v": 64
    },
    {
      "midi": 77,
      "hit": false,
      "t": 32888.33379882809,
      "d": 555.8266005859405,
      "v": 64
    },
    {
      "midi": 53,
      "hit": false,
      "t": 33166.653999999966,
      "d": 833.333000000006,
      "v": 64
    },
    {
      "midi": 57,
      "hit": false,
      "t": 33166.653999999966,
      "d": 833.333000000006,
      "v": 64
    },
    {
      "midi": 60,
      "hit": false,
      "t": 33166.653999999966,
      "d": 833.333000000006,
      "v": 64
    },
    {
      "midi": 64,
      "hit": false,
      "t": 33166.653999999966,
      "d": 833.333000000006,
      "v": 64
    },
    {
      "midi": 84,
      "hit": false,
      "t": 33444.16039941403,
      "d": 1805.8261005859385,
      "v": 64
    },
    {
      "midi": 53,
      "hit": false,
      "t": 33999.98699999997,
      "d": 833.3329999999987,
      "v": 64
    },
    {
      "midi": 57,
      "hit": false,
      "t": 33999.98699999997,
      "d": 833.3329999999987,
      "v": 64
    },
    {
      "midi": 60,
      "hit": false,
      "t": 33999.98699999997,
      "d": 833.3329999999987,
      "v": 64
    },
    {
      "midi": 64,
      "hit": false,
      "t": 33999.98699999997,
      "d": 833.3329999999987,
      "v": 64
    },
    {
      "midi": 53,
      "hit": false,
      "t": 34833.31999999997,
      "d": 833.3329999999987,
      "v": 64
    },
    {
      "midi": 57,
      "hit": false,
      "t": 34833.31999999997,
      "d": 833.3329999999987,
      "v": 64
    },
    {
      "midi": 60,
      "hit": false,
      "t": 34833.31999999997,
      "d": 833.3329999999987,
      "v": 64
    },
    {
      "midi": 64,
      "hit": false,
      "t": 34833.31999999997,
      "d": 833.3329999999987,
      "v": 64
    },
    {
      "midi": 86,
      "hit": false,
      "t": 35249.98649999997,
      "d": 416.66649999999936,
      "v": 64
    },
    {
      "midi": 83,
      "hit": false,
      "t": 35666.65299999997,
      "d": 555.0127988281238,
      "v": 64
    },
    {
      "midi": 45,
      "hit": false,
      "t": 35666.65299999997,
      "d": 833.3329999999987,
      "v": 64
    },
    {
      "midi": 79,
      "hit": false,
      "t": 36221.66579882809,
      "d": 555.8266005859405,
      "v": 64
    },
    {
      "midi": 55,
      "hit": false,
      "t": 36499.98599999997,
      "d": 833.333000000006,
      "v": 64
    },
    {
      "midi": 59,
      "hit": false,
      "t": 36499.98599999997,
      "d": 833.333000000006,
      "v": 64
    },
    {
      "midi": 60,
      "hit": false,
      "t": 36499.98599999997,
      "d": 833.333000000006,
      "v": 64
    },
    {
      "midi": 64,
      "hit": false,
      "t": 36499.98599999997,
      "d": 833.333000000006,
      "v": 64
    },
    {
      "midi": 76,
      "hit": false,
      "t": 36777.49239941403,
      "d": 4722.491600585934,
      "v": 64
    },
    {
      "midi": 55,
      "hit": false,
      "t": 37333.318999999974,
      "d": 833.3329999999987,
      "v": 64
    },
    {
      "midi": 59,
      "hit": false,
      "t": 37333.318999999974,
      "d": 833.3329999999987,
      "v": 64
    },
    {
      "midi": 60,
      "hit": false,
      "t": 37333.318999999974,
      "d": 833.3329999999987,
      "v": 64
    },
    {
      "midi": 64,
      "hit": false,
      "t": 37333.318999999974,
      "d": 833.3329999999987,
      "v": 64
    },
    {
      "midi": 55,
      "hit": false,
      "t": 38166.65199999997,
      "d": 833.3329999999987,
      "v": 64
    },
    {
      "midi": 59,
      "hit": false,
      "t": 38166.65199999997,
      "d": 833.3329999999987,
      "v": 64
    },
    {
      "midi": 60,
      "hit": false,
      "t": 38166.65199999997,
      "d": 833.3329999999987,
      "v": 64
    },
    {
      "midi": 64,
      "hit": false,
      "t": 38166.65199999997,
      "d": 833.3329999999987,
      "v": 64
    },
    {
      "midi": 38,
      "hit": false,
      "t": 38999.98499999997,
      "d": 833.3329999999987,
      "v": 64
    },
    {
      "midi": 53,
      "hit": false,
      "t": 39833.31799999997,
      "d": 833.3329999999987,
      "v": 64
    },
    {
      "midi": 57,
      "hit": false,
      "t": 39833.31799999997,
      "d": 833.3329999999987,
      "v": 64
    },
    {
      "midi": 60,
      "hit": false,
      "t": 39833.31799999997,
      "d": 833.3329999999987,
      "v": 64
    },
    {
      "midi": 64,
      "hit": false,
      "t": 39833.31799999997,
      "d": 833.3329999999987,
      "v": 64
    },
    {
      "midi": 53,
      "hit": false,
      "t": 40666.65099999997,
      "d": 833.3329999999987,
      "v": 64
    },
    {
      "midi": 57,
      "hit": false,
      "t": 40666.65099999997,
      "d": 833.3329999999987,
      "v": 64
    },
    {
      "midi": 60,
      "hit": false,
      "t": 40666.65099999997,
      "d": 833.3329999999987,
      "v": 64
    },
    {
      "midi": 64,
      "hit": false,
      "t": 40666.65099999997,
      "d": 833.3329999999987,
      "v": 64
    },
    {
      "midi": 53,
      "hit": false,
      "t": 41499.98399999997,
      "d": 833.3329999999987,
      "v": 64
    },
    {
      "midi": 57,
      "hit": false,
      "t": 41499.98399999997,
      "d": 833.3329999999987,
      "v": 64
    },
    {
      "midi": 60,
      "hit": false,
      "t": 41499.98399999997,
      "d": 833.3329999999987,
      "v": 64
    },
    {
      "midi": 64,
      "hit": false,
      "t": 41499.98399999997,
      "d": 833.3329999999987,
      "v": 64
    },
    {
      "midi": 88,
      "hit": false,
      "t": 41916.65049999997,
      "d": 416.66649999999936,
      "v": 64
    },
    {
      "midi": 88,
      "hit": false,
      "t": 42333.316999999966,
      "d": 555.0127988281238,
      "v": 64
    },
    {
      "midi": 41,
      "hit": false,
      "t": 42333.316999999966,
      "d": 833.3329999999987,
      "v": 64
    },
    {
      "midi": 89,
      "hit": false,
      "t": 42888.32979882809,
      "d": 555.8266005859405,
      "v": 64
    },
    {
      "midi": 53,
      "hit": false,
      "t": 43166.649999999965,
      "d": 833.333000000006,
      "v": 64
    },
    {
      "midi": 57,
      "hit": false,
      "t": 43166.649999999965,
      "d": 833.333000000006,
      "v": 64
    },
    {
      "midi": 60,
      "hit": false,
      "t": 43166.649999999965,
      "d": 833.333000000006,
      "v": 64
    },
    {
      "midi": 64,
      "hit": false,
      "t": 43166.649999999965,
      "d": 833.333000000006,
      "v": 64
    },
    {
      "midi": 81,
      "hit": false,
      "t": 43444.15639941403,
      "d": 1805.8261005859385,
      "v": 64
    },
    {
      "midi": 53,
      "hit": false,
      "t": 43999.98299999997,
      "d": 833.3329999999987,
      "v": 64
    },
    {
      "midi": 57,
      "hit": false,
      "t": 43999.98299999997,
      "d": 833.3329999999987,
      "v": 64
    },
    {
      "midi": 60,
      "hit": false,
      "t": 43999.98299999997,
      "d": 833.3329999999987,
      "v": 64
    },
    {
      "midi": 64,
      "hit": false,
      "t": 43999.98299999997,
      "d": 833.3329999999987,
      "v": 64
    },
    {
      "midi": 53,
      "hit": false,
      "t": 44833.31599999997,
      "d": 833.333000000006,
      "v": 64
    },
    {
      "midi": 57,
      "hit": false,
      "t": 44833.31599999997,
      "d": 833.333000000006,
      "v": 64
    },
    {
      "midi": 60,
      "hit": false,
      "t": 44833.31599999997,
      "d": 833.333000000006,
      "v": 64
    },
    {
      "midi": 64,
      "hit": false,
      "t": 44833.31599999997,
      "d": 833.333000000006,
      "v": 64
    },
    {
      "midi": 81,
      "hit": false,
      "t": 45249.98249999997,
      "d": 208.33325000000332,
      "v": 64
    },
    {
      "midi": 83,
      "hit": false,
      "t": 45458.31574999997,
      "d": 208.33325000000332,
      "v": 64
    },
    {
      "midi": 84,
      "hit": false,
      "t": 45666.648999999976,
      "d": 555.0127988281238,
      "v": 64
    },
    {
      "midi": 43,
      "hit": false,
      "t": 45666.648999999976,
      "d": 833.3329999999987,
      "v": 64
    },
    {
      "midi": 86,
      "hit": false,
      "t": 46221.6617988281,
      "d": 555.8266005859405,
      "v": 64
    },
    {
      "midi": 55,
      "hit": false,
      "t": 46499.981999999975,
      "d": 833.333000000006,
      "v": 64
    },
    {
      "midi": 59,
      "hit": false,
      "t": 46499.981999999975,
      "d": 833.333000000006,
      "v": 64
    },
    {
      "midi": 62,
      "hit": false,
      "t": 46499.981999999975,
      "d": 833.333000000006,
      "v": 64
    },
    {
      "midi": 79,
      "hit": false,
      "t": 46777.48839941404,
      "d": 1805.8261005859385,
      "v": 64
    },
    {
      "midi": 55,
      "hit": false,
      "t": 47333.31499999998,
      "d": 833.3329999999987,
      "v": 64
    },
    {
      "midi": 59,
      "hit": false,
      "t": 47333.31499999998,
      "d": 833.3329999999987,
      "v": 64
    },
    {
      "midi": 62,
      "hit": false,
      "t": 47333.31499999998,
      "d": 833.3329999999987,
      "v": 64
    },
    {
      "midi": 55,
      "hit": false,
      "t": 48166.64799999998,
      "d": 833.3329999999987,
      "v": 64
    },
    {
      "midi": 59,
      "hit": false,
      "t": 48166.64799999998,
      "d": 833.3329999999987,
      "v": 64
    },
    {
      "midi": 62,
      "hit": false,
      "t": 48166.64799999998,
      "d": 833.3329999999987,
      "v": 64
    },
    {
      "midi": 77,
      "hit": false,
      "t": 48583.31449999998,
      "d": 416.66649999999936,
      "v": 64
    },
    {
      "midi": 76,
      "hit": false,
      "t": 48999.98099999998,
      "d": 555.0127988281238,
      "v": 64
    },
    {
      "midi": 60,
      "hit": false,
      "t": 48999.98099999998,
      "d": 1093.749562500001,
      "v": 64
    },
    {
      "midi": 59,
      "hit": false,
      "t": 48999.98099999998,
      "d": 1093.749562500001,
      "v": 64
    },
    {
      "midi": 55,
      "hit": false,
      "t": 48999.98099999998,
      "d": 1110.8393994140642,
      "v": 64
    },
    {
      "midi": 64,
      "hit": false,
      "t": 48999.98099999998,
      "d": 1110.8393994140642,
      "v": 64
    },
    {
      "midi": 83,
      "hit": false,
      "t": 49554.9937988281,
      "d": 555.8266005859405,
      "v": 64
    },
    {
      "midi": 84,
      "hit": false,
      "t": 50110.82039941404,
      "d": 972.4931005859398,
      "v": 64
    },
    {
      "midi": 59,
      "hit": false,
      "t": 50110.82039941404,
      "d": 2222.492600585938,
      "v": 64
    },
    {
      "midi": 54,
      "hit": false,
      "t": 50110.82039941404,
      "d": 2222.492600585938,
      "v": 64
    },
    {
      "midi": 60,
      "hit": false,
      "t": 50110.82039941404,
      "d": 2222.492600585938,
      "v": 64
    },
    {
      "midi": 64,
      "hit": false,
      "t": 50119.77221874998,
      "d": 2213.540781249998,
      "v": 64
    },
    {
      "midi": 81,
      "hit": false,
      "t": 51083.31349999998,
      "d": 416.66649999999936,
      "v": 64
    },
    {
      "midi": 88,
      "hit": false,
      "t": 51499.97999999998,
      "d": 416.66649999999936,
      "v": 64
    },
    {
      "midi": 89,
      "hit": false,
      "t": 51916.64649999998,
      "d": 416.66649999999936,
      "v": 64
    },
    {
      "midi": 43,
      "hit": false,
      "t": 52333.31299999998,
      "d": 833.3329999999987,
      "v": 64
    },
    {
      "midi": 79,
      "hit": false,
      "t": 52333.31299999998,
      "d": 1249.999499999998,
      "v": 64
    },
    {
      "midi": 88,
      "hit": false,
      "t": 52333.31299999998,
      "d": 1249.999499999998,
      "v": 64
    },
    {
      "midi": 64,
      "hit": false,
      "t": 53166.64599999998,
      "d": 833.3329999999987,
      "v": 64
    },
    {
      "midi": 60,
      "hit": false,
      "t": 53166.64599999998,
      "d": 833.3329999999987,
      "v": 64
    },
    {
      "midi": 57,
      "hit": false,
      "t": 53166.64599999998,
      "d": 833.3329999999987,
      "v": 64
    },
    {
      "midi": 53,
      "hit": false,
      "t": 53166.64599999998,
      "d": 833.3329999999987,
      "v": 64
    },
    {
      "midi": 77,
      "hit": false,
      "t": 53583.31249999998,
      "d": 2916.6654999999955,
      "v": 64
    },
    {
      "midi": 86,
      "hit": false,
      "t": 53583.31249999998,
      "d": 2916.6654999999955,
      "v": 64
    },
    {
      "midi": 53,
      "hit": false,
      "t": 53999.97899999998,
      "d": 833.3329999999987,
      "v": 64
    },
    {
      "midi": 57,
      "hit": false,
      "t": 53999.97899999998,
      "d": 833.3329999999987,
      "v": 64
    },
    {
      "midi": 60,
      "hit": false,
      "t": 53999.97899999998,
      "d": 833.3329999999987,
      "v": 64
    },
    {
      "midi": 64,
      "hit": false,
      "t": 53999.97899999998,
      "d": 833.3329999999987,
      "v": 64
    },
    {
      "midi": 57,
      "hit": false,
      "t": 54833.311999999976,
      "d": 833.3329999999987,
      "v": 64
    },
    {
      "midi": 60,
      "hit": false,
      "t": 54833.311999999976,
      "d": 833.3329999999987,
      "v": 64
    },
    {
      "midi": 64,
      "hit": false,
      "t": 54833.311999999976,
      "d": 833.3329999999987,
      "v": 64
    },
    {
      "midi": 53,
      "hit": false,
      "t": 55510.39506249998,
      "d": 156.24993749999703,
      "v": 64
    },
    {
      "midi": 55,
      "hit": false,
      "t": 55562.47837499998,
      "d": 3437.4986250000075,
      "v": 64
    },
    {
      "midi": 59,
      "hit": false,
      "t": 55614.561687499976,
      "d": 3385.4153125000084,
      "v": 64
    },
    {
      "midi": 62,
      "hit": false,
      "t": 55666.644999999975,
      "d": 3333.3320000000094,
      "v": 64
    },
    {
      "midi": 74,
      "hit": false,
      "t": 58166.64399999997,
      "d": 208.33325000000332,
      "v": 64
    },
    {
      "midi": 83,
      "hit": false,
      "t": 58166.64399999997,
      "d": 208.33325000000332,
      "v": 64
    },
    {
      "midi": 76,
      "hit": false,
      "t": 58374.977249999974,
      "d": 208.33325000000332,
      "v": 64
    },
    {
      "midi": 84,
      "hit": false,
      "t": 58374.977249999974,
      "d": 208.33325000000332,
      "v": 64
    },
    {
      "midi": 74,
      "hit": false,
      "t": 58583.31049999998,
      "d": 208.33325000000332,
      "v": 64
    },
    {
      "midi": 83,
      "hit": false,
      "t": 58583.31049999998,
      "d": 208.33325000000332,
      "v": 64
    },
    {
      "midi": 72,
      "hit": false,
      "t": 58791.64374999998,
      "d": 208.33325000000332,
      "v": 64
    },
    {
      "midi": 81,
      "hit": false,
      "t": 58791.64374999998,
      "d": 208.33325000000332,
      "v": 64
    },
    {
      "midi": 48,
      "hit": false,
      "t": 58999.976999999984,
      "d": 416.66649999999936,
      "v": 64
    },
    {
      "midi": 71,
      "hit": false,
      "t": 58999.976999999984,
      "d": 1249.999499999998,
      "v": 64
    },
    {
      "midi": 79,
      "hit": false,
      "t": 58999.976999999984,
      "d": 1249.999499999998,
      "v": 64
    },
    {
      "midi": 55,
      "hit": false,
      "t": 59416.643499999984,
      "d": 416.66649999999936,
      "v": 64
    },
    {
      "midi": 64,
      "hit": false,
      "t": 59833.30999999998,
      "d": 833.3329999999987,
      "v": 64
    },
    {
      "midi": 71,
      "hit": false,
      "t": 60249.97649999998,
      "d": 416.66649999999936,
      "v": 64
    },
    {
      "midi": 79,
      "hit": false,
      "t": 60249.97649999998,
      "d": 416.66649999999936,
      "v": 64
    },
    {
      "midi": 71,
      "hit": false,
      "t": 60666.64299999998,
      "d": 416.66649999999936,
      "v": 64
    },
    {
      "midi": 79,
      "hit": false,
      "t": 60666.64299999998,
      "d": 416.66649999999936,
      "v": 64
    },
    {
      "midi": 53,
      "hit": false,
      "t": 60666.64299999998,
      "d": 416.66649999999936,
      "v": 64
    },
    {
      "midi": 72,
      "hit": false,
      "t": 61083.30949999998,
      "d": 416.66649999999936,
      "v": 64
    },
    {
      "midi": 81,
      "hit": false,
      "t": 61083.30949999998,
      "d": 416.66649999999936,
      "v": 64
    },
    {
      "midi": 60,
      "hit": false,
      "t": 61083.30949999998,
      "d": 416.66649999999936,
      "v": 64
    },
    {
      "midi": 69,
      "hit": false,
      "t": 61499.97599999998,
      "d": 416.66649999999936,
      "v": 64
    },
    {
      "midi": 77,
      "hit": false,
      "t": 61499.97599999998,
      "d": 416.66649999999936,
      "v": 64
    },
    {
      "midi": 71,
      "hit": false,
      "t": 61499.97599999998,
      "d": 833.3329999999987,
      "v": 64
    },
    {
      "midi": 67,
      "hit": false,
      "t": 61916.64249999998,
      "d": 416.66649999999936,
      "v": 64
    },
    {
      "midi": 76,
      "hit": false,
      "t": 61916.64249999998,
      "d": 416.66649999999936,
      "v": 64
    },
    {
      "midi": 55,
      "hit": false,
      "t": 62333.30899999998,
      "d": 416.66649999999936,
      "v": 64
    },
    {
      "midi": 67,
      "hit": false,
      "t": 62333.30899999998,
      "d": 1249.999499999998,
      "v": 64
    },
    {
      "midi": 74,
      "hit": false,
      "t": 62333.30899999998,
      "d": 1249.999499999998,
      "v": 64
    },
    {
      "midi": 62,
      "hit": false,
      "t": 62749.97549999998,
      "d": 416.66649999999936,
      "v": 64
    },
    {
      "midi": 71,
      "hit": false,
      "t": 63166.64199999998,
      "d": 833.3329999999987,
      "v": 64
    },
    {
      "midi": 74,
      "hit": false,
      "t": 63583.30849999998,
      "d": 416.66649999999936,
      "v": 64
    },
    {
      "midi": 56,
      "hit": false,
      "t": 63999.97499999998,
      "d": 416.66649999999936,
      "v": 64
    },
    {
      "midi": 74,
      "hit": false,
      "t": 63999.97499999998,
      "d": 416.66649999999936,
      "v": 64
    },
    {
      "midi": 79,
      "hit": false,
      "t": 64416.641499999976,
      "d": 416.66649999999936,
      "v": 64
    },
    {
      "midi": 59,
      "hit": false,
      "t": 64416.641499999976,
      "d": 416.66649999999936,
      "v": 64
    },
    {
      "midi": 76,
      "hit": false,
      "t": 64833.307999999975,
      "d": 416.66649999999936,
      "v": 64
    },
    {
      "midi": 68,
      "hit": false,
      "t": 64833.307999999975,
      "d": 833.3329999999987,
      "v": 64
    },
    {
      "midi": 74,
      "hit": false,
      "t": 65249.974499999975,
      "d": 416.66649999999936,
      "v": 64
    },
    {
      "midi": 57,
      "hit": false,
      "t": 65666.64099999997,
      "d": 416.66650000000664,
      "v": 64
    },
    {
      "midi": 72,
      "hit": false,
      "t": 65666.64099999997,
      "d": 1249.99950000002,
      "v": 64
    },
    {
      "midi": 64,
      "hit": false,
      "t": 66083.30749999998,
      "d": 416.66650000000664,
      "v": 64
    },
    {
      "midi": 67,
      "hit": false,
      "t": 66499.97399999999,
      "d": 833.3329999999987,
      "v": 64
    },
    {
      "midi": 71,
      "hit": false,
      "t": 66916.6405,
      "d": 208.33324999999604,
      "v": 64
    },
    {
      "midi": 72,
      "hit": false,
      "t": 67124.97374999999,
      "d": 208.33324999999604,
      "v": 64
    },
    {
      "midi": 53,
      "hit": false,
      "t": 67333.30699999999,
      "d": 416.66650000000664,
      "v": 64
    },
    {
      "midi": 74,
      "hit": false,
      "t": 67333.30699999999,
      "d": 833.3330000000133,
      "v": 64
    },
    {
      "midi": 83,
      "hit": false,
      "t": 67333.30699999999,
      "d": 833.3330000000133,
      "v": 64
    },
    {
      "midi": 60,
      "hit": false,
      "t": 67749.9735,
      "d": 416.66650000000664,
      "v": 64
    },
    {
      "midi": 76,
      "hit": false,
      "t": 68166.64,
      "d": 833.3329999999987,
      "v": 64
    },
    {
      "midi": 84,
      "hit": false,
      "t": 68166.64,
      "d": 833.3329999999987,
      "v": 64
    },
    {
      "midi": 69,
      "hit": false,
      "t": 68166.64,
      "d": 833.3329999999987,
      "v": 64
    },
    {
      "midi": 50,
      "hit": false,
      "t": 68999.973,
      "d": 416.66650000000664,
      "v": 64
    },
    {
      "midi": 72,
      "hit": false,
      "t": 68999.973,
      "d": 1666.666000000012,
      "v": 64
    },
    {
      "midi": 79,
      "hit": false,
      "t": 68999.973,
      "d": 1666.666000000012,
      "v": 64
    },
    {
      "midi": 57,
      "hit": false,
      "t": 69416.6395,
      "d": 416.66650000000664,
      "v": 64
    },
    {
      "midi": 65,
      "hit": false,
      "t": 69833.30600000001,
      "d": 833.3329999999987,
      "v": 64
    },
    {
      "midi": 71,
      "hit": false,
      "t": 70666.63900000001,
      "d": 833.3329999999987,
      "v": 64
    },
    {
      "midi": 55,
      "hit": false,
      "t": 70666.63900000001,
      "d": 1666.665999999983,
      "v": 64
    },
    {
      "midi": 59,
      "hit": false,
      "t": 70666.63900000001,
      "d": 1666.665999999983,
      "v": 64
    },
    {
      "midi": 62,
      "hit": false,
      "t": 70666.63900000001,
      "d": 1666.665999999983,
      "v": 64
    },
    {
      "midi": 74,
      "hit": false,
      "t": 71499.97200000001,
      "d": 208.33324999999604,
      "v": 64
    },
    {
      "midi": 83,
      "hit": false,
      "t": 71499.97200000001,
      "d": 208.33324999999604,
      "v": 64
    },
    {
      "midi": 76,
      "hit": false,
      "t": 71708.30525,
      "d": 208.33324999999604,
      "v": 64
    },
    {
      "midi": 84,
      "hit": false,
      "t": 71708.30525,
      "d": 208.33324999999604,
      "v": 64
    },
    {
      "midi": 74,
      "hit": false,
      "t": 71916.6385,
      "d": 208.33324999999604,
      "v": 64
    },
    {
      "midi": 83,
      "hit": false,
      "t": 71916.6385,
      "d": 208.33324999999604,
      "v": 64
    },
    {
      "midi": 72,
      "hit": false,
      "t": 72124.97175,
      "d": 208.33324999999604,
      "v": 64
    },
    {
      "midi": 81,
      "hit": false,
      "t": 72124.97175,
      "d": 208.33324999999604,
      "v": 64
    },
    {
      "midi": 36,
      "hit": false,
      "t": 72333.305,
      "d": 416.66650000000664,
      "v": 64
    },
    {
      "midi": 71,
      "hit": false,
      "t": 72333.305,
      "d": 1249.99950000002,
      "v": 64
    },
    {
      "midi": 79,
      "hit": false,
      "t": 72333.305,
      "d": 1249.99950000002,
      "v": 64
    },
    {
      "midi": 43,
      "hit": false,
      "t": 72749.9715,
      "d": 416.66650000000664,
      "v": 64
    },
    {
      "midi": 52,
      "hit": false,
      "t": 73166.638,
      "d": 833.3330000000133,
      "v": 64
    },
    {
      "midi": 71,
      "hit": false,
      "t": 73583.30450000001,
      "d": 416.66650000000664,
      "v": 64
    },
    {
      "midi": 79,
      "hit": false,
      "t": 73583.30450000001,
      "d": 416.66650000000664,
      "v": 64
    },
    {
      "midi": 71,
      "hit": false,
      "t": 73999.97100000002,
      "d": 416.66650000000664,
      "v": 64
    },
    {
      "midi": 79,
      "hit": false,
      "t": 73999.97100000002,
      "d": 416.66650000000664,
      "v": 64
    },
    {
      "midi": 41,
      "hit": false,
      "t": 73999.97100000002,
      "d": 416.66650000000664,
      "v": 64
    },
    {
      "midi": 72,
      "hit": false,
      "t": 74416.63750000003,
      "d": 416.66650000000664,
      "v": 64
    },
    {
      "midi": 81,
      "hit": false,
      "t": 74416.63750000003,
      "d": 416.66650000000664,
      "v": 64
    },
    {
      "midi": 48,
      "hit": false,
      "t": 74416.63750000003,
      "d": 416.66650000000664,
      "v": 64
    },
    {
      "midi": 69,
      "hit": false,
      "t": 74833.30400000003,
      "d": 416.66650000000664,
      "v": 64
    },
    {
      "midi": 77,
      "hit": false,
      "t": 74833.30400000003,
      "d": 416.66650000000664,
      "v": 64
    },
    {
      "midi": 57,
      "hit": false,
      "t": 74833.30400000003,
      "d": 833.3330000000133,
      "v": 64
    },
    {
      "midi": 67,
      "hit": false,
      "t": 75249.97050000004,
      "d": 416.66650000000664,
      "v": 64
    },
    {
      "midi": 76,
      "hit": false,
      "t": 75249.97050000004,
      "d": 416.66650000000664,
      "v": 64
    },
    {
      "midi": 43,
      "hit": false,
      "t": 75666.63700000005,
      "d": 416.66650000000664,
      "v": 64
    },
    {
      "midi": 65,
      "hit": false,
      "t": 75666.63700000005,
      "d": 1249.99950000002,
      "v": 64
    },
    {
      "midi": 74,
      "hit": false,
      "t": 75666.63700000005,
      "d": 1249.99950000002,
      "v": 64
    },
    {
      "midi": 50,
      "hit": false,
      "t": 76083.30350000005,
      "d": 416.66650000000664,
      "v": 64
    },
    {
      "midi": 59,
      "hit": false,
      "t": 76499.97000000006,
      "d": 833.3330000000133,
      "v": 64
    },
    {
      "midi": 74,
      "hit": false,
      "t": 76916.63650000007,
      "d": 416.66650000000664,
      "v": 64
    },
    {
      "midi": 74,
      "hit": false,
      "t": 77333.30300000007,
      "d": 416.66650000000664,
      "v": 64
    },
    {
      "midi": 44,
      "hit": false,
      "t": 77333.30300000007,
      "d": 416.66650000000664,
      "v": 64
    },
    {
      "midi": 79,
      "hit": false,
      "t": 77749.96950000008,
      "d": 416.66650000000664,
      "v": 64
    },
    {
      "midi": 47,
      "hit": false,
      "t": 77749.96950000008,
      "d": 416.66650000000664,
      "v": 64
    },
    {
      "midi": 76,
      "hit": false,
      "t": 78166.63600000009,
      "d": 416.66650000000664,
      "v": 64
    },
    {
      "midi": 56,
      "hit": false,
      "t": 78166.63600000009,
      "d": 833.3330000000133,
      "v": 64
    },
    {
      "midi": 74,
      "hit": false,
      "t": 78583.30250000009,
      "d": 416.66650000000664,
      "v": 64
    },
    {
      "midi": 45,
      "hit": false,
      "t": 78999.9690000001,
      "d": 416.66650000000664,
      "v": 64
    },
    {
      "midi": 72,
      "hit": false,
      "t": 78999.9690000001,
      "d": 1249.99950000002,
      "v": 64
    },
    {
      "midi": 52,
      "hit": false,
      "t": 79416.6355000001,
      "d": 416.66650000000664,
      "v": 64
    },
    {
      "midi": 56,
      "hit": false,
      "t": 79833.30200000011,
      "d": 833.3329999999987,
      "v": 64
    },
    {
      "midi": 71,
      "hit": false,
      "t": 80249.96850000012,
      "d": 208.33324999999604,
      "v": 64
    },
    {
      "midi": 72,
      "hit": false,
      "t": 80445.28092187512,
      "d": 221.35407812499034,
      "v": 64
    },
    {
      "midi": 41,
      "hit": false,
      "t": 80666.63500000011,
      "d": 416.66650000000664,
      "v": 64
    },
    {
      "midi": 74,
      "hit": false,
      "t": 80666.63500000011,
      "d": 833.3330000000133,
      "v": 64
    },
    {
      "midi": 83,
      "hit": false,
      "t": 80666.63500000011,
      "d": 833.3330000000133,
      "v": 64
    },
    {
      "midi": 45,
      "hit": false,
      "t": 81083.30150000012,
      "d": 416.66650000000664,
      "v": 64
    },
    {
      "midi": 76,
      "hit": false,
      "t": 81499.96800000012,
      "d": 833.3329999999987,
      "v": 64
    },
    {
      "midi": 84,
      "hit": false,
      "t": 81499.96800000012,
      "d": 833.3329999999987,
      "v": 64
    },
    {
      "midi": 48,
      "hit": false,
      "t": 81499.96800000012,
      "d": 833.3329999999987,
      "v": 64
    },
    {
      "midi": 38,
      "hit": false,
      "t": 82333.30100000012,
      "d": 416.66650000000664,
      "v": 64
    },
    {
      "midi": 71,
      "hit": false,
      "t": 82333.30100000012,
      "d": 833.3330000000133,
      "v": 64
    },
    {
      "midi": 79,
      "hit": false,
      "t": 82333.30100000012,
      "d": 833.3330000000133,
      "v": 64
    },
    {
      "midi": 45,
      "hit": false,
      "t": 82749.96750000013,
      "d": 416.66650000000664,
      "v": 64
    },
    {
      "midi": 69,
      "hit": false,
      "t": 83166.63400000014,
      "d": 833.3329999999987,
      "v": 64
    },
    {
      "midi": 77,
      "hit": false,
      "t": 83166.63400000014,
      "d": 833.3329999999987,
      "v": 64
    },
    {
      "midi": 53,
      "hit": false,
      "t": 83166.63400000014,
      "d": 833.3329999999987,
      "v": 64
    },
    {
      "midi": 64,
      "hit": false,
      "t": 83999.96700000014,
      "d": 833.3329999999987,
      "v": 64
    },
    {
      "midi": 72,
      "hit": false,
      "t": 83999.96700000014,
      "d": 833.3329999999987,
      "v": 64
    },
    {
      "midi": 43,
      "hit": false,
      "t": 83999.96700000014,
      "d": 1666.6659999999974,
      "v": 64
    },
    {
      "midi": 65,
      "hit": false,
      "t": 84833.30000000013,
      "d": 833.3329999999987,
      "v": 64
    },
    {
      "midi": 74,
      "hit": false,
      "t": 84833.30000000013,
      "d": 833.3329999999987,
      "v": 64
    },
    {
      "midi": 45,
      "hit": false,
      "t": 85666.63300000013,
      "d": 208.33324999999604,
      "v": 64
    },
    {
      "midi": 76,
      "hit": false,
      "t": 85666.63300000013,
      "d": 2916.6654999999737,
      "v": 64
    },
    {
      "midi": 52,
      "hit": false,
      "t": 85874.96625000013,
      "d": 208.33324999999604,
      "v": 64
    },
    {
      "midi": 59,
      "hit": false,
      "t": 86083.29950000012,
      "d": 208.33324999999604,
      "v": 64
    },
    {
      "midi": 60,
      "hit": false,
      "t": 86291.63275000012,
      "d": 208.33324999999604,
      "v": 64
    },
    {
      "midi": 62,
      "hit": false,
      "t": 86499.96600000012,
      "d": 208.33324999999604,
      "v": 64
    },
    {
      "midi": 64,
      "hit": false,
      "t": 86708.29925000011,
      "d": 208.33324999999604,
      "v": 64
    },
    {
      "midi": 67,
      "hit": false,
      "t": 86916.63250000011,
      "d": 208.33324999999604,
      "v": 64
    },
    {
      "midi": 69,
      "hit": false,
      "t": 87124.9657500001,
      "d": 208.33324999999604,
      "v": 64
    },
    {
      "midi": 71,
      "hit": false,
      "t": 87333.2990000001,
      "d": 1666.666000000012,
      "v": 64
    },
    {
      "midi": 76,
      "hit": false,
      "t": 88583.2985000001,
      "d": 416.66650000000664,
      "v": 64
    },
    {
      "midi": 88,
      "hit": false,
      "t": 88583.2985000001,
      "d": 416.66650000000664,
      "v": 64
    },
    {
      "midi": 38,
      "hit": false,
      "t": 88999.96500000011,
      "d": 208.33324999999604,
      "v": 64
    },
    {
      "midi": 76,
      "hit": false,
      "t": 88999.96500000011,
      "d": 555.0127988281165,
      "v": 64
    },
    {
      "midi": 88,
      "hit": false,
      "t": 88999.96500000011,
      "d": 555.0127988281165,
      "v": 64
    },
    {
      "midi": 45,
      "hit": false,
      "t": 89208.29825000011,
      "d": 208.33324999999604,
      "v": 64
    },
    {
      "midi": 53,
      "hit": false,
      "t": 89416.6315000001,
      "d": 216.4712675781193,
      "v": 64
    },
    {
      "midi": 77,
      "hit": false,
      "t": 89554.97779882823,
      "d": 555.8266005859332,
      "v": 64
    },
    {
      "midi": 89,
      "hit": false,
      "t": 89554.97779882823,
      "d": 555.8266005859332,
      "v": 64
    },
    {
      "midi": 57,
      "hit": false,
      "t": 89624.9647500001,
      "d": 208.33324999999604,
      "v": 64
    },
    {
      "midi": 62,
      "hit": false,
      "t": 89833.2980000001,
      "d": 208.33324999999604,
      "v": 64
    },
    {
      "midi": 64,
      "hit": false,
      "t": 90041.6312500001,
      "d": 208.3332500000106,
      "v": 64
    },
    {
      "midi": 84,
      "hit": false,
      "t": 90110.80439941416,
      "d": 1805.8261005859385,
      "v": 64
    },
    {
      "midi": 96,
      "hit": false,
      "t": 90110.80439941416,
      "d": 1805.8261005859385,
      "v": 64
    },
    {
      "midi": 65,
      "hit": false,
      "t": 90249.9645000001,
      "d": 208.33324999999604,
      "v": 64
    },
    {
      "midi": 69,
      "hit": false,
      "t": 90458.2977500001,
      "d": 208.33324999999604,
      "v": 64
    },
    {
      "midi": 72,
      "hit": false,
      "t": 90666.6310000001,
      "d": 1666.666000000012,
      "v": 64
    },
    {
      "midi": 86,
      "hit": false,
      "t": 91916.6305000001,
      "d": 416.66650000000664,
      "v": 64
    },
    {
      "midi": 98,
      "hit": false,
      "t": 91916.6305000001,
      "d": 416.66650000000664,
      "v": 64
    },
    {
      "midi": 45,
      "hit": false,
      "t": 92333.29700000011,
      "d": 208.33324999999604,
      "v": 64
    },
    {
      "midi": 83,
      "hit": false,
      "t": 92333.29700000011,
      "d": 555.0127988281165,
      "v": 64
    },
    {
      "midi": 95,
      "hit": false,
      "t": 92333.29700000011,
      "d": 555.0127988281165,
      "v": 64
    },
    {
      "midi": 52,
      "hit": false,
      "t": 92541.6302500001,
      "d": 208.33324999999604,
      "v": 64
    },
    {
      "midi": 59,
      "hit": false,
      "t": 92749.9635000001,
      "d": 208.33324999999604,
      "v": 64
    },
    {
      "midi": 79,
      "hit": false,
      "t": 92888.30979882822,
      "d": 555.8266005859332,
      "v": 64
    },
    {
      "midi": 91,
      "hit": false,
      "t": 92888.30979882822,
      "d": 555.8266005859332,
      "v": 64
    },
    {
      "midi": 60,
      "hit": false,
      "t": 92958.2967500001,
      "d": 208.33324999999604,
      "v": 64
    },
    {
      "midi": 62,
      "hit": false,
      "t": 93166.63000000009,
      "d": 208.33324999999604,
      "v": 64
    },
    {
      "midi": 64,
      "hit": false,
      "t": 93374.96325000009,
      "d": 208.3332500000106,
      "v": 64
    },
    {
      "midi": 76,
      "hit": false,
      "t": 93444.13639941416,
      "d": 4722.491600585898,
      "v": 64
    },
    {
      "midi": 88,
      "hit": false,
      "t": 93444.13639941416,
      "d": 4722.491600585898,
      "v": 64
    },
    {
      "midi": 67,
      "hit": false,
      "t": 93583.2965000001,
      "d": 208.33324999999604,
      "v": 64
    },
    {
      "midi": 69,
      "hit": false,
      "t": 93791.6297500001,
      "d": 208.33324999999604,
      "v": 64
    },
    {
      "midi": 71,
      "hit": false,
      "t": 93999.96300000009,
      "d": 1666.6659999999974,
      "v": 64
    },
    {
      "midi": 38,
      "hit": false,
      "t": 95666.62900000009,
      "d": 208.33324999999604,
      "v": 64
    },
    {
      "midi": 45,
      "hit": false,
      "t": 95874.96225000008,
      "d": 208.33324999999604,
      "v": 64
    },
    {
      "midi": 53,
      "hit": false,
      "t": 96083.29550000008,
      "d": 208.33324999999604,
      "v": 64
    },
    {
      "midi": 57,
      "hit": false,
      "t": 96291.62875000008,
      "d": 208.33324999999604,
      "v": 64
    },
    {
      "midi": 62,
      "hit": false,
      "t": 96499.96200000007,
      "d": 208.33324999999604,
      "v": 64
    },
    {
      "midi": 64,
      "hit": false,
      "t": 96708.29525000007,
      "d": 208.33324999999604,
      "v": 64
    },
    {
      "midi": 65,
      "hit": false,
      "t": 96916.62850000006,
      "d": 208.33324999999604,
      "v": 64
    },
    {
      "midi": 69,
      "hit": false,
      "t": 97124.96175000006,
      "d": 208.33324999999604,
      "v": 64
    },
    {
      "midi": 72,
      "hit": false,
      "t": 97333.29500000006,
      "d": 1666.666000000012,
      "v": 64
    },
    {
      "midi": 76,
      "hit": false,
      "t": 98583.29450000006,
      "d": 416.66650000000664,
      "v": 64
    },
    {
      "midi": 88,
      "hit": false,
      "t": 98583.29450000006,
      "d": 416.66650000000664,
      "v": 64
    },
    {
      "midi": 41,
      "hit": false,
      "t": 98999.96100000007,
      "d": 208.33324999999604,
      "v": 64
    },
    {
      "midi": 76,
      "hit": false,
      "t": 98999.96100000007,
      "d": 555.0127988281165,
      "v": 64
    },
    {
      "midi": 88,
      "hit": false,
      "t": 98999.96100000007,
      "d": 555.0127988281165,
      "v": 64
    },
    {
      "midi": 45,
      "hit": false,
      "t": 99208.29425000006,
      "d": 208.33324999999604,
      "v": 64
    },
    {
      "midi": 48,
      "hit": false,
      "t": 99416.62750000006,
      "d": 208.33324999999604,
      "v": 64
    },
    {
      "midi": 77,
      "hit": false,
      "t": 99554.97379882818,
      "d": 555.8266005859332,
      "v": 64
    },
    {
      "midi": 89,
      "hit": false,
      "t": 99554.97379882818,
      "d": 555.8266005859332,
      "v": 64
    },
    {
      "midi": 52,
      "hit": false,
      "t": 99624.96075000006,
      "d": 208.33324999999604,
      "v": 64
    },
    {
      "midi": 53,
      "hit": false,
      "t": 99833.29400000005,
      "d": 208.33324999999604,
      "v": 64
    },
    {
      "midi": 57,
      "hit": false,
      "t": 100041.62725000005,
      "d": 208.3332500000106,
      "v": 64
    },
    {
      "midi": 69,
      "hit": false,
      "t": 100110.80039941412,
      "d": 1805.8261005859385,
      "v": 64
    },
    {
      "midi": 81,
      "hit": false,
      "t": 100110.80039941412,
      "d": 1805.8261005859385,
      "v": 64
    },
    {
      "midi": 60,
      "hit": false,
      "t": 100249.96050000006,
      "d": 208.33324999999604,
      "v": 64
    },
    {
      "midi": 64,
      "hit": false,
      "t": 100458.29375000006,
      "d": 208.33324999999604,
      "v": 64
    },
    {
      "midi": 65,
      "hit": false,
      "t": 100666.62700000005,
      "d": 1666.6659999999974,
      "v": 64
    },
    {
      "midi": 69,
      "hit": false,
      "t": 101916.62650000006,
      "d": 208.33324999999604,
      "v": 64
    },
    {
      "midi": 81,
      "hit": false,
      "t": 101916.62650000006,
      "d": 208.33324999999604,
      "v": 64
    },
    {
      "midi": 71,
      "hit": false,
      "t": 102124.95975000005,
      "d": 208.33324999999604,
      "v": 64
    },
    {
      "midi": 83,
      "hit": false,
      "t": 102124.95975000005,
      "d": 208.33324999999604,
      "v": 64
    },
    {
      "midi": 43,
      "hit": false,
      "t": 102333.29300000005,
      "d": 208.33324999999604,
      "v": 64
    },
    {
      "midi": 72,
      "hit": false,
      "t": 102333.29300000005,
      "d": 555.0127988281165,
      "v": 64
    },
    {
      "midi": 84,
      "hit": false,
      "t": 102333.29300000005,
      "d": 555.0127988281165,
      "v": 64
    },
    {
      "midi": 50,
      "hit": false,
      "t": 102541.62625000004,
      "d": 208.33324999999604,
      "v": 64
    },
    {
      "midi": 55,
      "hit": false,
      "t": 102749.95950000004,
      "d": 208.33324999999604,
      "v": 64
    },
    {
      "midi": 74,
      "hit": false,
      "t": 102880.16778125004,
      "d": 550.9437900390476,
      "v": 64
    },
    {
      "midi": 86,
      "hit": false,
      "t": 102888.30579882817,
      "d": 555.8266005859186,
      "v": 64
    },
    {
      "midi": 57,
      "hit": false,
      "t": 102958.29275000004,
      "d": 208.33324999999604,
      "v": 64
    },
    {
      "midi": 59,
      "hit": false,
      "t": 103166.62600000003,
      "d": 208.33324999999604,
      "v": 64
    },
    {
      "midi": 60,
      "hit": false,
      "t": 103374.95925000003,
      "d": 208.33324999999604,
      "v": 64
    },
    {
      "midi": 79,
      "hit": false,
      "t": 103444.13239941408,
      "d": 1805.8261005859385,
      "v": 64
    },
    {
      "midi": 62,
      "hit": false,
      "t": 103583.29250000003,
      "d": 208.33324999999604,
      "v": 64
    },
    {
      "midi": 64,
      "hit": false,
      "t": 103791.62575000002,
      "d": 208.33324999999604,
      "v": 64
    },
    {
      "midi": 67,
      "hit": false,
      "t": 103999.95900000002,
      "d": 1249.9995000000054,
      "v": 64
    },
    {
      "midi": 65,
      "hit": false,
      "t": 105249.95850000002,
      "d": 416.66650000000664,
      "v": 64
    },
    {
      "midi": 77,
      "hit": false,
      "t": 105249.95850000002,
      "d": 416.66650000000664,
      "v": 64
    },
    {
      "midi": 64,
      "hit": false,
      "t": 105666.62500000003,
      "d": 555.012798828131,
      "v": 64
    },
    {
      "midi": 76,
      "hit": false,
      "t": 105666.62500000003,
      "d": 555.012798828131,
      "v": 64
    },
    {
      "midi": 55,
      "hit": false,
      "t": 105666.62500000003,
      "d": 1110.8393994140788,
      "v": 64
    },
    {
      "midi": 71,
      "hit": false,
      "t": 106221.63779882816,
      "d": 555.8266005859477,
      "v": 64
    },
    {
      "midi": 83,
      "hit": false,
      "t": 106221.63779882816,
      "d": 555.8266005859477,
      "v": 64
    },
    {
      "midi": 59,
      "hit": false,
      "t": 106773.39539062504,
      "d": 8.138017578137806,
      "v": 64
    },
    {
      "midi": 60,
      "hit": false,
      "t": 106773.39539062504,
      "d": 8.138017578137806,
      "v": 64
    },
    {
      "midi": 72,
      "hit": false,
      "t": 106777.46439941411,
      "d": 972.4931005859398,
      "v": 64
    },
    {
      "midi": 84,
      "hit": false,
      "t": 106777.46439941411,
      "d": 972.4931005859398,
      "v": 64
    },
    {
      "midi": 54,
      "hit": false,
      "t": 106777.46439941411,
      "d": 2222.4926005859597,
      "v": 64
    },
    {
      "midi": 64,
      "hit": false,
      "t": 106777.46439941411,
      "d": 2222.4926005859597,
      "v": 64
    },
    {
      "midi": 69,
      "hit": false,
      "t": 107749.95750000005,
      "d": 416.66650000000664,
      "v": 64
    },
    {
      "midi": 81,
      "hit": false,
      "t": 107749.95750000005,
      "d": 416.66650000000664,
      "v": 64
    },
    {
      "midi": 76,
      "hit": false,
      "t": 108166.62400000005,
      "d": 416.66650000000664,
      "v": 64
    },
    {
      "midi": 88,
      "hit": false,
      "t": 108166.62400000005,
      "d": 416.66650000000664,
      "v": 64
    },
    {
      "midi": 77,
      "hit": false,
      "t": 108583.29050000006,
      "d": 416.66650000000664,
      "v": 64
    },
    {
      "midi": 89,
      "hit": false,
      "t": 108583.29050000006,
      "d": 416.66650000000664,
      "v": 64
    },
    {
      "midi": 76,
      "hit": false,
      "t": 108999.95700000007,
      "d": 1249.9995000000054,
      "v": 64
    },
    {
      "midi": 79,
      "hit": false,
      "t": 108999.95700000007,
      "d": 1249.9995000000054,
      "v": 64
    },
    {
      "midi": 88,
      "hit": false,
      "t": 108999.95700000007,
      "d": 1249.9995000000054,
      "v": 64
    },
    {
      "midi": 53,
      "hit": false,
      "t": 108999.95700000007,
      "d": 3333.3320000000094,
      "v": 64
    },
    {
      "midi": 57,
      "hit": false,
      "t": 108999.95700000007,
      "d": 3333.3320000000094,
      "v": 64
    },
    {
      "midi": 60,
      "hit": false,
      "t": 108999.95700000007,
      "d": 3333.3320000000094,
      "v": 64
    },
    {
      "midi": 64,
      "hit": false,
      "t": 108999.95700000007,
      "d": 3333.3320000000094,
      "v": 64
    },
    {
      "midi": 74,
      "hit": false,
      "t": 110249.95650000007,
      "d": 4583.3315,
      "v": 64
    },
    {
      "midi": 77,
      "hit": false,
      "t": 110249.95650000007,
      "d": 4583.3315,
      "v": 64
    },
    {
      "midi": 86,
      "hit": false,
      "t": 110249.95650000007,
      "d": 4583.3315,
      "v": 64
    },
    {
      "midi": 55,
      "hit": false,
      "t": 112333.28900000008,
      "d": 3333.3319999999803,
      "v": 64
    },
    {
      "midi": 59,
      "hit": false,
      "t": 112333.28900000008,
      "d": 3333.3319999999803,
      "v": 64
    },
    {
      "midi": 62,
      "hit": false,
      "t": 112333.28900000008,
      "d": 3333.3319999999803,
      "v": 64
    },
    {
      "midi": 74,
      "hit": false,
      "t": 114833.28800000007,
      "d": 208.33324999999604,
      "v": 64
    },
    {
      "midi": 83,
      "hit": false,
      "t": 114833.28800000007,
      "d": 208.33324999999604,
      "v": 64
    },
    {
      "midi": 76,
      "hit": false,
      "t": 115041.62125000007,
      "d": 208.33324999999604,
      "v": 64
    },
    {
      "midi": 84,
      "hit": false,
      "t": 115041.62125000007,
      "d": 208.33324999999604,
      "v": 64
    },
    {
      "midi": 74,
      "hit": false,
      "t": 115249.95450000007,
      "d": 208.33324999999604,
      "v": 64
    },
    {
      "midi": 83,
      "hit": false,
      "t": 115249.95450000007,
      "d": 208.33324999999604,
      "v": 64
    },
    {
      "midi": 72,
      "hit": false,
      "t": 115458.28775000006,
      "d": 208.33324999999604,
      "v": 64
    },
    {
      "midi": 81,
      "hit": false,
      "t": 115458.28775000006,
      "d": 208.33324999999604,
      "v": 64
    },
    {
      "midi": 36,
      "hit": false,
      "t": 115666.62100000006,
      "d": 416.66650000000664,
      "v": 64
    },
    {
      "midi": 71,
      "hit": false,
      "t": 115666.62100000006,
      "d": 1249.99950000002,
      "v": 64
    },
    {
      "midi": 79,
      "hit": false,
      "t": 115666.62100000006,
      "d": 1249.99950000002,
      "v": 64
    },
    {
      "midi": 43,
      "hit": false,
      "t": 116083.28750000006,
      "d": 416.66650000000664,
      "v": 64
    },
    {
      "midi": 52,
      "hit": false,
      "t": 116499.95400000007,
      "d": 833.3330000000133,
      "v": 64
    },
    {
      "midi": 79,
      "hit": false,
      "t": 116916.62050000008,
      "d": 416.66650000000664,
      "v": 64
    },
    {
      "midi": 91,
      "hit": false,
      "t": 116916.62050000008,
      "d": 416.66650000000664,
      "v": 64
    },
    {
      "midi": 79,
      "hit": false,
      "t": 117333.28700000008,
      "d": 416.66650000000664,
      "v": 64
    },
    {
      "midi": 91,
      "hit": false,
      "t": 117333.28700000008,
      "d": 416.66650000000664,
      "v": 64
    },
    {
      "midi": 41,
      "hit": false,
      "t": 117333.28700000008,
      "d": 416.66650000000664,
      "v": 64
    },
    {
      "midi": 81,
      "hit": false,
      "t": 117749.95350000009,
      "d": 416.66650000000664,
      "v": 64
    },
    {
      "midi": 93,
      "hit": false,
      "t": 117749.95350000009,
      "d": 416.66650000000664,
      "v": 64
    },
    {
      "midi": 48,
      "hit": false,
      "t": 117749.95350000009,
      "d": 416.66650000000664,
      "v": 64
    },
    {
      "midi": 77,
      "hit": false,
      "t": 118166.6200000001,
      "d": 416.66650000000664,
      "v": 64
    },
    {
      "midi": 89,
      "hit": false,
      "t": 118166.6200000001,
      "d": 416.66650000000664,
      "v": 64
    },
    {
      "midi": 57,
      "hit": false,
      "t": 118166.6200000001,
      "d": 833.3330000000133,
      "v": 64
    },
    {
      "midi": 76,
      "hit": false,
      "t": 118583.2865000001,
      "d": 416.66650000000664,
      "v": 64
    },
    {
      "midi": 88,
      "hit": false,
      "t": 118583.2865000001,
      "d": 416.66650000000664,
      "v": 64
    },
    {
      "midi": 50,
      "hit": false,
      "t": 118999.95300000011,
      "d": 416.66650000000664,
      "v": 64
    },
    {
      "midi": 74,
      "hit": false,
      "t": 118999.95300000011,
      "d": 1249.99950000002,
      "v": 64
    },
    {
      "midi": 86,
      "hit": false,
      "t": 118999.95300000011,
      "d": 1249.99950000002,
      "v": 64
    },
    {
      "midi": 57,
      "hit": false,
      "t": 119416.61950000012,
      "d": 416.66650000000664,
      "v": 64
    },
    {
      "midi": 65,
      "hit": false,
      "t": 119833.28600000012,
      "d": 833.3330000000133,
      "v": 64
    },
    {
      "midi": 62,
      "hit": false,
      "t": 119833.28600000012,
      "d": 833.3330000000133,
      "v": 64
    },
    {
      "midi": 74,
      "hit": false,
      "t": 120249.95250000013,
      "d": 416.66650000000664,
      "v": 64
    },
    {
      "midi": 86,
      "hit": false,
      "t": 120249.95250000013,
      "d": 416.66650000000664,
      "v": 64
    },
    {
      "midi": 43,
      "hit": false,
      "t": 120666.61900000014,
      "d": 416.66650000000664,
      "v": 64
    },
    {
      "midi": 74,
      "hit": false,
      "t": 120666.61900000014,
      "d": 416.66650000000664,
      "v": 64
    },
    {
      "midi": 86,
      "hit": false,
      "t": 120666.61900000014,
      "d": 416.66650000000664,
      "v": 64
    },
    {
      "midi": 79,
      "hit": false,
      "t": 121083.28550000014,
      "d": 416.66650000000664,
      "v": 64
    },
    {
      "midi": 91,
      "hit": false,
      "t": 121083.28550000014,
      "d": 416.66650000000664,
      "v": 64
    },
    {
      "midi": 52,
      "hit": false,
      "t": 121083.28550000014,
      "d": 416.66650000000664,
      "v": 64
    },
    {
      "midi": 44,
      "hit": false,
      "t": 121499.95200000015,
      "d": 416.66650000000664,
      "v": 64
    },
    {
      "midi": 88,
      "hit": false,
      "t": 121499.95200000015,
      "d": 416.66650000000664,
      "v": 64
    },
    {
      "midi": 76,
      "hit": false,
      "t": 121499.95200000015,
      "d": 416.66650000000664,
      "v": 64
    },
    {
      "midi": 74,
      "hit": false,
      "t": 121916.61850000016,
      "d": 416.66650000000664,
      "v": 64
    },
    {
      "midi": 86,
      "hit": false,
      "t": 121916.61850000016,
      "d": 416.66650000000664,
      "v": 64
    },
    {
      "midi": 52,
      "hit": false,
      "t": 121916.61850000016,
      "d": 416.66650000000664,
      "v": 64
    },
    {
      "midi": 45,
      "hit": false,
      "t": 122333.28500000016,
      "d": 416.66650000000664,
      "v": 64
    },
    {
      "midi": 72,
      "hit": false,
      "t": 122333.28500000016,
      "d": 1249.99950000002,
      "v": 64
    },
    {
      "midi": 84,
      "hit": false,
      "t": 122333.28500000016,
      "d": 1249.99950000002,
      "v": 64
    },
    {
      "midi": 52,
      "hit": false,
      "t": 122749.95150000017,
      "d": 416.66650000000664,
      "v": 64
    },
    {
      "midi": 59,
      "hit": false,
      "t": 123166.61800000018,
      "d": 833.3329999999987,
      "v": 64
    },
    {
      "midi": 60,
      "hit": false,
      "t": 123166.61800000018,
      "d": 833.3329999999987,
      "v": 64
    },
    {
      "midi": 71,
      "hit": false,
      "t": 123583.28450000018,
      "d": 208.33324999999604,
      "v": 64
    },
    {
      "midi": 83,
      "hit": false,
      "t": 123583.28450000018,
      "d": 208.33324999999604,
      "v": 64
    },
    {
      "midi": 84,
      "hit": false,
      "t": 123791.61775000018,
      "d": 208.33324999999604,
      "v": 64
    },
    {
      "midi": 72,
      "hit": false,
      "t": 123791.61775000018,
      "d": 208.33324999999604,
      "v": 64
    },
    {
      "midi": 41,
      "hit": false,
      "t": 123999.95100000018,
      "d": 416.66650000000664,
      "v": 64
    },
    {
      "midi": 83,
      "hit": false,
      "t": 123999.95100000018,
      "d": 833.3330000000133,
      "v": 64
    },
    {
      "midi": 86,
      "hit": false,
      "t": 123999.95100000018,
      "d": 833.3330000000133,
      "v": 64
    },
    {
      "midi": 95,
      "hit": false,
      "t": 123999.95100000018,
      "d": 833.3330000000133,
      "v": 64
    },
    {
      "midi": 48,
      "hit": false,
      "t": 124416.61750000018,
      "d": 416.66650000000664,
      "v": 64
    },
    {
      "midi": 84,
      "hit": false,
      "t": 124833.28400000019,
      "d": 833.3329999999987,
      "v": 64
    },
    {
      "midi": 88,
      "hit": false,
      "t": 124833.28400000019,
      "d": 833.3329999999987,
      "v": 64
    },
    {
      "midi": 96,
      "hit": false,
      "t": 124833.28400000019,
      "d": 833.3329999999987,
      "v": 64
    },
    {
      "midi": 57,
      "hit": false,
      "t": 124833.28400000019,
      "d": 833.3329999999987,
      "v": 64
    },
    {
      "midi": 65,
      "hit": false,
      "t": 124833.28400000019,
      "d": 833.3329999999987,
      "v": 64
    },
    {
      "midi": 50,
      "hit": false,
      "t": 125666.61700000019,
      "d": 416.66650000000664,
      "v": 64
    },
    {
      "midi": 79,
      "hit": false,
      "t": 125666.61700000019,
      "d": 1666.666000000012,
      "v": 64
    },
    {
      "midi": 84,
      "hit": false,
      "t": 125666.61700000019,
      "d": 1666.666000000012,
      "v": 64
    },
    {
      "midi": 91,
      "hit": false,
      "t": 125666.61700000019,
      "d": 1666.666000000012,
      "v": 64
    },
    {
      "midi": 57,
      "hit": false,
      "t": 126083.2835000002,
      "d": 416.66650000000664,
      "v": 64
    },
    {
      "midi": 62,
      "hit": false,
      "t": 126499.9500000002,
      "d": 833.3329999999987,
      "v": 64
    },
    {
      "midi": 65,
      "hit": false,
      "t": 126499.9500000002,
      "d": 833.3329999999987,
      "v": 64
    },
    {
      "midi": 62,
      "hit": false,
      "t": 127333.2830000002,
      "d": 0,
      "v": 64
    },
    {
      "midi": 43,
      "hit": false,
      "t": 127333.2830000002,
      "d": 416.66650000000664,
      "v": 64
    },
    {
      "midi": 71,
      "hit": false,
      "t": 127333.2830000002,
      "d": 833.3330000000133,
      "v": 64
    },
    {
      "midi": 62,
      "hit": false,
      "t": 127333.2830000002,
      "d": 833.3330000000133,
      "v": 64
    },
    {
      "midi": 55,
      "hit": false,
      "t": 127749.9495000002,
      "d": 416.66650000000664,
      "v": 64
    },
    {
      "midi": 50,
      "hit": false,
      "t": 128166.61600000021,
      "d": 208.33324999999604,
      "v": 64
    },
    {
      "midi": 74,
      "hit": false,
      "t": 128166.61600000021,
      "d": 208.33324999999604,
      "v": 64
    },
    {
      "midi": 83,
      "hit": false,
      "t": 128166.61600000021,
      "d": 208.33324999999604,
      "v": 64
    },
    {
      "midi": 76,
      "hit": false,
      "t": 128374.94925000021,
      "d": 208.33324999999604,
      "v": 64
    },
    {
      "midi": 84,
      "hit": false,
      "t": 128374.94925000021,
      "d": 208.33324999999604,
      "v": 64
    },
    {
      "midi": 74,
      "hit": false,
      "t": 128583.2825000002,
      "d": 208.33324999999604,
      "v": 64
    },
    {
      "midi": 83,
      "hit": false,
      "t": 128583.2825000002,
      "d": 208.33324999999604,
      "v": 64
    },
    {
      "midi": 55,
      "hit": false,
      "t": 128583.2825000002,
      "d": 416.6664999999921,
      "v": 64
    },
    {
      "midi": 72,
      "hit": false,
      "t": 128791.6157500002,
      "d": 208.33324999999604,
      "v": 64
    },
    {
      "midi": 81,
      "hit": false,
      "t": 128791.6157500002,
      "d": 208.33324999999604,
      "v": 64
    },
    {
      "midi": 36,
      "hit": false,
      "t": 128999.9490000002,
      "d": 416.66650000000664,
      "v": 64
    },
    {
      "midi": 71,
      "hit": false,
      "t": 128999.9490000002,
      "d": 1249.99950000002,
      "v": 64
    },
    {
      "midi": 79,
      "hit": false,
      "t": 128999.9490000002,
      "d": 1249.99950000002,
      "v": 64
    },
    {
      "midi": 43,
      "hit": false,
      "t": 129416.6155000002,
      "d": 416.66650000000664,
      "v": 64
    },
    {
      "midi": 52,
      "hit": false,
      "t": 129833.28200000021,
      "d": 833.3330000000133,
      "v": 64
    },
    {
      "midi": 79,
      "hit": false,
      "t": 130249.94850000022,
      "d": 416.66650000000664,
      "v": 64
    },
    {
      "midi": 91,
      "hit": false,
      "t": 130249.94850000022,
      "d": 416.66650000000664,
      "v": 64
    },
    {
      "midi": 79,
      "hit": false,
      "t": 130666.61500000022,
      "d": 416.6664999999921,
      "v": 64
    },
    {
      "midi": 91,
      "hit": false,
      "t": 130666.61500000022,
      "d": 416.6664999999921,
      "v": 64
    },
    {
      "midi": 41,
      "hit": false,
      "t": 130666.61500000022,
      "d": 416.6664999999921,
      "v": 64
    },
    {
      "midi": 81,
      "hit": false,
      "t": 131083.28150000022,
      "d": 416.6664999999921,
      "v": 64
    },
    {
      "midi": 93,
      "hit": false,
      "t": 131083.28150000022,
      "d": 416.6664999999921,
      "v": 64
    },
    {
      "midi": 48,
      "hit": false,
      "t": 131083.28150000022,
      "d": 416.6664999999921,
      "v": 64
    },
    {
      "midi": 77,
      "hit": false,
      "t": 131499.9480000002,
      "d": 416.6664999999921,
      "v": 64
    },
    {
      "midi": 89,
      "hit": false,
      "t": 131499.9480000002,
      "d": 416.6664999999921,
      "v": 64
    },
    {
      "midi": 57,
      "hit": false,
      "t": 131499.9480000002,
      "d": 833.3329999999842,
      "v": 64
    },
    {
      "midi": 76,
      "hit": false,
      "t": 131916.6145000002,
      "d": 416.6664999999921,
      "v": 64
    },
    {
      "midi": 88,
      "hit": false,
      "t": 131916.6145000002,
      "d": 416.6664999999921,
      "v": 64
    },
    {
      "midi": 50,
      "hit": false,
      "t": 132333.2810000002,
      "d": 416.6664999999921,
      "v": 64
    },
    {
      "midi": 74,
      "hit": false,
      "t": 132333.2810000002,
      "d": 1249.9994999999763,
      "v": 64
    },
    {
      "midi": 86,
      "hit": false,
      "t": 132333.2810000002,
      "d": 1249.9994999999763,
      "v": 64
    },
    {
      "midi": 57,
      "hit": false,
      "t": 132749.94750000018,
      "d": 416.6664999999921,
      "v": 64
    },
    {
      "midi": 65,
      "hit": false,
      "t": 133166.61400000018,
      "d": 833.3329999999842,
      "v": 64
    },
    {
      "midi": 62,
      "hit": false,
      "t": 133166.61400000018,
      "d": 833.3329999999842,
      "v": 64
    },
    {
      "midi": 74,
      "hit": false,
      "t": 133583.28050000017,
      "d": 416.6664999999921,
      "v": 64
    },
    {
      "midi": 86,
      "hit": false,
      "t": 133583.28050000017,
      "d": 416.6664999999921,
      "v": 64
    },
    {
      "midi": 74,
      "hit": false,
      "t": 133999.94700000016,
      "d": 416.6664999999921,
      "v": 64
    },
    {
      "midi": 86,
      "hit": false,
      "t": 133999.94700000016,
      "d": 416.6664999999921,
      "v": 64
    },
    {
      "midi": 40,
      "hit": false,
      "t": 133999.94700000016,
      "d": 416.6664999999921,
      "v": 64
    },
    {
      "midi": 47,
      "hit": false,
      "t": 133999.94700000016,
      "d": 416.6664999999921,
      "v": 64
    },
    {
      "midi": 79,
      "hit": false,
      "t": 134416.61350000015,
      "d": 416.6664999999921,
      "v": 64
    },
    {
      "midi": 91,
      "hit": false,
      "t": 134416.61350000015,
      "d": 416.6664999999921,
      "v": 64
    },
    {
      "midi": 52,
      "hit": false,
      "t": 134416.61350000015,
      "d": 416.6664999999921,
      "v": 64
    },
    {
      "midi": 76,
      "hit": false,
      "t": 134833.28000000014,
      "d": 416.6664999999921,
      "v": 64
    },
    {
      "midi": 88,
      "hit": false,
      "t": 134833.28000000014,
      "d": 416.6664999999921,
      "v": 64
    },
    {
      "midi": 44,
      "hit": false,
      "t": 134833.28000000014,
      "d": 416.6664999999921,
      "v": 64
    },
    {
      "midi": 74,
      "hit": false,
      "t": 135249.94650000014,
      "d": 416.6664999999921,
      "v": 64
    },
    {
      "midi": 86,
      "hit": false,
      "t": 135249.94650000014,
      "d": 416.6664999999921,
      "v": 64
    },
    {
      "midi": 52,
      "hit": false,
      "t": 135249.94650000014,
      "d": 416.6664999999921,
      "v": 64
    },
    {
      "midi": 45,
      "hit": false,
      "t": 135666.61300000013,
      "d": 416.6664999999921,
      "v": 64
    },
    {
      "midi": 72,
      "hit": false,
      "t": 135666.61300000013,
      "d": 1249.9994999999763,
      "v": 64
    },
    {
      "midi": 84,
      "hit": false,
      "t": 135666.61300000013,
      "d": 1249.9994999999763,
      "v": 64
    },
    {
      "midi": 52,
      "hit": false,
      "t": 136083.27950000012,
      "d": 416.6664999999921,
      "v": 64
    },
    {
      "midi": 59,
      "hit": false,
      "t": 136499.9460000001,
      "d": 833.3329999999842,
      "v": 64
    },
    {
      "midi": 60,
      "hit": false,
      "t": 136499.9460000001,
      "d": 833.3329999999842,
      "v": 64
    },
    {
      "midi": 71,
      "hit": false,
      "t": 136916.6125000001,
      "d": 208.33324999999604,
      "v": 64
    },
    {
      "midi": 83,
      "hit": false,
      "t": 136916.6125000001,
      "d": 208.33324999999604,
      "v": 64
    },
    {
      "midi": 84,
      "hit": false,
      "t": 137124.9457500001,
      "d": 208.33324999999604,
      "v": 64
    },
    {
      "midi": 72,
      "hit": false,
      "t": 137124.9457500001,
      "d": 208.33324999999604,
      "v": 64
    },
    {
      "midi": 41,
      "hit": false,
      "t": 137333.2790000001,
      "d": 416.6664999999921,
      "v": 64
    },
    {
      "midi": 83,
      "hit": false,
      "t": 137333.2790000001,
      "d": 833.3329999999842,
      "v": 64
    },
    {
      "midi": 95,
      "hit": false,
      "t": 137333.2790000001,
      "d": 833.3329999999842,
      "v": 64
    },
    {
      "midi": 48,
      "hit": false,
      "t": 137749.9455000001,
      "d": 416.6664999999921,
      "v": 64
    },
    {
      "midi": 84,
      "hit": false,
      "t": 138166.61200000008,
      "d": 833.3330000000133,
      "v": 64
    },
    {
      "midi": 96,
      "hit": false,
      "t": 138166.61200000008,
      "d": 833.3330000000133,
      "v": 64
    },
    {
      "midi": 57,
      "hit": false,
      "t": 138166.61200000008,
      "d": 833.3330000000133,
      "v": 64
    },
    {
      "midi": 65,
      "hit": false,
      "t": 138166.61200000008,
      "d": 833.3330000000133,
      "v": 64
    },
    {
      "midi": 50,
      "hit": false,
      "t": 138999.9450000001,
      "d": 416.6664999999921,
      "v": 64
    },
    {
      "midi": 79,
      "hit": false,
      "t": 138999.9450000001,
      "d": 833.3329999999842,
      "v": 64
    },
    {
      "midi": 84,
      "hit": false,
      "t": 138999.9450000001,
      "d": 833.3329999999842,
      "v": 64
    },
    {
      "midi": 91,
      "hit": false,
      "t": 138999.9450000001,
      "d": 833.3329999999842,
      "v": 64
    },
    {
      "midi": 57,
      "hit": false,
      "t": 139416.6115000001,
      "d": 416.6664999999921,
      "v": 64
    },
    {
      "midi": 77,
      "hit": false,
      "t": 139833.27800000008,
      "d": 833.3330000000133,
      "v": 64
    },
    {
      "midi": 81,
      "hit": false,
      "t": 139833.27800000008,
      "d": 833.3330000000133,
      "v": 64
    },
    {
      "midi": 89,
      "hit": false,
      "t": 139833.27800000008,
      "d": 833.3330000000133,
      "v": 64
    },
    {
      "midi": 62,
      "hit": false,
      "t": 139833.27800000008,
      "d": 833.3330000000133,
      "v": 64
    },
    {
      "midi": 65,
      "hit": false,
      "t": 139833.27800000008,
      "d": 833.3330000000133,
      "v": 64
    },
    {
      "midi": 53,
      "hit": false,
      "t": 140666.6110000001,
      "d": 416.6664999999921,
      "v": 64
    },
    {
      "midi": 60,
      "hit": false,
      "t": 140666.6110000001,
      "d": 416.6664999999921,
      "v": 64
    },
    {
      "midi": 72,
      "hit": false,
      "t": 140666.6110000001,
      "d": 833.3329999999842,
      "v": 64
    },
    {
      "midi": 77,
      "hit": false,
      "t": 140666.6110000001,
      "d": 833.3329999999842,
      "v": 64
    },
    {
      "midi": 84,
      "hit": false,
      "t": 140666.6110000001,
      "d": 833.3329999999842,
      "v": 64
    },
    {
      "midi": 55,
      "hit": false,
      "t": 141083.27750000008,
      "d": 416.6664999999921,
      "v": 64
    },
    {
      "midi": 62,
      "hit": false,
      "t": 141499.94400000008,
      "d": 416.6664999999921,
      "v": 64
    },
    {
      "midi": 74,
      "hit": false,
      "t": 141499.94400000008,
      "d": 833.3329999999842,
      "v": 64
    },
    {
      "midi": 79,
      "hit": false,
      "t": 141499.94400000008,
      "d": 833.3329999999842,
      "v": 64
    },
    {
      "midi": 86,
      "hit": false,
      "t": 141499.94400000008,
      "d": 833.3329999999842,
      "v": 64
    },
    {
      "midi": 55,
      "hit": false,
      "t": 141916.61050000007,
      "d": 416.6664999999921,
      "v": 64
    },
    {
      "midi": 36,
      "hit": false,
      "t": 142333.27700000006,
      "d": 416.6664999999921,
      "v": 64
    },
    {
      "midi": 76,
      "hit": false,
      "t": 142333.27700000006,
      "d": 1666.6659999999683,
      "v": 64
    },
    {
      "midi": 79,
      "hit": false,
      "t": 142333.27700000006,
      "d": 1666.6659999999683,
      "v": 64
    },
    {
      "midi": 88,
      "hit": false,
      "t": 142333.27700000006,
      "d": 1666.6659999999683,
      "v": 64
    },
    {
      "midi": 43,
      "hit": false,
      "t": 142749.94350000005,
      "d": 416.6664999999921,
      "v": 64
    },
    {
      "midi": 50,
      "hit": false,
      "t": 143166.61000000004,
      "d": 416.6664999999921,
      "v": 64
    },
    {
      "midi": 52,
      "hit": false,
      "t": 143583.27650000004,
      "d": 416.6664999999921,
      "v": 64
    },
    {
      "midi": 55,
      "hit": false,
      "t": 143999.94300000003,
      "d": 416.6664999999921,
      "v": 64
    },
    {
      "midi": 72,
      "hit": false,
      "t": 143999.94300000003,
      "d": 3333.3319999999367,
      "v": 64
    },
    {
      "midi": 60,
      "hit": false,
      "t": 144416.60950000002,
      "d": 416.6664999999921,
      "v": 64
    },
    {
      "midi": 62,
      "hit": false,
      "t": 144833.276,
      "d": 416.6664999999921,
      "v": 64
    },
    {
      "midi": 64,
      "hit": false,
      "t": 145249.9425,
      "d": 416.6664999999921,
      "v": 64
    },
    {
      "midi": 41,
      "hit": false,
      "t": 145666.609,
      "d": 416.6664999999921,
      "v": 64
    },
    {
      "midi": 65,
      "hit": false,
      "t": 145666.609,
      "d": 1666.6659999999683,
      "v": 64
    },
    {
      "midi": 76,
      "hit": false,
      "t": 145666.609,
      "d": 1666.6659999999683,
      "v": 64
    },
    {
      "midi": 48,
      "hit": false,
      "t": 146083.2755,
      "d": 416.6664999999921,
      "v": 64
    },
    {
      "midi": 55,
      "hit": false,
      "t": 146499.94199999998,
      "d": 416.6664999999921,
      "v": 64
    },
    {
      "midi": 57,
      "hit": false,
      "t": 146916.60849999997,
      "d": 416.6664999999921,
      "v": 64
    },
    {
      "midi": 57,
      "hit": false,
      "t": 147333.27499999997,
      "d": 416.6664999999921,
      "v": 64
    },
    {
      "midi": 69,
      "hit": false,
      "t": 147333.27499999997,
      "d": 555.012798828131,
      "v": 64
    },
    {
      "midi": 77,
      "hit": false,
      "t": 147333.27499999997,
      "d": 555.012798828131,
      "v": 64
    },
    {
      "midi": 60,
      "hit": false,
      "t": 147749.94149999996,
      "d": 416.6665000000212,
      "v": 64
    },
    {
      "midi": 67,
      "hit": false,
      "t": 147888.2877988281,
      "d": 555.8266005859477,
      "v": 64
    },
    {
      "midi": 76,
      "hit": false,
      "t": 147888.2877988281,
      "d": 555.8266005859477,
      "v": 64
    },
    {
      "midi": 65,
      "hit": false,
      "t": 148444.11439941404,
      "d": 139.16010058592656,
      "v": 64
    },
    {
      "midi": 74,
      "hit": false,
      "t": 148444.11439941404,
      "d": 555.012798828102,
      "v": 64
    },
    {
      "midi": 69,
      "hit": false,
      "t": 148583.27449999997,
      "d": 416.6664999999921,
      "v": 64
    },
    {
      "midi": 36,
      "hit": false,
      "t": 148999.94099999996,
      "d": 416.6664999999921,
      "v": 64
    },
    {
      "midi": 76,
      "hit": false,
      "t": 148999.94099999996,
      "d": 8333.329999999987,
      "v": 64
    },
    {
      "midi": 43,
      "hit": false,
      "t": 149416.60749999995,
      "d": 416.6664999999921,
      "v": 64
    },
    {
      "midi": 50,
      "hit": false,
      "t": 149833.27399999995,
      "d": 416.6664999999921,
      "v": 64
    },
    {
      "midi": 52,
      "hit": false,
      "t": 150249.94049999994,
      "d": 416.6664999999921,
      "v": 64
    },
    {
      "midi": 55,
      "hit": false,
      "t": 150666.60699999993,
      "d": 416.6664999999921,
      "v": 64
    },
    {
      "midi": 60,
      "hit": false,
      "t": 151083.27349999992,
      "d": 416.6664999999921,
      "v": 64
    },
    {
      "midi": 62,
      "hit": false,
      "t": 151499.93999999992,
      "d": 416.6664999999921,
      "v": 64
    },
    {
      "midi": 64,
      "hit": false,
      "t": 151916.6064999999,
      "d": 416.6665000000503,
      "v": 64
    },
    {
      "midi": 36,
      "hit": false,
      "t": 152167.25744140617,
      "d": 5166.013558593782,
      "v": 64
    },
    {
      "midi": 48,
      "hit": false,
      "t": 152208.76133105461,
      "d": 5124.509668945335,
      "v": 64
    },
    {
      "midi": 55,
      "hit": false,
      "t": 152250.26522070306,
      "d": 5083.005779296887,
      "v": 64
    },
    {
      "midi": 62,
      "hit": false,
      "t": 152291.7691103515,
      "d": 5041.50188964844,
      "v": 64
    },
    {
      "midi": 67,
      "hit": false,
      "t": 152333.27299999996,
      "d": 4999.997999999992,
      "v": 64
    }
  ]
}