{
  "jsonPath": "Latin/Latin/Marisela/me-olvidare-de-ti.json",
  "path": "Latin\\Latin\\Marisela\\Me Olvidare De Ti.mid",
  "name": "Me Olvidare De Ti",
  "difficulty": "Advanced",
  "bpm": 100,
  "notes": [
    {
      "midi": 65,
      "hit": false,
      "t": 1500,
      "d": 300,
      "v": 127
    },
    {
      "midi": 62,
      "hit": false,
      "t": 1800,
      "d": 300,
      "v": 118
    },
    {
      "midi": 65,
      "hit": false,
      "t": 2100,
      "d": 300,
      "v": 121
    },
    {
      "midi": 72,
      "hit": false,
      "t": 2400,
      "d": 600,
      "v": 119
    },
    {
      "midi": 41,
      "hit": false,
      "t": 2400,
      "d": 2400,
      "v": 116
    },
    {
      "midi": 57,
      "hit": false,
      "t": 2400,
      "d": 2400,
      "v": 119
    },
    {
      "midi": 60,
      "hit": false,
      "t": 2400,
      "d": 2400,
      "v": 85
    },
    {
      "midi": 65,
      "hit": false,
      "t": 2400,
      "d": 2400,
      "v": 89
    },
    {
      "midi": 72,
      "hit": false,
      "t": 3000,
      "d": 600,
      "v": 127
    },
    {
      "midi": 69,
      "hit": false,
      "t": 3600,
      "d": 600,
      "v": 114
    },
    {
      "midi": 69,
      "hit": false,
      "t": 4200,
      "d": 150,
      "v": 104
    },
    {
      "midi": 72,
      "hit": false,
      "t": 4200,
      "d": 150,
      "v": 104
    },
    {
      "midi": 74,
      "hit": false,
      "t": 4350,
      "d": 150,
      "v": 107
    },
    {
      "midi": 69,
      "hit": false,
      "t": 4500,
      "d": 300,
      "v": 125
    },
    {
      "midi": 72,
      "hit": false,
      "t": 4500,
      "d": 300,
      "v": 125
    },
    {
      "midi": 69,
      "hit": false,
      "t": 4800,
      "d": 1500,
      "v": 107
    },
    {
      "midi": 38,
      "hit": false,
      "t": 4800,
      "d": 2400,
      "v": 103
    },
    {
      "midi": 57,
      "hit": false,
      "t": 4800,
      "d": 2400,
      "v": 113
    },
    {
      "midi": 62,
      "hit": false,
      "t": 4800,
      "d": 2400,
      "v": 122
    },
    {
      "midi": 65,
      "hit": false,
      "t": 4800,
      "d": 2400,
      "v": 121
    },
    {
      "midi": 45,
      "hit": false,
      "t": 5100,
      "d": 2100,
      "v": 103
    },
    {
      "midi": 50,
      "hit": false,
      "t": 5400,
      "d": 1800,
      "v": 103
    },
    {
      "midi": 53,
      "hit": false,
      "t": 5700,
      "d": 1500,
      "v": 103
    },
    {
      "midi": 72,
      "hit": false,
      "t": 6300,
      "d": 150,
      "v": 109
    },
    {
      "midi": 74,
      "hit": false,
      "t": 6450,
      "d": 150,
      "v": 110
    },
    {
      "midi": 72,
      "hit": false,
      "t": 6600,
      "d": 300,
      "v": 122
    },
    {
      "midi": 69,
      "hit": false,
      "t": 6900,
      "d": 150,
      "v": 104
    },
    {
      "midi": 70,
      "hit": false,
      "t": 7050,
      "d": 150,
      "v": 114
    },
    {
      "midi": 67,
      "hit": false,
      "t": 7200,
      "d": 600,
      "v": 127
    },
    {
      "midi": 43,
      "hit": false,
      "t": 7200,
      "d": 1200,
      "v": 105
    },
    {
      "midi": 58,
      "hit": false,
      "t": 7200,
      "d": 1200,
      "v": 123
    },
    {
      "midi": 62,
      "hit": false,
      "t": 7200,
      "d": 1200,
      "v": 111
    },
    {
      "midi": 67,
      "hit": false,
      "t": 7200,
      "d": 1200,
      "v": 87
    },
    {
      "midi": 67,
      "hit": false,
      "t": 7800,
      "d": 600,
      "v": 106
    },
    {
      "midi": 64,
      "hit": false,
      "t": 8400,
      "d": 1200,
      "v": 104
    },
    {
      "midi": 36,
      "hit": false,
      "t": 8400,
      "d": 1200,
      "v": 99
    },
    {
      "midi": 58,
      "hit": false,
      "t": 8400,
      "d": 1200,
      "v": 106
    },
    {
      "midi": 60,
      "hit": false,
      "t": 8400,
      "d": 1200,
      "v": 104
    },
    {
      "midi": 64,
      "hit": false,
      "t": 8400,
      "d": 1200,
      "v": 119
    },
    {
      "midi": 57,
      "hit": false,
      "t": 9600,
      "d": 2400,
      "v": 102
    },
    {
      "midi": 60,
      "hit": false,
      "t": 9600,
      "d": 2400,
      "v": 89
    },
    {
      "midi": 65,
      "hit": false,
      "t": 9600,
      "d": 2400,
      "v": 110
    },
    {
      "midi": 65,
      "hit": false,
      "t": 9900,
      "d": 300,
      "v": 117
    },
    {
      "midi": 72,
      "hit": false,
      "t": 10200,
      "d": 1800,
      "v": 121
    },
    {
      "midi": 57,
      "hit": false,
      "t": 12000,
      "d": 2400,
      "v": 119
    },
    {
      "midi": 60,
      "hit": false,
      "t": 12000,
      "d": 2400,
      "v": 104
    },
    {
      "midi": 65,
      "hit": false,
      "t": 12000,
      "d": 2400,
      "v": 100
    },
    {
      "midi": 69,
      "hit": false,
      "t": 12600,
      "d": 300,
      "v": 112
    },
    {
      "midi": 65,
      "hit": false,
      "t": 12900,
      "d": 300,
      "v": 113
    },
    {
      "midi": 69,
      "hit": false,
      "t": 13200,
      "d": 1200,
      "v": 105
    },
    {
      "midi": 57,
      "hit": false,
      "t": 14400,
      "d": 2400,
      "v": 96
    },
    {
      "midi": 62,
      "hit": false,
      "t": 14400,
      "d": 2400,
      "v": 93
    },
    {
      "midi": 65,
      "hit": false,
      "t": 14400,
      "d": 2400,
      "v": 116
    },
    {
      "midi": 62,
      "hit": false,
      "t": 14700,
      "d": 300,
      "v": 102
    },
    {
      "midi": 65,
      "hit": false,
      "t": 15000,
      "d": 300,
      "v": 107
    },
    {
      "midi": 62,
      "hit": false,
      "t": 15300,
      "d": 300,
      "v": 112
    },
    {
      "midi": 69,
      "hit": false,
      "t": 15600,
      "d": 300,
      "v": 118
    },
    {
      "midi": 62,
      "hit": false,
      "t": 15900,
      "d": 300,
      "v": 105
    },
    {
      "midi": 65,
      "hit": false,
      "t": 16200,
      "d": 300,
      "v": 122
    },
    {
      "midi": 62,
      "hit": false,
      "t": 16500,
      "d": 300,
      "v": 126
    },
    {
      "midi": 67,
      "hit": false,
      "t": 16800,
      "d": 1200,
      "v": 122
    },
    {
      "midi": 58,
      "hit": false,
      "t": 16800,
      "d": 1200,
      "v": 89
    },
    {
      "midi": 62,
      "hit": false,
      "t": 16800,
      "d": 1200,
      "v": 93
    },
    {
      "midi": 67,
      "hit": false,
      "t": 16800,
      "d": 1200,
      "v": 118
    },
    {
      "midi": 60,
      "hit": false,
      "t": 18000,
      "d": 1200,
      "v": 115
    },
    {
      "midi": 72,
      "hit": false,
      "t": 18000,
      "d": 1200,
      "v": 124
    },
    {
      "midi": 58,
      "hit": false,
      "t": 18000,
      "d": 1200,
      "v": 96
    },
    {
      "midi": 60,
      "hit": false,
      "t": 18000,
      "d": 1200,
      "v": 104
    },
    {
      "midi": 64,
      "hit": false,
      "t": 18000,
      "d": 1200,
      "v": 119
    },
    {
      "midi": 57,
      "hit": false,
      "t": 19200,
      "d": 2400,
      "v": 110
    },
    {
      "midi": 60,
      "hit": false,
      "t": 19200,
      "d": 2400,
      "v": 113
    },
    {
      "midi": 65,
      "hit": false,
      "t": 19200,
      "d": 2400,
      "v": 86
    },
    {
      "midi": 57,
      "hit": false,
      "t": 21600,
      "d": 2400,
      "v": 117
    },
    {
      "midi": 60,
      "hit": false,
      "t": 21600,
      "d": 2400,
      "v": 103
    },
    {
      "midi": 65,
      "hit": false,
      "t": 21600,
      "d": 2400,
      "v": 86
    },
    {
      "midi": 58,
      "hit": false,
      "t": 24000,
      "d": 2400,
      "v": 120
    },
    {
      "midi": 62,
      "hit": false,
      "t": 24000,
      "d": 2400,
      "v": 113
    },
    {
      "midi": 65,
      "hit": false,
      "t": 24000,
      "d": 2400,
      "v": 122
    },
    {
      "midi": 79,
      "hit": false,
      "t": 25200,
      "d": 300,
      "v": 114
    },
    {
      "midi": 77,
      "hit": false,
      "t": 25500,
      "d": 300,
      "v": 110
    },
    {
      "midi": 74,
      "hit": false,
      "t": 25800,
      "d": 300,
      "v": 107
    },
    {
      "midi": 77,
      "hit": false,
      "t": 26100,
      "d": 300,
      "v": 123
    },
    {
      "midi": 74,
      "hit": false,
      "t": 26400,
      "d": 2400,
      "v": 111
    },
    {
      "midi": 58,
      "hit": false,
      "t": 26400,
      "d": 2400,
      "v": 127
    },
    {
      "midi": 62,
      "hit": false,
      "t": 26400,
      "d": 2400,
      "v": 122
    },
    {
      "midi": 65,
      "hit": false,
      "t": 26400,
      "d": 2400,
      "v": 107
    },
    {
      "midi": 57,
      "hit": false,
      "t": 28800,
      "d": 2400,
      "v": 126
    },
    {
      "midi": 60,
      "hit": false,
      "t": 28800,
      "d": 2400,
      "v": 111
    },
    {
      "midi": 65,
      "hit": false,
      "t": 28800,
      "d": 2400,
      "v": 88
    },
    {
      "midi": 79,
      "hit": false,
      "t": 30000,
      "d": 300,
      "v": 110
    },
    {
      "midi": 77,
      "hit": false,
      "t": 30300,
      "d": 300,
      "v": 111
    },
    {
      "midi": 74,
      "hit": false,
      "t": 30600,
      "d": 300,
      "v": 115
    },
    {
      "midi": 77,
      "hit": false,
      "t": 30900,
      "d": 300,
      "v": 120
    },
    {
      "midi": 74,
      "hit": false,
      "t": 31200,
      "d": 300,
      "v": 106
    },
    {
      "midi": 57,
      "hit": false,
      "t": 31200,
      "d": 2400,
      "v": 108
    },
    {
      "midi": 60,
      "hit": false,
      "t": 31200,
      "d": 2400,
      "v": 107
    },
    {
      "midi": 65,
      "hit": false,
      "t": 31200,
      "d": 2400,
      "v": 88
    },
    {
      "midi": 72,
      "hit": false,
      "t": 31500,
      "d": 2100,
      "v": 117
    },
    {
      "midi": 57,
      "hit": false,
      "t": 33600,
      "d": 2400,
      "v": 96
    },
    {
      "midi": 60,
      "hit": false,
      "t": 33600,
      "d": 2400,
      "v": 83
    },
    {
      "midi": 65,
      "hit": false,
      "t": 33600,
      "d": 2400,
      "v": 111
    },
    {
      "midi": 74,
      "hit": false,
      "t": 34800,
      "d": 300,
      "v": 119
    },
    {
      "midi": 72,
      "hit": false,
      "t": 35100,
      "d": 300,
      "v": 116
    },
    {
      "midi": 69,
      "hit": false,
      "t": 35400,
      "d": 300,
      "v": 119
    },
    {
      "midi": 72,
      "hit": false,
      "t": 35700,
      "d": 300,
      "v": 108
    },
    {
      "midi": 69,
      "hit": false,
      "t": 36000,
      "d": 1200,
      "v": 116
    },
    {
      "midi": 57,
      "hit": false,
      "t": 36000,
      "d": 1200,
      "v": 100
    },
    {
      "midi": 60,
      "hit": false,
      "t": 36000,
      "d": 1200,
      "v": 127
    },
    {
      "midi": 62,
      "hit": false,
      "t": 36000,
      "d": 1200,
      "v": 87
    },
    {
      "midi": 65,
      "hit": false,
      "t": 36000,
      "d": 1200,
      "v": 96
    },
    {
      "midi": 67,
      "hit": false,
      "t": 37200,
      "d": 600,
      "v": 111
    },
    {
      "midi": 58,
      "hit": false,
      "t": 37200,
      "d": 600,
      "v": 96
    },
    {
      "midi": 60,
      "hit": false,
      "t": 37200,
      "d": 600,
      "v": 85
    },
    {
      "midi": 64,
      "hit": false,
      "t": 37200,
      "d": 600,
      "v": 89
    },
    {
      "midi": 67,
      "hit": false,
      "t": 37800,
      "d": 600,
      "v": 111
    },
    {
      "midi": 58,
      "hit": false,
      "t": 37800,
      "d": 600,
      "v": 122
    },
    {
      "midi": 60,
      "hit": false,
      "t": 37800,
      "d": 600,
      "v": 113
    },
    {
      "midi": 64,
      "hit": false,
      "t": 37800,
      "d": 600,
      "v": 105
    },
    {
      "midi": 57,
      "hit": false,
      "t": 38400,
      "d": 2400,
      "v": 118
    },
    {
      "midi": 60,
      "hit": false,
      "t": 38400,
      "d": 2400,
      "v": 89
    },
    {
      "midi": 65,
      "hit": false,
      "t": 38400,
      "d": 2400,
      "v": 95
    },
    {
      "midi": 57,
      "hit": false,
      "t": 40800,
      "d": 1200,
      "v": 120
    },
    {
      "midi": 60,
      "hit": false,
      "t": 40800,
      "d": 1200,
      "v": 101
    },
    {
      "midi": 64,
      "hit": false,
      "t": 40800,
      "d": 1200,
      "v": 88
    },
    {
      "midi": 57,
      "hit": false,
      "t": 42000,
      "d": 1200,
      "v": 127
    },
    {
      "midi": 62,
      "hit": false,
      "t": 42000,
      "d": 1200,
      "v": 116
    },
    {
      "midi": 65,
      "hit": false,
      "t": 42000,
      "d": 1200,
      "v": 97
    },
    {
      "midi": 58,
      "hit": false,
      "t": 43200,
      "d": 2400,
      "v": 110
    },
    {
      "midi": 62,
      "hit": false,
      "t": 43200,
      "d": 2400,
      "v": 103
    },
    {
      "midi": 67,
      "hit": false,
      "t": 43200,
      "d": 2400,
      "v": 100
    },
    {
      "midi": 60,
      "hit": false,
      "t": 45600,
      "d": 1200,
      "v": 83
    },
    {
      "midi": 64,
      "hit": false,
      "t": 45600,
      "d": 1200,
      "v": 101
    },
    {
      "midi": 67,
      "hit": false,
      "t": 45600,
      "d": 1200,
      "v": 109
    },
    {
      "midi": 60,
      "hit": false,
      "t": 46800,
      "d": 600,
      "v": 116
    },
    {
      "midi": 64,
      "hit": false,
      "t": 46800,
      "d": 600,
      "v": 119
    },
    {
      "midi": 67,
      "hit": false,
      "t": 46800,
      "d": 600,
      "v": 117
    },
    {
      "midi": 60,
      "hit": false,
      "t": 47400,
      "d": 600,
      "v": 98
    },
    {
      "midi": 64,
      "hit": false,
      "t": 47400,
      "d": 600,
      "v": 88
    },
    {
      "midi": 67,
      "hit": false,
      "t": 47400,
      "d": 600,
      "v": 88
    },
    {
      "midi": 57,
      "hit": false,
      "t": 48000,
      "d": 2400,
      "v": 97
    },
    {
      "midi": 60,
      "hit": false,
      "t": 48000,
      "d": 2400,
      "v": 109
    },
    {
      "midi": 65,
      "hit": false,
      "t": 48000,
      "d": 2400,
      "v": 116
    },
    {
      "midi": 58,
      "hit": false,
      "t": 50400,
      "d": 2400,
      "v": 105
    },
    {
      "midi": 60,
      "hit": false,
      "t": 50400,
      "d": 2400,
      "v": 108
    },
    {
      "midi": 64,
      "hit": false,
      "t": 50400,
      "d": 2400,
      "v": 116
    },
    {
      "midi": 57,
      "hit": false,
      "t": 52800,
      "d": 2400,
      "v": 116
    },
    {
      "midi": 60,
      "hit": false,
      "t": 52800,
      "d": 2400,
      "v": 106
    },
    {
      "midi": 65,
      "hit": false,
      "t": 52800,
      "d": 2400,
      "v": 106
    },
    {
      "midi": 60,
      "hit": false,
      "t": 54300,
      "d": 150,
      "v": 104
    },
    {
      "midi": 65,
      "hit": false,
      "t": 54300,
      "d": 150,
      "v": 104
    },
    {
      "midi": 67,
      "hit": false,
      "t": 54450,
      "d": 150,
      "v": 120
    },
    {
      "midi": 60,
      "hit": false,
      "t": 54600,
      "d": 300,
      "v": 122
    },
    {
      "midi": 65,
      "hit": false,
      "t": 54600,
      "d": 300,
      "v": 122
    },
    {
      "midi": 60,
      "hit": false,
      "t": 54900,
      "d": 150,
      "v": 110
    },
    {
      "midi": 64,
      "hit": false,
      "t": 54900,
      "d": 150,
      "v": 110
    },
    {
      "midi": 65,
      "hit": false,
      "t": 55050,
      "d": 150,
      "v": 121
    },
    {
      "midi": 57,
      "hit": false,
      "t": 55200,
      "d": 1200,
      "v": 88
    },
    {
      "midi": 60,
      "hit": false,
      "t": 55200,
      "d": 1200,
      "v": 109
    },
    {
      "midi": 65,
      "hit": false,
      "t": 55200,
      "d": 1200,
      "v": 119
    },
    {
      "midi": 55,
      "hit": false,
      "t": 56400,
      "d": 600,
      "v": 91
    },
    {
      "midi": 60,
      "hit": false,
      "t": 56400,
      "d": 600,
      "v": 119
    },
    {
      "midi": 64,
      "hit": false,
      "t": 56400,
      "d": 600,
      "v": 112
    },
    {
      "midi": 55,
      "hit": false,
      "t": 57000,
      "d": 600,
      "v": 99
    },
    {
      "midi": 60,
      "hit": false,
      "t": 57000,
      "d": 600,
      "v": 126
    },
    {
      "midi": 64,
      "hit": false,
      "t": 57000,
      "d": 600,
      "v": 98
    },
    {
      "midi": 57,
      "hit": false,
      "t": 57600,
      "d": 2400,
      "v": 125
    },
    {
      "midi": 60,
      "hit": false,
      "t": 57600,
      "d": 2400,
      "v": 122
    },
    {
      "midi": 65,
      "hit": false,
      "t": 57600,
      "d": 2400,
      "v": 125
    },
    {
      "midi": 57,
      "hit": false,
      "t": 60000,
      "d": 2400,
      "v": 113
    },
    {
      "midi": 60,
      "hit": false,
      "t": 60000,
      "d": 2400,
      "v": 98
    },
    {
      "midi": 64,
      "hit": false,
      "t": 60000,
      "d": 2400,
      "v": 98
    },
    {
      "midi": 58,
      "hit": false,
      "t": 62400,
      "d": 2400,
      "v": 84
    },
    {
      "midi": 62,
      "hit": false,
      "t": 62400,
      "d": 2400,
      "v": 90
    },
    {
      "midi": 65,
      "hit": false,
      "t": 62400,
      "d": 2400,
      "v": 123
    },
    {
      "midi": 58,
      "hit": false,
      "t": 64800,
      "d": 1200,
      "v": 86
    },
    {
      "midi": 62,
      "hit": false,
      "t": 64800,
      "d": 1200,
      "v": 110
    },
    {
      "midi": 67,
      "hit": false,
      "t": 64800,
      "d": 1200,
      "v": 114
    },
    {
      "midi": 58,
      "hit": false,
      "t": 66000,
      "d": 1200,
      "v": 94
    },
    {
      "midi": 62,
      "hit": false,
      "t": 66000,
      "d": 1200,
      "v": 95
    },
    {
      "midi": 67,
      "hit": false,
      "t": 66000,
      "d": 1200,
      "v": 122
    },
    {
      "midi": 57,
      "hit": false,
      "t": 67200,
      "d": 2400,
      "v": 99
    },
    {
      "midi": 60,
      "hit": false,
      "t": 67200,
      "d": 2400,
      "v": 125
    },
    {
      "midi": 65,
      "hit": false,
      "t": 67200,
      "d": 2400,
      "v": 87
    },
    {
      "midi": 65,
      "hit": false,
      "t": 67500,
      "d": 300,
      "v": 103
    },
    {
      "midi": 72,
      "hit": false,
      "t": 67800,
      "d": 1800,
      "v": 115
    },
    {
      "midi": 57,
      "hit": false,
      "t": 69600,
      "d": 2400,
      "v": 106
    },
    {
      "midi": 60,
      "hit": false,
      "t": 69600,
      "d": 2400,
      "v": 93
    },
    {
      "midi": 65,
      "hit": false,
      "t": 69600,
      "d": 2400,
      "v": 105
    },
    {
      "midi": 69,
      "hit": false,
      "t": 70200,
      "d": 300,
      "v": 104
    },
    {
      "midi": 65,
      "hit": false,
      "t": 70500,
      "d": 300,
      "v": 107
    },
    {
      "midi": 69,
      "hit": false,
      "t": 70800,
      "d": 1200,
      "v": 122
    },
    {
      "midi": 57,
      "hit": false,
      "t": 72000,
      "d": 2400,
      "v": 87
    },
    {
      "midi": 62,
      "hit": false,
      "t": 72000,
      "d": 2400,
      "v": 110
    },
    {
      "midi": 65,
      "hit": false,
      "t": 72000,
      "d": 2400,
      "v": 122
    },
    {
      "midi": 62,
      "hit": false,
      "t": 72300,
      "d": 300,
      "v": 118
    },
    {
      "midi": 65,
      "hit": false,
      "t": 72600,
      "d": 300,
      "v": 124
    },
    {
      "midi": 62,
      "hit": false,
      "t": 72900,
      "d": 300,
      "v": 121
    },
    {
      "midi": 69,
      "hit": false,
      "t": 73200,
      "d": 300,
      "v": 103
    },
    {
      "midi": 62,
      "hit": false,
      "t": 73500,
      "d": 300,
      "v": 111
    },
    {
      "midi": 65,
      "hit": false,
      "t": 73800,
      "d": 300,
      "v": 117
    },
    {
      "midi": 62,
      "hit": false,
      "t": 74100,
      "d": 300,
      "v": 118
    },
    {
      "midi": 67,
      "hit": false,
      "t": 74400,
      "d": 1200,
      "v": 117
    },
    {
      "midi": 58,
      "hit": false,
      "t": 74400,
      "d": 1200,
      "v": 85
    },
    {
      "midi": 62,
      "hit": false,
      "t": 74400,
      "d": 1200,
      "v": 112
    },
    {
      "midi": 67,
      "hit": false,
      "t": 74400,
      "d": 1200,
      "v": 127
    },
    {
      "midi": 60,
      "hit": false,
      "t": 75600,
      "d": 1200,
      "v": 112
    },
    {
      "midi": 72,
      "hit": false,
      "t": 75600,
      "d": 1200,
      "v": 108
    },
    {
      "midi": 58,
      "hit": false,
      "t": 75600,
      "d": 1200,
      "v": 104
    },
    {
      "midi": 60,
      "hit": false,
      "t": 75600,
      "d": 1200,
      "v": 96
    },
    {
      "midi": 64,
      "hit": false,
      "t": 75600,
      "d": 1200,
      "v": 120
    },
    {
      "midi": 57,
      "hit": false,
      "t": 76800,
      "d": 2400,
      "v": 94
    },
    {
      "midi": 60,
      "hit": false,
      "t": 76800,
      "d": 2400,
      "v": 90
    },
    {
      "midi": 65,
      "hit": false,
      "t": 76800,
      "d": 2400,
      "v": 122
    },
    {
      "midi": 57,
      "hit": false,
      "t": 79200,
      "d": 2400,
      "v": 126
    },
    {
      "midi": 60,
      "hit": false,
      "t": 79200,
      "d": 2400,
      "v": 108
    },
    {
      "midi": 65,
      "hit": false,
      "t": 79200,
      "d": 2400,
      "v": 125
    },
    {
      "midi": 58,
      "hit": false,
      "t": 81600,
      "d": 2400,
      "v": 115
    },
    {
      "midi": 62,
      "hit": false,
      "t": 81600,
      "d": 2400,
      "v": 92
    },
    {
      "midi": 65,
      "hit": false,
      "t": 81600,
      "d": 2400,
      "v": 99
    },
    {
      "midi": 79,
      "hit": false,
      "t": 82800,
      "d": 300,
      "v": 111
    },
    {
      "midi": 77,
      "hit": false,
      "t": 83100,
      "d": 300,
      "v": 122
    },
    {
      "midi": 74,
      "hit": false,
      "t": 83400,
      "d": 300,
      "v": 111
    },
    {
      "midi": 77,
      "hit": false,
      "t": 83700,
      "d": 300,
      "v": 103
    },
    {
      "midi": 74,
      "hit": false,
      "t": 84000,
      "d": 2400,
      "v": 120
    },
    {
      "midi": 58,
      "hit": false,
      "t": 84000,
      "d": 2400,
      "v": 121
    },
    {
      "midi": 62,
      "hit": false,
      "t": 84000,
      "d": 2400,
      "v": 111
    },
    {
      "midi": 65,
      "hit": false,
      "t": 84000,
      "d": 2400,
      "v": 116
    },
    {
      "midi": 57,
      "hit": false,
      "t": 86400,
      "d": 2400,
      "v": 107
    },
    {
      "midi": 60,
      "hit": false,
      "t": 86400,
      "d": 2400,
      "v": 123
    },
    {
      "midi": 65,
      "hit": false,
      "t": 86400,
      "d": 2400,
      "v": 108
    },
    {
      "midi": 79,
      "hit": false,
      "t": 87600,
      "d": 300,
      "v": 113
    },
    {
      "midi": 77,
      "hit": false,
      "t": 87900,
      "d": 300,
      "v": 107
    },
    {
      "midi": 74,
      "hit": false,
      "t": 88200,
      "d": 300,
      "v": 121
    },
    {
      "midi": 77,
      "hit": false,
      "t": 88500,
      "d": 300,
      "v": 118
    },
    {
      "midi": 74,
      "hit": false,
      "t": 88800,
      "d": 300,
      "v": 114
    },
    {
      "midi": 57,
      "hit": false,
      "t": 88800,
      "d": 2400,
      "v": 125
    },
    {
      "midi": 60,
      "hit": false,
      "t": 88800,
      "d": 2400,
      "v": 106
    },
    {
      "midi": 65,
      "hit": false,
      "t": 88800,
      "d": 2400,
      "v": 95
    },
    {
      "midi": 72,
      "hit": false,
      "t": 89100,
      "d": 2100,
      "v": 115
    },
    {
      "midi": 57,
      "hit": false,
      "t": 91200,
      "d": 2400,
      "v": 99
    },
    {
      "midi": 60,
      "hit": false,
      "t": 91200,
      "d": 2400,
      "v": 116
    },
    {
      "midi": 65,
      "hit": false,
      "t": 91200,
      "d": 2400,
      "v": 119
    },
    {
      "midi": 74,
      "hit": false,
      "t": 92400,
      "d": 300,
      "v": 113
    },
    {
      "midi": 72,
      "hit": false,
      "t": 92700,
      "d": 300,
      "v": 107
    },
    {
      "midi": 69,
      "hit": false,
      "t": 93000,
      "d": 300,
      "v": 117
    },
    {
      "midi": 72,
      "hit": false,
      "t": 93300,
      "d": 300,
      "v": 112
    },
    {
      "midi": 69,
      "hit": false,
      "t": 93600,
      "d": 1200,
      "v": 127
    },
    {
      "midi": 57,
      "hit": false,
      "t": 93600,
      "d": 1200,
      "v": 91
    },
    {
      "midi": 60,
      "hit": false,
      "t": 93600,
      "d": 1200,
      "v": 107
    },
    {
      "midi": 62,
      "hit": false,
      "t": 93600,
      "d": 1200,
      "v": 83
    },
    {
      "midi": 65,
      "hit": false,
      "t": 93600,
      "d": 1200,
      "v": 104
    },
    {
      "midi": 58,
      "hit": false,
      "t": 94800,
      "d": 600,
      "v": 112
    },
    {
      "midi": 60,
      "hit": false,
      "t": 94800,
      "d": 600,
      "v": 112
    },
    {
      "midi": 64,
      "hit": false,
      "t": 94800,
      "d": 600,
      "v": 115
    },
    {
      "midi": 67,
      "hit": false,
      "t": 95400,
      "d": 600,
      "v": 90
    },
    {
      "midi": 58,
      "hit": false,
      "t": 95400,
      "d": 600,
      "v": 92
    },
    {
      "midi": 60,
      "hit": false,
      "t": 95400,
      "d": 600,
      "v": 85
    },
    {
      "midi": 64,
      "hit": false,
      "t": 95400,
      "d": 600,
      "v": 92
    },
    {
      "midi": 57,
      "hit": false,
      "t": 96000,
      "d": 2400,
      "v": 119
    },
    {
      "midi": 60,
      "hit": false,
      "t": 96000,
      "d": 2400,
      "v": 98
    },
    {
      "midi": 65,
      "hit": false,
      "t": 96000,
      "d": 2400,
      "v": 85
    },
    {
      "midi": 57,
      "hit": false,
      "t": 98400,
      "d": 1200,
      "v": 124
    },
    {
      "midi": 60,
      "hit": false,
      "t": 98400,
      "d": 1200,
      "v": 120
    },
    {
      "midi": 64,
      "hit": false,
      "t": 98400,
      "d": 1200,
      "v": 107
    },
    {
      "midi": 57,
      "hit": false,
      "t": 99600,
      "d": 1200,
      "v": 110
    },
    {
      "midi": 62,
      "hit": false,
      "t": 99600,
      "d": 1200,
      "v": 87
    },
    {
      "midi": 65,
      "hit": false,
      "t": 99600,
      "d": 1200,
      "v": 94
    },
    {
      "midi": 58,
      "hit": false,
      "t": 100800,
      "d": 2400,
      "v": 111
    },
    {
      "midi": 62,
      "hit": false,
      "t": 100800,
      "d": 2400,
      "v": 121
    },
    {
      "midi": 67,
      "hit": false,
      "t": 100800,
      "d": 2400,
      "v": 122
    },
    {
      "midi": 60,
      "hit": false,
      "t": 103200,
      "d": 1200,
      "v": 92
    },
    {
      "midi": 64,
      "hit": false,
      "t": 103200,
      "d": 1200,
      "v": 126
    },
    {
      "midi": 67,
      "hit": false,
      "t": 103200,
      "d": 1200,
      "v": 111
    },
    {
      "midi": 60,
      "hit": false,
      "t": 104400,
      "d": 600,
      "v": 124
    },
    {
      "midi": 64,
      "hit": false,
      "t": 104400,
      "d": 600,
      "v": 95
    },
    {
      "midi": 67,
      "hit": false,
      "t": 104400,
      "d": 600,
      "v": 94
    },
    {
      "midi": 60,
      "hit": false,
      "t": 105000,
      "d": 600,
      "v": 103
    },
    {
      "midi": 64,
      "hit": false,
      "t": 105000,
      "d": 600,
      "v": 91
    },
    {
      "midi": 67,
      "hit": false,
      "t": 105000,
      "d": 600,
      "v": 120
    },
    {
      "midi": 57,
      "hit": false,
      "t": 105600,
      "d": 2400,
      "v": 111
    },
    {
      "midi": 60,
      "hit": false,
      "t": 105600,
      "d": 2400,
      "v": 103
    },
    {
      "midi": 65,
      "hit": false,
      "t": 105600,
      "d": 2400,
      "v": 104
    },
    {
      "midi": 58,
      "hit": false,
      "t": 108000,
      "d": 2400,
      "v": 113
    },
    {
      "midi": 60,
      "hit": false,
      "t": 108000,
      "d": 2400,
      "v": 102
    },
    {
      "midi": 64,
      "hit": false,
      "t": 108000,
      "d": 2400,
      "v": 92
    },
    {
      "midi": 57,
      "hit": false,
      "t": 110400,
      "d": 2400,
      "v": 116
    },
    {
      "midi": 60,
      "hit": false,
      "t": 110400,
      "d": 2400,
      "v": 116
    },
    {
      "midi": 65,
      "hit": false,
      "t": 110400,
      "d": 2400,
      "v": 101
    },
    {
      "midi": 65,
      "hit": false,
      "t": 111900,
      "d": 150,
      "v": 108
    },
    {
      "midi": 67,
      "hit": false,
      "t": 112050,
      "d": 150,
      "v": 109
    },
    {
      "midi": 65,
      "hit": false,
      "t": 112200,
      "d": 300,
      "v": 125
    },
    {
      "midi": 64,
      "hit": false,
      "t": 112500,
      "d": 150,
      "v": 113
    },
    {
      "midi": 65,
      "hit": false,
      "t": 112650,
      "d": 150,
      "v": 127
    },
    {
      "midi": 57,
      "hit": false,
      "t": 112800,
      "d": 1200,
      "v": 109
    },
    {
      "midi": 60,
      "hit": false,
      "t": 112800,
      "d": 1200,
      "v": 89
    },
    {
      "midi": 65,
      "hit": false,
      "t": 112800,
      "d": 1200,
      "v": 90
    },
    {
      "midi": 55,
      "hit": false,
      "t": 114000,
      "d": 600,
      "v": 107
    },
    {
      "midi": 60,
      "hit": false,
      "t": 114000,
      "d": 600,
      "v": 127
    },
    {
      "midi": 64,
      "hit": false,
      "t": 114000,
      "d": 600,
      "v": 106
    },
    {
      "midi": 55,
      "hit": false,
      "t": 114600,
      "d": 600,
      "v": 118
    },
    {
      "midi": 60,
      "hit": false,
      "t": 114600,
      "d": 600,
      "v": 100
    },
    {
      "midi": 64,
      "hit": false,
      "t": 114600,
      "d": 600,
      "v": 110
    },
    {
      "midi": 57,
      "hit": false,
      "t": 115200,
      "d": 2400,
      "v": 101
    },
    {
      "midi": 60,
      "hit": false,
      "t": 115200,
      "d": 2400,
      "v": 99
    },
    {
      "midi": 65,
      "hit": false,
      "t": 115200,
      "d": 2400,
      "v": 116
    },
    {
      "midi": 57,
      "hit": false,
      "t": 117600,
      "d": 2400,
      "v": 84
    },
    {
      "midi": 60,
      "hit": false,
      "t": 117600,
      "d": 2400,
      "v": 107
    },
    {
      "midi": 64,
      "hit": false,
      "t": 117600,
      "d": 2400,
      "v": 103
    },
    {
      "midi": 58,
      "hit": false,
      "t": 120000,
      "d": 2400,
      "v": 91
    },
    {
      "midi": 62,
      "hit": false,
      "t": 120000,
      "d": 2400,
      "v": 85
    },
    {
      "midi": 65,
      "hit": false,
      "t": 120000,
      "d": 2400,
      "v": 87
    },
    {
      "midi": 58,
      "hit": false,
      "t": 122400,
      "d": 1200,
      "v": 116
    },
    {
      "midi": 62,
      "hit": false,
      "t": 122400,
      "d": 1200,
      "v": 89
    },
    {
      "midi": 67,
      "hit": false,
      "t": 122400,
      "d": 1200,
      "v": 88
    },
    {
      "midi": 58,
      "hit": false,
      "t": 123600,
      "d": 1200,
      "v": 94
    },
    {
      "midi": 62,
      "hit": false,
      "t": 123600,
      "d": 1200,
      "v": 126
    },
    {
      "midi": 67,
      "hit": false,
      "t": 123600,
      "d": 1200,
      "v": 126
    },
    {
      "midi": 57,
      "hit": false,
      "t": 124800,
      "d": 2400,
      "v": 95
    },
    {
      "midi": 60,
      "hit": false,
      "t": 124800,
      "d": 2400,
      "v": 89
    },
    {
      "midi": 65,
      "hit": false,
      "t": 124800,
      "d": 2400,
      "v": 88
    },
    {
      "midi": 57,
      "hit": false,
      "t": 127200,
      "d": 2400,
      "v": 89
    },
    {
      "midi": 62,
      "hit": false,
      "t": 127200,
      "d": 2400,
      "v": 96
    },
    {
      "midi": 65,
      "hit": false,
      "t": 127200,
      "d": 2400,
      "v": 113
    },
    {
      "midi": 58,
      "hit": false,
      "t": 129600,
      "d": 1200,
      "v": 117
    },
    {
      "midi": 62,
      "hit": false,
      "t": 129600,
      "d": 1200,
      "v": 84
    },
    {
      "midi": 67,
      "hit": false,
      "t": 129600,
      "d": 1200,
      "v": 125
    },
    {
      "midi": 58,
      "hit": false,
      "t": 130800,
      "d": 1200,
      "v": 87
    },
    {
      "midi": 60,
      "hit": false,
      "t": 130800,
      "d": 1200,
      "v": 97
    },
    {
      "midi": 64,
      "hit": false,
      "t": 130800,
      "d": 1200,
      "v": 94
    },
    {
      "midi": 57,
      "hit": false,
      "t": 132000,
      "d": 4800,
      "v": 105
    },
    {
      "midi": 60,
      "hit": false,
      "t": 132000,
      "d": 4800,
      "v": 115
    },
    {
      "midi": 65,
      "hit": false,
      "t": 132000,
      "d": 4800,
      "v": 98
    }
  ]
}