{
  "jsonPath": "Latin/Latin/Marisela/por-tus-mentiras.json",
  "path": "Latin\\Latin\\Marisela\\Por Tus Mentiras.mid",
  "name": "Por Tus Mentiras",
  "difficulty": "Advanced",
  "bpm": 89.00175630132435,
  "notes": [
    {
      "midi": 62,
      "hit": false,
      "t": 17777.76,
      "d": 2756.9416875000024,
      "v": 42
    },
    {
      "midi": 66,
      "hit": false,
      "t": 17777.76,
      "d": 4423.606687500003,
      "v": 44
    },
    {
      "midi": 69,
      "hit": false,
      "t": 17777.76,
      "d": 4423.606687500003,
      "v": 45
    },
    {
      "midi": 57,
      "hit": false,
      "t": 19444.425,
      "d": 2756.9416875000024,
      "v": 96
    },
    {
      "midi": 62,
      "hit": false,
      "t": 20555.535,
      "d": 1534.720687500001,
      "v": 95
    },
    {
      "midi": 59,
      "hit": false,
      "t": 22006.9224375,
      "d": 2247.6829375000016,
      "v": 74
    },
    {
      "midi": 62,
      "hit": false,
      "t": 22106.459375000002,
      "d": 94.90731249999953,
      "v": 81
    },
    {
      "midi": 67,
      "hit": false,
      "t": 22199.051875,
      "d": 2027.7757500000007,
      "v": 91
    },
    {
      "midi": 61,
      "hit": false,
      "t": 24432.845937500002,
      "d": 986.1101249999992,
      "v": 72
    },
    {
      "midi": 64,
      "hit": false,
      "t": 24444.420000000002,
      "d": 956.0175625000011,
      "v": 80
    },
    {
      "midi": 69,
      "hit": false,
      "t": 24444.420000000002,
      "d": 956.0175625000011,
      "v": 95
    },
    {
      "midi": 62,
      "hit": false,
      "t": 25578.678125000002,
      "d": 1071.7581874999996,
      "v": 63
    },
    {
      "midi": 67,
      "hit": false,
      "t": 25578.678125000002,
      "d": 1071.7581874999996,
      "v": 89
    },
    {
      "midi": 59,
      "hit": false,
      "t": 25590.252187500002,
      "d": 1060.1841249999998,
      "v": 66
    },
    {
      "midi": 57,
      "hit": false,
      "t": 26655.065937500003,
      "d": 1541.6651249999995,
      "v": 68
    },
    {
      "midi": 62,
      "hit": false,
      "t": 26671.269625000004,
      "d": 2101.849750000001,
      "v": 86
    },
    {
      "midi": 66,
      "hit": false,
      "t": 26671.269625000004,
      "d": 2953.70075,
      "v": 91
    },
    {
      "midi": 57,
      "hit": false,
      "t": 28333.305000000004,
      "d": 3868.051687500003,
      "v": 77
    },
    {
      "midi": 62,
      "hit": false,
      "t": 29444.415000000005,
      "d": 1645.8316875000019,
      "v": 56
    },
    {
      "midi": 66,
      "hit": false,
      "t": 29999.970000000005,
      "d": 1090.2766875000016,
      "v": 75
    },
    {
      "midi": 62,
      "hit": false,
      "t": 31111.080000000005,
      "d": 1090.2766875000016,
      "v": 71
    },
    {
      "midi": 66,
      "hit": false,
      "t": 31111.080000000005,
      "d": 1090.2766875000016,
      "v": 65
    },
    {
      "midi": 57,
      "hit": false,
      "t": 35555.520000000004,
      "d": 2756.9416875000024,
      "v": 66
    },
    {
      "midi": 50,
      "hit": false,
      "t": 35555.520000000004,
      "d": 4423.606687500003,
      "v": 60
    },
    {
      "midi": 62,
      "hit": false,
      "t": 35555.520000000004,
      "d": 7756.936687500005,
      "v": 66
    },
    {
      "midi": 57,
      "hit": false,
      "t": 38333.295000000006,
      "d": 534.7216875000013,
      "v": 65
    },
    {
      "midi": 69,
      "hit": false,
      "t": 38888.850000000006,
      "d": 4423.606687500003,
      "v": 83
    },
    {
      "midi": 57,
      "hit": false,
      "t": 39444.405000000006,
      "d": 2756.9416875000024,
      "v": 43
    },
    {
      "midi": 50,
      "hit": false,
      "t": 39999.96000000001,
      "d": 3312.4966875000027,
      "v": 54
    },
    {
      "midi": 57,
      "hit": false,
      "t": 42777.73500000001,
      "d": 534.7216875000013,
      "v": 47
    },
    {
      "midi": 59,
      "hit": false,
      "t": 43333.29000000001,
      "d": 1090.2766875000016,
      "v": 78
    },
    {
      "midi": 67,
      "hit": false,
      "t": 43333.29000000001,
      "d": 1090.2766875000016,
      "v": 92
    },
    {
      "midi": 64,
      "hit": false,
      "t": 44444.40000000001,
      "d": 2756.9416875000024,
      "v": 91
    },
    {
      "midi": 69,
      "hit": false,
      "t": 44444.40000000001,
      "d": 2756.9416875000024,
      "v": 91
    },
    {
      "midi": 57,
      "hit": false,
      "t": 46111.06500000001,
      "d": 1090.2766875000016,
      "v": 59
    },
    {
      "midi": 57,
      "hit": false,
      "t": 47222.17500000001,
      "d": 534.7216875000013,
      "v": 63
    },
    {
      "midi": 59,
      "hit": false,
      "t": 47777.73000000001,
      "d": 534.7216875000013,
      "v": 93
    },
    {
      "midi": 64,
      "hit": false,
      "t": 47777.73000000001,
      "d": 1645.8316875000019,
      "v": 91
    },
    {
      "midi": 61,
      "hit": false,
      "t": 48333.28500000001,
      "d": 1090.2766875000016,
      "v": 71
    },
    {
      "midi": 61,
      "hit": false,
      "t": 49444.39500000001,
      "d": 2201.386687500002,
      "v": 81
    },
    {
      "midi": 64,
      "hit": false,
      "t": 49444.39500000001,
      "d": 2201.386687500002,
      "v": 87
    },
    {
      "midi": 57,
      "hit": false,
      "t": 50555.50500000001,
      "d": 534.7216875000013,
      "v": 85
    },
    {
      "midi": 57,
      "hit": false,
      "t": 51666.61500000001,
      "d": 534.7216875000013,
      "v": 65
    },
    {
      "midi": 54,
      "hit": false,
      "t": 52222.17000000001,
      "d": 1090.2766875000016,
      "v": 71
    },
    {
      "midi": 62,
      "hit": false,
      "t": 52222.17000000001,
      "d": 1090.2766875000016,
      "v": 83
    },
    {
      "midi": 55,
      "hit": false,
      "t": 53333.28000000001,
      "d": 1645.8316875000019,
      "v": 63
    },
    {
      "midi": 59,
      "hit": false,
      "t": 53333.28000000001,
      "d": 1645.8316875000019,
      "v": 63
    },
    {
      "midi": 62,
      "hit": false,
      "t": 53333.28000000001,
      "d": 2201.386687500002,
      "v": 67
    },
    {
      "midi": 55,
      "hit": false,
      "t": 54999.945000000014,
      "d": 2756.9416875000024,
      "v": 74
    },
    {
      "midi": 59,
      "hit": false,
      "t": 55555.500000000015,
      "d": 2201.386687500002,
      "v": 49
    },
    {
      "midi": 71,
      "hit": false,
      "t": 56111.055000000015,
      "d": 1090.2766875000016,
      "v": 107
    },
    {
      "midi": 62,
      "hit": false,
      "t": 56111.055000000015,
      "d": 1645.8316875000019,
      "v": 80
    },
    {
      "midi": 45,
      "hit": false,
      "t": 57777.720000000016,
      "d": 4423.606687500003,
      "v": 83
    },
    {
      "midi": 52,
      "hit": false,
      "t": 57777.720000000016,
      "d": 4423.606687500003,
      "v": 80
    },
    {
      "midi": 57,
      "hit": false,
      "t": 59444.38500000002,
      "d": 2756.9416875000024,
      "v": 60
    },
    {
      "midi": 61,
      "hit": false,
      "t": 59999.94000000002,
      "d": 1090.2766875000016,
      "v": 33
    },
    {
      "midi": 69,
      "hit": false,
      "t": 60555.49500000002,
      "d": 1645.8316875000019,
      "v": 102
    },
    {
      "midi": 64,
      "hit": false,
      "t": 61111.05000000002,
      "d": 1090.2766875000016,
      "v": 67
    },
    {
      "midi": 61,
      "hit": false,
      "t": 61666.60500000002,
      "d": 534.7216875000013,
      "v": 57
    },
    {
      "midi": 38,
      "hit": false,
      "t": 62222.16000000002,
      "d": 4423.606687500025,
      "v": 89
    },
    {
      "midi": 50,
      "hit": false,
      "t": 62777.71500000002,
      "d": 2756.9416875000024,
      "v": 68
    },
    {
      "midi": 57,
      "hit": false,
      "t": 63333.27000000002,
      "d": 534.7216875000013,
      "v": 68
    },
    {
      "midi": 62,
      "hit": false,
      "t": 63888.82500000002,
      "d": 1645.8316875000019,
      "v": 77
    },
    {
      "midi": 57,
      "hit": false,
      "t": 64444.38000000002,
      "d": 1090.2766875000016,
      "v": 54
    },
    {
      "midi": 69,
      "hit": false,
      "t": 64999.93500000002,
      "d": 534.7216875000013,
      "v": 66
    },
    {
      "midi": 66,
      "hit": false,
      "t": 65555.49000000002,
      "d": 256.9441875000048,
      "v": 105
    },
    {
      "midi": 64,
      "hit": false,
      "t": 65833.26750000003,
      "d": 256.9441875000048,
      "v": 73
    },
    {
      "midi": 62,
      "hit": false,
      "t": 66111.04500000004,
      "d": 534.7216875000013,
      "v": 77
    },
    {
      "midi": 52,
      "hit": false,
      "t": 66666.60000000005,
      "d": 4145.8291874999995,
      "v": 75
    },
    {
      "midi": 57,
      "hit": false,
      "t": 66666.60000000005,
      "d": 4145.8291874999995,
      "v": 87
    },
    {
      "midi": 61,
      "hit": false,
      "t": 66666.60000000005,
      "d": 4145.8291874999995,
      "v": 91
    },
    {
      "midi": 50,
      "hit": false,
      "t": 71111.04000000005,
      "d": 3868.0516874999885,
      "v": 80
    },
    {
      "midi": 57,
      "hit": false,
      "t": 71666.59500000004,
      "d": 3312.4966874999955,
      "v": 65
    },
    {
      "midi": 62,
      "hit": false,
      "t": 72222.15000000004,
      "d": 1645.8316875000019,
      "v": 73
    },
    {
      "midi": 64,
      "hit": false,
      "t": 73333.26000000004,
      "d": 1090.2766874999943,
      "v": 74
    },
    {
      "midi": 66,
      "hit": false,
      "t": 74444.37000000004,
      "d": 534.7216875000013,
      "v": 71
    },
    {
      "midi": 76,
      "hit": false,
      "t": 74999.92500000005,
      "d": 534.7216875000013,
      "v": 62
    },
    {
      "midi": 78,
      "hit": false,
      "t": 74999.92500000005,
      "d": 3868.0516874999885,
      "v": 50
    },
    {
      "midi": 81,
      "hit": false,
      "t": 74999.92500000005,
      "d": 3868.0516874999885,
      "v": 71
    },
    {
      "midi": 76,
      "hit": false,
      "t": 75555.48000000005,
      "d": 3312.496687499981,
      "v": 81
    },
    {
      "midi": 74,
      "hit": false,
      "t": 76111.03500000005,
      "d": 2756.941687499988,
      "v": 57
    },
    {
      "midi": 69,
      "hit": false,
      "t": 76666.59000000004,
      "d": 1090.2766874999943,
      "v": 84
    },
    {
      "midi": 69,
      "hit": false,
      "t": 78333.25500000003,
      "d": 534.7216875000013,
      "v": 43
    },
    {
      "midi": 59,
      "hit": false,
      "t": 78888.81000000004,
      "d": 1090.2766874999943,
      "v": 81
    },
    {
      "midi": 67,
      "hit": false,
      "t": 78888.81000000004,
      "d": 1090.2766874999943,
      "v": 92
    },
    {
      "midi": 45,
      "hit": false,
      "t": 79999.92000000004,
      "d": 7756.936687500012,
      "v": 79
    },
    {
      "midi": 52,
      "hit": false,
      "t": 79999.92000000004,
      "d": 7756.936687500012,
      "v": 78
    },
    {
      "midi": 64,
      "hit": false,
      "t": 80555.47500000003,
      "d": 1090.2766874999943,
      "v": 67
    },
    {
      "midi": 69,
      "hit": false,
      "t": 81111.03000000003,
      "d": 534.7216875000013,
      "v": 37
    },
    {
      "midi": 64,
      "hit": false,
      "t": 81666.58500000004,
      "d": 1645.8316874999873,
      "v": 61
    },
    {
      "midi": 71,
      "hit": false,
      "t": 82180.47337500003,
      "d": 2027.7757500000007,
      "v": 92
    },
    {
      "midi": 76,
      "hit": false,
      "t": 82180.47337500003,
      "d": 5488.420437500026,
      "v": 92
    },
    {
      "midi": 73,
      "hit": false,
      "t": 82747.60243750003,
      "d": 3636.5704375000205,
      "v": 57
    },
    {
      "midi": 69,
      "hit": false,
      "t": 83333.25000000003,
      "d": 1743.053812500002,
      "v": 50
    },
    {
      "midi": 64,
      "hit": false,
      "t": 83951.30493750003,
      "d": 766.2029374999984,
      "v": 36
    },
    {
      "midi": 71,
      "hit": false,
      "t": 84479.08218750003,
      "d": 3201.3856875000347,
      "v": 42
    },
    {
      "midi": 64,
      "hit": false,
      "t": 84958.24837500002,
      "d": 673.6104375000141,
      "v": 54
    },
    {
      "midi": 69,
      "hit": false,
      "t": 85560.09962500003,
      "d": 2120.3682500000286,
      "v": 81
    },
    {
      "midi": 64,
      "hit": false,
      "t": 86127.22868750004,
      "d": 766.2029375000129,
      "v": 48
    },
    {
      "midi": 73,
      "hit": false,
      "t": 86597.13562500005,
      "d": 1071.7581875000033,
      "v": 57
    },
    {
      "midi": 64,
      "hit": false,
      "t": 87175.83875000005,
      "d": 534.7216875000013,
      "v": 43
    },
    {
      "midi": 50,
      "hit": false,
      "t": 87777.69000000006,
      "d": 1090.2766874999943,
      "v": 75
    },
    {
      "midi": 54,
      "hit": false,
      "t": 87777.69000000006,
      "d": 1090.2766874999943,
      "v": 65
    },
    {
      "midi": 57,
      "hit": false,
      "t": 87777.69000000006,
      "d": 1090.2766874999943,
      "v": 87
    },
    {
      "midi": 50,
      "hit": false,
      "t": 88888.80000000006,
      "d": 1645.8316875000019,
      "v": 67
    },
    {
      "midi": 55,
      "hit": false,
      "t": 88888.80000000006,
      "d": 1645.8316875000019,
      "v": 74
    },
    {
      "midi": 59,
      "hit": false,
      "t": 88888.80000000006,
      "d": 1645.8316875000019,
      "v": 72
    },
    {
      "midi": 67,
      "hit": false,
      "t": 90555.46500000007,
      "d": 1090.2766874999943,
      "v": 75
    },
    {
      "midi": 71,
      "hit": false,
      "t": 90555.46500000007,
      "d": 2756.941687499988,
      "v": 81
    },
    {
      "midi": 67,
      "hit": false,
      "t": 91666.57500000007,
      "d": 1645.8316874999873,
      "v": 43
    },
    {
      "midi": 79,
      "hit": false,
      "t": 92222.13000000006,
      "d": 1090.2766874999943,
      "v": 63
    },
    {
      "midi": 57,
      "hit": false,
      "t": 93333.24000000006,
      "d": 1645.8316875000019,
      "v": 68
    },
    {
      "midi": 61,
      "hit": false,
      "t": 93333.24000000006,
      "d": 4423.606687499996,
      "v": 66
    },
    {
      "midi": 64,
      "hit": false,
      "t": 93333.24000000006,
      "d": 4423.606687499996,
      "v": 72
    },
    {
      "midi": 52,
      "hit": false,
      "t": 94999.905,
      "d": 546.2957500000048,
      "v": 1
    },
    {
      "midi": 57,
      "hit": false,
      "t": 94999.90500000007,
      "d": 1090.2766874999943,
      "v": 60
    },
    {
      "midi": 57,
      "hit": false,
      "t": 95555.46,
      "d": 1657.4057500000054,
      "v": 1
    },
    {
      "midi": 57,
      "hit": false,
      "t": 96111.01500000007,
      "d": 1645.8316874999873,
      "v": 44
    },
    {
      "midi": 67,
      "hit": false,
      "t": 96666.57000000007,
      "d": 1090.2766874999943,
      "v": 92
    },
    {
      "midi": 55,
      "hit": false,
      "t": 97222.12500000001,
      "d": 546.2957500000048,
      "v": 1
    },
    {
      "midi": 54,
      "hit": false,
      "t": 97777.68000000002,
      "d": 6101.845749999993,
      "v": 1
    },
    {
      "midi": 62,
      "hit": false,
      "t": 97777.68000000007,
      "d": 1645.8316875000019,
      "v": 71
    },
    {
      "midi": 66,
      "hit": false,
      "t": 97777.68000000007,
      "d": 2201.3866875000094,
      "v": 59
    },
    {
      "midi": 64,
      "hit": false,
      "t": 97777.68000000007,
      "d": 7201.38168749999,
      "v": 74
    },
    {
      "midi": 57,
      "hit": false,
      "t": 98425.82750000007,
      "d": 1291.6653749999969,
      "v": 42
    },
    {
      "midi": 62,
      "hit": false,
      "t": 99444.34500000007,
      "d": 5534.716687499982,
      "v": 72
    },
    {
      "midi": 66,
      "hit": false,
      "t": 100555.45500000007,
      "d": 4423.6066874999815,
      "v": 65
    },
    {
      "midi": 69,
      "hit": false,
      "t": 101111.01000000007,
      "d": 3868.0516874999885,
      "v": 65
    },
    {
      "midi": 74,
      "hit": false,
      "t": 102222.12000000007,
      "d": 2201.386687499995,
      "v": 96
    },
    {
      "midi": 50,
      "hit": false,
      "t": 103888.78500000002,
      "d": 546.2957500000048,
      "v": 1
    },
    {
      "midi": 59,
      "hit": false,
      "t": 103888.78500000002,
      "d": 546.2957500000048,
      "v": 1
    },
    {
      "midi": 62,
      "hit": false,
      "t": 103888.78500000002,
      "d": 546.2957500000048,
      "v": 1
    },
    {
      "midi": 55,
      "hit": false,
      "t": 104444.34000000003,
      "d": 546.2957500000048,
      "v": 1
    },
    {
      "midi": 59,
      "hit": false,
      "t": 104444.34000000003,
      "d": 546.2957500000048,
      "v": 1
    },
    {
      "midi": 67,
      "hit": false,
      "t": 104444.34000000003,
      "d": 546.2957500000048,
      "v": 1
    },
    {
      "midi": 55,
      "hit": false,
      "t": 104999.89500000003,
      "d": 6657.400750000001,
      "v": 1
    },
    {
      "midi": 62,
      "hit": false,
      "t": 104999.89500000003,
      "d": 6657.400750000001,
      "v": 1
    },
    {
      "midi": 67,
      "hit": false,
      "t": 104999.89500000003,
      "d": 6657.400750000001,
      "v": 1
    },
    {
      "midi": 67,
      "hit": false,
      "t": 106666.56000000006,
      "d": 3312.49668750001,
      "v": 74
    },
    {
      "midi": 71,
      "hit": false,
      "t": 106666.56000000006,
      "d": 3312.49668750001,
      "v": 74
    },
    {
      "midi": 62,
      "hit": false,
      "t": 107777.67000000006,
      "d": 534.7216875000013,
      "v": 47
    },
    {
      "midi": 62,
      "hit": false,
      "t": 108333.22500000006,
      "d": 1090.2766874999943,
      "v": 72
    },
    {
      "midi": 62,
      "hit": false,
      "t": 109444.33500000006,
      "d": 1645.8316875000019,
      "v": 42
    },
    {
      "midi": 69,
      "hit": false,
      "t": 109999.89000000007,
      "d": 4423.606687499996,
      "v": 92
    },
    {
      "midi": 74,
      "hit": false,
      "t": 109999.89000000007,
      "d": 4423.606687499996,
      "v": 85
    },
    {
      "midi": 71,
      "hit": false,
      "t": 110555.44500000007,
      "d": 3868.051687500003,
      "v": 44
    },
    {
      "midi": 67,
      "hit": false,
      "t": 111111.00000000007,
      "d": 3312.4966874999955,
      "v": 49
    },
    {
      "midi": 55,
      "hit": false,
      "t": 111666.55500000004,
      "d": 1101.8507499999978,
      "v": 1
    },
    {
      "midi": 67,
      "hit": false,
      "t": 111666.55500000004,
      "d": 1101.8507499999978,
      "v": 1
    },
    {
      "midi": 62,
      "hit": false,
      "t": 111666.55500000007,
      "d": 534.7216875000013,
      "v": 43
    },
    {
      "midi": 54,
      "hit": false,
      "t": 112777.66500000004,
      "d": 1101.8507499999978,
      "v": 1
    },
    {
      "midi": 66,
      "hit": false,
      "t": 112777.66500000004,
      "d": 1101.8507499999978,
      "v": 1
    },
    {
      "midi": 62,
      "hit": false,
      "t": 112777.66500000007,
      "d": 1090.2766874999943,
      "v": 36
    },
    {
      "midi": 52,
      "hit": false,
      "t": 113888.77500000004,
      "d": 1101.8507499999978,
      "v": 1
    },
    {
      "midi": 64,
      "hit": false,
      "t": 113888.77500000004,
      "d": 1101.8507499999978,
      "v": 1
    },
    {
      "midi": 62,
      "hit": false,
      "t": 113888.77500000007,
      "d": 534.7216875000013,
      "v": 45
    },
    {
      "midi": 54,
      "hit": false,
      "t": 114999.88500000004,
      "d": 6657.400750000001,
      "v": 1
    },
    {
      "midi": 66,
      "hit": false,
      "t": 114999.88500000004,
      "d": 6657.400750000001,
      "v": 1
    },
    {
      "midi": 62,
      "hit": false,
      "t": 115555.44000000008,
      "d": 1645.8316875000019,
      "v": 78
    },
    {
      "midi": 66,
      "hit": false,
      "t": 115555.44000000008,
      "d": 2756.9416875000024,
      "v": 59
    },
    {
      "midi": 69,
      "hit": false,
      "t": 115555.44000000008,
      "d": 2756.9416875000024,
      "v": 80
    },
    {
      "midi": 57,
      "hit": false,
      "t": 116666.55000000008,
      "d": 534.7216875000013,
      "v": 55
    },
    {
      "midi": 62,
      "hit": false,
      "t": 117222.10500000008,
      "d": 1090.2766874999943,
      "v": 68
    },
    {
      "midi": 57,
      "hit": false,
      "t": 118333.21500000008,
      "d": 2201.386687499995,
      "v": 69
    },
    {
      "midi": 64,
      "hit": false,
      "t": 118888.77000000008,
      "d": 1090.2766874999943,
      "v": 96
    },
    {
      "midi": 69,
      "hit": false,
      "t": 118888.77000000008,
      "d": 4423.606687500011,
      "v": 102
    },
    {
      "midi": 66,
      "hit": false,
      "t": 119444.32500000007,
      "d": 3868.0516875000176,
      "v": 65
    },
    {
      "midi": 62,
      "hit": false,
      "t": 119999.88000000008,
      "d": 1645.8316875000019,
      "v": 45
    },
    {
      "midi": 57,
      "hit": false,
      "t": 121110.99000000008,
      "d": 1090.2766875000088,
      "v": 44
    },
    {
      "midi": 52,
      "hit": false,
      "t": 121666.54500000004,
      "d": 1101.8507499999978,
      "v": 1
    },
    {
      "midi": 64,
      "hit": false,
      "t": 121666.54500000004,
      "d": 1101.8507499999978,
      "v": 1
    },
    {
      "midi": 62,
      "hit": false,
      "t": 121666.54500000009,
      "d": 1645.8316875000019,
      "v": 63
    },
    {
      "midi": 50,
      "hit": false,
      "t": 122777.65500000004,
      "d": 1101.8507499999978,
      "v": 1
    },
    {
      "midi": 62,
      "hit": false,
      "t": 122777.65500000004,
      "d": 1101.8507499999978,
      "v": 1
    },
    {
      "midi": 57,
      "hit": false,
      "t": 122777.65500000009,
      "d": 534.7216875000013,
      "v": 56
    },
    {
      "midi": 62,
      "hit": false,
      "t": 123333.2100000001,
      "d": 1090.2766874999943,
      "v": 75
    },
    {
      "midi": 66,
      "hit": false,
      "t": 123333.2100000001,
      "d": 1090.2766874999943,
      "v": 66
    },
    {
      "midi": 52,
      "hit": false,
      "t": 123888.76500000004,
      "d": 5546.29075,
      "v": 1
    },
    {
      "midi": 64,
      "hit": false,
      "t": 123888.76500000004,
      "d": 5546.29075,
      "v": 1
    },
    {
      "midi": 57,
      "hit": false,
      "t": 123888.76500000009,
      "d": 534.7216875000013,
      "v": 54
    },
    {
      "midi": 45,
      "hit": false,
      "t": 124444.3200000001,
      "d": 2756.941687499988,
      "v": 67
    },
    {
      "midi": 64,
      "hit": false,
      "t": 124444.3200000001,
      "d": 2756.941687499988,
      "v": 80
    },
    {
      "midi": 61,
      "hit": false,
      "t": 124444.3200000001,
      "d": 3312.4966874999955,
      "v": 55
    },
    {
      "midi": 57,
      "hit": false,
      "t": 126110.98500000009,
      "d": 1090.2766874999943,
      "v": 81
    },
    {
      "midi": 45,
      "hit": false,
      "t": 127222.09500000009,
      "d": 1645.8316875000019,
      "v": 96
    },
    {
      "midi": 59,
      "hit": false,
      "t": 127777.6500000001,
      "d": 3868.0516874999885,
      "v": 81
    },
    {
      "midi": 61,
      "hit": false,
      "t": 127777.6500000001,
      "d": 3868.0516874999885,
      "v": 45
    },
    {
      "midi": 64,
      "hit": false,
      "t": 127777.6500000001,
      "d": 3868.0516874999885,
      "v": 78
    },
    {
      "midi": 57,
      "hit": false,
      "t": 128333.20500000009,
      "d": 1645.8316875000019,
      "v": 79
    },
    {
      "midi": 45,
      "hit": false,
      "t": 128888.7600000001,
      "d": 3868.051687499974,
      "v": 79
    },
    {
      "midi": 49,
      "hit": false,
      "t": 129444.31500000005,
      "d": 1101.8507499999978,
      "v": 1
    },
    {
      "midi": 61,
      "hit": false,
      "t": 129444.31500000005,
      "d": 1101.8507499999978,
      "v": 1
    },
    {
      "midi": 50,
      "hit": false,
      "t": 130555.42500000005,
      "d": 546.2957499999902,
      "v": 1
    },
    {
      "midi": 62,
      "hit": false,
      "t": 130555.42500000005,
      "d": 546.2957499999902,
      "v": 1
    },
    {
      "midi": 57,
      "hit": false,
      "t": 130555.42500000009,
      "d": 1090.2766874999943,
      "v": 86
    },
    {
      "midi": 52,
      "hit": false,
      "t": 131110.98000000004,
      "d": 546.2957499999902,
      "v": 1
    },
    {
      "midi": 64,
      "hit": false,
      "t": 131110.98000000004,
      "d": 546.2957499999902,
      "v": 1
    },
    {
      "midi": 50,
      "hit": false,
      "t": 131666.53500000003,
      "d": 546.2957499999902,
      "v": 1
    },
    {
      "midi": 62,
      "hit": false,
      "t": 131666.53500000003,
      "d": 546.2957499999902,
      "v": 1
    },
    {
      "midi": 57,
      "hit": false,
      "t": 131666.5350000001,
      "d": 1090.2766874999797,
      "v": 77
    },
    {
      "midi": 52,
      "hit": false,
      "t": 132222.09000000003,
      "d": 546.2957499999902,
      "v": 1
    },
    {
      "midi": 64,
      "hit": false,
      "t": 132222.09000000003,
      "d": 546.2957499999902,
      "v": 1
    },
    {
      "midi": 61,
      "hit": false,
      "t": 132222.09000000008,
      "d": 1090.2766874999797,
      "v": 53
    },
    {
      "midi": 64,
      "hit": false,
      "t": 132222.09000000008,
      "d": 1090.2766874999797,
      "v": 81
    },
    {
      "midi": 54,
      "hit": false,
      "t": 132777.64500000002,
      "d": 2212.9607499999984,
      "v": 1
    },
    {
      "midi": 66,
      "hit": false,
      "t": 132777.64500000002,
      "d": 2212.9607499999984,
      "v": 1
    },
    {
      "midi": 57,
      "hit": false,
      "t": 132777.64500000008,
      "d": 534.7216874999867,
      "v": 59
    },
    {
      "midi": 38,
      "hit": false,
      "t": 133333.20000000007,
      "d": 1645.8316874999728,
      "v": 69
    },
    {
      "midi": 62,
      "hit": false,
      "t": 133333.20000000007,
      "d": 2756.941687499959,
      "v": 63
    },
    {
      "midi": 69,
      "hit": false,
      "t": 133333.20000000007,
      "d": 2756.941687499959,
      "v": 50
    },
    {
      "midi": 57,
      "hit": false,
      "t": 134444.31000000006,
      "d": 1090.2766874999797,
      "v": 56
    },
    {
      "midi": 52,
      "hit": false,
      "t": 134999.86500000002,
      "d": 546.2957499999902,
      "v": 1
    },
    {
      "midi": 64,
      "hit": false,
      "t": 134999.86500000002,
      "d": 546.2957499999902,
      "v": 1
    },
    {
      "midi": 38,
      "hit": false,
      "t": 134999.86500000005,
      "d": 2201.386687499966,
      "v": 83
    },
    {
      "midi": 50,
      "hit": false,
      "t": 135555.42,
      "d": 3879.6257500000065,
      "v": 1
    },
    {
      "midi": 62,
      "hit": false,
      "t": 135555.42,
      "d": 3879.6257500000065,
      "v": 1
    },
    {
      "midi": 57,
      "hit": false,
      "t": 136110.97500000003,
      "d": 534.7216874999867,
      "v": 60
    },
    {
      "midi": 62,
      "hit": false,
      "t": 136666.53000000003,
      "d": 534.7216874999867,
      "v": 66
    },
    {
      "midi": 69,
      "hit": false,
      "t": 136666.53000000003,
      "d": 1090.2766874999797,
      "v": 81
    },
    {
      "midi": 57,
      "hit": false,
      "t": 137222.08500000002,
      "d": 534.7216874999867,
      "v": 50
    },
    {
      "midi": 38,
      "hit": false,
      "t": 137222.08500000002,
      "d": 2201.386687499966,
      "v": 51
    },
    {
      "midi": 60,
      "hit": false,
      "t": 137777.64,
      "d": 2756.941687499959,
      "v": 87
    },
    {
      "midi": 69,
      "hit": false,
      "t": 137777.64,
      "d": 4423.606687499938,
      "v": 92
    },
    {
      "midi": 57,
      "hit": false,
      "t": 138888.75,
      "d": 1090.2766874999797,
      "v": 39
    },
    {
      "midi": 50,
      "hit": false,
      "t": 139444.305,
      "d": 2756.941687499959,
      "v": 87
    },
    {
      "midi": 50,
      "hit": false,
      "t": 139444.30500000002,
      "d": 546.2957499999902,
      "v": 1
    },
    {
      "midi": 59,
      "hit": false,
      "t": 139444.30500000002,
      "d": 546.2957499999902,
      "v": 1
    },
    {
      "midi": 62,
      "hit": false,
      "t": 139444.30500000002,
      "d": 546.2957499999902,
      "v": 1
    },
    {
      "midi": 57,
      "hit": false,
      "t": 139999.86,
      "d": 1645.8316874999728,
      "v": 53
    },
    {
      "midi": 55,
      "hit": false,
      "t": 139999.86000000002,
      "d": 546.2957499999902,
      "v": 1
    },
    {
      "midi": 59,
      "hit": false,
      "t": 139999.86000000002,
      "d": 546.2957499999902,
      "v": 1
    },
    {
      "midi": 67,
      "hit": false,
      "t": 139999.86000000002,
      "d": 546.2957499999902,
      "v": 1
    },
    {
      "midi": 62,
      "hit": false,
      "t": 140555.41499999998,
      "d": 1645.8316874999728,
      "v": 78
    },
    {
      "midi": 55,
      "hit": false,
      "t": 140555.415,
      "d": 6657.400750000001,
      "v": 1
    },
    {
      "midi": 62,
      "hit": false,
      "t": 140555.415,
      "d": 6657.400750000001,
      "v": 1
    },
    {
      "midi": 67,
      "hit": false,
      "t": 140555.415,
      "d": 6657.400750000001,
      "v": 1
    },
    {
      "midi": 64,
      "hit": false,
      "t": 141110.96999999997,
      "d": 1090.2766874999797,
      "v": 67
    },
    {
      "midi": 57,
      "hit": false,
      "t": 141666.52499999997,
      "d": 534.7216874999867,
      "v": 57
    },
    {
      "midi": 59,
      "hit": false,
      "t": 142222.07999999996,
      "d": 1090.2766874999797,
      "v": 83
    },
    {
      "midi": 62,
      "hit": false,
      "t": 142222.07999999996,
      "d": 1645.8316874999728,
      "v": 72
    },
    {
      "midi": 55,
      "hit": false,
      "t": 142777.63499999995,
      "d": 534.7216874999867,
      "v": 65
    },
    {
      "midi": 59,
      "hit": false,
      "t": 143333.18999999994,
      "d": 1090.2766874999797,
      "v": 78
    },
    {
      "midi": 55,
      "hit": false,
      "t": 143888.74499999994,
      "d": 534.7216874999867,
      "v": 63
    },
    {
      "midi": 62,
      "hit": false,
      "t": 144444.29999999993,
      "d": 534.7216874999867,
      "v": 59
    },
    {
      "midi": 62,
      "hit": false,
      "t": 144999.85499999992,
      "d": 1090.2766874999797,
      "v": 79
    },
    {
      "midi": 67,
      "hit": false,
      "t": 145555.40999999992,
      "d": 1090.2766874999797,
      "v": 91
    },
    {
      "midi": 71,
      "hit": false,
      "t": 146110.9649999999,
      "d": 4979.161687499931,
      "v": 91
    },
    {
      "midi": 62,
      "hit": false,
      "t": 146666.5199999999,
      "d": 534.7216874999867,
      "v": 56
    },
    {
      "midi": 62,
      "hit": false,
      "t": 147222.0749999999,
      "d": 1090.2766874999797,
      "v": 50
    },
    {
      "midi": 55,
      "hit": false,
      "t": 147222.075,
      "d": 1101.8507500000123,
      "v": 1
    },
    {
      "midi": 67,
      "hit": false,
      "t": 147222.075,
      "d": 1101.8507500000123,
      "v": 1
    },
    {
      "midi": 67,
      "hit": false,
      "t": 147777.6299999999,
      "d": 1645.8316874999728,
      "v": 67
    },
    {
      "midi": 62,
      "hit": false,
      "t": 148333.18499999988,
      "d": 534.7216874999867,
      "v": 47
    },
    {
      "midi": 54,
      "hit": false,
      "t": 148333.18500000003,
      "d": 1101.8507500000123,
      "v": 1
    },
    {
      "midi": 66,
      "hit": false,
      "t": 148333.18500000003,
      "d": 1101.8507500000123,
      "v": 1
    },
    {
      "midi": 74,
      "hit": false,
      "t": 148888.73999999987,
      "d": 2201.386687499966,
      "v": 42
    },
    {
      "midi": 62,
      "hit": false,
      "t": 149444.29499999987,
      "d": 534.7216874999867,
      "v": 44
    },
    {
      "midi": 52,
      "hit": false,
      "t": 149444.29500000004,
      "d": 1101.8507500000123,
      "v": 1
    },
    {
      "midi": 64,
      "hit": false,
      "t": 149444.29500000004,
      "d": 1101.8507500000123,
      "v": 1
    },
    {
      "midi": 67,
      "hit": false,
      "t": 149999.84999999986,
      "d": 1090.2766874999797,
      "v": 63
    },
    {
      "midi": 62,
      "hit": false,
      "t": 150555.40499999985,
      "d": 534.7216874999867,
      "v": 42
    },
    {
      "midi": 54,
      "hit": false,
      "t": 150555.40500000006,
      "d": 5546.290750000015,
      "v": 1
    },
    {
      "midi": 66,
      "hit": false,
      "t": 150555.40500000006,
      "d": 5546.290750000015,
      "v": 1
    },
    {
      "midi": 62,
      "hit": false,
      "t": 151110.95999999985,
      "d": 1090.2766874999797,
      "v": 66
    },
    {
      "midi": 69,
      "hit": false,
      "t": 151110.95999999985,
      "d": 4979.161687499931,
      "v": 79
    },
    {
      "midi": 57,
      "hit": false,
      "t": 151666.51499999984,
      "d": 534.7216874999867,
      "v": 56
    },
    {
      "midi": 64,
      "hit": false,
      "t": 152222.06999999983,
      "d": 1645.8316874999728,
      "v": 92
    },
    {
      "midi": 57,
      "hit": false,
      "t": 153333.17999999982,
      "d": 1090.2766874999797,
      "v": 60
    },
    {
      "midi": 64,
      "hit": false,
      "t": 154444.2899999998,
      "d": 2756.941687499959,
      "v": 74
    },
    {
      "midi": 57,
      "hit": false,
      "t": 154999.8449999998,
      "d": 534.7216874999867,
      "v": 51
    },
    {
      "midi": 62,
      "hit": false,
      "t": 155555.3999999998,
      "d": 1645.8316874999728,
      "v": 45
    },
    {
      "midi": 57,
      "hit": false,
      "t": 156110.95499999978,
      "d": 534.7216874999867,
      "v": 62
    },
    {
      "midi": 54,
      "hit": false,
      "t": 156110.95500000007,
      "d": 1101.8507500000123,
      "v": 1
    },
    {
      "midi": 62,
      "hit": false,
      "t": 156110.95500000007,
      "d": 1101.8507500000123,
      "v": 1
    },
    {
      "midi": 66,
      "hit": false,
      "t": 156110.95500000007,
      "d": 1101.8507500000123,
      "v": 1
    },
    {
      "midi": 69,
      "hit": false,
      "t": 156666.50999999978,
      "d": 2201.386687499966,
      "v": 61
    },
    {
      "midi": 57,
      "hit": false,
      "t": 157222.06499999977,
      "d": 534.7216874999867,
      "v": 67
    },
    {
      "midi": 52,
      "hit": false,
      "t": 157222.0650000001,
      "d": 1101.8507500000123,
      "v": 1
    },
    {
      "midi": 59,
      "hit": false,
      "t": 157222.0650000001,
      "d": 1101.8507500000123,
      "v": 1
    },
    {
      "midi": 64,
      "hit": false,
      "t": 157222.0650000001,
      "d": 1101.8507500000123,
      "v": 1
    },
    {
      "midi": 62,
      "hit": false,
      "t": 157777.61999999976,
      "d": 1090.2766874999797,
      "v": 71
    },
    {
      "midi": 57,
      "hit": false,
      "t": 158333.17499999976,
      "d": 534.7216874999867,
      "v": 51
    },
    {
      "midi": 50,
      "hit": false,
      "t": 158333.1750000001,
      "d": 1101.8507500000123,
      "v": 1
    },
    {
      "midi": 57,
      "hit": false,
      "t": 158333.1750000001,
      "d": 1101.8507500000123,
      "v": 1
    },
    {
      "midi": 62,
      "hit": false,
      "t": 158333.1750000001,
      "d": 1101.8507500000123,
      "v": 1
    },
    {
      "midi": 54,
      "hit": false,
      "t": 158888.72999999975,
      "d": 1090.2766875000088,
      "v": 59
    },
    {
      "midi": 59,
      "hit": false,
      "t": 158888.72999999975,
      "d": 1090.2766875000088,
      "v": 98
    },
    {
      "midi": 62,
      "hit": false,
      "t": 158888.72999999975,
      "d": 1090.2766875000088,
      "v": 80
    },
    {
      "midi": 52,
      "hit": false,
      "t": 159444.28500000012,
      "d": 5546.290750000015,
      "v": 1
    },
    {
      "midi": 59,
      "hit": false,
      "t": 159444.28500000012,
      "d": 5546.290750000015,
      "v": 1
    },
    {
      "midi": 64,
      "hit": false,
      "t": 159444.28500000012,
      "d": 5546.290750000015,
      "v": 1
    },
    {
      "midi": 59,
      "hit": false,
      "t": 159999.83999999976,
      "d": 534.7216874999867,
      "v": 75
    },
    {
      "midi": 64,
      "hit": false,
      "t": 159999.83999999976,
      "d": 534.7216874999867,
      "v": 77
    },
    {
      "midi": 55,
      "hit": false,
      "t": 160555.39499999976,
      "d": 615.7401249999821,
      "v": 54
    },
    {
      "midi": 59,
      "hit": false,
      "t": 161110.94999999975,
      "d": 534.7216874999867,
      "v": 67
    },
    {
      "midi": 64,
      "hit": false,
      "t": 161110.94999999975,
      "d": 534.7216874999867,
      "v": 56
    },
    {
      "midi": 55,
      "hit": false,
      "t": 161666.50499999974,
      "d": 534.7216874999867,
      "v": 50
    },
    {
      "midi": 64,
      "hit": false,
      "t": 162222.05999999974,
      "d": 534.7216874999867,
      "v": 69
    },
    {
      "midi": 59,
      "hit": false,
      "t": 162222.05999999974,
      "d": 1090.2766874999797,
      "v": 81
    },
    {
      "midi": 55,
      "hit": false,
      "t": 162777.61499999973,
      "d": 534.7216874999867,
      "v": 54
    },
    {
      "midi": 71,
      "hit": false,
      "t": 162777.61499999973,
      "d": 1645.8316874999728,
      "v": 87
    },
    {
      "midi": 59,
      "hit": false,
      "t": 163333.16999999972,
      "d": 1090.2766874999797,
      "v": 68
    },
    {
      "midi": 64,
      "hit": false,
      "t": 163333.16999999972,
      "d": 1090.2766874999797,
      "v": 43
    },
    {
      "midi": 55,
      "hit": false,
      "t": 163888.72499999971,
      "d": 534.7216874999867,
      "v": 51
    },
    {
      "midi": 64,
      "hit": false,
      "t": 164444.2799999997,
      "d": 534.7216874999867,
      "v": 65
    },
    {
      "midi": 61,
      "hit": false,
      "t": 164444.2799999997,
      "d": 1090.2766874999797,
      "v": 50
    },
    {
      "midi": 45,
      "hit": false,
      "t": 164444.2799999997,
      "d": 4423.606687499938,
      "v": 60
    },
    {
      "midi": 57,
      "hit": false,
      "t": 164999.8349999997,
      "d": 534.7216874999867,
      "v": 61
    },
    {
      "midi": 55,
      "hit": false,
      "t": 164999.83500000014,
      "d": 1101.8507500000123,
      "v": 1
    },
    {
      "midi": 61,
      "hit": false,
      "t": 165555.3899999997,
      "d": 534.7216874999867,
      "v": 41
    },
    {
      "midi": 64,
      "hit": false,
      "t": 165555.3899999997,
      "d": 534.7216874999867,
      "v": 77
    },
    {
      "midi": 57,
      "hit": false,
      "t": 166110.9449999997,
      "d": 534.7216874999867,
      "v": 66
    },
    {
      "midi": 57,
      "hit": false,
      "t": 166110.94500000015,
      "d": 546.2957499999902,
      "v": 1
    },
    {
      "midi": 61,
      "hit": false,
      "t": 166666.49999999968,
      "d": 1090.2766874999797,
      "v": 48
    },
    {
      "midi": 64,
      "hit": false,
      "t": 166666.49999999968,
      "d": 1090.2766874999797,
      "v": 73
    },
    {
      "midi": 59,
      "hit": false,
      "t": 166666.50000000015,
      "d": 546.2957499999902,
      "v": 1
    },
    {
      "midi": 57,
      "hit": false,
      "t": 167222.05499999967,
      "d": 534.7216874999867,
      "v": 66
    },
    {
      "midi": 57,
      "hit": false,
      "t": 167222.05500000014,
      "d": 1101.8507500000123,
      "v": 1
    },
    {
      "midi": 61,
      "hit": false,
      "t": 167777.60999999967,
      "d": 1090.2766874999797,
      "v": 38
    },
    {
      "midi": 64,
      "hit": false,
      "t": 167777.60999999967,
      "d": 1090.2766874999797,
      "v": 56
    },
    {
      "midi": 57,
      "hit": false,
      "t": 168333.16499999966,
      "d": 534.7216874999867,
      "v": 54
    },
    {
      "midi": 55,
      "hit": false,
      "t": 168333.16500000015,
      "d": 268.5182499999937,
      "v": 1
    },
    {
      "midi": 52,
      "hit": false,
      "t": 168610.94250000015,
      "d": 268.5182499999937,
      "v": 1
    },
    {
      "midi": 62,
      "hit": false,
      "t": 168888.71999999965,
      "d": 534.7216874999867,
      "v": 75
    },
    {
      "midi": 69,
      "hit": false,
      "t": 168888.71999999965,
      "d": 2201.386687499966,
      "v": 79
    },
    {
      "midi": 54,
      "hit": false,
      "t": 168888.72000000015,
      "d": 4435.1807499999995,
      "v": 1
    },
    {
      "midi": 57,
      "hit": false,
      "t": 169444.27499999964,
      "d": 534.7216874999867,
      "v": 60
    },
    {
      "midi": 62,
      "hit": false,
      "t": 169999.82999999964,
      "d": 534.7216874999867,
      "v": 75
    },
    {
      "midi": 57,
      "hit": false,
      "t": 170555.38499999963,
      "d": 1645.831687500031,
      "v": 63
    },
    {
      "midi": 62,
      "hit": false,
      "t": 171110.93999999962,
      "d": 534.7216875000158,
      "v": 55
    },
    {
      "midi": 69,
      "hit": false,
      "t": 171636.40243749964,
      "d": 1634.2576250000275,
      "v": 101
    },
    {
      "midi": 64,
      "hit": false,
      "t": 171636.40243749964,
      "d": 1645.831687500031,
      "v": 96
    },
    {
      "midi": 66,
      "hit": false,
      "t": 171867.88368749965,
      "d": 1402.7763750000158,
      "v": 37
    },
    {
      "midi": 62,
      "hit": false,
      "t": 172222.04999999967,
      "d": 1060.1841249999998,
      "v": 66
    },
    {
      "midi": 57,
      "hit": false,
      "t": 172689.64212499966,
      "d": 608.7956875000091,
      "v": 55
    },
    {
      "midi": 57,
      "hit": false,
      "t": 173321.58593749968,
      "d": 2884.256374999997,
      "v": 61
    },
    {
      "midi": 64,
      "hit": false,
      "t": 173333.15999999968,
      "d": 2884.256374999997,
      "v": 60
    },
    {
      "midi": 61,
      "hit": false,
      "t": 173349.3636874997,
      "d": 2877.311937499995,
      "v": 65
    },
    {
      "midi": 57,
      "hit": false,
      "t": 177777.5999999997,
      "d": 2756.941687499988,
      "v": 66
    },
    {
      "midi": 50,
      "hit": false,
      "t": 177777.5999999997,
      "d": 4423.606687499967,
      "v": 60
    },
    {
      "midi": 62,
      "hit": false,
      "t": 177777.5999999997,
      "d": 7756.936687499954,
      "v": 66
    },
    {
      "midi": 57,
      "hit": false,
      "t": 180555.37499999968,
      "d": 534.7216874999867,
      "v": 65
    },
    {
      "midi": 69,
      "hit": false,
      "t": 181110.92999999967,
      "d": 4423.606687499967,
      "v": 83
    },
    {
      "midi": 57,
      "hit": false,
      "t": 181666.48499999967,
      "d": 2756.941687499988,
      "v": 43
    },
    {
      "midi": 50,
      "hit": false,
      "t": 182222.03999999966,
      "d": 3312.496687499981,
      "v": 54
    },
    {
      "midi": 57,
      "hit": false,
      "t": 184999.81499999965,
      "d": 534.7216874999867,
      "v": 47
    },
    {
      "midi": 59,
      "hit": false,
      "t": 185555.36999999965,
      "d": 1090.2766875000088,
      "v": 78
    },
    {
      "midi": 67,
      "hit": false,
      "t": 185555.36999999965,
      "d": 1090.2766875000088,
      "v": 92
    },
    {
      "midi": 64,
      "hit": false,
      "t": 186666.47999999966,
      "d": 2756.941687500017,
      "v": 91
    },
    {
      "midi": 69,
      "hit": false,
      "t": 186666.47999999966,
      "d": 2756.941687500017,
      "v": 91
    },
    {
      "midi": 57,
      "hit": false,
      "t": 188333.14499999967,
      "d": 1090.2766875000088,
      "v": 59
    },
    {
      "midi": 57,
      "hit": false,
      "t": 189444.25499999968,
      "d": 534.7216874999867,
      "v": 63
    },
    {
      "midi": 59,
      "hit": false,
      "t": 189999.80999999968,
      "d": 534.7216874999867,
      "v": 93
    },
    {
      "midi": 64,
      "hit": false,
      "t": 189999.80999999968,
      "d": 1645.8316875000019,
      "v": 91
    },
    {
      "midi": 61,
      "hit": false,
      "t": 190555.36499999967,
      "d": 1090.2766875000088,
      "v": 71
    },
    {
      "midi": 61,
      "hit": false,
      "t": 191666.4749999997,
      "d": 2201.386687499966,
      "v": 81
    },
    {
      "midi": 64,
      "hit": false,
      "t": 191666.4749999997,
      "d": 2201.386687499966,
      "v": 87
    },
    {
      "midi": 57,
      "hit": false,
      "t": 192777.58499999967,
      "d": 534.7216874999867,
      "v": 85
    },
    {
      "midi": 57,
      "hit": false,
      "t": 193888.69499999966,
      "d": 534.7216874999867,
      "v": 65
    },
    {
      "midi": 54,
      "hit": false,
      "t": 194444.24999999965,
      "d": 1090.2766875000088,
      "v": 71
    },
    {
      "midi": 62,
      "hit": false,
      "t": 194444.24999999965,
      "d": 1090.2766875000088,
      "v": 83
    },
    {
      "midi": 55,
      "hit": false,
      "t": 195555.35999999967,
      "d": 1645.8316875000019,
      "v": 63
    },
    {
      "midi": 59,
      "hit": false,
      "t": 195555.35999999967,
      "d": 1645.8316875000019,
      "v": 63
    },
    {
      "midi": 62,
      "hit": false,
      "t": 195555.35999999967,
      "d": 2201.386687499995,
      "v": 67
    },
    {
      "midi": 55,
      "hit": false,
      "t": 197222.02499999967,
      "d": 2756.941687499988,
      "v": 74
    },
    {
      "midi": 59,
      "hit": false,
      "t": 197777.57999999967,
      "d": 2201.386687499995,
      "v": 49
    },
    {
      "midi": 62,
      "hit": false,
      "t": 198333.13499999966,
      "d": 1645.8316875000019,
      "v": 80
    },
    {
      "midi": 71,
      "hit": false,
      "t": 198888.68999999965,
      "d": 1090.2766875000088,
      "v": 107
    },
    {
      "midi": 45,
      "hit": false,
      "t": 199999.79999999967,
      "d": 4423.606687499967,
      "v": 83
    },
    {
      "midi": 52,
      "hit": false,
      "t": 199999.79999999967,
      "d": 4423.606687499967,
      "v": 80
    },
    {
      "midi": 57,
      "hit": false,
      "t": 201666.46499999968,
      "d": 2756.941687499959,
      "v": 60
    },
    {
      "midi": 61,
      "hit": false,
      "t": 202222.01999999967,
      "d": 1090.2766874999797,
      "v": 33
    },
    {
      "midi": 69,
      "hit": false,
      "t": 202777.57499999966,
      "d": 1645.8316874999728,
      "v": 102
    },
    {
      "midi": 64,
      "hit": false,
      "t": 203333.12999999966,
      "d": 1090.2766874999797,
      "v": 67
    },
    {
      "midi": 61,
      "hit": false,
      "t": 203888.68499999965,
      "d": 534.7216874999867,
      "v": 57
    },
    {
      "midi": 38,
      "hit": false,
      "t": 204444.23999999964,
      "d": 4423.606687499938,
      "v": 89
    },
    {
      "midi": 50,
      "hit": false,
      "t": 204999.79499999963,
      "d": 2756.941687499959,
      "v": 68
    },
    {
      "midi": 57,
      "hit": false,
      "t": 205555.34999999963,
      "d": 534.7216874999867,
      "v": 68
    },
    {
      "midi": 62,
      "hit": false,
      "t": 206110.90499999962,
      "d": 1645.8316874999728,
      "v": 77
    },
    {
      "midi": 57,
      "hit": false,
      "t": 206666.4599999996,
      "d": 1090.2766874999797,
      "v": 54
    },
    {
      "midi": 69,
      "hit": false,
      "t": 207222.0149999996,
      "d": 534.7216874999867,
      "v": 66
    },
    {
      "midi": 66,
      "hit": false,
      "t": 207777.5699999996,
      "d": 256.9441874999902,
      "v": 97
    },
    {
      "midi": 64,
      "hit": false,
      "t": 208055.3474999996,
      "d": 256.9441874999902,
      "v": 61
    },
    {
      "midi": 62,
      "hit": false,
      "t": 208333.1249999996,
      "d": 534.7216874999867,
      "v": 67
    },
    {
      "midi": 52,
      "hit": false,
      "t": 208888.6799999996,
      "d": 4145.8291874999995,
      "v": 75
    },
    {
      "midi": 57,
      "hit": false,
      "t": 208888.6799999996,
      "d": 4145.8291874999995,
      "v": 87
    },
    {
      "midi": 61,
      "hit": false,
      "t": 208888.6799999996,
      "d": 4145.8291874999995,
      "v": 91
    },
    {
      "midi": 50,
      "hit": false,
      "t": 213333.1199999996,
      "d": 3868.051687499945,
      "v": 80
    },
    {
      "midi": 57,
      "hit": false,
      "t": 213888.67499999958,
      "d": 3312.496687499952,
      "v": 65
    },
    {
      "midi": 62,
      "hit": false,
      "t": 214444.22999999957,
      "d": 1645.8316874999728,
      "v": 73
    },
    {
      "midi": 64,
      "hit": false,
      "t": 215555.33999999956,
      "d": 1090.2766874999797,
      "v": 74
    },
    {
      "midi": 66,
      "hit": false,
      "t": 216666.44999999955,
      "d": 534.7216874999867,
      "v": 71
    },
    {
      "midi": 76,
      "hit": false,
      "t": 217222.00499999954,
      "d": 534.7216874999867,
      "v": 62
    },
    {
      "midi": 78,
      "hit": false,
      "t": 217222.00499999954,
      "d": 3868.051687499974,
      "v": 50
    },
    {
      "midi": 81,
      "hit": false,
      "t": 217222.00499999954,
      "d": 3868.051687499974,
      "v": 71
    },
    {
      "midi": 76,
      "hit": false,
      "t": 217777.55999999953,
      "d": 3312.496687499981,
      "v": 81
    },
    {
      "midi": 74,
      "hit": false,
      "t": 218333.11499999953,
      "d": 2756.941687499988,
      "v": 57
    },
    {
      "midi": 69,
      "hit": false,
      "t": 218888.66999999952,
      "d": 1090.2766875000088,
      "v": 84
    },
    {
      "midi": 69,
      "hit": false,
      "t": 220555.33499999953,
      "d": 534.7216874999867,
      "v": 43
    },
    {
      "midi": 59,
      "hit": false,
      "t": 221110.88999999952,
      "d": 1090.2766875000088,
      "v": 81
    },
    {
      "midi": 67,
      "hit": false,
      "t": 221110.88999999952,
      "d": 1090.2766875000088,
      "v": 92
    },
    {
      "midi": 45,
      "hit": false,
      "t": 222221.99999999953,
      "d": 7756.936687500041,
      "v": 79
    },
    {
      "midi": 52,
      "hit": false,
      "t": 222221.99999999953,
      "d": 7756.936687500041,
      "v": 78
    },
    {
      "midi": 64,
      "hit": false,
      "t": 222777.55499999953,
      "d": 1090.2766874999797,
      "v": 67
    },
    {
      "midi": 69,
      "hit": false,
      "t": 223333.10999999952,
      "d": 534.7216874999867,
      "v": 37
    },
    {
      "midi": 64,
      "hit": false,
      "t": 223888.6649999995,
      "d": 1645.8316875000019,
      "v": 61
    },
    {
      "midi": 71,
      "hit": false,
      "t": 224402.55337499952,
      "d": 2027.7757500000007,
      "v": 92
    },
    {
      "midi": 76,
      "hit": false,
      "t": 224402.55337499952,
      "d": 5488.420437500026,
      "v": 92
    },
    {
      "midi": 73,
      "hit": false,
      "t": 224969.68243749952,
      "d": 3636.5704375000205,
      "v": 57
    },
    {
      "midi": 69,
      "hit": false,
      "t": 225555.32999999952,
      "d": 1743.0538125000312,
      "v": 50
    },
    {
      "midi": 64,
      "hit": false,
      "t": 226173.38493749953,
      "d": 766.2029374999984,
      "v": 36
    },
    {
      "midi": 71,
      "hit": false,
      "t": 226701.16218749952,
      "d": 3201.3856875000347,
      "v": 42
    },
    {
      "midi": 64,
      "hit": false,
      "t": 227180.32837499955,
      "d": 673.6104374999995,
      "v": 54
    },
    {
      "midi": 69,
      "hit": false,
      "t": 227782.17962499955,
      "d": 2120.3682499999995,
      "v": 81
    },
    {
      "midi": 64,
      "hit": false,
      "t": 228349.30868749955,
      "d": 766.2029374999984,
      "v": 48
    },
    {
      "midi": 73,
      "hit": false,
      "t": 228819.21562499955,
      "d": 1071.7581875000033,
      "v": 57
    },
    {
      "midi": 64,
      "hit": false,
      "t": 229397.91874999955,
      "d": 534.7216875000158,
      "v": 43
    },
    {
      "midi": 50,
      "hit": false,
      "t": 229999.76999999958,
      "d": 1090.2766875000088,
      "v": 75
    },
    {
      "midi": 54,
      "hit": false,
      "t": 229999.76999999958,
      "d": 1090.2766875000088,
      "v": 65
    },
    {
      "midi": 57,
      "hit": false,
      "t": 229999.76999999958,
      "d": 1090.2766875000088,
      "v": 87
    },
    {
      "midi": 50,
      "hit": false,
      "t": 231110.8799999996,
      "d": 1645.8316875000019,
      "v": 67
    },
    {
      "midi": 55,
      "hit": false,
      "t": 231110.8799999996,
      "d": 1645.8316875000019,
      "v": 74
    },
    {
      "midi": 59,
      "hit": false,
      "t": 231110.8799999996,
      "d": 1645.8316875000019,
      "v": 72
    },
    {
      "midi": 67,
      "hit": false,
      "t": 232777.5449999996,
      "d": 1090.2766875000088,
      "v": 75
    },
    {
      "midi": 71,
      "hit": false,
      "t": 232777.5449999996,
      "d": 2756.941687500017,
      "v": 81
    },
    {
      "midi": 67,
      "hit": false,
      "t": 233888.65499999962,
      "d": 1645.8316875000019,
      "v": 43
    },
    {
      "midi": 79,
      "hit": false,
      "t": 234444.2099999996,
      "d": 1090.2766875000088,
      "v": 63
    },
    {
      "midi": 57,
      "hit": false,
      "t": 235555.31999999963,
      "d": 1645.8316875000019,
      "v": 68
    },
    {
      "midi": 61,
      "hit": false,
      "t": 235555.31999999963,
      "d": 4423.606687500025,
      "v": 66
    },
    {
      "midi": 64,
      "hit": false,
      "t": 235555.31999999963,
      "d": 4423.606687500025,
      "v": 72
    },
    {
      "midi": 57,
      "hit": false,
      "t": 237221.98499999964,
      "d": 1090.2766875000088,
      "v": 60
    },
    {
      "midi": 57,
      "hit": false,
      "t": 238333.09499999965,
      "d": 1645.8316875000019,
      "v": 44
    },
    {
      "midi": 67,
      "hit": false,
      "t": 238888.64999999964,
      "d": 1090.2766875000088,
      "v": 92
    },
    {
      "midi": 62,
      "hit": false,
      "t": 239999.75999999966,
      "d": 1645.8316875000019,
      "v": 71
    },
    {
      "midi": 66,
      "hit": false,
      "t": 239999.75999999966,
      "d": 2201.386687499995,
      "v": 59
    },
    {
      "midi": 64,
      "hit": false,
      "t": 239999.75999999966,
      "d": 7201.381687499961,
      "v": 74
    },
    {
      "midi": 57,
      "hit": false,
      "t": 240647.90749999965,
      "d": 1291.6653750000114,
      "v": 42
    },
    {
      "midi": 62,
      "hit": false,
      "t": 241666.42499999967,
      "d": 5534.716687499953,
      "v": 72
    },
    {
      "midi": 66,
      "hit": false,
      "t": 242777.53499999965,
      "d": 4423.606687499967,
      "v": 65
    },
    {
      "midi": 69,
      "hit": false,
      "t": 243333.08999999965,
      "d": 3868.051687499974,
      "v": 65
    },
    {
      "midi": 74,
      "hit": false,
      "t": 244444.19999999963,
      "d": 2201.386687499995,
      "v": 96
    },
    {
      "midi": 50,
      "hit": false,
      "t": 246110.86500000017,
      "d": 546.2957499999902,
      "v": 1
    },
    {
      "midi": 59,
      "hit": false,
      "t": 246110.86500000017,
      "d": 546.2957499999902,
      "v": 1
    },
    {
      "midi": 62,
      "hit": false,
      "t": 246110.86500000017,
      "d": 546.2957499999902,
      "v": 1
    },
    {
      "midi": 55,
      "hit": false,
      "t": 246666.42000000016,
      "d": 546.2957499999902,
      "v": 1
    },
    {
      "midi": 59,
      "hit": false,
      "t": 246666.42000000016,
      "d": 546.2957499999902,
      "v": 1
    },
    {
      "midi": 67,
      "hit": false,
      "t": 246666.42000000016,
      "d": 546.2957499999902,
      "v": 1
    },
    {
      "midi": 55,
      "hit": false,
      "t": 247221.97500000015,
      "d": 6657.400750000001,
      "v": 1
    },
    {
      "midi": 62,
      "hit": false,
      "t": 247221.97500000015,
      "d": 6657.400750000001,
      "v": 1
    },
    {
      "midi": 67,
      "hit": false,
      "t": 247221.97500000015,
      "d": 6657.400750000001,
      "v": 1
    },
    {
      "midi": 67,
      "hit": false,
      "t": 248888.6399999996,
      "d": 3312.496687499981,
      "v": 74
    },
    {
      "midi": 71,
      "hit": false,
      "t": 248888.6399999996,
      "d": 3312.496687499981,
      "v": 74
    },
    {
      "midi": 62,
      "hit": false,
      "t": 249999.7499999996,
      "d": 534.7216874999867,
      "v": 47
    },
    {
      "midi": 62,
      "hit": false,
      "t": 250555.3049999996,
      "d": 1090.2766875000088,
      "v": 72
    },
    {
      "midi": 62,
      "hit": false,
      "t": 251666.4149999996,
      "d": 1645.8316874999728,
      "v": 42
    },
    {
      "midi": 69,
      "hit": false,
      "t": 252221.9699999996,
      "d": 4423.606687499967,
      "v": 92
    },
    {
      "midi": 74,
      "hit": false,
      "t": 252221.9699999996,
      "d": 4423.606687499967,
      "v": 85
    },
    {
      "midi": 71,
      "hit": false,
      "t": 252777.5249999996,
      "d": 3868.051687499974,
      "v": 44
    },
    {
      "midi": 67,
      "hit": false,
      "t": 253333.07999999958,
      "d": 3312.496687499981,
      "v": 49
    },
    {
      "midi": 62,
      "hit": false,
      "t": 253888.63499999957,
      "d": 534.7216874999867,
      "v": 43
    },
    {
      "midi": 55,
      "hit": false,
      "t": 253888.63500000015,
      "d": 1101.8507500000123,
      "v": 1
    },
    {
      "midi": 67,
      "hit": false,
      "t": 253888.63500000015,
      "d": 1101.8507500000123,
      "v": 1
    },
    {
      "midi": 62,
      "hit": false,
      "t": 254999.74499999956,
      "d": 1090.2766875000088,
      "v": 36
    },
    {
      "midi": 54,
      "hit": false,
      "t": 254999.74500000017,
      "d": 1101.8507500000123,
      "v": 1
    },
    {
      "midi": 66,
      "hit": false,
      "t": 254999.74500000017,
      "d": 1101.8507500000123,
      "v": 1
    },
    {
      "midi": 62,
      "hit": false,
      "t": 256110.85499999957,
      "d": 534.7216874999867,
      "v": 45
    },
    {
      "midi": 52,
      "hit": false,
      "t": 256110.85500000019,
      "d": 1101.8507500000123,
      "v": 1
    },
    {
      "midi": 64,
      "hit": false,
      "t": 256110.85500000019,
      "d": 1101.8507500000123,
      "v": 1
    },
    {
      "midi": 54,
      "hit": false,
      "t": 257221.9650000002,
      "d": 6657.400749999972,
      "v": 1
    },
    {
      "midi": 66,
      "hit": false,
      "t": 257221.9650000002,
      "d": 6657.400749999972,
      "v": 1
    },
    {
      "midi": 62,
      "hit": false,
      "t": 257777.51999999955,
      "d": 1645.8316874999728,
      "v": 78
    },
    {
      "midi": 66,
      "hit": false,
      "t": 257777.51999999955,
      "d": 2756.941687499988,
      "v": 59
    },
    {
      "midi": 69,
      "hit": false,
      "t": 257777.51999999955,
      "d": 2756.941687499988,
      "v": 80
    },
    {
      "midi": 57,
      "hit": false,
      "t": 258888.62999999954,
      "d": 534.7216874999867,
      "v": 55
    },
    {
      "midi": 62,
      "hit": false,
      "t": 259444.18499999953,
      "d": 1090.2766875000088,
      "v": 68
    },
    {
      "midi": 57,
      "hit": false,
      "t": 260555.29499999955,
      "d": 2201.386687499966,
      "v": 69
    },
    {
      "midi": 64,
      "hit": false,
      "t": 261110.84999999954,
      "d": 1090.2766874999797,
      "v": 96
    },
    {
      "midi": 69,
      "hit": false,
      "t": 261110.84999999954,
      "d": 4423.606687500054,
      "v": 102
    },
    {
      "midi": 66,
      "hit": false,
      "t": 261666.40499999953,
      "d": 3868.0516875000612,
      "v": 65
    },
    {
      "midi": 62,
      "hit": false,
      "t": 262221.9599999995,
      "d": 1645.83168750006,
      "v": 45
    },
    {
      "midi": 57,
      "hit": false,
      "t": 263333.06999999954,
      "d": 1090.2766875000088,
      "v": 44
    },
    {
      "midi": 62,
      "hit": false,
      "t": 263888.62499999953,
      "d": 1645.83168750006,
      "v": 63
    },
    {
      "midi": 52,
      "hit": false,
      "t": 263888.6250000002,
      "d": 1101.8507499999832,
      "v": 1
    },
    {
      "midi": 64,
      "hit": false,
      "t": 263888.6250000002,
      "d": 1101.8507499999832,
      "v": 1
    },
    {
      "midi": 57,
      "hit": false,
      "t": 264999.7349999996,
      "d": 534.7216875000158,
      "v": 56
    },
    {
      "midi": 50,
      "hit": false,
      "t": 264999.73500000016,
      "d": 1101.8507499999832,
      "v": 1
    },
    {
      "midi": 62,
      "hit": false,
      "t": 264999.73500000016,
      "d": 1101.8507499999832,
      "v": 1
    },
    {
      "midi": 62,
      "hit": false,
      "t": 265555.2899999996,
      "d": 1090.2766875000088,
      "v": 75
    },
    {
      "midi": 66,
      "hit": false,
      "t": 265555.2899999996,
      "d": 1090.2766875000088,
      "v": 66
    },
    {
      "midi": 57,
      "hit": false,
      "t": 266110.84499999956,
      "d": 534.7216875000158,
      "v": 54
    },
    {
      "midi": 52,
      "hit": false,
      "t": 266110.84500000015,
      "d": 5546.290749999986,
      "v": 1
    },
    {
      "midi": 64,
      "hit": false,
      "t": 266110.84500000015,
      "d": 5546.290749999986,
      "v": 1
    },
    {
      "midi": 45,
      "hit": false,
      "t": 266666.39999999956,
      "d": 2756.941687499988,
      "v": 67
    },
    {
      "midi": 64,
      "hit": false,
      "t": 266666.39999999956,
      "d": 2756.941687499988,
      "v": 80
    },
    {
      "midi": 61,
      "hit": false,
      "t": 266666.39999999956,
      "d": 3312.496687499981,
      "v": 55
    },
    {
      "midi": 57,
      "hit": false,
      "t": 268333.06499999954,
      "d": 1090.2766875000088,
      "v": 81
    },
    {
      "midi": 45,
      "hit": false,
      "t": 269444.1749999995,
      "d": 1645.8316875000019,
      "v": 96
    },
    {
      "midi": 59,
      "hit": false,
      "t": 269999.7299999995,
      "d": 3868.051687500032,
      "v": 81
    },
    {
      "midi": 61,
      "hit": false,
      "t": 269999.7299999995,
      "d": 3868.051687500032,
      "v": 45
    },
    {
      "midi": 64,
      "hit": false,
      "t": 269999.7299999995,
      "d": 3868.051687500032,
      "v": 78
    },
    {
      "midi": 57,
      "hit": false,
      "t": 270555.2849999995,
      "d": 1645.8316875000019,
      "v": 79
    },
    {
      "midi": 45,
      "hit": false,
      "t": 271110.8399999995,
      "d": 3868.051687500032,
      "v": 79
    },
    {
      "midi": 49,
      "hit": false,
      "t": 271666.39500000014,
      "d": 1101.8507499999832,
      "v": 1
    },
    {
      "midi": 61,
      "hit": false,
      "t": 271666.39500000014,
      "d": 1101.8507499999832,
      "v": 1
    },
    {
      "midi": 57,
      "hit": false,
      "t": 272777.50499999954,
      "d": 1090.2766875000088,
      "v": 86
    },
    {
      "midi": 50,
      "hit": false,
      "t": 272777.5050000001,
      "d": 546.2957499999902,
      "v": 1
    },
    {
      "midi": 62,
      "hit": false,
      "t": 272777.5050000001,
      "d": 546.2957499999902,
      "v": 1
    },
    {
      "midi": 52,
      "hit": false,
      "t": 273333.0600000001,
      "d": 546.2957499999902,
      "v": 1
    },
    {
      "midi": 64,
      "hit": false,
      "t": 273333.0600000001,
      "d": 546.2957499999902,
      "v": 1
    },
    {
      "midi": 57,
      "hit": false,
      "t": 273888.6149999995,
      "d": 1090.2766875000088,
      "v": 77
    },
    {
      "midi": 50,
      "hit": false,
      "t": 273888.6150000001,
      "d": 546.2957499999902,
      "v": 1
    },
    {
      "midi": 62,
      "hit": false,
      "t": 273888.6150000001,
      "d": 546.2957499999902,
      "v": 1
    },
    {
      "midi": 61,
      "hit": false,
      "t": 274444.1699999995,
      "d": 1090.2766875000088,
      "v": 53
    },
    {
      "midi": 64,
      "hit": false,
      "t": 274444.1699999995,
      "d": 1090.2766875000088,
      "v": 81
    },
    {
      "midi": 52,
      "hit": false,
      "t": 274444.1700000001,
      "d": 546.2957499999902,
      "v": 1
    },
    {
      "midi": 64,
      "hit": false,
      "t": 274444.1700000001,
      "d": 546.2957499999902,
      "v": 1
    },
    {
      "midi": 57,
      "hit": false,
      "t": 274999.7249999995,
      "d": 534.7216875000158,
      "v": 59
    },
    {
      "midi": 54,
      "hit": false,
      "t": 274999.7250000001,
      "d": 2212.9607500000275,
      "v": 1
    },
    {
      "midi": 66,
      "hit": false,
      "t": 274999.7250000001,
      "d": 2212.9607500000275,
      "v": 1
    },
    {
      "midi": 38,
      "hit": false,
      "t": 275555.2799999995,
      "d": 1645.8316875000019,
      "v": 69
    },
    {
      "midi": 62,
      "hit": false,
      "t": 275555.2799999995,
      "d": 2756.941687499988,
      "v": 63
    },
    {
      "midi": 69,
      "hit": false,
      "t": 275555.2799999995,
      "d": 2756.941687499988,
      "v": 50
    },
    {
      "midi": 57,
      "hit": false,
      "t": 276666.3899999995,
      "d": 1090.2766875000088,
      "v": 56
    },
    {
      "midi": 38,
      "hit": false,
      "t": 277221.9449999995,
      "d": 2201.386687499995,
      "v": 83
    },
    {
      "midi": 52,
      "hit": false,
      "t": 277221.9450000001,
      "d": 546.2957499999902,
      "v": 1
    },
    {
      "midi": 64,
      "hit": false,
      "t": 277221.9450000001,
      "d": 546.2957499999902,
      "v": 1
    },
    {
      "midi": 50,
      "hit": false,
      "t": 277777.5000000001,
      "d": 3879.6257500000065,
      "v": 1
    },
    {
      "midi": 62,
      "hit": false,
      "t": 277777.5000000001,
      "d": 3879.6257500000065,
      "v": 1
    },
    {
      "midi": 57,
      "hit": false,
      "t": 278333.05499999947,
      "d": 534.7216875000158,
      "v": 60
    },
    {
      "midi": 62,
      "hit": false,
      "t": 278888.60999999946,
      "d": 534.7216875000158,
      "v": 66
    },
    {
      "midi": 69,
      "hit": false,
      "t": 278888.60999999946,
      "d": 1090.2766875000088,
      "v": 81
    },
    {
      "midi": 57,
      "hit": false,
      "t": 279444.16499999946,
      "d": 534.7216875000158,
      "v": 50
    },
    {
      "midi": 38,
      "hit": false,
      "t": 279444.16499999946,
      "d": 2201.386687499995,
      "v": 51
    },
    {
      "midi": 60,
      "hit": false,
      "t": 279999.71999999945,
      "d": 2756.941687499988,
      "v": 87
    },
    {
      "midi": 69,
      "hit": false,
      "t": 279999.71999999945,
      "d": 4423.606687499967,
      "v": 92
    },
    {
      "midi": 57,
      "hit": false,
      "t": 281110.82999999943,
      "d": 1090.2766875000088,
      "v": 39
    },
    {
      "midi": 50,
      "hit": false,
      "t": 281666.3849999994,
      "d": 2756.941687499988,
      "v": 87
    },
    {
      "midi": 50,
      "hit": false,
      "t": 281666.3850000001,
      "d": 546.2957499999902,
      "v": 1
    },
    {
      "midi": 59,
      "hit": false,
      "t": 281666.3850000001,
      "d": 546.2957499999902,
      "v": 1
    },
    {
      "midi": 62,
      "hit": false,
      "t": 281666.3850000001,
      "d": 546.2957499999902,
      "v": 1
    },
    {
      "midi": 57,
      "hit": false,
      "t": 282221.9399999994,
      "d": 1645.8316875000019,
      "v": 53
    },
    {
      "midi": 55,
      "hit": false,
      "t": 282221.9400000001,
      "d": 546.2957499999902,
      "v": 1
    },
    {
      "midi": 59,
      "hit": false,
      "t": 282221.9400000001,
      "d": 546.2957499999902,
      "v": 1
    },
    {
      "midi": 67,
      "hit": false,
      "t": 282221.9400000001,
      "d": 546.2957499999902,
      "v": 1
    },
    {
      "midi": 62,
      "hit": false,
      "t": 282777.4949999994,
      "d": 1645.8316875000019,
      "v": 78
    },
    {
      "midi": 55,
      "hit": false,
      "t": 282777.4950000001,
      "d": 6657.400749999972,
      "v": 1
    },
    {
      "midi": 62,
      "hit": false,
      "t": 282777.4950000001,
      "d": 6657.400749999972,
      "v": 1
    },
    {
      "midi": 67,
      "hit": false,
      "t": 282777.4950000001,
      "d": 6657.400749999972,
      "v": 1
    },
    {
      "midi": 64,
      "hit": false,
      "t": 283333.0499999994,
      "d": 1090.2766875000088,
      "v": 67
    },
    {
      "midi": 57,
      "hit": false,
      "t": 283888.6049999994,
      "d": 534.7216875000158,
      "v": 57
    },
    {
      "midi": 59,
      "hit": false,
      "t": 284444.1599999994,
      "d": 1090.2766875000088,
      "v": 83
    },
    {
      "midi": 62,
      "hit": false,
      "t": 284444.1599999994,
      "d": 1645.8316875000019,
      "v": 72
    },
    {
      "midi": 55,
      "hit": false,
      "t": 284999.7149999994,
      "d": 534.7216875000158,
      "v": 65
    },
    {
      "midi": 59,
      "hit": false,
      "t": 285555.2699999994,
      "d": 1090.2766875000088,
      "v": 78
    },
    {
      "midi": 55,
      "hit": false,
      "t": 286110.8249999994,
      "d": 534.7216875000158,
      "v": 63
    },
    {
      "midi": 62,
      "hit": false,
      "t": 286666.37999999936,
      "d": 534.7216875000158,
      "v": 59
    },
    {
      "midi": 62,
      "hit": false,
      "t": 287221.93499999936,
      "d": 1090.2766875000088,
      "v": 79
    },
    {
      "midi": 67,
      "hit": false,
      "t": 287777.48999999935,
      "d": 1090.2766875000088,
      "v": 91
    },
    {
      "midi": 71,
      "hit": false,
      "t": 288333.04499999934,
      "d": 4979.16168749996,
      "v": 91
    },
    {
      "midi": 62,
      "hit": false,
      "t": 288888.59999999934,
      "d": 534.7216875000158,
      "v": 56
    },
    {
      "midi": 62,
      "hit": false,
      "t": 289444.15499999933,
      "d": 1090.2766875000088,
      "v": 50
    },
    {
      "midi": 55,
      "hit": false,
      "t": 289444.1550000001,
      "d": 1101.8507499999832,
      "v": 1
    },
    {
      "midi": 67,
      "hit": false,
      "t": 289444.1550000001,
      "d": 1101.8507499999832,
      "v": 1
    },
    {
      "midi": 67,
      "hit": false,
      "t": 289999.7099999993,
      "d": 1645.8316875000019,
      "v": 67
    },
    {
      "midi": 62,
      "hit": false,
      "t": 290555.2649999993,
      "d": 534.7216875000158,
      "v": 47
    },
    {
      "midi": 54,
      "hit": false,
      "t": 290555.2650000001,
      "d": 1101.8507499999832,
      "v": 1
    },
    {
      "midi": 66,
      "hit": false,
      "t": 290555.2650000001,
      "d": 1101.8507499999832,
      "v": 1
    },
    {
      "midi": 74,
      "hit": false,
      "t": 291110.8199999993,
      "d": 2201.386687499995,
      "v": 42
    },
    {
      "midi": 62,
      "hit": false,
      "t": 291666.3749999993,
      "d": 534.7216875000158,
      "v": 44
    },
    {
      "midi": 52,
      "hit": false,
      "t": 291666.37500000006,
      "d": 1101.8507499999832,
      "v": 1
    },
    {
      "midi": 64,
      "hit": false,
      "t": 291666.37500000006,
      "d": 1101.8507499999832,
      "v": 1
    },
    {
      "midi": 67,
      "hit": false,
      "t": 292221.9299999993,
      "d": 1090.2766875000088,
      "v": 63
    },
    {
      "midi": 62,
      "hit": false,
      "t": 292777.4849999993,
      "d": 534.7216875000158,
      "v": 42
    },
    {
      "midi": 54,
      "hit": false,
      "t": 292777.48500000004,
      "d": 5546.290749999986,
      "v": 1
    },
    {
      "midi": 66,
      "hit": false,
      "t": 292777.48500000004,
      "d": 5546.290749999986,
      "v": 1
    },
    {
      "midi": 62,
      "hit": false,
      "t": 293333.0399999993,
      "d": 1090.2766875000088,
      "v": 66
    },
    {
      "midi": 69,
      "hit": false,
      "t": 293333.0399999993,
      "d": 4979.16168749996,
      "v": 79
    },
    {
      "midi": 57,
      "hit": false,
      "t": 293888.5949999993,
      "d": 534.7216875000158,
      "v": 56
    },
    {
      "midi": 64,
      "hit": false,
      "t": 294444.14999999927,
      "d": 1645.8316875000019,
      "v": 92
    },
    {
      "midi": 57,
      "hit": false,
      "t": 295555.25999999925,
      "d": 1090.2766875000088,
      "v": 60
    },
    {
      "midi": 64,
      "hit": false,
      "t": 296666.36999999924,
      "d": 2756.941687499988,
      "v": 74
    },
    {
      "midi": 57,
      "hit": false,
      "t": 297221.92499999923,
      "d": 534.7216875000158,
      "v": 51
    },
    {
      "midi": 62,
      "hit": false,
      "t": 297777.4799999992,
      "d": 1645.8316875000019,
      "v": 45
    },
    {
      "midi": 57,
      "hit": false,
      "t": 298333.0349999992,
      "d": 534.7216875000158,
      "v": 62
    },
    {
      "midi": 54,
      "hit": false,
      "t": 298333.03500000003,
      "d": 1101.8507499999832,
      "v": 1
    },
    {
      "midi": 62,
      "hit": false,
      "t": 298333.03500000003,
      "d": 1101.8507499999832,
      "v": 1
    },
    {
      "midi": 66,
      "hit": false,
      "t": 298333.03500000003,
      "d": 1101.8507499999832,
      "v": 1
    },
    {
      "midi": 69,
      "hit": false,
      "t": 298888.5899999992,
      "d": 2201.386687499995,
      "v": 61
    },
    {
      "midi": 57,
      "hit": false,
      "t": 299444.1449999992,
      "d": 534.7216875000158,
      "v": 67
    },
    {
      "midi": 52,
      "hit": false,
      "t": 299444.145,
      "d": 1101.8507499999832,
      "v": 1
    },
    {
      "midi": 59,
      "hit": false,
      "t": 299444.145,
      "d": 1101.8507499999832,
      "v": 1
    },
    {
      "midi": 64,
      "hit": false,
      "t": 299444.145,
      "d": 1101.8507499999832,
      "v": 1
    },
    {
      "midi": 62,
      "hit": false,
      "t": 299999.6999999992,
      "d": 1090.2766875000088,
      "v": 71
    },
    {
      "midi": 57,
      "hit": false,
      "t": 300555.2549999992,
      "d": 534.7216875000158,
      "v": 51
    },
    {
      "midi": 50,
      "hit": false,
      "t": 300555.255,
      "d": 1101.8507499999832,
      "v": 1
    },
    {
      "midi": 57,
      "hit": false,
      "t": 300555.255,
      "d": 1101.8507499999832,
      "v": 1
    },
    {
      "midi": 62,
      "hit": false,
      "t": 300555.255,
      "d": 1101.8507499999832,
      "v": 1
    },
    {
      "midi": 54,
      "hit": false,
      "t": 301110.8099999992,
      "d": 1090.2766875000088,
      "v": 59
    },
    {
      "midi": 59,
      "hit": false,
      "t": 301110.8099999992,
      "d": 1090.2766875000088,
      "v": 98
    },
    {
      "midi": 62,
      "hit": false,
      "t": 301110.8099999992,
      "d": 1090.2766875000088,
      "v": 80
    },
    {
      "midi": 52,
      "hit": false,
      "t": 301666.365,
      "d": 5546.290749999986,
      "v": 1
    },
    {
      "midi": 59,
      "hit": false,
      "t": 301666.365,
      "d": 5546.290749999986,
      "v": 1
    },
    {
      "midi": 64,
      "hit": false,
      "t": 301666.365,
      "d": 5546.290749999986,
      "v": 1
    },
    {
      "midi": 59,
      "hit": false,
      "t": 302221.91999999917,
      "d": 534.7216875000158,
      "v": 75
    },
    {
      "midi": 64,
      "hit": false,
      "t": 302221.91999999917,
      "d": 534.7216875000158,
      "v": 77
    },
    {
      "midi": 55,
      "hit": false,
      "t": 302777.47499999916,
      "d": 615.7401250000112,
      "v": 54
    },
    {
      "midi": 59,
      "hit": false,
      "t": 303333.02999999915,
      "d": 534.7216875000158,
      "v": 67
    },
    {
      "midi": 64,
      "hit": false,
      "t": 303333.02999999915,
      "d": 534.7216875000158,
      "v": 56
    },
    {
      "midi": 55,
      "hit": false,
      "t": 303888.58499999915,
      "d": 534.7216875000158,
      "v": 50
    },
    {
      "midi": 64,
      "hit": false,
      "t": 304444.13999999914,
      "d": 534.7216875000158,
      "v": 69
    },
    {
      "midi": 59,
      "hit": false,
      "t": 304444.13999999914,
      "d": 1090.2766875000088,
      "v": 81
    },
    {
      "midi": 55,
      "hit": false,
      "t": 304999.69499999913,
      "d": 534.7216875000158,
      "v": 54
    },
    {
      "midi": 71,
      "hit": false,
      "t": 304999.69499999913,
      "d": 1645.8316875000019,
      "v": 87
    },
    {
      "midi": 59,
      "hit": false,
      "t": 305555.2499999991,
      "d": 1090.2766875000088,
      "v": 68
    },
    {
      "midi": 64,
      "hit": false,
      "t": 305555.2499999991,
      "d": 1090.2766875000088,
      "v": 43
    },
    {
      "midi": 55,
      "hit": false,
      "t": 306110.8049999991,
      "d": 534.7216875000158,
      "v": 51
    },
    {
      "midi": 64,
      "hit": false,
      "t": 306666.3599999991,
      "d": 534.7216875000158,
      "v": 65
    },
    {
      "midi": 61,
      "hit": false,
      "t": 306666.3599999991,
      "d": 1090.2766875000088,
      "v": 50
    },
    {
      "midi": 45,
      "hit": false,
      "t": 306666.3599999991,
      "d": 4423.606687499967,
      "v": 60
    },
    {
      "midi": 57,
      "hit": false,
      "t": 307221.9149999991,
      "d": 534.7216875000158,
      "v": 61
    },
    {
      "midi": 61,
      "hit": false,
      "t": 307777.4699999991,
      "d": 534.7216875000158,
      "v": 41
    },
    {
      "midi": 64,
      "hit": false,
      "t": 307777.4699999991,
      "d": 534.7216875000158,
      "v": 77
    },
    {
      "midi": 57,
      "hit": false,
      "t": 308333.0249999991,
      "d": 534.7216875000158,
      "v": 66
    },
    {
      "midi": 61,
      "hit": false,
      "t": 308888.5799999991,
      "d": 1090.2766875000088,
      "v": 48
    },
    {
      "midi": 64,
      "hit": false,
      "t": 308888.5799999991,
      "d": 1090.2766875000088,
      "v": 73
    },
    {
      "midi": 57,
      "hit": false,
      "t": 309444.1349999991,
      "d": 534.7216875000158,
      "v": 66
    },
    {
      "midi": 61,
      "hit": false,
      "t": 309999.6899999991,
      "d": 1090.2766875000088,
      "v": 38
    },
    {
      "midi": 64,
      "hit": false,
      "t": 309999.6899999991,
      "d": 1090.2766875000088,
      "v": 56
    },
    {
      "midi": 57,
      "hit": false,
      "t": 310555.24499999906,
      "d": 534.7216875000158,
      "v": 54
    },
    {
      "midi": 62,
      "hit": false,
      "t": 311110.79999999906,
      "d": 534.7216875000158,
      "v": 75
    },
    {
      "midi": 69,
      "hit": false,
      "t": 311110.79999999906,
      "d": 2201.386687499995,
      "v": 79
    },
    {
      "midi": 57,
      "hit": false,
      "t": 311666.35499999905,
      "d": 534.7216875000158,
      "v": 60
    },
    {
      "midi": 62,
      "hit": false,
      "t": 312221.90999999904,
      "d": 534.7216875000158,
      "v": 75
    },
    {
      "midi": 57,
      "hit": false,
      "t": 312777.46499999904,
      "d": 1645.8316875000019,
      "v": 63
    },
    {
      "midi": 62,
      "hit": false,
      "t": 313333.019999999,
      "d": 534.7216875000158,
      "v": 55
    },
    {
      "midi": 69,
      "hit": false,
      "t": 313858.48243749904,
      "d": 1634.2576249999693,
      "v": 101
    },
    {
      "midi": 64,
      "hit": false,
      "t": 313858.48243749904,
      "d": 1645.8316874999437,
      "v": 96
    },
    {
      "midi": 66,
      "hit": false,
      "t": 314089.96368749905,
      "d": 1402.7763749999576,
      "v": 37
    },
    {
      "midi": 62,
      "hit": false,
      "t": 314444.129999999,
      "d": 1060.1841249999707,
      "v": 66
    },
    {
      "midi": 57,
      "hit": false,
      "t": 314911.72212499904,
      "d": 608.7956874999218,
      "v": 55
    },
    {
      "midi": 57,
      "hit": false,
      "t": 315543.66593749897,
      "d": 2884.256374999939,
      "v": 61
    },
    {
      "midi": 64,
      "hit": false,
      "t": 315555.23999999894,
      "d": 2884.256374999939,
      "v": 60
    },
    {
      "midi": 61,
      "hit": false,
      "t": 315571.4436874989,
      "d": 2877.311937499966,
      "v": 65
    },
    {
      "midi": 50,
      "hit": false,
      "t": 319999.6799999989,
      "d": 3868.051687499974,
      "v": 70
    },
    {
      "midi": 57,
      "hit": false,
      "t": 320555.2349999989,
      "d": 3312.496687499981,
      "v": 57
    },
    {
      "midi": 62,
      "hit": false,
      "t": 321110.7899999989,
      "d": 1645.8316875000019,
      "v": 64
    },
    {
      "midi": 64,
      "hit": false,
      "t": 322221.89999999886,
      "d": 1090.2766875000088,
      "v": 65
    },
    {
      "midi": 66,
      "hit": false,
      "t": 323333.00999999885,
      "d": 534.7216875000158,
      "v": 62
    },
    {
      "midi": 76,
      "hit": false,
      "t": 323888.56499999884,
      "d": 534.7216875000158,
      "v": 55
    },
    {
      "midi": 78,
      "hit": false,
      "t": 323888.56499999884,
      "d": 3868.051687500032,
      "v": 45
    },
    {
      "midi": 81,
      "hit": false,
      "t": 323888.56499999884,
      "d": 3868.051687500032,
      "v": 62
    },
    {
      "midi": 76,
      "hit": false,
      "t": 324444.11999999883,
      "d": 3312.496687500039,
      "v": 71
    },
    {
      "midi": 74,
      "hit": false,
      "t": 324999.6749999988,
      "d": 2756.941687500046,
      "v": 51
    },
    {
      "midi": 69,
      "hit": false,
      "t": 325555.2299999988,
      "d": 1090.2766875000088,
      "v": 73
    },
    {
      "midi": 69,
      "hit": false,
      "t": 327221.89499999885,
      "d": 534.7216875000158,
      "v": 39
    },
    {
      "midi": 59,
      "hit": false,
      "t": 327777.44999999885,
      "d": 1090.2766875000088,
      "v": 71
    },
    {
      "midi": 67,
      "hit": false,
      "t": 327777.44999999885,
      "d": 1090.2766875000088,
      "v": 80
    },
    {
      "midi": 45,
      "hit": false,
      "t": 328888.55999999883,
      "d": 7756.936687499867,
      "v": 69
    },
    {
      "midi": 52,
      "hit": false,
      "t": 328888.55999999883,
      "d": 7756.936687499867,
      "v": 68
    },
    {
      "midi": 64,
      "hit": false,
      "t": 329444.1149999988,
      "d": 1090.2766875000088,
      "v": 59
    },
    {
      "midi": 69,
      "hit": false,
      "t": 329999.6699999988,
      "d": 534.7216875000158,
      "v": 34
    },
    {
      "midi": 64,
      "hit": false,
      "t": 330555.2249999988,
      "d": 1645.8316875000019,
      "v": 54
    },
    {
      "midi": 71,
      "hit": false,
      "t": 331069.1133749988,
      "d": 2027.7757499999716,
      "v": 80
    },
    {
      "midi": 76,
      "hit": false,
      "t": 331069.1133749988,
      "d": 5488.420437499939,
      "v": 80
    },
    {
      "midi": 73,
      "hit": false,
      "t": 331636.2424374988,
      "d": 3636.570437499904,
      "v": 51
    },
    {
      "midi": 69,
      "hit": false,
      "t": 332221.8899999988,
      "d": 1743.053812499973,
      "v": 45
    },
    {
      "midi": 64,
      "hit": false,
      "t": 332839.9449374988,
      "d": 766.2029374999693,
      "v": 33
    },
    {
      "midi": 71,
      "hit": false,
      "t": 333367.72218749876,
      "d": 3201.3856874999474,
      "v": 38
    },
    {
      "midi": 64,
      "hit": false,
      "t": 333846.88837499876,
      "d": 673.6104374999995,
      "v": 48
    },
    {
      "midi": 69,
      "hit": false,
      "t": 334448.73962499877,
      "d": 2120.3682499999413,
      "v": 71
    },
    {
      "midi": 64,
      "hit": false,
      "t": 335015.86868749873,
      "d": 766.2029374999693,
      "v": 43
    },
    {
      "midi": 73,
      "hit": false,
      "t": 335485.7756249987,
      "d": 1071.7581875000033,
      "v": 51
    },
    {
      "midi": 64,
      "hit": false,
      "t": 336064.4787499987,
      "d": 534.7216874999576,
      "v": 39
    },
    {
      "midi": 50,
      "hit": false,
      "t": 336666.3299999987,
      "d": 1090.2766875000088,
      "v": 66
    },
    {
      "midi": 54,
      "hit": false,
      "t": 336666.3299999987,
      "d": 1090.2766875000088,
      "v": 57
    },
    {
      "midi": 57,
      "hit": false,
      "t": 336666.3299999987,
      "d": 1090.2766875000088,
      "v": 76
    },
    {
      "midi": 50,
      "hit": false,
      "t": 337777.43999999866,
      "d": 1645.8316875000019,
      "v": 59
    },
    {
      "midi": 55,
      "hit": false,
      "t": 337777.43999999866,
      "d": 1645.8316875000019,
      "v": 65
    },
    {
      "midi": 59,
      "hit": false,
      "t": 337777.43999999866,
      "d": 1645.8316875000019,
      "v": 63
    },
    {
      "midi": 67,
      "hit": false,
      "t": 339444.10499999864,
      "d": 1090.2766875000088,
      "v": 66
    },
    {
      "midi": 71,
      "hit": false,
      "t": 339444.10499999864,
      "d": 2756.941687499988,
      "v": 71
    },
    {
      "midi": 67,
      "hit": false,
      "t": 340555.2149999986,
      "d": 1645.8316875000019,
      "v": 39
    },
    {
      "midi": 79,
      "hit": false,
      "t": 341110.7699999986,
      "d": 1090.2766875000088,
      "v": 56
    },
    {
      "midi": 57,
      "hit": false,
      "t": 342221.8799999986,
      "d": 1645.8316875000019,
      "v": 60
    },
    {
      "midi": 61,
      "hit": false,
      "t": 342221.8799999986,
      "d": 4423.606687499967,
      "v": 58
    },
    {
      "midi": 64,
      "hit": false,
      "t": 342221.8799999986,
      "d": 4423.606687499967,
      "v": 63
    },
    {
      "midi": 57,
      "hit": false,
      "t": 343888.5449999986,
      "d": 1090.2766875000088,
      "v": 53
    },
    {
      "midi": 57,
      "hit": false,
      "t": 344999.6549999986,
      "d": 1645.8316875000019,
      "v": 39
    },
    {
      "midi": 67,
      "hit": false,
      "t": 345555.20999999857,
      "d": 1090.2766875000088,
      "v": 80
    },
    {
      "midi": 62,
      "hit": false,
      "t": 346666.31999999855,
      "d": 1645.8316875000019,
      "v": 62
    },
    {
      "midi": 66,
      "hit": false,
      "t": 346666.31999999855,
      "d": 2201.386687499995,
      "v": 52
    },
    {
      "midi": 64,
      "hit": false,
      "t": 346666.31999999855,
      "d": 7201.38168749999,
      "v": 65
    },
    {
      "midi": 57,
      "hit": false,
      "t": 347314.4674999986,
      "d": 1291.6653749999823,
      "v": 38
    },
    {
      "midi": 62,
      "hit": false,
      "t": 348332.98499999853,
      "d": 5534.716687500011,
      "v": 63
    },
    {
      "midi": 66,
      "hit": false,
      "t": 349444.0949999986,
      "d": 4423.606687499967,
      "v": 57
    },
    {
      "midi": 69,
      "hit": false,
      "t": 349999.64999999857,
      "d": 3868.051687499974,
      "v": 57
    },
    {
      "midi": 74,
      "hit": false,
      "t": 351110.75999999855,
      "d": 2201.386687499995,
      "v": 84
    },
    {
      "midi": 67,
      "hit": false,
      "t": 355555.19999999856,
      "d": 3312.496687499981,
      "v": 74
    },
    {
      "midi": 71,
      "hit": false,
      "t": 355555.19999999856,
      "d": 3312.496687499981,
      "v": 74
    },
    {
      "midi": 62,
      "hit": false,
      "t": 356666.30999999854,
      "d": 534.7216875000158,
      "v": 47
    },
    {
      "midi": 62,
      "hit": false,
      "t": 357221.86499999854,
      "d": 1090.2766875000088,
      "v": 72
    },
    {
      "midi": 62,
      "hit": false,
      "t": 358332.9749999985,
      "d": 1645.8316875000019,
      "v": 42
    },
    {
      "midi": 69,
      "hit": false,
      "t": 358888.5299999985,
      "d": 4423.606687500025,
      "v": 92
    },
    {
      "midi": 74,
      "hit": false,
      "t": 358888.5299999985,
      "d": 4423.606687500025,
      "v": 85
    },
    {
      "midi": 71,
      "hit": false,
      "t": 359444.0849999985,
      "d": 3868.051687500032,
      "v": 44
    },
    {
      "midi": 67,
      "hit": false,
      "t": 359999.6399999985,
      "d": 3312.496687500039,
      "v": 49
    },
    {
      "midi": 62,
      "hit": false,
      "t": 360555.1949999985,
      "d": 534.7216875000158,
      "v": 43
    },
    {
      "midi": 62,
      "hit": false,
      "t": 361666.30499999854,
      "d": 1090.2766875000088,
      "v": 36
    },
    {
      "midi": 62,
      "hit": false,
      "t": 362777.4149999985,
      "d": 534.7216875000158,
      "v": 45
    },
    {
      "midi": 62,
      "hit": false,
      "t": 364444.07999999856,
      "d": 1645.8316875000019,
      "v": 78
    },
    {
      "midi": 66,
      "hit": false,
      "t": 364444.07999999856,
      "d": 2756.941687499988,
      "v": 59
    },
    {
      "midi": 69,
      "hit": false,
      "t": 364444.07999999856,
      "d": 2756.941687499988,
      "v": 80
    },
    {
      "midi": 57,
      "hit": false,
      "t": 365555.18999999855,
      "d": 534.7216875000158,
      "v": 55
    },
    {
      "midi": 62,
      "hit": false,
      "t": 366110.74499999854,
      "d": 1090.2766875000088,
      "v": 68
    },
    {
      "midi": 57,
      "hit": false,
      "t": 367221.8549999985,
      "d": 2201.386687499995,
      "v": 69
    },
    {
      "midi": 64,
      "hit": false,
      "t": 367777.4099999985,
      "d": 1090.2766875000088,
      "v": 96
    },
    {
      "midi": 69,
      "hit": false,
      "t": 367777.4099999985,
      "d": 4423.606687500083,
      "v": 102
    },
    {
      "midi": 66,
      "hit": false,
      "t": 368332.9649999985,
      "d": 3868.0516875000903,
      "v": 65
    },
    {
      "midi": 62,
      "hit": false,
      "t": 368888.5199999985,
      "d": 1645.83168750006,
      "v": 45
    },
    {
      "midi": 57,
      "hit": false,
      "t": 369999.62999999855,
      "d": 1090.2766875000088,
      "v": 44
    },
    {
      "midi": 62,
      "hit": false,
      "t": 370555.18499999854,
      "d": 1645.83168750006,
      "v": 63
    },
    {
      "midi": 57,
      "hit": false,
      "t": 371666.2949999986,
      "d": 534.7216875000158,
      "v": 56
    },
    {
      "midi": 62,
      "hit": false,
      "t": 372221.8499999986,
      "d": 1090.2766875000088,
      "v": 75
    },
    {
      "midi": 66,
      "hit": false,
      "t": 372221.8499999986,
      "d": 1090.2766875000088,
      "v": 66
    },
    {
      "midi": 57,
      "hit": false,
      "t": 372777.4049999986,
      "d": 534.7216875000158,
      "v": 54
    },
    {
      "midi": 45,
      "hit": false,
      "t": 373332.95999999857,
      "d": 2756.941687499988,
      "v": 67
    },
    {
      "midi": 64,
      "hit": false,
      "t": 373332.95999999857,
      "d": 2756.941687499988,
      "v": 80
    },
    {
      "midi": 61,
      "hit": false,
      "t": 373332.95999999857,
      "d": 3312.496687499981,
      "v": 55
    },
    {
      "midi": 57,
      "hit": false,
      "t": 374999.62499999854,
      "d": 1090.2766875000088,
      "v": 81
    },
    {
      "midi": 45,
      "hit": false,
      "t": 376110.73499999853,
      "d": 1645.8316875000019,
      "v": 96
    },
    {
      "midi": 59,
      "hit": false,
      "t": 376666.2899999985,
      "d": 3868.051687500032,
      "v": 81
    },
    {
      "midi": 61,
      "hit": false,
      "t": 376666.2899999985,
      "d": 3868.051687500032,
      "v": 45
    },
    {
      "midi": 64,
      "hit": false,
      "t": 376666.2899999985,
      "d": 3868.051687500032,
      "v": 78
    },
    {
      "midi": 57,
      "hit": false,
      "t": 377221.8449999985,
      "d": 1645.8316875000019,
      "v": 79
    },
    {
      "midi": 45,
      "hit": false,
      "t": 377777.3999999985,
      "d": 3868.051687500032,
      "v": 79
    },
    {
      "midi": 57,
      "hit": false,
      "t": 379444.06499999855,
      "d": 1090.2766875000088,
      "v": 86
    },
    {
      "midi": 57,
      "hit": false,
      "t": 380555.17499999853,
      "d": 1090.2766875000088,
      "v": 77
    },
    {
      "midi": 61,
      "hit": false,
      "t": 381110.7299999985,
      "d": 1090.2766875000088,
      "v": 53
    },
    {
      "midi": 64,
      "hit": false,
      "t": 381110.7299999985,
      "d": 1090.2766875000088,
      "v": 81
    },
    {
      "midi": 57,
      "hit": false,
      "t": 381666.2849999985,
      "d": 534.7216875000158,
      "v": 59
    },
    {
      "midi": 38,
      "hit": false,
      "t": 382221.8399999985,
      "d": 1645.8316875000019,
      "v": 69
    },
    {
      "midi": 62,
      "hit": false,
      "t": 382221.8399999985,
      "d": 2756.941687499988,
      "v": 63
    },
    {
      "midi": 69,
      "hit": false,
      "t": 382221.8399999985,
      "d": 2756.941687499988,
      "v": 50
    },
    {
      "midi": 57,
      "hit": false,
      "t": 383332.9499999985,
      "d": 1090.2766875000088,
      "v": 56
    },
    {
      "midi": 38,
      "hit": false,
      "t": 383888.5049999985,
      "d": 2201.386687499995,
      "v": 83
    },
    {
      "midi": 57,
      "hit": false,
      "t": 384999.6149999985,
      "d": 534.7216875000158,
      "v": 60
    },
    {
      "midi": 62,
      "hit": false,
      "t": 385555.16999999847,
      "d": 534.7216875000158,
      "v": 66
    },
    {
      "midi": 69,
      "hit": false,
      "t": 385555.16999999847,
      "d": 1090.2766875000088,
      "v": 81
    },
    {
      "midi": 57,
      "hit": false,
      "t": 386110.72499999846,
      "d": 534.7216875000158,
      "v": 50
    },
    {
      "midi": 38,
      "hit": false,
      "t": 386110.72499999846,
      "d": 2201.386687499995,
      "v": 51
    },
    {
      "midi": 60,
      "hit": false,
      "t": 386666.27999999846,
      "d": 2756.941687499988,
      "v": 87
    },
    {
      "midi": 69,
      "hit": false,
      "t": 386666.27999999846,
      "d": 4423.606687499967,
      "v": 92
    },
    {
      "midi": 57,
      "hit": false,
      "t": 387777.38999999844,
      "d": 1090.2766875000088,
      "v": 39
    },
    {
      "midi": 50,
      "hit": false,
      "t": 388332.94499999844,
      "d": 2756.941687499988,
      "v": 87
    },
    {
      "midi": 57,
      "hit": false,
      "t": 388888.4999999984,
      "d": 1645.8316875000019,
      "v": 53
    },
    {
      "midi": 62,
      "hit": false,
      "t": 389444.0549999984,
      "d": 1645.8316875000019,
      "v": 78
    },
    {
      "midi": 64,
      "hit": false,
      "t": 389999.6099999984,
      "d": 1090.2766875000088,
      "v": 67
    },
    {
      "midi": 57,
      "hit": false,
      "t": 390555.1649999984,
      "d": 534.7216875000158,
      "v": 57
    },
    {
      "midi": 59,
      "hit": false,
      "t": 391110.7199999984,
      "d": 1090.2766875000088,
      "v": 83
    },
    {
      "midi": 62,
      "hit": false,
      "t": 391110.7199999984,
      "d": 1645.8316875000019,
      "v": 72
    },
    {
      "midi": 55,
      "hit": false,
      "t": 391666.2749999984,
      "d": 534.7216875000158,
      "v": 65
    },
    {
      "midi": 59,
      "hit": false,
      "t": 392221.8299999984,
      "d": 1090.2766875000088,
      "v": 78
    },
    {
      "midi": 55,
      "hit": false,
      "t": 392777.3849999984,
      "d": 534.7216875000158,
      "v": 63
    },
    {
      "midi": 62,
      "hit": false,
      "t": 393332.9399999984,
      "d": 534.7216875000158,
      "v": 59
    },
    {
      "midi": 62,
      "hit": false,
      "t": 393888.49499999837,
      "d": 1090.2766875000088,
      "v": 79
    },
    {
      "midi": 67,
      "hit": false,
      "t": 394444.04999999836,
      "d": 1090.2766875000088,
      "v": 91
    },
    {
      "midi": 71,
      "hit": false,
      "t": 394999.60499999835,
      "d": 4979.16168749996,
      "v": 91
    },
    {
      "midi": 62,
      "hit": false,
      "t": 395555.15999999834,
      "d": 534.7216875000158,
      "v": 56
    },
    {
      "midi": 62,
      "hit": false,
      "t": 396110.71499999834,
      "d": 1090.2766875000088,
      "v": 50
    },
    {
      "midi": 67,
      "hit": false,
      "t": 396666.26999999833,
      "d": 1645.8316875000019,
      "v": 67
    },
    {
      "midi": 62,
      "hit": false,
      "t": 397221.8249999983,
      "d": 534.7216875000158,
      "v": 47
    },
    {
      "midi": 74,
      "hit": false,
      "t": 397777.3799999983,
      "d": 2201.386687499995,
      "v": 42
    },
    {
      "midi": 62,
      "hit": false,
      "t": 398332.9349999983,
      "d": 534.7216875000158,
      "v": 44
    },
    {
      "midi": 67,
      "hit": false,
      "t": 398888.4899999983,
      "d": 1090.2766875000088,
      "v": 63
    },
    {
      "midi": 62,
      "hit": false,
      "t": 399444.0449999983,
      "d": 534.7216875000158,
      "v": 42
    },
    {
      "midi": 62,
      "hit": false,
      "t": 399999.5999999983,
      "d": 1090.2766875000088,
      "v": 66
    },
    {
      "midi": 69,
      "hit": false,
      "t": 399999.5999999983,
      "d": 4979.16168749996,
      "v": 79
    },
    {
      "midi": 57,
      "hit": false,
      "t": 400555.1549999983,
      "d": 534.7216875000158,
      "v": 56
    },
    {
      "midi": 64,
      "hit": false,
      "t": 401110.7099999983,
      "d": 1645.8316875000019,
      "v": 92
    },
    {
      "midi": 57,
      "hit": false,
      "t": 402221.81999999826,
      "d": 1090.2766875000088,
      "v": 60
    },
    {
      "midi": 64,
      "hit": false,
      "t": 403332.92999999825,
      "d": 2756.941687499988,
      "v": 74
    },
    {
      "midi": 57,
      "hit": false,
      "t": 403888.48499999824,
      "d": 534.7216875000158,
      "v": 51
    },
    {
      "midi": 62,
      "hit": false,
      "t": 404444.03999999823,
      "d": 1645.8316875000019,
      "v": 45
    },
    {
      "midi": 57,
      "hit": false,
      "t": 404999.5949999982,
      "d": 534.7216875000158,
      "v": 62
    },
    {
      "midi": 69,
      "hit": false,
      "t": 405555.1499999982,
      "d": 2201.386687499995,
      "v": 61
    },
    {
      "midi": 57,
      "hit": false,
      "t": 406110.7049999982,
      "d": 534.7216875000158,
      "v": 67
    },
    {
      "midi": 62,
      "hit": false,
      "t": 406666.2599999982,
      "d": 1090.2766875000088,
      "v": 71
    },
    {
      "midi": 57,
      "hit": false,
      "t": 407221.8149999982,
      "d": 534.7216875000158,
      "v": 51
    },
    {
      "midi": 54,
      "hit": false,
      "t": 407777.3699999982,
      "d": 1090.2766875000088,
      "v": 59
    },
    {
      "midi": 59,
      "hit": false,
      "t": 407777.3699999982,
      "d": 1090.2766875000088,
      "v": 98
    },
    {
      "midi": 62,
      "hit": false,
      "t": 407777.3699999982,
      "d": 1090.2766875000088,
      "v": 80
    },
    {
      "midi": 59,
      "hit": false,
      "t": 408888.4799999982,
      "d": 534.7216875000158,
      "v": 75
    },
    {
      "midi": 64,
      "hit": false,
      "t": 408888.4799999982,
      "d": 534.7216875000158,
      "v": 77
    },
    {
      "midi": 55,
      "hit": false,
      "t": 409444.03499999817,
      "d": 615.7401250000112,
      "v": 54
    },
    {
      "midi": 59,
      "hit": false,
      "t": 409999.58999999816,
      "d": 534.7216875000158,
      "v": 67
    },
    {
      "midi": 64,
      "hit": false,
      "t": 409999.58999999816,
      "d": 534.7216875000158,
      "v": 56
    },
    {
      "midi": 55,
      "hit": false,
      "t": 410555.14499999816,
      "d": 534.7216875000158,
      "v": 50
    },
    {
      "midi": 64,
      "hit": false,
      "t": 411110.69999999815,
      "d": 534.7216875000158,
      "v": 69
    },
    {
      "midi": 59,
      "hit": false,
      "t": 411110.69999999815,
      "d": 1090.2766875000088,
      "v": 81
    },
    {
      "midi": 55,
      "hit": false,
      "t": 411666.25499999814,
      "d": 534.7216875000158,
      "v": 54
    },
    {
      "midi": 71,
      "hit": false,
      "t": 411666.25499999814,
      "d": 1645.8316875000019,
      "v": 87
    },
    {
      "midi": 59,
      "hit": false,
      "t": 412221.80999999814,
      "d": 1090.2766875000088,
      "v": 68
    },
    {
      "midi": 64,
      "hit": false,
      "t": 412221.80999999814,
      "d": 1090.2766875000088,
      "v": 43
    },
    {
      "midi": 55,
      "hit": false,
      "t": 412777.3649999981,
      "d": 534.7216875000158,
      "v": 51
    },
    {
      "midi": 64,
      "hit": false,
      "t": 413332.9199999981,
      "d": 534.7216875000158,
      "v": 65
    },
    {
      "midi": 61,
      "hit": false,
      "t": 413332.9199999981,
      "d": 1090.2766875000088,
      "v": 50
    },
    {
      "midi": 45,
      "hit": false,
      "t": 413332.9199999981,
      "d": 4423.606687499967,
      "v": 60
    },
    {
      "midi": 57,
      "hit": false,
      "t": 413888.4749999981,
      "d": 534.7216875000158,
      "v": 61
    },
    {
      "midi": 61,
      "hit": false,
      "t": 414444.0299999981,
      "d": 534.7216875000158,
      "v": 41
    },
    {
      "midi": 64,
      "hit": false,
      "t": 414444.0299999981,
      "d": 534.7216875000158,
      "v": 77
    },
    {
      "midi": 57,
      "hit": false,
      "t": 414999.5849999981,
      "d": 534.7216875000158,
      "v": 66
    },
    {
      "midi": 61,
      "hit": false,
      "t": 415555.1399999981,
      "d": 1090.2766875000088,
      "v": 48
    },
    {
      "midi": 64,
      "hit": false,
      "t": 415555.1399999981,
      "d": 1090.2766875000088,
      "v": 73
    },
    {
      "midi": 57,
      "hit": false,
      "t": 416110.6949999981,
      "d": 534.7216875000158,
      "v": 66
    },
    {
      "midi": 61,
      "hit": false,
      "t": 416666.2499999981,
      "d": 1090.2766875000088,
      "v": 38
    },
    {
      "midi": 64,
      "hit": false,
      "t": 416666.2499999981,
      "d": 1090.2766875000088,
      "v": 56
    },
    {
      "midi": 57,
      "hit": false,
      "t": 417221.8049999981,
      "d": 534.7216875000158,
      "v": 54
    },
    {
      "midi": 59,
      "hit": false,
      "t": 417781.98962499807,
      "d": 1043.9804374999949,
      "v": 76
    },
    {
      "midi": 55,
      "hit": false,
      "t": 417781.98962499807,
      "d": 2155.090437500039,
      "v": 78
    },
    {
      "midi": 50,
      "hit": false,
      "t": 418337.54462499806,
      "d": 1037.0360000000219,
      "v": 64
    },
    {
      "midi": 59,
      "hit": false,
      "t": 418893.09962499805,
      "d": 2166.6645000000717,
      "v": 83
    },
    {
      "midi": 50,
      "hit": false,
      "t": 419460.2286874981,
      "d": 1025.4619375000475,
      "v": 59
    },
    {
      "midi": 55,
      "hit": false,
      "t": 420004.2096249981,
      "d": 2171.294125000073,
      "v": 49
    },
    {
      "midi": 50,
      "hit": false,
      "t": 420559.76462499815,
      "d": 1615.7391250000219,
      "v": 59
    },
    {
      "midi": 59,
      "hit": false,
      "t": 421115.31962499814,
      "d": 1060.1841250000289,
      "v": 71
    },
    {
      "midi": 55,
      "hit": false,
      "t": 422226.4296249982,
      "d": 2212.9607500000275,
      "v": 73
    },
    {
      "midi": 59,
      "hit": false,
      "t": 422226.4296249982,
      "d": 2212.9607500000275,
      "v": 76
    },
    {
      "midi": 50,
      "hit": false,
      "t": 423349.1136874982,
      "d": 1043.9804374999949,
      "v": 34
    },
    {
      "midi": 57,
      "hit": false,
      "t": 424444.0199999982,
      "d": 1124.9988749999902,
      "v": 73
    },
    {
      "midi": 61,
      "hit": false,
      "t": 424444.0199999982,
      "d": 1124.9988749999902,
      "v": 71
    },
    {
      "midi": 55,
      "hit": false,
      "t": 425559.7596249982,
      "d": 1083.3322499999776,
      "v": 53
    },
    {
      "midi": 59,
      "hit": false,
      "t": 425559.7596249982,
      "d": 1101.8507499999832,
      "v": 75
    },
    {
      "midi": 54,
      "hit": false,
      "t": 426666.2399999982,
      "d": 4423.606687500025,
      "v": 55
    },
    {
      "midi": 57,
      "hit": false,
      "t": 426666.2399999982,
      "d": 4423.606687500025,
      "v": 62
    },
    {
      "midi": 62,
      "hit": false,
      "t": 426666.2399999982,
      "d": 4423.606687500025,
      "v": 77
    }
  ]
}