{
  "jsonPath": "Unknown/Unknown/Dakoda Motor Company/ocean-seems-album-version.json",
  "path": "Unknown\\Unknown\\Dakoda Motor Company\\Ocean Seems - Album Version.mid",
  "name": "Ocean Seems - Album Version",
  "difficulty": "Advanced",
  "bpm": 120,
  "notes": [
    {
      "midi": 71,
      "hit": false,
      "t": 4050,
      "d": 300,
      "v": 47
    },
    {
      "midi": 59,
      "hit": false,
      "t": 4083.3333333333335,
      "d": 1466.6666666666674,
      "v": 23
    },
    {
      "midi": 62,
      "hit": false,
      "t": 4116.666666666667,
      "d": 916.666666666667,
      "v": 39
    },
    {
      "midi": 74,
      "hit": false,
      "t": 4133.333333333334,
      "d": 233.33333333333303,
      "v": 78
    },
    {
      "midi": 55,
      "hit": false,
      "t": 4133.333333333334,
      "d": 1383.333333333333,
      "v": 63
    },
    {
      "midi": 78,
      "hit": false,
      "t": 4166.666666666667,
      "d": 333.33333333333303,
      "v": 63
    },
    {
      "midi": 78,
      "hit": false,
      "t": 4916.666666666667,
      "d": 616.666666666667,
      "v": 74
    },
    {
      "midi": 62,
      "hit": false,
      "t": 5166.666666666667,
      "d": 816.666666666667,
      "v": 32
    },
    {
      "midi": 71,
      "hit": false,
      "t": 5400,
      "d": 433.33333333333394,
      "v": 66
    },
    {
      "midi": 57,
      "hit": false,
      "t": 6200,
      "d": 1966.6666666666652,
      "v": 68
    },
    {
      "midi": 61,
      "hit": false,
      "t": 6216.666666666667,
      "d": 2016.6666666666652,
      "v": 71
    },
    {
      "midi": 54,
      "hit": false,
      "t": 6233.333333333334,
      "d": 1899.9999999999982,
      "v": 61
    },
    {
      "midi": 66,
      "hit": false,
      "t": 6450,
      "d": 83.33333333333303,
      "v": 78
    },
    {
      "midi": 69,
      "hit": false,
      "t": 6716.666666666666,
      "d": 116.66666666666697,
      "v": 89
    },
    {
      "midi": 76,
      "hit": false,
      "t": 7000,
      "d": 83.33333333333303,
      "v": 83
    },
    {
      "midi": 78,
      "hit": false,
      "t": 7233.333333333333,
      "d": 83.33333333333303,
      "v": 109
    },
    {
      "midi": 81,
      "hit": false,
      "t": 7499.999999999999,
      "d": 83.33333333333303,
      "v": 89
    },
    {
      "midi": 88,
      "hit": false,
      "t": 7766.666666666665,
      "d": 250,
      "v": 96
    },
    {
      "midi": 85,
      "hit": false,
      "t": 7999.999999999998,
      "d": 133.33333333333394,
      "v": 69
    },
    {
      "midi": 59,
      "hit": false,
      "t": 8283.333333333332,
      "d": 699.9999999999982,
      "v": 72
    },
    {
      "midi": 67,
      "hit": false,
      "t": 8766.666666666664,
      "d": 83.33333333333212,
      "v": 83
    },
    {
      "midi": 71,
      "hit": false,
      "t": 8766.666666666664,
      "d": 83.33333333333212,
      "v": 86
    },
    {
      "midi": 64,
      "hit": false,
      "t": 8783.33333333333,
      "d": 200,
      "v": 59
    },
    {
      "midi": 64,
      "hit": false,
      "t": 9299.999999999996,
      "d": 333.3333333333321,
      "v": 66
    },
    {
      "midi": 59,
      "hit": false,
      "t": 9299.999999999996,
      "d": 349.9999999999982,
      "v": 74
    },
    {
      "midi": 67,
      "hit": false,
      "t": 9566.666666666662,
      "d": 66.66666666666606,
      "v": 76
    },
    {
      "midi": 71,
      "hit": false,
      "t": 9566.666666666662,
      "d": 66.66666666666606,
      "v": 86
    },
    {
      "midi": 64,
      "hit": false,
      "t": 10316.66666666666,
      "d": 216.66666666666606,
      "v": 62
    },
    {
      "midi": 61,
      "hit": false,
      "t": 10316.66666666666,
      "d": 283.3333333333321,
      "v": 60
    },
    {
      "midi": 69,
      "hit": false,
      "t": 10599.999999999993,
      "d": 66.66666666666606,
      "v": 86
    },
    {
      "midi": 73,
      "hit": false,
      "t": 10599.999999999993,
      "d": 66.66666666666606,
      "v": 78
    },
    {
      "midi": 69,
      "hit": false,
      "t": 11116.666666666659,
      "d": 616.6666666666661,
      "v": 80
    },
    {
      "midi": 73,
      "hit": false,
      "t": 11116.666666666659,
      "d": 1016.6666666666661,
      "v": 74
    },
    {
      "midi": 61,
      "hit": false,
      "t": 11383.333333333325,
      "d": 366.66666666666606,
      "v": 1
    },
    {
      "midi": 64,
      "hit": false,
      "t": 11416.666666666659,
      "d": 499.9999999999982,
      "v": 51
    },
    {
      "midi": 69,
      "hit": false,
      "t": 11849.99999999999,
      "d": 200,
      "v": 86
    },
    {
      "midi": 69,
      "hit": false,
      "t": 12216.666666666659,
      "d": 66.66666666666606,
      "v": 50
    },
    {
      "midi": 57,
      "hit": false,
      "t": 12349.99999999999,
      "d": 1633.3333333333321,
      "v": 27
    },
    {
      "midi": 66,
      "hit": false,
      "t": 12383.333333333325,
      "d": 400,
      "v": 74
    },
    {
      "midi": 54,
      "hit": false,
      "t": 12383.333333333325,
      "d": 1616.6666666666642,
      "v": 67
    },
    {
      "midi": 62,
      "hit": false,
      "t": 12383.333333333325,
      "d": 1933.3333333333285,
      "v": 72
    },
    {
      "midi": 73,
      "hit": false,
      "t": 12899.99999999999,
      "d": 116.66666666666606,
      "v": 78
    },
    {
      "midi": 66,
      "hit": false,
      "t": 13149.99999999999,
      "d": 166.66666666666606,
      "v": 85
    },
    {
      "midi": 73,
      "hit": false,
      "t": 13683.333333333323,
      "d": 383.3333333333321,
      "v": 109
    },
    {
      "midi": 71,
      "hit": false,
      "t": 14183.333333333321,
      "d": 216.66666666666606,
      "v": 78
    },
    {
      "midi": 59,
      "hit": false,
      "t": 14299.999999999987,
      "d": 3599.999999999998,
      "v": 11
    },
    {
      "midi": 62,
      "hit": false,
      "t": 14449.999999999987,
      "d": 1533.3333333333321,
      "v": 74
    },
    {
      "midi": 71,
      "hit": false,
      "t": 14716.666666666653,
      "d": 116.66666666666606,
      "v": 68
    },
    {
      "midi": 81,
      "hit": false,
      "t": 14983.33333333332,
      "d": 116.66666666666606,
      "v": 92
    },
    {
      "midi": 74,
      "hit": false,
      "t": 15233.33333333332,
      "d": 100,
      "v": 100
    },
    {
      "midi": 71,
      "hit": false,
      "t": 15733.33333333332,
      "d": 466.66666666666606,
      "v": 80
    },
    {
      "midi": 67,
      "hit": false,
      "t": 16516.66666666665,
      "d": 350,
      "v": 80
    },
    {
      "midi": 64,
      "hit": false,
      "t": 16533.333333333318,
      "d": 883.3333333333321,
      "v": 72
    },
    {
      "midi": 67,
      "hit": false,
      "t": 17049.99999999998,
      "d": 116.66666666666788,
      "v": 78
    },
    {
      "midi": 76,
      "hit": false,
      "t": 17049.99999999998,
      "d": 383.33333333333576,
      "v": 89
    },
    {
      "midi": 67,
      "hit": false,
      "t": 17299.99999999998,
      "d": 100,
      "v": 45
    },
    {
      "midi": 64,
      "hit": false,
      "t": 17549.999999999985,
      "d": 500,
      "v": 63
    },
    {
      "midi": 67,
      "hit": false,
      "t": 17799.999999999985,
      "d": 150,
      "v": 78
    },
    {
      "midi": 76,
      "hit": false,
      "t": 17833.333333333318,
      "d": 66.66666666666788,
      "v": 57
    },
    {
      "midi": 73,
      "hit": false,
      "t": 18566.666666666653,
      "d": 100,
      "v": 67
    },
    {
      "midi": 66,
      "hit": false,
      "t": 18566.666666666653,
      "d": 116.66666666666788,
      "v": 78
    },
    {
      "midi": 54,
      "hit": false,
      "t": 18583.33333333332,
      "d": 116.66666666666788,
      "v": 67
    },
    {
      "midi": 61,
      "hit": false,
      "t": 18583.33333333332,
      "d": 116.66666666666788,
      "v": 71
    },
    {
      "midi": 76,
      "hit": false,
      "t": 18599.99999999999,
      "d": 33.33333333333212,
      "v": 59
    },
    {
      "midi": 73,
      "hit": false,
      "t": 18833.33333333332,
      "d": 83.33333333333576,
      "v": 69
    },
    {
      "midi": 66,
      "hit": false,
      "t": 18833.33333333332,
      "d": 100.00000000000364,
      "v": 74
    },
    {
      "midi": 76,
      "hit": false,
      "t": 18849.99999999999,
      "d": 50,
      "v": 74
    },
    {
      "midi": 54,
      "hit": false,
      "t": 18849.99999999999,
      "d": 116.66666666666788,
      "v": 69
    },
    {
      "midi": 61,
      "hit": false,
      "t": 18849.99999999999,
      "d": 116.66666666666788,
      "v": 74
    },
    {
      "midi": 66,
      "hit": false,
      "t": 19616.666666666657,
      "d": 1333.3333333333321,
      "v": 93
    },
    {
      "midi": 73,
      "hit": false,
      "t": 19616.666666666657,
      "d": 1333.3333333333321,
      "v": 85
    },
    {
      "midi": 61,
      "hit": false,
      "t": 19616.666666666657,
      "d": 1366.6666666666642,
      "v": 78
    },
    {
      "midi": 54,
      "hit": false,
      "t": 19616.666666666657,
      "d": 1383.3333333333321,
      "v": 78
    },
    {
      "midi": 59,
      "hit": false,
      "t": 20649.99999999999,
      "d": 1650.0000000000036,
      "v": 57
    },
    {
      "midi": 66,
      "hit": false,
      "t": 21166.666666666657,
      "d": 1316.6666666666679,
      "v": 1
    },
    {
      "midi": 78,
      "hit": false,
      "t": 21433.333333333325,
      "d": 933.3333333333358,
      "v": 61
    },
    {
      "midi": 67,
      "hit": false,
      "t": 22716.666666666657,
      "d": 700,
      "v": 44
    },
    {
      "midi": 64,
      "hit": false,
      "t": 22716.666666666657,
      "d": 1733.3333333333394,
      "v": 29
    },
    {
      "midi": 79,
      "hit": false,
      "t": 23233.333333333325,
      "d": 100,
      "v": 86
    },
    {
      "midi": 76,
      "hit": false,
      "t": 23483.333333333325,
      "d": 66.66666666666788,
      "v": 70
    },
    {
      "midi": 67,
      "hit": false,
      "t": 23749.999999999993,
      "d": 316.6666666666679,
      "v": 26
    },
    {
      "midi": 71,
      "hit": false,
      "t": 23999.999999999993,
      "d": 566.6666666666715,
      "v": 80
    },
    {
      "midi": 67,
      "hit": false,
      "t": 24266.66666666666,
      "d": 166.66666666666788,
      "v": 36
    },
    {
      "midi": 69,
      "hit": false,
      "t": 24516.666666666664,
      "d": 116.66666666666788,
      "v": 48
    },
    {
      "midi": 64,
      "hit": false,
      "t": 24783.333333333332,
      "d": 850,
      "v": 39
    },
    {
      "midi": 57,
      "hit": false,
      "t": 24783.333333333332,
      "d": 1833.3333333333321,
      "v": 61
    },
    {
      "midi": 69,
      "hit": false,
      "t": 25300,
      "d": 599.9999999999964,
      "v": 62
    },
    {
      "midi": 73,
      "hit": false,
      "t": 25300,
      "d": 633.3333333333285,
      "v": 58
    },
    {
      "midi": 64,
      "hit": false,
      "t": 25816.666666666664,
      "d": 266.66666666666424,
      "v": 8
    },
    {
      "midi": 69,
      "hit": false,
      "t": 26066.66666666666,
      "d": 133.33333333333576,
      "v": 63
    },
    {
      "midi": 73,
      "hit": false,
      "t": 26066.66666666666,
      "d": 150.00000000000364,
      "v": 63
    },
    {
      "midi": 73,
      "hit": false,
      "t": 26333.333333333332,
      "d": 166.66666666666788,
      "v": 22
    },
    {
      "midi": 69,
      "hit": false,
      "t": 26849.999999999996,
      "d": 366.6666666666679,
      "v": 70
    },
    {
      "midi": 66,
      "hit": false,
      "t": 26849.999999999996,
      "d": 433.33333333333576,
      "v": 52
    },
    {
      "midi": 62,
      "hit": false,
      "t": 26849.999999999996,
      "d": 933.3333333333358,
      "v": 59
    },
    {
      "midi": 66,
      "hit": false,
      "t": 27366.666666666664,
      "d": 100,
      "v": 9
    },
    {
      "midi": 62,
      "hit": false,
      "t": 27883.333333333332,
      "d": 466.6666666666679,
      "v": 54
    },
    {
      "midi": 73,
      "hit": false,
      "t": 28133.333333333332,
      "d": 116.66666666666788,
      "v": 66
    },
    {
      "midi": 69,
      "hit": false,
      "t": 28400,
      "d": 316.6666666666679,
      "v": 89
    },
    {
      "midi": 66,
      "hit": false,
      "t": 28650,
      "d": 366.6666666666679,
      "v": 71
    },
    {
      "midi": 50,
      "hit": false,
      "t": 28916.666666666668,
      "d": 900,
      "v": 26
    },
    {
      "midi": 67,
      "hit": false,
      "t": 29433.333333333336,
      "d": 100,
      "v": 86
    },
    {
      "midi": 64,
      "hit": false,
      "t": 30200,
      "d": 600,
      "v": 54
    },
    {
      "midi": 67,
      "hit": false,
      "t": 30200,
      "d": 733.3333333333321,
      "v": 80
    },
    {
      "midi": 69,
      "hit": false,
      "t": 30983.333333333332,
      "d": 266.6666666666679,
      "v": 66
    },
    {
      "midi": 64,
      "hit": false,
      "t": 30983.333333333332,
      "d": 300,
      "v": 57
    },
    {
      "midi": 61,
      "hit": false,
      "t": 30983.333333333332,
      "d": 416.6666666666679,
      "v": 53
    },
    {
      "midi": 57,
      "hit": false,
      "t": 30983.333333333332,
      "d": 1166.6666666666679,
      "v": 1
    },
    {
      "midi": 61,
      "hit": false,
      "t": 31500,
      "d": 266.6666666666679,
      "v": 41
    },
    {
      "midi": 76,
      "hit": false,
      "t": 31750,
      "d": 66.66666666666788,
      "v": 68
    },
    {
      "midi": 61,
      "hit": false,
      "t": 32016.666666666668,
      "d": 183.33333333333212,
      "v": 19
    },
    {
      "midi": 73,
      "hit": false,
      "t": 32266.666666666668,
      "d": 433.3333333333321,
      "v": 93
    },
    {
      "midi": 61,
      "hit": false,
      "t": 33033.333333333336,
      "d": 3299.9999999999854,
      "v": 61
    },
    {
      "midi": 73,
      "hit": false,
      "t": 33300,
      "d": 50,
      "v": 58
    },
    {
      "midi": 76,
      "hit": false,
      "t": 33816.666666666664,
      "d": 116.66666666666424,
      "v": 68
    },
    {
      "midi": 64,
      "hit": false,
      "t": 34066.666666666664,
      "d": 300,
      "v": 40
    },
    {
      "midi": 88,
      "hit": false,
      "t": 34333.33333333333,
      "d": 83.33333333333576,
      "v": 74
    },
    {
      "midi": 85,
      "hit": false,
      "t": 34583.33333333333,
      "d": 316.66666666666424,
      "v": 78
    },
    {
      "midi": 85,
      "hit": false,
      "t": 35099.99999999999,
      "d": 116.66666666666424,
      "v": 67
    },
    {
      "midi": 78,
      "hit": false,
      "t": 35099.99999999999,
      "d": 250,
      "v": 74
    },
    {
      "midi": 54,
      "hit": false,
      "t": 35099.99999999999,
      "d": 1349.9999999999927,
      "v": 40
    },
    {
      "midi": 70,
      "hit": false,
      "t": 35883.33333333332,
      "d": 350,
      "v": 78
    },
    {
      "midi": 58,
      "hit": false,
      "t": 36133.33333333332,
      "d": 316.66666666666424,
      "v": 1
    },
    {
      "midi": 76,
      "hit": false,
      "t": 36399.999999999985,
      "d": 50,
      "v": 61
    },
    {
      "midi": 61,
      "hit": false,
      "t": 37166.66666666665,
      "d": 949.9999999999927,
      "v": 60
    },
    {
      "midi": 54,
      "hit": false,
      "t": 37166.66666666665,
      "d": 1366.6666666666642,
      "v": 57
    },
    {
      "midi": 73,
      "hit": false,
      "t": 37683.333333333314,
      "d": 66.66666666666424,
      "v": 67
    },
    {
      "midi": 66,
      "hit": false,
      "t": 37683.333333333314,
      "d": 83.33333333332848,
      "v": 74
    },
    {
      "midi": 61,
      "hit": false,
      "t": 38199.99999999998,
      "d": 300,
      "v": 58
    },
    {
      "midi": 66,
      "hit": false,
      "t": 38466.66666666664,
      "d": 633.3333333333358,
      "v": 74
    },
    {
      "midi": 47,
      "hit": false,
      "t": 39233.333333333314,
      "d": 1966.666666666657,
      "v": 76
    },
    {
      "midi": 62,
      "hit": false,
      "t": 39749.99999999998,
      "d": 83.33333333333576,
      "v": 78
    },
    {
      "midi": 66,
      "hit": false,
      "t": 39749.99999999998,
      "d": 100,
      "v": 67
    },
    {
      "midi": 59,
      "hit": false,
      "t": 40266.66666666664,
      "d": 433.3333333333285,
      "v": 25
    },
    {
      "midi": 54,
      "hit": false,
      "t": 40266.66666666664,
      "d": 899.9999999999927,
      "v": 1
    },
    {
      "midi": 66,
      "hit": false,
      "t": 40533.33333333331,
      "d": 716.6666666666642,
      "v": 52
    },
    {
      "midi": 62,
      "hit": false,
      "t": 40533.33333333331,
      "d": 750,
      "v": 83
    },
    {
      "midi": 59,
      "hit": false,
      "t": 41299.99999999997,
      "d": 1600,
      "v": 55
    },
    {
      "midi": 71,
      "hit": false,
      "t": 41566.666666666635,
      "d": 116.66666666666424,
      "v": 61
    },
    {
      "midi": 73,
      "hit": false,
      "t": 41816.666666666635,
      "d": 83.33333333333576,
      "v": 67
    },
    {
      "midi": 74,
      "hit": false,
      "t": 42083.33333333331,
      "d": 100,
      "v": 80
    },
    {
      "midi": 78,
      "hit": false,
      "t": 42599.99999999997,
      "d": 483.33333333333576,
      "v": 116
    },
    {
      "midi": 74,
      "hit": false,
      "t": 43099.99999999997,
      "d": 216.66666666666424,
      "v": 89
    },
    {
      "midi": 52,
      "hit": false,
      "t": 43366.666666666635,
      "d": 1366.6666666666642,
      "v": 76
    },
    {
      "midi": 59,
      "hit": false,
      "t": 43883.3333333333,
      "d": 916.6666666666642,
      "v": 61
    },
    {
      "midi": 71,
      "hit": false,
      "t": 44133.3333333333,
      "d": 500,
      "v": 86
    },
    {
      "midi": 67,
      "hit": false,
      "t": 44649.99999999996,
      "d": 683.3333333333285,
      "v": 80
    },
    {
      "midi": 64,
      "hit": false,
      "t": 44649.99999999996,
      "d": 799.9999999999927,
      "v": 54
    },
    {
      "midi": 69,
      "hit": false,
      "t": 45166.66666666663,
      "d": 50,
      "v": 31
    },
    {
      "midi": 57,
      "hit": false,
      "t": 45433.33333333329,
      "d": 1766.6666666666642,
      "v": 76
    },
    {
      "midi": 64,
      "hit": false,
      "t": 45683.33333333329,
      "d": 1600,
      "v": 66
    },
    {
      "midi": 69,
      "hit": false,
      "t": 45949.999999999956,
      "d": 83.33333333333576,
      "v": 65
    },
    {
      "midi": 76,
      "hit": false,
      "t": 46199.999999999956,
      "d": 166.66666666666424,
      "v": 100
    },
    {
      "midi": 73,
      "hit": false,
      "t": 46716.66666666662,
      "d": 616.6666666666715,
      "v": 93
    },
    {
      "midi": 62,
      "hit": false,
      "t": 47499.999999999956,
      "d": 2016.666666666657,
      "v": 80
    },
    {
      "midi": 69,
      "hit": false,
      "t": 47749.999999999956,
      "d": 100,
      "v": 80
    },
    {
      "midi": 73,
      "hit": false,
      "t": 48016.66666666662,
      "d": 66.66666666666424,
      "v": 93
    },
    {
      "midi": 78,
      "hit": false,
      "t": 48266.66666666662,
      "d": 66.66666666666424,
      "v": 85
    },
    {
      "midi": 81,
      "hit": false,
      "t": 48533.333333333285,
      "d": 83.33333333333576,
      "v": 100
    },
    {
      "midi": 88,
      "hit": false,
      "t": 48783.333333333285,
      "d": 100,
      "v": 105
    },
    {
      "midi": 85,
      "hit": false,
      "t": 49049.99999999995,
      "d": 200,
      "v": 121
    },
    {
      "midi": 81,
      "hit": false,
      "t": 49299.99999999995,
      "d": 200,
      "v": 86
    },
    {
      "midi": 86,
      "hit": false,
      "t": 50333.33333333328,
      "d": 100,
      "v": 86
    },
    {
      "midi": 64,
      "hit": false,
      "t": 50599.99999999994,
      "d": 1150,
      "v": 41
    },
    {
      "midi": 86,
      "hit": false,
      "t": 50849.99999999994,
      "d": 533.3333333333285,
      "v": 96
    },
    {
      "midi": 83,
      "hit": false,
      "t": 51366.666666666606,
      "d": 300,
      "v": 83
    },
    {
      "midi": 85,
      "hit": false,
      "t": 52149.99999999994,
      "d": 200,
      "v": 109
    },
    {
      "midi": 81,
      "hit": false,
      "t": 52399.99999999994,
      "d": 83.33333333333576,
      "v": 92
    },
    {
      "midi": 76,
      "hit": false,
      "t": 52666.66666666661,
      "d": 83.33333333333576,
      "v": 56
    },
    {
      "midi": 57,
      "hit": false,
      "t": 52666.66666666661,
      "d": 899.9999999999927,
      "v": 51
    },
    {
      "midi": 73,
      "hit": false,
      "t": 52916.66666666661,
      "d": 333.3333333333285,
      "v": 85
    },
    {
      "midi": 64,
      "hit": false,
      "t": 53183.33333333328,
      "d": 366.66666666666424,
      "v": 70
    },
    {
      "midi": 69,
      "hit": false,
      "t": 53433.33333333328,
      "d": 249.99999999999272,
      "v": 78
    },
    {
      "midi": 73,
      "hit": false,
      "t": 53433.33333333328,
      "d": 283.3333333333212,
      "v": 67
    },
    {
      "midi": 62,
      "hit": false,
      "t": 53699.999999999935,
      "d": 1733.3333333333285,
      "v": 74
    },
    {
      "midi": 73,
      "hit": false,
      "t": 54466.6666666666,
      "d": 100,
      "v": 64
    },
    {
      "midi": 76,
      "hit": false,
      "t": 54983.33333333326,
      "d": 283.33333333333576,
      "v": 96
    },
    {
      "midi": 73,
      "hit": false,
      "t": 55233.33333333326,
      "d": 333.33333333333576,
      "v": 101
    },
    {
      "midi": 73,
      "hit": false,
      "t": 56266.6666666666,
      "d": 216.66666666666424,
      "v": 93
    },
    {
      "midi": 76,
      "hit": false,
      "t": 56533.33333333326,
      "d": 433.33333333333576,
      "v": 83
    },
    {
      "midi": 73,
      "hit": false,
      "t": 57049.999999999935,
      "d": 716.6666666666642,
      "v": 85
    },
    {
      "midi": 54,
      "hit": false,
      "t": 57816.6666666666,
      "d": 1449.9999999999927,
      "v": 78
    },
    {
      "midi": 78,
      "hit": false,
      "t": 58333.33333333326,
      "d": 100,
      "v": 93
    },
    {
      "midi": 73,
      "hit": false,
      "t": 58599.99999999993,
      "d": 200,
      "v": 64
    },
    {
      "midi": 73,
      "hit": false,
      "t": 58849.99999999993,
      "d": 100,
      "v": 18
    },
    {
      "midi": 66,
      "hit": false,
      "t": 59116.66666666659,
      "d": 350,
      "v": 85
    },
    {
      "midi": 73,
      "hit": false,
      "t": 59633.333333333256,
      "d": 283.33333333333576,
      "v": 60
    },
    {
      "midi": 59,
      "hit": false,
      "t": 59883.333333333256,
      "d": 1850.0000000000073,
      "v": 78
    },
    {
      "midi": 66,
      "hit": false,
      "t": 60149.99999999993,
      "d": 1600,
      "v": 66
    },
    {
      "midi": 71,
      "hit": false,
      "t": 60399.99999999993,
      "d": 100,
      "v": 76
    },
    {
      "midi": 73,
      "hit": false,
      "t": 60666.66666666659,
      "d": 83.33333333333576,
      "v": 109
    },
    {
      "midi": 74,
      "hit": false,
      "t": 61183.33333333326,
      "d": 83.33333333333576,
      "v": 83
    },
    {
      "midi": 78,
      "hit": false,
      "t": 61933.33333333326,
      "d": 166.66666666666424,
      "v": 101
    },
    {
      "midi": 50,
      "hit": false,
      "t": 61933.33333333326,
      "d": 1399.9999999999927,
      "v": 78
    },
    {
      "midi": 69,
      "hit": false,
      "t": 62199.99999999993,
      "d": 166.66666666666424,
      "v": 59
    },
    {
      "midi": 57,
      "hit": false,
      "t": 62466.66666666659,
      "d": 933.3333333333285,
      "v": 61
    },
    {
      "midi": 74,
      "hit": false,
      "t": 62716.66666666659,
      "d": 116.66666666666424,
      "v": 110
    },
    {
      "midi": 62,
      "hit": false,
      "t": 63066.66666666659,
      "d": 616.6666666666642,
      "v": 12
    },
    {
      "midi": 69,
      "hit": false,
      "t": 63233.333333333256,
      "d": 650,
      "v": 96
    },
    {
      "midi": 73,
      "hit": false,
      "t": 63799.99999999992,
      "d": 83.33333333333576,
      "v": 53
    },
    {
      "midi": 73,
      "hit": false,
      "t": 63983.333333333256,
      "d": 250,
      "v": 93
    },
    {
      "midi": 57,
      "hit": false,
      "t": 64016.66666666659,
      "d": 1483.3333333333285,
      "v": 83
    },
    {
      "midi": 64,
      "hit": false,
      "t": 64583.333333333256,
      "d": 266.66666666666424,
      "v": 49
    },
    {
      "midi": 81,
      "hit": false,
      "t": 64799.99999999992,
      "d": 100,
      "v": 105
    },
    {
      "midi": 64,
      "hit": false,
      "t": 65066.666666666584,
      "d": 300,
      "v": 48
    },
    {
      "midi": 73,
      "hit": false,
      "t": 65299.99999999992,
      "d": 666.6666666666642,
      "v": 121
    },
    {
      "midi": 64,
      "hit": false,
      "t": 65533.333333333256,
      "d": 183.33333333332848,
      "v": 53
    },
    {
      "midi": 69,
      "hit": false,
      "t": 65866.66666666658,
      "d": 66.66666666667152,
      "v": 31
    },
    {
      "midi": 54,
      "hit": false,
      "t": 66083.33333333326,
      "d": 1766.666666666657,
      "v": 101
    },
    {
      "midi": 61,
      "hit": false,
      "t": 66316.66666666658,
      "d": 1666.666666666657,
      "v": 71
    },
    {
      "midi": 69,
      "hit": false,
      "t": 66583.33333333326,
      "d": 116.66666666667152,
      "v": 100
    },
    {
      "midi": 73,
      "hit": false,
      "t": 66833.33333333326,
      "d": 66.66666666667152,
      "v": 85
    },
    {
      "midi": 78,
      "hit": false,
      "t": 67099.99999999993,
      "d": 100,
      "v": 116
    },
    {
      "midi": 81,
      "hit": false,
      "t": 67383.33333333326,
      "d": 233.33333333332848,
      "v": 92
    },
    {
      "midi": 78,
      "hit": false,
      "t": 67883.33333333324,
      "d": 133.33333333334303,
      "v": 74
    },
    {
      "midi": 59,
      "hit": false,
      "t": 68116.66666666658,
      "d": 1600.0000000000146,
      "v": 80
    },
    {
      "midi": 78,
      "hit": false,
      "t": 68633.33333333326,
      "d": 133.33333333332848,
      "v": 109
    },
    {
      "midi": 71,
      "hit": false,
      "t": 68899.99999999991,
      "d": 116.66666666667152,
      "v": 72
    },
    {
      "midi": 66,
      "hit": false,
      "t": 69133.33333333326,
      "d": 516.6666666666715,
      "v": 60
    },
    {
      "midi": 83,
      "hit": false,
      "t": 69433.33333333326,
      "d": 633.333333333343,
      "v": 92
    },
    {
      "midi": 78,
      "hit": false,
      "t": 69966.6666666666,
      "d": 100,
      "v": 42
    },
    {
      "midi": 52,
      "hit": false,
      "t": 70216.6666666666,
      "d": 1333.3333333333285,
      "v": 80
    },
    {
      "midi": 59,
      "hit": false,
      "t": 70749.99999999993,
      "d": 850,
      "v": 65
    },
    {
      "midi": 71,
      "hit": false,
      "t": 70999.99999999993,
      "d": 450,
      "v": 92
    },
    {
      "midi": 79,
      "hit": false,
      "t": 71016.6666666666,
      "d": 1016.666666666657,
      "v": 105
    },
    {
      "midi": 64,
      "hit": false,
      "t": 71733.33333333326,
      "d": 400,
      "v": 1
    },
    {
      "midi": 55,
      "hit": false,
      "t": 72266.66666666658,
      "d": 1433.333333333343,
      "v": 96
    },
    {
      "midi": 62,
      "hit": false,
      "t": 72516.66666666658,
      "d": 1750.0000000000146,
      "v": 83
    },
    {
      "midi": 71,
      "hit": false,
      "t": 72783.33333333326,
      "d": 116.66666666667152,
      "v": 96
    },
    {
      "midi": 79,
      "hit": false,
      "t": 73049.99999999993,
      "d": 1083.3333333333285,
      "v": 120
    },
    {
      "midi": 74,
      "hit": false,
      "t": 73583.33333333326,
      "d": 450,
      "v": 115
    },
    {
      "midi": 57,
      "hit": false,
      "t": 74333.33333333327,
      "d": 1333.333333333343,
      "v": 89
    },
    {
      "midi": 64,
      "hit": false,
      "t": 74599.99999999994,
      "d": 1016.6666666666715,
      "v": 54
    },
    {
      "midi": 69,
      "hit": false,
      "t": 74899.99999999994,
      "d": 50,
      "v": 61
    },
    {
      "midi": 73,
      "hit": false,
      "t": 75116.66666666661,
      "d": 483.3333333333285,
      "v": 116
    },
    {
      "midi": 76,
      "hit": false,
      "t": 75599.99999999994,
      "d": 516.6666666666715,
      "v": 89
    },
    {
      "midi": 69,
      "hit": false,
      "t": 76116.66666666661,
      "d": 183.33333333332848,
      "v": 80
    },
    {
      "midi": 50,
      "hit": false,
      "t": 76399.99999999994,
      "d": 1600.0000000000146,
      "v": 92
    },
    {
      "midi": 57,
      "hit": false,
      "t": 76683.33333333327,
      "d": 1400.000000000029,
      "v": 80
    },
    {
      "midi": 66,
      "hit": false,
      "t": 76933.33333333327,
      "d": 100,
      "v": 109
    },
    {
      "midi": 62,
      "hit": false,
      "t": 76949.99999999994,
      "d": 916.6666666666715,
      "v": 76
    },
    {
      "midi": 69,
      "hit": false,
      "t": 77199.99999999994,
      "d": 116.66666666667152,
      "v": 100
    },
    {
      "midi": 73,
      "hit": false,
      "t": 77466.66666666661,
      "d": 83.33333333332848,
      "v": 109
    },
    {
      "midi": 74,
      "hit": false,
      "t": 77716.66666666661,
      "d": 133.33333333332848,
      "v": 100
    },
    {
      "midi": 81,
      "hit": false,
      "t": 77983.33333333328,
      "d": 266.66666666668607,
      "v": 120
    },
    {
      "midi": 62,
      "hit": false,
      "t": 78016.66666666663,
      "d": 466.66666666668607,
      "v": 62
    },
    {
      "midi": 78,
      "hit": false,
      "t": 78233.3333333333,
      "d": 233.33333333334303,
      "v": 109
    },
    {
      "midi": 52,
      "hit": false,
      "t": 78499.99999999999,
      "d": 1500,
      "v": 78
    },
    {
      "midi": 79,
      "hit": false,
      "t": 78516.66666666666,
      "d": 250,
      "v": 78
    },
    {
      "midi": 59,
      "hit": false,
      "t": 79016.66666666666,
      "d": 1016.666666666657,
      "v": 56
    },
    {
      "midi": 71,
      "hit": false,
      "t": 79266.66666666666,
      "d": 1150,
      "v": 86
    },
    {
      "midi": 79,
      "hit": false,
      "t": 79266.66666666666,
      "d": 1150,
      "v": 92
    },
    {
      "midi": 64,
      "hit": false,
      "t": 79816.66666666666,
      "d": 616.6666666666715,
      "v": 49
    },
    {
      "midi": 74,
      "hit": false,
      "t": 80049.99999999999,
      "d": 200,
      "v": 72
    },
    {
      "midi": 76,
      "hit": false,
      "t": 80500,
      "d": 133.33333333334303,
      "v": 74
    },
    {
      "midi": 73,
      "hit": false,
      "t": 80500,
      "d": 366.6666666666715,
      "v": 78
    },
    {
      "midi": 57,
      "hit": false,
      "t": 80516.66666666667,
      "d": 1400,
      "v": 86
    },
    {
      "midi": 61,
      "hit": false,
      "t": 81033.33333333334,
      "d": 916.666666666657,
      "v": 66
    },
    {
      "midi": 69,
      "hit": false,
      "t": 81300.00000000001,
      "d": 400,
      "v": 92
    },
    {
      "midi": 64,
      "hit": false,
      "t": 81566.66666666669,
      "d": 816.6666666666424,
      "v": 58
    },
    {
      "midi": 76,
      "hit": false,
      "t": 81833.33333333334,
      "d": 849.9999999999854,
      "v": 100
    },
    {
      "midi": 61,
      "hit": false,
      "t": 82633.33333333333,
      "d": 166.66666666667152,
      "v": 58
    },
    {
      "midi": 70,
      "hit": false,
      "t": 82633.33333333333,
      "d": 433.33333333334303,
      "v": 85
    },
    {
      "midi": 54,
      "hit": false,
      "t": 82633.33333333333,
      "d": 3766.6666666666715,
      "v": 69
    },
    {
      "midi": 61,
      "hit": false,
      "t": 83133.33333333334,
      "d": 3333.333333333314,
      "v": 69
    },
    {
      "midi": 70,
      "hit": false,
      "t": 83433.33333333334,
      "d": 233.33333333332848,
      "v": 74
    },
    {
      "midi": 66,
      "hit": false,
      "t": 83683.33333333334,
      "d": 266.66666666665697,
      "v": 57
    },
    {
      "midi": 78,
      "hit": false,
      "t": 83916.66666666667,
      "d": 416.66666666665697,
      "v": 101
    },
    {
      "midi": 73,
      "hit": false,
      "t": 84416.66666666666,
      "d": 100,
      "v": 109
    },
    {
      "midi": 90,
      "hit": false,
      "t": 85433.33333333333,
      "d": 116.66666666667152,
      "v": 109
    },
    {
      "midi": 78,
      "hit": false,
      "t": 85450,
      "d": 100,
      "v": 93
    },
    {
      "midi": 66,
      "hit": false,
      "t": 85783.33333333333,
      "d": 216.66666666667152,
      "v": 35
    },
    {
      "midi": 85,
      "hit": false,
      "t": 85966.66666666666,
      "d": 466.6666666666715,
      "v": 109
    },
    {
      "midi": 78,
      "hit": false,
      "t": 85983.33333333333,
      "d": 450,
      "v": 74
    },
    {
      "midi": 83,
      "hit": false,
      "t": 86466.66666666666,
      "d": 250,
      "v": 86
    },
    {
      "midi": 83,
      "hit": false,
      "t": 86749.99999999999,
      "d": 466.6666666666715,
      "v": 92
    },
    {
      "midi": 59,
      "hit": false,
      "t": 86766.66666666666,
      "d": 1716.6666666666715,
      "v": 70
    },
    {
      "midi": 76,
      "hit": false,
      "t": 87533.33333333333,
      "d": 283.3333333333285,
      "v": 86
    },
    {
      "midi": 64,
      "hit": false,
      "t": 87849.99999999999,
      "d": 783.333333333343,
      "v": 52
    },
    {
      "midi": 71,
      "hit": false,
      "t": 88066.66666666666,
      "d": 566.6666666666715,
      "v": 78
    },
    {
      "midi": 57,
      "hit": false,
      "t": 88783.33333333333,
      "d": 1533.333333333314,
      "v": 89
    },
    {
      "midi": 61,
      "hit": false,
      "t": 89316.66666666666,
      "d": 1483.333333333314,
      "v": 45
    },
    {
      "midi": 64,
      "hit": false,
      "t": 89349.99999999999,
      "d": 350,
      "v": 51
    },
    {
      "midi": 76,
      "hit": false,
      "t": 89566.66666666666,
      "d": 449.99999999998545,
      "v": 96
    },
    {
      "midi": 64,
      "hit": false,
      "t": 89833.33333333331,
      "d": 550,
      "v": 31
    },
    {
      "midi": 73,
      "hit": false,
      "t": 90083.33333333331,
      "d": 733.3333333333285,
      "v": 101
    },
    {
      "midi": 69,
      "hit": false,
      "t": 90616.66666666664,
      "d": 216.66666666667152,
      "v": 80
    },
    {
      "midi": 61,
      "hit": false,
      "t": 90849.99999999999,
      "d": 1233.3333333333285,
      "v": 52
    },
    {
      "midi": 54,
      "hit": false,
      "t": 90883.33333333331,
      "d": 1266.6666666666715,
      "v": 85
    },
    {
      "midi": 73,
      "hit": false,
      "t": 91366.66666666664,
      "d": 383.3333333333285,
      "v": 74
    },
    {
      "midi": 66,
      "hit": false,
      "t": 91616.66666666664,
      "d": 383.3333333333285,
      "v": 78
    },
    {
      "midi": 73,
      "hit": false,
      "t": 91933.3333333333,
      "d": 83.33333333334303,
      "v": 36
    },
    {
      "midi": 78,
      "hit": false,
      "t": 92149.99999999999,
      "d": 333.3333333333285,
      "v": 109
    },
    {
      "midi": 66,
      "hit": false,
      "t": 92166.66666666666,
      "d": 100,
      "v": 71
    },
    {
      "midi": 66,
      "hit": false,
      "t": 92349.99999999999,
      "d": 166.66666666665697,
      "v": 29
    },
    {
      "midi": 73,
      "hit": false,
      "t": 92449.99999999999,
      "d": 199.99999999998545,
      "v": 53
    },
    {
      "midi": 66,
      "hit": false,
      "t": 92649.99999999997,
      "d": 366.6666666666715,
      "v": 58
    },
    {
      "midi": 74,
      "hit": false,
      "t": 92666.66666666664,
      "d": 66.66666666667152,
      "v": 46
    },
    {
      "midi": 74,
      "hit": false,
      "t": 92933.33333333331,
      "d": 333.3333333333285,
      "v": 92
    },
    {
      "midi": 71,
      "hit": false,
      "t": 92933.33333333331,
      "d": 483.3333333333285,
      "v": 70
    },
    {
      "midi": 59,
      "hit": false,
      "t": 92933.33333333331,
      "d": 616.666666666657,
      "v": 86
    },
    {
      "midi": 55,
      "hit": false,
      "t": 93699.99999999997,
      "d": 150,
      "v": 92
    },
    {
      "midi": 71,
      "hit": false,
      "t": 93699.99999999997,
      "d": 150,
      "v": 89
    },
    {
      "midi": 67,
      "hit": false,
      "t": 93699.99999999997,
      "d": 166.66666666667152,
      "v": 86
    },
    {
      "midi": 66,
      "hit": false,
      "t": 93700,
      "d": 166.66666666667152,
      "v": 116
    },
    {
      "midi": 71,
      "hit": false,
      "t": 93966.66666666667,
      "d": 266.6666666666715,
      "v": 100
    },
    {
      "midi": 54,
      "hit": false,
      "t": 94216.66666666664,
      "d": 750,
      "v": 78
    },
    {
      "midi": 73,
      "hit": false,
      "t": 94216.66666666664,
      "d": 750,
      "v": 71
    },
    {
      "midi": 73,
      "hit": false,
      "t": 94216.66666666667,
      "d": 216.66666666667152,
      "v": 109
    },
    {
      "midi": 74,
      "hit": false,
      "t": 94483.33333333334,
      "d": 266.6666666666715,
      "v": 86
    },
    {
      "midi": 61,
      "hit": false,
      "t": 94733.33333333331,
      "d": 333.33333333331393,
      "v": 1
    },
    {
      "midi": 76,
      "hit": false,
      "t": 94733.33333333334,
      "d": 200,
      "v": 89
    },
    {
      "midi": 55,
      "hit": false,
      "t": 94999.99999999997,
      "d": 1383.3333333333285,
      "v": 63
    },
    {
      "midi": 78,
      "hit": false,
      "t": 95000.00000000001,
      "d": 216.66666666667152,
      "v": 109
    },
    {
      "midi": 78,
      "hit": false,
      "t": 95033.3333333333,
      "d": 333.3333333333285,
      "v": 63
    },
    {
      "midi": 76,
      "hit": false,
      "t": 95516.66666666669,
      "d": 216.66666666667152,
      "v": 96
    },
    {
      "midi": 74,
      "hit": false,
      "t": 95766.66666666669,
      "d": 166.66666666667152,
      "v": 96
    },
    {
      "midi": 78,
      "hit": false,
      "t": 95783.3333333333,
      "d": 616.6666666666715,
      "v": 74
    },
    {
      "midi": 62,
      "hit": false,
      "t": 96033.3333333333,
      "d": 816.6666666666715,
      "v": 32
    },
    {
      "midi": 71,
      "hit": false,
      "t": 96266.66666666663,
      "d": 416.6666666666715,
      "v": 66
    },
    {
      "midi": 71,
      "hit": false,
      "t": 96283.33333333336,
      "d": 200,
      "v": 96
    },
    {
      "midi": 69,
      "hit": false,
      "t": 96800.00000000003,
      "d": 700,
      "v": 96
    },
    {
      "midi": 57,
      "hit": false,
      "t": 97049.99999999997,
      "d": 1983.3333333333285,
      "v": 68
    },
    {
      "midi": 54,
      "hit": false,
      "t": 97083.3333333333,
      "d": 1916.6666666666715,
      "v": 61
    },
    {
      "midi": 61,
      "hit": false,
      "t": 97083.3333333333,
      "d": 2016.666666666657,
      "v": 71
    },
    {
      "midi": 66,
      "hit": false,
      "t": 97316.66666666663,
      "d": 83.33333333332848,
      "v": 78
    },
    {
      "midi": 83,
      "hit": false,
      "t": 97566.6666666667,
      "d": 216.66666666667152,
      "v": 110
    },
    {
      "midi": 69,
      "hit": false,
      "t": 97583.33333333328,
      "d": 116.66666666667152,
      "v": 89
    },
    {
      "midi": 81,
      "hit": false,
      "t": 97833.33333333337,
      "d": 566.6666666666715,
      "v": 115
    },
    {
      "midi": 76,
      "hit": false,
      "t": 97866.66666666663,
      "d": 66.66666666667152,
      "v": 83
    },
    {
      "midi": 78,
      "hit": false,
      "t": 98099.99999999997,
      "d": 83.33333333332848,
      "v": 109
    },
    {
      "midi": 81,
      "hit": false,
      "t": 98366.66666666663,
      "d": 66.66666666667152,
      "v": 89
    },
    {
      "midi": 88,
      "hit": false,
      "t": 98633.3333333333,
      "d": 250,
      "v": 96
    },
    {
      "midi": 85,
      "hit": false,
      "t": 98866.66666666663,
      "d": 133.33333333334303,
      "v": 69
    },
    {
      "midi": 83,
      "hit": false,
      "t": 98866.66666666672,
      "d": 150,
      "v": 105
    },
    {
      "midi": 85,
      "hit": false,
      "t": 99000.00000000004,
      "d": 100,
      "v": 116
    },
    {
      "midi": 86,
      "hit": false,
      "t": 99116.66666666672,
      "d": 133.33333333332848,
      "v": 92
    },
    {
      "midi": 59,
      "hit": false,
      "t": 99149.99999999996,
      "d": 700.0000000000146,
      "v": 72
    },
    {
      "midi": 85,
      "hit": false,
      "t": 99250.00000000004,
      "d": 166.66666666665697,
      "v": 109
    },
    {
      "midi": 83,
      "hit": false,
      "t": 99383.33333333337,
      "d": 166.66666666665697,
      "v": 89
    },
    {
      "midi": 81,
      "hit": false,
      "t": 99516.6666666667,
      "d": 116.66666666665697,
      "v": 100
    },
    {
      "midi": 67,
      "hit": false,
      "t": 99633.3333333333,
      "d": 83.33333333334303,
      "v": 83
    },
    {
      "midi": 71,
      "hit": false,
      "t": 99633.3333333333,
      "d": 83.33333333334303,
      "v": 86
    },
    {
      "midi": 83,
      "hit": false,
      "t": 99633.33333333336,
      "d": 150,
      "v": 86
    },
    {
      "midi": 64,
      "hit": false,
      "t": 99649.99999999997,
      "d": 200,
      "v": 59
    },
    {
      "midi": 81,
      "hit": false,
      "t": 99766.66666666669,
      "d": 150.00000000001455,
      "v": 105
    },
    {
      "midi": 79,
      "hit": false,
      "t": 99900.00000000003,
      "d": 150.00000000001455,
      "v": 92
    },
    {
      "midi": 78,
      "hit": false,
      "t": 100033.33333333337,
      "d": 100,
      "v": 101
    },
    {
      "midi": 59,
      "hit": false,
      "t": 100149.99999999997,
      "d": 366.66666666668607,
      "v": 74
    },
    {
      "midi": 79,
      "hit": false,
      "t": 100150.00000000004,
      "d": 133.33333333332848,
      "v": 100
    },
    {
      "midi": 64,
      "hit": false,
      "t": 100166.66666666664,
      "d": 333.33333333334303,
      "v": 66
    },
    {
      "midi": 78,
      "hit": false,
      "t": 100283.33333333337,
      "d": 150,
      "v": 101
    },
    {
      "midi": 76,
      "hit": false,
      "t": 100416.6666666667,
      "d": 133.33333333334303,
      "v": 92
    },
    {
      "midi": 67,
      "hit": false,
      "t": 100433.33333333331,
      "d": 66.66666666667152,
      "v": 76
    },
    {
      "midi": 71,
      "hit": false,
      "t": 100433.33333333331,
      "d": 66.66666666667152,
      "v": 86
    },
    {
      "midi": 74,
      "hit": false,
      "t": 100550.00000000004,
      "d": 183.33333333334303,
      "v": 100
    },
    {
      "midi": 76,
      "hit": false,
      "t": 100666.66666666672,
      "d": 316.6666666666715,
      "v": 100
    },
    {
      "midi": 81,
      "hit": false,
      "t": 100933.33333333339,
      "d": 233.33333333332848,
      "v": 92
    },
    {
      "midi": 64,
      "hit": false,
      "t": 101183.33333333333,
      "d": 216.66666666667152,
      "v": 62
    },
    {
      "midi": 61,
      "hit": false,
      "t": 101183.33333333333,
      "d": 283.33333333334303,
      "v": 60
    },
    {
      "midi": 69,
      "hit": false,
      "t": 101183.33333333339,
      "d": 1083.3333333333285,
      "v": 105
    },
    {
      "midi": 69,
      "hit": false,
      "t": 101450,
      "d": 83.33333333334303,
      "v": 86
    },
    {
      "midi": 73,
      "hit": false,
      "t": 101466.66666666667,
      "d": 50,
      "v": 78
    },
    {
      "midi": 69,
      "hit": false,
      "t": 101983.33333333334,
      "d": 600.0000000000146,
      "v": 80
    },
    {
      "midi": 73,
      "hit": false,
      "t": 101983.33333333334,
      "d": 1000.0000000000146,
      "v": 74
    },
    {
      "midi": 61,
      "hit": false,
      "t": 102250.00000000001,
      "d": 366.6666666666715,
      "v": 1
    },
    {
      "midi": 64,
      "hit": false,
      "t": 102266.66666666669,
      "d": 500,
      "v": 51
    },
    {
      "midi": 73,
      "hit": false,
      "t": 102483.33333333339,
      "d": 116.66666666667152,
      "v": 109
    },
    {
      "midi": 69,
      "hit": false,
      "t": 102716.66666666669,
      "d": 200,
      "v": 86
    },
    {
      "midi": 66,
      "hit": false,
      "t": 102733.33333333339,
      "d": 250,
      "v": 71
    },
    {
      "midi": 69,
      "hit": false,
      "t": 103000.00000000006,
      "d": 1050,
      "v": 89
    },
    {
      "midi": 69,
      "hit": false,
      "t": 103083.33333333336,
      "d": 66.66666666667152,
      "v": 50
    },
    {
      "midi": 57,
      "hit": false,
      "t": 103216.6666666667,
      "d": 1633.333333333343,
      "v": 27
    },
    {
      "midi": 66,
      "hit": false,
      "t": 103250.00000000003,
      "d": 383.33333333334303,
      "v": 74
    },
    {
      "midi": 54,
      "hit": false,
      "t": 103250.00000000003,
      "d": 1616.666666666686,
      "v": 67
    },
    {
      "midi": 62,
      "hit": false,
      "t": 103250.00000000003,
      "d": 1933.3333333333721,
      "v": 72
    },
    {
      "midi": 73,
      "hit": false,
      "t": 103766.6666666667,
      "d": 116.66666666667152,
      "v": 78
    },
    {
      "midi": 66,
      "hit": false,
      "t": 104016.6666666667,
      "d": 166.66666666667152,
      "v": 85
    },
    {
      "midi": 73,
      "hit": false,
      "t": 104550.00000000004,
      "d": 383.33333333334303,
      "v": 109
    },
    {
      "midi": 67,
      "hit": false,
      "t": 104800.00000000006,
      "d": 116.66666666667152,
      "v": 110
    },
    {
      "midi": 69,
      "hit": false,
      "t": 104933.3333333334,
      "d": 116.66666666667152,
      "v": 89
    },
    {
      "midi": 71,
      "hit": false,
      "t": 105033.33333333339,
      "d": 233.33333333334303,
      "v": 78
    },
    {
      "midi": 66,
      "hit": false,
      "t": 105066.66666666674,
      "d": 133.33333333332848,
      "v": 101
    },
    {
      "midi": 59,
      "hit": false,
      "t": 105166.66666666673,
      "d": 3600.0000000000437,
      "v": 11
    },
    {
      "midi": 62,
      "hit": false,
      "t": 105316.66666666673,
      "d": 1533.333333333343,
      "v": 74
    },
    {
      "midi": 67,
      "hit": false,
      "t": 105316.66666666674,
      "d": 100,
      "v": 105
    },
    {
      "midi": 71,
      "hit": false,
      "t": 105450.00000000007,
      "d": 50,
      "v": 78
    },
    {
      "midi": 71,
      "hit": false,
      "t": 105566.66666666673,
      "d": 116.66666666667152,
      "v": 68
    },
    {
      "midi": 74,
      "hit": false,
      "t": 105583.3333333334,
      "d": 50,
      "v": 96
    },
    {
      "midi": 78,
      "hit": false,
      "t": 105700.00000000007,
      "d": 133.33333333332848,
      "v": 101
    },
    {
      "midi": 73,
      "hit": false,
      "t": 105833.3333333334,
      "d": 83.33333333332848,
      "v": 116
    },
    {
      "midi": 81,
      "hit": false,
      "t": 105850.00000000007,
      "d": 116.66666666667152,
      "v": 5
    },
    {
      "midi": 71,
      "hit": false,
      "t": 105966.66666666673,
      "d": 116.66666666667152,
      "v": 89
    },
    {
      "midi": 74,
      "hit": false,
      "t": 106100.00000000007,
      "d": 100,
      "v": 100
    },
    {
      "midi": 74,
      "hit": false,
      "t": 106100.00000000007,
      "d": 66.66666666667152,
      "v": 96
    },
    {
      "midi": 78,
      "hit": false,
      "t": 106216.66666666674,
      "d": 83.33333333332848,
      "v": 93
    },
    {
      "midi": 83,
      "hit": false,
      "t": 106350.00000000007,
      "d": 100,
      "v": 105
    },
    {
      "midi": 78,
      "hit": false,
      "t": 106483.3333333334,
      "d": 50,
      "v": 78
    },
    {
      "midi": 71,
      "hit": false,
      "t": 106600.00000000007,
      "d": 466.6666666666715,
      "v": 80
    },
    {
      "midi": 81,
      "hit": false,
      "t": 106616.66666666673,
      "d": 133.33333333334303,
      "v": 100
    },
    {
      "midi": 80,
      "hit": false,
      "t": 106733.3333333334,
      "d": 150.00000000001455,
      "v": 101
    },
    {
      "midi": 79,
      "hit": false,
      "t": 106866.66666666674,
      "d": 116.66666666667152,
      "v": 96
    },
    {
      "midi": 81,
      "hit": false,
      "t": 107000.00000000009,
      "d": 100,
      "v": 100
    },
    {
      "midi": 76,
      "hit": false,
      "t": 107133.33333333342,
      "d": 133.33333333334303,
      "v": 92
    },
    {
      "midi": 77,
      "hit": false,
      "t": 107250.00000000009,
      "d": 166.66666666667152,
      "v": 100
    },
    {
      "midi": 67,
      "hit": false,
      "t": 107383.33333333342,
      "d": 350,
      "v": 80
    },
    {
      "midi": 78,
      "hit": false,
      "t": 107383.33333333343,
      "d": 150,
      "v": 121
    },
    {
      "midi": 64,
      "hit": false,
      "t": 107400.00000000009,
      "d": 883.333333333343,
      "v": 72
    },
    {
      "midi": 77,
      "hit": false,
      "t": 107516.66666666676,
      "d": 133.33333333334303,
      "v": 92
    },
    {
      "midi": 76,
      "hit": false,
      "t": 107633.33333333343,
      "d": 116.66666666667152,
      "v": 96
    },
    {
      "midi": 73,
      "hit": false,
      "t": 107766.66666666677,
      "d": 183.33333333332848,
      "v": 109
    },
    {
      "midi": 74,
      "hit": false,
      "t": 107900.0000000001,
      "d": 150,
      "v": 105
    },
    {
      "midi": 67,
      "hit": false,
      "t": 107916.66666666674,
      "d": 116.66666666667152,
      "v": 78
    },
    {
      "midi": 76,
      "hit": false,
      "t": 107916.66666666674,
      "d": 383.3333333333576,
      "v": 89
    },
    {
      "midi": 71,
      "hit": false,
      "t": 108033.33333333343,
      "d": 750,
      "v": 96
    },
    {
      "midi": 67,
      "hit": false,
      "t": 108150.00000000009,
      "d": 116.66666666667152,
      "v": 45
    },
    {
      "midi": 64,
      "hit": false,
      "t": 108400.0000000001,
      "d": 516.6666666666715,
      "v": 63
    },
    {
      "midi": 67,
      "hit": false,
      "t": 108666.66666666677,
      "d": 133.33333333332848,
      "v": 78
    },
    {
      "midi": 76,
      "hit": false,
      "t": 108683.33333333343,
      "d": 400,
      "v": 74
    },
    {
      "midi": 76,
      "hit": false,
      "t": 108700.0000000001,
      "d": 66.66666666667152,
      "v": 57
    },
    {
      "midi": 73,
      "hit": false,
      "t": 109183.33333333343,
      "d": 1050,
      "v": 101
    },
    {
      "midi": 61,
      "hit": false,
      "t": 109450.00000000012,
      "d": 2066.6666666666424,
      "v": 51
    },
    {
      "midi": 54,
      "hit": false,
      "t": 109450.00000000012,
      "d": 2133.333333333314,
      "v": 78
    },
    {
      "midi": 66,
      "hit": false,
      "t": 109833.33333333344,
      "d": 100,
      "v": 45
    },
    {
      "midi": 66,
      "hit": false,
      "t": 109966.66666666677,
      "d": 200,
      "v": 35
    },
    {
      "midi": 73,
      "hit": false,
      "t": 110216.66666666677,
      "d": 433.33333333331393,
      "v": 74
    },
    {
      "midi": 66,
      "hit": false,
      "t": 110350.0000000001,
      "d": 33.33333333332848,
      "v": 31
    },
    {
      "midi": 66,
      "hit": false,
      "t": 110616.66666666676,
      "d": 50,
      "v": 38
    },
    {
      "midi": 73,
      "hit": false,
      "t": 110733.33333333343,
      "d": 50,
      "v": 46
    },
    {
      "midi": 66,
      "hit": false,
      "t": 110733.33333333343,
      "d": 433.3333333333285,
      "v": 78
    },
    {
      "midi": 66,
      "hit": false,
      "t": 110733.33333333343,
      "d": 100,
      "v": 101
    },
    {
      "midi": 74,
      "hit": false,
      "t": 111000.0000000001,
      "d": 166.66666666665697,
      "v": 105
    },
    {
      "midi": 73,
      "hit": false,
      "t": 111133.33333333343,
      "d": 133.33333333332848,
      "v": 78
    },
    {
      "midi": 66,
      "hit": false,
      "t": 111250.00000000009,
      "d": 216.66666666667152,
      "v": 93
    },
    {
      "midi": 73,
      "hit": false,
      "t": 111250.00000000009,
      "d": 283.33333333334303,
      "v": 74
    },
    {
      "midi": 71,
      "hit": false,
      "t": 111250.00000000009,
      "d": 133.33333333334303,
      "v": 89
    },
    {
      "midi": 69,
      "hit": false,
      "t": 111383.33333333343,
      "d": 166.66666666665697,
      "v": 92
    },
    {
      "midi": 55,
      "hit": false,
      "t": 111516.66666666676,
      "d": 1383.333333333343,
      "v": 63
    },
    {
      "midi": 71,
      "hit": false,
      "t": 111516.66666666676,
      "d": 516.666666666657,
      "v": 105
    },
    {
      "midi": 78,
      "hit": false,
      "t": 111550.0000000001,
      "d": 333.3333333333285,
      "v": 63
    },
    {
      "midi": 78,
      "hit": false,
      "t": 112300.0000000001,
      "d": 616.6666666666715,
      "v": 74
    },
    {
      "midi": 62,
      "hit": false,
      "t": 112550.0000000001,
      "d": 816.6666666666715,
      "v": 32
    },
    {
      "midi": 71,
      "hit": false,
      "t": 112783.33333333343,
      "d": 433.33333333334303,
      "v": 66
    },
    {
      "midi": 57,
      "hit": false,
      "t": 113583.33333333343,
      "d": 1966.6666666666424,
      "v": 68
    },
    {
      "midi": 61,
      "hit": false,
      "t": 113600.0000000001,
      "d": 2016.6666666666279,
      "v": 71
    },
    {
      "midi": 54,
      "hit": false,
      "t": 113616.66666666677,
      "d": 1899.999999999971,
      "v": 61
    },
    {
      "midi": 66,
      "hit": false,
      "t": 113833.33333333343,
      "d": 83.33333333332848,
      "v": 78
    },
    {
      "midi": 69,
      "hit": false,
      "t": 114100.00000000009,
      "d": 116.66666666667152,
      "v": 89
    },
    {
      "midi": 76,
      "hit": false,
      "t": 114383.33333333343,
      "d": 83.33333333332848,
      "v": 83
    },
    {
      "midi": 78,
      "hit": false,
      "t": 114616.66666666676,
      "d": 83.33333333332848,
      "v": 109
    },
    {
      "midi": 81,
      "hit": false,
      "t": 114883.33333333342,
      "d": 83.33333333332848,
      "v": 89
    },
    {
      "midi": 88,
      "hit": false,
      "t": 115150.00000000007,
      "d": 250,
      "v": 96
    },
    {
      "midi": 85,
      "hit": false,
      "t": 115383.3333333334,
      "d": 133.33333333334303,
      "v": 69
    },
    {
      "midi": 59,
      "hit": false,
      "t": 115666.66666666673,
      "d": 700.0000000000146,
      "v": 72
    },
    {
      "midi": 67,
      "hit": false,
      "t": 116150.00000000007,
      "d": 83.33333333334303,
      "v": 83
    },
    {
      "midi": 71,
      "hit": false,
      "t": 116150.00000000007,
      "d": 83.33333333334303,
      "v": 86
    },
    {
      "midi": 64,
      "hit": false,
      "t": 116166.66666666674,
      "d": 216.66666666667152,
      "v": 59
    },
    {
      "midi": 64,
      "hit": false,
      "t": 116683.33333333342,
      "d": 333.33333333334303,
      "v": 66
    },
    {
      "midi": 59,
      "hit": false,
      "t": 116683.33333333342,
      "d": 350.00000000001455,
      "v": 74
    },
    {
      "midi": 67,
      "hit": false,
      "t": 116950.00000000009,
      "d": 66.66666666667152,
      "v": 76
    },
    {
      "midi": 71,
      "hit": false,
      "t": 116950.00000000009,
      "d": 66.66666666667152,
      "v": 86
    },
    {
      "midi": 64,
      "hit": false,
      "t": 117700.0000000001,
      "d": 216.66666666667152,
      "v": 62
    },
    {
      "midi": 61,
      "hit": false,
      "t": 117700.0000000001,
      "d": 283.33333333334303,
      "v": 60
    },
    {
      "midi": 69,
      "hit": false,
      "t": 117983.33333333344,
      "d": 66.66666666667152,
      "v": 86
    },
    {
      "midi": 73,
      "hit": false,
      "t": 117983.33333333344,
      "d": 66.66666666667152,
      "v": 78
    },
    {
      "midi": 69,
      "hit": false,
      "t": 118500.00000000012,
      "d": 616.6666666666715,
      "v": 80
    },
    {
      "midi": 73,
      "hit": false,
      "t": 118500.00000000012,
      "d": 1016.6666666666715,
      "v": 74
    },
    {
      "midi": 61,
      "hit": false,
      "t": 118766.66666666679,
      "d": 366.6666666666715,
      "v": 1
    },
    {
      "midi": 64,
      "hit": false,
      "t": 118800.00000000012,
      "d": 500.00000000001455,
      "v": 51
    },
    {
      "midi": 69,
      "hit": false,
      "t": 119233.33333333346,
      "d": 200,
      "v": 86
    },
    {
      "midi": 69,
      "hit": false,
      "t": 119600.00000000012,
      "d": 66.66666666667152,
      "v": 50
    },
    {
      "midi": 57,
      "hit": false,
      "t": 119733.33333333346,
      "d": 1633.333333333343,
      "v": 27
    },
    {
      "midi": 66,
      "hit": false,
      "t": 119766.66666666679,
      "d": 400,
      "v": 74
    },
    {
      "midi": 54,
      "hit": false,
      "t": 119766.66666666679,
      "d": 1616.666666666686,
      "v": 67
    },
    {
      "midi": 62,
      "hit": false,
      "t": 119766.66666666679,
      "d": 1933.3333333333721,
      "v": 72
    },
    {
      "midi": 73,
      "hit": false,
      "t": 120283.33333333346,
      "d": 116.66666666667152,
      "v": 78
    },
    {
      "midi": 66,
      "hit": false,
      "t": 120533.33333333346,
      "d": 166.66666666667152,
      "v": 85
    },
    {
      "midi": 73,
      "hit": false,
      "t": 121066.6666666668,
      "d": 383.33333333334303,
      "v": 109
    },
    {
      "midi": 71,
      "hit": false,
      "t": 121566.66666666682,
      "d": 216.66666666667152,
      "v": 78
    },
    {
      "midi": 59,
      "hit": false,
      "t": 121683.33333333349,
      "d": 3600.000000000029,
      "v": 11
    },
    {
      "midi": 62,
      "hit": false,
      "t": 121833.33333333349,
      "d": 1533.333333333343,
      "v": 74
    },
    {
      "midi": 71,
      "hit": false,
      "t": 122100.00000000016,
      "d": 116.66666666667152,
      "v": 68
    },
    {
      "midi": 81,
      "hit": false,
      "t": 122366.66666666683,
      "d": 116.66666666667152,
      "v": 92
    },
    {
      "midi": 74,
      "hit": false,
      "t": 122616.66666666683,
      "d": 100,
      "v": 100
    },
    {
      "midi": 71,
      "hit": false,
      "t": 123116.66666666683,
      "d": 466.6666666666715,
      "v": 80
    },
    {
      "midi": 67,
      "hit": false,
      "t": 123900.00000000017,
      "d": 350,
      "v": 80
    },
    {
      "midi": 64,
      "hit": false,
      "t": 123916.66666666685,
      "d": 883.3333333333285,
      "v": 72
    },
    {
      "midi": 67,
      "hit": false,
      "t": 124433.3333333335,
      "d": 116.66666666667152,
      "v": 78
    },
    {
      "midi": 76,
      "hit": false,
      "t": 124433.3333333335,
      "d": 383.33333333334303,
      "v": 89
    },
    {
      "midi": 67,
      "hit": false,
      "t": 124683.3333333335,
      "d": 100,
      "v": 45
    },
    {
      "midi": 64,
      "hit": false,
      "t": 124933.33333333352,
      "d": 500,
      "v": 63
    },
    {
      "midi": 67,
      "hit": false,
      "t": 125183.33333333352,
      "d": 150,
      "v": 78
    },
    {
      "midi": 76,
      "hit": false,
      "t": 125216.66666666685,
      "d": 66.66666666667152,
      "v": 57
    },
    {
      "midi": 73,
      "hit": false,
      "t": 125950.00000000019,
      "d": 100,
      "v": 67
    },
    {
      "midi": 66,
      "hit": false,
      "t": 125950.00000000019,
      "d": 116.66666666667152,
      "v": 78
    },
    {
      "midi": 54,
      "hit": false,
      "t": 125966.66666666686,
      "d": 116.66666666667152,
      "v": 67
    },
    {
      "midi": 61,
      "hit": false,
      "t": 125966.66666666686,
      "d": 116.66666666667152,
      "v": 71
    },
    {
      "midi": 76,
      "hit": false,
      "t": 125983.33333333353,
      "d": 33.33333333332848,
      "v": 59
    },
    {
      "midi": 73,
      "hit": false,
      "t": 126216.66666666686,
      "d": 83.33333333334303,
      "v": 69
    },
    {
      "midi": 66,
      "hit": false,
      "t": 126216.66666666686,
      "d": 100.00000000001455,
      "v": 74
    },
    {
      "midi": 76,
      "hit": false,
      "t": 126233.33333333353,
      "d": 66.66666666667152,
      "v": 74
    },
    {
      "midi": 54,
      "hit": false,
      "t": 126233.33333333353,
      "d": 116.66666666667152,
      "v": 69
    },
    {
      "midi": 61,
      "hit": false,
      "t": 126233.33333333353,
      "d": 116.66666666667152,
      "v": 74
    },
    {
      "midi": 66,
      "hit": false,
      "t": 127000.0000000002,
      "d": 1333.3333333333285,
      "v": 93
    },
    {
      "midi": 73,
      "hit": false,
      "t": 127000.0000000002,
      "d": 1333.3333333333285,
      "v": 85
    },
    {
      "midi": 61,
      "hit": false,
      "t": 127000.0000000002,
      "d": 1366.666666666657,
      "v": 78
    },
    {
      "midi": 54,
      "hit": false,
      "t": 127000.0000000002,
      "d": 1383.3333333333285,
      "v": 78
    },
    {
      "midi": 59,
      "hit": false,
      "t": 128033.33333333353,
      "d": 1650.0000000000146,
      "v": 57
    },
    {
      "midi": 66,
      "hit": false,
      "t": 128550.0000000002,
      "d": 1316.6666666666715,
      "v": 1
    },
    {
      "midi": 78,
      "hit": false,
      "t": 128816.66666666688,
      "d": 933.333333333343,
      "v": 61
    },
    {
      "midi": 67,
      "hit": false,
      "t": 130100.0000000002,
      "d": 700,
      "v": 44
    },
    {
      "midi": 64,
      "hit": false,
      "t": 130100.0000000002,
      "d": 1733.333333333314,
      "v": 29
    },
    {
      "midi": 79,
      "hit": false,
      "t": 130616.66666666688,
      "d": 100,
      "v": 86
    },
    {
      "midi": 76,
      "hit": false,
      "t": 130866.66666666688,
      "d": 66.66666666667152,
      "v": 70
    },
    {
      "midi": 67,
      "hit": false,
      "t": 131133.33333333355,
      "d": 316.66666666665697,
      "v": 26
    },
    {
      "midi": 71,
      "hit": false,
      "t": 131383.33333333355,
      "d": 566.6666666666279,
      "v": 80
    },
    {
      "midi": 67,
      "hit": false,
      "t": 131650.0000000002,
      "d": 166.66666666665697,
      "v": 36
    },
    {
      "midi": 69,
      "hit": false,
      "t": 131900.00000000017,
      "d": 116.66666666665697,
      "v": 48
    },
    {
      "midi": 64,
      "hit": false,
      "t": 132166.66666666683,
      "d": 850,
      "v": 39
    },
    {
      "midi": 57,
      "hit": false,
      "t": 132166.66666666683,
      "d": 1833.333333333343,
      "v": 61
    },
    {
      "midi": 69,
      "hit": false,
      "t": 132683.3333333335,
      "d": 600.0000000000291,
      "v": 62
    },
    {
      "midi": 73,
      "hit": false,
      "t": 132683.3333333335,
      "d": 633.3333333333721,
      "v": 58
    },
    {
      "midi": 64,
      "hit": false,
      "t": 133200.00000000017,
      "d": 266.66666666668607,
      "v": 8
    },
    {
      "midi": 69,
      "hit": false,
      "t": 133450.0000000002,
      "d": 133.33333333331393,
      "v": 63
    },
    {
      "midi": 73,
      "hit": false,
      "t": 133450.0000000002,
      "d": 149.9999999999709,
      "v": 63
    },
    {
      "midi": 73,
      "hit": false,
      "t": 133716.66666666683,
      "d": 166.66666666665697,
      "v": 22
    },
    {
      "midi": 69,
      "hit": false,
      "t": 134233.33333333352,
      "d": 366.66666666665697,
      "v": 70
    },
    {
      "midi": 66,
      "hit": false,
      "t": 134233.33333333352,
      "d": 433.33333333331393,
      "v": 52
    },
    {
      "midi": 62,
      "hit": false,
      "t": 134233.33333333352,
      "d": 933.3333333333139,
      "v": 59
    },
    {
      "midi": 66,
      "hit": false,
      "t": 134750.00000000017,
      "d": 100,
      "v": 9
    },
    {
      "midi": 62,
      "hit": false,
      "t": 135266.66666666683,
      "d": 466.66666666665697,
      "v": 54
    },
    {
      "midi": 73,
      "hit": false,
      "t": 135516.66666666683,
      "d": 116.66666666665697,
      "v": 66
    },
    {
      "midi": 69,
      "hit": false,
      "t": 135783.3333333335,
      "d": 316.66666666665697,
      "v": 89
    },
    {
      "midi": 66,
      "hit": false,
      "t": 136033.3333333335,
      "d": 366.66666666665697,
      "v": 71
    },
    {
      "midi": 50,
      "hit": false,
      "t": 136300.00000000015,
      "d": 900,
      "v": 26
    },
    {
      "midi": 67,
      "hit": false,
      "t": 136816.6666666668,
      "d": 100,
      "v": 86
    },
    {
      "midi": 64,
      "hit": false,
      "t": 137583.3333333335,
      "d": 600,
      "v": 54
    },
    {
      "midi": 67,
      "hit": false,
      "t": 137583.3333333335,
      "d": 733.333333333343,
      "v": 80
    },
    {
      "midi": 69,
      "hit": false,
      "t": 138366.66666666683,
      "d": 266.66666666665697,
      "v": 66
    },
    {
      "midi": 64,
      "hit": false,
      "t": 138366.66666666683,
      "d": 300,
      "v": 57
    },
    {
      "midi": 61,
      "hit": false,
      "t": 138366.66666666683,
      "d": 416.66666666665697,
      "v": 53
    },
    {
      "midi": 57,
      "hit": false,
      "t": 138366.66666666683,
      "d": 1166.666666666657,
      "v": 1
    },
    {
      "midi": 61,
      "hit": false,
      "t": 138883.3333333335,
      "d": 266.66666666665697,
      "v": 41
    },
    {
      "midi": 76,
      "hit": false,
      "t": 139133.3333333335,
      "d": 66.66666666665697,
      "v": 68
    },
    {
      "midi": 61,
      "hit": false,
      "t": 139400.00000000015,
      "d": 183.33333333334303,
      "v": 19
    },
    {
      "midi": 73,
      "hit": false,
      "t": 139650.00000000015,
      "d": 433.33333333334303,
      "v": 93
    },
    {
      "midi": 61,
      "hit": false,
      "t": 140416.66666666683,
      "d": 3299.999999999942,
      "v": 61
    },
    {
      "midi": 73,
      "hit": false,
      "t": 140683.3333333335,
      "d": 50,
      "v": 58
    },
    {
      "midi": 76,
      "hit": false,
      "t": 141200.00000000015,
      "d": 116.66666666665697,
      "v": 68
    },
    {
      "midi": 64,
      "hit": false,
      "t": 141450.00000000015,
      "d": 300,
      "v": 40
    },
    {
      "midi": 88,
      "hit": false,
      "t": 141716.6666666668,
      "d": 83.33333333334303,
      "v": 74
    },
    {
      "midi": 85,
      "hit": false,
      "t": 141966.6666666668,
      "d": 316.66666666665697,
      "v": 78
    },
    {
      "midi": 85,
      "hit": false,
      "t": 142483.33333333346,
      "d": 116.66666666665697,
      "v": 67
    },
    {
      "midi": 78,
      "hit": false,
      "t": 142483.33333333346,
      "d": 250,
      "v": 74
    },
    {
      "midi": 54,
      "hit": false,
      "t": 142483.33333333346,
      "d": 1349.999999999971,
      "v": 40
    },
    {
      "midi": 70,
      "hit": false,
      "t": 143266.66666666677,
      "d": 350,
      "v": 78
    },
    {
      "midi": 58,
      "hit": false,
      "t": 143516.66666666677,
      "d": 316.66666666665697,
      "v": 1
    },
    {
      "midi": 76,
      "hit": false,
      "t": 143783.33333333343,
      "d": 50,
      "v": 61
    },
    {
      "midi": 61,
      "hit": false,
      "t": 144550.0000000001,
      "d": 949.9999999999709,
      "v": 60
    },
    {
      "midi": 54,
      "hit": false,
      "t": 144550.0000000001,
      "d": 1366.666666666657,
      "v": 57
    },
    {
      "midi": 73,
      "hit": false,
      "t": 145066.66666666674,
      "d": 66.66666666665697,
      "v": 67
    },
    {
      "midi": 66,
      "hit": false,
      "t": 145066.66666666674,
      "d": 83.33333333331393,
      "v": 74
    },
    {
      "midi": 61,
      "hit": false,
      "t": 145583.3333333334,
      "d": 300,
      "v": 58
    },
    {
      "midi": 66,
      "hit": false,
      "t": 145850.00000000006,
      "d": 633.333333333343,
      "v": 74
    },
    {
      "midi": 47,
      "hit": false,
      "t": 146616.66666666674,
      "d": 1966.6666666666279,
      "v": 76
    },
    {
      "midi": 62,
      "hit": false,
      "t": 147133.3333333334,
      "d": 83.33333333334303,
      "v": 78
    },
    {
      "midi": 66,
      "hit": false,
      "t": 147133.3333333334,
      "d": 100,
      "v": 67
    },
    {
      "midi": 59,
      "hit": false,
      "t": 147650.00000000006,
      "d": 433.33333333331393,
      "v": 25
    },
    {
      "midi": 54,
      "hit": false,
      "t": 147650.00000000006,
      "d": 899.9999999999709,
      "v": 1
    },
    {
      "midi": 66,
      "hit": false,
      "t": 147916.66666666672,
      "d": 716.666666666657,
      "v": 52
    },
    {
      "midi": 62,
      "hit": false,
      "t": 147916.66666666672,
      "d": 750,
      "v": 83
    },
    {
      "midi": 59,
      "hit": false,
      "t": 148683.33333333337,
      "d": 1600,
      "v": 55
    },
    {
      "midi": 71,
      "hit": false,
      "t": 148950.00000000003,
      "d": 116.66666666665697,
      "v": 61
    },
    {
      "midi": 73,
      "hit": false,
      "t": 149200.00000000003,
      "d": 83.33333333334303,
      "v": 67
    },
    {
      "midi": 74,
      "hit": false,
      "t": 149466.66666666672,
      "d": 100,
      "v": 80
    },
    {
      "midi": 78,
      "hit": false,
      "t": 149983.33333333337,
      "d": 483.33333333334303,
      "v": 116
    },
    {
      "midi": 74,
      "hit": false,
      "t": 150500.00000000006,
      "d": 200,
      "v": 89
    },
    {
      "midi": 52,
      "hit": false,
      "t": 150750.00000000006,
      "d": 1366.666666666657,
      "v": 76
    },
    {
      "midi": 59,
      "hit": false,
      "t": 151266.66666666672,
      "d": 916.666666666657,
      "v": 61
    },
    {
      "midi": 71,
      "hit": false,
      "t": 151516.66666666672,
      "d": 500,
      "v": 86
    },
    {
      "midi": 67,
      "hit": false,
      "t": 152033.33333333337,
      "d": 683.3333333333139,
      "v": 80
    },
    {
      "midi": 64,
      "hit": false,
      "t": 152033.33333333337,
      "d": 799.9999999999709,
      "v": 54
    },
    {
      "midi": 69,
      "hit": false,
      "t": 152550.00000000003,
      "d": 50,
      "v": 31
    },
    {
      "midi": 57,
      "hit": false,
      "t": 152816.6666666667,
      "d": 1766.666666666657,
      "v": 76
    },
    {
      "midi": 64,
      "hit": false,
      "t": 153066.6666666667,
      "d": 1600,
      "v": 66
    },
    {
      "midi": 69,
      "hit": false,
      "t": 153333.33333333334,
      "d": 83.33333333334303,
      "v": 65
    },
    {
      "midi": 76,
      "hit": false,
      "t": 153583.33333333334,
      "d": 166.66666666665697,
      "v": 100
    },
    {
      "midi": 73,
      "hit": false,
      "t": 154100,
      "d": 616.6666666666861,
      "v": 93
    },
    {
      "midi": 62,
      "hit": false,
      "t": 154883.33333333334,
      "d": 2016.6666666666279,
      "v": 80
    },
    {
      "midi": 69,
      "hit": false,
      "t": 155133.33333333334,
      "d": 100,
      "v": 80
    },
    {
      "midi": 73,
      "hit": false,
      "t": 155400,
      "d": 66.66666666665697,
      "v": 93
    },
    {
      "midi": 78,
      "hit": false,
      "t": 155650,
      "d": 66.66666666665697,
      "v": 85
    },
    {
      "midi": 81,
      "hit": false,
      "t": 155916.66666666666,
      "d": 83.33333333334303,
      "v": 100
    },
    {
      "midi": 88,
      "hit": false,
      "t": 156166.66666666666,
      "d": 100,
      "v": 105
    },
    {
      "midi": 85,
      "hit": false,
      "t": 156433.3333333333,
      "d": 200,
      "v": 121
    },
    {
      "midi": 81,
      "hit": false,
      "t": 156683.3333333333,
      "d": 200,
      "v": 86
    },
    {
      "midi": 86,
      "hit": false,
      "t": 157716.66666666663,
      "d": 100,
      "v": 86
    },
    {
      "midi": 64,
      "hit": false,
      "t": 157983.33333333328,
      "d": 1150,
      "v": 41
    },
    {
      "midi": 86,
      "hit": false,
      "t": 158233.33333333328,
      "d": 533.3333333333139,
      "v": 96
    },
    {
      "midi": 83,
      "hit": false,
      "t": 158749.99999999994,
      "d": 300,
      "v": 83
    },
    {
      "midi": 85,
      "hit": false,
      "t": 159533.33333333328,
      "d": 200,
      "v": 109
    },
    {
      "midi": 81,
      "hit": false,
      "t": 159783.33333333328,
      "d": 83.33333333334303,
      "v": 92
    },
    {
      "midi": 76,
      "hit": false,
      "t": 160049.99999999997,
      "d": 83.33333333334303,
      "v": 56
    },
    {
      "midi": 57,
      "hit": false,
      "t": 160049.99999999997,
      "d": 899.9999999999709,
      "v": 51
    },
    {
      "midi": 73,
      "hit": false,
      "t": 160299.99999999997,
      "d": 333.33333333331393,
      "v": 85
    },
    {
      "midi": 64,
      "hit": false,
      "t": 160566.66666666663,
      "d": 366.66666666665697,
      "v": 70
    },
    {
      "midi": 69,
      "hit": false,
      "t": 160816.66666666663,
      "d": 249.9999999999709,
      "v": 78
    },
    {
      "midi": 73,
      "hit": false,
      "t": 160816.66666666663,
      "d": 283.3333333332848,
      "v": 67
    },
    {
      "midi": 62,
      "hit": false,
      "t": 161083.33333333326,
      "d": 1733.333333333314,
      "v": 74
    },
    {
      "midi": 73,
      "hit": false,
      "t": 161849.9999999999,
      "d": 100,
      "v": 64
    },
    {
      "midi": 76,
      "hit": false,
      "t": 162366.66666666657,
      "d": 283.33333333334303,
      "v": 96
    },
    {
      "midi": 73,
      "hit": false,
      "t": 162616.66666666657,
      "d": 333.33333333334303,
      "v": 101
    },
    {
      "midi": 73,
      "hit": false,
      "t": 163649.9999999999,
      "d": 216.66666666665697,
      "v": 93
    },
    {
      "midi": 76,
      "hit": false,
      "t": 163916.66666666657,
      "d": 433.33333333334303,
      "v": 83
    },
    {
      "midi": 73,
      "hit": false,
      "t": 164433.33333333326,
      "d": 716.666666666657,
      "v": 85
    },
    {
      "midi": 54,
      "hit": false,
      "t": 165199.9999999999,
      "d": 1449.999999999971,
      "v": 78
    },
    {
      "midi": 78,
      "hit": false,
      "t": 165716.66666666657,
      "d": 100,
      "v": 93
    },
    {
      "midi": 73,
      "hit": false,
      "t": 165983.33333333323,
      "d": 200,
      "v": 64
    },
    {
      "midi": 73,
      "hit": false,
      "t": 166233.33333333323,
      "d": 100,
      "v": 18
    },
    {
      "midi": 66,
      "hit": false,
      "t": 166499.99999999988,
      "d": 350,
      "v": 85
    },
    {
      "midi": 73,
      "hit": false,
      "t": 167016.66666666654,
      "d": 283.33333333334303,
      "v": 60
    },
    {
      "midi": 59,
      "hit": false,
      "t": 167266.66666666654,
      "d": 1850.000000000029,
      "v": 78
    },
    {
      "midi": 66,
      "hit": false,
      "t": 167533.33333333323,
      "d": 1600,
      "v": 66
    },
    {
      "midi": 71,
      "hit": false,
      "t": 167783.33333333323,
      "d": 100,
      "v": 76
    },
    {
      "midi": 73,
      "hit": false,
      "t": 168049.99999999988,
      "d": 83.33333333334303,
      "v": 109
    },
    {
      "midi": 74,
      "hit": false,
      "t": 168566.66666666657,
      "d": 83.33333333334303,
      "v": 83
    },
    {
      "midi": 78,
      "hit": false,
      "t": 169316.66666666657,
      "d": 166.66666666665697,
      "v": 101
    },
    {
      "midi": 50,
      "hit": false,
      "t": 169316.66666666657,
      "d": 1416.6666666666279,
      "v": 78
    },
    {
      "midi": 69,
      "hit": false,
      "t": 169583.33333333323,
      "d": 166.66666666665697,
      "v": 59
    },
    {
      "midi": 57,
      "hit": false,
      "t": 169849.99999999988,
      "d": 933.3333333333139,
      "v": 61
    },
    {
      "midi": 74,
      "hit": false,
      "t": 170099.99999999988,
      "d": 116.66666666665697,
      "v": 110
    },
    {
      "midi": 62,
      "hit": false,
      "t": 170449.99999999988,
      "d": 616.666666666657,
      "v": 12
    },
    {
      "midi": 69,
      "hit": false,
      "t": 170616.66666666654,
      "d": 650,
      "v": 96
    },
    {
      "midi": 73,
      "hit": false,
      "t": 171183.3333333332,
      "d": 83.33333333334303,
      "v": 53
    },
    {
      "midi": 73,
      "hit": false,
      "t": 171366.66666666654,
      "d": 250,
      "v": 93
    },
    {
      "midi": 57,
      "hit": false,
      "t": 171399.99999999988,
      "d": 1483.333333333314,
      "v": 83
    },
    {
      "midi": 64,
      "hit": false,
      "t": 171966.66666666654,
      "d": 266.66666666665697,
      "v": 49
    },
    {
      "midi": 81,
      "hit": false,
      "t": 172183.3333333332,
      "d": 100,
      "v": 105
    },
    {
      "midi": 64,
      "hit": false,
      "t": 172449.99999999985,
      "d": 300,
      "v": 48
    },
    {
      "midi": 73,
      "hit": false,
      "t": 172683.3333333332,
      "d": 666.6666666666861,
      "v": 121
    },
    {
      "midi": 64,
      "hit": false,
      "t": 172916.66666666654,
      "d": 183.33333333334303,
      "v": 53
    },
    {
      "midi": 69,
      "hit": false,
      "t": 173249.99999999988,
      "d": 66.66666666665697,
      "v": 31
    },
    {
      "midi": 54,
      "hit": false,
      "t": 173466.66666666654,
      "d": 1766.666666666686,
      "v": 101
    },
    {
      "midi": 61,
      "hit": false,
      "t": 173699.99999999988,
      "d": 1666.666666666686,
      "v": 71
    },
    {
      "midi": 69,
      "hit": false,
      "t": 173966.66666666654,
      "d": 116.66666666665697,
      "v": 100
    },
    {
      "midi": 73,
      "hit": false,
      "t": 174216.66666666654,
      "d": 66.66666666665697,
      "v": 85
    },
    {
      "midi": 78,
      "hit": false,
      "t": 174483.3333333332,
      "d": 100,
      "v": 116
    },
    {
      "midi": 81,
      "hit": false,
      "t": 174766.66666666654,
      "d": 233.33333333334303,
      "v": 92
    },
    {
      "midi": 78,
      "hit": false,
      "t": 175266.66666666657,
      "d": 133.33333333331393,
      "v": 74
    },
    {
      "midi": 59,
      "hit": false,
      "t": 175499.99999999988,
      "d": 1599.999999999971,
      "v": 80
    },
    {
      "midi": 78,
      "hit": false,
      "t": 176016.66666666654,
      "d": 133.33333333334303,
      "v": 109
    },
    {
      "midi": 71,
      "hit": false,
      "t": 176283.33333333323,
      "d": 116.66666666665697,
      "v": 72
    },
    {
      "midi": 66,
      "hit": false,
      "t": 176516.66666666654,
      "d": 516.666666666657,
      "v": 60
    },
    {
      "midi": 83,
      "hit": false,
      "t": 176816.66666666654,
      "d": 633.3333333333139,
      "v": 92
    },
    {
      "midi": 78,
      "hit": false,
      "t": 177349.99999999985,
      "d": 100,
      "v": 42
    },
    {
      "midi": 52,
      "hit": false,
      "t": 177599.99999999985,
      "d": 1333.333333333343,
      "v": 80
    },
    {
      "midi": 59,
      "hit": false,
      "t": 178133.3333333332,
      "d": 850,
      "v": 65
    },
    {
      "midi": 71,
      "hit": false,
      "t": 178383.3333333332,
      "d": 450,
      "v": 92
    },
    {
      "midi": 79,
      "hit": false,
      "t": 178399.99999999985,
      "d": 1016.6666666666861,
      "v": 105
    },
    {
      "midi": 64,
      "hit": false,
      "t": 179116.66666666654,
      "d": 400,
      "v": 1
    },
    {
      "midi": 55,
      "hit": false,
      "t": 179649.99999999988,
      "d": 1433.333333333314,
      "v": 96
    },
    {
      "midi": 62,
      "hit": false,
      "t": 179899.99999999988,
      "d": 1749.999999999971,
      "v": 83
    },
    {
      "midi": 71,
      "hit": false,
      "t": 180166.66666666654,
      "d": 116.66666666665697,
      "v": 96
    },
    {
      "midi": 79,
      "hit": false,
      "t": 180433.3333333332,
      "d": 1083.333333333343,
      "v": 120
    },
    {
      "midi": 74,
      "hit": false,
      "t": 180966.66666666654,
      "d": 450,
      "v": 115
    },
    {
      "midi": 57,
      "hit": false,
      "t": 181716.6666666665,
      "d": 1333.333333333314,
      "v": 89
    },
    {
      "midi": 64,
      "hit": false,
      "t": 181983.33333333317,
      "d": 1016.666666666657,
      "v": 54
    },
    {
      "midi": 69,
      "hit": false,
      "t": 182283.33333333317,
      "d": 50,
      "v": 61
    },
    {
      "midi": 73,
      "hit": false,
      "t": 182499.99999999983,
      "d": 483.33333333334303,
      "v": 116
    },
    {
      "midi": 76,
      "hit": false,
      "t": 182983.33333333317,
      "d": 516.666666666657,
      "v": 89
    },
    {
      "midi": 69,
      "hit": false,
      "t": 183499.99999999983,
      "d": 183.33333333334303,
      "v": 80
    },
    {
      "midi": 50,
      "hit": false,
      "t": 183783.33333333317,
      "d": 1599.999999999971,
      "v": 92
    },
    {
      "midi": 57,
      "hit": false,
      "t": 184066.6666666665,
      "d": 1399.9999999999418,
      "v": 80
    },
    {
      "midi": 66,
      "hit": false,
      "t": 184316.6666666665,
      "d": 100,
      "v": 109
    },
    {
      "midi": 62,
      "hit": false,
      "t": 184333.33333333317,
      "d": 916.666666666657,
      "v": 76
    },
    {
      "midi": 69,
      "hit": false,
      "t": 184583.33333333317,
      "d": 116.66666666665697,
      "v": 100
    },
    {
      "midi": 73,
      "hit": false,
      "t": 184849.99999999983,
      "d": 83.33333333334303,
      "v": 109
    },
    {
      "midi": 74,
      "hit": false,
      "t": 185099.99999999983,
      "d": 133.33333333334303,
      "v": 100
    },
    {
      "midi": 81,
      "hit": false,
      "t": 185366.66666666648,
      "d": 266.66666666662786,
      "v": 120
    },
    {
      "midi": 62,
      "hit": false,
      "t": 185399.9999999998,
      "d": 466.66666666662786,
      "v": 62
    },
    {
      "midi": 78,
      "hit": false,
      "t": 185616.66666666645,
      "d": 233.33333333331393,
      "v": 109
    },
    {
      "midi": 52,
      "hit": false,
      "t": 185883.33333333308,
      "d": 1500,
      "v": 78
    },
    {
      "midi": 79,
      "hit": false,
      "t": 185899.99999999974,
      "d": 250,
      "v": 78
    },
    {
      "midi": 59,
      "hit": false,
      "t": 186399.99999999974,
      "d": 1016.6666666666861,
      "v": 56
    },
    {
      "midi": 71,
      "hit": false,
      "t": 186649.99999999974,
      "d": 1150,
      "v": 86
    },
    {
      "midi": 79,
      "hit": false,
      "t": 186649.99999999974,
      "d": 1150,
      "v": 92
    },
    {
      "midi": 64,
      "hit": false,
      "t": 187199.99999999974,
      "d": 616.666666666657,
      "v": 49
    },
    {
      "midi": 74,
      "hit": false,
      "t": 187433.33333333308,
      "d": 200,
      "v": 72
    },
    {
      "midi": 76,
      "hit": false,
      "t": 187883.33333333305,
      "d": 133.33333333331393,
      "v": 74
    },
    {
      "midi": 73,
      "hit": false,
      "t": 187883.33333333305,
      "d": 366.66666666665697,
      "v": 78
    },
    {
      "midi": 57,
      "hit": false,
      "t": 187899.9999999997,
      "d": 1400,
      "v": 86
    },
    {
      "midi": 61,
      "hit": false,
      "t": 188416.66666666637,
      "d": 916.6666666666861,
      "v": 66
    },
    {
      "midi": 69,
      "hit": false,
      "t": 188683.33333333302,
      "d": 400,
      "v": 92
    },
    {
      "midi": 64,
      "hit": false,
      "t": 188949.99999999968,
      "d": 816.6666666667152,
      "v": 58
    },
    {
      "midi": 76,
      "hit": false,
      "t": 189216.66666666637,
      "d": 850.0000000000291,
      "v": 100
    },
    {
      "midi": 61,
      "hit": false,
      "t": 190016.6666666664,
      "d": 166.66666666665697,
      "v": 58
    },
    {
      "midi": 70,
      "hit": false,
      "t": 190016.6666666664,
      "d": 433.33333333331393,
      "v": 85
    },
    {
      "midi": 54,
      "hit": false,
      "t": 190016.6666666664,
      "d": 3766.666666666657,
      "v": 69
    },
    {
      "midi": 61,
      "hit": false,
      "t": 190516.66666666637,
      "d": 3333.333333333372,
      "v": 69
    },
    {
      "midi": 70,
      "hit": false,
      "t": 190816.66666666637,
      "d": 233.33333333334303,
      "v": 74
    },
    {
      "midi": 66,
      "hit": false,
      "t": 191066.66666666637,
      "d": 266.66666666668607,
      "v": 57
    },
    {
      "midi": 78,
      "hit": false,
      "t": 191299.9999999997,
      "d": 416.66666666668607,
      "v": 101
    },
    {
      "midi": 73,
      "hit": false,
      "t": 191799.99999999974,
      "d": 100,
      "v": 109
    },
    {
      "midi": 90,
      "hit": false,
      "t": 192816.6666666664,
      "d": 116.66666666665697,
      "v": 109
    },
    {
      "midi": 78,
      "hit": false,
      "t": 192833.33333333305,
      "d": 100,
      "v": 93
    },
    {
      "midi": 66,
      "hit": false,
      "t": 193166.6666666664,
      "d": 216.66666666665697,
      "v": 35
    },
    {
      "midi": 85,
      "hit": false,
      "t": 193349.99999999974,
      "d": 466.66666666665697,
      "v": 109
    },
    {
      "midi": 78,
      "hit": false,
      "t": 193366.6666666664,
      "d": 450,
      "v": 74
    },
    {
      "midi": 83,
      "hit": false,
      "t": 193849.99999999974,
      "d": 250,
      "v": 86
    },
    {
      "midi": 83,
      "hit": false,
      "t": 194133.33333333308,
      "d": 466.66666666665697,
      "v": 92
    },
    {
      "midi": 59,
      "hit": false,
      "t": 194149.99999999974,
      "d": 1716.666666666657,
      "v": 70
    },
    {
      "midi": 76,
      "hit": false,
      "t": 194933.33333333308,
      "d": 266.66666666665697,
      "v": 86
    },
    {
      "midi": 64,
      "hit": false,
      "t": 195233.33333333308,
      "d": 783.3333333333139,
      "v": 52
    },
    {
      "midi": 71,
      "hit": false,
      "t": 195449.99999999974,
      "d": 566.666666666657,
      "v": 78
    },
    {
      "midi": 57,
      "hit": false,
      "t": 196166.6666666664,
      "d": 1533.3333333333721,
      "v": 89
    },
    {
      "midi": 61,
      "hit": false,
      "t": 196699.99999999974,
      "d": 1483.3333333333721,
      "v": 45
    },
    {
      "midi": 64,
      "hit": false,
      "t": 196733.33333333308,
      "d": 350,
      "v": 51
    },
    {
      "midi": 76,
      "hit": false,
      "t": 196949.99999999974,
      "d": 450.0000000000291,
      "v": 96
    },
    {
      "midi": 64,
      "hit": false,
      "t": 197216.66666666642,
      "d": 550,
      "v": 31
    },
    {
      "midi": 73,
      "hit": false,
      "t": 197466.66666666642,
      "d": 733.333333333343,
      "v": 101
    },
    {
      "midi": 69,
      "hit": false,
      "t": 197999.99999999977,
      "d": 216.66666666665697,
      "v": 80
    },
    {
      "midi": 61,
      "hit": false,
      "t": 198233.33333333308,
      "d": 1233.333333333343,
      "v": 52
    },
    {
      "midi": 54,
      "hit": false,
      "t": 198266.66666666642,
      "d": 1266.666666666657,
      "v": 85
    },
    {
      "midi": 73,
      "hit": false,
      "t": 198766.66666666642,
      "d": 366.66666666668607,
      "v": 74
    },
    {
      "midi": 66,
      "hit": false,
      "t": 198999.99999999977,
      "d": 383.33333333334303,
      "v": 78
    },
    {
      "midi": 73,
      "hit": false,
      "t": 199316.66666666645,
      "d": 83.33333333331393,
      "v": 36
    },
    {
      "midi": 78,
      "hit": false,
      "t": 199533.33333333308,
      "d": 333.33333333334303,
      "v": 109
    },
    {
      "midi": 66,
      "hit": false,
      "t": 199549.99999999974,
      "d": 100,
      "v": 71
    },
    {
      "midi": 66,
      "hit": false,
      "t": 199733.33333333308,
      "d": 166.66666666668607,
      "v": 29
    },
    {
      "midi": 73,
      "hit": false,
      "t": 199833.33333333308,
      "d": 200.0000000000291,
      "v": 53
    },
    {
      "midi": 66,
      "hit": false,
      "t": 200033.3333333331,
      "d": 366.66666666665697,
      "v": 58
    },
    {
      "midi": 59,
      "hit": false,
      "t": 200333.3333333331,
      "d": 1916.666666666657,
      "v": 76
    },
    {
      "midi": 66,
      "hit": false,
      "t": 200566.66666666642,
      "d": 1666.666666666686,
      "v": 60
    },
    {
      "midi": 71,
      "hit": false,
      "t": 200833.33333333308,
      "d": 233.33333333334303,
      "v": 78
    },
    {
      "midi": 78,
      "hit": false,
      "t": 201099.99999999977,
      "d": 383.33333333334303,
      "v": 109
    },
    {
      "midi": 74,
      "hit": false,
      "t": 201583.3333333331,
      "d": 300,
      "v": 83
    },
    {
      "midi": 71,
      "hit": false,
      "t": 201966.66666666645,
      "d": 333.33333333331393,
      "v": 8
    },
    {
      "midi": 55,
      "hit": false,
      "t": 202383.3333333331,
      "d": 1466.6666666666279,
      "v": 78
    },
    {
      "midi": 62,
      "hit": false,
      "t": 202633.3333333331,
      "d": 1316.6666666666279,
      "v": 68
    },
    {
      "midi": 71,
      "hit": false,
      "t": 202899.99999999977,
      "d": 216.66666666665697,
      "v": 66
    },
    {
      "midi": 78,
      "hit": false,
      "t": 203149.99999999977,
      "d": 533.3333333333139,
      "v": 109
    },
    {
      "midi": 74,
      "hit": false,
      "t": 203666.66666666642,
      "d": 749.9999999999709,
      "v": 100
    },
    {
      "midi": 52,
      "hit": false,
      "t": 204433.33333333305,
      "d": 1516.666666666657,
      "v": 78
    },
    {
      "midi": 59,
      "hit": false,
      "t": 204699.9999999997,
      "d": 1283.333333333343,
      "v": 68
    },
    {
      "midi": 71,
      "hit": false,
      "t": 205216.66666666637,
      "d": 1166.666666666657,
      "v": 92
    },
    {
      "midi": 64,
      "hit": false,
      "t": 205466.66666666637,
      "d": 400,
      "v": 45
    },
    {
      "midi": 67,
      "hit": false,
      "t": 205733.33333333302,
      "d": 633.333333333343,
      "v": 100
    },
    {
      "midi": 57,
      "hit": false,
      "t": 206499.99999999968,
      "d": 1250,
      "v": 83
    },
    {
      "midi": 61,
      "hit": false,
      "t": 206499.99999999968,
      "d": 1316.666666666657,
      "v": 60
    },
    {
      "midi": 69,
      "hit": false,
      "t": 207016.66666666634,
      "d": 83.33333333334303,
      "v": 52
    },
    {
      "midi": 76,
      "hit": false,
      "t": 207283.33333333302,
      "d": 416.66666666665697,
      "v": 92
    },
    {
      "midi": 64,
      "hit": false,
      "t": 207533.33333333302,
      "d": 233.33333333331393,
      "v": 48
    },
    {
      "midi": 73,
      "hit": false,
      "t": 207799.99999999968,
      "d": 483.33333333331393,
      "v": 74
    },
    {
      "midi": 47,
      "hit": false,
      "t": 208566.66666666634,
      "d": 1733.333333333343,
      "v": 72
    },
    {
      "midi": 54,
      "hit": false,
      "t": 208833.333333333,
      "d": 1500.000000000029,
      "v": 63
    },
    {
      "midi": 59,
      "hit": false,
      "t": 209083.333333333,
      "d": 433.33333333334303,
      "v": 62
    },
    {
      "midi": 61,
      "hit": false,
      "t": 209349.99999999965,
      "d": 83.33333333334303,
      "v": 67
    },
    {
      "midi": 59,
      "hit": false,
      "t": 209599.99999999968,
      "d": 316.66666666665697,
      "v": 25
    },
    {
      "midi": 69,
      "hit": false,
      "t": 209866.66666666634,
      "d": 400,
      "v": 89
    },
    {
      "midi": 59,
      "hit": false,
      "t": 210116.66666666634,
      "d": 483.33333333334303,
      "v": 45
    },
    {
      "midi": 66,
      "hit": false,
      "t": 210383.33333333302,
      "d": 450,
      "v": 69
    },
    {
      "midi": 52,
      "hit": false,
      "t": 210633.33333333302,
      "d": 1599.999999999971,
      "v": 62
    },
    {
      "midi": 62,
      "hit": false,
      "t": 211149.99999999968,
      "d": 633.3333333333139,
      "v": 80
    },
    {
      "midi": 59,
      "hit": false,
      "t": 211666.66666666634,
      "d": 583.3333333333139,
      "v": 57
    },
    {
      "midi": 62,
      "hit": false,
      "t": 211933.333333333,
      "d": 66.66666666665697,
      "v": 61
    },
    {
      "midi": 67,
      "hit": false,
      "t": 211933.333333333,
      "d": 616.666666666657,
      "v": 92
    },
    {
      "midi": 62,
      "hit": false,
      "t": 212183.333333333,
      "d": 66.66666666665697,
      "v": 9
    },
    {
      "midi": 57,
      "hit": false,
      "t": 212699.99999999965,
      "d": 1249.999999999971,
      "v": 86
    },
    {
      "midi": 61,
      "hit": false,
      "t": 212966.6666666663,
      "d": 650,
      "v": 56
    },
    {
      "midi": 73,
      "hit": false,
      "t": 213216.6666666663,
      "d": 50,
      "v": 48
    },
    {
      "midi": 73,
      "hit": false,
      "t": 213483.33333333296,
      "d": 783.3333333333139,
      "v": 93
    },
    {
      "midi": 61,
      "hit": false,
      "t": 213733.33333333296,
      "d": 749.9999999999709,
      "v": 25
    },
    {
      "midi": 64,
      "hit": false,
      "t": 213999.99999999962,
      "d": 666.666666666657,
      "v": 76
    },
    {
      "midi": 54,
      "hit": false,
      "t": 214766.66666666628,
      "d": 1149.999999999971,
      "v": 67
    },
    {
      "midi": 61,
      "hit": false,
      "t": 215033.33333333294,
      "d": 816.666666666657,
      "v": 52
    },
    {
      "midi": 69,
      "hit": false,
      "t": 215533.33333333294,
      "d": 1166.6666666666279,
      "v": 86
    },
    {
      "midi": 66,
      "hit": false,
      "t": 216049.9999999996,
      "d": 450,
      "v": 93
    },
    {
      "midi": 47,
      "hit": false,
      "t": 216566.66666666625,
      "d": 116.66666666665697,
      "v": 51
    },
    {
      "midi": 47,
      "hit": false,
      "t": 216833.3333333329,
      "d": 2183.333333333343,
      "v": 80
    },
    {
      "midi": 61,
      "hit": false,
      "t": 217083.3333333329,
      "d": 83.33333333334303,
      "v": 66
    },
    {
      "midi": 62,
      "hit": false,
      "t": 217349.9999999996,
      "d": 116.66666666665697,
      "v": 72
    },
    {
      "midi": 69,
      "hit": false,
      "t": 217599.9999999996,
      "d": 116.66666666665697,
      "v": 80
    },
    {
      "midi": 66,
      "hit": false,
      "t": 217866.66666666625,
      "d": 50,
      "v": 66
    },
    {
      "midi": 73,
      "hit": false,
      "t": 218116.66666666625,
      "d": 666.666666666657,
      "v": 63
    },
    {
      "midi": 54,
      "hit": false,
      "t": 218116.66666666625,
      "d": 933.333333333343,
      "v": 4
    },
    {
      "midi": 69,
      "hit": false,
      "t": 218633.3333333329,
      "d": 233.33333333334303,
      "v": 68
    },
    {
      "midi": 55,
      "hit": false,
      "t": 218899.9999999996,
      "d": 1466.6666666666279,
      "v": 70
    },
    {
      "midi": 62,
      "hit": false,
      "t": 219149.9999999996,
      "d": 1316.6666666666279,
      "v": 60
    },
    {
      "midi": 71,
      "hit": false,
      "t": 219416.66666666625,
      "d": 216.66666666665697,
      "v": 58
    },
    {
      "midi": 78,
      "hit": false,
      "t": 219666.66666666625,
      "d": 533.3333333333139,
      "v": 93
    },
    {
      "midi": 74,
      "hit": false,
      "t": 220183.3333333329,
      "d": 749.9999999999709,
      "v": 84
    },
    {
      "midi": 52,
      "hit": false,
      "t": 220966.66666666622,
      "d": 1499.999999999971,
      "v": 61
    },
    {
      "midi": 59,
      "hit": false,
      "t": 221216.66666666622,
      "d": 1283.333333333314,
      "v": 53
    },
    {
      "midi": 71,
      "hit": false,
      "t": 221733.33333333288,
      "d": 1166.6666666666279,
      "v": 69
    },
    {
      "midi": 64,
      "hit": false,
      "t": 221999.99999999953,
      "d": 400,
      "v": 33
    },
    {
      "midi": 67,
      "hit": false,
      "t": 222249.99999999953,
      "d": 633.3333333333139,
      "v": 72
    },
    {
      "midi": 57,
      "hit": false,
      "t": 223033.33333333285,
      "d": 1233.333333333314,
      "v": 56
    },
    {
      "midi": 61,
      "hit": false,
      "t": 223033.33333333285,
      "d": 1316.666666666657,
      "v": 40
    },
    {
      "midi": 69,
      "hit": false,
      "t": 223549.9999999995,
      "d": 66.66666666665697,
      "v": 33
    },
    {
      "midi": 76,
      "hit": false,
      "t": 223799.9999999995,
      "d": 416.66666666665697,
      "v": 58
    },
    {
      "midi": 64,
      "hit": false,
      "t": 224066.66666666616,
      "d": 233.33333333334303,
      "v": 30
    },
    {
      "midi": 73,
      "hit": false,
      "t": 224316.66666666616,
      "d": 483.33333333334303,
      "v": 45
    },
    {
      "midi": 47,
      "hit": false,
      "t": 225099.9999999995,
      "d": 1716.666666666686,
      "v": 41
    },
    {
      "midi": 54,
      "hit": false,
      "t": 225349.9999999995,
      "d": 1500.000000000029,
      "v": 35
    },
    {
      "midi": 59,
      "hit": false,
      "t": 225616.66666666616,
      "d": 416.66666666668607,
      "v": 33
    },
    {
      "midi": 61,
      "hit": false,
      "t": 225866.66666666616,
      "d": 83.33333333334303,
      "v": 35
    },
    {
      "midi": 59,
      "hit": false,
      "t": 226116.6666666662,
      "d": 316.66666666665697,
      "v": 13
    },
    {
      "midi": 69,
      "hit": false,
      "t": 226383.33333333285,
      "d": 400,
      "v": 44
    },
    {
      "midi": 59,
      "hit": false,
      "t": 226633.33333333285,
      "d": 483.33333333334303,
      "v": 22
    },
    {
      "midi": 66,
      "hit": false,
      "t": 226899.99999999953,
      "d": 450,
      "v": 32
    },
    {
      "midi": 52,
      "hit": false,
      "t": 227149.99999999953,
      "d": 1616.6666666666279,
      "v": 28
    },
    {
      "midi": 62,
      "hit": false,
      "t": 227666.6666666662,
      "d": 633.3333333333139,
      "v": 34
    },
    {
      "midi": 59,
      "hit": false,
      "t": 228183.33333333285,
      "d": 583.3333333333139,
      "v": 22
    },
    {
      "midi": 62,
      "hit": false,
      "t": 228449.9999999995,
      "d": 66.66666666665697,
      "v": 23
    },
    {
      "midi": 67,
      "hit": false,
      "t": 228449.9999999995,
      "d": 633.3333333333139,
      "v": 35
    },
    {
      "midi": 62,
      "hit": false,
      "t": 228699.9999999995,
      "d": 66.66666666665697,
      "v": 3
    },
    {
      "midi": 57,
      "hit": false,
      "t": 229216.66666666616,
      "d": 1249.999999999971,
      "v": 30
    },
    {
      "midi": 61,
      "hit": false,
      "t": 229483.33333333282,
      "d": 666.666666666657,
      "v": 18
    },
    {
      "midi": 73,
      "hit": false,
      "t": 229733.33333333282,
      "d": 50,
      "v": 15
    },
    {
      "midi": 73,
      "hit": false,
      "t": 229999.99999999948,
      "d": 783.3333333333139,
      "v": 28
    },
    {
      "midi": 61,
      "hit": false,
      "t": 230249.99999999948,
      "d": 749.9999999999709,
      "v": 7
    },
    {
      "midi": 64,
      "hit": false,
      "t": 230516.66666666613,
      "d": 683.3333333333139,
      "v": 21
    },
    {
      "midi": 54,
      "hit": false,
      "t": 231283.3333333328,
      "d": 1149.999999999971,
      "v": 16
    },
    {
      "midi": 61,
      "hit": false,
      "t": 231549.99999999945,
      "d": 816.666666666657,
      "v": 11
    },
    {
      "midi": 69,
      "hit": false,
      "t": 232066.6666666661,
      "d": 1150,
      "v": 16
    },
    {
      "midi": 66,
      "hit": false,
      "t": 232583.33333333276,
      "d": 433.33333333334303,
      "v": 15
    },
    {
      "midi": 47,
      "hit": false,
      "t": 233099.99999999945,
      "d": 100,
      "v": 7
    },
    {
      "midi": 47,
      "hit": false,
      "t": 233349.99999999945,
      "d": 2183.333333333314,
      "v": 10
    },
    {
      "midi": 61,
      "hit": false,
      "t": 233616.6666666661,
      "d": 66.66666666665697,
      "v": 7
    },
    {
      "midi": 62,
      "hit": false,
      "t": 233866.6666666661,
      "d": 116.66666666665697,
      "v": 7
    },
    {
      "midi": 69,
      "hit": false,
      "t": 234133.33333333276,
      "d": 100,
      "v": 6
    },
    {
      "midi": 66,
      "hit": false,
      "t": 234383.33333333276,
      "d": 50,
      "v": 4
    },
    {
      "midi": 73,
      "hit": false,
      "t": 234649.99999999942,
      "d": 650,
      "v": 3
    },
    {
      "midi": 69,
      "hit": false,
      "t": 235166.66666666607,
      "d": 216.66666666668607,
      "v": 2
    }
  ]
}