{
  "jsonPath": "Pop/Classic Italian Pop/Marco Masini/lungomare.json",
  "path": "Pop\\Classic Italian Pop\\Marco Masini\\Lungomare.mid",
  "name": "Lungomare",
  "difficulty": "Advanced",
  "bpm": 88.00002346667293,
  "notes": [
    {
      "midi": 59,
      "hit": false,
      "t": 2727.2719999999995,
      "d": 486.50555208333344,
      "v": 89
    },
    {
      "midi": 67,
      "hit": false,
      "t": 2727.2719999999995,
      "d": 507.8123645833334,
      "v": 87
    },
    {
      "midi": 62,
      "hit": false,
      "t": 2727.2719999999995,
      "d": 522.0169062499999,
      "v": 98
    },
    {
      "midi": 59,
      "hit": false,
      "t": 3409.0899999999992,
      "d": 561.0793958333334,
      "v": 87
    },
    {
      "midi": 62,
      "hit": false,
      "t": 3409.0899999999992,
      "d": 582.3862083333333,
      "v": 94
    },
    {
      "midi": 67,
      "hit": false,
      "t": 3409.0899999999992,
      "d": 582.3862083333333,
      "v": 91
    },
    {
      "midi": 57,
      "hit": false,
      "t": 4090.9079999999994,
      "d": 632.1021041666663,
      "v": 103
    },
    {
      "midi": 62,
      "hit": false,
      "t": 4090.9079999999994,
      "d": 635.6532395833328,
      "v": 103
    },
    {
      "midi": 66,
      "hit": false,
      "t": 4090.9079999999994,
      "d": 646.3066458333333,
      "v": 96
    },
    {
      "midi": 57,
      "hit": false,
      "t": 5454.544,
      "d": 557.5282604166669,
      "v": 91
    },
    {
      "midi": 61,
      "hit": false,
      "t": 5454.544,
      "d": 575.2839375000003,
      "v": 91
    },
    {
      "midi": 64,
      "hit": false,
      "t": 5454.544,
      "d": 582.3862083333333,
      "v": 89
    },
    {
      "midi": 57,
      "hit": false,
      "t": 6136.362,
      "d": 458.09646875,
      "v": 98
    },
    {
      "midi": 61,
      "hit": false,
      "t": 6136.362,
      "d": 461.6476041666665,
      "v": 90
    },
    {
      "midi": 64,
      "hit": false,
      "t": 6136.362,
      "d": 468.7498749999995,
      "v": 93
    },
    {
      "midi": 64,
      "hit": false,
      "t": 7159.089,
      "d": 411.9317083333335,
      "v": 108
    },
    {
      "midi": 57,
      "hit": false,
      "t": 7159.089,
      "d": 415.48284375000003,
      "v": 103
    },
    {
      "midi": 61,
      "hit": false,
      "t": 7159.089,
      "d": 436.78965625,
      "v": 98
    },
    {
      "midi": 57,
      "hit": false,
      "t": 7670.4525,
      "d": 390.62489583333354,
      "v": 108
    },
    {
      "midi": 62,
      "hit": false,
      "t": 7670.4525,
      "d": 415.48284375000003,
      "v": 113
    },
    {
      "midi": 66,
      "hit": false,
      "t": 7670.4525,
      "d": 436.78965625,
      "v": 104
    },
    {
      "midi": 59,
      "hit": false,
      "t": 8181.816000000001,
      "d": 486.5055520833339,
      "v": 89
    },
    {
      "midi": 67,
      "hit": false,
      "t": 8181.816000000001,
      "d": 507.8123645833348,
      "v": 87
    },
    {
      "midi": 62,
      "hit": false,
      "t": 8181.816000000001,
      "d": 522.0169062500008,
      "v": 98
    },
    {
      "midi": 59,
      "hit": false,
      "t": 8863.634000000002,
      "d": 561.0793958333343,
      "v": 87
    },
    {
      "midi": 62,
      "hit": false,
      "t": 8863.634000000002,
      "d": 582.3862083333352,
      "v": 94
    },
    {
      "midi": 67,
      "hit": false,
      "t": 8863.634000000002,
      "d": 582.3862083333352,
      "v": 91
    },
    {
      "midi": 57,
      "hit": false,
      "t": 9545.452000000003,
      "d": 632.1021041666663,
      "v": 103
    },
    {
      "midi": 62,
      "hit": false,
      "t": 9545.452000000003,
      "d": 635.6532395833328,
      "v": 103
    },
    {
      "midi": 66,
      "hit": false,
      "t": 9545.452000000003,
      "d": 646.3066458333324,
      "v": 96
    },
    {
      "midi": 57,
      "hit": false,
      "t": 10909.088000000002,
      "d": 557.528260416666,
      "v": 91
    },
    {
      "midi": 61,
      "hit": false,
      "t": 10909.088000000002,
      "d": 575.2839374999985,
      "v": 91
    },
    {
      "midi": 64,
      "hit": false,
      "t": 10909.088000000002,
      "d": 582.3862083333315,
      "v": 89
    },
    {
      "midi": 57,
      "hit": false,
      "t": 11590.905999999999,
      "d": 458.09646875,
      "v": 98
    },
    {
      "midi": 61,
      "hit": false,
      "t": 11590.905999999999,
      "d": 461.6476041666665,
      "v": 90
    },
    {
      "midi": 64,
      "hit": false,
      "t": 11590.905999999999,
      "d": 468.7498749999995,
      "v": 93
    },
    {
      "midi": 64,
      "hit": false,
      "t": 12613.632999999998,
      "d": 411.9317083333335,
      "v": 108
    },
    {
      "midi": 57,
      "hit": false,
      "t": 12613.632999999998,
      "d": 415.48284375000003,
      "v": 103
    },
    {
      "midi": 61,
      "hit": false,
      "t": 12613.632999999998,
      "d": 436.7896562500009,
      "v": 98
    },
    {
      "midi": 57,
      "hit": false,
      "t": 13124.9965,
      "d": 390.62489583333263,
      "v": 108
    },
    {
      "midi": 62,
      "hit": false,
      "t": 13124.9965,
      "d": 415.48284375000003,
      "v": 113
    },
    {
      "midi": 66,
      "hit": false,
      "t": 13124.9965,
      "d": 436.7896562500009,
      "v": 104
    },
    {
      "midi": 59,
      "hit": false,
      "t": 13636.36,
      "d": 486.5055520833339,
      "v": 89
    },
    {
      "midi": 67,
      "hit": false,
      "t": 13636.36,
      "d": 507.8123645833348,
      "v": 87
    },
    {
      "midi": 62,
      "hit": false,
      "t": 13636.36,
      "d": 522.0169062500008,
      "v": 98
    },
    {
      "midi": 59,
      "hit": false,
      "t": 14318.178000000002,
      "d": 561.0793958333325,
      "v": 87
    },
    {
      "midi": 62,
      "hit": false,
      "t": 14318.178000000002,
      "d": 582.3862083333333,
      "v": 94
    },
    {
      "midi": 67,
      "hit": false,
      "t": 14318.178000000002,
      "d": 582.3862083333333,
      "v": 91
    },
    {
      "midi": 57,
      "hit": false,
      "t": 14999.996000000001,
      "d": 632.1021041666663,
      "v": 103
    },
    {
      "midi": 62,
      "hit": false,
      "t": 14999.996000000001,
      "d": 635.6532395833328,
      "v": 103
    },
    {
      "midi": 66,
      "hit": false,
      "t": 14999.996000000001,
      "d": 646.3066458333324,
      "v": 96
    },
    {
      "midi": 57,
      "hit": false,
      "t": 16363.632,
      "d": 557.528260416666,
      "v": 91
    },
    {
      "midi": 61,
      "hit": false,
      "t": 16363.632,
      "d": 575.2839374999985,
      "v": 91
    },
    {
      "midi": 64,
      "hit": false,
      "t": 16363.632,
      "d": 582.3862083333315,
      "v": 89
    },
    {
      "midi": 57,
      "hit": false,
      "t": 17045.449999999997,
      "d": 458.0964687500018,
      "v": 98
    },
    {
      "midi": 61,
      "hit": false,
      "t": 17045.449999999997,
      "d": 461.6476041666683,
      "v": 90
    },
    {
      "midi": 64,
      "hit": false,
      "t": 17045.449999999997,
      "d": 468.74987500000134,
      "v": 93
    },
    {
      "midi": 64,
      "hit": false,
      "t": 18068.177,
      "d": 411.9317083333335,
      "v": 108
    },
    {
      "midi": 57,
      "hit": false,
      "t": 18068.177,
      "d": 415.48284375000003,
      "v": 103
    },
    {
      "midi": 61,
      "hit": false,
      "t": 18068.177,
      "d": 436.7896562499991,
      "v": 98
    },
    {
      "midi": 57,
      "hit": false,
      "t": 18579.5405,
      "d": 390.62489583333445,
      "v": 108
    },
    {
      "midi": 62,
      "hit": false,
      "t": 18579.5405,
      "d": 415.48284375000003,
      "v": 113
    },
    {
      "midi": 66,
      "hit": false,
      "t": 18579.5405,
      "d": 436.7896562499991,
      "v": 104
    },
    {
      "midi": 59,
      "hit": false,
      "t": 19090.904,
      "d": 486.5055520833339,
      "v": 89
    },
    {
      "midi": 67,
      "hit": false,
      "t": 19090.904,
      "d": 507.81236458333296,
      "v": 87
    },
    {
      "midi": 62,
      "hit": false,
      "t": 19090.904,
      "d": 522.016906249999,
      "v": 98
    },
    {
      "midi": 59,
      "hit": false,
      "t": 19772.721999999998,
      "d": 561.0793958333343,
      "v": 87
    },
    {
      "midi": 62,
      "hit": false,
      "t": 19772.721999999998,
      "d": 582.3862083333333,
      "v": 94
    },
    {
      "midi": 67,
      "hit": false,
      "t": 19772.721999999998,
      "d": 582.3862083333333,
      "v": 91
    },
    {
      "midi": 57,
      "hit": false,
      "t": 20454.539999999997,
      "d": 632.1021041666681,
      "v": 103
    },
    {
      "midi": 62,
      "hit": false,
      "t": 20454.539999999997,
      "d": 635.6532395833347,
      "v": 103
    },
    {
      "midi": 66,
      "hit": false,
      "t": 20454.539999999997,
      "d": 646.3066458333342,
      "v": 96
    },
    {
      "midi": 57,
      "hit": false,
      "t": 21818.176,
      "d": 557.5282604166678,
      "v": 91
    },
    {
      "midi": 61,
      "hit": false,
      "t": 21818.176,
      "d": 575.2839375000003,
      "v": 91
    },
    {
      "midi": 64,
      "hit": false,
      "t": 21818.176,
      "d": 582.3862083333333,
      "v": 89
    },
    {
      "midi": 57,
      "hit": false,
      "t": 22499.994,
      "d": 458.0964687500018,
      "v": 98
    },
    {
      "midi": 61,
      "hit": false,
      "t": 22499.994,
      "d": 461.6476041666683,
      "v": 90
    },
    {
      "midi": 64,
      "hit": false,
      "t": 22499.994,
      "d": 468.74987500000134,
      "v": 93
    },
    {
      "midi": 64,
      "hit": false,
      "t": 23522.721,
      "d": 411.9317083333335,
      "v": 108
    },
    {
      "midi": 57,
      "hit": false,
      "t": 23522.721,
      "d": 415.48284375000003,
      "v": 103
    },
    {
      "midi": 61,
      "hit": false,
      "t": 23522.721,
      "d": 436.7896562499991,
      "v": 98
    },
    {
      "midi": 57,
      "hit": false,
      "t": 24034.0845,
      "d": 390.62489583333445,
      "v": 108
    },
    {
      "midi": 62,
      "hit": false,
      "t": 24034.0845,
      "d": 415.48284375000003,
      "v": 113
    },
    {
      "midi": 66,
      "hit": false,
      "t": 24034.0845,
      "d": 436.7896562499991,
      "v": 104
    },
    {
      "midi": 59,
      "hit": false,
      "t": 24545.448,
      "d": 486.5055520833339,
      "v": 89
    },
    {
      "midi": 67,
      "hit": false,
      "t": 24545.448,
      "d": 507.81236458333296,
      "v": 87
    },
    {
      "midi": 62,
      "hit": false,
      "t": 24545.448,
      "d": 522.016906249999,
      "v": 98
    },
    {
      "midi": 59,
      "hit": false,
      "t": 25227.266,
      "d": 561.0793958333343,
      "v": 87
    },
    {
      "midi": 62,
      "hit": false,
      "t": 25227.266,
      "d": 582.3862083333333,
      "v": 94
    },
    {
      "midi": 67,
      "hit": false,
      "t": 25227.266,
      "d": 582.3862083333333,
      "v": 91
    },
    {
      "midi": 57,
      "hit": false,
      "t": 25909.084,
      "d": 632.1021041666681,
      "v": 103
    },
    {
      "midi": 62,
      "hit": false,
      "t": 25909.084,
      "d": 635.6532395833347,
      "v": 103
    },
    {
      "midi": 66,
      "hit": false,
      "t": 25909.084,
      "d": 646.3066458333342,
      "v": 96
    },
    {
      "midi": 57,
      "hit": false,
      "t": 27272.72,
      "d": 557.5282604166678,
      "v": 91
    },
    {
      "midi": 61,
      "hit": false,
      "t": 27272.72,
      "d": 575.2839375000003,
      "v": 91
    },
    {
      "midi": 64,
      "hit": false,
      "t": 27272.72,
      "d": 582.3862083333333,
      "v": 89
    },
    {
      "midi": 57,
      "hit": false,
      "t": 27954.538,
      "d": 458.0964687500018,
      "v": 98
    },
    {
      "midi": 61,
      "hit": false,
      "t": 27954.538,
      "d": 461.6476041666683,
      "v": 90
    },
    {
      "midi": 64,
      "hit": false,
      "t": 27954.538,
      "d": 468.74987500000134,
      "v": 93
    },
    {
      "midi": 64,
      "hit": false,
      "t": 28977.265000000003,
      "d": 411.9317083333335,
      "v": 108
    },
    {
      "midi": 57,
      "hit": false,
      "t": 28977.265000000003,
      "d": 415.48284375000003,
      "v": 103
    },
    {
      "midi": 61,
      "hit": false,
      "t": 28977.265000000003,
      "d": 436.7896562499991,
      "v": 98
    },
    {
      "midi": 57,
      "hit": false,
      "t": 29488.628500000003,
      "d": 390.62489583333445,
      "v": 108
    },
    {
      "midi": 62,
      "hit": false,
      "t": 29488.628500000003,
      "d": 415.48284375000003,
      "v": 113
    },
    {
      "midi": 66,
      "hit": false,
      "t": 29488.628500000003,
      "d": 436.7896562499991,
      "v": 104
    },
    {
      "midi": 59,
      "hit": false,
      "t": 29999.992000000002,
      "d": 486.5055520833339,
      "v": 89
    },
    {
      "midi": 67,
      "hit": false,
      "t": 29999.992000000002,
      "d": 507.81236458333296,
      "v": 87
    },
    {
      "midi": 62,
      "hit": false,
      "t": 29999.992000000002,
      "d": 522.016906249999,
      "v": 98
    },
    {
      "midi": 59,
      "hit": false,
      "t": 30681.81,
      "d": 561.0793958333343,
      "v": 87
    },
    {
      "midi": 62,
      "hit": false,
      "t": 30681.81,
      "d": 582.3862083333333,
      "v": 94
    },
    {
      "midi": 67,
      "hit": false,
      "t": 30681.81,
      "d": 582.3862083333333,
      "v": 91
    },
    {
      "midi": 57,
      "hit": false,
      "t": 31363.628,
      "d": 632.1021041666681,
      "v": 103
    },
    {
      "midi": 62,
      "hit": false,
      "t": 31363.628,
      "d": 635.6532395833347,
      "v": 103
    },
    {
      "midi": 66,
      "hit": false,
      "t": 31363.628,
      "d": 646.3066458333342,
      "v": 96
    },
    {
      "midi": 64,
      "hit": false,
      "t": 32727.264000000003,
      "d": 2563.9197708333304,
      "v": 103
    },
    {
      "midi": 60,
      "hit": false,
      "t": 32727.264000000003,
      "d": 2567.470906249997,
      "v": 113
    },
    {
      "midi": 55,
      "hit": false,
      "t": 32727.264000000003,
      "d": 2606.5333958333285,
      "v": 113
    },
    {
      "midi": 57,
      "hit": false,
      "t": 35454.536,
      "d": 2567.470906249997,
      "v": 113
    },
    {
      "midi": 60,
      "hit": false,
      "t": 35454.536,
      "d": 2585.2265833333295,
      "v": 119
    },
    {
      "midi": 64,
      "hit": false,
      "t": 35454.536,
      "d": 2585.2265833333295,
      "v": 108
    },
    {
      "midi": 54,
      "hit": false,
      "t": 35454.536,
      "d": 2741.4765416666633,
      "v": 119
    },
    {
      "midi": 64,
      "hit": false,
      "t": 37840.899,
      "d": 649.8577812500007,
      "v": 1
    },
    {
      "midi": 60,
      "hit": false,
      "t": 38181.808,
      "d": 1303.266697916668,
      "v": 116
    },
    {
      "midi": 53,
      "hit": false,
      "t": 38181.808,
      "d": 1335.2269166666665,
      "v": 104
    },
    {
      "midi": 57,
      "hit": false,
      "t": 38181.808,
      "d": 1338.778052083333,
      "v": 114
    },
    {
      "midi": 64,
      "hit": false,
      "t": 38181.808,
      "d": 1367.1871354166651,
      "v": 108
    },
    {
      "midi": 65,
      "hit": false,
      "t": 38522.717,
      "d": 394.1760312499973,
      "v": 1
    },
    {
      "midi": 67,
      "hit": false,
      "t": 38863.626,
      "d": 174.00563541666634,
      "v": 1
    },
    {
      "midi": 65,
      "hit": false,
      "t": 39204.534999999996,
      "d": 674.7157291666663,
      "v": 1
    },
    {
      "midi": 59,
      "hit": false,
      "t": 39545.443999999996,
      "d": 1356.5337291666656,
      "v": 121
    },
    {
      "midi": 55,
      "hit": false,
      "t": 39545.443999999996,
      "d": 1363.6359999999986,
      "v": 119
    },
    {
      "midi": 62,
      "hit": false,
      "t": 39545.443999999996,
      "d": 1363.6359999999986,
      "v": 98
    },
    {
      "midi": 67,
      "hit": false,
      "t": 39886.352999999996,
      "d": 319.6021875000006,
      "v": 1
    },
    {
      "midi": 71,
      "hit": false,
      "t": 40227.261999999995,
      "d": 472.30101041666785,
      "v": 1
    },
    {
      "midi": 76,
      "hit": false,
      "t": 40909.079999999994,
      "d": 671.1645937499998,
      "v": 1
    },
    {
      "midi": 75,
      "hit": false,
      "t": 43465.89749999999,
      "d": 770.5963854166694,
      "v": 1
    },
    {
      "midi": 74,
      "hit": false,
      "t": 46193.169499999996,
      "d": 962.3576979166683,
      "v": 1
    },
    {
      "midi": 73,
      "hit": false,
      "t": 48920.4415,
      "d": 965.9088333333348,
      "v": 1
    },
    {
      "midi": 67,
      "hit": false,
      "t": 71249.981,
      "d": 205.96585416667222,
      "v": 1
    },
    {
      "midi": 71,
      "hit": false,
      "t": 71249.981,
      "d": 223.72153125000477,
      "v": 1
    },
    {
      "midi": 66,
      "hit": false,
      "t": 71590.89,
      "d": 454.545333333328,
      "v": 1
    },
    {
      "midi": 69,
      "hit": false,
      "t": 71590.89,
      "d": 472.3010104166606,
      "v": 1
    },
    {
      "midi": 64,
      "hit": false,
      "t": 72102.25349999999,
      "d": 102.98292708332883,
      "v": 1
    },
    {
      "midi": 67,
      "hit": false,
      "t": 72102.25349999999,
      "d": 142.04541666666046,
      "v": 1
    },
    {
      "midi": 66,
      "hit": false,
      "t": 72272.70799999998,
      "d": 181.10790625000664,
      "v": 1
    },
    {
      "midi": 69,
      "hit": false,
      "t": 72272.70799999998,
      "d": 205.96585416667222,
      "v": 1
    },
    {
      "midi": 66,
      "hit": false,
      "t": 72613.61699999998,
      "d": 561.0793958333379,
      "v": 1
    },
    {
      "midi": 69,
      "hit": false,
      "t": 72613.61699999998,
      "d": 568.1816666666709,
      "v": 1
    },
    {
      "midi": 64,
      "hit": false,
      "t": 73295.43499999998,
      "d": 1867.8972291666723,
      "v": 1
    },
    {
      "midi": 69,
      "hit": false,
      "t": 73295.43499999998,
      "d": 1867.8972291666723,
      "v": 1
    },
    {
      "midi": 67,
      "hit": false,
      "t": 82159.06899999999,
      "d": 188.21017708333966,
      "v": 1
    },
    {
      "midi": 71,
      "hit": false,
      "t": 82159.06899999999,
      "d": 202.4147187500057,
      "v": 1
    },
    {
      "midi": 66,
      "hit": false,
      "t": 82499.97799999999,
      "d": 500.7100937500072,
      "v": 1
    },
    {
      "midi": 69,
      "hit": false,
      "t": 82499.97799999999,
      "d": 500.7100937500072,
      "v": 1
    },
    {
      "midi": 64,
      "hit": false,
      "t": 83011.3415,
      "d": 63.920437499997206,
      "v": 1
    },
    {
      "midi": 67,
      "hit": false,
      "t": 83011.3415,
      "d": 92.3295208333293,
      "v": 1
    },
    {
      "midi": 62,
      "hit": false,
      "t": 83181.79599999999,
      "d": 237.92607291667082,
      "v": 1
    },
    {
      "midi": 69,
      "hit": false,
      "t": 83181.79599999999,
      "d": 252.13061458333686,
      "v": 1
    },
    {
      "midi": 62,
      "hit": false,
      "t": 83522.70499999999,
      "d": 252.13061458333686,
      "v": 1
    },
    {
      "midi": 69,
      "hit": false,
      "t": 83522.70499999999,
      "d": 269.8862916666694,
      "v": 1
    },
    {
      "midi": 62,
      "hit": false,
      "t": 83863.61399999999,
      "d": 220.17039583333826,
      "v": 1
    },
    {
      "midi": 71,
      "hit": false,
      "t": 83863.61399999999,
      "d": 245.02834375000384,
      "v": 1
    },
    {
      "midi": 62,
      "hit": false,
      "t": 84204.52299999999,
      "d": 344.46013541666616,
      "v": 1
    },
    {
      "midi": 67,
      "hit": false,
      "t": 84204.52299999999,
      "d": 1015.6247291666659,
      "v": 1
    },
    {
      "midi": 64,
      "hit": false,
      "t": 84545.43199999999,
      "d": 674.7157291666663,
      "v": 1
    },
    {
      "midi": 72,
      "hit": false,
      "t": 87272.70399999998,
      "d": 344.46013541666616,
      "v": 1
    },
    {
      "midi": 69,
      "hit": false,
      "t": 87272.70399999998,
      "d": 795.4543333333277,
      "v": 1
    },
    {
      "midi": 74,
      "hit": false,
      "t": 87613.61299999998,
      "d": 280.53969791666896,
      "v": 1
    },
    {
      "midi": 76,
      "hit": false,
      "t": 87954.52199999998,
      "d": 131.39201041666092,
      "v": 1
    },
    {
      "midi": 72,
      "hit": false,
      "t": 88295.43099999998,
      "d": 653.4089166666672,
      "v": 1
    },
    {
      "midi": 69,
      "hit": false,
      "t": 88295.43099999998,
      "d": 671.1645937499998,
      "v": 1
    },
    {
      "midi": 64,
      "hit": false,
      "t": 89659.06699999998,
      "d": 646.3066458333342,
      "v": 1
    },
    {
      "midi": 65,
      "hit": false,
      "t": 90340.88499999998,
      "d": 362.2158124999987,
      "v": 1
    },
    {
      "midi": 67,
      "hit": false,
      "t": 90681.79399999998,
      "d": 106.53406249999534,
      "v": 1
    },
    {
      "midi": 65,
      "hit": false,
      "t": 91022.70299999998,
      "d": 685.3691354166658,
      "v": 1
    },
    {
      "midi": 67,
      "hit": false,
      "t": 91704.52099999998,
      "d": 113.63633333332837,
      "v": 1
    },
    {
      "midi": 71,
      "hit": false,
      "t": 92045.42999999998,
      "d": 532.6703125000058,
      "v": 1
    },
    {
      "midi": 73,
      "hit": false,
      "t": 92727.24799999998,
      "d": 727.982760416664,
      "v": 1
    },
    {
      "midi": 73,
      "hit": false,
      "t": 95113.61099999998,
      "d": 862.9259062500059,
      "v": 1
    },
    {
      "midi": 73,
      "hit": false,
      "t": 97840.88299999999,
      "d": 894.8861250000045,
      "v": 1
    },
    {
      "midi": 64,
      "hit": false,
      "t": 118636.332,
      "d": 323.1533229166671,
      "v": 1
    },
    {
      "midi": 65,
      "hit": false,
      "t": 118977.241,
      "d": 287.641968750002,
      "v": 1
    },
    {
      "midi": 67,
      "hit": false,
      "t": 119318.15,
      "d": 248.57947916667035,
      "v": 1
    },
    {
      "midi": 64,
      "hit": false,
      "t": 119659.059,
      "d": 564.6305312500044,
      "v": 1
    },
    {
      "midi": 66,
      "hit": false,
      "t": 120340.877,
      "d": 227.27266666667128,
      "v": 1
    },
    {
      "midi": 68,
      "hit": false,
      "t": 120681.786,
      "d": 188.21017708333966,
      "v": 1
    },
    {
      "midi": 66,
      "hit": false,
      "t": 121022.69499999999,
      "d": 617.8975625000021,
      "v": 1
    },
    {
      "midi": 68,
      "hit": false,
      "t": 121704.51299999999,
      "d": 269.8862916666694,
      "v": 1
    },
    {
      "midi": 54,
      "hit": false,
      "t": 130909.05599999998,
      "d": 553.9771250000049,
      "v": 127
    },
    {
      "midi": 63,
      "hit": false,
      "t": 130909.05599999998,
      "d": 564.6305312500044,
      "v": 127
    },
    {
      "midi": 59,
      "hit": false,
      "t": 130909.05599999998,
      "d": 585.9373437500035,
      "v": 127
    },
    {
      "midi": 54,
      "hit": false,
      "t": 131590.87399999998,
      "d": 550.4259895833384,
      "v": 127
    },
    {
      "midi": 63,
      "hit": false,
      "t": 131590.87399999998,
      "d": 568.1816666666709,
      "v": 127
    },
    {
      "midi": 59,
      "hit": false,
      "t": 131590.87399999998,
      "d": 600.1418854166695,
      "v": 127
    },
    {
      "midi": 66,
      "hit": false,
      "t": 132272.69199999998,
      "d": 511.36350000000675,
      "v": 127
    },
    {
      "midi": 61,
      "hit": false,
      "t": 132272.69199999998,
      "d": 532.6703125000058,
      "v": 127
    },
    {
      "midi": 58,
      "hit": false,
      "t": 132272.69199999998,
      "d": 536.2214479166723,
      "v": 127
    },
    {
      "midi": 66,
      "hit": false,
      "t": 132954.50999999998,
      "d": 607.2441562500026,
      "v": 127
    },
    {
      "midi": 58,
      "hit": false,
      "t": 132954.50999999998,
      "d": 610.7952916666691,
      "v": 127
    },
    {
      "midi": 61,
      "hit": false,
      "t": 132954.50999999998,
      "d": 621.4486979166686,
      "v": 127
    },
    {
      "midi": 56,
      "hit": false,
      "t": 133636.32799999998,
      "d": 603.693020833336,
      "v": 127
    },
    {
      "midi": 65,
      "hit": false,
      "t": 133636.32799999998,
      "d": 603.693020833336,
      "v": 127
    },
    {
      "midi": 61,
      "hit": false,
      "t": 133636.32799999998,
      "d": 607.2441562500026,
      "v": 127
    },
    {
      "midi": 65,
      "hit": false,
      "t": 134318.14599999998,
      "d": 536.2214479166723,
      "v": 127
    },
    {
      "midi": 61,
      "hit": false,
      "t": 134318.14599999998,
      "d": 561.0793958333379,
      "v": 127
    },
    {
      "midi": 56,
      "hit": false,
      "t": 134318.14599999998,
      "d": 610.7952916666691,
      "v": 127
    },
    {
      "midi": 64,
      "hit": false,
      "t": 134999.96399999998,
      "d": 532.6703125000058,
      "v": 127
    },
    {
      "midi": 68,
      "hit": false,
      "t": 134999.96399999998,
      "d": 553.9771250000049,
      "v": 127
    },
    {
      "midi": 59,
      "hit": false,
      "t": 134999.96399999998,
      "d": 571.7328020833374,
      "v": 127
    },
    {
      "midi": 64,
      "hit": false,
      "t": 135681.78199999998,
      "d": 475.85214583334164,
      "v": 127
    },
    {
      "midi": 68,
      "hit": false,
      "t": 135681.78199999998,
      "d": 511.36350000000675,
      "v": 127
    },
    {
      "midi": 59,
      "hit": false,
      "t": 135681.78199999998,
      "d": 550.4259895833384,
      "v": 127
    },
    {
      "midi": 55,
      "hit": false,
      "t": 136363.59999999998,
      "d": 550.4259895833384,
      "v": 116
    },
    {
      "midi": 62,
      "hit": false,
      "t": 136363.59999999998,
      "d": 571.7328020833374,
      "v": 114
    },
    {
      "midi": 59,
      "hit": false,
      "t": 136363.59999999998,
      "d": 600.1418854166695,
      "v": 114
    },
    {
      "midi": 55,
      "hit": false,
      "t": 137045.41799999998,
      "d": 596.590750000003,
      "v": 121
    },
    {
      "midi": 62,
      "hit": false,
      "t": 137045.41799999998,
      "d": 624.9998333333351,
      "v": 114
    },
    {
      "midi": 59,
      "hit": false,
      "t": 137045.41799999998,
      "d": 642.7555104166677,
      "v": 113
    },
    {
      "midi": 57,
      "hit": false,
      "t": 137727.23599999998,
      "d": 553.9771250000049,
      "v": 119
    },
    {
      "midi": 61,
      "hit": false,
      "t": 137727.23599999998,
      "d": 571.7328020833374,
      "v": 116
    },
    {
      "midi": 64,
      "hit": false,
      "t": 137727.23599999998,
      "d": 575.283937500004,
      "v": 110
    },
    {
      "midi": 57,
      "hit": false,
      "t": 138409.05399999997,
      "d": 578.8350729166705,
      "v": 121
    },
    {
      "midi": 61,
      "hit": false,
      "t": 138409.05399999997,
      "d": 582.386208333337,
      "v": 114
    },
    {
      "midi": 64,
      "hit": false,
      "t": 138409.05399999997,
      "d": 589.48847916667,
      "v": 113
    },
    {
      "midi": 75,
      "hit": false,
      "t": 139090.872,
      "d": 944.6020208333211,
      "v": 1
    },
    {
      "midi": 54,
      "hit": false,
      "t": 139090.872,
      "d": 2720.169729166664,
      "v": 1
    },
    {
      "midi": 59,
      "hit": false,
      "t": 139090.872,
      "d": 2720.169729166664,
      "v": 1
    },
    {
      "midi": 63,
      "hit": false,
      "t": 139090.872,
      "d": 2720.169729166664,
      "v": 1
    },
    {
      "midi": 75,
      "hit": false,
      "t": 141818.144,
      "d": 1093.7497083333437,
      "v": 1
    },
    {
      "midi": 61,
      "hit": false,
      "t": 141818.144,
      "d": 2695.3117812499986,
      "v": 1
    },
    {
      "midi": 65,
      "hit": false,
      "t": 141818.144,
      "d": 2720.169729166664,
      "v": 1
    },
    {
      "midi": 56,
      "hit": false,
      "t": 141818.144,
      "d": 4062.4989166666637,
      "v": 1
    },
    {
      "midi": 75,
      "hit": false,
      "t": 144374.9615,
      "d": 987.2156458333193,
      "v": 1
    },
    {
      "midi": 64,
      "hit": false,
      "t": 144545.416,
      "d": 2663.3515625,
      "v": 1
    },
    {
      "midi": 59,
      "hit": false,
      "t": 144545.416,
      "d": 4019.8852916666656,
      "v": 1
    },
    {
      "midi": 55,
      "hit": false,
      "t": 145909.052,
      "d": 1225.1417187500047,
      "v": 1
    },
    {
      "midi": 75,
      "hit": false,
      "t": 147102.2335,
      "d": 987.2156458333193,
      "v": 1
    },
    {
      "midi": 63,
      "hit": false,
      "t": 147272.688,
      "d": 1331.67578125,
      "v": 1
    },
    {
      "midi": 54,
      "hit": false,
      "t": 147272.688,
      "d": 2730.8231354166637,
      "v": 1
    },
    {
      "midi": 58,
      "hit": false,
      "t": 148636.324,
      "d": 1303.266697916668,
      "v": 1
    },
    {
      "midi": 61,
      "hit": false,
      "t": 148636.324,
      "d": 4019.8852916666656,
      "v": 1
    },
    {
      "midi": 56,
      "hit": false,
      "t": 149999.96,
      "d": 2581.6754479166702,
      "v": 1
    },
    {
      "midi": 65,
      "hit": false,
      "t": 149999.96,
      "d": 2666.9026979166665,
      "v": 1
    },
    {
      "midi": 62,
      "hit": false,
      "t": 152727.232,
      "d": 1097.3008437500102,
      "v": 1
    },
    {
      "midi": 59,
      "hit": false,
      "t": 152727.232,
      "d": 1313.9201041666674,
      "v": 1
    },
    {
      "midi": 55,
      "hit": false,
      "t": 152727.232,
      "d": 1342.3291874999995,
      "v": 1
    },
    {
      "midi": 61,
      "hit": false,
      "t": 154090.868,
      "d": 1292.6132916666684,
      "v": 1
    },
    {
      "midi": 64,
      "hit": false,
      "t": 154090.868,
      "d": 1310.368968750001,
      "v": 1
    },
    {
      "midi": 57,
      "hit": false,
      "t": 154090.868,
      "d": 1360.084864583332,
      "v": 1
    },
    {
      "midi": 54,
      "hit": false,
      "t": 156136.322,
      "d": 696.0225416666653,
      "v": 1
    },
    {
      "midi": 63,
      "hit": false,
      "t": 156136.322,
      "d": 2056.1074062499974,
      "v": 1
    },
    {
      "midi": 59,
      "hit": false,
      "t": 156136.322,
      "d": 3341.618427083333,
      "v": 1
    },
    {
      "midi": 56,
      "hit": false,
      "t": 156818.13999999998,
      "d": 1253.5508020833367,
      "v": 1
    },
    {
      "midi": 55,
      "hit": false,
      "t": 158181.77599999998,
      "d": 1019.175864583347,
      "v": 1
    },
    {
      "midi": 62,
      "hit": false,
      "t": 158181.77599999998,
      "d": 1409.8007604166633,
      "v": 1
    },
    {
      "midi": 54,
      "hit": false,
      "t": 159545.41199999998,
      "d": 848.7213645833253,
      "v": 1
    },
    {
      "midi": 61,
      "hit": false,
      "t": 159545.41199999998,
      "d": 1299.7155624999723,
      "v": 1
    },
    {
      "midi": 57,
      "hit": false,
      "t": 159545.41199999998,
      "d": 1331.675781249971,
      "v": 1
    },
    {
      "midi": 66,
      "hit": false,
      "t": 160397.68449999997,
      "d": 209.51698958332418,
      "v": 1
    },
    {
      "midi": 54,
      "hit": false,
      "t": 160397.68449999997,
      "d": 266.33515624998836,
      "v": 1
    },
    {
      "midi": 54,
      "hit": false,
      "t": 160738.59349999996,
      "d": 99.43179166666232,
      "v": 1
    },
    {
      "midi": 66,
      "hit": false,
      "t": 160738.59349999996,
      "d": 419.03397916664835,
      "v": 1
    },
    {
      "midi": 64,
      "hit": false,
      "t": 161079.50249999994,
      "d": 227.27266666665673,
      "v": 1
    },
    {
      "midi": 52,
      "hit": false,
      "t": 161079.50249999994,
      "d": 287.6419687499874,
      "v": 1
    },
    {
      "midi": 64,
      "hit": false,
      "t": 161420.41149999993,
      "d": 348.0112708333472,
      "v": 1
    },
    {
      "midi": 52,
      "hit": false,
      "t": 161420.41149999993,
      "d": 362.21581250001327,
      "v": 1
    },
    {
      "midi": 62,
      "hit": false,
      "t": 161761.32049999994,
      "d": 227.27266666665673,
      "v": 1
    },
    {
      "midi": 50,
      "hit": false,
      "t": 161761.32049999994,
      "d": 245.0283437499893,
      "v": 1
    },
    {
      "midi": 62,
      "hit": false,
      "t": 162102.22949999993,
      "d": 362.21581250001327,
      "v": 1
    },
    {
      "midi": 50,
      "hit": false,
      "t": 162102.22949999993,
      "d": 379.97148958334583,
      "v": 1
    },
    {
      "midi": 61,
      "hit": false,
      "t": 162443.13849999994,
      "d": 248.5794791666558,
      "v": 1
    },
    {
      "midi": 49,
      "hit": false,
      "t": 162443.13849999994,
      "d": 284.0908333333209,
      "v": 1
    },
    {
      "midi": 49,
      "hit": false,
      "t": 162784.04749999993,
      "d": 340.9090000000142,
      "v": 1
    },
    {
      "midi": 61,
      "hit": false,
      "t": 162784.04749999993,
      "d": 340.9090000000142,
      "v": 1
    },
    {
      "midi": 59,
      "hit": false,
      "t": 163124.95649999994,
      "d": 1558.9484479166567,
      "v": 1
    },
    {
      "midi": 47,
      "hit": false,
      "t": 163124.95649999994,
      "d": 1605.1132083333214,
      "v": 1
    }
  ]
}