{
  "jsonPath": "Religious/Classic Praise/Jami Smith/to-speak-your-name.json",
  "path": "Religious\\Classic Praise\\Jami Smith\\To Speak Your Name.mid",
  "name": "To Speak Your Name",
  "difficulty": "Advanced",
  "bpm": 69.99998833333528,
  "notes": [
    {
      "midi": 52,
      "hit": false,
      "t": 6000.000000000001,
      "d": 5441.666666666667,
      "v": 103
    },
    {
      "midi": 55,
      "hit": false,
      "t": 6000.000000000001,
      "d": 5462.500000000001,
      "v": 115
    },
    {
      "midi": 60,
      "hit": false,
      "t": 6000.000000000001,
      "d": 5504.166666666667,
      "v": 110
    },
    {
      "midi": 36,
      "hit": false,
      "t": 6000.000000000001,
      "d": 5991.666666666667,
      "v": 99
    },
    {
      "midi": 53,
      "hit": false,
      "t": 11987.500000000002,
      "d": 5462.499999999998,
      "v": 96
    },
    {
      "midi": 60,
      "hit": false,
      "t": 11987.500000000002,
      "d": 5483.33333333333,
      "v": 106
    },
    {
      "midi": 57,
      "hit": false,
      "t": 11987.500000000002,
      "d": 5595.83333333333,
      "v": 110
    },
    {
      "midi": 41,
      "hit": false,
      "t": 11987.500000000002,
      "d": 5962.499999999998,
      "v": 106
    },
    {
      "midi": 50,
      "hit": false,
      "t": 18000,
      "d": 5470.833333333332,
      "v": 110
    },
    {
      "midi": 55,
      "hit": false,
      "t": 18000,
      "d": 5545.833333333332,
      "v": 110
    },
    {
      "midi": 59,
      "hit": false,
      "t": 18000,
      "d": 5637.5,
      "v": 106
    },
    {
      "midi": 43,
      "hit": false,
      "t": 18000,
      "d": 6033.333333333332,
      "v": 99
    },
    {
      "midi": 57,
      "hit": false,
      "t": 24000,
      "d": 4554.166666666668,
      "v": 110
    },
    {
      "midi": 52,
      "hit": false,
      "t": 24000,
      "d": 4566.666666666668,
      "v": 106
    },
    {
      "midi": 45,
      "hit": false,
      "t": 24000,
      "d": 4837.5,
      "v": 93
    },
    {
      "midi": 60,
      "hit": false,
      "t": 24008.333333333332,
      "d": 4429.166666666668,
      "v": 93
    },
    {
      "midi": 55,
      "hit": false,
      "t": 28979.166666666668,
      "d": 616.6666666666642,
      "v": 103
    },
    {
      "midi": 62,
      "hit": false,
      "t": 28987.5,
      "d": 637.5,
      "v": 83
    },
    {
      "midi": 47,
      "hit": false,
      "t": 28987.5,
      "d": 837.5,
      "v": 96
    },
    {
      "midi": 55,
      "hit": false,
      "t": 29987.5,
      "d": 5658.333333333336,
      "v": 93
    },
    {
      "midi": 60,
      "hit": false,
      "t": 29987.5,
      "d": 5658.333333333336,
      "v": 119
    },
    {
      "midi": 64,
      "hit": false,
      "t": 29987.5,
      "d": 5700,
      "v": 110
    },
    {
      "midi": 48,
      "hit": false,
      "t": 29987.5,
      "d": 5733.333333333336,
      "v": 103
    },
    {
      "midi": 53,
      "hit": false,
      "t": 35958.333333333336,
      "d": 5283.333333333336,
      "v": 99
    },
    {
      "midi": 57,
      "hit": false,
      "t": 35958.333333333336,
      "d": 5420.833333333336,
      "v": 106
    },
    {
      "midi": 60,
      "hit": false,
      "t": 35958.333333333336,
      "d": 5450,
      "v": 115
    },
    {
      "midi": 41,
      "hit": false,
      "t": 35958.333333333336,
      "d": 5983.333333333336,
      "v": 106
    },
    {
      "midi": 60,
      "hit": false,
      "t": 41966.66666666667,
      "d": 2762.5,
      "v": 94
    },
    {
      "midi": 50,
      "hit": false,
      "t": 41966.66666666667,
      "d": 2816.6666666666642,
      "v": 94
    },
    {
      "midi": 43,
      "hit": false,
      "t": 41966.66666666667,
      "d": 5795.833333333336,
      "v": 91
    },
    {
      "midi": 55,
      "hit": false,
      "t": 41979.16666666667,
      "d": 2816.6666666666642,
      "v": 103
    },
    {
      "midi": 59,
      "hit": false,
      "t": 44979.16666666667,
      "d": 2825,
      "v": 98
    },
    {
      "midi": 55,
      "hit": false,
      "t": 44979.16666666667,
      "d": 2845.8333333333358,
      "v": 103
    },
    {
      "midi": 50,
      "hit": false,
      "t": 44987.50000000001,
      "d": 2762.5,
      "v": 78
    },
    {
      "midi": 43,
      "hit": false,
      "t": 47945.83333333334,
      "d": 2054.1666666666642,
      "v": 107
    },
    {
      "midi": 55,
      "hit": false,
      "t": 47945.83333333334,
      "d": 2887.5,
      "v": 88
    },
    {
      "midi": 50,
      "hit": false,
      "t": 47945.83333333334,
      "d": 2970.8333333333358,
      "v": 94
    },
    {
      "midi": 60,
      "hit": false,
      "t": 47958.33333333334,
      "d": 2920.8333333333358,
      "v": 107
    },
    {
      "midi": 31,
      "hit": false,
      "t": 49987.50000000001,
      "d": 837.5,
      "v": 127
    },
    {
      "midi": 31,
      "hit": false,
      "t": 50987.500000000015,
      "d": 1533.3333333333358,
      "v": 127
    },
    {
      "midi": 50,
      "hit": false,
      "t": 50987.500000000015,
      "d": 2858.3333333333358,
      "v": 127
    },
    {
      "midi": 55,
      "hit": false,
      "t": 50987.500000000015,
      "d": 2866.6666666666715,
      "v": 127
    },
    {
      "midi": 59,
      "hit": false,
      "t": 50987.500000000015,
      "d": 2900.0000000000073,
      "v": 127
    },
    {
      "midi": 31,
      "hit": false,
      "t": 52958.33333333335,
      "d": 887.5,
      "v": 124
    },
    {
      "midi": 52,
      "hit": false,
      "t": 54000.00000000002,
      "d": 5191.666666666664,
      "v": 103
    },
    {
      "midi": 60,
      "hit": false,
      "t": 54000.00000000002,
      "d": 5379.166666666664,
      "v": 103
    },
    {
      "midi": 55,
      "hit": false,
      "t": 54000.00000000002,
      "d": 5387.5,
      "v": 106
    },
    {
      "midi": 36,
      "hit": false,
      "t": 54000.00000000002,
      "d": 6116.666666666664,
      "v": 106
    },
    {
      "midi": 60,
      "hit": false,
      "t": 59966.666666666686,
      "d": 5233.333333333336,
      "v": 103
    },
    {
      "midi": 53,
      "hit": false,
      "t": 59966.666666666686,
      "d": 5304.1666666666715,
      "v": 103
    },
    {
      "midi": 41,
      "hit": false,
      "t": 59966.666666666686,
      "d": 5962.5,
      "v": 103
    },
    {
      "midi": 57,
      "hit": false,
      "t": 59979.166666666686,
      "d": 5304.1666666666715,
      "v": 106
    },
    {
      "midi": 55,
      "hit": false,
      "t": 65987.50000000001,
      "d": 3316.6666666666715,
      "v": 110
    },
    {
      "midi": 43,
      "hit": false,
      "t": 65987.50000000001,
      "d": 4450.000000000015,
      "v": 103
    },
    {
      "midi": 50,
      "hit": false,
      "t": 66000.00000000001,
      "d": 3345.833333333343,
      "v": 106
    },
    {
      "midi": 59,
      "hit": false,
      "t": 66000.00000000001,
      "d": 5679.166666666686,
      "v": 106
    },
    {
      "midi": 55,
      "hit": false,
      "t": 69987.50000000003,
      "d": 1887.5,
      "v": 115
    },
    {
      "midi": 50,
      "hit": false,
      "t": 70987.50000000003,
      "d": 804.1666666666715,
      "v": 110
    },
    {
      "midi": 43,
      "hit": false,
      "t": 70987.50000000003,
      "d": 1075,
      "v": 115
    },
    {
      "midi": 45,
      "hit": false,
      "t": 71966.6666666667,
      "d": 3658.3333333333285,
      "v": 85
    },
    {
      "midi": 57,
      "hit": false,
      "t": 71979.1666666667,
      "d": 3879.166666666657,
      "v": 110
    },
    {
      "midi": 60,
      "hit": false,
      "t": 71987.50000000003,
      "d": 3762.5,
      "v": 115
    },
    {
      "midi": 52,
      "hit": false,
      "t": 71987.50000000003,
      "d": 3783.3333333333285,
      "v": 110
    },
    {
      "midi": 45,
      "hit": false,
      "t": 75979.16666666669,
      "d": 970.8333333333285,
      "v": 103
    },
    {
      "midi": 60,
      "hit": false,
      "t": 75979.16666666669,
      "d": 970.8333333333285,
      "v": 106
    },
    {
      "midi": 57,
      "hit": false,
      "t": 75979.16666666669,
      "d": 991.666666666657,
      "v": 110
    },
    {
      "midi": 59,
      "hit": false,
      "t": 76979.16666666667,
      "d": 858.3333333333285,
      "v": 103
    },
    {
      "midi": 55,
      "hit": false,
      "t": 76979.16666666667,
      "d": 879.166666666657,
      "v": 90
    },
    {
      "midi": 47,
      "hit": false,
      "t": 76979.16666666667,
      "d": 941.666666666657,
      "v": 99
    },
    {
      "midi": 48,
      "hit": false,
      "t": 77966.66666666666,
      "d": 5929.1666666666715,
      "v": 115
    },
    {
      "midi": 60,
      "hit": false,
      "t": 77979.16666666666,
      "d": 5741.6666666666715,
      "v": 110
    },
    {
      "midi": 52,
      "hit": false,
      "t": 77979.16666666666,
      "d": 5804.1666666666715,
      "v": 115
    },
    {
      "midi": 55,
      "hit": false,
      "t": 77979.16666666666,
      "d": 5804.1666666666715,
      "v": 106
    },
    {
      "midi": 53,
      "hit": false,
      "t": 83966.66666666666,
      "d": 5400,
      "v": 99
    },
    {
      "midi": 60,
      "hit": false,
      "t": 83966.66666666666,
      "d": 5504.1666666666715,
      "v": 99
    },
    {
      "midi": 57,
      "hit": false,
      "t": 83966.66666666666,
      "d": 5650,
      "v": 99
    },
    {
      "midi": 41,
      "hit": false,
      "t": 83966.66666666666,
      "d": 6129.1666666666715,
      "v": 103
    },
    {
      "midi": 50,
      "hit": false,
      "t": 89979.16666666666,
      "d": 5179.1666666666715,
      "v": 85
    },
    {
      "midi": 59,
      "hit": false,
      "t": 89979.16666666666,
      "d": 5637.5,
      "v": 96
    },
    {
      "midi": 55,
      "hit": false,
      "t": 89979.16666666666,
      "d": 5804.1666666666715,
      "v": 99
    },
    {
      "midi": 43,
      "hit": false,
      "t": 89979.16666666666,
      "d": 6033.3333333333285,
      "v": 90
    },
    {
      "midi": 60,
      "hit": false,
      "t": 95966.66666666666,
      "d": 2879.166666666657,
      "v": 85
    },
    {
      "midi": 57,
      "hit": false,
      "t": 95966.66666666666,
      "d": 2899.9999999999854,
      "v": 90
    },
    {
      "midi": 52,
      "hit": false,
      "t": 95966.66666666666,
      "d": 2920.833333333314,
      "v": 88
    },
    {
      "midi": 45,
      "hit": false,
      "t": 95966.66666666666,
      "d": 4004.166666666628,
      "v": 88
    },
    {
      "midi": 52,
      "hit": false,
      "t": 99070.8333333333,
      "d": 274.99999999998545,
      "v": 73
    },
    {
      "midi": 60,
      "hit": false,
      "t": 99083.3333333333,
      "d": 220.83333333332848,
      "v": 61
    },
    {
      "midi": 57,
      "hit": false,
      "t": 99083.3333333333,
      "d": 254.16666666665697,
      "v": 85
    },
    {
      "midi": 43,
      "hit": false,
      "t": 99958.33333333328,
      "d": 1970.833333333343,
      "v": 119
    },
    {
      "midi": 55,
      "hit": false,
      "t": 99987.49999999996,
      "d": 1887.5,
      "v": 124
    },
    {
      "midi": 50,
      "hit": false,
      "t": 99999.99999999996,
      "d": 1858.3333333333285,
      "v": 115
    },
    {
      "midi": 59,
      "hit": false,
      "t": 99999.99999999996,
      "d": 1962.5,
      "v": 119
    },
    {
      "midi": 41,
      "hit": false,
      "t": 101966.66666666663,
      "d": 5991.666666666657,
      "v": 124
    },
    {
      "midi": 57,
      "hit": false,
      "t": 101979.16666666663,
      "d": 5691.666666666657,
      "v": 124
    },
    {
      "midi": 53,
      "hit": false,
      "t": 101979.16666666663,
      "d": 5970.8333333333285,
      "v": 119
    },
    {
      "midi": 60,
      "hit": false,
      "t": 101987.49999999996,
      "d": 5608.3333333333285,
      "v": 115
    },
    {
      "midi": 55,
      "hit": false,
      "t": 107966.66666666661,
      "d": 6004.166666666657,
      "v": 106
    },
    {
      "midi": 43,
      "hit": false,
      "t": 107979.16666666661,
      "d": 4720.8333333333285,
      "v": 124
    },
    {
      "midi": 59,
      "hit": false,
      "t": 107979.16666666661,
      "d": 5775,
      "v": 119
    },
    {
      "midi": 43,
      "hit": false,
      "t": 112979.16666666661,
      "d": 533.3333333333285,
      "v": 99
    },
    {
      "midi": 44,
      "hit": false,
      "t": 113466.66666666661,
      "d": 483.3333333333285,
      "v": 102
    },
    {
      "midi": 53,
      "hit": false,
      "t": 113958.33333333327,
      "d": 5900,
      "v": 110
    },
    {
      "midi": 60,
      "hit": false,
      "t": 113958.33333333327,
      "d": 5908.3333333333285,
      "v": 110
    },
    {
      "midi": 45,
      "hit": false,
      "t": 113966.6666666666,
      "d": 6012.5,
      "v": 110
    },
    {
      "midi": 59,
      "hit": false,
      "t": 119999.99999999993,
      "d": 5533.3333333333285,
      "v": 106
    },
    {
      "midi": 55,
      "hit": false,
      "t": 119999.99999999993,
      "d": 5970.8333333333285,
      "v": 106
    },
    {
      "midi": 43,
      "hit": false,
      "t": 120008.33333333326,
      "d": 2712.5,
      "v": 127
    },
    {
      "midi": 50,
      "hit": false,
      "t": 120008.33333333326,
      "d": 5191.6666666666715,
      "v": 103
    },
    {
      "midi": 43,
      "hit": false,
      "t": 122987.49999999993,
      "d": 650,
      "v": 124
    },
    {
      "midi": 43,
      "hit": false,
      "t": 123999.99999999993,
      "d": 408.3333333333285,
      "v": 110
    },
    {
      "midi": 45,
      "hit": false,
      "t": 124499.99999999993,
      "d": 491.6666666666715,
      "v": 115
    },
    {
      "midi": 43,
      "hit": false,
      "t": 124937.49999999993,
      "d": 1012.5,
      "v": 115
    },
    {
      "midi": 36,
      "hit": false,
      "t": 125945.83333333326,
      "d": 25,
      "v": 124
    },
    {
      "midi": 52,
      "hit": false,
      "t": 125979.16666666658,
      "d": 4.166666666671517,
      "v": 103
    },
    {
      "midi": 60,
      "hit": false,
      "t": 125979.16666666658,
      "d": 4.166666666671517,
      "v": 119
    },
    {
      "midi": 52,
      "hit": false,
      "t": 125999.99999999993,
      "d": 4220.8333333333285,
      "v": 103
    },
    {
      "midi": 55,
      "hit": false,
      "t": 125999.99999999993,
      "d": 4262.5,
      "v": 106
    },
    {
      "midi": 60,
      "hit": false,
      "t": 125999.99999999993,
      "d": 4275,
      "v": 103
    },
    {
      "midi": 36,
      "hit": false,
      "t": 125999.99999999993,
      "d": 4304.1666666666715,
      "v": 106
    },
    {
      "midi": 60,
      "hit": false,
      "t": 131966.6666666666,
      "d": 5233.333333333343,
      "v": 103
    },
    {
      "midi": 53,
      "hit": false,
      "t": 131966.6666666666,
      "d": 5304.166666666686,
      "v": 103
    },
    {
      "midi": 41,
      "hit": false,
      "t": 131966.6666666666,
      "d": 5962.500000000029,
      "v": 103
    },
    {
      "midi": 57,
      "hit": false,
      "t": 131979.1666666666,
      "d": 5304.166666666686,
      "v": 106
    },
    {
      "midi": 55,
      "hit": false,
      "t": 137987.49999999997,
      "d": 3316.666666666657,
      "v": 110
    },
    {
      "midi": 43,
      "hit": false,
      "t": 137987.49999999997,
      "d": 4449.999999999971,
      "v": 103
    },
    {
      "midi": 50,
      "hit": false,
      "t": 137999.99999999997,
      "d": 3345.833333333314,
      "v": 106
    },
    {
      "midi": 59,
      "hit": false,
      "t": 137999.99999999997,
      "d": 5679.166666666628,
      "v": 106
    },
    {
      "midi": 55,
      "hit": false,
      "t": 141987.49999999994,
      "d": 1887.5,
      "v": 115
    },
    {
      "midi": 50,
      "hit": false,
      "t": 142987.49999999994,
      "d": 804.166666666657,
      "v": 110
    },
    {
      "midi": 43,
      "hit": false,
      "t": 142987.49999999994,
      "d": 1075,
      "v": 115
    },
    {
      "midi": 45,
      "hit": false,
      "t": 143966.6666666666,
      "d": 3658.333333333343,
      "v": 85
    },
    {
      "midi": 57,
      "hit": false,
      "t": 143979.1666666666,
      "d": 3879.166666666686,
      "v": 110
    },
    {
      "midi": 60,
      "hit": false,
      "t": 143987.49999999994,
      "d": 3762.5,
      "v": 115
    },
    {
      "midi": 52,
      "hit": false,
      "t": 143987.49999999994,
      "d": 3783.333333333343,
      "v": 110
    },
    {
      "midi": 45,
      "hit": false,
      "t": 147979.16666666663,
      "d": 970.833333333343,
      "v": 103
    },
    {
      "midi": 60,
      "hit": false,
      "t": 147979.16666666663,
      "d": 970.833333333343,
      "v": 106
    },
    {
      "midi": 57,
      "hit": false,
      "t": 147979.16666666663,
      "d": 991.6666666666861,
      "v": 110
    },
    {
      "midi": 59,
      "hit": false,
      "t": 148979.16666666666,
      "d": 858.333333333343,
      "v": 103
    },
    {
      "midi": 55,
      "hit": false,
      "t": 148979.16666666666,
      "d": 879.1666666666861,
      "v": 90
    },
    {
      "midi": 47,
      "hit": false,
      "t": 148979.16666666666,
      "d": 941.6666666666861,
      "v": 99
    },
    {
      "midi": 48,
      "hit": false,
      "t": 149966.6666666667,
      "d": 5929.166666666657,
      "v": 115
    },
    {
      "midi": 60,
      "hit": false,
      "t": 149979.1666666667,
      "d": 5741.666666666657,
      "v": 110
    },
    {
      "midi": 52,
      "hit": false,
      "t": 149979.1666666667,
      "d": 5804.166666666657,
      "v": 115
    },
    {
      "midi": 55,
      "hit": false,
      "t": 149979.1666666667,
      "d": 5804.166666666657,
      "v": 106
    },
    {
      "midi": 53,
      "hit": false,
      "t": 155966.6666666667,
      "d": 5400,
      "v": 99
    },
    {
      "midi": 60,
      "hit": false,
      "t": 155966.6666666667,
      "d": 5504.166666666657,
      "v": 99
    },
    {
      "midi": 57,
      "hit": false,
      "t": 155966.6666666667,
      "d": 5650,
      "v": 99
    },
    {
      "midi": 41,
      "hit": false,
      "t": 155966.6666666667,
      "d": 6129.166666666657,
      "v": 103
    },
    {
      "midi": 50,
      "hit": false,
      "t": 161979.1666666667,
      "d": 5179.166666666657,
      "v": 85
    },
    {
      "midi": 59,
      "hit": false,
      "t": 161979.1666666667,
      "d": 5637.5,
      "v": 96
    },
    {
      "midi": 55,
      "hit": false,
      "t": 161979.1666666667,
      "d": 5804.166666666657,
      "v": 99
    },
    {
      "midi": 43,
      "hit": false,
      "t": 161979.1666666667,
      "d": 6033.333333333343,
      "v": 90
    },
    {
      "midi": 60,
      "hit": false,
      "t": 167966.6666666667,
      "d": 2879.166666666686,
      "v": 85
    },
    {
      "midi": 57,
      "hit": false,
      "t": 167966.6666666667,
      "d": 2900.000000000029,
      "v": 90
    },
    {
      "midi": 52,
      "hit": false,
      "t": 167966.6666666667,
      "d": 2920.833333333372,
      "v": 88
    },
    {
      "midi": 45,
      "hit": false,
      "t": 167966.6666666667,
      "d": 4004.1666666667443,
      "v": 88
    },
    {
      "midi": 52,
      "hit": false,
      "t": 171070.8333333334,
      "d": 275.0000000000291,
      "v": 73
    },
    {
      "midi": 60,
      "hit": false,
      "t": 171083.3333333334,
      "d": 220.83333333334303,
      "v": 61
    },
    {
      "midi": 57,
      "hit": false,
      "t": 171083.3333333334,
      "d": 254.16666666668607,
      "v": 85
    },
    {
      "midi": 43,
      "hit": false,
      "t": 171958.33333333343,
      "d": 1970.833333333314,
      "v": 119
    },
    {
      "midi": 55,
      "hit": false,
      "t": 171987.5000000001,
      "d": 1887.5,
      "v": 124
    },
    {
      "midi": 50,
      "hit": false,
      "t": 172000.0000000001,
      "d": 1858.333333333343,
      "v": 115
    },
    {
      "midi": 59,
      "hit": false,
      "t": 172000.0000000001,
      "d": 1962.5,
      "v": 119
    },
    {
      "midi": 41,
      "hit": false,
      "t": 173966.66666666674,
      "d": 5991.666666666686,
      "v": 124
    },
    {
      "midi": 57,
      "hit": false,
      "t": 173979.16666666674,
      "d": 5691.666666666686,
      "v": 124
    },
    {
      "midi": 53,
      "hit": false,
      "t": 173979.16666666674,
      "d": 5970.833333333343,
      "v": 119
    },
    {
      "midi": 60,
      "hit": false,
      "t": 173987.5000000001,
      "d": 5608.333333333343,
      "v": 115
    },
    {
      "midi": 55,
      "hit": false,
      "t": 179966.66666666677,
      "d": 6004.166666666686,
      "v": 106
    },
    {
      "midi": 43,
      "hit": false,
      "t": 179979.16666666677,
      "d": 4720.833333333343,
      "v": 124
    },
    {
      "midi": 59,
      "hit": false,
      "t": 179979.16666666677,
      "d": 5775,
      "v": 119
    },
    {
      "midi": 43,
      "hit": false,
      "t": 184979.16666666677,
      "d": 533.333333333343,
      "v": 99
    },
    {
      "midi": 44,
      "hit": false,
      "t": 185466.66666666677,
      "d": 483.33333333334303,
      "v": 102
    },
    {
      "midi": 53,
      "hit": false,
      "t": 185958.33333333346,
      "d": 5900,
      "v": 110
    },
    {
      "midi": 60,
      "hit": false,
      "t": 185958.33333333346,
      "d": 5908.333333333343,
      "v": 110
    },
    {
      "midi": 45,
      "hit": false,
      "t": 185966.6666666668,
      "d": 6012.5,
      "v": 110
    },
    {
      "midi": 43,
      "hit": false,
      "t": 191945.83333333346,
      "d": 3733.333333333372,
      "v": 119
    },
    {
      "midi": 67,
      "hit": false,
      "t": 192000.00000000015,
      "d": 608.333333333343,
      "v": 119
    },
    {
      "midi": 62,
      "hit": false,
      "t": 192000.00000000015,
      "d": 616.6666666666861,
      "v": 124
    },
    {
      "midi": 60,
      "hit": false,
      "t": 192000.00000000015,
      "d": 629.1666666666861,
      "v": 115
    },
    {
      "midi": 60,
      "hit": false,
      "t": 192958.3333333335,
      "d": 1991.666666666686,
      "v": 115
    },
    {
      "midi": 62,
      "hit": false,
      "t": 192958.3333333335,
      "d": 1991.666666666686,
      "v": 124
    },
    {
      "midi": 67,
      "hit": false,
      "t": 192979.16666666683,
      "d": 1908.333333333343,
      "v": 119
    },
    {
      "midi": 60,
      "hit": false,
      "t": 194987.50000000017,
      "d": 2649.999999999971,
      "v": 106
    },
    {
      "midi": 67,
      "hit": false,
      "t": 194987.50000000017,
      "d": 2691.666666666628,
      "v": 106
    },
    {
      "midi": 62,
      "hit": false,
      "t": 194987.50000000017,
      "d": 2762.499999999942,
      "v": 106
    },
    {
      "midi": 43,
      "hit": false,
      "t": 195958.3333333335,
      "d": 575,
      "v": 127
    },
    {
      "midi": 43,
      "hit": false,
      "t": 196945.8333333335,
      "d": 774.9999999999709,
      "v": 124
    },
    {
      "midi": 43,
      "hit": false,
      "t": 197979.16666666677,
      "d": 491.66666666668607,
      "v": 127
    },
    {
      "midi": 59,
      "hit": false,
      "t": 197979.16666666677,
      "d": 5408.333333333372,
      "v": 106
    },
    {
      "midi": 62,
      "hit": false,
      "t": 197979.16666666677,
      "d": 5429.166666666715,
      "v": 106
    },
    {
      "midi": 67,
      "hit": false,
      "t": 197987.50000000012,
      "d": 5379.166666666686,
      "v": 115
    },
    {
      "midi": 43,
      "hit": false,
      "t": 198958.33333333346,
      "d": 595.833333333343,
      "v": 127
    },
    {
      "midi": 43,
      "hit": false,
      "t": 199945.83333333346,
      "d": 512.5,
      "v": 127
    },
    {
      "midi": 43,
      "hit": false,
      "t": 200966.6666666668,
      "d": 2658.333333333343,
      "v": 127
    },
    {
      "midi": 64,
      "hit": false,
      "t": 204000,
      "d": 5983.333333333343,
      "v": 1
    },
    {
      "midi": 67,
      "hit": false,
      "t": 204000,
      "d": 6025,
      "v": 1
    },
    {
      "midi": 64,
      "hit": false,
      "t": 204091.6666666668,
      "d": 4545.833333333343,
      "v": 127
    },
    {
      "midi": 60,
      "hit": false,
      "t": 204104.1666666668,
      "d": 4525,
      "v": 127
    },
    {
      "midi": 55,
      "hit": false,
      "t": 204104.1666666668,
      "d": 4533.333333333343,
      "v": 127
    },
    {
      "midi": 55,
      "hit": false,
      "t": 208916.6666666668,
      "d": 712.5,
      "v": 115
    },
    {
      "midi": 60,
      "hit": false,
      "t": 208925.00000000015,
      "d": 775,
      "v": 124
    },
    {
      "midi": 64,
      "hit": false,
      "t": 208937.50000000015,
      "d": 775,
      "v": 124
    },
    {
      "midi": 57,
      "hit": false,
      "t": 209904.1666666668,
      "d": 4866.666666666657,
      "v": 124
    },
    {
      "midi": 60,
      "hit": false,
      "t": 209916.6666666668,
      "d": 4837.5,
      "v": 127
    },
    {
      "midi": 65,
      "hit": false,
      "t": 209916.6666666668,
      "d": 4866.666666666657,
      "v": 127
    },
    {
      "midi": 65,
      "hit": false,
      "t": 210000,
      "d": 5983.333333333343,
      "v": 1
    },
    {
      "midi": 69,
      "hit": false,
      "t": 210000,
      "d": 5983.333333333343,
      "v": 1
    },
    {
      "midi": 57,
      "hit": false,
      "t": 214945.83333333346,
      "d": 720.833333333343,
      "v": 115
    },
    {
      "midi": 65,
      "hit": false,
      "t": 214958.33333333346,
      "d": 712.5,
      "v": 119
    },
    {
      "midi": 60,
      "hit": false,
      "t": 214958.33333333346,
      "d": 754.166666666657,
      "v": 119
    },
    {
      "midi": 55,
      "hit": false,
      "t": 215937.50000000012,
      "d": 2775,
      "v": 127
    },
    {
      "midi": 60,
      "hit": false,
      "t": 215945.83333333346,
      "d": 2775,
      "v": 127
    },
    {
      "midi": 64,
      "hit": false,
      "t": 215945.83333333346,
      "d": 2795.833333333343,
      "v": 127
    },
    {
      "midi": 64,
      "hit": false,
      "t": 216000,
      "d": 6045.833333333343,
      "v": 1
    },
    {
      "midi": 67,
      "hit": false,
      "t": 216000,
      "d": 6054.166666666686,
      "v": 1
    },
    {
      "midi": 55,
      "hit": false,
      "t": 218966.6666666668,
      "d": 2762.5,
      "v": 119
    },
    {
      "midi": 60,
      "hit": false,
      "t": 218966.6666666668,
      "d": 2837.5,
      "v": 124
    },
    {
      "midi": 64,
      "hit": false,
      "t": 218979.1666666668,
      "d": 2866.666666666657,
      "v": 119
    },
    {
      "midi": 65,
      "hit": false,
      "t": 221979.1666666668,
      "d": 1816.666666666686,
      "v": 106
    },
    {
      "midi": 57,
      "hit": false,
      "t": 221987.50000000015,
      "d": 1720.833333333343,
      "v": 119
    },
    {
      "midi": 60,
      "hit": false,
      "t": 221987.50000000015,
      "d": 1720.833333333343,
      "v": 115
    },
    {
      "midi": 48,
      "hit": false,
      "t": 223937.50000000015,
      "d": 400,
      "v": 119
    },
    {
      "midi": 60,
      "hit": false,
      "t": 223966.6666666668,
      "d": 400,
      "v": 119
    },
    {
      "midi": 50,
      "hit": false,
      "t": 224479.1666666668,
      "d": 275,
      "v": 119
    },
    {
      "midi": 62,
      "hit": false,
      "t": 224508.33333333346,
      "d": 275,
      "v": 119
    },
    {
      "midi": 48,
      "hit": false,
      "t": 224966.6666666668,
      "d": 1900,
      "v": 119
    },
    {
      "midi": 60,
      "hit": false,
      "t": 225000.00000000015,
      "d": 1900,
      "v": 119
    },
    {
      "midi": 59,
      "hit": false,
      "t": 227000.00000000015,
      "d": 783.333333333343,
      "v": 127
    },
    {
      "midi": 62,
      "hit": false,
      "t": 227000.00000000015,
      "d": 816.6666666666861,
      "v": 127
    },
    {
      "midi": 67,
      "hit": false,
      "t": 227008.3333333335,
      "d": 825,
      "v": 124
    },
    {
      "midi": 45,
      "hit": false,
      "t": 227966.66666666683,
      "d": 5574.999999999971,
      "v": 119
    },
    {
      "midi": 60,
      "hit": false,
      "t": 228008.3333333335,
      "d": 2804.166666666657,
      "v": 115
    },
    {
      "midi": 64,
      "hit": false,
      "t": 228008.3333333335,
      "d": 2804.166666666657,
      "v": 127
    },
    {
      "midi": 69,
      "hit": false,
      "t": 228008.3333333335,
      "d": 2804.166666666657,
      "v": 124
    },
    {
      "midi": 52,
      "hit": false,
      "t": 229008.3333333335,
      "d": 4491.666666666657,
      "v": 119
    },
    {
      "midi": 57,
      "hit": false,
      "t": 229916.66666666683,
      "d": 679.166666666657,
      "v": 106
    },
    {
      "midi": 57,
      "hit": false,
      "t": 230883.3333333335,
      "d": 2504.166666666657,
      "v": 119
    },
    {
      "midi": 81,
      "hit": false,
      "t": 231020.8333333335,
      "d": 2254.166666666657,
      "v": 119
    },
    {
      "midi": 72,
      "hit": false,
      "t": 231020.8333333335,
      "d": 2275,
      "v": 119
    },
    {
      "midi": 76,
      "hit": false,
      "t": 231020.8333333335,
      "d": 2379.166666666657,
      "v": 127
    },
    {
      "midi": 43,
      "hit": false,
      "t": 233937.50000000015,
      "d": 5658.333333333372,
      "v": 124
    },
    {
      "midi": 67,
      "hit": false,
      "t": 233966.6666666668,
      "d": 2866.666666666686,
      "v": 119
    },
    {
      "midi": 59,
      "hit": false,
      "t": 233966.6666666668,
      "d": 2908.333333333343,
      "v": 119
    },
    {
      "midi": 62,
      "hit": false,
      "t": 233966.6666666668,
      "d": 2920.833333333343,
      "v": 127
    },
    {
      "midi": 50,
      "hit": false,
      "t": 234854.1666666668,
      "d": 4533.333333333372,
      "v": 103
    },
    {
      "midi": 55,
      "hit": false,
      "t": 235875.00000000015,
      "d": 783.333333333343,
      "v": 110
    },
    {
      "midi": 55,
      "hit": false,
      "t": 236925.00000000015,
      "d": 2379.166666666686,
      "v": 115
    },
    {
      "midi": 71,
      "hit": false,
      "t": 237008.3333333335,
      "d": 2587.500000000029,
      "v": 115
    },
    {
      "midi": 74,
      "hit": false,
      "t": 237008.3333333335,
      "d": 2595.833333333372,
      "v": 115
    },
    {
      "midi": 79,
      "hit": false,
      "t": 237008.3333333335,
      "d": 2637.500000000029,
      "v": 110
    },
    {
      "midi": 60,
      "hit": false,
      "t": 239979.16666666686,
      "d": 2733.333333333314,
      "v": 110
    },
    {
      "midi": 69,
      "hit": false,
      "t": 239979.16666666686,
      "d": 2754.166666666657,
      "v": 115
    },
    {
      "midi": 64,
      "hit": false,
      "t": 239979.16666666686,
      "d": 2837.5,
      "v": 119
    },
    {
      "midi": 41,
      "hit": false,
      "t": 240000.0000000002,
      "d": 2345.833333333314,
      "v": 115
    },
    {
      "midi": 48,
      "hit": false,
      "t": 240987.5000000002,
      "d": 1054.166666666657,
      "v": 88
    },
    {
      "midi": 53,
      "hit": false,
      "t": 241987.5000000002,
      "d": 637.4999999999709,
      "v": 93
    },
    {
      "midi": 40,
      "hit": false,
      "t": 242979.16666666686,
      "d": 2275.000000000029,
      "v": 119
    },
    {
      "midi": 59,
      "hit": false,
      "t": 242987.5000000002,
      "d": 2450.000000000029,
      "v": 119
    },
    {
      "midi": 64,
      "hit": false,
      "t": 242987.5000000002,
      "d": 2512.500000000029,
      "v": 124
    },
    {
      "midi": 67,
      "hit": false,
      "t": 242987.5000000002,
      "d": 2587.500000000029,
      "v": 110
    },
    {
      "midi": 47,
      "hit": false,
      "t": 243987.5000000002,
      "d": 1033.333333333343,
      "v": 96
    },
    {
      "midi": 52,
      "hit": false,
      "t": 244987.5000000002,
      "d": 700.0000000000291,
      "v": 90
    },
    {
      "midi": 38,
      "hit": false,
      "t": 245987.50000000023,
      "d": 2179.166666666657,
      "v": 124
    },
    {
      "midi": 69,
      "hit": false,
      "t": 245987.50000000023,
      "d": 2470.833333333314,
      "v": 124
    },
    {
      "midi": 60,
      "hit": false,
      "t": 245987.50000000023,
      "d": 2587.499999999971,
      "v": 124
    },
    {
      "midi": 65,
      "hit": false,
      "t": 246000.00000000023,
      "d": 2720.833333333314,
      "v": 127
    },
    {
      "midi": 45,
      "hit": false,
      "t": 246987.50000000023,
      "d": 1116.666666666657,
      "v": 96
    },
    {
      "midi": 50,
      "hit": false,
      "t": 247987.50000000023,
      "d": 1012.4999999999709,
      "v": 99
    },
    {
      "midi": 60,
      "hit": false,
      "t": 248987.5000000002,
      "d": 2962.5,
      "v": 124
    },
    {
      "midi": 43,
      "hit": false,
      "t": 248987.5000000002,
      "d": 2970.833333333343,
      "v": 119
    },
    {
      "midi": 67,
      "hit": false,
      "t": 248987.5000000002,
      "d": 2970.833333333343,
      "v": 124
    },
    {
      "midi": 65,
      "hit": false,
      "t": 249000.0000000002,
      "d": 2950,
      "v": 127
    },
    {
      "midi": 50,
      "hit": false,
      "t": 249987.5000000002,
      "d": 2004.166666666686,
      "v": 110
    },
    {
      "midi": 55,
      "hit": false,
      "t": 250987.5000000002,
      "d": 970.833333333343,
      "v": 103
    },
    {
      "midi": 55,
      "hit": false,
      "t": 252000.00000000023,
      "d": 2108.333333333343,
      "v": 127
    },
    {
      "midi": 52,
      "hit": false,
      "t": 252000.00000000023,
      "d": 2129.166666666686,
      "v": 127
    },
    {
      "midi": 60,
      "hit": false,
      "t": 252000.00000000023,
      "d": 2170.833333333343,
      "v": 119
    },
    {
      "midi": 36,
      "hit": false,
      "t": 252000.00000000023,
      "d": 6129.166666666715,
      "v": 110
    },
    {
      "midi": 64,
      "hit": false,
      "t": 255050.00000000023,
      "d": 6741.666666666715,
      "v": 107
    },
    {
      "midi": 60,
      "hit": false,
      "t": 255062.50000000023,
      "d": 2012.500000000029,
      "v": 96
    },
    {
      "midi": 62,
      "hit": false,
      "t": 255062.50000000023,
      "d": 2095.833333333372,
      "v": 54
    },
    {
      "midi": 55,
      "hit": false,
      "t": 255083.33333333358,
      "d": 1920.833333333343,
      "v": 88
    },
    {
      "midi": 60,
      "hit": false,
      "t": 257895.8333333336,
      "d": 3879.166666666686,
      "v": 103
    },
    {
      "midi": 57,
      "hit": false,
      "t": 257904.16666666695,
      "d": 3887.5,
      "v": 106
    },
    {
      "midi": 53,
      "hit": false,
      "t": 257916.66666666695,
      "d": 3858.333333333343,
      "v": 103
    },
    {
      "midi": 41,
      "hit": false,
      "t": 257945.8333333336,
      "d": 5200,
      "v": 103
    },
    {
      "midi": 67,
      "hit": false,
      "t": 261987.5000000003,
      "d": 941.6666666666861,
      "v": 106
    },
    {
      "midi": 72,
      "hit": false,
      "t": 261987.5000000003,
      "d": 1304.1666666666279,
      "v": 119
    },
    {
      "midi": 53,
      "hit": false,
      "t": 261987.5000000003,
      "d": 1970.8333333332557,
      "v": 124
    },
    {
      "midi": 74,
      "hit": false,
      "t": 262987.5000000003,
      "d": 899.9999999999418,
      "v": 115
    },
    {
      "midi": 69,
      "hit": false,
      "t": 262987.5000000003,
      "d": 962.4999999999418,
      "v": 103
    },
    {
      "midi": 67,
      "hit": false,
      "t": 263979.16666666686,
      "d": 1616.6666666666279,
      "v": 103
    },
    {
      "midi": 74,
      "hit": false,
      "t": 263979.16666666686,
      "d": 3837.5,
      "v": 110
    },
    {
      "midi": 55,
      "hit": false,
      "t": 263979.16666666686,
      "d": 4962.5,
      "v": 103
    },
    {
      "midi": 72,
      "hit": false,
      "t": 263987.5000000002,
      "d": 3804.166666666686,
      "v": 115
    },
    {
      "midi": 62,
      "hit": false,
      "t": 266000.0000000002,
      "d": 1566.666666666686,
      "v": 88
    },
    {
      "midi": 67,
      "hit": false,
      "t": 266979.16666666686,
      "d": 837.5,
      "v": 103
    },
    {
      "midi": 67,
      "hit": false,
      "t": 267979.16666666686,
      "d": 4983.333333333314,
      "v": 103
    },
    {
      "midi": 74,
      "hit": false,
      "t": 267979.16666666686,
      "d": 8025,
      "v": 96
    },
    {
      "midi": 72,
      "hit": false,
      "t": 267979.16666666686,
      "d": 8033.333333333314,
      "v": 103
    },
    {
      "midi": 62,
      "hit": false,
      "t": 268966.66666666686,
      "d": 7025,
      "v": 106
    },
    {
      "midi": 55,
      "hit": false,
      "t": 269979.16666666686,
      "d": 5991.666666666686,
      "v": 103
    },
    {
      "midi": 67,
      "hit": false,
      "t": 272987.5000000002,
      "d": 4.166666666686069,
      "v": 103
    },
    {
      "midi": 55,
      "hit": false,
      "t": 276000.0000000002,
      "d": 4.166666666686069,
      "v": 106
    },
    {
      "midi": 52,
      "hit": false,
      "t": 276000.0000000002,
      "d": 5191.666666666686,
      "v": 103
    },
    {
      "midi": 60,
      "hit": false,
      "t": 276000.0000000002,
      "d": 5379.166666666686,
      "v": 103
    },
    {
      "midi": 36,
      "hit": false,
      "t": 276000.0000000002,
      "d": 6116.666666666686,
      "v": 106
    },
    {
      "midi": 60,
      "hit": false,
      "t": 281966.66666666686,
      "d": 5233.333333333314,
      "v": 103
    },
    {
      "midi": 53,
      "hit": false,
      "t": 281966.66666666686,
      "d": 5304.166666666628,
      "v": 103
    },
    {
      "midi": 41,
      "hit": false,
      "t": 281966.66666666686,
      "d": 5962.499999999942,
      "v": 103
    },
    {
      "midi": 57,
      "hit": false,
      "t": 281979.16666666686,
      "d": 5304.166666666628,
      "v": 106
    },
    {
      "midi": 55,
      "hit": false,
      "t": 287987.5000000001,
      "d": 3316.666666666686,
      "v": 110
    },
    {
      "midi": 43,
      "hit": false,
      "t": 287987.5000000001,
      "d": 4450.000000000058,
      "v": 103
    },
    {
      "midi": 50,
      "hit": false,
      "t": 288000.0000000001,
      "d": 3345.833333333372,
      "v": 106
    },
    {
      "midi": 59,
      "hit": false,
      "t": 288000.0000000001,
      "d": 5679.166666666744,
      "v": 106
    },
    {
      "midi": 55,
      "hit": false,
      "t": 291987.5000000002,
      "d": 1887.5,
      "v": 115
    },
    {
      "midi": 50,
      "hit": false,
      "t": 292987.5000000002,
      "d": 804.1666666666861,
      "v": 110
    },
    {
      "midi": 43,
      "hit": false,
      "t": 292987.5000000002,
      "d": 1075,
      "v": 115
    },
    {
      "midi": 45,
      "hit": false,
      "t": 293966.66666666686,
      "d": 3658.333333333314,
      "v": 85
    },
    {
      "midi": 57,
      "hit": false,
      "t": 293979.16666666686,
      "d": 3879.166666666628,
      "v": 110
    },
    {
      "midi": 60,
      "hit": false,
      "t": 293987.5000000002,
      "d": 3762.5,
      "v": 115
    },
    {
      "midi": 52,
      "hit": false,
      "t": 293987.5000000002,
      "d": 3783.333333333314,
      "v": 110
    },
    {
      "midi": 45,
      "hit": false,
      "t": 297979.1666666668,
      "d": 970.8333333333139,
      "v": 103
    },
    {
      "midi": 60,
      "hit": false,
      "t": 297979.1666666668,
      "d": 970.8333333333139,
      "v": 106
    },
    {
      "midi": 57,
      "hit": false,
      "t": 297979.1666666668,
      "d": 991.6666666666279,
      "v": 110
    },
    {
      "midi": 59,
      "hit": false,
      "t": 298979.16666666674,
      "d": 858.3333333333139,
      "v": 103
    },
    {
      "midi": 55,
      "hit": false,
      "t": 298979.16666666674,
      "d": 879.1666666666279,
      "v": 90
    },
    {
      "midi": 47,
      "hit": false,
      "t": 298979.16666666674,
      "d": 941.6666666666279,
      "v": 99
    },
    {
      "midi": 48,
      "hit": false,
      "t": 299966.6666666667,
      "d": 5929.166666666686,
      "v": 115
    },
    {
      "midi": 60,
      "hit": false,
      "t": 299979.1666666667,
      "d": 5741.666666666686,
      "v": 110
    },
    {
      "midi": 52,
      "hit": false,
      "t": 299979.1666666667,
      "d": 5804.166666666686,
      "v": 115
    },
    {
      "midi": 55,
      "hit": false,
      "t": 299979.1666666667,
      "d": 5804.166666666686,
      "v": 106
    },
    {
      "midi": 53,
      "hit": false,
      "t": 305966.6666666667,
      "d": 5400,
      "v": 99
    },
    {
      "midi": 60,
      "hit": false,
      "t": 305966.6666666667,
      "d": 5504.166666666686,
      "v": 99
    },
    {
      "midi": 57,
      "hit": false,
      "t": 305966.6666666667,
      "d": 5650,
      "v": 99
    },
    {
      "midi": 41,
      "hit": false,
      "t": 305966.6666666667,
      "d": 6129.166666666686,
      "v": 103
    },
    {
      "midi": 50,
      "hit": false,
      "t": 311979.1666666667,
      "d": 5179.166666666686,
      "v": 85
    },
    {
      "midi": 59,
      "hit": false,
      "t": 311979.1666666667,
      "d": 5637.5,
      "v": 96
    },
    {
      "midi": 55,
      "hit": false,
      "t": 311979.1666666667,
      "d": 5804.166666666686,
      "v": 99
    },
    {
      "midi": 43,
      "hit": false,
      "t": 311979.1666666667,
      "d": 6033.333333333314,
      "v": 90
    },
    {
      "midi": 60,
      "hit": false,
      "t": 317966.6666666667,
      "d": 2879.166666666628,
      "v": 85
    },
    {
      "midi": 57,
      "hit": false,
      "t": 317966.6666666667,
      "d": 2899.999999999942,
      "v": 90
    },
    {
      "midi": 52,
      "hit": false,
      "t": 317966.6666666667,
      "d": 2920.8333333332557,
      "v": 88
    },
    {
      "midi": 45,
      "hit": false,
      "t": 317966.6666666667,
      "d": 4004.1666666665114,
      "v": 88
    },
    {
      "midi": 52,
      "hit": false,
      "t": 321070.83333333326,
      "d": 274.9999999999418,
      "v": 73
    },
    {
      "midi": 60,
      "hit": false,
      "t": 321083.33333333326,
      "d": 220.83333333331393,
      "v": 61
    },
    {
      "midi": 57,
      "hit": false,
      "t": 321083.33333333326,
      "d": 254.16666666662786,
      "v": 85
    },
    {
      "midi": 43,
      "hit": false,
      "t": 321958.3333333332,
      "d": 1970.8333333333721,
      "v": 119
    },
    {
      "midi": 55,
      "hit": false,
      "t": 321987.4999999999,
      "d": 1887.5,
      "v": 124
    },
    {
      "midi": 50,
      "hit": false,
      "t": 321999.9999999999,
      "d": 1858.333333333314,
      "v": 115
    },
    {
      "midi": 59,
      "hit": false,
      "t": 321999.9999999999,
      "d": 1962.5,
      "v": 119
    },
    {
      "midi": 41,
      "hit": false,
      "t": 323966.66666666657,
      "d": 5991.666666666628,
      "v": 124
    },
    {
      "midi": 57,
      "hit": false,
      "t": 323979.16666666657,
      "d": 5691.666666666628,
      "v": 124
    },
    {
      "midi": 53,
      "hit": false,
      "t": 323979.16666666657,
      "d": 5970.833333333314,
      "v": 119
    },
    {
      "midi": 60,
      "hit": false,
      "t": 323987.4999999999,
      "d": 5608.333333333314,
      "v": 115
    },
    {
      "midi": 55,
      "hit": false,
      "t": 329966.6666666665,
      "d": 6004.166666666628,
      "v": 106
    },
    {
      "midi": 43,
      "hit": false,
      "t": 329979.1666666665,
      "d": 4720.833333333314,
      "v": 124
    },
    {
      "midi": 59,
      "hit": false,
      "t": 329979.1666666665,
      "d": 5775,
      "v": 119
    },
    {
      "midi": 43,
      "hit": false,
      "t": 334979.1666666665,
      "d": 533.3333333333139,
      "v": 99
    },
    {
      "midi": 44,
      "hit": false,
      "t": 335466.6666666665,
      "d": 483.33333333331393,
      "v": 102
    },
    {
      "midi": 53,
      "hit": false,
      "t": 335958.33333333314,
      "d": 5900,
      "v": 110
    },
    {
      "midi": 60,
      "hit": false,
      "t": 335958.33333333314,
      "d": 5908.333333333314,
      "v": 110
    },
    {
      "midi": 45,
      "hit": false,
      "t": 335966.66666666645,
      "d": 6012.5,
      "v": 110
    },
    {
      "midi": 43,
      "hit": false,
      "t": 341945.83333333314,
      "d": 3733.3333333332557,
      "v": 119
    },
    {
      "midi": 67,
      "hit": false,
      "t": 341999.99999999977,
      "d": 608.3333333333139,
      "v": 119
    },
    {
      "midi": 62,
      "hit": false,
      "t": 341999.99999999977,
      "d": 616.6666666666279,
      "v": 124
    },
    {
      "midi": 60,
      "hit": false,
      "t": 341999.99999999977,
      "d": 629.1666666666279,
      "v": 115
    },
    {
      "midi": 60,
      "hit": false,
      "t": 342958.3333333331,
      "d": 1991.6666666666279,
      "v": 115
    },
    {
      "midi": 62,
      "hit": false,
      "t": 342958.3333333331,
      "d": 1991.6666666666279,
      "v": 124
    },
    {
      "midi": 67,
      "hit": false,
      "t": 342979.1666666664,
      "d": 1908.333333333314,
      "v": 119
    },
    {
      "midi": 60,
      "hit": false,
      "t": 344987.4999999997,
      "d": 2650.000000000058,
      "v": 106
    },
    {
      "midi": 67,
      "hit": false,
      "t": 344987.4999999997,
      "d": 2691.6666666667443,
      "v": 106
    },
    {
      "midi": 62,
      "hit": false,
      "t": 344987.4999999997,
      "d": 2762.5000000001164,
      "v": 106
    },
    {
      "midi": 43,
      "hit": false,
      "t": 345958.3333333331,
      "d": 575,
      "v": 127
    },
    {
      "midi": 43,
      "hit": false,
      "t": 346945.8333333331,
      "d": 775.0000000000582,
      "v": 124
    },
    {
      "midi": 43,
      "hit": false,
      "t": 347979.1666666665,
      "d": 491.66666666662786,
      "v": 127
    },
    {
      "midi": 59,
      "hit": false,
      "t": 347979.1666666665,
      "d": 5408.333333333256,
      "v": 106
    },
    {
      "midi": 62,
      "hit": false,
      "t": 347979.1666666665,
      "d": 5429.16666666657,
      "v": 106
    },
    {
      "midi": 67,
      "hit": false,
      "t": 347987.4999999998,
      "d": 5379.166666666628,
      "v": 115
    },
    {
      "midi": 43,
      "hit": false,
      "t": 348958.33333333314,
      "d": 595.8333333333139,
      "v": 127
    },
    {
      "midi": 43,
      "hit": false,
      "t": 349945.83333333314,
      "d": 512.5,
      "v": 127
    },
    {
      "midi": 43,
      "hit": false,
      "t": 350966.66666666645,
      "d": 2658.333333333314,
      "v": 127
    },
    {
      "midi": 64,
      "hit": false,
      "t": 354091.66666666645,
      "d": 4545.833333333314,
      "v": 127
    },
    {
      "midi": 60,
      "hit": false,
      "t": 354104.16666666645,
      "d": 4525,
      "v": 127
    },
    {
      "midi": 55,
      "hit": false,
      "t": 354104.16666666645,
      "d": 4533.333333333314,
      "v": 127
    },
    {
      "midi": 55,
      "hit": false,
      "t": 358916.66666666645,
      "d": 712.5,
      "v": 115
    },
    {
      "midi": 60,
      "hit": false,
      "t": 358924.99999999977,
      "d": 775,
      "v": 124
    },
    {
      "midi": 64,
      "hit": false,
      "t": 358937.49999999977,
      "d": 775,
      "v": 124
    },
    {
      "midi": 57,
      "hit": false,
      "t": 359904.16666666645,
      "d": 4866.666666666686,
      "v": 124
    },
    {
      "midi": 60,
      "hit": false,
      "t": 359916.66666666645,
      "d": 4837.5,
      "v": 127
    },
    {
      "midi": 65,
      "hit": false,
      "t": 359916.66666666645,
      "d": 4866.666666666686,
      "v": 127
    },
    {
      "midi": 57,
      "hit": false,
      "t": 364945.83333333314,
      "d": 720.8333333333139,
      "v": 115
    },
    {
      "midi": 65,
      "hit": false,
      "t": 364958.33333333314,
      "d": 712.5,
      "v": 119
    },
    {
      "midi": 60,
      "hit": false,
      "t": 364958.33333333314,
      "d": 754.1666666666861,
      "v": 119
    },
    {
      "midi": 55,
      "hit": false,
      "t": 365937.4999999998,
      "d": 2775,
      "v": 127
    },
    {
      "midi": 60,
      "hit": false,
      "t": 365945.83333333314,
      "d": 2775,
      "v": 127
    },
    {
      "midi": 64,
      "hit": false,
      "t": 365945.83333333314,
      "d": 2795.833333333314,
      "v": 127
    },
    {
      "midi": 55,
      "hit": false,
      "t": 368966.66666666645,
      "d": 2762.5,
      "v": 119
    },
    {
      "midi": 60,
      "hit": false,
      "t": 368966.66666666645,
      "d": 2837.5,
      "v": 124
    },
    {
      "midi": 64,
      "hit": false,
      "t": 368979.16666666645,
      "d": 2866.666666666686,
      "v": 119
    },
    {
      "midi": 65,
      "hit": false,
      "t": 371979.16666666645,
      "d": 1816.6666666666279,
      "v": 106
    },
    {
      "midi": 57,
      "hit": false,
      "t": 371987.49999999977,
      "d": 1720.833333333314,
      "v": 119
    },
    {
      "midi": 60,
      "hit": false,
      "t": 371987.49999999977,
      "d": 1720.833333333314,
      "v": 115
    },
    {
      "midi": 48,
      "hit": false,
      "t": 373937.49999999977,
      "d": 400,
      "v": 119
    },
    {
      "midi": 60,
      "hit": false,
      "t": 373966.66666666645,
      "d": 400,
      "v": 119
    },
    {
      "midi": 50,
      "hit": false,
      "t": 374479.16666666645,
      "d": 275,
      "v": 119
    },
    {
      "midi": 62,
      "hit": false,
      "t": 374508.33333333314,
      "d": 275,
      "v": 119
    },
    {
      "midi": 48,
      "hit": false,
      "t": 374966.66666666645,
      "d": 1900,
      "v": 119
    },
    {
      "midi": 60,
      "hit": false,
      "t": 374999.99999999977,
      "d": 1900,
      "v": 119
    },
    {
      "midi": 59,
      "hit": false,
      "t": 376999.99999999977,
      "d": 783.3333333333139,
      "v": 127
    },
    {
      "midi": 62,
      "hit": false,
      "t": 376999.99999999977,
      "d": 816.6666666666279,
      "v": 127
    },
    {
      "midi": 67,
      "hit": false,
      "t": 377008.3333333331,
      "d": 825,
      "v": 124
    },
    {
      "midi": 45,
      "hit": false,
      "t": 377966.6666666664,
      "d": 5575.000000000058,
      "v": 119
    },
    {
      "midi": 60,
      "hit": false,
      "t": 378008.3333333331,
      "d": 2804.166666666686,
      "v": 115
    },
    {
      "midi": 64,
      "hit": false,
      "t": 378008.3333333331,
      "d": 2804.166666666686,
      "v": 127
    },
    {
      "midi": 69,
      "hit": false,
      "t": 378008.3333333331,
      "d": 2804.166666666686,
      "v": 124
    },
    {
      "midi": 52,
      "hit": false,
      "t": 379008.3333333331,
      "d": 4491.666666666686,
      "v": 119
    },
    {
      "midi": 57,
      "hit": false,
      "t": 379916.6666666664,
      "d": 679.1666666666861,
      "v": 106
    },
    {
      "midi": 57,
      "hit": false,
      "t": 380883.3333333331,
      "d": 2504.166666666686,
      "v": 119
    },
    {
      "midi": 81,
      "hit": false,
      "t": 381020.8333333331,
      "d": 2254.166666666686,
      "v": 119
    },
    {
      "midi": 72,
      "hit": false,
      "t": 381020.8333333331,
      "d": 2275,
      "v": 119
    },
    {
      "midi": 76,
      "hit": false,
      "t": 381020.8333333331,
      "d": 2379.166666666686,
      "v": 127
    },
    {
      "midi": 43,
      "hit": false,
      "t": 383937.49999999977,
      "d": 5658.333333333256,
      "v": 124
    },
    {
      "midi": 67,
      "hit": false,
      "t": 383966.66666666645,
      "d": 2866.666666666628,
      "v": 119
    },
    {
      "midi": 59,
      "hit": false,
      "t": 383966.66666666645,
      "d": 2908.333333333314,
      "v": 119
    },
    {
      "midi": 62,
      "hit": false,
      "t": 383966.66666666645,
      "d": 2920.833333333314,
      "v": 127
    },
    {
      "midi": 50,
      "hit": false,
      "t": 384854.16666666645,
      "d": 4533.333333333256,
      "v": 103
    },
    {
      "midi": 55,
      "hit": false,
      "t": 385874.99999999977,
      "d": 783.3333333333139,
      "v": 110
    },
    {
      "midi": 55,
      "hit": false,
      "t": 386924.99999999977,
      "d": 2379.166666666628,
      "v": 115
    },
    {
      "midi": 71,
      "hit": false,
      "t": 387008.3333333331,
      "d": 2587.499999999942,
      "v": 115
    },
    {
      "midi": 74,
      "hit": false,
      "t": 387008.3333333331,
      "d": 2595.8333333332557,
      "v": 115
    },
    {
      "midi": 79,
      "hit": false,
      "t": 387008.3333333331,
      "d": 2637.499999999942,
      "v": 110
    },
    {
      "midi": 60,
      "hit": false,
      "t": 389979.16666666634,
      "d": 2733.333333333372,
      "v": 110
    },
    {
      "midi": 69,
      "hit": false,
      "t": 389979.16666666634,
      "d": 2754.166666666686,
      "v": 115
    },
    {
      "midi": 64,
      "hit": false,
      "t": 389979.16666666634,
      "d": 2837.5,
      "v": 119
    },
    {
      "midi": 41,
      "hit": false,
      "t": 389999.99999999965,
      "d": 2345.833333333372,
      "v": 115
    },
    {
      "midi": 48,
      "hit": false,
      "t": 390987.49999999965,
      "d": 1054.166666666686,
      "v": 88
    },
    {
      "midi": 53,
      "hit": false,
      "t": 391987.49999999965,
      "d": 637.5000000000582,
      "v": 93
    },
    {
      "midi": 40,
      "hit": false,
      "t": 392979.16666666634,
      "d": 2274.999999999942,
      "v": 119
    },
    {
      "midi": 59,
      "hit": false,
      "t": 392987.49999999965,
      "d": 2449.999999999942,
      "v": 119
    },
    {
      "midi": 64,
      "hit": false,
      "t": 392987.49999999965,
      "d": 2512.499999999942,
      "v": 124
    },
    {
      "midi": 67,
      "hit": false,
      "t": 392987.49999999965,
      "d": 2587.499999999942,
      "v": 110
    },
    {
      "midi": 47,
      "hit": false,
      "t": 393987.49999999965,
      "d": 1033.333333333314,
      "v": 96
    },
    {
      "midi": 52,
      "hit": false,
      "t": 394987.49999999965,
      "d": 699.9999999999418,
      "v": 90
    },
    {
      "midi": 38,
      "hit": false,
      "t": 395987.4999999996,
      "d": 2179.166666666686,
      "v": 124
    },
    {
      "midi": 69,
      "hit": false,
      "t": 395987.4999999996,
      "d": 2470.833333333372,
      "v": 124
    },
    {
      "midi": 60,
      "hit": false,
      "t": 395987.4999999996,
      "d": 2587.500000000058,
      "v": 124
    },
    {
      "midi": 65,
      "hit": false,
      "t": 395999.9999999996,
      "d": 2720.833333333372,
      "v": 127
    },
    {
      "midi": 45,
      "hit": false,
      "t": 396987.4999999996,
      "d": 1116.666666666686,
      "v": 96
    },
    {
      "midi": 50,
      "hit": false,
      "t": 397987.4999999996,
      "d": 1012.5000000000582,
      "v": 99
    },
    {
      "midi": 60,
      "hit": false,
      "t": 398987.49999999965,
      "d": 2962.5,
      "v": 124
    },
    {
      "midi": 43,
      "hit": false,
      "t": 398987.49999999965,
      "d": 2970.833333333314,
      "v": 119
    },
    {
      "midi": 67,
      "hit": false,
      "t": 398987.49999999965,
      "d": 2970.833333333314,
      "v": 124
    },
    {
      "midi": 65,
      "hit": false,
      "t": 398999.99999999965,
      "d": 2950,
      "v": 127
    },
    {
      "midi": 50,
      "hit": false,
      "t": 399987.49999999965,
      "d": 2004.1666666666279,
      "v": 110
    },
    {
      "midi": 55,
      "hit": false,
      "t": 400987.49999999965,
      "d": 970.8333333333139,
      "v": 103
    },
    {
      "midi": 48,
      "hit": false,
      "t": 402062.4999999996,
      "d": 1816.6666666666279,
      "v": 127
    },
    {
      "midi": 60,
      "hit": false,
      "t": 402070.8333333329,
      "d": 5525,
      "v": 127
    },
    {
      "midi": 64,
      "hit": false,
      "t": 402070.8333333329,
      "d": 5554.166666666686,
      "v": 127
    },
    {
      "midi": 67,
      "hit": false,
      "t": 402083.3333333329,
      "d": 5545.833333333372,
      "v": 127
    },
    {
      "midi": 36,
      "hit": false,
      "t": 403958.3333333329,
      "d": 712.5,
      "v": 127
    },
    {
      "midi": 36,
      "hit": false,
      "t": 405008.3333333329,
      "d": 1587.5,
      "v": 127
    },
    {
      "midi": 36,
      "hit": false,
      "t": 406874.9999999996,
      "d": 720.8333333333139,
      "v": 127
    },
    {
      "midi": 50,
      "hit": false,
      "t": 408091.6666666663,
      "d": 5866.666666666686,
      "v": 127
    },
    {
      "midi": 38,
      "hit": false,
      "t": 408104.1666666663,
      "d": 5783.333333333372,
      "v": 127
    },
    {
      "midi": 74,
      "hit": false,
      "t": 410987.4999999996,
      "d": 629.1666666666861,
      "v": 127
    },
    {
      "midi": 69,
      "hit": false,
      "t": 410987.4999999996,
      "d": 658.3333333333721,
      "v": 127
    },
    {
      "midi": 78,
      "hit": false,
      "t": 410987.4999999996,
      "d": 754.1666666666861,
      "v": 112
    },
    {
      "midi": 71,
      "hit": false,
      "t": 411945.83333333296,
      "d": 658.3333333333721,
      "v": 119
    },
    {
      "midi": 79,
      "hit": false,
      "t": 411958.33333333296,
      "d": 629.1666666666861,
      "v": 119
    },
    {
      "midi": 74,
      "hit": false,
      "t": 411958.33333333296,
      "d": 720.8333333333721,
      "v": 124
    },
    {
      "midi": 74,
      "hit": false,
      "t": 412924.99999999965,
      "d": 533.3333333333139,
      "v": 127
    },
    {
      "midi": 69,
      "hit": false,
      "t": 412937.49999999965,
      "d": 545.8333333333139,
      "v": 124
    },
    {
      "midi": 78,
      "hit": false,
      "t": 412937.49999999965,
      "d": 545.8333333333139,
      "v": 106
    },
    {
      "midi": 67,
      "hit": false,
      "t": 413999.99999999965,
      "d": 2762.5,
      "v": 127
    },
    {
      "midi": 74,
      "hit": false,
      "t": 414008.33333333296,
      "d": 2816.666666666686,
      "v": 127
    },
    {
      "midi": 71,
      "hit": false,
      "t": 414020.83333333296,
      "d": 2795.833333333372,
      "v": 127
    },
    {
      "midi": 43,
      "hit": false,
      "t": 417049.99999999965,
      "d": 2066.666666666628,
      "v": 110
    },
    {
      "midi": 67,
      "hit": false,
      "t": 417070.83333333296,
      "d": 1775,
      "v": 124
    },
    {
      "midi": 55,
      "hit": false,
      "t": 417070.83333333296,
      "d": 1929.1666666666279,
      "v": 103
    },
    {
      "midi": 74,
      "hit": false,
      "t": 417091.6666666663,
      "d": 1762.5,
      "v": 127
    },
    {
      "midi": 71,
      "hit": false,
      "t": 417091.6666666663,
      "d": 1775,
      "v": 127
    },
    {
      "midi": 50,
      "hit": false,
      "t": 419937.4999999996,
      "d": 5866.666666666628,
      "v": 127
    },
    {
      "midi": 38,
      "hit": false,
      "t": 419945.8333333329,
      "d": 5783.333333333314,
      "v": 127
    },
    {
      "midi": 69,
      "hit": false,
      "t": 422987.4999999996,
      "d": 658.3333333333139,
      "v": 127
    },
    {
      "midi": 74,
      "hit": false,
      "t": 422987.4999999996,
      "d": 720.8333333333139,
      "v": 125
    },
    {
      "midi": 78,
      "hit": false,
      "t": 422987.4999999996,
      "d": 754.1666666666279,
      "v": 112
    },
    {
      "midi": 71,
      "hit": false,
      "t": 423945.8333333329,
      "d": 658.3333333333721,
      "v": 119
    },
    {
      "midi": 79,
      "hit": false,
      "t": 423958.3333333329,
      "d": 629.1666666666861,
      "v": 119
    },
    {
      "midi": 74,
      "hit": false,
      "t": 423958.3333333329,
      "d": 720.8333333333721,
      "v": 124
    },
    {
      "midi": 74,
      "hit": false,
      "t": 424924.9999999996,
      "d": 533.3333333333139,
      "v": 127
    },
    {
      "midi": 69,
      "hit": false,
      "t": 424937.4999999996,
      "d": 545.8333333333139,
      "v": 124
    },
    {
      "midi": 78,
      "hit": false,
      "t": 424937.4999999996,
      "d": 545.8333333333139,
      "v": 106
    },
    {
      "midi": 67,
      "hit": false,
      "t": 425999.99999999953,
      "d": 2762.5,
      "v": 127
    },
    {
      "midi": 74,
      "hit": false,
      "t": 426008.33333333285,
      "d": 2816.666666666686,
      "v": 127
    },
    {
      "midi": 71,
      "hit": false,
      "t": 426020.83333333285,
      "d": 2795.833333333372,
      "v": 127
    },
    {
      "midi": 43,
      "hit": false,
      "t": 429049.99999999953,
      "d": 2066.6666666665697,
      "v": 110
    },
    {
      "midi": 67,
      "hit": false,
      "t": 429070.83333333285,
      "d": 1775,
      "v": 124
    },
    {
      "midi": 55,
      "hit": false,
      "t": 429070.83333333285,
      "d": 1929.1666666666279,
      "v": 103
    },
    {
      "midi": 74,
      "hit": false,
      "t": 429091.66666666616,
      "d": 1762.5,
      "v": 127
    },
    {
      "midi": 71,
      "hit": false,
      "t": 429091.66666666616,
      "d": 1775,
      "v": 127
    },
    {
      "midi": 61,
      "hit": false,
      "t": 430999.9999999995,
      "d": 783.3333333333139,
      "v": 127
    },
    {
      "midi": 64,
      "hit": false,
      "t": 430999.9999999995,
      "d": 816.6666666666279,
      "v": 127
    },
    {
      "midi": 69,
      "hit": false,
      "t": 431008.3333333328,
      "d": 825,
      "v": 124
    },
    {
      "midi": 47,
      "hit": false,
      "t": 431966.6666666661,
      "d": 5575.000000000058,
      "v": 119
    },
    {
      "midi": 62,
      "hit": false,
      "t": 432008.3333333328,
      "d": 2804.166666666686,
      "v": 115
    },
    {
      "midi": 66,
      "hit": false,
      "t": 432008.3333333328,
      "d": 2804.166666666686,
      "v": 127
    },
    {
      "midi": 71,
      "hit": false,
      "t": 432008.3333333328,
      "d": 2804.166666666686,
      "v": 124
    },
    {
      "midi": 54,
      "hit": false,
      "t": 433008.3333333328,
      "d": 4491.666666666686,
      "v": 119
    },
    {
      "midi": 59,
      "hit": false,
      "t": 433916.6666666661,
      "d": 679.1666666666861,
      "v": 106
    },
    {
      "midi": 59,
      "hit": false,
      "t": 434883.3333333328,
      "d": 2504.166666666686,
      "v": 119
    },
    {
      "midi": 83,
      "hit": false,
      "t": 435020.8333333328,
      "d": 2254.166666666686,
      "v": 119
    },
    {
      "midi": 74,
      "hit": false,
      "t": 435020.8333333328,
      "d": 2275,
      "v": 119
    },
    {
      "midi": 78,
      "hit": false,
      "t": 435020.8333333328,
      "d": 2379.166666666686,
      "v": 127
    },
    {
      "midi": 45,
      "hit": false,
      "t": 437937.4999999995,
      "d": 5658.333333333314,
      "v": 124
    },
    {
      "midi": 69,
      "hit": false,
      "t": 437966.66666666616,
      "d": 2866.666666666628,
      "v": 119
    },
    {
      "midi": 61,
      "hit": false,
      "t": 437966.66666666616,
      "d": 2908.333333333314,
      "v": 119
    },
    {
      "midi": 64,
      "hit": false,
      "t": 437966.66666666616,
      "d": 2920.833333333314,
      "v": 127
    },
    {
      "midi": 52,
      "hit": false,
      "t": 438854.16666666616,
      "d": 4533.333333333314,
      "v": 103
    },
    {
      "midi": 57,
      "hit": false,
      "t": 439874.9999999995,
      "d": 783.3333333333139,
      "v": 110
    },
    {
      "midi": 85,
      "hit": false,
      "t": 440874.9999999995,
      "d": 775,
      "v": 106
    },
    {
      "midi": 81,
      "hit": false,
      "t": 440883.3333333328,
      "d": 741.6666666666861,
      "v": 124
    },
    {
      "midi": 90,
      "hit": false,
      "t": 440883.3333333328,
      "d": 754.1666666666861,
      "v": 102
    },
    {
      "midi": 57,
      "hit": false,
      "t": 440924.9999999995,
      "d": 2379.166666666686,
      "v": 115
    },
    {
      "midi": 78,
      "hit": false,
      "t": 441924.9999999995,
      "d": 658.3333333333721,
      "v": 112
    },
    {
      "midi": 85,
      "hit": false,
      "t": 441924.9999999995,
      "d": 658.3333333333721,
      "v": 106
    },
    {
      "midi": 81,
      "hit": false,
      "t": 441937.4999999995,
      "d": 616.6666666666861,
      "v": 119
    },
    {
      "midi": 78,
      "hit": false,
      "t": 442904.16666666616,
      "d": 804.1666666666279,
      "v": 112
    },
    {
      "midi": 73,
      "hit": false,
      "t": 442916.66666666616,
      "d": 816.6666666666279,
      "v": 102
    },
    {
      "midi": 81,
      "hit": false,
      "t": 442937.4999999995,
      "d": 700,
      "v": 127
    },
    {
      "midi": 62,
      "hit": false,
      "t": 443979.1666666661,
      "d": 2733.333333333372,
      "v": 110
    },
    {
      "midi": 71,
      "hit": false,
      "t": 443979.1666666661,
      "d": 2754.166666666686,
      "v": 115
    },
    {
      "midi": 66,
      "hit": false,
      "t": 443979.1666666661,
      "d": 2837.5,
      "v": 119
    },
    {
      "midi": 43,
      "hit": false,
      "t": 443999.9999999994,
      "d": 2345.833333333372,
      "v": 115
    },
    {
      "midi": 50,
      "hit": false,
      "t": 444987.4999999994,
      "d": 1054.166666666686,
      "v": 88
    },
    {
      "midi": 55,
      "hit": false,
      "t": 445987.4999999994,
      "d": 637.5000000000582,
      "v": 93
    },
    {
      "midi": 42,
      "hit": false,
      "t": 446979.1666666661,
      "d": 2274.999999999942,
      "v": 119
    },
    {
      "midi": 61,
      "hit": false,
      "t": 446987.4999999994,
      "d": 2449.999999999942,
      "v": 119
    },
    {
      "midi": 66,
      "hit": false,
      "t": 446987.4999999994,
      "d": 2512.499999999942,
      "v": 124
    },
    {
      "midi": 69,
      "hit": false,
      "t": 446987.4999999994,
      "d": 2587.499999999942,
      "v": 110
    },
    {
      "midi": 49,
      "hit": false,
      "t": 447987.4999999994,
      "d": 1033.333333333314,
      "v": 96
    },
    {
      "midi": 54,
      "hit": false,
      "t": 448987.4999999994,
      "d": 699.9999999999418,
      "v": 90
    },
    {
      "midi": 40,
      "hit": false,
      "t": 449987.49999999936,
      "d": 2179.166666666686,
      "v": 124
    },
    {
      "midi": 71,
      "hit": false,
      "t": 449987.49999999936,
      "d": 2470.833333333372,
      "v": 124
    },
    {
      "midi": 62,
      "hit": false,
      "t": 449987.49999999936,
      "d": 2587.500000000058,
      "v": 124
    },
    {
      "midi": 67,
      "hit": false,
      "t": 449999.99999999936,
      "d": 2720.833333333372,
      "v": 127
    },
    {
      "midi": 47,
      "hit": false,
      "t": 450987.49999999936,
      "d": 1116.666666666686,
      "v": 96
    },
    {
      "midi": 52,
      "hit": false,
      "t": 451987.49999999936,
      "d": 1012.5000000000582,
      "v": 99
    },
    {
      "midi": 62,
      "hit": false,
      "t": 452987.4999999994,
      "d": 2962.5,
      "v": 124
    },
    {
      "midi": 45,
      "hit": false,
      "t": 452987.4999999994,
      "d": 2970.833333333314,
      "v": 119
    },
    {
      "midi": 69,
      "hit": false,
      "t": 452987.4999999994,
      "d": 2970.833333333314,
      "v": 124
    },
    {
      "midi": 67,
      "hit": false,
      "t": 452999.9999999994,
      "d": 2950,
      "v": 127
    },
    {
      "midi": 52,
      "hit": false,
      "t": 453987.4999999994,
      "d": 2004.1666666666279,
      "v": 110
    },
    {
      "midi": 57,
      "hit": false,
      "t": 454987.4999999994,
      "d": 970.8333333333139,
      "v": 103
    },
    {
      "midi": 50,
      "hit": false,
      "t": 456091.66666666605,
      "d": 5866.666666666686,
      "v": 127
    },
    {
      "midi": 38,
      "hit": false,
      "t": 456104.16666666605,
      "d": 5783.333333333372,
      "v": 127
    },
    {
      "midi": 74,
      "hit": false,
      "t": 458987.49999999936,
      "d": 629.1666666666861,
      "v": 127
    },
    {
      "midi": 69,
      "hit": false,
      "t": 458987.49999999936,
      "d": 658.3333333333721,
      "v": 127
    },
    {
      "midi": 78,
      "hit": false,
      "t": 458987.49999999936,
      "d": 754.1666666666861,
      "v": 112
    },
    {
      "midi": 71,
      "hit": false,
      "t": 459945.83333333273,
      "d": 658.3333333333721,
      "v": 119
    },
    {
      "midi": 79,
      "hit": false,
      "t": 459958.33333333273,
      "d": 629.1666666666861,
      "v": 119
    },
    {
      "midi": 74,
      "hit": false,
      "t": 459958.33333333273,
      "d": 720.8333333333721,
      "v": 124
    },
    {
      "midi": 74,
      "hit": false,
      "t": 460924.9999999994,
      "d": 533.3333333333139,
      "v": 127
    },
    {
      "midi": 69,
      "hit": false,
      "t": 460937.4999999994,
      "d": 545.8333333333139,
      "v": 124
    },
    {
      "midi": 78,
      "hit": false,
      "t": 460937.4999999994,
      "d": 545.8333333333139,
      "v": 106
    },
    {
      "midi": 71,
      "hit": false,
      "t": 462029.16666666605,
      "d": 1720.8333333333721,
      "v": 127
    },
    {
      "midi": 62,
      "hit": false,
      "t": 462041.66666666605,
      "d": 1691.666666666686,
      "v": 119
    },
    {
      "midi": 67,
      "hit": false,
      "t": 462041.66666666605,
      "d": 1691.666666666686,
      "v": 127
    },
    {
      "midi": 62,
      "hit": false,
      "t": 463945.83333333273,
      "d": 470.83333333331393,
      "v": 99
    },
    {
      "midi": 67,
      "hit": false,
      "t": 463945.83333333273,
      "d": 554.1666666666279,
      "v": 110
    },
    {
      "midi": 71,
      "hit": false,
      "t": 463958.33333333273,
      "d": 566.6666666666279,
      "v": 106
    },
    {
      "midi": 67,
      "hit": false,
      "t": 464645.8333333327,
      "d": 129.16666666668607,
      "v": 106
    },
    {
      "midi": 64,
      "hit": false,
      "t": 464654.166666666,
      "d": 116.66666666668607,
      "v": 110
    },
    {
      "midi": 72,
      "hit": false,
      "t": 464666.666666666,
      "d": 137.5000000000582,
      "v": 110
    },
    {
      "midi": 67,
      "hit": false,
      "t": 464979.16666666605,
      "d": 2295.833333333372,
      "v": 127
    },
    {
      "midi": 71,
      "hit": false,
      "t": 464979.16666666605,
      "d": 2325.000000000058,
      "v": 127
    },
    {
      "midi": 55,
      "hit": false,
      "t": 465008.33333333273,
      "d": 1929.166666666686,
      "v": 103
    },
    {
      "midi": 43,
      "hit": false,
      "t": 465049.9999999994,
      "d": 2066.666666666686,
      "v": 110
    },
    {
      "midi": 62,
      "hit": false,
      "t": 465083.33333333273,
      "d": 2158.333333333372,
      "v": 127
    },
    {
      "midi": 50,
      "hit": false,
      "t": 467937.4999999994,
      "d": 5866.666666666686,
      "v": 127
    },
    {
      "midi": 38,
      "hit": false,
      "t": 467945.83333333273,
      "d": 5783.333333333372,
      "v": 127
    },
    {
      "midi": 66,
      "hit": false,
      "t": 467987.4999999994,
      "d": 2804.166666666686,
      "v": 97
    },
    {
      "midi": 74,
      "hit": false,
      "t": 467987.4999999994,
      "d": 2845.833333333372,
      "v": 124
    },
    {
      "midi": 69,
      "hit": false,
      "t": 467999.9999999994,
      "d": 2804.166666666686,
      "v": 124
    },
    {
      "midi": 69,
      "hit": false,
      "t": 470987.4999999995,
      "d": 658.3333333333139,
      "v": 127
    },
    {
      "midi": 74,
      "hit": false,
      "t": 470987.4999999995,
      "d": 720.8333333333139,
      "v": 125
    },
    {
      "midi": 78,
      "hit": false,
      "t": 470987.4999999995,
      "d": 754.1666666666279,
      "v": 112
    },
    {
      "midi": 71,
      "hit": false,
      "t": 471945.8333333328,
      "d": 658.3333333333721,
      "v": 119
    },
    {
      "midi": 79,
      "hit": false,
      "t": 471958.3333333328,
      "d": 629.1666666666861,
      "v": 119
    },
    {
      "midi": 74,
      "hit": false,
      "t": 471958.3333333328,
      "d": 720.8333333333721,
      "v": 124
    },
    {
      "midi": 74,
      "hit": false,
      "t": 472924.9999999995,
      "d": 533.3333333333139,
      "v": 127
    },
    {
      "midi": 69,
      "hit": false,
      "t": 472937.4999999995,
      "d": 545.8333333333139,
      "v": 124
    },
    {
      "midi": 78,
      "hit": false,
      "t": 472937.4999999995,
      "d": 545.8333333333139,
      "v": 106
    },
    {
      "midi": 71,
      "hit": false,
      "t": 473966.6666666661,
      "d": 1720.8333333333721,
      "v": 127
    },
    {
      "midi": 62,
      "hit": false,
      "t": 473979.1666666661,
      "d": 1691.666666666686,
      "v": 119
    },
    {
      "midi": 67,
      "hit": false,
      "t": 473979.1666666661,
      "d": 1691.666666666686,
      "v": 127
    },
    {
      "midi": 62,
      "hit": false,
      "t": 475883.3333333328,
      "d": 470.83333333331393,
      "v": 99
    },
    {
      "midi": 67,
      "hit": false,
      "t": 475883.3333333328,
      "d": 554.1666666666279,
      "v": 110
    },
    {
      "midi": 71,
      "hit": false,
      "t": 475895.8333333328,
      "d": 566.6666666666279,
      "v": 106
    },
    {
      "midi": 67,
      "hit": false,
      "t": 476583.33333333273,
      "d": 129.16666666668607,
      "v": 106
    },
    {
      "midi": 64,
      "hit": false,
      "t": 476591.66666666605,
      "d": 116.66666666668607,
      "v": 110
    },
    {
      "midi": 72,
      "hit": false,
      "t": 476604.16666666605,
      "d": 137.5000000000582,
      "v": 110
    },
    {
      "midi": 67,
      "hit": false,
      "t": 476916.6666666661,
      "d": 1908.333333333314,
      "v": 127
    },
    {
      "midi": 71,
      "hit": false,
      "t": 476916.6666666661,
      "d": 1950,
      "v": 127
    },
    {
      "midi": 62,
      "hit": false,
      "t": 477020.8333333328,
      "d": 1783.333333333314,
      "v": 127
    },
    {
      "midi": 43,
      "hit": false,
      "t": 477049.9999999995,
      "d": 2066.6666666665697,
      "v": 110
    },
    {
      "midi": 55,
      "hit": false,
      "t": 477070.8333333328,
      "d": 1929.1666666666279,
      "v": 103
    },
    {
      "midi": 61,
      "hit": false,
      "t": 478999.9999999994,
      "d": 783.3333333333139,
      "v": 127
    },
    {
      "midi": 64,
      "hit": false,
      "t": 478999.9999999994,
      "d": 816.6666666666279,
      "v": 127
    },
    {
      "midi": 69,
      "hit": false,
      "t": 479008.33333333273,
      "d": 825,
      "v": 124
    },
    {
      "midi": 47,
      "hit": false,
      "t": 479966.66666666605,
      "d": 5575.000000000058,
      "v": 119
    },
    {
      "midi": 62,
      "hit": false,
      "t": 480008.33333333273,
      "d": 2804.166666666686,
      "v": 115
    },
    {
      "midi": 66,
      "hit": false,
      "t": 480008.33333333273,
      "d": 2804.166666666686,
      "v": 127
    },
    {
      "midi": 71,
      "hit": false,
      "t": 480008.33333333273,
      "d": 2804.166666666686,
      "v": 124
    },
    {
      "midi": 54,
      "hit": false,
      "t": 481008.33333333273,
      "d": 4491.666666666686,
      "v": 119
    },
    {
      "midi": 59,
      "hit": false,
      "t": 481916.66666666605,
      "d": 679.1666666666861,
      "v": 106
    },
    {
      "midi": 59,
      "hit": false,
      "t": 482883.33333333273,
      "d": 2504.166666666686,
      "v": 119
    },
    {
      "midi": 83,
      "hit": false,
      "t": 483020.83333333273,
      "d": 2254.166666666686,
      "v": 119
    },
    {
      "midi": 74,
      "hit": false,
      "t": 483020.83333333273,
      "d": 2275,
      "v": 119
    },
    {
      "midi": 78,
      "hit": false,
      "t": 483020.83333333273,
      "d": 2379.166666666686,
      "v": 127
    },
    {
      "midi": 45,
      "hit": false,
      "t": 485937.4999999994,
      "d": 5658.333333333314,
      "v": 124
    },
    {
      "midi": 69,
      "hit": false,
      "t": 485966.6666666661,
      "d": 2866.666666666628,
      "v": 119
    },
    {
      "midi": 61,
      "hit": false,
      "t": 485966.6666666661,
      "d": 2908.333333333314,
      "v": 119
    },
    {
      "midi": 64,
      "hit": false,
      "t": 485966.6666666661,
      "d": 2920.833333333314,
      "v": 127
    },
    {
      "midi": 52,
      "hit": false,
      "t": 486854.1666666661,
      "d": 4533.333333333314,
      "v": 103
    },
    {
      "midi": 57,
      "hit": false,
      "t": 487874.9999999994,
      "d": 783.3333333333139,
      "v": 110
    },
    {
      "midi": 85,
      "hit": false,
      "t": 488874.9999999994,
      "d": 775,
      "v": 106
    },
    {
      "midi": 81,
      "hit": false,
      "t": 488883.33333333273,
      "d": 741.6666666666861,
      "v": 124
    },
    {
      "midi": 90,
      "hit": false,
      "t": 488883.33333333273,
      "d": 754.1666666666861,
      "v": 102
    },
    {
      "midi": 57,
      "hit": false,
      "t": 488924.9999999994,
      "d": 2379.166666666686,
      "v": 115
    },
    {
      "midi": 78,
      "hit": false,
      "t": 489924.9999999994,
      "d": 658.3333333333721,
      "v": 112
    },
    {
      "midi": 85,
      "hit": false,
      "t": 489924.9999999994,
      "d": 658.3333333333721,
      "v": 106
    },
    {
      "midi": 81,
      "hit": false,
      "t": 489937.4999999994,
      "d": 616.6666666666861,
      "v": 119
    },
    {
      "midi": 78,
      "hit": false,
      "t": 490904.1666666661,
      "d": 804.1666666666279,
      "v": 112
    },
    {
      "midi": 73,
      "hit": false,
      "t": 490916.6666666661,
      "d": 816.6666666666279,
      "v": 102
    },
    {
      "midi": 81,
      "hit": false,
      "t": 490937.4999999994,
      "d": 700,
      "v": 127
    },
    {
      "midi": 62,
      "hit": false,
      "t": 491979.16666666605,
      "d": 2733.333333333372,
      "v": 110
    },
    {
      "midi": 71,
      "hit": false,
      "t": 491979.16666666605,
      "d": 2754.166666666686,
      "v": 115
    },
    {
      "midi": 66,
      "hit": false,
      "t": 491979.16666666605,
      "d": 2837.5,
      "v": 119
    },
    {
      "midi": 43,
      "hit": false,
      "t": 491999.99999999936,
      "d": 2345.833333333372,
      "v": 115
    },
    {
      "midi": 50,
      "hit": false,
      "t": 492987.49999999936,
      "d": 1054.166666666686,
      "v": 88
    },
    {
      "midi": 55,
      "hit": false,
      "t": 493987.49999999936,
      "d": 637.5000000000582,
      "v": 93
    },
    {
      "midi": 42,
      "hit": false,
      "t": 494979.16666666605,
      "d": 2274.999999999942,
      "v": 119
    },
    {
      "midi": 61,
      "hit": false,
      "t": 494987.49999999936,
      "d": 2449.999999999942,
      "v": 119
    },
    {
      "midi": 66,
      "hit": false,
      "t": 494987.49999999936,
      "d": 2512.499999999942,
      "v": 124
    },
    {
      "midi": 69,
      "hit": false,
      "t": 494987.49999999936,
      "d": 2587.499999999942,
      "v": 110
    },
    {
      "midi": 49,
      "hit": false,
      "t": 495987.49999999936,
      "d": 1033.333333333314,
      "v": 96
    },
    {
      "midi": 54,
      "hit": false,
      "t": 496987.49999999936,
      "d": 699.9999999999418,
      "v": 90
    },
    {
      "midi": 40,
      "hit": false,
      "t": 497987.4999999993,
      "d": 2179.166666666686,
      "v": 124
    },
    {
      "midi": 71,
      "hit": false,
      "t": 497987.4999999993,
      "d": 2470.833333333372,
      "v": 124
    },
    {
      "midi": 62,
      "hit": false,
      "t": 497987.4999999993,
      "d": 2587.500000000058,
      "v": 124
    },
    {
      "midi": 67,
      "hit": false,
      "t": 497999.9999999993,
      "d": 2720.833333333372,
      "v": 127
    },
    {
      "midi": 47,
      "hit": false,
      "t": 498987.4999999993,
      "d": 1116.666666666686,
      "v": 96
    },
    {
      "midi": 52,
      "hit": false,
      "t": 499987.4999999993,
      "d": 1012.5000000000582,
      "v": 99
    },
    {
      "midi": 62,
      "hit": false,
      "t": 500987.49999999936,
      "d": 2962.5,
      "v": 124
    },
    {
      "midi": 45,
      "hit": false,
      "t": 500987.49999999936,
      "d": 2970.833333333314,
      "v": 119
    },
    {
      "midi": 69,
      "hit": false,
      "t": 500987.49999999936,
      "d": 2970.833333333314,
      "v": 124
    },
    {
      "midi": 67,
      "hit": false,
      "t": 500999.99999999936,
      "d": 2950,
      "v": 127
    },
    {
      "midi": 52,
      "hit": false,
      "t": 501987.49999999936,
      "d": 2004.1666666666279,
      "v": 110
    },
    {
      "midi": 57,
      "hit": false,
      "t": 502987.49999999936,
      "d": 970.8333333333139,
      "v": 103
    },
    {
      "midi": 38,
      "hit": false,
      "t": 503999.9999999993,
      "d": 6054.166666666686,
      "v": 110
    },
    {
      "midi": 62,
      "hit": false,
      "t": 504008.3333333326,
      "d": 2754.166666666686,
      "v": 119
    },
    {
      "midi": 57,
      "hit": false,
      "t": 504020.8333333326,
      "d": 2991.666666666686,
      "v": 119
    },
    {
      "midi": 54,
      "hit": false,
      "t": 504020.8333333326,
      "d": 5137.500000000058,
      "v": 97
    },
    {
      "midi": 64,
      "hit": false,
      "t": 506987.4999999993,
      "d": 1116.666666666686,
      "v": 115
    },
    {
      "midi": 62,
      "hit": false,
      "t": 507999.9999999993,
      "d": 1066.666666666686,
      "v": 115
    },
    {
      "midi": 57,
      "hit": false,
      "t": 508966.666666666,
      "d": 691.6666666666861,
      "v": 85
    },
    {
      "midi": 62,
      "hit": false,
      "t": 509904.166666666,
      "d": 2712.5,
      "v": 110
    },
    {
      "midi": 59,
      "hit": false,
      "t": 509916.666666666,
      "d": 2637.5,
      "v": 110
    },
    {
      "midi": 55,
      "hit": false,
      "t": 509924.9999999993,
      "d": 2429.166666666686,
      "v": 103
    },
    {
      "midi": 43,
      "hit": false,
      "t": 509937.4999999993,
      "d": 3075,
      "v": 106
    },
    {
      "midi": 61,
      "hit": false,
      "t": 512979.166666666,
      "d": 1316.6666666666279,
      "v": 93
    },
    {
      "midi": 57,
      "hit": false,
      "t": 512987.4999999993,
      "d": 637.5,
      "v": 115
    },
    {
      "midi": 52,
      "hit": false,
      "t": 512987.4999999993,
      "d": 2637.5,
      "v": 96
    },
    {
      "midi": 45,
      "hit": false,
      "t": 512999.9999999993,
      "d": 2595.833333333314,
      "v": 96
    },
    {
      "midi": 57,
      "hit": false,
      "t": 514008.3333333326,
      "d": 1650,
      "v": 110
    },
    {
      "midi": 61,
      "hit": false,
      "t": 514895.8333333326,
      "d": 775,
      "v": 112
    },
    {
      "midi": 38,
      "hit": false,
      "t": 516020.8333333326,
      "d": 5650,
      "v": 115
    },
    {
      "midi": 62,
      "hit": false,
      "t": 516049.9999999993,
      "d": 5587.5,
      "v": 115
    },
    {
      "midi": 57,
      "hit": false,
      "t": 516062.4999999993,
      "d": 2741.666666666686,
      "v": 119
    },
    {
      "midi": 54,
      "hit": false,
      "t": 516062.4999999993,
      "d": 5575,
      "v": 102
    },
    {
      "midi": 50,
      "hit": false,
      "t": 518874.9999999993,
      "d": 2712.5,
      "v": 115
    },
    {
      "midi": 57,
      "hit": false,
      "t": 519799.9999999993,
      "d": 1825,
      "v": 119
    },
    {
      "midi": 43,
      "hit": false,
      "t": 522041.66666666593,
      "d": 2887.5,
      "v": 127
    },
    {
      "midi": 59,
      "hit": false,
      "t": 522091.66666666593,
      "d": 3587.5,
      "v": 127
    },
    {
      "midi": 55,
      "hit": false,
      "t": 522091.66666666593,
      "d": 3637.5,
      "v": 124
    },
    {
      "midi": 62,
      "hit": false,
      "t": 522104.16666666593,
      "d": 3712.5,
      "v": 119
    },
    {
      "midi": 45,
      "hit": false,
      "t": 524883.3333333326,
      "d": 3054.1666666667443,
      "v": 127
    },
    {
      "midi": 57,
      "hit": false,
      "t": 525883.3333333326,
      "d": 2087.5000000001164,
      "v": 96
    },
    {
      "midi": 61,
      "hit": false,
      "t": 525904.1666666659,
      "d": 2075.0000000001164,
      "v": 85
    },
    {
      "midi": 52,
      "hit": false,
      "t": 526916.6666666659,
      "d": 1066.6666666667443,
      "v": 110
    },
    {
      "midi": 57,
      "hit": false,
      "t": 527999.9999999993,
      "d": 4.166666666627862,
      "v": 119
    },
    {
      "midi": 54,
      "hit": false,
      "t": 527999.9999999993,
      "d": 1929.1666666666279,
      "v": 93
    },
    {
      "midi": 62,
      "hit": false,
      "t": 527999.9999999993,
      "d": 2004.1666666666279,
      "v": 115
    },
    {
      "midi": 38,
      "hit": false,
      "t": 527999.9999999993,
      "d": 6033.333333333372,
      "v": 99
    },
    {
      "midi": 57,
      "hit": false,
      "t": 528937.4999999993,
      "d": 962.5,
      "v": 96
    },
    {
      "midi": 50,
      "hit": false,
      "t": 529820.8333333327,
      "d": 4024.9999999998836,
      "v": 96
    },
    {
      "midi": 57,
      "hit": false,
      "t": 530904.1666666659,
      "d": 3012.5,
      "v": 110
    },
    {
      "midi": 62,
      "hit": false,
      "t": 530916.6666666659,
      "d": 1075,
      "v": 119
    },
    {
      "midi": 64,
      "hit": false,
      "t": 531854.1666666659,
      "d": 1150,
      "v": 110
    },
    {
      "midi": 66,
      "hit": false,
      "t": 532874.9999999993,
      "d": 1087.5,
      "v": 97
    },
    {
      "midi": 43,
      "hit": false,
      "t": 534049.9999999993,
      "d": 2887.5,
      "v": 103
    },
    {
      "midi": 57,
      "hit": false,
      "t": 534062.4999999993,
      "d": 679.1666666667443,
      "v": 93
    },
    {
      "midi": 59,
      "hit": false,
      "t": 534070.8333333327,
      "d": 2908.333333333372,
      "v": 99
    },
    {
      "midi": 62,
      "hit": false,
      "t": 534083.3333333327,
      "d": 2887.5,
      "v": 96
    },
    {
      "midi": 57,
      "hit": false,
      "t": 535133.3333333327,
      "d": 962.5,
      "v": 127
    },
    {
      "midi": 55,
      "hit": false,
      "t": 536049.9999999993,
      "d": 908.3333333333721,
      "v": 106
    },
    {
      "midi": 57,
      "hit": false,
      "t": 537049.9999999994,
      "d": 2920.8333333334886,
      "v": 127
    },
    {
      "midi": 45,
      "hit": false,
      "t": 537062.4999999994,
      "d": 2879.1666666667443,
      "v": 127
    },
    {
      "midi": 62,
      "hit": false,
      "t": 537062.4999999994,
      "d": 2887.5000000001164,
      "v": 124
    },
    {
      "midi": 59,
      "hit": false,
      "t": 537070.8333333328,
      "d": 2900.0000000001164,
      "v": 127
    },
    {
      "midi": 50,
      "hit": false,
      "t": 541562.4999999995,
      "d": 700,
      "v": 99
    },
    {
      "midi": 57,
      "hit": false,
      "t": 541716.6666666662,
      "d": 533.3333333333721,
      "v": 115
    },
    {
      "midi": 62,
      "hit": false,
      "t": 541874.9999999995,
      "d": 158.33333333337214,
      "v": 96
    },
    {
      "midi": 64,
      "hit": false,
      "t": 541999.9999999995,
      "d": 108.33333333337214,
      "v": 110
    },
    {
      "midi": 66,
      "hit": false,
      "t": 542112.4999999995,
      "d": 108.33333333337214,
      "v": 93
    },
    {
      "midi": 62,
      "hit": false,
      "t": 542249.9999999995,
      "d": 200,
      "v": 106
    },
    {
      "midi": 78,
      "hit": false,
      "t": 542362.4999999995,
      "d": 95.83333333337214,
      "v": 82
    },
    {
      "midi": 74,
      "hit": false,
      "t": 542508.3333333329,
      "d": 137.5,
      "v": 115
    },
    {
      "midi": 81,
      "hit": false,
      "t": 542654.1666666663,
      "d": 129.16666666662786,
      "v": 106
    },
    {
      "midi": 78,
      "hit": false,
      "t": 542791.6666666663,
      "d": 75,
      "v": 89
    },
    {
      "midi": 86,
      "hit": false,
      "t": 542916.6666666663,
      "d": 87.5,
      "v": 119
    },
    {
      "midi": 81,
      "hit": false,
      "t": 543062.4999999997,
      "d": 54.16666666662786,
      "v": 90
    },
    {
      "midi": 90,
      "hit": false,
      "t": 543174.9999999997,
      "d": 45.83333333337214,
      "v": 89
    },
    {
      "midi": 86,
      "hit": false,
      "t": 543320.833333333,
      "d": 116.66666666662786,
      "v": 103
    },
    {
      "midi": 93,
      "hit": false,
      "t": 543458.333333333,
      "d": 137.5,
      "v": 96
    },
    {
      "midi": 90,
      "hit": false,
      "t": 543604.1666666664,
      "d": 66.66666666662786,
      "v": 89
    },
    {
      "midi": 98,
      "hit": false,
      "t": 543737.4999999997,
      "d": 87.5,
      "v": 77
    },
    {
      "midi": 102,
      "hit": false,
      "t": 543924.9999999997,
      "d": 150,
      "v": 79
    },
    {
      "midi": 105,
      "hit": false,
      "t": 544249.9999999997,
      "d": 158.33333333337214,
      "v": 83
    }
  ]
}