{
  "jsonPath": "Rock/Derby Indie/White Town/your-woman.json",
  "path": "Rock\\Derby Indie\\White Town\\Your Woman.mid",
  "name": "Your Woman",
  "difficulty": "Advanced",
  "bpm": 100,
  "notes": [
    {
      "midi": 62,
      "hit": false,
      "t": 44081.24399999999,
      "d": 822.696828125001,
      "v": 72
    },
    {
      "midi": 55,
      "hit": false,
      "t": 44081.24399999999,
      "d": 835.4518177083373,
      "v": 74
    },
    {
      "midi": 70,
      "hit": false,
      "t": 44081.24399999999,
      "d": 835.4518177083373,
      "v": 78
    },
    {
      "midi": 67,
      "hit": false,
      "t": 44081.24399999999,
      "d": 848.2068072916736,
      "v": 80
    },
    {
      "midi": 70,
      "hit": false,
      "t": 45305.723,
      "d": 459.17962499999703,
      "v": 81
    },
    {
      "midi": 62,
      "hit": false,
      "t": 45305.723,
      "d": 478.3121093749942,
      "v": 83
    },
    {
      "midi": 67,
      "hit": false,
      "t": 45305.723,
      "d": 478.3121093749942,
      "v": 86
    },
    {
      "midi": 63,
      "hit": false,
      "t": 45917.962499999994,
      "d": 1390.293864583342,
      "v": 78
    },
    {
      "midi": 67,
      "hit": false,
      "t": 45917.962499999994,
      "d": 1422.1813385416754,
      "v": 80
    },
    {
      "midi": 70,
      "hit": false,
      "t": 45917.962499999994,
      "d": 1422.1813385416754,
      "v": 61
    },
    {
      "midi": 51,
      "hit": false,
      "t": 46530.202,
      "d": 293.364760416669,
      "v": 48
    },
    {
      "midi": 51,
      "hit": false,
      "t": 47142.4415,
      "d": 688.7694375000065,
      "v": 61
    },
    {
      "midi": 63,
      "hit": false,
      "t": 47754.681000000004,
      "d": 695.1469322916673,
      "v": 90
    },
    {
      "midi": 67,
      "hit": false,
      "t": 47754.681000000004,
      "d": 720.6569114583326,
      "v": 94
    },
    {
      "midi": 70,
      "hit": false,
      "t": 47754.681000000004,
      "d": 727.0344062500008,
      "v": 85
    },
    {
      "midi": 48,
      "hit": false,
      "t": 48979.16,
      "d": 758.9218802083342,
      "v": 67
    },
    {
      "midi": 63,
      "hit": false,
      "t": 50203.639,
      "d": 1294.6314427083344,
      "v": 86
    },
    {
      "midi": 72,
      "hit": false,
      "t": 50203.639,
      "d": 1358.4063906250012,
      "v": 85
    },
    {
      "midi": 67,
      "hit": false,
      "t": 50203.639,
      "d": 1396.6713593750028,
      "v": 86
    },
    {
      "midi": 48,
      "hit": false,
      "t": 51121.998250000004,
      "d": 280.60977083333273,
      "v": 62
    },
    {
      "midi": 53,
      "hit": false,
      "t": 51428.118,
      "d": 261.4772864583356,
      "v": 73
    },
    {
      "midi": 65,
      "hit": false,
      "t": 51734.23775000001,
      "d": 127.54989583333372,
      "v": 79
    },
    {
      "midi": 60,
      "hit": false,
      "t": 51734.23775000001,
      "d": 133.92739062500186,
      "v": 71
    },
    {
      "midi": 69,
      "hit": false,
      "t": 51734.23775000001,
      "d": 172.19235937500343,
      "v": 70
    },
    {
      "midi": 53,
      "hit": false,
      "t": 52040.35750000001,
      "d": 618.6169947916715,
      "v": 78
    },
    {
      "midi": 60,
      "hit": false,
      "t": 52652.597000000016,
      "d": 867.3392916666708,
      "v": 77
    },
    {
      "midi": 69,
      "hit": false,
      "t": 52652.597000000016,
      "d": 905.6042604166723,
      "v": 85
    },
    {
      "midi": 65,
      "hit": false,
      "t": 52652.597000000016,
      "d": 963.001713541671,
      "v": 98
    },
    {
      "midi": 53,
      "hit": false,
      "t": 53264.83650000002,
      "d": 561.2195416666655,
      "v": 60
    },
    {
      "midi": 70,
      "hit": false,
      "t": 53877.076000000015,
      "d": 880.0942812499998,
      "v": 69
    },
    {
      "midi": 62,
      "hit": false,
      "t": 53877.076000000015,
      "d": 886.4717760416679,
      "v": 67
    },
    {
      "midi": 67,
      "hit": false,
      "t": 53877.076000000015,
      "d": 892.849270833336,
      "v": 83
    },
    {
      "midi": 55,
      "hit": false,
      "t": 53877.076000000015,
      "d": 1983.4008802083335,
      "v": 68
    },
    {
      "midi": 70,
      "hit": false,
      "t": 55101.555000000015,
      "d": 478.31210937500146,
      "v": 72
    },
    {
      "midi": 62,
      "hit": false,
      "t": 55101.555000000015,
      "d": 484.6896041666696,
      "v": 79
    },
    {
      "midi": 67,
      "hit": false,
      "t": 55101.555000000015,
      "d": 491.06709895833774,
      "v": 81
    },
    {
      "midi": 63,
      "hit": false,
      "t": 55713.79450000002,
      "d": 1479.5787916666595,
      "v": 74
    },
    {
      "midi": 67,
      "hit": false,
      "t": 55713.79450000002,
      "d": 1524.2212552083292,
      "v": 76
    },
    {
      "midi": 70,
      "hit": false,
      "t": 55713.79450000002,
      "d": 1536.9762447916655,
      "v": 57
    },
    {
      "midi": 51,
      "hit": false,
      "t": 56326.034000000014,
      "d": 1269.121463541669,
      "v": 85
    },
    {
      "midi": 63,
      "hit": false,
      "t": 57550.51300000001,
      "d": 1211.7240104166704,
      "v": 82
    },
    {
      "midi": 70,
      "hit": false,
      "t": 57550.51300000001,
      "d": 1218.1015052083385,
      "v": 73
    },
    {
      "midi": 67,
      "hit": false,
      "t": 57550.51300000001,
      "d": 1230.8564947916748,
      "v": 78
    },
    {
      "midi": 48,
      "hit": false,
      "t": 58774.99200000002,
      "d": 344.3847187499996,
      "v": 64
    },
    {
      "midi": 48,
      "hit": false,
      "t": 59387.231500000016,
      "d": 637.7494791666686,
      "v": 65
    },
    {
      "midi": 63,
      "hit": false,
      "t": 59999.47100000002,
      "d": 1090.5516093750048,
      "v": 76
    },
    {
      "midi": 72,
      "hit": false,
      "t": 59999.47100000002,
      "d": 1243.6114843750038,
      "v": 79
    },
    {
      "midi": 67,
      "hit": false,
      "t": 59999.47100000002,
      "d": 1313.7639270833388,
      "v": 82
    },
    {
      "midi": 48,
      "hit": false,
      "t": 60917.83025000002,
      "d": 280.60977083334,
      "v": 61
    },
    {
      "midi": 53,
      "hit": false,
      "t": 61223.950000000026,
      "d": 363.51720312499674,
      "v": 70
    },
    {
      "midi": 60,
      "hit": false,
      "t": 61530.069750000024,
      "d": 121.17240104166558,
      "v": 68
    },
    {
      "midi": 65,
      "hit": false,
      "t": 61530.069750000024,
      "d": 140.30488541666273,
      "v": 83
    },
    {
      "midi": 69,
      "hit": false,
      "t": 61530.069750000024,
      "d": 153.059874999999,
      "v": 80
    },
    {
      "midi": 53,
      "hit": false,
      "t": 61836.18950000002,
      "d": 1014.0216718750016,
      "v": 73
    },
    {
      "midi": 60,
      "hit": false,
      "t": 62448.429000000026,
      "d": 924.7367447916622,
      "v": 69
    },
    {
      "midi": 69,
      "hit": false,
      "t": 62448.429000000026,
      "d": 937.4917343749985,
      "v": 73
    },
    {
      "midi": 65,
      "hit": false,
      "t": 62448.429000000026,
      "d": 1033.1541562499988,
      "v": 82
    },
    {
      "midi": 53,
      "hit": false,
      "t": 63060.66850000002,
      "d": 599.484510416667,
      "v": 64
    },
    {
      "midi": 62,
      "hit": false,
      "t": 63672.908000000025,
      "d": 899.2267656249969,
      "v": 66
    },
    {
      "midi": 70,
      "hit": false,
      "t": 63672.908000000025,
      "d": 899.2267656249969,
      "v": 70
    },
    {
      "midi": 67,
      "hit": false,
      "t": 63672.908000000025,
      "d": 937.4917343749985,
      "v": 80
    },
    {
      "midi": 55,
      "hit": false,
      "t": 63672.908000000025,
      "d": 1224.4789999999994,
      "v": 69
    },
    {
      "midi": 62,
      "hit": false,
      "t": 64897.387000000024,
      "d": 395.40467708333017,
      "v": 73
    },
    {
      "midi": 70,
      "hit": false,
      "t": 64897.387000000024,
      "d": 401.7821718749983,
      "v": 66
    },
    {
      "midi": 67,
      "hit": false,
      "t": 64897.387000000024,
      "d": 427.2921510416636,
      "v": 71
    },
    {
      "midi": 55,
      "hit": false,
      "t": 65509.62650000002,
      "d": 191.3248437499933,
      "v": 58
    },
    {
      "midi": 63,
      "hit": false,
      "t": 65509.62650000002,
      "d": 1479.5787916666523,
      "v": 76
    },
    {
      "midi": 67,
      "hit": false,
      "t": 65509.62650000002,
      "d": 1485.9562864583204,
      "v": 79
    },
    {
      "midi": 70,
      "hit": false,
      "t": 65509.62650000002,
      "d": 1498.7112760416567,
      "v": 62
    },
    {
      "midi": 51,
      "hit": false,
      "t": 66121.86600000001,
      "d": 1230.8564947916748,
      "v": 78
    },
    {
      "midi": 67,
      "hit": false,
      "t": 67346.34500000002,
      "d": 644.1269739583222,
      "v": 79
    },
    {
      "midi": 63,
      "hit": false,
      "t": 67346.34500000002,
      "d": 663.2594583333266,
      "v": 79
    },
    {
      "midi": 70,
      "hit": false,
      "t": 67346.34500000002,
      "d": 682.391942708331,
      "v": 71
    },
    {
      "midi": 51,
      "hit": false,
      "t": 67958.58450000001,
      "d": 522.9545729166712,
      "v": 41
    },
    {
      "midi": 48,
      "hit": false,
      "t": 68570.82400000002,
      "d": 357.1397083333286,
      "v": 65
    },
    {
      "midi": 48,
      "hit": false,
      "t": 69183.06350000002,
      "d": 522.9545729166712,
      "v": 66
    },
    {
      "midi": 63,
      "hit": false,
      "t": 69795.30300000003,
      "d": 1205.3465156249877,
      "v": 71
    },
    {
      "midi": 72,
      "hit": false,
      "t": 69795.30300000003,
      "d": 1224.478999999992,
      "v": 77
    },
    {
      "midi": 67,
      "hit": false,
      "t": 69795.30300000003,
      "d": 1345.6514010416577,
      "v": 81
    },
    {
      "midi": 48,
      "hit": false,
      "t": 70713.66225000002,
      "d": 312.49724479166616,
      "v": 61
    },
    {
      "midi": 53,
      "hit": false,
      "t": 71019.78200000002,
      "d": 1198.969020833334,
      "v": 69
    },
    {
      "midi": 65,
      "hit": false,
      "t": 71325.90175000002,
      "d": 133.92739062500186,
      "v": 77
    },
    {
      "midi": 60,
      "hit": false,
      "t": 71325.90175000002,
      "d": 146.68238020833815,
      "v": 68
    },
    {
      "midi": 69,
      "hit": false,
      "t": 71325.90175000002,
      "d": 191.32484375000058,
      "v": 70
    },
    {
      "midi": 60,
      "hit": false,
      "t": 72244.26100000003,
      "d": 848.2068072916591,
      "v": 69
    },
    {
      "midi": 69,
      "hit": false,
      "t": 72244.26100000003,
      "d": 860.9617968749953,
      "v": 78
    },
    {
      "midi": 65,
      "hit": false,
      "t": 72244.26100000003,
      "d": 937.4917343749985,
      "v": 81
    },
    {
      "midi": 53,
      "hit": false,
      "t": 72856.50050000002,
      "d": 573.9745312500017,
      "v": 60
    },
    {
      "midi": 62,
      "hit": false,
      "t": 73468.74000000002,
      "d": 963.001713541671,
      "v": 70
    },
    {
      "midi": 70,
      "hit": false,
      "t": 73468.74000000002,
      "d": 963.001713541671,
      "v": 61
    },
    {
      "midi": 67,
      "hit": false,
      "t": 73468.74000000002,
      "d": 975.7567031250073,
      "v": 78
    },
    {
      "midi": 55,
      "hit": false,
      "t": 73468.74000000002,
      "d": 1715.546098958337,
      "v": 63
    },
    {
      "midi": 70,
      "hit": false,
      "t": 74693.21900000003,
      "d": 338.0072239583387,
      "v": 64
    },
    {
      "midi": 62,
      "hit": false,
      "t": 74693.21900000003,
      "d": 369.8946979166649,
      "v": 74
    },
    {
      "midi": 67,
      "hit": false,
      "t": 74693.21900000003,
      "d": 382.64968750000116,
      "v": 72
    },
    {
      "midi": 63,
      "hit": false,
      "t": 75305.45850000002,
      "d": 1505.088770833332,
      "v": 70
    },
    {
      "midi": 67,
      "hit": false,
      "t": 75305.45850000002,
      "d": 1536.9762447916582,
      "v": 66
    },
    {
      "midi": 70,
      "hit": false,
      "t": 75305.45850000002,
      "d": 1562.4862239583308,
      "v": 57
    },
    {
      "midi": 51,
      "hit": false,
      "t": 75917.69800000002,
      "d": 1600.7511927083397,
      "v": 65
    },
    {
      "midi": 63,
      "hit": false,
      "t": 77142.17700000003,
      "d": 676.0144479166629,
      "v": 85
    },
    {
      "midi": 67,
      "hit": false,
      "t": 77142.17700000003,
      "d": 695.1469322916673,
      "v": 87
    },
    {
      "midi": 70,
      "hit": false,
      "t": 77142.17700000003,
      "d": 727.0344062499935,
      "v": 70
    },
    {
      "midi": 48,
      "hit": false,
      "t": 78366.65600000002,
      "d": 1772.9435520833358,
      "v": 59
    },
    {
      "midi": 63,
      "hit": false,
      "t": 79591.13500000002,
      "d": 1192.591526041666,
      "v": 72
    },
    {
      "midi": 72,
      "hit": false,
      "t": 79591.13500000002,
      "d": 1205.3465156250022,
      "v": 81
    },
    {
      "midi": 67,
      "hit": false,
      "t": 79591.13500000002,
      "d": 1371.1613802083448,
      "v": 80
    },
    {
      "midi": 48,
      "hit": false,
      "t": 80509.49425000002,
      "d": 306.1197500000126,
      "v": 59
    },
    {
      "midi": 53,
      "hit": false,
      "t": 80815.61400000003,
      "d": 758.9218802083342,
      "v": 64
    },
    {
      "midi": 65,
      "hit": false,
      "t": 81121.73375000003,
      "d": 127.54989583333372,
      "v": 78
    },
    {
      "midi": 60,
      "hit": false,
      "t": 81121.73375000003,
      "d": 140.30488541667,
      "v": 72
    },
    {
      "midi": 69,
      "hit": false,
      "t": 81121.73375000003,
      "d": 172.19235937499616,
      "v": 75
    },
    {
      "midi": 60,
      "hit": false,
      "t": 82040.09300000004,
      "d": 841.8293124999909,
      "v": 74
    },
    {
      "midi": 69,
      "hit": false,
      "t": 82040.09300000004,
      "d": 867.3392916666635,
      "v": 75
    },
    {
      "midi": 65,
      "hit": false,
      "t": 82040.09300000004,
      "d": 931.1142395833303,
      "v": 84
    },
    {
      "midi": 53,
      "hit": false,
      "t": 82652.33250000003,
      "d": 593.1070156250062,
      "v": 61
    },
    {
      "midi": 70,
      "hit": false,
      "t": 83264.57200000004,
      "d": 911.9817552083405,
      "v": 58
    },
    {
      "midi": 62,
      "hit": false,
      "t": 83264.57200000004,
      "d": 937.491734375013,
      "v": 65
    },
    {
      "midi": 67,
      "hit": false,
      "t": 83264.57200000004,
      "d": 950.2467239583493,
      "v": 78
    },
    {
      "midi": 55,
      "hit": false,
      "t": 83264.57200000004,
      "d": 1843.0959947917,
      "v": 62
    },
    {
      "midi": 70,
      "hit": false,
      "t": 84489.05100000006,
      "d": 267.8547812500037,
      "v": 62
    },
    {
      "midi": 62,
      "hit": false,
      "t": 84489.05100000006,
      "d": 293.3647604166763,
      "v": 69
    },
    {
      "midi": 67,
      "hit": false,
      "t": 84489.05100000006,
      "d": 331.6297291666706,
      "v": 78
    },
    {
      "midi": 63,
      "hit": false,
      "t": 85101.29050000008,
      "d": 1505.088770833332,
      "v": 63
    },
    {
      "midi": 67,
      "hit": false,
      "t": 85101.29050000008,
      "d": 1536.9762447916582,
      "v": 73
    },
    {
      "midi": 70,
      "hit": false,
      "t": 85101.29050000008,
      "d": 1562.4862239583308,
      "v": 61
    },
    {
      "midi": 51,
      "hit": false,
      "t": 85713.53000000007,
      "d": 1639.016161458334,
      "v": 54
    },
    {
      "midi": 63,
      "hit": false,
      "t": 86938.00900000008,
      "d": 975.7567031249928,
      "v": 72
    },
    {
      "midi": 70,
      "hit": false,
      "t": 86938.00900000008,
      "d": 1001.2666822916653,
      "v": 66
    },
    {
      "midi": 67,
      "hit": false,
      "t": 86938.00900000008,
      "d": 1020.3991666666698,
      "v": 84
    },
    {
      "midi": 48,
      "hit": false,
      "t": 88162.48800000008,
      "d": 1301.0089374999952,
      "v": 53
    },
    {
      "midi": 63,
      "hit": false,
      "t": 88774.72750000008,
      "d": 682.391942708331,
      "v": 77
    },
    {
      "midi": 67,
      "hit": false,
      "t": 88774.72750000008,
      "d": 701.5244270833355,
      "v": 75
    },
    {
      "midi": 72,
      "hit": false,
      "t": 88774.72750000008,
      "d": 733.4119010416616,
      "v": 71
    },
    {
      "midi": 63,
      "hit": false,
      "t": 89693.08675000007,
      "d": 446.424635416668,
      "v": 78
    },
    {
      "midi": 72,
      "hit": false,
      "t": 89693.08675000007,
      "d": 459.1796250000043,
      "v": 71
    },
    {
      "midi": 67,
      "hit": false,
      "t": 89693.08675000007,
      "d": 586.729520833338,
      "v": 79
    },
    {
      "midi": 48,
      "hit": false,
      "t": 90305.32625000009,
      "d": 293.36476041666174,
      "v": 63
    },
    {
      "midi": 53,
      "hit": false,
      "t": 90611.44600000008,
      "d": 1211.7240104166704,
      "v": 62
    },
    {
      "midi": 60,
      "hit": false,
      "t": 90917.56575000008,
      "d": 146.68238020833815,
      "v": 69
    },
    {
      "midi": 65,
      "hit": false,
      "t": 90917.56575000008,
      "d": 153.0598750000063,
      "v": 87
    },
    {
      "midi": 69,
      "hit": false,
      "t": 90917.56575000008,
      "d": 191.32484375000058,
      "v": 70
    },
    {
      "midi": 60,
      "hit": false,
      "t": 91835.92500000009,
      "d": 867.3392916666635,
      "v": 76
    },
    {
      "midi": 69,
      "hit": false,
      "t": 91835.92500000009,
      "d": 886.4717760416679,
      "v": 78
    },
    {
      "midi": 65,
      "hit": false,
      "t": 91835.92500000009,
      "d": 969.3792083333392,
      "v": 89
    },
    {
      "midi": 53,
      "hit": false,
      "t": 92448.16450000009,
      "d": 599.4845104166743,
      "v": 58
    },
    {
      "midi": 70,
      "hit": false,
      "t": 93060.4040000001,
      "d": 931.1142395833303,
      "v": 71
    },
    {
      "midi": 62,
      "hit": false,
      "t": 93060.4040000001,
      "d": 937.4917343749985,
      "v": 69
    },
    {
      "midi": 67,
      "hit": false,
      "t": 93060.4040000001,
      "d": 937.4917343749985,
      "v": 83
    },
    {
      "midi": 55,
      "hit": false,
      "t": 93060.4040000001,
      "d": 2053.5533229166613,
      "v": 55
    },
    {
      "midi": 70,
      "hit": false,
      "t": 94284.88300000009,
      "d": 331.6297291666706,
      "v": 70
    },
    {
      "midi": 67,
      "hit": false,
      "t": 94284.88300000009,
      "d": 369.8946979166649,
      "v": 75
    },
    {
      "midi": 62,
      "hit": false,
      "t": 94284.88300000009,
      "d": 376.272192708333,
      "v": 77
    },
    {
      "midi": 63,
      "hit": false,
      "t": 94897.12250000008,
      "d": 1434.9363281250116,
      "v": 67
    },
    {
      "midi": 67,
      "hit": false,
      "t": 94897.12250000008,
      "d": 1454.068812500016,
      "v": 74
    },
    {
      "midi": 70,
      "hit": false,
      "t": 94897.12250000008,
      "d": 1473.2012968750205,
      "v": 65
    },
    {
      "midi": 51,
      "hit": false,
      "t": 95509.3620000001,
      "d": 1332.896411458336,
      "v": 57
    },
    {
      "midi": 67,
      "hit": false,
      "t": 96733.8410000001,
      "d": 950.2467239583348,
      "v": 79
    },
    {
      "midi": 63,
      "hit": false,
      "t": 96733.8410000001,
      "d": 988.5116927083291,
      "v": 80
    },
    {
      "midi": 70,
      "hit": false,
      "t": 96733.8410000001,
      "d": 1020.3991666666552,
      "v": 63
    },
    {
      "midi": 51,
      "hit": false,
      "t": 97346.0805000001,
      "d": 586.7295208333235,
      "v": 56
    },
    {
      "midi": 48,
      "hit": false,
      "t": 97958.3200000001,
      "d": 1772.9435520833358,
      "v": 65
    },
    {
      "midi": 63,
      "hit": false,
      "t": 98570.55950000009,
      "d": 140.30488541667,
      "v": 77
    },
    {
      "midi": 67,
      "hit": false,
      "t": 98570.55950000009,
      "d": 159.43736979167443,
      "v": 85
    },
    {
      "midi": 72,
      "hit": false,
      "t": 98570.55950000009,
      "d": 159.43736979167443,
      "v": 77
    },
    {
      "midi": 63,
      "hit": false,
      "t": 99488.9187500001,
      "d": 586.729520833338,
      "v": 83
    },
    {
      "midi": 72,
      "hit": false,
      "t": 99488.9187500001,
      "d": 593.1070156250062,
      "v": 73
    },
    {
      "midi": 67,
      "hit": false,
      "t": 99488.9187500001,
      "d": 695.1469322916819,
      "v": 75
    },
    {
      "midi": 48,
      "hit": false,
      "t": 100101.15825000011,
      "d": 331.6297291666706,
      "v": 66
    },
    {
      "midi": 60,
      "hit": false,
      "t": 100407.27800000011,
      "d": 676.0144479166775,
      "v": 78
    },
    {
      "midi": 65,
      "hit": false,
      "t": 100407.27800000011,
      "d": 682.3919427083456,
      "v": 83
    },
    {
      "midi": 69,
      "hit": false,
      "t": 100407.27800000011,
      "d": 688.7694375000137,
      "v": 81
    },
    {
      "midi": 53,
      "hit": false,
      "t": 100407.27800000011,
      "d": 1619.883677083344,
      "v": 64
    },
    {
      "midi": 65,
      "hit": false,
      "t": 101325.63725000012,
      "d": 127.54989583333372,
      "v": 79
    },
    {
      "midi": 60,
      "hit": false,
      "t": 101325.63725000012,
      "d": 140.30488541667,
      "v": 72
    },
    {
      "midi": 69,
      "hit": false,
      "t": 101325.63725000012,
      "d": 153.0598750000063,
      "v": 79
    },
    {
      "midi": 60,
      "hit": false,
      "t": 102243.99650000012,
      "d": 312.49724479166616,
      "v": 72
    },
    {
      "midi": 69,
      "hit": false,
      "t": 102243.99650000012,
      "d": 338.0072239583387,
      "v": 80
    },
    {
      "midi": 65,
      "hit": false,
      "t": 102243.99650000012,
      "d": 414.53716145834187,
      "v": 87
    },
    {
      "midi": 53,
      "hit": false,
      "t": 102243.99650000012,
      "d": 554.8420468750119,
      "v": 62
    },
    {
      "midi": 62,
      "hit": false,
      "t": 102856.23600000014,
      "d": 873.7167864583316,
      "v": 72
    },
    {
      "midi": 67,
      "hit": false,
      "t": 102856.23600000014,
      "d": 873.7167864583316,
      "v": 82
    },
    {
      "midi": 70,
      "hit": false,
      "t": 102856.23600000014,
      "d": 873.7167864583316,
      "v": 70
    },
    {
      "midi": 55,
      "hit": false,
      "t": 102856.23600000014,
      "d": 1906.8709427083377,
      "v": 58
    },
    {
      "midi": 70,
      "hit": false,
      "t": 104080.71500000013,
      "d": 408.15966666667373,
      "v": 70
    },
    {
      "midi": 67,
      "hit": false,
      "t": 104080.71500000013,
      "d": 433.6696458333463,
      "v": 74
    },
    {
      "midi": 62,
      "hit": false,
      "t": 104080.71500000013,
      "d": 452.8021302083507,
      "v": 73
    },
    {
      "midi": 63,
      "hit": false,
      "t": 104692.95450000014,
      "d": 1454.0688125000015,
      "v": 69
    },
    {
      "midi": 67,
      "hit": false,
      "t": 104692.95450000014,
      "d": 1460.4463072916697,
      "v": 70
    },
    {
      "midi": 70,
      "hit": false,
      "t": 104692.95450000014,
      "d": 1498.711276041664,
      "v": 58
    },
    {
      "midi": 55,
      "hit": false,
      "t": 104999.07425000014,
      "d": 235.96730729166302,
      "v": 60
    },
    {
      "midi": 51,
      "hit": false,
      "t": 105305.19400000013,
      "d": 1511.4662656250002,
      "v": 52
    },
    {
      "midi": 63,
      "hit": false,
      "t": 106529.67300000014,
      "d": 950.2467239583348,
      "v": 74
    },
    {
      "midi": 70,
      "hit": false,
      "t": 106529.67300000014,
      "d": 956.6242187500029,
      "v": 71
    },
    {
      "midi": 67,
      "hit": false,
      "t": 106529.67300000014,
      "d": 963.001713541671,
      "v": 80
    },
    {
      "midi": 51,
      "hit": false,
      "t": 107141.91250000014,
      "d": 567.5970364583482,
      "v": 53
    },
    {
      "midi": 48,
      "hit": false,
      "t": 107754.15200000015,
      "d": 1613.506182291676,
      "v": 70
    },
    {
      "midi": 63,
      "hit": false,
      "t": 108366.39150000014,
      "d": 140.30488541667,
      "v": 76
    },
    {
      "midi": 67,
      "hit": false,
      "t": 108366.39150000014,
      "d": 159.43736979167443,
      "v": 72
    },
    {
      "midi": 72,
      "hit": false,
      "t": 108366.39150000014,
      "d": 165.81486458334257,
      "v": 74
    },
    {
      "midi": 72,
      "hit": false,
      "t": 109284.75075000015,
      "d": 701.52442708335,
      "v": 74
    },
    {
      "midi": 63,
      "hit": false,
      "t": 109284.75075000015,
      "d": 720.6569114583544,
      "v": 77
    },
    {
      "midi": 67,
      "hit": false,
      "t": 109284.75075000015,
      "d": 931.1142395833594,
      "v": 79
    },
    {
      "midi": 48,
      "hit": false,
      "t": 109896.99025000016,
      "d": 306.1197500000126,
      "v": 61
    },
    {
      "midi": 53,
      "hit": false,
      "t": 110203.11000000018,
      "d": 1919.6259322916594,
      "v": 63
    },
    {
      "midi": 60,
      "hit": false,
      "t": 110509.22975000017,
      "d": 127.54989583333372,
      "v": 69
    },
    {
      "midi": 65,
      "hit": false,
      "t": 110509.22975000017,
      "d": 133.92739062500186,
      "v": 86
    },
    {
      "midi": 69,
      "hit": false,
      "t": 110509.22975000017,
      "d": 165.81486458332802,
      "v": 82
    },
    {
      "midi": 60,
      "hit": false,
      "t": 111427.58900000017,
      "d": 701.5244270833355,
      "v": 71
    },
    {
      "midi": 65,
      "hit": false,
      "t": 111427.58900000017,
      "d": 707.9019218750036,
      "v": 84
    },
    {
      "midi": 69,
      "hit": false,
      "t": 111427.58900000017,
      "d": 707.9019218750036,
      "v": 79
    },
    {
      "midi": 62,
      "hit": false,
      "t": 112652.06800000017,
      "d": 822.696828125001,
      "v": 72
    },
    {
      "midi": 55,
      "hit": false,
      "t": 112652.06800000017,
      "d": 835.4518177083373,
      "v": 79
    },
    {
      "midi": 70,
      "hit": false,
      "t": 112652.06800000017,
      "d": 835.4518177083373,
      "v": 78
    },
    {
      "midi": 67,
      "hit": false,
      "t": 112652.06800000017,
      "d": 848.2068072916736,
      "v": 84
    },
    {
      "midi": 70,
      "hit": false,
      "t": 113876.54700000018,
      "d": 459.1796250000043,
      "v": 81
    },
    {
      "midi": 62,
      "hit": false,
      "t": 113876.54700000018,
      "d": 478.31210937500873,
      "v": 81
    },
    {
      "midi": 67,
      "hit": false,
      "t": 113876.54700000018,
      "d": 478.31210937500873,
      "v": 83
    },
    {
      "midi": 63,
      "hit": false,
      "t": 114488.78650000019,
      "d": 1390.29386458332,
      "v": 80
    },
    {
      "midi": 67,
      "hit": false,
      "t": 114488.78650000019,
      "d": 1422.1813385416463,
      "v": 81
    },
    {
      "midi": 70,
      "hit": false,
      "t": 114488.78650000019,
      "d": 1422.1813385416463,
      "v": 57
    },
    {
      "midi": 51,
      "hit": false,
      "t": 115101.02600000019,
      "d": 293.36476041666174,
      "v": 52
    },
    {
      "midi": 51,
      "hit": false,
      "t": 115713.26550000018,
      "d": 688.7694374999846,
      "v": 63
    },
    {
      "midi": 63,
      "hit": false,
      "t": 116325.50500000016,
      "d": 695.1469322916673,
      "v": 86
    },
    {
      "midi": 67,
      "hit": false,
      "t": 116325.50500000016,
      "d": 720.6569114583399,
      "v": 98
    },
    {
      "midi": 70,
      "hit": false,
      "t": 116325.50500000016,
      "d": 727.034406250008,
      "v": 85
    },
    {
      "midi": 48,
      "hit": false,
      "t": 117549.98400000017,
      "d": 758.9218802083342,
      "v": 65
    },
    {
      "midi": 63,
      "hit": false,
      "t": 118774.46300000018,
      "d": 1294.6314427083416,
      "v": 84
    },
    {
      "midi": 72,
      "hit": false,
      "t": 118774.46300000018,
      "d": 1358.4063906250085,
      "v": 79
    },
    {
      "midi": 67,
      "hit": false,
      "t": 118774.46300000018,
      "d": 1396.6713593750028,
      "v": 81
    },
    {
      "midi": 48,
      "hit": false,
      "t": 119692.82225000017,
      "d": 280.60977083334,
      "v": 66
    },
    {
      "midi": 53,
      "hit": false,
      "t": 119998.94200000018,
      "d": 261.4772864583356,
      "v": 70
    },
    {
      "midi": 65,
      "hit": false,
      "t": 120305.06175000018,
      "d": 127.54989583333372,
      "v": 85
    },
    {
      "midi": 60,
      "hit": false,
      "t": 120305.06175000018,
      "d": 133.92739062500186,
      "v": 78
    },
    {
      "midi": 69,
      "hit": false,
      "t": 120305.06175000018,
      "d": 172.19235937499616,
      "v": 71
    },
    {
      "midi": 53,
      "hit": false,
      "t": 120611.18150000018,
      "d": 618.6169947916642,
      "v": 75
    },
    {
      "midi": 60,
      "hit": false,
      "t": 121223.42100000018,
      "d": 867.3392916666635,
      "v": 82
    },
    {
      "midi": 69,
      "hit": false,
      "t": 121223.42100000018,
      "d": 905.6042604166578,
      "v": 82
    },
    {
      "midi": 65,
      "hit": false,
      "t": 121223.42100000018,
      "d": 963.0017135416565,
      "v": 95
    },
    {
      "midi": 53,
      "hit": false,
      "t": 121835.66050000017,
      "d": 561.2195416666655,
      "v": 59
    },
    {
      "midi": 70,
      "hit": false,
      "t": 122447.90000000017,
      "d": 880.0942812499998,
      "v": 67
    },
    {
      "midi": 62,
      "hit": false,
      "t": 122447.90000000017,
      "d": 886.4717760416679,
      "v": 69
    },
    {
      "midi": 67,
      "hit": false,
      "t": 122447.90000000017,
      "d": 892.849270833336,
      "v": 87
    },
    {
      "midi": 55,
      "hit": false,
      "t": 122447.90000000017,
      "d": 1983.4008802083408,
      "v": 73
    },
    {
      "midi": 70,
      "hit": false,
      "t": 123672.37900000018,
      "d": 478.3121093749942,
      "v": 77
    },
    {
      "midi": 62,
      "hit": false,
      "t": 123672.37900000018,
      "d": 484.6896041666623,
      "v": 83
    },
    {
      "midi": 67,
      "hit": false,
      "t": 123672.37900000018,
      "d": 491.06709895833046,
      "v": 79
    },
    {
      "midi": 63,
      "hit": false,
      "t": 124284.61850000017,
      "d": 1479.578791666674,
      "v": 76
    },
    {
      "midi": 67,
      "hit": false,
      "t": 124284.61850000017,
      "d": 1524.2212552083365,
      "v": 76
    },
    {
      "midi": 70,
      "hit": false,
      "t": 124284.61850000017,
      "d": 1536.9762447916728,
      "v": 61
    },
    {
      "midi": 51,
      "hit": false,
      "t": 124896.85800000018,
      "d": 1269.1214635416545,
      "v": 83
    },
    {
      "midi": 63,
      "hit": false,
      "t": 126121.33700000017,
      "d": 1211.7240104166558,
      "v": 82
    },
    {
      "midi": 70,
      "hit": false,
      "t": 126121.33700000017,
      "d": 1218.101505208324,
      "v": 68
    },
    {
      "midi": 67,
      "hit": false,
      "t": 126121.33700000017,
      "d": 1230.8564947916602,
      "v": 76
    },
    {
      "midi": 48,
      "hit": false,
      "t": 127345.81600000017,
      "d": 344.38471875000687,
      "v": 70
    },
    {
      "midi": 48,
      "hit": false,
      "t": 127958.05550000018,
      "d": 637.7494791666686,
      "v": 64
    },
    {
      "midi": 63,
      "hit": false,
      "t": 128570.29500000017,
      "d": 1090.5516093750048,
      "v": 73
    },
    {
      "midi": 72,
      "hit": false,
      "t": 128570.29500000017,
      "d": 1243.611484375011,
      "v": 80
    },
    {
      "midi": 67,
      "hit": false,
      "t": 128570.29500000017,
      "d": 1313.763927083346,
      "v": 85
    },
    {
      "midi": 48,
      "hit": false,
      "t": 129488.65425000018,
      "d": 280.60977083332546,
      "v": 65
    },
    {
      "midi": 53,
      "hit": false,
      "t": 129794.77400000018,
      "d": 363.5172031250113,
      "v": 65
    },
    {
      "midi": 60,
      "hit": false,
      "t": 130100.89375000019,
      "d": 121.17240104166558,
      "v": 75
    },
    {
      "midi": 65,
      "hit": false,
      "t": 130100.89375000019,
      "d": 140.30488541667,
      "v": 81
    },
    {
      "midi": 69,
      "hit": false,
      "t": 130100.89375000019,
      "d": 153.0598750000063,
      "v": 78
    },
    {
      "midi": 53,
      "hit": false,
      "t": 130407.0135000002,
      "d": 1014.0216718750016,
      "v": 71
    },
    {
      "midi": 60,
      "hit": false,
      "t": 131019.2530000002,
      "d": 924.7367447916768,
      "v": 68
    },
    {
      "midi": 69,
      "hit": false,
      "t": 131019.2530000002,
      "d": 937.491734375013,
      "v": 74
    },
    {
      "midi": 65,
      "hit": false,
      "t": 131019.2530000002,
      "d": 1033.154156250006,
      "v": 84
    },
    {
      "midi": 53,
      "hit": false,
      "t": 131631.4925000002,
      "d": 599.4845104166889,
      "v": 67
    },
    {
      "midi": 62,
      "hit": false,
      "t": 132243.73200000022,
      "d": 899.2267656250042,
      "v": 70
    },
    {
      "midi": 70,
      "hit": false,
      "t": 132243.73200000022,
      "d": 899.2267656250042,
      "v": 65
    },
    {
      "midi": 67,
      "hit": false,
      "t": 132243.73200000022,
      "d": 937.491734375013,
      "v": 77
    },
    {
      "midi": 55,
      "hit": false,
      "t": 132243.73200000022,
      "d": 1224.4790000000212,
      "v": 69
    },
    {
      "midi": 62,
      "hit": false,
      "t": 133468.21100000024,
      "d": 395.40467708333745,
      "v": 74
    },
    {
      "midi": 70,
      "hit": false,
      "t": 133468.21100000024,
      "d": 401.7821718750056,
      "v": 66
    },
    {
      "midi": 67,
      "hit": false,
      "t": 133468.21100000024,
      "d": 427.29215104167815,
      "v": 73
    },
    {
      "midi": 55,
      "hit": false,
      "t": 134080.45050000027,
      "d": 191.32484374998603,
      "v": 58
    },
    {
      "midi": 63,
      "hit": false,
      "t": 134080.45050000027,
      "d": 1479.5787916666595,
      "v": 75
    },
    {
      "midi": 67,
      "hit": false,
      "t": 134080.45050000027,
      "d": 1485.9562864583277,
      "v": 74
    },
    {
      "midi": 70,
      "hit": false,
      "t": 134080.45050000027,
      "d": 1498.711276041664,
      "v": 61
    },
    {
      "midi": 51,
      "hit": false,
      "t": 134692.69000000026,
      "d": 1230.8564947916602,
      "v": 81
    },
    {
      "midi": 67,
      "hit": false,
      "t": 135917.16900000026,
      "d": 644.1269739583367,
      "v": 82
    },
    {
      "midi": 63,
      "hit": false,
      "t": 135917.16900000026,
      "d": 663.2594583333412,
      "v": 79
    },
    {
      "midi": 70,
      "hit": false,
      "t": 135917.16900000026,
      "d": 682.3919427083456,
      "v": 71
    },
    {
      "midi": 51,
      "hit": false,
      "t": 136529.40850000025,
      "d": 522.9545729166712,
      "v": 41
    },
    {
      "midi": 48,
      "hit": false,
      "t": 137141.64800000025,
      "d": 357.1397083333286,
      "v": 67
    },
    {
      "midi": 48,
      "hit": false,
      "t": 137753.88750000024,
      "d": 522.9545729166712,
      "v": 59
    },
    {
      "midi": 63,
      "hit": false,
      "t": 138366.12700000024,
      "d": 1205.3465156250168,
      "v": 73
    },
    {
      "midi": 72,
      "hit": false,
      "t": 138366.12700000024,
      "d": 1224.4790000000212,
      "v": 74
    },
    {
      "midi": 67,
      "hit": false,
      "t": 138366.12700000024,
      "d": 1345.6514010416868,
      "v": 79
    },
    {
      "midi": 48,
      "hit": false,
      "t": 139284.48625000025,
      "d": 312.4972447916807,
      "v": 64
    },
    {
      "midi": 53,
      "hit": false,
      "t": 139590.60600000026,
      "d": 1198.9690208333486,
      "v": 62
    },
    {
      "midi": 65,
      "hit": false,
      "t": 139896.72575000027,
      "d": 133.92739062500186,
      "v": 81
    },
    {
      "midi": 60,
      "hit": false,
      "t": 139896.72575000027,
      "d": 146.68238020833815,
      "v": 70
    },
    {
      "midi": 69,
      "hit": false,
      "t": 139896.72575000027,
      "d": 191.32484375001513,
      "v": 69
    },
    {
      "midi": 60,
      "hit": false,
      "t": 140815.08500000028,
      "d": 848.2068072916591,
      "v": 75
    },
    {
      "midi": 69,
      "hit": false,
      "t": 140815.08500000028,
      "d": 860.9617968749953,
      "v": 77
    },
    {
      "midi": 65,
      "hit": false,
      "t": 140815.08500000028,
      "d": 937.4917343749839,
      "v": 85
    },
    {
      "midi": 49,
      "hit": false,
      "t": 141427.32450000028,
      "d": 816.3193333333184,
      "v": 69
    },
    {
      "midi": 54,
      "hit": false,
      "t": 141427.32450000028,
      "d": 835.4518177083228,
      "v": 80
    },
    {
      "midi": 66,
      "hit": false,
      "t": 142039.56399999998,
      "d": 2442.580505208345,
      "v": 1
    },
    {
      "midi": 70,
      "hit": false,
      "t": 142039.56399999998,
      "d": 2442.580505208345,
      "v": 1
    },
    {
      "midi": 61,
      "hit": false,
      "t": 142039.56400000027,
      "d": 286.98726562497905,
      "v": 90
    },
    {
      "midi": 66,
      "hit": false,
      "t": 142039.56400000027,
      "d": 286.98726562497905,
      "v": 94
    },
    {
      "midi": 70,
      "hit": false,
      "t": 142039.56400000027,
      "d": 286.98726562497905,
      "v": 93
    },
    {
      "midi": 61,
      "hit": false,
      "t": 142651.80350000024,
      "d": 286.98726562500815,
      "v": 67
    },
    {
      "midi": 66,
      "hit": false,
      "t": 142651.80350000024,
      "d": 286.98726562500815,
      "v": 106
    },
    {
      "midi": 70,
      "hit": false,
      "t": 142651.80350000024,
      "d": 286.98726562500815,
      "v": 81
    },
    {
      "midi": 49,
      "hit": false,
      "t": 142651.80350000024,
      "d": 943.8692291666812,
      "v": 73
    },
    {
      "midi": 54,
      "hit": false,
      "t": 142651.80350000024,
      "d": 975.7567031250219,
      "v": 83
    },
    {
      "midi": 48,
      "hit": false,
      "t": 143876.28250000026,
      "d": 848.2068072916591,
      "v": 80
    },
    {
      "midi": 53,
      "hit": false,
      "t": 143876.28250000026,
      "d": 860.9617968749953,
      "v": 91
    },
    {
      "midi": 65,
      "hit": false,
      "t": 144488.522,
      "d": 1830.34100520832,
      "v": 1
    },
    {
      "midi": 69,
      "hit": false,
      "t": 144488.522,
      "d": 1830.34100520832,
      "v": 1
    },
    {
      "midi": 60,
      "hit": false,
      "t": 144488.52200000026,
      "d": 286.98726562500815,
      "v": 91
    },
    {
      "midi": 65,
      "hit": false,
      "t": 144488.52200000026,
      "d": 286.98726562500815,
      "v": 86
    },
    {
      "midi": 69,
      "hit": false,
      "t": 144488.52200000026,
      "d": 286.98726562500815,
      "v": 91
    },
    {
      "midi": 60,
      "hit": false,
      "t": 145100.76150000026,
      "d": 286.98726562500815,
      "v": 95
    },
    {
      "midi": 65,
      "hit": false,
      "t": 145100.76150000026,
      "d": 286.98726562500815,
      "v": 90
    },
    {
      "midi": 69,
      "hit": false,
      "t": 145100.76150000026,
      "d": 286.98726562500815,
      "v": 93
    },
    {
      "midi": 53,
      "hit": false,
      "t": 145100.76150000026,
      "d": 911.9817552083405,
      "v": 86
    },
    {
      "midi": 48,
      "hit": false,
      "t": 145100.76150000026,
      "d": 924.7367447916768,
      "v": 74
    },
    {
      "midi": 63,
      "hit": false,
      "t": 146325.24049999999,
      "d": 3054.820005208341,
      "v": 1
    },
    {
      "midi": 67,
      "hit": false,
      "t": 146325.24049999999,
      "d": 5503.778005208354,
      "v": 1
    },
    {
      "midi": 46,
      "hit": false,
      "t": 146325.24050000028,
      "d": 797.186848958343,
      "v": 69
    },
    {
      "midi": 51,
      "hit": false,
      "t": 146325.24050000028,
      "d": 803.5643437500112,
      "v": 79
    },
    {
      "midi": 58,
      "hit": false,
      "t": 146937.48000000027,
      "d": 286.98726562500815,
      "v": 66
    },
    {
      "midi": 63,
      "hit": false,
      "t": 146937.48000000027,
      "d": 286.98726562500815,
      "v": 86
    },
    {
      "midi": 67,
      "hit": false,
      "t": 146937.48000000027,
      "d": 286.98726562500815,
      "v": 80
    },
    {
      "midi": 58,
      "hit": false,
      "t": 147549.71950000027,
      "d": 286.98726562500815,
      "v": 74
    },
    {
      "midi": 63,
      "hit": false,
      "t": 147549.71950000027,
      "d": 286.98726562500815,
      "v": 96
    },
    {
      "midi": 67,
      "hit": false,
      "t": 147549.71950000027,
      "d": 286.98726562500815,
      "v": 82
    },
    {
      "midi": 46,
      "hit": false,
      "t": 147549.71950000027,
      "d": 905.6042604166723,
      "v": 73
    },
    {
      "midi": 51,
      "hit": false,
      "t": 147549.71950000027,
      "d": 975.7567031249928,
      "v": 82
    },
    {
      "midi": 50,
      "hit": false,
      "t": 148774.19850000026,
      "d": 758.9218802083342,
      "v": 68
    },
    {
      "midi": 55,
      "hit": false,
      "t": 148774.19850000026,
      "d": 765.2993750000023,
      "v": 76
    },
    {
      "midi": 62,
      "hit": false,
      "t": 149386.438,
      "d": 2442.580505208345,
      "v": 1
    },
    {
      "midi": 58,
      "hit": false,
      "t": 149386.43800000026,
      "d": 286.98726562500815,
      "v": 69
    },
    {
      "midi": 62,
      "hit": false,
      "t": 149386.43800000026,
      "d": 286.98726562500815,
      "v": 84
    },
    {
      "midi": 67,
      "hit": false,
      "t": 149386.43800000026,
      "d": 286.98726562500815,
      "v": 66
    },
    {
      "midi": 58,
      "hit": false,
      "t": 149998.67750000025,
      "d": 286.98726562500815,
      "v": 82
    },
    {
      "midi": 62,
      "hit": false,
      "t": 149998.67750000025,
      "d": 286.98726562500815,
      "v": 99
    },
    {
      "midi": 67,
      "hit": false,
      "t": 149998.67750000025,
      "d": 286.98726562500815,
      "v": 84
    },
    {
      "midi": 55,
      "hit": false,
      "t": 149998.67750000025,
      "d": 937.491734375013,
      "v": 71
    },
    {
      "midi": 50,
      "hit": false,
      "t": 149998.67750000025,
      "d": 943.8692291666812,
      "v": 77
    },
    {
      "midi": 62,
      "hit": false,
      "t": 151223.15650000027,
      "d": 286.98726562500815,
      "v": 74
    },
    {
      "midi": 67,
      "hit": false,
      "t": 151223.15650000027,
      "d": 286.98726562500815,
      "v": 85
    },
    {
      "midi": 70,
      "hit": false,
      "t": 151223.15650000027,
      "d": 286.98726562500815,
      "v": 70
    },
    {
      "midi": 49,
      "hit": false,
      "t": 151223.15650000027,
      "d": 822.6968281249865,
      "v": 68
    },
    {
      "midi": 54,
      "hit": false,
      "t": 151223.15650000027,
      "d": 841.8293124999909,
      "v": 76
    },
    {
      "midi": 66,
      "hit": false,
      "t": 151835.396,
      "d": 2442.580505208345,
      "v": 1
    },
    {
      "midi": 70,
      "hit": false,
      "t": 151835.396,
      "d": 2442.580505208345,
      "v": 1
    },
    {
      "midi": 61,
      "hit": false,
      "t": 151835.39600000027,
      "d": 286.98726562500815,
      "v": 72
    },
    {
      "midi": 66,
      "hit": false,
      "t": 151835.39600000027,
      "d": 286.98726562500815,
      "v": 85
    },
    {
      "midi": 70,
      "hit": false,
      "t": 151835.39600000027,
      "d": 286.98726562500815,
      "v": 79
    },
    {
      "midi": 61,
      "hit": false,
      "t": 152447.63550000027,
      "d": 286.98726562500815,
      "v": 68
    },
    {
      "midi": 66,
      "hit": false,
      "t": 152447.63550000027,
      "d": 286.98726562500815,
      "v": 109
    },
    {
      "midi": 70,
      "hit": false,
      "t": 152447.63550000027,
      "d": 286.98726562500815,
      "v": 82
    },
    {
      "midi": 49,
      "hit": false,
      "t": 152447.63550000027,
      "d": 950.2467239583493,
      "v": 77
    },
    {
      "midi": 54,
      "hit": false,
      "t": 152447.63550000027,
      "d": 950.2467239583493,
      "v": 78
    },
    {
      "midi": 48,
      "hit": false,
      "t": 153672.1145000003,
      "d": 835.4518177083228,
      "v": 71
    },
    {
      "midi": 53,
      "hit": false,
      "t": 153672.1145000003,
      "d": 854.5843020833272,
      "v": 80
    },
    {
      "midi": 65,
      "hit": false,
      "t": 154284.35400000002,
      "d": 1830.34100520832,
      "v": 1
    },
    {
      "midi": 69,
      "hit": false,
      "t": 154284.35400000002,
      "d": 1830.34100520832,
      "v": 1
    },
    {
      "midi": 60,
      "hit": false,
      "t": 154284.35400000028,
      "d": 286.98726562500815,
      "v": 75
    },
    {
      "midi": 65,
      "hit": false,
      "t": 154284.35400000028,
      "d": 286.98726562500815,
      "v": 92
    },
    {
      "midi": 69,
      "hit": false,
      "t": 154284.35400000028,
      "d": 286.98726562500815,
      "v": 75
    },
    {
      "midi": 60,
      "hit": false,
      "t": 154896.59350000028,
      "d": 286.98726562500815,
      "v": 78
    },
    {
      "midi": 65,
      "hit": false,
      "t": 154896.59350000028,
      "d": 286.98726562500815,
      "v": 92
    },
    {
      "midi": 69,
      "hit": false,
      "t": 154896.59350000028,
      "d": 286.98726562500815,
      "v": 81
    },
    {
      "midi": 53,
      "hit": false,
      "t": 154896.59350000028,
      "d": 873.7167864583316,
      "v": 79
    },
    {
      "midi": 48,
      "hit": false,
      "t": 154896.59350000028,
      "d": 886.4717760416679,
      "v": 76
    },
    {
      "midi": 63,
      "hit": false,
      "t": 156121.0725,
      "d": 3054.820005208341,
      "v": 1
    },
    {
      "midi": 67,
      "hit": false,
      "t": 156121.0725,
      "d": 3054.820005208341,
      "v": 1
    },
    {
      "midi": 46,
      "hit": false,
      "t": 156121.07250000027,
      "d": 860.9617968749953,
      "v": 70
    },
    {
      "midi": 51,
      "hit": false,
      "t": 156121.07250000027,
      "d": 886.4717760416679,
      "v": 78
    },
    {
      "midi": 58,
      "hit": false,
      "t": 156733.31200000027,
      "d": 286.98726562500815,
      "v": 74
    },
    {
      "midi": 63,
      "hit": false,
      "t": 156733.31200000027,
      "d": 286.98726562500815,
      "v": 93
    },
    {
      "midi": 67,
      "hit": false,
      "t": 156733.31200000027,
      "d": 286.98726562500815,
      "v": 84
    },
    {
      "midi": 58,
      "hit": false,
      "t": 157345.55150000026,
      "d": 286.98726562500815,
      "v": 69
    },
    {
      "midi": 63,
      "hit": false,
      "t": 157345.55150000026,
      "d": 286.98726562500815,
      "v": 84
    },
    {
      "midi": 67,
      "hit": false,
      "t": 157345.55150000026,
      "d": 286.98726562500815,
      "v": 88
    },
    {
      "midi": 46,
      "hit": false,
      "t": 157345.55150000026,
      "d": 963.0017135416856,
      "v": 79
    },
    {
      "midi": 51,
      "hit": false,
      "t": 157345.55150000026,
      "d": 1014.0216718750307,
      "v": 89
    },
    {
      "midi": 48,
      "hit": false,
      "t": 158570.03050000028,
      "d": 822.6968281249865,
      "v": 73
    },
    {
      "midi": 53,
      "hit": false,
      "t": 158570.03050000028,
      "d": 822.6968281249865,
      "v": 80
    },
    {
      "midi": 65,
      "hit": false,
      "t": 159182.27000000002,
      "d": 2442.580505208345,
      "v": 1
    },
    {
      "midi": 69,
      "hit": false,
      "t": 159182.27000000002,
      "d": 2442.580505208345,
      "v": 1
    },
    {
      "midi": 60,
      "hit": false,
      "t": 159182.27000000028,
      "d": 286.98726562497905,
      "v": 87
    },
    {
      "midi": 65,
      "hit": false,
      "t": 159182.27000000028,
      "d": 286.98726562497905,
      "v": 92
    },
    {
      "midi": 69,
      "hit": false,
      "t": 159182.27000000028,
      "d": 286.98726562497905,
      "v": 89
    },
    {
      "midi": 60,
      "hit": false,
      "t": 159794.50950000025,
      "d": 593.1070156249916,
      "v": 75
    },
    {
      "midi": 65,
      "hit": false,
      "t": 159794.50950000025,
      "d": 593.1070156249916,
      "v": 89
    },
    {
      "midi": 69,
      "hit": false,
      "t": 159794.50950000025,
      "d": 593.1070156249916,
      "v": 73
    },
    {
      "midi": 48,
      "hit": false,
      "t": 159794.50950000025,
      "d": 1128.81657812497,
      "v": 77
    },
    {
      "midi": 53,
      "hit": false,
      "t": 159794.50950000025,
      "d": 1128.81657812497,
      "v": 82
    },
    {
      "midi": 60,
      "hit": false,
      "t": 160712.86875000023,
      "d": 286.98726562497905,
      "v": 85
    },
    {
      "midi": 65,
      "hit": false,
      "t": 160712.86875000023,
      "d": 286.98726562497905,
      "v": 85
    },
    {
      "midi": 69,
      "hit": false,
      "t": 160712.86875000023,
      "d": 286.98726562497905,
      "v": 84
    },
    {
      "midi": 70,
      "hit": false,
      "t": 161631.22800000003,
      "d": 4891.538505208358,
      "v": 1
    },
    {
      "midi": 67,
      "hit": false,
      "t": 161631.22800000003,
      "d": 7327.741515625035,
      "v": 1
    },
    {
      "midi": 62,
      "hit": false,
      "t": 161631.2280000002,
      "d": 822.6968281249865,
      "v": 76
    },
    {
      "midi": 55,
      "hit": false,
      "t": 161631.2280000002,
      "d": 835.4518177083228,
      "v": 73
    },
    {
      "midi": 70,
      "hit": false,
      "t": 161631.2280000002,
      "d": 835.4518177083228,
      "v": 77
    },
    {
      "midi": 67,
      "hit": false,
      "t": 161631.2280000002,
      "d": 848.2068072916591,
      "v": 86
    },
    {
      "midi": 70,
      "hit": false,
      "t": 162855.7070000002,
      "d": 459.17962499998976,
      "v": 81
    },
    {
      "midi": 62,
      "hit": false,
      "t": 162855.7070000002,
      "d": 478.3121093749942,
      "v": 79
    },
    {
      "midi": 67,
      "hit": false,
      "t": 162855.7070000002,
      "d": 478.3121093749942,
      "v": 86
    },
    {
      "midi": 63,
      "hit": false,
      "t": 163467.9465000002,
      "d": 1390.2938645833347,
      "v": 80
    },
    {
      "midi": 67,
      "hit": false,
      "t": 163467.9465000002,
      "d": 1422.1813385416754,
      "v": 75
    },
    {
      "midi": 70,
      "hit": false,
      "t": 163467.9465000002,
      "d": 1422.1813385416754,
      "v": 61
    },
    {
      "midi": 63,
      "hit": false,
      "t": 164080.18600000005,
      "d": 4891.538505208358,
      "v": 1
    },
    {
      "midi": 51,
      "hit": false,
      "t": 164080.1860000002,
      "d": 293.3647604166763,
      "v": 52
    },
    {
      "midi": 51,
      "hit": false,
      "t": 164692.4255000002,
      "d": 688.7694375000137,
      "v": 57
    },
    {
      "midi": 63,
      "hit": false,
      "t": 165304.6650000002,
      "d": 695.1469322916528,
      "v": 86
    },
    {
      "midi": 67,
      "hit": false,
      "t": 165304.6650000002,
      "d": 720.6569114583253,
      "v": 92
    },
    {
      "midi": 70,
      "hit": false,
      "t": 165304.6650000002,
      "d": 727.0344062499935,
      "v": 90
    },
    {
      "midi": 60,
      "hit": false,
      "t": 166529.14400000006,
      "d": 4891.538505208358,
      "v": 1
    },
    {
      "midi": 48,
      "hit": false,
      "t": 166529.1440000002,
      "d": 758.9218802083342,
      "v": 68
    },
    {
      "midi": 63,
      "hit": false,
      "t": 167753.6230000002,
      "d": 1294.6314427083416,
      "v": 83
    },
    {
      "midi": 72,
      "hit": false,
      "t": 167753.6230000002,
      "d": 1358.406390624994,
      "v": 85
    },
    {
      "midi": 67,
      "hit": false,
      "t": 167753.6230000002,
      "d": 1396.6713593750028,
      "v": 87
    },
    {
      "midi": 48,
      "hit": false,
      "t": 168671.9822500002,
      "d": 280.60977083334,
      "v": 66
    },
    {
      "midi": 65,
      "hit": false,
      "t": 168978.10200000007,
      "d": 2442.580505208345,
      "v": 1
    },
    {
      "midi": 53,
      "hit": false,
      "t": 168978.10200000022,
      "d": 261.4772864583065,
      "v": 73
    },
    {
      "midi": 65,
      "hit": false,
      "t": 169284.2217500002,
      "d": 127.54989583333372,
      "v": 84
    },
    {
      "midi": 60,
      "hit": false,
      "t": 169284.2217500002,
      "d": 133.92739062500186,
      "v": 78
    },
    {
      "midi": 69,
      "hit": false,
      "t": 169284.2217500002,
      "d": 172.1923593750107,
      "v": 69
    },
    {
      "midi": 53,
      "hit": false,
      "t": 169590.3415000002,
      "d": 618.6169947916642,
      "v": 79
    },
    {
      "midi": 60,
      "hit": false,
      "t": 170202.5810000002,
      "d": 867.3392916666635,
      "v": 83
    },
    {
      "midi": 69,
      "hit": false,
      "t": 170202.5810000002,
      "d": 905.6042604166723,
      "v": 83
    },
    {
      "midi": 65,
      "hit": false,
      "t": 170202.5810000002,
      "d": 963.0017135416856,
      "v": 93
    },
    {
      "midi": 53,
      "hit": false,
      "t": 170814.8205000002,
      "d": 561.21954166668,
      "v": 60
    },
    {
      "midi": 70,
      "hit": false,
      "t": 171427.06000000008,
      "d": 4891.538505208358,
      "v": 1
    },
    {
      "midi": 67,
      "hit": false,
      "t": 171427.06000000008,
      "d": 7327.741515625035,
      "v": 1
    },
    {
      "midi": 70,
      "hit": false,
      "t": 171427.06000000023,
      "d": 880.0942812499998,
      "v": 65
    },
    {
      "midi": 62,
      "hit": false,
      "t": 171427.06000000023,
      "d": 886.4717760416679,
      "v": 73
    },
    {
      "midi": 67,
      "hit": false,
      "t": 171427.06000000023,
      "d": 892.849270833336,
      "v": 87
    },
    {
      "midi": 55,
      "hit": false,
      "t": 171427.06000000023,
      "d": 1983.4008802083263,
      "v": 68
    },
    {
      "midi": 70,
      "hit": false,
      "t": 172651.53900000022,
      "d": 478.3121093749942,
      "v": 75
    },
    {
      "midi": 62,
      "hit": false,
      "t": 172651.53900000022,
      "d": 484.6896041666623,
      "v": 79
    },
    {
      "midi": 67,
      "hit": false,
      "t": 172651.53900000022,
      "d": 491.06709895833046,
      "v": 83
    },
    {
      "midi": 63,
      "hit": false,
      "t": 173263.77850000022,
      "d": 1479.5787916666595,
      "v": 78
    },
    {
      "midi": 67,
      "hit": false,
      "t": 173263.77850000022,
      "d": 1524.2212552083365,
      "v": 70
    },
    {
      "midi": 70,
      "hit": false,
      "t": 173263.77850000022,
      "d": 1536.9762447916728,
      "v": 60
    },
    {
      "midi": 63,
      "hit": false,
      "t": 173876.0180000001,
      "d": 4891.538505208358,
      "v": 1
    },
    {
      "midi": 51,
      "hit": false,
      "t": 173876.01800000021,
      "d": 1269.1214635416982,
      "v": 84
    },
    {
      "midi": 63,
      "hit": false,
      "t": 175100.49700000024,
      "d": 1211.724010416685,
      "v": 80
    },
    {
      "midi": 70,
      "hit": false,
      "t": 175100.49700000024,
      "d": 1218.101505208353,
      "v": 72
    },
    {
      "midi": 67,
      "hit": false,
      "t": 175100.49700000024,
      "d": 1230.8564947916893,
      "v": 77
    },
    {
      "midi": 60,
      "hit": false,
      "t": 176324.9760000001,
      "d": 4891.538505208358,
      "v": 1
    },
    {
      "midi": 48,
      "hit": false,
      "t": 176324.97600000026,
      "d": 344.3847187499923,
      "v": 68
    },
    {
      "midi": 48,
      "hit": false,
      "t": 176937.21550000025,
      "d": 637.7494791666686,
      "v": 60
    },
    {
      "midi": 63,
      "hit": false,
      "t": 177549.45500000025,
      "d": 1090.5516093750193,
      "v": 80
    },
    {
      "midi": 72,
      "hit": false,
      "t": 177549.45500000025,
      "d": 1243.6114843750256,
      "v": 81
    },
    {
      "midi": 67,
      "hit": false,
      "t": 177549.45500000025,
      "d": 1313.763927083346,
      "v": 82
    },
    {
      "midi": 48,
      "hit": false,
      "t": 178467.81425000026,
      "d": 280.60977083334,
      "v": 62
    },
    {
      "midi": 65,
      "hit": false,
      "t": 178773.93400000012,
      "d": 2442.580505208345,
      "v": 1
    },
    {
      "midi": 53,
      "hit": false,
      "t": 178773.93400000027,
      "d": 363.51720312499674,
      "v": 65
    },
    {
      "midi": 60,
      "hit": false,
      "t": 179080.05375000025,
      "d": 121.17240104166558,
      "v": 70
    },
    {
      "midi": 65,
      "hit": false,
      "t": 179080.05375000025,
      "d": 140.30488541667,
      "v": 81
    },
    {
      "midi": 69,
      "hit": false,
      "t": 179080.05375000025,
      "d": 153.0598750000063,
      "v": 78
    },
    {
      "midi": 53,
      "hit": false,
      "t": 179386.17350000027,
      "d": 1014.0216718750016,
      "v": 72
    },
    {
      "midi": 60,
      "hit": false,
      "t": 179998.41300000026,
      "d": 924.7367447916768,
      "v": 75
    },
    {
      "midi": 69,
      "hit": false,
      "t": 179998.41300000026,
      "d": 937.491734375013,
      "v": 75
    },
    {
      "midi": 65,
      "hit": false,
      "t": 179998.41300000026,
      "d": 1033.154156250006,
      "v": 85
    },
    {
      "midi": 53,
      "hit": false,
      "t": 180610.65250000026,
      "d": 599.4845104166889,
      "v": 67
    },
    {
      "midi": 70,
      "hit": false,
      "t": 181222.89200000014,
      "d": 4585.418755208346,
      "v": 1
    },
    {
      "midi": 67,
      "hit": false,
      "t": 181222.89200000014,
      "d": 7340.496505208372,
      "v": 1
    },
    {
      "midi": 62,
      "hit": false,
      "t": 181222.89200000028,
      "d": 899.2267656250042,
      "v": 69
    },
    {
      "midi": 70,
      "hit": false,
      "t": 181222.89200000028,
      "d": 899.2267656250042,
      "v": 65
    },
    {
      "midi": 67,
      "hit": false,
      "t": 181222.89200000028,
      "d": 937.491734375013,
      "v": 77
    },
    {
      "midi": 55,
      "hit": false,
      "t": 181222.89200000028,
      "d": 1224.4790000000212,
      "v": 63
    },
    {
      "midi": 62,
      "hit": false,
      "t": 182447.3710000003,
      "d": 395.40467708333745,
      "v": 72
    },
    {
      "midi": 70,
      "hit": false,
      "t": 182447.3710000003,
      "d": 401.7821718750056,
      "v": 62
    },
    {
      "midi": 67,
      "hit": false,
      "t": 182447.3710000003,
      "d": 427.29215104167815,
      "v": 74
    },
    {
      "midi": 55,
      "hit": false,
      "t": 183059.61050000033,
      "d": 191.32484374998603,
      "v": 58
    },
    {
      "midi": 63,
      "hit": false,
      "t": 183059.61050000033,
      "d": 1479.5787916666595,
      "v": 77
    },
    {
      "midi": 67,
      "hit": false,
      "t": 183059.61050000033,
      "d": 1485.9562864583277,
      "v": 74
    },
    {
      "midi": 70,
      "hit": false,
      "t": 183059.61050000033,
      "d": 1498.711276041664,
      "v": 62
    },
    {
      "midi": 63,
      "hit": false,
      "t": 183671.85000000015,
      "d": 4891.538505208358,
      "v": 1
    },
    {
      "midi": 51,
      "hit": false,
      "t": 183671.85000000033,
      "d": 1230.8564947916602,
      "v": 78
    },
    {
      "midi": 67,
      "hit": false,
      "t": 184896.32900000032,
      "d": 644.1269739583367,
      "v": 80
    },
    {
      "midi": 63,
      "hit": false,
      "t": 184896.32900000032,
      "d": 663.2594583333412,
      "v": 80
    },
    {
      "midi": 70,
      "hit": false,
      "t": 184896.32900000032,
      "d": 682.3919427083456,
      "v": 69
    },
    {
      "midi": 51,
      "hit": false,
      "t": 185508.5685000003,
      "d": 522.9545729166712,
      "v": 44
    },
    {
      "midi": 60,
      "hit": false,
      "t": 186120.80800000016,
      "d": 4878.783515625022,
      "v": 1
    },
    {
      "midi": 48,
      "hit": false,
      "t": 186120.8080000003,
      "d": 357.1397083333286,
      "v": 62
    },
    {
      "midi": 48,
      "hit": false,
      "t": 186733.0475000003,
      "d": 522.9545729166712,
      "v": 65
    },
    {
      "midi": 63,
      "hit": false,
      "t": 187345.2870000003,
      "d": 1205.3465156250168,
      "v": 69
    },
    {
      "midi": 72,
      "hit": false,
      "t": 187345.2870000003,
      "d": 1224.4790000000212,
      "v": 74
    },
    {
      "midi": 67,
      "hit": false,
      "t": 187345.2870000003,
      "d": 1345.6514010416868,
      "v": 78
    },
    {
      "midi": 48,
      "hit": false,
      "t": 188263.6462500003,
      "d": 312.4972447916807,
      "v": 60
    },
    {
      "midi": 65,
      "hit": false,
      "t": 188569.76600000018,
      "d": 2442.580505208345,
      "v": 1
    },
    {
      "midi": 53,
      "hit": false,
      "t": 188569.76600000032,
      "d": 1198.9690208333486,
      "v": 68
    },
    {
      "midi": 65,
      "hit": false,
      "t": 188875.88575000034,
      "d": 133.92739062500186,
      "v": 76
    },
    {
      "midi": 60,
      "hit": false,
      "t": 188875.88575000034,
      "d": 146.68238020833815,
      "v": 69
    },
    {
      "midi": 69,
      "hit": false,
      "t": 188875.88575000034,
      "d": 191.32484375001513,
      "v": 66
    },
    {
      "midi": 60,
      "hit": false,
      "t": 189794.24500000034,
      "d": 848.2068072916591,
      "v": 69
    },
    {
      "midi": 69,
      "hit": false,
      "t": 189794.24500000034,
      "d": 860.9617968749953,
      "v": 81
    },
    {
      "midi": 65,
      "hit": false,
      "t": 189794.24500000034,
      "d": 937.4917343749839,
      "v": 83
    },
    {
      "midi": 53,
      "hit": false,
      "t": 190406.48450000034,
      "d": 573.9745312499872,
      "v": 62
    },
    {
      "midi": 70,
      "hit": false,
      "t": 191018.7240000002,
      "d": 4878.783515625022,
      "v": 1
    },
    {
      "midi": 67,
      "hit": false,
      "t": 191018.7240000002,
      "d": 7327.741515625035,
      "v": 1
    },
    {
      "midi": 62,
      "hit": false,
      "t": 191018.72400000034,
      "d": 963.0017135416565,
      "v": 74
    },
    {
      "midi": 70,
      "hit": false,
      "t": 191018.72400000034,
      "d": 963.0017135416565,
      "v": 65
    },
    {
      "midi": 67,
      "hit": false,
      "t": 191018.72400000034,
      "d": 975.7567031249928,
      "v": 77
    },
    {
      "midi": 55,
      "hit": false,
      "t": 191018.72400000034,
      "d": 1715.5460989583225,
      "v": 63
    },
    {
      "midi": 70,
      "hit": false,
      "t": 192243.20300000033,
      "d": 338.0072239583242,
      "v": 67
    },
    {
      "midi": 62,
      "hit": false,
      "t": 192243.20300000033,
      "d": 369.8946979166649,
      "v": 72
    },
    {
      "midi": 67,
      "hit": false,
      "t": 192243.20300000033,
      "d": 382.64968750000116,
      "v": 73
    },
    {
      "midi": 63,
      "hit": false,
      "t": 192855.44250000032,
      "d": 1505.088770833332,
      "v": 67
    },
    {
      "midi": 67,
      "hit": false,
      "t": 192855.44250000032,
      "d": 1536.9762447916728,
      "v": 67
    },
    {
      "midi": 70,
      "hit": false,
      "t": 192855.44250000032,
      "d": 1562.4862239583454,
      "v": 62
    },
    {
      "midi": 63,
      "hit": false,
      "t": 193467.6820000002,
      "d": 4878.783515625022,
      "v": 1
    },
    {
      "midi": 51,
      "hit": false,
      "t": 193467.68200000032,
      "d": 1600.7511927083542,
      "v": 62
    },
    {
      "midi": 63,
      "hit": false,
      "t": 194692.16100000034,
      "d": 676.0144479166775,
      "v": 85
    },
    {
      "midi": 67,
      "hit": false,
      "t": 194692.16100000034,
      "d": 695.1469322916819,
      "v": 87
    },
    {
      "midi": 70,
      "hit": false,
      "t": 194692.16100000034,
      "d": 727.0344062500226,
      "v": 71
    },
    {
      "midi": 60,
      "hit": false,
      "t": 195916.64000000022,
      "d": 2442.580505208345,
      "v": 1
    },
    {
      "midi": 48,
      "hit": false,
      "t": 195916.64000000036,
      "d": 1772.9435520833358,
      "v": 55
    },
    {
      "midi": 63,
      "hit": false,
      "t": 197141.11900000036,
      "d": 1192.5915260416805,
      "v": 78
    },
    {
      "midi": 72,
      "hit": false,
      "t": 197141.11900000036,
      "d": 1205.3465156250168,
      "v": 74
    },
    {
      "midi": 67,
      "hit": false,
      "t": 197141.11900000036,
      "d": 1371.1613802083593,
      "v": 82
    },
    {
      "midi": 48,
      "hit": false,
      "t": 198059.47825000036,
      "d": 306.1197500000126,
      "v": 58
    },
    {
      "midi": 53,
      "hit": false,
      "t": 198365.59800000038,
      "d": 758.9218802083633,
      "v": 70
    },
    {
      "midi": 65,
      "hit": false,
      "t": 198671.7177500004,
      "d": 127.54989583333372,
      "v": 79
    },
    {
      "midi": 60,
      "hit": false,
      "t": 198671.7177500004,
      "d": 140.30488541667,
      "v": 69
    },
    {
      "midi": 69,
      "hit": false,
      "t": 198671.7177500004,
      "d": 172.1923593750107,
      "v": 74
    },
    {
      "midi": 60,
      "hit": false,
      "t": 199590.0770000004,
      "d": 841.8293124999909,
      "v": 73
    },
    {
      "midi": 69,
      "hit": false,
      "t": 199590.0770000004,
      "d": 867.3392916666635,
      "v": 78
    },
    {
      "midi": 65,
      "hit": false,
      "t": 199590.0770000004,
      "d": 931.1142395833158,
      "v": 86
    },
    {
      "midi": 53,
      "hit": false,
      "t": 200202.3165000004,
      "d": 593.1070156249916,
      "v": 62
    },
    {
      "midi": 62,
      "hit": false,
      "t": 200814.5560000004,
      "d": 822.6968281249865,
      "v": 72
    },
    {
      "midi": 55,
      "hit": false,
      "t": 200814.5560000004,
      "d": 835.4518177083228,
      "v": 77
    },
    {
      "midi": 70,
      "hit": false,
      "t": 200814.5560000004,
      "d": 835.4518177083228,
      "v": 78
    },
    {
      "midi": 67,
      "hit": false,
      "t": 200814.5560000004,
      "d": 848.2068072916591,
      "v": 80
    },
    {
      "midi": 70,
      "hit": false,
      "t": 202039.03500000038,
      "d": 459.17962499998976,
      "v": 85
    },
    {
      "midi": 62,
      "hit": false,
      "t": 202039.03500000038,
      "d": 478.3121093749942,
      "v": 85
    },
    {
      "midi": 67,
      "hit": false,
      "t": 202039.03500000038,
      "d": 478.3121093749942,
      "v": 82
    },
    {
      "midi": 63,
      "hit": false,
      "t": 202651.27450000038,
      "d": 1390.2938645833347,
      "v": 80
    },
    {
      "midi": 67,
      "hit": false,
      "t": 202651.27450000038,
      "d": 1422.1813385416754,
      "v": 81
    },
    {
      "midi": 70,
      "hit": false,
      "t": 202651.27450000038,
      "d": 1422.1813385416754,
      "v": 63
    },
    {
      "midi": 51,
      "hit": false,
      "t": 203263.51400000037,
      "d": 293.3647604166763,
      "v": 55
    },
    {
      "midi": 51,
      "hit": false,
      "t": 203875.75350000037,
      "d": 688.7694375000137,
      "v": 60
    },
    {
      "midi": 63,
      "hit": false,
      "t": 204487.9930000004,
      "d": 695.1469322916528,
      "v": 88
    },
    {
      "midi": 67,
      "hit": false,
      "t": 204487.9930000004,
      "d": 720.6569114583253,
      "v": 92
    },
    {
      "midi": 70,
      "hit": false,
      "t": 204487.9930000004,
      "d": 727.0344062499935,
      "v": 85
    },
    {
      "midi": 48,
      "hit": false,
      "t": 205712.4720000004,
      "d": 758.9218802083342,
      "v": 66
    },
    {
      "midi": 63,
      "hit": false,
      "t": 206936.95100000038,
      "d": 1294.6314427083416,
      "v": 86
    },
    {
      "midi": 72,
      "hit": false,
      "t": 206936.95100000038,
      "d": 1358.406390624994,
      "v": 81
    },
    {
      "midi": 67,
      "hit": false,
      "t": 206936.95100000038,
      "d": 1396.6713593750028,
      "v": 86
    },
    {
      "midi": 48,
      "hit": false,
      "t": 207855.3102500004,
      "d": 280.60977083334,
      "v": 68
    },
    {
      "midi": 53,
      "hit": false,
      "t": 208161.4300000004,
      "d": 261.4772864583065,
      "v": 69
    },
    {
      "midi": 65,
      "hit": false,
      "t": 208467.54975000038,
      "d": 127.54989583333372,
      "v": 81
    },
    {
      "midi": 60,
      "hit": false,
      "t": 208467.54975000038,
      "d": 133.92739062500186,
      "v": 76
    },
    {
      "midi": 69,
      "hit": false,
      "t": 208467.54975000038,
      "d": 172.1923593750107,
      "v": 73
    },
    {
      "midi": 53,
      "hit": false,
      "t": 208773.6695000004,
      "d": 618.6169947916642,
      "v": 79
    },
    {
      "midi": 60,
      "hit": false,
      "t": 209385.9090000004,
      "d": 867.3392916666635,
      "v": 78
    },
    {
      "midi": 69,
      "hit": false,
      "t": 209385.9090000004,
      "d": 905.6042604166723,
      "v": 81
    },
    {
      "midi": 65,
      "hit": false,
      "t": 209385.9090000004,
      "d": 963.0017135416856,
      "v": 98
    },
    {
      "midi": 53,
      "hit": false,
      "t": 209998.1485000004,
      "d": 561.21954166668,
      "v": 64
    },
    {
      "midi": 70,
      "hit": false,
      "t": 210610.3880000004,
      "d": 880.0942812499998,
      "v": 64
    },
    {
      "midi": 62,
      "hit": false,
      "t": 210610.3880000004,
      "d": 886.4717760416679,
      "v": 69
    },
    {
      "midi": 67,
      "hit": false,
      "t": 210610.3880000004,
      "d": 892.849270833336,
      "v": 82
    },
    {
      "midi": 55,
      "hit": false,
      "t": 210610.3880000004,
      "d": 1983.4008802083263,
      "v": 73
    },
    {
      "midi": 70,
      "hit": false,
      "t": 211834.8670000004,
      "d": 478.3121093749942,
      "v": 73
    },
    {
      "midi": 62,
      "hit": false,
      "t": 211834.8670000004,
      "d": 484.6896041666623,
      "v": 77
    },
    {
      "midi": 67,
      "hit": false,
      "t": 211834.8670000004,
      "d": 491.06709895833046,
      "v": 81
    },
    {
      "midi": 63,
      "hit": false,
      "t": 212447.1065000004,
      "d": 1479.5787916666595,
      "v": 71
    },
    {
      "midi": 67,
      "hit": false,
      "t": 212447.1065000004,
      "d": 1524.2212552083365,
      "v": 70
    },
    {
      "midi": 70,
      "hit": false,
      "t": 212447.1065000004,
      "d": 1536.9762447916728,
      "v": 57
    },
    {
      "midi": 51,
      "hit": false,
      "t": 213059.3460000004,
      "d": 1269.1214635416982,
      "v": 86
    },
    {
      "midi": 63,
      "hit": false,
      "t": 214283.82500000042,
      "d": 1211.724010416685,
      "v": 81
    },
    {
      "midi": 70,
      "hit": false,
      "t": 214283.82500000042,
      "d": 1218.101505208353,
      "v": 70
    },
    {
      "midi": 67,
      "hit": false,
      "t": 214283.82500000042,
      "d": 1230.8564947916893,
      "v": 77
    },
    {
      "midi": 48,
      "hit": false,
      "t": 215508.30400000044,
      "d": 344.3847187499923,
      "v": 70
    },
    {
      "midi": 48,
      "hit": false,
      "t": 216120.54350000044,
      "d": 637.7494791666686,
      "v": 64
    },
    {
      "midi": 63,
      "hit": false,
      "t": 216732.78300000043,
      "d": 1090.5516093750193,
      "v": 79
    },
    {
      "midi": 72,
      "hit": false,
      "t": 216732.78300000043,
      "d": 1243.6114843750256,
      "v": 83
    },
    {
      "midi": 67,
      "hit": false,
      "t": 216732.78300000043,
      "d": 1313.763927083346,
      "v": 84
    },
    {
      "midi": 48,
      "hit": false,
      "t": 217651.14225000044,
      "d": 280.60977083334,
      "v": 66
    },
    {
      "midi": 53,
      "hit": false,
      "t": 217957.26200000045,
      "d": 363.51720312499674,
      "v": 65
    },
    {
      "midi": 60,
      "hit": false,
      "t": 218263.38175000044,
      "d": 121.17240104166558,
      "v": 69
    },
    {
      "midi": 65,
      "hit": false,
      "t": 218263.38175000044,
      "d": 140.30488541667,
      "v": 86
    },
    {
      "midi": 69,
      "hit": false,
      "t": 218263.38175000044,
      "d": 153.0598750000063,
      "v": 76
    },
    {
      "midi": 53,
      "hit": false,
      "t": 218569.50150000045,
      "d": 1014.0216718750016,
      "v": 71
    },
    {
      "midi": 60,
      "hit": false,
      "t": 219181.74100000045,
      "d": 924.7367447916768,
      "v": 71
    },
    {
      "midi": 69,
      "hit": false,
      "t": 219181.74100000045,
      "d": 937.491734375013,
      "v": 77
    },
    {
      "midi": 65,
      "hit": false,
      "t": 219181.74100000045,
      "d": 1033.154156250006,
      "v": 80
    },
    {
      "midi": 53,
      "hit": false,
      "t": 219793.98050000044,
      "d": 599.4845104166889,
      "v": 66
    },
    {
      "midi": 62,
      "hit": false,
      "t": 220406.22000000047,
      "d": 899.2267656250042,
      "v": 64
    },
    {
      "midi": 70,
      "hit": false,
      "t": 220406.22000000047,
      "d": 899.2267656250042,
      "v": 68
    },
    {
      "midi": 67,
      "hit": false,
      "t": 220406.22000000047,
      "d": 937.491734375013,
      "v": 73
    },
    {
      "midi": 55,
      "hit": false,
      "t": 220406.22000000047,
      "d": 1224.4790000000212,
      "v": 71
    },
    {
      "midi": 62,
      "hit": false,
      "t": 221630.6990000005,
      "d": 395.40467708333745,
      "v": 72
    },
    {
      "midi": 70,
      "hit": false,
      "t": 221630.6990000005,
      "d": 401.7821718750056,
      "v": 62
    },
    {
      "midi": 67,
      "hit": false,
      "t": 221630.6990000005,
      "d": 427.29215104167815,
      "v": 71
    },
    {
      "midi": 55,
      "hit": false,
      "t": 222242.9385000005,
      "d": 191.32484374998603,
      "v": 63
    },
    {
      "midi": 63,
      "hit": false,
      "t": 222242.9385000005,
      "d": 1479.5787916666595,
      "v": 76
    },
    {
      "midi": 67,
      "hit": false,
      "t": 222242.9385000005,
      "d": 1485.9562864583277,
      "v": 80
    },
    {
      "midi": 70,
      "hit": false,
      "t": 222242.9385000005,
      "d": 1498.711276041664,
      "v": 63
    },
    {
      "midi": 51,
      "hit": false,
      "t": 222855.1780000005,
      "d": 1230.8564947916602,
      "v": 78
    },
    {
      "midi": 67,
      "hit": false,
      "t": 224079.6570000005,
      "d": 644.1269739583367,
      "v": 80
    },
    {
      "midi": 63,
      "hit": false,
      "t": 224079.6570000005,
      "d": 663.2594583333412,
      "v": 81
    },
    {
      "midi": 70,
      "hit": false,
      "t": 224079.6570000005,
      "d": 682.3919427083456,
      "v": 69
    },
    {
      "midi": 51,
      "hit": false,
      "t": 224691.8965000005,
      "d": 522.9545729166712,
      "v": 45
    },
    {
      "midi": 48,
      "hit": false,
      "t": 225304.1360000005,
      "d": 357.1397083333286,
      "v": 60
    },
    {
      "midi": 48,
      "hit": false,
      "t": 225916.3755000005,
      "d": 522.9545729166712,
      "v": 63
    },
    {
      "midi": 63,
      "hit": false,
      "t": 226528.6150000005,
      "d": 1205.3465156250168,
      "v": 73
    },
    {
      "midi": 72,
      "hit": false,
      "t": 226528.6150000005,
      "d": 1224.4790000000212,
      "v": 80
    },
    {
      "midi": 67,
      "hit": false,
      "t": 226528.6150000005,
      "d": 1345.6514010416868,
      "v": 79
    },
    {
      "midi": 48,
      "hit": false,
      "t": 227446.9742500005,
      "d": 312.4972447916807,
      "v": 63
    },
    {
      "midi": 53,
      "hit": false,
      "t": 227753.0940000005,
      "d": 1198.9690208333486,
      "v": 62
    },
    {
      "midi": 65,
      "hit": false,
      "t": 228059.21375000052,
      "d": 133.92739062500186,
      "v": 82
    },
    {
      "midi": 60,
      "hit": false,
      "t": 228059.21375000052,
      "d": 146.68238020833815,
      "v": 73
    },
    {
      "midi": 69,
      "hit": false,
      "t": 228059.21375000052,
      "d": 191.32484375001513,
      "v": 69
    },
    {
      "midi": 60,
      "hit": false,
      "t": 228977.57300000053,
      "d": 848.2068072916591,
      "v": 72
    },
    {
      "midi": 69,
      "hit": false,
      "t": 228977.57300000053,
      "d": 860.9617968749953,
      "v": 79
    },
    {
      "midi": 65,
      "hit": false,
      "t": 228977.57300000053,
      "d": 937.4917343749839,
      "v": 80
    },
    {
      "midi": 53,
      "hit": false,
      "t": 229589.81250000052,
      "d": 573.9745312499872,
      "v": 62
    },
    {
      "midi": 62,
      "hit": false,
      "t": 230202.05200000052,
      "d": 963.0017135416565,
      "v": 73
    },
    {
      "midi": 70,
      "hit": false,
      "t": 230202.05200000052,
      "d": 963.0017135416565,
      "v": 61
    },
    {
      "midi": 67,
      "hit": false,
      "t": 230202.05200000052,
      "d": 975.7567031249928,
      "v": 82
    },
    {
      "midi": 55,
      "hit": false,
      "t": 230202.05200000052,
      "d": 1715.5460989583225,
      "v": 61
    },
    {
      "midi": 70,
      "hit": false,
      "t": 231426.5310000005,
      "d": 338.0072239583242,
      "v": 69
    },
    {
      "midi": 62,
      "hit": false,
      "t": 231426.5310000005,
      "d": 369.8946979166649,
      "v": 73
    },
    {
      "midi": 67,
      "hit": false,
      "t": 231426.5310000005,
      "d": 382.64968750000116,
      "v": 77
    },
    {
      "midi": 63,
      "hit": false,
      "t": 232038.7705000005,
      "d": 1505.088770833332,
      "v": 71
    },
    {
      "midi": 67,
      "hit": false,
      "t": 232038.7705000005,
      "d": 1536.9762447916728,
      "v": 71
    },
    {
      "midi": 70,
      "hit": false,
      "t": 232038.7705000005,
      "d": 1562.4862239583454,
      "v": 61
    },
    {
      "midi": 51,
      "hit": false,
      "t": 232651.0100000005,
      "d": 1600.7511927083542,
      "v": 66
    },
    {
      "midi": 63,
      "hit": false,
      "t": 233875.48900000053,
      "d": 676.0144479166775,
      "v": 79
    },
    {
      "midi": 67,
      "hit": false,
      "t": 233875.48900000053,
      "d": 695.1469322916819,
      "v": 84
    },
    {
      "midi": 70,
      "hit": false,
      "t": 233875.48900000053,
      "d": 727.0344062500226,
      "v": 76
    },
    {
      "midi": 48,
      "hit": false,
      "t": 235099.96800000055,
      "d": 1772.9435520833358,
      "v": 56
    },
    {
      "midi": 63,
      "hit": false,
      "t": 236324.44700000054,
      "d": 1192.5915260416805,
      "v": 72
    },
    {
      "midi": 72,
      "hit": false,
      "t": 236324.44700000054,
      "d": 1205.3465156250168,
      "v": 81
    },
    {
      "midi": 67,
      "hit": false,
      "t": 236324.44700000054,
      "d": 1371.1613802083593,
      "v": 77
    },
    {
      "midi": 48,
      "hit": false,
      "t": 237242.80625000055,
      "d": 306.1197500000126,
      "v": 61
    },
    {
      "midi": 53,
      "hit": false,
      "t": 237548.92600000056,
      "d": 758.9218802083633,
      "v": 67
    },
    {
      "midi": 65,
      "hit": false,
      "t": 237855.04575000057,
      "d": 127.54989583333372,
      "v": 80
    },
    {
      "midi": 60,
      "hit": false,
      "t": 237855.04575000057,
      "d": 140.30488541667,
      "v": 75
    },
    {
      "midi": 69,
      "hit": false,
      "t": 237855.04575000057,
      "d": 172.1923593750107,
      "v": 71
    },
    {
      "midi": 60,
      "hit": false,
      "t": 238773.40500000058,
      "d": 841.8293124999909,
      "v": 73
    },
    {
      "midi": 69,
      "hit": false,
      "t": 238773.40500000058,
      "d": 867.3392916666635,
      "v": 75
    },
    {
      "midi": 65,
      "hit": false,
      "t": 238773.40500000058,
      "d": 931.1142395833158,
      "v": 82
    },
    {
      "midi": 53,
      "hit": false,
      "t": 239385.64450000058,
      "d": 593.1070156249916,
      "v": 62
    },
    {
      "midi": 70,
      "hit": false,
      "t": 239997.88400000057,
      "d": 911.9817552083405,
      "v": 58
    },
    {
      "midi": 62,
      "hit": false,
      "t": 239997.88400000057,
      "d": 937.491734375013,
      "v": 68
    },
    {
      "midi": 67,
      "hit": false,
      "t": 239997.88400000057,
      "d": 950.2467239583493,
      "v": 80
    },
    {
      "midi": 55,
      "hit": false,
      "t": 239997.88400000057,
      "d": 1843.0959947917145,
      "v": 57
    },
    {
      "midi": 70,
      "hit": false,
      "t": 241222.3630000006,
      "d": 267.8547812500037,
      "v": 66
    },
    {
      "midi": 62,
      "hit": false,
      "t": 241222.3630000006,
      "d": 293.3647604166763,
      "v": 74
    },
    {
      "midi": 67,
      "hit": false,
      "t": 241222.3630000006,
      "d": 331.62972916668514,
      "v": 71
    },
    {
      "midi": 63,
      "hit": false,
      "t": 241834.60250000062,
      "d": 1505.088770833332,
      "v": 69
    },
    {
      "midi": 67,
      "hit": false,
      "t": 241834.60250000062,
      "d": 1536.9762447916728,
      "v": 68
    },
    {
      "midi": 70,
      "hit": false,
      "t": 241834.60250000062,
      "d": 1562.4862239583454,
      "v": 58
    },
    {
      "midi": 51,
      "hit": false,
      "t": 242446.84200000062,
      "d": 1639.016161458363,
      "v": 51
    },
    {
      "midi": 63,
      "hit": false,
      "t": 243671.32100000064,
      "d": 975.7567031250219,
      "v": 74
    },
    {
      "midi": 70,
      "hit": false,
      "t": 243671.32100000064,
      "d": 1001.2666822916945,
      "v": 71
    },
    {
      "midi": 67,
      "hit": false,
      "t": 243671.32100000064,
      "d": 1020.3991666666989,
      "v": 79
    },
    {
      "midi": 48,
      "hit": false,
      "t": 244895.80000000066,
      "d": 1301.0089375000098,
      "v": 48
    },
    {
      "midi": 63,
      "hit": false,
      "t": 245508.03950000065,
      "d": 682.3919427083456,
      "v": 77
    },
    {
      "midi": 67,
      "hit": false,
      "t": 245508.03950000065,
      "d": 701.52442708335,
      "v": 77
    },
    {
      "midi": 72,
      "hit": false,
      "t": 245508.03950000065,
      "d": 733.4119010416907,
      "v": 71
    },
    {
      "midi": 63,
      "hit": false,
      "t": 246426.3987500007,
      "d": 446.4246354166535,
      "v": 82
    },
    {
      "midi": 72,
      "hit": false,
      "t": 246426.3987500007,
      "d": 459.17962499998976,
      "v": 71
    },
    {
      "midi": 67,
      "hit": false,
      "t": 246426.3987500007,
      "d": 586.7295208333235,
      "v": 79
    },
    {
      "midi": 48,
      "hit": false,
      "t": 247038.6382500007,
      "d": 293.3647604166763,
      "v": 66
    },
    {
      "midi": 53,
      "hit": false,
      "t": 247344.7580000007,
      "d": 1211.724010416685,
      "v": 60
    },
    {
      "midi": 60,
      "hit": false,
      "t": 247650.8777500007,
      "d": 146.68238020833815,
      "v": 70
    },
    {
      "midi": 65,
      "hit": false,
      "t": 247650.8777500007,
      "d": 153.0598750000063,
      "v": 88
    },
    {
      "midi": 69,
      "hit": false,
      "t": 247650.8777500007,
      "d": 191.32484375001513,
      "v": 75
    },
    {
      "midi": 60,
      "hit": false,
      "t": 248569.23700000072,
      "d": 867.3392916666635,
      "v": 74
    },
    {
      "midi": 69,
      "hit": false,
      "t": 248569.23700000072,
      "d": 886.4717760416679,
      "v": 82
    },
    {
      "midi": 65,
      "hit": false,
      "t": 248569.23700000072,
      "d": 969.3792083333246,
      "v": 86
    },
    {
      "midi": 53,
      "hit": false,
      "t": 249181.47650000072,
      "d": 599.4845104166598,
      "v": 52
    },
    {
      "midi": 70,
      "hit": false,
      "t": 249793.7160000007,
      "d": 931.1142395833449,
      "v": 75
    },
    {
      "midi": 62,
      "hit": false,
      "t": 249793.7160000007,
      "d": 937.491734375013,
      "v": 67
    },
    {
      "midi": 67,
      "hit": false,
      "t": 249793.7160000007,
      "d": 937.491734375013,
      "v": 83
    },
    {
      "midi": 55,
      "hit": false,
      "t": 249793.7160000007,
      "d": 2053.553322916676,
      "v": 58
    },
    {
      "midi": 70,
      "hit": false,
      "t": 251018.19500000073,
      "d": 331.62972916665603,
      "v": 70
    },
    {
      "midi": 67,
      "hit": false,
      "t": 251018.19500000073,
      "d": 369.8946979166649,
      "v": 82
    },
    {
      "midi": 62,
      "hit": false,
      "t": 251018.19500000073,
      "d": 376.272192708333,
      "v": 72
    },
    {
      "midi": 63,
      "hit": false,
      "t": 251630.43450000073,
      "d": 1434.9363281249825,
      "v": 70
    },
    {
      "midi": 67,
      "hit": false,
      "t": 251630.43450000073,
      "d": 1454.068812499987,
      "v": 71
    },
    {
      "midi": 70,
      "hit": false,
      "t": 251630.43450000073,
      "d": 1473.2012968749914,
      "v": 65
    },
    {
      "midi": 51,
      "hit": false,
      "t": 252242.67400000073,
      "d": 1332.8964114583214,
      "v": 54
    },
    {
      "midi": 67,
      "hit": false,
      "t": 253467.15300000072,
      "d": 950.2467239583202,
      "v": 84
    },
    {
      "midi": 63,
      "hit": false,
      "t": 253467.15300000072,
      "d": 988.5116927083291,
      "v": 75
    },
    {
      "midi": 70,
      "hit": false,
      "t": 253467.15300000072,
      "d": 1020.3991666666698,
      "v": 70
    },
    {
      "midi": 51,
      "hit": false,
      "t": 254079.39250000071,
      "d": 586.7295208333526,
      "v": 52
    },
    {
      "midi": 48,
      "hit": false,
      "t": 254691.63200000074,
      "d": 1772.9435520833358,
      "v": 63
    },
    {
      "midi": 63,
      "hit": false,
      "t": 255303.87150000074,
      "d": 140.30488541667,
      "v": 79
    },
    {
      "midi": 67,
      "hit": false,
      "t": 255303.87150000074,
      "d": 159.43736979167443,
      "v": 85
    },
    {
      "midi": 72,
      "hit": false,
      "t": 255303.87150000074,
      "d": 159.43736979167443,
      "v": 80
    },
    {
      "midi": 63,
      "hit": false,
      "t": 256222.23075000074,
      "d": 586.7295208333235,
      "v": 79
    },
    {
      "midi": 72,
      "hit": false,
      "t": 256222.23075000074,
      "d": 593.1070156249916,
      "v": 77
    },
    {
      "midi": 67,
      "hit": false,
      "t": 256222.23075000074,
      "d": 695.1469322916528,
      "v": 77
    },
    {
      "midi": 48,
      "hit": false,
      "t": 256834.47025000074,
      "d": 331.62972916665603,
      "v": 66
    },
    {
      "midi": 60,
      "hit": false,
      "t": 257140.59000000072,
      "d": 676.0144479166775,
      "v": 73
    },
    {
      "midi": 65,
      "hit": false,
      "t": 257140.59000000072,
      "d": 682.3919427083456,
      "v": 90
    },
    {
      "midi": 69,
      "hit": false,
      "t": 257140.59000000072,
      "d": 688.7694375000137,
      "v": 81
    },
    {
      "midi": 53,
      "hit": false,
      "t": 257140.59000000072,
      "d": 1619.8836770833586,
      "v": 66
    },
    {
      "midi": 65,
      "hit": false,
      "t": 258058.94925000073,
      "d": 127.54989583333372,
      "v": 81
    },
    {
      "midi": 60,
      "hit": false,
      "t": 258058.94925000073,
      "d": 140.30488541667,
      "v": 71
    },
    {
      "midi": 69,
      "hit": false,
      "t": 258058.94925000073,
      "d": 153.0598750000063,
      "v": 85
    },
    {
      "midi": 60,
      "hit": false,
      "t": 258977.30850000074,
      "d": 312.4972447916807,
      "v": 72
    },
    {
      "midi": 69,
      "hit": false,
      "t": 258977.30850000074,
      "d": 338.0072239583533,
      "v": 82
    },
    {
      "midi": 65,
      "hit": false,
      "t": 258977.30850000074,
      "d": 414.53716145834187,
      "v": 85
    },
    {
      "midi": 53,
      "hit": false,
      "t": 258977.30850000074,
      "d": 554.8420468750119,
      "v": 64
    },
    {
      "midi": 62,
      "hit": false,
      "t": 259589.54800000077,
      "d": 873.7167864583316,
      "v": 67
    },
    {
      "midi": 67,
      "hit": false,
      "t": 259589.54800000077,
      "d": 873.7167864583316,
      "v": 80
    },
    {
      "midi": 70,
      "hit": false,
      "t": 259589.54800000077,
      "d": 873.7167864583316,
      "v": 69
    },
    {
      "midi": 55,
      "hit": false,
      "t": 259589.54800000077,
      "d": 1906.8709427083377,
      "v": 54
    },
    {
      "midi": 70,
      "hit": false,
      "t": 260814.02700000076,
      "d": 408.15966666667373,
      "v": 68
    },
    {
      "midi": 67,
      "hit": false,
      "t": 260814.02700000076,
      "d": 433.6696458333463,
      "v": 80
    },
    {
      "midi": 62,
      "hit": false,
      "t": 260814.02700000076,
      "d": 452.8021302083507,
      "v": 77
    },
    {
      "midi": 63,
      "hit": false,
      "t": 261426.26650000078,
      "d": 1454.068812499987,
      "v": 64
    },
    {
      "midi": 67,
      "hit": false,
      "t": 261426.26650000078,
      "d": 1460.446307291626,
      "v": 70
    },
    {
      "midi": 70,
      "hit": false,
      "t": 261426.26650000078,
      "d": 1498.7112760416348,
      "v": 58
    },
    {
      "midi": 55,
      "hit": false,
      "t": 261732.38625000077,
      "d": 235.96730729166302,
      "v": 65
    },
    {
      "midi": 51,
      "hit": false,
      "t": 262038.50600000075,
      "d": 1511.4662656249711,
      "v": 48
    },
    {
      "midi": 63,
      "hit": false,
      "t": 263262.98500000074,
      "d": 950.2467239582911,
      "v": 79
    },
    {
      "midi": 70,
      "hit": false,
      "t": 263262.98500000074,
      "d": 956.6242187499302,
      "v": 72
    },
    {
      "midi": 67,
      "hit": false,
      "t": 263262.98500000074,
      "d": 963.0017135415692,
      "v": 79
    },
    {
      "midi": 51,
      "hit": false,
      "t": 263875.2245000007,
      "d": 567.5970364582608,
      "v": 54
    },
    {
      "midi": 48,
      "hit": false,
      "t": 264487.4640000006,
      "d": 1613.5061822916032,
      "v": 74
    },
    {
      "midi": 63,
      "hit": false,
      "t": 265099.70350000064,
      "d": 140.3048854166409,
      "v": 75
    },
    {
      "midi": 67,
      "hit": false,
      "t": 265099.70350000064,
      "d": 159.43736979161622,
      "v": 72
    },
    {
      "midi": 72,
      "hit": false,
      "t": 265099.70350000064,
      "d": 165.81486458325526,
      "v": 73
    },
    {
      "midi": 72,
      "hit": false,
      "t": 266018.06275000056,
      "d": 701.5244270833209,
      "v": 73
    },
    {
      "midi": 63,
      "hit": false,
      "t": 266018.06275000056,
      "d": 720.6569114582962,
      "v": 76
    },
    {
      "midi": 67,
      "hit": false,
      "t": 266018.06275000056,
      "d": 931.1142395833158,
      "v": 79
    },
    {
      "midi": 48,
      "hit": false,
      "t": 266630.30225000053,
      "d": 306.1197500000126,
      "v": 66
    },
    {
      "midi": 53,
      "hit": false,
      "t": 266936.42200000054,
      "d": 1919.6259322916158,
      "v": 69
    },
    {
      "midi": 60,
      "hit": false,
      "t": 267242.54175000056,
      "d": 127.54989583330462,
      "v": 69
    },
    {
      "midi": 65,
      "hit": false,
      "t": 267242.54175000056,
      "d": 133.92739062494365,
      "v": 84
    },
    {
      "midi": 69,
      "hit": false,
      "t": 267242.54175000056,
      "d": 165.81486458325526,
      "v": 82
    },
    {
      "midi": 60,
      "hit": false,
      "t": 268160.9010000005,
      "d": 701.5244270833209,
      "v": 71
    },
    {
      "midi": 65,
      "hit": false,
      "t": 268160.9010000005,
      "d": 707.90192187496,
      "v": 88
    },
    {
      "midi": 69,
      "hit": false,
      "t": 268160.9010000005,
      "d": 707.90192187496,
      "v": 81
    },
    {
      "midi": 62,
      "hit": false,
      "t": 269385.3800000004,
      "d": 822.6968281249865,
      "v": 73
    },
    {
      "midi": 55,
      "hit": false,
      "t": 269385.3800000004,
      "d": 835.4518177083228,
      "v": 77
    },
    {
      "midi": 70,
      "hit": false,
      "t": 269385.3800000004,
      "d": 835.4518177083228,
      "v": 77
    },
    {
      "midi": 67,
      "hit": false,
      "t": 269385.3800000004,
      "d": 848.2068072916591,
      "v": 87
    },
    {
      "midi": 70,
      "hit": false,
      "t": 270609.8590000004,
      "d": 459.17962499998976,
      "v": 82
    },
    {
      "midi": 62,
      "hit": false,
      "t": 270609.8590000004,
      "d": 478.3121093749651,
      "v": 87
    },
    {
      "midi": 67,
      "hit": false,
      "t": 270609.8590000004,
      "d": 478.3121093749651,
      "v": 82
    },
    {
      "midi": 63,
      "hit": false,
      "t": 271222.0985000004,
      "d": 1390.2938645833638,
      "v": 79
    },
    {
      "midi": 67,
      "hit": false,
      "t": 271222.0985000004,
      "d": 1422.1813385416754,
      "v": 78
    },
    {
      "midi": 70,
      "hit": false,
      "t": 271222.0985000004,
      "d": 1422.1813385416754,
      "v": 60
    },
    {
      "midi": 51,
      "hit": false,
      "t": 271834.3380000004,
      "d": 293.3647604166763,
      "v": 50
    },
    {
      "midi": 51,
      "hit": false,
      "t": 272446.5775000004,
      "d": 688.7694374999846,
      "v": 60
    },
    {
      "midi": 63,
      "hit": false,
      "t": 273058.8170000004,
      "d": 695.1469322916819,
      "v": 88
    },
    {
      "midi": 67,
      "hit": false,
      "t": 273058.8170000004,
      "d": 720.6569114583544,
      "v": 97
    },
    {
      "midi": 70,
      "hit": false,
      "t": 273058.8170000004,
      "d": 727.0344062499935,
      "v": 85
    },
    {
      "midi": 48,
      "hit": false,
      "t": 274283.2960000004,
      "d": 758.9218802083051,
      "v": 65
    },
    {
      "midi": 63,
      "hit": false,
      "t": 275507.7750000004,
      "d": 1294.6314427083125,
      "v": 85
    },
    {
      "midi": 72,
      "hit": false,
      "t": 275507.7750000004,
      "d": 1358.406390624994,
      "v": 82
    },
    {
      "midi": 67,
      "hit": false,
      "t": 275507.7750000004,
      "d": 1396.6713593750028,
      "v": 85
    },
    {
      "midi": 48,
      "hit": false,
      "t": 276426.13425000035,
      "d": 280.60977083334,
      "v": 63
    },
    {
      "midi": 53,
      "hit": false,
      "t": 276732.25400000036,
      "d": 261.4772864583647,
      "v": 72
    },
    {
      "midi": 65,
      "hit": false,
      "t": 277038.3737500004,
      "d": 127.54989583330462,
      "v": 85
    },
    {
      "midi": 60,
      "hit": false,
      "t": 277038.3737500004,
      "d": 133.92739062494365,
      "v": 77
    },
    {
      "midi": 69,
      "hit": false,
      "t": 277038.3737500004,
      "d": 172.1923593749525,
      "v": 76
    },
    {
      "midi": 53,
      "hit": false,
      "t": 277344.49350000033,
      "d": 618.6169947916642,
      "v": 78
    },
    {
      "midi": 60,
      "hit": false,
      "t": 277956.73300000036,
      "d": 867.3392916666344,
      "v": 79
    },
    {
      "midi": 69,
      "hit": false,
      "t": 277956.73300000036,
      "d": 905.6042604166432,
      "v": 84
    },
    {
      "midi": 65,
      "hit": false,
      "t": 277956.73300000036,
      "d": 963.0017135416274,
      "v": 97
    },
    {
      "midi": 53,
      "hit": false,
      "t": 278568.9725000003,
      "d": 561.21954166668,
      "v": 60
    },
    {
      "midi": 70,
      "hit": false,
      "t": 279181.21200000035,
      "d": 880.0942812500289,
      "v": 69
    },
    {
      "midi": 62,
      "hit": false,
      "t": 279181.21200000035,
      "d": 886.4717760416679,
      "v": 70
    },
    {
      "midi": 67,
      "hit": false,
      "t": 279181.21200000035,
      "d": 892.849270833307,
      "v": 84
    },
    {
      "midi": 55,
      "hit": false,
      "t": 279181.21200000035,
      "d": 1983.4008802082972,
      "v": 70
    },
    {
      "midi": 70,
      "hit": false,
      "t": 280405.69100000034,
      "d": 478.3121093750233,
      "v": 79
    },
    {
      "midi": 62,
      "hit": false,
      "t": 280405.69100000034,
      "d": 484.6896041666623,
      "v": 80
    },
    {
      "midi": 67,
      "hit": false,
      "t": 280405.69100000034,
      "d": 491.06709895830136,
      "v": 81
    },
    {
      "midi": 63,
      "hit": false,
      "t": 281017.9305000003,
      "d": 1479.5787916667177,
      "v": 73
    },
    {
      "midi": 67,
      "hit": false,
      "t": 281017.9305000003,
      "d": 1524.2212552083656,
      "v": 71
    },
    {
      "midi": 70,
      "hit": false,
      "t": 281017.9305000003,
      "d": 1536.976244791702,
      "v": 57
    },
    {
      "midi": 51,
      "hit": false,
      "t": 281630.17000000033,
      "d": 1269.12146354164,
      "v": 83
    },
    {
      "midi": 63,
      "hit": false,
      "t": 282854.6490000003,
      "d": 1211.7240104166558,
      "v": 81
    },
    {
      "midi": 70,
      "hit": false,
      "t": 282854.6490000003,
      "d": 1218.1015052082948,
      "v": 72
    },
    {
      "midi": 67,
      "hit": false,
      "t": 282854.6490000003,
      "d": 1230.856494791573,
      "v": 80
    },
    {
      "midi": 48,
      "hit": false,
      "t": 284079.12800000026,
      "d": 344.3847187499632,
      "v": 67
    },
    {
      "midi": 48,
      "hit": false,
      "t": 284691.3675000002,
      "d": 637.7494791666977,
      "v": 62
    },
    {
      "midi": 63,
      "hit": false,
      "t": 285303.60700000025,
      "d": 1090.5516093749902,
      "v": 74
    },
    {
      "midi": 72,
      "hit": false,
      "t": 285303.60700000025,
      "d": 1243.6114843749674,
      "v": 78
    },
    {
      "midi": 67,
      "hit": false,
      "t": 285303.60700000025,
      "d": 1313.7639270832879,
      "v": 85
    },
    {
      "midi": 48,
      "hit": false,
      "t": 286221.96625000023,
      "d": 280.60977083334,
      "v": 66
    },
    {
      "midi": 53,
      "hit": false,
      "t": 286528.08600000024,
      "d": 363.51720312493853,
      "v": 70
    },
    {
      "midi": 60,
      "hit": false,
      "t": 286834.2057500002,
      "d": 121.17240104166558,
      "v": 74
    },
    {
      "midi": 65,
      "hit": false,
      "t": 286834.2057500002,
      "d": 140.3048854166409,
      "v": 84
    },
    {
      "midi": 69,
      "hit": false,
      "t": 286834.2057500002,
      "d": 153.05987499997718,
      "v": 75
    },
    {
      "midi": 53,
      "hit": false,
      "t": 287140.32550000015,
      "d": 1014.0216718750307,
      "v": 68
    },
    {
      "midi": 60,
      "hit": false,
      "t": 287752.5650000002,
      "d": 924.7367447916768,
      "v": 74
    },
    {
      "midi": 69,
      "hit": false,
      "t": 287752.5650000002,
      "d": 937.491734375013,
      "v": 75
    },
    {
      "midi": 65,
      "hit": false,
      "t": 287752.5650000002,
      "d": 1033.154156250006,
      "v": 85
    },
    {
      "midi": 53,
      "hit": false,
      "t": 288364.8045000002,
      "d": 599.4845104166307,
      "v": 62
    },
    {
      "midi": 62,
      "hit": false,
      "t": 288977.04400000017,
      "d": 899.2267656250042,
      "v": 68
    },
    {
      "midi": 70,
      "hit": false,
      "t": 288977.04400000017,
      "d": 899.2267656250042,
      "v": 67
    },
    {
      "midi": 67,
      "hit": false,
      "t": 288977.04400000017,
      "d": 937.491734375013,
      "v": 79
    },
    {
      "midi": 55,
      "hit": false,
      "t": 288977.04400000017,
      "d": 1224.478999999992,
      "v": 65
    },
    {
      "midi": 62,
      "hit": false,
      "t": 290201.52300000016,
      "d": 395.40467708330834,
      "v": 71
    },
    {
      "midi": 70,
      "hit": false,
      "t": 290201.52300000016,
      "d": 401.7821718749474,
      "v": 64
    },
    {
      "midi": 67,
      "hit": false,
      "t": 290201.52300000016,
      "d": 427.29215104161995,
      "v": 73
    },
    {
      "midi": 55,
      "hit": false,
      "t": 290813.7625000001,
      "d": 191.32484374998603,
      "v": 59
    },
    {
      "midi": 63,
      "hit": false,
      "t": 290813.7625000001,
      "d": 1479.5787916666595,
      "v": 77
    },
    {
      "midi": 67,
      "hit": false,
      "t": 290813.7625000001,
      "d": 1485.9562864582986,
      "v": 77
    },
    {
      "midi": 70,
      "hit": false,
      "t": 290813.7625000001,
      "d": 1498.7112760416348,
      "v": 65
    },
    {
      "midi": 51,
      "hit": false,
      "t": 291426.0020000001,
      "d": 1230.8564947916311,
      "v": 79
    },
    {
      "midi": 67,
      "hit": false,
      "t": 292650.4810000001,
      "d": 644.1269739582785,
      "v": 83
    },
    {
      "midi": 63,
      "hit": false,
      "t": 292650.4810000001,
      "d": 663.2594583332539,
      "v": 77
    },
    {
      "midi": 70,
      "hit": false,
      "t": 292650.4810000001,
      "d": 682.3919427082292,
      "v": 64
    },
    {
      "midi": 51,
      "hit": false,
      "t": 293262.72050000005,
      "d": 522.954572916613,
      "v": 40
    },
    {
      "midi": 48,
      "hit": false,
      "t": 293874.96,
      "d": 357.1397083333577,
      "v": 61
    },
    {
      "midi": 48,
      "hit": false,
      "t": 294487.19950000005,
      "d": 522.9545729166712,
      "v": 64
    },
    {
      "midi": 63,
      "hit": false,
      "t": 295099.4390000001,
      "d": 1205.3465156249586,
      "v": 69
    },
    {
      "midi": 72,
      "hit": false,
      "t": 295099.4390000001,
      "d": 1224.4789999999339,
      "v": 75
    },
    {
      "midi": 67,
      "hit": false,
      "t": 295099.4390000001,
      "d": 1345.6514010415995,
      "v": 81
    },
    {
      "midi": 48,
      "hit": false,
      "t": 296017.79825000005,
      "d": 312.4972447915934,
      "v": 62
    },
    {
      "midi": 53,
      "hit": false,
      "t": 296323.918,
      "d": 1198.9690208333195,
      "v": 64
    },
    {
      "midi": 65,
      "hit": false,
      "t": 296630.03775,
      "d": 133.92739062500186,
      "v": 76
    },
    {
      "midi": 60,
      "hit": false,
      "t": 296630.03775,
      "d": 146.68238020833815,
      "v": 67
    },
    {
      "midi": 69,
      "hit": false,
      "t": 296630.03775,
      "d": 191.32484374998603,
      "v": 70
    },
    {
      "midi": 60,
      "hit": false,
      "t": 297548.397,
      "d": 848.2068072917173,
      "v": 76
    },
    {
      "midi": 69,
      "hit": false,
      "t": 297548.397,
      "d": 860.9617968750536,
      "v": 82
    },
    {
      "midi": 65,
      "hit": false,
      "t": 297548.397,
      "d": 937.4917343750712,
      "v": 82
    },
    {
      "midi": 49,
      "hit": false,
      "t": 298160.6365,
      "d": 816.3193333333475,
      "v": 67
    },
    {
      "midi": 54,
      "hit": false,
      "t": 298160.6365,
      "d": 835.4518177083228,
      "v": 79
    },
    {
      "midi": 61,
      "hit": false,
      "t": 298772.87600000005,
      "d": 286.98726562497905,
      "v": 92
    },
    {
      "midi": 66,
      "hit": false,
      "t": 298772.87600000005,
      "d": 286.98726562497905,
      "v": 91
    },
    {
      "midi": 70,
      "hit": false,
      "t": 298772.87600000005,
      "d": 286.98726562497905,
      "v": 94
    },
    {
      "midi": 66,
      "hit": false,
      "t": 298772.8760000002,
      "d": 2442.580505208345,
      "v": 1
    },
    {
      "midi": 70,
      "hit": false,
      "t": 298772.8760000002,
      "d": 2442.580505208345,
      "v": 1
    },
    {
      "midi": 61,
      "hit": false,
      "t": 299385.1155,
      "d": 286.98726562497905,
      "v": 69
    },
    {
      "midi": 66,
      "hit": false,
      "t": 299385.1155,
      "d": 286.98726562497905,
      "v": 108
    },
    {
      "midi": 70,
      "hit": false,
      "t": 299385.1155,
      "d": 286.98726562497905,
      "v": 83
    },
    {
      "midi": 49,
      "hit": false,
      "t": 299385.1155,
      "d": 943.8692291666521,
      "v": 68
    },
    {
      "midi": 54,
      "hit": false,
      "t": 299385.1155,
      "d": 975.7567031249637,
      "v": 83
    },
    {
      "midi": 48,
      "hit": false,
      "t": 300609.5945,
      "d": 848.2068072917173,
      "v": 78
    },
    {
      "midi": 53,
      "hit": false,
      "t": 300609.5945,
      "d": 860.9617968750536,
      "v": 85
    },
    {
      "midi": 60,
      "hit": false,
      "t": 301221.83400000003,
      "d": 286.98726562503725,
      "v": 89
    },
    {
      "midi": 65,
      "hit": false,
      "t": 301221.83400000003,
      "d": 286.98726562503725,
      "v": 89
    },
    {
      "midi": 69,
      "hit": false,
      "t": 301221.83400000003,
      "d": 286.98726562503725,
      "v": 84
    },
    {
      "midi": 65,
      "hit": false,
      "t": 301221.8340000002,
      "d": 1830.34100520832,
      "v": 1
    },
    {
      "midi": 69,
      "hit": false,
      "t": 301221.8340000002,
      "d": 1830.34100520832,
      "v": 1
    },
    {
      "midi": 60,
      "hit": false,
      "t": 301834.07350000006,
      "d": 286.98726562497905,
      "v": 90
    },
    {
      "midi": 65,
      "hit": false,
      "t": 301834.07350000006,
      "d": 286.98726562497905,
      "v": 92
    },
    {
      "midi": 69,
      "hit": false,
      "t": 301834.07350000006,
      "d": 286.98726562497905,
      "v": 93
    },
    {
      "midi": 53,
      "hit": false,
      "t": 301834.07350000006,
      "d": 911.9817552083405,
      "v": 80
    },
    {
      "midi": 48,
      "hit": false,
      "t": 301834.07350000006,
      "d": 924.7367447916768,
      "v": 75
    },
    {
      "midi": 46,
      "hit": false,
      "t": 303058.55250000005,
      "d": 797.1868489583721,
      "v": 65
    },
    {
      "midi": 51,
      "hit": false,
      "t": 303058.55250000005,
      "d": 803.5643437500112,
      "v": 80
    },
    {
      "midi": 63,
      "hit": false,
      "t": 303058.55250000017,
      "d": 3054.820005208312,
      "v": 1
    },
    {
      "midi": 67,
      "hit": false,
      "t": 303058.55250000017,
      "d": 5503.778005208296,
      "v": 1
    },
    {
      "midi": 58,
      "hit": false,
      "t": 303670.7920000001,
      "d": 286.98726562497905,
      "v": 69
    },
    {
      "midi": 63,
      "hit": false,
      "t": 303670.7920000001,
      "d": 286.98726562497905,
      "v": 88
    },
    {
      "midi": 67,
      "hit": false,
      "t": 303670.7920000001,
      "d": 286.98726562497905,
      "v": 84
    },
    {
      "midi": 58,
      "hit": false,
      "t": 304283.03150000004,
      "d": 286.98726562497905,
      "v": 72
    },
    {
      "midi": 63,
      "hit": false,
      "t": 304283.03150000004,
      "d": 286.98726562497905,
      "v": 95
    },
    {
      "midi": 67,
      "hit": false,
      "t": 304283.03150000004,
      "d": 286.98726562497905,
      "v": 86
    },
    {
      "midi": 46,
      "hit": false,
      "t": 304283.03150000004,
      "d": 905.6042604166432,
      "v": 74
    },
    {
      "midi": 51,
      "hit": false,
      "t": 304283.03150000004,
      "d": 975.7567031249637,
      "v": 79
    },
    {
      "midi": 50,
      "hit": false,
      "t": 305507.51050000003,
      "d": 758.9218802083633,
      "v": 72
    },
    {
      "midi": 55,
      "hit": false,
      "t": 305507.51050000003,
      "d": 765.2993750000023,
      "v": 79
    },
    {
      "midi": 58,
      "hit": false,
      "t": 306119.75000000006,
      "d": 286.98726562497905,
      "v": 73
    },
    {
      "midi": 62,
      "hit": false,
      "t": 306119.75000000006,
      "d": 286.98726562497905,
      "v": 89
    },
    {
      "midi": 67,
      "hit": false,
      "t": 306119.75000000006,
      "d": 286.98726562497905,
      "v": 66
    },
    {
      "midi": 62,
      "hit": false,
      "t": 306119.7500000001,
      "d": 2442.580505208345,
      "v": 1
    },
    {
      "midi": 58,
      "hit": false,
      "t": 306731.9895,
      "d": 286.98726562497905,
      "v": 78
    },
    {
      "midi": 62,
      "hit": false,
      "t": 306731.9895,
      "d": 286.98726562497905,
      "v": 96
    },
    {
      "midi": 67,
      "hit": false,
      "t": 306731.9895,
      "d": 286.98726562497905,
      "v": 83
    },
    {
      "midi": 55,
      "hit": false,
      "t": 306731.9895,
      "d": 937.4917343749548,
      "v": 77
    },
    {
      "midi": 50,
      "hit": false,
      "t": 306731.9895,
      "d": 943.8692291665939,
      "v": 76
    },
    {
      "midi": 62,
      "hit": false,
      "t": 307956.46849999996,
      "d": 286.98726562497905,
      "v": 76
    },
    {
      "midi": 67,
      "hit": false,
      "t": 307956.46849999996,
      "d": 286.98726562497905,
      "v": 86
    },
    {
      "midi": 70,
      "hit": false,
      "t": 307956.46849999996,
      "d": 286.98726562497905,
      "v": 69
    },
    {
      "midi": 49,
      "hit": false,
      "t": 307956.46849999996,
      "d": 822.6968281249865,
      "v": 65
    },
    {
      "midi": 54,
      "hit": false,
      "t": 307956.46849999996,
      "d": 841.8293124999618,
      "v": 75
    },
    {
      "midi": 61,
      "hit": false,
      "t": 308568.7079999999,
      "d": 286.98726562497905,
      "v": 74
    },
    {
      "midi": 66,
      "hit": false,
      "t": 308568.7079999999,
      "d": 286.98726562497905,
      "v": 82
    },
    {
      "midi": 70,
      "hit": false,
      "t": 308568.7079999999,
      "d": 286.98726562497905,
      "v": 83
    },
    {
      "midi": 66,
      "hit": false,
      "t": 308568.7080000001,
      "d": 2442.580505208345,
      "v": 1
    },
    {
      "midi": 70,
      "hit": false,
      "t": 308568.7080000001,
      "d": 2442.580505208345,
      "v": 1
    },
    {
      "midi": 61,
      "hit": false,
      "t": 309180.9474999999,
      "d": 286.98726562497905,
      "v": 72
    },
    {
      "midi": 66,
      "hit": false,
      "t": 309180.9474999999,
      "d": 286.98726562497905,
      "v": 105
    },
    {
      "midi": 70,
      "hit": false,
      "t": 309180.9474999999,
      "d": 286.98726562497905,
      "v": 78
    },
    {
      "midi": 49,
      "hit": false,
      "t": 309180.9474999999,
      "d": 950.2467239582911,
      "v": 79
    },
    {
      "midi": 54,
      "hit": false,
      "t": 309180.9474999999,
      "d": 950.2467239582911,
      "v": 75
    },
    {
      "midi": 48,
      "hit": false,
      "t": 310405.4264999998,
      "d": 835.451817708381,
      "v": 76
    },
    {
      "midi": 53,
      "hit": false,
      "t": 310405.4264999998,
      "d": 854.5843020833563,
      "v": 77
    },
    {
      "midi": 60,
      "hit": false,
      "t": 311017.66599999985,
      "d": 286.98726562497905,
      "v": 77
    },
    {
      "midi": 65,
      "hit": false,
      "t": 311017.66599999985,
      "d": 286.98726562497905,
      "v": 96
    },
    {
      "midi": 69,
      "hit": false,
      "t": 311017.66599999985,
      "d": 286.98726562497905,
      "v": 77
    },
    {
      "midi": 65,
      "hit": false,
      "t": 311017.6660000001,
      "d": 1830.34100520832,
      "v": 1
    },
    {
      "midi": 69,
      "hit": false,
      "t": 311017.6660000001,
      "d": 1830.34100520832,
      "v": 1
    },
    {
      "midi": 60,
      "hit": false,
      "t": 311629.9054999998,
      "d": 286.98726562497905,
      "v": 75
    },
    {
      "midi": 65,
      "hit": false,
      "t": 311629.9054999998,
      "d": 286.98726562497905,
      "v": 99
    },
    {
      "midi": 69,
      "hit": false,
      "t": 311629.9054999998,
      "d": 286.98726562497905,
      "v": 77
    },
    {
      "midi": 53,
      "hit": false,
      "t": 311629.9054999998,
      "d": 873.7167864583316,
      "v": 81
    },
    {
      "midi": 48,
      "hit": false,
      "t": 311629.9054999998,
      "d": 886.4717760416679,
      "v": 73
    },
    {
      "midi": 46,
      "hit": false,
      "t": 312854.3844999998,
      "d": 860.9617968750536,
      "v": 65
    },
    {
      "midi": 51,
      "hit": false,
      "t": 312854.3844999998,
      "d": 886.4717760417261,
      "v": 78
    },
    {
      "midi": 63,
      "hit": false,
      "t": 312854.38450000004,
      "d": 3054.820005208312,
      "v": 1
    },
    {
      "midi": 67,
      "hit": false,
      "t": 312854.38450000004,
      "d": 3054.820005208312,
      "v": 1
    },
    {
      "midi": 58,
      "hit": false,
      "t": 313466.62399999984,
      "d": 286.98726562503725,
      "v": 69
    },
    {
      "midi": 63,
      "hit": false,
      "t": 313466.62399999984,
      "d": 286.98726562503725,
      "v": 91
    },
    {
      "midi": 67,
      "hit": false,
      "t": 313466.62399999984,
      "d": 286.98726562503725,
      "v": 84
    },
    {
      "midi": 58,
      "hit": false,
      "t": 314078.86349999986,
      "d": 286.98726562497905,
      "v": 72
    },
    {
      "midi": 63,
      "hit": false,
      "t": 314078.86349999986,
      "d": 286.98726562497905,
      "v": 88
    },
    {
      "midi": 67,
      "hit": false,
      "t": 314078.86349999986,
      "d": 286.98726562497905,
      "v": 88
    },
    {
      "midi": 46,
      "hit": false,
      "t": 314078.86349999986,
      "d": 963.0017135416274,
      "v": 73
    },
    {
      "midi": 51,
      "hit": false,
      "t": 314078.86349999986,
      "d": 1014.0216718749725,
      "v": 87
    },
    {
      "midi": 48,
      "hit": false,
      "t": 315303.34249999985,
      "d": 822.6968281250447,
      "v": 76
    },
    {
      "midi": 53,
      "hit": false,
      "t": 315303.34249999985,
      "d": 822.6968281250447,
      "v": 79
    },
    {
      "midi": 60,
      "hit": false,
      "t": 315915.5819999999,
      "d": 286.98726562503725,
      "v": 88
    },
    {
      "midi": 65,
      "hit": false,
      "t": 315915.5819999999,
      "d": 286.98726562503725,
      "v": 94
    },
    {
      "midi": 69,
      "hit": false,
      "t": 315915.5819999999,
      "d": 286.98726562503725,
      "v": 90
    },
    {
      "midi": 65,
      "hit": false,
      "t": 315915.582,
      "d": 2442.580505208345,
      "v": 1
    },
    {
      "midi": 69,
      "hit": false,
      "t": 315915.582,
      "d": 2442.580505208345,
      "v": 1
    },
    {
      "midi": 60,
      "hit": false,
      "t": 316527.8214999999,
      "d": 593.1070156249916,
      "v": 70
    },
    {
      "midi": 65,
      "hit": false,
      "t": 316527.8214999999,
      "d": 593.1070156249916,
      "v": 89
    },
    {
      "midi": 69,
      "hit": false,
      "t": 316527.8214999999,
      "d": 593.1070156249916,
      "v": 71
    },
    {
      "midi": 48,
      "hit": false,
      "t": 316527.8214999999,
      "d": 1128.816578124999,
      "v": 77
    },
    {
      "midi": 53,
      "hit": false,
      "t": 316527.8214999999,
      "d": 1128.816578124999,
      "v": 81
    },
    {
      "midi": 60,
      "hit": false,
      "t": 317446.1807499999,
      "d": 286.98726562503725,
      "v": 87
    },
    {
      "midi": 65,
      "hit": false,
      "t": 317446.1807499999,
      "d": 286.98726562503725,
      "v": 90
    },
    {
      "midi": 69,
      "hit": false,
      "t": 317446.1807499999,
      "d": 286.98726562503725,
      "v": 87
    },
    {
      "midi": 62,
      "hit": false,
      "t": 318364.5399999999,
      "d": 822.6968281249865,
      "v": 79
    },
    {
      "midi": 55,
      "hit": false,
      "t": 318364.5399999999,
      "d": 835.4518177083228,
      "v": 79
    },
    {
      "midi": 70,
      "hit": false,
      "t": 318364.5399999999,
      "d": 835.4518177083228,
      "v": 79
    },
    {
      "midi": 67,
      "hit": false,
      "t": 318364.5399999999,
      "d": 848.2068072916591,
      "v": 81
    },
    {
      "midi": 70,
      "hit": false,
      "t": 318364.54,
      "d": 4891.538505208329,
      "v": 1
    },
    {
      "midi": 67,
      "hit": false,
      "t": 318364.54,
      "d": 7327.741515624977,
      "v": 1
    },
    {
      "midi": 70,
      "hit": false,
      "t": 319589.0189999999,
      "d": 459.17962499998976,
      "v": 84
    },
    {
      "midi": 62,
      "hit": false,
      "t": 319589.0189999999,
      "d": 478.3121093749651,
      "v": 85
    },
    {
      "midi": 67,
      "hit": false,
      "t": 319589.0189999999,
      "d": 478.3121093749651,
      "v": 84
    },
    {
      "midi": 63,
      "hit": false,
      "t": 320201.2584999999,
      "d": 1390.2938645833638,
      "v": 74
    },
    {
      "midi": 67,
      "hit": false,
      "t": 320201.2584999999,
      "d": 1422.1813385416754,
      "v": 78
    },
    {
      "midi": 70,
      "hit": false,
      "t": 320201.2584999999,
      "d": 1422.1813385416754,
      "v": 62
    },
    {
      "midi": 51,
      "hit": false,
      "t": 320813.4979999999,
      "d": 293.3647604166763,
      "v": 49
    },
    {
      "midi": 63,
      "hit": false,
      "t": 320813.49799999996,
      "d": 4891.538505208329,
      "v": 1
    },
    {
      "midi": 51,
      "hit": false,
      "t": 321425.73749999993,
      "d": 688.7694374999846,
      "v": 59
    },
    {
      "midi": 63,
      "hit": false,
      "t": 322037.9769999999,
      "d": 695.1469322916819,
      "v": 90
    },
    {
      "midi": 67,
      "hit": false,
      "t": 322037.9769999999,
      "d": 720.6569114583544,
      "v": 95
    },
    {
      "midi": 70,
      "hit": false,
      "t": 322037.9769999999,
      "d": 727.0344062499935,
      "v": 87
    },
    {
      "midi": 48,
      "hit": false,
      "t": 323262.4559999999,
      "d": 758.9218802083051,
      "v": 67
    },
    {
      "midi": 60,
      "hit": false,
      "t": 323262.45599999995,
      "d": 4891.538505208329,
      "v": 1
    },
    {
      "midi": 63,
      "hit": false,
      "t": 324486.9349999999,
      "d": 1294.6314427083125,
      "v": 84
    },
    {
      "midi": 72,
      "hit": false,
      "t": 324486.9349999999,
      "d": 1358.406390624994,
      "v": 80
    },
    {
      "midi": 67,
      "hit": false,
      "t": 324486.9349999999,
      "d": 1396.6713593750028,
      "v": 87
    },
    {
      "midi": 48,
      "hit": false,
      "t": 325405.29424999986,
      "d": 280.60977083334,
      "v": 65
    },
    {
      "midi": 53,
      "hit": false,
      "t": 325711.4139999999,
      "d": 261.4772864583647,
      "v": 68
    },
    {
      "midi": 65,
      "hit": false,
      "t": 325711.41399999993,
      "d": 2442.580505208345,
      "v": 1
    },
    {
      "midi": 65,
      "hit": false,
      "t": 326017.5337499999,
      "d": 127.54989583330462,
      "v": 79
    },
    {
      "midi": 60,
      "hit": false,
      "t": 326017.5337499999,
      "d": 133.92739062494365,
      "v": 71
    },
    {
      "midi": 69,
      "hit": false,
      "t": 326017.5337499999,
      "d": 172.1923593749525,
      "v": 70
    },
    {
      "midi": 53,
      "hit": false,
      "t": 326323.65349999984,
      "d": 618.6169947916642,
      "v": 75
    },
    {
      "midi": 60,
      "hit": false,
      "t": 326935.89299999987,
      "d": 867.3392916666344,
      "v": 76
    },
    {
      "midi": 69,
      "hit": false,
      "t": 326935.89299999987,
      "d": 905.6042604166432,
      "v": 85
    },
    {
      "midi": 65,
      "hit": false,
      "t": 326935.89299999987,
      "d": 963.0017135416274,
      "v": 97
    },
    {
      "midi": 53,
      "hit": false,
      "t": 327548.13249999983,
      "d": 561.21954166668,
      "v": 61
    },
    {
      "midi": 70,
      "hit": false,
      "t": 328160.37199999986,
      "d": 880.0942812500289,
      "v": 64
    },
    {
      "midi": 62,
      "hit": false,
      "t": 328160.37199999986,
      "d": 886.4717760416679,
      "v": 70
    },
    {
      "midi": 67,
      "hit": false,
      "t": 328160.37199999986,
      "d": 892.849270833307,
      "v": 87
    },
    {
      "midi": 55,
      "hit": false,
      "t": 328160.37199999986,
      "d": 1983.4008802082972,
      "v": 68
    },
    {
      "midi": 70,
      "hit": false,
      "t": 328160.3719999999,
      "d": 4891.538505208329,
      "v": 1
    },
    {
      "midi": 67,
      "hit": false,
      "t": 328160.3719999999,
      "d": 7327.741515624977,
      "v": 1
    },
    {
      "midi": 70,
      "hit": false,
      "t": 329384.85099999985,
      "d": 478.3121093750233,
      "v": 77
    },
    {
      "midi": 62,
      "hit": false,
      "t": 329384.85099999985,
      "d": 484.6896041666623,
      "v": 83
    },
    {
      "midi": 67,
      "hit": false,
      "t": 329384.85099999985,
      "d": 491.06709895830136,
      "v": 84
    },
    {
      "midi": 63,
      "hit": false,
      "t": 329997.0904999998,
      "d": 1479.5787916667177,
      "v": 76
    },
    {
      "midi": 67,
      "hit": false,
      "t": 329997.0904999998,
      "d": 1524.2212552083656,
      "v": 71
    },
    {
      "midi": 70,
      "hit": false,
      "t": 329997.0904999998,
      "d": 1536.976244791702,
      "v": 61
    },
    {
      "midi": 51,
      "hit": false,
      "t": 330609.32999999984,
      "d": 1269.12146354164,
      "v": 81
    },
    {
      "midi": 63,
      "hit": false,
      "t": 330609.3299999999,
      "d": 4891.538505208329,
      "v": 1
    },
    {
      "midi": 63,
      "hit": false,
      "t": 331833.80899999983,
      "d": 1211.7240104166558,
      "v": 75
    },
    {
      "midi": 70,
      "hit": false,
      "t": 331833.80899999983,
      "d": 1218.1015052082948,
      "v": 66
    },
    {
      "midi": 67,
      "hit": false,
      "t": 331833.80899999983,
      "d": 1230.856494791573,
      "v": 76
    },
    {
      "midi": 48,
      "hit": false,
      "t": 333058.28799999977,
      "d": 344.3847187499632,
      "v": 68
    },
    {
      "midi": 60,
      "hit": false,
      "t": 333058.2879999999,
      "d": 4891.538505208329,
      "v": 1
    },
    {
      "midi": 48,
      "hit": false,
      "t": 333670.52749999973,
      "d": 637.7494791666977,
      "v": 63
    },
    {
      "midi": 63,
      "hit": false,
      "t": 334282.76699999976,
      "d": 1090.5516093749902,
      "v": 76
    },
    {
      "midi": 72,
      "hit": false,
      "t": 334282.76699999976,
      "d": 1243.6114843749674,
      "v": 81
    },
    {
      "midi": 67,
      "hit": false,
      "t": 334282.76699999976,
      "d": 1313.7639270832879,
      "v": 83
    },
    {
      "midi": 48,
      "hit": false,
      "t": 335201.12624999974,
      "d": 280.60977083334,
      "v": 67
    },
    {
      "midi": 53,
      "hit": false,
      "t": 335507.24599999975,
      "d": 363.51720312493853,
      "v": 70
    },
    {
      "midi": 65,
      "hit": false,
      "t": 335507.24599999987,
      "d": 2442.580505208345,
      "v": 1
    },
    {
      "midi": 60,
      "hit": false,
      "t": 335813.3657499997,
      "d": 121.17240104166558,
      "v": 68
    },
    {
      "midi": 65,
      "hit": false,
      "t": 335813.3657499997,
      "d": 140.3048854166409,
      "v": 85
    },
    {
      "midi": 69,
      "hit": false,
      "t": 335813.3657499997,
      "d": 153.05987499997718,
      "v": 78
    },
    {
      "midi": 53,
      "hit": false,
      "t": 336119.48549999966,
      "d": 1014.0216718750307,
      "v": 72
    },
    {
      "midi": 60,
      "hit": false,
      "t": 336731.7249999997,
      "d": 924.7367447916768,
      "v": 72
    },
    {
      "midi": 69,
      "hit": false,
      "t": 336731.7249999997,
      "d": 937.491734375013,
      "v": 75
    },
    {
      "midi": 65,
      "hit": false,
      "t": 336731.7249999997,
      "d": 1033.154156250006,
      "v": 85
    },
    {
      "midi": 53,
      "hit": false,
      "t": 337343.9644999997,
      "d": 599.4845104166307,
      "v": 63
    },
    {
      "midi": 62,
      "hit": false,
      "t": 337956.2039999997,
      "d": 899.2267656250042,
      "v": 65
    },
    {
      "midi": 70,
      "hit": false,
      "t": 337956.2039999997,
      "d": 899.2267656250042,
      "v": 63
    },
    {
      "midi": 67,
      "hit": false,
      "t": 337956.2039999997,
      "d": 937.491734375013,
      "v": 80
    },
    {
      "midi": 55,
      "hit": false,
      "t": 337956.2039999997,
      "d": 1224.478999999992,
      "v": 69
    },
    {
      "midi": 70,
      "hit": false,
      "t": 337956.20399999985,
      "d": 4585.418755208317,
      "v": 1
    },
    {
      "midi": 67,
      "hit": false,
      "t": 337956.20399999985,
      "d": 7340.4965052083135,
      "v": 1
    },
    {
      "midi": 62,
      "hit": false,
      "t": 339180.68299999967,
      "d": 395.40467708330834,
      "v": 76
    },
    {
      "midi": 70,
      "hit": false,
      "t": 339180.68299999967,
      "d": 401.7821718749474,
      "v": 64
    },
    {
      "midi": 67,
      "hit": false,
      "t": 339180.68299999967,
      "d": 427.29215104161995,
      "v": 71
    },
    {
      "midi": 55,
      "hit": false,
      "t": 339792.92249999964,
      "d": 191.32484374998603,
      "v": 62
    },
    {
      "midi": 63,
      "hit": false,
      "t": 339792.92249999964,
      "d": 1479.5787916666595,
      "v": 78
    },
    {
      "midi": 67,
      "hit": false,
      "t": 339792.92249999964,
      "d": 1485.9562864582986,
      "v": 77
    },
    {
      "midi": 70,
      "hit": false,
      "t": 339792.92249999964,
      "d": 1498.7112760416348,
      "v": 61
    },
    {
      "midi": 51,
      "hit": false,
      "t": 340405.1619999996,
      "d": 1230.8564947916311,
      "v": 83
    },
    {
      "midi": 63,
      "hit": false,
      "t": 340405.16199999984,
      "d": 4891.538505208329,
      "v": 1
    },
    {
      "midi": 67,
      "hit": false,
      "t": 341629.6409999996,
      "d": 644.1269739582785,
      "v": 81
    },
    {
      "midi": 63,
      "hit": false,
      "t": 341629.6409999996,
      "d": 663.2594583332539,
      "v": 79
    },
    {
      "midi": 70,
      "hit": false,
      "t": 341629.6409999996,
      "d": 682.3919427082292,
      "v": 71
    },
    {
      "midi": 51,
      "hit": false,
      "t": 342241.88049999956,
      "d": 522.954572916613,
      "v": 42
    },
    {
      "midi": 48,
      "hit": false,
      "t": 342854.11999999953,
      "d": 357.1397083333577,
      "v": 61
    },
    {
      "midi": 60,
      "hit": false,
      "t": 342854.1199999998,
      "d": 4878.783515624993,
      "v": 1
    },
    {
      "midi": 48,
      "hit": false,
      "t": 343466.35949999955,
      "d": 522.9545729166712,
      "v": 63
    },
    {
      "midi": 63,
      "hit": false,
      "t": 344078.5989999996,
      "d": 1205.3465156249586,
      "v": 71
    },
    {
      "midi": 72,
      "hit": false,
      "t": 344078.5989999996,
      "d": 1224.4789999999339,
      "v": 80
    },
    {
      "midi": 67,
      "hit": false,
      "t": 344078.5989999996,
      "d": 1345.6514010415995,
      "v": 75
    },
    {
      "midi": 48,
      "hit": false,
      "t": 344996.95824999956,
      "d": 312.4972447915934,
      "v": 61
    },
    {
      "midi": 53,
      "hit": false,
      "t": 345303.0779999995,
      "d": 1198.9690208333195,
      "v": 63
    },
    {
      "midi": 65,
      "hit": false,
      "t": 345303.0779999998,
      "d": 2442.580505208345,
      "v": 1
    },
    {
      "midi": 65,
      "hit": false,
      "t": 345609.1977499995,
      "d": 133.92739062500186,
      "v": 77
    },
    {
      "midi": 60,
      "hit": false,
      "t": 345609.1977499995,
      "d": 146.68238020833815,
      "v": 70
    },
    {
      "midi": 69,
      "hit": false,
      "t": 345609.1977499995,
      "d": 191.32484374998603,
      "v": 74
    },
    {
      "midi": 60,
      "hit": false,
      "t": 346527.5569999995,
      "d": 848.2068072917173,
      "v": 73
    },
    {
      "midi": 69,
      "hit": false,
      "t": 346527.5569999995,
      "d": 860.9617968750536,
      "v": 80
    },
    {
      "midi": 65,
      "hit": false,
      "t": 346527.5569999995,
      "d": 937.4917343750712,
      "v": 83
    },
    {
      "midi": 53,
      "hit": false,
      "t": 347139.79649999953,
      "d": 573.9745312500745,
      "v": 61
    },
    {
      "midi": 62,
      "hit": false,
      "t": 347752.0359999996,
      "d": 963.0017135416856,
      "v": 73
    },
    {
      "midi": 70,
      "hit": false,
      "t": 347752.0359999996,
      "d": 963.0017135416856,
      "v": 64
    },
    {
      "midi": 67,
      "hit": false,
      "t": 347752.0359999996,
      "d": 975.7567031250219,
      "v": 76
    },
    {
      "midi": 55,
      "hit": false,
      "t": 347752.0359999996,
      "d": 1715.5460989583516,
      "v": 58
    },
    {
      "midi": 70,
      "hit": false,
      "t": 347752.0359999998,
      "d": 4878.783515624993,
      "v": 1
    },
    {
      "midi": 67,
      "hit": false,
      "t": 347752.0359999998,
      "d": 7327.741515624977,
      "v": 1
    },
    {
      "midi": 70,
      "hit": false,
      "t": 348976.51499999966,
      "d": 338.0072239583242,
      "v": 63
    },
    {
      "midi": 62,
      "hit": false,
      "t": 348976.51499999966,
      "d": 369.8946979166358,
      "v": 78
    },
    {
      "midi": 67,
      "hit": false,
      "t": 348976.51499999966,
      "d": 382.64968749997206,
      "v": 77
    },
    {
      "midi": 63,
      "hit": false,
      "t": 349588.75449999963,
      "d": 1505.088770833332,
      "v": 69
    },
    {
      "midi": 67,
      "hit": false,
      "t": 349588.75449999963,
      "d": 1536.9762447916437,
      "v": 70
    },
    {
      "midi": 70,
      "hit": false,
      "t": 349588.75449999963,
      "d": 1562.4862239583163,
      "v": 59
    },
    {
      "midi": 51,
      "hit": false,
      "t": 350200.99399999966,
      "d": 1600.751192708267,
      "v": 61
    },
    {
      "midi": 63,
      "hit": false,
      "t": 350200.9939999998,
      "d": 4878.783515624993,
      "v": 1
    },
    {
      "midi": 63,
      "hit": false,
      "t": 351425.4729999996,
      "d": 676.0144479166484,
      "v": 79
    },
    {
      "midi": 67,
      "hit": false,
      "t": 351425.4729999996,
      "d": 695.1469322916237,
      "v": 86
    },
    {
      "midi": 70,
      "hit": false,
      "t": 351425.4729999996,
      "d": 727.0344062499353,
      "v": 72
    },
    {
      "midi": 48,
      "hit": false,
      "t": 352649.9519999995,
      "d": 1772.9435520833358,
      "v": 60
    },
    {
      "midi": 60,
      "hit": false,
      "t": 352649.95199999976,
      "d": 2442.580505208345,
      "v": 1
    },
    {
      "midi": 63,
      "hit": false,
      "t": 353874.4309999995,
      "d": 1192.5915260416805,
      "v": 74
    },
    {
      "midi": 72,
      "hit": false,
      "t": 353874.4309999995,
      "d": 1205.3465156250168,
      "v": 79
    },
    {
      "midi": 67,
      "hit": false,
      "t": 353874.4309999995,
      "d": 1371.1613802083302,
      "v": 76
    },
    {
      "midi": 48,
      "hit": false,
      "t": 354792.79024999955,
      "d": 306.11974999995437,
      "v": 62
    },
    {
      "midi": 53,
      "hit": false,
      "t": 355098.9099999995,
      "d": 758.9218802083051,
      "v": 66
    },
    {
      "midi": 65,
      "hit": false,
      "t": 355405.0297499995,
      "d": 127.54989583330462,
      "v": 79
    },
    {
      "midi": 60,
      "hit": false,
      "t": 355405.0297499995,
      "d": 140.3048854166409,
      "v": 69
    },
    {
      "midi": 69,
      "hit": false,
      "t": 355405.0297499995,
      "d": 172.1923593749525,
      "v": 76
    },
    {
      "midi": 60,
      "hit": false,
      "t": 356323.3889999995,
      "d": 841.82931250002,
      "v": 75
    },
    {
      "midi": 69,
      "hit": false,
      "t": 356323.3889999995,
      "d": 867.3392916666926,
      "v": 76
    },
    {
      "midi": 65,
      "hit": false,
      "t": 356323.3889999995,
      "d": 931.114239583374,
      "v": 86
    },
    {
      "midi": 53,
      "hit": false,
      "t": 356935.6284999995,
      "d": 593.1070156249916,
      "v": 65
    },
    {
      "midi": 62,
      "hit": false,
      "t": 357547.8679999995,
      "d": 822.6968281249865,
      "v": 72
    },
    {
      "midi": 55,
      "hit": false,
      "t": 357547.8679999995,
      "d": 835.4518177083228,
      "v": 72
    },
    {
      "midi": 70,
      "hit": false,
      "t": 357547.8679999995,
      "d": 835.4518177083228,
      "v": 79
    },
    {
      "midi": 67,
      "hit": false,
      "t": 357547.8679999995,
      "d": 848.2068072916591,
      "v": 87
    },
    {
      "midi": 70,
      "hit": false,
      "t": 358772.3469999995,
      "d": 459.17962499998976,
      "v": 87
    },
    {
      "midi": 62,
      "hit": false,
      "t": 358772.3469999995,
      "d": 478.3121093749651,
      "v": 83
    },
    {
      "midi": 67,
      "hit": false,
      "t": 358772.3469999995,
      "d": 478.3121093749651,
      "v": 81
    },
    {
      "midi": 63,
      "hit": false,
      "t": 359384.58649999945,
      "d": 1390.2938645833638,
      "v": 80
    },
    {
      "midi": 67,
      "hit": false,
      "t": 359384.58649999945,
      "d": 1422.1813385416754,
      "v": 81
    },
    {
      "midi": 70,
      "hit": false,
      "t": 359384.58649999945,
      "d": 1422.1813385416754,
      "v": 56
    },
    {
      "midi": 51,
      "hit": false,
      "t": 359996.8259999995,
      "d": 293.3647604166763,
      "v": 48
    },
    {
      "midi": 51,
      "hit": false,
      "t": 360609.0654999995,
      "d": 688.7694374999846,
      "v": 56
    },
    {
      "midi": 63,
      "hit": false,
      "t": 361221.30499999947,
      "d": 695.1469322916819,
      "v": 88
    },
    {
      "midi": 67,
      "hit": false,
      "t": 361221.30499999947,
      "d": 720.6569114583544,
      "v": 96
    },
    {
      "midi": 70,
      "hit": false,
      "t": 361221.30499999947,
      "d": 727.0344062499935,
      "v": 83
    },
    {
      "midi": 48,
      "hit": false,
      "t": 362445.78399999946,
      "d": 758.9218802083051,
      "v": 64
    },
    {
      "midi": 63,
      "hit": false,
      "t": 363670.26299999945,
      "d": 1294.6314427083125,
      "v": 88
    },
    {
      "midi": 72,
      "hit": false,
      "t": 363670.26299999945,
      "d": 1358.406390624994,
      "v": 86
    },
    {
      "midi": 67,
      "hit": false,
      "t": 363670.26299999945,
      "d": 1396.6713593750028,
      "v": 86
    },
    {
      "midi": 48,
      "hit": false,
      "t": 364588.62224999943,
      "d": 280.60977083334,
      "v": 63
    },
    {
      "midi": 53,
      "hit": false,
      "t": 364894.74199999945,
      "d": 261.4772864583647,
      "v": 68
    },
    {
      "midi": 65,
      "hit": false,
      "t": 365200.86174999946,
      "d": 127.54989583330462,
      "v": 85
    },
    {
      "midi": 60,
      "hit": false,
      "t": 365200.86174999946,
      "d": 133.92739062494365,
      "v": 77
    },
    {
      "midi": 69,
      "hit": false,
      "t": 365200.86174999946,
      "d": 172.1923593749525,
      "v": 74
    },
    {
      "midi": 53,
      "hit": false,
      "t": 365506.9814999994,
      "d": 618.6169947916642,
      "v": 73
    },
    {
      "midi": 60,
      "hit": false,
      "t": 366119.22099999944,
      "d": 867.3392916666344,
      "v": 77
    },
    {
      "midi": 69,
      "hit": false,
      "t": 366119.22099999944,
      "d": 905.6042604166432,
      "v": 86
    },
    {
      "midi": 65,
      "hit": false,
      "t": 366119.22099999944,
      "d": 963.0017135416274,
      "v": 91
    },
    {
      "midi": 53,
      "hit": false,
      "t": 366731.4604999994,
      "d": 561.21954166668,
      "v": 60
    },
    {
      "midi": 70,
      "hit": false,
      "t": 367343.69999999943,
      "d": 880.0942812500289,
      "v": 64
    },
    {
      "midi": 62,
      "hit": false,
      "t": 367343.69999999943,
      "d": 886.4717760416679,
      "v": 72
    },
    {
      "midi": 67,
      "hit": false,
      "t": 367343.69999999943,
      "d": 892.849270833307,
      "v": 88
    },
    {
      "midi": 55,
      "hit": false,
      "t": 367343.69999999943,
      "d": 1983.4008802082972,
      "v": 71
    },
    {
      "midi": 70,
      "hit": false,
      "t": 368568.1789999994,
      "d": 478.3121093750233,
      "v": 76
    },
    {
      "midi": 62,
      "hit": false,
      "t": 368568.1789999994,
      "d": 484.6896041666623,
      "v": 82
    },
    {
      "midi": 67,
      "hit": false,
      "t": 368568.1789999994,
      "d": 491.06709895830136,
      "v": 80
    },
    {
      "midi": 63,
      "hit": false,
      "t": 369180.4184999994,
      "d": 1479.5787916667177,
      "v": 77
    },
    {
      "midi": 67,
      "hit": false,
      "t": 369180.4184999994,
      "d": 1524.2212552083656,
      "v": 72
    },
    {
      "midi": 70,
      "hit": false,
      "t": 369180.4184999994,
      "d": 1536.976244791702,
      "v": 60
    },
    {
      "midi": 51,
      "hit": false,
      "t": 369792.6579999994,
      "d": 1269.12146354164,
      "v": 86
    },
    {
      "midi": 63,
      "hit": false,
      "t": 371017.1369999994,
      "d": 1211.7240104166558,
      "v": 76
    },
    {
      "midi": 70,
      "hit": false,
      "t": 371017.1369999994,
      "d": 1218.1015052082948,
      "v": 69
    },
    {
      "midi": 67,
      "hit": false,
      "t": 371017.1369999994,
      "d": 1230.856494791573,
      "v": 79
    },
    {
      "midi": 48,
      "hit": false,
      "t": 372241.61599999934,
      "d": 344.3847187499632,
      "v": 67
    },
    {
      "midi": 48,
      "hit": false,
      "t": 372853.8554999993,
      "d": 637.7494791666977,
      "v": 61
    },
    {
      "midi": 63,
      "hit": false,
      "t": 373466.09499999933,
      "d": 1090.5516093749902,
      "v": 76
    },
    {
      "midi": 72,
      "hit": false,
      "t": 373466.09499999933,
      "d": 1243.6114843749674,
      "v": 81
    },
    {
      "midi": 67,
      "hit": false,
      "t": 373466.09499999933,
      "d": 1313.7639270832879,
      "v": 82
    },
    {
      "midi": 48,
      "hit": false,
      "t": 374384.4542499993,
      "d": 280.60977083334,
      "v": 61
    },
    {
      "midi": 53,
      "hit": false,
      "t": 374690.5739999993,
      "d": 363.51720312493853,
      "v": 65
    },
    {
      "midi": 60,
      "hit": false,
      "t": 374996.6937499993,
      "d": 121.17240104166558,
      "v": 69
    },
    {
      "midi": 65,
      "hit": false,
      "t": 374996.6937499993,
      "d": 140.3048854166409,
      "v": 79
    },
    {
      "midi": 69,
      "hit": false,
      "t": 374996.6937499993,
      "d": 153.05987499997718,
      "v": 78
    },
    {
      "midi": 53,
      "hit": false,
      "t": 375302.81349999923,
      "d": 1014.0216718750307,
      "v": 72
    },
    {
      "midi": 60,
      "hit": false,
      "t": 375915.05299999926,
      "d": 924.7367447916768,
      "v": 73
    },
    {
      "midi": 69,
      "hit": false,
      "t": 375915.05299999926,
      "d": 937.491734375013,
      "v": 77
    },
    {
      "midi": 65,
      "hit": false,
      "t": 375915.05299999926,
      "d": 1033.154156250006,
      "v": 86
    },
    {
      "midi": 53,
      "hit": false,
      "t": 376527.2924999993,
      "d": 599.4845104166307,
      "v": 63
    },
    {
      "midi": 62,
      "hit": false,
      "t": 377139.53199999925,
      "d": 899.2267656250042,
      "v": 65
    },
    {
      "midi": 70,
      "hit": false,
      "t": 377139.53199999925,
      "d": 899.2267656250042,
      "v": 63
    },
    {
      "midi": 67,
      "hit": false,
      "t": 377139.53199999925,
      "d": 937.491734375013,
      "v": 78
    },
    {
      "midi": 55,
      "hit": false,
      "t": 377139.53199999925,
      "d": 1224.478999999992,
      "v": 65
    },
    {
      "midi": 62,
      "hit": false,
      "t": 378364.01099999924,
      "d": 395.40467708330834,
      "v": 72
    },
    {
      "midi": 70,
      "hit": false,
      "t": 378364.01099999924,
      "d": 401.7821718749474,
      "v": 66
    },
    {
      "midi": 67,
      "hit": false,
      "t": 378364.01099999924,
      "d": 427.29215104161995,
      "v": 72
    },
    {
      "midi": 55,
      "hit": false,
      "t": 378976.2504999992,
      "d": 191.32484374998603,
      "v": 64
    },
    {
      "midi": 63,
      "hit": false,
      "t": 378976.2504999992,
      "d": 1479.5787916666595,
      "v": 75
    },
    {
      "midi": 67,
      "hit": false,
      "t": 378976.2504999992,
      "d": 1485.9562864582986,
      "v": 77
    },
    {
      "midi": 70,
      "hit": false,
      "t": 378976.2504999992,
      "d": 1498.7112760416348,
      "v": 68
    },
    {
      "midi": 51,
      "hit": false,
      "t": 379588.4899999992,
      "d": 1230.8564947916311,
      "v": 76
    },
    {
      "midi": 67,
      "hit": false,
      "t": 380812.96899999917,
      "d": 644.1269739582785,
      "v": 81
    },
    {
      "midi": 63,
      "hit": false,
      "t": 380812.96899999917,
      "d": 663.2594583332539,
      "v": 79
    },
    {
      "midi": 70,
      "hit": false,
      "t": 380812.96899999917,
      "d": 682.3919427082292,
      "v": 65
    },
    {
      "midi": 51,
      "hit": false,
      "t": 381425.20849999913,
      "d": 522.954572916613,
      "v": 42
    },
    {
      "midi": 48,
      "hit": false,
      "t": 382037.4479999991,
      "d": 357.1397083333577,
      "v": 65
    },
    {
      "midi": 48,
      "hit": false,
      "t": 382649.6874999991,
      "d": 522.9545729166712,
      "v": 59
    },
    {
      "midi": 63,
      "hit": false,
      "t": 383261.92699999915,
      "d": 1205.3465156249586,
      "v": 67
    },
    {
      "midi": 72,
      "hit": false,
      "t": 383261.92699999915,
      "d": 1224.4789999999339,
      "v": 79
    },
    {
      "midi": 67,
      "hit": false,
      "t": 383261.92699999915,
      "d": 1345.6514010415995,
      "v": 78
    },
    {
      "midi": 48,
      "hit": false,
      "t": 384180.28624999913,
      "d": 312.4972447915934,
      "v": 67
    },
    {
      "midi": 53,
      "hit": false,
      "t": 384486.4059999991,
      "d": 1198.9690208333195,
      "v": 65
    },
    {
      "midi": 65,
      "hit": false,
      "t": 384792.5257499991,
      "d": 133.92739062500186,
      "v": 78
    },
    {
      "midi": 60,
      "hit": false,
      "t": 384792.5257499991,
      "d": 146.68238020833815,
      "v": 66
    },
    {
      "midi": 69,
      "hit": false,
      "t": 384792.5257499991,
      "d": 191.32484374998603,
      "v": 68
    },
    {
      "midi": 60,
      "hit": false,
      "t": 385710.8849999991,
      "d": 848.2068072917173,
      "v": 70
    },
    {
      "midi": 69,
      "hit": false,
      "t": 385710.8849999991,
      "d": 860.9617968750536,
      "v": 80
    },
    {
      "midi": 65,
      "hit": false,
      "t": 385710.8849999991,
      "d": 937.4917343750712,
      "v": 80
    },
    {
      "midi": 53,
      "hit": false,
      "t": 386323.1244999991,
      "d": 573.9745312500745,
      "v": 64
    },
    {
      "midi": 62,
      "hit": false,
      "t": 386935.3639999992,
      "d": 963.0017135416856,
      "v": 68
    },
    {
      "midi": 70,
      "hit": false,
      "t": 386935.3639999992,
      "d": 963.0017135416856,
      "v": 59
    },
    {
      "midi": 67,
      "hit": false,
      "t": 386935.3639999992,
      "d": 975.7567031250219,
      "v": 79
    },
    {
      "midi": 55,
      "hit": false,
      "t": 386935.3639999992,
      "d": 1715.5460989583516,
      "v": 60
    },
    {
      "midi": 70,
      "hit": false,
      "t": 388159.84299999924,
      "d": 338.0072239583242,
      "v": 65
    },
    {
      "midi": 62,
      "hit": false,
      "t": 388159.84299999924,
      "d": 369.8946979166358,
      "v": 79
    },
    {
      "midi": 67,
      "hit": false,
      "t": 388159.84299999924,
      "d": 382.64968749997206,
      "v": 77
    },
    {
      "midi": 63,
      "hit": false,
      "t": 388772.0824999992,
      "d": 1505.088770833332,
      "v": 68
    },
    {
      "midi": 67,
      "hit": false,
      "t": 388772.0824999992,
      "d": 1536.9762447916437,
      "v": 71
    },
    {
      "midi": 70,
      "hit": false,
      "t": 388772.0824999992,
      "d": 1562.4862239583163,
      "v": 59
    },
    {
      "midi": 51,
      "hit": false,
      "t": 389384.3219999992,
      "d": 1600.751192708267,
      "v": 64
    },
    {
      "midi": 63,
      "hit": false,
      "t": 390608.80099999916,
      "d": 676.0144479166484,
      "v": 78
    },
    {
      "midi": 67,
      "hit": false,
      "t": 390608.80099999916,
      "d": 695.1469322916237,
      "v": 87
    },
    {
      "midi": 70,
      "hit": false,
      "t": 390608.80099999916,
      "d": 727.0344062499353,
      "v": 69
    },
    {
      "midi": 48,
      "hit": false,
      "t": 391833.2799999991,
      "d": 1772.9435520833358,
      "v": 57
    },
    {
      "midi": 63,
      "hit": false,
      "t": 393057.7589999991,
      "d": 1192.5915260416805,
      "v": 74
    },
    {
      "midi": 72,
      "hit": false,
      "t": 393057.7589999991,
      "d": 1205.3465156250168,
      "v": 81
    },
    {
      "midi": 67,
      "hit": false,
      "t": 393057.7589999991,
      "d": 1371.1613802083302,
      "v": 76
    },
    {
      "midi": 48,
      "hit": false,
      "t": 393976.1182499991,
      "d": 306.11974999995437,
      "v": 63
    },
    {
      "midi": 53,
      "hit": false,
      "t": 394282.2379999991,
      "d": 758.9218802083051,
      "v": 63
    },
    {
      "midi": 65,
      "hit": false,
      "t": 394588.3577499991,
      "d": 127.54989583330462,
      "v": 80
    },
    {
      "midi": 60,
      "hit": false,
      "t": 394588.3577499991,
      "d": 140.3048854166409,
      "v": 74
    },
    {
      "midi": 69,
      "hit": false,
      "t": 394588.3577499991,
      "d": 172.1923593749525,
      "v": 71
    },
    {
      "midi": 60,
      "hit": false,
      "t": 395506.7169999991,
      "d": 841.82931250002,
      "v": 76
    },
    {
      "midi": 69,
      "hit": false,
      "t": 395506.7169999991,
      "d": 867.3392916666926,
      "v": 76
    },
    {
      "midi": 65,
      "hit": false,
      "t": 395506.7169999991,
      "d": 931.114239583374,
      "v": 85
    },
    {
      "midi": 53,
      "hit": false,
      "t": 396118.9564999991,
      "d": 593.1070156249916,
      "v": 61
    },
    {
      "midi": 61,
      "hit": false,
      "t": 435914.5239999991,
      "d": 286.98726562497905,
      "v": 94
    },
    {
      "midi": 66,
      "hit": false,
      "t": 435914.5239999991,
      "d": 286.98726562497905,
      "v": 92
    },
    {
      "midi": 70,
      "hit": false,
      "t": 435914.5239999991,
      "d": 286.98726562497905,
      "v": 93
    },
    {
      "midi": 66,
      "hit": false,
      "t": 435914.52399999974,
      "d": 2442.580505208345,
      "v": 1
    },
    {
      "midi": 70,
      "hit": false,
      "t": 435914.52399999974,
      "d": 2442.580505208345,
      "v": 1
    },
    {
      "midi": 61,
      "hit": false,
      "t": 436526.76349999907,
      "d": 286.98726562497905,
      "v": 71
    },
    {
      "midi": 66,
      "hit": false,
      "t": 436526.76349999907,
      "d": 286.98726562497905,
      "v": 102
    },
    {
      "midi": 70,
      "hit": false,
      "t": 436526.76349999907,
      "d": 286.98726562497905,
      "v": 83
    },
    {
      "midi": 49,
      "hit": false,
      "t": 436526.76349999907,
      "d": 943.8692291666521,
      "v": 68
    },
    {
      "midi": 54,
      "hit": false,
      "t": 436526.76349999907,
      "d": 975.7567031249637,
      "v": 81
    },
    {
      "midi": 48,
      "hit": false,
      "t": 437751.24249999906,
      "d": 848.2068072917173,
      "v": 76
    },
    {
      "midi": 53,
      "hit": false,
      "t": 437751.24249999906,
      "d": 860.9617968750536,
      "v": 85
    },
    {
      "midi": 60,
      "hit": false,
      "t": 438363.4819999991,
      "d": 286.98726562503725,
      "v": 90
    },
    {
      "midi": 65,
      "hit": false,
      "t": 438363.4819999991,
      "d": 286.98726562503725,
      "v": 88
    },
    {
      "midi": 69,
      "hit": false,
      "t": 438363.4819999991,
      "d": 286.98726562503725,
      "v": 86
    },
    {
      "midi": 65,
      "hit": false,
      "t": 438363.4819999997,
      "d": 1830.34100520832,
      "v": 1
    },
    {
      "midi": 69,
      "hit": false,
      "t": 438363.4819999997,
      "d": 1830.34100520832,
      "v": 1
    },
    {
      "midi": 60,
      "hit": false,
      "t": 438975.7214999991,
      "d": 286.98726562497905,
      "v": 95
    },
    {
      "midi": 65,
      "hit": false,
      "t": 438975.7214999991,
      "d": 286.98726562497905,
      "v": 96
    },
    {
      "midi": 69,
      "hit": false,
      "t": 438975.7214999991,
      "d": 286.98726562497905,
      "v": 95
    },
    {
      "midi": 53,
      "hit": false,
      "t": 438975.7214999991,
      "d": 911.9817552083405,
      "v": 81
    },
    {
      "midi": 48,
      "hit": false,
      "t": 438975.7214999991,
      "d": 924.7367447916768,
      "v": 76
    },
    {
      "midi": 46,
      "hit": false,
      "t": 440200.2004999991,
      "d": 797.1868489583721,
      "v": 66
    },
    {
      "midi": 51,
      "hit": false,
      "t": 440200.2004999991,
      "d": 803.5643437500112,
      "v": 86
    },
    {
      "midi": 63,
      "hit": false,
      "t": 440200.2004999997,
      "d": 3054.820005208312,
      "v": 1
    },
    {
      "midi": 67,
      "hit": false,
      "t": 440200.2004999997,
      "d": 5503.778005208296,
      "v": 1
    },
    {
      "midi": 58,
      "hit": false,
      "t": 440812.43999999913,
      "d": 286.98726562497905,
      "v": 67
    },
    {
      "midi": 63,
      "hit": false,
      "t": 440812.43999999913,
      "d": 286.98726562497905,
      "v": 83
    },
    {
      "midi": 67,
      "hit": false,
      "t": 440812.43999999913,
      "d": 286.98726562497905,
      "v": 83
    },
    {
      "midi": 58,
      "hit": false,
      "t": 441424.6794999991,
      "d": 286.98726562497905,
      "v": 73
    },
    {
      "midi": 63,
      "hit": false,
      "t": 441424.6794999991,
      "d": 286.98726562497905,
      "v": 94
    },
    {
      "midi": 67,
      "hit": false,
      "t": 441424.6794999991,
      "d": 286.98726562497905,
      "v": 82
    },
    {
      "midi": 46,
      "hit": false,
      "t": 441424.6794999991,
      "d": 905.6042604166432,
      "v": 76
    },
    {
      "midi": 51,
      "hit": false,
      "t": 441424.6794999991,
      "d": 975.7567031249637,
      "v": 82
    },
    {
      "midi": 50,
      "hit": false,
      "t": 442649.1584999991,
      "d": 758.9218802083633,
      "v": 68
    },
    {
      "midi": 55,
      "hit": false,
      "t": 442649.1584999991,
      "d": 765.2993750000023,
      "v": 80
    },
    {
      "midi": 58,
      "hit": false,
      "t": 443261.3979999991,
      "d": 286.98726562497905,
      "v": 73
    },
    {
      "midi": 62,
      "hit": false,
      "t": 443261.3979999991,
      "d": 286.98726562497905,
      "v": 87
    },
    {
      "midi": 67,
      "hit": false,
      "t": 443261.3979999991,
      "d": 286.98726562497905,
      "v": 71
    },
    {
      "midi": 62,
      "hit": false,
      "t": 443261.39799999964,
      "d": 2442.580505208345,
      "v": 1
    },
    {
      "midi": 58,
      "hit": false,
      "t": 443873.6374999991,
      "d": 286.98726562497905,
      "v": 80
    },
    {
      "midi": 62,
      "hit": false,
      "t": 443873.6374999991,
      "d": 286.98726562497905,
      "v": 92
    },
    {
      "midi": 67,
      "hit": false,
      "t": 443873.6374999991,
      "d": 286.98726562497905,
      "v": 77
    },
    {
      "midi": 55,
      "hit": false,
      "t": 443873.6374999991,
      "d": 937.4917343749548,
      "v": 78
    },
    {
      "midi": 50,
      "hit": false,
      "t": 443873.6374999991,
      "d": 943.8692291665939,
      "v": 78
    },
    {
      "midi": 62,
      "hit": false,
      "t": 445098.116499999,
      "d": 286.98726562497905,
      "v": 75
    },
    {
      "midi": 67,
      "hit": false,
      "t": 445098.116499999,
      "d": 286.98726562497905,
      "v": 85
    },
    {
      "midi": 70,
      "hit": false,
      "t": 445098.116499999,
      "d": 286.98726562497905,
      "v": 71
    },
    {
      "midi": 49,
      "hit": false,
      "t": 445098.116499999,
      "d": 822.6968281249865,
      "v": 65
    },
    {
      "midi": 54,
      "hit": false,
      "t": 445098.116499999,
      "d": 841.8293124999618,
      "v": 76
    },
    {
      "midi": 61,
      "hit": false,
      "t": 445710.355999999,
      "d": 286.98726562497905,
      "v": 74
    },
    {
      "midi": 66,
      "hit": false,
      "t": 445710.355999999,
      "d": 286.98726562497905,
      "v": 87
    },
    {
      "midi": 70,
      "hit": false,
      "t": 445710.355999999,
      "d": 286.98726562497905,
      "v": 82
    },
    {
      "midi": 66,
      "hit": false,
      "t": 445710.3559999996,
      "d": 2442.580505208345,
      "v": 1
    },
    {
      "midi": 70,
      "hit": false,
      "t": 445710.3559999996,
      "d": 2442.580505208345,
      "v": 1
    },
    {
      "midi": 61,
      "hit": false,
      "t": 446322.59549999895,
      "d": 286.98726562497905,
      "v": 67
    },
    {
      "midi": 66,
      "hit": false,
      "t": 446322.59549999895,
      "d": 286.98726562497905,
      "v": 105
    },
    {
      "midi": 70,
      "hit": false,
      "t": 446322.59549999895,
      "d": 286.98726562497905,
      "v": 78
    },
    {
      "midi": 49,
      "hit": false,
      "t": 446322.59549999895,
      "d": 950.2467239582911,
      "v": 76
    },
    {
      "midi": 54,
      "hit": false,
      "t": 446322.59549999895,
      "d": 950.2467239582911,
      "v": 79
    },
    {
      "midi": 48,
      "hit": false,
      "t": 447547.0744999989,
      "d": 835.451817708381,
      "v": 73
    },
    {
      "midi": 53,
      "hit": false,
      "t": 447547.0744999989,
      "d": 854.5843020833563,
      "v": 77
    },
    {
      "midi": 60,
      "hit": false,
      "t": 448159.3139999989,
      "d": 286.98726562497905,
      "v": 76
    },
    {
      "midi": 65,
      "hit": false,
      "t": 448159.3139999989,
      "d": 286.98726562497905,
      "v": 95
    },
    {
      "midi": 69,
      "hit": false,
      "t": 448159.3139999989,
      "d": 286.98726562497905,
      "v": 76
    },
    {
      "midi": 65,
      "hit": false,
      "t": 448159.3139999996,
      "d": 1830.34100520832,
      "v": 1
    },
    {
      "midi": 69,
      "hit": false,
      "t": 448159.3139999996,
      "d": 1830.34100520832,
      "v": 1
    },
    {
      "midi": 60,
      "hit": false,
      "t": 448771.5534999989,
      "d": 286.98726562497905,
      "v": 78
    },
    {
      "midi": 65,
      "hit": false,
      "t": 448771.5534999989,
      "d": 286.98726562497905,
      "v": 92
    },
    {
      "midi": 69,
      "hit": false,
      "t": 448771.5534999989,
      "d": 286.98726562497905,
      "v": 81
    },
    {
      "midi": 53,
      "hit": false,
      "t": 448771.5534999989,
      "d": 873.7167864583316,
      "v": 84
    },
    {
      "midi": 48,
      "hit": false,
      "t": 448771.5534999989,
      "d": 886.4717760416679,
      "v": 74
    },
    {
      "midi": 46,
      "hit": false,
      "t": 449996.03249999887,
      "d": 860.9617968750536,
      "v": 67
    },
    {
      "midi": 51,
      "hit": false,
      "t": 449996.03249999887,
      "d": 886.4717760417261,
      "v": 77
    },
    {
      "midi": 63,
      "hit": false,
      "t": 449996.03249999956,
      "d": 3054.820005208312,
      "v": 1
    },
    {
      "midi": 67,
      "hit": false,
      "t": 449996.03249999956,
      "d": 3054.820005208312,
      "v": 1
    },
    {
      "midi": 58,
      "hit": false,
      "t": 450608.2719999989,
      "d": 286.98726562503725,
      "v": 71
    },
    {
      "midi": 63,
      "hit": false,
      "t": 450608.2719999989,
      "d": 286.98726562503725,
      "v": 91
    },
    {
      "midi": 67,
      "hit": false,
      "t": 450608.2719999989,
      "d": 286.98726562503725,
      "v": 79
    },
    {
      "midi": 58,
      "hit": false,
      "t": 451220.5114999989,
      "d": 286.98726562497905,
      "v": 73
    },
    {
      "midi": 63,
      "hit": false,
      "t": 451220.5114999989,
      "d": 286.98726562497905,
      "v": 82
    },
    {
      "midi": 67,
      "hit": false,
      "t": 451220.5114999989,
      "d": 286.98726562497905,
      "v": 85
    },
    {
      "midi": 46,
      "hit": false,
      "t": 451220.5114999989,
      "d": 963.0017135416274,
      "v": 76
    },
    {
      "midi": 51,
      "hit": false,
      "t": 451220.5114999989,
      "d": 1014.0216718749725,
      "v": 84
    },
    {
      "midi": 48,
      "hit": false,
      "t": 452444.9904999989,
      "d": 822.6968281250447,
      "v": 71
    },
    {
      "midi": 53,
      "hit": false,
      "t": 452444.9904999989,
      "d": 822.6968281250447,
      "v": 79
    },
    {
      "midi": 60,
      "hit": false,
      "t": 453057.22999999893,
      "d": 286.98726562503725,
      "v": 94
    },
    {
      "midi": 65,
      "hit": false,
      "t": 453057.22999999893,
      "d": 286.98726562503725,
      "v": 87
    },
    {
      "midi": 69,
      "hit": false,
      "t": 453057.22999999893,
      "d": 286.98726562503725,
      "v": 91
    },
    {
      "midi": 65,
      "hit": false,
      "t": 453057.2299999995,
      "d": 2442.580505208345,
      "v": 1
    },
    {
      "midi": 69,
      "hit": false,
      "t": 453057.2299999995,
      "d": 2442.580505208345,
      "v": 1
    },
    {
      "midi": 60,
      "hit": false,
      "t": 453669.46949999896,
      "d": 593.1070156249916,
      "v": 70
    },
    {
      "midi": 65,
      "hit": false,
      "t": 453669.46949999896,
      "d": 593.1070156249916,
      "v": 84
    },
    {
      "midi": 69,
      "hit": false,
      "t": 453669.46949999896,
      "d": 593.1070156249916,
      "v": 73
    },
    {
      "midi": 48,
      "hit": false,
      "t": 453669.46949999896,
      "d": 1128.816578124999,
      "v": 78
    },
    {
      "midi": 53,
      "hit": false,
      "t": 453669.46949999896,
      "d": 1128.816578124999,
      "v": 78
    },
    {
      "midi": 60,
      "hit": false,
      "t": 454587.82874999894,
      "d": 286.98726562503725,
      "v": 84
    },
    {
      "midi": 65,
      "hit": false,
      "t": 454587.82874999894,
      "d": 286.98726562503725,
      "v": 87
    },
    {
      "midi": 69,
      "hit": false,
      "t": 454587.82874999894,
      "d": 286.98726562503725,
      "v": 90
    },
    {
      "midi": 62,
      "hit": false,
      "t": 455506.187999999,
      "d": 822.6968281249865,
      "v": 74
    },
    {
      "midi": 55,
      "hit": false,
      "t": 455506.187999999,
      "d": 835.4518177083228,
      "v": 73
    },
    {
      "midi": 70,
      "hit": false,
      "t": 455506.187999999,
      "d": 835.4518177083228,
      "v": 75
    },
    {
      "midi": 67,
      "hit": false,
      "t": 455506.187999999,
      "d": 848.2068072916591,
      "v": 81
    },
    {
      "midi": 70,
      "hit": false,
      "t": 455506.1879999995,
      "d": 4891.538505208329,
      "v": 1
    },
    {
      "midi": 67,
      "hit": false,
      "t": 455506.1879999995,
      "d": 7327.741515624977,
      "v": 1
    },
    {
      "midi": 70,
      "hit": false,
      "t": 456730.66699999897,
      "d": 459.17962499998976,
      "v": 83
    },
    {
      "midi": 62,
      "hit": false,
      "t": 456730.66699999897,
      "d": 478.3121093749651,
      "v": 82
    },
    {
      "midi": 67,
      "hit": false,
      "t": 456730.66699999897,
      "d": 478.3121093749651,
      "v": 82
    },
    {
      "midi": 63,
      "hit": false,
      "t": 457342.90649999894,
      "d": 1390.2938645833638,
      "v": 80
    },
    {
      "midi": 67,
      "hit": false,
      "t": 457342.90649999894,
      "d": 1422.1813385416754,
      "v": 74
    },
    {
      "midi": 70,
      "hit": false,
      "t": 457342.90649999894,
      "d": 1422.1813385416754,
      "v": 59
    },
    {
      "midi": 51,
      "hit": false,
      "t": 457955.14599999896,
      "d": 293.3647604166763,
      "v": 48
    },
    {
      "midi": 63,
      "hit": false,
      "t": 457955.1459999995,
      "d": 4891.538505208329,
      "v": 1
    },
    {
      "midi": 51,
      "hit": false,
      "t": 458567.385499999,
      "d": 688.7694374999846,
      "v": 63
    },
    {
      "midi": 63,
      "hit": false,
      "t": 459179.62499999895,
      "d": 695.1469322916819,
      "v": 85
    },
    {
      "midi": 67,
      "hit": false,
      "t": 459179.62499999895,
      "d": 720.6569114583544,
      "v": 91
    },
    {
      "midi": 70,
      "hit": false,
      "t": 459179.62499999895,
      "d": 727.0344062499935,
      "v": 85
    },
    {
      "midi": 48,
      "hit": false,
      "t": 460404.10399999894,
      "d": 758.9218802083051,
      "v": 66
    },
    {
      "midi": 60,
      "hit": false,
      "t": 460404.10399999947,
      "d": 4891.538505208329,
      "v": 1
    },
    {
      "midi": 63,
      "hit": false,
      "t": 461628.58299999894,
      "d": 1294.6314427083125,
      "v": 83
    },
    {
      "midi": 72,
      "hit": false,
      "t": 461628.58299999894,
      "d": 1358.406390624994,
      "v": 82
    },
    {
      "midi": 67,
      "hit": false,
      "t": 461628.58299999894,
      "d": 1396.6713593750028,
      "v": 81
    },
    {
      "midi": 48,
      "hit": false,
      "t": 462546.9422499989,
      "d": 280.60977083334,
      "v": 69
    },
    {
      "midi": 53,
      "hit": false,
      "t": 462853.0619999989,
      "d": 261.4772864583647,
      "v": 68
    },
    {
      "midi": 65,
      "hit": false,
      "t": 462853.06199999945,
      "d": 2442.580505208345,
      "v": 1
    },
    {
      "midi": 65,
      "hit": false,
      "t": 463159.18174999894,
      "d": 127.54989583330462,
      "v": 81
    },
    {
      "midi": 60,
      "hit": false,
      "t": 463159.18174999894,
      "d": 133.92739062494365,
      "v": 76
    },
    {
      "midi": 69,
      "hit": false,
      "t": 463159.18174999894,
      "d": 172.1923593749525,
      "v": 71
    },
    {
      "midi": 53,
      "hit": false,
      "t": 463465.3014999989,
      "d": 618.6169947916642,
      "v": 79
    },
    {
      "midi": 60,
      "hit": false,
      "t": 464077.5409999989,
      "d": 867.3392916666344,
      "v": 78
    },
    {
      "midi": 69,
      "hit": false,
      "t": 464077.5409999989,
      "d": 905.6042604166432,
      "v": 81
    },
    {
      "midi": 65,
      "hit": false,
      "t": 464077.5409999989,
      "d": 963.0017135416274,
      "v": 92
    },
    {
      "midi": 53,
      "hit": false,
      "t": 464689.7804999989,
      "d": 561.21954166668,
      "v": 62
    },
    {
      "midi": 70,
      "hit": false,
      "t": 465302.0199999989,
      "d": 880.0942812500289,
      "v": 67
    },
    {
      "midi": 62,
      "hit": false,
      "t": 465302.0199999989,
      "d": 886.4717760416679,
      "v": 66
    },
    {
      "midi": 67,
      "hit": false,
      "t": 465302.0199999989,
      "d": 892.849270833307,
      "v": 81
    },
    {
      "midi": 55,
      "hit": false,
      "t": 465302.0199999989,
      "d": 1983.4008802082972,
      "v": 69
    },
    {
      "midi": 70,
      "hit": false,
      "t": 465302.01999999944,
      "d": 4891.538505208329,
      "v": 1
    },
    {
      "midi": 67,
      "hit": false,
      "t": 465302.01999999944,
      "d": 7327.741515624977,
      "v": 1
    },
    {
      "midi": 70,
      "hit": false,
      "t": 466526.4989999989,
      "d": 478.3121093750233,
      "v": 79
    },
    {
      "midi": 62,
      "hit": false,
      "t": 466526.4989999989,
      "d": 484.6896041666623,
      "v": 81
    },
    {
      "midi": 67,
      "hit": false,
      "t": 466526.4989999989,
      "d": 491.06709895830136,
      "v": 78
    },
    {
      "midi": 63,
      "hit": false,
      "t": 467138.7384999989,
      "d": 1479.5787916667177,
      "v": 78
    },
    {
      "midi": 67,
      "hit": false,
      "t": 467138.7384999989,
      "d": 1524.2212552083656,
      "v": 72
    },
    {
      "midi": 70,
      "hit": false,
      "t": 467138.7384999989,
      "d": 1536.976244791702,
      "v": 56
    },
    {
      "midi": 51,
      "hit": false,
      "t": 467750.9779999989,
      "d": 1269.12146354164,
      "v": 83
    },
    {
      "midi": 63,
      "hit": false,
      "t": 467750.9779999994,
      "d": 4891.538505208329,
      "v": 1
    },
    {
      "midi": 63,
      "hit": false,
      "t": 468975.4569999989,
      "d": 1211.7240104166558,
      "v": 78
    },
    {
      "midi": 70,
      "hit": false,
      "t": 468975.4569999989,
      "d": 1218.1015052082948,
      "v": 71
    },
    {
      "midi": 67,
      "hit": false,
      "t": 468975.4569999989,
      "d": 1230.856494791573,
      "v": 75
    },
    {
      "midi": 48,
      "hit": false,
      "t": 470199.9359999988,
      "d": 344.3847187499632,
      "v": 68
    },
    {
      "midi": 60,
      "hit": false,
      "t": 470199.9359999994,
      "d": 4891.538505208329,
      "v": 1
    },
    {
      "midi": 48,
      "hit": false,
      "t": 470812.1754999988,
      "d": 637.7494791666977,
      "v": 59
    },
    {
      "midi": 63,
      "hit": false,
      "t": 471424.4149999988,
      "d": 1090.5516093749902,
      "v": 73
    },
    {
      "midi": 72,
      "hit": false,
      "t": 471424.4149999988,
      "d": 1243.6114843749674,
      "v": 83
    },
    {
      "midi": 67,
      "hit": false,
      "t": 471424.4149999988,
      "d": 1313.7639270832879,
      "v": 83
    },
    {
      "midi": 48,
      "hit": false,
      "t": 472342.7742499988,
      "d": 280.60977083334,
      "v": 64
    },
    {
      "midi": 53,
      "hit": false,
      "t": 472648.8939999988,
      "d": 363.51720312493853,
      "v": 64
    },
    {
      "midi": 65,
      "hit": false,
      "t": 472648.8939999994,
      "d": 2442.580505208345,
      "v": 1
    },
    {
      "midi": 60,
      "hit": false,
      "t": 472955.01374999876,
      "d": 121.17240104166558,
      "v": 76
    },
    {
      "midi": 65,
      "hit": false,
      "t": 472955.01374999876,
      "d": 140.3048854166409,
      "v": 82
    },
    {
      "midi": 69,
      "hit": false,
      "t": 472955.01374999876,
      "d": 153.05987499997718,
      "v": 79
    },
    {
      "midi": 53,
      "hit": false,
      "t": 473261.1334999987,
      "d": 1014.0216718750307,
      "v": 68
    },
    {
      "midi": 60,
      "hit": false,
      "t": 473873.37299999874,
      "d": 924.7367447916768,
      "v": 75
    },
    {
      "midi": 69,
      "hit": false,
      "t": 473873.37299999874,
      "d": 937.491734375013,
      "v": 75
    },
    {
      "midi": 65,
      "hit": false,
      "t": 473873.37299999874,
      "d": 1033.154156250006,
      "v": 86
    },
    {
      "midi": 53,
      "hit": false,
      "t": 474485.61249999877,
      "d": 599.4845104166307,
      "v": 63
    },
    {
      "midi": 62,
      "hit": false,
      "t": 475097.85199999873,
      "d": 899.2267656250042,
      "v": 68
    },
    {
      "midi": 70,
      "hit": false,
      "t": 475097.85199999873,
      "d": 899.2267656250042,
      "v": 69
    },
    {
      "midi": 67,
      "hit": false,
      "t": 475097.85199999873,
      "d": 937.491734375013,
      "v": 79
    },
    {
      "midi": 55,
      "hit": false,
      "t": 475097.85199999873,
      "d": 1224.478999999992,
      "v": 67
    },
    {
      "midi": 70,
      "hit": false,
      "t": 475097.8519999994,
      "d": 4585.418755208317,
      "v": 1
    },
    {
      "midi": 67,
      "hit": false,
      "t": 475097.8519999994,
      "d": 7340.4965052083135,
      "v": 1
    },
    {
      "midi": 62,
      "hit": false,
      "t": 476322.3309999987,
      "d": 395.40467708330834,
      "v": 78
    },
    {
      "midi": 70,
      "hit": false,
      "t": 476322.3309999987,
      "d": 401.7821718749474,
      "v": 60
    },
    {
      "midi": 67,
      "hit": false,
      "t": 476322.3309999987,
      "d": 427.29215104161995,
      "v": 71
    },
    {
      "midi": 55,
      "hit": false,
      "t": 476934.5704999987,
      "d": 191.32484374998603,
      "v": 57
    },
    {
      "midi": 63,
      "hit": false,
      "t": 476934.5704999987,
      "d": 1479.5787916666595,
      "v": 73
    },
    {
      "midi": 67,
      "hit": false,
      "t": 476934.5704999987,
      "d": 1485.9562864582986,
      "v": 76
    },
    {
      "midi": 70,
      "hit": false,
      "t": 476934.5704999987,
      "d": 1498.7112760416348,
      "v": 67
    },
    {
      "midi": 51,
      "hit": false,
      "t": 477546.80999999866,
      "d": 1230.8564947916311,
      "v": 79
    },
    {
      "midi": 63,
      "hit": false,
      "t": 477546.80999999936,
      "d": 4891.538505208329,
      "v": 1
    },
    {
      "midi": 67,
      "hit": false,
      "t": 478771.28899999865,
      "d": 644.1269739582785,
      "v": 79
    },
    {
      "midi": 63,
      "hit": false,
      "t": 478771.28899999865,
      "d": 663.2594583332539,
      "v": 78
    },
    {
      "midi": 70,
      "hit": false,
      "t": 478771.28899999865,
      "d": 682.3919427082292,
      "v": 66
    },
    {
      "midi": 51,
      "hit": false,
      "t": 479383.5284999986,
      "d": 522.954572916613,
      "v": 42
    },
    {
      "midi": 48,
      "hit": false,
      "t": 479995.7679999986,
      "d": 357.1397083333577,
      "v": 66
    },
    {
      "midi": 60,
      "hit": false,
      "t": 479995.76799999934,
      "d": 4878.783515624993,
      "v": 1
    },
    {
      "midi": 48,
      "hit": false,
      "t": 480608.0074999986,
      "d": 522.9545729166712,
      "v": 66
    },
    {
      "midi": 63,
      "hit": false,
      "t": 481220.24699999864,
      "d": 1205.3465156249586,
      "v": 70
    },
    {
      "midi": 72,
      "hit": false,
      "t": 481220.24699999864,
      "d": 1224.4789999999339,
      "v": 74
    },
    {
      "midi": 67,
      "hit": false,
      "t": 481220.24699999864,
      "d": 1345.6514010415995,
      "v": 81
    },
    {
      "midi": 48,
      "hit": false,
      "t": 482138.6062499986,
      "d": 312.4972447915934,
      "v": 65
    },
    {
      "midi": 53,
      "hit": false,
      "t": 482444.72599999857,
      "d": 1198.9690208333195,
      "v": 65
    },
    {
      "midi": 65,
      "hit": false,
      "t": 482444.7259999993,
      "d": 2442.580505208345,
      "v": 1
    },
    {
      "midi": 65,
      "hit": false,
      "t": 482750.8457499986,
      "d": 133.92739062500186,
      "v": 82
    },
    {
      "midi": 60,
      "hit": false,
      "t": 482750.8457499986,
      "d": 146.68238020833815,
      "v": 72
    },
    {
      "midi": 69,
      "hit": false,
      "t": 482750.8457499986,
      "d": 191.32484374998603,
      "v": 72
    },
    {
      "midi": 60,
      "hit": false,
      "t": 483669.20499999856,
      "d": 848.2068072917173,
      "v": 75
    },
    {
      "midi": 69,
      "hit": false,
      "t": 483669.20499999856,
      "d": 860.9617968750536,
      "v": 82
    },
    {
      "midi": 65,
      "hit": false,
      "t": 483669.20499999856,
      "d": 937.4917343750712,
      "v": 86
    },
    {
      "midi": 53,
      "hit": false,
      "t": 484281.4444999986,
      "d": 573.9745312500745,
      "v": 63
    },
    {
      "midi": 62,
      "hit": false,
      "t": 484893.68399999867,
      "d": 963.0017135416856,
      "v": 71
    },
    {
      "midi": 70,
      "hit": false,
      "t": 484893.68399999867,
      "d": 963.0017135416856,
      "v": 66
    },
    {
      "midi": 67,
      "hit": false,
      "t": 484893.68399999867,
      "d": 975.7567031250219,
      "v": 77
    },
    {
      "midi": 55,
      "hit": false,
      "t": 484893.68399999867,
      "d": 1715.5460989583516,
      "v": 62
    },
    {
      "midi": 70,
      "hit": false,
      "t": 484893.6839999993,
      "d": 4878.783515624993,
      "v": 1
    },
    {
      "midi": 67,
      "hit": false,
      "t": 484893.6839999993,
      "d": 7327.741515624977,
      "v": 1
    },
    {
      "midi": 70,
      "hit": false,
      "t": 486118.1629999987,
      "d": 338.0072239583242,
      "v": 63
    },
    {
      "midi": 62,
      "hit": false,
      "t": 486118.1629999987,
      "d": 369.8946979166358,
      "v": 76
    },
    {
      "midi": 67,
      "hit": false,
      "t": 486118.1629999987,
      "d": 382.64968749997206,
      "v": 72
    },
    {
      "midi": 63,
      "hit": false,
      "t": 486730.4024999987,
      "d": 1505.088770833332,
      "v": 68
    },
    {
      "midi": 67,
      "hit": false,
      "t": 486730.4024999987,
      "d": 1536.9762447916437,
      "v": 68
    },
    {
      "midi": 70,
      "hit": false,
      "t": 486730.4024999987,
      "d": 1562.4862239583163,
      "v": 58
    },
    {
      "midi": 51,
      "hit": false,
      "t": 487342.6419999987,
      "d": 1600.751192708267,
      "v": 65
    },
    {
      "midi": 63,
      "hit": false,
      "t": 487342.6419999993,
      "d": 4878.783515624993,
      "v": 1
    },
    {
      "midi": 63,
      "hit": false,
      "t": 488567.12099999865,
      "d": 676.0144479166484,
      "v": 84
    },
    {
      "midi": 67,
      "hit": false,
      "t": 488567.12099999865,
      "d": 695.1469322916237,
      "v": 81
    },
    {
      "midi": 70,
      "hit": false,
      "t": 488567.12099999865,
      "d": 727.0344062499353,
      "v": 71
    },
    {
      "midi": 48,
      "hit": false,
      "t": 489791.5999999986,
      "d": 1772.9435520833358,
      "v": 55
    },
    {
      "midi": 60,
      "hit": false,
      "t": 489791.5999999993,
      "d": 2442.580505208345,
      "v": 1
    },
    {
      "midi": 63,
      "hit": false,
      "t": 491016.0789999986,
      "d": 1192.5915260416805,
      "v": 77
    },
    {
      "midi": 72,
      "hit": false,
      "t": 491016.0789999986,
      "d": 1205.3465156250168,
      "v": 74
    },
    {
      "midi": 67,
      "hit": false,
      "t": 491016.0789999986,
      "d": 1371.1613802083302,
      "v": 78
    },
    {
      "midi": 48,
      "hit": false,
      "t": 491934.4382499986,
      "d": 306.11974999995437,
      "v": 58
    },
    {
      "midi": 53,
      "hit": false,
      "t": 492240.55799999856,
      "d": 758.9218802083051,
      "v": 65
    },
    {
      "midi": 65,
      "hit": false,
      "t": 492546.6777499986,
      "d": 127.54989583330462,
      "v": 77
    },
    {
      "midi": 60,
      "hit": false,
      "t": 492546.6777499986,
      "d": 140.3048854166409,
      "v": 71
    },
    {
      "midi": 69,
      "hit": false,
      "t": 492546.6777499986,
      "d": 172.1923593749525,
      "v": 72
    },
    {
      "midi": 60,
      "hit": false,
      "t": 493465.03699999856,
      "d": 841.82931250002,
      "v": 74
    },
    {
      "midi": 69,
      "hit": false,
      "t": 493465.03699999856,
      "d": 867.3392916666926,
      "v": 78
    },
    {
      "midi": 65,
      "hit": false,
      "t": 493465.03699999856,
      "d": 931.114239583374,
      "v": 87
    },
    {
      "midi": 53,
      "hit": false,
      "t": 494077.2764999986,
      "d": 593.1070156249916,
      "v": 59
    },
    {
      "midi": 62,
      "hit": false,
      "t": 494689.51599999855,
      "d": 822.6968281249865,
      "v": 75
    },
    {
      "midi": 55,
      "hit": false,
      "t": 494689.51599999855,
      "d": 835.4518177083228,
      "v": 73
    },
    {
      "midi": 70,
      "hit": false,
      "t": 494689.51599999855,
      "d": 835.4518177083228,
      "v": 74
    },
    {
      "midi": 67,
      "hit": false,
      "t": 494689.51599999855,
      "d": 848.2068072916591,
      "v": 81
    },
    {
      "midi": 70,
      "hit": false,
      "t": 495913.99499999854,
      "d": 459.17962499998976,
      "v": 83
    },
    {
      "midi": 62,
      "hit": false,
      "t": 495913.99499999854,
      "d": 478.3121093749651,
      "v": 85
    },
    {
      "midi": 67,
      "hit": false,
      "t": 495913.99499999854,
      "d": 478.3121093749651,
      "v": 88
    },
    {
      "midi": 63,
      "hit": false,
      "t": 496526.2344999985,
      "d": 1390.2938645833638,
      "v": 76
    },
    {
      "midi": 67,
      "hit": false,
      "t": 496526.2344999985,
      "d": 1422.1813385416754,
      "v": 75
    },
    {
      "midi": 70,
      "hit": false,
      "t": 496526.2344999985,
      "d": 1422.1813385416754,
      "v": 60
    },
    {
      "midi": 51,
      "hit": false,
      "t": 497138.47399999853,
      "d": 293.3647604166763,
      "v": 49
    },
    {
      "midi": 51,
      "hit": false,
      "t": 497750.71349999856,
      "d": 688.7694374999846,
      "v": 63
    },
    {
      "midi": 63,
      "hit": false,
      "t": 498362.9529999985,
      "d": 695.1469322916819,
      "v": 85
    },
    {
      "midi": 67,
      "hit": false,
      "t": 498362.9529999985,
      "d": 720.6569114583544,
      "v": 96
    },
    {
      "midi": 70,
      "hit": false,
      "t": 498362.9529999985,
      "d": 727.0344062499935,
      "v": 85
    },
    {
      "midi": 48,
      "hit": false,
      "t": 499587.4319999985,
      "d": 758.9218802083051,
      "v": 69
    },
    {
      "midi": 63,
      "hit": false,
      "t": 500811.9109999985,
      "d": 1294.6314427083125,
      "v": 83
    },
    {
      "midi": 72,
      "hit": false,
      "t": 500811.9109999985,
      "d": 1358.406390624994,
      "v": 80
    },
    {
      "midi": 67,
      "hit": false,
      "t": 500811.9109999985,
      "d": 1396.6713593750028,
      "v": 86
    },
    {
      "midi": 48,
      "hit": false,
      "t": 501730.2702499985,
      "d": 280.60977083334,
      "v": 62
    },
    {
      "midi": 53,
      "hit": false,
      "t": 502036.3899999985,
      "d": 261.4772864583647,
      "v": 76
    },
    {
      "midi": 65,
      "hit": false,
      "t": 502342.5097499985,
      "d": 127.54989583330462,
      "v": 81
    },
    {
      "midi": 60,
      "hit": false,
      "t": 502342.5097499985,
      "d": 133.92739062494365,
      "v": 71
    },
    {
      "midi": 69,
      "hit": false,
      "t": 502342.5097499985,
      "d": 172.1923593749525,
      "v": 69
    },
    {
      "midi": 53,
      "hit": false,
      "t": 502648.62949999847,
      "d": 618.6169947916642,
      "v": 75
    },
    {
      "midi": 60,
      "hit": false,
      "t": 503260.8689999985,
      "d": 867.3392916666344,
      "v": 81
    },
    {
      "midi": 69,
      "hit": false,
      "t": 503260.8689999985,
      "d": 905.6042604166432,
      "v": 85
    },
    {
      "midi": 65,
      "hit": false,
      "t": 503260.8689999985,
      "d": 963.0017135416274,
      "v": 91
    },
    {
      "midi": 53,
      "hit": false,
      "t": 503873.10849999846,
      "d": 561.21954166668,
      "v": 61
    },
    {
      "midi": 70,
      "hit": false,
      "t": 504485.3479999985,
      "d": 880.0942812500289,
      "v": 66
    },
    {
      "midi": 62,
      "hit": false,
      "t": 504485.3479999985,
      "d": 886.4717760416679,
      "v": 73
    },
    {
      "midi": 67,
      "hit": false,
      "t": 504485.3479999985,
      "d": 892.849270833307,
      "v": 87
    },
    {
      "midi": 55,
      "hit": false,
      "t": 504485.3479999985,
      "d": 1983.4008802082972,
      "v": 69
    },
    {
      "midi": 70,
      "hit": false,
      "t": 505709.8269999985,
      "d": 478.3121093750233,
      "v": 79
    },
    {
      "midi": 62,
      "hit": false,
      "t": 505709.8269999985,
      "d": 484.6896041666623,
      "v": 77
    },
    {
      "midi": 67,
      "hit": false,
      "t": 505709.8269999985,
      "d": 491.06709895830136,
      "v": 81
    },
    {
      "midi": 63,
      "hit": false,
      "t": 506322.06649999844,
      "d": 1479.5787916667177,
      "v": 71
    },
    {
      "midi": 67,
      "hit": false,
      "t": 506322.06649999844,
      "d": 1524.2212552083656,
      "v": 75
    },
    {
      "midi": 70,
      "hit": false,
      "t": 506322.06649999844,
      "d": 1536.976244791702,
      "v": 55
    },
    {
      "midi": 51,
      "hit": false,
      "t": 506934.30599999847,
      "d": 1269.12146354164,
      "v": 86
    },
    {
      "midi": 63,
      "hit": false,
      "t": 508158.78499999846,
      "d": 1211.7240104166558,
      "v": 77
    },
    {
      "midi": 70,
      "hit": false,
      "t": 508158.78499999846,
      "d": 1218.1015052082948,
      "v": 66
    },
    {
      "midi": 67,
      "hit": false,
      "t": 508158.78499999846,
      "d": 1230.856494791573,
      "v": 83
    },
    {
      "midi": 48,
      "hit": false,
      "t": 509383.2639999984,
      "d": 344.3847187499632,
      "v": 71
    },
    {
      "midi": 48,
      "hit": false,
      "t": 509995.50349999836,
      "d": 637.7494791666977,
      "v": 65
    },
    {
      "midi": 63,
      "hit": false,
      "t": 510607.7429999984,
      "d": 1090.5516093749902,
      "v": 78
    },
    {
      "midi": 72,
      "hit": false,
      "t": 510607.7429999984,
      "d": 1243.6114843749674,
      "v": 79
    },
    {
      "midi": 67,
      "hit": false,
      "t": 510607.7429999984,
      "d": 1313.7639270832879,
      "v": 81
    },
    {
      "midi": 48,
      "hit": false,
      "t": 511526.10224999837,
      "d": 280.60977083334,
      "v": 60
    },
    {
      "midi": 53,
      "hit": false,
      "t": 511832.2219999984,
      "d": 363.51720312493853,
      "v": 70
    },
    {
      "midi": 60,
      "hit": false,
      "t": 512138.34174999833,
      "d": 121.17240104166558,
      "v": 74
    },
    {
      "midi": 65,
      "hit": false,
      "t": 512138.34174999833,
      "d": 140.3048854166409,
      "v": 83
    },
    {
      "midi": 69,
      "hit": false,
      "t": 512138.34174999833,
      "d": 153.05987499997718,
      "v": 74
    },
    {
      "midi": 53,
      "hit": false,
      "t": 512444.4614999983,
      "d": 1014.0216718750307,
      "v": 73
    },
    {
      "midi": 60,
      "hit": false,
      "t": 513056.7009999983,
      "d": 924.7367447916768,
      "v": 71
    },
    {
      "midi": 69,
      "hit": false,
      "t": 513056.7009999983,
      "d": 937.491734375013,
      "v": 75
    },
    {
      "midi": 65,
      "hit": false,
      "t": 513056.7009999983,
      "d": 1033.154156250006,
      "v": 80
    },
    {
      "midi": 53,
      "hit": false,
      "t": 513668.94049999834,
      "d": 599.4845104166307,
      "v": 62
    },
    {
      "midi": 62,
      "hit": false,
      "t": 514281.1799999983,
      "d": 899.2267656250042,
      "v": 66
    },
    {
      "midi": 70,
      "hit": false,
      "t": 514281.1799999983,
      "d": 899.2267656250042,
      "v": 66
    },
    {
      "midi": 67,
      "hit": false,
      "t": 514281.1799999983,
      "d": 937.491734375013,
      "v": 73
    },
    {
      "midi": 55,
      "hit": false,
      "t": 514281.1799999983,
      "d": 1224.478999999992,
      "v": 66
    },
    {
      "midi": 62,
      "hit": false,
      "t": 515505.6589999983,
      "d": 395.40467708330834,
      "v": 73
    },
    {
      "midi": 70,
      "hit": false,
      "t": 515505.6589999983,
      "d": 401.7821718749474,
      "v": 61
    },
    {
      "midi": 67,
      "hit": false,
      "t": 515505.6589999983,
      "d": 427.29215104161995,
      "v": 77
    },
    {
      "midi": 55,
      "hit": false,
      "t": 516117.89849999826,
      "d": 191.32484374998603,
      "v": 60
    },
    {
      "midi": 63,
      "hit": false,
      "t": 516117.89849999826,
      "d": 1479.5787916666595,
      "v": 75
    },
    {
      "midi": 67,
      "hit": false,
      "t": 516117.89849999826,
      "d": 1485.9562864582986,
      "v": 80
    },
    {
      "midi": 70,
      "hit": false,
      "t": 516117.89849999826,
      "d": 1498.7112760416348,
      "v": 63
    },
    {
      "midi": 51,
      "hit": false,
      "t": 516730.13799999823,
      "d": 1230.8564947916311,
      "v": 82
    },
    {
      "midi": 67,
      "hit": false,
      "t": 517954.6169999982,
      "d": 644.1269739582785,
      "v": 84
    },
    {
      "midi": 63,
      "hit": false,
      "t": 517954.6169999982,
      "d": 663.2594583332539,
      "v": 80
    },
    {
      "midi": 70,
      "hit": false,
      "t": 517954.6169999982,
      "d": 682.3919427082292,
      "v": 66
    },
    {
      "midi": 51,
      "hit": false,
      "t": 518566.8564999982,
      "d": 522.954572916613,
      "v": 44
    },
    {
      "midi": 48,
      "hit": false,
      "t": 519179.09599999816,
      "d": 357.1397083333577,
      "v": 67
    },
    {
      "midi": 48,
      "hit": false,
      "t": 519791.3354999982,
      "d": 522.9545729166712,
      "v": 62
    },
    {
      "midi": 63,
      "hit": false,
      "t": 520403.5749999982,
      "d": 1205.3465156249586,
      "v": 69
    },
    {
      "midi": 72,
      "hit": false,
      "t": 520403.5749999982,
      "d": 1224.4789999999339,
      "v": 74
    },
    {
      "midi": 67,
      "hit": false,
      "t": 520403.5749999982,
      "d": 1345.6514010415995,
      "v": 82
    },
    {
      "midi": 48,
      "hit": false,
      "t": 521321.9342499982,
      "d": 312.4972447915934,
      "v": 67
    },
    {
      "midi": 53,
      "hit": false,
      "t": 521628.05399999814,
      "d": 1198.9690208333195,
      "v": 62
    },
    {
      "midi": 65,
      "hit": false,
      "t": 521934.17374999815,
      "d": 133.92739062500186,
      "v": 78
    },
    {
      "midi": 60,
      "hit": false,
      "t": 521934.17374999815,
      "d": 146.68238020833815,
      "v": 67
    },
    {
      "midi": 69,
      "hit": false,
      "t": 521934.17374999815,
      "d": 191.32484374998603,
      "v": 68
    },
    {
      "midi": 60,
      "hit": false,
      "t": 522852.53299999813,
      "d": 848.2068072917173,
      "v": 70
    },
    {
      "midi": 69,
      "hit": false,
      "t": 522852.53299999813,
      "d": 860.9617968750536,
      "v": 80
    },
    {
      "midi": 65,
      "hit": false,
      "t": 522852.53299999813,
      "d": 937.4917343750712,
      "v": 82
    },
    {
      "midi": 53,
      "hit": false,
      "t": 523464.77249999816,
      "d": 573.9745312500745,
      "v": 66
    },
    {
      "midi": 62,
      "hit": false,
      "t": 524077.01199999824,
      "d": 963.0017135416856,
      "v": 70
    },
    {
      "midi": 70,
      "hit": false,
      "t": 524077.01199999824,
      "d": 963.0017135416856,
      "v": 61
    },
    {
      "midi": 67,
      "hit": false,
      "t": 524077.01199999824,
      "d": 975.7567031249637,
      "v": 80
    },
    {
      "midi": 55,
      "hit": false,
      "t": 524077.01199999824,
      "d": 1715.5460989582352,
      "v": 61
    },
    {
      "midi": 70,
      "hit": false,
      "t": 525301.4909999982,
      "d": 338.0072239583824,
      "v": 66
    },
    {
      "midi": 62,
      "hit": false,
      "t": 525301.4909999982,
      "d": 369.894697916694,
      "v": 77
    },
    {
      "midi": 67,
      "hit": false,
      "t": 525301.4909999982,
      "d": 382.64968749997206,
      "v": 79
    },
    {
      "midi": 63,
      "hit": false,
      "t": 525913.7304999982,
      "d": 1505.088770833332,
      "v": 69
    },
    {
      "midi": 67,
      "hit": false,
      "t": 525913.7304999982,
      "d": 1536.9762447916437,
      "v": 68
    },
    {
      "midi": 70,
      "hit": false,
      "t": 525913.7304999982,
      "d": 1562.4862239583163,
      "v": 56
    },
    {
      "midi": 51,
      "hit": false,
      "t": 526525.9699999982,
      "d": 1600.751192708267,
      "v": 63
    },
    {
      "midi": 63,
      "hit": false,
      "t": 527750.4489999982,
      "d": 676.0144479166484,
      "v": 81
    },
    {
      "midi": 67,
      "hit": false,
      "t": 527750.4489999982,
      "d": 695.1469322916819,
      "v": 83
    },
    {
      "midi": 70,
      "hit": false,
      "t": 527750.4489999982,
      "d": 727.0344062499935,
      "v": 71
    },
    {
      "midi": 48,
      "hit": false,
      "t": 528974.9279999982,
      "d": 1772.9435520833358,
      "v": 56
    },
    {
      "midi": 63,
      "hit": false,
      "t": 530199.4069999983,
      "d": 1192.5915260416223,
      "v": 72
    },
    {
      "midi": 72,
      "hit": false,
      "t": 530199.4069999983,
      "d": 1205.3465156249003,
      "v": 81
    },
    {
      "midi": 67,
      "hit": false,
      "t": 530199.4069999983,
      "d": 1371.1613802082138,
      "v": 76
    },
    {
      "midi": 48,
      "hit": false,
      "t": 531117.7662499982,
      "d": 306.11974999995437,
      "v": 62
    },
    {
      "midi": 53,
      "hit": false,
      "t": 531423.8859999982,
      "d": 758.9218802081887,
      "v": 64
    },
    {
      "midi": 65,
      "hit": false,
      "t": 531730.0057499981,
      "d": 127.54989583336283,
      "v": 77
    },
    {
      "midi": 60,
      "hit": false,
      "t": 531730.0057499981,
      "d": 140.3048854166409,
      "v": 75
    },
    {
      "midi": 69,
      "hit": false,
      "t": 531730.0057499981,
      "d": 172.1923593749525,
      "v": 77
    },
    {
      "midi": 60,
      "hit": false,
      "t": 532648.364999998,
      "d": 841.8293125000782,
      "v": 69
    },
    {
      "midi": 69,
      "hit": false,
      "t": 532648.364999998,
      "d": 867.3392916667508,
      "v": 82
    },
    {
      "midi": 65,
      "hit": false,
      "t": 532648.364999998,
      "d": 931.114239583374,
      "v": 88
    },
    {
      "midi": 53,
      "hit": false,
      "t": 533260.604499998,
      "d": 593.1070156249916,
      "v": 64
    },
    {
      "midi": 50,
      "hit": false,
      "t": 533872.8439999981,
      "d": 822.6968281250447,
      "v": 73
    },
    {
      "midi": 43,
      "hit": false,
      "t": 533872.8439999981,
      "d": 835.4518177083228,
      "v": 75
    },
    {
      "midi": 58,
      "hit": false,
      "t": 533872.8439999981,
      "d": 835.4518177083228,
      "v": 76
    },
    {
      "midi": 55,
      "hit": false,
      "t": 533872.8439999981,
      "d": 848.2068072916009,
      "v": 80
    },
    {
      "midi": 58,
      "hit": false,
      "t": 535097.322999998,
      "d": 459.17962499998976,
      "v": 86
    },
    {
      "midi": 50,
      "hit": false,
      "t": 535097.322999998,
      "d": 478.3121093750233,
      "v": 85
    },
    {
      "midi": 55,
      "hit": false,
      "t": 535097.322999998,
      "d": 478.3121093750233,
      "v": 83
    },
    {
      "midi": 51,
      "hit": false,
      "t": 535709.562499998,
      "d": 1390.2938645833638,
      "v": 44
    },
    {
      "midi": 55,
      "hit": false,
      "t": 535709.562499998,
      "d": 1422.1813385416754,
      "v": 44
    },
    {
      "midi": 58,
      "hit": false,
      "t": 535709.562499998,
      "d": 1422.1813385416754,
      "v": 38
    },
    {
      "midi": 39,
      "hit": false,
      "t": 536321.801999998,
      "d": 293.3647604166763,
      "v": 53
    },
    {
      "midi": 39,
      "hit": false,
      "t": 536934.0414999981,
      "d": 688.7694374999264,
      "v": 62
    },
    {
      "midi": 51,
      "hit": false,
      "t": 537546.280999998,
      "d": 695.1469322916819,
      "v": 59
    },
    {
      "midi": 55,
      "hit": false,
      "t": 537546.280999998,
      "d": 720.6569114583544,
      "v": 59
    },
    {
      "midi": 58,
      "hit": false,
      "t": 537546.280999998,
      "d": 727.0344062499935,
      "v": 67
    },
    {
      "midi": 36,
      "hit": false,
      "t": 538770.759999998,
      "d": 758.9218802083051,
      "v": 66
    },
    {
      "midi": 51,
      "hit": false,
      "t": 539995.238999998,
      "d": 1294.6314427083125,
      "v": 67
    },
    {
      "midi": 60,
      "hit": false,
      "t": 539995.238999998,
      "d": 1358.4063906249357,
      "v": 67
    },
    {
      "midi": 55,
      "hit": false,
      "t": 539995.238999998,
      "d": 1396.6713593748864,
      "v": 66
    },
    {
      "midi": 36,
      "hit": false,
      "t": 540913.598249998,
      "d": 280.6097708332818,
      "v": 65
    },
    {
      "midi": 41,
      "hit": false,
      "t": 541219.7179999979,
      "d": 261.4772864582483,
      "v": 73
    },
    {
      "midi": 41,
      "hit": false,
      "t": 541831.9574999978,
      "d": 618.6169947916642,
      "v": 79
    },
    {
      "midi": 48,
      "hit": false,
      "t": 542444.1969999978,
      "d": 286.98726562492084,
      "v": 54
    },
    {
      "midi": 53,
      "hit": false,
      "t": 542444.1969999978,
      "d": 286.98726562492084,
      "v": 52
    },
    {
      "midi": 57,
      "hit": false,
      "t": 542444.1969999978,
      "d": 286.98726562492084,
      "v": 52
    }
  ]
}