{
  "jsonPath": "Rock/Pop Rock/Tracy Chapman/for-my-lover-lp-version.json",
  "path": "Rock\\Pop Rock\\Tracy Chapman\\For My Lover (LP Version).mid",
  "name": "For My Lover (LP Version)",
  "difficulty": "Advanced",
  "bpm": 82.00003553334874,
  "notes": [
    {
      "midi": 55,
      "hit": false,
      "t": 4390.242,
      "d": 701.2192083333339,
      "v": 127
    },
    {
      "midi": 59,
      "hit": false,
      "t": 4390.242,
      "d": 701.2192083333339,
      "v": 127
    },
    {
      "midi": 64,
      "hit": false,
      "t": 4390.242,
      "d": 701.2192083333339,
      "v": 127
    },
    {
      "midi": 55,
      "hit": false,
      "t": 4390.242,
      "d": 701.2192083333339,
      "v": 127
    },
    {
      "midi": 59,
      "hit": false,
      "t": 4390.242,
      "d": 701.2192083333339,
      "v": 127
    },
    {
      "midi": 64,
      "hit": false,
      "t": 4390.242,
      "d": 701.2192083333339,
      "v": 127
    },
    {
      "midi": 52,
      "hit": false,
      "t": 4756.0955,
      "d": 335.3657083333337,
      "v": 127
    },
    {
      "midi": 52,
      "hit": false,
      "t": 4756.0955,
      "d": 335.3657083333337,
      "v": 127
    },
    {
      "midi": 55,
      "hit": false,
      "t": 5121.9490000000005,
      "d": 701.2192083333339,
      "v": 127
    },
    {
      "midi": 59,
      "hit": false,
      "t": 5121.9490000000005,
      "d": 701.2192083333339,
      "v": 127
    },
    {
      "midi": 64,
      "hit": false,
      "t": 5121.9490000000005,
      "d": 701.2192083333339,
      "v": 127
    },
    {
      "midi": 55,
      "hit": false,
      "t": 5121.9490000000005,
      "d": 701.2192083333339,
      "v": 127
    },
    {
      "midi": 59,
      "hit": false,
      "t": 5121.9490000000005,
      "d": 701.2192083333339,
      "v": 127
    },
    {
      "midi": 64,
      "hit": false,
      "t": 5121.9490000000005,
      "d": 701.2192083333339,
      "v": 127
    },
    {
      "midi": 52,
      "hit": false,
      "t": 5487.802500000001,
      "d": 335.3657083333337,
      "v": 127
    },
    {
      "midi": 52,
      "hit": false,
      "t": 5487.802500000001,
      "d": 335.3657083333337,
      "v": 127
    },
    {
      "midi": 55,
      "hit": false,
      "t": 5853.656000000001,
      "d": 701.2192083333339,
      "v": 127
    },
    {
      "midi": 59,
      "hit": false,
      "t": 5853.656000000001,
      "d": 701.2192083333339,
      "v": 127
    },
    {
      "midi": 62,
      "hit": false,
      "t": 5853.656000000001,
      "d": 701.2192083333339,
      "v": 127
    },
    {
      "midi": 55,
      "hit": false,
      "t": 5853.656000000001,
      "d": 701.2192083333339,
      "v": 127
    },
    {
      "midi": 59,
      "hit": false,
      "t": 5853.656000000001,
      "d": 701.2192083333339,
      "v": 127
    },
    {
      "midi": 62,
      "hit": false,
      "t": 5853.656000000001,
      "d": 701.2192083333339,
      "v": 127
    },
    {
      "midi": 50,
      "hit": false,
      "t": 6219.509500000001,
      "d": 335.3657083333337,
      "v": 127
    },
    {
      "midi": 50,
      "hit": false,
      "t": 6219.509500000001,
      "d": 335.3657083333337,
      "v": 127
    },
    {
      "midi": 55,
      "hit": false,
      "t": 6585.363000000001,
      "d": 701.2192083333339,
      "v": 127
    },
    {
      "midi": 59,
      "hit": false,
      "t": 6585.363000000001,
      "d": 701.2192083333339,
      "v": 127
    },
    {
      "midi": 62,
      "hit": false,
      "t": 6585.363000000001,
      "d": 701.2192083333339,
      "v": 127
    },
    {
      "midi": 55,
      "hit": false,
      "t": 6585.363000000001,
      "d": 701.2192083333339,
      "v": 127
    },
    {
      "midi": 59,
      "hit": false,
      "t": 6585.363000000001,
      "d": 701.2192083333339,
      "v": 127
    },
    {
      "midi": 62,
      "hit": false,
      "t": 6585.363000000001,
      "d": 701.2192083333339,
      "v": 127
    },
    {
      "midi": 50,
      "hit": false,
      "t": 6951.216500000001,
      "d": 335.3657083333337,
      "v": 127
    },
    {
      "midi": 50,
      "hit": false,
      "t": 6951.216500000001,
      "d": 335.3657083333337,
      "v": 127
    },
    {
      "midi": 50,
      "hit": false,
      "t": 7317.0700000000015,
      "d": 304.87791666666635,
      "v": 127
    },
    {
      "midi": 47,
      "hit": false,
      "t": 7317.0700000000015,
      "d": 335.3657083333328,
      "v": 127
    },
    {
      "midi": 54,
      "hit": false,
      "t": 7317.0700000000015,
      "d": 335.3657083333328,
      "v": 127
    },
    {
      "midi": 57,
      "hit": false,
      "t": 7317.0700000000015,
      "d": 335.3657083333328,
      "v": 127
    },
    {
      "midi": 50,
      "hit": false,
      "t": 7317.0700000000015,
      "d": 304.87791666666635,
      "v": 127
    },
    {
      "midi": 47,
      "hit": false,
      "t": 7317.0700000000015,
      "d": 335.3657083333328,
      "v": 127
    },
    {
      "midi": 54,
      "hit": false,
      "t": 7317.0700000000015,
      "d": 335.3657083333328,
      "v": 127
    },
    {
      "midi": 57,
      "hit": false,
      "t": 7317.0700000000015,
      "d": 335.3657083333328,
      "v": 127
    },
    {
      "midi": 47,
      "hit": false,
      "t": 7682.923500000001,
      "d": 335.3657083333337,
      "v": 127
    },
    {
      "midi": 54,
      "hit": false,
      "t": 7682.923500000001,
      "d": 670.7314166666674,
      "v": 127
    },
    {
      "midi": 50,
      "hit": false,
      "t": 7682.923500000001,
      "d": 701.2192083333339,
      "v": 127
    },
    {
      "midi": 57,
      "hit": false,
      "t": 7682.923500000001,
      "d": 701.2192083333339,
      "v": 127
    },
    {
      "midi": 47,
      "hit": false,
      "t": 7682.923500000001,
      "d": 335.3657083333337,
      "v": 127
    },
    {
      "midi": 54,
      "hit": false,
      "t": 7682.923500000001,
      "d": 670.7314166666674,
      "v": 127
    },
    {
      "midi": 50,
      "hit": false,
      "t": 7682.923500000001,
      "d": 701.2192083333339,
      "v": 127
    },
    {
      "midi": 57,
      "hit": false,
      "t": 7682.923500000001,
      "d": 701.2192083333339,
      "v": 127
    },
    {
      "midi": 62,
      "hit": false,
      "t": 8048.777000000001,
      "d": 335.3657083333337,
      "v": 127
    },
    {
      "midi": 62,
      "hit": false,
      "t": 8048.777000000001,
      "d": 335.3657083333337,
      "v": 127
    },
    {
      "midi": 48,
      "hit": false,
      "t": 8414.630500000001,
      "d": 1615.852958333333,
      "v": 127
    },
    {
      "midi": 52,
      "hit": false,
      "t": 8414.630500000001,
      "d": 1615.852958333333,
      "v": 127
    },
    {
      "midi": 55,
      "hit": false,
      "t": 8414.630500000001,
      "d": 1615.852958333333,
      "v": 127
    },
    {
      "midi": 60,
      "hit": false,
      "t": 8414.630500000001,
      "d": 1615.852958333333,
      "v": 127
    },
    {
      "midi": 48,
      "hit": false,
      "t": 8414.630500000001,
      "d": 1615.852958333333,
      "v": 127
    },
    {
      "midi": 52,
      "hit": false,
      "t": 8414.630500000001,
      "d": 1615.852958333333,
      "v": 127
    },
    {
      "midi": 55,
      "hit": false,
      "t": 8414.630500000001,
      "d": 1615.852958333333,
      "v": 127
    },
    {
      "midi": 60,
      "hit": false,
      "t": 8414.630500000001,
      "d": 1615.852958333333,
      "v": 127
    },
    {
      "midi": 55,
      "hit": false,
      "t": 10243.898000000001,
      "d": 701.2192083333321,
      "v": 127
    },
    {
      "midi": 59,
      "hit": false,
      "t": 10243.898000000001,
      "d": 701.2192083333321,
      "v": 127
    },
    {
      "midi": 64,
      "hit": false,
      "t": 10243.898000000001,
      "d": 701.2192083333321,
      "v": 127
    },
    {
      "midi": 55,
      "hit": false,
      "t": 10243.898000000001,
      "d": 701.2192083333321,
      "v": 127
    },
    {
      "midi": 59,
      "hit": false,
      "t": 10243.898000000001,
      "d": 701.2192083333321,
      "v": 127
    },
    {
      "midi": 64,
      "hit": false,
      "t": 10243.898000000001,
      "d": 701.2192083333321,
      "v": 127
    },
    {
      "midi": 52,
      "hit": false,
      "t": 10609.7515,
      "d": 335.3657083333328,
      "v": 127
    },
    {
      "midi": 52,
      "hit": false,
      "t": 10609.7515,
      "d": 335.3657083333328,
      "v": 127
    },
    {
      "midi": 55,
      "hit": false,
      "t": 10975.605,
      "d": 701.2192083333321,
      "v": 127
    },
    {
      "midi": 59,
      "hit": false,
      "t": 10975.605,
      "d": 701.2192083333321,
      "v": 127
    },
    {
      "midi": 64,
      "hit": false,
      "t": 10975.605,
      "d": 701.2192083333321,
      "v": 127
    },
    {
      "midi": 55,
      "hit": false,
      "t": 10975.605,
      "d": 701.2192083333321,
      "v": 127
    },
    {
      "midi": 59,
      "hit": false,
      "t": 10975.605,
      "d": 701.2192083333321,
      "v": 127
    },
    {
      "midi": 64,
      "hit": false,
      "t": 10975.605,
      "d": 701.2192083333321,
      "v": 127
    },
    {
      "midi": 52,
      "hit": false,
      "t": 11341.458499999999,
      "d": 335.3657083333328,
      "v": 127
    },
    {
      "midi": 52,
      "hit": false,
      "t": 11341.458499999999,
      "d": 335.3657083333328,
      "v": 127
    },
    {
      "midi": 55,
      "hit": false,
      "t": 11707.311999999998,
      "d": 701.2192083333321,
      "v": 127
    },
    {
      "midi": 59,
      "hit": false,
      "t": 11707.311999999998,
      "d": 701.2192083333321,
      "v": 127
    },
    {
      "midi": 62,
      "hit": false,
      "t": 11707.311999999998,
      "d": 701.2192083333321,
      "v": 127
    },
    {
      "midi": 55,
      "hit": false,
      "t": 11707.311999999998,
      "d": 701.2192083333321,
      "v": 127
    },
    {
      "midi": 59,
      "hit": false,
      "t": 11707.311999999998,
      "d": 701.2192083333321,
      "v": 127
    },
    {
      "midi": 62,
      "hit": false,
      "t": 11707.311999999998,
      "d": 701.2192083333321,
      "v": 127
    },
    {
      "midi": 50,
      "hit": false,
      "t": 12073.165499999997,
      "d": 335.3657083333328,
      "v": 127
    },
    {
      "midi": 50,
      "hit": false,
      "t": 12073.165499999997,
      "d": 335.3657083333328,
      "v": 127
    },
    {
      "midi": 55,
      "hit": false,
      "t": 12439.018999999997,
      "d": 701.2192083333321,
      "v": 127
    },
    {
      "midi": 59,
      "hit": false,
      "t": 12439.018999999997,
      "d": 701.2192083333321,
      "v": 127
    },
    {
      "midi": 62,
      "hit": false,
      "t": 12439.018999999997,
      "d": 701.2192083333321,
      "v": 127
    },
    {
      "midi": 55,
      "hit": false,
      "t": 12439.018999999997,
      "d": 701.2192083333321,
      "v": 127
    },
    {
      "midi": 59,
      "hit": false,
      "t": 12439.018999999997,
      "d": 701.2192083333321,
      "v": 127
    },
    {
      "midi": 62,
      "hit": false,
      "t": 12439.018999999997,
      "d": 701.2192083333321,
      "v": 127
    },
    {
      "midi": 50,
      "hit": false,
      "t": 12804.872499999996,
      "d": 335.3657083333328,
      "v": 127
    },
    {
      "midi": 50,
      "hit": false,
      "t": 12804.872499999996,
      "d": 335.3657083333328,
      "v": 127
    },
    {
      "midi": 50,
      "hit": false,
      "t": 13170.725999999995,
      "d": 304.87791666666635,
      "v": 127
    },
    {
      "midi": 47,
      "hit": false,
      "t": 13170.725999999995,
      "d": 335.3657083333328,
      "v": 127
    },
    {
      "midi": 54,
      "hit": false,
      "t": 13170.725999999995,
      "d": 335.3657083333328,
      "v": 127
    },
    {
      "midi": 57,
      "hit": false,
      "t": 13170.725999999995,
      "d": 335.3657083333328,
      "v": 127
    },
    {
      "midi": 50,
      "hit": false,
      "t": 13170.725999999995,
      "d": 304.87791666666635,
      "v": 127
    },
    {
      "midi": 47,
      "hit": false,
      "t": 13170.725999999995,
      "d": 335.3657083333328,
      "v": 127
    },
    {
      "midi": 54,
      "hit": false,
      "t": 13170.725999999995,
      "d": 335.3657083333328,
      "v": 127
    },
    {
      "midi": 57,
      "hit": false,
      "t": 13170.725999999995,
      "d": 335.3657083333328,
      "v": 127
    },
    {
      "midi": 47,
      "hit": false,
      "t": 13536.579499999994,
      "d": 335.3657083333328,
      "v": 127
    },
    {
      "midi": 54,
      "hit": false,
      "t": 13536.579499999994,
      "d": 670.7314166666656,
      "v": 127
    },
    {
      "midi": 50,
      "hit": false,
      "t": 13536.579499999994,
      "d": 701.2192083333321,
      "v": 127
    },
    {
      "midi": 57,
      "hit": false,
      "t": 13536.579499999994,
      "d": 701.2192083333321,
      "v": 127
    },
    {
      "midi": 47,
      "hit": false,
      "t": 13536.579499999994,
      "d": 335.3657083333328,
      "v": 127
    },
    {
      "midi": 54,
      "hit": false,
      "t": 13536.579499999994,
      "d": 670.7314166666656,
      "v": 127
    },
    {
      "midi": 50,
      "hit": false,
      "t": 13536.579499999994,
      "d": 701.2192083333321,
      "v": 127
    },
    {
      "midi": 57,
      "hit": false,
      "t": 13536.579499999994,
      "d": 701.2192083333321,
      "v": 127
    },
    {
      "midi": 62,
      "hit": false,
      "t": 13902.432999999994,
      "d": 335.3657083333328,
      "v": 127
    },
    {
      "midi": 62,
      "hit": false,
      "t": 13902.432999999994,
      "d": 335.3657083333328,
      "v": 127
    },
    {
      "midi": 48,
      "hit": false,
      "t": 14268.286499999993,
      "d": 3048.7791666666653,
      "v": 127
    },
    {
      "midi": 52,
      "hit": false,
      "t": 14268.286499999993,
      "d": 3079.266958333332,
      "v": 127
    },
    {
      "midi": 55,
      "hit": false,
      "t": 14268.286499999993,
      "d": 3079.266958333332,
      "v": 127
    },
    {
      "midi": 60,
      "hit": false,
      "t": 14268.286499999993,
      "d": 3079.266958333332,
      "v": 127
    },
    {
      "midi": 48,
      "hit": false,
      "t": 14268.286499999993,
      "d": 1615.852958333333,
      "v": 127
    },
    {
      "midi": 52,
      "hit": false,
      "t": 14268.286499999993,
      "d": 1615.852958333333,
      "v": 127
    },
    {
      "midi": 55,
      "hit": false,
      "t": 14268.286499999993,
      "d": 1615.852958333333,
      "v": 127
    },
    {
      "midi": 60,
      "hit": false,
      "t": 14268.286499999993,
      "d": 1615.852958333333,
      "v": 127
    },
    {
      "midi": 52,
      "hit": false,
      "t": 58536.55999999999,
      "d": 701.2192083333357,
      "v": 126
    },
    {
      "midi": 55,
      "hit": false,
      "t": 58536.55999999999,
      "d": 701.2192083333357,
      "v": 126
    },
    {
      "midi": 59,
      "hit": false,
      "t": 58536.55999999999,
      "d": 701.2192083333357,
      "v": 126
    },
    {
      "midi": 64,
      "hit": false,
      "t": 58536.55999999999,
      "d": 701.2192083333357,
      "v": 126
    },
    {
      "midi": 52,
      "hit": false,
      "t": 58536.56,
      "d": 701.2192083333357,
      "v": 126
    },
    {
      "midi": 55,
      "hit": false,
      "t": 58536.56,
      "d": 701.2192083333357,
      "v": 126
    },
    {
      "midi": 59,
      "hit": false,
      "t": 58536.56,
      "d": 701.2192083333357,
      "v": 126
    },
    {
      "midi": 64,
      "hit": false,
      "t": 58536.56,
      "d": 701.2192083333357,
      "v": 126
    },
    {
      "midi": 52,
      "hit": false,
      "t": 59268.26699999999,
      "d": 335.365708333331,
      "v": 126
    },
    {
      "midi": 55,
      "hit": false,
      "t": 59268.26699999999,
      "d": 701.2192083333284,
      "v": 126
    },
    {
      "midi": 59,
      "hit": false,
      "t": 59268.26699999999,
      "d": 701.2192083333284,
      "v": 126
    },
    {
      "midi": 64,
      "hit": false,
      "t": 59268.26699999999,
      "d": 701.2192083333284,
      "v": 126
    },
    {
      "midi": 52,
      "hit": false,
      "t": 59268.267,
      "d": 335.365708333331,
      "v": 126
    },
    {
      "midi": 55,
      "hit": false,
      "t": 59268.267,
      "d": 701.2192083333284,
      "v": 126
    },
    {
      "midi": 59,
      "hit": false,
      "t": 59268.267,
      "d": 701.2192083333284,
      "v": 126
    },
    {
      "midi": 64,
      "hit": false,
      "t": 59268.267,
      "d": 701.2192083333284,
      "v": 126
    },
    {
      "midi": 54,
      "hit": false,
      "t": 59634.12049999999,
      "d": 335.365708333331,
      "v": 126
    },
    {
      "midi": 54,
      "hit": false,
      "t": 59634.1205,
      "d": 335.365708333331,
      "v": 126
    },
    {
      "midi": 55,
      "hit": false,
      "t": 59999.97399999999,
      "d": 701.2192083333357,
      "v": 126
    },
    {
      "midi": 59,
      "hit": false,
      "t": 59999.97399999999,
      "d": 701.2192083333357,
      "v": 126
    },
    {
      "midi": 62,
      "hit": false,
      "t": 59999.97399999999,
      "d": 701.2192083333357,
      "v": 126
    },
    {
      "midi": 55,
      "hit": false,
      "t": 59999.973999999995,
      "d": 701.2192083333357,
      "v": 126
    },
    {
      "midi": 59,
      "hit": false,
      "t": 59999.973999999995,
      "d": 701.2192083333357,
      "v": 126
    },
    {
      "midi": 62,
      "hit": false,
      "t": 59999.973999999995,
      "d": 701.2192083333357,
      "v": 126
    },
    {
      "midi": 55,
      "hit": false,
      "t": 60731.68099999999,
      "d": 701.2192083333357,
      "v": 126
    },
    {
      "midi": 59,
      "hit": false,
      "t": 60731.68099999999,
      "d": 701.2192083333357,
      "v": 126
    },
    {
      "midi": 62,
      "hit": false,
      "t": 60731.68099999999,
      "d": 701.2192083333357,
      "v": 126
    },
    {
      "midi": 55,
      "hit": false,
      "t": 60731.681,
      "d": 701.2192083333357,
      "v": 126
    },
    {
      "midi": 59,
      "hit": false,
      "t": 60731.681,
      "d": 701.2192083333357,
      "v": 126
    },
    {
      "midi": 62,
      "hit": false,
      "t": 60731.681,
      "d": 701.2192083333357,
      "v": 126
    },
    {
      "midi": 50,
      "hit": false,
      "t": 61463.38799999999,
      "d": 701.2192083333357,
      "v": 126
    },
    {
      "midi": 54,
      "hit": false,
      "t": 61463.38799999999,
      "d": 701.2192083333357,
      "v": 126
    },
    {
      "midi": 57,
      "hit": false,
      "t": 61463.38799999999,
      "d": 701.2192083333357,
      "v": 126
    },
    {
      "midi": 62,
      "hit": false,
      "t": 61463.38799999999,
      "d": 701.2192083333357,
      "v": 126
    },
    {
      "midi": 50,
      "hit": false,
      "t": 61463.388,
      "d": 701.2192083333357,
      "v": 126
    },
    {
      "midi": 54,
      "hit": false,
      "t": 61463.388,
      "d": 701.2192083333357,
      "v": 126
    },
    {
      "midi": 57,
      "hit": false,
      "t": 61463.388,
      "d": 701.2192083333357,
      "v": 126
    },
    {
      "midi": 62,
      "hit": false,
      "t": 61463.388,
      "d": 701.2192083333357,
      "v": 126
    },
    {
      "midi": 48,
      "hit": false,
      "t": 62195.094999999994,
      "d": 304.87791666666453,
      "v": 126
    },
    {
      "midi": 54,
      "hit": false,
      "t": 62195.094999999994,
      "d": 701.2192083333284,
      "v": 126
    },
    {
      "midi": 57,
      "hit": false,
      "t": 62195.094999999994,
      "d": 701.2192083333284,
      "v": 126
    },
    {
      "midi": 62,
      "hit": false,
      "t": 62195.094999999994,
      "d": 701.2192083333284,
      "v": 126
    },
    {
      "midi": 48,
      "hit": false,
      "t": 62195.095,
      "d": 304.87791666666453,
      "v": 126
    },
    {
      "midi": 54,
      "hit": false,
      "t": 62195.095,
      "d": 701.2192083333284,
      "v": 126
    },
    {
      "midi": 57,
      "hit": false,
      "t": 62195.095,
      "d": 701.2192083333284,
      "v": 126
    },
    {
      "midi": 62,
      "hit": false,
      "t": 62195.095,
      "d": 701.2192083333284,
      "v": 126
    },
    {
      "midi": 47,
      "hit": false,
      "t": 62560.94849999999,
      "d": 335.365708333331,
      "v": 126
    },
    {
      "midi": 47,
      "hit": false,
      "t": 62560.9485,
      "d": 335.365708333331,
      "v": 126
    },
    {
      "midi": 45,
      "hit": false,
      "t": 62926.80199999999,
      "d": 701.2192083333357,
      "v": 126
    },
    {
      "midi": 52,
      "hit": false,
      "t": 62926.80199999999,
      "d": 701.2192083333357,
      "v": 126
    },
    {
      "midi": 57,
      "hit": false,
      "t": 62926.80199999999,
      "d": 701.2192083333357,
      "v": 126
    },
    {
      "midi": 60,
      "hit": false,
      "t": 62926.80199999999,
      "d": 701.2192083333357,
      "v": 126
    },
    {
      "midi": 45,
      "hit": false,
      "t": 62926.801999999996,
      "d": 701.2192083333357,
      "v": 126
    },
    {
      "midi": 52,
      "hit": false,
      "t": 62926.801999999996,
      "d": 701.2192083333357,
      "v": 126
    },
    {
      "midi": 57,
      "hit": false,
      "t": 62926.801999999996,
      "d": 701.2192083333357,
      "v": 126
    },
    {
      "midi": 60,
      "hit": false,
      "t": 62926.801999999996,
      "d": 701.2192083333357,
      "v": 126
    },
    {
      "midi": 45,
      "hit": false,
      "t": 63658.50899999999,
      "d": 701.2192083333357,
      "v": 126
    },
    {
      "midi": 52,
      "hit": false,
      "t": 63658.50899999999,
      "d": 701.2192083333357,
      "v": 126
    },
    {
      "midi": 57,
      "hit": false,
      "t": 63658.50899999999,
      "d": 701.2192083333357,
      "v": 126
    },
    {
      "midi": 60,
      "hit": false,
      "t": 63658.50899999999,
      "d": 701.2192083333357,
      "v": 126
    },
    {
      "midi": 45,
      "hit": false,
      "t": 63658.509,
      "d": 701.2192083333357,
      "v": 126
    },
    {
      "midi": 52,
      "hit": false,
      "t": 63658.509,
      "d": 701.2192083333357,
      "v": 126
    },
    {
      "midi": 57,
      "hit": false,
      "t": 63658.509,
      "d": 701.2192083333357,
      "v": 126
    },
    {
      "midi": 60,
      "hit": false,
      "t": 63658.509,
      "d": 701.2192083333357,
      "v": 126
    },
    {
      "midi": 52,
      "hit": false,
      "t": 64390.21599999999,
      "d": 701.2192083333357,
      "v": 126
    },
    {
      "midi": 55,
      "hit": false,
      "t": 64390.21599999999,
      "d": 701.2192083333357,
      "v": 126
    },
    {
      "midi": 59,
      "hit": false,
      "t": 64390.21599999999,
      "d": 701.2192083333357,
      "v": 126
    },
    {
      "midi": 64,
      "hit": false,
      "t": 64390.21599999999,
      "d": 701.2192083333357,
      "v": 126
    },
    {
      "midi": 52,
      "hit": false,
      "t": 64390.216,
      "d": 701.2192083333357,
      "v": 126
    },
    {
      "midi": 55,
      "hit": false,
      "t": 64390.216,
      "d": 701.2192083333357,
      "v": 126
    },
    {
      "midi": 59,
      "hit": false,
      "t": 64390.216,
      "d": 701.2192083333357,
      "v": 126
    },
    {
      "midi": 64,
      "hit": false,
      "t": 64390.216,
      "d": 701.2192083333357,
      "v": 126
    },
    {
      "midi": 52,
      "hit": false,
      "t": 65121.922999999995,
      "d": 335.365708333331,
      "v": 126
    },
    {
      "midi": 55,
      "hit": false,
      "t": 65121.922999999995,
      "d": 701.2192083333357,
      "v": 126
    },
    {
      "midi": 59,
      "hit": false,
      "t": 65121.922999999995,
      "d": 701.2192083333357,
      "v": 126
    },
    {
      "midi": 64,
      "hit": false,
      "t": 65121.922999999995,
      "d": 701.2192083333357,
      "v": 126
    },
    {
      "midi": 52,
      "hit": false,
      "t": 65121.923,
      "d": 335.365708333331,
      "v": 126
    },
    {
      "midi": 55,
      "hit": false,
      "t": 65121.923,
      "d": 701.2192083333284,
      "v": 126
    },
    {
      "midi": 59,
      "hit": false,
      "t": 65121.923,
      "d": 701.2192083333284,
      "v": 126
    },
    {
      "midi": 64,
      "hit": false,
      "t": 65121.923,
      "d": 701.2192083333284,
      "v": 126
    },
    {
      "midi": 54,
      "hit": false,
      "t": 65487.77649999999,
      "d": 335.36570833333826,
      "v": 126
    },
    {
      "midi": 54,
      "hit": false,
      "t": 65487.7765,
      "d": 335.365708333331,
      "v": 126
    },
    {
      "midi": 55,
      "hit": false,
      "t": 65853.63,
      "d": 701.2192083333357,
      "v": 126
    },
    {
      "midi": 59,
      "hit": false,
      "t": 65853.63,
      "d": 701.2192083333357,
      "v": 126
    },
    {
      "midi": 62,
      "hit": false,
      "t": 65853.63,
      "d": 701.2192083333357,
      "v": 126
    },
    {
      "midi": 55,
      "hit": false,
      "t": 65853.63,
      "d": 701.2192083333357,
      "v": 126
    },
    {
      "midi": 59,
      "hit": false,
      "t": 65853.63,
      "d": 701.2192083333357,
      "v": 126
    },
    {
      "midi": 62,
      "hit": false,
      "t": 65853.63,
      "d": 701.2192083333357,
      "v": 126
    },
    {
      "midi": 55,
      "hit": false,
      "t": 66585.33700000001,
      "d": 701.2192083333357,
      "v": 126
    },
    {
      "midi": 59,
      "hit": false,
      "t": 66585.33700000001,
      "d": 701.2192083333357,
      "v": 126
    },
    {
      "midi": 62,
      "hit": false,
      "t": 66585.33700000001,
      "d": 701.2192083333357,
      "v": 126
    },
    {
      "midi": 55,
      "hit": false,
      "t": 66585.33700000001,
      "d": 701.2192083333357,
      "v": 126
    },
    {
      "midi": 59,
      "hit": false,
      "t": 66585.33700000001,
      "d": 701.2192083333357,
      "v": 126
    },
    {
      "midi": 62,
      "hit": false,
      "t": 66585.33700000001,
      "d": 701.2192083333357,
      "v": 126
    },
    {
      "midi": 50,
      "hit": false,
      "t": 67317.04400000002,
      "d": 701.2192083333357,
      "v": 126
    },
    {
      "midi": 54,
      "hit": false,
      "t": 67317.04400000002,
      "d": 701.2192083333357,
      "v": 126
    },
    {
      "midi": 57,
      "hit": false,
      "t": 67317.04400000002,
      "d": 701.2192083333357,
      "v": 126
    },
    {
      "midi": 62,
      "hit": false,
      "t": 67317.04400000002,
      "d": 701.2192083333357,
      "v": 126
    },
    {
      "midi": 50,
      "hit": false,
      "t": 67317.04400000002,
      "d": 701.2192083333357,
      "v": 126
    },
    {
      "midi": 54,
      "hit": false,
      "t": 67317.04400000002,
      "d": 701.2192083333357,
      "v": 126
    },
    {
      "midi": 57,
      "hit": false,
      "t": 67317.04400000002,
      "d": 701.2192083333357,
      "v": 126
    },
    {
      "midi": 62,
      "hit": false,
      "t": 67317.04400000002,
      "d": 701.2192083333357,
      "v": 126
    },
    {
      "midi": 48,
      "hit": false,
      "t": 68048.75100000003,
      "d": 304.87791666666453,
      "v": 126
    },
    {
      "midi": 54,
      "hit": false,
      "t": 68048.75100000003,
      "d": 701.2192083333357,
      "v": 126
    },
    {
      "midi": 57,
      "hit": false,
      "t": 68048.75100000003,
      "d": 701.2192083333357,
      "v": 126
    },
    {
      "midi": 62,
      "hit": false,
      "t": 68048.75100000003,
      "d": 701.2192083333357,
      "v": 126
    },
    {
      "midi": 48,
      "hit": false,
      "t": 68048.75100000003,
      "d": 304.87791666666453,
      "v": 126
    },
    {
      "midi": 54,
      "hit": false,
      "t": 68048.75100000003,
      "d": 701.2192083333357,
      "v": 126
    },
    {
      "midi": 57,
      "hit": false,
      "t": 68048.75100000003,
      "d": 701.2192083333357,
      "v": 126
    },
    {
      "midi": 62,
      "hit": false,
      "t": 68048.75100000003,
      "d": 701.2192083333357,
      "v": 126
    },
    {
      "midi": 47,
      "hit": false,
      "t": 68414.60450000003,
      "d": 335.36570833333826,
      "v": 126
    },
    {
      "midi": 47,
      "hit": false,
      "t": 68414.60450000003,
      "d": 335.36570833333826,
      "v": 126
    },
    {
      "midi": 45,
      "hit": false,
      "t": 68780.45800000004,
      "d": 701.2192083333357,
      "v": 126
    },
    {
      "midi": 52,
      "hit": false,
      "t": 68780.45800000004,
      "d": 701.2192083333357,
      "v": 126
    },
    {
      "midi": 57,
      "hit": false,
      "t": 68780.45800000004,
      "d": 701.2192083333357,
      "v": 126
    },
    {
      "midi": 60,
      "hit": false,
      "t": 68780.45800000004,
      "d": 701.2192083333357,
      "v": 126
    },
    {
      "midi": 45,
      "hit": false,
      "t": 68780.45800000004,
      "d": 701.2192083333357,
      "v": 126
    },
    {
      "midi": 52,
      "hit": false,
      "t": 68780.45800000004,
      "d": 701.2192083333357,
      "v": 126
    },
    {
      "midi": 57,
      "hit": false,
      "t": 68780.45800000004,
      "d": 701.2192083333357,
      "v": 126
    },
    {
      "midi": 60,
      "hit": false,
      "t": 68780.45800000004,
      "d": 701.2192083333357,
      "v": 126
    },
    {
      "midi": 45,
      "hit": false,
      "t": 69512.16500000005,
      "d": 701.2192083333357,
      "v": 126
    },
    {
      "midi": 52,
      "hit": false,
      "t": 69512.16500000005,
      "d": 701.2192083333357,
      "v": 126
    },
    {
      "midi": 57,
      "hit": false,
      "t": 69512.16500000005,
      "d": 701.2192083333357,
      "v": 126
    },
    {
      "midi": 60,
      "hit": false,
      "t": 69512.16500000005,
      "d": 701.2192083333357,
      "v": 126
    },
    {
      "midi": 45,
      "hit": false,
      "t": 69512.16500000005,
      "d": 701.2192083333357,
      "v": 126
    },
    {
      "midi": 52,
      "hit": false,
      "t": 69512.16500000005,
      "d": 701.2192083333357,
      "v": 126
    },
    {
      "midi": 57,
      "hit": false,
      "t": 69512.16500000005,
      "d": 701.2192083333357,
      "v": 126
    },
    {
      "midi": 60,
      "hit": false,
      "t": 69512.16500000005,
      "d": 701.2192083333357,
      "v": 126
    },
    {
      "midi": 52,
      "hit": false,
      "t": 122926.77600000006,
      "d": 701.2192083333357,
      "v": 126
    },
    {
      "midi": 55,
      "hit": false,
      "t": 122926.77600000006,
      "d": 701.2192083333357,
      "v": 126
    },
    {
      "midi": 59,
      "hit": false,
      "t": 122926.77600000006,
      "d": 701.2192083333357,
      "v": 126
    },
    {
      "midi": 64,
      "hit": false,
      "t": 122926.77600000006,
      "d": 701.2192083333357,
      "v": 126
    },
    {
      "midi": 52,
      "hit": false,
      "t": 122926.77600000006,
      "d": 701.2192083333357,
      "v": 126
    },
    {
      "midi": 55,
      "hit": false,
      "t": 122926.77600000006,
      "d": 701.2192083333357,
      "v": 126
    },
    {
      "midi": 59,
      "hit": false,
      "t": 122926.77600000006,
      "d": 701.2192083333357,
      "v": 126
    },
    {
      "midi": 64,
      "hit": false,
      "t": 122926.77600000006,
      "d": 701.2192083333357,
      "v": 126
    },
    {
      "midi": 52,
      "hit": false,
      "t": 123658.48300000007,
      "d": 335.36570833333826,
      "v": 126
    },
    {
      "midi": 55,
      "hit": false,
      "t": 123658.48300000007,
      "d": 701.2192083333503,
      "v": 126
    },
    {
      "midi": 59,
      "hit": false,
      "t": 123658.48300000007,
      "d": 701.2192083333503,
      "v": 126
    },
    {
      "midi": 64,
      "hit": false,
      "t": 123658.48300000007,
      "d": 701.2192083333503,
      "v": 126
    },
    {
      "midi": 52,
      "hit": false,
      "t": 123658.48300000007,
      "d": 335.36570833333826,
      "v": 126
    },
    {
      "midi": 55,
      "hit": false,
      "t": 123658.48300000007,
      "d": 701.2192083333503,
      "v": 126
    },
    {
      "midi": 59,
      "hit": false,
      "t": 123658.48300000007,
      "d": 701.2192083333503,
      "v": 126
    },
    {
      "midi": 64,
      "hit": false,
      "t": 123658.48300000007,
      "d": 701.2192083333503,
      "v": 126
    },
    {
      "midi": 54,
      "hit": false,
      "t": 124024.33650000008,
      "d": 335.36570833333826,
      "v": 126
    },
    {
      "midi": 54,
      "hit": false,
      "t": 124024.33650000008,
      "d": 335.36570833333826,
      "v": 126
    },
    {
      "midi": 55,
      "hit": false,
      "t": 124390.19000000009,
      "d": 701.2192083333357,
      "v": 126
    },
    {
      "midi": 59,
      "hit": false,
      "t": 124390.19000000009,
      "d": 701.2192083333357,
      "v": 126
    },
    {
      "midi": 62,
      "hit": false,
      "t": 124390.19000000009,
      "d": 701.2192083333357,
      "v": 126
    },
    {
      "midi": 55,
      "hit": false,
      "t": 124390.19000000009,
      "d": 701.2192083333357,
      "v": 126
    },
    {
      "midi": 59,
      "hit": false,
      "t": 124390.19000000009,
      "d": 701.2192083333357,
      "v": 126
    },
    {
      "midi": 62,
      "hit": false,
      "t": 124390.19000000009,
      "d": 701.2192083333357,
      "v": 126
    },
    {
      "midi": 55,
      "hit": false,
      "t": 125121.8970000001,
      "d": 701.2192083333357,
      "v": 126
    },
    {
      "midi": 59,
      "hit": false,
      "t": 125121.8970000001,
      "d": 701.2192083333357,
      "v": 126
    },
    {
      "midi": 62,
      "hit": false,
      "t": 125121.8970000001,
      "d": 701.2192083333357,
      "v": 126
    },
    {
      "midi": 55,
      "hit": false,
      "t": 125121.8970000001,
      "d": 701.2192083333357,
      "v": 126
    },
    {
      "midi": 59,
      "hit": false,
      "t": 125121.8970000001,
      "d": 701.2192083333357,
      "v": 126
    },
    {
      "midi": 62,
      "hit": false,
      "t": 125121.8970000001,
      "d": 701.2192083333357,
      "v": 126
    },
    {
      "midi": 50,
      "hit": false,
      "t": 125853.60400000011,
      "d": 701.2192083333357,
      "v": 126
    },
    {
      "midi": 54,
      "hit": false,
      "t": 125853.60400000011,
      "d": 701.2192083333357,
      "v": 126
    },
    {
      "midi": 57,
      "hit": false,
      "t": 125853.60400000011,
      "d": 701.2192083333357,
      "v": 126
    },
    {
      "midi": 62,
      "hit": false,
      "t": 125853.60400000011,
      "d": 701.2192083333357,
      "v": 126
    },
    {
      "midi": 50,
      "hit": false,
      "t": 125853.60400000011,
      "d": 701.2192083333357,
      "v": 126
    },
    {
      "midi": 54,
      "hit": false,
      "t": 125853.60400000011,
      "d": 701.2192083333357,
      "v": 126
    },
    {
      "midi": 57,
      "hit": false,
      "t": 125853.60400000011,
      "d": 701.2192083333357,
      "v": 126
    },
    {
      "midi": 62,
      "hit": false,
      "t": 125853.60400000011,
      "d": 701.2192083333357,
      "v": 126
    },
    {
      "midi": 48,
      "hit": false,
      "t": 126585.31100000012,
      "d": 304.87791666666453,
      "v": 126
    },
    {
      "midi": 54,
      "hit": false,
      "t": 126585.31100000012,
      "d": 701.2192083333357,
      "v": 126
    },
    {
      "midi": 57,
      "hit": false,
      "t": 126585.31100000012,
      "d": 701.2192083333357,
      "v": 126
    },
    {
      "midi": 62,
      "hit": false,
      "t": 126585.31100000012,
      "d": 701.2192083333357,
      "v": 126
    },
    {
      "midi": 48,
      "hit": false,
      "t": 126585.31100000012,
      "d": 304.87791666666453,
      "v": 126
    },
    {
      "midi": 54,
      "hit": false,
      "t": 126585.31100000012,
      "d": 701.2192083333357,
      "v": 126
    },
    {
      "midi": 57,
      "hit": false,
      "t": 126585.31100000012,
      "d": 701.2192083333357,
      "v": 126
    },
    {
      "midi": 62,
      "hit": false,
      "t": 126585.31100000012,
      "d": 701.2192083333357,
      "v": 126
    },
    {
      "midi": 47,
      "hit": false,
      "t": 126951.16450000012,
      "d": 335.36570833333826,
      "v": 126
    },
    {
      "midi": 47,
      "hit": false,
      "t": 126951.16450000012,
      "d": 335.36570833333826,
      "v": 126
    },
    {
      "midi": 45,
      "hit": false,
      "t": 127317.01800000013,
      "d": 701.2192083333357,
      "v": 126
    },
    {
      "midi": 52,
      "hit": false,
      "t": 127317.01800000013,
      "d": 701.2192083333357,
      "v": 126
    },
    {
      "midi": 57,
      "hit": false,
      "t": 127317.01800000013,
      "d": 701.2192083333357,
      "v": 126
    },
    {
      "midi": 60,
      "hit": false,
      "t": 127317.01800000013,
      "d": 701.2192083333357,
      "v": 126
    },
    {
      "midi": 45,
      "hit": false,
      "t": 127317.01800000013,
      "d": 701.2192083333357,
      "v": 126
    },
    {
      "midi": 52,
      "hit": false,
      "t": 127317.01800000013,
      "d": 701.2192083333357,
      "v": 126
    },
    {
      "midi": 57,
      "hit": false,
      "t": 127317.01800000013,
      "d": 701.2192083333357,
      "v": 126
    },
    {
      "midi": 60,
      "hit": false,
      "t": 127317.01800000013,
      "d": 701.2192083333357,
      "v": 126
    },
    {
      "midi": 45,
      "hit": false,
      "t": 128048.72500000014,
      "d": 701.2192083333357,
      "v": 126
    },
    {
      "midi": 52,
      "hit": false,
      "t": 128048.72500000014,
      "d": 701.2192083333357,
      "v": 126
    },
    {
      "midi": 57,
      "hit": false,
      "t": 128048.72500000014,
      "d": 701.2192083333357,
      "v": 126
    },
    {
      "midi": 60,
      "hit": false,
      "t": 128048.72500000014,
      "d": 701.2192083333357,
      "v": 126
    },
    {
      "midi": 45,
      "hit": false,
      "t": 128048.72500000014,
      "d": 701.2192083333357,
      "v": 126
    },
    {
      "midi": 52,
      "hit": false,
      "t": 128048.72500000014,
      "d": 701.2192083333357,
      "v": 126
    },
    {
      "midi": 57,
      "hit": false,
      "t": 128048.72500000014,
      "d": 701.2192083333357,
      "v": 126
    },
    {
      "midi": 60,
      "hit": false,
      "t": 128048.72500000014,
      "d": 701.2192083333357,
      "v": 126
    },
    {
      "midi": 52,
      "hit": false,
      "t": 128780.43200000015,
      "d": 701.2192083333357,
      "v": 126
    },
    {
      "midi": 55,
      "hit": false,
      "t": 128780.43200000015,
      "d": 701.2192083333357,
      "v": 126
    },
    {
      "midi": 59,
      "hit": false,
      "t": 128780.43200000015,
      "d": 701.2192083333357,
      "v": 126
    },
    {
      "midi": 64,
      "hit": false,
      "t": 128780.43200000015,
      "d": 701.2192083333357,
      "v": 126
    },
    {
      "midi": 52,
      "hit": false,
      "t": 128780.43200000015,
      "d": 701.2192083333357,
      "v": 126
    },
    {
      "midi": 55,
      "hit": false,
      "t": 128780.43200000015,
      "d": 701.2192083333357,
      "v": 126
    },
    {
      "midi": 59,
      "hit": false,
      "t": 128780.43200000015,
      "d": 701.2192083333357,
      "v": 126
    },
    {
      "midi": 64,
      "hit": false,
      "t": 128780.43200000015,
      "d": 701.2192083333357,
      "v": 126
    },
    {
      "midi": 52,
      "hit": false,
      "t": 129512.13900000016,
      "d": 335.36570833333826,
      "v": 126
    },
    {
      "midi": 55,
      "hit": false,
      "t": 129512.13900000016,
      "d": 701.2192083333503,
      "v": 126
    },
    {
      "midi": 59,
      "hit": false,
      "t": 129512.13900000016,
      "d": 701.2192083333503,
      "v": 126
    },
    {
      "midi": 64,
      "hit": false,
      "t": 129512.13900000016,
      "d": 701.2192083333503,
      "v": 126
    },
    {
      "midi": 52,
      "hit": false,
      "t": 129512.13900000016,
      "d": 335.36570833333826,
      "v": 126
    },
    {
      "midi": 55,
      "hit": false,
      "t": 129512.13900000016,
      "d": 701.2192083333503,
      "v": 126
    },
    {
      "midi": 59,
      "hit": false,
      "t": 129512.13900000016,
      "d": 701.2192083333503,
      "v": 126
    },
    {
      "midi": 64,
      "hit": false,
      "t": 129512.13900000016,
      "d": 701.2192083333503,
      "v": 126
    },
    {
      "midi": 54,
      "hit": false,
      "t": 129877.99250000017,
      "d": 335.36570833333826,
      "v": 126
    },
    {
      "midi": 54,
      "hit": false,
      "t": 129877.99250000017,
      "d": 335.36570833333826,
      "v": 126
    },
    {
      "midi": 55,
      "hit": false,
      "t": 130243.84600000018,
      "d": 701.2192083333357,
      "v": 126
    },
    {
      "midi": 59,
      "hit": false,
      "t": 130243.84600000018,
      "d": 701.2192083333357,
      "v": 126
    },
    {
      "midi": 62,
      "hit": false,
      "t": 130243.84600000018,
      "d": 701.2192083333357,
      "v": 126
    },
    {
      "midi": 55,
      "hit": false,
      "t": 130243.84600000018,
      "d": 701.2192083333357,
      "v": 126
    },
    {
      "midi": 59,
      "hit": false,
      "t": 130243.84600000018,
      "d": 701.2192083333357,
      "v": 126
    },
    {
      "midi": 62,
      "hit": false,
      "t": 130243.84600000018,
      "d": 701.2192083333357,
      "v": 126
    },
    {
      "midi": 55,
      "hit": false,
      "t": 130975.55300000019,
      "d": 701.2192083333211,
      "v": 126
    },
    {
      "midi": 59,
      "hit": false,
      "t": 130975.55300000019,
      "d": 701.2192083333211,
      "v": 126
    },
    {
      "midi": 62,
      "hit": false,
      "t": 130975.55300000019,
      "d": 701.2192083333211,
      "v": 126
    },
    {
      "midi": 55,
      "hit": false,
      "t": 130975.55300000019,
      "d": 701.2192083333211,
      "v": 126
    },
    {
      "midi": 59,
      "hit": false,
      "t": 130975.55300000019,
      "d": 701.2192083333211,
      "v": 126
    },
    {
      "midi": 62,
      "hit": false,
      "t": 130975.55300000019,
      "d": 701.2192083333211,
      "v": 126
    },
    {
      "midi": 50,
      "hit": false,
      "t": 131707.26000000018,
      "d": 701.2192083333211,
      "v": 126
    },
    {
      "midi": 54,
      "hit": false,
      "t": 131707.26000000018,
      "d": 701.2192083333211,
      "v": 126
    },
    {
      "midi": 57,
      "hit": false,
      "t": 131707.26000000018,
      "d": 701.2192083333211,
      "v": 126
    },
    {
      "midi": 62,
      "hit": false,
      "t": 131707.26000000018,
      "d": 701.2192083333211,
      "v": 126
    },
    {
      "midi": 50,
      "hit": false,
      "t": 131707.26000000018,
      "d": 701.2192083333211,
      "v": 126
    },
    {
      "midi": 54,
      "hit": false,
      "t": 131707.26000000018,
      "d": 701.2192083333211,
      "v": 126
    },
    {
      "midi": 57,
      "hit": false,
      "t": 131707.26000000018,
      "d": 701.2192083333211,
      "v": 126
    },
    {
      "midi": 62,
      "hit": false,
      "t": 131707.26000000018,
      "d": 701.2192083333211,
      "v": 126
    },
    {
      "midi": 48,
      "hit": false,
      "t": 132438.96700000018,
      "d": 304.8779166666791,
      "v": 126
    },
    {
      "midi": 54,
      "hit": false,
      "t": 132438.96700000018,
      "d": 701.2192083333503,
      "v": 126
    },
    {
      "midi": 57,
      "hit": false,
      "t": 132438.96700000018,
      "d": 701.2192083333503,
      "v": 126
    },
    {
      "midi": 62,
      "hit": false,
      "t": 132438.96700000018,
      "d": 701.2192083333503,
      "v": 126
    },
    {
      "midi": 48,
      "hit": false,
      "t": 132438.96700000018,
      "d": 304.8779166666791,
      "v": 126
    },
    {
      "midi": 54,
      "hit": false,
      "t": 132438.96700000018,
      "d": 701.2192083333503,
      "v": 126
    },
    {
      "midi": 57,
      "hit": false,
      "t": 132438.96700000018,
      "d": 701.2192083333503,
      "v": 126
    },
    {
      "midi": 62,
      "hit": false,
      "t": 132438.96700000018,
      "d": 701.2192083333503,
      "v": 126
    },
    {
      "midi": 47,
      "hit": false,
      "t": 132804.8205000002,
      "d": 335.3657083333237,
      "v": 126
    },
    {
      "midi": 47,
      "hit": false,
      "t": 132804.8205000002,
      "d": 335.3657083333237,
      "v": 126
    },
    {
      "midi": 45,
      "hit": false,
      "t": 133170.6740000002,
      "d": 701.2192083333211,
      "v": 126
    },
    {
      "midi": 52,
      "hit": false,
      "t": 133170.6740000002,
      "d": 701.2192083333211,
      "v": 126
    },
    {
      "midi": 57,
      "hit": false,
      "t": 133170.6740000002,
      "d": 701.2192083333211,
      "v": 126
    },
    {
      "midi": 60,
      "hit": false,
      "t": 133170.6740000002,
      "d": 701.2192083333211,
      "v": 126
    },
    {
      "midi": 45,
      "hit": false,
      "t": 133170.6740000002,
      "d": 701.2192083333211,
      "v": 126
    },
    {
      "midi": 52,
      "hit": false,
      "t": 133170.6740000002,
      "d": 701.2192083333211,
      "v": 126
    },
    {
      "midi": 57,
      "hit": false,
      "t": 133170.6740000002,
      "d": 701.2192083333211,
      "v": 126
    },
    {
      "midi": 60,
      "hit": false,
      "t": 133170.6740000002,
      "d": 701.2192083333211,
      "v": 126
    },
    {
      "midi": 45,
      "hit": false,
      "t": 133902.3810000002,
      "d": 701.2192083333211,
      "v": 126
    },
    {
      "midi": 52,
      "hit": false,
      "t": 133902.3810000002,
      "d": 701.2192083333211,
      "v": 126
    },
    {
      "midi": 57,
      "hit": false,
      "t": 133902.3810000002,
      "d": 701.2192083333211,
      "v": 126
    },
    {
      "midi": 60,
      "hit": false,
      "t": 133902.3810000002,
      "d": 701.2192083333211,
      "v": 126
    },
    {
      "midi": 45,
      "hit": false,
      "t": 133902.3810000002,
      "d": 701.2192083333211,
      "v": 126
    },
    {
      "midi": 52,
      "hit": false,
      "t": 133902.3810000002,
      "d": 701.2192083333211,
      "v": 126
    },
    {
      "midi": 57,
      "hit": false,
      "t": 133902.3810000002,
      "d": 701.2192083333211,
      "v": 126
    },
    {
      "midi": 60,
      "hit": false,
      "t": 133902.3810000002,
      "d": 701.2192083333211,
      "v": 126
    },
    {
      "midi": 52,
      "hit": false,
      "t": 134634.0880000002,
      "d": 701.2192083333211,
      "v": 126
    },
    {
      "midi": 55,
      "hit": false,
      "t": 134634.0880000002,
      "d": 701.2192083333211,
      "v": 126
    },
    {
      "midi": 59,
      "hit": false,
      "t": 134634.0880000002,
      "d": 701.2192083333211,
      "v": 126
    },
    {
      "midi": 64,
      "hit": false,
      "t": 134634.0880000002,
      "d": 701.2192083333211,
      "v": 126
    },
    {
      "midi": 52,
      "hit": false,
      "t": 134634.0880000002,
      "d": 701.2192083333211,
      "v": 126
    },
    {
      "midi": 55,
      "hit": false,
      "t": 134634.0880000002,
      "d": 701.2192083333211,
      "v": 126
    },
    {
      "midi": 59,
      "hit": false,
      "t": 134634.0880000002,
      "d": 701.2192083333211,
      "v": 126
    },
    {
      "midi": 64,
      "hit": false,
      "t": 134634.0880000002,
      "d": 701.2192083333211,
      "v": 126
    },
    {
      "midi": 52,
      "hit": false,
      "t": 135365.7950000002,
      "d": 335.3657083333237,
      "v": 126
    },
    {
      "midi": 55,
      "hit": false,
      "t": 135365.7950000002,
      "d": 701.2192083333211,
      "v": 126
    },
    {
      "midi": 59,
      "hit": false,
      "t": 135365.7950000002,
      "d": 701.2192083333211,
      "v": 126
    },
    {
      "midi": 64,
      "hit": false,
      "t": 135365.7950000002,
      "d": 701.2192083333211,
      "v": 126
    },
    {
      "midi": 52,
      "hit": false,
      "t": 135365.7950000002,
      "d": 335.3657083333237,
      "v": 126
    },
    {
      "midi": 55,
      "hit": false,
      "t": 135365.7950000002,
      "d": 701.2192083333211,
      "v": 126
    },
    {
      "midi": 59,
      "hit": false,
      "t": 135365.7950000002,
      "d": 701.2192083333211,
      "v": 126
    },
    {
      "midi": 64,
      "hit": false,
      "t": 135365.7950000002,
      "d": 701.2192083333211,
      "v": 126
    },
    {
      "midi": 54,
      "hit": false,
      "t": 135731.64850000018,
      "d": 335.3657083333237,
      "v": 126
    },
    {
      "midi": 54,
      "hit": false,
      "t": 135731.64850000018,
      "d": 335.3657083333237,
      "v": 126
    },
    {
      "midi": 55,
      "hit": false,
      "t": 136097.50200000018,
      "d": 701.2192083333211,
      "v": 126
    },
    {
      "midi": 59,
      "hit": false,
      "t": 136097.50200000018,
      "d": 701.2192083333211,
      "v": 126
    },
    {
      "midi": 62,
      "hit": false,
      "t": 136097.50200000018,
      "d": 701.2192083333211,
      "v": 126
    },
    {
      "midi": 55,
      "hit": false,
      "t": 136097.50200000018,
      "d": 701.2192083333211,
      "v": 126
    },
    {
      "midi": 59,
      "hit": false,
      "t": 136097.50200000018,
      "d": 701.2192083333211,
      "v": 126
    },
    {
      "midi": 62,
      "hit": false,
      "t": 136097.50200000018,
      "d": 701.2192083333211,
      "v": 126
    },
    {
      "midi": 55,
      "hit": false,
      "t": 136829.20900000018,
      "d": 701.2192083333211,
      "v": 126
    },
    {
      "midi": 59,
      "hit": false,
      "t": 136829.20900000018,
      "d": 701.2192083333211,
      "v": 126
    },
    {
      "midi": 62,
      "hit": false,
      "t": 136829.20900000018,
      "d": 701.2192083333211,
      "v": 126
    },
    {
      "midi": 55,
      "hit": false,
      "t": 136829.20900000018,
      "d": 701.2192083333211,
      "v": 126
    },
    {
      "midi": 59,
      "hit": false,
      "t": 136829.20900000018,
      "d": 701.2192083333211,
      "v": 126
    },
    {
      "midi": 62,
      "hit": false,
      "t": 136829.20900000018,
      "d": 701.2192083333211,
      "v": 126
    },
    {
      "midi": 50,
      "hit": false,
      "t": 137560.91600000017,
      "d": 701.2192083333211,
      "v": 126
    },
    {
      "midi": 54,
      "hit": false,
      "t": 137560.91600000017,
      "d": 701.2192083333211,
      "v": 126
    },
    {
      "midi": 57,
      "hit": false,
      "t": 137560.91600000017,
      "d": 701.2192083333211,
      "v": 126
    },
    {
      "midi": 62,
      "hit": false,
      "t": 137560.91600000017,
      "d": 701.2192083333211,
      "v": 126
    },
    {
      "midi": 50,
      "hit": false,
      "t": 137560.91600000017,
      "d": 701.2192083333211,
      "v": 126
    },
    {
      "midi": 54,
      "hit": false,
      "t": 137560.91600000017,
      "d": 701.2192083333211,
      "v": 126
    },
    {
      "midi": 57,
      "hit": false,
      "t": 137560.91600000017,
      "d": 701.2192083333211,
      "v": 126
    },
    {
      "midi": 62,
      "hit": false,
      "t": 137560.91600000017,
      "d": 701.2192083333211,
      "v": 126
    },
    {
      "midi": 48,
      "hit": false,
      "t": 138292.62300000017,
      "d": 304.8779166666791,
      "v": 126
    },
    {
      "midi": 54,
      "hit": false,
      "t": 138292.62300000017,
      "d": 701.2192083333503,
      "v": 126
    },
    {
      "midi": 57,
      "hit": false,
      "t": 138292.62300000017,
      "d": 701.2192083333503,
      "v": 126
    },
    {
      "midi": 62,
      "hit": false,
      "t": 138292.62300000017,
      "d": 701.2192083333503,
      "v": 126
    },
    {
      "midi": 48,
      "hit": false,
      "t": 138292.62300000017,
      "d": 304.8779166666791,
      "v": 126
    },
    {
      "midi": 54,
      "hit": false,
      "t": 138292.62300000017,
      "d": 701.2192083333503,
      "v": 126
    },
    {
      "midi": 57,
      "hit": false,
      "t": 138292.62300000017,
      "d": 701.2192083333503,
      "v": 126
    },
    {
      "midi": 62,
      "hit": false,
      "t": 138292.62300000017,
      "d": 701.2192083333503,
      "v": 126
    },
    {
      "midi": 47,
      "hit": false,
      "t": 138658.4765000002,
      "d": 335.3657083333237,
      "v": 126
    },
    {
      "midi": 47,
      "hit": false,
      "t": 138658.4765000002,
      "d": 335.3657083333237,
      "v": 126
    },
    {
      "midi": 45,
      "hit": false,
      "t": 139024.3300000002,
      "d": 701.2192083333211,
      "v": 126
    },
    {
      "midi": 52,
      "hit": false,
      "t": 139024.3300000002,
      "d": 701.2192083333211,
      "v": 126
    },
    {
      "midi": 57,
      "hit": false,
      "t": 139024.3300000002,
      "d": 701.2192083333211,
      "v": 126
    },
    {
      "midi": 60,
      "hit": false,
      "t": 139024.3300000002,
      "d": 701.2192083333211,
      "v": 126
    },
    {
      "midi": 45,
      "hit": false,
      "t": 139024.3300000002,
      "d": 701.2192083333211,
      "v": 126
    },
    {
      "midi": 52,
      "hit": false,
      "t": 139024.3300000002,
      "d": 701.2192083333211,
      "v": 126
    },
    {
      "midi": 57,
      "hit": false,
      "t": 139024.3300000002,
      "d": 701.2192083333211,
      "v": 126
    },
    {
      "midi": 60,
      "hit": false,
      "t": 139024.3300000002,
      "d": 701.2192083333211,
      "v": 126
    },
    {
      "midi": 45,
      "hit": false,
      "t": 139756.0370000002,
      "d": 701.2192083333211,
      "v": 126
    },
    {
      "midi": 52,
      "hit": false,
      "t": 139756.0370000002,
      "d": 701.2192083333211,
      "v": 126
    },
    {
      "midi": 57,
      "hit": false,
      "t": 139756.0370000002,
      "d": 701.2192083333211,
      "v": 126
    },
    {
      "midi": 60,
      "hit": false,
      "t": 139756.0370000002,
      "d": 701.2192083333211,
      "v": 126
    },
    {
      "midi": 45,
      "hit": false,
      "t": 139756.0370000002,
      "d": 701.2192083333211,
      "v": 126
    },
    {
      "midi": 52,
      "hit": false,
      "t": 139756.0370000002,
      "d": 701.2192083333211,
      "v": 126
    },
    {
      "midi": 57,
      "hit": false,
      "t": 139756.0370000002,
      "d": 701.2192083333211,
      "v": 126
    },
    {
      "midi": 60,
      "hit": false,
      "t": 139756.0370000002,
      "d": 701.2192083333211,
      "v": 126
    },
    {
      "midi": 52,
      "hit": false,
      "t": 140487.74400000018,
      "d": 701.2192083333211,
      "v": 126
    },
    {
      "midi": 55,
      "hit": false,
      "t": 140487.74400000018,
      "d": 701.2192083333211,
      "v": 126
    },
    {
      "midi": 59,
      "hit": false,
      "t": 140487.74400000018,
      "d": 701.2192083333211,
      "v": 126
    },
    {
      "midi": 64,
      "hit": false,
      "t": 140487.74400000018,
      "d": 701.2192083333211,
      "v": 126
    },
    {
      "midi": 52,
      "hit": false,
      "t": 140487.74400000018,
      "d": 701.2192083333211,
      "v": 126
    },
    {
      "midi": 55,
      "hit": false,
      "t": 140487.74400000018,
      "d": 701.2192083333211,
      "v": 126
    },
    {
      "midi": 59,
      "hit": false,
      "t": 140487.74400000018,
      "d": 701.2192083333211,
      "v": 126
    },
    {
      "midi": 64,
      "hit": false,
      "t": 140487.74400000018,
      "d": 701.2192083333211,
      "v": 126
    },
    {
      "midi": 52,
      "hit": false,
      "t": 141219.45100000018,
      "d": 335.3657083333237,
      "v": 126
    },
    {
      "midi": 55,
      "hit": false,
      "t": 141219.45100000018,
      "d": 701.2192083333211,
      "v": 126
    },
    {
      "midi": 59,
      "hit": false,
      "t": 141219.45100000018,
      "d": 701.2192083333211,
      "v": 126
    },
    {
      "midi": 64,
      "hit": false,
      "t": 141219.45100000018,
      "d": 701.2192083333211,
      "v": 126
    },
    {
      "midi": 52,
      "hit": false,
      "t": 141219.45100000018,
      "d": 335.3657083333237,
      "v": 126
    },
    {
      "midi": 55,
      "hit": false,
      "t": 141219.45100000018,
      "d": 701.2192083333211,
      "v": 126
    },
    {
      "midi": 59,
      "hit": false,
      "t": 141219.45100000018,
      "d": 701.2192083333211,
      "v": 126
    },
    {
      "midi": 64,
      "hit": false,
      "t": 141219.45100000018,
      "d": 701.2192083333211,
      "v": 126
    },
    {
      "midi": 54,
      "hit": false,
      "t": 141585.30450000017,
      "d": 335.3657083333237,
      "v": 126
    },
    {
      "midi": 54,
      "hit": false,
      "t": 141585.30450000017,
      "d": 335.3657083333237,
      "v": 126
    },
    {
      "midi": 55,
      "hit": false,
      "t": 141951.15800000017,
      "d": 701.2192083333211,
      "v": 126
    },
    {
      "midi": 59,
      "hit": false,
      "t": 141951.15800000017,
      "d": 701.2192083333211,
      "v": 126
    },
    {
      "midi": 62,
      "hit": false,
      "t": 141951.15800000017,
      "d": 701.2192083333211,
      "v": 126
    },
    {
      "midi": 55,
      "hit": false,
      "t": 141951.15800000017,
      "d": 701.2192083333211,
      "v": 126
    },
    {
      "midi": 59,
      "hit": false,
      "t": 141951.15800000017,
      "d": 701.2192083333211,
      "v": 126
    },
    {
      "midi": 62,
      "hit": false,
      "t": 141951.15800000017,
      "d": 701.2192083333211,
      "v": 126
    },
    {
      "midi": 55,
      "hit": false,
      "t": 142682.86500000017,
      "d": 701.2192083333211,
      "v": 126
    },
    {
      "midi": 59,
      "hit": false,
      "t": 142682.86500000017,
      "d": 701.2192083333211,
      "v": 126
    },
    {
      "midi": 62,
      "hit": false,
      "t": 142682.86500000017,
      "d": 701.2192083333211,
      "v": 126
    },
    {
      "midi": 55,
      "hit": false,
      "t": 142682.86500000017,
      "d": 701.2192083333211,
      "v": 126
    },
    {
      "midi": 59,
      "hit": false,
      "t": 142682.86500000017,
      "d": 701.2192083333211,
      "v": 126
    },
    {
      "midi": 62,
      "hit": false,
      "t": 142682.86500000017,
      "d": 701.2192083333211,
      "v": 126
    },
    {
      "midi": 50,
      "hit": false,
      "t": 143414.57200000016,
      "d": 701.2192083333211,
      "v": 126
    },
    {
      "midi": 54,
      "hit": false,
      "t": 143414.57200000016,
      "d": 701.2192083333211,
      "v": 126
    },
    {
      "midi": 57,
      "hit": false,
      "t": 143414.57200000016,
      "d": 701.2192083333211,
      "v": 126
    },
    {
      "midi": 62,
      "hit": false,
      "t": 143414.57200000016,
      "d": 701.2192083333211,
      "v": 126
    },
    {
      "midi": 50,
      "hit": false,
      "t": 143414.57200000016,
      "d": 701.2192083333211,
      "v": 126
    },
    {
      "midi": 54,
      "hit": false,
      "t": 143414.57200000016,
      "d": 701.2192083333211,
      "v": 126
    },
    {
      "midi": 57,
      "hit": false,
      "t": 143414.57200000016,
      "d": 701.2192083333211,
      "v": 126
    },
    {
      "midi": 62,
      "hit": false,
      "t": 143414.57200000016,
      "d": 701.2192083333211,
      "v": 126
    },
    {
      "midi": 48,
      "hit": false,
      "t": 144146.27900000016,
      "d": 304.8779166666791,
      "v": 126
    },
    {
      "midi": 54,
      "hit": false,
      "t": 144146.27900000016,
      "d": 701.2192083333503,
      "v": 126
    },
    {
      "midi": 57,
      "hit": false,
      "t": 144146.27900000016,
      "d": 701.2192083333503,
      "v": 126
    },
    {
      "midi": 62,
      "hit": false,
      "t": 144146.27900000016,
      "d": 701.2192083333503,
      "v": 126
    },
    {
      "midi": 48,
      "hit": false,
      "t": 144146.27900000016,
      "d": 304.8779166666791,
      "v": 126
    },
    {
      "midi": 54,
      "hit": false,
      "t": 144146.27900000016,
      "d": 701.2192083333503,
      "v": 126
    },
    {
      "midi": 57,
      "hit": false,
      "t": 144146.27900000016,
      "d": 701.2192083333503,
      "v": 126
    },
    {
      "midi": 62,
      "hit": false,
      "t": 144146.27900000016,
      "d": 701.2192083333503,
      "v": 126
    },
    {
      "midi": 47,
      "hit": false,
      "t": 144512.13250000018,
      "d": 335.3657083333237,
      "v": 126
    },
    {
      "midi": 47,
      "hit": false,
      "t": 144512.13250000018,
      "d": 335.3657083333237,
      "v": 126
    },
    {
      "midi": 45,
      "hit": false,
      "t": 144877.98600000018,
      "d": 701.2192083333211,
      "v": 126
    },
    {
      "midi": 52,
      "hit": false,
      "t": 144877.98600000018,
      "d": 701.2192083333211,
      "v": 126
    },
    {
      "midi": 57,
      "hit": false,
      "t": 144877.98600000018,
      "d": 701.2192083333211,
      "v": 126
    },
    {
      "midi": 60,
      "hit": false,
      "t": 144877.98600000018,
      "d": 701.2192083333211,
      "v": 126
    },
    {
      "midi": 45,
      "hit": false,
      "t": 144877.98600000018,
      "d": 701.2192083333211,
      "v": 126
    },
    {
      "midi": 52,
      "hit": false,
      "t": 144877.98600000018,
      "d": 701.2192083333211,
      "v": 126
    },
    {
      "midi": 57,
      "hit": false,
      "t": 144877.98600000018,
      "d": 701.2192083333211,
      "v": 126
    },
    {
      "midi": 60,
      "hit": false,
      "t": 144877.98600000018,
      "d": 701.2192083333211,
      "v": 126
    },
    {
      "midi": 45,
      "hit": false,
      "t": 145609.69300000017,
      "d": 701.2192083333211,
      "v": 126
    },
    {
      "midi": 52,
      "hit": false,
      "t": 145609.69300000017,
      "d": 701.2192083333211,
      "v": 126
    },
    {
      "midi": 57,
      "hit": false,
      "t": 145609.69300000017,
      "d": 701.2192083333211,
      "v": 126
    },
    {
      "midi": 60,
      "hit": false,
      "t": 145609.69300000017,
      "d": 701.2192083333211,
      "v": 126
    },
    {
      "midi": 45,
      "hit": false,
      "t": 145609.69300000017,
      "d": 701.2192083333211,
      "v": 126
    },
    {
      "midi": 52,
      "hit": false,
      "t": 145609.69300000017,
      "d": 701.2192083333211,
      "v": 126
    },
    {
      "midi": 57,
      "hit": false,
      "t": 145609.69300000017,
      "d": 701.2192083333211,
      "v": 126
    },
    {
      "midi": 60,
      "hit": false,
      "t": 145609.69300000017,
      "d": 701.2192083333211,
      "v": 126
    },
    {
      "midi": 55,
      "hit": false,
      "t": 175609.68000000017,
      "d": 701.2192083333211,
      "v": 127
    },
    {
      "midi": 59,
      "hit": false,
      "t": 175609.68000000017,
      "d": 701.2192083333211,
      "v": 127
    },
    {
      "midi": 64,
      "hit": false,
      "t": 175609.68000000017,
      "d": 701.2192083333211,
      "v": 127
    },
    {
      "midi": 55,
      "hit": false,
      "t": 175609.68000000017,
      "d": 701.2192083333211,
      "v": 127
    },
    {
      "midi": 59,
      "hit": false,
      "t": 175609.68000000017,
      "d": 701.2192083333211,
      "v": 127
    },
    {
      "midi": 64,
      "hit": false,
      "t": 175609.68000000017,
      "d": 701.2192083333211,
      "v": 127
    },
    {
      "midi": 52,
      "hit": false,
      "t": 175975.53350000017,
      "d": 335.3657083333237,
      "v": 127
    },
    {
      "midi": 52,
      "hit": false,
      "t": 175975.53350000017,
      "d": 335.3657083333237,
      "v": 127
    },
    {
      "midi": 55,
      "hit": false,
      "t": 176341.38700000016,
      "d": 701.2192083333211,
      "v": 127
    },
    {
      "midi": 59,
      "hit": false,
      "t": 176341.38700000016,
      "d": 701.2192083333211,
      "v": 127
    },
    {
      "midi": 64,
      "hit": false,
      "t": 176341.38700000016,
      "d": 701.2192083333211,
      "v": 127
    },
    {
      "midi": 55,
      "hit": false,
      "t": 176341.38700000016,
      "d": 701.2192083333211,
      "v": 127
    },
    {
      "midi": 59,
      "hit": false,
      "t": 176341.38700000016,
      "d": 701.2192083333211,
      "v": 127
    },
    {
      "midi": 64,
      "hit": false,
      "t": 176341.38700000016,
      "d": 701.2192083333211,
      "v": 127
    },
    {
      "midi": 52,
      "hit": false,
      "t": 176707.24050000016,
      "d": 335.3657083333237,
      "v": 127
    },
    {
      "midi": 52,
      "hit": false,
      "t": 176707.24050000016,
      "d": 335.3657083333237,
      "v": 127
    },
    {
      "midi": 55,
      "hit": false,
      "t": 177073.09400000016,
      "d": 701.2192083333211,
      "v": 127
    },
    {
      "midi": 59,
      "hit": false,
      "t": 177073.09400000016,
      "d": 701.2192083333211,
      "v": 127
    },
    {
      "midi": 62,
      "hit": false,
      "t": 177073.09400000016,
      "d": 701.2192083333211,
      "v": 127
    },
    {
      "midi": 55,
      "hit": false,
      "t": 177073.09400000016,
      "d": 701.2192083333211,
      "v": 127
    },
    {
      "midi": 59,
      "hit": false,
      "t": 177073.09400000016,
      "d": 701.2192083333211,
      "v": 127
    },
    {
      "midi": 62,
      "hit": false,
      "t": 177073.09400000016,
      "d": 701.2192083333211,
      "v": 127
    },
    {
      "midi": 50,
      "hit": false,
      "t": 177438.94750000015,
      "d": 335.3657083333237,
      "v": 127
    },
    {
      "midi": 50,
      "hit": false,
      "t": 177438.94750000015,
      "d": 335.3657083333237,
      "v": 127
    },
    {
      "midi": 55,
      "hit": false,
      "t": 177804.80100000015,
      "d": 701.2192083333211,
      "v": 127
    },
    {
      "midi": 59,
      "hit": false,
      "t": 177804.80100000015,
      "d": 701.2192083333211,
      "v": 127
    },
    {
      "midi": 62,
      "hit": false,
      "t": 177804.80100000015,
      "d": 701.2192083333211,
      "v": 127
    },
    {
      "midi": 55,
      "hit": false,
      "t": 177804.80100000015,
      "d": 701.2192083333211,
      "v": 127
    },
    {
      "midi": 59,
      "hit": false,
      "t": 177804.80100000015,
      "d": 701.2192083333211,
      "v": 127
    },
    {
      "midi": 62,
      "hit": false,
      "t": 177804.80100000015,
      "d": 701.2192083333211,
      "v": 127
    },
    {
      "midi": 50,
      "hit": false,
      "t": 178170.65450000015,
      "d": 335.3657083333237,
      "v": 127
    },
    {
      "midi": 50,
      "hit": false,
      "t": 178170.65450000015,
      "d": 335.3657083333237,
      "v": 127
    },
    {
      "midi": 50,
      "hit": false,
      "t": 178536.50800000015,
      "d": 304.8779166666791,
      "v": 127
    },
    {
      "midi": 47,
      "hit": false,
      "t": 178536.50800000015,
      "d": 335.3657083333528,
      "v": 127
    },
    {
      "midi": 54,
      "hit": false,
      "t": 178536.50800000015,
      "d": 335.3657083333528,
      "v": 127
    },
    {
      "midi": 57,
      "hit": false,
      "t": 178536.50800000015,
      "d": 335.3657083333528,
      "v": 127
    },
    {
      "midi": 50,
      "hit": false,
      "t": 178536.50800000015,
      "d": 304.8779166666791,
      "v": 127
    },
    {
      "midi": 47,
      "hit": false,
      "t": 178536.50800000015,
      "d": 335.3657083333528,
      "v": 127
    },
    {
      "midi": 54,
      "hit": false,
      "t": 178536.50800000015,
      "d": 335.3657083333528,
      "v": 127
    },
    {
      "midi": 57,
      "hit": false,
      "t": 178536.50800000015,
      "d": 335.3657083333528,
      "v": 127
    },
    {
      "midi": 47,
      "hit": false,
      "t": 178902.36150000017,
      "d": 335.3657083333237,
      "v": 127
    },
    {
      "midi": 54,
      "hit": false,
      "t": 178902.36150000017,
      "d": 670.7314166666765,
      "v": 127
    },
    {
      "midi": 50,
      "hit": false,
      "t": 178902.36150000017,
      "d": 701.2192083333503,
      "v": 127
    },
    {
      "midi": 57,
      "hit": false,
      "t": 178902.36150000017,
      "d": 701.2192083333503,
      "v": 127
    },
    {
      "midi": 47,
      "hit": false,
      "t": 178902.36150000017,
      "d": 335.3657083333237,
      "v": 127
    },
    {
      "midi": 54,
      "hit": false,
      "t": 178902.36150000017,
      "d": 670.7314166666765,
      "v": 127
    },
    {
      "midi": 50,
      "hit": false,
      "t": 178902.36150000017,
      "d": 701.2192083333503,
      "v": 127
    },
    {
      "midi": 57,
      "hit": false,
      "t": 178902.36150000017,
      "d": 701.2192083333503,
      "v": 127
    },
    {
      "midi": 62,
      "hit": false,
      "t": 179268.21500000017,
      "d": 335.3657083333528,
      "v": 127
    },
    {
      "midi": 62,
      "hit": false,
      "t": 179268.21500000017,
      "d": 335.3657083333528,
      "v": 127
    },
    {
      "midi": 48,
      "hit": false,
      "t": 179634.0685000002,
      "d": 1615.8529583333293,
      "v": 127
    },
    {
      "midi": 52,
      "hit": false,
      "t": 179634.0685000002,
      "d": 1615.8529583333293,
      "v": 127
    },
    {
      "midi": 55,
      "hit": false,
      "t": 179634.0685000002,
      "d": 1615.8529583333293,
      "v": 127
    },
    {
      "midi": 60,
      "hit": false,
      "t": 179634.0685000002,
      "d": 1615.8529583333293,
      "v": 127
    },
    {
      "midi": 48,
      "hit": false,
      "t": 179634.0685000002,
      "d": 1615.8529583333293,
      "v": 127
    },
    {
      "midi": 52,
      "hit": false,
      "t": 179634.0685000002,
      "d": 1615.8529583333293,
      "v": 127
    },
    {
      "midi": 55,
      "hit": false,
      "t": 179634.0685000002,
      "d": 1615.8529583333293,
      "v": 127
    },
    {
      "midi": 60,
      "hit": false,
      "t": 179634.0685000002,
      "d": 1615.8529583333293,
      "v": 127
    },
    {
      "midi": 55,
      "hit": false,
      "t": 181463.33600000018,
      "d": 701.2192083333211,
      "v": 127
    },
    {
      "midi": 59,
      "hit": false,
      "t": 181463.33600000018,
      "d": 701.2192083333211,
      "v": 127
    },
    {
      "midi": 64,
      "hit": false,
      "t": 181463.33600000018,
      "d": 701.2192083333211,
      "v": 127
    },
    {
      "midi": 55,
      "hit": false,
      "t": 181463.33600000018,
      "d": 701.2192083333211,
      "v": 127
    },
    {
      "midi": 59,
      "hit": false,
      "t": 181463.33600000018,
      "d": 701.2192083333211,
      "v": 127
    },
    {
      "midi": 64,
      "hit": false,
      "t": 181463.33600000018,
      "d": 701.2192083333211,
      "v": 127
    },
    {
      "midi": 52,
      "hit": false,
      "t": 181829.18950000018,
      "d": 335.3657083333237,
      "v": 127
    },
    {
      "midi": 52,
      "hit": false,
      "t": 181829.18950000018,
      "d": 335.3657083333237,
      "v": 127
    },
    {
      "midi": 55,
      "hit": false,
      "t": 182195.04300000018,
      "d": 701.2192083333211,
      "v": 127
    },
    {
      "midi": 59,
      "hit": false,
      "t": 182195.04300000018,
      "d": 701.2192083333211,
      "v": 127
    },
    {
      "midi": 64,
      "hit": false,
      "t": 182195.04300000018,
      "d": 701.2192083333211,
      "v": 127
    },
    {
      "midi": 55,
      "hit": false,
      "t": 182195.04300000018,
      "d": 701.2192083333211,
      "v": 127
    },
    {
      "midi": 59,
      "hit": false,
      "t": 182195.04300000018,
      "d": 701.2192083333211,
      "v": 127
    },
    {
      "midi": 64,
      "hit": false,
      "t": 182195.04300000018,
      "d": 701.2192083333211,
      "v": 127
    },
    {
      "midi": 52,
      "hit": false,
      "t": 182560.89650000018,
      "d": 335.3657083333237,
      "v": 127
    },
    {
      "midi": 52,
      "hit": false,
      "t": 182560.89650000018,
      "d": 335.3657083333237,
      "v": 127
    },
    {
      "midi": 55,
      "hit": false,
      "t": 182926.75000000017,
      "d": 701.2192083333211,
      "v": 127
    },
    {
      "midi": 59,
      "hit": false,
      "t": 182926.75000000017,
      "d": 701.2192083333211,
      "v": 127
    },
    {
      "midi": 62,
      "hit": false,
      "t": 182926.75000000017,
      "d": 701.2192083333211,
      "v": 127
    },
    {
      "midi": 55,
      "hit": false,
      "t": 182926.75000000017,
      "d": 701.2192083333211,
      "v": 127
    },
    {
      "midi": 59,
      "hit": false,
      "t": 182926.75000000017,
      "d": 701.2192083333211,
      "v": 127
    },
    {
      "midi": 62,
      "hit": false,
      "t": 182926.75000000017,
      "d": 701.2192083333211,
      "v": 127
    },
    {
      "midi": 50,
      "hit": false,
      "t": 183292.60350000017,
      "d": 335.3657083333237,
      "v": 127
    },
    {
      "midi": 50,
      "hit": false,
      "t": 183292.60350000017,
      "d": 335.3657083333237,
      "v": 127
    },
    {
      "midi": 55,
      "hit": false,
      "t": 183658.45700000017,
      "d": 701.2192083333211,
      "v": 127
    },
    {
      "midi": 59,
      "hit": false,
      "t": 183658.45700000017,
      "d": 701.2192083333211,
      "v": 127
    },
    {
      "midi": 62,
      "hit": false,
      "t": 183658.45700000017,
      "d": 701.2192083333211,
      "v": 127
    },
    {
      "midi": 55,
      "hit": false,
      "t": 183658.45700000017,
      "d": 701.2192083333211,
      "v": 127
    },
    {
      "midi": 59,
      "hit": false,
      "t": 183658.45700000017,
      "d": 701.2192083333211,
      "v": 127
    },
    {
      "midi": 62,
      "hit": false,
      "t": 183658.45700000017,
      "d": 701.2192083333211,
      "v": 127
    },
    {
      "midi": 50,
      "hit": false,
      "t": 184024.31050000017,
      "d": 335.3657083333237,
      "v": 127
    },
    {
      "midi": 50,
      "hit": false,
      "t": 184024.31050000017,
      "d": 335.3657083333237,
      "v": 127
    },
    {
      "midi": 50,
      "hit": false,
      "t": 184390.16400000016,
      "d": 304.8779166666791,
      "v": 127
    },
    {
      "midi": 47,
      "hit": false,
      "t": 184390.16400000016,
      "d": 335.3657083333528,
      "v": 127
    },
    {
      "midi": 54,
      "hit": false,
      "t": 184390.16400000016,
      "d": 335.3657083333528,
      "v": 127
    },
    {
      "midi": 57,
      "hit": false,
      "t": 184390.16400000016,
      "d": 335.3657083333528,
      "v": 127
    },
    {
      "midi": 50,
      "hit": false,
      "t": 184390.16400000016,
      "d": 304.8779166666791,
      "v": 127
    },
    {
      "midi": 47,
      "hit": false,
      "t": 184390.16400000016,
      "d": 335.3657083333528,
      "v": 127
    },
    {
      "midi": 54,
      "hit": false,
      "t": 184390.16400000016,
      "d": 335.3657083333528,
      "v": 127
    },
    {
      "midi": 57,
      "hit": false,
      "t": 184390.16400000016,
      "d": 335.3657083333528,
      "v": 127
    },
    {
      "midi": 47,
      "hit": false,
      "t": 184756.0175000002,
      "d": 335.3657083333237,
      "v": 127
    },
    {
      "midi": 54,
      "hit": false,
      "t": 184756.0175000002,
      "d": 670.7314166666765,
      "v": 127
    },
    {
      "midi": 50,
      "hit": false,
      "t": 184756.0175000002,
      "d": 701.2192083333503,
      "v": 127
    },
    {
      "midi": 57,
      "hit": false,
      "t": 184756.0175000002,
      "d": 701.2192083333503,
      "v": 127
    },
    {
      "midi": 47,
      "hit": false,
      "t": 184756.0175000002,
      "d": 335.3657083333237,
      "v": 127
    },
    {
      "midi": 54,
      "hit": false,
      "t": 184756.0175000002,
      "d": 670.7314166666765,
      "v": 127
    },
    {
      "midi": 50,
      "hit": false,
      "t": 184756.0175000002,
      "d": 701.2192083333503,
      "v": 127
    },
    {
      "midi": 57,
      "hit": false,
      "t": 184756.0175000002,
      "d": 701.2192083333503,
      "v": 127
    },
    {
      "midi": 62,
      "hit": false,
      "t": 185121.8710000002,
      "d": 335.3657083333528,
      "v": 127
    },
    {
      "midi": 62,
      "hit": false,
      "t": 185121.8710000002,
      "d": 335.3657083333528,
      "v": 127
    },
    {
      "midi": 48,
      "hit": false,
      "t": 185487.72450000021,
      "d": 7652.435708333331,
      "v": 127
    },
    {
      "midi": 52,
      "hit": false,
      "t": 185487.72450000021,
      "d": 7652.435708333331,
      "v": 127
    },
    {
      "midi": 55,
      "hit": false,
      "t": 185487.72450000021,
      "d": 7652.435708333331,
      "v": 127
    },
    {
      "midi": 60,
      "hit": false,
      "t": 185487.72450000021,
      "d": 7652.435708333331,
      "v": 127
    },
    {
      "midi": 48,
      "hit": false,
      "t": 185487.72450000021,
      "d": 7652.435708333331,
      "v": 127
    },
    {
      "midi": 52,
      "hit": false,
      "t": 185487.72450000021,
      "d": 7652.435708333331,
      "v": 127
    },
    {
      "midi": 55,
      "hit": false,
      "t": 185487.72450000021,
      "d": 7652.435708333331,
      "v": 127
    },
    {
      "midi": 60,
      "hit": false,
      "t": 185487.72450000021,
      "d": 7652.435708333331,
      "v": 127
    }
  ]
}