{
  "jsonPath": "Unknown/Unknown/Maurice Chevalier  the M-G-M Studio Chorus/thank-heaven-for-little-girls-gigi-soundtrack-version.json",
  "path": "Unknown\\Unknown\\Maurice Chevalier  the M-G-M Studio Chorus\\Thank Heaven For Little Girls  (Gigi Soundtrack Version).mid",
  "name": "Thank Heaven For Little Girls  (Gigi Soundtrack Version)",
  "difficulty": "Advanced",
  "bpm": 80,
  "notes": [
    {
      "midi": 79,
      "hit": false,
      "t": 1135.1305,
      "d": 124.32381666666674,
      "v": 64
    },
    {
      "midi": 62,
      "hit": false,
      "t": 1297.292,
      "d": 641.8892708333333,
      "v": 46
    },
    {
      "midi": 59,
      "hit": false,
      "t": 1297.292,
      "d": 655.4027291666666,
      "v": 37
    },
    {
      "midi": 79,
      "hit": false,
      "t": 1297.2920000000001,
      "d": 164.86419166666656,
      "v": 58
    },
    {
      "midi": 67,
      "hit": false,
      "t": 1297.2920000000001,
      "d": 490.5385375000001,
      "v": 39
    },
    {
      "midi": 78,
      "hit": false,
      "t": 1459.4535,
      "d": 131.08054583333342,
      "v": 46
    },
    {
      "midi": 78,
      "hit": false,
      "t": 1621.6150000000002,
      "d": 148.6480416666666,
      "v": 61
    },
    {
      "midi": 79,
      "hit": false,
      "t": 1783.7765000000002,
      "d": 170.26957500000003,
      "v": 64
    },
    {
      "midi": 61,
      "hit": false,
      "t": 1945.9379999999999,
      "d": 645.9433083333336,
      "v": 31
    },
    {
      "midi": 58,
      "hit": false,
      "t": 1945.9379999999999,
      "d": 651.3486916666673,
      "v": 60
    },
    {
      "midi": 78,
      "hit": false,
      "t": 1945.938,
      "d": 189.18841666666685,
      "v": 61
    },
    {
      "midi": 67,
      "hit": false,
      "t": 1945.938,
      "d": 513.5114166666667,
      "v": 44
    },
    {
      "midi": 76,
      "hit": false,
      "t": 2108.0995000000003,
      "d": 132.43189166666662,
      "v": 50
    },
    {
      "midi": 76,
      "hit": false,
      "t": 2270.2610000000004,
      "d": 156.75611666666646,
      "v": 68
    },
    {
      "midi": 78,
      "hit": false,
      "t": 2432.4225,
      "d": 172.97226666666666,
      "v": 78
    },
    {
      "midi": 57,
      "hit": false,
      "t": 2594.5840000000003,
      "d": 1136.4818458333334,
      "v": 40
    },
    {
      "midi": 60,
      "hit": false,
      "t": 2594.5840000000003,
      "d": 1143.2385749999999,
      "v": 44
    },
    {
      "midi": 76,
      "hit": false,
      "t": 2594.5840000000003,
      "d": 166.21553749999975,
      "v": 72
    },
    {
      "midi": 67,
      "hit": false,
      "t": 2594.5840000000003,
      "d": 670.2675333333332,
      "v": 48
    },
    {
      "midi": 74,
      "hit": false,
      "t": 2756.7455,
      "d": 101.35093749999987,
      "v": 54
    },
    {
      "midi": 74,
      "hit": false,
      "t": 2918.9069999999997,
      "d": 149.9993875,
      "v": 60
    },
    {
      "midi": 76,
      "hit": false,
      "t": 3081.0685,
      "d": 109.45901249999997,
      "v": 55
    },
    {
      "midi": 76,
      "hit": false,
      "t": 3243.23,
      "d": 168.9182291666666,
      "v": 36
    },
    {
      "midi": 66,
      "hit": false,
      "t": 3243.23,
      "d": 493.24122916666647,
      "v": 40
    },
    {
      "midi": 74,
      "hit": false,
      "t": 3405.3915,
      "d": 329.7283833333331,
      "v": 36
    },
    {
      "midi": 71,
      "hit": false,
      "t": 3729.7145,
      "d": 140.53996666666626,
      "v": 44
    },
    {
      "midi": 71,
      "hit": false,
      "t": 3729.7145,
      "d": 97.29689999999982,
      "v": 49
    },
    {
      "midi": 71,
      "hit": false,
      "t": 3891.8759999999997,
      "d": 178.37765000000036,
      "v": 64
    },
    {
      "midi": 64,
      "hit": false,
      "t": 3891.8759999999997,
      "d": 502.7006500000002,
      "v": 56
    },
    {
      "midi": 60,
      "hit": false,
      "t": 3891.8759999999997,
      "d": 514.8627625000004,
      "v": 45
    },
    {
      "midi": 71,
      "hit": false,
      "t": 3891.8759999999997,
      "d": 194.5938000000001,
      "v": 56
    },
    {
      "midi": 43,
      "hit": false,
      "t": 3891.876,
      "d": 648.6459999999997,
      "v": 44
    },
    {
      "midi": 55,
      "hit": false,
      "t": 3891.876,
      "d": 651.3486916666661,
      "v": 40
    },
    {
      "midi": 69,
      "hit": false,
      "t": 4054.0375,
      "d": 101.35093749999987,
      "v": 51
    },
    {
      "midi": 69,
      "hit": false,
      "t": 4054.0375,
      "d": 95.94555416666617,
      "v": 25
    },
    {
      "midi": 69,
      "hit": false,
      "t": 4216.199,
      "d": 179.728995833334,
      "v": 44
    },
    {
      "midi": 69,
      "hit": false,
      "t": 4216.199,
      "d": 158.1074625000001,
      "v": 48
    },
    {
      "midi": 67,
      "hit": false,
      "t": 4378.3605,
      "d": 127.02650833333337,
      "v": 59
    },
    {
      "midi": 67,
      "hit": false,
      "t": 4378.3605,
      "d": 75.67536666666638,
      "v": 57
    },
    {
      "midi": 67,
      "hit": false,
      "t": 4540.521999999999,
      "d": 171.6209208333339,
      "v": 56
    },
    {
      "midi": 52,
      "hit": false,
      "t": 4540.522,
      "d": 177.0263041666667,
      "v": 61
    },
    {
      "midi": 38,
      "hit": false,
      "t": 4540.522,
      "d": 667.5648416666654,
      "v": 53
    },
    {
      "midi": 67,
      "hit": false,
      "t": 4540.522,
      "d": 167.56688333333386,
      "v": 56
    },
    {
      "midi": 60,
      "hit": false,
      "t": 4540.522,
      "d": 639.1865791666669,
      "v": 44
    },
    {
      "midi": 57,
      "hit": false,
      "t": 4540.522,
      "d": 643.2406166666669,
      "v": 32
    },
    {
      "midi": 66,
      "hit": false,
      "t": 4702.683499999999,
      "d": 98.64824583333393,
      "v": 58
    },
    {
      "midi": 50,
      "hit": false,
      "t": 4702.6835,
      "d": 117.56708749999962,
      "v": 61
    },
    {
      "midi": 66,
      "hit": false,
      "t": 4702.6835,
      "d": 122.97247083333332,
      "v": 40
    },
    {
      "midi": 50,
      "hit": false,
      "t": 4864.844999999999,
      "d": 313.5122333333329,
      "v": 61
    },
    {
      "midi": 66,
      "hit": false,
      "t": 4864.844999999999,
      "d": 151.35073333333366,
      "v": 57
    },
    {
      "midi": 66,
      "hit": false,
      "t": 4864.845,
      "d": 145.94534999999996,
      "v": 54
    },
    {
      "midi": 69,
      "hit": false,
      "t": 5027.0064999999995,
      "d": 117.56708749999962,
      "v": 64
    },
    {
      "midi": 69,
      "hit": false,
      "t": 5027.0065,
      "d": 127.02650833333337,
      "v": 55
    },
    {
      "midi": 49,
      "hit": false,
      "t": 5189.167999999999,
      "d": 579.7273624999998,
      "v": 56
    },
    {
      "midi": 69,
      "hit": false,
      "t": 5189.167999999999,
      "d": 181.08034166666675,
      "v": 64
    },
    {
      "midi": 69,
      "hit": false,
      "t": 5189.168000000001,
      "d": 174.3236125000003,
      "v": 61
    },
    {
      "midi": 58,
      "hit": false,
      "t": 5189.168000000001,
      "d": 527.0248750000001,
      "v": 35
    },
    {
      "midi": 67,
      "hit": false,
      "t": 5351.329499999999,
      "d": 125.67516249999971,
      "v": 56
    },
    {
      "midi": 67,
      "hit": false,
      "t": 5351.329500000001,
      "d": 108.10766666666677,
      "v": 40
    },
    {
      "midi": 67,
      "hit": false,
      "t": 5513.490999999999,
      "d": 167.56688333333386,
      "v": 36
    },
    {
      "midi": 67,
      "hit": false,
      "t": 5513.491000000001,
      "d": 154.05342500000006,
      "v": 43
    },
    {
      "midi": 66,
      "hit": false,
      "t": 5675.652499999999,
      "d": 160.81015416666742,
      "v": 28
    },
    {
      "midi": 66,
      "hit": false,
      "t": 5675.652500000001,
      "d": 179.7289958333322,
      "v": 36
    },
    {
      "midi": 49,
      "hit": false,
      "t": 5837.8139999999985,
      "d": 167.56688333333386,
      "v": 37
    },
    {
      "midi": 64,
      "hit": false,
      "t": 5837.814,
      "d": 172.97226666666575,
      "v": 39
    },
    {
      "midi": 57,
      "hit": false,
      "t": 5837.814,
      "d": 209.4586041666662,
      "v": 40
    },
    {
      "midi": 64,
      "hit": false,
      "t": 5837.814,
      "d": 170.26957500000026,
      "v": 59
    },
    {
      "midi": 50,
      "hit": false,
      "t": 5999.975499999999,
      "d": 499.9979583333343,
      "v": 49
    },
    {
      "midi": 62,
      "hit": false,
      "t": 5999.9755,
      "d": 317.5662708333339,
      "v": 20
    },
    {
      "midi": 59,
      "hit": false,
      "t": 5999.9755,
      "d": 321.6203083333339,
      "v": 39
    },
    {
      "midi": 62,
      "hit": false,
      "t": 5999.9755000000005,
      "d": 254.05301666666674,
      "v": 58
    },
    {
      "midi": 69,
      "hit": false,
      "t": 6324.2985,
      "d": 154.05342500000006,
      "v": 54
    },
    {
      "midi": 69,
      "hit": false,
      "t": 6324.298500000001,
      "d": 122.97247083333332,
      "v": 28
    },
    {
      "midi": 36,
      "hit": false,
      "t": 6421.595399999999,
      "d": 706.753870833335,
      "v": 24
    },
    {
      "midi": 43,
      "hit": false,
      "t": 6445.9196249999995,
      "d": 40.540375000000495,
      "v": 27
    },
    {
      "midi": 52,
      "hit": false,
      "t": 6445.9196249999995,
      "d": 681.078300000001,
      "v": 22
    },
    {
      "midi": 55,
      "hit": false,
      "t": 6481.054616666666,
      "d": 644.5919625000006,
      "v": 31
    },
    {
      "midi": 69,
      "hit": false,
      "t": 6486.46,
      "d": 183.78303333333315,
      "v": 61
    },
    {
      "midi": 69,
      "hit": false,
      "t": 6486.460000000001,
      "d": 168.9182291666666,
      "v": 64
    },
    {
      "midi": 60,
      "hit": false,
      "t": 6499.973458333333,
      "d": 624.3217750000003,
      "v": 45
    },
    {
      "midi": 67,
      "hit": false,
      "t": 6648.6215,
      "d": 116.21574166666596,
      "v": 52
    },
    {
      "midi": 67,
      "hit": false,
      "t": 6648.621500000001,
      "d": 104.05362916666672,
      "v": 67
    },
    {
      "midi": 67,
      "hit": false,
      "t": 6810.782999999999,
      "d": 102.70228333333307,
      "v": 46
    },
    {
      "midi": 67,
      "hit": false,
      "t": 6810.783000000001,
      "d": 106.75632083333312,
      "v": 54
    },
    {
      "midi": 67,
      "hit": false,
      "t": 6972.9445,
      "d": 110.81035833333317,
      "v": 62
    },
    {
      "midi": 67,
      "hit": false,
      "t": 6972.944500000001,
      "d": 181.08034166666675,
      "v": 61
    },
    {
      "midi": 67,
      "hit": false,
      "t": 7135.106,
      "d": 166.2155375000002,
      "v": 63
    },
    {
      "midi": 42,
      "hit": false,
      "t": 7135.106000000001,
      "d": 654.0513833333334,
      "v": 41
    },
    {
      "midi": 52,
      "hit": false,
      "t": 7135.106000000001,
      "d": 658.1054208333335,
      "v": 44
    },
    {
      "midi": 69,
      "hit": false,
      "t": 7135.106000000002,
      "d": 201.350529166667,
      "v": 56
    },
    {
      "midi": 66,
      "hit": false,
      "t": 7297.2675,
      "d": 104.05362916666672,
      "v": 36
    },
    {
      "midi": 66,
      "hit": false,
      "t": 7297.267500000002,
      "d": 75.67536666666729,
      "v": 52
    },
    {
      "midi": 66,
      "hit": false,
      "t": 7459.429,
      "d": 99.99959166666667,
      "v": 44
    },
    {
      "midi": 66,
      "hit": false,
      "t": 7459.429000000002,
      "d": 77.02671250000003,
      "v": 63
    },
    {
      "midi": 66,
      "hit": false,
      "t": 7621.5905,
      "d": 113.51304999999957,
      "v": 46
    },
    {
      "midi": 66,
      "hit": false,
      "t": 7621.590500000002,
      "d": 82.43209583333373,
      "v": 63
    },
    {
      "midi": 66,
      "hit": false,
      "t": 7783.7519999999995,
      "d": 166.2155375000002,
      "v": 22
    },
    {
      "midi": 55,
      "hit": false,
      "t": 7783.7519999999995,
      "d": 204.0532208333334,
      "v": 39
    },
    {
      "midi": 61,
      "hit": false,
      "t": 7783.7519999999995,
      "d": 291.8906999999999,
      "v": 42
    },
    {
      "midi": 45,
      "hit": false,
      "t": 7783.752,
      "d": 331.07972916666677,
      "v": 60
    },
    {
      "midi": 66,
      "hit": false,
      "t": 7783.752000000002,
      "d": 178.37765000000036,
      "v": 48
    },
    {
      "midi": 64,
      "hit": false,
      "t": 7945.9135,
      "d": 90.54017083333292,
      "v": 43
    },
    {
      "midi": 64,
      "hit": false,
      "t": 7945.913500000002,
      "d": 97.29690000000028,
      "v": 50
    },
    {
      "midi": 64,
      "hit": false,
      "t": 8108.075,
      "d": 154.05342499999915,
      "v": 36
    },
    {
      "midi": 55,
      "hit": false,
      "t": 8108.075,
      "d": 166.2155374999993,
      "v": 48
    },
    {
      "midi": 60,
      "hit": false,
      "t": 8108.075,
      "d": 309.45819583333196,
      "v": 39
    },
    {
      "midi": 38,
      "hit": false,
      "t": 8108.075000000001,
      "d": 356.7553000000007,
      "v": 50
    },
    {
      "midi": 64,
      "hit": false,
      "t": 8108.075000000003,
      "d": 151.35073333333276,
      "v": 34
    },
    {
      "midi": 62,
      "hit": false,
      "t": 8270.236499999999,
      "d": 143.24265833333266,
      "v": 61
    },
    {
      "midi": 54,
      "hit": false,
      "t": 8270.236499999999,
      "d": 166.2155375000002,
      "v": 52
    },
    {
      "midi": 50,
      "hit": false,
      "t": 8270.2365,
      "d": 178.37765000000036,
      "v": 48
    },
    {
      "midi": 62,
      "hit": false,
      "t": 8270.236500000003,
      "d": 164.86419166666747,
      "v": 53
    },
    {
      "midi": 61,
      "hit": false,
      "t": 8432.398,
      "d": 336.48511250000047,
      "v": 41
    },
    {
      "midi": 49,
      "hit": false,
      "t": 8432.398000000001,
      "d": 333.78242083333316,
      "v": 49
    },
    {
      "midi": 43,
      "hit": false,
      "t": 8432.398000000001,
      "d": 656.7540750000007,
      "v": 43
    },
    {
      "midi": 61,
      "hit": false,
      "t": 8432.398000000003,
      "d": 164.86419166666747,
      "v": 49
    },
    {
      "midi": 62,
      "hit": false,
      "t": 8594.559500000003,
      "d": 1358.1025625000002,
      "v": 40
    },
    {
      "midi": 59,
      "hit": false,
      "t": 8756.721,
      "d": 501.3493041666661,
      "v": 30
    },
    {
      "midi": 55,
      "hit": false,
      "t": 8756.721,
      "d": 504.0519958333334,
      "v": 24
    },
    {
      "midi": 62,
      "hit": false,
      "t": 8756.721,
      "d": 1218.9139416666676,
      "v": 60
    },
    {
      "midi": 50,
      "hit": false,
      "t": 8756.721000000001,
      "d": 2137.8291083333334,
      "v": 59
    },
    {
      "midi": 38,
      "hit": false,
      "t": 9081.044000000002,
      "d": 522.9708375000009,
      "v": 58
    },
    {
      "midi": 57,
      "hit": false,
      "t": 9405.367,
      "d": 460.80892916666744,
      "v": 38
    },
    {
      "midi": 59,
      "hit": false,
      "t": 9405.367,
      "d": 462.1602750000002,
      "v": 28
    },
    {
      "midi": 43,
      "hit": false,
      "t": 9729.690000000002,
      "d": 497.29526666666607,
      "v": 46
    },
    {
      "midi": 58,
      "hit": false,
      "t": 10054.013,
      "d": 240.53955833333384,
      "v": 45
    },
    {
      "midi": 61,
      "hit": false,
      "t": 10054.013,
      "d": 247.2962875000012,
      "v": 36
    },
    {
      "midi": 66,
      "hit": false,
      "t": 10054.013,
      "d": 322.9716541666676,
      "v": 64
    },
    {
      "midi": 66,
      "hit": false,
      "t": 10054.013000000003,
      "d": 335.1337666666677,
      "v": 68
    },
    {
      "midi": 38,
      "hit": false,
      "t": 10378.336000000001,
      "d": 508.10603333333347,
      "v": 46
    },
    {
      "midi": 62,
      "hit": false,
      "t": 10378.336000000001,
      "d": 248.64763333333394,
      "v": 44
    },
    {
      "midi": 59,
      "hit": false,
      "t": 10378.336000000001,
      "d": 318.9176166666675,
      "v": 46
    },
    {
      "midi": 67,
      "hit": false,
      "t": 10378.336000000001,
      "d": 345.9445333333333,
      "v": 66
    },
    {
      "midi": 67,
      "hit": false,
      "t": 10378.336000000003,
      "d": 333.78242083333316,
      "v": 71
    },
    {
      "midi": 69,
      "hit": false,
      "t": 10702.659000000001,
      "d": 274.323204166667,
      "v": 64
    },
    {
      "midi": 62,
      "hit": false,
      "t": 10702.659000000001,
      "d": 324.3230000000003,
      "v": 64
    },
    {
      "midi": 66,
      "hit": false,
      "t": 10702.659000000001,
      "d": 325.67434583333306,
      "v": 36
    },
    {
      "midi": 69,
      "hit": false,
      "t": 10702.659000000003,
      "d": 318.9176166666657,
      "v": 53
    },
    {
      "midi": 43,
      "hit": false,
      "t": 11026.982000000002,
      "d": 482.43046250000043,
      "v": 60
    },
    {
      "midi": 50,
      "hit": false,
      "t": 11026.982000000002,
      "d": 2586.4759250000025,
      "v": 50
    },
    {
      "midi": 71,
      "hit": false,
      "t": 11026.982000000002,
      "d": 2120.2616124999986,
      "v": 54
    },
    {
      "midi": 71,
      "hit": false,
      "t": 11026.982000000002,
      "d": 2116.2075750000004,
      "v": 41
    },
    {
      "midi": 62,
      "hit": false,
      "t": 11351.305,
      "d": 494.5925750000006,
      "v": 15
    },
    {
      "midi": 64,
      "hit": false,
      "t": 11351.305,
      "d": 502.7006500000007,
      "v": 44
    },
    {
      "midi": 67,
      "hit": false,
      "t": 11351.305,
      "d": 504.0519958333334,
      "v": 35
    },
    {
      "midi": 38,
      "hit": false,
      "t": 11675.628000000002,
      "d": 491.8898833333333,
      "v": 55
    },
    {
      "midi": 64,
      "hit": false,
      "t": 11999.951000000001,
      "d": 495.9439208333333,
      "v": 40
    },
    {
      "midi": 62,
      "hit": false,
      "t": 11999.951000000001,
      "d": 508.10603333333347,
      "v": 40
    },
    {
      "midi": 67,
      "hit": false,
      "t": 11999.951000000001,
      "d": 509.4573791666662,
      "v": 38
    },
    {
      "midi": 43,
      "hit": false,
      "t": 12324.274000000003,
      "d": 460.80892916666744,
      "v": 52
    },
    {
      "midi": 62,
      "hit": false,
      "t": 12648.597,
      "d": 467.565658333333,
      "v": 43
    },
    {
      "midi": 64,
      "hit": false,
      "t": 12648.597,
      "d": 475.6737333333331,
      "v": 36
    },
    {
      "midi": 67,
      "hit": false,
      "t": 12648.597,
      "d": 478.3764250000004,
      "v": 36
    },
    {
      "midi": 38,
      "hit": false,
      "t": 12972.920000000004,
      "d": 475.6737333333331,
      "v": 55
    },
    {
      "midi": 66,
      "hit": false,
      "t": 13297.243,
      "d": 268.9178208333342,
      "v": 16
    },
    {
      "midi": 69,
      "hit": false,
      "t": 13297.243,
      "d": 275.67455000000155,
      "v": 54
    },
    {
      "midi": 69,
      "hit": false,
      "t": 13297.243000000002,
      "d": 270.26916666666693,
      "v": 60
    },
    {
      "midi": 69,
      "hit": false,
      "t": 13621.566000000003,
      "d": 324.3230000000003,
      "v": 64
    },
    {
      "midi": 66,
      "hit": false,
      "t": 13621.566000000003,
      "d": 347.2958791666679,
      "v": 58
    },
    {
      "midi": 69,
      "hit": false,
      "t": 13621.566000000003,
      "d": 335.1337666666677,
      "v": 56
    },
    {
      "midi": 47,
      "hit": false,
      "t": 13621.566000000004,
      "d": 1297.2919999999995,
      "v": 66
    },
    {
      "midi": 64,
      "hit": false,
      "t": 13945.889000000003,
      "d": 267.56647500000145,
      "v": 45
    },
    {
      "midi": 67,
      "hit": false,
      "t": 13945.889000000003,
      "d": 267.56647500000145,
      "v": 44
    },
    {
      "midi": 67,
      "hit": false,
      "t": 13945.889000000003,
      "d": 241.8909041666666,
      "v": 52
    },
    {
      "midi": 55,
      "hit": false,
      "t": 13945.889000000005,
      "d": 581.0787083333325,
      "v": 44
    },
    {
      "midi": 67,
      "hit": false,
      "t": 14270.212000000003,
      "d": 329.7283833333331,
      "v": 47
    },
    {
      "midi": 67,
      "hit": false,
      "t": 14270.212000000005,
      "d": 336.48511250000047,
      "v": 48
    },
    {
      "midi": 64,
      "hit": false,
      "t": 14270.212000000005,
      "d": 339.1878041666678,
      "v": 39
    },
    {
      "midi": 55,
      "hit": false,
      "t": 14594.535000000003,
      "d": 504.0519958333334,
      "v": 50
    },
    {
      "midi": 69,
      "hit": false,
      "t": 14594.535000000003,
      "d": 266.2151291666669,
      "v": 48
    },
    {
      "midi": 66,
      "hit": false,
      "t": 14594.535000000005,
      "d": 267.56647500000145,
      "v": 49
    },
    {
      "midi": 69,
      "hit": false,
      "t": 14594.535000000005,
      "d": 268.9178208333342,
      "v": 41
    },
    {
      "midi": 46,
      "hit": false,
      "t": 14918.858000000004,
      "d": 1305.4000750000014,
      "v": 42
    },
    {
      "midi": 69,
      "hit": false,
      "t": 14918.858000000004,
      "d": 347.2958791666679,
      "v": 54
    },
    {
      "midi": 69,
      "hit": false,
      "t": 14918.858000000006,
      "d": 318.9176166666675,
      "v": 64
    },
    {
      "midi": 66,
      "hit": false,
      "t": 14918.858000000006,
      "d": 331.0797291666677,
      "v": 64
    },
    {
      "midi": 55,
      "hit": false,
      "t": 15243.181000000004,
      "d": 579.7273624999998,
      "v": 56
    },
    {
      "midi": 67,
      "hit": false,
      "t": 15243.181000000004,
      "d": 213.51264166666806,
      "v": 28
    },
    {
      "midi": 64,
      "hit": false,
      "t": 15243.181000000006,
      "d": 263.5124375000014,
      "v": 52
    },
    {
      "midi": 67,
      "hit": false,
      "t": 15243.181000000006,
      "d": 263.5124375000014,
      "v": 40
    },
    {
      "midi": 67,
      "hit": false,
      "t": 15567.504000000006,
      "d": 316.2149250000002,
      "v": 48
    },
    {
      "midi": 64,
      "hit": false,
      "t": 15567.504000000008,
      "d": 282.4312791666671,
      "v": 56
    },
    {
      "midi": 67,
      "hit": false,
      "t": 15567.504000000008,
      "d": 286.48531666666713,
      "v": 55
    },
    {
      "midi": 55,
      "hit": false,
      "t": 15891.827000000005,
      "d": 331.0797291666677,
      "v": 64
    },
    {
      "midi": 66,
      "hit": false,
      "t": 15891.827000000007,
      "d": 260.8097458333341,
      "v": 61
    },
    {
      "midi": 66,
      "hit": false,
      "t": 15891.827000000008,
      "d": 299.998775,
      "v": 47
    },
    {
      "midi": 62,
      "hit": false,
      "t": 15891.827000000008,
      "d": 317.56627083333296,
      "v": 47
    },
    {
      "midi": 45,
      "hit": false,
      "t": 16216.150000000005,
      "d": 481.0791166666677,
      "v": 50
    },
    {
      "midi": 66,
      "hit": false,
      "t": 16216.150000000007,
      "d": 1964.8568416666658,
      "v": 57
    },
    {
      "midi": 66,
      "hit": false,
      "t": 16216.150000000009,
      "d": 1275.6704666666665,
      "v": 64
    },
    {
      "midi": 60,
      "hit": false,
      "t": 16540.47300000001,
      "d": 214.8639875000008,
      "v": 32
    },
    {
      "midi": 62,
      "hit": false,
      "t": 16540.47300000001,
      "d": 217.5666791666663,
      "v": 28
    },
    {
      "midi": 54,
      "hit": false,
      "t": 16540.47300000001,
      "d": 228.37744583333188,
      "v": 21
    },
    {
      "midi": 38,
      "hit": false,
      "t": 16864.796000000006,
      "d": 502.70064999999886,
      "v": 64
    },
    {
      "midi": 62,
      "hit": false,
      "t": 16864.79600000001,
      "d": 224.32340833333365,
      "v": 48
    },
    {
      "midi": 60,
      "hit": false,
      "t": 16864.79600000001,
      "d": 243.24224999999933,
      "v": 40
    },
    {
      "midi": 54,
      "hit": false,
      "t": 16864.79600000001,
      "d": 348.6472250000006,
      "v": 42
    },
    {
      "midi": 64,
      "hit": false,
      "t": 17189.11900000001,
      "d": 287.8366625000017,
      "v": 45
    },
    {
      "midi": 55,
      "hit": false,
      "t": 17189.11900000001,
      "d": 290.5393541666672,
      "v": 47
    },
    {
      "midi": 60,
      "hit": false,
      "t": 17189.11900000001,
      "d": 290.5393541666672,
      "v": 48
    },
    {
      "midi": 45,
      "hit": false,
      "t": 17513.442000000006,
      "d": 477.0250791666658,
      "v": 57
    },
    {
      "midi": 64,
      "hit": false,
      "t": 17513.44200000001,
      "d": 255.4043625000013,
      "v": 64
    },
    {
      "midi": 60,
      "hit": false,
      "t": 17513.44200000001,
      "d": 264.86378333333414,
      "v": 44
    },
    {
      "midi": 55,
      "hit": false,
      "t": 17513.44200000001,
      "d": 283.7826249999998,
      "v": 43
    },
    {
      "midi": 54,
      "hit": false,
      "t": 17837.76500000001,
      "d": 274.323204166667,
      "v": 49
    },
    {
      "midi": 64,
      "hit": false,
      "t": 17837.76500000001,
      "d": 277.02589583333247,
      "v": 64
    },
    {
      "midi": 60,
      "hit": false,
      "t": 17837.76500000001,
      "d": 278.3772416666652,
      "v": 62
    },
    {
      "midi": 38,
      "hit": false,
      "t": 18162.088000000007,
      "d": 640.5379249999969,
      "v": 54
    },
    {
      "midi": 60,
      "hit": false,
      "t": 18162.08800000001,
      "d": 291.8906999999999,
      "v": 56
    },
    {
      "midi": 64,
      "hit": false,
      "t": 18162.08800000001,
      "d": 298.6474291666673,
      "v": 66
    },
    {
      "midi": 54,
      "hit": false,
      "t": 18162.08800000001,
      "d": 316.2149250000002,
      "v": 54
    },
    {
      "midi": 52,
      "hit": false,
      "t": 18486.411000000007,
      "d": 304.05281249999825,
      "v": 68
    },
    {
      "midi": 64,
      "hit": false,
      "t": 18486.411000000007,
      "d": 317.56627083333296,
      "v": 45
    },
    {
      "midi": 64,
      "hit": false,
      "t": 18486.41100000001,
      "d": 316.2149250000002,
      "v": 71
    },
    {
      "midi": 51,
      "hit": false,
      "t": 18810.734000000004,
      "d": 204.05322083333158,
      "v": 53
    },
    {
      "midi": 45,
      "hit": false,
      "t": 18810.734000000004,
      "d": 486.484499999995,
      "v": 48
    },
    {
      "midi": 63,
      "hit": false,
      "t": 18810.734000000008,
      "d": 325.67434583333306,
      "v": 65
    },
    {
      "midi": 63,
      "hit": false,
      "t": 18810.73400000001,
      "d": 327.0256916666658,
      "v": 73
    },
    {
      "midi": 52,
      "hit": false,
      "t": 19135.057,
      "d": 1183.7789499999963,
      "v": 63
    },
    {
      "midi": 64,
      "hit": false,
      "t": 19135.057000000008,
      "d": 1131.076462500001,
      "v": 59
    },
    {
      "midi": 57,
      "hit": false,
      "t": 19135.05700000001,
      "d": 474.32238750000033,
      "v": 62
    },
    {
      "midi": 60,
      "hit": false,
      "t": 19135.05700000001,
      "d": 494.59257499999876,
      "v": 33
    },
    {
      "midi": 64,
      "hit": false,
      "t": 19135.05700000001,
      "d": 1206.7518291666602,
      "v": 55
    },
    {
      "midi": 47,
      "hit": false,
      "t": 19459.379999999997,
      "d": 475.6737333333331,
      "v": 54
    },
    {
      "midi": 62,
      "hit": false,
      "t": 19783.70300000001,
      "d": 341.89049583333326,
      "v": 74
    },
    {
      "midi": 56,
      "hit": false,
      "t": 19783.70300000001,
      "d": 345.9445333333315,
      "v": 48
    },
    {
      "midi": 48,
      "hit": false,
      "t": 20108.025999999998,
      "d": 662.1594583333354,
      "v": 63
    },
    {
      "midi": 56,
      "hit": false,
      "t": 20432.349,
      "d": 331.0797291666677,
      "v": 63
    },
    {
      "midi": 68,
      "hit": false,
      "t": 20432.349000000006,
      "d": 318.9176166666657,
      "v": 58
    },
    {
      "midi": 65,
      "hit": false,
      "t": 20432.349000000006,
      "d": 598.6462041666673,
      "v": 63
    },
    {
      "midi": 68,
      "hit": false,
      "t": 20432.34900000001,
      "d": 321.62030833333483,
      "v": 70
    },
    {
      "midi": 57,
      "hit": false,
      "t": 20756.672,
      "d": 329.72838333333493,
      "v": 61
    },
    {
      "midi": 52,
      "hit": false,
      "t": 20756.672,
      "d": 644.5919625000024,
      "v": 67
    },
    {
      "midi": 69,
      "hit": false,
      "t": 20756.672000000006,
      "d": 290.5393541666672,
      "v": 66
    },
    {
      "midi": 69,
      "hit": false,
      "t": 20756.67200000001,
      "d": 340.5391500000005,
      "v": 67
    },
    {
      "midi": 59,
      "hit": false,
      "t": 21080.995,
      "d": 313.51223333333473,
      "v": 40
    },
    {
      "midi": 62,
      "hit": false,
      "t": 21080.995000000006,
      "d": 297.29608333333454,
      "v": 58
    },
    {
      "midi": 68,
      "hit": false,
      "t": 21080.995000000006,
      "d": 301.35012083333277,
      "v": 54
    },
    {
      "midi": 71,
      "hit": false,
      "t": 21080.995000000006,
      "d": 301.35012083333277,
      "v": 57
    },
    {
      "midi": 71,
      "hit": false,
      "t": 21080.99500000001,
      "d": 318.9176166666657,
      "v": 72
    },
    {
      "midi": 57,
      "hit": false,
      "t": 21405.318,
      "d": 677.0242624999992,
      "v": 49
    },
    {
      "midi": 74,
      "hit": false,
      "t": 21405.318000000007,
      "d": 2152.693912499999,
      "v": 77
    },
    {
      "midi": 74,
      "hit": false,
      "t": 21405.31800000001,
      "d": 2063.5050875000015,
      "v": 75
    },
    {
      "midi": 62,
      "hit": false,
      "t": 21729.641000000007,
      "d": 348.6472250000006,
      "v": 64
    },
    {
      "midi": 68,
      "hit": false,
      "t": 21729.641000000007,
      "d": 349.99857083333336,
      "v": 18
    },
    {
      "midi": 65,
      "hit": false,
      "t": 21729.641000000007,
      "d": 355.403954166668,
      "v": 61
    },
    {
      "midi": 59,
      "hit": false,
      "t": 22053.964,
      "d": 651.3486916666625,
      "v": 56
    },
    {
      "midi": 68,
      "hit": false,
      "t": 22378.287000000008,
      "d": 349.99857083333336,
      "v": 16
    },
    {
      "midi": 65,
      "hit": false,
      "t": 22378.287000000008,
      "d": 356.7553000000007,
      "v": 61
    },
    {
      "midi": 62,
      "hit": false,
      "t": 22378.287000000008,
      "d": 358.10664583333346,
      "v": 61
    },
    {
      "midi": 57,
      "hit": false,
      "t": 22702.609999999997,
      "d": 1289.1839249999975,
      "v": 52
    },
    {
      "midi": 64,
      "hit": false,
      "t": 23026.933000000008,
      "d": 509.4573791666662,
      "v": 46
    },
    {
      "midi": 67,
      "hit": false,
      "t": 23026.933000000008,
      "d": 510.80872499999896,
      "v": 40
    },
    {
      "midi": 45,
      "hit": false,
      "t": 23351.255999999994,
      "d": 659.4567666666662,
      "v": 53
    },
    {
      "midi": 64,
      "hit": false,
      "t": 23675.579000000005,
      "d": 304.05281249999825,
      "v": 38
    },
    {
      "midi": 67,
      "hit": false,
      "t": 23675.579000000005,
      "d": 305.404158333331,
      "v": 56
    },
    {
      "midi": 72,
      "hit": false,
      "t": 23675.579000000005,
      "d": 310.8095416666656,
      "v": 68
    },
    {
      "midi": 72,
      "hit": false,
      "t": 23675.579000000012,
      "d": 256.75570833333404,
      "v": 71
    },
    {
      "midi": 50,
      "hit": false,
      "t": 23999.901999999995,
      "d": 1241.8868208333333,
      "v": 50
    },
    {
      "midi": 72,
      "hit": false,
      "t": 23999.902000000006,
      "d": 329.72838333333493,
      "v": 74
    },
    {
      "midi": 67,
      "hit": false,
      "t": 23999.902000000006,
      "d": 333.78242083333316,
      "v": 62
    },
    {
      "midi": 64,
      "hit": false,
      "t": 23999.902000000006,
      "d": 347.2958791666679,
      "v": 64
    },
    {
      "midi": 72,
      "hit": false,
      "t": 23999.902000000013,
      "d": 314.8635791666675,
      "v": 74
    },
    {
      "midi": 62,
      "hit": false,
      "t": 24324.225000000006,
      "d": 270.26916666666875,
      "v": 74
    },
    {
      "midi": 71,
      "hit": false,
      "t": 24324.225000000006,
      "d": 286.48531666666895,
      "v": 74
    },
    {
      "midi": 66,
      "hit": false,
      "t": 24324.225000000006,
      "d": 290.5393541666672,
      "v": 17
    },
    {
      "midi": 71,
      "hit": false,
      "t": 24324.225000000013,
      "d": 239.1882125000011,
      "v": 58
    },
    {
      "midi": 38,
      "hit": false,
      "t": 24648.547999999995,
      "d": 697.2944500000012,
      "v": 57
    },
    {
      "midi": 71,
      "hit": false,
      "t": 24648.548000000006,
      "d": 299.998775,
      "v": 66
    },
    {
      "midi": 66,
      "hit": false,
      "t": 24648.548000000006,
      "d": 304.05281249999825,
      "v": 29
    },
    {
      "midi": 62,
      "hit": false,
      "t": 24648.548000000006,
      "d": 305.404158333331,
      "v": 74
    },
    {
      "midi": 71,
      "hit": false,
      "t": 24648.548000000013,
      "d": 344.59318749999875,
      "v": 64
    },
    {
      "midi": 69,
      "hit": false,
      "t": 24972.871000000003,
      "d": 236.48552083333198,
      "v": 55
    },
    {
      "midi": 60,
      "hit": false,
      "t": 24972.871000000003,
      "d": 237.83686666666472,
      "v": 49
    },
    {
      "midi": 66,
      "hit": false,
      "t": 24972.871000000003,
      "d": 247.29628749999756,
      "v": 48
    },
    {
      "midi": 69,
      "hit": false,
      "t": 24972.871000000014,
      "d": 249.9989791666667,
      "v": 40
    },
    {
      "midi": 50,
      "hit": false,
      "t": 25297.193999999996,
      "d": 1298.643345833334,
      "v": 64
    },
    {
      "midi": 60,
      "hit": false,
      "t": 25297.194,
      "d": 220.26937083333178,
      "v": 51
    },
    {
      "midi": 66,
      "hit": false,
      "t": 25297.194,
      "d": 281.0799333333307,
      "v": 49
    },
    {
      "midi": 69,
      "hit": false,
      "t": 25297.194,
      "d": 285.13397083332893,
      "v": 47
    },
    {
      "midi": 69,
      "hit": false,
      "t": 25297.194000000014,
      "d": 339.1878041666678,
      "v": 45
    },
    {
      "midi": 60,
      "hit": false,
      "t": 25621.516999999996,
      "d": 272.97185833333424,
      "v": 25
    },
    {
      "midi": 57,
      "hit": false,
      "t": 25621.516999999996,
      "d": 281.07993333333434,
      "v": 32
    },
    {
      "midi": 66,
      "hit": false,
      "t": 25621.516999999996,
      "d": 283.7826249999998,
      "v": 57
    },
    {
      "midi": 66,
      "hit": false,
      "t": 25621.517000000014,
      "d": 259.45839999999953,
      "v": 40
    },
    {
      "midi": 38,
      "hit": false,
      "t": 25945.839999999997,
      "d": 656.7540750000007,
      "v": 61
    },
    {
      "midi": 60,
      "hit": false,
      "t": 25945.839999999997,
      "d": 320.26896249999845,
      "v": 48
    },
    {
      "midi": 57,
      "hit": false,
      "t": 25945.839999999997,
      "d": 331.07972916666404,
      "v": 37
    },
    {
      "midi": 66,
      "hit": false,
      "t": 25945.839999999997,
      "d": 337.8364583333314,
      "v": 60
    },
    {
      "midi": 66,
      "hit": false,
      "t": 25945.840000000015,
      "d": 332.4310750000004,
      "v": 42
    },
    {
      "midi": 58,
      "hit": false,
      "t": 26270.162999999993,
      "d": 339.1878041666678,
      "v": 60
    },
    {
      "midi": 64,
      "hit": false,
      "t": 26270.162999999993,
      "d": 339.1878041666678,
      "v": 68
    },
    {
      "midi": 64,
      "hit": false,
      "t": 26270.163000000015,
      "d": 324.3230000000003,
      "v": 51
    },
    {
      "midi": 62,
      "hit": false,
      "t": 26594.485999999994,
      "d": 2131.072379166664,
      "v": 55
    },
    {
      "midi": 43,
      "hit": false,
      "t": 26594.485999999997,
      "d": 533.7816041666665,
      "v": 44
    },
    {
      "midi": 62,
      "hit": false,
      "t": 26594.486000000015,
      "d": 2035.1268249999994,
      "v": 53
    },
    {
      "midi": 55,
      "hit": false,
      "t": 26918.808999999994,
      "d": 333.78242083333316,
      "v": 19
    },
    {
      "midi": 59,
      "hit": false,
      "t": 26918.808999999994,
      "d": 333.78242083333316,
      "v": 29
    },
    {
      "midi": 44,
      "hit": false,
      "t": 27243.131999999998,
      "d": 513.5114166666681,
      "v": 65
    },
    {
      "midi": 59,
      "hit": false,
      "t": 27567.454999999994,
      "d": 335.1337666666659,
      "v": 50
    },
    {
      "midi": 53,
      "hit": false,
      "t": 27567.454999999994,
      "d": 343.241841666666,
      "v": 38
    },
    {
      "midi": 45,
      "hit": false,
      "t": 27891.778,
      "d": 522.9708375000009,
      "v": 66
    },
    {
      "midi": 60,
      "hit": false,
      "t": 28216.100999999995,
      "d": 312.16088749999835,
      "v": 43
    },
    {
      "midi": 54,
      "hit": false,
      "t": 28216.100999999995,
      "d": 356.7552999999971,
      "v": 36
    },
    {
      "midi": 46,
      "hit": false,
      "t": 28540.424,
      "d": 474.32238750000033,
      "v": 40
    },
    {
      "midi": 67,
      "hit": false,
      "t": 28864.746999999992,
      "d": 321.62030833333483,
      "v": 58
    },
    {
      "midi": 55,
      "hit": false,
      "t": 28864.746999999992,
      "d": 331.0797291666677,
      "v": 55
    },
    {
      "midi": 61,
      "hit": false,
      "t": 28864.746999999992,
      "d": 335.1337666666659,
      "v": 32
    },
    {
      "midi": 67,
      "hit": false,
      "t": 28864.747000000014,
      "d": 260.8097458333323,
      "v": 54
    },
    {
      "midi": 67,
      "hit": false,
      "t": 29189.069999999992,
      "d": 313.5122333333311,
      "v": 48
    },
    {
      "midi": 47,
      "hit": false,
      "t": 29189.07,
      "d": 513.5114166666681,
      "v": 50
    },
    {
      "midi": 55,
      "hit": false,
      "t": 29189.07,
      "d": 1240.5354750000006,
      "v": 40
    },
    {
      "midi": 67,
      "hit": false,
      "t": 29189.070000000014,
      "d": 331.0797291666677,
      "v": 54
    },
    {
      "midi": 69,
      "hit": false,
      "t": 29513.39299999999,
      "d": 218.91802499999903,
      "v": 50
    },
    {
      "midi": 65,
      "hit": false,
      "t": 29513.39299999999,
      "d": 371.62010416666817,
      "v": 42
    },
    {
      "midi": 62,
      "hit": false,
      "t": 29513.39299999999,
      "d": 460.80892916666926,
      "v": 44
    },
    {
      "midi": 69,
      "hit": false,
      "t": 29513.393000000015,
      "d": 270.26916666666875,
      "v": 37
    },
    {
      "midi": 69,
      "hit": false,
      "t": 29837.71599999999,
      "d": 327.02569166666945,
      "v": 54
    },
    {
      "midi": 43,
      "hit": false,
      "t": 29837.716,
      "d": 471.61969583333484,
      "v": 48
    },
    {
      "midi": 69,
      "hit": false,
      "t": 29837.716000000015,
      "d": 316.2149250000002,
      "v": 54
    },
    {
      "midi": 65,
      "hit": false,
      "t": 30162.038999999993,
      "d": 289.1880083333308,
      "v": 44
    },
    {
      "midi": 67,
      "hit": false,
      "t": 30162.038999999993,
      "d": 289.1880083333308,
      "v": 48
    },
    {
      "midi": 71,
      "hit": false,
      "t": 30162.038999999993,
      "d": 293.24204583332903,
      "v": 61
    },
    {
      "midi": 59,
      "hit": false,
      "t": 30162.038999999993,
      "d": 312.1608874999947,
      "v": 42
    },
    {
      "midi": 71,
      "hit": false,
      "t": 30162.039000000015,
      "d": 287.8366625000017,
      "v": 59
    },
    {
      "midi": 71,
      "hit": false,
      "t": 30486.361999999986,
      "d": 347.2958791666679,
      "v": 53
    },
    {
      "midi": 50,
      "hit": false,
      "t": 30486.362,
      "d": 487.83584583333504,
      "v": 45
    },
    {
      "midi": 55,
      "hit": false,
      "t": 30486.362,
      "d": 1120.2656958333355,
      "v": 32
    },
    {
      "midi": 71,
      "hit": false,
      "t": 30486.362000000016,
      "d": 317.56627083333296,
      "v": 63
    },
    {
      "midi": 69,
      "hit": false,
      "t": 30810.684999999987,
      "d": 178.37765000000218,
      "v": 47
    },
    {
      "midi": 65,
      "hit": false,
      "t": 30810.684999999987,
      "d": 329.72838333333857,
      "v": 22
    },
    {
      "midi": 59,
      "hit": false,
      "t": 30810.684999999987,
      "d": 341.8904958333369,
      "v": 34
    },
    {
      "midi": 69,
      "hit": false,
      "t": 30810.685000000016,
      "d": 272.97185833333424,
      "v": 40
    },
    {
      "midi": 69,
      "hit": false,
      "t": 31135.00799999999,
      "d": 331.0797291666677,
      "v": 53
    },
    {
      "midi": 43,
      "hit": false,
      "t": 31135.008,
      "d": 478.3764250000022,
      "v": 44
    },
    {
      "midi": 69,
      "hit": false,
      "t": 31135.008000000016,
      "d": 328.37703749999855,
      "v": 44
    },
    {
      "midi": 67,
      "hit": false,
      "t": 31459.33099999999,
      "d": 258.1070541666668,
      "v": 45
    },
    {
      "midi": 63,
      "hit": false,
      "t": 31459.33099999999,
      "d": 260.8097458333323,
      "v": 23
    },
    {
      "midi": 59,
      "hit": false,
      "t": 31459.33099999999,
      "d": 267.5664749999996,
      "v": 39
    },
    {
      "midi": 67,
      "hit": false,
      "t": 31459.331000000017,
      "d": 312.16088749999835,
      "v": 39
    },
    {
      "midi": 60,
      "hit": false,
      "t": 31670.14094999999,
      "d": 40.540375000000495,
      "v": 32
    },
    {
      "midi": 64,
      "hit": false,
      "t": 31710.68132499999,
      "d": 40.540375000000495,
      "v": 30
    },
    {
      "midi": 36,
      "hit": false,
      "t": 31735.005550000005,
      "d": 698.645795833334,
      "v": 32
    },
    {
      "midi": 67,
      "hit": false,
      "t": 31751.22169999999,
      "d": 40.540375000000495,
      "v": 35
    },
    {
      "midi": 43,
      "hit": false,
      "t": 31759.329775000006,
      "d": 671.6188791666682,
      "v": 47
    },
    {
      "midi": 52,
      "hit": false,
      "t": 31780.95130833334,
      "d": 652.7000374999989,
      "v": 52
    },
    {
      "midi": 71,
      "hit": false,
      "t": 31783.65399999999,
      "d": 405.4037500000013,
      "v": 69
    },
    {
      "midi": 71,
      "hit": false,
      "t": 31783.654000000013,
      "d": 668.9161874999991,
      "v": 60
    },
    {
      "midi": 67,
      "hit": false,
      "t": 32107.97699999999,
      "d": 324.3230000000003,
      "v": 50
    },
    {
      "midi": 59,
      "hit": false,
      "t": 32107.97699999999,
      "d": 332.4310750000004,
      "v": 54
    },
    {
      "midi": 64,
      "hit": false,
      "t": 32107.97699999999,
      "d": 339.1878041666678,
      "v": 45
    },
    {
      "midi": 69,
      "hit": false,
      "t": 32416.08384999999,
      "d": 1228.373362500006,
      "v": 57
    },
    {
      "midi": 43,
      "hit": false,
      "t": 32432.300000000007,
      "d": 489.1871916666678,
      "v": 52
    },
    {
      "midi": 69,
      "hit": false,
      "t": 32432.300000000014,
      "d": 851.3478749999958,
      "v": 51
    },
    {
      "midi": 67,
      "hit": false,
      "t": 32756.622999999992,
      "d": 325.6743458333367,
      "v": 56
    },
    {
      "midi": 64,
      "hit": false,
      "t": 32756.622999999992,
      "d": 336.4851125000059,
      "v": 39
    },
    {
      "midi": 60,
      "hit": false,
      "t": 32756.622999999992,
      "d": 352.7012625000061,
      "v": 57
    },
    {
      "midi": 36,
      "hit": false,
      "t": 33080.94600000001,
      "d": 1302.697383333325,
      "v": 36
    },
    {
      "midi": 67,
      "hit": false,
      "t": 33405.269,
      "d": 255.40436249999766,
      "v": 48
    },
    {
      "midi": 60,
      "hit": false,
      "t": 33405.269,
      "d": 539.1869874999975,
      "v": 53
    },
    {
      "midi": 64,
      "hit": false,
      "t": 33405.269,
      "d": 598.6462041666673,
      "v": 37
    },
    {
      "midi": 55,
      "hit": false,
      "t": 33405.26900000001,
      "d": 331.0797291666604,
      "v": 54
    },
    {
      "midi": 67,
      "hit": false,
      "t": 33405.26900000001,
      "d": 335.1337666666659,
      "v": 60
    },
    {
      "midi": 69,
      "hit": false,
      "t": 33729.592,
      "d": 335.1337666666732,
      "v": 57
    },
    {
      "midi": 57,
      "hit": false,
      "t": 33729.592000000004,
      "d": 332.43107499999314,
      "v": 43
    },
    {
      "midi": 69,
      "hit": false,
      "t": 33729.592000000004,
      "d": 349.99857083334064,
      "v": 63
    },
    {
      "midi": 55,
      "hit": false,
      "t": 34053.915,
      "d": 320.26896249999845,
      "v": 37
    },
    {
      "midi": 67,
      "hit": false,
      "t": 34053.915,
      "d": 336.4851125000059,
      "v": 54
    },
    {
      "midi": 64,
      "hit": false,
      "t": 34053.915,
      "d": 343.24184166666964,
      "v": 10
    },
    {
      "midi": 60,
      "hit": false,
      "t": 34053.915,
      "d": 355.4039541666716,
      "v": 51
    },
    {
      "midi": 67,
      "hit": false,
      "t": 34053.91500000001,
      "d": 347.2958791666679,
      "v": 60
    },
    {
      "midi": 40,
      "hit": false,
      "t": 34321.481475,
      "d": 682.4296458333338,
      "v": 51
    },
    {
      "midi": 47,
      "hit": false,
      "t": 34356.61646666667,
      "d": 647.2946541666679,
      "v": 51
    },
    {
      "midi": 71,
      "hit": false,
      "t": 34378.238000000005,
      "d": 341.8904958333369,
      "v": 62
    },
    {
      "midi": 71,
      "hit": false,
      "t": 34378.23800000001,
      "d": 321.6203083333312,
      "v": 51
    },
    {
      "midi": 55,
      "hit": false,
      "t": 34386.346075,
      "d": 614.8623541666675,
      "v": 50
    },
    {
      "midi": 67,
      "hit": false,
      "t": 34702.56100000001,
      "d": 308.1068499999965,
      "v": 44
    },
    {
      "midi": 59,
      "hit": false,
      "t": 34702.56100000001,
      "d": 332.43107499999314,
      "v": 54
    },
    {
      "midi": 62,
      "hit": false,
      "t": 34702.56100000001,
      "d": 556.7544833333232,
      "v": 43
    },
    {
      "midi": 67,
      "hit": false,
      "t": 34702.56100000001,
      "d": 322.97165416666394,
      "v": 42
    },
    {
      "midi": 47,
      "hit": false,
      "t": 35026.884,
      "d": 491.8898833333369,
      "v": 52
    },
    {
      "midi": 69,
      "hit": false,
      "t": 35026.884000000005,
      "d": 274.32320416666334,
      "v": 60
    },
    {
      "midi": 69,
      "hit": false,
      "t": 35026.884000000005,
      "d": 327.02569166666217,
      "v": 42
    },
    {
      "midi": 62,
      "hit": false,
      "t": 35351.207,
      "d": 333.78242083333316,
      "v": 54
    },
    {
      "midi": 67,
      "hit": false,
      "t": 35351.207,
      "d": 339.18780416666414,
      "v": 47
    },
    {
      "midi": 59,
      "hit": false,
      "t": 35351.207,
      "d": 341.8904958333296,
      "v": 50
    },
    {
      "midi": 67,
      "hit": false,
      "t": 35351.207,
      "d": 358.1066458333298,
      "v": 59
    },
    {
      "midi": 45,
      "hit": false,
      "t": 35675.53,
      "d": 524.32218333333,
      "v": 48
    },
    {
      "midi": 71,
      "hit": false,
      "t": 35675.53,
      "d": 329.72838333332766,
      "v": 61
    },
    {
      "midi": 71,
      "hit": false,
      "t": 35675.53,
      "d": 325.6743458333294,
      "v": 62
    },
    {
      "midi": 69,
      "hit": false,
      "t": 35999.852999999996,
      "d": 278.3772416666616,
      "v": 55
    },
    {
      "midi": 66,
      "hit": false,
      "t": 35999.852999999996,
      "d": 285.1339708333253,
      "v": 45
    },
    {
      "midi": 61,
      "hit": false,
      "t": 35999.852999999996,
      "d": 487.83584583332413,
      "v": 55
    },
    {
      "midi": 69,
      "hit": false,
      "t": 35999.852999999996,
      "d": 235.13417499999923,
      "v": 48
    },
    {
      "midi": 69,
      "hit": false,
      "t": 36324.175999999985,
      "d": 325.6743458333367,
      "v": 53
    },
    {
      "midi": 57,
      "hit": false,
      "t": 36324.17599999999,
      "d": 508.10603333332983,
      "v": 49
    },
    {
      "midi": 69,
      "hit": false,
      "t": 36324.17599999999,
      "d": 304.05281249999825,
      "v": 57
    },
    {
      "midi": 64,
      "hit": false,
      "t": 36648.49899999999,
      "d": 329.72838333332766,
      "v": 26
    },
    {
      "midi": 67,
      "hit": false,
      "t": 36648.49899999999,
      "d": 331.0797291666604,
      "v": 56
    },
    {
      "midi": 61,
      "hit": false,
      "t": 36648.49899999999,
      "d": 339.18780416665686,
      "v": 47
    },
    {
      "midi": 67,
      "hit": false,
      "t": 36648.49899999999,
      "d": 337.8364583333314,
      "v": 48
    },
    {
      "midi": 38,
      "hit": false,
      "t": 36972.821999999986,
      "d": 491.8898833333369,
      "v": 44
    },
    {
      "midi": 71,
      "hit": false,
      "t": 36972.821999999986,
      "d": 637.8352333333314,
      "v": 69
    },
    {
      "midi": 71,
      "hit": false,
      "t": 36972.821999999986,
      "d": 690.5377208333375,
      "v": 47
    },
    {
      "midi": 67,
      "hit": false,
      "t": 37297.14499999998,
      "d": 328.3770375000022,
      "v": 41
    },
    {
      "midi": 64,
      "hit": false,
      "t": 37297.14499999998,
      "d": 333.78242083333316,
      "v": 41
    },
    {
      "midi": 60,
      "hit": false,
      "t": 37297.14499999998,
      "d": 341.8904958333296,
      "v": 44
    },
    {
      "midi": 45,
      "hit": false,
      "t": 37621.467999999986,
      "d": 524.32218333333,
      "v": 49
    },
    {
      "midi": 69,
      "hit": false,
      "t": 37621.467999999986,
      "d": 1301.3460374999995,
      "v": 62
    },
    {
      "midi": 69,
      "hit": false,
      "t": 37621.467999999986,
      "d": 985.1311125000066,
      "v": 31
    },
    {
      "midi": 66,
      "hit": false,
      "t": 37945.790999999976,
      "d": 309.4581958333365,
      "v": 56
    },
    {
      "midi": 62,
      "hit": false,
      "t": 37945.790999999976,
      "d": 335.1337666666732,
      "v": 53
    },
    {
      "midi": 60,
      "hit": false,
      "t": 37945.790999999976,
      "d": 337.83645833333867,
      "v": 48
    },
    {
      "midi": 50,
      "hit": false,
      "t": 38270.11399999998,
      "d": 535.1329499999993,
      "v": 53
    },
    {
      "midi": 62,
      "hit": false,
      "t": 38594.43699999998,
      "d": 214.8639875000008,
      "v": 46
    },
    {
      "midi": 60,
      "hit": false,
      "t": 38594.43699999998,
      "d": 327.02569166666945,
      "v": 38
    },
    {
      "midi": 66,
      "hit": false,
      "t": 38594.43699999998,
      "d": 327.02569166666945,
      "v": 30
    },
    {
      "midi": 38,
      "hit": false,
      "t": 38918.75999999998,
      "d": 474.3223874999967,
      "v": 59
    },
    {
      "midi": 62,
      "hit": false,
      "t": 38918.75999999999,
      "d": 340.5391499999969,
      "v": 65
    },
    {
      "midi": 62,
      "hit": false,
      "t": 38918.759999999995,
      "d": 632.4298500000004,
      "v": 72
    },
    {
      "midi": 60,
      "hit": false,
      "t": 39243.082999999984,
      "d": 331.0797291666604,
      "v": 66
    },
    {
      "midi": 54,
      "hit": false,
      "t": 39243.082999999984,
      "d": 352.70126249999157,
      "v": 54
    },
    {
      "midi": 49,
      "hit": false,
      "t": 39567.40599999997,
      "d": 197.29649166666786,
      "v": 53
    },
    {
      "midi": 43,
      "hit": false,
      "t": 39567.40599999997,
      "d": 631.0785041666677,
      "v": 54
    },
    {
      "midi": 61,
      "hit": false,
      "t": 39567.40599999998,
      "d": 328.3770374999949,
      "v": 60
    },
    {
      "midi": 61,
      "hit": false,
      "t": 39567.405999999995,
      "d": 324.3229999999967,
      "v": 45
    },
    {
      "midi": 50,
      "hit": false,
      "t": 39891.72899999998,
      "d": 2174.31544583333,
      "v": 62
    },
    {
      "midi": 59,
      "hit": false,
      "t": 39891.72899999998,
      "d": 309.4581958333292,
      "v": 50
    },
    {
      "midi": 55,
      "hit": false,
      "t": 39891.72899999998,
      "d": 321.6203083333312,
      "v": 29
    },
    {
      "midi": 62,
      "hit": false,
      "t": 39891.72899999998,
      "d": 972.9689999999973,
      "v": 56
    },
    {
      "midi": 62,
      "hit": false,
      "t": 39891.72899999999,
      "d": 1121.6170416666646,
      "v": 48
    },
    {
      "midi": 38,
      "hit": false,
      "t": 40216.051999999974,
      "d": 355.40395416666433,
      "v": 50
    },
    {
      "midi": 57,
      "hit": false,
      "t": 40540.37499999998,
      "d": 324.3229999999967,
      "v": 50
    },
    {
      "midi": 59,
      "hit": false,
      "t": 40540.37499999998,
      "d": 324.3229999999967,
      "v": 54
    },
    {
      "midi": 43,
      "hit": false,
      "t": 40864.697999999975,
      "d": 340.5391499999969,
      "v": 56
    },
    {
      "midi": 61,
      "hit": false,
      "t": 41189.02099999997,
      "d": 333.78242083333316,
      "v": 25
    },
    {
      "midi": 58,
      "hit": false,
      "t": 41189.02099999997,
      "d": 335.1337666666659,
      "v": 41
    },
    {
      "midi": 66,
      "hit": false,
      "t": 41189.02099999997,
      "d": 352.70126249999885,
      "v": 48
    },
    {
      "midi": 66,
      "hit": false,
      "t": 41189.02099999999,
      "d": 347.2958791666606,
      "v": 65
    },
    {
      "midi": 38,
      "hit": false,
      "t": 41513.34399999997,
      "d": 325.6743458333367,
      "v": 60
    },
    {
      "midi": 62,
      "hit": false,
      "t": 41513.34399999997,
      "d": 278.37724166666885,
      "v": 56
    },
    {
      "midi": 67,
      "hit": false,
      "t": 41513.34399999997,
      "d": 286.4853166666653,
      "v": 60
    },
    {
      "midi": 59,
      "hit": false,
      "t": 41513.34399999997,
      "d": 320.26896249999845,
      "v": 50
    },
    {
      "midi": 67,
      "hit": false,
      "t": 41513.34399999999,
      "d": 336.48511249999865,
      "v": 68
    },
    {
      "midi": 69,
      "hit": false,
      "t": 41837.666999999965,
      "d": 321.6203083333312,
      "v": 54
    },
    {
      "midi": 66,
      "hit": false,
      "t": 41837.666999999965,
      "d": 322.97165416666394,
      "v": 58
    },
    {
      "midi": 62,
      "hit": false,
      "t": 41837.666999999965,
      "d": 325.6743458333294,
      "v": 61
    },
    {
      "midi": 69,
      "hit": false,
      "t": 41837.66699999999,
      "d": 333.78242083334044,
      "v": 64
    },
    {
      "midi": 71,
      "hit": false,
      "t": 42161.98999999996,
      "d": 1968.9108791666586,
      "v": 76
    },
    {
      "midi": 43,
      "hit": false,
      "t": 42161.989999999976,
      "d": 647.2946541666679,
      "v": 56
    },
    {
      "midi": 71,
      "hit": false,
      "t": 42161.98999999999,
      "d": 2056.748358333338,
      "v": 66
    },
    {
      "midi": 62,
      "hit": false,
      "t": 42486.31299999996,
      "d": 335.1337666666659,
      "v": 44
    },
    {
      "midi": 59,
      "hit": false,
      "t": 42486.31299999996,
      "d": 339.18780416666414,
      "v": 48
    },
    {
      "midi": 67,
      "hit": false,
      "t": 42486.31299999996,
      "d": 341.8904958333296,
      "v": 45
    },
    {
      "midi": 53,
      "hit": false,
      "t": 42810.63599999998,
      "d": 679.7269541666683,
      "v": 64
    },
    {
      "midi": 59,
      "hit": false,
      "t": 43134.95899999995,
      "d": 310.80954166666925,
      "v": 24
    },
    {
      "midi": 62,
      "hit": false,
      "t": 43134.95899999995,
      "d": 316.2149250000002,
      "v": 48
    },
    {
      "midi": 67,
      "hit": false,
      "t": 43134.95899999995,
      "d": 317.56627083333296,
      "v": 30
    },
    {
      "midi": 52,
      "hit": false,
      "t": 43459.28199999998,
      "d": 635.1325416666659,
      "v": 56
    },
    {
      "midi": 64,
      "hit": false,
      "t": 43783.60499999995,
      "d": 325.6743458333367,
      "v": 38
    },
    {
      "midi": 59,
      "hit": false,
      "t": 43783.60499999995,
      "d": 355.40395416666433,
      "v": 51
    },
    {
      "midi": 67,
      "hit": false,
      "t": 43783.60499999995,
      "d": 466.21431250000023,
      "v": 38
    },
    {
      "midi": 51,
      "hit": false,
      "t": 44107.92799999998,
      "d": 649.9973458333334,
      "v": 58
    },
    {
      "midi": 60,
      "hit": false,
      "t": 44432.25099999995,
      "d": 304.05281249999825,
      "v": 68
    },
    {
      "midi": 67,
      "hit": false,
      "t": 44432.25099999995,
      "d": 306.75550416666374,
      "v": 60
    },
    {
      "midi": 72,
      "hit": false,
      "t": 44432.25099999995,
      "d": 308.1068499999965,
      "v": 68
    },
    {
      "midi": 72,
      "hit": false,
      "t": 44432.251,
      "d": 333.78242083333316,
      "v": 84
    },
    {
      "midi": 74,
      "hit": false,
      "t": 44756.57399999995,
      "d": 327.02569166666217,
      "v": 70
    },
    {
      "midi": 67,
      "hit": false,
      "t": 44756.57399999995,
      "d": 583.7813999999926,
      "v": 59
    },
    {
      "midi": 62,
      "hit": false,
      "t": 44756.57399999995,
      "d": 639.1865791666642,
      "v": 72
    },
    {
      "midi": 50,
      "hit": false,
      "t": 44756.57399999998,
      "d": 645.9433083333352,
      "v": 25
    },
    {
      "midi": 59,
      "hit": false,
      "t": 44756.57399999998,
      "d": 655.4027291666644,
      "v": 44
    },
    {
      "midi": 74,
      "hit": false,
      "t": 44756.57399999999,
      "d": 327.02569166666945,
      "v": 79
    },
    {
      "midi": 71,
      "hit": false,
      "t": 45080.896999999946,
      "d": 286.4853166666653,
      "v": 63
    },
    {
      "midi": 71,
      "hit": false,
      "t": 45080.897,
      "d": 274.32320416666334,
      "v": 55
    },
    {
      "midi": 71,
      "hit": false,
      "t": 45405.21999999995,
      "d": 220.26937083333178,
      "v": 70
    },
    {
      "midi": 66,
      "hit": false,
      "t": 45405.21999999995,
      "d": 609.4569708333365,
      "v": 61
    },
    {
      "midi": 59,
      "hit": false,
      "t": 45405.21999999995,
      "d": 612.159662500002,
      "v": 54
    },
    {
      "midi": 39,
      "hit": false,
      "t": 45405.21999999998,
      "d": 666.2134958333336,
      "v": 24
    },
    {
      "midi": 51,
      "hit": false,
      "t": 45405.21999999998,
      "d": 667.5648416666663,
      "v": 54
    },
    {
      "midi": 71,
      "hit": false,
      "t": 45405.219999999994,
      "d": 262.16109166666865,
      "v": 66
    },
    {
      "midi": 71,
      "hit": false,
      "t": 45729.54299999995,
      "d": 259.45840000000317,
      "v": 56
    },
    {
      "midi": 71,
      "hit": false,
      "t": 45729.543,
      "d": 278.37724166666885,
      "v": 79
    },
    {
      "midi": 71,
      "hit": false,
      "t": 46053.86599999995,
      "d": 331.0797291666604,
      "v": 68
    },
    {
      "midi": 62,
      "hit": false,
      "t": 46053.86599999995,
      "d": 933.7799708333259,
      "v": 44
    },
    {
      "midi": 59,
      "hit": false,
      "t": 46053.86599999995,
      "d": 951.3474666666589,
      "v": 55
    },
    {
      "midi": 52,
      "hit": false,
      "t": 46053.86599999998,
      "d": 868.9153708333324,
      "v": 52
    },
    {
      "midi": 40,
      "hit": false,
      "t": 46053.86599999998,
      "d": 1293.2379624999958,
      "v": 59
    },
    {
      "midi": 71,
      "hit": false,
      "t": 46053.866,
      "d": 343.24184166666237,
      "v": 76
    },
    {
      "midi": 67,
      "hit": false,
      "t": 46378.18899999995,
      "d": 227.0260999999955,
      "v": 46
    },
    {
      "midi": 67,
      "hit": false,
      "t": 46378.189,
      "d": 228.3774458333355,
      "v": 52
    },
    {
      "midi": 67,
      "hit": false,
      "t": 46702.511999999944,
      "d": 249.9989791666667,
      "v": 55
    },
    {
      "midi": 67,
      "hit": false,
      "t": 46702.512,
      "d": 343.24184166666237,
      "v": 57
    },
    {
      "midi": 67,
      "hit": false,
      "t": 47026.83499999994,
      "d": 314.8635791666675,
      "v": 53
    },
    {
      "midi": 62,
      "hit": false,
      "t": 47026.83499999994,
      "d": 316.2149250000002,
      "v": 66
    },
    {
      "midi": 71,
      "hit": false,
      "t": 47026.83499999994,
      "d": 316.2149250000002,
      "v": 71
    },
    {
      "midi": 52,
      "hit": false,
      "t": 47026.83499999998,
      "d": 328.3770374999949,
      "v": 64
    },
    {
      "midi": 71,
      "hit": false,
      "t": 47026.835,
      "d": 336.48511249999865,
      "v": 79
    },
    {
      "midi": 72,
      "hit": false,
      "t": 47351.15799999994,
      "d": 328.3770374999949,
      "v": 68
    },
    {
      "midi": 64,
      "hit": false,
      "t": 47351.15799999994,
      "d": 970.2663083333246,
      "v": 62
    },
    {
      "midi": 55,
      "hit": false,
      "t": 47351.157999999974,
      "d": 331.0797291666604,
      "v": 63
    },
    {
      "midi": 45,
      "hit": false,
      "t": 47351.157999999974,
      "d": 993.2391874999885,
      "v": 46
    },
    {
      "midi": 72,
      "hit": false,
      "t": 47351.157999999996,
      "d": 343.24184166666964,
      "v": 67
    },
    {
      "midi": 71,
      "hit": false,
      "t": 47675.480999999934,
      "d": 324.3229999999967,
      "v": 72
    },
    {
      "midi": 56,
      "hit": false,
      "t": 47675.48099999997,
      "d": 332.43107499999314,
      "v": 60
    },
    {
      "midi": 71,
      "hit": false,
      "t": 47675.481,
      "d": 333.78242083333316,
      "v": 74
    },
    {
      "midi": 72,
      "hit": false,
      "t": 47999.80399999993,
      "d": 314.8635791666675,
      "v": 63
    },
    {
      "midi": 57,
      "hit": false,
      "t": 47999.80399999997,
      "d": 337.8364583333314,
      "v": 58
    },
    {
      "midi": 72,
      "hit": false,
      "t": 47999.804,
      "d": 348.6472250000006,
      "v": 82
    },
    {
      "midi": 67,
      "hit": false,
      "t": 48324.12699999993,
      "d": 275.67455000000336,
      "v": 62
    },
    {
      "midi": 73,
      "hit": false,
      "t": 48324.12699999993,
      "d": 275.67455000000336,
      "v": 60
    },
    {
      "midi": 61,
      "hit": false,
      "t": 48324.12699999993,
      "d": 332.4310750000004,
      "v": 53
    },
    {
      "midi": 58,
      "hit": false,
      "t": 48324.126999999964,
      "d": 343.24184166666237,
      "v": 63
    },
    {
      "midi": 51,
      "hit": false,
      "t": 48324.126999999964,
      "d": 358.1066458333298,
      "v": 54
    },
    {
      "midi": 73,
      "hit": false,
      "t": 48324.127,
      "d": 333.78242083333316,
      "v": 75
    },
    {
      "midi": 67,
      "hit": false,
      "t": 48648.44999999993,
      "d": 916.212474999993,
      "v": 48
    },
    {
      "midi": 74,
      "hit": false,
      "t": 48648.44999999993,
      "d": 918.9151666666585,
      "v": 59
    },
    {
      "midi": 62,
      "hit": false,
      "t": 48648.44999999993,
      "d": 972.96899999999,
      "v": 63
    },
    {
      "midi": 50,
      "hit": false,
      "t": 48648.44999999996,
      "d": 958.1041958333299,
      "v": 56
    },
    {
      "midi": 59,
      "hit": false,
      "t": 48648.44999999996,
      "d": 958.1041958333299,
      "v": 67
    },
    {
      "midi": 74,
      "hit": false,
      "t": 48648.45,
      "d": 763.5103958333348,
      "v": 74
    },
    {
      "midi": 72,
      "hit": false,
      "t": 49621.41899999992,
      "d": 305.404158333331,
      "v": 67
    },
    {
      "midi": 63,
      "hit": false,
      "t": 49621.41899999992,
      "d": 312.1608874999947,
      "v": 29
    },
    {
      "midi": 67,
      "hit": false,
      "t": 49621.41899999992,
      "d": 312.1608874999947,
      "v": 52
    },
    {
      "midi": 45,
      "hit": false,
      "t": 49621.41899999996,
      "d": 316.2149250000002,
      "v": 48
    },
    {
      "midi": 57,
      "hit": false,
      "t": 49621.41899999996,
      "d": 328.3770374999949,
      "v": 56
    },
    {
      "midi": 72,
      "hit": false,
      "t": 49621.419,
      "d": 360.8093374999953,
      "v": 74
    },
    {
      "midi": 62,
      "hit": false,
      "t": 49945.74199999992,
      "d": 209.45860416666983,
      "v": 55
    },
    {
      "midi": 67,
      "hit": false,
      "t": 49945.74199999992,
      "d": 241.89090416667023,
      "v": 44
    },
    {
      "midi": 71,
      "hit": false,
      "t": 49945.74199999992,
      "d": 355.4039541666716,
      "v": 55
    },
    {
      "midi": 50,
      "hit": false,
      "t": 49945.741999999955,
      "d": 2545.935550000002,
      "v": 58
    },
    {
      "midi": 71,
      "hit": false,
      "t": 49945.742,
      "d": 306.75550416666374,
      "v": 73
    },
    {
      "midi": 59,
      "hit": false,
      "t": 50270.06499999992,
      "d": 264.86378333333414,
      "v": 36
    },
    {
      "midi": 62,
      "hit": false,
      "t": 50270.06499999992,
      "d": 264.86378333333414,
      "v": 32
    },
    {
      "midi": 67,
      "hit": false,
      "t": 50270.06499999992,
      "d": 267.5664749999996,
      "v": 46
    },
    {
      "midi": 67,
      "hit": false,
      "t": 50270.064999999995,
      "d": 209.45860416666983,
      "v": 48
    },
    {
      "midi": 62,
      "hit": false,
      "t": 50594.38799999992,
      "d": 267.5664749999996,
      "v": 41
    },
    {
      "midi": 59,
      "hit": false,
      "t": 50594.38799999992,
      "d": 274.32320416666334,
      "v": 35
    },
    {
      "midi": 67,
      "hit": false,
      "t": 50594.38799999992,
      "d": 287.83666249999806,
      "v": 44
    },
    {
      "midi": 38,
      "hit": false,
      "t": 50594.387999999955,
      "d": 541.8896791666702,
      "v": 56
    },
    {
      "midi": 67,
      "hit": false,
      "t": 50594.388,
      "d": 333.78242083333316,
      "v": 62
    },
    {
      "midi": 60,
      "hit": false,
      "t": 50918.710999999916,
      "d": 285.13397083333257,
      "v": 44
    },
    {
      "midi": 69,
      "hit": false,
      "t": 50918.710999999916,
      "d": 290.53935416666354,
      "v": 64
    },
    {
      "midi": 62,
      "hit": false,
      "t": 50918.710999999916,
      "d": 295.9447374999945,
      "v": 48
    },
    {
      "midi": 69,
      "hit": false,
      "t": 50918.710999999996,
      "d": 297.29608333333454,
      "v": 59
    },
    {
      "midi": 62,
      "hit": false,
      "t": 51243.03399999991,
      "d": 175.6749583333367,
      "v": 53
    },
    {
      "midi": 67,
      "hit": false,
      "t": 51243.03399999991,
      "d": 233.7828291666665,
      "v": 50
    },
    {
      "midi": 71,
      "hit": false,
      "t": 51243.03399999991,
      "d": 366.21472083333356,
      "v": 67
    },
    {
      "midi": 38,
      "hit": false,
      "t": 51243.033999999956,
      "d": 501.3493041666661,
      "v": 45
    },
    {
      "midi": 71,
      "hit": false,
      "t": 51243.034,
      "d": 321.6203083333312,
      "v": 71
    },
    {
      "midi": 67,
      "hit": false,
      "t": 51567.35699999991,
      "d": 306.755504166671,
      "v": 48
    },
    {
      "midi": 59,
      "hit": false,
      "t": 51567.35699999991,
      "d": 324.32300000000396,
      "v": 34
    },
    {
      "midi": 62,
      "hit": false,
      "t": 51567.35699999991,
      "d": 339.1878041666714,
      "v": 56
    },
    {
      "midi": 67,
      "hit": false,
      "t": 51567.356999999996,
      "d": 352.70126249999885,
      "v": 60
    },
    {
      "midi": 60,
      "hit": false,
      "t": 51891.67999999991,
      "d": 255.40436249999766,
      "v": 62
    },
    {
      "midi": 66,
      "hit": false,
      "t": 51891.67999999991,
      "d": 260.80974583332863,
      "v": 42
    },
    {
      "midi": 69,
      "hit": false,
      "t": 51891.67999999991,
      "d": 632.4298499999932,
      "v": 62
    },
    {
      "midi": 38,
      "hit": false,
      "t": 51891.67999999996,
      "d": 494.5925750000024,
      "v": 57
    },
    {
      "midi": 69,
      "hit": false,
      "t": 51891.67999999999,
      "d": 683.7809916666665,
      "v": 44
    },
    {
      "midi": 66,
      "hit": false,
      "t": 52216.00299999991,
      "d": 301.35012083333277,
      "v": 40
    },
    {
      "midi": 60,
      "hit": false,
      "t": 52216.00299999991,
      "d": 304.05281249999825,
      "v": 43
    },
    {
      "midi": 67,
      "hit": false,
      "t": 52540.325999999906,
      "d": 1991.8837583333225,
      "v": 44
    },
    {
      "midi": 43,
      "hit": false,
      "t": 52540.32599999996,
      "d": 494.5925750000024,
      "v": 48
    },
    {
      "midi": 50,
      "hit": false,
      "t": 52540.32599999996,
      "d": 2455.395379166672,
      "v": 51
    },
    {
      "midi": 67,
      "hit": false,
      "t": 52540.325999999994,
      "d": 2014.856637500001,
      "v": 52
    },
    {
      "midi": 62,
      "hit": false,
      "t": 52864.6489999999,
      "d": 316.2149250000002,
      "v": 43
    },
    {
      "midi": 64,
      "hit": false,
      "t": 52864.6489999999,
      "d": 324.3229999999967,
      "v": 35
    },
    {
      "midi": 59,
      "hit": false,
      "t": 52864.6489999999,
      "d": 341.8904958333296,
      "v": 43
    },
    {
      "midi": 38,
      "hit": false,
      "t": 53188.97199999996,
      "d": 497.2952666666679,
      "v": 51
    },
    {
      "midi": 59,
      "hit": false,
      "t": 53513.2949999999,
      "d": 329.72838333333493,
      "v": 27
    },
    {
      "midi": 62,
      "hit": false,
      "t": 53513.2949999999,
      "d": 332.4310750000004,
      "v": 39
    },
    {
      "midi": 64,
      "hit": false,
      "t": 53513.2949999999,
      "d": 337.8364583333314,
      "v": 33
    },
    {
      "midi": 43,
      "hit": false,
      "t": 53837.61799999996,
      "d": 487.8358458333314,
      "v": 45
    },
    {
      "midi": 62,
      "hit": false,
      "t": 54161.9409999999,
      "d": 329.72838333333493,
      "v": 37
    },
    {
      "midi": 64,
      "hit": false,
      "t": 54161.9409999999,
      "d": 331.0797291666677,
      "v": 27
    },
    {
      "midi": 59,
      "hit": false,
      "t": 54161.9409999999,
      "d": 336.48511249999865,
      "v": 49
    },
    {
      "midi": 38,
      "hit": false,
      "t": 54486.26399999996,
      "d": 513.5114166666681,
      "v": 38
    },
    {
      "midi": 59,
      "hit": false,
      "t": 54810.5869999999,
      "d": 321.6203083333312,
      "v": 50
    },
    {
      "midi": 55,
      "hit": false,
      "t": 54810.5869999999,
      "d": 333.78242083333316,
      "v": 50
    },
    {
      "midi": 62,
      "hit": false,
      "t": 54810.5869999999,
      "d": 336.48511249999865,
      "v": 48
    },
    {
      "midi": 62,
      "hit": false,
      "t": 54810.58699999999,
      "d": 324.3229999999967,
      "v": 56
    },
    {
      "midi": 61,
      "hit": false,
      "t": 55134.909999999894,
      "d": 314.8635791666675,
      "v": 54
    },
    {
      "midi": 45,
      "hit": false,
      "t": 55134.90999999996,
      "d": 467.565658333333,
      "v": 34
    },
    {
      "midi": 50,
      "hit": false,
      "t": 55134.90999999996,
      "d": 879.7261375000016,
      "v": 54
    },
    {
      "midi": 61,
      "hit": false,
      "t": 55134.90999999999,
      "d": 329.72838333332766,
      "v": 55
    },
    {
      "midi": 60,
      "hit": false,
      "t": 55459.2329999999,
      "d": 425.6739375000034,
      "v": 44
    },
    {
      "midi": 54,
      "hit": false,
      "t": 55459.2329999999,
      "d": 435.13335833333986,
      "v": 40
    },
    {
      "midi": 62,
      "hit": false,
      "t": 55459.2329999999,
      "d": 1808.1007250000039,
      "v": 30
    },
    {
      "midi": 62,
      "hit": false,
      "t": 55459.232999999986,
      "d": 1772.9657333333307,
      "v": 54
    },
    {
      "midi": 38,
      "hit": false,
      "t": 55783.55599999996,
      "d": 416.21451666667417,
      "v": 44
    },
    {
      "midi": 54,
      "hit": false,
      "t": 56107.878999999906,
      "d": 370.2687583333318,
      "v": 26
    },
    {
      "midi": 60,
      "hit": false,
      "t": 56107.878999999906,
      "d": 375.67414166666276,
      "v": 28
    },
    {
      "midi": 50,
      "hit": false,
      "t": 56107.878999999964,
      "d": 322.9716541666712,
      "v": 60
    },
    {
      "midi": 49,
      "hit": false,
      "t": 56432.20199999997,
      "d": 327.02569166666217,
      "v": 53
    },
    {
      "midi": 60,
      "hit": false,
      "t": 56756.5249999999,
      "d": 347.2958791666679,
      "v": 30
    },
    {
      "midi": 54,
      "hit": false,
      "t": 56756.5249999999,
      "d": 348.6472250000006,
      "v": 22
    },
    {
      "midi": 50,
      "hit": false,
      "t": 56756.524999999965,
      "d": 354.0526083333316,
      "v": 49
    },
    {
      "midi": 38,
      "hit": false,
      "t": 57080.84799999996,
      "d": 644.5919625000024,
      "v": 56
    },
    {
      "midi": 62,
      "hit": false,
      "t": 57405.1709999999,
      "d": 314.8635791666675,
      "v": 61
    },
    {
      "midi": 60,
      "hit": false,
      "t": 57405.1709999999,
      "d": 335.1337666666732,
      "v": 43
    },
    {
      "midi": 54,
      "hit": false,
      "t": 57405.1709999999,
      "d": 343.24184166666964,
      "v": 38
    },
    {
      "midi": 50,
      "hit": false,
      "t": 57405.170999999966,
      "d": 256.7557083333304,
      "v": 67
    },
    {
      "midi": 62,
      "hit": false,
      "t": 57405.17099999998,
      "d": 312.160887500002,
      "v": 67
    },
    {
      "midi": 61,
      "hit": false,
      "t": 57729.493999999904,
      "d": 322.97165416666394,
      "v": 54
    },
    {
      "midi": 43,
      "hit": false,
      "t": 57729.49399999996,
      "d": 506.7546874999971,
      "v": 48
    },
    {
      "midi": 50,
      "hit": false,
      "t": 57729.49399999996,
      "d": 883.7801749999999,
      "v": 59
    },
    {
      "midi": 61,
      "hit": false,
      "t": 57729.493999999984,
      "d": 314.8635791666675,
      "v": 51
    },
    {
      "midi": 55,
      "hit": false,
      "t": 58053.8169999999,
      "d": 325.6743458333367,
      "v": 34
    },
    {
      "midi": 59,
      "hit": false,
      "t": 58053.8169999999,
      "d": 325.6743458333367,
      "v": 27
    },
    {
      "midi": 62,
      "hit": false,
      "t": 58053.8169999999,
      "d": 1816.2088000000003,
      "v": 48
    },
    {
      "midi": 62,
      "hit": false,
      "t": 58053.81699999999,
      "d": 1770.2630416666652,
      "v": 54
    },
    {
      "midi": 38,
      "hit": false,
      "t": 58378.13999999996,
      "d": 654.0513833333243,
      "v": 52
    },
    {
      "midi": 59,
      "hit": false,
      "t": 58702.4629999999,
      "d": 160.81015416666924,
      "v": 25
    },
    {
      "midi": 55,
      "hit": false,
      "t": 58702.4629999999,
      "d": 162.16150000000198,
      "v": 25
    },
    {
      "midi": 50,
      "hit": false,
      "t": 58702.46299999996,
      "d": 320.26896249999845,
      "v": 65
    },
    {
      "midi": 57,
      "hit": false,
      "t": 59026.785999999905,
      "d": 187.83707083333138,
      "v": 29
    },
    {
      "midi": 54,
      "hit": false,
      "t": 59026.785999999905,
      "d": 222.97206249999726,
      "v": 31
    },
    {
      "midi": 52,
      "hit": false,
      "t": 59026.78599999996,
      "d": 321.6203083333312,
      "v": 57
    },
    {
      "midi": 59,
      "hit": false,
      "t": 59351.1089999999,
      "d": 493.24122916666965,
      "v": 33
    },
    {
      "midi": 55,
      "hit": false,
      "t": 59351.1089999999,
      "d": 495.94392083333514,
      "v": 33
    },
    {
      "midi": 50,
      "hit": false,
      "t": 59351.10899999995,
      "d": 321.6203083333312,
      "v": 54
    },
    {
      "midi": 38,
      "hit": false,
      "t": 59675.43199999995,
      "d": 647.2946541666606,
      "v": 53
    },
    {
      "midi": 62,
      "hit": false,
      "t": 59999.7549999999,
      "d": 320.26896249999845,
      "v": 59
    },
    {
      "midi": 59,
      "hit": false,
      "t": 59999.7549999999,
      "d": 359.45799166666256,
      "v": 45
    },
    {
      "midi": 55,
      "hit": false,
      "t": 59999.7549999999,
      "d": 362.16068333332805,
      "v": 45
    },
    {
      "midi": 50,
      "hit": false,
      "t": 59999.75499999995,
      "d": 328.3770374999949,
      "v": 57
    },
    {
      "midi": 62,
      "hit": false,
      "t": 59999.75499999999,
      "d": 318.9176166666657,
      "v": 64
    },
    {
      "midi": 61,
      "hit": false,
      "t": 60324.0779999999,
      "d": 310.80954166666197,
      "v": 51
    },
    {
      "midi": 45,
      "hit": false,
      "t": 60324.07799999994,
      "d": 663.5108041666681,
      "v": 47
    },
    {
      "midi": 61,
      "hit": false,
      "t": 60324.07799999999,
      "d": 316.2149250000002,
      "v": 59
    },
    {
      "midi": 60,
      "hit": false,
      "t": 60648.400999999896,
      "d": 479.72777083333494,
      "v": 34
    },
    {
      "midi": 54,
      "hit": false,
      "t": 60648.400999999896,
      "d": 482.43046250000043,
      "v": 21
    },
    {
      "midi": 62,
      "hit": false,
      "t": 60648.400999999896,
      "d": 493.24122916666965,
      "v": 44
    },
    {
      "midi": 62,
      "hit": false,
      "t": 60648.40099999998,
      "d": 498.64661250000063,
      "v": 61
    },
    {
      "midi": 50,
      "hit": false,
      "t": 60972.723999999944,
      "d": 564.8625583333342,
      "v": 61
    },
    {
      "midi": 54,
      "hit": false,
      "t": 61297.0469999999,
      "d": 199.99918333333335,
      "v": 36
    },
    {
      "midi": 60,
      "hit": false,
      "t": 61297.0469999999,
      "d": 202.70187499999884,
      "v": 48
    },
    {
      "midi": 62,
      "hit": false,
      "t": 61297.0469999999,
      "d": 306.75550416666374,
      "v": 51
    },
    {
      "midi": 62,
      "hit": false,
      "t": 61297.046999999984,
      "d": 325.6743458333294,
      "v": 67
    },
    {
      "midi": 60,
      "hit": false,
      "t": 61621.36999999989,
      "d": 624.3217749999967,
      "v": 57
    },
    {
      "midi": 64,
      "hit": false,
      "t": 61621.36999999989,
      "d": 624.3217749999967,
      "v": 52
    },
    {
      "midi": 69,
      "hit": false,
      "t": 61621.36999999989,
      "d": 627.0244666666622,
      "v": 56
    },
    {
      "midi": 55,
      "hit": false,
      "t": 61621.369999999944,
      "d": 649.9973458333334,
      "v": 48
    },
    {
      "midi": 50,
      "hit": false,
      "t": 61621.369999999944,
      "d": 654.0513833333316,
      "v": 44
    },
    {
      "midi": 69,
      "hit": false,
      "t": 61621.36999999998,
      "d": 656.7540749999971,
      "v": 63
    },
    {
      "midi": 71,
      "hit": false,
      "t": 62270.01599999989,
      "d": 605.402933333331,
      "v": 48
    },
    {
      "midi": 63,
      "hit": false,
      "t": 62270.01599999989,
      "d": 610.808316666662,
      "v": 40
    },
    {
      "midi": 66,
      "hit": false,
      "t": 62270.01599999989,
      "d": 612.1596624999947,
      "v": 41
    },
    {
      "midi": 60,
      "hit": false,
      "t": 62270.01599999989,
      "d": 616.213699999993,
      "v": 47
    },
    {
      "midi": 38,
      "hit": false,
      "t": 62270.015999999945,
      "d": 632.4298499999932,
      "v": 56
    },
    {
      "midi": 54,
      "hit": false,
      "t": 62270.015999999945,
      "d": 632.4298499999932,
      "v": 59
    },
    {
      "midi": 71,
      "hit": false,
      "t": 62270.01599999998,
      "d": 605.402933333331,
      "v": 62
    },
    {
      "midi": 43,
      "hit": false,
      "t": 62865.95951249994,
      "d": 2608.09745833333,
      "v": 33
    },
    {
      "midi": 50,
      "hit": false,
      "t": 62897.04046666661,
      "d": 2577.0165041666623,
      "v": 47
    },
    {
      "midi": 79,
      "hit": false,
      "t": 62918.66199999988,
      "d": 106.75632083333039,
      "v": 60
    },
    {
      "midi": 52,
      "hit": false,
      "t": 62918.66199999994,
      "d": 2549.9895875,
      "v": 30
    },
    {
      "midi": 67,
      "hit": false,
      "t": 62918.66199999998,
      "d": 1298.643345833334,
      "v": 47
    },
    {
      "midi": 59,
      "hit": false,
      "t": 62924.06738333327,
      "d": 2543.2328583333365,
      "v": 49
    },
    {
      "midi": 81,
      "hit": false,
      "t": 63026.76966666654,
      "d": 120.2697791666651,
      "v": 54
    },
    {
      "midi": 79,
      "hit": false,
      "t": 63134.87733333321,
      "d": 114.86439583333413,
      "v": 46
    },
    {
      "midi": 76,
      "hit": false,
      "t": 63242.98499999988,
      "d": 171.62092083333118,
      "v": 57
    },
    {
      "midi": 74,
      "hit": false,
      "t": 63405.14649999987,
      "d": 160.81015416666924,
      "v": 63
    },
    {
      "midi": 71,
      "hit": false,
      "t": 63567.30799999987,
      "d": 171.62092083333846,
      "v": 58
    },
    {
      "midi": 69,
      "hit": false,
      "t": 63729.469499999876,
      "d": 174.32361250000395,
      "v": 52
    },
    {
      "midi": 67,
      "hit": false,
      "t": 63891.63099999988,
      "d": 163.51284583333472,
      "v": 58
    },
    {
      "midi": 64,
      "hit": false,
      "t": 64053.79249999988,
      "d": 148.64804166666727,
      "v": 38
    },
    {
      "midi": 62,
      "hit": false,
      "t": 64217.305345833214,
      "d": 514.8627625000008,
      "v": 59
    },
    {
      "midi": 59,
      "hit": false,
      "t": 64565.952570833215,
      "d": 943.2393916666697,
      "v": 50
    },
    {
      "midi": 62,
      "hit": false,
      "t": 64882.167495833215,
      "d": 314.8635791666675,
      "v": 48
    },
    {
      "midi": 64,
      "hit": false,
      "t": 65194.32838333322,
      "d": 328.3770375000022,
      "v": 56
    },
    {
      "midi": 62,
      "hit": false,
      "t": 65510.54330833322,
      "d": 1312.156804166676,
      "v": 68
    },
    {
      "midi": 46,
      "hit": false,
      "t": 65513.245999999934,
      "d": 1293.2379624999958,
      "v": 46
    },
    {
      "midi": 56,
      "hit": false,
      "t": 65513.245999999934,
      "d": 1294.5893083333285,
      "v": 48
    },
    {
      "midi": 68,
      "hit": false,
      "t": 65853.78514999988,
      "d": 160.81015416666924,
      "v": 62
    },
    {
      "midi": 72,
      "hit": false,
      "t": 66172.70276666655,
      "d": 149.9993875000073,
      "v": 69
    },
    {
      "midi": 77,
      "hit": false,
      "t": 66488.91769166656,
      "d": 155.40477083333826,
      "v": 63
    },
    {
      "midi": 45,
      "hit": false,
      "t": 66810.53799999993,
      "d": 806.7534624999971,
      "v": 42
    },
    {
      "midi": 55,
      "hit": false,
      "t": 66810.53799999993,
      "d": 818.9155749999918,
      "v": 39
    },
    {
      "midi": 60,
      "hit": false,
      "t": 66818.6460749999,
      "d": 779.7265458333277,
      "v": 67
    },
    {
      "midi": 69,
      "hit": false,
      "t": 67151.0771499999,
      "d": 137.83727499999804,
      "v": 59
    },
    {
      "midi": 71,
      "hit": false,
      "t": 67448.37323333323,
      "d": 139.1886208333308,
      "v": 58
    },
    {
      "midi": 62,
      "hit": false,
      "t": 67778.10161666655,
      "d": 301.35012083333277,
      "v": 52
    },
    {
      "midi": 60,
      "hit": false,
      "t": 67778.10161666655,
      "d": 306.75550416666374,
      "v": 51
    },
    {
      "midi": 54,
      "hit": false,
      "t": 67783.50699999993,
      "d": 294.59339166666905,
      "v": 43
    },
    {
      "midi": 50,
      "hit": false,
      "t": 67783.50699999993,
      "d": 298.6474291666673,
      "v": 51
    },
    {
      "midi": 62,
      "hit": false,
      "t": 67787.56103749998,
      "d": 272.9718583333306,
      "v": 56
    },
    {
      "midi": 61,
      "hit": false,
      "t": 68107.82999999989,
      "d": 336.48511249999865,
      "v": 41
    },
    {
      "midi": 49,
      "hit": false,
      "t": 68107.82999999993,
      "d": 333.78242083333316,
      "v": 49
    },
    {
      "midi": 43,
      "hit": false,
      "t": 68107.82999999993,
      "d": 656.7540749999898,
      "v": 43
    },
    {
      "midi": 61,
      "hit": false,
      "t": 68107.82999999997,
      "d": 164.86419166666747,
      "v": 49
    },
    {
      "midi": 62,
      "hit": false,
      "t": 68269.99149999997,
      "d": 1358.1025625000038,
      "v": 40
    },
    {
      "midi": 59,
      "hit": false,
      "t": 68432.15299999989,
      "d": 501.3493041666661,
      "v": 30
    },
    {
      "midi": 55,
      "hit": false,
      "t": 68432.15299999989,
      "d": 504.0519958333316,
      "v": 24
    },
    {
      "midi": 62,
      "hit": false,
      "t": 68432.15299999989,
      "d": 1218.9139416666585,
      "v": 60
    },
    {
      "midi": 50,
      "hit": false,
      "t": 68432.15299999993,
      "d": 2137.829108333317,
      "v": 59
    },
    {
      "midi": 38,
      "hit": false,
      "t": 68756.47599999992,
      "d": 522.97083749999,
      "v": 58
    },
    {
      "midi": 57,
      "hit": false,
      "t": 69080.79899999988,
      "d": 460.80892916666926,
      "v": 38
    },
    {
      "midi": 59,
      "hit": false,
      "t": 69080.79899999988,
      "d": 462.160275000002,
      "v": 28
    },
    {
      "midi": 43,
      "hit": false,
      "t": 69405.12199999992,
      "d": 497.2952666666679,
      "v": 46
    },
    {
      "midi": 58,
      "hit": false,
      "t": 69729.44499999988,
      "d": 240.5395583333302,
      "v": 45
    },
    {
      "midi": 61,
      "hit": false,
      "t": 69729.44499999988,
      "d": 247.29628749999392,
      "v": 36
    },
    {
      "midi": 66,
      "hit": false,
      "t": 69729.44499999988,
      "d": 322.97165416665666,
      "v": 64
    },
    {
      "midi": 66,
      "hit": false,
      "t": 69729.44499999998,
      "d": 335.1337666666659,
      "v": 68
    },
    {
      "midi": 62,
      "hit": false,
      "t": 70053.76799999987,
      "d": 248.64763333332667,
      "v": 44
    },
    {
      "midi": 59,
      "hit": false,
      "t": 70053.76799999987,
      "d": 318.91761666665843,
      "v": 46
    },
    {
      "midi": 67,
      "hit": false,
      "t": 70053.76799999987,
      "d": 345.94453333332785,
      "v": 66
    },
    {
      "midi": 38,
      "hit": false,
      "t": 70053.76799999992,
      "d": 508.10603333332983,
      "v": 46
    },
    {
      "midi": 67,
      "hit": false,
      "t": 70053.76799999998,
      "d": 333.7824208333186,
      "v": 71
    },
    {
      "midi": 69,
      "hit": false,
      "t": 70378.09099999985,
      "d": 274.3232041666779,
      "v": 64
    },
    {
      "midi": 62,
      "hit": false,
      "t": 70378.09099999985,
      "d": 324.3230000000185,
      "v": 64
    },
    {
      "midi": 66,
      "hit": false,
      "t": 70378.09099999985,
      "d": 325.67434583335125,
      "v": 36
    },
    {
      "midi": 69,
      "hit": false,
      "t": 70378.09099999997,
      "d": 318.91761666665843,
      "v": 53
    },
    {
      "midi": 71,
      "hit": false,
      "t": 70702.41399999987,
      "d": 2120.2616124999913,
      "v": 54
    },
    {
      "midi": 43,
      "hit": false,
      "t": 70702.41399999992,
      "d": 482.43046249999315,
      "v": 60
    },
    {
      "midi": 50,
      "hit": false,
      "t": 70702.41399999992,
      "d": 2586.475925000006,
      "v": 50
    },
    {
      "midi": 71,
      "hit": false,
      "t": 70702.41399999996,
      "d": 2116.207574999993,
      "v": 41
    },
    {
      "midi": 62,
      "hit": false,
      "t": 71026.73699999988,
      "d": 494.5925750000024,
      "v": 15
    },
    {
      "midi": 64,
      "hit": false,
      "t": 71026.73699999988,
      "d": 502.70064999999886,
      "v": 44
    },
    {
      "midi": 67,
      "hit": false,
      "t": 71026.73699999988,
      "d": 504.0519958333316,
      "v": 35
    },
    {
      "midi": 38,
      "hit": false,
      "t": 71351.05999999991,
      "d": 491.8898833333369,
      "v": 55
    },
    {
      "midi": 64,
      "hit": false,
      "t": 71675.38299999987,
      "d": 495.94392083333514,
      "v": 40
    },
    {
      "midi": 62,
      "hit": false,
      "t": 71675.38299999987,
      "d": 508.10603333332983,
      "v": 40
    },
    {
      "midi": 67,
      "hit": false,
      "t": 71675.38299999987,
      "d": 509.4573791666626,
      "v": 38
    },
    {
      "midi": 43,
      "hit": false,
      "t": 71999.70599999992,
      "d": 460.80892916666926,
      "v": 52
    },
    {
      "midi": 62,
      "hit": false,
      "t": 72324.02899999986,
      "d": 467.565658333333,
      "v": 43
    },
    {
      "midi": 64,
      "hit": false,
      "t": 72324.02899999986,
      "d": 475.67373333332944,
      "v": 36
    },
    {
      "midi": 67,
      "hit": false,
      "t": 72324.02899999986,
      "d": 478.3764249999949,
      "v": 36
    },
    {
      "midi": 38,
      "hit": false,
      "t": 72648.35199999993,
      "d": 475.67373333332944,
      "v": 55
    },
    {
      "midi": 66,
      "hit": false,
      "t": 72972.67499999987,
      "d": 268.91782083333237,
      "v": 16
    },
    {
      "midi": 69,
      "hit": false,
      "t": 72972.67499999987,
      "d": 275.6745499999961,
      "v": 54
    },
    {
      "midi": 69,
      "hit": false,
      "t": 72972.67499999996,
      "d": 270.2691666666651,
      "v": 60
    },
    {
      "midi": 69,
      "hit": false,
      "t": 73296.99799999986,
      "d": 324.32300000000396,
      "v": 64
    },
    {
      "midi": 66,
      "hit": false,
      "t": 73296.99799999986,
      "d": 347.29587916667515,
      "v": 58
    },
    {
      "midi": 47,
      "hit": false,
      "t": 73296.99799999992,
      "d": 1297.2920000000013,
      "v": 66
    },
    {
      "midi": 69,
      "hit": false,
      "t": 73296.99799999996,
      "d": 335.1337666666659,
      "v": 56
    },
    {
      "midi": 64,
      "hit": false,
      "t": 73621.32099999987,
      "d": 267.5664749999996,
      "v": 45
    },
    {
      "midi": 67,
      "hit": false,
      "t": 73621.32099999987,
      "d": 267.5664749999996,
      "v": 44
    },
    {
      "midi": 55,
      "hit": false,
      "t": 73621.32099999992,
      "d": 581.0787083333271,
      "v": 44
    },
    {
      "midi": 67,
      "hit": false,
      "t": 73621.32099999997,
      "d": 241.89090416666295,
      "v": 52
    },
    {
      "midi": 67,
      "hit": false,
      "t": 73945.64399999987,
      "d": 336.48511249999865,
      "v": 48
    },
    {
      "midi": 64,
      "hit": false,
      "t": 73945.64399999987,
      "d": 339.18780416666414,
      "v": 39
    },
    {
      "midi": 67,
      "hit": false,
      "t": 73945.64399999996,
      "d": 329.72838333333493,
      "v": 47
    },
    {
      "midi": 66,
      "hit": false,
      "t": 74269.96699999987,
      "d": 267.5664749999996,
      "v": 49
    },
    {
      "midi": 69,
      "hit": false,
      "t": 74269.96699999987,
      "d": 268.91782083333237,
      "v": 41
    },
    {
      "midi": 55,
      "hit": false,
      "t": 74269.96699999992,
      "d": 504.0519958333316,
      "v": 50
    },
    {
      "midi": 69,
      "hit": false,
      "t": 74269.96699999996,
      "d": 266.2151291666669,
      "v": 48
    },
    {
      "midi": 69,
      "hit": false,
      "t": 74594.28999999988,
      "d": 318.917616666673,
      "v": 64
    },
    {
      "midi": 66,
      "hit": false,
      "t": 74594.28999999988,
      "d": 331.0797291666677,
      "v": 64
    },
    {
      "midi": 46,
      "hit": false,
      "t": 74594.28999999992,
      "d": 1305.4000749999832,
      "v": 42
    },
    {
      "midi": 69,
      "hit": false,
      "t": 74594.28999999996,
      "d": 347.29587916667515,
      "v": 54
    },
    {
      "midi": 64,
      "hit": false,
      "t": 74918.61299999988,
      "d": 263.5124375000014,
      "v": 52
    },
    {
      "midi": 67,
      "hit": false,
      "t": 74918.61299999988,
      "d": 263.5124375000014,
      "v": 40
    },
    {
      "midi": 55,
      "hit": false,
      "t": 74918.61299999991,
      "d": 579.7273624999943,
      "v": 56
    },
    {
      "midi": 67,
      "hit": false,
      "t": 74918.61299999997,
      "d": 213.51264166667534,
      "v": 28
    },
    {
      "midi": 64,
      "hit": false,
      "t": 75242.93599999989,
      "d": 282.4312791666598,
      "v": 56
    },
    {
      "midi": 67,
      "hit": false,
      "t": 75242.93599999989,
      "d": 286.48531666665804,
      "v": 55
    },
    {
      "midi": 67,
      "hit": false,
      "t": 75242.93599999997,
      "d": 316.21492499999295,
      "v": 48
    },
    {
      "midi": 66,
      "hit": false,
      "t": 75567.25899999987,
      "d": 299.998775,
      "v": 47
    },
    {
      "midi": 62,
      "hit": false,
      "t": 75567.25899999987,
      "d": 317.56627083334024,
      "v": 47
    },
    {
      "midi": 55,
      "hit": false,
      "t": 75567.2589999999,
      "d": 331.0797291666677,
      "v": 64
    },
    {
      "midi": 66,
      "hit": false,
      "t": 75567.25899999996,
      "d": 260.8097458333359,
      "v": 61
    },
    {
      "midi": 66,
      "hit": false,
      "t": 75891.58199999988,
      "d": 1275.6704666666628,
      "v": 64
    },
    {
      "midi": 45,
      "hit": false,
      "t": 75891.58199999991,
      "d": 481.0791166666604,
      "v": 50
    },
    {
      "midi": 66,
      "hit": false,
      "t": 75891.58199999997,
      "d": 1964.8568416666676,
      "v": 57
    },
    {
      "midi": 60,
      "hit": false,
      "t": 76215.90499999988,
      "d": 214.86398749999353,
      "v": 32
    },
    {
      "midi": 62,
      "hit": false,
      "t": 76215.90499999988,
      "d": 217.56667916665901,
      "v": 28
    },
    {
      "midi": 54,
      "hit": false,
      "t": 76215.90499999988,
      "d": 228.37744583332096,
      "v": 21
    },
    {
      "midi": 62,
      "hit": false,
      "t": 76540.22799999987,
      "d": 224.32340833333728,
      "v": 48
    },
    {
      "midi": 60,
      "hit": false,
      "t": 76540.22799999987,
      "d": 243.24225000001024,
      "v": 40
    },
    {
      "midi": 54,
      "hit": false,
      "t": 76540.22799999987,
      "d": 348.6472250000079,
      "v": 42
    },
    {
      "midi": 38,
      "hit": false,
      "t": 76540.2279999999,
      "d": 502.70064999999886,
      "v": 64
    },
    {
      "midi": 64,
      "hit": false,
      "t": 76864.55099999988,
      "d": 287.83666250000533,
      "v": 45
    },
    {
      "midi": 55,
      "hit": false,
      "t": 76864.55099999988,
      "d": 290.5393541666708,
      "v": 47
    },
    {
      "midi": 60,
      "hit": false,
      "t": 76864.55099999988,
      "d": 290.5393541666708,
      "v": 48
    },
    {
      "midi": 64,
      "hit": false,
      "t": 77188.87399999988,
      "d": 255.40436250000494,
      "v": 64
    },
    {
      "midi": 60,
      "hit": false,
      "t": 77188.87399999988,
      "d": 264.86378333333414,
      "v": 44
    },
    {
      "midi": 55,
      "hit": false,
      "t": 77188.87399999988,
      "d": 283.7826250000071,
      "v": 43
    },
    {
      "midi": 45,
      "hit": false,
      "t": 77188.8739999999,
      "d": 477.0250791666622,
      "v": 57
    },
    {
      "midi": 54,
      "hit": false,
      "t": 77513.19699999988,
      "d": 274.32320416666334,
      "v": 49
    },
    {
      "midi": 64,
      "hit": false,
      "t": 77513.19699999988,
      "d": 277.02589583332883,
      "v": 64
    },
    {
      "midi": 60,
      "hit": false,
      "t": 77513.19699999988,
      "d": 278.3772416666616,
      "v": 62
    },
    {
      "midi": 60,
      "hit": false,
      "t": 77837.51999999987,
      "d": 291.89070000000356,
      "v": 56
    },
    {
      "midi": 64,
      "hit": false,
      "t": 77837.51999999987,
      "d": 298.6474291666673,
      "v": 66
    },
    {
      "midi": 54,
      "hit": false,
      "t": 77837.51999999987,
      "d": 316.2149250000075,
      "v": 54
    },
    {
      "midi": 38,
      "hit": false,
      "t": 77837.51999999989,
      "d": 640.5379249999969,
      "v": 54
    },
    {
      "midi": 64,
      "hit": false,
      "t": 78161.84299999988,
      "d": 316.21492499999295,
      "v": 71
    },
    {
      "midi": 52,
      "hit": false,
      "t": 78161.84299999989,
      "d": 304.05281249999825,
      "v": 68
    },
    {
      "midi": 64,
      "hit": false,
      "t": 78161.84299999996,
      "d": 317.56627083334024,
      "v": 45
    },
    {
      "midi": 63,
      "hit": false,
      "t": 78486.16599999987,
      "d": 327.02569166666945,
      "v": 73
    },
    {
      "midi": 51,
      "hit": false,
      "t": 78486.16599999988,
      "d": 204.05322083333158,
      "v": 53
    },
    {
      "midi": 45,
      "hit": false,
      "t": 78486.16599999988,
      "d": 486.48450000000594,
      "v": 48
    },
    {
      "midi": 63,
      "hit": false,
      "t": 78486.16599999997,
      "d": 325.6743458333367,
      "v": 65
    },
    {
      "midi": 57,
      "hit": false,
      "t": 78810.48899999987,
      "d": 474.3223874999967,
      "v": 62
    },
    {
      "midi": 60,
      "hit": false,
      "t": 78810.48899999987,
      "d": 494.5925750000024,
      "v": 33
    },
    {
      "midi": 64,
      "hit": false,
      "t": 78810.48899999987,
      "d": 1206.7518291666638,
      "v": 55
    },
    {
      "midi": 52,
      "hit": false,
      "t": 78810.48899999988,
      "d": 1183.7789499999926,
      "v": 63
    },
    {
      "midi": 64,
      "hit": false,
      "t": 78810.48899999997,
      "d": 1131.076462500001,
      "v": 59
    },
    {
      "midi": 47,
      "hit": false,
      "t": 79134.81199999989,
      "d": 475.67373333332944,
      "v": 54
    },
    {
      "midi": 62,
      "hit": false,
      "t": 79459.13499999988,
      "d": 341.8904958333296,
      "v": 74
    },
    {
      "midi": 56,
      "hit": false,
      "t": 79459.13499999988,
      "d": 345.94453333332785,
      "v": 48
    },
    {
      "midi": 48,
      "hit": false,
      "t": 79783.45799999988,
      "d": 662.1594583333208,
      "v": 63
    },
    {
      "midi": 56,
      "hit": false,
      "t": 80107.78099999987,
      "d": 331.0797291666677,
      "v": 63
    },
    {
      "midi": 68,
      "hit": false,
      "t": 80107.78099999987,
      "d": 318.917616666673,
      "v": 58
    },
    {
      "midi": 65,
      "hit": false,
      "t": 80107.78099999987,
      "d": 598.6462041666673,
      "v": 63
    },
    {
      "midi": 68,
      "hit": false,
      "t": 80107.78099999997,
      "d": 321.62030833333847,
      "v": 70
    },
    {
      "midi": 57,
      "hit": false,
      "t": 80432.10399999988,
      "d": 329.7283833333204,
      "v": 61
    },
    {
      "midi": 52,
      "hit": false,
      "t": 80432.10399999988,
      "d": 644.5919624999806,
      "v": 67
    },
    {
      "midi": 69,
      "hit": false,
      "t": 80432.10399999988,
      "d": 290.53935416665627,
      "v": 66
    },
    {
      "midi": 69,
      "hit": false,
      "t": 80432.10399999998,
      "d": 340.5391499999969,
      "v": 67
    },
    {
      "midi": 59,
      "hit": false,
      "t": 80756.42699999987,
      "d": 313.51223333332746,
      "v": 40
    },
    {
      "midi": 62,
      "hit": false,
      "t": 80756.42699999987,
      "d": 297.29608333333454,
      "v": 58
    },
    {
      "midi": 68,
      "hit": false,
      "t": 80756.42699999987,
      "d": 301.35012083333277,
      "v": 54
    },
    {
      "midi": 71,
      "hit": false,
      "t": 80756.42699999987,
      "d": 301.35012083333277,
      "v": 57
    },
    {
      "midi": 71,
      "hit": false,
      "t": 80756.42699999998,
      "d": 318.91761666665843,
      "v": 72
    },
    {
      "midi": 57,
      "hit": false,
      "t": 81080.74999999985,
      "d": 677.0242624999955,
      "v": 49
    },
    {
      "midi": 74,
      "hit": false,
      "t": 81080.74999999987,
      "d": 2152.6939124999917,
      "v": 77
    },
    {
      "midi": 74,
      "hit": false,
      "t": 81080.74999999997,
      "d": 2063.5050875000015,
      "v": 75
    },
    {
      "midi": 62,
      "hit": false,
      "t": 81405.07299999987,
      "d": 348.64722499999334,
      "v": 64
    },
    {
      "midi": 68,
      "hit": false,
      "t": 81405.07299999987,
      "d": 349.9985708333261,
      "v": 18
    },
    {
      "midi": 65,
      "hit": false,
      "t": 81405.07299999987,
      "d": 355.40395416665706,
      "v": 61
    },
    {
      "midi": 59,
      "hit": false,
      "t": 81729.39599999985,
      "d": 651.3486916666734,
      "v": 56
    },
    {
      "midi": 68,
      "hit": false,
      "t": 82053.71899999987,
      "d": 349.9985708333261,
      "v": 16
    },
    {
      "midi": 65,
      "hit": false,
      "t": 82053.71899999987,
      "d": 356.7552999999898,
      "v": 61
    },
    {
      "midi": 62,
      "hit": false,
      "t": 82053.71899999987,
      "d": 358.10664583332255,
      "v": 61
    },
    {
      "midi": 57,
      "hit": false,
      "t": 82378.04199999986,
      "d": 1289.1839249999903,
      "v": 52
    },
    {
      "midi": 64,
      "hit": false,
      "t": 82702.36499999986,
      "d": 509.4573791666626,
      "v": 46
    },
    {
      "midi": 67,
      "hit": false,
      "t": 82702.36499999986,
      "d": 510.8087249999953,
      "v": 40
    },
    {
      "midi": 45,
      "hit": false,
      "t": 83026.68799999985,
      "d": 659.4567666666553,
      "v": 53
    },
    {
      "midi": 64,
      "hit": false,
      "t": 83351.01099999987,
      "d": 304.05281249999825,
      "v": 38
    },
    {
      "midi": 67,
      "hit": false,
      "t": 83351.01099999987,
      "d": 305.404158333331,
      "v": 56
    },
    {
      "midi": 72,
      "hit": false,
      "t": 83351.01099999987,
      "d": 310.80954166666197,
      "v": 68
    },
    {
      "midi": 72,
      "hit": false,
      "t": 83351.01099999997,
      "d": 256.7557083333377,
      "v": 71
    },
    {
      "midi": 50,
      "hit": false,
      "t": 83675.33399999984,
      "d": 1241.8868208333297,
      "v": 50
    },
    {
      "midi": 72,
      "hit": false,
      "t": 83675.33399999986,
      "d": 329.72838333333493,
      "v": 74
    },
    {
      "midi": 67,
      "hit": false,
      "t": 83675.33399999986,
      "d": 333.78242083333316,
      "v": 62
    },
    {
      "midi": 64,
      "hit": false,
      "t": 83675.33399999986,
      "d": 347.2958791666606,
      "v": 64
    },
    {
      "midi": 72,
      "hit": false,
      "t": 83675.33399999997,
      "d": 314.8635791666602,
      "v": 74
    },
    {
      "midi": 62,
      "hit": false,
      "t": 83999.65699999986,
      "d": 270.26916666665056,
      "v": 74
    },
    {
      "midi": 71,
      "hit": false,
      "t": 83999.65699999986,
      "d": 286.4853166666435,
      "v": 74
    },
    {
      "midi": 66,
      "hit": false,
      "t": 83999.65699999986,
      "d": 290.5393541666417,
      "v": 17
    },
    {
      "midi": 71,
      "hit": false,
      "t": 83999.65699999996,
      "d": 239.18821249999746,
      "v": 58
    },
    {
      "midi": 38,
      "hit": false,
      "t": 84323.97999999984,
      "d": 697.2944500000012,
      "v": 57
    },
    {
      "midi": 71,
      "hit": false,
      "t": 84323.97999999984,
      "d": 299.998775,
      "v": 66
    },
    {
      "midi": 66,
      "hit": false,
      "t": 84323.97999999984,
      "d": 304.05281249999825,
      "v": 29
    },
    {
      "midi": 62,
      "hit": false,
      "t": 84323.97999999984,
      "d": 305.404158333331,
      "v": 74
    },
    {
      "midi": 71,
      "hit": false,
      "t": 84323.97999999997,
      "d": 344.59318750000966,
      "v": 64
    },
    {
      "midi": 69,
      "hit": false,
      "t": 84648.30299999984,
      "d": 236.48552083333198,
      "v": 55
    },
    {
      "midi": 60,
      "hit": false,
      "t": 84648.30299999984,
      "d": 237.83686666666472,
      "v": 49
    },
    {
      "midi": 66,
      "hit": false,
      "t": 84648.30299999984,
      "d": 247.29628749999392,
      "v": 48
    },
    {
      "midi": 69,
      "hit": false,
      "t": 84648.30299999997,
      "d": 249.99897916667396,
      "v": 40
    },
    {
      "midi": 60,
      "hit": false,
      "t": 84972.62599999983,
      "d": 220.26937083333905,
      "v": 51
    },
    {
      "midi": 66,
      "hit": false,
      "t": 84972.62599999983,
      "d": 281.0799333333416,
      "v": 49
    },
    {
      "midi": 69,
      "hit": false,
      "t": 84972.62599999983,
      "d": 285.13397083333984,
      "v": 47
    },
    {
      "midi": 50,
      "hit": false,
      "t": 84972.62599999984,
      "d": 1298.6433458333195,
      "v": 64
    },
    {
      "midi": 69,
      "hit": false,
      "t": 84972.62599999997,
      "d": 339.18780416666414,
      "v": 45
    },
    {
      "midi": 60,
      "hit": false,
      "t": 85296.94899999983,
      "d": 272.9718583333306,
      "v": 25
    },
    {
      "midi": 57,
      "hit": false,
      "t": 85296.94899999983,
      "d": 281.07993333332706,
      "v": 32
    },
    {
      "midi": 66,
      "hit": false,
      "t": 85296.94899999983,
      "d": 283.78262499999255,
      "v": 57
    },
    {
      "midi": 66,
      "hit": false,
      "t": 85296.94899999998,
      "d": 259.4583999999886,
      "v": 40
    },
    {
      "midi": 60,
      "hit": false,
      "t": 85621.27199999982,
      "d": 320.2689625000057,
      "v": 48
    },
    {
      "midi": 57,
      "hit": false,
      "t": 85621.27199999982,
      "d": 331.0797291666677,
      "v": 37
    },
    {
      "midi": 66,
      "hit": false,
      "t": 85621.27199999982,
      "d": 337.8364583333314,
      "v": 60
    },
    {
      "midi": 38,
      "hit": false,
      "t": 85621.27199999984,
      "d": 656.7540749999898,
      "v": 61
    },
    {
      "midi": 66,
      "hit": false,
      "t": 85621.27199999997,
      "d": 332.4310750000004,
      "v": 42
    },
    {
      "midi": 58,
      "hit": false,
      "t": 85945.59499999983,
      "d": 339.1878041666496,
      "v": 60
    },
    {
      "midi": 64,
      "hit": false,
      "t": 85945.59499999983,
      "d": 339.1878041666496,
      "v": 68
    },
    {
      "midi": 64,
      "hit": false,
      "t": 85945.59499999997,
      "d": 324.3229999999894,
      "v": 51
    },
    {
      "midi": 62,
      "hit": false,
      "t": 86269.91799999982,
      "d": 2131.0723791666387,
      "v": 55
    },
    {
      "midi": 43,
      "hit": false,
      "t": 86269.91799999983,
      "d": 533.7816041666665,
      "v": 44
    },
    {
      "midi": 62,
      "hit": false,
      "t": 86269.91799999996,
      "d": 2035.1268249999994,
      "v": 53
    },
    {
      "midi": 55,
      "hit": false,
      "t": 86594.2409999998,
      "d": 333.78242083333316,
      "v": 19
    },
    {
      "midi": 59,
      "hit": false,
      "t": 86594.2409999998,
      "d": 333.78242083333316,
      "v": 29
    },
    {
      "midi": 44,
      "hit": false,
      "t": 86918.56399999982,
      "d": 513.5114166666608,
      "v": 64
    },
    {
      "midi": 59,
      "hit": false,
      "t": 87242.8869999998,
      "d": 335.1337666666659,
      "v": 49
    },
    {
      "midi": 53,
      "hit": false,
      "t": 87242.8869999998,
      "d": 343.24184166666237,
      "v": 38
    },
    {
      "midi": 45,
      "hit": false,
      "t": 87567.20999999982,
      "d": 522.9708375000046,
      "v": 64
    },
    {
      "midi": 60,
      "hit": false,
      "t": 87891.53299999979,
      "d": 312.1608874999947,
      "v": 42
    },
    {
      "midi": 54,
      "hit": false,
      "t": 87891.53299999979,
      "d": 356.7552999999898,
      "v": 35
    },
    {
      "midi": 46,
      "hit": false,
      "t": 88215.85599999983,
      "d": 474.3223874999967,
      "v": 39
    },
    {
      "midi": 67,
      "hit": false,
      "t": 88540.17899999979,
      "d": 321.62030833333847,
      "v": 55
    },
    {
      "midi": 55,
      "hit": false,
      "t": 88540.17899999979,
      "d": 331.0797291666677,
      "v": 53
    },
    {
      "midi": 61,
      "hit": false,
      "t": 88540.17899999979,
      "d": 335.1337666666659,
      "v": 30
    },
    {
      "midi": 67,
      "hit": false,
      "t": 88540.17899999996,
      "d": 260.8097458333359,
      "v": 52
    },
    {
      "midi": 67,
      "hit": false,
      "t": 88864.50199999979,
      "d": 313.51223333332746,
      "v": 45
    },
    {
      "midi": 47,
      "hit": false,
      "t": 88864.50199999982,
      "d": 513.5114166666608,
      "v": 47
    },
    {
      "midi": 55,
      "hit": false,
      "t": 88864.50199999982,
      "d": 1240.535474999997,
      "v": 38
    },
    {
      "midi": 67,
      "hit": false,
      "t": 88864.50199999996,
      "d": 331.0797291666677,
      "v": 51
    },
    {
      "midi": 69,
      "hit": false,
      "t": 89188.82499999978,
      "d": 218.9180250000063,
      "v": 47
    },
    {
      "midi": 65,
      "hit": false,
      "t": 89188.82499999978,
      "d": 371.62010416666453,
      "v": 40
    },
    {
      "midi": 62,
      "hit": false,
      "t": 89188.82499999978,
      "d": 460.80892916666926,
      "v": 41
    },
    {
      "midi": 69,
      "hit": false,
      "t": 89188.82499999997,
      "d": 270.2691666666651,
      "v": 35
    },
    {
      "midi": 69,
      "hit": false,
      "t": 89513.14799999978,
      "d": 327.02569166666945,
      "v": 51
    },
    {
      "midi": 43,
      "hit": false,
      "t": 89513.14799999981,
      "d": 471.6196958333312,
      "v": 45
    },
    {
      "midi": 69,
      "hit": false,
      "t": 89513.14799999997,
      "d": 316.21492499999295,
      "v": 51
    },
    {
      "midi": 65,
      "hit": false,
      "t": 89837.47099999979,
      "d": 289.1880083333381,
      "v": 41
    },
    {
      "midi": 67,
      "hit": false,
      "t": 89837.47099999979,
      "d": 289.1880083333381,
      "v": 45
    },
    {
      "midi": 71,
      "hit": false,
      "t": 89837.47099999979,
      "d": 293.2420458333363,
      "v": 57
    },
    {
      "midi": 59,
      "hit": false,
      "t": 89837.47099999979,
      "d": 312.16088750000927,
      "v": 40
    },
    {
      "midi": 71,
      "hit": false,
      "t": 89837.47099999996,
      "d": 287.83666250000533,
      "v": 56
    },
    {
      "midi": 71,
      "hit": false,
      "t": 90161.79399999979,
      "d": 347.29587916667515,
      "v": 50
    },
    {
      "midi": 50,
      "hit": false,
      "t": 90161.79399999982,
      "d": 487.8358458333387,
      "v": 43
    },
    {
      "midi": 55,
      "hit": false,
      "t": 90161.79399999982,
      "d": 1120.2656958333391,
      "v": 30
    },
    {
      "midi": 71,
      "hit": false,
      "t": 90161.79399999997,
      "d": 317.56627083334024,
      "v": 60
    },
    {
      "midi": 69,
      "hit": false,
      "t": 90486.1169999998,
      "d": 178.37765000000945,
      "v": 44
    },
    {
      "midi": 65,
      "hit": false,
      "t": 90486.1169999998,
      "d": 329.72838333333493,
      "v": 21
    },
    {
      "midi": 59,
      "hit": false,
      "t": 90486.1169999998,
      "d": 341.8904958333296,
      "v": 32
    },
    {
      "midi": 69,
      "hit": false,
      "t": 90486.11699999997,
      "d": 272.9718583333306,
      "v": 38
    },
    {
      "midi": 69,
      "hit": false,
      "t": 90810.4399999998,
      "d": 331.0797291666531,
      "v": 50
    },
    {
      "midi": 43,
      "hit": false,
      "t": 90810.43999999983,
      "d": 478.3764249999949,
      "v": 41
    },
    {
      "midi": 69,
      "hit": false,
      "t": 90810.43999999997,
      "d": 328.3770375000022,
      "v": 41
    },
    {
      "midi": 67,
      "hit": false,
      "t": 91134.76299999979,
      "d": 258.10705416665587,
      "v": 42
    },
    {
      "midi": 63,
      "hit": false,
      "t": 91134.76299999979,
      "d": 260.80974583332136,
      "v": 22
    },
    {
      "midi": 59,
      "hit": false,
      "t": 91134.76299999979,
      "d": 267.5664749999851,
      "v": 36
    },
    {
      "midi": 67,
      "hit": false,
      "t": 91134.76299999998,
      "d": 312.1608874999947,
      "v": 37
    },
    {
      "midi": 60,
      "hit": false,
      "t": 91345.57294999978,
      "d": 40.54037499999686,
      "v": 30
    },
    {
      "midi": 64,
      "hit": false,
      "t": 91386.11332499978,
      "d": 40.54037499999686,
      "v": 28
    },
    {
      "midi": 36,
      "hit": false,
      "t": 91410.43754999983,
      "d": 698.6457958333485,
      "v": 30
    },
    {
      "midi": 67,
      "hit": false,
      "t": 91426.65369999978,
      "d": 40.54037499999686,
      "v": 33
    },
    {
      "midi": 43,
      "hit": false,
      "t": 91434.76177499983,
      "d": 671.6188791666791,
      "v": 44
    },
    {
      "midi": 52,
      "hit": false,
      "t": 91456.38330833317,
      "d": 652.7000375000061,
      "v": 49
    },
    {
      "midi": 71,
      "hit": false,
      "t": 91459.08599999978,
      "d": 209.45860416666255,
      "v": 65
    },
    {
      "midi": 71,
      "hit": false,
      "t": 91459.08599999997,
      "d": 668.9161874999991,
      "v": 56
    },
    {
      "midi": 67,
      "hit": false,
      "t": 91783.40899999977,
      "d": 324.32300000000396,
      "v": 47
    },
    {
      "midi": 59,
      "hit": false,
      "t": 91783.40899999977,
      "d": 332.4310750000004,
      "v": 51
    },
    {
      "midi": 64,
      "hit": false,
      "t": 91783.40899999977,
      "d": 339.18780416666414,
      "v": 43
    },
    {
      "midi": 69,
      "hit": false,
      "t": 92107.73199999977,
      "d": 1228.3733624999877,
      "v": 54
    },
    {
      "midi": 43,
      "hit": false,
      "t": 92107.73199999984,
      "d": 489.1871916666714,
      "v": 49
    },
    {
      "midi": 69,
      "hit": false,
      "t": 92107.73199999996,
      "d": 851.3478750000068,
      "v": 48
    },
    {
      "midi": 67,
      "hit": false,
      "t": 92432.05499999976,
      "d": 325.6743458333367,
      "v": 52
    },
    {
      "midi": 64,
      "hit": false,
      "t": 92432.05499999976,
      "d": 336.48511249999865,
      "v": 37
    },
    {
      "midi": 60,
      "hit": false,
      "t": 92432.05499999976,
      "d": 352.70126249999157,
      "v": 54
    },
    {
      "midi": 36,
      "hit": false,
      "t": 92756.37799999985,
      "d": 1302.6973833333468,
      "v": 34
    },
    {
      "midi": 67,
      "hit": false,
      "t": 93080.70099999975,
      "d": 255.40436250000494,
      "v": 45
    },
    {
      "midi": 60,
      "hit": false,
      "t": 93080.70099999975,
      "d": 539.1869874999975,
      "v": 50
    },
    {
      "midi": 64,
      "hit": false,
      "t": 93080.70099999975,
      "d": 598.6462041666673,
      "v": 35
    },
    {
      "midi": 55,
      "hit": false,
      "t": 93080.70099999986,
      "d": 331.0797291666677,
      "v": 51
    },
    {
      "midi": 67,
      "hit": false,
      "t": 93080.70099999997,
      "d": 335.1337666666659,
      "v": 56
    },
    {
      "midi": 69,
      "hit": false,
      "t": 93405.02399999976,
      "d": 335.13376666665135,
      "v": 54
    },
    {
      "midi": 57,
      "hit": false,
      "t": 93405.02399999986,
      "d": 332.4310750000004,
      "v": 40
    },
    {
      "midi": 69,
      "hit": false,
      "t": 93405.02399999998,
      "d": 349.9985708333261,
      "v": 60
    },
    {
      "midi": 67,
      "hit": false,
      "t": 93729.34699999975,
      "d": 336.4851124999841,
      "v": 51
    },
    {
      "midi": 64,
      "hit": false,
      "t": 93729.34699999975,
      "d": 343.2418416666478,
      "v": 9
    },
    {
      "midi": 60,
      "hit": false,
      "t": 93729.34699999975,
      "d": 355.4039541666425,
      "v": 48
    },
    {
      "midi": 55,
      "hit": false,
      "t": 93729.34699999986,
      "d": 320.2689625000057,
      "v": 35
    },
    {
      "midi": 67,
      "hit": false,
      "t": 93729.34699999997,
      "d": 347.29587916667515,
      "v": 56
    },
    {
      "midi": 40,
      "hit": false,
      "t": 93996.91347499986,
      "d": 682.4296458333265,
      "v": 48
    },
    {
      "midi": 47,
      "hit": false,
      "t": 94032.04846666653,
      "d": 647.2946541666606,
      "v": 48
    },
    {
      "midi": 71,
      "hit": false,
      "t": 94053.66999999974,
      "d": 341.8904958333296,
      "v": 59
    },
    {
      "midi": 71,
      "hit": false,
      "t": 94053.66999999997,
      "d": 321.62030833333847,
      "v": 48
    },
    {
      "midi": 55,
      "hit": false,
      "t": 94061.77807499986,
      "d": 614.8623541666602,
      "v": 47
    },
    {
      "midi": 67,
      "hit": false,
      "t": 94377.99299999973,
      "d": 308.10685000001104,
      "v": 41
    },
    {
      "midi": 59,
      "hit": false,
      "t": 94377.99299999973,
      "d": 332.4310750000004,
      "v": 51
    },
    {
      "midi": 62,
      "hit": false,
      "t": 94377.99299999973,
      "d": 556.7544833333377,
      "v": 40
    },
    {
      "midi": 67,
      "hit": false,
      "t": 94377.99299999997,
      "d": 322.9716541666712,
      "v": 40
    },
    {
      "midi": 69,
      "hit": false,
      "t": 94702.31599999973,
      "d": 274.32320416666334,
      "v": 56
    },
    {
      "midi": 47,
      "hit": false,
      "t": 94702.31599999986,
      "d": 491.8898833333369,
      "v": 49
    },
    {
      "midi": 69,
      "hit": false,
      "t": 94702.31599999998,
      "d": 327.02569166666945,
      "v": 40
    },
    {
      "midi": 62,
      "hit": false,
      "t": 95026.63899999973,
      "d": 333.78242083333316,
      "v": 51
    },
    {
      "midi": 67,
      "hit": false,
      "t": 95026.63899999973,
      "d": 339.18780416666414,
      "v": 44
    },
    {
      "midi": 59,
      "hit": false,
      "t": 95026.63899999973,
      "d": 341.8904958333296,
      "v": 47
    },
    {
      "midi": 67,
      "hit": false,
      "t": 95026.63899999998,
      "d": 358.1066458333371,
      "v": 56
    },
    {
      "midi": 71,
      "hit": false,
      "t": 95350.96199999974,
      "d": 329.7283833333204,
      "v": 57
    },
    {
      "midi": 45,
      "hit": false,
      "t": 95350.96199999987,
      "d": 524.3221833333373,
      "v": 45
    },
    {
      "midi": 71,
      "hit": false,
      "t": 95350.96199999998,
      "d": 325.6743458333367,
      "v": 58
    },
    {
      "midi": 69,
      "hit": false,
      "t": 95675.28499999973,
      "d": 278.3772416666616,
      "v": 51
    },
    {
      "midi": 66,
      "hit": false,
      "t": 95675.28499999973,
      "d": 285.1339708333253,
      "v": 42
    },
    {
      "midi": 61,
      "hit": false,
      "t": 95675.28499999973,
      "d": 487.83584583332413,
      "v": 52
    },
    {
      "midi": 69,
      "hit": false,
      "t": 95675.28499999999,
      "d": 235.13417499999923,
      "v": 45
    },
    {
      "midi": 69,
      "hit": false,
      "t": 95999.60799999972,
      "d": 325.6743458333367,
      "v": 50
    },
    {
      "midi": 57,
      "hit": false,
      "t": 95999.60799999988,
      "d": 508.10603333332983,
      "v": 47
    },
    {
      "midi": 69,
      "hit": false,
      "t": 95999.608,
      "d": 304.05281249999825,
      "v": 54
    },
    {
      "midi": 64,
      "hit": false,
      "t": 96323.93099999972,
      "d": 329.72838333333493,
      "v": 25
    },
    {
      "midi": 67,
      "hit": false,
      "t": 96323.93099999972,
      "d": 331.0797291666677,
      "v": 54
    },
    {
      "midi": 61,
      "hit": false,
      "t": 96323.93099999972,
      "d": 339.18780416666414,
      "v": 45
    },
    {
      "midi": 67,
      "hit": false,
      "t": 96323.931,
      "d": 337.8364583333314,
      "v": 46
    },
    {
      "midi": 71,
      "hit": false,
      "t": 96648.25399999972,
      "d": 637.8352333333169,
      "v": 66
    },
    {
      "midi": 38,
      "hit": false,
      "t": 96648.25399999987,
      "d": 491.8898833333369,
      "v": 42
    },
    {
      "midi": 71,
      "hit": false,
      "t": 96648.254,
      "d": 690.537720833323,
      "v": 45
    },
    {
      "midi": 67,
      "hit": false,
      "t": 96972.57699999971,
      "d": 328.37703749998764,
      "v": 40
    },
    {
      "midi": 64,
      "hit": false,
      "t": 96972.57699999971,
      "d": 333.7824208333186,
      "v": 40
    },
    {
      "midi": 60,
      "hit": false,
      "t": 96972.57699999971,
      "d": 341.8904958333151,
      "v": 43
    },
    {
      "midi": 69,
      "hit": false,
      "t": 97296.8999999997,
      "d": 1301.3460374999704,
      "v": 61
    },
    {
      "midi": 45,
      "hit": false,
      "t": 97296.89999999988,
      "d": 524.3221833333373,
      "v": 48
    },
    {
      "midi": 69,
      "hit": false,
      "t": 97296.9,
      "d": 985.131112499992,
      "v": 30
    },
    {
      "midi": 66,
      "hit": false,
      "t": 97621.22299999969,
      "d": 309.4581958333292,
      "v": 55
    },
    {
      "midi": 62,
      "hit": false,
      "t": 97621.22299999969,
      "d": 335.1337666666659,
      "v": 52
    },
    {
      "midi": 60,
      "hit": false,
      "t": 97621.22299999969,
      "d": 337.8364583333314,
      "v": 47
    },
    {
      "midi": 50,
      "hit": false,
      "t": 97945.54599999989,
      "d": 535.1329499999993,
      "v": 52
    },
    {
      "midi": 62,
      "hit": false,
      "t": 98269.86899999969,
      "d": 214.86398749999353,
      "v": 45
    },
    {
      "midi": 60,
      "hit": false,
      "t": 98269.86899999969,
      "d": 327.0256916666549,
      "v": 38
    },
    {
      "midi": 66,
      "hit": false,
      "t": 98269.86899999969,
      "d": 327.0256916666549,
      "v": 30
    },
    {
      "midi": 62,
      "hit": false,
      "t": 98594.19199999968,
      "d": 340.5391499999969,
      "v": 65
    },
    {
      "midi": 38,
      "hit": false,
      "t": 98594.19199999988,
      "d": 474.3223874999967,
      "v": 58
    },
    {
      "midi": 62,
      "hit": false,
      "t": 98594.19199999998,
      "d": 632.4298500000004,
      "v": 72
    },
    {
      "midi": 60,
      "hit": false,
      "t": 98918.51499999968,
      "d": 331.0797291666531,
      "v": 66
    },
    {
      "midi": 54,
      "hit": false,
      "t": 98918.51499999968,
      "d": 352.70126249999157,
      "v": 54
    },
    {
      "midi": 61,
      "hit": false,
      "t": 99242.83799999967,
      "d": 328.3770375000022,
      "v": 60
    },
    {
      "midi": 49,
      "hit": false,
      "t": 99242.83799999987,
      "d": 197.29649166666786,
      "v": 53
    },
    {
      "midi": 43,
      "hit": false,
      "t": 99242.83799999987,
      "d": 631.0785041666677,
      "v": 54
    },
    {
      "midi": 61,
      "hit": false,
      "t": 99242.83799999997,
      "d": 324.32300000000396,
      "v": 45
    },
    {
      "midi": 59,
      "hit": false,
      "t": 99567.16099999967,
      "d": 309.4581958333292,
      "v": 50
    },
    {
      "midi": 55,
      "hit": false,
      "t": 99567.16099999967,
      "d": 321.6203083333239,
      "v": 29
    },
    {
      "midi": 62,
      "hit": false,
      "t": 99567.16099999967,
      "d": 972.9689999999973,
      "v": 56
    },
    {
      "midi": 50,
      "hit": false,
      "t": 99567.16099999988,
      "d": 2174.3154458333447,
      "v": 62
    },
    {
      "midi": 62,
      "hit": false,
      "t": 99567.16099999998,
      "d": 1121.6170416666719,
      "v": 48
    },
    {
      "midi": 38,
      "hit": false,
      "t": 99891.48399999988,
      "d": 355.4039541666716,
      "v": 50
    },
    {
      "midi": 57,
      "hit": false,
      "t": 100215.80699999967,
      "d": 324.32300000000396,
      "v": 50
    },
    {
      "midi": 59,
      "hit": false,
      "t": 100215.80699999967,
      "d": 324.32300000000396,
      "v": 54
    },
    {
      "midi": 43,
      "hit": false,
      "t": 100540.12999999989,
      "d": 340.5391499999969,
      "v": 56
    },
    {
      "midi": 61,
      "hit": false,
      "t": 100864.45299999967,
      "d": 333.78242083333316,
      "v": 25
    },
    {
      "midi": 58,
      "hit": false,
      "t": 100864.45299999967,
      "d": 335.1337666666659,
      "v": 41
    },
    {
      "midi": 66,
      "hit": false,
      "t": 100864.45299999967,
      "d": 352.7012625000061,
      "v": 48
    },
    {
      "midi": 66,
      "hit": false,
      "t": 100864.45299999998,
      "d": 347.29587916667515,
      "v": 65
    },
    {
      "midi": 62,
      "hit": false,
      "t": 101188.77599999968,
      "d": 278.3772416666616,
      "v": 56
    },
    {
      "midi": 67,
      "hit": false,
      "t": 101188.77599999968,
      "d": 286.48531666665804,
      "v": 60
    },
    {
      "midi": 59,
      "hit": false,
      "t": 101188.77599999968,
      "d": 320.2689624999912,
      "v": 50
    },
    {
      "midi": 38,
      "hit": false,
      "t": 101188.77599999988,
      "d": 325.6743458333367,
      "v": 60
    },
    {
      "midi": 67,
      "hit": false,
      "t": 101188.77599999998,
      "d": 336.48511249999865,
      "v": 68
    },
    {
      "midi": 69,
      "hit": false,
      "t": 101513.09899999967,
      "d": 321.62030833333847,
      "v": 54
    },
    {
      "midi": 66,
      "hit": false,
      "t": 101513.09899999967,
      "d": 322.9716541666712,
      "v": 58
    },
    {
      "midi": 62,
      "hit": false,
      "t": 101513.09899999967,
      "d": 325.6743458333367,
      "v": 61
    },
    {
      "midi": 69,
      "hit": false,
      "t": 101513.09899999999,
      "d": 333.7824208333186,
      "v": 64
    },
    {
      "midi": 71,
      "hit": false,
      "t": 101837.42199999967,
      "d": 1968.9108791666658,
      "v": 76
    },
    {
      "midi": 43,
      "hit": false,
      "t": 101837.42199999989,
      "d": 647.2946541666606,
      "v": 56
    },
    {
      "midi": 71,
      "hit": false,
      "t": 101837.42199999998,
      "d": 2056.7483583333233,
      "v": 66
    },
    {
      "midi": 62,
      "hit": false,
      "t": 102161.74499999968,
      "d": 335.1337666666659,
      "v": 44
    },
    {
      "midi": 59,
      "hit": false,
      "t": 102161.74499999968,
      "d": 339.18780416666414,
      "v": 48
    },
    {
      "midi": 67,
      "hit": false,
      "t": 102161.74499999968,
      "d": 341.8904958333296,
      "v": 45
    },
    {
      "midi": 53,
      "hit": false,
      "t": 102486.06799999988,
      "d": 679.726954166661,
      "v": 64
    },
    {
      "midi": 59,
      "hit": false,
      "t": 102810.39099999967,
      "d": 310.80954166666197,
      "v": 24
    },
    {
      "midi": 62,
      "hit": false,
      "t": 102810.39099999967,
      "d": 316.21492499999295,
      "v": 48
    },
    {
      "midi": 67,
      "hit": false,
      "t": 102810.39099999967,
      "d": 317.5662708333257,
      "v": 30
    },
    {
      "midi": 52,
      "hit": false,
      "t": 103134.71399999988,
      "d": 635.1325416666659,
      "v": 56
    },
    {
      "midi": 64,
      "hit": false,
      "t": 103459.03699999966,
      "d": 325.6743458333367,
      "v": 38
    },
    {
      "midi": 59,
      "hit": false,
      "t": 103459.03699999966,
      "d": 355.4039541666716,
      "v": 51
    },
    {
      "midi": 67,
      "hit": false,
      "t": 103459.03699999966,
      "d": 466.21431250000023,
      "v": 38
    },
    {
      "midi": 51,
      "hit": false,
      "t": 103783.35999999987,
      "d": 649.9973458333261,
      "v": 58
    },
    {
      "midi": 60,
      "hit": false,
      "t": 104107.68299999966,
      "d": 304.05281249999825,
      "v": 68
    },
    {
      "midi": 67,
      "hit": false,
      "t": 104107.68299999966,
      "d": 306.75550416666374,
      "v": 60
    },
    {
      "midi": 72,
      "hit": false,
      "t": 104107.68299999966,
      "d": 308.1068499999965,
      "v": 68
    },
    {
      "midi": 72,
      "hit": false,
      "t": 104107.68299999996,
      "d": 333.78242083333316,
      "v": 84
    },
    {
      "midi": 74,
      "hit": false,
      "t": 104432.00599999964,
      "d": 327.02569166666945,
      "v": 70
    },
    {
      "midi": 67,
      "hit": false,
      "t": 104432.00599999964,
      "d": 583.7814000000071,
      "v": 59
    },
    {
      "midi": 62,
      "hit": false,
      "t": 104432.00599999964,
      "d": 639.1865791666787,
      "v": 72
    },
    {
      "midi": 50,
      "hit": false,
      "t": 104432.00599999986,
      "d": 645.9433083333279,
      "v": 25
    },
    {
      "midi": 59,
      "hit": false,
      "t": 104432.00599999986,
      "d": 655.4027291666571,
      "v": 44
    },
    {
      "midi": 74,
      "hit": false,
      "t": 104432.00599999996,
      "d": 327.0256916666549,
      "v": 79
    },
    {
      "midi": 71,
      "hit": false,
      "t": 104756.32899999965,
      "d": 286.4853166666726,
      "v": 63
    },
    {
      "midi": 71,
      "hit": false,
      "t": 104756.32899999995,
      "d": 274.32320416666334,
      "v": 55
    },
    {
      "midi": 71,
      "hit": false,
      "t": 105080.65199999965,
      "d": 220.26937083333905,
      "v": 70
    },
    {
      "midi": 66,
      "hit": false,
      "t": 105080.65199999965,
      "d": 609.4569708333438,
      "v": 61
    },
    {
      "midi": 59,
      "hit": false,
      "t": 105080.65199999965,
      "d": 612.1596625000093,
      "v": 54
    },
    {
      "midi": 39,
      "hit": false,
      "t": 105080.65199999986,
      "d": 666.2134958333336,
      "v": 24
    },
    {
      "midi": 51,
      "hit": false,
      "t": 105080.65199999986,
      "d": 667.5648416666663,
      "v": 54
    },
    {
      "midi": 71,
      "hit": false,
      "t": 105080.65199999994,
      "d": 262.16109166666865,
      "v": 66
    },
    {
      "midi": 71,
      "hit": false,
      "t": 105404.97499999966,
      "d": 259.45840000000317,
      "v": 56
    },
    {
      "midi": 71,
      "hit": false,
      "t": 105404.97499999995,
      "d": 278.3772416666616,
      "v": 79
    },
    {
      "midi": 71,
      "hit": false,
      "t": 105729.29799999966,
      "d": 331.0797291666677,
      "v": 68
    },
    {
      "midi": 62,
      "hit": false,
      "t": 105729.29799999966,
      "d": 933.7799708333332,
      "v": 44
    },
    {
      "midi": 59,
      "hit": false,
      "t": 105729.29799999966,
      "d": 951.3474666666734,
      "v": 55
    },
    {
      "midi": 52,
      "hit": false,
      "t": 105729.29799999985,
      "d": 868.915370833347,
      "v": 52
    },
    {
      "midi": 40,
      "hit": false,
      "t": 105729.29799999985,
      "d": 1293.2379625000176,
      "v": 59
    },
    {
      "midi": 71,
      "hit": false,
      "t": 105729.29799999994,
      "d": 343.2418416666769,
      "v": 76
    },
    {
      "midi": 67,
      "hit": false,
      "t": 106053.62099999966,
      "d": 227.02610000000277,
      "v": 46
    },
    {
      "midi": 67,
      "hit": false,
      "t": 106053.62099999994,
      "d": 228.3774458333355,
      "v": 52
    },
    {
      "midi": 67,
      "hit": false,
      "t": 106377.94399999967,
      "d": 249.9989791666594,
      "v": 55
    },
    {
      "midi": 67,
      "hit": false,
      "t": 106377.94399999994,
      "d": 343.2418416666769,
      "v": 57
    },
    {
      "midi": 67,
      "hit": false,
      "t": 106702.26699999967,
      "d": 314.8635791666602,
      "v": 53
    },
    {
      "midi": 62,
      "hit": false,
      "t": 106702.26699999967,
      "d": 316.21492499999295,
      "v": 66
    },
    {
      "midi": 71,
      "hit": false,
      "t": 106702.26699999967,
      "d": 316.21492499999295,
      "v": 71
    },
    {
      "midi": 52,
      "hit": false,
      "t": 106702.26699999986,
      "d": 328.3770375000022,
      "v": 64
    },
    {
      "midi": 71,
      "hit": false,
      "t": 106702.26699999995,
      "d": 336.48511249999865,
      "v": 79
    },
    {
      "midi": 72,
      "hit": false,
      "t": 107026.58999999966,
      "d": 328.3770375000022,
      "v": 68
    },
    {
      "midi": 64,
      "hit": false,
      "t": 107026.58999999966,
      "d": 970.2663083333318,
      "v": 62
    },
    {
      "midi": 55,
      "hit": false,
      "t": 107026.58999999987,
      "d": 331.0797291666677,
      "v": 63
    },
    {
      "midi": 45,
      "hit": false,
      "t": 107026.58999999987,
      "d": 993.2391874999885,
      "v": 46
    },
    {
      "midi": 72,
      "hit": false,
      "t": 107026.58999999995,
      "d": 343.24184166666237,
      "v": 67
    },
    {
      "midi": 71,
      "hit": false,
      "t": 107350.91299999967,
      "d": 324.32300000000396,
      "v": 72
    },
    {
      "midi": 56,
      "hit": false,
      "t": 107350.91299999987,
      "d": 332.4310750000004,
      "v": 60
    },
    {
      "midi": 71,
      "hit": false,
      "t": 107350.91299999994,
      "d": 333.78242083333316,
      "v": 74
    },
    {
      "midi": 72,
      "hit": false,
      "t": 107675.23599999967,
      "d": 314.8635791666602,
      "v": 63
    },
    {
      "midi": 57,
      "hit": false,
      "t": 107675.23599999987,
      "d": 337.83645833331684,
      "v": 58
    },
    {
      "midi": 72,
      "hit": false,
      "t": 107675.23599999995,
      "d": 348.64722499999334,
      "v": 82
    },
    {
      "midi": 67,
      "hit": false,
      "t": 107999.55899999966,
      "d": 275.6745499999961,
      "v": 62
    },
    {
      "midi": 73,
      "hit": false,
      "t": 107999.55899999966,
      "d": 275.6745499999961,
      "v": 60
    },
    {
      "midi": 61,
      "hit": false,
      "t": 107999.55899999966,
      "d": 332.43107499998587,
      "v": 53
    },
    {
      "midi": 58,
      "hit": false,
      "t": 107999.55899999986,
      "d": 343.24184166666237,
      "v": 63
    },
    {
      "midi": 51,
      "hit": false,
      "t": 107999.55899999986,
      "d": 358.10664583332255,
      "v": 54
    },
    {
      "midi": 73,
      "hit": false,
      "t": 107999.55899999994,
      "d": 333.78242083333316,
      "v": 75
    },
    {
      "midi": 67,
      "hit": false,
      "t": 108323.88199999965,
      "d": 916.212474999993,
      "v": 48
    },
    {
      "midi": 74,
      "hit": false,
      "t": 108323.88199999965,
      "d": 918.9151666666585,
      "v": 59
    },
    {
      "midi": 62,
      "hit": false,
      "t": 108323.88199999965,
      "d": 972.9689999999973,
      "v": 63
    },
    {
      "midi": 50,
      "hit": false,
      "t": 108323.88199999985,
      "d": 958.1041958333371,
      "v": 56
    },
    {
      "midi": 59,
      "hit": false,
      "t": 108323.88199999985,
      "d": 958.1041958333371,
      "v": 67
    },
    {
      "midi": 74,
      "hit": false,
      "t": 108323.88199999994,
      "d": 763.5103958333348,
      "v": 74
    },
    {
      "midi": 72,
      "hit": false,
      "t": 109296.85099999965,
      "d": 305.404158333331,
      "v": 67
    },
    {
      "midi": 63,
      "hit": false,
      "t": 109296.85099999965,
      "d": 312.1608874999947,
      "v": 29
    },
    {
      "midi": 67,
      "hit": false,
      "t": 109296.85099999965,
      "d": 312.1608874999947,
      "v": 52
    },
    {
      "midi": 45,
      "hit": false,
      "t": 109296.85099999985,
      "d": 316.21492499999295,
      "v": 48
    },
    {
      "midi": 57,
      "hit": false,
      "t": 109296.85099999985,
      "d": 328.37703749998764,
      "v": 56
    },
    {
      "midi": 72,
      "hit": false,
      "t": 109296.85099999994,
      "d": 360.8093375000026,
      "v": 74
    },
    {
      "midi": 62,
      "hit": false,
      "t": 109621.17399999964,
      "d": 209.45860416666255,
      "v": 55
    },
    {
      "midi": 67,
      "hit": false,
      "t": 109621.17399999964,
      "d": 241.89090416666295,
      "v": 44
    },
    {
      "midi": 71,
      "hit": false,
      "t": 109621.17399999964,
      "d": 355.40395416665706,
      "v": 55
    },
    {
      "midi": 50,
      "hit": false,
      "t": 109621.17399999984,
      "d": 2545.93554999998,
      "v": 58
    },
    {
      "midi": 71,
      "hit": false,
      "t": 109621.17399999994,
      "d": 306.75550416666374,
      "v": 73
    },
    {
      "midi": 59,
      "hit": false,
      "t": 109945.49699999962,
      "d": 264.86378333333414,
      "v": 36
    },
    {
      "midi": 62,
      "hit": false,
      "t": 109945.49699999962,
      "d": 264.86378333333414,
      "v": 32
    },
    {
      "midi": 67,
      "hit": false,
      "t": 109945.49699999962,
      "d": 267.5664749999996,
      "v": 46
    },
    {
      "midi": 67,
      "hit": false,
      "t": 109945.49699999994,
      "d": 209.45860416666255,
      "v": 48
    },
    {
      "midi": 62,
      "hit": false,
      "t": 110269.81999999963,
      "d": 267.5664749999996,
      "v": 41
    },
    {
      "midi": 59,
      "hit": false,
      "t": 110269.81999999963,
      "d": 274.32320416666334,
      "v": 35
    },
    {
      "midi": 67,
      "hit": false,
      "t": 110269.81999999963,
      "d": 287.8366624999908,
      "v": 44
    },
    {
      "midi": 38,
      "hit": false,
      "t": 110269.81999999983,
      "d": 541.889679166663,
      "v": 56
    },
    {
      "midi": 67,
      "hit": false,
      "t": 110269.81999999993,
      "d": 333.78242083333316,
      "v": 62
    },
    {
      "midi": 60,
      "hit": false,
      "t": 110594.14299999962,
      "d": 285.13397083333984,
      "v": 44
    },
    {
      "midi": 69,
      "hit": false,
      "t": 110594.14299999962,
      "d": 290.5393541666708,
      "v": 64
    },
    {
      "midi": 62,
      "hit": false,
      "t": 110594.14299999962,
      "d": 295.9447375000018,
      "v": 48
    },
    {
      "midi": 69,
      "hit": false,
      "t": 110594.14299999994,
      "d": 297.29608333333454,
      "v": 59
    },
    {
      "midi": 62,
      "hit": false,
      "t": 110918.46599999962,
      "d": 175.6749583333294,
      "v": 53
    },
    {
      "midi": 67,
      "hit": false,
      "t": 110918.46599999962,
      "d": 233.7828291666665,
      "v": 50
    },
    {
      "midi": 71,
      "hit": false,
      "t": 110918.46599999962,
      "d": 366.21472083333356,
      "v": 67
    },
    {
      "midi": 38,
      "hit": false,
      "t": 110918.46599999983,
      "d": 501.3493041666661,
      "v": 45
    },
    {
      "midi": 71,
      "hit": false,
      "t": 110918.46599999994,
      "d": 321.62030833333847,
      "v": 71
    },
    {
      "midi": 67,
      "hit": false,
      "t": 111242.78899999963,
      "d": 306.75550416666374,
      "v": 48
    },
    {
      "midi": 59,
      "hit": false,
      "t": 111242.78899999963,
      "d": 324.32300000000396,
      "v": 34
    },
    {
      "midi": 62,
      "hit": false,
      "t": 111242.78899999963,
      "d": 339.18780416666414,
      "v": 56
    },
    {
      "midi": 67,
      "hit": false,
      "t": 111242.78899999995,
      "d": 352.7012625000061,
      "v": 60
    },
    {
      "midi": 60,
      "hit": false,
      "t": 111567.11199999963,
      "d": 255.40436249999038,
      "v": 62
    },
    {
      "midi": 66,
      "hit": false,
      "t": 111567.11199999963,
      "d": 260.80974583332136,
      "v": 42
    },
    {
      "midi": 69,
      "hit": false,
      "t": 111567.11199999963,
      "d": 632.4298499999859,
      "v": 62
    },
    {
      "midi": 38,
      "hit": false,
      "t": 111567.11199999982,
      "d": 494.5925750000024,
      "v": 57
    },
    {
      "midi": 69,
      "hit": false,
      "t": 111567.11199999995,
      "d": 683.7809916666738,
      "v": 44
    },
    {
      "midi": 66,
      "hit": false,
      "t": 111891.43499999962,
      "d": 301.35012083333277,
      "v": 40
    },
    {
      "midi": 60,
      "hit": false,
      "t": 111891.43499999962,
      "d": 304.05281249999825,
      "v": 43
    },
    {
      "midi": 67,
      "hit": false,
      "t": 112215.75799999961,
      "d": 1991.8837583333225,
      "v": 44
    },
    {
      "midi": 43,
      "hit": false,
      "t": 112215.75799999981,
      "d": 494.5925750000024,
      "v": 48
    },
    {
      "midi": 50,
      "hit": false,
      "t": 112215.75799999981,
      "d": 2455.3953791666863,
      "v": 51
    },
    {
      "midi": 67,
      "hit": false,
      "t": 112215.75799999996,
      "d": 2014.8566374999937,
      "v": 52
    },
    {
      "midi": 62,
      "hit": false,
      "t": 112540.08099999961,
      "d": 316.21492499999295,
      "v": 43
    },
    {
      "midi": 64,
      "hit": false,
      "t": 112540.08099999961,
      "d": 324.3229999999894,
      "v": 35
    },
    {
      "midi": 59,
      "hit": false,
      "t": 112540.08099999961,
      "d": 341.8904958333296,
      "v": 43
    },
    {
      "midi": 38,
      "hit": false,
      "t": 112864.40399999982,
      "d": 497.2952666666679,
      "v": 51
    },
    {
      "midi": 59,
      "hit": false,
      "t": 113188.7269999996,
      "d": 329.72838333333493,
      "v": 27
    },
    {
      "midi": 62,
      "hit": false,
      "t": 113188.7269999996,
      "d": 332.4310750000004,
      "v": 39
    },
    {
      "midi": 64,
      "hit": false,
      "t": 113188.7269999996,
      "d": 337.8364583333314,
      "v": 33
    },
    {
      "midi": 43,
      "hit": false,
      "t": 113513.04999999983,
      "d": 487.8358458333387,
      "v": 45
    },
    {
      "midi": 62,
      "hit": false,
      "t": 113837.3729999996,
      "d": 329.72838333333493,
      "v": 37
    },
    {
      "midi": 64,
      "hit": false,
      "t": 113837.3729999996,
      "d": 331.0797291666677,
      "v": 27
    },
    {
      "midi": 59,
      "hit": false,
      "t": 113837.3729999996,
      "d": 336.48511249999865,
      "v": 49
    },
    {
      "midi": 38,
      "hit": false,
      "t": 114161.69599999984,
      "d": 513.5114166666608,
      "v": 38
    },
    {
      "midi": 59,
      "hit": false,
      "t": 114486.0189999996,
      "d": 321.62030833333847,
      "v": 50
    },
    {
      "midi": 55,
      "hit": false,
      "t": 114486.0189999996,
      "d": 333.78242083333316,
      "v": 50
    },
    {
      "midi": 62,
      "hit": false,
      "t": 114486.0189999996,
      "d": 336.48511249999865,
      "v": 48
    },
    {
      "midi": 62,
      "hit": false,
      "t": 114486.01899999996,
      "d": 324.32300000000396,
      "v": 56
    },
    {
      "midi": 61,
      "hit": false,
      "t": 114810.3419999996,
      "d": 314.8635791666602,
      "v": 51
    },
    {
      "midi": 45,
      "hit": false,
      "t": 114810.34199999983,
      "d": 467.565658333333,
      "v": 32
    },
    {
      "midi": 50,
      "hit": false,
      "t": 114810.34199999983,
      "d": 879.7261374999944,
      "v": 51
    },
    {
      "midi": 61,
      "hit": false,
      "t": 114810.34199999996,
      "d": 329.72838333333493,
      "v": 52
    },
    {
      "midi": 60,
      "hit": false,
      "t": 115134.66499999959,
      "d": 425.6739375000034,
      "v": 41
    },
    {
      "midi": 54,
      "hit": false,
      "t": 115134.66499999959,
      "d": 435.1333583333326,
      "v": 38
    },
    {
      "midi": 62,
      "hit": false,
      "t": 115134.66499999959,
      "d": 1808.100724999982,
      "v": 28
    },
    {
      "midi": 62,
      "hit": false,
      "t": 115134.66499999996,
      "d": 1772.9657333333307,
      "v": 51
    },
    {
      "midi": 38,
      "hit": false,
      "t": 115458.98799999982,
      "d": 416.21451666667417,
      "v": 41
    },
    {
      "midi": 54,
      "hit": false,
      "t": 115783.31099999958,
      "d": 370.2687583333318,
      "v": 24
    },
    {
      "midi": 60,
      "hit": false,
      "t": 115783.31099999958,
      "d": 375.67414166666276,
      "v": 27
    },
    {
      "midi": 50,
      "hit": false,
      "t": 115783.31099999983,
      "d": 322.9716541666712,
      "v": 56
    },
    {
      "midi": 49,
      "hit": false,
      "t": 116107.63399999983,
      "d": 327.02569166666945,
      "v": 50
    },
    {
      "midi": 60,
      "hit": false,
      "t": 116431.95699999957,
      "d": 347.2958791666606,
      "v": 28
    },
    {
      "midi": 54,
      "hit": false,
      "t": 116431.95699999957,
      "d": 348.64722499999334,
      "v": 20
    },
    {
      "midi": 50,
      "hit": false,
      "t": 116431.95699999983,
      "d": 354.05260833333887,
      "v": 46
    },
    {
      "midi": 38,
      "hit": false,
      "t": 116756.27999999984,
      "d": 644.5919625000097,
      "v": 53
    },
    {
      "midi": 62,
      "hit": false,
      "t": 117080.60299999957,
      "d": 314.8635791666602,
      "v": 57
    },
    {
      "midi": 60,
      "hit": false,
      "t": 117080.60299999957,
      "d": 335.13376666665135,
      "v": 40
    },
    {
      "midi": 54,
      "hit": false,
      "t": 117080.60299999957,
      "d": 343.2418416666478,
      "v": 36
    },
    {
      "midi": 50,
      "hit": false,
      "t": 117080.60299999984,
      "d": 256.7557083333377,
      "v": 63
    },
    {
      "midi": 62,
      "hit": false,
      "t": 117080.60299999996,
      "d": 312.1608874999947,
      "v": 63
    },
    {
      "midi": 61,
      "hit": false,
      "t": 117404.92599999956,
      "d": 322.97165416665666,
      "v": 51
    },
    {
      "midi": 43,
      "hit": false,
      "t": 117404.92599999985,
      "d": 506.7546874999971,
      "v": 45
    },
    {
      "midi": 50,
      "hit": false,
      "t": 117404.92599999985,
      "d": 883.7801749999926,
      "v": 56
    },
    {
      "midi": 61,
      "hit": false,
      "t": 117404.92599999995,
      "d": 314.8635791666602,
      "v": 48
    },
    {
      "midi": 55,
      "hit": false,
      "t": 117729.24899999955,
      "d": 325.6743458333367,
      "v": 32
    },
    {
      "midi": 59,
      "hit": false,
      "t": 117729.24899999955,
      "d": 325.6743458333367,
      "v": 25
    },
    {
      "midi": 62,
      "hit": false,
      "t": 117729.24899999955,
      "d": 1816.2088000000222,
      "v": 45
    },
    {
      "midi": 62,
      "hit": false,
      "t": 117729.24899999994,
      "d": 1770.2630416666652,
      "v": 51
    },
    {
      "midi": 38,
      "hit": false,
      "t": 118053.57199999984,
      "d": 654.0513833333389,
      "v": 49
    },
    {
      "midi": 59,
      "hit": false,
      "t": 118377.89499999955,
      "d": 160.81015416666924,
      "v": 24
    },
    {
      "midi": 55,
      "hit": false,
      "t": 118377.89499999955,
      "d": 162.16150000000198,
      "v": 24
    },
    {
      "midi": 50,
      "hit": false,
      "t": 118377.89499999984,
      "d": 320.2689625000057,
      "v": 61
    },
    {
      "midi": 57,
      "hit": false,
      "t": 118702.21799999956,
      "d": 187.83707083333866,
      "v": 28
    },
    {
      "midi": 54,
      "hit": false,
      "t": 118702.21799999956,
      "d": 222.97206250000454,
      "v": 29
    },
    {
      "midi": 52,
      "hit": false,
      "t": 118702.21799999985,
      "d": 321.6203083333239,
      "v": 54
    },
    {
      "midi": 59,
      "hit": false,
      "t": 119026.54099999956,
      "d": 493.24122916666965,
      "v": 31
    },
    {
      "midi": 55,
      "hit": false,
      "t": 119026.54099999956,
      "d": 495.94392083333514,
      "v": 31
    },
    {
      "midi": 50,
      "hit": false,
      "t": 119026.54099999984,
      "d": 321.62030833333847,
      "v": 51
    },
    {
      "midi": 38,
      "hit": false,
      "t": 119350.86399999984,
      "d": 647.2946541666752,
      "v": 50
    },
    {
      "midi": 62,
      "hit": false,
      "t": 119675.18699999957,
      "d": 320.2689625000057,
      "v": 56
    },
    {
      "midi": 59,
      "hit": false,
      "t": 119675.18699999957,
      "d": 359.45799166666984,
      "v": 43
    },
    {
      "midi": 55,
      "hit": false,
      "t": 119675.18699999957,
      "d": 362.1606833333353,
      "v": 42
    },
    {
      "midi": 50,
      "hit": false,
      "t": 119675.18699999985,
      "d": 328.3770375000022,
      "v": 54
    },
    {
      "midi": 62,
      "hit": false,
      "t": 119675.18699999993,
      "d": 318.917616666673,
      "v": 60
    },
    {
      "midi": 61,
      "hit": false,
      "t": 119999.50999999957,
      "d": 310.80954166666197,
      "v": 48
    },
    {
      "midi": 45,
      "hit": false,
      "t": 119999.50999999985,
      "d": 663.5108041666535,
      "v": 44
    },
    {
      "midi": 61,
      "hit": false,
      "t": 119999.50999999994,
      "d": 316.21492499999295,
      "v": 56
    },
    {
      "midi": 60,
      "hit": false,
      "t": 120323.83299999956,
      "d": 479.72777083332767,
      "v": 32
    },
    {
      "midi": 54,
      "hit": false,
      "t": 120323.83299999956,
      "d": 482.43046249999315,
      "v": 20
    },
    {
      "midi": 62,
      "hit": false,
      "t": 120323.83299999956,
      "d": 493.2412291666551,
      "v": 41
    },
    {
      "midi": 62,
      "hit": false,
      "t": 120323.83299999993,
      "d": 498.64661250000063,
      "v": 57
    },
    {
      "midi": 50,
      "hit": false,
      "t": 120648.15599999984,
      "d": 564.8625583333196,
      "v": 57
    },
    {
      "midi": 54,
      "hit": false,
      "t": 120972.47899999956,
      "d": 199.99918333333335,
      "v": 34
    },
    {
      "midi": 60,
      "hit": false,
      "t": 120972.47899999956,
      "d": 202.70187499999884,
      "v": 45
    },
    {
      "midi": 62,
      "hit": false,
      "t": 120972.47899999956,
      "d": 306.75550416666374,
      "v": 48
    },
    {
      "midi": 62,
      "hit": false,
      "t": 120972.47899999993,
      "d": 325.6743458333367,
      "v": 63
    },
    {
      "midi": 60,
      "hit": false,
      "t": 121296.80199999956,
      "d": 624.321775000004,
      "v": 54
    },
    {
      "midi": 64,
      "hit": false,
      "t": 121296.80199999956,
      "d": 624.321775000004,
      "v": 49
    },
    {
      "midi": 69,
      "hit": false,
      "t": 121296.80199999956,
      "d": 627.0244666666695,
      "v": 52
    },
    {
      "midi": 55,
      "hit": false,
      "t": 121296.80199999984,
      "d": 649.9973458333261,
      "v": 45
    },
    {
      "midi": 50,
      "hit": false,
      "t": 121296.80199999984,
      "d": 654.0513833333243,
      "v": 41
    },
    {
      "midi": 69,
      "hit": false,
      "t": 121296.80199999994,
      "d": 656.7540749999898,
      "v": 60
    },
    {
      "midi": 71,
      "hit": false,
      "t": 121945.44799999957,
      "d": 605.402933333331,
      "v": 45
    },
    {
      "midi": 63,
      "hit": false,
      "t": 121945.44799999957,
      "d": 610.808316666662,
      "v": 38
    },
    {
      "midi": 66,
      "hit": false,
      "t": 121945.44799999957,
      "d": 612.1596624999947,
      "v": 39
    },
    {
      "midi": 60,
      "hit": false,
      "t": 121945.44799999957,
      "d": 616.213699999993,
      "v": 44
    },
    {
      "midi": 38,
      "hit": false,
      "t": 121945.44799999983,
      "d": 632.4298500000004,
      "v": 53
    },
    {
      "midi": 54,
      "hit": false,
      "t": 121945.44799999983,
      "d": 632.4298500000004,
      "v": 56
    },
    {
      "midi": 71,
      "hit": false,
      "t": 121945.44799999993,
      "d": 605.402933333331,
      "v": 59
    },
    {
      "midi": 43,
      "hit": false,
      "t": 122541.39151249983,
      "d": 4135.118249999985,
      "v": 31
    },
    {
      "midi": 50,
      "hit": false,
      "t": 122572.4724666665,
      "d": 4102.685949999985,
      "v": 44
    },
    {
      "midi": 79,
      "hit": false,
      "t": 122594.09399999956,
      "d": 106.75632083333039,
      "v": 56
    },
    {
      "midi": 52,
      "hit": false,
      "t": 122594.09399999982,
      "d": 4086.4697999999917,
      "v": 28
    },
    {
      "midi": 67,
      "hit": false,
      "t": 122594.09399999992,
      "d": 1298.643345833334,
      "v": 44
    },
    {
      "midi": 59,
      "hit": false,
      "t": 122599.49938333315,
      "d": 4086.4697999999917,
      "v": 46
    },
    {
      "midi": 81,
      "hit": false,
      "t": 122702.20166666622,
      "d": 120.26977916665783,
      "v": 51
    },
    {
      "midi": 79,
      "hit": false,
      "t": 122810.30933333289,
      "d": 114.86439583332685,
      "v": 44
    },
    {
      "midi": 76,
      "hit": false,
      "t": 122918.41699999955,
      "d": 171.62092083333118,
      "v": 55
    },
    {
      "midi": 74,
      "hit": false,
      "t": 123080.57849999955,
      "d": 160.81015416666924,
      "v": 61
    },
    {
      "midi": 71,
      "hit": false,
      "t": 123242.73999999955,
      "d": 171.62092083333118,
      "v": 57
    },
    {
      "midi": 69,
      "hit": false,
      "t": 123404.90149999956,
      "d": 174.32361249999667,
      "v": 51
    },
    {
      "midi": 67,
      "hit": false,
      "t": 123567.06299999956,
      "d": 163.51284583332017,
      "v": 57
    },
    {
      "midi": 64,
      "hit": false,
      "t": 123729.22449999955,
      "d": 148.64804166666,
      "v": 38
    },
    {
      "midi": 62,
      "hit": false,
      "t": 123892.73734583287,
      "d": 514.8627624999936,
      "v": 59
    },
    {
      "midi": 59,
      "hit": false,
      "t": 124241.38457083286,
      "d": 943.2393916666624,
      "v": 51
    },
    {
      "midi": 62,
      "hit": false,
      "t": 124557.59949583287,
      "d": 314.8635791666602,
      "v": 49
    },
    {
      "midi": 64,
      "hit": false,
      "t": 124869.76038333286,
      "d": 318.91761666665843,
      "v": 58
    },
    {
      "midi": 67,
      "hit": false,
      "t": 125188.67799999952,
      "d": 162.16150000000198,
      "v": 75
    },
    {
      "midi": 69,
      "hit": false,
      "t": 125350.83949999952,
      "d": 158.10746250000375,
      "v": 73
    },
    {
      "midi": 71,
      "hit": false,
      "t": 125513.00099999952,
      "d": 159.4588083333365,
      "v": 79
    },
    {
      "midi": 74,
      "hit": false,
      "t": 125675.16249999953,
      "d": 163.51284583333472,
      "v": 81
    },
    {
      "midi": 76,
      "hit": false,
      "t": 125837.32399999953,
      "d": 148.64804166666,
      "v": 84
    },
    {
      "midi": 79,
      "hit": false,
      "t": 126161.64699999952,
      "d": 133.7832374999998,
      "v": 85
    },
    {
      "midi": 83,
      "hit": false,
      "t": 126485.96999999952,
      "d": 112.16170416666137,
      "v": 90
    },
    {
      "midi": 81,
      "hit": false,
      "t": 126810.29299999951,
      "d": 128.37785416666884,
      "v": 66
    },
    {
      "midi": 86,
      "hit": false,
      "t": 126810.29299999951,
      "d": 133.7832374999998,
      "v": 84
    },
    {
      "midi": 78,
      "hit": false,
      "t": 126810.29299999951,
      "d": 136.4859291666653,
      "v": 63
    },
    {
      "midi": 50,
      "hit": false,
      "t": 126810.29299999982,
      "d": 133.7832374999998,
      "v": 69
    },
    {
      "midi": 60,
      "hit": false,
      "t": 126810.29299999982,
      "d": 136.4859291666653,
      "v": 53
    },
    {
      "midi": 43,
      "hit": false,
      "t": 127098.12966249982,
      "d": 470.2683499999839,
      "v": 66
    },
    {
      "midi": 83,
      "hit": false,
      "t": 127134.61599999951,
      "d": 454.05220000000554,
      "v": 83
    },
    {
      "midi": 86,
      "hit": false,
      "t": 127134.61599999951,
      "d": 454.05220000000554,
      "v": 90
    },
    {
      "midi": 91,
      "hit": false,
      "t": 127134.61599999951,
      "d": 454.05220000000554,
      "v": 85
    },
    {
      "midi": 59,
      "hit": false,
      "t": 127134.61599999982,
      "d": 405.4037499999977,
      "v": 68
    },
    {
      "midi": 50,
      "hit": false,
      "t": 127134.61599999982,
      "d": 421.6198999999906,
      "v": 68
    }
  ]
}