{
  "jsonPath": "Unknown/Unknown/Juan DOultremont/introduction.json",
  "path": "Unknown\\Unknown\\Juan DOultremont\\Introduction.mid",
  "name": "Introduction",
  "difficulty": "Advanced",
  "bpm": 120,
  "notes": [
    {
      "midi": 62,
      "hit": false,
      "t": 8372.088,
      "d": 209.30220000000008,
      "v": 87
    },
    {
      "midi": 52,
      "hit": false,
      "t": 8372.088,
      "d": 2412.789249999998,
      "v": 87
    },
    {
      "midi": 55,
      "hit": false,
      "t": 8372.088,
      "d": 2465.1147999999976,
      "v": 87
    },
    {
      "midi": 64,
      "hit": false,
      "t": 8546.5065,
      "d": 220.93009999999958,
      "v": 87
    },
    {
      "midi": 64,
      "hit": false,
      "t": 9069.761999999999,
      "d": 982.5575499999995,
      "v": 86
    },
    {
      "midi": 62,
      "hit": false,
      "t": 9418.598999999998,
      "d": 1604.6501999999982,
      "v": 84
    },
    {
      "midi": 57,
      "hit": false,
      "t": 11162.783999999996,
      "d": 2540.6961499999998,
      "v": 52
    },
    {
      "midi": 52,
      "hit": false,
      "t": 11162.783999999996,
      "d": 2558.137999999999,
      "v": 42
    },
    {
      "midi": 55,
      "hit": false,
      "t": 11162.783999999996,
      "d": 2569.7658999999985,
      "v": 49
    },
    {
      "midi": 61,
      "hit": false,
      "t": 11162.783999999996,
      "d": 2587.2077499999978,
      "v": 80
    },
    {
      "midi": 57,
      "hit": false,
      "t": 13953.479999999994,
      "d": 1261.6271500000003,
      "v": 41
    },
    {
      "midi": 54,
      "hit": false,
      "t": 13953.479999999994,
      "d": 1284.882950000001,
      "v": 38
    },
    {
      "midi": 66,
      "hit": false,
      "t": 13953.479999999994,
      "d": 1389.5340500000002,
      "v": 47
    },
    {
      "midi": 62,
      "hit": false,
      "t": 13953.479999999994,
      "d": 1395.348,
      "v": 67
    },
    {
      "midi": 61,
      "hit": false,
      "t": 15343.014049999994,
      "d": 1302.3248000000021,
      "v": 67
    },
    {
      "midi": 64,
      "hit": false,
      "t": 15348.827999999994,
      "d": 1156.9760500000011,
      "v": 38
    },
    {
      "midi": 52,
      "hit": false,
      "t": 15348.827999999994,
      "d": 1348.8364000000038,
      "v": 28
    },
    {
      "midi": 55,
      "hit": false,
      "t": 15348.827999999994,
      "d": 1360.4643000000033,
      "v": 45
    },
    {
      "midi": 59,
      "hit": false,
      "t": 16744.175999999996,
      "d": 366.2788499999988,
      "v": 75
    },
    {
      "midi": 64,
      "hit": false,
      "t": 16744.175999999996,
      "d": 2656.9751499999984,
      "v": 36
    },
    {
      "midi": 50,
      "hit": false,
      "t": 16744.175999999996,
      "d": 2825.5796999999984,
      "v": 40
    },
    {
      "midi": 57,
      "hit": false,
      "t": 17127.896699999994,
      "d": 139.53480000000127,
      "v": 61
    },
    {
      "midi": 59,
      "hit": false,
      "t": 17284.873349999994,
      "d": 1930.2314000000006,
      "v": 66
    },
    {
      "midi": 55,
      "hit": false,
      "t": 19534.871999999996,
      "d": 17.44184999999925,
      "v": 45
    },
    {
      "midi": 62,
      "hit": false,
      "t": 19534.871999999996,
      "d": 209.30219999999827,
      "v": 80
    },
    {
      "midi": 52,
      "hit": false,
      "t": 19534.871999999996,
      "d": 2412.789249999998,
      "v": 42
    },
    {
      "midi": 64,
      "hit": false,
      "t": 19709.290499999996,
      "d": 220.93009999999776,
      "v": 61
    },
    {
      "midi": 64,
      "hit": false,
      "t": 20232.545999999995,
      "d": 982.5575499999977,
      "v": 86
    },
    {
      "midi": 62,
      "hit": false,
      "t": 20581.382999999994,
      "d": 1604.6502,
      "v": 84
    },
    {
      "midi": 57,
      "hit": false,
      "t": 22325.567999999996,
      "d": 2540.6961499999998,
      "v": 52
    },
    {
      "midi": 52,
      "hit": false,
      "t": 22325.567999999996,
      "d": 2558.137999999999,
      "v": 42
    },
    {
      "midi": 55,
      "hit": false,
      "t": 22325.567999999996,
      "d": 2569.7658999999985,
      "v": 49
    },
    {
      "midi": 61,
      "hit": false,
      "t": 22325.567999999996,
      "d": 2587.2077499999978,
      "v": 80
    },
    {
      "midi": 57,
      "hit": false,
      "t": 25116.263999999992,
      "d": 1261.6271500000003,
      "v": 41
    },
    {
      "midi": 54,
      "hit": false,
      "t": 25116.263999999992,
      "d": 1284.8829499999993,
      "v": 38
    },
    {
      "midi": 66,
      "hit": false,
      "t": 25116.263999999992,
      "d": 1389.5340499999984,
      "v": 47
    },
    {
      "midi": 62,
      "hit": false,
      "t": 25116.263999999992,
      "d": 1395.3479999999981,
      "v": 67
    },
    {
      "midi": 61,
      "hit": false,
      "t": 26505.79804999999,
      "d": 1302.3248000000021,
      "v": 67
    },
    {
      "midi": 64,
      "hit": false,
      "t": 26511.61199999999,
      "d": 1156.9760500000011,
      "v": 38
    },
    {
      "midi": 52,
      "hit": false,
      "t": 26511.61199999999,
      "d": 1348.8364000000038,
      "v": 28
    },
    {
      "midi": 55,
      "hit": false,
      "t": 26511.61199999999,
      "d": 1360.4643000000033,
      "v": 45
    },
    {
      "midi": 59,
      "hit": false,
      "t": 27906.959999999992,
      "d": 366.2788499999988,
      "v": 75
    },
    {
      "midi": 64,
      "hit": false,
      "t": 27906.959999999992,
      "d": 2656.9751499999984,
      "v": 36
    },
    {
      "midi": 55,
      "hit": false,
      "t": 27906.959999999992,
      "d": 2808.137849999999,
      "v": 43
    },
    {
      "midi": 50,
      "hit": false,
      "t": 27906.959999999992,
      "d": 2825.5796999999984,
      "v": 40
    },
    {
      "midi": 57,
      "hit": false,
      "t": 28290.68069999999,
      "d": 139.53480000000127,
      "v": 61
    },
    {
      "midi": 59,
      "hit": false,
      "t": 28447.65734999999,
      "d": 1930.2314000000006,
      "v": 66
    },
    {
      "midi": 62,
      "hit": false,
      "t": 30697.65599999999,
      "d": 226.74404999999751,
      "v": 67
    },
    {
      "midi": 67,
      "hit": false,
      "t": 30697.65599999999,
      "d": 232.55799999999726,
      "v": 79
    },
    {
      "midi": 59,
      "hit": false,
      "t": 31395.329999999987,
      "d": 273.25564999999915,
      "v": 71
    },
    {
      "midi": 62,
      "hit": false,
      "t": 31395.329999999987,
      "d": 279.0695999999989,
      "v": 64
    },
    {
      "midi": 59,
      "hit": false,
      "t": 32075.562149999987,
      "d": 1325.5805999999975,
      "v": 44
    },
    {
      "midi": 62,
      "hit": false,
      "t": 32081.376099999987,
      "d": 1308.1387499999983,
      "v": 43
    },
    {
      "midi": 55,
      "hit": false,
      "t": 32790.677999999985,
      "d": 668.6042499999967,
      "v": 45
    },
    {
      "midi": 52,
      "hit": false,
      "t": 32790.677999999985,
      "d": 674.4182000000001,
      "v": 47
    },
    {
      "midi": 71,
      "hit": false,
      "t": 33488.351999999984,
      "d": 325.58120000000054,
      "v": 71
    },
    {
      "midi": 64,
      "hit": false,
      "t": 33488.351999999984,
      "d": 738.371650000001,
      "v": 35
    },
    {
      "midi": 55,
      "hit": false,
      "t": 33499.979899999984,
      "d": 738.371650000001,
      "v": 32
    },
    {
      "midi": 69,
      "hit": false,
      "t": 33837.188999999984,
      "d": 34.8836999999985,
      "v": 75
    },
    {
      "midi": 71,
      "hit": false,
      "t": 34186.02599999998,
      "d": 302.32540000000154,
      "v": 72
    },
    {
      "midi": 59,
      "hit": false,
      "t": 34186.02599999998,
      "d": 575.5810500000007,
      "v": 35
    },
    {
      "midi": 52,
      "hit": false,
      "t": 34186.02599999998,
      "d": 581.3950000000041,
      "v": 40
    },
    {
      "midi": 69,
      "hit": false,
      "t": 34534.86299999998,
      "d": 75.58135000000038,
      "v": 73
    },
    {
      "midi": 64,
      "hit": false,
      "t": 34889.513949999986,
      "d": 645.3484499999977,
      "v": 38
    },
    {
      "midi": 55,
      "hit": false,
      "t": 34901.141849999985,
      "d": 633.7205499999982,
      "v": 37
    },
    {
      "midi": 74,
      "hit": false,
      "t": 35232.53699999998,
      "d": 34.8836999999985,
      "v": 76
    },
    {
      "midi": 69,
      "hit": false,
      "t": 35232.53699999998,
      "d": 40.697650000001886,
      "v": 75
    },
    {
      "midi": 74,
      "hit": false,
      "t": 35581.37399999998,
      "d": 145.34874999999738,
      "v": 71
    },
    {
      "midi": 69,
      "hit": false,
      "t": 35581.37399999998,
      "d": 162.79060000000027,
      "v": 70
    },
    {
      "midi": 52,
      "hit": false,
      "t": 35581.37399999998,
      "d": 569.7670999999973,
      "v": 47
    },
    {
      "midi": 59,
      "hit": false,
      "t": 35593.00189999998,
      "d": 558.1391999999978,
      "v": 39
    },
    {
      "midi": 76,
      "hit": false,
      "t": 35755.79249999998,
      "d": 110.46504999999888,
      "v": 51
    },
    {
      "midi": 71,
      "hit": false,
      "t": 35755.79249999998,
      "d": 116.27900000000227,
      "v": 61
    },
    {
      "midi": 74,
      "hit": false,
      "t": 35930.21099999998,
      "d": 34.8836999999985,
      "v": 72
    },
    {
      "midi": 69,
      "hit": false,
      "t": 35930.21099999998,
      "d": 81.3952999999965,
      "v": 63
    },
    {
      "midi": 62,
      "hit": false,
      "t": 36279.04799999998,
      "d": 226.74405000000115,
      "v": 67
    },
    {
      "midi": 67,
      "hit": false,
      "t": 36279.04799999998,
      "d": 232.55800000000454,
      "v": 79
    },
    {
      "midi": 59,
      "hit": false,
      "t": 36976.72199999999,
      "d": 273.25564999999915,
      "v": 71
    },
    {
      "midi": 62,
      "hit": false,
      "t": 36976.72199999999,
      "d": 279.06960000000254,
      "v": 64
    },
    {
      "midi": 59,
      "hit": false,
      "t": 37656.95414999999,
      "d": 1325.5806000000011,
      "v": 44
    },
    {
      "midi": 62,
      "hit": false,
      "t": 37662.768099999994,
      "d": 1308.1387499999983,
      "v": 43
    },
    {
      "midi": 55,
      "hit": false,
      "t": 38372.06999999999,
      "d": 668.6042499999967,
      "v": 45
    },
    {
      "midi": 52,
      "hit": false,
      "t": 38372.06999999999,
      "d": 674.4182000000001,
      "v": 47
    },
    {
      "midi": 71,
      "hit": false,
      "t": 39069.74399999999,
      "d": 325.58120000000054,
      "v": 71
    },
    {
      "midi": 64,
      "hit": false,
      "t": 39069.74399999999,
      "d": 738.371650000001,
      "v": 35
    },
    {
      "midi": 55,
      "hit": false,
      "t": 39081.37189999999,
      "d": 738.371650000001,
      "v": 32
    },
    {
      "midi": 69,
      "hit": false,
      "t": 39418.58099999999,
      "d": 34.8836999999985,
      "v": 75
    },
    {
      "midi": 71,
      "hit": false,
      "t": 39767.41799999999,
      "d": 302.32540000000154,
      "v": 72
    },
    {
      "midi": 59,
      "hit": false,
      "t": 39767.41799999999,
      "d": 575.5810500000007,
      "v": 35
    },
    {
      "midi": 52,
      "hit": false,
      "t": 39767.41799999999,
      "d": 581.3950000000041,
      "v": 40
    },
    {
      "midi": 69,
      "hit": false,
      "t": 40116.25499999999,
      "d": 75.58135000000038,
      "v": 73
    },
    {
      "midi": 64,
      "hit": false,
      "t": 40470.90594999999,
      "d": 645.3484499999977,
      "v": 38
    },
    {
      "midi": 55,
      "hit": false,
      "t": 40482.53384999999,
      "d": 633.7205499999982,
      "v": 37
    },
    {
      "midi": 74,
      "hit": false,
      "t": 40813.92899999999,
      "d": 34.8836999999985,
      "v": 76
    },
    {
      "midi": 69,
      "hit": false,
      "t": 40813.92899999999,
      "d": 40.697650000001886,
      "v": 75
    },
    {
      "midi": 74,
      "hit": false,
      "t": 41162.76599999999,
      "d": 145.34874999999738,
      "v": 71
    },
    {
      "midi": 69,
      "hit": false,
      "t": 41162.76599999999,
      "d": 162.79060000000027,
      "v": 70
    },
    {
      "midi": 52,
      "hit": false,
      "t": 41162.76599999999,
      "d": 569.7670999999973,
      "v": 47
    },
    {
      "midi": 59,
      "hit": false,
      "t": 41174.39389999999,
      "d": 558.1391999999978,
      "v": 39
    },
    {
      "midi": 76,
      "hit": false,
      "t": 41337.18449999999,
      "d": 110.46504999999888,
      "v": 51
    },
    {
      "midi": 71,
      "hit": false,
      "t": 41337.18449999999,
      "d": 116.27900000000227,
      "v": 61
    },
    {
      "midi": 74,
      "hit": false,
      "t": 41511.60299999999,
      "d": 34.8836999999985,
      "v": 72
    },
    {
      "midi": 69,
      "hit": false,
      "t": 41511.60299999999,
      "d": 81.3952999999965,
      "v": 63
    },
    {
      "midi": 67,
      "hit": false,
      "t": 41860.43999999999,
      "d": 1104.6505000000034,
      "v": 50
    },
    {
      "midi": 64,
      "hit": false,
      "t": 41860.43999999999,
      "d": 1116.2784000000029,
      "v": 39
    },
    {
      "midi": 71,
      "hit": false,
      "t": 41860.43999999999,
      "d": 1151.1621000000014,
      "v": 50
    },
    {
      "midi": 74,
      "hit": false,
      "t": 41866.25394999999,
      "d": 1122.092349999999,
      "v": 38
    },
    {
      "midi": 64,
      "hit": false,
      "t": 43267.41589999999,
      "d": 1325.5806000000011,
      "v": 41
    },
    {
      "midi": 71,
      "hit": false,
      "t": 43267.41589999999,
      "d": 1331.3945500000045,
      "v": 45
    },
    {
      "midi": 74,
      "hit": false,
      "t": 43273.229849999996,
      "d": 1360.4642999999996,
      "v": 56
    },
    {
      "midi": 67,
      "hit": false,
      "t": 43284.857749999996,
      "d": 1313.9527000000016,
      "v": 48
    },
    {
      "midi": 55,
      "hit": false,
      "t": 44651.136,
      "d": 877.9064500000022,
      "v": 38
    },
    {
      "midi": 72,
      "hit": false,
      "t": 44651.136,
      "d": 901.1622500000012,
      "v": 47
    },
    {
      "midi": 64,
      "hit": false,
      "t": 44651.136,
      "d": 1215.115549999995,
      "v": 42
    },
    {
      "midi": 69,
      "hit": false,
      "t": 44656.94995,
      "d": 1215.115549999995,
      "v": 50
    },
    {
      "midi": 74,
      "hit": false,
      "t": 45697.647,
      "d": 1197.6736999999994,
      "v": 41
    },
    {
      "midi": 55,
      "hit": false,
      "t": 45697.647,
      "d": 1529.068849999996,
      "v": 42
    },
    {
      "midi": 64,
      "hit": false,
      "t": 46046.484,
      "d": 1209.3015999999989,
      "v": 39
    },
    {
      "midi": 57,
      "hit": false,
      "t": 46058.111899999996,
      "d": 1244.1852999999974,
      "v": 43
    },
    {
      "midi": 69,
      "hit": false,
      "t": 46058.111899999996,
      "d": 1255.8131999999969,
      "v": 50
    },
    {
      "midi": 55,
      "hit": false,
      "t": 47441.831999999995,
      "d": 877.9064500000022,
      "v": 38
    },
    {
      "midi": 72,
      "hit": false,
      "t": 47441.831999999995,
      "d": 901.1622500000012,
      "v": 47
    },
    {
      "midi": 64,
      "hit": false,
      "t": 47441.831999999995,
      "d": 1215.115549999995,
      "v": 42
    },
    {
      "midi": 69,
      "hit": false,
      "t": 47447.64595,
      "d": 1215.115549999995,
      "v": 50
    },
    {
      "midi": 74,
      "hit": false,
      "t": 48488.34299999999,
      "d": 1197.6736999999994,
      "v": 41
    },
    {
      "midi": 55,
      "hit": false,
      "t": 48488.34299999999,
      "d": 1529.068849999996,
      "v": 42
    },
    {
      "midi": 64,
      "hit": false,
      "t": 48837.17999999999,
      "d": 1209.3015999999989,
      "v": 39
    },
    {
      "midi": 57,
      "hit": false,
      "t": 48848.80789999999,
      "d": 1244.1852999999974,
      "v": 43
    },
    {
      "midi": 69,
      "hit": false,
      "t": 48848.80789999999,
      "d": 1255.8131999999969,
      "v": 50
    },
    {
      "midi": 59,
      "hit": false,
      "t": 50232.52799999999,
      "d": 1412.789850000001,
      "v": 48
    },
    {
      "midi": 62,
      "hit": false,
      "t": 50232.52799999999,
      "d": 1412.789850000001,
      "v": 48
    },
    {
      "midi": 54,
      "hit": false,
      "t": 50232.52799999999,
      "d": 1441.8596000000034,
      "v": 48
    },
    {
      "midi": 59,
      "hit": false,
      "t": 51976.712999999996,
      "d": 186.04639999999927,
      "v": 59
    },
    {
      "midi": 54,
      "hit": false,
      "t": 51976.712999999996,
      "d": 220.93009999999776,
      "v": 54
    },
    {
      "midi": 62,
      "hit": false,
      "t": 51976.712999999996,
      "d": 220.93009999999776,
      "v": 52
    },
    {
      "midi": 59,
      "hit": false,
      "t": 52325.549999999996,
      "d": 581.3949999999968,
      "v": 66
    },
    {
      "midi": 62,
      "hit": false,
      "t": 52325.549999999996,
      "d": 639.5344999999943,
      "v": 66
    },
    {
      "midi": 54,
      "hit": false,
      "t": 52674.386999999995,
      "d": 290.69749999999476,
      "v": 60
    },
    {
      "midi": 67,
      "hit": false,
      "t": 53023.22399999999,
      "d": 1104.6505000000034,
      "v": 50
    },
    {
      "midi": 64,
      "hit": false,
      "t": 53023.22399999999,
      "d": 1116.2784000000029,
      "v": 39
    },
    {
      "midi": 71,
      "hit": false,
      "t": 53023.22399999999,
      "d": 1151.1621000000014,
      "v": 50
    },
    {
      "midi": 74,
      "hit": false,
      "t": 53029.03794999999,
      "d": 1122.092349999999,
      "v": 38
    },
    {
      "midi": 64,
      "hit": false,
      "t": 54430.19989999999,
      "d": 1325.5806000000011,
      "v": 41
    },
    {
      "midi": 71,
      "hit": false,
      "t": 54430.19989999999,
      "d": 1331.3945500000045,
      "v": 45
    },
    {
      "midi": 74,
      "hit": false,
      "t": 54436.013849999996,
      "d": 1360.4642999999996,
      "v": 56
    },
    {
      "midi": 67,
      "hit": false,
      "t": 54447.641749999995,
      "d": 1313.9527000000016,
      "v": 48
    },
    {
      "midi": 55,
      "hit": false,
      "t": 55813.92,
      "d": 877.9064500000022,
      "v": 38
    },
    {
      "midi": 72,
      "hit": false,
      "t": 55813.92,
      "d": 901.1622500000012,
      "v": 47
    },
    {
      "midi": 64,
      "hit": false,
      "t": 55813.92,
      "d": 1215.115549999995,
      "v": 42
    },
    {
      "midi": 69,
      "hit": false,
      "t": 55819.73395,
      "d": 1215.115549999995,
      "v": 50
    },
    {
      "midi": 74,
      "hit": false,
      "t": 56860.431,
      "d": 1197.6736999999994,
      "v": 41
    },
    {
      "midi": 55,
      "hit": false,
      "t": 56860.431,
      "d": 1529.068849999996,
      "v": 42
    },
    {
      "midi": 64,
      "hit": false,
      "t": 57209.268,
      "d": 1209.3015999999989,
      "v": 39
    },
    {
      "midi": 57,
      "hit": false,
      "t": 57220.895899999996,
      "d": 1244.1852999999974,
      "v": 43
    },
    {
      "midi": 69,
      "hit": false,
      "t": 57220.895899999996,
      "d": 1255.8131999999969,
      "v": 50
    },
    {
      "midi": 55,
      "hit": false,
      "t": 58604.615999999995,
      "d": 877.9064500000022,
      "v": 38
    },
    {
      "midi": 72,
      "hit": false,
      "t": 58604.615999999995,
      "d": 901.1622500000012,
      "v": 47
    },
    {
      "midi": 64,
      "hit": false,
      "t": 58604.615999999995,
      "d": 1215.115549999995,
      "v": 42
    },
    {
      "midi": 69,
      "hit": false,
      "t": 58610.42995,
      "d": 1215.115549999995,
      "v": 50
    },
    {
      "midi": 74,
      "hit": false,
      "t": 59651.12699999999,
      "d": 1197.6736999999994,
      "v": 41
    },
    {
      "midi": 55,
      "hit": false,
      "t": 59651.12699999999,
      "d": 1529.068849999996,
      "v": 42
    },
    {
      "midi": 64,
      "hit": false,
      "t": 59999.96399999999,
      "d": 1209.3015999999989,
      "v": 39
    },
    {
      "midi": 57,
      "hit": false,
      "t": 60011.59189999999,
      "d": 1244.1852999999974,
      "v": 43
    },
    {
      "midi": 69,
      "hit": false,
      "t": 60011.59189999999,
      "d": 1255.8131999999969,
      "v": 50
    },
    {
      "midi": 54,
      "hit": false,
      "t": 61395.31199999999,
      "d": 1587.2083500000008,
      "v": 43
    },
    {
      "midi": 62,
      "hit": false,
      "t": 61395.31199999999,
      "d": 2331.393949999998,
      "v": 34
    },
    {
      "midi": 69,
      "hit": false,
      "t": 61395.31199999999,
      "d": 2337.2079000000012,
      "v": 56
    },
    {
      "midi": 66,
      "hit": false,
      "t": 61395.31199999999,
      "d": 2354.649750000004,
      "v": 45
    },
    {
      "midi": 54,
      "hit": false,
      "t": 63139.49699999999,
      "d": 98.83714999999938,
      "v": 52
    },
    {
      "midi": 55,
      "hit": false,
      "t": 63488.33399999999,
      "d": 151.16270000000077,
      "v": 63
    },
    {
      "midi": 54,
      "hit": false,
      "t": 63662.75249999999,
      "d": 133.72085000000516,
      "v": 63
    },
    {
      "midi": 55,
      "hit": false,
      "t": 63837.170999999995,
      "d": 87.20924999999988,
      "v": 54
    },
    {
      "midi": 54,
      "hit": false,
      "t": 64011.589499999995,
      "d": 1354.6503500000035,
      "v": 68
    },
    {
      "midi": 69,
      "hit": false,
      "t": 64011.589499999995,
      "d": 1412.789850000001,
      "v": 68
    },
    {
      "midi": 62,
      "hit": false,
      "t": 64011.589499999995,
      "d": 1418.6038000000044,
      "v": 68
    },
    {
      "midi": 66,
      "hit": false,
      "t": 64011.589499999995,
      "d": 1482.5572500000053,
      "v": 68
    },
    {
      "midi": 54,
      "hit": false,
      "t": 65581.356,
      "d": 529.0694499999954,
      "v": 85
    },
    {
      "midi": 62,
      "hit": false,
      "t": 65581.356,
      "d": 1215.1155500000023,
      "v": 85
    },
    {
      "midi": 66,
      "hit": false,
      "t": 65581.356,
      "d": 1215.1155500000023,
      "v": 85
    },
    {
      "midi": 69,
      "hit": false,
      "t": 65581.356,
      "d": 1215.1155500000023,
      "v": 85
    },
    {
      "midi": 54,
      "hit": false,
      "t": 66279.03,
      "d": 412.7904500000004,
      "v": 80
    },
    {
      "midi": 67,
      "hit": false,
      "t": 66976.704,
      "d": 1104.6504999999888,
      "v": 50
    },
    {
      "midi": 64,
      "hit": false,
      "t": 66976.704,
      "d": 1116.2783999999956,
      "v": 39
    },
    {
      "midi": 71,
      "hit": false,
      "t": 66976.704,
      "d": 1151.1621000000014,
      "v": 50
    },
    {
      "midi": 74,
      "hit": false,
      "t": 66982.51795,
      "d": 1122.0923500000063,
      "v": 38
    },
    {
      "midi": 64,
      "hit": false,
      "t": 68383.6799,
      "d": 1325.5806000000011,
      "v": 41
    },
    {
      "midi": 71,
      "hit": false,
      "t": 68383.6799,
      "d": 1331.3945499999973,
      "v": 45
    },
    {
      "midi": 74,
      "hit": false,
      "t": 68389.49385,
      "d": 1360.464300000007,
      "v": 56
    },
    {
      "midi": 67,
      "hit": false,
      "t": 68401.12175,
      "d": 1313.9526999999944,
      "v": 48
    },
    {
      "midi": 55,
      "hit": false,
      "t": 69767.40000000001,
      "d": 877.906449999995,
      "v": 38
    },
    {
      "midi": 72,
      "hit": false,
      "t": 69767.40000000001,
      "d": 901.162249999994,
      "v": 47
    },
    {
      "midi": 64,
      "hit": false,
      "t": 69767.40000000001,
      "d": 1215.1155500000023,
      "v": 42
    },
    {
      "midi": 69,
      "hit": false,
      "t": 69773.21395,
      "d": 1215.1155500000023,
      "v": 50
    },
    {
      "midi": 74,
      "hit": false,
      "t": 70813.91100000001,
      "d": 1197.6736999999994,
      "v": 41
    },
    {
      "midi": 55,
      "hit": false,
      "t": 70813.91100000001,
      "d": 1529.068849999996,
      "v": 42
    },
    {
      "midi": 64,
      "hit": false,
      "t": 71162.748,
      "d": 1209.3015999999916,
      "v": 39
    },
    {
      "midi": 57,
      "hit": false,
      "t": 71174.37590000001,
      "d": 1244.1852999999828,
      "v": 43
    },
    {
      "midi": 69,
      "hit": false,
      "t": 71174.37590000001,
      "d": 1255.8131999999896,
      "v": 50
    },
    {
      "midi": 55,
      "hit": false,
      "t": 72558.096,
      "d": 877.906449999995,
      "v": 38
    },
    {
      "midi": 72,
      "hit": false,
      "t": 72558.096,
      "d": 901.162249999994,
      "v": 47
    },
    {
      "midi": 64,
      "hit": false,
      "t": 72558.096,
      "d": 1215.1155500000023,
      "v": 42
    },
    {
      "midi": 69,
      "hit": false,
      "t": 72563.90995,
      "d": 1215.1155500000023,
      "v": 50
    },
    {
      "midi": 74,
      "hit": false,
      "t": 73604.607,
      "d": 1197.6736999999994,
      "v": 41
    },
    {
      "midi": 55,
      "hit": false,
      "t": 73604.607,
      "d": 1529.068849999996,
      "v": 42
    },
    {
      "midi": 64,
      "hit": false,
      "t": 73953.444,
      "d": 1209.3015999999916,
      "v": 39
    },
    {
      "midi": 57,
      "hit": false,
      "t": 73965.07190000001,
      "d": 1244.1852999999828,
      "v": 43
    },
    {
      "midi": 69,
      "hit": false,
      "t": 73965.07190000001,
      "d": 1255.8131999999896,
      "v": 50
    },
    {
      "midi": 59,
      "hit": false,
      "t": 75348.792,
      "d": 1412.789850000001,
      "v": 48
    },
    {
      "midi": 62,
      "hit": false,
      "t": 75348.792,
      "d": 1412.789850000001,
      "v": 48
    },
    {
      "midi": 54,
      "hit": false,
      "t": 75348.792,
      "d": 1441.8595999999961,
      "v": 48
    },
    {
      "midi": 59,
      "hit": false,
      "t": 77092.977,
      "d": 186.04640000000654,
      "v": 59
    },
    {
      "midi": 54,
      "hit": false,
      "t": 77092.977,
      "d": 220.93010000001232,
      "v": 54
    },
    {
      "midi": 62,
      "hit": false,
      "t": 77092.977,
      "d": 220.93010000001232,
      "v": 52
    },
    {
      "midi": 59,
      "hit": false,
      "t": 77441.81400000001,
      "d": 581.3950000000041,
      "v": 66
    },
    {
      "midi": 62,
      "hit": false,
      "t": 77441.81400000001,
      "d": 639.5345000000088,
      "v": 66
    },
    {
      "midi": 54,
      "hit": false,
      "t": 77790.65100000001,
      "d": 290.6975000000093,
      "v": 60
    },
    {
      "midi": 67,
      "hit": false,
      "t": 78139.48800000003,
      "d": 1104.6505000000034,
      "v": 50
    },
    {
      "midi": 64,
      "hit": false,
      "t": 78139.48800000003,
      "d": 1116.2784000000102,
      "v": 39
    },
    {
      "midi": 71,
      "hit": false,
      "t": 78139.48800000003,
      "d": 1151.162100000016,
      "v": 50
    },
    {
      "midi": 74,
      "hit": false,
      "t": 78145.30195000002,
      "d": 1122.0923500000208,
      "v": 38
    },
    {
      "midi": 64,
      "hit": false,
      "t": 79546.46390000005,
      "d": 1325.5806000000011,
      "v": 41
    },
    {
      "midi": 71,
      "hit": false,
      "t": 79546.46390000005,
      "d": 1331.3945499999973,
      "v": 45
    },
    {
      "midi": 74,
      "hit": false,
      "t": 79552.27785000004,
      "d": 1360.464300000007,
      "v": 56
    },
    {
      "midi": 67,
      "hit": false,
      "t": 79563.90575000005,
      "d": 1313.9526999999944,
      "v": 48
    },
    {
      "midi": 55,
      "hit": false,
      "t": 80930.18400000005,
      "d": 877.906449999995,
      "v": 38
    },
    {
      "midi": 72,
      "hit": false,
      "t": 80930.18400000005,
      "d": 901.162249999994,
      "v": 47
    },
    {
      "midi": 64,
      "hit": false,
      "t": 80930.18400000005,
      "d": 1215.1155500000023,
      "v": 42
    },
    {
      "midi": 69,
      "hit": false,
      "t": 80935.99795000005,
      "d": 1215.1155500000023,
      "v": 50
    },
    {
      "midi": 74,
      "hit": false,
      "t": 81976.69500000005,
      "d": 1197.6736999999994,
      "v": 41
    },
    {
      "midi": 55,
      "hit": false,
      "t": 81976.69500000005,
      "d": 1529.068849999996,
      "v": 42
    },
    {
      "midi": 64,
      "hit": false,
      "t": 82325.53200000005,
      "d": 1209.3015999999916,
      "v": 39
    },
    {
      "midi": 57,
      "hit": false,
      "t": 82337.15990000006,
      "d": 1244.1852999999828,
      "v": 43
    },
    {
      "midi": 69,
      "hit": false,
      "t": 82337.15990000006,
      "d": 1255.8131999999896,
      "v": 50
    },
    {
      "midi": 55,
      "hit": false,
      "t": 83720.88000000005,
      "d": 877.906449999995,
      "v": 38
    },
    {
      "midi": 72,
      "hit": false,
      "t": 83720.88000000005,
      "d": 901.162249999994,
      "v": 47
    },
    {
      "midi": 64,
      "hit": false,
      "t": 83720.88000000005,
      "d": 1215.1155500000023,
      "v": 42
    },
    {
      "midi": 69,
      "hit": false,
      "t": 83726.69395000004,
      "d": 1215.1155500000023,
      "v": 50
    },
    {
      "midi": 74,
      "hit": false,
      "t": 84767.39100000005,
      "d": 1197.6736999999994,
      "v": 41
    },
    {
      "midi": 55,
      "hit": false,
      "t": 84767.39100000005,
      "d": 1529.068849999996,
      "v": 42
    },
    {
      "midi": 64,
      "hit": false,
      "t": 85116.22800000005,
      "d": 1209.3015999999916,
      "v": 39
    },
    {
      "midi": 57,
      "hit": false,
      "t": 85127.85590000005,
      "d": 1244.1852999999828,
      "v": 43
    },
    {
      "midi": 69,
      "hit": false,
      "t": 85127.85590000005,
      "d": 1255.8131999999896,
      "v": 50
    },
    {
      "midi": 54,
      "hit": false,
      "t": 86511.57600000004,
      "d": 1587.2083500000008,
      "v": 43
    },
    {
      "midi": 62,
      "hit": false,
      "t": 86511.57600000004,
      "d": 2331.393949999998,
      "v": 34
    },
    {
      "midi": 69,
      "hit": false,
      "t": 86511.57600000004,
      "d": 2337.207899999994,
      "v": 56
    },
    {
      "midi": 66,
      "hit": false,
      "t": 86511.57600000004,
      "d": 2354.649749999997,
      "v": 45
    },
    {
      "midi": 54,
      "hit": false,
      "t": 88255.76100000004,
      "d": 98.83715000000666,
      "v": 52
    },
    {
      "midi": 55,
      "hit": false,
      "t": 88604.59800000004,
      "d": 151.16270000000077,
      "v": 63
    },
    {
      "midi": 54,
      "hit": false,
      "t": 88779.01650000004,
      "d": 133.72084999999788,
      "v": 63
    },
    {
      "midi": 55,
      "hit": false,
      "t": 88953.43500000004,
      "d": 87.20924999999988,
      "v": 54
    },
    {
      "midi": 54,
      "hit": false,
      "t": 89127.85350000004,
      "d": 1354.6503499999963,
      "v": 68
    },
    {
      "midi": 69,
      "hit": false,
      "t": 89127.85350000004,
      "d": 1412.789850000001,
      "v": 68
    },
    {
      "midi": 62,
      "hit": false,
      "t": 89127.85350000004,
      "d": 1418.6037999999971,
      "v": 68
    },
    {
      "midi": 66,
      "hit": false,
      "t": 89127.85350000004,
      "d": 1482.557249999998,
      "v": 68
    },
    {
      "midi": 54,
      "hit": false,
      "t": 90697.62000000004,
      "d": 529.0694499999954,
      "v": 82
    },
    {
      "midi": 62,
      "hit": false,
      "t": 90697.62000000004,
      "d": 581.3949999999895,
      "v": 82
    },
    {
      "midi": 66,
      "hit": false,
      "t": 90697.62000000004,
      "d": 616.2786999999953,
      "v": 82
    },
    {
      "midi": 69,
      "hit": false,
      "t": 90697.62000000004,
      "d": 656.9763499999972,
      "v": 82
    },
    {
      "midi": 69,
      "hit": false,
      "t": 91395.29400000004,
      "d": 34.883700000005774,
      "v": 73
    },
    {
      "midi": 66,
      "hit": false,
      "t": 91395.29400000004,
      "d": 40.697650000001886,
      "v": 49
    },
    {
      "midi": 62,
      "hit": false,
      "t": 91395.29400000004,
      "d": 58.13950000000477,
      "v": 52
    },
    {
      "midi": 54,
      "hit": false,
      "t": 91395.29400000004,
      "d": 412.7904500000004,
      "v": 73
    },
    {
      "midi": 62,
      "hit": false,
      "t": 91569.71250000004,
      "d": 52.32554999999411,
      "v": 52
    },
    {
      "midi": 69,
      "hit": false,
      "t": 91569.71250000004,
      "d": 81.39529999998922,
      "v": 82
    },
    {
      "midi": 66,
      "hit": false,
      "t": 91569.71250000004,
      "d": 93.023199999996,
      "v": 72
    },
    {
      "midi": 64,
      "hit": false,
      "t": 92092.96800000004,
      "d": 1226.7434499999945,
      "v": 38
    },
    {
      "midi": 69,
      "hit": false,
      "t": 92092.96800000004,
      "d": 1226.7434499999945,
      "v": 44
    },
    {
      "midi": 57,
      "hit": false,
      "t": 92092.96800000004,
      "d": 1249.9992499999935,
      "v": 45
    },
    {
      "midi": 67,
      "hit": false,
      "t": 92092.96800000004,
      "d": 1249.9992499999935,
      "v": 51
    },
    {
      "midi": 72,
      "hit": false,
      "t": 92092.96800000004,
      "d": 1261.6271500000003,
      "v": 44
    },
    {
      "midi": 67,
      "hit": false,
      "t": 93488.31600000004,
      "d": 1133.7202499999985,
      "v": 45
    },
    {
      "midi": 64,
      "hit": false,
      "t": 93488.31600000004,
      "d": 1156.9760499999975,
      "v": 37
    },
    {
      "midi": 69,
      "hit": false,
      "t": 93488.31600000004,
      "d": 1162.7899999999936,
      "v": 41
    },
    {
      "midi": 57,
      "hit": false,
      "t": 93488.31600000004,
      "d": 1174.4179000000004,
      "v": 47
    },
    {
      "midi": 72,
      "hit": false,
      "t": 93488.31600000004,
      "d": 1197.6736999999994,
      "v": 40
    },
    {
      "midi": 67,
      "hit": false,
      "t": 94883.66400000003,
      "d": 1151.1621000000014,
      "v": 56
    },
    {
      "midi": 69,
      "hit": false,
      "t": 94883.66400000003,
      "d": 1162.7900000000081,
      "v": 45
    },
    {
      "midi": 72,
      "hit": false,
      "t": 94883.66400000003,
      "d": 1162.7900000000081,
      "v": 37
    },
    {
      "midi": 57,
      "hit": false,
      "t": 94883.66400000003,
      "d": 1209.3016000000061,
      "v": 55
    },
    {
      "midi": 64,
      "hit": false,
      "t": 94895.29190000004,
      "d": 1151.1621000000014,
      "v": 41
    },
    {
      "midi": 67,
      "hit": false,
      "t": 96279.01200000005,
      "d": 1098.8365500000073,
      "v": 61
    },
    {
      "midi": 64,
      "hit": false,
      "t": 96279.01200000005,
      "d": 1110.464450000014,
      "v": 61
    },
    {
      "midi": 72,
      "hit": false,
      "t": 96279.01200000005,
      "d": 1116.2784000000102,
      "v": 61
    },
    {
      "midi": 69,
      "hit": false,
      "t": 96279.01200000005,
      "d": 1122.0923500000063,
      "v": 61
    },
    {
      "midi": 57,
      "hit": false,
      "t": 96279.01200000005,
      "d": 1156.976050000012,
      "v": 61
    },
    {
      "midi": 59,
      "hit": false,
      "t": 97499.94150000006,
      "d": 866.2785500000027,
      "v": 45
    },
    {
      "midi": 62,
      "hit": false,
      "t": 97499.94150000006,
      "d": 866.2785500000027,
      "v": 42
    },
    {
      "midi": 74,
      "hit": false,
      "t": 97499.94150000006,
      "d": 1517.4409500000038,
      "v": 46
    },
    {
      "midi": 66,
      "hit": false,
      "t": 97499.94150000006,
      "d": 1529.0688500000106,
      "v": 51
    },
    {
      "midi": 71,
      "hit": false,
      "t": 97499.94150000006,
      "d": 1529.0688500000106,
      "v": 59
    },
    {
      "midi": 59,
      "hit": false,
      "t": 98372.03400000006,
      "d": 691.8600500000175,
      "v": 45
    },
    {
      "midi": 62,
      "hit": false,
      "t": 98372.03400000006,
      "d": 691.8600500000175,
      "v": 42
    },
    {
      "midi": 69,
      "hit": false,
      "t": 99069.70800000007,
      "d": 1331.3945499999973,
      "v": 59
    },
    {
      "midi": 73,
      "hit": false,
      "t": 99069.70800000007,
      "d": 1343.022450000004,
      "v": 48
    },
    {
      "midi": 64,
      "hit": false,
      "t": 99069.70800000007,
      "d": 1360.464300000007,
      "v": 39
    },
    {
      "midi": 57,
      "hit": false,
      "t": 99069.70800000007,
      "d": 1377.9061500000098,
      "v": 44
    },
    {
      "midi": 61,
      "hit": false,
      "t": 99069.70800000007,
      "d": 1377.9061500000098,
      "v": 49
    },
    {
      "midi": 71,
      "hit": false,
      "t": 100465.05600000008,
      "d": 912.7901500000007,
      "v": 50
    },
    {
      "midi": 74,
      "hit": false,
      "t": 100465.05600000008,
      "d": 1122.0923499999917,
      "v": 44
    },
    {
      "midi": 64,
      "hit": false,
      "t": 100465.05600000008,
      "d": 1215.1155499999877,
      "v": 36
    },
    {
      "midi": 67,
      "hit": false,
      "t": 100465.05600000008,
      "d": 1215.1155499999877,
      "v": 46
    },
    {
      "midi": 71,
      "hit": false,
      "t": 101511.56700000008,
      "d": 343.02304999998887,
      "v": 65
    },
    {
      "midi": 64,
      "hit": false,
      "t": 101860.40400000007,
      "d": 691.860050000003,
      "v": 36
    },
    {
      "midi": 74,
      "hit": false,
      "t": 101860.40400000007,
      "d": 691.860050000003,
      "v": 52
    },
    {
      "midi": 71,
      "hit": false,
      "t": 101860.40400000007,
      "d": 790.6971999999951,
      "v": 36
    },
    {
      "midi": 67,
      "hit": false,
      "t": 101860.40400000007,
      "d": 1389.534050000002,
      "v": 46
    },
    {
      "midi": 64,
      "hit": false,
      "t": 102558.07800000007,
      "d": 691.860050000003,
      "v": 36
    },
    {
      "midi": 74,
      "hit": false,
      "t": 102558.07800000007,
      "d": 691.860050000003,
      "v": 52
    },
    {
      "midi": 71,
      "hit": false,
      "t": 102906.91500000007,
      "d": 343.0230500000034,
      "v": 63
    },
    {
      "midi": 64,
      "hit": false,
      "t": 103255.75200000007,
      "d": 1226.7434499999945,
      "v": 38
    },
    {
      "midi": 69,
      "hit": false,
      "t": 103255.75200000007,
      "d": 1226.7434499999945,
      "v": 44
    },
    {
      "midi": 57,
      "hit": false,
      "t": 103255.75200000007,
      "d": 1249.9992499999935,
      "v": 45
    },
    {
      "midi": 67,
      "hit": false,
      "t": 103255.75200000007,
      "d": 1249.9992499999935,
      "v": 51
    },
    {
      "midi": 72,
      "hit": false,
      "t": 103255.75200000007,
      "d": 1261.6271500000003,
      "v": 44
    },
    {
      "midi": 67,
      "hit": false,
      "t": 104651.10000000006,
      "d": 1133.7202499999985,
      "v": 45
    },
    {
      "midi": 64,
      "hit": false,
      "t": 104651.10000000006,
      "d": 1156.9760499999975,
      "v": 37
    },
    {
      "midi": 69,
      "hit": false,
      "t": 104651.10000000006,
      "d": 1162.7899999999936,
      "v": 41
    },
    {
      "midi": 57,
      "hit": false,
      "t": 104651.10000000006,
      "d": 1174.4179000000004,
      "v": 47
    },
    {
      "midi": 72,
      "hit": false,
      "t": 104651.10000000006,
      "d": 1197.6736999999994,
      "v": 40
    },
    {
      "midi": 67,
      "hit": false,
      "t": 106046.44800000006,
      "d": 1151.1621000000014,
      "v": 56
    },
    {
      "midi": 69,
      "hit": false,
      "t": 106046.44800000006,
      "d": 1162.7900000000081,
      "v": 45
    },
    {
      "midi": 72,
      "hit": false,
      "t": 106046.44800000006,
      "d": 1162.7900000000081,
      "v": 37
    },
    {
      "midi": 57,
      "hit": false,
      "t": 106046.44800000006,
      "d": 1209.3016000000061,
      "v": 55
    },
    {
      "midi": 64,
      "hit": false,
      "t": 106058.07590000007,
      "d": 1151.1621000000014,
      "v": 41
    },
    {
      "midi": 67,
      "hit": false,
      "t": 107441.79600000007,
      "d": 1098.8365499999927,
      "v": 61
    },
    {
      "midi": 64,
      "hit": false,
      "t": 107441.79600000007,
      "d": 1110.4644499999995,
      "v": 61
    },
    {
      "midi": 72,
      "hit": false,
      "t": 107441.79600000007,
      "d": 1116.2783999999956,
      "v": 61
    },
    {
      "midi": 69,
      "hit": false,
      "t": 107441.79600000007,
      "d": 1122.0923499999917,
      "v": 61
    },
    {
      "midi": 57,
      "hit": false,
      "t": 107441.79600000007,
      "d": 1156.9760499999975,
      "v": 61
    },
    {
      "midi": 59,
      "hit": false,
      "t": 108662.72550000007,
      "d": 866.2785500000027,
      "v": 45
    },
    {
      "midi": 62,
      "hit": false,
      "t": 108662.72550000007,
      "d": 866.2785500000027,
      "v": 42
    },
    {
      "midi": 74,
      "hit": false,
      "t": 108662.72550000007,
      "d": 1517.4409500000038,
      "v": 46
    },
    {
      "midi": 66,
      "hit": false,
      "t": 108662.72550000007,
      "d": 1529.0688500000106,
      "v": 51
    },
    {
      "midi": 71,
      "hit": false,
      "t": 108662.72550000007,
      "d": 1529.0688500000106,
      "v": 59
    },
    {
      "midi": 59,
      "hit": false,
      "t": 109534.81800000007,
      "d": 691.8600500000175,
      "v": 45
    },
    {
      "midi": 62,
      "hit": false,
      "t": 109534.81800000007,
      "d": 691.8600500000175,
      "v": 42
    },
    {
      "midi": 69,
      "hit": false,
      "t": 110232.49200000009,
      "d": 1331.3945499999973,
      "v": 59
    },
    {
      "midi": 73,
      "hit": false,
      "t": 110232.49200000009,
      "d": 1343.022450000004,
      "v": 48
    },
    {
      "midi": 64,
      "hit": false,
      "t": 110232.49200000009,
      "d": 1360.464300000007,
      "v": 39
    },
    {
      "midi": 57,
      "hit": false,
      "t": 110232.49200000009,
      "d": 1377.9061500000098,
      "v": 44
    },
    {
      "midi": 61,
      "hit": false,
      "t": 110232.49200000009,
      "d": 1377.9061500000098,
      "v": 49
    },
    {
      "midi": 71,
      "hit": false,
      "t": 111627.8400000001,
      "d": 912.7901500000007,
      "v": 50
    },
    {
      "midi": 74,
      "hit": false,
      "t": 111627.8400000001,
      "d": 1122.0923499999917,
      "v": 44
    },
    {
      "midi": 64,
      "hit": false,
      "t": 111627.8400000001,
      "d": 1215.1155499999877,
      "v": 36
    },
    {
      "midi": 67,
      "hit": false,
      "t": 111627.8400000001,
      "d": 1215.1155499999877,
      "v": 46
    },
    {
      "midi": 71,
      "hit": false,
      "t": 112674.3510000001,
      "d": 343.02304999998887,
      "v": 65
    },
    {
      "midi": 64,
      "hit": false,
      "t": 113023.18800000008,
      "d": 691.860050000003,
      "v": 36
    },
    {
      "midi": 74,
      "hit": false,
      "t": 113023.18800000008,
      "d": 691.860050000003,
      "v": 52
    },
    {
      "midi": 71,
      "hit": false,
      "t": 113023.18800000008,
      "d": 790.6971999999951,
      "v": 36
    },
    {
      "midi": 67,
      "hit": false,
      "t": 113023.18800000008,
      "d": 1389.534050000002,
      "v": 46
    },
    {
      "midi": 64,
      "hit": false,
      "t": 113720.86200000008,
      "d": 691.860050000003,
      "v": 36
    },
    {
      "midi": 74,
      "hit": false,
      "t": 113720.86200000008,
      "d": 691.860050000003,
      "v": 52
    },
    {
      "midi": 71,
      "hit": false,
      "t": 114069.69900000008,
      "d": 343.0230500000034,
      "v": 63
    },
    {
      "midi": 67,
      "hit": false,
      "t": 114418.53600000008,
      "d": 1104.6504999999888,
      "v": 50
    },
    {
      "midi": 64,
      "hit": false,
      "t": 114418.53600000008,
      "d": 1116.2783999999956,
      "v": 39
    },
    {
      "midi": 71,
      "hit": false,
      "t": 114418.53600000008,
      "d": 1151.1621000000014,
      "v": 50
    },
    {
      "midi": 74,
      "hit": false,
      "t": 114424.34995000008,
      "d": 1122.0923500000063,
      "v": 38
    },
    {
      "midi": 64,
      "hit": false,
      "t": 115825.51190000009,
      "d": 1325.5806000000011,
      "v": 41
    },
    {
      "midi": 71,
      "hit": false,
      "t": 115825.51190000009,
      "d": 1331.3945499999973,
      "v": 45
    },
    {
      "midi": 74,
      "hit": false,
      "t": 115831.32585000008,
      "d": 1360.464300000007,
      "v": 56
    },
    {
      "midi": 67,
      "hit": false,
      "t": 115842.95375000009,
      "d": 1313.9526999999944,
      "v": 48
    },
    {
      "midi": 55,
      "hit": false,
      "t": 117209.23200000009,
      "d": 877.906449999995,
      "v": 38
    },
    {
      "midi": 72,
      "hit": false,
      "t": 117209.23200000009,
      "d": 901.162249999994,
      "v": 47
    },
    {
      "midi": 64,
      "hit": false,
      "t": 117209.23200000009,
      "d": 1215.1155500000023,
      "v": 42
    },
    {
      "midi": 69,
      "hit": false,
      "t": 117215.04595000009,
      "d": 1215.1155500000023,
      "v": 50
    },
    {
      "midi": 74,
      "hit": false,
      "t": 118255.74300000009,
      "d": 1197.6736999999994,
      "v": 41
    },
    {
      "midi": 55,
      "hit": false,
      "t": 118255.74300000009,
      "d": 1529.068849999996,
      "v": 42
    },
    {
      "midi": 64,
      "hit": false,
      "t": 118604.58000000009,
      "d": 1209.3015999999916,
      "v": 39
    },
    {
      "midi": 57,
      "hit": false,
      "t": 118616.2079000001,
      "d": 1244.1852999999828,
      "v": 43
    },
    {
      "midi": 69,
      "hit": false,
      "t": 118616.2079000001,
      "d": 1255.8131999999896,
      "v": 50
    },
    {
      "midi": 55,
      "hit": false,
      "t": 119999.92800000009,
      "d": 877.906449999995,
      "v": 38
    },
    {
      "midi": 72,
      "hit": false,
      "t": 119999.92800000009,
      "d": 901.162249999994,
      "v": 47
    },
    {
      "midi": 64,
      "hit": false,
      "t": 119999.92800000009,
      "d": 1215.1155500000023,
      "v": 42
    },
    {
      "midi": 69,
      "hit": false,
      "t": 120005.74195000008,
      "d": 1215.1155500000023,
      "v": 50
    },
    {
      "midi": 74,
      "hit": false,
      "t": 121046.43900000009,
      "d": 1197.6736999999994,
      "v": 41
    },
    {
      "midi": 55,
      "hit": false,
      "t": 121046.43900000009,
      "d": 1529.068849999996,
      "v": 42
    },
    {
      "midi": 64,
      "hit": false,
      "t": 121395.27600000009,
      "d": 1209.3015999999916,
      "v": 39
    },
    {
      "midi": 57,
      "hit": false,
      "t": 121406.90390000009,
      "d": 1244.1852999999974,
      "v": 43
    },
    {
      "midi": 69,
      "hit": false,
      "t": 121406.90390000009,
      "d": 1255.8132000000041,
      "v": 50
    },
    {
      "midi": 54,
      "hit": false,
      "t": 122616.20550000008,
      "d": 1738.371050000016,
      "v": 48
    },
    {
      "midi": 59,
      "hit": false,
      "t": 122616.20550000008,
      "d": 1738.371050000016,
      "v": 48
    },
    {
      "midi": 62,
      "hit": false,
      "t": 122616.20550000008,
      "d": 1738.371050000016,
      "v": 48
    },
    {
      "midi": 59,
      "hit": false,
      "t": 124534.8090000001,
      "d": 186.04640000000654,
      "v": 59
    },
    {
      "midi": 54,
      "hit": false,
      "t": 124534.8090000001,
      "d": 220.93010000001232,
      "v": 54
    },
    {
      "midi": 62,
      "hit": false,
      "t": 124534.8090000001,
      "d": 220.93010000001232,
      "v": 52
    },
    {
      "midi": 59,
      "hit": false,
      "t": 124883.64600000011,
      "d": 581.3950000000041,
      "v": 66
    },
    {
      "midi": 62,
      "hit": false,
      "t": 124883.64600000011,
      "d": 639.5345000000088,
      "v": 66
    },
    {
      "midi": 54,
      "hit": false,
      "t": 125232.48300000011,
      "d": 290.6975000000093,
      "v": 60
    },
    {
      "midi": 67,
      "hit": false,
      "t": 125581.32000000012,
      "d": 1104.6504999999888,
      "v": 50
    },
    {
      "midi": 64,
      "hit": false,
      "t": 125581.32000000012,
      "d": 1116.2783999999956,
      "v": 39
    },
    {
      "midi": 71,
      "hit": false,
      "t": 125581.32000000012,
      "d": 1151.1621000000014,
      "v": 50
    },
    {
      "midi": 74,
      "hit": false,
      "t": 125587.13395000012,
      "d": 1122.0923500000063,
      "v": 38
    },
    {
      "midi": 64,
      "hit": false,
      "t": 126988.29590000013,
      "d": 1325.5806000000011,
      "v": 41
    },
    {
      "midi": 71,
      "hit": false,
      "t": 126988.29590000013,
      "d": 1331.3945499999973,
      "v": 45
    },
    {
      "midi": 74,
      "hit": false,
      "t": 126994.10985000012,
      "d": 1360.464300000007,
      "v": 56
    },
    {
      "midi": 67,
      "hit": false,
      "t": 127005.73775000013,
      "d": 1313.9526999999944,
      "v": 48
    },
    {
      "midi": 55,
      "hit": false,
      "t": 128372.01600000013,
      "d": 877.906449999995,
      "v": 38
    },
    {
      "midi": 72,
      "hit": false,
      "t": 128372.01600000013,
      "d": 901.162249999994,
      "v": 47
    },
    {
      "midi": 64,
      "hit": false,
      "t": 128372.01600000013,
      "d": 1215.1155500000023,
      "v": 42
    },
    {
      "midi": 69,
      "hit": false,
      "t": 128377.82995000013,
      "d": 1215.1155500000023,
      "v": 50
    },
    {
      "midi": 74,
      "hit": false,
      "t": 129418.52700000013,
      "d": 1197.6736999999994,
      "v": 41
    },
    {
      "midi": 55,
      "hit": false,
      "t": 129418.52700000013,
      "d": 1529.068849999996,
      "v": 42
    },
    {
      "midi": 64,
      "hit": false,
      "t": 129767.36400000013,
      "d": 1209.3015999999916,
      "v": 39
    },
    {
      "midi": 57,
      "hit": false,
      "t": 129778.99190000014,
      "d": 1244.1852999999828,
      "v": 43
    },
    {
      "midi": 69,
      "hit": false,
      "t": 129778.99190000014,
      "d": 1255.8131999999896,
      "v": 50
    },
    {
      "midi": 55,
      "hit": false,
      "t": 131162.71200000012,
      "d": 877.9064500000095,
      "v": 38
    },
    {
      "midi": 72,
      "hit": false,
      "t": 131162.71200000012,
      "d": 901.162250000023,
      "v": 47
    },
    {
      "midi": 64,
      "hit": false,
      "t": 131162.71200000012,
      "d": 1215.1155500000168,
      "v": 42
    },
    {
      "midi": 69,
      "hit": false,
      "t": 131168.52595000013,
      "d": 1215.1155500000168,
      "v": 50
    },
    {
      "midi": 74,
      "hit": false,
      "t": 132209.22300000014,
      "d": 1197.6736999999848,
      "v": 41
    },
    {
      "midi": 55,
      "hit": false,
      "t": 132209.22300000014,
      "d": 1529.0688499999815,
      "v": 42
    },
    {
      "midi": 64,
      "hit": false,
      "t": 132558.06000000014,
      "d": 1209.301599999977,
      "v": 39
    },
    {
      "midi": 69,
      "hit": false,
      "t": 132569.68790000014,
      "d": 1040.697049999988,
      "v": 50
    },
    {
      "midi": 57,
      "hit": false,
      "t": 132569.68790000014,
      "d": 1244.1852999999828,
      "v": 43
    },
    {
      "midi": 54,
      "hit": false,
      "t": 133778.9895000001,
      "d": 1587.2083500000008,
      "v": 43
    },
    {
      "midi": 62,
      "hit": false,
      "t": 133778.9895000001,
      "d": 2331.393949999998,
      "v": 34
    },
    {
      "midi": 69,
      "hit": false,
      "t": 133778.9895000001,
      "d": 2337.2079000000085,
      "v": 56
    },
    {
      "midi": 66,
      "hit": false,
      "t": 133778.9895000001,
      "d": 2354.6497500000114,
      "v": 45
    },
    {
      "midi": 54,
      "hit": false,
      "t": 135697.5930000001,
      "d": 98.83715000000666,
      "v": 52
    },
    {
      "midi": 55,
      "hit": false,
      "t": 136046.4300000001,
      "d": 151.16270000001532,
      "v": 63
    },
    {
      "midi": 54,
      "hit": false,
      "t": 136220.84850000014,
      "d": 133.72085000001243,
      "v": 63
    },
    {
      "midi": 55,
      "hit": false,
      "t": 136395.26700000014,
      "d": 87.20925000001444,
      "v": 54
    },
    {
      "midi": 54,
      "hit": false,
      "t": 136569.68550000017,
      "d": 1354.6503500000108,
      "v": 68
    },
    {
      "midi": 69,
      "hit": false,
      "t": 136569.68550000017,
      "d": 1412.789850000001,
      "v": 68
    },
    {
      "midi": 62,
      "hit": false,
      "t": 136569.68550000017,
      "d": 1418.6038000000117,
      "v": 68
    },
    {
      "midi": 66,
      "hit": false,
      "t": 136569.68550000017,
      "d": 1482.5572500000126,
      "v": 68
    },
    {
      "midi": 54,
      "hit": false,
      "t": 138139.4520000002,
      "d": 529.06945000001,
      "v": 85
    },
    {
      "midi": 62,
      "hit": false,
      "t": 138139.4520000002,
      "d": 1215.1155499999877,
      "v": 85
    },
    {
      "midi": 66,
      "hit": false,
      "t": 138139.4520000002,
      "d": 1215.1155499999877,
      "v": 85
    },
    {
      "midi": 69,
      "hit": false,
      "t": 138139.4520000002,
      "d": 1215.1155499999877,
      "v": 85
    },
    {
      "midi": 54,
      "hit": false,
      "t": 138837.1260000002,
      "d": 412.7904500000004,
      "v": 80
    },
    {
      "midi": 67,
      "hit": false,
      "t": 139534.8000000002,
      "d": 1104.650500000018,
      "v": 50
    },
    {
      "midi": 64,
      "hit": false,
      "t": 139534.8000000002,
      "d": 1116.2784000000102,
      "v": 39
    },
    {
      "midi": 71,
      "hit": false,
      "t": 139534.8000000002,
      "d": 1151.162100000016,
      "v": 50
    },
    {
      "midi": 74,
      "hit": false,
      "t": 139540.6139500002,
      "d": 1122.0923499999917,
      "v": 38
    },
    {
      "midi": 64,
      "hit": false,
      "t": 140941.7759000002,
      "d": 1325.5806000000157,
      "v": 41
    },
    {
      "midi": 71,
      "hit": false,
      "t": 140941.7759000002,
      "d": 1331.3945500000264,
      "v": 45
    },
    {
      "midi": 74,
      "hit": false,
      "t": 140947.58985000022,
      "d": 1360.4643000000215,
      "v": 56
    },
    {
      "midi": 67,
      "hit": false,
      "t": 140959.2177500002,
      "d": 1313.9527000000235,
      "v": 48
    },
    {
      "midi": 55,
      "hit": false,
      "t": 142325.49600000025,
      "d": 877.9064500000095,
      "v": 38
    },
    {
      "midi": 72,
      "hit": false,
      "t": 142325.49600000025,
      "d": 901.162250000023,
      "v": 47
    },
    {
      "midi": 64,
      "hit": false,
      "t": 142325.49600000025,
      "d": 1215.1155500000168,
      "v": 42
    },
    {
      "midi": 69,
      "hit": false,
      "t": 142331.30995000026,
      "d": 1215.1155500000168,
      "v": 50
    },
    {
      "midi": 74,
      "hit": false,
      "t": 143372.00700000027,
      "d": 1197.6736999999848,
      "v": 41
    },
    {
      "midi": 55,
      "hit": false,
      "t": 143372.00700000027,
      "d": 1529.0688499999815,
      "v": 42
    },
    {
      "midi": 64,
      "hit": false,
      "t": 143720.84400000027,
      "d": 1209.301599999977,
      "v": 39
    },
    {
      "midi": 57,
      "hit": false,
      "t": 143732.47190000027,
      "d": 1244.1852999999828,
      "v": 43
    },
    {
      "midi": 69,
      "hit": false,
      "t": 143732.47190000027,
      "d": 1255.813199999975,
      "v": 50
    },
    {
      "midi": 55,
      "hit": false,
      "t": 145116.19200000024,
      "d": 877.9064500000095,
      "v": 38
    },
    {
      "midi": 72,
      "hit": false,
      "t": 145116.19200000024,
      "d": 901.162250000023,
      "v": 47
    },
    {
      "midi": 64,
      "hit": false,
      "t": 145116.19200000024,
      "d": 1215.1155500000168,
      "v": 42
    },
    {
      "midi": 69,
      "hit": false,
      "t": 145122.00595000025,
      "d": 1215.1155500000168,
      "v": 50
    },
    {
      "midi": 74,
      "hit": false,
      "t": 146162.70300000027,
      "d": 1197.6736999999848,
      "v": 41
    },
    {
      "midi": 55,
      "hit": false,
      "t": 146162.70300000027,
      "d": 1529.0688499999815,
      "v": 42
    },
    {
      "midi": 64,
      "hit": false,
      "t": 146511.54000000027,
      "d": 1209.301599999977,
      "v": 39
    },
    {
      "midi": 57,
      "hit": false,
      "t": 146523.16790000026,
      "d": 1244.1852999999828,
      "v": 43
    },
    {
      "midi": 69,
      "hit": false,
      "t": 146523.16790000026,
      "d": 1255.813199999975,
      "v": 50
    },
    {
      "midi": 59,
      "hit": false,
      "t": 147906.88800000024,
      "d": 1412.789850000001,
      "v": 48
    },
    {
      "midi": 62,
      "hit": false,
      "t": 147906.88800000024,
      "d": 1412.789850000001,
      "v": 48
    },
    {
      "midi": 54,
      "hit": false,
      "t": 147906.88800000024,
      "d": 1441.8595999999961,
      "v": 48
    },
    {
      "midi": 59,
      "hit": false,
      "t": 149651.07300000024,
      "d": 186.046399999992,
      "v": 59
    },
    {
      "midi": 54,
      "hit": false,
      "t": 149651.07300000024,
      "d": 220.93009999999776,
      "v": 54
    },
    {
      "midi": 62,
      "hit": false,
      "t": 149651.07300000024,
      "d": 220.93009999999776,
      "v": 52
    },
    {
      "midi": 59,
      "hit": false,
      "t": 149999.91000000024,
      "d": 581.3949999999895,
      "v": 66
    },
    {
      "midi": 62,
      "hit": false,
      "t": 149999.91000000024,
      "d": 639.5344999999797,
      "v": 66
    },
    {
      "midi": 54,
      "hit": false,
      "t": 150348.74700000024,
      "d": 290.6974999999802,
      "v": 60
    },
    {
      "midi": 67,
      "hit": false,
      "t": 150697.5840000002,
      "d": 1104.650500000018,
      "v": 50
    },
    {
      "midi": 64,
      "hit": false,
      "t": 150697.5840000002,
      "d": 1116.2784000000102,
      "v": 39
    },
    {
      "midi": 71,
      "hit": false,
      "t": 150697.5840000002,
      "d": 1151.162100000016,
      "v": 50
    },
    {
      "midi": 74,
      "hit": false,
      "t": 150703.39795000022,
      "d": 1122.0923499999917,
      "v": 38
    },
    {
      "midi": 64,
      "hit": false,
      "t": 152104.55990000023,
      "d": 1325.5806000000157,
      "v": 41
    },
    {
      "midi": 71,
      "hit": false,
      "t": 152104.55990000023,
      "d": 1331.3945500000264,
      "v": 45
    },
    {
      "midi": 74,
      "hit": false,
      "t": 152110.37385000024,
      "d": 1360.4643000000215,
      "v": 56
    },
    {
      "midi": 67,
      "hit": false,
      "t": 152122.00175000023,
      "d": 1313.9527000000235,
      "v": 48
    },
    {
      "midi": 55,
      "hit": false,
      "t": 153488.28000000026,
      "d": 877.9064500000095,
      "v": 38
    },
    {
      "midi": 72,
      "hit": false,
      "t": 153488.28000000026,
      "d": 901.162250000023,
      "v": 47
    },
    {
      "midi": 64,
      "hit": false,
      "t": 153488.28000000026,
      "d": 1215.1155500000168,
      "v": 42
    },
    {
      "midi": 69,
      "hit": false,
      "t": 153494.09395000027,
      "d": 1215.1155500000168,
      "v": 50
    },
    {
      "midi": 74,
      "hit": false,
      "t": 154534.7910000003,
      "d": 1197.6736999999848,
      "v": 41
    },
    {
      "midi": 55,
      "hit": false,
      "t": 154534.7910000003,
      "d": 1529.0688499999815,
      "v": 42
    },
    {
      "midi": 64,
      "hit": false,
      "t": 154883.6280000003,
      "d": 1209.301599999977,
      "v": 39
    },
    {
      "midi": 57,
      "hit": false,
      "t": 154895.25590000028,
      "d": 1244.1852999999828,
      "v": 43
    },
    {
      "midi": 69,
      "hit": false,
      "t": 154895.25590000028,
      "d": 1255.813199999975,
      "v": 50
    },
    {
      "midi": 55,
      "hit": false,
      "t": 156278.97600000026,
      "d": 877.9064500000095,
      "v": 38
    },
    {
      "midi": 72,
      "hit": false,
      "t": 156278.97600000026,
      "d": 901.162250000023,
      "v": 47
    },
    {
      "midi": 64,
      "hit": false,
      "t": 156278.97600000026,
      "d": 1215.1155500000168,
      "v": 42
    },
    {
      "midi": 69,
      "hit": false,
      "t": 156284.78995000027,
      "d": 1215.1155500000168,
      "v": 50
    },
    {
      "midi": 74,
      "hit": false,
      "t": 157325.48700000028,
      "d": 1197.6736999999848,
      "v": 41
    },
    {
      "midi": 55,
      "hit": false,
      "t": 157325.48700000028,
      "d": 1529.0688499999815,
      "v": 42
    },
    {
      "midi": 64,
      "hit": false,
      "t": 157674.32400000028,
      "d": 1209.301599999977,
      "v": 39
    },
    {
      "midi": 57,
      "hit": false,
      "t": 157685.95190000028,
      "d": 1244.1852999999828,
      "v": 43
    },
    {
      "midi": 69,
      "hit": false,
      "t": 157685.95190000028,
      "d": 1255.813199999975,
      "v": 50
    },
    {
      "midi": 54,
      "hit": false,
      "t": 159069.67200000025,
      "d": 1587.2083500000008,
      "v": 43
    },
    {
      "midi": 62,
      "hit": false,
      "t": 159069.67200000025,
      "d": 2331.393949999998,
      "v": 34
    },
    {
      "midi": 69,
      "hit": false,
      "t": 159069.67200000025,
      "d": 2337.2079000000085,
      "v": 56
    },
    {
      "midi": 66,
      "hit": false,
      "t": 159069.67200000025,
      "d": 2354.6497500000114,
      "v": 45
    },
    {
      "midi": 54,
      "hit": false,
      "t": 160813.85700000025,
      "d": 98.83715000000666,
      "v": 52
    },
    {
      "midi": 55,
      "hit": false,
      "t": 161162.69400000025,
      "d": 151.16269999998622,
      "v": 63
    },
    {
      "midi": 54,
      "hit": false,
      "t": 161337.11250000025,
      "d": 133.72085000001243,
      "v": 63
    },
    {
      "midi": 55,
      "hit": false,
      "t": 161511.53100000025,
      "d": 87.20925000001444,
      "v": 54
    },
    {
      "midi": 54,
      "hit": false,
      "t": 161685.94950000028,
      "d": 1354.6503500000108,
      "v": 68
    },
    {
      "midi": 69,
      "hit": false,
      "t": 161685.94950000028,
      "d": 1412.789850000001,
      "v": 68
    },
    {
      "midi": 62,
      "hit": false,
      "t": 161685.94950000028,
      "d": 1418.6038000000117,
      "v": 68
    },
    {
      "midi": 66,
      "hit": false,
      "t": 161685.94950000028,
      "d": 1482.5572500000126,
      "v": 68
    },
    {
      "midi": 54,
      "hit": false,
      "t": 163255.7160000003,
      "d": 529.06945000001,
      "v": 82
    },
    {
      "midi": 62,
      "hit": false,
      "t": 163255.7160000003,
      "d": 581.3950000000186,
      "v": 82
    },
    {
      "midi": 66,
      "hit": false,
      "t": 163255.7160000003,
      "d": 616.2787000000244,
      "v": 82
    },
    {
      "midi": 69,
      "hit": false,
      "t": 163255.7160000003,
      "d": 656.9763500000117,
      "v": 82
    },
    {
      "midi": 69,
      "hit": false,
      "t": 163953.3900000003,
      "d": 34.883700000005774,
      "v": 73
    },
    {
      "midi": 66,
      "hit": false,
      "t": 163953.3900000003,
      "d": 40.69765000001644,
      "v": 49
    },
    {
      "midi": 62,
      "hit": false,
      "t": 163953.3900000003,
      "d": 58.139500000019325,
      "v": 52
    },
    {
      "midi": 54,
      "hit": false,
      "t": 163953.3900000003,
      "d": 412.7904500000295,
      "v": 73
    },
    {
      "midi": 62,
      "hit": false,
      "t": 164127.80850000033,
      "d": 52.32555000000866,
      "v": 52
    },
    {
      "midi": 69,
      "hit": false,
      "t": 164127.80850000033,
      "d": 81.39530000000377,
      "v": 82
    },
    {
      "midi": 66,
      "hit": false,
      "t": 164127.80850000033,
      "d": 93.023199999996,
      "v": 72
    },
    {
      "midi": 64,
      "hit": false,
      "t": 164651.06400000033,
      "d": 1226.743450000009,
      "v": 38
    },
    {
      "midi": 69,
      "hit": false,
      "t": 164651.06400000033,
      "d": 1226.743450000009,
      "v": 44
    },
    {
      "midi": 57,
      "hit": false,
      "t": 164651.06400000033,
      "d": 1249.9992500000226,
      "v": 45
    },
    {
      "midi": 67,
      "hit": false,
      "t": 164651.06400000033,
      "d": 1249.9992500000226,
      "v": 51
    },
    {
      "midi": 72,
      "hit": false,
      "t": 164651.06400000033,
      "d": 1261.6271500000148,
      "v": 44
    },
    {
      "midi": 67,
      "hit": false,
      "t": 166046.41200000036,
      "d": 1133.720250000013,
      "v": 45
    },
    {
      "midi": 64,
      "hit": false,
      "t": 166046.41200000036,
      "d": 1156.9760500000266,
      "v": 37
    },
    {
      "midi": 69,
      "hit": false,
      "t": 166046.41200000036,
      "d": 1162.7900000000373,
      "v": 41
    },
    {
      "midi": 57,
      "hit": false,
      "t": 166046.41200000036,
      "d": 1174.4179000000295,
      "v": 47
    },
    {
      "midi": 72,
      "hit": false,
      "t": 166046.41200000036,
      "d": 1197.673700000043,
      "v": 40
    },
    {
      "midi": 67,
      "hit": false,
      "t": 167441.76000000042,
      "d": 1151.1620999999868,
      "v": 56
    },
    {
      "midi": 69,
      "hit": false,
      "t": 167441.76000000042,
      "d": 1162.789999999979,
      "v": 45
    },
    {
      "midi": 72,
      "hit": false,
      "t": 167441.76000000042,
      "d": 1162.789999999979,
      "v": 37
    },
    {
      "midi": 57,
      "hit": false,
      "t": 167441.76000000042,
      "d": 1209.301599999977,
      "v": 55
    },
    {
      "midi": 64,
      "hit": false,
      "t": 167453.3879000004,
      "d": 1151.1620999999868,
      "v": 41
    },
    {
      "midi": 67,
      "hit": false,
      "t": 168837.1080000004,
      "d": 1098.8365500000073,
      "v": 61
    },
    {
      "midi": 64,
      "hit": false,
      "t": 168837.1080000004,
      "d": 1110.4644499999995,
      "v": 61
    },
    {
      "midi": 72,
      "hit": false,
      "t": 168837.1080000004,
      "d": 1116.2784000000102,
      "v": 61
    },
    {
      "midi": 69,
      "hit": false,
      "t": 168837.1080000004,
      "d": 1122.0923500000208,
      "v": 61
    },
    {
      "midi": 57,
      "hit": false,
      "t": 168837.1080000004,
      "d": 1156.9760500000266,
      "v": 61
    },
    {
      "midi": 59,
      "hit": false,
      "t": 170058.0375000004,
      "d": 866.2785499999882,
      "v": 45
    },
    {
      "midi": 62,
      "hit": false,
      "t": 170058.0375000004,
      "d": 866.2785499999882,
      "v": 42
    },
    {
      "midi": 74,
      "hit": false,
      "t": 170058.0375000004,
      "d": 1517.4409499999892,
      "v": 46
    },
    {
      "midi": 66,
      "hit": false,
      "t": 170058.0375000004,
      "d": 1529.0688499999815,
      "v": 51
    },
    {
      "midi": 71,
      "hit": false,
      "t": 170058.0375000004,
      "d": 1529.0688499999815,
      "v": 59
    },
    {
      "midi": 59,
      "hit": false,
      "t": 170930.1300000004,
      "d": 691.8600499999884,
      "v": 45
    },
    {
      "midi": 62,
      "hit": false,
      "t": 170930.1300000004,
      "d": 691.8600499999884,
      "v": 42
    },
    {
      "midi": 69,
      "hit": false,
      "t": 171627.8040000004,
      "d": 1331.3945499999973,
      "v": 59
    },
    {
      "midi": 73,
      "hit": false,
      "t": 171627.8040000004,
      "d": 1343.0224499999895,
      "v": 48
    },
    {
      "midi": 64,
      "hit": false,
      "t": 171627.8040000004,
      "d": 1360.4642999999924,
      "v": 39
    },
    {
      "midi": 57,
      "hit": false,
      "t": 171627.8040000004,
      "d": 1377.9061499999953,
      "v": 44
    },
    {
      "midi": 61,
      "hit": false,
      "t": 171627.8040000004,
      "d": 1377.9061499999953,
      "v": 49
    },
    {
      "midi": 71,
      "hit": false,
      "t": 173023.1520000004,
      "d": 912.7901499999862,
      "v": 50
    },
    {
      "midi": 74,
      "hit": false,
      "t": 173023.1520000004,
      "d": 1122.0923499999917,
      "v": 44
    },
    {
      "midi": 64,
      "hit": false,
      "t": 173023.1520000004,
      "d": 1215.1155499999877,
      "v": 36
    },
    {
      "midi": 67,
      "hit": false,
      "t": 173023.1520000004,
      "d": 1215.1155499999877,
      "v": 46
    },
    {
      "midi": 71,
      "hit": false,
      "t": 174069.6630000004,
      "d": 343.02304999998887,
      "v": 65
    },
    {
      "midi": 64,
      "hit": false,
      "t": 174418.5000000004,
      "d": 691.8600499999884,
      "v": 36
    },
    {
      "midi": 74,
      "hit": false,
      "t": 174418.5000000004,
      "d": 691.8600499999884,
      "v": 52
    },
    {
      "midi": 71,
      "hit": false,
      "t": 174418.5000000004,
      "d": 790.6971999999951,
      "v": 36
    },
    {
      "midi": 67,
      "hit": false,
      "t": 174418.5000000004,
      "d": 1389.5340499999875,
      "v": 46
    },
    {
      "midi": 64,
      "hit": false,
      "t": 175116.1740000004,
      "d": 691.8600499999884,
      "v": 36
    },
    {
      "midi": 74,
      "hit": false,
      "t": 175116.1740000004,
      "d": 691.8600499999884,
      "v": 52
    },
    {
      "midi": 71,
      "hit": false,
      "t": 175465.0110000004,
      "d": 343.02304999998887,
      "v": 63
    },
    {
      "midi": 64,
      "hit": false,
      "t": 175813.8480000004,
      "d": 1226.743450000009,
      "v": 38
    },
    {
      "midi": 69,
      "hit": false,
      "t": 175813.8480000004,
      "d": 1226.743450000009,
      "v": 44
    },
    {
      "midi": 57,
      "hit": false,
      "t": 175813.8480000004,
      "d": 1249.9992500000226,
      "v": 45
    },
    {
      "midi": 67,
      "hit": false,
      "t": 175813.8480000004,
      "d": 1249.9992500000226,
      "v": 51
    },
    {
      "midi": 72,
      "hit": false,
      "t": 175813.8480000004,
      "d": 1261.6271500000148,
      "v": 44
    },
    {
      "midi": 67,
      "hit": false,
      "t": 177209.19600000043,
      "d": 1133.720250000013,
      "v": 45
    },
    {
      "midi": 64,
      "hit": false,
      "t": 177209.19600000043,
      "d": 1156.9760500000266,
      "v": 37
    },
    {
      "midi": 69,
      "hit": false,
      "t": 177209.19600000043,
      "d": 1162.7900000000373,
      "v": 41
    },
    {
      "midi": 57,
      "hit": false,
      "t": 177209.19600000043,
      "d": 1174.4179000000295,
      "v": 47
    },
    {
      "midi": 72,
      "hit": false,
      "t": 177209.19600000043,
      "d": 1197.673700000043,
      "v": 40
    },
    {
      "midi": 67,
      "hit": false,
      "t": 178604.5440000005,
      "d": 1151.1620999999868,
      "v": 56
    },
    {
      "midi": 69,
      "hit": false,
      "t": 178604.5440000005,
      "d": 1162.789999999979,
      "v": 45
    },
    {
      "midi": 72,
      "hit": false,
      "t": 178604.5440000005,
      "d": 1162.789999999979,
      "v": 37
    },
    {
      "midi": 57,
      "hit": false,
      "t": 178604.5440000005,
      "d": 1209.301599999977,
      "v": 55
    },
    {
      "midi": 64,
      "hit": false,
      "t": 178616.17190000048,
      "d": 1151.1620999999868,
      "v": 41
    },
    {
      "midi": 67,
      "hit": false,
      "t": 179999.89200000046,
      "d": 1098.8365500000073,
      "v": 61
    },
    {
      "midi": 64,
      "hit": false,
      "t": 179999.89200000046,
      "d": 1110.4644499999995,
      "v": 61
    },
    {
      "midi": 72,
      "hit": false,
      "t": 179999.89200000046,
      "d": 1116.2784000000102,
      "v": 61
    },
    {
      "midi": 69,
      "hit": false,
      "t": 179999.89200000046,
      "d": 1122.0923500000208,
      "v": 61
    },
    {
      "midi": 57,
      "hit": false,
      "t": 179999.89200000046,
      "d": 1156.9760500000266,
      "v": 61
    },
    {
      "midi": 59,
      "hit": false,
      "t": 181220.8215000005,
      "d": 866.2785499999882,
      "v": 45
    },
    {
      "midi": 62,
      "hit": false,
      "t": 181220.8215000005,
      "d": 866.2785499999882,
      "v": 42
    },
    {
      "midi": 74,
      "hit": false,
      "t": 181220.8215000005,
      "d": 1517.4409499999892,
      "v": 46
    },
    {
      "midi": 66,
      "hit": false,
      "t": 181220.8215000005,
      "d": 1529.0688499999815,
      "v": 51
    },
    {
      "midi": 71,
      "hit": false,
      "t": 181220.8215000005,
      "d": 1529.0688499999815,
      "v": 59
    },
    {
      "midi": 59,
      "hit": false,
      "t": 182092.91400000048,
      "d": 691.8600499999884,
      "v": 45
    },
    {
      "midi": 62,
      "hit": false,
      "t": 182092.91400000048,
      "d": 691.8600499999884,
      "v": 42
    },
    {
      "midi": 69,
      "hit": false,
      "t": 182790.58800000048,
      "d": 1331.3945499999973,
      "v": 59
    },
    {
      "midi": 73,
      "hit": false,
      "t": 182790.58800000048,
      "d": 1343.0224499999895,
      "v": 48
    },
    {
      "midi": 64,
      "hit": false,
      "t": 182790.58800000048,
      "d": 1360.4642999999924,
      "v": 39
    },
    {
      "midi": 57,
      "hit": false,
      "t": 182790.58800000048,
      "d": 1377.9061499999953,
      "v": 44
    },
    {
      "midi": 61,
      "hit": false,
      "t": 182790.58800000048,
      "d": 1377.9061499999953,
      "v": 49
    },
    {
      "midi": 71,
      "hit": false,
      "t": 184185.93600000048,
      "d": 912.7901499999862,
      "v": 50
    },
    {
      "midi": 74,
      "hit": false,
      "t": 184185.93600000048,
      "d": 1122.0923499999917,
      "v": 44
    },
    {
      "midi": 64,
      "hit": false,
      "t": 184185.93600000048,
      "d": 1215.1155499999877,
      "v": 36
    },
    {
      "midi": 67,
      "hit": false,
      "t": 184185.93600000048,
      "d": 1215.1155499999877,
      "v": 46
    },
    {
      "midi": 71,
      "hit": false,
      "t": 185232.44700000048,
      "d": 343.02304999998887,
      "v": 65
    },
    {
      "midi": 64,
      "hit": false,
      "t": 185581.28400000048,
      "d": 691.8600499999884,
      "v": 36
    },
    {
      "midi": 74,
      "hit": false,
      "t": 185581.28400000048,
      "d": 691.8600499999884,
      "v": 52
    },
    {
      "midi": 71,
      "hit": false,
      "t": 185581.28400000048,
      "d": 790.6971999999951,
      "v": 36
    },
    {
      "midi": 67,
      "hit": false,
      "t": 185581.28400000048,
      "d": 1389.5340499999875,
      "v": 46
    },
    {
      "midi": 64,
      "hit": false,
      "t": 186278.95800000048,
      "d": 691.8600499999884,
      "v": 36
    },
    {
      "midi": 74,
      "hit": false,
      "t": 186278.95800000048,
      "d": 691.8600499999884,
      "v": 52
    },
    {
      "midi": 71,
      "hit": false,
      "t": 186627.79500000048,
      "d": 343.02304999998887,
      "v": 63
    },
    {
      "midi": 64,
      "hit": false,
      "t": 186976.63200000048,
      "d": 1226.743450000009,
      "v": 38
    },
    {
      "midi": 69,
      "hit": false,
      "t": 186976.63200000048,
      "d": 1226.743450000009,
      "v": 44
    },
    {
      "midi": 57,
      "hit": false,
      "t": 186976.63200000048,
      "d": 1249.9992500000226,
      "v": 45
    },
    {
      "midi": 67,
      "hit": false,
      "t": 186976.63200000048,
      "d": 1249.9992500000226,
      "v": 51
    },
    {
      "midi": 72,
      "hit": false,
      "t": 186976.63200000048,
      "d": 1261.6271500000148,
      "v": 44
    },
    {
      "midi": 67,
      "hit": false,
      "t": 188371.9800000005,
      "d": 1133.720250000013,
      "v": 45
    },
    {
      "midi": 64,
      "hit": false,
      "t": 188371.9800000005,
      "d": 1156.9760500000266,
      "v": 37
    },
    {
      "midi": 69,
      "hit": false,
      "t": 188371.9800000005,
      "d": 1162.7900000000373,
      "v": 41
    },
    {
      "midi": 57,
      "hit": false,
      "t": 188371.9800000005,
      "d": 1174.4179000000295,
      "v": 47
    },
    {
      "midi": 72,
      "hit": false,
      "t": 188371.9800000005,
      "d": 1197.673700000043,
      "v": 40
    },
    {
      "midi": 67,
      "hit": false,
      "t": 189767.32800000056,
      "d": 1151.1620999999868,
      "v": 56
    },
    {
      "midi": 69,
      "hit": false,
      "t": 189767.32800000056,
      "d": 1162.789999999979,
      "v": 45
    },
    {
      "midi": 72,
      "hit": false,
      "t": 189767.32800000056,
      "d": 1162.789999999979,
      "v": 37
    },
    {
      "midi": 57,
      "hit": false,
      "t": 189767.32800000056,
      "d": 1209.301599999977,
      "v": 55
    },
    {
      "midi": 64,
      "hit": false,
      "t": 189778.95590000055,
      "d": 1151.1620999999868,
      "v": 41
    },
    {
      "midi": 67,
      "hit": false,
      "t": 191162.67600000053,
      "d": 1098.8365500000073,
      "v": 61
    },
    {
      "midi": 64,
      "hit": false,
      "t": 191162.67600000053,
      "d": 1110.4644499999995,
      "v": 61
    },
    {
      "midi": 72,
      "hit": false,
      "t": 191162.67600000053,
      "d": 1116.2784000000102,
      "v": 61
    },
    {
      "midi": 69,
      "hit": false,
      "t": 191162.67600000053,
      "d": 1122.0923500000208,
      "v": 61
    },
    {
      "midi": 57,
      "hit": false,
      "t": 191162.67600000053,
      "d": 1156.9760500000266,
      "v": 61
    },
    {
      "midi": 59,
      "hit": false,
      "t": 192383.60550000056,
      "d": 866.2785499999882,
      "v": 45
    },
    {
      "midi": 62,
      "hit": false,
      "t": 192383.60550000056,
      "d": 866.2785499999882,
      "v": 42
    },
    {
      "midi": 74,
      "hit": false,
      "t": 192383.60550000056,
      "d": 1517.4409499999892,
      "v": 46
    },
    {
      "midi": 66,
      "hit": false,
      "t": 192383.60550000056,
      "d": 1529.0688499999815,
      "v": 51
    },
    {
      "midi": 71,
      "hit": false,
      "t": 192383.60550000056,
      "d": 1529.0688499999815,
      "v": 59
    },
    {
      "midi": 59,
      "hit": false,
      "t": 193255.69800000056,
      "d": 691.8600499999884,
      "v": 45
    },
    {
      "midi": 62,
      "hit": false,
      "t": 193255.69800000056,
      "d": 691.8600499999884,
      "v": 42
    },
    {
      "midi": 69,
      "hit": false,
      "t": 193953.37200000056,
      "d": 1331.3945499999973,
      "v": 59
    },
    {
      "midi": 73,
      "hit": false,
      "t": 193953.37200000056,
      "d": 1343.0224499999895,
      "v": 48
    },
    {
      "midi": 64,
      "hit": false,
      "t": 193953.37200000056,
      "d": 1360.4642999999924,
      "v": 39
    },
    {
      "midi": 57,
      "hit": false,
      "t": 193953.37200000056,
      "d": 1377.9061499999953,
      "v": 44
    },
    {
      "midi": 61,
      "hit": false,
      "t": 193953.37200000056,
      "d": 1377.9061499999953,
      "v": 49
    },
    {
      "midi": 71,
      "hit": false,
      "t": 195348.72000000055,
      "d": 912.7901499999862,
      "v": 50
    },
    {
      "midi": 74,
      "hit": false,
      "t": 195348.72000000055,
      "d": 1122.0923499999917,
      "v": 44
    },
    {
      "midi": 64,
      "hit": false,
      "t": 195348.72000000055,
      "d": 1215.1155499999877,
      "v": 36
    },
    {
      "midi": 67,
      "hit": false,
      "t": 195348.72000000055,
      "d": 1215.1155499999877,
      "v": 46
    },
    {
      "midi": 71,
      "hit": false,
      "t": 196395.23100000055,
      "d": 343.02304999998887,
      "v": 65
    },
    {
      "midi": 64,
      "hit": false,
      "t": 196744.06800000055,
      "d": 691.8600499999884,
      "v": 36
    },
    {
      "midi": 74,
      "hit": false,
      "t": 196744.06800000055,
      "d": 691.8600499999884,
      "v": 52
    },
    {
      "midi": 71,
      "hit": false,
      "t": 196744.06800000055,
      "d": 790.6971999999951,
      "v": 36
    },
    {
      "midi": 67,
      "hit": false,
      "t": 196744.06800000055,
      "d": 1389.5340499999875,
      "v": 46
    },
    {
      "midi": 64,
      "hit": false,
      "t": 197441.74200000055,
      "d": 691.8600499999884,
      "v": 36
    },
    {
      "midi": 74,
      "hit": false,
      "t": 197441.74200000055,
      "d": 691.8600499999884,
      "v": 52
    },
    {
      "midi": 71,
      "hit": false,
      "t": 197790.57900000055,
      "d": 343.02304999998887,
      "v": 63
    },
    {
      "midi": 64,
      "hit": false,
      "t": 198139.41600000055,
      "d": 1226.743450000009,
      "v": 38
    },
    {
      "midi": 69,
      "hit": false,
      "t": 198139.41600000055,
      "d": 1226.743450000009,
      "v": 44
    },
    {
      "midi": 57,
      "hit": false,
      "t": 198139.41600000055,
      "d": 1249.9992500000226,
      "v": 45
    },
    {
      "midi": 67,
      "hit": false,
      "t": 198139.41600000055,
      "d": 1249.9992500000226,
      "v": 51
    },
    {
      "midi": 72,
      "hit": false,
      "t": 198139.41600000055,
      "d": 1261.6271500000148,
      "v": 44
    },
    {
      "midi": 67,
      "hit": false,
      "t": 199534.76400000058,
      "d": 1133.720250000013,
      "v": 45
    },
    {
      "midi": 64,
      "hit": false,
      "t": 199534.76400000058,
      "d": 1156.9760500000266,
      "v": 37
    },
    {
      "midi": 69,
      "hit": false,
      "t": 199534.76400000058,
      "d": 1162.7900000000373,
      "v": 41
    },
    {
      "midi": 57,
      "hit": false,
      "t": 199534.76400000058,
      "d": 1174.4179000000295,
      "v": 47
    },
    {
      "midi": 72,
      "hit": false,
      "t": 199534.76400000058,
      "d": 1197.673700000043,
      "v": 40
    },
    {
      "midi": 67,
      "hit": false,
      "t": 200930.11200000063,
      "d": 1151.1620999999868,
      "v": 56
    },
    {
      "midi": 69,
      "hit": false,
      "t": 200930.11200000063,
      "d": 1162.789999999979,
      "v": 45
    },
    {
      "midi": 72,
      "hit": false,
      "t": 200930.11200000063,
      "d": 1162.789999999979,
      "v": 37
    },
    {
      "midi": 57,
      "hit": false,
      "t": 200930.11200000063,
      "d": 1209.301599999977,
      "v": 55
    },
    {
      "midi": 64,
      "hit": false,
      "t": 200941.73990000063,
      "d": 1151.1620999999868,
      "v": 41
    },
    {
      "midi": 67,
      "hit": false,
      "t": 202325.4600000006,
      "d": 1098.8365500000073,
      "v": 61
    },
    {
      "midi": 64,
      "hit": false,
      "t": 202325.4600000006,
      "d": 1110.4644499999995,
      "v": 61
    },
    {
      "midi": 72,
      "hit": false,
      "t": 202325.4600000006,
      "d": 1116.2784000000102,
      "v": 61
    },
    {
      "midi": 69,
      "hit": false,
      "t": 202325.4600000006,
      "d": 1122.0923500000208,
      "v": 61
    },
    {
      "midi": 57,
      "hit": false,
      "t": 202325.4600000006,
      "d": 1156.9760500000266,
      "v": 61
    },
    {
      "midi": 59,
      "hit": false,
      "t": 203546.38950000063,
      "d": 866.2785499999882,
      "v": 45
    },
    {
      "midi": 62,
      "hit": false,
      "t": 203546.38950000063,
      "d": 866.2785499999882,
      "v": 42
    },
    {
      "midi": 74,
      "hit": false,
      "t": 203546.38950000063,
      "d": 1517.4409499999892,
      "v": 46
    },
    {
      "midi": 66,
      "hit": false,
      "t": 203546.38950000063,
      "d": 1529.0688499999815,
      "v": 51
    },
    {
      "midi": 71,
      "hit": false,
      "t": 203546.38950000063,
      "d": 1529.0688499999815,
      "v": 59
    },
    {
      "midi": 59,
      "hit": false,
      "t": 204418.48200000063,
      "d": 691.8600499999884,
      "v": 45
    },
    {
      "midi": 62,
      "hit": false,
      "t": 204418.48200000063,
      "d": 691.8600499999884,
      "v": 42
    },
    {
      "midi": 69,
      "hit": false,
      "t": 205116.15600000063,
      "d": 1331.3945499999973,
      "v": 59
    },
    {
      "midi": 73,
      "hit": false,
      "t": 205116.15600000063,
      "d": 1343.0224499999895,
      "v": 48
    },
    {
      "midi": 64,
      "hit": false,
      "t": 205116.15600000063,
      "d": 1360.4642999999924,
      "v": 39
    },
    {
      "midi": 57,
      "hit": false,
      "t": 205116.15600000063,
      "d": 1377.9061499999953,
      "v": 44
    },
    {
      "midi": 61,
      "hit": false,
      "t": 205116.15600000063,
      "d": 1377.9061499999953,
      "v": 49
    },
    {
      "midi": 71,
      "hit": false,
      "t": 206511.50400000063,
      "d": 912.7901499999862,
      "v": 50
    },
    {
      "midi": 74,
      "hit": false,
      "t": 206511.50400000063,
      "d": 1122.0923499999917,
      "v": 44
    },
    {
      "midi": 64,
      "hit": false,
      "t": 206511.50400000063,
      "d": 1215.1155499999877,
      "v": 36
    },
    {
      "midi": 67,
      "hit": false,
      "t": 206511.50400000063,
      "d": 1215.1155499999877,
      "v": 46
    },
    {
      "midi": 71,
      "hit": false,
      "t": 207558.01500000063,
      "d": 343.02304999998887,
      "v": 65
    },
    {
      "midi": 64,
      "hit": false,
      "t": 207906.85200000062,
      "d": 691.8600499999884,
      "v": 36
    },
    {
      "midi": 74,
      "hit": false,
      "t": 207906.85200000062,
      "d": 691.8600499999884,
      "v": 52
    },
    {
      "midi": 71,
      "hit": false,
      "t": 207906.85200000062,
      "d": 790.6971999999951,
      "v": 36
    },
    {
      "midi": 67,
      "hit": false,
      "t": 207906.85200000062,
      "d": 1389.5340499999875,
      "v": 46
    },
    {
      "midi": 64,
      "hit": false,
      "t": 208604.52600000062,
      "d": 691.8600499999884,
      "v": 36
    },
    {
      "midi": 74,
      "hit": false,
      "t": 208604.52600000062,
      "d": 691.8600499999884,
      "v": 52
    },
    {
      "midi": 71,
      "hit": false,
      "t": 208953.36300000062,
      "d": 343.02304999998887,
      "v": 63
    },
    {
      "midi": 62,
      "hit": false,
      "t": 209302.20000000062,
      "d": 226.74405000000843,
      "v": 67
    },
    {
      "midi": 67,
      "hit": false,
      "t": 209302.20000000062,
      "d": 232.5580000000191,
      "v": 79
    },
    {
      "midi": 59,
      "hit": false,
      "t": 209999.87400000065,
      "d": 273.2556500000064,
      "v": 71
    },
    {
      "midi": 62,
      "hit": false,
      "t": 209999.87400000065,
      "d": 279.0696000000171,
      "v": 64
    },
    {
      "midi": 59,
      "hit": false,
      "t": 210680.10615000068,
      "d": 1325.5805999999866,
      "v": 44
    },
    {
      "midi": 62,
      "hit": false,
      "t": 210685.9201000007,
      "d": 1308.1387499999837,
      "v": 43
    },
    {
      "midi": 55,
      "hit": false,
      "t": 211395.22200000068,
      "d": 668.6042499999749,
      "v": 45
    },
    {
      "midi": 52,
      "hit": false,
      "t": 211395.22200000068,
      "d": 674.4181999999855,
      "v": 47
    },
    {
      "midi": 71,
      "hit": false,
      "t": 212092.89600000068,
      "d": 325.581199999986,
      "v": 71
    },
    {
      "midi": 64,
      "hit": false,
      "t": 212092.89600000068,
      "d": 738.3716499999864,
      "v": 35
    },
    {
      "midi": 55,
      "hit": false,
      "t": 212104.52390000067,
      "d": 738.3716499999864,
      "v": 32
    },
    {
      "midi": 69,
      "hit": false,
      "t": 212441.73300000068,
      "d": 34.883700000005774,
      "v": 75
    },
    {
      "midi": 71,
      "hit": false,
      "t": 212790.57000000068,
      "d": 302.32539999997243,
      "v": 72
    },
    {
      "midi": 59,
      "hit": false,
      "t": 212790.57000000068,
      "d": 575.5810499999498,
      "v": 35
    },
    {
      "midi": 52,
      "hit": false,
      "t": 212790.57000000068,
      "d": 581.3949999999604,
      "v": 40
    },
    {
      "midi": 69,
      "hit": false,
      "t": 213139.40700000065,
      "d": 75.58134999999311,
      "v": 73
    },
    {
      "midi": 64,
      "hit": false,
      "t": 213494.05795000063,
      "d": 645.3484500000195,
      "v": 38
    },
    {
      "midi": 55,
      "hit": false,
      "t": 213505.68585000062,
      "d": 633.7205500000273,
      "v": 37
    },
    {
      "midi": 74,
      "hit": false,
      "t": 213837.08100000062,
      "d": 34.883700000005774,
      "v": 76
    },
    {
      "midi": 69,
      "hit": false,
      "t": 213837.08100000062,
      "d": 40.69765000001644,
      "v": 75
    },
    {
      "midi": 74,
      "hit": false,
      "t": 214185.91800000065,
      "d": 145.34875000000466,
      "v": 71
    },
    {
      "midi": 69,
      "hit": false,
      "t": 214185.91800000065,
      "d": 162.79060000000754,
      "v": 70
    },
    {
      "midi": 52,
      "hit": false,
      "t": 214185.91800000065,
      "d": 569.7670999999973,
      "v": 47
    },
    {
      "midi": 59,
      "hit": false,
      "t": 214197.54590000064,
      "d": 558.1392000000051,
      "v": 39
    },
    {
      "midi": 76,
      "hit": false,
      "t": 214360.33650000065,
      "d": 110.46504999999888,
      "v": 51
    },
    {
      "midi": 71,
      "hit": false,
      "t": 214360.33650000065,
      "d": 116.27900000000955,
      "v": 61
    },
    {
      "midi": 74,
      "hit": false,
      "t": 214534.75500000064,
      "d": 34.883700000005774,
      "v": 72
    },
    {
      "midi": 69,
      "hit": false,
      "t": 214534.75500000064,
      "d": 81.39530000000377,
      "v": 63
    },
    {
      "midi": 62,
      "hit": false,
      "t": 214883.59200000064,
      "d": 226.74405000000843,
      "v": 67
    },
    {
      "midi": 67,
      "hit": false,
      "t": 214883.59200000064,
      "d": 232.5580000000191,
      "v": 79
    },
    {
      "midi": 59,
      "hit": false,
      "t": 215581.26600000067,
      "d": 273.2556500000064,
      "v": 71
    },
    {
      "midi": 62,
      "hit": false,
      "t": 215581.26600000067,
      "d": 279.0696000000171,
      "v": 64
    },
    {
      "midi": 59,
      "hit": false,
      "t": 216261.4981500007,
      "d": 1325.5805999999866,
      "v": 44
    },
    {
      "midi": 62,
      "hit": false,
      "t": 216267.3121000007,
      "d": 1308.1387499999837,
      "v": 43
    },
    {
      "midi": 55,
      "hit": false,
      "t": 216976.6140000007,
      "d": 668.6042499999749,
      "v": 45
    },
    {
      "midi": 52,
      "hit": false,
      "t": 216976.6140000007,
      "d": 674.4181999999855,
      "v": 47
    },
    {
      "midi": 71,
      "hit": false,
      "t": 217674.2880000007,
      "d": 325.581199999986,
      "v": 71
    },
    {
      "midi": 64,
      "hit": false,
      "t": 217674.2880000007,
      "d": 738.3716499999864,
      "v": 35
    },
    {
      "midi": 55,
      "hit": false,
      "t": 217685.9159000007,
      "d": 738.3716499999864,
      "v": 32
    },
    {
      "midi": 69,
      "hit": false,
      "t": 218023.1250000007,
      "d": 34.883700000005774,
      "v": 75
    },
    {
      "midi": 71,
      "hit": false,
      "t": 218371.9620000007,
      "d": 302.32539999997243,
      "v": 72
    },
    {
      "midi": 59,
      "hit": false,
      "t": 218371.9620000007,
      "d": 575.5810499999498,
      "v": 35
    },
    {
      "midi": 52,
      "hit": false,
      "t": 218371.9620000007,
      "d": 581.3949999999604,
      "v": 40
    },
    {
      "midi": 69,
      "hit": false,
      "t": 218720.79900000067,
      "d": 75.58134999999311,
      "v": 73
    },
    {
      "midi": 64,
      "hit": false,
      "t": 219075.44995000065,
      "d": 645.3484500000195,
      "v": 38
    },
    {
      "midi": 55,
      "hit": false,
      "t": 219087.07785000064,
      "d": 633.7205500000273,
      "v": 37
    },
    {
      "midi": 74,
      "hit": false,
      "t": 219418.47300000064,
      "d": 34.883700000005774,
      "v": 76
    },
    {
      "midi": 69,
      "hit": false,
      "t": 219418.47300000064,
      "d": 40.69765000001644,
      "v": 75
    },
    {
      "midi": 74,
      "hit": false,
      "t": 219767.31000000067,
      "d": 145.34875000000466,
      "v": 71
    },
    {
      "midi": 69,
      "hit": false,
      "t": 219767.31000000067,
      "d": 162.79060000000754,
      "v": 70
    },
    {
      "midi": 52,
      "hit": false,
      "t": 219767.31000000067,
      "d": 569.7670999999973,
      "v": 47
    },
    {
      "midi": 59,
      "hit": false,
      "t": 219778.93790000066,
      "d": 558.1392000000051,
      "v": 39
    },
    {
      "midi": 76,
      "hit": false,
      "t": 219941.72850000067,
      "d": 110.46504999999888,
      "v": 51
    },
    {
      "midi": 71,
      "hit": false,
      "t": 219941.72850000067,
      "d": 116.27900000000955,
      "v": 61
    },
    {
      "midi": 74,
      "hit": false,
      "t": 220116.14700000067,
      "d": 34.883700000005774,
      "v": 72
    },
    {
      "midi": 69,
      "hit": false,
      "t": 220116.14700000067,
      "d": 81.39530000000377,
      "v": 63
    },
    {
      "midi": 62,
      "hit": false,
      "t": 220464.98400000067,
      "d": 226.74405000000843,
      "v": 67
    },
    {
      "midi": 67,
      "hit": false,
      "t": 220464.98400000067,
      "d": 232.5580000000191,
      "v": 79
    },
    {
      "midi": 59,
      "hit": false,
      "t": 221162.6580000007,
      "d": 273.2556500000064,
      "v": 71
    },
    {
      "midi": 62,
      "hit": false,
      "t": 221162.6580000007,
      "d": 279.0696000000171,
      "v": 64
    },
    {
      "midi": 59,
      "hit": false,
      "t": 221842.89015000072,
      "d": 1325.5805999999866,
      "v": 44
    },
    {
      "midi": 62,
      "hit": false,
      "t": 221848.70410000073,
      "d": 1308.1387499999837,
      "v": 43
    },
    {
      "midi": 55,
      "hit": false,
      "t": 222558.00600000072,
      "d": 668.6042499999749,
      "v": 45
    },
    {
      "midi": 52,
      "hit": false,
      "t": 222558.00600000072,
      "d": 674.4181999999855,
      "v": 47
    },
    {
      "midi": 71,
      "hit": false,
      "t": 223255.68000000072,
      "d": 325.581199999986,
      "v": 71
    },
    {
      "midi": 64,
      "hit": false,
      "t": 223255.68000000072,
      "d": 738.3716499999864,
      "v": 35
    },
    {
      "midi": 55,
      "hit": false,
      "t": 223267.3079000007,
      "d": 738.3716499999864,
      "v": 32
    },
    {
      "midi": 69,
      "hit": false,
      "t": 223604.51700000072,
      "d": 34.883700000005774,
      "v": 75
    },
    {
      "midi": 71,
      "hit": false,
      "t": 223953.35400000072,
      "d": 302.32539999997243,
      "v": 72
    },
    {
      "midi": 59,
      "hit": false,
      "t": 223953.35400000072,
      "d": 575.5810499999498,
      "v": 35
    },
    {
      "midi": 52,
      "hit": false,
      "t": 223953.35400000072,
      "d": 581.3949999999604,
      "v": 40
    },
    {
      "midi": 69,
      "hit": false,
      "t": 224302.1910000007,
      "d": 75.58134999999311,
      "v": 73
    },
    {
      "midi": 64,
      "hit": false,
      "t": 224656.84195000067,
      "d": 645.3484500000195,
      "v": 38
    },
    {
      "midi": 55,
      "hit": false,
      "t": 224668.46985000066,
      "d": 633.7205500000273,
      "v": 37
    },
    {
      "midi": 74,
      "hit": false,
      "t": 224999.86500000066,
      "d": 34.883700000005774,
      "v": 76
    },
    {
      "midi": 69,
      "hit": false,
      "t": 224999.86500000066,
      "d": 40.69765000001644,
      "v": 75
    },
    {
      "midi": 74,
      "hit": false,
      "t": 225348.7020000007,
      "d": 145.34875000000466,
      "v": 71
    },
    {
      "midi": 69,
      "hit": false,
      "t": 225348.7020000007,
      "d": 162.79060000000754,
      "v": 70
    },
    {
      "midi": 52,
      "hit": false,
      "t": 225348.7020000007,
      "d": 569.7670999999973,
      "v": 47
    },
    {
      "midi": 59,
      "hit": false,
      "t": 225360.32990000068,
      "d": 558.1392000000051,
      "v": 39
    },
    {
      "midi": 76,
      "hit": false,
      "t": 225523.1205000007,
      "d": 110.46504999999888,
      "v": 51
    },
    {
      "midi": 71,
      "hit": false,
      "t": 225523.1205000007,
      "d": 116.27900000000955,
      "v": 61
    },
    {
      "midi": 74,
      "hit": false,
      "t": 225697.5390000007,
      "d": 34.883700000005774,
      "v": 72
    },
    {
      "midi": 69,
      "hit": false,
      "t": 225697.5390000007,
      "d": 81.39530000000377,
      "v": 63
    },
    {
      "midi": 62,
      "hit": false,
      "t": 226046.3760000007,
      "d": 226.74405000000843,
      "v": 67
    },
    {
      "midi": 67,
      "hit": false,
      "t": 226046.3760000007,
      "d": 232.5580000000191,
      "v": 79
    },
    {
      "midi": 59,
      "hit": false,
      "t": 226744.05000000072,
      "d": 273.2556500000064,
      "v": 71
    },
    {
      "midi": 62,
      "hit": false,
      "t": 226744.05000000072,
      "d": 279.0696000000171,
      "v": 64
    },
    {
      "midi": 59,
      "hit": false,
      "t": 227424.28215000074,
      "d": 1325.5805999999866,
      "v": 44
    },
    {
      "midi": 62,
      "hit": false,
      "t": 227430.09610000075,
      "d": 1308.1387499999837,
      "v": 43
    },
    {
      "midi": 55,
      "hit": false,
      "t": 228139.39800000074,
      "d": 668.6042499999749,
      "v": 45
    },
    {
      "midi": 52,
      "hit": false,
      "t": 228139.39800000074,
      "d": 674.4181999999855,
      "v": 47
    },
    {
      "midi": 71,
      "hit": false,
      "t": 228837.07200000074,
      "d": 325.581199999986,
      "v": 71
    },
    {
      "midi": 64,
      "hit": false,
      "t": 228837.07200000074,
      "d": 738.3716499999864,
      "v": 35
    },
    {
      "midi": 55,
      "hit": false,
      "t": 228848.69990000073,
      "d": 738.3716499999864,
      "v": 32
    },
    {
      "midi": 69,
      "hit": false,
      "t": 229185.90900000074,
      "d": 34.883700000005774,
      "v": 75
    },
    {
      "midi": 71,
      "hit": false,
      "t": 229534.74600000074,
      "d": 302.32539999997243,
      "v": 72
    },
    {
      "midi": 59,
      "hit": false,
      "t": 229534.74600000074,
      "d": 575.5810499999498,
      "v": 35
    },
    {
      "midi": 52,
      "hit": false,
      "t": 229534.74600000074,
      "d": 581.3949999999604,
      "v": 40
    },
    {
      "midi": 69,
      "hit": false,
      "t": 229883.5830000007,
      "d": 75.58134999999311,
      "v": 73
    },
    {
      "midi": 64,
      "hit": false,
      "t": 230238.2339500007,
      "d": 645.3484500000195,
      "v": 38
    },
    {
      "midi": 55,
      "hit": false,
      "t": 230249.86185000069,
      "d": 633.7205500000273,
      "v": 37
    },
    {
      "midi": 74,
      "hit": false,
      "t": 230581.25700000068,
      "d": 34.883700000005774,
      "v": 76
    },
    {
      "midi": 69,
      "hit": false,
      "t": 230581.25700000068,
      "d": 40.69765000001644,
      "v": 75
    },
    {
      "midi": 74,
      "hit": false,
      "t": 230930.0940000007,
      "d": 145.34875000000466,
      "v": 71
    },
    {
      "midi": 69,
      "hit": false,
      "t": 230930.0940000007,
      "d": 162.79060000000754,
      "v": 70
    },
    {
      "midi": 52,
      "hit": false,
      "t": 230930.0940000007,
      "d": 569.7670999999973,
      "v": 47
    },
    {
      "midi": 59,
      "hit": false,
      "t": 230941.7219000007,
      "d": 558.1392000000051,
      "v": 39
    },
    {
      "midi": 76,
      "hit": false,
      "t": 231104.5125000007,
      "d": 110.46504999999888,
      "v": 51
    },
    {
      "midi": 71,
      "hit": false,
      "t": 231104.5125000007,
      "d": 116.27900000000955,
      "v": 61
    },
    {
      "midi": 74,
      "hit": false,
      "t": 231278.9310000007,
      "d": 34.883700000005774,
      "v": 72
    },
    {
      "midi": 69,
      "hit": false,
      "t": 231278.9310000007,
      "d": 81.39530000000377,
      "v": 63
    },
    {
      "midi": 62,
      "hit": false,
      "t": 231627.7680000007,
      "d": 226.74405000000843,
      "v": 67
    },
    {
      "midi": 67,
      "hit": false,
      "t": 231627.7680000007,
      "d": 232.5580000000191,
      "v": 79
    },
    {
      "midi": 59,
      "hit": false,
      "t": 232325.44200000074,
      "d": 273.2556500000064,
      "v": 71
    },
    {
      "midi": 62,
      "hit": false,
      "t": 232325.44200000074,
      "d": 279.0696000000171,
      "v": 64
    },
    {
      "midi": 59,
      "hit": false,
      "t": 233005.67415000076,
      "d": 1325.5805999999866,
      "v": 44
    },
    {
      "midi": 62,
      "hit": false,
      "t": 233011.48810000077,
      "d": 1308.1387499999837,
      "v": 43
    },
    {
      "midi": 55,
      "hit": false,
      "t": 233720.79000000076,
      "d": 668.6042499999749,
      "v": 45
    },
    {
      "midi": 52,
      "hit": false,
      "t": 233720.79000000076,
      "d": 674.4181999999855,
      "v": 47
    },
    {
      "midi": 71,
      "hit": false,
      "t": 234418.46400000076,
      "d": 325.581199999986,
      "v": 71
    },
    {
      "midi": 64,
      "hit": false,
      "t": 234418.46400000076,
      "d": 738.3716499999864,
      "v": 35
    },
    {
      "midi": 55,
      "hit": false,
      "t": 234430.09190000076,
      "d": 738.3716499999864,
      "v": 32
    },
    {
      "midi": 69,
      "hit": false,
      "t": 234767.30100000076,
      "d": 34.883700000005774,
      "v": 75
    },
    {
      "midi": 71,
      "hit": false,
      "t": 235116.13800000076,
      "d": 302.32539999997243,
      "v": 72
    },
    {
      "midi": 59,
      "hit": false,
      "t": 235116.13800000076,
      "d": 575.5810499999498,
      "v": 35
    },
    {
      "midi": 52,
      "hit": false,
      "t": 235116.13800000076,
      "d": 581.3949999999604,
      "v": 40
    },
    {
      "midi": 69,
      "hit": false,
      "t": 235464.97500000073,
      "d": 75.58134999999311,
      "v": 73
    },
    {
      "midi": 64,
      "hit": false,
      "t": 235819.6259500007,
      "d": 645.3484500000195,
      "v": 38
    },
    {
      "midi": 55,
      "hit": false,
      "t": 235831.2538500007,
      "d": 633.7205500000273,
      "v": 37
    },
    {
      "midi": 74,
      "hit": false,
      "t": 236162.6490000007,
      "d": 34.883700000005774,
      "v": 76
    },
    {
      "midi": 69,
      "hit": false,
      "t": 236162.6490000007,
      "d": 40.69765000001644,
      "v": 75
    },
    {
      "midi": 74,
      "hit": false,
      "t": 236511.48600000073,
      "d": 145.34875000000466,
      "v": 71
    },
    {
      "midi": 69,
      "hit": false,
      "t": 236511.48600000073,
      "d": 162.79060000000754,
      "v": 70
    },
    {
      "midi": 52,
      "hit": false,
      "t": 236511.48600000073,
      "d": 569.7670999999973,
      "v": 47
    },
    {
      "midi": 59,
      "hit": false,
      "t": 236523.11390000072,
      "d": 558.1392000000051,
      "v": 39
    },
    {
      "midi": 76,
      "hit": false,
      "t": 236685.90450000073,
      "d": 110.46504999999888,
      "v": 51
    },
    {
      "midi": 71,
      "hit": false,
      "t": 236685.90450000073,
      "d": 116.27900000000955,
      "v": 61
    },
    {
      "midi": 74,
      "hit": false,
      "t": 236860.32300000073,
      "d": 34.883700000005774,
      "v": 72
    },
    {
      "midi": 69,
      "hit": false,
      "t": 236860.32300000073,
      "d": 81.39530000000377,
      "v": 63
    },
    {
      "midi": 62,
      "hit": false,
      "t": 237209.16000000073,
      "d": 226.74405000000843,
      "v": 67
    },
    {
      "midi": 67,
      "hit": false,
      "t": 237209.16000000073,
      "d": 232.5580000000191,
      "v": 79
    },
    {
      "midi": 59,
      "hit": false,
      "t": 237906.83400000076,
      "d": 273.2556500000064,
      "v": 71
    },
    {
      "midi": 62,
      "hit": false,
      "t": 237906.83400000076,
      "d": 279.0696000000171,
      "v": 64
    },
    {
      "midi": 59,
      "hit": false,
      "t": 238587.06615000078,
      "d": 1325.5805999999866,
      "v": 44
    },
    {
      "midi": 62,
      "hit": false,
      "t": 238592.8801000008,
      "d": 1308.1387499999837,
      "v": 43
    },
    {
      "midi": 55,
      "hit": false,
      "t": 239302.1820000008,
      "d": 668.6042499999749,
      "v": 45
    },
    {
      "midi": 52,
      "hit": false,
      "t": 239302.1820000008,
      "d": 674.4181999999855,
      "v": 47
    },
    {
      "midi": 71,
      "hit": false,
      "t": 239999.8560000008,
      "d": 325.581199999986,
      "v": 71
    },
    {
      "midi": 64,
      "hit": false,
      "t": 239999.8560000008,
      "d": 738.3716499999864,
      "v": 35
    },
    {
      "midi": 55,
      "hit": false,
      "t": 240011.48390000078,
      "d": 738.3716499999864,
      "v": 32
    },
    {
      "midi": 69,
      "hit": false,
      "t": 240348.69300000079,
      "d": 34.883700000005774,
      "v": 75
    },
    {
      "midi": 71,
      "hit": false,
      "t": 240697.53000000078,
      "d": 302.32539999997243,
      "v": 72
    },
    {
      "midi": 59,
      "hit": false,
      "t": 240697.53000000078,
      "d": 575.5810499999498,
      "v": 35
    },
    {
      "midi": 52,
      "hit": false,
      "t": 240697.53000000078,
      "d": 581.3949999999604,
      "v": 40
    },
    {
      "midi": 69,
      "hit": false,
      "t": 241046.36700000076,
      "d": 75.58134999999311,
      "v": 73
    },
    {
      "midi": 64,
      "hit": false,
      "t": 241401.01795000074,
      "d": 645.3484500000195,
      "v": 38
    },
    {
      "midi": 55,
      "hit": false,
      "t": 241412.64585000073,
      "d": 633.7205500000273,
      "v": 37
    },
    {
      "midi": 74,
      "hit": false,
      "t": 241744.04100000073,
      "d": 34.883700000005774,
      "v": 76
    },
    {
      "midi": 69,
      "hit": false,
      "t": 241744.04100000073,
      "d": 40.69765000001644,
      "v": 75
    },
    {
      "midi": 74,
      "hit": false,
      "t": 242092.87800000075,
      "d": 145.34875000000466,
      "v": 71
    },
    {
      "midi": 69,
      "hit": false,
      "t": 242092.87800000075,
      "d": 162.79060000000754,
      "v": 70
    },
    {
      "midi": 52,
      "hit": false,
      "t": 242092.87800000075,
      "d": 569.7670999999973,
      "v": 47
    },
    {
      "midi": 59,
      "hit": false,
      "t": 242104.50590000075,
      "d": 558.1392000000051,
      "v": 39
    },
    {
      "midi": 76,
      "hit": false,
      "t": 242267.29650000075,
      "d": 110.46504999999888,
      "v": 51
    },
    {
      "midi": 71,
      "hit": false,
      "t": 242267.29650000075,
      "d": 116.27900000000955,
      "v": 61
    },
    {
      "midi": 74,
      "hit": false,
      "t": 242441.71500000075,
      "d": 34.883700000005774,
      "v": 72
    },
    {
      "midi": 69,
      "hit": false,
      "t": 242441.71500000075,
      "d": 81.39530000000377,
      "v": 63
    },
    {
      "midi": 62,
      "hit": false,
      "t": 242790.55200000075,
      "d": 226.74405000000843,
      "v": 67
    },
    {
      "midi": 67,
      "hit": false,
      "t": 242790.55200000075,
      "d": 232.5580000000191,
      "v": 79
    },
    {
      "midi": 59,
      "hit": false,
      "t": 243488.22600000078,
      "d": 273.2556500000064,
      "v": 71
    },
    {
      "midi": 62,
      "hit": false,
      "t": 243488.22600000078,
      "d": 279.0696000000171,
      "v": 64
    },
    {
      "midi": 59,
      "hit": false,
      "t": 244168.4581500008,
      "d": 1325.5805999999866,
      "v": 44
    },
    {
      "midi": 62,
      "hit": false,
      "t": 244174.27210000082,
      "d": 1308.1387499999837,
      "v": 43
    },
    {
      "midi": 55,
      "hit": false,
      "t": 244883.5740000008,
      "d": 668.6042499999749,
      "v": 45
    },
    {
      "midi": 52,
      "hit": false,
      "t": 244883.5740000008,
      "d": 674.4181999999855,
      "v": 47
    },
    {
      "midi": 71,
      "hit": false,
      "t": 245581.2480000008,
      "d": 325.581199999986,
      "v": 71
    },
    {
      "midi": 64,
      "hit": false,
      "t": 245581.2480000008,
      "d": 738.3716499999864,
      "v": 35
    },
    {
      "midi": 55,
      "hit": false,
      "t": 245592.8759000008,
      "d": 738.3716499999864,
      "v": 32
    },
    {
      "midi": 69,
      "hit": false,
      "t": 245930.0850000008,
      "d": 34.883700000005774,
      "v": 75
    },
    {
      "midi": 71,
      "hit": false,
      "t": 246278.9220000008,
      "d": 302.32539999997243,
      "v": 72
    },
    {
      "midi": 59,
      "hit": false,
      "t": 246278.9220000008,
      "d": 575.5810499999498,
      "v": 35
    },
    {
      "midi": 52,
      "hit": false,
      "t": 246278.9220000008,
      "d": 581.3949999999604,
      "v": 40
    },
    {
      "midi": 69,
      "hit": false,
      "t": 246627.75900000078,
      "d": 75.58134999999311,
      "v": 73
    },
    {
      "midi": 64,
      "hit": false,
      "t": 246982.40995000076,
      "d": 645.3484500000195,
      "v": 38
    },
    {
      "midi": 55,
      "hit": false,
      "t": 246994.03785000075,
      "d": 633.7205500000273,
      "v": 37
    },
    {
      "midi": 74,
      "hit": false,
      "t": 247325.43300000075,
      "d": 34.883700000005774,
      "v": 76
    },
    {
      "midi": 69,
      "hit": false,
      "t": 247325.43300000075,
      "d": 40.69765000001644,
      "v": 75
    },
    {
      "midi": 74,
      "hit": false,
      "t": 247674.27000000078,
      "d": 145.34875000000466,
      "v": 71
    },
    {
      "midi": 69,
      "hit": false,
      "t": 247674.27000000078,
      "d": 162.79060000000754,
      "v": 70
    },
    {
      "midi": 52,
      "hit": false,
      "t": 247674.27000000078,
      "d": 569.7670999999973,
      "v": 47
    },
    {
      "midi": 59,
      "hit": false,
      "t": 247685.89790000077,
      "d": 558.1392000000051,
      "v": 39
    },
    {
      "midi": 76,
      "hit": false,
      "t": 247848.68850000078,
      "d": 110.46504999999888,
      "v": 51
    },
    {
      "midi": 71,
      "hit": false,
      "t": 247848.68850000078,
      "d": 116.27900000000955,
      "v": 61
    },
    {
      "midi": 74,
      "hit": false,
      "t": 248023.10700000077,
      "d": 34.883700000005774,
      "v": 72
    },
    {
      "midi": 69,
      "hit": false,
      "t": 248023.10700000077,
      "d": 81.39530000000377,
      "v": 63
    },
    {
      "midi": 62,
      "hit": false,
      "t": 248371.94400000077,
      "d": 226.74405000000843,
      "v": 67
    },
    {
      "midi": 67,
      "hit": false,
      "t": 248371.94400000077,
      "d": 232.5580000000191,
      "v": 79
    },
    {
      "midi": 59,
      "hit": false,
      "t": 249069.6180000008,
      "d": 273.2556500000064,
      "v": 71
    },
    {
      "midi": 62,
      "hit": false,
      "t": 249069.6180000008,
      "d": 279.0696000000171,
      "v": 64
    },
    {
      "midi": 59,
      "hit": false,
      "t": 249749.85015000083,
      "d": 1325.5805999999866,
      "v": 44
    },
    {
      "midi": 62,
      "hit": false,
      "t": 249755.66410000084,
      "d": 1308.1387499999837,
      "v": 43
    },
    {
      "midi": 55,
      "hit": false,
      "t": 250464.96600000083,
      "d": 668.6042499999749,
      "v": 45
    },
    {
      "midi": 52,
      "hit": false,
      "t": 250464.96600000083,
      "d": 674.4181999999855,
      "v": 47
    },
    {
      "midi": 71,
      "hit": false,
      "t": 251162.64000000083,
      "d": 325.581199999986,
      "v": 71
    },
    {
      "midi": 64,
      "hit": false,
      "t": 251162.64000000083,
      "d": 738.3716499999864,
      "v": 35
    },
    {
      "midi": 55,
      "hit": false,
      "t": 251174.26790000082,
      "d": 738.3716499999864,
      "v": 32
    },
    {
      "midi": 69,
      "hit": false,
      "t": 251511.47700000083,
      "d": 34.883700000005774,
      "v": 75
    },
    {
      "midi": 71,
      "hit": false,
      "t": 251860.31400000083,
      "d": 302.32539999997243,
      "v": 72
    },
    {
      "midi": 59,
      "hit": false,
      "t": 251860.31400000083,
      "d": 575.5810499999498,
      "v": 35
    },
    {
      "midi": 52,
      "hit": false,
      "t": 251860.31400000083,
      "d": 581.3949999999604,
      "v": 40
    },
    {
      "midi": 69,
      "hit": false,
      "t": 252209.1510000008,
      "d": 75.58134999999311,
      "v": 73
    },
    {
      "midi": 64,
      "hit": false,
      "t": 252563.80195000078,
      "d": 645.3484500000195,
      "v": 38
    },
    {
      "midi": 55,
      "hit": false,
      "t": 252575.42985000077,
      "d": 633.7205500000273,
      "v": 37
    },
    {
      "midi": 74,
      "hit": false,
      "t": 252906.82500000077,
      "d": 34.883700000005774,
      "v": 76
    },
    {
      "midi": 69,
      "hit": false,
      "t": 252906.82500000077,
      "d": 40.69765000001644,
      "v": 75
    },
    {
      "midi": 74,
      "hit": false,
      "t": 253255.6620000008,
      "d": 145.34875000000466,
      "v": 71
    },
    {
      "midi": 69,
      "hit": false,
      "t": 253255.6620000008,
      "d": 162.79060000000754,
      "v": 70
    },
    {
      "midi": 52,
      "hit": false,
      "t": 253255.6620000008,
      "d": 569.7670999999973,
      "v": 47
    },
    {
      "midi": 59,
      "hit": false,
      "t": 253267.2899000008,
      "d": 558.1392000000051,
      "v": 39
    },
    {
      "midi": 76,
      "hit": false,
      "t": 253430.0805000008,
      "d": 110.46504999999888,
      "v": 51
    },
    {
      "midi": 71,
      "hit": false,
      "t": 253430.0805000008,
      "d": 116.27900000000955,
      "v": 61
    },
    {
      "midi": 74,
      "hit": false,
      "t": 253604.4990000008,
      "d": 34.883700000005774,
      "v": 72
    },
    {
      "midi": 69,
      "hit": false,
      "t": 253604.4990000008,
      "d": 81.39530000000377,
      "v": 63
    },
    {
      "midi": 62,
      "hit": false,
      "t": 253953.3360000008,
      "d": 226.74405000000843,
      "v": 67
    },
    {
      "midi": 67,
      "hit": false,
      "t": 253953.3360000008,
      "d": 232.5580000000191,
      "v": 79
    },
    {
      "midi": 59,
      "hit": false,
      "t": 254651.01000000082,
      "d": 273.2556500000064,
      "v": 71
    },
    {
      "midi": 62,
      "hit": false,
      "t": 254651.01000000082,
      "d": 279.0696000000171,
      "v": 64
    },
    {
      "midi": 59,
      "hit": false,
      "t": 255331.24215000085,
      "d": 1325.5805999999866,
      "v": 44
    },
    {
      "midi": 62,
      "hit": false,
      "t": 255337.05610000086,
      "d": 1308.1387499999837,
      "v": 43
    },
    {
      "midi": 55,
      "hit": false,
      "t": 256046.35800000085,
      "d": 668.6042499999749,
      "v": 45
    },
    {
      "midi": 52,
      "hit": false,
      "t": 256046.35800000085,
      "d": 674.4181999999855,
      "v": 47
    },
    {
      "midi": 71,
      "hit": false,
      "t": 256744.03200000085,
      "d": 325.581199999986,
      "v": 71
    },
    {
      "midi": 64,
      "hit": false,
      "t": 256744.03200000085,
      "d": 738.3716499999864,
      "v": 35
    },
    {
      "midi": 55,
      "hit": false,
      "t": 256755.65990000084,
      "d": 738.3716499999864,
      "v": 32
    },
    {
      "midi": 69,
      "hit": false,
      "t": 257092.86900000085,
      "d": 34.883700000005774,
      "v": 75
    },
    {
      "midi": 71,
      "hit": false,
      "t": 257441.70600000085,
      "d": 302.32539999997243,
      "v": 72
    },
    {
      "midi": 59,
      "hit": false,
      "t": 257441.70600000085,
      "d": 575.5810499999498,
      "v": 35
    },
    {
      "midi": 52,
      "hit": false,
      "t": 257441.70600000085,
      "d": 581.3949999999604,
      "v": 40
    },
    {
      "midi": 69,
      "hit": false,
      "t": 257790.54300000082,
      "d": 75.58134999999311,
      "v": 73
    },
    {
      "midi": 64,
      "hit": false,
      "t": 258145.1939500008,
      "d": 645.3484500000195,
      "v": 38
    },
    {
      "midi": 55,
      "hit": false,
      "t": 258156.8218500008,
      "d": 633.7205500000273,
      "v": 37
    },
    {
      "midi": 74,
      "hit": false,
      "t": 258488.2170000008,
      "d": 34.883700000005774,
      "v": 76
    },
    {
      "midi": 69,
      "hit": false,
      "t": 258488.2170000008,
      "d": 40.69765000001644,
      "v": 75
    },
    {
      "midi": 74,
      "hit": false,
      "t": 258837.05400000082,
      "d": 145.34875000000466,
      "v": 71
    },
    {
      "midi": 69,
      "hit": false,
      "t": 258837.05400000082,
      "d": 162.79060000000754,
      "v": 70
    },
    {
      "midi": 52,
      "hit": false,
      "t": 258837.05400000082,
      "d": 569.7670999999973,
      "v": 47
    },
    {
      "midi": 59,
      "hit": false,
      "t": 258848.6819000008,
      "d": 558.1392000000051,
      "v": 39
    },
    {
      "midi": 76,
      "hit": false,
      "t": 259011.47250000082,
      "d": 110.46504999999888,
      "v": 51
    },
    {
      "midi": 71,
      "hit": false,
      "t": 259011.47250000082,
      "d": 116.27900000000955,
      "v": 61
    },
    {
      "midi": 74,
      "hit": false,
      "t": 259185.89100000082,
      "d": 34.883700000005774,
      "v": 72
    },
    {
      "midi": 69,
      "hit": false,
      "t": 259185.89100000082,
      "d": 81.39530000000377,
      "v": 63
    },
    {
      "midi": 62,
      "hit": false,
      "t": 259534.72800000082,
      "d": 226.74405000000843,
      "v": 67
    },
    {
      "midi": 67,
      "hit": false,
      "t": 259534.72800000082,
      "d": 232.5580000000191,
      "v": 79
    },
    {
      "midi": 59,
      "hit": false,
      "t": 260232.40200000085,
      "d": 273.2556500000064,
      "v": 71
    },
    {
      "midi": 62,
      "hit": false,
      "t": 260232.40200000085,
      "d": 279.0696000000171,
      "v": 64
    },
    {
      "midi": 59,
      "hit": false,
      "t": 260912.63415000087,
      "d": 1325.5806000000448,
      "v": 44
    },
    {
      "midi": 62,
      "hit": false,
      "t": 260918.44810000088,
      "d": 1308.1387500000128,
      "v": 43
    },
    {
      "midi": 55,
      "hit": false,
      "t": 261627.75000000087,
      "d": 668.6042500000331,
      "v": 45
    },
    {
      "midi": 52,
      "hit": false,
      "t": 261627.75000000087,
      "d": 674.4182000000146,
      "v": 47
    },
    {
      "midi": 71,
      "hit": false,
      "t": 262325.4240000009,
      "d": 325.5812000000151,
      "v": 71
    },
    {
      "midi": 64,
      "hit": false,
      "t": 262325.4240000009,
      "d": 738.3716499999864,
      "v": 35
    },
    {
      "midi": 55,
      "hit": false,
      "t": 262337.0519000009,
      "d": 738.3716499999864,
      "v": 32
    },
    {
      "midi": 69,
      "hit": false,
      "t": 262674.2610000009,
      "d": 34.883700000005774,
      "v": 75
    },
    {
      "midi": 71,
      "hit": false,
      "t": 263023.0980000009,
      "d": 302.32540000003064,
      "v": 72
    },
    {
      "midi": 59,
      "hit": false,
      "t": 263023.0980000009,
      "d": 575.5810500000371,
      "v": 35
    },
    {
      "midi": 52,
      "hit": false,
      "t": 263023.0980000009,
      "d": 581.3950000000186,
      "v": 40
    },
    {
      "midi": 69,
      "hit": false,
      "t": 263371.9350000009,
      "d": 75.58134999999311,
      "v": 73
    },
    {
      "midi": 64,
      "hit": false,
      "t": 263726.5859500009,
      "d": 645.3484499999904,
      "v": 38
    },
    {
      "midi": 55,
      "hit": false,
      "t": 263738.21385000093,
      "d": 633.7205499999691,
      "v": 37
    },
    {
      "midi": 74,
      "hit": false,
      "t": 264069.6090000009,
      "d": 34.883700000005774,
      "v": 76
    },
    {
      "midi": 69,
      "hit": false,
      "t": 264069.6090000009,
      "d": 40.697649999987334,
      "v": 75
    },
    {
      "midi": 74,
      "hit": false,
      "t": 264418.4460000009,
      "d": 145.34875000000466,
      "v": 71
    },
    {
      "midi": 69,
      "hit": false,
      "t": 264418.4460000009,
      "d": 162.79060000000754,
      "v": 70
    },
    {
      "midi": 52,
      "hit": false,
      "t": 264418.4460000009,
      "d": 569.7671000000555,
      "v": 47
    },
    {
      "midi": 59,
      "hit": false,
      "t": 264430.07390000095,
      "d": 558.1392000000342,
      "v": 39
    },
    {
      "midi": 76,
      "hit": false,
      "t": 264592.86450000096,
      "d": 110.46504999999888,
      "v": 51
    },
    {
      "midi": 71,
      "hit": false,
      "t": 264592.86450000096,
      "d": 116.27899999998044,
      "v": 61
    },
    {
      "midi": 74,
      "hit": false,
      "t": 264767.2830000009,
      "d": 34.883700000005774,
      "v": 72
    },
    {
      "midi": 69,
      "hit": false,
      "t": 264767.2830000009,
      "d": 81.39530000003288,
      "v": 63
    },
    {
      "midi": 62,
      "hit": false,
      "t": 265116.120000001,
      "d": 226.74404999997932,
      "v": 67
    },
    {
      "midi": 67,
      "hit": false,
      "t": 265116.120000001,
      "d": 232.55799999996088,
      "v": 79
    },
    {
      "midi": 59,
      "hit": false,
      "t": 265813.7940000009,
      "d": 273.2556500000064,
      "v": 69
    },
    {
      "midi": 62,
      "hit": false,
      "t": 265813.7940000009,
      "d": 279.069599999988,
      "v": 63
    },
    {
      "midi": 59,
      "hit": false,
      "t": 266494.0261500009,
      "d": 1325.5806000000448,
      "v": 42
    },
    {
      "midi": 62,
      "hit": false,
      "t": 266499.8401000009,
      "d": 1308.138750000042,
      "v": 41
    },
    {
      "midi": 55,
      "hit": false,
      "t": 267209.1420000009,
      "d": 668.6042500000331,
      "v": 42
    },
    {
      "midi": 52,
      "hit": false,
      "t": 267209.1420000009,
      "d": 674.4182000000146,
      "v": 44
    },
    {
      "midi": 71,
      "hit": false,
      "t": 267906.8160000009,
      "d": 325.5812000000151,
      "v": 64
    },
    {
      "midi": 64,
      "hit": false,
      "t": 267906.8160000009,
      "d": 738.3716499999864,
      "v": 31
    },
    {
      "midi": 55,
      "hit": false,
      "t": 267918.44390000094,
      "d": 738.3716499999864,
      "v": 29
    },
    {
      "midi": 69,
      "hit": false,
      "t": 268255.6530000009,
      "d": 34.883700000005774,
      "v": 68
    },
    {
      "midi": 71,
      "hit": false,
      "t": 268604.4900000009,
      "d": 302.32540000003064,
      "v": 64
    },
    {
      "midi": 59,
      "hit": false,
      "t": 268604.4900000009,
      "d": 575.5810500000371,
      "v": 31
    },
    {
      "midi": 52,
      "hit": false,
      "t": 268604.4900000009,
      "d": 581.3950000000186,
      "v": 36
    },
    {
      "midi": 69,
      "hit": false,
      "t": 268953.327000001,
      "d": 75.58134999999311,
      "v": 64
    },
    {
      "midi": 64,
      "hit": false,
      "t": 269307.97795000096,
      "d": 645.3484499999904,
      "v": 33
    },
    {
      "midi": 55,
      "hit": false,
      "t": 269319.605850001,
      "d": 633.7205499999691,
      "v": 32
    },
    {
      "midi": 74,
      "hit": false,
      "t": 269651.001000001,
      "d": 34.883700000005774,
      "v": 65
    },
    {
      "midi": 69,
      "hit": false,
      "t": 269651.001000001,
      "d": 40.697649999987334,
      "v": 65
    },
    {
      "midi": 74,
      "hit": false,
      "t": 269999.838000001,
      "d": 145.34875000000466,
      "v": 60
    },
    {
      "midi": 69,
      "hit": false,
      "t": 269999.838000001,
      "d": 162.79060000000754,
      "v": 60
    },
    {
      "midi": 52,
      "hit": false,
      "t": 269999.838000001,
      "d": 569.7671000000555,
      "v": 40
    },
    {
      "midi": 59,
      "hit": false,
      "t": 270011.465900001,
      "d": 558.1392000000342,
      "v": 33
    },
    {
      "midi": 76,
      "hit": false,
      "t": 270174.256500001,
      "d": 110.46504999999888,
      "v": 43
    },
    {
      "midi": 71,
      "hit": false,
      "t": 270174.256500001,
      "d": 116.27899999998044,
      "v": 51
    },
    {
      "midi": 74,
      "hit": false,
      "t": 270348.675000001,
      "d": 34.883700000005774,
      "v": 61
    },
    {
      "midi": 69,
      "hit": false,
      "t": 270348.675000001,
      "d": 81.39530000003288,
      "v": 54
    },
    {
      "midi": 62,
      "hit": false,
      "t": 270697.51200000104,
      "d": 226.74404999997932,
      "v": 56
    },
    {
      "midi": 67,
      "hit": false,
      "t": 270697.51200000104,
      "d": 232.55799999996088,
      "v": 65
    },
    {
      "midi": 59,
      "hit": false,
      "t": 271395.186000001,
      "d": 273.2556500000064,
      "v": 57
    },
    {
      "midi": 62,
      "hit": false,
      "t": 271395.186000001,
      "d": 279.069599999988,
      "v": 53
    },
    {
      "midi": 59,
      "hit": false,
      "t": 272075.418150001,
      "d": 1325.5806000000448,
      "v": 35
    },
    {
      "midi": 62,
      "hit": false,
      "t": 272081.23210000095,
      "d": 1308.138750000042,
      "v": 34
    },
    {
      "midi": 55,
      "hit": false,
      "t": 272790.534000001,
      "d": 668.6042500000331,
      "v": 35
    },
    {
      "midi": 52,
      "hit": false,
      "t": 272790.534000001,
      "d": 674.4182000000146,
      "v": 36
    },
    {
      "midi": 71,
      "hit": false,
      "t": 273488.208000001,
      "d": 325.5812000000151,
      "v": 53
    },
    {
      "midi": 64,
      "hit": false,
      "t": 273488.208000001,
      "d": 738.3716499999864,
      "v": 26
    },
    {
      "midi": 55,
      "hit": false,
      "t": 273499.835900001,
      "d": 738.3716499999864,
      "v": 24
    },
    {
      "midi": 69,
      "hit": false,
      "t": 273837.045000001,
      "d": 34.883700000005774,
      "v": 55
    },
    {
      "midi": 71,
      "hit": false,
      "t": 274185.882000001,
      "d": 302.32540000003064,
      "v": 53
    },
    {
      "midi": 59,
      "hit": false,
      "t": 274185.882000001,
      "d": 575.5810500000371,
      "v": 25
    },
    {
      "midi": 52,
      "hit": false,
      "t": 274185.882000001,
      "d": 581.3950000000186,
      "v": 28
    },
    {
      "midi": 69,
      "hit": false,
      "t": 274534.71900000103,
      "d": 75.58134999999311,
      "v": 53
    },
    {
      "midi": 64,
      "hit": false,
      "t": 274889.369950001,
      "d": 645.3484499999904,
      "v": 27
    },
    {
      "midi": 55,
      "hit": false,
      "t": 274900.99785000103,
      "d": 633.7205499999691,
      "v": 26
    },
    {
      "midi": 74,
      "hit": false,
      "t": 275232.39300000103,
      "d": 34.883700000005774,
      "v": 53
    },
    {
      "midi": 69,
      "hit": false,
      "t": 275232.39300000103,
      "d": 40.697649999987334,
      "v": 52
    },
    {
      "midi": 74,
      "hit": false,
      "t": 275581.23000000103,
      "d": 145.34875000000466,
      "v": 48
    },
    {
      "midi": 69,
      "hit": false,
      "t": 275581.23000000103,
      "d": 162.79060000000754,
      "v": 47
    },
    {
      "midi": 52,
      "hit": false,
      "t": 275581.23000000103,
      "d": 569.7671000000555,
      "v": 32
    },
    {
      "midi": 59,
      "hit": false,
      "t": 275592.85790000105,
      "d": 558.1392000000342,
      "v": 27
    },
    {
      "midi": 76,
      "hit": false,
      "t": 275755.64850000106,
      "d": 110.46504999999888,
      "v": 35
    },
    {
      "midi": 71,
      "hit": false,
      "t": 275755.64850000106,
      "d": 116.27899999998044,
      "v": 41
    },
    {
      "midi": 74,
      "hit": false,
      "t": 275930.067000001,
      "d": 34.883700000005774,
      "v": 48
    },
    {
      "midi": 69,
      "hit": false,
      "t": 275930.067000001,
      "d": 81.39530000003288,
      "v": 43
    },
    {
      "midi": 62,
      "hit": false,
      "t": 276278.9040000011,
      "d": 226.74404999997932,
      "v": 45
    },
    {
      "midi": 67,
      "hit": false,
      "t": 276278.9040000011,
      "d": 232.55799999996088,
      "v": 52
    },
    {
      "midi": 59,
      "hit": false,
      "t": 276976.578000001,
      "d": 273.2556500000064,
      "v": 45
    },
    {
      "midi": 62,
      "hit": false,
      "t": 276976.578000001,
      "d": 279.069599999988,
      "v": 41
    },
    {
      "midi": 59,
      "hit": false,
      "t": 277656.810150001,
      "d": 1325.5806000000448,
      "v": 27
    },
    {
      "midi": 62,
      "hit": false,
      "t": 277662.624100001,
      "d": 1308.138750000042,
      "v": 27
    },
    {
      "midi": 55,
      "hit": false,
      "t": 278371.926000001,
      "d": 668.6042500000331,
      "v": 27
    },
    {
      "midi": 52,
      "hit": false,
      "t": 278371.926000001,
      "d": 674.4182000000146,
      "v": 28
    },
    {
      "midi": 71,
      "hit": false,
      "t": 279069.600000001,
      "d": 325.5812000000151,
      "v": 41
    },
    {
      "midi": 64,
      "hit": false,
      "t": 279069.600000001,
      "d": 738.3716499999864,
      "v": 20
    },
    {
      "midi": 55,
      "hit": false,
      "t": 279081.22790000105,
      "d": 738.3716499999864,
      "v": 18
    },
    {
      "midi": 69,
      "hit": false,
      "t": 279418.437000001,
      "d": 34.883700000005774,
      "v": 43
    },
    {
      "midi": 71,
      "hit": false,
      "t": 279767.274000001,
      "d": 302.32540000003064,
      "v": 41
    },
    {
      "midi": 59,
      "hit": false,
      "t": 279767.274000001,
      "d": 575.5810500000371,
      "v": 19
    },
    {
      "midi": 52,
      "hit": false,
      "t": 279767.274000001,
      "d": 581.3950000000186,
      "v": 22
    },
    {
      "midi": 69,
      "hit": false,
      "t": 280116.1110000011,
      "d": 75.58134999999311,
      "v": 40
    },
    {
      "midi": 64,
      "hit": false,
      "t": 280470.76195000106,
      "d": 645.3484499999904,
      "v": 20
    },
    {
      "midi": 55,
      "hit": false,
      "t": 280482.3898500011,
      "d": 633.7205499999691,
      "v": 20
    },
    {
      "midi": 74,
      "hit": false,
      "t": 280813.7850000011,
      "d": 34.883700000005774,
      "v": 40
    },
    {
      "midi": 69,
      "hit": false,
      "t": 280813.7850000011,
      "d": 40.697649999987334,
      "v": 40
    },
    {
      "midi": 74,
      "hit": false,
      "t": 281162.6220000011,
      "d": 145.34875000000466,
      "v": 36
    },
    {
      "midi": 69,
      "hit": false,
      "t": 281162.6220000011,
      "d": 162.79060000000754,
      "v": 36
    },
    {
      "midi": 52,
      "hit": false,
      "t": 281162.6220000011,
      "d": 569.7671000000555,
      "v": 25
    },
    {
      "midi": 59,
      "hit": false,
      "t": 281174.2499000011,
      "d": 558.1392000000342,
      "v": 20
    },
    {
      "midi": 76,
      "hit": false,
      "t": 281337.0405000011,
      "d": 110.46504999999888,
      "v": 26
    },
    {
      "midi": 71,
      "hit": false,
      "t": 281337.0405000011,
      "d": 116.27899999998044,
      "v": 31
    },
    {
      "midi": 74,
      "hit": false,
      "t": 281511.4590000011,
      "d": 34.883700000005774,
      "v": 36
    },
    {
      "midi": 69,
      "hit": false,
      "t": 281511.4590000011,
      "d": 81.39530000003288,
      "v": 32
    },
    {
      "midi": 62,
      "hit": false,
      "t": 281860.29600000114,
      "d": 226.74404999997932,
      "v": 32
    },
    {
      "midi": 67,
      "hit": false,
      "t": 281860.29600000114,
      "d": 232.55799999996088,
      "v": 38
    },
    {
      "midi": 59,
      "hit": false,
      "t": 282557.9700000011,
      "d": 273.2556500000064,
      "v": 31
    },
    {
      "midi": 62,
      "hit": false,
      "t": 282557.9700000011,
      "d": 279.069599999988,
      "v": 28
    },
    {
      "midi": 59,
      "hit": false,
      "t": 283238.2021500011,
      "d": 1325.5806000000448,
      "v": 17
    },
    {
      "midi": 62,
      "hit": false,
      "t": 283244.01610000106,
      "d": 1308.138750000042,
      "v": 17
    },
    {
      "midi": 55,
      "hit": false,
      "t": 283953.3180000011,
      "d": 668.6042500000331,
      "v": 16
    },
    {
      "midi": 52,
      "hit": false,
      "t": 283953.3180000011,
      "d": 674.4182000000146,
      "v": 17
    },
    {
      "midi": 71,
      "hit": false,
      "t": 284650.9920000011,
      "d": 325.5812000000151,
      "v": 23
    },
    {
      "midi": 64,
      "hit": false,
      "t": 284650.9920000011,
      "d": 738.3716499999864,
      "v": 11
    },
    {
      "midi": 55,
      "hit": false,
      "t": 284662.6199000011,
      "d": 738.3716499999864,
      "v": 10
    },
    {
      "midi": 69,
      "hit": false,
      "t": 284999.8290000011,
      "d": 34.883700000005774,
      "v": 24
    },
    {
      "midi": 71,
      "hit": false,
      "t": 285348.6660000011,
      "d": 302.32540000003064,
      "v": 21
    },
    {
      "midi": 59,
      "hit": false,
      "t": 285348.6660000011,
      "d": 575.5810500000371,
      "v": 10
    },
    {
      "midi": 52,
      "hit": false,
      "t": 285348.6660000011,
      "d": 581.3950000000186,
      "v": 12
    },
    {
      "midi": 69,
      "hit": false,
      "t": 285697.50300000113,
      "d": 75.58134999999311,
      "v": 20
    },
    {
      "midi": 64,
      "hit": false,
      "t": 286052.1539500011,
      "d": 645.3484499999904,
      "v": 10
    },
    {
      "midi": 55,
      "hit": false,
      "t": 286063.78185000113,
      "d": 633.7205499999691,
      "v": 9
    },
    {
      "midi": 74,
      "hit": false,
      "t": 286395.17700000113,
      "d": 34.883700000005774,
      "v": 19
    },
    {
      "midi": 69,
      "hit": false,
      "t": 286395.17700000113,
      "d": 40.697649999987334,
      "v": 19
    },
    {
      "midi": 74,
      "hit": false,
      "t": 286744.01400000113,
      "d": 145.34875000000466,
      "v": 17
    },
    {
      "midi": 69,
      "hit": false,
      "t": 286744.01400000113,
      "d": 162.79060000000754,
      "v": 17
    },
    {
      "midi": 52,
      "hit": false,
      "t": 286744.01400000113,
      "d": 569.7671000000555,
      "v": 11
    },
    {
      "midi": 59,
      "hit": false,
      "t": 286755.64190000115,
      "d": 558.1392000000342,
      "v": 9
    },
    {
      "midi": 76,
      "hit": false,
      "t": 286918.43250000116,
      "d": 110.46504999999888,
      "v": 11
    },
    {
      "midi": 71,
      "hit": false,
      "t": 286918.43250000116,
      "d": 116.27899999998044,
      "v": 13
    },
    {
      "midi": 74,
      "hit": false,
      "t": 287092.85100000113,
      "d": 34.883700000005774,
      "v": 17
    },
    {
      "midi": 69,
      "hit": false,
      "t": 287092.85100000113,
      "d": 81.39530000003288,
      "v": 14
    },
    {
      "midi": 62,
      "hit": false,
      "t": 287441.6880000012,
      "d": 226.74404999997932,
      "v": 14
    },
    {
      "midi": 67,
      "hit": false,
      "t": 287441.6880000012,
      "d": 232.55799999996088,
      "v": 17
    },
    {
      "midi": 59,
      "hit": false,
      "t": 288139.3620000011,
      "d": 273.2556500000064,
      "v": 13
    },
    {
      "midi": 62,
      "hit": false,
      "t": 288139.3620000011,
      "d": 279.069599999988,
      "v": 12
    },
    {
      "midi": 59,
      "hit": false,
      "t": 288819.5941500011,
      "d": 1325.5806000000448,
      "v": 6
    },
    {
      "midi": 62,
      "hit": false,
      "t": 288825.4081000011,
      "d": 1308.138750000042,
      "v": 6
    },
    {
      "midi": 55,
      "hit": false,
      "t": 289534.7100000011,
      "d": 668.6042500000331,
      "v": 6
    },
    {
      "midi": 52,
      "hit": false,
      "t": 289534.7100000011,
      "d": 674.4182000000146,
      "v": 6
    },
    {
      "midi": 71,
      "hit": false,
      "t": 290232.3840000011,
      "d": 325.5812000000151,
      "v": 8
    },
    {
      "midi": 64,
      "hit": false,
      "t": 290232.3840000011,
      "d": 738.3716499999864,
      "v": 4
    },
    {
      "midi": 55,
      "hit": false,
      "t": 290244.01190000115,
      "d": 738.3716499999864,
      "v": 4
    },
    {
      "midi": 69,
      "hit": false,
      "t": 290581.2210000011,
      "d": 34.883700000005774,
      "v": 8
    },
    {
      "midi": 71,
      "hit": false,
      "t": 290930.0580000011,
      "d": 302.32540000003064,
      "v": 7
    },
    {
      "midi": 59,
      "hit": false,
      "t": 290930.0580000011,
      "d": 575.5810500000371,
      "v": 3
    },
    {
      "midi": 52,
      "hit": false,
      "t": 290930.0580000011,
      "d": 581.3950000000186,
      "v": 4
    },
    {
      "midi": 69,
      "hit": false,
      "t": 291278.8950000012,
      "d": 75.58134999999311,
      "v": 7
    },
    {
      "midi": 64,
      "hit": false,
      "t": 291633.54595000116,
      "d": 645.3484499999904,
      "v": 3
    },
    {
      "midi": 55,
      "hit": false,
      "t": 291645.1738500012,
      "d": 633.7205499999691,
      "v": 2
    },
    {
      "midi": 74,
      "hit": false,
      "t": 291976.5690000012,
      "d": 34.883700000005774,
      "v": 6
    },
    {
      "midi": 69,
      "hit": false,
      "t": 291976.5690000012,
      "d": 40.697649999987334,
      "v": 5
    },
    {
      "midi": 74,
      "hit": false,
      "t": 292325.4060000012,
      "d": 145.34875000000466,
      "v": 4
    },
    {
      "midi": 69,
      "hit": false,
      "t": 292325.4060000012,
      "d": 162.79060000000754,
      "v": 4
    },
    {
      "midi": 52,
      "hit": false,
      "t": 292325.4060000012,
      "d": 569.7671000000555,
      "v": 3
    },
    {
      "midi": 59,
      "hit": false,
      "t": 292337.0339000012,
      "d": 558.1392000000342,
      "v": 2
    },
    {
      "midi": 76,
      "hit": false,
      "t": 292499.8245000012,
      "d": 110.46504999999888,
      "v": 3
    },
    {
      "midi": 71,
      "hit": false,
      "t": 292499.8245000012,
      "d": 116.27899999998044,
      "v": 3
    },
    {
      "midi": 74,
      "hit": false,
      "t": 292674.2430000012,
      "d": 34.883700000005774,
      "v": 4
    },
    {
      "midi": 69,
      "hit": false,
      "t": 292674.2430000012,
      "d": 81.39530000003288,
      "v": 3
    },
    {
      "midi": 62,
      "hit": false,
      "t": 293023.08000000124,
      "d": 226.74404999997932,
      "v": 3
    },
    {
      "midi": 67,
      "hit": false,
      "t": 293023.08000000124,
      "d": 232.55799999996088,
      "v": 4
    },
    {
      "midi": 59,
      "hit": false,
      "t": 293720.7540000012,
      "d": 273.2556500000064,
      "v": 2
    },
    {
      "midi": 62,
      "hit": false,
      "t": 293720.7540000012,
      "d": 279.069599999988,
      "v": 2
    },
    {
      "midi": 59,
      "hit": false,
      "t": 294400.9861500012,
      "d": 1325.5805999999866,
      "v": 1
    },
    {
      "midi": 62,
      "hit": false,
      "t": 294406.80010000116,
      "d": 1308.1387499999837,
      "v": 1
    },
    {
      "midi": 71,
      "hit": false,
      "t": 295813.7760000012,
      "d": 325.5812000000151,
      "v": 1
    }
  ]
}