{
  "jsonPath": "Unknown/Unknown/J.S.Smith/the-stars-and-the-stripes.json",
  "path": "Unknown\\Unknown\\J.S.Smith\\the Stars and the Stripes.mid",
  "name": "the Stars and the Stripes",
  "difficulty": "Advanced",
  "bpm": 120,
  "notes": [
    {
      "midi": 58,
      "hit": false,
      "t": 1000,
      "d": 250,
      "v": 100
    },
    {
      "midi": 58,
      "hit": false,
      "t": 1250,
      "d": 250,
      "v": 100
    },
    {
      "midi": 58,
      "hit": false,
      "t": 1500,
      "d": 500,
      "v": 100
    },
    {
      "midi": 46,
      "hit": false,
      "t": 1500,
      "d": 500,
      "v": 100
    },
    {
      "midi": 62,
      "hit": false,
      "t": 2000,
      "d": 500,
      "v": 100
    },
    {
      "midi": 46,
      "hit": false,
      "t": 2000,
      "d": 500,
      "v": 100
    },
    {
      "midi": 58,
      "hit": false,
      "t": 2000,
      "d": 500,
      "v": 100
    },
    {
      "midi": 60,
      "hit": false,
      "t": 2500,
      "d": 500,
      "v": 100
    },
    {
      "midi": 65,
      "hit": false,
      "t": 2500,
      "d": 500,
      "v": 100
    },
    {
      "midi": 45,
      "hit": false,
      "t": 2500,
      "d": 500,
      "v": 100
    },
    {
      "midi": 57,
      "hit": false,
      "t": 2500,
      "d": 500,
      "v": 100
    },
    {
      "midi": 62,
      "hit": false,
      "t": 3000,
      "d": 1000,
      "v": 100
    },
    {
      "midi": 67,
      "hit": false,
      "t": 3000,
      "d": 1000,
      "v": 100
    },
    {
      "midi": 70,
      "hit": false,
      "t": 3000,
      "d": 1000,
      "v": 100
    },
    {
      "midi": 43,
      "hit": false,
      "t": 3000,
      "d": 1000,
      "v": 100
    },
    {
      "midi": 55,
      "hit": false,
      "t": 3000,
      "d": 1000,
      "v": 100
    },
    {
      "midi": 62,
      "hit": false,
      "t": 4000,
      "d": 250,
      "v": 100
    },
    {
      "midi": 69,
      "hit": false,
      "t": 4000,
      "d": 250,
      "v": 100
    },
    {
      "midi": 74,
      "hit": false,
      "t": 4000,
      "d": 250,
      "v": 100
    },
    {
      "midi": 42,
      "hit": false,
      "t": 4000,
      "d": 500,
      "v": 100
    },
    {
      "midi": 54,
      "hit": false,
      "t": 4000,
      "d": 500,
      "v": 100
    },
    {
      "midi": 72,
      "hit": false,
      "t": 4250,
      "d": 250,
      "v": 100
    },
    {
      "midi": 62,
      "hit": false,
      "t": 4500,
      "d": 500,
      "v": 100
    },
    {
      "midi": 67,
      "hit": false,
      "t": 4500,
      "d": 500,
      "v": 100
    },
    {
      "midi": 70,
      "hit": false,
      "t": 4500,
      "d": 500,
      "v": 100
    },
    {
      "midi": 43,
      "hit": false,
      "t": 4500,
      "d": 500,
      "v": 100
    },
    {
      "midi": 55,
      "hit": false,
      "t": 4500,
      "d": 500,
      "v": 100
    },
    {
      "midi": 58,
      "hit": false,
      "t": 5000,
      "d": 500,
      "v": 100
    },
    {
      "midi": 62,
      "hit": false,
      "t": 5000,
      "d": 500,
      "v": 100
    },
    {
      "midi": 43,
      "hit": false,
      "t": 5000,
      "d": 500,
      "v": 100
    },
    {
      "midi": 55,
      "hit": false,
      "t": 5000,
      "d": 500,
      "v": 100
    },
    {
      "midi": 58,
      "hit": false,
      "t": 5500,
      "d": 500,
      "v": 100
    },
    {
      "midi": 60,
      "hit": false,
      "t": 5500,
      "d": 500,
      "v": 100
    },
    {
      "midi": 64,
      "hit": false,
      "t": 5500,
      "d": 500,
      "v": 100
    },
    {
      "midi": 48,
      "hit": false,
      "t": 5500,
      "d": 500,
      "v": 100
    },
    {
      "midi": 55,
      "hit": false,
      "t": 5500,
      "d": 500,
      "v": 100
    },
    {
      "midi": 57,
      "hit": false,
      "t": 6000,
      "d": 1000,
      "v": 100
    },
    {
      "midi": 60,
      "hit": false,
      "t": 6000,
      "d": 1000,
      "v": 100
    },
    {
      "midi": 65,
      "hit": false,
      "t": 6000,
      "d": 1000,
      "v": 100
    },
    {
      "midi": 41,
      "hit": false,
      "t": 6000,
      "d": 1000,
      "v": 100
    },
    {
      "midi": 53,
      "hit": false,
      "t": 6000,
      "d": 1000,
      "v": 100
    },
    {
      "midi": 57,
      "hit": false,
      "t": 7000,
      "d": 250,
      "v": 100
    },
    {
      "midi": 60,
      "hit": false,
      "t": 7000,
      "d": 250,
      "v": 100
    },
    {
      "midi": 65,
      "hit": false,
      "t": 7000,
      "d": 250,
      "v": 100
    },
    {
      "midi": 41,
      "hit": false,
      "t": 7000,
      "d": 500,
      "v": 100
    },
    {
      "midi": 53,
      "hit": false,
      "t": 7000,
      "d": 500,
      "v": 100
    },
    {
      "midi": 65,
      "hit": false,
      "t": 7250,
      "d": 250,
      "v": 100
    },
    {
      "midi": 65,
      "hit": false,
      "t": 7500,
      "d": 750,
      "v": 100
    },
    {
      "midi": 70,
      "hit": false,
      "t": 7500,
      "d": 750,
      "v": 100
    },
    {
      "midi": 74,
      "hit": false,
      "t": 7500,
      "d": 750,
      "v": 100
    },
    {
      "midi": 46,
      "hit": false,
      "t": 7500,
      "d": 750,
      "v": 100
    },
    {
      "midi": 58,
      "hit": false,
      "t": 7500,
      "d": 750,
      "v": 100
    },
    {
      "midi": 65,
      "hit": false,
      "t": 8250,
      "d": 250,
      "v": 100
    },
    {
      "midi": 69,
      "hit": false,
      "t": 8250,
      "d": 250,
      "v": 100
    },
    {
      "midi": 72,
      "hit": false,
      "t": 8250,
      "d": 250,
      "v": 100
    },
    {
      "midi": 48,
      "hit": false,
      "t": 8250,
      "d": 250,
      "v": 100
    },
    {
      "midi": 60,
      "hit": false,
      "t": 8250,
      "d": 250,
      "v": 100
    },
    {
      "midi": 65,
      "hit": false,
      "t": 8500,
      "d": 500,
      "v": 100
    },
    {
      "midi": 70,
      "hit": false,
      "t": 8500,
      "d": 500,
      "v": 100
    },
    {
      "midi": 50,
      "hit": false,
      "t": 8500,
      "d": 500,
      "v": 100
    },
    {
      "midi": 62,
      "hit": false,
      "t": 8500,
      "d": 500,
      "v": 100
    },
    {
      "midi": 65,
      "hit": false,
      "t": 9000,
      "d": 750,
      "v": 100
    },
    {
      "midi": 69,
      "hit": false,
      "t": 9000,
      "d": 750,
      "v": 100
    },
    {
      "midi": 53,
      "hit": false,
      "t": 9000,
      "d": 750,
      "v": 100
    },
    {
      "midi": 60,
      "hit": false,
      "t": 9000,
      "d": 750,
      "v": 100
    },
    {
      "midi": 65,
      "hit": false,
      "t": 9750,
      "d": 250,
      "v": 100
    },
    {
      "midi": 67,
      "hit": false,
      "t": 9750,
      "d": 250,
      "v": 100
    },
    {
      "midi": 53,
      "hit": false,
      "t": 9750,
      "d": 250,
      "v": 100
    },
    {
      "midi": 58,
      "hit": false,
      "t": 9750,
      "d": 250,
      "v": 100
    },
    {
      "midi": 64,
      "hit": false,
      "t": 10000,
      "d": 500,
      "v": 100
    },
    {
      "midi": 65,
      "hit": false,
      "t": 10000,
      "d": 500,
      "v": 100
    },
    {
      "midi": 69,
      "hit": false,
      "t": 10000,
      "d": 500,
      "v": 100
    },
    {
      "midi": 53,
      "hit": false,
      "t": 10000,
      "d": 500,
      "v": 100
    },
    {
      "midi": 60,
      "hit": false,
      "t": 10000,
      "d": 500,
      "v": 100
    },
    {
      "midi": 62,
      "hit": false,
      "t": 10500,
      "d": 500,
      "v": 100
    },
    {
      "midi": 65,
      "hit": false,
      "t": 10500,
      "d": 500,
      "v": 100
    },
    {
      "midi": 70,
      "hit": false,
      "t": 10500,
      "d": 500,
      "v": 100
    },
    {
      "midi": 58,
      "hit": false,
      "t": 10500,
      "d": 500,
      "v": 100
    },
    {
      "midi": 70,
      "hit": false,
      "t": 11000,
      "d": 500,
      "v": 100
    },
    {
      "midi": 58,
      "hit": false,
      "t": 11000,
      "d": 500,
      "v": 100
    },
    {
      "midi": 65,
      "hit": false,
      "t": 11500,
      "d": 500,
      "v": 100
    },
    {
      "midi": 53,
      "hit": false,
      "t": 11500,
      "d": 500,
      "v": 100
    },
    {
      "midi": 62,
      "hit": false,
      "t": 12000,
      "d": 500,
      "v": 100
    },
    {
      "midi": 50,
      "hit": false,
      "t": 12000,
      "d": 500,
      "v": 100
    },
    {
      "midi": 58,
      "hit": false,
      "t": 12500,
      "d": 500,
      "v": 100
    },
    {
      "midi": 46,
      "hit": false,
      "t": 12500,
      "d": 500,
      "v": 100
    },
    {
      "midi": 58,
      "hit": false,
      "t": 13000,
      "d": 250,
      "v": 100
    },
    {
      "midi": 58,
      "hit": false,
      "t": 13250,
      "d": 250,
      "v": 100
    },
    {
      "midi": 62,
      "hit": false,
      "t": 13500,
      "d": 500,
      "v": 100
    },
    {
      "midi": 50,
      "hit": false,
      "t": 13500,
      "d": 500,
      "v": 100
    },
    {
      "midi": 58,
      "hit": false,
      "t": 14000,
      "d": 500,
      "v": 100
    },
    {
      "midi": 46,
      "hit": false,
      "t": 14000,
      "d": 500,
      "v": 100
    },
    {
      "midi": 65,
      "hit": false,
      "t": 14500,
      "d": 250,
      "v": 100
    },
    {
      "midi": 70,
      "hit": false,
      "t": 14500,
      "d": 250,
      "v": 100
    },
    {
      "midi": 74,
      "hit": false,
      "t": 14500,
      "d": 250,
      "v": 100
    },
    {
      "midi": 58,
      "hit": false,
      "t": 14500,
      "d": 500,
      "v": 100
    },
    {
      "midi": 74,
      "hit": false,
      "t": 14750,
      "d": 250,
      "v": 100
    },
    {
      "midi": 65,
      "hit": false,
      "t": 15000,
      "d": 500,
      "v": 100
    },
    {
      "midi": 70,
      "hit": false,
      "t": 15000,
      "d": 500,
      "v": 100
    },
    {
      "midi": 74,
      "hit": false,
      "t": 15000,
      "d": 500,
      "v": 100
    },
    {
      "midi": 58,
      "hit": false,
      "t": 15000,
      "d": 500,
      "v": 100
    },
    {
      "midi": 65,
      "hit": false,
      "t": 15500,
      "d": 500,
      "v": 100
    },
    {
      "midi": 69,
      "hit": false,
      "t": 15500,
      "d": 500,
      "v": 100
    },
    {
      "midi": 76,
      "hit": false,
      "t": 15500,
      "d": 500,
      "v": 100
    },
    {
      "midi": 60,
      "hit": false,
      "t": 15500,
      "d": 500,
      "v": 100
    },
    {
      "midi": 65,
      "hit": false,
      "t": 16000,
      "d": 500,
      "v": 100
    },
    {
      "midi": 70,
      "hit": false,
      "t": 16000,
      "d": 500,
      "v": 100
    },
    {
      "midi": 77,
      "hit": false,
      "t": 16000,
      "d": 500,
      "v": 100
    },
    {
      "midi": 62,
      "hit": false,
      "t": 16000,
      "d": 500,
      "v": 100
    },
    {
      "midi": 65,
      "hit": false,
      "t": 16500,
      "d": 1000,
      "v": 100
    },
    {
      "midi": 70,
      "hit": false,
      "t": 16500,
      "d": 1000,
      "v": 100
    },
    {
      "midi": 77,
      "hit": false,
      "t": 16500,
      "d": 1000,
      "v": 100
    },
    {
      "midi": 62,
      "hit": false,
      "t": 16500,
      "d": 1000,
      "v": 100
    },
    {
      "midi": 65,
      "hit": false,
      "t": 17500,
      "d": 250,
      "v": 100
    },
    {
      "midi": 69,
      "hit": false,
      "t": 17500,
      "d": 250,
      "v": 100
    },
    {
      "midi": 75,
      "hit": false,
      "t": 17500,
      "d": 250,
      "v": 100
    },
    {
      "midi": 60,
      "hit": false,
      "t": 17500,
      "d": 250,
      "v": 100
    },
    {
      "midi": 65,
      "hit": false,
      "t": 17750,
      "d": 250,
      "v": 100
    },
    {
      "midi": 70,
      "hit": false,
      "t": 17750,
      "d": 250,
      "v": 100
    },
    {
      "midi": 74,
      "hit": false,
      "t": 17750,
      "d": 250,
      "v": 100
    },
    {
      "midi": 58,
      "hit": false,
      "t": 17750,
      "d": 250,
      "v": 100
    },
    {
      "midi": 65,
      "hit": false,
      "t": 18000,
      "d": 500,
      "v": 100
    },
    {
      "midi": 72,
      "hit": false,
      "t": 18000,
      "d": 500,
      "v": 100
    },
    {
      "midi": 57,
      "hit": false,
      "t": 18000,
      "d": 500,
      "v": 100
    },
    {
      "midi": 65,
      "hit": false,
      "t": 18500,
      "d": 500,
      "v": 100
    },
    {
      "midi": 74,
      "hit": false,
      "t": 18500,
      "d": 500,
      "v": 100
    },
    {
      "midi": 58,
      "hit": false,
      "t": 18500,
      "d": 500,
      "v": 100
    },
    {
      "midi": 65,
      "hit": false,
      "t": 19000,
      "d": 500,
      "v": 100
    },
    {
      "midi": 69,
      "hit": false,
      "t": 19000,
      "d": 500,
      "v": 100
    },
    {
      "midi": 75,
      "hit": false,
      "t": 19000,
      "d": 500,
      "v": 100
    },
    {
      "midi": 60,
      "hit": false,
      "t": 19000,
      "d": 500,
      "v": 100
    },
    {
      "midi": 65,
      "hit": false,
      "t": 19500,
      "d": 1000,
      "v": 100
    },
    {
      "midi": 69,
      "hit": false,
      "t": 19500,
      "d": 1000,
      "v": 100
    },
    {
      "midi": 75,
      "hit": false,
      "t": 19500,
      "d": 1000,
      "v": 100
    },
    {
      "midi": 60,
      "hit": false,
      "t": 19500,
      "d": 1000,
      "v": 100
    },
    {
      "midi": 65,
      "hit": false,
      "t": 20500,
      "d": 250,
      "v": 100
    },
    {
      "midi": 69,
      "hit": false,
      "t": 20500,
      "d": 250,
      "v": 100
    },
    {
      "midi": 75,
      "hit": false,
      "t": 20500,
      "d": 250,
      "v": 100
    },
    {
      "midi": 60,
      "hit": false,
      "t": 20500,
      "d": 500,
      "v": 100
    },
    {
      "midi": 65,
      "hit": false,
      "t": 20750,
      "d": 250,
      "v": 100
    },
    {
      "midi": 69,
      "hit": false,
      "t": 20750,
      "d": 250,
      "v": 100
    },
    {
      "midi": 75,
      "hit": false,
      "t": 20750,
      "d": 250,
      "v": 100
    },
    {
      "midi": 65,
      "hit": false,
      "t": 21000,
      "d": 1000,
      "v": 100
    },
    {
      "midi": 74,
      "hit": false,
      "t": 21000,
      "d": 1000,
      "v": 100
    },
    {
      "midi": 58,
      "hit": false,
      "t": 21000,
      "d": 1000,
      "v": 100
    },
    {
      "midi": 65,
      "hit": false,
      "t": 22000,
      "d": 250,
      "v": 100
    },
    {
      "midi": 72,
      "hit": false,
      "t": 22000,
      "d": 250,
      "v": 100
    },
    {
      "midi": 58,
      "hit": false,
      "t": 22000,
      "d": 250,
      "v": 100
    },
    {
      "midi": 63,
      "hit": false,
      "t": 22000,
      "d": 250,
      "v": 100
    },
    {
      "midi": 65,
      "hit": false,
      "t": 22250,
      "d": 250,
      "v": 100
    },
    {
      "midi": 70,
      "hit": false,
      "t": 22250,
      "d": 250,
      "v": 100
    },
    {
      "midi": 58,
      "hit": false,
      "t": 22250,
      "d": 250,
      "v": 100
    },
    {
      "midi": 62,
      "hit": false,
      "t": 22250,
      "d": 250,
      "v": 100
    },
    {
      "midi": 65,
      "hit": false,
      "t": 22500,
      "d": 1000,
      "v": 100
    },
    {
      "midi": 69,
      "hit": false,
      "t": 22500,
      "d": 1000,
      "v": 100
    },
    {
      "midi": 53,
      "hit": false,
      "t": 22500,
      "d": 1000,
      "v": 100
    },
    {
      "midi": 60,
      "hit": false,
      "t": 22500,
      "d": 1000,
      "v": 100
    },
    {
      "midi": 65,
      "hit": false,
      "t": 23500,
      "d": 250,
      "v": 100
    },
    {
      "midi": 67,
      "hit": false,
      "t": 23500,
      "d": 250,
      "v": 100
    },
    {
      "midi": 53,
      "hit": false,
      "t": 23500,
      "d": 250,
      "v": 100
    },
    {
      "midi": 58,
      "hit": false,
      "t": 23500,
      "d": 250,
      "v": 100
    },
    {
      "midi": 65,
      "hit": false,
      "t": 23750,
      "d": 250,
      "v": 100
    },
    {
      "midi": 69,
      "hit": false,
      "t": 23750,
      "d": 250,
      "v": 100
    },
    {
      "midi": 51,
      "hit": false,
      "t": 23750,
      "d": 250,
      "v": 100
    },
    {
      "midi": 60,
      "hit": false,
      "t": 23750,
      "d": 250,
      "v": 100
    },
    {
      "midi": 65,
      "hit": false,
      "t": 24000,
      "d": 500,
      "v": 100
    },
    {
      "midi": 70,
      "hit": false,
      "t": 24000,
      "d": 500,
      "v": 100
    },
    {
      "midi": 50,
      "hit": false,
      "t": 24000,
      "d": 500,
      "v": 100
    },
    {
      "midi": 58,
      "hit": false,
      "t": 24000,
      "d": 500,
      "v": 100
    },
    {
      "midi": 62,
      "hit": false,
      "t": 24500,
      "d": 500,
      "v": 100
    },
    {
      "midi": 55,
      "hit": false,
      "t": 24500,
      "d": 500,
      "v": 100
    },
    {
      "midi": 58,
      "hit": false,
      "t": 24500,
      "d": 500,
      "v": 100
    },
    {
      "midi": 58,
      "hit": false,
      "t": 25000,
      "d": 500,
      "v": 100
    },
    {
      "midi": 60,
      "hit": false,
      "t": 25000,
      "d": 500,
      "v": 100
    },
    {
      "midi": 64,
      "hit": false,
      "t": 25000,
      "d": 500,
      "v": 100
    },
    {
      "midi": 36,
      "hit": false,
      "t": 25000,
      "d": 500,
      "v": 100
    },
    {
      "midi": 48,
      "hit": false,
      "t": 25000,
      "d": 500,
      "v": 100
    },
    {
      "midi": 57,
      "hit": false,
      "t": 25500,
      "d": 1000,
      "v": 100
    },
    {
      "midi": 60,
      "hit": false,
      "t": 25500,
      "d": 1000,
      "v": 100
    },
    {
      "midi": 65,
      "hit": false,
      "t": 25500,
      "d": 1000,
      "v": 100
    },
    {
      "midi": 41,
      "hit": false,
      "t": 25500,
      "d": 1000,
      "v": 100
    },
    {
      "midi": 48,
      "hit": false,
      "t": 25500,
      "d": 1000,
      "v": 100
    },
    {
      "midi": 60,
      "hit": false,
      "t": 26500,
      "d": 500,
      "v": 100
    },
    {
      "midi": 65,
      "hit": false,
      "t": 26500,
      "d": 500,
      "v": 100
    },
    {
      "midi": 53,
      "hit": false,
      "t": 26500,
      "d": 500,
      "v": 100
    },
    {
      "midi": 57,
      "hit": false,
      "t": 26500,
      "d": 500,
      "v": 100
    },
    {
      "midi": 65,
      "hit": false,
      "t": 27000,
      "d": 500,
      "v": 100
    },
    {
      "midi": 70,
      "hit": false,
      "t": 27000,
      "d": 500,
      "v": 100
    },
    {
      "midi": 50,
      "hit": false,
      "t": 27000,
      "d": 500,
      "v": 100
    },
    {
      "midi": 58,
      "hit": false,
      "t": 27000,
      "d": 500,
      "v": 100
    },
    {
      "midi": 62,
      "hit": false,
      "t": 27500,
      "d": 500,
      "v": 100
    },
    {
      "midi": 65,
      "hit": false,
      "t": 27500,
      "d": 500,
      "v": 100
    },
    {
      "midi": 70,
      "hit": false,
      "t": 27500,
      "d": 500,
      "v": 100
    },
    {
      "midi": 46,
      "hit": false,
      "t": 27500,
      "d": 500,
      "v": 100
    },
    {
      "midi": 58,
      "hit": false,
      "t": 27500,
      "d": 500,
      "v": 100
    },
    {
      "midi": 65,
      "hit": false,
      "t": 28000,
      "d": 250,
      "v": 100
    },
    {
      "midi": 70,
      "hit": false,
      "t": 28000,
      "d": 250,
      "v": 100
    },
    {
      "midi": 50,
      "hit": false,
      "t": 28000,
      "d": 500,
      "v": 100
    },
    {
      "midi": 58,
      "hit": false,
      "t": 28000,
      "d": 500,
      "v": 100
    },
    {
      "midi": 69,
      "hit": false,
      "t": 28250,
      "d": 250,
      "v": 100
    },
    {
      "midi": 63,
      "hit": false,
      "t": 28500,
      "d": 500,
      "v": 100
    },
    {
      "midi": 67,
      "hit": false,
      "t": 28500,
      "d": 500,
      "v": 100
    },
    {
      "midi": 51,
      "hit": false,
      "t": 28500,
      "d": 500,
      "v": 100
    },
    {
      "midi": 58,
      "hit": false,
      "t": 28500,
      "d": 500,
      "v": 100
    },
    {
      "midi": 63,
      "hit": false,
      "t": 29000,
      "d": 500,
      "v": 100
    },
    {
      "midi": 67,
      "hit": false,
      "t": 29000,
      "d": 500,
      "v": 100
    },
    {
      "midi": 51,
      "hit": false,
      "t": 29000,
      "d": 500,
      "v": 100
    },
    {
      "midi": 58,
      "hit": false,
      "t": 29000,
      "d": 500,
      "v": 100
    },
    {
      "midi": 65,
      "hit": false,
      "t": 29500,
      "d": 500,
      "v": 100
    },
    {
      "midi": 67,
      "hit": false,
      "t": 29500,
      "d": 500,
      "v": 100
    },
    {
      "midi": 50,
      "hit": false,
      "t": 29500,
      "d": 500,
      "v": 100
    },
    {
      "midi": 59,
      "hit": false,
      "t": 29500,
      "d": 500,
      "v": 100
    },
    {
      "midi": 63,
      "hit": false,
      "t": 30000,
      "d": 500,
      "v": 100
    },
    {
      "midi": 72,
      "hit": false,
      "t": 30000,
      "d": 500,
      "v": 100
    },
    {
      "midi": 48,
      "hit": false,
      "t": 30000,
      "d": 500,
      "v": 100
    },
    {
      "midi": 60,
      "hit": false,
      "t": 30000,
      "d": 500,
      "v": 100
    },
    {
      "midi": 67,
      "hit": false,
      "t": 30500,
      "d": 250,
      "v": 100
    },
    {
      "midi": 72,
      "hit": false,
      "t": 30500,
      "d": 250,
      "v": 100
    },
    {
      "midi": 75,
      "hit": false,
      "t": 30500,
      "d": 250,
      "v": 100
    },
    {
      "midi": 36,
      "hit": false,
      "t": 30500,
      "d": 250,
      "v": 100
    },
    {
      "midi": 48,
      "hit": false,
      "t": 30500,
      "d": 250,
      "v": 100
    },
    {
      "midi": 71,
      "hit": false,
      "t": 30750,
      "d": 250,
      "v": 100
    },
    {
      "midi": 74,
      "hit": false,
      "t": 30750,
      "d": 250,
      "v": 100
    },
    {
      "midi": 38,
      "hit": false,
      "t": 30750,
      "d": 250,
      "v": 100
    },
    {
      "midi": 50,
      "hit": false,
      "t": 30750,
      "d": 250,
      "v": 100
    },
    {
      "midi": 60,
      "hit": false,
      "t": 31000,
      "d": 250,
      "v": 100
    },
    {
      "midi": 67,
      "hit": false,
      "t": 31000,
      "d": 250,
      "v": 100
    },
    {
      "midi": 72,
      "hit": false,
      "t": 31000,
      "d": 250,
      "v": 100
    },
    {
      "midi": 39,
      "hit": false,
      "t": 31000,
      "d": 250,
      "v": 100
    },
    {
      "midi": 51,
      "hit": false,
      "t": 31000,
      "d": 250,
      "v": 100
    },
    {
      "midi": 61,
      "hit": false,
      "t": 31250,
      "d": 250,
      "v": 100
    },
    {
      "midi": 67,
      "hit": false,
      "t": 31250,
      "d": 250,
      "v": 100
    },
    {
      "midi": 70,
      "hit": false,
      "t": 31250,
      "d": 250,
      "v": 100
    },
    {
      "midi": 40,
      "hit": false,
      "t": 31250,
      "d": 250,
      "v": 100
    },
    {
      "midi": 52,
      "hit": false,
      "t": 31250,
      "d": 250,
      "v": 100
    },
    {
      "midi": 62,
      "hit": false,
      "t": 31500,
      "d": 500,
      "v": 100
    },
    {
      "midi": 65,
      "hit": false,
      "t": 31500,
      "d": 500,
      "v": 100
    },
    {
      "midi": 70,
      "hit": false,
      "t": 31500,
      "d": 500,
      "v": 100
    },
    {
      "midi": 41,
      "hit": false,
      "t": 31500,
      "d": 1000,
      "v": 100
    },
    {
      "midi": 53,
      "hit": false,
      "t": 31500,
      "d": 1000,
      "v": 100
    },
    {
      "midi": 60,
      "hit": false,
      "t": 32000,
      "d": 500,
      "v": 100
    },
    {
      "midi": 63,
      "hit": false,
      "t": 32000,
      "d": 500,
      "v": 100
    },
    {
      "midi": 69,
      "hit": false,
      "t": 32000,
      "d": 500,
      "v": 100
    },
    {
      "midi": 57,
      "hit": false,
      "t": 32500,
      "d": 250,
      "v": 100
    },
    {
      "midi": 60,
      "hit": false,
      "t": 32500,
      "d": 250,
      "v": 100
    },
    {
      "midi": 65,
      "hit": false,
      "t": 32500,
      "d": 250,
      "v": 100
    },
    {
      "midi": 41,
      "hit": false,
      "t": 32500,
      "d": 250,
      "v": 100
    },
    {
      "midi": 53,
      "hit": false,
      "t": 32500,
      "d": 250,
      "v": 100
    },
    {
      "midi": 57,
      "hit": false,
      "t": 32750,
      "d": 250,
      "v": 100
    },
    {
      "midi": 60,
      "hit": false,
      "t": 32750,
      "d": 250,
      "v": 100
    },
    {
      "midi": 65,
      "hit": false,
      "t": 32750,
      "d": 250,
      "v": 100
    },
    {
      "midi": 39,
      "hit": false,
      "t": 32750,
      "d": 250,
      "v": 100
    },
    {
      "midi": 51,
      "hit": false,
      "t": 32750,
      "d": 250,
      "v": 100
    },
    {
      "midi": 58,
      "hit": false,
      "t": 33000,
      "d": 750,
      "v": 100
    },
    {
      "midi": 65,
      "hit": false,
      "t": 33000,
      "d": 750,
      "v": 100
    },
    {
      "midi": 70,
      "hit": false,
      "t": 33000,
      "d": 750,
      "v": 100
    },
    {
      "midi": 38,
      "hit": false,
      "t": 33000,
      "d": 750,
      "v": 100
    },
    {
      "midi": 50,
      "hit": false,
      "t": 33000,
      "d": 750,
      "v": 100
    },
    {
      "midi": 65,
      "hit": false,
      "t": 33750,
      "d": 250,
      "v": 100
    },
    {
      "midi": 69,
      "hit": false,
      "t": 33750,
      "d": 250,
      "v": 100
    },
    {
      "midi": 72,
      "hit": false,
      "t": 33750,
      "d": 250,
      "v": 100
    },
    {
      "midi": 36,
      "hit": false,
      "t": 33750,
      "d": 250,
      "v": 100
    },
    {
      "midi": 48,
      "hit": false,
      "t": 33750,
      "d": 250,
      "v": 100
    },
    {
      "midi": 65,
      "hit": false,
      "t": 34000,
      "d": 250,
      "v": 100
    },
    {
      "midi": 70,
      "hit": false,
      "t": 34000,
      "d": 250,
      "v": 100
    },
    {
      "midi": 74,
      "hit": false,
      "t": 34000,
      "d": 250,
      "v": 100
    },
    {
      "midi": 34,
      "hit": false,
      "t": 34000,
      "d": 250,
      "v": 100
    },
    {
      "midi": 46,
      "hit": false,
      "t": 34000,
      "d": 250,
      "v": 100
    },
    {
      "midi": 65,
      "hit": false,
      "t": 34250,
      "d": 250,
      "v": 100
    },
    {
      "midi": 69,
      "hit": false,
      "t": 34250,
      "d": 250,
      "v": 100
    },
    {
      "midi": 75,
      "hit": false,
      "t": 34250,
      "d": 250,
      "v": 100
    },
    {
      "midi": 36,
      "hit": false,
      "t": 34250,
      "d": 250,
      "v": 100
    },
    {
      "midi": 48,
      "hit": false,
      "t": 34250,
      "d": 250,
      "v": 100
    },
    {
      "midi": 65,
      "hit": false,
      "t": 34500,
      "d": 500,
      "v": 100
    },
    {
      "midi": 70,
      "hit": false,
      "t": 34500,
      "d": 500,
      "v": 100
    },
    {
      "midi": 77,
      "hit": false,
      "t": 34500,
      "d": 500,
      "v": 100
    },
    {
      "midi": 38,
      "hit": false,
      "t": 34500,
      "d": 500,
      "v": 100
    },
    {
      "midi": 50,
      "hit": false,
      "t": 34500,
      "d": 500,
      "v": 100
    },
    {
      "midi": 65,
      "hit": false,
      "t": 35000,
      "d": 500,
      "v": 100
    },
    {
      "midi": 70,
      "hit": false,
      "t": 35000,
      "d": 500,
      "v": 100
    },
    {
      "midi": 74,
      "hit": false,
      "t": 35000,
      "d": 500,
      "v": 100
    },
    {
      "midi": 46,
      "hit": false,
      "t": 35000,
      "d": 500,
      "v": 100
    },
    {
      "midi": 58,
      "hit": false,
      "t": 35000,
      "d": 500,
      "v": 100
    },
    {
      "midi": 60,
      "hit": false,
      "t": 35500,
      "d": 500,
      "v": 100
    },
    {
      "midi": 67,
      "hit": false,
      "t": 35500,
      "d": 500,
      "v": 100
    },
    {
      "midi": 70,
      "hit": false,
      "t": 35500,
      "d": 500,
      "v": 100
    },
    {
      "midi": 40,
      "hit": false,
      "t": 35500,
      "d": 500,
      "v": 100
    },
    {
      "midi": 52,
      "hit": false,
      "t": 35500,
      "d": 500,
      "v": 100
    },
    {
      "midi": 65,
      "hit": false,
      "t": 36000,
      "d": 750,
      "v": 100
    },
    {
      "midi": 70,
      "hit": false,
      "t": 36000,
      "d": 750,
      "v": 100
    },
    {
      "midi": 74,
      "hit": false,
      "t": 36000,
      "d": 750,
      "v": 100
    },
    {
      "midi": 41,
      "hit": false,
      "t": 36000,
      "d": 1000,
      "v": 100
    },
    {
      "midi": 53,
      "hit": false,
      "t": 36000,
      "d": 1000,
      "v": 100
    },
    {
      "midi": 65,
      "hit": false,
      "t": 36750,
      "d": 250,
      "v": 100
    },
    {
      "midi": 69,
      "hit": false,
      "t": 36750,
      "d": 250,
      "v": 100
    },
    {
      "midi": 75,
      "hit": false,
      "t": 36750,
      "d": 250,
      "v": 100
    },
    {
      "midi": 63,
      "hit": false,
      "t": 37000,
      "d": 500,
      "v": 100
    },
    {
      "midi": 69,
      "hit": false,
      "t": 37000,
      "d": 500,
      "v": 100
    },
    {
      "midi": 72,
      "hit": false,
      "t": 37000,
      "d": 500,
      "v": 100
    },
    {
      "midi": 41,
      "hit": false,
      "t": 37000,
      "d": 500,
      "v": 100
    },
    {
      "midi": 53,
      "hit": false,
      "t": 37000,
      "d": 500,
      "v": 100
    },
    {
      "midi": 62,
      "hit": false,
      "t": 37500,
      "d": 1000,
      "v": 100
    },
    {
      "midi": 65,
      "hit": false,
      "t": 37500,
      "d": 1000,
      "v": 100
    },
    {
      "midi": 70,
      "hit": false,
      "t": 37500,
      "d": 1000,
      "v": 100
    },
    {
      "midi": 46,
      "hit": false,
      "t": 37500,
      "d": 1000,
      "v": 100
    },
    {
      "midi": 53,
      "hit": false,
      "t": 37500,
      "d": 1000,
      "v": 100
    }
  ]
}