{
  "jsonPath": "Electronic/Disco/Shirley  Company/shame-shame-shame-instrumental-version.json",
  "path": "Electronic\\Disco\\Shirley  Company\\Shame_ Shame_ Shame (Instrumental Version).mid",
  "name": "Shame_ Shame_ Shame (Instrumental Version)",
  "difficulty": "Advanced",
  "bpm": 101.00006901671382,
  "notes": [
    {
      "midi": 84,
      "hit": false,
      "t": 118209.07763958332,
      "d": 61.88114583333663,
      "v": 60
    },
    {
      "midi": 83,
      "hit": false,
      "t": 118258.58255625,
      "d": 47.02967083331896,
      "v": 79
    },
    {
      "midi": 81,
      "hit": false,
      "t": 118294.47362083332,
      "d": 44.55442499999481,
      "v": 88
    },
    {
      "midi": 79,
      "hit": false,
      "t": 118325.41419374998,
      "d": 44.55442499999481,
      "v": 86
    },
    {
      "midi": 77,
      "hit": false,
      "t": 118357.59238958331,
      "d": 38.36631041667715,
      "v": 75
    },
    {
      "midi": 76,
      "hit": false,
      "t": 118386.05771666665,
      "d": 40.841556250001304,
      "v": 83
    },
    {
      "midi": 74,
      "hit": false,
      "t": 118413.28542083332,
      "d": 43.31680208334001,
      "v": 94
    },
    {
      "midi": 72,
      "hit": false,
      "t": 118442.98837083332,
      "d": 43.316802083325456,
      "v": 83
    },
    {
      "midi": 71,
      "hit": false,
      "t": 118473.92894374998,
      "d": 40.84155624998675,
      "v": 94
    },
    {
      "midi": 69,
      "hit": false,
      "t": 118503.63189374997,
      "d": 44.55442499999481,
      "v": 94
    },
    {
      "midi": 67,
      "hit": false,
      "t": 118537.04771249997,
      "d": 44.55442499999481,
      "v": 88
    },
    {
      "midi": 65,
      "hit": false,
      "t": 118574.17639999997,
      "d": 39.603933333346504,
      "v": 71
    },
    {
      "midi": 64,
      "hit": false,
      "t": 118603.87934999997,
      "d": 47.029670833348064,
      "v": 83
    },
    {
      "midi": 62,
      "hit": false,
      "t": 118648.43377499998,
      "d": 27.227704166667536,
      "v": 91
    },
    {
      "midi": 60,
      "hit": false,
      "t": 118689.27533124998,
      "d": 21.039589583335328,
      "v": 88
    },
    {
      "midi": 59,
      "hit": false,
      "t": 118715.26541249998,
      "d": 22.27721250000468,
      "v": 66
    },
    {
      "midi": 57,
      "hit": false,
      "t": 118753.63172291666,
      "d": 12.376229166664416,
      "v": 60
    },
    {
      "midi": 64,
      "hit": false,
      "t": 118811.79999999999,
      "d": 2273.5132979166665,
      "v": 71
    },
    {
      "midi": 48,
      "hit": false,
      "t": 118811.79999999999,
      "d": 2280.939035416668,
      "v": 70
    },
    {
      "midi": 67,
      "hit": false,
      "t": 118811.79999999999,
      "d": 2287.1271500000003,
      "v": 73
    },
    {
      "midi": 62,
      "hit": false,
      "t": 118811.79999999999,
      "d": 2295.790510416671,
      "v": 75
    },
    {
      "midi": 72,
      "hit": false,
      "t": 118811.79999999999,
      "d": 2295.790510416671,
      "v": 73
    },
    {
      "midi": 55,
      "hit": false,
      "t": 118811.79999999999,
      "d": 2297.0281333333405,
      "v": 77
    }
  ]
}