{
  "jsonPath": "Unknown/Unknown/BabyfaceEric Clapton/change-the-world.json",
  "path": "Unknown\\Unknown\\BabyfaceEric Clapton\\Change The World.mid",
  "name": "Change The World",
  "difficulty": "Advanced",
  "bpm": 97.00105084471748,
  "notes": [
    {
      "midi": 73,
      "hit": false,
      "t": 64329.200000000004,
      "d": 1214.5486979166672,
      "v": 105
    },
    {
      "midi": 69,
      "hit": false,
      "t": 64332.421614583334,
      "d": 1179.1109375000015,
      "v": 105
    },
    {
      "midi": 64,
      "hit": false,
      "t": 64332.421614583334,
      "d": 1220.9919270833343,
      "v": 104
    },
    {
      "midi": 57,
      "hit": false,
      "t": 64793.1125,
      "d": 457.4692708333314,
      "v": 1
    },
    {
      "midi": 61,
      "hit": false,
      "t": 64793.1125,
      "d": 457.4692708333314,
      "v": 1
    },
    {
      "midi": 57,
      "hit": false,
      "t": 65253.803385416664,
      "d": 267.3940104166686,
      "v": 1
    },
    {
      "midi": 64,
      "hit": false,
      "t": 65260.24661458333,
      "d": 302.8317708333343,
      "v": 1
    },
    {
      "midi": 56,
      "hit": false,
      "t": 65566.3,
      "d": 615.3283854166657,
      "v": 1
    },
    {
      "midi": 75,
      "hit": false,
      "t": 65566.3,
      "d": 786.0739583333343,
      "v": 104
    },
    {
      "midi": 63,
      "hit": false,
      "t": 65569.52161458334,
      "d": 615.3283854166657,
      "v": 1
    },
    {
      "midi": 72,
      "hit": false,
      "t": 65569.52161458334,
      "d": 795.7388020833314,
      "v": 106
    },
    {
      "midi": 66,
      "hit": false,
      "t": 65569.52161458334,
      "d": 885.9440104166715,
      "v": 105
    },
    {
      "midi": 56,
      "hit": false,
      "t": 66184.85,
      "d": 3089.528385416663,
      "v": 1
    },
    {
      "midi": 64,
      "hit": false,
      "t": 66184.85,
      "d": 3089.528385416663,
      "v": 1
    },
    {
      "midi": 68,
      "hit": false,
      "t": 66487.68177083334,
      "d": 1327.305208333346,
      "v": 104
    },
    {
      "midi": 71,
      "hit": false,
      "t": 66490.90338541668,
      "d": 1298.3106770833401,
      "v": 104
    },
    {
      "midi": 76,
      "hit": false,
      "t": 66490.90338541668,
      "d": 1307.9755208333372,
      "v": 106
    },
    {
      "midi": 64,
      "hit": false,
      "t": 68034.05677083335,
      "d": 766.7442708333401,
      "v": 99
    },
    {
      "midi": 68,
      "hit": false,
      "t": 68034.05677083335,
      "d": 766.7442708333401,
      "v": 99
    },
    {
      "midi": 71,
      "hit": false,
      "t": 68662.27161458335,
      "d": 612.106770833343,
      "v": 96
    },
    {
      "midi": 76,
      "hit": false,
      "t": 68662.27161458335,
      "d": 612.106770833343,
      "v": 96
    },
    {
      "midi": 78,
      "hit": false,
      "t": 69271.15677083336,
      "d": 1137.2299479166832,
      "v": 107
    },
    {
      "midi": 61,
      "hit": false,
      "t": 69277.6,
      "d": 1233.8783854166686,
      "v": 1
    },
    {
      "midi": 73,
      "hit": false,
      "t": 69277.60000000003,
      "d": 1137.2299479166686,
      "v": 107
    },
    {
      "midi": 57,
      "hit": false,
      "t": 69280.82161458334,
      "d": 1230.6567708333314,
      "v": 1
    },
    {
      "midi": 69,
      "hit": false,
      "t": 69280.82161458337,
      "d": 1137.2299479166686,
      "v": 107
    },
    {
      "midi": 72,
      "hit": false,
      "t": 70508.25677083338,
      "d": 302.8317708333343,
      "v": 97
    },
    {
      "midi": 80,
      "hit": false,
      "t": 70508.25677083338,
      "d": 302.8317708333343,
      "v": 97
    },
    {
      "midi": 66,
      "hit": false,
      "t": 70511.47838541672,
      "d": 302.8317708333343,
      "v": 97
    },
    {
      "midi": 56,
      "hit": false,
      "t": 70514.70000000001,
      "d": 1233.8783854166686,
      "v": 1
    },
    {
      "midi": 60,
      "hit": false,
      "t": 70514.70000000001,
      "d": 1233.8783854166686,
      "v": 1
    },
    {
      "midi": 72,
      "hit": false,
      "t": 70823.97500000005,
      "d": 921.3817708333372,
      "v": 102
    },
    {
      "midi": 66,
      "hit": false,
      "t": 70827.19661458339,
      "d": 921.3817708333372,
      "v": 102
    },
    {
      "midi": 80,
      "hit": false,
      "t": 70827.19661458339,
      "d": 921.3817708333372,
      "v": 102
    },
    {
      "midi": 64,
      "hit": false,
      "t": 71748.57838541672,
      "d": 1568.926302083346,
      "v": 100
    },
    {
      "midi": 56,
      "hit": false,
      "t": 71751.80000000002,
      "d": 924.6033854166599,
      "v": 1
    },
    {
      "midi": 61,
      "hit": false,
      "t": 71751.80000000002,
      "d": 924.6033854166599,
      "v": 1
    },
    {
      "midi": 71,
      "hit": false,
      "t": 71751.80000000006,
      "d": 1568.926302083346,
      "v": 100
    },
    {
      "midi": 73,
      "hit": false,
      "t": 71751.80000000006,
      "d": 1568.926302083346,
      "v": 100
    },
    {
      "midi": 54,
      "hit": false,
      "t": 72679.62500000001,
      "d": 924.6033854166599,
      "v": 1
    },
    {
      "midi": 61,
      "hit": false,
      "t": 72679.62500000001,
      "d": 924.6033854166599,
      "v": 1
    },
    {
      "midi": 76,
      "hit": false,
      "t": 73301.3966145834,
      "d": 367.2640625000058,
      "v": 103
    },
    {
      "midi": 78,
      "hit": false,
      "t": 73601.00677083341,
      "d": 212.62656249999418,
      "v": 101
    },
    {
      "midi": 52,
      "hit": false,
      "t": 73607.45000000001,
      "d": 615.3283854166657,
      "v": 1
    },
    {
      "midi": 61,
      "hit": false,
      "t": 73607.45000000001,
      "d": 615.3283854166657,
      "v": 1
    },
    {
      "midi": 80,
      "hit": false,
      "t": 73913.50338541674,
      "d": 254.5075520833343,
      "v": 102
    },
    {
      "midi": 73,
      "hit": false,
      "t": 74219.55677083341,
      "d": 1169.446093749997,
      "v": 104
    },
    {
      "midi": 75,
      "hit": false,
      "t": 74219.55677083341,
      "d": 1169.446093749997,
      "v": 104
    },
    {
      "midi": 57,
      "hit": false,
      "t": 74226.00000000001,
      "d": 924.6033854166599,
      "v": 1
    },
    {
      "midi": 61,
      "hit": false,
      "t": 74226.00000000001,
      "d": 924.6033854166599,
      "v": 1
    },
    {
      "midi": 69,
      "hit": false,
      "t": 74226.00000000007,
      "d": 1169.446093749997,
      "v": 104
    },
    {
      "midi": 56,
      "hit": false,
      "t": 75153.82500000001,
      "d": 296.3885416666599,
      "v": 1
    },
    {
      "midi": 60,
      "hit": false,
      "t": 75153.82500000001,
      "d": 296.3885416666599,
      "v": 1
    },
    {
      "midi": 66,
      "hit": false,
      "t": 75456.6567708334,
      "d": 173.96718750000582,
      "v": 104
    },
    {
      "midi": 72,
      "hit": false,
      "t": 75456.6567708334,
      "d": 173.96718750000582,
      "v": 104
    },
    {
      "midi": 80,
      "hit": false,
      "t": 75459.87838541674,
      "d": 173.96718750000582,
      "v": 104
    },
    {
      "midi": 56,
      "hit": false,
      "t": 75463.1,
      "d": 1233.8783854166686,
      "v": 1
    },
    {
      "midi": 63,
      "hit": false,
      "t": 75463.1,
      "d": 1233.8783854166686,
      "v": 1
    },
    {
      "midi": 66,
      "hit": false,
      "t": 75775.59661458341,
      "d": 821.51171875,
      "v": 103
    },
    {
      "midi": 72,
      "hit": false,
      "t": 75775.59661458341,
      "d": 821.51171875,
      "v": 103
    },
    {
      "midi": 80,
      "hit": false,
      "t": 75775.59661458341,
      "d": 821.51171875,
      "v": 103
    },
    {
      "midi": 73,
      "hit": false,
      "t": 76693.75677083341,
      "d": 592.7770833333198,
      "v": 106
    },
    {
      "midi": 61,
      "hit": false,
      "t": 76700.20000000001,
      "d": 612.1067708333285,
      "v": 1
    },
    {
      "midi": 64,
      "hit": false,
      "t": 76700.20000000001,
      "d": 612.1067708333285,
      "v": 1
    },
    {
      "midi": 64,
      "hit": false,
      "t": 76700.20000000007,
      "d": 592.7770833333198,
      "v": 106
    },
    {
      "midi": 71,
      "hit": false,
      "t": 76700.20000000007,
      "d": 592.7770833333198,
      "v": 106
    },
    {
      "midi": 75,
      "hit": false,
      "t": 77312.30677083338,
      "d": 589.5554687499971,
      "v": 107
    },
    {
      "midi": 60,
      "hit": false,
      "t": 77318.75,
      "d": 612.1067708333285,
      "v": 1
    },
    {
      "midi": 63,
      "hit": false,
      "t": 77318.75,
      "d": 612.1067708333285,
      "v": 1
    },
    {
      "midi": 72,
      "hit": false,
      "t": 77318.75000000004,
      "d": 589.5554687499971,
      "v": 107
    },
    {
      "midi": 66,
      "hit": false,
      "t": 77321.97161458338,
      "d": 589.5554687499971,
      "v": 107
    },
    {
      "midi": 66,
      "hit": false,
      "t": 77930.85677083337,
      "d": 1153.3380208333401,
      "v": 106
    },
    {
      "midi": 69,
      "hit": false,
      "t": 77934.07838541671,
      "d": 1153.3380208333401,
      "v": 106
    },
    {
      "midi": 59,
      "hit": false,
      "t": 77937.29999999999,
      "d": 921.3817708333372,
      "v": 1
    },
    {
      "midi": 62,
      "hit": false,
      "t": 77937.29999999999,
      "d": 921.3817708333372,
      "v": 1
    },
    {
      "midi": 74,
      "hit": false,
      "t": 77937.30000000005,
      "d": 1153.3380208333401,
      "v": 106
    },
    {
      "midi": 61,
      "hit": false,
      "t": 78865.12499999999,
      "d": 740.9713541666715,
      "v": 1
    },
    {
      "midi": 57,
      "hit": false,
      "t": 78865.12499999999,
      "d": 757.079427083343,
      "v": 1
    },
    {
      "midi": 69,
      "hit": false,
      "t": 79167.95677083339,
      "d": 1169.4460937500116,
      "v": 104
    },
    {
      "midi": 64,
      "hit": false,
      "t": 79171.17838541673,
      "d": 1169.4460937500116,
      "v": 104
    },
    {
      "midi": 73,
      "hit": false,
      "t": 79174.40000000007,
      "d": 1169.4460937500116,
      "v": 104
    },
    {
      "midi": 59,
      "hit": false,
      "t": 79638.3125,
      "d": 405.9234374999942,
      "v": 1
    },
    {
      "midi": 71,
      "hit": false,
      "t": 79638.3125,
      "d": 405.9234374999942,
      "v": 1
    },
    {
      "midi": 64,
      "hit": false,
      "t": 80102.22499999999,
      "d": 1011.5869791666628,
      "v": 1
    },
    {
      "midi": 76,
      "hit": false,
      "t": 80102.22499999999,
      "d": 1011.5869791666628,
      "v": 1
    },
    {
      "midi": 76,
      "hit": false,
      "t": 80408.27838541675,
      "d": 1227.4351562499942,
      "v": 104
    },
    {
      "midi": 80,
      "hit": false,
      "t": 80408.27838541675,
      "d": 1227.4351562499942,
      "v": 104
    },
    {
      "midi": 71,
      "hit": false,
      "t": 80414.72161458341,
      "d": 1227.4351562499942,
      "v": 104
    },
    {
      "midi": 76,
      "hit": false,
      "t": 81645.37838541674,
      "d": 592.7770833333343,
      "v": 106
    },
    {
      "midi": 59,
      "hit": false,
      "t": 81648.59999999999,
      "d": 612.1067708333285,
      "v": 1
    },
    {
      "midi": 71,
      "hit": false,
      "t": 81648.59999999999,
      "d": 612.1067708333285,
      "v": 1
    },
    {
      "midi": 71,
      "hit": false,
      "t": 81648.60000000008,
      "d": 592.7770833333343,
      "v": 106
    },
    {
      "midi": 80,
      "hit": false,
      "t": 81648.60000000008,
      "d": 592.7770833333343,
      "v": 106
    },
    {
      "midi": 79,
      "hit": false,
      "t": 82263.92838541674,
      "d": 589.5554687499971,
      "v": 107
    },
    {
      "midi": 58,
      "hit": false,
      "t": 82267.14999999998,
      "d": 576.6690104166628,
      "v": 1
    },
    {
      "midi": 70,
      "hit": false,
      "t": 82267.14999999998,
      "d": 576.6690104166628,
      "v": 1
    },
    {
      "midi": 70,
      "hit": false,
      "t": 82267.15000000008,
      "d": 589.5554687499971,
      "v": 107
    },
    {
      "midi": 76,
      "hit": false,
      "t": 82267.15000000008,
      "d": 589.5554687499971,
      "v": 107
    },
    {
      "midi": 78,
      "hit": false,
      "t": 82882.47838541675,
      "d": 1153.3380208333256,
      "v": 106
    },
    {
      "midi": 76,
      "hit": false,
      "t": 82882.47838541675,
      "d": 3627.5380208333227,
      "v": 106
    },
    {
      "midi": 57,
      "hit": false,
      "t": 82885.69999999998,
      "d": 2934.8908854166657,
      "v": 1
    },
    {
      "midi": 69,
      "hit": false,
      "t": 82885.69999999998,
      "d": 2934.8908854166657,
      "v": 1
    },
    {
      "midi": 69,
      "hit": false,
      "t": 82888.9216145834,
      "d": 3627.5380208333227,
      "v": 106
    },
    {
      "midi": 68,
      "hit": false,
      "t": 86903.05338541673,
      "d": 914.9385416666628,
      "v": 108
    },
    {
      "midi": 64,
      "hit": false,
      "t": 86906.27500000001,
      "d": 302.8317708333343,
      "v": 95
    },
    {
      "midi": 69,
      "hit": false,
      "t": 87859.87291666673,
      "d": 902.0520833333285,
      "v": 110
    },
    {
      "midi": 71,
      "hit": false,
      "t": 88761.92500000006,
      "d": 2458.09192708334,
      "v": 122
    },
    {
      "midi": 71,
      "hit": false,
      "t": 91874.00468750007,
      "d": 921.3817708333372,
      "v": 127
    },
    {
      "midi": 69,
      "hit": false,
      "t": 92805.0513020834,
      "d": 937.4898437500087,
      "v": 105
    },
    {
      "midi": 68,
      "hit": false,
      "t": 93716.76822916674,
      "d": 1649.4666666666744,
      "v": 116
    },
    {
      "midi": 52,
      "hit": false,
      "t": 94651.03645833342,
      "d": 193.296875,
      "v": 107
    },
    {
      "midi": 40,
      "hit": false,
      "t": 94667.14453125009,
      "d": 170.7455729166686,
      "v": 87
    },
    {
      "midi": 40,
      "hit": false,
      "t": 94944.20338541675,
      "d": 109.5348958333343,
      "v": 87
    },
    {
      "midi": 52,
      "hit": false,
      "t": 94947.42500000009,
      "d": 132.0861979166657,
      "v": 90
    },
    {
      "midi": 40,
      "hit": false,
      "t": 95256.70000000008,
      "d": 128.86458333332848,
      "v": 87
    },
    {
      "midi": 52,
      "hit": false,
      "t": 95259.92161458342,
      "d": 154.6374999999971,
      "v": 102
    },
    {
      "midi": 52,
      "hit": false,
      "t": 95575.63984375009,
      "d": 109.53489583331975,
      "v": 96
    },
    {
      "midi": 40,
      "hit": false,
      "t": 95582.08307291675,
      "d": 106.31328124999709,
      "v": 87
    },
    {
      "midi": 40,
      "hit": false,
      "t": 95875.25000000009,
      "d": 61.2106770833343,
      "v": 87
    },
    {
      "midi": 52,
      "hit": false,
      "t": 95878.47161458342,
      "d": 64.43229166665697,
      "v": 102
    },
    {
      "midi": 52,
      "hit": false,
      "t": 96026.66588541675,
      "d": 61.21067708331975,
      "v": 87
    },
    {
      "midi": 40,
      "hit": false,
      "t": 96033.1091145834,
      "d": 61.21067708331975,
      "v": 99
    },
    {
      "midi": 52,
      "hit": false,
      "t": 96174.86015625006,
      "d": 621.7716145833401,
      "v": 107
    },
    {
      "midi": 40,
      "hit": false,
      "t": 96178.08177083339,
      "d": 608.8851562500058,
      "v": 87
    },
    {
      "midi": 57,
      "hit": false,
      "t": 115343.4669270834,
      "d": 376.9289062500029,
      "v": 107
    },
    {
      "midi": 69,
      "hit": false,
      "t": 115343.4669270834,
      "d": 376.9289062500029,
      "v": 107
    },
    {
      "midi": 62,
      "hit": false,
      "t": 115662.4067708334,
      "d": 322.1614583333285,
      "v": 122
    },
    {
      "midi": 74,
      "hit": false,
      "t": 115662.4067708334,
      "d": 322.1614583333285,
      "v": 122
    },
    {
      "midi": 78,
      "hit": false,
      "t": 115665.62838541674,
      "d": 354.37760416665697,
      "v": 116
    },
    {
      "midi": 57,
      "hit": false,
      "t": 115971.6817708334,
      "d": 347.93437500001164,
      "v": 82
    },
    {
      "midi": 69,
      "hit": false,
      "t": 115971.6817708334,
      "d": 347.93437500001164,
      "v": 82
    },
    {
      "midi": 72,
      "hit": false,
      "t": 116264.84869791674,
      "d": 103.09166666667443,
      "v": 98
    },
    {
      "midi": 61,
      "hit": false,
      "t": 116316.39453125007,
      "d": 286.7236979166628,
      "v": 105
    },
    {
      "midi": 73,
      "hit": false,
      "t": 116316.39453125007,
      "d": 286.7236979166628,
      "v": 105
    },
    {
      "midi": 57,
      "hit": false,
      "t": 116580.5669270834,
      "d": 309.2749999999942,
      "v": 110
    },
    {
      "midi": 69,
      "hit": false,
      "t": 116590.2317708334,
      "d": 309.2749999999942,
      "v": 110
    },
    {
      "midi": 62,
      "hit": false,
      "t": 117508.3919270834,
      "d": 309.2749999999942,
      "v": 110
    },
    {
      "midi": 74,
      "hit": false,
      "t": 117518.0567708334,
      "d": 309.2749999999942,
      "v": 110
    },
    {
      "midi": 64,
      "hit": false,
      "t": 118436.2169270834,
      "d": 309.2749999999942,
      "v": 110
    },
    {
      "midi": 76,
      "hit": false,
      "t": 118445.8817708334,
      "d": 309.2749999999942,
      "v": 110
    },
    {
      "midi": 64,
      "hit": false,
      "t": 121528.96692708338,
      "d": 309.2749999999942,
      "v": 110
    },
    {
      "midi": 76,
      "hit": false,
      "t": 121538.63177083338,
      "d": 309.2749999999942,
      "v": 110
    },
    {
      "midi": 62,
      "hit": false,
      "t": 122456.79192708338,
      "d": 309.2749999999942,
      "v": 110
    },
    {
      "midi": 74,
      "hit": false,
      "t": 122466.45677083338,
      "d": 309.2749999999942,
      "v": 110
    },
    {
      "midi": 61,
      "hit": false,
      "t": 123384.61692708338,
      "d": 309.2749999999942,
      "v": 110
    },
    {
      "midi": 73,
      "hit": false,
      "t": 123394.28177083338,
      "d": 309.2749999999942,
      "v": 110
    },
    {
      "midi": 56,
      "hit": false,
      "t": 126477.36692708336,
      "d": 309.2749999999942,
      "v": 110
    },
    {
      "midi": 68,
      "hit": false,
      "t": 126487.03177083336,
      "d": 309.2749999999942,
      "v": 110
    },
    {
      "midi": 61,
      "hit": false,
      "t": 127405.19192708336,
      "d": 309.2749999999942,
      "v": 110
    },
    {
      "midi": 73,
      "hit": false,
      "t": 127414.85677083336,
      "d": 309.2749999999942,
      "v": 110
    },
    {
      "midi": 62,
      "hit": false,
      "t": 128333.01692708336,
      "d": 309.2749999999942,
      "v": 110
    },
    {
      "midi": 74,
      "hit": false,
      "t": 128342.68177083335,
      "d": 309.2749999999942,
      "v": 110
    },
    {
      "midi": 62,
      "hit": false,
      "t": 131425.76692708334,
      "d": 309.2750000000233,
      "v": 110
    },
    {
      "midi": 74,
      "hit": false,
      "t": 131435.43177083335,
      "d": 309.2750000000233,
      "v": 110
    },
    {
      "midi": 61,
      "hit": false,
      "t": 132353.59192708338,
      "d": 309.2750000000233,
      "v": 110
    },
    {
      "midi": 73,
      "hit": false,
      "t": 132363.2567708334,
      "d": 309.2750000000233,
      "v": 110
    },
    {
      "midi": 60,
      "hit": false,
      "t": 133281.41692708342,
      "d": 309.2750000000233,
      "v": 110
    },
    {
      "midi": 72,
      "hit": false,
      "t": 133291.08177083344,
      "d": 309.2750000000233,
      "v": 110
    },
    {
      "midi": 60,
      "hit": false,
      "t": 133912.8533854168,
      "d": 1018.0302083333663,
      "v": 102
    },
    {
      "midi": 72,
      "hit": false,
      "t": 133922.5182291668,
      "d": 1001.9221354166802,
      "v": 105
    },
    {
      "midi": 61,
      "hit": false,
      "t": 136081,
      "d": 1233.8783854166686,
      "v": 1
    },
    {
      "midi": 64,
      "hit": false,
      "t": 136081,
      "d": 1233.8783854166686,
      "v": 1
    },
    {
      "midi": 73,
      "hit": false,
      "t": 136081.00000000015,
      "d": 1214.5486979166744,
      "v": 105
    },
    {
      "midi": 69,
      "hit": false,
      "t": 136084.22161458348,
      "d": 1179.1109374999942,
      "v": 105
    },
    {
      "midi": 64,
      "hit": false,
      "t": 136084.22161458348,
      "d": 1220.9919270833489,
      "v": 104
    },
    {
      "midi": 56,
      "hit": false,
      "t": 137318.1,
      "d": 924.6033854166744,
      "v": 1
    },
    {
      "midi": 63,
      "hit": false,
      "t": 137318.1,
      "d": 924.6033854166744,
      "v": 1
    },
    {
      "midi": 75,
      "hit": false,
      "t": 137318.10000000015,
      "d": 786.0739583333489,
      "v": 104
    },
    {
      "midi": 72,
      "hit": false,
      "t": 137321.3216145835,
      "d": 795.7388020833314,
      "v": 106
    },
    {
      "midi": 66,
      "hit": false,
      "t": 137321.3216145835,
      "d": 885.944010416657,
      "v": 105
    },
    {
      "midi": 68,
      "hit": false,
      "t": 138239.4817708335,
      "d": 1327.3052083333314,
      "v": 104
    },
    {
      "midi": 71,
      "hit": false,
      "t": 138242.70338541683,
      "d": 1298.3106770833256,
      "v": 104
    },
    {
      "midi": 76,
      "hit": false,
      "t": 138242.70338541683,
      "d": 1307.9755208333372,
      "v": 106
    },
    {
      "midi": 61,
      "hit": false,
      "t": 138245.92500000002,
      "d": 615.3283854166802,
      "v": 1
    },
    {
      "midi": 64,
      "hit": false,
      "t": 138245.92500000002,
      "d": 615.3283854166802,
      "v": 1
    },
    {
      "midi": 59,
      "hit": false,
      "t": 138864.47500000003,
      "d": 615.3283854166802,
      "v": 1
    },
    {
      "midi": 64,
      "hit": false,
      "t": 138864.47500000003,
      "d": 615.3283854166802,
      "v": 1
    },
    {
      "midi": 56,
      "hit": false,
      "t": 139483.02500000005,
      "d": 460.6908854166686,
      "v": 1
    },
    {
      "midi": 64,
      "hit": false,
      "t": 139483.02500000005,
      "d": 460.6908854166686,
      "v": 1
    },
    {
      "midi": 64,
      "hit": false,
      "t": 139785.8567708335,
      "d": 766.7442708333256,
      "v": 99
    },
    {
      "midi": 68,
      "hit": false,
      "t": 139785.8567708335,
      "d": 766.7442708333256,
      "v": 99
    },
    {
      "midi": 54,
      "hit": false,
      "t": 139946.93750000006,
      "d": 151.41588541667443,
      "v": 1
    },
    {
      "midi": 64,
      "hit": false,
      "t": 139946.93750000006,
      "d": 151.41588541667443,
      "v": 1
    },
    {
      "midi": 52,
      "hit": false,
      "t": 140101.57500000007,
      "d": 924.6033854166744,
      "v": 1
    },
    {
      "midi": 64,
      "hit": false,
      "t": 140101.57500000007,
      "d": 924.6033854166744,
      "v": 1
    },
    {
      "midi": 71,
      "hit": false,
      "t": 140414.0716145835,
      "d": 612.106770833343,
      "v": 96
    },
    {
      "midi": 76,
      "hit": false,
      "t": 140414.0716145835,
      "d": 612.106770833343,
      "v": 96
    },
    {
      "midi": 78,
      "hit": false,
      "t": 141022.9567708335,
      "d": 1137.2299479166686,
      "v": 107
    },
    {
      "midi": 57,
      "hit": false,
      "t": 141029.40000000008,
      "d": 1233.8783854166686,
      "v": 1
    },
    {
      "midi": 61,
      "hit": false,
      "t": 141029.40000000008,
      "d": 1233.8783854166686,
      "v": 1
    },
    {
      "midi": 73,
      "hit": false,
      "t": 141029.40000000017,
      "d": 1137.2299479166686,
      "v": 107
    },
    {
      "midi": 69,
      "hit": false,
      "t": 141032.6216145835,
      "d": 1137.2299479166686,
      "v": 107
    },
    {
      "midi": 72,
      "hit": false,
      "t": 142260.0567708335,
      "d": 302.83177083334886,
      "v": 97
    },
    {
      "midi": 80,
      "hit": false,
      "t": 142260.0567708335,
      "d": 302.83177083334886,
      "v": 97
    },
    {
      "midi": 66,
      "hit": false,
      "t": 142263.27838541684,
      "d": 302.83177083334886,
      "v": 97
    },
    {
      "midi": 56,
      "hit": false,
      "t": 142266.5000000001,
      "d": 1233.8783854166686,
      "v": 1
    },
    {
      "midi": 60,
      "hit": false,
      "t": 142266.5000000001,
      "d": 1233.8783854166686,
      "v": 1
    },
    {
      "midi": 72,
      "hit": false,
      "t": 142575.7750000002,
      "d": 921.3817708333372,
      "v": 102
    },
    {
      "midi": 66,
      "hit": false,
      "t": 142578.99661458354,
      "d": 921.3817708333372,
      "v": 102
    },
    {
      "midi": 80,
      "hit": false,
      "t": 142578.99661458354,
      "d": 921.3817708333372,
      "v": 102
    },
    {
      "midi": 64,
      "hit": false,
      "t": 143500.37838541687,
      "d": 1568.9263020833314,
      "v": 100
    },
    {
      "midi": 56,
      "hit": false,
      "t": 143503.6000000001,
      "d": 2470.9783854166744,
      "v": 1
    },
    {
      "midi": 61,
      "hit": false,
      "t": 143503.6000000001,
      "d": 2470.9783854166744,
      "v": 1
    },
    {
      "midi": 71,
      "hit": false,
      "t": 143503.6000000002,
      "d": 1568.9263020833314,
      "v": 100
    },
    {
      "midi": 73,
      "hit": false,
      "t": 143503.6000000002,
      "d": 1568.9263020833314,
      "v": 100
    },
    {
      "midi": 76,
      "hit": false,
      "t": 145053.19661458355,
      "d": 367.2640624999767,
      "v": 103
    },
    {
      "midi": 78,
      "hit": false,
      "t": 145352.80677083353,
      "d": 212.62656249999418,
      "v": 101
    },
    {
      "midi": 80,
      "hit": false,
      "t": 145665.30338541686,
      "d": 254.50755208331975,
      "v": 102
    },
    {
      "midi": 73,
      "hit": false,
      "t": 145971.35677083352,
      "d": 1169.4460937500116,
      "v": 104
    },
    {
      "midi": 75,
      "hit": false,
      "t": 145971.35677083352,
      "d": 1169.4460937500116,
      "v": 104
    },
    {
      "midi": 57,
      "hit": false,
      "t": 145977.8000000001,
      "d": 924.6033854166744,
      "v": 1
    },
    {
      "midi": 61,
      "hit": false,
      "t": 145977.8000000001,
      "d": 924.6033854166744,
      "v": 1
    },
    {
      "midi": 69,
      "hit": false,
      "t": 145977.8000000002,
      "d": 1169.4460937500116,
      "v": 104
    },
    {
      "midi": 56,
      "hit": false,
      "t": 146905.62500000012,
      "d": 306.05338541665697,
      "v": 1
    },
    {
      "midi": 60,
      "hit": false,
      "t": 146905.62500000012,
      "d": 306.05338541665697,
      "v": 1
    },
    {
      "midi": 66,
      "hit": false,
      "t": 147208.45677083352,
      "d": 173.96718750000582,
      "v": 104
    },
    {
      "midi": 72,
      "hit": false,
      "t": 147208.45677083352,
      "d": 173.96718750000582,
      "v": 104
    },
    {
      "midi": 80,
      "hit": false,
      "t": 147211.67838541686,
      "d": 173.96718750000582,
      "v": 104
    },
    {
      "midi": 56,
      "hit": false,
      "t": 147214.9000000001,
      "d": 1233.8783854166686,
      "v": 1
    },
    {
      "midi": 63,
      "hit": false,
      "t": 147214.9000000001,
      "d": 1233.8783854166686,
      "v": 1
    },
    {
      "midi": 66,
      "hit": false,
      "t": 147527.39661458353,
      "d": 821.51171875,
      "v": 103
    },
    {
      "midi": 72,
      "hit": false,
      "t": 147527.39661458353,
      "d": 821.51171875,
      "v": 103
    },
    {
      "midi": 80,
      "hit": false,
      "t": 147527.39661458353,
      "d": 821.51171875,
      "v": 103
    },
    {
      "midi": 73,
      "hit": false,
      "t": 148445.55677083353,
      "d": 592.7770833333489,
      "v": 106
    },
    {
      "midi": 61,
      "hit": false,
      "t": 148452.00000000012,
      "d": 615.3283854166802,
      "v": 1
    },
    {
      "midi": 64,
      "hit": false,
      "t": 148452.00000000012,
      "d": 615.3283854166802,
      "v": 1
    },
    {
      "midi": 64,
      "hit": false,
      "t": 148452.0000000002,
      "d": 592.7770833333489,
      "v": 106
    },
    {
      "midi": 71,
      "hit": false,
      "t": 148452.0000000002,
      "d": 592.7770833333489,
      "v": 106
    },
    {
      "midi": 75,
      "hit": false,
      "t": 149064.10677083355,
      "d": 589.5554687500116,
      "v": 107
    },
    {
      "midi": 60,
      "hit": false,
      "t": 149070.55000000013,
      "d": 615.3283854166802,
      "v": 1
    },
    {
      "midi": 63,
      "hit": false,
      "t": 149070.55000000013,
      "d": 615.3283854166802,
      "v": 1
    },
    {
      "midi": 72,
      "hit": false,
      "t": 149070.55000000022,
      "d": 589.5554687500116,
      "v": 107
    },
    {
      "midi": 66,
      "hit": false,
      "t": 149073.77161458356,
      "d": 589.5554687500116,
      "v": 107
    },
    {
      "midi": 66,
      "hit": false,
      "t": 149682.65677083356,
      "d": 1153.3380208333547,
      "v": 106
    },
    {
      "midi": 69,
      "hit": false,
      "t": 149685.8783854169,
      "d": 1153.3380208333547,
      "v": 106
    },
    {
      "midi": 59,
      "hit": false,
      "t": 149689.10000000015,
      "d": 615.3283854166802,
      "v": 1
    },
    {
      "midi": 62,
      "hit": false,
      "t": 149689.10000000015,
      "d": 615.3283854166802,
      "v": 1
    },
    {
      "midi": 74,
      "hit": false,
      "t": 149689.10000000024,
      "d": 1153.3380208333547,
      "v": 106
    },
    {
      "midi": 64,
      "hit": false,
      "t": 150307.65000000017,
      "d": 615.3283854166802,
      "v": 1
    },
    {
      "midi": 68,
      "hit": false,
      "t": 150307.65000000017,
      "d": 615.3283854166802,
      "v": 1
    },
    {
      "midi": 69,
      "hit": false,
      "t": 150919.7567708336,
      "d": 1169.4460937500116,
      "v": 104
    },
    {
      "midi": 64,
      "hit": false,
      "t": 150922.97838541694,
      "d": 1169.4460937500116,
      "v": 104
    },
    {
      "midi": 61,
      "hit": false,
      "t": 150926.2000000002,
      "d": 615.3283854166802,
      "v": 1
    },
    {
      "midi": 64,
      "hit": false,
      "t": 150926.2000000002,
      "d": 615.3283854166802,
      "v": 1
    },
    {
      "midi": 73,
      "hit": false,
      "t": 150926.20000000027,
      "d": 1169.4460937500116,
      "v": 104
    },
    {
      "midi": 59,
      "hit": false,
      "t": 151544.7500000002,
      "d": 615.3283854166802,
      "v": 1
    },
    {
      "midi": 64,
      "hit": false,
      "t": 151544.7500000002,
      "d": 615.3283854166802,
      "v": 1
    },
    {
      "midi": 76,
      "hit": false,
      "t": 152160.07838541694,
      "d": 1227.4351562499942,
      "v": 104
    },
    {
      "midi": 80,
      "hit": false,
      "t": 152160.07838541694,
      "d": 1227.4351562499942,
      "v": 104
    },
    {
      "midi": 56,
      "hit": false,
      "t": 152163.30000000022,
      "d": 151.41588541667443,
      "v": 1
    },
    {
      "midi": 64,
      "hit": false,
      "t": 152163.30000000022,
      "d": 151.41588541667443,
      "v": 1
    },
    {
      "midi": 71,
      "hit": false,
      "t": 152166.52161458362,
      "d": 1227.4351562499942,
      "v": 104
    },
    {
      "midi": 54,
      "hit": false,
      "t": 152317.93750000023,
      "d": 151.41588541667443,
      "v": 1
    },
    {
      "midi": 64,
      "hit": false,
      "t": 152317.93750000023,
      "d": 151.41588541667443,
      "v": 1
    },
    {
      "midi": 52,
      "hit": false,
      "t": 152472.57500000024,
      "d": 306.05338541665697,
      "v": 1
    },
    {
      "midi": 64,
      "hit": false,
      "t": 152472.57500000024,
      "d": 306.05338541665697,
      "v": 1
    },
    {
      "midi": 56,
      "hit": false,
      "t": 152781.85000000024,
      "d": 306.05338541665697,
      "v": 1
    },
    {
      "midi": 68,
      "hit": false,
      "t": 152781.85000000024,
      "d": 306.05338541665697,
      "v": 1
    },
    {
      "midi": 54,
      "hit": false,
      "t": 153091.12500000023,
      "d": 306.05338541665697,
      "v": 1
    },
    {
      "midi": 66,
      "hit": false,
      "t": 153091.12500000023,
      "d": 306.05338541665697,
      "v": 1
    },
    {
      "midi": 76,
      "hit": false,
      "t": 153397.17838541695,
      "d": 592.7770833333489,
      "v": 106
    },
    {
      "midi": 59,
      "hit": false,
      "t": 153400.40000000023,
      "d": 615.3283854166802,
      "v": 1
    },
    {
      "midi": 71,
      "hit": false,
      "t": 153400.40000000023,
      "d": 615.3283854166802,
      "v": 1
    },
    {
      "midi": 71,
      "hit": false,
      "t": 153400.40000000029,
      "d": 592.7770833333489,
      "v": 106
    },
    {
      "midi": 80,
      "hit": false,
      "t": 153400.40000000029,
      "d": 592.7770833333489,
      "v": 106
    },
    {
      "midi": 79,
      "hit": false,
      "t": 154015.72838541697,
      "d": 589.5554687500116,
      "v": 107
    },
    {
      "midi": 58,
      "hit": false,
      "t": 154018.95000000024,
      "d": 615.3283854166802,
      "v": 1
    },
    {
      "midi": 70,
      "hit": false,
      "t": 154018.95000000024,
      "d": 615.3283854166802,
      "v": 1
    },
    {
      "midi": 70,
      "hit": false,
      "t": 154018.9500000003,
      "d": 589.5554687500116,
      "v": 107
    },
    {
      "midi": 76,
      "hit": false,
      "t": 154018.9500000003,
      "d": 589.5554687500116,
      "v": 107
    },
    {
      "midi": 76,
      "hit": false,
      "t": 154634.27838541698,
      "d": 1153.3380208333547,
      "v": 106
    },
    {
      "midi": 78,
      "hit": false,
      "t": 154634.27838541698,
      "d": 1153.3380208333547,
      "v": 106
    },
    {
      "midi": 57,
      "hit": false,
      "t": 154637.50000000026,
      "d": 924.6033854166744,
      "v": 1
    },
    {
      "midi": 69,
      "hit": false,
      "t": 154637.50000000026,
      "d": 924.6033854166744,
      "v": 1
    },
    {
      "midi": 69,
      "hit": false,
      "t": 154640.72161458366,
      "d": 1153.3380208333547,
      "v": 106
    },
    {
      "midi": 56,
      "hit": false,
      "t": 155565.32500000027,
      "d": 2161.7033854166802,
      "v": 1
    },
    {
      "midi": 68,
      "hit": false,
      "t": 155565.32500000027,
      "d": 2161.7033854166802,
      "v": 1
    },
    {
      "midi": 71,
      "hit": false,
      "t": 155871.37838541702,
      "d": 1153.3380208333547,
      "v": 106
    },
    {
      "midi": 76,
      "hit": false,
      "t": 155871.37838541702,
      "d": 1153.3380208333547,
      "v": 106
    },
    {
      "midi": 68,
      "hit": false,
      "t": 155877.8216145837,
      "d": 1153.3380208333547,
      "v": 106
    },
    {
      "midi": 73,
      "hit": false,
      "t": 157108.47838541705,
      "d": 1153.3380208333547,
      "v": 106
    },
    {
      "midi": 76,
      "hit": false,
      "t": 157108.47838541705,
      "d": 1153.3380208333547,
      "v": 106
    },
    {
      "midi": 69,
      "hit": false,
      "t": 157114.92161458373,
      "d": 1153.3380208333547,
      "v": 106
    },
    {
      "midi": 64,
      "hit": false,
      "t": 157730.2500000003,
      "d": 306.05338541665697,
      "v": 1
    },
    {
      "midi": 76,
      "hit": false,
      "t": 157730.2500000003,
      "d": 306.05338541665697,
      "v": 1
    },
    {
      "midi": 61,
      "hit": false,
      "t": 158039.52500000029,
      "d": 306.05338541665697,
      "v": 1
    },
    {
      "midi": 73,
      "hit": false,
      "t": 158039.52500000029,
      "d": 306.05338541665697,
      "v": 1
    },
    {
      "midi": 71,
      "hit": false,
      "t": 158345.5783854171,
      "d": 1153.3380208333547,
      "v": 106
    },
    {
      "midi": 74,
      "hit": false,
      "t": 158345.5783854171,
      "d": 1153.3380208333547,
      "v": 106
    },
    {
      "midi": 61,
      "hit": false,
      "t": 158348.80000000028,
      "d": 460.6908854166686,
      "v": 1
    },
    {
      "midi": 73,
      "hit": false,
      "t": 158348.80000000028,
      "d": 460.6908854166686,
      "v": 1
    },
    {
      "midi": 67,
      "hit": false,
      "t": 158352.02161458376,
      "d": 1153.3380208333547,
      "v": 106
    },
    {
      "midi": 59,
      "hit": false,
      "t": 158812.71250000029,
      "d": 460.6908854166686,
      "v": 1
    },
    {
      "midi": 71,
      "hit": false,
      "t": 158812.71250000029,
      "d": 460.6908854166686,
      "v": 1
    },
    {
      "midi": 64,
      "hit": false,
      "t": 159276.6250000003,
      "d": 1543.1533854166628,
      "v": 1
    },
    {
      "midi": 68,
      "hit": false,
      "t": 159276.6250000003,
      "d": 1543.1533854166628,
      "v": 1
    },
    {
      "midi": 64,
      "hit": false,
      "t": 159589.1216145838,
      "d": 1153.3380208333256,
      "v": 106
    },
    {
      "midi": 68,
      "hit": false,
      "t": 159589.1216145838,
      "d": 1153.3380208333256,
      "v": 106
    },
    {
      "midi": 71,
      "hit": false,
      "t": 159895.17500000045,
      "d": 109.53489583331975,
      "v": 116
    },
    {
      "midi": 76,
      "hit": false,
      "t": 160049.81250000044,
      "d": 190.0752604166919,
      "v": 105
    },
    {
      "midi": 71,
      "hit": false,
      "t": 160204.45000000045,
      "d": 521.9015625000175,
      "v": 105
    },
    {
      "midi": 59,
      "hit": false,
      "t": 160823.0000000003,
      "d": 615.3283854166802,
      "v": 1
    },
    {
      "midi": 71,
      "hit": false,
      "t": 160823.0000000003,
      "d": 615.3283854166802,
      "v": 1
    },
    {
      "midi": 71,
      "hit": false,
      "t": 160823.00000000047,
      "d": 592.7770833333198,
      "v": 110
    },
    {
      "midi": 80,
      "hit": false,
      "t": 160823.00000000047,
      "d": 592.7770833333198,
      "v": 110
    },
    {
      "midi": 79,
      "hit": false,
      "t": 161438.32838541712,
      "d": 589.5554687500116,
      "v": 113
    },
    {
      "midi": 58,
      "hit": false,
      "t": 161441.5500000003,
      "d": 615.3283854166802,
      "v": 1
    },
    {
      "midi": 70,
      "hit": false,
      "t": 161441.5500000003,
      "d": 615.3283854166802,
      "v": 1
    },
    {
      "midi": 70,
      "hit": false,
      "t": 161441.55000000045,
      "d": 589.5554687500116,
      "v": 113
    },
    {
      "midi": 76,
      "hit": false,
      "t": 161441.55000000045,
      "d": 589.5554687500116,
      "v": 113
    },
    {
      "midi": 78,
      "hit": false,
      "t": 162056.87838541713,
      "d": 1153.3380208333547,
      "v": 110
    },
    {
      "midi": 76,
      "hit": false,
      "t": 162056.87838541713,
      "d": 3627.5380208333663,
      "v": 110
    },
    {
      "midi": 57,
      "hit": false,
      "t": 162060.10000000033,
      "d": 2780.2533854166686,
      "v": 1
    },
    {
      "midi": 69,
      "hit": false,
      "t": 162060.10000000033,
      "d": 2780.2533854166686,
      "v": 1
    },
    {
      "midi": 69,
      "hit": false,
      "t": 162063.3216145838,
      "d": 3627.5380208333663,
      "v": 110
    },
    {
      "midi": 64,
      "hit": false,
      "t": 165926.03750000006,
      "d": 302.83177083331975,
      "v": 95
    },
    {
      "midi": 61,
      "hit": false,
      "t": 185565.00000000032,
      "d": 1233.8783854166686,
      "v": 1
    },
    {
      "midi": 64,
      "hit": false,
      "t": 185565.00000000032,
      "d": 1233.8783854166686,
      "v": 1
    },
    {
      "midi": 73,
      "hit": false,
      "t": 185565.00000000052,
      "d": 1214.5486979166744,
      "v": 115
    },
    {
      "midi": 69,
      "hit": false,
      "t": 185568.22161458386,
      "d": 1179.1109374999942,
      "v": 115
    },
    {
      "midi": 64,
      "hit": false,
      "t": 185568.22161458386,
      "d": 1220.9919270833489,
      "v": 114
    },
    {
      "midi": 56,
      "hit": false,
      "t": 186802.10000000033,
      "d": 924.6033854166744,
      "v": 1
    },
    {
      "midi": 63,
      "hit": false,
      "t": 186802.10000000033,
      "d": 924.6033854166744,
      "v": 1
    },
    {
      "midi": 75,
      "hit": false,
      "t": 186802.10000000053,
      "d": 786.0739583333489,
      "v": 114
    },
    {
      "midi": 72,
      "hit": false,
      "t": 186805.32161458387,
      "d": 795.7388020833314,
      "v": 116
    },
    {
      "midi": 66,
      "hit": false,
      "t": 186805.32161458387,
      "d": 885.944010416657,
      "v": 115
    },
    {
      "midi": 68,
      "hit": false,
      "t": 187723.48177083387,
      "d": 1327.3052083333314,
      "v": 114
    },
    {
      "midi": 71,
      "hit": false,
      "t": 187726.7033854172,
      "d": 1298.3106770833256,
      "v": 114
    },
    {
      "midi": 76,
      "hit": false,
      "t": 187726.7033854172,
      "d": 1307.9755208333372,
      "v": 116
    },
    {
      "midi": 61,
      "hit": false,
      "t": 187729.92500000034,
      "d": 615.3283854166802,
      "v": 1
    },
    {
      "midi": 64,
      "hit": false,
      "t": 187729.92500000034,
      "d": 615.3283854166802,
      "v": 1
    },
    {
      "midi": 59,
      "hit": false,
      "t": 188348.47500000036,
      "d": 615.3283854166802,
      "v": 1
    },
    {
      "midi": 64,
      "hit": false,
      "t": 188348.47500000036,
      "d": 615.3283854166802,
      "v": 1
    },
    {
      "midi": 56,
      "hit": false,
      "t": 188967.02500000037,
      "d": 460.6908854166686,
      "v": 1
    },
    {
      "midi": 64,
      "hit": false,
      "t": 188967.02500000037,
      "d": 460.6908854166686,
      "v": 1
    },
    {
      "midi": 64,
      "hit": false,
      "t": 189269.85677083387,
      "d": 766.7442708333256,
      "v": 109
    },
    {
      "midi": 68,
      "hit": false,
      "t": 189269.85677083387,
      "d": 766.7442708333256,
      "v": 109
    },
    {
      "midi": 54,
      "hit": false,
      "t": 189430.93750000038,
      "d": 151.41588541667443,
      "v": 1
    },
    {
      "midi": 64,
      "hit": false,
      "t": 189430.93750000038,
      "d": 151.41588541667443,
      "v": 1
    },
    {
      "midi": 52,
      "hit": false,
      "t": 189585.5750000004,
      "d": 924.6033854166744,
      "v": 1
    },
    {
      "midi": 64,
      "hit": false,
      "t": 189585.5750000004,
      "d": 924.6033854166744,
      "v": 1
    },
    {
      "midi": 71,
      "hit": false,
      "t": 189898.07161458387,
      "d": 612.106770833343,
      "v": 106
    },
    {
      "midi": 76,
      "hit": false,
      "t": 189898.07161458387,
      "d": 612.106770833343,
      "v": 106
    },
    {
      "midi": 78,
      "hit": false,
      "t": 190506.95677083387,
      "d": 1137.2299479166686,
      "v": 117
    },
    {
      "midi": 57,
      "hit": false,
      "t": 190513.4000000004,
      "d": 1233.8783854166686,
      "v": 1
    },
    {
      "midi": 61,
      "hit": false,
      "t": 190513.4000000004,
      "d": 1233.8783854166686,
      "v": 1
    },
    {
      "midi": 73,
      "hit": false,
      "t": 190513.40000000055,
      "d": 1137.2299479166686,
      "v": 117
    },
    {
      "midi": 69,
      "hit": false,
      "t": 190516.62161458388,
      "d": 1137.2299479166686,
      "v": 117
    },
    {
      "midi": 72,
      "hit": false,
      "t": 191744.05677083388,
      "d": 302.83177083334886,
      "v": 107
    },
    {
      "midi": 80,
      "hit": false,
      "t": 191744.05677083388,
      "d": 302.83177083334886,
      "v": 107
    },
    {
      "midi": 66,
      "hit": false,
      "t": 191747.27838541722,
      "d": 302.83177083334886,
      "v": 107
    },
    {
      "midi": 56,
      "hit": false,
      "t": 191750.5000000004,
      "d": 1233.8783854166686,
      "v": 1
    },
    {
      "midi": 60,
      "hit": false,
      "t": 191750.5000000004,
      "d": 1233.8783854166686,
      "v": 1
    },
    {
      "midi": 72,
      "hit": false,
      "t": 192059.77500000058,
      "d": 921.3817708333372,
      "v": 112
    },
    {
      "midi": 66,
      "hit": false,
      "t": 192062.9966145839,
      "d": 921.3817708333372,
      "v": 112
    },
    {
      "midi": 80,
      "hit": false,
      "t": 192062.9966145839,
      "d": 921.3817708333372,
      "v": 112
    },
    {
      "midi": 64,
      "hit": false,
      "t": 192984.37838541725,
      "d": 1568.9263020833314,
      "v": 110
    },
    {
      "midi": 56,
      "hit": false,
      "t": 192987.6000000004,
      "d": 2470.9783854166744,
      "v": 1
    },
    {
      "midi": 61,
      "hit": false,
      "t": 192987.6000000004,
      "d": 2470.9783854166744,
      "v": 1
    },
    {
      "midi": 71,
      "hit": false,
      "t": 192987.6000000006,
      "d": 1568.9263020833314,
      "v": 110
    },
    {
      "midi": 73,
      "hit": false,
      "t": 192987.6000000006,
      "d": 1568.9263020833314,
      "v": 110
    },
    {
      "midi": 76,
      "hit": false,
      "t": 194537.19661458393,
      "d": 367.2640624999767,
      "v": 113
    },
    {
      "midi": 78,
      "hit": false,
      "t": 194836.8067708339,
      "d": 212.62656249999418,
      "v": 111
    },
    {
      "midi": 80,
      "hit": false,
      "t": 195149.30338541724,
      "d": 254.50755208331975,
      "v": 112
    },
    {
      "midi": 73,
      "hit": false,
      "t": 195455.3567708339,
      "d": 1169.4460937500116,
      "v": 114
    },
    {
      "midi": 75,
      "hit": false,
      "t": 195455.3567708339,
      "d": 1169.4460937500116,
      "v": 114
    },
    {
      "midi": 57,
      "hit": false,
      "t": 195461.80000000042,
      "d": 924.6033854166744,
      "v": 1
    },
    {
      "midi": 61,
      "hit": false,
      "t": 195461.80000000042,
      "d": 924.6033854166744,
      "v": 1
    },
    {
      "midi": 69,
      "hit": false,
      "t": 195461.80000000057,
      "d": 1169.4460937500116,
      "v": 114
    },
    {
      "midi": 56,
      "hit": false,
      "t": 196389.62500000044,
      "d": 306.05338541665697,
      "v": 1
    },
    {
      "midi": 60,
      "hit": false,
      "t": 196389.62500000044,
      "d": 306.05338541665697,
      "v": 1
    },
    {
      "midi": 66,
      "hit": false,
      "t": 196692.4567708339,
      "d": 173.96718750000582,
      "v": 114
    },
    {
      "midi": 72,
      "hit": false,
      "t": 196692.4567708339,
      "d": 173.96718750000582,
      "v": 114
    },
    {
      "midi": 80,
      "hit": false,
      "t": 196695.67838541724,
      "d": 173.96718750000582,
      "v": 114
    },
    {
      "midi": 56,
      "hit": false,
      "t": 196698.90000000043,
      "d": 1233.8783854166686,
      "v": 1
    },
    {
      "midi": 63,
      "hit": false,
      "t": 196698.90000000043,
      "d": 1233.8783854166686,
      "v": 1
    },
    {
      "midi": 66,
      "hit": false,
      "t": 197011.3966145839,
      "d": 821.51171875,
      "v": 113
    },
    {
      "midi": 72,
      "hit": false,
      "t": 197011.3966145839,
      "d": 821.51171875,
      "v": 113
    },
    {
      "midi": 80,
      "hit": false,
      "t": 197011.3966145839,
      "d": 821.51171875,
      "v": 113
    },
    {
      "midi": 73,
      "hit": false,
      "t": 197929.5567708339,
      "d": 592.7770833333489,
      "v": 116
    },
    {
      "midi": 61,
      "hit": false,
      "t": 197936.00000000044,
      "d": 615.3283854166802,
      "v": 1
    },
    {
      "midi": 64,
      "hit": false,
      "t": 197936.00000000044,
      "d": 615.3283854166802,
      "v": 1
    },
    {
      "midi": 64,
      "hit": false,
      "t": 197936.00000000058,
      "d": 592.7770833333489,
      "v": 116
    },
    {
      "midi": 71,
      "hit": false,
      "t": 197936.00000000058,
      "d": 592.7770833333489,
      "v": 116
    },
    {
      "midi": 75,
      "hit": false,
      "t": 198548.10677083393,
      "d": 589.5554687500116,
      "v": 117
    },
    {
      "midi": 60,
      "hit": false,
      "t": 198554.55000000045,
      "d": 615.3283854166802,
      "v": 1
    },
    {
      "midi": 63,
      "hit": false,
      "t": 198554.55000000045,
      "d": 615.3283854166802,
      "v": 1
    },
    {
      "midi": 72,
      "hit": false,
      "t": 198554.5500000006,
      "d": 589.5554687500116,
      "v": 117
    },
    {
      "midi": 66,
      "hit": false,
      "t": 198557.77161458394,
      "d": 589.5554687500116,
      "v": 117
    },
    {
      "midi": 66,
      "hit": false,
      "t": 199166.65677083394,
      "d": 1153.3380208333547,
      "v": 116
    },
    {
      "midi": 69,
      "hit": false,
      "t": 199169.87838541728,
      "d": 1153.3380208333547,
      "v": 116
    },
    {
      "midi": 59,
      "hit": false,
      "t": 199173.10000000047,
      "d": 615.3283854166802,
      "v": 1
    },
    {
      "midi": 62,
      "hit": false,
      "t": 199173.10000000047,
      "d": 615.3283854166802,
      "v": 1
    },
    {
      "midi": 74,
      "hit": false,
      "t": 199173.10000000062,
      "d": 1153.3380208333547,
      "v": 116
    },
    {
      "midi": 64,
      "hit": false,
      "t": 199791.6500000005,
      "d": 615.3283854166802,
      "v": 1
    },
    {
      "midi": 68,
      "hit": false,
      "t": 199791.6500000005,
      "d": 615.3283854166802,
      "v": 1
    },
    {
      "midi": 69,
      "hit": false,
      "t": 200403.75677083398,
      "d": 1169.4460937500116,
      "v": 114
    },
    {
      "midi": 64,
      "hit": false,
      "t": 200406.97838541731,
      "d": 1169.4460937500116,
      "v": 114
    },
    {
      "midi": 61,
      "hit": false,
      "t": 200410.2000000005,
      "d": 615.3283854166802,
      "v": 1
    },
    {
      "midi": 64,
      "hit": false,
      "t": 200410.2000000005,
      "d": 615.3283854166802,
      "v": 1
    },
    {
      "midi": 73,
      "hit": false,
      "t": 200410.20000000065,
      "d": 1169.4460937500116,
      "v": 114
    },
    {
      "midi": 59,
      "hit": false,
      "t": 201028.75000000052,
      "d": 615.3283854166802,
      "v": 1
    },
    {
      "midi": 64,
      "hit": false,
      "t": 201028.75000000052,
      "d": 615.3283854166802,
      "v": 1
    },
    {
      "midi": 76,
      "hit": false,
      "t": 201644.07838541732,
      "d": 1227.4351562499942,
      "v": 114
    },
    {
      "midi": 80,
      "hit": false,
      "t": 201644.07838541732,
      "d": 1227.4351562499942,
      "v": 114
    },
    {
      "midi": 56,
      "hit": false,
      "t": 201647.30000000054,
      "d": 151.41588541667443,
      "v": 1
    },
    {
      "midi": 64,
      "hit": false,
      "t": 201647.30000000054,
      "d": 151.41588541667443,
      "v": 1
    },
    {
      "midi": 71,
      "hit": false,
      "t": 201650.521614584,
      "d": 1227.4351562499942,
      "v": 114
    },
    {
      "midi": 54,
      "hit": false,
      "t": 201801.93750000055,
      "d": 151.41588541667443,
      "v": 1
    },
    {
      "midi": 64,
      "hit": false,
      "t": 201801.93750000055,
      "d": 151.41588541667443,
      "v": 1
    },
    {
      "midi": 52,
      "hit": false,
      "t": 201956.57500000056,
      "d": 306.05338541665697,
      "v": 1
    },
    {
      "midi": 64,
      "hit": false,
      "t": 201956.57500000056,
      "d": 306.05338541665697,
      "v": 1
    },
    {
      "midi": 56,
      "hit": false,
      "t": 202265.85000000056,
      "d": 306.05338541665697,
      "v": 1
    },
    {
      "midi": 68,
      "hit": false,
      "t": 202265.85000000056,
      "d": 306.05338541665697,
      "v": 1
    },
    {
      "midi": 54,
      "hit": false,
      "t": 202575.12500000055,
      "d": 306.05338541665697,
      "v": 1
    },
    {
      "midi": 66,
      "hit": false,
      "t": 202575.12500000055,
      "d": 306.05338541665697,
      "v": 1
    },
    {
      "midi": 76,
      "hit": false,
      "t": 202881.17838541733,
      "d": 592.7770833333489,
      "v": 116
    },
    {
      "midi": 59,
      "hit": false,
      "t": 202884.40000000055,
      "d": 615.3283854166802,
      "v": 1
    },
    {
      "midi": 64,
      "hit": false,
      "t": 202884.40000000055,
      "d": 615.3283854166802,
      "v": 1
    },
    {
      "midi": 71,
      "hit": false,
      "t": 202884.40000000066,
      "d": 592.7770833333489,
      "v": 116
    },
    {
      "midi": 80,
      "hit": false,
      "t": 202884.40000000066,
      "d": 592.7770833333489,
      "v": 116
    },
    {
      "midi": 79,
      "hit": false,
      "t": 203499.72838541734,
      "d": 589.5554687500116,
      "v": 117
    },
    {
      "midi": 64,
      "hit": false,
      "t": 203502.95000000056,
      "d": 615.3283854166802,
      "v": 1
    },
    {
      "midi": 70,
      "hit": false,
      "t": 203502.95000000068,
      "d": 589.5554687500116,
      "v": 117
    },
    {
      "midi": 76,
      "hit": false,
      "t": 203502.95000000068,
      "d": 589.5554687500116,
      "v": 117
    },
    {
      "midi": 58,
      "hit": false,
      "t": 203506.1716145839,
      "d": 615.3283854166802,
      "v": 1
    },
    {
      "midi": 76,
      "hit": false,
      "t": 204118.27838541736,
      "d": 1153.3380208333547,
      "v": 116
    },
    {
      "midi": 78,
      "hit": false,
      "t": 204118.27838541736,
      "d": 1153.3380208333547,
      "v": 116
    },
    {
      "midi": 64,
      "hit": false,
      "t": 204121.50000000058,
      "d": 306.05338541665697,
      "v": 1
    },
    {
      "midi": 57,
      "hit": false,
      "t": 204124.72161458392,
      "d": 302.83177083331975,
      "v": 1
    },
    {
      "midi": 69,
      "hit": false,
      "t": 204124.72161458404,
      "d": 1153.3380208333547,
      "v": 116
    },
    {
      "midi": 64,
      "hit": false,
      "t": 204430.77500000058,
      "d": 615.3283854166802,
      "v": 1
    },
    {
      "midi": 68,
      "hit": false,
      "t": 204430.77500000058,
      "d": 615.3283854166802,
      "v": 1
    },
    {
      "midi": 61,
      "hit": false,
      "t": 205049.3250000006,
      "d": 615.3283854166802,
      "v": 1
    },
    {
      "midi": 64,
      "hit": false,
      "t": 205049.3250000006,
      "d": 615.3283854166802,
      "v": 1
    },
    {
      "midi": 73,
      "hit": false,
      "t": 205358.60000000073,
      "d": 1169.4460937500116,
      "v": 114
    },
    {
      "midi": 59,
      "hit": false,
      "t": 205667.8750000006,
      "d": 924.6033854166744,
      "v": 1
    },
    {
      "midi": 64,
      "hit": false,
      "t": 205667.8750000006,
      "d": 924.6033854166744,
      "v": 1
    },
    {
      "midi": 76,
      "hit": false,
      "t": 206592.4783854174,
      "d": 1227.4351562499942,
      "v": 114
    },
    {
      "midi": 80,
      "hit": false,
      "t": 206592.4783854174,
      "d": 1227.4351562499942,
      "v": 114
    },
    {
      "midi": 56,
      "hit": false,
      "t": 206595.70000000062,
      "d": 151.41588541667443,
      "v": 1
    },
    {
      "midi": 64,
      "hit": false,
      "t": 206595.70000000062,
      "d": 151.41588541667443,
      "v": 1
    },
    {
      "midi": 71,
      "hit": false,
      "t": 206598.92161458408,
      "d": 1227.4351562499942,
      "v": 114
    },
    {
      "midi": 54,
      "hit": false,
      "t": 206750.33750000063,
      "d": 151.41588541667443,
      "v": 1
    },
    {
      "midi": 64,
      "hit": false,
      "t": 206750.33750000063,
      "d": 151.41588541667443,
      "v": 1
    },
    {
      "midi": 52,
      "hit": false,
      "t": 206904.97500000065,
      "d": 306.05338541665697,
      "v": 1
    },
    {
      "midi": 64,
      "hit": false,
      "t": 206904.97500000065,
      "d": 306.05338541665697,
      "v": 1
    },
    {
      "midi": 56,
      "hit": false,
      "t": 207214.25000000064,
      "d": 306.05338541665697,
      "v": 1
    },
    {
      "midi": 68,
      "hit": false,
      "t": 207214.25000000064,
      "d": 306.05338541665697,
      "v": 1
    },
    {
      "midi": 54,
      "hit": false,
      "t": 207523.52500000063,
      "d": 306.05338541665697,
      "v": 1
    },
    {
      "midi": 66,
      "hit": false,
      "t": 207523.52500000063,
      "d": 306.05338541665697,
      "v": 1
    },
    {
      "midi": 76,
      "hit": false,
      "t": 207829.5783854174,
      "d": 592.7770833333489,
      "v": 116
    },
    {
      "midi": 59,
      "hit": false,
      "t": 207832.80000000063,
      "d": 615.3283854166802,
      "v": 1
    },
    {
      "midi": 64,
      "hit": false,
      "t": 207832.80000000063,
      "d": 615.3283854166802,
      "v": 1
    },
    {
      "midi": 71,
      "hit": false,
      "t": 207832.80000000075,
      "d": 592.7770833333489,
      "v": 116
    },
    {
      "midi": 80,
      "hit": false,
      "t": 207832.80000000075,
      "d": 592.7770833333489,
      "v": 116
    },
    {
      "midi": 79,
      "hit": false,
      "t": 208448.12838541743,
      "d": 589.5554687500116,
      "v": 117
    },
    {
      "midi": 64,
      "hit": false,
      "t": 208451.35000000065,
      "d": 615.3283854166802,
      "v": 1
    },
    {
      "midi": 70,
      "hit": false,
      "t": 208451.35000000076,
      "d": 589.5554687500116,
      "v": 117
    },
    {
      "midi": 76,
      "hit": false,
      "t": 208451.35000000076,
      "d": 589.5554687500116,
      "v": 117
    },
    {
      "midi": 58,
      "hit": false,
      "t": 208454.57161458398,
      "d": 615.3283854166802,
      "v": 1
    },
    {
      "midi": 76,
      "hit": false,
      "t": 209066.67838541744,
      "d": 1153.3380208333547,
      "v": 116
    },
    {
      "midi": 78,
      "hit": false,
      "t": 209066.67838541744,
      "d": 1153.3380208333547,
      "v": 116
    },
    {
      "midi": 64,
      "hit": false,
      "t": 209069.90000000066,
      "d": 306.05338541665697,
      "v": 1
    },
    {
      "midi": 57,
      "hit": false,
      "t": 209073.121614584,
      "d": 302.83177083331975,
      "v": 1
    },
    {
      "midi": 69,
      "hit": false,
      "t": 209073.12161458412,
      "d": 1153.3380208333547,
      "v": 116
    },
    {
      "midi": 64,
      "hit": false,
      "t": 209379.17500000066,
      "d": 615.3283854166802,
      "v": 1
    },
    {
      "midi": 68,
      "hit": false,
      "t": 209379.17500000066,
      "d": 615.3283854166802,
      "v": 1
    },
    {
      "midi": 61,
      "hit": false,
      "t": 209997.72500000068,
      "d": 615.3283854166802,
      "v": 1
    },
    {
      "midi": 64,
      "hit": false,
      "t": 209997.72500000068,
      "d": 615.3283854166802,
      "v": 1
    },
    {
      "midi": 73,
      "hit": false,
      "t": 210307.00000000081,
      "d": 1169.4460937500116,
      "v": 114
    },
    {
      "midi": 59,
      "hit": false,
      "t": 210616.2750000007,
      "d": 924.6033854166744,
      "v": 1
    },
    {
      "midi": 64,
      "hit": false,
      "t": 210616.2750000007,
      "d": 924.6033854166744,
      "v": 1
    },
    {
      "midi": 76,
      "hit": false,
      "t": 211540.87838541748,
      "d": 1227.4351562499942,
      "v": 114
    },
    {
      "midi": 80,
      "hit": false,
      "t": 211540.87838541748,
      "d": 1227.4351562499942,
      "v": 114
    },
    {
      "midi": 56,
      "hit": false,
      "t": 211544.1000000007,
      "d": 151.41588541667443,
      "v": 1
    },
    {
      "midi": 64,
      "hit": false,
      "t": 211544.1000000007,
      "d": 151.41588541667443,
      "v": 1
    },
    {
      "midi": 71,
      "hit": false,
      "t": 211547.32161458416,
      "d": 1227.4351562499942,
      "v": 114
    },
    {
      "midi": 54,
      "hit": false,
      "t": 211698.73750000072,
      "d": 151.41588541667443,
      "v": 1
    },
    {
      "midi": 64,
      "hit": false,
      "t": 211698.73750000072,
      "d": 151.41588541667443,
      "v": 1
    },
    {
      "midi": 52,
      "hit": false,
      "t": 211853.37500000073,
      "d": 306.05338541665697,
      "v": 1
    },
    {
      "midi": 64,
      "hit": false,
      "t": 211853.37500000073,
      "d": 306.05338541665697,
      "v": 1
    },
    {
      "midi": 56,
      "hit": false,
      "t": 212162.65000000072,
      "d": 306.05338541665697,
      "v": 1
    },
    {
      "midi": 68,
      "hit": false,
      "t": 212162.65000000072,
      "d": 306.05338541665697,
      "v": 1
    },
    {
      "midi": 54,
      "hit": false,
      "t": 212471.92500000072,
      "d": 306.05338541665697,
      "v": 1
    },
    {
      "midi": 66,
      "hit": false,
      "t": 212471.92500000072,
      "d": 306.05338541665697,
      "v": 1
    },
    {
      "midi": 76,
      "hit": false,
      "t": 212777.9783854175,
      "d": 592.7770833333489,
      "v": 116
    },
    {
      "midi": 59,
      "hit": false,
      "t": 212781.2000000007,
      "d": 618.5499999999884,
      "v": 1
    },
    {
      "midi": 71,
      "hit": false,
      "t": 212781.2000000007,
      "d": 618.5499999999884,
      "v": 1
    },
    {
      "midi": 71,
      "hit": false,
      "t": 212781.20000000083,
      "d": 592.7770833333489,
      "v": 120
    },
    {
      "midi": 80,
      "hit": false,
      "t": 212781.20000000083,
      "d": 592.7770833333489,
      "v": 120
    },
    {
      "midi": 79,
      "hit": false,
      "t": 213396.5283854175,
      "d": 589.5554687500116,
      "v": 123
    },
    {
      "midi": 70,
      "hit": false,
      "t": 213399.75000000084,
      "d": 589.5554687500116,
      "v": 123
    },
    {
      "midi": 76,
      "hit": false,
      "t": 213399.75000000084,
      "d": 589.5554687500116,
      "v": 123
    },
    {
      "midi": 58,
      "hit": false,
      "t": 213402.97161458404,
      "d": 615.3283854166802,
      "v": 1
    },
    {
      "midi": 70,
      "hit": false,
      "t": 213402.97161458404,
      "d": 615.3283854166802,
      "v": 1
    },
    {
      "midi": 81,
      "hit": false,
      "t": 214015.07838541752,
      "d": 1153.3380208333547,
      "v": 120
    },
    {
      "midi": 76,
      "hit": false,
      "t": 214015.07838541752,
      "d": 3627.5380208333663,
      "v": 120
    },
    {
      "midi": 57,
      "hit": false,
      "t": 214021.52161458405,
      "d": 3182.9552083333256,
      "v": 1
    },
    {
      "midi": 69,
      "hit": false,
      "t": 214021.52161458405,
      "d": 3182.9552083333256,
      "v": 1
    },
    {
      "midi": 71,
      "hit": false,
      "t": 214021.5216145842,
      "d": 3627.5380208333663,
      "v": 120
    },
    {
      "midi": 64,
      "hit": false,
      "t": 219275.97500000006,
      "d": 302.83177083331975,
      "v": 95
    }
  ]
}