{
  "jsonPath": "Children/Children'S Choir/EN VOICE/rising.json",
  "path": "Children\\Children'S Choir\\EN VOICE\\Rising.mid",
  "name": "Rising",
  "difficulty": "Advanced",
  "bpm": 75.99996960001216,
  "notes": [
    {
      "midi": 57,
      "hit": false,
      "t": 1578.948,
      "d": 32.89474999999993,
      "v": 118
    },
    {
      "midi": 61,
      "hit": false,
      "t": 1578.948,
      "d": 493.42124999999965,
      "v": 117
    },
    {
      "midi": 64,
      "hit": false,
      "t": 1578.948,
      "d": 789.4739999999995,
      "v": 123
    },
    {
      "midi": 81,
      "hit": false,
      "t": 1578.948,
      "d": 986.8424999999995,
      "v": 114
    },
    {
      "midi": 45,
      "hit": false,
      "t": 1578.948,
      "d": 1546.0532499999993,
      "v": 119
    },
    {
      "midi": 57,
      "hit": false,
      "t": 1973.685,
      "d": 822.3687499999996,
      "v": 120
    },
    {
      "midi": 61,
      "hit": false,
      "t": 2368.4219999999996,
      "d": 427.63175,
      "v": 121
    },
    {
      "midi": 81,
      "hit": false,
      "t": 2763.1589999999997,
      "d": 263.1579999999999,
      "v": 108
    },
    {
      "midi": 64,
      "hit": false,
      "t": 2763.1589999999997,
      "d": 328.94749999999976,
      "v": 122
    },
    {
      "midi": 80,
      "hit": false,
      "t": 3157.8959999999993,
      "d": 197.36850000000004,
      "v": 119
    },
    {
      "midi": 56,
      "hit": false,
      "t": 3157.8959999999993,
      "d": 328.9475000000002,
      "v": 110
    },
    {
      "midi": 61,
      "hit": false,
      "t": 3157.8959999999993,
      "d": 493.4212499999999,
      "v": 109
    },
    {
      "midi": 64,
      "hit": false,
      "t": 3157.8959999999993,
      "d": 888.1582499999995,
      "v": 111
    },
    {
      "midi": 37,
      "hit": false,
      "t": 3157.8959999999993,
      "d": 1513.1585,
      "v": 119
    },
    {
      "midi": 49,
      "hit": false,
      "t": 3157.8959999999993,
      "d": 1513.1585,
      "v": 115
    },
    {
      "midi": 76,
      "hit": false,
      "t": 3355.2644999999993,
      "d": 131.57900000000018,
      "v": 112
    },
    {
      "midi": 71,
      "hit": false,
      "t": 3552.6329999999994,
      "d": 855.2634999999996,
      "v": 108
    },
    {
      "midi": 56,
      "hit": false,
      "t": 3552.6329999999994,
      "d": 888.15825,
      "v": 115
    },
    {
      "midi": 61,
      "hit": false,
      "t": 3947.369999999999,
      "d": 723.6845000000003,
      "v": 120
    },
    {
      "midi": 80,
      "hit": false,
      "t": 4342.106999999999,
      "d": 361.8422500000006,
      "v": 121
    },
    {
      "midi": 78,
      "hit": false,
      "t": 4736.844,
      "d": 986.8424999999997,
      "v": 121
    },
    {
      "midi": 42,
      "hit": false,
      "t": 4736.844,
      "d": 1546.05325,
      "v": 115
    },
    {
      "midi": 54,
      "hit": false,
      "t": 4736.844,
      "d": 1546.05325,
      "v": 114
    },
    {
      "midi": 57,
      "hit": false,
      "t": 5131.581,
      "d": 1019.7372499999992,
      "v": 118
    },
    {
      "midi": 61,
      "hit": false,
      "t": 5526.318,
      "d": 723.6844999999994,
      "v": 114
    },
    {
      "midi": 66,
      "hit": false,
      "t": 5921.054999999999,
      "d": 296.05274999999983,
      "v": 112
    },
    {
      "midi": 78,
      "hit": false,
      "t": 5921.054999999999,
      "d": 296.05274999999983,
      "v": 120
    },
    {
      "midi": 76,
      "hit": false,
      "t": 6315.792,
      "d": 197.36849999999959,
      "v": 116
    },
    {
      "midi": 57,
      "hit": false,
      "t": 6315.792,
      "d": 263.15799999999945,
      "v": 116
    },
    {
      "midi": 61,
      "hit": false,
      "t": 6315.792,
      "d": 592.1054999999988,
      "v": 116
    },
    {
      "midi": 66,
      "hit": false,
      "t": 6315.792,
      "d": 822.3687499999987,
      "v": 122
    },
    {
      "midi": 40,
      "hit": false,
      "t": 6315.792,
      "d": 1513.1584999999986,
      "v": 111
    },
    {
      "midi": 52,
      "hit": false,
      "t": 6315.792,
      "d": 1513.1584999999986,
      "v": 117
    },
    {
      "midi": 73,
      "hit": false,
      "t": 6513.1605,
      "d": 131.57899999999972,
      "v": 112
    },
    {
      "midi": 69,
      "hit": false,
      "t": 6710.5289999999995,
      "d": 822.3687499999996,
      "v": 120
    },
    {
      "midi": 57,
      "hit": false,
      "t": 6710.5289999999995,
      "d": 1052.6319999999996,
      "v": 121
    },
    {
      "midi": 61,
      "hit": false,
      "t": 7105.265999999999,
      "d": 394.7370000000001,
      "v": 118
    },
    {
      "midi": 66,
      "hit": false,
      "t": 7500.002999999999,
      "d": 263.15800000000036,
      "v": 111
    },
    {
      "midi": 76,
      "hit": false,
      "t": 7500.002999999999,
      "d": 263.15800000000036,
      "v": 121
    },
    {
      "midi": 57,
      "hit": false,
      "t": 7894.739999999999,
      "d": 328.9474999999993,
      "v": 110
    },
    {
      "midi": 62,
      "hit": false,
      "t": 7894.739999999999,
      "d": 559.2107499999993,
      "v": 109
    },
    {
      "midi": 66,
      "hit": false,
      "t": 7894.739999999999,
      "d": 855.2635,
      "v": 113
    },
    {
      "midi": 74,
      "hit": false,
      "t": 7894.739999999999,
      "d": 1085.52675,
      "v": 113
    },
    {
      "midi": 38,
      "hit": false,
      "t": 7894.739999999999,
      "d": 1513.1584999999986,
      "v": 121
    },
    {
      "midi": 50,
      "hit": false,
      "t": 7894.739999999999,
      "d": 1513.1584999999986,
      "v": 110
    },
    {
      "midi": 57,
      "hit": false,
      "t": 8289.476999999999,
      "d": 1085.526749999999,
      "v": 111
    },
    {
      "midi": 62,
      "hit": false,
      "t": 8684.213999999998,
      "d": 427.63175000000047,
      "v": 109
    },
    {
      "midi": 69,
      "hit": false,
      "t": 9078.951,
      "d": 230.26324999999815,
      "v": 117
    },
    {
      "midi": 66,
      "hit": false,
      "t": 9078.951,
      "d": 296.0527499999989,
      "v": 114
    },
    {
      "midi": 71,
      "hit": false,
      "t": 9276.319499999998,
      "d": 197.3685000000005,
      "v": 118
    },
    {
      "midi": 73,
      "hit": false,
      "t": 9473.687999999998,
      "d": 592.1054999999997,
      "v": 110
    },
    {
      "midi": 64,
      "hit": false,
      "t": 9473.687999999998,
      "d": 690.7897499999999,
      "v": 108
    },
    {
      "midi": 61,
      "hit": false,
      "t": 9473.687999999998,
      "d": 789.4740000000002,
      "v": 123
    },
    {
      "midi": 57,
      "hit": false,
      "t": 9473.687999999998,
      "d": 953.9477499999994,
      "v": 114
    },
    {
      "midi": 37,
      "hit": false,
      "t": 9473.687999999998,
      "d": 1513.1584999999995,
      "v": 111
    },
    {
      "midi": 49,
      "hit": false,
      "t": 9473.687999999998,
      "d": 1513.1584999999995,
      "v": 121
    },
    {
      "midi": 74,
      "hit": false,
      "t": 10065.793499999998,
      "d": 526.3159999999989,
      "v": 110
    },
    {
      "midi": 64,
      "hit": false,
      "t": 10263.161999999998,
      "d": 427.63174999999865,
      "v": 111
    },
    {
      "midi": 61,
      "hit": false,
      "t": 10460.530499999997,
      "d": 427.63175000000047,
      "v": 116
    },
    {
      "midi": 57,
      "hit": false,
      "t": 10657.898999999998,
      "d": 263.15799999999945,
      "v": 119
    },
    {
      "midi": 76,
      "hit": false,
      "t": 10657.898999999998,
      "d": 394.737000000001,
      "v": 119
    },
    {
      "midi": 59,
      "hit": false,
      "t": 11052.635999999999,
      "d": 263.15799999999945,
      "v": 114
    },
    {
      "midi": 62,
      "hit": false,
      "t": 11052.635999999999,
      "d": 559.2107499999984,
      "v": 115
    },
    {
      "midi": 66,
      "hit": false,
      "t": 11052.635999999999,
      "d": 822.3687499999978,
      "v": 112
    },
    {
      "midi": 71,
      "hit": false,
      "t": 11052.635999999999,
      "d": 1315.7899999999972,
      "v": 113
    },
    {
      "midi": 47,
      "hit": false,
      "t": 11052.635999999999,
      "d": 1546.0532499999972,
      "v": 112
    },
    {
      "midi": 59,
      "hit": false,
      "t": 11447.372999999998,
      "d": 1085.5267499999973,
      "v": 110
    },
    {
      "midi": 62,
      "hit": false,
      "t": 11842.109999999997,
      "d": 493.4212499999994,
      "v": 113
    },
    {
      "midi": 66,
      "hit": false,
      "t": 12236.846999999996,
      "d": 263.15799999999945,
      "v": 115
    },
    {
      "midi": 68,
      "hit": false,
      "t": 12631.583999999995,
      "d": 657.8950000000004,
      "v": 110
    },
    {
      "midi": 64,
      "hit": false,
      "t": 12631.583999999995,
      "d": 789.4740000000002,
      "v": 123
    },
    {
      "midi": 59,
      "hit": false,
      "t": 12631.583999999995,
      "d": 1414.4742499999993,
      "v": 117
    },
    {
      "midi": 40,
      "hit": false,
      "t": 12631.583999999995,
      "d": 1513.1584999999995,
      "v": 109
    },
    {
      "midi": 52,
      "hit": false,
      "t": 12631.583999999995,
      "d": 1513.1584999999995,
      "v": 123
    },
    {
      "midi": 68,
      "hit": false,
      "t": 13421.057999999995,
      "d": 592.1054999999997,
      "v": 111
    },
    {
      "midi": 64,
      "hit": false,
      "t": 13815.794999999995,
      "d": 263.15799999999945,
      "v": 111
    },
    {
      "midi": 57,
      "hit": false,
      "t": 14210.531999999996,
      "d": 32.894749999999476,
      "v": 122
    },
    {
      "midi": 61,
      "hit": false,
      "t": 14210.531999999996,
      "d": 493.4212499999994,
      "v": 120
    },
    {
      "midi": 64,
      "hit": false,
      "t": 14210.531999999996,
      "d": 789.4740000000002,
      "v": 121
    },
    {
      "midi": 81,
      "hit": false,
      "t": 14210.531999999996,
      "d": 986.8425000000007,
      "v": 109
    },
    {
      "midi": 45,
      "hit": false,
      "t": 14210.531999999996,
      "d": 1513.1585000000014,
      "v": 113
    },
    {
      "midi": 57,
      "hit": false,
      "t": 14605.268999999995,
      "d": 822.3687500000015,
      "v": 113
    },
    {
      "midi": 61,
      "hit": false,
      "t": 15000.005999999996,
      "d": 427.63175000000047,
      "v": 111
    },
    {
      "midi": 81,
      "hit": false,
      "t": 15394.742999999997,
      "d": 230.26324999999997,
      "v": 119
    },
    {
      "midi": 64,
      "hit": false,
      "t": 15394.742999999997,
      "d": 328.9475000000002,
      "v": 117
    },
    {
      "midi": 80,
      "hit": false,
      "t": 15789.479999999998,
      "d": 197.3685000000005,
      "v": 120
    },
    {
      "midi": 56,
      "hit": false,
      "t": 15789.479999999998,
      "d": 361.8422499999997,
      "v": 116
    },
    {
      "midi": 61,
      "hit": false,
      "t": 15789.479999999998,
      "d": 526.3159999999989,
      "v": 112
    },
    {
      "midi": 64,
      "hit": false,
      "t": 15789.479999999998,
      "d": 888.1582499999986,
      "v": 108
    },
    {
      "midi": 37,
      "hit": false,
      "t": 15789.479999999998,
      "d": 1513.158499999996,
      "v": 120
    },
    {
      "midi": 49,
      "hit": false,
      "t": 15789.479999999998,
      "d": 1513.158499999996,
      "v": 116
    },
    {
      "midi": 76,
      "hit": false,
      "t": 15986.848499999998,
      "d": 131.57899999999972,
      "v": 116
    },
    {
      "midi": 71,
      "hit": false,
      "t": 16184.216999999997,
      "d": 855.2634999999973,
      "v": 121
    },
    {
      "midi": 56,
      "hit": false,
      "t": 16184.216999999997,
      "d": 888.1582499999968,
      "v": 113
    },
    {
      "midi": 61,
      "hit": false,
      "t": 16578.953999999998,
      "d": 723.6844999999958,
      "v": 114
    },
    {
      "midi": 80,
      "hit": false,
      "t": 16973.690999999995,
      "d": 328.9474999999984,
      "v": 113
    },
    {
      "midi": 78,
      "hit": false,
      "t": 17368.427999999993,
      "d": 986.8425000000025,
      "v": 112
    },
    {
      "midi": 54,
      "hit": false,
      "t": 17368.427999999993,
      "d": 1513.1585000000014,
      "v": 117
    },
    {
      "midi": 42,
      "hit": false,
      "t": 17368.427999999993,
      "d": 1546.0532500000008,
      "v": 112
    },
    {
      "midi": 57,
      "hit": false,
      "t": 17763.164999999994,
      "d": 1019.737250000002,
      "v": 117
    },
    {
      "midi": 61,
      "hit": false,
      "t": 18157.901999999995,
      "d": 723.6844999999994,
      "v": 115
    },
    {
      "midi": 78,
      "hit": false,
      "t": 18552.638999999996,
      "d": 263.15799999999945,
      "v": 117
    },
    {
      "midi": 66,
      "hit": false,
      "t": 18552.638999999996,
      "d": 296.0527499999989,
      "v": 115
    },
    {
      "midi": 76,
      "hit": false,
      "t": 18947.375999999993,
      "d": 164.47375000000102,
      "v": 121
    },
    {
      "midi": 57,
      "hit": false,
      "t": 18947.375999999993,
      "d": 263.15799999999945,
      "v": 111
    },
    {
      "midi": 61,
      "hit": false,
      "t": 18947.375999999993,
      "d": 592.1054999999978,
      "v": 116
    },
    {
      "midi": 66,
      "hit": false,
      "t": 18947.375999999993,
      "d": 789.4739999999983,
      "v": 115
    },
    {
      "midi": 40,
      "hit": false,
      "t": 18947.375999999993,
      "d": 1513.1584999999977,
      "v": 121
    },
    {
      "midi": 52,
      "hit": false,
      "t": 18947.375999999993,
      "d": 1513.1584999999977,
      "v": 117
    },
    {
      "midi": 73,
      "hit": false,
      "t": 19144.744499999993,
      "d": 131.5789999999979,
      "v": 121
    },
    {
      "midi": 69,
      "hit": false,
      "t": 19342.11299999999,
      "d": 822.3687500000015,
      "v": 120
    },
    {
      "midi": 57,
      "hit": false,
      "t": 19342.11299999999,
      "d": 1052.6320000000014,
      "v": 118
    },
    {
      "midi": 61,
      "hit": false,
      "t": 19736.84999999999,
      "d": 394.737000000001,
      "v": 110
    },
    {
      "midi": 76,
      "hit": false,
      "t": 20131.586999999992,
      "d": 230.26324999999997,
      "v": 115
    },
    {
      "midi": 66,
      "hit": false,
      "t": 20131.586999999992,
      "d": 263.15799999999945,
      "v": 110
    },
    {
      "midi": 57,
      "hit": false,
      "t": 20526.32399999999,
      "d": 263.15799999999945,
      "v": 122
    },
    {
      "midi": 62,
      "hit": false,
      "t": 20526.32399999999,
      "d": 559.210750000002,
      "v": 114
    },
    {
      "midi": 66,
      "hit": false,
      "t": 20526.32399999999,
      "d": 822.3687500000015,
      "v": 108
    },
    {
      "midi": 74,
      "hit": false,
      "t": 20526.32399999999,
      "d": 1875.0007499999992,
      "v": 109
    },
    {
      "midi": 38,
      "hit": false,
      "t": 20526.32399999999,
      "d": 2302.632499999996,
      "v": 122
    },
    {
      "midi": 50,
      "hit": false,
      "t": 20526.32399999999,
      "d": 2302.632499999996,
      "v": 111
    },
    {
      "midi": 57,
      "hit": false,
      "t": 20921.06099999999,
      "d": 1019.737250000002,
      "v": 117
    },
    {
      "midi": 62,
      "hit": false,
      "t": 21315.79799999999,
      "d": 657.8950000000004,
      "v": 108
    },
    {
      "midi": 66,
      "hit": false,
      "t": 21710.534999999993,
      "d": 296.0527499999989,
      "v": 108
    },
    {
      "midi": 57,
      "hit": false,
      "t": 22105.27199999999,
      "d": 460.5264999999963,
      "v": 122
    },
    {
      "midi": 62,
      "hit": false,
      "t": 22105.27199999999,
      "d": 559.2107499999947,
      "v": 122
    },
    {
      "midi": 66,
      "hit": false,
      "t": 22105.27199999999,
      "d": 592.1054999999942,
      "v": 108
    },
    {
      "midi": 69,
      "hit": false,
      "t": 22500.008999999987,
      "d": 197.36849999999686,
      "v": 123
    },
    {
      "midi": 69,
      "hit": false,
      "t": 22894.745999999985,
      "d": 230.26324999999997,
      "v": 112
    },
    {
      "midi": 59,
      "hit": false,
      "t": 22894.745999999985,
      "d": 592.1055000000015,
      "v": 115
    },
    {
      "midi": 64,
      "hit": false,
      "t": 22894.745999999985,
      "d": 625.000250000001,
      "v": 111
    },
    {
      "midi": 68,
      "hit": false,
      "t": 22894.745999999985,
      "d": 625.000250000001,
      "v": 115
    },
    {
      "midi": 40,
      "hit": false,
      "t": 22894.745999999985,
      "d": 723.6844999999994,
      "v": 123
    },
    {
      "midi": 52,
      "hit": false,
      "t": 22894.745999999985,
      "d": 723.6844999999994,
      "v": 114
    },
    {
      "midi": 71,
      "hit": false,
      "t": 23092.114499999985,
      "d": 164.47375000000102,
      "v": 114
    },
    {
      "midi": 73,
      "hit": false,
      "t": 23289.482999999986,
      "d": 394.73699999999735,
      "v": 113
    },
    {
      "midi": 69,
      "hit": false,
      "t": 23684.219999999983,
      "d": 1019.7372499999983,
      "v": 109
    },
    {
      "midi": 57,
      "hit": false,
      "t": 23684.219999999983,
      "d": 2368.4219999999987,
      "v": 123
    },
    {
      "midi": 45,
      "hit": false,
      "t": 26052.64199999998,
      "d": 32.894749999999476,
      "v": 116
    },
    {
      "midi": 57,
      "hit": false,
      "t": 26052.64199999998,
      "d": 657.8950000000004,
      "v": 114
    },
    {
      "midi": 62,
      "hit": false,
      "t": 26052.64199999998,
      "d": 657.8950000000004,
      "v": 112
    },
    {
      "midi": 64,
      "hit": false,
      "t": 26052.64199999998,
      "d": 756.5792499999989,
      "v": 111
    },
    {
      "midi": 45,
      "hit": false,
      "t": 26842.11599999998,
      "d": 32.894749999999476,
      "v": 114
    },
    {
      "midi": 57,
      "hit": false,
      "t": 26842.11599999998,
      "d": 625.000250000001,
      "v": 113
    },
    {
      "midi": 61,
      "hit": false,
      "t": 26842.11599999998,
      "d": 822.3687500000015,
      "v": 118
    },
    {
      "midi": 64,
      "hit": false,
      "t": 26842.11599999998,
      "d": 986.8425000000025,
      "v": 111
    },
    {
      "midi": 57,
      "hit": false,
      "t": 27631.589999999982,
      "d": 690.7897499999999,
      "v": 109
    },
    {
      "midi": 61,
      "hit": false,
      "t": 27828.958499999982,
      "d": 526.3159999999989,
      "v": 114
    },
    {
      "midi": 64,
      "hit": false,
      "t": 28026.326999999983,
      "d": 328.9474999999984,
      "v": 121
    },
    {
      "midi": 56,
      "hit": false,
      "t": 28421.06399999998,
      "d": 296.0527499999989,
      "v": 122
    },
    {
      "midi": 61,
      "hit": false,
      "t": 28421.06399999998,
      "d": 460.5264999999963,
      "v": 121
    },
    {
      "midi": 64,
      "hit": false,
      "t": 28421.06399999998,
      "d": 756.5792499999952,
      "v": 121
    },
    {
      "midi": 49,
      "hit": false,
      "t": 28421.06399999998,
      "d": 1052.6319999999942,
      "v": 108
    },
    {
      "midi": 37,
      "hit": false,
      "t": 28421.06399999998,
      "d": 1085.5267499999936,
      "v": 110
    },
    {
      "midi": 56,
      "hit": false,
      "t": 28815.800999999978,
      "d": 1184.2109999999957,
      "v": 123
    },
    {
      "midi": 61,
      "hit": false,
      "t": 29210.537999999975,
      "d": 789.4739999999983,
      "v": 111
    },
    {
      "midi": 64,
      "hit": false,
      "t": 29605.274999999972,
      "d": 361.8422500000015,
      "v": 120
    },
    {
      "midi": 61,
      "hit": false,
      "t": 30000.011999999973,
      "d": 32.894749999999476,
      "v": 119
    },
    {
      "midi": 57,
      "hit": false,
      "t": 30000.011999999973,
      "d": 230.26324999999997,
      "v": 123
    },
    {
      "midi": 66,
      "hit": false,
      "t": 30000.011999999973,
      "d": 789.474000000002,
      "v": 122
    },
    {
      "midi": 42,
      "hit": false,
      "t": 30000.011999999973,
      "d": 1447.3690000000024,
      "v": 117
    },
    {
      "midi": 57,
      "hit": false,
      "t": 30394.748999999974,
      "d": 1118.4215000000004,
      "v": 118
    },
    {
      "midi": 61,
      "hit": false,
      "t": 30789.485999999975,
      "d": 1414.4742499999993,
      "v": 123
    },
    {
      "midi": 66,
      "hit": false,
      "t": 31184.222999999976,
      "d": 296.0527499999989,
      "v": 118
    },
    {
      "midi": 57,
      "hit": false,
      "t": 31578.959999999974,
      "d": 197.3685000000005,
      "v": 112
    },
    {
      "midi": 66,
      "hit": false,
      "t": 31578.959999999974,
      "d": 789.474000000002,
      "v": 109
    },
    {
      "midi": 40,
      "hit": false,
      "t": 31578.959999999974,
      "d": 953.947750000003,
      "v": 112
    },
    {
      "midi": 57,
      "hit": false,
      "t": 31973.696999999975,
      "d": 1019.737250000002,
      "v": 112
    },
    {
      "midi": 61,
      "hit": false,
      "t": 32368.433999999976,
      "d": 394.737000000001,
      "v": 117
    },
    {
      "midi": 66,
      "hit": false,
      "t": 32565.802499999976,
      "d": 460.52649999999994,
      "v": 112
    },
    {
      "midi": 57,
      "hit": false,
      "t": 33157.907999999974,
      "d": 263.1580000000031,
      "v": 117
    },
    {
      "midi": 62,
      "hit": false,
      "t": 33157.907999999974,
      "d": 592.1054999999978,
      "v": 117
    },
    {
      "midi": 66,
      "hit": false,
      "t": 33157.907999999974,
      "d": 855.2634999999937,
      "v": 116
    },
    {
      "midi": 50,
      "hit": false,
      "t": 33157.907999999974,
      "d": 1513.1584999999977,
      "v": 122
    },
    {
      "midi": 57,
      "hit": false,
      "t": 33552.644999999975,
      "d": 1019.7372499999983,
      "v": 119
    },
    {
      "midi": 62,
      "hit": false,
      "t": 33947.38199999997,
      "d": 657.8950000000041,
      "v": 123
    },
    {
      "midi": 66,
      "hit": false,
      "t": 34342.11899999997,
      "d": 263.1580000000031,
      "v": 121
    },
    {
      "midi": 64,
      "hit": false,
      "t": 34736.85599999997,
      "d": 592.1054999999978,
      "v": 108
    },
    {
      "midi": 68,
      "hit": false,
      "t": 34736.85599999997,
      "d": 822.3687499999942,
      "v": 123
    },
    {
      "midi": 59,
      "hit": false,
      "t": 34736.85599999997,
      "d": 1381.5794999999925,
      "v": 114
    },
    {
      "midi": 50,
      "hit": false,
      "t": 34736.85599999997,
      "d": 1546.05324999999,
      "v": 118
    },
    {
      "midi": 64,
      "hit": false,
      "t": 35526.329999999965,
      "d": 460.52649999999994,
      "v": 121
    },
    {
      "midi": 68,
      "hit": false,
      "t": 35723.69849999996,
      "d": 460.52649999999994,
      "v": 123
    },
    {
      "midi": 57,
      "hit": false,
      "t": 36315.80399999996,
      "d": 197.36849999999686,
      "v": 120
    },
    {
      "midi": 61,
      "hit": false,
      "t": 36315.80399999996,
      "d": 526.3159999999916,
      "v": 113
    },
    {
      "midi": 64,
      "hit": false,
      "t": 36315.80399999996,
      "d": 789.4739999999947,
      "v": 110
    },
    {
      "midi": 45,
      "hit": false,
      "t": 36315.80399999996,
      "d": 986.8424999999916,
      "v": 118
    },
    {
      "midi": 57,
      "hit": false,
      "t": 36710.540999999954,
      "d": 1019.7372499999983,
      "v": 121
    },
    {
      "midi": 61,
      "hit": false,
      "t": 37105.277999999955,
      "d": 723.6844999999958,
      "v": 113
    },
    {
      "midi": 64,
      "hit": false,
      "t": 37500.01499999995,
      "d": 263.1580000000031,
      "v": 117
    },
    {
      "midi": 61,
      "hit": false,
      "t": 37894.75199999995,
      "d": 690.7897500000036,
      "v": 117
    },
    {
      "midi": 65,
      "hit": false,
      "t": 37894.75199999995,
      "d": 789.474000000002,
      "v": 108
    },
    {
      "midi": 49,
      "hit": false,
      "t": 37894.75199999995,
      "d": 1151.3162500000035,
      "v": 122
    },
    {
      "midi": 37,
      "hit": false,
      "t": 37894.75199999995,
      "d": 1184.211000000003,
      "v": 113
    },
    {
      "midi": 56,
      "hit": false,
      "t": 38289.48899999995,
      "d": 953.9477499999994,
      "v": 110
    },
    {
      "midi": 61,
      "hit": false,
      "t": 38684.22599999995,
      "d": 822.3687499999942,
      "v": 111
    },
    {
      "midi": 65,
      "hit": false,
      "t": 39078.96299999995,
      "d": 361.84224999999424,
      "v": 115
    },
    {
      "midi": 42,
      "hit": false,
      "t": 39473.699999999946,
      "d": 1217.1057500000024,
      "v": 109
    },
    {
      "midi": 54,
      "hit": false,
      "t": 39868.43699999995,
      "d": 526.3159999999989,
      "v": 108
    },
    {
      "midi": 57,
      "hit": false,
      "t": 40263.17399999995,
      "d": 690.7897499999963,
      "v": 109
    },
    {
      "midi": 54,
      "hit": false,
      "t": 40657.91099999995,
      "d": 328.94749999999476,
      "v": 118
    },
    {
      "midi": 42,
      "hit": false,
      "t": 40855.279499999946,
      "d": 1743.421749999994,
      "v": 118
    },
    {
      "midi": 54,
      "hit": false,
      "t": 41052.64799999994,
      "d": 263.1580000000031,
      "v": 122
    },
    {
      "midi": 57,
      "hit": false,
      "t": 41052.64799999994,
      "d": 427.63175000000047,
      "v": 116
    },
    {
      "midi": 61,
      "hit": false,
      "t": 41052.64799999994,
      "d": 625.0002499999973,
      "v": 114
    },
    {
      "midi": 54,
      "hit": false,
      "t": 41447.384999999944,
      "d": 690.7897499999963,
      "v": 117
    },
    {
      "midi": 57,
      "hit": false,
      "t": 41644.75349999994,
      "d": 526.3159999999989,
      "v": 110
    },
    {
      "midi": 61,
      "hit": false,
      "t": 42039.49049999994,
      "d": 394.737000000001,
      "v": 121
    },
    {
      "midi": 59,
      "hit": false,
      "t": 42631.59599999994,
      "d": 296.05275000000256,
      "v": 118
    },
    {
      "midi": 63,
      "hit": false,
      "t": 42631.59599999994,
      "d": 657.8950000000041,
      "v": 116
    },
    {
      "midi": 66,
      "hit": false,
      "t": 42631.59599999994,
      "d": 822.3687500000015,
      "v": 109
    },
    {
      "midi": 47,
      "hit": false,
      "t": 42631.59599999994,
      "d": 1480.2637499999983,
      "v": 117
    },
    {
      "midi": 59,
      "hit": false,
      "t": 43026.33299999994,
      "d": 888.1582500000004,
      "v": 117
    },
    {
      "midi": 63,
      "hit": false,
      "t": 43421.06999999994,
      "d": 559.2107499999984,
      "v": 120
    },
    {
      "midi": 66,
      "hit": false,
      "t": 43815.80699999994,
      "d": 164.47374999999738,
      "v": 118
    },
    {
      "midi": 68,
      "hit": false,
      "t": 44210.543999999936,
      "d": 32.894749999999476,
      "v": 118
    },
    {
      "midi": 61,
      "hit": false,
      "t": 44210.543999999936,
      "d": 197.36849999999686,
      "v": 122
    },
    {
      "midi": 64,
      "hit": false,
      "t": 44210.543999999936,
      "d": 625.0002499999973,
      "v": 111
    },
    {
      "midi": 69,
      "hit": false,
      "t": 44210.543999999936,
      "d": 953.9477499999921,
      "v": 108
    },
    {
      "midi": 49,
      "hit": false,
      "t": 44210.543999999936,
      "d": 1447.3689999999988,
      "v": 122
    },
    {
      "midi": 61,
      "hit": false,
      "t": 44605.28099999993,
      "d": 1085.5267500000045,
      "v": 112
    },
    {
      "midi": 64,
      "hit": false,
      "t": 45000.01799999993,
      "d": 657.8950000000041,
      "v": 111
    },
    {
      "midi": 69,
      "hit": false,
      "t": 45394.75499999993,
      "d": 263.1580000000031,
      "v": 115
    },
    {
      "midi": 63,
      "hit": false,
      "t": 45789.49199999993,
      "d": 263.1580000000031,
      "v": 123
    },
    {
      "midi": 66,
      "hit": false,
      "t": 45789.49199999993,
      "d": 592.1054999999978,
      "v": 121
    },
    {
      "midi": 71,
      "hit": false,
      "t": 45789.49199999993,
      "d": 822.3687499999942,
      "v": 122
    },
    {
      "midi": 51,
      "hit": false,
      "t": 45789.49199999993,
      "d": 1513.1584999999977,
      "v": 112
    },
    {
      "midi": 63,
      "hit": false,
      "t": 46184.228999999934,
      "d": 1085.5267499999973,
      "v": 123
    },
    {
      "midi": 66,
      "hit": false,
      "t": 46578.96599999993,
      "d": 723.684500000003,
      "v": 118
    },
    {
      "midi": 71,
      "hit": false,
      "t": 46973.70299999993,
      "d": 296.05275000000256,
      "v": 109
    },
    {
      "midi": 63,
      "hit": false,
      "t": 47368.43999999993,
      "d": 296.05275000000256,
      "v": 113
    },
    {
      "midi": 66,
      "hit": false,
      "t": 47368.43999999993,
      "d": 625.0002500000046,
      "v": 112
    },
    {
      "midi": 71,
      "hit": false,
      "t": 47368.43999999993,
      "d": 789.474000000002,
      "v": 118
    },
    {
      "midi": 47,
      "hit": false,
      "t": 47368.43999999993,
      "d": 1019.7372499999983,
      "v": 111
    },
    {
      "midi": 63,
      "hit": false,
      "t": 47763.17699999993,
      "d": 986.8424999999988,
      "v": 119
    },
    {
      "midi": 66,
      "hit": false,
      "t": 48157.91399999993,
      "d": 657.8949999999968,
      "v": 120
    },
    {
      "midi": 71,
      "hit": false,
      "t": 48355.28249999993,
      "d": 361.8422500000015,
      "v": 111
    },
    {
      "midi": 59,
      "hit": false,
      "t": 48947.387999999926,
      "d": 263.1580000000031,
      "v": 116
    },
    {
      "midi": 64,
      "hit": false,
      "t": 48947.387999999926,
      "d": 657.8950000000041,
      "v": 111
    },
    {
      "midi": 68,
      "hit": false,
      "t": 48947.387999999926,
      "d": 690.7897500000036,
      "v": 117
    },
    {
      "midi": 40,
      "hit": false,
      "t": 48947.387999999926,
      "d": 1052.632000000005,
      "v": 120
    },
    {
      "midi": 52,
      "hit": false,
      "t": 48947.387999999926,
      "d": 3059.2117499999804,
      "v": 116
    },
    {
      "midi": 59,
      "hit": false,
      "t": 49342.12499999993,
      "d": 1019.7372499999983,
      "v": 109
    },
    {
      "midi": 64,
      "hit": false,
      "t": 49736.86199999993,
      "d": 690.7897499999963,
      "v": 111
    },
    {
      "midi": 68,
      "hit": false,
      "t": 50131.59899999993,
      "d": 263.1579999999958,
      "v": 119
    },
    {
      "midi": 40,
      "hit": false,
      "t": 50328.967499999926,
      "d": 1710.52699999998,
      "v": 108
    },
    {
      "midi": 59,
      "hit": false,
      "t": 50526.33599999992,
      "d": 263.1580000000031,
      "v": 120
    },
    {
      "midi": 64,
      "hit": false,
      "t": 50526.33599999992,
      "d": 493.4212499999994,
      "v": 123
    },
    {
      "midi": 68,
      "hit": false,
      "t": 50526.33599999992,
      "d": 690.7897499999963,
      "v": 116
    },
    {
      "midi": 59,
      "hit": false,
      "t": 50921.072999999924,
      "d": 493.42124999999214,
      "v": 112
    },
    {
      "midi": 64,
      "hit": false,
      "t": 51315.80999999992,
      "d": 296.0527499999953,
      "v": 120
    },
    {
      "midi": 68,
      "hit": false,
      "t": 51315.80999999992,
      "d": 460.52649999999267,
      "v": 115
    },
    {
      "midi": 59,
      "hit": false,
      "t": 51513.178499999914,
      "d": 394.7369999999937,
      "v": 119
    },
    {
      "midi": 64,
      "hit": false,
      "t": 51710.54699999991,
      "d": 230.26324999999633,
      "v": 120
    },
    {
      "midi": 59,
      "hit": false,
      "t": 52105.283999999905,
      "d": 230.2632500000036,
      "v": 113
    },
    {
      "midi": 62,
      "hit": false,
      "t": 52105.283999999905,
      "d": 625.0002500000046,
      "v": 123
    },
    {
      "midi": 66,
      "hit": false,
      "t": 52105.283999999905,
      "d": 657.8950000000041,
      "v": 120
    },
    {
      "midi": 47,
      "hit": false,
      "t": 52105.283999999905,
      "d": 986.8424999999988,
      "v": 110
    },
    {
      "midi": 59,
      "hit": false,
      "t": 52500.020999999906,
      "d": 328.94750000000204,
      "v": 116
    },
    {
      "midi": 59,
      "hit": false,
      "t": 52894.75799999991,
      "d": 460.52649999999267,
      "v": 112
    },
    {
      "midi": 62,
      "hit": false,
      "t": 52894.75799999991,
      "d": 657.8949999999895,
      "v": 121
    },
    {
      "midi": 66,
      "hit": false,
      "t": 52894.75799999991,
      "d": 690.789749999989,
      "v": 116
    },
    {
      "midi": 47,
      "hit": false,
      "t": 53289.4949999999,
      "d": 1118.4214999999895,
      "v": 118
    },
    {
      "midi": 59,
      "hit": false,
      "t": 53684.231999999894,
      "d": 427.63175000000047,
      "v": 115
    },
    {
      "midi": 62,
      "hit": false,
      "t": 53684.231999999894,
      "d": 625.0002499999973,
      "v": 109
    },
    {
      "midi": 66,
      "hit": false,
      "t": 53684.231999999894,
      "d": 690.7897499999963,
      "v": 121
    },
    {
      "midi": 57,
      "hit": false,
      "t": 54473.70599999989,
      "d": 592.1054999999978,
      "v": 116
    },
    {
      "midi": 62,
      "hit": false,
      "t": 54473.70599999989,
      "d": 625.0002499999973,
      "v": 110
    },
    {
      "midi": 66,
      "hit": false,
      "t": 54473.70599999989,
      "d": 625.0002499999973,
      "v": 120
    },
    {
      "midi": 50,
      "hit": false,
      "t": 54473.70599999989,
      "d": 690.7897499999963,
      "v": 120
    },
    {
      "midi": 59,
      "hit": false,
      "t": 55263.179999999884,
      "d": 263.1580000000031,
      "v": 116
    },
    {
      "midi": 64,
      "hit": false,
      "t": 55263.179999999884,
      "d": 657.8950000000041,
      "v": 111
    },
    {
      "midi": 68,
      "hit": false,
      "t": 55263.179999999884,
      "d": 690.7897500000036,
      "v": 120
    },
    {
      "midi": 40,
      "hit": false,
      "t": 55263.179999999884,
      "d": 1052.632000000005,
      "v": 122
    },
    {
      "midi": 52,
      "hit": false,
      "t": 55263.179999999884,
      "d": 3059.2117499999804,
      "v": 123
    },
    {
      "midi": 59,
      "hit": false,
      "t": 55657.916999999885,
      "d": 1019.7372499999983,
      "v": 123
    },
    {
      "midi": 64,
      "hit": false,
      "t": 56052.653999999886,
      "d": 690.7897499999963,
      "v": 116
    },
    {
      "midi": 68,
      "hit": false,
      "t": 56447.39099999989,
      "d": 263.1579999999958,
      "v": 117
    },
    {
      "midi": 40,
      "hit": false,
      "t": 56644.759499999884,
      "d": 1710.52699999998,
      "v": 110
    },
    {
      "midi": 59,
      "hit": false,
      "t": 56842.12799999988,
      "d": 263.1580000000031,
      "v": 119
    },
    {
      "midi": 64,
      "hit": false,
      "t": 56842.12799999988,
      "d": 493.4212499999994,
      "v": 108
    },
    {
      "midi": 68,
      "hit": false,
      "t": 56842.12799999988,
      "d": 690.7897499999963,
      "v": 115
    },
    {
      "midi": 59,
      "hit": false,
      "t": 57236.86499999988,
      "d": 493.42124999999214,
      "v": 109
    },
    {
      "midi": 64,
      "hit": false,
      "t": 57631.601999999875,
      "d": 296.0527499999953,
      "v": 115
    },
    {
      "midi": 68,
      "hit": false,
      "t": 57631.601999999875,
      "d": 460.52649999999267,
      "v": 109
    },
    {
      "midi": 59,
      "hit": false,
      "t": 57828.97049999987,
      "d": 394.7369999999937,
      "v": 123
    },
    {
      "midi": 64,
      "hit": false,
      "t": 58026.33899999987,
      "d": 230.26324999999633,
      "v": 114
    },
    {
      "midi": 59,
      "hit": false,
      "t": 58421.07599999986,
      "d": 230.2632500000036,
      "v": 110
    },
    {
      "midi": 62,
      "hit": false,
      "t": 58421.07599999986,
      "d": 625.0002500000046,
      "v": 120
    },
    {
      "midi": 66,
      "hit": false,
      "t": 58421.07599999986,
      "d": 690.7897500000036,
      "v": 121
    },
    {
      "midi": 47,
      "hit": false,
      "t": 58421.07599999986,
      "d": 986.8424999999988,
      "v": 110
    },
    {
      "midi": 59,
      "hit": false,
      "t": 58815.812999999864,
      "d": 328.94750000000204,
      "v": 110
    },
    {
      "midi": 59,
      "hit": false,
      "t": 59210.549999999865,
      "d": 460.52649999999267,
      "v": 110
    },
    {
      "midi": 62,
      "hit": false,
      "t": 59210.549999999865,
      "d": 657.8949999999895,
      "v": 116
    },
    {
      "midi": 66,
      "hit": false,
      "t": 59210.549999999865,
      "d": 690.789749999989,
      "v": 117
    },
    {
      "midi": 47,
      "hit": false,
      "t": 59605.28699999986,
      "d": 1118.4214999999895,
      "v": 119
    },
    {
      "midi": 59,
      "hit": false,
      "t": 60000.02399999985,
      "d": 427.63175000000047,
      "v": 123
    },
    {
      "midi": 62,
      "hit": false,
      "t": 60000.02399999985,
      "d": 625.0002499999973,
      "v": 114
    },
    {
      "midi": 66,
      "hit": false,
      "t": 60000.02399999985,
      "d": 690.7897499999963,
      "v": 112
    },
    {
      "midi": 57,
      "hit": false,
      "t": 60789.49799999985,
      "d": 559.2107499999984,
      "v": 110
    },
    {
      "midi": 62,
      "hit": false,
      "t": 60789.49799999985,
      "d": 592.1054999999978,
      "v": 113
    },
    {
      "midi": 66,
      "hit": false,
      "t": 60789.49799999985,
      "d": 592.1054999999978,
      "v": 108
    },
    {
      "midi": 50,
      "hit": false,
      "t": 60789.49799999985,
      "d": 690.7897499999963,
      "v": 112
    },
    {
      "midi": 59,
      "hit": false,
      "t": 61578.97199999984,
      "d": 263.1580000000031,
      "v": 122
    },
    {
      "midi": 64,
      "hit": false,
      "t": 61578.97199999984,
      "d": 657.8950000000041,
      "v": 115
    },
    {
      "midi": 68,
      "hit": false,
      "t": 61578.97199999984,
      "d": 690.7897500000036,
      "v": 115
    },
    {
      "midi": 40,
      "hit": false,
      "t": 61578.97199999984,
      "d": 1052.632000000005,
      "v": 121
    },
    {
      "midi": 52,
      "hit": false,
      "t": 61578.97199999984,
      "d": 3059.2117499999804,
      "v": 119
    },
    {
      "midi": 59,
      "hit": false,
      "t": 61973.70899999984,
      "d": 1019.7372499999983,
      "v": 113
    },
    {
      "midi": 64,
      "hit": false,
      "t": 62368.44599999984,
      "d": 690.7897499999963,
      "v": 110
    },
    {
      "midi": 68,
      "hit": false,
      "t": 62763.182999999844,
      "d": 263.1579999999958,
      "v": 116
    },
    {
      "midi": 40,
      "hit": false,
      "t": 62960.55149999984,
      "d": 1710.52699999998,
      "v": 110
    },
    {
      "midi": 59,
      "hit": false,
      "t": 63157.91999999984,
      "d": 263.1580000000031,
      "v": 119
    },
    {
      "midi": 64,
      "hit": false,
      "t": 63157.91999999984,
      "d": 493.4212499999994,
      "v": 110
    },
    {
      "midi": 68,
      "hit": false,
      "t": 63157.91999999984,
      "d": 690.7897499999963,
      "v": 108
    },
    {
      "midi": 59,
      "hit": false,
      "t": 63552.65699999984,
      "d": 493.42124999999214,
      "v": 119
    },
    {
      "midi": 64,
      "hit": false,
      "t": 63947.39399999983,
      "d": 296.0527499999953,
      "v": 112
    },
    {
      "midi": 68,
      "hit": false,
      "t": 63947.39399999983,
      "d": 460.52649999999267,
      "v": 114
    },
    {
      "midi": 59,
      "hit": false,
      "t": 64144.76249999983,
      "d": 394.7369999999937,
      "v": 123
    },
    {
      "midi": 64,
      "hit": false,
      "t": 64342.13099999983,
      "d": 230.26324999999633,
      "v": 122
    },
    {
      "midi": 69,
      "hit": false,
      "t": 64736.86799999982,
      "d": 1019.7372499999983,
      "v": 114
    },
    {
      "midi": 45,
      "hit": false,
      "t": 64736.86799999982,
      "d": 2368.4219999999987,
      "v": 110
    },
    {
      "midi": 57,
      "hit": false,
      "t": 64736.86799999982,
      "d": 2368.4219999999987,
      "v": 112
    },
    {
      "midi": 57,
      "hit": false,
      "t": 67105.28999999982,
      "d": 657.8950000000041,
      "v": 109
    },
    {
      "midi": 62,
      "hit": false,
      "t": 67105.28999999982,
      "d": 657.8950000000041,
      "v": 115
    },
    {
      "midi": 45,
      "hit": false,
      "t": 67105.28999999982,
      "d": 723.684500000003,
      "v": 118
    },
    {
      "midi": 64,
      "hit": false,
      "t": 67105.28999999982,
      "d": 756.5792500000098,
      "v": 119
    },
    {
      "midi": 57,
      "hit": false,
      "t": 67894.76399999984,
      "d": 625.0002499999973,
      "v": 118
    },
    {
      "midi": 61,
      "hit": false,
      "t": 67894.76399999984,
      "d": 789.474000000002,
      "v": 113
    },
    {
      "midi": 45,
      "hit": false,
      "t": 67894.76399999984,
      "d": 888.1582500000077,
      "v": 111
    },
    {
      "midi": 64,
      "hit": false,
      "t": 67894.76399999984,
      "d": 986.8425000000134,
      "v": 122
    },
    {
      "midi": 57,
      "hit": false,
      "t": 68684.23799999984,
      "d": 690.7897500000108,
      "v": 123
    },
    {
      "midi": 61,
      "hit": false,
      "t": 68881.60649999985,
      "d": 526.3160000000062,
      "v": 110
    },
    {
      "midi": 64,
      "hit": false,
      "t": 69078.97499999985,
      "d": 328.9475000000093,
      "v": 118
    },
    {
      "midi": 56,
      "hit": false,
      "t": 69473.71199999985,
      "d": 296.05275000000256,
      "v": 122
    },
    {
      "midi": 61,
      "hit": false,
      "t": 69473.71199999985,
      "d": 460.5265000000072,
      "v": 116
    },
    {
      "midi": 64,
      "hit": false,
      "t": 69473.71199999985,
      "d": 756.5792500000098,
      "v": 119
    },
    {
      "midi": 49,
      "hit": false,
      "t": 69473.71199999985,
      "d": 1052.6320000000123,
      "v": 114
    },
    {
      "midi": 37,
      "hit": false,
      "t": 69473.71199999985,
      "d": 1085.526750000019,
      "v": 110
    },
    {
      "midi": 56,
      "hit": false,
      "t": 69868.44899999986,
      "d": 1184.2110000000248,
      "v": 117
    },
    {
      "midi": 61,
      "hit": false,
      "t": 70263.18599999987,
      "d": 789.4740000000165,
      "v": 111
    },
    {
      "midi": 64,
      "hit": false,
      "t": 70657.92299999988,
      "d": 361.8422500000015,
      "v": 115
    },
    {
      "midi": 61,
      "hit": false,
      "t": 71052.65999999989,
      "d": 32.89475000000675,
      "v": 122
    },
    {
      "midi": 57,
      "hit": false,
      "t": 71052.65999999989,
      "d": 230.2632500000036,
      "v": 111
    },
    {
      "midi": 66,
      "hit": false,
      "t": 71052.65999999989,
      "d": 789.474000000002,
      "v": 109
    },
    {
      "midi": 42,
      "hit": false,
      "t": 71052.65999999989,
      "d": 1447.3689999999915,
      "v": 116
    },
    {
      "midi": 57,
      "hit": false,
      "t": 71447.3969999999,
      "d": 1118.4214999999967,
      "v": 116
    },
    {
      "midi": 61,
      "hit": false,
      "t": 71842.13399999989,
      "d": 1414.4742499999993,
      "v": 118
    },
    {
      "midi": 66,
      "hit": false,
      "t": 72236.87099999988,
      "d": 296.05275000000256,
      "v": 114
    },
    {
      "midi": 57,
      "hit": false,
      "t": 72631.60799999989,
      "d": 197.36849999999686,
      "v": 117
    },
    {
      "midi": 66,
      "hit": false,
      "t": 72631.60799999989,
      "d": 789.474000000002,
      "v": 117
    },
    {
      "midi": 40,
      "hit": false,
      "t": 72631.60799999989,
      "d": 953.9477500000066,
      "v": 121
    },
    {
      "midi": 57,
      "hit": false,
      "t": 73026.34499999988,
      "d": 1019.7372500000201,
      "v": 117
    },
    {
      "midi": 61,
      "hit": false,
      "t": 73421.0819999999,
      "d": 394.73700000000827,
      "v": 122
    },
    {
      "midi": 66,
      "hit": false,
      "t": 73618.4504999999,
      "d": 460.5265000000072,
      "v": 114
    },
    {
      "midi": 57,
      "hit": false,
      "t": 74210.55599999991,
      "d": 263.1579999999958,
      "v": 116
    },
    {
      "midi": 62,
      "hit": false,
      "t": 74210.55599999991,
      "d": 592.1054999999906,
      "v": 116
    },
    {
      "midi": 66,
      "hit": false,
      "t": 74210.55599999991,
      "d": 855.2634999999864,
      "v": 114
    },
    {
      "midi": 50,
      "hit": false,
      "t": 74210.55599999991,
      "d": 1513.1584999999905,
      "v": 116
    },
    {
      "midi": 57,
      "hit": false,
      "t": 74605.2929999999,
      "d": 1019.737249999991,
      "v": 114
    },
    {
      "midi": 62,
      "hit": false,
      "t": 75000.0299999999,
      "d": 657.8950000000041,
      "v": 111
    },
    {
      "midi": 66,
      "hit": false,
      "t": 75394.76699999989,
      "d": 263.15800000001036,
      "v": 114
    },
    {
      "midi": 64,
      "hit": false,
      "t": 75789.5039999999,
      "d": 592.1055000000051,
      "v": 111
    },
    {
      "midi": 68,
      "hit": false,
      "t": 75789.5039999999,
      "d": 822.3687500000087,
      "v": 114
    },
    {
      "midi": 59,
      "hit": false,
      "t": 75789.5039999999,
      "d": 1381.579500000007,
      "v": 116
    },
    {
      "midi": 50,
      "hit": false,
      "t": 75789.5039999999,
      "d": 1546.0532500000118,
      "v": 119
    },
    {
      "midi": 64,
      "hit": false,
      "t": 76578.9779999999,
      "d": 460.5265000000072,
      "v": 120
    },
    {
      "midi": 68,
      "hit": false,
      "t": 76776.34649999991,
      "d": 460.52649999999267,
      "v": 111
    },
    {
      "midi": 57,
      "hit": false,
      "t": 77368.45199999992,
      "d": 197.36849999999686,
      "v": 113
    },
    {
      "midi": 61,
      "hit": false,
      "t": 77368.45199999992,
      "d": 526.3159999999916,
      "v": 123
    },
    {
      "midi": 64,
      "hit": false,
      "t": 77368.45199999992,
      "d": 789.4739999999874,
      "v": 108
    },
    {
      "midi": 45,
      "hit": false,
      "t": 77368.45199999992,
      "d": 986.8424999999843,
      "v": 112
    },
    {
      "midi": 57,
      "hit": false,
      "t": 77763.18899999991,
      "d": 1019.737249999991,
      "v": 109
    },
    {
      "midi": 61,
      "hit": false,
      "t": 78157.9259999999,
      "d": 723.684500000003,
      "v": 112
    },
    {
      "midi": 64,
      "hit": false,
      "t": 78552.6629999999,
      "d": 263.15800000001036,
      "v": 113
    },
    {
      "midi": 61,
      "hit": false,
      "t": 78947.3999999999,
      "d": 690.7897499999963,
      "v": 119
    },
    {
      "midi": 65,
      "hit": false,
      "t": 78947.3999999999,
      "d": 789.474000000002,
      "v": 120
    },
    {
      "midi": 49,
      "hit": false,
      "t": 78947.3999999999,
      "d": 1151.3162500000035,
      "v": 121
    },
    {
      "midi": 37,
      "hit": false,
      "t": 78947.3999999999,
      "d": 1184.2110000000102,
      "v": 123
    },
    {
      "midi": 56,
      "hit": false,
      "t": 79342.1369999999,
      "d": 953.9477500000212,
      "v": 122
    },
    {
      "midi": 61,
      "hit": false,
      "t": 79736.87399999991,
      "d": 822.3687500000233,
      "v": 108
    },
    {
      "midi": 65,
      "hit": false,
      "t": 80131.61099999992,
      "d": 361.8422500000015,
      "v": 121
    },
    {
      "midi": 42,
      "hit": false,
      "t": 80526.34799999993,
      "d": 1250.0004999999946,
      "v": 113
    },
    {
      "midi": 54,
      "hit": false,
      "t": 80921.08499999993,
      "d": 526.3159999999916,
      "v": 122
    },
    {
      "midi": 57,
      "hit": false,
      "t": 81315.82199999993,
      "d": 690.7897499999963,
      "v": 119
    },
    {
      "midi": 54,
      "hit": false,
      "t": 81710.55899999992,
      "d": 328.9475000000093,
      "v": 114
    },
    {
      "midi": 42,
      "hit": false,
      "t": 81907.92749999992,
      "d": 1743.4217500000377,
      "v": 111
    },
    {
      "midi": 54,
      "hit": false,
      "t": 82105.29599999993,
      "d": 263.1579999999958,
      "v": 111
    },
    {
      "midi": 57,
      "hit": false,
      "t": 82105.29599999993,
      "d": 427.63175000000047,
      "v": 118
    },
    {
      "midi": 61,
      "hit": false,
      "t": 82105.29599999993,
      "d": 625.0002500000119,
      "v": 119
    },
    {
      "midi": 54,
      "hit": false,
      "t": 82500.03299999992,
      "d": 690.7897500000254,
      "v": 117
    },
    {
      "midi": 57,
      "hit": false,
      "t": 82697.40149999993,
      "d": 526.3160000000207,
      "v": 117
    },
    {
      "midi": 61,
      "hit": false,
      "t": 83092.13849999994,
      "d": 394.73700000000827,
      "v": 110
    },
    {
      "midi": 59,
      "hit": false,
      "t": 83684.24399999996,
      "d": 296.05275000000256,
      "v": 123
    },
    {
      "midi": 63,
      "hit": false,
      "t": 83684.24399999996,
      "d": 657.8950000000041,
      "v": 121
    },
    {
      "midi": 66,
      "hit": false,
      "t": 83684.24399999996,
      "d": 822.3687500000087,
      "v": 109
    },
    {
      "midi": 47,
      "hit": false,
      "t": 83684.24399999996,
      "d": 1480.2637500000128,
      "v": 109
    },
    {
      "midi": 59,
      "hit": false,
      "t": 84078.98099999997,
      "d": 888.1582500000077,
      "v": 116
    },
    {
      "midi": 63,
      "hit": false,
      "t": 84473.71799999996,
      "d": 559.2107500000129,
      "v": 119
    },
    {
      "midi": 66,
      "hit": false,
      "t": 84868.45499999997,
      "d": 164.47375000000466,
      "v": 117
    },
    {
      "midi": 68,
      "hit": false,
      "t": 85263.19199999998,
      "d": 32.89475000000675,
      "v": 119
    },
    {
      "midi": 61,
      "hit": false,
      "t": 85263.19199999998,
      "d": 197.3685000000114,
      "v": 122
    },
    {
      "midi": 64,
      "hit": false,
      "t": 85263.19199999998,
      "d": 625.0002500000119,
      "v": 122
    },
    {
      "midi": 69,
      "hit": false,
      "t": 85263.19199999998,
      "d": 953.9477500000212,
      "v": 121
    },
    {
      "midi": 49,
      "hit": false,
      "t": 85263.19199999998,
      "d": 1447.3690000000206,
      "v": 113
    },
    {
      "midi": 61,
      "hit": false,
      "t": 85657.92899999999,
      "d": 1085.526750000019,
      "v": 109
    },
    {
      "midi": 64,
      "hit": false,
      "t": 86052.666,
      "d": 657.8950000000041,
      "v": 123
    },
    {
      "midi": 69,
      "hit": false,
      "t": 86447.403,
      "d": 263.1579999999958,
      "v": 114
    },
    {
      "midi": 63,
      "hit": false,
      "t": 86842.14000000001,
      "d": 263.1579999999958,
      "v": 111
    },
    {
      "midi": 66,
      "hit": false,
      "t": 86842.14000000001,
      "d": 592.1054999999906,
      "v": 118
    },
    {
      "midi": 71,
      "hit": false,
      "t": 86842.14000000001,
      "d": 822.3687499999942,
      "v": 119
    },
    {
      "midi": 51,
      "hit": false,
      "t": 86842.14000000001,
      "d": 1513.158500000005,
      "v": 123
    },
    {
      "midi": 63,
      "hit": false,
      "t": 87236.87700000001,
      "d": 1085.5267500000045,
      "v": 110
    },
    {
      "midi": 66,
      "hit": false,
      "t": 87631.614,
      "d": 723.6845000000176,
      "v": 118
    },
    {
      "midi": 71,
      "hit": false,
      "t": 88026.35100000001,
      "d": 296.05275000000256,
      "v": 118
    },
    {
      "midi": 63,
      "hit": false,
      "t": 88421.08800000002,
      "d": 296.05275000000256,
      "v": 114
    },
    {
      "midi": 66,
      "hit": false,
      "t": 88421.08800000002,
      "d": 625.0002500000119,
      "v": 113
    },
    {
      "midi": 71,
      "hit": false,
      "t": 88421.08800000002,
      "d": 789.4740000000165,
      "v": 122
    },
    {
      "midi": 47,
      "hit": false,
      "t": 88421.08800000002,
      "d": 1019.7372500000201,
      "v": 108
    },
    {
      "midi": 63,
      "hit": false,
      "t": 88815.82500000003,
      "d": 986.8425000000134,
      "v": 114
    },
    {
      "midi": 66,
      "hit": false,
      "t": 89210.56200000003,
      "d": 657.8950000000041,
      "v": 108
    },
    {
      "midi": 71,
      "hit": false,
      "t": 89407.93050000003,
      "d": 361.8422500000015,
      "v": 116
    },
    {
      "midi": 59,
      "hit": false,
      "t": 90000.03600000004,
      "d": 263.1579999999958,
      "v": 121
    },
    {
      "midi": 64,
      "hit": false,
      "t": 90000.03600000004,
      "d": 657.8949999999895,
      "v": 123
    },
    {
      "midi": 68,
      "hit": false,
      "t": 90000.03600000004,
      "d": 690.7897499999963,
      "v": 108
    },
    {
      "midi": 40,
      "hit": false,
      "t": 90000.03600000004,
      "d": 1052.6319999999978,
      "v": 112
    },
    {
      "midi": 52,
      "hit": false,
      "t": 90000.03600000004,
      "d": 3059.211750000046,
      "v": 120
    },
    {
      "midi": 59,
      "hit": false,
      "t": 90394.77300000003,
      "d": 1019.7372500000056,
      "v": 116
    },
    {
      "midi": 64,
      "hit": false,
      "t": 90789.51000000004,
      "d": 690.7897500000108,
      "v": 117
    },
    {
      "midi": 68,
      "hit": false,
      "t": 91184.24700000003,
      "d": 263.15800000001036,
      "v": 110
    },
    {
      "midi": 40,
      "hit": false,
      "t": 91381.61550000003,
      "d": 1710.52700000006,
      "v": 123
    },
    {
      "midi": 59,
      "hit": false,
      "t": 91578.98400000005,
      "d": 263.1579999999958,
      "v": 111
    },
    {
      "midi": 64,
      "hit": false,
      "t": 91578.98400000005,
      "d": 493.4212499999994,
      "v": 119
    },
    {
      "midi": 68,
      "hit": false,
      "t": 91578.98400000005,
      "d": 690.7897499999963,
      "v": 109
    },
    {
      "midi": 59,
      "hit": false,
      "t": 91973.72100000005,
      "d": 493.42125000001397,
      "v": 113
    },
    {
      "midi": 64,
      "hit": false,
      "t": 92368.45800000006,
      "d": 296.0527500000171,
      "v": 111
    },
    {
      "midi": 68,
      "hit": false,
      "t": 92368.45800000006,
      "d": 460.52650000002177,
      "v": 112
    },
    {
      "midi": 59,
      "hit": false,
      "t": 92565.82650000007,
      "d": 394.73700000000827,
      "v": 117
    },
    {
      "midi": 64,
      "hit": false,
      "t": 92763.19500000008,
      "d": 230.2632500000036,
      "v": 109
    },
    {
      "midi": 59,
      "hit": false,
      "t": 93157.93200000009,
      "d": 230.2632500000036,
      "v": 118
    },
    {
      "midi": 62,
      "hit": false,
      "t": 93157.93200000009,
      "d": 625.0002500000119,
      "v": 109
    },
    {
      "midi": 66,
      "hit": false,
      "t": 93157.93200000009,
      "d": 657.8950000000186,
      "v": 122
    },
    {
      "midi": 47,
      "hit": false,
      "t": 93157.93200000009,
      "d": 986.8425000000134,
      "v": 121
    },
    {
      "midi": 59,
      "hit": false,
      "t": 93552.6690000001,
      "d": 328.9475000000093,
      "v": 123
    },
    {
      "midi": 59,
      "hit": false,
      "t": 93947.4060000001,
      "d": 460.52649999999267,
      "v": 108
    },
    {
      "midi": 62,
      "hit": false,
      "t": 93947.4060000001,
      "d": 657.8949999999895,
      "v": 116
    },
    {
      "midi": 66,
      "hit": false,
      "t": 93947.4060000001,
      "d": 690.7897499999963,
      "v": 116
    },
    {
      "midi": 47,
      "hit": false,
      "t": 94342.1430000001,
      "d": 1118.4215000000113,
      "v": 119
    },
    {
      "midi": 59,
      "hit": false,
      "t": 94736.8800000001,
      "d": 427.63175000000047,
      "v": 108
    },
    {
      "midi": 62,
      "hit": false,
      "t": 94736.8800000001,
      "d": 625.0002499999973,
      "v": 115
    },
    {
      "midi": 66,
      "hit": false,
      "t": 94736.8800000001,
      "d": 690.7897499999963,
      "v": 116
    },
    {
      "midi": 57,
      "hit": false,
      "t": 95526.35400000011,
      "d": 559.2107499999984,
      "v": 117
    },
    {
      "midi": 62,
      "hit": false,
      "t": 95526.35400000011,
      "d": 592.1055000000051,
      "v": 114
    },
    {
      "midi": 66,
      "hit": false,
      "t": 95526.35400000011,
      "d": 592.1055000000051,
      "v": 115
    },
    {
      "midi": 50,
      "hit": false,
      "t": 95526.35400000011,
      "d": 690.7897500000108,
      "v": 108
    },
    {
      "midi": 59,
      "hit": false,
      "t": 96315.82800000013,
      "d": 263.1579999999958,
      "v": 119
    },
    {
      "midi": 64,
      "hit": false,
      "t": 96315.82800000013,
      "d": 657.8949999999895,
      "v": 121
    },
    {
      "midi": 68,
      "hit": false,
      "t": 96315.82800000013,
      "d": 690.7897499999963,
      "v": 119
    },
    {
      "midi": 40,
      "hit": false,
      "t": 96315.82800000013,
      "d": 1052.6319999999978,
      "v": 120
    },
    {
      "midi": 52,
      "hit": false,
      "t": 96315.82800000013,
      "d": 3059.211750000046,
      "v": 117
    },
    {
      "midi": 59,
      "hit": false,
      "t": 96710.56500000012,
      "d": 1019.7372500000056,
      "v": 113
    },
    {
      "midi": 64,
      "hit": false,
      "t": 97105.30200000013,
      "d": 690.7897500000108,
      "v": 113
    },
    {
      "midi": 68,
      "hit": false,
      "t": 97500.03900000012,
      "d": 263.15800000001036,
      "v": 116
    },
    {
      "midi": 40,
      "hit": false,
      "t": 97697.40750000012,
      "d": 1710.52700000006,
      "v": 123
    },
    {
      "midi": 59,
      "hit": false,
      "t": 97894.77600000014,
      "d": 263.1579999999958,
      "v": 109
    },
    {
      "midi": 64,
      "hit": false,
      "t": 97894.77600000014,
      "d": 493.4212499999994,
      "v": 108
    },
    {
      "midi": 68,
      "hit": false,
      "t": 97894.77600000014,
      "d": 690.7897499999963,
      "v": 121
    },
    {
      "midi": 59,
      "hit": false,
      "t": 98289.51300000014,
      "d": 493.42125000001397,
      "v": 113
    },
    {
      "midi": 64,
      "hit": false,
      "t": 98684.25000000015,
      "d": 296.0527500000171,
      "v": 108
    },
    {
      "midi": 68,
      "hit": false,
      "t": 98684.25000000015,
      "d": 460.52650000002177,
      "v": 110
    },
    {
      "midi": 59,
      "hit": false,
      "t": 98881.61850000016,
      "d": 394.73700000000827,
      "v": 122
    },
    {
      "midi": 64,
      "hit": false,
      "t": 99078.98700000017,
      "d": 230.2632500000036,
      "v": 108
    },
    {
      "midi": 59,
      "hit": false,
      "t": 99473.72400000018,
      "d": 230.2632500000036,
      "v": 122
    },
    {
      "midi": 62,
      "hit": false,
      "t": 99473.72400000018,
      "d": 625.0002500000119,
      "v": 113
    },
    {
      "midi": 66,
      "hit": false,
      "t": 99473.72400000018,
      "d": 690.7897500000108,
      "v": 123
    },
    {
      "midi": 47,
      "hit": false,
      "t": 99473.72400000018,
      "d": 986.8425000000134,
      "v": 111
    },
    {
      "midi": 59,
      "hit": false,
      "t": 99868.46100000018,
      "d": 328.9475000000093,
      "v": 116
    },
    {
      "midi": 59,
      "hit": false,
      "t": 100263.1980000002,
      "d": 460.52649999999267,
      "v": 115
    },
    {
      "midi": 62,
      "hit": false,
      "t": 100263.1980000002,
      "d": 657.8949999999895,
      "v": 123
    },
    {
      "midi": 66,
      "hit": false,
      "t": 100263.1980000002,
      "d": 690.7897499999963,
      "v": 112
    },
    {
      "midi": 47,
      "hit": false,
      "t": 100657.93500000019,
      "d": 1118.4215000000113,
      "v": 117
    },
    {
      "midi": 59,
      "hit": false,
      "t": 101052.6720000002,
      "d": 427.63175000000047,
      "v": 116
    },
    {
      "midi": 62,
      "hit": false,
      "t": 101052.6720000002,
      "d": 625.0002499999973,
      "v": 114
    },
    {
      "midi": 66,
      "hit": false,
      "t": 101052.6720000002,
      "d": 690.7897499999963,
      "v": 115
    },
    {
      "midi": 57,
      "hit": false,
      "t": 101842.1460000002,
      "d": 559.2107499999984,
      "v": 113
    },
    {
      "midi": 66,
      "hit": false,
      "t": 101842.1460000002,
      "d": 592.1055000000051,
      "v": 121
    },
    {
      "midi": 62,
      "hit": false,
      "t": 101842.1460000002,
      "d": 625.0002500000119,
      "v": 120
    },
    {
      "midi": 50,
      "hit": false,
      "t": 101842.1460000002,
      "d": 690.7897500000108,
      "v": 110
    },
    {
      "midi": 59,
      "hit": false,
      "t": 102631.62000000021,
      "d": 263.1579999999958,
      "v": 110
    },
    {
      "midi": 64,
      "hit": false,
      "t": 102631.62000000021,
      "d": 657.8949999999895,
      "v": 117
    },
    {
      "midi": 68,
      "hit": false,
      "t": 102631.62000000021,
      "d": 690.7897499999963,
      "v": 121
    },
    {
      "midi": 40,
      "hit": false,
      "t": 102631.62000000021,
      "d": 1052.6319999999978,
      "v": 120
    },
    {
      "midi": 52,
      "hit": false,
      "t": 102631.62000000021,
      "d": 3059.211750000046,
      "v": 112
    },
    {
      "midi": 59,
      "hit": false,
      "t": 103026.35700000021,
      "d": 1019.7372500000056,
      "v": 123
    },
    {
      "midi": 64,
      "hit": false,
      "t": 103421.09400000022,
      "d": 690.7897500000108,
      "v": 115
    },
    {
      "midi": 68,
      "hit": false,
      "t": 103815.83100000021,
      "d": 263.15800000001036,
      "v": 111
    },
    {
      "midi": 40,
      "hit": false,
      "t": 104013.1995000002,
      "d": 1710.52700000006,
      "v": 111
    },
    {
      "midi": 59,
      "hit": false,
      "t": 104210.56800000023,
      "d": 263.1579999999958,
      "v": 108
    },
    {
      "midi": 64,
      "hit": false,
      "t": 104210.56800000023,
      "d": 493.4212499999994,
      "v": 113
    },
    {
      "midi": 68,
      "hit": false,
      "t": 104210.56800000023,
      "d": 690.7897499999963,
      "v": 123
    },
    {
      "midi": 59,
      "hit": false,
      "t": 104605.30500000023,
      "d": 493.42125000001397,
      "v": 117
    },
    {
      "midi": 64,
      "hit": false,
      "t": 105000.04200000023,
      "d": 296.0527500000171,
      "v": 120
    },
    {
      "midi": 68,
      "hit": false,
      "t": 105000.04200000023,
      "d": 460.52650000002177,
      "v": 117
    },
    {
      "midi": 59,
      "hit": false,
      "t": 105197.41050000025,
      "d": 394.73700000000827,
      "v": 114
    },
    {
      "midi": 64,
      "hit": false,
      "t": 105394.77900000026,
      "d": 230.2632500000036,
      "v": 116
    },
    {
      "midi": 61,
      "hit": false,
      "t": 105789.51600000027,
      "d": 296.05275000000256,
      "v": 113
    },
    {
      "midi": 64,
      "hit": false,
      "t": 105789.51600000027,
      "d": 625.0002500000119,
      "v": 116
    },
    {
      "midi": 69,
      "hit": false,
      "t": 105789.51600000027,
      "d": 789.4740000000165,
      "v": 109
    },
    {
      "midi": 61,
      "hit": false,
      "t": 106184.25300000027,
      "d": 723.684500000003,
      "v": 114
    },
    {
      "midi": 64,
      "hit": false,
      "t": 106578.99000000028,
      "d": 361.8422500000015,
      "v": 116
    },
    {
      "midi": 61,
      "hit": false,
      "t": 106973.72700000029,
      "d": 230.2632500000036,
      "v": 122
    },
    {
      "midi": 64,
      "hit": false,
      "t": 106973.72700000029,
      "d": 625.0002500000119,
      "v": 109
    },
    {
      "midi": 69,
      "hit": false,
      "t": 106973.72700000029,
      "d": 855.2635000000155,
      "v": 111
    },
    {
      "midi": 61,
      "hit": false,
      "t": 107368.4640000003,
      "d": 625.0002500000119,
      "v": 111
    },
    {
      "midi": 64,
      "hit": false,
      "t": 107763.2010000003,
      "d": 1118.4215000000113,
      "v": 117
    },
    {
      "midi": 61,
      "hit": false,
      "t": 108157.93800000031,
      "d": 690.7897499999963,
      "v": 112
    },
    {
      "midi": 69,
      "hit": false,
      "t": 108355.30650000031,
      "d": 230.2632500000036,
      "v": 118
    },
    {
      "midi": 61,
      "hit": false,
      "t": 108947.41200000032,
      "d": 263.1579999999958,
      "v": 109
    },
    {
      "midi": 64,
      "hit": false,
      "t": 108947.41200000032,
      "d": 427.63175000000047,
      "v": 110
    },
    {
      "midi": 68,
      "hit": false,
      "t": 108947.41200000032,
      "d": 986.8424999999988,
      "v": 120
    },
    {
      "midi": 49,
      "hit": false,
      "t": 108947.41200000032,
      "d": 1414.4742500000139,
      "v": 123
    },
    {
      "midi": 61,
      "hit": false,
      "t": 109342.14900000031,
      "d": 690.7897500000108,
      "v": 108
    },
    {
      "midi": 64,
      "hit": false,
      "t": 109736.88600000032,
      "d": 361.8422500000015,
      "v": 108
    },
    {
      "midi": 61,
      "hit": false,
      "t": 110131.62300000033,
      "d": 427.631750000015,
      "v": 117
    },
    {
      "midi": 64,
      "hit": false,
      "t": 110131.62300000033,
      "d": 822.3687500000233,
      "v": 119
    },
    {
      "midi": 68,
      "hit": false,
      "t": 110131.62300000033,
      "d": 1151.316250000018,
      "v": 113
    },
    {
      "midi": 49,
      "hit": false,
      "t": 110526.36000000034,
      "d": 1546.0532500000263,
      "v": 120
    },
    {
      "midi": 61,
      "hit": false,
      "t": 110921.09700000034,
      "d": 888.1582500000077,
      "v": 123
    },
    {
      "midi": 64,
      "hit": false,
      "t": 111315.83400000035,
      "d": 493.4212499999994,
      "v": 122
    },
    {
      "midi": 68,
      "hit": false,
      "t": 111710.57100000035,
      "d": 197.3685000000114,
      "v": 117
    },
    {
      "midi": 57,
      "hit": false,
      "t": 112105.30800000037,
      "d": 263.1579999999958,
      "v": 109
    },
    {
      "midi": 62,
      "hit": false,
      "t": 112105.30800000037,
      "d": 657.8949999999895,
      "v": 110
    },
    {
      "midi": 66,
      "hit": false,
      "t": 112105.30800000037,
      "d": 855.2634999999864,
      "v": 120
    },
    {
      "midi": 50,
      "hit": false,
      "t": 112105.30800000037,
      "d": 1019.737249999991,
      "v": 108
    },
    {
      "midi": 57,
      "hit": false,
      "t": 112500.04500000036,
      "d": 822.3687500000087,
      "v": 112
    },
    {
      "midi": 62,
      "hit": false,
      "t": 112894.78200000036,
      "d": 526.3160000000207,
      "v": 118
    },
    {
      "midi": 66,
      "hit": false,
      "t": 113092.15050000035,
      "d": 460.52650000002177,
      "v": 110
    },
    {
      "midi": 50,
      "hit": false,
      "t": 113289.51900000036,
      "d": 427.631750000015,
      "v": 110
    },
    {
      "midi": 59,
      "hit": false,
      "t": 113684.25600000037,
      "d": 296.05275000000256,
      "v": 122
    },
    {
      "midi": 64,
      "hit": false,
      "t": 113684.25600000037,
      "d": 592.1055000000051,
      "v": 122
    },
    {
      "midi": 68,
      "hit": false,
      "t": 113684.25600000037,
      "d": 756.5792500000098,
      "v": 115
    },
    {
      "midi": 52,
      "hit": false,
      "t": 113684.25600000037,
      "d": 1513.1585000000196,
      "v": 111
    },
    {
      "midi": 59,
      "hit": false,
      "t": 114078.99300000038,
      "d": 657.8950000000041,
      "v": 122
    },
    {
      "midi": 64,
      "hit": false,
      "t": 114473.73000000039,
      "d": 657.8949999999895,
      "v": 116
    },
    {
      "midi": 68,
      "hit": false,
      "t": 114671.09850000039,
      "d": 493.4212499999994,
      "v": 110
    },
    {
      "midi": 59,
      "hit": false,
      "t": 114868.46700000038,
      "d": 296.05275000000256,
      "v": 113
    },
    {
      "midi": 57,
      "hit": false,
      "t": 115263.20400000039,
      "d": 197.36849999999686,
      "v": 116
    },
    {
      "midi": 61,
      "hit": false,
      "t": 115263.20400000039,
      "d": 625.0002499999973,
      "v": 108
    },
    {
      "midi": 64,
      "hit": false,
      "t": 115263.20400000039,
      "d": 690.7897499999963,
      "v": 122
    },
    {
      "midi": 45,
      "hit": false,
      "t": 115263.20400000039,
      "d": 1019.7372500000056,
      "v": 109
    },
    {
      "midi": 57,
      "hit": false,
      "t": 115657.94100000038,
      "d": 855.2635000000155,
      "v": 120
    },
    {
      "midi": 61,
      "hit": false,
      "t": 116052.6780000004,
      "d": 657.8950000000041,
      "v": 119
    },
    {
      "midi": 64,
      "hit": false,
      "t": 116052.6780000004,
      "d": 657.8950000000041,
      "v": 118
    },
    {
      "midi": 45,
      "hit": false,
      "t": 116447.4150000004,
      "d": 657.8950000000041,
      "v": 114
    },
    {
      "midi": 57,
      "hit": false,
      "t": 116644.7835000004,
      "d": 98.6842500000057,
      "v": 111
    },
    {
      "midi": 61,
      "hit": false,
      "t": 116842.15200000041,
      "d": 394.7369999999937,
      "v": 108
    },
    {
      "midi": 64,
      "hit": false,
      "t": 116842.15200000041,
      "d": 427.63175000000047,
      "v": 109
    },
    {
      "midi": 57,
      "hit": false,
      "t": 116842.15200000041,
      "d": 460.5265000000072,
      "v": 116
    },
    {
      "midi": 45,
      "hit": false,
      "t": 117236.8890000004,
      "d": 361.84225000001607,
      "v": 119
    },
    {
      "midi": 57,
      "hit": false,
      "t": 117434.25750000041,
      "d": 328.9475000000093,
      "v": 117
    },
    {
      "midi": 62,
      "hit": false,
      "t": 117434.25750000041,
      "d": 460.5265000000072,
      "v": 117
    },
    {
      "midi": 64,
      "hit": false,
      "t": 117434.25750000041,
      "d": 1315.7900000000081,
      "v": 123
    },
    {
      "midi": 45,
      "hit": false,
      "t": 117828.99450000042,
      "d": 230.2632500000036,
      "v": 119
    },
    {
      "midi": 57,
      "hit": false,
      "t": 118026.36300000042,
      "d": 361.8422500000015,
      "v": 112
    },
    {
      "midi": 49,
      "hit": false,
      "t": 118421.10000000043,
      "d": 1052.6319999999832,
      "v": 114
    },
    {
      "midi": 56,
      "hit": false,
      "t": 118815.83700000042,
      "d": 822.3687499999942,
      "v": 116
    },
    {
      "midi": 64,
      "hit": false,
      "t": 119210.57400000042,
      "d": 625.0002500000119,
      "v": 113
    },
    {
      "midi": 61,
      "hit": false,
      "t": 119210.57400000042,
      "d": 657.8950000000186,
      "v": 112
    },
    {
      "midi": 49,
      "hit": false,
      "t": 119605.31100000041,
      "d": 690.7897500000254,
      "v": 118
    },
    {
      "midi": 56,
      "hit": false,
      "t": 119802.67950000042,
      "d": 131.57900000001246,
      "v": 111
    },
    {
      "midi": 56,
      "hit": false,
      "t": 120000.04800000043,
      "d": 394.73700000000827,
      "v": 118
    },
    {
      "midi": 61,
      "hit": false,
      "t": 120000.04800000043,
      "d": 789.474000000002,
      "v": 111
    },
    {
      "midi": 64,
      "hit": false,
      "t": 120000.04800000043,
      "d": 986.8424999999988,
      "v": 114
    },
    {
      "midi": 49,
      "hit": false,
      "t": 120394.78500000044,
      "d": 526.3159999999916,
      "v": 108
    },
    {
      "midi": 56,
      "hit": false,
      "t": 120789.52200000043,
      "d": 625.0002499999973,
      "v": 110
    },
    {
      "midi": 61,
      "hit": false,
      "t": 120986.89050000043,
      "d": 493.4212499999994,
      "v": 118
    },
    {
      "midi": 64,
      "hit": false,
      "t": 121184.25900000043,
      "d": 230.2632500000036,
      "v": 118
    },
    {
      "midi": 57,
      "hit": false,
      "t": 121578.99600000044,
      "d": 263.1579999999958,
      "v": 117
    },
    {
      "midi": 61,
      "hit": false,
      "t": 121578.99600000044,
      "d": 657.8949999999895,
      "v": 121
    },
    {
      "midi": 66,
      "hit": false,
      "t": 121578.99600000044,
      "d": 690.7897499999963,
      "v": 116
    },
    {
      "midi": 42,
      "hit": false,
      "t": 121578.99600000044,
      "d": 888.1582500000077,
      "v": 109
    },
    {
      "midi": 57,
      "hit": false,
      "t": 121973.73300000043,
      "d": 296.05275000000256,
      "v": 117
    },
    {
      "midi": 57,
      "hit": false,
      "t": 122368.47000000044,
      "d": 427.631750000015,
      "v": 122
    },
    {
      "midi": 61,
      "hit": false,
      "t": 122368.47000000044,
      "d": 690.7897500000254,
      "v": 123
    },
    {
      "midi": 66,
      "hit": false,
      "t": 122368.47000000044,
      "d": 690.7897500000254,
      "v": 115
    },
    {
      "midi": 42,
      "hit": false,
      "t": 122763.20700000045,
      "d": 690.7897500000254,
      "v": 110
    },
    {
      "midi": 57,
      "hit": false,
      "t": 122960.57550000046,
      "d": 131.57900000001246,
      "v": 118
    },
    {
      "midi": 57,
      "hit": false,
      "t": 123157.94400000047,
      "d": 526.3160000000062,
      "v": 111
    },
    {
      "midi": 61,
      "hit": false,
      "t": 123157.94400000047,
      "d": 822.3687500000087,
      "v": 122
    },
    {
      "midi": 66,
      "hit": false,
      "t": 123157.94400000047,
      "d": 986.8425000000134,
      "v": 121
    },
    {
      "midi": 42,
      "hit": false,
      "t": 123552.68100000048,
      "d": 1151.3162500000035,
      "v": 113
    },
    {
      "midi": 57,
      "hit": false,
      "t": 123947.41800000047,
      "d": 657.8950000000041,
      "v": 110
    },
    {
      "midi": 61,
      "hit": false,
      "t": 124144.78650000048,
      "d": 263.1579999999958,
      "v": 108
    },
    {
      "midi": 66,
      "hit": false,
      "t": 124342.15500000048,
      "d": 296.05275000000256,
      "v": 119
    },
    {
      "midi": 57,
      "hit": false,
      "t": 124736.89200000049,
      "d": 164.47375000000466,
      "v": 108
    },
    {
      "midi": 62,
      "hit": false,
      "t": 124736.89200000049,
      "d": 690.7897500000108,
      "v": 110
    },
    {
      "midi": 66,
      "hit": false,
      "t": 124736.89200000049,
      "d": 690.7897500000108,
      "v": 123
    },
    {
      "midi": 50,
      "hit": false,
      "t": 124736.89200000049,
      "d": 1019.7372500000201,
      "v": 115
    },
    {
      "midi": 57,
      "hit": false,
      "t": 125131.6290000005,
      "d": 921.0530000000144,
      "v": 123
    },
    {
      "midi": 62,
      "hit": false,
      "t": 125526.3660000005,
      "d": 657.8950000000041,
      "v": 123
    },
    {
      "midi": 66,
      "hit": false,
      "t": 125526.3660000005,
      "d": 657.8950000000041,
      "v": 120
    },
    {
      "midi": 50,
      "hit": false,
      "t": 125921.10300000051,
      "d": 361.8422500000015,
      "v": 123
    },
    {
      "midi": 59,
      "hit": false,
      "t": 126315.84000000052,
      "d": 263.1579999999958,
      "v": 111
    },
    {
      "midi": 64,
      "hit": false,
      "t": 126315.84000000052,
      "d": 657.8949999999895,
      "v": 114
    },
    {
      "midi": 68,
      "hit": false,
      "t": 126315.84000000052,
      "d": 723.6844999999885,
      "v": 121
    },
    {
      "midi": 52,
      "hit": false,
      "t": 126315.84000000052,
      "d": 921.0529999999999,
      "v": 118
    },
    {
      "midi": 59,
      "hit": false,
      "t": 126710.57700000051,
      "d": 361.8422500000015,
      "v": 114
    },
    {
      "midi": 64,
      "hit": false,
      "t": 127105.31400000052,
      "d": 460.52649999999267,
      "v": 111
    },
    {
      "midi": 59,
      "hit": false,
      "t": 127105.31400000052,
      "d": 789.4739999999874,
      "v": 120
    },
    {
      "midi": 68,
      "hit": false,
      "t": 127105.31400000052,
      "d": 822.3687499999942,
      "v": 116
    },
    {
      "midi": 52,
      "hit": false,
      "t": 127500.05100000052,
      "d": 394.7369999999937,
      "v": 117
    },
    {
      "midi": 45,
      "hit": false,
      "t": 127894.78800000051,
      "d": 822.3687500000087,
      "v": 122
    },
    {
      "midi": 57,
      "hit": false,
      "t": 128289.52500000052,
      "d": 855.2635000000009,
      "v": 115
    },
    {
      "midi": 64,
      "hit": false,
      "t": 128486.89350000051,
      "d": 592.1055000000051,
      "v": 108
    },
    {
      "midi": 61,
      "hit": false,
      "t": 128486.89350000051,
      "d": 723.684500000003,
      "v": 113
    },
    {
      "midi": 45,
      "hit": false,
      "t": 128881.63050000052,
      "d": 493.4212499999994,
      "v": 121
    },
    {
      "midi": 56,
      "hit": false,
      "t": 129473.73600000053,
      "d": 296.05275000000256,
      "v": 109
    },
    {
      "midi": 61,
      "hit": false,
      "t": 129473.73600000053,
      "d": 690.7897500000108,
      "v": 110
    },
    {
      "midi": 65,
      "hit": false,
      "t": 129473.73600000053,
      "d": 723.6845000000176,
      "v": 118
    },
    {
      "midi": 49,
      "hit": false,
      "t": 129473.73600000053,
      "d": 953.9477500000212,
      "v": 123
    },
    {
      "midi": 56,
      "hit": false,
      "t": 129868.47300000054,
      "d": 328.9475000000093,
      "v": 120
    },
    {
      "midi": 65,
      "hit": false,
      "t": 130263.21000000054,
      "d": 460.5265000000072,
      "v": 111
    },
    {
      "midi": 56,
      "hit": false,
      "t": 130263.21000000054,
      "d": 592.1055000000051,
      "v": 121
    },
    {
      "midi": 49,
      "hit": false,
      "t": 130657.94700000055,
      "d": 394.7369999999937,
      "v": 112
    },
    {
      "midi": 61,
      "hit": false,
      "t": 131052.68400000055,
      "d": 32.8947499999922,
      "v": 121
    },
    {
      "midi": 57,
      "hit": false,
      "t": 131052.68400000055,
      "d": 296.052749999988,
      "v": 108
    },
    {
      "midi": 66,
      "hit": false,
      "t": 131052.68400000055,
      "d": 690.7897499999817,
      "v": 123
    },
    {
      "midi": 42,
      "hit": false,
      "t": 131052.68400000055,
      "d": 855.2634999999864,
      "v": 119
    },
    {
      "midi": 57,
      "hit": false,
      "t": 131447.42100000053,
      "d": 625.0002500000119,
      "v": 112
    },
    {
      "midi": 61,
      "hit": false,
      "t": 131842.15800000052,
      "d": 394.7370000000228,
      "v": 115
    },
    {
      "midi": 66,
      "hit": false,
      "t": 131842.15800000052,
      "d": 690.7897500000254,
      "v": 113
    },
    {
      "midi": 42,
      "hit": false,
      "t": 132039.52650000053,
      "d": 526.3160000000207,
      "v": 115
    },
    {
      "midi": 57,
      "hit": false,
      "t": 132631.63200000057,
      "d": 230.26324999998906,
      "v": 119
    },
    {
      "midi": 62,
      "hit": false,
      "t": 132631.63200000057,
      "d": 657.8949999999895,
      "v": 117
    },
    {
      "midi": 66,
      "hit": false,
      "t": 132631.63200000057,
      "d": 690.7897499999963,
      "v": 112
    },
    {
      "midi": 50,
      "hit": false,
      "t": 132631.63200000057,
      "d": 1019.7372499999765,
      "v": 121
    },
    {
      "midi": 57,
      "hit": false,
      "t": 133026.36900000056,
      "d": 296.05275000000256,
      "v": 117
    },
    {
      "midi": 66,
      "hit": false,
      "t": 133421.10600000055,
      "d": 559.2107499999984,
      "v": 114
    },
    {
      "midi": 62,
      "hit": false,
      "t": 133421.10600000055,
      "d": 723.684500000003,
      "v": 115
    },
    {
      "midi": 57,
      "hit": false,
      "t": 133421.10600000055,
      "d": 789.4740000000165,
      "v": 114
    },
    {
      "midi": 50,
      "hit": false,
      "t": 133815.84300000055,
      "d": 328.9475000000093,
      "v": 108
    },
    {
      "midi": 40,
      "hit": false,
      "t": 134210.58000000057,
      "d": 1513.1584999999905,
      "v": 112
    },
    {
      "midi": 55,
      "hit": false,
      "t": 134605.31700000056,
      "d": 98.68424999999115,
      "v": 117
    },
    {
      "midi": 56,
      "hit": false,
      "t": 134605.31700000056,
      "d": 230.26324999998906,
      "v": 119
    },
    {
      "midi": 64,
      "hit": false,
      "t": 134802.68550000055,
      "d": 921.0530000000144,
      "v": 120
    },
    {
      "midi": 59,
      "hit": false,
      "t": 135000.05400000056,
      "d": 460.5265000000072,
      "v": 112
    },
    {
      "midi": 56,
      "hit": false,
      "t": 135394.79100000055,
      "d": 328.9475000000093,
      "v": 110
    },
    {
      "midi": 59,
      "hit": false,
      "t": 135592.15950000056,
      "d": 98.68424999999115,
      "v": 114
    },
    {
      "midi": 57,
      "hit": false,
      "t": 135789.52800000057,
      "d": 1513.1584999999905,
      "v": 121
    },
    {
      "midi": 62,
      "hit": false,
      "t": 135789.52800000057,
      "d": 1513.1584999999905,
      "v": 110
    },
    {
      "midi": 40,
      "hit": false,
      "t": 135789.52800000057,
      "d": 1546.0532499999972,
      "v": 119
    },
    {
      "midi": 52,
      "hit": false,
      "t": 135789.52800000057,
      "d": 1546.0532499999972,
      "v": 112
    },
    {
      "midi": 66,
      "hit": false,
      "t": 135789.52800000057,
      "d": 1546.0532499999972,
      "v": 122
    },
    {
      "midi": 45,
      "hit": false,
      "t": 137368.47600000058,
      "d": 32.89475000000675,
      "v": 120
    },
    {
      "midi": 57,
      "hit": false,
      "t": 137368.47600000058,
      "d": 657.8950000000186,
      "v": 115
    },
    {
      "midi": 61,
      "hit": false,
      "t": 137368.47600000058,
      "d": 822.3687500000233,
      "v": 120
    },
    {
      "midi": 64,
      "hit": false,
      "t": 137368.47600000058,
      "d": 986.8425000000279,
      "v": 115
    },
    {
      "midi": 57,
      "hit": false,
      "t": 138157.9500000006,
      "d": 690.7897500000254,
      "v": 116
    },
    {
      "midi": 61,
      "hit": false,
      "t": 138355.3185000006,
      "d": 526.3160000000207,
      "v": 115
    },
    {
      "midi": 64,
      "hit": false,
      "t": 138552.68700000062,
      "d": 328.9475000000093,
      "v": 116
    },
    {
      "midi": 56,
      "hit": false,
      "t": 138947.42400000064,
      "d": 296.05275000000256,
      "v": 117
    },
    {
      "midi": 61,
      "hit": false,
      "t": 138947.42400000064,
      "d": 460.5265000000072,
      "v": 113
    },
    {
      "midi": 64,
      "hit": false,
      "t": 138947.42400000064,
      "d": 756.5792500000098,
      "v": 112
    },
    {
      "midi": 49,
      "hit": false,
      "t": 138947.42400000064,
      "d": 1052.6320000000123,
      "v": 113
    },
    {
      "midi": 37,
      "hit": false,
      "t": 138947.42400000064,
      "d": 1085.526750000019,
      "v": 111
    },
    {
      "midi": 56,
      "hit": false,
      "t": 139342.16100000063,
      "d": 1184.2110000000102,
      "v": 108
    },
    {
      "midi": 61,
      "hit": false,
      "t": 139736.89800000066,
      "d": 789.4739999999874,
      "v": 120
    },
    {
      "midi": 64,
      "hit": false,
      "t": 140131.63500000065,
      "d": 361.84224999998696,
      "v": 118
    },
    {
      "midi": 61,
      "hit": false,
      "t": 140526.37200000064,
      "d": 32.89475000000675,
      "v": 111
    },
    {
      "midi": 57,
      "hit": false,
      "t": 140526.37200000064,
      "d": 230.26325000001816,
      "v": 116
    },
    {
      "midi": 66,
      "hit": false,
      "t": 140526.37200000064,
      "d": 789.4740000000165,
      "v": 121
    },
    {
      "midi": 42,
      "hit": false,
      "t": 140526.37200000064,
      "d": 1447.369000000006,
      "v": 117
    },
    {
      "midi": 57,
      "hit": false,
      "t": 140921.10900000067,
      "d": 1118.4214999999967,
      "v": 118
    },
    {
      "midi": 61,
      "hit": false,
      "t": 141315.84600000066,
      "d": 1414.4742500000284,
      "v": 114
    },
    {
      "midi": 66,
      "hit": false,
      "t": 141710.58300000065,
      "d": 296.05275000000256,
      "v": 118
    },
    {
      "midi": 57,
      "hit": false,
      "t": 142105.32000000068,
      "d": 197.3685000000114,
      "v": 109
    },
    {
      "midi": 66,
      "hit": false,
      "t": 142105.32000000068,
      "d": 789.4740000000165,
      "v": 115
    },
    {
      "midi": 40,
      "hit": false,
      "t": 142105.32000000068,
      "d": 953.9477500000212,
      "v": 116
    },
    {
      "midi": 57,
      "hit": false,
      "t": 142500.0570000007,
      "d": 1019.7372500000056,
      "v": 121
    },
    {
      "midi": 61,
      "hit": false,
      "t": 142894.7940000007,
      "d": 394.7370000000228,
      "v": 109
    },
    {
      "midi": 66,
      "hit": false,
      "t": 143092.1625000007,
      "d": 460.5265000000072,
      "v": 116
    },
    {
      "midi": 57,
      "hit": false,
      "t": 143684.2680000007,
      "d": 263.1579999999958,
      "v": 114
    },
    {
      "midi": 62,
      "hit": false,
      "t": 143684.2680000007,
      "d": 592.1055000000051,
      "v": 112
    },
    {
      "midi": 66,
      "hit": false,
      "t": 143684.2680000007,
      "d": 855.26350000003,
      "v": 109
    },
    {
      "midi": 50,
      "hit": false,
      "t": 143684.2680000007,
      "d": 1513.1585000000487,
      "v": 116
    },
    {
      "midi": 57,
      "hit": false,
      "t": 144079.0050000007,
      "d": 1019.7372500000347,
      "v": 114
    },
    {
      "midi": 62,
      "hit": false,
      "t": 144473.74200000073,
      "d": 657.8950000000186,
      "v": 109
    },
    {
      "midi": 66,
      "hit": false,
      "t": 144868.47900000075,
      "d": 263.1579999999958,
      "v": 116
    },
    {
      "midi": 64,
      "hit": false,
      "t": 145263.21600000077,
      "d": 592.1055000000051,
      "v": 120
    },
    {
      "midi": 68,
      "hit": false,
      "t": 145263.21600000077,
      "d": 822.3687500000233,
      "v": 116
    },
    {
      "midi": 59,
      "hit": false,
      "t": 145263.21600000077,
      "d": 1381.5795000000217,
      "v": 119
    },
    {
      "midi": 50,
      "hit": false,
      "t": 145263.21600000077,
      "d": 1546.0532500000263,
      "v": 121
    },
    {
      "midi": 64,
      "hit": false,
      "t": 146052.6900000008,
      "d": 460.5265000000072,
      "v": 117
    },
    {
      "midi": 68,
      "hit": false,
      "t": 146250.0585000008,
      "d": 460.5265000000072,
      "v": 119
    },
    {
      "midi": 57,
      "hit": false,
      "t": 146842.1640000008,
      "d": 197.3685000000114,
      "v": 120
    },
    {
      "midi": 61,
      "hit": false,
      "t": 146842.1640000008,
      "d": 526.3160000000207,
      "v": 115
    },
    {
      "midi": 64,
      "hit": false,
      "t": 146842.1640000008,
      "d": 789.4740000000165,
      "v": 110
    },
    {
      "midi": 45,
      "hit": false,
      "t": 146842.1640000008,
      "d": 986.8425000000279,
      "v": 113
    },
    {
      "midi": 57,
      "hit": false,
      "t": 147236.90100000083,
      "d": 1019.7372500000056,
      "v": 116
    },
    {
      "midi": 61,
      "hit": false,
      "t": 147631.63800000082,
      "d": 723.6845000000321,
      "v": 114
    },
    {
      "midi": 64,
      "hit": false,
      "t": 148026.37500000084,
      "d": 263.1579999999958,
      "v": 116
    },
    {
      "midi": 61,
      "hit": false,
      "t": 148421.11200000087,
      "d": 690.7897499999963,
      "v": 109
    },
    {
      "midi": 65,
      "hit": false,
      "t": 148421.11200000087,
      "d": 789.4739999999874,
      "v": 119
    },
    {
      "midi": 49,
      "hit": false,
      "t": 148421.11200000087,
      "d": 1151.3162499999744,
      "v": 120
    },
    {
      "midi": 37,
      "hit": false,
      "t": 148421.11200000087,
      "d": 1184.2109999999811,
      "v": 117
    },
    {
      "midi": 56,
      "hit": false,
      "t": 148815.84900000086,
      "d": 953.9477499999921,
      "v": 120
    },
    {
      "midi": 61,
      "hit": false,
      "t": 149210.58600000085,
      "d": 822.3687500000233,
      "v": 119
    },
    {
      "midi": 65,
      "hit": false,
      "t": 149605.32300000085,
      "d": 361.84225000001607,
      "v": 121
    },
    {
      "midi": 42,
      "hit": false,
      "t": 150000.06000000087,
      "d": 1217.105749999988,
      "v": 121
    },
    {
      "midi": 54,
      "hit": false,
      "t": 150394.79700000086,
      "d": 526.3159999999916,
      "v": 122
    },
    {
      "midi": 57,
      "hit": false,
      "t": 150789.53400000086,
      "d": 690.7897499999963,
      "v": 108
    },
    {
      "midi": 54,
      "hit": false,
      "t": 151184.27100000085,
      "d": 328.9475000000093,
      "v": 118
    },
    {
      "midi": 42,
      "hit": false,
      "t": 151381.63950000086,
      "d": 1743.4217500000086,
      "v": 118
    },
    {
      "midi": 54,
      "hit": false,
      "t": 151579.00800000087,
      "d": 263.1579999999958,
      "v": 110
    },
    {
      "midi": 57,
      "hit": false,
      "t": 151579.00800000087,
      "d": 427.63175000000047,
      "v": 112
    },
    {
      "midi": 61,
      "hit": false,
      "t": 151579.00800000087,
      "d": 625.0002500000119,
      "v": 113
    },
    {
      "midi": 54,
      "hit": false,
      "t": 151973.74500000087,
      "d": 690.7897499999963,
      "v": 122
    },
    {
      "midi": 57,
      "hit": false,
      "t": 152171.11350000088,
      "d": 526.3159999999916,
      "v": 114
    },
    {
      "midi": 61,
      "hit": false,
      "t": 152565.85050000087,
      "d": 394.7369999999937,
      "v": 112
    },
    {
      "midi": 59,
      "hit": false,
      "t": 153157.95600000088,
      "d": 296.05275000000256,
      "v": 111
    },
    {
      "midi": 63,
      "hit": false,
      "t": 153157.95600000088,
      "d": 657.8949999999895,
      "v": 117
    },
    {
      "midi": 66,
      "hit": false,
      "t": 153157.95600000088,
      "d": 822.3687499999942,
      "v": 118
    },
    {
      "midi": 47,
      "hit": false,
      "t": 153157.95600000088,
      "d": 1480.2637499999837,
      "v": 119
    },
    {
      "midi": 59,
      "hit": false,
      "t": 153552.69300000087,
      "d": 888.1582499999786,
      "v": 117
    },
    {
      "midi": 63,
      "hit": false,
      "t": 153947.43000000087,
      "d": 559.2107499999984,
      "v": 108
    },
    {
      "midi": 66,
      "hit": false,
      "t": 154342.16700000086,
      "d": 164.47375000000466,
      "v": 118
    },
    {
      "midi": 68,
      "hit": false,
      "t": 154736.90400000085,
      "d": 32.89475000000675,
      "v": 119
    },
    {
      "midi": 61,
      "hit": false,
      "t": 154736.90400000085,
      "d": 197.3685000000114,
      "v": 110
    },
    {
      "midi": 64,
      "hit": false,
      "t": 154736.90400000085,
      "d": 625.0002500000119,
      "v": 115
    },
    {
      "midi": 69,
      "hit": false,
      "t": 154736.90400000085,
      "d": 953.9477500000212,
      "v": 117
    },
    {
      "midi": 49,
      "hit": false,
      "t": 154736.90400000085,
      "d": 1447.369000000006,
      "v": 109
    },
    {
      "midi": 61,
      "hit": false,
      "t": 155131.64100000088,
      "d": 1085.52674999999,
      "v": 122
    },
    {
      "midi": 64,
      "hit": false,
      "t": 155526.37800000087,
      "d": 657.8949999999895,
      "v": 110
    },
    {
      "midi": 69,
      "hit": false,
      "t": 155921.11500000086,
      "d": 263.1579999999958,
      "v": 121
    },
    {
      "midi": 63,
      "hit": false,
      "t": 156315.85200000086,
      "d": 263.1579999999958,
      "v": 122
    },
    {
      "midi": 66,
      "hit": false,
      "t": 156315.85200000086,
      "d": 592.1055000000051,
      "v": 123
    },
    {
      "midi": 71,
      "hit": false,
      "t": 156315.85200000086,
      "d": 822.3687500000233,
      "v": 113
    },
    {
      "midi": 51,
      "hit": false,
      "t": 156315.85200000086,
      "d": 1513.1585000000196,
      "v": 115
    },
    {
      "midi": 63,
      "hit": false,
      "t": 156710.58900000085,
      "d": 1085.526750000019,
      "v": 115
    },
    {
      "midi": 66,
      "hit": false,
      "t": 157105.32600000087,
      "d": 723.684500000003,
      "v": 119
    },
    {
      "midi": 71,
      "hit": false,
      "t": 157500.06300000087,
      "d": 296.05275000000256,
      "v": 123
    },
    {
      "midi": 63,
      "hit": false,
      "t": 157894.8000000009,
      "d": 296.05275000000256,
      "v": 115
    },
    {
      "midi": 66,
      "hit": false,
      "t": 157894.8000000009,
      "d": 625.0002499999828,
      "v": 110
    },
    {
      "midi": 71,
      "hit": false,
      "t": 157894.8000000009,
      "d": 789.4739999999874,
      "v": 111
    },
    {
      "midi": 47,
      "hit": false,
      "t": 157894.8000000009,
      "d": 1019.7372500000056,
      "v": 116
    },
    {
      "midi": 63,
      "hit": false,
      "t": 158289.53700000088,
      "d": 986.8425000000279,
      "v": 117
    },
    {
      "midi": 66,
      "hit": false,
      "t": 158684.27400000088,
      "d": 657.8950000000477,
      "v": 113
    },
    {
      "midi": 71,
      "hit": false,
      "t": 158881.6425000009,
      "d": 361.84225000001607,
      "v": 122
    },
    {
      "midi": 59,
      "hit": false,
      "t": 159473.74800000092,
      "d": 263.1579999999958,
      "v": 109
    },
    {
      "midi": 64,
      "hit": false,
      "t": 159473.74800000092,
      "d": 657.8949999999895,
      "v": 110
    },
    {
      "midi": 68,
      "hit": false,
      "t": 159473.74800000092,
      "d": 690.7897499999963,
      "v": 115
    },
    {
      "midi": 40,
      "hit": false,
      "t": 159473.74800000092,
      "d": 1052.6319999999832,
      "v": 113
    },
    {
      "midi": 52,
      "hit": false,
      "t": 159473.74800000092,
      "d": 3059.2117499999877,
      "v": 112
    },
    {
      "midi": 59,
      "hit": false,
      "t": 159868.48500000092,
      "d": 1019.7372500000056,
      "v": 118
    },
    {
      "midi": 64,
      "hit": false,
      "t": 160263.2220000009,
      "d": 690.7897500000254,
      "v": 119
    },
    {
      "midi": 68,
      "hit": false,
      "t": 160657.9590000009,
      "d": 263.1580000000249,
      "v": 112
    },
    {
      "midi": 40,
      "hit": false,
      "t": 160855.32750000092,
      "d": 1710.5270000000019,
      "v": 121
    },
    {
      "midi": 59,
      "hit": false,
      "t": 161052.69600000093,
      "d": 263.1579999999958,
      "v": 112
    },
    {
      "midi": 64,
      "hit": false,
      "t": 161052.69600000093,
      "d": 493.42124999998487,
      "v": 110
    },
    {
      "midi": 68,
      "hit": false,
      "t": 161052.69600000093,
      "d": 690.7897499999963,
      "v": 109
    },
    {
      "midi": 59,
      "hit": false,
      "t": 161447.43300000092,
      "d": 493.42124999998487,
      "v": 115
    },
    {
      "midi": 64,
      "hit": false,
      "t": 161842.17000000092,
      "d": 296.05274999997346,
      "v": 118
    },
    {
      "midi": 68,
      "hit": false,
      "t": 161842.17000000092,
      "d": 460.5264999999781,
      "v": 116
    },
    {
      "midi": 59,
      "hit": false,
      "t": 162039.5385000009,
      "d": 394.7369999999937,
      "v": 123
    },
    {
      "midi": 64,
      "hit": false,
      "t": 162236.90700000088,
      "d": 230.26325000001816,
      "v": 118
    },
    {
      "midi": 59,
      "hit": false,
      "t": 162631.64400000093,
      "d": 230.26324999998906,
      "v": 108
    },
    {
      "midi": 62,
      "hit": false,
      "t": 162631.64400000093,
      "d": 625.0002499999828,
      "v": 116
    },
    {
      "midi": 66,
      "hit": false,
      "t": 162631.64400000093,
      "d": 657.8949999999895,
      "v": 112
    },
    {
      "midi": 47,
      "hit": false,
      "t": 162631.64400000093,
      "d": 986.8425000000279,
      "v": 121
    },
    {
      "midi": 59,
      "hit": false,
      "t": 163026.38100000093,
      "d": 328.9475000000093,
      "v": 114
    },
    {
      "midi": 59,
      "hit": false,
      "t": 163421.11800000095,
      "d": 460.5265000000363,
      "v": 121
    },
    {
      "midi": 62,
      "hit": false,
      "t": 163421.11800000095,
      "d": 657.8950000000477,
      "v": 118
    },
    {
      "midi": 66,
      "hit": false,
      "t": 163421.11800000095,
      "d": 690.7897500000545,
      "v": 116
    },
    {
      "midi": 47,
      "hit": false,
      "t": 163815.85500000097,
      "d": 1118.421500000055,
      "v": 110
    },
    {
      "midi": 59,
      "hit": false,
      "t": 164210.592000001,
      "d": 427.63175000000047,
      "v": 116
    },
    {
      "midi": 62,
      "hit": false,
      "t": 164210.592000001,
      "d": 625.0002500000119,
      "v": 111
    },
    {
      "midi": 66,
      "hit": false,
      "t": 164210.592000001,
      "d": 690.7897500000254,
      "v": 121
    },
    {
      "midi": 57,
      "hit": false,
      "t": 165000.06600000104,
      "d": 559.2107499999984,
      "v": 108
    },
    {
      "midi": 62,
      "hit": false,
      "t": 165000.06600000104,
      "d": 592.1055000000051,
      "v": 110
    },
    {
      "midi": 66,
      "hit": false,
      "t": 165000.06600000104,
      "d": 592.1055000000051,
      "v": 111
    },
    {
      "midi": 50,
      "hit": false,
      "t": 165000.06600000104,
      "d": 690.7897499999963,
      "v": 108
    },
    {
      "midi": 59,
      "hit": false,
      "t": 165789.54000000103,
      "d": 263.1579999999958,
      "v": 113
    },
    {
      "midi": 64,
      "hit": false,
      "t": 165789.54000000103,
      "d": 657.8949999999895,
      "v": 120
    },
    {
      "midi": 68,
      "hit": false,
      "t": 165789.54000000103,
      "d": 690.7897499999963,
      "v": 110
    },
    {
      "midi": 40,
      "hit": false,
      "t": 165789.54000000103,
      "d": 1052.6319999999832,
      "v": 110
    },
    {
      "midi": 52,
      "hit": false,
      "t": 165789.54000000103,
      "d": 3059.2117499999877,
      "v": 111
    },
    {
      "midi": 59,
      "hit": false,
      "t": 166184.27700000102,
      "d": 1019.7372500000056,
      "v": 112
    },
    {
      "midi": 64,
      "hit": false,
      "t": 166579.014000001,
      "d": 690.7897500000254,
      "v": 120
    },
    {
      "midi": 68,
      "hit": false,
      "t": 166973.751000001,
      "d": 263.1580000000249,
      "v": 118
    },
    {
      "midi": 40,
      "hit": false,
      "t": 167171.11950000102,
      "d": 1710.5270000000019,
      "v": 121
    },
    {
      "midi": 59,
      "hit": false,
      "t": 167368.48800000103,
      "d": 263.1579999999958,
      "v": 112
    },
    {
      "midi": 64,
      "hit": false,
      "t": 167368.48800000103,
      "d": 493.42124999998487,
      "v": 120
    },
    {
      "midi": 68,
      "hit": false,
      "t": 167368.48800000103,
      "d": 690.7897499999963,
      "v": 115
    },
    {
      "midi": 59,
      "hit": false,
      "t": 167763.22500000102,
      "d": 493.42124999998487,
      "v": 112
    },
    {
      "midi": 64,
      "hit": false,
      "t": 168157.96200000102,
      "d": 296.05274999997346,
      "v": 117
    },
    {
      "midi": 68,
      "hit": false,
      "t": 168157.96200000102,
      "d": 460.5264999999781,
      "v": 110
    },
    {
      "midi": 59,
      "hit": false,
      "t": 168355.330500001,
      "d": 394.7369999999937,
      "v": 120
    },
    {
      "midi": 64,
      "hit": false,
      "t": 168552.69900000098,
      "d": 230.26325000001816,
      "v": 109
    },
    {
      "midi": 59,
      "hit": false,
      "t": 168947.43600000103,
      "d": 230.26324999998906,
      "v": 119
    },
    {
      "midi": 62,
      "hit": false,
      "t": 168947.43600000103,
      "d": 625.0002499999828,
      "v": 120
    },
    {
      "midi": 66,
      "hit": false,
      "t": 168947.43600000103,
      "d": 690.7897499999963,
      "v": 114
    },
    {
      "midi": 47,
      "hit": false,
      "t": 168947.43600000103,
      "d": 986.8425000000279,
      "v": 111
    },
    {
      "midi": 59,
      "hit": false,
      "t": 169342.17300000103,
      "d": 328.9475000000093,
      "v": 110
    },
    {
      "midi": 59,
      "hit": false,
      "t": 169736.91000000105,
      "d": 460.5265000000363,
      "v": 118
    },
    {
      "midi": 62,
      "hit": false,
      "t": 169736.91000000105,
      "d": 657.8950000000477,
      "v": 108
    },
    {
      "midi": 66,
      "hit": false,
      "t": 169736.91000000105,
      "d": 690.7897500000545,
      "v": 108
    },
    {
      "midi": 47,
      "hit": false,
      "t": 170131.64700000107,
      "d": 1118.421500000055,
      "v": 122
    },
    {
      "midi": 59,
      "hit": false,
      "t": 170526.3840000011,
      "d": 427.63175000000047,
      "v": 122
    },
    {
      "midi": 62,
      "hit": false,
      "t": 170526.3840000011,
      "d": 625.0002500000119,
      "v": 120
    },
    {
      "midi": 66,
      "hit": false,
      "t": 170526.3840000011,
      "d": 690.7897500000254,
      "v": 116
    },
    {
      "midi": 57,
      "hit": false,
      "t": 171315.85800000114,
      "d": 559.2107499999984,
      "v": 112
    },
    {
      "midi": 62,
      "hit": false,
      "t": 171315.85800000114,
      "d": 592.1055000000051,
      "v": 111
    },
    {
      "midi": 66,
      "hit": false,
      "t": 171315.85800000114,
      "d": 592.1055000000051,
      "v": 112
    },
    {
      "midi": 50,
      "hit": false,
      "t": 171315.85800000114,
      "d": 690.7897499999963,
      "v": 114
    },
    {
      "midi": 59,
      "hit": false,
      "t": 172105.33200000113,
      "d": 263.1579999999958,
      "v": 119
    },
    {
      "midi": 64,
      "hit": false,
      "t": 172105.33200000113,
      "d": 657.8949999999895,
      "v": 109
    },
    {
      "midi": 68,
      "hit": false,
      "t": 172105.33200000113,
      "d": 690.7897499999963,
      "v": 113
    },
    {
      "midi": 40,
      "hit": false,
      "t": 172105.33200000113,
      "d": 1052.6319999999832,
      "v": 111
    },
    {
      "midi": 52,
      "hit": false,
      "t": 172105.33200000113,
      "d": 3059.2117499999877,
      "v": 112
    },
    {
      "midi": 59,
      "hit": false,
      "t": 172500.06900000112,
      "d": 1019.7372500000056,
      "v": 117
    },
    {
      "midi": 64,
      "hit": false,
      "t": 172894.80600000112,
      "d": 690.7897500000254,
      "v": 121
    },
    {
      "midi": 68,
      "hit": false,
      "t": 173289.5430000011,
      "d": 263.1580000000249,
      "v": 119
    },
    {
      "midi": 40,
      "hit": false,
      "t": 173486.91150000112,
      "d": 1710.5270000000019,
      "v": 115
    },
    {
      "midi": 59,
      "hit": false,
      "t": 173684.28000000113,
      "d": 263.1579999999958,
      "v": 115
    },
    {
      "midi": 64,
      "hit": false,
      "t": 173684.28000000113,
      "d": 493.42124999998487,
      "v": 110
    },
    {
      "midi": 68,
      "hit": false,
      "t": 173684.28000000113,
      "d": 690.7897499999963,
      "v": 123
    },
    {
      "midi": 59,
      "hit": false,
      "t": 174079.01700000113,
      "d": 493.42124999998487,
      "v": 120
    },
    {
      "midi": 64,
      "hit": false,
      "t": 174473.75400000112,
      "d": 296.05274999997346,
      "v": 116
    },
    {
      "midi": 68,
      "hit": false,
      "t": 174473.75400000112,
      "d": 460.5264999999781,
      "v": 115
    },
    {
      "midi": 59,
      "hit": false,
      "t": 174671.1225000011,
      "d": 394.7369999999937,
      "v": 123
    },
    {
      "midi": 64,
      "hit": false,
      "t": 174868.4910000011,
      "d": 230.26325000001816,
      "v": 112
    },
    {
      "midi": 61,
      "hit": false,
      "t": 175263.22800000114,
      "d": 296.05275000000256,
      "v": 120
    },
    {
      "midi": 64,
      "hit": false,
      "t": 175263.22800000114,
      "d": 625.0002499999828,
      "v": 109
    },
    {
      "midi": 69,
      "hit": false,
      "t": 175263.22800000114,
      "d": 789.4739999999874,
      "v": 113
    },
    {
      "midi": 61,
      "hit": false,
      "t": 175657.96500000113,
      "d": 723.684500000003,
      "v": 116
    },
    {
      "midi": 64,
      "hit": false,
      "t": 176052.70200000113,
      "d": 361.84225000001607,
      "v": 118
    },
    {
      "midi": 61,
      "hit": false,
      "t": 176447.43900000115,
      "d": 230.26324999998906,
      "v": 119
    },
    {
      "midi": 64,
      "hit": false,
      "t": 176447.43900000115,
      "d": 625.0002499999828,
      "v": 108
    },
    {
      "midi": 69,
      "hit": false,
      "t": 176447.43900000115,
      "d": 855.2635000000009,
      "v": 114
    },
    {
      "midi": 61,
      "hit": false,
      "t": 176842.17600000114,
      "d": 625.0002500000119,
      "v": 122
    },
    {
      "midi": 64,
      "hit": false,
      "t": 177236.91300000114,
      "d": 1118.4215000000258,
      "v": 121
    },
    {
      "midi": 61,
      "hit": false,
      "t": 177631.65000000116,
      "d": 690.7897499999963,
      "v": 120
    },
    {
      "midi": 69,
      "hit": false,
      "t": 177829.01850000117,
      "d": 230.26324999998906,
      "v": 115
    },
    {
      "midi": 61,
      "hit": false,
      "t": 178421.12400000117,
      "d": 263.1579999999958,
      "v": 118
    },
    {
      "midi": 64,
      "hit": false,
      "t": 178421.12400000117,
      "d": 427.63175000000047,
      "v": 117
    },
    {
      "midi": 68,
      "hit": false,
      "t": 178421.12400000117,
      "d": 986.8424999999988,
      "v": 108
    },
    {
      "midi": 49,
      "hit": false,
      "t": 178421.12400000117,
      "d": 1414.4742499999993,
      "v": 117
    },
    {
      "midi": 61,
      "hit": false,
      "t": 178815.86100000117,
      "d": 690.7897499999963,
      "v": 120
    },
    {
      "midi": 64,
      "hit": false,
      "t": 179210.59800000116,
      "d": 361.84225000001607,
      "v": 120
    },
    {
      "midi": 61,
      "hit": false,
      "t": 179605.33500000119,
      "d": 427.63175000000047,
      "v": 123
    },
    {
      "midi": 64,
      "hit": false,
      "t": 179605.33500000119,
      "d": 822.3687499999942,
      "v": 121
    },
    {
      "midi": 68,
      "hit": false,
      "t": 179605.33500000119,
      "d": 1151.3162500000035,
      "v": 109
    },
    {
      "midi": 49,
      "hit": false,
      "t": 180000.07200000118,
      "d": 1546.0532499999972,
      "v": 123
    },
    {
      "midi": 61,
      "hit": false,
      "t": 180394.80900000117,
      "d": 888.1582500000077,
      "v": 112
    },
    {
      "midi": 64,
      "hit": false,
      "t": 180789.5460000012,
      "d": 493.42124999998487,
      "v": 116
    },
    {
      "midi": 68,
      "hit": false,
      "t": 181184.2830000012,
      "d": 197.3684999999823,
      "v": 113
    },
    {
      "midi": 57,
      "hit": false,
      "t": 181579.02000000118,
      "d": 263.1579999999958,
      "v": 121
    },
    {
      "midi": 62,
      "hit": false,
      "t": 181579.02000000118,
      "d": 657.8949999999895,
      "v": 123
    },
    {
      "midi": 66,
      "hit": false,
      "t": 181579.02000000118,
      "d": 855.2635000000009,
      "v": 121
    },
    {
      "midi": 50,
      "hit": false,
      "t": 181579.02000000118,
      "d": 1019.7372500000056,
      "v": 123
    },
    {
      "midi": 57,
      "hit": false,
      "t": 181973.75700000118,
      "d": 822.3687500000233,
      "v": 118
    },
    {
      "midi": 62,
      "hit": false,
      "t": 182368.49400000117,
      "d": 526.3160000000207,
      "v": 113
    },
    {
      "midi": 66,
      "hit": false,
      "t": 182565.86250000118,
      "d": 460.5265000000072,
      "v": 123
    },
    {
      "midi": 50,
      "hit": false,
      "t": 182763.2310000012,
      "d": 427.63175000000047,
      "v": 111
    },
    {
      "midi": 59,
      "hit": false,
      "t": 183157.9680000012,
      "d": 296.05275000000256,
      "v": 117
    },
    {
      "midi": 64,
      "hit": false,
      "t": 183157.9680000012,
      "d": 592.1055000000051,
      "v": 120
    },
    {
      "midi": 68,
      "hit": false,
      "t": 183157.9680000012,
      "d": 756.5792500000098,
      "v": 110
    },
    {
      "midi": 52,
      "hit": false,
      "t": 183157.9680000012,
      "d": 1513.1585000000487,
      "v": 116
    },
    {
      "midi": 59,
      "hit": false,
      "t": 183552.70500000118,
      "d": 657.8950000000477,
      "v": 114
    },
    {
      "midi": 64,
      "hit": false,
      "t": 183947.4420000012,
      "d": 657.8950000000186,
      "v": 122
    },
    {
      "midi": 68,
      "hit": false,
      "t": 184144.81050000121,
      "d": 493.42125000001397,
      "v": 121
    },
    {
      "midi": 59,
      "hit": false,
      "t": 184342.17900000123,
      "d": 296.05275000000256,
      "v": 116
    },
    {
      "midi": 57,
      "hit": false,
      "t": 184736.91600000125,
      "d": 197.3685000000114,
      "v": 111
    },
    {
      "midi": 61,
      "hit": false,
      "t": 184736.91600000125,
      "d": 625.0002500000119,
      "v": 116
    },
    {
      "midi": 64,
      "hit": false,
      "t": 184736.91600000125,
      "d": 690.7897500000254,
      "v": 119
    },
    {
      "midi": 45,
      "hit": false,
      "t": 184736.91600000125,
      "d": 1019.7372500000056,
      "v": 120
    },
    {
      "midi": 57,
      "hit": false,
      "t": 185131.65300000127,
      "d": 855.2635000000009,
      "v": 112
    },
    {
      "midi": 61,
      "hit": false,
      "t": 185526.39000000127,
      "d": 657.8950000000186,
      "v": 119
    },
    {
      "midi": 64,
      "hit": false,
      "t": 185526.39000000127,
      "d": 657.8950000000186,
      "v": 113
    },
    {
      "midi": 45,
      "hit": false,
      "t": 185921.12700000126,
      "d": 657.8950000000186,
      "v": 120
    },
    {
      "midi": 57,
      "hit": false,
      "t": 186118.49550000127,
      "d": 98.68425000002026,
      "v": 117
    },
    {
      "midi": 61,
      "hit": false,
      "t": 186315.86400000128,
      "d": 394.7369999999937,
      "v": 110
    },
    {
      "midi": 64,
      "hit": false,
      "t": 186315.86400000128,
      "d": 427.63175000000047,
      "v": 120
    },
    {
      "midi": 57,
      "hit": false,
      "t": 186315.86400000128,
      "d": 460.5265000000072,
      "v": 109
    },
    {
      "midi": 45,
      "hit": false,
      "t": 186710.60100000128,
      "d": 361.84225000001607,
      "v": 117
    },
    {
      "midi": 57,
      "hit": false,
      "t": 186907.9695000013,
      "d": 328.9475000000093,
      "v": 115
    },
    {
      "midi": 62,
      "hit": false,
      "t": 186907.9695000013,
      "d": 460.5265000000363,
      "v": 110
    },
    {
      "midi": 64,
      "hit": false,
      "t": 186907.9695000013,
      "d": 1315.7900000000664,
      "v": 110
    },
    {
      "midi": 45,
      "hit": false,
      "t": 187302.7065000013,
      "d": 230.26325000001816,
      "v": 120
    },
    {
      "midi": 57,
      "hit": false,
      "t": 187500.07500000132,
      "d": 361.84225000001607,
      "v": 109
    },
    {
      "midi": 49,
      "hit": false,
      "t": 187894.81200000134,
      "d": 1052.6320000000123,
      "v": 118
    },
    {
      "midi": 56,
      "hit": false,
      "t": 188289.54900000137,
      "d": 822.3687499999942,
      "v": 117
    },
    {
      "midi": 61,
      "hit": false,
      "t": 188684.28600000136,
      "d": 625.0002500000119,
      "v": 118
    },
    {
      "midi": 64,
      "hit": false,
      "t": 188684.28600000136,
      "d": 625.0002500000119,
      "v": 110
    },
    {
      "midi": 49,
      "hit": false,
      "t": 189079.02300000135,
      "d": 690.7897500000254,
      "v": 113
    },
    {
      "midi": 56,
      "hit": false,
      "t": 189276.39150000137,
      "d": 131.5789999999979,
      "v": 114
    },
    {
      "midi": 56,
      "hit": false,
      "t": 189473.76000000138,
      "d": 394.7369999999937,
      "v": 120
    },
    {
      "midi": 61,
      "hit": false,
      "t": 189473.76000000138,
      "d": 789.4739999999874,
      "v": 116
    },
    {
      "midi": 64,
      "hit": false,
      "t": 189473.76000000138,
      "d": 986.8424999999988,
      "v": 120
    },
    {
      "midi": 49,
      "hit": false,
      "t": 189868.49700000137,
      "d": 526.3159999999916,
      "v": 119
    },
    {
      "midi": 56,
      "hit": false,
      "t": 190263.23400000136,
      "d": 625.0002500000119,
      "v": 118
    },
    {
      "midi": 61,
      "hit": false,
      "t": 190460.60250000138,
      "d": 493.42125000001397,
      "v": 120
    },
    {
      "midi": 64,
      "hit": false,
      "t": 190657.9710000014,
      "d": 230.26324999998906,
      "v": 121
    },
    {
      "midi": 57,
      "hit": false,
      "t": 191052.70800000138,
      "d": 263.1579999999958,
      "v": 109
    },
    {
      "midi": 61,
      "hit": false,
      "t": 191052.70800000138,
      "d": 657.8949999999895,
      "v": 110
    },
    {
      "midi": 66,
      "hit": false,
      "t": 191052.70800000138,
      "d": 690.7897499999963,
      "v": 117
    },
    {
      "midi": 42,
      "hit": false,
      "t": 191052.70800000138,
      "d": 888.1582499999786,
      "v": 119
    },
    {
      "midi": 57,
      "hit": false,
      "t": 191447.44500000137,
      "d": 296.05275000000256,
      "v": 123
    },
    {
      "midi": 57,
      "hit": false,
      "t": 191842.18200000137,
      "d": 427.63175000000047,
      "v": 110
    },
    {
      "midi": 61,
      "hit": false,
      "t": 191842.18200000137,
      "d": 690.7897499999963,
      "v": 121
    },
    {
      "midi": 66,
      "hit": false,
      "t": 191842.18200000137,
      "d": 690.7897499999963,
      "v": 109
    },
    {
      "midi": 42,
      "hit": false,
      "t": 192236.91900000136,
      "d": 690.7897500000254,
      "v": 118
    },
    {
      "midi": 57,
      "hit": false,
      "t": 192434.28750000137,
      "d": 131.5789999999979,
      "v": 109
    },
    {
      "midi": 57,
      "hit": false,
      "t": 192631.65600000139,
      "d": 526.3159999999916,
      "v": 111
    },
    {
      "midi": 61,
      "hit": false,
      "t": 192631.65600000139,
      "d": 822.3687499999942,
      "v": 121
    },
    {
      "midi": 66,
      "hit": false,
      "t": 192631.65600000139,
      "d": 986.8424999999988,
      "v": 120
    },
    {
      "midi": 42,
      "hit": false,
      "t": 193026.39300000138,
      "d": 1151.3162500000617,
      "v": 113
    },
    {
      "midi": 57,
      "hit": false,
      "t": 193421.13000000137,
      "d": 657.8950000000477,
      "v": 121
    },
    {
      "midi": 61,
      "hit": false,
      "t": 193618.49850000138,
      "d": 263.1580000000249,
      "v": 110
    },
    {
      "midi": 66,
      "hit": false,
      "t": 193815.8670000014,
      "d": 296.05275000003166,
      "v": 110
    },
    {
      "midi": 57,
      "hit": false,
      "t": 194210.60400000145,
      "d": 164.47375000000466,
      "v": 121
    },
    {
      "midi": 62,
      "hit": false,
      "t": 194210.60400000145,
      "d": 657.8949999999895,
      "v": 114
    },
    {
      "midi": 66,
      "hit": false,
      "t": 194210.60400000145,
      "d": 690.7897499999963,
      "v": 121
    },
    {
      "midi": 50,
      "hit": false,
      "t": 194210.60400000145,
      "d": 1019.7372499999765,
      "v": 113
    },
    {
      "midi": 57,
      "hit": false,
      "t": 194605.34100000144,
      "d": 921.0529999999853,
      "v": 109
    },
    {
      "midi": 62,
      "hit": false,
      "t": 195000.07800000143,
      "d": 657.8949999999895,
      "v": 120
    },
    {
      "midi": 66,
      "hit": false,
      "t": 195000.07800000143,
      "d": 657.8949999999895,
      "v": 111
    },
    {
      "midi": 50,
      "hit": false,
      "t": 195394.81500000143,
      "d": 361.84224999998696,
      "v": 109
    },
    {
      "midi": 59,
      "hit": false,
      "t": 195789.55200000142,
      "d": 263.1579999999958,
      "v": 121
    },
    {
      "midi": 64,
      "hit": false,
      "t": 195789.55200000142,
      "d": 657.8949999999895,
      "v": 120
    },
    {
      "midi": 68,
      "hit": false,
      "t": 195789.55200000142,
      "d": 723.684500000003,
      "v": 116
    },
    {
      "midi": 52,
      "hit": false,
      "t": 195789.55200000142,
      "d": 921.0530000000144,
      "v": 112
    },
    {
      "midi": 59,
      "hit": false,
      "t": 196184.28900000142,
      "d": 361.84225000001607,
      "v": 115
    },
    {
      "midi": 64,
      "hit": false,
      "t": 196579.02600000144,
      "d": 460.5265000000072,
      "v": 112
    },
    {
      "midi": 59,
      "hit": false,
      "t": 196579.02600000144,
      "d": 756.5792500000098,
      "v": 114
    },
    {
      "midi": 68,
      "hit": false,
      "t": 196579.02600000144,
      "d": 822.3687500000233,
      "v": 120
    },
    {
      "midi": 52,
      "hit": false,
      "t": 196973.76300000143,
      "d": 394.7370000000228,
      "v": 110
    },
    {
      "midi": 61,
      "hit": false,
      "t": 197368.50000000146,
      "d": 296.05275000000256,
      "v": 113
    },
    {
      "midi": 64,
      "hit": false,
      "t": 197368.50000000146,
      "d": 625.0002499999828,
      "v": 120
    },
    {
      "midi": 69,
      "hit": false,
      "t": 197368.50000000146,
      "d": 756.5792499999807,
      "v": 118
    },
    {
      "midi": 61,
      "hit": false,
      "t": 197763.23700000145,
      "d": 723.684500000003,
      "v": 120
    },
    {
      "midi": 64,
      "hit": false,
      "t": 198157.97400000144,
      "d": 361.84225000001607,
      "v": 119
    },
    {
      "midi": 61,
      "hit": false,
      "t": 198552.71100000147,
      "d": 230.26324999998906,
      "v": 108
    },
    {
      "midi": 64,
      "hit": false,
      "t": 198552.71100000147,
      "d": 625.0002499999828,
      "v": 121
    },
    {
      "midi": 69,
      "hit": false,
      "t": 198552.71100000147,
      "d": 855.2635000000009,
      "v": 119
    },
    {
      "midi": 61,
      "hit": false,
      "t": 198947.44800000146,
      "d": 625.0002500000119,
      "v": 113
    },
    {
      "midi": 64,
      "hit": false,
      "t": 199342.18500000145,
      "d": 1118.4215000000258,
      "v": 112
    },
    {
      "midi": 61,
      "hit": false,
      "t": 199736.92200000148,
      "d": 690.7897499999963,
      "v": 116
    },
    {
      "midi": 69,
      "hit": false,
      "t": 199934.2905000015,
      "d": 230.26324999998906,
      "v": 120
    },
    {
      "midi": 57,
      "hit": false,
      "t": 200526.3960000015,
      "d": 625.0002500000119,
      "v": 114
    },
    {
      "midi": 61,
      "hit": false,
      "t": 200526.3960000015,
      "d": 789.4740000000165,
      "v": 118
    },
    {
      "midi": 45,
      "hit": false,
      "t": 200526.3960000015,
      "d": 888.1582500000077,
      "v": 122
    },
    {
      "midi": 64,
      "hit": false,
      "t": 200526.3960000015,
      "d": 986.8424999999988,
      "v": 119
    },
    {
      "midi": 57,
      "hit": false,
      "t": 201315.8700000015,
      "d": 690.7897499999963,
      "v": 111
    },
    {
      "midi": 61,
      "hit": false,
      "t": 201513.2385000015,
      "d": 526.3160000000207,
      "v": 113
    },
    {
      "midi": 64,
      "hit": false,
      "t": 201710.6070000015,
      "d": 328.9475000000093,
      "v": 114
    },
    {
      "midi": 61,
      "hit": false,
      "t": 202105.34400000153,
      "d": 263.1579999999958,
      "v": 122
    },
    {
      "midi": 64,
      "hit": false,
      "t": 202105.34400000153,
      "d": 427.63175000000047,
      "v": 119
    },
    {
      "midi": 68,
      "hit": false,
      "t": 202105.34400000153,
      "d": 986.8424999999988,
      "v": 113
    },
    {
      "midi": 49,
      "hit": false,
      "t": 202105.34400000153,
      "d": 1414.4742499999993,
      "v": 110
    },
    {
      "midi": 61,
      "hit": false,
      "t": 202500.08100000152,
      "d": 690.7897499999963,
      "v": 121
    },
    {
      "midi": 64,
      "hit": false,
      "t": 202894.8180000015,
      "d": 361.84225000001607,
      "v": 119
    },
    {
      "midi": 61,
      "hit": false,
      "t": 203289.55500000154,
      "d": 460.5265000000072,
      "v": 114
    },
    {
      "midi": 64,
      "hit": false,
      "t": 203289.55500000154,
      "d": 822.3687500000233,
      "v": 113
    },
    {
      "midi": 68,
      "hit": false,
      "t": 203289.55500000154,
      "d": 1184.2110000000102,
      "v": 112
    },
    {
      "midi": 49,
      "hit": false,
      "t": 203684.29200000153,
      "d": 1546.0532499999972,
      "v": 116
    },
    {
      "midi": 61,
      "hit": false,
      "t": 204079.02900000155,
      "d": 888.1582499999786,
      "v": 116
    },
    {
      "midi": 64,
      "hit": false,
      "t": 204473.76600000155,
      "d": 493.42124999998487,
      "v": 115
    },
    {
      "midi": 68,
      "hit": false,
      "t": 204868.50300000154,
      "d": 197.3684999999823,
      "v": 123
    },
    {
      "midi": 57,
      "hit": false,
      "t": 205263.24000000153,
      "d": 263.1579999999958,
      "v": 123
    },
    {
      "midi": 62,
      "hit": false,
      "t": 205263.24000000153,
      "d": 625.0002499999828,
      "v": 120
    },
    {
      "midi": 66,
      "hit": false,
      "t": 205263.24000000153,
      "d": 855.2635000000009,
      "v": 123
    },
    {
      "midi": 50,
      "hit": false,
      "t": 205263.24000000153,
      "d": 1019.7372500000056,
      "v": 118
    },
    {
      "midi": 57,
      "hit": false,
      "t": 205657.97700000153,
      "d": 822.3687500000233,
      "v": 123
    },
    {
      "midi": 62,
      "hit": false,
      "t": 206052.71400000152,
      "d": 526.3160000000207,
      "v": 115
    },
    {
      "midi": 66,
      "hit": false,
      "t": 206250.08250000153,
      "d": 460.5265000000072,
      "v": 121
    },
    {
      "midi": 50,
      "hit": false,
      "t": 206447.45100000154,
      "d": 427.63175000000047,
      "v": 112
    },
    {
      "midi": 59,
      "hit": false,
      "t": 206842.18800000154,
      "d": 296.05275000000256,
      "v": 114
    },
    {
      "midi": 64,
      "hit": false,
      "t": 206842.18800000154,
      "d": 592.1055000000051,
      "v": 108
    },
    {
      "midi": 68,
      "hit": false,
      "t": 206842.18800000154,
      "d": 756.5792500000098,
      "v": 108
    },
    {
      "midi": 52,
      "hit": false,
      "t": 206842.18800000154,
      "d": 1513.1585000000487,
      "v": 117
    },
    {
      "midi": 59,
      "hit": false,
      "t": 207236.92500000153,
      "d": 657.8950000000477,
      "v": 123
    },
    {
      "midi": 64,
      "hit": false,
      "t": 207631.66200000155,
      "d": 657.8950000000186,
      "v": 112
    },
    {
      "midi": 68,
      "hit": false,
      "t": 207829.03050000157,
      "d": 493.42125000001397,
      "v": 114
    },
    {
      "midi": 59,
      "hit": false,
      "t": 208026.39900000158,
      "d": 296.05275000000256,
      "v": 109
    },
    {
      "midi": 57,
      "hit": false,
      "t": 208421.1360000016,
      "d": 197.3685000000114,
      "v": 109
    },
    {
      "midi": 61,
      "hit": false,
      "t": 208421.1360000016,
      "d": 625.0002500000119,
      "v": 109
    },
    {
      "midi": 64,
      "hit": false,
      "t": 208421.1360000016,
      "d": 690.7897500000254,
      "v": 115
    },
    {
      "midi": 45,
      "hit": false,
      "t": 208421.1360000016,
      "d": 1019.7372500000056,
      "v": 109
    },
    {
      "midi": 57,
      "hit": false,
      "t": 208815.87300000162,
      "d": 855.2635000000009,
      "v": 108
    },
    {
      "midi": 61,
      "hit": false,
      "t": 209210.61000000162,
      "d": 657.8950000000186,
      "v": 118
    },
    {
      "midi": 64,
      "hit": false,
      "t": 209210.61000000162,
      "d": 657.8950000000186,
      "v": 118
    },
    {
      "midi": 45,
      "hit": false,
      "t": 209605.3470000016,
      "d": 657.8950000000186,
      "v": 121
    },
    {
      "midi": 57,
      "hit": false,
      "t": 209802.71550000162,
      "d": 98.68425000002026,
      "v": 119
    },
    {
      "midi": 61,
      "hit": false,
      "t": 210000.08400000163,
      "d": 394.7369999999937,
      "v": 109
    },
    {
      "midi": 64,
      "hit": false,
      "t": 210000.08400000163,
      "d": 427.63175000000047,
      "v": 111
    },
    {
      "midi": 57,
      "hit": false,
      "t": 210000.08400000163,
      "d": 460.5265000000072,
      "v": 115
    },
    {
      "midi": 45,
      "hit": false,
      "t": 210394.82100000163,
      "d": 361.84225000001607,
      "v": 109
    },
    {
      "midi": 57,
      "hit": false,
      "t": 210592.18950000164,
      "d": 328.9475000000093,
      "v": 112
    },
    {
      "midi": 62,
      "hit": false,
      "t": 210592.18950000164,
      "d": 460.5265000000363,
      "v": 111
    },
    {
      "midi": 64,
      "hit": false,
      "t": 210592.18950000164,
      "d": 1315.7900000000664,
      "v": 118
    },
    {
      "midi": 45,
      "hit": false,
      "t": 210986.92650000166,
      "d": 230.26325000001816,
      "v": 108
    },
    {
      "midi": 57,
      "hit": false,
      "t": 211184.29500000167,
      "d": 361.84225000001607,
      "v": 116
    },
    {
      "midi": 49,
      "hit": false,
      "t": 211579.0320000017,
      "d": 1052.6320000000123,
      "v": 122
    },
    {
      "midi": 56,
      "hit": false,
      "t": 211973.76900000172,
      "d": 822.3687499999942,
      "v": 114
    },
    {
      "midi": 64,
      "hit": false,
      "t": 212368.5060000017,
      "d": 625.0002500000119,
      "v": 123
    },
    {
      "midi": 61,
      "hit": false,
      "t": 212368.5060000017,
      "d": 657.8950000000186,
      "v": 122
    },
    {
      "midi": 49,
      "hit": false,
      "t": 212763.2430000017,
      "d": 690.7897500000545,
      "v": 108
    },
    {
      "midi": 56,
      "hit": false,
      "t": 212960.61150000172,
      "d": 131.579000000027,
      "v": 120
    },
    {
      "midi": 56,
      "hit": false,
      "t": 213157.98000000176,
      "d": 394.7369999999937,
      "v": 115
    },
    {
      "midi": 61,
      "hit": false,
      "t": 213157.98000000176,
      "d": 789.4739999999874,
      "v": 111
    },
    {
      "midi": 64,
      "hit": false,
      "t": 213157.98000000176,
      "d": 986.8424999999988,
      "v": 109
    },
    {
      "midi": 49,
      "hit": false,
      "t": 213552.71700000175,
      "d": 526.3159999999916,
      "v": 108
    },
    {
      "midi": 56,
      "hit": false,
      "t": 213947.45400000174,
      "d": 625.0002500000119,
      "v": 121
    },
    {
      "midi": 61,
      "hit": false,
      "t": 214144.82250000176,
      "d": 493.42125000001397,
      "v": 108
    },
    {
      "midi": 64,
      "hit": false,
      "t": 214342.19100000177,
      "d": 230.26324999998906,
      "v": 113
    },
    {
      "midi": 57,
      "hit": false,
      "t": 214736.92800000176,
      "d": 263.1579999999958,
      "v": 113
    },
    {
      "midi": 61,
      "hit": false,
      "t": 214736.92800000176,
      "d": 657.8949999999895,
      "v": 120
    },
    {
      "midi": 66,
      "hit": false,
      "t": 214736.92800000176,
      "d": 690.7897499999963,
      "v": 120
    },
    {
      "midi": 42,
      "hit": false,
      "t": 214736.92800000176,
      "d": 888.1582499999786,
      "v": 113
    },
    {
      "midi": 57,
      "hit": false,
      "t": 215131.66500000175,
      "d": 296.05275000000256,
      "v": 116
    },
    {
      "midi": 57,
      "hit": false,
      "t": 215526.40200000175,
      "d": 427.63175000000047,
      "v": 120
    },
    {
      "midi": 61,
      "hit": false,
      "t": 215526.40200000175,
      "d": 690.7897499999963,
      "v": 121
    },
    {
      "midi": 66,
      "hit": false,
      "t": 215526.40200000175,
      "d": 690.7897499999963,
      "v": 111
    },
    {
      "midi": 42,
      "hit": false,
      "t": 215921.13900000174,
      "d": 690.7897500000254,
      "v": 113
    },
    {
      "midi": 57,
      "hit": false,
      "t": 216118.50750000175,
      "d": 131.5789999999979,
      "v": 115
    },
    {
      "midi": 57,
      "hit": false,
      "t": 216315.87600000176,
      "d": 526.3159999999916,
      "v": 115
    },
    {
      "midi": 61,
      "hit": false,
      "t": 216315.87600000176,
      "d": 822.3687499999942,
      "v": 114
    },
    {
      "midi": 66,
      "hit": false,
      "t": 216315.87600000176,
      "d": 986.8424999999988,
      "v": 116
    },
    {
      "midi": 42,
      "hit": false,
      "t": 216710.61300000176,
      "d": 1151.3162500000617,
      "v": 119
    },
    {
      "midi": 57,
      "hit": false,
      "t": 217105.35000000175,
      "d": 657.8950000000477,
      "v": 117
    },
    {
      "midi": 61,
      "hit": false,
      "t": 217302.71850000176,
      "d": 263.1580000000249,
      "v": 111
    },
    {
      "midi": 66,
      "hit": false,
      "t": 217500.08700000177,
      "d": 296.05275000003166,
      "v": 120
    },
    {
      "midi": 57,
      "hit": false,
      "t": 217894.82400000183,
      "d": 164.47375000000466,
      "v": 116
    },
    {
      "midi": 62,
      "hit": false,
      "t": 217894.82400000183,
      "d": 690.7897499999963,
      "v": 117
    },
    {
      "midi": 66,
      "hit": false,
      "t": 217894.82400000183,
      "d": 690.7897499999963,
      "v": 123
    },
    {
      "midi": 50,
      "hit": false,
      "t": 217894.82400000183,
      "d": 1019.7372499999765,
      "v": 111
    },
    {
      "midi": 57,
      "hit": false,
      "t": 218289.56100000182,
      "d": 921.0529999999853,
      "v": 118
    },
    {
      "midi": 62,
      "hit": false,
      "t": 218684.2980000018,
      "d": 657.8949999999895,
      "v": 117
    },
    {
      "midi": 66,
      "hit": false,
      "t": 218684.2980000018,
      "d": 657.8949999999895,
      "v": 112
    },
    {
      "midi": 50,
      "hit": false,
      "t": 219079.0350000018,
      "d": 361.84224999998696,
      "v": 113
    },
    {
      "midi": 59,
      "hit": false,
      "t": 219473.7720000018,
      "d": 263.1579999999958,
      "v": 108
    },
    {
      "midi": 64,
      "hit": false,
      "t": 219473.7720000018,
      "d": 657.8949999999895,
      "v": 109
    },
    {
      "midi": 68,
      "hit": false,
      "t": 219473.7720000018,
      "d": 723.684500000003,
      "v": 111
    },
    {
      "midi": 52,
      "hit": false,
      "t": 219473.7720000018,
      "d": 921.0530000000144,
      "v": 120
    },
    {
      "midi": 59,
      "hit": false,
      "t": 219868.5090000018,
      "d": 361.84225000001607,
      "v": 111
    },
    {
      "midi": 64,
      "hit": false,
      "t": 220263.24600000182,
      "d": 460.5265000000072,
      "v": 110
    },
    {
      "midi": 59,
      "hit": false,
      "t": 220263.24600000182,
      "d": 756.5792500000098,
      "v": 111
    },
    {
      "midi": 68,
      "hit": false,
      "t": 220263.24600000182,
      "d": 822.3687500000233,
      "v": 109
    },
    {
      "midi": 52,
      "hit": false,
      "t": 220657.9830000018,
      "d": 394.7370000000228,
      "v": 120
    },
    {
      "midi": 61,
      "hit": false,
      "t": 221052.72000000183,
      "d": 296.05275000000256,
      "v": 117
    },
    {
      "midi": 64,
      "hit": false,
      "t": 221052.72000000183,
      "d": 592.1055000000051,
      "v": 117
    },
    {
      "midi": 69,
      "hit": false,
      "t": 221052.72000000183,
      "d": 756.5792500000098,
      "v": 109
    },
    {
      "midi": 61,
      "hit": false,
      "t": 221447.45700000183,
      "d": 723.6845000000321,
      "v": 116
    },
    {
      "midi": 64,
      "hit": false,
      "t": 221842.19400000185,
      "d": 361.84225000001607,
      "v": 118
    },
    {
      "midi": 61,
      "hit": false,
      "t": 222236.93100000187,
      "d": 230.26324999998906,
      "v": 118
    },
    {
      "midi": 64,
      "hit": false,
      "t": 222236.93100000187,
      "d": 625.0002499999828,
      "v": 118
    },
    {
      "midi": 69,
      "hit": false,
      "t": 222236.93100000187,
      "d": 855.2635000000009,
      "v": 117
    },
    {
      "midi": 61,
      "hit": false,
      "t": 222631.66800000187,
      "d": 625.0002500000119,
      "v": 120
    },
    {
      "midi": 64,
      "hit": false,
      "t": 223026.40500000186,
      "d": 1118.4215000000258,
      "v": 110
    },
    {
      "midi": 61,
      "hit": false,
      "t": 223421.14200000188,
      "d": 690.7897499999963,
      "v": 114
    },
    {
      "midi": 69,
      "hit": false,
      "t": 223618.5105000019,
      "d": 230.26324999998906,
      "v": 116
    },
    {
      "midi": 57,
      "hit": false,
      "t": 224210.6160000019,
      "d": 625.0002500000119,
      "v": 117
    },
    {
      "midi": 61,
      "hit": false,
      "t": 224210.6160000019,
      "d": 789.4740000000165,
      "v": 119
    },
    {
      "midi": 45,
      "hit": false,
      "t": 224210.6160000019,
      "d": 888.1582500000077,
      "v": 114
    },
    {
      "midi": 64,
      "hit": false,
      "t": 224210.6160000019,
      "d": 986.8424999999988,
      "v": 113
    },
    {
      "midi": 57,
      "hit": false,
      "t": 225000.09000000192,
      "d": 690.7897499999963,
      "v": 111
    },
    {
      "midi": 61,
      "hit": false,
      "t": 225197.4585000019,
      "d": 526.3160000000207,
      "v": 120
    },
    {
      "midi": 64,
      "hit": false,
      "t": 225394.8270000019,
      "d": 328.9475000000093,
      "v": 123
    },
    {
      "midi": 61,
      "hit": false,
      "t": 225789.56400000193,
      "d": 263.1579999999958,
      "v": 122
    },
    {
      "midi": 64,
      "hit": false,
      "t": 225789.56400000193,
      "d": 427.63175000000047,
      "v": 113
    },
    {
      "midi": 68,
      "hit": false,
      "t": 225789.56400000193,
      "d": 986.8424999999988,
      "v": 120
    },
    {
      "midi": 49,
      "hit": false,
      "t": 225789.56400000193,
      "d": 1414.4742499999993,
      "v": 118
    },
    {
      "midi": 61,
      "hit": false,
      "t": 226184.30100000193,
      "d": 690.7897499999963,
      "v": 122
    },
    {
      "midi": 64,
      "hit": false,
      "t": 226579.03800000192,
      "d": 361.84225000001607,
      "v": 112
    },
    {
      "midi": 61,
      "hit": false,
      "t": 226973.77500000194,
      "d": 427.63175000000047,
      "v": 111
    },
    {
      "midi": 64,
      "hit": false,
      "t": 226973.77500000194,
      "d": 822.3687499999942,
      "v": 112
    },
    {
      "midi": 68,
      "hit": false,
      "t": 226973.77500000194,
      "d": 1151.3162500000035,
      "v": 109
    },
    {
      "midi": 49,
      "hit": false,
      "t": 227368.51200000194,
      "d": 1546.0532499999972,
      "v": 114
    },
    {
      "midi": 61,
      "hit": false,
      "t": 227763.24900000193,
      "d": 888.1582500000077,
      "v": 108
    },
    {
      "midi": 64,
      "hit": false,
      "t": 228157.98600000195,
      "d": 493.42124999998487,
      "v": 114
    },
    {
      "midi": 68,
      "hit": false,
      "t": 228552.72300000195,
      "d": 197.3684999999823,
      "v": 119
    },
    {
      "midi": 57,
      "hit": false,
      "t": 228947.46000000194,
      "d": 263.1579999999958,
      "v": 111
    },
    {
      "midi": 62,
      "hit": false,
      "t": 228947.46000000194,
      "d": 625.0002499999828,
      "v": 111
    },
    {
      "midi": 66,
      "hit": false,
      "t": 228947.46000000194,
      "d": 855.2635000000009,
      "v": 117
    },
    {
      "midi": 50,
      "hit": false,
      "t": 228947.46000000194,
      "d": 1019.7372500000056,
      "v": 120
    },
    {
      "midi": 57,
      "hit": false,
      "t": 229342.19700000194,
      "d": 822.3687500000233,
      "v": 119
    },
    {
      "midi": 62,
      "hit": false,
      "t": 229736.93400000193,
      "d": 526.3160000000207,
      "v": 112
    },
    {
      "midi": 66,
      "hit": false,
      "t": 229934.30250000194,
      "d": 460.5265000000072,
      "v": 115
    },
    {
      "midi": 50,
      "hit": false,
      "t": 230131.67100000195,
      "d": 427.63175000000047,
      "v": 113
    },
    {
      "midi": 59,
      "hit": false,
      "t": 230526.40800000195,
      "d": 296.05275000000256,
      "v": 120
    },
    {
      "midi": 64,
      "hit": false,
      "t": 230526.40800000195,
      "d": 592.1055000000051,
      "v": 110
    },
    {
      "midi": 68,
      "hit": false,
      "t": 230526.40800000195,
      "d": 756.5792500000098,
      "v": 109
    },
    {
      "midi": 52,
      "hit": false,
      "t": 230526.40800000195,
      "d": 1513.1585000000487,
      "v": 121
    },
    {
      "midi": 59,
      "hit": false,
      "t": 230921.14500000194,
      "d": 657.8950000000477,
      "v": 115
    },
    {
      "midi": 64,
      "hit": false,
      "t": 231315.88200000196,
      "d": 657.8950000000186,
      "v": 117
    },
    {
      "midi": 68,
      "hit": false,
      "t": 231513.25050000197,
      "d": 493.42125000001397,
      "v": 118
    },
    {
      "midi": 59,
      "hit": false,
      "t": 231710.61900000199,
      "d": 296.05275000000256,
      "v": 111
    },
    {
      "midi": 57,
      "hit": false,
      "t": 232105.356000002,
      "d": 197.3685000000114,
      "v": 120
    },
    {
      "midi": 61,
      "hit": false,
      "t": 232105.356000002,
      "d": 625.0002500000119,
      "v": 112
    },
    {
      "midi": 64,
      "hit": false,
      "t": 232105.356000002,
      "d": 690.7897500000254,
      "v": 113
    },
    {
      "midi": 45,
      "hit": false,
      "t": 232105.356000002,
      "d": 1019.7372500000056,
      "v": 115
    },
    {
      "midi": 57,
      "hit": false,
      "t": 232500.09300000203,
      "d": 855.2635000000009,
      "v": 115
    },
    {
      "midi": 61,
      "hit": false,
      "t": 232894.83000000202,
      "d": 657.8950000000186,
      "v": 111
    },
    {
      "midi": 64,
      "hit": false,
      "t": 232894.83000000202,
      "d": 657.8950000000186,
      "v": 120
    },
    {
      "midi": 45,
      "hit": false,
      "t": 233289.56700000202,
      "d": 657.8950000000477,
      "v": 120
    },
    {
      "midi": 57,
      "hit": false,
      "t": 233486.93550000203,
      "d": 131.579000000027,
      "v": 120
    },
    {
      "midi": 61,
      "hit": false,
      "t": 233684.30400000207,
      "d": 394.7369999999937,
      "v": 116
    },
    {
      "midi": 64,
      "hit": false,
      "t": 233684.30400000207,
      "d": 427.63175000000047,
      "v": 115
    },
    {
      "midi": 57,
      "hit": false,
      "t": 233684.30400000207,
      "d": 460.5265000000072,
      "v": 118
    },
    {
      "midi": 45,
      "hit": false,
      "t": 234079.04100000206,
      "d": 361.84225000001607,
      "v": 119
    },
    {
      "midi": 57,
      "hit": false,
      "t": 234276.40950000208,
      "d": 328.9475000000093,
      "v": 116
    },
    {
      "midi": 62,
      "hit": false,
      "t": 234276.40950000208,
      "d": 460.5265000000363,
      "v": 109
    },
    {
      "midi": 64,
      "hit": false,
      "t": 234276.40950000208,
      "d": 1315.7900000000664,
      "v": 123
    },
    {
      "midi": 45,
      "hit": false,
      "t": 234671.1465000021,
      "d": 230.26325000001816,
      "v": 112
    },
    {
      "midi": 57,
      "hit": false,
      "t": 234868.5150000021,
      "d": 361.84225000001607,
      "v": 123
    },
    {
      "midi": 49,
      "hit": false,
      "t": 235263.25200000213,
      "d": 1052.6320000000414,
      "v": 114
    },
    {
      "midi": 56,
      "hit": false,
      "t": 235657.98900000216,
      "d": 822.3687500000524,
      "v": 108
    },
    {
      "midi": 64,
      "hit": false,
      "t": 236052.72600000218,
      "d": 625.000250000041,
      "v": 117
    },
    {
      "midi": 61,
      "hit": false,
      "t": 236052.72600000218,
      "d": 657.8950000000477,
      "v": 111
    },
    {
      "midi": 49,
      "hit": false,
      "t": 236447.4630000022,
      "d": 690.7897500000545,
      "v": 123
    },
    {
      "midi": 56,
      "hit": false,
      "t": 236644.8315000022,
      "d": 131.579000000027,
      "v": 113
    },
    {
      "midi": 56,
      "hit": false,
      "t": 236842.20000000225,
      "d": 394.7370000000228,
      "v": 109
    },
    {
      "midi": 61,
      "hit": false,
      "t": 236842.20000000225,
      "d": 789.4740000000165,
      "v": 119
    },
    {
      "midi": 64,
      "hit": false,
      "t": 236842.20000000225,
      "d": 986.842500000057,
      "v": 119
    },
    {
      "midi": 49,
      "hit": false,
      "t": 237236.93700000228,
      "d": 526.3160000000207,
      "v": 113
    },
    {
      "midi": 56,
      "hit": false,
      "t": 237631.67400000227,
      "d": 625.0002500000992,
      "v": 114
    },
    {
      "midi": 61,
      "hit": false,
      "t": 237829.0425000023,
      "d": 493.4212500000722,
      "v": 109
    },
    {
      "midi": 64,
      "hit": false,
      "t": 238026.41100000232,
      "d": 230.26325000004726,
      "v": 108
    },
    {
      "midi": 57,
      "hit": false,
      "t": 238421.14800000237,
      "d": 263.1580000000249,
      "v": 108
    },
    {
      "midi": 61,
      "hit": false,
      "t": 238421.14800000237,
      "d": 657.8950000000477,
      "v": 108
    },
    {
      "midi": 66,
      "hit": false,
      "t": 238421.14800000237,
      "d": 690.7897500000545,
      "v": 116
    },
    {
      "midi": 42,
      "hit": false,
      "t": 238421.14800000237,
      "d": 888.1582500000659,
      "v": 123
    },
    {
      "midi": 57,
      "hit": false,
      "t": 238815.8850000024,
      "d": 296.05275000003166,
      "v": 108
    },
    {
      "midi": 57,
      "hit": false,
      "t": 239210.62200000242,
      "d": 427.63175000002957,
      "v": 109
    },
    {
      "midi": 61,
      "hit": false,
      "t": 239210.62200000242,
      "d": 690.7897500000254,
      "v": 117
    },
    {
      "midi": 66,
      "hit": false,
      "t": 239210.62200000242,
      "d": 690.7897500000254,
      "v": 113
    },
    {
      "midi": 42,
      "hit": false,
      "t": 239605.35900000244,
      "d": 690.7897500000254,
      "v": 120
    },
    {
      "midi": 57,
      "hit": false,
      "t": 239802.72750000245,
      "d": 131.5789999999979,
      "v": 122
    },
    {
      "midi": 57,
      "hit": false,
      "t": 240000.09600000246,
      "d": 526.3160000000207,
      "v": 114
    },
    {
      "midi": 61,
      "hit": false,
      "t": 240000.09600000246,
      "d": 822.3687500000233,
      "v": 108
    },
    {
      "midi": 66,
      "hit": false,
      "t": 240000.09600000246,
      "d": 986.8425000000279,
      "v": 109
    },
    {
      "midi": 42,
      "hit": false,
      "t": 240394.8330000025,
      "d": 1151.3162500000617,
      "v": 113
    },
    {
      "midi": 57,
      "hit": false,
      "t": 240789.57000000248,
      "d": 657.8950000000477,
      "v": 120
    },
    {
      "midi": 61,
      "hit": false,
      "t": 240986.9385000025,
      "d": 263.1580000000249,
      "v": 123
    },
    {
      "midi": 66,
      "hit": false,
      "t": 241184.3070000025,
      "d": 296.05275000003166,
      "v": 123
    },
    {
      "midi": 57,
      "hit": false,
      "t": 241579.04400000256,
      "d": 164.47375000000466,
      "v": 113
    },
    {
      "midi": 62,
      "hit": false,
      "t": 241579.04400000256,
      "d": 690.7897500000254,
      "v": 110
    },
    {
      "midi": 66,
      "hit": false,
      "t": 241579.04400000256,
      "d": 690.7897500000254,
      "v": 115
    },
    {
      "midi": 50,
      "hit": false,
      "t": 241579.04400000256,
      "d": 1019.7372500000347,
      "v": 115
    },
    {
      "midi": 57,
      "hit": false,
      "t": 241973.78100000258,
      "d": 921.0530000000144,
      "v": 112
    },
    {
      "midi": 62,
      "hit": false,
      "t": 242368.51800000257,
      "d": 657.8950000000477,
      "v": 109
    },
    {
      "midi": 66,
      "hit": false,
      "t": 242368.51800000257,
      "d": 657.8950000000477,
      "v": 108
    },
    {
      "midi": 50,
      "hit": false,
      "t": 242763.2550000026,
      "d": 361.84225000001607,
      "v": 120
    },
    {
      "midi": 59,
      "hit": false,
      "t": 243157.99200000262,
      "d": 263.1579999999958,
      "v": 117
    },
    {
      "midi": 64,
      "hit": false,
      "t": 243157.99200000262,
      "d": 657.8950000000186,
      "v": 111
    },
    {
      "midi": 68,
      "hit": false,
      "t": 243157.99200000262,
      "d": 723.6845000000321,
      "v": 110
    },
    {
      "midi": 52,
      "hit": false,
      "t": 243157.99200000262,
      "d": 921.0530000000435,
      "v": 113
    },
    {
      "midi": 59,
      "hit": false,
      "t": 243552.72900000264,
      "d": 361.84225000001607,
      "v": 118
    },
    {
      "midi": 64,
      "hit": false,
      "t": 243947.46600000266,
      "d": 460.5265000000072,
      "v": 111
    },
    {
      "midi": 59,
      "hit": false,
      "t": 243947.46600000266,
      "d": 756.5792500000098,
      "v": 115
    },
    {
      "midi": 68,
      "hit": false,
      "t": 243947.46600000266,
      "d": 789.4740000000165,
      "v": 112
    },
    {
      "midi": 52,
      "hit": false,
      "t": 244342.20300000266,
      "d": 394.7370000000228,
      "v": 112
    }
  ]
}