{
  "jsonPath": "Animes/Yu-Gi-Oh! MIDI Collection/kawaita-sakebi.json",
  "path": "Animes\\Yu-Gi-Oh! MIDI Collection\\Kawaita Sakebi.mid",
  "name": "Kawaita Sakebi",
  "difficulty": "Advanced",
  "bpm": 116.00008506672904,
  "notes": [
    {
      "midi": 62,
      "hit": false,
      "t": 0,
      "d": 206.89640000000003,
      "v": 100
    },
    {
      "midi": 54,
      "hit": false,
      "t": 258.6205,
      "d": 206.89640000000003,
      "v": 100
    },
    {
      "midi": 49,
      "hit": false,
      "t": 258.6205,
      "d": 206.89640000000003,
      "v": 100
    },
    {
      "midi": 50,
      "hit": false,
      "t": 258.6205,
      "d": 206.89640000000003,
      "v": 100
    },
    {
      "midi": 54,
      "hit": false,
      "t": 258.6205,
      "d": 206.89640000000003,
      "v": 100
    },
    {
      "midi": 57,
      "hit": false,
      "t": 258.6205,
      "d": 206.89640000000003,
      "v": 100
    },
    {
      "midi": 62,
      "hit": false,
      "t": 258.62050000000005,
      "d": 827.5856000000001,
      "v": 100
    },
    {
      "midi": 54,
      "hit": false,
      "t": 517.241,
      "d": 206.89640000000009,
      "v": 100
    },
    {
      "midi": 50,
      "hit": false,
      "t": 517.241,
      "d": 206.89640000000009,
      "v": 100
    },
    {
      "midi": 54,
      "hit": false,
      "t": 517.241,
      "d": 206.89640000000009,
      "v": 100
    },
    {
      "midi": 57,
      "hit": false,
      "t": 517.241,
      "d": 206.89640000000009,
      "v": 100
    },
    {
      "midi": 40,
      "hit": false,
      "t": 775.8615000000001,
      "d": 206.89639999999997,
      "v": 100
    },
    {
      "midi": 50,
      "hit": false,
      "t": 775.8615000000001,
      "d": 206.89639999999997,
      "v": 100
    },
    {
      "midi": 54,
      "hit": false,
      "t": 775.8615000000001,
      "d": 206.89639999999997,
      "v": 100
    },
    {
      "midi": 57,
      "hit": false,
      "t": 775.8615000000001,
      "d": 206.89639999999997,
      "v": 100
    },
    {
      "midi": 54,
      "hit": false,
      "t": 1034.482,
      "d": 206.89640000000009,
      "v": 100
    },
    {
      "midi": 50,
      "hit": false,
      "t": 1034.482,
      "d": 206.89640000000009,
      "v": 100
    },
    {
      "midi": 54,
      "hit": false,
      "t": 1034.482,
      "d": 206.89640000000009,
      "v": 100
    },
    {
      "midi": 57,
      "hit": false,
      "t": 1034.482,
      "d": 206.89640000000009,
      "v": 100
    },
    {
      "midi": 54,
      "hit": false,
      "t": 1293.1025,
      "d": 206.89640000000009,
      "v": 100
    },
    {
      "midi": 57,
      "hit": false,
      "t": 1293.1025,
      "d": 206.89640000000009,
      "v": 100
    },
    {
      "midi": 61,
      "hit": false,
      "t": 1293.1025,
      "d": 206.89640000000009,
      "v": 100
    },
    {
      "midi": 64,
      "hit": false,
      "t": 1293.1025,
      "d": 206.89640000000009,
      "v": 100
    },
    {
      "midi": 69,
      "hit": false,
      "t": 1293.1025000000002,
      "d": 827.5856000000001,
      "v": 100
    },
    {
      "midi": 54,
      "hit": false,
      "t": 1551.723,
      "d": 206.89640000000009,
      "v": 100
    },
    {
      "midi": 57,
      "hit": false,
      "t": 1551.723,
      "d": 206.89640000000009,
      "v": 100
    },
    {
      "midi": 61,
      "hit": false,
      "t": 1551.723,
      "d": 206.89640000000009,
      "v": 100
    },
    {
      "midi": 64,
      "hit": false,
      "t": 1551.723,
      "d": 206.89640000000009,
      "v": 100
    },
    {
      "midi": 40,
      "hit": false,
      "t": 1810.3435,
      "d": 206.89640000000009,
      "v": 100
    },
    {
      "midi": 57,
      "hit": false,
      "t": 1810.3435,
      "d": 206.89640000000009,
      "v": 100
    },
    {
      "midi": 61,
      "hit": false,
      "t": 1810.3435,
      "d": 206.89640000000009,
      "v": 100
    },
    {
      "midi": 64,
      "hit": false,
      "t": 1810.3435,
      "d": 206.89640000000009,
      "v": 100
    },
    {
      "midi": 54,
      "hit": false,
      "t": 2068.964,
      "d": 206.89640000000009,
      "v": 100
    },
    {
      "midi": 57,
      "hit": false,
      "t": 2068.964,
      "d": 206.89640000000009,
      "v": 100
    },
    {
      "midi": 61,
      "hit": false,
      "t": 2068.964,
      "d": 206.89640000000009,
      "v": 100
    },
    {
      "midi": 64,
      "hit": false,
      "t": 2068.964,
      "d": 206.89640000000009,
      "v": 100
    },
    {
      "midi": 49,
      "hit": false,
      "t": 2327.5845,
      "d": 206.89640000000009,
      "v": 100
    },
    {
      "midi": 54,
      "hit": false,
      "t": 2327.5845,
      "d": 206.89640000000009,
      "v": 100
    },
    {
      "midi": 55,
      "hit": false,
      "t": 2327.5845,
      "d": 206.89640000000009,
      "v": 100
    },
    {
      "midi": 59,
      "hit": false,
      "t": 2327.5845,
      "d": 206.89640000000009,
      "v": 100
    },
    {
      "midi": 62,
      "hit": false,
      "t": 2327.5845,
      "d": 206.89640000000009,
      "v": 100
    },
    {
      "midi": 67,
      "hit": false,
      "t": 2327.5845000000004,
      "d": 310.3445999999999,
      "v": 100
    },
    {
      "midi": 54,
      "hit": false,
      "t": 2586.205,
      "d": 206.89640000000009,
      "v": 100
    },
    {
      "midi": 55,
      "hit": false,
      "t": 2586.205,
      "d": 206.89640000000009,
      "v": 100
    },
    {
      "midi": 59,
      "hit": false,
      "t": 2586.205,
      "d": 206.89640000000009,
      "v": 100
    },
    {
      "midi": 62,
      "hit": false,
      "t": 2586.205,
      "d": 206.89640000000009,
      "v": 100
    },
    {
      "midi": 66,
      "hit": false,
      "t": 2715.5152500000004,
      "d": 336.2066500000001,
      "v": 100
    },
    {
      "midi": 40,
      "hit": false,
      "t": 2844.8255,
      "d": 206.89640000000009,
      "v": 100
    },
    {
      "midi": 55,
      "hit": false,
      "t": 2844.8255,
      "d": 206.89640000000009,
      "v": 100
    },
    {
      "midi": 59,
      "hit": false,
      "t": 2844.8255,
      "d": 206.89640000000009,
      "v": 100
    },
    {
      "midi": 62,
      "hit": false,
      "t": 2844.8255,
      "d": 206.89640000000009,
      "v": 100
    },
    {
      "midi": 54,
      "hit": false,
      "t": 3103.446,
      "d": 206.89640000000009,
      "v": 100
    },
    {
      "midi": 55,
      "hit": false,
      "t": 3103.446,
      "d": 206.89640000000009,
      "v": 100
    },
    {
      "midi": 59,
      "hit": false,
      "t": 3103.446,
      "d": 206.89640000000009,
      "v": 100
    },
    {
      "midi": 62,
      "hit": false,
      "t": 3103.446,
      "d": 206.89640000000009,
      "v": 100
    },
    {
      "midi": 64,
      "hit": false,
      "t": 3103.4460000000004,
      "d": 206.89640000000009,
      "v": 100
    },
    {
      "midi": 54,
      "hit": false,
      "t": 3362.0665,
      "d": 206.89640000000009,
      "v": 100
    },
    {
      "midi": 50,
      "hit": false,
      "t": 3362.0665,
      "d": 206.89640000000009,
      "v": 100
    },
    {
      "midi": 54,
      "hit": false,
      "t": 3362.0665,
      "d": 206.89640000000009,
      "v": 100
    },
    {
      "midi": 57,
      "hit": false,
      "t": 3362.0665,
      "d": 206.89640000000009,
      "v": 100
    },
    {
      "midi": 62,
      "hit": false,
      "t": 3362.0665000000004,
      "d": 413.79280000000017,
      "v": 100
    },
    {
      "midi": 54,
      "hit": false,
      "t": 3620.687,
      "d": 206.89640000000009,
      "v": 100
    },
    {
      "midi": 50,
      "hit": false,
      "t": 3620.687,
      "d": 206.89640000000009,
      "v": 100
    },
    {
      "midi": 54,
      "hit": false,
      "t": 3620.687,
      "d": 206.89640000000009,
      "v": 100
    },
    {
      "midi": 57,
      "hit": false,
      "t": 3620.687,
      "d": 206.89640000000009,
      "v": 100
    },
    {
      "midi": 40,
      "hit": false,
      "t": 3879.3075,
      "d": 206.89640000000009,
      "v": 100
    },
    {
      "midi": 50,
      "hit": false,
      "t": 3879.3075,
      "d": 206.89640000000009,
      "v": 100
    },
    {
      "midi": 54,
      "hit": false,
      "t": 3879.3075,
      "d": 206.89640000000009,
      "v": 100
    },
    {
      "midi": 57,
      "hit": false,
      "t": 3879.3075,
      "d": 206.89640000000009,
      "v": 100
    },
    {
      "midi": 61,
      "hit": false,
      "t": 3879.3075000000003,
      "d": 413.7927999999997,
      "v": 100
    },
    {
      "midi": 54,
      "hit": false,
      "t": 4137.928,
      "d": 206.89639999999963,
      "v": 100
    },
    {
      "midi": 50,
      "hit": false,
      "t": 4137.928,
      "d": 206.89639999999963,
      "v": 100
    },
    {
      "midi": 54,
      "hit": false,
      "t": 4137.928,
      "d": 206.89639999999963,
      "v": 100
    },
    {
      "midi": 57,
      "hit": false,
      "t": 4137.928,
      "d": 206.89639999999963,
      "v": 100
    },
    {
      "midi": 54,
      "hit": false,
      "t": 4396.5485,
      "d": 206.89639999999963,
      "v": 100
    },
    {
      "midi": 49,
      "hit": false,
      "t": 4396.5485,
      "d": 206.89639999999963,
      "v": 100
    },
    {
      "midi": 59,
      "hit": false,
      "t": 4396.5485,
      "d": 827.5856000000003,
      "v": 100
    },
    {
      "midi": 55,
      "hit": false,
      "t": 4396.5485,
      "d": 206.89639999999963,
      "v": 100
    },
    {
      "midi": 59,
      "hit": false,
      "t": 4396.5485,
      "d": 206.89639999999963,
      "v": 100
    },
    {
      "midi": 62,
      "hit": false,
      "t": 4396.5485,
      "d": 206.89639999999963,
      "v": 100
    },
    {
      "midi": 54,
      "hit": false,
      "t": 4655.169,
      "d": 206.89639999999963,
      "v": 100
    },
    {
      "midi": 55,
      "hit": false,
      "t": 4655.169,
      "d": 206.89639999999963,
      "v": 100
    },
    {
      "midi": 59,
      "hit": false,
      "t": 4655.169,
      "d": 206.89639999999963,
      "v": 100
    },
    {
      "midi": 62,
      "hit": false,
      "t": 4655.169,
      "d": 206.89639999999963,
      "v": 100
    },
    {
      "midi": 40,
      "hit": false,
      "t": 4913.7895,
      "d": 206.89639999999963,
      "v": 100
    },
    {
      "midi": 55,
      "hit": false,
      "t": 4913.7895,
      "d": 206.89639999999963,
      "v": 100
    },
    {
      "midi": 59,
      "hit": false,
      "t": 4913.7895,
      "d": 206.89639999999963,
      "v": 100
    },
    {
      "midi": 62,
      "hit": false,
      "t": 4913.7895,
      "d": 206.89639999999963,
      "v": 100
    },
    {
      "midi": 54,
      "hit": false,
      "t": 5172.41,
      "d": 206.89639999999963,
      "v": 100
    },
    {
      "midi": 55,
      "hit": false,
      "t": 5172.41,
      "d": 206.89639999999963,
      "v": 100
    },
    {
      "midi": 59,
      "hit": false,
      "t": 5172.41,
      "d": 206.89639999999963,
      "v": 100
    },
    {
      "midi": 62,
      "hit": false,
      "t": 5172.41,
      "d": 206.89639999999963,
      "v": 100
    },
    {
      "midi": 54,
      "hit": false,
      "t": 5431.0305,
      "d": 206.89639999999963,
      "v": 100
    },
    {
      "midi": 61,
      "hit": false,
      "t": 5431.0305,
      "d": 310.34460000000036,
      "v": 100
    },
    {
      "midi": 57,
      "hit": false,
      "t": 5431.0305,
      "d": 206.89639999999963,
      "v": 100
    },
    {
      "midi": 61,
      "hit": false,
      "t": 5431.0305,
      "d": 206.89639999999963,
      "v": 100
    },
    {
      "midi": 64,
      "hit": false,
      "t": 5431.0305,
      "d": 206.89639999999963,
      "v": 100
    },
    {
      "midi": 54,
      "hit": false,
      "t": 5689.651,
      "d": 206.89639999999963,
      "v": 100
    },
    {
      "midi": 57,
      "hit": false,
      "t": 5689.651,
      "d": 206.89639999999963,
      "v": 100
    },
    {
      "midi": 61,
      "hit": false,
      "t": 5689.651,
      "d": 206.89639999999963,
      "v": 100
    },
    {
      "midi": 64,
      "hit": false,
      "t": 5689.651,
      "d": 206.89639999999963,
      "v": 100
    },
    {
      "midi": 64,
      "hit": false,
      "t": 5818.96125,
      "d": 336.2066500000001,
      "v": 100
    },
    {
      "midi": 40,
      "hit": false,
      "t": 5948.2715,
      "d": 206.89639999999963,
      "v": 100
    },
    {
      "midi": 57,
      "hit": false,
      "t": 5948.2715,
      "d": 206.89639999999963,
      "v": 100
    },
    {
      "midi": 61,
      "hit": false,
      "t": 5948.2715,
      "d": 206.89639999999963,
      "v": 100
    },
    {
      "midi": 64,
      "hit": false,
      "t": 5948.2715,
      "d": 206.89639999999963,
      "v": 100
    },
    {
      "midi": 54,
      "hit": false,
      "t": 6206.892,
      "d": 206.89639999999963,
      "v": 100
    },
    {
      "midi": 57,
      "hit": false,
      "t": 6206.892,
      "d": 206.89639999999963,
      "v": 100
    },
    {
      "midi": 61,
      "hit": false,
      "t": 6206.892,
      "d": 206.89639999999963,
      "v": 100
    },
    {
      "midi": 64,
      "hit": false,
      "t": 6206.892,
      "d": 206.89639999999963,
      "v": 100
    },
    {
      "midi": 61,
      "hit": false,
      "t": 6206.892000000001,
      "d": 206.89639999999963,
      "v": 100
    },
    {
      "midi": 49,
      "hit": false,
      "t": 6465.5125,
      "d": 206.89639999999963,
      "v": 100
    },
    {
      "midi": 54,
      "hit": false,
      "t": 6465.5125,
      "d": 206.89639999999963,
      "v": 100
    },
    {
      "midi": 50,
      "hit": false,
      "t": 6465.5125,
      "d": 206.89639999999963,
      "v": 100
    },
    {
      "midi": 54,
      "hit": false,
      "t": 6465.5125,
      "d": 206.89639999999963,
      "v": 100
    },
    {
      "midi": 57,
      "hit": false,
      "t": 6465.5125,
      "d": 206.89639999999963,
      "v": 100
    },
    {
      "midi": 62,
      "hit": false,
      "t": 6465.512500000001,
      "d": 827.5856000000003,
      "v": 100
    },
    {
      "midi": 54,
      "hit": false,
      "t": 6724.133,
      "d": 206.89639999999963,
      "v": 100
    },
    {
      "midi": 50,
      "hit": false,
      "t": 6724.133,
      "d": 206.89639999999963,
      "v": 100
    },
    {
      "midi": 54,
      "hit": false,
      "t": 6724.133,
      "d": 206.89639999999963,
      "v": 100
    },
    {
      "midi": 57,
      "hit": false,
      "t": 6724.133,
      "d": 206.89639999999963,
      "v": 100
    },
    {
      "midi": 40,
      "hit": false,
      "t": 6982.7535,
      "d": 206.89639999999963,
      "v": 100
    },
    {
      "midi": 50,
      "hit": false,
      "t": 6982.7535,
      "d": 206.89639999999963,
      "v": 100
    },
    {
      "midi": 54,
      "hit": false,
      "t": 6982.7535,
      "d": 206.89639999999963,
      "v": 100
    },
    {
      "midi": 57,
      "hit": false,
      "t": 6982.7535,
      "d": 206.89639999999963,
      "v": 100
    },
    {
      "midi": 54,
      "hit": false,
      "t": 7241.374,
      "d": 206.89639999999963,
      "v": 100
    },
    {
      "midi": 50,
      "hit": false,
      "t": 7241.374,
      "d": 206.89639999999963,
      "v": 100
    },
    {
      "midi": 54,
      "hit": false,
      "t": 7241.374,
      "d": 206.89639999999963,
      "v": 100
    },
    {
      "midi": 57,
      "hit": false,
      "t": 7241.374,
      "d": 206.89639999999963,
      "v": 100
    },
    {
      "midi": 54,
      "hit": false,
      "t": 7499.9945,
      "d": 206.89639999999963,
      "v": 100
    },
    {
      "midi": 57,
      "hit": false,
      "t": 7499.9945,
      "d": 206.89639999999963,
      "v": 100
    },
    {
      "midi": 61,
      "hit": false,
      "t": 7499.9945,
      "d": 206.89639999999963,
      "v": 100
    },
    {
      "midi": 64,
      "hit": false,
      "t": 7499.9945,
      "d": 206.89639999999963,
      "v": 100
    },
    {
      "midi": 69,
      "hit": false,
      "t": 7499.994500000001,
      "d": 827.5856000000003,
      "v": 100
    },
    {
      "midi": 54,
      "hit": false,
      "t": 7758.615,
      "d": 206.89639999999963,
      "v": 100
    },
    {
      "midi": 57,
      "hit": false,
      "t": 7758.615,
      "d": 206.89639999999963,
      "v": 100
    },
    {
      "midi": 61,
      "hit": false,
      "t": 7758.615,
      "d": 206.89639999999963,
      "v": 100
    },
    {
      "midi": 64,
      "hit": false,
      "t": 7758.615,
      "d": 206.89639999999963,
      "v": 100
    },
    {
      "midi": 40,
      "hit": false,
      "t": 8017.2355,
      "d": 206.89640000000054,
      "v": 100
    },
    {
      "midi": 57,
      "hit": false,
      "t": 8017.2355,
      "d": 206.89640000000054,
      "v": 100
    },
    {
      "midi": 61,
      "hit": false,
      "t": 8017.2355,
      "d": 206.89640000000054,
      "v": 100
    },
    {
      "midi": 64,
      "hit": false,
      "t": 8017.2355,
      "d": 206.89640000000054,
      "v": 100
    },
    {
      "midi": 54,
      "hit": false,
      "t": 8275.856,
      "d": 206.89639999999963,
      "v": 100
    },
    {
      "midi": 57,
      "hit": false,
      "t": 8275.856,
      "d": 206.89639999999963,
      "v": 100
    },
    {
      "midi": 61,
      "hit": false,
      "t": 8275.856,
      "d": 206.89639999999963,
      "v": 100
    },
    {
      "midi": 64,
      "hit": false,
      "t": 8275.856,
      "d": 206.89639999999963,
      "v": 100
    },
    {
      "midi": 54,
      "hit": false,
      "t": 8534.476499999999,
      "d": 206.89639999999963,
      "v": 100
    },
    {
      "midi": 49,
      "hit": false,
      "t": 8534.476499999999,
      "d": 206.89639999999963,
      "v": 100
    },
    {
      "midi": 50,
      "hit": false,
      "t": 8534.476499999999,
      "d": 206.89639999999963,
      "v": 100
    },
    {
      "midi": 54,
      "hit": false,
      "t": 8534.476499999999,
      "d": 206.89639999999963,
      "v": 100
    },
    {
      "midi": 57,
      "hit": false,
      "t": 8534.476499999999,
      "d": 206.89639999999963,
      "v": 100
    },
    {
      "midi": 62,
      "hit": false,
      "t": 8534.4765,
      "d": 827.5856000000003,
      "v": 100
    },
    {
      "midi": 54,
      "hit": false,
      "t": 8793.096999999998,
      "d": 206.89639999999963,
      "v": 100
    },
    {
      "midi": 50,
      "hit": false,
      "t": 8793.096999999998,
      "d": 206.89639999999963,
      "v": 100
    },
    {
      "midi": 54,
      "hit": false,
      "t": 8793.096999999998,
      "d": 206.89639999999963,
      "v": 100
    },
    {
      "midi": 57,
      "hit": false,
      "t": 8793.096999999998,
      "d": 206.89639999999963,
      "v": 100
    },
    {
      "midi": 40,
      "hit": false,
      "t": 9051.717499999997,
      "d": 206.89639999999963,
      "v": 100
    },
    {
      "midi": 50,
      "hit": false,
      "t": 9051.717499999997,
      "d": 206.89639999999963,
      "v": 100
    },
    {
      "midi": 54,
      "hit": false,
      "t": 9051.717499999997,
      "d": 206.89639999999963,
      "v": 100
    },
    {
      "midi": 57,
      "hit": false,
      "t": 9051.717499999997,
      "d": 206.89639999999963,
      "v": 100
    },
    {
      "midi": 54,
      "hit": false,
      "t": 9310.337999999996,
      "d": 206.89639999999963,
      "v": 100
    },
    {
      "midi": 50,
      "hit": false,
      "t": 9310.337999999996,
      "d": 206.89639999999963,
      "v": 100
    },
    {
      "midi": 54,
      "hit": false,
      "t": 9310.337999999996,
      "d": 206.89639999999963,
      "v": 100
    },
    {
      "midi": 57,
      "hit": false,
      "t": 9310.337999999996,
      "d": 206.89639999999963,
      "v": 100
    },
    {
      "midi": 54,
      "hit": false,
      "t": 9568.958499999995,
      "d": 206.89639999999963,
      "v": 100
    },
    {
      "midi": 57,
      "hit": false,
      "t": 9568.958499999995,
      "d": 206.89639999999963,
      "v": 100
    },
    {
      "midi": 61,
      "hit": false,
      "t": 9568.958499999995,
      "d": 206.89639999999963,
      "v": 100
    },
    {
      "midi": 64,
      "hit": false,
      "t": 9568.958499999995,
      "d": 206.89639999999963,
      "v": 100
    },
    {
      "midi": 69,
      "hit": false,
      "t": 9568.9585,
      "d": 827.5856000000003,
      "v": 100
    },
    {
      "midi": 54,
      "hit": false,
      "t": 9827.578999999994,
      "d": 206.89639999999963,
      "v": 100
    },
    {
      "midi": 57,
      "hit": false,
      "t": 9827.578999999994,
      "d": 206.89639999999963,
      "v": 100
    },
    {
      "midi": 61,
      "hit": false,
      "t": 9827.578999999994,
      "d": 206.89639999999963,
      "v": 100
    },
    {
      "midi": 64,
      "hit": false,
      "t": 9827.578999999994,
      "d": 206.89639999999963,
      "v": 100
    },
    {
      "midi": 40,
      "hit": false,
      "t": 10086.199499999993,
      "d": 206.89639999999963,
      "v": 100
    },
    {
      "midi": 57,
      "hit": false,
      "t": 10086.199499999993,
      "d": 206.89639999999963,
      "v": 100
    },
    {
      "midi": 61,
      "hit": false,
      "t": 10086.199499999993,
      "d": 206.89639999999963,
      "v": 100
    },
    {
      "midi": 64,
      "hit": false,
      "t": 10086.199499999993,
      "d": 206.89639999999963,
      "v": 100
    },
    {
      "midi": 54,
      "hit": false,
      "t": 10344.819999999992,
      "d": 206.89639999999963,
      "v": 100
    },
    {
      "midi": 57,
      "hit": false,
      "t": 10344.819999999992,
      "d": 206.89639999999963,
      "v": 100
    },
    {
      "midi": 61,
      "hit": false,
      "t": 10344.819999999992,
      "d": 206.89639999999963,
      "v": 100
    },
    {
      "midi": 64,
      "hit": false,
      "t": 10344.819999999992,
      "d": 206.89639999999963,
      "v": 100
    },
    {
      "midi": 49,
      "hit": false,
      "t": 10603.440499999992,
      "d": 206.89639999999963,
      "v": 100
    },
    {
      "midi": 54,
      "hit": false,
      "t": 10603.440499999992,
      "d": 206.89639999999963,
      "v": 100
    },
    {
      "midi": 55,
      "hit": false,
      "t": 10603.440499999992,
      "d": 206.89639999999963,
      "v": 100
    },
    {
      "midi": 59,
      "hit": false,
      "t": 10603.440499999992,
      "d": 206.89639999999963,
      "v": 100
    },
    {
      "midi": 62,
      "hit": false,
      "t": 10603.440499999992,
      "d": 206.89639999999963,
      "v": 100
    },
    {
      "midi": 67,
      "hit": false,
      "t": 10603.4405,
      "d": 310.34460000000036,
      "v": 100
    },
    {
      "midi": 54,
      "hit": false,
      "t": 10862.06099999999,
      "d": 206.89639999999963,
      "v": 100
    },
    {
      "midi": 55,
      "hit": false,
      "t": 10862.06099999999,
      "d": 206.89639999999963,
      "v": 100
    },
    {
      "midi": 59,
      "hit": false,
      "t": 10862.06099999999,
      "d": 206.89639999999963,
      "v": 100
    },
    {
      "midi": 62,
      "hit": false,
      "t": 10862.06099999999,
      "d": 206.89639999999963,
      "v": 100
    },
    {
      "midi": 66,
      "hit": false,
      "t": 10991.37125,
      "d": 336.2066500000001,
      "v": 100
    },
    {
      "midi": 40,
      "hit": false,
      "t": 11120.68149999999,
      "d": 206.89639999999963,
      "v": 100
    },
    {
      "midi": 55,
      "hit": false,
      "t": 11120.68149999999,
      "d": 206.89639999999963,
      "v": 100
    },
    {
      "midi": 59,
      "hit": false,
      "t": 11120.68149999999,
      "d": 206.89639999999963,
      "v": 100
    },
    {
      "midi": 62,
      "hit": false,
      "t": 11120.68149999999,
      "d": 206.89639999999963,
      "v": 100
    },
    {
      "midi": 54,
      "hit": false,
      "t": 11379.301999999989,
      "d": 206.89639999999963,
      "v": 100
    },
    {
      "midi": 55,
      "hit": false,
      "t": 11379.301999999989,
      "d": 206.89639999999963,
      "v": 100
    },
    {
      "midi": 59,
      "hit": false,
      "t": 11379.301999999989,
      "d": 206.89639999999963,
      "v": 100
    },
    {
      "midi": 62,
      "hit": false,
      "t": 11379.301999999989,
      "d": 206.89639999999963,
      "v": 100
    },
    {
      "midi": 64,
      "hit": false,
      "t": 11379.302,
      "d": 206.89639999999963,
      "v": 100
    },
    {
      "midi": 54,
      "hit": false,
      "t": 11637.922499999988,
      "d": 206.89639999999963,
      "v": 100
    },
    {
      "midi": 50,
      "hit": false,
      "t": 11637.922499999988,
      "d": 206.89639999999963,
      "v": 100
    },
    {
      "midi": 54,
      "hit": false,
      "t": 11637.922499999988,
      "d": 206.89639999999963,
      "v": 100
    },
    {
      "midi": 57,
      "hit": false,
      "t": 11637.922499999988,
      "d": 206.89639999999963,
      "v": 100
    },
    {
      "midi": 62,
      "hit": false,
      "t": 11637.922499999999,
      "d": 413.79279999999926,
      "v": 100
    },
    {
      "midi": 54,
      "hit": false,
      "t": 11896.542999999987,
      "d": 206.89639999999963,
      "v": 100
    },
    {
      "midi": 50,
      "hit": false,
      "t": 11896.542999999987,
      "d": 206.89639999999963,
      "v": 100
    },
    {
      "midi": 54,
      "hit": false,
      "t": 11896.542999999987,
      "d": 206.89639999999963,
      "v": 100
    },
    {
      "midi": 57,
      "hit": false,
      "t": 11896.542999999987,
      "d": 206.89639999999963,
      "v": 100
    },
    {
      "midi": 40,
      "hit": false,
      "t": 12155.163499999986,
      "d": 206.89639999999963,
      "v": 100
    },
    {
      "midi": 50,
      "hit": false,
      "t": 12155.163499999986,
      "d": 206.89639999999963,
      "v": 100
    },
    {
      "midi": 54,
      "hit": false,
      "t": 12155.163499999986,
      "d": 206.89639999999963,
      "v": 100
    },
    {
      "midi": 57,
      "hit": false,
      "t": 12155.163499999986,
      "d": 206.89639999999963,
      "v": 100
    },
    {
      "midi": 61,
      "hit": false,
      "t": 12155.163499999999,
      "d": 413.79279999999926,
      "v": 100
    },
    {
      "midi": 54,
      "hit": false,
      "t": 12413.783999999985,
      "d": 206.89639999999963,
      "v": 100
    },
    {
      "midi": 50,
      "hit": false,
      "t": 12413.783999999985,
      "d": 206.89639999999963,
      "v": 100
    },
    {
      "midi": 54,
      "hit": false,
      "t": 12413.783999999985,
      "d": 206.89639999999963,
      "v": 100
    },
    {
      "midi": 57,
      "hit": false,
      "t": 12413.783999999985,
      "d": 206.89639999999963,
      "v": 100
    },
    {
      "midi": 54,
      "hit": false,
      "t": 12672.404499999984,
      "d": 206.89639999999963,
      "v": 100
    },
    {
      "midi": 49,
      "hit": false,
      "t": 12672.404499999984,
      "d": 206.89639999999963,
      "v": 100
    },
    {
      "midi": 55,
      "hit": false,
      "t": 12672.404499999984,
      "d": 206.89639999999963,
      "v": 100
    },
    {
      "midi": 59,
      "hit": false,
      "t": 12672.404499999984,
      "d": 206.89639999999963,
      "v": 100
    },
    {
      "midi": 62,
      "hit": false,
      "t": 12672.404499999984,
      "d": 206.89639999999963,
      "v": 100
    },
    {
      "midi": 59,
      "hit": false,
      "t": 12672.404499999999,
      "d": 827.5856000000003,
      "v": 100
    },
    {
      "midi": 54,
      "hit": false,
      "t": 12931.024999999983,
      "d": 206.89639999999963,
      "v": 100
    },
    {
      "midi": 55,
      "hit": false,
      "t": 12931.024999999983,
      "d": 206.89639999999963,
      "v": 100
    },
    {
      "midi": 59,
      "hit": false,
      "t": 12931.024999999983,
      "d": 206.89639999999963,
      "v": 100
    },
    {
      "midi": 62,
      "hit": false,
      "t": 12931.024999999983,
      "d": 206.89639999999963,
      "v": 100
    },
    {
      "midi": 40,
      "hit": false,
      "t": 13189.645499999982,
      "d": 206.89639999999963,
      "v": 100
    },
    {
      "midi": 55,
      "hit": false,
      "t": 13189.645499999982,
      "d": 206.89639999999963,
      "v": 100
    },
    {
      "midi": 59,
      "hit": false,
      "t": 13189.645499999982,
      "d": 206.89639999999963,
      "v": 100
    },
    {
      "midi": 62,
      "hit": false,
      "t": 13189.645499999982,
      "d": 206.89639999999963,
      "v": 100
    },
    {
      "midi": 54,
      "hit": false,
      "t": 13448.265999999981,
      "d": 206.89639999999963,
      "v": 100
    },
    {
      "midi": 55,
      "hit": false,
      "t": 13448.265999999981,
      "d": 206.89639999999963,
      "v": 100
    },
    {
      "midi": 59,
      "hit": false,
      "t": 13448.265999999981,
      "d": 206.89639999999963,
      "v": 100
    },
    {
      "midi": 62,
      "hit": false,
      "t": 13448.265999999981,
      "d": 206.89639999999963,
      "v": 100
    },
    {
      "midi": 54,
      "hit": false,
      "t": 13706.88649999998,
      "d": 206.89639999999963,
      "v": 100
    },
    {
      "midi": 57,
      "hit": false,
      "t": 13706.88649999998,
      "d": 206.89639999999963,
      "v": 100
    },
    {
      "midi": 61,
      "hit": false,
      "t": 13706.88649999998,
      "d": 206.89639999999963,
      "v": 100
    },
    {
      "midi": 64,
      "hit": false,
      "t": 13706.88649999998,
      "d": 206.89639999999963,
      "v": 100
    },
    {
      "midi": 61,
      "hit": false,
      "t": 13706.886499999999,
      "d": 827.5856000000003,
      "v": 100
    },
    {
      "midi": 54,
      "hit": false,
      "t": 13965.50699999998,
      "d": 206.89639999999963,
      "v": 100
    },
    {
      "midi": 57,
      "hit": false,
      "t": 13965.50699999998,
      "d": 206.89639999999963,
      "v": 100
    },
    {
      "midi": 61,
      "hit": false,
      "t": 13965.50699999998,
      "d": 206.89639999999963,
      "v": 100
    },
    {
      "midi": 64,
      "hit": false,
      "t": 13965.50699999998,
      "d": 206.89639999999963,
      "v": 100
    },
    {
      "midi": 40,
      "hit": false,
      "t": 14224.127499999979,
      "d": 206.89639999999963,
      "v": 100
    },
    {
      "midi": 57,
      "hit": false,
      "t": 14224.127499999979,
      "d": 206.89639999999963,
      "v": 100
    },
    {
      "midi": 61,
      "hit": false,
      "t": 14224.127499999979,
      "d": 206.89639999999963,
      "v": 100
    },
    {
      "midi": 64,
      "hit": false,
      "t": 14224.127499999979,
      "d": 206.89639999999963,
      "v": 100
    },
    {
      "midi": 54,
      "hit": false,
      "t": 14482.747999999978,
      "d": 206.89639999999963,
      "v": 100
    },
    {
      "midi": 57,
      "hit": false,
      "t": 14482.747999999978,
      "d": 206.89639999999963,
      "v": 100
    },
    {
      "midi": 61,
      "hit": false,
      "t": 14482.747999999978,
      "d": 206.89639999999963,
      "v": 100
    },
    {
      "midi": 64,
      "hit": false,
      "t": 14482.747999999978,
      "d": 206.89639999999963,
      "v": 100
    },
    {
      "midi": 49,
      "hit": false,
      "t": 14741.368499999977,
      "d": 206.89639999999963,
      "v": 100
    },
    {
      "midi": 54,
      "hit": false,
      "t": 14741.368499999977,
      "d": 206.89639999999963,
      "v": 100
    },
    {
      "midi": 58,
      "hit": false,
      "t": 14741.368499999977,
      "d": 206.89639999999963,
      "v": 100
    },
    {
      "midi": 62,
      "hit": false,
      "t": 14741.368499999977,
      "d": 206.89639999999963,
      "v": 100
    },
    {
      "midi": 65,
      "hit": false,
      "t": 14741.368499999977,
      "d": 206.89639999999963,
      "v": 100
    },
    {
      "midi": 62,
      "hit": false,
      "t": 14741.368499999999,
      "d": 827.5856000000003,
      "v": 100
    },
    {
      "midi": 54,
      "hit": false,
      "t": 14999.988999999976,
      "d": 206.89639999999963,
      "v": 100
    },
    {
      "midi": 58,
      "hit": false,
      "t": 14999.988999999976,
      "d": 206.89639999999963,
      "v": 100
    },
    {
      "midi": 62,
      "hit": false,
      "t": 14999.988999999976,
      "d": 206.89639999999963,
      "v": 100
    },
    {
      "midi": 65,
      "hit": false,
      "t": 14999.988999999976,
      "d": 206.89639999999963,
      "v": 100
    },
    {
      "midi": 40,
      "hit": false,
      "t": 15258.609499999975,
      "d": 206.89639999999963,
      "v": 100
    },
    {
      "midi": 58,
      "hit": false,
      "t": 15258.609499999975,
      "d": 206.89639999999963,
      "v": 100
    },
    {
      "midi": 62,
      "hit": false,
      "t": 15258.609499999975,
      "d": 206.89639999999963,
      "v": 100
    },
    {
      "midi": 65,
      "hit": false,
      "t": 15258.609499999975,
      "d": 206.89639999999963,
      "v": 100
    },
    {
      "midi": 54,
      "hit": false,
      "t": 15517.229999999974,
      "d": 206.89639999999963,
      "v": 100
    },
    {
      "midi": 58,
      "hit": false,
      "t": 15517.229999999974,
      "d": 206.89639999999963,
      "v": 100
    },
    {
      "midi": 62,
      "hit": false,
      "t": 15517.229999999974,
      "d": 206.89639999999963,
      "v": 100
    },
    {
      "midi": 65,
      "hit": false,
      "t": 15517.229999999974,
      "d": 206.89639999999963,
      "v": 100
    },
    {
      "midi": 40,
      "hit": false,
      "t": 15775.850499999973,
      "d": 103.44820000000072,
      "v": 100
    },
    {
      "midi": 60,
      "hit": false,
      "t": 15775.850499999973,
      "d": 206.89639999999963,
      "v": 100
    },
    {
      "midi": 64,
      "hit": false,
      "t": 15775.850499999973,
      "d": 206.89639999999963,
      "v": 100
    },
    {
      "midi": 67,
      "hit": false,
      "t": 15775.850499999973,
      "d": 206.89639999999963,
      "v": 100
    },
    {
      "midi": 64,
      "hit": false,
      "t": 15775.850499999999,
      "d": 827.5856000000003,
      "v": 100
    },
    {
      "midi": 40,
      "hit": false,
      "t": 15905.160749999974,
      "d": 103.44820000000072,
      "v": 100
    },
    {
      "midi": 60,
      "hit": false,
      "t": 16034.470999999972,
      "d": 206.89639999999963,
      "v": 100
    },
    {
      "midi": 64,
      "hit": false,
      "t": 16034.470999999972,
      "d": 206.89639999999963,
      "v": 100
    },
    {
      "midi": 67,
      "hit": false,
      "t": 16034.470999999972,
      "d": 206.89639999999963,
      "v": 100
    },
    {
      "midi": 40,
      "hit": false,
      "t": 16034.470999999974,
      "d": 103.44820000000072,
      "v": 100
    },
    {
      "midi": 40,
      "hit": false,
      "t": 16163.781249999975,
      "d": 103.44820000000072,
      "v": 100
    },
    {
      "midi": 60,
      "hit": false,
      "t": 16293.091499999971,
      "d": 206.89639999999963,
      "v": 100
    },
    {
      "midi": 64,
      "hit": false,
      "t": 16293.091499999971,
      "d": 206.89639999999963,
      "v": 100
    },
    {
      "midi": 67,
      "hit": false,
      "t": 16293.091499999971,
      "d": 206.89639999999963,
      "v": 100
    },
    {
      "midi": 49,
      "hit": false,
      "t": 16293.091499999975,
      "d": 103.44820000000072,
      "v": 100
    },
    {
      "midi": 40,
      "hit": false,
      "t": 16293.091499999975,
      "d": 103.44820000000072,
      "v": 100
    },
    {
      "midi": 49,
      "hit": false,
      "t": 16422.401749999975,
      "d": 103.4481999999989,
      "v": 100
    },
    {
      "midi": 40,
      "hit": false,
      "t": 16422.401749999975,
      "d": 103.4481999999989,
      "v": 100
    },
    {
      "midi": 60,
      "hit": false,
      "t": 16551.71199999997,
      "d": 206.89640000000145,
      "v": 100
    },
    {
      "midi": 64,
      "hit": false,
      "t": 16551.71199999997,
      "d": 206.89640000000145,
      "v": 100
    },
    {
      "midi": 67,
      "hit": false,
      "t": 16551.71199999997,
      "d": 206.89640000000145,
      "v": 100
    },
    {
      "midi": 49,
      "hit": false,
      "t": 16551.711999999974,
      "d": 103.4481999999989,
      "v": 100
    },
    {
      "midi": 40,
      "hit": false,
      "t": 16551.711999999974,
      "d": 103.4481999999989,
      "v": 100
    },
    {
      "midi": 49,
      "hit": false,
      "t": 16681.022249999973,
      "d": 103.4481999999989,
      "v": 100
    },
    {
      "midi": 40,
      "hit": false,
      "t": 16681.022249999973,
      "d": 103.4481999999989,
      "v": 100
    },
    {
      "midi": 49,
      "hit": false,
      "t": 16810.33249999997,
      "d": 206.89640000000145,
      "v": 100
    },
    {
      "midi": 54,
      "hit": false,
      "t": 16810.33249999997,
      "d": 206.89640000000145,
      "v": 100
    },
    {
      "midi": 50,
      "hit": false,
      "t": 16810.33249999997,
      "d": 206.89640000000145,
      "v": 100
    },
    {
      "midi": 53,
      "hit": false,
      "t": 16810.33249999997,
      "d": 206.89640000000145,
      "v": 100
    },
    {
      "midi": 57,
      "hit": false,
      "t": 16810.33249999997,
      "d": 206.89640000000145,
      "v": 100
    },
    {
      "midi": 54,
      "hit": false,
      "t": 17068.952999999972,
      "d": 206.89640000000145,
      "v": 100
    },
    {
      "midi": 50,
      "hit": false,
      "t": 17068.952999999972,
      "d": 206.89640000000145,
      "v": 100
    },
    {
      "midi": 53,
      "hit": false,
      "t": 17068.952999999972,
      "d": 206.89640000000145,
      "v": 100
    },
    {
      "midi": 57,
      "hit": false,
      "t": 17068.952999999972,
      "d": 206.89640000000145,
      "v": 100
    },
    {
      "midi": 65,
      "hit": false,
      "t": 17068.953,
      "d": 206.89640000000145,
      "v": 100
    },
    {
      "midi": 40,
      "hit": false,
      "t": 17327.573499999973,
      "d": 206.89640000000145,
      "v": 100
    },
    {
      "midi": 50,
      "hit": false,
      "t": 17327.573499999973,
      "d": 206.89640000000145,
      "v": 100
    },
    {
      "midi": 53,
      "hit": false,
      "t": 17327.573499999973,
      "d": 206.89640000000145,
      "v": 100
    },
    {
      "midi": 57,
      "hit": false,
      "t": 17327.573499999973,
      "d": 206.89640000000145,
      "v": 100
    },
    {
      "midi": 69,
      "hit": false,
      "t": 17327.573500000002,
      "d": 206.89640000000145,
      "v": 100
    },
    {
      "midi": 54,
      "hit": false,
      "t": 17586.193999999974,
      "d": 206.89640000000145,
      "v": 100
    },
    {
      "midi": 50,
      "hit": false,
      "t": 17586.193999999974,
      "d": 206.89640000000145,
      "v": 100
    },
    {
      "midi": 53,
      "hit": false,
      "t": 17586.193999999974,
      "d": 206.89640000000145,
      "v": 100
    },
    {
      "midi": 57,
      "hit": false,
      "t": 17586.193999999974,
      "d": 206.89640000000145,
      "v": 100
    },
    {
      "midi": 76,
      "hit": false,
      "t": 17586.194000000003,
      "d": 103.4481999999989,
      "v": 100
    },
    {
      "midi": 72,
      "hit": false,
      "t": 17715.50425,
      "d": 749.9994499999993,
      "v": 100
    },
    {
      "midi": 54,
      "hit": false,
      "t": 17844.814499999975,
      "d": 206.89640000000145,
      "v": 100
    },
    {
      "midi": 55,
      "hit": false,
      "t": 17844.814499999975,
      "d": 206.89640000000145,
      "v": 100
    },
    {
      "midi": 58,
      "hit": false,
      "t": 17844.814499999975,
      "d": 206.89640000000145,
      "v": 100
    },
    {
      "midi": 62,
      "hit": false,
      "t": 17844.814499999975,
      "d": 206.89640000000145,
      "v": 100
    },
    {
      "midi": 54,
      "hit": false,
      "t": 18103.434999999976,
      "d": 206.89640000000145,
      "v": 100
    },
    {
      "midi": 55,
      "hit": false,
      "t": 18103.434999999976,
      "d": 206.89640000000145,
      "v": 100
    },
    {
      "midi": 58,
      "hit": false,
      "t": 18103.434999999976,
      "d": 206.89640000000145,
      "v": 100
    },
    {
      "midi": 62,
      "hit": false,
      "t": 18103.434999999976,
      "d": 206.89640000000145,
      "v": 100
    },
    {
      "midi": 40,
      "hit": false,
      "t": 18362.055499999977,
      "d": 206.89640000000145,
      "v": 100
    },
    {
      "midi": 55,
      "hit": false,
      "t": 18362.055499999977,
      "d": 206.89640000000145,
      "v": 100
    },
    {
      "midi": 58,
      "hit": false,
      "t": 18362.055499999977,
      "d": 206.89640000000145,
      "v": 100
    },
    {
      "midi": 62,
      "hit": false,
      "t": 18362.055499999977,
      "d": 206.89640000000145,
      "v": 100
    },
    {
      "midi": 54,
      "hit": false,
      "t": 18620.675999999978,
      "d": 206.89640000000145,
      "v": 100
    },
    {
      "midi": 55,
      "hit": false,
      "t": 18620.675999999978,
      "d": 206.89640000000145,
      "v": 100
    },
    {
      "midi": 58,
      "hit": false,
      "t": 18620.675999999978,
      "d": 206.89640000000145,
      "v": 100
    },
    {
      "midi": 62,
      "hit": false,
      "t": 18620.675999999978,
      "d": 206.89640000000145,
      "v": 100
    },
    {
      "midi": 69,
      "hit": false,
      "t": 18620.676,
      "d": 206.89640000000145,
      "v": 100
    },
    {
      "midi": 54,
      "hit": false,
      "t": 18879.29649999998,
      "d": 206.89640000000145,
      "v": 100
    },
    {
      "midi": 60,
      "hit": false,
      "t": 18879.29649999998,
      "d": 206.89640000000145,
      "v": 100
    },
    {
      "midi": 64,
      "hit": false,
      "t": 18879.29649999998,
      "d": 206.89640000000145,
      "v": 100
    },
    {
      "midi": 67,
      "hit": false,
      "t": 18879.29649999998,
      "d": 206.89640000000145,
      "v": 100
    },
    {
      "midi": 67,
      "hit": false,
      "t": 18879.2965,
      "d": 413.79279999999926,
      "v": 100
    },
    {
      "midi": 54,
      "hit": false,
      "t": 19137.91699999998,
      "d": 206.89640000000145,
      "v": 100
    },
    {
      "midi": 60,
      "hit": false,
      "t": 19137.91699999998,
      "d": 206.89640000000145,
      "v": 100
    },
    {
      "midi": 64,
      "hit": false,
      "t": 19137.91699999998,
      "d": 206.89640000000145,
      "v": 100
    },
    {
      "midi": 67,
      "hit": false,
      "t": 19137.91699999998,
      "d": 206.89640000000145,
      "v": 100
    },
    {
      "midi": 40,
      "hit": false,
      "t": 19396.53749999998,
      "d": 206.89640000000145,
      "v": 100
    },
    {
      "midi": 60,
      "hit": false,
      "t": 19396.53749999998,
      "d": 206.89640000000145,
      "v": 100
    },
    {
      "midi": 64,
      "hit": false,
      "t": 19396.53749999998,
      "d": 206.89640000000145,
      "v": 100
    },
    {
      "midi": 67,
      "hit": false,
      "t": 19396.53749999998,
      "d": 206.89640000000145,
      "v": 100
    },
    {
      "midi": 65,
      "hit": false,
      "t": 19396.5375,
      "d": 206.89640000000145,
      "v": 100
    },
    {
      "midi": 54,
      "hit": false,
      "t": 19655.15799999998,
      "d": 206.89640000000145,
      "v": 100
    },
    {
      "midi": 60,
      "hit": false,
      "t": 19655.15799999998,
      "d": 206.89640000000145,
      "v": 100
    },
    {
      "midi": 64,
      "hit": false,
      "t": 19655.15799999998,
      "d": 206.89640000000145,
      "v": 100
    },
    {
      "midi": 67,
      "hit": false,
      "t": 19655.15799999998,
      "d": 206.89640000000145,
      "v": 100
    },
    {
      "midi": 67,
      "hit": false,
      "t": 19655.158,
      "d": 103.4481999999989,
      "v": 100
    },
    {
      "midi": 69,
      "hit": false,
      "t": 19784.468249999998,
      "d": 956.8958500000008,
      "v": 100
    },
    {
      "midi": 54,
      "hit": false,
      "t": 19913.778499999982,
      "d": 206.89640000000145,
      "v": 100
    },
    {
      "midi": 53,
      "hit": false,
      "t": 19913.778499999982,
      "d": 206.89640000000145,
      "v": 100
    },
    {
      "midi": 57,
      "hit": false,
      "t": 19913.778499999982,
      "d": 206.89640000000145,
      "v": 100
    },
    {
      "midi": 60,
      "hit": false,
      "t": 19913.778499999982,
      "d": 206.89640000000145,
      "v": 100
    },
    {
      "midi": 54,
      "hit": false,
      "t": 20172.398999999983,
      "d": 206.89640000000145,
      "v": 100
    },
    {
      "midi": 53,
      "hit": false,
      "t": 20172.398999999983,
      "d": 206.89640000000145,
      "v": 100
    },
    {
      "midi": 57,
      "hit": false,
      "t": 20172.398999999983,
      "d": 206.89640000000145,
      "v": 100
    },
    {
      "midi": 60,
      "hit": false,
      "t": 20172.398999999983,
      "d": 206.89640000000145,
      "v": 100
    },
    {
      "midi": 40,
      "hit": false,
      "t": 20431.019499999984,
      "d": 206.89640000000145,
      "v": 100
    },
    {
      "midi": 60,
      "hit": false,
      "t": 20431.019499999984,
      "d": 206.89640000000145,
      "v": 100
    },
    {
      "midi": 64,
      "hit": false,
      "t": 20431.019499999984,
      "d": 206.89640000000145,
      "v": 100
    },
    {
      "midi": 67,
      "hit": false,
      "t": 20431.019499999984,
      "d": 206.89640000000145,
      "v": 100
    },
    {
      "midi": 54,
      "hit": false,
      "t": 20689.639999999985,
      "d": 206.89640000000145,
      "v": 100
    },
    {
      "midi": 60,
      "hit": false,
      "t": 20689.639999999985,
      "d": 206.89640000000145,
      "v": 100
    },
    {
      "midi": 64,
      "hit": false,
      "t": 20689.639999999985,
      "d": 206.89640000000145,
      "v": 100
    },
    {
      "midi": 67,
      "hit": false,
      "t": 20689.639999999985,
      "d": 206.89640000000145,
      "v": 100
    },
    {
      "midi": 49,
      "hit": false,
      "t": 20948.260499999986,
      "d": 206.89640000000145,
      "v": 100
    },
    {
      "midi": 54,
      "hit": false,
      "t": 20948.260499999986,
      "d": 206.89640000000145,
      "v": 100
    },
    {
      "midi": 50,
      "hit": false,
      "t": 20948.260499999986,
      "d": 206.89640000000145,
      "v": 100
    },
    {
      "midi": 53,
      "hit": false,
      "t": 20948.260499999986,
      "d": 206.89640000000145,
      "v": 100
    },
    {
      "midi": 57,
      "hit": false,
      "t": 20948.260499999986,
      "d": 206.89640000000145,
      "v": 100
    },
    {
      "midi": 54,
      "hit": false,
      "t": 21206.880999999987,
      "d": 206.89640000000145,
      "v": 100
    },
    {
      "midi": 50,
      "hit": false,
      "t": 21206.880999999987,
      "d": 206.89640000000145,
      "v": 100
    },
    {
      "midi": 53,
      "hit": false,
      "t": 21206.880999999987,
      "d": 206.89640000000145,
      "v": 100
    },
    {
      "midi": 57,
      "hit": false,
      "t": 21206.880999999987,
      "d": 206.89640000000145,
      "v": 100
    },
    {
      "midi": 65,
      "hit": false,
      "t": 21206.880999999998,
      "d": 206.89640000000145,
      "v": 100
    },
    {
      "midi": 40,
      "hit": false,
      "t": 21465.501499999988,
      "d": 206.89640000000145,
      "v": 100
    },
    {
      "midi": 50,
      "hit": false,
      "t": 21465.501499999988,
      "d": 206.89640000000145,
      "v": 100
    },
    {
      "midi": 53,
      "hit": false,
      "t": 21465.501499999988,
      "d": 206.89640000000145,
      "v": 100
    },
    {
      "midi": 57,
      "hit": false,
      "t": 21465.501499999988,
      "d": 206.89640000000145,
      "v": 100
    },
    {
      "midi": 69,
      "hit": false,
      "t": 21465.5015,
      "d": 206.89640000000145,
      "v": 100
    },
    {
      "midi": 54,
      "hit": false,
      "t": 21724.12199999999,
      "d": 206.89640000000145,
      "v": 100
    },
    {
      "midi": 50,
      "hit": false,
      "t": 21724.12199999999,
      "d": 206.89640000000145,
      "v": 100
    },
    {
      "midi": 53,
      "hit": false,
      "t": 21724.12199999999,
      "d": 206.89640000000145,
      "v": 100
    },
    {
      "midi": 57,
      "hit": false,
      "t": 21724.12199999999,
      "d": 206.89640000000145,
      "v": 100
    },
    {
      "midi": 76,
      "hit": false,
      "t": 21724.122,
      "d": 103.4481999999989,
      "v": 100
    },
    {
      "midi": 72,
      "hit": false,
      "t": 21853.432249999998,
      "d": 749.9994499999993,
      "v": 100
    },
    {
      "midi": 54,
      "hit": false,
      "t": 21982.74249999999,
      "d": 206.89640000000145,
      "v": 100
    },
    {
      "midi": 55,
      "hit": false,
      "t": 21982.74249999999,
      "d": 206.89640000000145,
      "v": 100
    },
    {
      "midi": 58,
      "hit": false,
      "t": 21982.74249999999,
      "d": 206.89640000000145,
      "v": 100
    },
    {
      "midi": 62,
      "hit": false,
      "t": 21982.74249999999,
      "d": 206.89640000000145,
      "v": 100
    },
    {
      "midi": 54,
      "hit": false,
      "t": 22241.36299999999,
      "d": 206.89640000000145,
      "v": 100
    },
    {
      "midi": 55,
      "hit": false,
      "t": 22241.36299999999,
      "d": 206.89640000000145,
      "v": 100
    },
    {
      "midi": 58,
      "hit": false,
      "t": 22241.36299999999,
      "d": 206.89640000000145,
      "v": 100
    },
    {
      "midi": 62,
      "hit": false,
      "t": 22241.36299999999,
      "d": 206.89640000000145,
      "v": 100
    },
    {
      "midi": 40,
      "hit": false,
      "t": 22499.98349999999,
      "d": 206.89640000000145,
      "v": 100
    },
    {
      "midi": 55,
      "hit": false,
      "t": 22499.98349999999,
      "d": 206.89640000000145,
      "v": 100
    },
    {
      "midi": 58,
      "hit": false,
      "t": 22499.98349999999,
      "d": 206.89640000000145,
      "v": 100
    },
    {
      "midi": 62,
      "hit": false,
      "t": 22499.98349999999,
      "d": 206.89640000000145,
      "v": 100
    },
    {
      "midi": 54,
      "hit": false,
      "t": 22758.603999999992,
      "d": 206.89640000000145,
      "v": 100
    },
    {
      "midi": 55,
      "hit": false,
      "t": 22758.603999999992,
      "d": 206.89640000000145,
      "v": 100
    },
    {
      "midi": 58,
      "hit": false,
      "t": 22758.603999999992,
      "d": 206.89640000000145,
      "v": 100
    },
    {
      "midi": 62,
      "hit": false,
      "t": 22758.603999999992,
      "d": 206.89640000000145,
      "v": 100
    },
    {
      "midi": 69,
      "hit": false,
      "t": 22758.603999999996,
      "d": 206.89640000000145,
      "v": 100
    },
    {
      "midi": 54,
      "hit": false,
      "t": 23017.224499999993,
      "d": 206.89640000000145,
      "v": 100
    },
    {
      "midi": 60,
      "hit": false,
      "t": 23017.224499999993,
      "d": 206.89640000000145,
      "v": 100
    },
    {
      "midi": 64,
      "hit": false,
      "t": 23017.224499999993,
      "d": 206.89640000000145,
      "v": 100
    },
    {
      "midi": 67,
      "hit": false,
      "t": 23017.224499999993,
      "d": 206.89640000000145,
      "v": 100
    },
    {
      "midi": 67,
      "hit": false,
      "t": 23017.224499999997,
      "d": 413.79279999999926,
      "v": 100
    },
    {
      "midi": 54,
      "hit": false,
      "t": 23275.844999999994,
      "d": 206.89640000000145,
      "v": 100
    },
    {
      "midi": 60,
      "hit": false,
      "t": 23275.844999999994,
      "d": 206.89640000000145,
      "v": 100
    },
    {
      "midi": 64,
      "hit": false,
      "t": 23275.844999999994,
      "d": 206.89640000000145,
      "v": 100
    },
    {
      "midi": 67,
      "hit": false,
      "t": 23275.844999999994,
      "d": 206.89640000000145,
      "v": 100
    },
    {
      "midi": 65,
      "hit": false,
      "t": 23534.465499999995,
      "d": 206.89640000000145,
      "v": 100
    },
    {
      "midi": 40,
      "hit": false,
      "t": 23534.465499999995,
      "d": 206.89640000000145,
      "v": 100
    },
    {
      "midi": 60,
      "hit": false,
      "t": 23534.465499999995,
      "d": 206.89640000000145,
      "v": 100
    },
    {
      "midi": 64,
      "hit": false,
      "t": 23534.465499999995,
      "d": 206.89640000000145,
      "v": 100
    },
    {
      "midi": 67,
      "hit": false,
      "t": 23534.465499999995,
      "d": 206.89640000000145,
      "v": 100
    },
    {
      "midi": 67,
      "hit": false,
      "t": 23793.085999999996,
      "d": 103.4481999999989,
      "v": 100
    },
    {
      "midi": 54,
      "hit": false,
      "t": 23793.085999999996,
      "d": 206.89640000000145,
      "v": 100
    },
    {
      "midi": 60,
      "hit": false,
      "t": 23793.085999999996,
      "d": 206.89640000000145,
      "v": 100
    },
    {
      "midi": 64,
      "hit": false,
      "t": 23793.085999999996,
      "d": 206.89640000000145,
      "v": 100
    },
    {
      "midi": 67,
      "hit": false,
      "t": 23793.085999999996,
      "d": 206.89640000000145,
      "v": 100
    },
    {
      "midi": 65,
      "hit": false,
      "t": 23922.396249999994,
      "d": 543.1030500000015,
      "v": 100
    },
    {
      "midi": 54,
      "hit": false,
      "t": 24051.706499999997,
      "d": 206.89640000000145,
      "v": 100
    },
    {
      "midi": 53,
      "hit": false,
      "t": 24051.706499999997,
      "d": 206.89640000000145,
      "v": 100
    },
    {
      "midi": 57,
      "hit": false,
      "t": 24051.706499999997,
      "d": 206.89640000000145,
      "v": 100
    },
    {
      "midi": 60,
      "hit": false,
      "t": 24051.706499999997,
      "d": 206.89640000000145,
      "v": 100
    },
    {
      "midi": 54,
      "hit": false,
      "t": 24310.326999999997,
      "d": 206.89640000000145,
      "v": 100
    },
    {
      "midi": 53,
      "hit": false,
      "t": 24310.326999999997,
      "d": 206.89640000000145,
      "v": 100
    },
    {
      "midi": 57,
      "hit": false,
      "t": 24310.326999999997,
      "d": 206.89640000000145,
      "v": 100
    },
    {
      "midi": 60,
      "hit": false,
      "t": 24310.326999999997,
      "d": 206.89640000000145,
      "v": 100
    },
    {
      "midi": 40,
      "hit": false,
      "t": 24568.9475,
      "d": 206.89640000000145,
      "v": 100
    },
    {
      "midi": 60,
      "hit": false,
      "t": 24568.9475,
      "d": 206.89640000000145,
      "v": 100
    },
    {
      "midi": 64,
      "hit": false,
      "t": 24568.9475,
      "d": 206.89640000000145,
      "v": 100
    },
    {
      "midi": 67,
      "hit": false,
      "t": 24568.9475,
      "d": 206.89640000000145,
      "v": 100
    },
    {
      "midi": 65,
      "hit": false,
      "t": 24827.567999999996,
      "d": 206.89640000000145,
      "v": 100
    },
    {
      "midi": 54,
      "hit": false,
      "t": 24827.568,
      "d": 206.89640000000145,
      "v": 100
    },
    {
      "midi": 60,
      "hit": false,
      "t": 24827.568,
      "d": 206.89640000000145,
      "v": 100
    },
    {
      "midi": 64,
      "hit": false,
      "t": 24827.568,
      "d": 206.89640000000145,
      "v": 100
    },
    {
      "midi": 67,
      "hit": false,
      "t": 24827.568,
      "d": 206.89640000000145,
      "v": 100
    },
    {
      "midi": 77,
      "hit": false,
      "t": 25086.188499999997,
      "d": 620.6892000000007,
      "v": 100
    },
    {
      "midi": 49,
      "hit": false,
      "t": 25086.1885,
      "d": 206.89640000000145,
      "v": 100
    },
    {
      "midi": 54,
      "hit": false,
      "t": 25086.1885,
      "d": 206.89640000000145,
      "v": 100
    },
    {
      "midi": 50,
      "hit": false,
      "t": 25086.1885,
      "d": 206.89640000000145,
      "v": 100
    },
    {
      "midi": 53,
      "hit": false,
      "t": 25086.1885,
      "d": 206.89640000000145,
      "v": 100
    },
    {
      "midi": 57,
      "hit": false,
      "t": 25086.1885,
      "d": 206.89640000000145,
      "v": 100
    },
    {
      "midi": 54,
      "hit": false,
      "t": 25344.809,
      "d": 206.89640000000145,
      "v": 100
    },
    {
      "midi": 50,
      "hit": false,
      "t": 25344.809,
      "d": 206.89640000000145,
      "v": 100
    },
    {
      "midi": 53,
      "hit": false,
      "t": 25344.809,
      "d": 206.89640000000145,
      "v": 100
    },
    {
      "midi": 57,
      "hit": false,
      "t": 25344.809,
      "d": 206.89640000000145,
      "v": 100
    },
    {
      "midi": 40,
      "hit": false,
      "t": 25603.429500000002,
      "d": 206.89640000000145,
      "v": 100
    },
    {
      "midi": 50,
      "hit": false,
      "t": 25603.429500000002,
      "d": 206.89640000000145,
      "v": 100
    },
    {
      "midi": 53,
      "hit": false,
      "t": 25603.429500000002,
      "d": 206.89640000000145,
      "v": 100
    },
    {
      "midi": 57,
      "hit": false,
      "t": 25603.429500000002,
      "d": 206.89640000000145,
      "v": 100
    },
    {
      "midi": 76,
      "hit": false,
      "t": 25862.049999999996,
      "d": 206.89640000000145,
      "v": 100
    },
    {
      "midi": 54,
      "hit": false,
      "t": 25862.050000000003,
      "d": 206.89640000000145,
      "v": 100
    },
    {
      "midi": 50,
      "hit": false,
      "t": 25862.050000000003,
      "d": 206.89640000000145,
      "v": 100
    },
    {
      "midi": 53,
      "hit": false,
      "t": 25862.050000000003,
      "d": 206.89640000000145,
      "v": 100
    },
    {
      "midi": 57,
      "hit": false,
      "t": 25862.050000000003,
      "d": 206.89640000000145,
      "v": 100
    },
    {
      "midi": 74,
      "hit": false,
      "t": 26120.670499999997,
      "d": 620.6892000000007,
      "v": 100
    },
    {
      "midi": 54,
      "hit": false,
      "t": 26120.670500000004,
      "d": 206.89640000000145,
      "v": 100
    },
    {
      "midi": 55,
      "hit": false,
      "t": 26120.670500000004,
      "d": 206.89640000000145,
      "v": 100
    },
    {
      "midi": 58,
      "hit": false,
      "t": 26120.670500000004,
      "d": 206.89640000000145,
      "v": 100
    },
    {
      "midi": 62,
      "hit": false,
      "t": 26120.670500000004,
      "d": 206.89640000000145,
      "v": 100
    },
    {
      "midi": 54,
      "hit": false,
      "t": 26379.291000000005,
      "d": 206.89640000000145,
      "v": 100
    },
    {
      "midi": 55,
      "hit": false,
      "t": 26379.291000000005,
      "d": 206.89640000000145,
      "v": 100
    },
    {
      "midi": 58,
      "hit": false,
      "t": 26379.291000000005,
      "d": 206.89640000000145,
      "v": 100
    },
    {
      "midi": 62,
      "hit": false,
      "t": 26379.291000000005,
      "d": 206.89640000000145,
      "v": 100
    },
    {
      "midi": 40,
      "hit": false,
      "t": 26637.911500000006,
      "d": 206.89640000000145,
      "v": 100
    },
    {
      "midi": 55,
      "hit": false,
      "t": 26637.911500000006,
      "d": 206.89640000000145,
      "v": 100
    },
    {
      "midi": 58,
      "hit": false,
      "t": 26637.911500000006,
      "d": 206.89640000000145,
      "v": 100
    },
    {
      "midi": 62,
      "hit": false,
      "t": 26637.911500000006,
      "d": 206.89640000000145,
      "v": 100
    },
    {
      "midi": 69,
      "hit": false,
      "t": 26896.531999999996,
      "d": 206.89640000000145,
      "v": 100
    },
    {
      "midi": 54,
      "hit": false,
      "t": 26896.532000000007,
      "d": 206.89640000000145,
      "v": 100
    },
    {
      "midi": 55,
      "hit": false,
      "t": 26896.532000000007,
      "d": 206.89640000000145,
      "v": 100
    },
    {
      "midi": 58,
      "hit": false,
      "t": 26896.532000000007,
      "d": 206.89640000000145,
      "v": 100
    },
    {
      "midi": 62,
      "hit": false,
      "t": 26896.532000000007,
      "d": 206.89640000000145,
      "v": 100
    },
    {
      "midi": 67,
      "hit": false,
      "t": 27155.152499999997,
      "d": 103.4481999999989,
      "v": 100
    },
    {
      "midi": 54,
      "hit": false,
      "t": 27155.152500000007,
      "d": 206.89640000000145,
      "v": 100
    },
    {
      "midi": 60,
      "hit": false,
      "t": 27155.152500000007,
      "d": 206.89640000000145,
      "v": 100
    },
    {
      "midi": 64,
      "hit": false,
      "t": 27155.152500000007,
      "d": 206.89640000000145,
      "v": 100
    },
    {
      "midi": 67,
      "hit": false,
      "t": 27155.152500000007,
      "d": 206.89640000000145,
      "v": 100
    },
    {
      "midi": 65,
      "hit": false,
      "t": 27284.462749999995,
      "d": 206.89640000000145,
      "v": 100
    },
    {
      "midi": 54,
      "hit": false,
      "t": 27413.77300000001,
      "d": 206.89640000000145,
      "v": 100
    },
    {
      "midi": 60,
      "hit": false,
      "t": 27413.77300000001,
      "d": 206.89640000000145,
      "v": 100
    },
    {
      "midi": 64,
      "hit": false,
      "t": 27413.77300000001,
      "d": 206.89640000000145,
      "v": 100
    },
    {
      "midi": 67,
      "hit": false,
      "t": 27413.77300000001,
      "d": 206.89640000000145,
      "v": 100
    },
    {
      "midi": 65,
      "hit": false,
      "t": 27543.083249999996,
      "d": 336.2066500000001,
      "v": 100
    },
    {
      "midi": 40,
      "hit": false,
      "t": 27672.39350000001,
      "d": 206.89640000000145,
      "v": 100
    },
    {
      "midi": 60,
      "hit": false,
      "t": 27672.39350000001,
      "d": 206.89640000000145,
      "v": 100
    },
    {
      "midi": 64,
      "hit": false,
      "t": 27672.39350000001,
      "d": 206.89640000000145,
      "v": 100
    },
    {
      "midi": 67,
      "hit": false,
      "t": 27672.39350000001,
      "d": 206.89640000000145,
      "v": 100
    },
    {
      "midi": 67,
      "hit": false,
      "t": 27931.013999999996,
      "d": 206.89640000000145,
      "v": 100
    },
    {
      "midi": 54,
      "hit": false,
      "t": 27931.01400000001,
      "d": 206.89640000000145,
      "v": 100
    },
    {
      "midi": 60,
      "hit": false,
      "t": 27931.01400000001,
      "d": 206.89640000000145,
      "v": 100
    },
    {
      "midi": 64,
      "hit": false,
      "t": 27931.01400000001,
      "d": 206.89640000000145,
      "v": 100
    },
    {
      "midi": 67,
      "hit": false,
      "t": 27931.01400000001,
      "d": 206.89640000000145,
      "v": 100
    },
    {
      "midi": 69,
      "hit": false,
      "t": 28189.634499999996,
      "d": 413.79279999999926,
      "v": 100
    },
    {
      "midi": 54,
      "hit": false,
      "t": 28189.63450000001,
      "d": 206.89640000000145,
      "v": 100
    },
    {
      "midi": 53,
      "hit": false,
      "t": 28189.63450000001,
      "d": 206.89640000000145,
      "v": 100
    },
    {
      "midi": 57,
      "hit": false,
      "t": 28189.63450000001,
      "d": 206.89640000000145,
      "v": 100
    },
    {
      "midi": 60,
      "hit": false,
      "t": 28189.63450000001,
      "d": 206.89640000000145,
      "v": 100
    },
    {
      "midi": 54,
      "hit": false,
      "t": 28448.255000000012,
      "d": 206.89640000000145,
      "v": 100
    },
    {
      "midi": 53,
      "hit": false,
      "t": 28448.255000000012,
      "d": 206.89640000000145,
      "v": 100
    },
    {
      "midi": 57,
      "hit": false,
      "t": 28448.255000000012,
      "d": 206.89640000000145,
      "v": 100
    },
    {
      "midi": 60,
      "hit": false,
      "t": 28448.255000000012,
      "d": 206.89640000000145,
      "v": 100
    },
    {
      "midi": 40,
      "hit": false,
      "t": 28706.875500000013,
      "d": 206.89640000000145,
      "v": 100
    },
    {
      "midi": 60,
      "hit": false,
      "t": 28706.875500000013,
      "d": 206.89640000000145,
      "v": 100
    },
    {
      "midi": 64,
      "hit": false,
      "t": 28706.875500000013,
      "d": 206.89640000000145,
      "v": 100
    },
    {
      "midi": 67,
      "hit": false,
      "t": 28706.875500000013,
      "d": 206.89640000000145,
      "v": 100
    },
    {
      "midi": 65,
      "hit": false,
      "t": 28965.495999999996,
      "d": 206.89640000000145,
      "v": 100
    },
    {
      "midi": 54,
      "hit": false,
      "t": 28965.496000000014,
      "d": 206.89640000000145,
      "v": 100
    },
    {
      "midi": 60,
      "hit": false,
      "t": 28965.496000000014,
      "d": 206.89640000000145,
      "v": 100
    },
    {
      "midi": 64,
      "hit": false,
      "t": 28965.496000000014,
      "d": 206.89640000000145,
      "v": 100
    },
    {
      "midi": 67,
      "hit": false,
      "t": 28965.496000000014,
      "d": 206.89640000000145,
      "v": 100
    },
    {
      "midi": 77,
      "hit": false,
      "t": 29224.116499999996,
      "d": 620.6892000000007,
      "v": 100
    },
    {
      "midi": 49,
      "hit": false,
      "t": 29224.116500000015,
      "d": 206.89640000000145,
      "v": 100
    },
    {
      "midi": 54,
      "hit": false,
      "t": 29224.116500000015,
      "d": 206.89640000000145,
      "v": 100
    },
    {
      "midi": 50,
      "hit": false,
      "t": 29224.116500000015,
      "d": 206.89640000000145,
      "v": 100
    },
    {
      "midi": 53,
      "hit": false,
      "t": 29224.116500000015,
      "d": 206.89640000000145,
      "v": 100
    },
    {
      "midi": 57,
      "hit": false,
      "t": 29224.116500000015,
      "d": 206.89640000000145,
      "v": 100
    },
    {
      "midi": 54,
      "hit": false,
      "t": 29482.737000000016,
      "d": 206.89640000000145,
      "v": 100
    },
    {
      "midi": 50,
      "hit": false,
      "t": 29482.737000000016,
      "d": 206.89640000000145,
      "v": 100
    },
    {
      "midi": 53,
      "hit": false,
      "t": 29482.737000000016,
      "d": 206.89640000000145,
      "v": 100
    },
    {
      "midi": 57,
      "hit": false,
      "t": 29482.737000000016,
      "d": 206.89640000000145,
      "v": 100
    },
    {
      "midi": 40,
      "hit": false,
      "t": 29741.357500000016,
      "d": 206.89640000000145,
      "v": 100
    },
    {
      "midi": 50,
      "hit": false,
      "t": 29741.357500000016,
      "d": 206.89640000000145,
      "v": 100
    },
    {
      "midi": 53,
      "hit": false,
      "t": 29741.357500000016,
      "d": 206.89640000000145,
      "v": 100
    },
    {
      "midi": 57,
      "hit": false,
      "t": 29741.357500000016,
      "d": 206.89640000000145,
      "v": 100
    },
    {
      "midi": 76,
      "hit": false,
      "t": 29999.977999999996,
      "d": 206.89640000000145,
      "v": 100
    },
    {
      "midi": 54,
      "hit": false,
      "t": 29999.978000000017,
      "d": 206.89640000000145,
      "v": 100
    },
    {
      "midi": 50,
      "hit": false,
      "t": 29999.978000000017,
      "d": 206.89640000000145,
      "v": 100
    },
    {
      "midi": 53,
      "hit": false,
      "t": 29999.978000000017,
      "d": 206.89640000000145,
      "v": 100
    },
    {
      "midi": 57,
      "hit": false,
      "t": 29999.978000000017,
      "d": 206.89640000000145,
      "v": 100
    },
    {
      "midi": 74,
      "hit": false,
      "t": 30258.598499999996,
      "d": 620.6892000000007,
      "v": 100
    },
    {
      "midi": 54,
      "hit": false,
      "t": 30258.59850000002,
      "d": 206.89640000000145,
      "v": 100
    },
    {
      "midi": 55,
      "hit": false,
      "t": 30258.59850000002,
      "d": 206.89640000000145,
      "v": 100
    },
    {
      "midi": 58,
      "hit": false,
      "t": 30258.59850000002,
      "d": 206.89640000000145,
      "v": 100
    },
    {
      "midi": 62,
      "hit": false,
      "t": 30258.59850000002,
      "d": 206.89640000000145,
      "v": 100
    },
    {
      "midi": 54,
      "hit": false,
      "t": 30517.21900000002,
      "d": 206.89640000000145,
      "v": 100
    },
    {
      "midi": 55,
      "hit": false,
      "t": 30517.21900000002,
      "d": 206.89640000000145,
      "v": 100
    },
    {
      "midi": 58,
      "hit": false,
      "t": 30517.21900000002,
      "d": 206.89640000000145,
      "v": 100
    },
    {
      "midi": 62,
      "hit": false,
      "t": 30517.21900000002,
      "d": 206.89640000000145,
      "v": 100
    },
    {
      "midi": 40,
      "hit": false,
      "t": 30775.83950000002,
      "d": 206.89640000000145,
      "v": 100
    },
    {
      "midi": 55,
      "hit": false,
      "t": 30775.83950000002,
      "d": 206.89640000000145,
      "v": 100
    },
    {
      "midi": 58,
      "hit": false,
      "t": 30775.83950000002,
      "d": 206.89640000000145,
      "v": 100
    },
    {
      "midi": 62,
      "hit": false,
      "t": 30775.83950000002,
      "d": 206.89640000000145,
      "v": 100
    },
    {
      "midi": 69,
      "hit": false,
      "t": 31034.459999999995,
      "d": 206.89640000000145,
      "v": 100
    },
    {
      "midi": 54,
      "hit": false,
      "t": 31034.46000000002,
      "d": 206.89640000000145,
      "v": 100
    },
    {
      "midi": 55,
      "hit": false,
      "t": 31034.46000000002,
      "d": 206.89640000000145,
      "v": 100
    },
    {
      "midi": 58,
      "hit": false,
      "t": 31034.46000000002,
      "d": 206.89640000000145,
      "v": 100
    },
    {
      "midi": 62,
      "hit": false,
      "t": 31034.46000000002,
      "d": 206.89640000000145,
      "v": 100
    },
    {
      "midi": 67,
      "hit": false,
      "t": 31293.080499999996,
      "d": 103.4481999999989,
      "v": 100
    },
    {
      "midi": 54,
      "hit": false,
      "t": 31293.080500000022,
      "d": 206.89640000000145,
      "v": 100
    },
    {
      "midi": 60,
      "hit": false,
      "t": 31293.080500000022,
      "d": 206.89640000000145,
      "v": 100
    },
    {
      "midi": 64,
      "hit": false,
      "t": 31293.080500000022,
      "d": 206.89640000000145,
      "v": 100
    },
    {
      "midi": 67,
      "hit": false,
      "t": 31293.080500000022,
      "d": 206.89640000000145,
      "v": 100
    },
    {
      "midi": 65,
      "hit": false,
      "t": 31422.390749999995,
      "d": 206.89640000000145,
      "v": 100
    },
    {
      "midi": 54,
      "hit": false,
      "t": 31551.701000000023,
      "d": 206.89640000000145,
      "v": 100
    },
    {
      "midi": 60,
      "hit": false,
      "t": 31551.701000000023,
      "d": 206.89640000000145,
      "v": 100
    },
    {
      "midi": 64,
      "hit": false,
      "t": 31551.701000000023,
      "d": 206.89640000000145,
      "v": 100
    },
    {
      "midi": 67,
      "hit": false,
      "t": 31551.701000000023,
      "d": 206.89640000000145,
      "v": 100
    },
    {
      "midi": 65,
      "hit": false,
      "t": 31681.011249999996,
      "d": 336.2066500000001,
      "v": 100
    },
    {
      "midi": 40,
      "hit": false,
      "t": 31810.321500000024,
      "d": 206.89640000000145,
      "v": 100
    },
    {
      "midi": 60,
      "hit": false,
      "t": 31810.321500000024,
      "d": 206.89640000000145,
      "v": 100
    },
    {
      "midi": 64,
      "hit": false,
      "t": 31810.321500000024,
      "d": 206.89640000000145,
      "v": 100
    },
    {
      "midi": 67,
      "hit": false,
      "t": 31810.321500000024,
      "d": 206.89640000000145,
      "v": 100
    },
    {
      "midi": 67,
      "hit": false,
      "t": 32068.941999999995,
      "d": 206.89640000000145,
      "v": 100
    },
    {
      "midi": 54,
      "hit": false,
      "t": 32068.942000000025,
      "d": 206.89640000000145,
      "v": 100
    },
    {
      "midi": 60,
      "hit": false,
      "t": 32068.942000000025,
      "d": 206.89640000000145,
      "v": 100
    },
    {
      "midi": 64,
      "hit": false,
      "t": 32068.942000000025,
      "d": 206.89640000000145,
      "v": 100
    },
    {
      "midi": 67,
      "hit": false,
      "t": 32068.942000000025,
      "d": 206.89640000000145,
      "v": 100
    },
    {
      "midi": 65,
      "hit": false,
      "t": 32327.562499999996,
      "d": 413.79279999999926,
      "v": 100
    },
    {
      "midi": 54,
      "hit": false,
      "t": 32327.562500000025,
      "d": 206.89640000000145,
      "v": 100
    },
    {
      "midi": 53,
      "hit": false,
      "t": 32327.562500000025,
      "d": 206.89640000000145,
      "v": 100
    },
    {
      "midi": 57,
      "hit": false,
      "t": 32327.562500000025,
      "d": 206.89640000000145,
      "v": 100
    },
    {
      "midi": 60,
      "hit": false,
      "t": 32327.562500000025,
      "d": 206.89640000000145,
      "v": 100
    },
    {
      "midi": 54,
      "hit": false,
      "t": 32586.183000000026,
      "d": 206.8963999999978,
      "v": 100
    },
    {
      "midi": 53,
      "hit": false,
      "t": 32586.183000000026,
      "d": 206.8963999999978,
      "v": 100
    },
    {
      "midi": 57,
      "hit": false,
      "t": 32586.183000000026,
      "d": 206.8963999999978,
      "v": 100
    },
    {
      "midi": 60,
      "hit": false,
      "t": 32586.183000000026,
      "d": 206.8963999999978,
      "v": 100
    },
    {
      "midi": 72,
      "hit": false,
      "t": 32844.803499999995,
      "d": 206.8963999999978,
      "v": 100
    },
    {
      "midi": 40,
      "hit": false,
      "t": 32844.80350000002,
      "d": 206.8963999999978,
      "v": 100
    },
    {
      "midi": 53,
      "hit": false,
      "t": 32844.80350000002,
      "d": 206.8963999999978,
      "v": 100
    },
    {
      "midi": 57,
      "hit": false,
      "t": 32844.80350000002,
      "d": 206.8963999999978,
      "v": 100
    },
    {
      "midi": 60,
      "hit": false,
      "t": 32844.80350000002,
      "d": 206.8963999999978,
      "v": 100
    },
    {
      "midi": 74,
      "hit": false,
      "t": 33103.42399999999,
      "d": 103.4481999999989,
      "v": 100
    },
    {
      "midi": 54,
      "hit": false,
      "t": 33103.42400000002,
      "d": 206.8963999999978,
      "v": 100
    },
    {
      "midi": 53,
      "hit": false,
      "t": 33103.42400000002,
      "d": 206.8963999999978,
      "v": 100
    },
    {
      "midi": 57,
      "hit": false,
      "t": 33103.42400000002,
      "d": 206.8963999999978,
      "v": 100
    },
    {
      "midi": 60,
      "hit": false,
      "t": 33103.42400000002,
      "d": 206.8963999999978,
      "v": 100
    },
    {
      "midi": 76,
      "hit": false,
      "t": 33232.734249999994,
      "d": 1370.6886499999964,
      "v": 100
    },
    {
      "midi": 49,
      "hit": false,
      "t": 33362.04450000002,
      "d": 206.8963999999978,
      "v": 100
    },
    {
      "midi": 54,
      "hit": false,
      "t": 33362.04450000002,
      "d": 206.8963999999978,
      "v": 100
    },
    {
      "midi": 50,
      "hit": false,
      "t": 33362.04450000002,
      "d": 206.8963999999978,
      "v": 100
    },
    {
      "midi": 53,
      "hit": false,
      "t": 33362.04450000002,
      "d": 206.8963999999978,
      "v": 100
    },
    {
      "midi": 57,
      "hit": false,
      "t": 33362.04450000002,
      "d": 206.8963999999978,
      "v": 100
    },
    {
      "midi": 54,
      "hit": false,
      "t": 33620.665000000015,
      "d": 206.8963999999978,
      "v": 100
    },
    {
      "midi": 50,
      "hit": false,
      "t": 33620.665000000015,
      "d": 206.8963999999978,
      "v": 100
    },
    {
      "midi": 53,
      "hit": false,
      "t": 33620.665000000015,
      "d": 206.8963999999978,
      "v": 100
    },
    {
      "midi": 57,
      "hit": false,
      "t": 33620.665000000015,
      "d": 206.8963999999978,
      "v": 100
    },
    {
      "midi": 40,
      "hit": false,
      "t": 33879.28550000001,
      "d": 206.8963999999978,
      "v": 100
    },
    {
      "midi": 50,
      "hit": false,
      "t": 33879.28550000001,
      "d": 206.8963999999978,
      "v": 100
    },
    {
      "midi": 53,
      "hit": false,
      "t": 33879.28550000001,
      "d": 206.8963999999978,
      "v": 100
    },
    {
      "midi": 57,
      "hit": false,
      "t": 33879.28550000001,
      "d": 206.8963999999978,
      "v": 100
    },
    {
      "midi": 54,
      "hit": false,
      "t": 34137.90600000001,
      "d": 206.8963999999978,
      "v": 100
    },
    {
      "midi": 50,
      "hit": false,
      "t": 34137.90600000001,
      "d": 206.8963999999978,
      "v": 100
    },
    {
      "midi": 53,
      "hit": false,
      "t": 34137.90600000001,
      "d": 206.8963999999978,
      "v": 100
    },
    {
      "midi": 57,
      "hit": false,
      "t": 34137.90600000001,
      "d": 206.8963999999978,
      "v": 100
    },
    {
      "midi": 54,
      "hit": false,
      "t": 34396.52650000001,
      "d": 206.8963999999978,
      "v": 100
    },
    {
      "midi": 60,
      "hit": false,
      "t": 34396.52650000001,
      "d": 206.8963999999978,
      "v": 100
    },
    {
      "midi": 64,
      "hit": false,
      "t": 34396.52650000001,
      "d": 206.8963999999978,
      "v": 100
    },
    {
      "midi": 67,
      "hit": false,
      "t": 34396.52650000001,
      "d": 206.8963999999978,
      "v": 100
    },
    {
      "midi": 74,
      "hit": false,
      "t": 34655.14699999999,
      "d": 206.8963999999978,
      "v": 100
    },
    {
      "midi": 54,
      "hit": false,
      "t": 34655.147000000004,
      "d": 206.8963999999978,
      "v": 100
    },
    {
      "midi": 60,
      "hit": false,
      "t": 34655.147000000004,
      "d": 206.8963999999978,
      "v": 100
    },
    {
      "midi": 64,
      "hit": false,
      "t": 34655.147000000004,
      "d": 206.8963999999978,
      "v": 100
    },
    {
      "midi": 67,
      "hit": false,
      "t": 34655.147000000004,
      "d": 206.8963999999978,
      "v": 100
    },
    {
      "midi": 72,
      "hit": false,
      "t": 34913.76749999999,
      "d": 206.8963999999978,
      "v": 100
    },
    {
      "midi": 40,
      "hit": false,
      "t": 34913.7675,
      "d": 206.8963999999978,
      "v": 100
    },
    {
      "midi": 60,
      "hit": false,
      "t": 34913.7675,
      "d": 206.8963999999978,
      "v": 100
    },
    {
      "midi": 64,
      "hit": false,
      "t": 34913.7675,
      "d": 206.8963999999978,
      "v": 100
    },
    {
      "midi": 67,
      "hit": false,
      "t": 34913.7675,
      "d": 206.8963999999978,
      "v": 100
    },
    {
      "midi": 70,
      "hit": false,
      "t": 35172.387999999984,
      "d": 206.8963999999978,
      "v": 100
    },
    {
      "midi": 54,
      "hit": false,
      "t": 35172.388,
      "d": 206.8963999999978,
      "v": 100
    },
    {
      "midi": 60,
      "hit": false,
      "t": 35172.388,
      "d": 206.8963999999978,
      "v": 100
    },
    {
      "midi": 64,
      "hit": false,
      "t": 35172.388,
      "d": 206.8963999999978,
      "v": 100
    },
    {
      "midi": 67,
      "hit": false,
      "t": 35172.388,
      "d": 206.8963999999978,
      "v": 100
    },
    {
      "midi": 69,
      "hit": false,
      "t": 35431.00849999998,
      "d": 103.4481999999989,
      "v": 100
    },
    {
      "midi": 49,
      "hit": false,
      "t": 35431.008499999996,
      "d": 206.8963999999978,
      "v": 100
    },
    {
      "midi": 54,
      "hit": false,
      "t": 35431.008499999996,
      "d": 206.8963999999978,
      "v": 100
    },
    {
      "midi": 53,
      "hit": false,
      "t": 35431.008499999996,
      "d": 206.8963999999978,
      "v": 100
    },
    {
      "midi": 57,
      "hit": false,
      "t": 35431.008499999996,
      "d": 206.8963999999978,
      "v": 100
    },
    {
      "midi": 60,
      "hit": false,
      "t": 35431.008499999996,
      "d": 206.8963999999978,
      "v": 100
    },
    {
      "midi": 67,
      "hit": false,
      "t": 35560.318749999984,
      "d": 103.4481999999989,
      "v": 100
    },
    {
      "midi": 69,
      "hit": false,
      "t": 35689.628999999986,
      "d": 672.4133000000002,
      "v": 100
    },
    {
      "midi": 54,
      "hit": false,
      "t": 35689.62899999999,
      "d": 206.8963999999978,
      "v": 100
    },
    {
      "midi": 53,
      "hit": false,
      "t": 35689.62899999999,
      "d": 206.8963999999978,
      "v": 100
    },
    {
      "midi": 57,
      "hit": false,
      "t": 35689.62899999999,
      "d": 206.8963999999978,
      "v": 100
    },
    {
      "midi": 60,
      "hit": false,
      "t": 35689.62899999999,
      "d": 206.8963999999978,
      "v": 100
    },
    {
      "midi": 40,
      "hit": false,
      "t": 35948.24949999999,
      "d": 206.8963999999978,
      "v": 100
    },
    {
      "midi": 53,
      "hit": false,
      "t": 35948.24949999999,
      "d": 206.8963999999978,
      "v": 100
    },
    {
      "midi": 57,
      "hit": false,
      "t": 35948.24949999999,
      "d": 206.8963999999978,
      "v": 100
    },
    {
      "midi": 60,
      "hit": false,
      "t": 35948.24949999999,
      "d": 206.8963999999978,
      "v": 100
    },
    {
      "midi": 54,
      "hit": false,
      "t": 36206.86999999999,
      "d": 206.8963999999978,
      "v": 100
    },
    {
      "midi": 53,
      "hit": false,
      "t": 36206.86999999999,
      "d": 206.8963999999978,
      "v": 100
    },
    {
      "midi": 57,
      "hit": false,
      "t": 36206.86999999999,
      "d": 206.8963999999978,
      "v": 100
    },
    {
      "midi": 60,
      "hit": false,
      "t": 36206.86999999999,
      "d": 206.8963999999978,
      "v": 100
    },
    {
      "midi": 54,
      "hit": false,
      "t": 36465.490499999985,
      "d": 206.8963999999978,
      "v": 100
    },
    {
      "midi": 54,
      "hit": false,
      "t": 36465.490499999985,
      "d": 206.8963999999978,
      "v": 100
    },
    {
      "midi": 57,
      "hit": false,
      "t": 36465.490499999985,
      "d": 206.8963999999978,
      "v": 100
    },
    {
      "midi": 60,
      "hit": false,
      "t": 36465.490499999985,
      "d": 206.8963999999978,
      "v": 100
    },
    {
      "midi": 63,
      "hit": false,
      "t": 36465.490499999985,
      "d": 206.8963999999978,
      "v": 100
    },
    {
      "midi": 54,
      "hit": false,
      "t": 36724.11099999998,
      "d": 206.8963999999978,
      "v": 100
    },
    {
      "midi": 54,
      "hit": false,
      "t": 36724.11099999998,
      "d": 206.8963999999978,
      "v": 100
    },
    {
      "midi": 57,
      "hit": false,
      "t": 36724.11099999998,
      "d": 206.8963999999978,
      "v": 100
    },
    {
      "midi": 60,
      "hit": false,
      "t": 36724.11099999998,
      "d": 206.8963999999978,
      "v": 100
    },
    {
      "midi": 63,
      "hit": false,
      "t": 36724.11099999998,
      "d": 206.8963999999978,
      "v": 100
    },
    {
      "midi": 40,
      "hit": false,
      "t": 36982.73149999998,
      "d": 206.8963999999978,
      "v": 100
    },
    {
      "midi": 54,
      "hit": false,
      "t": 36982.73149999998,
      "d": 206.8963999999978,
      "v": 100
    },
    {
      "midi": 57,
      "hit": false,
      "t": 36982.73149999998,
      "d": 206.8963999999978,
      "v": 100
    },
    {
      "midi": 60,
      "hit": false,
      "t": 36982.73149999998,
      "d": 206.8963999999978,
      "v": 100
    },
    {
      "midi": 63,
      "hit": false,
      "t": 36982.73149999998,
      "d": 206.8963999999978,
      "v": 100
    },
    {
      "midi": 70,
      "hit": false,
      "t": 36982.73149999999,
      "d": 206.8963999999978,
      "v": 100
    },
    {
      "midi": 54,
      "hit": false,
      "t": 37241.35199999998,
      "d": 206.8963999999978,
      "v": 100
    },
    {
      "midi": 54,
      "hit": false,
      "t": 37241.35199999998,
      "d": 206.8963999999978,
      "v": 100
    },
    {
      "midi": 57,
      "hit": false,
      "t": 37241.35199999998,
      "d": 206.8963999999978,
      "v": 100
    },
    {
      "midi": 60,
      "hit": false,
      "t": 37241.35199999998,
      "d": 206.8963999999978,
      "v": 100
    },
    {
      "midi": 63,
      "hit": false,
      "t": 37241.35199999998,
      "d": 206.8963999999978,
      "v": 100
    },
    {
      "midi": 72,
      "hit": false,
      "t": 37241.351999999984,
      "d": 103.4481999999989,
      "v": 100
    },
    {
      "midi": 74,
      "hit": false,
      "t": 37370.66224999999,
      "d": 1370.6886500000037,
      "v": 100
    },
    {
      "midi": 49,
      "hit": false,
      "t": 37499.972499999974,
      "d": 206.8963999999978,
      "v": 100
    },
    {
      "midi": 54,
      "hit": false,
      "t": 37499.972499999974,
      "d": 206.8963999999978,
      "v": 100
    },
    {
      "midi": 55,
      "hit": false,
      "t": 37499.972499999974,
      "d": 206.8963999999978,
      "v": 100
    },
    {
      "midi": 58,
      "hit": false,
      "t": 37499.972499999974,
      "d": 206.8963999999978,
      "v": 100
    },
    {
      "midi": 62,
      "hit": false,
      "t": 37499.972499999974,
      "d": 206.8963999999978,
      "v": 100
    },
    {
      "midi": 54,
      "hit": false,
      "t": 37758.59299999997,
      "d": 206.8963999999978,
      "v": 100
    },
    {
      "midi": 55,
      "hit": false,
      "t": 37758.59299999997,
      "d": 206.8963999999978,
      "v": 100
    },
    {
      "midi": 58,
      "hit": false,
      "t": 37758.59299999997,
      "d": 206.8963999999978,
      "v": 100
    },
    {
      "midi": 62,
      "hit": false,
      "t": 37758.59299999997,
      "d": 206.8963999999978,
      "v": 100
    },
    {
      "midi": 40,
      "hit": false,
      "t": 38017.21349999997,
      "d": 206.8963999999978,
      "v": 100
    },
    {
      "midi": 55,
      "hit": false,
      "t": 38017.21349999997,
      "d": 206.8963999999978,
      "v": 100
    },
    {
      "midi": 58,
      "hit": false,
      "t": 38017.21349999997,
      "d": 206.8963999999978,
      "v": 100
    },
    {
      "midi": 62,
      "hit": false,
      "t": 38017.21349999997,
      "d": 206.8963999999978,
      "v": 100
    },
    {
      "midi": 54,
      "hit": false,
      "t": 38275.833999999966,
      "d": 206.8963999999978,
      "v": 100
    },
    {
      "midi": 55,
      "hit": false,
      "t": 38275.833999999966,
      "d": 206.8963999999978,
      "v": 100
    },
    {
      "midi": 58,
      "hit": false,
      "t": 38275.833999999966,
      "d": 206.8963999999978,
      "v": 100
    },
    {
      "midi": 62,
      "hit": false,
      "t": 38275.833999999966,
      "d": 206.8963999999978,
      "v": 100
    },
    {
      "midi": 54,
      "hit": false,
      "t": 38534.45449999996,
      "d": 206.8963999999978,
      "v": 100
    },
    {
      "midi": 53,
      "hit": false,
      "t": 38534.45449999996,
      "d": 206.8963999999978,
      "v": 100
    },
    {
      "midi": 57,
      "hit": false,
      "t": 38534.45449999996,
      "d": 206.8963999999978,
      "v": 100
    },
    {
      "midi": 60,
      "hit": false,
      "t": 38534.45449999996,
      "d": 206.8963999999978,
      "v": 100
    },
    {
      "midi": 54,
      "hit": false,
      "t": 38793.07499999996,
      "d": 206.8963999999978,
      "v": 100
    },
    {
      "midi": 53,
      "hit": false,
      "t": 38793.07499999996,
      "d": 206.8963999999978,
      "v": 100
    },
    {
      "midi": 57,
      "hit": false,
      "t": 38793.07499999996,
      "d": 206.8963999999978,
      "v": 100
    },
    {
      "midi": 60,
      "hit": false,
      "t": 38793.07499999996,
      "d": 206.8963999999978,
      "v": 100
    },
    {
      "midi": 72,
      "hit": false,
      "t": 38793.07499999999,
      "d": 206.8963999999978,
      "v": 100
    },
    {
      "midi": 40,
      "hit": false,
      "t": 39051.69549999996,
      "d": 206.8963999999978,
      "v": 100
    },
    {
      "midi": 53,
      "hit": false,
      "t": 39051.69549999996,
      "d": 206.8963999999978,
      "v": 100
    },
    {
      "midi": 57,
      "hit": false,
      "t": 39051.69549999996,
      "d": 206.8963999999978,
      "v": 100
    },
    {
      "midi": 60,
      "hit": false,
      "t": 39051.69549999996,
      "d": 206.8963999999978,
      "v": 100
    },
    {
      "midi": 70,
      "hit": false,
      "t": 39051.69549999999,
      "d": 206.8963999999978,
      "v": 100
    },
    {
      "midi": 54,
      "hit": false,
      "t": 39310.315999999955,
      "d": 206.8963999999978,
      "v": 100
    },
    {
      "midi": 53,
      "hit": false,
      "t": 39310.315999999955,
      "d": 206.8963999999978,
      "v": 100
    },
    {
      "midi": 57,
      "hit": false,
      "t": 39310.315999999955,
      "d": 206.8963999999978,
      "v": 100
    },
    {
      "midi": 60,
      "hit": false,
      "t": 39310.315999999955,
      "d": 206.8963999999978,
      "v": 100
    },
    {
      "midi": 69,
      "hit": false,
      "t": 39310.315999999984,
      "d": 206.8963999999978,
      "v": 100
    },
    {
      "midi": 49,
      "hit": false,
      "t": 39568.93649999995,
      "d": 206.8963999999978,
      "v": 100
    },
    {
      "midi": 54,
      "hit": false,
      "t": 39568.93649999995,
      "d": 206.8963999999978,
      "v": 100
    },
    {
      "midi": 60,
      "hit": false,
      "t": 39568.93649999995,
      "d": 206.8963999999978,
      "v": 100
    },
    {
      "midi": 64,
      "hit": false,
      "t": 39568.93649999995,
      "d": 206.8963999999978,
      "v": 100
    },
    {
      "midi": 67,
      "hit": false,
      "t": 39568.93649999995,
      "d": 206.8963999999978,
      "v": 100
    },
    {
      "midi": 67,
      "hit": false,
      "t": 39568.93649999998,
      "d": 103.4481999999989,
      "v": 100
    },
    {
      "midi": 65,
      "hit": false,
      "t": 39698.246749999984,
      "d": 103.4481999999989,
      "v": 100
    },
    {
      "midi": 54,
      "hit": false,
      "t": 39827.55699999995,
      "d": 206.8963999999978,
      "v": 100
    },
    {
      "midi": 60,
      "hit": false,
      "t": 39827.55699999995,
      "d": 206.8963999999978,
      "v": 100
    },
    {
      "midi": 64,
      "hit": false,
      "t": 39827.55699999995,
      "d": 206.8963999999978,
      "v": 100
    },
    {
      "midi": 67,
      "hit": false,
      "t": 39827.55699999995,
      "d": 206.8963999999978,
      "v": 100
    },
    {
      "midi": 67,
      "hit": false,
      "t": 39827.556999999986,
      "d": 672.4133000000002,
      "v": 100
    },
    {
      "midi": 40,
      "hit": false,
      "t": 40086.17749999995,
      "d": 206.8963999999978,
      "v": 100
    },
    {
      "midi": 60,
      "hit": false,
      "t": 40086.17749999995,
      "d": 206.8963999999978,
      "v": 100
    },
    {
      "midi": 64,
      "hit": false,
      "t": 40086.17749999995,
      "d": 206.8963999999978,
      "v": 100
    },
    {
      "midi": 67,
      "hit": false,
      "t": 40086.17749999995,
      "d": 206.8963999999978,
      "v": 100
    },
    {
      "midi": 54,
      "hit": false,
      "t": 40344.797999999944,
      "d": 206.8963999999978,
      "v": 100
    },
    {
      "midi": 60,
      "hit": false,
      "t": 40344.797999999944,
      "d": 206.8963999999978,
      "v": 100
    },
    {
      "midi": 64,
      "hit": false,
      "t": 40344.797999999944,
      "d": 206.8963999999978,
      "v": 100
    },
    {
      "midi": 67,
      "hit": false,
      "t": 40344.797999999944,
      "d": 206.8963999999978,
      "v": 100
    },
    {
      "midi": 54,
      "hit": false,
      "t": 40603.41849999994,
      "d": 206.8963999999978,
      "v": 100
    },
    {
      "midi": 60,
      "hit": false,
      "t": 40603.41849999994,
      "d": 206.8963999999978,
      "v": 100
    },
    {
      "midi": 64,
      "hit": false,
      "t": 40603.41849999994,
      "d": 206.8963999999978,
      "v": 100
    },
    {
      "midi": 67,
      "hit": false,
      "t": 40603.41849999994,
      "d": 206.8963999999978,
      "v": 100
    },
    {
      "midi": 54,
      "hit": false,
      "t": 40862.03899999994,
      "d": 206.8963999999978,
      "v": 100
    },
    {
      "midi": 60,
      "hit": false,
      "t": 40862.03899999994,
      "d": 206.8963999999978,
      "v": 100
    },
    {
      "midi": 64,
      "hit": false,
      "t": 40862.03899999994,
      "d": 206.8963999999978,
      "v": 100
    },
    {
      "midi": 67,
      "hit": false,
      "t": 40862.03899999994,
      "d": 206.8963999999978,
      "v": 100
    },
    {
      "midi": 40,
      "hit": false,
      "t": 41120.659499999936,
      "d": 206.8963999999978,
      "v": 100
    },
    {
      "midi": 60,
      "hit": false,
      "t": 41120.659499999936,
      "d": 206.8963999999978,
      "v": 100
    },
    {
      "midi": 64,
      "hit": false,
      "t": 41120.659499999936,
      "d": 206.8963999999978,
      "v": 100
    },
    {
      "midi": 67,
      "hit": false,
      "t": 41120.659499999936,
      "d": 206.8963999999978,
      "v": 100
    },
    {
      "midi": 72,
      "hit": false,
      "t": 41120.65949999999,
      "d": 206.8963999999978,
      "v": 100
    },
    {
      "midi": 54,
      "hit": false,
      "t": 41379.27999999993,
      "d": 206.8963999999978,
      "v": 100
    },
    {
      "midi": 60,
      "hit": false,
      "t": 41379.27999999993,
      "d": 206.8963999999978,
      "v": 100
    },
    {
      "midi": 64,
      "hit": false,
      "t": 41379.27999999993,
      "d": 206.8963999999978,
      "v": 100
    },
    {
      "midi": 67,
      "hit": false,
      "t": 41379.27999999993,
      "d": 206.8963999999978,
      "v": 100
    },
    {
      "midi": 74,
      "hit": false,
      "t": 41379.279999999984,
      "d": 103.4481999999989,
      "v": 100
    },
    {
      "midi": 76,
      "hit": false,
      "t": 41508.59024999999,
      "d": 1370.6886500000037,
      "v": 100
    },
    {
      "midi": 49,
      "hit": false,
      "t": 41637.90049999993,
      "d": 206.8963999999978,
      "v": 100
    },
    {
      "midi": 54,
      "hit": false,
      "t": 41637.90049999993,
      "d": 206.8963999999978,
      "v": 100
    },
    {
      "midi": 52,
      "hit": false,
      "t": 41637.90049999993,
      "d": 206.8963999999978,
      "v": 100
    },
    {
      "midi": 56,
      "hit": false,
      "t": 41637.90049999993,
      "d": 206.8963999999978,
      "v": 100
    },
    {
      "midi": 59,
      "hit": false,
      "t": 41637.90049999993,
      "d": 206.8963999999978,
      "v": 100
    },
    {
      "midi": 54,
      "hit": false,
      "t": 41896.52099999993,
      "d": 206.8963999999978,
      "v": 100
    },
    {
      "midi": 52,
      "hit": false,
      "t": 41896.52099999993,
      "d": 206.8963999999978,
      "v": 100
    },
    {
      "midi": 56,
      "hit": false,
      "t": 41896.52099999993,
      "d": 206.8963999999978,
      "v": 100
    },
    {
      "midi": 59,
      "hit": false,
      "t": 41896.52099999993,
      "d": 206.8963999999978,
      "v": 100
    },
    {
      "midi": 40,
      "hit": false,
      "t": 42155.141499999925,
      "d": 206.8963999999978,
      "v": 100
    },
    {
      "midi": 52,
      "hit": false,
      "t": 42155.141499999925,
      "d": 206.8963999999978,
      "v": 100
    },
    {
      "midi": 56,
      "hit": false,
      "t": 42155.141499999925,
      "d": 206.8963999999978,
      "v": 100
    },
    {
      "midi": 59,
      "hit": false,
      "t": 42155.141499999925,
      "d": 206.8963999999978,
      "v": 100
    },
    {
      "midi": 54,
      "hit": false,
      "t": 42413.76199999992,
      "d": 206.8963999999978,
      "v": 100
    },
    {
      "midi": 52,
      "hit": false,
      "t": 42413.76199999992,
      "d": 206.8963999999978,
      "v": 100
    },
    {
      "midi": 56,
      "hit": false,
      "t": 42413.76199999992,
      "d": 206.8963999999978,
      "v": 100
    },
    {
      "midi": 59,
      "hit": false,
      "t": 42413.76199999992,
      "d": 206.8963999999978,
      "v": 100
    },
    {
      "midi": 54,
      "hit": false,
      "t": 42672.38249999992,
      "d": 206.8963999999978,
      "v": 100
    },
    {
      "midi": 52,
      "hit": false,
      "t": 42672.38249999992,
      "d": 206.8963999999978,
      "v": 100
    },
    {
      "midi": 56,
      "hit": false,
      "t": 42672.38249999992,
      "d": 206.8963999999978,
      "v": 100
    },
    {
      "midi": 59,
      "hit": false,
      "t": 42672.38249999992,
      "d": 206.8963999999978,
      "v": 100
    },
    {
      "midi": 54,
      "hit": false,
      "t": 42931.00299999992,
      "d": 206.8963999999978,
      "v": 100
    },
    {
      "midi": 52,
      "hit": false,
      "t": 42931.00299999992,
      "d": 206.8963999999978,
      "v": 100
    },
    {
      "midi": 56,
      "hit": false,
      "t": 42931.00299999992,
      "d": 206.8963999999978,
      "v": 100
    },
    {
      "midi": 59,
      "hit": false,
      "t": 42931.00299999992,
      "d": 206.8963999999978,
      "v": 100
    },
    {
      "midi": 77,
      "hit": false,
      "t": 42931.00299999999,
      "d": 206.8963999999978,
      "v": 100
    },
    {
      "midi": 40,
      "hit": false,
      "t": 43189.623499999914,
      "d": 206.8963999999978,
      "v": 100
    },
    {
      "midi": 52,
      "hit": false,
      "t": 43189.623499999914,
      "d": 206.8963999999978,
      "v": 100
    },
    {
      "midi": 56,
      "hit": false,
      "t": 43189.623499999914,
      "d": 206.8963999999978,
      "v": 100
    },
    {
      "midi": 59,
      "hit": false,
      "t": 43189.623499999914,
      "d": 206.8963999999978,
      "v": 100
    },
    {
      "midi": 76,
      "hit": false,
      "t": 43189.62349999999,
      "d": 206.8963999999978,
      "v": 100
    },
    {
      "midi": 54,
      "hit": false,
      "t": 43448.24399999991,
      "d": 206.8963999999978,
      "v": 100
    },
    {
      "midi": 52,
      "hit": false,
      "t": 43448.24399999991,
      "d": 206.8963999999978,
      "v": 100
    },
    {
      "midi": 56,
      "hit": false,
      "t": 43448.24399999991,
      "d": 206.8963999999978,
      "v": 100
    },
    {
      "midi": 59,
      "hit": false,
      "t": 43448.24399999991,
      "d": 206.8963999999978,
      "v": 100
    },
    {
      "midi": 74,
      "hit": false,
      "t": 43448.243999999984,
      "d": 206.8963999999978,
      "v": 100
    },
    {
      "midi": 49,
      "hit": false,
      "t": 43706.86449999991,
      "d": 206.8963999999978,
      "v": 100
    },
    {
      "midi": 54,
      "hit": false,
      "t": 43706.86449999991,
      "d": 206.8963999999978,
      "v": 100
    },
    {
      "midi": 57,
      "hit": false,
      "t": 43706.86449999991,
      "d": 206.8963999999978,
      "v": 100
    },
    {
      "midi": 60,
      "hit": false,
      "t": 43706.86449999991,
      "d": 206.8963999999978,
      "v": 100
    },
    {
      "midi": 64,
      "hit": false,
      "t": 43706.86449999991,
      "d": 206.8963999999978,
      "v": 100
    },
    {
      "midi": 72,
      "hit": false,
      "t": 43706.86449999998,
      "d": 103.4481999999989,
      "v": 100
    },
    {
      "midi": 71,
      "hit": false,
      "t": 43836.174749999984,
      "d": 103.4481999999989,
      "v": 100
    },
    {
      "midi": 54,
      "hit": false,
      "t": 43965.484999999906,
      "d": 206.8963999999978,
      "v": 100
    },
    {
      "midi": 57,
      "hit": false,
      "t": 43965.484999999906,
      "d": 206.8963999999978,
      "v": 100
    },
    {
      "midi": 60,
      "hit": false,
      "t": 43965.484999999906,
      "d": 206.8963999999978,
      "v": 100
    },
    {
      "midi": 64,
      "hit": false,
      "t": 43965.484999999906,
      "d": 206.8963999999978,
      "v": 100
    },
    {
      "midi": 72,
      "hit": false,
      "t": 43965.484999999986,
      "d": 1086.206100000003,
      "v": 100
    },
    {
      "midi": 40,
      "hit": false,
      "t": 44224.1054999999,
      "d": 206.8963999999978,
      "v": 100
    },
    {
      "midi": 57,
      "hit": false,
      "t": 44224.1054999999,
      "d": 206.8963999999978,
      "v": 100
    },
    {
      "midi": 60,
      "hit": false,
      "t": 44224.1054999999,
      "d": 206.8963999999978,
      "v": 100
    },
    {
      "midi": 64,
      "hit": false,
      "t": 44224.1054999999,
      "d": 206.8963999999978,
      "v": 100
    },
    {
      "midi": 54,
      "hit": false,
      "t": 44482.7259999999,
      "d": 206.8963999999978,
      "v": 100
    },
    {
      "midi": 57,
      "hit": false,
      "t": 44482.7259999999,
      "d": 206.8963999999978,
      "v": 100
    },
    {
      "midi": 60,
      "hit": false,
      "t": 44482.7259999999,
      "d": 206.8963999999978,
      "v": 100
    },
    {
      "midi": 64,
      "hit": false,
      "t": 44482.7259999999,
      "d": 206.8963999999978,
      "v": 100
    },
    {
      "midi": 54,
      "hit": false,
      "t": 44741.3464999999,
      "d": 206.8963999999978,
      "v": 100
    },
    {
      "midi": 57,
      "hit": false,
      "t": 44741.3464999999,
      "d": 206.8963999999978,
      "v": 100
    },
    {
      "midi": 60,
      "hit": false,
      "t": 44741.3464999999,
      "d": 206.8963999999978,
      "v": 100
    },
    {
      "midi": 64,
      "hit": false,
      "t": 44741.3464999999,
      "d": 206.8963999999978,
      "v": 100
    },
    {
      "midi": 54,
      "hit": false,
      "t": 44999.966999999895,
      "d": 206.8963999999978,
      "v": 100
    },
    {
      "midi": 57,
      "hit": false,
      "t": 44999.966999999895,
      "d": 206.8963999999978,
      "v": 100
    },
    {
      "midi": 60,
      "hit": false,
      "t": 44999.966999999895,
      "d": 206.8963999999978,
      "v": 100
    },
    {
      "midi": 64,
      "hit": false,
      "t": 44999.966999999895,
      "d": 206.8963999999978,
      "v": 100
    },
    {
      "midi": 40,
      "hit": false,
      "t": 45258.58749999989,
      "d": 206.8963999999978,
      "v": 100
    },
    {
      "midi": 57,
      "hit": false,
      "t": 45258.58749999989,
      "d": 206.8963999999978,
      "v": 100
    },
    {
      "midi": 60,
      "hit": false,
      "t": 45258.58749999989,
      "d": 206.8963999999978,
      "v": 100
    },
    {
      "midi": 64,
      "hit": false,
      "t": 45258.58749999989,
      "d": 206.8963999999978,
      "v": 100
    },
    {
      "midi": 54,
      "hit": false,
      "t": 45517.20799999989,
      "d": 206.8963999999978,
      "v": 100
    },
    {
      "midi": 57,
      "hit": false,
      "t": 45517.20799999989,
      "d": 206.8963999999978,
      "v": 100
    },
    {
      "midi": 60,
      "hit": false,
      "t": 45517.20799999989,
      "d": 206.8963999999978,
      "v": 100
    },
    {
      "midi": 64,
      "hit": false,
      "t": 45517.20799999989,
      "d": 206.8963999999978,
      "v": 100
    },
    {
      "midi": 72,
      "hit": false,
      "t": 45517.20799999999,
      "d": 206.8963999999978,
      "v": 100
    },
    {
      "midi": 49,
      "hit": false,
      "t": 45775.82849999989,
      "d": 206.8963999999978,
      "v": 100
    },
    {
      "midi": 54,
      "hit": false,
      "t": 45775.82849999989,
      "d": 206.8963999999978,
      "v": 100
    },
    {
      "midi": 58,
      "hit": false,
      "t": 45775.82849999989,
      "d": 206.8963999999978,
      "v": 100
    },
    {
      "midi": 62,
      "hit": false,
      "t": 45775.82849999989,
      "d": 206.8963999999978,
      "v": 100
    },
    {
      "midi": 65,
      "hit": false,
      "t": 45775.82849999989,
      "d": 206.8963999999978,
      "v": 100
    },
    {
      "midi": 74,
      "hit": false,
      "t": 45775.82849999999,
      "d": 620.6892000000007,
      "v": 100
    },
    {
      "midi": 54,
      "hit": false,
      "t": 46034.448999999884,
      "d": 206.8963999999978,
      "v": 100
    },
    {
      "midi": 58,
      "hit": false,
      "t": 46034.448999999884,
      "d": 206.8963999999978,
      "v": 100
    },
    {
      "midi": 62,
      "hit": false,
      "t": 46034.448999999884,
      "d": 206.8963999999978,
      "v": 100
    },
    {
      "midi": 65,
      "hit": false,
      "t": 46034.448999999884,
      "d": 206.8963999999978,
      "v": 100
    },
    {
      "midi": 40,
      "hit": false,
      "t": 46293.06949999988,
      "d": 206.8963999999978,
      "v": 100
    },
    {
      "midi": 58,
      "hit": false,
      "t": 46293.06949999988,
      "d": 206.8963999999978,
      "v": 100
    },
    {
      "midi": 62,
      "hit": false,
      "t": 46293.06949999988,
      "d": 206.8963999999978,
      "v": 100
    },
    {
      "midi": 65,
      "hit": false,
      "t": 46293.06949999988,
      "d": 206.8963999999978,
      "v": 100
    },
    {
      "midi": 54,
      "hit": false,
      "t": 46551.68999999988,
      "d": 206.8963999999978,
      "v": 100
    },
    {
      "midi": 58,
      "hit": false,
      "t": 46551.68999999988,
      "d": 206.8963999999978,
      "v": 100
    },
    {
      "midi": 62,
      "hit": false,
      "t": 46551.68999999988,
      "d": 206.8963999999978,
      "v": 100
    },
    {
      "midi": 65,
      "hit": false,
      "t": 46551.68999999988,
      "d": 206.8963999999978,
      "v": 100
    },
    {
      "midi": 74,
      "hit": false,
      "t": 46551.68999999999,
      "d": 206.8963999999978,
      "v": 100
    },
    {
      "midi": 54,
      "hit": false,
      "t": 46810.310499999876,
      "d": 206.8963999999978,
      "v": 100
    },
    {
      "midi": 52,
      "hit": false,
      "t": 46810.310499999876,
      "d": 206.8963999999978,
      "v": 100
    },
    {
      "midi": 56,
      "hit": false,
      "t": 46810.310499999876,
      "d": 206.8963999999978,
      "v": 100
    },
    {
      "midi": 59,
      "hit": false,
      "t": 46810.310499999876,
      "d": 206.8963999999978,
      "v": 100
    },
    {
      "midi": 76,
      "hit": false,
      "t": 46810.310499999985,
      "d": 413.7928000000029,
      "v": 100
    },
    {
      "midi": 54,
      "hit": false,
      "t": 47068.93099999987,
      "d": 206.8963999999978,
      "v": 100
    },
    {
      "midi": 52,
      "hit": false,
      "t": 47068.93099999987,
      "d": 206.8963999999978,
      "v": 100
    },
    {
      "midi": 56,
      "hit": false,
      "t": 47068.93099999987,
      "d": 206.8963999999978,
      "v": 100
    },
    {
      "midi": 59,
      "hit": false,
      "t": 47068.93099999987,
      "d": 206.8963999999978,
      "v": 100
    },
    {
      "midi": 40,
      "hit": false,
      "t": 47327.55149999987,
      "d": 206.8963999999978,
      "v": 100
    },
    {
      "midi": 52,
      "hit": false,
      "t": 47327.55149999987,
      "d": 206.8963999999978,
      "v": 100
    },
    {
      "midi": 56,
      "hit": false,
      "t": 47327.55149999987,
      "d": 206.8963999999978,
      "v": 100
    },
    {
      "midi": 59,
      "hit": false,
      "t": 47327.55149999987,
      "d": 206.8963999999978,
      "v": 100
    },
    {
      "midi": 77,
      "hit": false,
      "t": 47327.55149999999,
      "d": 413.7928000000029,
      "v": 100
    },
    {
      "midi": 54,
      "hit": false,
      "t": 47586.17199999987,
      "d": 206.8963999999978,
      "v": 100
    },
    {
      "midi": 52,
      "hit": false,
      "t": 47586.17199999987,
      "d": 206.8963999999978,
      "v": 100
    },
    {
      "midi": 56,
      "hit": false,
      "t": 47586.17199999987,
      "d": 206.8963999999978,
      "v": 100
    },
    {
      "midi": 59,
      "hit": false,
      "t": 47586.17199999987,
      "d": 206.8963999999978,
      "v": 100
    },
    {
      "midi": 49,
      "hit": false,
      "t": 47844.792499999865,
      "d": 206.8963999999978,
      "v": 100
    },
    {
      "midi": 40,
      "hit": false,
      "t": 47844.792499999865,
      "d": 206.8963999999978,
      "v": 100
    },
    {
      "midi": 57,
      "hit": false,
      "t": 47844.792499999865,
      "d": 206.8963999999978,
      "v": 100
    },
    {
      "midi": 61,
      "hit": false,
      "t": 47844.792499999865,
      "d": 206.8963999999978,
      "v": 100
    },
    {
      "midi": 64,
      "hit": false,
      "t": 47844.792499999865,
      "d": 206.8963999999978,
      "v": 100
    },
    {
      "midi": 76,
      "hit": false,
      "t": 47844.79249999999,
      "d": 827.5855999999985,
      "v": 100
    },
    {
      "midi": 49,
      "hit": false,
      "t": 48103.41299999986,
      "d": 206.8963999999978,
      "v": 100
    },
    {
      "midi": 40,
      "hit": false,
      "t": 48103.41299999986,
      "d": 206.8963999999978,
      "v": 100
    },
    {
      "midi": 57,
      "hit": false,
      "t": 48103.41299999986,
      "d": 206.8963999999978,
      "v": 100
    },
    {
      "midi": 61,
      "hit": false,
      "t": 48103.41299999986,
      "d": 206.8963999999978,
      "v": 100
    },
    {
      "midi": 64,
      "hit": false,
      "t": 48103.41299999986,
      "d": 206.8963999999978,
      "v": 100
    },
    {
      "midi": 49,
      "hit": false,
      "t": 48362.03349999986,
      "d": 103.4481999999989,
      "v": 100
    },
    {
      "midi": 40,
      "hit": false,
      "t": 48362.03349999986,
      "d": 103.4481999999989,
      "v": 100
    },
    {
      "midi": 57,
      "hit": false,
      "t": 48362.03349999986,
      "d": 206.8963999999978,
      "v": 100
    },
    {
      "midi": 61,
      "hit": false,
      "t": 48362.03349999986,
      "d": 206.8963999999978,
      "v": 100
    },
    {
      "midi": 64,
      "hit": false,
      "t": 48362.03349999986,
      "d": 206.8963999999978,
      "v": 100
    },
    {
      "midi": 49,
      "hit": false,
      "t": 48491.34374999986,
      "d": 103.4481999999989,
      "v": 100
    },
    {
      "midi": 40,
      "hit": false,
      "t": 48491.34374999986,
      "d": 103.4481999999989,
      "v": 100
    },
    {
      "midi": 57,
      "hit": false,
      "t": 48620.65399999986,
      "d": 206.8963999999978,
      "v": 100
    },
    {
      "midi": 61,
      "hit": false,
      "t": 48620.65399999986,
      "d": 206.8963999999978,
      "v": 100
    },
    {
      "midi": 64,
      "hit": false,
      "t": 48620.65399999986,
      "d": 206.8963999999978,
      "v": 100
    },
    {
      "midi": 49,
      "hit": false,
      "t": 48620.653999999864,
      "d": 103.4481999999989,
      "v": 100
    },
    {
      "midi": 40,
      "hit": false,
      "t": 48620.653999999864,
      "d": 103.4481999999989,
      "v": 100
    },
    {
      "midi": 49,
      "hit": false,
      "t": 48749.964249999866,
      "d": 103.4481999999989,
      "v": 100
    },
    {
      "midi": 40,
      "hit": false,
      "t": 48749.964249999866,
      "d": 103.4481999999989,
      "v": 100
    },
    {
      "midi": 72,
      "hit": false,
      "t": 49137.89499999999,
      "d": 206.8963999999978,
      "v": 100
    },
    {
      "midi": 77,
      "hit": false,
      "t": 49396.51549999999,
      "d": 206.8963999999978,
      "v": 100
    },
    {
      "midi": 76,
      "hit": false,
      "t": 49655.135999999984,
      "d": 103.4481999999989,
      "v": 100
    },
    {
      "midi": 77,
      "hit": false,
      "t": 49784.446249999986,
      "d": 956.8958500000008,
      "v": 100
    },
    {
      "midi": 53,
      "hit": false,
      "t": 49913.75649999986,
      "d": 206.8963999999978,
      "v": 100
    },
    {
      "midi": 57,
      "hit": false,
      "t": 49913.75649999986,
      "d": 206.8963999999978,
      "v": 100
    },
    {
      "midi": 60,
      "hit": false,
      "t": 49913.75649999986,
      "d": 206.8963999999978,
      "v": 100
    },
    {
      "midi": 49,
      "hit": false,
      "t": 49913.756499999865,
      "d": 206.8963999999978,
      "v": 100
    },
    {
      "midi": 54,
      "hit": false,
      "t": 49913.756499999865,
      "d": 206.8963999999978,
      "v": 100
    },
    {
      "midi": 53,
      "hit": false,
      "t": 50172.376999999855,
      "d": 206.8963999999978,
      "v": 100
    },
    {
      "midi": 57,
      "hit": false,
      "t": 50172.376999999855,
      "d": 206.8963999999978,
      "v": 100
    },
    {
      "midi": 60,
      "hit": false,
      "t": 50172.376999999855,
      "d": 206.8963999999978,
      "v": 100
    },
    {
      "midi": 54,
      "hit": false,
      "t": 50172.37699999986,
      "d": 206.8963999999978,
      "v": 100
    },
    {
      "midi": 53,
      "hit": false,
      "t": 50430.99749999985,
      "d": 206.8963999999978,
      "v": 100
    },
    {
      "midi": 57,
      "hit": false,
      "t": 50430.99749999985,
      "d": 206.8963999999978,
      "v": 100
    },
    {
      "midi": 60,
      "hit": false,
      "t": 50430.99749999985,
      "d": 206.8963999999978,
      "v": 100
    },
    {
      "midi": 40,
      "hit": false,
      "t": 50430.99749999986,
      "d": 206.8963999999978,
      "v": 100
    },
    {
      "midi": 53,
      "hit": false,
      "t": 50689.61799999985,
      "d": 206.8963999999978,
      "v": 100
    },
    {
      "midi": 57,
      "hit": false,
      "t": 50689.61799999985,
      "d": 206.8963999999978,
      "v": 100
    },
    {
      "midi": 60,
      "hit": false,
      "t": 50689.61799999985,
      "d": 206.8963999999978,
      "v": 100
    },
    {
      "midi": 54,
      "hit": false,
      "t": 50689.61799999986,
      "d": 206.8963999999978,
      "v": 100
    },
    {
      "midi": 60,
      "hit": false,
      "t": 50948.23849999985,
      "d": 206.8963999999978,
      "v": 100
    },
    {
      "midi": 64,
      "hit": false,
      "t": 50948.23849999985,
      "d": 206.8963999999978,
      "v": 100
    },
    {
      "midi": 67,
      "hit": false,
      "t": 50948.23849999985,
      "d": 206.8963999999978,
      "v": 100
    },
    {
      "midi": 54,
      "hit": false,
      "t": 50948.238499999854,
      "d": 206.8963999999978,
      "v": 100
    },
    {
      "midi": 60,
      "hit": false,
      "t": 51206.858999999844,
      "d": 206.8963999999978,
      "v": 100
    },
    {
      "midi": 64,
      "hit": false,
      "t": 51206.858999999844,
      "d": 206.8963999999978,
      "v": 100
    },
    {
      "midi": 67,
      "hit": false,
      "t": 51206.858999999844,
      "d": 206.8963999999978,
      "v": 100
    },
    {
      "midi": 54,
      "hit": false,
      "t": 51206.85899999985,
      "d": 206.8963999999978,
      "v": 100
    },
    {
      "midi": 72,
      "hit": false,
      "t": 51206.85899999999,
      "d": 206.8963999999978,
      "v": 100
    },
    {
      "midi": 60,
      "hit": false,
      "t": 51465.47949999984,
      "d": 206.8963999999978,
      "v": 100
    },
    {
      "midi": 64,
      "hit": false,
      "t": 51465.47949999984,
      "d": 206.8963999999978,
      "v": 100
    },
    {
      "midi": 67,
      "hit": false,
      "t": 51465.47949999984,
      "d": 206.8963999999978,
      "v": 100
    },
    {
      "midi": 40,
      "hit": false,
      "t": 51465.47949999985,
      "d": 206.8963999999978,
      "v": 100
    },
    {
      "midi": 79,
      "hit": false,
      "t": 51465.47949999999,
      "d": 206.8963999999978,
      "v": 100
    },
    {
      "midi": 60,
      "hit": false,
      "t": 51724.09999999984,
      "d": 206.8963999999978,
      "v": 100
    },
    {
      "midi": 64,
      "hit": false,
      "t": 51724.09999999984,
      "d": 206.8963999999978,
      "v": 100
    },
    {
      "midi": 67,
      "hit": false,
      "t": 51724.09999999984,
      "d": 206.8963999999978,
      "v": 100
    },
    {
      "midi": 54,
      "hit": false,
      "t": 51724.099999999846,
      "d": 206.8963999999978,
      "v": 100
    },
    {
      "midi": 76,
      "hit": false,
      "t": 51724.099999999984,
      "d": 103.4481999999989,
      "v": 100
    },
    {
      "midi": 77,
      "hit": false,
      "t": 51853.410249999986,
      "d": 956.8958500000008,
      "v": 100
    },
    {
      "midi": 50,
      "hit": false,
      "t": 51982.720499999836,
      "d": 206.8963999999978,
      "v": 100
    },
    {
      "midi": 53,
      "hit": false,
      "t": 51982.720499999836,
      "d": 206.8963999999978,
      "v": 100
    },
    {
      "midi": 57,
      "hit": false,
      "t": 51982.720499999836,
      "d": 206.8963999999978,
      "v": 100
    },
    {
      "midi": 49,
      "hit": false,
      "t": 51982.72049999984,
      "d": 206.8963999999978,
      "v": 100
    },
    {
      "midi": 54,
      "hit": false,
      "t": 51982.72049999984,
      "d": 206.8963999999978,
      "v": 100
    },
    {
      "midi": 50,
      "hit": false,
      "t": 52241.34099999983,
      "d": 206.8963999999978,
      "v": 100
    },
    {
      "midi": 53,
      "hit": false,
      "t": 52241.34099999983,
      "d": 206.8963999999978,
      "v": 100
    },
    {
      "midi": 57,
      "hit": false,
      "t": 52241.34099999983,
      "d": 206.8963999999978,
      "v": 100
    },
    {
      "midi": 54,
      "hit": false,
      "t": 52241.34099999984,
      "d": 206.8963999999978,
      "v": 100
    },
    {
      "midi": 50,
      "hit": false,
      "t": 52499.96149999983,
      "d": 206.8963999999978,
      "v": 100
    },
    {
      "midi": 53,
      "hit": false,
      "t": 52499.96149999983,
      "d": 206.8963999999978,
      "v": 100
    },
    {
      "midi": 57,
      "hit": false,
      "t": 52499.96149999983,
      "d": 206.8963999999978,
      "v": 100
    },
    {
      "midi": 40,
      "hit": false,
      "t": 52499.96149999984,
      "d": 206.8963999999978,
      "v": 100
    },
    {
      "midi": 50,
      "hit": false,
      "t": 52758.58199999983,
      "d": 206.8963999999978,
      "v": 100
    },
    {
      "midi": 53,
      "hit": false,
      "t": 52758.58199999983,
      "d": 206.8963999999978,
      "v": 100
    },
    {
      "midi": 57,
      "hit": false,
      "t": 52758.58199999983,
      "d": 206.8963999999978,
      "v": 100
    },
    {
      "midi": 54,
      "hit": false,
      "t": 52758.581999999835,
      "d": 206.8963999999978,
      "v": 100
    },
    {
      "midi": 60,
      "hit": false,
      "t": 53017.202499999825,
      "d": 206.8963999999978,
      "v": 100
    },
    {
      "midi": 64,
      "hit": false,
      "t": 53017.202499999825,
      "d": 206.8963999999978,
      "v": 100
    },
    {
      "midi": 67,
      "hit": false,
      "t": 53017.202499999825,
      "d": 206.8963999999978,
      "v": 100
    },
    {
      "midi": 54,
      "hit": false,
      "t": 53017.20249999983,
      "d": 206.8963999999978,
      "v": 100
    },
    {
      "midi": 60,
      "hit": false,
      "t": 53275.82299999982,
      "d": 206.8963999999978,
      "v": 100
    },
    {
      "midi": 64,
      "hit": false,
      "t": 53275.82299999982,
      "d": 206.8963999999978,
      "v": 100
    },
    {
      "midi": 67,
      "hit": false,
      "t": 53275.82299999982,
      "d": 206.8963999999978,
      "v": 100
    },
    {
      "midi": 54,
      "hit": false,
      "t": 53275.82299999983,
      "d": 206.8963999999978,
      "v": 100
    },
    {
      "midi": 77,
      "hit": false,
      "t": 53275.82299999999,
      "d": 206.8963999999978,
      "v": 100
    },
    {
      "midi": 60,
      "hit": false,
      "t": 53534.44349999982,
      "d": 206.8963999999978,
      "v": 100
    },
    {
      "midi": 64,
      "hit": false,
      "t": 53534.44349999982,
      "d": 206.8963999999978,
      "v": 100
    },
    {
      "midi": 67,
      "hit": false,
      "t": 53534.44349999982,
      "d": 206.8963999999978,
      "v": 100
    },
    {
      "midi": 40,
      "hit": false,
      "t": 53534.44349999983,
      "d": 206.8963999999978,
      "v": 100
    },
    {
      "midi": 76,
      "hit": false,
      "t": 53534.44349999999,
      "d": 206.8963999999978,
      "v": 100
    },
    {
      "midi": 60,
      "hit": false,
      "t": 53793.06399999982,
      "d": 206.8963999999978,
      "v": 100
    },
    {
      "midi": 64,
      "hit": false,
      "t": 53793.06399999982,
      "d": 206.8963999999978,
      "v": 100
    },
    {
      "midi": 67,
      "hit": false,
      "t": 53793.06399999982,
      "d": 206.8963999999978,
      "v": 100
    },
    {
      "midi": 54,
      "hit": false,
      "t": 53793.063999999824,
      "d": 206.8963999999978,
      "v": 100
    },
    {
      "midi": 72,
      "hit": false,
      "t": 53793.063999999984,
      "d": 103.4481999999989,
      "v": 100
    },
    {
      "midi": 74,
      "hit": false,
      "t": 53922.374249999986,
      "d": 749.999450000003,
      "v": 100
    },
    {
      "midi": 58,
      "hit": false,
      "t": 54051.684499999814,
      "d": 206.8963999999978,
      "v": 100
    },
    {
      "midi": 62,
      "hit": false,
      "t": 54051.684499999814,
      "d": 206.8963999999978,
      "v": 100
    },
    {
      "midi": 65,
      "hit": false,
      "t": 54051.684499999814,
      "d": 206.8963999999978,
      "v": 100
    },
    {
      "midi": 49,
      "hit": false,
      "t": 54051.68449999982,
      "d": 206.8963999999978,
      "v": 100
    },
    {
      "midi": 54,
      "hit": false,
      "t": 54051.68449999982,
      "d": 206.8963999999978,
      "v": 100
    },
    {
      "midi": 58,
      "hit": false,
      "t": 54310.30499999981,
      "d": 206.8963999999978,
      "v": 100
    },
    {
      "midi": 62,
      "hit": false,
      "t": 54310.30499999981,
      "d": 206.8963999999978,
      "v": 100
    },
    {
      "midi": 65,
      "hit": false,
      "t": 54310.30499999981,
      "d": 206.8963999999978,
      "v": 100
    },
    {
      "midi": 54,
      "hit": false,
      "t": 54310.30499999982,
      "d": 206.8963999999978,
      "v": 100
    },
    {
      "midi": 58,
      "hit": false,
      "t": 54568.92549999981,
      "d": 206.8963999999978,
      "v": 100
    },
    {
      "midi": 62,
      "hit": false,
      "t": 54568.92549999981,
      "d": 206.8963999999978,
      "v": 100
    },
    {
      "midi": 65,
      "hit": false,
      "t": 54568.92549999981,
      "d": 206.8963999999978,
      "v": 100
    },
    {
      "midi": 40,
      "hit": false,
      "t": 54568.925499999816,
      "d": 206.8963999999978,
      "v": 100
    },
    {
      "midi": 58,
      "hit": false,
      "t": 54827.545999999806,
      "d": 206.8963999999978,
      "v": 100
    },
    {
      "midi": 62,
      "hit": false,
      "t": 54827.545999999806,
      "d": 206.8963999999978,
      "v": 100
    },
    {
      "midi": 65,
      "hit": false,
      "t": 54827.545999999806,
      "d": 206.8963999999978,
      "v": 100
    },
    {
      "midi": 54,
      "hit": false,
      "t": 54827.54599999981,
      "d": 206.8963999999978,
      "v": 100
    },
    {
      "midi": 74,
      "hit": false,
      "t": 54827.54599999999,
      "d": 206.8963999999978,
      "v": 100
    },
    {
      "midi": 60,
      "hit": false,
      "t": 55086.1664999998,
      "d": 206.8963999999978,
      "v": 100
    },
    {
      "midi": 64,
      "hit": false,
      "t": 55086.1664999998,
      "d": 206.8963999999978,
      "v": 100
    },
    {
      "midi": 67,
      "hit": false,
      "t": 55086.1664999998,
      "d": 206.8963999999978,
      "v": 100
    },
    {
      "midi": 54,
      "hit": false,
      "t": 55086.16649999981,
      "d": 206.8963999999978,
      "v": 100
    },
    {
      "midi": 72,
      "hit": false,
      "t": 55086.166499999985,
      "d": 310.3445999999967,
      "v": 100
    },
    {
      "midi": 60,
      "hit": false,
      "t": 55344.7869999998,
      "d": 206.8963999999978,
      "v": 100
    },
    {
      "midi": 64,
      "hit": false,
      "t": 55344.7869999998,
      "d": 206.8963999999978,
      "v": 100
    },
    {
      "midi": 67,
      "hit": false,
      "t": 55344.7869999998,
      "d": 206.8963999999978,
      "v": 100
    },
    {
      "midi": 54,
      "hit": false,
      "t": 55344.78699999981,
      "d": 206.8963999999978,
      "v": 100
    },
    {
      "midi": 67,
      "hit": false,
      "t": 55474.097249999984,
      "d": 336.2066500000001,
      "v": 100
    },
    {
      "midi": 60,
      "hit": false,
      "t": 55603.4074999998,
      "d": 206.8963999999978,
      "v": 100
    },
    {
      "midi": 64,
      "hit": false,
      "t": 55603.4074999998,
      "d": 206.8963999999978,
      "v": 100
    },
    {
      "midi": 67,
      "hit": false,
      "t": 55603.4074999998,
      "d": 206.8963999999978,
      "v": 100
    },
    {
      "midi": 40,
      "hit": false,
      "t": 55603.407499999805,
      "d": 206.8963999999978,
      "v": 100
    },
    {
      "midi": 60,
      "hit": false,
      "t": 55862.027999999795,
      "d": 206.8963999999978,
      "v": 100
    },
    {
      "midi": 64,
      "hit": false,
      "t": 55862.027999999795,
      "d": 206.8963999999978,
      "v": 100
    },
    {
      "midi": 67,
      "hit": false,
      "t": 55862.027999999795,
      "d": 206.8963999999978,
      "v": 100
    },
    {
      "midi": 54,
      "hit": false,
      "t": 55862.0279999998,
      "d": 206.8963999999978,
      "v": 100
    },
    {
      "midi": 70,
      "hit": false,
      "t": 55862.027999999984,
      "d": 206.8963999999978,
      "v": 100
    },
    {
      "midi": 53,
      "hit": false,
      "t": 56120.64849999979,
      "d": 206.8963999999978,
      "v": 100
    },
    {
      "midi": 57,
      "hit": false,
      "t": 56120.64849999979,
      "d": 206.8963999999978,
      "v": 100
    },
    {
      "midi": 60,
      "hit": false,
      "t": 56120.64849999979,
      "d": 206.8963999999978,
      "v": 100
    },
    {
      "midi": 49,
      "hit": false,
      "t": 56120.6484999998,
      "d": 206.8963999999978,
      "v": 100
    },
    {
      "midi": 54,
      "hit": false,
      "t": 56120.6484999998,
      "d": 206.8963999999978,
      "v": 100
    },
    {
      "midi": 70,
      "hit": false,
      "t": 56120.64849999998,
      "d": 413.7928000000029,
      "v": 100
    },
    {
      "midi": 53,
      "hit": false,
      "t": 56379.26899999979,
      "d": 206.8963999999978,
      "v": 100
    },
    {
      "midi": 57,
      "hit": false,
      "t": 56379.26899999979,
      "d": 206.8963999999978,
      "v": 100
    },
    {
      "midi": 60,
      "hit": false,
      "t": 56379.26899999979,
      "d": 206.8963999999978,
      "v": 100
    },
    {
      "midi": 54,
      "hit": false,
      "t": 56379.2689999998,
      "d": 206.8963999999978,
      "v": 100
    },
    {
      "midi": 53,
      "hit": false,
      "t": 56637.88949999979,
      "d": 206.8963999999978,
      "v": 100
    },
    {
      "midi": 57,
      "hit": false,
      "t": 56637.88949999979,
      "d": 206.8963999999978,
      "v": 100
    },
    {
      "midi": 60,
      "hit": false,
      "t": 56637.88949999979,
      "d": 206.8963999999978,
      "v": 100
    },
    {
      "midi": 40,
      "hit": false,
      "t": 56637.889499999794,
      "d": 206.8963999999978,
      "v": 100
    },
    {
      "midi": 70,
      "hit": false,
      "t": 56637.88949999998,
      "d": 206.8963999999978,
      "v": 100
    },
    {
      "midi": 53,
      "hit": false,
      "t": 56896.509999999784,
      "d": 206.8963999999978,
      "v": 100
    },
    {
      "midi": 57,
      "hit": false,
      "t": 56896.509999999784,
      "d": 206.8963999999978,
      "v": 100
    },
    {
      "midi": 60,
      "hit": false,
      "t": 56896.509999999784,
      "d": 206.8963999999978,
      "v": 100
    },
    {
      "midi": 54,
      "hit": false,
      "t": 56896.50999999979,
      "d": 206.8963999999978,
      "v": 100
    },
    {
      "midi": 72,
      "hit": false,
      "t": 56896.50999999998,
      "d": 103.4481999999989,
      "v": 100
    },
    {
      "midi": 69,
      "hit": false,
      "t": 57025.82024999998,
      "d": 543.1030499999979,
      "v": 100
    },
    {
      "midi": 60,
      "hit": false,
      "t": 57155.13049999978,
      "d": 206.8963999999978,
      "v": 100
    },
    {
      "midi": 64,
      "hit": false,
      "t": 57155.13049999978,
      "d": 206.8963999999978,
      "v": 100
    },
    {
      "midi": 67,
      "hit": false,
      "t": 57155.13049999978,
      "d": 206.8963999999978,
      "v": 100
    },
    {
      "midi": 54,
      "hit": false,
      "t": 57155.13049999979,
      "d": 206.8963999999978,
      "v": 100
    },
    {
      "midi": 60,
      "hit": false,
      "t": 57413.75099999978,
      "d": 206.8963999999978,
      "v": 100
    },
    {
      "midi": 64,
      "hit": false,
      "t": 57413.75099999978,
      "d": 206.8963999999978,
      "v": 100
    },
    {
      "midi": 67,
      "hit": false,
      "t": 57413.75099999978,
      "d": 206.8963999999978,
      "v": 100
    },
    {
      "midi": 54,
      "hit": false,
      "t": 57413.750999999786,
      "d": 206.8963999999978,
      "v": 100
    },
    {
      "midi": 60,
      "hit": false,
      "t": 57672.371499999776,
      "d": 206.8963999999978,
      "v": 100
    },
    {
      "midi": 64,
      "hit": false,
      "t": 57672.371499999776,
      "d": 206.8963999999978,
      "v": 100
    },
    {
      "midi": 67,
      "hit": false,
      "t": 57672.371499999776,
      "d": 206.8963999999978,
      "v": 100
    },
    {
      "midi": 40,
      "hit": false,
      "t": 57672.37149999978,
      "d": 206.8963999999978,
      "v": 100
    },
    {
      "midi": 67,
      "hit": false,
      "t": 57672.37149999998,
      "d": 206.8963999999978,
      "v": 100
    },
    {
      "midi": 60,
      "hit": false,
      "t": 57930.99199999977,
      "d": 206.8963999999978,
      "v": 100
    },
    {
      "midi": 64,
      "hit": false,
      "t": 57930.99199999977,
      "d": 206.8963999999978,
      "v": 100
    },
    {
      "midi": 67,
      "hit": false,
      "t": 57930.99199999977,
      "d": 206.8963999999978,
      "v": 100
    },
    {
      "midi": 54,
      "hit": false,
      "t": 57930.99199999978,
      "d": 206.8963999999978,
      "v": 100
    },
    {
      "midi": 69,
      "hit": false,
      "t": 57930.99199999998,
      "d": 103.4481999999989,
      "v": 100
    },
    {
      "midi": 65,
      "hit": false,
      "t": 58060.30224999998,
      "d": 749.999450000003,
      "v": 100
    },
    {
      "midi": 50,
      "hit": false,
      "t": 58189.61249999977,
      "d": 206.8963999999978,
      "v": 100
    },
    {
      "midi": 53,
      "hit": false,
      "t": 58189.61249999977,
      "d": 206.8963999999978,
      "v": 100
    },
    {
      "midi": 57,
      "hit": false,
      "t": 58189.61249999977,
      "d": 206.8963999999978,
      "v": 100
    },
    {
      "midi": 49,
      "hit": false,
      "t": 58189.61249999978,
      "d": 206.8963999999978,
      "v": 100
    },
    {
      "midi": 54,
      "hit": false,
      "t": 58189.61249999978,
      "d": 206.8963999999978,
      "v": 100
    },
    {
      "midi": 50,
      "hit": false,
      "t": 58448.23299999977,
      "d": 206.8963999999978,
      "v": 100
    },
    {
      "midi": 53,
      "hit": false,
      "t": 58448.23299999977,
      "d": 206.8963999999978,
      "v": 100
    },
    {
      "midi": 57,
      "hit": false,
      "t": 58448.23299999977,
      "d": 206.8963999999978,
      "v": 100
    },
    {
      "midi": 54,
      "hit": false,
      "t": 58448.232999999775,
      "d": 206.8963999999978,
      "v": 100
    },
    {
      "midi": 50,
      "hit": false,
      "t": 58706.853499999765,
      "d": 206.8963999999978,
      "v": 100
    },
    {
      "midi": 53,
      "hit": false,
      "t": 58706.853499999765,
      "d": 206.8963999999978,
      "v": 100
    },
    {
      "midi": 57,
      "hit": false,
      "t": 58706.853499999765,
      "d": 206.8963999999978,
      "v": 100
    },
    {
      "midi": 40,
      "hit": false,
      "t": 58706.85349999977,
      "d": 206.8963999999978,
      "v": 100
    },
    {
      "midi": 50,
      "hit": false,
      "t": 58965.47399999976,
      "d": 206.8963999999978,
      "v": 100
    },
    {
      "midi": 53,
      "hit": false,
      "t": 58965.47399999976,
      "d": 206.8963999999978,
      "v": 100
    },
    {
      "midi": 57,
      "hit": false,
      "t": 58965.47399999976,
      "d": 206.8963999999978,
      "v": 100
    },
    {
      "midi": 54,
      "hit": false,
      "t": 58965.47399999977,
      "d": 206.8963999999978,
      "v": 100
    },
    {
      "midi": 65,
      "hit": false,
      "t": 58965.47399999998,
      "d": 206.8963999999978,
      "v": 100
    },
    {
      "midi": 50,
      "hit": false,
      "t": 59224.09449999976,
      "d": 206.8963999999978,
      "v": 100
    },
    {
      "midi": 53,
      "hit": false,
      "t": 59224.09449999976,
      "d": 206.8963999999978,
      "v": 100
    },
    {
      "midi": 57,
      "hit": false,
      "t": 59224.09449999976,
      "d": 206.8963999999978,
      "v": 100
    },
    {
      "midi": 61,
      "hit": false,
      "t": 59224.09449999976,
      "d": 206.8963999999978,
      "v": 100
    },
    {
      "midi": 54,
      "hit": false,
      "t": 59224.09449999977,
      "d": 206.8963999999978,
      "v": 100
    },
    {
      "midi": 67,
      "hit": false,
      "t": 59224.09449999998,
      "d": 310.3445999999967,
      "v": 100
    },
    {
      "midi": 50,
      "hit": false,
      "t": 59482.71499999976,
      "d": 206.8963999999978,
      "v": 100
    },
    {
      "midi": 53,
      "hit": false,
      "t": 59482.71499999976,
      "d": 206.8963999999978,
      "v": 100
    },
    {
      "midi": 57,
      "hit": false,
      "t": 59482.71499999976,
      "d": 206.8963999999978,
      "v": 100
    },
    {
      "midi": 61,
      "hit": false,
      "t": 59482.71499999976,
      "d": 206.8963999999978,
      "v": 100
    },
    {
      "midi": 54,
      "hit": false,
      "t": 59482.714999999764,
      "d": 206.8963999999978,
      "v": 100
    },
    {
      "midi": 65,
      "hit": false,
      "t": 59612.02524999998,
      "d": 336.2066500000001,
      "v": 100
    },
    {
      "midi": 50,
      "hit": false,
      "t": 59741.335499999754,
      "d": 206.8963999999978,
      "v": 100
    },
    {
      "midi": 53,
      "hit": false,
      "t": 59741.335499999754,
      "d": 206.8963999999978,
      "v": 100
    },
    {
      "midi": 57,
      "hit": false,
      "t": 59741.335499999754,
      "d": 206.8963999999978,
      "v": 100
    },
    {
      "midi": 61,
      "hit": false,
      "t": 59741.335499999754,
      "d": 206.8963999999978,
      "v": 100
    },
    {
      "midi": 40,
      "hit": false,
      "t": 59741.33549999976,
      "d": 206.8963999999978,
      "v": 100
    },
    {
      "midi": 50,
      "hit": false,
      "t": 59999.95599999975,
      "d": 206.8963999999978,
      "v": 100
    },
    {
      "midi": 53,
      "hit": false,
      "t": 59999.95599999975,
      "d": 206.8963999999978,
      "v": 100
    },
    {
      "midi": 57,
      "hit": false,
      "t": 59999.95599999975,
      "d": 206.8963999999978,
      "v": 100
    },
    {
      "midi": 61,
      "hit": false,
      "t": 59999.95599999975,
      "d": 206.8963999999978,
      "v": 100
    },
    {
      "midi": 54,
      "hit": false,
      "t": 59999.95599999976,
      "d": 206.8963999999978,
      "v": 100
    },
    {
      "midi": 67,
      "hit": false,
      "t": 59999.95599999998,
      "d": 206.8963999999978,
      "v": 100
    },
    {
      "midi": 50,
      "hit": false,
      "t": 60258.57649999975,
      "d": 206.8963999999978,
      "v": 100
    },
    {
      "midi": 53,
      "hit": false,
      "t": 60258.57649999975,
      "d": 206.8963999999978,
      "v": 100
    },
    {
      "midi": 57,
      "hit": false,
      "t": 60258.57649999975,
      "d": 206.8963999999978,
      "v": 100
    },
    {
      "midi": 60,
      "hit": false,
      "t": 60258.57649999975,
      "d": 206.8963999999978,
      "v": 100
    },
    {
      "midi": 49,
      "hit": false,
      "t": 60258.576499999755,
      "d": 206.8963999999978,
      "v": 100
    },
    {
      "midi": 54,
      "hit": false,
      "t": 60258.576499999755,
      "d": 206.8963999999978,
      "v": 100
    },
    {
      "midi": 69,
      "hit": false,
      "t": 60258.576499999974,
      "d": 310.3445999999967,
      "v": 100
    },
    {
      "midi": 50,
      "hit": false,
      "t": 60517.196999999745,
      "d": 206.8963999999978,
      "v": 100
    },
    {
      "midi": 53,
      "hit": false,
      "t": 60517.196999999745,
      "d": 206.8963999999978,
      "v": 100
    },
    {
      "midi": 57,
      "hit": false,
      "t": 60517.196999999745,
      "d": 206.8963999999978,
      "v": 100
    },
    {
      "midi": 60,
      "hit": false,
      "t": 60517.196999999745,
      "d": 206.8963999999978,
      "v": 100
    },
    {
      "midi": 54,
      "hit": false,
      "t": 60517.19699999975,
      "d": 206.8963999999978,
      "v": 100
    },
    {
      "midi": 70,
      "hit": false,
      "t": 60646.50724999997,
      "d": 336.2066500000001,
      "v": 100
    },
    {
      "midi": 50,
      "hit": false,
      "t": 60775.81749999974,
      "d": 206.8963999999978,
      "v": 100
    },
    {
      "midi": 53,
      "hit": false,
      "t": 60775.81749999974,
      "d": 206.8963999999978,
      "v": 100
    },
    {
      "midi": 57,
      "hit": false,
      "t": 60775.81749999974,
      "d": 206.8963999999978,
      "v": 100
    },
    {
      "midi": 60,
      "hit": false,
      "t": 60775.81749999974,
      "d": 206.8963999999978,
      "v": 100
    },
    {
      "midi": 40,
      "hit": false,
      "t": 60775.81749999975,
      "d": 206.8963999999978,
      "v": 100
    },
    {
      "midi": 50,
      "hit": false,
      "t": 61034.43799999974,
      "d": 206.8963999999978,
      "v": 100
    },
    {
      "midi": 53,
      "hit": false,
      "t": 61034.43799999974,
      "d": 206.8963999999978,
      "v": 100
    },
    {
      "midi": 57,
      "hit": false,
      "t": 61034.43799999974,
      "d": 206.8963999999978,
      "v": 100
    },
    {
      "midi": 60,
      "hit": false,
      "t": 61034.43799999974,
      "d": 206.8963999999978,
      "v": 100
    },
    {
      "midi": 54,
      "hit": false,
      "t": 61034.43799999975,
      "d": 206.8963999999978,
      "v": 100
    },
    {
      "midi": 72,
      "hit": false,
      "t": 61034.43799999997,
      "d": 103.4481999999989,
      "v": 100
    },
    {
      "midi": 74,
      "hit": false,
      "t": 61163.748249999975,
      "d": 336.2066500000001,
      "v": 100
    },
    {
      "midi": 50,
      "hit": false,
      "t": 61293.05849999974,
      "d": 206.8963999999978,
      "v": 100
    },
    {
      "midi": 53,
      "hit": false,
      "t": 61293.05849999974,
      "d": 206.8963999999978,
      "v": 100
    },
    {
      "midi": 57,
      "hit": false,
      "t": 61293.05849999974,
      "d": 206.8963999999978,
      "v": 100
    },
    {
      "midi": 59,
      "hit": false,
      "t": 61293.05849999974,
      "d": 206.8963999999978,
      "v": 100
    },
    {
      "midi": 54,
      "hit": false,
      "t": 61293.058499999745,
      "d": 206.8963999999978,
      "v": 100
    },
    {
      "midi": 50,
      "hit": false,
      "t": 61551.678999999735,
      "d": 206.8963999999978,
      "v": 100
    },
    {
      "midi": 53,
      "hit": false,
      "t": 61551.678999999735,
      "d": 206.8963999999978,
      "v": 100
    },
    {
      "midi": 57,
      "hit": false,
      "t": 61551.678999999735,
      "d": 206.8963999999978,
      "v": 100
    },
    {
      "midi": 59,
      "hit": false,
      "t": 61551.678999999735,
      "d": 206.8963999999978,
      "v": 100
    },
    {
      "midi": 54,
      "hit": false,
      "t": 61551.67899999974,
      "d": 206.8963999999978,
      "v": 100
    },
    {
      "midi": 69,
      "hit": false,
      "t": 61551.678999999975,
      "d": 206.8963999999978,
      "v": 100
    },
    {
      "midi": 50,
      "hit": false,
      "t": 61810.29949999973,
      "d": 206.8963999999978,
      "v": 100
    },
    {
      "midi": 53,
      "hit": false,
      "t": 61810.29949999973,
      "d": 206.8963999999978,
      "v": 100
    },
    {
      "midi": 57,
      "hit": false,
      "t": 61810.29949999973,
      "d": 206.8963999999978,
      "v": 100
    },
    {
      "midi": 59,
      "hit": false,
      "t": 61810.29949999973,
      "d": 206.8963999999978,
      "v": 100
    },
    {
      "midi": 40,
      "hit": false,
      "t": 61810.29949999974,
      "d": 206.8963999999978,
      "v": 100
    },
    {
      "midi": 67,
      "hit": false,
      "t": 61810.29949999997,
      "d": 206.8963999999978,
      "v": 100
    },
    {
      "midi": 50,
      "hit": false,
      "t": 62068.91999999973,
      "d": 206.8963999999978,
      "v": 100
    },
    {
      "midi": 53,
      "hit": false,
      "t": 62068.91999999973,
      "d": 206.8963999999978,
      "v": 100
    },
    {
      "midi": 57,
      "hit": false,
      "t": 62068.91999999973,
      "d": 206.8963999999978,
      "v": 100
    },
    {
      "midi": 59,
      "hit": false,
      "t": 62068.91999999973,
      "d": 206.8963999999978,
      "v": 100
    },
    {
      "midi": 54,
      "hit": false,
      "t": 62068.919999999736,
      "d": 206.8963999999978,
      "v": 100
    },
    {
      "midi": 65,
      "hit": false,
      "t": 62068.91999999997,
      "d": 103.4481999999989,
      "v": 100
    },
    {
      "midi": 67,
      "hit": false,
      "t": 62198.23024999997,
      "d": 1784.4814499999993,
      "v": 100
    },
    {
      "midi": 60,
      "hit": false,
      "t": 62327.540499999726,
      "d": 206.8963999999978,
      "v": 100
    },
    {
      "midi": 65,
      "hit": false,
      "t": 62327.540499999726,
      "d": 206.8963999999978,
      "v": 100
    },
    {
      "midi": 67,
      "hit": false,
      "t": 62327.540499999726,
      "d": 206.8963999999978,
      "v": 100
    },
    {
      "midi": 49,
      "hit": false,
      "t": 62327.54049999973,
      "d": 206.8963999999978,
      "v": 100
    },
    {
      "midi": 54,
      "hit": false,
      "t": 62327.54049999973,
      "d": 206.8963999999978,
      "v": 100
    },
    {
      "midi": 60,
      "hit": false,
      "t": 62586.16099999972,
      "d": 206.8963999999978,
      "v": 100
    },
    {
      "midi": 65,
      "hit": false,
      "t": 62586.16099999972,
      "d": 206.8963999999978,
      "v": 100
    },
    {
      "midi": 67,
      "hit": false,
      "t": 62586.16099999972,
      "d": 206.8963999999978,
      "v": 100
    },
    {
      "midi": 54,
      "hit": false,
      "t": 62586.16099999973,
      "d": 206.8963999999978,
      "v": 100
    },
    {
      "midi": 60,
      "hit": false,
      "t": 62844.78149999972,
      "d": 206.8963999999978,
      "v": 100
    },
    {
      "midi": 65,
      "hit": false,
      "t": 62844.78149999972,
      "d": 206.8963999999978,
      "v": 100
    },
    {
      "midi": 67,
      "hit": false,
      "t": 62844.78149999972,
      "d": 206.8963999999978,
      "v": 100
    },
    {
      "midi": 40,
      "hit": false,
      "t": 62844.78149999973,
      "d": 206.8963999999978,
      "v": 100
    },
    {
      "midi": 60,
      "hit": false,
      "t": 63103.40199999972,
      "d": 206.8963999999978,
      "v": 100
    },
    {
      "midi": 65,
      "hit": false,
      "t": 63103.40199999972,
      "d": 206.8963999999978,
      "v": 100
    },
    {
      "midi": 67,
      "hit": false,
      "t": 63103.40199999972,
      "d": 206.8963999999978,
      "v": 100
    },
    {
      "midi": 54,
      "hit": false,
      "t": 63103.401999999725,
      "d": 206.8963999999978,
      "v": 100
    },
    {
      "midi": 60,
      "hit": false,
      "t": 63362.022499999715,
      "d": 206.8963999999978,
      "v": 100
    },
    {
      "midi": 65,
      "hit": false,
      "t": 63362.022499999715,
      "d": 206.8963999999978,
      "v": 100
    },
    {
      "midi": 67,
      "hit": false,
      "t": 63362.022499999715,
      "d": 206.8963999999978,
      "v": 100
    },
    {
      "midi": 54,
      "hit": false,
      "t": 63362.02249999972,
      "d": 206.8963999999978,
      "v": 100
    },
    {
      "midi": 60,
      "hit": false,
      "t": 63620.64299999971,
      "d": 206.8963999999978,
      "v": 100
    },
    {
      "midi": 65,
      "hit": false,
      "t": 63620.64299999971,
      "d": 206.8963999999978,
      "v": 100
    },
    {
      "midi": 67,
      "hit": false,
      "t": 63620.64299999971,
      "d": 206.8963999999978,
      "v": 100
    },
    {
      "midi": 54,
      "hit": false,
      "t": 63620.64299999972,
      "d": 206.8963999999978,
      "v": 100
    },
    {
      "midi": 60,
      "hit": false,
      "t": 63879.26349999971,
      "d": 206.8963999999978,
      "v": 100
    },
    {
      "midi": 65,
      "hit": false,
      "t": 63879.26349999971,
      "d": 206.8963999999978,
      "v": 100
    },
    {
      "midi": 67,
      "hit": false,
      "t": 63879.26349999971,
      "d": 206.8963999999978,
      "v": 100
    },
    {
      "midi": 40,
      "hit": false,
      "t": 63879.26349999972,
      "d": 206.8963999999978,
      "v": 100
    },
    {
      "midi": 60,
      "hit": false,
      "t": 64137.88399999971,
      "d": 206.8963999999978,
      "v": 100
    },
    {
      "midi": 65,
      "hit": false,
      "t": 64137.88399999971,
      "d": 206.8963999999978,
      "v": 100
    },
    {
      "midi": 67,
      "hit": false,
      "t": 64137.88399999971,
      "d": 206.8963999999978,
      "v": 100
    },
    {
      "midi": 54,
      "hit": false,
      "t": 64137.883999999714,
      "d": 206.8963999999978,
      "v": 100
    },
    {
      "midi": 60,
      "hit": false,
      "t": 64396.504499999704,
      "d": 206.8963999999978,
      "v": 100
    },
    {
      "midi": 64,
      "hit": false,
      "t": 64396.504499999704,
      "d": 206.8963999999978,
      "v": 100
    },
    {
      "midi": 67,
      "hit": false,
      "t": 64396.504499999704,
      "d": 206.8963999999978,
      "v": 100
    },
    {
      "midi": 49,
      "hit": false,
      "t": 64396.50449999971,
      "d": 206.8963999999978,
      "v": 100
    },
    {
      "midi": 54,
      "hit": false,
      "t": 64396.50449999971,
      "d": 206.8963999999978,
      "v": 100
    },
    {
      "midi": 60,
      "hit": false,
      "t": 64655.1249999997,
      "d": 206.8963999999978,
      "v": 100
    },
    {
      "midi": 64,
      "hit": false,
      "t": 64655.1249999997,
      "d": 206.8963999999978,
      "v": 100
    },
    {
      "midi": 67,
      "hit": false,
      "t": 64655.1249999997,
      "d": 206.8963999999978,
      "v": 100
    },
    {
      "midi": 54,
      "hit": false,
      "t": 64655.12499999971,
      "d": 206.8963999999978,
      "v": 100
    },
    {
      "midi": 60,
      "hit": false,
      "t": 64913.7454999997,
      "d": 206.8963999999978,
      "v": 100
    },
    {
      "midi": 64,
      "hit": false,
      "t": 64913.7454999997,
      "d": 206.8963999999978,
      "v": 100
    },
    {
      "midi": 67,
      "hit": false,
      "t": 64913.7454999997,
      "d": 206.8963999999978,
      "v": 100
    },
    {
      "midi": 40,
      "hit": false,
      "t": 64913.745499999706,
      "d": 206.8963999999978,
      "v": 100
    },
    {
      "midi": 60,
      "hit": false,
      "t": 65172.365999999696,
      "d": 206.8963999999978,
      "v": 100
    },
    {
      "midi": 64,
      "hit": false,
      "t": 65172.365999999696,
      "d": 206.8963999999978,
      "v": 100
    },
    {
      "midi": 67,
      "hit": false,
      "t": 65172.365999999696,
      "d": 206.8963999999978,
      "v": 100
    },
    {
      "midi": 54,
      "hit": false,
      "t": 65172.3659999997,
      "d": 206.8963999999978,
      "v": 100
    },
    {
      "midi": 60,
      "hit": false,
      "t": 65430.98649999969,
      "d": 206.8963999999978,
      "v": 100
    },
    {
      "midi": 64,
      "hit": false,
      "t": 65430.98649999969,
      "d": 206.8963999999978,
      "v": 100
    },
    {
      "midi": 67,
      "hit": false,
      "t": 65430.98649999969,
      "d": 206.8963999999978,
      "v": 100
    },
    {
      "midi": 54,
      "hit": false,
      "t": 65430.9864999997,
      "d": 206.8964000000051,
      "v": 100
    },
    {
      "midi": 60,
      "hit": false,
      "t": 65689.6069999997,
      "d": 206.8963999999978,
      "v": 100
    },
    {
      "midi": 64,
      "hit": false,
      "t": 65689.6069999997,
      "d": 206.8963999999978,
      "v": 100
    },
    {
      "midi": 67,
      "hit": false,
      "t": 65689.6069999997,
      "d": 206.8963999999978,
      "v": 100
    },
    {
      "midi": 54,
      "hit": false,
      "t": 65689.60699999971,
      "d": 206.8963999999978,
      "v": 100
    },
    {
      "midi": 72,
      "hit": false,
      "t": 65689.60699999997,
      "d": 206.8963999999978,
      "v": 100
    },
    {
      "midi": 60,
      "hit": false,
      "t": 65948.2274999997,
      "d": 206.8963999999978,
      "v": 100
    },
    {
      "midi": 64,
      "hit": false,
      "t": 65948.2274999997,
      "d": 206.8963999999978,
      "v": 100
    },
    {
      "midi": 67,
      "hit": false,
      "t": 65948.2274999997,
      "d": 206.8963999999978,
      "v": 100
    },
    {
      "midi": 40,
      "hit": false,
      "t": 65948.22749999972,
      "d": 206.8963999999978,
      "v": 100
    },
    {
      "midi": 77,
      "hit": false,
      "t": 65948.22749999998,
      "d": 206.8963999999978,
      "v": 100
    },
    {
      "midi": 60,
      "hit": false,
      "t": 66206.8479999997,
      "d": 206.8963999999978,
      "v": 100
    },
    {
      "midi": 64,
      "hit": false,
      "t": 66206.8479999997,
      "d": 206.8963999999978,
      "v": 100
    },
    {
      "midi": 67,
      "hit": false,
      "t": 66206.8479999997,
      "d": 206.8963999999978,
      "v": 100
    },
    {
      "midi": 54,
      "hit": false,
      "t": 66206.84799999972,
      "d": 206.8963999999978,
      "v": 100
    },
    {
      "midi": 76,
      "hit": false,
      "t": 66206.84799999998,
      "d": 103.4481999999989,
      "v": 100
    },
    {
      "midi": 77,
      "hit": false,
      "t": 66336.15824999998,
      "d": 956.8958500000008,
      "v": 100
    },
    {
      "midi": 53,
      "hit": false,
      "t": 66465.46849999971,
      "d": 206.8963999999978,
      "v": 100
    },
    {
      "midi": 57,
      "hit": false,
      "t": 66465.46849999971,
      "d": 206.8963999999978,
      "v": 100
    },
    {
      "midi": 60,
      "hit": false,
      "t": 66465.46849999971,
      "d": 206.8963999999978,
      "v": 100
    },
    {
      "midi": 49,
      "hit": false,
      "t": 66465.46849999973,
      "d": 206.8963999999978,
      "v": 100
    },
    {
      "midi": 54,
      "hit": false,
      "t": 66465.46849999973,
      "d": 206.8963999999978,
      "v": 100
    },
    {
      "midi": 53,
      "hit": false,
      "t": 66724.08899999972,
      "d": 206.8963999999978,
      "v": 100
    },
    {
      "midi": 57,
      "hit": false,
      "t": 66724.08899999972,
      "d": 206.8963999999978,
      "v": 100
    },
    {
      "midi": 60,
      "hit": false,
      "t": 66724.08899999972,
      "d": 206.8963999999978,
      "v": 100
    },
    {
      "midi": 54,
      "hit": false,
      "t": 66724.08899999973,
      "d": 206.8963999999978,
      "v": 100
    },
    {
      "midi": 53,
      "hit": false,
      "t": 66982.70949999972,
      "d": 206.8963999999978,
      "v": 100
    },
    {
      "midi": 57,
      "hit": false,
      "t": 66982.70949999972,
      "d": 206.8963999999978,
      "v": 100
    },
    {
      "midi": 60,
      "hit": false,
      "t": 66982.70949999972,
      "d": 206.8963999999978,
      "v": 100
    },
    {
      "midi": 40,
      "hit": false,
      "t": 66982.70949999974,
      "d": 206.8963999999978,
      "v": 100
    },
    {
      "midi": 53,
      "hit": false,
      "t": 67241.32999999973,
      "d": 206.8963999999978,
      "v": 100
    },
    {
      "midi": 57,
      "hit": false,
      "t": 67241.32999999973,
      "d": 206.8963999999978,
      "v": 100
    },
    {
      "midi": 60,
      "hit": false,
      "t": 67241.32999999973,
      "d": 206.8963999999978,
      "v": 100
    },
    {
      "midi": 54,
      "hit": false,
      "t": 67241.32999999974,
      "d": 206.8963999999978,
      "v": 100
    },
    {
      "midi": 60,
      "hit": false,
      "t": 67499.95049999973,
      "d": 206.8963999999978,
      "v": 100
    },
    {
      "midi": 64,
      "hit": false,
      "t": 67499.95049999973,
      "d": 206.8963999999978,
      "v": 100
    },
    {
      "midi": 67,
      "hit": false,
      "t": 67499.95049999973,
      "d": 206.8963999999978,
      "v": 100
    },
    {
      "midi": 54,
      "hit": false,
      "t": 67499.95049999974,
      "d": 206.8963999999978,
      "v": 100
    },
    {
      "midi": 60,
      "hit": false,
      "t": 67758.57099999973,
      "d": 206.8963999999978,
      "v": 100
    },
    {
      "midi": 64,
      "hit": false,
      "t": 67758.57099999973,
      "d": 206.8963999999978,
      "v": 100
    },
    {
      "midi": 67,
      "hit": false,
      "t": 67758.57099999973,
      "d": 206.8963999999978,
      "v": 100
    },
    {
      "midi": 54,
      "hit": false,
      "t": 67758.57099999975,
      "d": 206.8963999999978,
      "v": 100
    },
    {
      "midi": 72,
      "hit": false,
      "t": 67758.57099999998,
      "d": 206.8963999999978,
      "v": 100
    },
    {
      "midi": 60,
      "hit": false,
      "t": 68017.19149999974,
      "d": 206.8963999999978,
      "v": 100
    },
    {
      "midi": 64,
      "hit": false,
      "t": 68017.19149999974,
      "d": 206.8963999999978,
      "v": 100
    },
    {
      "midi": 67,
      "hit": false,
      "t": 68017.19149999974,
      "d": 206.8963999999978,
      "v": 100
    },
    {
      "midi": 40,
      "hit": false,
      "t": 68017.19149999975,
      "d": 206.8963999999978,
      "v": 100
    },
    {
      "midi": 79,
      "hit": false,
      "t": 68017.19149999999,
      "d": 206.8963999999978,
      "v": 100
    },
    {
      "midi": 60,
      "hit": false,
      "t": 68275.81199999974,
      "d": 206.8963999999978,
      "v": 100
    },
    {
      "midi": 64,
      "hit": false,
      "t": 68275.81199999974,
      "d": 206.8963999999978,
      "v": 100
    },
    {
      "midi": 67,
      "hit": false,
      "t": 68275.81199999974,
      "d": 206.8963999999978,
      "v": 100
    },
    {
      "midi": 54,
      "hit": false,
      "t": 68275.81199999976,
      "d": 206.8963999999978,
      "v": 100
    },
    {
      "midi": 76,
      "hit": false,
      "t": 68275.81199999999,
      "d": 103.4481999999989,
      "v": 100
    },
    {
      "midi": 77,
      "hit": false,
      "t": 68405.12224999999,
      "d": 956.8958500000008,
      "v": 100
    },
    {
      "midi": 50,
      "hit": false,
      "t": 68534.43249999975,
      "d": 206.8963999999978,
      "v": 100
    },
    {
      "midi": 53,
      "hit": false,
      "t": 68534.43249999975,
      "d": 206.8963999999978,
      "v": 100
    },
    {
      "midi": 57,
      "hit": false,
      "t": 68534.43249999975,
      "d": 206.8963999999978,
      "v": 100
    },
    {
      "midi": 49,
      "hit": false,
      "t": 68534.43249999976,
      "d": 206.8963999999978,
      "v": 100
    },
    {
      "midi": 54,
      "hit": false,
      "t": 68534.43249999976,
      "d": 206.8963999999978,
      "v": 100
    },
    {
      "midi": 50,
      "hit": false,
      "t": 68793.05299999975,
      "d": 206.8963999999978,
      "v": 100
    },
    {
      "midi": 53,
      "hit": false,
      "t": 68793.05299999975,
      "d": 206.8963999999978,
      "v": 100
    },
    {
      "midi": 57,
      "hit": false,
      "t": 68793.05299999975,
      "d": 206.8963999999978,
      "v": 100
    },
    {
      "midi": 54,
      "hit": false,
      "t": 68793.05299999977,
      "d": 206.8963999999978,
      "v": 100
    },
    {
      "midi": 50,
      "hit": false,
      "t": 69051.67349999976,
      "d": 206.8963999999978,
      "v": 100
    },
    {
      "midi": 53,
      "hit": false,
      "t": 69051.67349999976,
      "d": 206.8963999999978,
      "v": 100
    },
    {
      "midi": 57,
      "hit": false,
      "t": 69051.67349999976,
      "d": 206.8963999999978,
      "v": 100
    },
    {
      "midi": 40,
      "hit": false,
      "t": 69051.67349999977,
      "d": 206.8963999999978,
      "v": 100
    },
    {
      "midi": 50,
      "hit": false,
      "t": 69310.29399999976,
      "d": 206.8963999999978,
      "v": 100
    },
    {
      "midi": 53,
      "hit": false,
      "t": 69310.29399999976,
      "d": 206.8963999999978,
      "v": 100
    },
    {
      "midi": 57,
      "hit": false,
      "t": 69310.29399999976,
      "d": 206.8963999999978,
      "v": 100
    },
    {
      "midi": 54,
      "hit": false,
      "t": 69310.29399999978,
      "d": 206.8963999999978,
      "v": 100
    },
    {
      "midi": 60,
      "hit": false,
      "t": 69568.91449999977,
      "d": 206.8963999999978,
      "v": 100
    },
    {
      "midi": 64,
      "hit": false,
      "t": 69568.91449999977,
      "d": 206.8963999999978,
      "v": 100
    },
    {
      "midi": 67,
      "hit": false,
      "t": 69568.91449999977,
      "d": 206.8963999999978,
      "v": 100
    },
    {
      "midi": 54,
      "hit": false,
      "t": 69568.91449999978,
      "d": 206.8963999999978,
      "v": 100
    },
    {
      "midi": 60,
      "hit": false,
      "t": 69827.53499999977,
      "d": 206.8963999999978,
      "v": 100
    },
    {
      "midi": 64,
      "hit": false,
      "t": 69827.53499999977,
      "d": 206.8963999999978,
      "v": 100
    },
    {
      "midi": 67,
      "hit": false,
      "t": 69827.53499999977,
      "d": 206.8963999999978,
      "v": 100
    },
    {
      "midi": 54,
      "hit": false,
      "t": 69827.53499999979,
      "d": 206.8963999999978,
      "v": 100
    },
    {
      "midi": 77,
      "hit": false,
      "t": 69827.53499999999,
      "d": 206.8963999999978,
      "v": 100
    },
    {
      "midi": 60,
      "hit": false,
      "t": 70086.15549999978,
      "d": 206.8963999999978,
      "v": 100
    },
    {
      "midi": 64,
      "hit": false,
      "t": 70086.15549999978,
      "d": 206.8963999999978,
      "v": 100
    },
    {
      "midi": 67,
      "hit": false,
      "t": 70086.15549999978,
      "d": 206.8963999999978,
      "v": 100
    },
    {
      "midi": 40,
      "hit": false,
      "t": 70086.15549999979,
      "d": 206.8963999999978,
      "v": 100
    },
    {
      "midi": 76,
      "hit": false,
      "t": 70086.1555,
      "d": 206.8963999999978,
      "v": 100
    },
    {
      "midi": 60,
      "hit": false,
      "t": 70344.77599999978,
      "d": 206.8963999999978,
      "v": 100
    },
    {
      "midi": 64,
      "hit": false,
      "t": 70344.77599999978,
      "d": 206.8963999999978,
      "v": 100
    },
    {
      "midi": 67,
      "hit": false,
      "t": 70344.77599999978,
      "d": 206.8963999999978,
      "v": 100
    },
    {
      "midi": 54,
      "hit": false,
      "t": 70344.7759999998,
      "d": 206.8963999999978,
      "v": 100
    },
    {
      "midi": 72,
      "hit": false,
      "t": 70344.776,
      "d": 103.4481999999989,
      "v": 100
    },
    {
      "midi": 74,
      "hit": false,
      "t": 70474.08625,
      "d": 749.999450000003,
      "v": 100
    },
    {
      "midi": 58,
      "hit": false,
      "t": 70603.39649999978,
      "d": 206.8963999999978,
      "v": 100
    },
    {
      "midi": 62,
      "hit": false,
      "t": 70603.39649999978,
      "d": 206.8963999999978,
      "v": 100
    },
    {
      "midi": 65,
      "hit": false,
      "t": 70603.39649999978,
      "d": 206.8963999999978,
      "v": 100
    },
    {
      "midi": 49,
      "hit": false,
      "t": 70603.3964999998,
      "d": 206.8963999999978,
      "v": 100
    },
    {
      "midi": 54,
      "hit": false,
      "t": 70603.3964999998,
      "d": 206.8963999999978,
      "v": 100
    },
    {
      "midi": 58,
      "hit": false,
      "t": 70862.01699999979,
      "d": 206.8963999999978,
      "v": 100
    },
    {
      "midi": 62,
      "hit": false,
      "t": 70862.01699999979,
      "d": 206.8963999999978,
      "v": 100
    },
    {
      "midi": 65,
      "hit": false,
      "t": 70862.01699999979,
      "d": 206.8963999999978,
      "v": 100
    },
    {
      "midi": 54,
      "hit": false,
      "t": 70862.0169999998,
      "d": 206.8963999999978,
      "v": 100
    },
    {
      "midi": 58,
      "hit": false,
      "t": 71120.6374999998,
      "d": 206.8963999999978,
      "v": 100
    },
    {
      "midi": 62,
      "hit": false,
      "t": 71120.6374999998,
      "d": 206.8963999999978,
      "v": 100
    },
    {
      "midi": 65,
      "hit": false,
      "t": 71120.6374999998,
      "d": 206.8963999999978,
      "v": 100
    },
    {
      "midi": 40,
      "hit": false,
      "t": 71120.63749999981,
      "d": 206.8963999999978,
      "v": 100
    },
    {
      "midi": 58,
      "hit": false,
      "t": 71379.2579999998,
      "d": 206.8963999999978,
      "v": 100
    },
    {
      "midi": 62,
      "hit": false,
      "t": 71379.2579999998,
      "d": 206.8963999999978,
      "v": 100
    },
    {
      "midi": 65,
      "hit": false,
      "t": 71379.2579999998,
      "d": 206.8963999999978,
      "v": 100
    },
    {
      "midi": 54,
      "hit": false,
      "t": 71379.25799999981,
      "d": 206.8963999999978,
      "v": 100
    },
    {
      "midi": 74,
      "hit": false,
      "t": 71379.258,
      "d": 206.8963999999978,
      "v": 100
    },
    {
      "midi": 57,
      "hit": false,
      "t": 71637.8784999998,
      "d": 206.8963999999978,
      "v": 100
    },
    {
      "midi": 61,
      "hit": false,
      "t": 71637.8784999998,
      "d": 206.8963999999978,
      "v": 100
    },
    {
      "midi": 64,
      "hit": false,
      "t": 71637.8784999998,
      "d": 206.8963999999978,
      "v": 100
    },
    {
      "midi": 54,
      "hit": false,
      "t": 71637.87849999982,
      "d": 206.8963999999978,
      "v": 100
    },
    {
      "midi": 76,
      "hit": false,
      "t": 71637.8785,
      "d": 310.3445999999967,
      "v": 100
    },
    {
      "midi": 57,
      "hit": false,
      "t": 71896.4989999998,
      "d": 206.8963999999978,
      "v": 100
    },
    {
      "midi": 61,
      "hit": false,
      "t": 71896.4989999998,
      "d": 206.8963999999978,
      "v": 100
    },
    {
      "midi": 64,
      "hit": false,
      "t": 71896.4989999998,
      "d": 206.8963999999978,
      "v": 100
    },
    {
      "midi": 54,
      "hit": false,
      "t": 71896.49899999982,
      "d": 206.8963999999978,
      "v": 100
    },
    {
      "midi": 69,
      "hit": false,
      "t": 72025.80925,
      "d": 336.2066499999928,
      "v": 100
    },
    {
      "midi": 57,
      "hit": false,
      "t": 72155.11949999981,
      "d": 206.8963999999978,
      "v": 100
    },
    {
      "midi": 61,
      "hit": false,
      "t": 72155.11949999981,
      "d": 206.8963999999978,
      "v": 100
    },
    {
      "midi": 64,
      "hit": false,
      "t": 72155.11949999981,
      "d": 206.8963999999978,
      "v": 100
    },
    {
      "midi": 40,
      "hit": false,
      "t": 72155.11949999983,
      "d": 206.8963999999978,
      "v": 100
    },
    {
      "midi": 57,
      "hit": false,
      "t": 72413.73999999982,
      "d": 206.8963999999978,
      "v": 100
    },
    {
      "midi": 61,
      "hit": false,
      "t": 72413.73999999982,
      "d": 206.8963999999978,
      "v": 100
    },
    {
      "midi": 64,
      "hit": false,
      "t": 72413.73999999982,
      "d": 206.8963999999978,
      "v": 100
    },
    {
      "midi": 54,
      "hit": false,
      "t": 72413.73999999983,
      "d": 206.8963999999978,
      "v": 100
    },
    {
      "midi": 79,
      "hit": false,
      "t": 72413.74,
      "d": 206.8963999999978,
      "v": 100
    },
    {
      "midi": 50,
      "hit": false,
      "t": 72672.36049999982,
      "d": 206.8963999999978,
      "v": 100
    },
    {
      "midi": 53,
      "hit": false,
      "t": 72672.36049999982,
      "d": 206.8963999999978,
      "v": 100
    },
    {
      "midi": 57,
      "hit": false,
      "t": 72672.36049999982,
      "d": 206.8963999999978,
      "v": 100
    },
    {
      "midi": 49,
      "hit": false,
      "t": 72672.36049999984,
      "d": 206.8963999999978,
      "v": 100
    },
    {
      "midi": 54,
      "hit": false,
      "t": 72672.36049999984,
      "d": 206.8963999999978,
      "v": 100
    },
    {
      "midi": 79,
      "hit": false,
      "t": 72672.36050000001,
      "d": 413.7927999999956,
      "v": 100
    },
    {
      "midi": 50,
      "hit": false,
      "t": 72930.98099999983,
      "d": 206.8963999999978,
      "v": 100
    },
    {
      "midi": 53,
      "hit": false,
      "t": 72930.98099999983,
      "d": 206.8963999999978,
      "v": 100
    },
    {
      "midi": 57,
      "hit": false,
      "t": 72930.98099999983,
      "d": 206.8963999999978,
      "v": 100
    },
    {
      "midi": 54,
      "hit": false,
      "t": 72930.98099999984,
      "d": 206.8963999999978,
      "v": 100
    },
    {
      "midi": 50,
      "hit": false,
      "t": 73189.60149999983,
      "d": 206.8963999999978,
      "v": 100
    },
    {
      "midi": 53,
      "hit": false,
      "t": 73189.60149999983,
      "d": 206.8963999999978,
      "v": 100
    },
    {
      "midi": 57,
      "hit": false,
      "t": 73189.60149999983,
      "d": 206.8963999999978,
      "v": 100
    },
    {
      "midi": 40,
      "hit": false,
      "t": 73189.60149999984,
      "d": 206.8963999999978,
      "v": 100
    },
    {
      "midi": 79,
      "hit": false,
      "t": 73189.6015,
      "d": 206.8963999999978,
      "v": 100
    },
    {
      "midi": 50,
      "hit": false,
      "t": 73448.22199999983,
      "d": 206.8963999999978,
      "v": 100
    },
    {
      "midi": 53,
      "hit": false,
      "t": 73448.22199999983,
      "d": 206.8963999999978,
      "v": 100
    },
    {
      "midi": 57,
      "hit": false,
      "t": 73448.22199999983,
      "d": 206.8963999999978,
      "v": 100
    },
    {
      "midi": 54,
      "hit": false,
      "t": 73448.22199999985,
      "d": 206.8963999999978,
      "v": 100
    },
    {
      "midi": 81,
      "hit": false,
      "t": 73448.22200000001,
      "d": 103.4481999999989,
      "v": 100
    },
    {
      "midi": 77,
      "hit": false,
      "t": 73577.53225,
      "d": 543.1030500000052,
      "v": 100
    },
    {
      "midi": 60,
      "hit": false,
      "t": 73706.84249999984,
      "d": 206.8963999999978,
      "v": 100
    },
    {
      "midi": 64,
      "hit": false,
      "t": 73706.84249999984,
      "d": 206.8963999999978,
      "v": 100
    },
    {
      "midi": 67,
      "hit": false,
      "t": 73706.84249999984,
      "d": 206.8963999999978,
      "v": 100
    },
    {
      "midi": 54,
      "hit": false,
      "t": 73706.84249999985,
      "d": 206.8963999999978,
      "v": 100
    },
    {
      "midi": 60,
      "hit": false,
      "t": 73965.46299999984,
      "d": 206.8963999999978,
      "v": 100
    },
    {
      "midi": 64,
      "hit": false,
      "t": 73965.46299999984,
      "d": 206.8963999999978,
      "v": 100
    },
    {
      "midi": 67,
      "hit": false,
      "t": 73965.46299999984,
      "d": 206.8963999999978,
      "v": 100
    },
    {
      "midi": 54,
      "hit": false,
      "t": 73965.46299999986,
      "d": 206.8963999999978,
      "v": 100
    },
    {
      "midi": 60,
      "hit": false,
      "t": 74224.08349999985,
      "d": 206.8963999999978,
      "v": 100
    },
    {
      "midi": 64,
      "hit": false,
      "t": 74224.08349999985,
      "d": 206.8963999999978,
      "v": 100
    },
    {
      "midi": 67,
      "hit": false,
      "t": 74224.08349999985,
      "d": 206.8963999999978,
      "v": 100
    },
    {
      "midi": 40,
      "hit": false,
      "t": 74224.08349999986,
      "d": 206.8963999999978,
      "v": 100
    },
    {
      "midi": 74,
      "hit": false,
      "t": 74224.08350000001,
      "d": 206.8963999999978,
      "v": 100
    },
    {
      "midi": 60,
      "hit": false,
      "t": 74482.70399999985,
      "d": 206.8963999999978,
      "v": 100
    },
    {
      "midi": 64,
      "hit": false,
      "t": 74482.70399999985,
      "d": 206.8963999999978,
      "v": 100
    },
    {
      "midi": 67,
      "hit": false,
      "t": 74482.70399999985,
      "d": 206.8963999999978,
      "v": 100
    },
    {
      "midi": 54,
      "hit": false,
      "t": 74482.70399999987,
      "d": 206.8963999999978,
      "v": 100
    },
    {
      "midi": 76,
      "hit": false,
      "t": 74482.70400000001,
      "d": 103.4481999999989,
      "v": 100
    },
    {
      "midi": 77,
      "hit": false,
      "t": 74612.01425000001,
      "d": 1370.6886499999964,
      "v": 100
    },
    {
      "midi": 58,
      "hit": false,
      "t": 74741.32449999986,
      "d": 206.8963999999978,
      "v": 100
    },
    {
      "midi": 62,
      "hit": false,
      "t": 74741.32449999986,
      "d": 206.8963999999978,
      "v": 100
    },
    {
      "midi": 65,
      "hit": false,
      "t": 74741.32449999986,
      "d": 206.8963999999978,
      "v": 100
    },
    {
      "midi": 49,
      "hit": false,
      "t": 74741.32449999987,
      "d": 206.8963999999978,
      "v": 100
    },
    {
      "midi": 54,
      "hit": false,
      "t": 74741.32449999987,
      "d": 206.8963999999978,
      "v": 100
    },
    {
      "midi": 58,
      "hit": false,
      "t": 74999.94499999986,
      "d": 206.8963999999978,
      "v": 100
    },
    {
      "midi": 62,
      "hit": false,
      "t": 74999.94499999986,
      "d": 206.8963999999978,
      "v": 100
    },
    {
      "midi": 65,
      "hit": false,
      "t": 74999.94499999986,
      "d": 206.8963999999978,
      "v": 100
    },
    {
      "midi": 54,
      "hit": false,
      "t": 74999.94499999988,
      "d": 206.8963999999978,
      "v": 100
    },
    {
      "midi": 58,
      "hit": false,
      "t": 75258.56549999987,
      "d": 206.8963999999978,
      "v": 100
    },
    {
      "midi": 62,
      "hit": false,
      "t": 75258.56549999987,
      "d": 206.8963999999978,
      "v": 100
    },
    {
      "midi": 65,
      "hit": false,
      "t": 75258.56549999987,
      "d": 206.8963999999978,
      "v": 100
    },
    {
      "midi": 40,
      "hit": false,
      "t": 75258.56549999988,
      "d": 206.8963999999978,
      "v": 100
    },
    {
      "midi": 58,
      "hit": false,
      "t": 75517.18599999987,
      "d": 206.8963999999978,
      "v": 100
    },
    {
      "midi": 62,
      "hit": false,
      "t": 75517.18599999987,
      "d": 206.8963999999978,
      "v": 100
    },
    {
      "midi": 65,
      "hit": false,
      "t": 75517.18599999987,
      "d": 206.8963999999978,
      "v": 100
    },
    {
      "midi": 54,
      "hit": false,
      "t": 75517.18599999989,
      "d": 206.8963999999978,
      "v": 100
    },
    {
      "midi": 60,
      "hit": false,
      "t": 75775.80649999988,
      "d": 206.8963999999978,
      "v": 100
    },
    {
      "midi": 64,
      "hit": false,
      "t": 75775.80649999988,
      "d": 206.8963999999978,
      "v": 100
    },
    {
      "midi": 67,
      "hit": false,
      "t": 75775.80649999988,
      "d": 206.8963999999978,
      "v": 100
    },
    {
      "midi": 54,
      "hit": false,
      "t": 75775.80649999989,
      "d": 206.8963999999978,
      "v": 100
    },
    {
      "midi": 60,
      "hit": false,
      "t": 76034.42699999988,
      "d": 206.8963999999978,
      "v": 100
    },
    {
      "midi": 64,
      "hit": false,
      "t": 76034.42699999988,
      "d": 206.8963999999978,
      "v": 100
    },
    {
      "midi": 67,
      "hit": false,
      "t": 76034.42699999988,
      "d": 206.8963999999978,
      "v": 100
    },
    {
      "midi": 54,
      "hit": false,
      "t": 76034.4269999999,
      "d": 206.8963999999978,
      "v": 100
    },
    {
      "midi": 76,
      "hit": false,
      "t": 76034.42700000001,
      "d": 206.8963999999978,
      "v": 100
    },
    {
      "midi": 60,
      "hit": false,
      "t": 76293.04749999988,
      "d": 206.8963999999978,
      "v": 100
    },
    {
      "midi": 64,
      "hit": false,
      "t": 76293.04749999988,
      "d": 206.8963999999978,
      "v": 100
    },
    {
      "midi": 67,
      "hit": false,
      "t": 76293.04749999988,
      "d": 206.8963999999978,
      "v": 100
    },
    {
      "midi": 40,
      "hit": false,
      "t": 76293.0474999999,
      "d": 206.8963999999978,
      "v": 100
    },
    {
      "midi": 74,
      "hit": false,
      "t": 76293.04750000002,
      "d": 206.8963999999978,
      "v": 100
    },
    {
      "midi": 60,
      "hit": false,
      "t": 76551.66799999989,
      "d": 206.8963999999978,
      "v": 100
    },
    {
      "midi": 64,
      "hit": false,
      "t": 76551.66799999989,
      "d": 206.8963999999978,
      "v": 100
    },
    {
      "midi": 67,
      "hit": false,
      "t": 76551.66799999989,
      "d": 206.8963999999978,
      "v": 100
    },
    {
      "midi": 54,
      "hit": false,
      "t": 76551.6679999999,
      "d": 206.8963999999978,
      "v": 100
    },
    {
      "midi": 76,
      "hit": false,
      "t": 76551.66800000002,
      "d": 103.4481999999989,
      "v": 100
    },
    {
      "midi": 77,
      "hit": false,
      "t": 76680.97825000001,
      "d": 956.8958500000008,
      "v": 100
    },
    {
      "midi": 50,
      "hit": false,
      "t": 76810.2884999999,
      "d": 206.8963999999978,
      "v": 100
    },
    {
      "midi": 53,
      "hit": false,
      "t": 76810.2884999999,
      "d": 206.8963999999978,
      "v": 100
    },
    {
      "midi": 57,
      "hit": false,
      "t": 76810.2884999999,
      "d": 206.8963999999978,
      "v": 100
    },
    {
      "midi": 49,
      "hit": false,
      "t": 76810.28849999991,
      "d": 206.8963999999978,
      "v": 100
    },
    {
      "midi": 54,
      "hit": false,
      "t": 76810.28849999991,
      "d": 206.8963999999978,
      "v": 100
    },
    {
      "midi": 50,
      "hit": false,
      "t": 77068.9089999999,
      "d": 206.8963999999978,
      "v": 100
    },
    {
      "midi": 53,
      "hit": false,
      "t": 77068.9089999999,
      "d": 206.8963999999978,
      "v": 100
    },
    {
      "midi": 57,
      "hit": false,
      "t": 77068.9089999999,
      "d": 206.8963999999978,
      "v": 100
    },
    {
      "midi": 54,
      "hit": false,
      "t": 77068.90899999991,
      "d": 206.8963999999978,
      "v": 100
    },
    {
      "midi": 50,
      "hit": false,
      "t": 77327.5294999999,
      "d": 206.8963999999978,
      "v": 100
    },
    {
      "midi": 53,
      "hit": false,
      "t": 77327.5294999999,
      "d": 206.8963999999978,
      "v": 100
    },
    {
      "midi": 57,
      "hit": false,
      "t": 77327.5294999999,
      "d": 206.8963999999978,
      "v": 100
    },
    {
      "midi": 40,
      "hit": false,
      "t": 77327.52949999992,
      "d": 206.8963999999978,
      "v": 100
    },
    {
      "midi": 50,
      "hit": false,
      "t": 77586.1499999999,
      "d": 206.8963999999978,
      "v": 100
    },
    {
      "midi": 53,
      "hit": false,
      "t": 77586.1499999999,
      "d": 206.8963999999978,
      "v": 100
    },
    {
      "midi": 57,
      "hit": false,
      "t": 77586.1499999999,
      "d": 206.8963999999978,
      "v": 100
    },
    {
      "midi": 54,
      "hit": false,
      "t": 77586.14999999992,
      "d": 206.8963999999978,
      "v": 100
    },
    {
      "midi": 60,
      "hit": false,
      "t": 77844.77049999991,
      "d": 206.8963999999978,
      "v": 100
    },
    {
      "midi": 64,
      "hit": false,
      "t": 77844.77049999991,
      "d": 206.8963999999978,
      "v": 100
    },
    {
      "midi": 67,
      "hit": false,
      "t": 77844.77049999991,
      "d": 206.8963999999978,
      "v": 100
    },
    {
      "midi": 54,
      "hit": false,
      "t": 77844.77049999993,
      "d": 206.8963999999978,
      "v": 100
    },
    {
      "midi": 60,
      "hit": false,
      "t": 78103.39099999992,
      "d": 206.8963999999978,
      "v": 100
    },
    {
      "midi": 64,
      "hit": false,
      "t": 78103.39099999992,
      "d": 206.8963999999978,
      "v": 100
    },
    {
      "midi": 67,
      "hit": false,
      "t": 78103.39099999992,
      "d": 206.8963999999978,
      "v": 100
    },
    {
      "midi": 54,
      "hit": false,
      "t": 78103.39099999993,
      "d": 206.8963999999978,
      "v": 100
    },
    {
      "midi": 60,
      "hit": false,
      "t": 78362.01149999992,
      "d": 206.8963999999978,
      "v": 100
    },
    {
      "midi": 64,
      "hit": false,
      "t": 78362.01149999992,
      "d": 206.8963999999978,
      "v": 100
    },
    {
      "midi": 67,
      "hit": false,
      "t": 78362.01149999992,
      "d": 206.8963999999978,
      "v": 100
    },
    {
      "midi": 40,
      "hit": false,
      "t": 78362.01149999994,
      "d": 206.8963999999978,
      "v": 100
    },
    {
      "midi": 74,
      "hit": false,
      "t": 78362.01150000002,
      "d": 206.8963999999978,
      "v": 100
    },
    {
      "midi": 60,
      "hit": false,
      "t": 78620.63199999993,
      "d": 206.8963999999978,
      "v": 100
    },
    {
      "midi": 64,
      "hit": false,
      "t": 78620.63199999993,
      "d": 206.8963999999978,
      "v": 100
    },
    {
      "midi": 67,
      "hit": false,
      "t": 78620.63199999993,
      "d": 206.8963999999978,
      "v": 100
    },
    {
      "midi": 54,
      "hit": false,
      "t": 78620.63199999994,
      "d": 206.8963999999978,
      "v": 100
    },
    {
      "midi": 76,
      "hit": false,
      "t": 78620.63200000003,
      "d": 103.4481999999989,
      "v": 100
    },
    {
      "midi": 77,
      "hit": false,
      "t": 78749.94225000002,
      "d": 749.999450000003,
      "v": 100
    },
    {
      "midi": 58,
      "hit": false,
      "t": 78879.25249999993,
      "d": 206.8963999999978,
      "v": 100
    },
    {
      "midi": 62,
      "hit": false,
      "t": 78879.25249999993,
      "d": 206.8963999999978,
      "v": 100
    },
    {
      "midi": 65,
      "hit": false,
      "t": 78879.25249999993,
      "d": 206.8963999999978,
      "v": 100
    },
    {
      "midi": 49,
      "hit": false,
      "t": 78879.25249999994,
      "d": 206.8963999999978,
      "v": 100
    },
    {
      "midi": 54,
      "hit": false,
      "t": 78879.25249999994,
      "d": 206.8963999999978,
      "v": 100
    },
    {
      "midi": 58,
      "hit": false,
      "t": 79137.87299999993,
      "d": 206.8963999999978,
      "v": 100
    },
    {
      "midi": 62,
      "hit": false,
      "t": 79137.87299999993,
      "d": 206.8963999999978,
      "v": 100
    },
    {
      "midi": 65,
      "hit": false,
      "t": 79137.87299999993,
      "d": 206.8963999999978,
      "v": 100
    },
    {
      "midi": 54,
      "hit": false,
      "t": 79137.87299999995,
      "d": 206.8963999999978,
      "v": 100
    },
    {
      "midi": 58,
      "hit": false,
      "t": 79396.49349999994,
      "d": 206.8963999999978,
      "v": 100
    },
    {
      "midi": 62,
      "hit": false,
      "t": 79396.49349999994,
      "d": 206.8963999999978,
      "v": 100
    },
    {
      "midi": 65,
      "hit": false,
      "t": 79396.49349999994,
      "d": 206.8963999999978,
      "v": 100
    },
    {
      "midi": 40,
      "hit": false,
      "t": 79396.49349999995,
      "d": 206.8963999999978,
      "v": 100
    },
    {
      "midi": 58,
      "hit": false,
      "t": 79655.11399999994,
      "d": 206.8963999999978,
      "v": 100
    },
    {
      "midi": 62,
      "hit": false,
      "t": 79655.11399999994,
      "d": 206.8963999999978,
      "v": 100
    },
    {
      "midi": 65,
      "hit": false,
      "t": 79655.11399999994,
      "d": 206.8963999999978,
      "v": 100
    },
    {
      "midi": 54,
      "hit": false,
      "t": 79655.11399999996,
      "d": 206.8963999999978,
      "v": 100
    },
    {
      "midi": 77,
      "hit": false,
      "t": 79655.11400000003,
      "d": 206.8963999999978,
      "v": 100
    },
    {
      "midi": 60,
      "hit": false,
      "t": 79913.73449999995,
      "d": 206.8963999999978,
      "v": 100
    },
    {
      "midi": 64,
      "hit": false,
      "t": 79913.73449999995,
      "d": 206.8963999999978,
      "v": 100
    },
    {
      "midi": 67,
      "hit": false,
      "t": 79913.73449999995,
      "d": 206.8963999999978,
      "v": 100
    },
    {
      "midi": 54,
      "hit": false,
      "t": 79913.73449999996,
      "d": 206.8963999999978,
      "v": 100
    },
    {
      "midi": 79,
      "hit": false,
      "t": 79913.73450000004,
      "d": 310.3445999999967,
      "v": 100
    },
    {
      "midi": 60,
      "hit": false,
      "t": 80172.35499999995,
      "d": 206.8963999999978,
      "v": 100
    },
    {
      "midi": 64,
      "hit": false,
      "t": 80172.35499999995,
      "d": 206.8963999999978,
      "v": 100
    },
    {
      "midi": 67,
      "hit": false,
      "t": 80172.35499999995,
      "d": 206.8963999999978,
      "v": 100
    },
    {
      "midi": 54,
      "hit": false,
      "t": 80172.35499999997,
      "d": 206.8963999999978,
      "v": 100
    },
    {
      "midi": 77,
      "hit": false,
      "t": 80301.66525000003,
      "d": 336.2066499999928,
      "v": 100
    },
    {
      "midi": 60,
      "hit": false,
      "t": 80430.97549999996,
      "d": 206.8963999999978,
      "v": 100
    },
    {
      "midi": 64,
      "hit": false,
      "t": 80430.97549999996,
      "d": 206.8963999999978,
      "v": 100
    },
    {
      "midi": 67,
      "hit": false,
      "t": 80430.97549999996,
      "d": 206.8963999999978,
      "v": 100
    },
    {
      "midi": 40,
      "hit": false,
      "t": 80430.97549999997,
      "d": 206.8963999999978,
      "v": 100
    },
    {
      "midi": 60,
      "hit": false,
      "t": 80689.59599999996,
      "d": 206.8963999999978,
      "v": 100
    },
    {
      "midi": 64,
      "hit": false,
      "t": 80689.59599999996,
      "d": 206.8963999999978,
      "v": 100
    },
    {
      "midi": 67,
      "hit": false,
      "t": 80689.59599999996,
      "d": 206.8963999999978,
      "v": 100
    },
    {
      "midi": 54,
      "hit": false,
      "t": 80689.59599999998,
      "d": 206.8963999999978,
      "v": 100
    },
    {
      "midi": 76,
      "hit": false,
      "t": 80689.59600000003,
      "d": 206.8963999999978,
      "v": 100
    },
    {
      "midi": 53,
      "hit": false,
      "t": 80948.21649999997,
      "d": 206.8963999999978,
      "v": 100
    },
    {
      "midi": 57,
      "hit": false,
      "t": 80948.21649999997,
      "d": 206.8963999999978,
      "v": 100
    },
    {
      "midi": 60,
      "hit": false,
      "t": 80948.21649999997,
      "d": 206.8963999999978,
      "v": 100
    },
    {
      "midi": 49,
      "hit": false,
      "t": 80948.21649999998,
      "d": 206.8963999999978,
      "v": 100
    },
    {
      "midi": 54,
      "hit": false,
      "t": 80948.21649999998,
      "d": 206.8963999999978,
      "v": 100
    },
    {
      "midi": 77,
      "hit": false,
      "t": 80948.21650000004,
      "d": 1655.171199999997,
      "v": 100
    },
    {
      "midi": 53,
      "hit": false,
      "t": 81206.83699999997,
      "d": 206.8963999999978,
      "v": 100
    },
    {
      "midi": 57,
      "hit": false,
      "t": 81206.83699999997,
      "d": 206.8963999999978,
      "v": 100
    },
    {
      "midi": 60,
      "hit": false,
      "t": 81206.83699999997,
      "d": 206.8963999999978,
      "v": 100
    },
    {
      "midi": 54,
      "hit": false,
      "t": 81206.83699999998,
      "d": 206.8963999999978,
      "v": 100
    },
    {
      "midi": 53,
      "hit": false,
      "t": 81465.45749999997,
      "d": 206.8963999999978,
      "v": 100
    },
    {
      "midi": 57,
      "hit": false,
      "t": 81465.45749999997,
      "d": 206.8963999999978,
      "v": 100
    },
    {
      "midi": 60,
      "hit": false,
      "t": 81465.45749999997,
      "d": 206.8963999999978,
      "v": 100
    },
    {
      "midi": 40,
      "hit": false,
      "t": 81465.45749999999,
      "d": 206.8963999999978,
      "v": 100
    },
    {
      "midi": 53,
      "hit": false,
      "t": 81724.07799999998,
      "d": 206.8963999999978,
      "v": 100
    },
    {
      "midi": 57,
      "hit": false,
      "t": 81724.07799999998,
      "d": 206.8963999999978,
      "v": 100
    },
    {
      "midi": 60,
      "hit": false,
      "t": 81724.07799999998,
      "d": 206.8963999999978,
      "v": 100
    },
    {
      "midi": 54,
      "hit": false,
      "t": 81724.078,
      "d": 206.8963999999978,
      "v": 100
    },
    {
      "midi": 53,
      "hit": false,
      "t": 81982.69849999998,
      "d": 206.8963999999978,
      "v": 100
    },
    {
      "midi": 57,
      "hit": false,
      "t": 81982.69849999998,
      "d": 206.8963999999978,
      "v": 100
    },
    {
      "midi": 60,
      "hit": false,
      "t": 81982.69849999998,
      "d": 206.8963999999978,
      "v": 100
    },
    {
      "midi": 54,
      "hit": false,
      "t": 81982.6985,
      "d": 206.8963999999978,
      "v": 100
    },
    {
      "midi": 53,
      "hit": false,
      "t": 82241.31899999999,
      "d": 206.8963999999978,
      "v": 100
    },
    {
      "midi": 57,
      "hit": false,
      "t": 82241.31899999999,
      "d": 206.8963999999978,
      "v": 100
    },
    {
      "midi": 60,
      "hit": false,
      "t": 82241.31899999999,
      "d": 206.8963999999978,
      "v": 100
    },
    {
      "midi": 54,
      "hit": false,
      "t": 82241.319,
      "d": 206.8963999999978,
      "v": 100
    },
    {
      "midi": 53,
      "hit": false,
      "t": 82499.9395,
      "d": 206.8963999999978,
      "v": 100
    },
    {
      "midi": 57,
      "hit": false,
      "t": 82499.9395,
      "d": 206.8963999999978,
      "v": 100
    },
    {
      "midi": 60,
      "hit": false,
      "t": 82499.9395,
      "d": 206.8963999999978,
      "v": 100
    },
    {
      "midi": 40,
      "hit": false,
      "t": 82499.93950000001,
      "d": 206.8963999999978,
      "v": 100
    },
    {
      "midi": 53,
      "hit": false,
      "t": 82758.56,
      "d": 206.8963999999978,
      "v": 100
    },
    {
      "midi": 57,
      "hit": false,
      "t": 82758.56,
      "d": 206.8963999999978,
      "v": 100
    },
    {
      "midi": 60,
      "hit": false,
      "t": 82758.56,
      "d": 206.8963999999978,
      "v": 100
    },
    {
      "midi": 54,
      "hit": false,
      "t": 82758.56000000001,
      "d": 206.8963999999978,
      "v": 100
    },
    {
      "midi": 53,
      "hit": false,
      "t": 83017.1805,
      "d": 206.8963999999978,
      "v": 100
    },
    {
      "midi": 57,
      "hit": false,
      "t": 83017.1805,
      "d": 206.8963999999978,
      "v": 100
    },
    {
      "midi": 60,
      "hit": false,
      "t": 83017.1805,
      "d": 206.8963999999978,
      "v": 100
    },
    {
      "midi": 49,
      "hit": false,
      "t": 83017.18050000002,
      "d": 206.8963999999978,
      "v": 100
    },
    {
      "midi": 54,
      "hit": false,
      "t": 83017.18050000002,
      "d": 206.8963999999978,
      "v": 100
    },
    {
      "midi": 53,
      "hit": false,
      "t": 83275.801,
      "d": 206.8963999999978,
      "v": 100
    },
    {
      "midi": 57,
      "hit": false,
      "t": 83275.801,
      "d": 206.8963999999978,
      "v": 100
    },
    {
      "midi": 60,
      "hit": false,
      "t": 83275.801,
      "d": 206.8963999999978,
      "v": 100
    },
    {
      "midi": 54,
      "hit": false,
      "t": 83275.80100000002,
      "d": 206.8963999999978,
      "v": 100
    },
    {
      "midi": 53,
      "hit": false,
      "t": 83534.42150000001,
      "d": 206.8963999999978,
      "v": 100
    },
    {
      "midi": 57,
      "hit": false,
      "t": 83534.42150000001,
      "d": 206.8963999999978,
      "v": 100
    },
    {
      "midi": 60,
      "hit": false,
      "t": 83534.42150000001,
      "d": 206.8963999999978,
      "v": 100
    },
    {
      "midi": 40,
      "hit": false,
      "t": 83534.42150000003,
      "d": 206.8963999999978,
      "v": 100
    },
    {
      "midi": 53,
      "hit": false,
      "t": 83793.04200000002,
      "d": 206.8963999999978,
      "v": 100
    },
    {
      "midi": 57,
      "hit": false,
      "t": 83793.04200000002,
      "d": 206.8963999999978,
      "v": 100
    },
    {
      "midi": 60,
      "hit": false,
      "t": 83793.04200000002,
      "d": 206.8963999999978,
      "v": 100
    },
    {
      "midi": 54,
      "hit": false,
      "t": 83793.04200000003,
      "d": 206.8963999999978,
      "v": 100
    },
    {
      "midi": 53,
      "hit": false,
      "t": 84051.66250000002,
      "d": 206.8963999999978,
      "v": 100
    },
    {
      "midi": 57,
      "hit": false,
      "t": 84051.66250000002,
      "d": 206.8963999999978,
      "v": 100
    },
    {
      "midi": 60,
      "hit": false,
      "t": 84051.66250000002,
      "d": 206.8963999999978,
      "v": 100
    },
    {
      "midi": 40,
      "hit": false,
      "t": 84051.66250000003,
      "d": 103.4481999999989,
      "v": 100
    },
    {
      "midi": 40,
      "hit": false,
      "t": 84180.97275000003,
      "d": 103.4481999999989,
      "v": 100
    },
    {
      "midi": 40,
      "hit": false,
      "t": 84310.28300000002,
      "d": 103.4481999999989,
      "v": 100
    },
    {
      "midi": 53,
      "hit": false,
      "t": 84310.28300000002,
      "d": 206.8963999999978,
      "v": 100
    },
    {
      "midi": 57,
      "hit": false,
      "t": 84310.28300000002,
      "d": 206.8963999999978,
      "v": 100
    },
    {
      "midi": 60,
      "hit": false,
      "t": 84310.28300000002,
      "d": 206.8963999999978,
      "v": 100
    },
    {
      "midi": 40,
      "hit": false,
      "t": 84439.59325000002,
      "d": 103.4481999999989,
      "v": 100
    },
    {
      "midi": 49,
      "hit": false,
      "t": 84568.90350000001,
      "d": 103.4481999999989,
      "v": 100
    },
    {
      "midi": 40,
      "hit": false,
      "t": 84568.90350000001,
      "d": 103.4481999999989,
      "v": 100
    },
    {
      "midi": 53,
      "hit": false,
      "t": 84568.90350000003,
      "d": 206.8963999999978,
      "v": 100
    },
    {
      "midi": 57,
      "hit": false,
      "t": 84568.90350000003,
      "d": 206.8963999999978,
      "v": 100
    },
    {
      "midi": 60,
      "hit": false,
      "t": 84568.90350000003,
      "d": 206.8963999999978,
      "v": 100
    },
    {
      "midi": 49,
      "hit": false,
      "t": 84698.21375000001,
      "d": 103.4481999999989,
      "v": 100
    },
    {
      "midi": 40,
      "hit": false,
      "t": 84698.21375000001,
      "d": 103.4481999999989,
      "v": 100
    },
    {
      "midi": 49,
      "hit": false,
      "t": 84827.524,
      "d": 103.4481999999989,
      "v": 100
    },
    {
      "midi": 40,
      "hit": false,
      "t": 84827.524,
      "d": 103.4481999999989,
      "v": 100
    },
    {
      "midi": 62,
      "hit": false,
      "t": 84827.524,
      "d": 206.8963999999978,
      "v": 100
    },
    {
      "midi": 53,
      "hit": false,
      "t": 84827.52400000003,
      "d": 206.8963999999978,
      "v": 100
    },
    {
      "midi": 57,
      "hit": false,
      "t": 84827.52400000003,
      "d": 206.8963999999978,
      "v": 100
    },
    {
      "midi": 60,
      "hit": false,
      "t": 84827.52400000003,
      "d": 206.8963999999978,
      "v": 100
    },
    {
      "midi": 49,
      "hit": false,
      "t": 84956.83425,
      "d": 103.4481999999989,
      "v": 100
    },
    {
      "midi": 40,
      "hit": false,
      "t": 84956.83425,
      "d": 103.4481999999989,
      "v": 100
    },
    {
      "midi": 54,
      "hit": false,
      "t": 85086.1445,
      "d": 206.8963999999978,
      "v": 100
    },
    {
      "midi": 49,
      "hit": false,
      "t": 85086.1445,
      "d": 206.8963999999978,
      "v": 100
    },
    {
      "midi": 62,
      "hit": false,
      "t": 85086.14450000001,
      "d": 827.5856000000058,
      "v": 100
    },
    {
      "midi": 50,
      "hit": false,
      "t": 85086.14450000004,
      "d": 206.8963999999978,
      "v": 100
    },
    {
      "midi": 54,
      "hit": false,
      "t": 85086.14450000004,
      "d": 206.8963999999978,
      "v": 100
    },
    {
      "midi": 57,
      "hit": false,
      "t": 85086.14450000004,
      "d": 206.8963999999978,
      "v": 100
    },
    {
      "midi": 54,
      "hit": false,
      "t": 85344.765,
      "d": 206.8963999999978,
      "v": 100
    },
    {
      "midi": 50,
      "hit": false,
      "t": 85344.76500000004,
      "d": 206.8963999999978,
      "v": 100
    },
    {
      "midi": 54,
      "hit": false,
      "t": 85344.76500000004,
      "d": 206.8963999999978,
      "v": 100
    },
    {
      "midi": 57,
      "hit": false,
      "t": 85344.76500000004,
      "d": 206.8963999999978,
      "v": 100
    },
    {
      "midi": 40,
      "hit": false,
      "t": 85603.3855,
      "d": 206.8963999999978,
      "v": 100
    },
    {
      "midi": 50,
      "hit": false,
      "t": 85603.38550000005,
      "d": 206.8963999999978,
      "v": 100
    },
    {
      "midi": 54,
      "hit": false,
      "t": 85603.38550000005,
      "d": 206.8963999999978,
      "v": 100
    },
    {
      "midi": 57,
      "hit": false,
      "t": 85603.38550000005,
      "d": 206.8963999999978,
      "v": 100
    },
    {
      "midi": 54,
      "hit": false,
      "t": 85862.00600000001,
      "d": 206.8963999999978,
      "v": 100
    },
    {
      "midi": 50,
      "hit": false,
      "t": 85862.00600000005,
      "d": 206.8963999999978,
      "v": 100
    },
    {
      "midi": 54,
      "hit": false,
      "t": 85862.00600000005,
      "d": 206.8963999999978,
      "v": 100
    },
    {
      "midi": 57,
      "hit": false,
      "t": 85862.00600000005,
      "d": 206.8963999999978,
      "v": 100
    },
    {
      "midi": 54,
      "hit": false,
      "t": 86120.62650000001,
      "d": 206.8963999999978,
      "v": 100
    },
    {
      "midi": 69,
      "hit": false,
      "t": 86120.62650000001,
      "d": 827.5856000000058,
      "v": 100
    },
    {
      "midi": 57,
      "hit": false,
      "t": 86120.62650000006,
      "d": 206.8963999999978,
      "v": 100
    },
    {
      "midi": 61,
      "hit": false,
      "t": 86120.62650000006,
      "d": 206.8963999999978,
      "v": 100
    },
    {
      "midi": 64,
      "hit": false,
      "t": 86120.62650000006,
      "d": 206.8963999999978,
      "v": 100
    },
    {
      "midi": 54,
      "hit": false,
      "t": 86379.24700000002,
      "d": 206.8963999999978,
      "v": 100
    },
    {
      "midi": 57,
      "hit": false,
      "t": 86379.24700000006,
      "d": 206.8963999999978,
      "v": 100
    },
    {
      "midi": 61,
      "hit": false,
      "t": 86379.24700000006,
      "d": 206.8963999999978,
      "v": 100
    },
    {
      "midi": 64,
      "hit": false,
      "t": 86379.24700000006,
      "d": 206.8963999999978,
      "v": 100
    },
    {
      "midi": 40,
      "hit": false,
      "t": 86637.86750000002,
      "d": 206.8963999999978,
      "v": 100
    },
    {
      "midi": 57,
      "hit": false,
      "t": 86637.86750000007,
      "d": 206.8963999999978,
      "v": 100
    },
    {
      "midi": 61,
      "hit": false,
      "t": 86637.86750000007,
      "d": 206.8963999999978,
      "v": 100
    },
    {
      "midi": 64,
      "hit": false,
      "t": 86637.86750000007,
      "d": 206.8963999999978,
      "v": 100
    },
    {
      "midi": 54,
      "hit": false,
      "t": 86896.48800000003,
      "d": 206.8963999999978,
      "v": 100
    },
    {
      "midi": 57,
      "hit": false,
      "t": 86896.48800000007,
      "d": 206.8963999999978,
      "v": 100
    },
    {
      "midi": 61,
      "hit": false,
      "t": 86896.48800000007,
      "d": 206.8963999999978,
      "v": 100
    },
    {
      "midi": 64,
      "hit": false,
      "t": 86896.48800000007,
      "d": 206.8963999999978,
      "v": 100
    },
    {
      "midi": 67,
      "hit": false,
      "t": 87155.10850000002,
      "d": 310.3445999999967,
      "v": 100
    },
    {
      "midi": 49,
      "hit": false,
      "t": 87155.10850000003,
      "d": 206.8963999999978,
      "v": 100
    },
    {
      "midi": 54,
      "hit": false,
      "t": 87155.10850000003,
      "d": 206.8963999999978,
      "v": 100
    },
    {
      "midi": 55,
      "hit": false,
      "t": 87155.10850000007,
      "d": 206.8963999999978,
      "v": 100
    },
    {
      "midi": 59,
      "hit": false,
      "t": 87155.10850000007,
      "d": 206.8963999999978,
      "v": 100
    },
    {
      "midi": 62,
      "hit": false,
      "t": 87155.10850000007,
      "d": 206.8963999999978,
      "v": 100
    },
    {
      "midi": 54,
      "hit": false,
      "t": 87413.72900000004,
      "d": 206.8963999999978,
      "v": 100
    },
    {
      "midi": 55,
      "hit": false,
      "t": 87413.72900000008,
      "d": 206.8963999999978,
      "v": 100
    },
    {
      "midi": 59,
      "hit": false,
      "t": 87413.72900000008,
      "d": 206.8963999999978,
      "v": 100
    },
    {
      "midi": 62,
      "hit": false,
      "t": 87413.72900000008,
      "d": 206.8963999999978,
      "v": 100
    },
    {
      "midi": 66,
      "hit": false,
      "t": 87543.03925000002,
      "d": 336.2066499999928,
      "v": 100
    },
    {
      "midi": 40,
      "hit": false,
      "t": 87672.34950000004,
      "d": 206.8963999999978,
      "v": 100
    },
    {
      "midi": 55,
      "hit": false,
      "t": 87672.34950000008,
      "d": 206.8963999999978,
      "v": 100
    },
    {
      "midi": 59,
      "hit": false,
      "t": 87672.34950000008,
      "d": 206.8963999999978,
      "v": 100
    },
    {
      "midi": 62,
      "hit": false,
      "t": 87672.34950000008,
      "d": 206.8963999999978,
      "v": 100
    },
    {
      "midi": 64,
      "hit": false,
      "t": 87930.97000000002,
      "d": 206.8963999999978,
      "v": 100
    },
    {
      "midi": 54,
      "hit": false,
      "t": 87930.97000000004,
      "d": 206.8963999999978,
      "v": 100
    },
    {
      "midi": 55,
      "hit": false,
      "t": 87930.97000000009,
      "d": 206.8963999999978,
      "v": 100
    },
    {
      "midi": 59,
      "hit": false,
      "t": 87930.97000000009,
      "d": 206.8963999999978,
      "v": 100
    },
    {
      "midi": 62,
      "hit": false,
      "t": 87930.97000000009,
      "d": 206.8963999999978,
      "v": 100
    },
    {
      "midi": 62,
      "hit": false,
      "t": 88189.59050000002,
      "d": 413.7927999999956,
      "v": 100
    },
    {
      "midi": 54,
      "hit": false,
      "t": 88189.59050000005,
      "d": 206.8963999999978,
      "v": 100
    },
    {
      "midi": 50,
      "hit": false,
      "t": 88189.5905000001,
      "d": 206.8963999999978,
      "v": 100
    },
    {
      "midi": 54,
      "hit": false,
      "t": 88189.5905000001,
      "d": 206.8963999999978,
      "v": 100
    },
    {
      "midi": 57,
      "hit": false,
      "t": 88189.5905000001,
      "d": 206.8963999999978,
      "v": 100
    },
    {
      "midi": 54,
      "hit": false,
      "t": 88448.21100000005,
      "d": 206.8963999999978,
      "v": 100
    },
    {
      "midi": 50,
      "hit": false,
      "t": 88448.2110000001,
      "d": 206.8963999999978,
      "v": 100
    },
    {
      "midi": 54,
      "hit": false,
      "t": 88448.2110000001,
      "d": 206.8963999999978,
      "v": 100
    },
    {
      "midi": 57,
      "hit": false,
      "t": 88448.2110000001,
      "d": 206.8963999999978,
      "v": 100
    },
    {
      "midi": 61,
      "hit": false,
      "t": 88706.83150000001,
      "d": 413.7927999999956,
      "v": 100
    },
    {
      "midi": 40,
      "hit": false,
      "t": 88706.83150000006,
      "d": 206.8963999999978,
      "v": 100
    },
    {
      "midi": 50,
      "hit": false,
      "t": 88706.8315000001,
      "d": 206.8963999999978,
      "v": 100
    },
    {
      "midi": 54,
      "hit": false,
      "t": 88706.8315000001,
      "d": 206.8963999999978,
      "v": 100
    },
    {
      "midi": 57,
      "hit": false,
      "t": 88706.8315000001,
      "d": 206.8963999999978,
      "v": 100
    },
    {
      "midi": 54,
      "hit": false,
      "t": 88965.45200000006,
      "d": 206.8963999999978,
      "v": 100
    },
    {
      "midi": 50,
      "hit": false,
      "t": 88965.4520000001,
      "d": 206.8963999999978,
      "v": 100
    },
    {
      "midi": 54,
      "hit": false,
      "t": 88965.4520000001,
      "d": 206.8963999999978,
      "v": 100
    },
    {
      "midi": 57,
      "hit": false,
      "t": 88965.4520000001,
      "d": 206.8963999999978,
      "v": 100
    },
    {
      "midi": 59,
      "hit": false,
      "t": 89224.07250000001,
      "d": 827.5856000000058,
      "v": 100
    },
    {
      "midi": 54,
      "hit": false,
      "t": 89224.07250000007,
      "d": 206.8963999999978,
      "v": 100
    },
    {
      "midi": 49,
      "hit": false,
      "t": 89224.07250000007,
      "d": 206.8963999999978,
      "v": 100
    },
    {
      "midi": 55,
      "hit": false,
      "t": 89224.07250000011,
      "d": 206.8963999999978,
      "v": 100
    },
    {
      "midi": 59,
      "hit": false,
      "t": 89224.07250000011,
      "d": 206.8963999999978,
      "v": 100
    },
    {
      "midi": 62,
      "hit": false,
      "t": 89224.07250000011,
      "d": 206.8963999999978,
      "v": 100
    },
    {
      "midi": 54,
      "hit": false,
      "t": 89482.69300000007,
      "d": 206.8963999999978,
      "v": 100
    },
    {
      "midi": 55,
      "hit": false,
      "t": 89482.69300000012,
      "d": 206.8963999999978,
      "v": 100
    },
    {
      "midi": 59,
      "hit": false,
      "t": 89482.69300000012,
      "d": 206.8963999999978,
      "v": 100
    },
    {
      "midi": 62,
      "hit": false,
      "t": 89482.69300000012,
      "d": 206.8963999999978,
      "v": 100
    },
    {
      "midi": 40,
      "hit": false,
      "t": 89741.31350000008,
      "d": 206.8963999999978,
      "v": 100
    },
    {
      "midi": 55,
      "hit": false,
      "t": 89741.31350000012,
      "d": 206.8963999999978,
      "v": 100
    },
    {
      "midi": 59,
      "hit": false,
      "t": 89741.31350000012,
      "d": 206.8963999999978,
      "v": 100
    },
    {
      "midi": 62,
      "hit": false,
      "t": 89741.31350000012,
      "d": 206.8963999999978,
      "v": 100
    },
    {
      "midi": 54,
      "hit": false,
      "t": 89999.93400000008,
      "d": 206.8963999999978,
      "v": 100
    },
    {
      "midi": 55,
      "hit": false,
      "t": 89999.93400000012,
      "d": 206.8963999999978,
      "v": 100
    },
    {
      "midi": 59,
      "hit": false,
      "t": 89999.93400000012,
      "d": 206.8963999999978,
      "v": 100
    },
    {
      "midi": 62,
      "hit": false,
      "t": 89999.93400000012,
      "d": 206.8963999999978,
      "v": 100
    },
    {
      "midi": 61,
      "hit": false,
      "t": 90258.55450000001,
      "d": 827.5856000000058,
      "v": 100
    },
    {
      "midi": 54,
      "hit": false,
      "t": 90258.55450000009,
      "d": 206.8963999999978,
      "v": 100
    },
    {
      "midi": 57,
      "hit": false,
      "t": 90258.55450000013,
      "d": 206.8963999999978,
      "v": 100
    },
    {
      "midi": 61,
      "hit": false,
      "t": 90258.55450000013,
      "d": 206.8963999999978,
      "v": 100
    },
    {
      "midi": 64,
      "hit": false,
      "t": 90258.55450000013,
      "d": 206.8963999999978,
      "v": 100
    },
    {
      "midi": 54,
      "hit": false,
      "t": 90517.17500000009,
      "d": 206.8963999999978,
      "v": 100
    },
    {
      "midi": 57,
      "hit": false,
      "t": 90517.17500000013,
      "d": 206.8963999999978,
      "v": 100
    },
    {
      "midi": 61,
      "hit": false,
      "t": 90517.17500000013,
      "d": 206.8963999999978,
      "v": 100
    },
    {
      "midi": 64,
      "hit": false,
      "t": 90517.17500000013,
      "d": 206.8963999999978,
      "v": 100
    },
    {
      "midi": 40,
      "hit": false,
      "t": 90775.7955000001,
      "d": 206.8963999999978,
      "v": 100
    },
    {
      "midi": 57,
      "hit": false,
      "t": 90775.79550000014,
      "d": 206.8963999999978,
      "v": 100
    },
    {
      "midi": 61,
      "hit": false,
      "t": 90775.79550000014,
      "d": 206.8963999999978,
      "v": 100
    },
    {
      "midi": 64,
      "hit": false,
      "t": 90775.79550000014,
      "d": 206.8963999999978,
      "v": 100
    },
    {
      "midi": 54,
      "hit": false,
      "t": 91034.4160000001,
      "d": 206.8963999999978,
      "v": 100
    },
    {
      "midi": 57,
      "hit": false,
      "t": 91034.41600000014,
      "d": 206.8963999999978,
      "v": 100
    },
    {
      "midi": 61,
      "hit": false,
      "t": 91034.41600000014,
      "d": 206.8963999999978,
      "v": 100
    },
    {
      "midi": 64,
      "hit": false,
      "t": 91034.41600000014,
      "d": 206.8963999999978,
      "v": 100
    },
    {
      "midi": 62,
      "hit": false,
      "t": 91293.03650000002,
      "d": 827.5856000000058,
      "v": 100
    },
    {
      "midi": 49,
      "hit": false,
      "t": 91293.0365000001,
      "d": 206.8963999999978,
      "v": 100
    },
    {
      "midi": 54,
      "hit": false,
      "t": 91293.0365000001,
      "d": 206.8963999999978,
      "v": 100
    },
    {
      "midi": 58,
      "hit": false,
      "t": 91293.03650000015,
      "d": 206.8963999999978,
      "v": 100
    },
    {
      "midi": 62,
      "hit": false,
      "t": 91293.03650000015,
      "d": 206.8963999999978,
      "v": 100
    },
    {
      "midi": 65,
      "hit": false,
      "t": 91293.03650000015,
      "d": 206.8963999999978,
      "v": 100
    },
    {
      "midi": 54,
      "hit": false,
      "t": 91551.65700000011,
      "d": 206.8963999999978,
      "v": 100
    },
    {
      "midi": 58,
      "hit": false,
      "t": 91551.65700000015,
      "d": 206.8963999999978,
      "v": 100
    },
    {
      "midi": 62,
      "hit": false,
      "t": 91551.65700000015,
      "d": 206.8963999999978,
      "v": 100
    },
    {
      "midi": 65,
      "hit": false,
      "t": 91551.65700000015,
      "d": 206.8963999999978,
      "v": 100
    },
    {
      "midi": 40,
      "hit": false,
      "t": 91810.27750000011,
      "d": 206.8963999999978,
      "v": 100
    },
    {
      "midi": 58,
      "hit": false,
      "t": 91810.27750000016,
      "d": 206.8963999999978,
      "v": 100
    },
    {
      "midi": 62,
      "hit": false,
      "t": 91810.27750000016,
      "d": 206.8963999999978,
      "v": 100
    },
    {
      "midi": 65,
      "hit": false,
      "t": 91810.27750000016,
      "d": 206.8963999999978,
      "v": 100
    },
    {
      "midi": 54,
      "hit": false,
      "t": 92068.89800000012,
      "d": 206.8963999999978,
      "v": 100
    },
    {
      "midi": 58,
      "hit": false,
      "t": 92068.89800000016,
      "d": 206.8963999999978,
      "v": 100
    },
    {
      "midi": 62,
      "hit": false,
      "t": 92068.89800000016,
      "d": 206.8963999999978,
      "v": 100
    },
    {
      "midi": 65,
      "hit": false,
      "t": 92068.89800000016,
      "d": 206.8963999999978,
      "v": 100
    },
    {
      "midi": 64,
      "hit": false,
      "t": 92327.51850000002,
      "d": 827.5856000000058,
      "v": 100
    },
    {
      "midi": 40,
      "hit": false,
      "t": 92327.51850000012,
      "d": 103.4481999999989,
      "v": 100
    },
    {
      "midi": 60,
      "hit": false,
      "t": 92327.51850000017,
      "d": 206.8963999999978,
      "v": 100
    },
    {
      "midi": 64,
      "hit": false,
      "t": 92327.51850000017,
      "d": 206.8963999999978,
      "v": 100
    },
    {
      "midi": 67,
      "hit": false,
      "t": 92327.51850000017,
      "d": 206.8963999999978,
      "v": 100
    },
    {
      "midi": 40,
      "hit": false,
      "t": 92456.82875000012,
      "d": 103.4481999999989,
      "v": 100
    },
    {
      "midi": 40,
      "hit": false,
      "t": 92586.13900000011,
      "d": 103.4481999999989,
      "v": 100
    },
    {
      "midi": 60,
      "hit": false,
      "t": 92586.13900000017,
      "d": 206.8963999999978,
      "v": 100
    },
    {
      "midi": 64,
      "hit": false,
      "t": 92586.13900000017,
      "d": 206.8963999999978,
      "v": 100
    },
    {
      "midi": 67,
      "hit": false,
      "t": 92586.13900000017,
      "d": 206.8963999999978,
      "v": 100
    },
    {
      "midi": 40,
      "hit": false,
      "t": 92715.4492500001,
      "d": 103.4481999999989,
      "v": 100
    },
    {
      "midi": 49,
      "hit": false,
      "t": 92844.7595000001,
      "d": 103.4481999999989,
      "v": 100
    },
    {
      "midi": 40,
      "hit": false,
      "t": 92844.7595000001,
      "d": 103.4481999999989,
      "v": 100
    },
    {
      "midi": 60,
      "hit": false,
      "t": 92844.75950000017,
      "d": 206.8963999999978,
      "v": 100
    },
    {
      "midi": 64,
      "hit": false,
      "t": 92844.75950000017,
      "d": 206.8963999999978,
      "v": 100
    },
    {
      "midi": 67,
      "hit": false,
      "t": 92844.75950000017,
      "d": 206.8963999999978,
      "v": 100
    },
    {
      "midi": 49,
      "hit": false,
      "t": 92974.0697500001,
      "d": 103.4481999999989,
      "v": 100
    },
    {
      "midi": 40,
      "hit": false,
      "t": 92974.0697500001,
      "d": 103.4481999999989,
      "v": 100
    },
    {
      "midi": 49,
      "hit": false,
      "t": 93103.38000000009,
      "d": 103.4481999999989,
      "v": 100
    },
    {
      "midi": 40,
      "hit": false,
      "t": 93103.38000000009,
      "d": 103.4481999999989,
      "v": 100
    },
    {
      "midi": 60,
      "hit": false,
      "t": 93103.38000000018,
      "d": 206.8963999999978,
      "v": 100
    },
    {
      "midi": 64,
      "hit": false,
      "t": 93103.38000000018,
      "d": 206.8963999999978,
      "v": 100
    },
    {
      "midi": 67,
      "hit": false,
      "t": 93103.38000000018,
      "d": 206.8963999999978,
      "v": 100
    },
    {
      "midi": 49,
      "hit": false,
      "t": 93232.69025000009,
      "d": 103.4481999999989,
      "v": 100
    },
    {
      "midi": 40,
      "hit": false,
      "t": 93232.69025000009,
      "d": 103.4481999999989,
      "v": 100
    },
    {
      "midi": 49,
      "hit": false,
      "t": 93362.00050000008,
      "d": 206.8963999999978,
      "v": 100
    },
    {
      "midi": 54,
      "hit": false,
      "t": 93362.00050000008,
      "d": 206.8963999999978,
      "v": 100
    },
    {
      "midi": 50,
      "hit": false,
      "t": 93362.00050000018,
      "d": 206.8963999999978,
      "v": 100
    },
    {
      "midi": 53,
      "hit": false,
      "t": 93362.00050000018,
      "d": 206.8963999999978,
      "v": 100
    },
    {
      "midi": 57,
      "hit": false,
      "t": 93362.00050000018,
      "d": 206.8963999999978,
      "v": 100
    },
    {
      "midi": 65,
      "hit": false,
      "t": 93620.62100000004,
      "d": 206.8963999999978,
      "v": 100
    },
    {
      "midi": 54,
      "hit": false,
      "t": 93620.62100000009,
      "d": 206.8963999999978,
      "v": 100
    },
    {
      "midi": 50,
      "hit": false,
      "t": 93620.62100000019,
      "d": 206.8963999999978,
      "v": 100
    },
    {
      "midi": 53,
      "hit": false,
      "t": 93620.62100000019,
      "d": 206.8963999999978,
      "v": 100
    },
    {
      "midi": 57,
      "hit": false,
      "t": 93620.62100000019,
      "d": 206.8963999999978,
      "v": 100
    },
    {
      "midi": 69,
      "hit": false,
      "t": 93879.24150000005,
      "d": 206.8963999999978,
      "v": 100
    },
    {
      "midi": 40,
      "hit": false,
      "t": 93879.24150000009,
      "d": 206.8963999999978,
      "v": 100
    },
    {
      "midi": 50,
      "hit": false,
      "t": 93879.2415000002,
      "d": 206.8963999999978,
      "v": 100
    },
    {
      "midi": 53,
      "hit": false,
      "t": 93879.2415000002,
      "d": 206.8963999999978,
      "v": 100
    },
    {
      "midi": 57,
      "hit": false,
      "t": 93879.2415000002,
      "d": 206.8963999999978,
      "v": 100
    },
    {
      "midi": 76,
      "hit": false,
      "t": 94137.86200000005,
      "d": 103.4481999999989,
      "v": 100
    },
    {
      "midi": 54,
      "hit": false,
      "t": 94137.8620000001,
      "d": 206.8963999999978,
      "v": 100
    },
    {
      "midi": 50,
      "hit": false,
      "t": 94137.8620000002,
      "d": 206.8963999999978,
      "v": 100
    },
    {
      "midi": 53,
      "hit": false,
      "t": 94137.8620000002,
      "d": 206.8963999999978,
      "v": 100
    },
    {
      "midi": 57,
      "hit": false,
      "t": 94137.8620000002,
      "d": 206.8963999999978,
      "v": 100
    },
    {
      "midi": 72,
      "hit": false,
      "t": 94267.17225000005,
      "d": 749.999450000003,
      "v": 100
    },
    {
      "midi": 54,
      "hit": false,
      "t": 94396.4825000001,
      "d": 206.8963999999978,
      "v": 100
    },
    {
      "midi": 55,
      "hit": false,
      "t": 94396.4825000002,
      "d": 206.8963999999978,
      "v": 100
    },
    {
      "midi": 58,
      "hit": false,
      "t": 94396.4825000002,
      "d": 206.8963999999978,
      "v": 100
    },
    {
      "midi": 62,
      "hit": false,
      "t": 94396.4825000002,
      "d": 206.8963999999978,
      "v": 100
    },
    {
      "midi": 54,
      "hit": false,
      "t": 94655.1030000001,
      "d": 206.8963999999978,
      "v": 100
    },
    {
      "midi": 55,
      "hit": false,
      "t": 94655.1030000002,
      "d": 206.8963999999978,
      "v": 100
    },
    {
      "midi": 58,
      "hit": false,
      "t": 94655.1030000002,
      "d": 206.8963999999978,
      "v": 100
    },
    {
      "midi": 62,
      "hit": false,
      "t": 94655.1030000002,
      "d": 206.8963999999978,
      "v": 100
    },
    {
      "midi": 40,
      "hit": false,
      "t": 94913.72350000011,
      "d": 206.8963999999978,
      "v": 100
    },
    {
      "midi": 55,
      "hit": false,
      "t": 94913.72350000021,
      "d": 206.8963999999978,
      "v": 100
    },
    {
      "midi": 58,
      "hit": false,
      "t": 94913.72350000021,
      "d": 206.8963999999978,
      "v": 100
    },
    {
      "midi": 62,
      "hit": false,
      "t": 94913.72350000021,
      "d": 206.8963999999978,
      "v": 100
    },
    {
      "midi": 69,
      "hit": false,
      "t": 95172.34400000006,
      "d": 206.8963999999978,
      "v": 100
    },
    {
      "midi": 54,
      "hit": false,
      "t": 95172.34400000011,
      "d": 206.8963999999978,
      "v": 100
    },
    {
      "midi": 55,
      "hit": false,
      "t": 95172.34400000022,
      "d": 206.8963999999978,
      "v": 100
    },
    {
      "midi": 58,
      "hit": false,
      "t": 95172.34400000022,
      "d": 206.8963999999978,
      "v": 100
    },
    {
      "midi": 62,
      "hit": false,
      "t": 95172.34400000022,
      "d": 206.8963999999978,
      "v": 100
    },
    {
      "midi": 67,
      "hit": false,
      "t": 95430.96450000006,
      "d": 413.7927999999956,
      "v": 100
    },
    {
      "midi": 54,
      "hit": false,
      "t": 95430.96450000012,
      "d": 206.8963999999978,
      "v": 100
    },
    {
      "midi": 60,
      "hit": false,
      "t": 95430.96450000022,
      "d": 206.8963999999978,
      "v": 100
    },
    {
      "midi": 64,
      "hit": false,
      "t": 95430.96450000022,
      "d": 206.8963999999978,
      "v": 100
    },
    {
      "midi": 67,
      "hit": false,
      "t": 95430.96450000022,
      "d": 206.8963999999978,
      "v": 100
    },
    {
      "midi": 54,
      "hit": false,
      "t": 95689.58500000012,
      "d": 206.8963999999978,
      "v": 100
    },
    {
      "midi": 60,
      "hit": false,
      "t": 95689.58500000022,
      "d": 206.8963999999978,
      "v": 100
    },
    {
      "midi": 64,
      "hit": false,
      "t": 95689.58500000022,
      "d": 206.8963999999978,
      "v": 100
    },
    {
      "midi": 67,
      "hit": false,
      "t": 95689.58500000022,
      "d": 206.8963999999978,
      "v": 100
    },
    {
      "midi": 65,
      "hit": false,
      "t": 95948.20550000005,
      "d": 206.8963999999978,
      "v": 100
    },
    {
      "midi": 40,
      "hit": false,
      "t": 95948.20550000013,
      "d": 206.8963999999978,
      "v": 100
    },
    {
      "midi": 60,
      "hit": false,
      "t": 95948.20550000023,
      "d": 206.8963999999978,
      "v": 100
    },
    {
      "midi": 64,
      "hit": false,
      "t": 95948.20550000023,
      "d": 206.8963999999978,
      "v": 100
    },
    {
      "midi": 67,
      "hit": false,
      "t": 95948.20550000023,
      "d": 206.8963999999978,
      "v": 100
    },
    {
      "midi": 67,
      "hit": false,
      "t": 96206.82600000006,
      "d": 103.4481999999989,
      "v": 100
    },
    {
      "midi": 54,
      "hit": false,
      "t": 96206.82600000013,
      "d": 206.8963999999978,
      "v": 100
    },
    {
      "midi": 60,
      "hit": false,
      "t": 96206.82600000023,
      "d": 206.8963999999978,
      "v": 100
    },
    {
      "midi": 64,
      "hit": false,
      "t": 96206.82600000023,
      "d": 206.8963999999978,
      "v": 100
    },
    {
      "midi": 67,
      "hit": false,
      "t": 96206.82600000023,
      "d": 206.8963999999978,
      "v": 100
    },
    {
      "midi": 69,
      "hit": false,
      "t": 96336.13625000005,
      "d": 956.8958500000008,
      "v": 100
    },
    {
      "midi": 54,
      "hit": false,
      "t": 96465.44650000014,
      "d": 206.8963999999978,
      "v": 100
    },
    {
      "midi": 53,
      "hit": false,
      "t": 96465.44650000024,
      "d": 206.8963999999978,
      "v": 100
    },
    {
      "midi": 57,
      "hit": false,
      "t": 96465.44650000024,
      "d": 206.8963999999978,
      "v": 100
    },
    {
      "midi": 60,
      "hit": false,
      "t": 96465.44650000024,
      "d": 206.8963999999978,
      "v": 100
    },
    {
      "midi": 54,
      "hit": false,
      "t": 96724.06700000014,
      "d": 206.8963999999978,
      "v": 100
    },
    {
      "midi": 53,
      "hit": false,
      "t": 96724.06700000024,
      "d": 206.8963999999978,
      "v": 100
    },
    {
      "midi": 57,
      "hit": false,
      "t": 96724.06700000024,
      "d": 206.8963999999978,
      "v": 100
    },
    {
      "midi": 60,
      "hit": false,
      "t": 96724.06700000024,
      "d": 206.8963999999978,
      "v": 100
    },
    {
      "midi": 40,
      "hit": false,
      "t": 96982.68750000015,
      "d": 206.8963999999978,
      "v": 100
    },
    {
      "midi": 60,
      "hit": false,
      "t": 96982.68750000025,
      "d": 206.8963999999978,
      "v": 100
    },
    {
      "midi": 64,
      "hit": false,
      "t": 96982.68750000025,
      "d": 206.8963999999978,
      "v": 100
    },
    {
      "midi": 67,
      "hit": false,
      "t": 96982.68750000025,
      "d": 206.8963999999978,
      "v": 100
    },
    {
      "midi": 54,
      "hit": false,
      "t": 97241.30800000015,
      "d": 206.8963999999978,
      "v": 100
    },
    {
      "midi": 60,
      "hit": false,
      "t": 97241.30800000025,
      "d": 206.8963999999978,
      "v": 100
    },
    {
      "midi": 64,
      "hit": false,
      "t": 97241.30800000025,
      "d": 206.8963999999978,
      "v": 100
    },
    {
      "midi": 67,
      "hit": false,
      "t": 97241.30800000025,
      "d": 206.8963999999978,
      "v": 100
    },
    {
      "midi": 49,
      "hit": false,
      "t": 97499.92850000015,
      "d": 206.8963999999978,
      "v": 100
    },
    {
      "midi": 54,
      "hit": false,
      "t": 97499.92850000015,
      "d": 206.8963999999978,
      "v": 100
    },
    {
      "midi": 50,
      "hit": false,
      "t": 97499.92850000026,
      "d": 206.8963999999978,
      "v": 100
    },
    {
      "midi": 53,
      "hit": false,
      "t": 97499.92850000026,
      "d": 206.8963999999978,
      "v": 100
    },
    {
      "midi": 57,
      "hit": false,
      "t": 97499.92850000026,
      "d": 206.8963999999978,
      "v": 100
    },
    {
      "midi": 65,
      "hit": false,
      "t": 97758.54900000006,
      "d": 206.8963999999978,
      "v": 100
    },
    {
      "midi": 54,
      "hit": false,
      "t": 97758.54900000016,
      "d": 206.8963999999978,
      "v": 100
    },
    {
      "midi": 50,
      "hit": false,
      "t": 97758.54900000026,
      "d": 206.8963999999978,
      "v": 100
    },
    {
      "midi": 53,
      "hit": false,
      "t": 97758.54900000026,
      "d": 206.8963999999978,
      "v": 100
    },
    {
      "midi": 57,
      "hit": false,
      "t": 97758.54900000026,
      "d": 206.8963999999978,
      "v": 100
    },
    {
      "midi": 69,
      "hit": false,
      "t": 98017.16950000006,
      "d": 206.8963999999978,
      "v": 100
    },
    {
      "midi": 40,
      "hit": false,
      "t": 98017.16950000016,
      "d": 206.8963999999978,
      "v": 100
    },
    {
      "midi": 50,
      "hit": false,
      "t": 98017.16950000027,
      "d": 206.8963999999978,
      "v": 100
    },
    {
      "midi": 53,
      "hit": false,
      "t": 98017.16950000027,
      "d": 206.8963999999978,
      "v": 100
    },
    {
      "midi": 57,
      "hit": false,
      "t": 98017.16950000027,
      "d": 206.8963999999978,
      "v": 100
    },
    {
      "midi": 76,
      "hit": false,
      "t": 98275.79000000007,
      "d": 103.4481999999989,
      "v": 100
    },
    {
      "midi": 54,
      "hit": false,
      "t": 98275.79000000017,
      "d": 206.8963999999978,
      "v": 100
    },
    {
      "midi": 50,
      "hit": false,
      "t": 98275.79000000027,
      "d": 206.8963999999978,
      "v": 100
    },
    {
      "midi": 53,
      "hit": false,
      "t": 98275.79000000027,
      "d": 206.8963999999978,
      "v": 100
    },
    {
      "midi": 57,
      "hit": false,
      "t": 98275.79000000027,
      "d": 206.8963999999978,
      "v": 100
    },
    {
      "midi": 72,
      "hit": false,
      "t": 98405.10025000006,
      "d": 749.999450000003,
      "v": 100
    },
    {
      "midi": 54,
      "hit": false,
      "t": 98534.41050000017,
      "d": 206.8963999999978,
      "v": 100
    },
    {
      "midi": 55,
      "hit": false,
      "t": 98534.41050000027,
      "d": 206.8963999999978,
      "v": 100
    },
    {
      "midi": 58,
      "hit": false,
      "t": 98534.41050000027,
      "d": 206.8963999999978,
      "v": 100
    },
    {
      "midi": 62,
      "hit": false,
      "t": 98534.41050000027,
      "d": 206.8963999999978,
      "v": 100
    },
    {
      "midi": 54,
      "hit": false,
      "t": 98793.03100000018,
      "d": 206.8963999999978,
      "v": 100
    },
    {
      "midi": 55,
      "hit": false,
      "t": 98793.03100000028,
      "d": 206.8963999999978,
      "v": 100
    },
    {
      "midi": 58,
      "hit": false,
      "t": 98793.03100000028,
      "d": 206.8963999999978,
      "v": 100
    },
    {
      "midi": 62,
      "hit": false,
      "t": 98793.03100000028,
      "d": 206.8963999999978,
      "v": 100
    },
    {
      "midi": 40,
      "hit": false,
      "t": 99051.65150000018,
      "d": 206.8963999999978,
      "v": 100
    },
    {
      "midi": 55,
      "hit": false,
      "t": 99051.65150000028,
      "d": 206.8963999999978,
      "v": 100
    },
    {
      "midi": 58,
      "hit": false,
      "t": 99051.65150000028,
      "d": 206.8963999999978,
      "v": 100
    },
    {
      "midi": 62,
      "hit": false,
      "t": 99051.65150000028,
      "d": 206.8963999999978,
      "v": 100
    },
    {
      "midi": 69,
      "hit": false,
      "t": 99310.27200000007,
      "d": 206.8963999999978,
      "v": 100
    },
    {
      "midi": 54,
      "hit": false,
      "t": 99310.27200000019,
      "d": 206.8963999999978,
      "v": 100
    },
    {
      "midi": 55,
      "hit": false,
      "t": 99310.27200000029,
      "d": 206.8963999999978,
      "v": 100
    },
    {
      "midi": 58,
      "hit": false,
      "t": 99310.27200000029,
      "d": 206.8963999999978,
      "v": 100
    },
    {
      "midi": 62,
      "hit": false,
      "t": 99310.27200000029,
      "d": 206.8963999999978,
      "v": 100
    },
    {
      "midi": 67,
      "hit": false,
      "t": 99568.89250000007,
      "d": 413.7927999999956,
      "v": 100
    },
    {
      "midi": 54,
      "hit": false,
      "t": 99568.89250000019,
      "d": 206.8963999999978,
      "v": 100
    },
    {
      "midi": 60,
      "hit": false,
      "t": 99568.8925000003,
      "d": 206.8963999999978,
      "v": 100
    },
    {
      "midi": 64,
      "hit": false,
      "t": 99568.8925000003,
      "d": 206.8963999999978,
      "v": 100
    },
    {
      "midi": 67,
      "hit": false,
      "t": 99568.8925000003,
      "d": 206.8963999999978,
      "v": 100
    },
    {
      "midi": 54,
      "hit": false,
      "t": 99827.5130000002,
      "d": 206.8963999999978,
      "v": 100
    },
    {
      "midi": 60,
      "hit": false,
      "t": 99827.5130000003,
      "d": 206.8963999999978,
      "v": 100
    },
    {
      "midi": 64,
      "hit": false,
      "t": 99827.5130000003,
      "d": 206.8963999999978,
      "v": 100
    },
    {
      "midi": 67,
      "hit": false,
      "t": 99827.5130000003,
      "d": 206.8963999999978,
      "v": 100
    },
    {
      "midi": 65,
      "hit": false,
      "t": 100086.13350000007,
      "d": 206.8963999999978,
      "v": 100
    },
    {
      "midi": 40,
      "hit": false,
      "t": 100086.1335000002,
      "d": 206.8963999999978,
      "v": 100
    },
    {
      "midi": 60,
      "hit": false,
      "t": 100086.1335000003,
      "d": 206.8963999999978,
      "v": 100
    },
    {
      "midi": 64,
      "hit": false,
      "t": 100086.1335000003,
      "d": 206.8963999999978,
      "v": 100
    },
    {
      "midi": 67,
      "hit": false,
      "t": 100086.1335000003,
      "d": 206.8963999999978,
      "v": 100
    },
    {
      "midi": 67,
      "hit": false,
      "t": 100344.75400000007,
      "d": 103.4481999999989,
      "v": 100
    },
    {
      "midi": 54,
      "hit": false,
      "t": 100344.7540000002,
      "d": 206.8963999999978,
      "v": 100
    },
    {
      "midi": 60,
      "hit": false,
      "t": 100344.7540000003,
      "d": 206.8963999999978,
      "v": 100
    },
    {
      "midi": 64,
      "hit": false,
      "t": 100344.7540000003,
      "d": 206.8963999999978,
      "v": 100
    },
    {
      "midi": 67,
      "hit": false,
      "t": 100344.7540000003,
      "d": 206.8963999999978,
      "v": 100
    },
    {
      "midi": 65,
      "hit": false,
      "t": 100474.06425000007,
      "d": 543.1030500000052,
      "v": 100
    },
    {
      "midi": 54,
      "hit": false,
      "t": 100603.37450000021,
      "d": 206.8963999999978,
      "v": 100
    },
    {
      "midi": 53,
      "hit": false,
      "t": 100603.37450000031,
      "d": 206.8963999999978,
      "v": 100
    },
    {
      "midi": 57,
      "hit": false,
      "t": 100603.37450000031,
      "d": 206.8963999999978,
      "v": 100
    },
    {
      "midi": 60,
      "hit": false,
      "t": 100603.37450000031,
      "d": 206.8963999999978,
      "v": 100
    },
    {
      "midi": 54,
      "hit": false,
      "t": 100861.99500000021,
      "d": 206.8963999999978,
      "v": 100
    },
    {
      "midi": 53,
      "hit": false,
      "t": 100861.99500000032,
      "d": 206.8963999999978,
      "v": 100
    },
    {
      "midi": 57,
      "hit": false,
      "t": 100861.99500000032,
      "d": 206.8963999999978,
      "v": 100
    },
    {
      "midi": 60,
      "hit": false,
      "t": 100861.99500000032,
      "d": 206.8963999999978,
      "v": 100
    },
    {
      "midi": 40,
      "hit": false,
      "t": 101120.61550000022,
      "d": 206.8963999999978,
      "v": 100
    },
    {
      "midi": 60,
      "hit": false,
      "t": 101120.61550000032,
      "d": 206.8963999999978,
      "v": 100
    },
    {
      "midi": 64,
      "hit": false,
      "t": 101120.61550000032,
      "d": 206.8963999999978,
      "v": 100
    },
    {
      "midi": 67,
      "hit": false,
      "t": 101120.61550000032,
      "d": 206.8963999999978,
      "v": 100
    },
    {
      "midi": 65,
      "hit": false,
      "t": 101379.23600000008,
      "d": 206.8963999999978,
      "v": 100
    },
    {
      "midi": 54,
      "hit": false,
      "t": 101379.23600000022,
      "d": 206.8963999999978,
      "v": 100
    },
    {
      "midi": 60,
      "hit": false,
      "t": 101379.23600000032,
      "d": 206.8963999999978,
      "v": 100
    },
    {
      "midi": 64,
      "hit": false,
      "t": 101379.23600000032,
      "d": 206.8963999999978,
      "v": 100
    },
    {
      "midi": 67,
      "hit": false,
      "t": 101379.23600000032,
      "d": 206.8963999999978,
      "v": 100
    },
    {
      "midi": 77,
      "hit": false,
      "t": 101637.85650000008,
      "d": 620.6891999999934,
      "v": 100
    },
    {
      "midi": 49,
      "hit": false,
      "t": 101637.85650000023,
      "d": 206.8963999999978,
      "v": 100
    },
    {
      "midi": 54,
      "hit": false,
      "t": 101637.85650000023,
      "d": 206.8963999999978,
      "v": 100
    },
    {
      "midi": 50,
      "hit": false,
      "t": 101637.85650000033,
      "d": 206.8963999999978,
      "v": 100
    },
    {
      "midi": 53,
      "hit": false,
      "t": 101637.85650000033,
      "d": 206.8963999999978,
      "v": 100
    },
    {
      "midi": 57,
      "hit": false,
      "t": 101637.85650000033,
      "d": 206.8963999999978,
      "v": 100
    },
    {
      "midi": 54,
      "hit": false,
      "t": 101896.47700000023,
      "d": 206.8963999999978,
      "v": 100
    },
    {
      "midi": 50,
      "hit": false,
      "t": 101896.47700000033,
      "d": 206.8963999999978,
      "v": 100
    },
    {
      "midi": 53,
      "hit": false,
      "t": 101896.47700000033,
      "d": 206.8963999999978,
      "v": 100
    },
    {
      "midi": 57,
      "hit": false,
      "t": 101896.47700000033,
      "d": 206.8963999999978,
      "v": 100
    },
    {
      "midi": 40,
      "hit": false,
      "t": 102155.09750000024,
      "d": 206.8963999999978,
      "v": 100
    },
    {
      "midi": 50,
      "hit": false,
      "t": 102155.09750000034,
      "d": 206.8963999999978,
      "v": 100
    },
    {
      "midi": 53,
      "hit": false,
      "t": 102155.09750000034,
      "d": 206.8963999999978,
      "v": 100
    },
    {
      "midi": 57,
      "hit": false,
      "t": 102155.09750000034,
      "d": 206.8963999999978,
      "v": 100
    },
    {
      "midi": 76,
      "hit": false,
      "t": 102413.71800000008,
      "d": 206.8963999999978,
      "v": 100
    },
    {
      "midi": 54,
      "hit": false,
      "t": 102413.71800000024,
      "d": 206.8963999999978,
      "v": 100
    },
    {
      "midi": 50,
      "hit": false,
      "t": 102413.71800000034,
      "d": 206.8963999999978,
      "v": 100
    },
    {
      "midi": 53,
      "hit": false,
      "t": 102413.71800000034,
      "d": 206.8963999999978,
      "v": 100
    },
    {
      "midi": 57,
      "hit": false,
      "t": 102413.71800000034,
      "d": 206.8963999999978,
      "v": 100
    },
    {
      "midi": 74,
      "hit": false,
      "t": 102672.33850000009,
      "d": 620.6891999999934,
      "v": 100
    },
    {
      "midi": 54,
      "hit": false,
      "t": 102672.33850000025,
      "d": 206.8963999999978,
      "v": 100
    },
    {
      "midi": 55,
      "hit": false,
      "t": 102672.33850000035,
      "d": 206.8963999999978,
      "v": 100
    },
    {
      "midi": 58,
      "hit": false,
      "t": 102672.33850000035,
      "d": 206.8963999999978,
      "v": 100
    },
    {
      "midi": 62,
      "hit": false,
      "t": 102672.33850000035,
      "d": 206.8963999999978,
      "v": 100
    },
    {
      "midi": 54,
      "hit": false,
      "t": 102930.95900000025,
      "d": 206.8963999999978,
      "v": 100
    },
    {
      "midi": 55,
      "hit": false,
      "t": 102930.95900000035,
      "d": 206.8963999999978,
      "v": 100
    },
    {
      "midi": 58,
      "hit": false,
      "t": 102930.95900000035,
      "d": 206.8963999999978,
      "v": 100
    },
    {
      "midi": 62,
      "hit": false,
      "t": 102930.95900000035,
      "d": 206.8963999999978,
      "v": 100
    },
    {
      "midi": 40,
      "hit": false,
      "t": 103189.57950000025,
      "d": 206.8963999999978,
      "v": 100
    },
    {
      "midi": 55,
      "hit": false,
      "t": 103189.57950000036,
      "d": 206.8963999999978,
      "v": 100
    },
    {
      "midi": 58,
      "hit": false,
      "t": 103189.57950000036,
      "d": 206.8963999999978,
      "v": 100
    },
    {
      "midi": 62,
      "hit": false,
      "t": 103189.57950000036,
      "d": 206.8963999999978,
      "v": 100
    },
    {
      "midi": 69,
      "hit": false,
      "t": 103448.20000000008,
      "d": 206.8963999999978,
      "v": 100
    },
    {
      "midi": 54,
      "hit": false,
      "t": 103448.20000000026,
      "d": 206.8963999999978,
      "v": 100
    },
    {
      "midi": 55,
      "hit": false,
      "t": 103448.20000000036,
      "d": 206.8963999999978,
      "v": 100
    },
    {
      "midi": 58,
      "hit": false,
      "t": 103448.20000000036,
      "d": 206.8963999999978,
      "v": 100
    },
    {
      "midi": 62,
      "hit": false,
      "t": 103448.20000000036,
      "d": 206.8963999999978,
      "v": 100
    },
    {
      "midi": 67,
      "hit": false,
      "t": 103706.82050000009,
      "d": 103.4481999999989,
      "v": 100
    },
    {
      "midi": 54,
      "hit": false,
      "t": 103706.82050000026,
      "d": 206.8963999999978,
      "v": 100
    },
    {
      "midi": 60,
      "hit": false,
      "t": 103706.82050000037,
      "d": 206.8963999999978,
      "v": 100
    },
    {
      "midi": 64,
      "hit": false,
      "t": 103706.82050000037,
      "d": 206.8963999999978,
      "v": 100
    },
    {
      "midi": 67,
      "hit": false,
      "t": 103706.82050000037,
      "d": 206.8963999999978,
      "v": 100
    },
    {
      "midi": 65,
      "hit": false,
      "t": 103836.13075000008,
      "d": 206.8963999999978,
      "v": 100
    },
    {
      "midi": 54,
      "hit": false,
      "t": 103965.44100000027,
      "d": 206.8963999999978,
      "v": 100
    },
    {
      "midi": 60,
      "hit": false,
      "t": 103965.44100000037,
      "d": 206.8963999999978,
      "v": 100
    },
    {
      "midi": 64,
      "hit": false,
      "t": 103965.44100000037,
      "d": 206.8963999999978,
      "v": 100
    },
    {
      "midi": 67,
      "hit": false,
      "t": 103965.44100000037,
      "d": 206.8963999999978,
      "v": 100
    },
    {
      "midi": 65,
      "hit": false,
      "t": 104094.75125000009,
      "d": 336.2066499999928,
      "v": 100
    },
    {
      "midi": 40,
      "hit": false,
      "t": 104224.06150000027,
      "d": 206.8963999999978,
      "v": 100
    },
    {
      "midi": 60,
      "hit": false,
      "t": 104224.06150000037,
      "d": 206.8963999999978,
      "v": 100
    },
    {
      "midi": 64,
      "hit": false,
      "t": 104224.06150000037,
      "d": 206.8963999999978,
      "v": 100
    },
    {
      "midi": 67,
      "hit": false,
      "t": 104224.06150000037,
      "d": 206.8963999999978,
      "v": 100
    },
    {
      "midi": 67,
      "hit": false,
      "t": 104482.68200000009,
      "d": 206.8963999999978,
      "v": 100
    },
    {
      "midi": 54,
      "hit": false,
      "t": 104482.68200000028,
      "d": 206.8963999999978,
      "v": 100
    },
    {
      "midi": 60,
      "hit": false,
      "t": 104482.68200000038,
      "d": 206.8963999999978,
      "v": 100
    },
    {
      "midi": 64,
      "hit": false,
      "t": 104482.68200000038,
      "d": 206.8963999999978,
      "v": 100
    },
    {
      "midi": 67,
      "hit": false,
      "t": 104482.68200000038,
      "d": 206.8963999999978,
      "v": 100
    },
    {
      "midi": 69,
      "hit": false,
      "t": 104741.30250000009,
      "d": 413.7927999999956,
      "v": 100
    },
    {
      "midi": 54,
      "hit": false,
      "t": 104741.30250000028,
      "d": 206.8963999999978,
      "v": 100
    },
    {
      "midi": 53,
      "hit": false,
      "t": 104741.30250000038,
      "d": 206.8963999999978,
      "v": 100
    },
    {
      "midi": 57,
      "hit": false,
      "t": 104741.30250000038,
      "d": 206.8963999999978,
      "v": 100
    },
    {
      "midi": 60,
      "hit": false,
      "t": 104741.30250000038,
      "d": 206.8963999999978,
      "v": 100
    },
    {
      "midi": 54,
      "hit": false,
      "t": 104999.92300000029,
      "d": 206.8963999999978,
      "v": 100
    },
    {
      "midi": 53,
      "hit": false,
      "t": 104999.92300000039,
      "d": 206.8963999999978,
      "v": 100
    },
    {
      "midi": 57,
      "hit": false,
      "t": 104999.92300000039,
      "d": 206.8963999999978,
      "v": 100
    },
    {
      "midi": 60,
      "hit": false,
      "t": 104999.92300000039,
      "d": 206.8963999999978,
      "v": 100
    },
    {
      "midi": 40,
      "hit": false,
      "t": 105258.54350000029,
      "d": 206.8963999999978,
      "v": 100
    },
    {
      "midi": 60,
      "hit": false,
      "t": 105258.54350000039,
      "d": 206.8963999999978,
      "v": 100
    },
    {
      "midi": 64,
      "hit": false,
      "t": 105258.54350000039,
      "d": 206.8963999999978,
      "v": 100
    },
    {
      "midi": 67,
      "hit": false,
      "t": 105258.54350000039,
      "d": 206.8963999999978,
      "v": 100
    },
    {
      "midi": 65,
      "hit": false,
      "t": 105517.16400000009,
      "d": 206.8963999999978,
      "v": 100
    },
    {
      "midi": 54,
      "hit": false,
      "t": 105517.1640000003,
      "d": 206.8963999999978,
      "v": 100
    },
    {
      "midi": 60,
      "hit": false,
      "t": 105517.1640000004,
      "d": 206.8963999999978,
      "v": 100
    },
    {
      "midi": 64,
      "hit": false,
      "t": 105517.1640000004,
      "d": 206.8963999999978,
      "v": 100
    },
    {
      "midi": 67,
      "hit": false,
      "t": 105517.1640000004,
      "d": 206.8963999999978,
      "v": 100
    },
    {
      "midi": 77,
      "hit": false,
      "t": 105775.7845000001,
      "d": 620.6891999999934,
      "v": 100
    },
    {
      "midi": 49,
      "hit": false,
      "t": 105775.7845000003,
      "d": 206.8963999999978,
      "v": 100
    },
    {
      "midi": 54,
      "hit": false,
      "t": 105775.7845000003,
      "d": 206.8963999999978,
      "v": 100
    },
    {
      "midi": 50,
      "hit": false,
      "t": 105775.7845000004,
      "d": 206.8963999999978,
      "v": 100
    },
    {
      "midi": 53,
      "hit": false,
      "t": 105775.7845000004,
      "d": 206.8963999999978,
      "v": 100
    },
    {
      "midi": 57,
      "hit": false,
      "t": 105775.7845000004,
      "d": 206.8963999999978,
      "v": 100
    },
    {
      "midi": 54,
      "hit": false,
      "t": 106034.4050000003,
      "d": 206.8963999999978,
      "v": 100
    },
    {
      "midi": 50,
      "hit": false,
      "t": 106034.4050000004,
      "d": 206.8963999999978,
      "v": 100
    },
    {
      "midi": 53,
      "hit": false,
      "t": 106034.4050000004,
      "d": 206.8963999999978,
      "v": 100
    },
    {
      "midi": 57,
      "hit": false,
      "t": 106034.4050000004,
      "d": 206.8963999999978,
      "v": 100
    },
    {
      "midi": 40,
      "hit": false,
      "t": 106293.02550000031,
      "d": 206.8963999999978,
      "v": 100
    },
    {
      "midi": 50,
      "hit": false,
      "t": 106293.02550000041,
      "d": 206.8963999999978,
      "v": 100
    },
    {
      "midi": 53,
      "hit": false,
      "t": 106293.02550000041,
      "d": 206.8963999999978,
      "v": 100
    },
    {
      "midi": 57,
      "hit": false,
      "t": 106293.02550000041,
      "d": 206.8963999999978,
      "v": 100
    },
    {
      "midi": 76,
      "hit": false,
      "t": 106551.6460000001,
      "d": 206.8963999999978,
      "v": 100
    },
    {
      "midi": 54,
      "hit": false,
      "t": 106551.64600000031,
      "d": 206.8963999999978,
      "v": 100
    },
    {
      "midi": 50,
      "hit": false,
      "t": 106551.64600000042,
      "d": 206.8963999999978,
      "v": 100
    },
    {
      "midi": 53,
      "hit": false,
      "t": 106551.64600000042,
      "d": 206.8963999999978,
      "v": 100
    },
    {
      "midi": 57,
      "hit": false,
      "t": 106551.64600000042,
      "d": 206.8963999999978,
      "v": 100
    },
    {
      "midi": 74,
      "hit": false,
      "t": 106810.2665000001,
      "d": 620.6891999999934,
      "v": 100
    },
    {
      "midi": 54,
      "hit": false,
      "t": 106810.26650000032,
      "d": 206.8963999999978,
      "v": 100
    },
    {
      "midi": 55,
      "hit": false,
      "t": 106810.26650000042,
      "d": 206.8963999999978,
      "v": 100
    },
    {
      "midi": 58,
      "hit": false,
      "t": 106810.26650000042,
      "d": 206.8963999999978,
      "v": 100
    },
    {
      "midi": 62,
      "hit": false,
      "t": 106810.26650000042,
      "d": 206.8963999999978,
      "v": 100
    },
    {
      "midi": 54,
      "hit": false,
      "t": 107068.88700000032,
      "d": 206.8963999999978,
      "v": 100
    },
    {
      "midi": 55,
      "hit": false,
      "t": 107068.88700000042,
      "d": 206.8963999999978,
      "v": 100
    },
    {
      "midi": 58,
      "hit": false,
      "t": 107068.88700000042,
      "d": 206.8963999999978,
      "v": 100
    },
    {
      "midi": 62,
      "hit": false,
      "t": 107068.88700000042,
      "d": 206.8963999999978,
      "v": 100
    },
    {
      "midi": 40,
      "hit": false,
      "t": 107327.50750000033,
      "d": 206.8963999999978,
      "v": 100
    },
    {
      "midi": 55,
      "hit": false,
      "t": 107327.50750000043,
      "d": 206.8963999999978,
      "v": 100
    },
    {
      "midi": 58,
      "hit": false,
      "t": 107327.50750000043,
      "d": 206.8963999999978,
      "v": 100
    },
    {
      "midi": 62,
      "hit": false,
      "t": 107327.50750000043,
      "d": 206.8963999999978,
      "v": 100
    },
    {
      "midi": 69,
      "hit": false,
      "t": 107586.1280000001,
      "d": 206.8963999999978,
      "v": 100
    },
    {
      "midi": 54,
      "hit": false,
      "t": 107586.12800000033,
      "d": 206.8963999999978,
      "v": 100
    },
    {
      "midi": 55,
      "hit": false,
      "t": 107586.12800000043,
      "d": 206.8963999999978,
      "v": 100
    },
    {
      "midi": 58,
      "hit": false,
      "t": 107586.12800000043,
      "d": 206.8963999999978,
      "v": 100
    },
    {
      "midi": 62,
      "hit": false,
      "t": 107586.12800000043,
      "d": 206.8963999999978,
      "v": 100
    },
    {
      "midi": 67,
      "hit": false,
      "t": 107844.7485000001,
      "d": 103.4481999999989,
      "v": 100
    },
    {
      "midi": 54,
      "hit": false,
      "t": 107844.74850000034,
      "d": 206.8963999999978,
      "v": 100
    },
    {
      "midi": 60,
      "hit": false,
      "t": 107844.74850000044,
      "d": 206.8963999999978,
      "v": 100
    },
    {
      "midi": 64,
      "hit": false,
      "t": 107844.74850000044,
      "d": 206.8963999999978,
      "v": 100
    },
    {
      "midi": 67,
      "hit": false,
      "t": 107844.74850000044,
      "d": 206.8963999999978,
      "v": 100
    },
    {
      "midi": 65,
      "hit": false,
      "t": 107974.0587500001,
      "d": 206.8963999999978,
      "v": 100
    },
    {
      "midi": 54,
      "hit": false,
      "t": 108103.36900000034,
      "d": 206.8963999999978,
      "v": 100
    },
    {
      "midi": 60,
      "hit": false,
      "t": 108103.36900000044,
      "d": 206.8963999999978,
      "v": 100
    },
    {
      "midi": 64,
      "hit": false,
      "t": 108103.36900000044,
      "d": 206.8963999999978,
      "v": 100
    },
    {
      "midi": 67,
      "hit": false,
      "t": 108103.36900000044,
      "d": 206.8963999999978,
      "v": 100
    },
    {
      "midi": 65,
      "hit": false,
      "t": 108232.6792500001,
      "d": 336.2066499999928,
      "v": 100
    },
    {
      "midi": 40,
      "hit": false,
      "t": 108361.98950000035,
      "d": 206.8963999999978,
      "v": 100
    },
    {
      "midi": 60,
      "hit": false,
      "t": 108361.98950000045,
      "d": 206.8963999999978,
      "v": 100
    },
    {
      "midi": 64,
      "hit": false,
      "t": 108361.98950000045,
      "d": 206.8963999999978,
      "v": 100
    },
    {
      "midi": 67,
      "hit": false,
      "t": 108361.98950000045,
      "d": 206.8963999999978,
      "v": 100
    },
    {
      "midi": 67,
      "hit": false,
      "t": 108620.6100000001,
      "d": 206.8963999999978,
      "v": 100
    },
    {
      "midi": 54,
      "hit": false,
      "t": 108620.61000000035,
      "d": 206.8963999999978,
      "v": 100
    },
    {
      "midi": 60,
      "hit": false,
      "t": 108620.61000000045,
      "d": 206.8963999999978,
      "v": 100
    },
    {
      "midi": 64,
      "hit": false,
      "t": 108620.61000000045,
      "d": 206.8963999999978,
      "v": 100
    },
    {
      "midi": 67,
      "hit": false,
      "t": 108620.61000000045,
      "d": 206.8963999999978,
      "v": 100
    },
    {
      "midi": 65,
      "hit": false,
      "t": 108879.2305000001,
      "d": 413.7927999999956,
      "v": 100
    },
    {
      "midi": 54,
      "hit": false,
      "t": 108879.23050000035,
      "d": 206.8963999999978,
      "v": 100
    },
    {
      "midi": 53,
      "hit": false,
      "t": 108879.23050000046,
      "d": 206.8963999999978,
      "v": 100
    },
    {
      "midi": 57,
      "hit": false,
      "t": 108879.23050000046,
      "d": 206.8963999999978,
      "v": 100
    },
    {
      "midi": 60,
      "hit": false,
      "t": 108879.23050000046,
      "d": 206.8963999999978,
      "v": 100
    },
    {
      "midi": 54,
      "hit": false,
      "t": 109137.85100000036,
      "d": 206.8963999999978,
      "v": 100
    },
    {
      "midi": 53,
      "hit": false,
      "t": 109137.85100000046,
      "d": 206.8963999999978,
      "v": 100
    },
    {
      "midi": 57,
      "hit": false,
      "t": 109137.85100000046,
      "d": 206.8963999999978,
      "v": 100
    },
    {
      "midi": 60,
      "hit": false,
      "t": 109137.85100000046,
      "d": 206.8963999999978,
      "v": 100
    },
    {
      "midi": 72,
      "hit": false,
      "t": 109396.4715000001,
      "d": 206.8963999999978,
      "v": 100
    },
    {
      "midi": 40,
      "hit": false,
      "t": 109396.47150000036,
      "d": 206.8963999999978,
      "v": 100
    },
    {
      "midi": 53,
      "hit": false,
      "t": 109396.47150000047,
      "d": 206.8963999999978,
      "v": 100
    },
    {
      "midi": 57,
      "hit": false,
      "t": 109396.47150000047,
      "d": 206.8963999999978,
      "v": 100
    },
    {
      "midi": 60,
      "hit": false,
      "t": 109396.47150000047,
      "d": 206.8963999999978,
      "v": 100
    },
    {
      "midi": 74,
      "hit": false,
      "t": 109655.0920000001,
      "d": 103.4481999999989,
      "v": 100
    },
    {
      "midi": 54,
      "hit": false,
      "t": 109655.09200000037,
      "d": 206.8963999999978,
      "v": 100
    },
    {
      "midi": 53,
      "hit": false,
      "t": 109655.09200000047,
      "d": 206.8963999999978,
      "v": 100
    },
    {
      "midi": 57,
      "hit": false,
      "t": 109655.09200000047,
      "d": 206.8963999999978,
      "v": 100
    },
    {
      "midi": 60,
      "hit": false,
      "t": 109655.09200000047,
      "d": 206.8963999999978,
      "v": 100
    },
    {
      "midi": 76,
      "hit": false,
      "t": 109784.4022500001,
      "d": 1370.6886499999964,
      "v": 100
    },
    {
      "midi": 49,
      "hit": false,
      "t": 109913.71250000037,
      "d": 206.8963999999978,
      "v": 100
    },
    {
      "midi": 54,
      "hit": false,
      "t": 109913.71250000037,
      "d": 206.8963999999978,
      "v": 100
    },
    {
      "midi": 50,
      "hit": false,
      "t": 109913.71250000047,
      "d": 206.8963999999978,
      "v": 100
    },
    {
      "midi": 53,
      "hit": false,
      "t": 109913.71250000047,
      "d": 206.8963999999978,
      "v": 100
    },
    {
      "midi": 57,
      "hit": false,
      "t": 109913.71250000047,
      "d": 206.8963999999978,
      "v": 100
    },
    {
      "midi": 54,
      "hit": false,
      "t": 110172.33300000038,
      "d": 206.8963999999978,
      "v": 100
    },
    {
      "midi": 50,
      "hit": false,
      "t": 110172.33300000048,
      "d": 206.8963999999978,
      "v": 100
    },
    {
      "midi": 53,
      "hit": false,
      "t": 110172.33300000048,
      "d": 206.8963999999978,
      "v": 100
    },
    {
      "midi": 57,
      "hit": false,
      "t": 110172.33300000048,
      "d": 206.8963999999978,
      "v": 100
    },
    {
      "midi": 40,
      "hit": false,
      "t": 110430.95350000038,
      "d": 206.8963999999978,
      "v": 100
    },
    {
      "midi": 50,
      "hit": false,
      "t": 110430.95350000048,
      "d": 206.8963999999978,
      "v": 100
    },
    {
      "midi": 53,
      "hit": false,
      "t": 110430.95350000048,
      "d": 206.8963999999978,
      "v": 100
    },
    {
      "midi": 57,
      "hit": false,
      "t": 110430.95350000048,
      "d": 206.8963999999978,
      "v": 100
    },
    {
      "midi": 54,
      "hit": false,
      "t": 110689.57400000039,
      "d": 206.8963999999978,
      "v": 100
    },
    {
      "midi": 50,
      "hit": false,
      "t": 110689.57400000049,
      "d": 206.8963999999978,
      "v": 100
    },
    {
      "midi": 53,
      "hit": false,
      "t": 110689.57400000049,
      "d": 206.8963999999978,
      "v": 100
    },
    {
      "midi": 57,
      "hit": false,
      "t": 110689.57400000049,
      "d": 206.8963999999978,
      "v": 100
    },
    {
      "midi": 54,
      "hit": false,
      "t": 110948.19450000039,
      "d": 206.8963999999978,
      "v": 100
    },
    {
      "midi": 60,
      "hit": false,
      "t": 110948.19450000049,
      "d": 206.8963999999978,
      "v": 100
    },
    {
      "midi": 64,
      "hit": false,
      "t": 110948.19450000049,
      "d": 206.8963999999978,
      "v": 100
    },
    {
      "midi": 67,
      "hit": false,
      "t": 110948.19450000049,
      "d": 206.8963999999978,
      "v": 100
    },
    {
      "midi": 74,
      "hit": false,
      "t": 111206.8150000001,
      "d": 206.8963999999978,
      "v": 100
    },
    {
      "midi": 54,
      "hit": false,
      "t": 111206.8150000004,
      "d": 206.8963999999978,
      "v": 100
    },
    {
      "midi": 60,
      "hit": false,
      "t": 111206.8150000005,
      "d": 206.8963999999978,
      "v": 100
    },
    {
      "midi": 64,
      "hit": false,
      "t": 111206.8150000005,
      "d": 206.8963999999978,
      "v": 100
    },
    {
      "midi": 67,
      "hit": false,
      "t": 111206.8150000005,
      "d": 206.8963999999978,
      "v": 100
    },
    {
      "midi": 72,
      "hit": false,
      "t": 111465.43550000011,
      "d": 206.8963999999978,
      "v": 100
    },
    {
      "midi": 40,
      "hit": false,
      "t": 111465.4355000004,
      "d": 206.8963999999978,
      "v": 100
    },
    {
      "midi": 60,
      "hit": false,
      "t": 111465.4355000005,
      "d": 206.8963999999978,
      "v": 100
    },
    {
      "midi": 64,
      "hit": false,
      "t": 111465.4355000005,
      "d": 206.8963999999978,
      "v": 100
    },
    {
      "midi": 67,
      "hit": false,
      "t": 111465.4355000005,
      "d": 206.8963999999978,
      "v": 100
    },
    {
      "midi": 70,
      "hit": false,
      "t": 111724.05600000011,
      "d": 206.8963999999978,
      "v": 100
    },
    {
      "midi": 54,
      "hit": false,
      "t": 111724.0560000004,
      "d": 206.8963999999978,
      "v": 100
    },
    {
      "midi": 60,
      "hit": false,
      "t": 111724.0560000005,
      "d": 206.8963999999978,
      "v": 100
    },
    {
      "midi": 64,
      "hit": false,
      "t": 111724.0560000005,
      "d": 206.8963999999978,
      "v": 100
    },
    {
      "midi": 67,
      "hit": false,
      "t": 111724.0560000005,
      "d": 206.8963999999978,
      "v": 100
    },
    {
      "midi": 69,
      "hit": false,
      "t": 111982.67650000012,
      "d": 103.4481999999989,
      "v": 100
    },
    {
      "midi": 49,
      "hit": false,
      "t": 111982.67650000041,
      "d": 206.8963999999978,
      "v": 100
    },
    {
      "midi": 54,
      "hit": false,
      "t": 111982.67650000041,
      "d": 206.8963999999978,
      "v": 100
    },
    {
      "midi": 53,
      "hit": false,
      "t": 111982.67650000051,
      "d": 206.8963999999978,
      "v": 100
    },
    {
      "midi": 57,
      "hit": false,
      "t": 111982.67650000051,
      "d": 206.8963999999978,
      "v": 100
    },
    {
      "midi": 60,
      "hit": false,
      "t": 111982.67650000051,
      "d": 206.8963999999978,
      "v": 100
    },
    {
      "midi": 67,
      "hit": false,
      "t": 112111.98675000011,
      "d": 103.4481999999989,
      "v": 100
    },
    {
      "midi": 69,
      "hit": false,
      "t": 112241.29700000011,
      "d": 672.4133000000002,
      "v": 100
    },
    {
      "midi": 54,
      "hit": false,
      "t": 112241.29700000041,
      "d": 206.8963999999978,
      "v": 100
    },
    {
      "midi": 53,
      "hit": false,
      "t": 112241.29700000052,
      "d": 206.8963999999978,
      "v": 100
    },
    {
      "midi": 57,
      "hit": false,
      "t": 112241.29700000052,
      "d": 206.8963999999978,
      "v": 100
    },
    {
      "midi": 60,
      "hit": false,
      "t": 112241.29700000052,
      "d": 206.8963999999978,
      "v": 100
    },
    {
      "midi": 40,
      "hit": false,
      "t": 112499.91750000042,
      "d": 206.8963999999978,
      "v": 100
    },
    {
      "midi": 53,
      "hit": false,
      "t": 112499.91750000052,
      "d": 206.8963999999978,
      "v": 100
    },
    {
      "midi": 57,
      "hit": false,
      "t": 112499.91750000052,
      "d": 206.8963999999978,
      "v": 100
    },
    {
      "midi": 60,
      "hit": false,
      "t": 112499.91750000052,
      "d": 206.8963999999978,
      "v": 100
    },
    {
      "midi": 54,
      "hit": false,
      "t": 112758.53800000042,
      "d": 206.8963999999978,
      "v": 100
    },
    {
      "midi": 53,
      "hit": false,
      "t": 112758.53800000052,
      "d": 206.8963999999978,
      "v": 100
    },
    {
      "midi": 57,
      "hit": false,
      "t": 112758.53800000052,
      "d": 206.8963999999978,
      "v": 100
    },
    {
      "midi": 60,
      "hit": false,
      "t": 112758.53800000052,
      "d": 206.8963999999978,
      "v": 100
    },
    {
      "midi": 54,
      "hit": false,
      "t": 113017.15850000043,
      "d": 206.8963999999978,
      "v": 100
    },
    {
      "midi": 54,
      "hit": false,
      "t": 113017.15850000053,
      "d": 206.8963999999978,
      "v": 100
    },
    {
      "midi": 57,
      "hit": false,
      "t": 113017.15850000053,
      "d": 206.8963999999978,
      "v": 100
    },
    {
      "midi": 60,
      "hit": false,
      "t": 113017.15850000053,
      "d": 206.8963999999978,
      "v": 100
    },
    {
      "midi": 63,
      "hit": false,
      "t": 113017.15850000053,
      "d": 206.8963999999978,
      "v": 100
    },
    {
      "midi": 54,
      "hit": false,
      "t": 113275.77900000043,
      "d": 206.8963999999978,
      "v": 100
    },
    {
      "midi": 54,
      "hit": false,
      "t": 113275.77900000053,
      "d": 206.8963999999978,
      "v": 100
    },
    {
      "midi": 57,
      "hit": false,
      "t": 113275.77900000053,
      "d": 206.8963999999978,
      "v": 100
    },
    {
      "midi": 60,
      "hit": false,
      "t": 113275.77900000053,
      "d": 206.8963999999978,
      "v": 100
    },
    {
      "midi": 63,
      "hit": false,
      "t": 113275.77900000053,
      "d": 206.8963999999978,
      "v": 100
    },
    {
      "midi": 70,
      "hit": false,
      "t": 113534.3995000001,
      "d": 206.8963999999978,
      "v": 100
    },
    {
      "midi": 40,
      "hit": false,
      "t": 113534.39950000044,
      "d": 206.8963999999978,
      "v": 100
    },
    {
      "midi": 54,
      "hit": false,
      "t": 113534.39950000054,
      "d": 206.8963999999978,
      "v": 100
    },
    {
      "midi": 57,
      "hit": false,
      "t": 113534.39950000054,
      "d": 206.8963999999978,
      "v": 100
    },
    {
      "midi": 60,
      "hit": false,
      "t": 113534.39950000054,
      "d": 206.8963999999978,
      "v": 100
    },
    {
      "midi": 63,
      "hit": false,
      "t": 113534.39950000054,
      "d": 206.8963999999978,
      "v": 100
    },
    {
      "midi": 72,
      "hit": false,
      "t": 113793.0200000001,
      "d": 103.4481999999989,
      "v": 100
    },
    {
      "midi": 54,
      "hit": false,
      "t": 113793.02000000044,
      "d": 206.8963999999978,
      "v": 100
    },
    {
      "midi": 54,
      "hit": false,
      "t": 113793.02000000054,
      "d": 206.8963999999978,
      "v": 100
    },
    {
      "midi": 57,
      "hit": false,
      "t": 113793.02000000054,
      "d": 206.8963999999978,
      "v": 100
    },
    {
      "midi": 60,
      "hit": false,
      "t": 113793.02000000054,
      "d": 206.8963999999978,
      "v": 100
    },
    {
      "midi": 63,
      "hit": false,
      "t": 113793.02000000054,
      "d": 206.8963999999978,
      "v": 100
    },
    {
      "midi": 74,
      "hit": false,
      "t": 113922.3302500001,
      "d": 1370.6886499999964,
      "v": 100
    },
    {
      "midi": 49,
      "hit": false,
      "t": 114051.64050000045,
      "d": 206.8963999999978,
      "v": 100
    },
    {
      "midi": 54,
      "hit": false,
      "t": 114051.64050000045,
      "d": 206.8963999999978,
      "v": 100
    },
    {
      "midi": 55,
      "hit": false,
      "t": 114051.64050000055,
      "d": 206.8963999999978,
      "v": 100
    },
    {
      "midi": 58,
      "hit": false,
      "t": 114051.64050000055,
      "d": 206.8963999999978,
      "v": 100
    },
    {
      "midi": 62,
      "hit": false,
      "t": 114051.64050000055,
      "d": 206.8963999999978,
      "v": 100
    },
    {
      "midi": 54,
      "hit": false,
      "t": 114310.26100000045,
      "d": 206.8963999999978,
      "v": 100
    },
    {
      "midi": 55,
      "hit": false,
      "t": 114310.26100000055,
      "d": 206.8963999999978,
      "v": 100
    },
    {
      "midi": 58,
      "hit": false,
      "t": 114310.26100000055,
      "d": 206.8963999999978,
      "v": 100
    },
    {
      "midi": 62,
      "hit": false,
      "t": 114310.26100000055,
      "d": 206.8963999999978,
      "v": 100
    },
    {
      "midi": 40,
      "hit": false,
      "t": 114568.88150000045,
      "d": 206.8963999999978,
      "v": 100
    },
    {
      "midi": 55,
      "hit": false,
      "t": 114568.88150000056,
      "d": 206.8963999999978,
      "v": 100
    },
    {
      "midi": 58,
      "hit": false,
      "t": 114568.88150000056,
      "d": 206.8963999999978,
      "v": 100
    },
    {
      "midi": 62,
      "hit": false,
      "t": 114568.88150000056,
      "d": 206.8963999999978,
      "v": 100
    },
    {
      "midi": 54,
      "hit": false,
      "t": 114827.50200000046,
      "d": 206.8963999999978,
      "v": 100
    },
    {
      "midi": 55,
      "hit": false,
      "t": 114827.50200000056,
      "d": 206.8963999999978,
      "v": 100
    },
    {
      "midi": 58,
      "hit": false,
      "t": 114827.50200000056,
      "d": 206.8963999999978,
      "v": 100
    },
    {
      "midi": 62,
      "hit": false,
      "t": 114827.50200000056,
      "d": 206.8963999999978,
      "v": 100
    },
    {
      "midi": 54,
      "hit": false,
      "t": 115086.12250000046,
      "d": 206.8963999999978,
      "v": 100
    },
    {
      "midi": 53,
      "hit": false,
      "t": 115086.12250000057,
      "d": 206.8963999999978,
      "v": 100
    },
    {
      "midi": 57,
      "hit": false,
      "t": 115086.12250000057,
      "d": 206.8963999999978,
      "v": 100
    },
    {
      "midi": 60,
      "hit": false,
      "t": 115086.12250000057,
      "d": 206.8963999999978,
      "v": 100
    },
    {
      "midi": 72,
      "hit": false,
      "t": 115344.7430000001,
      "d": 206.8963999999978,
      "v": 100
    },
    {
      "midi": 54,
      "hit": false,
      "t": 115344.74300000047,
      "d": 206.8963999999978,
      "v": 100
    },
    {
      "midi": 53,
      "hit": false,
      "t": 115344.74300000057,
      "d": 206.8963999999978,
      "v": 100
    },
    {
      "midi": 57,
      "hit": false,
      "t": 115344.74300000057,
      "d": 206.8963999999978,
      "v": 100
    },
    {
      "midi": 60,
      "hit": false,
      "t": 115344.74300000057,
      "d": 206.8963999999978,
      "v": 100
    },
    {
      "midi": 70,
      "hit": false,
      "t": 115603.36350000011,
      "d": 206.8963999999978,
      "v": 100
    },
    {
      "midi": 40,
      "hit": false,
      "t": 115603.36350000047,
      "d": 206.8963999999978,
      "v": 100
    },
    {
      "midi": 53,
      "hit": false,
      "t": 115603.36350000057,
      "d": 206.8963999999978,
      "v": 100
    },
    {
      "midi": 57,
      "hit": false,
      "t": 115603.36350000057,
      "d": 206.8963999999978,
      "v": 100
    },
    {
      "midi": 60,
      "hit": false,
      "t": 115603.36350000057,
      "d": 206.8963999999978,
      "v": 100
    },
    {
      "midi": 69,
      "hit": false,
      "t": 115861.98400000011,
      "d": 206.8963999999978,
      "v": 100
    },
    {
      "midi": 54,
      "hit": false,
      "t": 115861.98400000048,
      "d": 206.8963999999978,
      "v": 100
    },
    {
      "midi": 53,
      "hit": false,
      "t": 115861.98400000058,
      "d": 206.8963999999978,
      "v": 100
    },
    {
      "midi": 57,
      "hit": false,
      "t": 115861.98400000058,
      "d": 206.8963999999978,
      "v": 100
    },
    {
      "midi": 60,
      "hit": false,
      "t": 115861.98400000058,
      "d": 206.8963999999978,
      "v": 100
    },
    {
      "midi": 67,
      "hit": false,
      "t": 116120.60450000012,
      "d": 103.4481999999989,
      "v": 100
    },
    {
      "midi": 49,
      "hit": false,
      "t": 116120.60450000048,
      "d": 206.8963999999978,
      "v": 100
    },
    {
      "midi": 54,
      "hit": false,
      "t": 116120.60450000048,
      "d": 206.8963999999978,
      "v": 100
    },
    {
      "midi": 60,
      "hit": false,
      "t": 116120.60450000058,
      "d": 206.8963999999978,
      "v": 100
    },
    {
      "midi": 64,
      "hit": false,
      "t": 116120.60450000058,
      "d": 206.8963999999978,
      "v": 100
    },
    {
      "midi": 67,
      "hit": false,
      "t": 116120.60450000058,
      "d": 206.8963999999978,
      "v": 100
    },
    {
      "midi": 65,
      "hit": false,
      "t": 116249.91475000011,
      "d": 103.4481999999989,
      "v": 100
    },
    {
      "midi": 67,
      "hit": false,
      "t": 116379.22500000011,
      "d": 672.4133000000002,
      "v": 100
    },
    {
      "midi": 54,
      "hit": false,
      "t": 116379.22500000049,
      "d": 206.8963999999978,
      "v": 100
    },
    {
      "midi": 60,
      "hit": false,
      "t": 116379.22500000059,
      "d": 206.8963999999978,
      "v": 100
    },
    {
      "midi": 64,
      "hit": false,
      "t": 116379.22500000059,
      "d": 206.8963999999978,
      "v": 100
    },
    {
      "midi": 67,
      "hit": false,
      "t": 116379.22500000059,
      "d": 206.8963999999978,
      "v": 100
    },
    {
      "midi": 40,
      "hit": false,
      "t": 116637.84550000049,
      "d": 206.8963999999978,
      "v": 100
    },
    {
      "midi": 60,
      "hit": false,
      "t": 116637.84550000059,
      "d": 206.8963999999978,
      "v": 100
    },
    {
      "midi": 64,
      "hit": false,
      "t": 116637.84550000059,
      "d": 206.8963999999978,
      "v": 100
    },
    {
      "midi": 67,
      "hit": false,
      "t": 116637.84550000059,
      "d": 206.8963999999978,
      "v": 100
    },
    {
      "midi": 54,
      "hit": false,
      "t": 116896.4660000005,
      "d": 206.8963999999978,
      "v": 100
    },
    {
      "midi": 60,
      "hit": false,
      "t": 116896.4660000006,
      "d": 206.8963999999978,
      "v": 100
    },
    {
      "midi": 64,
      "hit": false,
      "t": 116896.4660000006,
      "d": 206.8963999999978,
      "v": 100
    },
    {
      "midi": 67,
      "hit": false,
      "t": 116896.4660000006,
      "d": 206.8963999999978,
      "v": 100
    },
    {
      "midi": 54,
      "hit": false,
      "t": 117155.0865000005,
      "d": 206.8963999999978,
      "v": 100
    },
    {
      "midi": 60,
      "hit": false,
      "t": 117155.0865000006,
      "d": 206.8963999999978,
      "v": 100
    },
    {
      "midi": 64,
      "hit": false,
      "t": 117155.0865000006,
      "d": 206.8963999999978,
      "v": 100
    },
    {
      "midi": 67,
      "hit": false,
      "t": 117155.0865000006,
      "d": 206.8963999999978,
      "v": 100
    },
    {
      "midi": 54,
      "hit": false,
      "t": 117413.7070000005,
      "d": 206.8963999999978,
      "v": 100
    },
    {
      "midi": 60,
      "hit": false,
      "t": 117413.7070000006,
      "d": 206.8963999999978,
      "v": 100
    },
    {
      "midi": 64,
      "hit": false,
      "t": 117413.7070000006,
      "d": 206.8963999999978,
      "v": 100
    },
    {
      "midi": 67,
      "hit": false,
      "t": 117413.7070000006,
      "d": 206.8963999999978,
      "v": 100
    },
    {
      "midi": 72,
      "hit": false,
      "t": 117672.3275000001,
      "d": 206.8963999999978,
      "v": 100
    },
    {
      "midi": 40,
      "hit": false,
      "t": 117672.32750000051,
      "d": 206.8963999999978,
      "v": 100
    },
    {
      "midi": 60,
      "hit": false,
      "t": 117672.32750000061,
      "d": 206.8963999999978,
      "v": 100
    },
    {
      "midi": 64,
      "hit": false,
      "t": 117672.32750000061,
      "d": 206.8963999999978,
      "v": 100
    },
    {
      "midi": 67,
      "hit": false,
      "t": 117672.32750000061,
      "d": 206.8963999999978,
      "v": 100
    },
    {
      "midi": 74,
      "hit": false,
      "t": 117930.9480000001,
      "d": 103.4481999999989,
      "v": 100
    },
    {
      "midi": 54,
      "hit": false,
      "t": 117930.94800000051,
      "d": 206.8963999999978,
      "v": 100
    },
    {
      "midi": 60,
      "hit": false,
      "t": 117930.94800000062,
      "d": 206.8963999999978,
      "v": 100
    },
    {
      "midi": 64,
      "hit": false,
      "t": 117930.94800000062,
      "d": 206.8963999999978,
      "v": 100
    },
    {
      "midi": 67,
      "hit": false,
      "t": 117930.94800000062,
      "d": 206.8963999999978,
      "v": 100
    },
    {
      "midi": 76,
      "hit": false,
      "t": 118060.2582500001,
      "d": 1370.6886499999964,
      "v": 100
    },
    {
      "midi": 49,
      "hit": false,
      "t": 118189.56850000052,
      "d": 206.8963999999978,
      "v": 100
    },
    {
      "midi": 54,
      "hit": false,
      "t": 118189.56850000052,
      "d": 206.8963999999978,
      "v": 100
    },
    {
      "midi": 52,
      "hit": false,
      "t": 118189.56850000062,
      "d": 206.8963999999978,
      "v": 100
    },
    {
      "midi": 56,
      "hit": false,
      "t": 118189.56850000062,
      "d": 206.8963999999978,
      "v": 100
    },
    {
      "midi": 59,
      "hit": false,
      "t": 118189.56850000062,
      "d": 206.8963999999978,
      "v": 100
    },
    {
      "midi": 54,
      "hit": false,
      "t": 118448.18900000052,
      "d": 206.8963999999978,
      "v": 100
    },
    {
      "midi": 52,
      "hit": false,
      "t": 118448.18900000062,
      "d": 206.8963999999978,
      "v": 100
    },
    {
      "midi": 56,
      "hit": false,
      "t": 118448.18900000062,
      "d": 206.8963999999978,
      "v": 100
    },
    {
      "midi": 59,
      "hit": false,
      "t": 118448.18900000062,
      "d": 206.8963999999978,
      "v": 100
    },
    {
      "midi": 40,
      "hit": false,
      "t": 118706.80950000053,
      "d": 206.8963999999978,
      "v": 100
    },
    {
      "midi": 52,
      "hit": false,
      "t": 118706.80950000063,
      "d": 206.8963999999978,
      "v": 100
    },
    {
      "midi": 56,
      "hit": false,
      "t": 118706.80950000063,
      "d": 206.8963999999978,
      "v": 100
    },
    {
      "midi": 59,
      "hit": false,
      "t": 118706.80950000063,
      "d": 206.8963999999978,
      "v": 100
    },
    {
      "midi": 54,
      "hit": false,
      "t": 118965.43000000053,
      "d": 206.8963999999978,
      "v": 100
    },
    {
      "midi": 52,
      "hit": false,
      "t": 118965.43000000063,
      "d": 206.8963999999978,
      "v": 100
    },
    {
      "midi": 56,
      "hit": false,
      "t": 118965.43000000063,
      "d": 206.8963999999978,
      "v": 100
    },
    {
      "midi": 59,
      "hit": false,
      "t": 118965.43000000063,
      "d": 206.8963999999978,
      "v": 100
    },
    {
      "midi": 54,
      "hit": false,
      "t": 119224.05050000054,
      "d": 206.8963999999978,
      "v": 100
    },
    {
      "midi": 52,
      "hit": false,
      "t": 119224.05050000064,
      "d": 206.8963999999978,
      "v": 100
    },
    {
      "midi": 56,
      "hit": false,
      "t": 119224.05050000064,
      "d": 206.8963999999978,
      "v": 100
    },
    {
      "midi": 59,
      "hit": false,
      "t": 119224.05050000064,
      "d": 206.8963999999978,
      "v": 100
    },
    {
      "midi": 77,
      "hit": false,
      "t": 119482.6710000001,
      "d": 206.8963999999978,
      "v": 100
    },
    {
      "midi": 54,
      "hit": false,
      "t": 119482.67100000054,
      "d": 206.8963999999978,
      "v": 100
    },
    {
      "midi": 52,
      "hit": false,
      "t": 119482.67100000064,
      "d": 206.8963999999978,
      "v": 100
    },
    {
      "midi": 56,
      "hit": false,
      "t": 119482.67100000064,
      "d": 206.8963999999978,
      "v": 100
    },
    {
      "midi": 59,
      "hit": false,
      "t": 119482.67100000064,
      "d": 206.8963999999978,
      "v": 100
    },
    {
      "midi": 76,
      "hit": false,
      "t": 119741.29150000011,
      "d": 206.8963999999978,
      "v": 100
    },
    {
      "midi": 40,
      "hit": false,
      "t": 119741.29150000055,
      "d": 206.8963999999978,
      "v": 100
    },
    {
      "midi": 52,
      "hit": false,
      "t": 119741.29150000065,
      "d": 206.8963999999978,
      "v": 100
    },
    {
      "midi": 56,
      "hit": false,
      "t": 119741.29150000065,
      "d": 206.8963999999978,
      "v": 100
    },
    {
      "midi": 59,
      "hit": false,
      "t": 119741.29150000065,
      "d": 206.8963999999978,
      "v": 100
    },
    {
      "midi": 74,
      "hit": false,
      "t": 119999.91200000011,
      "d": 206.8963999999978,
      "v": 100
    },
    {
      "midi": 54,
      "hit": false,
      "t": 119999.91200000055,
      "d": 206.8963999999978,
      "v": 100
    },
    {
      "midi": 52,
      "hit": false,
      "t": 119999.91200000065,
      "d": 206.8963999999978,
      "v": 100
    },
    {
      "midi": 56,
      "hit": false,
      "t": 119999.91200000065,
      "d": 206.8963999999978,
      "v": 100
    },
    {
      "midi": 59,
      "hit": false,
      "t": 119999.91200000065,
      "d": 206.8963999999978,
      "v": 100
    },
    {
      "midi": 72,
      "hit": false,
      "t": 120258.53250000012,
      "d": 103.4481999999989,
      "v": 100
    },
    {
      "midi": 49,
      "hit": false,
      "t": 120258.53250000055,
      "d": 206.8963999999978,
      "v": 100
    },
    {
      "midi": 54,
      "hit": false,
      "t": 120258.53250000055,
      "d": 206.8963999999978,
      "v": 100
    },
    {
      "midi": 57,
      "hit": false,
      "t": 120258.53250000066,
      "d": 206.8963999999978,
      "v": 100
    },
    {
      "midi": 60,
      "hit": false,
      "t": 120258.53250000066,
      "d": 206.8963999999978,
      "v": 100
    },
    {
      "midi": 64,
      "hit": false,
      "t": 120258.53250000066,
      "d": 206.8963999999978,
      "v": 100
    },
    {
      "midi": 71,
      "hit": false,
      "t": 120387.84275000011,
      "d": 103.4481999999989,
      "v": 100
    },
    {
      "midi": 72,
      "hit": false,
      "t": 120517.15300000011,
      "d": 1086.2060999999958,
      "v": 100
    },
    {
      "midi": 54,
      "hit": false,
      "t": 120517.15300000056,
      "d": 206.8963999999978,
      "v": 100
    },
    {
      "midi": 57,
      "hit": false,
      "t": 120517.15300000066,
      "d": 206.8963999999978,
      "v": 100
    },
    {
      "midi": 60,
      "hit": false,
      "t": 120517.15300000066,
      "d": 206.8963999999978,
      "v": 100
    },
    {
      "midi": 64,
      "hit": false,
      "t": 120517.15300000066,
      "d": 206.8963999999978,
      "v": 100
    },
    {
      "midi": 40,
      "hit": false,
      "t": 120775.77350000056,
      "d": 206.8963999999978,
      "v": 100
    },
    {
      "midi": 57,
      "hit": false,
      "t": 120775.77350000067,
      "d": 206.8963999999978,
      "v": 100
    },
    {
      "midi": 60,
      "hit": false,
      "t": 120775.77350000067,
      "d": 206.8963999999978,
      "v": 100
    },
    {
      "midi": 64,
      "hit": false,
      "t": 120775.77350000067,
      "d": 206.8963999999978,
      "v": 100
    },
    {
      "midi": 54,
      "hit": false,
      "t": 121034.39400000057,
      "d": 206.8963999999978,
      "v": 100
    },
    {
      "midi": 57,
      "hit": false,
      "t": 121034.39400000067,
      "d": 206.8963999999978,
      "v": 100
    },
    {
      "midi": 60,
      "hit": false,
      "t": 121034.39400000067,
      "d": 206.8963999999978,
      "v": 100
    },
    {
      "midi": 64,
      "hit": false,
      "t": 121034.39400000067,
      "d": 206.8963999999978,
      "v": 100
    },
    {
      "midi": 54,
      "hit": false,
      "t": 121293.01450000057,
      "d": 206.8963999999978,
      "v": 100
    },
    {
      "midi": 57,
      "hit": false,
      "t": 121293.01450000067,
      "d": 206.8963999999978,
      "v": 100
    },
    {
      "midi": 60,
      "hit": false,
      "t": 121293.01450000067,
      "d": 206.8963999999978,
      "v": 100
    },
    {
      "midi": 64,
      "hit": false,
      "t": 121293.01450000067,
      "d": 206.8963999999978,
      "v": 100
    },
    {
      "midi": 54,
      "hit": false,
      "t": 121551.63500000058,
      "d": 206.8963999999978,
      "v": 100
    },
    {
      "midi": 57,
      "hit": false,
      "t": 121551.63500000068,
      "d": 206.8963999999978,
      "v": 100
    },
    {
      "midi": 60,
      "hit": false,
      "t": 121551.63500000068,
      "d": 206.8963999999978,
      "v": 100
    },
    {
      "midi": 64,
      "hit": false,
      "t": 121551.63500000068,
      "d": 206.8963999999978,
      "v": 100
    },
    {
      "midi": 40,
      "hit": false,
      "t": 121810.25550000058,
      "d": 206.8963999999978,
      "v": 100
    },
    {
      "midi": 57,
      "hit": false,
      "t": 121810.25550000068,
      "d": 206.8963999999978,
      "v": 100
    },
    {
      "midi": 60,
      "hit": false,
      "t": 121810.25550000068,
      "d": 206.8963999999978,
      "v": 100
    },
    {
      "midi": 64,
      "hit": false,
      "t": 121810.25550000068,
      "d": 206.8963999999978,
      "v": 100
    },
    {
      "midi": 72,
      "hit": false,
      "t": 122068.8760000001,
      "d": 206.8963999999978,
      "v": 100
    },
    {
      "midi": 54,
      "hit": false,
      "t": 122068.87600000059,
      "d": 206.8963999999978,
      "v": 100
    },
    {
      "midi": 57,
      "hit": false,
      "t": 122068.87600000069,
      "d": 206.8963999999978,
      "v": 100
    },
    {
      "midi": 60,
      "hit": false,
      "t": 122068.87600000069,
      "d": 206.8963999999978,
      "v": 100
    },
    {
      "midi": 64,
      "hit": false,
      "t": 122068.87600000069,
      "d": 206.8963999999978,
      "v": 100
    },
    {
      "midi": 74,
      "hit": false,
      "t": 122327.49650000011,
      "d": 620.6891999999934,
      "v": 100
    },
    {
      "midi": 49,
      "hit": false,
      "t": 122327.49650000059,
      "d": 206.8963999999978,
      "v": 100
    },
    {
      "midi": 54,
      "hit": false,
      "t": 122327.49650000059,
      "d": 206.8963999999978,
      "v": 100
    },
    {
      "midi": 58,
      "hit": false,
      "t": 122327.49650000069,
      "d": 206.8963999999978,
      "v": 100
    },
    {
      "midi": 62,
      "hit": false,
      "t": 122327.49650000069,
      "d": 206.8963999999978,
      "v": 100
    },
    {
      "midi": 65,
      "hit": false,
      "t": 122327.49650000069,
      "d": 206.8963999999978,
      "v": 100
    },
    {
      "midi": 54,
      "hit": false,
      "t": 122586.1170000006,
      "d": 206.8963999999978,
      "v": 100
    },
    {
      "midi": 58,
      "hit": false,
      "t": 122586.1170000007,
      "d": 206.8963999999978,
      "v": 100
    },
    {
      "midi": 62,
      "hit": false,
      "t": 122586.1170000007,
      "d": 206.8963999999978,
      "v": 100
    },
    {
      "midi": 65,
      "hit": false,
      "t": 122586.1170000007,
      "d": 206.8963999999978,
      "v": 100
    },
    {
      "midi": 40,
      "hit": false,
      "t": 122844.7375000006,
      "d": 206.8963999999978,
      "v": 100
    },
    {
      "midi": 58,
      "hit": false,
      "t": 122844.7375000007,
      "d": 206.8963999999978,
      "v": 100
    },
    {
      "midi": 62,
      "hit": false,
      "t": 122844.7375000007,
      "d": 206.8963999999978,
      "v": 100
    },
    {
      "midi": 65,
      "hit": false,
      "t": 122844.7375000007,
      "d": 206.8963999999978,
      "v": 100
    },
    {
      "midi": 74,
      "hit": false,
      "t": 123103.35800000011,
      "d": 206.8963999999978,
      "v": 100
    },
    {
      "midi": 54,
      "hit": false,
      "t": 123103.3580000006,
      "d": 206.8963999999978,
      "v": 100
    },
    {
      "midi": 58,
      "hit": false,
      "t": 123103.3580000007,
      "d": 206.8963999999978,
      "v": 100
    },
    {
      "midi": 62,
      "hit": false,
      "t": 123103.3580000007,
      "d": 206.8963999999978,
      "v": 100
    },
    {
      "midi": 65,
      "hit": false,
      "t": 123103.3580000007,
      "d": 206.8963999999978,
      "v": 100
    },
    {
      "midi": 76,
      "hit": false,
      "t": 123361.97850000011,
      "d": 413.7927999999956,
      "v": 100
    },
    {
      "midi": 54,
      "hit": false,
      "t": 123361.97850000061,
      "d": 206.8963999999978,
      "v": 100
    },
    {
      "midi": 52,
      "hit": false,
      "t": 123361.97850000071,
      "d": 206.8963999999978,
      "v": 100
    },
    {
      "midi": 56,
      "hit": false,
      "t": 123361.97850000071,
      "d": 206.8963999999978,
      "v": 100
    },
    {
      "midi": 59,
      "hit": false,
      "t": 123361.97850000071,
      "d": 206.8963999999978,
      "v": 100
    },
    {
      "midi": 54,
      "hit": false,
      "t": 123620.59900000061,
      "d": 206.8963999999978,
      "v": 100
    },
    {
      "midi": 52,
      "hit": false,
      "t": 123620.59900000072,
      "d": 206.8963999999978,
      "v": 100
    },
    {
      "midi": 56,
      "hit": false,
      "t": 123620.59900000072,
      "d": 206.8963999999978,
      "v": 100
    },
    {
      "midi": 59,
      "hit": false,
      "t": 123620.59900000072,
      "d": 206.8963999999978,
      "v": 100
    },
    {
      "midi": 77,
      "hit": false,
      "t": 123879.21950000011,
      "d": 413.7927999999956,
      "v": 100
    },
    {
      "midi": 40,
      "hit": false,
      "t": 123879.21950000062,
      "d": 206.8963999999978,
      "v": 100
    },
    {
      "midi": 52,
      "hit": false,
      "t": 123879.21950000072,
      "d": 206.8963999999978,
      "v": 100
    },
    {
      "midi": 56,
      "hit": false,
      "t": 123879.21950000072,
      "d": 206.8963999999978,
      "v": 100
    },
    {
      "midi": 59,
      "hit": false,
      "t": 123879.21950000072,
      "d": 206.8963999999978,
      "v": 100
    },
    {
      "midi": 54,
      "hit": false,
      "t": 124137.84000000062,
      "d": 206.8963999999978,
      "v": 100
    },
    {
      "midi": 52,
      "hit": false,
      "t": 124137.84000000072,
      "d": 206.8963999999978,
      "v": 100
    },
    {
      "midi": 56,
      "hit": false,
      "t": 124137.84000000072,
      "d": 206.8963999999978,
      "v": 100
    },
    {
      "midi": 59,
      "hit": false,
      "t": 124137.84000000072,
      "d": 206.8963999999978,
      "v": 100
    },
    {
      "midi": 76,
      "hit": false,
      "t": 124396.4605000001,
      "d": 827.5856000000058,
      "v": 100
    },
    {
      "midi": 49,
      "hit": false,
      "t": 124396.46050000063,
      "d": 206.8963999999978,
      "v": 100
    },
    {
      "midi": 40,
      "hit": false,
      "t": 124396.46050000063,
      "d": 206.8963999999978,
      "v": 100
    },
    {
      "midi": 57,
      "hit": false,
      "t": 124396.46050000073,
      "d": 206.8963999999978,
      "v": 100
    },
    {
      "midi": 61,
      "hit": false,
      "t": 124396.46050000073,
      "d": 206.8963999999978,
      "v": 100
    },
    {
      "midi": 64,
      "hit": false,
      "t": 124396.46050000073,
      "d": 206.8963999999978,
      "v": 100
    },
    {
      "midi": 49,
      "hit": false,
      "t": 124655.08100000063,
      "d": 206.8963999999978,
      "v": 100
    },
    {
      "midi": 40,
      "hit": false,
      "t": 124655.08100000063,
      "d": 206.8963999999978,
      "v": 100
    },
    {
      "midi": 57,
      "hit": false,
      "t": 124655.08100000073,
      "d": 206.8963999999978,
      "v": 100
    },
    {
      "midi": 61,
      "hit": false,
      "t": 124655.08100000073,
      "d": 206.8963999999978,
      "v": 100
    },
    {
      "midi": 64,
      "hit": false,
      "t": 124655.08100000073,
      "d": 206.8963999999978,
      "v": 100
    },
    {
      "midi": 49,
      "hit": false,
      "t": 124913.70150000064,
      "d": 103.4481999999989,
      "v": 100
    },
    {
      "midi": 40,
      "hit": false,
      "t": 124913.70150000064,
      "d": 103.4481999999989,
      "v": 100
    },
    {
      "midi": 57,
      "hit": false,
      "t": 124913.70150000074,
      "d": 206.8963999999978,
      "v": 100
    },
    {
      "midi": 61,
      "hit": false,
      "t": 124913.70150000074,
      "d": 206.8963999999978,
      "v": 100
    },
    {
      "midi": 64,
      "hit": false,
      "t": 124913.70150000074,
      "d": 206.8963999999978,
      "v": 100
    },
    {
      "midi": 49,
      "hit": false,
      "t": 125043.01175000063,
      "d": 103.4481999999989,
      "v": 100
    },
    {
      "midi": 40,
      "hit": false,
      "t": 125043.01175000063,
      "d": 103.4481999999989,
      "v": 100
    },
    {
      "midi": 49,
      "hit": false,
      "t": 125172.32200000063,
      "d": 103.4481999999989,
      "v": 100
    },
    {
      "midi": 40,
      "hit": false,
      "t": 125172.32200000063,
      "d": 103.4481999999989,
      "v": 100
    },
    {
      "midi": 57,
      "hit": false,
      "t": 125172.32200000074,
      "d": 206.8963999999978,
      "v": 100
    },
    {
      "midi": 61,
      "hit": false,
      "t": 125172.32200000074,
      "d": 206.8963999999978,
      "v": 100
    },
    {
      "midi": 64,
      "hit": false,
      "t": 125172.32200000074,
      "d": 206.8963999999978,
      "v": 100
    },
    {
      "midi": 49,
      "hit": false,
      "t": 125301.63225000062,
      "d": 103.4481999999989,
      "v": 100
    },
    {
      "midi": 40,
      "hit": false,
      "t": 125301.63225000062,
      "d": 103.4481999999989,
      "v": 100
    },
    {
      "midi": 72,
      "hit": false,
      "t": 125689.56300000011,
      "d": 206.8963999999978,
      "v": 100
    },
    {
      "midi": 77,
      "hit": false,
      "t": 125948.18350000012,
      "d": 206.8963999999978,
      "v": 100
    },
    {
      "midi": 76,
      "hit": false,
      "t": 126206.80400000012,
      "d": 103.4481999999989,
      "v": 100
    },
    {
      "midi": 77,
      "hit": false,
      "t": 126336.11425000012,
      "d": 956.8958500000008,
      "v": 100
    },
    {
      "midi": 49,
      "hit": false,
      "t": 126465.42450000062,
      "d": 206.8963999999978,
      "v": 100
    },
    {
      "midi": 54,
      "hit": false,
      "t": 126465.42450000062,
      "d": 206.8963999999978,
      "v": 100
    },
    {
      "midi": 53,
      "hit": false,
      "t": 126465.42450000074,
      "d": 206.8963999999978,
      "v": 100
    },
    {
      "midi": 57,
      "hit": false,
      "t": 126465.42450000074,
      "d": 206.8963999999978,
      "v": 100
    },
    {
      "midi": 60,
      "hit": false,
      "t": 126465.42450000074,
      "d": 206.8963999999978,
      "v": 100
    },
    {
      "midi": 54,
      "hit": false,
      "t": 126724.04500000062,
      "d": 206.8963999999978,
      "v": 100
    },
    {
      "midi": 53,
      "hit": false,
      "t": 126724.04500000074,
      "d": 206.8963999999978,
      "v": 100
    },
    {
      "midi": 57,
      "hit": false,
      "t": 126724.04500000074,
      "d": 206.8963999999978,
      "v": 100
    },
    {
      "midi": 60,
      "hit": false,
      "t": 126724.04500000074,
      "d": 206.8963999999978,
      "v": 100
    },
    {
      "midi": 40,
      "hit": false,
      "t": 126982.66550000063,
      "d": 206.8963999999978,
      "v": 100
    },
    {
      "midi": 53,
      "hit": false,
      "t": 126982.66550000074,
      "d": 206.8963999999978,
      "v": 100
    },
    {
      "midi": 57,
      "hit": false,
      "t": 126982.66550000074,
      "d": 206.8963999999978,
      "v": 100
    },
    {
      "midi": 60,
      "hit": false,
      "t": 126982.66550000074,
      "d": 206.8963999999978,
      "v": 100
    },
    {
      "midi": 54,
      "hit": false,
      "t": 127241.28600000063,
      "d": 206.8963999999978,
      "v": 100
    },
    {
      "midi": 53,
      "hit": false,
      "t": 127241.28600000075,
      "d": 206.8963999999978,
      "v": 100
    },
    {
      "midi": 57,
      "hit": false,
      "t": 127241.28600000075,
      "d": 206.8963999999978,
      "v": 100
    },
    {
      "midi": 60,
      "hit": false,
      "t": 127241.28600000075,
      "d": 206.8963999999978,
      "v": 100
    },
    {
      "midi": 54,
      "hit": false,
      "t": 127499.90650000064,
      "d": 206.8963999999978,
      "v": 100
    },
    {
      "midi": 60,
      "hit": false,
      "t": 127499.90650000075,
      "d": 206.8963999999978,
      "v": 100
    },
    {
      "midi": 64,
      "hit": false,
      "t": 127499.90650000075,
      "d": 206.8963999999978,
      "v": 100
    },
    {
      "midi": 67,
      "hit": false,
      "t": 127499.90650000075,
      "d": 206.8963999999978,
      "v": 100
    },
    {
      "midi": 72,
      "hit": false,
      "t": 127758.52700000012,
      "d": 206.8963999999978,
      "v": 100
    },
    {
      "midi": 54,
      "hit": false,
      "t": 127758.52700000064,
      "d": 206.8963999999978,
      "v": 100
    },
    {
      "midi": 60,
      "hit": false,
      "t": 127758.52700000076,
      "d": 206.8963999999978,
      "v": 100
    },
    {
      "midi": 64,
      "hit": false,
      "t": 127758.52700000076,
      "d": 206.8963999999978,
      "v": 100
    },
    {
      "midi": 67,
      "hit": false,
      "t": 127758.52700000076,
      "d": 206.8963999999978,
      "v": 100
    },
    {
      "midi": 79,
      "hit": false,
      "t": 128017.14750000012,
      "d": 206.8963999999978,
      "v": 100
    },
    {
      "midi": 40,
      "hit": false,
      "t": 128017.14750000065,
      "d": 206.8963999999978,
      "v": 100
    },
    {
      "midi": 60,
      "hit": false,
      "t": 128017.14750000076,
      "d": 206.8963999999978,
      "v": 100
    },
    {
      "midi": 64,
      "hit": false,
      "t": 128017.14750000076,
      "d": 206.8963999999978,
      "v": 100
    },
    {
      "midi": 67,
      "hit": false,
      "t": 128017.14750000076,
      "d": 206.8963999999978,
      "v": 100
    },
    {
      "midi": 76,
      "hit": false,
      "t": 128275.76800000013,
      "d": 103.4481999999989,
      "v": 100
    },
    {
      "midi": 54,
      "hit": false,
      "t": 128275.76800000065,
      "d": 206.8963999999978,
      "v": 100
    },
    {
      "midi": 60,
      "hit": false,
      "t": 128275.76800000077,
      "d": 206.8963999999978,
      "v": 100
    },
    {
      "midi": 64,
      "hit": false,
      "t": 128275.76800000077,
      "d": 206.8963999999978,
      "v": 100
    },
    {
      "midi": 67,
      "hit": false,
      "t": 128275.76800000077,
      "d": 206.8963999999978,
      "v": 100
    },
    {
      "midi": 77,
      "hit": false,
      "t": 128405.07825000012,
      "d": 956.8958500000008,
      "v": 100
    },
    {
      "midi": 49,
      "hit": false,
      "t": 128534.38850000066,
      "d": 206.8963999999978,
      "v": 100
    },
    {
      "midi": 54,
      "hit": false,
      "t": 128534.38850000066,
      "d": 206.8963999999978,
      "v": 100
    },
    {
      "midi": 50,
      "hit": false,
      "t": 128534.38850000077,
      "d": 206.8963999999978,
      "v": 100
    },
    {
      "midi": 53,
      "hit": false,
      "t": 128534.38850000077,
      "d": 206.8963999999978,
      "v": 100
    },
    {
      "midi": 57,
      "hit": false,
      "t": 128534.38850000077,
      "d": 206.8963999999978,
      "v": 100
    },
    {
      "midi": 54,
      "hit": false,
      "t": 128793.00900000066,
      "d": 206.8963999999978,
      "v": 100
    },
    {
      "midi": 50,
      "hit": false,
      "t": 128793.00900000078,
      "d": 206.8963999999978,
      "v": 100
    },
    {
      "midi": 53,
      "hit": false,
      "t": 128793.00900000078,
      "d": 206.8963999999978,
      "v": 100
    },
    {
      "midi": 57,
      "hit": false,
      "t": 128793.00900000078,
      "d": 206.8963999999978,
      "v": 100
    },
    {
      "midi": 40,
      "hit": false,
      "t": 129051.62950000066,
      "d": 206.8963999999978,
      "v": 100
    },
    {
      "midi": 50,
      "hit": false,
      "t": 129051.62950000078,
      "d": 206.8963999999978,
      "v": 100
    },
    {
      "midi": 53,
      "hit": false,
      "t": 129051.62950000078,
      "d": 206.8963999999978,
      "v": 100
    },
    {
      "midi": 57,
      "hit": false,
      "t": 129051.62950000078,
      "d": 206.8963999999978,
      "v": 100
    },
    {
      "midi": 54,
      "hit": false,
      "t": 129310.25000000067,
      "d": 206.8963999999978,
      "v": 100
    },
    {
      "midi": 50,
      "hit": false,
      "t": 129310.25000000079,
      "d": 206.8963999999978,
      "v": 100
    },
    {
      "midi": 53,
      "hit": false,
      "t": 129310.25000000079,
      "d": 206.8963999999978,
      "v": 100
    },
    {
      "midi": 57,
      "hit": false,
      "t": 129310.25000000079,
      "d": 206.8963999999978,
      "v": 100
    },
    {
      "midi": 54,
      "hit": false,
      "t": 129568.87050000067,
      "d": 206.8963999999978,
      "v": 100
    },
    {
      "midi": 60,
      "hit": false,
      "t": 129568.87050000079,
      "d": 206.8963999999978,
      "v": 100
    },
    {
      "midi": 64,
      "hit": false,
      "t": 129568.87050000079,
      "d": 206.8963999999978,
      "v": 100
    },
    {
      "midi": 67,
      "hit": false,
      "t": 129568.87050000079,
      "d": 206.8963999999978,
      "v": 100
    },
    {
      "midi": 77,
      "hit": false,
      "t": 129827.49100000013,
      "d": 206.8963999999978,
      "v": 100
    },
    {
      "midi": 54,
      "hit": false,
      "t": 129827.49100000068,
      "d": 206.8963999999978,
      "v": 100
    },
    {
      "midi": 60,
      "hit": false,
      "t": 129827.4910000008,
      "d": 206.8963999999978,
      "v": 100
    },
    {
      "midi": 64,
      "hit": false,
      "t": 129827.4910000008,
      "d": 206.8963999999978,
      "v": 100
    },
    {
      "midi": 67,
      "hit": false,
      "t": 129827.4910000008,
      "d": 206.8963999999978,
      "v": 100
    },
    {
      "midi": 76,
      "hit": false,
      "t": 130086.11150000013,
      "d": 206.8963999999978,
      "v": 100
    },
    {
      "midi": 40,
      "hit": false,
      "t": 130086.11150000068,
      "d": 206.8963999999978,
      "v": 100
    },
    {
      "midi": 60,
      "hit": false,
      "t": 130086.1115000008,
      "d": 206.8963999999978,
      "v": 100
    },
    {
      "midi": 64,
      "hit": false,
      "t": 130086.1115000008,
      "d": 206.8963999999978,
      "v": 100
    },
    {
      "midi": 67,
      "hit": false,
      "t": 130086.1115000008,
      "d": 206.8963999999978,
      "v": 100
    },
    {
      "midi": 72,
      "hit": false,
      "t": 130344.73200000013,
      "d": 103.4481999999989,
      "v": 100
    },
    {
      "midi": 54,
      "hit": false,
      "t": 130344.73200000069,
      "d": 206.8963999999978,
      "v": 100
    },
    {
      "midi": 60,
      "hit": false,
      "t": 130344.7320000008,
      "d": 206.8963999999978,
      "v": 100
    },
    {
      "midi": 64,
      "hit": false,
      "t": 130344.7320000008,
      "d": 206.8963999999978,
      "v": 100
    },
    {
      "midi": 67,
      "hit": false,
      "t": 130344.7320000008,
      "d": 206.8963999999978,
      "v": 100
    },
    {
      "midi": 74,
      "hit": false,
      "t": 130474.04225000013,
      "d": 749.9994499999884,
      "v": 100
    },
    {
      "midi": 49,
      "hit": false,
      "t": 130603.35250000069,
      "d": 206.8963999999978,
      "v": 100
    },
    {
      "midi": 54,
      "hit": false,
      "t": 130603.35250000069,
      "d": 206.8963999999978,
      "v": 100
    },
    {
      "midi": 58,
      "hit": false,
      "t": 130603.35250000081,
      "d": 206.8963999999978,
      "v": 100
    },
    {
      "midi": 62,
      "hit": false,
      "t": 130603.35250000081,
      "d": 206.8963999999978,
      "v": 100
    },
    {
      "midi": 65,
      "hit": false,
      "t": 130603.35250000081,
      "d": 206.8963999999978,
      "v": 100
    },
    {
      "midi": 54,
      "hit": false,
      "t": 130861.9730000007,
      "d": 206.8963999999978,
      "v": 100
    },
    {
      "midi": 58,
      "hit": false,
      "t": 130861.97300000081,
      "d": 206.8963999999978,
      "v": 100
    },
    {
      "midi": 62,
      "hit": false,
      "t": 130861.97300000081,
      "d": 206.8963999999978,
      "v": 100
    },
    {
      "midi": 65,
      "hit": false,
      "t": 130861.97300000081,
      "d": 206.8963999999978,
      "v": 100
    },
    {
      "midi": 40,
      "hit": false,
      "t": 131120.5935000007,
      "d": 206.8963999999978,
      "v": 100
    },
    {
      "midi": 58,
      "hit": false,
      "t": 131120.5935000008,
      "d": 206.8963999999978,
      "v": 100
    },
    {
      "midi": 62,
      "hit": false,
      "t": 131120.5935000008,
      "d": 206.8963999999978,
      "v": 100
    },
    {
      "midi": 65,
      "hit": false,
      "t": 131120.5935000008,
      "d": 206.8963999999978,
      "v": 100
    },
    {
      "midi": 74,
      "hit": false,
      "t": 131379.21400000012,
      "d": 206.8963999999978,
      "v": 100
    },
    {
      "midi": 54,
      "hit": false,
      "t": 131379.21400000068,
      "d": 206.8963999999978,
      "v": 100
    },
    {
      "midi": 58,
      "hit": false,
      "t": 131379.2140000008,
      "d": 206.8963999999978,
      "v": 100
    },
    {
      "midi": 62,
      "hit": false,
      "t": 131379.2140000008,
      "d": 206.8963999999978,
      "v": 100
    },
    {
      "midi": 65,
      "hit": false,
      "t": 131379.2140000008,
      "d": 206.8963999999978,
      "v": 100
    },
    {
      "midi": 72,
      "hit": false,
      "t": 131637.8345000001,
      "d": 310.34460000001127,
      "v": 100
    },
    {
      "midi": 54,
      "hit": false,
      "t": 131637.83450000067,
      "d": 206.8963999999978,
      "v": 100
    },
    {
      "midi": 60,
      "hit": false,
      "t": 131637.83450000078,
      "d": 206.8963999999978,
      "v": 100
    },
    {
      "midi": 64,
      "hit": false,
      "t": 131637.83450000078,
      "d": 206.8963999999978,
      "v": 100
    },
    {
      "midi": 67,
      "hit": false,
      "t": 131637.83450000078,
      "d": 206.8963999999978,
      "v": 100
    },
    {
      "midi": 54,
      "hit": false,
      "t": 131896.45500000066,
      "d": 206.8963999999978,
      "v": 100
    },
    {
      "midi": 60,
      "hit": false,
      "t": 131896.45500000077,
      "d": 206.8963999999978,
      "v": 100
    },
    {
      "midi": 64,
      "hit": false,
      "t": 131896.45500000077,
      "d": 206.8963999999978,
      "v": 100
    },
    {
      "midi": 67,
      "hit": false,
      "t": 131896.45500000077,
      "d": 206.8963999999978,
      "v": 100
    },
    {
      "midi": 67,
      "hit": false,
      "t": 132025.7652500001,
      "d": 336.20665000000736,
      "v": 100
    },
    {
      "midi": 40,
      "hit": false,
      "t": 132155.07550000065,
      "d": 206.8963999999978,
      "v": 100
    },
    {
      "midi": 60,
      "hit": false,
      "t": 132155.07550000076,
      "d": 206.8963999999978,
      "v": 100
    },
    {
      "midi": 64,
      "hit": false,
      "t": 132155.07550000076,
      "d": 206.8963999999978,
      "v": 100
    },
    {
      "midi": 67,
      "hit": false,
      "t": 132155.07550000076,
      "d": 206.8963999999978,
      "v": 100
    },
    {
      "midi": 70,
      "hit": false,
      "t": 132413.6960000001,
      "d": 206.8963999999978,
      "v": 100
    },
    {
      "midi": 54,
      "hit": false,
      "t": 132413.69600000064,
      "d": 206.8963999999978,
      "v": 100
    },
    {
      "midi": 60,
      "hit": false,
      "t": 132413.69600000075,
      "d": 206.8963999999978,
      "v": 100
    },
    {
      "midi": 64,
      "hit": false,
      "t": 132413.69600000075,
      "d": 206.8963999999978,
      "v": 100
    },
    {
      "midi": 67,
      "hit": false,
      "t": 132413.69600000075,
      "d": 206.8963999999978,
      "v": 100
    },
    {
      "midi": 70,
      "hit": false,
      "t": 132672.3165000001,
      "d": 413.7927999999956,
      "v": 100
    },
    {
      "midi": 49,
      "hit": false,
      "t": 132672.31650000063,
      "d": 206.8963999999978,
      "v": 100
    },
    {
      "midi": 54,
      "hit": false,
      "t": 132672.31650000063,
      "d": 206.8963999999978,
      "v": 100
    },
    {
      "midi": 53,
      "hit": false,
      "t": 132672.31650000074,
      "d": 206.8963999999978,
      "v": 100
    },
    {
      "midi": 57,
      "hit": false,
      "t": 132672.31650000074,
      "d": 206.8963999999978,
      "v": 100
    },
    {
      "midi": 60,
      "hit": false,
      "t": 132672.31650000074,
      "d": 206.8963999999978,
      "v": 100
    },
    {
      "midi": 54,
      "hit": false,
      "t": 132930.93700000062,
      "d": 206.8963999999978,
      "v": 100
    },
    {
      "midi": 53,
      "hit": false,
      "t": 132930.93700000073,
      "d": 206.8963999999978,
      "v": 100
    },
    {
      "midi": 57,
      "hit": false,
      "t": 132930.93700000073,
      "d": 206.8963999999978,
      "v": 100
    },
    {
      "midi": 60,
      "hit": false,
      "t": 132930.93700000073,
      "d": 206.8963999999978,
      "v": 100
    },
    {
      "midi": 70,
      "hit": false,
      "t": 133189.5575000001,
      "d": 206.8963999999978,
      "v": 100
    },
    {
      "midi": 40,
      "hit": false,
      "t": 133189.5575000006,
      "d": 206.8963999999978,
      "v": 100
    },
    {
      "midi": 53,
      "hit": false,
      "t": 133189.55750000072,
      "d": 206.8963999999978,
      "v": 100
    },
    {
      "midi": 57,
      "hit": false,
      "t": 133189.55750000072,
      "d": 206.8963999999978,
      "v": 100
    },
    {
      "midi": 60,
      "hit": false,
      "t": 133189.55750000072,
      "d": 206.8963999999978,
      "v": 100
    },
    {
      "midi": 72,
      "hit": false,
      "t": 133448.1780000001,
      "d": 103.44820000001346,
      "v": 100
    },
    {
      "midi": 54,
      "hit": false,
      "t": 133448.1780000006,
      "d": 206.8963999999978,
      "v": 100
    },
    {
      "midi": 53,
      "hit": false,
      "t": 133448.1780000007,
      "d": 206.8963999999978,
      "v": 100
    },
    {
      "midi": 57,
      "hit": false,
      "t": 133448.1780000007,
      "d": 206.8963999999978,
      "v": 100
    },
    {
      "midi": 60,
      "hit": false,
      "t": 133448.1780000007,
      "d": 206.8963999999978,
      "v": 100
    },
    {
      "midi": 69,
      "hit": false,
      "t": 133577.4882500001,
      "d": 543.1030500000052,
      "v": 100
    },
    {
      "midi": 54,
      "hit": false,
      "t": 133706.7985000006,
      "d": 206.8963999999978,
      "v": 100
    },
    {
      "midi": 60,
      "hit": false,
      "t": 133706.7985000007,
      "d": 206.8963999999978,
      "v": 100
    },
    {
      "midi": 64,
      "hit": false,
      "t": 133706.7985000007,
      "d": 206.8963999999978,
      "v": 100
    },
    {
      "midi": 67,
      "hit": false,
      "t": 133706.7985000007,
      "d": 206.8963999999978,
      "v": 100
    },
    {
      "midi": 54,
      "hit": false,
      "t": 133965.41900000058,
      "d": 206.8963999999978,
      "v": 100
    },
    {
      "midi": 60,
      "hit": false,
      "t": 133965.4190000007,
      "d": 206.8963999999978,
      "v": 100
    },
    {
      "midi": 64,
      "hit": false,
      "t": 133965.4190000007,
      "d": 206.8963999999978,
      "v": 100
    },
    {
      "midi": 67,
      "hit": false,
      "t": 133965.4190000007,
      "d": 206.8963999999978,
      "v": 100
    },
    {
      "midi": 67,
      "hit": false,
      "t": 134224.03950000013,
      "d": 206.8963999999978,
      "v": 100
    },
    {
      "midi": 40,
      "hit": false,
      "t": 134224.03950000057,
      "d": 206.8963999999978,
      "v": 100
    },
    {
      "midi": 60,
      "hit": false,
      "t": 134224.03950000068,
      "d": 206.8963999999978,
      "v": 100
    },
    {
      "midi": 64,
      "hit": false,
      "t": 134224.03950000068,
      "d": 206.8963999999978,
      "v": 100
    },
    {
      "midi": 67,
      "hit": false,
      "t": 134224.03950000068,
      "d": 206.8963999999978,
      "v": 100
    },
    {
      "midi": 69,
      "hit": false,
      "t": 134482.66000000012,
      "d": 103.44820000001346,
      "v": 100
    },
    {
      "midi": 54,
      "hit": false,
      "t": 134482.66000000056,
      "d": 206.8963999999978,
      "v": 100
    },
    {
      "midi": 60,
      "hit": false,
      "t": 134482.66000000067,
      "d": 206.8963999999978,
      "v": 100
    },
    {
      "midi": 64,
      "hit": false,
      "t": 134482.66000000067,
      "d": 206.8963999999978,
      "v": 100
    },
    {
      "midi": 67,
      "hit": false,
      "t": 134482.66000000067,
      "d": 206.8963999999978,
      "v": 100
    },
    {
      "midi": 65,
      "hit": false,
      "t": 134611.97025000013,
      "d": 749.999450000003,
      "v": 100
    },
    {
      "midi": 49,
      "hit": false,
      "t": 134741.28050000055,
      "d": 206.8963999999978,
      "v": 100
    },
    {
      "midi": 54,
      "hit": false,
      "t": 134741.28050000055,
      "d": 206.8963999999978,
      "v": 100
    },
    {
      "midi": 50,
      "hit": false,
      "t": 134741.28050000066,
      "d": 206.8963999999978,
      "v": 100
    },
    {
      "midi": 53,
      "hit": false,
      "t": 134741.28050000066,
      "d": 206.8963999999978,
      "v": 100
    },
    {
      "midi": 57,
      "hit": false,
      "t": 134741.28050000066,
      "d": 206.8963999999978,
      "v": 100
    },
    {
      "midi": 54,
      "hit": false,
      "t": 134999.90100000054,
      "d": 206.8963999999978,
      "v": 100
    },
    {
      "midi": 50,
      "hit": false,
      "t": 134999.90100000065,
      "d": 206.8963999999978,
      "v": 100
    },
    {
      "midi": 53,
      "hit": false,
      "t": 134999.90100000065,
      "d": 206.8963999999978,
      "v": 100
    },
    {
      "midi": 57,
      "hit": false,
      "t": 134999.90100000065,
      "d": 206.8963999999978,
      "v": 100
    },
    {
      "midi": 40,
      "hit": false,
      "t": 135258.52150000053,
      "d": 206.8963999999978,
      "v": 100
    },
    {
      "midi": 50,
      "hit": false,
      "t": 135258.52150000064,
      "d": 206.8963999999978,
      "v": 100
    },
    {
      "midi": 53,
      "hit": false,
      "t": 135258.52150000064,
      "d": 206.8963999999978,
      "v": 100
    },
    {
      "midi": 57,
      "hit": false,
      "t": 135258.52150000064,
      "d": 206.8963999999978,
      "v": 100
    },
    {
      "midi": 65,
      "hit": false,
      "t": 135517.14200000014,
      "d": 206.8963999999978,
      "v": 100
    },
    {
      "midi": 54,
      "hit": false,
      "t": 135517.14200000052,
      "d": 206.8963999999978,
      "v": 100
    },
    {
      "midi": 50,
      "hit": false,
      "t": 135517.14200000063,
      "d": 206.8963999999978,
      "v": 100
    },
    {
      "midi": 53,
      "hit": false,
      "t": 135517.14200000063,
      "d": 206.8963999999978,
      "v": 100
    },
    {
      "midi": 57,
      "hit": false,
      "t": 135517.14200000063,
      "d": 206.8963999999978,
      "v": 100
    },
    {
      "midi": 67,
      "hit": false,
      "t": 135775.76250000013,
      "d": 310.34460000001127,
      "v": 100
    },
    {
      "midi": 54,
      "hit": false,
      "t": 135775.7625000005,
      "d": 206.8963999999978,
      "v": 100
    },
    {
      "midi": 50,
      "hit": false,
      "t": 135775.76250000062,
      "d": 206.8963999999978,
      "v": 100
    },
    {
      "midi": 53,
      "hit": false,
      "t": 135775.76250000062,
      "d": 206.8963999999978,
      "v": 100
    },
    {
      "midi": 57,
      "hit": false,
      "t": 135775.76250000062,
      "d": 206.8963999999978,
      "v": 100
    },
    {
      "midi": 61,
      "hit": false,
      "t": 135775.76250000062,
      "d": 206.8963999999978,
      "v": 100
    },
    {
      "midi": 54,
      "hit": false,
      "t": 136034.3830000005,
      "d": 206.8963999999978,
      "v": 100
    },
    {
      "midi": 50,
      "hit": false,
      "t": 136034.3830000006,
      "d": 206.8963999999978,
      "v": 100
    },
    {
      "midi": 53,
      "hit": false,
      "t": 136034.3830000006,
      "d": 206.8963999999978,
      "v": 100
    },
    {
      "midi": 57,
      "hit": false,
      "t": 136034.3830000006,
      "d": 206.8963999999978,
      "v": 100
    },
    {
      "midi": 61,
      "hit": false,
      "t": 136034.3830000006,
      "d": 206.8963999999978,
      "v": 100
    },
    {
      "midi": 65,
      "hit": false,
      "t": 136163.69325000013,
      "d": 336.20665000000736,
      "v": 100
    },
    {
      "midi": 40,
      "hit": false,
      "t": 136293.0035000005,
      "d": 206.8963999999978,
      "v": 100
    },
    {
      "midi": 50,
      "hit": false,
      "t": 136293.0035000006,
      "d": 206.8963999999978,
      "v": 100
    },
    {
      "midi": 53,
      "hit": false,
      "t": 136293.0035000006,
      "d": 206.8963999999978,
      "v": 100
    },
    {
      "midi": 57,
      "hit": false,
      "t": 136293.0035000006,
      "d": 206.8963999999978,
      "v": 100
    },
    {
      "midi": 61,
      "hit": false,
      "t": 136293.0035000006,
      "d": 206.8963999999978,
      "v": 100
    },
    {
      "midi": 67,
      "hit": false,
      "t": 136551.62400000013,
      "d": 206.8963999999978,
      "v": 100
    },
    {
      "midi": 54,
      "hit": false,
      "t": 136551.62400000048,
      "d": 206.8963999999978,
      "v": 100
    },
    {
      "midi": 50,
      "hit": false,
      "t": 136551.6240000006,
      "d": 206.8963999999978,
      "v": 100
    },
    {
      "midi": 53,
      "hit": false,
      "t": 136551.6240000006,
      "d": 206.8963999999978,
      "v": 100
    },
    {
      "midi": 57,
      "hit": false,
      "t": 136551.6240000006,
      "d": 206.8963999999978,
      "v": 100
    },
    {
      "midi": 61,
      "hit": false,
      "t": 136551.6240000006,
      "d": 206.8963999999978,
      "v": 100
    },
    {
      "midi": 69,
      "hit": false,
      "t": 136810.24450000012,
      "d": 310.34460000001127,
      "v": 100
    },
    {
      "midi": 49,
      "hit": false,
      "t": 136810.24450000047,
      "d": 206.8963999999978,
      "v": 100
    },
    {
      "midi": 54,
      "hit": false,
      "t": 136810.24450000047,
      "d": 206.8963999999978,
      "v": 100
    },
    {
      "midi": 50,
      "hit": false,
      "t": 136810.24450000058,
      "d": 206.8963999999978,
      "v": 100
    },
    {
      "midi": 53,
      "hit": false,
      "t": 136810.24450000058,
      "d": 206.8963999999978,
      "v": 100
    },
    {
      "midi": 57,
      "hit": false,
      "t": 136810.24450000058,
      "d": 206.8963999999978,
      "v": 100
    },
    {
      "midi": 60,
      "hit": false,
      "t": 136810.24450000058,
      "d": 206.8963999999978,
      "v": 100
    },
    {
      "midi": 54,
      "hit": false,
      "t": 137068.86500000046,
      "d": 206.8963999999978,
      "v": 100
    },
    {
      "midi": 50,
      "hit": false,
      "t": 137068.86500000057,
      "d": 206.8963999999978,
      "v": 100
    },
    {
      "midi": 53,
      "hit": false,
      "t": 137068.86500000057,
      "d": 206.8963999999978,
      "v": 100
    },
    {
      "midi": 57,
      "hit": false,
      "t": 137068.86500000057,
      "d": 206.8963999999978,
      "v": 100
    },
    {
      "midi": 60,
      "hit": false,
      "t": 137068.86500000057,
      "d": 206.8963999999978,
      "v": 100
    },
    {
      "midi": 70,
      "hit": false,
      "t": 137198.17525000012,
      "d": 336.20665000000736,
      "v": 100
    },
    {
      "midi": 40,
      "hit": false,
      "t": 137327.48550000045,
      "d": 206.8963999999978,
      "v": 100
    },
    {
      "midi": 50,
      "hit": false,
      "t": 137327.48550000056,
      "d": 206.8963999999978,
      "v": 100
    },
    {
      "midi": 53,
      "hit": false,
      "t": 137327.48550000056,
      "d": 206.8963999999978,
      "v": 100
    },
    {
      "midi": 57,
      "hit": false,
      "t": 137327.48550000056,
      "d": 206.8963999999978,
      "v": 100
    },
    {
      "midi": 60,
      "hit": false,
      "t": 137327.48550000056,
      "d": 206.8963999999978,
      "v": 100
    },
    {
      "midi": 72,
      "hit": false,
      "t": 137586.10600000012,
      "d": 103.44820000001346,
      "v": 100
    },
    {
      "midi": 54,
      "hit": false,
      "t": 137586.10600000044,
      "d": 206.8963999999978,
      "v": 100
    },
    {
      "midi": 50,
      "hit": false,
      "t": 137586.10600000055,
      "d": 206.8963999999978,
      "v": 100
    },
    {
      "midi": 53,
      "hit": false,
      "t": 137586.10600000055,
      "d": 206.8963999999978,
      "v": 100
    },
    {
      "midi": 57,
      "hit": false,
      "t": 137586.10600000055,
      "d": 206.8963999999978,
      "v": 100
    },
    {
      "midi": 60,
      "hit": false,
      "t": 137586.10600000055,
      "d": 206.8963999999978,
      "v": 100
    },
    {
      "midi": 74,
      "hit": false,
      "t": 137715.41625000013,
      "d": 336.20665000000736,
      "v": 100
    },
    {
      "midi": 54,
      "hit": false,
      "t": 137844.72650000043,
      "d": 206.8963999999978,
      "v": 100
    },
    {
      "midi": 50,
      "hit": false,
      "t": 137844.72650000054,
      "d": 206.8963999999978,
      "v": 100
    },
    {
      "midi": 53,
      "hit": false,
      "t": 137844.72650000054,
      "d": 206.8963999999978,
      "v": 100
    },
    {
      "midi": 57,
      "hit": false,
      "t": 137844.72650000054,
      "d": 206.8963999999978,
      "v": 100
    },
    {
      "midi": 59,
      "hit": false,
      "t": 137844.72650000054,
      "d": 206.8963999999978,
      "v": 100
    },
    {
      "midi": 69,
      "hit": false,
      "t": 138103.34700000013,
      "d": 206.8963999999978,
      "v": 100
    },
    {
      "midi": 54,
      "hit": false,
      "t": 138103.34700000042,
      "d": 206.8963999999978,
      "v": 100
    },
    {
      "midi": 50,
      "hit": false,
      "t": 138103.34700000053,
      "d": 206.8963999999978,
      "v": 100
    },
    {
      "midi": 53,
      "hit": false,
      "t": 138103.34700000053,
      "d": 206.8963999999978,
      "v": 100
    },
    {
      "midi": 57,
      "hit": false,
      "t": 138103.34700000053,
      "d": 206.8963999999978,
      "v": 100
    },
    {
      "midi": 59,
      "hit": false,
      "t": 138103.34700000053,
      "d": 206.8963999999978,
      "v": 100
    },
    {
      "midi": 67,
      "hit": false,
      "t": 138361.96750000012,
      "d": 206.8963999999978,
      "v": 100
    },
    {
      "midi": 40,
      "hit": false,
      "t": 138361.9675000004,
      "d": 206.8963999999978,
      "v": 100
    },
    {
      "midi": 50,
      "hit": false,
      "t": 138361.96750000052,
      "d": 206.8963999999978,
      "v": 100
    },
    {
      "midi": 53,
      "hit": false,
      "t": 138361.96750000052,
      "d": 206.8963999999978,
      "v": 100
    },
    {
      "midi": 57,
      "hit": false,
      "t": 138361.96750000052,
      "d": 206.8963999999978,
      "v": 100
    },
    {
      "midi": 59,
      "hit": false,
      "t": 138361.96750000052,
      "d": 206.8963999999978,
      "v": 100
    },
    {
      "midi": 65,
      "hit": false,
      "t": 138620.5880000001,
      "d": 103.44820000001346,
      "v": 100
    },
    {
      "midi": 54,
      "hit": false,
      "t": 138620.5880000004,
      "d": 206.8963999999978,
      "v": 100
    },
    {
      "midi": 50,
      "hit": false,
      "t": 138620.5880000005,
      "d": 206.8963999999978,
      "v": 100
    },
    {
      "midi": 53,
      "hit": false,
      "t": 138620.5880000005,
      "d": 206.8963999999978,
      "v": 100
    },
    {
      "midi": 57,
      "hit": false,
      "t": 138620.5880000005,
      "d": 206.8963999999978,
      "v": 100
    },
    {
      "midi": 59,
      "hit": false,
      "t": 138620.5880000005,
      "d": 206.8963999999978,
      "v": 100
    },
    {
      "midi": 67,
      "hit": false,
      "t": 138749.89825000011,
      "d": 1784.481449999992,
      "v": 100
    },
    {
      "midi": 49,
      "hit": false,
      "t": 138879.2085000004,
      "d": 206.8963999999978,
      "v": 100
    },
    {
      "midi": 54,
      "hit": false,
      "t": 138879.2085000004,
      "d": 206.8963999999978,
      "v": 100
    },
    {
      "midi": 60,
      "hit": false,
      "t": 138879.2085000005,
      "d": 206.8963999999978,
      "v": 100
    },
    {
      "midi": 65,
      "hit": false,
      "t": 138879.2085000005,
      "d": 206.8963999999978,
      "v": 100
    },
    {
      "midi": 67,
      "hit": false,
      "t": 138879.2085000005,
      "d": 206.8963999999978,
      "v": 100
    },
    {
      "midi": 54,
      "hit": false,
      "t": 139137.82900000038,
      "d": 206.8963999999978,
      "v": 100
    },
    {
      "midi": 60,
      "hit": false,
      "t": 139137.8290000005,
      "d": 206.8963999999978,
      "v": 100
    },
    {
      "midi": 65,
      "hit": false,
      "t": 139137.8290000005,
      "d": 206.8963999999978,
      "v": 100
    },
    {
      "midi": 67,
      "hit": false,
      "t": 139137.8290000005,
      "d": 206.8963999999978,
      "v": 100
    },
    {
      "midi": 40,
      "hit": false,
      "t": 139396.44950000037,
      "d": 206.8963999999978,
      "v": 100
    },
    {
      "midi": 60,
      "hit": false,
      "t": 139396.44950000048,
      "d": 206.8963999999978,
      "v": 100
    },
    {
      "midi": 65,
      "hit": false,
      "t": 139396.44950000048,
      "d": 206.8963999999978,
      "v": 100
    },
    {
      "midi": 67,
      "hit": false,
      "t": 139396.44950000048,
      "d": 206.8963999999978,
      "v": 100
    },
    {
      "midi": 54,
      "hit": false,
      "t": 139655.07000000036,
      "d": 206.8963999999978,
      "v": 100
    },
    {
      "midi": 60,
      "hit": false,
      "t": 139655.07000000047,
      "d": 206.8963999999978,
      "v": 100
    },
    {
      "midi": 65,
      "hit": false,
      "t": 139655.07000000047,
      "d": 206.8963999999978,
      "v": 100
    },
    {
      "midi": 67,
      "hit": false,
      "t": 139655.07000000047,
      "d": 206.8963999999978,
      "v": 100
    },
    {
      "midi": 54,
      "hit": false,
      "t": 139913.69050000035,
      "d": 206.8963999999978,
      "v": 100
    },
    {
      "midi": 60,
      "hit": false,
      "t": 139913.69050000046,
      "d": 206.8963999999978,
      "v": 100
    },
    {
      "midi": 65,
      "hit": false,
      "t": 139913.69050000046,
      "d": 206.8963999999978,
      "v": 100
    },
    {
      "midi": 67,
      "hit": false,
      "t": 139913.69050000046,
      "d": 206.8963999999978,
      "v": 100
    },
    {
      "midi": 54,
      "hit": false,
      "t": 140172.31100000034,
      "d": 206.8963999999978,
      "v": 100
    },
    {
      "midi": 60,
      "hit": false,
      "t": 140172.31100000045,
      "d": 206.8963999999978,
      "v": 100
    },
    {
      "midi": 65,
      "hit": false,
      "t": 140172.31100000045,
      "d": 206.8963999999978,
      "v": 100
    },
    {
      "midi": 67,
      "hit": false,
      "t": 140172.31100000045,
      "d": 206.8963999999978,
      "v": 100
    },
    {
      "midi": 40,
      "hit": false,
      "t": 140430.93150000033,
      "d": 206.8963999999978,
      "v": 100
    },
    {
      "midi": 60,
      "hit": false,
      "t": 140430.93150000044,
      "d": 206.8963999999978,
      "v": 100
    },
    {
      "midi": 65,
      "hit": false,
      "t": 140430.93150000044,
      "d": 206.8963999999978,
      "v": 100
    },
    {
      "midi": 67,
      "hit": false,
      "t": 140430.93150000044,
      "d": 206.8963999999978,
      "v": 100
    },
    {
      "midi": 54,
      "hit": false,
      "t": 140689.55200000032,
      "d": 206.8963999999978,
      "v": 100
    },
    {
      "midi": 60,
      "hit": false,
      "t": 140689.55200000043,
      "d": 206.8963999999978,
      "v": 100
    },
    {
      "midi": 65,
      "hit": false,
      "t": 140689.55200000043,
      "d": 206.8963999999978,
      "v": 100
    },
    {
      "midi": 67,
      "hit": false,
      "t": 140689.55200000043,
      "d": 206.8963999999978,
      "v": 100
    },
    {
      "midi": 49,
      "hit": false,
      "t": 140948.1725000003,
      "d": 206.8963999999978,
      "v": 100
    },
    {
      "midi": 54,
      "hit": false,
      "t": 140948.1725000003,
      "d": 206.8963999999978,
      "v": 100
    },
    {
      "midi": 60,
      "hit": false,
      "t": 140948.17250000042,
      "d": 206.8963999999978,
      "v": 100
    },
    {
      "midi": 64,
      "hit": false,
      "t": 140948.17250000042,
      "d": 206.8963999999978,
      "v": 100
    },
    {
      "midi": 67,
      "hit": false,
      "t": 140948.17250000042,
      "d": 206.8963999999978,
      "v": 100
    },
    {
      "midi": 54,
      "hit": false,
      "t": 141206.7930000003,
      "d": 206.8963999999978,
      "v": 100
    },
    {
      "midi": 60,
      "hit": false,
      "t": 141206.7930000004,
      "d": 206.8963999999978,
      "v": 100
    },
    {
      "midi": 64,
      "hit": false,
      "t": 141206.7930000004,
      "d": 206.8963999999978,
      "v": 100
    },
    {
      "midi": 67,
      "hit": false,
      "t": 141206.7930000004,
      "d": 206.8963999999978,
      "v": 100
    },
    {
      "midi": 40,
      "hit": false,
      "t": 141465.4135000003,
      "d": 206.8963999999978,
      "v": 100
    },
    {
      "midi": 60,
      "hit": false,
      "t": 141465.4135000004,
      "d": 206.8963999999978,
      "v": 100
    },
    {
      "midi": 64,
      "hit": false,
      "t": 141465.4135000004,
      "d": 206.8963999999978,
      "v": 100
    },
    {
      "midi": 67,
      "hit": false,
      "t": 141465.4135000004,
      "d": 206.8963999999978,
      "v": 100
    },
    {
      "midi": 54,
      "hit": false,
      "t": 141724.03400000028,
      "d": 206.8963999999978,
      "v": 100
    },
    {
      "midi": 60,
      "hit": false,
      "t": 141724.0340000004,
      "d": 206.8963999999978,
      "v": 100
    },
    {
      "midi": 64,
      "hit": false,
      "t": 141724.0340000004,
      "d": 206.8963999999978,
      "v": 100
    },
    {
      "midi": 67,
      "hit": false,
      "t": 141724.0340000004,
      "d": 206.8963999999978,
      "v": 100
    },
    {
      "midi": 54,
      "hit": false,
      "t": 141982.65450000027,
      "d": 206.8963999999978,
      "v": 100
    },
    {
      "midi": 60,
      "hit": false,
      "t": 141982.65450000038,
      "d": 206.8963999999978,
      "v": 100
    },
    {
      "midi": 64,
      "hit": false,
      "t": 141982.65450000038,
      "d": 206.8963999999978,
      "v": 100
    },
    {
      "midi": 67,
      "hit": false,
      "t": 141982.65450000038,
      "d": 206.8963999999978,
      "v": 100
    },
    {
      "midi": 72,
      "hit": false,
      "t": 142241.2750000001,
      "d": 206.8963999999978,
      "v": 100
    },
    {
      "midi": 54,
      "hit": false,
      "t": 142241.27500000026,
      "d": 206.8963999999978,
      "v": 100
    },
    {
      "midi": 60,
      "hit": false,
      "t": 142241.27500000037,
      "d": 206.8963999999978,
      "v": 100
    },
    {
      "midi": 64,
      "hit": false,
      "t": 142241.27500000037,
      "d": 206.8963999999978,
      "v": 100
    },
    {
      "midi": 67,
      "hit": false,
      "t": 142241.27500000037,
      "d": 206.8963999999978,
      "v": 100
    },
    {
      "midi": 77,
      "hit": false,
      "t": 142499.8955000001,
      "d": 206.8963999999978,
      "v": 100
    },
    {
      "midi": 40,
      "hit": false,
      "t": 142499.89550000025,
      "d": 206.8963999999978,
      "v": 100
    },
    {
      "midi": 60,
      "hit": false,
      "t": 142499.89550000036,
      "d": 206.8963999999978,
      "v": 100
    },
    {
      "midi": 64,
      "hit": false,
      "t": 142499.89550000036,
      "d": 206.8963999999978,
      "v": 100
    },
    {
      "midi": 67,
      "hit": false,
      "t": 142499.89550000036,
      "d": 206.8963999999978,
      "v": 100
    },
    {
      "midi": 76,
      "hit": false,
      "t": 142758.5160000001,
      "d": 103.44820000001346,
      "v": 100
    },
    {
      "midi": 54,
      "hit": false,
      "t": 142758.51600000024,
      "d": 206.8963999999978,
      "v": 100
    },
    {
      "midi": 60,
      "hit": false,
      "t": 142758.51600000035,
      "d": 206.8963999999978,
      "v": 100
    },
    {
      "midi": 64,
      "hit": false,
      "t": 142758.51600000035,
      "d": 206.8963999999978,
      "v": 100
    },
    {
      "midi": 67,
      "hit": false,
      "t": 142758.51600000035,
      "d": 206.8963999999978,
      "v": 100
    },
    {
      "midi": 77,
      "hit": false,
      "t": 142887.8262500001,
      "d": 956.8958500000008,
      "v": 100
    },
    {
      "midi": 49,
      "hit": false,
      "t": 143017.13650000023,
      "d": 206.8963999999978,
      "v": 100
    },
    {
      "midi": 54,
      "hit": false,
      "t": 143017.13650000023,
      "d": 206.8963999999978,
      "v": 100
    },
    {
      "midi": 53,
      "hit": false,
      "t": 143017.13650000034,
      "d": 206.8963999999978,
      "v": 100
    },
    {
      "midi": 57,
      "hit": false,
      "t": 143017.13650000034,
      "d": 206.8963999999978,
      "v": 100
    },
    {
      "midi": 60,
      "hit": false,
      "t": 143017.13650000034,
      "d": 206.8963999999978,
      "v": 100
    },
    {
      "midi": 54,
      "hit": false,
      "t": 143275.75700000022,
      "d": 206.8963999999978,
      "v": 100
    },
    {
      "midi": 53,
      "hit": false,
      "t": 143275.75700000033,
      "d": 206.8963999999978,
      "v": 100
    },
    {
      "midi": 57,
      "hit": false,
      "t": 143275.75700000033,
      "d": 206.8963999999978,
      "v": 100
    },
    {
      "midi": 60,
      "hit": false,
      "t": 143275.75700000033,
      "d": 206.8963999999978,
      "v": 100
    },
    {
      "midi": 40,
      "hit": false,
      "t": 143534.3775000002,
      "d": 206.8963999999978,
      "v": 100
    },
    {
      "midi": 53,
      "hit": false,
      "t": 143534.37750000032,
      "d": 206.8963999999978,
      "v": 100
    },
    {
      "midi": 57,
      "hit": false,
      "t": 143534.37750000032,
      "d": 206.8963999999978,
      "v": 100
    },
    {
      "midi": 60,
      "hit": false,
      "t": 143534.37750000032,
      "d": 206.8963999999978,
      "v": 100
    },
    {
      "midi": 54,
      "hit": false,
      "t": 143792.9980000002,
      "d": 206.8963999999978,
      "v": 100
    },
    {
      "midi": 53,
      "hit": false,
      "t": 143792.9980000003,
      "d": 206.8963999999978,
      "v": 100
    },
    {
      "midi": 57,
      "hit": false,
      "t": 143792.9980000003,
      "d": 206.8963999999978,
      "v": 100
    },
    {
      "midi": 60,
      "hit": false,
      "t": 143792.9980000003,
      "d": 206.8963999999978,
      "v": 100
    },
    {
      "midi": 54,
      "hit": false,
      "t": 144051.6185000002,
      "d": 206.8963999999978,
      "v": 100
    },
    {
      "midi": 60,
      "hit": false,
      "t": 144051.6185000003,
      "d": 206.8963999999978,
      "v": 100
    },
    {
      "midi": 64,
      "hit": false,
      "t": 144051.6185000003,
      "d": 206.8963999999978,
      "v": 100
    },
    {
      "midi": 67,
      "hit": false,
      "t": 144051.6185000003,
      "d": 206.8963999999978,
      "v": 100
    },
    {
      "midi": 72,
      "hit": false,
      "t": 144310.2390000001,
      "d": 206.8963999999978,
      "v": 100
    },
    {
      "midi": 54,
      "hit": false,
      "t": 144310.23900000018,
      "d": 206.8963999999978,
      "v": 100
    },
    {
      "midi": 60,
      "hit": false,
      "t": 144310.2390000003,
      "d": 206.8963999999978,
      "v": 100
    },
    {
      "midi": 64,
      "hit": false,
      "t": 144310.2390000003,
      "d": 206.8963999999978,
      "v": 100
    },
    {
      "midi": 67,
      "hit": false,
      "t": 144310.2390000003,
      "d": 206.8963999999978,
      "v": 100
    },
    {
      "midi": 79,
      "hit": false,
      "t": 144568.85950000008,
      "d": 206.8963999999978,
      "v": 100
    },
    {
      "midi": 40,
      "hit": false,
      "t": 144568.85950000017,
      "d": 206.8963999999978,
      "v": 100
    },
    {
      "midi": 60,
      "hit": false,
      "t": 144568.85950000028,
      "d": 206.8963999999978,
      "v": 100
    },
    {
      "midi": 64,
      "hit": false,
      "t": 144568.85950000028,
      "d": 206.8963999999978,
      "v": 100
    },
    {
      "midi": 67,
      "hit": false,
      "t": 144568.85950000028,
      "d": 206.8963999999978,
      "v": 100
    },
    {
      "midi": 76,
      "hit": false,
      "t": 144827.48000000007,
      "d": 103.44820000001346,
      "v": 100
    },
    {
      "midi": 54,
      "hit": false,
      "t": 144827.48000000016,
      "d": 206.8963999999978,
      "v": 100
    },
    {
      "midi": 60,
      "hit": false,
      "t": 144827.48000000027,
      "d": 206.8963999999978,
      "v": 100
    },
    {
      "midi": 64,
      "hit": false,
      "t": 144827.48000000027,
      "d": 206.8963999999978,
      "v": 100
    },
    {
      "midi": 67,
      "hit": false,
      "t": 144827.48000000027,
      "d": 206.8963999999978,
      "v": 100
    },
    {
      "midi": 77,
      "hit": false,
      "t": 144956.79025000008,
      "d": 956.8958500000008,
      "v": 100
    },
    {
      "midi": 49,
      "hit": false,
      "t": 145086.10050000015,
      "d": 206.8963999999978,
      "v": 100
    },
    {
      "midi": 54,
      "hit": false,
      "t": 145086.10050000015,
      "d": 206.8963999999978,
      "v": 100
    },
    {
      "midi": 50,
      "hit": false,
      "t": 145086.10050000026,
      "d": 206.8963999999978,
      "v": 100
    },
    {
      "midi": 53,
      "hit": false,
      "t": 145086.10050000026,
      "d": 206.8963999999978,
      "v": 100
    },
    {
      "midi": 57,
      "hit": false,
      "t": 145086.10050000026,
      "d": 206.8963999999978,
      "v": 100
    },
    {
      "midi": 54,
      "hit": false,
      "t": 145344.72100000014,
      "d": 206.8963999999978,
      "v": 100
    },
    {
      "midi": 50,
      "hit": false,
      "t": 145344.72100000025,
      "d": 206.8963999999978,
      "v": 100
    },
    {
      "midi": 53,
      "hit": false,
      "t": 145344.72100000025,
      "d": 206.8963999999978,
      "v": 100
    },
    {
      "midi": 57,
      "hit": false,
      "t": 145344.72100000025,
      "d": 206.8963999999978,
      "v": 100
    },
    {
      "midi": 40,
      "hit": false,
      "t": 145603.34150000013,
      "d": 206.8963999999978,
      "v": 100
    },
    {
      "midi": 50,
      "hit": false,
      "t": 145603.34150000024,
      "d": 206.8963999999978,
      "v": 100
    },
    {
      "midi": 53,
      "hit": false,
      "t": 145603.34150000024,
      "d": 206.8963999999978,
      "v": 100
    },
    {
      "midi": 57,
      "hit": false,
      "t": 145603.34150000024,
      "d": 206.8963999999978,
      "v": 100
    },
    {
      "midi": 54,
      "hit": false,
      "t": 145861.96200000012,
      "d": 206.8963999999978,
      "v": 100
    },
    {
      "midi": 50,
      "hit": false,
      "t": 145861.96200000023,
      "d": 206.8963999999978,
      "v": 100
    },
    {
      "midi": 53,
      "hit": false,
      "t": 145861.96200000023,
      "d": 206.8963999999978,
      "v": 100
    },
    {
      "midi": 57,
      "hit": false,
      "t": 145861.96200000023,
      "d": 206.8963999999978,
      "v": 100
    },
    {
      "midi": 54,
      "hit": false,
      "t": 146120.5825000001,
      "d": 206.8963999999978,
      "v": 100
    },
    {
      "midi": 60,
      "hit": false,
      "t": 146120.58250000022,
      "d": 206.8963999999978,
      "v": 100
    },
    {
      "midi": 64,
      "hit": false,
      "t": 146120.58250000022,
      "d": 206.8963999999978,
      "v": 100
    },
    {
      "midi": 67,
      "hit": false,
      "t": 146120.58250000022,
      "d": 206.8963999999978,
      "v": 100
    },
    {
      "midi": 77,
      "hit": false,
      "t": 146379.20300000007,
      "d": 206.8963999999978,
      "v": 100
    },
    {
      "midi": 54,
      "hit": false,
      "t": 146379.2030000001,
      "d": 206.8963999999978,
      "v": 100
    },
    {
      "midi": 60,
      "hit": false,
      "t": 146379.2030000002,
      "d": 206.8963999999978,
      "v": 100
    },
    {
      "midi": 64,
      "hit": false,
      "t": 146379.2030000002,
      "d": 206.8963999999978,
      "v": 100
    },
    {
      "midi": 67,
      "hit": false,
      "t": 146379.2030000002,
      "d": 206.8963999999978,
      "v": 100
    },
    {
      "midi": 76,
      "hit": false,
      "t": 146637.82350000006,
      "d": 206.8963999999978,
      "v": 100
    },
    {
      "midi": 40,
      "hit": false,
      "t": 146637.8235000001,
      "d": 206.8963999999978,
      "v": 100
    },
    {
      "midi": 60,
      "hit": false,
      "t": 146637.8235000002,
      "d": 206.8963999999978,
      "v": 100
    },
    {
      "midi": 64,
      "hit": false,
      "t": 146637.8235000002,
      "d": 206.8963999999978,
      "v": 100
    },
    {
      "midi": 67,
      "hit": false,
      "t": 146637.8235000002,
      "d": 206.8963999999978,
      "v": 100
    },
    {
      "midi": 72,
      "hit": false,
      "t": 146896.44400000005,
      "d": 103.44820000001346,
      "v": 100
    },
    {
      "midi": 54,
      "hit": false,
      "t": 146896.44400000008,
      "d": 206.8963999999978,
      "v": 100
    },
    {
      "midi": 60,
      "hit": false,
      "t": 146896.4440000002,
      "d": 206.8963999999978,
      "v": 100
    },
    {
      "midi": 64,
      "hit": false,
      "t": 146896.4440000002,
      "d": 206.8963999999978,
      "v": 100
    },
    {
      "midi": 67,
      "hit": false,
      "t": 146896.4440000002,
      "d": 206.8963999999978,
      "v": 100
    },
    {
      "midi": 74,
      "hit": false,
      "t": 147025.75425000006,
      "d": 749.999450000003,
      "v": 100
    },
    {
      "midi": 49,
      "hit": false,
      "t": 147155.06450000007,
      "d": 206.8963999999978,
      "v": 100
    },
    {
      "midi": 54,
      "hit": false,
      "t": 147155.06450000007,
      "d": 206.8963999999978,
      "v": 100
    },
    {
      "midi": 58,
      "hit": false,
      "t": 147155.06450000018,
      "d": 206.8963999999978,
      "v": 100
    },
    {
      "midi": 62,
      "hit": false,
      "t": 147155.06450000018,
      "d": 206.8963999999978,
      "v": 100
    },
    {
      "midi": 65,
      "hit": false,
      "t": 147155.06450000018,
      "d": 206.8963999999978,
      "v": 100
    },
    {
      "midi": 54,
      "hit": false,
      "t": 147413.68500000006,
      "d": 206.8963999999978,
      "v": 100
    },
    {
      "midi": 58,
      "hit": false,
      "t": 147413.68500000017,
      "d": 206.8963999999978,
      "v": 100
    },
    {
      "midi": 62,
      "hit": false,
      "t": 147413.68500000017,
      "d": 206.8963999999978,
      "v": 100
    },
    {
      "midi": 65,
      "hit": false,
      "t": 147413.68500000017,
      "d": 206.8963999999978,
      "v": 100
    },
    {
      "midi": 40,
      "hit": false,
      "t": 147672.30550000005,
      "d": 206.8963999999978,
      "v": 100
    },
    {
      "midi": 58,
      "hit": false,
      "t": 147672.30550000016,
      "d": 206.8963999999978,
      "v": 100
    },
    {
      "midi": 62,
      "hit": false,
      "t": 147672.30550000016,
      "d": 206.8963999999978,
      "v": 100
    },
    {
      "midi": 65,
      "hit": false,
      "t": 147672.30550000016,
      "d": 206.8963999999978,
      "v": 100
    },
    {
      "midi": 54,
      "hit": false,
      "t": 147930.92600000004,
      "d": 206.8963999999978,
      "v": 100
    },
    {
      "midi": 74,
      "hit": false,
      "t": 147930.92600000006,
      "d": 206.8963999999978,
      "v": 100
    },
    {
      "midi": 58,
      "hit": false,
      "t": 147930.92600000015,
      "d": 206.8963999999978,
      "v": 100
    },
    {
      "midi": 62,
      "hit": false,
      "t": 147930.92600000015,
      "d": 206.8963999999978,
      "v": 100
    },
    {
      "midi": 65,
      "hit": false,
      "t": 147930.92600000015,
      "d": 206.8963999999978,
      "v": 100
    },
    {
      "midi": 54,
      "hit": false,
      "t": 148189.54650000003,
      "d": 206.8963999999978,
      "v": 100
    },
    {
      "midi": 76,
      "hit": false,
      "t": 148189.54650000005,
      "d": 310.34460000001127,
      "v": 100
    },
    {
      "midi": 57,
      "hit": false,
      "t": 148189.54650000014,
      "d": 206.8963999999978,
      "v": 100
    },
    {
      "midi": 61,
      "hit": false,
      "t": 148189.54650000014,
      "d": 206.8963999999978,
      "v": 100
    },
    {
      "midi": 64,
      "hit": false,
      "t": 148189.54650000014,
      "d": 206.8963999999978,
      "v": 100
    },
    {
      "midi": 54,
      "hit": false,
      "t": 148448.16700000002,
      "d": 206.8963999999978,
      "v": 100
    },
    {
      "midi": 57,
      "hit": false,
      "t": 148448.16700000013,
      "d": 206.8963999999978,
      "v": 100
    },
    {
      "midi": 61,
      "hit": false,
      "t": 148448.16700000013,
      "d": 206.8963999999978,
      "v": 100
    },
    {
      "midi": 64,
      "hit": false,
      "t": 148448.16700000013,
      "d": 206.8963999999978,
      "v": 100
    },
    {
      "midi": 69,
      "hit": false,
      "t": 148577.47725000005,
      "d": 336.20665000000736,
      "v": 100
    },
    {
      "midi": 40,
      "hit": false,
      "t": 148706.7875,
      "d": 206.8963999999978,
      "v": 100
    },
    {
      "midi": 57,
      "hit": false,
      "t": 148706.78750000012,
      "d": 206.8963999999978,
      "v": 100
    },
    {
      "midi": 61,
      "hit": false,
      "t": 148706.78750000012,
      "d": 206.8963999999978,
      "v": 100
    },
    {
      "midi": 64,
      "hit": false,
      "t": 148706.78750000012,
      "d": 206.8963999999978,
      "v": 100
    },
    {
      "midi": 54,
      "hit": false,
      "t": 148965.408,
      "d": 206.8963999999978,
      "v": 100
    },
    {
      "midi": 79,
      "hit": false,
      "t": 148965.40800000005,
      "d": 206.8963999999978,
      "v": 100
    },
    {
      "midi": 57,
      "hit": false,
      "t": 148965.4080000001,
      "d": 206.8963999999978,
      "v": 100
    },
    {
      "midi": 61,
      "hit": false,
      "t": 148965.4080000001,
      "d": 206.8963999999978,
      "v": 100
    },
    {
      "midi": 64,
      "hit": false,
      "t": 148965.4080000001,
      "d": 206.8963999999978,
      "v": 100
    },
    {
      "midi": 49,
      "hit": false,
      "t": 149224.0285,
      "d": 206.8963999999978,
      "v": 100
    },
    {
      "midi": 54,
      "hit": false,
      "t": 149224.0285,
      "d": 206.8963999999978,
      "v": 100
    },
    {
      "midi": 79,
      "hit": false,
      "t": 149224.02850000004,
      "d": 413.7927999999956,
      "v": 100
    },
    {
      "midi": 50,
      "hit": false,
      "t": 149224.0285000001,
      "d": 206.8963999999978,
      "v": 100
    },
    {
      "midi": 53,
      "hit": false,
      "t": 149224.0285000001,
      "d": 206.8963999999978,
      "v": 100
    },
    {
      "midi": 57,
      "hit": false,
      "t": 149224.0285000001,
      "d": 206.8963999999978,
      "v": 100
    },
    {
      "midi": 54,
      "hit": false,
      "t": 149482.64899999998,
      "d": 206.8963999999978,
      "v": 100
    },
    {
      "midi": 50,
      "hit": false,
      "t": 149482.6490000001,
      "d": 206.8963999999978,
      "v": 100
    },
    {
      "midi": 53,
      "hit": false,
      "t": 149482.6490000001,
      "d": 206.8963999999978,
      "v": 100
    },
    {
      "midi": 57,
      "hit": false,
      "t": 149482.6490000001,
      "d": 206.8963999999978,
      "v": 100
    },
    {
      "midi": 40,
      "hit": false,
      "t": 149741.26949999997,
      "d": 206.8963999999978,
      "v": 100
    },
    {
      "midi": 79,
      "hit": false,
      "t": 149741.26950000005,
      "d": 206.8963999999978,
      "v": 100
    },
    {
      "midi": 50,
      "hit": false,
      "t": 149741.26950000008,
      "d": 206.8963999999978,
      "v": 100
    },
    {
      "midi": 53,
      "hit": false,
      "t": 149741.26950000008,
      "d": 206.8963999999978,
      "v": 100
    },
    {
      "midi": 57,
      "hit": false,
      "t": 149741.26950000008,
      "d": 206.8963999999978,
      "v": 100
    },
    {
      "midi": 54,
      "hit": false,
      "t": 149999.88999999996,
      "d": 206.8963999999978,
      "v": 100
    },
    {
      "midi": 81,
      "hit": false,
      "t": 149999.89000000004,
      "d": 103.44820000001346,
      "v": 100
    },
    {
      "midi": 50,
      "hit": false,
      "t": 149999.89000000007,
      "d": 206.8963999999978,
      "v": 100
    },
    {
      "midi": 53,
      "hit": false,
      "t": 149999.89000000007,
      "d": 206.8963999999978,
      "v": 100
    },
    {
      "midi": 57,
      "hit": false,
      "t": 149999.89000000007,
      "d": 206.8963999999978,
      "v": 100
    },
    {
      "midi": 77,
      "hit": false,
      "t": 150129.20025000005,
      "d": 543.1030500000052,
      "v": 100
    },
    {
      "midi": 54,
      "hit": false,
      "t": 150258.51049999995,
      "d": 206.8963999999978,
      "v": 100
    },
    {
      "midi": 60,
      "hit": false,
      "t": 150258.51050000006,
      "d": 206.8963999999978,
      "v": 100
    },
    {
      "midi": 64,
      "hit": false,
      "t": 150258.51050000006,
      "d": 206.8963999999978,
      "v": 100
    },
    {
      "midi": 67,
      "hit": false,
      "t": 150258.51050000006,
      "d": 206.8963999999978,
      "v": 100
    },
    {
      "midi": 54,
      "hit": false,
      "t": 150517.13099999994,
      "d": 206.8963999999978,
      "v": 100
    },
    {
      "midi": 60,
      "hit": false,
      "t": 150517.13100000005,
      "d": 206.8963999999978,
      "v": 100
    },
    {
      "midi": 64,
      "hit": false,
      "t": 150517.13100000005,
      "d": 206.8963999999978,
      "v": 100
    },
    {
      "midi": 67,
      "hit": false,
      "t": 150517.13100000005,
      "d": 206.8963999999978,
      "v": 100
    },
    {
      "midi": 40,
      "hit": false,
      "t": 150775.75149999993,
      "d": 206.8963999999978,
      "v": 100
    },
    {
      "midi": 60,
      "hit": false,
      "t": 150775.75150000004,
      "d": 206.8963999999978,
      "v": 100
    },
    {
      "midi": 64,
      "hit": false,
      "t": 150775.75150000004,
      "d": 206.8963999999978,
      "v": 100
    },
    {
      "midi": 67,
      "hit": false,
      "t": 150775.75150000004,
      "d": 206.8963999999978,
      "v": 100
    },
    {
      "midi": 74,
      "hit": false,
      "t": 150775.75150000007,
      "d": 206.8963999999978,
      "v": 100
    },
    {
      "midi": 54,
      "hit": false,
      "t": 151034.37199999992,
      "d": 206.8963999999978,
      "v": 100
    },
    {
      "midi": 60,
      "hit": false,
      "t": 151034.37200000003,
      "d": 206.8963999999978,
      "v": 100
    },
    {
      "midi": 64,
      "hit": false,
      "t": 151034.37200000003,
      "d": 206.8963999999978,
      "v": 100
    },
    {
      "midi": 67,
      "hit": false,
      "t": 151034.37200000003,
      "d": 206.8963999999978,
      "v": 100
    },
    {
      "midi": 76,
      "hit": false,
      "t": 151034.37200000006,
      "d": 103.44820000001346,
      "v": 100
    },
    {
      "midi": 77,
      "hit": false,
      "t": 151163.68225000007,
      "d": 1370.6886499999964,
      "v": 100
    },
    {
      "midi": 49,
      "hit": false,
      "t": 151292.9924999999,
      "d": 206.8963999999978,
      "v": 100
    },
    {
      "midi": 54,
      "hit": false,
      "t": 151292.9924999999,
      "d": 206.8963999999978,
      "v": 100
    },
    {
      "midi": 58,
      "hit": false,
      "t": 151292.99250000002,
      "d": 206.8963999999978,
      "v": 100
    },
    {
      "midi": 62,
      "hit": false,
      "t": 151292.99250000002,
      "d": 206.8963999999978,
      "v": 100
    },
    {
      "midi": 65,
      "hit": false,
      "t": 151292.99250000002,
      "d": 206.8963999999978,
      "v": 100
    },
    {
      "midi": 54,
      "hit": false,
      "t": 151551.6129999999,
      "d": 206.8963999999978,
      "v": 100
    },
    {
      "midi": 58,
      "hit": false,
      "t": 151551.613,
      "d": 206.8963999999978,
      "v": 100
    },
    {
      "midi": 62,
      "hit": false,
      "t": 151551.613,
      "d": 206.8963999999978,
      "v": 100
    },
    {
      "midi": 65,
      "hit": false,
      "t": 151551.613,
      "d": 206.8963999999978,
      "v": 100
    },
    {
      "midi": 40,
      "hit": false,
      "t": 151810.2334999999,
      "d": 206.8963999999978,
      "v": 100
    },
    {
      "midi": 58,
      "hit": false,
      "t": 151810.2335,
      "d": 206.8963999999978,
      "v": 100
    },
    {
      "midi": 62,
      "hit": false,
      "t": 151810.2335,
      "d": 206.8963999999978,
      "v": 100
    },
    {
      "midi": 65,
      "hit": false,
      "t": 151810.2335,
      "d": 206.8963999999978,
      "v": 100
    },
    {
      "midi": 54,
      "hit": false,
      "t": 152068.85399999988,
      "d": 206.8963999999978,
      "v": 100
    },
    {
      "midi": 58,
      "hit": false,
      "t": 152068.854,
      "d": 206.8963999999978,
      "v": 100
    },
    {
      "midi": 62,
      "hit": false,
      "t": 152068.854,
      "d": 206.8963999999978,
      "v": 100
    },
    {
      "midi": 65,
      "hit": false,
      "t": 152068.854,
      "d": 206.8963999999978,
      "v": 100
    },
    {
      "midi": 54,
      "hit": false,
      "t": 152327.47449999987,
      "d": 206.8963999999978,
      "v": 100
    },
    {
      "midi": 60,
      "hit": false,
      "t": 152327.47449999998,
      "d": 206.8963999999978,
      "v": 100
    },
    {
      "midi": 64,
      "hit": false,
      "t": 152327.47449999998,
      "d": 206.8963999999978,
      "v": 100
    },
    {
      "midi": 67,
      "hit": false,
      "t": 152327.47449999998,
      "d": 206.8963999999978,
      "v": 100
    },
    {
      "midi": 54,
      "hit": false,
      "t": 152586.09499999986,
      "d": 206.8963999999978,
      "v": 100
    },
    {
      "midi": 60,
      "hit": false,
      "t": 152586.09499999997,
      "d": 206.8963999999978,
      "v": 100
    },
    {
      "midi": 64,
      "hit": false,
      "t": 152586.09499999997,
      "d": 206.8963999999978,
      "v": 100
    },
    {
      "midi": 67,
      "hit": false,
      "t": 152586.09499999997,
      "d": 206.8963999999978,
      "v": 100
    },
    {
      "midi": 76,
      "hit": false,
      "t": 152586.09500000006,
      "d": 206.8963999999978,
      "v": 100
    },
    {
      "midi": 40,
      "hit": false,
      "t": 152844.71549999985,
      "d": 206.8963999999978,
      "v": 100
    },
    {
      "midi": 60,
      "hit": false,
      "t": 152844.71549999996,
      "d": 206.8963999999978,
      "v": 100
    },
    {
      "midi": 64,
      "hit": false,
      "t": 152844.71549999996,
      "d": 206.8963999999978,
      "v": 100
    },
    {
      "midi": 67,
      "hit": false,
      "t": 152844.71549999996,
      "d": 206.8963999999978,
      "v": 100
    },
    {
      "midi": 74,
      "hit": false,
      "t": 152844.71550000005,
      "d": 206.8963999999978,
      "v": 100
    },
    {
      "midi": 54,
      "hit": false,
      "t": 153103.33599999984,
      "d": 206.8963999999978,
      "v": 100
    },
    {
      "midi": 60,
      "hit": false,
      "t": 153103.33599999995,
      "d": 206.8963999999978,
      "v": 100
    },
    {
      "midi": 64,
      "hit": false,
      "t": 153103.33599999995,
      "d": 206.8963999999978,
      "v": 100
    },
    {
      "midi": 67,
      "hit": false,
      "t": 153103.33599999995,
      "d": 206.8963999999978,
      "v": 100
    },
    {
      "midi": 76,
      "hit": false,
      "t": 153103.33600000004,
      "d": 103.44820000001346,
      "v": 100
    },
    {
      "midi": 77,
      "hit": false,
      "t": 153232.64625000005,
      "d": 956.8958500000008,
      "v": 100
    },
    {
      "midi": 49,
      "hit": false,
      "t": 153361.95649999983,
      "d": 206.8963999999978,
      "v": 100
    },
    {
      "midi": 54,
      "hit": false,
      "t": 153361.95649999983,
      "d": 206.8963999999978,
      "v": 100
    },
    {
      "midi": 50,
      "hit": false,
      "t": 153361.95649999994,
      "d": 206.8963999999978,
      "v": 100
    },
    {
      "midi": 53,
      "hit": false,
      "t": 153361.95649999994,
      "d": 206.8963999999978,
      "v": 100
    },
    {
      "midi": 57,
      "hit": false,
      "t": 153361.95649999994,
      "d": 206.8963999999978,
      "v": 100
    },
    {
      "midi": 54,
      "hit": false,
      "t": 153620.57699999982,
      "d": 206.8963999999978,
      "v": 100
    },
    {
      "midi": 50,
      "hit": false,
      "t": 153620.57699999993,
      "d": 206.8963999999978,
      "v": 100
    },
    {
      "midi": 53,
      "hit": false,
      "t": 153620.57699999993,
      "d": 206.8963999999978,
      "v": 100
    },
    {
      "midi": 57,
      "hit": false,
      "t": 153620.57699999993,
      "d": 206.8963999999978,
      "v": 100
    },
    {
      "midi": 40,
      "hit": false,
      "t": 153879.1974999998,
      "d": 206.8963999999978,
      "v": 100
    },
    {
      "midi": 50,
      "hit": false,
      "t": 153879.19749999992,
      "d": 206.8963999999978,
      "v": 100
    },
    {
      "midi": 53,
      "hit": false,
      "t": 153879.19749999992,
      "d": 206.8963999999978,
      "v": 100
    },
    {
      "midi": 57,
      "hit": false,
      "t": 153879.19749999992,
      "d": 206.8963999999978,
      "v": 100
    },
    {
      "midi": 54,
      "hit": false,
      "t": 154137.8179999998,
      "d": 206.8963999999978,
      "v": 100
    },
    {
      "midi": 50,
      "hit": false,
      "t": 154137.8179999999,
      "d": 206.8963999999978,
      "v": 100
    },
    {
      "midi": 53,
      "hit": false,
      "t": 154137.8179999999,
      "d": 206.8963999999978,
      "v": 100
    },
    {
      "midi": 57,
      "hit": false,
      "t": 154137.8179999999,
      "d": 206.8963999999978,
      "v": 100
    },
    {
      "midi": 54,
      "hit": false,
      "t": 154396.4384999998,
      "d": 206.8963999999978,
      "v": 100
    },
    {
      "midi": 60,
      "hit": false,
      "t": 154396.4384999999,
      "d": 206.8963999999978,
      "v": 100
    },
    {
      "midi": 64,
      "hit": false,
      "t": 154396.4384999999,
      "d": 206.8963999999978,
      "v": 100
    },
    {
      "midi": 67,
      "hit": false,
      "t": 154396.4384999999,
      "d": 206.8963999999978,
      "v": 100
    },
    {
      "midi": 54,
      "hit": false,
      "t": 154655.05899999978,
      "d": 206.8963999999978,
      "v": 100
    },
    {
      "midi": 60,
      "hit": false,
      "t": 154655.0589999999,
      "d": 206.8963999999978,
      "v": 100
    },
    {
      "midi": 64,
      "hit": false,
      "t": 154655.0589999999,
      "d": 206.8963999999978,
      "v": 100
    },
    {
      "midi": 67,
      "hit": false,
      "t": 154655.0589999999,
      "d": 206.8963999999978,
      "v": 100
    },
    {
      "midi": 40,
      "hit": false,
      "t": 154913.67949999977,
      "d": 206.8963999999978,
      "v": 100
    },
    {
      "midi": 60,
      "hit": false,
      "t": 154913.67949999988,
      "d": 206.8963999999978,
      "v": 100
    },
    {
      "midi": 64,
      "hit": false,
      "t": 154913.67949999988,
      "d": 206.8963999999978,
      "v": 100
    },
    {
      "midi": 67,
      "hit": false,
      "t": 154913.67949999988,
      "d": 206.8963999999978,
      "v": 100
    },
    {
      "midi": 74,
      "hit": false,
      "t": 154913.67950000006,
      "d": 206.8963999999978,
      "v": 100
    },
    {
      "midi": 54,
      "hit": false,
      "t": 155172.29999999976,
      "d": 206.8963999999978,
      "v": 100
    },
    {
      "midi": 60,
      "hit": false,
      "t": 155172.29999999987,
      "d": 206.8963999999978,
      "v": 100
    },
    {
      "midi": 64,
      "hit": false,
      "t": 155172.29999999987,
      "d": 206.8963999999978,
      "v": 100
    },
    {
      "midi": 67,
      "hit": false,
      "t": 155172.29999999987,
      "d": 206.8963999999978,
      "v": 100
    },
    {
      "midi": 76,
      "hit": false,
      "t": 155172.30000000005,
      "d": 103.44820000001346,
      "v": 100
    },
    {
      "midi": 77,
      "hit": false,
      "t": 155301.61025000006,
      "d": 749.999450000003,
      "v": 100
    },
    {
      "midi": 49,
      "hit": false,
      "t": 155430.92049999975,
      "d": 206.8963999999978,
      "v": 100
    },
    {
      "midi": 54,
      "hit": false,
      "t": 155430.92049999975,
      "d": 206.8963999999978,
      "v": 100
    },
    {
      "midi": 58,
      "hit": false,
      "t": 155430.92049999986,
      "d": 206.8963999999978,
      "v": 100
    },
    {
      "midi": 62,
      "hit": false,
      "t": 155430.92049999986,
      "d": 206.8963999999978,
      "v": 100
    },
    {
      "midi": 65,
      "hit": false,
      "t": 155430.92049999986,
      "d": 206.8963999999978,
      "v": 100
    },
    {
      "midi": 54,
      "hit": false,
      "t": 155689.54099999974,
      "d": 206.8963999999978,
      "v": 100
    },
    {
      "midi": 58,
      "hit": false,
      "t": 155689.54099999985,
      "d": 206.8963999999978,
      "v": 100
    },
    {
      "midi": 62,
      "hit": false,
      "t": 155689.54099999985,
      "d": 206.8963999999978,
      "v": 100
    },
    {
      "midi": 65,
      "hit": false,
      "t": 155689.54099999985,
      "d": 206.8963999999978,
      "v": 100
    },
    {
      "midi": 40,
      "hit": false,
      "t": 155948.16149999973,
      "d": 206.8963999999978,
      "v": 100
    },
    {
      "midi": 58,
      "hit": false,
      "t": 155948.16149999984,
      "d": 206.8963999999978,
      "v": 100
    },
    {
      "midi": 62,
      "hit": false,
      "t": 155948.16149999984,
      "d": 206.8963999999978,
      "v": 100
    },
    {
      "midi": 65,
      "hit": false,
      "t": 155948.16149999984,
      "d": 206.8963999999978,
      "v": 100
    },
    {
      "midi": 54,
      "hit": false,
      "t": 156206.78199999972,
      "d": 206.8963999999978,
      "v": 100
    },
    {
      "midi": 58,
      "hit": false,
      "t": 156206.78199999983,
      "d": 206.8963999999978,
      "v": 100
    },
    {
      "midi": 62,
      "hit": false,
      "t": 156206.78199999983,
      "d": 206.8963999999978,
      "v": 100
    },
    {
      "midi": 65,
      "hit": false,
      "t": 156206.78199999983,
      "d": 206.8963999999978,
      "v": 100
    },
    {
      "midi": 77,
      "hit": false,
      "t": 156206.78200000006,
      "d": 206.8963999999978,
      "v": 100
    },
    {
      "midi": 54,
      "hit": false,
      "t": 156465.4024999997,
      "d": 206.8963999999978,
      "v": 100
    },
    {
      "midi": 60,
      "hit": false,
      "t": 156465.40249999982,
      "d": 206.8963999999978,
      "v": 100
    },
    {
      "midi": 64,
      "hit": false,
      "t": 156465.40249999982,
      "d": 206.8963999999978,
      "v": 100
    },
    {
      "midi": 67,
      "hit": false,
      "t": 156465.40249999982,
      "d": 206.8963999999978,
      "v": 100
    },
    {
      "midi": 79,
      "hit": false,
      "t": 156465.40250000005,
      "d": 310.34460000001127,
      "v": 100
    },
    {
      "midi": 54,
      "hit": false,
      "t": 156724.0229999997,
      "d": 206.8963999999978,
      "v": 100
    },
    {
      "midi": 60,
      "hit": false,
      "t": 156724.0229999998,
      "d": 206.8963999999978,
      "v": 100
    },
    {
      "midi": 64,
      "hit": false,
      "t": 156724.0229999998,
      "d": 206.8963999999978,
      "v": 100
    },
    {
      "midi": 67,
      "hit": false,
      "t": 156724.0229999998,
      "d": 206.8963999999978,
      "v": 100
    },
    {
      "midi": 77,
      "hit": false,
      "t": 156853.33325000005,
      "d": 336.20665000000736,
      "v": 100
    },
    {
      "midi": 40,
      "hit": false,
      "t": 156982.64349999969,
      "d": 206.8963999999978,
      "v": 100
    },
    {
      "midi": 60,
      "hit": false,
      "t": 156982.6434999998,
      "d": 206.8963999999978,
      "v": 100
    },
    {
      "midi": 64,
      "hit": false,
      "t": 156982.6434999998,
      "d": 206.8963999999978,
      "v": 100
    },
    {
      "midi": 67,
      "hit": false,
      "t": 156982.6434999998,
      "d": 206.8963999999978,
      "v": 100
    },
    {
      "midi": 54,
      "hit": false,
      "t": 157241.26399999968,
      "d": 206.8963999999978,
      "v": 100
    },
    {
      "midi": 60,
      "hit": false,
      "t": 157241.2639999998,
      "d": 206.8963999999978,
      "v": 100
    },
    {
      "midi": 64,
      "hit": false,
      "t": 157241.2639999998,
      "d": 206.8963999999978,
      "v": 100
    },
    {
      "midi": 67,
      "hit": false,
      "t": 157241.2639999998,
      "d": 206.8963999999978,
      "v": 100
    },
    {
      "midi": 76,
      "hit": false,
      "t": 157241.26400000005,
      "d": 206.8963999999978,
      "v": 100
    },
    {
      "midi": 49,
      "hit": false,
      "t": 157499.88449999967,
      "d": 206.8963999999978,
      "v": 100
    },
    {
      "midi": 54,
      "hit": false,
      "t": 157499.88449999967,
      "d": 206.8963999999978,
      "v": 100
    },
    {
      "midi": 53,
      "hit": false,
      "t": 157499.88449999978,
      "d": 206.8963999999978,
      "v": 100
    },
    {
      "midi": 57,
      "hit": false,
      "t": 157499.88449999978,
      "d": 206.8963999999978,
      "v": 100
    },
    {
      "midi": 60,
      "hit": false,
      "t": 157499.88449999978,
      "d": 206.8963999999978,
      "v": 100
    },
    {
      "midi": 77,
      "hit": false,
      "t": 157499.88450000004,
      "d": 1655.1712000000116,
      "v": 100
    },
    {
      "midi": 54,
      "hit": false,
      "t": 157758.50499999966,
      "d": 206.8963999999978,
      "v": 100
    },
    {
      "midi": 53,
      "hit": false,
      "t": 157758.50499999977,
      "d": 206.8963999999978,
      "v": 100
    },
    {
      "midi": 57,
      "hit": false,
      "t": 157758.50499999977,
      "d": 206.8963999999978,
      "v": 100
    },
    {
      "midi": 60,
      "hit": false,
      "t": 157758.50499999977,
      "d": 206.8963999999978,
      "v": 100
    },
    {
      "midi": 40,
      "hit": false,
      "t": 158017.12549999965,
      "d": 206.8963999999978,
      "v": 100
    },
    {
      "midi": 53,
      "hit": false,
      "t": 158017.12549999976,
      "d": 206.8963999999978,
      "v": 100
    },
    {
      "midi": 57,
      "hit": false,
      "t": 158017.12549999976,
      "d": 206.8963999999978,
      "v": 100
    },
    {
      "midi": 60,
      "hit": false,
      "t": 158017.12549999976,
      "d": 206.8963999999978,
      "v": 100
    },
    {
      "midi": 54,
      "hit": false,
      "t": 158275.74599999964,
      "d": 206.8963999999978,
      "v": 100
    },
    {
      "midi": 53,
      "hit": false,
      "t": 158275.74599999975,
      "d": 206.8963999999978,
      "v": 100
    },
    {
      "midi": 57,
      "hit": false,
      "t": 158275.74599999975,
      "d": 206.8963999999978,
      "v": 100
    },
    {
      "midi": 60,
      "hit": false,
      "t": 158275.74599999975,
      "d": 206.8963999999978,
      "v": 100
    },
    {
      "midi": 54,
      "hit": false,
      "t": 158534.36649999963,
      "d": 206.8963999999978,
      "v": 100
    },
    {
      "midi": 53,
      "hit": false,
      "t": 158534.36649999974,
      "d": 206.8963999999978,
      "v": 100
    },
    {
      "midi": 57,
      "hit": false,
      "t": 158534.36649999974,
      "d": 206.8963999999978,
      "v": 100
    },
    {
      "midi": 60,
      "hit": false,
      "t": 158534.36649999974,
      "d": 206.8963999999978,
      "v": 100
    },
    {
      "midi": 54,
      "hit": false,
      "t": 158792.98699999962,
      "d": 206.8963999999978,
      "v": 100
    },
    {
      "midi": 53,
      "hit": false,
      "t": 158792.98699999973,
      "d": 206.8963999999978,
      "v": 100
    },
    {
      "midi": 57,
      "hit": false,
      "t": 158792.98699999973,
      "d": 206.8963999999978,
      "v": 100
    },
    {
      "midi": 60,
      "hit": false,
      "t": 158792.98699999973,
      "d": 206.8963999999978,
      "v": 100
    },
    {
      "midi": 40,
      "hit": false,
      "t": 159051.6074999996,
      "d": 206.8963999999978,
      "v": 100
    },
    {
      "midi": 53,
      "hit": false,
      "t": 159051.60749999972,
      "d": 206.8963999999978,
      "v": 100
    },
    {
      "midi": 57,
      "hit": false,
      "t": 159051.60749999972,
      "d": 206.8963999999978,
      "v": 100
    },
    {
      "midi": 60,
      "hit": false,
      "t": 159051.60749999972,
      "d": 206.8963999999978,
      "v": 100
    },
    {
      "midi": 54,
      "hit": false,
      "t": 159310.2279999996,
      "d": 206.8963999999978,
      "v": 100
    },
    {
      "midi": 53,
      "hit": false,
      "t": 159310.2279999997,
      "d": 206.8963999999978,
      "v": 100
    },
    {
      "midi": 57,
      "hit": false,
      "t": 159310.2279999997,
      "d": 206.8963999999978,
      "v": 100
    },
    {
      "midi": 60,
      "hit": false,
      "t": 159310.2279999997,
      "d": 206.8963999999978,
      "v": 100
    },
    {
      "midi": 49,
      "hit": false,
      "t": 159568.84849999959,
      "d": 206.8963999999978,
      "v": 100
    },
    {
      "midi": 54,
      "hit": false,
      "t": 159568.84849999959,
      "d": 206.8963999999978,
      "v": 100
    },
    {
      "midi": 61,
      "hit": false,
      "t": 159568.8484999997,
      "d": 206.8963999999978,
      "v": 100
    },
    {
      "midi": 65,
      "hit": false,
      "t": 159568.8484999997,
      "d": 206.8963999999978,
      "v": 100
    },
    {
      "midi": 68,
      "hit": false,
      "t": 159568.8484999997,
      "d": 206.8963999999978,
      "v": 100
    },
    {
      "midi": 61,
      "hit": false,
      "t": 159568.84850000002,
      "d": 206.8963999999978,
      "v": 100
    },
    {
      "midi": 54,
      "hit": false,
      "t": 159827.46899999958,
      "d": 206.8963999999978,
      "v": 100
    },
    {
      "midi": 61,
      "hit": false,
      "t": 159827.4689999997,
      "d": 206.8963999999978,
      "v": 100
    },
    {
      "midi": 65,
      "hit": false,
      "t": 159827.4689999997,
      "d": 206.8963999999978,
      "v": 100
    },
    {
      "midi": 68,
      "hit": false,
      "t": 159827.4689999997,
      "d": 206.8963999999978,
      "v": 100
    },
    {
      "midi": 61,
      "hit": false,
      "t": 159827.469,
      "d": 206.8963999999978,
      "v": 100
    },
    {
      "midi": 40,
      "hit": false,
      "t": 160086.08949999957,
      "d": 206.8963999999978,
      "v": 100
    },
    {
      "midi": 61,
      "hit": false,
      "t": 160086.08949999968,
      "d": 206.8963999999978,
      "v": 100
    },
    {
      "midi": 65,
      "hit": false,
      "t": 160086.08949999968,
      "d": 206.8963999999978,
      "v": 100
    },
    {
      "midi": 68,
      "hit": false,
      "t": 160086.08949999968,
      "d": 206.8963999999978,
      "v": 100
    },
    {
      "midi": 61,
      "hit": false,
      "t": 160086.0895,
      "d": 206.8963999999978,
      "v": 100
    },
    {
      "midi": 54,
      "hit": false,
      "t": 160344.70999999956,
      "d": 206.8963999999978,
      "v": 100
    },
    {
      "midi": 61,
      "hit": false,
      "t": 160344.70999999967,
      "d": 206.8963999999978,
      "v": 100
    },
    {
      "midi": 65,
      "hit": false,
      "t": 160344.70999999967,
      "d": 206.8963999999978,
      "v": 100
    },
    {
      "midi": 68,
      "hit": false,
      "t": 160344.70999999967,
      "d": 206.8963999999978,
      "v": 100
    },
    {
      "midi": 61,
      "hit": false,
      "t": 160344.71,
      "d": 206.8963999999978,
      "v": 100
    },
    {
      "midi": 54,
      "hit": false,
      "t": 160603.33049999955,
      "d": 206.8963999999978,
      "v": 100
    },
    {
      "midi": 61,
      "hit": false,
      "t": 160603.33049999966,
      "d": 206.8963999999978,
      "v": 100
    },
    {
      "midi": 65,
      "hit": false,
      "t": 160603.33049999966,
      "d": 206.8963999999978,
      "v": 100
    },
    {
      "midi": 68,
      "hit": false,
      "t": 160603.33049999966,
      "d": 206.8963999999978,
      "v": 100
    },
    {
      "midi": 61,
      "hit": false,
      "t": 160603.33049999998,
      "d": 206.8963999999978,
      "v": 100
    },
    {
      "midi": 54,
      "hit": false,
      "t": 160861.95099999954,
      "d": 206.8963999999978,
      "v": 100
    },
    {
      "midi": 61,
      "hit": false,
      "t": 160861.95099999965,
      "d": 206.8963999999978,
      "v": 100
    },
    {
      "midi": 65,
      "hit": false,
      "t": 160861.95099999965,
      "d": 206.8963999999978,
      "v": 100
    },
    {
      "midi": 68,
      "hit": false,
      "t": 160861.95099999965,
      "d": 206.8963999999978,
      "v": 100
    },
    {
      "midi": 61,
      "hit": false,
      "t": 160861.95099999997,
      "d": 206.8963999999978,
      "v": 100
    },
    {
      "midi": 40,
      "hit": false,
      "t": 161120.57149999953,
      "d": 206.8963999999978,
      "v": 100
    },
    {
      "midi": 61,
      "hit": false,
      "t": 161120.57149999964,
      "d": 206.8963999999978,
      "v": 100
    },
    {
      "midi": 65,
      "hit": false,
      "t": 161120.57149999964,
      "d": 206.8963999999978,
      "v": 100
    },
    {
      "midi": 68,
      "hit": false,
      "t": 161120.57149999964,
      "d": 206.8963999999978,
      "v": 100
    },
    {
      "midi": 61,
      "hit": false,
      "t": 161120.57149999996,
      "d": 206.8963999999978,
      "v": 100
    },
    {
      "midi": 54,
      "hit": false,
      "t": 161379.19199999952,
      "d": 206.8963999999978,
      "v": 100
    },
    {
      "midi": 61,
      "hit": false,
      "t": 161379.19199999963,
      "d": 206.8963999999978,
      "v": 100
    },
    {
      "midi": 65,
      "hit": false,
      "t": 161379.19199999963,
      "d": 206.8963999999978,
      "v": 100
    },
    {
      "midi": 68,
      "hit": false,
      "t": 161379.19199999963,
      "d": 206.8963999999978,
      "v": 100
    },
    {
      "midi": 61,
      "hit": false,
      "t": 161379.19199999995,
      "d": 206.8963999999978,
      "v": 100
    },
    {
      "midi": 49,
      "hit": false,
      "t": 161637.8124999995,
      "d": 206.8963999999978,
      "v": 100
    },
    {
      "midi": 54,
      "hit": false,
      "t": 161637.8124999995,
      "d": 206.8963999999978,
      "v": 100
    },
    {
      "midi": 61,
      "hit": false,
      "t": 161637.81249999962,
      "d": 206.8963999999978,
      "v": 100
    },
    {
      "midi": 65,
      "hit": false,
      "t": 161637.81249999962,
      "d": 206.8963999999978,
      "v": 100
    },
    {
      "midi": 68,
      "hit": false,
      "t": 161637.81249999962,
      "d": 206.8963999999978,
      "v": 100
    },
    {
      "midi": 61,
      "hit": false,
      "t": 161637.81249999994,
      "d": 206.8963999999978,
      "v": 100
    },
    {
      "midi": 54,
      "hit": false,
      "t": 161896.4329999995,
      "d": 206.8963999999978,
      "v": 100
    },
    {
      "midi": 61,
      "hit": false,
      "t": 161896.4329999996,
      "d": 206.8963999999978,
      "v": 100
    },
    {
      "midi": 65,
      "hit": false,
      "t": 161896.4329999996,
      "d": 206.8963999999978,
      "v": 100
    },
    {
      "midi": 68,
      "hit": false,
      "t": 161896.4329999996,
      "d": 206.8963999999978,
      "v": 100
    },
    {
      "midi": 61,
      "hit": false,
      "t": 161896.43299999993,
      "d": 206.8963999999978,
      "v": 100
    },
    {
      "midi": 40,
      "hit": false,
      "t": 162155.05349999949,
      "d": 206.8963999999978,
      "v": 100
    },
    {
      "midi": 61,
      "hit": false,
      "t": 162155.0534999996,
      "d": 206.8963999999978,
      "v": 100
    },
    {
      "midi": 65,
      "hit": false,
      "t": 162155.0534999996,
      "d": 206.8963999999978,
      "v": 100
    },
    {
      "midi": 68,
      "hit": false,
      "t": 162155.0534999996,
      "d": 206.8963999999978,
      "v": 100
    },
    {
      "midi": 61,
      "hit": false,
      "t": 162155.05349999992,
      "d": 206.8963999999978,
      "v": 100
    },
    {
      "midi": 54,
      "hit": false,
      "t": 162413.67399999948,
      "d": 206.8963999999978,
      "v": 100
    },
    {
      "midi": 61,
      "hit": false,
      "t": 162413.6739999996,
      "d": 206.8963999999978,
      "v": 100
    },
    {
      "midi": 65,
      "hit": false,
      "t": 162413.6739999996,
      "d": 206.8963999999978,
      "v": 100
    },
    {
      "midi": 68,
      "hit": false,
      "t": 162413.6739999996,
      "d": 206.8963999999978,
      "v": 100
    },
    {
      "midi": 61,
      "hit": false,
      "t": 162413.6739999999,
      "d": 206.8963999999978,
      "v": 100
    },
    {
      "midi": 54,
      "hit": false,
      "t": 162672.29449999947,
      "d": 206.8963999999978,
      "v": 100
    },
    {
      "midi": 61,
      "hit": false,
      "t": 162672.29449999958,
      "d": 206.8963999999978,
      "v": 100
    },
    {
      "midi": 65,
      "hit": false,
      "t": 162672.29449999958,
      "d": 206.8963999999978,
      "v": 100
    },
    {
      "midi": 68,
      "hit": false,
      "t": 162672.29449999958,
      "d": 206.8963999999978,
      "v": 100
    },
    {
      "midi": 61,
      "hit": false,
      "t": 162672.2944999999,
      "d": 206.8963999999978,
      "v": 100
    },
    {
      "midi": 54,
      "hit": false,
      "t": 162930.91499999946,
      "d": 206.8963999999978,
      "v": 100
    },
    {
      "midi": 61,
      "hit": false,
      "t": 162930.91499999957,
      "d": 206.8963999999978,
      "v": 100
    },
    {
      "midi": 65,
      "hit": false,
      "t": 162930.91499999957,
      "d": 206.8963999999978,
      "v": 100
    },
    {
      "midi": 68,
      "hit": false,
      "t": 162930.91499999957,
      "d": 206.8963999999978,
      "v": 100
    },
    {
      "midi": 61,
      "hit": false,
      "t": 162930.9149999999,
      "d": 206.8963999999978,
      "v": 100
    },
    {
      "midi": 40,
      "hit": false,
      "t": 163189.53549999945,
      "d": 206.8963999999978,
      "v": 100
    },
    {
      "midi": 61,
      "hit": false,
      "t": 163189.53549999956,
      "d": 206.8963999999978,
      "v": 100
    },
    {
      "midi": 65,
      "hit": false,
      "t": 163189.53549999956,
      "d": 206.8963999999978,
      "v": 100
    },
    {
      "midi": 68,
      "hit": false,
      "t": 163189.53549999956,
      "d": 206.8963999999978,
      "v": 100
    },
    {
      "midi": 61,
      "hit": false,
      "t": 163189.53549999988,
      "d": 206.8963999999978,
      "v": 100
    },
    {
      "midi": 54,
      "hit": false,
      "t": 163448.15599999944,
      "d": 206.8963999999978,
      "v": 100
    },
    {
      "midi": 61,
      "hit": false,
      "t": 163448.15599999955,
      "d": 206.8963999999978,
      "v": 100
    },
    {
      "midi": 65,
      "hit": false,
      "t": 163448.15599999955,
      "d": 206.8963999999978,
      "v": 100
    },
    {
      "midi": 68,
      "hit": false,
      "t": 163448.15599999955,
      "d": 206.8963999999978,
      "v": 100
    },
    {
      "midi": 61,
      "hit": false,
      "t": 163448.15599999987,
      "d": 206.8963999999978,
      "v": 100
    },
    {
      "midi": 49,
      "hit": false,
      "t": 163706.77649999943,
      "d": 206.8963999999978,
      "v": 100
    },
    {
      "midi": 54,
      "hit": false,
      "t": 163706.77649999943,
      "d": 206.8963999999978,
      "v": 100
    },
    {
      "midi": 51,
      "hit": false,
      "t": 163706.77649999954,
      "d": 206.8963999999978,
      "v": 100
    },
    {
      "midi": 55,
      "hit": false,
      "t": 163706.77649999954,
      "d": 206.8963999999978,
      "v": 100
    },
    {
      "midi": 58,
      "hit": false,
      "t": 163706.77649999954,
      "d": 206.8963999999978,
      "v": 100
    },
    {
      "midi": 63,
      "hit": false,
      "t": 163706.77649999986,
      "d": 206.8963999999978,
      "v": 100
    },
    {
      "midi": 54,
      "hit": false,
      "t": 163965.39699999942,
      "d": 206.8963999999978,
      "v": 100
    },
    {
      "midi": 51,
      "hit": false,
      "t": 163965.39699999953,
      "d": 206.8963999999978,
      "v": 100
    },
    {
      "midi": 55,
      "hit": false,
      "t": 163965.39699999953,
      "d": 206.8963999999978,
      "v": 100
    },
    {
      "midi": 58,
      "hit": false,
      "t": 163965.39699999953,
      "d": 206.8963999999978,
      "v": 100
    },
    {
      "midi": 63,
      "hit": false,
      "t": 163965.39699999985,
      "d": 206.8963999999978,
      "v": 100
    },
    {
      "midi": 40,
      "hit": false,
      "t": 164224.0174999994,
      "d": 206.8963999999978,
      "v": 100
    },
    {
      "midi": 51,
      "hit": false,
      "t": 164224.01749999952,
      "d": 206.8963999999978,
      "v": 100
    },
    {
      "midi": 55,
      "hit": false,
      "t": 164224.01749999952,
      "d": 206.8963999999978,
      "v": 100
    },
    {
      "midi": 58,
      "hit": false,
      "t": 164224.01749999952,
      "d": 206.8963999999978,
      "v": 100
    },
    {
      "midi": 63,
      "hit": false,
      "t": 164224.01749999984,
      "d": 206.8963999999978,
      "v": 100
    },
    {
      "midi": 54,
      "hit": false,
      "t": 164482.6379999994,
      "d": 206.8963999999978,
      "v": 100
    },
    {
      "midi": 51,
      "hit": false,
      "t": 164482.6379999995,
      "d": 206.8963999999978,
      "v": 100
    },
    {
      "midi": 55,
      "hit": false,
      "t": 164482.6379999995,
      "d": 206.8963999999978,
      "v": 100
    },
    {
      "midi": 58,
      "hit": false,
      "t": 164482.6379999995,
      "d": 206.8963999999978,
      "v": 100
    },
    {
      "midi": 63,
      "hit": false,
      "t": 164482.63799999983,
      "d": 206.8963999999978,
      "v": 100
    },
    {
      "midi": 54,
      "hit": false,
      "t": 164741.25849999939,
      "d": 206.8963999999978,
      "v": 100
    },
    {
      "midi": 51,
      "hit": false,
      "t": 164741.2584999995,
      "d": 206.8963999999978,
      "v": 100
    },
    {
      "midi": 55,
      "hit": false,
      "t": 164741.2584999995,
      "d": 206.8963999999978,
      "v": 100
    },
    {
      "midi": 58,
      "hit": false,
      "t": 164741.2584999995,
      "d": 206.8963999999978,
      "v": 100
    },
    {
      "midi": 63,
      "hit": false,
      "t": 164741.25849999982,
      "d": 206.8963999999978,
      "v": 100
    },
    {
      "midi": 54,
      "hit": false,
      "t": 164999.87899999938,
      "d": 206.8963999999978,
      "v": 100
    },
    {
      "midi": 51,
      "hit": false,
      "t": 164999.8789999995,
      "d": 206.8963999999978,
      "v": 100
    },
    {
      "midi": 55,
      "hit": false,
      "t": 164999.8789999995,
      "d": 206.8963999999978,
      "v": 100
    },
    {
      "midi": 58,
      "hit": false,
      "t": 164999.8789999995,
      "d": 206.8963999999978,
      "v": 100
    },
    {
      "midi": 63,
      "hit": false,
      "t": 164999.8789999998,
      "d": 206.8963999999978,
      "v": 100
    },
    {
      "midi": 40,
      "hit": false,
      "t": 165258.49949999937,
      "d": 206.8963999999978,
      "v": 100
    },
    {
      "midi": 51,
      "hit": false,
      "t": 165258.49949999948,
      "d": 206.8963999999978,
      "v": 100
    },
    {
      "midi": 55,
      "hit": false,
      "t": 165258.49949999948,
      "d": 206.8963999999978,
      "v": 100
    },
    {
      "midi": 58,
      "hit": false,
      "t": 165258.49949999948,
      "d": 206.8963999999978,
      "v": 100
    },
    {
      "midi": 63,
      "hit": false,
      "t": 165258.4994999998,
      "d": 206.8963999999978,
      "v": 100
    },
    {
      "midi": 54,
      "hit": false,
      "t": 165517.11999999936,
      "d": 206.8963999999978,
      "v": 100
    },
    {
      "midi": 51,
      "hit": false,
      "t": 165517.11999999947,
      "d": 206.8963999999978,
      "v": 100
    },
    {
      "midi": 55,
      "hit": false,
      "t": 165517.11999999947,
      "d": 206.8963999999978,
      "v": 100
    },
    {
      "midi": 58,
      "hit": false,
      "t": 165517.11999999947,
      "d": 206.8963999999978,
      "v": 100
    },
    {
      "midi": 63,
      "hit": false,
      "t": 165517.1199999998,
      "d": 206.8963999999978,
      "v": 100
    },
    {
      "midi": 49,
      "hit": false,
      "t": 165775.74049999935,
      "d": 206.8963999999978,
      "v": 100
    },
    {
      "midi": 54,
      "hit": false,
      "t": 165775.74049999935,
      "d": 206.8963999999978,
      "v": 100
    },
    {
      "midi": 51,
      "hit": false,
      "t": 165775.74049999946,
      "d": 206.8963999999978,
      "v": 100
    },
    {
      "midi": 55,
      "hit": false,
      "t": 165775.74049999946,
      "d": 206.8963999999978,
      "v": 100
    },
    {
      "midi": 58,
      "hit": false,
      "t": 165775.74049999946,
      "d": 206.8963999999978,
      "v": 100
    },
    {
      "midi": 63,
      "hit": false,
      "t": 165775.74049999978,
      "d": 206.8963999999978,
      "v": 100
    },
    {
      "midi": 54,
      "hit": false,
      "t": 166034.36099999934,
      "d": 206.8963999999978,
      "v": 100
    },
    {
      "midi": 51,
      "hit": false,
      "t": 166034.36099999945,
      "d": 206.8963999999978,
      "v": 100
    },
    {
      "midi": 55,
      "hit": false,
      "t": 166034.36099999945,
      "d": 206.8963999999978,
      "v": 100
    },
    {
      "midi": 58,
      "hit": false,
      "t": 166034.36099999945,
      "d": 206.8963999999978,
      "v": 100
    },
    {
      "midi": 63,
      "hit": false,
      "t": 166034.36099999977,
      "d": 206.8963999999978,
      "v": 100
    },
    {
      "midi": 40,
      "hit": false,
      "t": 166292.98149999933,
      "d": 206.8963999999978,
      "v": 100
    },
    {
      "midi": 51,
      "hit": false,
      "t": 166292.98149999944,
      "d": 206.8963999999978,
      "v": 100
    },
    {
      "midi": 55,
      "hit": false,
      "t": 166292.98149999944,
      "d": 206.8963999999978,
      "v": 100
    },
    {
      "midi": 58,
      "hit": false,
      "t": 166292.98149999944,
      "d": 206.8963999999978,
      "v": 100
    },
    {
      "midi": 63,
      "hit": false,
      "t": 166292.98149999976,
      "d": 206.8963999999978,
      "v": 100
    },
    {
      "midi": 54,
      "hit": false,
      "t": 166551.60199999932,
      "d": 206.8963999999978,
      "v": 100
    },
    {
      "midi": 51,
      "hit": false,
      "t": 166551.60199999943,
      "d": 206.8963999999978,
      "v": 100
    },
    {
      "midi": 55,
      "hit": false,
      "t": 166551.60199999943,
      "d": 206.8963999999978,
      "v": 100
    },
    {
      "midi": 58,
      "hit": false,
      "t": 166551.60199999943,
      "d": 206.8963999999978,
      "v": 100
    },
    {
      "midi": 63,
      "hit": false,
      "t": 166551.60199999975,
      "d": 206.8963999999978,
      "v": 100
    },
    {
      "midi": 54,
      "hit": false,
      "t": 166810.2224999993,
      "d": 206.8963999999978,
      "v": 100
    },
    {
      "midi": 51,
      "hit": false,
      "t": 166810.22249999942,
      "d": 206.8963999999978,
      "v": 100
    },
    {
      "midi": 55,
      "hit": false,
      "t": 166810.22249999942,
      "d": 206.8963999999978,
      "v": 100
    },
    {
      "midi": 58,
      "hit": false,
      "t": 166810.22249999942,
      "d": 206.8963999999978,
      "v": 100
    },
    {
      "midi": 63,
      "hit": false,
      "t": 166810.22249999974,
      "d": 206.8963999999978,
      "v": 100
    },
    {
      "midi": 54,
      "hit": false,
      "t": 167068.8429999993,
      "d": 206.8963999999978,
      "v": 100
    },
    {
      "midi": 51,
      "hit": false,
      "t": 167068.8429999994,
      "d": 206.8963999999978,
      "v": 100
    },
    {
      "midi": 55,
      "hit": false,
      "t": 167068.8429999994,
      "d": 206.8963999999978,
      "v": 100
    },
    {
      "midi": 58,
      "hit": false,
      "t": 167068.8429999994,
      "d": 206.8963999999978,
      "v": 100
    },
    {
      "midi": 63,
      "hit": false,
      "t": 167068.84299999973,
      "d": 206.8963999999978,
      "v": 100
    },
    {
      "midi": 40,
      "hit": false,
      "t": 167327.46349999928,
      "d": 206.8963999999978,
      "v": 100
    },
    {
      "midi": 51,
      "hit": false,
      "t": 167327.4634999994,
      "d": 206.8963999999978,
      "v": 100
    },
    {
      "midi": 55,
      "hit": false,
      "t": 167327.4634999994,
      "d": 206.8963999999978,
      "v": 100
    },
    {
      "midi": 58,
      "hit": false,
      "t": 167327.4634999994,
      "d": 206.8963999999978,
      "v": 100
    },
    {
      "midi": 63,
      "hit": false,
      "t": 167327.46349999972,
      "d": 206.8963999999978,
      "v": 100
    },
    {
      "midi": 54,
      "hit": false,
      "t": 167586.08399999927,
      "d": 206.8963999999978,
      "v": 100
    },
    {
      "midi": 51,
      "hit": false,
      "t": 167586.0839999994,
      "d": 206.8963999999978,
      "v": 100
    },
    {
      "midi": 55,
      "hit": false,
      "t": 167586.0839999994,
      "d": 206.8963999999978,
      "v": 100
    },
    {
      "midi": 58,
      "hit": false,
      "t": 167586.0839999994,
      "d": 206.8963999999978,
      "v": 100
    },
    {
      "midi": 63,
      "hit": false,
      "t": 167586.0839999997,
      "d": 206.8963999999978,
      "v": 100
    },
    {
      "midi": 49,
      "hit": false,
      "t": 167844.70449999926,
      "d": 206.8963999999978,
      "v": 100
    },
    {
      "midi": 54,
      "hit": false,
      "t": 167844.70449999926,
      "d": 206.8963999999978,
      "v": 100
    },
    {
      "midi": 61,
      "hit": false,
      "t": 167844.70449999938,
      "d": 206.8963999999978,
      "v": 100
    },
    {
      "midi": 65,
      "hit": false,
      "t": 167844.70449999938,
      "d": 206.8963999999978,
      "v": 100
    },
    {
      "midi": 68,
      "hit": false,
      "t": 167844.70449999938,
      "d": 206.8963999999978,
      "v": 100
    },
    {
      "midi": 61,
      "hit": false,
      "t": 167844.7044999997,
      "d": 206.8963999999978,
      "v": 100
    },
    {
      "midi": 54,
      "hit": false,
      "t": 168103.32499999925,
      "d": 206.8963999999978,
      "v": 100
    },
    {
      "midi": 61,
      "hit": false,
      "t": 168103.32499999937,
      "d": 206.8963999999978,
      "v": 100
    },
    {
      "midi": 65,
      "hit": false,
      "t": 168103.32499999937,
      "d": 206.8963999999978,
      "v": 100
    },
    {
      "midi": 68,
      "hit": false,
      "t": 168103.32499999937,
      "d": 206.8963999999978,
      "v": 100
    },
    {
      "midi": 61,
      "hit": false,
      "t": 168103.3249999997,
      "d": 206.8963999999978,
      "v": 100
    },
    {
      "midi": 40,
      "hit": false,
      "t": 168361.94549999924,
      "d": 206.8963999999978,
      "v": 100
    },
    {
      "midi": 61,
      "hit": false,
      "t": 168361.94549999936,
      "d": 206.8963999999978,
      "v": 100
    },
    {
      "midi": 65,
      "hit": false,
      "t": 168361.94549999936,
      "d": 206.8963999999978,
      "v": 100
    },
    {
      "midi": 68,
      "hit": false,
      "t": 168361.94549999936,
      "d": 206.8963999999978,
      "v": 100
    },
    {
      "midi": 61,
      "hit": false,
      "t": 168361.94549999968,
      "d": 206.8963999999978,
      "v": 100
    },
    {
      "midi": 54,
      "hit": false,
      "t": 168620.56599999923,
      "d": 206.8963999999978,
      "v": 100
    },
    {
      "midi": 61,
      "hit": false,
      "t": 168620.56599999935,
      "d": 206.8963999999978,
      "v": 100
    },
    {
      "midi": 65,
      "hit": false,
      "t": 168620.56599999935,
      "d": 206.8963999999978,
      "v": 100
    },
    {
      "midi": 68,
      "hit": false,
      "t": 168620.56599999935,
      "d": 206.8963999999978,
      "v": 100
    },
    {
      "midi": 61,
      "hit": false,
      "t": 168620.56599999967,
      "d": 206.8963999999978,
      "v": 100
    },
    {
      "midi": 54,
      "hit": false,
      "t": 168879.18649999922,
      "d": 206.8963999999978,
      "v": 100
    },
    {
      "midi": 61,
      "hit": false,
      "t": 168879.18649999934,
      "d": 206.8963999999978,
      "v": 100
    },
    {
      "midi": 65,
      "hit": false,
      "t": 168879.18649999934,
      "d": 206.8963999999978,
      "v": 100
    },
    {
      "midi": 68,
      "hit": false,
      "t": 168879.18649999934,
      "d": 206.8963999999978,
      "v": 100
    },
    {
      "midi": 61,
      "hit": false,
      "t": 168879.18649999966,
      "d": 206.8963999999978,
      "v": 100
    },
    {
      "midi": 54,
      "hit": false,
      "t": 169137.80699999921,
      "d": 206.8963999999978,
      "v": 100
    },
    {
      "midi": 61,
      "hit": false,
      "t": 169137.80699999933,
      "d": 206.8963999999978,
      "v": 100
    },
    {
      "midi": 65,
      "hit": false,
      "t": 169137.80699999933,
      "d": 206.8963999999978,
      "v": 100
    },
    {
      "midi": 68,
      "hit": false,
      "t": 169137.80699999933,
      "d": 206.8963999999978,
      "v": 100
    },
    {
      "midi": 61,
      "hit": false,
      "t": 169137.80699999965,
      "d": 206.8963999999978,
      "v": 100
    },
    {
      "midi": 40,
      "hit": false,
      "t": 169396.4274999992,
      "d": 206.8963999999978,
      "v": 100
    },
    {
      "midi": 61,
      "hit": false,
      "t": 169396.42749999932,
      "d": 206.8963999999978,
      "v": 100
    },
    {
      "midi": 65,
      "hit": false,
      "t": 169396.42749999932,
      "d": 206.8963999999978,
      "v": 100
    },
    {
      "midi": 68,
      "hit": false,
      "t": 169396.42749999932,
      "d": 206.8963999999978,
      "v": 100
    },
    {
      "midi": 61,
      "hit": false,
      "t": 169396.42749999964,
      "d": 206.8963999999978,
      "v": 100
    },
    {
      "midi": 54,
      "hit": false,
      "t": 169655.0479999992,
      "d": 206.8963999999978,
      "v": 100
    },
    {
      "midi": 61,
      "hit": false,
      "t": 169655.0479999993,
      "d": 206.8963999999978,
      "v": 100
    },
    {
      "midi": 65,
      "hit": false,
      "t": 169655.0479999993,
      "d": 206.8963999999978,
      "v": 100
    },
    {
      "midi": 68,
      "hit": false,
      "t": 169655.0479999993,
      "d": 206.8963999999978,
      "v": 100
    },
    {
      "midi": 61,
      "hit": false,
      "t": 169655.04799999963,
      "d": 206.8963999999978,
      "v": 100
    },
    {
      "midi": 49,
      "hit": false,
      "t": 169913.66849999918,
      "d": 206.8963999999978,
      "v": 100
    },
    {
      "midi": 54,
      "hit": false,
      "t": 169913.66849999918,
      "d": 206.8963999999978,
      "v": 100
    },
    {
      "midi": 61,
      "hit": false,
      "t": 169913.6684999993,
      "d": 206.8963999999978,
      "v": 100
    },
    {
      "midi": 65,
      "hit": false,
      "t": 169913.6684999993,
      "d": 206.8963999999978,
      "v": 100
    },
    {
      "midi": 68,
      "hit": false,
      "t": 169913.6684999993,
      "d": 206.8963999999978,
      "v": 100
    },
    {
      "midi": 61,
      "hit": false,
      "t": 169913.66849999962,
      "d": 206.8963999999978,
      "v": 100
    },
    {
      "midi": 54,
      "hit": false,
      "t": 170172.28899999917,
      "d": 206.8963999999978,
      "v": 100
    },
    {
      "midi": 61,
      "hit": false,
      "t": 170172.2889999993,
      "d": 206.8963999999978,
      "v": 100
    },
    {
      "midi": 65,
      "hit": false,
      "t": 170172.2889999993,
      "d": 206.8963999999978,
      "v": 100
    },
    {
      "midi": 68,
      "hit": false,
      "t": 170172.2889999993,
      "d": 206.8963999999978,
      "v": 100
    },
    {
      "midi": 61,
      "hit": false,
      "t": 170172.2889999996,
      "d": 206.8963999999978,
      "v": 100
    },
    {
      "midi": 40,
      "hit": false,
      "t": 170430.90949999916,
      "d": 206.8963999999978,
      "v": 100
    },
    {
      "midi": 61,
      "hit": false,
      "t": 170430.90949999928,
      "d": 206.8963999999978,
      "v": 100
    },
    {
      "midi": 65,
      "hit": false,
      "t": 170430.90949999928,
      "d": 206.8963999999978,
      "v": 100
    },
    {
      "midi": 68,
      "hit": false,
      "t": 170430.90949999928,
      "d": 206.8963999999978,
      "v": 100
    },
    {
      "midi": 61,
      "hit": false,
      "t": 170430.9094999996,
      "d": 206.8963999999978,
      "v": 100
    },
    {
      "midi": 54,
      "hit": false,
      "t": 170689.52999999915,
      "d": 206.8963999999978,
      "v": 100
    },
    {
      "midi": 61,
      "hit": false,
      "t": 170689.52999999927,
      "d": 206.8963999999978,
      "v": 100
    },
    {
      "midi": 65,
      "hit": false,
      "t": 170689.52999999927,
      "d": 206.8963999999978,
      "v": 100
    },
    {
      "midi": 68,
      "hit": false,
      "t": 170689.52999999927,
      "d": 206.8963999999978,
      "v": 100
    },
    {
      "midi": 61,
      "hit": false,
      "t": 170689.5299999996,
      "d": 206.8963999999978,
      "v": 100
    },
    {
      "midi": 54,
      "hit": false,
      "t": 170948.15049999914,
      "d": 206.8963999999978,
      "v": 100
    },
    {
      "midi": 61,
      "hit": false,
      "t": 170948.15049999926,
      "d": 206.8963999999978,
      "v": 100
    },
    {
      "midi": 65,
      "hit": false,
      "t": 170948.15049999926,
      "d": 206.8963999999978,
      "v": 100
    },
    {
      "midi": 68,
      "hit": false,
      "t": 170948.15049999926,
      "d": 206.8963999999978,
      "v": 100
    },
    {
      "midi": 61,
      "hit": false,
      "t": 170948.15049999958,
      "d": 206.8963999999978,
      "v": 100
    },
    {
      "midi": 54,
      "hit": false,
      "t": 171206.77099999913,
      "d": 206.8963999999978,
      "v": 100
    },
    {
      "midi": 61,
      "hit": false,
      "t": 171206.77099999925,
      "d": 206.8963999999978,
      "v": 100
    },
    {
      "midi": 65,
      "hit": false,
      "t": 171206.77099999925,
      "d": 206.8963999999978,
      "v": 100
    },
    {
      "midi": 68,
      "hit": false,
      "t": 171206.77099999925,
      "d": 206.8963999999978,
      "v": 100
    },
    {
      "midi": 61,
      "hit": false,
      "t": 171206.77099999957,
      "d": 206.8963999999978,
      "v": 100
    },
    {
      "midi": 40,
      "hit": false,
      "t": 171465.39149999912,
      "d": 206.8963999999978,
      "v": 100
    },
    {
      "midi": 61,
      "hit": false,
      "t": 171465.39149999924,
      "d": 206.8963999999978,
      "v": 100
    },
    {
      "midi": 65,
      "hit": false,
      "t": 171465.39149999924,
      "d": 206.8963999999978,
      "v": 100
    },
    {
      "midi": 68,
      "hit": false,
      "t": 171465.39149999924,
      "d": 206.8963999999978,
      "v": 100
    },
    {
      "midi": 61,
      "hit": false,
      "t": 171465.39149999956,
      "d": 206.8963999999978,
      "v": 100
    },
    {
      "midi": 54,
      "hit": false,
      "t": 171724.01199999911,
      "d": 206.8963999999978,
      "v": 100
    },
    {
      "midi": 61,
      "hit": false,
      "t": 171724.01199999923,
      "d": 206.8963999999978,
      "v": 100
    },
    {
      "midi": 65,
      "hit": false,
      "t": 171724.01199999923,
      "d": 206.8963999999978,
      "v": 100
    },
    {
      "midi": 68,
      "hit": false,
      "t": 171724.01199999923,
      "d": 206.8963999999978,
      "v": 100
    },
    {
      "midi": 61,
      "hit": false,
      "t": 171724.01199999955,
      "d": 206.8963999999978,
      "v": 100
    },
    {
      "midi": 49,
      "hit": false,
      "t": 171982.6324999991,
      "d": 206.8963999999978,
      "v": 100
    },
    {
      "midi": 54,
      "hit": false,
      "t": 171982.6324999991,
      "d": 206.8963999999978,
      "v": 100
    },
    {
      "midi": 58,
      "hit": false,
      "t": 171982.63249999922,
      "d": 206.8963999999978,
      "v": 100
    },
    {
      "midi": 62,
      "hit": false,
      "t": 171982.63249999922,
      "d": 206.8963999999978,
      "v": 100
    },
    {
      "midi": 65,
      "hit": false,
      "t": 171982.63249999922,
      "d": 206.8963999999978,
      "v": 100
    },
    {
      "midi": 58,
      "hit": false,
      "t": 171982.63249999954,
      "d": 206.8963999999978,
      "v": 100
    },
    {
      "midi": 54,
      "hit": false,
      "t": 172241.2529999991,
      "d": 206.8963999999978,
      "v": 100
    },
    {
      "midi": 58,
      "hit": false,
      "t": 172241.2529999992,
      "d": 206.8963999999978,
      "v": 100
    },
    {
      "midi": 62,
      "hit": false,
      "t": 172241.2529999992,
      "d": 206.8963999999978,
      "v": 100
    },
    {
      "midi": 65,
      "hit": false,
      "t": 172241.2529999992,
      "d": 206.8963999999978,
      "v": 100
    },
    {
      "midi": 58,
      "hit": false,
      "t": 172241.25299999953,
      "d": 206.8963999999978,
      "v": 100
    },
    {
      "midi": 40,
      "hit": false,
      "t": 172499.87349999908,
      "d": 206.8963999999978,
      "v": 100
    },
    {
      "midi": 58,
      "hit": false,
      "t": 172499.8734999992,
      "d": 206.8963999999978,
      "v": 100
    },
    {
      "midi": 62,
      "hit": false,
      "t": 172499.8734999992,
      "d": 206.8963999999978,
      "v": 100
    },
    {
      "midi": 65,
      "hit": false,
      "t": 172499.8734999992,
      "d": 206.8963999999978,
      "v": 100
    },
    {
      "midi": 58,
      "hit": false,
      "t": 172499.87349999952,
      "d": 206.8963999999978,
      "v": 100
    },
    {
      "midi": 54,
      "hit": false,
      "t": 172758.49399999907,
      "d": 206.8963999999978,
      "v": 100
    },
    {
      "midi": 58,
      "hit": false,
      "t": 172758.4939999992,
      "d": 206.8963999999978,
      "v": 100
    },
    {
      "midi": 62,
      "hit": false,
      "t": 172758.4939999992,
      "d": 206.8963999999978,
      "v": 100
    },
    {
      "midi": 65,
      "hit": false,
      "t": 172758.4939999992,
      "d": 206.8963999999978,
      "v": 100
    },
    {
      "midi": 58,
      "hit": false,
      "t": 172758.4939999995,
      "d": 206.8963999999978,
      "v": 100
    },
    {
      "midi": 54,
      "hit": false,
      "t": 173017.11449999906,
      "d": 206.8963999999978,
      "v": 100
    },
    {
      "midi": 58,
      "hit": false,
      "t": 173017.11449999918,
      "d": 206.8963999999978,
      "v": 100
    },
    {
      "midi": 62,
      "hit": false,
      "t": 173017.11449999918,
      "d": 206.8963999999978,
      "v": 100
    },
    {
      "midi": 65,
      "hit": false,
      "t": 173017.11449999918,
      "d": 206.8963999999978,
      "v": 100
    },
    {
      "midi": 58,
      "hit": false,
      "t": 173017.1144999995,
      "d": 206.8963999999978,
      "v": 100
    },
    {
      "midi": 54,
      "hit": false,
      "t": 173275.73499999905,
      "d": 206.8963999999978,
      "v": 100
    },
    {
      "midi": 58,
      "hit": false,
      "t": 173275.73499999917,
      "d": 206.8963999999978,
      "v": 100
    },
    {
      "midi": 62,
      "hit": false,
      "t": 173275.73499999917,
      "d": 206.8963999999978,
      "v": 100
    },
    {
      "midi": 65,
      "hit": false,
      "t": 173275.73499999917,
      "d": 206.8963999999978,
      "v": 100
    },
    {
      "midi": 58,
      "hit": false,
      "t": 173275.7349999995,
      "d": 206.8963999999978,
      "v": 100
    },
    {
      "midi": 40,
      "hit": false,
      "t": 173534.35549999904,
      "d": 206.8963999999978,
      "v": 100
    },
    {
      "midi": 58,
      "hit": false,
      "t": 173534.35549999916,
      "d": 206.8963999999978,
      "v": 100
    },
    {
      "midi": 62,
      "hit": false,
      "t": 173534.35549999916,
      "d": 206.8963999999978,
      "v": 100
    },
    {
      "midi": 65,
      "hit": false,
      "t": 173534.35549999916,
      "d": 206.8963999999978,
      "v": 100
    },
    {
      "midi": 58,
      "hit": false,
      "t": 173534.35549999948,
      "d": 206.8963999999978,
      "v": 100
    },
    {
      "midi": 54,
      "hit": false,
      "t": 173792.97599999903,
      "d": 206.8963999999978,
      "v": 100
    },
    {
      "midi": 58,
      "hit": false,
      "t": 173792.97599999915,
      "d": 206.8963999999978,
      "v": 100
    },
    {
      "midi": 62,
      "hit": false,
      "t": 173792.97599999915,
      "d": 206.8963999999978,
      "v": 100
    },
    {
      "midi": 65,
      "hit": false,
      "t": 173792.97599999915,
      "d": 206.8963999999978,
      "v": 100
    },
    {
      "midi": 58,
      "hit": false,
      "t": 173792.97599999947,
      "d": 206.8963999999978,
      "v": 100
    },
    {
      "midi": 49,
      "hit": false,
      "t": 174051.59649999902,
      "d": 206.8963999999978,
      "v": 100
    },
    {
      "midi": 54,
      "hit": false,
      "t": 174051.59649999902,
      "d": 206.8963999999978,
      "v": 100
    },
    {
      "midi": 60,
      "hit": false,
      "t": 174051.59649999914,
      "d": 206.8963999999978,
      "v": 100
    },
    {
      "midi": 65,
      "hit": false,
      "t": 174051.59649999914,
      "d": 206.8963999999978,
      "v": 100
    },
    {
      "midi": 67,
      "hit": false,
      "t": 174051.59649999914,
      "d": 206.8963999999978,
      "v": 100
    },
    {
      "midi": 60,
      "hit": false,
      "t": 174051.59649999946,
      "d": 206.8963999999978,
      "v": 100
    },
    {
      "midi": 54,
      "hit": false,
      "t": 174310.21699999901,
      "d": 206.8963999999978,
      "v": 100
    },
    {
      "midi": 60,
      "hit": false,
      "t": 174310.21699999913,
      "d": 206.8963999999978,
      "v": 100
    },
    {
      "midi": 65,
      "hit": false,
      "t": 174310.21699999913,
      "d": 206.8963999999978,
      "v": 100
    },
    {
      "midi": 67,
      "hit": false,
      "t": 174310.21699999913,
      "d": 206.8963999999978,
      "v": 100
    },
    {
      "midi": 60,
      "hit": false,
      "t": 174310.21699999945,
      "d": 206.8963999999978,
      "v": 100
    },
    {
      "midi": 40,
      "hit": false,
      "t": 174568.837499999,
      "d": 206.8963999999978,
      "v": 100
    },
    {
      "midi": 60,
      "hit": false,
      "t": 174568.83749999912,
      "d": 206.8963999999978,
      "v": 100
    },
    {
      "midi": 65,
      "hit": false,
      "t": 174568.83749999912,
      "d": 206.8963999999978,
      "v": 100
    },
    {
      "midi": 67,
      "hit": false,
      "t": 174568.83749999912,
      "d": 206.8963999999978,
      "v": 100
    },
    {
      "midi": 60,
      "hit": false,
      "t": 174568.83749999944,
      "d": 206.8963999999978,
      "v": 100
    },
    {
      "midi": 54,
      "hit": false,
      "t": 174827.457999999,
      "d": 206.8963999999978,
      "v": 100
    },
    {
      "midi": 60,
      "hit": false,
      "t": 174827.4579999991,
      "d": 206.8963999999978,
      "v": 100
    },
    {
      "midi": 65,
      "hit": false,
      "t": 174827.4579999991,
      "d": 206.8963999999978,
      "v": 100
    },
    {
      "midi": 67,
      "hit": false,
      "t": 174827.4579999991,
      "d": 206.8963999999978,
      "v": 100
    },
    {
      "midi": 60,
      "hit": false,
      "t": 174827.45799999943,
      "d": 206.8963999999978,
      "v": 100
    },
    {
      "midi": 40,
      "hit": false,
      "t": 175086.07849999898,
      "d": 103.44820000001346,
      "v": 100
    },
    {
      "midi": 60,
      "hit": false,
      "t": 175086.0784999991,
      "d": 206.8963999999978,
      "v": 100
    },
    {
      "midi": 64,
      "hit": false,
      "t": 175086.0784999991,
      "d": 206.8963999999978,
      "v": 100
    },
    {
      "midi": 67,
      "hit": false,
      "t": 175086.0784999991,
      "d": 206.8963999999978,
      "v": 100
    },
    {
      "midi": 60,
      "hit": false,
      "t": 175086.07849999942,
      "d": 206.8963999999978,
      "v": 100
    },
    {
      "midi": 40,
      "hit": false,
      "t": 175215.388749999,
      "d": 103.44820000001346,
      "v": 100
    },
    {
      "midi": 40,
      "hit": false,
      "t": 175344.698999999,
      "d": 103.44820000001346,
      "v": 100
    },
    {
      "midi": 60,
      "hit": false,
      "t": 175344.6989999991,
      "d": 206.8963999999978,
      "v": 100
    },
    {
      "midi": 64,
      "hit": false,
      "t": 175344.6989999991,
      "d": 206.8963999999978,
      "v": 100
    },
    {
      "midi": 67,
      "hit": false,
      "t": 175344.6989999991,
      "d": 206.8963999999978,
      "v": 100
    },
    {
      "midi": 60,
      "hit": false,
      "t": 175344.6989999994,
      "d": 206.8963999999978,
      "v": 100
    },
    {
      "midi": 40,
      "hit": false,
      "t": 175474.009249999,
      "d": 129.31025000000955,
      "v": 100
    },
    {
      "midi": 40,
      "hit": false,
      "t": 175603.31949999902,
      "d": 103.44820000001346,
      "v": 100
    },
    {
      "midi": 49,
      "hit": false,
      "t": 175603.31949999902,
      "d": 103.44820000001346,
      "v": 100
    },
    {
      "midi": 60,
      "hit": false,
      "t": 175603.31949999908,
      "d": 206.8963999999978,
      "v": 100
    },
    {
      "midi": 64,
      "hit": false,
      "t": 175603.31949999908,
      "d": 206.8963999999978,
      "v": 100
    },
    {
      "midi": 67,
      "hit": false,
      "t": 175603.31949999908,
      "d": 206.8963999999978,
      "v": 100
    },
    {
      "midi": 60,
      "hit": false,
      "t": 175603.3194999994,
      "d": 206.8963999999978,
      "v": 100
    },
    {
      "midi": 49,
      "hit": false,
      "t": 175732.62974999903,
      "d": 103.44820000001346,
      "v": 100
    },
    {
      "midi": 40,
      "hit": false,
      "t": 175732.62974999903,
      "d": 103.44820000001346,
      "v": 100
    },
    {
      "midi": 49,
      "hit": false,
      "t": 175861.93999999904,
      "d": 103.44820000001346,
      "v": 100
    },
    {
      "midi": 40,
      "hit": false,
      "t": 175861.93999999904,
      "d": 103.44820000001346,
      "v": 100
    },
    {
      "midi": 60,
      "hit": false,
      "t": 175861.93999999907,
      "d": 206.8963999999978,
      "v": 100
    },
    {
      "midi": 64,
      "hit": false,
      "t": 175861.93999999907,
      "d": 206.8963999999978,
      "v": 100
    },
    {
      "midi": 67,
      "hit": false,
      "t": 175861.93999999907,
      "d": 206.8963999999978,
      "v": 100
    },
    {
      "midi": 60,
      "hit": false,
      "t": 175861.9399999994,
      "d": 206.8963999999978,
      "v": 100
    },
    {
      "midi": 49,
      "hit": false,
      "t": 175991.25024999905,
      "d": 103.44820000001346,
      "v": 100
    },
    {
      "midi": 40,
      "hit": false,
      "t": 175991.25024999905,
      "d": 103.44820000001346,
      "v": 100
    },
    {
      "midi": 53,
      "hit": false,
      "t": 176120.56049999906,
      "d": 206.8963999999978,
      "v": 100
    },
    {
      "midi": 57,
      "hit": false,
      "t": 176120.56049999906,
      "d": 206.8963999999978,
      "v": 100
    },
    {
      "midi": 60,
      "hit": false,
      "t": 176120.56049999906,
      "d": 206.8963999999978,
      "v": 100
    },
    {
      "midi": 53,
      "hit": false,
      "t": 176379.18099999905,
      "d": 206.8963999999978,
      "v": 100
    },
    {
      "midi": 57,
      "hit": false,
      "t": 176379.18099999905,
      "d": 206.8963999999978,
      "v": 100
    },
    {
      "midi": 60,
      "hit": false,
      "t": 176379.18099999905,
      "d": 206.8963999999978,
      "v": 100
    },
    {
      "midi": 53,
      "hit": false,
      "t": 176637.80149999904,
      "d": 206.8963999999978,
      "v": 100
    },
    {
      "midi": 57,
      "hit": false,
      "t": 176637.80149999904,
      "d": 206.8963999999978,
      "v": 100
    },
    {
      "midi": 60,
      "hit": false,
      "t": 176637.80149999904,
      "d": 206.8963999999978,
      "v": 100
    },
    {
      "midi": 65,
      "hit": false,
      "t": 176637.8015,
      "d": 413.7927999999956,
      "v": 100
    },
    {
      "midi": 69,
      "hit": false,
      "t": 176637.8015,
      "d": 413.7927999999956,
      "v": 100
    },
    {
      "midi": 53,
      "hit": false,
      "t": 176896.42199999903,
      "d": 206.8963999999978,
      "v": 100
    },
    {
      "midi": 57,
      "hit": false,
      "t": 176896.42199999903,
      "d": 206.8963999999978,
      "v": 100
    },
    {
      "midi": 60,
      "hit": false,
      "t": 176896.42199999903,
      "d": 206.8963999999978,
      "v": 100
    },
    {
      "midi": 60,
      "hit": false,
      "t": 177155.04249999902,
      "d": 206.8963999999978,
      "v": 100
    },
    {
      "midi": 64,
      "hit": false,
      "t": 177155.04249999902,
      "d": 206.8963999999978,
      "v": 100
    },
    {
      "midi": 67,
      "hit": false,
      "t": 177155.04249999902,
      "d": 206.8963999999978,
      "v": 100
    },
    {
      "midi": 64,
      "hit": false,
      "t": 177155.0425,
      "d": 413.7927999999956,
      "v": 100
    },
    {
      "midi": 67,
      "hit": false,
      "t": 177155.0425,
      "d": 413.7927999999956,
      "v": 100
    },
    {
      "midi": 60,
      "hit": false,
      "t": 177413.662999999,
      "d": 206.8963999999978,
      "v": 100
    },
    {
      "midi": 64,
      "hit": false,
      "t": 177413.662999999,
      "d": 206.8963999999978,
      "v": 100
    },
    {
      "midi": 67,
      "hit": false,
      "t": 177413.662999999,
      "d": 206.8963999999978,
      "v": 100
    },
    {
      "midi": 60,
      "hit": false,
      "t": 177672.283499999,
      "d": 206.8963999999978,
      "v": 100
    },
    {
      "midi": 64,
      "hit": false,
      "t": 177672.283499999,
      "d": 206.8963999999978,
      "v": 100
    },
    {
      "midi": 67,
      "hit": false,
      "t": 177672.283499999,
      "d": 206.8963999999978,
      "v": 100
    },
    {
      "midi": 60,
      "hit": false,
      "t": 177672.28350000002,
      "d": 413.7927999999956,
      "v": 100
    },
    {
      "midi": 64,
      "hit": false,
      "t": 177672.28350000002,
      "d": 413.7927999999956,
      "v": 100
    },
    {
      "midi": 60,
      "hit": false,
      "t": 177930.903999999,
      "d": 206.8963999999978,
      "v": 100
    },
    {
      "midi": 64,
      "hit": false,
      "t": 177930.903999999,
      "d": 206.8963999999978,
      "v": 100
    },
    {
      "midi": 67,
      "hit": false,
      "t": 177930.903999999,
      "d": 206.8963999999978,
      "v": 100
    },
    {
      "midi": 50,
      "hit": false,
      "t": 178189.52449999898,
      "d": 206.8963999999978,
      "v": 100
    },
    {
      "midi": 53,
      "hit": false,
      "t": 178189.52449999898,
      "d": 206.8963999999978,
      "v": 100
    },
    {
      "midi": 57,
      "hit": false,
      "t": 178189.52449999898,
      "d": 206.8963999999978,
      "v": 100
    },
    {
      "midi": 62,
      "hit": false,
      "t": 178189.52450000003,
      "d": 827.5855999999912,
      "v": 100
    },
    {
      "midi": 65,
      "hit": false,
      "t": 178189.52450000003,
      "d": 827.5855999999912,
      "v": 100
    },
    {
      "midi": 50,
      "hit": false,
      "t": 178448.14499999897,
      "d": 206.8963999999978,
      "v": 100
    },
    {
      "midi": 53,
      "hit": false,
      "t": 178448.14499999897,
      "d": 206.8963999999978,
      "v": 100
    },
    {
      "midi": 57,
      "hit": false,
      "t": 178448.14499999897,
      "d": 206.8963999999978,
      "v": 100
    },
    {
      "midi": 50,
      "hit": false,
      "t": 178706.76549999896,
      "d": 206.8963999999978,
      "v": 100
    },
    {
      "midi": 53,
      "hit": false,
      "t": 178706.76549999896,
      "d": 206.8963999999978,
      "v": 100
    },
    {
      "midi": 57,
      "hit": false,
      "t": 178706.76549999896,
      "d": 206.8963999999978,
      "v": 100
    },
    {
      "midi": 50,
      "hit": false,
      "t": 178965.38599999895,
      "d": 206.8963999999978,
      "v": 100
    },
    {
      "midi": 53,
      "hit": false,
      "t": 178965.38599999895,
      "d": 206.8963999999978,
      "v": 100
    },
    {
      "midi": 57,
      "hit": false,
      "t": 178965.38599999895,
      "d": 206.8963999999978,
      "v": 100
    },
    {
      "midi": 60,
      "hit": false,
      "t": 179224.00649999894,
      "d": 206.8963999999978,
      "v": 100
    },
    {
      "midi": 64,
      "hit": false,
      "t": 179224.00649999894,
      "d": 206.8963999999978,
      "v": 100
    },
    {
      "midi": 67,
      "hit": false,
      "t": 179224.00649999894,
      "d": 206.8963999999978,
      "v": 100
    },
    {
      "midi": 60,
      "hit": false,
      "t": 179224.00650000002,
      "d": 413.7927999999956,
      "v": 100
    },
    {
      "midi": 64,
      "hit": false,
      "t": 179224.00650000002,
      "d": 413.7927999999956,
      "v": 100
    },
    {
      "midi": 60,
      "hit": false,
      "t": 179482.62699999893,
      "d": 206.8963999999978,
      "v": 100
    },
    {
      "midi": 64,
      "hit": false,
      "t": 179482.62699999893,
      "d": 206.8963999999978,
      "v": 100
    },
    {
      "midi": 67,
      "hit": false,
      "t": 179482.62699999893,
      "d": 206.8963999999978,
      "v": 100
    },
    {
      "midi": 60,
      "hit": false,
      "t": 179741.24749999892,
      "d": 206.8963999999978,
      "v": 100
    },
    {
      "midi": 64,
      "hit": false,
      "t": 179741.24749999892,
      "d": 206.8963999999978,
      "v": 100
    },
    {
      "midi": 67,
      "hit": false,
      "t": 179741.24749999892,
      "d": 206.8963999999978,
      "v": 100
    },
    {
      "midi": 57,
      "hit": false,
      "t": 179741.24750000003,
      "d": 206.8963999999978,
      "v": 100
    },
    {
      "midi": 60,
      "hit": false,
      "t": 179741.24750000003,
      "d": 206.8963999999978,
      "v": 100
    },
    {
      "midi": 60,
      "hit": false,
      "t": 179999.8679999989,
      "d": 206.8963999999978,
      "v": 100
    },
    {
      "midi": 64,
      "hit": false,
      "t": 179999.8679999989,
      "d": 206.8963999999978,
      "v": 100
    },
    {
      "midi": 67,
      "hit": false,
      "t": 179999.8679999989,
      "d": 206.8963999999978,
      "v": 100
    },
    {
      "midi": 62,
      "hit": false,
      "t": 179999.86800000002,
      "d": 1913.7917000000016,
      "v": 100
    },
    {
      "midi": 58,
      "hit": false,
      "t": 179999.86800000002,
      "d": 1913.7917000000016,
      "v": 100
    },
    {
      "midi": 58,
      "hit": false,
      "t": 180258.4884999989,
      "d": 206.8963999999978,
      "v": 100
    },
    {
      "midi": 62,
      "hit": false,
      "t": 180258.4884999989,
      "d": 206.8963999999978,
      "v": 100
    },
    {
      "midi": 65,
      "hit": false,
      "t": 180258.4884999989,
      "d": 206.8963999999978,
      "v": 100
    },
    {
      "midi": 58,
      "hit": false,
      "t": 180517.1089999989,
      "d": 206.8963999999978,
      "v": 100
    },
    {
      "midi": 62,
      "hit": false,
      "t": 180517.1089999989,
      "d": 206.8963999999978,
      "v": 100
    },
    {
      "midi": 65,
      "hit": false,
      "t": 180517.1089999989,
      "d": 206.8963999999978,
      "v": 100
    },
    {
      "midi": 58,
      "hit": false,
      "t": 180775.72949999888,
      "d": 206.8963999999978,
      "v": 100
    },
    {
      "midi": 62,
      "hit": false,
      "t": 180775.72949999888,
      "d": 206.8963999999978,
      "v": 100
    },
    {
      "midi": 65,
      "hit": false,
      "t": 180775.72949999888,
      "d": 206.8963999999978,
      "v": 100
    },
    {
      "midi": 58,
      "hit": false,
      "t": 181034.34999999887,
      "d": 206.8963999999978,
      "v": 100
    },
    {
      "midi": 62,
      "hit": false,
      "t": 181034.34999999887,
      "d": 206.8963999999978,
      "v": 100
    },
    {
      "midi": 65,
      "hit": false,
      "t": 181034.34999999887,
      "d": 206.8963999999978,
      "v": 100
    },
    {
      "midi": 60,
      "hit": false,
      "t": 181292.97049999886,
      "d": 206.8963999999978,
      "v": 100
    },
    {
      "midi": 64,
      "hit": false,
      "t": 181292.97049999886,
      "d": 206.8963999999978,
      "v": 100
    },
    {
      "midi": 67,
      "hit": false,
      "t": 181292.97049999886,
      "d": 206.8963999999978,
      "v": 100
    },
    {
      "midi": 60,
      "hit": false,
      "t": 181551.59099999885,
      "d": 206.8963999999978,
      "v": 100
    },
    {
      "midi": 64,
      "hit": false,
      "t": 181551.59099999885,
      "d": 206.8963999999978,
      "v": 100
    },
    {
      "midi": 67,
      "hit": false,
      "t": 181551.59099999885,
      "d": 206.8963999999978,
      "v": 100
    },
    {
      "midi": 60,
      "hit": false,
      "t": 181810.21149999884,
      "d": 206.8963999999978,
      "v": 100
    },
    {
      "midi": 64,
      "hit": false,
      "t": 181810.21149999884,
      "d": 206.8963999999978,
      "v": 100
    },
    {
      "midi": 67,
      "hit": false,
      "t": 181810.21149999884,
      "d": 206.8963999999978,
      "v": 100
    },
    {
      "midi": 60,
      "hit": false,
      "t": 182068.83199999883,
      "d": 206.8963999999978,
      "v": 100
    },
    {
      "midi": 64,
      "hit": false,
      "t": 182068.83199999883,
      "d": 206.8963999999978,
      "v": 100
    },
    {
      "midi": 67,
      "hit": false,
      "t": 182068.83199999883,
      "d": 206.8963999999978,
      "v": 100
    },
    {
      "midi": 57,
      "hit": false,
      "t": 182327.45249999882,
      "d": 206.8963999999978,
      "v": 100
    },
    {
      "midi": 61,
      "hit": false,
      "t": 182327.45249999882,
      "d": 206.8963999999978,
      "v": 100
    },
    {
      "midi": 64,
      "hit": false,
      "t": 182327.45249999882,
      "d": 206.8963999999978,
      "v": 100
    },
    {
      "midi": 54,
      "hit": false,
      "t": 182327.45249999905,
      "d": 103.44820000001346,
      "v": 100
    },
    {
      "midi": 57,
      "hit": false,
      "t": 182327.4524999994,
      "d": 206.8963999999978,
      "v": 100
    },
    {
      "midi": 54,
      "hit": false,
      "t": 182456.76274999906,
      "d": 103.44820000001346,
      "v": 100
    },
    {
      "midi": 57,
      "hit": false,
      "t": 182586.0729999988,
      "d": 206.8963999999978,
      "v": 100
    },
    {
      "midi": 61,
      "hit": false,
      "t": 182586.0729999988,
      "d": 206.8963999999978,
      "v": 100
    },
    {
      "midi": 64,
      "hit": false,
      "t": 182586.0729999988,
      "d": 206.8963999999978,
      "v": 100
    },
    {
      "midi": 54,
      "hit": false,
      "t": 182586.07299999907,
      "d": 103.44820000001346,
      "v": 100
    },
    {
      "midi": 57,
      "hit": false,
      "t": 182586.0729999994,
      "d": 206.8963999999978,
      "v": 100
    },
    {
      "midi": 54,
      "hit": false,
      "t": 182715.38324999908,
      "d": 103.44820000001346,
      "v": 100
    },
    {
      "midi": 57,
      "hit": false,
      "t": 182844.6934999988,
      "d": 206.8963999999978,
      "v": 100
    },
    {
      "midi": 61,
      "hit": false,
      "t": 182844.6934999988,
      "d": 206.8963999999978,
      "v": 100
    },
    {
      "midi": 64,
      "hit": false,
      "t": 182844.6934999988,
      "d": 206.8963999999978,
      "v": 100
    },
    {
      "midi": 54,
      "hit": false,
      "t": 182844.6934999991,
      "d": 103.44820000001346,
      "v": 100
    },
    {
      "midi": 57,
      "hit": false,
      "t": 182844.69349999938,
      "d": 206.8963999999978,
      "v": 100
    },
    {
      "midi": 54,
      "hit": false,
      "t": 182974.0037499991,
      "d": 103.44820000001346,
      "v": 100
    },
    {
      "midi": 57,
      "hit": false,
      "t": 183103.3139999988,
      "d": 206.8963999999978,
      "v": 100
    },
    {
      "midi": 61,
      "hit": false,
      "t": 183103.3139999988,
      "d": 206.8963999999978,
      "v": 100
    },
    {
      "midi": 64,
      "hit": false,
      "t": 183103.3139999988,
      "d": 206.8963999999978,
      "v": 100
    },
    {
      "midi": 54,
      "hit": false,
      "t": 183103.3139999991,
      "d": 103.44820000001346,
      "v": 100
    },
    {
      "midi": 57,
      "hit": false,
      "t": 183103.31399999937,
      "d": 206.8963999999978,
      "v": 100
    },
    {
      "midi": 54,
      "hit": false,
      "t": 183232.62424999912,
      "d": 103.44820000001346,
      "v": 100
    },
    {
      "midi": 57,
      "hit": false,
      "t": 183361.93449999878,
      "d": 206.8963999999978,
      "v": 100
    },
    {
      "midi": 61,
      "hit": false,
      "t": 183361.93449999878,
      "d": 206.8963999999978,
      "v": 100
    },
    {
      "midi": 64,
      "hit": false,
      "t": 183361.93449999878,
      "d": 206.8963999999978,
      "v": 100
    },
    {
      "midi": 54,
      "hit": false,
      "t": 183361.93449999913,
      "d": 103.44820000001346,
      "v": 100
    },
    {
      "midi": 57,
      "hit": false,
      "t": 183361.93449999936,
      "d": 206.8963999999978,
      "v": 100
    },
    {
      "midi": 54,
      "hit": false,
      "t": 183491.24474999914,
      "d": 103.44820000001346,
      "v": 100
    },
    {
      "midi": 57,
      "hit": false,
      "t": 183620.55499999877,
      "d": 206.8963999999978,
      "v": 100
    },
    {
      "midi": 61,
      "hit": false,
      "t": 183620.55499999877,
      "d": 206.8963999999978,
      "v": 100
    },
    {
      "midi": 64,
      "hit": false,
      "t": 183620.55499999877,
      "d": 206.8963999999978,
      "v": 100
    },
    {
      "midi": 54,
      "hit": false,
      "t": 183620.55499999915,
      "d": 103.44820000001346,
      "v": 100
    },
    {
      "midi": 57,
      "hit": false,
      "t": 183620.55499999935,
      "d": 206.8963999999978,
      "v": 100
    },
    {
      "midi": 54,
      "hit": false,
      "t": 183749.86524999916,
      "d": 103.44820000001346,
      "v": 100
    },
    {
      "midi": 57,
      "hit": false,
      "t": 183879.17549999876,
      "d": 206.8963999999978,
      "v": 100
    },
    {
      "midi": 61,
      "hit": false,
      "t": 183879.17549999876,
      "d": 206.8963999999978,
      "v": 100
    },
    {
      "midi": 64,
      "hit": false,
      "t": 183879.17549999876,
      "d": 206.8963999999978,
      "v": 100
    },
    {
      "midi": 54,
      "hit": false,
      "t": 183879.17549999917,
      "d": 103.44820000001346,
      "v": 100
    },
    {
      "midi": 57,
      "hit": false,
      "t": 183879.17549999934,
      "d": 206.8963999999978,
      "v": 100
    },
    {
      "midi": 54,
      "hit": false,
      "t": 184008.48574999918,
      "d": 103.44820000001346,
      "v": 100
    },
    {
      "midi": 57,
      "hit": false,
      "t": 184137.79599999875,
      "d": 206.8963999999978,
      "v": 100
    },
    {
      "midi": 61,
      "hit": false,
      "t": 184137.79599999875,
      "d": 206.8963999999978,
      "v": 100
    },
    {
      "midi": 64,
      "hit": false,
      "t": 184137.79599999875,
      "d": 206.8963999999978,
      "v": 100
    },
    {
      "midi": 54,
      "hit": false,
      "t": 184137.7959999992,
      "d": 103.44820000001346,
      "v": 100
    },
    {
      "midi": 57,
      "hit": false,
      "t": 184137.79599999933,
      "d": 206.8963999999978,
      "v": 100
    },
    {
      "midi": 54,
      "hit": false,
      "t": 184267.1062499992,
      "d": 103.44820000001346,
      "v": 100
    },
    {
      "midi": 60,
      "hit": false,
      "t": 184396.41649999874,
      "d": 206.8963999999978,
      "v": 100
    },
    {
      "midi": 64,
      "hit": false,
      "t": 184396.41649999874,
      "d": 206.8963999999978,
      "v": 100
    },
    {
      "midi": 67,
      "hit": false,
      "t": 184396.41649999874,
      "d": 206.8963999999978,
      "v": 100
    },
    {
      "midi": 40,
      "hit": false,
      "t": 184396.4164999992,
      "d": 103.44820000001346,
      "v": 100
    },
    {
      "midi": 60,
      "hit": false,
      "t": 184396.41649999932,
      "d": 206.8963999999978,
      "v": 100
    },
    {
      "midi": 40,
      "hit": false,
      "t": 184525.72674999922,
      "d": 103.44820000001346,
      "v": 100
    },
    {
      "midi": 60,
      "hit": false,
      "t": 184655.03699999873,
      "d": 206.8963999999978,
      "v": 100
    },
    {
      "midi": 64,
      "hit": false,
      "t": 184655.03699999873,
      "d": 206.8963999999978,
      "v": 100
    },
    {
      "midi": 67,
      "hit": false,
      "t": 184655.03699999873,
      "d": 206.8963999999978,
      "v": 100
    },
    {
      "midi": 40,
      "hit": false,
      "t": 184655.03699999923,
      "d": 103.44820000001346,
      "v": 100
    },
    {
      "midi": 60,
      "hit": false,
      "t": 184655.0369999993,
      "d": 206.8963999999978,
      "v": 100
    },
    {
      "midi": 40,
      "hit": false,
      "t": 184784.34724999923,
      "d": 103.44820000001346,
      "v": 100
    },
    {
      "midi": 60,
      "hit": false,
      "t": 184913.65749999872,
      "d": 206.8963999999978,
      "v": 100
    },
    {
      "midi": 64,
      "hit": false,
      "t": 184913.65749999872,
      "d": 206.8963999999978,
      "v": 100
    },
    {
      "midi": 67,
      "hit": false,
      "t": 184913.65749999872,
      "d": 206.8963999999978,
      "v": 100
    },
    {
      "midi": 40,
      "hit": false,
      "t": 184913.65749999924,
      "d": 103.44820000001346,
      "v": 100
    },
    {
      "midi": 60,
      "hit": false,
      "t": 184913.6574999993,
      "d": 206.8963999999978,
      "v": 100
    },
    {
      "midi": 40,
      "hit": false,
      "t": 185042.96774999925,
      "d": 103.44820000001346,
      "v": 100
    },
    {
      "midi": 60,
      "hit": false,
      "t": 185172.2779999987,
      "d": 206.8963999999978,
      "v": 100
    },
    {
      "midi": 64,
      "hit": false,
      "t": 185172.2779999987,
      "d": 206.8963999999978,
      "v": 100
    },
    {
      "midi": 67,
      "hit": false,
      "t": 185172.2779999987,
      "d": 206.8963999999978,
      "v": 100
    },
    {
      "midi": 40,
      "hit": false,
      "t": 185172.27799999926,
      "d": 103.44820000001346,
      "v": 100
    },
    {
      "midi": 60,
      "hit": false,
      "t": 185172.2779999993,
      "d": 206.8963999999978,
      "v": 100
    },
    {
      "midi": 40,
      "hit": false,
      "t": 185301.58824999927,
      "d": 103.44820000001346,
      "v": 100
    },
    {
      "midi": 60,
      "hit": false,
      "t": 185430.8984999987,
      "d": 206.8963999999978,
      "v": 100
    },
    {
      "midi": 64,
      "hit": false,
      "t": 185430.8984999987,
      "d": 206.8963999999978,
      "v": 100
    },
    {
      "midi": 67,
      "hit": false,
      "t": 185430.8984999987,
      "d": 206.8963999999978,
      "v": 100
    },
    {
      "midi": 49,
      "hit": false,
      "t": 185430.89849999928,
      "d": 103.44820000001346,
      "v": 100
    },
    {
      "midi": 40,
      "hit": false,
      "t": 185430.89849999928,
      "d": 103.44820000001346,
      "v": 100
    },
    {
      "midi": 60,
      "hit": false,
      "t": 185430.89849999928,
      "d": 206.8963999999978,
      "v": 100
    },
    {
      "midi": 49,
      "hit": false,
      "t": 185560.2087499993,
      "d": 103.44820000001346,
      "v": 100
    },
    {
      "midi": 40,
      "hit": false,
      "t": 185560.2087499993,
      "d": 103.44820000001346,
      "v": 100
    },
    {
      "midi": 60,
      "hit": false,
      "t": 185689.5189999987,
      "d": 206.8963999999978,
      "v": 100
    },
    {
      "midi": 64,
      "hit": false,
      "t": 185689.5189999987,
      "d": 206.8963999999978,
      "v": 100
    },
    {
      "midi": 67,
      "hit": false,
      "t": 185689.5189999987,
      "d": 206.8963999999978,
      "v": 100
    },
    {
      "midi": 60,
      "hit": false,
      "t": 185689.51899999927,
      "d": 206.8963999999978,
      "v": 100
    },
    {
      "midi": 49,
      "hit": false,
      "t": 185689.5189999993,
      "d": 103.44820000001346,
      "v": 100
    },
    {
      "midi": 40,
      "hit": false,
      "t": 185689.5189999993,
      "d": 103.44820000001346,
      "v": 100
    },
    {
      "midi": 72,
      "hit": false,
      "t": 185689.51900000006,
      "d": 206.8963999999978,
      "v": 100
    },
    {
      "midi": 49,
      "hit": false,
      "t": 185818.8292499993,
      "d": 103.44820000001346,
      "v": 100
    },
    {
      "midi": 40,
      "hit": false,
      "t": 185818.8292499993,
      "d": 103.44820000001346,
      "v": 100
    },
    {
      "midi": 60,
      "hit": false,
      "t": 185948.13949999868,
      "d": 206.8963999999978,
      "v": 100
    },
    {
      "midi": 64,
      "hit": false,
      "t": 185948.13949999868,
      "d": 206.8963999999978,
      "v": 100
    },
    {
      "midi": 67,
      "hit": false,
      "t": 185948.13949999868,
      "d": 206.8963999999978,
      "v": 100
    },
    {
      "midi": 60,
      "hit": false,
      "t": 185948.13949999926,
      "d": 206.8963999999978,
      "v": 100
    },
    {
      "midi": 49,
      "hit": false,
      "t": 185948.13949999932,
      "d": 103.44820000001346,
      "v": 100
    },
    {
      "midi": 40,
      "hit": false,
      "t": 185948.13949999932,
      "d": 103.44820000001346,
      "v": 100
    },
    {
      "midi": 77,
      "hit": false,
      "t": 185948.13950000005,
      "d": 206.8963999999978,
      "v": 100
    },
    {
      "midi": 49,
      "hit": false,
      "t": 186077.44974999933,
      "d": 103.44820000001346,
      "v": 100
    },
    {
      "midi": 40,
      "hit": false,
      "t": 186077.44974999933,
      "d": 103.44820000001346,
      "v": 100
    },
    {
      "midi": 60,
      "hit": false,
      "t": 186206.75999999867,
      "d": 206.8963999999978,
      "v": 100
    },
    {
      "midi": 64,
      "hit": false,
      "t": 186206.75999999867,
      "d": 206.8963999999978,
      "v": 100
    },
    {
      "midi": 67,
      "hit": false,
      "t": 186206.75999999867,
      "d": 206.8963999999978,
      "v": 100
    },
    {
      "midi": 60,
      "hit": false,
      "t": 186206.75999999925,
      "d": 206.8963999999978,
      "v": 100
    },
    {
      "midi": 49,
      "hit": false,
      "t": 186206.75999999934,
      "d": 103.44820000001346,
      "v": 100
    },
    {
      "midi": 40,
      "hit": false,
      "t": 186206.75999999934,
      "d": 103.44820000001346,
      "v": 100
    },
    {
      "midi": 76,
      "hit": false,
      "t": 186206.76000000004,
      "d": 103.44820000001346,
      "v": 100
    },
    {
      "midi": 49,
      "hit": false,
      "t": 186336.07024999935,
      "d": 103.44820000001346,
      "v": 100
    },
    {
      "midi": 40,
      "hit": false,
      "t": 186336.07024999935,
      "d": 103.44820000001346,
      "v": 100
    },
    {
      "midi": 77,
      "hit": false,
      "t": 186336.07025000005,
      "d": 956.8958500000008,
      "v": 100
    },
    {
      "midi": 53,
      "hit": false,
      "t": 186465.38049999866,
      "d": 206.8963999999978,
      "v": 100
    },
    {
      "midi": 57,
      "hit": false,
      "t": 186465.38049999866,
      "d": 206.8963999999978,
      "v": 100
    },
    {
      "midi": 60,
      "hit": false,
      "t": 186465.38049999866,
      "d": 206.8963999999978,
      "v": 100
    },
    {
      "midi": 49,
      "hit": false,
      "t": 186465.38049999936,
      "d": 206.8963999999978,
      "v": 100
    },
    {
      "midi": 54,
      "hit": false,
      "t": 186465.38049999936,
      "d": 206.8963999999978,
      "v": 100
    },
    {
      "midi": 53,
      "hit": false,
      "t": 186724.00099999865,
      "d": 206.8963999999978,
      "v": 100
    },
    {
      "midi": 57,
      "hit": false,
      "t": 186724.00099999865,
      "d": 206.8963999999978,
      "v": 100
    },
    {
      "midi": 60,
      "hit": false,
      "t": 186724.00099999865,
      "d": 206.8963999999978,
      "v": 100
    },
    {
      "midi": 54,
      "hit": false,
      "t": 186724.00099999935,
      "d": 206.8963999999978,
      "v": 100
    },
    {
      "midi": 53,
      "hit": false,
      "t": 186982.62149999864,
      "d": 206.8963999999978,
      "v": 100
    },
    {
      "midi": 57,
      "hit": false,
      "t": 186982.62149999864,
      "d": 206.8963999999978,
      "v": 100
    },
    {
      "midi": 60,
      "hit": false,
      "t": 186982.62149999864,
      "d": 206.8963999999978,
      "v": 100
    },
    {
      "midi": 40,
      "hit": false,
      "t": 186982.62149999934,
      "d": 206.8963999999978,
      "v": 100
    },
    {
      "midi": 53,
      "hit": false,
      "t": 187241.24199999863,
      "d": 206.8963999999978,
      "v": 100
    },
    {
      "midi": 57,
      "hit": false,
      "t": 187241.24199999863,
      "d": 206.8963999999978,
      "v": 100
    },
    {
      "midi": 60,
      "hit": false,
      "t": 187241.24199999863,
      "d": 206.8963999999978,
      "v": 100
    },
    {
      "midi": 54,
      "hit": false,
      "t": 187241.24199999933,
      "d": 206.8963999999978,
      "v": 100
    },
    {
      "midi": 60,
      "hit": false,
      "t": 187499.86249999862,
      "d": 206.8963999999978,
      "v": 100
    },
    {
      "midi": 64,
      "hit": false,
      "t": 187499.86249999862,
      "d": 206.8963999999978,
      "v": 100
    },
    {
      "midi": 67,
      "hit": false,
      "t": 187499.86249999862,
      "d": 206.8963999999978,
      "v": 100
    },
    {
      "midi": 54,
      "hit": false,
      "t": 187499.86249999932,
      "d": 206.8963999999978,
      "v": 100
    },
    {
      "midi": 60,
      "hit": false,
      "t": 187758.4829999986,
      "d": 206.8963999999978,
      "v": 100
    },
    {
      "midi": 64,
      "hit": false,
      "t": 187758.4829999986,
      "d": 206.8963999999978,
      "v": 100
    },
    {
      "midi": 67,
      "hit": false,
      "t": 187758.4829999986,
      "d": 206.8963999999978,
      "v": 100
    },
    {
      "midi": 54,
      "hit": false,
      "t": 187758.4829999993,
      "d": 206.8963999999978,
      "v": 100
    },
    {
      "midi": 72,
      "hit": false,
      "t": 187758.48300000004,
      "d": 206.8963999999978,
      "v": 100
    },
    {
      "midi": 60,
      "hit": false,
      "t": 188017.1034999986,
      "d": 206.8963999999978,
      "v": 100
    },
    {
      "midi": 64,
      "hit": false,
      "t": 188017.1034999986,
      "d": 206.8963999999978,
      "v": 100
    },
    {
      "midi": 67,
      "hit": false,
      "t": 188017.1034999986,
      "d": 206.8963999999978,
      "v": 100
    },
    {
      "midi": 40,
      "hit": false,
      "t": 188017.1034999993,
      "d": 206.8963999999978,
      "v": 100
    },
    {
      "midi": 79,
      "hit": false,
      "t": 188017.10350000003,
      "d": 206.8963999999978,
      "v": 100
    },
    {
      "midi": 60,
      "hit": false,
      "t": 188275.7239999986,
      "d": 206.8963999999978,
      "v": 100
    },
    {
      "midi": 64,
      "hit": false,
      "t": 188275.7239999986,
      "d": 206.8963999999978,
      "v": 100
    },
    {
      "midi": 67,
      "hit": false,
      "t": 188275.7239999986,
      "d": 206.8963999999978,
      "v": 100
    },
    {
      "midi": 54,
      "hit": false,
      "t": 188275.7239999993,
      "d": 206.8963999999978,
      "v": 100
    },
    {
      "midi": 76,
      "hit": false,
      "t": 188275.72400000002,
      "d": 103.44820000001346,
      "v": 100
    },
    {
      "midi": 77,
      "hit": false,
      "t": 188405.03425000003,
      "d": 956.8958500000008,
      "v": 100
    },
    {
      "midi": 50,
      "hit": false,
      "t": 188534.34449999858,
      "d": 206.8963999999978,
      "v": 100
    },
    {
      "midi": 53,
      "hit": false,
      "t": 188534.34449999858,
      "d": 206.8963999999978,
      "v": 100
    },
    {
      "midi": 57,
      "hit": false,
      "t": 188534.34449999858,
      "d": 206.8963999999978,
      "v": 100
    },
    {
      "midi": 49,
      "hit": false,
      "t": 188534.34449999928,
      "d": 206.8963999999978,
      "v": 100
    },
    {
      "midi": 54,
      "hit": false,
      "t": 188534.34449999928,
      "d": 206.8963999999978,
      "v": 100
    },
    {
      "midi": 50,
      "hit": false,
      "t": 188792.96499999857,
      "d": 206.8963999999978,
      "v": 100
    },
    {
      "midi": 53,
      "hit": false,
      "t": 188792.96499999857,
      "d": 206.8963999999978,
      "v": 100
    },
    {
      "midi": 57,
      "hit": false,
      "t": 188792.96499999857,
      "d": 206.8963999999978,
      "v": 100
    },
    {
      "midi": 54,
      "hit": false,
      "t": 188792.96499999927,
      "d": 206.8963999999978,
      "v": 100
    },
    {
      "midi": 50,
      "hit": false,
      "t": 189051.58549999856,
      "d": 206.8963999999978,
      "v": 100
    },
    {
      "midi": 53,
      "hit": false,
      "t": 189051.58549999856,
      "d": 206.8963999999978,
      "v": 100
    },
    {
      "midi": 57,
      "hit": false,
      "t": 189051.58549999856,
      "d": 206.8963999999978,
      "v": 100
    },
    {
      "midi": 40,
      "hit": false,
      "t": 189051.58549999926,
      "d": 206.8963999999978,
      "v": 100
    },
    {
      "midi": 50,
      "hit": false,
      "t": 189310.20599999855,
      "d": 206.8963999999978,
      "v": 100
    },
    {
      "midi": 53,
      "hit": false,
      "t": 189310.20599999855,
      "d": 206.8963999999978,
      "v": 100
    },
    {
      "midi": 57,
      "hit": false,
      "t": 189310.20599999855,
      "d": 206.8963999999978,
      "v": 100
    },
    {
      "midi": 54,
      "hit": false,
      "t": 189310.20599999925,
      "d": 206.8963999999978,
      "v": 100
    },
    {
      "midi": 60,
      "hit": false,
      "t": 189568.82649999854,
      "d": 206.8963999999978,
      "v": 100
    },
    {
      "midi": 64,
      "hit": false,
      "t": 189568.82649999854,
      "d": 206.8963999999978,
      "v": 100
    },
    {
      "midi": 67,
      "hit": false,
      "t": 189568.82649999854,
      "d": 206.8963999999978,
      "v": 100
    },
    {
      "midi": 54,
      "hit": false,
      "t": 189568.82649999924,
      "d": 206.8963999999978,
      "v": 100
    },
    {
      "midi": 60,
      "hit": false,
      "t": 189827.44699999853,
      "d": 206.8963999999978,
      "v": 100
    },
    {
      "midi": 64,
      "hit": false,
      "t": 189827.44699999853,
      "d": 206.8963999999978,
      "v": 100
    },
    {
      "midi": 67,
      "hit": false,
      "t": 189827.44699999853,
      "d": 206.8963999999978,
      "v": 100
    },
    {
      "midi": 54,
      "hit": false,
      "t": 189827.44699999923,
      "d": 206.8963999999978,
      "v": 100
    },
    {
      "midi": 77,
      "hit": false,
      "t": 189827.44700000001,
      "d": 206.8963999999978,
      "v": 100
    },
    {
      "midi": 60,
      "hit": false,
      "t": 190086.06749999852,
      "d": 206.8963999999978,
      "v": 100
    },
    {
      "midi": 64,
      "hit": false,
      "t": 190086.06749999852,
      "d": 206.8963999999978,
      "v": 100
    },
    {
      "midi": 67,
      "hit": false,
      "t": 190086.06749999852,
      "d": 206.8963999999978,
      "v": 100
    },
    {
      "midi": 40,
      "hit": false,
      "t": 190086.06749999922,
      "d": 206.8963999999978,
      "v": 100
    },
    {
      "midi": 76,
      "hit": false,
      "t": 190086.0675,
      "d": 206.8963999999978,
      "v": 100
    },
    {
      "midi": 60,
      "hit": false,
      "t": 190344.6879999985,
      "d": 206.8963999999978,
      "v": 100
    },
    {
      "midi": 64,
      "hit": false,
      "t": 190344.6879999985,
      "d": 206.8963999999978,
      "v": 100
    },
    {
      "midi": 67,
      "hit": false,
      "t": 190344.6879999985,
      "d": 206.8963999999978,
      "v": 100
    },
    {
      "midi": 54,
      "hit": false,
      "t": 190344.6879999992,
      "d": 206.8963999999978,
      "v": 100
    },
    {
      "midi": 72,
      "hit": false,
      "t": 190344.688,
      "d": 103.44820000001346,
      "v": 100
    },
    {
      "midi": 74,
      "hit": false,
      "t": 190473.99825,
      "d": 749.999450000003,
      "v": 100
    },
    {
      "midi": 58,
      "hit": false,
      "t": 190603.3084999985,
      "d": 206.8963999999978,
      "v": 100
    },
    {
      "midi": 62,
      "hit": false,
      "t": 190603.3084999985,
      "d": 206.8963999999978,
      "v": 100
    },
    {
      "midi": 65,
      "hit": false,
      "t": 190603.3084999985,
      "d": 206.8963999999978,
      "v": 100
    },
    {
      "midi": 49,
      "hit": false,
      "t": 190603.3084999992,
      "d": 206.8963999999978,
      "v": 100
    },
    {
      "midi": 54,
      "hit": false,
      "t": 190603.3084999992,
      "d": 206.8963999999978,
      "v": 100
    },
    {
      "midi": 58,
      "hit": false,
      "t": 190861.9289999985,
      "d": 206.8963999999978,
      "v": 100
    },
    {
      "midi": 62,
      "hit": false,
      "t": 190861.9289999985,
      "d": 206.8963999999978,
      "v": 100
    },
    {
      "midi": 65,
      "hit": false,
      "t": 190861.9289999985,
      "d": 206.8963999999978,
      "v": 100
    },
    {
      "midi": 54,
      "hit": false,
      "t": 190861.9289999992,
      "d": 206.8963999999978,
      "v": 100
    },
    {
      "midi": 58,
      "hit": false,
      "t": 191120.54949999848,
      "d": 206.8963999999978,
      "v": 100
    },
    {
      "midi": 62,
      "hit": false,
      "t": 191120.54949999848,
      "d": 206.8963999999978,
      "v": 100
    },
    {
      "midi": 65,
      "hit": false,
      "t": 191120.54949999848,
      "d": 206.8963999999978,
      "v": 100
    },
    {
      "midi": 40,
      "hit": false,
      "t": 191120.54949999918,
      "d": 206.8963999999978,
      "v": 100
    },
    {
      "midi": 58,
      "hit": false,
      "t": 191379.16999999847,
      "d": 206.8963999999978,
      "v": 100
    },
    {
      "midi": 62,
      "hit": false,
      "t": 191379.16999999847,
      "d": 206.8963999999978,
      "v": 100
    },
    {
      "midi": 65,
      "hit": false,
      "t": 191379.16999999847,
      "d": 206.8963999999978,
      "v": 100
    },
    {
      "midi": 54,
      "hit": false,
      "t": 191379.16999999917,
      "d": 206.8963999999978,
      "v": 100
    },
    {
      "midi": 74,
      "hit": false,
      "t": 191379.17,
      "d": 206.8963999999978,
      "v": 100
    },
    {
      "midi": 60,
      "hit": false,
      "t": 191637.79049999846,
      "d": 206.8963999999978,
      "v": 100
    },
    {
      "midi": 64,
      "hit": false,
      "t": 191637.79049999846,
      "d": 206.8963999999978,
      "v": 100
    },
    {
      "midi": 67,
      "hit": false,
      "t": 191637.79049999846,
      "d": 206.8963999999978,
      "v": 100
    },
    {
      "midi": 54,
      "hit": false,
      "t": 191637.79049999916,
      "d": 206.8963999999978,
      "v": 100
    },
    {
      "midi": 72,
      "hit": false,
      "t": 191637.7905,
      "d": 310.34460000001127,
      "v": 100
    },
    {
      "midi": 60,
      "hit": false,
      "t": 191896.41099999845,
      "d": 206.8963999999978,
      "v": 100
    },
    {
      "midi": 64,
      "hit": false,
      "t": 191896.41099999845,
      "d": 206.8963999999978,
      "v": 100
    },
    {
      "midi": 67,
      "hit": false,
      "t": 191896.41099999845,
      "d": 206.8963999999978,
      "v": 100
    },
    {
      "midi": 54,
      "hit": false,
      "t": 191896.41099999915,
      "d": 206.8963999999978,
      "v": 100
    },
    {
      "midi": 67,
      "hit": false,
      "t": 192025.72125,
      "d": 336.20665000000736,
      "v": 100
    },
    {
      "midi": 60,
      "hit": false,
      "t": 192155.03149999844,
      "d": 206.8963999999978,
      "v": 100
    },
    {
      "midi": 64,
      "hit": false,
      "t": 192155.03149999844,
      "d": 206.8963999999978,
      "v": 100
    },
    {
      "midi": 67,
      "hit": false,
      "t": 192155.03149999844,
      "d": 206.8963999999978,
      "v": 100
    },
    {
      "midi": 40,
      "hit": false,
      "t": 192155.03149999914,
      "d": 206.8963999999978,
      "v": 100
    },
    {
      "midi": 60,
      "hit": false,
      "t": 192413.65199999843,
      "d": 206.8963999999978,
      "v": 100
    },
    {
      "midi": 64,
      "hit": false,
      "t": 192413.65199999843,
      "d": 206.8963999999978,
      "v": 100
    },
    {
      "midi": 67,
      "hit": false,
      "t": 192413.65199999843,
      "d": 206.8963999999978,
      "v": 100
    },
    {
      "midi": 54,
      "hit": false,
      "t": 192413.65199999913,
      "d": 206.8963999999978,
      "v": 100
    },
    {
      "midi": 70,
      "hit": false,
      "t": 192413.652,
      "d": 206.8963999999978,
      "v": 100
    },
    {
      "midi": 53,
      "hit": false,
      "t": 192672.27249999842,
      "d": 206.8963999999978,
      "v": 100
    },
    {
      "midi": 57,
      "hit": false,
      "t": 192672.27249999842,
      "d": 206.8963999999978,
      "v": 100
    },
    {
      "midi": 60,
      "hit": false,
      "t": 192672.27249999842,
      "d": 206.8963999999978,
      "v": 100
    },
    {
      "midi": 49,
      "hit": false,
      "t": 192672.27249999912,
      "d": 206.8963999999978,
      "v": 100
    },
    {
      "midi": 54,
      "hit": false,
      "t": 192672.27249999912,
      "d": 206.8963999999978,
      "v": 100
    },
    {
      "midi": 70,
      "hit": false,
      "t": 192672.2725,
      "d": 413.7927999999956,
      "v": 100
    },
    {
      "midi": 53,
      "hit": false,
      "t": 192930.8929999984,
      "d": 206.8963999999978,
      "v": 100
    },
    {
      "midi": 57,
      "hit": false,
      "t": 192930.8929999984,
      "d": 206.8963999999978,
      "v": 100
    },
    {
      "midi": 60,
      "hit": false,
      "t": 192930.8929999984,
      "d": 206.8963999999978,
      "v": 100
    },
    {
      "midi": 54,
      "hit": false,
      "t": 192930.8929999991,
      "d": 206.8963999999978,
      "v": 100
    },
    {
      "midi": 53,
      "hit": false,
      "t": 193189.5134999984,
      "d": 206.8963999999978,
      "v": 100
    },
    {
      "midi": 57,
      "hit": false,
      "t": 193189.5134999984,
      "d": 206.8963999999978,
      "v": 100
    },
    {
      "midi": 60,
      "hit": false,
      "t": 193189.5134999984,
      "d": 206.8963999999978,
      "v": 100
    },
    {
      "midi": 40,
      "hit": false,
      "t": 193189.5134999991,
      "d": 206.8963999999978,
      "v": 100
    },
    {
      "midi": 70,
      "hit": false,
      "t": 193189.5135,
      "d": 206.8963999999978,
      "v": 100
    },
    {
      "midi": 53,
      "hit": false,
      "t": 193448.1339999984,
      "d": 206.8963999999978,
      "v": 100
    },
    {
      "midi": 57,
      "hit": false,
      "t": 193448.1339999984,
      "d": 206.8963999999978,
      "v": 100
    },
    {
      "midi": 60,
      "hit": false,
      "t": 193448.1339999984,
      "d": 206.8963999999978,
      "v": 100
    },
    {
      "midi": 54,
      "hit": false,
      "t": 193448.1339999991,
      "d": 206.8963999999978,
      "v": 100
    },
    {
      "midi": 72,
      "hit": false,
      "t": 193448.134,
      "d": 103.44820000001346,
      "v": 100
    },
    {
      "midi": 69,
      "hit": false,
      "t": 193577.44425,
      "d": 543.1030500000052,
      "v": 100
    },
    {
      "midi": 60,
      "hit": false,
      "t": 193706.75449999838,
      "d": 206.8963999999978,
      "v": 100
    },
    {
      "midi": 64,
      "hit": false,
      "t": 193706.75449999838,
      "d": 206.8963999999978,
      "v": 100
    },
    {
      "midi": 67,
      "hit": false,
      "t": 193706.75449999838,
      "d": 206.8963999999978,
      "v": 100
    },
    {
      "midi": 54,
      "hit": false,
      "t": 193706.75449999908,
      "d": 206.8963999999978,
      "v": 100
    },
    {
      "midi": 60,
      "hit": false,
      "t": 193965.37499999837,
      "d": 206.8963999999978,
      "v": 100
    },
    {
      "midi": 64,
      "hit": false,
      "t": 193965.37499999837,
      "d": 206.8963999999978,
      "v": 100
    },
    {
      "midi": 67,
      "hit": false,
      "t": 193965.37499999837,
      "d": 206.8963999999978,
      "v": 100
    },
    {
      "midi": 54,
      "hit": false,
      "t": 193965.37499999907,
      "d": 206.8963999999978,
      "v": 100
    },
    {
      "midi": 60,
      "hit": false,
      "t": 194223.99549999836,
      "d": 206.8963999999978,
      "v": 100
    },
    {
      "midi": 64,
      "hit": false,
      "t": 194223.99549999836,
      "d": 206.8963999999978,
      "v": 100
    },
    {
      "midi": 67,
      "hit": false,
      "t": 194223.99549999836,
      "d": 206.8963999999978,
      "v": 100
    },
    {
      "midi": 40,
      "hit": false,
      "t": 194223.99549999906,
      "d": 206.8963999999978,
      "v": 100
    },
    {
      "midi": 67,
      "hit": false,
      "t": 194223.99550000002,
      "d": 206.8963999999978,
      "v": 100
    },
    {
      "midi": 60,
      "hit": false,
      "t": 194482.61599999835,
      "d": 206.8963999999978,
      "v": 100
    },
    {
      "midi": 64,
      "hit": false,
      "t": 194482.61599999835,
      "d": 206.8963999999978,
      "v": 100
    },
    {
      "midi": 67,
      "hit": false,
      "t": 194482.61599999835,
      "d": 206.8963999999978,
      "v": 100
    },
    {
      "midi": 54,
      "hit": false,
      "t": 194482.61599999905,
      "d": 206.8963999999978,
      "v": 100
    },
    {
      "midi": 69,
      "hit": false,
      "t": 194482.616,
      "d": 103.44820000001346,
      "v": 100
    },
    {
      "midi": 65,
      "hit": false,
      "t": 194611.92625000002,
      "d": 749.999450000003,
      "v": 100
    },
    {
      "midi": 50,
      "hit": false,
      "t": 194741.23649999834,
      "d": 206.8963999999978,
      "v": 100
    },
    {
      "midi": 53,
      "hit": false,
      "t": 194741.23649999834,
      "d": 206.8963999999978,
      "v": 100
    },
    {
      "midi": 57,
      "hit": false,
      "t": 194741.23649999834,
      "d": 206.8963999999978,
      "v": 100
    },
    {
      "midi": 49,
      "hit": false,
      "t": 194741.23649999904,
      "d": 206.8963999999978,
      "v": 100
    },
    {
      "midi": 54,
      "hit": false,
      "t": 194741.23649999904,
      "d": 206.8963999999978,
      "v": 100
    },
    {
      "midi": 50,
      "hit": false,
      "t": 194999.85699999833,
      "d": 206.8963999999978,
      "v": 100
    },
    {
      "midi": 53,
      "hit": false,
      "t": 194999.85699999833,
      "d": 206.8963999999978,
      "v": 100
    },
    {
      "midi": 57,
      "hit": false,
      "t": 194999.85699999833,
      "d": 206.8963999999978,
      "v": 100
    },
    {
      "midi": 54,
      "hit": false,
      "t": 194999.85699999903,
      "d": 206.8963999999978,
      "v": 100
    },
    {
      "midi": 50,
      "hit": false,
      "t": 195258.47749999832,
      "d": 206.8963999999978,
      "v": 100
    },
    {
      "midi": 53,
      "hit": false,
      "t": 195258.47749999832,
      "d": 206.8963999999978,
      "v": 100
    },
    {
      "midi": 57,
      "hit": false,
      "t": 195258.47749999832,
      "d": 206.8963999999978,
      "v": 100
    },
    {
      "midi": 40,
      "hit": false,
      "t": 195258.47749999902,
      "d": 206.8963999999978,
      "v": 100
    },
    {
      "midi": 50,
      "hit": false,
      "t": 195517.0979999983,
      "d": 206.8963999999978,
      "v": 100
    },
    {
      "midi": 53,
      "hit": false,
      "t": 195517.0979999983,
      "d": 206.8963999999978,
      "v": 100
    },
    {
      "midi": 57,
      "hit": false,
      "t": 195517.0979999983,
      "d": 206.8963999999978,
      "v": 100
    },
    {
      "midi": 54,
      "hit": false,
      "t": 195517.097999999,
      "d": 206.8963999999978,
      "v": 100
    },
    {
      "midi": 65,
      "hit": false,
      "t": 195517.09800000003,
      "d": 206.8963999999978,
      "v": 100
    },
    {
      "midi": 50,
      "hit": false,
      "t": 195775.7184999983,
      "d": 206.8963999999978,
      "v": 100
    },
    {
      "midi": 53,
      "hit": false,
      "t": 195775.7184999983,
      "d": 206.8963999999978,
      "v": 100
    },
    {
      "midi": 57,
      "hit": false,
      "t": 195775.7184999983,
      "d": 206.8963999999978,
      "v": 100
    },
    {
      "midi": 61,
      "hit": false,
      "t": 195775.7184999983,
      "d": 206.8963999999978,
      "v": 100
    },
    {
      "midi": 54,
      "hit": false,
      "t": 195775.718499999,
      "d": 206.8963999999978,
      "v": 100
    },
    {
      "midi": 67,
      "hit": false,
      "t": 195775.71850000002,
      "d": 310.34460000001127,
      "v": 100
    },
    {
      "midi": 50,
      "hit": false,
      "t": 196034.3389999983,
      "d": 206.8963999999978,
      "v": 100
    },
    {
      "midi": 53,
      "hit": false,
      "t": 196034.3389999983,
      "d": 206.8963999999978,
      "v": 100
    },
    {
      "midi": 57,
      "hit": false,
      "t": 196034.3389999983,
      "d": 206.8963999999978,
      "v": 100
    },
    {
      "midi": 61,
      "hit": false,
      "t": 196034.3389999983,
      "d": 206.8963999999978,
      "v": 100
    },
    {
      "midi": 54,
      "hit": false,
      "t": 196034.338999999,
      "d": 206.8963999999978,
      "v": 100
    },
    {
      "midi": 65,
      "hit": false,
      "t": 196163.64925000002,
      "d": 336.20665000000736,
      "v": 100
    },
    {
      "midi": 50,
      "hit": false,
      "t": 196292.95949999828,
      "d": 206.8963999999978,
      "v": 100
    },
    {
      "midi": 53,
      "hit": false,
      "t": 196292.95949999828,
      "d": 206.8963999999978,
      "v": 100
    },
    {
      "midi": 57,
      "hit": false,
      "t": 196292.95949999828,
      "d": 206.8963999999978,
      "v": 100
    },
    {
      "midi": 61,
      "hit": false,
      "t": 196292.95949999828,
      "d": 206.8963999999978,
      "v": 100
    },
    {
      "midi": 40,
      "hit": false,
      "t": 196292.95949999898,
      "d": 206.8963999999978,
      "v": 100
    },
    {
      "midi": 50,
      "hit": false,
      "t": 196551.57999999827,
      "d": 206.8963999999978,
      "v": 100
    },
    {
      "midi": 53,
      "hit": false,
      "t": 196551.57999999827,
      "d": 206.8963999999978,
      "v": 100
    },
    {
      "midi": 57,
      "hit": false,
      "t": 196551.57999999827,
      "d": 206.8963999999978,
      "v": 100
    },
    {
      "midi": 61,
      "hit": false,
      "t": 196551.57999999827,
      "d": 206.8963999999978,
      "v": 100
    },
    {
      "midi": 54,
      "hit": false,
      "t": 196551.57999999897,
      "d": 206.8963999999978,
      "v": 100
    },
    {
      "midi": 67,
      "hit": false,
      "t": 196551.58000000002,
      "d": 206.8963999999978,
      "v": 100
    },
    {
      "midi": 50,
      "hit": false,
      "t": 196810.20049999826,
      "d": 206.8963999999978,
      "v": 100
    },
    {
      "midi": 53,
      "hit": false,
      "t": 196810.20049999826,
      "d": 206.8963999999978,
      "v": 100
    },
    {
      "midi": 57,
      "hit": false,
      "t": 196810.20049999826,
      "d": 206.8963999999978,
      "v": 100
    },
    {
      "midi": 60,
      "hit": false,
      "t": 196810.20049999826,
      "d": 206.8963999999978,
      "v": 100
    },
    {
      "midi": 49,
      "hit": false,
      "t": 196810.20049999896,
      "d": 206.8963999999978,
      "v": 100
    },
    {
      "midi": 54,
      "hit": false,
      "t": 196810.20049999896,
      "d": 206.8963999999978,
      "v": 100
    },
    {
      "midi": 69,
      "hit": false,
      "t": 196810.2005,
      "d": 310.34460000001127,
      "v": 100
    },
    {
      "midi": 50,
      "hit": false,
      "t": 197068.82099999825,
      "d": 206.8963999999978,
      "v": 100
    },
    {
      "midi": 53,
      "hit": false,
      "t": 197068.82099999825,
      "d": 206.8963999999978,
      "v": 100
    },
    {
      "midi": 57,
      "hit": false,
      "t": 197068.82099999825,
      "d": 206.8963999999978,
      "v": 100
    },
    {
      "midi": 60,
      "hit": false,
      "t": 197068.82099999825,
      "d": 206.8963999999978,
      "v": 100
    },
    {
      "midi": 54,
      "hit": false,
      "t": 197068.82099999895,
      "d": 206.8963999999978,
      "v": 100
    },
    {
      "midi": 70,
      "hit": false,
      "t": 197198.13125,
      "d": 336.20665000000736,
      "v": 100
    },
    {
      "midi": 50,
      "hit": false,
      "t": 197327.44149999824,
      "d": 206.8963999999978,
      "v": 100
    },
    {
      "midi": 53,
      "hit": false,
      "t": 197327.44149999824,
      "d": 206.8963999999978,
      "v": 100
    },
    {
      "midi": 57,
      "hit": false,
      "t": 197327.44149999824,
      "d": 206.8963999999978,
      "v": 100
    },
    {
      "midi": 60,
      "hit": false,
      "t": 197327.44149999824,
      "d": 206.8963999999978,
      "v": 100
    },
    {
      "midi": 40,
      "hit": false,
      "t": 197327.44149999894,
      "d": 206.8963999999978,
      "v": 100
    },
    {
      "midi": 50,
      "hit": false,
      "t": 197586.06199999823,
      "d": 206.8963999999978,
      "v": 100
    },
    {
      "midi": 53,
      "hit": false,
      "t": 197586.06199999823,
      "d": 206.8963999999978,
      "v": 100
    },
    {
      "midi": 57,
      "hit": false,
      "t": 197586.06199999823,
      "d": 206.8963999999978,
      "v": 100
    },
    {
      "midi": 60,
      "hit": false,
      "t": 197586.06199999823,
      "d": 206.8963999999978,
      "v": 100
    },
    {
      "midi": 54,
      "hit": false,
      "t": 197586.06199999893,
      "d": 206.8963999999978,
      "v": 100
    },
    {
      "midi": 72,
      "hit": false,
      "t": 197586.062,
      "d": 103.44820000001346,
      "v": 100
    },
    {
      "midi": 74,
      "hit": false,
      "t": 197715.37225000001,
      "d": 336.20665000000736,
      "v": 100
    },
    {
      "midi": 50,
      "hit": false,
      "t": 197844.68249999822,
      "d": 206.8963999999978,
      "v": 100
    },
    {
      "midi": 53,
      "hit": false,
      "t": 197844.68249999822,
      "d": 206.8963999999978,
      "v": 100
    },
    {
      "midi": 57,
      "hit": false,
      "t": 197844.68249999822,
      "d": 206.8963999999978,
      "v": 100
    },
    {
      "midi": 59,
      "hit": false,
      "t": 197844.68249999822,
      "d": 206.8963999999978,
      "v": 100
    },
    {
      "midi": 54,
      "hit": false,
      "t": 197844.68249999892,
      "d": 206.8963999999978,
      "v": 100
    },
    {
      "midi": 50,
      "hit": false,
      "t": 198103.3029999982,
      "d": 206.8963999999978,
      "v": 100
    },
    {
      "midi": 53,
      "hit": false,
      "t": 198103.3029999982,
      "d": 206.8963999999978,
      "v": 100
    },
    {
      "midi": 57,
      "hit": false,
      "t": 198103.3029999982,
      "d": 206.8963999999978,
      "v": 100
    },
    {
      "midi": 59,
      "hit": false,
      "t": 198103.3029999982,
      "d": 206.8963999999978,
      "v": 100
    },
    {
      "midi": 54,
      "hit": false,
      "t": 198103.3029999989,
      "d": 206.8963999999978,
      "v": 100
    },
    {
      "midi": 69,
      "hit": false,
      "t": 198103.303,
      "d": 206.8963999999978,
      "v": 100
    },
    {
      "midi": 50,
      "hit": false,
      "t": 198361.9234999982,
      "d": 206.8963999999978,
      "v": 100
    },
    {
      "midi": 53,
      "hit": false,
      "t": 198361.9234999982,
      "d": 206.8963999999978,
      "v": 100
    },
    {
      "midi": 57,
      "hit": false,
      "t": 198361.9234999982,
      "d": 206.8963999999978,
      "v": 100
    },
    {
      "midi": 59,
      "hit": false,
      "t": 198361.9234999982,
      "d": 206.8963999999978,
      "v": 100
    },
    {
      "midi": 40,
      "hit": false,
      "t": 198361.9234999989,
      "d": 206.8963999999978,
      "v": 100
    },
    {
      "midi": 67,
      "hit": false,
      "t": 198361.9235,
      "d": 206.8963999999978,
      "v": 100
    },
    {
      "midi": 50,
      "hit": false,
      "t": 198620.5439999982,
      "d": 206.8963999999978,
      "v": 100
    },
    {
      "midi": 53,
      "hit": false,
      "t": 198620.5439999982,
      "d": 206.8963999999978,
      "v": 100
    },
    {
      "midi": 57,
      "hit": false,
      "t": 198620.5439999982,
      "d": 206.8963999999978,
      "v": 100
    },
    {
      "midi": 59,
      "hit": false,
      "t": 198620.5439999982,
      "d": 206.8963999999978,
      "v": 100
    },
    {
      "midi": 54,
      "hit": false,
      "t": 198620.5439999989,
      "d": 206.8963999999978,
      "v": 100
    },
    {
      "midi": 65,
      "hit": false,
      "t": 198620.544,
      "d": 103.44820000001346,
      "v": 100
    },
    {
      "midi": 67,
      "hit": false,
      "t": 198749.85425,
      "d": 1784.481449999992,
      "v": 100
    },
    {
      "midi": 60,
      "hit": false,
      "t": 198879.16449999818,
      "d": 206.8963999999978,
      "v": 100
    },
    {
      "midi": 65,
      "hit": false,
      "t": 198879.16449999818,
      "d": 206.8963999999978,
      "v": 100
    },
    {
      "midi": 67,
      "hit": false,
      "t": 198879.16449999818,
      "d": 206.8963999999978,
      "v": 100
    },
    {
      "midi": 49,
      "hit": false,
      "t": 198879.16449999888,
      "d": 206.8963999999978,
      "v": 100
    },
    {
      "midi": 54,
      "hit": false,
      "t": 198879.16449999888,
      "d": 206.8963999999978,
      "v": 100
    },
    {
      "midi": 60,
      "hit": false,
      "t": 199137.78499999817,
      "d": 206.8963999999978,
      "v": 100
    },
    {
      "midi": 65,
      "hit": false,
      "t": 199137.78499999817,
      "d": 206.8963999999978,
      "v": 100
    },
    {
      "midi": 67,
      "hit": false,
      "t": 199137.78499999817,
      "d": 206.8963999999978,
      "v": 100
    },
    {
      "midi": 54,
      "hit": false,
      "t": 199137.78499999887,
      "d": 206.8963999999978,
      "v": 100
    },
    {
      "midi": 60,
      "hit": false,
      "t": 199396.40549999816,
      "d": 206.8963999999978,
      "v": 100
    },
    {
      "midi": 65,
      "hit": false,
      "t": 199396.40549999816,
      "d": 206.8963999999978,
      "v": 100
    },
    {
      "midi": 67,
      "hit": false,
      "t": 199396.40549999816,
      "d": 206.8963999999978,
      "v": 100
    },
    {
      "midi": 40,
      "hit": false,
      "t": 199396.40549999886,
      "d": 206.8963999999978,
      "v": 100
    },
    {
      "midi": 60,
      "hit": false,
      "t": 199655.02599999815,
      "d": 206.8963999999978,
      "v": 100
    },
    {
      "midi": 65,
      "hit": false,
      "t": 199655.02599999815,
      "d": 206.8963999999978,
      "v": 100
    },
    {
      "midi": 67,
      "hit": false,
      "t": 199655.02599999815,
      "d": 206.8963999999978,
      "v": 100
    },
    {
      "midi": 54,
      "hit": false,
      "t": 199655.02599999885,
      "d": 206.8963999999978,
      "v": 100
    },
    {
      "midi": 60,
      "hit": false,
      "t": 199913.64649999814,
      "d": 206.8963999999978,
      "v": 100
    },
    {
      "midi": 65,
      "hit": false,
      "t": 199913.64649999814,
      "d": 206.8963999999978,
      "v": 100
    },
    {
      "midi": 67,
      "hit": false,
      "t": 199913.64649999814,
      "d": 206.8963999999978,
      "v": 100
    },
    {
      "midi": 54,
      "hit": false,
      "t": 199913.64649999884,
      "d": 206.8963999999978,
      "v": 100
    },
    {
      "midi": 60,
      "hit": false,
      "t": 200172.26699999813,
      "d": 206.8963999999978,
      "v": 100
    },
    {
      "midi": 65,
      "hit": false,
      "t": 200172.26699999813,
      "d": 206.8963999999978,
      "v": 100
    },
    {
      "midi": 67,
      "hit": false,
      "t": 200172.26699999813,
      "d": 206.8963999999978,
      "v": 100
    },
    {
      "midi": 54,
      "hit": false,
      "t": 200172.26699999883,
      "d": 206.8963999999978,
      "v": 100
    },
    {
      "midi": 60,
      "hit": false,
      "t": 200430.88749999812,
      "d": 206.8963999999978,
      "v": 100
    },
    {
      "midi": 65,
      "hit": false,
      "t": 200430.88749999812,
      "d": 206.8963999999978,
      "v": 100
    },
    {
      "midi": 67,
      "hit": false,
      "t": 200430.88749999812,
      "d": 206.8963999999978,
      "v": 100
    },
    {
      "midi": 40,
      "hit": false,
      "t": 200430.88749999882,
      "d": 206.8963999999978,
      "v": 100
    },
    {
      "midi": 60,
      "hit": false,
      "t": 200689.5079999981,
      "d": 206.8963999999978,
      "v": 100
    },
    {
      "midi": 65,
      "hit": false,
      "t": 200689.5079999981,
      "d": 206.8963999999978,
      "v": 100
    },
    {
      "midi": 67,
      "hit": false,
      "t": 200689.5079999981,
      "d": 206.8963999999978,
      "v": 100
    },
    {
      "midi": 54,
      "hit": false,
      "t": 200689.5079999988,
      "d": 206.8963999999978,
      "v": 100
    },
    {
      "midi": 60,
      "hit": false,
      "t": 200948.1284999981,
      "d": 206.8963999999978,
      "v": 100
    },
    {
      "midi": 64,
      "hit": false,
      "t": 200948.1284999981,
      "d": 206.8963999999978,
      "v": 100
    },
    {
      "midi": 67,
      "hit": false,
      "t": 200948.1284999981,
      "d": 206.8963999999978,
      "v": 100
    },
    {
      "midi": 49,
      "hit": false,
      "t": 200948.1284999988,
      "d": 206.8963999999978,
      "v": 100
    },
    {
      "midi": 54,
      "hit": false,
      "t": 200948.1284999988,
      "d": 206.8963999999978,
      "v": 100
    },
    {
      "midi": 60,
      "hit": false,
      "t": 201206.7489999981,
      "d": 206.8963999999978,
      "v": 100
    },
    {
      "midi": 64,
      "hit": false,
      "t": 201206.7489999981,
      "d": 206.8963999999978,
      "v": 100
    },
    {
      "midi": 67,
      "hit": false,
      "t": 201206.7489999981,
      "d": 206.8963999999978,
      "v": 100
    },
    {
      "midi": 54,
      "hit": false,
      "t": 201206.7489999988,
      "d": 206.8963999999978,
      "v": 100
    },
    {
      "midi": 60,
      "hit": false,
      "t": 201465.36949999808,
      "d": 206.8963999999978,
      "v": 100
    },
    {
      "midi": 64,
      "hit": false,
      "t": 201465.36949999808,
      "d": 206.8963999999978,
      "v": 100
    },
    {
      "midi": 67,
      "hit": false,
      "t": 201465.36949999808,
      "d": 206.8963999999978,
      "v": 100
    },
    {
      "midi": 40,
      "hit": false,
      "t": 201465.36949999878,
      "d": 206.8963999999978,
      "v": 100
    },
    {
      "midi": 60,
      "hit": false,
      "t": 201723.98999999807,
      "d": 206.8963999999978,
      "v": 100
    },
    {
      "midi": 64,
      "hit": false,
      "t": 201723.98999999807,
      "d": 206.8963999999978,
      "v": 100
    },
    {
      "midi": 67,
      "hit": false,
      "t": 201723.98999999807,
      "d": 206.8963999999978,
      "v": 100
    },
    {
      "midi": 54,
      "hit": false,
      "t": 201723.98999999877,
      "d": 206.8963999999978,
      "v": 100
    },
    {
      "midi": 60,
      "hit": false,
      "t": 201982.61049999806,
      "d": 206.8963999999978,
      "v": 100
    },
    {
      "midi": 64,
      "hit": false,
      "t": 201982.61049999806,
      "d": 206.8963999999978,
      "v": 100
    },
    {
      "midi": 67,
      "hit": false,
      "t": 201982.61049999806,
      "d": 206.8963999999978,
      "v": 100
    },
    {
      "midi": 54,
      "hit": false,
      "t": 201982.61049999876,
      "d": 206.8963999999978,
      "v": 100
    },
    {
      "midi": 60,
      "hit": false,
      "t": 202241.23099999805,
      "d": 206.8963999999978,
      "v": 100
    },
    {
      "midi": 64,
      "hit": false,
      "t": 202241.23099999805,
      "d": 206.8963999999978,
      "v": 100
    },
    {
      "midi": 67,
      "hit": false,
      "t": 202241.23099999805,
      "d": 206.8963999999978,
      "v": 100
    },
    {
      "midi": 54,
      "hit": false,
      "t": 202241.23099999875,
      "d": 206.8963999999978,
      "v": 100
    },
    {
      "midi": 72,
      "hit": false,
      "t": 202241.231,
      "d": 206.8963999999978,
      "v": 100
    },
    {
      "midi": 60,
      "hit": false,
      "t": 202499.85149999804,
      "d": 206.8963999999978,
      "v": 100
    },
    {
      "midi": 64,
      "hit": false,
      "t": 202499.85149999804,
      "d": 206.8963999999978,
      "v": 100
    },
    {
      "midi": 67,
      "hit": false,
      "t": 202499.85149999804,
      "d": 206.8963999999978,
      "v": 100
    },
    {
      "midi": 40,
      "hit": false,
      "t": 202499.85149999874,
      "d": 206.8963999999978,
      "v": 100
    },
    {
      "midi": 77,
      "hit": false,
      "t": 202499.8515,
      "d": 206.8963999999978,
      "v": 100
    },
    {
      "midi": 60,
      "hit": false,
      "t": 202758.47199999803,
      "d": 206.8963999999978,
      "v": 100
    },
    {
      "midi": 64,
      "hit": false,
      "t": 202758.47199999803,
      "d": 206.8963999999978,
      "v": 100
    },
    {
      "midi": 67,
      "hit": false,
      "t": 202758.47199999803,
      "d": 206.8963999999978,
      "v": 100
    },
    {
      "midi": 54,
      "hit": false,
      "t": 202758.47199999873,
      "d": 206.8963999999978,
      "v": 100
    },
    {
      "midi": 76,
      "hit": false,
      "t": 202758.47199999998,
      "d": 103.44820000001346,
      "v": 100
    },
    {
      "midi": 77,
      "hit": false,
      "t": 202887.78225,
      "d": 956.8958500000008,
      "v": 100
    },
    {
      "midi": 53,
      "hit": false,
      "t": 203017.09249999802,
      "d": 206.8963999999978,
      "v": 100
    },
    {
      "midi": 57,
      "hit": false,
      "t": 203017.09249999802,
      "d": 206.8963999999978,
      "v": 100
    },
    {
      "midi": 60,
      "hit": false,
      "t": 203017.09249999802,
      "d": 206.8963999999978,
      "v": 100
    },
    {
      "midi": 49,
      "hit": false,
      "t": 203017.09249999872,
      "d": 206.8963999999978,
      "v": 100
    },
    {
      "midi": 54,
      "hit": false,
      "t": 203017.09249999872,
      "d": 206.8963999999978,
      "v": 100
    },
    {
      "midi": 53,
      "hit": false,
      "t": 203275.712999998,
      "d": 206.8963999999978,
      "v": 100
    },
    {
      "midi": 57,
      "hit": false,
      "t": 203275.712999998,
      "d": 206.8963999999978,
      "v": 100
    },
    {
      "midi": 60,
      "hit": false,
      "t": 203275.712999998,
      "d": 206.8963999999978,
      "v": 100
    },
    {
      "midi": 54,
      "hit": false,
      "t": 203275.7129999987,
      "d": 206.8963999999978,
      "v": 100
    },
    {
      "midi": 53,
      "hit": false,
      "t": 203534.333499998,
      "d": 206.8963999999978,
      "v": 100
    },
    {
      "midi": 57,
      "hit": false,
      "t": 203534.333499998,
      "d": 206.8963999999978,
      "v": 100
    },
    {
      "midi": 60,
      "hit": false,
      "t": 203534.333499998,
      "d": 206.8963999999978,
      "v": 100
    },
    {
      "midi": 40,
      "hit": false,
      "t": 203534.3334999987,
      "d": 206.8963999999978,
      "v": 100
    },
    {
      "midi": 53,
      "hit": false,
      "t": 203792.953999998,
      "d": 206.8963999999978,
      "v": 100
    },
    {
      "midi": 57,
      "hit": false,
      "t": 203792.953999998,
      "d": 206.8963999999978,
      "v": 100
    },
    {
      "midi": 60,
      "hit": false,
      "t": 203792.953999998,
      "d": 206.8963999999978,
      "v": 100
    },
    {
      "midi": 54,
      "hit": false,
      "t": 203792.9539999987,
      "d": 206.8963999999978,
      "v": 100
    },
    {
      "midi": 60,
      "hit": false,
      "t": 204051.57449999798,
      "d": 206.8963999999978,
      "v": 100
    },
    {
      "midi": 64,
      "hit": false,
      "t": 204051.57449999798,
      "d": 206.8963999999978,
      "v": 100
    },
    {
      "midi": 67,
      "hit": false,
      "t": 204051.57449999798,
      "d": 206.8963999999978,
      "v": 100
    },
    {
      "midi": 54,
      "hit": false,
      "t": 204051.57449999868,
      "d": 206.8963999999978,
      "v": 100
    },
    {
      "midi": 60,
      "hit": false,
      "t": 204310.19499999797,
      "d": 206.8963999999978,
      "v": 100
    },
    {
      "midi": 64,
      "hit": false,
      "t": 204310.19499999797,
      "d": 206.8963999999978,
      "v": 100
    },
    {
      "midi": 67,
      "hit": false,
      "t": 204310.19499999797,
      "d": 206.8963999999978,
      "v": 100
    },
    {
      "midi": 54,
      "hit": false,
      "t": 204310.19499999867,
      "d": 206.8963999999978,
      "v": 100
    },
    {
      "midi": 72,
      "hit": false,
      "t": 204310.19499999998,
      "d": 206.8963999999978,
      "v": 100
    },
    {
      "midi": 60,
      "hit": false,
      "t": 204568.81549999796,
      "d": 206.8963999999978,
      "v": 100
    },
    {
      "midi": 64,
      "hit": false,
      "t": 204568.81549999796,
      "d": 206.8963999999978,
      "v": 100
    },
    {
      "midi": 67,
      "hit": false,
      "t": 204568.81549999796,
      "d": 206.8963999999978,
      "v": 100
    },
    {
      "midi": 40,
      "hit": false,
      "t": 204568.81549999866,
      "d": 206.8963999999978,
      "v": 100
    },
    {
      "midi": 79,
      "hit": false,
      "t": 204568.81549999997,
      "d": 206.8963999999978,
      "v": 100
    },
    {
      "midi": 60,
      "hit": false,
      "t": 204827.43599999795,
      "d": 206.8963999999978,
      "v": 100
    },
    {
      "midi": 64,
      "hit": false,
      "t": 204827.43599999795,
      "d": 206.8963999999978,
      "v": 100
    },
    {
      "midi": 67,
      "hit": false,
      "t": 204827.43599999795,
      "d": 206.8963999999978,
      "v": 100
    },
    {
      "midi": 54,
      "hit": false,
      "t": 204827.43599999865,
      "d": 206.8963999999978,
      "v": 100
    },
    {
      "midi": 76,
      "hit": false,
      "t": 204827.43599999996,
      "d": 103.44820000001346,
      "v": 100
    },
    {
      "midi": 77,
      "hit": false,
      "t": 204956.74624999997,
      "d": 956.8958500000008,
      "v": 100
    },
    {
      "midi": 50,
      "hit": false,
      "t": 205086.05649999794,
      "d": 206.8963999999978,
      "v": 100
    },
    {
      "midi": 53,
      "hit": false,
      "t": 205086.05649999794,
      "d": 206.8963999999978,
      "v": 100
    },
    {
      "midi": 57,
      "hit": false,
      "t": 205086.05649999794,
      "d": 206.8963999999978,
      "v": 100
    },
    {
      "midi": 49,
      "hit": false,
      "t": 205086.05649999864,
      "d": 206.8963999999978,
      "v": 100
    },
    {
      "midi": 54,
      "hit": false,
      "t": 205086.05649999864,
      "d": 206.8963999999978,
      "v": 100
    },
    {
      "midi": 50,
      "hit": false,
      "t": 205344.67699999793,
      "d": 206.8963999999978,
      "v": 100
    },
    {
      "midi": 53,
      "hit": false,
      "t": 205344.67699999793,
      "d": 206.8963999999978,
      "v": 100
    },
    {
      "midi": 57,
      "hit": false,
      "t": 205344.67699999793,
      "d": 206.8963999999978,
      "v": 100
    },
    {
      "midi": 54,
      "hit": false,
      "t": 205344.67699999863,
      "d": 206.8963999999978,
      "v": 100
    },
    {
      "midi": 50,
      "hit": false,
      "t": 205603.29749999792,
      "d": 206.8963999999978,
      "v": 100
    },
    {
      "midi": 53,
      "hit": false,
      "t": 205603.29749999792,
      "d": 206.8963999999978,
      "v": 100
    },
    {
      "midi": 57,
      "hit": false,
      "t": 205603.29749999792,
      "d": 206.8963999999978,
      "v": 100
    },
    {
      "midi": 40,
      "hit": false,
      "t": 205603.29749999862,
      "d": 206.8963999999978,
      "v": 100
    },
    {
      "midi": 50,
      "hit": false,
      "t": 205861.9179999979,
      "d": 206.8963999999978,
      "v": 100
    },
    {
      "midi": 53,
      "hit": false,
      "t": 205861.9179999979,
      "d": 206.8963999999978,
      "v": 100
    },
    {
      "midi": 57,
      "hit": false,
      "t": 205861.9179999979,
      "d": 206.8963999999978,
      "v": 100
    },
    {
      "midi": 54,
      "hit": false,
      "t": 205861.9179999986,
      "d": 206.8963999999978,
      "v": 100
    },
    {
      "midi": 60,
      "hit": false,
      "t": 206120.5384999979,
      "d": 206.8963999999978,
      "v": 100
    },
    {
      "midi": 64,
      "hit": false,
      "t": 206120.5384999979,
      "d": 206.8963999999978,
      "v": 100
    },
    {
      "midi": 67,
      "hit": false,
      "t": 206120.5384999979,
      "d": 206.8963999999978,
      "v": 100
    },
    {
      "midi": 54,
      "hit": false,
      "t": 206120.5384999986,
      "d": 206.8963999999978,
      "v": 100
    },
    {
      "midi": 60,
      "hit": false,
      "t": 206379.1589999979,
      "d": 206.8963999999978,
      "v": 100
    },
    {
      "midi": 64,
      "hit": false,
      "t": 206379.1589999979,
      "d": 206.8963999999978,
      "v": 100
    },
    {
      "midi": 67,
      "hit": false,
      "t": 206379.1589999979,
      "d": 206.8963999999978,
      "v": 100
    },
    {
      "midi": 54,
      "hit": false,
      "t": 206379.1589999986,
      "d": 206.8963999999978,
      "v": 100
    },
    {
      "midi": 77,
      "hit": false,
      "t": 206379.15899999996,
      "d": 206.8963999999978,
      "v": 100
    },
    {
      "midi": 60,
      "hit": false,
      "t": 206637.77949999788,
      "d": 206.8963999999978,
      "v": 100
    },
    {
      "midi": 64,
      "hit": false,
      "t": 206637.77949999788,
      "d": 206.8963999999978,
      "v": 100
    },
    {
      "midi": 67,
      "hit": false,
      "t": 206637.77949999788,
      "d": 206.8963999999978,
      "v": 100
    },
    {
      "midi": 40,
      "hit": false,
      "t": 206637.77949999858,
      "d": 206.8963999999978,
      "v": 100
    },
    {
      "midi": 76,
      "hit": false,
      "t": 206637.77949999995,
      "d": 206.8963999999978,
      "v": 100
    },
    {
      "midi": 60,
      "hit": false,
      "t": 206896.39999999787,
      "d": 206.8963999999978,
      "v": 100
    },
    {
      "midi": 64,
      "hit": false,
      "t": 206896.39999999787,
      "d": 206.8963999999978,
      "v": 100
    },
    {
      "midi": 67,
      "hit": false,
      "t": 206896.39999999787,
      "d": 206.8963999999978,
      "v": 100
    },
    {
      "midi": 54,
      "hit": false,
      "t": 206896.39999999857,
      "d": 206.8963999999978,
      "v": 100
    },
    {
      "midi": 72,
      "hit": false,
      "t": 206896.39999999994,
      "d": 103.44820000001346,
      "v": 100
    },
    {
      "midi": 74,
      "hit": false,
      "t": 207025.71024999995,
      "d": 749.999450000003,
      "v": 100
    },
    {
      "midi": 58,
      "hit": false,
      "t": 207155.02049999786,
      "d": 206.8963999999978,
      "v": 100
    },
    {
      "midi": 62,
      "hit": false,
      "t": 207155.02049999786,
      "d": 206.8963999999978,
      "v": 100
    },
    {
      "midi": 65,
      "hit": false,
      "t": 207155.02049999786,
      "d": 206.8963999999978,
      "v": 100
    },
    {
      "midi": 49,
      "hit": false,
      "t": 207155.02049999856,
      "d": 206.8963999999978,
      "v": 100
    },
    {
      "midi": 54,
      "hit": false,
      "t": 207155.02049999856,
      "d": 206.8963999999978,
      "v": 100
    },
    {
      "midi": 58,
      "hit": false,
      "t": 207413.64099999785,
      "d": 206.8963999999978,
      "v": 100
    },
    {
      "midi": 62,
      "hit": false,
      "t": 207413.64099999785,
      "d": 206.8963999999978,
      "v": 100
    },
    {
      "midi": 65,
      "hit": false,
      "t": 207413.64099999785,
      "d": 206.8963999999978,
      "v": 100
    },
    {
      "midi": 54,
      "hit": false,
      "t": 207413.64099999855,
      "d": 206.8963999999978,
      "v": 100
    },
    {
      "midi": 58,
      "hit": false,
      "t": 207672.26149999784,
      "d": 206.8963999999978,
      "v": 100
    },
    {
      "midi": 62,
      "hit": false,
      "t": 207672.26149999784,
      "d": 206.8963999999978,
      "v": 100
    },
    {
      "midi": 65,
      "hit": false,
      "t": 207672.26149999784,
      "d": 206.8963999999978,
      "v": 100
    },
    {
      "midi": 40,
      "hit": false,
      "t": 207672.26149999854,
      "d": 206.8963999999978,
      "v": 100
    },
    {
      "midi": 58,
      "hit": false,
      "t": 207930.88199999783,
      "d": 206.8963999999978,
      "v": 100
    },
    {
      "midi": 62,
      "hit": false,
      "t": 207930.88199999783,
      "d": 206.8963999999978,
      "v": 100
    },
    {
      "midi": 65,
      "hit": false,
      "t": 207930.88199999783,
      "d": 206.8963999999978,
      "v": 100
    },
    {
      "midi": 54,
      "hit": false,
      "t": 207930.88199999853,
      "d": 206.8963999999978,
      "v": 100
    },
    {
      "midi": 74,
      "hit": false,
      "t": 207930.88199999995,
      "d": 206.8963999999978,
      "v": 100
    },
    {
      "midi": 57,
      "hit": false,
      "t": 208189.50249999782,
      "d": 206.8963999999978,
      "v": 100
    },
    {
      "midi": 61,
      "hit": false,
      "t": 208189.50249999782,
      "d": 206.8963999999978,
      "v": 100
    },
    {
      "midi": 64,
      "hit": false,
      "t": 208189.50249999782,
      "d": 206.8963999999978,
      "v": 100
    },
    {
      "midi": 54,
      "hit": false,
      "t": 208189.50249999852,
      "d": 206.8963999999978,
      "v": 100
    },
    {
      "midi": 76,
      "hit": false,
      "t": 208189.50249999994,
      "d": 310.34460000001127,
      "v": 100
    },
    {
      "midi": 57,
      "hit": false,
      "t": 208448.1229999978,
      "d": 206.8963999999978,
      "v": 100
    },
    {
      "midi": 61,
      "hit": false,
      "t": 208448.1229999978,
      "d": 206.8963999999978,
      "v": 100
    },
    {
      "midi": 64,
      "hit": false,
      "t": 208448.1229999978,
      "d": 206.8963999999978,
      "v": 100
    },
    {
      "midi": 54,
      "hit": false,
      "t": 208448.1229999985,
      "d": 206.8963999999978,
      "v": 100
    },
    {
      "midi": 69,
      "hit": false,
      "t": 208577.43324999994,
      "d": 336.20665000000736,
      "v": 100
    },
    {
      "midi": 57,
      "hit": false,
      "t": 208706.7434999978,
      "d": 206.8963999999978,
      "v": 100
    },
    {
      "midi": 61,
      "hit": false,
      "t": 208706.7434999978,
      "d": 206.8963999999978,
      "v": 100
    },
    {
      "midi": 64,
      "hit": false,
      "t": 208706.7434999978,
      "d": 206.8963999999978,
      "v": 100
    },
    {
      "midi": 40,
      "hit": false,
      "t": 208706.7434999985,
      "d": 206.8963999999978,
      "v": 100
    },
    {
      "midi": 57,
      "hit": false,
      "t": 208965.3639999978,
      "d": 206.8963999999978,
      "v": 100
    },
    {
      "midi": 61,
      "hit": false,
      "t": 208965.3639999978,
      "d": 206.8963999999978,
      "v": 100
    },
    {
      "midi": 64,
      "hit": false,
      "t": 208965.3639999978,
      "d": 206.8963999999978,
      "v": 100
    },
    {
      "midi": 54,
      "hit": false,
      "t": 208965.3639999985,
      "d": 206.8963999999978,
      "v": 100
    },
    {
      "midi": 79,
      "hit": false,
      "t": 208965.36399999994,
      "d": 206.8963999999978,
      "v": 100
    },
    {
      "midi": 50,
      "hit": false,
      "t": 209223.98449999778,
      "d": 206.8963999999978,
      "v": 100
    },
    {
      "midi": 53,
      "hit": false,
      "t": 209223.98449999778,
      "d": 206.8963999999978,
      "v": 100
    },
    {
      "midi": 57,
      "hit": false,
      "t": 209223.98449999778,
      "d": 206.8963999999978,
      "v": 100
    },
    {
      "midi": 49,
      "hit": false,
      "t": 209223.98449999848,
      "d": 206.8963999999978,
      "v": 100
    },
    {
      "midi": 54,
      "hit": false,
      "t": 209223.98449999848,
      "d": 206.8963999999978,
      "v": 100
    },
    {
      "midi": 79,
      "hit": false,
      "t": 209223.98449999993,
      "d": 413.7927999999956,
      "v": 100
    },
    {
      "midi": 50,
      "hit": false,
      "t": 209482.60499999777,
      "d": 206.8963999999978,
      "v": 100
    },
    {
      "midi": 53,
      "hit": false,
      "t": 209482.60499999777,
      "d": 206.8963999999978,
      "v": 100
    },
    {
      "midi": 57,
      "hit": false,
      "t": 209482.60499999777,
      "d": 206.8963999999978,
      "v": 100
    },
    {
      "midi": 54,
      "hit": false,
      "t": 209482.60499999847,
      "d": 206.8963999999978,
      "v": 100
    },
    {
      "midi": 50,
      "hit": false,
      "t": 209741.22549999776,
      "d": 206.8963999999978,
      "v": 100
    },
    {
      "midi": 53,
      "hit": false,
      "t": 209741.22549999776,
      "d": 206.8963999999978,
      "v": 100
    },
    {
      "midi": 57,
      "hit": false,
      "t": 209741.22549999776,
      "d": 206.8963999999978,
      "v": 100
    },
    {
      "midi": 40,
      "hit": false,
      "t": 209741.22549999846,
      "d": 206.8963999999978,
      "v": 100
    },
    {
      "midi": 79,
      "hit": false,
      "t": 209741.22549999994,
      "d": 206.8963999999978,
      "v": 100
    },
    {
      "midi": 50,
      "hit": false,
      "t": 209999.84599999775,
      "d": 206.8963999999978,
      "v": 100
    },
    {
      "midi": 53,
      "hit": false,
      "t": 209999.84599999775,
      "d": 206.8963999999978,
      "v": 100
    },
    {
      "midi": 57,
      "hit": false,
      "t": 209999.84599999775,
      "d": 206.8963999999978,
      "v": 100
    },
    {
      "midi": 54,
      "hit": false,
      "t": 209999.84599999845,
      "d": 206.8963999999978,
      "v": 100
    },
    {
      "midi": 81,
      "hit": false,
      "t": 209999.84599999993,
      "d": 103.44820000001346,
      "v": 100
    },
    {
      "midi": 77,
      "hit": false,
      "t": 210129.15624999994,
      "d": 543.1030500000052,
      "v": 100
    },
    {
      "midi": 60,
      "hit": false,
      "t": 210258.46649999774,
      "d": 206.8963999999978,
      "v": 100
    },
    {
      "midi": 64,
      "hit": false,
      "t": 210258.46649999774,
      "d": 206.8963999999978,
      "v": 100
    },
    {
      "midi": 67,
      "hit": false,
      "t": 210258.46649999774,
      "d": 206.8963999999978,
      "v": 100
    },
    {
      "midi": 54,
      "hit": false,
      "t": 210258.46649999844,
      "d": 206.8963999999978,
      "v": 100
    },
    {
      "midi": 60,
      "hit": false,
      "t": 210517.08699999773,
      "d": 206.8963999999978,
      "v": 100
    },
    {
      "midi": 64,
      "hit": false,
      "t": 210517.08699999773,
      "d": 206.8963999999978,
      "v": 100
    },
    {
      "midi": 67,
      "hit": false,
      "t": 210517.08699999773,
      "d": 206.8963999999978,
      "v": 100
    },
    {
      "midi": 54,
      "hit": false,
      "t": 210517.08699999843,
      "d": 206.8963999999978,
      "v": 100
    },
    {
      "midi": 60,
      "hit": false,
      "t": 210775.70749999772,
      "d": 206.8963999999978,
      "v": 100
    },
    {
      "midi": 64,
      "hit": false,
      "t": 210775.70749999772,
      "d": 206.8963999999978,
      "v": 100
    },
    {
      "midi": 67,
      "hit": false,
      "t": 210775.70749999772,
      "d": 206.8963999999978,
      "v": 100
    },
    {
      "midi": 40,
      "hit": false,
      "t": 210775.70749999842,
      "d": 206.8963999999978,
      "v": 100
    },
    {
      "midi": 74,
      "hit": false,
      "t": 210775.70749999996,
      "d": 206.8963999999978,
      "v": 100
    },
    {
      "midi": 60,
      "hit": false,
      "t": 211034.3279999977,
      "d": 206.8963999999978,
      "v": 100
    },
    {
      "midi": 64,
      "hit": false,
      "t": 211034.3279999977,
      "d": 206.8963999999978,
      "v": 100
    },
    {
      "midi": 67,
      "hit": false,
      "t": 211034.3279999977,
      "d": 206.8963999999978,
      "v": 100
    },
    {
      "midi": 54,
      "hit": false,
      "t": 211034.3279999984,
      "d": 206.8963999999978,
      "v": 100
    },
    {
      "midi": 76,
      "hit": false,
      "t": 211034.32799999995,
      "d": 103.44820000001346,
      "v": 100
    },
    {
      "midi": 77,
      "hit": false,
      "t": 211163.63824999996,
      "d": 1370.6886499999964,
      "v": 100
    },
    {
      "midi": 58,
      "hit": false,
      "t": 211292.9484999977,
      "d": 206.8963999999978,
      "v": 100
    },
    {
      "midi": 62,
      "hit": false,
      "t": 211292.9484999977,
      "d": 206.8963999999978,
      "v": 100
    },
    {
      "midi": 65,
      "hit": false,
      "t": 211292.9484999977,
      "d": 206.8963999999978,
      "v": 100
    },
    {
      "midi": 49,
      "hit": false,
      "t": 211292.9484999984,
      "d": 206.8963999999978,
      "v": 100
    },
    {
      "midi": 54,
      "hit": false,
      "t": 211292.9484999984,
      "d": 206.8963999999978,
      "v": 100
    },
    {
      "midi": 58,
      "hit": false,
      "t": 211551.5689999977,
      "d": 206.8963999999978,
      "v": 100
    },
    {
      "midi": 62,
      "hit": false,
      "t": 211551.5689999977,
      "d": 206.8963999999978,
      "v": 100
    },
    {
      "midi": 65,
      "hit": false,
      "t": 211551.5689999977,
      "d": 206.8963999999978,
      "v": 100
    },
    {
      "midi": 54,
      "hit": false,
      "t": 211551.5689999984,
      "d": 206.8963999999978,
      "v": 100
    },
    {
      "midi": 58,
      "hit": false,
      "t": 211810.18949999768,
      "d": 206.8963999999978,
      "v": 100
    },
    {
      "midi": 62,
      "hit": false,
      "t": 211810.18949999768,
      "d": 206.8963999999978,
      "v": 100
    },
    {
      "midi": 65,
      "hit": false,
      "t": 211810.18949999768,
      "d": 206.8963999999978,
      "v": 100
    },
    {
      "midi": 40,
      "hit": false,
      "t": 211810.18949999838,
      "d": 206.8963999999978,
      "v": 100
    },
    {
      "midi": 58,
      "hit": false,
      "t": 212068.80999999767,
      "d": 206.8963999999978,
      "v": 100
    },
    {
      "midi": 62,
      "hit": false,
      "t": 212068.80999999767,
      "d": 206.8963999999978,
      "v": 100
    },
    {
      "midi": 65,
      "hit": false,
      "t": 212068.80999999767,
      "d": 206.8963999999978,
      "v": 100
    },
    {
      "midi": 54,
      "hit": false,
      "t": 212068.80999999837,
      "d": 206.8963999999978,
      "v": 100
    },
    {
      "midi": 60,
      "hit": false,
      "t": 212327.43049999766,
      "d": 206.8963999999978,
      "v": 100
    },
    {
      "midi": 64,
      "hit": false,
      "t": 212327.43049999766,
      "d": 206.8963999999978,
      "v": 100
    },
    {
      "midi": 67,
      "hit": false,
      "t": 212327.43049999766,
      "d": 206.8963999999978,
      "v": 100
    },
    {
      "midi": 54,
      "hit": false,
      "t": 212327.43049999836,
      "d": 206.8963999999978,
      "v": 100
    },
    {
      "midi": 60,
      "hit": false,
      "t": 212586.05099999765,
      "d": 206.8963999999978,
      "v": 100
    },
    {
      "midi": 64,
      "hit": false,
      "t": 212586.05099999765,
      "d": 206.8963999999978,
      "v": 100
    },
    {
      "midi": 67,
      "hit": false,
      "t": 212586.05099999765,
      "d": 206.8963999999978,
      "v": 100
    },
    {
      "midi": 54,
      "hit": false,
      "t": 212586.05099999835,
      "d": 206.8963999999978,
      "v": 100
    },
    {
      "midi": 76,
      "hit": false,
      "t": 212586.05099999995,
      "d": 206.8963999999978,
      "v": 100
    },
    {
      "midi": 60,
      "hit": false,
      "t": 212844.67149999764,
      "d": 206.8963999999978,
      "v": 100
    },
    {
      "midi": 64,
      "hit": false,
      "t": 212844.67149999764,
      "d": 206.8963999999978,
      "v": 100
    },
    {
      "midi": 67,
      "hit": false,
      "t": 212844.67149999764,
      "d": 206.8963999999978,
      "v": 100
    },
    {
      "midi": 40,
      "hit": false,
      "t": 212844.67149999834,
      "d": 206.8963999999978,
      "v": 100
    },
    {
      "midi": 74,
      "hit": false,
      "t": 212844.67149999994,
      "d": 206.8963999999978,
      "v": 100
    },
    {
      "midi": 60,
      "hit": false,
      "t": 213103.29199999763,
      "d": 206.8963999999978,
      "v": 100
    },
    {
      "midi": 64,
      "hit": false,
      "t": 213103.29199999763,
      "d": 206.8963999999978,
      "v": 100
    },
    {
      "midi": 67,
      "hit": false,
      "t": 213103.29199999763,
      "d": 206.8963999999978,
      "v": 100
    },
    {
      "midi": 54,
      "hit": false,
      "t": 213103.29199999833,
      "d": 206.8963999999978,
      "v": 100
    },
    {
      "midi": 76,
      "hit": false,
      "t": 213103.29199999993,
      "d": 103.44820000001346,
      "v": 100
    },
    {
      "midi": 77,
      "hit": false,
      "t": 213232.60224999994,
      "d": 956.8958500000008,
      "v": 100
    },
    {
      "midi": 50,
      "hit": false,
      "t": 213361.91249999762,
      "d": 206.8963999999978,
      "v": 100
    },
    {
      "midi": 53,
      "hit": false,
      "t": 213361.91249999762,
      "d": 206.8963999999978,
      "v": 100
    },
    {
      "midi": 57,
      "hit": false,
      "t": 213361.91249999762,
      "d": 206.8963999999978,
      "v": 100
    },
    {
      "midi": 49,
      "hit": false,
      "t": 213361.91249999832,
      "d": 206.8963999999978,
      "v": 100
    },
    {
      "midi": 54,
      "hit": false,
      "t": 213361.91249999832,
      "d": 206.8963999999978,
      "v": 100
    },
    {
      "midi": 50,
      "hit": false,
      "t": 213620.5329999976,
      "d": 206.8963999999978,
      "v": 100
    },
    {
      "midi": 53,
      "hit": false,
      "t": 213620.5329999976,
      "d": 206.8963999999978,
      "v": 100
    },
    {
      "midi": 57,
      "hit": false,
      "t": 213620.5329999976,
      "d": 206.8963999999978,
      "v": 100
    },
    {
      "midi": 54,
      "hit": false,
      "t": 213620.5329999983,
      "d": 206.8963999999978,
      "v": 100
    },
    {
      "midi": 50,
      "hit": false,
      "t": 213879.1534999976,
      "d": 206.8963999999978,
      "v": 100
    },
    {
      "midi": 53,
      "hit": false,
      "t": 213879.1534999976,
      "d": 206.8963999999978,
      "v": 100
    },
    {
      "midi": 57,
      "hit": false,
      "t": 213879.1534999976,
      "d": 206.8963999999978,
      "v": 100
    },
    {
      "midi": 40,
      "hit": false,
      "t": 213879.1534999983,
      "d": 206.8963999999978,
      "v": 100
    },
    {
      "midi": 50,
      "hit": false,
      "t": 214137.7739999976,
      "d": 206.8963999999978,
      "v": 100
    },
    {
      "midi": 53,
      "hit": false,
      "t": 214137.7739999976,
      "d": 206.8963999999978,
      "v": 100
    },
    {
      "midi": 57,
      "hit": false,
      "t": 214137.7739999976,
      "d": 206.8963999999978,
      "v": 100
    },
    {
      "midi": 54,
      "hit": false,
      "t": 214137.7739999983,
      "d": 206.8963999999978,
      "v": 100
    },
    {
      "midi": 60,
      "hit": false,
      "t": 214396.39449999758,
      "d": 206.8963999999978,
      "v": 100
    },
    {
      "midi": 64,
      "hit": false,
      "t": 214396.39449999758,
      "d": 206.8963999999978,
      "v": 100
    },
    {
      "midi": 67,
      "hit": false,
      "t": 214396.39449999758,
      "d": 206.8963999999978,
      "v": 100
    },
    {
      "midi": 54,
      "hit": false,
      "t": 214396.39449999828,
      "d": 206.8963999999978,
      "v": 100
    },
    {
      "midi": 60,
      "hit": false,
      "t": 214655.01499999757,
      "d": 206.8963999999978,
      "v": 100
    },
    {
      "midi": 64,
      "hit": false,
      "t": 214655.01499999757,
      "d": 206.8963999999978,
      "v": 100
    },
    {
      "midi": 67,
      "hit": false,
      "t": 214655.01499999757,
      "d": 206.8963999999978,
      "v": 100
    },
    {
      "midi": 54,
      "hit": false,
      "t": 214655.01499999827,
      "d": 206.8963999999978,
      "v": 100
    },
    {
      "midi": 60,
      "hit": false,
      "t": 214913.63549999756,
      "d": 206.8963999999978,
      "v": 100
    },
    {
      "midi": 64,
      "hit": false,
      "t": 214913.63549999756,
      "d": 206.8963999999978,
      "v": 100
    },
    {
      "midi": 67,
      "hit": false,
      "t": 214913.63549999756,
      "d": 206.8963999999978,
      "v": 100
    },
    {
      "midi": 40,
      "hit": false,
      "t": 214913.63549999826,
      "d": 206.8963999999978,
      "v": 100
    },
    {
      "midi": 74,
      "hit": false,
      "t": 214913.63549999995,
      "d": 206.8963999999978,
      "v": 100
    },
    {
      "midi": 60,
      "hit": false,
      "t": 215172.25599999755,
      "d": 206.8963999999978,
      "v": 100
    },
    {
      "midi": 64,
      "hit": false,
      "t": 215172.25599999755,
      "d": 206.8963999999978,
      "v": 100
    },
    {
      "midi": 67,
      "hit": false,
      "t": 215172.25599999755,
      "d": 206.8963999999978,
      "v": 100
    },
    {
      "midi": 54,
      "hit": false,
      "t": 215172.25599999825,
      "d": 206.8963999999978,
      "v": 100
    },
    {
      "midi": 76,
      "hit": false,
      "t": 215172.25599999994,
      "d": 103.44820000001346,
      "v": 100
    },
    {
      "midi": 77,
      "hit": false,
      "t": 215301.56624999995,
      "d": 749.999450000003,
      "v": 100
    },
    {
      "midi": 58,
      "hit": false,
      "t": 215430.87649999754,
      "d": 206.8963999999978,
      "v": 100
    },
    {
      "midi": 62,
      "hit": false,
      "t": 215430.87649999754,
      "d": 206.8963999999978,
      "v": 100
    },
    {
      "midi": 65,
      "hit": false,
      "t": 215430.87649999754,
      "d": 206.8963999999978,
      "v": 100
    },
    {
      "midi": 49,
      "hit": false,
      "t": 215430.87649999824,
      "d": 206.8963999999978,
      "v": 100
    },
    {
      "midi": 54,
      "hit": false,
      "t": 215430.87649999824,
      "d": 206.8963999999978,
      "v": 100
    },
    {
      "midi": 58,
      "hit": false,
      "t": 215689.49699999753,
      "d": 206.8963999999978,
      "v": 100
    },
    {
      "midi": 62,
      "hit": false,
      "t": 215689.49699999753,
      "d": 206.8963999999978,
      "v": 100
    },
    {
      "midi": 65,
      "hit": false,
      "t": 215689.49699999753,
      "d": 206.8963999999978,
      "v": 100
    },
    {
      "midi": 54,
      "hit": false,
      "t": 215689.49699999823,
      "d": 206.8963999999978,
      "v": 100
    },
    {
      "midi": 58,
      "hit": false,
      "t": 215948.11749999752,
      "d": 206.8963999999978,
      "v": 100
    },
    {
      "midi": 62,
      "hit": false,
      "t": 215948.11749999752,
      "d": 206.8963999999978,
      "v": 100
    },
    {
      "midi": 65,
      "hit": false,
      "t": 215948.11749999752,
      "d": 206.8963999999978,
      "v": 100
    },
    {
      "midi": 40,
      "hit": false,
      "t": 215948.11749999822,
      "d": 206.8963999999978,
      "v": 100
    },
    {
      "midi": 58,
      "hit": false,
      "t": 216206.7379999975,
      "d": 206.8963999999978,
      "v": 100
    },
    {
      "midi": 62,
      "hit": false,
      "t": 216206.7379999975,
      "d": 206.8963999999978,
      "v": 100
    },
    {
      "midi": 65,
      "hit": false,
      "t": 216206.7379999975,
      "d": 206.8963999999978,
      "v": 100
    },
    {
      "midi": 54,
      "hit": false,
      "t": 216206.7379999982,
      "d": 206.8963999999978,
      "v": 100
    },
    {
      "midi": 77,
      "hit": false,
      "t": 216206.73799999995,
      "d": 206.8963999999978,
      "v": 100
    },
    {
      "midi": 60,
      "hit": false,
      "t": 216465.3584999975,
      "d": 206.8963999999978,
      "v": 100
    },
    {
      "midi": 64,
      "hit": false,
      "t": 216465.3584999975,
      "d": 206.8963999999978,
      "v": 100
    },
    {
      "midi": 67,
      "hit": false,
      "t": 216465.3584999975,
      "d": 206.8963999999978,
      "v": 100
    },
    {
      "midi": 54,
      "hit": false,
      "t": 216465.3584999982,
      "d": 206.8963999999978,
      "v": 100
    },
    {
      "midi": 79,
      "hit": false,
      "t": 216465.35849999994,
      "d": 310.34460000001127,
      "v": 100
    },
    {
      "midi": 60,
      "hit": false,
      "t": 216723.9789999975,
      "d": 206.8963999999978,
      "v": 100
    },
    {
      "midi": 64,
      "hit": false,
      "t": 216723.9789999975,
      "d": 206.8963999999978,
      "v": 100
    },
    {
      "midi": 67,
      "hit": false,
      "t": 216723.9789999975,
      "d": 206.8963999999978,
      "v": 100
    },
    {
      "midi": 54,
      "hit": false,
      "t": 216723.9789999982,
      "d": 206.8963999999978,
      "v": 100
    },
    {
      "midi": 77,
      "hit": false,
      "t": 216853.28924999994,
      "d": 336.20665000000736,
      "v": 100
    },
    {
      "midi": 60,
      "hit": false,
      "t": 216982.59949999748,
      "d": 206.8963999999978,
      "v": 100
    },
    {
      "midi": 64,
      "hit": false,
      "t": 216982.59949999748,
      "d": 206.8963999999978,
      "v": 100
    },
    {
      "midi": 67,
      "hit": false,
      "t": 216982.59949999748,
      "d": 206.8963999999978,
      "v": 100
    },
    {
      "midi": 40,
      "hit": false,
      "t": 216982.59949999818,
      "d": 206.8963999999978,
      "v": 100
    },
    {
      "midi": 60,
      "hit": false,
      "t": 217241.21999999747,
      "d": 206.8963999999978,
      "v": 100
    },
    {
      "midi": 64,
      "hit": false,
      "t": 217241.21999999747,
      "d": 206.8963999999978,
      "v": 100
    },
    {
      "midi": 67,
      "hit": false,
      "t": 217241.21999999747,
      "d": 206.8963999999978,
      "v": 100
    },
    {
      "midi": 54,
      "hit": false,
      "t": 217241.21999999817,
      "d": 206.8963999999978,
      "v": 100
    },
    {
      "midi": 76,
      "hit": false,
      "t": 217241.21999999994,
      "d": 206.8963999999978,
      "v": 100
    },
    {
      "midi": 50,
      "hit": false,
      "t": 217499.84049999746,
      "d": 206.8963999999978,
      "v": 100
    },
    {
      "midi": 53,
      "hit": false,
      "t": 217499.84049999746,
      "d": 206.8963999999978,
      "v": 100
    },
    {
      "midi": 57,
      "hit": false,
      "t": 217499.84049999746,
      "d": 206.8963999999978,
      "v": 100
    },
    {
      "midi": 49,
      "hit": false,
      "t": 217499.84049999816,
      "d": 206.8963999999978,
      "v": 100
    },
    {
      "midi": 54,
      "hit": false,
      "t": 217499.84049999816,
      "d": 206.8963999999978,
      "v": 100
    },
    {
      "midi": 77,
      "hit": false,
      "t": 217499.84049999993,
      "d": 827.5855999999912,
      "v": 100
    },
    {
      "midi": 50,
      "hit": false,
      "t": 217758.46099999745,
      "d": 206.8963999999978,
      "v": 100
    },
    {
      "midi": 53,
      "hit": false,
      "t": 217758.46099999745,
      "d": 206.8963999999978,
      "v": 100
    },
    {
      "midi": 57,
      "hit": false,
      "t": 217758.46099999745,
      "d": 206.8963999999978,
      "v": 100
    },
    {
      "midi": 54,
      "hit": false,
      "t": 217758.46099999815,
      "d": 206.8963999999978,
      "v": 100
    },
    {
      "midi": 50,
      "hit": false,
      "t": 218017.08149999744,
      "d": 206.8963999999978,
      "v": 100
    },
    {
      "midi": 53,
      "hit": false,
      "t": 218017.08149999744,
      "d": 206.8963999999978,
      "v": 100
    },
    {
      "midi": 57,
      "hit": false,
      "t": 218017.08149999744,
      "d": 206.8963999999978,
      "v": 100
    },
    {
      "midi": 40,
      "hit": false,
      "t": 218017.08149999814,
      "d": 206.8963999999978,
      "v": 100
    },
    {
      "midi": 50,
      "hit": false,
      "t": 218275.70199999743,
      "d": 206.8963999999978,
      "v": 100
    },
    {
      "midi": 53,
      "hit": false,
      "t": 218275.70199999743,
      "d": 206.8963999999978,
      "v": 100
    },
    {
      "midi": 57,
      "hit": false,
      "t": 218275.70199999743,
      "d": 206.8963999999978,
      "v": 100
    },
    {
      "midi": 54,
      "hit": false,
      "t": 218275.70199999813,
      "d": 206.8963999999978,
      "v": 100
    },
    {
      "midi": 60,
      "hit": false,
      "t": 218534.32249999742,
      "d": 206.8963999999978,
      "v": 100
    },
    {
      "midi": 64,
      "hit": false,
      "t": 218534.32249999742,
      "d": 206.8963999999978,
      "v": 100
    },
    {
      "midi": 67,
      "hit": false,
      "t": 218534.32249999742,
      "d": 206.8963999999978,
      "v": 100
    },
    {
      "midi": 54,
      "hit": false,
      "t": 218534.32249999812,
      "d": 206.8963999999978,
      "v": 100
    },
    {
      "midi": 60,
      "hit": false,
      "t": 218792.9429999974,
      "d": 206.8963999999978,
      "v": 100
    },
    {
      "midi": 64,
      "hit": false,
      "t": 218792.9429999974,
      "d": 206.8963999999978,
      "v": 100
    },
    {
      "midi": 67,
      "hit": false,
      "t": 218792.9429999974,
      "d": 206.8963999999978,
      "v": 100
    },
    {
      "midi": 54,
      "hit": false,
      "t": 218792.9429999981,
      "d": 206.8963999999978,
      "v": 100
    },
    {
      "midi": 74,
      "hit": false,
      "t": 218792.9429999999,
      "d": 206.8963999999978,
      "v": 100
    },
    {
      "midi": 60,
      "hit": false,
      "t": 219051.5634999974,
      "d": 206.8963999999978,
      "v": 100
    },
    {
      "midi": 64,
      "hit": false,
      "t": 219051.5634999974,
      "d": 206.8963999999978,
      "v": 100
    },
    {
      "midi": 67,
      "hit": false,
      "t": 219051.5634999974,
      "d": 206.8963999999978,
      "v": 100
    },
    {
      "midi": 40,
      "hit": false,
      "t": 219051.5634999981,
      "d": 206.8963999999978,
      "v": 100
    },
    {
      "midi": 74,
      "hit": false,
      "t": 219051.5634999999,
      "d": 206.8963999999978,
      "v": 100
    },
    {
      "midi": 60,
      "hit": false,
      "t": 219310.1839999974,
      "d": 206.8963999999978,
      "v": 100
    },
    {
      "midi": 64,
      "hit": false,
      "t": 219310.1839999974,
      "d": 206.8963999999978,
      "v": 100
    },
    {
      "midi": 67,
      "hit": false,
      "t": 219310.1839999974,
      "d": 206.8963999999978,
      "v": 100
    },
    {
      "midi": 54,
      "hit": false,
      "t": 219310.1839999981,
      "d": 206.8963999999978,
      "v": 100
    },
    {
      "midi": 76,
      "hit": false,
      "t": 219310.1839999999,
      "d": 103.44820000001346,
      "v": 100
    },
    {
      "midi": 77,
      "hit": false,
      "t": 219439.4942499999,
      "d": 749.999450000003,
      "v": 100
    },
    {
      "midi": 58,
      "hit": false,
      "t": 219568.80449999738,
      "d": 206.8963999999978,
      "v": 100
    },
    {
      "midi": 62,
      "hit": false,
      "t": 219568.80449999738,
      "d": 206.8963999999978,
      "v": 100
    },
    {
      "midi": 65,
      "hit": false,
      "t": 219568.80449999738,
      "d": 206.8963999999978,
      "v": 100
    },
    {
      "midi": 49,
      "hit": false,
      "t": 219568.80449999808,
      "d": 827.5855999999912,
      "v": 100
    },
    {
      "midi": 58,
      "hit": false,
      "t": 219827.42499999737,
      "d": 206.8963999999978,
      "v": 100
    },
    {
      "midi": 62,
      "hit": false,
      "t": 219827.42499999737,
      "d": 206.8963999999978,
      "v": 100
    },
    {
      "midi": 65,
      "hit": false,
      "t": 219827.42499999737,
      "d": 206.8963999999978,
      "v": 100
    },
    {
      "midi": 58,
      "hit": false,
      "t": 220086.04549999736,
      "d": 206.8963999999978,
      "v": 100
    },
    {
      "midi": 62,
      "hit": false,
      "t": 220086.04549999736,
      "d": 206.8963999999978,
      "v": 100
    },
    {
      "midi": 65,
      "hit": false,
      "t": 220086.04549999736,
      "d": 206.8963999999978,
      "v": 100
    },
    {
      "midi": 58,
      "hit": false,
      "t": 220344.66599999735,
      "d": 206.8963999999978,
      "v": 100
    },
    {
      "midi": 62,
      "hit": false,
      "t": 220344.66599999735,
      "d": 206.8963999999978,
      "v": 100
    },
    {
      "midi": 65,
      "hit": false,
      "t": 220344.66599999735,
      "d": 206.8963999999978,
      "v": 100
    },
    {
      "midi": 77,
      "hit": false,
      "t": 220344.6659999999,
      "d": 206.8963999999978,
      "v": 100
    },
    {
      "midi": 60,
      "hit": false,
      "t": 220603.28649999734,
      "d": 206.8963999999978,
      "v": 100
    },
    {
      "midi": 64,
      "hit": false,
      "t": 220603.28649999734,
      "d": 206.8963999999978,
      "v": 100
    },
    {
      "midi": 67,
      "hit": false,
      "t": 220603.28649999734,
      "d": 206.8963999999978,
      "v": 100
    },
    {
      "midi": 49,
      "hit": false,
      "t": 220603.28649999807,
      "d": 827.5855999999912,
      "v": 100
    },
    {
      "midi": 79,
      "hit": false,
      "t": 220603.2864999999,
      "d": 103.44820000001346,
      "v": 100
    },
    {
      "midi": 79,
      "hit": false,
      "t": 220732.5967499999,
      "d": 206.8963999999978,
      "v": 100
    },
    {
      "midi": 60,
      "hit": false,
      "t": 220861.90699999733,
      "d": 206.8963999999978,
      "v": 100
    },
    {
      "midi": 64,
      "hit": false,
      "t": 220861.90699999733,
      "d": 206.8963999999978,
      "v": 100
    },
    {
      "midi": 67,
      "hit": false,
      "t": 220861.90699999733,
      "d": 206.8963999999978,
      "v": 100
    },
    {
      "midi": 77,
      "hit": false,
      "t": 220991.2172499999,
      "d": 336.20665000000736,
      "v": 100
    },
    {
      "midi": 60,
      "hit": false,
      "t": 221120.52749999732,
      "d": 206.8963999999978,
      "v": 100
    },
    {
      "midi": 64,
      "hit": false,
      "t": 221120.52749999732,
      "d": 206.8963999999978,
      "v": 100
    },
    {
      "midi": 67,
      "hit": false,
      "t": 221120.52749999732,
      "d": 206.8963999999978,
      "v": 100
    },
    {
      "midi": 60,
      "hit": false,
      "t": 221379.1479999973,
      "d": 206.8963999999978,
      "v": 100
    },
    {
      "midi": 64,
      "hit": false,
      "t": 221379.1479999973,
      "d": 206.8963999999978,
      "v": 100
    },
    {
      "midi": 67,
      "hit": false,
      "t": 221379.1479999973,
      "d": 206.8963999999978,
      "v": 100
    },
    {
      "midi": 76,
      "hit": false,
      "t": 221379.1479999999,
      "d": 103.44820000001346,
      "v": 100
    },
    {
      "midi": 77,
      "hit": false,
      "t": 221508.4582499999,
      "d": 1784.481449999992,
      "v": 100
    },
    {
      "midi": 53,
      "hit": false,
      "t": 221637.7684999973,
      "d": 206.8963999999978,
      "v": 100
    },
    {
      "midi": 57,
      "hit": false,
      "t": 221637.7684999973,
      "d": 206.8963999999978,
      "v": 100
    },
    {
      "midi": 60,
      "hit": false,
      "t": 221637.7684999973,
      "d": 206.8963999999978,
      "v": 100
    },
    {
      "midi": 49,
      "hit": false,
      "t": 221637.76849999806,
      "d": 206.8963999999978,
      "v": 100
    },
    {
      "midi": 54,
      "hit": false,
      "t": 221637.76849999806,
      "d": 206.8963999999978,
      "v": 100
    },
    {
      "midi": 53,
      "hit": false,
      "t": 221896.3889999973,
      "d": 206.8963999999978,
      "v": 100
    },
    {
      "midi": 57,
      "hit": false,
      "t": 221896.3889999973,
      "d": 206.8963999999978,
      "v": 100
    },
    {
      "midi": 60,
      "hit": false,
      "t": 221896.3889999973,
      "d": 206.8963999999978,
      "v": 100
    },
    {
      "midi": 54,
      "hit": false,
      "t": 221896.38899999805,
      "d": 206.8963999999978,
      "v": 100
    },
    {
      "midi": 53,
      "hit": false,
      "t": 222155.00949999728,
      "d": 206.8963999999978,
      "v": 100
    },
    {
      "midi": 57,
      "hit": false,
      "t": 222155.00949999728,
      "d": 206.8963999999978,
      "v": 100
    },
    {
      "midi": 60,
      "hit": false,
      "t": 222155.00949999728,
      "d": 206.8963999999978,
      "v": 100
    },
    {
      "midi": 40,
      "hit": false,
      "t": 222155.00949999804,
      "d": 206.8963999999978,
      "v": 100
    },
    {
      "midi": 53,
      "hit": false,
      "t": 222413.62999999727,
      "d": 206.8963999999978,
      "v": 100
    },
    {
      "midi": 57,
      "hit": false,
      "t": 222413.62999999727,
      "d": 206.8963999999978,
      "v": 100
    },
    {
      "midi": 60,
      "hit": false,
      "t": 222413.62999999727,
      "d": 206.8963999999978,
      "v": 100
    },
    {
      "midi": 54,
      "hit": false,
      "t": 222413.62999999803,
      "d": 206.8963999999978,
      "v": 100
    },
    {
      "midi": 53,
      "hit": false,
      "t": 222672.25049999726,
      "d": 206.8963999999978,
      "v": 100
    },
    {
      "midi": 57,
      "hit": false,
      "t": 222672.25049999726,
      "d": 206.8963999999978,
      "v": 100
    },
    {
      "midi": 60,
      "hit": false,
      "t": 222672.25049999726,
      "d": 206.8963999999978,
      "v": 100
    },
    {
      "midi": 54,
      "hit": false,
      "t": 222672.25049999802,
      "d": 206.8963999999978,
      "v": 100
    },
    {
      "midi": 53,
      "hit": false,
      "t": 222930.87099999725,
      "d": 206.8963999999978,
      "v": 100
    },
    {
      "midi": 57,
      "hit": false,
      "t": 222930.87099999725,
      "d": 206.8963999999978,
      "v": 100
    },
    {
      "midi": 60,
      "hit": false,
      "t": 222930.87099999725,
      "d": 206.8963999999978,
      "v": 100
    },
    {
      "midi": 54,
      "hit": false,
      "t": 222930.870999998,
      "d": 206.8963999999978,
      "v": 100
    },
    {
      "midi": 53,
      "hit": false,
      "t": 223189.49149999724,
      "d": 206.8963999999978,
      "v": 100
    },
    {
      "midi": 57,
      "hit": false,
      "t": 223189.49149999724,
      "d": 206.8963999999978,
      "v": 100
    },
    {
      "midi": 60,
      "hit": false,
      "t": 223189.49149999724,
      "d": 206.8963999999978,
      "v": 100
    },
    {
      "midi": 40,
      "hit": false,
      "t": 223189.491499998,
      "d": 206.8963999999978,
      "v": 100
    },
    {
      "midi": 53,
      "hit": false,
      "t": 223448.11199999723,
      "d": 206.8963999999978,
      "v": 100
    },
    {
      "midi": 57,
      "hit": false,
      "t": 223448.11199999723,
      "d": 206.8963999999978,
      "v": 100
    },
    {
      "midi": 60,
      "hit": false,
      "t": 223448.11199999723,
      "d": 206.8963999999978,
      "v": 100
    },
    {
      "midi": 54,
      "hit": false,
      "t": 223448.111999998,
      "d": 206.8963999999978,
      "v": 100
    },
    {
      "midi": 53,
      "hit": false,
      "t": 223706.73249999722,
      "d": 206.8963999999978,
      "v": 100
    },
    {
      "midi": 57,
      "hit": false,
      "t": 223706.73249999722,
      "d": 206.8963999999978,
      "v": 100
    },
    {
      "midi": 60,
      "hit": false,
      "t": 223706.73249999722,
      "d": 206.8963999999978,
      "v": 100
    },
    {
      "midi": 49,
      "hit": false,
      "t": 223706.73249999798,
      "d": 206.8963999999978,
      "v": 100
    },
    {
      "midi": 54,
      "hit": false,
      "t": 223706.73249999798,
      "d": 206.8963999999978,
      "v": 100
    },
    {
      "midi": 53,
      "hit": false,
      "t": 223965.3529999972,
      "d": 206.8963999999978,
      "v": 100
    },
    {
      "midi": 57,
      "hit": false,
      "t": 223965.3529999972,
      "d": 206.8963999999978,
      "v": 100
    },
    {
      "midi": 60,
      "hit": false,
      "t": 223965.3529999972,
      "d": 206.8963999999978,
      "v": 100
    },
    {
      "midi": 54,
      "hit": false,
      "t": 223965.35299999797,
      "d": 206.8963999999978,
      "v": 100
    },
    {
      "midi": 53,
      "hit": false,
      "t": 224223.9734999972,
      "d": 206.8963999999978,
      "v": 100
    },
    {
      "midi": 57,
      "hit": false,
      "t": 224223.9734999972,
      "d": 206.8963999999978,
      "v": 100
    },
    {
      "midi": 60,
      "hit": false,
      "t": 224223.9734999972,
      "d": 206.8963999999978,
      "v": 100
    },
    {
      "midi": 40,
      "hit": false,
      "t": 224223.97349999796,
      "d": 206.8963999999978,
      "v": 100
    },
    {
      "midi": 53,
      "hit": false,
      "t": 224482.5939999972,
      "d": 206.8963999999978,
      "v": 100
    },
    {
      "midi": 57,
      "hit": false,
      "t": 224482.5939999972,
      "d": 206.8963999999978,
      "v": 100
    },
    {
      "midi": 60,
      "hit": false,
      "t": 224482.5939999972,
      "d": 206.8963999999978,
      "v": 100
    },
    {
      "midi": 54,
      "hit": false,
      "t": 224482.59399999795,
      "d": 206.8963999999978,
      "v": 100
    },
    {
      "midi": 53,
      "hit": false,
      "t": 224741.21449999718,
      "d": 206.8963999999978,
      "v": 100
    },
    {
      "midi": 57,
      "hit": false,
      "t": 224741.21449999718,
      "d": 206.8963999999978,
      "v": 100
    },
    {
      "midi": 60,
      "hit": false,
      "t": 224741.21449999718,
      "d": 206.8963999999978,
      "v": 100
    },
    {
      "midi": 40,
      "hit": false,
      "t": 224741.21449999794,
      "d": 103.44820000001346,
      "v": 100
    },
    {
      "midi": 40,
      "hit": false,
      "t": 224870.52474999795,
      "d": 103.44820000001346,
      "v": 100
    },
    {
      "midi": 53,
      "hit": false,
      "t": 224999.83499999717,
      "d": 206.8963999999978,
      "v": 100
    },
    {
      "midi": 57,
      "hit": false,
      "t": 224999.83499999717,
      "d": 206.8963999999978,
      "v": 100
    },
    {
      "midi": 60,
      "hit": false,
      "t": 224999.83499999717,
      "d": 206.8963999999978,
      "v": 100
    },
    {
      "midi": 40,
      "hit": false,
      "t": 224999.83499999795,
      "d": 103.44820000001346,
      "v": 100
    },
    {
      "midi": 40,
      "hit": false,
      "t": 225129.14524999796,
      "d": 103.44820000001346,
      "v": 100
    },
    {
      "midi": 53,
      "hit": false,
      "t": 225258.45549999716,
      "d": 206.8963999999978,
      "v": 100
    },
    {
      "midi": 57,
      "hit": false,
      "t": 225258.45549999716,
      "d": 206.8963999999978,
      "v": 100
    },
    {
      "midi": 60,
      "hit": false,
      "t": 225258.45549999716,
      "d": 206.8963999999978,
      "v": 100
    },
    {
      "midi": 49,
      "hit": false,
      "t": 225258.45549999797,
      "d": 103.44820000001346,
      "v": 100
    },
    {
      "midi": 40,
      "hit": false,
      "t": 225258.45549999797,
      "d": 103.44820000001346,
      "v": 100
    },
    {
      "midi": 49,
      "hit": false,
      "t": 225387.76574999798,
      "d": 103.44820000001346,
      "v": 100
    },
    {
      "midi": 40,
      "hit": false,
      "t": 225387.76574999798,
      "d": 103.44820000001346,
      "v": 100
    },
    {
      "midi": 53,
      "hit": false,
      "t": 225517.07599999715,
      "d": 206.8963999999978,
      "v": 100
    },
    {
      "midi": 57,
      "hit": false,
      "t": 225517.07599999715,
      "d": 206.8963999999978,
      "v": 100
    },
    {
      "midi": 60,
      "hit": false,
      "t": 225517.07599999715,
      "d": 206.8963999999978,
      "v": 100
    },
    {
      "midi": 49,
      "hit": false,
      "t": 225517.075999998,
      "d": 103.44820000001346,
      "v": 100
    },
    {
      "midi": 40,
      "hit": false,
      "t": 225517.075999998,
      "d": 103.44820000001346,
      "v": 100
    },
    {
      "midi": 62,
      "hit": false,
      "t": 225517.07599999924,
      "d": 206.8963999999978,
      "v": 100
    },
    {
      "midi": 49,
      "hit": false,
      "t": 225646.386249998,
      "d": 103.44820000001346,
      "v": 100
    },
    {
      "midi": 40,
      "hit": false,
      "t": 225646.386249998,
      "d": 103.44820000001346,
      "v": 100
    },
    {
      "midi": 50,
      "hit": false,
      "t": 225775.69649999714,
      "d": 206.8963999999978,
      "v": 100
    },
    {
      "midi": 54,
      "hit": false,
      "t": 225775.69649999714,
      "d": 206.8963999999978,
      "v": 100
    },
    {
      "midi": 57,
      "hit": false,
      "t": 225775.69649999714,
      "d": 206.8963999999978,
      "v": 100
    },
    {
      "midi": 54,
      "hit": false,
      "t": 225775.696499998,
      "d": 206.8963999999978,
      "v": 100
    },
    {
      "midi": 49,
      "hit": false,
      "t": 225775.696499998,
      "d": 206.8963999999978,
      "v": 100
    },
    {
      "midi": 62,
      "hit": false,
      "t": 225775.69649999923,
      "d": 827.5855999999912,
      "v": 100
    },
    {
      "midi": 50,
      "hit": false,
      "t": 226034.31699999713,
      "d": 206.8963999999978,
      "v": 100
    },
    {
      "midi": 54,
      "hit": false,
      "t": 226034.31699999713,
      "d": 206.8963999999978,
      "v": 100
    },
    {
      "midi": 57,
      "hit": false,
      "t": 226034.31699999713,
      "d": 206.8963999999978,
      "v": 100
    },
    {
      "midi": 54,
      "hit": false,
      "t": 226034.316999998,
      "d": 206.8963999999978,
      "v": 100
    },
    {
      "midi": 50,
      "hit": false,
      "t": 226292.93749999712,
      "d": 206.8963999999978,
      "v": 100
    },
    {
      "midi": 54,
      "hit": false,
      "t": 226292.93749999712,
      "d": 206.8963999999978,
      "v": 100
    },
    {
      "midi": 57,
      "hit": false,
      "t": 226292.93749999712,
      "d": 206.8963999999978,
      "v": 100
    },
    {
      "midi": 40,
      "hit": false,
      "t": 226292.937499998,
      "d": 206.8963999999978,
      "v": 100
    },
    {
      "midi": 50,
      "hit": false,
      "t": 226551.5579999971,
      "d": 206.8963999999978,
      "v": 100
    },
    {
      "midi": 54,
      "hit": false,
      "t": 226551.5579999971,
      "d": 206.8963999999978,
      "v": 100
    },
    {
      "midi": 57,
      "hit": false,
      "t": 226551.5579999971,
      "d": 206.8963999999978,
      "v": 100
    },
    {
      "midi": 54,
      "hit": false,
      "t": 226551.55799999798,
      "d": 206.8963999999978,
      "v": 100
    },
    {
      "midi": 57,
      "hit": false,
      "t": 226810.1784999971,
      "d": 206.8963999999978,
      "v": 100
    },
    {
      "midi": 61,
      "hit": false,
      "t": 226810.1784999971,
      "d": 206.8963999999978,
      "v": 100
    },
    {
      "midi": 64,
      "hit": false,
      "t": 226810.1784999971,
      "d": 206.8963999999978,
      "v": 100
    },
    {
      "midi": 54,
      "hit": false,
      "t": 226810.17849999797,
      "d": 206.8963999999978,
      "v": 100
    },
    {
      "midi": 69,
      "hit": false,
      "t": 226810.17849999922,
      "d": 827.5855999999912,
      "v": 100
    },
    {
      "midi": 57,
      "hit": false,
      "t": 227068.7989999971,
      "d": 206.8963999999978,
      "v": 100
    },
    {
      "midi": 61,
      "hit": false,
      "t": 227068.7989999971,
      "d": 206.8963999999978,
      "v": 100
    },
    {
      "midi": 64,
      "hit": false,
      "t": 227068.7989999971,
      "d": 206.8963999999978,
      "v": 100
    },
    {
      "midi": 54,
      "hit": false,
      "t": 227068.79899999796,
      "d": 206.8963999999978,
      "v": 100
    },
    {
      "midi": 57,
      "hit": false,
      "t": 227327.41949999708,
      "d": 206.8963999999978,
      "v": 100
    },
    {
      "midi": 61,
      "hit": false,
      "t": 227327.41949999708,
      "d": 206.8963999999978,
      "v": 100
    },
    {
      "midi": 64,
      "hit": false,
      "t": 227327.41949999708,
      "d": 206.8963999999978,
      "v": 100
    },
    {
      "midi": 40,
      "hit": false,
      "t": 227327.41949999795,
      "d": 206.8963999999978,
      "v": 100
    },
    {
      "midi": 57,
      "hit": false,
      "t": 227586.03999999707,
      "d": 206.8963999999978,
      "v": 100
    },
    {
      "midi": 61,
      "hit": false,
      "t": 227586.03999999707,
      "d": 206.8963999999978,
      "v": 100
    },
    {
      "midi": 64,
      "hit": false,
      "t": 227586.03999999707,
      "d": 206.8963999999978,
      "v": 100
    },
    {
      "midi": 54,
      "hit": false,
      "t": 227586.03999999794,
      "d": 206.8963999999978,
      "v": 100
    },
    {
      "midi": 55,
      "hit": false,
      "t": 227844.66049999706,
      "d": 206.8963999999978,
      "v": 100
    },
    {
      "midi": 59,
      "hit": false,
      "t": 227844.66049999706,
      "d": 206.8963999999978,
      "v": 100
    },
    {
      "midi": 62,
      "hit": false,
      "t": 227844.66049999706,
      "d": 206.8963999999978,
      "v": 100
    },
    {
      "midi": 49,
      "hit": false,
      "t": 227844.66049999793,
      "d": 206.8963999999978,
      "v": 100
    },
    {
      "midi": 54,
      "hit": false,
      "t": 227844.66049999793,
      "d": 206.8963999999978,
      "v": 100
    },
    {
      "midi": 67,
      "hit": false,
      "t": 227844.6604999992,
      "d": 310.34460000001127,
      "v": 100
    },
    {
      "midi": 55,
      "hit": false,
      "t": 228103.28099999705,
      "d": 206.8963999999978,
      "v": 100
    },
    {
      "midi": 59,
      "hit": false,
      "t": 228103.28099999705,
      "d": 206.8963999999978,
      "v": 100
    },
    {
      "midi": 62,
      "hit": false,
      "t": 228103.28099999705,
      "d": 206.8963999999978,
      "v": 100
    },
    {
      "midi": 54,
      "hit": false,
      "t": 228103.28099999792,
      "d": 206.8963999999978,
      "v": 100
    },
    {
      "midi": 66,
      "hit": false,
      "t": 228232.5912499992,
      "d": 336.20665000000736,
      "v": 100
    },
    {
      "midi": 55,
      "hit": false,
      "t": 228361.90149999704,
      "d": 206.8963999999978,
      "v": 100
    },
    {
      "midi": 59,
      "hit": false,
      "t": 228361.90149999704,
      "d": 206.8963999999978,
      "v": 100
    },
    {
      "midi": 62,
      "hit": false,
      "t": 228361.90149999704,
      "d": 206.8963999999978,
      "v": 100
    },
    {
      "midi": 40,
      "hit": false,
      "t": 228361.9014999979,
      "d": 206.8963999999978,
      "v": 100
    },
    {
      "midi": 55,
      "hit": false,
      "t": 228620.52199999703,
      "d": 206.8963999999978,
      "v": 100
    },
    {
      "midi": 59,
      "hit": false,
      "t": 228620.52199999703,
      "d": 206.8963999999978,
      "v": 100
    },
    {
      "midi": 62,
      "hit": false,
      "t": 228620.52199999703,
      "d": 206.8963999999978,
      "v": 100
    },
    {
      "midi": 54,
      "hit": false,
      "t": 228620.5219999979,
      "d": 206.8963999999978,
      "v": 100
    },
    {
      "midi": 64,
      "hit": false,
      "t": 228620.5219999992,
      "d": 206.8963999999978,
      "v": 100
    },
    {
      "midi": 50,
      "hit": false,
      "t": 228879.14249999702,
      "d": 206.8963999999978,
      "v": 100
    },
    {
      "midi": 54,
      "hit": false,
      "t": 228879.14249999702,
      "d": 206.8963999999978,
      "v": 100
    },
    {
      "midi": 57,
      "hit": false,
      "t": 228879.14249999702,
      "d": 206.8963999999978,
      "v": 100
    },
    {
      "midi": 54,
      "hit": false,
      "t": 228879.1424999979,
      "d": 206.8963999999978,
      "v": 100
    },
    {
      "midi": 62,
      "hit": false,
      "t": 228879.1424999992,
      "d": 413.7927999999956,
      "v": 100
    },
    {
      "midi": 50,
      "hit": false,
      "t": 229137.762999997,
      "d": 206.8963999999978,
      "v": 100
    },
    {
      "midi": 54,
      "hit": false,
      "t": 229137.762999997,
      "d": 206.8963999999978,
      "v": 100
    },
    {
      "midi": 57,
      "hit": false,
      "t": 229137.762999997,
      "d": 206.8963999999978,
      "v": 100
    },
    {
      "midi": 54,
      "hit": false,
      "t": 229137.76299999788,
      "d": 206.8963999999978,
      "v": 100
    },
    {
      "midi": 50,
      "hit": false,
      "t": 229396.383499997,
      "d": 206.8963999999978,
      "v": 100
    },
    {
      "midi": 54,
      "hit": false,
      "t": 229396.383499997,
      "d": 206.8963999999978,
      "v": 100
    },
    {
      "midi": 57,
      "hit": false,
      "t": 229396.383499997,
      "d": 206.8963999999978,
      "v": 100
    },
    {
      "midi": 40,
      "hit": false,
      "t": 229396.38349999787,
      "d": 206.8963999999978,
      "v": 100
    },
    {
      "midi": 61,
      "hit": false,
      "t": 229396.3834999992,
      "d": 413.7927999999956,
      "v": 100
    },
    {
      "midi": 50,
      "hit": false,
      "t": 229655.003999997,
      "d": 206.8963999999978,
      "v": 100
    },
    {
      "midi": 54,
      "hit": false,
      "t": 229655.003999997,
      "d": 206.8963999999978,
      "v": 100
    },
    {
      "midi": 57,
      "hit": false,
      "t": 229655.003999997,
      "d": 206.8963999999978,
      "v": 100
    },
    {
      "midi": 54,
      "hit": false,
      "t": 229655.00399999786,
      "d": 206.8963999999978,
      "v": 100
    },
    {
      "midi": 55,
      "hit": false,
      "t": 229913.62449999698,
      "d": 206.8963999999978,
      "v": 100
    },
    {
      "midi": 59,
      "hit": false,
      "t": 229913.62449999698,
      "d": 206.8963999999978,
      "v": 100
    },
    {
      "midi": 62,
      "hit": false,
      "t": 229913.62449999698,
      "d": 206.8963999999978,
      "v": 100
    },
    {
      "midi": 54,
      "hit": false,
      "t": 229913.62449999785,
      "d": 206.8963999999978,
      "v": 100
    },
    {
      "midi": 49,
      "hit": false,
      "t": 229913.62449999785,
      "d": 206.8963999999978,
      "v": 100
    },
    {
      "midi": 59,
      "hit": false,
      "t": 229913.62449999922,
      "d": 827.5855999999912,
      "v": 100
    },
    {
      "midi": 55,
      "hit": false,
      "t": 230172.24499999697,
      "d": 206.8963999999978,
      "v": 100
    },
    {
      "midi": 59,
      "hit": false,
      "t": 230172.24499999697,
      "d": 206.8963999999978,
      "v": 100
    },
    {
      "midi": 62,
      "hit": false,
      "t": 230172.24499999697,
      "d": 206.8963999999978,
      "v": 100
    },
    {
      "midi": 54,
      "hit": false,
      "t": 230172.24499999784,
      "d": 206.8963999999978,
      "v": 100
    },
    {
      "midi": 55,
      "hit": false,
      "t": 230430.86549999696,
      "d": 206.8963999999978,
      "v": 100
    },
    {
      "midi": 59,
      "hit": false,
      "t": 230430.86549999696,
      "d": 206.8963999999978,
      "v": 100
    },
    {
      "midi": 62,
      "hit": false,
      "t": 230430.86549999696,
      "d": 206.8963999999978,
      "v": 100
    },
    {
      "midi": 40,
      "hit": false,
      "t": 230430.86549999783,
      "d": 206.8963999999978,
      "v": 100
    },
    {
      "midi": 55,
      "hit": false,
      "t": 230689.48599999695,
      "d": 206.8963999999978,
      "v": 100
    },
    {
      "midi": 59,
      "hit": false,
      "t": 230689.48599999695,
      "d": 206.8963999999978,
      "v": 100
    },
    {
      "midi": 62,
      "hit": false,
      "t": 230689.48599999695,
      "d": 206.8963999999978,
      "v": 100
    },
    {
      "midi": 54,
      "hit": false,
      "t": 230689.48599999782,
      "d": 206.8963999999978,
      "v": 100
    },
    {
      "midi": 57,
      "hit": false,
      "t": 230948.10649999694,
      "d": 206.8963999999978,
      "v": 100
    },
    {
      "midi": 61,
      "hit": false,
      "t": 230948.10649999694,
      "d": 206.8963999999978,
      "v": 100
    },
    {
      "midi": 64,
      "hit": false,
      "t": 230948.10649999694,
      "d": 206.8963999999978,
      "v": 100
    },
    {
      "midi": 54,
      "hit": false,
      "t": 230948.1064999978,
      "d": 206.8963999999978,
      "v": 100
    },
    {
      "midi": 61,
      "hit": false,
      "t": 230948.1064999992,
      "d": 310.34460000001127,
      "v": 100
    },
    {
      "midi": 57,
      "hit": false,
      "t": 231206.72699999693,
      "d": 206.8963999999978,
      "v": 100
    },
    {
      "midi": 61,
      "hit": false,
      "t": 231206.72699999693,
      "d": 206.8963999999978,
      "v": 100
    },
    {
      "midi": 64,
      "hit": false,
      "t": 231206.72699999693,
      "d": 206.8963999999978,
      "v": 100
    },
    {
      "midi": 54,
      "hit": false,
      "t": 231206.7269999978,
      "d": 206.8963999999978,
      "v": 100
    },
    {
      "midi": 64,
      "hit": false,
      "t": 231336.0372499992,
      "d": 336.20665000000736,
      "v": 100
    },
    {
      "midi": 57,
      "hit": false,
      "t": 231465.34749999692,
      "d": 206.8963999999978,
      "v": 100
    },
    {
      "midi": 61,
      "hit": false,
      "t": 231465.34749999692,
      "d": 206.8963999999978,
      "v": 100
    },
    {
      "midi": 64,
      "hit": false,
      "t": 231465.34749999692,
      "d": 206.8963999999978,
      "v": 100
    },
    {
      "midi": 40,
      "hit": false,
      "t": 231465.3474999978,
      "d": 206.8963999999978,
      "v": 100
    },
    {
      "midi": 57,
      "hit": false,
      "t": 231723.9679999969,
      "d": 206.8963999999978,
      "v": 100
    },
    {
      "midi": 61,
      "hit": false,
      "t": 231723.9679999969,
      "d": 206.8963999999978,
      "v": 100
    },
    {
      "midi": 64,
      "hit": false,
      "t": 231723.9679999969,
      "d": 206.8963999999978,
      "v": 100
    },
    {
      "midi": 54,
      "hit": false,
      "t": 231723.96799999778,
      "d": 206.8963999999978,
      "v": 100
    },
    {
      "midi": 61,
      "hit": false,
      "t": 231723.9679999992,
      "d": 206.8963999999978,
      "v": 100
    },
    {
      "midi": 50,
      "hit": false,
      "t": 231982.5884999969,
      "d": 206.8963999999978,
      "v": 100
    },
    {
      "midi": 54,
      "hit": false,
      "t": 231982.5884999969,
      "d": 206.8963999999978,
      "v": 100
    },
    {
      "midi": 57,
      "hit": false,
      "t": 231982.5884999969,
      "d": 206.8963999999978,
      "v": 100
    },
    {
      "midi": 49,
      "hit": false,
      "t": 231982.58849999777,
      "d": 206.8963999999978,
      "v": 100
    },
    {
      "midi": 54,
      "hit": false,
      "t": 231982.58849999777,
      "d": 206.8963999999978,
      "v": 100
    },
    {
      "midi": 62,
      "hit": false,
      "t": 231982.5884999992,
      "d": 827.5855999999912,
      "v": 100
    },
    {
      "midi": 50,
      "hit": false,
      "t": 232241.2089999969,
      "d": 206.8963999999978,
      "v": 100
    },
    {
      "midi": 54,
      "hit": false,
      "t": 232241.2089999969,
      "d": 206.8963999999978,
      "v": 100
    },
    {
      "midi": 57,
      "hit": false,
      "t": 232241.2089999969,
      "d": 206.8963999999978,
      "v": 100
    },
    {
      "midi": 54,
      "hit": false,
      "t": 232241.20899999776,
      "d": 206.8963999999978,
      "v": 100
    },
    {
      "midi": 50,
      "hit": false,
      "t": 232499.82949999688,
      "d": 206.8963999999978,
      "v": 100
    },
    {
      "midi": 54,
      "hit": false,
      "t": 232499.82949999688,
      "d": 206.8963999999978,
      "v": 100
    },
    {
      "midi": 57,
      "hit": false,
      "t": 232499.82949999688,
      "d": 206.8963999999978,
      "v": 100
    },
    {
      "midi": 40,
      "hit": false,
      "t": 232499.82949999775,
      "d": 206.8963999999978,
      "v": 100
    },
    {
      "midi": 50,
      "hit": false,
      "t": 232758.44999999687,
      "d": 206.8963999999978,
      "v": 100
    },
    {
      "midi": 54,
      "hit": false,
      "t": 232758.44999999687,
      "d": 206.8963999999978,
      "v": 100
    },
    {
      "midi": 57,
      "hit": false,
      "t": 232758.44999999687,
      "d": 206.8963999999978,
      "v": 100
    },
    {
      "midi": 54,
      "hit": false,
      "t": 232758.44999999774,
      "d": 206.8963999999978,
      "v": 100
    },
    {
      "midi": 57,
      "hit": false,
      "t": 233017.07049999686,
      "d": 206.8963999999978,
      "v": 100
    },
    {
      "midi": 61,
      "hit": false,
      "t": 233017.07049999686,
      "d": 206.8963999999978,
      "v": 100
    },
    {
      "midi": 64,
      "hit": false,
      "t": 233017.07049999686,
      "d": 206.8963999999978,
      "v": 100
    },
    {
      "midi": 54,
      "hit": false,
      "t": 233017.07049999773,
      "d": 206.8963999999978,
      "v": 100
    },
    {
      "midi": 69,
      "hit": false,
      "t": 233017.0704999992,
      "d": 827.5855999999912,
      "v": 100
    },
    {
      "midi": 57,
      "hit": false,
      "t": 233275.69099999685,
      "d": 206.8963999999978,
      "v": 100
    },
    {
      "midi": 61,
      "hit": false,
      "t": 233275.69099999685,
      "d": 206.8963999999978,
      "v": 100
    },
    {
      "midi": 64,
      "hit": false,
      "t": 233275.69099999685,
      "d": 206.8963999999978,
      "v": 100
    },
    {
      "midi": 54,
      "hit": false,
      "t": 233275.69099999772,
      "d": 206.8963999999978,
      "v": 100
    },
    {
      "midi": 57,
      "hit": false,
      "t": 233534.31149999684,
      "d": 206.8963999999978,
      "v": 100
    },
    {
      "midi": 61,
      "hit": false,
      "t": 233534.31149999684,
      "d": 206.8963999999978,
      "v": 100
    },
    {
      "midi": 64,
      "hit": false,
      "t": 233534.31149999684,
      "d": 206.8963999999978,
      "v": 100
    },
    {
      "midi": 40,
      "hit": false,
      "t": 233534.3114999977,
      "d": 206.8963999999978,
      "v": 100
    },
    {
      "midi": 57,
      "hit": false,
      "t": 233792.93199999683,
      "d": 206.8963999999978,
      "v": 100
    },
    {
      "midi": 61,
      "hit": false,
      "t": 233792.93199999683,
      "d": 206.8963999999978,
      "v": 100
    },
    {
      "midi": 64,
      "hit": false,
      "t": 233792.93199999683,
      "d": 206.8963999999978,
      "v": 100
    },
    {
      "midi": 54,
      "hit": false,
      "t": 233792.9319999977,
      "d": 206.8963999999978,
      "v": 100
    },
    {
      "midi": 50,
      "hit": false,
      "t": 234051.55249999682,
      "d": 206.8963999999978,
      "v": 100
    },
    {
      "midi": 54,
      "hit": false,
      "t": 234051.55249999682,
      "d": 206.8963999999978,
      "v": 100
    },
    {
      "midi": 57,
      "hit": false,
      "t": 234051.55249999682,
      "d": 206.8963999999978,
      "v": 100
    },
    {
      "midi": 54,
      "hit": false,
      "t": 234051.5524999977,
      "d": 206.8963999999978,
      "v": 100
    },
    {
      "midi": 49,
      "hit": false,
      "t": 234051.5524999977,
      "d": 206.8963999999978,
      "v": 100
    },
    {
      "midi": 62,
      "hit": false,
      "t": 234051.55249999918,
      "d": 827.5855999999912,
      "v": 100
    },
    {
      "midi": 50,
      "hit": false,
      "t": 234310.1729999968,
      "d": 206.8963999999978,
      "v": 100
    },
    {
      "midi": 54,
      "hit": false,
      "t": 234310.1729999968,
      "d": 206.8963999999978,
      "v": 100
    },
    {
      "midi": 57,
      "hit": false,
      "t": 234310.1729999968,
      "d": 206.8963999999978,
      "v": 100
    },
    {
      "midi": 54,
      "hit": false,
      "t": 234310.17299999768,
      "d": 206.8963999999978,
      "v": 100
    },
    {
      "midi": 50,
      "hit": false,
      "t": 234568.7934999968,
      "d": 206.8963999999978,
      "v": 100
    },
    {
      "midi": 54,
      "hit": false,
      "t": 234568.7934999968,
      "d": 206.8963999999978,
      "v": 100
    },
    {
      "midi": 57,
      "hit": false,
      "t": 234568.7934999968,
      "d": 206.8963999999978,
      "v": 100
    },
    {
      "midi": 40,
      "hit": false,
      "t": 234568.79349999767,
      "d": 206.8963999999978,
      "v": 100
    },
    {
      "midi": 50,
      "hit": false,
      "t": 234827.4139999968,
      "d": 206.8963999999978,
      "v": 100
    },
    {
      "midi": 54,
      "hit": false,
      "t": 234827.4139999968,
      "d": 206.8963999999978,
      "v": 100
    },
    {
      "midi": 57,
      "hit": false,
      "t": 234827.4139999968,
      "d": 206.8963999999978,
      "v": 100
    },
    {
      "midi": 54,
      "hit": false,
      "t": 234827.41399999766,
      "d": 206.8963999999978,
      "v": 100
    },
    {
      "midi": 57,
      "hit": false,
      "t": 235086.03449999678,
      "d": 206.8963999999978,
      "v": 100
    },
    {
      "midi": 61,
      "hit": false,
      "t": 235086.03449999678,
      "d": 206.8963999999978,
      "v": 100
    },
    {
      "midi": 64,
      "hit": false,
      "t": 235086.03449999678,
      "d": 206.8963999999978,
      "v": 100
    },
    {
      "midi": 54,
      "hit": false,
      "t": 235086.03449999765,
      "d": 206.8963999999978,
      "v": 100
    },
    {
      "midi": 69,
      "hit": false,
      "t": 235086.03449999916,
      "d": 827.5855999999912,
      "v": 100
    },
    {
      "midi": 57,
      "hit": false,
      "t": 235344.65499999677,
      "d": 206.8963999999978,
      "v": 100
    },
    {
      "midi": 61,
      "hit": false,
      "t": 235344.65499999677,
      "d": 206.8963999999978,
      "v": 100
    },
    {
      "midi": 64,
      "hit": false,
      "t": 235344.65499999677,
      "d": 206.8963999999978,
      "v": 100
    },
    {
      "midi": 54,
      "hit": false,
      "t": 235344.65499999764,
      "d": 206.8963999999978,
      "v": 100
    },
    {
      "midi": 57,
      "hit": false,
      "t": 235603.27549999676,
      "d": 206.8963999999978,
      "v": 100
    },
    {
      "midi": 61,
      "hit": false,
      "t": 235603.27549999676,
      "d": 206.8963999999978,
      "v": 100
    },
    {
      "midi": 64,
      "hit": false,
      "t": 235603.27549999676,
      "d": 206.8963999999978,
      "v": 100
    },
    {
      "midi": 40,
      "hit": false,
      "t": 235603.27549999763,
      "d": 206.8963999999978,
      "v": 100
    },
    {
      "midi": 57,
      "hit": false,
      "t": 235861.89599999675,
      "d": 206.8963999999978,
      "v": 100
    },
    {
      "midi": 61,
      "hit": false,
      "t": 235861.89599999675,
      "d": 206.8963999999978,
      "v": 100
    },
    {
      "midi": 64,
      "hit": false,
      "t": 235861.89599999675,
      "d": 206.8963999999978,
      "v": 100
    },
    {
      "midi": 54,
      "hit": false,
      "t": 235861.89599999762,
      "d": 206.8963999999978,
      "v": 100
    },
    {
      "midi": 55,
      "hit": false,
      "t": 236120.51649999674,
      "d": 206.8963999999978,
      "v": 100
    },
    {
      "midi": 59,
      "hit": false,
      "t": 236120.51649999674,
      "d": 206.8963999999978,
      "v": 100
    },
    {
      "midi": 62,
      "hit": false,
      "t": 236120.51649999674,
      "d": 206.8963999999978,
      "v": 100
    },
    {
      "midi": 49,
      "hit": false,
      "t": 236120.5164999976,
      "d": 206.8963999999978,
      "v": 100
    },
    {
      "midi": 54,
      "hit": false,
      "t": 236120.5164999976,
      "d": 206.8963999999978,
      "v": 100
    },
    {
      "midi": 67,
      "hit": false,
      "t": 236120.51649999915,
      "d": 310.34460000001127,
      "v": 100
    },
    {
      "midi": 55,
      "hit": false,
      "t": 236379.13699999673,
      "d": 206.8963999999978,
      "v": 100
    },
    {
      "midi": 59,
      "hit": false,
      "t": 236379.13699999673,
      "d": 206.8963999999978,
      "v": 100
    },
    {
      "midi": 62,
      "hit": false,
      "t": 236379.13699999673,
      "d": 206.8963999999978,
      "v": 100
    },
    {
      "midi": 54,
      "hit": false,
      "t": 236379.1369999976,
      "d": 206.8963999999978,
      "v": 100
    },
    {
      "midi": 66,
      "hit": false,
      "t": 236508.44724999915,
      "d": 336.20665000000736,
      "v": 100
    },
    {
      "midi": 55,
      "hit": false,
      "t": 236637.75749999672,
      "d": 206.8963999999978,
      "v": 100
    },
    {
      "midi": 59,
      "hit": false,
      "t": 236637.75749999672,
      "d": 206.8963999999978,
      "v": 100
    },
    {
      "midi": 62,
      "hit": false,
      "t": 236637.75749999672,
      "d": 206.8963999999978,
      "v": 100
    },
    {
      "midi": 40,
      "hit": false,
      "t": 236637.7574999976,
      "d": 206.8963999999978,
      "v": 100
    },
    {
      "midi": 55,
      "hit": false,
      "t": 236896.3779999967,
      "d": 206.8963999999978,
      "v": 100
    },
    {
      "midi": 59,
      "hit": false,
      "t": 236896.3779999967,
      "d": 206.8963999999978,
      "v": 100
    },
    {
      "midi": 62,
      "hit": false,
      "t": 236896.3779999967,
      "d": 206.8963999999978,
      "v": 100
    },
    {
      "midi": 54,
      "hit": false,
      "t": 236896.37799999758,
      "d": 206.8963999999978,
      "v": 100
    },
    {
      "midi": 64,
      "hit": false,
      "t": 236896.37799999915,
      "d": 206.8963999999978,
      "v": 100
    },
    {
      "midi": 50,
      "hit": false,
      "t": 237154.9984999967,
      "d": 206.8963999999978,
      "v": 100
    },
    {
      "midi": 54,
      "hit": false,
      "t": 237154.9984999967,
      "d": 206.8963999999978,
      "v": 100
    },
    {
      "midi": 57,
      "hit": false,
      "t": 237154.9984999967,
      "d": 206.8963999999978,
      "v": 100
    },
    {
      "midi": 54,
      "hit": false,
      "t": 237154.99849999757,
      "d": 206.8963999999978,
      "v": 100
    },
    {
      "midi": 62,
      "hit": false,
      "t": 237154.99849999914,
      "d": 413.7927999999956,
      "v": 100
    },
    {
      "midi": 50,
      "hit": false,
      "t": 237413.6189999967,
      "d": 206.8963999999978,
      "v": 100
    },
    {
      "midi": 54,
      "hit": false,
      "t": 237413.6189999967,
      "d": 206.8963999999978,
      "v": 100
    },
    {
      "midi": 57,
      "hit": false,
      "t": 237413.6189999967,
      "d": 206.8963999999978,
      "v": 100
    },
    {
      "midi": 54,
      "hit": false,
      "t": 237413.61899999756,
      "d": 206.8963999999978,
      "v": 100
    },
    {
      "midi": 50,
      "hit": false,
      "t": 237672.23949999668,
      "d": 206.8963999999978,
      "v": 100
    },
    {
      "midi": 54,
      "hit": false,
      "t": 237672.23949999668,
      "d": 206.8963999999978,
      "v": 100
    },
    {
      "midi": 57,
      "hit": false,
      "t": 237672.23949999668,
      "d": 206.8963999999978,
      "v": 100
    },
    {
      "midi": 40,
      "hit": false,
      "t": 237672.23949999755,
      "d": 206.8963999999978,
      "v": 100
    },
    {
      "midi": 61,
      "hit": false,
      "t": 237672.23949999915,
      "d": 413.7927999999956,
      "v": 100
    },
    {
      "midi": 50,
      "hit": false,
      "t": 237930.85999999667,
      "d": 206.8963999999978,
      "v": 100
    },
    {
      "midi": 54,
      "hit": false,
      "t": 237930.85999999667,
      "d": 206.8963999999978,
      "v": 100
    },
    {
      "midi": 57,
      "hit": false,
      "t": 237930.85999999667,
      "d": 206.8963999999978,
      "v": 100
    },
    {
      "midi": 54,
      "hit": false,
      "t": 237930.85999999754,
      "d": 206.8963999999978,
      "v": 100
    },
    {
      "midi": 55,
      "hit": false,
      "t": 238189.48049999666,
      "d": 206.8963999999978,
      "v": 100
    },
    {
      "midi": 59,
      "hit": false,
      "t": 238189.48049999666,
      "d": 206.8963999999978,
      "v": 100
    },
    {
      "midi": 62,
      "hit": false,
      "t": 238189.48049999666,
      "d": 206.8963999999978,
      "v": 100
    },
    {
      "midi": 54,
      "hit": false,
      "t": 238189.48049999753,
      "d": 206.8963999999978,
      "v": 100
    },
    {
      "midi": 49,
      "hit": false,
      "t": 238189.48049999753,
      "d": 206.8963999999978,
      "v": 100
    },
    {
      "midi": 59,
      "hit": false,
      "t": 238189.48049999916,
      "d": 827.5855999999912,
      "v": 100
    },
    {
      "midi": 55,
      "hit": false,
      "t": 238448.10099999665,
      "d": 206.8963999999978,
      "v": 100
    },
    {
      "midi": 59,
      "hit": false,
      "t": 238448.10099999665,
      "d": 206.8963999999978,
      "v": 100
    },
    {
      "midi": 62,
      "hit": false,
      "t": 238448.10099999665,
      "d": 206.8963999999978,
      "v": 100
    },
    {
      "midi": 54,
      "hit": false,
      "t": 238448.10099999752,
      "d": 206.8963999999978,
      "v": 100
    },
    {
      "midi": 55,
      "hit": false,
      "t": 238706.72149999664,
      "d": 206.8963999999978,
      "v": 100
    },
    {
      "midi": 59,
      "hit": false,
      "t": 238706.72149999664,
      "d": 206.8963999999978,
      "v": 100
    },
    {
      "midi": 62,
      "hit": false,
      "t": 238706.72149999664,
      "d": 206.8963999999978,
      "v": 100
    },
    {
      "midi": 40,
      "hit": false,
      "t": 238706.7214999975,
      "d": 206.8963999999978,
      "v": 100
    },
    {
      "midi": 55,
      "hit": false,
      "t": 238965.34199999663,
      "d": 206.8963999999978,
      "v": 100
    },
    {
      "midi": 59,
      "hit": false,
      "t": 238965.34199999663,
      "d": 206.8963999999978,
      "v": 100
    },
    {
      "midi": 62,
      "hit": false,
      "t": 238965.34199999663,
      "d": 206.8963999999978,
      "v": 100
    },
    {
      "midi": 54,
      "hit": false,
      "t": 238965.3419999975,
      "d": 206.8963999999978,
      "v": 100
    },
    {
      "midi": 57,
      "hit": false,
      "t": 239223.96249999662,
      "d": 206.8963999999978,
      "v": 100
    },
    {
      "midi": 61,
      "hit": false,
      "t": 239223.96249999662,
      "d": 206.8963999999978,
      "v": 100
    },
    {
      "midi": 64,
      "hit": false,
      "t": 239223.96249999662,
      "d": 206.8963999999978,
      "v": 100
    },
    {
      "midi": 54,
      "hit": false,
      "t": 239223.9624999975,
      "d": 206.8963999999978,
      "v": 100
    },
    {
      "midi": 61,
      "hit": false,
      "t": 239223.96249999915,
      "d": 827.5855999999912,
      "v": 100
    },
    {
      "midi": 57,
      "hit": false,
      "t": 239482.5829999966,
      "d": 206.8963999999978,
      "v": 100
    },
    {
      "midi": 61,
      "hit": false,
      "t": 239482.5829999966,
      "d": 206.8963999999978,
      "v": 100
    },
    {
      "midi": 64,
      "hit": false,
      "t": 239482.5829999966,
      "d": 206.8963999999978,
      "v": 100
    },
    {
      "midi": 54,
      "hit": false,
      "t": 239482.58299999748,
      "d": 206.8963999999978,
      "v": 100
    },
    {
      "midi": 57,
      "hit": false,
      "t": 239741.2034999966,
      "d": 206.8963999999978,
      "v": 100
    },
    {
      "midi": 61,
      "hit": false,
      "t": 239741.2034999966,
      "d": 206.8963999999978,
      "v": 100
    },
    {
      "midi": 64,
      "hit": false,
      "t": 239741.2034999966,
      "d": 206.8963999999978,
      "v": 100
    },
    {
      "midi": 40,
      "hit": false,
      "t": 239741.20349999747,
      "d": 206.8963999999978,
      "v": 100
    },
    {
      "midi": 57,
      "hit": false,
      "t": 239999.8239999966,
      "d": 206.8963999999978,
      "v": 100
    },
    {
      "midi": 61,
      "hit": false,
      "t": 239999.8239999966,
      "d": 206.8963999999978,
      "v": 100
    },
    {
      "midi": 64,
      "hit": false,
      "t": 239999.8239999966,
      "d": 206.8963999999978,
      "v": 100
    },
    {
      "midi": 54,
      "hit": false,
      "t": 239999.82399999746,
      "d": 206.8963999999978,
      "v": 100
    },
    {
      "midi": 58,
      "hit": false,
      "t": 240258.44449999658,
      "d": 206.8963999999978,
      "v": 100
    },
    {
      "midi": 62,
      "hit": false,
      "t": 240258.44449999658,
      "d": 206.8963999999978,
      "v": 100
    },
    {
      "midi": 65,
      "hit": false,
      "t": 240258.44449999658,
      "d": 206.8963999999978,
      "v": 100
    },
    {
      "midi": 49,
      "hit": false,
      "t": 240258.44449999745,
      "d": 206.8963999999978,
      "v": 100
    },
    {
      "midi": 54,
      "hit": false,
      "t": 240258.44449999745,
      "d": 206.8963999999978,
      "v": 100
    },
    {
      "midi": 62,
      "hit": false,
      "t": 240258.44449999914,
      "d": 827.5855999999912,
      "v": 100
    },
    {
      "midi": 58,
      "hit": false,
      "t": 240517.06499999657,
      "d": 206.8963999999978,
      "v": 100
    },
    {
      "midi": 62,
      "hit": false,
      "t": 240517.06499999657,
      "d": 206.8963999999978,
      "v": 100
    },
    {
      "midi": 65,
      "hit": false,
      "t": 240517.06499999657,
      "d": 206.8963999999978,
      "v": 100
    },
    {
      "midi": 54,
      "hit": false,
      "t": 240517.06499999744,
      "d": 206.8963999999978,
      "v": 100
    },
    {
      "midi": 58,
      "hit": false,
      "t": 240775.68549999656,
      "d": 206.8963999999978,
      "v": 100
    },
    {
      "midi": 62,
      "hit": false,
      "t": 240775.68549999656,
      "d": 206.8963999999978,
      "v": 100
    },
    {
      "midi": 65,
      "hit": false,
      "t": 240775.68549999656,
      "d": 206.8963999999978,
      "v": 100
    },
    {
      "midi": 40,
      "hit": false,
      "t": 240775.68549999743,
      "d": 206.8963999999978,
      "v": 100
    },
    {
      "midi": 58,
      "hit": false,
      "t": 241034.30599999655,
      "d": 206.8963999999978,
      "v": 100
    },
    {
      "midi": 62,
      "hit": false,
      "t": 241034.30599999655,
      "d": 206.8963999999978,
      "v": 100
    },
    {
      "midi": 65,
      "hit": false,
      "t": 241034.30599999655,
      "d": 206.8963999999978,
      "v": 100
    },
    {
      "midi": 54,
      "hit": false,
      "t": 241034.30599999742,
      "d": 206.8963999999978,
      "v": 100
    },
    {
      "midi": 60,
      "hit": false,
      "t": 241292.92649999654,
      "d": 206.8963999999978,
      "v": 100
    },
    {
      "midi": 64,
      "hit": false,
      "t": 241292.92649999654,
      "d": 206.8963999999978,
      "v": 100
    },
    {
      "midi": 67,
      "hit": false,
      "t": 241292.92649999654,
      "d": 206.8963999999978,
      "v": 100
    },
    {
      "midi": 40,
      "hit": false,
      "t": 241292.9264999974,
      "d": 103.44820000001346,
      "v": 100
    },
    {
      "midi": 64,
      "hit": false,
      "t": 241292.92649999913,
      "d": 827.5855999999912,
      "v": 100
    },
    {
      "midi": 40,
      "hit": false,
      "t": 241422.23674999742,
      "d": 103.44820000001346,
      "v": 100
    },
    {
      "midi": 60,
      "hit": false,
      "t": 241551.54699999653,
      "d": 206.8963999999978,
      "v": 100
    },
    {
      "midi": 64,
      "hit": false,
      "t": 241551.54699999653,
      "d": 206.8963999999978,
      "v": 100
    },
    {
      "midi": 67,
      "hit": false,
      "t": 241551.54699999653,
      "d": 206.8963999999978,
      "v": 100
    },
    {
      "midi": 40,
      "hit": false,
      "t": 241551.54699999743,
      "d": 103.44820000001346,
      "v": 100
    },
    {
      "midi": 40,
      "hit": false,
      "t": 241680.85724999744,
      "d": 103.44820000001346,
      "v": 100
    },
    {
      "midi": 60,
      "hit": false,
      "t": 241810.16749999652,
      "d": 206.8963999999978,
      "v": 100
    },
    {
      "midi": 64,
      "hit": false,
      "t": 241810.16749999652,
      "d": 206.8963999999978,
      "v": 100
    },
    {
      "midi": 67,
      "hit": false,
      "t": 241810.16749999652,
      "d": 206.8963999999978,
      "v": 100
    },
    {
      "midi": 49,
      "hit": false,
      "t": 241810.16749999745,
      "d": 103.44820000001346,
      "v": 100
    },
    {
      "midi": 40,
      "hit": false,
      "t": 241810.16749999745,
      "d": 103.44820000001346,
      "v": 100
    },
    {
      "midi": 49,
      "hit": false,
      "t": 241939.47774999746,
      "d": 103.44820000001346,
      "v": 100
    },
    {
      "midi": 40,
      "hit": false,
      "t": 241939.47774999746,
      "d": 103.44820000001346,
      "v": 100
    },
    {
      "midi": 60,
      "hit": false,
      "t": 242068.7879999965,
      "d": 206.8963999999978,
      "v": 100
    },
    {
      "midi": 64,
      "hit": false,
      "t": 242068.7879999965,
      "d": 206.8963999999978,
      "v": 100
    },
    {
      "midi": 67,
      "hit": false,
      "t": 242068.7879999965,
      "d": 206.8963999999978,
      "v": 100
    },
    {
      "midi": 49,
      "hit": false,
      "t": 242068.78799999747,
      "d": 103.44820000001346,
      "v": 100
    },
    {
      "midi": 40,
      "hit": false,
      "t": 242068.78799999747,
      "d": 103.44820000001346,
      "v": 100
    },
    {
      "midi": 49,
      "hit": false,
      "t": 242198.09824999748,
      "d": 103.44820000001346,
      "v": 100
    },
    {
      "midi": 40,
      "hit": false,
      "t": 242198.09824999748,
      "d": 103.44820000001346,
      "v": 100
    },
    {
      "midi": 60,
      "hit": false,
      "t": 242327.4084999965,
      "d": 206.8963999999978,
      "v": 100
    },
    {
      "midi": 64,
      "hit": false,
      "t": 242327.4084999965,
      "d": 206.8963999999978,
      "v": 100
    },
    {
      "midi": 67,
      "hit": false,
      "t": 242327.4084999965,
      "d": 206.8963999999978,
      "v": 100
    },
    {
      "midi": 40,
      "hit": false,
      "t": 242327.4084999975,
      "d": 103.44820000001346,
      "v": 100
    },
    {
      "midi": 40,
      "hit": false,
      "t": 242456.7187499975,
      "d": 103.44820000001346,
      "v": 100
    },
    {
      "midi": 60,
      "hit": false,
      "t": 242586.0289999965,
      "d": 206.8963999999978,
      "v": 100
    },
    {
      "midi": 64,
      "hit": false,
      "t": 242586.0289999965,
      "d": 206.8963999999978,
      "v": 100
    },
    {
      "midi": 67,
      "hit": false,
      "t": 242586.0289999965,
      "d": 206.8963999999978,
      "v": 100
    },
    {
      "midi": 40,
      "hit": false,
      "t": 242586.0289999975,
      "d": 103.44820000001346,
      "v": 100
    },
    {
      "midi": 40,
      "hit": false,
      "t": 242715.33924999752,
      "d": 103.44820000001346,
      "v": 100
    },
    {
      "midi": 60,
      "hit": false,
      "t": 242844.64949999648,
      "d": 206.8963999999978,
      "v": 100
    },
    {
      "midi": 64,
      "hit": false,
      "t": 242844.64949999648,
      "d": 206.8963999999978,
      "v": 100
    },
    {
      "midi": 67,
      "hit": false,
      "t": 242844.64949999648,
      "d": 206.8963999999978,
      "v": 100
    },
    {
      "midi": 40,
      "hit": false,
      "t": 242844.64949999753,
      "d": 103.44820000001346,
      "v": 100
    },
    {
      "midi": 40,
      "hit": false,
      "t": 242973.95974999754,
      "d": 103.44820000001346,
      "v": 100
    },
    {
      "midi": 60,
      "hit": false,
      "t": 243103.26999999647,
      "d": 206.8963999999978,
      "v": 100
    },
    {
      "midi": 64,
      "hit": false,
      "t": 243103.26999999647,
      "d": 206.8963999999978,
      "v": 100
    },
    {
      "midi": 67,
      "hit": false,
      "t": 243103.26999999647,
      "d": 206.8963999999978,
      "v": 100
    },
    {
      "midi": 49,
      "hit": false,
      "t": 243103.26999999754,
      "d": 4189.652100000007,
      "v": 100
    },
    {
      "midi": 62,
      "hit": false,
      "t": 243103.26999999912,
      "d": 4189.652100000007,
      "v": 100
    },
    {
      "midi": 50,
      "hit": false,
      "t": 243361.89049999646,
      "d": 3931.0315999999875,
      "v": 100
    },
    {
      "midi": 54,
      "hit": false,
      "t": 243361.89049999646,
      "d": 3931.0315999999875,
      "v": 100
    },
    {
      "midi": 57,
      "hit": false,
      "t": 243361.89049999646,
      "d": 3931.0315999999875,
      "v": 100
    }
  ]
}