{
  "jsonPath": "Blues/Ragtime/Max Morath/easy-winners-the-a-ragtime-two-step.json",
  "path": "Blues\\Ragtime\\Max Morath\\Easy Winners_ The-A Ragtime Two Step.mid",
  "name": "Easy Winners_ The-A Ragtime Two Step",
  "difficulty": "Advanced",
  "bpm": 88.00002346667293,
  "notes": [
    {
      "midi": 51,
      "hit": false,
      "t": 0,
      "d": 410.95849999999996,
      "v": 75
    },
    {
      "midi": 63,
      "hit": false,
      "t": 0,
      "d": 410.95849999999996,
      "v": 75
    },
    {
      "midi": 60,
      "hit": false,
      "t": 410.95849999999996,
      "d": 616.4377499999998,
      "v": 92
    },
    {
      "midi": 72,
      "hit": false,
      "t": 410.95849999999996,
      "d": 616.4377499999998,
      "v": 91
    },
    {
      "midi": 58,
      "hit": false,
      "t": 1027.3962499999998,
      "d": 205.47924999999987,
      "v": 83
    },
    {
      "midi": 70,
      "hit": false,
      "t": 1027.3962499999998,
      "d": 205.47924999999987,
      "v": 81
    },
    {
      "midi": 56,
      "hit": false,
      "t": 1232.8754999999996,
      "d": 205.47924999999987,
      "v": 81
    },
    {
      "midi": 68,
      "hit": false,
      "t": 1232.8754999999996,
      "d": 205.47924999999987,
      "v": 81
    },
    {
      "midi": 55,
      "hit": false,
      "t": 1438.3547499999995,
      "d": 205.47924999999987,
      "v": 85
    },
    {
      "midi": 67,
      "hit": false,
      "t": 1438.3547499999995,
      "d": 205.47924999999987,
      "v": 82
    },
    {
      "midi": 53,
      "hit": false,
      "t": 1643.8339999999994,
      "d": 205.47924999999987,
      "v": 83
    },
    {
      "midi": 65,
      "hit": false,
      "t": 1643.8339999999994,
      "d": 205.47924999999987,
      "v": 80
    },
    {
      "midi": 51,
      "hit": false,
      "t": 1849.3132499999992,
      "d": 410.95849999999973,
      "v": 83
    },
    {
      "midi": 63,
      "hit": false,
      "t": 1849.3132499999992,
      "d": 410.95849999999973,
      "v": 81
    },
    {
      "midi": 49,
      "hit": false,
      "t": 2260.271749999999,
      "d": 205.47924999999987,
      "v": 83
    },
    {
      "midi": 61,
      "hit": false,
      "t": 2260.271749999999,
      "d": 205.47924999999987,
      "v": 79
    },
    {
      "midi": 48,
      "hit": false,
      "t": 2465.750999999999,
      "d": 410.9585000000002,
      "v": 81
    },
    {
      "midi": 60,
      "hit": false,
      "t": 2465.750999999999,
      "d": 410.9585000000002,
      "v": 82
    },
    {
      "midi": 46,
      "hit": false,
      "t": 2876.709499999999,
      "d": 205.47924999999987,
      "v": 82
    },
    {
      "midi": 58,
      "hit": false,
      "t": 2876.709499999999,
      "d": 205.47924999999987,
      "v": 82
    },
    {
      "midi": 44,
      "hit": false,
      "t": 3082.188749999999,
      "d": 205.47924999999987,
      "v": 82
    },
    {
      "midi": 56,
      "hit": false,
      "t": 3082.188749999999,
      "d": 205.47924999999987,
      "v": 82
    },
    {
      "midi": 55,
      "hit": false,
      "t": 3287.6679999999988,
      "d": 208.68986328124993,
      "v": 86
    },
    {
      "midi": 39,
      "hit": false,
      "t": 3287.6679999999988,
      "d": 821.9169999999995,
      "v": 80
    },
    {
      "midi": 56,
      "hit": false,
      "t": 3493.1472499999986,
      "d": 208.68986328124993,
      "v": 89
    },
    {
      "midi": 58,
      "hit": false,
      "t": 3698.6264999999985,
      "d": 208.68986328124993,
      "v": 86
    },
    {
      "midi": 60,
      "hit": false,
      "t": 3904.1057499999984,
      "d": 208.68986328124947,
      "v": 91
    },
    {
      "midi": 51,
      "hit": false,
      "t": 4109.584999999998,
      "d": 205.4792499999994,
      "v": 86
    },
    {
      "midi": 61,
      "hit": false,
      "t": 4109.584999999998,
      "d": 208.68986328124902,
      "v": 87
    },
    {
      "midi": 49,
      "hit": false,
      "t": 4315.064249999998,
      "d": 205.4792499999994,
      "v": 80
    },
    {
      "midi": 63,
      "hit": false,
      "t": 4315.064249999998,
      "d": 208.68986328124902,
      "v": 92
    },
    {
      "midi": 48,
      "hit": false,
      "t": 4520.543499999997,
      "d": 205.4792499999994,
      "v": 83
    },
    {
      "midi": 65,
      "hit": false,
      "t": 4520.543499999997,
      "d": 208.68986328124902,
      "v": 85
    },
    {
      "midi": 46,
      "hit": false,
      "t": 4726.022749999996,
      "d": 205.4792499999994,
      "v": 83
    },
    {
      "midi": 67,
      "hit": false,
      "t": 4726.022749999996,
      "d": 208.68986328124902,
      "v": 86
    },
    {
      "midi": 68,
      "hit": false,
      "t": 4931.501999999996,
      "d": 388.48420703124975,
      "v": 83
    },
    {
      "midi": 44,
      "hit": false,
      "t": 4931.501999999996,
      "d": 410.95849999999973,
      "v": 84
    },
    {
      "midi": 51,
      "hit": false,
      "t": 5342.460499999996,
      "d": 410.95849999999973,
      "v": 70
    },
    {
      "midi": 56,
      "hit": false,
      "t": 5342.460499999996,
      "d": 410.95849999999973,
      "v": 70
    },
    {
      "midi": 60,
      "hit": false,
      "t": 5342.460499999996,
      "d": 410.95849999999973,
      "v": 70
    },
    {
      "midi": 39,
      "hit": false,
      "t": 5753.418999999995,
      "d": 410.95849999999973,
      "v": 58
    },
    {
      "midi": 51,
      "hit": false,
      "t": 6164.377499999995,
      "d": 410.95849999999973,
      "v": 68
    },
    {
      "midi": 56,
      "hit": false,
      "t": 6164.377499999995,
      "d": 410.95849999999973,
      "v": 68
    },
    {
      "midi": 60,
      "hit": false,
      "t": 6164.377499999995,
      "d": 410.95849999999973,
      "v": 68
    },
    {
      "midi": 44,
      "hit": false,
      "t": 6575.335999999995,
      "d": 410.95849999999973,
      "v": 57
    },
    {
      "midi": 68,
      "hit": false,
      "t": 6575.335999999995,
      "d": 410.95849999999973,
      "v": 64
    },
    {
      "midi": 72,
      "hit": false,
      "t": 6575.335999999995,
      "d": 410.95849999999973,
      "v": 64
    },
    {
      "midi": 51,
      "hit": false,
      "t": 6986.2944999999945,
      "d": 410.95849999999973,
      "v": 68
    },
    {
      "midi": 56,
      "hit": false,
      "t": 6986.2944999999945,
      "d": 410.95849999999973,
      "v": 68
    },
    {
      "midi": 60,
      "hit": false,
      "t": 6986.2944999999945,
      "d": 410.95849999999973,
      "v": 68
    },
    {
      "midi": 68,
      "hit": false,
      "t": 6986.2944999999945,
      "d": 821.9169999999995,
      "v": 72
    },
    {
      "midi": 72,
      "hit": false,
      "t": 6986.2944999999945,
      "d": 821.9169999999995,
      "v": 72
    },
    {
      "midi": 39,
      "hit": false,
      "t": 7397.252999999994,
      "d": 410.95849999999973,
      "v": 59
    },
    {
      "midi": 51,
      "hit": false,
      "t": 7808.211499999994,
      "d": 410.95850000000064,
      "v": 68
    },
    {
      "midi": 56,
      "hit": false,
      "t": 7808.211499999994,
      "d": 410.95850000000064,
      "v": 68
    },
    {
      "midi": 60,
      "hit": false,
      "t": 7808.211499999994,
      "d": 410.95850000000064,
      "v": 68
    },
    {
      "midi": 72,
      "hit": false,
      "t": 7808.211499999994,
      "d": 410.95850000000064,
      "v": 72
    },
    {
      "midi": 75,
      "hit": false,
      "t": 7808.211499999994,
      "d": 410.95850000000064,
      "v": 72
    },
    {
      "midi": 71,
      "hit": false,
      "t": 8219.169999999995,
      "d": 208.68986328124993,
      "v": 74
    },
    {
      "midi": 77,
      "hit": false,
      "t": 8219.169999999995,
      "d": 208.68986328124993,
      "v": 74
    },
    {
      "midi": 44,
      "hit": false,
      "t": 8219.169999999995,
      "d": 410.95850000000064,
      "v": 58
    },
    {
      "midi": 72,
      "hit": false,
      "t": 8424.649249999995,
      "d": 388.48420703124975,
      "v": 71
    },
    {
      "midi": 75,
      "hit": false,
      "t": 8424.649249999995,
      "d": 388.48420703124975,
      "v": 71
    },
    {
      "midi": 51,
      "hit": false,
      "t": 8630.128499999995,
      "d": 410.95850000000064,
      "v": 71
    },
    {
      "midi": 56,
      "hit": false,
      "t": 8630.128499999995,
      "d": 410.95850000000064,
      "v": 71
    },
    {
      "midi": 60,
      "hit": false,
      "t": 8630.128499999995,
      "d": 410.95850000000064,
      "v": 71
    },
    {
      "midi": 71,
      "hit": false,
      "t": 8835.607749999996,
      "d": 208.68986328124993,
      "v": 72
    },
    {
      "midi": 77,
      "hit": false,
      "t": 8835.607749999996,
      "d": 208.68986328124993,
      "v": 72
    },
    {
      "midi": 72,
      "hit": false,
      "t": 9041.086999999996,
      "d": 192.63679687500007,
      "v": 70
    },
    {
      "midi": 75,
      "hit": false,
      "t": 9041.086999999996,
      "d": 192.63679687500007,
      "v": 70
    },
    {
      "midi": 39,
      "hit": false,
      "t": 9041.086999999996,
      "d": 410.95850000000064,
      "v": 58
    },
    {
      "midi": 71,
      "hit": false,
      "t": 9246.566249999996,
      "d": 208.68986328124993,
      "v": 74
    },
    {
      "midi": 77,
      "hit": false,
      "t": 9246.566249999996,
      "d": 208.68986328124993,
      "v": 74
    },
    {
      "midi": 72,
      "hit": false,
      "t": 9452.045499999997,
      "d": 388.48420703124975,
      "v": 71
    },
    {
      "midi": 75,
      "hit": false,
      "t": 9452.045499999997,
      "d": 388.48420703124975,
      "v": 71
    },
    {
      "midi": 51,
      "hit": false,
      "t": 9452.045499999997,
      "d": 410.95850000000064,
      "v": 69
    },
    {
      "midi": 56,
      "hit": false,
      "t": 9452.045499999997,
      "d": 410.95850000000064,
      "v": 69
    },
    {
      "midi": 60,
      "hit": false,
      "t": 9452.045499999997,
      "d": 410.95850000000064,
      "v": 69
    },
    {
      "midi": 76,
      "hit": false,
      "t": 9863.003999999997,
      "d": 208.68986328124993,
      "v": 78
    },
    {
      "midi": 82,
      "hit": false,
      "t": 9863.003999999997,
      "d": 208.68986328124993,
      "v": 78
    },
    {
      "midi": 37,
      "hit": false,
      "t": 9863.003999999997,
      "d": 410.95850000000064,
      "v": 55
    },
    {
      "midi": 77,
      "hit": false,
      "t": 10068.483249999997,
      "d": 388.48420703124975,
      "v": 77
    },
    {
      "midi": 80,
      "hit": false,
      "t": 10068.483249999997,
      "d": 388.48420703124975,
      "v": 77
    },
    {
      "midi": 53,
      "hit": false,
      "t": 10273.962499999998,
      "d": 410.95850000000064,
      "v": 68
    },
    {
      "midi": 56,
      "hit": false,
      "t": 10273.962499999998,
      "d": 410.95850000000064,
      "v": 68
    },
    {
      "midi": 61,
      "hit": false,
      "t": 10273.962499999998,
      "d": 410.95850000000064,
      "v": 68
    },
    {
      "midi": 76,
      "hit": false,
      "t": 10479.441749999998,
      "d": 208.68986328124993,
      "v": 72
    },
    {
      "midi": 82,
      "hit": false,
      "t": 10479.441749999998,
      "d": 208.68986328124993,
      "v": 72
    },
    {
      "midi": 77,
      "hit": false,
      "t": 10684.920999999998,
      "d": 192.63679687500007,
      "v": 70
    },
    {
      "midi": 80,
      "hit": false,
      "t": 10684.920999999998,
      "d": 192.63679687500007,
      "v": 70
    },
    {
      "midi": 37,
      "hit": false,
      "t": 10684.920999999998,
      "d": 410.95850000000064,
      "v": 60
    },
    {
      "midi": 76,
      "hit": false,
      "t": 10890.400249999999,
      "d": 208.68986328124993,
      "v": 73
    },
    {
      "midi": 82,
      "hit": false,
      "t": 10890.400249999999,
      "d": 208.68986328124993,
      "v": 73
    },
    {
      "midi": 77,
      "hit": false,
      "t": 11095.8795,
      "d": 192.63679687500007,
      "v": 72
    },
    {
      "midi": 80,
      "hit": false,
      "t": 11095.8795,
      "d": 192.63679687500007,
      "v": 72
    },
    {
      "midi": 53,
      "hit": false,
      "t": 11095.8795,
      "d": 410.95850000000064,
      "v": 71
    },
    {
      "midi": 56,
      "hit": false,
      "t": 11095.8795,
      "d": 410.95850000000064,
      "v": 71
    },
    {
      "midi": 61,
      "hit": false,
      "t": 11095.8795,
      "d": 410.95850000000064,
      "v": 71
    },
    {
      "midi": 72,
      "hit": false,
      "t": 11301.35875,
      "d": 1849.3132500000029,
      "v": 69
    },
    {
      "midi": 75,
      "hit": false,
      "t": 11301.35875,
      "d": 1849.3132500000029,
      "v": 69
    },
    {
      "midi": 44,
      "hit": false,
      "t": 11506.838,
      "d": 410.95850000000064,
      "v": 58
    },
    {
      "midi": 63,
      "hit": false,
      "t": 11917.7965,
      "d": 208.68986328124993,
      "v": 68
    },
    {
      "midi": 51,
      "hit": false,
      "t": 11917.7965,
      "d": 410.95850000000064,
      "v": 68
    },
    {
      "midi": 56,
      "hit": false,
      "t": 11917.7965,
      "d": 410.95850000000064,
      "v": 68
    },
    {
      "midi": 60,
      "hit": false,
      "t": 11917.7965,
      "d": 410.95850000000064,
      "v": 68
    },
    {
      "midi": 65,
      "hit": false,
      "t": 12123.27575,
      "d": 208.68986328124993,
      "v": 70
    },
    {
      "midi": 67,
      "hit": false,
      "t": 12328.755000000001,
      "d": 208.68986328124993,
      "v": 79
    },
    {
      "midi": 39,
      "hit": false,
      "t": 12328.755000000001,
      "d": 410.95850000000064,
      "v": 60
    },
    {
      "midi": 68,
      "hit": false,
      "t": 12534.234250000001,
      "d": 208.68986328124993,
      "v": 81
    },
    {
      "midi": 70,
      "hit": false,
      "t": 12739.713500000002,
      "d": 208.68986328124993,
      "v": 78
    },
    {
      "midi": 51,
      "hit": false,
      "t": 12739.713500000002,
      "d": 410.95850000000064,
      "v": 71
    },
    {
      "midi": 56,
      "hit": false,
      "t": 12739.713500000002,
      "d": 410.95850000000064,
      "v": 71
    },
    {
      "midi": 60,
      "hit": false,
      "t": 12739.713500000002,
      "d": 410.95850000000064,
      "v": 71
    },
    {
      "midi": 71,
      "hit": false,
      "t": 12945.192750000002,
      "d": 192.63679687500007,
      "v": 82
    },
    {
      "midi": 44,
      "hit": false,
      "t": 13150.672000000002,
      "d": 410.95850000000064,
      "v": 58
    },
    {
      "midi": 68,
      "hit": false,
      "t": 13150.672000000002,
      "d": 410.95850000000064,
      "v": 68
    },
    {
      "midi": 72,
      "hit": false,
      "t": 13150.672000000002,
      "d": 410.95850000000064,
      "v": 68
    },
    {
      "midi": 51,
      "hit": false,
      "t": 13561.630500000003,
      "d": 410.95850000000064,
      "v": 70
    },
    {
      "midi": 56,
      "hit": false,
      "t": 13561.630500000003,
      "d": 410.95850000000064,
      "v": 70
    },
    {
      "midi": 60,
      "hit": false,
      "t": 13561.630500000003,
      "d": 410.95850000000064,
      "v": 70
    },
    {
      "midi": 68,
      "hit": false,
      "t": 13561.630500000003,
      "d": 821.9170000000013,
      "v": 73
    },
    {
      "midi": 72,
      "hit": false,
      "t": 13561.630500000003,
      "d": 821.9170000000013,
      "v": 73
    },
    {
      "midi": 39,
      "hit": false,
      "t": 13972.589000000004,
      "d": 410.95850000000064,
      "v": 58
    },
    {
      "midi": 51,
      "hit": false,
      "t": 14383.547500000004,
      "d": 410.95850000000064,
      "v": 68
    },
    {
      "midi": 56,
      "hit": false,
      "t": 14383.547500000004,
      "d": 410.95850000000064,
      "v": 68
    },
    {
      "midi": 60,
      "hit": false,
      "t": 14383.547500000004,
      "d": 410.95850000000064,
      "v": 68
    },
    {
      "midi": 72,
      "hit": false,
      "t": 14383.547500000004,
      "d": 410.95850000000064,
      "v": 75
    },
    {
      "midi": 75,
      "hit": false,
      "t": 14383.547500000004,
      "d": 410.95850000000064,
      "v": 75
    },
    {
      "midi": 71,
      "hit": false,
      "t": 14794.506000000005,
      "d": 208.68986328124993,
      "v": 75
    },
    {
      "midi": 77,
      "hit": false,
      "t": 14794.506000000005,
      "d": 208.68986328124993,
      "v": 75
    },
    {
      "midi": 44,
      "hit": false,
      "t": 14794.506000000005,
      "d": 410.95850000000064,
      "v": 60
    },
    {
      "midi": 72,
      "hit": false,
      "t": 14999.985250000005,
      "d": 388.48420703124975,
      "v": 73
    },
    {
      "midi": 75,
      "hit": false,
      "t": 14999.985250000005,
      "d": 388.48420703124975,
      "v": 73
    },
    {
      "midi": 51,
      "hit": false,
      "t": 15205.464500000006,
      "d": 410.95850000000064,
      "v": 69
    },
    {
      "midi": 56,
      "hit": false,
      "t": 15205.464500000006,
      "d": 410.95850000000064,
      "v": 69
    },
    {
      "midi": 60,
      "hit": false,
      "t": 15205.464500000006,
      "d": 410.95850000000064,
      "v": 69
    },
    {
      "midi": 71,
      "hit": false,
      "t": 15410.943750000006,
      "d": 208.68986328124993,
      "v": 77
    },
    {
      "midi": 77,
      "hit": false,
      "t": 15410.943750000006,
      "d": 208.68986328124993,
      "v": 77
    },
    {
      "midi": 72,
      "hit": false,
      "t": 15616.423000000006,
      "d": 192.63679687500007,
      "v": 73
    },
    {
      "midi": 75,
      "hit": false,
      "t": 15616.423000000006,
      "d": 192.63679687500007,
      "v": 73
    },
    {
      "midi": 45,
      "hit": false,
      "t": 15616.423000000006,
      "d": 410.95850000000064,
      "v": 58
    },
    {
      "midi": 72,
      "hit": false,
      "t": 15821.902250000006,
      "d": 205.47925000000032,
      "v": 71
    },
    {
      "midi": 75,
      "hit": false,
      "t": 15821.902250000006,
      "d": 205.47925000000032,
      "v": 71
    },
    {
      "midi": 54,
      "hit": false,
      "t": 16027.381500000007,
      "d": 410.95850000000064,
      "v": 69
    },
    {
      "midi": 57,
      "hit": false,
      "t": 16027.381500000007,
      "d": 410.95850000000064,
      "v": 69
    },
    {
      "midi": 63,
      "hit": false,
      "t": 16027.381500000007,
      "d": 410.95850000000064,
      "v": 69
    },
    {
      "midi": 72,
      "hit": false,
      "t": 16027.381500000007,
      "d": 410.95850000000064,
      "v": 72
    },
    {
      "midi": 75,
      "hit": false,
      "t": 16027.381500000007,
      "d": 410.95850000000064,
      "v": 72
    },
    {
      "midi": 75,
      "hit": false,
      "t": 16438.340000000007,
      "d": 205.47925000000032,
      "v": 71
    },
    {
      "midi": 46,
      "hit": false,
      "t": 16438.340000000007,
      "d": 410.95850000000064,
      "v": 58
    },
    {
      "midi": 70,
      "hit": false,
      "t": 16643.819250000008,
      "d": 410.95850000000064,
      "v": 68
    },
    {
      "midi": 67,
      "hit": false,
      "t": 16643.819250000008,
      "d": 616.437750000001,
      "v": 71
    },
    {
      "midi": 55,
      "hit": false,
      "t": 16849.298500000008,
      "d": 410.95850000000064,
      "v": 70
    },
    {
      "midi": 58,
      "hit": false,
      "t": 16849.298500000008,
      "d": 410.95850000000064,
      "v": 70
    },
    {
      "midi": 63,
      "hit": false,
      "t": 16849.298500000008,
      "d": 410.95850000000064,
      "v": 70
    },
    {
      "midi": 75,
      "hit": false,
      "t": 17054.77775000001,
      "d": 205.47925000000032,
      "v": 75
    },
    {
      "midi": 74,
      "hit": false,
      "t": 17260.25700000001,
      "d": 205.47925000000032,
      "v": 71
    },
    {
      "midi": 46,
      "hit": false,
      "t": 17260.25700000001,
      "d": 410.95850000000064,
      "v": 58
    },
    {
      "midi": 68,
      "hit": false,
      "t": 17260.25700000001,
      "d": 410.95850000000064,
      "v": 78
    },
    {
      "midi": 75,
      "hit": false,
      "t": 17465.73625000001,
      "d": 205.47925000000032,
      "v": 74
    },
    {
      "midi": 58,
      "hit": false,
      "t": 17671.21550000001,
      "d": 410.95850000000064,
      "v": 68
    },
    {
      "midi": 62,
      "hit": false,
      "t": 17671.21550000001,
      "d": 410.95850000000064,
      "v": 68
    },
    {
      "midi": 68,
      "hit": false,
      "t": 17671.21550000001,
      "d": 410.95850000000064,
      "v": 78
    },
    {
      "midi": 77,
      "hit": false,
      "t": 17671.21550000001,
      "d": 410.95850000000064,
      "v": 74
    },
    {
      "midi": 51,
      "hit": false,
      "t": 18082.17400000001,
      "d": 410.95850000000064,
      "v": 63
    },
    {
      "midi": 63,
      "hit": false,
      "t": 18082.17400000001,
      "d": 410.95850000000064,
      "v": 63
    },
    {
      "midi": 67,
      "hit": false,
      "t": 18082.17400000001,
      "d": 1027.3962500000016,
      "v": 69
    },
    {
      "midi": 75,
      "hit": false,
      "t": 18082.17400000001,
      "d": 1027.3962500000016,
      "v": 69
    },
    {
      "midi": 49,
      "hit": false,
      "t": 18493.13250000001,
      "d": 410.95850000000064,
      "v": 60
    },
    {
      "midi": 61,
      "hit": false,
      "t": 18493.13250000001,
      "d": 410.95850000000064,
      "v": 60
    },
    {
      "midi": 48,
      "hit": false,
      "t": 18904.09100000001,
      "d": 410.95850000000064,
      "v": 61
    },
    {
      "midi": 60,
      "hit": false,
      "t": 18904.09100000001,
      "d": 410.95850000000064,
      "v": 61
    },
    {
      "midi": 63,
      "hit": false,
      "t": 19109.57025000001,
      "d": 205.47925000000032,
      "v": 61
    },
    {
      "midi": 67,
      "hit": false,
      "t": 19315.049500000012,
      "d": 205.47925000000032,
      "v": 71
    },
    {
      "midi": 46,
      "hit": false,
      "t": 19315.049500000012,
      "d": 410.95850000000064,
      "v": 61
    },
    {
      "midi": 58,
      "hit": false,
      "t": 19315.049500000012,
      "d": 410.95850000000064,
      "v": 61
    },
    {
      "midi": 73,
      "hit": false,
      "t": 19520.528750000012,
      "d": 205.47925000000032,
      "v": 76
    },
    {
      "midi": 44,
      "hit": false,
      "t": 19726.008000000013,
      "d": 410.95850000000064,
      "v": 59
    },
    {
      "midi": 56,
      "hit": false,
      "t": 19726.008000000013,
      "d": 410.95850000000064,
      "v": 59
    },
    {
      "midi": 68,
      "hit": false,
      "t": 19726.008000000013,
      "d": 410.95850000000064,
      "v": 71
    },
    {
      "midi": 72,
      "hit": false,
      "t": 19726.008000000013,
      "d": 410.95850000000064,
      "v": 71
    },
    {
      "midi": 51,
      "hit": false,
      "t": 20136.966500000013,
      "d": 410.95850000000064,
      "v": 65
    },
    {
      "midi": 56,
      "hit": false,
      "t": 20136.966500000013,
      "d": 410.95850000000064,
      "v": 65
    },
    {
      "midi": 60,
      "hit": false,
      "t": 20136.966500000013,
      "d": 410.95850000000064,
      "v": 65
    },
    {
      "midi": 68,
      "hit": false,
      "t": 20136.966500000013,
      "d": 821.9170000000013,
      "v": 72
    },
    {
      "midi": 72,
      "hit": false,
      "t": 20136.966500000013,
      "d": 821.9170000000013,
      "v": 72
    },
    {
      "midi": 39,
      "hit": false,
      "t": 20547.925000000014,
      "d": 410.95850000000064,
      "v": 56
    },
    {
      "midi": 51,
      "hit": false,
      "t": 20958.883500000014,
      "d": 410.95850000000064,
      "v": 68
    },
    {
      "midi": 56,
      "hit": false,
      "t": 20958.883500000014,
      "d": 410.95850000000064,
      "v": 68
    },
    {
      "midi": 60,
      "hit": false,
      "t": 20958.883500000014,
      "d": 410.95850000000064,
      "v": 68
    },
    {
      "midi": 72,
      "hit": false,
      "t": 20958.883500000014,
      "d": 410.95850000000064,
      "v": 74
    },
    {
      "midi": 75,
      "hit": false,
      "t": 20958.883500000014,
      "d": 410.95850000000064,
      "v": 74
    },
    {
      "midi": 71,
      "hit": false,
      "t": 21369.842000000015,
      "d": 208.68986328125175,
      "v": 73
    },
    {
      "midi": 77,
      "hit": false,
      "t": 21369.842000000015,
      "d": 208.68986328125175,
      "v": 73
    },
    {
      "midi": 44,
      "hit": false,
      "t": 21369.842000000015,
      "d": 410.95850000000064,
      "v": 56
    },
    {
      "midi": 72,
      "hit": false,
      "t": 21575.321250000015,
      "d": 388.4842070312516,
      "v": 69
    },
    {
      "midi": 75,
      "hit": false,
      "t": 21575.321250000015,
      "d": 388.4842070312516,
      "v": 69
    },
    {
      "midi": 51,
      "hit": false,
      "t": 21780.800500000016,
      "d": 410.95850000000064,
      "v": 70
    },
    {
      "midi": 56,
      "hit": false,
      "t": 21780.800500000016,
      "d": 410.95850000000064,
      "v": 70
    },
    {
      "midi": 60,
      "hit": false,
      "t": 21780.800500000016,
      "d": 410.95850000000064,
      "v": 70
    },
    {
      "midi": 71,
      "hit": false,
      "t": 21986.279750000016,
      "d": 208.68986328125175,
      "v": 72
    },
    {
      "midi": 77,
      "hit": false,
      "t": 21986.279750000016,
      "d": 208.68986328125175,
      "v": 72
    },
    {
      "midi": 72,
      "hit": false,
      "t": 22191.759000000016,
      "d": 192.6367968750019,
      "v": 72
    },
    {
      "midi": 75,
      "hit": false,
      "t": 22191.759000000016,
      "d": 192.6367968750019,
      "v": 72
    },
    {
      "midi": 39,
      "hit": false,
      "t": 22191.759000000016,
      "d": 410.95850000000064,
      "v": 56
    },
    {
      "midi": 71,
      "hit": false,
      "t": 22397.238250000017,
      "d": 208.68986328125175,
      "v": 73
    },
    {
      "midi": 77,
      "hit": false,
      "t": 22397.238250000017,
      "d": 208.68986328125175,
      "v": 73
    },
    {
      "midi": 72,
      "hit": false,
      "t": 22602.717500000017,
      "d": 388.4842070312516,
      "v": 72
    },
    {
      "midi": 75,
      "hit": false,
      "t": 22602.717500000017,
      "d": 388.4842070312516,
      "v": 72
    },
    {
      "midi": 51,
      "hit": false,
      "t": 22602.717500000017,
      "d": 410.95850000000064,
      "v": 69
    },
    {
      "midi": 56,
      "hit": false,
      "t": 22602.717500000017,
      "d": 410.95850000000064,
      "v": 69
    },
    {
      "midi": 60,
      "hit": false,
      "t": 22602.717500000017,
      "d": 410.95850000000064,
      "v": 69
    },
    {
      "midi": 76,
      "hit": false,
      "t": 23013.676000000018,
      "d": 208.68986328125175,
      "v": 77
    },
    {
      "midi": 82,
      "hit": false,
      "t": 23013.676000000018,
      "d": 208.68986328125175,
      "v": 77
    },
    {
      "midi": 37,
      "hit": false,
      "t": 23013.676000000018,
      "d": 410.95850000000064,
      "v": 58
    },
    {
      "midi": 77,
      "hit": false,
      "t": 23219.155250000018,
      "d": 388.4842070312516,
      "v": 76
    },
    {
      "midi": 80,
      "hit": false,
      "t": 23219.155250000018,
      "d": 388.4842070312516,
      "v": 76
    },
    {
      "midi": 53,
      "hit": false,
      "t": 23424.63450000002,
      "d": 410.95850000000064,
      "v": 68
    },
    {
      "midi": 56,
      "hit": false,
      "t": 23424.63450000002,
      "d": 410.95850000000064,
      "v": 68
    },
    {
      "midi": 61,
      "hit": false,
      "t": 23424.63450000002,
      "d": 410.95850000000064,
      "v": 68
    },
    {
      "midi": 76,
      "hit": false,
      "t": 23630.11375000002,
      "d": 208.68986328125175,
      "v": 76
    },
    {
      "midi": 82,
      "hit": false,
      "t": 23630.11375000002,
      "d": 208.68986328125175,
      "v": 76
    },
    {
      "midi": 77,
      "hit": false,
      "t": 23835.59300000002,
      "d": 192.6367968750019,
      "v": 73
    },
    {
      "midi": 80,
      "hit": false,
      "t": 23835.59300000002,
      "d": 192.6367968750019,
      "v": 73
    },
    {
      "midi": 49,
      "hit": false,
      "t": 23835.59300000002,
      "d": 410.95850000000064,
      "v": 62
    },
    {
      "midi": 61,
      "hit": false,
      "t": 23835.59300000002,
      "d": 410.95850000000064,
      "v": 62
    },
    {
      "midi": 77,
      "hit": false,
      "t": 24041.07225000002,
      "d": 205.47925000000032,
      "v": 70
    },
    {
      "midi": 80,
      "hit": false,
      "t": 24041.07225000002,
      "d": 205.47925000000032,
      "v": 70
    },
    {
      "midi": 77,
      "hit": false,
      "t": 24246.55150000002,
      "d": 205.47925000000032,
      "v": 73
    },
    {
      "midi": 79,
      "hit": false,
      "t": 24246.55150000002,
      "d": 205.47925000000032,
      "v": 73
    },
    {
      "midi": 82,
      "hit": false,
      "t": 24246.55150000002,
      "d": 205.47925000000032,
      "v": 73
    },
    {
      "midi": 49,
      "hit": false,
      "t": 24246.55150000002,
      "d": 410.95850000000064,
      "v": 61
    },
    {
      "midi": 61,
      "hit": false,
      "t": 24246.55150000002,
      "d": 410.95850000000064,
      "v": 61
    },
    {
      "midi": 48,
      "hit": false,
      "t": 24657.51000000002,
      "d": 410.95850000000064,
      "v": 59
    },
    {
      "midi": 60,
      "hit": false,
      "t": 24657.51000000002,
      "d": 410.95850000000064,
      "v": 59
    },
    {
      "midi": 72,
      "hit": false,
      "t": 24862.98925000002,
      "d": 205.47925000000032,
      "v": 66
    },
    {
      "midi": 76,
      "hit": false,
      "t": 25068.46850000002,
      "d": 205.47925000000032,
      "v": 79
    },
    {
      "midi": 43,
      "hit": false,
      "t": 25068.46850000002,
      "d": 410.95850000000064,
      "v": 58
    },
    {
      "midi": 55,
      "hit": false,
      "t": 25068.46850000002,
      "d": 410.95850000000064,
      "v": 58
    },
    {
      "midi": 79,
      "hit": false,
      "t": 25273.94775000002,
      "d": 205.47925000000032,
      "v": 78
    },
    {
      "midi": 36,
      "hit": false,
      "t": 25479.42700000002,
      "d": 410.95850000000064,
      "v": 58
    },
    {
      "midi": 48,
      "hit": false,
      "t": 25479.42700000002,
      "d": 410.95850000000064,
      "v": 58
    },
    {
      "midi": 84,
      "hit": false,
      "t": 25479.42700000002,
      "d": 410.95850000000064,
      "v": 82
    },
    {
      "midi": 79,
      "hit": false,
      "t": 25890.385500000022,
      "d": 205.47925000000032,
      "v": 66
    },
    {
      "midi": 80,
      "hit": false,
      "t": 26095.864750000022,
      "d": 205.47925000000032,
      "v": 73
    },
    {
      "midi": 76,
      "hit": false,
      "t": 26301.344000000023,
      "d": 208.68986328125175,
      "v": 72
    },
    {
      "midi": 82,
      "hit": false,
      "t": 26301.344000000023,
      "d": 208.68986328125175,
      "v": 72
    },
    {
      "midi": 37,
      "hit": false,
      "t": 26301.344000000023,
      "d": 410.95850000000064,
      "v": 53
    },
    {
      "midi": 49,
      "hit": false,
      "t": 26301.344000000023,
      "d": 410.95850000000064,
      "v": 53
    },
    {
      "midi": 77,
      "hit": false,
      "t": 26506.823250000023,
      "d": 388.4842070312516,
      "v": 68
    },
    {
      "midi": 80,
      "hit": false,
      "t": 26506.823250000023,
      "d": 388.4842070312516,
      "v": 68
    },
    {
      "midi": 53,
      "hit": false,
      "t": 26712.302500000023,
      "d": 410.95850000000064,
      "v": 67
    },
    {
      "midi": 56,
      "hit": false,
      "t": 26712.302500000023,
      "d": 410.95850000000064,
      "v": 67
    },
    {
      "midi": 61,
      "hit": false,
      "t": 26712.302500000023,
      "d": 410.95850000000064,
      "v": 67
    },
    {
      "midi": 76,
      "hit": false,
      "t": 26917.781750000024,
      "d": 208.68986328125175,
      "v": 74
    },
    {
      "midi": 82,
      "hit": false,
      "t": 26917.781750000024,
      "d": 208.68986328125175,
      "v": 74
    },
    {
      "midi": 77,
      "hit": false,
      "t": 27123.261000000024,
      "d": 192.6367968750019,
      "v": 72
    },
    {
      "midi": 80,
      "hit": false,
      "t": 27123.261000000024,
      "d": 192.6367968750019,
      "v": 72
    },
    {
      "midi": 37,
      "hit": false,
      "t": 27123.261000000024,
      "d": 410.95850000000064,
      "v": 58
    },
    {
      "midi": 49,
      "hit": false,
      "t": 27123.261000000024,
      "d": 410.95850000000064,
      "v": 58
    },
    {
      "midi": 76,
      "hit": false,
      "t": 27328.740250000024,
      "d": 208.68986328125175,
      "v": 72
    },
    {
      "midi": 82,
      "hit": false,
      "t": 27328.740250000024,
      "d": 208.68986328125175,
      "v": 72
    },
    {
      "midi": 77,
      "hit": false,
      "t": 27534.219500000025,
      "d": 192.6367968750019,
      "v": 69
    },
    {
      "midi": 80,
      "hit": false,
      "t": 27534.219500000025,
      "d": 192.6367968750019,
      "v": 69
    },
    {
      "midi": 53,
      "hit": false,
      "t": 27534.219500000025,
      "d": 410.95850000000064,
      "v": 70
    },
    {
      "midi": 56,
      "hit": false,
      "t": 27534.219500000025,
      "d": 410.95850000000064,
      "v": 70
    },
    {
      "midi": 61,
      "hit": false,
      "t": 27534.219500000025,
      "d": 410.95850000000064,
      "v": 70
    },
    {
      "midi": 72,
      "hit": false,
      "t": 27739.698750000025,
      "d": 410.95850000000064,
      "v": 66
    },
    {
      "midi": 75,
      "hit": false,
      "t": 27739.698750000025,
      "d": 410.95850000000064,
      "v": 66
    },
    {
      "midi": 44,
      "hit": false,
      "t": 27945.178000000025,
      "d": 410.95850000000064,
      "v": 58
    },
    {
      "midi": 56,
      "hit": false,
      "t": 27945.178000000025,
      "d": 410.95850000000064,
      "v": 58
    },
    {
      "midi": 73,
      "hit": false,
      "t": 28150.657250000026,
      "d": 205.47925000000032,
      "v": 73
    },
    {
      "midi": 77,
      "hit": false,
      "t": 28150.657250000026,
      "d": 205.47925000000032,
      "v": 73
    },
    {
      "midi": 72,
      "hit": false,
      "t": 28356.136500000026,
      "d": 205.47925000000032,
      "v": 70
    },
    {
      "midi": 75,
      "hit": false,
      "t": 28356.136500000026,
      "d": 205.47925000000032,
      "v": 70
    },
    {
      "midi": 51,
      "hit": false,
      "t": 28356.136500000026,
      "d": 410.95850000000064,
      "v": 62
    },
    {
      "midi": 56,
      "hit": false,
      "t": 28356.136500000026,
      "d": 410.95850000000064,
      "v": 62
    },
    {
      "midi": 60,
      "hit": false,
      "t": 28356.136500000026,
      "d": 410.95850000000064,
      "v": 62
    },
    {
      "midi": 70,
      "hit": false,
      "t": 28561.615750000026,
      "d": 205.47925000000032,
      "v": 69
    },
    {
      "midi": 73,
      "hit": false,
      "t": 28561.615750000026,
      "d": 205.47925000000032,
      "v": 69
    },
    {
      "midi": 68,
      "hit": false,
      "t": 28767.095000000027,
      "d": 205.47925000000032,
      "v": 70
    },
    {
      "midi": 72,
      "hit": false,
      "t": 28767.095000000027,
      "d": 205.47925000000032,
      "v": 70
    },
    {
      "midi": 44,
      "hit": false,
      "t": 28767.095000000027,
      "d": 410.95850000000064,
      "v": 60
    },
    {
      "midi": 56,
      "hit": false,
      "t": 28767.095000000027,
      "d": 410.95850000000064,
      "v": 60
    },
    {
      "midi": 72,
      "hit": false,
      "t": 28972.574250000027,
      "d": 410.95850000000064,
      "v": 75
    },
    {
      "midi": 75,
      "hit": false,
      "t": 28972.574250000027,
      "d": 410.95850000000064,
      "v": 75
    },
    {
      "midi": 51,
      "hit": false,
      "t": 29178.053500000027,
      "d": 410.95850000000064,
      "v": 65
    },
    {
      "midi": 56,
      "hit": false,
      "t": 29178.053500000027,
      "d": 410.95850000000064,
      "v": 65
    },
    {
      "midi": 60,
      "hit": false,
      "t": 29178.053500000027,
      "d": 410.95850000000064,
      "v": 65
    },
    {
      "midi": 72,
      "hit": false,
      "t": 29383.532750000028,
      "d": 205.47925000000032,
      "v": 71
    },
    {
      "midi": 75,
      "hit": false,
      "t": 29383.532750000028,
      "d": 205.47925000000032,
      "v": 71
    },
    {
      "midi": 69,
      "hit": false,
      "t": 29589.012000000028,
      "d": 208.68986328125175,
      "v": 72
    },
    {
      "midi": 75,
      "hit": false,
      "t": 29589.012000000028,
      "d": 208.68986328125175,
      "v": 72
    },
    {
      "midi": 39,
      "hit": false,
      "t": 29589.012000000028,
      "d": 410.95850000000064,
      "v": 57
    },
    {
      "midi": 51,
      "hit": false,
      "t": 29589.012000000028,
      "d": 410.95850000000064,
      "v": 57
    },
    {
      "midi": 70,
      "hit": false,
      "t": 29794.49125000003,
      "d": 388.4842070312516,
      "v": 69
    },
    {
      "midi": 73,
      "hit": false,
      "t": 29794.49125000003,
      "d": 388.4842070312516,
      "v": 69
    },
    {
      "midi": 51,
      "hit": false,
      "t": 29999.97050000003,
      "d": 410.95850000000064,
      "v": 66
    },
    {
      "midi": 55,
      "hit": false,
      "t": 29999.97050000003,
      "d": 410.95850000000064,
      "v": 66
    },
    {
      "midi": 61,
      "hit": false,
      "t": 29999.97050000003,
      "d": 410.95850000000064,
      "v": 66
    },
    {
      "midi": 69,
      "hit": false,
      "t": 30205.44975000003,
      "d": 208.68986328125175,
      "v": 74
    },
    {
      "midi": 75,
      "hit": false,
      "t": 30205.44975000003,
      "d": 208.68986328125175,
      "v": 74
    },
    {
      "midi": 70,
      "hit": false,
      "t": 30410.92900000003,
      "d": 192.6367968750019,
      "v": 71
    },
    {
      "midi": 73,
      "hit": false,
      "t": 30410.92900000003,
      "d": 192.6367968750019,
      "v": 71
    },
    {
      "midi": 39,
      "hit": false,
      "t": 30410.92900000003,
      "d": 410.95850000000064,
      "v": 59
    },
    {
      "midi": 51,
      "hit": false,
      "t": 30410.92900000003,
      "d": 410.95850000000064,
      "v": 59
    },
    {
      "midi": 61,
      "hit": false,
      "t": 30616.40825000003,
      "d": 205.47925000000032,
      "v": 59
    },
    {
      "midi": 67,
      "hit": false,
      "t": 30616.40825000003,
      "d": 205.47925000000032,
      "v": 59
    },
    {
      "midi": 72,
      "hit": false,
      "t": 30616.40825000003,
      "d": 205.47925000000032,
      "v": 59
    },
    {
      "midi": 39,
      "hit": false,
      "t": 30821.88750000003,
      "d": 410.95850000000064,
      "v": 62
    },
    {
      "midi": 51,
      "hit": false,
      "t": 30821.88750000003,
      "d": 410.95850000000064,
      "v": 62
    },
    {
      "midi": 61,
      "hit": false,
      "t": 30821.88750000003,
      "d": 410.95850000000064,
      "v": 57
    },
    {
      "midi": 67,
      "hit": false,
      "t": 30821.88750000003,
      "d": 410.95850000000064,
      "v": 57
    },
    {
      "midi": 70,
      "hit": false,
      "t": 30821.88750000003,
      "d": 410.95850000000064,
      "v": 57
    },
    {
      "midi": 44,
      "hit": false,
      "t": 31232.84600000003,
      "d": 410.95850000000064,
      "v": 69
    },
    {
      "midi": 51,
      "hit": false,
      "t": 31232.84600000003,
      "d": 1232.875500000002,
      "v": 61
    },
    {
      "midi": 68,
      "hit": false,
      "t": 31232.84600000003,
      "d": 1232.875500000002,
      "v": 68
    },
    {
      "midi": 39,
      "hit": false,
      "t": 31643.80450000003,
      "d": 410.95850000000064,
      "v": 72
    },
    {
      "midi": 41,
      "hit": false,
      "t": 32054.76300000003,
      "d": 410.95850000000064,
      "v": 78
    },
    {
      "midi": 43,
      "hit": false,
      "t": 32465.721500000032,
      "d": 410.958499999997,
      "v": 78
    },
    {
      "midi": 44,
      "hit": false,
      "t": 32876.68000000003,
      "d": 410.95850000000064,
      "v": 54
    },
    {
      "midi": 68,
      "hit": false,
      "t": 32876.68000000003,
      "d": 410.95850000000064,
      "v": 63
    },
    {
      "midi": 72,
      "hit": false,
      "t": 32876.68000000003,
      "d": 410.95850000000064,
      "v": 63
    },
    {
      "midi": 51,
      "hit": false,
      "t": 33287.63850000003,
      "d": 410.95850000000064,
      "v": 69
    },
    {
      "midi": 56,
      "hit": false,
      "t": 33287.63850000003,
      "d": 410.95850000000064,
      "v": 69
    },
    {
      "midi": 60,
      "hit": false,
      "t": 33287.63850000003,
      "d": 410.95850000000064,
      "v": 69
    },
    {
      "midi": 68,
      "hit": false,
      "t": 33287.63850000003,
      "d": 821.9170000000013,
      "v": 71
    },
    {
      "midi": 72,
      "hit": false,
      "t": 33287.63850000003,
      "d": 821.9170000000013,
      "v": 71
    },
    {
      "midi": 39,
      "hit": false,
      "t": 33698.59700000003,
      "d": 410.95850000000064,
      "v": 58
    },
    {
      "midi": 51,
      "hit": false,
      "t": 34109.55550000003,
      "d": 410.95850000000064,
      "v": 69
    },
    {
      "midi": 56,
      "hit": false,
      "t": 34109.55550000003,
      "d": 410.95850000000064,
      "v": 69
    },
    {
      "midi": 60,
      "hit": false,
      "t": 34109.55550000003,
      "d": 410.95850000000064,
      "v": 69
    },
    {
      "midi": 72,
      "hit": false,
      "t": 34109.55550000003,
      "d": 410.95850000000064,
      "v": 73
    },
    {
      "midi": 75,
      "hit": false,
      "t": 34109.55550000003,
      "d": 410.95850000000064,
      "v": 73
    },
    {
      "midi": 71,
      "hit": false,
      "t": 34520.51400000003,
      "d": 208.68986328124447,
      "v": 74
    },
    {
      "midi": 77,
      "hit": false,
      "t": 34520.51400000003,
      "d": 208.68986328124447,
      "v": 74
    },
    {
      "midi": 44,
      "hit": false,
      "t": 34520.51400000003,
      "d": 410.95849999999336,
      "v": 57
    },
    {
      "midi": 72,
      "hit": false,
      "t": 34725.99325000003,
      "d": 388.4842070312443,
      "v": 71
    },
    {
      "midi": 75,
      "hit": false,
      "t": 34725.99325000003,
      "d": 388.4842070312443,
      "v": 71
    },
    {
      "midi": 51,
      "hit": false,
      "t": 34931.472500000025,
      "d": 410.95849999999336,
      "v": 70
    },
    {
      "midi": 56,
      "hit": false,
      "t": 34931.472500000025,
      "d": 410.95849999999336,
      "v": 70
    },
    {
      "midi": 60,
      "hit": false,
      "t": 34931.472500000025,
      "d": 410.95849999999336,
      "v": 70
    },
    {
      "midi": 71,
      "hit": false,
      "t": 35136.95175000002,
      "d": 208.68986328124447,
      "v": 72
    },
    {
      "midi": 77,
      "hit": false,
      "t": 35136.95175000002,
      "d": 208.68986328124447,
      "v": 72
    },
    {
      "midi": 72,
      "hit": false,
      "t": 35342.43100000002,
      "d": 192.63679687499825,
      "v": 70
    },
    {
      "midi": 75,
      "hit": false,
      "t": 35342.43100000002,
      "d": 192.63679687499825,
      "v": 70
    },
    {
      "midi": 39,
      "hit": false,
      "t": 35342.43100000002,
      "d": 410.95849999999336,
      "v": 57
    },
    {
      "midi": 71,
      "hit": false,
      "t": 35547.910250000015,
      "d": 208.68986328124447,
      "v": 72
    },
    {
      "midi": 77,
      "hit": false,
      "t": 35547.910250000015,
      "d": 208.68986328124447,
      "v": 72
    },
    {
      "midi": 72,
      "hit": false,
      "t": 35753.38950000001,
      "d": 388.4842070312443,
      "v": 73
    },
    {
      "midi": 75,
      "hit": false,
      "t": 35753.38950000001,
      "d": 388.4842070312443,
      "v": 73
    },
    {
      "midi": 51,
      "hit": false,
      "t": 35753.38950000001,
      "d": 410.95849999999336,
      "v": 70
    },
    {
      "midi": 56,
      "hit": false,
      "t": 35753.38950000001,
      "d": 410.95849999999336,
      "v": 70
    },
    {
      "midi": 60,
      "hit": false,
      "t": 35753.38950000001,
      "d": 410.95849999999336,
      "v": 70
    },
    {
      "midi": 76,
      "hit": false,
      "t": 36164.348000000005,
      "d": 208.68986328124447,
      "v": 77
    },
    {
      "midi": 82,
      "hit": false,
      "t": 36164.348000000005,
      "d": 208.68986328124447,
      "v": 77
    },
    {
      "midi": 37,
      "hit": false,
      "t": 36164.348000000005,
      "d": 410.95849999999336,
      "v": 58
    },
    {
      "midi": 77,
      "hit": false,
      "t": 36369.82725,
      "d": 388.4842070312443,
      "v": 77
    },
    {
      "midi": 80,
      "hit": false,
      "t": 36369.82725,
      "d": 388.4842070312443,
      "v": 77
    },
    {
      "midi": 53,
      "hit": false,
      "t": 36575.3065,
      "d": 410.95849999999336,
      "v": 67
    },
    {
      "midi": 56,
      "hit": false,
      "t": 36575.3065,
      "d": 410.95849999999336,
      "v": 67
    },
    {
      "midi": 61,
      "hit": false,
      "t": 36575.3065,
      "d": 410.95849999999336,
      "v": 67
    },
    {
      "midi": 76,
      "hit": false,
      "t": 36780.785749999995,
      "d": 208.68986328124447,
      "v": 73
    },
    {
      "midi": 82,
      "hit": false,
      "t": 36780.785749999995,
      "d": 208.68986328124447,
      "v": 73
    },
    {
      "midi": 77,
      "hit": false,
      "t": 36986.26499999999,
      "d": 192.63679687499825,
      "v": 70
    },
    {
      "midi": 80,
      "hit": false,
      "t": 36986.26499999999,
      "d": 192.63679687499825,
      "v": 70
    },
    {
      "midi": 37,
      "hit": false,
      "t": 36986.26499999999,
      "d": 410.95849999999336,
      "v": 59
    },
    {
      "midi": 76,
      "hit": false,
      "t": 37191.74424999999,
      "d": 208.68986328124447,
      "v": 73
    },
    {
      "midi": 82,
      "hit": false,
      "t": 37191.74424999999,
      "d": 208.68986328124447,
      "v": 73
    },
    {
      "midi": 77,
      "hit": false,
      "t": 37397.223499999986,
      "d": 192.63679687499825,
      "v": 72
    },
    {
      "midi": 80,
      "hit": false,
      "t": 37397.223499999986,
      "d": 192.63679687499825,
      "v": 72
    },
    {
      "midi": 53,
      "hit": false,
      "t": 37397.223499999986,
      "d": 410.95849999999336,
      "v": 70
    },
    {
      "midi": 56,
      "hit": false,
      "t": 37397.223499999986,
      "d": 410.95849999999336,
      "v": 70
    },
    {
      "midi": 61,
      "hit": false,
      "t": 37397.223499999986,
      "d": 410.95849999999336,
      "v": 70
    },
    {
      "midi": 72,
      "hit": false,
      "t": 37602.70274999998,
      "d": 1849.3132499999774,
      "v": 67
    },
    {
      "midi": 75,
      "hit": false,
      "t": 37602.70274999998,
      "d": 1849.3132499999774,
      "v": 67
    },
    {
      "midi": 44,
      "hit": false,
      "t": 37808.18199999998,
      "d": 410.95850000000064,
      "v": 57
    },
    {
      "midi": 63,
      "hit": false,
      "t": 38219.14049999998,
      "d": 208.68986328124447,
      "v": 68
    },
    {
      "midi": 51,
      "hit": false,
      "t": 38219.14049999998,
      "d": 410.95849999999336,
      "v": 67
    },
    {
      "midi": 56,
      "hit": false,
      "t": 38219.14049999998,
      "d": 410.95849999999336,
      "v": 67
    },
    {
      "midi": 60,
      "hit": false,
      "t": 38219.14049999998,
      "d": 410.95849999999336,
      "v": 67
    },
    {
      "midi": 65,
      "hit": false,
      "t": 38424.619749999976,
      "d": 208.68986328124447,
      "v": 69
    },
    {
      "midi": 67,
      "hit": false,
      "t": 38630.09899999997,
      "d": 208.68986328124447,
      "v": 76
    },
    {
      "midi": 39,
      "hit": false,
      "t": 38630.09899999997,
      "d": 410.95849999999336,
      "v": 58
    },
    {
      "midi": 68,
      "hit": false,
      "t": 38835.57824999997,
      "d": 208.68986328124447,
      "v": 79
    },
    {
      "midi": 70,
      "hit": false,
      "t": 39041.057499999966,
      "d": 208.68986328124447,
      "v": 78
    },
    {
      "midi": 51,
      "hit": false,
      "t": 39041.057499999966,
      "d": 410.95849999999336,
      "v": 70
    },
    {
      "midi": 56,
      "hit": false,
      "t": 39041.057499999966,
      "d": 410.95849999999336,
      "v": 70
    },
    {
      "midi": 60,
      "hit": false,
      "t": 39041.057499999966,
      "d": 410.95849999999336,
      "v": 70
    },
    {
      "midi": 71,
      "hit": false,
      "t": 39246.53674999996,
      "d": 192.63679687499825,
      "v": 80
    },
    {
      "midi": 44,
      "hit": false,
      "t": 39452.01599999996,
      "d": 410.95850000000064,
      "v": 56
    },
    {
      "midi": 68,
      "hit": false,
      "t": 39452.01599999996,
      "d": 410.95850000000064,
      "v": 70
    },
    {
      "midi": 72,
      "hit": false,
      "t": 39452.01599999996,
      "d": 410.95850000000064,
      "v": 70
    },
    {
      "midi": 51,
      "hit": false,
      "t": 39862.97449999996,
      "d": 410.95850000000064,
      "v": 72
    },
    {
      "midi": 56,
      "hit": false,
      "t": 39862.97449999996,
      "d": 410.95850000000064,
      "v": 72
    },
    {
      "midi": 60,
      "hit": false,
      "t": 39862.97449999996,
      "d": 410.95850000000064,
      "v": 72
    },
    {
      "midi": 68,
      "hit": false,
      "t": 39862.97449999996,
      "d": 821.9170000000013,
      "v": 68
    },
    {
      "midi": 72,
      "hit": false,
      "t": 39862.97449999996,
      "d": 821.9170000000013,
      "v": 68
    },
    {
      "midi": 39,
      "hit": false,
      "t": 40273.93299999996,
      "d": 410.95850000000064,
      "v": 60
    },
    {
      "midi": 51,
      "hit": false,
      "t": 40684.89149999996,
      "d": 410.95850000000064,
      "v": 66
    },
    {
      "midi": 56,
      "hit": false,
      "t": 40684.89149999996,
      "d": 410.95850000000064,
      "v": 66
    },
    {
      "midi": 60,
      "hit": false,
      "t": 40684.89149999996,
      "d": 410.95850000000064,
      "v": 66
    },
    {
      "midi": 72,
      "hit": false,
      "t": 40684.89149999996,
      "d": 410.95850000000064,
      "v": 74
    },
    {
      "midi": 75,
      "hit": false,
      "t": 40684.89149999996,
      "d": 410.95850000000064,
      "v": 74
    },
    {
      "midi": 71,
      "hit": false,
      "t": 41095.84999999996,
      "d": 208.68986328124447,
      "v": 72
    },
    {
      "midi": 77,
      "hit": false,
      "t": 41095.84999999996,
      "d": 208.68986328124447,
      "v": 72
    },
    {
      "midi": 44,
      "hit": false,
      "t": 41095.84999999996,
      "d": 410.95849999999336,
      "v": 57
    },
    {
      "midi": 72,
      "hit": false,
      "t": 41301.32924999996,
      "d": 388.4842070312443,
      "v": 73
    },
    {
      "midi": 75,
      "hit": false,
      "t": 41301.32924999996,
      "d": 388.4842070312443,
      "v": 73
    },
    {
      "midi": 51,
      "hit": false,
      "t": 41506.808499999956,
      "d": 410.95849999999336,
      "v": 71
    },
    {
      "midi": 56,
      "hit": false,
      "t": 41506.808499999956,
      "d": 410.95849999999336,
      "v": 71
    },
    {
      "midi": 60,
      "hit": false,
      "t": 41506.808499999956,
      "d": 410.95849999999336,
      "v": 71
    },
    {
      "midi": 71,
      "hit": false,
      "t": 41712.28774999995,
      "d": 208.68986328124447,
      "v": 74
    },
    {
      "midi": 77,
      "hit": false,
      "t": 41712.28774999995,
      "d": 208.68986328124447,
      "v": 74
    },
    {
      "midi": 72,
      "hit": false,
      "t": 41917.76699999995,
      "d": 192.63679687499825,
      "v": 70
    },
    {
      "midi": 75,
      "hit": false,
      "t": 41917.76699999995,
      "d": 192.63679687499825,
      "v": 70
    },
    {
      "midi": 45,
      "hit": false,
      "t": 41917.76699999995,
      "d": 410.95849999999336,
      "v": 59
    },
    {
      "midi": 72,
      "hit": false,
      "t": 42123.246249999946,
      "d": 205.47924999999668,
      "v": 70
    },
    {
      "midi": 75,
      "hit": false,
      "t": 42123.246249999946,
      "d": 205.47924999999668,
      "v": 70
    },
    {
      "midi": 54,
      "hit": false,
      "t": 42328.72549999994,
      "d": 410.95850000000064,
      "v": 68
    },
    {
      "midi": 57,
      "hit": false,
      "t": 42328.72549999994,
      "d": 410.95850000000064,
      "v": 68
    },
    {
      "midi": 63,
      "hit": false,
      "t": 42328.72549999994,
      "d": 410.95850000000064,
      "v": 68
    },
    {
      "midi": 72,
      "hit": false,
      "t": 42328.72549999994,
      "d": 410.95850000000064,
      "v": 73
    },
    {
      "midi": 75,
      "hit": false,
      "t": 42328.72549999994,
      "d": 410.95850000000064,
      "v": 73
    },
    {
      "midi": 75,
      "hit": false,
      "t": 42739.68399999994,
      "d": 205.47924999999668,
      "v": 69
    },
    {
      "midi": 46,
      "hit": false,
      "t": 42739.68399999994,
      "d": 410.95849999999336,
      "v": 58
    },
    {
      "midi": 70,
      "hit": false,
      "t": 42945.16324999994,
      "d": 410.95849999999336,
      "v": 66
    },
    {
      "midi": 67,
      "hit": false,
      "t": 42945.16324999994,
      "d": 616.43774999999,
      "v": 73
    },
    {
      "midi": 55,
      "hit": false,
      "t": 43150.642499999936,
      "d": 410.95849999999336,
      "v": 69
    },
    {
      "midi": 58,
      "hit": false,
      "t": 43150.642499999936,
      "d": 410.95849999999336,
      "v": 69
    },
    {
      "midi": 63,
      "hit": false,
      "t": 43150.642499999936,
      "d": 410.95849999999336,
      "v": 69
    },
    {
      "midi": 75,
      "hit": false,
      "t": 43356.12174999993,
      "d": 205.47924999999668,
      "v": 76
    },
    {
      "midi": 74,
      "hit": false,
      "t": 43561.60099999993,
      "d": 205.47924999999668,
      "v": 68
    },
    {
      "midi": 46,
      "hit": false,
      "t": 43561.60099999993,
      "d": 410.95849999999336,
      "v": 58
    },
    {
      "midi": 68,
      "hit": false,
      "t": 43561.60099999993,
      "d": 410.95849999999336,
      "v": 79
    },
    {
      "midi": 75,
      "hit": false,
      "t": 43767.080249999926,
      "d": 205.47924999999668,
      "v": 73
    },
    {
      "midi": 58,
      "hit": false,
      "t": 43972.55949999992,
      "d": 410.95850000000064,
      "v": 69
    },
    {
      "midi": 62,
      "hit": false,
      "t": 43972.55949999992,
      "d": 410.95850000000064,
      "v": 69
    },
    {
      "midi": 68,
      "hit": false,
      "t": 43972.55949999992,
      "d": 410.95850000000064,
      "v": 75
    },
    {
      "midi": 77,
      "hit": false,
      "t": 43972.55949999992,
      "d": 410.95850000000064,
      "v": 72
    },
    {
      "midi": 51,
      "hit": false,
      "t": 44383.51799999992,
      "d": 410.95850000000064,
      "v": 64
    },
    {
      "midi": 63,
      "hit": false,
      "t": 44383.51799999992,
      "d": 410.95850000000064,
      "v": 64
    },
    {
      "midi": 67,
      "hit": false,
      "t": 44383.51799999992,
      "d": 1027.396249999998,
      "v": 68
    },
    {
      "midi": 75,
      "hit": false,
      "t": 44383.51799999992,
      "d": 1027.396249999998,
      "v": 68
    },
    {
      "midi": 49,
      "hit": false,
      "t": 44794.476499999924,
      "d": 410.95850000000064,
      "v": 61
    },
    {
      "midi": 61,
      "hit": false,
      "t": 44794.476499999924,
      "d": 410.95850000000064,
      "v": 61
    },
    {
      "midi": 48,
      "hit": false,
      "t": 45205.434999999925,
      "d": 410.95849999999336,
      "v": 59
    },
    {
      "midi": 60,
      "hit": false,
      "t": 45205.434999999925,
      "d": 410.95849999999336,
      "v": 59
    },
    {
      "midi": 63,
      "hit": false,
      "t": 45410.91424999992,
      "d": 205.47924999999668,
      "v": 60
    },
    {
      "midi": 67,
      "hit": false,
      "t": 45616.39349999992,
      "d": 205.47924999999668,
      "v": 75
    },
    {
      "midi": 46,
      "hit": false,
      "t": 45616.39349999992,
      "d": 410.95849999999336,
      "v": 60
    },
    {
      "midi": 58,
      "hit": false,
      "t": 45616.39349999992,
      "d": 410.95849999999336,
      "v": 60
    },
    {
      "midi": 73,
      "hit": false,
      "t": 45821.872749999915,
      "d": 205.47924999999668,
      "v": 76
    },
    {
      "midi": 44,
      "hit": false,
      "t": 46027.35199999991,
      "d": 410.95850000000064,
      "v": 59
    },
    {
      "midi": 56,
      "hit": false,
      "t": 46027.35199999991,
      "d": 410.95850000000064,
      "v": 59
    },
    {
      "midi": 68,
      "hit": false,
      "t": 46027.35199999991,
      "d": 410.95850000000064,
      "v": 68
    },
    {
      "midi": 72,
      "hit": false,
      "t": 46027.35199999991,
      "d": 410.95850000000064,
      "v": 68
    },
    {
      "midi": 51,
      "hit": false,
      "t": 46438.31049999991,
      "d": 410.95850000000064,
      "v": 64
    },
    {
      "midi": 56,
      "hit": false,
      "t": 46438.31049999991,
      "d": 410.95850000000064,
      "v": 64
    },
    {
      "midi": 60,
      "hit": false,
      "t": 46438.31049999991,
      "d": 410.95850000000064,
      "v": 64
    },
    {
      "midi": 68,
      "hit": false,
      "t": 46438.31049999991,
      "d": 821.9170000000013,
      "v": 72
    },
    {
      "midi": 72,
      "hit": false,
      "t": 46438.31049999991,
      "d": 821.9170000000013,
      "v": 72
    },
    {
      "midi": 39,
      "hit": false,
      "t": 46849.26899999991,
      "d": 410.95850000000064,
      "v": 56
    },
    {
      "midi": 51,
      "hit": false,
      "t": 47260.22749999991,
      "d": 410.95850000000064,
      "v": 70
    },
    {
      "midi": 56,
      "hit": false,
      "t": 47260.22749999991,
      "d": 410.95850000000064,
      "v": 70
    },
    {
      "midi": 60,
      "hit": false,
      "t": 47260.22749999991,
      "d": 410.95850000000064,
      "v": 70
    },
    {
      "midi": 72,
      "hit": false,
      "t": 47260.22749999991,
      "d": 410.95850000000064,
      "v": 75
    },
    {
      "midi": 75,
      "hit": false,
      "t": 47260.22749999991,
      "d": 410.95850000000064,
      "v": 75
    },
    {
      "midi": 71,
      "hit": false,
      "t": 47671.185999999914,
      "d": 208.68986328124447,
      "v": 73
    },
    {
      "midi": 77,
      "hit": false,
      "t": 47671.185999999914,
      "d": 208.68986328124447,
      "v": 73
    },
    {
      "midi": 44,
      "hit": false,
      "t": 47671.185999999914,
      "d": 410.95849999999336,
      "v": 59
    },
    {
      "midi": 72,
      "hit": false,
      "t": 47876.66524999991,
      "d": 388.4842070312443,
      "v": 71
    },
    {
      "midi": 75,
      "hit": false,
      "t": 47876.66524999991,
      "d": 388.4842070312443,
      "v": 71
    },
    {
      "midi": 51,
      "hit": false,
      "t": 48082.14449999991,
      "d": 410.95849999999336,
      "v": 66
    },
    {
      "midi": 56,
      "hit": false,
      "t": 48082.14449999991,
      "d": 410.95849999999336,
      "v": 66
    },
    {
      "midi": 60,
      "hit": false,
      "t": 48082.14449999991,
      "d": 410.95849999999336,
      "v": 66
    },
    {
      "midi": 71,
      "hit": false,
      "t": 48287.623749999904,
      "d": 208.68986328124447,
      "v": 73
    },
    {
      "midi": 77,
      "hit": false,
      "t": 48287.623749999904,
      "d": 208.68986328124447,
      "v": 73
    },
    {
      "midi": 72,
      "hit": false,
      "t": 48493.1029999999,
      "d": 192.63679687499825,
      "v": 70
    },
    {
      "midi": 75,
      "hit": false,
      "t": 48493.1029999999,
      "d": 192.63679687499825,
      "v": 70
    },
    {
      "midi": 39,
      "hit": false,
      "t": 48493.1029999999,
      "d": 410.95849999999336,
      "v": 58
    },
    {
      "midi": 71,
      "hit": false,
      "t": 48698.5822499999,
      "d": 208.68986328124447,
      "v": 73
    },
    {
      "midi": 77,
      "hit": false,
      "t": 48698.5822499999,
      "d": 208.68986328124447,
      "v": 73
    },
    {
      "midi": 72,
      "hit": false,
      "t": 48904.061499999894,
      "d": 388.4842070312443,
      "v": 71
    },
    {
      "midi": 75,
      "hit": false,
      "t": 48904.061499999894,
      "d": 388.4842070312443,
      "v": 71
    },
    {
      "midi": 51,
      "hit": false,
      "t": 48904.061499999894,
      "d": 410.95849999999336,
      "v": 70
    },
    {
      "midi": 56,
      "hit": false,
      "t": 48904.061499999894,
      "d": 410.95849999999336,
      "v": 70
    },
    {
      "midi": 60,
      "hit": false,
      "t": 48904.061499999894,
      "d": 410.95849999999336,
      "v": 70
    },
    {
      "midi": 76,
      "hit": false,
      "t": 49315.01999999989,
      "d": 208.68986328124447,
      "v": 78
    },
    {
      "midi": 82,
      "hit": false,
      "t": 49315.01999999989,
      "d": 208.68986328124447,
      "v": 78
    },
    {
      "midi": 37,
      "hit": false,
      "t": 49315.01999999989,
      "d": 410.95849999999336,
      "v": 58
    },
    {
      "midi": 77,
      "hit": false,
      "t": 49520.499249999884,
      "d": 388.4842070312443,
      "v": 76
    },
    {
      "midi": 80,
      "hit": false,
      "t": 49520.499249999884,
      "d": 388.4842070312443,
      "v": 76
    },
    {
      "midi": 53,
      "hit": false,
      "t": 49725.97849999988,
      "d": 410.95849999999336,
      "v": 69
    },
    {
      "midi": 56,
      "hit": false,
      "t": 49725.97849999988,
      "d": 410.95849999999336,
      "v": 69
    },
    {
      "midi": 61,
      "hit": false,
      "t": 49725.97849999988,
      "d": 410.95849999999336,
      "v": 69
    },
    {
      "midi": 76,
      "hit": false,
      "t": 49931.45774999988,
      "d": 208.68986328124447,
      "v": 76
    },
    {
      "midi": 82,
      "hit": false,
      "t": 49931.45774999988,
      "d": 208.68986328124447,
      "v": 76
    },
    {
      "midi": 77,
      "hit": false,
      "t": 50136.936999999874,
      "d": 192.63679687499825,
      "v": 73
    },
    {
      "midi": 80,
      "hit": false,
      "t": 50136.936999999874,
      "d": 192.63679687499825,
      "v": 73
    },
    {
      "midi": 49,
      "hit": false,
      "t": 50136.936999999874,
      "d": 410.95849999999336,
      "v": 60
    },
    {
      "midi": 61,
      "hit": false,
      "t": 50136.936999999874,
      "d": 410.95849999999336,
      "v": 60
    },
    {
      "midi": 77,
      "hit": false,
      "t": 50342.41624999987,
      "d": 205.47924999999668,
      "v": 70
    },
    {
      "midi": 80,
      "hit": false,
      "t": 50342.41624999987,
      "d": 205.47924999999668,
      "v": 70
    },
    {
      "midi": 77,
      "hit": false,
      "t": 50547.89549999987,
      "d": 205.47924999999668,
      "v": 74
    },
    {
      "midi": 79,
      "hit": false,
      "t": 50547.89549999987,
      "d": 205.47924999999668,
      "v": 74
    },
    {
      "midi": 82,
      "hit": false,
      "t": 50547.89549999987,
      "d": 205.47924999999668,
      "v": 74
    },
    {
      "midi": 49,
      "hit": false,
      "t": 50547.89549999987,
      "d": 410.95849999999336,
      "v": 63
    },
    {
      "midi": 61,
      "hit": false,
      "t": 50547.89549999987,
      "d": 410.95849999999336,
      "v": 63
    },
    {
      "midi": 48,
      "hit": false,
      "t": 50958.85399999986,
      "d": 410.95849999999336,
      "v": 59
    },
    {
      "midi": 60,
      "hit": false,
      "t": 50958.85399999986,
      "d": 410.95849999999336,
      "v": 59
    },
    {
      "midi": 72,
      "hit": false,
      "t": 51164.33324999986,
      "d": 205.47924999999668,
      "v": 66
    },
    {
      "midi": 76,
      "hit": false,
      "t": 51369.812499999854,
      "d": 205.47924999999668,
      "v": 80
    },
    {
      "midi": 43,
      "hit": false,
      "t": 51369.812499999854,
      "d": 410.95849999999336,
      "v": 59
    },
    {
      "midi": 55,
      "hit": false,
      "t": 51369.812499999854,
      "d": 410.95849999999336,
      "v": 59
    },
    {
      "midi": 79,
      "hit": false,
      "t": 51575.29174999985,
      "d": 205.47924999999668,
      "v": 78
    },
    {
      "midi": 36,
      "hit": false,
      "t": 51780.77099999985,
      "d": 410.95850000000064,
      "v": 59
    },
    {
      "midi": 48,
      "hit": false,
      "t": 51780.77099999985,
      "d": 410.95850000000064,
      "v": 59
    },
    {
      "midi": 84,
      "hit": false,
      "t": 51780.77099999985,
      "d": 410.95850000000064,
      "v": 82
    },
    {
      "midi": 79,
      "hit": false,
      "t": 52191.72949999985,
      "d": 205.47924999999668,
      "v": 66
    },
    {
      "midi": 80,
      "hit": false,
      "t": 52397.208749999845,
      "d": 205.47924999999668,
      "v": 74
    },
    {
      "midi": 76,
      "hit": false,
      "t": 52602.68799999984,
      "d": 208.68986328124447,
      "v": 72
    },
    {
      "midi": 82,
      "hit": false,
      "t": 52602.68799999984,
      "d": 208.68986328124447,
      "v": 72
    },
    {
      "midi": 37,
      "hit": false,
      "t": 52602.68799999984,
      "d": 410.95849999999336,
      "v": 56
    },
    {
      "midi": 49,
      "hit": false,
      "t": 52602.68799999984,
      "d": 410.95849999999336,
      "v": 56
    },
    {
      "midi": 77,
      "hit": false,
      "t": 52808.16724999984,
      "d": 388.4842070312443,
      "v": 71
    },
    {
      "midi": 80,
      "hit": false,
      "t": 52808.16724999984,
      "d": 388.4842070312443,
      "v": 71
    },
    {
      "midi": 53,
      "hit": false,
      "t": 53013.646499999835,
      "d": 410.95849999999336,
      "v": 70
    },
    {
      "midi": 56,
      "hit": false,
      "t": 53013.646499999835,
      "d": 410.95849999999336,
      "v": 70
    },
    {
      "midi": 61,
      "hit": false,
      "t": 53013.646499999835,
      "d": 410.95849999999336,
      "v": 70
    },
    {
      "midi": 76,
      "hit": false,
      "t": 53219.12574999983,
      "d": 208.68986328124447,
      "v": 72
    },
    {
      "midi": 82,
      "hit": false,
      "t": 53219.12574999983,
      "d": 208.68986328124447,
      "v": 72
    },
    {
      "midi": 77,
      "hit": false,
      "t": 53424.60499999983,
      "d": 192.63679687499825,
      "v": 68
    },
    {
      "midi": 80,
      "hit": false,
      "t": 53424.60499999983,
      "d": 192.63679687499825,
      "v": 68
    },
    {
      "midi": 37,
      "hit": false,
      "t": 53424.60499999983,
      "d": 410.95849999999336,
      "v": 59
    },
    {
      "midi": 49,
      "hit": false,
      "t": 53424.60499999983,
      "d": 410.95849999999336,
      "v": 59
    },
    {
      "midi": 76,
      "hit": false,
      "t": 53630.084249999825,
      "d": 208.68986328124447,
      "v": 73
    },
    {
      "midi": 82,
      "hit": false,
      "t": 53630.084249999825,
      "d": 208.68986328124447,
      "v": 73
    },
    {
      "midi": 77,
      "hit": false,
      "t": 53835.56349999982,
      "d": 192.63679687499825,
      "v": 72
    },
    {
      "midi": 80,
      "hit": false,
      "t": 53835.56349999982,
      "d": 192.63679687499825,
      "v": 72
    },
    {
      "midi": 53,
      "hit": false,
      "t": 53835.56349999982,
      "d": 410.95849999999336,
      "v": 70
    },
    {
      "midi": 56,
      "hit": false,
      "t": 53835.56349999982,
      "d": 410.95849999999336,
      "v": 70
    },
    {
      "midi": 61,
      "hit": false,
      "t": 53835.56349999982,
      "d": 410.95849999999336,
      "v": 70
    },
    {
      "midi": 72,
      "hit": false,
      "t": 54041.04274999982,
      "d": 410.95849999999336,
      "v": 66
    },
    {
      "midi": 75,
      "hit": false,
      "t": 54041.04274999982,
      "d": 410.95849999999336,
      "v": 66
    },
    {
      "midi": 44,
      "hit": false,
      "t": 54246.521999999815,
      "d": 410.95849999999336,
      "v": 59
    },
    {
      "midi": 56,
      "hit": false,
      "t": 54246.521999999815,
      "d": 410.95849999999336,
      "v": 59
    },
    {
      "midi": 73,
      "hit": false,
      "t": 54452.00124999981,
      "d": 205.47924999999668,
      "v": 74
    },
    {
      "midi": 77,
      "hit": false,
      "t": 54452.00124999981,
      "d": 205.47924999999668,
      "v": 74
    },
    {
      "midi": 72,
      "hit": false,
      "t": 54657.48049999981,
      "d": 205.47924999999668,
      "v": 70
    },
    {
      "midi": 75,
      "hit": false,
      "t": 54657.48049999981,
      "d": 205.47924999999668,
      "v": 70
    },
    {
      "midi": 51,
      "hit": false,
      "t": 54657.48049999981,
      "d": 410.95849999999336,
      "v": 68
    },
    {
      "midi": 56,
      "hit": false,
      "t": 54657.48049999981,
      "d": 410.95849999999336,
      "v": 68
    },
    {
      "midi": 60,
      "hit": false,
      "t": 54657.48049999981,
      "d": 410.95849999999336,
      "v": 68
    },
    {
      "midi": 70,
      "hit": false,
      "t": 54862.959749999805,
      "d": 205.47924999999668,
      "v": 68
    },
    {
      "midi": 73,
      "hit": false,
      "t": 54862.959749999805,
      "d": 205.47924999999668,
      "v": 68
    },
    {
      "midi": 68,
      "hit": false,
      "t": 55068.4389999998,
      "d": 205.47924999999668,
      "v": 70
    },
    {
      "midi": 72,
      "hit": false,
      "t": 55068.4389999998,
      "d": 205.47924999999668,
      "v": 70
    },
    {
      "midi": 44,
      "hit": false,
      "t": 55068.4389999998,
      "d": 410.95849999999336,
      "v": 61
    },
    {
      "midi": 56,
      "hit": false,
      "t": 55068.4389999998,
      "d": 410.95849999999336,
      "v": 61
    },
    {
      "midi": 72,
      "hit": false,
      "t": 55273.9182499998,
      "d": 410.95849999999336,
      "v": 73
    },
    {
      "midi": 75,
      "hit": false,
      "t": 55273.9182499998,
      "d": 410.95849999999336,
      "v": 73
    },
    {
      "midi": 51,
      "hit": false,
      "t": 55479.397499999795,
      "d": 410.95849999999336,
      "v": 64
    },
    {
      "midi": 56,
      "hit": false,
      "t": 55479.397499999795,
      "d": 410.95849999999336,
      "v": 64
    },
    {
      "midi": 60,
      "hit": false,
      "t": 55479.397499999795,
      "d": 410.95849999999336,
      "v": 64
    },
    {
      "midi": 72,
      "hit": false,
      "t": 55684.87674999979,
      "d": 205.47924999999668,
      "v": 71
    },
    {
      "midi": 75,
      "hit": false,
      "t": 55684.87674999979,
      "d": 205.47924999999668,
      "v": 71
    },
    {
      "midi": 69,
      "hit": false,
      "t": 55890.35599999979,
      "d": 208.68986328124447,
      "v": 71
    },
    {
      "midi": 75,
      "hit": false,
      "t": 55890.35599999979,
      "d": 208.68986328124447,
      "v": 71
    },
    {
      "midi": 39,
      "hit": false,
      "t": 55890.35599999979,
      "d": 410.95849999999336,
      "v": 59
    },
    {
      "midi": 51,
      "hit": false,
      "t": 55890.35599999979,
      "d": 410.95849999999336,
      "v": 59
    },
    {
      "midi": 70,
      "hit": false,
      "t": 56095.835249999785,
      "d": 388.4842070312443,
      "v": 69
    },
    {
      "midi": 73,
      "hit": false,
      "t": 56095.835249999785,
      "d": 388.4842070312443,
      "v": 69
    },
    {
      "midi": 51,
      "hit": false,
      "t": 56301.31449999978,
      "d": 410.95849999999336,
      "v": 70
    },
    {
      "midi": 55,
      "hit": false,
      "t": 56301.31449999978,
      "d": 410.95849999999336,
      "v": 70
    },
    {
      "midi": 61,
      "hit": false,
      "t": 56301.31449999978,
      "d": 410.95849999999336,
      "v": 70
    },
    {
      "midi": 69,
      "hit": false,
      "t": 56506.79374999978,
      "d": 208.68986328124447,
      "v": 73
    },
    {
      "midi": 75,
      "hit": false,
      "t": 56506.79374999978,
      "d": 208.68986328124447,
      "v": 73
    },
    {
      "midi": 70,
      "hit": false,
      "t": 56712.272999999775,
      "d": 192.63679687499825,
      "v": 71
    },
    {
      "midi": 73,
      "hit": false,
      "t": 56712.272999999775,
      "d": 192.63679687499825,
      "v": 71
    },
    {
      "midi": 39,
      "hit": false,
      "t": 56712.272999999775,
      "d": 410.95849999999336,
      "v": 57
    },
    {
      "midi": 51,
      "hit": false,
      "t": 56712.272999999775,
      "d": 410.95849999999336,
      "v": 57
    },
    {
      "midi": 61,
      "hit": false,
      "t": 56917.75224999977,
      "d": 205.47924999999668,
      "v": 59
    },
    {
      "midi": 67,
      "hit": false,
      "t": 56917.75224999977,
      "d": 205.47924999999668,
      "v": 59
    },
    {
      "midi": 72,
      "hit": false,
      "t": 56917.75224999977,
      "d": 205.47924999999668,
      "v": 59
    },
    {
      "midi": 39,
      "hit": false,
      "t": 57123.23149999977,
      "d": 410.95850000000064,
      "v": 60
    },
    {
      "midi": 51,
      "hit": false,
      "t": 57123.23149999977,
      "d": 410.95850000000064,
      "v": 60
    },
    {
      "midi": 61,
      "hit": false,
      "t": 57123.23149999977,
      "d": 410.95850000000064,
      "v": 59
    },
    {
      "midi": 67,
      "hit": false,
      "t": 57123.23149999977,
      "d": 410.95850000000064,
      "v": 59
    },
    {
      "midi": 70,
      "hit": false,
      "t": 57123.23149999977,
      "d": 410.95850000000064,
      "v": 59
    },
    {
      "midi": 44,
      "hit": false,
      "t": 57534.18999999977,
      "d": 410.95850000000064,
      "v": 65
    },
    {
      "midi": 56,
      "hit": false,
      "t": 57534.18999999977,
      "d": 410.95850000000064,
      "v": 65
    },
    {
      "midi": 60,
      "hit": false,
      "t": 57534.18999999977,
      "d": 821.9170000000013,
      "v": 59
    },
    {
      "midi": 68,
      "hit": false,
      "t": 57534.18999999977,
      "d": 821.9170000000013,
      "v": 59
    },
    {
      "midi": 39,
      "hit": false,
      "t": 57945.14849999977,
      "d": 410.95850000000064,
      "v": 60
    },
    {
      "midi": 51,
      "hit": false,
      "t": 57945.14849999977,
      "d": 410.95850000000064,
      "v": 60
    },
    {
      "midi": 32,
      "hit": false,
      "t": 58356.10699999977,
      "d": 410.95850000000064,
      "v": 58
    },
    {
      "midi": 44,
      "hit": false,
      "t": 58356.10699999977,
      "d": 410.95850000000064,
      "v": 58
    },
    {
      "midi": 68,
      "hit": false,
      "t": 58356.10699999977,
      "d": 410.95850000000064,
      "v": 70
    },
    {
      "midi": 72,
      "hit": false,
      "t": 58356.10699999977,
      "d": 410.95850000000064,
      "v": 70
    },
    {
      "midi": 75,
      "hit": false,
      "t": 58356.10699999977,
      "d": 410.95850000000064,
      "v": 70
    },
    {
      "midi": 80,
      "hit": false,
      "t": 58356.10699999977,
      "d": 410.95850000000064,
      "v": 70
    },
    {
      "midi": 63,
      "hit": false,
      "t": 58767.06549999977,
      "d": 205.47924999999668,
      "v": 54
    },
    {
      "midi": 64,
      "hit": false,
      "t": 58972.54474999977,
      "d": 205.47924999999668,
      "v": 64
    },
    {
      "midi": 65,
      "hit": false,
      "t": 59178.023999999765,
      "d": 205.47924999999668,
      "v": 62
    },
    {
      "midi": 39,
      "hit": false,
      "t": 59178.023999999765,
      "d": 410.95849999999336,
      "v": 54
    },
    {
      "midi": 51,
      "hit": false,
      "t": 59178.023999999765,
      "d": 410.95849999999336,
      "v": 54
    },
    {
      "midi": 66,
      "hit": false,
      "t": 59383.50324999976,
      "d": 205.47924999999668,
      "v": 64
    },
    {
      "midi": 67,
      "hit": false,
      "t": 59588.98249999976,
      "d": 205.47924999999668,
      "v": 63
    },
    {
      "midi": 51,
      "hit": false,
      "t": 59588.98249999976,
      "d": 410.95849999999336,
      "v": 67
    },
    {
      "midi": 58,
      "hit": false,
      "t": 59588.98249999976,
      "d": 410.95849999999336,
      "v": 67
    },
    {
      "midi": 61,
      "hit": false,
      "t": 59588.98249999976,
      "d": 410.95849999999336,
      "v": 67
    },
    {
      "midi": 67,
      "hit": false,
      "t": 59794.461749999755,
      "d": 410.95849999999336,
      "v": 64
    },
    {
      "midi": 70,
      "hit": false,
      "t": 59794.461749999755,
      "d": 410.95849999999336,
      "v": 64
    },
    {
      "midi": 43,
      "hit": false,
      "t": 59999.94099999975,
      "d": 410.95849999999336,
      "v": 61
    },
    {
      "midi": 55,
      "hit": false,
      "t": 59999.94099999975,
      "d": 410.95849999999336,
      "v": 61
    },
    {
      "midi": 75,
      "hit": false,
      "t": 60205.42024999975,
      "d": 205.47924999999668,
      "v": 67
    },
    {
      "midi": 73,
      "hit": false,
      "t": 60410.899499999745,
      "d": 205.47924999999668,
      "v": 59
    },
    {
      "midi": 51,
      "hit": false,
      "t": 60410.899499999745,
      "d": 410.95849999999336,
      "v": 68
    },
    {
      "midi": 55,
      "hit": false,
      "t": 60410.899499999745,
      "d": 410.95849999999336,
      "v": 68
    },
    {
      "midi": 61,
      "hit": false,
      "t": 60410.899499999745,
      "d": 410.95849999999336,
      "v": 68
    },
    {
      "midi": 70,
      "hit": false,
      "t": 60616.37874999974,
      "d": 205.47924999999668,
      "v": 57
    },
    {
      "midi": 65,
      "hit": false,
      "t": 60821.85799999974,
      "d": 205.47924999999668,
      "v": 56
    },
    {
      "midi": 46,
      "hit": false,
      "t": 60821.85799999974,
      "d": 410.95849999999336,
      "v": 64
    },
    {
      "midi": 58,
      "hit": false,
      "t": 60821.85799999974,
      "d": 410.95849999999336,
      "v": 64
    },
    {
      "midi": 66,
      "hit": false,
      "t": 61027.337249999735,
      "d": 205.47924999999668,
      "v": 60
    },
    {
      "midi": 67,
      "hit": false,
      "t": 61232.81649999973,
      "d": 205.47924999999668,
      "v": 63
    },
    {
      "midi": 51,
      "hit": false,
      "t": 61232.81649999973,
      "d": 410.95849999999336,
      "v": 62
    },
    {
      "midi": 55,
      "hit": false,
      "t": 61232.81649999973,
      "d": 410.95849999999336,
      "v": 62
    },
    {
      "midi": 58,
      "hit": false,
      "t": 61232.81649999973,
      "d": 410.95849999999336,
      "v": 62
    },
    {
      "midi": 61,
      "hit": false,
      "t": 61232.81649999973,
      "d": 410.95849999999336,
      "v": 62
    },
    {
      "midi": 67,
      "hit": false,
      "t": 61438.29574999973,
      "d": 410.95849999999336,
      "v": 62
    },
    {
      "midi": 72,
      "hit": false,
      "t": 61438.29574999973,
      "d": 410.95849999999336,
      "v": 62
    },
    {
      "midi": 46,
      "hit": false,
      "t": 61643.774999999725,
      "d": 410.95849999999336,
      "v": 61
    },
    {
      "midi": 58,
      "hit": false,
      "t": 61643.774999999725,
      "d": 410.95849999999336,
      "v": 61
    },
    {
      "midi": 70,
      "hit": false,
      "t": 61849.25424999972,
      "d": 205.47924999999668,
      "v": 60
    },
    {
      "midi": 65,
      "hit": false,
      "t": 62054.73349999972,
      "d": 205.47924999999668,
      "v": 55
    },
    {
      "midi": 47,
      "hit": false,
      "t": 62054.73349999972,
      "d": 410.95849999999336,
      "v": 62
    },
    {
      "midi": 59,
      "hit": false,
      "t": 62054.73349999972,
      "d": 410.95849999999336,
      "v": 62
    },
    {
      "midi": 67,
      "hit": false,
      "t": 62260.212749999715,
      "d": 205.47924999999668,
      "v": 64
    },
    {
      "midi": 68,
      "hit": false,
      "t": 62465.69199999971,
      "d": 205.47924999999668,
      "v": 64
    },
    {
      "midi": 48,
      "hit": false,
      "t": 62465.69199999971,
      "d": 410.95849999999336,
      "v": 61
    },
    {
      "midi": 60,
      "hit": false,
      "t": 62465.69199999971,
      "d": 410.95849999999336,
      "v": 61
    },
    {
      "midi": 63,
      "hit": false,
      "t": 62671.17124999971,
      "d": 205.47924999999668,
      "v": 59
    },
    {
      "midi": 65,
      "hit": false,
      "t": 62876.650499999705,
      "d": 205.47924999999668,
      "v": 62
    },
    {
      "midi": 51,
      "hit": false,
      "t": 62876.650499999705,
      "d": 410.95849999999336,
      "v": 61
    },
    {
      "midi": 56,
      "hit": false,
      "t": 62876.650499999705,
      "d": 410.95849999999336,
      "v": 61
    },
    {
      "midi": 60,
      "hit": false,
      "t": 62876.650499999705,
      "d": 410.95849999999336,
      "v": 61
    },
    {
      "midi": 67,
      "hit": false,
      "t": 63082.1297499997,
      "d": 205.47924999999668,
      "v": 63
    },
    {
      "midi": 68,
      "hit": false,
      "t": 63287.6089999997,
      "d": 205.47924999999668,
      "v": 61
    },
    {
      "midi": 39,
      "hit": false,
      "t": 63287.6089999997,
      "d": 410.95849999999336,
      "v": 56
    },
    {
      "midi": 51,
      "hit": false,
      "t": 63287.6089999997,
      "d": 410.95849999999336,
      "v": 56
    },
    {
      "midi": 69,
      "hit": false,
      "t": 63493.088249999695,
      "d": 205.47924999999668,
      "v": 63
    },
    {
      "midi": 70,
      "hit": false,
      "t": 63698.56749999969,
      "d": 205.47924999999668,
      "v": 64
    },
    {
      "midi": 51,
      "hit": false,
      "t": 63698.56749999969,
      "d": 410.95849999999336,
      "v": 69
    },
    {
      "midi": 56,
      "hit": false,
      "t": 63698.56749999969,
      "d": 410.95849999999336,
      "v": 69
    },
    {
      "midi": 60,
      "hit": false,
      "t": 63698.56749999969,
      "d": 410.95849999999336,
      "v": 69
    },
    {
      "midi": 71,
      "hit": false,
      "t": 63904.04674999969,
      "d": 205.47924999999668,
      "v": 64
    },
    {
      "midi": 72,
      "hit": false,
      "t": 64109.525999999685,
      "d": 205.47924999999668,
      "v": 63
    },
    {
      "midi": 44,
      "hit": false,
      "t": 64109.525999999685,
      "d": 410.95849999999336,
      "v": 60
    },
    {
      "midi": 56,
      "hit": false,
      "t": 64109.525999999685,
      "d": 410.95849999999336,
      "v": 60
    },
    {
      "midi": 71,
      "hit": false,
      "t": 64315.00524999968,
      "d": 205.47924999999668,
      "v": 60
    },
    {
      "midi": 72,
      "hit": false,
      "t": 64520.48449999968,
      "d": 205.47924999999668,
      "v": 64
    },
    {
      "midi": 51,
      "hit": false,
      "t": 64520.48449999968,
      "d": 410.95849999999336,
      "v": 64
    },
    {
      "midi": 56,
      "hit": false,
      "t": 64520.48449999968,
      "d": 410.95849999999336,
      "v": 64
    },
    {
      "midi": 60,
      "hit": false,
      "t": 64520.48449999968,
      "d": 410.95849999999336,
      "v": 64
    },
    {
      "midi": 72,
      "hit": false,
      "t": 64725.963749999675,
      "d": 410.95849999999336,
      "v": 63
    },
    {
      "midi": 77,
      "hit": false,
      "t": 64725.963749999675,
      "d": 410.95849999999336,
      "v": 63
    },
    {
      "midi": 39,
      "hit": false,
      "t": 64931.44299999967,
      "d": 410.95849999999336,
      "v": 58
    },
    {
      "midi": 51,
      "hit": false,
      "t": 64931.44299999967,
      "d": 410.95849999999336,
      "v": 58
    },
    {
      "midi": 75,
      "hit": false,
      "t": 65136.92224999967,
      "d": 205.47924999999668,
      "v": 60
    },
    {
      "midi": 70,
      "hit": false,
      "t": 65342.401499999665,
      "d": 205.47924999999668,
      "v": 57
    },
    {
      "midi": 51,
      "hit": false,
      "t": 65342.401499999665,
      "d": 410.95850000000064,
      "v": 69
    },
    {
      "midi": 56,
      "hit": false,
      "t": 65342.401499999665,
      "d": 410.95850000000064,
      "v": 69
    },
    {
      "midi": 60,
      "hit": false,
      "t": 65342.401499999665,
      "d": 410.95850000000064,
      "v": 69
    },
    {
      "midi": 72,
      "hit": false,
      "t": 65547.88074999966,
      "d": 205.47925000000396,
      "v": 61
    },
    {
      "midi": 73,
      "hit": false,
      "t": 65753.35999999967,
      "d": 205.47925000000396,
      "v": 60
    },
    {
      "midi": 46,
      "hit": false,
      "t": 65753.35999999967,
      "d": 410.9585000000079,
      "v": 61
    },
    {
      "midi": 58,
      "hit": false,
      "t": 65753.35999999967,
      "d": 410.9585000000079,
      "v": 61
    },
    {
      "midi": 82,
      "hit": false,
      "t": 65958.83924999967,
      "d": 410.9585000000079,
      "v": 69
    },
    {
      "midi": 51,
      "hit": false,
      "t": 66164.31849999967,
      "d": 410.9585000000079,
      "v": 61
    },
    {
      "midi": 55,
      "hit": false,
      "t": 66164.31849999967,
      "d": 410.9585000000079,
      "v": 61
    },
    {
      "midi": 61,
      "hit": false,
      "t": 66164.31849999967,
      "d": 410.9585000000079,
      "v": 61
    },
    {
      "midi": 72,
      "hit": false,
      "t": 66369.79774999968,
      "d": 205.47925000000396,
      "v": 53
    },
    {
      "midi": 73,
      "hit": false,
      "t": 66575.27699999968,
      "d": 205.47925000000396,
      "v": 65
    },
    {
      "midi": 39,
      "hit": false,
      "t": 66575.27699999968,
      "d": 410.9585000000079,
      "v": 58
    },
    {
      "midi": 51,
      "hit": false,
      "t": 66575.27699999968,
      "d": 410.9585000000079,
      "v": 58
    },
    {
      "midi": 82,
      "hit": false,
      "t": 66780.75624999969,
      "d": 410.9585000000079,
      "v": 67
    },
    {
      "midi": 51,
      "hit": false,
      "t": 66986.23549999969,
      "d": 410.9585000000079,
      "v": 68
    },
    {
      "midi": 55,
      "hit": false,
      "t": 66986.23549999969,
      "d": 410.9585000000079,
      "v": 68
    },
    {
      "midi": 61,
      "hit": false,
      "t": 66986.23549999969,
      "d": 410.9585000000079,
      "v": 68
    },
    {
      "midi": 72,
      "hit": false,
      "t": 67191.7147499997,
      "d": 205.47925000000396,
      "v": 53
    },
    {
      "midi": 73,
      "hit": false,
      "t": 67397.1939999997,
      "d": 205.47925000000396,
      "v": 60
    },
    {
      "midi": 46,
      "hit": false,
      "t": 67397.1939999997,
      "d": 410.9585000000079,
      "v": 59
    },
    {
      "midi": 58,
      "hit": false,
      "t": 67397.1939999997,
      "d": 410.9585000000079,
      "v": 59
    },
    {
      "midi": 82,
      "hit": false,
      "t": 67602.6732499997,
      "d": 410.9585000000079,
      "v": 69
    },
    {
      "midi": 51,
      "hit": false,
      "t": 67808.1524999997,
      "d": 410.9585000000079,
      "v": 65
    },
    {
      "midi": 55,
      "hit": false,
      "t": 67808.1524999997,
      "d": 410.9585000000079,
      "v": 65
    },
    {
      "midi": 61,
      "hit": false,
      "t": 67808.1524999997,
      "d": 410.9585000000079,
      "v": 65
    },
    {
      "midi": 80,
      "hit": false,
      "t": 68013.63174999971,
      "d": 205.47925000000396,
      "v": 59
    },
    {
      "midi": 79,
      "hit": false,
      "t": 68219.11099999971,
      "d": 205.47925000000396,
      "v": 60
    },
    {
      "midi": 39,
      "hit": false,
      "t": 68219.11099999971,
      "d": 410.9585000000079,
      "v": 56
    },
    {
      "midi": 51,
      "hit": false,
      "t": 68219.11099999971,
      "d": 410.9585000000079,
      "v": 56
    },
    {
      "midi": 77,
      "hit": false,
      "t": 68424.59024999972,
      "d": 205.47925000000396,
      "v": 58
    },
    {
      "midi": 75,
      "hit": false,
      "t": 68630.06949999972,
      "d": 205.47925000000396,
      "v": 59
    },
    {
      "midi": 43,
      "hit": false,
      "t": 68630.06949999972,
      "d": 410.9585000000079,
      "v": 63
    },
    {
      "midi": 55,
      "hit": false,
      "t": 68630.06949999972,
      "d": 410.9585000000079,
      "v": 63
    },
    {
      "midi": 73,
      "hit": false,
      "t": 68835.54874999973,
      "d": 205.47925000000396,
      "v": 59
    },
    {
      "midi": 72,
      "hit": false,
      "t": 69041.02799999973,
      "d": 205.47925000000396,
      "v": 60
    },
    {
      "midi": 44,
      "hit": false,
      "t": 69041.02799999973,
      "d": 410.9585000000079,
      "v": 62
    },
    {
      "midi": 56,
      "hit": false,
      "t": 69041.02799999973,
      "d": 410.9585000000079,
      "v": 62
    },
    {
      "midi": 80,
      "hit": false,
      "t": 69246.50724999973,
      "d": 410.9585000000079,
      "v": 66
    },
    {
      "midi": 51,
      "hit": false,
      "t": 69451.98649999974,
      "d": 410.9585000000079,
      "v": 63
    },
    {
      "midi": 56,
      "hit": false,
      "t": 69451.98649999974,
      "d": 410.9585000000079,
      "v": 63
    },
    {
      "midi": 60,
      "hit": false,
      "t": 69451.98649999974,
      "d": 410.9585000000079,
      "v": 63
    },
    {
      "midi": 71,
      "hit": false,
      "t": 69657.46574999974,
      "d": 205.47925000000396,
      "v": 57
    },
    {
      "midi": 72,
      "hit": false,
      "t": 69862.94499999975,
      "d": 205.47925000000396,
      "v": 61
    },
    {
      "midi": 39,
      "hit": false,
      "t": 69862.94499999975,
      "d": 410.9585000000079,
      "v": 59
    },
    {
      "midi": 51,
      "hit": false,
      "t": 69862.94499999975,
      "d": 410.9585000000079,
      "v": 59
    },
    {
      "midi": 80,
      "hit": false,
      "t": 70068.42424999975,
      "d": 410.9585000000079,
      "v": 64
    },
    {
      "midi": 51,
      "hit": false,
      "t": 70273.90349999975,
      "d": 410.9585000000079,
      "v": 68
    },
    {
      "midi": 56,
      "hit": false,
      "t": 70273.90349999975,
      "d": 410.9585000000079,
      "v": 68
    },
    {
      "midi": 60,
      "hit": false,
      "t": 70273.90349999975,
      "d": 410.9585000000079,
      "v": 68
    },
    {
      "midi": 71,
      "hit": false,
      "t": 70479.38274999976,
      "d": 205.47925000000396,
      "v": 55
    },
    {
      "midi": 72,
      "hit": false,
      "t": 70684.86199999976,
      "d": 205.47925000000396,
      "v": 61
    },
    {
      "midi": 44,
      "hit": false,
      "t": 70684.86199999976,
      "d": 410.9585000000079,
      "v": 60
    },
    {
      "midi": 56,
      "hit": false,
      "t": 70684.86199999976,
      "d": 410.9585000000079,
      "v": 60
    },
    {
      "midi": 80,
      "hit": false,
      "t": 70890.34124999976,
      "d": 410.9585000000079,
      "v": 67
    },
    {
      "midi": 51,
      "hit": false,
      "t": 71095.82049999977,
      "d": 410.9585000000079,
      "v": 65
    },
    {
      "midi": 56,
      "hit": false,
      "t": 71095.82049999977,
      "d": 410.9585000000079,
      "v": 65
    },
    {
      "midi": 60,
      "hit": false,
      "t": 71095.82049999977,
      "d": 410.9585000000079,
      "v": 65
    },
    {
      "midi": 77,
      "hit": false,
      "t": 71301.29974999977,
      "d": 205.47925000000396,
      "v": 58
    },
    {
      "midi": 75,
      "hit": false,
      "t": 71506.77899999978,
      "d": 205.47925000000396,
      "v": 58
    },
    {
      "midi": 39,
      "hit": false,
      "t": 71506.77899999978,
      "d": 410.9585000000079,
      "v": 57
    },
    {
      "midi": 51,
      "hit": false,
      "t": 71506.77899999978,
      "d": 410.9585000000079,
      "v": 57
    },
    {
      "midi": 72,
      "hit": false,
      "t": 71712.25824999978,
      "d": 205.47925000000396,
      "v": 58
    },
    {
      "midi": 70,
      "hit": false,
      "t": 71917.73749999978,
      "d": 205.47925000000396,
      "v": 58
    },
    {
      "midi": 51,
      "hit": false,
      "t": 71917.73749999978,
      "d": 410.9585000000079,
      "v": 67
    },
    {
      "midi": 56,
      "hit": false,
      "t": 71917.73749999978,
      "d": 410.9585000000079,
      "v": 67
    },
    {
      "midi": 60,
      "hit": false,
      "t": 71917.73749999978,
      "d": 410.9585000000079,
      "v": 67
    },
    {
      "midi": 68,
      "hit": false,
      "t": 72123.21674999979,
      "d": 205.47925000000396,
      "v": 61
    },
    {
      "midi": 67,
      "hit": false,
      "t": 72328.69599999979,
      "d": 205.47925000000396,
      "v": 59
    },
    {
      "midi": 41,
      "hit": false,
      "t": 72328.69599999979,
      "d": 410.9585000000079,
      "v": 60
    },
    {
      "midi": 53,
      "hit": false,
      "t": 72328.69599999979,
      "d": 410.9585000000079,
      "v": 60
    },
    {
      "midi": 68,
      "hit": false,
      "t": 72534.1752499998,
      "d": 205.47925000000396,
      "v": 63
    },
    {
      "midi": 69,
      "hit": false,
      "t": 72739.6544999998,
      "d": 205.47925000000396,
      "v": 62
    },
    {
      "midi": 53,
      "hit": false,
      "t": 72739.6544999998,
      "d": 410.9585000000079,
      "v": 68
    },
    {
      "midi": 57,
      "hit": false,
      "t": 72739.6544999998,
      "d": 410.9585000000079,
      "v": 68
    },
    {
      "midi": 63,
      "hit": false,
      "t": 72739.6544999998,
      "d": 410.9585000000079,
      "v": 68
    },
    {
      "midi": 69,
      "hit": false,
      "t": 72945.1337499998,
      "d": 410.9585000000079,
      "v": 67
    },
    {
      "midi": 77,
      "hit": false,
      "t": 72945.1337499998,
      "d": 410.9585000000079,
      "v": 67
    },
    {
      "midi": 45,
      "hit": false,
      "t": 73150.61299999981,
      "d": 410.9585000000079,
      "v": 59
    },
    {
      "midi": 57,
      "hit": false,
      "t": 73150.61299999981,
      "d": 410.9585000000079,
      "v": 59
    },
    {
      "midi": 75,
      "hit": false,
      "t": 73356.09224999981,
      "d": 205.47925000000396,
      "v": 61
    },
    {
      "midi": 72,
      "hit": false,
      "t": 73561.57149999982,
      "d": 205.47925000000396,
      "v": 60
    },
    {
      "midi": 53,
      "hit": false,
      "t": 73561.57149999982,
      "d": 410.9585000000079,
      "v": 67
    },
    {
      "midi": 57,
      "hit": false,
      "t": 73561.57149999982,
      "d": 410.9585000000079,
      "v": 67
    },
    {
      "midi": 63,
      "hit": false,
      "t": 73561.57149999982,
      "d": 410.9585000000079,
      "v": 67
    },
    {
      "midi": 69,
      "hit": false,
      "t": 73767.05074999982,
      "d": 205.47925000000396,
      "v": 62
    },
    {
      "midi": 67,
      "hit": false,
      "t": 73972.52999999982,
      "d": 205.47925000000396,
      "v": 59
    },
    {
      "midi": 48,
      "hit": false,
      "t": 73972.52999999982,
      "d": 410.9585000000079,
      "v": 58
    },
    {
      "midi": 60,
      "hit": false,
      "t": 73972.52999999982,
      "d": 410.9585000000079,
      "v": 58
    },
    {
      "midi": 68,
      "hit": false,
      "t": 74178.00924999983,
      "d": 205.47925000000396,
      "v": 63
    },
    {
      "midi": 69,
      "hit": false,
      "t": 74383.48849999983,
      "d": 205.47925000000396,
      "v": 67
    },
    {
      "midi": 53,
      "hit": false,
      "t": 74383.48849999983,
      "d": 410.9585000000079,
      "v": 61
    },
    {
      "midi": 57,
      "hit": false,
      "t": 74383.48849999983,
      "d": 410.9585000000079,
      "v": 61
    },
    {
      "midi": 63,
      "hit": false,
      "t": 74383.48849999983,
      "d": 410.9585000000079,
      "v": 61
    },
    {
      "midi": 69,
      "hit": false,
      "t": 74588.96774999984,
      "d": 410.9585000000079,
      "v": 66
    },
    {
      "midi": 77,
      "hit": false,
      "t": 74588.96774999984,
      "d": 410.9585000000079,
      "v": 66
    },
    {
      "midi": 41,
      "hit": false,
      "t": 74794.44699999984,
      "d": 410.9585000000079,
      "v": 54
    },
    {
      "midi": 53,
      "hit": false,
      "t": 74794.44699999984,
      "d": 410.9585000000079,
      "v": 54
    },
    {
      "midi": 72,
      "hit": false,
      "t": 74999.92624999984,
      "d": 205.47925000000396,
      "v": 57
    },
    {
      "midi": 75,
      "hit": false,
      "t": 74999.92624999984,
      "d": 205.47925000000396,
      "v": 57
    },
    {
      "midi": 69,
      "hit": false,
      "t": 75205.40549999985,
      "d": 205.47925000000396,
      "v": 63
    },
    {
      "midi": 77,
      "hit": false,
      "t": 75205.40549999985,
      "d": 205.47925000000396,
      "v": 63
    },
    {
      "midi": 53,
      "hit": false,
      "t": 75205.40549999985,
      "d": 410.9585000000079,
      "v": 66
    },
    {
      "midi": 57,
      "hit": false,
      "t": 75205.40549999985,
      "d": 410.9585000000079,
      "v": 66
    },
    {
      "midi": 63,
      "hit": false,
      "t": 75205.40549999985,
      "d": 410.9585000000079,
      "v": 66
    },
    {
      "midi": 72,
      "hit": false,
      "t": 75410.88474999985,
      "d": 205.47925000000396,
      "v": 59
    },
    {
      "midi": 75,
      "hit": false,
      "t": 75410.88474999985,
      "d": 205.47925000000396,
      "v": 59
    },
    {
      "midi": 70,
      "hit": false,
      "t": 75616.36399999986,
      "d": 205.47925000000396,
      "v": 58
    },
    {
      "midi": 73,
      "hit": false,
      "t": 75616.36399999986,
      "d": 205.47925000000396,
      "v": 58
    },
    {
      "midi": 46,
      "hit": false,
      "t": 75616.36399999986,
      "d": 410.9585000000079,
      "v": 60
    },
    {
      "midi": 69,
      "hit": false,
      "t": 75821.84324999986,
      "d": 205.47925000000396,
      "v": 60
    },
    {
      "midi": 72,
      "hit": false,
      "t": 75821.84324999986,
      "d": 205.47925000000396,
      "v": 60
    },
    {
      "midi": 70,
      "hit": false,
      "t": 76027.32249999986,
      "d": 205.47925000000396,
      "v": 64
    },
    {
      "midi": 73,
      "hit": false,
      "t": 76027.32249999986,
      "d": 205.47925000000396,
      "v": 64
    },
    {
      "midi": 53,
      "hit": false,
      "t": 76027.32249999986,
      "d": 410.9585000000079,
      "v": 72
    },
    {
      "midi": 58,
      "hit": false,
      "t": 76027.32249999986,
      "d": 410.9585000000079,
      "v": 72
    },
    {
      "midi": 61,
      "hit": false,
      "t": 76027.32249999986,
      "d": 410.9585000000079,
      "v": 72
    },
    {
      "midi": 65,
      "hit": false,
      "t": 76232.80174999987,
      "d": 410.9585000000079,
      "v": 54
    },
    {
      "midi": 49,
      "hit": false,
      "t": 76438.28099999987,
      "d": 410.9585000000079,
      "v": 57
    },
    {
      "midi": 69,
      "hit": false,
      "t": 76643.76024999988,
      "d": 205.47925000000396,
      "v": 64
    },
    {
      "midi": 70,
      "hit": false,
      "t": 76849.23949999988,
      "d": 205.47925000000396,
      "v": 62
    },
    {
      "midi": 53,
      "hit": false,
      "t": 76849.23949999988,
      "d": 410.9585000000079,
      "v": 66
    },
    {
      "midi": 58,
      "hit": false,
      "t": 76849.23949999988,
      "d": 410.9585000000079,
      "v": 66
    },
    {
      "midi": 61,
      "hit": false,
      "t": 76849.23949999988,
      "d": 410.9585000000079,
      "v": 66
    },
    {
      "midi": 73,
      "hit": false,
      "t": 77054.71874999988,
      "d": 205.47925000000396,
      "v": 63
    },
    {
      "midi": 77,
      "hit": false,
      "t": 77260.19799999989,
      "d": 205.47925000000396,
      "v": 64
    },
    {
      "midi": 46,
      "hit": false,
      "t": 77260.19799999989,
      "d": 410.9585000000079,
      "v": 58
    },
    {
      "midi": 72,
      "hit": false,
      "t": 77465.67724999989,
      "d": 205.47925000000396,
      "v": 57
    },
    {
      "midi": 73,
      "hit": false,
      "t": 77671.1564999999,
      "d": 205.47925000000396,
      "v": 64
    },
    {
      "midi": 49,
      "hit": false,
      "t": 77671.1564999999,
      "d": 410.9585000000079,
      "v": 65
    },
    {
      "midi": 53,
      "hit": false,
      "t": 77671.1564999999,
      "d": 410.9585000000079,
      "v": 65
    },
    {
      "midi": 58,
      "hit": false,
      "t": 77671.1564999999,
      "d": 410.9585000000079,
      "v": 65
    },
    {
      "midi": 70,
      "hit": false,
      "t": 77876.6357499999,
      "d": 410.9585000000079,
      "v": 60
    },
    {
      "midi": 49,
      "hit": false,
      "t": 78082.1149999999,
      "d": 821.9170000000158,
      "v": 62
    },
    {
      "midi": 53,
      "hit": false,
      "t": 78082.1149999999,
      "d": 821.9170000000158,
      "v": 62
    },
    {
      "midi": 65,
      "hit": false,
      "t": 78287.59424999991,
      "d": 205.47925000000396,
      "v": 58
    },
    {
      "midi": 61,
      "hit": false,
      "t": 78493.07349999991,
      "d": 205.47925000000396,
      "v": 57
    },
    {
      "midi": 58,
      "hit": false,
      "t": 78698.55274999992,
      "d": 205.47925000000396,
      "v": 60
    },
    {
      "midi": 50,
      "hit": false,
      "t": 78904.03199999992,
      "d": 205.47925000000396,
      "v": 68
    },
    {
      "midi": 59,
      "hit": false,
      "t": 78904.03199999992,
      "d": 205.47925000000396,
      "v": 87
    },
    {
      "midi": 53,
      "hit": false,
      "t": 79109.51124999992,
      "d": 205.47925000000396,
      "v": 72
    },
    {
      "midi": 62,
      "hit": false,
      "t": 79109.51124999992,
      "d": 205.47925000000396,
      "v": 88
    },
    {
      "midi": 56,
      "hit": false,
      "t": 79314.99049999993,
      "d": 205.47925000000396,
      "v": 73
    },
    {
      "midi": 65,
      "hit": false,
      "t": 79314.99049999993,
      "d": 205.47925000000396,
      "v": 87
    },
    {
      "midi": 59,
      "hit": false,
      "t": 79520.46974999993,
      "d": 205.47925000000396,
      "v": 72
    },
    {
      "midi": 68,
      "hit": false,
      "t": 79520.46974999993,
      "d": 205.47925000000396,
      "v": 90
    },
    {
      "midi": 62,
      "hit": false,
      "t": 79725.94899999994,
      "d": 205.47925000000396,
      "v": 73
    },
    {
      "midi": 71,
      "hit": false,
      "t": 79725.94899999994,
      "d": 205.47925000000396,
      "v": 89
    },
    {
      "midi": 62,
      "hit": false,
      "t": 79931.42824999994,
      "d": 410.95849999999336,
      "v": 73
    },
    {
      "midi": 71,
      "hit": false,
      "t": 79931.42824999994,
      "d": 410.95849999999336,
      "v": 81
    },
    {
      "midi": 62,
      "hit": false,
      "t": 80342.38674999993,
      "d": 410.95849999999336,
      "v": 70
    },
    {
      "midi": 71,
      "hit": false,
      "t": 80342.38674999993,
      "d": 410.95849999999336,
      "v": 83
    },
    {
      "midi": 65,
      "hit": false,
      "t": 80753.34524999993,
      "d": 205.47925000000396,
      "v": 72
    },
    {
      "midi": 74,
      "hit": false,
      "t": 80753.34524999993,
      "d": 205.47925000000396,
      "v": 88
    },
    {
      "midi": 68,
      "hit": false,
      "t": 80958.82449999993,
      "d": 205.47925000000396,
      "v": 74
    },
    {
      "midi": 77,
      "hit": false,
      "t": 80958.82449999993,
      "d": 205.47925000000396,
      "v": 90
    },
    {
      "midi": 71,
      "hit": false,
      "t": 81164.30374999993,
      "d": 205.47925000000396,
      "v": 77
    },
    {
      "midi": 80,
      "hit": false,
      "t": 81164.30374999993,
      "d": 205.47925000000396,
      "v": 95
    },
    {
      "midi": 74,
      "hit": false,
      "t": 81369.78299999994,
      "d": 410.95849999999336,
      "v": 82
    },
    {
      "midi": 83,
      "hit": false,
      "t": 81369.78299999994,
      "d": 410.95849999999336,
      "v": 99
    },
    {
      "midi": 84,
      "hit": false,
      "t": 82191.69999999992,
      "d": 205.47925000000396,
      "v": 88
    },
    {
      "midi": 68,
      "hit": false,
      "t": 82191.69999999992,
      "d": 410.9585000000079,
      "v": 74
    },
    {
      "midi": 75,
      "hit": false,
      "t": 82191.69999999992,
      "d": 410.9585000000079,
      "v": 74
    },
    {
      "midi": 80,
      "hit": false,
      "t": 82397.17924999993,
      "d": 205.47925000000396,
      "v": 92
    },
    {
      "midi": 75,
      "hit": false,
      "t": 82602.65849999993,
      "d": 205.47925000000396,
      "v": 84
    },
    {
      "midi": 72,
      "hit": false,
      "t": 82808.13774999994,
      "d": 205.47925000000396,
      "v": 80
    },
    {
      "midi": 72,
      "hit": false,
      "t": 83013.61699999994,
      "d": 205.47925000000396,
      "v": 79
    },
    {
      "midi": 68,
      "hit": false,
      "t": 83219.09624999994,
      "d": 205.47925000000396,
      "v": 80
    },
    {
      "midi": 60,
      "hit": false,
      "t": 83424.57549999995,
      "d": 205.47925000000396,
      "v": 77
    },
    {
      "midi": 63,
      "hit": false,
      "t": 83630.05474999995,
      "d": 205.47925000000396,
      "v": 85
    },
    {
      "midi": 61,
      "hit": false,
      "t": 83835.53399999996,
      "d": 205.47925000000396,
      "v": 79
    },
    {
      "midi": 63,
      "hit": false,
      "t": 83835.53399999996,
      "d": 205.47925000000396,
      "v": 79
    },
    {
      "midi": 67,
      "hit": false,
      "t": 83835.53399999996,
      "d": 205.47925000000396,
      "v": 79
    },
    {
      "midi": 70,
      "hit": false,
      "t": 83835.53399999996,
      "d": 205.47925000000396,
      "v": 79
    },
    {
      "midi": 39,
      "hit": false,
      "t": 83835.53399999996,
      "d": 410.9585000000079,
      "v": 58
    },
    {
      "midi": 51,
      "hit": false,
      "t": 83835.53399999996,
      "d": 410.9585000000079,
      "v": 58
    },
    {
      "midi": 61,
      "hit": false,
      "t": 84041.01324999996,
      "d": 410.9585000000079,
      "v": 72
    },
    {
      "midi": 63,
      "hit": false,
      "t": 84041.01324999996,
      "d": 410.9585000000079,
      "v": 72
    },
    {
      "midi": 67,
      "hit": false,
      "t": 84041.01324999996,
      "d": 410.9585000000079,
      "v": 72
    },
    {
      "midi": 70,
      "hit": false,
      "t": 84041.01324999996,
      "d": 410.9585000000079,
      "v": 72
    },
    {
      "midi": 39,
      "hit": false,
      "t": 84246.49249999996,
      "d": 410.9585000000079,
      "v": 60
    },
    {
      "midi": 51,
      "hit": false,
      "t": 84246.49249999996,
      "d": 410.9585000000079,
      "v": 60
    },
    {
      "midi": 60,
      "hit": false,
      "t": 84451.97174999997,
      "d": 616.4377499999973,
      "v": 66
    },
    {
      "midi": 63,
      "hit": false,
      "t": 84451.97174999997,
      "d": 616.4377499999973,
      "v": 66
    },
    {
      "midi": 68,
      "hit": false,
      "t": 84451.97174999997,
      "d": 616.4377499999973,
      "v": 66
    },
    {
      "midi": 44,
      "hit": false,
      "t": 84657.45099999997,
      "d": 410.95849999999336,
      "v": 64
    },
    {
      "midi": 56,
      "hit": false,
      "t": 84657.45099999997,
      "d": 410.95849999999336,
      "v": 64
    },
    {
      "midi": 63,
      "hit": false,
      "t": 85068.40949999997,
      "d": 205.47925000000396,
      "v": 66
    },
    {
      "midi": 64,
      "hit": false,
      "t": 85273.88874999997,
      "d": 205.47925000000396,
      "v": 72
    },
    {
      "midi": 65,
      "hit": false,
      "t": 85479.36799999997,
      "d": 205.47925000000396,
      "v": 74
    },
    {
      "midi": 39,
      "hit": false,
      "t": 85479.36799999997,
      "d": 410.9585000000079,
      "v": 57
    },
    {
      "midi": 51,
      "hit": false,
      "t": 85479.36799999997,
      "d": 410.9585000000079,
      "v": 57
    },
    {
      "midi": 66,
      "hit": false,
      "t": 85684.84724999998,
      "d": 205.47925000000396,
      "v": 73
    },
    {
      "midi": 67,
      "hit": false,
      "t": 85890.32649999998,
      "d": 205.47925000000396,
      "v": 72
    },
    {
      "midi": 51,
      "hit": false,
      "t": 85890.32649999998,
      "d": 410.9585000000079,
      "v": 68
    },
    {
      "midi": 58,
      "hit": false,
      "t": 85890.32649999998,
      "d": 410.9585000000079,
      "v": 68
    },
    {
      "midi": 61,
      "hit": false,
      "t": 85890.32649999998,
      "d": 410.9585000000079,
      "v": 68
    },
    {
      "midi": 67,
      "hit": false,
      "t": 86095.80574999998,
      "d": 410.9585000000079,
      "v": 74
    },
    {
      "midi": 70,
      "hit": false,
      "t": 86095.80574999998,
      "d": 410.9585000000079,
      "v": 74
    },
    {
      "midi": 43,
      "hit": false,
      "t": 86301.28499999999,
      "d": 410.9585000000079,
      "v": 62
    },
    {
      "midi": 55,
      "hit": false,
      "t": 86301.28499999999,
      "d": 410.9585000000079,
      "v": 62
    },
    {
      "midi": 75,
      "hit": false,
      "t": 86506.76425,
      "d": 205.47925000000396,
      "v": 74
    },
    {
      "midi": 73,
      "hit": false,
      "t": 86712.2435,
      "d": 205.47925000000396,
      "v": 71
    },
    {
      "midi": 51,
      "hit": false,
      "t": 86712.2435,
      "d": 410.9585000000079,
      "v": 66
    },
    {
      "midi": 55,
      "hit": false,
      "t": 86712.2435,
      "d": 410.9585000000079,
      "v": 66
    },
    {
      "midi": 61,
      "hit": false,
      "t": 86712.2435,
      "d": 410.9585000000079,
      "v": 66
    },
    {
      "midi": 70,
      "hit": false,
      "t": 86917.72275,
      "d": 205.47925000000396,
      "v": 68
    },
    {
      "midi": 65,
      "hit": false,
      "t": 87123.202,
      "d": 205.47925000000396,
      "v": 64
    },
    {
      "midi": 46,
      "hit": false,
      "t": 87123.202,
      "d": 410.9585000000079,
      "v": 61
    },
    {
      "midi": 58,
      "hit": false,
      "t": 87123.202,
      "d": 410.9585000000079,
      "v": 61
    },
    {
      "midi": 66,
      "hit": false,
      "t": 87328.68125000001,
      "d": 205.47925000000396,
      "v": 72
    },
    {
      "midi": 67,
      "hit": false,
      "t": 87534.16050000001,
      "d": 205.47925000000396,
      "v": 73
    },
    {
      "midi": 51,
      "hit": false,
      "t": 87534.16050000001,
      "d": 410.9585000000079,
      "v": 64
    },
    {
      "midi": 55,
      "hit": false,
      "t": 87534.16050000001,
      "d": 410.9585000000079,
      "v": 64
    },
    {
      "midi": 58,
      "hit": false,
      "t": 87534.16050000001,
      "d": 410.9585000000079,
      "v": 64
    },
    {
      "midi": 61,
      "hit": false,
      "t": 87534.16050000001,
      "d": 410.9585000000079,
      "v": 64
    },
    {
      "midi": 67,
      "hit": false,
      "t": 87739.63975000002,
      "d": 410.9585000000079,
      "v": 78
    },
    {
      "midi": 72,
      "hit": false,
      "t": 87739.63975000002,
      "d": 410.9585000000079,
      "v": 78
    },
    {
      "midi": 46,
      "hit": false,
      "t": 87945.11900000002,
      "d": 410.9585000000079,
      "v": 60
    },
    {
      "midi": 58,
      "hit": false,
      "t": 87945.11900000002,
      "d": 410.9585000000079,
      "v": 60
    },
    {
      "midi": 70,
      "hit": false,
      "t": 88150.59825000002,
      "d": 205.47925000000396,
      "v": 69
    },
    {
      "midi": 65,
      "hit": false,
      "t": 88356.07750000003,
      "d": 205.47925000000396,
      "v": 66
    },
    {
      "midi": 47,
      "hit": false,
      "t": 88356.07750000003,
      "d": 410.9585000000079,
      "v": 61
    },
    {
      "midi": 59,
      "hit": false,
      "t": 88356.07750000003,
      "d": 410.9585000000079,
      "v": 61
    },
    {
      "midi": 67,
      "hit": false,
      "t": 88561.55675000003,
      "d": 205.47925000000396,
      "v": 72
    },
    {
      "midi": 68,
      "hit": false,
      "t": 88767.03600000004,
      "d": 205.47925000000396,
      "v": 73
    },
    {
      "midi": 48,
      "hit": false,
      "t": 88767.03600000004,
      "d": 410.9585000000079,
      "v": 64
    },
    {
      "midi": 60,
      "hit": false,
      "t": 88767.03600000004,
      "d": 410.9585000000079,
      "v": 64
    },
    {
      "midi": 63,
      "hit": false,
      "t": 88972.51525000004,
      "d": 205.47925000000396,
      "v": 65
    },
    {
      "midi": 65,
      "hit": false,
      "t": 89177.99450000004,
      "d": 205.47925000000396,
      "v": 72
    },
    {
      "midi": 51,
      "hit": false,
      "t": 89177.99450000004,
      "d": 410.9585000000079,
      "v": 61
    },
    {
      "midi": 56,
      "hit": false,
      "t": 89177.99450000004,
      "d": 410.9585000000079,
      "v": 61
    },
    {
      "midi": 60,
      "hit": false,
      "t": 89177.99450000004,
      "d": 410.9585000000079,
      "v": 61
    },
    {
      "midi": 67,
      "hit": false,
      "t": 89383.47375000005,
      "d": 205.47925000000396,
      "v": 75
    },
    {
      "midi": 68,
      "hit": false,
      "t": 89588.95300000005,
      "d": 205.47925000000396,
      "v": 72
    },
    {
      "midi": 39,
      "hit": false,
      "t": 89588.95300000005,
      "d": 410.9585000000079,
      "v": 55
    },
    {
      "midi": 51,
      "hit": false,
      "t": 89588.95300000005,
      "d": 410.9585000000079,
      "v": 55
    },
    {
      "midi": 69,
      "hit": false,
      "t": 89794.43225000006,
      "d": 205.47925000000396,
      "v": 72
    },
    {
      "midi": 70,
      "hit": false,
      "t": 89999.91150000006,
      "d": 205.47925000000396,
      "v": 73
    },
    {
      "midi": 51,
      "hit": false,
      "t": 89999.91150000006,
      "d": 410.9585000000079,
      "v": 67
    },
    {
      "midi": 56,
      "hit": false,
      "t": 89999.91150000006,
      "d": 410.9585000000079,
      "v": 67
    },
    {
      "midi": 60,
      "hit": false,
      "t": 89999.91150000006,
      "d": 410.9585000000079,
      "v": 67
    },
    {
      "midi": 71,
      "hit": false,
      "t": 90205.39075000006,
      "d": 205.47925000000396,
      "v": 73
    },
    {
      "midi": 72,
      "hit": false,
      "t": 90410.87000000007,
      "d": 205.47925000000396,
      "v": 75
    },
    {
      "midi": 44,
      "hit": false,
      "t": 90410.87000000007,
      "d": 410.9585000000079,
      "v": 60
    },
    {
      "midi": 56,
      "hit": false,
      "t": 90410.87000000007,
      "d": 410.9585000000079,
      "v": 60
    },
    {
      "midi": 71,
      "hit": false,
      "t": 90616.34925000007,
      "d": 205.47925000000396,
      "v": 68
    },
    {
      "midi": 72,
      "hit": false,
      "t": 90821.82850000008,
      "d": 205.47925000000396,
      "v": 74
    },
    {
      "midi": 51,
      "hit": false,
      "t": 90821.82850000008,
      "d": 410.9585000000079,
      "v": 66
    },
    {
      "midi": 56,
      "hit": false,
      "t": 90821.82850000008,
      "d": 410.9585000000079,
      "v": 66
    },
    {
      "midi": 60,
      "hit": false,
      "t": 90821.82850000008,
      "d": 410.9585000000079,
      "v": 66
    },
    {
      "midi": 72,
      "hit": false,
      "t": 91027.30775000008,
      "d": 410.9585000000079,
      "v": 75
    },
    {
      "midi": 77,
      "hit": false,
      "t": 91027.30775000008,
      "d": 410.9585000000079,
      "v": 75
    },
    {
      "midi": 39,
      "hit": false,
      "t": 91232.78700000008,
      "d": 410.9585000000079,
      "v": 56
    },
    {
      "midi": 51,
      "hit": false,
      "t": 91232.78700000008,
      "d": 410.9585000000079,
      "v": 56
    },
    {
      "midi": 75,
      "hit": false,
      "t": 91438.26625000009,
      "d": 205.47925000000396,
      "v": 67
    },
    {
      "midi": 70,
      "hit": false,
      "t": 91643.74550000009,
      "d": 205.47925000000396,
      "v": 67
    },
    {
      "midi": 51,
      "hit": false,
      "t": 91643.74550000009,
      "d": 410.9585000000079,
      "v": 68
    },
    {
      "midi": 56,
      "hit": false,
      "t": 91643.74550000009,
      "d": 410.9585000000079,
      "v": 68
    },
    {
      "midi": 60,
      "hit": false,
      "t": 91643.74550000009,
      "d": 410.9585000000079,
      "v": 68
    },
    {
      "midi": 72,
      "hit": false,
      "t": 91849.2247500001,
      "d": 205.47925000000396,
      "v": 75
    },
    {
      "midi": 73,
      "hit": false,
      "t": 92054.7040000001,
      "d": 205.47925000000396,
      "v": 73
    },
    {
      "midi": 46,
      "hit": false,
      "t": 92054.7040000001,
      "d": 410.9585000000079,
      "v": 59
    },
    {
      "midi": 58,
      "hit": false,
      "t": 92054.7040000001,
      "d": 410.9585000000079,
      "v": 59
    },
    {
      "midi": 82,
      "hit": false,
      "t": 92260.1832500001,
      "d": 410.9585000000079,
      "v": 78
    },
    {
      "midi": 51,
      "hit": false,
      "t": 92465.66250000011,
      "d": 410.9585000000079,
      "v": 65
    },
    {
      "midi": 55,
      "hit": false,
      "t": 92465.66250000011,
      "d": 410.9585000000079,
      "v": 65
    },
    {
      "midi": 61,
      "hit": false,
      "t": 92465.66250000011,
      "d": 410.9585000000079,
      "v": 65
    },
    {
      "midi": 72,
      "hit": false,
      "t": 92671.14175000011,
      "d": 205.47925000000396,
      "v": 63
    },
    {
      "midi": 73,
      "hit": false,
      "t": 92876.62100000012,
      "d": 205.47925000000396,
      "v": 72
    },
    {
      "midi": 39,
      "hit": false,
      "t": 92876.62100000012,
      "d": 410.9585000000079,
      "v": 57
    },
    {
      "midi": 51,
      "hit": false,
      "t": 92876.62100000012,
      "d": 410.9585000000079,
      "v": 57
    },
    {
      "midi": 82,
      "hit": false,
      "t": 93082.10025000012,
      "d": 410.9585000000079,
      "v": 82
    },
    {
      "midi": 51,
      "hit": false,
      "t": 93287.57950000012,
      "d": 410.9585000000079,
      "v": 68
    },
    {
      "midi": 55,
      "hit": false,
      "t": 93287.57950000012,
      "d": 410.9585000000079,
      "v": 68
    },
    {
      "midi": 61,
      "hit": false,
      "t": 93287.57950000012,
      "d": 410.9585000000079,
      "v": 68
    },
    {
      "midi": 72,
      "hit": false,
      "t": 93493.05875000013,
      "d": 205.47925000000396,
      "v": 63
    },
    {
      "midi": 73,
      "hit": false,
      "t": 93698.53800000013,
      "d": 205.47925000000396,
      "v": 73
    },
    {
      "midi": 46,
      "hit": false,
      "t": 93698.53800000013,
      "d": 410.9585000000079,
      "v": 61
    },
    {
      "midi": 58,
      "hit": false,
      "t": 93698.53800000013,
      "d": 410.9585000000079,
      "v": 61
    },
    {
      "midi": 82,
      "hit": false,
      "t": 93904.01725000014,
      "d": 410.9585000000079,
      "v": 79
    },
    {
      "midi": 51,
      "hit": false,
      "t": 94109.49650000014,
      "d": 410.9585000000079,
      "v": 65
    },
    {
      "midi": 55,
      "hit": false,
      "t": 94109.49650000014,
      "d": 410.9585000000079,
      "v": 65
    },
    {
      "midi": 61,
      "hit": false,
      "t": 94109.49650000014,
      "d": 410.9585000000079,
      "v": 65
    },
    {
      "midi": 80,
      "hit": false,
      "t": 94314.97575000014,
      "d": 205.47925000000396,
      "v": 68
    },
    {
      "midi": 79,
      "hit": false,
      "t": 94520.45500000015,
      "d": 205.47925000000396,
      "v": 70
    },
    {
      "midi": 39,
      "hit": false,
      "t": 94520.45500000015,
      "d": 410.9585000000079,
      "v": 58
    },
    {
      "midi": 51,
      "hit": false,
      "t": 94520.45500000015,
      "d": 410.9585000000079,
      "v": 58
    },
    {
      "midi": 77,
      "hit": false,
      "t": 94725.93425000015,
      "d": 205.47925000000396,
      "v": 67
    },
    {
      "midi": 75,
      "hit": false,
      "t": 94931.41350000016,
      "d": 205.47925000000396,
      "v": 70
    },
    {
      "midi": 43,
      "hit": false,
      "t": 94931.41350000016,
      "d": 410.9585000000079,
      "v": 61
    },
    {
      "midi": 55,
      "hit": false,
      "t": 94931.41350000016,
      "d": 410.9585000000079,
      "v": 61
    },
    {
      "midi": 73,
      "hit": false,
      "t": 95136.89275000016,
      "d": 205.47925000000396,
      "v": 70
    },
    {
      "midi": 72,
      "hit": false,
      "t": 95342.37200000016,
      "d": 205.47925000000396,
      "v": 70
    },
    {
      "midi": 44,
      "hit": false,
      "t": 95342.37200000016,
      "d": 410.9585000000079,
      "v": 61
    },
    {
      "midi": 56,
      "hit": false,
      "t": 95342.37200000016,
      "d": 410.9585000000079,
      "v": 61
    },
    {
      "midi": 80,
      "hit": false,
      "t": 95547.85125000017,
      "d": 410.9585000000079,
      "v": 78
    },
    {
      "midi": 51,
      "hit": false,
      "t": 95753.33050000017,
      "d": 410.9585000000079,
      "v": 64
    },
    {
      "midi": 56,
      "hit": false,
      "t": 95753.33050000017,
      "d": 410.9585000000079,
      "v": 64
    },
    {
      "midi": 60,
      "hit": false,
      "t": 95753.33050000017,
      "d": 410.9585000000079,
      "v": 64
    },
    {
      "midi": 71,
      "hit": false,
      "t": 95958.80975000017,
      "d": 205.47925000000396,
      "v": 65
    },
    {
      "midi": 72,
      "hit": false,
      "t": 96164.28900000018,
      "d": 205.47925000000396,
      "v": 69
    },
    {
      "midi": 39,
      "hit": false,
      "t": 96164.28900000018,
      "d": 410.9585000000079,
      "v": 58
    },
    {
      "midi": 51,
      "hit": false,
      "t": 96164.28900000018,
      "d": 410.9585000000079,
      "v": 58
    },
    {
      "midi": 80,
      "hit": false,
      "t": 96369.76825000018,
      "d": 410.9585000000079,
      "v": 78
    },
    {
      "midi": 51,
      "hit": false,
      "t": 96575.24750000019,
      "d": 410.9585000000079,
      "v": 70
    },
    {
      "midi": 56,
      "hit": false,
      "t": 96575.24750000019,
      "d": 410.9585000000079,
      "v": 70
    },
    {
      "midi": 60,
      "hit": false,
      "t": 96575.24750000019,
      "d": 410.9585000000079,
      "v": 70
    },
    {
      "midi": 71,
      "hit": false,
      "t": 96780.72675000019,
      "d": 205.47925000000396,
      "v": 67
    },
    {
      "midi": 72,
      "hit": false,
      "t": 96986.2060000002,
      "d": 205.47925000000396,
      "v": 72
    },
    {
      "midi": 44,
      "hit": false,
      "t": 96986.2060000002,
      "d": 410.9585000000079,
      "v": 60
    },
    {
      "midi": 56,
      "hit": false,
      "t": 96986.2060000002,
      "d": 410.9585000000079,
      "v": 60
    },
    {
      "midi": 80,
      "hit": false,
      "t": 97191.6852500002,
      "d": 410.9585000000079,
      "v": 78
    },
    {
      "midi": 51,
      "hit": false,
      "t": 97397.1645000002,
      "d": 410.9585000000079,
      "v": 65
    },
    {
      "midi": 56,
      "hit": false,
      "t": 97397.1645000002,
      "d": 410.9585000000079,
      "v": 65
    },
    {
      "midi": 60,
      "hit": false,
      "t": 97397.1645000002,
      "d": 410.9585000000079,
      "v": 65
    },
    {
      "midi": 77,
      "hit": false,
      "t": 97602.6437500002,
      "d": 205.47925000000396,
      "v": 68
    },
    {
      "midi": 75,
      "hit": false,
      "t": 97808.12300000021,
      "d": 205.47925000000396,
      "v": 70
    },
    {
      "midi": 39,
      "hit": false,
      "t": 97808.12300000021,
      "d": 410.9585000000079,
      "v": 57
    },
    {
      "midi": 51,
      "hit": false,
      "t": 97808.12300000021,
      "d": 410.9585000000079,
      "v": 57
    },
    {
      "midi": 72,
      "hit": false,
      "t": 98013.60225000021,
      "d": 205.47925000000396,
      "v": 68
    },
    {
      "midi": 70,
      "hit": false,
      "t": 98219.08150000022,
      "d": 205.47925000000396,
      "v": 69
    },
    {
      "midi": 51,
      "hit": false,
      "t": 98219.08150000022,
      "d": 410.9585000000079,
      "v": 68
    },
    {
      "midi": 56,
      "hit": false,
      "t": 98219.08150000022,
      "d": 410.9585000000079,
      "v": 68
    },
    {
      "midi": 60,
      "hit": false,
      "t": 98219.08150000022,
      "d": 410.9585000000079,
      "v": 68
    },
    {
      "midi": 68,
      "hit": false,
      "t": 98424.56075000022,
      "d": 205.47925000000396,
      "v": 71
    },
    {
      "midi": 67,
      "hit": false,
      "t": 98630.04000000023,
      "d": 205.47925000000396,
      "v": 69
    },
    {
      "midi": 41,
      "hit": false,
      "t": 98630.04000000023,
      "d": 410.9585000000079,
      "v": 60
    },
    {
      "midi": 53,
      "hit": false,
      "t": 98630.04000000023,
      "d": 410.9585000000079,
      "v": 60
    },
    {
      "midi": 68,
      "hit": false,
      "t": 98835.51925000023,
      "d": 205.47925000000396,
      "v": 73
    },
    {
      "midi": 69,
      "hit": false,
      "t": 99040.99850000023,
      "d": 205.47925000000396,
      "v": 70
    },
    {
      "midi": 53,
      "hit": false,
      "t": 99040.99850000023,
      "d": 410.9585000000079,
      "v": 68
    },
    {
      "midi": 57,
      "hit": false,
      "t": 99040.99850000023,
      "d": 410.9585000000079,
      "v": 68
    },
    {
      "midi": 63,
      "hit": false,
      "t": 99040.99850000023,
      "d": 410.9585000000079,
      "v": 68
    },
    {
      "midi": 69,
      "hit": false,
      "t": 99246.47775000024,
      "d": 410.9585000000079,
      "v": 78
    },
    {
      "midi": 77,
      "hit": false,
      "t": 99246.47775000024,
      "d": 410.9585000000079,
      "v": 78
    },
    {
      "midi": 45,
      "hit": false,
      "t": 99451.95700000024,
      "d": 410.9585000000079,
      "v": 57
    },
    {
      "midi": 57,
      "hit": false,
      "t": 99451.95700000024,
      "d": 410.9585000000079,
      "v": 57
    },
    {
      "midi": 75,
      "hit": false,
      "t": 99657.43625000025,
      "d": 205.47925000000396,
      "v": 68
    },
    {
      "midi": 72,
      "hit": false,
      "t": 99862.91550000025,
      "d": 205.47925000000396,
      "v": 66
    },
    {
      "midi": 53,
      "hit": false,
      "t": 99862.91550000025,
      "d": 410.9585000000079,
      "v": 67
    },
    {
      "midi": 57,
      "hit": false,
      "t": 99862.91550000025,
      "d": 410.9585000000079,
      "v": 67
    },
    {
      "midi": 63,
      "hit": false,
      "t": 99862.91550000025,
      "d": 410.9585000000079,
      "v": 67
    },
    {
      "midi": 69,
      "hit": false,
      "t": 100068.39475000025,
      "d": 205.47925000000396,
      "v": 68
    },
    {
      "midi": 67,
      "hit": false,
      "t": 100273.87400000026,
      "d": 205.47925000000396,
      "v": 71
    },
    {
      "midi": 48,
      "hit": false,
      "t": 100273.87400000026,
      "d": 410.9585000000079,
      "v": 60
    },
    {
      "midi": 60,
      "hit": false,
      "t": 100273.87400000026,
      "d": 410.9585000000079,
      "v": 60
    },
    {
      "midi": 68,
      "hit": false,
      "t": 100479.35325000026,
      "d": 205.47925000000396,
      "v": 73
    },
    {
      "midi": 69,
      "hit": false,
      "t": 100684.83250000027,
      "d": 205.47925000000396,
      "v": 72
    },
    {
      "midi": 53,
      "hit": false,
      "t": 100684.83250000027,
      "d": 410.9585000000079,
      "v": 62
    },
    {
      "midi": 57,
      "hit": false,
      "t": 100684.83250000027,
      "d": 410.9585000000079,
      "v": 62
    },
    {
      "midi": 63,
      "hit": false,
      "t": 100684.83250000027,
      "d": 410.9585000000079,
      "v": 62
    },
    {
      "midi": 69,
      "hit": false,
      "t": 100890.31175000027,
      "d": 410.9585000000079,
      "v": 78
    },
    {
      "midi": 77,
      "hit": false,
      "t": 100890.31175000027,
      "d": 410.9585000000079,
      "v": 78
    },
    {
      "midi": 41,
      "hit": false,
      "t": 101095.79100000027,
      "d": 410.9585000000079,
      "v": 58
    },
    {
      "midi": 53,
      "hit": false,
      "t": 101095.79100000027,
      "d": 410.9585000000079,
      "v": 58
    },
    {
      "midi": 72,
      "hit": false,
      "t": 101301.27025000028,
      "d": 205.47925000000396,
      "v": 70
    },
    {
      "midi": 75,
      "hit": false,
      "t": 101301.27025000028,
      "d": 205.47925000000396,
      "v": 70
    },
    {
      "midi": 69,
      "hit": false,
      "t": 101506.74950000028,
      "d": 205.47925000000396,
      "v": 73
    },
    {
      "midi": 77,
      "hit": false,
      "t": 101506.74950000028,
      "d": 205.47925000000396,
      "v": 73
    },
    {
      "midi": 53,
      "hit": false,
      "t": 101506.74950000028,
      "d": 410.9585000000079,
      "v": 68
    },
    {
      "midi": 57,
      "hit": false,
      "t": 101506.74950000028,
      "d": 410.9585000000079,
      "v": 68
    },
    {
      "midi": 63,
      "hit": false,
      "t": 101506.74950000028,
      "d": 410.9585000000079,
      "v": 68
    },
    {
      "midi": 72,
      "hit": false,
      "t": 101712.22875000029,
      "d": 205.47925000000396,
      "v": 70
    },
    {
      "midi": 75,
      "hit": false,
      "t": 101712.22875000029,
      "d": 205.47925000000396,
      "v": 70
    },
    {
      "midi": 70,
      "hit": false,
      "t": 101917.70800000029,
      "d": 205.47925000000396,
      "v": 72
    },
    {
      "midi": 73,
      "hit": false,
      "t": 101917.70800000029,
      "d": 205.47925000000396,
      "v": 72
    },
    {
      "midi": 46,
      "hit": false,
      "t": 101917.70800000029,
      "d": 410.9585000000079,
      "v": 56
    },
    {
      "midi": 69,
      "hit": false,
      "t": 102123.1872500003,
      "d": 205.47925000000396,
      "v": 69
    },
    {
      "midi": 72,
      "hit": false,
      "t": 102123.1872500003,
      "d": 205.47925000000396,
      "v": 69
    },
    {
      "midi": 70,
      "hit": false,
      "t": 102328.6665000003,
      "d": 205.47925000000396,
      "v": 70
    },
    {
      "midi": 73,
      "hit": false,
      "t": 102328.6665000003,
      "d": 205.47925000000396,
      "v": 70
    },
    {
      "midi": 53,
      "hit": false,
      "t": 102328.6665000003,
      "d": 410.9585000000079,
      "v": 70
    },
    {
      "midi": 58,
      "hit": false,
      "t": 102328.6665000003,
      "d": 410.9585000000079,
      "v": 70
    },
    {
      "midi": 61,
      "hit": false,
      "t": 102328.6665000003,
      "d": 410.9585000000079,
      "v": 70
    },
    {
      "midi": 65,
      "hit": false,
      "t": 102534.1457500003,
      "d": 410.9585000000079,
      "v": 68
    },
    {
      "midi": 49,
      "hit": false,
      "t": 102739.6250000003,
      "d": 410.9585000000079,
      "v": 56
    },
    {
      "midi": 69,
      "hit": false,
      "t": 102945.10425000031,
      "d": 205.47925000000396,
      "v": 77
    },
    {
      "midi": 70,
      "hit": false,
      "t": 103150.58350000031,
      "d": 205.47925000000396,
      "v": 73
    },
    {
      "midi": 53,
      "hit": false,
      "t": 103150.58350000031,
      "d": 410.9585000000079,
      "v": 71
    },
    {
      "midi": 58,
      "hit": false,
      "t": 103150.58350000031,
      "d": 410.9585000000079,
      "v": 71
    },
    {
      "midi": 61,
      "hit": false,
      "t": 103150.58350000031,
      "d": 410.9585000000079,
      "v": 71
    },
    {
      "midi": 73,
      "hit": false,
      "t": 103356.06275000032,
      "d": 205.47925000000396,
      "v": 76
    },
    {
      "midi": 77,
      "hit": false,
      "t": 103561.54200000032,
      "d": 205.47925000000396,
      "v": 75
    },
    {
      "midi": 46,
      "hit": false,
      "t": 103561.54200000032,
      "d": 410.9585000000079,
      "v": 59
    },
    {
      "midi": 72,
      "hit": false,
      "t": 103767.02125000033,
      "d": 205.47925000000396,
      "v": 68
    },
    {
      "midi": 73,
      "hit": false,
      "t": 103972.50050000033,
      "d": 205.47925000000396,
      "v": 72
    },
    {
      "midi": 49,
      "hit": false,
      "t": 103972.50050000033,
      "d": 410.9585000000079,
      "v": 64
    },
    {
      "midi": 53,
      "hit": false,
      "t": 103972.50050000033,
      "d": 410.9585000000079,
      "v": 64
    },
    {
      "midi": 58,
      "hit": false,
      "t": 103972.50050000033,
      "d": 410.9585000000079,
      "v": 64
    },
    {
      "midi": 70,
      "hit": false,
      "t": 104177.97975000033,
      "d": 410.9585000000079,
      "v": 68
    },
    {
      "midi": 49,
      "hit": false,
      "t": 104383.45900000034,
      "d": 821.9170000000158,
      "v": 62
    },
    {
      "midi": 53,
      "hit": false,
      "t": 104383.45900000034,
      "d": 821.9170000000158,
      "v": 62
    },
    {
      "midi": 65,
      "hit": false,
      "t": 104588.93825000034,
      "d": 205.47925000000396,
      "v": 66
    },
    {
      "midi": 61,
      "hit": false,
      "t": 104794.41750000035,
      "d": 205.47925000000396,
      "v": 66
    },
    {
      "midi": 58,
      "hit": false,
      "t": 104999.89675000035,
      "d": 205.47925000000396,
      "v": 70
    },
    {
      "midi": 50,
      "hit": false,
      "t": 105205.37600000035,
      "d": 205.47925000000396,
      "v": 67
    },
    {
      "midi": 59,
      "hit": false,
      "t": 105205.37600000035,
      "d": 205.47925000000396,
      "v": 85
    },
    {
      "midi": 53,
      "hit": false,
      "t": 105410.85525000036,
      "d": 205.47925000000396,
      "v": 73
    },
    {
      "midi": 62,
      "hit": false,
      "t": 105410.85525000036,
      "d": 205.47925000000396,
      "v": 85
    },
    {
      "midi": 56,
      "hit": false,
      "t": 105616.33450000036,
      "d": 205.47925000000396,
      "v": 72
    },
    {
      "midi": 65,
      "hit": false,
      "t": 105616.33450000036,
      "d": 205.47925000000396,
      "v": 90
    },
    {
      "midi": 59,
      "hit": false,
      "t": 105821.81375000036,
      "d": 205.47925000000396,
      "v": 71
    },
    {
      "midi": 68,
      "hit": false,
      "t": 105821.81375000036,
      "d": 205.47925000000396,
      "v": 86
    },
    {
      "midi": 62,
      "hit": false,
      "t": 106027.29300000037,
      "d": 205.47925000000396,
      "v": 73
    },
    {
      "midi": 71,
      "hit": false,
      "t": 106027.29300000037,
      "d": 205.47925000000396,
      "v": 87
    },
    {
      "midi": 62,
      "hit": false,
      "t": 106232.77225000037,
      "d": 410.95849999999336,
      "v": 70
    },
    {
      "midi": 71,
      "hit": false,
      "t": 106232.77225000037,
      "d": 410.95849999999336,
      "v": 84
    },
    {
      "midi": 62,
      "hit": false,
      "t": 106643.73075000037,
      "d": 410.95849999999336,
      "v": 72
    },
    {
      "midi": 71,
      "hit": false,
      "t": 106643.73075000037,
      "d": 410.95849999999336,
      "v": 83
    },
    {
      "midi": 65,
      "hit": false,
      "t": 107054.68925000036,
      "d": 205.47925000000396,
      "v": 75
    },
    {
      "midi": 74,
      "hit": false,
      "t": 107054.68925000036,
      "d": 205.47925000000396,
      "v": 85
    },
    {
      "midi": 68,
      "hit": false,
      "t": 107260.16850000036,
      "d": 205.47925000000396,
      "v": 74
    },
    {
      "midi": 77,
      "hit": false,
      "t": 107260.16850000036,
      "d": 205.47925000000396,
      "v": 92
    },
    {
      "midi": 71,
      "hit": false,
      "t": 107465.64775000037,
      "d": 205.47925000000396,
      "v": 77
    },
    {
      "midi": 80,
      "hit": false,
      "t": 107465.64775000037,
      "d": 205.47925000000396,
      "v": 98
    },
    {
      "midi": 74,
      "hit": false,
      "t": 107671.12700000037,
      "d": 410.95849999999336,
      "v": 82
    },
    {
      "midi": 83,
      "hit": false,
      "t": 107671.12700000037,
      "d": 410.95849999999336,
      "v": 101
    },
    {
      "midi": 84,
      "hit": false,
      "t": 108493.04400000036,
      "d": 205.47925000000396,
      "v": 86
    },
    {
      "midi": 68,
      "hit": false,
      "t": 108493.04400000036,
      "d": 410.9585000000079,
      "v": 76
    },
    {
      "midi": 75,
      "hit": false,
      "t": 108493.04400000036,
      "d": 410.9585000000079,
      "v": 76
    },
    {
      "midi": 80,
      "hit": false,
      "t": 108698.52325000036,
      "d": 205.47925000000396,
      "v": 91
    },
    {
      "midi": 75,
      "hit": false,
      "t": 108904.00250000037,
      "d": 205.47925000000396,
      "v": 86
    },
    {
      "midi": 72,
      "hit": false,
      "t": 109109.48175000037,
      "d": 205.47925000000396,
      "v": 82
    },
    {
      "midi": 72,
      "hit": false,
      "t": 109314.96100000037,
      "d": 205.47925000000396,
      "v": 80
    },
    {
      "midi": 68,
      "hit": false,
      "t": 109520.44025000038,
      "d": 205.47925000000396,
      "v": 79
    },
    {
      "midi": 60,
      "hit": false,
      "t": 109725.91950000038,
      "d": 205.47925000000396,
      "v": 76
    },
    {
      "midi": 63,
      "hit": false,
      "t": 109931.39875000039,
      "d": 205.47925000000396,
      "v": 89
    },
    {
      "midi": 61,
      "hit": false,
      "t": 110136.87800000039,
      "d": 205.47925000000396,
      "v": 77
    },
    {
      "midi": 63,
      "hit": false,
      "t": 110136.87800000039,
      "d": 205.47925000000396,
      "v": 77
    },
    {
      "midi": 67,
      "hit": false,
      "t": 110136.87800000039,
      "d": 205.47925000000396,
      "v": 77
    },
    {
      "midi": 70,
      "hit": false,
      "t": 110136.87800000039,
      "d": 205.47925000000396,
      "v": 77
    },
    {
      "midi": 39,
      "hit": false,
      "t": 110136.87800000039,
      "d": 410.9585000000079,
      "v": 56
    },
    {
      "midi": 51,
      "hit": false,
      "t": 110136.87800000039,
      "d": 410.9585000000079,
      "v": 56
    },
    {
      "midi": 61,
      "hit": false,
      "t": 110342.3572500004,
      "d": 410.9585000000079,
      "v": 72
    },
    {
      "midi": 63,
      "hit": false,
      "t": 110342.3572500004,
      "d": 410.9585000000079,
      "v": 72
    },
    {
      "midi": 67,
      "hit": false,
      "t": 110342.3572500004,
      "d": 410.9585000000079,
      "v": 72
    },
    {
      "midi": 70,
      "hit": false,
      "t": 110342.3572500004,
      "d": 410.9585000000079,
      "v": 72
    },
    {
      "midi": 39,
      "hit": false,
      "t": 110547.8365000004,
      "d": 410.9585000000079,
      "v": 61
    },
    {
      "midi": 51,
      "hit": false,
      "t": 110547.8365000004,
      "d": 410.9585000000079,
      "v": 61
    },
    {
      "midi": 60,
      "hit": false,
      "t": 110753.3157500004,
      "d": 616.4377499999973,
      "v": 69
    },
    {
      "midi": 63,
      "hit": false,
      "t": 110753.3157500004,
      "d": 616.4377499999973,
      "v": 69
    },
    {
      "midi": 68,
      "hit": false,
      "t": 110753.3157500004,
      "d": 616.4377499999973,
      "v": 69
    },
    {
      "midi": 44,
      "hit": false,
      "t": 110958.7950000004,
      "d": 410.95849999999336,
      "v": 63
    },
    {
      "midi": 56,
      "hit": false,
      "t": 110958.7950000004,
      "d": 410.95849999999336,
      "v": 63
    },
    {
      "midi": 63,
      "hit": false,
      "t": 111369.7535000004,
      "d": 410.95849999999336,
      "v": 66
    },
    {
      "midi": 44,
      "hit": false,
      "t": 111780.71200000039,
      "d": 410.95849999999336,
      "v": 53
    },
    {
      "midi": 68,
      "hit": false,
      "t": 111780.71200000039,
      "d": 410.95849999999336,
      "v": 78
    },
    {
      "midi": 72,
      "hit": false,
      "t": 111780.71200000039,
      "d": 410.95849999999336,
      "v": 78
    },
    {
      "midi": 51,
      "hit": false,
      "t": 112191.67050000039,
      "d": 410.95849999999336,
      "v": 69
    },
    {
      "midi": 56,
      "hit": false,
      "t": 112191.67050000039,
      "d": 410.95849999999336,
      "v": 69
    },
    {
      "midi": 60,
      "hit": false,
      "t": 112191.67050000039,
      "d": 410.95849999999336,
      "v": 69
    },
    {
      "midi": 68,
      "hit": false,
      "t": 112191.67050000039,
      "d": 821.9169999999867,
      "v": 76
    },
    {
      "midi": 72,
      "hit": false,
      "t": 112191.67050000039,
      "d": 821.9169999999867,
      "v": 76
    },
    {
      "midi": 39,
      "hit": false,
      "t": 112602.62900000038,
      "d": 410.95849999999336,
      "v": 59
    },
    {
      "midi": 51,
      "hit": false,
      "t": 113013.58750000037,
      "d": 410.95849999999336,
      "v": 68
    },
    {
      "midi": 56,
      "hit": false,
      "t": 113013.58750000037,
      "d": 410.95849999999336,
      "v": 68
    },
    {
      "midi": 60,
      "hit": false,
      "t": 113013.58750000037,
      "d": 410.95849999999336,
      "v": 68
    },
    {
      "midi": 72,
      "hit": false,
      "t": 113013.58750000037,
      "d": 410.95849999999336,
      "v": 73
    },
    {
      "midi": 75,
      "hit": false,
      "t": 113013.58750000037,
      "d": 410.95849999999336,
      "v": 73
    },
    {
      "midi": 71,
      "hit": false,
      "t": 113424.54600000037,
      "d": 208.68986328125175,
      "v": 74
    },
    {
      "midi": 77,
      "hit": false,
      "t": 113424.54600000037,
      "d": 208.68986328125175,
      "v": 74
    },
    {
      "midi": 44,
      "hit": false,
      "t": 113424.54600000037,
      "d": 410.9585000000079,
      "v": 61
    },
    {
      "midi": 72,
      "hit": false,
      "t": 113630.02525000037,
      "d": 388.48420703125885,
      "v": 72
    },
    {
      "midi": 75,
      "hit": false,
      "t": 113630.02525000037,
      "d": 388.48420703125885,
      "v": 72
    },
    {
      "midi": 51,
      "hit": false,
      "t": 113835.50450000037,
      "d": 410.9585000000079,
      "v": 72
    },
    {
      "midi": 56,
      "hit": false,
      "t": 113835.50450000037,
      "d": 410.9585000000079,
      "v": 72
    },
    {
      "midi": 60,
      "hit": false,
      "t": 113835.50450000037,
      "d": 410.9585000000079,
      "v": 72
    },
    {
      "midi": 71,
      "hit": false,
      "t": 114040.98375000038,
      "d": 208.68986328125175,
      "v": 74
    },
    {
      "midi": 77,
      "hit": false,
      "t": 114040.98375000038,
      "d": 208.68986328125175,
      "v": 74
    },
    {
      "midi": 72,
      "hit": false,
      "t": 114246.46300000038,
      "d": 192.63679687499825,
      "v": 73
    },
    {
      "midi": 75,
      "hit": false,
      "t": 114246.46300000038,
      "d": 192.63679687499825,
      "v": 73
    },
    {
      "midi": 39,
      "hit": false,
      "t": 114246.46300000038,
      "d": 410.9585000000079,
      "v": 58
    },
    {
      "midi": 71,
      "hit": false,
      "t": 114451.94225000039,
      "d": 208.68986328125175,
      "v": 73
    },
    {
      "midi": 77,
      "hit": false,
      "t": 114451.94225000039,
      "d": 208.68986328125175,
      "v": 73
    },
    {
      "midi": 72,
      "hit": false,
      "t": 114657.42150000039,
      "d": 388.4842070312443,
      "v": 70
    },
    {
      "midi": 75,
      "hit": false,
      "t": 114657.42150000039,
      "d": 388.4842070312443,
      "v": 70
    },
    {
      "midi": 51,
      "hit": false,
      "t": 114657.42150000039,
      "d": 410.95849999999336,
      "v": 69
    },
    {
      "midi": 56,
      "hit": false,
      "t": 114657.42150000039,
      "d": 410.95849999999336,
      "v": 69
    },
    {
      "midi": 60,
      "hit": false,
      "t": 114657.42150000039,
      "d": 410.95849999999336,
      "v": 69
    },
    {
      "midi": 76,
      "hit": false,
      "t": 115068.38000000038,
      "d": 208.68986328125175,
      "v": 78
    },
    {
      "midi": 82,
      "hit": false,
      "t": 115068.38000000038,
      "d": 208.68986328125175,
      "v": 78
    },
    {
      "midi": 37,
      "hit": false,
      "t": 115068.38000000038,
      "d": 410.9585000000079,
      "v": 58
    },
    {
      "midi": 77,
      "hit": false,
      "t": 115273.85925000039,
      "d": 388.48420703125885,
      "v": 76
    },
    {
      "midi": 80,
      "hit": false,
      "t": 115273.85925000039,
      "d": 388.48420703125885,
      "v": 76
    },
    {
      "midi": 53,
      "hit": false,
      "t": 115479.33850000039,
      "d": 410.9585000000079,
      "v": 68
    },
    {
      "midi": 56,
      "hit": false,
      "t": 115479.33850000039,
      "d": 410.9585000000079,
      "v": 68
    },
    {
      "midi": 61,
      "hit": false,
      "t": 115479.33850000039,
      "d": 410.9585000000079,
      "v": 68
    },
    {
      "midi": 76,
      "hit": false,
      "t": 115684.8177500004,
      "d": 208.68986328125175,
      "v": 75
    },
    {
      "midi": 82,
      "hit": false,
      "t": 115684.8177500004,
      "d": 208.68986328125175,
      "v": 75
    },
    {
      "midi": 77,
      "hit": false,
      "t": 115890.2970000004,
      "d": 192.63679687499825,
      "v": 74
    },
    {
      "midi": 80,
      "hit": false,
      "t": 115890.2970000004,
      "d": 192.63679687499825,
      "v": 74
    },
    {
      "midi": 37,
      "hit": false,
      "t": 115890.2970000004,
      "d": 410.9585000000079,
      "v": 58
    },
    {
      "midi": 76,
      "hit": false,
      "t": 116095.7762500004,
      "d": 208.68986328125175,
      "v": 72
    },
    {
      "midi": 82,
      "hit": false,
      "t": 116095.7762500004,
      "d": 208.68986328125175,
      "v": 72
    },
    {
      "midi": 77,
      "hit": false,
      "t": 116301.2555000004,
      "d": 192.63679687499825,
      "v": 69
    },
    {
      "midi": 80,
      "hit": false,
      "t": 116301.2555000004,
      "d": 192.63679687499825,
      "v": 69
    },
    {
      "midi": 53,
      "hit": false,
      "t": 116301.2555000004,
      "d": 410.9585000000079,
      "v": 68
    },
    {
      "midi": 56,
      "hit": false,
      "t": 116301.2555000004,
      "d": 410.9585000000079,
      "v": 68
    },
    {
      "midi": 61,
      "hit": false,
      "t": 116301.2555000004,
      "d": 410.9585000000079,
      "v": 68
    },
    {
      "midi": 72,
      "hit": false,
      "t": 116506.73475000041,
      "d": 1849.313250000021,
      "v": 69
    },
    {
      "midi": 75,
      "hit": false,
      "t": 116506.73475000041,
      "d": 1849.313250000021,
      "v": 69
    },
    {
      "midi": 44,
      "hit": false,
      "t": 116712.21400000041,
      "d": 410.95849999999336,
      "v": 56
    },
    {
      "midi": 63,
      "hit": false,
      "t": 117123.17250000041,
      "d": 208.68986328125175,
      "v": 69
    },
    {
      "midi": 51,
      "hit": false,
      "t": 117123.17250000041,
      "d": 410.9585000000079,
      "v": 68
    },
    {
      "midi": 56,
      "hit": false,
      "t": 117123.17250000041,
      "d": 410.9585000000079,
      "v": 68
    },
    {
      "midi": 60,
      "hit": false,
      "t": 117123.17250000041,
      "d": 410.9585000000079,
      "v": 68
    },
    {
      "midi": 65,
      "hit": false,
      "t": 117328.65175000041,
      "d": 208.68986328125175,
      "v": 70
    },
    {
      "midi": 67,
      "hit": false,
      "t": 117534.13100000042,
      "d": 208.68986328125175,
      "v": 79
    },
    {
      "midi": 39,
      "hit": false,
      "t": 117534.13100000042,
      "d": 410.9585000000079,
      "v": 57
    },
    {
      "midi": 68,
      "hit": false,
      "t": 117739.61025000042,
      "d": 208.68986328125175,
      "v": 82
    },
    {
      "midi": 70,
      "hit": false,
      "t": 117945.08950000042,
      "d": 208.68986328125175,
      "v": 79
    },
    {
      "midi": 51,
      "hit": false,
      "t": 117945.08950000042,
      "d": 410.9585000000079,
      "v": 68
    },
    {
      "midi": 56,
      "hit": false,
      "t": 117945.08950000042,
      "d": 410.9585000000079,
      "v": 68
    },
    {
      "midi": 60,
      "hit": false,
      "t": 117945.08950000042,
      "d": 410.9585000000079,
      "v": 68
    },
    {
      "midi": 71,
      "hit": false,
      "t": 118150.56875000043,
      "d": 192.63679687499825,
      "v": 81
    },
    {
      "midi": 44,
      "hit": false,
      "t": 118356.04800000043,
      "d": 410.95849999999336,
      "v": 59
    },
    {
      "midi": 68,
      "hit": false,
      "t": 118356.04800000043,
      "d": 410.95849999999336,
      "v": 67
    },
    {
      "midi": 72,
      "hit": false,
      "t": 118356.04800000043,
      "d": 410.95849999999336,
      "v": 67
    },
    {
      "midi": 51,
      "hit": false,
      "t": 118767.00650000043,
      "d": 410.95849999999336,
      "v": 69
    },
    {
      "midi": 56,
      "hit": false,
      "t": 118767.00650000043,
      "d": 410.95849999999336,
      "v": 69
    },
    {
      "midi": 60,
      "hit": false,
      "t": 118767.00650000043,
      "d": 410.95849999999336,
      "v": 69
    },
    {
      "midi": 68,
      "hit": false,
      "t": 118767.00650000043,
      "d": 821.9169999999867,
      "v": 72
    },
    {
      "midi": 72,
      "hit": false,
      "t": 118767.00650000043,
      "d": 821.9169999999867,
      "v": 72
    },
    {
      "midi": 39,
      "hit": false,
      "t": 119177.96500000042,
      "d": 410.95849999999336,
      "v": 59
    },
    {
      "midi": 51,
      "hit": false,
      "t": 119588.92350000041,
      "d": 410.95849999999336,
      "v": 70
    },
    {
      "midi": 56,
      "hit": false,
      "t": 119588.92350000041,
      "d": 410.95849999999336,
      "v": 70
    },
    {
      "midi": 60,
      "hit": false,
      "t": 119588.92350000041,
      "d": 410.95849999999336,
      "v": 70
    },
    {
      "midi": 72,
      "hit": false,
      "t": 119588.92350000041,
      "d": 410.95849999999336,
      "v": 73
    },
    {
      "midi": 75,
      "hit": false,
      "t": 119588.92350000041,
      "d": 410.95849999999336,
      "v": 73
    },
    {
      "midi": 71,
      "hit": false,
      "t": 119999.8820000004,
      "d": 208.68986328125175,
      "v": 72
    },
    {
      "midi": 77,
      "hit": false,
      "t": 119999.8820000004,
      "d": 208.68986328125175,
      "v": 72
    },
    {
      "midi": 44,
      "hit": false,
      "t": 119999.8820000004,
      "d": 410.9585000000079,
      "v": 58
    },
    {
      "midi": 72,
      "hit": false,
      "t": 120205.36125000041,
      "d": 388.48420703125885,
      "v": 69
    },
    {
      "midi": 75,
      "hit": false,
      "t": 120205.36125000041,
      "d": 388.48420703125885,
      "v": 69
    },
    {
      "midi": 51,
      "hit": false,
      "t": 120410.84050000041,
      "d": 410.9585000000079,
      "v": 68
    },
    {
      "midi": 56,
      "hit": false,
      "t": 120410.84050000041,
      "d": 410.9585000000079,
      "v": 68
    },
    {
      "midi": 60,
      "hit": false,
      "t": 120410.84050000041,
      "d": 410.9585000000079,
      "v": 68
    },
    {
      "midi": 71,
      "hit": false,
      "t": 120616.31975000042,
      "d": 208.68986328125175,
      "v": 72
    },
    {
      "midi": 77,
      "hit": false,
      "t": 120616.31975000042,
      "d": 208.68986328125175,
      "v": 72
    },
    {
      "midi": 72,
      "hit": false,
      "t": 120821.79900000042,
      "d": 192.63679687499825,
      "v": 70
    },
    {
      "midi": 75,
      "hit": false,
      "t": 120821.79900000042,
      "d": 192.63679687499825,
      "v": 70
    },
    {
      "midi": 45,
      "hit": false,
      "t": 120821.79900000042,
      "d": 410.9585000000079,
      "v": 57
    },
    {
      "midi": 72,
      "hit": false,
      "t": 121027.27825000043,
      "d": 205.47925000000396,
      "v": 71
    },
    {
      "midi": 75,
      "hit": false,
      "t": 121027.27825000043,
      "d": 205.47925000000396,
      "v": 71
    },
    {
      "midi": 54,
      "hit": false,
      "t": 121232.75750000043,
      "d": 410.95849999999336,
      "v": 70
    },
    {
      "midi": 57,
      "hit": false,
      "t": 121232.75750000043,
      "d": 410.95849999999336,
      "v": 70
    },
    {
      "midi": 63,
      "hit": false,
      "t": 121232.75750000043,
      "d": 410.95849999999336,
      "v": 70
    },
    {
      "midi": 72,
      "hit": false,
      "t": 121232.75750000043,
      "d": 410.95849999999336,
      "v": 70
    },
    {
      "midi": 75,
      "hit": false,
      "t": 121232.75750000043,
      "d": 410.95849999999336,
      "v": 70
    },
    {
      "midi": 75,
      "hit": false,
      "t": 121643.71600000042,
      "d": 205.47925000000396,
      "v": 73
    },
    {
      "midi": 46,
      "hit": false,
      "t": 121643.71600000042,
      "d": 410.9585000000079,
      "v": 58
    },
    {
      "midi": 70,
      "hit": false,
      "t": 121849.19525000043,
      "d": 410.9585000000079,
      "v": 68
    },
    {
      "midi": 67,
      "hit": false,
      "t": 121849.19525000043,
      "d": 616.4377500000119,
      "v": 72
    },
    {
      "midi": 55,
      "hit": false,
      "t": 122054.67450000043,
      "d": 410.9585000000079,
      "v": 71
    },
    {
      "midi": 58,
      "hit": false,
      "t": 122054.67450000043,
      "d": 410.9585000000079,
      "v": 71
    },
    {
      "midi": 63,
      "hit": false,
      "t": 122054.67450000043,
      "d": 410.9585000000079,
      "v": 71
    },
    {
      "midi": 75,
      "hit": false,
      "t": 122260.15375000043,
      "d": 205.47925000000396,
      "v": 76
    },
    {
      "midi": 74,
      "hit": false,
      "t": 122465.63300000044,
      "d": 205.47925000000396,
      "v": 69
    },
    {
      "midi": 46,
      "hit": false,
      "t": 122465.63300000044,
      "d": 410.9585000000079,
      "v": 59
    },
    {
      "midi": 68,
      "hit": false,
      "t": 122465.63300000044,
      "d": 410.9585000000079,
      "v": 77
    },
    {
      "midi": 75,
      "hit": false,
      "t": 122671.11225000044,
      "d": 205.47925000000396,
      "v": 73
    },
    {
      "midi": 58,
      "hit": false,
      "t": 122876.59150000045,
      "d": 410.95849999999336,
      "v": 69
    },
    {
      "midi": 62,
      "hit": false,
      "t": 122876.59150000045,
      "d": 410.95849999999336,
      "v": 69
    },
    {
      "midi": 68,
      "hit": false,
      "t": 122876.59150000045,
      "d": 410.95849999999336,
      "v": 76
    },
    {
      "midi": 77,
      "hit": false,
      "t": 122876.59150000045,
      "d": 410.95849999999336,
      "v": 74
    },
    {
      "midi": 51,
      "hit": false,
      "t": 123287.55000000044,
      "d": 410.95849999999336,
      "v": 65
    },
    {
      "midi": 63,
      "hit": false,
      "t": 123287.55000000044,
      "d": 410.95849999999336,
      "v": 65
    },
    {
      "midi": 67,
      "hit": false,
      "t": 123287.55000000044,
      "d": 1027.3962499999907,
      "v": 69
    },
    {
      "midi": 75,
      "hit": false,
      "t": 123287.55000000044,
      "d": 1027.3962499999907,
      "v": 69
    },
    {
      "midi": 49,
      "hit": false,
      "t": 123698.50850000043,
      "d": 410.95849999999336,
      "v": 61
    },
    {
      "midi": 61,
      "hit": false,
      "t": 123698.50850000043,
      "d": 410.95849999999336,
      "v": 61
    },
    {
      "midi": 48,
      "hit": false,
      "t": 124109.46700000043,
      "d": 410.9585000000079,
      "v": 59
    },
    {
      "midi": 60,
      "hit": false,
      "t": 124109.46700000043,
      "d": 410.9585000000079,
      "v": 59
    },
    {
      "midi": 63,
      "hit": false,
      "t": 124314.94625000043,
      "d": 205.47925000000396,
      "v": 64
    },
    {
      "midi": 67,
      "hit": false,
      "t": 124520.42550000043,
      "d": 205.47925000000396,
      "v": 72
    },
    {
      "midi": 46,
      "hit": false,
      "t": 124520.42550000043,
      "d": 410.9585000000079,
      "v": 61
    },
    {
      "midi": 58,
      "hit": false,
      "t": 124520.42550000043,
      "d": 410.9585000000079,
      "v": 61
    },
    {
      "midi": 73,
      "hit": false,
      "t": 124725.90475000044,
      "d": 205.47925000000396,
      "v": 77
    },
    {
      "midi": 44,
      "hit": false,
      "t": 124931.38400000044,
      "d": 410.95849999999336,
      "v": 62
    },
    {
      "midi": 56,
      "hit": false,
      "t": 124931.38400000044,
      "d": 410.95849999999336,
      "v": 62
    },
    {
      "midi": 68,
      "hit": false,
      "t": 124931.38400000044,
      "d": 410.95849999999336,
      "v": 70
    },
    {
      "midi": 72,
      "hit": false,
      "t": 124931.38400000044,
      "d": 410.95849999999336,
      "v": 70
    },
    {
      "midi": 51,
      "hit": false,
      "t": 125342.34250000044,
      "d": 410.95849999999336,
      "v": 64
    },
    {
      "midi": 56,
      "hit": false,
      "t": 125342.34250000044,
      "d": 410.95849999999336,
      "v": 64
    },
    {
      "midi": 60,
      "hit": false,
      "t": 125342.34250000044,
      "d": 410.95849999999336,
      "v": 64
    },
    {
      "midi": 68,
      "hit": false,
      "t": 125342.34250000044,
      "d": 821.9169999999867,
      "v": 72
    },
    {
      "midi": 72,
      "hit": false,
      "t": 125342.34250000044,
      "d": 821.9169999999867,
      "v": 72
    },
    {
      "midi": 39,
      "hit": false,
      "t": 125753.30100000043,
      "d": 410.95849999999336,
      "v": 55
    },
    {
      "midi": 51,
      "hit": false,
      "t": 126164.25950000042,
      "d": 410.95849999999336,
      "v": 69
    },
    {
      "midi": 56,
      "hit": false,
      "t": 126164.25950000042,
      "d": 410.95849999999336,
      "v": 69
    },
    {
      "midi": 60,
      "hit": false,
      "t": 126164.25950000042,
      "d": 410.95849999999336,
      "v": 69
    },
    {
      "midi": 72,
      "hit": false,
      "t": 126164.25950000042,
      "d": 410.95849999999336,
      "v": 74
    },
    {
      "midi": 75,
      "hit": false,
      "t": 126164.25950000042,
      "d": 410.95849999999336,
      "v": 74
    },
    {
      "midi": 71,
      "hit": false,
      "t": 126575.21800000042,
      "d": 208.68986328125175,
      "v": 73
    },
    {
      "midi": 77,
      "hit": false,
      "t": 126575.21800000042,
      "d": 208.68986328125175,
      "v": 73
    },
    {
      "midi": 44,
      "hit": false,
      "t": 126575.21800000042,
      "d": 410.9585000000079,
      "v": 61
    },
    {
      "midi": 72,
      "hit": false,
      "t": 126780.69725000042,
      "d": 388.48420703125885,
      "v": 71
    },
    {
      "midi": 75,
      "hit": false,
      "t": 126780.69725000042,
      "d": 388.48420703125885,
      "v": 71
    },
    {
      "midi": 51,
      "hit": false,
      "t": 126986.17650000042,
      "d": 410.9585000000079,
      "v": 71
    },
    {
      "midi": 56,
      "hit": false,
      "t": 126986.17650000042,
      "d": 410.9585000000079,
      "v": 71
    },
    {
      "midi": 60,
      "hit": false,
      "t": 126986.17650000042,
      "d": 410.9585000000079,
      "v": 71
    },
    {
      "midi": 71,
      "hit": false,
      "t": 127191.65575000043,
      "d": 208.68986328125175,
      "v": 76
    },
    {
      "midi": 77,
      "hit": false,
      "t": 127191.65575000043,
      "d": 208.68986328125175,
      "v": 76
    },
    {
      "midi": 72,
      "hit": false,
      "t": 127397.13500000043,
      "d": 192.63679687499825,
      "v": 75
    },
    {
      "midi": 75,
      "hit": false,
      "t": 127397.13500000043,
      "d": 192.63679687499825,
      "v": 75
    },
    {
      "midi": 39,
      "hit": false,
      "t": 127397.13500000043,
      "d": 410.9585000000079,
      "v": 59
    },
    {
      "midi": 71,
      "hit": false,
      "t": 127602.61425000044,
      "d": 208.68986328125175,
      "v": 74
    },
    {
      "midi": 77,
      "hit": false,
      "t": 127602.61425000044,
      "d": 208.68986328125175,
      "v": 74
    },
    {
      "midi": 72,
      "hit": false,
      "t": 127808.09350000044,
      "d": 388.4842070312443,
      "v": 72
    },
    {
      "midi": 75,
      "hit": false,
      "t": 127808.09350000044,
      "d": 388.4842070312443,
      "v": 72
    },
    {
      "midi": 51,
      "hit": false,
      "t": 127808.09350000044,
      "d": 410.95849999999336,
      "v": 69
    },
    {
      "midi": 56,
      "hit": false,
      "t": 127808.09350000044,
      "d": 410.95849999999336,
      "v": 69
    },
    {
      "midi": 60,
      "hit": false,
      "t": 127808.09350000044,
      "d": 410.95849999999336,
      "v": 69
    },
    {
      "midi": 76,
      "hit": false,
      "t": 128219.05200000043,
      "d": 208.68986328125175,
      "v": 78
    },
    {
      "midi": 82,
      "hit": false,
      "t": 128219.05200000043,
      "d": 208.68986328125175,
      "v": 78
    },
    {
      "midi": 37,
      "hit": false,
      "t": 128219.05200000043,
      "d": 410.9585000000079,
      "v": 57
    },
    {
      "midi": 77,
      "hit": false,
      "t": 128424.53125000044,
      "d": 388.48420703125885,
      "v": 78
    },
    {
      "midi": 80,
      "hit": false,
      "t": 128424.53125000044,
      "d": 388.48420703125885,
      "v": 78
    },
    {
      "midi": 53,
      "hit": false,
      "t": 128630.01050000044,
      "d": 410.9585000000079,
      "v": 68
    },
    {
      "midi": 56,
      "hit": false,
      "t": 128630.01050000044,
      "d": 410.9585000000079,
      "v": 68
    },
    {
      "midi": 61,
      "hit": false,
      "t": 128630.01050000044,
      "d": 410.9585000000079,
      "v": 68
    },
    {
      "midi": 76,
      "hit": false,
      "t": 128835.48975000044,
      "d": 208.68986328125175,
      "v": 69
    },
    {
      "midi": 82,
      "hit": false,
      "t": 128835.48975000044,
      "d": 208.68986328125175,
      "v": 69
    },
    {
      "midi": 77,
      "hit": false,
      "t": 129040.96900000045,
      "d": 192.63679687499825,
      "v": 69
    },
    {
      "midi": 80,
      "hit": false,
      "t": 129040.96900000045,
      "d": 192.63679687499825,
      "v": 69
    },
    {
      "midi": 49,
      "hit": false,
      "t": 129040.96900000045,
      "d": 410.9585000000079,
      "v": 63
    },
    {
      "midi": 61,
      "hit": false,
      "t": 129040.96900000045,
      "d": 410.9585000000079,
      "v": 63
    },
    {
      "midi": 77,
      "hit": false,
      "t": 129246.44825000045,
      "d": 205.47925000000396,
      "v": 74
    },
    {
      "midi": 80,
      "hit": false,
      "t": 129246.44825000045,
      "d": 205.47925000000396,
      "v": 74
    },
    {
      "midi": 77,
      "hit": false,
      "t": 129451.92750000046,
      "d": 205.47925000000396,
      "v": 73
    },
    {
      "midi": 79,
      "hit": false,
      "t": 129451.92750000046,
      "d": 205.47925000000396,
      "v": 73
    },
    {
      "midi": 82,
      "hit": false,
      "t": 129451.92750000046,
      "d": 205.47925000000396,
      "v": 73
    },
    {
      "midi": 49,
      "hit": false,
      "t": 129451.92750000046,
      "d": 410.9585000000079,
      "v": 61
    },
    {
      "midi": 61,
      "hit": false,
      "t": 129451.92750000046,
      "d": 410.9585000000079,
      "v": 61
    },
    {
      "midi": 48,
      "hit": false,
      "t": 129862.88600000046,
      "d": 410.9585000000079,
      "v": 59
    },
    {
      "midi": 60,
      "hit": false,
      "t": 129862.88600000046,
      "d": 410.9585000000079,
      "v": 59
    },
    {
      "midi": 72,
      "hit": false,
      "t": 130068.36525000047,
      "d": 205.47925000000396,
      "v": 67
    },
    {
      "midi": 76,
      "hit": false,
      "t": 130273.84450000047,
      "d": 205.47925000000396,
      "v": 79
    },
    {
      "midi": 43,
      "hit": false,
      "t": 130273.84450000047,
      "d": 410.9585000000079,
      "v": 58
    },
    {
      "midi": 55,
      "hit": false,
      "t": 130273.84450000047,
      "d": 410.9585000000079,
      "v": 58
    },
    {
      "midi": 79,
      "hit": false,
      "t": 130479.32375000048,
      "d": 205.47925000000396,
      "v": 80
    },
    {
      "midi": 36,
      "hit": false,
      "t": 130684.80300000048,
      "d": 410.9585000000079,
      "v": 59
    },
    {
      "midi": 48,
      "hit": false,
      "t": 130684.80300000048,
      "d": 410.9585000000079,
      "v": 59
    },
    {
      "midi": 84,
      "hit": false,
      "t": 130684.80300000048,
      "d": 410.9585000000079,
      "v": 80
    },
    {
      "midi": 79,
      "hit": false,
      "t": 131095.7615000005,
      "d": 205.47925000000396,
      "v": 67
    },
    {
      "midi": 80,
      "hit": false,
      "t": 131301.2407500005,
      "d": 205.47925000000396,
      "v": 71
    },
    {
      "midi": 76,
      "hit": false,
      "t": 131506.7200000005,
      "d": 208.6898632812663,
      "v": 71
    },
    {
      "midi": 82,
      "hit": false,
      "t": 131506.7200000005,
      "d": 208.6898632812663,
      "v": 71
    },
    {
      "midi": 37,
      "hit": false,
      "t": 131506.7200000005,
      "d": 410.9585000000079,
      "v": 56
    },
    {
      "midi": 49,
      "hit": false,
      "t": 131506.7200000005,
      "d": 410.9585000000079,
      "v": 56
    },
    {
      "midi": 77,
      "hit": false,
      "t": 131712.1992500005,
      "d": 388.48420703125885,
      "v": 71
    },
    {
      "midi": 80,
      "hit": false,
      "t": 131712.1992500005,
      "d": 388.48420703125885,
      "v": 71
    },
    {
      "midi": 53,
      "hit": false,
      "t": 131917.6785000005,
      "d": 410.9585000000079,
      "v": 70
    },
    {
      "midi": 56,
      "hit": false,
      "t": 131917.6785000005,
      "d": 410.9585000000079,
      "v": 70
    },
    {
      "midi": 61,
      "hit": false,
      "t": 131917.6785000005,
      "d": 410.9585000000079,
      "v": 70
    },
    {
      "midi": 76,
      "hit": false,
      "t": 132123.1577500005,
      "d": 208.6898632812663,
      "v": 72
    },
    {
      "midi": 82,
      "hit": false,
      "t": 132123.1577500005,
      "d": 208.6898632812663,
      "v": 72
    },
    {
      "midi": 77,
      "hit": false,
      "t": 132328.6370000005,
      "d": 192.6367968750128,
      "v": 69
    },
    {
      "midi": 80,
      "hit": false,
      "t": 132328.6370000005,
      "d": 192.6367968750128,
      "v": 69
    },
    {
      "midi": 37,
      "hit": false,
      "t": 132328.6370000005,
      "d": 410.9585000000079,
      "v": 57
    },
    {
      "midi": 49,
      "hit": false,
      "t": 132328.6370000005,
      "d": 410.9585000000079,
      "v": 57
    },
    {
      "midi": 76,
      "hit": false,
      "t": 132534.11625000052,
      "d": 208.6898632812663,
      "v": 74
    },
    {
      "midi": 82,
      "hit": false,
      "t": 132534.11625000052,
      "d": 208.6898632812663,
      "v": 74
    },
    {
      "midi": 77,
      "hit": false,
      "t": 132739.59550000052,
      "d": 192.6367968750128,
      "v": 71
    },
    {
      "midi": 80,
      "hit": false,
      "t": 132739.59550000052,
      "d": 192.6367968750128,
      "v": 71
    },
    {
      "midi": 53,
      "hit": false,
      "t": 132739.59550000052,
      "d": 410.9585000000079,
      "v": 67
    },
    {
      "midi": 56,
      "hit": false,
      "t": 132739.59550000052,
      "d": 410.9585000000079,
      "v": 67
    },
    {
      "midi": 61,
      "hit": false,
      "t": 132739.59550000052,
      "d": 410.9585000000079,
      "v": 67
    },
    {
      "midi": 72,
      "hit": false,
      "t": 132945.07475000052,
      "d": 410.9585000000079,
      "v": 67
    },
    {
      "midi": 75,
      "hit": false,
      "t": 132945.07475000052,
      "d": 410.9585000000079,
      "v": 67
    },
    {
      "midi": 44,
      "hit": false,
      "t": 133150.55400000053,
      "d": 410.9585000000079,
      "v": 60
    },
    {
      "midi": 56,
      "hit": false,
      "t": 133150.55400000053,
      "d": 410.9585000000079,
      "v": 60
    },
    {
      "midi": 73,
      "hit": false,
      "t": 133356.03325000053,
      "d": 205.47925000000396,
      "v": 74
    },
    {
      "midi": 77,
      "hit": false,
      "t": 133356.03325000053,
      "d": 205.47925000000396,
      "v": 74
    },
    {
      "midi": 72,
      "hit": false,
      "t": 133561.51250000054,
      "d": 205.47925000000396,
      "v": 68
    },
    {
      "midi": 75,
      "hit": false,
      "t": 133561.51250000054,
      "d": 205.47925000000396,
      "v": 68
    },
    {
      "midi": 51,
      "hit": false,
      "t": 133561.51250000054,
      "d": 410.9585000000079,
      "v": 64
    },
    {
      "midi": 56,
      "hit": false,
      "t": 133561.51250000054,
      "d": 410.9585000000079,
      "v": 64
    },
    {
      "midi": 60,
      "hit": false,
      "t": 133561.51250000054,
      "d": 410.9585000000079,
      "v": 64
    },
    {
      "midi": 70,
      "hit": false,
      "t": 133766.99175000054,
      "d": 205.47925000000396,
      "v": 71
    },
    {
      "midi": 73,
      "hit": false,
      "t": 133766.99175000054,
      "d": 205.47925000000396,
      "v": 71
    },
    {
      "midi": 68,
      "hit": false,
      "t": 133972.47100000054,
      "d": 205.47925000000396,
      "v": 71
    },
    {
      "midi": 72,
      "hit": false,
      "t": 133972.47100000054,
      "d": 205.47925000000396,
      "v": 71
    },
    {
      "midi": 44,
      "hit": false,
      "t": 133972.47100000054,
      "d": 410.9585000000079,
      "v": 61
    },
    {
      "midi": 56,
      "hit": false,
      "t": 133972.47100000054,
      "d": 410.9585000000079,
      "v": 61
    },
    {
      "midi": 72,
      "hit": false,
      "t": 134177.95025000055,
      "d": 410.9585000000079,
      "v": 72
    },
    {
      "midi": 75,
      "hit": false,
      "t": 134177.95025000055,
      "d": 410.9585000000079,
      "v": 72
    },
    {
      "midi": 51,
      "hit": false,
      "t": 134383.42950000055,
      "d": 410.9585000000079,
      "v": 63
    },
    {
      "midi": 56,
      "hit": false,
      "t": 134383.42950000055,
      "d": 410.9585000000079,
      "v": 63
    },
    {
      "midi": 60,
      "hit": false,
      "t": 134383.42950000055,
      "d": 410.9585000000079,
      "v": 63
    },
    {
      "midi": 72,
      "hit": false,
      "t": 134588.90875000056,
      "d": 205.47925000000396,
      "v": 74
    },
    {
      "midi": 75,
      "hit": false,
      "t": 134588.90875000056,
      "d": 205.47925000000396,
      "v": 74
    },
    {
      "midi": 69,
      "hit": false,
      "t": 134794.38800000056,
      "d": 208.6898632812663,
      "v": 71
    },
    {
      "midi": 75,
      "hit": false,
      "t": 134794.38800000056,
      "d": 208.6898632812663,
      "v": 71
    },
    {
      "midi": 39,
      "hit": false,
      "t": 134794.38800000056,
      "d": 410.9585000000079,
      "v": 58
    },
    {
      "midi": 51,
      "hit": false,
      "t": 134794.38800000056,
      "d": 410.9585000000079,
      "v": 58
    },
    {
      "midi": 70,
      "hit": false,
      "t": 134999.86725000056,
      "d": 388.48420703125885,
      "v": 69
    },
    {
      "midi": 73,
      "hit": false,
      "t": 134999.86725000056,
      "d": 388.48420703125885,
      "v": 69
    },
    {
      "midi": 51,
      "hit": false,
      "t": 135205.34650000057,
      "d": 410.9585000000079,
      "v": 69
    },
    {
      "midi": 55,
      "hit": false,
      "t": 135205.34650000057,
      "d": 410.9585000000079,
      "v": 69
    },
    {
      "midi": 61,
      "hit": false,
      "t": 135205.34650000057,
      "d": 410.9585000000079,
      "v": 69
    },
    {
      "midi": 69,
      "hit": false,
      "t": 135410.82575000057,
      "d": 208.6898632812663,
      "v": 72
    },
    {
      "midi": 75,
      "hit": false,
      "t": 135410.82575000057,
      "d": 208.6898632812663,
      "v": 72
    },
    {
      "midi": 70,
      "hit": false,
      "t": 135616.30500000058,
      "d": 192.6367968750128,
      "v": 71
    },
    {
      "midi": 73,
      "hit": false,
      "t": 135616.30500000058,
      "d": 192.6367968750128,
      "v": 71
    },
    {
      "midi": 39,
      "hit": false,
      "t": 135616.30500000058,
      "d": 410.9585000000079,
      "v": 57
    },
    {
      "midi": 51,
      "hit": false,
      "t": 135616.30500000058,
      "d": 410.9585000000079,
      "v": 57
    },
    {
      "midi": 61,
      "hit": false,
      "t": 135821.78425000058,
      "d": 205.47925000000396,
      "v": 57
    },
    {
      "midi": 67,
      "hit": false,
      "t": 135821.78425000058,
      "d": 205.47925000000396,
      "v": 57
    },
    {
      "midi": 72,
      "hit": false,
      "t": 135821.78425000058,
      "d": 205.47925000000396,
      "v": 57
    },
    {
      "midi": 39,
      "hit": false,
      "t": 136027.26350000058,
      "d": 410.9585000000079,
      "v": 62
    },
    {
      "midi": 51,
      "hit": false,
      "t": 136027.26350000058,
      "d": 410.9585000000079,
      "v": 62
    },
    {
      "midi": 61,
      "hit": false,
      "t": 136027.26350000058,
      "d": 410.9585000000079,
      "v": 60
    },
    {
      "midi": 67,
      "hit": false,
      "t": 136027.26350000058,
      "d": 410.9585000000079,
      "v": 60
    },
    {
      "midi": 70,
      "hit": false,
      "t": 136027.26350000058,
      "d": 410.9585000000079,
      "v": 60
    },
    {
      "midi": 44,
      "hit": false,
      "t": 136438.2220000006,
      "d": 410.9585000000079,
      "v": 64
    },
    {
      "midi": 56,
      "hit": false,
      "t": 136438.2220000006,
      "d": 410.9585000000079,
      "v": 64
    },
    {
      "midi": 60,
      "hit": false,
      "t": 136438.2220000006,
      "d": 821.9170000000158,
      "v": 60
    },
    {
      "midi": 68,
      "hit": false,
      "t": 136438.2220000006,
      "d": 821.9170000000158,
      "v": 60
    },
    {
      "midi": 39,
      "hit": false,
      "t": 136849.1805000006,
      "d": 410.9585000000079,
      "v": 60
    },
    {
      "midi": 51,
      "hit": false,
      "t": 136849.1805000006,
      "d": 410.9585000000079,
      "v": 60
    },
    {
      "midi": 32,
      "hit": false,
      "t": 137260.1390000006,
      "d": 410.9585000000079,
      "v": 59
    },
    {
      "midi": 44,
      "hit": false,
      "t": 137260.1390000006,
      "d": 410.9585000000079,
      "v": 59
    },
    {
      "midi": 68,
      "hit": false,
      "t": 137260.1390000006,
      "d": 410.9585000000079,
      "v": 69
    },
    {
      "midi": 72,
      "hit": false,
      "t": 137260.1390000006,
      "d": 410.9585000000079,
      "v": 69
    },
    {
      "midi": 75,
      "hit": false,
      "t": 137260.1390000006,
      "d": 410.9585000000079,
      "v": 69
    },
    {
      "midi": 80,
      "hit": false,
      "t": 137260.1390000006,
      "d": 410.9585000000079,
      "v": 69
    },
    {
      "midi": 61,
      "hit": false,
      "t": 138082.05600000062,
      "d": 410.9585000000079,
      "v": 55
    },
    {
      "midi": 73,
      "hit": false,
      "t": 138082.05600000062,
      "d": 410.9585000000079,
      "v": 74
    },
    {
      "midi": 61,
      "hit": false,
      "t": 138493.01450000063,
      "d": 616.4377500000119,
      "v": 61
    },
    {
      "midi": 73,
      "hit": false,
      "t": 138493.01450000063,
      "d": 616.4377500000119,
      "v": 83
    },
    {
      "midi": 56,
      "hit": false,
      "t": 139109.45225000064,
      "d": 205.47925000000396,
      "v": 57
    },
    {
      "midi": 68,
      "hit": false,
      "t": 139109.45225000064,
      "d": 205.47925000000396,
      "v": 78
    },
    {
      "midi": 61,
      "hit": false,
      "t": 139314.93150000065,
      "d": 205.47925000000396,
      "v": 63
    },
    {
      "midi": 73,
      "hit": false,
      "t": 139314.93150000065,
      "d": 205.47925000000396,
      "v": 88
    },
    {
      "midi": 63,
      "hit": false,
      "t": 139520.41075000065,
      "d": 205.47925000000396,
      "v": 65
    },
    {
      "midi": 75,
      "hit": false,
      "t": 139520.41075000065,
      "d": 205.47925000000396,
      "v": 85
    },
    {
      "midi": 65,
      "hit": false,
      "t": 139725.89000000065,
      "d": 410.9585000000079,
      "v": 63
    },
    {
      "midi": 77,
      "hit": false,
      "t": 139725.89000000065,
      "d": 410.9585000000079,
      "v": 88
    },
    {
      "midi": 65,
      "hit": false,
      "t": 140136.84850000066,
      "d": 616.4377500000119,
      "v": 60
    },
    {
      "midi": 77,
      "hit": false,
      "t": 140136.84850000066,
      "d": 616.4377500000119,
      "v": 82
    },
    {
      "midi": 56,
      "hit": false,
      "t": 140753.28625000067,
      "d": 205.47925000000396,
      "v": 57
    },
    {
      "midi": 68,
      "hit": false,
      "t": 140753.28625000067,
      "d": 205.47925000000396,
      "v": 74
    },
    {
      "midi": 61,
      "hit": false,
      "t": 140958.76550000068,
      "d": 205.47925000000396,
      "v": 67
    },
    {
      "midi": 73,
      "hit": false,
      "t": 140958.76550000068,
      "d": 205.47925000000396,
      "v": 89
    },
    {
      "midi": 65,
      "hit": false,
      "t": 141164.24475000068,
      "d": 205.47925000000396,
      "v": 65
    },
    {
      "midi": 77,
      "hit": false,
      "t": 141164.24475000068,
      "d": 205.47925000000396,
      "v": 89
    },
    {
      "midi": 72,
      "hit": false,
      "t": 141369.7240000007,
      "d": 205.47925000000396,
      "v": 87
    },
    {
      "midi": 78,
      "hit": false,
      "t": 141369.7240000007,
      "d": 205.47925000000396,
      "v": 87
    },
    {
      "midi": 80,
      "hit": false,
      "t": 141369.7240000007,
      "d": 205.47925000000396,
      "v": 87
    },
    {
      "midi": 68,
      "hit": false,
      "t": 141369.7240000007,
      "d": 821.9170000000158,
      "v": 64
    },
    {
      "midi": 75,
      "hit": false,
      "t": 141575.2032500007,
      "d": 410.9585000000079,
      "v": 89
    },
    {
      "midi": 78,
      "hit": false,
      "t": 141575.2032500007,
      "d": 410.9585000000079,
      "v": 89
    },
    {
      "midi": 84,
      "hit": false,
      "t": 141575.2032500007,
      "d": 410.9585000000079,
      "v": 89
    },
    {
      "midi": 72,
      "hit": false,
      "t": 141986.1617500007,
      "d": 410.9585000000079,
      "v": 81
    },
    {
      "midi": 78,
      "hit": false,
      "t": 141986.1617500007,
      "d": 410.9585000000079,
      "v": 81
    },
    {
      "midi": 82,
      "hit": false,
      "t": 141986.1617500007,
      "d": 410.9585000000079,
      "v": 81
    },
    {
      "midi": 44,
      "hit": false,
      "t": 142191.6410000007,
      "d": 410.9585000000079,
      "v": 59
    },
    {
      "midi": 56,
      "hit": false,
      "t": 142191.6410000007,
      "d": 410.9585000000079,
      "v": 59
    },
    {
      "midi": 72,
      "hit": false,
      "t": 142397.1202500007,
      "d": 205.47925000000396,
      "v": 83
    },
    {
      "midi": 78,
      "hit": false,
      "t": 142397.1202500007,
      "d": 205.47925000000396,
      "v": 83
    },
    {
      "midi": 80,
      "hit": false,
      "t": 142397.1202500007,
      "d": 205.47925000000396,
      "v": 83
    },
    {
      "midi": 44,
      "hit": false,
      "t": 142602.5995000007,
      "d": 410.9585000000079,
      "v": 61
    },
    {
      "midi": 56,
      "hit": false,
      "t": 142602.5995000007,
      "d": 410.9585000000079,
      "v": 61
    },
    {
      "midi": 66,
      "hit": false,
      "t": 142602.5995000007,
      "d": 410.9585000000079,
      "v": 75
    },
    {
      "midi": 68,
      "hit": false,
      "t": 142602.5995000007,
      "d": 410.9585000000079,
      "v": 75
    },
    {
      "midi": 72,
      "hit": false,
      "t": 142602.5995000007,
      "d": 410.9585000000079,
      "v": 75
    },
    {
      "midi": 37,
      "hit": false,
      "t": 143013.55800000072,
      "d": 410.9585000000079,
      "v": 59
    },
    {
      "midi": 49,
      "hit": false,
      "t": 143013.55800000072,
      "d": 410.9585000000079,
      "v": 59
    },
    {
      "midi": 65,
      "hit": false,
      "t": 143013.55800000072,
      "d": 410.9585000000079,
      "v": 82
    },
    {
      "midi": 68,
      "hit": false,
      "t": 143013.55800000072,
      "d": 410.9585000000079,
      "v": 82
    },
    {
      "midi": 73,
      "hit": false,
      "t": 143013.55800000072,
      "d": 410.9585000000079,
      "v": 82
    },
    {
      "midi": 37,
      "hit": false,
      "t": 143424.51650000073,
      "d": 410.9585000000079,
      "v": 64
    },
    {
      "midi": 49,
      "hit": false,
      "t": 143424.51650000073,
      "d": 410.9585000000079,
      "v": 64
    },
    {
      "midi": 39,
      "hit": false,
      "t": 143835.47500000073,
      "d": 410.9585000000079,
      "v": 63
    },
    {
      "midi": 51,
      "hit": false,
      "t": 143835.47500000073,
      "d": 410.9585000000079,
      "v": 63
    },
    {
      "midi": 68,
      "hit": false,
      "t": 144246.43350000074,
      "d": 205.47925000000396,
      "v": 76
    },
    {
      "midi": 41,
      "hit": false,
      "t": 144246.43350000074,
      "d": 410.9585000000079,
      "v": 64
    },
    {
      "midi": 53,
      "hit": false,
      "t": 144246.43350000074,
      "d": 410.9585000000079,
      "v": 64
    },
    {
      "midi": 69,
      "hit": false,
      "t": 144451.91275000075,
      "d": 205.47925000000396,
      "v": 84
    },
    {
      "midi": 70,
      "hit": false,
      "t": 144657.39200000075,
      "d": 205.47925000000396,
      "v": 87
    },
    {
      "midi": 42,
      "hit": false,
      "t": 144657.39200000075,
      "d": 410.9585000000079,
      "v": 61
    },
    {
      "midi": 54,
      "hit": false,
      "t": 144657.39200000075,
      "d": 410.9585000000079,
      "v": 61
    },
    {
      "midi": 78,
      "hit": false,
      "t": 144862.87125000075,
      "d": 410.9585000000079,
      "v": 92
    },
    {
      "midi": 58,
      "hit": false,
      "t": 145068.35050000076,
      "d": 410.9585000000079,
      "v": 70
    },
    {
      "midi": 61,
      "hit": false,
      "t": 145068.35050000076,
      "d": 410.9585000000079,
      "v": 70
    },
    {
      "midi": 66,
      "hit": false,
      "t": 145068.35050000076,
      "d": 410.9585000000079,
      "v": 70
    },
    {
      "midi": 75,
      "hit": false,
      "t": 145273.82975000076,
      "d": 205.47925000000396,
      "v": 79
    },
    {
      "midi": 69,
      "hit": false,
      "t": 145479.30900000077,
      "d": 205.47925000000396,
      "v": 78
    },
    {
      "midi": 51,
      "hit": false,
      "t": 145479.30900000077,
      "d": 410.9585000000079,
      "v": 61
    },
    {
      "midi": 63,
      "hit": false,
      "t": 145479.30900000077,
      "d": 410.9585000000079,
      "v": 61
    },
    {
      "midi": 78,
      "hit": false,
      "t": 145684.78825000077,
      "d": 410.9585000000079,
      "v": 94
    },
    {
      "midi": 52,
      "hit": false,
      "t": 145890.26750000077,
      "d": 410.9585000000079,
      "v": 61
    },
    {
      "midi": 64,
      "hit": false,
      "t": 145890.26750000077,
      "d": 410.9585000000079,
      "v": 61
    },
    {
      "midi": 75,
      "hit": false,
      "t": 146095.74675000078,
      "d": 205.47925000000396,
      "v": 81
    },
    {
      "midi": 68,
      "hit": false,
      "t": 146301.22600000078,
      "d": 205.47925000000396,
      "v": 76
    },
    {
      "midi": 53,
      "hit": false,
      "t": 146301.22600000078,
      "d": 410.9585000000079,
      "v": 62
    },
    {
      "midi": 65,
      "hit": false,
      "t": 146301.22600000078,
      "d": 410.9585000000079,
      "v": 62
    },
    {
      "midi": 73,
      "hit": false,
      "t": 146506.70525000078,
      "d": 205.47925000000396,
      "v": 89
    },
    {
      "midi": 77,
      "hit": false,
      "t": 146712.1845000008,
      "d": 205.47925000000396,
      "v": 88
    },
    {
      "midi": 56,
      "hit": false,
      "t": 146712.1845000008,
      "d": 410.9585000000079,
      "v": 61
    },
    {
      "midi": 61,
      "hit": false,
      "t": 146712.1845000008,
      "d": 410.9585000000079,
      "v": 61
    },
    {
      "midi": 65,
      "hit": false,
      "t": 146712.1845000008,
      "d": 410.9585000000079,
      "v": 61
    },
    {
      "midi": 82,
      "hit": false,
      "t": 146917.6637500008,
      "d": 410.9585000000079,
      "v": 87
    },
    {
      "midi": 49,
      "hit": false,
      "t": 147123.1430000008,
      "d": 410.9585000000079,
      "v": 58
    },
    {
      "midi": 61,
      "hit": false,
      "t": 147123.1430000008,
      "d": 410.9585000000079,
      "v": 58
    },
    {
      "midi": 80,
      "hit": false,
      "t": 147328.6222500008,
      "d": 205.47925000000396,
      "v": 83
    },
    {
      "midi": 77,
      "hit": false,
      "t": 147534.1015000008,
      "d": 205.47925000000396,
      "v": 81
    },
    {
      "midi": 56,
      "hit": false,
      "t": 147534.1015000008,
      "d": 410.9585000000079,
      "v": 63
    },
    {
      "midi": 61,
      "hit": false,
      "t": 147534.1015000008,
      "d": 410.9585000000079,
      "v": 63
    },
    {
      "midi": 65,
      "hit": false,
      "t": 147534.1015000008,
      "d": 410.9585000000079,
      "v": 63
    },
    {
      "midi": 73,
      "hit": false,
      "t": 147739.5807500008,
      "d": 205.47925000000396,
      "v": 79
    },
    {
      "midi": 72,
      "hit": false,
      "t": 147945.0600000008,
      "d": 205.47925000000396,
      "v": 82
    },
    {
      "midi": 44,
      "hit": false,
      "t": 147945.0600000008,
      "d": 410.9585000000079,
      "v": 59
    },
    {
      "midi": 56,
      "hit": false,
      "t": 147945.0600000008,
      "d": 410.9585000000079,
      "v": 59
    },
    {
      "midi": 80,
      "hit": false,
      "t": 148150.53925000082,
      "d": 205.47925000000396,
      "v": 92
    },
    {
      "midi": 75,
      "hit": false,
      "t": 148356.01850000082,
      "d": 205.47925000000396,
      "v": 80
    },
    {
      "midi": 56,
      "hit": false,
      "t": 148356.01850000082,
      "d": 410.9585000000079,
      "v": 68
    },
    {
      "midi": 60,
      "hit": false,
      "t": 148356.01850000082,
      "d": 410.9585000000079,
      "v": 68
    },
    {
      "midi": 66,
      "hit": false,
      "t": 148356.01850000082,
      "d": 410.9585000000079,
      "v": 68
    },
    {
      "midi": 72,
      "hit": false,
      "t": 148561.49775000082,
      "d": 205.47925000000396,
      "v": 79
    },
    {
      "midi": 70,
      "hit": false,
      "t": 148766.97700000083,
      "d": 205.47925000000396,
      "v": 81
    },
    {
      "midi": 51,
      "hit": false,
      "t": 148766.97700000083,
      "d": 410.9585000000079,
      "v": 60
    },
    {
      "midi": 63,
      "hit": false,
      "t": 148766.97700000083,
      "d": 410.9585000000079,
      "v": 60
    },
    {
      "midi": 72,
      "hit": false,
      "t": 148972.45625000083,
      "d": 410.9585000000079,
      "v": 87
    },
    {
      "midi": 52,
      "hit": false,
      "t": 149177.93550000084,
      "d": 410.9585000000079,
      "v": 62
    },
    {
      "midi": 64,
      "hit": false,
      "t": 149177.93550000084,
      "d": 410.9585000000079,
      "v": 62
    },
    {
      "midi": 68,
      "hit": false,
      "t": 149383.41475000084,
      "d": 205.47925000000396,
      "v": 78
    },
    {
      "midi": 73,
      "hit": false,
      "t": 149588.89400000084,
      "d": 205.47925000000396,
      "v": 89
    },
    {
      "midi": 53,
      "hit": false,
      "t": 149588.89400000084,
      "d": 410.9585000000079,
      "v": 63
    },
    {
      "midi": 65,
      "hit": false,
      "t": 149588.89400000084,
      "d": 410.9585000000079,
      "v": 63
    },
    {
      "midi": 73,
      "hit": false,
      "t": 149794.37325000085,
      "d": 205.47925000000396,
      "v": 86
    },
    {
      "midi": 77,
      "hit": false,
      "t": 149999.85250000085,
      "d": 205.47925000000396,
      "v": 90
    },
    {
      "midi": 49,
      "hit": false,
      "t": 149999.85250000085,
      "d": 410.9585000000079,
      "v": 55
    },
    {
      "midi": 61,
      "hit": false,
      "t": 149999.85250000085,
      "d": 410.9585000000079,
      "v": 55
    },
    {
      "midi": 80,
      "hit": false,
      "t": 150205.33175000086,
      "d": 205.47925000000396,
      "v": 87
    },
    {
      "midi": 85,
      "hit": false,
      "t": 150410.81100000086,
      "d": 205.47925000000396,
      "v": 88
    },
    {
      "midi": 44,
      "hit": false,
      "t": 150410.81100000086,
      "d": 410.9585000000079,
      "v": 57
    },
    {
      "midi": 56,
      "hit": false,
      "t": 150410.81100000086,
      "d": 410.9585000000079,
      "v": 57
    },
    {
      "midi": 82,
      "hit": false,
      "t": 150616.29025000086,
      "d": 205.47925000000396,
      "v": 83
    },
    {
      "midi": 80,
      "hit": false,
      "t": 150821.76950000087,
      "d": 205.47925000000396,
      "v": 81
    },
    {
      "midi": 41,
      "hit": false,
      "t": 150821.76950000087,
      "d": 410.9585000000079,
      "v": 61
    },
    {
      "midi": 53,
      "hit": false,
      "t": 150821.76950000087,
      "d": 410.9585000000079,
      "v": 61
    },
    {
      "midi": 77,
      "hit": false,
      "t": 151027.24875000087,
      "d": 205.47925000000396,
      "v": 81
    },
    {
      "midi": 70,
      "hit": false,
      "t": 151232.72800000088,
      "d": 205.47925000000396,
      "v": 77
    },
    {
      "midi": 42,
      "hit": false,
      "t": 151232.72800000088,
      "d": 410.9585000000079,
      "v": 61
    },
    {
      "midi": 54,
      "hit": false,
      "t": 151232.72800000088,
      "d": 410.9585000000079,
      "v": 61
    },
    {
      "midi": 78,
      "hit": false,
      "t": 151438.20725000088,
      "d": 410.9585000000079,
      "v": 91
    },
    {
      "midi": 58,
      "hit": false,
      "t": 151643.68650000088,
      "d": 410.9585000000079,
      "v": 69
    },
    {
      "midi": 61,
      "hit": false,
      "t": 151643.68650000088,
      "d": 410.9585000000079,
      "v": 69
    },
    {
      "midi": 66,
      "hit": false,
      "t": 151643.68650000088,
      "d": 410.9585000000079,
      "v": 69
    },
    {
      "midi": 75,
      "hit": false,
      "t": 151849.1657500009,
      "d": 205.47925000000396,
      "v": 81
    },
    {
      "midi": 69,
      "hit": false,
      "t": 152054.6450000009,
      "d": 205.47925000000396,
      "v": 79
    },
    {
      "midi": 51,
      "hit": false,
      "t": 152054.6450000009,
      "d": 410.9585000000079,
      "v": 59
    },
    {
      "midi": 63,
      "hit": false,
      "t": 152054.6450000009,
      "d": 410.9585000000079,
      "v": 59
    },
    {
      "midi": 78,
      "hit": false,
      "t": 152260.1242500009,
      "d": 410.9585000000079,
      "v": 93
    },
    {
      "midi": 52,
      "hit": false,
      "t": 152465.6035000009,
      "d": 410.9585000000079,
      "v": 63
    },
    {
      "midi": 64,
      "hit": false,
      "t": 152465.6035000009,
      "d": 410.9585000000079,
      "v": 63
    },
    {
      "midi": 75,
      "hit": false,
      "t": 152671.0827500009,
      "d": 205.47925000000396,
      "v": 79
    },
    {
      "midi": 68,
      "hit": false,
      "t": 152876.5620000009,
      "d": 205.47925000000396,
      "v": 75
    },
    {
      "midi": 53,
      "hit": false,
      "t": 152876.5620000009,
      "d": 410.9585000000079,
      "v": 62
    },
    {
      "midi": 65,
      "hit": false,
      "t": 152876.5620000009,
      "d": 410.9585000000079,
      "v": 62
    },
    {
      "midi": 73,
      "hit": false,
      "t": 153082.0412500009,
      "d": 205.47925000000396,
      "v": 89
    },
    {
      "midi": 77,
      "hit": false,
      "t": 153287.52050000092,
      "d": 205.47925000000396,
      "v": 89
    },
    {
      "midi": 56,
      "hit": false,
      "t": 153287.52050000092,
      "d": 410.9585000000079,
      "v": 60
    },
    {
      "midi": 61,
      "hit": false,
      "t": 153287.52050000092,
      "d": 410.9585000000079,
      "v": 60
    },
    {
      "midi": 65,
      "hit": false,
      "t": 153287.52050000092,
      "d": 410.9585000000079,
      "v": 60
    },
    {
      "midi": 82,
      "hit": false,
      "t": 153492.99975000092,
      "d": 410.9585000000079,
      "v": 90
    },
    {
      "midi": 49,
      "hit": false,
      "t": 153698.47900000092,
      "d": 410.9585000000079,
      "v": 56
    },
    {
      "midi": 61,
      "hit": false,
      "t": 153698.47900000092,
      "d": 410.9585000000079,
      "v": 56
    },
    {
      "midi": 80,
      "hit": false,
      "t": 153903.95825000093,
      "d": 205.47925000000396,
      "v": 81
    },
    {
      "midi": 77,
      "hit": false,
      "t": 154109.43750000093,
      "d": 205.47925000000396,
      "v": 79
    },
    {
      "midi": 56,
      "hit": false,
      "t": 154109.43750000093,
      "d": 410.9585000000079,
      "v": 64
    },
    {
      "midi": 61,
      "hit": false,
      "t": 154109.43750000093,
      "d": 410.9585000000079,
      "v": 64
    },
    {
      "midi": 65,
      "hit": false,
      "t": 154109.43750000093,
      "d": 410.9585000000079,
      "v": 64
    },
    {
      "midi": 73,
      "hit": false,
      "t": 154314.91675000094,
      "d": 205.47925000000396,
      "v": 78
    },
    {
      "midi": 75,
      "hit": false,
      "t": 154520.39600000094,
      "d": 205.47925000000396,
      "v": 85
    },
    {
      "midi": 46,
      "hit": false,
      "t": 154520.39600000094,
      "d": 410.9585000000079,
      "v": 58
    },
    {
      "midi": 58,
      "hit": false,
      "t": 154520.39600000094,
      "d": 410.9585000000079,
      "v": 58
    },
    {
      "midi": 77,
      "hit": false,
      "t": 154725.87525000094,
      "d": 205.47925000000396,
      "v": 89
    },
    {
      "midi": 75,
      "hit": false,
      "t": 154931.35450000095,
      "d": 205.47925000000396,
      "v": 78
    },
    {
      "midi": 61,
      "hit": false,
      "t": 154931.35450000095,
      "d": 410.9585000000079,
      "v": 67
    },
    {
      "midi": 63,
      "hit": false,
      "t": 154931.35450000095,
      "d": 410.9585000000079,
      "v": 67
    },
    {
      "midi": 67,
      "hit": false,
      "t": 154931.35450000095,
      "d": 410.9585000000079,
      "v": 67
    },
    {
      "midi": 73,
      "hit": false,
      "t": 155136.83375000095,
      "d": 205.47925000000396,
      "v": 83
    },
    {
      "midi": 72,
      "hit": false,
      "t": 155342.31300000096,
      "d": 205.47925000000396,
      "v": 83
    },
    {
      "midi": 39,
      "hit": false,
      "t": 155342.31300000096,
      "d": 410.9585000000079,
      "v": 59
    },
    {
      "midi": 51,
      "hit": false,
      "t": 155342.31300000096,
      "d": 410.9585000000079,
      "v": 59
    },
    {
      "midi": 73,
      "hit": false,
      "t": 155547.79225000096,
      "d": 410.9585000000079,
      "v": 84
    },
    {
      "midi": 61,
      "hit": false,
      "t": 155753.27150000096,
      "d": 410.9585000000079,
      "v": 70
    },
    {
      "midi": 63,
      "hit": false,
      "t": 155753.27150000096,
      "d": 410.9585000000079,
      "v": 70
    },
    {
      "midi": 67,
      "hit": false,
      "t": 155753.27150000096,
      "d": 410.9585000000079,
      "v": 70
    },
    {
      "midi": 70,
      "hit": false,
      "t": 155958.75075000097,
      "d": 205.47925000000396,
      "v": 79
    },
    {
      "midi": 56,
      "hit": false,
      "t": 156164.23000000097,
      "d": 410.9585000000079,
      "v": 57
    },
    {
      "midi": 60,
      "hit": false,
      "t": 156164.23000000097,
      "d": 410.9585000000079,
      "v": 57
    },
    {
      "midi": 63,
      "hit": false,
      "t": 156164.23000000097,
      "d": 410.9585000000079,
      "v": 57
    },
    {
      "midi": 68,
      "hit": false,
      "t": 156164.23000000097,
      "d": 410.9585000000079,
      "v": 83
    },
    {
      "midi": 50,
      "hit": false,
      "t": 156575.18850000098,
      "d": 208.6898632812663,
      "v": 55
    },
    {
      "midi": 71,
      "hit": false,
      "t": 156575.18850000098,
      "d": 208.6898632812663,
      "v": 93
    },
    {
      "midi": 77,
      "hit": false,
      "t": 156575.18850000098,
      "d": 208.6898632812663,
      "v": 93
    },
    {
      "midi": 51,
      "hit": false,
      "t": 156780.66775000098,
      "d": 192.6367968750128,
      "v": 54
    },
    {
      "midi": 72,
      "hit": false,
      "t": 156780.66775000098,
      "d": 192.6367968750128,
      "v": 91
    },
    {
      "midi": 75,
      "hit": false,
      "t": 156780.66775000098,
      "d": 192.6367968750128,
      "v": 91
    },
    {
      "midi": 44,
      "hit": false,
      "t": 156986.147000001,
      "d": 410.9585000000079,
      "v": 59
    },
    {
      "midi": 72,
      "hit": false,
      "t": 156986.147000001,
      "d": 410.9585000000079,
      "v": 90
    },
    {
      "midi": 80,
      "hit": false,
      "t": 156986.147000001,
      "d": 410.9585000000079,
      "v": 90
    },
    {
      "midi": 53,
      "hit": false,
      "t": 157397.105500001,
      "d": 410.9585000000079,
      "v": 69
    },
    {
      "midi": 61,
      "hit": false,
      "t": 157397.105500001,
      "d": 410.9585000000079,
      "v": 69
    },
    {
      "midi": 68,
      "hit": false,
      "t": 157397.105500001,
      "d": 410.9585000000079,
      "v": 73
    },
    {
      "midi": 71,
      "hit": false,
      "t": 157397.105500001,
      "d": 410.9585000000079,
      "v": 73
    },
    {
      "midi": 42,
      "hit": false,
      "t": 157808.064000001,
      "d": 410.9585000000079,
      "v": 61
    },
    {
      "midi": 54,
      "hit": false,
      "t": 157808.064000001,
      "d": 410.9585000000079,
      "v": 61
    },
    {
      "midi": 70,
      "hit": false,
      "t": 157808.064000001,
      "d": 821.9170000000158,
      "v": 81
    },
    {
      "midi": 78,
      "hit": false,
      "t": 158013.543250001,
      "d": 410.9585000000079,
      "v": 88
    },
    {
      "midi": 58,
      "hit": false,
      "t": 158219.022500001,
      "d": 410.9585000000079,
      "v": 69
    },
    {
      "midi": 61,
      "hit": false,
      "t": 158219.022500001,
      "d": 410.9585000000079,
      "v": 69
    },
    {
      "midi": 66,
      "hit": false,
      "t": 158219.022500001,
      "d": 410.9585000000079,
      "v": 69
    },
    {
      "midi": 75,
      "hit": false,
      "t": 158424.501750001,
      "d": 205.47925000000396,
      "v": 77
    },
    {
      "midi": 51,
      "hit": false,
      "t": 158629.98100000102,
      "d": 410.9585000000079,
      "v": 62
    },
    {
      "midi": 63,
      "hit": false,
      "t": 158629.98100000102,
      "d": 410.9585000000079,
      "v": 62
    },
    {
      "midi": 69,
      "hit": false,
      "t": 158629.98100000102,
      "d": 821.9170000000158,
      "v": 79
    },
    {
      "midi": 78,
      "hit": false,
      "t": 158835.46025000102,
      "d": 410.9585000000079,
      "v": 88
    },
    {
      "midi": 52,
      "hit": false,
      "t": 159040.93950000103,
      "d": 410.9585000000079,
      "v": 61
    },
    {
      "midi": 64,
      "hit": false,
      "t": 159040.93950000103,
      "d": 410.9585000000079,
      "v": 61
    },
    {
      "midi": 75,
      "hit": false,
      "t": 159246.41875000103,
      "d": 205.47925000000396,
      "v": 76
    },
    {
      "midi": 53,
      "hit": false,
      "t": 159451.89800000103,
      "d": 410.9585000000079,
      "v": 63
    },
    {
      "midi": 65,
      "hit": false,
      "t": 159451.89800000103,
      "d": 410.9585000000079,
      "v": 63
    },
    {
      "midi": 68,
      "hit": false,
      "t": 159657.37725000104,
      "d": 205.47925000000396,
      "v": 80
    },
    {
      "midi": 73,
      "hit": false,
      "t": 159862.85650000104,
      "d": 205.47925000000396,
      "v": 88
    },
    {
      "midi": 56,
      "hit": false,
      "t": 159862.85650000104,
      "d": 410.9585000000079,
      "v": 60
    },
    {
      "midi": 61,
      "hit": false,
      "t": 159862.85650000104,
      "d": 410.9585000000079,
      "v": 60
    },
    {
      "midi": 65,
      "hit": false,
      "t": 159862.85650000104,
      "d": 410.9585000000079,
      "v": 60
    },
    {
      "midi": 77,
      "hit": false,
      "t": 160068.33575000105,
      "d": 205.47925000000396,
      "v": 87
    },
    {
      "midi": 82,
      "hit": false,
      "t": 160273.81500000105,
      "d": 205.47925000000396,
      "v": 92
    },
    {
      "midi": 49,
      "hit": false,
      "t": 160273.81500000105,
      "d": 410.9585000000079,
      "v": 59
    },
    {
      "midi": 61,
      "hit": false,
      "t": 160273.81500000105,
      "d": 410.9585000000079,
      "v": 59
    },
    {
      "midi": 80,
      "hit": false,
      "t": 160479.29425000105,
      "d": 205.47925000000396,
      "v": 81
    },
    {
      "midi": 77,
      "hit": false,
      "t": 160684.77350000106,
      "d": 205.47925000000396,
      "v": 82
    },
    {
      "midi": 56,
      "hit": false,
      "t": 160684.77350000106,
      "d": 410.9585000000079,
      "v": 63
    },
    {
      "midi": 61,
      "hit": false,
      "t": 160684.77350000106,
      "d": 410.9585000000079,
      "v": 63
    },
    {
      "midi": 65,
      "hit": false,
      "t": 160684.77350000106,
      "d": 410.9585000000079,
      "v": 63
    },
    {
      "midi": 73,
      "hit": false,
      "t": 160890.25275000106,
      "d": 205.47925000000396,
      "v": 79
    },
    {
      "midi": 72,
      "hit": false,
      "t": 161095.73200000107,
      "d": 205.47925000000396,
      "v": 81
    },
    {
      "midi": 44,
      "hit": false,
      "t": 161095.73200000107,
      "d": 410.9585000000079,
      "v": 58
    },
    {
      "midi": 56,
      "hit": false,
      "t": 161095.73200000107,
      "d": 410.9585000000079,
      "v": 58
    },
    {
      "midi": 80,
      "hit": false,
      "t": 161301.21125000107,
      "d": 205.47925000000396,
      "v": 90
    },
    {
      "midi": 75,
      "hit": false,
      "t": 161506.69050000107,
      "d": 205.47925000000396,
      "v": 79
    },
    {
      "midi": 56,
      "hit": false,
      "t": 161506.69050000107,
      "d": 410.9585000000079,
      "v": 70
    },
    {
      "midi": 63,
      "hit": false,
      "t": 161506.69050000107,
      "d": 410.9585000000079,
      "v": 70
    },
    {
      "midi": 66,
      "hit": false,
      "t": 161506.69050000107,
      "d": 410.9585000000079,
      "v": 70
    },
    {
      "midi": 72,
      "hit": false,
      "t": 161712.16975000108,
      "d": 205.47925000000396,
      "v": 81
    },
    {
      "midi": 70,
      "hit": false,
      "t": 161917.64900000108,
      "d": 205.47925000000396,
      "v": 82
    },
    {
      "midi": 51,
      "hit": false,
      "t": 161917.64900000108,
      "d": 410.9585000000079,
      "v": 59
    },
    {
      "midi": 63,
      "hit": false,
      "t": 161917.64900000108,
      "d": 410.9585000000079,
      "v": 59
    },
    {
      "midi": 72,
      "hit": false,
      "t": 162123.1282500011,
      "d": 410.9585000000079,
      "v": 88
    },
    {
      "midi": 52,
      "hit": false,
      "t": 162328.6075000011,
      "d": 410.9585000000079,
      "v": 63
    },
    {
      "midi": 64,
      "hit": false,
      "t": 162328.6075000011,
      "d": 410.9585000000079,
      "v": 63
    },
    {
      "midi": 68,
      "hit": false,
      "t": 162534.0867500011,
      "d": 205.47925000000396,
      "v": 79
    },
    {
      "midi": 53,
      "hit": false,
      "t": 162739.5660000011,
      "d": 410.9585000000079,
      "v": 61
    },
    {
      "midi": 65,
      "hit": false,
      "t": 162739.5660000011,
      "d": 410.9585000000079,
      "v": 61
    },
    {
      "midi": 73,
      "hit": false,
      "t": 162945.0452500011,
      "d": 205.47925000000396,
      "v": 73
    },
    {
      "midi": 77,
      "hit": false,
      "t": 163150.5245000011,
      "d": 205.47925000000396,
      "v": 89
    },
    {
      "midi": 49,
      "hit": false,
      "t": 163150.5245000011,
      "d": 410.9585000000079,
      "v": 58
    },
    {
      "midi": 61,
      "hit": false,
      "t": 163150.5245000011,
      "d": 410.9585000000079,
      "v": 58
    },
    {
      "midi": 80,
      "hit": false,
      "t": 163356.0037500011,
      "d": 205.47925000000396,
      "v": 89
    },
    {
      "midi": 85,
      "hit": false,
      "t": 163561.4830000011,
      "d": 205.47925000000396,
      "v": 89
    },
    {
      "midi": 44,
      "hit": false,
      "t": 163561.4830000011,
      "d": 410.9585000000079,
      "v": 59
    },
    {
      "midi": 56,
      "hit": false,
      "t": 163561.4830000011,
      "d": 410.9585000000079,
      "v": 59
    },
    {
      "midi": 77,
      "hit": false,
      "t": 163561.4830000011,
      "d": 410.9585000000079,
      "v": 82
    },
    {
      "midi": 82,
      "hit": false,
      "t": 163766.96225000112,
      "d": 205.47925000000396,
      "v": 82
    },
    {
      "midi": 80,
      "hit": false,
      "t": 163972.44150000112,
      "d": 205.47925000000396,
      "v": 81
    },
    {
      "midi": 41,
      "hit": false,
      "t": 163972.44150000112,
      "d": 410.9585000000079,
      "v": 61
    },
    {
      "midi": 53,
      "hit": false,
      "t": 163972.44150000112,
      "d": 410.9585000000079,
      "v": 61
    },
    {
      "midi": 71,
      "hit": false,
      "t": 163972.44150000112,
      "d": 410.9585000000079,
      "v": 71
    },
    {
      "midi": 77,
      "hit": false,
      "t": 164177.92075000113,
      "d": 205.47925000000396,
      "v": 81
    },
    {
      "midi": 42,
      "hit": false,
      "t": 164383.40000000113,
      "d": 410.9585000000079,
      "v": 62
    },
    {
      "midi": 54,
      "hit": false,
      "t": 164383.40000000113,
      "d": 410.9585000000079,
      "v": 62
    },
    {
      "midi": 70,
      "hit": false,
      "t": 164383.40000000113,
      "d": 821.9170000000158,
      "v": 76
    },
    {
      "midi": 78,
      "hit": false,
      "t": 164588.87925000113,
      "d": 410.9585000000079,
      "v": 84
    },
    {
      "midi": 46,
      "hit": false,
      "t": 164794.35850000114,
      "d": 410.9585000000079,
      "v": 62
    },
    {
      "midi": 58,
      "hit": false,
      "t": 164794.35850000114,
      "d": 410.9585000000079,
      "v": 62
    },
    {
      "midi": 75,
      "hit": false,
      "t": 164999.83775000114,
      "d": 205.47925000000396,
      "v": 76
    },
    {
      "midi": 51,
      "hit": false,
      "t": 165205.31700000115,
      "d": 410.9585000000079,
      "v": 64
    },
    {
      "midi": 63,
      "hit": false,
      "t": 165205.31700000115,
      "d": 410.9585000000079,
      "v": 64
    },
    {
      "midi": 69,
      "hit": false,
      "t": 165205.31700000115,
      "d": 821.9170000000158,
      "v": 76
    },
    {
      "midi": 78,
      "hit": false,
      "t": 165410.79625000115,
      "d": 410.9585000000079,
      "v": 82
    },
    {
      "midi": 54,
      "hit": false,
      "t": 165616.27550000115,
      "d": 410.9585000000079,
      "v": 66
    },
    {
      "midi": 66,
      "hit": false,
      "t": 165616.27550000115,
      "d": 410.9585000000079,
      "v": 66
    },
    {
      "midi": 75,
      "hit": false,
      "t": 165821.75475000116,
      "d": 205.47925000000396,
      "v": 75
    },
    {
      "midi": 53,
      "hit": false,
      "t": 166027.23400000116,
      "d": 410.9585000000079,
      "v": 60
    },
    {
      "midi": 65,
      "hit": false,
      "t": 166027.23400000116,
      "d": 410.9585000000079,
      "v": 60
    },
    {
      "midi": 68,
      "hit": false,
      "t": 166232.71325000116,
      "d": 205.47925000000396,
      "v": 75
    },
    {
      "midi": 73,
      "hit": false,
      "t": 166438.19250000117,
      "d": 205.47925000000396,
      "v": 88
    },
    {
      "midi": 49,
      "hit": false,
      "t": 166438.19250000117,
      "d": 410.9585000000079,
      "v": 57
    },
    {
      "midi": 61,
      "hit": false,
      "t": 166438.19250000117,
      "d": 410.9585000000079,
      "v": 57
    },
    {
      "midi": 77,
      "hit": false,
      "t": 166643.67175000117,
      "d": 205.47925000000396,
      "v": 87
    },
    {
      "midi": 82,
      "hit": false,
      "t": 166849.15100000118,
      "d": 205.47925000000396,
      "v": 89
    },
    {
      "midi": 44,
      "hit": false,
      "t": 166849.15100000118,
      "d": 410.9585000000079,
      "v": 58
    },
    {
      "midi": 56,
      "hit": false,
      "t": 166849.15100000118,
      "d": 410.9585000000079,
      "v": 58
    },
    {
      "midi": 80,
      "hit": false,
      "t": 167054.63025000118,
      "d": 205.47925000000396,
      "v": 79
    },
    {
      "midi": 77,
      "hit": false,
      "t": 167260.10950000118,
      "d": 205.47925000000396,
      "v": 82
    },
    {
      "midi": 49,
      "hit": false,
      "t": 167260.10950000118,
      "d": 410.9585000000079,
      "v": 64
    },
    {
      "midi": 61,
      "hit": false,
      "t": 167260.10950000118,
      "d": 410.9585000000079,
      "v": 64
    },
    {
      "midi": 68,
      "hit": false,
      "t": 167465.5887500012,
      "d": 205.47925000000396,
      "v": 74
    },
    {
      "midi": 46,
      "hit": false,
      "t": 167671.0680000012,
      "d": 410.9585000000079,
      "v": 60
    },
    {
      "midi": 58,
      "hit": false,
      "t": 167671.0680000012,
      "d": 410.9585000000079,
      "v": 60
    },
    {
      "midi": 67,
      "hit": false,
      "t": 167671.0680000012,
      "d": 821.9170000000158,
      "v": 79
    },
    {
      "midi": 70,
      "hit": false,
      "t": 167876.5472500012,
      "d": 616.4377500000119,
      "v": 85
    },
    {
      "midi": 73,
      "hit": false,
      "t": 167876.5472500012,
      "d": 616.4377500000119,
      "v": 85
    },
    {
      "midi": 39,
      "hit": false,
      "t": 168082.0265000012,
      "d": 410.9585000000079,
      "v": 58
    },
    {
      "midi": 51,
      "hit": false,
      "t": 168082.0265000012,
      "d": 410.9585000000079,
      "v": 58
    },
    {
      "midi": 66,
      "hit": false,
      "t": 168492.9850000012,
      "d": 616.4377500000119,
      "v": 76
    },
    {
      "midi": 32,
      "hit": false,
      "t": 168492.9850000012,
      "d": 821.9170000000158,
      "v": 59
    },
    {
      "midi": 44,
      "hit": false,
      "t": 168492.9850000012,
      "d": 821.9170000000158,
      "v": 59
    },
    {
      "midi": 72,
      "hit": false,
      "t": 168698.4642500012,
      "d": 410.9585000000079,
      "v": 85
    },
    {
      "midi": 75,
      "hit": false,
      "t": 168698.4642500012,
      "d": 410.9585000000079,
      "v": 85
    },
    {
      "midi": 65,
      "hit": false,
      "t": 169109.42275000122,
      "d": 616.4377500000119,
      "v": 74
    },
    {
      "midi": 73,
      "hit": false,
      "t": 169109.42275000122,
      "d": 616.4377500000119,
      "v": 80
    },
    {
      "midi": 37,
      "hit": false,
      "t": 169314.90200000122,
      "d": 410.9585000000079,
      "v": 63
    },
    {
      "midi": 49,
      "hit": false,
      "t": 169314.90200000122,
      "d": 410.9585000000079,
      "v": 63
    },
    {
      "midi": 77,
      "hit": false,
      "t": 169725.86050000123,
      "d": 205.47925000000396,
      "v": 92
    },
    {
      "midi": 49,
      "hit": false,
      "t": 169725.86050000123,
      "d": 410.9585000000079,
      "v": 70
    },
    {
      "midi": 61,
      "hit": false,
      "t": 169725.86050000123,
      "d": 410.9585000000079,
      "v": 70
    },
    {
      "midi": 73,
      "hit": false,
      "t": 169931.33975000124,
      "d": 205.47925000000396,
      "v": 78
    },
    {
      "midi": 75,
      "hit": false,
      "t": 170136.81900000124,
      "d": 205.47925000000396,
      "v": 87
    },
    {
      "midi": 44,
      "hit": false,
      "t": 170136.81900000124,
      "d": 410.9585000000079,
      "v": 59
    },
    {
      "midi": 56,
      "hit": false,
      "t": 170136.81900000124,
      "d": 410.9585000000079,
      "v": 59
    },
    {
      "midi": 77,
      "hit": false,
      "t": 170342.29825000124,
      "d": 205.47925000000396,
      "v": 87
    },
    {
      "midi": 68,
      "hit": false,
      "t": 170547.77750000125,
      "d": 205.47925000000396,
      "v": 73
    },
    {
      "midi": 41,
      "hit": false,
      "t": 170547.77750000125,
      "d": 410.9585000000079,
      "v": 63
    },
    {
      "midi": 53,
      "hit": false,
      "t": 170547.77750000125,
      "d": 410.9585000000079,
      "v": 63
    },
    {
      "midi": 69,
      "hit": false,
      "t": 170753.25675000125,
      "d": 205.47925000000396,
      "v": 85
    },
    {
      "midi": 70,
      "hit": false,
      "t": 170958.73600000126,
      "d": 205.47925000000396,
      "v": 84
    },
    {
      "midi": 42,
      "hit": false,
      "t": 170958.73600000126,
      "d": 410.9585000000079,
      "v": 62
    },
    {
      "midi": 54,
      "hit": false,
      "t": 170958.73600000126,
      "d": 410.9585000000079,
      "v": 62
    },
    {
      "midi": 78,
      "hit": false,
      "t": 171164.21525000126,
      "d": 410.9585000000079,
      "v": 94
    },
    {
      "midi": 58,
      "hit": false,
      "t": 171369.69450000126,
      "d": 410.9585000000079,
      "v": 68
    },
    {
      "midi": 61,
      "hit": false,
      "t": 171369.69450000126,
      "d": 410.9585000000079,
      "v": 68
    },
    {
      "midi": 66,
      "hit": false,
      "t": 171369.69450000126,
      "d": 410.9585000000079,
      "v": 68
    },
    {
      "midi": 75,
      "hit": false,
      "t": 171575.17375000127,
      "d": 205.47925000000396,
      "v": 79
    },
    {
      "midi": 69,
      "hit": false,
      "t": 171780.65300000127,
      "d": 205.47925000000396,
      "v": 78
    },
    {
      "midi": 51,
      "hit": false,
      "t": 171780.65300000127,
      "d": 410.9585000000079,
      "v": 61
    },
    {
      "midi": 63,
      "hit": false,
      "t": 171780.65300000127,
      "d": 410.9585000000079,
      "v": 61
    },
    {
      "midi": 78,
      "hit": false,
      "t": 171986.13225000128,
      "d": 410.9585000000079,
      "v": 94
    },
    {
      "midi": 52,
      "hit": false,
      "t": 172191.61150000128,
      "d": 410.9585000000079,
      "v": 62
    },
    {
      "midi": 64,
      "hit": false,
      "t": 172191.61150000128,
      "d": 410.9585000000079,
      "v": 62
    },
    {
      "midi": 75,
      "hit": false,
      "t": 172397.09075000128,
      "d": 205.47925000000396,
      "v": 81
    },
    {
      "midi": 68,
      "hit": false,
      "t": 172602.5700000013,
      "d": 205.47925000000396,
      "v": 78
    },
    {
      "midi": 53,
      "hit": false,
      "t": 172602.5700000013,
      "d": 410.9585000000079,
      "v": 63
    },
    {
      "midi": 65,
      "hit": false,
      "t": 172602.5700000013,
      "d": 410.9585000000079,
      "v": 63
    },
    {
      "midi": 73,
      "hit": false,
      "t": 172808.0492500013,
      "d": 205.47925000000396,
      "v": 89
    },
    {
      "midi": 77,
      "hit": false,
      "t": 173013.5285000013,
      "d": 205.47925000000396,
      "v": 89
    },
    {
      "midi": 56,
      "hit": false,
      "t": 173013.5285000013,
      "d": 410.9585000000079,
      "v": 60
    },
    {
      "midi": 61,
      "hit": false,
      "t": 173013.5285000013,
      "d": 410.9585000000079,
      "v": 60
    },
    {
      "midi": 65,
      "hit": false,
      "t": 173013.5285000013,
      "d": 410.9585000000079,
      "v": 60
    },
    {
      "midi": 82,
      "hit": false,
      "t": 173219.0077500013,
      "d": 410.9585000000079,
      "v": 91
    },
    {
      "midi": 49,
      "hit": false,
      "t": 173424.4870000013,
      "d": 410.9585000000079,
      "v": 57
    },
    {
      "midi": 61,
      "hit": false,
      "t": 173424.4870000013,
      "d": 410.9585000000079,
      "v": 57
    },
    {
      "midi": 80,
      "hit": false,
      "t": 173629.9662500013,
      "d": 205.47925000000396,
      "v": 80
    },
    {
      "midi": 77,
      "hit": false,
      "t": 173835.4455000013,
      "d": 205.47925000000396,
      "v": 82
    },
    {
      "midi": 56,
      "hit": false,
      "t": 173835.4455000013,
      "d": 410.9585000000079,
      "v": 66
    },
    {
      "midi": 61,
      "hit": false,
      "t": 173835.4455000013,
      "d": 410.9585000000079,
      "v": 66
    },
    {
      "midi": 65,
      "hit": false,
      "t": 173835.4455000013,
      "d": 410.9585000000079,
      "v": 66
    },
    {
      "midi": 73,
      "hit": false,
      "t": 174040.92475000132,
      "d": 205.47925000000396,
      "v": 79
    },
    {
      "midi": 72,
      "hit": false,
      "t": 174246.40400000132,
      "d": 205.47925000000396,
      "v": 82
    },
    {
      "midi": 44,
      "hit": false,
      "t": 174246.40400000132,
      "d": 410.9585000000079,
      "v": 57
    },
    {
      "midi": 56,
      "hit": false,
      "t": 174246.40400000132,
      "d": 410.9585000000079,
      "v": 57
    },
    {
      "midi": 80,
      "hit": false,
      "t": 174451.88325000132,
      "d": 205.47925000000396,
      "v": 89
    },
    {
      "midi": 75,
      "hit": false,
      "t": 174657.36250000133,
      "d": 205.47925000000396,
      "v": 78
    },
    {
      "midi": 56,
      "hit": false,
      "t": 174657.36250000133,
      "d": 410.9585000000079,
      "v": 67
    },
    {
      "midi": 60,
      "hit": false,
      "t": 174657.36250000133,
      "d": 410.9585000000079,
      "v": 67
    },
    {
      "midi": 66,
      "hit": false,
      "t": 174657.36250000133,
      "d": 410.9585000000079,
      "v": 67
    },
    {
      "midi": 72,
      "hit": false,
      "t": 174862.84175000133,
      "d": 205.47925000000396,
      "v": 81
    },
    {
      "midi": 70,
      "hit": false,
      "t": 175068.32100000134,
      "d": 205.47925000000396,
      "v": 81
    },
    {
      "midi": 51,
      "hit": false,
      "t": 175068.32100000134,
      "d": 410.9585000000079,
      "v": 59
    },
    {
      "midi": 63,
      "hit": false,
      "t": 175068.32100000134,
      "d": 410.9585000000079,
      "v": 59
    },
    {
      "midi": 72,
      "hit": false,
      "t": 175273.80025000134,
      "d": 410.9585000000079,
      "v": 88
    },
    {
      "midi": 52,
      "hit": false,
      "t": 175479.27950000134,
      "d": 410.9585000000079,
      "v": 62
    },
    {
      "midi": 64,
      "hit": false,
      "t": 175479.27950000134,
      "d": 410.9585000000079,
      "v": 62
    },
    {
      "midi": 68,
      "hit": false,
      "t": 175684.75875000135,
      "d": 205.47925000000396,
      "v": 78
    },
    {
      "midi": 73,
      "hit": false,
      "t": 175890.23800000135,
      "d": 205.47925000000396,
      "v": 90
    },
    {
      "midi": 53,
      "hit": false,
      "t": 175890.23800000135,
      "d": 410.9585000000079,
      "v": 62
    },
    {
      "midi": 65,
      "hit": false,
      "t": 175890.23800000135,
      "d": 410.9585000000079,
      "v": 62
    },
    {
      "midi": 73,
      "hit": false,
      "t": 176095.71725000135,
      "d": 205.47925000000396,
      "v": 84
    },
    {
      "midi": 77,
      "hit": false,
      "t": 176301.19650000136,
      "d": 205.47925000000396,
      "v": 91
    },
    {
      "midi": 49,
      "hit": false,
      "t": 176301.19650000136,
      "d": 410.9585000000079,
      "v": 57
    },
    {
      "midi": 61,
      "hit": false,
      "t": 176301.19650000136,
      "d": 410.9585000000079,
      "v": 57
    },
    {
      "midi": 80,
      "hit": false,
      "t": 176506.67575000136,
      "d": 205.47925000000396,
      "v": 85
    },
    {
      "midi": 85,
      "hit": false,
      "t": 176712.15500000137,
      "d": 205.47925000000396,
      "v": 90
    },
    {
      "midi": 44,
      "hit": false,
      "t": 176712.15500000137,
      "d": 410.9585000000079,
      "v": 59
    },
    {
      "midi": 56,
      "hit": false,
      "t": 176712.15500000137,
      "d": 410.9585000000079,
      "v": 59
    },
    {
      "midi": 82,
      "hit": false,
      "t": 176917.63425000137,
      "d": 205.47925000000396,
      "v": 80
    },
    {
      "midi": 80,
      "hit": false,
      "t": 177123.11350000137,
      "d": 205.47925000000396,
      "v": 82
    },
    {
      "midi": 41,
      "hit": false,
      "t": 177123.11350000137,
      "d": 410.9585000000079,
      "v": 60
    },
    {
      "midi": 53,
      "hit": false,
      "t": 177123.11350000137,
      "d": 410.9585000000079,
      "v": 60
    },
    {
      "midi": 77,
      "hit": false,
      "t": 177328.59275000138,
      "d": 205.47925000000396,
      "v": 81
    },
    {
      "midi": 70,
      "hit": false,
      "t": 177534.07200000138,
      "d": 205.47925000000396,
      "v": 77
    },
    {
      "midi": 42,
      "hit": false,
      "t": 177534.07200000138,
      "d": 410.9585000000079,
      "v": 62
    },
    {
      "midi": 54,
      "hit": false,
      "t": 177534.07200000138,
      "d": 410.9585000000079,
      "v": 62
    },
    {
      "midi": 78,
      "hit": false,
      "t": 177739.5512500014,
      "d": 410.9585000000079,
      "v": 94
    },
    {
      "midi": 58,
      "hit": false,
      "t": 177945.0305000014,
      "d": 410.9585000000079,
      "v": 70
    },
    {
      "midi": 61,
      "hit": false,
      "t": 177945.0305000014,
      "d": 410.9585000000079,
      "v": 70
    },
    {
      "midi": 66,
      "hit": false,
      "t": 177945.0305000014,
      "d": 410.9585000000079,
      "v": 70
    },
    {
      "midi": 75,
      "hit": false,
      "t": 178150.5097500014,
      "d": 205.47925000000396,
      "v": 81
    },
    {
      "midi": 69,
      "hit": false,
      "t": 178355.9890000014,
      "d": 205.47925000000396,
      "v": 75
    },
    {
      "midi": 51,
      "hit": false,
      "t": 178355.9890000014,
      "d": 410.9585000000079,
      "v": 57
    },
    {
      "midi": 63,
      "hit": false,
      "t": 178355.9890000014,
      "d": 410.9585000000079,
      "v": 57
    },
    {
      "midi": 78,
      "hit": false,
      "t": 178561.4682500014,
      "d": 410.9585000000079,
      "v": 92
    },
    {
      "midi": 52,
      "hit": false,
      "t": 178766.9475000014,
      "d": 410.9585000000079,
      "v": 63
    },
    {
      "midi": 64,
      "hit": false,
      "t": 178766.9475000014,
      "d": 410.9585000000079,
      "v": 63
    },
    {
      "midi": 75,
      "hit": false,
      "t": 178972.4267500014,
      "d": 205.47925000000396,
      "v": 82
    },
    {
      "midi": 68,
      "hit": false,
      "t": 179177.9060000014,
      "d": 205.47925000000396,
      "v": 75
    },
    {
      "midi": 53,
      "hit": false,
      "t": 179177.9060000014,
      "d": 410.9585000000079,
      "v": 63
    },
    {
      "midi": 65,
      "hit": false,
      "t": 179177.9060000014,
      "d": 410.9585000000079,
      "v": 63
    },
    {
      "midi": 73,
      "hit": false,
      "t": 179383.38525000142,
      "d": 205.47925000000396,
      "v": 90
    },
    {
      "midi": 77,
      "hit": false,
      "t": 179588.86450000142,
      "d": 205.47925000000396,
      "v": 90
    },
    {
      "midi": 56,
      "hit": false,
      "t": 179588.86450000142,
      "d": 410.9585000000079,
      "v": 59
    },
    {
      "midi": 61,
      "hit": false,
      "t": 179588.86450000142,
      "d": 410.9585000000079,
      "v": 59
    },
    {
      "midi": 65,
      "hit": false,
      "t": 179588.86450000142,
      "d": 410.9585000000079,
      "v": 59
    },
    {
      "midi": 82,
      "hit": false,
      "t": 179794.34375000143,
      "d": 410.9585000000079,
      "v": 88
    },
    {
      "midi": 49,
      "hit": false,
      "t": 179999.82300000143,
      "d": 410.9585000000079,
      "v": 59
    },
    {
      "midi": 61,
      "hit": false,
      "t": 179999.82300000143,
      "d": 410.9585000000079,
      "v": 59
    },
    {
      "midi": 80,
      "hit": false,
      "t": 180205.30225000143,
      "d": 205.47925000000396,
      "v": 81
    },
    {
      "midi": 77,
      "hit": false,
      "t": 180410.78150000144,
      "d": 205.47925000000396,
      "v": 81
    },
    {
      "midi": 56,
      "hit": false,
      "t": 180410.78150000144,
      "d": 410.9585000000079,
      "v": 63
    },
    {
      "midi": 61,
      "hit": false,
      "t": 180410.78150000144,
      "d": 410.9585000000079,
      "v": 63
    },
    {
      "midi": 65,
      "hit": false,
      "t": 180410.78150000144,
      "d": 410.9585000000079,
      "v": 63
    },
    {
      "midi": 73,
      "hit": false,
      "t": 180616.26075000144,
      "d": 205.47925000000396,
      "v": 79
    },
    {
      "midi": 75,
      "hit": false,
      "t": 180821.74000000145,
      "d": 205.47925000000396,
      "v": 86
    },
    {
      "midi": 46,
      "hit": false,
      "t": 180821.74000000145,
      "d": 410.9585000000079,
      "v": 60
    },
    {
      "midi": 58,
      "hit": false,
      "t": 180821.74000000145,
      "d": 410.9585000000079,
      "v": 60
    },
    {
      "midi": 77,
      "hit": false,
      "t": 181027.21925000145,
      "d": 205.47925000000396,
      "v": 87
    },
    {
      "midi": 75,
      "hit": false,
      "t": 181232.69850000145,
      "d": 205.47925000000396,
      "v": 83
    },
    {
      "midi": 61,
      "hit": false,
      "t": 181232.69850000145,
      "d": 410.9585000000079,
      "v": 66
    },
    {
      "midi": 63,
      "hit": false,
      "t": 181232.69850000145,
      "d": 410.9585000000079,
      "v": 66
    },
    {
      "midi": 67,
      "hit": false,
      "t": 181232.69850000145,
      "d": 410.9585000000079,
      "v": 66
    },
    {
      "midi": 73,
      "hit": false,
      "t": 181438.17775000146,
      "d": 205.47925000000396,
      "v": 81
    },
    {
      "midi": 72,
      "hit": false,
      "t": 181643.65700000146,
      "d": 205.47925000000396,
      "v": 80
    },
    {
      "midi": 39,
      "hit": false,
      "t": 181643.65700000146,
      "d": 410.9585000000079,
      "v": 58
    },
    {
      "midi": 51,
      "hit": false,
      "t": 181643.65700000146,
      "d": 410.9585000000079,
      "v": 58
    },
    {
      "midi": 73,
      "hit": false,
      "t": 181849.13625000147,
      "d": 410.9585000000079,
      "v": 87
    },
    {
      "midi": 61,
      "hit": false,
      "t": 182054.61550000147,
      "d": 410.9585000000079,
      "v": 68
    },
    {
      "midi": 63,
      "hit": false,
      "t": 182054.61550000147,
      "d": 410.9585000000079,
      "v": 68
    },
    {
      "midi": 67,
      "hit": false,
      "t": 182054.61550000147,
      "d": 410.9585000000079,
      "v": 68
    },
    {
      "midi": 70,
      "hit": false,
      "t": 182260.09475000147,
      "d": 205.47925000000396,
      "v": 77
    },
    {
      "midi": 56,
      "hit": false,
      "t": 182465.57400000148,
      "d": 410.9585000000079,
      "v": 57
    },
    {
      "midi": 60,
      "hit": false,
      "t": 182465.57400000148,
      "d": 410.9585000000079,
      "v": 57
    },
    {
      "midi": 63,
      "hit": false,
      "t": 182465.57400000148,
      "d": 410.9585000000079,
      "v": 57
    },
    {
      "midi": 68,
      "hit": false,
      "t": 182465.57400000148,
      "d": 410.9585000000079,
      "v": 82
    },
    {
      "midi": 50,
      "hit": false,
      "t": 182876.5325000015,
      "d": 208.6898632812663,
      "v": 58
    },
    {
      "midi": 71,
      "hit": false,
      "t": 182876.5325000015,
      "d": 208.6898632812663,
      "v": 92
    },
    {
      "midi": 77,
      "hit": false,
      "t": 182876.5325000015,
      "d": 208.6898632812663,
      "v": 92
    },
    {
      "midi": 51,
      "hit": false,
      "t": 183082.0117500015,
      "d": 192.6367968750128,
      "v": 59
    },
    {
      "midi": 72,
      "hit": false,
      "t": 183082.0117500015,
      "d": 192.6367968750128,
      "v": 90
    },
    {
      "midi": 75,
      "hit": false,
      "t": 183082.0117500015,
      "d": 192.6367968750128,
      "v": 90
    },
    {
      "midi": 44,
      "hit": false,
      "t": 183287.4910000015,
      "d": 410.9585000000079,
      "v": 60
    },
    {
      "midi": 72,
      "hit": false,
      "t": 183287.4910000015,
      "d": 410.9585000000079,
      "v": 89
    },
    {
      "midi": 80,
      "hit": false,
      "t": 183287.4910000015,
      "d": 410.9585000000079,
      "v": 89
    },
    {
      "midi": 53,
      "hit": false,
      "t": 183698.4495000015,
      "d": 410.9585000000079,
      "v": 69
    },
    {
      "midi": 61,
      "hit": false,
      "t": 183698.4495000015,
      "d": 410.9585000000079,
      "v": 69
    },
    {
      "midi": 68,
      "hit": false,
      "t": 183698.4495000015,
      "d": 410.9585000000079,
      "v": 75
    },
    {
      "midi": 71,
      "hit": false,
      "t": 183698.4495000015,
      "d": 410.9585000000079,
      "v": 75
    },
    {
      "midi": 42,
      "hit": false,
      "t": 184109.4080000015,
      "d": 410.9585000000079,
      "v": 60
    },
    {
      "midi": 54,
      "hit": false,
      "t": 184109.4080000015,
      "d": 410.9585000000079,
      "v": 60
    },
    {
      "midi": 70,
      "hit": false,
      "t": 184109.4080000015,
      "d": 821.9170000000158,
      "v": 84
    },
    {
      "midi": 78,
      "hit": false,
      "t": 184314.8872500015,
      "d": 410.9585000000079,
      "v": 92
    },
    {
      "midi": 58,
      "hit": false,
      "t": 184520.36650000152,
      "d": 410.9585000000079,
      "v": 69
    },
    {
      "midi": 61,
      "hit": false,
      "t": 184520.36650000152,
      "d": 410.9585000000079,
      "v": 69
    },
    {
      "midi": 66,
      "hit": false,
      "t": 184520.36650000152,
      "d": 410.9585000000079,
      "v": 69
    },
    {
      "midi": 75,
      "hit": false,
      "t": 184725.84575000152,
      "d": 205.47925000000396,
      "v": 82
    },
    {
      "midi": 51,
      "hit": false,
      "t": 184931.32500000153,
      "d": 410.9585000000079,
      "v": 60
    },
    {
      "midi": 63,
      "hit": false,
      "t": 184931.32500000153,
      "d": 410.9585000000079,
      "v": 60
    },
    {
      "midi": 69,
      "hit": false,
      "t": 184931.32500000153,
      "d": 821.9170000000158,
      "v": 76
    },
    {
      "midi": 78,
      "hit": false,
      "t": 185136.80425000153,
      "d": 410.9585000000079,
      "v": 81
    },
    {
      "midi": 52,
      "hit": false,
      "t": 185342.28350000153,
      "d": 410.9585000000079,
      "v": 63
    },
    {
      "midi": 64,
      "hit": false,
      "t": 185342.28350000153,
      "d": 410.9585000000079,
      "v": 63
    },
    {
      "midi": 75,
      "hit": false,
      "t": 185547.76275000154,
      "d": 205.47925000000396,
      "v": 76
    },
    {
      "midi": 53,
      "hit": false,
      "t": 185753.24200000154,
      "d": 410.9585000000079,
      "v": 62
    },
    {
      "midi": 65,
      "hit": false,
      "t": 185753.24200000154,
      "d": 410.9585000000079,
      "v": 62
    },
    {
      "midi": 68,
      "hit": false,
      "t": 185958.72125000154,
      "d": 205.47925000000396,
      "v": 76
    },
    {
      "midi": 73,
      "hit": false,
      "t": 186164.20050000155,
      "d": 205.47925000000396,
      "v": 88
    },
    {
      "midi": 56,
      "hit": false,
      "t": 186164.20050000155,
      "d": 410.9585000000079,
      "v": 60
    },
    {
      "midi": 61,
      "hit": false,
      "t": 186164.20050000155,
      "d": 410.9585000000079,
      "v": 60
    },
    {
      "midi": 65,
      "hit": false,
      "t": 186164.20050000155,
      "d": 410.9585000000079,
      "v": 60
    },
    {
      "midi": 77,
      "hit": false,
      "t": 186369.67975000155,
      "d": 205.47925000000396,
      "v": 88
    },
    {
      "midi": 82,
      "hit": false,
      "t": 186575.15900000156,
      "d": 205.47925000000396,
      "v": 87
    },
    {
      "midi": 49,
      "hit": false,
      "t": 186575.15900000156,
      "d": 410.9585000000079,
      "v": 58
    },
    {
      "midi": 61,
      "hit": false,
      "t": 186575.15900000156,
      "d": 410.9585000000079,
      "v": 58
    },
    {
      "midi": 80,
      "hit": false,
      "t": 186780.63825000156,
      "d": 205.47925000000396,
      "v": 81
    },
    {
      "midi": 77,
      "hit": false,
      "t": 186986.11750000156,
      "d": 205.47925000000396,
      "v": 80
    },
    {
      "midi": 56,
      "hit": false,
      "t": 186986.11750000156,
      "d": 410.9585000000079,
      "v": 66
    },
    {
      "midi": 61,
      "hit": false,
      "t": 186986.11750000156,
      "d": 410.9585000000079,
      "v": 66
    },
    {
      "midi": 65,
      "hit": false,
      "t": 186986.11750000156,
      "d": 410.9585000000079,
      "v": 66
    },
    {
      "midi": 73,
      "hit": false,
      "t": 187191.59675000157,
      "d": 205.47925000000396,
      "v": 78
    },
    {
      "midi": 72,
      "hit": false,
      "t": 187397.07600000157,
      "d": 205.47925000000396,
      "v": 82
    },
    {
      "midi": 44,
      "hit": false,
      "t": 187397.07600000157,
      "d": 410.9585000000079,
      "v": 59
    },
    {
      "midi": 56,
      "hit": false,
      "t": 187397.07600000157,
      "d": 410.9585000000079,
      "v": 59
    },
    {
      "midi": 80,
      "hit": false,
      "t": 187602.55525000158,
      "d": 205.47925000000396,
      "v": 92
    },
    {
      "midi": 75,
      "hit": false,
      "t": 187808.03450000158,
      "d": 205.47925000000396,
      "v": 78
    },
    {
      "midi": 56,
      "hit": false,
      "t": 187808.03450000158,
      "d": 410.9585000000079,
      "v": 67
    },
    {
      "midi": 63,
      "hit": false,
      "t": 187808.03450000158,
      "d": 410.9585000000079,
      "v": 67
    },
    {
      "midi": 66,
      "hit": false,
      "t": 187808.03450000158,
      "d": 410.9585000000079,
      "v": 67
    },
    {
      "midi": 72,
      "hit": false,
      "t": 188013.51375000158,
      "d": 205.47925000000396,
      "v": 80
    },
    {
      "midi": 70,
      "hit": false,
      "t": 188218.9930000016,
      "d": 205.47925000000396,
      "v": 83
    },
    {
      "midi": 51,
      "hit": false,
      "t": 188218.9930000016,
      "d": 410.9585000000079,
      "v": 61
    },
    {
      "midi": 63,
      "hit": false,
      "t": 188218.9930000016,
      "d": 410.9585000000079,
      "v": 61
    },
    {
      "midi": 72,
      "hit": false,
      "t": 188424.4722500016,
      "d": 410.9585000000079,
      "v": 86
    },
    {
      "midi": 52,
      "hit": false,
      "t": 188629.9515000016,
      "d": 410.9585000000079,
      "v": 62
    },
    {
      "midi": 64,
      "hit": false,
      "t": 188629.9515000016,
      "d": 410.9585000000079,
      "v": 62
    },
    {
      "midi": 68,
      "hit": false,
      "t": 188835.4307500016,
      "d": 205.47925000000396,
      "v": 80
    },
    {
      "midi": 53,
      "hit": false,
      "t": 189040.9100000016,
      "d": 410.9585000000079,
      "v": 63
    },
    {
      "midi": 65,
      "hit": false,
      "t": 189040.9100000016,
      "d": 410.9585000000079,
      "v": 63
    },
    {
      "midi": 73,
      "hit": false,
      "t": 189246.3892500016,
      "d": 205.47925000000396,
      "v": 75
    },
    {
      "midi": 77,
      "hit": false,
      "t": 189451.8685000016,
      "d": 205.47925000000396,
      "v": 87
    },
    {
      "midi": 49,
      "hit": false,
      "t": 189451.8685000016,
      "d": 410.9585000000079,
      "v": 54
    },
    {
      "midi": 61,
      "hit": false,
      "t": 189451.8685000016,
      "d": 410.9585000000079,
      "v": 54
    },
    {
      "midi": 80,
      "hit": false,
      "t": 189657.34775000162,
      "d": 205.47925000000396,
      "v": 90
    },
    {
      "midi": 85,
      "hit": false,
      "t": 189862.82700000162,
      "d": 205.47925000000396,
      "v": 91
    },
    {
      "midi": 44,
      "hit": false,
      "t": 189862.82700000162,
      "d": 410.9585000000079,
      "v": 61
    },
    {
      "midi": 56,
      "hit": false,
      "t": 189862.82700000162,
      "d": 410.9585000000079,
      "v": 61
    },
    {
      "midi": 77,
      "hit": false,
      "t": 189862.82700000162,
      "d": 410.9585000000079,
      "v": 83
    },
    {
      "midi": 82,
      "hit": false,
      "t": 190068.30625000162,
      "d": 205.47925000000396,
      "v": 80
    },
    {
      "midi": 80,
      "hit": false,
      "t": 190273.78550000163,
      "d": 205.47925000000396,
      "v": 80
    },
    {
      "midi": 41,
      "hit": false,
      "t": 190273.78550000163,
      "d": 410.9585000000079,
      "v": 59
    },
    {
      "midi": 53,
      "hit": false,
      "t": 190273.78550000163,
      "d": 410.9585000000079,
      "v": 59
    },
    {
      "midi": 71,
      "hit": false,
      "t": 190273.78550000163,
      "d": 410.9585000000079,
      "v": 70
    },
    {
      "midi": 77,
      "hit": false,
      "t": 190479.26475000163,
      "d": 205.47925000000396,
      "v": 80
    },
    {
      "midi": 42,
      "hit": false,
      "t": 190684.74400000164,
      "d": 410.9585000000079,
      "v": 62
    },
    {
      "midi": 54,
      "hit": false,
      "t": 190684.74400000164,
      "d": 410.9585000000079,
      "v": 62
    },
    {
      "midi": 70,
      "hit": false,
      "t": 190684.74400000164,
      "d": 821.9170000000158,
      "v": 76
    },
    {
      "midi": 78,
      "hit": false,
      "t": 190890.22325000164,
      "d": 410.9585000000079,
      "v": 81
    },
    {
      "midi": 46,
      "hit": false,
      "t": 191095.70250000164,
      "d": 410.9585000000079,
      "v": 63
    },
    {
      "midi": 58,
      "hit": false,
      "t": 191095.70250000164,
      "d": 410.9585000000079,
      "v": 63
    },
    {
      "midi": 75,
      "hit": false,
      "t": 191301.18175000165,
      "d": 205.47925000000396,
      "v": 72
    },
    {
      "midi": 51,
      "hit": false,
      "t": 191506.66100000165,
      "d": 410.9585000000079,
      "v": 66
    },
    {
      "midi": 63,
      "hit": false,
      "t": 191506.66100000165,
      "d": 410.9585000000079,
      "v": 66
    },
    {
      "midi": 69,
      "hit": false,
      "t": 191506.66100000165,
      "d": 821.9170000000158,
      "v": 79
    },
    {
      "midi": 78,
      "hit": false,
      "t": 191712.14025000166,
      "d": 410.9585000000079,
      "v": 90
    },
    {
      "midi": 54,
      "hit": false,
      "t": 191917.61950000166,
      "d": 410.9585000000079,
      "v": 64
    },
    {
      "midi": 66,
      "hit": false,
      "t": 191917.61950000166,
      "d": 410.9585000000079,
      "v": 64
    },
    {
      "midi": 75,
      "hit": false,
      "t": 192123.09875000166,
      "d": 205.47925000000396,
      "v": 77
    },
    {
      "midi": 53,
      "hit": false,
      "t": 192328.57800000167,
      "d": 410.9585000000079,
      "v": 60
    },
    {
      "midi": 65,
      "hit": false,
      "t": 192328.57800000167,
      "d": 410.9585000000079,
      "v": 60
    },
    {
      "midi": 68,
      "hit": false,
      "t": 192534.05725000167,
      "d": 205.47925000000396,
      "v": 74
    },
    {
      "midi": 73,
      "hit": false,
      "t": 192739.53650000168,
      "d": 205.47925000000396,
      "v": 88
    },
    {
      "midi": 49,
      "hit": false,
      "t": 192739.53650000168,
      "d": 410.9585000000079,
      "v": 58
    },
    {
      "midi": 61,
      "hit": false,
      "t": 192739.53650000168,
      "d": 410.9585000000079,
      "v": 58
    },
    {
      "midi": 77,
      "hit": false,
      "t": 192945.01575000168,
      "d": 205.47925000000396,
      "v": 91
    },
    {
      "midi": 82,
      "hit": false,
      "t": 193150.49500000168,
      "d": 205.47925000000396,
      "v": 88
    },
    {
      "midi": 44,
      "hit": false,
      "t": 193150.49500000168,
      "d": 410.9585000000079,
      "v": 58
    },
    {
      "midi": 56,
      "hit": false,
      "t": 193150.49500000168,
      "d": 410.9585000000079,
      "v": 58
    },
    {
      "midi": 80,
      "hit": false,
      "t": 193355.9742500017,
      "d": 205.47925000000396,
      "v": 82
    },
    {
      "midi": 77,
      "hit": false,
      "t": 193561.4535000017,
      "d": 205.47925000000396,
      "v": 81
    },
    {
      "midi": 49,
      "hit": false,
      "t": 193561.4535000017,
      "d": 410.9585000000079,
      "v": 66
    },
    {
      "midi": 61,
      "hit": false,
      "t": 193561.4535000017,
      "d": 410.9585000000079,
      "v": 66
    },
    {
      "midi": 68,
      "hit": false,
      "t": 193766.9327500017,
      "d": 205.47925000000396,
      "v": 75
    },
    {
      "midi": 46,
      "hit": false,
      "t": 193972.4120000017,
      "d": 410.9585000000079,
      "v": 61
    },
    {
      "midi": 58,
      "hit": false,
      "t": 193972.4120000017,
      "d": 410.9585000000079,
      "v": 61
    },
    {
      "midi": 67,
      "hit": false,
      "t": 193972.4120000017,
      "d": 821.9170000000158,
      "v": 80
    },
    {
      "midi": 70,
      "hit": false,
      "t": 194177.8912500017,
      "d": 616.4377500000119,
      "v": 85
    },
    {
      "midi": 73,
      "hit": false,
      "t": 194177.8912500017,
      "d": 616.4377500000119,
      "v": 85
    },
    {
      "midi": 39,
      "hit": false,
      "t": 194383.3705000017,
      "d": 410.9585000000079,
      "v": 59
    },
    {
      "midi": 51,
      "hit": false,
      "t": 194383.3705000017,
      "d": 410.9585000000079,
      "v": 59
    },
    {
      "midi": 66,
      "hit": false,
      "t": 194794.32900000172,
      "d": 616.4377500000119,
      "v": 75
    },
    {
      "midi": 32,
      "hit": false,
      "t": 194794.32900000172,
      "d": 821.9170000000158,
      "v": 60
    },
    {
      "midi": 44,
      "hit": false,
      "t": 194794.32900000172,
      "d": 821.9170000000158,
      "v": 60
    },
    {
      "midi": 72,
      "hit": false,
      "t": 194999.80825000172,
      "d": 410.9585000000079,
      "v": 84
    },
    {
      "midi": 75,
      "hit": false,
      "t": 194999.80825000172,
      "d": 410.9585000000079,
      "v": 84
    },
    {
      "midi": 65,
      "hit": false,
      "t": 195410.76675000173,
      "d": 1232.8755000000237,
      "v": 74
    },
    {
      "midi": 73,
      "hit": false,
      "t": 195410.76675000173,
      "d": 1232.8755000000237,
      "v": 80
    },
    {
      "midi": 37,
      "hit": false,
      "t": 195616.24600000173,
      "d": 410.9585000000079,
      "v": 62
    },
    {
      "midi": 49,
      "hit": false,
      "t": 195616.24600000173,
      "d": 410.9585000000079,
      "v": 62
    },
    {
      "midi": 44,
      "hit": false,
      "t": 196027.20450000174,
      "d": 410.9585000000079,
      "v": 56
    },
    {
      "midi": 37,
      "hit": false,
      "t": 196438.16300000175,
      "d": 410.9585000000079,
      "v": 60
    },
    {
      "midi": 68,
      "hit": false,
      "t": 196643.64225000175,
      "d": 205.47925000000396,
      "v": 89
    },
    {
      "midi": 80,
      "hit": false,
      "t": 196643.64225000175,
      "d": 205.47925000000396,
      "v": 89
    },
    {
      "midi": 70,
      "hit": false,
      "t": 196849.12150000175,
      "d": 205.47925000000396,
      "v": 87
    },
    {
      "midi": 82,
      "hit": false,
      "t": 196849.12150000175,
      "d": 205.47925000000396,
      "v": 87
    },
    {
      "midi": 71,
      "hit": false,
      "t": 197054.60075000176,
      "d": 205.47925000000396,
      "v": 86
    },
    {
      "midi": 83,
      "hit": false,
      "t": 197054.60075000176,
      "d": 205.47925000000396,
      "v": 86
    },
    {
      "midi": 51,
      "hit": false,
      "t": 197260.08000000176,
      "d": 410.9585000000079,
      "v": 53
    },
    {
      "midi": 63,
      "hit": false,
      "t": 197260.08000000176,
      "d": 410.9585000000079,
      "v": 53
    },
    {
      "midi": 72,
      "hit": false,
      "t": 197260.08000000176,
      "d": 410.9585000000079,
      "v": 86
    },
    {
      "midi": 78,
      "hit": false,
      "t": 197260.08000000176,
      "d": 410.9585000000079,
      "v": 86
    },
    {
      "midi": 84,
      "hit": false,
      "t": 197260.08000000176,
      "d": 410.9585000000079,
      "v": 86
    },
    {
      "midi": 68,
      "hit": false,
      "t": 197671.03850000177,
      "d": 205.47925000000396,
      "v": 81
    },
    {
      "midi": 80,
      "hit": false,
      "t": 197671.03850000177,
      "d": 205.47925000000396,
      "v": 81
    },
    {
      "midi": 56,
      "hit": false,
      "t": 197671.03850000177,
      "d": 410.9585000000079,
      "v": 62
    },
    {
      "midi": 60,
      "hit": false,
      "t": 197671.03850000177,
      "d": 410.9585000000079,
      "v": 62
    },
    {
      "midi": 66,
      "hit": false,
      "t": 197671.03850000177,
      "d": 410.9585000000079,
      "v": 62
    },
    {
      "midi": 70,
      "hit": false,
      "t": 197876.51775000177,
      "d": 1027.3962500000198,
      "v": 88
    },
    {
      "midi": 78,
      "hit": false,
      "t": 197876.51775000177,
      "d": 1027.3962500000198,
      "v": 88
    },
    {
      "midi": 82,
      "hit": false,
      "t": 197876.51775000177,
      "d": 1027.3962500000198,
      "v": 88
    },
    {
      "midi": 44,
      "hit": false,
      "t": 198081.99700000178,
      "d": 410.9585000000079,
      "v": 57
    },
    {
      "midi": 56,
      "hit": false,
      "t": 198081.99700000178,
      "d": 410.9585000000079,
      "v": 57
    },
    {
      "midi": 56,
      "hit": false,
      "t": 198492.9555000018,
      "d": 410.9585000000079,
      "v": 70
    },
    {
      "midi": 60,
      "hit": false,
      "t": 198492.9555000018,
      "d": 410.9585000000079,
      "v": 70
    },
    {
      "midi": 66,
      "hit": false,
      "t": 198492.9555000018,
      "d": 410.9585000000079,
      "v": 70
    },
    {
      "midi": 39,
      "hit": false,
      "t": 198903.9140000018,
      "d": 410.9585000000079,
      "v": 56
    },
    {
      "midi": 51,
      "hit": false,
      "t": 198903.9140000018,
      "d": 410.9585000000079,
      "v": 56
    },
    {
      "midi": 72,
      "hit": false,
      "t": 198903.9140000018,
      "d": 410.9585000000079,
      "v": 88
    },
    {
      "midi": 78,
      "hit": false,
      "t": 198903.9140000018,
      "d": 410.9585000000079,
      "v": 88
    },
    {
      "midi": 84,
      "hit": false,
      "t": 198903.9140000018,
      "d": 410.9585000000079,
      "v": 88
    },
    {
      "midi": 68,
      "hit": false,
      "t": 199314.8725000018,
      "d": 205.47925000000396,
      "v": 78
    },
    {
      "midi": 80,
      "hit": false,
      "t": 199314.8725000018,
      "d": 205.47925000000396,
      "v": 78
    },
    {
      "midi": 56,
      "hit": false,
      "t": 199314.8725000018,
      "d": 410.9585000000079,
      "v": 68
    },
    {
      "midi": 60,
      "hit": false,
      "t": 199314.8725000018,
      "d": 410.9585000000079,
      "v": 68
    },
    {
      "midi": 66,
      "hit": false,
      "t": 199314.8725000018,
      "d": 410.9585000000079,
      "v": 68
    },
    {
      "midi": 70,
      "hit": false,
      "t": 199520.3517500018,
      "d": 410.9585000000079,
      "v": 86
    },
    {
      "midi": 78,
      "hit": false,
      "t": 199520.3517500018,
      "d": 410.9585000000079,
      "v": 86
    },
    {
      "midi": 82,
      "hit": false,
      "t": 199520.3517500018,
      "d": 410.9585000000079,
      "v": 86
    },
    {
      "midi": 39,
      "hit": false,
      "t": 199725.8310000018,
      "d": 205.47925000000396,
      "v": 60
    },
    {
      "midi": 51,
      "hit": false,
      "t": 199725.8310000018,
      "d": 205.47925000000396,
      "v": 60
    },
    {
      "midi": 44,
      "hit": false,
      "t": 199931.3102500018,
      "d": 205.47925000000396,
      "v": 63
    },
    {
      "midi": 56,
      "hit": false,
      "t": 199931.3102500018,
      "d": 205.47925000000396,
      "v": 63
    },
    {
      "midi": 68,
      "hit": false,
      "t": 199931.3102500018,
      "d": 205.47925000000396,
      "v": 81
    },
    {
      "midi": 80,
      "hit": false,
      "t": 199931.3102500018,
      "d": 205.47925000000396,
      "v": 81
    },
    {
      "midi": 43,
      "hit": false,
      "t": 200136.78950000182,
      "d": 205.47925000000396,
      "v": 60
    },
    {
      "midi": 55,
      "hit": false,
      "t": 200136.78950000182,
      "d": 205.47925000000396,
      "v": 60
    },
    {
      "midi": 70,
      "hit": false,
      "t": 200136.78950000182,
      "d": 205.47925000000396,
      "v": 87
    },
    {
      "midi": 82,
      "hit": false,
      "t": 200136.78950000182,
      "d": 205.47925000000396,
      "v": 87
    },
    {
      "midi": 42,
      "hit": false,
      "t": 200342.26875000182,
      "d": 205.47925000000396,
      "v": 63
    },
    {
      "midi": 54,
      "hit": false,
      "t": 200342.26875000182,
      "d": 205.47925000000396,
      "v": 63
    },
    {
      "midi": 72,
      "hit": false,
      "t": 200342.26875000182,
      "d": 205.47925000000396,
      "v": 84
    },
    {
      "midi": 84,
      "hit": false,
      "t": 200342.26875000182,
      "d": 205.47925000000396,
      "v": 84
    },
    {
      "midi": 41,
      "hit": false,
      "t": 200547.74800000183,
      "d": 410.9585000000079,
      "v": 58
    },
    {
      "midi": 53,
      "hit": false,
      "t": 200547.74800000183,
      "d": 410.9585000000079,
      "v": 58
    },
    {
      "midi": 73,
      "hit": false,
      "t": 200547.74800000183,
      "d": 410.9585000000079,
      "v": 87
    },
    {
      "midi": 77,
      "hit": false,
      "t": 200547.74800000183,
      "d": 410.9585000000079,
      "v": 87
    },
    {
      "midi": 85,
      "hit": false,
      "t": 200547.74800000183,
      "d": 410.9585000000079,
      "v": 87
    },
    {
      "midi": 68,
      "hit": false,
      "t": 200958.70650000183,
      "d": 205.47925000000396,
      "v": 78
    },
    {
      "midi": 77,
      "hit": false,
      "t": 200958.70650000183,
      "d": 205.47925000000396,
      "v": 78
    },
    {
      "midi": 80,
      "hit": false,
      "t": 200958.70650000183,
      "d": 205.47925000000396,
      "v": 78
    },
    {
      "midi": 56,
      "hit": false,
      "t": 200958.70650000183,
      "d": 410.9585000000079,
      "v": 70
    },
    {
      "midi": 61,
      "hit": false,
      "t": 200958.70650000183,
      "d": 410.9585000000079,
      "v": 70
    },
    {
      "midi": 65,
      "hit": false,
      "t": 200958.70650000183,
      "d": 410.9585000000079,
      "v": 70
    },
    {
      "midi": 70,
      "hit": false,
      "t": 201164.18575000184,
      "d": 1027.3962500000198,
      "v": 87
    },
    {
      "midi": 77,
      "hit": false,
      "t": 201164.18575000184,
      "d": 1027.3962500000198,
      "v": 87
    },
    {
      "midi": 82,
      "hit": false,
      "t": 201164.18575000184,
      "d": 1027.3962500000198,
      "v": 87
    },
    {
      "midi": 49,
      "hit": false,
      "t": 201369.66500000184,
      "d": 410.9585000000079,
      "v": 60
    },
    {
      "midi": 61,
      "hit": false,
      "t": 201369.66500000184,
      "d": 410.9585000000079,
      "v": 60
    },
    {
      "midi": 56,
      "hit": false,
      "t": 201780.62350000185,
      "d": 410.9585000000079,
      "v": 64
    },
    {
      "midi": 61,
      "hit": false,
      "t": 201780.62350000185,
      "d": 410.9585000000079,
      "v": 64
    },
    {
      "midi": 65,
      "hit": false,
      "t": 201780.62350000185,
      "d": 410.9585000000079,
      "v": 64
    },
    {
      "midi": 44,
      "hit": false,
      "t": 202191.58200000186,
      "d": 410.9585000000079,
      "v": 55
    },
    {
      "midi": 56,
      "hit": false,
      "t": 202191.58200000186,
      "d": 410.9585000000079,
      "v": 55
    },
    {
      "midi": 73,
      "hit": false,
      "t": 202191.58200000186,
      "d": 410.9585000000079,
      "v": 87
    },
    {
      "midi": 77,
      "hit": false,
      "t": 202191.58200000186,
      "d": 410.9585000000079,
      "v": 87
    },
    {
      "midi": 85,
      "hit": false,
      "t": 202191.58200000186,
      "d": 410.9585000000079,
      "v": 87
    },
    {
      "midi": 68,
      "hit": false,
      "t": 202602.54050000187,
      "d": 205.47925000000396,
      "v": 78
    },
    {
      "midi": 77,
      "hit": false,
      "t": 202602.54050000187,
      "d": 205.47925000000396,
      "v": 78
    },
    {
      "midi": 80,
      "hit": false,
      "t": 202602.54050000187,
      "d": 205.47925000000396,
      "v": 78
    },
    {
      "midi": 56,
      "hit": false,
      "t": 202602.54050000187,
      "d": 410.9585000000079,
      "v": 67
    },
    {
      "midi": 61,
      "hit": false,
      "t": 202602.54050000187,
      "d": 410.9585000000079,
      "v": 67
    },
    {
      "midi": 65,
      "hit": false,
      "t": 202602.54050000187,
      "d": 410.9585000000079,
      "v": 67
    },
    {
      "midi": 70,
      "hit": false,
      "t": 202808.01975000187,
      "d": 1027.3962500000198,
      "v": 86
    },
    {
      "midi": 77,
      "hit": false,
      "t": 202808.01975000187,
      "d": 1027.3962500000198,
      "v": 86
    },
    {
      "midi": 82,
      "hit": false,
      "t": 202808.01975000187,
      "d": 1027.3962500000198,
      "v": 86
    },
    {
      "midi": 49,
      "hit": false,
      "t": 203013.49900000187,
      "d": 410.9585000000079,
      "v": 57
    },
    {
      "midi": 61,
      "hit": false,
      "t": 203013.49900000187,
      "d": 410.9585000000079,
      "v": 57
    },
    {
      "midi": 50,
      "hit": false,
      "t": 203424.45750000188,
      "d": 410.9585000000079,
      "v": 62
    },
    {
      "midi": 62,
      "hit": false,
      "t": 203424.45750000188,
      "d": 410.9585000000079,
      "v": 62
    },
    {
      "midi": 51,
      "hit": false,
      "t": 203835.4160000019,
      "d": 410.9585000000079,
      "v": 62
    },
    {
      "midi": 63,
      "hit": false,
      "t": 203835.4160000019,
      "d": 410.9585000000079,
      "v": 62
    },
    {
      "midi": 82,
      "hit": false,
      "t": 204246.3745000019,
      "d": 205.47925000000396,
      "v": 90
    },
    {
      "midi": 56,
      "hit": false,
      "t": 204246.3745000019,
      "d": 410.9585000000079,
      "v": 65
    },
    {
      "midi": 60,
      "hit": false,
      "t": 204246.3745000019,
      "d": 410.9585000000079,
      "v": 65
    },
    {
      "midi": 66,
      "hit": false,
      "t": 204246.3745000019,
      "d": 410.9585000000079,
      "v": 65
    },
    {
      "midi": 72,
      "hit": false,
      "t": 204451.8537500019,
      "d": 1027.3962500000198,
      "v": 94
    },
    {
      "midi": 78,
      "hit": false,
      "t": 204451.8537500019,
      "d": 1027.3962500000198,
      "v": 94
    },
    {
      "midi": 80,
      "hit": false,
      "t": 204451.8537500019,
      "d": 1027.3962500000198,
      "v": 94
    },
    {
      "midi": 44,
      "hit": false,
      "t": 204657.3330000019,
      "d": 410.9585000000079,
      "v": 57
    },
    {
      "midi": 56,
      "hit": false,
      "t": 204657.3330000019,
      "d": 410.9585000000079,
      "v": 57
    },
    {
      "midi": 56,
      "hit": false,
      "t": 205068.2915000019,
      "d": 410.9585000000079,
      "v": 68
    },
    {
      "midi": 60,
      "hit": false,
      "t": 205068.2915000019,
      "d": 410.9585000000079,
      "v": 68
    },
    {
      "midi": 66,
      "hit": false,
      "t": 205068.2915000019,
      "d": 410.9585000000079,
      "v": 68
    },
    {
      "midi": 48,
      "hit": false,
      "t": 205479.25000000192,
      "d": 410.9585000000079,
      "v": 55
    },
    {
      "midi": 60,
      "hit": false,
      "t": 205479.25000000192,
      "d": 410.9585000000079,
      "v": 55
    },
    {
      "midi": 82,
      "hit": false,
      "t": 205890.20850000193,
      "d": 205.47925000000396,
      "v": 88
    },
    {
      "midi": 56,
      "hit": false,
      "t": 205890.20850000193,
      "d": 410.9585000000079,
      "v": 66
    },
    {
      "midi": 60,
      "hit": false,
      "t": 205890.20850000193,
      "d": 410.9585000000079,
      "v": 66
    },
    {
      "midi": 66,
      "hit": false,
      "t": 205890.20850000193,
      "d": 410.9585000000079,
      "v": 66
    },
    {
      "midi": 72,
      "hit": false,
      "t": 206095.68775000193,
      "d": 1027.3962500000198,
      "v": 92
    },
    {
      "midi": 78,
      "hit": false,
      "t": 206095.68775000193,
      "d": 1027.3962500000198,
      "v": 92
    },
    {
      "midi": 80,
      "hit": false,
      "t": 206095.68775000193,
      "d": 1027.3962500000198,
      "v": 92
    },
    {
      "midi": 44,
      "hit": false,
      "t": 206301.16700000194,
      "d": 410.9585000000079,
      "v": 58
    },
    {
      "midi": 56,
      "hit": false,
      "t": 206301.16700000194,
      "d": 410.9585000000079,
      "v": 58
    },
    {
      "midi": 56,
      "hit": false,
      "t": 206712.12550000194,
      "d": 410.9585000000079,
      "v": 68
    },
    {
      "midi": 60,
      "hit": false,
      "t": 206712.12550000194,
      "d": 410.9585000000079,
      "v": 68
    },
    {
      "midi": 66,
      "hit": false,
      "t": 206712.12550000194,
      "d": 410.9585000000079,
      "v": 68
    },
    {
      "midi": 49,
      "hit": false,
      "t": 207123.08400000195,
      "d": 410.9585000000079,
      "v": 56
    },
    {
      "midi": 61,
      "hit": false,
      "t": 207123.08400000195,
      "d": 410.9585000000079,
      "v": 56
    },
    {
      "midi": 82,
      "hit": false,
      "t": 207534.04250000196,
      "d": 205.47925000000396,
      "v": 89
    },
    {
      "midi": 56,
      "hit": false,
      "t": 207534.04250000196,
      "d": 410.9585000000079,
      "v": 64
    },
    {
      "midi": 61,
      "hit": false,
      "t": 207534.04250000196,
      "d": 410.9585000000079,
      "v": 64
    },
    {
      "midi": 65,
      "hit": false,
      "t": 207534.04250000196,
      "d": 410.9585000000079,
      "v": 64
    },
    {
      "midi": 73,
      "hit": false,
      "t": 207739.52175000196,
      "d": 1027.3962500000198,
      "v": 91
    },
    {
      "midi": 77,
      "hit": false,
      "t": 207739.52175000196,
      "d": 1027.3962500000198,
      "v": 91
    },
    {
      "midi": 80,
      "hit": false,
      "t": 207739.52175000196,
      "d": 1027.3962500000198,
      "v": 91
    },
    {
      "midi": 44,
      "hit": false,
      "t": 207945.00100000197,
      "d": 410.9585000000079,
      "v": 59
    },
    {
      "midi": 56,
      "hit": false,
      "t": 207945.00100000197,
      "d": 410.9585000000079,
      "v": 59
    },
    {
      "midi": 56,
      "hit": false,
      "t": 208355.95950000198,
      "d": 410.9585000000079,
      "v": 70
    },
    {
      "midi": 61,
      "hit": false,
      "t": 208355.95950000198,
      "d": 410.9585000000079,
      "v": 70
    },
    {
      "midi": 65,
      "hit": false,
      "t": 208355.95950000198,
      "d": 410.9585000000079,
      "v": 70
    },
    {
      "midi": 49,
      "hit": false,
      "t": 208766.91800000198,
      "d": 410.9585000000079,
      "v": 59
    },
    {
      "midi": 61,
      "hit": false,
      "t": 208766.91800000198,
      "d": 410.9585000000079,
      "v": 59
    },
    {
      "midi": 82,
      "hit": false,
      "t": 209177.876500002,
      "d": 205.47925000000396,
      "v": 89
    },
    {
      "midi": 56,
      "hit": false,
      "t": 209177.876500002,
      "d": 410.9585000000079,
      "v": 67
    },
    {
      "midi": 61,
      "hit": false,
      "t": 209177.876500002,
      "d": 410.9585000000079,
      "v": 67
    },
    {
      "midi": 65,
      "hit": false,
      "t": 209177.876500002,
      "d": 410.9585000000079,
      "v": 67
    },
    {
      "midi": 73,
      "hit": false,
      "t": 209383.355750002,
      "d": 410.9585000000079,
      "v": 96
    },
    {
      "midi": 77,
      "hit": false,
      "t": 209383.355750002,
      "d": 410.9585000000079,
      "v": 96
    },
    {
      "midi": 80,
      "hit": false,
      "t": 209383.355750002,
      "d": 410.9585000000079,
      "v": 96
    },
    {
      "midi": 53,
      "hit": false,
      "t": 209588.835000002,
      "d": 410.9585000000079,
      "v": 62
    },
    {
      "midi": 65,
      "hit": false,
      "t": 209588.835000002,
      "d": 410.9585000000079,
      "v": 62
    },
    {
      "midi": 68,
      "hit": false,
      "t": 209794.314250002,
      "d": 205.47925000000396,
      "v": 85
    },
    {
      "midi": 80,
      "hit": false,
      "t": 209794.314250002,
      "d": 205.47925000000396,
      "v": 85
    },
    {
      "midi": 70,
      "hit": false,
      "t": 209999.793500002,
      "d": 205.47925000000396,
      "v": 85
    },
    {
      "midi": 82,
      "hit": false,
      "t": 209999.793500002,
      "d": 205.47925000000396,
      "v": 85
    },
    {
      "midi": 52,
      "hit": false,
      "t": 209999.793500002,
      "d": 410.9585000000079,
      "v": 60
    },
    {
      "midi": 64,
      "hit": false,
      "t": 209999.793500002,
      "d": 410.9585000000079,
      "v": 60
    },
    {
      "midi": 71,
      "hit": false,
      "t": 210205.272750002,
      "d": 205.47925000000396,
      "v": 86
    },
    {
      "midi": 83,
      "hit": false,
      "t": 210205.272750002,
      "d": 205.47925000000396,
      "v": 86
    },
    {
      "midi": 51,
      "hit": false,
      "t": 210410.75200000202,
      "d": 410.9585000000079,
      "v": 61
    },
    {
      "midi": 63,
      "hit": false,
      "t": 210410.75200000202,
      "d": 410.9585000000079,
      "v": 61
    },
    {
      "midi": 72,
      "hit": false,
      "t": 210410.75200000202,
      "d": 410.9585000000079,
      "v": 87
    },
    {
      "midi": 78,
      "hit": false,
      "t": 210410.75200000202,
      "d": 410.9585000000079,
      "v": 87
    },
    {
      "midi": 84,
      "hit": false,
      "t": 210410.75200000202,
      "d": 410.9585000000079,
      "v": 87
    },
    {
      "midi": 68,
      "hit": false,
      "t": 210821.71050000202,
      "d": 205.47925000000396,
      "v": 80
    },
    {
      "midi": 80,
      "hit": false,
      "t": 210821.71050000202,
      "d": 205.47925000000396,
      "v": 80
    },
    {
      "midi": 56,
      "hit": false,
      "t": 210821.71050000202,
      "d": 410.9585000000079,
      "v": 61
    },
    {
      "midi": 60,
      "hit": false,
      "t": 210821.71050000202,
      "d": 410.9585000000079,
      "v": 61
    },
    {
      "midi": 66,
      "hit": false,
      "t": 210821.71050000202,
      "d": 410.9585000000079,
      "v": 61
    },
    {
      "midi": 70,
      "hit": false,
      "t": 211027.18975000203,
      "d": 1027.3962500000198,
      "v": 89
    },
    {
      "midi": 78,
      "hit": false,
      "t": 211027.18975000203,
      "d": 1027.3962500000198,
      "v": 89
    },
    {
      "midi": 82,
      "hit": false,
      "t": 211027.18975000203,
      "d": 1027.3962500000198,
      "v": 89
    },
    {
      "midi": 44,
      "hit": false,
      "t": 211232.66900000203,
      "d": 410.9585000000079,
      "v": 56
    },
    {
      "midi": 56,
      "hit": false,
      "t": 211232.66900000203,
      "d": 410.9585000000079,
      "v": 56
    },
    {
      "midi": 56,
      "hit": false,
      "t": 211643.62750000204,
      "d": 410.9585000000079,
      "v": 69
    },
    {
      "midi": 60,
      "hit": false,
      "t": 211643.62750000204,
      "d": 410.9585000000079,
      "v": 69
    },
    {
      "midi": 66,
      "hit": false,
      "t": 211643.62750000204,
      "d": 410.9585000000079,
      "v": 69
    },
    {
      "midi": 39,
      "hit": false,
      "t": 212054.58600000205,
      "d": 410.9585000000079,
      "v": 58
    },
    {
      "midi": 51,
      "hit": false,
      "t": 212054.58600000205,
      "d": 410.9585000000079,
      "v": 58
    },
    {
      "midi": 72,
      "hit": false,
      "t": 212054.58600000205,
      "d": 410.9585000000079,
      "v": 86
    },
    {
      "midi": 78,
      "hit": false,
      "t": 212054.58600000205,
      "d": 410.9585000000079,
      "v": 86
    },
    {
      "midi": 84,
      "hit": false,
      "t": 212054.58600000205,
      "d": 410.9585000000079,
      "v": 86
    },
    {
      "midi": 68,
      "hit": false,
      "t": 212465.54450000206,
      "d": 205.47925000000396,
      "v": 77
    },
    {
      "midi": 80,
      "hit": false,
      "t": 212465.54450000206,
      "d": 205.47925000000396,
      "v": 77
    },
    {
      "midi": 56,
      "hit": false,
      "t": 212465.54450000206,
      "d": 410.9585000000079,
      "v": 70
    },
    {
      "midi": 60,
      "hit": false,
      "t": 212465.54450000206,
      "d": 410.9585000000079,
      "v": 70
    },
    {
      "midi": 66,
      "hit": false,
      "t": 212465.54450000206,
      "d": 410.9585000000079,
      "v": 70
    },
    {
      "midi": 70,
      "hit": false,
      "t": 212671.02375000206,
      "d": 410.9585000000079,
      "v": 85
    },
    {
      "midi": 78,
      "hit": false,
      "t": 212671.02375000206,
      "d": 410.9585000000079,
      "v": 85
    },
    {
      "midi": 82,
      "hit": false,
      "t": 212671.02375000206,
      "d": 410.9585000000079,
      "v": 85
    },
    {
      "midi": 39,
      "hit": false,
      "t": 212876.50300000206,
      "d": 205.47925000000396,
      "v": 58
    },
    {
      "midi": 51,
      "hit": false,
      "t": 212876.50300000206,
      "d": 205.47925000000396,
      "v": 58
    },
    {
      "midi": 44,
      "hit": false,
      "t": 213081.98225000207,
      "d": 205.47925000000396,
      "v": 64
    },
    {
      "midi": 56,
      "hit": false,
      "t": 213081.98225000207,
      "d": 205.47925000000396,
      "v": 64
    },
    {
      "midi": 68,
      "hit": false,
      "t": 213081.98225000207,
      "d": 205.47925000000396,
      "v": 82
    },
    {
      "midi": 80,
      "hit": false,
      "t": 213081.98225000207,
      "d": 205.47925000000396,
      "v": 82
    },
    {
      "midi": 43,
      "hit": false,
      "t": 213287.46150000207,
      "d": 205.47925000000396,
      "v": 61
    },
    {
      "midi": 55,
      "hit": false,
      "t": 213287.46150000207,
      "d": 205.47925000000396,
      "v": 61
    },
    {
      "midi": 70,
      "hit": false,
      "t": 213287.46150000207,
      "d": 205.47925000000396,
      "v": 86
    },
    {
      "midi": 82,
      "hit": false,
      "t": 213287.46150000207,
      "d": 205.47925000000396,
      "v": 86
    },
    {
      "midi": 42,
      "hit": false,
      "t": 213492.94075000208,
      "d": 205.47925000000396,
      "v": 59
    },
    {
      "midi": 54,
      "hit": false,
      "t": 213492.94075000208,
      "d": 205.47925000000396,
      "v": 59
    },
    {
      "midi": 72,
      "hit": false,
      "t": 213492.94075000208,
      "d": 205.47925000000396,
      "v": 84
    },
    {
      "midi": 84,
      "hit": false,
      "t": 213492.94075000208,
      "d": 205.47925000000396,
      "v": 84
    },
    {
      "midi": 41,
      "hit": false,
      "t": 213698.42000000208,
      "d": 410.9585000000079,
      "v": 61
    },
    {
      "midi": 53,
      "hit": false,
      "t": 213698.42000000208,
      "d": 410.9585000000079,
      "v": 61
    },
    {
      "midi": 73,
      "hit": false,
      "t": 213698.42000000208,
      "d": 410.9585000000079,
      "v": 85
    },
    {
      "midi": 77,
      "hit": false,
      "t": 213698.42000000208,
      "d": 410.9585000000079,
      "v": 85
    },
    {
      "midi": 85,
      "hit": false,
      "t": 213698.42000000208,
      "d": 410.9585000000079,
      "v": 85
    },
    {
      "midi": 68,
      "hit": false,
      "t": 214109.3785000021,
      "d": 205.47925000000396,
      "v": 77
    },
    {
      "midi": 77,
      "hit": false,
      "t": 214109.3785000021,
      "d": 205.47925000000396,
      "v": 77
    },
    {
      "midi": 80,
      "hit": false,
      "t": 214109.3785000021,
      "d": 205.47925000000396,
      "v": 77
    },
    {
      "midi": 56,
      "hit": false,
      "t": 214109.3785000021,
      "d": 410.9585000000079,
      "v": 68
    },
    {
      "midi": 61,
      "hit": false,
      "t": 214109.3785000021,
      "d": 410.9585000000079,
      "v": 68
    },
    {
      "midi": 65,
      "hit": false,
      "t": 214109.3785000021,
      "d": 410.9585000000079,
      "v": 68
    },
    {
      "midi": 70,
      "hit": false,
      "t": 214314.8577500021,
      "d": 1027.3962500000198,
      "v": 84
    },
    {
      "midi": 77,
      "hit": false,
      "t": 214314.8577500021,
      "d": 1027.3962500000198,
      "v": 84
    },
    {
      "midi": 82,
      "hit": false,
      "t": 214314.8577500021,
      "d": 1027.3962500000198,
      "v": 84
    },
    {
      "midi": 49,
      "hit": false,
      "t": 214520.3370000021,
      "d": 410.9585000000079,
      "v": 57
    },
    {
      "midi": 61,
      "hit": false,
      "t": 214520.3370000021,
      "d": 410.9585000000079,
      "v": 57
    },
    {
      "midi": 56,
      "hit": false,
      "t": 214931.2955000021,
      "d": 410.9585000000079,
      "v": 64
    },
    {
      "midi": 61,
      "hit": false,
      "t": 214931.2955000021,
      "d": 410.9585000000079,
      "v": 64
    },
    {
      "midi": 65,
      "hit": false,
      "t": 214931.2955000021,
      "d": 410.9585000000079,
      "v": 64
    },
    {
      "midi": 53,
      "hit": false,
      "t": 215342.2540000021,
      "d": 410.9585000000079,
      "v": 61
    },
    {
      "midi": 65,
      "hit": false,
      "t": 215342.2540000021,
      "d": 410.9585000000079,
      "v": 61
    },
    {
      "midi": 73,
      "hit": false,
      "t": 215547.73325000211,
      "d": 205.47925000000396,
      "v": 76
    },
    {
      "midi": 77,
      "hit": false,
      "t": 215753.21250000212,
      "d": 205.47925000000396,
      "v": 87
    },
    {
      "midi": 49,
      "hit": false,
      "t": 215753.21250000212,
      "d": 410.9585000000079,
      "v": 60
    },
    {
      "midi": 61,
      "hit": false,
      "t": 215753.21250000212,
      "d": 410.9585000000079,
      "v": 60
    },
    {
      "midi": 80,
      "hit": false,
      "t": 215958.69175000212,
      "d": 205.47925000000396,
      "v": 87
    },
    {
      "midi": 85,
      "hit": false,
      "t": 216164.17100000213,
      "d": 205.47925000000396,
      "v": 88
    },
    {
      "midi": 44,
      "hit": false,
      "t": 216164.17100000213,
      "d": 410.9585000000079,
      "v": 60
    },
    {
      "midi": 56,
      "hit": false,
      "t": 216164.17100000213,
      "d": 410.9585000000079,
      "v": 60
    },
    {
      "midi": 77,
      "hit": false,
      "t": 216164.17100000213,
      "d": 410.9585000000079,
      "v": 87
    },
    {
      "midi": 82,
      "hit": false,
      "t": 216369.65025000213,
      "d": 205.47925000000396,
      "v": 81
    },
    {
      "midi": 80,
      "hit": false,
      "t": 216575.12950000213,
      "d": 205.47925000000396,
      "v": 83
    },
    {
      "midi": 41,
      "hit": false,
      "t": 216575.12950000213,
      "d": 410.9585000000079,
      "v": 61
    },
    {
      "midi": 53,
      "hit": false,
      "t": 216575.12950000213,
      "d": 410.9585000000079,
      "v": 61
    },
    {
      "midi": 71,
      "hit": false,
      "t": 216575.12950000213,
      "d": 410.9585000000079,
      "v": 70
    },
    {
      "midi": 77,
      "hit": false,
      "t": 216780.60875000214,
      "d": 205.47925000000396,
      "v": 80
    },
    {
      "midi": 42,
      "hit": false,
      "t": 216986.08800000214,
      "d": 410.9585000000079,
      "v": 61
    },
    {
      "midi": 54,
      "hit": false,
      "t": 216986.08800000214,
      "d": 410.9585000000079,
      "v": 61
    },
    {
      "midi": 70,
      "hit": false,
      "t": 216986.08800000214,
      "d": 821.9170000000158,
      "v": 75
    },
    {
      "midi": 78,
      "hit": false,
      "t": 217191.56725000215,
      "d": 410.9585000000079,
      "v": 81
    },
    {
      "midi": 46,
      "hit": false,
      "t": 217397.04650000215,
      "d": 410.9585000000079,
      "v": 62
    },
    {
      "midi": 58,
      "hit": false,
      "t": 217397.04650000215,
      "d": 410.9585000000079,
      "v": 62
    },
    {
      "midi": 75,
      "hit": false,
      "t": 217602.52575000215,
      "d": 205.47925000000396,
      "v": 72
    },
    {
      "midi": 51,
      "hit": false,
      "t": 217808.00500000216,
      "d": 410.9585000000079,
      "v": 65
    },
    {
      "midi": 63,
      "hit": false,
      "t": 217808.00500000216,
      "d": 410.9585000000079,
      "v": 65
    },
    {
      "midi": 69,
      "hit": false,
      "t": 217808.00500000216,
      "d": 821.9170000000158,
      "v": 76
    },
    {
      "midi": 78,
      "hit": false,
      "t": 218013.48425000216,
      "d": 410.9585000000079,
      "v": 85
    },
    {
      "midi": 54,
      "hit": false,
      "t": 218218.96350000217,
      "d": 410.9585000000079,
      "v": 64
    },
    {
      "midi": 66,
      "hit": false,
      "t": 218218.96350000217,
      "d": 410.9585000000079,
      "v": 64
    },
    {
      "midi": 75,
      "hit": false,
      "t": 218424.44275000217,
      "d": 205.47925000000396,
      "v": 73
    },
    {
      "midi": 53,
      "hit": false,
      "t": 218629.92200000217,
      "d": 410.9585000000079,
      "v": 61
    },
    {
      "midi": 65,
      "hit": false,
      "t": 218629.92200000217,
      "d": 410.9585000000079,
      "v": 61
    },
    {
      "midi": 68,
      "hit": false,
      "t": 218835.40125000218,
      "d": 205.47925000000396,
      "v": 78
    },
    {
      "midi": 73,
      "hit": false,
      "t": 219040.88050000218,
      "d": 205.47925000000396,
      "v": 90
    },
    {
      "midi": 49,
      "hit": false,
      "t": 219040.88050000218,
      "d": 410.9585000000079,
      "v": 59
    },
    {
      "midi": 61,
      "hit": false,
      "t": 219040.88050000218,
      "d": 410.9585000000079,
      "v": 59
    },
    {
      "midi": 77,
      "hit": false,
      "t": 219246.3597500022,
      "d": 205.47925000000396,
      "v": 87
    },
    {
      "midi": 82,
      "hit": false,
      "t": 219451.8390000022,
      "d": 205.47925000000396,
      "v": 90
    },
    {
      "midi": 44,
      "hit": false,
      "t": 219451.8390000022,
      "d": 410.9585000000079,
      "v": 59
    },
    {
      "midi": 56,
      "hit": false,
      "t": 219451.8390000022,
      "d": 410.9585000000079,
      "v": 59
    },
    {
      "midi": 80,
      "hit": false,
      "t": 219657.3182500022,
      "d": 205.47925000000396,
      "v": 83
    },
    {
      "midi": 77,
      "hit": false,
      "t": 219862.7975000022,
      "d": 205.47925000000396,
      "v": 82
    },
    {
      "midi": 49,
      "hit": false,
      "t": 219862.7975000022,
      "d": 410.9585000000079,
      "v": 65
    },
    {
      "midi": 61,
      "hit": false,
      "t": 219862.7975000022,
      "d": 410.9585000000079,
      "v": 65
    },
    {
      "midi": 68,
      "hit": false,
      "t": 220068.2767500022,
      "d": 205.47925000000396,
      "v": 74
    },
    {
      "midi": 46,
      "hit": false,
      "t": 220273.7560000022,
      "d": 410.9585000000079,
      "v": 61
    },
    {
      "midi": 58,
      "hit": false,
      "t": 220273.7560000022,
      "d": 410.9585000000079,
      "v": 61
    },
    {
      "midi": 67,
      "hit": false,
      "t": 220273.7560000022,
      "d": 821.9170000000158,
      "v": 79
    },
    {
      "midi": 70,
      "hit": false,
      "t": 220479.2352500022,
      "d": 616.4377500000119,
      "v": 88
    },
    {
      "midi": 73,
      "hit": false,
      "t": 220479.2352500022,
      "d": 616.4377500000119,
      "v": 88
    },
    {
      "midi": 39,
      "hit": false,
      "t": 220684.7145000022,
      "d": 410.9585000000079,
      "v": 59
    },
    {
      "midi": 51,
      "hit": false,
      "t": 220684.7145000022,
      "d": 410.9585000000079,
      "v": 59
    },
    {
      "midi": 66,
      "hit": false,
      "t": 221095.67300000222,
      "d": 616.4377500000119,
      "v": 78
    },
    {
      "midi": 32,
      "hit": false,
      "t": 221095.67300000222,
      "d": 821.9170000000158,
      "v": 60
    },
    {
      "midi": 44,
      "hit": false,
      "t": 221095.67300000222,
      "d": 821.9170000000158,
      "v": 60
    },
    {
      "midi": 72,
      "hit": false,
      "t": 221301.15225000223,
      "d": 410.9585000000079,
      "v": 87
    },
    {
      "midi": 75,
      "hit": false,
      "t": 221301.15225000223,
      "d": 410.9585000000079,
      "v": 87
    },
    {
      "midi": 73,
      "hit": false,
      "t": 221712.11075000223,
      "d": 1232.8755000000237,
      "v": 82
    },
    {
      "midi": 37,
      "hit": false,
      "t": 221917.59000000224,
      "d": 410.9585000000079,
      "v": 62
    },
    {
      "midi": 49,
      "hit": false,
      "t": 221917.59000000224,
      "d": 410.9585000000079,
      "v": 62
    },
    {
      "midi": 44,
      "hit": false,
      "t": 222328.54850000225,
      "d": 410.9585000000079,
      "v": 64
    },
    {
      "midi": 56,
      "hit": false,
      "t": 222328.54850000225,
      "d": 410.9585000000079,
      "v": 64
    },
    {
      "midi": 65,
      "hit": false,
      "t": 222739.50700000225,
      "d": 205.47925000000396,
      "v": 70
    },
    {
      "midi": 53,
      "hit": false,
      "t": 222739.50700000225,
      "d": 410.9585000000079,
      "v": 70
    },
    {
      "midi": 68,
      "hit": false,
      "t": 222944.98625000226,
      "d": 205.47925000000396,
      "v": 93
    },
    {
      "midi": 80,
      "hit": false,
      "t": 222944.98625000226,
      "d": 205.47925000000396,
      "v": 93
    },
    {
      "midi": 70,
      "hit": false,
      "t": 223150.46550000226,
      "d": 205.47925000000396,
      "v": 90
    },
    {
      "midi": 82,
      "hit": false,
      "t": 223150.46550000226,
      "d": 205.47925000000396,
      "v": 90
    },
    {
      "midi": 52,
      "hit": false,
      "t": 223150.46550000226,
      "d": 410.9585000000079,
      "v": 59
    },
    {
      "midi": 64,
      "hit": false,
      "t": 223150.46550000226,
      "d": 410.9585000000079,
      "v": 59
    },
    {
      "midi": 71,
      "hit": false,
      "t": 223355.94475000227,
      "d": 205.47925000000396,
      "v": 87
    },
    {
      "midi": 83,
      "hit": false,
      "t": 223355.94475000227,
      "d": 205.47925000000396,
      "v": 87
    },
    {
      "midi": 51,
      "hit": false,
      "t": 223561.42400000227,
      "d": 410.9585000000079,
      "v": 60
    },
    {
      "midi": 63,
      "hit": false,
      "t": 223561.42400000227,
      "d": 410.9585000000079,
      "v": 60
    },
    {
      "midi": 72,
      "hit": false,
      "t": 223561.42400000227,
      "d": 410.9585000000079,
      "v": 86
    },
    {
      "midi": 78,
      "hit": false,
      "t": 223561.42400000227,
      "d": 410.9585000000079,
      "v": 86
    },
    {
      "midi": 84,
      "hit": false,
      "t": 223561.42400000227,
      "d": 410.9585000000079,
      "v": 86
    },
    {
      "midi": 68,
      "hit": false,
      "t": 223972.38250000228,
      "d": 205.47925000000396,
      "v": 80
    },
    {
      "midi": 80,
      "hit": false,
      "t": 223972.38250000228,
      "d": 205.47925000000396,
      "v": 80
    },
    {
      "midi": 56,
      "hit": false,
      "t": 223972.38250000228,
      "d": 410.9585000000079,
      "v": 62
    },
    {
      "midi": 60,
      "hit": false,
      "t": 223972.38250000228,
      "d": 410.9585000000079,
      "v": 62
    },
    {
      "midi": 66,
      "hit": false,
      "t": 223972.38250000228,
      "d": 410.9585000000079,
      "v": 62
    },
    {
      "midi": 70,
      "hit": false,
      "t": 224177.86175000228,
      "d": 1027.3962500000198,
      "v": 87
    },
    {
      "midi": 78,
      "hit": false,
      "t": 224177.86175000228,
      "d": 1027.3962500000198,
      "v": 87
    },
    {
      "midi": 82,
      "hit": false,
      "t": 224177.86175000228,
      "d": 1027.3962500000198,
      "v": 87
    },
    {
      "midi": 44,
      "hit": false,
      "t": 224383.34100000228,
      "d": 410.9585000000079,
      "v": 57
    },
    {
      "midi": 56,
      "hit": false,
      "t": 224383.34100000228,
      "d": 410.9585000000079,
      "v": 57
    },
    {
      "midi": 56,
      "hit": false,
      "t": 224794.2995000023,
      "d": 410.9585000000079,
      "v": 70
    },
    {
      "midi": 60,
      "hit": false,
      "t": 224794.2995000023,
      "d": 410.9585000000079,
      "v": 70
    },
    {
      "midi": 66,
      "hit": false,
      "t": 224794.2995000023,
      "d": 410.9585000000079,
      "v": 70
    },
    {
      "midi": 39,
      "hit": false,
      "t": 225205.2580000023,
      "d": 410.9585000000079,
      "v": 61
    },
    {
      "midi": 51,
      "hit": false,
      "t": 225205.2580000023,
      "d": 410.9585000000079,
      "v": 61
    },
    {
      "midi": 72,
      "hit": false,
      "t": 225205.2580000023,
      "d": 410.9585000000079,
      "v": 84
    },
    {
      "midi": 78,
      "hit": false,
      "t": 225205.2580000023,
      "d": 410.9585000000079,
      "v": 84
    },
    {
      "midi": 84,
      "hit": false,
      "t": 225205.2580000023,
      "d": 410.9585000000079,
      "v": 84
    },
    {
      "midi": 68,
      "hit": false,
      "t": 225616.2165000023,
      "d": 205.47925000000396,
      "v": 79
    },
    {
      "midi": 80,
      "hit": false,
      "t": 225616.2165000023,
      "d": 205.47925000000396,
      "v": 79
    },
    {
      "midi": 56,
      "hit": false,
      "t": 225616.2165000023,
      "d": 410.9585000000079,
      "v": 67
    },
    {
      "midi": 60,
      "hit": false,
      "t": 225616.2165000023,
      "d": 410.9585000000079,
      "v": 67
    },
    {
      "midi": 66,
      "hit": false,
      "t": 225616.2165000023,
      "d": 410.9585000000079,
      "v": 67
    },
    {
      "midi": 70,
      "hit": false,
      "t": 225821.6957500023,
      "d": 410.9585000000079,
      "v": 87
    },
    {
      "midi": 78,
      "hit": false,
      "t": 225821.6957500023,
      "d": 410.9585000000079,
      "v": 87
    },
    {
      "midi": 82,
      "hit": false,
      "t": 225821.6957500023,
      "d": 410.9585000000079,
      "v": 87
    },
    {
      "midi": 39,
      "hit": false,
      "t": 226027.17500000232,
      "d": 205.47925000000396,
      "v": 57
    },
    {
      "midi": 51,
      "hit": false,
      "t": 226027.17500000232,
      "d": 205.47925000000396,
      "v": 57
    },
    {
      "midi": 44,
      "hit": false,
      "t": 226232.65425000232,
      "d": 205.47925000000396,
      "v": 64
    },
    {
      "midi": 56,
      "hit": false,
      "t": 226232.65425000232,
      "d": 205.47925000000396,
      "v": 64
    },
    {
      "midi": 68,
      "hit": false,
      "t": 226232.65425000232,
      "d": 205.47925000000396,
      "v": 82
    },
    {
      "midi": 80,
      "hit": false,
      "t": 226232.65425000232,
      "d": 205.47925000000396,
      "v": 82
    },
    {
      "midi": 43,
      "hit": false,
      "t": 226438.13350000232,
      "d": 205.47925000000396,
      "v": 61
    },
    {
      "midi": 55,
      "hit": false,
      "t": 226438.13350000232,
      "d": 205.47925000000396,
      "v": 61
    },
    {
      "midi": 70,
      "hit": false,
      "t": 226438.13350000232,
      "d": 205.47925000000396,
      "v": 90
    },
    {
      "midi": 82,
      "hit": false,
      "t": 226438.13350000232,
      "d": 205.47925000000396,
      "v": 90
    },
    {
      "midi": 42,
      "hit": false,
      "t": 226643.61275000233,
      "d": 205.47925000000396,
      "v": 60
    },
    {
      "midi": 54,
      "hit": false,
      "t": 226643.61275000233,
      "d": 205.47925000000396,
      "v": 60
    },
    {
      "midi": 72,
      "hit": false,
      "t": 226643.61275000233,
      "d": 205.47925000000396,
      "v": 86
    },
    {
      "midi": 84,
      "hit": false,
      "t": 226643.61275000233,
      "d": 205.47925000000396,
      "v": 86
    },
    {
      "midi": 41,
      "hit": false,
      "t": 226849.09200000233,
      "d": 410.9585000000079,
      "v": 61
    },
    {
      "midi": 53,
      "hit": false,
      "t": 226849.09200000233,
      "d": 410.9585000000079,
      "v": 61
    },
    {
      "midi": 73,
      "hit": false,
      "t": 226849.09200000233,
      "d": 410.9585000000079,
      "v": 85
    },
    {
      "midi": 77,
      "hit": false,
      "t": 226849.09200000233,
      "d": 410.9585000000079,
      "v": 85
    },
    {
      "midi": 85,
      "hit": false,
      "t": 226849.09200000233,
      "d": 410.9585000000079,
      "v": 85
    },
    {
      "midi": 68,
      "hit": false,
      "t": 227260.05050000234,
      "d": 205.47925000000396,
      "v": 80
    },
    {
      "midi": 77,
      "hit": false,
      "t": 227260.05050000234,
      "d": 205.47925000000396,
      "v": 80
    },
    {
      "midi": 80,
      "hit": false,
      "t": 227260.05050000234,
      "d": 205.47925000000396,
      "v": 80
    },
    {
      "midi": 56,
      "hit": false,
      "t": 227260.05050000234,
      "d": 410.9585000000079,
      "v": 71
    },
    {
      "midi": 61,
      "hit": false,
      "t": 227260.05050000234,
      "d": 410.9585000000079,
      "v": 71
    },
    {
      "midi": 65,
      "hit": false,
      "t": 227260.05050000234,
      "d": 410.9585000000079,
      "v": 71
    },
    {
      "midi": 70,
      "hit": false,
      "t": 227465.52975000234,
      "d": 1027.3962500000198,
      "v": 85
    },
    {
      "midi": 77,
      "hit": false,
      "t": 227465.52975000234,
      "d": 1027.3962500000198,
      "v": 85
    },
    {
      "midi": 82,
      "hit": false,
      "t": 227465.52975000234,
      "d": 1027.3962500000198,
      "v": 85
    },
    {
      "midi": 49,
      "hit": false,
      "t": 227671.00900000235,
      "d": 410.9585000000079,
      "v": 56
    },
    {
      "midi": 61,
      "hit": false,
      "t": 227671.00900000235,
      "d": 410.9585000000079,
      "v": 56
    },
    {
      "midi": 56,
      "hit": false,
      "t": 228081.96750000236,
      "d": 410.9585000000079,
      "v": 62
    },
    {
      "midi": 61,
      "hit": false,
      "t": 228081.96750000236,
      "d": 410.9585000000079,
      "v": 62
    },
    {
      "midi": 65,
      "hit": false,
      "t": 228081.96750000236,
      "d": 410.9585000000079,
      "v": 62
    },
    {
      "midi": 44,
      "hit": false,
      "t": 228492.92600000236,
      "d": 410.9585000000079,
      "v": 57
    },
    {
      "midi": 56,
      "hit": false,
      "t": 228492.92600000236,
      "d": 410.9585000000079,
      "v": 57
    },
    {
      "midi": 73,
      "hit": false,
      "t": 228492.92600000236,
      "d": 410.9585000000079,
      "v": 85
    },
    {
      "midi": 77,
      "hit": false,
      "t": 228492.92600000236,
      "d": 410.9585000000079,
      "v": 85
    },
    {
      "midi": 85,
      "hit": false,
      "t": 228492.92600000236,
      "d": 410.9585000000079,
      "v": 85
    },
    {
      "midi": 68,
      "hit": false,
      "t": 228903.88450000237,
      "d": 205.47925000000396,
      "v": 79
    },
    {
      "midi": 77,
      "hit": false,
      "t": 228903.88450000237,
      "d": 205.47925000000396,
      "v": 79
    },
    {
      "midi": 80,
      "hit": false,
      "t": 228903.88450000237,
      "d": 205.47925000000396,
      "v": 79
    },
    {
      "midi": 56,
      "hit": false,
      "t": 228903.88450000237,
      "d": 410.9585000000079,
      "v": 68
    },
    {
      "midi": 61,
      "hit": false,
      "t": 228903.88450000237,
      "d": 410.9585000000079,
      "v": 68
    },
    {
      "midi": 65,
      "hit": false,
      "t": 228903.88450000237,
      "d": 410.9585000000079,
      "v": 68
    },
    {
      "midi": 70,
      "hit": false,
      "t": 229109.36375000238,
      "d": 1027.3962500000198,
      "v": 88
    },
    {
      "midi": 77,
      "hit": false,
      "t": 229109.36375000238,
      "d": 1027.3962500000198,
      "v": 88
    },
    {
      "midi": 82,
      "hit": false,
      "t": 229109.36375000238,
      "d": 1027.3962500000198,
      "v": 88
    },
    {
      "midi": 49,
      "hit": false,
      "t": 229314.84300000238,
      "d": 410.9585000000079,
      "v": 60
    },
    {
      "midi": 61,
      "hit": false,
      "t": 229314.84300000238,
      "d": 410.9585000000079,
      "v": 60
    },
    {
      "midi": 50,
      "hit": false,
      "t": 229725.8015000024,
      "d": 410.9585000000079,
      "v": 64
    },
    {
      "midi": 62,
      "hit": false,
      "t": 229725.8015000024,
      "d": 410.9585000000079,
      "v": 64
    },
    {
      "midi": 51,
      "hit": false,
      "t": 230136.7600000024,
      "d": 410.9585000000079,
      "v": 64
    },
    {
      "midi": 63,
      "hit": false,
      "t": 230136.7600000024,
      "d": 410.9585000000079,
      "v": 64
    },
    {
      "midi": 82,
      "hit": false,
      "t": 230547.7185000024,
      "d": 205.47925000000396,
      "v": 90
    },
    {
      "midi": 56,
      "hit": false,
      "t": 230547.7185000024,
      "d": 410.9585000000079,
      "v": 62
    },
    {
      "midi": 60,
      "hit": false,
      "t": 230547.7185000024,
      "d": 410.9585000000079,
      "v": 62
    },
    {
      "midi": 66,
      "hit": false,
      "t": 230547.7185000024,
      "d": 410.9585000000079,
      "v": 62
    },
    {
      "midi": 72,
      "hit": false,
      "t": 230753.1977500024,
      "d": 1027.3962500000198,
      "v": 94
    },
    {
      "midi": 78,
      "hit": false,
      "t": 230753.1977500024,
      "d": 1027.3962500000198,
      "v": 94
    },
    {
      "midi": 80,
      "hit": false,
      "t": 230753.1977500024,
      "d": 1027.3962500000198,
      "v": 94
    },
    {
      "midi": 44,
      "hit": false,
      "t": 230958.6770000024,
      "d": 410.9585000000079,
      "v": 58
    },
    {
      "midi": 56,
      "hit": false,
      "t": 230958.6770000024,
      "d": 410.9585000000079,
      "v": 58
    },
    {
      "midi": 56,
      "hit": false,
      "t": 231369.63550000242,
      "d": 410.9585000000079,
      "v": 70
    },
    {
      "midi": 60,
      "hit": false,
      "t": 231369.63550000242,
      "d": 410.9585000000079,
      "v": 70
    },
    {
      "midi": 66,
      "hit": false,
      "t": 231369.63550000242,
      "d": 410.9585000000079,
      "v": 70
    },
    {
      "midi": 48,
      "hit": false,
      "t": 231780.59400000243,
      "d": 410.9585000000079,
      "v": 56
    },
    {
      "midi": 60,
      "hit": false,
      "t": 231780.59400000243,
      "d": 410.9585000000079,
      "v": 56
    },
    {
      "midi": 82,
      "hit": false,
      "t": 232191.55250000244,
      "d": 205.47925000000396,
      "v": 88
    },
    {
      "midi": 56,
      "hit": false,
      "t": 232191.55250000244,
      "d": 410.9585000000079,
      "v": 66
    },
    {
      "midi": 60,
      "hit": false,
      "t": 232191.55250000244,
      "d": 410.9585000000079,
      "v": 66
    },
    {
      "midi": 66,
      "hit": false,
      "t": 232191.55250000244,
      "d": 410.9585000000079,
      "v": 66
    },
    {
      "midi": 72,
      "hit": false,
      "t": 232397.03175000244,
      "d": 1027.3962500000198,
      "v": 92
    },
    {
      "midi": 78,
      "hit": false,
      "t": 232397.03175000244,
      "d": 1027.3962500000198,
      "v": 92
    },
    {
      "midi": 80,
      "hit": false,
      "t": 232397.03175000244,
      "d": 1027.3962500000198,
      "v": 92
    },
    {
      "midi": 44,
      "hit": false,
      "t": 232602.51100000244,
      "d": 410.9585000000079,
      "v": 58
    },
    {
      "midi": 56,
      "hit": false,
      "t": 232602.51100000244,
      "d": 410.9585000000079,
      "v": 58
    },
    {
      "midi": 56,
      "hit": false,
      "t": 233013.46950000245,
      "d": 410.9585000000079,
      "v": 66
    },
    {
      "midi": 60,
      "hit": false,
      "t": 233013.46950000245,
      "d": 410.9585000000079,
      "v": 66
    },
    {
      "midi": 66,
      "hit": false,
      "t": 233013.46950000245,
      "d": 410.9585000000079,
      "v": 66
    },
    {
      "midi": 49,
      "hit": false,
      "t": 233424.42800000246,
      "d": 410.9585000000079,
      "v": 57
    },
    {
      "midi": 61,
      "hit": false,
      "t": 233424.42800000246,
      "d": 410.9585000000079,
      "v": 57
    },
    {
      "midi": 82,
      "hit": false,
      "t": 233835.38650000247,
      "d": 205.47925000000396,
      "v": 86
    },
    {
      "midi": 56,
      "hit": false,
      "t": 233835.38650000247,
      "d": 410.9585000000079,
      "v": 64
    },
    {
      "midi": 61,
      "hit": false,
      "t": 233835.38650000247,
      "d": 410.9585000000079,
      "v": 64
    },
    {
      "midi": 65,
      "hit": false,
      "t": 233835.38650000247,
      "d": 410.9585000000079,
      "v": 64
    },
    {
      "midi": 73,
      "hit": false,
      "t": 234040.86575000247,
      "d": 1027.3962500000198,
      "v": 95
    },
    {
      "midi": 77,
      "hit": false,
      "t": 234040.86575000247,
      "d": 1027.3962500000198,
      "v": 95
    },
    {
      "midi": 80,
      "hit": false,
      "t": 234040.86575000247,
      "d": 1027.3962500000198,
      "v": 95
    },
    {
      "midi": 44,
      "hit": false,
      "t": 234246.34500000247,
      "d": 410.9585000000079,
      "v": 61
    },
    {
      "midi": 56,
      "hit": false,
      "t": 234246.34500000247,
      "d": 410.9585000000079,
      "v": 61
    },
    {
      "midi": 56,
      "hit": false,
      "t": 234657.30350000248,
      "d": 410.9585000000079,
      "v": 68
    },
    {
      "midi": 61,
      "hit": false,
      "t": 234657.30350000248,
      "d": 410.9585000000079,
      "v": 68
    },
    {
      "midi": 65,
      "hit": false,
      "t": 234657.30350000248,
      "d": 410.9585000000079,
      "v": 68
    },
    {
      "midi": 49,
      "hit": false,
      "t": 235068.2620000025,
      "d": 410.9585000000079,
      "v": 59
    },
    {
      "midi": 61,
      "hit": false,
      "t": 235068.2620000025,
      "d": 410.9585000000079,
      "v": 59
    },
    {
      "midi": 82,
      "hit": false,
      "t": 235479.2205000025,
      "d": 205.47925000000396,
      "v": 85
    },
    {
      "midi": 56,
      "hit": false,
      "t": 235479.2205000025,
      "d": 410.9585000000079,
      "v": 63
    },
    {
      "midi": 61,
      "hit": false,
      "t": 235479.2205000025,
      "d": 410.9585000000079,
      "v": 63
    },
    {
      "midi": 65,
      "hit": false,
      "t": 235479.2205000025,
      "d": 410.9585000000079,
      "v": 63
    },
    {
      "midi": 73,
      "hit": false,
      "t": 235684.6997500025,
      "d": 410.9585000000079,
      "v": 93
    },
    {
      "midi": 77,
      "hit": false,
      "t": 235684.6997500025,
      "d": 410.9585000000079,
      "v": 93
    },
    {
      "midi": 80,
      "hit": false,
      "t": 235684.6997500025,
      "d": 410.9585000000079,
      "v": 93
    },
    {
      "midi": 53,
      "hit": false,
      "t": 235890.1790000025,
      "d": 410.9585000000079,
      "v": 61
    },
    {
      "midi": 65,
      "hit": false,
      "t": 235890.1790000025,
      "d": 410.9585000000079,
      "v": 61
    },
    {
      "midi": 68,
      "hit": false,
      "t": 236095.6582500025,
      "d": 205.47925000000396,
      "v": 83
    },
    {
      "midi": 80,
      "hit": false,
      "t": 236095.6582500025,
      "d": 205.47925000000396,
      "v": 83
    },
    {
      "midi": 70,
      "hit": false,
      "t": 236301.13750000251,
      "d": 205.47925000000396,
      "v": 88
    },
    {
      "midi": 82,
      "hit": false,
      "t": 236301.13750000251,
      "d": 205.47925000000396,
      "v": 88
    },
    {
      "midi": 52,
      "hit": false,
      "t": 236301.13750000251,
      "d": 410.9585000000079,
      "v": 60
    },
    {
      "midi": 64,
      "hit": false,
      "t": 236301.13750000251,
      "d": 410.9585000000079,
      "v": 60
    },
    {
      "midi": 71,
      "hit": false,
      "t": 236506.61675000252,
      "d": 205.47925000000396,
      "v": 88
    },
    {
      "midi": 83,
      "hit": false,
      "t": 236506.61675000252,
      "d": 205.47925000000396,
      "v": 88
    },
    {
      "midi": 51,
      "hit": false,
      "t": 236712.09600000252,
      "d": 410.9585000000079,
      "v": 59
    },
    {
      "midi": 63,
      "hit": false,
      "t": 236712.09600000252,
      "d": 410.9585000000079,
      "v": 59
    },
    {
      "midi": 72,
      "hit": false,
      "t": 236712.09600000252,
      "d": 410.9585000000079,
      "v": 84
    },
    {
      "midi": 78,
      "hit": false,
      "t": 236712.09600000252,
      "d": 410.9585000000079,
      "v": 84
    },
    {
      "midi": 84,
      "hit": false,
      "t": 236712.09600000252,
      "d": 410.9585000000079,
      "v": 84
    },
    {
      "midi": 68,
      "hit": false,
      "t": 237123.05450000253,
      "d": 205.47925000000396,
      "v": 80
    },
    {
      "midi": 80,
      "hit": false,
      "t": 237123.05450000253,
      "d": 205.47925000000396,
      "v": 80
    },
    {
      "midi": 56,
      "hit": false,
      "t": 237123.05450000253,
      "d": 410.9585000000079,
      "v": 62
    },
    {
      "midi": 60,
      "hit": false,
      "t": 237123.05450000253,
      "d": 410.9585000000079,
      "v": 62
    },
    {
      "midi": 66,
      "hit": false,
      "t": 237123.05450000253,
      "d": 410.9585000000079,
      "v": 62
    },
    {
      "midi": 70,
      "hit": false,
      "t": 237328.53375000253,
      "d": 1027.3962500000198,
      "v": 86
    },
    {
      "midi": 78,
      "hit": false,
      "t": 237328.53375000253,
      "d": 1027.3962500000198,
      "v": 86
    },
    {
      "midi": 82,
      "hit": false,
      "t": 237328.53375000253,
      "d": 1027.3962500000198,
      "v": 86
    },
    {
      "midi": 44,
      "hit": false,
      "t": 237534.01300000254,
      "d": 410.9585000000079,
      "v": 58
    },
    {
      "midi": 56,
      "hit": false,
      "t": 237534.01300000254,
      "d": 410.9585000000079,
      "v": 58
    },
    {
      "midi": 56,
      "hit": false,
      "t": 237944.97150000255,
      "d": 410.9585000000079,
      "v": 69
    },
    {
      "midi": 60,
      "hit": false,
      "t": 237944.97150000255,
      "d": 410.9585000000079,
      "v": 69
    },
    {
      "midi": 66,
      "hit": false,
      "t": 237944.97150000255,
      "d": 410.9585000000079,
      "v": 69
    },
    {
      "midi": 39,
      "hit": false,
      "t": 238355.93000000255,
      "d": 410.9585000000079,
      "v": 59
    },
    {
      "midi": 51,
      "hit": false,
      "t": 238355.93000000255,
      "d": 410.9585000000079,
      "v": 59
    },
    {
      "midi": 72,
      "hit": false,
      "t": 238355.93000000255,
      "d": 410.9585000000079,
      "v": 87
    },
    {
      "midi": 78,
      "hit": false,
      "t": 238355.93000000255,
      "d": 410.9585000000079,
      "v": 87
    },
    {
      "midi": 84,
      "hit": false,
      "t": 238355.93000000255,
      "d": 410.9585000000079,
      "v": 87
    },
    {
      "midi": 68,
      "hit": false,
      "t": 238766.88850000256,
      "d": 205.47925000000396,
      "v": 78
    },
    {
      "midi": 80,
      "hit": false,
      "t": 238766.88850000256,
      "d": 205.47925000000396,
      "v": 78
    },
    {
      "midi": 56,
      "hit": false,
      "t": 238766.88850000256,
      "d": 410.9585000000079,
      "v": 70
    },
    {
      "midi": 60,
      "hit": false,
      "t": 238766.88850000256,
      "d": 410.9585000000079,
      "v": 70
    },
    {
      "midi": 66,
      "hit": false,
      "t": 238766.88850000256,
      "d": 410.9585000000079,
      "v": 70
    },
    {
      "midi": 70,
      "hit": false,
      "t": 238972.36775000257,
      "d": 410.9585000000079,
      "v": 89
    },
    {
      "midi": 78,
      "hit": false,
      "t": 238972.36775000257,
      "d": 410.9585000000079,
      "v": 89
    },
    {
      "midi": 82,
      "hit": false,
      "t": 238972.36775000257,
      "d": 410.9585000000079,
      "v": 89
    },
    {
      "midi": 39,
      "hit": false,
      "t": 239177.84700000257,
      "d": 205.47925000000396,
      "v": 60
    },
    {
      "midi": 51,
      "hit": false,
      "t": 239177.84700000257,
      "d": 205.47925000000396,
      "v": 60
    },
    {
      "midi": 44,
      "hit": false,
      "t": 239383.32625000257,
      "d": 205.47925000000396,
      "v": 63
    },
    {
      "midi": 56,
      "hit": false,
      "t": 239383.32625000257,
      "d": 205.47925000000396,
      "v": 63
    },
    {
      "midi": 68,
      "hit": false,
      "t": 239383.32625000257,
      "d": 205.47925000000396,
      "v": 80
    },
    {
      "midi": 80,
      "hit": false,
      "t": 239383.32625000257,
      "d": 205.47925000000396,
      "v": 80
    },
    {
      "midi": 43,
      "hit": false,
      "t": 239588.80550000258,
      "d": 205.47925000000396,
      "v": 60
    },
    {
      "midi": 55,
      "hit": false,
      "t": 239588.80550000258,
      "d": 205.47925000000396,
      "v": 60
    },
    {
      "midi": 70,
      "hit": false,
      "t": 239588.80550000258,
      "d": 205.47925000000396,
      "v": 87
    },
    {
      "midi": 82,
      "hit": false,
      "t": 239588.80550000258,
      "d": 205.47925000000396,
      "v": 87
    },
    {
      "midi": 42,
      "hit": false,
      "t": 239794.28475000258,
      "d": 205.47925000000396,
      "v": 62
    },
    {
      "midi": 54,
      "hit": false,
      "t": 239794.28475000258,
      "d": 205.47925000000396,
      "v": 62
    },
    {
      "midi": 72,
      "hit": false,
      "t": 239794.28475000258,
      "d": 205.47925000000396,
      "v": 85
    },
    {
      "midi": 84,
      "hit": false,
      "t": 239794.28475000258,
      "d": 205.47925000000396,
      "v": 85
    },
    {
      "midi": 41,
      "hit": false,
      "t": 239999.7640000026,
      "d": 410.9585000000079,
      "v": 61
    },
    {
      "midi": 53,
      "hit": false,
      "t": 239999.7640000026,
      "d": 410.9585000000079,
      "v": 61
    },
    {
      "midi": 73,
      "hit": false,
      "t": 239999.7640000026,
      "d": 410.9585000000079,
      "v": 85
    },
    {
      "midi": 77,
      "hit": false,
      "t": 239999.7640000026,
      "d": 410.9585000000079,
      "v": 85
    },
    {
      "midi": 85,
      "hit": false,
      "t": 239999.7640000026,
      "d": 410.9585000000079,
      "v": 85
    },
    {
      "midi": 68,
      "hit": false,
      "t": 240410.7225000026,
      "d": 205.47925000000396,
      "v": 81
    },
    {
      "midi": 77,
      "hit": false,
      "t": 240410.7225000026,
      "d": 205.47925000000396,
      "v": 81
    },
    {
      "midi": 80,
      "hit": false,
      "t": 240410.7225000026,
      "d": 205.47925000000396,
      "v": 81
    },
    {
      "midi": 56,
      "hit": false,
      "t": 240410.7225000026,
      "d": 410.9585000000079,
      "v": 71
    },
    {
      "midi": 61,
      "hit": false,
      "t": 240410.7225000026,
      "d": 410.9585000000079,
      "v": 71
    },
    {
      "midi": 65,
      "hit": false,
      "t": 240410.7225000026,
      "d": 410.9585000000079,
      "v": 71
    },
    {
      "midi": 70,
      "hit": false,
      "t": 240616.2017500026,
      "d": 1027.3962500000198,
      "v": 87
    },
    {
      "midi": 77,
      "hit": false,
      "t": 240616.2017500026,
      "d": 1027.3962500000198,
      "v": 87
    },
    {
      "midi": 82,
      "hit": false,
      "t": 240616.2017500026,
      "d": 1027.3962500000198,
      "v": 87
    },
    {
      "midi": 49,
      "hit": false,
      "t": 240821.6810000026,
      "d": 410.9585000000079,
      "v": 57
    },
    {
      "midi": 61,
      "hit": false,
      "t": 240821.6810000026,
      "d": 410.9585000000079,
      "v": 57
    },
    {
      "midi": 56,
      "hit": false,
      "t": 241232.6395000026,
      "d": 410.9585000000079,
      "v": 63
    },
    {
      "midi": 61,
      "hit": false,
      "t": 241232.6395000026,
      "d": 410.9585000000079,
      "v": 63
    },
    {
      "midi": 65,
      "hit": false,
      "t": 241232.6395000026,
      "d": 410.9585000000079,
      "v": 63
    },
    {
      "midi": 53,
      "hit": false,
      "t": 241643.59800000262,
      "d": 410.9585000000079,
      "v": 59
    },
    {
      "midi": 65,
      "hit": false,
      "t": 241643.59800000262,
      "d": 410.9585000000079,
      "v": 59
    },
    {
      "midi": 73,
      "hit": false,
      "t": 241849.07725000262,
      "d": 205.47925000000396,
      "v": 74
    },
    {
      "midi": 77,
      "hit": false,
      "t": 242054.55650000263,
      "d": 205.47925000000396,
      "v": 88
    },
    {
      "midi": 49,
      "hit": false,
      "t": 242054.55650000263,
      "d": 410.9585000000079,
      "v": 58
    },
    {
      "midi": 61,
      "hit": false,
      "t": 242054.55650000263,
      "d": 410.9585000000079,
      "v": 58
    },
    {
      "midi": 80,
      "hit": false,
      "t": 242260.03575000263,
      "d": 205.47925000000396,
      "v": 86
    },
    {
      "midi": 85,
      "hit": false,
      "t": 242465.51500000263,
      "d": 205.47925000000396,
      "v": 88
    },
    {
      "midi": 44,
      "hit": false,
      "t": 242465.51500000263,
      "d": 410.9585000000079,
      "v": 59
    },
    {
      "midi": 56,
      "hit": false,
      "t": 242465.51500000263,
      "d": 410.9585000000079,
      "v": 59
    },
    {
      "midi": 77,
      "hit": false,
      "t": 242465.51500000263,
      "d": 410.9585000000079,
      "v": 88
    },
    {
      "midi": 82,
      "hit": false,
      "t": 242670.99425000264,
      "d": 205.47925000000396,
      "v": 83
    },
    {
      "midi": 80,
      "hit": false,
      "t": 242876.47350000264,
      "d": 205.47925000000396,
      "v": 81
    },
    {
      "midi": 41,
      "hit": false,
      "t": 242876.47350000264,
      "d": 410.9585000000079,
      "v": 61
    },
    {
      "midi": 53,
      "hit": false,
      "t": 242876.47350000264,
      "d": 410.9585000000079,
      "v": 61
    },
    {
      "midi": 71,
      "hit": false,
      "t": 242876.47350000264,
      "d": 410.9585000000079,
      "v": 70
    },
    {
      "midi": 77,
      "hit": false,
      "t": 243081.95275000265,
      "d": 205.47925000000396,
      "v": 82
    },
    {
      "midi": 42,
      "hit": false,
      "t": 243287.43200000265,
      "d": 410.9585000000079,
      "v": 62
    },
    {
      "midi": 54,
      "hit": false,
      "t": 243287.43200000265,
      "d": 410.9585000000079,
      "v": 62
    },
    {
      "midi": 70,
      "hit": false,
      "t": 243287.43200000265,
      "d": 821.9170000000158,
      "v": 76
    },
    {
      "midi": 78,
      "hit": false,
      "t": 243492.91125000265,
      "d": 410.9585000000079,
      "v": 80
    },
    {
      "midi": 46,
      "hit": false,
      "t": 243698.39050000266,
      "d": 410.9585000000079,
      "v": 62
    },
    {
      "midi": 58,
      "hit": false,
      "t": 243698.39050000266,
      "d": 410.9585000000079,
      "v": 62
    },
    {
      "midi": 75,
      "hit": false,
      "t": 243903.86975000266,
      "d": 205.47925000000396,
      "v": 72
    },
    {
      "midi": 51,
      "hit": false,
      "t": 244109.34900000266,
      "d": 410.9585000000079,
      "v": 64
    },
    {
      "midi": 63,
      "hit": false,
      "t": 244109.34900000266,
      "d": 410.9585000000079,
      "v": 64
    },
    {
      "midi": 69,
      "hit": false,
      "t": 244109.34900000266,
      "d": 821.9170000000158,
      "v": 77
    },
    {
      "midi": 78,
      "hit": false,
      "t": 244314.82825000267,
      "d": 410.9585000000079,
      "v": 85
    },
    {
      "midi": 54,
      "hit": false,
      "t": 244520.30750000267,
      "d": 410.9585000000079,
      "v": 64
    },
    {
      "midi": 66,
      "hit": false,
      "t": 244520.30750000267,
      "d": 410.9585000000079,
      "v": 64
    },
    {
      "midi": 75,
      "hit": false,
      "t": 244725.78675000268,
      "d": 205.47925000000396,
      "v": 75
    },
    {
      "midi": 53,
      "hit": false,
      "t": 244931.26600000268,
      "d": 410.9585000000079,
      "v": 58
    },
    {
      "midi": 65,
      "hit": false,
      "t": 244931.26600000268,
      "d": 410.9585000000079,
      "v": 58
    },
    {
      "midi": 68,
      "hit": false,
      "t": 245136.74525000268,
      "d": 205.47925000000396,
      "v": 73
    },
    {
      "midi": 73,
      "hit": false,
      "t": 245342.2245000027,
      "d": 205.47925000000396,
      "v": 89
    },
    {
      "midi": 49,
      "hit": false,
      "t": 245342.2245000027,
      "d": 410.9585000000079,
      "v": 59
    },
    {
      "midi": 61,
      "hit": false,
      "t": 245342.2245000027,
      "d": 410.9585000000079,
      "v": 59
    },
    {
      "midi": 77,
      "hit": false,
      "t": 245547.7037500027,
      "d": 205.47925000000396,
      "v": 91
    },
    {
      "midi": 82,
      "hit": false,
      "t": 245753.1830000027,
      "d": 205.47925000000396,
      "v": 91
    },
    {
      "midi": 44,
      "hit": false,
      "t": 245753.1830000027,
      "d": 410.9585000000079,
      "v": 60
    },
    {
      "midi": 56,
      "hit": false,
      "t": 245753.1830000027,
      "d": 410.9585000000079,
      "v": 60
    },
    {
      "midi": 80,
      "hit": false,
      "t": 245958.6622500027,
      "d": 205.47925000000396,
      "v": 83
    },
    {
      "midi": 77,
      "hit": false,
      "t": 246164.1415000027,
      "d": 205.47925000000396,
      "v": 80
    },
    {
      "midi": 49,
      "hit": false,
      "t": 246164.1415000027,
      "d": 410.9585000000079,
      "v": 64
    },
    {
      "midi": 61,
      "hit": false,
      "t": 246164.1415000027,
      "d": 410.9585000000079,
      "v": 64
    },
    {
      "midi": 68,
      "hit": false,
      "t": 246369.6207500027,
      "d": 205.47925000000396,
      "v": 74
    },
    {
      "midi": 46,
      "hit": false,
      "t": 246575.1000000027,
      "d": 410.9585000000079,
      "v": 58
    },
    {
      "midi": 58,
      "hit": false,
      "t": 246575.1000000027,
      "d": 410.9585000000079,
      "v": 58
    },
    {
      "midi": 67,
      "hit": false,
      "t": 246575.1000000027,
      "d": 821.9170000000158,
      "v": 82
    },
    {
      "midi": 70,
      "hit": false,
      "t": 246780.57925000272,
      "d": 616.4377500000119,
      "v": 88
    },
    {
      "midi": 73,
      "hit": false,
      "t": 246780.57925000272,
      "d": 616.4377500000119,
      "v": 88
    },
    {
      "midi": 39,
      "hit": false,
      "t": 246986.05850000272,
      "d": 410.9585000000079,
      "v": 60
    },
    {
      "midi": 51,
      "hit": false,
      "t": 246986.05850000272,
      "d": 410.9585000000079,
      "v": 60
    },
    {
      "midi": 66,
      "hit": false,
      "t": 247397.01700000273,
      "d": 616.4377500000119,
      "v": 77
    },
    {
      "midi": 32,
      "hit": false,
      "t": 247397.01700000273,
      "d": 821.9170000000158,
      "v": 57
    },
    {
      "midi": 44,
      "hit": false,
      "t": 247397.01700000273,
      "d": 821.9170000000158,
      "v": 57
    },
    {
      "midi": 72,
      "hit": false,
      "t": 247602.49625000273,
      "d": 410.9585000000079,
      "v": 87
    },
    {
      "midi": 75,
      "hit": false,
      "t": 247602.49625000273,
      "d": 410.9585000000079,
      "v": 87
    },
    {
      "midi": 65,
      "hit": false,
      "t": 248013.45475000274,
      "d": 1027.3962500000198,
      "v": 73
    },
    {
      "midi": 73,
      "hit": false,
      "t": 248013.45475000274,
      "d": 1027.3962500000198,
      "v": 83
    },
    {
      "midi": 37,
      "hit": false,
      "t": 248218.93400000274,
      "d": 410.9585000000079,
      "v": 65
    },
    {
      "midi": 49,
      "hit": false,
      "t": 248218.93400000274,
      "d": 410.9585000000079,
      "v": 65
    },
    {
      "midi": 44,
      "hit": false,
      "t": 248629.89250000275,
      "d": 410.9585000000079,
      "v": 59
    },
    {
      "midi": 37,
      "hit": false,
      "t": 249040.85100000276,
      "d": 410.9585000000079,
      "v": 59
    },
    {
      "midi": 73,
      "hit": false,
      "t": 249040.85100000276,
      "d": 410.9585000000079,
      "v": 94
    },
    {
      "midi": 77,
      "hit": false,
      "t": 249040.85100000276,
      "d": 410.9585000000079,
      "v": 94
    },
    {
      "midi": 80,
      "hit": false,
      "t": 249040.85100000276,
      "d": 410.9585000000079,
      "v": 94
    },
    {
      "midi": 85,
      "hit": false,
      "t": 249040.85100000276,
      "d": 410.9585000000079,
      "v": 94
    }
  ]
}