{
  "jsonPath": "Blues/Ragtime/Max Morath/quality.json",
  "path": "Blues\\Ragtime\\Max Morath\\Quality.mid",
  "name": "Quality",
  "difficulty": "Advanced",
  "bpm": 89.9999550000225,
  "notes": [
    {
      "midi": 87,
      "hit": false,
      "t": 1326.3895520833335,
      "d": 114.58339062500022,
      "v": 91
    },
    {
      "midi": 85,
      "hit": false,
      "t": 1329.8617760416669,
      "d": 90.27782291666676,
      "v": 82
    },
    {
      "midi": 79,
      "hit": false,
      "t": 1333.3340000000003,
      "d": 100.69449479166678,
      "v": 104
    },
    {
      "midi": 75,
      "hit": false,
      "t": 1340.278447916667,
      "d": 59.027807291666704,
      "v": 104
    },
    {
      "midi": 89,
      "hit": false,
      "t": 1482.6396302083338,
      "d": 65.97225520833331,
      "v": 97
    },
    {
      "midi": 80,
      "hit": false,
      "t": 2024.306567708334,
      "d": 125.00006250000001,
      "v": 74
    },
    {
      "midi": 84,
      "hit": false,
      "t": 2034.723239583334,
      "d": 180.55564583333307,
      "v": 104
    },
    {
      "midi": 77,
      "hit": false,
      "t": 2041.6676875000005,
      "d": 118.05561458333318,
      "v": 91
    },
    {
      "midi": 70,
      "hit": false,
      "t": 2045.139911458334,
      "d": 93.75004687500018,
      "v": 113
    },
    {
      "midi": 85,
      "hit": false,
      "t": 2204.862213541667,
      "d": 149.30563020833324,
      "v": 91
    },
    {
      "midi": 82,
      "hit": false,
      "t": 2399.306755208334,
      "d": 107.63894270833316,
      "v": 86
    },
    {
      "midi": 79,
      "hit": false,
      "t": 2548.612385416667,
      "d": 76.38892708333333,
      "v": 104
    },
    {
      "midi": 63,
      "hit": false,
      "t": 2746.5291510416673,
      "d": 586.8058489583332,
      "v": 104
    },
    {
      "midi": 73,
      "hit": false,
      "t": 2750.0013750000007,
      "d": 204.86121354166653,
      "v": 104
    },
    {
      "midi": 67,
      "hit": false,
      "t": 2753.473598958334,
      "d": 336.80572395833315,
      "v": 97
    },
    {
      "midi": 75,
      "hit": false,
      "t": 2756.9458229166676,
      "d": 201.3889895833331,
      "v": 91
    },
    {
      "midi": 77,
      "hit": false,
      "t": 2923.6125729166674,
      "d": 104.16671874999975,
      "v": 97
    },
    {
      "midi": 68,
      "hit": false,
      "t": 3302.0849843750007,
      "d": 371.5279635416664,
      "v": 104
    },
    {
      "midi": 72,
      "hit": false,
      "t": 3309.0294322916675,
      "d": 350.69461979166636,
      "v": 113
    },
    {
      "midi": 65,
      "hit": false,
      "t": 3319.4461041666673,
      "d": 392.36130729166644,
      "v": 91
    },
    {
      "midi": 58,
      "hit": false,
      "t": 3486.112854166667,
      "d": 302.0834843749999,
      "v": 113
    },
    {
      "midi": 73,
      "hit": false,
      "t": 3635.4184843750004,
      "d": 173.6111979166667,
      "v": 97
    },
    {
      "midi": 70,
      "hit": false,
      "t": 3802.0852343750003,
      "d": 104.1667187500002,
      "v": 91
    },
    {
      "midi": 67,
      "hit": false,
      "t": 3979.1686562500004,
      "d": 55.55558333333329,
      "v": 86
    },
    {
      "midi": 63,
      "hit": false,
      "t": 4180.5576458333335,
      "d": 229.16678124999999,
      "v": 113
    },
    {
      "midi": 51,
      "hit": false,
      "t": 4180.5576458333335,
      "d": 524.305817708334,
      "v": 104
    },
    {
      "midi": 61,
      "hit": false,
      "t": 4190.974317708334,
      "d": 225.69455729166657,
      "v": 97
    },
    {
      "midi": 55,
      "hit": false,
      "t": 4194.446541666667,
      "d": 340.27794791666656,
      "v": 113
    },
    {
      "midi": 65,
      "hit": false,
      "t": 4368.057739583333,
      "d": 138.8889583333339,
      "v": 97
    },
    {
      "midi": 60,
      "hit": false,
      "t": 4729.16903125,
      "d": 329.8612760416672,
      "v": 97
    },
    {
      "midi": 56,
      "hit": false,
      "t": 4729.16903125,
      "d": 354.1668437500002,
      "v": 97
    },
    {
      "midi": 53,
      "hit": false,
      "t": 4750.002375000001,
      "d": 225.69455729166657,
      "v": 97
    },
    {
      "midi": 46,
      "hit": false,
      "t": 4906.252453125001,
      "d": 69.4444791666665,
      "v": 113
    },
    {
      "midi": 61,
      "hit": false,
      "t": 5059.030307291668,
      "d": 121.52783854166591,
      "v": 91
    },
    {
      "midi": 58,
      "hit": false,
      "t": 5222.224833333334,
      "d": 107.63894270833407,
      "v": 91
    },
    {
      "midi": 55,
      "hit": false,
      "t": 5378.474911458335,
      "d": 135.41673437499958,
      "v": 91
    },
    {
      "midi": 51,
      "hit": false,
      "t": 5583.336125000001,
      "d": 83.33337500000016,
      "v": 104
    },
    {
      "midi": 39,
      "hit": false,
      "t": 5593.752796875001,
      "d": 65.97225520833308,
      "v": 113
    },
    {
      "midi": 82,
      "hit": false,
      "t": 6284.725364583334,
      "d": 72.91670312499991,
      "v": 91
    },
    {
      "midi": 87,
      "hit": false,
      "t": 6284.725364583334,
      "d": 90.27782291666699,
      "v": 113
    },
    {
      "midi": 75,
      "hit": false,
      "t": 6288.197588541668,
      "d": 65.97225520833308,
      "v": 104
    },
    {
      "midi": 79,
      "hit": false,
      "t": 6298.614260416668,
      "d": 69.4444791666665,
      "v": 104
    },
    {
      "midi": 27,
      "hit": false,
      "t": 6302.086484375001,
      "d": 41.66668749999917,
      "v": 113
    },
    {
      "midi": 39,
      "hit": false,
      "t": 6302.086484375001,
      "d": 45.138911458332586,
      "v": 113
    },
    {
      "midi": 84,
      "hit": false,
      "t": 6666.670000000001,
      "d": 90.27782291666699,
      "v": 113
    },
    {
      "midi": 85,
      "hit": false,
      "t": 6739.586703125001,
      "d": 131.94451041666798,
      "v": 82
    },
    {
      "midi": 86,
      "hit": false,
      "t": 6809.031182291668,
      "d": 180.55564583333398,
      "v": 104
    },
    {
      "midi": 87,
      "hit": false,
      "t": 6892.3645572916685,
      "d": 194.44454166666765,
      "v": 97
    },
    {
      "midi": 46,
      "hit": false,
      "t": 6947.920140625002,
      "d": 90.27782291666699,
      "v": 97
    },
    {
      "midi": 58,
      "hit": false,
      "t": 6954.864588541669,
      "d": 79.86115104166674,
      "v": 104
    },
    {
      "midi": 89,
      "hit": false,
      "t": 7097.225770833336,
      "d": 194.44454166666674,
      "v": 104
    },
    {
      "midi": 61,
      "hit": false,
      "t": 7239.586953125003,
      "d": 52.08335937500033,
      "v": 97
    },
    {
      "midi": 51,
      "hit": false,
      "t": 7243.059177083336,
      "d": 55.55558333333374,
      "v": 82
    },
    {
      "midi": 55,
      "hit": false,
      "t": 7246.53140104167,
      "d": 38.194463541666664,
      "v": 104
    },
    {
      "midi": 84,
      "hit": false,
      "t": 7375.003687500003,
      "d": 65.97225520833308,
      "v": 97
    },
    {
      "midi": 87,
      "hit": false,
      "t": 7517.36486979167,
      "d": 180.55564583333398,
      "v": 104
    },
    {
      "midi": 51,
      "hit": false,
      "t": 7548.6148854166695,
      "d": 55.55558333333374,
      "v": 91
    },
    {
      "midi": 39,
      "hit": false,
      "t": 7548.6148854166695,
      "d": 62.500031250000575,
      "v": 86
    },
    {
      "midi": 85,
      "hit": false,
      "t": 7680.559395833337,
      "d": 166.66675000000123,
      "v": 97
    },
    {
      "midi": 82,
      "hit": false,
      "t": 7819.4483541666705,
      "d": 97.22227083333473,
      "v": 104
    },
    {
      "midi": 51,
      "hit": false,
      "t": 7826.392802083337,
      "d": 90.2778229166679,
      "v": 74
    },
    {
      "midi": 61,
      "hit": false,
      "t": 7836.809473958338,
      "d": 62.500031250000575,
      "v": 91
    },
    {
      "midi": 55,
      "hit": false,
      "t": 7836.809473958338,
      "d": 93.75004687500132,
      "v": 97
    },
    {
      "midi": 79,
      "hit": false,
      "t": 7958.337312500005,
      "d": 97.22227083333291,
      "v": 97
    },
    {
      "midi": 46,
      "hit": false,
      "t": 8107.6429427083385,
      "d": 114.5833906250009,
      "v": 91
    },
    {
      "midi": 58,
      "hit": false,
      "t": 8111.115166666672,
      "d": 142.36118229166823,
      "v": 104
    },
    {
      "midi": 75,
      "hit": false,
      "t": 8128.476286458339,
      "d": 118.05561458333432,
      "v": 86
    },
    {
      "midi": 77,
      "hit": false,
      "t": 8295.14303645834,
      "d": 246.52790104166525,
      "v": 97
    },
    {
      "midi": 61,
      "hit": false,
      "t": 8409.726427083338,
      "d": 69.4444791666665,
      "v": 97
    },
    {
      "midi": 51,
      "hit": false,
      "t": 8416.670875000005,
      "d": 65.97225520833308,
      "v": 74
    },
    {
      "midi": 55,
      "hit": false,
      "t": 8416.670875000005,
      "d": 79.86115104166674,
      "v": 97
    },
    {
      "midi": 72,
      "hit": false,
      "t": 8555.559833333338,
      "d": 76.38892708333333,
      "v": 104
    },
    {
      "midi": 75,
      "hit": false,
      "t": 8704.865463541671,
      "d": 90.27782291666699,
      "v": 104
    },
    {
      "midi": 39,
      "hit": false,
      "t": 8708.337687500005,
      "d": 55.555583333332834,
      "v": 104
    },
    {
      "midi": 51,
      "hit": false,
      "t": 8711.809911458338,
      "d": 41.66668749999917,
      "v": 97
    },
    {
      "midi": 73,
      "hit": false,
      "t": 8871.532213541672,
      "d": 59.02780729166625,
      "v": 86
    },
    {
      "midi": 49,
      "hit": false,
      "t": 9000.004500000005,
      "d": 65.97225520833308,
      "v": 97
    },
    {
      "midi": 70,
      "hit": false,
      "t": 9000.004500000005,
      "d": 76.38892708333333,
      "v": 97
    },
    {
      "midi": 37,
      "hit": false,
      "t": 9003.476723958338,
      "d": 69.4444791666665,
      "v": 97
    },
    {
      "midi": 67,
      "hit": false,
      "t": 9138.893458333338,
      "d": 72.91670312499991,
      "v": 91
    },
    {
      "midi": 65,
      "hit": false,
      "t": 9288.19908854167,
      "d": 69.44447916666832,
      "v": 91
    },
    {
      "midi": 36,
      "hit": false,
      "t": 9291.671312500004,
      "d": 48.61113541666782,
      "v": 104
    },
    {
      "midi": 48,
      "hit": false,
      "t": 9302.087984375004,
      "d": 45.138911458334405,
      "v": 97
    },
    {
      "midi": 51,
      "hit": false,
      "t": 9600.699244791673,
      "d": 45.138911458334405,
      "v": 86
    },
    {
      "midi": 56,
      "hit": false,
      "t": 9600.699244791673,
      "d": 48.61113541666782,
      "v": 97
    },
    {
      "midi": 60,
      "hit": false,
      "t": 9611.115916666673,
      "d": 27.777791666667326,
      "v": 104
    },
    {
      "midi": 80,
      "hit": false,
      "t": 9611.115916666673,
      "d": 45.138911458334405,
      "v": 91
    },
    {
      "midi": 72,
      "hit": false,
      "t": 9614.588140625006,
      "d": 34.72223958333416,
      "v": 104
    },
    {
      "midi": 84,
      "hit": false,
      "t": 9614.588140625006,
      "d": 48.61113541666782,
      "v": 97
    },
    {
      "midi": 79,
      "hit": false,
      "t": 9902.782729166674,
      "d": 83.33337500000198,
      "v": 104
    },
    {
      "midi": 51,
      "hit": false,
      "t": 9906.254953125008,
      "d": 48.61113541666782,
      "v": 104
    },
    {
      "midi": 84,
      "hit": false,
      "t": 9909.727177083341,
      "d": 76.38892708333515,
      "v": 97
    },
    {
      "midi": 72,
      "hit": false,
      "t": 9913.199401041675,
      "d": 62.500031250001484,
      "v": 104
    },
    {
      "midi": 39,
      "hit": false,
      "t": 9916.671625000008,
      "d": 48.61113541666782,
      "v": 104
    },
    {
      "midi": 51,
      "hit": false,
      "t": 10197.92176562501,
      "d": 59.02780729166807,
      "v": 86
    },
    {
      "midi": 77,
      "hit": false,
      "t": 10201.393989583343,
      "d": 62.500031250001484,
      "v": 91
    },
    {
      "midi": 56,
      "hit": false,
      "t": 10204.866213541676,
      "d": 45.138911458334405,
      "v": 91
    },
    {
      "midi": 84,
      "hit": false,
      "t": 10204.866213541676,
      "d": 65.9722552083349,
      "v": 104
    },
    {
      "midi": 72,
      "hit": false,
      "t": 10208.33843750001,
      "d": 62.500031250001484,
      "v": 97
    },
    {
      "midi": 60,
      "hit": false,
      "t": 10211.810661458343,
      "d": 38.194463541667574,
      "v": 104
    },
    {
      "midi": 84,
      "hit": false,
      "t": 10517.366369791678,
      "d": 65.9722552083349,
      "v": 97
    },
    {
      "midi": 75,
      "hit": false,
      "t": 10520.838593750012,
      "d": 41.66668750000099,
      "v": 82
    },
    {
      "midi": 72,
      "hit": false,
      "t": 10520.838593750012,
      "d": 52.08335937500124,
      "v": 104
    },
    {
      "midi": 56,
      "hit": false,
      "t": 10534.727489583345,
      "d": 41.66668750000099,
      "v": 97
    },
    {
      "midi": 44,
      "hit": false,
      "t": 10534.727489583345,
      "d": 45.138911458334405,
      "v": 97
    },
    {
      "midi": 75,
      "hit": false,
      "t": 10666.672000000013,
      "d": 59.02780729166625,
      "v": 86
    },
    {
      "midi": 83,
      "hit": false,
      "t": 10670.144223958347,
      "d": 65.97225520833308,
      "v": 104
    },
    {
      "midi": 71,
      "hit": false,
      "t": 10673.61644791668,
      "d": 45.138911458332586,
      "v": 104
    },
    {
      "midi": 51,
      "hit": false,
      "t": 10774.310942708347,
      "d": 62.500031249999665,
      "v": 91
    },
    {
      "midi": 56,
      "hit": false,
      "t": 10781.255390625014,
      "d": 45.138911458332586,
      "v": 91
    },
    {
      "midi": 60,
      "hit": false,
      "t": 10784.727614583348,
      "d": 48.611135416666,
      "v": 104
    },
    {
      "midi": 84,
      "hit": false,
      "t": 10944.449916666681,
      "d": 104.16671875000065,
      "v": 113
    },
    {
      "midi": 75,
      "hit": false,
      "t": 10944.449916666681,
      "d": 128.47228645833457,
      "v": 97
    },
    {
      "midi": 72,
      "hit": false,
      "t": 10947.922140625014,
      "d": 131.94451041666798,
      "v": 113
    },
    {
      "midi": 48,
      "hit": false,
      "t": 11086.81109895835,
      "d": 55.555583333332834,
      "v": 97
    },
    {
      "midi": 60,
      "hit": false,
      "t": 11086.81109895835,
      "d": 62.500031249999665,
      "v": 97
    },
    {
      "midi": 62,
      "hit": false,
      "t": 11267.366744791681,
      "d": 55.555583333332834,
      "v": 91
    },
    {
      "midi": 57,
      "hit": false,
      "t": 11375.005687500015,
      "d": 59.02780729166625,
      "v": 97
    },
    {
      "midi": 45,
      "hit": false,
      "t": 11375.005687500015,
      "d": 65.97225520833308,
      "v": 104
    },
    {
      "midi": 63,
      "hit": false,
      "t": 11375.005687500015,
      "d": 79.86115104166674,
      "v": 91
    },
    {
      "midi": 64,
      "hit": false,
      "t": 11527.783541666682,
      "d": 69.4444791666665,
      "v": 97
    },
    {
      "midi": 65,
      "hit": false,
      "t": 11642.366932291681,
      "d": 62.500031250001484,
      "v": 104
    },
    {
      "midi": 46,
      "hit": false,
      "t": 11666.672500000015,
      "d": 55.55558333333465,
      "v": 97
    },
    {
      "midi": 58,
      "hit": false,
      "t": 11673.616947916682,
      "d": 48.61113541666782,
      "v": 104
    },
    {
      "midi": 85,
      "hit": false,
      "t": 11944.450416666683,
      "d": 72.91670312500173,
      "v": 97
    },
    {
      "midi": 80,
      "hit": false,
      "t": 11947.922640625016,
      "d": 59.02780729166807,
      "v": 78
    },
    {
      "midi": 61,
      "hit": false,
      "t": 11951.39486458335,
      "d": 45.138911458334405,
      "v": 91
    },
    {
      "midi": 73,
      "hit": false,
      "t": 11951.39486458335,
      "d": 52.08335937500124,
      "v": 104
    },
    {
      "midi": 55,
      "hit": false,
      "t": 11965.283760416683,
      "d": 27.777791666667326,
      "v": 104
    },
    {
      "midi": 51,
      "hit": false,
      "t": 11965.283760416683,
      "d": 38.194463541667574,
      "v": 86
    },
    {
      "midi": 85,
      "hit": false,
      "t": 12229.172781250018,
      "d": 90.27782291666881,
      "v": 82
    },
    {
      "midi": 79,
      "hit": false,
      "t": 12229.172781250018,
      "d": 100.69449479166906,
      "v": 97
    },
    {
      "midi": 73,
      "hit": false,
      "t": 12246.533901041685,
      "d": 62.500031250001484,
      "v": 97
    },
    {
      "midi": 51,
      "hit": false,
      "t": 12260.422796875018,
      "d": 48.61113541666782,
      "v": 86
    },
    {
      "midi": 39,
      "hit": false,
      "t": 12263.895020833352,
      "d": 38.194463541667574,
      "v": 86
    },
    {
      "midi": 77,
      "hit": false,
      "t": 12531.25626562502,
      "d": 97.22227083333382,
      "v": 86
    },
    {
      "midi": 85,
      "hit": false,
      "t": 12531.25626562502,
      "d": 100.69449479166724,
      "v": 97
    },
    {
      "midi": 73,
      "hit": false,
      "t": 12545.145161458353,
      "d": 65.97225520833308,
      "v": 97
    },
    {
      "midi": 51,
      "hit": false,
      "t": 12545.145161458353,
      "d": 72.91670312499991,
      "v": 86
    },
    {
      "midi": 61,
      "hit": false,
      "t": 12548.617385416686,
      "d": 62.500031249999665,
      "v": 97
    },
    {
      "midi": 55,
      "hit": false,
      "t": 12552.08960937502,
      "d": 69.4444791666665,
      "v": 97
    },
    {
      "midi": 85,
      "hit": false,
      "t": 12822.92307812502,
      "d": 93.75004687500041,
      "v": 82
    },
    {
      "midi": 73,
      "hit": false,
      "t": 12829.867526041688,
      "d": 62.500031249999665,
      "v": 78
    },
    {
      "midi": 75,
      "hit": false,
      "t": 12833.339750000021,
      "d": 65.97225520833308,
      "v": 78
    },
    {
      "midi": 79,
      "hit": false,
      "t": 12836.811973958354,
      "d": 79.86115104166674,
      "v": 97
    },
    {
      "midi": 58,
      "hit": false,
      "t": 12840.284197916688,
      "d": 65.97225520833308,
      "v": 97
    },
    {
      "midi": 46,
      "hit": false,
      "t": 12847.228645833355,
      "d": 65.97225520833308,
      "v": 97
    },
    {
      "midi": 75,
      "hit": false,
      "t": 13006.950947916688,
      "d": 166.66675000000214,
      "v": 86
    },
    {
      "midi": 79,
      "hit": false,
      "t": 13006.950947916688,
      "d": 187.50009375000263,
      "v": 113
    },
    {
      "midi": 84,
      "hit": false,
      "t": 13017.367619791688,
      "d": 128.47228645833457,
      "v": 104
    },
    {
      "midi": 72,
      "hit": false,
      "t": 13020.839843750022,
      "d": 118.05561458333432,
      "v": 97
    },
    {
      "midi": 51,
      "hit": false,
      "t": 13131.95101041669,
      "d": 79.86115104166856,
      "v": 82
    },
    {
      "midi": 61,
      "hit": false,
      "t": 13135.423234375023,
      "d": 62.500031250001484,
      "v": 97
    },
    {
      "midi": 55,
      "hit": false,
      "t": 13142.36768229169,
      "d": 62.500031250001484,
      "v": 104
    },
    {
      "midi": 75,
      "hit": false,
      "t": 13270.839968750024,
      "d": 138.8889583333348,
      "v": 86
    },
    {
      "midi": 85,
      "hit": false,
      "t": 13274.312192708358,
      "d": 114.5833906250009,
      "v": 97
    },
    {
      "midi": 79,
      "hit": false,
      "t": 13277.784416666691,
      "d": 135.4167343750014,
      "v": 86
    },
    {
      "midi": 73,
      "hit": false,
      "t": 13281.256640625024,
      "d": 125.00006250000115,
      "v": 113
    },
    {
      "midi": 46,
      "hit": false,
      "t": 13413.201151041692,
      "d": 62.500031249999665,
      "v": 104
    },
    {
      "midi": 58,
      "hit": false,
      "t": 13416.673375000026,
      "d": 48.611135416666,
      "v": 113
    },
    {
      "midi": 62,
      "hit": false,
      "t": 13576.39567708336,
      "d": 62.500031249999665,
      "v": 97
    },
    {
      "midi": 47,
      "hit": false,
      "t": 13673.617947916693,
      "d": 62.500031249999665,
      "v": 113
    },
    {
      "midi": 59,
      "hit": false,
      "t": 13680.56239583336,
      "d": 55.555583333332834,
      "v": 104
    },
    {
      "midi": 63,
      "hit": false,
      "t": 13687.506843750027,
      "d": 76.38892708333333,
      "v": 97
    },
    {
      "midi": 64,
      "hit": false,
      "t": 13850.701369791694,
      "d": 90.27782291666699,
      "v": 82
    },
    {
      "midi": 65,
      "hit": false,
      "t": 13961.812536458361,
      "d": 72.91670312500173,
      "v": 91
    },
    {
      "midi": 48,
      "hit": false,
      "t": 13975.701432291695,
      "d": 65.9722552083349,
      "v": 104
    },
    {
      "midi": 60,
      "hit": false,
      "t": 13979.173656250028,
      "d": 52.08335937500124,
      "v": 113
    },
    {
      "midi": 84,
      "hit": false,
      "t": 14274.312692708363,
      "d": 79.86115104166856,
      "v": 97
    },
    {
      "midi": 75,
      "hit": false,
      "t": 14284.729364583363,
      "d": 55.55558333333465,
      "v": 82
    },
    {
      "midi": 87,
      "hit": false,
      "t": 14284.729364583363,
      "d": 76.38892708333515,
      "v": 91
    },
    {
      "midi": 56,
      "hit": false,
      "t": 14288.201588541697,
      "d": 41.66668750000099,
      "v": 97
    },
    {
      "midi": 51,
      "hit": false,
      "t": 14288.201588541697,
      "d": 52.08335937500124,
      "v": 97
    },
    {
      "midi": 60,
      "hit": false,
      "t": 14291.67381250003,
      "d": 55.55558333333465,
      "v": 97
    },
    {
      "midi": 87,
      "hit": false,
      "t": 14565.979505208365,
      "d": 93.75004687500041,
      "v": 91
    },
    {
      "midi": 75,
      "hit": false,
      "t": 14572.923953125031,
      "d": 65.97225520833308,
      "v": 97
    },
    {
      "midi": 82,
      "hit": false,
      "t": 14572.923953125031,
      "d": 72.91670312499991,
      "v": 82
    },
    {
      "midi": 51,
      "hit": false,
      "t": 14579.868401041698,
      "d": 52.08335937499942,
      "v": 104
    },
    {
      "midi": 39,
      "hit": false,
      "t": 14590.285072916698,
      "d": 48.611135416666,
      "v": 104
    },
    {
      "midi": 51,
      "hit": false,
      "t": 14871.535213541698,
      "d": 65.97225520833308,
      "v": 86
    },
    {
      "midi": 87,
      "hit": false,
      "t": 14871.535213541698,
      "d": 93.75004687500041,
      "v": 97
    },
    {
      "midi": 75,
      "hit": false,
      "t": 14875.007437500031,
      "d": 69.4444791666665,
      "v": 97
    },
    {
      "midi": 80,
      "hit": false,
      "t": 14875.007437500031,
      "d": 83.33337500000016,
      "v": 91
    },
    {
      "midi": 56,
      "hit": false,
      "t": 14878.479661458365,
      "d": 52.08335937499942,
      "v": 97
    },
    {
      "midi": 60,
      "hit": false,
      "t": 14881.951885416698,
      "d": 55.555583333332834,
      "v": 97
    },
    {
      "midi": 80,
      "hit": false,
      "t": 15138.896458333365,
      "d": 86.80559895833358,
      "v": 42
    },
    {
      "midi": 87,
      "hit": false,
      "t": 15152.7853541667,
      "d": 79.86115104166674,
      "v": 86
    },
    {
      "midi": 75,
      "hit": false,
      "t": 15156.257578125033,
      "d": 65.97225520833308,
      "v": 82
    },
    {
      "midi": 44,
      "hit": false,
      "t": 15170.146473958366,
      "d": 52.08335937499942,
      "v": 97
    },
    {
      "midi": 56,
      "hit": false,
      "t": 15170.146473958366,
      "d": 59.02780729166625,
      "v": 104
    },
    {
      "midi": 80,
      "hit": false,
      "t": 15322.924328125033,
      "d": 65.97225520833308,
      "v": 97
    },
    {
      "midi": 74,
      "hit": false,
      "t": 15333.341000000033,
      "d": 55.555583333332834,
      "v": 104
    },
    {
      "midi": 86,
      "hit": false,
      "t": 15333.341000000033,
      "d": 76.38892708333333,
      "v": 113
    },
    {
      "midi": 51,
      "hit": false,
      "t": 15437.507718750034,
      "d": 76.38892708333333,
      "v": 78
    },
    {
      "midi": 60,
      "hit": false,
      "t": 15444.4521666667,
      "d": 86.80559895833358,
      "v": 86
    },
    {
      "midi": 56,
      "hit": false,
      "t": 15447.924390625034,
      "d": 79.86115104166674,
      "v": 68
    },
    {
      "midi": 87,
      "hit": false,
      "t": 15590.2855729167,
      "d": 288.19458854166805,
      "v": 104
    },
    {
      "midi": 80,
      "hit": false,
      "t": 15593.757796875034,
      "d": 246.52790104166706,
      "v": 97
    },
    {
      "midi": 75,
      "hit": false,
      "t": 15597.230020833367,
      "d": 166.66675000000032,
      "v": 104
    },
    {
      "midi": 60,
      "hit": false,
      "t": 15729.174531250033,
      "d": 76.38892708333333,
      "v": 97
    },
    {
      "midi": 48,
      "hit": false,
      "t": 15732.646755208367,
      "d": 76.38892708333333,
      "v": 91
    },
    {
      "midi": 45,
      "hit": false,
      "t": 16031.258015625035,
      "d": 62.500031249999665,
      "v": 113
    },
    {
      "midi": 57,
      "hit": false,
      "t": 16034.730239583369,
      "d": 48.611135416666,
      "v": 104
    },
    {
      "midi": 84,
      "hit": false,
      "t": 16041.674687500035,
      "d": 79.86115104166674,
      "v": 104
    },
    {
      "midi": 85,
      "hit": false,
      "t": 16128.480286458369,
      "d": 114.58339062499908,
      "v": 82
    },
    {
      "midi": 86,
      "hit": false,
      "t": 16215.2858854167,
      "d": 163.1945260416669,
      "v": 91
    },
    {
      "midi": 46,
      "hit": false,
      "t": 16309.035932291701,
      "d": 65.97225520833308,
      "v": 97
    },
    {
      "midi": 58,
      "hit": false,
      "t": 16309.035932291701,
      "d": 69.4444791666665,
      "v": 97
    },
    {
      "midi": 87,
      "hit": false,
      "t": 16309.035932291701,
      "d": 170.1389739583301,
      "v": 86
    },
    {
      "midi": 89,
      "hit": false,
      "t": 16468.758234375033,
      "d": 326.38905208333017,
      "v": 104
    },
    {
      "midi": 55,
      "hit": false,
      "t": 16593.758296875032,
      "d": 76.38892708333151,
      "v": 91
    },
    {
      "midi": 61,
      "hit": false,
      "t": 16597.230520833364,
      "d": 55.55558333333465,
      "v": 86
    },
    {
      "midi": 51,
      "hit": false,
      "t": 16597.230520833364,
      "d": 65.97225520833308,
      "v": 71
    },
    {
      "midi": 84,
      "hit": false,
      "t": 16756.952822916697,
      "d": 76.38892708333151,
      "v": 104
    },
    {
      "midi": 87,
      "hit": false,
      "t": 16892.369557291695,
      "d": 170.13897395833192,
      "v": 104
    },
    {
      "midi": 51,
      "hit": false,
      "t": 16899.31400520836,
      "d": 62.500031250001484,
      "v": 91
    },
    {
      "midi": 39,
      "hit": false,
      "t": 16906.25845312503,
      "d": 55.55558333333465,
      "v": 91
    },
    {
      "midi": 85,
      "hit": false,
      "t": 17045.14741145836,
      "d": 156.25007812499462,
      "v": 97
    },
    {
      "midi": 82,
      "hit": false,
      "t": 17187.508593750026,
      "d": 100.69449479165996,
      "v": 97
    },
    {
      "midi": 51,
      "hit": false,
      "t": 17194.453041666693,
      "d": 76.38892708332787,
      "v": 78
    },
    {
      "midi": 61,
      "hit": false,
      "t": 17197.925265625025,
      "d": 72.91670312499627,
      "v": 82
    },
    {
      "midi": 55,
      "hit": false,
      "t": 17204.869713541688,
      "d": 83.33337499999834,
      "v": 97
    },
    {
      "midi": 79,
      "hit": false,
      "t": 17336.814223958354,
      "d": 104.16671874999884,
      "v": 97
    },
    {
      "midi": 75,
      "hit": false,
      "t": 17489.59207812502,
      "d": 159.7223020833335,
      "v": 104
    },
    {
      "midi": 58,
      "hit": false,
      "t": 17503.480973958354,
      "d": 76.38892708333515,
      "v": 97
    },
    {
      "midi": 46,
      "hit": false,
      "t": 17510.42542187502,
      "d": 72.91670312499991,
      "v": 91
    },
    {
      "midi": 77,
      "hit": false,
      "t": 17649.314380208354,
      "d": 309.0279322916613,
      "v": 91
    },
    {
      "midi": 61,
      "hit": false,
      "t": 17788.203338541687,
      "d": 69.44447916666468,
      "v": 97
    },
    {
      "midi": 51,
      "hit": false,
      "t": 17795.147786458354,
      "d": 65.97225520832944,
      "v": 78
    },
    {
      "midi": 55,
      "hit": false,
      "t": 17812.50890625002,
      "d": 41.66668750000099,
      "v": 91
    },
    {
      "midi": 72,
      "hit": false,
      "t": 17958.342312500015,
      "d": 76.38892708333515,
      "v": 104
    },
    {
      "midi": 75,
      "hit": false,
      "t": 18083.34237500002,
      "d": 93.75004687499313,
      "v": 104
    },
    {
      "midi": 51,
      "hit": false,
      "t": 18086.81459895835,
      "d": 41.66668749999735,
      "v": 91
    },
    {
      "midi": 39,
      "hit": false,
      "t": 18090.28682291668,
      "d": 48.61113541666418,
      "v": 104
    },
    {
      "midi": 73,
      "hit": false,
      "t": 18250.00912500001,
      "d": 59.02780729166625,
      "v": 86
    },
    {
      "midi": 49,
      "hit": false,
      "t": 18368.064739583344,
      "d": 69.44447916666832,
      "v": 91
    },
    {
      "midi": 70,
      "hit": false,
      "t": 18375.00918750001,
      "d": 72.91670312499991,
      "v": 104
    },
    {
      "midi": 37,
      "hit": false,
      "t": 18375.00918750001,
      "d": 79.86115104166674,
      "v": 91
    },
    {
      "midi": 67,
      "hit": false,
      "t": 18527.787041666677,
      "d": 69.44447916666832,
      "v": 86
    },
    {
      "midi": 65,
      "hit": false,
      "t": 18670.148223958346,
      "d": 79.8611510416631,
      "v": 91
    },
    {
      "midi": 36,
      "hit": false,
      "t": 18677.092671875012,
      "d": 27.77779166666369,
      "v": 104
    },
    {
      "midi": 48,
      "hit": false,
      "t": 18680.564895833344,
      "d": 38.194463541665755,
      "v": 91
    },
    {
      "midi": 51,
      "hit": false,
      "t": 18968.75948437501,
      "d": 52.08335937499214,
      "v": 86
    },
    {
      "midi": 56,
      "hit": false,
      "t": 18972.23170833334,
      "d": 52.08335937499214,
      "v": 91
    },
    {
      "midi": 60,
      "hit": false,
      "t": 18979.176156250003,
      "d": 38.194463541665755,
      "v": 97
    },
    {
      "midi": 80,
      "hit": false,
      "t": 18982.648380208335,
      "d": 41.66668749999735,
      "v": 91
    },
    {
      "midi": 84,
      "hit": false,
      "t": 18989.592828125,
      "d": 59.02780729166261,
      "v": 97
    },
    {
      "midi": 72,
      "hit": false,
      "t": 18996.53727604167,
      "d": 34.72223958333052,
      "v": 97
    },
    {
      "midi": 79,
      "hit": false,
      "t": 19267.370744791664,
      "d": 90.27782291666517,
      "v": 104
    },
    {
      "midi": 84,
      "hit": false,
      "t": 19270.842968749996,
      "d": 90.27782291666517,
      "v": 104
    },
    {
      "midi": 51,
      "hit": false,
      "t": 19284.73186458333,
      "d": 41.66668750000099,
      "v": 97
    },
    {
      "midi": 39,
      "hit": false,
      "t": 19284.73186458333,
      "d": 45.138911458332586,
      "v": 97
    },
    {
      "midi": 72,
      "hit": false,
      "t": 19284.73186458333,
      "d": 59.02780729166625,
      "v": 97
    },
    {
      "midi": 51,
      "hit": false,
      "t": 19565.982005208327,
      "d": 62.50003124999421,
      "v": 86
    },
    {
      "midi": 56,
      "hit": false,
      "t": 19569.45422916666,
      "d": 65.97225520832944,
      "v": 91
    },
    {
      "midi": 60,
      "hit": false,
      "t": 19572.92645312499,
      "d": 55.555583333331015,
      "v": 97
    },
    {
      "midi": 84,
      "hit": false,
      "t": 19583.34312499999,
      "d": 79.8611510416631,
      "v": 104
    },
    {
      "midi": 77,
      "hit": false,
      "t": 19586.81534895832,
      "d": 72.91670312499991,
      "v": 91
    },
    {
      "midi": 72,
      "hit": false,
      "t": 19586.81534895832,
      "d": 76.38892708333151,
      "v": 97
    },
    {
      "midi": 75,
      "hit": false,
      "t": 19878.48216145832,
      "d": 52.08335937499578,
      "v": 86
    },
    {
      "midi": 84,
      "hit": false,
      "t": 19878.48216145832,
      "d": 65.97225520832217,
      "v": 97
    },
    {
      "midi": 72,
      "hit": false,
      "t": 19881.95438541665,
      "d": 52.08335937499578,
      "v": 97
    },
    {
      "midi": 56,
      "hit": false,
      "t": 19885.426609374983,
      "d": 52.08335937499578,
      "v": 97
    },
    {
      "midi": 44,
      "hit": false,
      "t": 19888.898833333315,
      "d": 52.08335937499578,
      "v": 97
    },
    {
      "midi": 75,
      "hit": false,
      "t": 20034.732239583307,
      "d": 104.16671874999884,
      "v": 91
    },
    {
      "midi": 83,
      "hit": false,
      "t": 20038.20446354164,
      "d": 118.0556145833325,
      "v": 104
    },
    {
      "midi": 71,
      "hit": false,
      "t": 20045.148911458306,
      "d": 69.44447916666832,
      "v": 104
    },
    {
      "midi": 51,
      "hit": false,
      "t": 20145.843406249973,
      "d": 72.91670312499627,
      "v": 78
    },
    {
      "midi": 56,
      "hit": false,
      "t": 20145.843406249973,
      "d": 76.38892708332787,
      "v": 86
    },
    {
      "midi": 60,
      "hit": false,
      "t": 20159.732302083303,
      "d": 48.61113541666782,
      "v": 91
    },
    {
      "midi": 84,
      "hit": false,
      "t": 20319.454604166633,
      "d": 197.91676562499924,
      "v": 113
    },
    {
      "midi": 75,
      "hit": false,
      "t": 20319.454604166633,
      "d": 229.16678124999817,
      "v": 104
    },
    {
      "midi": 72,
      "hit": false,
      "t": 20326.3990520833,
      "d": 187.50009375000081,
      "v": 113
    },
    {
      "midi": 45,
      "hit": false,
      "t": 20447.926890624967,
      "d": 59.02780729166625,
      "v": 113
    },
    {
      "midi": 57,
      "hit": false,
      "t": 20447.926890624967,
      "d": 59.02780729166625,
      "v": 113
    },
    {
      "midi": 75,
      "hit": false,
      "t": 20746.53815104163,
      "d": 65.9722552083258,
      "v": 104
    },
    {
      "midi": 78,
      "hit": false,
      "t": 20746.53815104163,
      "d": 65.9722552083258,
      "v": 104
    },
    {
      "midi": 83,
      "hit": false,
      "t": 20750.01037499996,
      "d": 72.91670312499264,
      "v": 113
    },
    {
      "midi": 63,
      "hit": false,
      "t": 20753.482598958293,
      "d": 55.555583333331015,
      "v": 97
    },
    {
      "midi": 57,
      "hit": false,
      "t": 20753.482598958293,
      "d": 65.97225520832944,
      "v": 97
    },
    {
      "midi": 59,
      "hit": false,
      "t": 20753.482598958293,
      "d": 65.97225520832944,
      "v": 97
    },
    {
      "midi": 71,
      "hit": false,
      "t": 20756.954822916625,
      "d": 48.61113541666782,
      "v": 113
    },
    {
      "midi": 54,
      "hit": false,
      "t": 20756.954822916625,
      "d": 65.97225520832944,
      "v": 97
    },
    {
      "midi": 58,
      "hit": false,
      "t": 21045.14941145829,
      "d": 55.555583333331015,
      "v": 104
    },
    {
      "midi": 46,
      "hit": false,
      "t": 21052.093859374956,
      "d": 48.61113541666418,
      "v": 97
    },
    {
      "midi": 82,
      "hit": false,
      "t": 21055.566083333288,
      "d": 69.44447916666468,
      "v": 97
    },
    {
      "midi": 75,
      "hit": false,
      "t": 21065.982755208286,
      "d": 52.08335937499942,
      "v": 91
    },
    {
      "midi": 70,
      "hit": false,
      "t": 21072.927203124953,
      "d": 41.66668750000099,
      "v": 104
    },
    {
      "midi": 63,
      "hit": false,
      "t": 21340.28844791662,
      "d": 59.027807291658974,
      "v": 91
    },
    {
      "midi": 58,
      "hit": false,
      "t": 21347.232895833287,
      "d": 52.08335937499214,
      "v": 78
    },
    {
      "midi": 55,
      "hit": false,
      "t": 21350.70511979162,
      "d": 72.91670312499264,
      "v": 104
    },
    {
      "midi": 82,
      "hit": false,
      "t": 21361.121791666617,
      "d": 83.33337499999107,
      "v": 104
    },
    {
      "midi": 70,
      "hit": false,
      "t": 21364.59401562495,
      "d": 65.97225520832944,
      "v": 104
    },
    {
      "midi": 75,
      "hit": false,
      "t": 21368.06623958328,
      "d": 65.97225520832944,
      "v": 91
    },
    {
      "midi": 81,
      "hit": false,
      "t": 21649.316380208274,
      "d": 118.05561458332522,
      "v": 104
    },
    {
      "midi": 46,
      "hit": false,
      "t": 21652.788604166606,
      "d": 72.91670312499264,
      "v": 86
    },
    {
      "midi": 78,
      "hit": false,
      "t": 21652.788604166606,
      "d": 125.00006249999205,
      "v": 78
    },
    {
      "midi": 58,
      "hit": false,
      "t": 21656.260828124938,
      "d": 55.55558333332738,
      "v": 97
    },
    {
      "midi": 75,
      "hit": false,
      "t": 21666.677499999936,
      "d": 86.80559895832994,
      "v": 82
    },
    {
      "midi": 69,
      "hit": false,
      "t": 21670.149723958268,
      "d": 69.44447916666468,
      "v": 97
    },
    {
      "midi": 43,
      "hit": false,
      "t": 21944.4554166666,
      "d": 90.2778229166579,
      "v": 97
    },
    {
      "midi": 82,
      "hit": false,
      "t": 21947.92764062493,
      "d": 121.52783854166046,
      "v": 91
    },
    {
      "midi": 75,
      "hit": false,
      "t": 21951.39986458326,
      "d": 90.27782291666153,
      "v": 82
    },
    {
      "midi": 79,
      "hit": false,
      "t": 21951.39986458326,
      "d": 104.1667187499952,
      "v": 104
    },
    {
      "midi": 70,
      "hit": false,
      "t": 21965.288760416595,
      "d": 59.02780729166261,
      "v": 104
    },
    {
      "midi": 55,
      "hit": false,
      "t": 21982.64988020826,
      "d": 31.250015624998923,
      "v": 78
    },
    {
      "midi": 77,
      "hit": false,
      "t": 22250.011124999925,
      "d": 104.1667187499952,
      "v": 91
    },
    {
      "midi": 80,
      "hit": false,
      "t": 22250.011124999925,
      "d": 104.1667187499952,
      "v": 91
    },
    {
      "midi": 83,
      "hit": false,
      "t": 22253.483348958256,
      "d": 111.11116666666203,
      "v": 97
    },
    {
      "midi": 71,
      "hit": false,
      "t": 22263.900020833255,
      "d": 72.91670312499991,
      "v": 113
    },
    {
      "midi": 53,
      "hit": false,
      "t": 22270.84446874992,
      "d": 59.02780729166625,
      "v": 97
    },
    {
      "midi": 41,
      "hit": false,
      "t": 22277.78891666659,
      "d": 27.777791666667326,
      "v": 78
    },
    {
      "midi": 53,
      "hit": false,
      "t": 22562.511281249917,
      "d": 65.9722552083258,
      "v": 91
    },
    {
      "midi": 56,
      "hit": false,
      "t": 22562.511281249917,
      "d": 65.9722552083258,
      "v": 91
    },
    {
      "midi": 77,
      "hit": false,
      "t": 22572.927953124916,
      "d": 79.86115104165583,
      "v": 91
    },
    {
      "midi": 80,
      "hit": false,
      "t": 22572.927953124916,
      "d": 79.86115104165583,
      "v": 91
    },
    {
      "midi": 84,
      "hit": false,
      "t": 22572.927953124916,
      "d": 86.80559895832266,
      "v": 113
    },
    {
      "midi": 72,
      "hit": false,
      "t": 22576.400177083247,
      "d": 65.9722552083258,
      "v": 113
    },
    {
      "midi": 62,
      "hit": false,
      "t": 22586.816848958246,
      "d": 31.250015624998923,
      "v": 86
    },
    {
      "midi": 58,
      "hit": false,
      "t": 22600.70574479158,
      "d": 31.250015624995285,
      "v": 82
    },
    {
      "midi": 80,
      "hit": false,
      "t": 22878.48366145824,
      "d": 65.9722552083258,
      "v": 91
    },
    {
      "midi": 85,
      "hit": false,
      "t": 22878.48366145824,
      "d": 72.91670312499264,
      "v": 97
    },
    {
      "midi": 82,
      "hit": false,
      "t": 22892.372557291572,
      "d": 41.666687499993714,
      "v": 86
    },
    {
      "midi": 46,
      "hit": false,
      "t": 22895.844781249903,
      "d": 31.250015624998923,
      "v": 97
    },
    {
      "midi": 73,
      "hit": false,
      "t": 22895.844781249903,
      "d": 48.611135416660545,
      "v": 104
    },
    {
      "midi": 34,
      "hit": false,
      "t": 22899.317005208235,
      "d": 20.833343750000495,
      "v": 91
    },
    {
      "midi": 80,
      "hit": false,
      "t": 23034.73373958323,
      "d": 79.86115104166674,
      "v": 97
    },
    {
      "midi": 86,
      "hit": false,
      "t": 23041.678187499896,
      "d": 104.16671874999884,
      "v": 113
    },
    {
      "midi": 82,
      "hit": false,
      "t": 23048.622635416563,
      "d": 48.61113541666782,
      "v": 91
    },
    {
      "midi": 74,
      "hit": false,
      "t": 23055.56708333323,
      "d": 45.138911458332586,
      "v": 104
    },
    {
      "midi": 58,
      "hit": false,
      "t": 23159.73380208323,
      "d": 48.611135416660545,
      "v": 97
    },
    {
      "midi": 53,
      "hit": false,
      "t": 23163.20602604156,
      "d": 48.611135416660545,
      "v": 86
    },
    {
      "midi": 56,
      "hit": false,
      "t": 23166.67824999989,
      "d": 34.72223958333052,
      "v": 91
    },
    {
      "midi": 62,
      "hit": false,
      "t": 23170.150473958223,
      "d": 38.194463541665755,
      "v": 104
    },
    {
      "midi": 75,
      "hit": false,
      "t": 23357.65056770822,
      "d": 1381.945135416663,
      "v": 97
    },
    {
      "midi": 79,
      "hit": false,
      "t": 23416.678374999887,
      "d": 1361.1117916666626,
      "v": 97
    },
    {
      "midi": 82,
      "hit": false,
      "t": 23451.40061458322,
      "d": 1298.6117604166611,
      "v": 97
    },
    {
      "midi": 87,
      "hit": false,
      "t": 23472.23395833322,
      "d": 1312.5006562499948,
      "v": 113
    },
    {
      "midi": 51,
      "hit": false,
      "t": 23475.706182291553,
      "d": 52.08335937499942,
      "v": 104
    },
    {
      "midi": 39,
      "hit": false,
      "t": 23482.65063020822,
      "d": 45.138911458332586,
      "v": 97
    },
    {
      "midi": 60,
      "hit": false,
      "t": 23770.845218749888,
      "d": 48.61113541666418,
      "v": 97
    },
    {
      "midi": 48,
      "hit": false,
      "t": 23781.261890624886,
      "d": 38.194463541665755,
      "v": 91
    },
    {
      "midi": 46,
      "hit": false,
      "t": 23940.98419270822,
      "d": 52.08335937499942,
      "v": 97
    },
    {
      "midi": 58,
      "hit": false,
      "t": 23944.45641666655,
      "d": 52.08335937499942,
      "v": 104
    },
    {
      "midi": 55,
      "hit": false,
      "t": 24239.595453124883,
      "d": 41.66668750000099,
      "v": 97
    },
    {
      "midi": 43,
      "hit": false,
      "t": 24246.53990104155,
      "d": 41.66668750000099,
      "v": 104
    },
    {
      "midi": 41,
      "hit": false,
      "t": 24364.595515624886,
      "d": 55.555583333331015,
      "v": 113
    },
    {
      "midi": 53,
      "hit": false,
      "t": 24368.067739583217,
      "d": 48.61113541666782,
      "v": 113
    },
    {
      "midi": 51,
      "hit": false,
      "t": 24687.512343749884,
      "d": 59.02780729166625,
      "v": 104
    },
    {
      "midi": 39,
      "hit": false,
      "t": 24694.45679166655,
      "d": 52.08335937499942,
      "v": 104
    },
    {
      "midi": 39,
      "hit": false,
      "t": 25350.70711979155,
      "d": 48.611135416660545,
      "v": 104
    },
    {
      "midi": 94,
      "hit": false,
      "t": 25354.17934374988,
      "d": 59.02780729166261,
      "v": 97
    },
    {
      "midi": 99,
      "hit": false,
      "t": 25354.17934374988,
      "d": 76.38892708332787,
      "v": 113
    },
    {
      "midi": 27,
      "hit": false,
      "t": 25361.12379166655,
      "d": 34.72223958333052,
      "v": 104
    },
    {
      "midi": 87,
      "hit": false,
      "t": 25361.12379166655,
      "d": 59.02780729166261,
      "v": 97
    },
    {
      "midi": 91,
      "hit": false,
      "t": 25364.59601562488,
      "d": 72.91670312499627,
      "v": 97
    },
    {
      "midi": 84,
      "hit": false,
      "t": 25666.67949999988,
      "d": 90.27782291666517,
      "v": 113
    },
    {
      "midi": 85,
      "hit": false,
      "t": 25739.59620312488,
      "d": 131.94451041666616,
      "v": 82
    },
    {
      "midi": 86,
      "hit": false,
      "t": 25809.040682291543,
      "d": 180.55564583333762,
      "v": 104
    },
    {
      "midi": 87,
      "hit": false,
      "t": 25892.374057291545,
      "d": 194.44454166666765,
      "v": 97
    },
    {
      "midi": 46,
      "hit": false,
      "t": 25947.92964062488,
      "d": 90.27782291666517,
      "v": 97
    },
    {
      "midi": 58,
      "hit": false,
      "t": 25954.874088541546,
      "d": 79.86115104166674,
      "v": 104
    },
    {
      "midi": 89,
      "hit": false,
      "t": 26097.23527083321,
      "d": 194.444541666664,
      "v": 104
    },
    {
      "midi": 61,
      "hit": false,
      "t": 26239.59645312488,
      "d": 52.08335937499578,
      "v": 97
    },
    {
      "midi": 51,
      "hit": false,
      "t": 26243.06867708321,
      "d": 55.555583333331015,
      "v": 82
    },
    {
      "midi": 55,
      "hit": false,
      "t": 26246.540901041542,
      "d": 38.194463541665755,
      "v": 104
    },
    {
      "midi": 84,
      "hit": false,
      "t": 26375.013187499877,
      "d": 65.97225520833308,
      "v": 97
    },
    {
      "midi": 87,
      "hit": false,
      "t": 26517.374369791545,
      "d": 180.55564583333398,
      "v": 104
    },
    {
      "midi": 51,
      "hit": false,
      "t": 26548.624385416544,
      "d": 55.55558333333465,
      "v": 91
    },
    {
      "midi": 39,
      "hit": false,
      "t": 26548.624385416544,
      "d": 62.500031250001484,
      "v": 86
    },
    {
      "midi": 85,
      "hit": false,
      "t": 26680.568895833214,
      "d": 166.66674999999668,
      "v": 97
    },
    {
      "midi": 82,
      "hit": false,
      "t": 26819.457854166547,
      "d": 97.22227083332837,
      "v": 104
    },
    {
      "midi": 51,
      "hit": false,
      "t": 26826.402302083214,
      "d": 90.27782291666153,
      "v": 74
    },
    {
      "midi": 61,
      "hit": false,
      "t": 26836.818973958212,
      "d": 62.500031249997846,
      "v": 91
    },
    {
      "midi": 55,
      "hit": false,
      "t": 26836.818973958212,
      "d": 93.75004687499677,
      "v": 97
    },
    {
      "midi": 79,
      "hit": false,
      "t": 26958.346812499876,
      "d": 97.222270833332,
      "v": 97
    },
    {
      "midi": 46,
      "hit": false,
      "t": 27107.652442708208,
      "d": 114.58339062499726,
      "v": 91
    },
    {
      "midi": 58,
      "hit": false,
      "t": 27111.12466666654,
      "d": 142.3611822916646,
      "v": 104
    },
    {
      "midi": 75,
      "hit": false,
      "t": 27128.485786458205,
      "d": 118.0556145833325,
      "v": 86
    },
    {
      "midi": 77,
      "hit": false,
      "t": 27295.152536458205,
      "d": 246.52790104166706,
      "v": 97
    },
    {
      "midi": 61,
      "hit": false,
      "t": 27409.735927083206,
      "d": 69.44447916666832,
      "v": 97
    },
    {
      "midi": 51,
      "hit": false,
      "t": 27416.680374999873,
      "d": 65.97225520833308,
      "v": 74
    },
    {
      "midi": 55,
      "hit": false,
      "t": 27416.680374999873,
      "d": 79.86115104166674,
      "v": 97
    },
    {
      "midi": 72,
      "hit": false,
      "t": 27555.569333333206,
      "d": 76.38892708333515,
      "v": 104
    },
    {
      "midi": 75,
      "hit": false,
      "t": 27704.87496354154,
      "d": 90.27782291666153,
      "v": 104
    },
    {
      "midi": 39,
      "hit": false,
      "t": 27708.347187499872,
      "d": 55.555583333331015,
      "v": 104
    },
    {
      "midi": 51,
      "hit": false,
      "t": 27711.819411458204,
      "d": 41.66668750000099,
      "v": 97
    },
    {
      "midi": 73,
      "hit": false,
      "t": 27871.541713541537,
      "d": 59.02780729166625,
      "v": 86
    },
    {
      "midi": 49,
      "hit": false,
      "t": 28000.013999999872,
      "d": 65.97225520832944,
      "v": 97
    },
    {
      "midi": 70,
      "hit": false,
      "t": 28000.013999999872,
      "d": 76.38892708332787,
      "v": 97
    },
    {
      "midi": 37,
      "hit": false,
      "t": 28003.486223958203,
      "d": 69.44447916666468,
      "v": 97
    },
    {
      "midi": 67,
      "hit": false,
      "t": 28138.9029583332,
      "d": 72.91670312499991,
      "v": 91
    },
    {
      "midi": 65,
      "hit": false,
      "t": 28288.208588541536,
      "d": 69.4444791666574,
      "v": 91
    },
    {
      "midi": 36,
      "hit": false,
      "t": 28291.680812499868,
      "d": 48.61113541666418,
      "v": 104
    },
    {
      "midi": 48,
      "hit": false,
      "t": 28302.097484374866,
      "d": 45.13891145832895,
      "v": 97
    },
    {
      "midi": 51,
      "hit": false,
      "t": 28600.708744791526,
      "d": 45.13891145832895,
      "v": 86
    },
    {
      "midi": 56,
      "hit": false,
      "t": 28600.708744791526,
      "d": 48.611135416660545,
      "v": 97
    },
    {
      "midi": 60,
      "hit": false,
      "t": 28611.125416666524,
      "d": 27.77779166666369,
      "v": 104
    },
    {
      "midi": 80,
      "hit": false,
      "t": 28611.125416666524,
      "d": 45.13891145832895,
      "v": 91
    },
    {
      "midi": 72,
      "hit": false,
      "t": 28614.597640624856,
      "d": 34.72223958333052,
      "v": 104
    },
    {
      "midi": 84,
      "hit": false,
      "t": 28614.597640624856,
      "d": 48.61113541666418,
      "v": 97
    },
    {
      "midi": 79,
      "hit": false,
      "t": 28902.79222916652,
      "d": 83.33337499998743,
      "v": 104
    },
    {
      "midi": 51,
      "hit": false,
      "t": 28906.26445312485,
      "d": 48.611135416660545,
      "v": 104
    },
    {
      "midi": 84,
      "hit": false,
      "t": 28909.736677083183,
      "d": 76.38892708332423,
      "v": 97
    },
    {
      "midi": 72,
      "hit": false,
      "t": 28913.208901041515,
      "d": 62.50003124999421,
      "v": 104
    },
    {
      "midi": 39,
      "hit": false,
      "t": 28916.681124999846,
      "d": 48.61113541666418,
      "v": 104
    },
    {
      "midi": 51,
      "hit": false,
      "t": 29197.93126562484,
      "d": 59.027807291658974,
      "v": 86
    },
    {
      "midi": 77,
      "hit": false,
      "t": 29201.403489583172,
      "d": 62.50003124999421,
      "v": 91
    },
    {
      "midi": 56,
      "hit": false,
      "t": 29204.875713541504,
      "d": 45.13891145832895,
      "v": 91
    },
    {
      "midi": 84,
      "hit": false,
      "t": 29204.875713541504,
      "d": 65.97225520832944,
      "v": 104
    },
    {
      "midi": 72,
      "hit": false,
      "t": 29208.347937499835,
      "d": 62.500031249997846,
      "v": 97
    },
    {
      "midi": 60,
      "hit": false,
      "t": 29211.820161458167,
      "d": 38.194463541665755,
      "v": 104
    },
    {
      "midi": 84,
      "hit": false,
      "t": 29517.3758697915,
      "d": 65.9722552083258,
      "v": 97
    },
    {
      "midi": 75,
      "hit": false,
      "t": 29520.84809374983,
      "d": 41.66668750000099,
      "v": 82
    },
    {
      "midi": 72,
      "hit": false,
      "t": 29520.84809374983,
      "d": 52.08335937499942,
      "v": 104
    },
    {
      "midi": 56,
      "hit": false,
      "t": 29534.736989583165,
      "d": 41.66668749999735,
      "v": 97
    },
    {
      "midi": 44,
      "hit": false,
      "t": 29534.736989583165,
      "d": 45.13891145832895,
      "v": 97
    },
    {
      "midi": 75,
      "hit": false,
      "t": 29666.681499999824,
      "d": 59.02780729166261,
      "v": 86
    },
    {
      "midi": 83,
      "hit": false,
      "t": 29670.153723958156,
      "d": 65.97225520832944,
      "v": 104
    },
    {
      "midi": 71,
      "hit": false,
      "t": 29673.625947916487,
      "d": 45.138911458332586,
      "v": 104
    },
    {
      "midi": 51,
      "hit": false,
      "t": 29774.32044270815,
      "d": 62.500031249997846,
      "v": 91
    },
    {
      "midi": 56,
      "hit": false,
      "t": 29781.264890624818,
      "d": 45.138911458332586,
      "v": 91
    },
    {
      "midi": 60,
      "hit": false,
      "t": 29784.73711458315,
      "d": 48.61113541666782,
      "v": 104
    },
    {
      "midi": 84,
      "hit": false,
      "t": 29944.459416666483,
      "d": 104.16671874999884,
      "v": 113
    },
    {
      "midi": 75,
      "hit": false,
      "t": 29944.459416666483,
      "d": 128.47228645833093,
      "v": 97
    },
    {
      "midi": 72,
      "hit": false,
      "t": 29947.931640624814,
      "d": 131.94451041666616,
      "v": 113
    },
    {
      "midi": 48,
      "hit": false,
      "t": 30086.820598958147,
      "d": 55.55558333333465,
      "v": 97
    },
    {
      "midi": 60,
      "hit": false,
      "t": 30086.820598958147,
      "d": 62.500031250001484,
      "v": 97
    },
    {
      "midi": 62,
      "hit": false,
      "t": 30267.37624479148,
      "d": 55.55558333333465,
      "v": 91
    },
    {
      "midi": 57,
      "hit": false,
      "t": 30375.015187499816,
      "d": 59.02780729166625,
      "v": 97
    },
    {
      "midi": 45,
      "hit": false,
      "t": 30375.015187499816,
      "d": 65.97225520833308,
      "v": 104
    },
    {
      "midi": 63,
      "hit": false,
      "t": 30375.015187499816,
      "d": 79.86115104166674,
      "v": 91
    },
    {
      "midi": 64,
      "hit": false,
      "t": 30527.793041666482,
      "d": 69.44447916666832,
      "v": 97
    },
    {
      "midi": 65,
      "hit": false,
      "t": 30642.376432291483,
      "d": 62.500031249997846,
      "v": 104
    },
    {
      "midi": 46,
      "hit": false,
      "t": 30666.681999999815,
      "d": 55.555583333331015,
      "v": 97
    },
    {
      "midi": 58,
      "hit": false,
      "t": 30673.626447916482,
      "d": 48.61113541666418,
      "v": 104
    },
    {
      "midi": 85,
      "hit": false,
      "t": 30944.45991666648,
      "d": 72.916703124989,
      "v": 97
    },
    {
      "midi": 80,
      "hit": false,
      "t": 30947.932140624813,
      "d": 59.027807291658974,
      "v": 78
    },
    {
      "midi": 61,
      "hit": false,
      "t": 30951.404364583144,
      "d": 45.13891145832895,
      "v": 91
    },
    {
      "midi": 73,
      "hit": false,
      "t": 30951.404364583144,
      "d": 52.08335937499578,
      "v": 104
    },
    {
      "midi": 55,
      "hit": false,
      "t": 30965.293260416478,
      "d": 27.77779166666369,
      "v": 104
    },
    {
      "midi": 51,
      "hit": false,
      "t": 30965.293260416478,
      "d": 38.19446354166212,
      "v": 86
    },
    {
      "midi": 85,
      "hit": false,
      "t": 31229.182281249803,
      "d": 90.27782291666153,
      "v": 82
    },
    {
      "midi": 79,
      "hit": false,
      "t": 31229.182281249803,
      "d": 100.69449479165996,
      "v": 97
    },
    {
      "midi": 73,
      "hit": false,
      "t": 31246.54340104147,
      "d": 62.500031249997846,
      "v": 97
    },
    {
      "midi": 51,
      "hit": false,
      "t": 31260.432296874802,
      "d": 48.61113541666418,
      "v": 86
    },
    {
      "midi": 39,
      "hit": false,
      "t": 31263.904520833134,
      "d": 38.194463541665755,
      "v": 86
    },
    {
      "midi": 77,
      "hit": false,
      "t": 31531.265765624797,
      "d": 97.22227083332837,
      "v": 86
    },
    {
      "midi": 85,
      "hit": false,
      "t": 31531.265765624797,
      "d": 100.69449479165996,
      "v": 97
    },
    {
      "midi": 73,
      "hit": false,
      "t": 31545.15466145813,
      "d": 65.97225520832944,
      "v": 97
    },
    {
      "midi": 51,
      "hit": false,
      "t": 31545.15466145813,
      "d": 72.91670312499627,
      "v": 86
    },
    {
      "midi": 61,
      "hit": false,
      "t": 31548.626885416463,
      "d": 62.500031249997846,
      "v": 97
    },
    {
      "midi": 55,
      "hit": false,
      "t": 31552.099109374794,
      "d": 69.44447916666468,
      "v": 97
    },
    {
      "midi": 85,
      "hit": false,
      "t": 31822.93257812479,
      "d": 93.7500468749895,
      "v": 82
    },
    {
      "midi": 73,
      "hit": false,
      "t": 31829.877026041457,
      "d": 62.50003124999421,
      "v": 78
    },
    {
      "midi": 75,
      "hit": false,
      "t": 31833.34924999979,
      "d": 65.97225520832944,
      "v": 78
    },
    {
      "midi": 79,
      "hit": false,
      "t": 31836.82147395812,
      "d": 79.86115104165947,
      "v": 97
    },
    {
      "midi": 58,
      "hit": false,
      "t": 31840.29369791645,
      "d": 65.97225520832944,
      "v": 97
    },
    {
      "midi": 46,
      "hit": false,
      "t": 31847.23814583312,
      "d": 65.97225520832944,
      "v": 97
    },
    {
      "midi": 75,
      "hit": false,
      "t": 32006.960447916445,
      "d": 166.6667499999894,
      "v": 86
    },
    {
      "midi": 79,
      "hit": false,
      "t": 32006.960447916445,
      "d": 187.5000937499899,
      "v": 113
    },
    {
      "midi": 84,
      "hit": false,
      "t": 32017.377119791443,
      "d": 128.47228645832365,
      "v": 104
    },
    {
      "midi": 72,
      "hit": false,
      "t": 32020.849343749775,
      "d": 118.05561458332886,
      "v": 97
    },
    {
      "midi": 51,
      "hit": false,
      "t": 32131.96051041644,
      "d": 79.86115104165947,
      "v": 82
    },
    {
      "midi": 61,
      "hit": false,
      "t": 32135.432734374772,
      "d": 62.50003124999421,
      "v": 97
    },
    {
      "midi": 55,
      "hit": false,
      "t": 32142.377182291435,
      "d": 62.500031249997846,
      "v": 104
    },
    {
      "midi": 75,
      "hit": false,
      "t": 32270.849468749766,
      "d": 138.88895833332572,
      "v": 86
    },
    {
      "midi": 85,
      "hit": false,
      "t": 32274.321692708098,
      "d": 114.58339062499726,
      "v": 97
    },
    {
      "midi": 79,
      "hit": false,
      "t": 32277.79391666643,
      "d": 135.41673437499412,
      "v": 86
    },
    {
      "midi": 73,
      "hit": false,
      "t": 32281.26614062476,
      "d": 125.00006249999933,
      "v": 113
    },
    {
      "midi": 46,
      "hit": false,
      "t": 32413.210651041423,
      "d": 62.500031249997846,
      "v": 104
    },
    {
      "midi": 58,
      "hit": false,
      "t": 32416.682874999755,
      "d": 48.61113541666782,
      "v": 113
    },
    {
      "midi": 62,
      "hit": false,
      "t": 32576.40517708309,
      "d": 62.500031250001484,
      "v": 97
    },
    {
      "midi": 47,
      "hit": false,
      "t": 32673.627447916424,
      "d": 62.500031249997846,
      "v": 113
    },
    {
      "midi": 59,
      "hit": false,
      "t": 32680.57189583309,
      "d": 55.555583333331015,
      "v": 104
    },
    {
      "midi": 63,
      "hit": false,
      "t": 32687.516343749758,
      "d": 76.38892708333151,
      "v": 97
    },
    {
      "midi": 64,
      "hit": false,
      "t": 32850.71086979142,
      "d": 90.27782291666517,
      "v": 82
    },
    {
      "midi": 65,
      "hit": false,
      "t": 32961.822036458085,
      "d": 72.91670312500355,
      "v": 91
    },
    {
      "midi": 48,
      "hit": false,
      "t": 32975.71093229142,
      "d": 65.97225520833308,
      "v": 104
    },
    {
      "midi": 60,
      "hit": false,
      "t": 32979.183156249754,
      "d": 52.08335937499942,
      "v": 113
    },
    {
      "midi": 84,
      "hit": false,
      "t": 33274.32219270808,
      "d": 79.86115104165947,
      "v": 97
    },
    {
      "midi": 75,
      "hit": false,
      "t": 33284.73886458308,
      "d": 55.55558333333465,
      "v": 82
    },
    {
      "midi": 87,
      "hit": false,
      "t": 33284.73886458308,
      "d": 76.38892708332423,
      "v": 91
    },
    {
      "midi": 56,
      "hit": false,
      "t": 33288.211088541415,
      "d": 41.66668750000099,
      "v": 97
    },
    {
      "midi": 51,
      "hit": false,
      "t": 33288.211088541415,
      "d": 52.08335937499942,
      "v": 97
    },
    {
      "midi": 60,
      "hit": false,
      "t": 33291.68331249975,
      "d": 55.55558333332738,
      "v": 97
    },
    {
      "midi": 87,
      "hit": false,
      "t": 33565.989005208074,
      "d": 93.75004687498586,
      "v": 91
    },
    {
      "midi": 75,
      "hit": false,
      "t": 33572.93345312474,
      "d": 65.9722552083258,
      "v": 97
    },
    {
      "midi": 82,
      "hit": false,
      "t": 33572.93345312474,
      "d": 72.916703124989,
      "v": 82
    },
    {
      "midi": 51,
      "hit": false,
      "t": 33579.8779010414,
      "d": 52.08335937499942,
      "v": 104
    },
    {
      "midi": 39,
      "hit": false,
      "t": 33590.2945729164,
      "d": 48.61113541666418,
      "v": 104
    },
    {
      "midi": 51,
      "hit": false,
      "t": 33871.54471354139,
      "d": 65.97225520833308,
      "v": 86
    },
    {
      "midi": 87,
      "hit": false,
      "t": 33871.54471354139,
      "d": 93.75004687499313,
      "v": 97
    },
    {
      "midi": 75,
      "hit": false,
      "t": 33875.01693749973,
      "d": 69.44447916666104,
      "v": 97
    },
    {
      "midi": 80,
      "hit": false,
      "t": 33875.01693749973,
      "d": 83.3333749999947,
      "v": 91
    },
    {
      "midi": 56,
      "hit": false,
      "t": 33878.48916145806,
      "d": 52.08335937499942,
      "v": 97
    },
    {
      "midi": 60,
      "hit": false,
      "t": 33881.9613854164,
      "d": 55.55558333332738,
      "v": 97
    },
    {
      "midi": 80,
      "hit": false,
      "t": 34138.90595833305,
      "d": 86.80559895833721,
      "v": 42
    },
    {
      "midi": 87,
      "hit": false,
      "t": 34152.794854166386,
      "d": 79.86115104167402,
      "v": 86
    },
    {
      "midi": 75,
      "hit": false,
      "t": 34156.26707812472,
      "d": 65.97225520833308,
      "v": 82
    },
    {
      "midi": 44,
      "hit": false,
      "t": 34170.155973958055,
      "d": 52.08335937499942,
      "v": 97
    },
    {
      "midi": 56,
      "hit": false,
      "t": 34170.155973958055,
      "d": 59.02780729166989,
      "v": 104
    },
    {
      "midi": 80,
      "hit": false,
      "t": 34322.933828124726,
      "d": 65.9722552083258,
      "v": 97
    },
    {
      "midi": 74,
      "hit": false,
      "t": 34333.350499999724,
      "d": 55.55558333332738,
      "v": 104
    },
    {
      "midi": 86,
      "hit": false,
      "t": 34333.350499999724,
      "d": 76.38892708332423,
      "v": 113
    },
    {
      "midi": 51,
      "hit": false,
      "t": 34437.517218749716,
      "d": 76.38892708333151,
      "v": 78
    },
    {
      "midi": 60,
      "hit": false,
      "t": 34444.46166666638,
      "d": 86.80559895833721,
      "v": 86
    },
    {
      "midi": 56,
      "hit": false,
      "t": 34447.933890624714,
      "d": 79.86115104166674,
      "v": 68
    },
    {
      "midi": 87,
      "hit": false,
      "t": 34590.295072916386,
      "d": 288.1945885416717,
      "v": 104
    },
    {
      "midi": 80,
      "hit": false,
      "t": 34593.76729687472,
      "d": 246.5279010416707,
      "v": 97
    },
    {
      "midi": 75,
      "hit": false,
      "t": 34597.239520833056,
      "d": 166.66674999999668,
      "v": 104
    },
    {
      "midi": 60,
      "hit": false,
      "t": 34729.18403124972,
      "d": 76.38892708333151,
      "v": 97
    },
    {
      "midi": 48,
      "hit": false,
      "t": 34732.65625520806,
      "d": 76.38892708333151,
      "v": 91
    },
    {
      "midi": 45,
      "hit": false,
      "t": 35031.26751562473,
      "d": 62.500031249997846,
      "v": 113
    },
    {
      "midi": 57,
      "hit": false,
      "t": 35034.73973958306,
      "d": 48.61113541666418,
      "v": 104
    },
    {
      "midi": 84,
      "hit": false,
      "t": 35041.684187499726,
      "d": 79.86115104166674,
      "v": 104
    },
    {
      "midi": 85,
      "hit": false,
      "t": 35128.489786458056,
      "d": 114.58339062500454,
      "v": 82
    },
    {
      "midi": 86,
      "hit": false,
      "t": 35215.29538541639,
      "d": 163.19452604166872,
      "v": 91
    },
    {
      "midi": 46,
      "hit": false,
      "t": 35309.045432291394,
      "d": 65.97225520833308,
      "v": 97
    },
    {
      "midi": 58,
      "hit": false,
      "t": 35309.045432291394,
      "d": 69.44447916666832,
      "v": 97
    },
    {
      "midi": 87,
      "hit": false,
      "t": 35309.045432291394,
      "d": 170.13897395833192,
      "v": 86
    },
    {
      "midi": 89,
      "hit": false,
      "t": 35468.76773437473,
      "d": 326.3890520833229,
      "v": 104
    },
    {
      "midi": 55,
      "hit": false,
      "t": 35593.76779687472,
      "d": 76.38892708333151,
      "v": 91
    },
    {
      "midi": 61,
      "hit": false,
      "t": 35597.24002083306,
      "d": 55.55558333333465,
      "v": 86
    },
    {
      "midi": 51,
      "hit": false,
      "t": 35597.24002083306,
      "d": 65.97225520833308,
      "v": 71
    },
    {
      "midi": 84,
      "hit": false,
      "t": 35756.962322916384,
      "d": 76.38892708333151,
      "v": 104
    },
    {
      "midi": 87,
      "hit": false,
      "t": 35892.379057291386,
      "d": 170.13897395833192,
      "v": 104
    },
    {
      "midi": 51,
      "hit": false,
      "t": 35899.32350520805,
      "d": 62.500031249997846,
      "v": 91
    },
    {
      "midi": 39,
      "hit": false,
      "t": 35906.26795312471,
      "d": 55.55558333333465,
      "v": 91
    },
    {
      "midi": 85,
      "hit": false,
      "t": 36045.15691145805,
      "d": 156.25007812500553,
      "v": 97
    },
    {
      "midi": 82,
      "hit": false,
      "t": 36187.51809374972,
      "d": 100.69449479167088,
      "v": 97
    },
    {
      "midi": 51,
      "hit": false,
      "t": 36194.462541666384,
      "d": 76.38892708333879,
      "v": 78
    },
    {
      "midi": 61,
      "hit": false,
      "t": 36197.93476562472,
      "d": 72.91670312500355,
      "v": 82
    },
    {
      "midi": 55,
      "hit": false,
      "t": 36204.87921354139,
      "d": 83.33337500000198,
      "v": 97
    },
    {
      "midi": 79,
      "hit": false,
      "t": 36336.823723958056,
      "d": 104.16671874999884,
      "v": 97
    },
    {
      "midi": 75,
      "hit": false,
      "t": 36489.60157812472,
      "d": 159.7223020833262,
      "v": 104
    },
    {
      "midi": 58,
      "hit": false,
      "t": 36503.49047395805,
      "d": 76.38892708332423,
      "v": 97
    },
    {
      "midi": 46,
      "hit": false,
      "t": 36510.434921874716,
      "d": 72.91670312499627,
      "v": 91
    },
    {
      "midi": 77,
      "hit": false,
      "t": 36649.323880208045,
      "d": 309.0279322916758,
      "v": 91
    },
    {
      "midi": 61,
      "hit": false,
      "t": 36788.21283854138,
      "d": 69.44447916666832,
      "v": 97
    },
    {
      "midi": 51,
      "hit": false,
      "t": 36795.157286458045,
      "d": 65.97225520834036,
      "v": 78
    },
    {
      "midi": 55,
      "hit": false,
      "t": 36812.518406249714,
      "d": 41.66668750000099,
      "v": 91
    },
    {
      "midi": 72,
      "hit": false,
      "t": 36958.35181249972,
      "d": 76.38892708333151,
      "v": 104
    },
    {
      "midi": 75,
      "hit": false,
      "t": 37083.35187499972,
      "d": 93.75004687500041,
      "v": 104
    },
    {
      "midi": 51,
      "hit": false,
      "t": 37086.82409895805,
      "d": 41.66668750000099,
      "v": 91
    },
    {
      "midi": 39,
      "hit": false,
      "t": 37090.29632291639,
      "d": 48.61113541666418,
      "v": 104
    },
    {
      "midi": 73,
      "hit": false,
      "t": 37250.01862499972,
      "d": 59.02780729166989,
      "v": 86
    },
    {
      "midi": 49,
      "hit": false,
      "t": 37368.07423958306,
      "d": 69.44447916666104,
      "v": 91
    },
    {
      "midi": 70,
      "hit": false,
      "t": 37375.01868749972,
      "d": 72.91670312499627,
      "v": 104
    },
    {
      "midi": 37,
      "hit": false,
      "t": 37375.01868749972,
      "d": 79.86115104165947,
      "v": 91
    },
    {
      "midi": 67,
      "hit": false,
      "t": 37527.79654166639,
      "d": 69.44447916666832,
      "v": 86
    },
    {
      "midi": 65,
      "hit": false,
      "t": 37670.15772395806,
      "d": 79.86115104166674,
      "v": 91
    },
    {
      "midi": 36,
      "hit": false,
      "t": 37677.10217187472,
      "d": 27.777791666667326,
      "v": 104
    },
    {
      "midi": 48,
      "hit": false,
      "t": 37680.57439583306,
      "d": 38.194463541665755,
      "v": 91
    },
    {
      "midi": 51,
      "hit": false,
      "t": 37968.76898437473,
      "d": 52.08335937499942,
      "v": 86
    },
    {
      "midi": 56,
      "hit": false,
      "t": 37972.241208333064,
      "d": 52.08335937499942,
      "v": 91
    },
    {
      "midi": 60,
      "hit": false,
      "t": 37979.185656249734,
      "d": 38.19446354165848,
      "v": 97
    },
    {
      "midi": 80,
      "hit": false,
      "t": 37982.65788020807,
      "d": 41.666687499993714,
      "v": 91
    },
    {
      "midi": 84,
      "hit": false,
      "t": 37989.60232812473,
      "d": 59.02780729166261,
      "v": 97
    },
    {
      "midi": 72,
      "hit": false,
      "t": 37996.546776041396,
      "d": 34.72223958333052,
      "v": 97
    },
    {
      "midi": 79,
      "hit": false,
      "t": 38267.3802447914,
      "d": 90.27782291666517,
      "v": 104
    },
    {
      "midi": 84,
      "hit": false,
      "t": 38270.852468749734,
      "d": 90.27782291666517,
      "v": 104
    },
    {
      "midi": 51,
      "hit": false,
      "t": 38284.74136458307,
      "d": 41.66668750000099,
      "v": 97
    },
    {
      "midi": 39,
      "hit": false,
      "t": 38284.74136458307,
      "d": 45.138911458336224,
      "v": 97
    },
    {
      "midi": 72,
      "hit": false,
      "t": 38284.74136458307,
      "d": 59.02780729166261,
      "v": 97
    },
    {
      "midi": 51,
      "hit": false,
      "t": 38565.99150520807,
      "d": 62.50003125000512,
      "v": 86
    },
    {
      "midi": 56,
      "hit": false,
      "t": 38569.463729166404,
      "d": 65.97225520833308,
      "v": 91
    },
    {
      "midi": 60,
      "hit": false,
      "t": 38572.93595312474,
      "d": 55.55558333333465,
      "v": 97
    },
    {
      "midi": 84,
      "hit": false,
      "t": 38583.35262499974,
      "d": 79.86115104166674,
      "v": 104
    },
    {
      "midi": 77,
      "hit": false,
      "t": 38586.82484895807,
      "d": 72.91670312499627,
      "v": 91
    },
    {
      "midi": 72,
      "hit": false,
      "t": 38586.82484895807,
      "d": 76.38892708333151,
      "v": 97
    },
    {
      "midi": 75,
      "hit": false,
      "t": 38878.49166145807,
      "d": 52.083359375006694,
      "v": 86
    },
    {
      "midi": 84,
      "hit": false,
      "t": 38878.49166145807,
      "d": 65.97225520834763,
      "v": 97
    },
    {
      "midi": 72,
      "hit": false,
      "t": 38881.96388541641,
      "d": 52.083359375006694,
      "v": 97
    },
    {
      "midi": 56,
      "hit": false,
      "t": 38885.43610937474,
      "d": 52.083359375006694,
      "v": 97
    },
    {
      "midi": 44,
      "hit": false,
      "t": 38888.90833333308,
      "d": 52.083359375006694,
      "v": 97
    },
    {
      "midi": 75,
      "hit": false,
      "t": 39034.741739583085,
      "d": 104.16671874999884,
      "v": 91
    },
    {
      "midi": 83,
      "hit": false,
      "t": 39038.21396354142,
      "d": 118.05561458332522,
      "v": 104
    },
    {
      "midi": 71,
      "hit": false,
      "t": 39045.158411458084,
      "d": 69.44447916666832,
      "v": 104
    },
    {
      "midi": 51,
      "hit": false,
      "t": 39145.85290624975,
      "d": 72.91670312499627,
      "v": 78
    },
    {
      "midi": 56,
      "hit": false,
      "t": 39145.85290624975,
      "d": 76.38892708333151,
      "v": 86
    },
    {
      "midi": 60,
      "hit": false,
      "t": 39159.74180208308,
      "d": 48.61113541666418,
      "v": 91
    },
    {
      "midi": 84,
      "hit": false,
      "t": 39319.464104166414,
      "d": 197.91676562499197,
      "v": 113
    },
    {
      "midi": 75,
      "hit": false,
      "t": 39319.464104166414,
      "d": 229.16678124999453,
      "v": 104
    },
    {
      "midi": 72,
      "hit": false,
      "t": 39326.40855208308,
      "d": 187.50009374999354,
      "v": 113
    },
    {
      "midi": 45,
      "hit": false,
      "t": 39447.936390624745,
      "d": 59.02780729166261,
      "v": 113
    },
    {
      "midi": 57,
      "hit": false,
      "t": 39447.936390624745,
      "d": 59.02780729166261,
      "v": 113
    },
    {
      "midi": 75,
      "hit": false,
      "t": 39746.54765104141,
      "d": 65.97225520834036,
      "v": 104
    },
    {
      "midi": 78,
      "hit": false,
      "t": 39746.54765104141,
      "d": 65.97225520834036,
      "v": 104
    },
    {
      "midi": 83,
      "hit": false,
      "t": 39750.01987499974,
      "d": 72.91670312500355,
      "v": 113
    },
    {
      "midi": 63,
      "hit": false,
      "t": 39753.49209895808,
      "d": 55.55558333333465,
      "v": 97
    },
    {
      "midi": 57,
      "hit": false,
      "t": 39753.49209895808,
      "d": 65.97225520833308,
      "v": 97
    },
    {
      "midi": 59,
      "hit": false,
      "t": 39753.49209895808,
      "d": 65.97225520833308,
      "v": 97
    },
    {
      "midi": 71,
      "hit": false,
      "t": 39756.964322916414,
      "d": 48.61113541666418,
      "v": 113
    },
    {
      "midi": 54,
      "hit": false,
      "t": 39756.964322916414,
      "d": 65.97225520833308,
      "v": 97
    },
    {
      "midi": 58,
      "hit": false,
      "t": 40045.15891145808,
      "d": 55.55558333332738,
      "v": 104
    },
    {
      "midi": 46,
      "hit": false,
      "t": 40052.10335937474,
      "d": 48.61113541666418,
      "v": 97
    },
    {
      "midi": 82,
      "hit": false,
      "t": 40055.57558333308,
      "d": 69.44447916666104,
      "v": 97
    },
    {
      "midi": 75,
      "hit": false,
      "t": 40065.992255208075,
      "d": 52.08335937499942,
      "v": 91
    },
    {
      "midi": 70,
      "hit": false,
      "t": 40072.93670312474,
      "d": 41.66668750000099,
      "v": 104
    },
    {
      "midi": 63,
      "hit": false,
      "t": 40340.297947916406,
      "d": 59.02780729166989,
      "v": 91
    },
    {
      "midi": 58,
      "hit": false,
      "t": 40347.24239583307,
      "d": 52.083359375006694,
      "v": 78
    },
    {
      "midi": 55,
      "hit": false,
      "t": 40350.714619791404,
      "d": 72.91670312500355,
      "v": 104
    },
    {
      "midi": 82,
      "hit": false,
      "t": 40361.1312916664,
      "d": 83.33337500000198,
      "v": 104
    },
    {
      "midi": 70,
      "hit": false,
      "t": 40364.60351562474,
      "d": 65.97225520833308,
      "v": 104
    },
    {
      "midi": 75,
      "hit": false,
      "t": 40368.07573958307,
      "d": 65.97225520833308,
      "v": 91
    },
    {
      "midi": 81,
      "hit": false,
      "t": 40649.325880208075,
      "d": 118.05561458333977,
      "v": 104
    },
    {
      "midi": 46,
      "hit": false,
      "t": 40652.79810416641,
      "d": 72.91670312500355,
      "v": 86
    },
    {
      "midi": 78,
      "hit": false,
      "t": 40652.79810416641,
      "d": 125.00006250000297,
      "v": 78
    },
    {
      "midi": 58,
      "hit": false,
      "t": 40656.270328124745,
      "d": 55.55558333333465,
      "v": 97
    },
    {
      "midi": 75,
      "hit": false,
      "t": 40666.68699999974,
      "d": 86.80559895833721,
      "v": 82
    },
    {
      "midi": 69,
      "hit": false,
      "t": 40670.15922395808,
      "d": 69.44447916666832,
      "v": 97
    },
    {
      "midi": 43,
      "hit": false,
      "t": 40944.46491666641,
      "d": 90.27782291667245,
      "v": 97
    },
    {
      "midi": 82,
      "hit": false,
      "t": 40947.937140624745,
      "d": 121.52783854166773,
      "v": 91
    },
    {
      "midi": 75,
      "hit": false,
      "t": 40951.40936458308,
      "d": 90.27782291666517,
      "v": 82
    },
    {
      "midi": 79,
      "hit": false,
      "t": 40951.40936458308,
      "d": 104.16671874999884,
      "v": 104
    },
    {
      "midi": 70,
      "hit": false,
      "t": 40965.29826041641,
      "d": 59.02780729166989,
      "v": 104
    },
    {
      "midi": 55,
      "hit": false,
      "t": 40982.65938020808,
      "d": 31.25001562500256,
      "v": 78
    },
    {
      "midi": 77,
      "hit": false,
      "t": 41250.02062499974,
      "d": 104.16671874999156,
      "v": 91
    },
    {
      "midi": 80,
      "hit": false,
      "t": 41250.02062499974,
      "d": 104.16671874999156,
      "v": 91
    },
    {
      "midi": 83,
      "hit": false,
      "t": 41253.49284895808,
      "d": 111.11116666665475,
      "v": 97
    },
    {
      "midi": 71,
      "hit": false,
      "t": 41263.90952083308,
      "d": 72.916703124989,
      "v": 113
    },
    {
      "midi": 53,
      "hit": false,
      "t": 41270.85396874974,
      "d": 59.02780729166261,
      "v": 97
    },
    {
      "midi": 41,
      "hit": false,
      "t": 41277.7984166664,
      "d": 27.777791666667326,
      "v": 78
    },
    {
      "midi": 53,
      "hit": false,
      "t": 41562.52078124973,
      "d": 65.97225520833308,
      "v": 91
    },
    {
      "midi": 56,
      "hit": false,
      "t": 41562.52078124973,
      "d": 65.97225520833308,
      "v": 91
    },
    {
      "midi": 77,
      "hit": false,
      "t": 41572.93745312473,
      "d": 79.86115104166674,
      "v": 91
    },
    {
      "midi": 80,
      "hit": false,
      "t": 41572.93745312473,
      "d": 79.86115104166674,
      "v": 91
    },
    {
      "midi": 84,
      "hit": false,
      "t": 41572.93745312473,
      "d": 86.80559895832994,
      "v": 113
    },
    {
      "midi": 72,
      "hit": false,
      "t": 41576.409677083066,
      "d": 65.97225520833308,
      "v": 113
    },
    {
      "midi": 62,
      "hit": false,
      "t": 41586.826348958064,
      "d": 31.25001562500256,
      "v": 86
    },
    {
      "midi": 58,
      "hit": false,
      "t": 41600.7152447914,
      "d": 31.25001562500256,
      "v": 82
    },
    {
      "midi": 80,
      "hit": false,
      "t": 41878.493161458064,
      "d": 65.97225520833308,
      "v": 91
    },
    {
      "midi": 85,
      "hit": false,
      "t": 41878.493161458064,
      "d": 72.91670312499627,
      "v": 97
    },
    {
      "midi": 82,
      "hit": false,
      "t": 41892.3820572914,
      "d": 41.66668750000099,
      "v": 86
    },
    {
      "midi": 46,
      "hit": false,
      "t": 41895.85428124973,
      "d": 31.250015624995285,
      "v": 97
    },
    {
      "midi": 73,
      "hit": false,
      "t": 41895.85428124973,
      "d": 48.61113541666418,
      "v": 104
    },
    {
      "midi": 34,
      "hit": false,
      "t": 41899.32650520807,
      "d": 20.833343749996857,
      "v": 91
    },
    {
      "midi": 80,
      "hit": false,
      "t": 42034.74323958306,
      "d": 79.86115104165947,
      "v": 97
    },
    {
      "midi": 86,
      "hit": false,
      "t": 42041.687687499725,
      "d": 104.16671874999884,
      "v": 113
    },
    {
      "midi": 82,
      "hit": false,
      "t": 42048.63213541639,
      "d": 48.61113541666418,
      "v": 91
    },
    {
      "midi": 74,
      "hit": false,
      "t": 42055.57658333305,
      "d": 45.138911458336224,
      "v": 104
    },
    {
      "midi": 58,
      "hit": false,
      "t": 42159.74330208306,
      "d": 48.61113541667146,
      "v": 97
    },
    {
      "midi": 53,
      "hit": false,
      "t": 42163.21552604139,
      "d": 48.61113541667146,
      "v": 86
    },
    {
      "midi": 56,
      "hit": false,
      "t": 42166.68774999973,
      "d": 34.722239583337796,
      "v": 91
    },
    {
      "midi": 62,
      "hit": false,
      "t": 42170.15997395806,
      "d": 38.194463541665755,
      "v": 104
    },
    {
      "midi": 75,
      "hit": false,
      "t": 42357.660067708064,
      "d": 1381.9451354166522,
      "v": 97
    },
    {
      "midi": 79,
      "hit": false,
      "t": 42416.687874999734,
      "d": 1361.111791666648,
      "v": 97
    },
    {
      "midi": 82,
      "hit": false,
      "t": 42451.410114583065,
      "d": 1298.6117604166502,
      "v": 97
    },
    {
      "midi": 87,
      "hit": false,
      "t": 42472.24345833306,
      "d": 1312.5006562499839,
      "v": 113
    },
    {
      "midi": 51,
      "hit": false,
      "t": 42475.7156822914,
      "d": 52.08335937499942,
      "v": 104
    },
    {
      "midi": 39,
      "hit": false,
      "t": 42482.66013020806,
      "d": 45.138911458336224,
      "v": 97
    },
    {
      "midi": 60,
      "hit": false,
      "t": 42770.854718749724,
      "d": 48.61113541666418,
      "v": 97
    },
    {
      "midi": 48,
      "hit": false,
      "t": 42781.27139062472,
      "d": 38.194463541665755,
      "v": 91
    },
    {
      "midi": 46,
      "hit": false,
      "t": 42940.993692708056,
      "d": 52.08335937499942,
      "v": 97
    },
    {
      "midi": 58,
      "hit": false,
      "t": 42944.46591666639,
      "d": 52.08335937499942,
      "v": 104
    },
    {
      "midi": 55,
      "hit": false,
      "t": 43239.604953124726,
      "d": 41.666687499993714,
      "v": 97
    },
    {
      "midi": 43,
      "hit": false,
      "t": 43246.54940104139,
      "d": 41.666687499993714,
      "v": 104
    },
    {
      "midi": 41,
      "hit": false,
      "t": 43364.605015624715,
      "d": 55.55558333333465,
      "v": 113
    },
    {
      "midi": 53,
      "hit": false,
      "t": 43368.07723958305,
      "d": 48.61113541666418,
      "v": 113
    },
    {
      "midi": 51,
      "hit": false,
      "t": 43687.52184374972,
      "d": 59.02780729166261,
      "v": 104
    },
    {
      "midi": 39,
      "hit": false,
      "t": 43694.46629166638,
      "d": 52.08335937499942,
      "v": 104
    },
    {
      "midi": 86,
      "hit": false,
      "t": 44003.49422395804,
      "d": 100.69449479167088,
      "v": 113
    },
    {
      "midi": 74,
      "hit": false,
      "t": 44006.96644791638,
      "d": 79.86115104166674,
      "v": 121
    },
    {
      "midi": 75,
      "hit": false,
      "t": 44302.10548437471,
      "d": 72.91670312500355,
      "v": 97
    },
    {
      "midi": 87,
      "hit": false,
      "t": 44305.57770833305,
      "d": 72.91670312500355,
      "v": 104
    },
    {
      "midi": 88,
      "hit": false,
      "t": 44614.60564062472,
      "d": 76.38892708333151,
      "v": 104
    },
    {
      "midi": 76,
      "hit": false,
      "t": 44618.07786458306,
      "d": 65.97225520833308,
      "v": 104
    },
    {
      "midi": 46,
      "hit": false,
      "t": 44899.32800520805,
      "d": 86.80559895834449,
      "v": 91
    },
    {
      "midi": 82,
      "hit": false,
      "t": 44902.80022916639,
      "d": 48.61113541667146,
      "v": 113
    },
    {
      "midi": 85,
      "hit": false,
      "t": 44902.80022916639,
      "d": 59.02780729167716,
      "v": 104
    },
    {
      "midi": 77,
      "hit": false,
      "t": 44906.27245312472,
      "d": 48.61113541667146,
      "v": 104
    },
    {
      "midi": 89,
      "hit": false,
      "t": 44909.74467708306,
      "d": 48.61113541667146,
      "v": 104
    },
    {
      "midi": 58,
      "hit": false,
      "t": 44923.63357291639,
      "d": 59.02780729166989,
      "v": 104
    },
    {
      "midi": 61,
      "hit": false,
      "t": 45201.411489583064,
      "d": 69.44447916666104,
      "v": 86
    },
    {
      "midi": 51,
      "hit": false,
      "t": 45208.35593749973,
      "d": 72.91670312499627,
      "v": 78
    },
    {
      "midi": 55,
      "hit": false,
      "t": 45218.772609374726,
      "d": 55.55558333333465,
      "v": 97
    },
    {
      "midi": 70,
      "hit": false,
      "t": 45364.60601562472,
      "d": 187.50009375000081,
      "v": 104
    },
    {
      "midi": 73,
      "hit": false,
      "t": 45368.078239583054,
      "d": 197.91676562499924,
      "v": 113
    },
    {
      "midi": 77,
      "hit": false,
      "t": 45368.078239583054,
      "d": 215.27788541666087,
      "v": 104
    },
    {
      "midi": 65,
      "hit": false,
      "t": 45371.55046354139,
      "d": 159.7223020833335,
      "v": 104
    },
    {
      "midi": 39,
      "hit": false,
      "t": 45524.32831770806,
      "d": 45.13891145832895,
      "v": 91
    },
    {
      "midi": 51,
      "hit": false,
      "t": 45531.27276562472,
      "d": 45.13891145832895,
      "v": 97
    },
    {
      "midi": 66,
      "hit": false,
      "t": 45694.467291666384,
      "d": 111.1111666666693,
      "v": 86
    },
    {
      "midi": 78,
      "hit": false,
      "t": 45788.217338541384,
      "d": 90.27782291667245,
      "v": 97
    },
    {
      "midi": 75,
      "hit": false,
      "t": 45791.68956249972,
      "d": 76.38892708333151,
      "v": 91
    },
    {
      "midi": 73,
      "hit": false,
      "t": 45795.161786458055,
      "d": 62.500031249997846,
      "v": 97
    },
    {
      "midi": 51,
      "hit": false,
      "t": 45802.10623437472,
      "d": 69.44447916666832,
      "v": 74
    },
    {
      "midi": 61,
      "hit": false,
      "t": 45805.57845833305,
      "d": 59.02780729166261,
      "v": 97
    },
    {
      "midi": 55,
      "hit": false,
      "t": 45805.57845833305,
      "d": 69.44447916666832,
      "v": 91
    },
    {
      "midi": 79,
      "hit": false,
      "t": 46093.773046874725,
      "d": 121.52783854166046,
      "v": 104
    },
    {
      "midi": 67,
      "hit": false,
      "t": 46097.24527083306,
      "d": 86.80559895832994,
      "v": 104
    },
    {
      "midi": 73,
      "hit": false,
      "t": 46100.717494791395,
      "d": 83.3333749999947,
      "v": 97
    },
    {
      "midi": 58,
      "hit": false,
      "t": 46104.18971874973,
      "d": 76.38892708332423,
      "v": 86
    },
    {
      "midi": 46,
      "hit": false,
      "t": 46111.134166666394,
      "d": 62.500031249997846,
      "v": 91
    },
    {
      "midi": 75,
      "hit": false,
      "t": 46111.134166666394,
      "d": 83.3333749999947,
      "v": 86
    },
    {
      "midi": 73,
      "hit": false,
      "t": 46392.38430729139,
      "d": 97.22227083332837,
      "v": 82
    },
    {
      "midi": 61,
      "hit": false,
      "t": 46395.85653124972,
      "d": 62.500031249997846,
      "v": 91
    },
    {
      "midi": 75,
      "hit": false,
      "t": 46399.32875520806,
      "d": 104.16671874999156,
      "v": 71
    },
    {
      "midi": 80,
      "hit": false,
      "t": 46399.32875520806,
      "d": 131.9445104166589,
      "v": 97
    },
    {
      "midi": 51,
      "hit": false,
      "t": 46406.27320312472,
      "d": 59.02780729166261,
      "v": 78
    },
    {
      "midi": 68,
      "hit": false,
      "t": 46406.27320312472,
      "d": 65.9722552083258,
      "v": 91
    },
    {
      "midi": 55,
      "hit": false,
      "t": 46423.63432291639,
      "d": 24.30556770833209,
      "v": 97
    },
    {
      "midi": 73,
      "hit": false,
      "t": 46701.41223958305,
      "d": 59.02780729166261,
      "v": 104
    },
    {
      "midi": 75,
      "hit": false,
      "t": 46701.41223958305,
      "d": 62.500031249997846,
      "v": 91
    },
    {
      "midi": 81,
      "hit": false,
      "t": 46704.884463541384,
      "d": 86.80559895832994,
      "v": 104
    },
    {
      "midi": 69,
      "hit": false,
      "t": 46711.82891145805,
      "d": 48.61113541666418,
      "v": 113
    },
    {
      "midi": 51,
      "hit": false,
      "t": 46711.82891145805,
      "d": 55.55558333333465,
      "v": 91
    },
    {
      "midi": 39,
      "hit": false,
      "t": 46722.245583333046,
      "d": 45.138911458336224,
      "v": 97
    },
    {
      "midi": 70,
      "hit": false,
      "t": 46993.07905208305,
      "d": 59.02780729166989,
      "v": 97
    },
    {
      "midi": 82,
      "hit": false,
      "t": 46996.551276041384,
      "d": 62.500031249997846,
      "v": 104
    },
    {
      "midi": 49,
      "hit": false,
      "t": 47006.96794791638,
      "d": 55.55558333333465,
      "v": 97
    },
    {
      "midi": 37,
      "hit": false,
      "t": 47006.96794791638,
      "d": 62.500031249997846,
      "v": 97
    },
    {
      "midi": 87,
      "hit": false,
      "t": 47291.69031249971,
      "d": 59.02780729166261,
      "v": 104
    },
    {
      "midi": 75,
      "hit": false,
      "t": 47295.16253645805,
      "d": 55.55558333332738,
      "v": 104
    },
    {
      "midi": 36,
      "hit": false,
      "t": 47302.10698437471,
      "d": 62.500031249997846,
      "v": 104
    },
    {
      "midi": 48,
      "hit": false,
      "t": 47309.05143229137,
      "d": 59.02780729166989,
      "v": 97
    },
    {
      "midi": 56,
      "hit": false,
      "t": 47607.662692708036,
      "d": 48.61113541667146,
      "v": 97
    },
    {
      "midi": 60,
      "hit": false,
      "t": 47607.662692708036,
      "d": 55.55558333334193,
      "v": 97
    },
    {
      "midi": 51,
      "hit": false,
      "t": 47611.13491666637,
      "d": 48.61113541667146,
      "v": 91
    },
    {
      "midi": 75,
      "hit": false,
      "t": 47743.079427083045,
      "d": 274.3056927083235,
      "v": 86
    },
    {
      "midi": 68,
      "hit": false,
      "t": 47746.55165104138,
      "d": 218.75010937498882,
      "v": 86
    },
    {
      "midi": 72,
      "hit": false,
      "t": 47753.49609895804,
      "d": 246.52790104165615,
      "v": 104
    },
    {
      "midi": 63,
      "hit": false,
      "t": 47760.440546874706,
      "d": 163.19452604166872,
      "v": 97
    },
    {
      "midi": 51,
      "hit": false,
      "t": 47909.74617708304,
      "d": 48.61113541666418,
      "v": 86
    },
    {
      "midi": 39,
      "hit": false,
      "t": 47920.16284895804,
      "d": 45.13891145832895,
      "v": 97
    },
    {
      "midi": 65,
      "hit": false,
      "t": 48072.9407031247,
      "d": 145.83340624999983,
      "v": 74
    },
    {
      "midi": 51,
      "hit": false,
      "t": 48187.5240937497,
      "d": 45.138911458336224,
      "v": 86
    },
    {
      "midi": 77,
      "hit": false,
      "t": 48187.5240937497,
      "d": 65.97225520833308,
      "v": 104
    },
    {
      "midi": 60,
      "hit": false,
      "t": 48190.996317708035,
      "d": 52.08335937499942,
      "v": 97
    },
    {
      "midi": 56,
      "hit": false,
      "t": 48194.46854166637,
      "d": 38.194463541665755,
      "v": 97
    },
    {
      "midi": 79,
      "hit": false,
      "t": 48472.24645833304,
      "d": 104.16671875000611,
      "v": 104
    },
    {
      "midi": 67,
      "hit": false,
      "t": 48475.71868229137,
      "d": 69.44447916666832,
      "v": 113
    },
    {
      "midi": 72,
      "hit": false,
      "t": 48475.71868229137,
      "d": 90.27782291667245,
      "v": 91
    },
    {
      "midi": 75,
      "hit": false,
      "t": 48475.71868229137,
      "d": 90.27782291667245,
      "v": 91
    },
    {
      "midi": 44,
      "hit": false,
      "t": 48493.07980208304,
      "d": 48.61113541666418,
      "v": 97
    },
    {
      "midi": 56,
      "hit": false,
      "t": 48493.07980208304,
      "d": 52.08335937499942,
      "v": 97
    },
    {
      "midi": 51,
      "hit": false,
      "t": 48767.38549479138,
      "d": 72.91670312499627,
      "v": 86
    },
    {
      "midi": 75,
      "hit": false,
      "t": 48767.38549479138,
      "d": 86.80559895832994,
      "v": 91
    },
    {
      "midi": 56,
      "hit": false,
      "t": 48774.32994270804,
      "d": 69.44447916666832,
      "v": 91
    },
    {
      "midi": 80,
      "hit": false,
      "t": 48774.32994270804,
      "d": 86.80559895832994,
      "v": 104
    },
    {
      "midi": 68,
      "hit": false,
      "t": 48777.80216666638,
      "d": 55.55558333333465,
      "v": 86
    },
    {
      "midi": 60,
      "hit": false,
      "t": 48777.80216666638,
      "d": 69.44447916666832,
      "v": 104
    },
    {
      "midi": 72,
      "hit": false,
      "t": 48784.74661458304,
      "d": 45.138911458336224,
      "v": 97
    },
    {
      "midi": 70,
      "hit": false,
      "t": 49062.524531249706,
      "d": 59.027807291655336,
      "v": 91
    },
    {
      "midi": 82,
      "hit": false,
      "t": 49062.524531249706,
      "d": 69.44447916665376,
      "v": 104
    },
    {
      "midi": 60,
      "hit": false,
      "t": 49072.941203124705,
      "d": 55.5555833333201,
      "v": 97
    },
    {
      "midi": 75,
      "hit": false,
      "t": 49079.88565104137,
      "d": 34.72223958333052,
      "v": 74
    },
    {
      "midi": 48,
      "hit": false,
      "t": 49090.30232291637,
      "d": 38.19446354165848,
      "v": 71
    },
    {
      "midi": 75,
      "hit": false,
      "t": 49232.663505208024,
      "d": 65.9722552083258,
      "v": 91
    },
    {
      "midi": 72,
      "hit": false,
      "t": 49239.60795312469,
      "d": 72.91670312499627,
      "v": 104
    },
    {
      "midi": 84,
      "hit": false,
      "t": 49246.55240104135,
      "d": 86.80559895832994,
      "v": 113
    },
    {
      "midi": 45,
      "hit": false,
      "t": 49368.08023958301,
      "d": 55.55558333333465,
      "v": 121
    },
    {
      "midi": 57,
      "hit": false,
      "t": 49371.552463541346,
      "d": 45.138911458336224,
      "v": 97
    },
    {
      "midi": 79,
      "hit": false,
      "t": 49500.02474999968,
      "d": 170.1389739583392,
      "v": 104
    },
    {
      "midi": 82,
      "hit": false,
      "t": 49500.02474999968,
      "d": 170.1389739583392,
      "v": 104
    },
    {
      "midi": 85,
      "hit": false,
      "t": 49517.385869791346,
      "d": 170.1389739583392,
      "v": 113
    },
    {
      "midi": 73,
      "hit": false,
      "t": 49520.85809374968,
      "d": 149.30563020833506,
      "v": 104
    },
    {
      "midi": 58,
      "hit": false,
      "t": 49652.80260416635,
      "d": 59.02780729166989,
      "v": 104
    },
    {
      "midi": 46,
      "hit": false,
      "t": 49656.27482812468,
      "d": 55.55558333333465,
      "v": 97
    },
    {
      "midi": 85,
      "hit": false,
      "t": 49843.77492187468,
      "d": 100.69449479167088,
      "v": 97
    },
    {
      "midi": 92,
      "hit": false,
      "t": 49906.27495312468,
      "d": 38.19446354167303,
      "v": 86
    },
    {
      "midi": 97,
      "hit": false,
      "t": 49909.747177083016,
      "d": 65.97225520833308,
      "v": 104
    },
    {
      "midi": 94,
      "hit": false,
      "t": 49913.21940104135,
      "d": 59.02780729166261,
      "v": 91
    },
    {
      "midi": 61,
      "hit": false,
      "t": 49916.69162499969,
      "d": 48.61113541666418,
      "v": 97
    },
    {
      "midi": 51,
      "hit": false,
      "t": 49920.16384895802,
      "d": 52.08335937499214,
      "v": 86
    },
    {
      "midi": 55,
      "hit": false,
      "t": 49923.63607291636,
      "d": 27.77779166666005,
      "v": 97
    },
    {
      "midi": 51,
      "hit": false,
      "t": 50215.30288541635,
      "d": 69.44447916666832,
      "v": 82
    },
    {
      "midi": 97,
      "hit": false,
      "t": 50215.30288541635,
      "d": 76.38892708333879,
      "v": 97
    },
    {
      "midi": 94,
      "hit": false,
      "t": 50218.775109374685,
      "d": 55.55558333333465,
      "v": 91
    },
    {
      "midi": 85,
      "hit": false,
      "t": 50222.24733333302,
      "d": 65.97225520833308,
      "v": 97
    },
    {
      "midi": 39,
      "hit": false,
      "t": 50225.719557291355,
      "d": 52.08335937499942,
      "v": 97
    },
    {
      "midi": 92,
      "hit": false,
      "t": 50496.55302604136,
      "d": 59.02780729166261,
      "v": 74
    },
    {
      "midi": 84,
      "hit": false,
      "t": 50496.55302604136,
      "d": 79.86115104165947,
      "v": 91
    },
    {
      "midi": 96,
      "hit": false,
      "t": 50503.49747395803,
      "d": 65.9722552083258,
      "v": 97
    },
    {
      "midi": 41,
      "hit": false,
      "t": 50510.44192187469,
      "d": 59.02780729166261,
      "v": 97
    },
    {
      "midi": 53,
      "hit": false,
      "t": 50517.386369791355,
      "d": 62.500031249997846,
      "v": 86
    },
    {
      "midi": 82,
      "hit": false,
      "t": 50795.16428645802,
      "d": 83.33337500000198,
      "v": 91
    },
    {
      "midi": 91,
      "hit": false,
      "t": 50798.636510416356,
      "d": 93.75004687500041,
      "v": 97
    },
    {
      "midi": 94,
      "hit": false,
      "t": 50798.636510416356,
      "d": 93.75004687500041,
      "v": 91
    },
    {
      "midi": 43,
      "hit": false,
      "t": 50812.52540624969,
      "d": 65.97225520833308,
      "v": 97
    },
    {
      "midi": 55,
      "hit": false,
      "t": 50815.997630208025,
      "d": 65.97225520833308,
      "v": 91
    },
    {
      "midi": 93,
      "hit": false,
      "t": 51083.35887499969,
      "d": 83.33337500000926,
      "v": 104
    },
    {
      "midi": 90,
      "hit": false,
      "t": 51086.83109895803,
      "d": 69.44447916667559,
      "v": 71
    },
    {
      "midi": 81,
      "hit": false,
      "t": 51086.83109895803,
      "d": 72.91670312501083,
      "v": 104
    },
    {
      "midi": 42,
      "hit": false,
      "t": 51104.1922187497,
      "d": 72.91670312500355,
      "v": 86
    },
    {
      "midi": 54,
      "hit": false,
      "t": 51107.66444270803,
      "d": 65.97225520833308,
      "v": 91
    },
    {
      "midi": 94,
      "hit": false,
      "t": 51375.0256874997,
      "d": 69.44447916666832,
      "v": 97
    },
    {
      "midi": 43,
      "hit": false,
      "t": 51385.4423593747,
      "d": 59.02780729166989,
      "v": 104
    },
    {
      "midi": 82,
      "hit": false,
      "t": 51388.91458333303,
      "d": 62.500031249997846,
      "v": 97
    },
    {
      "midi": 55,
      "hit": false,
      "t": 51392.38680729137,
      "d": 59.02780729166261,
      "v": 104
    },
    {
      "midi": 55,
      "hit": false,
      "t": 51677.1091718747,
      "d": 83.33337500000926,
      "v": 97
    },
    {
      "midi": 61,
      "hit": false,
      "t": 51680.58139583303,
      "d": 62.50003125000512,
      "v": 86
    },
    {
      "midi": 87,
      "hit": false,
      "t": 51680.58139583303,
      "d": 79.86115104167402,
      "v": 86
    },
    {
      "midi": 75,
      "hit": false,
      "t": 51684.05361979137,
      "d": 65.97225520834036,
      "v": 97
    },
    {
      "midi": 51,
      "hit": false,
      "t": 51701.41473958304,
      "d": 45.138911458336224,
      "v": 82
    },
    {
      "midi": 80,
      "hit": false,
      "t": 51972.24820833305,
      "d": 111.1111666666693,
      "v": 86
    },
    {
      "midi": 87,
      "hit": false,
      "t": 51972.24820833305,
      "d": 149.30563020833506,
      "v": 86
    },
    {
      "midi": 75,
      "hit": false,
      "t": 51986.13710416638,
      "d": 62.50003125000512,
      "v": 97
    },
    {
      "midi": 84,
      "hit": false,
      "t": 51986.13710416638,
      "d": 121.52783854166773,
      "v": 97
    },
    {
      "midi": 44,
      "hit": false,
      "t": 51989.609328124716,
      "d": 52.08335937499942,
      "v": 97
    },
    {
      "midi": 56,
      "hit": false,
      "t": 51989.609328124716,
      "d": 52.08335937499942,
      "v": 97
    },
    {
      "midi": 84,
      "hit": false,
      "t": 52281.276140624715,
      "d": 65.9722552083258,
      "v": 97
    },
    {
      "midi": 63,
      "hit": false,
      "t": 52284.74836458305,
      "d": 52.08335937499214,
      "v": 104
    },
    {
      "midi": 51,
      "hit": false,
      "t": 52284.74836458305,
      "d": 59.027807291655336,
      "v": 91
    },
    {
      "midi": 92,
      "hit": false,
      "t": 52291.692812499714,
      "d": 38.19446354165848,
      "v": 97
    },
    {
      "midi": 87,
      "hit": false,
      "t": 52298.63726041638,
      "d": 20.833343749996857,
      "v": 86
    },
    {
      "midi": 96,
      "hit": false,
      "t": 52309.053932291376,
      "d": 27.777791666667326,
      "v": 113
    },
    {
      "midi": 84,
      "hit": false,
      "t": 52427.10954687471,
      "d": 184.0278697916583,
      "v": 113
    },
    {
      "midi": 96,
      "hit": false,
      "t": 52430.58177083304,
      "d": 135.41673437499412,
      "v": 113
    },
    {
      "midi": 92,
      "hit": false,
      "t": 52430.58177083304,
      "d": 145.83340624999255,
      "v": 104
    },
    {
      "midi": 87,
      "hit": false,
      "t": 52434.05399479138,
      "d": 163.19452604165417,
      "v": 97
    },
    {
      "midi": 63,
      "hit": false,
      "t": 52548.637385416376,
      "d": 55.5555833333201,
      "v": 91
    },
    {
      "midi": 51,
      "hit": false,
      "t": 52555.58183333304,
      "d": 52.08335937499214,
      "v": 97
    },
    {
      "midi": 82,
      "hit": false,
      "t": 52760.4430468747,
      "d": 135.41673437499412,
      "v": 78
    },
    {
      "midi": 61,
      "hit": false,
      "t": 52836.83197395803,
      "d": 69.44447916666104,
      "v": 97
    },
    {
      "midi": 49,
      "hit": false,
      "t": 52843.776421874696,
      "d": 65.97225520833308,
      "v": 97
    },
    {
      "midi": 94,
      "hit": false,
      "t": 52857.66531770803,
      "d": 69.44447916666104,
      "v": 104
    },
    {
      "midi": 87,
      "hit": false,
      "t": 52861.137541666365,
      "d": 55.55558333332738,
      "v": 97
    },
    {
      "midi": 80,
      "hit": false,
      "t": 53135.44323437469,
      "d": 83.33337500000198,
      "v": 97
    },
    {
      "midi": 84,
      "hit": false,
      "t": 53135.44323437469,
      "d": 83.33337500000198,
      "v": 97
    },
    {
      "midi": 92,
      "hit": false,
      "t": 53138.915458333024,
      "d": 97.22227083333564,
      "v": 97
    },
    {
      "midi": 60,
      "hit": false,
      "t": 53152.80435416636,
      "d": 59.02780729166261,
      "v": 91
    },
    {
      "midi": 87,
      "hit": false,
      "t": 53152.80435416636,
      "d": 62.500031249997846,
      "v": 68
    },
    {
      "midi": 48,
      "hit": false,
      "t": 53152.80435416636,
      "d": 69.44447916666832,
      "v": 86
    },
    {
      "midi": 86,
      "hit": false,
      "t": 53427.110046874695,
      "d": 62.50003125000512,
      "v": 86
    },
    {
      "midi": 47,
      "hit": false,
      "t": 53427.110046874695,
      "d": 65.97225520834036,
      "v": 97
    },
    {
      "midi": 79,
      "hit": false,
      "t": 53430.58227083303,
      "d": 65.97225520834036,
      "v": 113
    },
    {
      "midi": 91,
      "hit": false,
      "t": 53434.054494791366,
      "d": 62.50003125000512,
      "v": 104
    },
    {
      "midi": 59,
      "hit": false,
      "t": 53437.5267187497,
      "d": 48.61113541666418,
      "v": 97
    },
    {
      "midi": 92,
      "hit": false,
      "t": 53729.1935312497,
      "d": 59.027807291655336,
      "v": 97
    },
    {
      "midi": 80,
      "hit": false,
      "t": 53736.137979166364,
      "d": 55.55558333332738,
      "v": 97
    },
    {
      "midi": 48,
      "hit": false,
      "t": 53739.6102031247,
      "d": 59.027807291655336,
      "v": 82
    },
    {
      "midi": 60,
      "hit": false,
      "t": 53746.55465104136,
      "d": 34.72223958333052,
      "v": 86
    },
    {
      "midi": 75,
      "hit": false,
      "t": 54017.38811979136,
      "d": 69.44447916666832,
      "v": 91
    },
    {
      "midi": 87,
      "hit": false,
      "t": 54020.86034374969,
      "d": 69.44447916666832,
      "v": 97
    },
    {
      "midi": 45,
      "hit": false,
      "t": 54034.74923958303,
      "d": 45.138911458336224,
      "v": 104
    },
    {
      "midi": 57,
      "hit": false,
      "t": 54038.22146354136,
      "d": 38.194463541665755,
      "v": 104
    },
    {
      "midi": 85,
      "hit": false,
      "t": 54309.054932291365,
      "d": 62.50003125000512,
      "v": 86
    },
    {
      "midi": 82,
      "hit": false,
      "t": 54312.5271562497,
      "d": 48.61113541667146,
      "v": 86
    },
    {
      "midi": 89,
      "hit": false,
      "t": 54315.999380208035,
      "d": 76.38892708333151,
      "v": 104
    },
    {
      "midi": 77,
      "hit": false,
      "t": 54319.47160416637,
      "d": 62.500031249997846,
      "v": 86
    },
    {
      "midi": 46,
      "hit": false,
      "t": 54322.943828124706,
      "d": 55.55558333332738,
      "v": 97
    },
    {
      "midi": 58,
      "hit": false,
      "t": 54322.943828124706,
      "d": 59.02780729166261,
      "v": 104
    },
    {
      "midi": 61,
      "hit": false,
      "t": 54600.721744791364,
      "d": 59.02780729166261,
      "v": 91
    },
    {
      "midi": 51,
      "hit": false,
      "t": 54611.13841666636,
      "d": 65.9722552083258,
      "v": 78
    },
    {
      "midi": 55,
      "hit": false,
      "t": 54621.55508854136,
      "d": 38.194463541665755,
      "v": 91
    },
    {
      "midi": 70,
      "hit": false,
      "t": 54753.49959895802,
      "d": 197.91676562500652,
      "v": 104
    },
    {
      "midi": 77,
      "hit": false,
      "t": 54756.971822916355,
      "d": 208.33343750000495,
      "v": 104
    },
    {
      "midi": 73,
      "hit": false,
      "t": 54760.44404687469,
      "d": 222.22233333333133,
      "v": 104
    },
    {
      "midi": 65,
      "hit": false,
      "t": 54763.916270833026,
      "d": 166.66675000000396,
      "v": 104
    },
    {
      "midi": 39,
      "hit": false,
      "t": 54916.694124999696,
      "d": 55.55558333332738,
      "v": 91
    },
    {
      "midi": 51,
      "hit": false,
      "t": 54916.694124999696,
      "d": 59.02780729166261,
      "v": 82
    },
    {
      "midi": 66,
      "hit": false,
      "t": 55072.94420312469,
      "d": 107.63894270834135,
      "v": 82
    },
    {
      "midi": 54,
      "hit": false,
      "t": 55170.16647395802,
      "d": 41.66668750000099,
      "v": 22
    },
    {
      "midi": 78,
      "hit": false,
      "t": 55173.63869791636,
      "d": 90.27782291667245,
      "v": 97
    },
    {
      "midi": 73,
      "hit": false,
      "t": 55177.11092187469,
      "d": 65.97225520833308,
      "v": 97
    },
    {
      "midi": 75,
      "hit": false,
      "t": 55187.52759374969,
      "d": 62.50003125000512,
      "v": 86
    },
    {
      "midi": 51,
      "hit": false,
      "t": 55194.472041666355,
      "d": 59.02780729167716,
      "v": 74
    },
    {
      "midi": 61,
      "hit": false,
      "t": 55197.94426562469,
      "d": 48.61113541667146,
      "v": 86
    },
    {
      "midi": 73,
      "hit": false,
      "t": 55472.24995833303,
      "d": 114.58339062499726,
      "v": 78
    },
    {
      "midi": 75,
      "hit": false,
      "t": 55475.72218229136,
      "d": 111.11116666666203,
      "v": 82
    },
    {
      "midi": 79,
      "hit": false,
      "t": 55475.72218229136,
      "d": 121.52783854166046,
      "v": 113
    },
    {
      "midi": 58,
      "hit": false,
      "t": 55479.1944062497,
      "d": 76.38892708333151,
      "v": 86
    },
    {
      "midi": 67,
      "hit": false,
      "t": 55482.666630208034,
      "d": 83.3333749999947,
      "v": 97
    },
    {
      "midi": 46,
      "hit": false,
      "t": 55493.08330208303,
      "d": 55.55558333333465,
      "v": 86
    },
    {
      "midi": 61,
      "hit": false,
      "t": 55760.44454687469,
      "d": 62.500031249997846,
      "v": 91
    },
    {
      "midi": 51,
      "hit": false,
      "t": 55767.388994791356,
      "d": 65.97225520833308,
      "v": 82
    },
    {
      "midi": 80,
      "hit": false,
      "t": 55767.388994791356,
      "d": 138.88895833332936,
      "v": 97
    },
    {
      "midi": 73,
      "hit": false,
      "t": 55770.86121874969,
      "d": 114.58339062499726,
      "v": 82
    },
    {
      "midi": 75,
      "hit": false,
      "t": 55774.333442708026,
      "d": 121.52783854166046,
      "v": 78
    },
    {
      "midi": 68,
      "hit": false,
      "t": 55777.80566666636,
      "d": 76.38892708332423,
      "v": 97
    },
    {
      "midi": 55,
      "hit": false,
      "t": 55781.2778906247,
      "d": 34.72223958333052,
      "v": 104
    },
    {
      "midi": 73,
      "hit": false,
      "t": 56069.472479166354,
      "d": 76.38892708333879,
      "v": 86
    },
    {
      "midi": 51,
      "hit": false,
      "t": 56072.94470312469,
      "d": 52.08335937499942,
      "v": 86
    },
    {
      "midi": 75,
      "hit": false,
      "t": 56072.94470312469,
      "d": 69.44447916666832,
      "v": 82
    },
    {
      "midi": 39,
      "hit": false,
      "t": 56076.416927083024,
      "d": 48.61113541666418,
      "v": 97
    },
    {
      "midi": 81,
      "hit": false,
      "t": 56079.88915104136,
      "d": 86.80559895833721,
      "v": 97
    },
    {
      "midi": 69,
      "hit": false,
      "t": 56090.30582291636,
      "d": 59.02780729166989,
      "v": 104
    },
    {
      "midi": 70,
      "hit": false,
      "t": 56364.611515624696,
      "d": 59.02780729166261,
      "v": 91
    },
    {
      "midi": 49,
      "hit": false,
      "t": 56371.55596354136,
      "d": 55.55558333333465,
      "v": 97
    },
    {
      "midi": 82,
      "hit": false,
      "t": 56371.55596354136,
      "d": 62.50003125000512,
      "v": 104
    },
    {
      "midi": 37,
      "hit": false,
      "t": 56375.028187499694,
      "d": 55.55558333333465,
      "v": 97
    },
    {
      "midi": 87,
      "hit": false,
      "t": 56652.80610416636,
      "d": 65.97225520834036,
      "v": 104
    },
    {
      "midi": 36,
      "hit": false,
      "t": 56656.278328124696,
      "d": 69.44447916666832,
      "v": 104
    },
    {
      "midi": 75,
      "hit": false,
      "t": 56659.75055208303,
      "d": 59.02780729166989,
      "v": 104
    },
    {
      "midi": 48,
      "hit": false,
      "t": 56670.16722395803,
      "d": 55.55558333333465,
      "v": 97
    },
    {
      "midi": 56,
      "hit": false,
      "t": 56951.41736458303,
      "d": 59.02780729166989,
      "v": 91
    },
    {
      "midi": 51,
      "hit": false,
      "t": 56954.889588541366,
      "d": 52.08335937499942,
      "v": 86
    },
    {
      "midi": 60,
      "hit": false,
      "t": 56954.889588541366,
      "d": 59.02780729166989,
      "v": 97
    },
    {
      "midi": 75,
      "hit": false,
      "t": 57072.9452031247,
      "d": 260.41679687498254,
      "v": 86
    },
    {
      "midi": 63,
      "hit": false,
      "t": 57079.88965104136,
      "d": 152.77785416666302,
      "v": 86
    },
    {
      "midi": 68,
      "hit": false,
      "t": 57079.88965104136,
      "d": 222.22233333331678,
      "v": 86
    },
    {
      "midi": 72,
      "hit": false,
      "t": 57086.834098958025,
      "d": 250.00012499999139,
      "v": 97
    },
    {
      "midi": 51,
      "hit": false,
      "t": 57239.61195312469,
      "d": 55.55558333332738,
      "v": 97
    },
    {
      "midi": 39,
      "hit": false,
      "t": 57246.55640104135,
      "d": 45.13891145832895,
      "v": 97
    },
    {
      "midi": 65,
      "hit": false,
      "t": 57371.55646354135,
      "d": 197.91676562500652,
      "v": 78
    },
    {
      "midi": 51,
      "hit": false,
      "t": 57513.91764583301,
      "d": 48.61113541667146,
      "v": 91
    },
    {
      "midi": 60,
      "hit": false,
      "t": 57517.38986979135,
      "d": 55.55558333334193,
      "v": 97
    },
    {
      "midi": 77,
      "hit": false,
      "t": 57517.38986979135,
      "d": 69.44447916667559,
      "v": 97
    },
    {
      "midi": 56,
      "hit": false,
      "t": 57520.86209374968,
      "d": 45.138911458336224,
      "v": 91
    },
    {
      "midi": 79,
      "hit": false,
      "t": 57798.640010416355,
      "d": 114.58339062500454,
      "v": 104
    },
    {
      "midi": 75,
      "hit": false,
      "t": 57798.640010416355,
      "d": 128.4722864583382,
      "v": 82
    },
    {
      "midi": 67,
      "hit": false,
      "t": 57802.11223437469,
      "d": 79.86115104166674,
      "v": 97
    },
    {
      "midi": 44,
      "hit": false,
      "t": 57816.001130208024,
      "d": 55.55558333333465,
      "v": 97
    },
    {
      "midi": 56,
      "hit": false,
      "t": 57819.47335416636,
      "d": 55.55558333333465,
      "v": 97
    },
    {
      "midi": 51,
      "hit": false,
      "t": 58090.30682291636,
      "d": 69.44447916666832,
      "v": 78
    },
    {
      "midi": 56,
      "hit": false,
      "t": 58093.7790468747,
      "d": 72.91670312499627,
      "v": 86
    },
    {
      "midi": 80,
      "hit": false,
      "t": 58093.7790468747,
      "d": 118.05561458332522,
      "v": 104
    },
    {
      "midi": 75,
      "hit": false,
      "t": 58097.25127083303,
      "d": 104.16671874999156,
      "v": 91
    },
    {
      "midi": 68,
      "hit": false,
      "t": 58100.72349479137,
      "d": 65.9722552083258,
      "v": 97
    },
    {
      "midi": 60,
      "hit": false,
      "t": 58104.1957187497,
      "d": 48.61113541666418,
      "v": 91
    },
    {
      "midi": 70,
      "hit": false,
      "t": 58388.918083333025,
      "d": 69.44447916666832,
      "v": 91
    },
    {
      "midi": 82,
      "hit": false,
      "t": 58392.39030729136,
      "d": 93.75004687500041,
      "v": 97
    },
    {
      "midi": 44,
      "hit": false,
      "t": 58395.862531249695,
      "d": 55.55558333333465,
      "v": 86
    },
    {
      "midi": 56,
      "hit": false,
      "t": 58399.33475520803,
      "d": 41.66668750000099,
      "v": 97
    },
    {
      "midi": 75,
      "hit": false,
      "t": 58402.806979166366,
      "d": 59.02780729166261,
      "v": 74
    },
    {
      "midi": 54,
      "hit": false,
      "t": 58684.05711979136,
      "d": 69.44447916666104,
      "v": 91
    },
    {
      "midi": 42,
      "hit": false,
      "t": 58691.00156770802,
      "d": 65.97225520833308,
      "v": 91
    },
    {
      "midi": 84,
      "hit": false,
      "t": 58691.00156770802,
      "d": 72.91670312499627,
      "v": 97
    },
    {
      "midi": 72,
      "hit": false,
      "t": 58697.946015624686,
      "d": 59.02780729166989,
      "v": 104
    },
    {
      "midi": 41,
      "hit": false,
      "t": 58972.25170833302,
      "d": 55.55558333333465,
      "v": 104
    },
    {
      "midi": 73,
      "hit": false,
      "t": 58979.19615624968,
      "d": 62.50003125000512,
      "v": 104
    },
    {
      "midi": 53,
      "hit": false,
      "t": 58982.668380208015,
      "d": 62.50003125000512,
      "v": 104
    },
    {
      "midi": 85,
      "hit": false,
      "t": 58986.14060416635,
      "d": 72.91670312499627,
      "v": 97
    },
    {
      "midi": 61,
      "hit": false,
      "t": 59250.02962499968,
      "d": 59.027807291655336,
      "v": 97
    },
    {
      "midi": 56,
      "hit": false,
      "t": 59256.974072916346,
      "d": 41.666687499993714,
      "v": 68
    },
    {
      "midi": 53,
      "hit": false,
      "t": 59263.91852083301,
      "d": 52.08335937499214,
      "v": 86
    },
    {
      "midi": 97,
      "hit": false,
      "t": 59274.33519270801,
      "d": 34.72223958333052,
      "v": 97
    },
    {
      "midi": 85,
      "hit": false,
      "t": 59274.33519270801,
      "d": 48.61113541665691,
      "v": 97
    },
    {
      "midi": 84,
      "hit": false,
      "t": 59413.22415104133,
      "d": 52.08335937499942,
      "v": 91
    },
    {
      "midi": 96,
      "hit": false,
      "t": 59423.64082291633,
      "d": 38.194463541665755,
      "v": 97
    },
    {
      "midi": 51,
      "hit": false,
      "t": 59541.69643749966,
      "d": 34.722239583337796,
      "v": 82
    },
    {
      "midi": 39,
      "hit": false,
      "t": 59545.168661457996,
      "d": 34.722239583337796,
      "v": 91
    },
    {
      "midi": 94,
      "hit": false,
      "t": 59691.002067708,
      "d": 62.50003125000512,
      "v": 97
    },
    {
      "midi": 82,
      "hit": false,
      "t": 59694.47429166634,
      "d": 55.55558333333465,
      "v": 104
    },
    {
      "midi": 49,
      "hit": false,
      "t": 59805.58545833301,
      "d": 65.97225520833308,
      "v": 97
    },
    {
      "midi": 37,
      "hit": false,
      "t": 59812.52990624967,
      "d": 65.97225520833308,
      "v": 97
    },
    {
      "midi": 87,
      "hit": false,
      "t": 59947.94664062467,
      "d": 187.50009375000081,
      "v": 74
    },
    {
      "midi": 92,
      "hit": false,
      "t": 59951.41886458301,
      "d": 163.19452604166872,
      "v": 97
    },
    {
      "midi": 80,
      "hit": false,
      "t": 59961.835536458006,
      "d": 184.02786979166558,
      "v": 97
    },
    {
      "midi": 84,
      "hit": false,
      "t": 59961.835536458006,
      "d": 184.02786979166558,
      "v": 97
    },
    {
      "midi": 36,
      "hit": false,
      "t": 60086.83559895801,
      "d": 52.08335937499942,
      "v": 104
    },
    {
      "midi": 48,
      "hit": false,
      "t": 60100.72449479134,
      "d": 55.55558333332738,
      "v": 91
    },
    {
      "midi": 80,
      "hit": false,
      "t": 60368.085739583,
      "d": 72.91670312499627,
      "v": 82
    },
    {
      "midi": 75,
      "hit": false,
      "t": 60371.55796354134,
      "d": 62.500031249997846,
      "v": 86
    },
    {
      "midi": 87,
      "hit": false,
      "t": 60375.03018749967,
      "d": 76.38892708332423,
      "v": 86
    },
    {
      "midi": 84,
      "hit": false,
      "t": 60381.974635416336,
      "d": 76.38892708332423,
      "v": 91
    },
    {
      "midi": 48,
      "hit": false,
      "t": 60395.86353124967,
      "d": 55.55558333332738,
      "v": 97
    },
    {
      "midi": 60,
      "hit": false,
      "t": 60395.86353124967,
      "d": 62.50003124999057,
      "v": 97
    },
    {
      "midi": 87,
      "hit": false,
      "t": 60524.33581770799,
      "d": 131.94451041667344,
      "v": 91
    },
    {
      "midi": 80,
      "hit": false,
      "t": 60527.80804166633,
      "d": 114.58339062500454,
      "v": 91
    },
    {
      "midi": 84,
      "hit": false,
      "t": 60527.80804166633,
      "d": 125.00006250000297,
      "v": 78
    },
    {
      "midi": 75,
      "hit": false,
      "t": 60531.280265624664,
      "d": 97.22227083333564,
      "v": 104
    },
    {
      "midi": 60,
      "hit": false,
      "t": 60656.28032812467,
      "d": 62.500031249997846,
      "v": 97
    },
    {
      "midi": 48,
      "hit": false,
      "t": 60663.22477604133,
      "d": 52.08335937499942,
      "v": 91
    },
    {
      "midi": 74,
      "hit": false,
      "t": 60826.419302083,
      "d": 59.02780729166989,
      "v": 113
    },
    {
      "midi": 86,
      "hit": false,
      "t": 60829.891526041334,
      "d": 62.500031249997846,
      "v": 113
    },
    {
      "midi": 59,
      "hit": false,
      "t": 60941.002692707996,
      "d": 59.02780729166261,
      "v": 104
    },
    {
      "midi": 47,
      "hit": false,
      "t": 60947.94714062466,
      "d": 59.02780729166261,
      "v": 104
    },
    {
      "midi": 85,
      "hit": false,
      "t": 61090.308322916324,
      "d": 138.88895833333663,
      "v": 104
    },
    {
      "midi": 73,
      "hit": false,
      "t": 61093.78054687466,
      "d": 166.66675000000396,
      "v": 104
    },
    {
      "midi": 46,
      "hit": false,
      "t": 61218.78060937466,
      "d": 69.44447916666832,
      "v": 91
    },
    {
      "midi": 58,
      "hit": false,
      "t": 61222.252833333,
      "d": 65.97225520833308,
      "v": 104
    },
    {
      "midi": 67,
      "hit": false,
      "t": 61496.55852604133,
      "d": 86.80559895833721,
      "v": 97
    },
    {
      "midi": 75,
      "hit": false,
      "t": 61500.03074999966,
      "d": 72.91670312500355,
      "v": 82
    },
    {
      "midi": 51,
      "hit": false,
      "t": 61503.502973958,
      "d": 59.02780729166989,
      "v": 78
    },
    {
      "midi": 61,
      "hit": false,
      "t": 61506.975197916334,
      "d": 45.138911458336224,
      "v": 91
    },
    {
      "midi": 70,
      "hit": false,
      "t": 61510.44742187467,
      "d": 59.02780729166261,
      "v": 74
    },
    {
      "midi": 55,
      "hit": false,
      "t": 61513.919645833004,
      "d": 31.25001562500256,
      "v": 97
    },
    {
      "midi": 63,
      "hit": false,
      "t": 61534.75298958301,
      "d": 24.305567708324816,
      "v": 86
    },
    {
      "midi": 75,
      "hit": false,
      "t": 61642.391932291335,
      "d": 170.13897395832464,
      "v": 91
    },
    {
      "midi": 70,
      "hit": false,
      "t": 61649.336380208,
      "d": 159.7223020833262,
      "v": 86
    },
    {
      "midi": 63,
      "hit": false,
      "t": 61656.28082812466,
      "d": 131.94451041666616,
      "v": 104
    },
    {
      "midi": 67,
      "hit": false,
      "t": 61656.28082812466,
      "d": 166.66674999999668,
      "v": 31
    },
    {
      "midi": 51,
      "hit": false,
      "t": 61795.16978645799,
      "d": 52.08335937499942,
      "v": 91
    },
    {
      "midi": 39,
      "hit": false,
      "t": 61798.642010416326,
      "d": 52.08335937499942,
      "v": 97
    },
    {
      "midi": 61,
      "hit": false,
      "t": 61972.25320833299,
      "d": 121.52783854166046,
      "v": 82
    },
    {
      "midi": 67,
      "hit": false,
      "t": 61972.25320833299,
      "d": 177.0834218749951,
      "v": 91
    },
    {
      "midi": 75,
      "hit": false,
      "t": 61979.19765624966,
      "d": 138.88895833332936,
      "v": 91
    },
    {
      "midi": 70,
      "hit": false,
      "t": 61989.614328124655,
      "d": 135.41673437499412,
      "v": 62
    },
    {
      "midi": 51,
      "hit": false,
      "t": 62079.89215104132,
      "d": 62.500031249997846,
      "v": 104
    },
    {
      "midi": 39,
      "hit": false,
      "t": 62083.364374999655,
      "d": 62.500031249997846,
      "v": 104
    },
    {
      "midi": 60,
      "hit": false,
      "t": 62302.11448437466,
      "d": 131.94451041667344,
      "v": 68
    },
    {
      "midi": 51,
      "hit": false,
      "t": 62381.975635416326,
      "d": 45.138911458336224,
      "v": 113
    },
    {
      "midi": 63,
      "hit": false,
      "t": 62381.975635416326,
      "d": 62.50003125000512,
      "v": 113
    },
    {
      "midi": 44,
      "hit": false,
      "t": 62385.44785937466,
      "d": 41.66668750000099,
      "v": 113
    },
    {
      "midi": 68,
      "hit": false,
      "t": 62388.920083332996,
      "d": 72.91670312500355,
      "v": 113
    },
    {
      "midi": 86,
      "hit": false,
      "t": 62670.170223958,
      "d": 100.69449479167088,
      "v": 113
    },
    {
      "midi": 74,
      "hit": false,
      "t": 62673.64244791633,
      "d": 79.86115104166674,
      "v": 121
    },
    {
      "midi": 75,
      "hit": false,
      "t": 62968.781484374675,
      "d": 72.91670312500355,
      "v": 97
    },
    {
      "midi": 87,
      "hit": false,
      "t": 62972.25370833301,
      "d": 72.91670312500355,
      "v": 104
    },
    {
      "midi": 88,
      "hit": false,
      "t": 63281.281640624686,
      "d": 76.38892708333151,
      "v": 104
    },
    {
      "midi": 76,
      "hit": false,
      "t": 63284.75386458302,
      "d": 65.97225520833308,
      "v": 104
    },
    {
      "midi": 46,
      "hit": false,
      "t": 63566.004005208015,
      "d": 86.80559895834449,
      "v": 91
    },
    {
      "midi": 82,
      "hit": false,
      "t": 63569.47622916635,
      "d": 48.61113541667146,
      "v": 113
    },
    {
      "midi": 85,
      "hit": false,
      "t": 63569.47622916635,
      "d": 59.02780729167716,
      "v": 104
    },
    {
      "midi": 77,
      "hit": false,
      "t": 63572.948453124685,
      "d": 48.61113541667146,
      "v": 104
    },
    {
      "midi": 89,
      "hit": false,
      "t": 63576.42067708302,
      "d": 48.61113541667146,
      "v": 104
    },
    {
      "midi": 58,
      "hit": false,
      "t": 63590.309572916354,
      "d": 59.02780729166989,
      "v": 104
    },
    {
      "midi": 61,
      "hit": false,
      "t": 63868.08748958303,
      "d": 69.44447916666104,
      "v": 86
    },
    {
      "midi": 51,
      "hit": false,
      "t": 63875.03193749969,
      "d": 72.91670312499627,
      "v": 78
    },
    {
      "midi": 55,
      "hit": false,
      "t": 63885.44860937469,
      "d": 55.55558333333465,
      "v": 97
    },
    {
      "midi": 70,
      "hit": false,
      "t": 64031.28201562468,
      "d": 187.50009375000081,
      "v": 104
    },
    {
      "midi": 73,
      "hit": false,
      "t": 64034.75423958302,
      "d": 197.91676562499924,
      "v": 113
    },
    {
      "midi": 77,
      "hit": false,
      "t": 64034.75423958302,
      "d": 215.27788541666087,
      "v": 104
    },
    {
      "midi": 65,
      "hit": false,
      "t": 64038.22646354135,
      "d": 159.7223020833335,
      "v": 104
    },
    {
      "midi": 39,
      "hit": false,
      "t": 64191.00431770802,
      "d": 45.13891145832895,
      "v": 91
    },
    {
      "midi": 51,
      "hit": false,
      "t": 64197.948765624686,
      "d": 45.13891145832895,
      "v": 97
    },
    {
      "midi": 66,
      "hit": false,
      "t": 64361.14329166635,
      "d": 111.1111666666693,
      "v": 86
    },
    {
      "midi": 78,
      "hit": false,
      "t": 64454.89333854135,
      "d": 90.27782291667245,
      "v": 97
    },
    {
      "midi": 75,
      "hit": false,
      "t": 64458.36556249968,
      "d": 76.38892708333151,
      "v": 91
    },
    {
      "midi": 73,
      "hit": false,
      "t": 64461.83778645802,
      "d": 62.500031249997846,
      "v": 97
    },
    {
      "midi": 51,
      "hit": false,
      "t": 64468.78223437468,
      "d": 69.44447916666832,
      "v": 74
    },
    {
      "midi": 61,
      "hit": false,
      "t": 64472.25445833302,
      "d": 59.02780729166261,
      "v": 97
    },
    {
      "midi": 55,
      "hit": false,
      "t": 64472.25445833302,
      "d": 69.44447916666832,
      "v": 91
    },
    {
      "midi": 79,
      "hit": false,
      "t": 64760.44904687469,
      "d": 121.52783854166046,
      "v": 104
    },
    {
      "midi": 67,
      "hit": false,
      "t": 64763.92127083302,
      "d": 86.80559895832994,
      "v": 104
    },
    {
      "midi": 73,
      "hit": false,
      "t": 64767.39349479136,
      "d": 83.3333749999947,
      "v": 97
    },
    {
      "midi": 58,
      "hit": false,
      "t": 64770.865718749694,
      "d": 76.38892708332423,
      "v": 86
    },
    {
      "midi": 46,
      "hit": false,
      "t": 64777.81016666636,
      "d": 62.500031249997846,
      "v": 91
    },
    {
      "midi": 75,
      "hit": false,
      "t": 64777.81016666636,
      "d": 83.3333749999947,
      "v": 86
    },
    {
      "midi": 73,
      "hit": false,
      "t": 65059.06030729135,
      "d": 97.22227083332837,
      "v": 82
    },
    {
      "midi": 61,
      "hit": false,
      "t": 65062.532531249686,
      "d": 62.500031249997846,
      "v": 91
    },
    {
      "midi": 75,
      "hit": false,
      "t": 65066.00475520802,
      "d": 104.16671874999156,
      "v": 71
    },
    {
      "midi": 80,
      "hit": false,
      "t": 65066.00475520802,
      "d": 131.9445104166589,
      "v": 97
    },
    {
      "midi": 51,
      "hit": false,
      "t": 65072.949203124685,
      "d": 59.02780729166261,
      "v": 78
    },
    {
      "midi": 68,
      "hit": false,
      "t": 65072.949203124685,
      "d": 65.9722552083258,
      "v": 91
    },
    {
      "midi": 55,
      "hit": false,
      "t": 65090.31032291635,
      "d": 24.30556770833209,
      "v": 97
    },
    {
      "midi": 73,
      "hit": false,
      "t": 65368.08823958301,
      "d": 59.02780729166261,
      "v": 104
    },
    {
      "midi": 75,
      "hit": false,
      "t": 65368.08823958301,
      "d": 62.500031249997846,
      "v": 91
    },
    {
      "midi": 81,
      "hit": false,
      "t": 65371.56046354135,
      "d": 86.80559895832994,
      "v": 104
    },
    {
      "midi": 69,
      "hit": false,
      "t": 65378.50491145801,
      "d": 48.61113541666418,
      "v": 113
    },
    {
      "midi": 51,
      "hit": false,
      "t": 65378.50491145801,
      "d": 55.55558333333465,
      "v": 91
    },
    {
      "midi": 39,
      "hit": false,
      "t": 65388.92158333301,
      "d": 45.138911458336224,
      "v": 97
    },
    {
      "midi": 70,
      "hit": false,
      "t": 65659.75505208301,
      "d": 59.02780729166989,
      "v": 97
    },
    {
      "midi": 82,
      "hit": false,
      "t": 65663.22727604135,
      "d": 62.50003125000512,
      "v": 104
    },
    {
      "midi": 49,
      "hit": false,
      "t": 65673.64394791635,
      "d": 55.55558333333465,
      "v": 97
    },
    {
      "midi": 37,
      "hit": false,
      "t": 65673.64394791635,
      "d": 62.50003125000512,
      "v": 97
    },
    {
      "midi": 87,
      "hit": false,
      "t": 65958.36631249968,
      "d": 59.02780729166989,
      "v": 104
    },
    {
      "midi": 75,
      "hit": false,
      "t": 65961.83853645802,
      "d": 55.55558333333465,
      "v": 104
    },
    {
      "midi": 36,
      "hit": false,
      "t": 65968.78298437469,
      "d": 62.50003124999057,
      "v": 104
    },
    {
      "midi": 48,
      "hit": false,
      "t": 65975.72743229136,
      "d": 59.027807291655336,
      "v": 97
    },
    {
      "midi": 56,
      "hit": false,
      "t": 66274.33869270801,
      "d": 48.61113541666418,
      "v": 97
    },
    {
      "midi": 60,
      "hit": false,
      "t": 66274.33869270801,
      "d": 55.55558333333465,
      "v": 97
    },
    {
      "midi": 51,
      "hit": false,
      "t": 66277.81091666635,
      "d": 48.61113541666418,
      "v": 91
    },
    {
      "midi": 75,
      "hit": false,
      "t": 66409.75542708302,
      "d": 274.3056927083526,
      "v": 86
    },
    {
      "midi": 68,
      "hit": false,
      "t": 66413.22765104135,
      "d": 218.75010937501793,
      "v": 86
    },
    {
      "midi": 72,
      "hit": false,
      "t": 66420.17209895802,
      "d": 246.52790104168525,
      "v": 104
    },
    {
      "midi": 63,
      "hit": false,
      "t": 66427.11654687469,
      "d": 163.19452604166872,
      "v": 97
    },
    {
      "midi": 51,
      "hit": false,
      "t": 66576.42217708302,
      "d": 48.611135416678735,
      "v": 86
    },
    {
      "midi": 39,
      "hit": false,
      "t": 66586.83884895802,
      "d": 45.1389114583435,
      "v": 97
    },
    {
      "midi": 65,
      "hit": false,
      "t": 66739.6167031247,
      "d": 145.8334062500071,
      "v": 74
    },
    {
      "midi": 51,
      "hit": false,
      "t": 66854.2000937497,
      "d": 45.13891145832895,
      "v": 86
    },
    {
      "midi": 77,
      "hit": false,
      "t": 66854.2000937497,
      "d": 65.97225520834036,
      "v": 104
    },
    {
      "midi": 60,
      "hit": false,
      "t": 66857.67231770804,
      "d": 52.08335937499942,
      "v": 97
    },
    {
      "midi": 56,
      "hit": false,
      "t": 66861.14454166638,
      "d": 38.19446354165848,
      "v": 97
    },
    {
      "midi": 79,
      "hit": false,
      "t": 67138.92245833305,
      "d": 104.16671874999884,
      "v": 104
    },
    {
      "midi": 67,
      "hit": false,
      "t": 67142.39468229139,
      "d": 69.44447916666104,
      "v": 113
    },
    {
      "midi": 72,
      "hit": false,
      "t": 67142.39468229139,
      "d": 90.2778229166579,
      "v": 91
    },
    {
      "midi": 75,
      "hit": false,
      "t": 67142.39468229139,
      "d": 90.2778229166579,
      "v": 91
    },
    {
      "midi": 44,
      "hit": false,
      "t": 67159.75580208305,
      "d": 48.61113541666418,
      "v": 97
    },
    {
      "midi": 56,
      "hit": false,
      "t": 67159.75580208305,
      "d": 52.08335937499942,
      "v": 97
    },
    {
      "midi": 51,
      "hit": false,
      "t": 67434.06149479139,
      "d": 72.91670312501083,
      "v": 86
    },
    {
      "midi": 75,
      "hit": false,
      "t": 67434.06149479139,
      "d": 86.80559895835177,
      "v": 91
    },
    {
      "midi": 56,
      "hit": false,
      "t": 67441.00594270806,
      "d": 69.44447916667559,
      "v": 91
    },
    {
      "midi": 80,
      "hit": false,
      "t": 67441.00594270806,
      "d": 86.80559895835177,
      "v": 104
    },
    {
      "midi": 68,
      "hit": false,
      "t": 67444.47816666639,
      "d": 55.55558333333465,
      "v": 86
    },
    {
      "midi": 60,
      "hit": false,
      "t": 67444.47816666639,
      "d": 69.44447916667559,
      "v": 104
    },
    {
      "midi": 72,
      "hit": false,
      "t": 67451.42261458306,
      "d": 45.13891145832895,
      "v": 97
    },
    {
      "midi": 70,
      "hit": false,
      "t": 67729.20053124973,
      "d": 59.02780729168444,
      "v": 91
    },
    {
      "midi": 82,
      "hit": false,
      "t": 67729.20053124973,
      "d": 69.44447916669014,
      "v": 104
    },
    {
      "midi": 60,
      "hit": false,
      "t": 67739.61720312474,
      "d": 55.555583333349205,
      "v": 97
    },
    {
      "midi": 75,
      "hit": false,
      "t": 67746.56165104141,
      "d": 34.722239583337796,
      "v": 74
    },
    {
      "midi": 48,
      "hit": false,
      "t": 67756.97832291642,
      "d": 38.19446354167303,
      "v": 71
    },
    {
      "midi": 75,
      "hit": false,
      "t": 67899.33950520809,
      "d": 65.97225520834036,
      "v": 91
    },
    {
      "midi": 72,
      "hit": false,
      "t": 67906.28395312476,
      "d": 72.91670312499627,
      "v": 104
    },
    {
      "midi": 84,
      "hit": false,
      "t": 67913.22840104143,
      "d": 86.80559895832266,
      "v": 113
    },
    {
      "midi": 45,
      "hit": false,
      "t": 68034.75623958309,
      "d": 55.55558333333465,
      "v": 121
    },
    {
      "midi": 57,
      "hit": false,
      "t": 68038.22846354143,
      "d": 45.13891145832895,
      "v": 97
    },
    {
      "midi": 79,
      "hit": false,
      "t": 68166.70074999977,
      "d": 170.13897395832464,
      "v": 104
    },
    {
      "midi": 82,
      "hit": false,
      "t": 68166.70074999977,
      "d": 170.13897395832464,
      "v": 104
    },
    {
      "midi": 85,
      "hit": false,
      "t": 68184.06186979143,
      "d": 170.13897395832464,
      "v": 113
    },
    {
      "midi": 73,
      "hit": false,
      "t": 68187.53409374977,
      "d": 149.30563020832778,
      "v": 104
    },
    {
      "midi": 58,
      "hit": false,
      "t": 68319.47860416643,
      "d": 59.027807291655336,
      "v": 104
    },
    {
      "midi": 46,
      "hit": false,
      "t": 68322.95082812477,
      "d": 55.5555833333201,
      "v": 97
    },
    {
      "midi": 85,
      "hit": false,
      "t": 68510.45092187476,
      "d": 100.69449479167815,
      "v": 97
    },
    {
      "midi": 92,
      "hit": false,
      "t": 68572.95095312476,
      "d": 38.19446354167303,
      "v": 86
    },
    {
      "midi": 97,
      "hit": false,
      "t": 68576.4231770831,
      "d": 65.97225520835491,
      "v": 104
    },
    {
      "midi": 94,
      "hit": false,
      "t": 68579.89540104143,
      "d": 59.02780729168444,
      "v": 91
    },
    {
      "midi": 61,
      "hit": false,
      "t": 68583.36762499977,
      "d": 48.611135416678735,
      "v": 97
    },
    {
      "midi": 51,
      "hit": false,
      "t": 68586.8398489581,
      "d": 52.08335937501397,
      "v": 86
    },
    {
      "midi": 55,
      "hit": false,
      "t": 68590.31207291644,
      "d": 27.777791666667326,
      "v": 97
    },
    {
      "midi": 51,
      "hit": false,
      "t": 68881.97888541645,
      "d": 69.44447916667559,
      "v": 82
    },
    {
      "midi": 97,
      "hit": false,
      "t": 68881.97888541645,
      "d": 76.38892708334606,
      "v": 97
    },
    {
      "midi": 94,
      "hit": false,
      "t": 68885.45110937479,
      "d": 55.55558333333465,
      "v": 91
    },
    {
      "midi": 85,
      "hit": false,
      "t": 68888.92333333312,
      "d": 65.97225520834036,
      "v": 97
    },
    {
      "midi": 39,
      "hit": false,
      "t": 68892.39555729146,
      "d": 52.08335937499942,
      "v": 97
    },
    {
      "midi": 92,
      "hit": false,
      "t": 69163.22902604146,
      "d": 59.02780729168444,
      "v": 74
    },
    {
      "midi": 84,
      "hit": false,
      "t": 69163.22902604146,
      "d": 79.8611510416813,
      "v": 91
    },
    {
      "midi": 96,
      "hit": false,
      "t": 69170.17347395813,
      "d": 65.97225520834036,
      "v": 97
    },
    {
      "midi": 41,
      "hit": false,
      "t": 69177.1179218748,
      "d": 59.02780729166989,
      "v": 97
    },
    {
      "midi": 53,
      "hit": false,
      "t": 69184.06236979147,
      "d": 62.50003125000512,
      "v": 86
    },
    {
      "midi": 82,
      "hit": false,
      "t": 69461.84028645814,
      "d": 83.33337500000198,
      "v": 91
    },
    {
      "midi": 91,
      "hit": false,
      "t": 69465.31251041648,
      "d": 93.75004687500768,
      "v": 97
    },
    {
      "midi": 94,
      "hit": false,
      "t": 69465.31251041648,
      "d": 93.75004687500768,
      "v": 91
    },
    {
      "midi": 43,
      "hit": false,
      "t": 69479.2014062498,
      "d": 65.97225520834036,
      "v": 97
    },
    {
      "midi": 55,
      "hit": false,
      "t": 69482.67363020814,
      "d": 65.97225520834036,
      "v": 91
    },
    {
      "midi": 93,
      "hit": false,
      "t": 69750.03487499982,
      "d": 83.33337500000198,
      "v": 104
    },
    {
      "midi": 90,
      "hit": false,
      "t": 69753.50709895816,
      "d": 69.44447916666104,
      "v": 71
    },
    {
      "midi": 81,
      "hit": false,
      "t": 69753.50709895816,
      "d": 72.91670312499627,
      "v": 104
    },
    {
      "midi": 42,
      "hit": false,
      "t": 69770.86821874982,
      "d": 72.91670312501083,
      "v": 86
    },
    {
      "midi": 54,
      "hit": false,
      "t": 69774.34044270816,
      "d": 65.97225520834036,
      "v": 91
    },
    {
      "midi": 94,
      "hit": false,
      "t": 70041.70168749984,
      "d": 69.44447916667559,
      "v": 97
    },
    {
      "midi": 43,
      "hit": false,
      "t": 70052.11835937484,
      "d": 59.02780729166989,
      "v": 104
    },
    {
      "midi": 82,
      "hit": false,
      "t": 70055.59058333318,
      "d": 62.50003125000512,
      "v": 97
    },
    {
      "midi": 55,
      "hit": false,
      "t": 70059.06280729151,
      "d": 59.02780729166989,
      "v": 104
    },
    {
      "midi": 55,
      "hit": false,
      "t": 70343.78517187486,
      "d": 83.33337500000198,
      "v": 97
    },
    {
      "midi": 61,
      "hit": false,
      "t": 70347.25739583319,
      "d": 62.50003124999057,
      "v": 86
    },
    {
      "midi": 87,
      "hit": false,
      "t": 70347.25739583319,
      "d": 79.86115104166674,
      "v": 86
    },
    {
      "midi": 75,
      "hit": false,
      "t": 70350.72961979153,
      "d": 65.9722552083258,
      "v": 97
    },
    {
      "midi": 51,
      "hit": false,
      "t": 70368.09073958319,
      "d": 45.13891145832895,
      "v": 82
    },
    {
      "midi": 80,
      "hit": false,
      "t": 70638.92420833319,
      "d": 111.1111666666693,
      "v": 86
    },
    {
      "midi": 87,
      "hit": false,
      "t": 70638.92420833319,
      "d": 149.30563020832778,
      "v": 86
    },
    {
      "midi": 75,
      "hit": false,
      "t": 70652.81310416652,
      "d": 62.50003125000512,
      "v": 97
    },
    {
      "midi": 84,
      "hit": false,
      "t": 70652.81310416652,
      "d": 121.52783854167501,
      "v": 97
    },
    {
      "midi": 44,
      "hit": false,
      "t": 70656.28532812485,
      "d": 52.08335937499942,
      "v": 97
    },
    {
      "midi": 56,
      "hit": false,
      "t": 70656.28532812485,
      "d": 52.08335937499942,
      "v": 97
    },
    {
      "midi": 84,
      "hit": false,
      "t": 70947.95214062485,
      "d": 65.97225520836946,
      "v": 97
    },
    {
      "midi": 63,
      "hit": false,
      "t": 70951.42436458319,
      "d": 52.08335937502852,
      "v": 104
    },
    {
      "midi": 51,
      "hit": false,
      "t": 70951.42436458319,
      "d": 59.02780729169899,
      "v": 91
    },
    {
      "midi": 92,
      "hit": false,
      "t": 70958.36881249986,
      "d": 38.19446354168758,
      "v": 97
    },
    {
      "midi": 87,
      "hit": false,
      "t": 70965.31326041653,
      "d": 20.83334375001141,
      "v": 86
    },
    {
      "midi": 96,
      "hit": false,
      "t": 70975.72993229154,
      "d": 27.77779166668188,
      "v": 113
    },
    {
      "midi": 84,
      "hit": false,
      "t": 71093.78554687489,
      "d": 184.02786979169468,
      "v": 113
    },
    {
      "midi": 96,
      "hit": false,
      "t": 71097.25777083322,
      "d": 135.41673437501595,
      "v": 113
    },
    {
      "midi": 92,
      "hit": false,
      "t": 71097.25777083322,
      "d": 145.83340625002165,
      "v": 104
    },
    {
      "midi": 87,
      "hit": false,
      "t": 71100.72999479156,
      "d": 163.19452604168328,
      "v": 97
    },
    {
      "midi": 63,
      "hit": false,
      "t": 71215.31338541656,
      "d": 55.555583333349205,
      "v": 91
    },
    {
      "midi": 51,
      "hit": false,
      "t": 71222.25783333323,
      "d": 52.08335937501397,
      "v": 97
    },
    {
      "midi": 82,
      "hit": false,
      "t": 71427.11904687491,
      "d": 135.4167343750014,
      "v": 78
    },
    {
      "midi": 61,
      "hit": false,
      "t": 71503.50797395824,
      "d": 69.44447916667559,
      "v": 97
    },
    {
      "midi": 49,
      "hit": false,
      "t": 71510.45242187491,
      "d": 65.97225520834036,
      "v": 97
    },
    {
      "midi": 94,
      "hit": false,
      "t": 71524.34131770824,
      "d": 69.44447916669014,
      "v": 104
    },
    {
      "midi": 87,
      "hit": false,
      "t": 71527.81354166658,
      "d": 55.555583333349205,
      "v": 97
    },
    {
      "midi": 80,
      "hit": false,
      "t": 71802.11923437493,
      "d": 83.33337500000198,
      "v": 97
    },
    {
      "midi": 84,
      "hit": false,
      "t": 71802.11923437493,
      "d": 83.33337500000198,
      "v": 97
    },
    {
      "midi": 92,
      "hit": false,
      "t": 71805.59145833326,
      "d": 97.22227083332837,
      "v": 97
    },
    {
      "midi": 60,
      "hit": false,
      "t": 71819.48035416659,
      "d": 59.02780729166989,
      "v": 91
    },
    {
      "midi": 87,
      "hit": false,
      "t": 71819.48035416659,
      "d": 62.50003125000512,
      "v": 68
    },
    {
      "midi": 48,
      "hit": false,
      "t": 71819.48035416659,
      "d": 69.44447916667559,
      "v": 86
    },
    {
      "midi": 86,
      "hit": false,
      "t": 72093.78604687493,
      "d": 62.50003125000512,
      "v": 86
    },
    {
      "midi": 47,
      "hit": false,
      "t": 72093.78604687493,
      "d": 65.97225520834036,
      "v": 97
    },
    {
      "midi": 79,
      "hit": false,
      "t": 72097.25827083326,
      "d": 65.97225520834036,
      "v": 113
    },
    {
      "midi": 91,
      "hit": false,
      "t": 72100.7304947916,
      "d": 62.50003125000512,
      "v": 104
    },
    {
      "midi": 59,
      "hit": false,
      "t": 72104.20271874993,
      "d": 48.61113541666418,
      "v": 97
    },
    {
      "midi": 92,
      "hit": false,
      "t": 72395.86953124993,
      "d": 59.02780729168444,
      "v": 97
    },
    {
      "midi": 80,
      "hit": false,
      "t": 72402.8139791666,
      "d": 55.555583333349205,
      "v": 97
    },
    {
      "midi": 48,
      "hit": false,
      "t": 72406.28620312494,
      "d": 59.02780729168444,
      "v": 82
    },
    {
      "midi": 60,
      "hit": false,
      "t": 72413.23065104161,
      "d": 34.722239583337796,
      "v": 86
    },
    {
      "midi": 75,
      "hit": false,
      "t": 72684.06411979163,
      "d": 69.44447916667559,
      "v": 91
    },
    {
      "midi": 87,
      "hit": false,
      "t": 72687.53634374996,
      "d": 69.44447916667559,
      "v": 97
    },
    {
      "midi": 45,
      "hit": false,
      "t": 72701.42523958329,
      "d": 45.1389114583435,
      "v": 104
    },
    {
      "midi": 57,
      "hit": false,
      "t": 72704.89746354162,
      "d": 38.19446354167303,
      "v": 104
    },
    {
      "midi": 85,
      "hit": false,
      "t": 72975.73093229164,
      "d": 62.500031250019674,
      "v": 86
    },
    {
      "midi": 82,
      "hit": false,
      "t": 72979.20315624998,
      "d": 48.611135416678735,
      "v": 86
    },
    {
      "midi": 89,
      "hit": false,
      "t": 72982.67538020831,
      "d": 76.38892708336061,
      "v": 104
    },
    {
      "midi": 77,
      "hit": false,
      "t": 72986.14760416665,
      "d": 62.500031250019674,
      "v": 86
    },
    {
      "midi": 46,
      "hit": false,
      "t": 72989.61982812498,
      "d": 55.555583333349205,
      "v": 97
    },
    {
      "midi": 58,
      "hit": false,
      "t": 72989.61982812498,
      "d": 59.02780729168444,
      "v": 104
    },
    {
      "midi": 61,
      "hit": false,
      "t": 73267.39774479167,
      "d": 59.02780729168444,
      "v": 91
    },
    {
      "midi": 51,
      "hit": false,
      "t": 73277.81441666668,
      "d": 65.97225520835491,
      "v": 78
    },
    {
      "midi": 55,
      "hit": false,
      "t": 73288.23108854168,
      "d": 38.19446354167303,
      "v": 91
    },
    {
      "midi": 70,
      "hit": false,
      "t": 73420.17559895836,
      "d": 197.91676562499197,
      "v": 104
    },
    {
      "midi": 77,
      "hit": false,
      "t": 73423.6478229167,
      "d": 208.33343749999767,
      "v": 104
    },
    {
      "midi": 73,
      "hit": false,
      "t": 73427.12004687503,
      "d": 222.2223333333386,
      "v": 104
    },
    {
      "midi": 65,
      "hit": false,
      "t": 73430.59227083337,
      "d": 166.6667499999894,
      "v": 104
    },
    {
      "midi": 39,
      "hit": false,
      "t": 73583.37012500003,
      "d": 55.55558333333465,
      "v": 91
    },
    {
      "midi": 51,
      "hit": false,
      "t": 73583.37012500003,
      "d": 59.02780729166989,
      "v": 82
    },
    {
      "midi": 66,
      "hit": false,
      "t": 73739.62020312504,
      "d": 107.63894270833407,
      "v": 82
    },
    {
      "midi": 54,
      "hit": false,
      "t": 73836.84247395837,
      "d": 41.666687500008265,
      "v": 22
    },
    {
      "midi": 78,
      "hit": false,
      "t": 73840.3146979167,
      "d": 90.277822916687,
      "v": 97
    },
    {
      "midi": 73,
      "hit": false,
      "t": 73843.78692187504,
      "d": 65.97225520834036,
      "v": 97
    },
    {
      "midi": 75,
      "hit": false,
      "t": 73854.20359375005,
      "d": 62.50003125000512,
      "v": 86
    },
    {
      "midi": 51,
      "hit": false,
      "t": 73861.14804166672,
      "d": 59.02780729166989,
      "v": 74
    },
    {
      "midi": 61,
      "hit": false,
      "t": 73864.62026562505,
      "d": 48.61113541666418,
      "v": 86
    },
    {
      "midi": 73,
      "hit": false,
      "t": 74138.92595833339,
      "d": 114.58339062501909,
      "v": 78
    },
    {
      "midi": 75,
      "hit": false,
      "t": 74142.39818229173,
      "d": 111.11116666668386,
      "v": 82
    },
    {
      "midi": 79,
      "hit": false,
      "t": 74142.39818229173,
      "d": 121.52783854168956,
      "v": 113
    },
    {
      "midi": 58,
      "hit": false,
      "t": 74145.87040625006,
      "d": 76.38892708334606,
      "v": 86
    },
    {
      "midi": 67,
      "hit": false,
      "t": 74149.3426302084,
      "d": 83.33337500001653,
      "v": 97
    },
    {
      "midi": 46,
      "hit": false,
      "t": 74159.7593020834,
      "d": 55.55558333333465,
      "v": 86
    },
    {
      "midi": 61,
      "hit": false,
      "t": 74427.12054687508,
      "d": 62.500031250019674,
      "v": 91
    },
    {
      "midi": 51,
      "hit": false,
      "t": 74434.06499479176,
      "d": 65.97225520835491,
      "v": 82
    },
    {
      "midi": 80,
      "hit": false,
      "t": 74434.06499479176,
      "d": 138.88895833336574,
      "v": 97
    },
    {
      "midi": 73,
      "hit": false,
      "t": 74437.53721875009,
      "d": 114.58339062501909,
      "v": 82
    },
    {
      "midi": 75,
      "hit": false,
      "t": 74441.00944270843,
      "d": 121.52783854168956,
      "v": 78
    },
    {
      "midi": 68,
      "hit": false,
      "t": 74444.48166666676,
      "d": 76.38892708334606,
      "v": 97
    },
    {
      "midi": 55,
      "hit": false,
      "t": 74447.9538906251,
      "d": 34.722239583337796,
      "v": 104
    },
    {
      "midi": 73,
      "hit": false,
      "t": 74736.14847916679,
      "d": 76.38892708334606,
      "v": 86
    },
    {
      "midi": 51,
      "hit": false,
      "t": 74739.62070312513,
      "d": 52.08335937501397,
      "v": 86
    },
    {
      "midi": 75,
      "hit": false,
      "t": 74739.62070312513,
      "d": 69.44447916667559,
      "v": 82
    },
    {
      "midi": 39,
      "hit": false,
      "t": 74743.09292708346,
      "d": 48.611135416678735,
      "v": 97
    },
    {
      "midi": 81,
      "hit": false,
      "t": 74746.5651510418,
      "d": 86.80559895833721,
      "v": 97
    },
    {
      "midi": 69,
      "hit": false,
      "t": 74756.9818229168,
      "d": 59.02780729166989,
      "v": 104
    },
    {
      "midi": 70,
      "hit": false,
      "t": 75031.28751562514,
      "d": 59.02780729166989,
      "v": 91
    },
    {
      "midi": 49,
      "hit": false,
      "t": 75038.23196354181,
      "d": 55.55558333333465,
      "v": 97
    },
    {
      "midi": 82,
      "hit": false,
      "t": 75038.23196354181,
      "d": 62.50003125000512,
      "v": 104
    },
    {
      "midi": 37,
      "hit": false,
      "t": 75041.70418750015,
      "d": 55.55558333333465,
      "v": 97
    },
    {
      "midi": 87,
      "hit": false,
      "t": 75319.48210416682,
      "d": 65.97225520834036,
      "v": 104
    },
    {
      "midi": 36,
      "hit": false,
      "t": 75322.95432812515,
      "d": 69.44447916667559,
      "v": 104
    },
    {
      "midi": 75,
      "hit": false,
      "t": 75326.42655208349,
      "d": 59.02780729166989,
      "v": 104
    },
    {
      "midi": 48,
      "hit": false,
      "t": 75336.8432239585,
      "d": 55.55558333333465,
      "v": 97
    },
    {
      "midi": 56,
      "hit": false,
      "t": 75618.0933645835,
      "d": 59.02780729166989,
      "v": 91
    },
    {
      "midi": 51,
      "hit": false,
      "t": 75621.56558854184,
      "d": 52.08335937499942,
      "v": 86
    },
    {
      "midi": 60,
      "hit": false,
      "t": 75621.56558854184,
      "d": 59.02780729166989,
      "v": 97
    },
    {
      "midi": 75,
      "hit": false,
      "t": 75739.62120312518,
      "d": 260.41679687504075,
      "v": 86
    },
    {
      "midi": 63,
      "hit": false,
      "t": 75746.56565104185,
      "d": 152.77785416667757,
      "v": 86
    },
    {
      "midi": 68,
      "hit": false,
      "t": 75746.56565104185,
      "d": 222.22233333336771,
      "v": 86
    },
    {
      "midi": 72,
      "hit": false,
      "t": 75753.51009895852,
      "d": 250.00012500003504,
      "v": 97
    },
    {
      "midi": 51,
      "hit": false,
      "t": 75906.2879531252,
      "d": 55.555583333349205,
      "v": 97
    },
    {
      "midi": 39,
      "hit": false,
      "t": 75913.23240104187,
      "d": 45.1389114583435,
      "v": 97
    },
    {
      "midi": 65,
      "hit": false,
      "t": 76038.23246354189,
      "d": 197.91676562500652,
      "v": 78
    },
    {
      "midi": 51,
      "hit": false,
      "t": 76180.59364583356,
      "d": 48.61113541666418,
      "v": 91
    },
    {
      "midi": 60,
      "hit": false,
      "t": 76184.0658697919,
      "d": 55.55558333333465,
      "v": 97
    },
    {
      "midi": 77,
      "hit": false,
      "t": 76184.0658697919,
      "d": 69.44447916667559,
      "v": 97
    },
    {
      "midi": 56,
      "hit": false,
      "t": 76187.53809375023,
      "d": 45.13891145832895,
      "v": 91
    },
    {
      "midi": 79,
      "hit": false,
      "t": 76465.31601041691,
      "d": 114.58339062498999,
      "v": 104
    },
    {
      "midi": 75,
      "hit": false,
      "t": 76465.31601041691,
      "d": 128.47228645831638,
      "v": 82
    },
    {
      "midi": 67,
      "hit": false,
      "t": 76468.78823437524,
      "d": 79.86115104166674,
      "v": 97
    },
    {
      "midi": 44,
      "hit": false,
      "t": 76482.67713020857,
      "d": 55.55558333333465,
      "v": 97
    },
    {
      "midi": 56,
      "hit": false,
      "t": 76486.1493541669,
      "d": 55.55558333333465,
      "v": 97
    },
    {
      "midi": 51,
      "hit": false,
      "t": 76756.98282291689,
      "d": 69.44447916667559,
      "v": 78
    },
    {
      "midi": 56,
      "hit": false,
      "t": 76760.45504687523,
      "d": 72.91670312501083,
      "v": 86
    },
    {
      "midi": 80,
      "hit": false,
      "t": 76760.45504687523,
      "d": 118.05561458335433,
      "v": 104
    },
    {
      "midi": 75,
      "hit": false,
      "t": 76763.92727083356,
      "d": 104.16671875001339,
      "v": 91
    },
    {
      "midi": 68,
      "hit": false,
      "t": 76767.3994947919,
      "d": 65.97225520834036,
      "v": 97
    },
    {
      "midi": 60,
      "hit": false,
      "t": 76770.87171875023,
      "d": 48.61113541666418,
      "v": 91
    },
    {
      "midi": 70,
      "hit": false,
      "t": 77055.59408333358,
      "d": 69.44447916669014,
      "v": 91
    },
    {
      "midi": 82,
      "hit": false,
      "t": 77059.06630729191,
      "d": 93.75004687502224,
      "v": 97
    },
    {
      "midi": 44,
      "hit": false,
      "t": 77062.53853125025,
      "d": 55.555583333349205,
      "v": 86
    },
    {
      "midi": 56,
      "hit": false,
      "t": 77066.01075520858,
      "d": 41.666687500008265,
      "v": 97
    },
    {
      "midi": 75,
      "hit": false,
      "t": 77069.48297916692,
      "d": 59.02780729168444,
      "v": 74
    },
    {
      "midi": 54,
      "hit": false,
      "t": 77350.73311979194,
      "d": 69.44447916667559,
      "v": 91
    },
    {
      "midi": 42,
      "hit": false,
      "t": 77357.67756770861,
      "d": 65.97225520834036,
      "v": 91
    },
    {
      "midi": 84,
      "hit": false,
      "t": 77357.67756770861,
      "d": 72.91670312501083,
      "v": 97
    },
    {
      "midi": 72,
      "hit": false,
      "t": 77364.62201562528,
      "d": 59.02780729166989,
      "v": 104
    },
    {
      "midi": 41,
      "hit": false,
      "t": 77638.92770833362,
      "d": 55.55558333333465,
      "v": 104
    },
    {
      "midi": 73,
      "hit": false,
      "t": 77645.87215625029,
      "d": 62.50003124999057,
      "v": 104
    },
    {
      "midi": 53,
      "hit": false,
      "t": 77649.34438020863,
      "d": 62.50003124999057,
      "v": 104
    },
    {
      "midi": 85,
      "hit": false,
      "t": 77652.81660416696,
      "d": 72.91670312499627,
      "v": 97
    },
    {
      "midi": 61,
      "hit": false,
      "t": 77916.7056250003,
      "d": 59.02780729168444,
      "v": 97
    },
    {
      "midi": 56,
      "hit": false,
      "t": 77923.65007291696,
      "d": 41.666687500008265,
      "v": 68
    },
    {
      "midi": 53,
      "hit": false,
      "t": 77930.59452083363,
      "d": 52.08335937501397,
      "v": 86
    },
    {
      "midi": 97,
      "hit": false,
      "t": 77941.01119270864,
      "d": 34.722239583337796,
      "v": 97
    },
    {
      "midi": 85,
      "hit": false,
      "t": 77941.01119270864,
      "d": 48.611135416678735,
      "v": 97
    },
    {
      "midi": 84,
      "hit": false,
      "t": 78079.90015104199,
      "d": 52.08335937501397,
      "v": 91
    },
    {
      "midi": 96,
      "hit": false,
      "t": 78090.316822917,
      "d": 38.19446354167303,
      "v": 97
    },
    {
      "midi": 51,
      "hit": false,
      "t": 78208.37243750034,
      "d": 34.722239583337796,
      "v": 82
    },
    {
      "midi": 39,
      "hit": false,
      "t": 78211.84466145867,
      "d": 34.722239583337796,
      "v": 91
    },
    {
      "midi": 94,
      "hit": false,
      "t": 78357.67806770868,
      "d": 62.50003125000512,
      "v": 97
    },
    {
      "midi": 82,
      "hit": false,
      "t": 78361.15029166701,
      "d": 55.55558333333465,
      "v": 104
    },
    {
      "midi": 49,
      "hit": false,
      "t": 78472.26145833368,
      "d": 65.97225520834036,
      "v": 97
    },
    {
      "midi": 37,
      "hit": false,
      "t": 78479.20590625035,
      "d": 65.97225520834036,
      "v": 97
    },
    {
      "midi": 87,
      "hit": false,
      "t": 78614.62264062536,
      "d": 187.50009374998626,
      "v": 74
    },
    {
      "midi": 92,
      "hit": false,
      "t": 78618.09486458369,
      "d": 163.19452604165417,
      "v": 97
    },
    {
      "midi": 80,
      "hit": false,
      "t": 78628.5115364587,
      "d": 184.02786979165103,
      "v": 97
    },
    {
      "midi": 84,
      "hit": false,
      "t": 78628.5115364587,
      "d": 184.02786979165103,
      "v": 97
    },
    {
      "midi": 36,
      "hit": false,
      "t": 78753.51159895869,
      "d": 52.083359374984866,
      "v": 104
    },
    {
      "midi": 48,
      "hit": false,
      "t": 78767.40049479202,
      "d": 55.55558333333465,
      "v": 91
    },
    {
      "midi": 80,
      "hit": false,
      "t": 79034.76173958369,
      "d": 72.91670312501083,
      "v": 82
    },
    {
      "midi": 75,
      "hit": false,
      "t": 79038.23396354202,
      "d": 62.50003125000512,
      "v": 86
    },
    {
      "midi": 87,
      "hit": false,
      "t": 79041.70618750036,
      "d": 76.38892708334606,
      "v": 86
    },
    {
      "midi": 84,
      "hit": false,
      "t": 79048.65063541703,
      "d": 76.38892708334606,
      "v": 91
    },
    {
      "midi": 48,
      "hit": false,
      "t": 79062.53953125035,
      "d": 55.555583333349205,
      "v": 97
    },
    {
      "midi": 60,
      "hit": false,
      "t": 79062.53953125035,
      "d": 62.500031250019674,
      "v": 97
    },
    {
      "midi": 87,
      "hit": false,
      "t": 79191.01181770871,
      "d": 131.94451041666616,
      "v": 91
    },
    {
      "midi": 80,
      "hit": false,
      "t": 79194.48404166705,
      "d": 114.58339062498999,
      "v": 91
    },
    {
      "midi": 84,
      "hit": false,
      "t": 79194.48404166705,
      "d": 125.00006249999569,
      "v": 78
    },
    {
      "midi": 75,
      "hit": false,
      "t": 79197.95626562538,
      "d": 97.22227083332837,
      "v": 104
    },
    {
      "midi": 60,
      "hit": false,
      "t": 79322.95632812538,
      "d": 62.50003125000512,
      "v": 97
    },
    {
      "midi": 48,
      "hit": false,
      "t": 79329.90077604205,
      "d": 52.08335937499942,
      "v": 91
    },
    {
      "midi": 74,
      "hit": false,
      "t": 79493.09530208372,
      "d": 59.02780729166989,
      "v": 113
    },
    {
      "midi": 86,
      "hit": false,
      "t": 79496.56752604205,
      "d": 62.50003125000512,
      "v": 113
    },
    {
      "midi": 59,
      "hit": false,
      "t": 79607.67869270872,
      "d": 59.02780729166989,
      "v": 104
    },
    {
      "midi": 47,
      "hit": false,
      "t": 79614.6231406254,
      "d": 59.02780729166989,
      "v": 104
    },
    {
      "midi": 85,
      "hit": false,
      "t": 79756.98432291707,
      "d": 138.88895833333663,
      "v": 104
    },
    {
      "midi": 73,
      "hit": false,
      "t": 79760.4565468754,
      "d": 166.6667499999894,
      "v": 104
    },
    {
      "midi": 46,
      "hit": false,
      "t": 79885.4566093754,
      "d": 69.44447916666104,
      "v": 91
    },
    {
      "midi": 58,
      "hit": false,
      "t": 79888.92883333373,
      "d": 65.9722552083258,
      "v": 104
    },
    {
      "midi": 67,
      "hit": false,
      "t": 80163.23452604206,
      "d": 86.80559895836632,
      "v": 97
    },
    {
      "midi": 75,
      "hit": false,
      "t": 80166.70675000039,
      "d": 72.91670312502538,
      "v": 82
    },
    {
      "midi": 51,
      "hit": false,
      "t": 80170.17897395873,
      "d": 59.02780729168444,
      "v": 82
    },
    {
      "midi": 61,
      "hit": false,
      "t": 80173.65119791706,
      "d": 45.1389114583435,
      "v": 91
    },
    {
      "midi": 70,
      "hit": false,
      "t": 80177.1234218754,
      "d": 59.02780729168444,
      "v": 74
    },
    {
      "midi": 55,
      "hit": false,
      "t": 80180.59564583373,
      "d": 31.25001562500256,
      "v": 97
    },
    {
      "midi": 63,
      "hit": false,
      "t": 80201.42898958373,
      "d": 24.305567708346643,
      "v": 86
    },
    {
      "midi": 75,
      "hit": false,
      "t": 80309.06793229209,
      "d": 170.13897395835374,
      "v": 91
    },
    {
      "midi": 70,
      "hit": false,
      "t": 80316.01238020876,
      "d": 159.72230208334804,
      "v": 86
    },
    {
      "midi": 63,
      "hit": false,
      "t": 80322.95682812543,
      "d": 131.94451041666616,
      "v": 104
    },
    {
      "midi": 67,
      "hit": false,
      "t": 80322.95682812543,
      "d": 166.6667500000185,
      "v": 86
    },
    {
      "midi": 51,
      "hit": false,
      "t": 80461.84578645877,
      "d": 52.08335937501397,
      "v": 91
    },
    {
      "midi": 39,
      "hit": false,
      "t": 80465.3180104171,
      "d": 52.08335937501397,
      "v": 97
    },
    {
      "midi": 61,
      "hit": false,
      "t": 80638.9292083338,
      "d": 121.52783854168956,
      "v": 82
    },
    {
      "midi": 67,
      "hit": false,
      "t": 80638.9292083338,
      "d": 177.08342187502421,
      "v": 91
    },
    {
      "midi": 75,
      "hit": false,
      "t": 80645.87365625046,
      "d": 138.88895833335118,
      "v": 91
    },
    {
      "midi": 70,
      "hit": false,
      "t": 80656.29032812547,
      "d": 135.41673437501595,
      "v": 86
    },
    {
      "midi": 51,
      "hit": false,
      "t": 80746.56815104214,
      "d": 62.50003125000512,
      "v": 104
    },
    {
      "midi": 39,
      "hit": false,
      "t": 80750.04037500048,
      "d": 62.50003125000512,
      "v": 104
    },
    {
      "midi": 60,
      "hit": false,
      "t": 80968.79048437548,
      "d": 131.9445104166807,
      "v": 82
    },
    {
      "midi": 51,
      "hit": false,
      "t": 81048.65163541715,
      "d": 45.1389114583435,
      "v": 113
    },
    {
      "midi": 63,
      "hit": false,
      "t": 81048.65163541715,
      "d": 62.500031250019674,
      "v": 113
    },
    {
      "midi": 44,
      "hit": false,
      "t": 81052.12385937548,
      "d": 41.666687500008265,
      "v": 113
    },
    {
      "midi": 68,
      "hit": false,
      "t": 81055.59608333382,
      "d": 72.91670312501083,
      "v": 113
    },
    {
      "midi": 92,
      "hit": false,
      "t": 81670.17972395883,
      "d": 121.52783854167501,
      "v": 104
    },
    {
      "midi": 87,
      "hit": false,
      "t": 81673.65194791717,
      "d": 135.4167343750014,
      "v": 91
    },
    {
      "midi": 80,
      "hit": false,
      "t": 81680.59639583384,
      "d": 52.08335937499942,
      "v": 97
    },
    {
      "midi": 84,
      "hit": false,
      "t": 81687.54084375051,
      "d": 76.38892708333151,
      "v": 97
    },
    {
      "midi": 32,
      "hit": false,
      "t": 81691.01306770885,
      "d": 45.13891145832895,
      "v": 104
    },
    {
      "midi": 44,
      "hit": false,
      "t": 81694.48529166718,
      "d": 48.61113541666418,
      "v": 113
    },
    {
      "midi": 84,
      "hit": false,
      "t": 82000.0410000005,
      "d": 97.22227083334292,
      "v": 113
    },
    {
      "midi": 85,
      "hit": false,
      "t": 82086.84659895884,
      "d": 114.58339062500454,
      "v": 91
    },
    {
      "midi": 86,
      "hit": false,
      "t": 82180.59664583385,
      "d": 170.13897395832464,
      "v": 97
    },
    {
      "midi": 87,
      "hit": false,
      "t": 82281.29114062552,
      "d": 149.30563020831323,
      "v": 91
    },
    {
      "midi": 46,
      "hit": false,
      "t": 82298.65226041718,
      "d": 86.80559895832266,
      "v": 91
    },
    {
      "midi": 58,
      "hit": false,
      "t": 82302.12448437551,
      "d": 86.80559895832266,
      "v": 97
    },
    {
      "midi": 89,
      "hit": false,
      "t": 82444.48566666715,
      "d": 295.13903645834944,
      "v": 97
    },
    {
      "midi": 61,
      "hit": false,
      "t": 82586.84684895883,
      "d": 55.55558333333465,
      "v": 97
    },
    {
      "midi": 51,
      "hit": false,
      "t": 82590.31907291716,
      "d": 62.50003125000512,
      "v": 78
    },
    {
      "midi": 55,
      "hit": false,
      "t": 82597.26352083383,
      "d": 48.61113541666418,
      "v": 97
    },
    {
      "midi": 84,
      "hit": false,
      "t": 82708.3746875005,
      "d": 69.44447916667559,
      "v": 104
    },
    {
      "midi": 87,
      "hit": false,
      "t": 82836.84697395885,
      "d": 156.2500781250128,
      "v": 104
    },
    {
      "midi": 39,
      "hit": false,
      "t": 82864.62476562551,
      "d": 69.44447916667559,
      "v": 91
    },
    {
      "midi": 51,
      "hit": false,
      "t": 82868.09698958385,
      "d": 59.02780729166989,
      "v": 78
    },
    {
      "midi": 85,
      "hit": false,
      "t": 83000.04150000053,
      "d": 159.72230208334804,
      "v": 91
    },
    {
      "midi": 82,
      "hit": false,
      "t": 83138.93045833387,
      "d": 100.6944947916927,
      "v": 104
    },
    {
      "midi": 51,
      "hit": false,
      "t": 83149.34713020887,
      "d": 86.80559895835177,
      "v": 78
    },
    {
      "midi": 61,
      "hit": false,
      "t": 83163.23602604221,
      "d": 69.44447916667559,
      "v": 86
    },
    {
      "midi": 55,
      "hit": false,
      "t": 83166.70825000055,
      "d": 86.80559895833721,
      "v": 97
    },
    {
      "midi": 79,
      "hit": false,
      "t": 83284.76386458389,
      "d": 100.6944947916636,
      "v": 97
    },
    {
      "midi": 58,
      "hit": false,
      "t": 83423.65282291723,
      "d": 86.80559895833721,
      "v": 86
    },
    {
      "midi": 46,
      "hit": false,
      "t": 83434.06949479223,
      "d": 72.91670312499627,
      "v": 91
    },
    {
      "midi": 75,
      "hit": false,
      "t": 83437.54171875057,
      "d": 128.47228645831638,
      "v": 91
    },
    {
      "midi": 77,
      "hit": false,
      "t": 83583.37512500054,
      "d": 274.30569270833803,
      "v": 97
    },
    {
      "midi": 61,
      "hit": false,
      "t": 83715.31963541721,
      "d": 69.44447916666104,
      "v": 91
    },
    {
      "midi": 51,
      "hit": false,
      "t": 83722.26408333388,
      "d": 69.44447916666104,
      "v": 78
    },
    {
      "midi": 55,
      "hit": false,
      "t": 83736.15297916721,
      "d": 34.722239583337796,
      "v": 91
    },
    {
      "midi": 72,
      "hit": false,
      "t": 83875.04193750054,
      "d": 79.86115104166674,
      "v": 113
    },
    {
      "midi": 75,
      "hit": false,
      "t": 84006.98644791721,
      "d": 79.86115104166674,
      "v": 104
    },
    {
      "midi": 51,
      "hit": false,
      "t": 84017.40311979222,
      "d": 45.13891145832895,
      "v": 97
    },
    {
      "midi": 39,
      "hit": false,
      "t": 84020.87534375055,
      "d": 45.13891145832895,
      "v": 86
    },
    {
      "midi": 73,
      "hit": false,
      "t": 84170.18097395888,
      "d": 45.13891145832895,
      "v": 91
    },
    {
      "midi": 70,
      "hit": false,
      "t": 84291.70881250054,
      "d": 62.50003125000512,
      "v": 104
    },
    {
      "midi": 49,
      "hit": false,
      "t": 84298.65326041721,
      "d": 76.38892708333151,
      "v": 91
    },
    {
      "midi": 37,
      "hit": false,
      "t": 84305.59770833388,
      "d": 72.91670312499627,
      "v": 86
    },
    {
      "midi": 67,
      "hit": false,
      "t": 84447.95889062554,
      "d": 59.02780729166989,
      "v": 86
    },
    {
      "midi": 36,
      "hit": false,
      "t": 84586.84784895887,
      "d": 38.19446354167303,
      "v": 91
    },
    {
      "midi": 65,
      "hit": false,
      "t": 84586.84784895887,
      "d": 65.97225520834036,
      "v": 97
    },
    {
      "midi": 48,
      "hit": false,
      "t": 84597.26452083388,
      "d": 41.666687500008265,
      "v": 91
    },
    {
      "midi": 84,
      "hit": false,
      "t": 84881.98688541721,
      "d": 76.38892708334606,
      "v": 104
    },
    {
      "midi": 56,
      "hit": false,
      "t": 84888.93133333388,
      "d": 48.61113541666418,
      "v": 91
    },
    {
      "midi": 80,
      "hit": false,
      "t": 84888.93133333388,
      "d": 55.55558333333465,
      "v": 86
    },
    {
      "midi": 51,
      "hit": false,
      "t": 84895.87578125055,
      "d": 41.666687499993714,
      "v": 82
    },
    {
      "midi": 72,
      "hit": false,
      "t": 84902.82022916722,
      "d": 45.13891145832895,
      "v": 113
    },
    {
      "midi": 60,
      "hit": false,
      "t": 84906.29245312556,
      "d": 17.361119791661622,
      "v": 91
    },
    {
      "midi": 84,
      "hit": false,
      "t": 85170.18147395889,
      "d": 83.33337500003108,
      "v": 97
    },
    {
      "midi": 79,
      "hit": false,
      "t": 85173.65369791722,
      "d": 83.33337500003108,
      "v": 97
    },
    {
      "midi": 51,
      "hit": false,
      "t": 85184.07036979223,
      "d": 48.611135416678735,
      "v": 97
    },
    {
      "midi": 72,
      "hit": false,
      "t": 85184.07036979223,
      "d": 65.97225520835491,
      "v": 97
    },
    {
      "midi": 39,
      "hit": false,
      "t": 85194.48704166723,
      "d": 41.666687500008265,
      "v": 97
    },
    {
      "midi": 77,
      "hit": false,
      "t": 85461.84828645892,
      "d": 86.80559895836632,
      "v": 86
    },
    {
      "midi": 84,
      "hit": false,
      "t": 85465.32051041725,
      "d": 86.80559895836632,
      "v": 97
    },
    {
      "midi": 51,
      "hit": false,
      "t": 85475.73718229226,
      "d": 59.02780729168444,
      "v": 78
    },
    {
      "midi": 72,
      "hit": false,
      "t": 85482.68163020893,
      "d": 59.02780729168444,
      "v": 97
    },
    {
      "midi": 60,
      "hit": false,
      "t": 85489.6260781256,
      "d": 48.611135416678735,
      "v": 97
    },
    {
      "midi": 56,
      "hit": false,
      "t": 85496.57052604227,
      "d": 31.25001562500256,
      "v": 78
    },
    {
      "midi": 84,
      "hit": false,
      "t": 85756.98732291728,
      "d": 65.97225520834036,
      "v": 97
    },
    {
      "midi": 75,
      "hit": false,
      "t": 85760.45954687562,
      "d": 48.61113541666418,
      "v": 78
    },
    {
      "midi": 72,
      "hit": false,
      "t": 85774.34844270894,
      "d": 41.666687500008265,
      "v": 97
    },
    {
      "midi": 56,
      "hit": false,
      "t": 85777.82066666728,
      "d": 52.08335937501397,
      "v": 97
    },
    {
      "midi": 44,
      "hit": false,
      "t": 85791.70956250062,
      "d": 34.722239583337796,
      "v": 97
    },
    {
      "midi": 75,
      "hit": false,
      "t": 85906.29295312562,
      "d": 62.50003125000512,
      "v": 91
    },
    {
      "midi": 83,
      "hit": false,
      "t": 85909.76517708396,
      "d": 72.91670312499627,
      "v": 104
    },
    {
      "midi": 71,
      "hit": false,
      "t": 85916.70962500063,
      "d": 48.61113541666418,
      "v": 113
    },
    {
      "midi": 51,
      "hit": false,
      "t": 86041.70968750062,
      "d": 65.97225520834036,
      "v": 78
    },
    {
      "midi": 56,
      "hit": false,
      "t": 86052.12635937563,
      "d": 59.02780729166989,
      "v": 86
    },
    {
      "midi": 60,
      "hit": false,
      "t": 86052.12635937563,
      "d": 65.97225520834036,
      "v": 97
    },
    {
      "midi": 75,
      "hit": false,
      "t": 86180.59864583398,
      "d": 142.36118229167187,
      "v": 97
    },
    {
      "midi": 84,
      "hit": false,
      "t": 86184.07086979231,
      "d": 111.1111666666693,
      "v": 113
    },
    {
      "midi": 72,
      "hit": false,
      "t": 86191.01531770898,
      "d": 138.88895833333663,
      "v": 113
    },
    {
      "midi": 60,
      "hit": false,
      "t": 86326.43205208398,
      "d": 65.97225520834036,
      "v": 86
    },
    {
      "midi": 48,
      "hit": false,
      "t": 86340.32094791732,
      "d": 55.55558333333465,
      "v": 82
    },
    {
      "midi": 62,
      "hit": false,
      "t": 86486.15435416733,
      "d": 69.44447916666104,
      "v": 104
    },
    {
      "midi": 57,
      "hit": false,
      "t": 86593.79329687565,
      "d": 69.44447916666104,
      "v": 104
    },
    {
      "midi": 45,
      "hit": false,
      "t": 86604.20996875066,
      "d": 62.50003124999057,
      "v": 104
    },
    {
      "midi": 63,
      "hit": false,
      "t": 86621.57108854232,
      "d": 90.2778229166579,
      "v": 97
    },
    {
      "midi": 64,
      "hit": false,
      "t": 86763.93227083398,
      "d": 131.9445104166807,
      "v": 97
    },
    {
      "midi": 65,
      "hit": false,
      "t": 86875.04343750064,
      "d": 65.97225520835491,
      "v": 97
    },
    {
      "midi": 58,
      "hit": false,
      "t": 86885.46010937565,
      "d": 52.08335937501397,
      "v": 104
    },
    {
      "midi": 46,
      "hit": false,
      "t": 86885.46010937565,
      "d": 62.500031250019674,
      "v": 97
    },
    {
      "midi": 61,
      "hit": false,
      "t": 87156.29357812567,
      "d": 62.500031250019674,
      "v": 86
    },
    {
      "midi": 51,
      "hit": false,
      "t": 87159.765802084,
      "d": 62.500031250019674,
      "v": 78
    },
    {
      "midi": 55,
      "hit": false,
      "t": 87170.18247395901,
      "d": 41.666687500008265,
      "v": 91
    },
    {
      "midi": 85,
      "hit": false,
      "t": 87170.18247395901,
      "d": 72.91670312502538,
      "v": 91
    },
    {
      "midi": 80,
      "hit": false,
      "t": 87173.65469791734,
      "d": 59.02780729168444,
      "v": 68
    },
    {
      "midi": 73,
      "hit": false,
      "t": 87177.12692187568,
      "d": 59.02780729168444,
      "v": 97
    },
    {
      "midi": 85,
      "hit": false,
      "t": 87441.01594270904,
      "d": 93.75004687502224,
      "v": 82
    },
    {
      "midi": 79,
      "hit": false,
      "t": 87447.96039062571,
      "d": 93.75004687502224,
      "v": 97
    },
    {
      "midi": 73,
      "hit": false,
      "t": 87458.37706250072,
      "d": 69.44447916667559,
      "v": 91
    },
    {
      "midi": 51,
      "hit": false,
      "t": 87461.84928645905,
      "d": 62.50003125000512,
      "v": 82
    },
    {
      "midi": 39,
      "hit": false,
      "t": 87472.26595833406,
      "d": 48.61113541666418,
      "v": 97
    },
    {
      "midi": 77,
      "hit": false,
      "t": 87725.7383072924,
      "d": 107.63894270836317,
      "v": 71
    },
    {
      "midi": 85,
      "hit": false,
      "t": 87736.1549791674,
      "d": 86.80559895835177,
      "v": 91
    },
    {
      "midi": 51,
      "hit": false,
      "t": 87739.62720312574,
      "d": 100.6944947916927,
      "v": 65
    },
    {
      "midi": 73,
      "hit": false,
      "t": 87750.04387500075,
      "d": 65.97225520834036,
      "v": 91
    },
    {
      "midi": 55,
      "hit": false,
      "t": 87760.46054687575,
      "d": 83.33337500001653,
      "v": 91
    },
    {
      "midi": 61,
      "hit": false,
      "t": 87767.40499479242,
      "d": 59.02780729166989,
      "v": 78
    },
    {
      "midi": 85,
      "hit": false,
      "t": 88010.46067187577,
      "d": 86.80559895835177,
      "v": 78
    },
    {
      "midi": 75,
      "hit": false,
      "t": 88020.87734375078,
      "d": 62.500031250019674,
      "v": 82
    },
    {
      "midi": 73,
      "hit": false,
      "t": 88024.34956770911,
      "d": 55.555583333349205,
      "v": 91
    },
    {
      "midi": 58,
      "hit": false,
      "t": 88031.29401562578,
      "d": 69.44447916667559,
      "v": 86
    },
    {
      "midi": 46,
      "hit": false,
      "t": 88034.76623958412,
      "d": 72.91670312501083,
      "v": 86
    },
    {
      "midi": 79,
      "hit": false,
      "t": 88041.71068750079,
      "d": 62.50003125000512,
      "v": 97
    },
    {
      "midi": 79,
      "hit": false,
      "t": 88166.71075000078,
      "d": 104.16671875001339,
      "v": 86
    },
    {
      "midi": 75,
      "hit": false,
      "t": 88177.12742187579,
      "d": 65.97225520834036,
      "v": 86
    },
    {
      "midi": 72,
      "hit": false,
      "t": 88187.5440937508,
      "d": 62.50003125000512,
      "v": 104
    },
    {
      "midi": 84,
      "hit": false,
      "t": 88187.5440937508,
      "d": 69.44447916667559,
      "v": 97
    },
    {
      "midi": 61,
      "hit": false,
      "t": 88288.23858854246,
      "d": 76.38892708334606,
      "v": 86
    },
    {
      "midi": 51,
      "hit": false,
      "t": 88291.7108125008,
      "d": 76.38892708334606,
      "v": 68
    },
    {
      "midi": 55,
      "hit": false,
      "t": 88298.65526041746,
      "d": 72.91670312501083,
      "v": 97
    },
    {
      "midi": 79,
      "hit": false,
      "t": 88413.23865104247,
      "d": 159.72230208334804,
      "v": 104
    },
    {
      "midi": 75,
      "hit": false,
      "t": 88413.23865104247,
      "d": 173.61119791667443,
      "v": 91
    },
    {
      "midi": 73,
      "hit": false,
      "t": 88423.65532291748,
      "d": 138.88895833333663,
      "v": 97
    },
    {
      "midi": 85,
      "hit": false,
      "t": 88427.12754687581,
      "d": 125.00006249999569,
      "v": 97
    },
    {
      "midi": 58,
      "hit": false,
      "t": 88593.79429687581,
      "d": 55.55558333333465,
      "v": 97
    },
    {
      "midi": 46,
      "hit": false,
      "t": 88600.73874479248,
      "d": 52.08335937499942,
      "v": 97
    },
    {
      "midi": 62,
      "hit": false,
      "t": 88753.51659895915,
      "d": 62.50003125000512,
      "v": 97
    },
    {
      "midi": 59,
      "hit": false,
      "t": 88868.09998958415,
      "d": 62.50003125000512,
      "v": 113
    },
    {
      "midi": 47,
      "hit": false,
      "t": 88871.57221354249,
      "d": 55.55558333333465,
      "v": 104
    },
    {
      "midi": 63,
      "hit": false,
      "t": 88881.9888854175,
      "d": 65.9722552083258,
      "v": 91
    },
    {
      "midi": 64,
      "hit": false,
      "t": 89027.82229166749,
      "d": 59.02780729166989,
      "v": 97
    },
    {
      "midi": 65,
      "hit": false,
      "t": 89138.93345833416,
      "d": 59.02780729166989,
      "v": 91
    },
    {
      "midi": 48,
      "hit": false,
      "t": 89152.82235416748,
      "d": 62.500031250019674,
      "v": 91
    },
    {
      "midi": 60,
      "hit": false,
      "t": 89156.29457812582,
      "d": 52.08335937501397,
      "v": 104
    },
    {
      "midi": 84,
      "hit": false,
      "t": 89427.12804687583,
      "d": 90.277822916687,
      "v": 97
    },
    {
      "midi": 51,
      "hit": false,
      "t": 89437.54471875084,
      "d": 62.500031250019674,
      "v": 91
    },
    {
      "midi": 87,
      "hit": false,
      "t": 89441.01694270918,
      "d": 72.91670312501083,
      "v": 86
    },
    {
      "midi": 75,
      "hit": false,
      "t": 89451.43361458418,
      "d": 48.611135416678735,
      "v": 91
    },
    {
      "midi": 80,
      "hit": false,
      "t": 89451.43361458418,
      "d": 48.611135416678735,
      "v": 91
    },
    {
      "midi": 56,
      "hit": false,
      "t": 89454.90583854252,
      "d": 34.722239583337796,
      "v": 91
    },
    {
      "midi": 60,
      "hit": false,
      "t": 89465.32251041752,
      "d": 27.777791666667326,
      "v": 97
    },
    {
      "midi": 87,
      "hit": false,
      "t": 89718.79485937585,
      "d": 104.16671875001339,
      "v": 91
    },
    {
      "midi": 75,
      "hit": false,
      "t": 89722.26708333418,
      "d": 79.8611510416813,
      "v": 91
    },
    {
      "midi": 82,
      "hit": false,
      "t": 89729.21153125085,
      "d": 69.44447916667559,
      "v": 86
    },
    {
      "midi": 39,
      "hit": false,
      "t": 89750.04487500085,
      "d": 45.1389114583435,
      "v": 97
    },
    {
      "midi": 51,
      "hit": false,
      "t": 89753.51709895919,
      "d": 38.19446354167303,
      "v": 86
    },
    {
      "midi": 87,
      "hit": false,
      "t": 90003.51722395919,
      "d": 111.11116666671296,
      "v": 86
    },
    {
      "midi": 75,
      "hit": false,
      "t": 90010.46167187586,
      "d": 72.91670312502538,
      "v": 97
    },
    {
      "midi": 80,
      "hit": false,
      "t": 90017.40611979253,
      "d": 86.80559895836632,
      "v": 82
    },
    {
      "midi": 51,
      "hit": false,
      "t": 90027.82279166754,
      "d": 65.97225520835491,
      "v": 91
    },
    {
      "midi": 56,
      "hit": false,
      "t": 90034.76723958421,
      "d": 52.08335937501397,
      "v": 97
    },
    {
      "midi": 60,
      "hit": false,
      "t": 90045.18391145921,
      "d": 45.1389114583435,
      "v": 104
    },
    {
      "midi": 80,
      "hit": false,
      "t": 90284.76736458424,
      "d": 79.8611510416813,
      "v": 74
    },
    {
      "midi": 75,
      "hit": false,
      "t": 90295.18403645925,
      "d": 62.50003125000512,
      "v": 78
    },
    {
      "midi": 87,
      "hit": false,
      "t": 90298.65626041759,
      "d": 79.8611510416813,
      "v": 86
    },
    {
      "midi": 84,
      "hit": false,
      "t": 90305.60070833426,
      "d": 83.33337500001653,
      "v": 91
    },
    {
      "midi": 56,
      "hit": false,
      "t": 90322.96182812592,
      "d": 48.611135416678735,
      "v": 113
    },
    {
      "midi": 44,
      "hit": false,
      "t": 90326.43405208425,
      "d": 41.666687500008265,
      "v": 97
    },
    {
      "midi": 80,
      "hit": false,
      "t": 90447.96189062594,
      "d": 76.38892708334606,
      "v": 86
    },
    {
      "midi": 86,
      "hit": false,
      "t": 90458.37856250095,
      "d": 97.22227083334292,
      "v": 113
    },
    {
      "midi": 74,
      "hit": false,
      "t": 90461.85078645928,
      "d": 55.55558333333465,
      "v": 113
    },
    {
      "midi": 51,
      "hit": false,
      "t": 90579.90640104262,
      "d": 79.8611510416813,
      "v": 82
    },
    {
      "midi": 56,
      "hit": false,
      "t": 90583.37862500096,
      "d": 69.44447916667559,
      "v": 91
    },
    {
      "midi": 60,
      "hit": false,
      "t": 90593.79529687596,
      "d": 62.50003125000512,
      "v": 104
    },
    {
      "midi": 75,
      "hit": false,
      "t": 90722.26758333431,
      "d": 145.8334062500071,
      "v": 104
    },
    {
      "midi": 80,
      "hit": false,
      "t": 90725.73980729264,
      "d": 197.91676562500652,
      "v": 91
    },
    {
      "midi": 87,
      "hit": false,
      "t": 90736.15647916765,
      "d": 243.05567708333547,
      "v": 104
    },
    {
      "midi": 60,
      "hit": false,
      "t": 90871.57321354265,
      "d": 69.44447916666104,
      "v": 104
    },
    {
      "midi": 48,
      "hit": false,
      "t": 90878.51766145932,
      "d": 69.44447916666104,
      "v": 91
    },
    {
      "midi": 84,
      "hit": false,
      "t": 91166.71225000099,
      "d": 79.8611510416813,
      "v": 104
    },
    {
      "midi": 57,
      "hit": false,
      "t": 91177.12892187599,
      "d": 59.02780729166989,
      "v": 113
    },
    {
      "midi": 45,
      "hit": false,
      "t": 91177.12892187599,
      "d": 62.50003125000512,
      "v": 113
    },
    {
      "midi": 85,
      "hit": false,
      "t": 91277.82341666767,
      "d": 83.33337500000198,
      "v": 86
    },
    {
      "midi": 86,
      "hit": false,
      "t": 91385.462359376,
      "d": 138.88895833333663,
      "v": 91
    },
    {
      "midi": 87,
      "hit": false,
      "t": 91458.379062501,
      "d": 138.88895833335118,
      "v": 91
    },
    {
      "midi": 46,
      "hit": false,
      "t": 91461.85128645934,
      "d": 69.44447916667559,
      "v": 91
    },
    {
      "midi": 58,
      "hit": false,
      "t": 91468.795734376,
      "d": 59.02780729166989,
      "v": 104
    },
    {
      "midi": 89,
      "hit": false,
      "t": 91600.74024479269,
      "d": 288.1945885416644,
      "v": 91
    },
    {
      "midi": 51,
      "hit": false,
      "t": 91736.15697916769,
      "d": 69.44447916666104,
      "v": 74
    },
    {
      "midi": 55,
      "hit": false,
      "t": 91739.62920312602,
      "d": 72.91670312499627,
      "v": 104
    },
    {
      "midi": 61,
      "hit": false,
      "t": 91750.04587500103,
      "d": 41.666687499993714,
      "v": 104
    },
    {
      "midi": 84,
      "hit": false,
      "t": 91899.35150520936,
      "d": 79.86115104166674,
      "v": 104
    },
    {
      "midi": 51,
      "hit": false,
      "t": 92031.29601562602,
      "d": 59.02780729166989,
      "v": 91
    },
    {
      "midi": 87,
      "hit": false,
      "t": 92031.29601562602,
      "d": 111.1111666666693,
      "v": 104
    },
    {
      "midi": 39,
      "hit": false,
      "t": 92038.2404635427,
      "d": 52.08335937499942,
      "v": 97
    },
    {
      "midi": 85,
      "hit": false,
      "t": 92173.6571979177,
      "d": 173.61119791667443,
      "v": 91
    },
    {
      "midi": 51,
      "hit": false,
      "t": 92309.0739322927,
      "d": 93.75004687502224,
      "v": 97
    },
    {
      "midi": 82,
      "hit": false,
      "t": 92319.4906041677,
      "d": 93.75004687502224,
      "v": 97
    },
    {
      "midi": 61,
      "hit": false,
      "t": 92326.43505208437,
      "d": 69.44447916667559,
      "v": 86
    },
    {
      "midi": 55,
      "hit": false,
      "t": 92329.90727604271,
      "d": 69.44447916667559,
      "v": 97
    },
    {
      "midi": 79,
      "hit": false,
      "t": 92472.2684583344,
      "d": 72.91670312499627,
      "v": 78
    },
    {
      "midi": 58,
      "hit": false,
      "t": 92597.26852083439,
      "d": 97.22227083335747,
      "v": 91
    },
    {
      "midi": 46,
      "hit": false,
      "t": 92604.21296875106,
      "d": 76.38892708334606,
      "v": 91
    },
    {
      "midi": 75,
      "hit": false,
      "t": 92614.62964062607,
      "d": 121.52783854167501,
      "v": 86
    },
    {
      "midi": 77,
      "hit": false,
      "t": 92756.99082291774,
      "d": 274.3056927083526,
      "v": 91
    },
    {
      "midi": 51,
      "hit": false,
      "t": 92892.40755729274,
      "d": 76.38892708334606,
      "v": 74
    },
    {
      "midi": 61,
      "hit": false,
      "t": 92895.87978125107,
      "d": 69.44447916667559,
      "v": 97
    },
    {
      "midi": 55,
      "hit": false,
      "t": 92902.82422916775,
      "d": 59.02780729166989,
      "v": 91
    },
    {
      "midi": 72,
      "hit": false,
      "t": 93045.18541145942,
      "d": 65.97225520834036,
      "v": 113
    },
    {
      "midi": 75,
      "hit": false,
      "t": 93170.18547395943,
      "d": 83.33337500000198,
      "v": 97
    },
    {
      "midi": 51,
      "hit": false,
      "t": 93177.1299218761,
      "d": 52.08335937499942,
      "v": 91
    },
    {
      "midi": 39,
      "hit": false,
      "t": 93184.07436979277,
      "d": 48.61113541666418,
      "v": 91
    },
    {
      "midi": 73,
      "hit": false,
      "t": 93316.01888020943,
      "d": 65.97225520834036,
      "v": 91
    },
    {
      "midi": 70,
      "hit": false,
      "t": 93451.43561458444,
      "d": 69.44447916667559,
      "v": 104
    },
    {
      "midi": 49,
      "hit": false,
      "t": 93451.43561458444,
      "d": 72.91670312501083,
      "v": 91
    },
    {
      "midi": 37,
      "hit": false,
      "t": 93461.85228645944,
      "d": 79.86115104166674,
      "v": 91
    },
    {
      "midi": 67,
      "hit": false,
      "t": 93597.26902083444,
      "d": 62.50003125000512,
      "v": 91
    },
    {
      "midi": 36,
      "hit": false,
      "t": 93729.21353125111,
      "d": 59.02780729166989,
      "v": 97
    },
    {
      "midi": 48,
      "hit": false,
      "t": 93739.63020312611,
      "d": 45.13891145832895,
      "v": 91
    },
    {
      "midi": 65,
      "hit": false,
      "t": 93743.10242708445,
      "d": 62.50003125000512,
      "v": 91
    },
    {
      "midi": 51,
      "hit": false,
      "t": 94024.35256770946,
      "d": 69.44447916669014,
      "v": 82
    },
    {
      "midi": 56,
      "hit": false,
      "t": 94027.8247916678,
      "d": 55.555583333349205,
      "v": 82
    },
    {
      "midi": 60,
      "hit": false,
      "t": 94038.2414635428,
      "d": 52.08335937501397,
      "v": 91
    },
    {
      "midi": 80,
      "hit": false,
      "t": 94041.71368750113,
      "d": 45.1389114583435,
      "v": 97
    },
    {
      "midi": 84,
      "hit": false,
      "t": 94052.13035937614,
      "d": 59.02780729168444,
      "v": 104
    },
    {
      "midi": 72,
      "hit": false,
      "t": 94062.54703125115,
      "d": 41.666687500008265,
      "v": 91
    },
    {
      "midi": 51,
      "hit": false,
      "t": 94329.90827604283,
      "d": 55.555583333349205,
      "v": 104
    },
    {
      "midi": 79,
      "hit": false,
      "t": 94333.38050000116,
      "d": 83.33337500001653,
      "v": 104
    },
    {
      "midi": 84,
      "hit": false,
      "t": 94343.79717187617,
      "d": 69.44447916667559,
      "v": 104
    },
    {
      "midi": 72,
      "hit": false,
      "t": 94347.2693958345,
      "d": 59.02780729166989,
      "v": 104
    },
    {
      "midi": 39,
      "hit": false,
      "t": 94354.21384375117,
      "d": 34.722239583337796,
      "v": 104
    },
    {
      "midi": 51,
      "hit": false,
      "t": 94621.57508854284,
      "d": 69.44447916669014,
      "v": 86
    },
    {
      "midi": 77,
      "hit": false,
      "t": 94628.51953645951,
      "d": 65.97225520835491,
      "v": 86
    },
    {
      "midi": 56,
      "hit": false,
      "t": 94635.46398437618,
      "d": 62.500031250019674,
      "v": 91
    },
    {
      "midi": 60,
      "hit": false,
      "t": 94638.93620833452,
      "d": 45.1389114583435,
      "v": 97
    },
    {
      "midi": 84,
      "hit": false,
      "t": 94638.93620833452,
      "d": 69.44447916669014,
      "v": 104
    },
    {
      "midi": 72,
      "hit": false,
      "t": 94649.35288020952,
      "d": 55.555583333349205,
      "v": 97
    },
    {
      "midi": 84,
      "hit": false,
      "t": 94923.65857291788,
      "d": 62.500031250019674,
      "v": 97
    },
    {
      "midi": 75,
      "hit": false,
      "t": 94930.60302083455,
      "d": 48.611135416678735,
      "v": 86
    },
    {
      "midi": 72,
      "hit": false,
      "t": 94937.54746875122,
      "d": 52.08335937501397,
      "v": 104
    },
    {
      "midi": 56,
      "hit": false,
      "t": 94944.49191666789,
      "d": 52.08335937501397,
      "v": 97
    },
    {
      "midi": 44,
      "hit": false,
      "t": 94958.38081250123,
      "d": 34.722239583337796,
      "v": 97
    },
    {
      "midi": 75,
      "hit": false,
      "t": 95079.9086510429,
      "d": 65.97225520834036,
      "v": 97
    },
    {
      "midi": 83,
      "hit": false,
      "t": 95090.32532291791,
      "d": 62.50003125000512,
      "v": 113
    },
    {
      "midi": 71,
      "hit": false,
      "t": 95093.79754687625,
      "d": 48.61113541666418,
      "v": 113
    },
    {
      "midi": 51,
      "hit": false,
      "t": 95211.85316145958,
      "d": 69.44447916667559,
      "v": 91
    },
    {
      "midi": 56,
      "hit": false,
      "t": 95218.79760937626,
      "d": 52.08335937499942,
      "v": 91
    },
    {
      "midi": 60,
      "hit": false,
      "t": 95225.74205729293,
      "d": 48.61113541666418,
      "v": 97
    },
    {
      "midi": 75,
      "hit": false,
      "t": 95368.1032395846,
      "d": 180.5556458333449,
      "v": 97
    },
    {
      "midi": 84,
      "hit": false,
      "t": 95371.57546354293,
      "d": 156.2500781250128,
      "v": 113
    },
    {
      "midi": 72,
      "hit": false,
      "t": 95378.5199114596,
      "d": 107.63894270833407,
      "v": 113
    },
    {
      "midi": 53,
      "hit": false,
      "t": 95517.40886979294,
      "d": 59.027807291655336,
      "v": 91
    },
    {
      "midi": 41,
      "hit": false,
      "t": 95541.71443750127,
      "d": 45.13891145832895,
      "v": 91
    },
    {
      "midi": 85,
      "hit": false,
      "t": 95635.46448437627,
      "d": 65.97225520834036,
      "v": 91
    },
    {
      "midi": 73,
      "hit": false,
      "t": 95645.88115625127,
      "d": 52.08335937499942,
      "v": 97
    },
    {
      "midi": 84,
      "hit": false,
      "t": 95774.3534427096,
      "d": 65.97225520834036,
      "v": 113
    },
    {
      "midi": 57,
      "hit": false,
      "t": 95777.82566666794,
      "d": 72.91670312501083,
      "v": 97
    },
    {
      "midi": 63,
      "hit": false,
      "t": 95784.77011458461,
      "d": 52.08335937499942,
      "v": 97
    },
    {
      "midi": 72,
      "hit": false,
      "t": 95788.24233854294,
      "d": 45.13891145832895,
      "v": 113
    },
    {
      "midi": 75,
      "hit": false,
      "t": 95788.24233854294,
      "d": 45.13891145832895,
      "v": 113
    },
    {
      "midi": 53,
      "hit": false,
      "t": 95795.18678645961,
      "d": 62.50003125000512,
      "v": 91
    },
    {
      "midi": 70,
      "hit": false,
      "t": 96079.90915104296,
      "d": 52.08335937501397,
      "v": 91
    },
    {
      "midi": 73,
      "hit": false,
      "t": 96079.90915104296,
      "d": 52.08335937501397,
      "v": 91
    },
    {
      "midi": 77,
      "hit": false,
      "t": 96079.90915104296,
      "d": 52.08335937501397,
      "v": 91
    },
    {
      "midi": 82,
      "hit": false,
      "t": 96083.38137500129,
      "d": 59.02780729168444,
      "v": 104
    },
    {
      "midi": 49,
      "hit": false,
      "t": 96093.7980468763,
      "d": 31.25001562500256,
      "v": 91
    },
    {
      "midi": 37,
      "hit": false,
      "t": 96097.27027083463,
      "d": 31.25001562500256,
      "v": 104
    },
    {
      "midi": 61,
      "hit": false,
      "t": 96375.0481875013,
      "d": 55.555583333349205,
      "v": 97
    },
    {
      "midi": 80,
      "hit": false,
      "t": 96378.52041145964,
      "d": 62.500031250019674,
      "v": 97
    },
    {
      "midi": 85,
      "hit": false,
      "t": 96378.52041145964,
      "d": 62.500031250019674,
      "v": 97
    },
    {
      "midi": 89,
      "hit": false,
      "t": 96378.52041145964,
      "d": 62.500031250019674,
      "v": 97
    },
    {
      "midi": 56,
      "hit": false,
      "t": 96388.93708333465,
      "d": 48.611135416678735,
      "v": 97
    },
    {
      "midi": 92,
      "hit": false,
      "t": 96388.93708333465,
      "d": 48.611135416678735,
      "v": 97
    },
    {
      "midi": 58,
      "hit": false,
      "t": 96392.40930729298,
      "d": 31.25001562500256,
      "v": 97
    },
    {
      "midi": 65,
      "hit": false,
      "t": 96392.40930729298,
      "d": 41.666687500008265,
      "v": 86
    },
    {
      "midi": 80,
      "hit": false,
      "t": 96666.71500000132,
      "d": 59.02780729168444,
      "v": 91
    },
    {
      "midi": 84,
      "hit": false,
      "t": 96670.18722395966,
      "d": 65.97225520835491,
      "v": 113
    },
    {
      "midi": 77,
      "hit": false,
      "t": 96677.13167187633,
      "d": 65.97225520835491,
      "v": 97
    },
    {
      "midi": 89,
      "hit": false,
      "t": 96684.076119793,
      "d": 45.1389114583435,
      "v": 104
    },
    {
      "midi": 38,
      "hit": false,
      "t": 96694.492791668,
      "d": 27.777791666667326,
      "v": 104
    },
    {
      "midi": 60,
      "hit": false,
      "t": 96954.90958854301,
      "d": 72.91670312501083,
      "v": 86
    },
    {
      "midi": 65,
      "hit": false,
      "t": 96954.90958854301,
      "d": 72.91670312501083,
      "v": 86
    },
    {
      "midi": 80,
      "hit": false,
      "t": 96968.79848437634,
      "d": 76.38892708336061,
      "v": 82
    },
    {
      "midi": 84,
      "hit": false,
      "t": 96972.27070833468,
      "d": 83.33337500003108,
      "v": 104
    },
    {
      "midi": 72,
      "hit": false,
      "t": 96979.21515625135,
      "d": 59.02780729168444,
      "v": 104
    },
    {
      "midi": 77,
      "hit": false,
      "t": 96982.68738020968,
      "d": 65.97225520835491,
      "v": 91
    },
    {
      "midi": 56,
      "hit": false,
      "t": 96989.63182812635,
      "d": 31.25001562500256,
      "v": 86
    },
    {
      "midi": 80,
      "hit": false,
      "t": 97253.5208489597,
      "d": 62.500031250019674,
      "v": 82
    },
    {
      "midi": 39,
      "hit": false,
      "t": 97263.9375208347,
      "d": 41.666687500008265,
      "v": 104
    },
    {
      "midi": 51,
      "hit": false,
      "t": 97263.9375208347,
      "d": 41.666687500008265,
      "v": 104
    },
    {
      "midi": 75,
      "hit": false,
      "t": 97267.40974479304,
      "d": 41.666687500008265,
      "v": 97
    },
    {
      "midi": 84,
      "hit": false,
      "t": 97274.35419270971,
      "d": 62.50003125000512,
      "v": 97
    },
    {
      "midi": 72,
      "hit": false,
      "t": 97281.29864062638,
      "d": 31.25001562500256,
      "v": 104
    },
    {
      "midi": 75,
      "hit": false,
      "t": 97427.13204687639,
      "d": 48.61113541666418,
      "v": 91
    },
    {
      "midi": 87,
      "hit": false,
      "t": 97430.60427083472,
      "d": 52.08335937499942,
      "v": 91
    },
    {
      "midi": 56,
      "hit": false,
      "t": 97524.35431770972,
      "d": 65.97225520834036,
      "v": 86
    },
    {
      "midi": 60,
      "hit": false,
      "t": 97524.35431770972,
      "d": 65.97225520834036,
      "v": 86
    },
    {
      "midi": 63,
      "hit": false,
      "t": 97524.35431770972,
      "d": 65.97225520834036,
      "v": 86
    },
    {
      "midi": 88,
      "hit": false,
      "t": 97562.54878125139,
      "d": 52.08335937499942,
      "v": 97
    },
    {
      "midi": 76,
      "hit": false,
      "t": 97566.02100520972,
      "d": 38.19446354165848,
      "v": 97
    },
    {
      "midi": 89,
      "hit": false,
      "t": 97715.32663541805,
      "d": 107.63894270833407,
      "v": 104
    },
    {
      "midi": 77,
      "hit": false,
      "t": 97718.79885937639,
      "d": 145.8334062500071,
      "v": 91
    },
    {
      "midi": 82,
      "hit": false,
      "t": 97718.79885937639,
      "d": 145.8334062500071,
      "v": 91
    },
    {
      "midi": 85,
      "hit": false,
      "t": 97718.79885937639,
      "d": 145.8334062500071,
      "v": 91
    },
    {
      "midi": 39,
      "hit": false,
      "t": 97829.91002604306,
      "d": 45.1389114583435,
      "v": 104
    },
    {
      "midi": 73,
      "hit": false,
      "t": 98125.0490625014,
      "d": 65.97225520835491,
      "v": 97
    },
    {
      "midi": 79,
      "hit": false,
      "t": 98128.52128645974,
      "d": 76.38892708336061,
      "v": 113
    },
    {
      "midi": 75,
      "hit": false,
      "t": 98135.46573437641,
      "d": 45.1389114583435,
      "v": 91
    },
    {
      "midi": 61,
      "hit": false,
      "t": 98135.46573437641,
      "d": 52.08335937501397,
      "v": 97
    },
    {
      "midi": 67,
      "hit": false,
      "t": 98138.93795833475,
      "d": 59.02780729168444,
      "v": 104
    },
    {
      "midi": 55,
      "hit": false,
      "t": 98142.41018229308,
      "d": 65.97225520835491,
      "v": 104
    },
    {
      "midi": 51,
      "hit": false,
      "t": 98152.82685416809,
      "d": 41.666687500008265,
      "v": 86
    },
    {
      "midi": 75,
      "hit": false,
      "t": 98430.60477083478,
      "d": 1281.2506406250614,
      "v": 97
    },
    {
      "midi": 72,
      "hit": false,
      "t": 98434.07699479311,
      "d": 1288.1950885417318,
      "v": 104
    },
    {
      "midi": 56,
      "hit": false,
      "t": 98444.49366666812,
      "d": 55.55558333333465,
      "v": 86
    },
    {
      "midi": 68,
      "hit": false,
      "t": 98444.49366666812,
      "d": 1253.4728489583795,
      "v": 104
    },
    {
      "midi": 80,
      "hit": false,
      "t": 98444.49366666812,
      "d": 1291.6673125000525,
      "v": 104
    },
    {
      "midi": 60,
      "hit": false,
      "t": 98447.96589062645,
      "d": 55.55558333333465,
      "v": 91
    },
    {
      "midi": 53,
      "hit": false,
      "t": 98732.6882552098,
      "d": 34.722239583337796,
      "v": 97
    },
    {
      "midi": 41,
      "hit": false,
      "t": 98743.1049270848,
      "d": 27.777791666667326,
      "v": 104
    },
    {
      "midi": 51,
      "hit": false,
      "t": 98892.41055729313,
      "d": 55.555583333349205,
      "v": 113
    },
    {
      "midi": 39,
      "hit": false,
      "t": 98899.3550052098,
      "d": 52.08335937501397,
      "v": 104
    },
    {
      "midi": 48,
      "hit": false,
      "t": 99187.54959375148,
      "d": 31.25001562500256,
      "v": 86
    },
    {
      "midi": 36,
      "hit": false,
      "t": 99191.02181770981,
      "d": 31.25001562500256,
      "v": 104
    },
    {
      "midi": 46,
      "hit": false,
      "t": 99322.96632812648,
      "d": 45.1389114583435,
      "v": 104
    },
    {
      "midi": 34,
      "hit": false,
      "t": 99333.38300000149,
      "d": 31.25001562500256,
      "v": 104
    },
    {
      "midi": 44,
      "hit": false,
      "t": 99645.8831562515,
      "d": 55.55558333333465,
      "v": 113
    },
    {
      "midi": 32,
      "hit": false,
      "t": 99649.35538020983,
      "d": 41.666687499993714,
      "v": 113
    },
    {
      "midi": 92,
      "hit": false,
      "t": 100302.1334843765,
      "d": 86.80559895835177,
      "v": 104
    },
    {
      "midi": 32,
      "hit": false,
      "t": 100312.55015625151,
      "d": 45.13891145832895,
      "v": 104
    },
    {
      "midi": 87,
      "hit": false,
      "t": 100312.55015625151,
      "d": 59.02780729166989,
      "v": 97
    },
    {
      "midi": 80,
      "hit": false,
      "t": 100312.55015625151,
      "d": 62.50003125000512,
      "v": 104
    },
    {
      "midi": 44,
      "hit": false,
      "t": 100316.02238020985,
      "d": 48.61113541666418,
      "v": 104
    },
    {
      "midi": 84,
      "hit": false,
      "t": 100329.91127604317,
      "d": 55.555583333349205,
      "v": 104
    },
    {
      "midi": 80,
      "hit": false,
      "t": 100947.96714062653,
      "d": 145.8334062500071,
      "v": 91
    },
    {
      "midi": 75,
      "hit": false,
      "t": 100961.85603645985,
      "d": 149.30563020834234,
      "v": 82
    },
    {
      "midi": 78,
      "hit": false,
      "t": 100965.32826041819,
      "d": 142.36118229167187,
      "v": 86
    },
    {
      "midi": 68,
      "hit": false,
      "t": 100972.27270833486,
      "d": 72.91670312499627,
      "v": 104
    },
    {
      "midi": 72,
      "hit": false,
      "t": 100975.7449322932,
      "d": 86.80559895833721,
      "v": 113
    },
    {
      "midi": 63,
      "hit": false,
      "t": 100979.21715625153,
      "d": 72.91670312499627,
      "v": 113
    },
    {
      "midi": 51,
      "hit": false,
      "t": 100979.21715625153,
      "d": 76.38892708333151,
      "v": 91
    },
    {
      "midi": 66,
      "hit": false,
      "t": 101274.35619270986,
      "d": 52.08335937501397,
      "v": 97
    },
    {
      "midi": 56,
      "hit": false,
      "t": 101277.8284166682,
      "d": 62.50003125000512,
      "v": 86
    },
    {
      "midi": 60,
      "hit": false,
      "t": 101288.2450885432,
      "d": 59.02780729166989,
      "v": 91
    },
    {
      "midi": 82,
      "hit": false,
      "t": 101402.82847916821,
      "d": 187.50009375000081,
      "v": 91
    },
    {
      "midi": 75,
      "hit": false,
      "t": 101406.30070312654,
      "d": 180.55564583333035,
      "v": 86
    },
    {
      "midi": 78,
      "hit": false,
      "t": 101416.71737500155,
      "d": 177.0834218749951,
      "v": 82
    },
    {
      "midi": 70,
      "hit": false,
      "t": 101420.18959895989,
      "d": 125.00006249999569,
      "v": 104
    },
    {
      "midi": 44,
      "hit": false,
      "t": 101562.55078125154,
      "d": 62.50003125000512,
      "v": 91
    },
    {
      "midi": 56,
      "hit": false,
      "t": 101566.02300520988,
      "d": 52.08335937499942,
      "v": 104
    },
    {
      "midi": 72,
      "hit": false,
      "t": 101718.80085937654,
      "d": 45.13891145832895,
      "v": 82
    },
    {
      "midi": 82,
      "hit": false,
      "t": 101829.91202604321,
      "d": 62.500031250019674,
      "v": 97
    },
    {
      "midi": 70,
      "hit": false,
      "t": 101840.32869791822,
      "d": 45.1389114583435,
      "v": 104
    },
    {
      "midi": 66,
      "hit": false,
      "t": 101843.80092187655,
      "d": 79.8611510416813,
      "v": 82
    },
    {
      "midi": 56,
      "hit": false,
      "t": 101854.21759375156,
      "d": 76.38892708334606,
      "v": 82
    },
    {
      "midi": 60,
      "hit": false,
      "t": 101861.16204166823,
      "d": 76.38892708334606,
      "v": 86
    },
    {
      "midi": 63,
      "hit": false,
      "t": 102138.9399583349,
      "d": 111.1111666666693,
      "v": 97
    },
    {
      "midi": 51,
      "hit": false,
      "t": 102145.88440625157,
      "d": 83.33337500000198,
      "v": 97
    },
    {
      "midi": 87,
      "hit": false,
      "t": 102281.30114062657,
      "d": 170.1389739583392,
      "v": 91
    },
    {
      "midi": 92,
      "hit": false,
      "t": 102288.24558854324,
      "d": 166.66675000000396,
      "v": 97
    },
    {
      "midi": 80,
      "hit": false,
      "t": 102295.19003645991,
      "d": 131.94451041666616,
      "v": 113
    },
    {
      "midi": 84,
      "hit": false,
      "t": 102298.66226041825,
      "d": 163.19452604166872,
      "v": 104
    },
    {
      "midi": 66,
      "hit": false,
      "t": 102413.24565104324,
      "d": 59.02780729168444,
      "v": 97
    },
    {
      "midi": 56,
      "hit": false,
      "t": 102416.71787500157,
      "d": 62.500031250019674,
      "v": 86
    },
    {
      "midi": 60,
      "hit": false,
      "t": 102423.66232291824,
      "d": 41.666687500008265,
      "v": 91
    },
    {
      "midi": 94,
      "hit": false,
      "t": 102583.38462500159,
      "d": 65.97225520834036,
      "v": 104
    },
    {
      "midi": 82,
      "hit": false,
      "t": 102586.85684895993,
      "d": 55.55558333333465,
      "v": 104
    },
    {
      "midi": 44,
      "hit": false,
      "t": 102687.5513437516,
      "d": 55.55558333333465,
      "v": 97
    },
    {
      "midi": 56,
      "hit": false,
      "t": 102691.02356770994,
      "d": 45.13891145832895,
      "v": 104
    },
    {
      "midi": 84,
      "hit": false,
      "t": 102854.21809375161,
      "d": 38.19446354167303,
      "v": 91
    },
    {
      "midi": 96,
      "hit": false,
      "t": 102857.69031770994,
      "d": 31.25001562500256,
      "v": 113
    },
    {
      "midi": 54,
      "hit": false,
      "t": 102968.80148437661,
      "d": 48.61113541666418,
      "v": 104
    },
    {
      "midi": 42,
      "hit": false,
      "t": 102972.27370833495,
      "d": 55.55558333333465,
      "v": 91
    },
    {
      "midi": 94,
      "hit": false,
      "t": 102989.63482812661,
      "d": 34.722239583337796,
      "v": 97
    },
    {
      "midi": 82,
      "hit": false,
      "t": 102993.10705208495,
      "d": 38.19446354167303,
      "v": 104
    },
    {
      "midi": 41,
      "hit": false,
      "t": 103270.88496875162,
      "d": 41.666687500008265,
      "v": 104
    },
    {
      "midi": 53,
      "hit": false,
      "t": 103281.30164062663,
      "d": 38.19446354167303,
      "v": 97
    },
    {
      "midi": 80,
      "hit": false,
      "t": 103399.35725520996,
      "d": 184.02786979169468,
      "v": 91
    },
    {
      "midi": 73,
      "hit": false,
      "t": 103409.77392708497,
      "d": 163.19452604168328,
      "v": 91
    },
    {
      "midi": 68,
      "hit": false,
      "t": 103413.2461510433,
      "d": 135.4167343750014,
      "v": 104
    },
    {
      "midi": 77,
      "hit": false,
      "t": 103420.19059895998,
      "d": 180.5556458333449,
      "v": 91
    },
    {
      "midi": 56,
      "hit": false,
      "t": 103552.13510937664,
      "d": 69.44447916667559,
      "v": 86
    },
    {
      "midi": 61,
      "hit": false,
      "t": 103559.07955729331,
      "d": 62.50003125000512,
      "v": 86
    },
    {
      "midi": 65,
      "hit": false,
      "t": 103569.49622916832,
      "d": 55.55558333333465,
      "v": 91
    },
    {
      "midi": 73,
      "hit": false,
      "t": 103670.19072395998,
      "d": 142.36118229167187,
      "v": 91
    },
    {
      "midi": 77,
      "hit": false,
      "t": 103677.13517187665,
      "d": 163.19452604166872,
      "v": 25
    },
    {
      "midi": 82,
      "hit": false,
      "t": 103687.55184375166,
      "d": 156.25007812499825,
      "v": 104
    },
    {
      "midi": 70,
      "hit": false,
      "t": 103694.49629166833,
      "d": 93.75004687499313,
      "v": 104
    },
    {
      "midi": 56,
      "hit": false,
      "t": 103826.44080208498,
      "d": 52.08335937501397,
      "v": 104
    },
    {
      "midi": 44,
      "hit": false,
      "t": 103836.85747395999,
      "d": 48.611135416678735,
      "v": 91
    },
    {
      "midi": 72,
      "hit": false,
      "t": 103972.274208335,
      "d": 38.19446354167303,
      "v": 86
    },
    {
      "midi": 84,
      "hit": false,
      "t": 103979.21865625167,
      "d": 34.722239583337796,
      "v": 86
    },
    {
      "midi": 82,
      "hit": false,
      "t": 104097.27427083501,
      "d": 59.02780729168444,
      "v": 104
    },
    {
      "midi": 70,
      "hit": false,
      "t": 104100.74649479335,
      "d": 48.611135416678735,
      "v": 113
    },
    {
      "midi": 56,
      "hit": false,
      "t": 104111.16316666835,
      "d": 55.555583333349205,
      "v": 91
    },
    {
      "midi": 61,
      "hit": false,
      "t": 104121.57983854336,
      "d": 41.666687500008265,
      "v": 97
    },
    {
      "midi": 65,
      "hit": false,
      "t": 104128.52428646003,
      "d": 45.1389114583435,
      "v": 97
    },
    {
      "midi": 61,
      "hit": false,
      "t": 104402.82997916838,
      "d": 93.75004687499313,
      "v": 113
    },
    {
      "midi": 49,
      "hit": false,
      "t": 104413.24665104339,
      "d": 69.44447916666104,
      "v": 104
    },
    {
      "midi": 92,
      "hit": false,
      "t": 104524.35781771004,
      "d": 177.08342187502421,
      "v": 97
    },
    {
      "midi": 85,
      "hit": false,
      "t": 104527.83004166838,
      "d": 190.97231770836515,
      "v": 86
    },
    {
      "midi": 80,
      "hit": false,
      "t": 104538.24671354338,
      "d": 125.00006250001024,
      "v": 97
    },
    {
      "midi": 89,
      "hit": false,
      "t": 104541.71893750172,
      "d": 187.50009375002992,
      "v": 97
    },
    {
      "midi": 56,
      "hit": false,
      "t": 104687.55234375173,
      "d": 83.33337500003108,
      "v": 91
    },
    {
      "midi": 61,
      "hit": false,
      "t": 104691.02456771006,
      "d": 76.38892708336061,
      "v": 97
    },
    {
      "midi": 65,
      "hit": false,
      "t": 104708.38568750174,
      "d": 72.91670312502538,
      "v": 104
    },
    {
      "midi": 94,
      "hit": false,
      "t": 104854.21909375176,
      "d": 69.44447916667559,
      "v": 104
    },
    {
      "midi": 82,
      "hit": false,
      "t": 104857.6913177101,
      "d": 55.55558333333465,
      "v": 104
    },
    {
      "midi": 53,
      "hit": false,
      "t": 104961.85803646011,
      "d": 315.9723802083463,
      "v": 104
    },
    {
      "midi": 96,
      "hit": false,
      "t": 105128.52478646011,
      "d": 27.777791666667326,
      "v": 104
    },
    {
      "midi": 84,
      "hit": false,
      "t": 105138.94145833512,
      "d": 34.722239583323244,
      "v": 78
    },
    {
      "midi": 56,
      "hit": false,
      "t": 105239.63595312678,
      "d": 79.8611510416813,
      "v": 86
    },
    {
      "midi": 61,
      "hit": false,
      "t": 105246.58040104345,
      "d": 59.02780729166989,
      "v": 82
    },
    {
      "midi": 65,
      "hit": false,
      "t": 105253.52484896012,
      "d": 62.50003125000512,
      "v": 91
    },
    {
      "midi": 82,
      "hit": false,
      "t": 105260.46929687679,
      "d": 38.19446354165848,
      "v": 104
    },
    {
      "midi": 94,
      "hit": false,
      "t": 105260.46929687679,
      "d": 48.61113541666418,
      "v": 97
    },
    {
      "midi": 63,
      "hit": false,
      "t": 105559.08055729346,
      "d": 62.50003125000512,
      "v": 104
    },
    {
      "midi": 51,
      "hit": false,
      "t": 105562.5527812518,
      "d": 55.55558333333465,
      "v": 91
    },
    {
      "midi": 80,
      "hit": false,
      "t": 105826.44180208513,
      "d": 83.33337500003108,
      "v": 86
    },
    {
      "midi": 56,
      "hit": false,
      "t": 105829.91402604347,
      "d": 62.500031250019674,
      "v": 82
    },
    {
      "midi": 66,
      "hit": false,
      "t": 105840.33069791847,
      "d": 41.666687500008265,
      "v": 74
    },
    {
      "midi": 70,
      "hit": false,
      "t": 105840.33069791847,
      "d": 55.555583333349205,
      "v": 91
    },
    {
      "midi": 78,
      "hit": false,
      "t": 105840.33069791847,
      "d": 65.97225520835491,
      "v": 82
    },
    {
      "midi": 60,
      "hit": false,
      "t": 105843.8029218768,
      "d": 55.555583333349205,
      "v": 86
    },
    {
      "midi": 78,
      "hit": false,
      "t": 106131.9975104185,
      "d": 93.75004687500768,
      "v": 86
    },
    {
      "midi": 80,
      "hit": false,
      "t": 106135.46973437683,
      "d": 100.69449479167815,
      "v": 82
    },
    {
      "midi": 72,
      "hit": false,
      "t": 106145.88640625184,
      "d": 83.33337500000198,
      "v": 104
    },
    {
      "midi": 44,
      "hit": false,
      "t": 106156.30307812685,
      "d": 34.722239583323244,
      "v": 97
    },
    {
      "midi": 56,
      "hit": false,
      "t": 106173.66419791851,
      "d": 27.777791666667326,
      "v": 86
    },
    {
      "midi": 80,
      "hit": false,
      "t": 106420.19209896018,
      "d": 93.75004687502224,
      "v": 86
    },
    {
      "midi": 73,
      "hit": false,
      "t": 106423.66432291851,
      "d": 59.02780729168444,
      "v": 91
    },
    {
      "midi": 78,
      "hit": false,
      "t": 106430.60877083518,
      "d": 59.02780729168444,
      "v": 86
    },
    {
      "midi": 56,
      "hit": false,
      "t": 106441.02544271019,
      "d": 69.44447916667559,
      "v": 86
    },
    {
      "midi": 60,
      "hit": false,
      "t": 106447.96989062686,
      "d": 72.91670312501083,
      "v": 97
    },
    {
      "midi": 66,
      "hit": false,
      "t": 106458.38656250187,
      "d": 48.61113541666418,
      "v": 97
    },
    {
      "midi": 63,
      "hit": false,
      "t": 106732.6922552102,
      "d": 59.02780729166989,
      "v": 104
    },
    {
      "midi": 51,
      "hit": false,
      "t": 106736.16447916854,
      "d": 62.50003125000512,
      "v": 97
    },
    {
      "midi": 82,
      "hit": false,
      "t": 106743.10892708521,
      "d": 72.91670312499627,
      "v": 97
    },
    {
      "midi": 80,
      "hit": false,
      "t": 106861.16454166854,
      "d": 83.33337500001653,
      "v": 97
    },
    {
      "midi": 78,
      "hit": false,
      "t": 106871.58121354354,
      "d": 62.50003125000512,
      "v": 91
    },
    {
      "midi": 72,
      "hit": false,
      "t": 106878.52566146021,
      "d": 62.50003125000512,
      "v": 104
    },
    {
      "midi": 56,
      "hit": false,
      "t": 106989.63682812688,
      "d": 76.38892708334606,
      "v": 82
    },
    {
      "midi": 60,
      "hit": false,
      "t": 106993.10905208522,
      "d": 83.33337500001653,
      "v": 97
    },
    {
      "midi": 66,
      "hit": false,
      "t": 107006.99794791856,
      "d": 52.08335937499942,
      "v": 104
    },
    {
      "midi": 82,
      "hit": false,
      "t": 107152.83135416856,
      "d": 142.36118229167187,
      "v": 91
    },
    {
      "midi": 80,
      "hit": false,
      "t": 107232.69250521023,
      "d": 125.0000625000248,
      "v": 91
    },
    {
      "midi": 73,
      "hit": false,
      "t": 107239.6369531269,
      "d": 93.75004687500768,
      "v": 91
    },
    {
      "midi": 77,
      "hit": false,
      "t": 107260.4702968769,
      "d": 90.277822916687,
      "v": 82
    },
    {
      "midi": 56,
      "hit": false,
      "t": 107274.35919271022,
      "d": 62.500031250019674,
      "v": 97
    },
    {
      "midi": 65,
      "hit": false,
      "t": 107284.77586458523,
      "d": 59.02780729168444,
      "v": 91
    },
    {
      "midi": 82,
      "hit": false,
      "t": 107454.91483854358,
      "d": 138.88895833335118,
      "v": 86
    },
    {
      "midi": 80,
      "hit": false,
      "t": 107538.24821354359,
      "d": 107.63894270836317,
      "v": 104
    },
    {
      "midi": 63,
      "hit": false,
      "t": 107562.55378125192,
      "d": 52.08335937501397,
      "v": 104
    },
    {
      "midi": 56,
      "hit": false,
      "t": 107562.55378125192,
      "d": 55.555583333349205,
      "v": 104
    },
    {
      "midi": 78,
      "hit": false,
      "t": 107572.97045312692,
      "d": 55.555583333349205,
      "v": 97
    },
    {
      "midi": 75,
      "hit": false,
      "t": 107576.44267708526,
      "d": 48.611135416678735,
      "v": 97
    },
    {
      "midi": 72,
      "hit": false,
      "t": 107583.38712500193,
      "d": 55.555583333349205,
      "v": 97
    },
    {
      "midi": 49,
      "hit": false,
      "t": 107864.63726562695,
      "d": 59.02780729166989,
      "v": 91
    },
    {
      "midi": 61,
      "hit": false,
      "t": 107868.10948958529,
      "d": 52.08335937499942,
      "v": 113
    },
    {
      "midi": 80,
      "hit": false,
      "t": 108131.99851041862,
      "d": 93.75004687503679,
      "v": 78
    },
    {
      "midi": 70,
      "hit": false,
      "t": 108142.41518229363,
      "d": 72.91670312502538,
      "v": 91
    },
    {
      "midi": 77,
      "hit": false,
      "t": 108156.30407812697,
      "d": 69.44447916669014,
      "v": 91
    },
    {
      "midi": 61,
      "hit": false,
      "t": 108159.7763020853,
      "d": 41.666687500008265,
      "v": 86
    },
    {
      "midi": 56,
      "hit": false,
      "t": 108170.19297396031,
      "d": 38.19446354167303,
      "v": 97
    },
    {
      "midi": 65,
      "hit": false,
      "t": 108173.66519791864,
      "d": 31.25001562500256,
      "v": 86
    },
    {
      "midi": 80,
      "hit": false,
      "t": 108437.55421875199,
      "d": 93.75004687500768,
      "v": 78
    },
    {
      "midi": 77,
      "hit": false,
      "t": 108447.970890627,
      "d": 86.80559895833721,
      "v": 86
    },
    {
      "midi": 72,
      "hit": false,
      "t": 108451.44311458533,
      "d": 69.44447916666104,
      "v": 97
    },
    {
      "midi": 44,
      "hit": false,
      "t": 108461.85978646034,
      "d": 41.666687499993714,
      "v": 91
    },
    {
      "midi": 56,
      "hit": false,
      "t": 108461.85978646034,
      "d": 45.13891145832895,
      "v": 97
    },
    {
      "midi": 80,
      "hit": false,
      "t": 108725.74880729367,
      "d": 93.75004687502224,
      "v": 91
    },
    {
      "midi": 73,
      "hit": false,
      "t": 108732.69325521034,
      "d": 55.55558333333465,
      "v": 91
    },
    {
      "midi": 77,
      "hit": false,
      "t": 108739.63770312701,
      "d": 59.02780729166989,
      "v": 82
    },
    {
      "midi": 61,
      "hit": false,
      "t": 108743.10992708534,
      "d": 62.50003125000512,
      "v": 82
    },
    {
      "midi": 56,
      "hit": false,
      "t": 108743.10992708534,
      "d": 65.97225520834036,
      "v": 91
    },
    {
      "midi": 65,
      "hit": false,
      "t": 108756.99882291867,
      "d": 55.555583333349205,
      "v": 86
    },
    {
      "midi": 82,
      "hit": false,
      "t": 109017.4156197937,
      "d": 79.86115104166674,
      "v": 91
    },
    {
      "midi": 49,
      "hit": false,
      "t": 109038.2489635437,
      "d": 55.55558333333465,
      "v": 91
    },
    {
      "midi": 61,
      "hit": false,
      "t": 109041.72118750203,
      "d": 45.13891145832895,
      "v": 104
    },
    {
      "midi": 80,
      "hit": false,
      "t": 109128.52678646037,
      "d": 97.22227083332837,
      "v": 104
    },
    {
      "midi": 73,
      "hit": false,
      "t": 109145.88790625203,
      "d": 55.55558333333465,
      "v": 97
    },
    {
      "midi": 77,
      "hit": false,
      "t": 109156.30457812703,
      "d": 41.666687499993714,
      "v": 86
    },
    {
      "midi": 61,
      "hit": false,
      "t": 109298.66576041869,
      "d": 48.611135416678735,
      "v": 91
    },
    {
      "midi": 56,
      "hit": false,
      "t": 109302.13798437703,
      "d": 48.611135416678735,
      "v": 97
    },
    {
      "midi": 65,
      "hit": false,
      "t": 109305.61020833536,
      "d": 38.19446354167303,
      "v": 91
    },
    {
      "midi": 80,
      "hit": false,
      "t": 109451.44361458537,
      "d": 45.13891145832895,
      "v": 86
    },
    {
      "midi": 77,
      "hit": false,
      "t": 109465.3325104187,
      "d": 31.25001562500256,
      "v": 82
    },
    {
      "midi": 89,
      "hit": false,
      "t": 109472.27695833537,
      "d": 31.25001562500256,
      "v": 86
    },
    {
      "midi": 77,
      "hit": false,
      "t": 109534.77698958537,
      "d": 24.30556770833209,
      "v": 65
    },
    {
      "midi": 89,
      "hit": false,
      "t": 109538.2492135437,
      "d": 24.30556770833209,
      "v": 71
    },
    {
      "midi": 54,
      "hit": false,
      "t": 109572.97145312704,
      "d": 55.555583333349205,
      "v": 82
    },
    {
      "midi": 44,
      "hit": false,
      "t": 109579.91590104371,
      "d": 52.08335937501397,
      "v": 97
    },
    {
      "midi": 87,
      "hit": false,
      "t": 109586.86034896038,
      "d": 59.02780729168444,
      "v": 97
    },
    {
      "midi": 75,
      "hit": false,
      "t": 109597.27702083539,
      "d": 41.666687500008265,
      "v": 104
    },
    {
      "midi": 78,
      "hit": false,
      "t": 109604.22146875206,
      "d": 31.25001562500256,
      "v": 91
    },
    {
      "midi": 73,
      "hit": false,
      "t": 109871.58271354374,
      "d": 59.02780729166989,
      "v": 104
    },
    {
      "midi": 77,
      "hit": false,
      "t": 109878.52716146041,
      "d": 62.50003125000512,
      "v": 97
    },
    {
      "midi": 85,
      "hit": false,
      "t": 109885.47160937708,
      "d": 48.61113541666418,
      "v": 97
    },
    {
      "midi": 53,
      "hit": false,
      "t": 109888.94383333542,
      "d": 59.02780729166989,
      "v": 97
    },
    {
      "midi": 44,
      "hit": false,
      "t": 109902.83272916875,
      "d": 24.30556770833209,
      "v": 65
    },
    {
      "midi": 44,
      "hit": false,
      "t": 110173.66619791876,
      "d": 62.500031250019674,
      "v": 91
    },
    {
      "midi": 80,
      "hit": false,
      "t": 110177.1384218771,
      "d": 114.58339062501909,
      "v": 97
    },
    {
      "midi": 75,
      "hit": false,
      "t": 110187.5550937521,
      "d": 76.38892708334606,
      "v": 86
    },
    {
      "midi": 68,
      "hit": false,
      "t": 110194.49954166877,
      "d": 48.611135416678735,
      "v": 104
    },
    {
      "midi": 72,
      "hit": false,
      "t": 110194.49954166877,
      "d": 72.91670312501083,
      "v": 104
    },
    {
      "midi": 56,
      "hit": false,
      "t": 110197.97176562711,
      "d": 41.666687500008265,
      "v": 104
    },
    {
      "midi": 66,
      "hit": false,
      "t": 110461.86078646046,
      "d": 59.02780729166989,
      "v": 91
    },
    {
      "midi": 60,
      "hit": false,
      "t": 110465.33301041879,
      "d": 76.38892708334606,
      "v": 91
    },
    {
      "midi": 56,
      "hit": false,
      "t": 110472.27745833546,
      "d": 62.50003125000512,
      "v": 91
    },
    {
      "midi": 82,
      "hit": false,
      "t": 110593.80529687714,
      "d": 173.61119791667443,
      "v": 97
    },
    {
      "midi": 75,
      "hit": false,
      "t": 110597.27752083547,
      "d": 163.19452604166872,
      "v": 97
    },
    {
      "midi": 78,
      "hit": false,
      "t": 110604.22196875214,
      "d": 159.7223020833335,
      "v": 91
    },
    {
      "midi": 70,
      "hit": false,
      "t": 110607.69419271048,
      "d": 121.52783854166046,
      "v": 104
    },
    {
      "midi": 44,
      "hit": false,
      "t": 110739.63870312714,
      "d": 48.61113541666418,
      "v": 97
    },
    {
      "midi": 84,
      "hit": false,
      "t": 110875.05543750215,
      "d": 34.722239583323244,
      "v": 97
    },
    {
      "midi": 72,
      "hit": false,
      "t": 110888.94433333547,
      "d": 31.25001562500256,
      "v": 91
    },
    {
      "midi": 84,
      "hit": false,
      "t": 110947.97214062714,
      "d": 20.833343749996857,
      "v": 62
    },
    {
      "midi": 82,
      "hit": false,
      "t": 111006.99994791881,
      "d": 62.50003125000512,
      "v": 97
    },
    {
      "midi": 70,
      "hit": false,
      "t": 111013.94439583548,
      "d": 48.61113541666418,
      "v": 113
    },
    {
      "midi": 60,
      "hit": false,
      "t": 111038.24996354381,
      "d": 48.611135416678735,
      "v": 91
    },
    {
      "midi": 66,
      "hit": false,
      "t": 111038.24996354381,
      "d": 48.611135416678735,
      "v": 91
    },
    {
      "midi": 56,
      "hit": false,
      "t": 111048.66663541882,
      "d": 31.25001562500256,
      "v": 86
    },
    {
      "midi": 63,
      "hit": false,
      "t": 111305.6112083355,
      "d": 65.97225520834036,
      "v": 97
    },
    {
      "midi": 51,
      "hit": false,
      "t": 111309.08343229383,
      "d": 65.97225520834036,
      "v": 97
    },
    {
      "midi": 92,
      "hit": false,
      "t": 111430.6112708355,
      "d": 180.55564583335945,
      "v": 91
    },
    {
      "midi": 84,
      "hit": false,
      "t": 111434.08349479384,
      "d": 166.6667500000185,
      "v": 104
    },
    {
      "midi": 87,
      "hit": false,
      "t": 111441.02794271051,
      "d": 163.19452604168328,
      "v": 78
    },
    {
      "midi": 80,
      "hit": false,
      "t": 111444.50016666885,
      "d": 118.05561458333977,
      "v": 97
    },
    {
      "midi": 56,
      "hit": false,
      "t": 111566.02800521052,
      "d": 65.97225520834036,
      "v": 86
    },
    {
      "midi": 66,
      "hit": false,
      "t": 111569.50022916886,
      "d": 48.611135416678735,
      "v": 97
    },
    {
      "midi": 60,
      "hit": false,
      "t": 111576.44467708553,
      "d": 55.55558333333465,
      "v": 97
    },
    {
      "midi": 82,
      "hit": false,
      "t": 111736.16697916886,
      "d": 55.55558333333465,
      "v": 104
    },
    {
      "midi": 94,
      "hit": false,
      "t": 111739.6392031272,
      "d": 55.55558333333465,
      "v": 104
    },
    {
      "midi": 44,
      "hit": false,
      "t": 111843.8059218772,
      "d": 52.08335937501397,
      "v": 91
    },
    {
      "midi": 56,
      "hit": false,
      "t": 111850.75036979387,
      "d": 38.19446354167303,
      "v": 97
    },
    {
      "midi": 84,
      "hit": false,
      "t": 112017.41711979387,
      "d": 38.19446354167303,
      "v": 91
    },
    {
      "midi": 96,
      "hit": false,
      "t": 112020.8893437522,
      "d": 24.30556770833209,
      "v": 97
    },
    {
      "midi": 42,
      "hit": false,
      "t": 112125.0560625022,
      "d": 59.02780729166989,
      "v": 97
    },
    {
      "midi": 54,
      "hit": false,
      "t": 112128.52828646054,
      "d": 45.13891145832895,
      "v": 97
    },
    {
      "midi": 94,
      "hit": false,
      "t": 112149.36163021054,
      "d": 38.19446354167303,
      "v": 97
    },
    {
      "midi": 82,
      "hit": false,
      "t": 112159.77830208554,
      "d": 31.25001562500256,
      "v": 97
    },
    {
      "midi": 41,
      "hit": false,
      "t": 112434.08399479388,
      "d": 59.02780729166989,
      "v": 104
    },
    {
      "midi": 53,
      "hit": false,
      "t": 112444.50066666889,
      "d": 52.08335937499942,
      "v": 113
    },
    {
      "midi": 80,
      "hit": false,
      "t": 112562.55628125223,
      "d": 166.6667500000185,
      "v": 91
    },
    {
      "midi": 73,
      "hit": false,
      "t": 112566.02850521056,
      "d": 135.4167343750014,
      "v": 91
    },
    {
      "midi": 68,
      "hit": false,
      "t": 112572.97295312723,
      "d": 107.63894270833407,
      "v": 104
    },
    {
      "midi": 77,
      "hit": false,
      "t": 112576.44517708557,
      "d": 170.1389739583392,
      "v": 97
    },
    {
      "midi": 61,
      "hit": false,
      "t": 112711.86191146057,
      "d": 52.08335937501397,
      "v": 91
    },
    {
      "midi": 56,
      "hit": false,
      "t": 112715.3341354189,
      "d": 41.666687500008265,
      "v": 97
    },
    {
      "midi": 65,
      "hit": false,
      "t": 112725.75080729391,
      "d": 45.1389114583435,
      "v": 97
    },
    {
      "midi": 73,
      "hit": false,
      "t": 112833.38975000226,
      "d": 145.83340625002165,
      "v": 86
    },
    {
      "midi": 77,
      "hit": false,
      "t": 112843.80642187726,
      "d": 166.6667500000185,
      "v": 86
    },
    {
      "midi": 70,
      "hit": false,
      "t": 112854.22309375227,
      "d": 107.63894270833407,
      "v": 97
    },
    {
      "midi": 82,
      "hit": false,
      "t": 112854.22309375227,
      "d": 163.19452604168328,
      "v": 104
    },
    {
      "midi": 44,
      "hit": false,
      "t": 112986.16760416895,
      "d": 52.08335937499942,
      "v": 97
    },
    {
      "midi": 56,
      "hit": false,
      "t": 112986.16760416895,
      "d": 52.08335937499942,
      "v": 97
    },
    {
      "midi": 72,
      "hit": false,
      "t": 113128.52878646062,
      "d": 38.19446354167303,
      "v": 86
    },
    {
      "midi": 84,
      "hit": false,
      "t": 113138.94545833563,
      "d": 45.13891145832895,
      "v": 91
    },
    {
      "midi": 82,
      "hit": false,
      "t": 113263.94552083562,
      "d": 62.500031250019674,
      "v": 104
    },
    {
      "midi": 56,
      "hit": false,
      "t": 113267.41774479396,
      "d": 52.08335937501397,
      "v": 91
    },
    {
      "midi": 61,
      "hit": false,
      "t": 113277.83441666896,
      "d": 38.19446354167303,
      "v": 91
    },
    {
      "midi": 65,
      "hit": false,
      "t": 113277.83441666896,
      "d": 52.08335937501397,
      "v": 91
    },
    {
      "midi": 70,
      "hit": false,
      "t": 113288.25108854397,
      "d": 24.30556770833209,
      "v": 104
    },
    {
      "midi": 61,
      "hit": false,
      "t": 113562.55678125232,
      "d": 62.50003125000512,
      "v": 104
    },
    {
      "midi": 49,
      "hit": false,
      "t": 113572.97345312733,
      "d": 45.13891145832895,
      "v": 104
    },
    {
      "midi": 92,
      "hit": false,
      "t": 113687.55684375233,
      "d": 173.61119791668898,
      "v": 104
    },
    {
      "midi": 85,
      "hit": false,
      "t": 113694.501291669,
      "d": 180.5556458333449,
      "v": 97
    },
    {
      "midi": 89,
      "hit": false,
      "t": 113701.44573958567,
      "d": 190.97231770833605,
      "v": 97
    },
    {
      "midi": 80,
      "hit": false,
      "t": 113708.39018750234,
      "d": 118.05561458333977,
      "v": 104
    },
    {
      "midi": 56,
      "hit": false,
      "t": 113840.33469791901,
      "d": 65.97225520834036,
      "v": 97
    },
    {
      "midi": 65,
      "hit": false,
      "t": 113843.80692187735,
      "d": 76.38892708333151,
      "v": 97
    },
    {
      "midi": 61,
      "hit": false,
      "t": 113850.75136979402,
      "d": 52.08335937499942,
      "v": 97
    },
    {
      "midi": 82,
      "hit": false,
      "t": 113993.11255208567,
      "d": 65.97225520834036,
      "v": 104
    },
    {
      "midi": 94,
      "hit": false,
      "t": 114003.52922396068,
      "d": 65.97225520834036,
      "v": 113
    },
    {
      "midi": 53,
      "hit": false,
      "t": 114132.00151041902,
      "d": 309.0279322916758,
      "v": 104
    },
    {
      "midi": 84,
      "hit": false,
      "t": 114288.25158854402,
      "d": 38.19446354167303,
      "v": 97
    },
    {
      "midi": 96,
      "hit": false,
      "t": 114291.72381250236,
      "d": 24.30556770833209,
      "v": 104
    },
    {
      "midi": 84,
      "hit": false,
      "t": 114364.64051562737,
      "d": 17.361119791661622,
      "v": 62
    },
    {
      "midi": 61,
      "hit": false,
      "t": 114392.41830729404,
      "d": 45.13891145832895,
      "v": 82
    },
    {
      "midi": 56,
      "hit": false,
      "t": 114395.89053125237,
      "d": 52.08335937499942,
      "v": 91
    },
    {
      "midi": 65,
      "hit": false,
      "t": 114402.83497916904,
      "d": 52.08335937499942,
      "v": 91
    },
    {
      "midi": 94,
      "hit": false,
      "t": 114420.1960989607,
      "d": 52.08335937499942,
      "v": 104
    },
    {
      "midi": 82,
      "hit": false,
      "t": 114423.66832291904,
      "d": 45.13891145832895,
      "v": 113
    },
    {
      "midi": 36,
      "hit": false,
      "t": 114729.22403125236,
      "d": 45.13891145832895,
      "v": 97
    },
    {
      "midi": 79,
      "hit": false,
      "t": 114847.27964583569,
      "d": 107.63894270833407,
      "v": 82
    },
    {
      "midi": 84,
      "hit": false,
      "t": 114892.41855729402,
      "d": 90.27782291667245,
      "v": 97
    },
    {
      "midi": 88,
      "hit": false,
      "t": 114927.14079687736,
      "d": 86.80559895833721,
      "v": 86
    },
    {
      "midi": 91,
      "hit": false,
      "t": 114965.33526041903,
      "d": 72.91670312501083,
      "v": 113
    },
    {
      "midi": 79,
      "hit": false,
      "t": 115000.05750000235,
      "d": 24.305567708346643,
      "v": 55
    },
    {
      "midi": 60,
      "hit": false,
      "t": 115010.47417187736,
      "d": 86.80559895836632,
      "v": 78
    },
    {
      "midi": 64,
      "hit": false,
      "t": 115020.89084375236,
      "d": 62.500031250019674,
      "v": 104
    },
    {
      "midi": 58,
      "hit": false,
      "t": 115024.3630677107,
      "d": 52.08335937501397,
      "v": 82
    },
    {
      "midi": 55,
      "hit": false,
      "t": 115031.30751562737,
      "d": 59.02780729168444,
      "v": 91
    },
    {
      "midi": 91,
      "hit": false,
      "t": 115270.8909687524,
      "d": 76.38892708334606,
      "v": 91
    },
    {
      "midi": 88,
      "hit": false,
      "t": 115274.36319271073,
      "d": 59.02780729166989,
      "v": 86
    },
    {
      "midi": 84,
      "hit": false,
      "t": 115281.3076406274,
      "d": 69.44447916667559,
      "v": 91
    },
    {
      "midi": 96,
      "hit": false,
      "t": 115288.25208854408,
      "d": 65.97225520834036,
      "v": 113
    },
    {
      "midi": 55,
      "hit": false,
      "t": 115302.1409843774,
      "d": 38.19446354167303,
      "v": 97
    },
    {
      "midi": 43,
      "hit": false,
      "t": 115312.55765625241,
      "d": 52.08335937501397,
      "v": 113
    },
    {
      "midi": 43,
      "hit": false,
      "t": 115395.89103125242,
      "d": 17.361119791661622,
      "v": 71
    },
    {
      "midi": 88,
      "hit": false,
      "t": 115572.97445312742,
      "d": 83.33337500001653,
      "v": 82
    },
    {
      "midi": 94,
      "hit": false,
      "t": 115576.44667708575,
      "d": 65.97225520834036,
      "v": 82
    },
    {
      "midi": 82,
      "hit": false,
      "t": 115586.86334896076,
      "d": 52.08335937499942,
      "v": 78
    },
    {
      "midi": 52,
      "hit": false,
      "t": 115590.3355729191,
      "d": 62.50003125000512,
      "v": 91
    },
    {
      "midi": 40,
      "hit": false,
      "t": 115597.28002083577,
      "d": 48.61113541666418,
      "v": 97
    },
    {
      "midi": 92,
      "hit": false,
      "t": 115864.64126562743,
      "d": 104.16671875002794,
      "v": 86
    },
    {
      "midi": 80,
      "hit": false,
      "t": 115875.05793750244,
      "d": 79.8611510416813,
      "v": 78
    },
    {
      "midi": 85,
      "hit": false,
      "t": 115878.53016146077,
      "d": 83.33337500001653,
      "v": 62
    },
    {
      "midi": 41,
      "hit": false,
      "t": 115892.41905729412,
      "d": 27.777791666667326,
      "v": 97
    },
    {
      "midi": 53,
      "hit": false,
      "t": 115902.83572916912,
      "d": 24.30556770833209,
      "v": 91
    },
    {
      "midi": 91,
      "hit": false,
      "t": 116145.89140625246,
      "d": 97.22227083335747,
      "v": 104
    },
    {
      "midi": 85,
      "hit": false,
      "t": 116156.30807812746,
      "d": 65.97225520834036,
      "v": 78
    },
    {
      "midi": 79,
      "hit": false,
      "t": 116156.30807812746,
      "d": 79.8611510416813,
      "v": 97
    },
    {
      "midi": 46,
      "hit": false,
      "t": 116163.25252604413,
      "d": 65.97225520834036,
      "v": 91
    },
    {
      "midi": 58,
      "hit": false,
      "t": 116177.14142187747,
      "d": 45.13891145832895,
      "v": 104
    },
    {
      "midi": 90,
      "hit": false,
      "t": 116444.50266666914,
      "d": 93.75004687500768,
      "v": 91
    },
    {
      "midi": 78,
      "hit": false,
      "t": 116447.97489062748,
      "d": 72.91670312499627,
      "v": 91
    },
    {
      "midi": 85,
      "hit": false,
      "t": 116461.8637864608,
      "d": 65.97225520834036,
      "v": 86
    },
    {
      "midi": 57,
      "hit": false,
      "t": 116465.33601041914,
      "d": 59.02780729166989,
      "v": 104
    },
    {
      "midi": 45,
      "hit": false,
      "t": 116472.28045833581,
      "d": 41.666687499993714,
      "v": 104
    },
    {
      "midi": 85,
      "hit": false,
      "t": 116732.69725521082,
      "d": 65.9722552083258,
      "v": 82
    },
    {
      "midi": 89,
      "hit": false,
      "t": 116736.16947916916,
      "d": 69.44447916666104,
      "v": 91
    },
    {
      "midi": 77,
      "hit": false,
      "t": 116746.58615104416,
      "d": 79.86115104166674,
      "v": 82
    },
    {
      "midi": 80,
      "hit": false,
      "t": 116746.58615104416,
      "d": 79.86115104166674,
      "v": 82
    },
    {
      "midi": 56,
      "hit": false,
      "t": 116763.94727083582,
      "d": 52.08335937499942,
      "v": 91
    },
    {
      "midi": 44,
      "hit": false,
      "t": 116763.94727083582,
      "d": 65.97225520834036,
      "v": 86
    },
    {
      "midi": 87,
      "hit": false,
      "t": 117020.8918437525,
      "d": 79.86115104169585,
      "v": 82
    },
    {
      "midi": 79,
      "hit": false,
      "t": 117031.3085156275,
      "d": 86.80559895836632,
      "v": 104
    },
    {
      "midi": 75,
      "hit": false,
      "t": 117041.72518750251,
      "d": 65.97225520835491,
      "v": 91
    },
    {
      "midi": 55,
      "hit": false,
      "t": 117048.66963541918,
      "d": 48.611135416678735,
      "v": 97
    },
    {
      "midi": 43,
      "hit": false,
      "t": 117052.14185937752,
      "d": 34.722239583337796,
      "v": 113
    },
    {
      "midi": 70,
      "hit": false,
      "t": 117326.44755208587,
      "d": 72.91670312502538,
      "v": 91
    },
    {
      "midi": 75,
      "hit": false,
      "t": 117326.44755208587,
      "d": 72.91670312502538,
      "v": 91
    },
    {
      "midi": 79,
      "hit": false,
      "t": 117326.44755208587,
      "d": 72.91670312502538,
      "v": 91
    },
    {
      "midi": 82,
      "hit": false,
      "t": 117333.39200000254,
      "d": 69.44447916669014,
      "v": 104
    },
    {
      "midi": 61,
      "hit": false,
      "t": 117336.86422396087,
      "d": 55.555583333349205,
      "v": 91
    },
    {
      "midi": 55,
      "hit": false,
      "t": 117347.28089583588,
      "d": 65.97225520835491,
      "v": 97
    },
    {
      "midi": 51,
      "hit": false,
      "t": 117357.69756771089,
      "d": 38.19446354167303,
      "v": 78
    },
    {
      "midi": 44,
      "hit": false,
      "t": 117611.16991666924,
      "d": 59.02780729166989,
      "v": 97
    },
    {
      "midi": 83,
      "hit": false,
      "t": 117621.58658854425,
      "d": 55.55558333333465,
      "v": 104
    },
    {
      "midi": 71,
      "hit": false,
      "t": 117625.05881250258,
      "d": 55.55558333333465,
      "v": 97
    },
    {
      "midi": 75,
      "hit": false,
      "t": 117625.05881250258,
      "d": 55.55558333333465,
      "v": 97
    },
    {
      "midi": 56,
      "hit": false,
      "t": 117632.00326041925,
      "d": 20.833343749996857,
      "v": 86
    },
    {
      "midi": 80,
      "hit": false,
      "t": 117760.47554687758,
      "d": 55.555583333349205,
      "v": 97
    },
    {
      "midi": 75,
      "hit": false,
      "t": 117763.94777083592,
      "d": 41.666687500008265,
      "v": 104
    },
    {
      "midi": 84,
      "hit": false,
      "t": 117770.89221875259,
      "d": 55.555583333349205,
      "v": 113
    },
    {
      "midi": 72,
      "hit": false,
      "t": 117774.36444271092,
      "d": 38.19446354167303,
      "v": 113
    },
    {
      "midi": 56,
      "hit": false,
      "t": 117888.94783333594,
      "d": 45.13891145832895,
      "v": 97
    },
    {
      "midi": 77,
      "hit": false,
      "t": 118024.36456771095,
      "d": 201.3889895833563,
      "v": 97
    },
    {
      "midi": 85,
      "hit": false,
      "t": 118027.83679166928,
      "d": 177.08342187500966,
      "v": 104
    },
    {
      "midi": 73,
      "hit": false,
      "t": 118038.25346354429,
      "d": 76.38892708333151,
      "v": 104
    },
    {
      "midi": 80,
      "hit": false,
      "t": 118052.14235937761,
      "d": 138.88895833335118,
      "v": 97
    },
    {
      "midi": 61,
      "hit": false,
      "t": 118170.19797396095,
      "d": 41.666687500008265,
      "v": 104
    },
    {
      "midi": 56,
      "hit": false,
      "t": 118170.19797396095,
      "d": 45.1389114583435,
      "v": 113
    },
    {
      "midi": 65,
      "hit": false,
      "t": 118177.14242187762,
      "d": 45.1389114583435,
      "v": 97
    },
    {
      "midi": 80,
      "hit": false,
      "t": 118524.36481771097,
      "d": 59.02780729168444,
      "v": 86
    },
    {
      "midi": 68,
      "hit": false,
      "t": 118527.8370416693,
      "d": 52.08335937501397,
      "v": 97
    },
    {
      "midi": 44,
      "hit": false,
      "t": 118538.25371354431,
      "d": 55.555583333349205,
      "v": 91
    },
    {
      "midi": 56,
      "hit": false,
      "t": 118545.19816146098,
      "d": 41.666687500008265,
      "v": 104
    },
    {
      "midi": 68,
      "hit": false,
      "t": 118673.67044791933,
      "d": 45.13891145832895,
      "v": 104
    },
    {
      "midi": 80,
      "hit": false,
      "t": 118673.67044791933,
      "d": 45.13891145832895,
      "v": 97
    },
    {
      "midi": 80,
      "hit": false,
      "t": 118788.25383854432,
      "d": 62.50003125000512,
      "v": 91
    },
    {
      "midi": 68,
      "hit": false,
      "t": 118798.67051041932,
      "d": 48.61113541666418,
      "v": 104
    },
    {
      "midi": 65,
      "hit": false,
      "t": 118812.55940625265,
      "d": 48.611135416678735,
      "v": 97
    },
    {
      "midi": 53,
      "hit": false,
      "t": 118822.97607812766,
      "d": 31.25001562500256,
      "v": 104
    },
    {
      "midi": 80,
      "hit": false,
      "t": 119107.698442711,
      "d": 65.97225520835491,
      "v": 104
    },
    {
      "midi": 68,
      "hit": false,
      "t": 119114.64289062767,
      "d": 41.666687500008265,
      "v": 113
    },
    {
      "midi": 64,
      "hit": false,
      "t": 119121.58733854434,
      "d": 45.1389114583435,
      "v": 113
    },
    {
      "midi": 52,
      "hit": false,
      "t": 119125.05956250268,
      "d": 38.19446354167303,
      "v": 113
    },
    {
      "midi": 80,
      "hit": false,
      "t": 119447.9763906277,
      "d": 145.8334062500071,
      "v": 91
    },
    {
      "midi": 75,
      "hit": false,
      "t": 119461.86528646102,
      "d": 149.30563020834234,
      "v": 82
    },
    {
      "midi": 78,
      "hit": false,
      "t": 119465.33751041935,
      "d": 142.36118229167187,
      "v": 86
    },
    {
      "midi": 68,
      "hit": false,
      "t": 119472.28195833603,
      "d": 72.91670312499627,
      "v": 104
    },
    {
      "midi": 72,
      "hit": false,
      "t": 119475.75418229436,
      "d": 86.80559895833721,
      "v": 113
    },
    {
      "midi": 63,
      "hit": false,
      "t": 119479.2264062527,
      "d": 72.91670312499627,
      "v": 113
    },
    {
      "midi": 51,
      "hit": false,
      "t": 119479.2264062527,
      "d": 76.38892708333151,
      "v": 91
    },
    {
      "midi": 66,
      "hit": false,
      "t": 119774.36544271103,
      "d": 52.08335937501397,
      "v": 97
    },
    {
      "midi": 56,
      "hit": false,
      "t": 119777.83766666937,
      "d": 62.50003125000512,
      "v": 86
    },
    {
      "midi": 60,
      "hit": false,
      "t": 119788.25433854437,
      "d": 59.02780729166989,
      "v": 91
    },
    {
      "midi": 82,
      "hit": false,
      "t": 119902.83772916938,
      "d": 187.50009375000081,
      "v": 91
    },
    {
      "midi": 75,
      "hit": false,
      "t": 119906.30995312771,
      "d": 180.55564583333035,
      "v": 86
    },
    {
      "midi": 78,
      "hit": false,
      "t": 119916.72662500272,
      "d": 177.0834218749951,
      "v": 82
    },
    {
      "midi": 70,
      "hit": false,
      "t": 119920.19884896105,
      "d": 125.00006249999569,
      "v": 104
    },
    {
      "midi": 44,
      "hit": false,
      "t": 120062.56003125271,
      "d": 62.50003125000512,
      "v": 91
    },
    {
      "midi": 56,
      "hit": false,
      "t": 120066.03225521104,
      "d": 52.08335937499942,
      "v": 104
    },
    {
      "midi": 72,
      "hit": false,
      "t": 120218.81010937771,
      "d": 45.13891145832895,
      "v": 82
    },
    {
      "midi": 82,
      "hit": false,
      "t": 120329.92127604438,
      "d": 62.500031250019674,
      "v": 97
    },
    {
      "midi": 70,
      "hit": false,
      "t": 120340.33794791938,
      "d": 45.1389114583435,
      "v": 104
    },
    {
      "midi": 66,
      "hit": false,
      "t": 120343.81017187772,
      "d": 79.8611510416813,
      "v": 82
    },
    {
      "midi": 56,
      "hit": false,
      "t": 120354.22684375272,
      "d": 76.38892708334606,
      "v": 82
    },
    {
      "midi": 60,
      "hit": false,
      "t": 120361.1712916694,
      "d": 76.38892708334606,
      "v": 86
    },
    {
      "midi": 63,
      "hit": false,
      "t": 120638.94920833607,
      "d": 111.1111666666693,
      "v": 97
    },
    {
      "midi": 51,
      "hit": false,
      "t": 120645.89365625274,
      "d": 83.33337500000198,
      "v": 97
    },
    {
      "midi": 87,
      "hit": false,
      "t": 120781.31039062774,
      "d": 170.1389739583392,
      "v": 91
    },
    {
      "midi": 92,
      "hit": false,
      "t": 120788.25483854441,
      "d": 166.66675000000396,
      "v": 97
    },
    {
      "midi": 80,
      "hit": false,
      "t": 120795.19928646108,
      "d": 131.94451041666616,
      "v": 113
    },
    {
      "midi": 84,
      "hit": false,
      "t": 120798.67151041942,
      "d": 163.19452604166872,
      "v": 104
    },
    {
      "midi": 66,
      "hit": false,
      "t": 120913.2549010444,
      "d": 59.02780729168444,
      "v": 97
    },
    {
      "midi": 56,
      "hit": false,
      "t": 120916.72712500274,
      "d": 62.500031250019674,
      "v": 86
    },
    {
      "midi": 60,
      "hit": false,
      "t": 120923.67157291941,
      "d": 41.666687500008265,
      "v": 91
    },
    {
      "midi": 94,
      "hit": false,
      "t": 121083.39387500276,
      "d": 65.97225520834036,
      "v": 104
    },
    {
      "midi": 82,
      "hit": false,
      "t": 121086.8660989611,
      "d": 55.55558333333465,
      "v": 104
    },
    {
      "midi": 44,
      "hit": false,
      "t": 121187.56059375277,
      "d": 55.55558333333465,
      "v": 97
    },
    {
      "midi": 56,
      "hit": false,
      "t": 121191.03281771111,
      "d": 45.13891145832895,
      "v": 104
    },
    {
      "midi": 84,
      "hit": false,
      "t": 121354.22734375278,
      "d": 38.19446354167303,
      "v": 91
    },
    {
      "midi": 96,
      "hit": false,
      "t": 121357.69956771111,
      "d": 31.25001562500256,
      "v": 113
    },
    {
      "midi": 54,
      "hit": false,
      "t": 121468.81073437778,
      "d": 48.61113541666418,
      "v": 104
    },
    {
      "midi": 42,
      "hit": false,
      "t": 121472.28295833612,
      "d": 55.55558333333465,
      "v": 91
    },
    {
      "midi": 94,
      "hit": false,
      "t": 121489.64407812778,
      "d": 34.722239583337796,
      "v": 97
    },
    {
      "midi": 82,
      "hit": false,
      "t": 121493.11630208611,
      "d": 38.19446354167303,
      "v": 104
    },
    {
      "midi": 41,
      "hit": false,
      "t": 121770.89421875279,
      "d": 41.666687500008265,
      "v": 104
    },
    {
      "midi": 53,
      "hit": false,
      "t": 121781.31089062779,
      "d": 38.19446354167303,
      "v": 97
    },
    {
      "midi": 80,
      "hit": false,
      "t": 121899.36650521113,
      "d": 184.02786979169468,
      "v": 91
    },
    {
      "midi": 73,
      "hit": false,
      "t": 121909.78317708614,
      "d": 163.19452604168328,
      "v": 91
    },
    {
      "midi": 68,
      "hit": false,
      "t": 121913.25540104447,
      "d": 135.4167343750014,
      "v": 104
    },
    {
      "midi": 77,
      "hit": false,
      "t": 121920.19984896114,
      "d": 180.5556458333449,
      "v": 91
    },
    {
      "midi": 56,
      "hit": false,
      "t": 122052.14435937781,
      "d": 69.44447916667559,
      "v": 86
    },
    {
      "midi": 61,
      "hit": false,
      "t": 122059.08880729448,
      "d": 62.50003125000512,
      "v": 86
    },
    {
      "midi": 65,
      "hit": false,
      "t": 122069.50547916949,
      "d": 55.55558333333465,
      "v": 91
    },
    {
      "midi": 73,
      "hit": false,
      "t": 122170.19997396115,
      "d": 142.36118229167187,
      "v": 91
    },
    {
      "midi": 77,
      "hit": false,
      "t": 122177.14442187782,
      "d": 163.19452604166872,
      "v": 25
    },
    {
      "midi": 82,
      "hit": false,
      "t": 122187.56109375283,
      "d": 156.25007812499825,
      "v": 104
    },
    {
      "midi": 70,
      "hit": false,
      "t": 122194.5055416695,
      "d": 93.75004687499313,
      "v": 104
    },
    {
      "midi": 56,
      "hit": false,
      "t": 122326.45005208615,
      "d": 52.08335937501397,
      "v": 104
    },
    {
      "midi": 44,
      "hit": false,
      "t": 122336.86672396115,
      "d": 48.611135416678735,
      "v": 91
    },
    {
      "midi": 72,
      "hit": false,
      "t": 122472.28345833617,
      "d": 38.19446354167303,
      "v": 86
    },
    {
      "midi": 84,
      "hit": false,
      "t": 122479.22790625284,
      "d": 34.722239583337796,
      "v": 86
    },
    {
      "midi": 82,
      "hit": false,
      "t": 122597.28352083618,
      "d": 59.02780729168444,
      "v": 104
    },
    {
      "midi": 70,
      "hit": false,
      "t": 122600.75574479451,
      "d": 48.611135416678735,
      "v": 113
    },
    {
      "midi": 56,
      "hit": false,
      "t": 122611.17241666952,
      "d": 55.555583333349205,
      "v": 91
    },
    {
      "midi": 61,
      "hit": false,
      "t": 122621.58908854453,
      "d": 41.666687500008265,
      "v": 97
    },
    {
      "midi": 65,
      "hit": false,
      "t": 122628.5335364612,
      "d": 45.1389114583435,
      "v": 97
    },
    {
      "midi": 61,
      "hit": false,
      "t": 122902.83922916955,
      "d": 93.75004687499313,
      "v": 113
    },
    {
      "midi": 49,
      "hit": false,
      "t": 122913.25590104455,
      "d": 69.44447916666104,
      "v": 104
    },
    {
      "midi": 92,
      "hit": false,
      "t": 123024.36706771121,
      "d": 177.08342187502421,
      "v": 97
    },
    {
      "midi": 85,
      "hit": false,
      "t": 123027.83929166954,
      "d": 190.97231770836515,
      "v": 86
    },
    {
      "midi": 80,
      "hit": false,
      "t": 123038.25596354455,
      "d": 125.00006250001024,
      "v": 97
    },
    {
      "midi": 89,
      "hit": false,
      "t": 123041.72818750289,
      "d": 187.50009375002992,
      "v": 97
    },
    {
      "midi": 56,
      "hit": false,
      "t": 123187.5615937529,
      "d": 83.33337500003108,
      "v": 91
    },
    {
      "midi": 61,
      "hit": false,
      "t": 123191.03381771123,
      "d": 76.38892708336061,
      "v": 97
    },
    {
      "midi": 65,
      "hit": false,
      "t": 123208.3949375029,
      "d": 72.91670312502538,
      "v": 104
    },
    {
      "midi": 94,
      "hit": false,
      "t": 123354.22834375293,
      "d": 69.44447916667559,
      "v": 104
    },
    {
      "midi": 82,
      "hit": false,
      "t": 123357.70056771126,
      "d": 55.55558333333465,
      "v": 104
    },
    {
      "midi": 53,
      "hit": false,
      "t": 123461.86728646127,
      "d": 315.9723802083463,
      "v": 104
    },
    {
      "midi": 96,
      "hit": false,
      "t": 123628.53403646128,
      "d": 27.777791666667326,
      "v": 104
    },
    {
      "midi": 84,
      "hit": false,
      "t": 123638.95070833628,
      "d": 34.722239583323244,
      "v": 78
    },
    {
      "midi": 56,
      "hit": false,
      "t": 123739.64520312795,
      "d": 79.8611510416813,
      "v": 86
    },
    {
      "midi": 61,
      "hit": false,
      "t": 123746.58965104462,
      "d": 59.02780729166989,
      "v": 82
    },
    {
      "midi": 65,
      "hit": false,
      "t": 123753.53409896129,
      "d": 62.50003125000512,
      "v": 91
    },
    {
      "midi": 82,
      "hit": false,
      "t": 123760.47854687796,
      "d": 38.19446354165848,
      "v": 104
    },
    {
      "midi": 94,
      "hit": false,
      "t": 123760.47854687796,
      "d": 48.61113541666418,
      "v": 97
    },
    {
      "midi": 63,
      "hit": false,
      "t": 124059.08980729463,
      "d": 62.50003125000512,
      "v": 104
    },
    {
      "midi": 51,
      "hit": false,
      "t": 124062.56203125296,
      "d": 55.55558333333465,
      "v": 91
    },
    {
      "midi": 80,
      "hit": false,
      "t": 124326.4510520863,
      "d": 83.33337500003108,
      "v": 86
    },
    {
      "midi": 56,
      "hit": false,
      "t": 124329.92327604463,
      "d": 62.500031250019674,
      "v": 82
    },
    {
      "midi": 66,
      "hit": false,
      "t": 124340.33994791964,
      "d": 41.666687500008265,
      "v": 74
    },
    {
      "midi": 70,
      "hit": false,
      "t": 124340.33994791964,
      "d": 55.555583333349205,
      "v": 91
    },
    {
      "midi": 78,
      "hit": false,
      "t": 124340.33994791964,
      "d": 65.97225520835491,
      "v": 82
    },
    {
      "midi": 60,
      "hit": false,
      "t": 124343.81217187797,
      "d": 55.555583333349205,
      "v": 86
    },
    {
      "midi": 78,
      "hit": false,
      "t": 124632.00676041967,
      "d": 93.75004687500768,
      "v": 86
    },
    {
      "midi": 80,
      "hit": false,
      "t": 124635.478984378,
      "d": 100.69449479167815,
      "v": 82
    },
    {
      "midi": 72,
      "hit": false,
      "t": 124645.89565625301,
      "d": 83.33337500000198,
      "v": 104
    },
    {
      "midi": 44,
      "hit": false,
      "t": 124656.31232812801,
      "d": 34.722239583323244,
      "v": 97
    },
    {
      "midi": 56,
      "hit": false,
      "t": 124673.67344791967,
      "d": 27.777791666667326,
      "v": 86
    },
    {
      "midi": 80,
      "hit": false,
      "t": 124920.20134896135,
      "d": 93.75004687502224,
      "v": 86
    },
    {
      "midi": 73,
      "hit": false,
      "t": 124923.67357291968,
      "d": 59.02780729168444,
      "v": 91
    },
    {
      "midi": 78,
      "hit": false,
      "t": 124930.61802083635,
      "d": 59.02780729168444,
      "v": 86
    },
    {
      "midi": 56,
      "hit": false,
      "t": 124941.03469271136,
      "d": 69.44447916667559,
      "v": 86
    },
    {
      "midi": 60,
      "hit": false,
      "t": 124947.97914062803,
      "d": 72.91670312501083,
      "v": 97
    },
    {
      "midi": 66,
      "hit": false,
      "t": 124958.39581250303,
      "d": 48.61113541666418,
      "v": 97
    },
    {
      "midi": 63,
      "hit": false,
      "t": 125232.70150521137,
      "d": 59.02780729166989,
      "v": 104
    },
    {
      "midi": 51,
      "hit": false,
      "t": 125236.1737291697,
      "d": 62.50003125000512,
      "v": 97
    },
    {
      "midi": 82,
      "hit": false,
      "t": 125243.11817708638,
      "d": 72.91670312499627,
      "v": 97
    },
    {
      "midi": 80,
      "hit": false,
      "t": 125361.1737916697,
      "d": 83.33337500001653,
      "v": 97
    },
    {
      "midi": 78,
      "hit": false,
      "t": 125371.59046354471,
      "d": 62.50003125000512,
      "v": 91
    },
    {
      "midi": 72,
      "hit": false,
      "t": 125378.53491146138,
      "d": 62.50003125000512,
      "v": 104
    },
    {
      "midi": 56,
      "hit": false,
      "t": 125489.64607812805,
      "d": 76.38892708334606,
      "v": 82
    },
    {
      "midi": 60,
      "hit": false,
      "t": 125493.11830208638,
      "d": 83.33337500001653,
      "v": 97
    },
    {
      "midi": 66,
      "hit": false,
      "t": 125507.00719791972,
      "d": 52.08335937499942,
      "v": 104
    },
    {
      "midi": 82,
      "hit": false,
      "t": 125652.84060416973,
      "d": 142.36118229167187,
      "v": 91
    },
    {
      "midi": 80,
      "hit": false,
      "t": 125732.7017552114,
      "d": 125.0000625000248,
      "v": 91
    },
    {
      "midi": 73,
      "hit": false,
      "t": 125739.64620312807,
      "d": 93.75004687500768,
      "v": 91
    },
    {
      "midi": 77,
      "hit": false,
      "t": 125760.47954687806,
      "d": 90.277822916687,
      "v": 82
    },
    {
      "midi": 56,
      "hit": false,
      "t": 125774.36844271139,
      "d": 62.500031250019674,
      "v": 97
    },
    {
      "midi": 65,
      "hit": false,
      "t": 125784.7851145864,
      "d": 59.02780729168444,
      "v": 91
    },
    {
      "midi": 82,
      "hit": false,
      "t": 125954.92408854475,
      "d": 138.88895833335118,
      "v": 86
    },
    {
      "midi": 80,
      "hit": false,
      "t": 126038.25746354475,
      "d": 107.63894270836317,
      "v": 104
    },
    {
      "midi": 63,
      "hit": false,
      "t": 126062.56303125308,
      "d": 52.08335937501397,
      "v": 104
    },
    {
      "midi": 56,
      "hit": false,
      "t": 126062.56303125308,
      "d": 55.555583333349205,
      "v": 104
    },
    {
      "midi": 78,
      "hit": false,
      "t": 126072.97970312809,
      "d": 55.555583333349205,
      "v": 97
    },
    {
      "midi": 75,
      "hit": false,
      "t": 126076.45192708643,
      "d": 48.611135416678735,
      "v": 97
    },
    {
      "midi": 72,
      "hit": false,
      "t": 126083.3963750031,
      "d": 55.555583333349205,
      "v": 97
    },
    {
      "midi": 49,
      "hit": false,
      "t": 126364.64651562812,
      "d": 59.02780729166989,
      "v": 91
    },
    {
      "midi": 61,
      "hit": false,
      "t": 126368.11873958645,
      "d": 52.08335937499942,
      "v": 113
    },
    {
      "midi": 80,
      "hit": false,
      "t": 126632.00776041979,
      "d": 93.75004687503679,
      "v": 78
    },
    {
      "midi": 70,
      "hit": false,
      "t": 126642.42443229479,
      "d": 72.91670312502538,
      "v": 91
    },
    {
      "midi": 77,
      "hit": false,
      "t": 126656.31332812813,
      "d": 69.44447916669014,
      "v": 91
    },
    {
      "midi": 61,
      "hit": false,
      "t": 126659.78555208647,
      "d": 41.666687500008265,
      "v": 86
    },
    {
      "midi": 56,
      "hit": false,
      "t": 126670.20222396147,
      "d": 38.19446354167303,
      "v": 97
    },
    {
      "midi": 65,
      "hit": false,
      "t": 126673.67444791981,
      "d": 31.25001562500256,
      "v": 86
    },
    {
      "midi": 80,
      "hit": false,
      "t": 126937.56346875316,
      "d": 93.75004687500768,
      "v": 78
    },
    {
      "midi": 77,
      "hit": false,
      "t": 126947.98014062816,
      "d": 86.80559895833721,
      "v": 86
    },
    {
      "midi": 72,
      "hit": false,
      "t": 126951.4523645865,
      "d": 69.44447916666104,
      "v": 97
    },
    {
      "midi": 44,
      "hit": false,
      "t": 126961.8690364615,
      "d": 41.666687499993714,
      "v": 91
    },
    {
      "midi": 56,
      "hit": false,
      "t": 126961.8690364615,
      "d": 45.13891145832895,
      "v": 97
    },
    {
      "midi": 80,
      "hit": false,
      "t": 127225.75805729484,
      "d": 93.75004687502224,
      "v": 91
    },
    {
      "midi": 73,
      "hit": false,
      "t": 127232.7025052115,
      "d": 55.55558333333465,
      "v": 91
    },
    {
      "midi": 77,
      "hit": false,
      "t": 127239.64695312818,
      "d": 59.02780729166989,
      "v": 82
    },
    {
      "midi": 61,
      "hit": false,
      "t": 127243.11917708651,
      "d": 62.50003125000512,
      "v": 82
    },
    {
      "midi": 56,
      "hit": false,
      "t": 127243.11917708651,
      "d": 65.97225520834036,
      "v": 91
    },
    {
      "midi": 65,
      "hit": false,
      "t": 127257.00807291984,
      "d": 55.555583333349205,
      "v": 86
    },
    {
      "midi": 82,
      "hit": false,
      "t": 127517.42486979486,
      "d": 79.86115104166674,
      "v": 91
    },
    {
      "midi": 49,
      "hit": false,
      "t": 127538.25821354486,
      "d": 55.55558333333465,
      "v": 91
    },
    {
      "midi": 61,
      "hit": false,
      "t": 127541.7304375032,
      "d": 45.13891145832895,
      "v": 104
    },
    {
      "midi": 80,
      "hit": false,
      "t": 127628.53603646153,
      "d": 97.22227083332837,
      "v": 104
    },
    {
      "midi": 73,
      "hit": false,
      "t": 127645.8971562532,
      "d": 55.55558333333465,
      "v": 97
    },
    {
      "midi": 77,
      "hit": false,
      "t": 127656.3138281282,
      "d": 41.666687499993714,
      "v": 86
    },
    {
      "midi": 61,
      "hit": false,
      "t": 127798.67501041986,
      "d": 48.611135416678735,
      "v": 91
    },
    {
      "midi": 56,
      "hit": false,
      "t": 127802.1472343782,
      "d": 48.611135416678735,
      "v": 97
    },
    {
      "midi": 65,
      "hit": false,
      "t": 127805.61945833653,
      "d": 38.19446354167303,
      "v": 91
    },
    {
      "midi": 80,
      "hit": false,
      "t": 127951.45286458654,
      "d": 45.13891145832895,
      "v": 86
    },
    {
      "midi": 77,
      "hit": false,
      "t": 127965.34176041986,
      "d": 31.25001562500256,
      "v": 82
    },
    {
      "midi": 89,
      "hit": false,
      "t": 127972.28620833653,
      "d": 31.25001562500256,
      "v": 86
    },
    {
      "midi": 77,
      "hit": false,
      "t": 128034.78623958654,
      "d": 24.30556770833209,
      "v": 65
    },
    {
      "midi": 89,
      "hit": false,
      "t": 128038.25846354487,
      "d": 24.30556770833209,
      "v": 71
    },
    {
      "midi": 54,
      "hit": false,
      "t": 128072.98070312821,
      "d": 55.555583333349205,
      "v": 82
    },
    {
      "midi": 44,
      "hit": false,
      "t": 128079.92515104488,
      "d": 52.08335937501397,
      "v": 97
    },
    {
      "midi": 87,
      "hit": false,
      "t": 128086.86959896155,
      "d": 59.02780729168444,
      "v": 97
    },
    {
      "midi": 75,
      "hit": false,
      "t": 128097.28627083656,
      "d": 41.666687500008265,
      "v": 104
    },
    {
      "midi": 78,
      "hit": false,
      "t": 128104.23071875323,
      "d": 31.25001562500256,
      "v": 91
    },
    {
      "midi": 73,
      "hit": false,
      "t": 128371.59196354491,
      "d": 59.02780729166989,
      "v": 104
    },
    {
      "midi": 77,
      "hit": false,
      "t": 128378.53641146158,
      "d": 62.50003125000512,
      "v": 97
    },
    {
      "midi": 85,
      "hit": false,
      "t": 128385.48085937825,
      "d": 48.61113541666418,
      "v": 97
    },
    {
      "midi": 53,
      "hit": false,
      "t": 128388.95308333659,
      "d": 59.02780729166989,
      "v": 97
    },
    {
      "midi": 44,
      "hit": false,
      "t": 128402.84197916991,
      "d": 24.30556770833209,
      "v": 65
    },
    {
      "midi": 44,
      "hit": false,
      "t": 128673.67544791993,
      "d": 62.500031250019674,
      "v": 91
    },
    {
      "midi": 80,
      "hit": false,
      "t": 128677.14767187827,
      "d": 114.58339062501909,
      "v": 97
    },
    {
      "midi": 75,
      "hit": false,
      "t": 128687.56434375327,
      "d": 76.38892708334606,
      "v": 86
    },
    {
      "midi": 68,
      "hit": false,
      "t": 128694.50879166994,
      "d": 48.611135416678735,
      "v": 104
    },
    {
      "midi": 72,
      "hit": false,
      "t": 128694.50879166994,
      "d": 72.91670312501083,
      "v": 104
    },
    {
      "midi": 56,
      "hit": false,
      "t": 128697.98101562828,
      "d": 41.666687500008265,
      "v": 104
    },
    {
      "midi": 66,
      "hit": false,
      "t": 128961.87003646162,
      "d": 59.02780729166989,
      "v": 91
    },
    {
      "midi": 60,
      "hit": false,
      "t": 128965.34226041996,
      "d": 76.38892708334606,
      "v": 91
    },
    {
      "midi": 56,
      "hit": false,
      "t": 128972.28670833663,
      "d": 62.50003125000512,
      "v": 91
    },
    {
      "midi": 82,
      "hit": false,
      "t": 129093.8145468783,
      "d": 173.61119791667443,
      "v": 97
    },
    {
      "midi": 75,
      "hit": false,
      "t": 129097.28677083664,
      "d": 163.19452604166872,
      "v": 97
    },
    {
      "midi": 78,
      "hit": false,
      "t": 129104.23121875331,
      "d": 159.7223020833335,
      "v": 91
    },
    {
      "midi": 70,
      "hit": false,
      "t": 129107.70344271165,
      "d": 121.52783854166046,
      "v": 104
    },
    {
      "midi": 44,
      "hit": false,
      "t": 129239.64795312831,
      "d": 48.61113541666418,
      "v": 97
    },
    {
      "midi": 84,
      "hit": false,
      "t": 129375.06468750331,
      "d": 34.722239583323244,
      "v": 97
    },
    {
      "midi": 72,
      "hit": false,
      "t": 129388.95358333664,
      "d": 31.25001562500256,
      "v": 91
    },
    {
      "midi": 84,
      "hit": false,
      "t": 129447.98139062831,
      "d": 20.833343749996857,
      "v": 62
    },
    {
      "midi": 82,
      "hit": false,
      "t": 129507.00919791998,
      "d": 62.50003125000512,
      "v": 97
    },
    {
      "midi": 70,
      "hit": false,
      "t": 129513.95364583665,
      "d": 48.61113541666418,
      "v": 113
    },
    {
      "midi": 60,
      "hit": false,
      "t": 129538.25921354498,
      "d": 48.611135416678735,
      "v": 91
    },
    {
      "midi": 66,
      "hit": false,
      "t": 129538.25921354498,
      "d": 48.611135416678735,
      "v": 91
    },
    {
      "midi": 56,
      "hit": false,
      "t": 129548.67588541999,
      "d": 31.25001562500256,
      "v": 86
    },
    {
      "midi": 63,
      "hit": false,
      "t": 129805.62045833666,
      "d": 65.97225520834036,
      "v": 97
    },
    {
      "midi": 51,
      "hit": false,
      "t": 129809.092682295,
      "d": 65.97225520834036,
      "v": 97
    },
    {
      "midi": 92,
      "hit": false,
      "t": 129930.62052083667,
      "d": 180.55564583335945,
      "v": 91
    },
    {
      "midi": 84,
      "hit": false,
      "t": 129934.09274479501,
      "d": 166.6667500000185,
      "v": 104
    },
    {
      "midi": 87,
      "hit": false,
      "t": 129941.03719271168,
      "d": 163.19452604168328,
      "v": 78
    },
    {
      "midi": 80,
      "hit": false,
      "t": 129944.50941667001,
      "d": 118.05561458333977,
      "v": 97
    },
    {
      "midi": 56,
      "hit": false,
      "t": 130066.03725521169,
      "d": 65.97225520834036,
      "v": 86
    },
    {
      "midi": 66,
      "hit": false,
      "t": 130069.50947917002,
      "d": 48.611135416678735,
      "v": 97
    },
    {
      "midi": 60,
      "hit": false,
      "t": 130076.4539270867,
      "d": 55.55558333333465,
      "v": 97
    },
    {
      "midi": 82,
      "hit": false,
      "t": 130236.17622917003,
      "d": 55.55558333333465,
      "v": 104
    },
    {
      "midi": 94,
      "hit": false,
      "t": 130239.64845312836,
      "d": 55.55558333333465,
      "v": 104
    },
    {
      "midi": 44,
      "hit": false,
      "t": 130343.81517187836,
      "d": 52.08335937501397,
      "v": 91
    },
    {
      "midi": 56,
      "hit": false,
      "t": 130350.75961979503,
      "d": 38.19446354167303,
      "v": 97
    },
    {
      "midi": 84,
      "hit": false,
      "t": 130517.42636979504,
      "d": 38.19446354167303,
      "v": 91
    },
    {
      "midi": 96,
      "hit": false,
      "t": 130520.89859375337,
      "d": 24.30556770833209,
      "v": 97
    },
    {
      "midi": 42,
      "hit": false,
      "t": 130625.06531250337,
      "d": 59.02780729166989,
      "v": 97
    },
    {
      "midi": 54,
      "hit": false,
      "t": 130628.5375364617,
      "d": 45.13891145832895,
      "v": 97
    },
    {
      "midi": 94,
      "hit": false,
      "t": 130649.3708802117,
      "d": 38.19446354167303,
      "v": 97
    },
    {
      "midi": 82,
      "hit": false,
      "t": 130659.78755208671,
      "d": 31.25001562500256,
      "v": 97
    },
    {
      "midi": 41,
      "hit": false,
      "t": 130934.09324479505,
      "d": 59.02780729166989,
      "v": 104
    },
    {
      "midi": 53,
      "hit": false,
      "t": 130944.50991667005,
      "d": 52.08335937499942,
      "v": 113
    },
    {
      "midi": 80,
      "hit": false,
      "t": 131062.56553125339,
      "d": 166.6667499999603,
      "v": 91
    },
    {
      "midi": 73,
      "hit": false,
      "t": 131066.03775521173,
      "d": 135.4167343750014,
      "v": 91
    },
    {
      "midi": 68,
      "hit": false,
      "t": 131072.9822031284,
      "d": 107.63894270831952,
      "v": 104
    },
    {
      "midi": 77,
      "hit": false,
      "t": 131076.45442708672,
      "d": 170.13897395829554,
      "v": 97
    },
    {
      "midi": 61,
      "hit": false,
      "t": 131211.87116146172,
      "d": 52.08335937495576,
      "v": 91
    },
    {
      "midi": 56,
      "hit": false,
      "t": 131215.34338542004,
      "d": 41.66668749996461,
      "v": 97
    },
    {
      "midi": 65,
      "hit": false,
      "t": 131225.76005729503,
      "d": 45.138911458314396,
      "v": 97
    },
    {
      "midi": 73,
      "hit": false,
      "t": 131333.39900000335,
      "d": 145.83340624996345,
      "v": 86
    },
    {
      "midi": 77,
      "hit": false,
      "t": 131343.81567187834,
      "d": 166.66674999997485,
      "v": 86
    },
    {
      "midi": 70,
      "hit": false,
      "t": 131354.23234375333,
      "d": 107.63894270831952,
      "v": 97
    },
    {
      "midi": 82,
      "hit": false,
      "t": 131354.23234375333,
      "d": 163.19452604165417,
      "v": 104
    },
    {
      "midi": 44,
      "hit": false,
      "t": 131486.17685417,
      "d": 52.08335937501397,
      "v": 97
    },
    {
      "midi": 56,
      "hit": false,
      "t": 131486.17685417,
      "d": 52.08335937501397,
      "v": 97
    },
    {
      "midi": 72,
      "hit": false,
      "t": 131628.53803646166,
      "d": 38.19446354164393,
      "v": 86
    },
    {
      "midi": 84,
      "hit": false,
      "t": 131638.95470833665,
      "d": 45.138911458314396,
      "v": 91
    },
    {
      "midi": 82,
      "hit": false,
      "t": 131763.95477083663,
      "d": 62.500031249946915,
      "v": 104
    },
    {
      "midi": 56,
      "hit": false,
      "t": 131767.42699479495,
      "d": 52.08335937495576,
      "v": 91
    },
    {
      "midi": 61,
      "hit": false,
      "t": 131777.84366666994,
      "d": 38.19446354164393,
      "v": 91
    },
    {
      "midi": 65,
      "hit": false,
      "t": 131777.84366666994,
      "d": 52.08335937495576,
      "v": 91
    },
    {
      "midi": 70,
      "hit": false,
      "t": 131788.26033854493,
      "d": 24.30556770833209,
      "v": 104
    },
    {
      "midi": 61,
      "hit": false,
      "t": 132062.56603125323,
      "d": 62.50003125000512,
      "v": 104
    },
    {
      "midi": 49,
      "hit": false,
      "t": 132072.98270312822,
      "d": 45.1389114583435,
      "v": 104
    },
    {
      "midi": 92,
      "hit": false,
      "t": 132187.56609375324,
      "d": 173.61119791664532,
      "v": 104
    },
    {
      "midi": 85,
      "hit": false,
      "t": 132194.51054166988,
      "d": 180.5556458333449,
      "v": 97
    },
    {
      "midi": 89,
      "hit": false,
      "t": 132201.45498958655,
      "d": 190.97231770833605,
      "v": 97
    },
    {
      "midi": 80,
      "hit": false,
      "t": 132208.39943750322,
      "d": 118.05561458333977,
      "v": 104
    },
    {
      "midi": 56,
      "hit": false,
      "t": 132340.3439479199,
      "d": 65.9722552082967,
      "v": 97
    },
    {
      "midi": 65,
      "hit": false,
      "t": 132343.81617187822,
      "d": 76.38892708331696,
      "v": 97
    },
    {
      "midi": 61,
      "hit": false,
      "t": 132350.7606197949,
      "d": 52.083359374984866,
      "v": 97
    },
    {
      "midi": 82,
      "hit": false,
      "t": 132493.12180208653,
      "d": 65.9722552083258,
      "v": 104
    },
    {
      "midi": 94,
      "hit": false,
      "t": 132503.53847396153,
      "d": 65.9722552083258,
      "v": 113
    },
    {
      "midi": 53,
      "hit": false,
      "t": 132632.01076041986,
      "d": 309.0279322916176,
      "v": 104
    },
    {
      "midi": 84,
      "hit": false,
      "t": 132788.26083854487,
      "d": 38.19446354164393,
      "v": 97
    },
    {
      "midi": 96,
      "hit": false,
      "t": 132791.7330625032,
      "d": 24.30556770833209,
      "v": 104
    },
    {
      "midi": 84,
      "hit": false,
      "t": 132864.6497656282,
      "d": 17.361119791661622,
      "v": 62
    },
    {
      "midi": 61,
      "hit": false,
      "t": 132892.42755729484,
      "d": 45.138911458314396,
      "v": 82
    },
    {
      "midi": 56,
      "hit": false,
      "t": 132895.89978125316,
      "d": 52.083359374984866,
      "v": 91
    },
    {
      "midi": 65,
      "hit": false,
      "t": 132902.84422916983,
      "d": 52.083359374984866,
      "v": 91
    },
    {
      "midi": 94,
      "hit": false,
      "t": 132920.2053489615,
      "d": 52.083359374984866,
      "v": 104
    },
    {
      "midi": 82,
      "hit": false,
      "t": 132923.6775729198,
      "d": 45.1389114583435,
      "v": 113
    },
    {
      "midi": 36,
      "hit": false,
      "t": 133229.23328125314,
      "d": 45.1389114583435,
      "v": 97
    },
    {
      "midi": 79,
      "hit": false,
      "t": 133347.28889583648,
      "d": 107.63894270831952,
      "v": 82
    },
    {
      "midi": 84,
      "hit": false,
      "t": 133392.42780729482,
      "d": 90.27782291662879,
      "v": 97
    },
    {
      "midi": 88,
      "hit": false,
      "t": 133427.15004687815,
      "d": 86.805598958279,
      "v": 86
    },
    {
      "midi": 91,
      "hit": false,
      "t": 133465.3445104198,
      "d": 72.91670312496717,
      "v": 113
    },
    {
      "midi": 79,
      "hit": false,
      "t": 133500.0667500031,
      "d": 24.305567708302988,
      "v": 55
    },
    {
      "midi": 60,
      "hit": false,
      "t": 133510.4834218781,
      "d": 86.80559895833721,
      "v": 78
    },
    {
      "midi": 64,
      "hit": false,
      "t": 133520.9000937531,
      "d": 62.50003125000512,
      "v": 104
    },
    {
      "midi": 58,
      "hit": false,
      "t": 133524.37231771142,
      "d": 52.08335937501397,
      "v": 82
    },
    {
      "midi": 55,
      "hit": false,
      "t": 133531.3167656281,
      "d": 59.02780729168444,
      "v": 91
    },
    {
      "midi": 91,
      "hit": false,
      "t": 133770.9002187531,
      "d": 76.38892708334606,
      "v": 91
    },
    {
      "midi": 88,
      "hit": false,
      "t": 133774.3724427114,
      "d": 59.02780729168444,
      "v": 86
    },
    {
      "midi": 84,
      "hit": false,
      "t": 133781.31689062808,
      "d": 69.44447916667559,
      "v": 91
    },
    {
      "midi": 96,
      "hit": false,
      "t": 133788.26133854475,
      "d": 65.9722552083258,
      "v": 113
    },
    {
      "midi": 55,
      "hit": false,
      "t": 133802.1502343781,
      "d": 38.19446354167303,
      "v": 97
    },
    {
      "midi": 43,
      "hit": false,
      "t": 133812.56690625308,
      "d": 52.083359374984866,
      "v": 113
    },
    {
      "midi": 43,
      "hit": false,
      "t": 133895.90028125307,
      "d": 17.361119791661622,
      "v": 71
    },
    {
      "midi": 88,
      "hit": false,
      "t": 134072.98370312806,
      "d": 83.33337499992922,
      "v": 82
    },
    {
      "midi": 94,
      "hit": false,
      "t": 134076.45592708638,
      "d": 65.9722552082967,
      "v": 82
    },
    {
      "midi": 82,
      "hit": false,
      "t": 134086.87259896137,
      "d": 52.083359374984866,
      "v": 78
    },
    {
      "midi": 52,
      "hit": false,
      "t": 134090.3448229197,
      "d": 62.50003124997602,
      "v": 91
    },
    {
      "midi": 40,
      "hit": false,
      "t": 134097.28927083637,
      "d": 48.61113541663508,
      "v": 97
    },
    {
      "midi": 92,
      "hit": false,
      "t": 134364.650515628,
      "d": 104.16671874994063,
      "v": 86
    },
    {
      "midi": 80,
      "hit": false,
      "t": 134375.06718750298,
      "d": 79.86115104160854,
      "v": 78
    },
    {
      "midi": 85,
      "hit": false,
      "t": 134378.5394114613,
      "d": 83.33337499995832,
      "v": 62
    },
    {
      "midi": 41,
      "hit": false,
      "t": 134392.4283072946,
      "d": 27.777791666652774,
      "v": 97
    },
    {
      "midi": 53,
      "hit": false,
      "t": 134402.8449791696,
      "d": 24.30556770833209,
      "v": 91
    },
    {
      "midi": 91,
      "hit": false,
      "t": 134645.90065625292,
      "d": 97.22227083335747,
      "v": 104
    },
    {
      "midi": 85,
      "hit": false,
      "t": 134656.31732812792,
      "d": 65.97225520835491,
      "v": 78
    },
    {
      "midi": 79,
      "hit": false,
      "t": 134656.31732812792,
      "d": 79.86115104169585,
      "v": 97
    },
    {
      "midi": 46,
      "hit": false,
      "t": 134663.2617760446,
      "d": 65.97225520835491,
      "v": 91
    },
    {
      "midi": 58,
      "hit": false,
      "t": 134677.15067187793,
      "d": 45.1389114583435,
      "v": 104
    },
    {
      "midi": 90,
      "hit": false,
      "t": 134944.5119166696,
      "d": 93.75004687497858,
      "v": 91
    },
    {
      "midi": 78,
      "hit": false,
      "t": 134947.98414062793,
      "d": 72.91670312502538,
      "v": 91
    },
    {
      "midi": 85,
      "hit": false,
      "t": 134961.87303646127,
      "d": 65.9722552083258,
      "v": 86
    },
    {
      "midi": 57,
      "hit": false,
      "t": 134965.3452604196,
      "d": 59.02780729168444,
      "v": 104
    },
    {
      "midi": 45,
      "hit": false,
      "t": 134972.28970833626,
      "d": 41.66668750002282,
      "v": 104
    },
    {
      "midi": 85,
      "hit": false,
      "t": 135232.70650521124,
      "d": 65.9722552082967,
      "v": 82
    },
    {
      "midi": 89,
      "hit": false,
      "t": 135236.17872916957,
      "d": 69.44447916664649,
      "v": 91
    },
    {
      "midi": 77,
      "hit": false,
      "t": 135246.59540104456,
      "d": 79.86115104163764,
      "v": 82
    },
    {
      "midi": 80,
      "hit": false,
      "t": 135246.59540104456,
      "d": 79.86115104163764,
      "v": 82
    },
    {
      "midi": 56,
      "hit": false,
      "t": 135263.95652083622,
      "d": 52.083359374984866,
      "v": 91
    },
    {
      "midi": 44,
      "hit": false,
      "t": 135263.95652083622,
      "d": 65.9722552082967,
      "v": 86
    },
    {
      "midi": 87,
      "hit": false,
      "t": 135520.90109375285,
      "d": 79.86115104160854,
      "v": 82
    },
    {
      "midi": 79,
      "hit": false,
      "t": 135531.31776562784,
      "d": 86.8055989582499,
      "v": 104
    },
    {
      "midi": 75,
      "hit": false,
      "t": 135541.73443750283,
      "d": 65.9722552082676,
      "v": 91
    },
    {
      "midi": 55,
      "hit": false,
      "t": 135548.6788854195,
      "d": 48.61113541663508,
      "v": 97
    },
    {
      "midi": 43,
      "hit": false,
      "t": 135552.15110937782,
      "d": 34.722239583323244,
      "v": 113
    },
    {
      "midi": 70,
      "hit": false,
      "t": 135826.4568020861,
      "d": 72.91670312493807,
      "v": 91
    },
    {
      "midi": 75,
      "hit": false,
      "t": 135826.4568020861,
      "d": 72.91670312493807,
      "v": 91
    },
    {
      "midi": 79,
      "hit": false,
      "t": 135826.4568020861,
      "d": 72.91670312493807,
      "v": 91
    },
    {
      "midi": 82,
      "hit": false,
      "t": 135833.40125000276,
      "d": 69.44447916658828,
      "v": 104
    },
    {
      "midi": 61,
      "hit": false,
      "t": 135836.87347396108,
      "d": 55.55558333330555,
      "v": 91
    },
    {
      "midi": 55,
      "hit": false,
      "t": 135847.29014583607,
      "d": 65.9722552082676,
      "v": 97
    },
    {
      "midi": 51,
      "hit": false,
      "t": 135857.70681771106,
      "d": 38.19446354164393,
      "v": 78
    },
    {
      "midi": 44,
      "hit": false,
      "t": 136111.17916666935,
      "d": 59.02780729162623,
      "v": 97
    },
    {
      "midi": 83,
      "hit": false,
      "t": 136121.59583854434,
      "d": 55.55558333330555,
      "v": 104
    },
    {
      "midi": 71,
      "hit": false,
      "t": 136125.06806250266,
      "d": 55.55558333330555,
      "v": 97
    },
    {
      "midi": 75,
      "hit": false,
      "t": 136125.06806250266,
      "d": 55.55558333330555,
      "v": 97
    },
    {
      "midi": 56,
      "hit": false,
      "t": 136132.01251041933,
      "d": 20.833343749982305,
      "v": 86
    },
    {
      "midi": 80,
      "hit": false,
      "t": 136260.48479687763,
      "d": 55.55558333330555,
      "v": 97
    },
    {
      "midi": 75,
      "hit": false,
      "t": 136263.95702083595,
      "d": 41.666687499993714,
      "v": 104
    },
    {
      "midi": 84,
      "hit": false,
      "t": 136270.90146875262,
      "d": 55.55558333330555,
      "v": 113
    },
    {
      "midi": 72,
      "hit": false,
      "t": 136274.37369271094,
      "d": 38.19446354167303,
      "v": 113
    },
    {
      "midi": 56,
      "hit": false,
      "t": 136388.95708333593,
      "d": 45.1389114583435,
      "v": 97
    },
    {
      "midi": 77,
      "hit": false,
      "t": 136524.37381771093,
      "d": 201.3889895832981,
      "v": 97
    },
    {
      "midi": 85,
      "hit": false,
      "t": 136527.84604166925,
      "d": 177.0834218749951,
      "v": 104
    },
    {
      "midi": 73,
      "hit": false,
      "t": 136538.26271354425,
      "d": 76.38892708334606,
      "v": 104
    },
    {
      "midi": 80,
      "hit": false,
      "t": 136552.1516093776,
      "d": 138.88895833332208,
      "v": 97
    },
    {
      "midi": 61,
      "hit": false,
      "t": 136670.20722396093,
      "d": 41.666687499993714,
      "v": 104
    },
    {
      "midi": 56,
      "hit": false,
      "t": 136670.20722396093,
      "d": 45.138911458314396,
      "v": 113
    },
    {
      "midi": 65,
      "hit": false,
      "t": 136677.1516718776,
      "d": 45.138911458314396,
      "v": 97
    },
    {
      "midi": 56,
      "hit": false,
      "t": 137017.42961979422,
      "d": 55.55558333333465,
      "v": 113
    },
    {
      "midi": 44,
      "hit": false,
      "t": 137024.3740677109,
      "d": 52.083359374984866,
      "v": 91
    },
    {
      "midi": 97,
      "hit": false,
      "t": 137340.3464479192,
      "d": 79.86115104163764,
      "v": 104
    },
    {
      "midi": 85,
      "hit": false,
      "t": 137343.81867187753,
      "d": 62.50003125000512,
      "v": 97
    },
    {
      "midi": 92,
      "hit": false,
      "t": 137350.7631197942,
      "d": 59.027807291655336,
      "v": 97
    },
    {
      "midi": 89,
      "hit": false,
      "t": 137357.70756771087,
      "d": 59.027807291655336,
      "v": 104
    },
    {
      "midi": 49,
      "hit": false,
      "t": 137368.12423958586,
      "d": 48.61113541666418,
      "v": 104
    },
    {
      "midi": 37,
      "hit": false,
      "t": 137388.95758333587,
      "d": 10.416671874991152,
      "v": 113
    },
    {
      "midi": 87,
      "hit": false,
      "t": 138111.1801666692,
      "d": 170.13897395832464,
      "v": 113
    },
    {
      "midi": 79,
      "hit": false,
      "t": 138114.6523906275,
      "d": 159.7223020833335,
      "v": 121
    },
    {
      "midi": 85,
      "hit": false,
      "t": 138121.59683854418,
      "d": 121.52783854166046,
      "v": 113
    },
    {
      "midi": 75,
      "hit": false,
      "t": 138125.0690625025,
      "d": 52.08335937501397,
      "v": 113
    },
    {
      "midi": 89,
      "hit": false,
      "t": 138267.43024479417,
      "d": 76.38892708334606,
      "v": 97
    },
    {
      "midi": 80,
      "hit": false,
      "t": 138864.6527656275,
      "d": 208.33343749996857,
      "v": 104
    },
    {
      "midi": 84,
      "hit": false,
      "t": 138871.59721354418,
      "d": 166.66674999997485,
      "v": 104
    },
    {
      "midi": 77,
      "hit": false,
      "t": 138875.0694375025,
      "d": 166.66674999997485,
      "v": 104
    },
    {
      "midi": 70,
      "hit": false,
      "t": 138885.4861093775,
      "d": 208.33343749999767,
      "v": 113
    },
    {
      "midi": 85,
      "hit": false,
      "t": 139055.62508333582,
      "d": 121.52783854166046,
      "v": 97
    },
    {
      "midi": 82,
      "hit": false,
      "t": 139211.8751614608,
      "d": 104.16671875002794,
      "v": 86
    },
    {
      "midi": 58,
      "hit": false,
      "t": 139257.01407291915,
      "d": 52.08335937501397,
      "v": 97
    },
    {
      "midi": 79,
      "hit": false,
      "t": 139409.79192708584,
      "d": 69.44447916667559,
      "v": 104
    },
    {
      "midi": 73,
      "hit": false,
      "t": 139642.43093229417,
      "d": 222.2223333333095,
      "v": 113
    },
    {
      "midi": 63,
      "hit": false,
      "t": 139645.9031562525,
      "d": 350.69461979166954,
      "v": 113
    },
    {
      "midi": 67,
      "hit": false,
      "t": 139652.84760416916,
      "d": 274.3056927083235,
      "v": 113
    },
    {
      "midi": 75,
      "hit": false,
      "t": 139656.31982812748,
      "d": 201.3889895833272,
      "v": 104
    },
    {
      "midi": 77,
      "hit": false,
      "t": 139829.93102604416,
      "d": 86.80559895833721,
      "v": 104
    },
    {
      "midi": 51,
      "hit": false,
      "t": 140055.62558333582,
      "d": 52.08335937501397,
      "v": 104
    },
    {
      "midi": 68,
      "hit": false,
      "t": 140260.4867968775,
      "d": 451.3891145833186,
      "v": 104
    },
    {
      "midi": 72,
      "hit": false,
      "t": 140270.90346875248,
      "d": 364.5835156249814,
      "v": 113
    },
    {
      "midi": 65,
      "hit": false,
      "t": 140274.3756927108,
      "d": 461.80578645833884,
      "v": 104
    },
    {
      "midi": 58,
      "hit": false,
      "t": 140507.01469791913,
      "d": 208.33343749999767,
      "v": 113
    },
    {
      "midi": 73,
      "hit": false,
      "t": 140673.68144791914,
      "d": 184.02786979166558,
      "v": 97
    },
    {
      "midi": 70,
      "hit": false,
      "t": 140927.15379687748,
      "d": 97.22227083332837,
      "v": 104
    },
    {
      "midi": 46,
      "hit": false,
      "t": 140941.04269271082,
      "d": 55.55558333333465,
      "v": 113
    },
    {
      "midi": 67,
      "hit": false,
      "t": 141132.01501041913,
      "d": 59.027807291655336,
      "v": 104
    },
    {
      "midi": 61,
      "hit": false,
      "t": 141392.4318072941,
      "d": 190.97231770830695,
      "v": 113
    },
    {
      "midi": 51,
      "hit": false,
      "t": 141395.90403125243,
      "d": 187.50009374998626,
      "v": 113
    },
    {
      "midi": 63,
      "hit": false,
      "t": 141402.8484791691,
      "d": 190.97231770830695,
      "v": 113
    },
    {
      "midi": 55,
      "hit": false,
      "t": 141406.32070312742,
      "d": 208.33343749999767,
      "v": 113
    },
    {
      "midi": 65,
      "hit": false,
      "t": 141621.5985885441,
      "d": 72.91670312499627,
      "v": 104
    },
    {
      "midi": 39,
      "hit": false,
      "t": 141892.4320572941,
      "d": 65.97225520835491,
      "v": 113
    },
    {
      "midi": 56,
      "hit": false,
      "t": 142145.90440625243,
      "d": 500.00024999998277,
      "v": 104
    },
    {
      "midi": 60,
      "hit": false,
      "t": 142156.32107812742,
      "d": 458.33356249998906,
      "v": 113
    },
    {
      "midi": 53,
      "hit": false,
      "t": 142159.79330208575,
      "d": 447.9168906249979,
      "v": 113
    },
    {
      "midi": 46,
      "hit": false,
      "t": 142447.9878906274,
      "d": 83.33337499998743,
      "v": 121
    },
    {
      "midi": 61,
      "hit": false,
      "t": 142684.0991197941,
      "d": 83.33337499998743,
      "v": 104
    },
    {
      "midi": 58,
      "hit": false,
      "t": 143007.01594791908,
      "d": 114.58339062501909,
      "v": 113
    },
    {
      "midi": 34,
      "hit": false,
      "t": 143013.96039583575,
      "d": 62.50003125000512,
      "v": 113
    },
    {
      "midi": 37,
      "hit": false,
      "t": 143031.3215156274,
      "d": 13.88889583334094,
      "v": 71
    },
    {
      "midi": 55,
      "hit": false,
      "t": 143322.98832812742,
      "d": 86.80559895833721,
      "v": 113
    },
    {
      "midi": 51,
      "hit": false,
      "t": 143809.0996822941,
      "d": 48.61113541666418,
      "v": 121
    },
    {
      "midi": 27,
      "hit": false,
      "t": 143812.57190625241,
      "d": 48.61113541666418,
      "v": 104
    },
    {
      "midi": 39,
      "hit": false,
      "t": 143819.51635416909,
      "d": 34.72223958335235,
      "v": 113
    },
    {
      "midi": 86,
      "hit": false,
      "t": 146017.43411979408,
      "d": 645.8336562499753,
      "v": 113
    },
    {
      "midi": 50,
      "hit": false,
      "t": 146027.85079166907,
      "d": 614.5836406250019,
      "v": 121
    },
    {
      "midi": 74,
      "hit": false,
      "t": 146031.3230156274,
      "d": 614.5836406250019,
      "v": 121
    },
    {
      "midi": 62,
      "hit": false,
      "t": 146038.26746354406,
      "d": 687.5003437499981,
      "v": 121
    },
    {
      "midi": 87,
      "hit": false,
      "t": 147871.60171354408,
      "d": 614.5836406249728,
      "v": 104
    },
    {
      "midi": 75,
      "hit": false,
      "t": 147875.0739375024,
      "d": 607.6391927083314,
      "v": 104
    },
    {
      "midi": 51,
      "hit": false,
      "t": 147882.01838541907,
      "d": 593.7502968749905,
      "v": 97
    },
    {
      "midi": 63,
      "hit": false,
      "t": 147885.4906093774,
      "d": 611.1114166666521,
      "v": 121
    },
    {
      "midi": 76,
      "hit": false,
      "t": 149552.15810937737,
      "d": 774.3059427083062,
      "v": 104
    },
    {
      "midi": 88,
      "hit": false,
      "t": 149555.6303333357,
      "d": 812.5004062499793,
      "v": 104
    },
    {
      "midi": 64,
      "hit": false,
      "t": 149566.04700521068,
      "d": 725.6948072916712,
      "v": 121
    },
    {
      "midi": 52,
      "hit": false,
      "t": 149569.519229169,
      "d": 788.1948385416763,
      "v": 104
    },
    {
      "midi": 46,
      "hit": false,
      "t": 151319.520104169,
      "d": 152.77785416663392,
      "v": 91
    },
    {
      "midi": 89,
      "hit": false,
      "t": 151319.520104169,
      "d": 159.72230208330438,
      "v": 104
    },
    {
      "midi": 82,
      "hit": false,
      "t": 151329.936776044,
      "d": 180.5556458332867,
      "v": 113
    },
    {
      "midi": 58,
      "hit": false,
      "t": 151333.4090000023,
      "d": 159.7223020833335,
      "v": 121
    },
    {
      "midi": 85,
      "hit": false,
      "t": 151333.4090000023,
      "d": 170.13897395832464,
      "v": 104
    },
    {
      "midi": 77,
      "hit": false,
      "t": 151336.88122396063,
      "d": 170.13897395832464,
      "v": 113
    },
    {
      "midi": 61,
      "hit": false,
      "t": 151954.93708854396,
      "d": 65.9722552083258,
      "v": 104
    },
    {
      "midi": 51,
      "hit": false,
      "t": 151958.40931250228,
      "d": 79.86115104166674,
      "v": 91
    },
    {
      "midi": 55,
      "hit": false,
      "t": 151968.82598437727,
      "d": 72.91670312499627,
      "v": 104
    },
    {
      "midi": 70,
      "hit": false,
      "t": 152250.07612500226,
      "d": 444.4446666666481,
      "v": 104
    },
    {
      "midi": 77,
      "hit": false,
      "t": 152253.54834896058,
      "d": 413.19465104167466,
      "v": 97
    },
    {
      "midi": 73,
      "hit": false,
      "t": 152260.49279687725,
      "d": 440.97244270832743,
      "v": 113
    },
    {
      "midi": 65,
      "hit": false,
      "t": 152263.96502083557,
      "d": 361.1112916666898,
      "v": 104
    },
    {
      "midi": 39,
      "hit": false,
      "t": 152555.6318333356,
      "d": 59.02780729168444,
      "v": 104
    },
    {
      "midi": 51,
      "hit": false,
      "t": 152555.6318333356,
      "d": 65.97225520835491,
      "v": 121
    },
    {
      "midi": 66,
      "hit": false,
      "t": 152816.04863021057,
      "d": 114.58339062498999,
      "v": 97
    },
    {
      "midi": 51,
      "hit": false,
      "t": 153059.1043072939,
      "d": 107.63894270831952,
      "v": 86
    },
    {
      "midi": 78,
      "hit": false,
      "t": 153062.5765312522,
      "d": 125.00006249998114,
      "v": 91
    },
    {
      "midi": 61,
      "hit": false,
      "t": 153072.9932031272,
      "d": 72.91670312499627,
      "v": 104
    },
    {
      "midi": 75,
      "hit": false,
      "t": 153072.9932031272,
      "d": 97.22227083332837,
      "v": 86
    },
    {
      "midi": 73,
      "hit": false,
      "t": 153072.9932031272,
      "d": 107.63894270831952,
      "v": 86
    },
    {
      "midi": 66,
      "hit": false,
      "t": 153076.46542708552,
      "d": 55.55558333333465,
      "v": 113
    },
    {
      "midi": 55,
      "hit": false,
      "t": 153086.88209896052,
      "d": 72.91670312502538,
      "v": 97
    },
    {
      "midi": 46,
      "hit": false,
      "t": 153583.4101250022,
      "d": 83.33337499998743,
      "v": 104
    },
    {
      "midi": 73,
      "hit": false,
      "t": 153586.88234896053,
      "d": 131.9445104166516,
      "v": 97
    },
    {
      "midi": 58,
      "hit": false,
      "t": 153597.29902083552,
      "d": 83.33337499998743,
      "v": 113
    },
    {
      "midi": 79,
      "hit": false,
      "t": 153597.29902083552,
      "d": 114.58339062498999,
      "v": 104
    },
    {
      "midi": 75,
      "hit": false,
      "t": 153597.29902083552,
      "d": 121.52783854166046,
      "v": 97
    },
    {
      "midi": 67,
      "hit": false,
      "t": 153600.77124479384,
      "d": 76.38892708334606,
      "v": 121
    },
    {
      "midi": 80,
      "hit": false,
      "t": 154069.52147916885,
      "d": 149.30563020822592,
      "v": 104
    },
    {
      "midi": 51,
      "hit": false,
      "t": 154072.99370312717,
      "d": 100.69449479159084,
      "v": 97
    },
    {
      "midi": 73,
      "hit": false,
      "t": 154083.41037500216,
      "d": 121.52783854160225,
      "v": 97
    },
    {
      "midi": 75,
      "hit": false,
      "t": 154083.41037500216,
      "d": 125.00006249992293,
      "v": 91
    },
    {
      "midi": 61,
      "hit": false,
      "t": 154086.88259896048,
      "d": 65.9722552082967,
      "v": 104
    },
    {
      "midi": 68,
      "hit": false,
      "t": 154086.88259896048,
      "d": 83.33337499995832,
      "v": 113
    },
    {
      "midi": 55,
      "hit": false,
      "t": 154121.6048385438,
      "d": 27.777791666652774,
      "v": 97
    },
    {
      "midi": 81,
      "hit": false,
      "t": 154548.68838541873,
      "d": 121.52783854157315,
      "v": 104
    },
    {
      "midi": 73,
      "hit": false,
      "t": 154552.16060937705,
      "d": 111.111166666582,
      "v": 113
    },
    {
      "midi": 75,
      "hit": false,
      "t": 154559.10505729372,
      "d": 100.69449479159084,
      "v": 104
    },
    {
      "midi": 69,
      "hit": false,
      "t": 154562.57728125204,
      "d": 65.9722552082967,
      "v": 113
    },
    {
      "midi": 51,
      "hit": false,
      "t": 154562.57728125204,
      "d": 69.44447916661738,
      "v": 113
    },
    {
      "midi": 39,
      "hit": false,
      "t": 154566.04950521037,
      "d": 59.027807291655336,
      "v": 104
    },
    {
      "midi": 82,
      "hit": false,
      "t": 154989.66082812697,
      "d": 100.69449479164905,
      "v": 91
    },
    {
      "midi": 75,
      "hit": false,
      "t": 155003.5497239603,
      "d": 62.50003124997602,
      "v": 86
    },
    {
      "midi": 70,
      "hit": false,
      "t": 155007.02194791863,
      "d": 45.138911458314396,
      "v": 113
    },
    {
      "midi": 73,
      "hit": false,
      "t": 155010.49417187696,
      "d": 55.55558333333465,
      "v": 97
    },
    {
      "midi": 49,
      "hit": false,
      "t": 155020.91084375195,
      "d": 62.50003125000512,
      "v": 113
    },
    {
      "midi": 37,
      "hit": false,
      "t": 155020.91084375195,
      "d": 72.91670312499627,
      "v": 97
    },
    {
      "midi": 87,
      "hit": false,
      "t": 155461.88328646027,
      "d": 107.63894270829041,
      "v": 97
    },
    {
      "midi": 80,
      "hit": false,
      "t": 155468.82773437694,
      "d": 97.22227083329926,
      "v": 91
    },
    {
      "midi": 75,
      "hit": false,
      "t": 155475.77218229361,
      "d": 65.9722552083258,
      "v": 104
    },
    {
      "midi": 84,
      "hit": false,
      "t": 155479.24440625194,
      "d": 100.69449479161995,
      "v": 113
    },
    {
      "midi": 36,
      "hit": false,
      "t": 155496.6055260436,
      "d": 55.55558333333465,
      "v": 113
    },
    {
      "midi": 48,
      "hit": false,
      "t": 155507.0221979186,
      "d": 48.61113541666418,
      "v": 91
    },
    {
      "midi": 51,
      "hit": false,
      "t": 155902.85572916854,
      "d": 59.027807291655336,
      "v": 97
    },
    {
      "midi": 56,
      "hit": false,
      "t": 155909.8001770852,
      "d": 55.55558333330555,
      "v": 104
    },
    {
      "midi": 60,
      "hit": false,
      "t": 155916.74462500188,
      "d": 52.08335937495576,
      "v": 113
    },
    {
      "midi": 75,
      "hit": false,
      "t": 156076.46692708516,
      "d": 354.166843749932,
      "v": 91
    },
    {
      "midi": 68,
      "hit": false,
      "t": 156086.88359896015,
      "d": 288.1945885416062,
      "v": 97
    },
    {
      "midi": 63,
      "hit": false,
      "t": 156090.35582291847,
      "d": 208.33343749996857,
      "v": 104
    },
    {
      "midi": 72,
      "hit": false,
      "t": 156097.30027083514,
      "d": 326.38905208327924,
      "v": 104
    },
    {
      "midi": 51,
      "hit": false,
      "t": 156284.80036458513,
      "d": 55.55558333330555,
      "v": 104
    },
    {
      "midi": 39,
      "hit": false,
      "t": 156295.21703646012,
      "d": 48.61113541663508,
      "v": 104
    },
    {
      "midi": 65,
      "hit": false,
      "t": 156454.93933854342,
      "d": 149.30563020834234,
      "v": 91
    },
    {
      "midi": 68,
      "hit": false,
      "t": 156649.3838802101,
      "d": 65.9722552082676,
      "v": 104
    },
    {
      "midi": 72,
      "hit": false,
      "t": 156652.85610416843,
      "d": 72.91670312493807,
      "v": 104
    },
    {
      "midi": 65,
      "hit": false,
      "t": 156663.27277604342,
      "d": 48.61113541663508,
      "v": 91
    },
    {
      "midi": 77,
      "hit": false,
      "t": 156666.74500000174,
      "d": 86.805598958279,
      "v": 104
    },
    {
      "midi": 51,
      "hit": false,
      "t": 156670.21722396006,
      "d": 59.02780729162623,
      "v": 86
    },
    {
      "midi": 56,
      "hit": false,
      "t": 156677.16167187673,
      "d": 59.02780729162623,
      "v": 86
    },
    {
      "midi": 60,
      "hit": false,
      "t": 156677.16167187673,
      "d": 62.500031249946915,
      "v": 104
    },
    {
      "midi": 72,
      "hit": false,
      "t": 157027.85629166834,
      "d": 104.16671874996973,
      "v": 113
    },
    {
      "midi": 79,
      "hit": false,
      "t": 157031.32851562666,
      "d": 128.47228645830182,
      "v": 113
    },
    {
      "midi": 75,
      "hit": false,
      "t": 157038.27296354334,
      "d": 135.4167343749723,
      "v": 86
    },
    {
      "midi": 67,
      "hit": false,
      "t": 157041.74518750166,
      "d": 76.38892708331696,
      "v": 104
    },
    {
      "midi": 56,
      "hit": false,
      "t": 157062.57853125167,
      "d": 52.083359374984866,
      "v": 113
    },
    {
      "midi": 44,
      "hit": false,
      "t": 157069.52297916834,
      "d": 41.666687499993714,
      "v": 104
    },
    {
      "midi": 80,
      "hit": false,
      "t": 157399.38425520997,
      "d": 107.63894270826131,
      "v": 97
    },
    {
      "midi": 68,
      "hit": false,
      "t": 157402.8564791683,
      "d": 72.91670312496717,
      "v": 104
    },
    {
      "midi": 75,
      "hit": false,
      "t": 157413.27315104328,
      "d": 90.27782291662879,
      "v": 97
    },
    {
      "midi": 51,
      "hit": false,
      "t": 157423.68982291827,
      "d": 79.86115104163764,
      "v": 86
    },
    {
      "midi": 56,
      "hit": false,
      "t": 157434.10649479326,
      "d": 69.44447916664649,
      "v": 91
    },
    {
      "midi": 60,
      "hit": false,
      "t": 157434.10649479326,
      "d": 79.86115104163764,
      "v": 97
    },
    {
      "midi": 73,
      "hit": false,
      "t": 157444.52316666825,
      "d": 17.361119791661622,
      "v": 78
    },
    {
      "midi": 82,
      "hit": false,
      "t": 157743.1344270849,
      "d": 104.16671874994063,
      "v": 91
    },
    {
      "midi": 70,
      "hit": false,
      "t": 157753.5510989599,
      "d": 62.50003124997602,
      "v": 97
    },
    {
      "midi": 75,
      "hit": false,
      "t": 157757.02332291822,
      "d": 69.44447916664649,
      "v": 86
    },
    {
      "midi": 60,
      "hit": false,
      "t": 157774.38444270988,
      "d": 65.9722552083258,
      "v": 104
    },
    {
      "midi": 48,
      "hit": false,
      "t": 157777.8566666682,
      "d": 65.9722552083258,
      "v": 97
    },
    {
      "midi": 75,
      "hit": false,
      "t": 157947.99564062653,
      "d": 72.91670312499627,
      "v": 97
    },
    {
      "midi": 84,
      "hit": false,
      "t": 157954.9400885432,
      "d": 76.38892708331696,
      "v": 113
    },
    {
      "midi": 72,
      "hit": false,
      "t": 157961.88453645987,
      "d": 55.55558333333465,
      "v": 104
    },
    {
      "midi": 57,
      "hit": false,
      "t": 158100.7734947932,
      "d": 55.55558333333465,
      "v": 113
    },
    {
      "midi": 45,
      "hit": false,
      "t": 158104.2457187515,
      "d": 45.1389114583435,
      "v": 104
    },
    {
      "midi": 82,
      "hit": false,
      "t": 158260.49579687652,
      "d": 187.50009374995716,
      "v": 113
    },
    {
      "midi": 85,
      "hit": false,
      "t": 158263.96802083484,
      "d": 204.86121354164788,
      "v": 104
    },
    {
      "midi": 73,
      "hit": false,
      "t": 158274.38469270983,
      "d": 145.83340624999255,
      "v": 113
    },
    {
      "midi": 46,
      "hit": false,
      "t": 158423.69032291815,
      "d": 69.44447916667559,
      "v": 91
    },
    {
      "midi": 58,
      "hit": false,
      "t": 158434.10699479314,
      "d": 55.55558333336376,
      "v": 113
    },
    {
      "midi": 85,
      "hit": false,
      "t": 158618.13486458483,
      "d": 149.30563020828413,
      "v": 104
    },
    {
      "midi": 61,
      "hit": false,
      "t": 158711.88491145984,
      "d": 72.91670312490896,
      "v": 91
    },
    {
      "midi": 97,
      "hit": false,
      "t": 158722.30158333483,
      "d": 72.91670312490896,
      "v": 104
    },
    {
      "midi": 51,
      "hit": false,
      "t": 158725.77380729315,
      "d": 59.02780729159713,
      "v": 86
    },
    {
      "midi": 92,
      "hit": false,
      "t": 158732.71825520982,
      "d": 20.833343749982305,
      "v": 86
    },
    {
      "midi": 94,
      "hit": false,
      "t": 158736.19047916814,
      "d": 45.13891145828529,
      "v": 82
    },
    {
      "midi": 55,
      "hit": false,
      "t": 158743.13492708481,
      "d": 34.72223958329414,
      "v": 97
    },
    {
      "midi": 97,
      "hit": false,
      "t": 159045.21841145973,
      "d": 86.80559895830811,
      "v": 97
    },
    {
      "midi": 85,
      "hit": false,
      "t": 159052.1628593764,
      "d": 65.9722552083258,
      "v": 104
    },
    {
      "midi": 94,
      "hit": false,
      "t": 159059.10730729307,
      "d": 52.083359374984866,
      "v": 104
    },
    {
      "midi": 39,
      "hit": false,
      "t": 159062.5795312514,
      "d": 59.027807291655336,
      "v": 91
    },
    {
      "midi": 51,
      "hit": false,
      "t": 159069.52397916807,
      "d": 38.19446354167303,
      "v": 104
    },
    {
      "midi": 84,
      "hit": false,
      "t": 159364.66301562637,
      "d": 76.38892708325875,
      "v": 91
    },
    {
      "midi": 92,
      "hit": false,
      "t": 159371.607463543,
      "d": 59.02780729162623,
      "v": 91
    },
    {
      "midi": 96,
      "hit": false,
      "t": 159382.024135418,
      "d": 52.08335937495576,
      "v": 104
    },
    {
      "midi": 87,
      "hit": false,
      "t": 159385.49635937632,
      "d": 41.666687499993714,
      "v": 74
    },
    {
      "midi": 53,
      "hit": false,
      "t": 159392.440807293,
      "d": 48.61113541663508,
      "v": 97
    },
    {
      "midi": 41,
      "hit": false,
      "t": 159395.91303125132,
      "d": 52.083359374984866,
      "v": 104
    },
    {
      "midi": 94,
      "hit": false,
      "t": 159677.1631718763,
      "d": 97.22227083332837,
      "v": 97
    },
    {
      "midi": 82,
      "hit": false,
      "t": 159680.63539583463,
      "d": 76.38892708334606,
      "v": 97
    },
    {
      "midi": 87,
      "hit": false,
      "t": 159687.5798437513,
      "d": 62.50003125000512,
      "v": 91
    },
    {
      "midi": 43,
      "hit": false,
      "t": 159701.46873958464,
      "d": 65.9722552083258,
      "v": 113
    },
    {
      "midi": 55,
      "hit": false,
      "t": 159708.4131875013,
      "d": 55.55558333333465,
      "v": 113
    },
    {
      "midi": 93,
      "hit": false,
      "t": 159979.24665625131,
      "d": 86.80559895830811,
      "v": 104
    },
    {
      "midi": 87,
      "hit": false,
      "t": 159986.19110416799,
      "d": 62.50003124997602,
      "v": 74
    },
    {
      "midi": 81,
      "hit": false,
      "t": 159993.13555208466,
      "d": 76.38892708328785,
      "v": 97
    },
    {
      "midi": 42,
      "hit": false,
      "t": 160003.55222395965,
      "d": 79.86115104160854,
      "v": 91
    },
    {
      "midi": 54,
      "hit": false,
      "t": 160020.9133437513,
      "d": 52.08335937495576,
      "v": 97
    },
    {
      "midi": 87,
      "hit": false,
      "t": 160309.1079322929,
      "d": 52.08335937501397,
      "v": 91
    },
    {
      "midi": 82,
      "hit": false,
      "t": 160316.05238020958,
      "d": 52.08335937501397,
      "v": 97
    },
    {
      "midi": 43,
      "hit": false,
      "t": 160326.46905208458,
      "d": 59.027807291655336,
      "v": 104
    },
    {
      "midi": 94,
      "hit": false,
      "t": 160333.41350000125,
      "d": 38.19446354167303,
      "v": 104
    },
    {
      "midi": 55,
      "hit": false,
      "t": 160340.35794791792,
      "d": 48.61113541663508,
      "v": 104
    },
    {
      "midi": 75,
      "hit": false,
      "t": 160614.6636406262,
      "d": 62.50003124997602,
      "v": 97
    },
    {
      "midi": 87,
      "hit": false,
      "t": 160625.0803125012,
      "d": 59.027807291655336,
      "v": 104
    },
    {
      "midi": 61,
      "hit": false,
      "t": 160628.55253645952,
      "d": 65.9722552083258,
      "v": 97
    },
    {
      "midi": 85,
      "hit": false,
      "t": 160638.9692083345,
      "d": 31.25001562500256,
      "v": 97
    },
    {
      "midi": 51,
      "hit": false,
      "t": 160642.44143229284,
      "d": 45.1389114583435,
      "v": 91
    },
    {
      "midi": 55,
      "hit": false,
      "t": 160649.3858802095,
      "d": 55.55558333333465,
      "v": 104
    },
    {
      "midi": 44,
      "hit": false,
      "t": 160934.10824479282,
      "d": 83.33337499995832,
      "v": 86
    },
    {
      "midi": 56,
      "hit": false,
      "t": 160937.58046875114,
      "d": 69.44447916664649,
      "v": 91
    },
    {
      "midi": 87,
      "hit": false,
      "t": 160947.99714062613,
      "d": 125.00006249998114,
      "v": 91
    },
    {
      "midi": 80,
      "hit": false,
      "t": 160951.46936458445,
      "d": 79.86115104166674,
      "v": 86
    },
    {
      "midi": 75,
      "hit": false,
      "t": 160954.94158854277,
      "d": 55.55558333333465,
      "v": 97
    },
    {
      "midi": 84,
      "hit": false,
      "t": 160961.88603645944,
      "d": 97.22227083332837,
      "v": 104
    },
    {
      "midi": 51,
      "hit": false,
      "t": 161246.6084010428,
      "d": 72.91670312490896,
      "v": 97
    },
    {
      "midi": 63,
      "hit": false,
      "t": 161250.0806250011,
      "d": 65.9722552082676,
      "v": 104
    },
    {
      "midi": 87,
      "hit": false,
      "t": 161260.4972968761,
      "d": 45.13891145828529,
      "v": 91
    },
    {
      "midi": 92,
      "hit": false,
      "t": 161270.9139687511,
      "d": 31.250015624973457,
      "v": 91
    },
    {
      "midi": 84,
      "hit": false,
      "t": 161270.9139687511,
      "d": 41.66668749996461,
      "v": 91
    },
    {
      "midi": 96,
      "hit": false,
      "t": 161284.8028645844,
      "d": 27.777791666652774,
      "v": 113
    },
    {
      "midi": 84,
      "hit": false,
      "t": 161385.49735937602,
      "d": 187.50009374992806,
      "v": 121
    },
    {
      "midi": 96,
      "hit": false,
      "t": 161392.4418072927,
      "d": 138.88895833332208,
      "v": 121
    },
    {
      "midi": 87,
      "hit": false,
      "t": 161399.38625520936,
      "d": 159.72230208327528,
      "v": 104
    },
    {
      "midi": 92,
      "hit": false,
      "t": 161402.85847916768,
      "d": 131.9445104166516,
      "v": 104
    },
    {
      "midi": 63,
      "hit": false,
      "t": 161538.27521354266,
      "d": 48.61113541663508,
      "v": 91
    },
    {
      "midi": 51,
      "hit": false,
      "t": 161541.74743750098,
      "d": 48.61113541663508,
      "v": 91
    },
    {
      "midi": 82,
      "hit": false,
      "t": 161715.35863541762,
      "d": 93.75004687500768,
      "v": 86
    },
    {
      "midi": 61,
      "hit": false,
      "t": 161816.0531302093,
      "d": 62.50003124997602,
      "v": 97
    },
    {
      "midi": 49,
      "hit": false,
      "t": 161826.4698020843,
      "d": 55.55558333330555,
      "v": 91
    },
    {
      "midi": 87,
      "hit": false,
      "t": 161829.9420260426,
      "d": 41.666687499993714,
      "v": 104
    },
    {
      "midi": 94,
      "hit": false,
      "t": 161836.88647395928,
      "d": 52.083359374984866,
      "v": 113
    },
    {
      "midi": 92,
      "hit": false,
      "t": 162118.13661458428,
      "d": 100.69449479159084,
      "v": 97
    },
    {
      "midi": 80,
      "hit": false,
      "t": 162121.6088385426,
      "d": 72.91670312496717,
      "v": 97
    },
    {
      "midi": 60,
      "hit": false,
      "t": 162128.55328645927,
      "d": 69.44447916661738,
      "v": 97
    },
    {
      "midi": 87,
      "hit": false,
      "t": 162132.0255104176,
      "d": 59.027807291655336,
      "v": 86
    },
    {
      "midi": 48,
      "hit": false,
      "t": 162142.44218229258,
      "d": 59.02780729162623,
      "v": 86
    },
    {
      "midi": 47,
      "hit": false,
      "t": 162406.33120312585,
      "d": 69.44447916658828,
      "v": 97
    },
    {
      "midi": 87,
      "hit": false,
      "t": 162416.74787500084,
      "d": 45.13891145828529,
      "v": 86
    },
    {
      "midi": 79,
      "hit": false,
      "t": 162420.22009895917,
      "d": 65.9722552082676,
      "v": 104
    },
    {
      "midi": 59,
      "hit": false,
      "t": 162434.10899479248,
      "d": 38.19446354164393,
      "v": 97
    },
    {
      "midi": 91,
      "hit": false,
      "t": 162437.5812187508,
      "d": 45.138911458314396,
      "v": 113
    },
    {
      "midi": 60,
      "hit": false,
      "t": 162715.35913541744,
      "d": 62.50003124997602,
      "v": 104
    },
    {
      "midi": 92,
      "hit": false,
      "t": 162718.83135937576,
      "d": 45.1389114583435,
      "v": 86
    },
    {
      "midi": 80,
      "hit": false,
      "t": 162729.24803125075,
      "d": 38.19446354167303,
      "v": 97
    },
    {
      "midi": 48,
      "hit": false,
      "t": 162729.24803125075,
      "d": 45.1389114583435,
      "v": 91
    },
    {
      "midi": 75,
      "hit": false,
      "t": 162885.49810937574,
      "d": 52.083359374984866,
      "v": 104
    },
    {
      "midi": 87,
      "hit": false,
      "t": 162888.97033333406,
      "d": 52.083359374984866,
      "v": 104
    },
    {
      "midi": 57,
      "hit": false,
      "t": 163003.55372395902,
      "d": 41.666687499993714,
      "v": 104
    },
    {
      "midi": 45,
      "hit": false,
      "t": 163007.02594791734,
      "d": 41.666687499993714,
      "v": 104
    },
    {
      "midi": 82,
      "hit": false,
      "t": 163152.85935416733,
      "d": 166.66674999997485,
      "v": 104
    },
    {
      "midi": 85,
      "hit": false,
      "t": 163156.33157812565,
      "d": 145.83340624999255,
      "v": 104
    },
    {
      "midi": 77,
      "hit": false,
      "t": 163163.27602604232,
      "d": 173.61119791664532,
      "v": 104
    },
    {
      "midi": 89,
      "hit": false,
      "t": 163166.74825000064,
      "d": 125.00006250001024,
      "v": 113
    },
    {
      "midi": 58,
      "hit": false,
      "t": 163298.69276041733,
      "d": 55.55558333330555,
      "v": 104
    },
    {
      "midi": 46,
      "hit": false,
      "t": 163309.10943229232,
      "d": 52.083359374984866,
      "v": 104
    },
    {
      "midi": 61,
      "hit": false,
      "t": 163579.9429010423,
      "d": 55.55558333330555,
      "v": 97
    },
    {
      "midi": 51,
      "hit": false,
      "t": 163590.35957291728,
      "d": 55.55558333330555,
      "v": 82
    },
    {
      "midi": 55,
      "hit": false,
      "t": 163590.35957291728,
      "d": 62.50003124997602,
      "v": 97
    },
    {
      "midi": 70,
      "hit": false,
      "t": 163711.8874114589,
      "d": 208.33343749996857,
      "v": 113
    },
    {
      "midi": 73,
      "hit": false,
      "t": 163715.35963541723,
      "d": 239.58345312497113,
      "v": 113
    },
    {
      "midi": 77,
      "hit": false,
      "t": 163722.3040833339,
      "d": 225.6945572916302,
      "v": 104
    },
    {
      "midi": 65,
      "hit": false,
      "t": 163729.24853125057,
      "d": 180.5556458333158,
      "v": 104
    },
    {
      "midi": 51,
      "hit": false,
      "t": 163878.55416145892,
      "d": 52.08335937495576,
      "v": 91
    },
    {
      "midi": 39,
      "hit": false,
      "t": 163882.02638541724,
      "d": 52.08335937495576,
      "v": 97
    },
    {
      "midi": 66,
      "hit": false,
      "t": 164045.22091145886,
      "d": 97.22227083332837,
      "v": 86
    },
    {
      "midi": 51,
      "hit": false,
      "t": 164152.85985416718,
      "d": 83.33337499995832,
      "v": 82
    },
    {
      "midi": 78,
      "hit": false,
      "t": 164159.80430208385,
      "d": 83.33337499992922,
      "v": 104
    },
    {
      "midi": 73,
      "hit": false,
      "t": 164166.74875000052,
      "d": 59.02780729162623,
      "v": 104
    },
    {
      "midi": 61,
      "hit": false,
      "t": 164170.22097395884,
      "d": 52.083359374984866,
      "v": 97
    },
    {
      "midi": 75,
      "hit": false,
      "t": 164177.1654218755,
      "d": 62.500031249946915,
      "v": 97
    },
    {
      "midi": 55,
      "hit": false,
      "t": 164180.63764583383,
      "d": 48.61113541663508,
      "v": 91
    },
    {
      "midi": 79,
      "hit": false,
      "t": 164451.47111458378,
      "d": 118.05561458328157,
      "v": 113
    },
    {
      "midi": 73,
      "hit": false,
      "t": 164454.9433385421,
      "d": 104.16671874996973,
      "v": 97
    },
    {
      "midi": 75,
      "hit": false,
      "t": 164461.88778645877,
      "d": 100.69449479161995,
      "v": 86
    },
    {
      "midi": 67,
      "hit": false,
      "t": 164465.3600104171,
      "d": 83.33337499998743,
      "v": 97
    },
    {
      "midi": 46,
      "hit": false,
      "t": 164475.77668229208,
      "d": 52.08335937501397,
      "v": 97
    },
    {
      "midi": 58,
      "hit": false,
      "t": 164475.77668229208,
      "d": 62.50003125000512,
      "v": 97
    },
    {
      "midi": 61,
      "hit": false,
      "t": 164743.13792708374,
      "d": 62.500031249946915,
      "v": 97
    },
    {
      "midi": 51,
      "hit": false,
      "t": 164746.61015104206,
      "d": 69.44447916661738,
      "v": 82
    },
    {
      "midi": 80,
      "hit": false,
      "t": 164757.02682291705,
      "d": 118.05561458328157,
      "v": 91
    },
    {
      "midi": 73,
      "hit": false,
      "t": 164760.49904687537,
      "d": 90.27782291662879,
      "v": 91
    },
    {
      "midi": 75,
      "hit": false,
      "t": 164760.49904687537,
      "d": 90.27782291662879,
      "v": 91
    },
    {
      "midi": 68,
      "hit": false,
      "t": 164763.9712708337,
      "d": 55.55558333330555,
      "v": 104
    },
    {
      "midi": 55,
      "hit": false,
      "t": 164774.38794270868,
      "d": 24.30556770833209,
      "v": 104
    },
    {
      "midi": 81,
      "hit": false,
      "t": 165045.22141145865,
      "d": 83.33337499995832,
      "v": 104
    },
    {
      "midi": 73,
      "hit": false,
      "t": 165052.16585937532,
      "d": 65.9722552082967,
      "v": 91
    },
    {
      "midi": 51,
      "hit": false,
      "t": 165055.63808333364,
      "d": 41.666687499993714,
      "v": 97
    },
    {
      "midi": 75,
      "hit": false,
      "t": 165055.63808333364,
      "d": 55.55558333333465,
      "v": 78
    },
    {
      "midi": 39,
      "hit": false,
      "t": 165059.11030729197,
      "d": 45.1389114583435,
      "v": 97
    },
    {
      "midi": 69,
      "hit": false,
      "t": 165059.11030729197,
      "d": 55.55558333333465,
      "v": 113
    },
    {
      "midi": 70,
      "hit": false,
      "t": 165336.8882239586,
      "d": 55.55558333330555,
      "v": 97
    },
    {
      "midi": 82,
      "hit": false,
      "t": 165340.36044791693,
      "d": 59.027807291655336,
      "v": 104
    },
    {
      "midi": 49,
      "hit": false,
      "t": 165350.77711979192,
      "d": 52.083359374984866,
      "v": 97
    },
    {
      "midi": 37,
      "hit": false,
      "t": 165354.24934375024,
      "d": 59.027807291655336,
      "v": 104
    },
    {
      "midi": 36,
      "hit": false,
      "t": 165632.0272604169,
      "d": 52.083359374984866,
      "v": 104
    },
    {
      "midi": 75,
      "hit": false,
      "t": 165642.44393229188,
      "d": 59.02780729162623,
      "v": 104
    },
    {
      "midi": 48,
      "hit": false,
      "t": 165645.9161562502,
      "d": 45.1389114583435,
      "v": 97
    },
    {
      "midi": 87,
      "hit": false,
      "t": 165652.86060416687,
      "d": 41.666687499993714,
      "v": 97
    },
    {
      "midi": 56,
      "hit": false,
      "t": 165951.4718645835,
      "d": 45.1389114583435,
      "v": 97
    },
    {
      "midi": 60,
      "hit": false,
      "t": 165951.4718645835,
      "d": 48.61113541666418,
      "v": 104
    },
    {
      "midi": 51,
      "hit": false,
      "t": 165961.8885364585,
      "d": 27.77779166668188,
      "v": 91
    },
    {
      "midi": 75,
      "hit": false,
      "t": 166069.52747916683,
      "d": 281.25014062490663,
      "v": 86
    },
    {
      "midi": 68,
      "hit": false,
      "t": 166072.99970312516,
      "d": 236.11122916659224,
      "v": 97
    },
    {
      "midi": 63,
      "hit": false,
      "t": 166079.94415104183,
      "d": 170.13897395829554,
      "v": 97
    },
    {
      "midi": 72,
      "hit": false,
      "t": 166083.41637500015,
      "d": 263.8890208332741,
      "v": 104
    },
    {
      "midi": 51,
      "hit": false,
      "t": 166229.24978125014,
      "d": 48.61113541663508,
      "v": 113
    },
    {
      "midi": 39,
      "hit": false,
      "t": 166243.13867708345,
      "d": 38.19446354164393,
      "v": 97
    },
    {
      "midi": 65,
      "hit": false,
      "t": 166382.02763541674,
      "d": 145.83340624996345,
      "v": 78
    },
    {
      "midi": 72,
      "hit": false,
      "t": 166489.66657812506,
      "d": 72.91670312496717,
      "v": 104
    },
    {
      "midi": 68,
      "hit": false,
      "t": 166496.61102604173,
      "d": 52.08335937495576,
      "v": 86
    },
    {
      "midi": 77,
      "hit": false,
      "t": 166510.49992187507,
      "d": 76.38892708325875,
      "v": 91
    },
    {
      "midi": 51,
      "hit": false,
      "t": 166520.91659375007,
      "d": 55.555583333276445,
      "v": 91
    },
    {
      "midi": 56,
      "hit": false,
      "t": 166534.80548958338,
      "d": 38.19446354164393,
      "v": 91
    },
    {
      "midi": 60,
      "hit": false,
      "t": 166538.2777135417,
      "d": 41.66668749996461,
      "v": 104
    },
    {
      "midi": 72,
      "hit": false,
      "t": 166788.27783854166,
      "d": 128.47228645830182,
      "v": 97
    },
    {
      "midi": 75,
      "hit": false,
      "t": 166791.75006249998,
      "d": 145.83340624999255,
      "v": 86
    },
    {
      "midi": 79,
      "hit": false,
      "t": 166798.69451041665,
      "d": 114.58339062498999,
      "v": 104
    },
    {
      "midi": 67,
      "hit": false,
      "t": 166802.16673437497,
      "d": 90.2778229166579,
      "v": 97
    },
    {
      "midi": 56,
      "hit": false,
      "t": 166826.4723020833,
      "d": 41.666687499993714,
      "v": 104
    },
    {
      "midi": 44,
      "hit": false,
      "t": 166829.94452604163,
      "d": 41.666687499993714,
      "v": 97
    },
    {
      "midi": 80,
      "hit": false,
      "t": 167086.88909895832,
      "d": 97.22227083329926,
      "v": 97
    },
    {
      "midi": 75,
      "hit": false,
      "t": 167093.833546875,
      "d": 83.33337499995832,
      "v": 86
    },
    {
      "midi": 68,
      "hit": false,
      "t": 167100.77799479166,
      "d": 52.083359374984866,
      "v": 97
    },
    {
      "midi": 60,
      "hit": false,
      "t": 167104.25021874998,
      "d": 55.55558333333465,
      "v": 97
    },
    {
      "midi": 51,
      "hit": false,
      "t": 167104.25021874998,
      "d": 59.027807291655336,
      "v": 82
    },
    {
      "midi": 56,
      "hit": false,
      "t": 167114.66689062497,
      "d": 52.083359374984866,
      "v": 82
    },
    {
      "midi": 70,
      "hit": false,
      "t": 167385.50035937494,
      "d": 62.500031249946915,
      "v": 97
    },
    {
      "midi": 75,
      "hit": false,
      "t": 167395.91703124993,
      "d": 41.666687499993714,
      "v": 82
    },
    {
      "midi": 56,
      "hit": false,
      "t": 167399.38925520825,
      "d": 41.666687499993714,
      "v": 97
    },
    {
      "midi": 82,
      "hit": false,
      "t": 167406.33370312492,
      "d": 38.19446354164393,
      "v": 104
    },
    {
      "midi": 44,
      "hit": false,
      "t": 167413.2781510416,
      "d": 38.19446354161482,
      "v": 91
    },
    {
      "midi": 75,
      "hit": false,
      "t": 167531.33376562488,
      "d": 48.61113541666418,
      "v": 97
    },
    {
      "midi": 84,
      "hit": false,
      "t": 167555.6393333332,
      "d": 38.19446354167303,
      "v": 97
    },
    {
      "midi": 54,
      "hit": false,
      "t": 167645.9171562499,
      "d": 55.55558333333465,
      "v": 97
    },
    {
      "midi": 42,
      "hit": false,
      "t": 167645.9171562499,
      "d": 62.50003125000512,
      "v": 97
    },
    {
      "midi": 73,
      "hit": false,
      "t": 167798.69501041656,
      "d": 156.2500781250128,
      "v": 113
    },
    {
      "midi": 85,
      "hit": false,
      "t": 167805.63945833323,
      "d": 184.02786979163648,
      "v": 104
    },
    {
      "midi": 41,
      "hit": false,
      "t": 167930.63952083324,
      "d": 55.55558333330555,
      "v": 104
    },
    {
      "midi": 53,
      "hit": false,
      "t": 167937.5839687499,
      "d": 59.02780729162623,
      "v": 104
    },
    {
      "midi": 85,
      "hit": false,
      "t": 168194.52854166654,
      "d": 69.44447916661738,
      "v": 104
    },
    {
      "midi": 61,
      "hit": false,
      "t": 168204.94521354153,
      "d": 52.083359374984866,
      "v": 91
    },
    {
      "midi": 97,
      "hit": false,
      "t": 168208.41743749985,
      "d": 59.02780729162623,
      "v": 104
    },
    {
      "midi": 53,
      "hit": false,
      "t": 168218.83410937485,
      "d": 31.25001562500256,
      "v": 97
    },
    {
      "midi": 56,
      "hit": false,
      "t": 168218.83410937485,
      "d": 41.666687499993714,
      "v": 74
    },
    {
      "midi": 96,
      "hit": false,
      "t": 168354.25084374982,
      "d": 48.61113541666418,
      "v": 113
    },
    {
      "midi": 84,
      "hit": false,
      "t": 168357.72306770814,
      "d": 38.19446354167303,
      "v": 113
    },
    {
      "midi": 51,
      "hit": false,
      "t": 168468.8342343748,
      "d": 45.138911458314396,
      "v": 91
    },
    {
      "midi": 39,
      "hit": false,
      "t": 168472.30645833313,
      "d": 48.61113541666418,
      "v": 97
    },
    {
      "midi": 82,
      "hit": false,
      "t": 168625.0843124998,
      "d": 48.61113541666418,
      "v": 91
    },
    {
      "midi": 94,
      "hit": false,
      "t": 168632.02876041646,
      "d": 38.19446354167303,
      "v": 91
    },
    {
      "midi": 49,
      "hit": false,
      "t": 168732.7232552081,
      "d": 59.027807291655336,
      "v": 97
    },
    {
      "midi": 37,
      "hit": false,
      "t": 168743.1399270831,
      "d": 52.083359374984866,
      "v": 97
    },
    {
      "midi": 92,
      "hit": false,
      "t": 168888.9733333331,
      "d": 138.88895833332208,
      "v": 86
    },
    {
      "midi": 87,
      "hit": false,
      "t": 168888.9733333331,
      "d": 145.83340624996345,
      "v": 82
    },
    {
      "midi": 84,
      "hit": false,
      "t": 168895.91778124977,
      "d": 156.2500781249546,
      "v": 104
    },
    {
      "midi": 80,
      "hit": false,
      "t": 168906.33445312476,
      "d": 149.30563020828413,
      "v": 104
    },
    {
      "midi": 36,
      "hit": false,
      "t": 169013.97339583308,
      "d": 52.08335937495576,
      "v": 104
    },
    {
      "midi": 48,
      "hit": false,
      "t": 169031.33451562474,
      "d": 31.250015624973457,
      "v": 82
    },
    {
      "midi": 87,
      "hit": false,
      "t": 169291.7513124997,
      "d": 86.805598958279,
      "v": 91
    },
    {
      "midi": 75,
      "hit": false,
      "t": 169295.223536458,
      "d": 62.50003124997602,
      "v": 97
    },
    {
      "midi": 80,
      "hit": false,
      "t": 169302.16798437468,
      "d": 48.61113541663508,
      "v": 91
    },
    {
      "midi": 84,
      "hit": false,
      "t": 169305.640208333,
      "d": 76.38892708328785,
      "v": 97
    },
    {
      "midi": 60,
      "hit": false,
      "t": 169316.056880208,
      "d": 48.61113541663508,
      "v": 113
    },
    {
      "midi": 48,
      "hit": false,
      "t": 169319.52910416631,
      "d": 41.666687499993714,
      "v": 97
    },
    {
      "midi": 80,
      "hit": false,
      "t": 169441.05694270795,
      "d": 76.38892708331696,
      "v": 91
    },
    {
      "midi": 84,
      "hit": false,
      "t": 169444.52916666627,
      "d": 93.75004687500768,
      "v": 91
    },
    {
      "midi": 87,
      "hit": false,
      "t": 169451.47361458294,
      "d": 93.75004687500768,
      "v": 97
    },
    {
      "midi": 75,
      "hit": false,
      "t": 169454.94583854126,
      "d": 52.08335937501397,
      "v": 91
    },
    {
      "midi": 48,
      "hit": false,
      "t": 169576.47367708295,
      "d": 48.61113541666418,
      "v": 97
    },
    {
      "midi": 60,
      "hit": false,
      "t": 169579.94590104127,
      "d": 52.08335937501397,
      "v": 113
    },
    {
      "midi": 74,
      "hit": false,
      "t": 169725.7793072913,
      "d": 55.55558333333465,
      "v": 113
    },
    {
      "midi": 86,
      "hit": false,
      "t": 169729.2515312496,
      "d": 55.55558333333465,
      "v": 113
    },
    {
      "midi": 47,
      "hit": false,
      "t": 169868.14048958293,
      "d": 34.72223958329414,
      "v": 104
    },
    {
      "midi": 59,
      "hit": false,
      "t": 169871.61271354125,
      "d": 27.777791666652774,
      "v": 113
    },
    {
      "midi": 79,
      "hit": false,
      "t": 170031.33501562456,
      "d": 159.72230208327528,
      "v": 104
    },
    {
      "midi": 85,
      "hit": false,
      "t": 170034.80723958288,
      "d": 121.52783854166046,
      "v": 91
    },
    {
      "midi": 82,
      "hit": false,
      "t": 170041.75168749955,
      "d": 121.52783854163135,
      "v": 82
    },
    {
      "midi": 73,
      "hit": false,
      "t": 170045.22391145787,
      "d": 149.30563020828413,
      "v": 104
    },
    {
      "midi": 46,
      "hit": false,
      "t": 170159.80730208286,
      "d": 62.500031249946915,
      "v": 97
    },
    {
      "midi": 58,
      "hit": false,
      "t": 170170.22397395785,
      "d": 48.61113541663508,
      "v": 113
    },
    {
      "midi": 75,
      "hit": false,
      "t": 170441.0574427078,
      "d": 83.33337499992922,
      "v": 86
    },
    {
      "midi": 67,
      "hit": false,
      "t": 170448.00189062447,
      "d": 79.86115104157943,
      "v": 104
    },
    {
      "midi": 63,
      "hit": false,
      "t": 170451.4741145828,
      "d": 48.61113541663508,
      "v": 91
    },
    {
      "midi": 61,
      "hit": false,
      "t": 170461.89078645778,
      "d": 48.61113541663508,
      "v": 91
    },
    {
      "midi": 51,
      "hit": false,
      "t": 170465.3630104161,
      "d": 48.61113541663508,
      "v": 91
    },
    {
      "midi": 55,
      "hit": false,
      "t": 170482.72413020776,
      "d": 24.30556770833209,
      "v": 104
    },
    {
      "midi": 75,
      "hit": false,
      "t": 170586.8908489577,
      "d": 190.97231770830695,
      "v": 86
    },
    {
      "midi": 67,
      "hit": false,
      "t": 170597.3075208327,
      "d": 187.50009374998626,
      "v": 86
    },
    {
      "midi": 70,
      "hit": false,
      "t": 170600.779744791,
      "d": 163.19452604165417,
      "v": 91
    },
    {
      "midi": 63,
      "hit": false,
      "t": 170607.72419270768,
      "d": 55.55558333333465,
      "v": 104
    },
    {
      "midi": 51,
      "hit": false,
      "t": 170750.08537499935,
      "d": 48.61113541666418,
      "v": 104
    },
    {
      "midi": 39,
      "hit": false,
      "t": 170760.50204687435,
      "d": 45.1389114583435,
      "v": 104
    },
    {
      "midi": 61,
      "hit": false,
      "t": 170892.44655729103,
      "d": 166.66674999994575,
      "v": 97
    },
    {
      "midi": 75,
      "hit": false,
      "t": 171013.9743958327,
      "d": 86.805598958279,
      "v": 97
    },
    {
      "midi": 67,
      "hit": false,
      "t": 171024.39106770768,
      "d": 79.86115104160854,
      "v": 104
    },
    {
      "midi": 51,
      "hit": false,
      "t": 171027.863291666,
      "d": 48.61113541663508,
      "v": 97
    },
    {
      "midi": 39,
      "hit": false,
      "t": 171034.80773958267,
      "d": 55.55558333330555,
      "v": 104
    },
    {
      "midi": 70,
      "hit": false,
      "t": 171038.279963541,
      "d": 59.027807291655336,
      "v": 68
    },
    {
      "midi": 60,
      "hit": false,
      "t": 171201.47448958262,
      "d": 107.63894270831952,
      "v": 97
    },
    {
      "midi": 63,
      "hit": false,
      "t": 171312.58565624926,
      "d": 52.08335937495576,
      "v": 113
    },
    {
      "midi": 68,
      "hit": false,
      "t": 171316.05788020758,
      "d": 62.500031249946915,
      "v": 113
    },
    {
      "midi": 44,
      "hit": false,
      "t": 171326.47455208257,
      "d": 41.66668749996461,
      "v": 113
    },
    {
      "midi": 87,
      "hit": false,
      "t": 171944.53041666586,
      "d": 65.9722552082676,
      "v": 97
    },
    {
      "midi": 92,
      "hit": false,
      "t": 171951.47486458253,
      "d": 65.9722552082676,
      "v": 104
    },
    {
      "midi": 80,
      "hit": false,
      "t": 171954.94708854085,
      "d": 48.611135416605975,
      "v": 113
    },
    {
      "midi": 32,
      "hit": false,
      "t": 171958.41931249917,
      "d": 38.19446354164393,
      "v": 113
    },
    {
      "midi": 84,
      "hit": false,
      "t": 171961.8915364575,
      "d": 59.02780729162623,
      "v": 113
    },
    {
      "midi": 44,
      "hit": false,
      "t": 171965.3637604158,
      "d": 34.722239583323244,
      "v": 121
    }
  ]
}