{
  "jsonPath": "Blues/Ragtime/Max Morath/swipesy-cake-walk.json",
  "path": "Blues\\Ragtime\\Max Morath\\Swipesy Cake Walk.mid",
  "name": "Swipesy Cake Walk",
  "difficulty": "Advanced",
  "bpm": 104.99992125005906,
  "notes": [
    {
      "midi": 67,
      "hit": false,
      "t": 138.09534166666666,
      "d": 47.61908333333335,
      "v": 101
    },
    {
      "midi": 55,
      "hit": false,
      "t": 147.61915833333333,
      "d": 38.095266666666674,
      "v": 84
    },
    {
      "midi": 43,
      "hit": false,
      "t": 157.142975,
      "d": 28.57145,
      "v": 84
    },
    {
      "midi": 67,
      "hit": false,
      "t": 476.19083333333333,
      "d": 590.4766333333334,
      "v": 101
    },
    {
      "midi": 43,
      "hit": false,
      "t": 485.71465,
      "d": 133.33343333333335,
      "v": 90
    },
    {
      "midi": 55,
      "hit": false,
      "t": 485.71465,
      "d": 171.42870000000005,
      "v": 84
    },
    {
      "midi": 45,
      "hit": false,
      "t": 1128.572275,
      "d": 38.0952666666667,
      "v": 86
    },
    {
      "midi": 57,
      "hit": false,
      "t": 1128.572275,
      "d": 47.619083333333265,
      "v": 84
    },
    {
      "midi": 69,
      "hit": false,
      "t": 1128.572275,
      "d": 57.14289999999983,
      "v": 107
    },
    {
      "midi": 71,
      "hit": false,
      "t": 1438.0963166666666,
      "d": 57.14289999999983,
      "v": 95
    },
    {
      "midi": 47,
      "hit": false,
      "t": 1447.6201333333331,
      "d": 38.0952666666667,
      "v": 86
    },
    {
      "midi": 59,
      "hit": false,
      "t": 1447.6201333333331,
      "d": 38.0952666666667,
      "v": 86
    },
    {
      "midi": 47,
      "hit": false,
      "t": 1766.6679916666662,
      "d": 61.90480833333322,
      "v": 90
    },
    {
      "midi": 59,
      "hit": false,
      "t": 1766.6679916666662,
      "d": 71.42862499999978,
      "v": 86
    },
    {
      "midi": 71,
      "hit": false,
      "t": 1766.6679916666662,
      "d": 80.95244166666635,
      "v": 101
    },
    {
      "midi": 77,
      "hit": false,
      "t": 2409.5256166666663,
      "d": 66.66671666666662,
      "v": 90
    },
    {
      "midi": 53,
      "hit": false,
      "t": 2419.049433333333,
      "d": 57.14289999999983,
      "v": 84
    },
    {
      "midi": 65,
      "hit": false,
      "t": 2419.049433333333,
      "d": 57.14289999999983,
      "v": 83
    },
    {
      "midi": 76,
      "hit": false,
      "t": 2747.621108333333,
      "d": 100.00007500000038,
      "v": 101
    },
    {
      "midi": 64,
      "hit": false,
      "t": 2766.6687416666664,
      "d": 52.38099166666689,
      "v": 80
    },
    {
      "midi": 52,
      "hit": false,
      "t": 2766.6687416666664,
      "d": 71.42862500000001,
      "v": 84
    },
    {
      "midi": 74,
      "hit": false,
      "t": 3447.621633333333,
      "d": 71.42862500000001,
      "v": 95
    },
    {
      "midi": 50,
      "hit": false,
      "t": 3457.14545,
      "d": 61.90480833333322,
      "v": 86
    },
    {
      "midi": 62,
      "hit": false,
      "t": 3457.14545,
      "d": 61.90480833333322,
      "v": 86
    },
    {
      "midi": 43,
      "hit": false,
      "t": 4138.098341666667,
      "d": 47.61908333333304,
      "v": 86
    },
    {
      "midi": 55,
      "hit": false,
      "t": 4138.098341666667,
      "d": 57.14289999999983,
      "v": 86
    },
    {
      "midi": 67,
      "hit": false,
      "t": 4138.098341666667,
      "d": 57.14289999999983,
      "v": 86
    },
    {
      "midi": 71,
      "hit": false,
      "t": 4138.098341666667,
      "d": 57.14289999999983,
      "v": 90
    },
    {
      "midi": 79,
      "hit": false,
      "t": 4138.098341666667,
      "d": 57.14289999999983,
      "v": 90
    },
    {
      "midi": 66,
      "hit": false,
      "t": 4519.051008333333,
      "d": 100.00007499999992,
      "v": 66
    },
    {
      "midi": 67,
      "hit": false,
      "t": 4666.670166666666,
      "d": 128.5715250000003,
      "v": 77
    },
    {
      "midi": 69,
      "hit": false,
      "t": 4819.051233333333,
      "d": 157.14297500000066,
      "v": 80
    },
    {
      "midi": 71,
      "hit": false,
      "t": 4957.146575,
      "d": 100.00007499999992,
      "v": 72
    },
    {
      "midi": 72,
      "hit": false,
      "t": 5119.051458333333,
      "d": 157.14297499999975,
      "v": 86
    },
    {
      "midi": 74,
      "hit": false,
      "t": 5266.670616666666,
      "d": 119.0477083333335,
      "v": 72
    },
    {
      "midi": 76,
      "hit": false,
      "t": 5428.5755,
      "d": 147.61915833333387,
      "v": 66
    },
    {
      "midi": 48,
      "hit": false,
      "t": 5447.6231333333335,
      "d": 38.09526666666716,
      "v": 82
    },
    {
      "midi": 60,
      "hit": false,
      "t": 5447.6231333333335,
      "d": 38.09526666666716,
      "v": 83
    },
    {
      "midi": 75,
      "hit": false,
      "t": 5609.528016666667,
      "d": 166.66679166666654,
      "v": 66
    },
    {
      "midi": 60,
      "hit": false,
      "t": 5738.099541666667,
      "d": 38.09526666666625,
      "v": 82
    },
    {
      "midi": 64,
      "hit": false,
      "t": 5738.099541666667,
      "d": 47.61908333333304,
      "v": 62
    },
    {
      "midi": 76,
      "hit": false,
      "t": 5738.099541666667,
      "d": 147.61915833333296,
      "v": 71
    },
    {
      "midi": 77,
      "hit": false,
      "t": 5909.528241666667,
      "d": 76.1905333333334,
      "v": 65
    },
    {
      "midi": 52,
      "hit": false,
      "t": 6047.623583333334,
      "d": 38.09526666666716,
      "v": 80
    },
    {
      "midi": 64,
      "hit": false,
      "t": 6047.623583333334,
      "d": 38.09526666666716,
      "v": 65
    },
    {
      "midi": 79,
      "hit": false,
      "t": 6057.147400000001,
      "d": 109.52389166666671,
      "v": 80
    },
    {
      "midi": 81,
      "hit": false,
      "t": 6219.052283333334,
      "d": 119.0477083333335,
      "v": 68
    },
    {
      "midi": 63,
      "hit": false,
      "t": 6338.099991666668,
      "d": 57.14289999999983,
      "v": 74
    },
    {
      "midi": 51,
      "hit": false,
      "t": 6357.147625000001,
      "d": 38.09526666666625,
      "v": 81
    },
    {
      "midi": 84,
      "hit": false,
      "t": 6357.147625000001,
      "d": 128.57152499999938,
      "v": 69
    },
    {
      "midi": 81,
      "hit": false,
      "t": 6509.528691666667,
      "d": 128.5715250000003,
      "v": 71
    },
    {
      "midi": 83,
      "hit": false,
      "t": 6638.100216666668,
      "d": 147.61915833333387,
      "v": 71
    },
    {
      "midi": 50,
      "hit": false,
      "t": 6657.147850000001,
      "d": 38.09526666666716,
      "v": 80
    },
    {
      "midi": 62,
      "hit": false,
      "t": 6666.671666666668,
      "d": 42.8571750000001,
      "v": 58
    },
    {
      "midi": 84,
      "hit": false,
      "t": 6795.243191666668,
      "d": 152.3810666666668,
      "v": 52
    },
    {
      "midi": 65,
      "hit": false,
      "t": 6947.624258333335,
      "d": 28.571450000000368,
      "v": 71
    },
    {
      "midi": 55,
      "hit": false,
      "t": 6947.624258333335,
      "d": 61.904808333333676,
      "v": 80
    },
    {
      "midi": 86,
      "hit": false,
      "t": 6947.624258333335,
      "d": 119.0477083333335,
      "v": 80
    },
    {
      "midi": 59,
      "hit": false,
      "t": 6957.148075000002,
      "d": 28.571450000000368,
      "v": 82
    },
    {
      "midi": 77,
      "hit": false,
      "t": 7119.0529583333355,
      "d": 109.52389166666671,
      "v": 83
    },
    {
      "midi": 43,
      "hit": false,
      "t": 7266.672116666668,
      "d": 52.38099166666689,
      "v": 83
    },
    {
      "midi": 81,
      "hit": false,
      "t": 7285.719750000002,
      "d": 180.95251666666627,
      "v": 83
    },
    {
      "midi": 79,
      "hit": false,
      "t": 7428.577000000002,
      "d": 119.0477083333326,
      "v": 77
    },
    {
      "midi": 65,
      "hit": false,
      "t": 7585.719975000001,
      "d": 42.8571750000001,
      "v": 69
    },
    {
      "midi": 55,
      "hit": false,
      "t": 7585.719975000001,
      "d": 52.38099166666689,
      "v": 80
    },
    {
      "midi": 59,
      "hit": false,
      "t": 7585.719975000001,
      "d": 52.38099166666689,
      "v": 82
    },
    {
      "midi": 74,
      "hit": false,
      "t": 7585.719975000001,
      "d": 171.4287000000004,
      "v": 86
    },
    {
      "midi": 75,
      "hit": false,
      "t": 7738.101041666668,
      "d": 138.09534166666708,
      "v": 68
    },
    {
      "midi": 76,
      "hit": false,
      "t": 7876.196383333335,
      "d": 133.33343333333323,
      "v": 72
    },
    {
      "midi": 48,
      "hit": false,
      "t": 7885.720200000002,
      "d": 42.8571750000001,
      "v": 82
    },
    {
      "midi": 60,
      "hit": false,
      "t": 7885.720200000002,
      "d": 42.8571750000001,
      "v": 83
    },
    {
      "midi": 75,
      "hit": false,
      "t": 8028.577450000002,
      "d": 128.5715250000003,
      "v": 63
    },
    {
      "midi": 60,
      "hit": false,
      "t": 8176.1966083333355,
      "d": 42.85717499999919,
      "v": 82
    },
    {
      "midi": 64,
      "hit": false,
      "t": 8176.1966083333355,
      "d": 52.38099166666507,
      "v": 65
    },
    {
      "midi": 76,
      "hit": false,
      "t": 8176.1966083333355,
      "d": 161.90488333333087,
      "v": 56
    },
    {
      "midi": 77,
      "hit": false,
      "t": 8347.625308333332,
      "d": 80.95244166666635,
      "v": 68
    },
    {
      "midi": 52,
      "hit": false,
      "t": 8509.530191666665,
      "d": 28.57144999999946,
      "v": 81
    },
    {
      "midi": 64,
      "hit": false,
      "t": 8509.530191666665,
      "d": 28.57144999999946,
      "v": 65
    },
    {
      "midi": 79,
      "hit": false,
      "t": 8509.530191666665,
      "d": 100.00007499999992,
      "v": 80
    },
    {
      "midi": 81,
      "hit": false,
      "t": 8666.673166666666,
      "d": 109.5238916666658,
      "v": 69
    },
    {
      "midi": 84,
      "hit": false,
      "t": 8809.530416666665,
      "d": 147.61915833333296,
      "v": 68
    },
    {
      "midi": 63,
      "hit": false,
      "t": 8819.05423333333,
      "d": 28.57144999999946,
      "v": 68
    },
    {
      "midi": 51,
      "hit": false,
      "t": 8819.05423333333,
      "d": 47.61908333333304,
      "v": 81
    },
    {
      "midi": 81,
      "hit": false,
      "t": 8957.149574999998,
      "d": 100.00007499999992,
      "v": 72
    },
    {
      "midi": 83,
      "hit": false,
      "t": 9109.530641666664,
      "d": 147.61915833333478,
      "v": 68
    },
    {
      "midi": 50,
      "hit": false,
      "t": 9128.578274999998,
      "d": 38.09526666666716,
      "v": 81
    },
    {
      "midi": 62,
      "hit": false,
      "t": 9128.578274999998,
      "d": 38.09526666666716,
      "v": 68
    },
    {
      "midi": 84,
      "hit": false,
      "t": 9257.1498,
      "d": 152.3810666666668,
      "v": 58
    },
    {
      "midi": 59,
      "hit": false,
      "t": 9409.530866666666,
      "d": 38.09526666666716,
      "v": 83
    },
    {
      "midi": 65,
      "hit": false,
      "t": 9409.530866666666,
      "d": 38.09526666666716,
      "v": 65
    },
    {
      "midi": 55,
      "hit": false,
      "t": 9409.530866666666,
      "d": 47.61908333333304,
      "v": 80
    },
    {
      "midi": 86,
      "hit": false,
      "t": 9409.530866666666,
      "d": 109.5238916666658,
      "v": 83
    },
    {
      "midi": 77,
      "hit": false,
      "t": 9576.19765833333,
      "d": 119.0477083333335,
      "v": 80
    },
    {
      "midi": 43,
      "hit": false,
      "t": 9738.102541666663,
      "d": 47.61908333333304,
      "v": 83
    },
    {
      "midi": 81,
      "hit": false,
      "t": 9738.102541666663,
      "d": 180.95251666666627,
      "v": 80
    },
    {
      "midi": 79,
      "hit": false,
      "t": 9885.721699999996,
      "d": 100.00007499999992,
      "v": 72
    },
    {
      "midi": 65,
      "hit": false,
      "t": 10038.102766666663,
      "d": 38.09526666666716,
      "v": 71
    },
    {
      "midi": 59,
      "hit": false,
      "t": 10038.102766666663,
      "d": 47.61908333333304,
      "v": 82
    },
    {
      "midi": 74,
      "hit": false,
      "t": 10038.102766666663,
      "d": 80.95244166666635,
      "v": 80
    },
    {
      "midi": 55,
      "hit": false,
      "t": 10057.150399999997,
      "d": 28.57144999999946,
      "v": 79
    },
    {
      "midi": 76,
      "hit": false,
      "t": 10176.19810833333,
      "d": 109.5238916666658,
      "v": 69
    },
    {
      "midi": 56,
      "hit": false,
      "t": 10347.626808333329,
      "d": 128.57152499999938,
      "v": 82
    },
    {
      "midi": 77,
      "hit": false,
      "t": 10347.626808333329,
      "d": 128.57152499999938,
      "v": 83
    },
    {
      "midi": 74,
      "hit": false,
      "t": 10476.198333333328,
      "d": 161.9048833333327,
      "v": 65
    },
    {
      "midi": 59,
      "hit": false,
      "t": 10509.531691666662,
      "d": 128.57152499999938,
      "v": 82
    },
    {
      "midi": 62,
      "hit": false,
      "t": 10638.103216666661,
      "d": 100.00007499999992,
      "v": 65
    },
    {
      "midi": 71,
      "hit": false,
      "t": 10638.103216666661,
      "d": 100.00007499999992,
      "v": 68
    },
    {
      "midi": 68,
      "hit": false,
      "t": 10766.67474166666,
      "d": 119.0477083333335,
      "v": 71
    },
    {
      "midi": 65,
      "hit": false,
      "t": 10785.722374999994,
      "d": 90.47625833333404,
      "v": 71
    },
    {
      "midi": 69,
      "hit": false,
      "t": 10919.055808333327,
      "d": 76.1905333333325,
      "v": 80
    },
    {
      "midi": 60,
      "hit": false,
      "t": 10938.10344166666,
      "d": 47.61908333333304,
      "v": 82
    },
    {
      "midi": 64,
      "hit": false,
      "t": 10947.627258333327,
      "d": 61.90480833333277,
      "v": 72
    },
    {
      "midi": 56,
      "hit": false,
      "t": 11595.24679166666,
      "d": 133.33343333333323,
      "v": 82
    },
    {
      "midi": 77,
      "hit": false,
      "t": 11595.24679166666,
      "d": 161.9048833333327,
      "v": 86
    },
    {
      "midi": 74,
      "hit": false,
      "t": 11728.580224999992,
      "d": 147.61915833333296,
      "v": 69
    },
    {
      "midi": 59,
      "hit": false,
      "t": 11776.199308333325,
      "d": 152.3810666666668,
      "v": 81
    },
    {
      "midi": 71,
      "hit": false,
      "t": 11876.199383333325,
      "d": 133.33343333333323,
      "v": 68
    },
    {
      "midi": 62,
      "hit": false,
      "t": 11928.580374999992,
      "d": 119.04770833333168,
      "v": 68
    },
    {
      "midi": 68,
      "hit": false,
      "t": 12038.104266666658,
      "d": 100.00007499999992,
      "v": 63
    },
    {
      "midi": 65,
      "hit": false,
      "t": 12066.675716666658,
      "d": 52.38099166666689,
      "v": 66
    },
    {
      "midi": 69,
      "hit": false,
      "t": 12195.247241666659,
      "d": 100.0000749999981,
      "v": 80
    },
    {
      "midi": 60,
      "hit": false,
      "t": 12219.056783333324,
      "d": 47.61908333333304,
      "v": 83
    },
    {
      "midi": 64,
      "hit": false,
      "t": 12219.056783333324,
      "d": 57.14289999999892,
      "v": 83
    },
    {
      "midi": 36,
      "hit": false,
      "t": 12895.247766666656,
      "d": 152.3810666666668,
      "v": 84
    },
    {
      "midi": 45,
      "hit": false,
      "t": 12909.533491666656,
      "d": 100.00007499999992,
      "v": 86
    },
    {
      "midi": 48,
      "hit": false,
      "t": 13047.628833333323,
      "d": 180.95251666666627,
      "v": 81
    },
    {
      "midi": 39,
      "hit": false,
      "t": 13057.152649999989,
      "d": 152.3810666666668,
      "v": 82
    },
    {
      "midi": 51,
      "hit": false,
      "t": 13176.200358333323,
      "d": 171.4287000000004,
      "v": 80
    },
    {
      "midi": 42,
      "hit": false,
      "t": 13209.533716666656,
      "d": 119.0477083333335,
      "v": 80
    },
    {
      "midi": 45,
      "hit": false,
      "t": 13347.629058333323,
      "d": 38.09526666666716,
      "v": 84
    },
    {
      "midi": 54,
      "hit": false,
      "t": 13347.629058333323,
      "d": 61.904808333334586,
      "v": 81
    },
    {
      "midi": 57,
      "hit": false,
      "t": 13538.105391666657,
      "d": 109.52389166666762,
      "v": 95
    },
    {
      "midi": 48,
      "hit": false,
      "t": 13557.15302499999,
      "d": 109.52389166666762,
      "v": 83
    },
    {
      "midi": 60,
      "hit": false,
      "t": 13666.676916666658,
      "d": 180.95251666666627,
      "v": 86
    },
    {
      "midi": 51,
      "hit": false,
      "t": 13676.200733333324,
      "d": 171.4287000000004,
      "v": 79
    },
    {
      "midi": 63,
      "hit": false,
      "t": 13795.248441666658,
      "d": 152.3810666666668,
      "v": 66
    },
    {
      "midi": 54,
      "hit": false,
      "t": 13847.629433333324,
      "d": 119.0477083333335,
      "v": 79
    },
    {
      "midi": 66,
      "hit": false,
      "t": 13938.105691666658,
      "d": 71.42862499999865,
      "v": 72
    },
    {
      "midi": 57,
      "hit": false,
      "t": 13995.248591666657,
      "d": 33.33335833333331,
      "v": 82
    },
    {
      "midi": 69,
      "hit": false,
      "t": 14138.105841666658,
      "d": 100.00007499999992,
      "v": 101
    },
    {
      "midi": 60,
      "hit": false,
      "t": 14157.153474999992,
      "d": 100.0000749999981,
      "v": 82
    },
    {
      "midi": 72,
      "hit": false,
      "t": 14266.677366666656,
      "d": 171.42869999999857,
      "v": 83
    },
    {
      "midi": 63,
      "hit": false,
      "t": 14266.677366666656,
      "d": 180.95251666666445,
      "v": 66
    },
    {
      "midi": 75,
      "hit": false,
      "t": 14409.534616666655,
      "d": 138.09534166666526,
      "v": 69
    },
    {
      "midi": 66,
      "hit": false,
      "t": 14447.62988333332,
      "d": 100.00007499999992,
      "v": 50
    },
    {
      "midi": 78,
      "hit": false,
      "t": 14538.106141666654,
      "d": 57.14289999999892,
      "v": 69
    },
    {
      "midi": 69,
      "hit": false,
      "t": 14566.677591666654,
      "d": 28.57144999999946,
      "v": 72
    },
    {
      "midi": 81,
      "hit": false,
      "t": 14728.582474999987,
      "d": 66.66671666666662,
      "v": 107
    },
    {
      "midi": 72,
      "hit": false,
      "t": 14747.63010833332,
      "d": 71.42862500000047,
      "v": 60
    },
    {
      "midi": 75,
      "hit": false,
      "t": 14819.05873333332,
      "d": 166.66679166666654,
      "v": 63
    },
    {
      "midi": 84,
      "hit": false,
      "t": 14857.153999999988,
      "d": 80.95244166666635,
      "v": 86
    },
    {
      "midi": 87,
      "hit": false,
      "t": 14995.249341666653,
      "d": 142.8572499999991,
      "v": 72
    },
    {
      "midi": 78,
      "hit": false,
      "t": 14995.249341666653,
      "d": 180.95251666666445,
      "v": 48
    },
    {
      "midi": 90,
      "hit": false,
      "t": 15128.582774999986,
      "d": 57.1428999999971,
      "v": 72
    },
    {
      "midi": 81,
      "hit": false,
      "t": 15147.630408333318,
      "d": 47.61908333333122,
      "v": 71
    },
    {
      "midi": 84,
      "hit": false,
      "t": 15285.725749999981,
      "d": 52.38099166666689,
      "v": 90
    },
    {
      "midi": 92,
      "hit": false,
      "t": 15285.725749999981,
      "d": 52.38099166666689,
      "v": 101
    },
    {
      "midi": 80,
      "hit": false,
      "t": 15319.059108333315,
      "d": 38.09526666666716,
      "v": 74
    },
    {
      "midi": 87,
      "hit": false,
      "t": 15595.249791666649,
      "d": 52.38099166666689,
      "v": 80
    },
    {
      "midi": 90,
      "hit": false,
      "t": 15595.249791666649,
      "d": 52.38099166666689,
      "v": 80
    },
    {
      "midi": 84,
      "hit": false,
      "t": 15595.249791666649,
      "d": 71.42862500000047,
      "v": 86
    },
    {
      "midi": 75,
      "hit": false,
      "t": 15619.059333333316,
      "d": 47.61908333333304,
      "v": 69
    },
    {
      "midi": 84,
      "hit": false,
      "t": 15747.630858333316,
      "d": 90.47625833333404,
      "v": 86
    },
    {
      "midi": 87,
      "hit": false,
      "t": 15747.630858333316,
      "d": 119.0477083333335,
      "v": 90
    },
    {
      "midi": 90,
      "hit": false,
      "t": 15747.630858333316,
      "d": 128.57152499999938,
      "v": 86
    },
    {
      "midi": 72,
      "hit": false,
      "t": 15895.250016666649,
      "d": 52.38099166666689,
      "v": 69
    },
    {
      "midi": 87,
      "hit": false,
      "t": 16038.10726666665,
      "d": 47.61908333333304,
      "v": 83
    },
    {
      "midi": 90,
      "hit": false,
      "t": 16038.10726666665,
      "d": 47.61908333333304,
      "v": 80
    },
    {
      "midi": 84,
      "hit": false,
      "t": 16047.631083333315,
      "d": 38.09526666666716,
      "v": 72
    },
    {
      "midi": 84,
      "hit": false,
      "t": 16166.678791666649,
      "d": 61.90480833333277,
      "v": 80
    },
    {
      "midi": 87,
      "hit": false,
      "t": 16166.678791666649,
      "d": 61.90480833333277,
      "v": 90
    },
    {
      "midi": 90,
      "hit": false,
      "t": 16166.678791666649,
      "d": 61.90480833333277,
      "v": 86
    },
    {
      "midi": 68,
      "hit": false,
      "t": 16176.202608333315,
      "d": 52.38099166666689,
      "v": 68
    },
    {
      "midi": 67,
      "hit": false,
      "t": 16476.202833333315,
      "d": 52.38099166666507,
      "v": 74
    },
    {
      "midi": 79,
      "hit": false,
      "t": 16476.202833333315,
      "d": 380.95266666666794,
      "v": 80
    },
    {
      "midi": 91,
      "hit": false,
      "t": 16476.202833333315,
      "d": 380.95266666666794,
      "v": 101
    },
    {
      "midi": 84,
      "hit": false,
      "t": 16476.202833333315,
      "d": 390.47648333333564,
      "v": 83
    },
    {
      "midi": 88,
      "hit": false,
      "t": 16476.202833333315,
      "d": 390.47648333333564,
      "v": 80
    },
    {
      "midi": 72,
      "hit": false,
      "t": 16795.250691666646,
      "d": 42.85717500000101,
      "v": 72
    },
    {
      "midi": 76,
      "hit": false,
      "t": 16795.250691666646,
      "d": 52.380991666668706,
      "v": 72
    },
    {
      "midi": 64,
      "hit": false,
      "t": 17095.25091666665,
      "d": 42.85717500000101,
      "v": 69
    },
    {
      "midi": 79,
      "hit": false,
      "t": 17095.25091666665,
      "d": 71.42862500000047,
      "v": 83
    },
    {
      "midi": 91,
      "hit": false,
      "t": 17109.53664166665,
      "d": 57.14289999999892,
      "v": 101
    },
    {
      "midi": 88,
      "hit": false,
      "t": 17247.63198333332,
      "d": 80.95244166666816,
      "v": 80
    },
    {
      "midi": 72,
      "hit": false,
      "t": 17395.251141666653,
      "d": 42.85717500000101,
      "v": 71
    },
    {
      "midi": 76,
      "hit": false,
      "t": 17395.251141666653,
      "d": 42.85717500000101,
      "v": 65
    },
    {
      "midi": 84,
      "hit": false,
      "t": 17395.251141666653,
      "d": 80.95244166666816,
      "v": 77
    },
    {
      "midi": 79,
      "hit": false,
      "t": 17547.63220833332,
      "d": 71.42862500000047,
      "v": 63
    },
    {
      "midi": 62,
      "hit": false,
      "t": 17685.72754999999,
      "d": 61.90480833333277,
      "v": 72
    },
    {
      "midi": 78,
      "hit": false,
      "t": 17685.72754999999,
      "d": 361.90503333333254,
      "v": 74
    },
    {
      "midi": 81,
      "hit": false,
      "t": 17709.537091666654,
      "d": 385.7145750000018,
      "v": 83
    },
    {
      "midi": 72,
      "hit": false,
      "t": 18009.537316666654,
      "d": 57.142900000002555,
      "v": 77
    },
    {
      "midi": 69,
      "hit": false,
      "t": 18019.06113333332,
      "d": 38.09526666666716,
      "v": 77
    },
    {
      "midi": 67,
      "hit": false,
      "t": 18319.06135833332,
      "d": 28.57144999999946,
      "v": 80
    },
    {
      "midi": 71,
      "hit": false,
      "t": 18319.06135833332,
      "d": 38.09526666666716,
      "v": 74
    },
    {
      "midi": 86,
      "hit": false,
      "t": 18319.06135833332,
      "d": 47.619083333334856,
      "v": 80
    },
    {
      "midi": 77,
      "hit": false,
      "t": 18328.58517499999,
      "d": 28.57144999999946,
      "v": 77
    },
    {
      "midi": 77,
      "hit": false,
      "t": 18476.204333333324,
      "d": 42.85717500000101,
      "v": 86
    },
    {
      "midi": 86,
      "hit": false,
      "t": 18476.204333333324,
      "d": 42.85717500000101,
      "v": 83
    },
    {
      "midi": 79,
      "hit": false,
      "t": 18776.204558333324,
      "d": 90.47625833333223,
      "v": 66
    },
    {
      "midi": 76,
      "hit": false,
      "t": 18909.537991666657,
      "d": 57.14289999999892,
      "v": 80
    },
    {
      "midi": 84,
      "hit": false,
      "t": 18909.537991666657,
      "d": 57.14289999999892,
      "v": 80
    },
    {
      "midi": 67,
      "hit": false,
      "t": 18928.58562499999,
      "d": 28.57144999999946,
      "v": 80
    },
    {
      "midi": 72,
      "hit": false,
      "t": 18928.58562499999,
      "d": 28.57144999999946,
      "v": 83
    },
    {
      "midi": 60,
      "hit": false,
      "t": 18928.58562499999,
      "d": 38.09526666666716,
      "v": 84
    },
    {
      "midi": 72,
      "hit": false,
      "t": 19257.157299999988,
      "d": 80.95244166666816,
      "v": 80
    },
    {
      "midi": 74,
      "hit": false,
      "t": 19395.252641666655,
      "d": 71.42862500000047,
      "v": 77
    },
    {
      "midi": 76,
      "hit": false,
      "t": 19528.58607499999,
      "d": 66.66671666666662,
      "v": 77
    },
    {
      "midi": 77,
      "hit": false,
      "t": 19685.729049999987,
      "d": 71.42862500000047,
      "v": 86
    },
    {
      "midi": 78,
      "hit": false,
      "t": 19838.110116666656,
      "d": 57.14289999999892,
      "v": 71
    },
    {
      "midi": 79,
      "hit": false,
      "t": 19957.157824999987,
      "d": 80.95244166666816,
      "v": 71
    },
    {
      "midi": 72,
      "hit": false,
      "t": 20109.538891666652,
      "d": 47.619083333334856,
      "v": 80
    },
    {
      "midi": 80,
      "hit": false,
      "t": 20109.538891666652,
      "d": 57.142900000002555,
      "v": 83
    },
    {
      "midi": 68,
      "hit": false,
      "t": 20119.06270833332,
      "d": 38.09526666666716,
      "v": 69
    },
    {
      "midi": 78,
      "hit": false,
      "t": 20419.06293333332,
      "d": 28.57144999999946,
      "v": 69
    },
    {
      "midi": 63,
      "hit": false,
      "t": 20428.586749999988,
      "d": 47.61908333333122,
      "v": 72
    },
    {
      "midi": 72,
      "hit": false,
      "t": 20557.158274999987,
      "d": 100.00007499999992,
      "v": 95
    },
    {
      "midi": 78,
      "hit": false,
      "t": 20557.158274999987,
      "d": 138.09534166666708,
      "v": 86
    },
    {
      "midi": 75,
      "hit": false,
      "t": 20557.158274999987,
      "d": 171.4287000000004,
      "v": 86
    },
    {
      "midi": 60,
      "hit": false,
      "t": 20709.539341666656,
      "d": 57.14289999999892,
      "v": 82
    },
    {
      "midi": 78,
      "hit": false,
      "t": 20857.158499999987,
      "d": 52.380991666668706,
      "v": 74
    },
    {
      "midi": 72,
      "hit": false,
      "t": 20866.682316666655,
      "d": 42.85717500000101,
      "v": 77
    },
    {
      "midi": 75,
      "hit": false,
      "t": 20866.682316666655,
      "d": 42.85717500000101,
      "v": 74
    },
    {
      "midi": 56,
      "hit": false,
      "t": 20995.253841666654,
      "d": 52.38099166666507,
      "v": 82
    },
    {
      "midi": 72,
      "hit": false,
      "t": 20995.253841666654,
      "d": 52.38099166666507,
      "v": 101
    },
    {
      "midi": 75,
      "hit": false,
      "t": 20995.253841666654,
      "d": 61.90480833333277,
      "v": 95
    },
    {
      "midi": 78,
      "hit": false,
      "t": 20995.253841666654,
      "d": 61.90480833333277,
      "v": 83
    },
    {
      "midi": 55,
      "hit": false,
      "t": 21295.254066666654,
      "d": 52.38099166666507,
      "v": 82
    },
    {
      "midi": 67,
      "hit": false,
      "t": 21295.254066666654,
      "d": 433.333658333333,
      "v": 71
    },
    {
      "midi": 72,
      "hit": false,
      "t": 21295.254066666654,
      "d": 442.8574750000007,
      "v": 80
    },
    {
      "midi": 76,
      "hit": false,
      "t": 21295.254066666654,
      "d": 442.8574750000007,
      "v": 74
    },
    {
      "midi": 79,
      "hit": false,
      "t": 21295.254066666654,
      "d": 442.8574750000007,
      "v": 86
    },
    {
      "midi": 60,
      "hit": false,
      "t": 21619.06383333332,
      "d": 47.619083333334856,
      "v": 83
    },
    {
      "midi": 64,
      "hit": false,
      "t": 21619.06383333332,
      "d": 57.142900000002555,
      "v": 71
    },
    {
      "midi": 52,
      "hit": false,
      "t": 21919.064058333322,
      "d": 57.142900000002555,
      "v": 82
    },
    {
      "midi": 67,
      "hit": false,
      "t": 21928.58787499999,
      "d": 66.66671666666662,
      "v": 83
    },
    {
      "midi": 79,
      "hit": false,
      "t": 21928.58787499999,
      "d": 90.47625833333223,
      "v": 101
    },
    {
      "midi": 76,
      "hit": false,
      "t": 22076.20703333332,
      "d": 133.33343333333323,
      "v": 68
    },
    {
      "midi": 64,
      "hit": false,
      "t": 22219.064283333322,
      "d": 57.142900000002555,
      "v": 71
    },
    {
      "midi": 60,
      "hit": false,
      "t": 22228.58809999999,
      "d": 38.09526666666716,
      "v": 82
    },
    {
      "midi": 72,
      "hit": false,
      "t": 22238.111916666658,
      "d": 80.95244166666816,
      "v": 77
    },
    {
      "midi": 67,
      "hit": false,
      "t": 22385.731074999992,
      "d": 80.95244166666816,
      "v": 71
    },
    {
      "midi": 50,
      "hit": false,
      "t": 22538.11214166666,
      "d": 71.42862500000047,
      "v": 83
    },
    {
      "midi": 66,
      "hit": false,
      "t": 22538.11214166666,
      "d": 300.0002249999998,
      "v": 74
    },
    {
      "midi": 69,
      "hit": false,
      "t": 22547.63595833333,
      "d": 328.5716749999956,
      "v": 80
    },
    {
      "midi": 60,
      "hit": false,
      "t": 22838.11236666666,
      "d": 71.42862499999683,
      "v": 83
    },
    {
      "midi": 57,
      "hit": false,
      "t": 22857.159999999993,
      "d": 28.57144999999946,
      "v": 84
    },
    {
      "midi": 55,
      "hit": false,
      "t": 23166.684041666656,
      "d": 42.85717500000101,
      "v": 82
    },
    {
      "midi": 59,
      "hit": false,
      "t": 23166.684041666656,
      "d": 42.85717500000101,
      "v": 84
    },
    {
      "midi": 65,
      "hit": false,
      "t": 23176.207858333324,
      "d": 33.33335833333331,
      "v": 80
    },
    {
      "midi": 74,
      "hit": false,
      "t": 23176.207858333324,
      "d": 42.85717500000101,
      "v": 80
    },
    {
      "midi": 65,
      "hit": false,
      "t": 23328.588924999993,
      "d": 38.09526666666716,
      "v": 86
    },
    {
      "midi": 74,
      "hit": false,
      "t": 23328.588924999993,
      "d": 38.09526666666716,
      "v": 90
    },
    {
      "midi": 67,
      "hit": false,
      "t": 23709.54159166666,
      "d": 38.09526666666716,
      "v": 66
    },
    {
      "midi": 48,
      "hit": false,
      "t": 23809.54166666666,
      "d": 38.09526666666716,
      "v": 84
    },
    {
      "midi": 60,
      "hit": false,
      "t": 23809.54166666666,
      "d": 38.09526666666716,
      "v": 84
    },
    {
      "midi": 64,
      "hit": false,
      "t": 23809.54166666666,
      "d": 47.619083333334856,
      "v": 86
    },
    {
      "midi": 72,
      "hit": false,
      "t": 23809.54166666666,
      "d": 57.142900000002555,
      "v": 101
    },
    {
      "midi": 66,
      "hit": false,
      "t": 24128.589524999996,
      "d": 109.52389166666762,
      "v": 65
    },
    {
      "midi": 67,
      "hit": false,
      "t": 24295.256316666662,
      "d": 133.33343333333323,
      "v": 83
    },
    {
      "midi": 69,
      "hit": false,
      "t": 24438.113566666663,
      "d": 147.61915833333478,
      "v": 80
    },
    {
      "midi": 71,
      "hit": false,
      "t": 24585.732724999998,
      "d": 100.00007499999992,
      "v": 74
    },
    {
      "midi": 72,
      "hit": false,
      "t": 24747.63760833333,
      "d": 161.90488333333633,
      "v": 83
    },
    {
      "midi": 74,
      "hit": false,
      "t": 24895.256766666665,
      "d": 142.85725000000093,
      "v": 72
    },
    {
      "midi": 76,
      "hit": false,
      "t": 25057.16165,
      "d": 161.9048833333327,
      "v": 72
    },
    {
      "midi": 48,
      "hit": false,
      "t": 25066.685466666666,
      "d": 42.85717499999737,
      "v": 81
    },
    {
      "midi": 60,
      "hit": false,
      "t": 25066.685466666666,
      "d": 42.85717499999737,
      "v": 82
    },
    {
      "midi": 75,
      "hit": false,
      "t": 25228.59035,
      "d": 128.57152499999938,
      "v": 66
    },
    {
      "midi": 76,
      "hit": false,
      "t": 25357.161874999998,
      "d": 152.38106666666863,
      "v": 62
    },
    {
      "midi": 60,
      "hit": false,
      "t": 25366.685691666666,
      "d": 42.85717500000101,
      "v": 81
    },
    {
      "midi": 64,
      "hit": false,
      "t": 25376.209508333333,
      "d": 42.85717500000101,
      "v": 63
    },
    {
      "midi": 77,
      "hit": false,
      "t": 25528.590575,
      "d": 90.47625833333223,
      "v": 60
    },
    {
      "midi": 64,
      "hit": false,
      "t": 25676.20973333333,
      "d": 33.33335833333331,
      "v": 62
    },
    {
      "midi": 52,
      "hit": false,
      "t": 25676.20973333333,
      "d": 42.85717500000101,
      "v": 80
    },
    {
      "midi": 79,
      "hit": false,
      "t": 25676.20973333333,
      "d": 100.00007499999992,
      "v": 80
    },
    {
      "midi": 81,
      "hit": false,
      "t": 25838.114616666662,
      "d": 109.52389166666762,
      "v": 74
    },
    {
      "midi": 63,
      "hit": false,
      "t": 25966.68614166666,
      "d": 52.380991666668706,
      "v": 72
    },
    {
      "midi": 51,
      "hit": false,
      "t": 25976.20995833333,
      "d": 42.85717500000101,
      "v": 81
    },
    {
      "midi": 84,
      "hit": false,
      "t": 25976.20995833333,
      "d": 142.85725000000093,
      "v": 71
    },
    {
      "midi": 81,
      "hit": false,
      "t": 26138.114841666662,
      "d": 119.04770833333168,
      "v": 68
    },
    {
      "midi": 50,
      "hit": false,
      "t": 26276.210183333325,
      "d": 42.85717500000101,
      "v": 81
    },
    {
      "midi": 83,
      "hit": false,
      "t": 26276.210183333325,
      "d": 161.90488333333633,
      "v": 66
    },
    {
      "midi": 62,
      "hit": false,
      "t": 26285.733999999993,
      "d": 42.85717500000101,
      "v": 68
    },
    {
      "midi": 84,
      "hit": false,
      "t": 26428.591249999994,
      "d": 138.09534166666708,
      "v": 62
    },
    {
      "midi": 65,
      "hit": false,
      "t": 26566.68659166666,
      "d": 28.57144999999946,
      "v": 69
    },
    {
      "midi": 59,
      "hit": false,
      "t": 26566.68659166666,
      "d": 42.85717500000101,
      "v": 82
    },
    {
      "midi": 55,
      "hit": false,
      "t": 26566.68659166666,
      "d": 52.380991666668706,
      "v": 80
    },
    {
      "midi": 86,
      "hit": false,
      "t": 26566.68659166666,
      "d": 109.52389166666762,
      "v": 80
    },
    {
      "midi": 77,
      "hit": false,
      "t": 26738.11529166666,
      "d": 109.52389166666762,
      "v": 80
    },
    {
      "midi": 81,
      "hit": false,
      "t": 26885.734449999996,
      "d": 180.9525166666681,
      "v": 80
    },
    {
      "midi": 43,
      "hit": false,
      "t": 26895.258266666664,
      "d": 42.85717500000101,
      "v": 82
    },
    {
      "midi": 79,
      "hit": false,
      "t": 27038.115516666665,
      "d": 100.00007499999992,
      "v": 74
    },
    {
      "midi": 65,
      "hit": false,
      "t": 27185.734675,
      "d": 42.85717500000101,
      "v": 69
    },
    {
      "midi": 55,
      "hit": false,
      "t": 27185.734675,
      "d": 61.90480833333277,
      "v": 79
    },
    {
      "midi": 59,
      "hit": false,
      "t": 27185.734675,
      "d": 61.90480833333277,
      "v": 82
    },
    {
      "midi": 74,
      "hit": false,
      "t": 27185.734675,
      "d": 190.47633333333215,
      "v": 86
    },
    {
      "midi": 75,
      "hit": false,
      "t": 27338.115741666665,
      "d": 157.14297499999884,
      "v": 69
    },
    {
      "midi": 60,
      "hit": false,
      "t": 27495.258716666664,
      "d": 52.38099166666507,
      "v": 82
    },
    {
      "midi": 76,
      "hit": false,
      "t": 27495.258716666664,
      "d": 171.4287000000004,
      "v": 71
    },
    {
      "midi": 48,
      "hit": false,
      "t": 27509.544441666665,
      "d": 47.61908333333122,
      "v": 79
    },
    {
      "midi": 75,
      "hit": false,
      "t": 27657.163599999996,
      "d": 138.09534166666708,
      "v": 72
    },
    {
      "midi": 76,
      "hit": false,
      "t": 27795.258941666663,
      "d": 152.38106666666863,
      "v": 65
    },
    {
      "midi": 60,
      "hit": false,
      "t": 27819.06848333333,
      "d": 28.57144999999946,
      "v": 82
    },
    {
      "midi": 64,
      "hit": false,
      "t": 27819.06848333333,
      "d": 38.09526666666716,
      "v": 68
    },
    {
      "midi": 77,
      "hit": false,
      "t": 27938.116191666664,
      "d": 90.47625833333586,
      "v": 74
    },
    {
      "midi": 79,
      "hit": false,
      "t": 28095.259166666667,
      "d": 80.95244166666453,
      "v": 86
    },
    {
      "midi": 52,
      "hit": false,
      "t": 28119.068708333332,
      "d": 28.57144999999946,
      "v": 82
    },
    {
      "midi": 64,
      "hit": false,
      "t": 28119.068708333332,
      "d": 28.57144999999946,
      "v": 71
    },
    {
      "midi": 81,
      "hit": false,
      "t": 28247.64023333333,
      "d": 71.42862500000047,
      "v": 80
    },
    {
      "midi": 84,
      "hit": false,
      "t": 28395.259391666666,
      "d": 123.80961666666917,
      "v": 72
    },
    {
      "midi": 63,
      "hit": false,
      "t": 28409.545116666668,
      "d": 28.57144999999946,
      "v": 71
    },
    {
      "midi": 51,
      "hit": false,
      "t": 28409.545116666668,
      "d": 38.09526666666716,
      "v": 82
    },
    {
      "midi": 81,
      "hit": false,
      "t": 28557.164275000003,
      "d": 61.90480833333277,
      "v": 77
    },
    {
      "midi": 83,
      "hit": false,
      "t": 28685.735800000002,
      "d": 152.38106666666863,
      "v": 69
    },
    {
      "midi": 50,
      "hit": false,
      "t": 28709.545341666668,
      "d": 38.09526666666716,
      "v": 82
    },
    {
      "midi": 62,
      "hit": false,
      "t": 28719.069158333336,
      "d": 38.09526666666716,
      "v": 69
    },
    {
      "midi": 84,
      "hit": false,
      "t": 28847.64068333334,
      "d": 147.61915833333478,
      "v": 52
    },
    {
      "midi": 59,
      "hit": false,
      "t": 28995.259841666673,
      "d": 33.33335833333331,
      "v": 82
    },
    {
      "midi": 65,
      "hit": false,
      "t": 28995.259841666673,
      "d": 33.33335833333331,
      "v": 66
    },
    {
      "midi": 55,
      "hit": false,
      "t": 28995.259841666673,
      "d": 52.38099166666507,
      "v": 81
    },
    {
      "midi": 86,
      "hit": false,
      "t": 28995.259841666673,
      "d": 123.80961666666553,
      "v": 80
    },
    {
      "midi": 77,
      "hit": false,
      "t": 29166.68854166667,
      "d": 119.04770833333168,
      "v": 86
    },
    {
      "midi": 43,
      "hit": false,
      "t": 29319.069608333335,
      "d": 47.619083333334856,
      "v": 82
    },
    {
      "midi": 81,
      "hit": false,
      "t": 29319.069608333335,
      "d": 176.19060833333424,
      "v": 80
    },
    {
      "midi": 79,
      "hit": false,
      "t": 29457.164950000002,
      "d": 109.52389166666762,
      "v": 77
    },
    {
      "midi": 55,
      "hit": false,
      "t": 29609.54601666667,
      "d": 47.61908333333122,
      "v": 81
    },
    {
      "midi": 65,
      "hit": false,
      "t": 29609.54601666667,
      "d": 47.61908333333122,
      "v": 80
    },
    {
      "midi": 59,
      "hit": false,
      "t": 29609.54601666667,
      "d": 57.14289999999892,
      "v": 83
    },
    {
      "midi": 74,
      "hit": false,
      "t": 29628.593650000003,
      "d": 66.66671666666662,
      "v": 90
    },
    {
      "midi": 76,
      "hit": false,
      "t": 29747.641358333334,
      "d": 109.52389166666762,
      "v": 69
    },
    {
      "midi": 56,
      "hit": false,
      "t": 29909.546241666667,
      "d": 138.09534166666708,
      "v": 81
    },
    {
      "midi": 77,
      "hit": false,
      "t": 29919.070058333335,
      "d": 128.57152499999938,
      "v": 83
    },
    {
      "midi": 74,
      "hit": false,
      "t": 30066.689216666666,
      "d": 161.9048833333327,
      "v": 65
    },
    {
      "midi": 59,
      "hit": false,
      "t": 30085.736849999998,
      "d": 152.38106666666863,
      "v": 79
    },
    {
      "midi": 71,
      "hit": false,
      "t": 30219.07028333333,
      "d": 90.47625833333586,
      "v": 68
    },
    {
      "midi": 62,
      "hit": false,
      "t": 30238.117916666666,
      "d": 100.00007499999992,
      "v": 63
    },
    {
      "midi": 68,
      "hit": false,
      "t": 30357.165624999998,
      "d": 138.09534166666708,
      "v": 69
    },
    {
      "midi": 65,
      "hit": false,
      "t": 30366.689441666666,
      "d": 71.42862500000047,
      "v": 69
    },
    {
      "midi": 69,
      "hit": false,
      "t": 30509.546691666666,
      "d": 76.19053333333432,
      "v": 80
    },
    {
      "midi": 64,
      "hit": false,
      "t": 30519.070508333334,
      "d": 66.66671666666662,
      "v": 80
    },
    {
      "midi": 60,
      "hit": false,
      "t": 30528.594325000002,
      "d": 28.57144999999946,
      "v": 82
    },
    {
      "midi": 56,
      "hit": false,
      "t": 31166.69004166667,
      "d": 128.57152499999938,
      "v": 82
    },
    {
      "midi": 77,
      "hit": false,
      "t": 31185.737675,
      "d": 142.85725000000093,
      "v": 80
    },
    {
      "midi": 74,
      "hit": false,
      "t": 31309.54729166667,
      "d": 138.09534166666344,
      "v": 69
    },
    {
      "midi": 59,
      "hit": false,
      "t": 31328.594925,
      "d": 147.61915833333114,
      "v": 82
    },
    {
      "midi": 71,
      "hit": false,
      "t": 31466.690266666665,
      "d": 90.47625833333223,
      "v": 63
    },
    {
      "midi": 62,
      "hit": false,
      "t": 31495.261716666664,
      "d": 90.47625833333223,
      "v": 68
    },
    {
      "midi": 68,
      "hit": false,
      "t": 31595.261791666664,
      "d": 114.28579999999783,
      "v": 62
    },
    {
      "midi": 65,
      "hit": false,
      "t": 31628.595149999997,
      "d": 57.14289999999892,
      "v": 65
    },
    {
      "midi": 69,
      "hit": false,
      "t": 31776.21430833333,
      "d": 80.95244166666816,
      "v": 83
    },
    {
      "midi": 64,
      "hit": false,
      "t": 31785.738124999996,
      "d": 61.90480833333277,
      "v": 83
    },
    {
      "midi": 60,
      "hit": false,
      "t": 31809.547666666662,
      "d": 38.09526666666716,
      "v": 81
    },
    {
      "midi": 36,
      "hit": false,
      "t": 32457.1672,
      "d": 119.04770833333168,
      "v": 84
    },
    {
      "midi": 45,
      "hit": false,
      "t": 32476.21483333333,
      "d": 90.47625833333223,
      "v": 84
    },
    {
      "midi": 39,
      "hit": false,
      "t": 32595.262541666663,
      "d": 161.90488333333633,
      "v": 81
    },
    {
      "midi": 48,
      "hit": false,
      "t": 32595.262541666663,
      "d": 180.95251666667173,
      "v": 84
    },
    {
      "midi": 42,
      "hit": false,
      "t": 32757.167425,
      "d": 119.04770833333896,
      "v": 80
    },
    {
      "midi": 51,
      "hit": false,
      "t": 32757.167425,
      "d": 161.9048833333436,
      "v": 79
    },
    {
      "midi": 45,
      "hit": false,
      "t": 32909.548491666676,
      "d": 28.571450000003097,
      "v": 84
    },
    {
      "midi": 54,
      "hit": false,
      "t": 32909.548491666676,
      "d": 57.14290000000619,
      "v": 81
    },
    {
      "midi": 57,
      "hit": false,
      "t": 33085.73910000001,
      "d": 100.00007500000356,
      "v": 101
    },
    {
      "midi": 48,
      "hit": false,
      "t": 33085.73910000001,
      "d": 123.80961666667281,
      "v": 83
    },
    {
      "midi": 60,
      "hit": false,
      "t": 33228.59635000002,
      "d": 157.14297500000248,
      "v": 84
    },
    {
      "midi": 51,
      "hit": false,
      "t": 33228.59635000002,
      "d": 166.66679166667018,
      "v": 80
    },
    {
      "midi": 63,
      "hit": false,
      "t": 33357.16787500002,
      "d": 152.3810666666759,
      "v": 65
    },
    {
      "midi": 54,
      "hit": false,
      "t": 33395.26314166669,
      "d": 142.8572500000082,
      "v": 79
    },
    {
      "midi": 66,
      "hit": false,
      "t": 33495.263216666695,
      "d": 71.42862500000774,
      "v": 72
    },
    {
      "midi": 57,
      "hit": false,
      "t": 33557.168025000035,
      "d": 28.571450000003097,
      "v": 82
    },
    {
      "midi": 69,
      "hit": false,
      "t": 33685.73955000004,
      "d": 90.47625833333586,
      "v": 101
    },
    {
      "midi": 60,
      "hit": false,
      "t": 33719.07290833338,
      "d": 119.04770833333896,
      "v": 82
    },
    {
      "midi": 72,
      "hit": false,
      "t": 33819.07298333338,
      "d": 157.14297500000248,
      "v": 83
    },
    {
      "midi": 63,
      "hit": false,
      "t": 33838.12061666672,
      "d": 180.95251666667173,
      "v": 63
    },
    {
      "midi": 75,
      "hit": false,
      "t": 33957.16832500005,
      "d": 152.3810666666759,
      "v": 68
    },
    {
      "midi": 66,
      "hit": false,
      "t": 34009.54931666672,
      "d": 109.52389166667126,
      "v": 60
    },
    {
      "midi": 78,
      "hit": false,
      "t": 34085.739850000056,
      "d": 71.42862500000774,
      "v": 71
    },
    {
      "midi": 69,
      "hit": false,
      "t": 34147.6446583334,
      "d": 28.571450000003097,
      "v": 74
    },
    {
      "midi": 81,
      "hit": false,
      "t": 34276.2161833334,
      "d": 71.42862500000047,
      "v": 104
    },
    {
      "midi": 72,
      "hit": false,
      "t": 34309.54954166674,
      "d": 76.19053333332704,
      "v": 62
    },
    {
      "midi": 75,
      "hit": false,
      "t": 34409.549616666736,
      "d": 147.61915833333478,
      "v": 62
    },
    {
      "midi": 84,
      "hit": false,
      "t": 34428.59725000007,
      "d": 47.61908333333122,
      "v": 86
    },
    {
      "midi": 87,
      "hit": false,
      "t": 34566.69259166674,
      "d": 61.90480833333277,
      "v": 77
    },
    {
      "midi": 78,
      "hit": false,
      "t": 34585.740225000074,
      "d": 133.33343333333323,
      "v": 50
    },
    {
      "midi": 90,
      "hit": false,
      "t": 34695.26411666674,
      "d": 52.380991666672344,
      "v": 83
    },
    {
      "midi": 81,
      "hit": false,
      "t": 34728.597475000075,
      "d": 28.571450000003097,
      "v": 69
    },
    {
      "midi": 84,
      "hit": false,
      "t": 34847.645183333414,
      "d": 47.619083333338494,
      "v": 72
    },
    {
      "midi": 92,
      "hit": false,
      "t": 34847.645183333414,
      "d": 47.619083333338494,
      "v": 101
    },
    {
      "midi": 80,
      "hit": false,
      "t": 34876.21663333342,
      "d": 33.333358333336946,
      "v": 71
    },
    {
      "midi": 84,
      "hit": false,
      "t": 35147.64540833342,
      "d": 47.619083333338494,
      "v": 80
    },
    {
      "midi": 87,
      "hit": false,
      "t": 35147.64540833342,
      "d": 47.619083333338494,
      "v": 86
    },
    {
      "midi": 90,
      "hit": false,
      "t": 35147.64540833342,
      "d": 47.619083333338494,
      "v": 83
    },
    {
      "midi": 75,
      "hit": false,
      "t": 35166.69304166675,
      "d": 42.857175000004645,
      "v": 66
    },
    {
      "midi": 84,
      "hit": false,
      "t": 35295.26456666676,
      "d": 71.42862500000047,
      "v": 101
    },
    {
      "midi": 87,
      "hit": false,
      "t": 35295.26456666676,
      "d": 80.95244166666816,
      "v": 90
    },
    {
      "midi": 90,
      "hit": false,
      "t": 35295.26456666676,
      "d": 80.95244166666816,
      "v": 95
    },
    {
      "midi": 72,
      "hit": false,
      "t": 35419.074183333425,
      "d": 47.61908333333122,
      "v": 68
    },
    {
      "midi": 87,
      "hit": false,
      "t": 35576.21715833342,
      "d": 42.857175000004645,
      "v": 77
    },
    {
      "midi": 90,
      "hit": false,
      "t": 35576.21715833342,
      "d": 42.857175000004645,
      "v": 80
    },
    {
      "midi": 84,
      "hit": false,
      "t": 35585.74097500009,
      "d": 33.333358333336946,
      "v": 71
    },
    {
      "midi": 84,
      "hit": false,
      "t": 35709.55059166676,
      "d": 47.61908333333122,
      "v": 101
    },
    {
      "midi": 87,
      "hit": false,
      "t": 35709.55059166676,
      "d": 47.61908333333122,
      "v": 101
    },
    {
      "midi": 90,
      "hit": false,
      "t": 35709.55059166676,
      "d": 47.61908333333122,
      "v": 86
    },
    {
      "midi": 68,
      "hit": false,
      "t": 35719.07440833343,
      "d": 57.14289999999892,
      "v": 69
    },
    {
      "midi": 67,
      "hit": false,
      "t": 36028.59845000009,
      "d": 47.61908333333122,
      "v": 74
    },
    {
      "midi": 79,
      "hit": false,
      "t": 36028.59845000009,
      "d": 400.0002999999997,
      "v": 86
    },
    {
      "midi": 91,
      "hit": false,
      "t": 36028.59845000009,
      "d": 409.5241166666674,
      "v": 101
    },
    {
      "midi": 88,
      "hit": false,
      "t": 36028.59845000009,
      "d": 419.0479333333351,
      "v": 80
    },
    {
      "midi": 84,
      "hit": false,
      "t": 36028.59845000009,
      "d": 428.5717500000028,
      "v": 86
    },
    {
      "midi": 72,
      "hit": false,
      "t": 36347.646308333424,
      "d": 38.09526666666352,
      "v": 74
    },
    {
      "midi": 76,
      "hit": false,
      "t": 36347.646308333424,
      "d": 47.61908333333122,
      "v": 72
    },
    {
      "midi": 64,
      "hit": false,
      "t": 36638.12271666677,
      "d": 47.619083333338494,
      "v": 74
    },
    {
      "midi": 79,
      "hit": false,
      "t": 36657.1703500001,
      "d": 52.380991666672344,
      "v": 80
    },
    {
      "midi": 91,
      "hit": false,
      "t": 36657.1703500001,
      "d": 52.380991666672344,
      "v": 101
    },
    {
      "midi": 88,
      "hit": false,
      "t": 36785.74187500011,
      "d": 71.42862500000047,
      "v": 74
    },
    {
      "midi": 76,
      "hit": false,
      "t": 36938.12294166678,
      "d": 47.61908333333122,
      "v": 68
    },
    {
      "midi": 72,
      "hit": false,
      "t": 36947.646758333445,
      "d": 38.09526666666352,
      "v": 66
    },
    {
      "midi": 84,
      "hit": false,
      "t": 36947.646758333445,
      "d": 71.42862500000047,
      "v": 74
    },
    {
      "midi": 79,
      "hit": false,
      "t": 37085.74210000011,
      "d": 80.95244166666816,
      "v": 69
    },
    {
      "midi": 78,
      "hit": false,
      "t": 37238.12316666678,
      "d": 347.6193083333419,
      "v": 72
    },
    {
      "midi": 62,
      "hit": false,
      "t": 37247.64698333345,
      "d": 47.619083333338494,
      "v": 65
    },
    {
      "midi": 81,
      "hit": false,
      "t": 37247.64698333345,
      "d": 371.42885000001115,
      "v": 80
    },
    {
      "midi": 69,
      "hit": false,
      "t": 37557.17102500012,
      "d": 38.095266666670796,
      "v": 80
    },
    {
      "midi": 72,
      "hit": false,
      "t": 37557.17102500012,
      "d": 52.380991666672344,
      "v": 74
    },
    {
      "midi": 67,
      "hit": false,
      "t": 37857.17125000012,
      "d": 28.571450000003097,
      "v": 77
    },
    {
      "midi": 71,
      "hit": false,
      "t": 37857.17125000012,
      "d": 28.571450000003097,
      "v": 77
    },
    {
      "midi": 77,
      "hit": false,
      "t": 37857.17125000012,
      "d": 38.095266666670796,
      "v": 80
    },
    {
      "midi": 86,
      "hit": false,
      "t": 37857.17125000012,
      "d": 38.095266666670796,
      "v": 80
    },
    {
      "midi": 86,
      "hit": false,
      "t": 38009.55231666679,
      "d": 47.619083333338494,
      "v": 90
    },
    {
      "midi": 77,
      "hit": false,
      "t": 38019.07613333346,
      "d": 28.571450000003097,
      "v": 83
    },
    {
      "midi": 79,
      "hit": false,
      "t": 38319.07635833346,
      "d": 47.61908333333122,
      "v": 74
    },
    {
      "midi": 84,
      "hit": false,
      "t": 38457.17170000013,
      "d": 38.095266666670796,
      "v": 86
    },
    {
      "midi": 76,
      "hit": false,
      "t": 38457.17170000013,
      "d": 61.90480833334004,
      "v": 83
    },
    {
      "midi": 67,
      "hit": false,
      "t": 38466.6955166668,
      "d": 42.857175000004645,
      "v": 80
    },
    {
      "midi": 72,
      "hit": false,
      "t": 38466.6955166668,
      "d": 42.857175000004645,
      "v": 83
    },
    {
      "midi": 60,
      "hit": false,
      "t": 38466.6955166668,
      "d": 52.380991666672344,
      "v": 84
    },
    {
      "midi": 72,
      "hit": false,
      "t": 38795.267191666804,
      "d": 90.47625833333586,
      "v": 77
    },
    {
      "midi": 72,
      "hit": false,
      "t": 38947.64825833347,
      "d": 47.61908333333122,
      "v": 56
    },
    {
      "midi": 74,
      "hit": false,
      "t": 38947.64825833347,
      "d": 47.61908333333122,
      "v": 68
    },
    {
      "midi": 76,
      "hit": false,
      "t": 39095.26741666681,
      "d": 71.42862500000047,
      "v": 77
    },
    {
      "midi": 77,
      "hit": false,
      "t": 39228.60085000014,
      "d": 80.95244166666816,
      "v": 95
    },
    {
      "midi": 78,
      "hit": false,
      "t": 39376.220008333476,
      "d": 61.90480833333277,
      "v": 86
    },
    {
      "midi": 79,
      "hit": false,
      "t": 39519.07725833348,
      "d": 57.14289999999892,
      "v": 83
    },
    {
      "midi": 72,
      "hit": false,
      "t": 39666.69641666681,
      "d": 42.857175000004645,
      "v": 90
    },
    {
      "midi": 80,
      "hit": false,
      "t": 39666.69641666681,
      "d": 61.90480833334004,
      "v": 90
    },
    {
      "midi": 68,
      "hit": false,
      "t": 39685.74405000015,
      "d": 33.333358333336946,
      "v": 66
    },
    {
      "midi": 75,
      "hit": false,
      "t": 39957.172825000154,
      "d": 52.380991666672344,
      "v": 77
    },
    {
      "midi": 78,
      "hit": false,
      "t": 39957.172825000154,
      "d": 52.380991666672344,
      "v": 77
    },
    {
      "midi": 72,
      "hit": false,
      "t": 39966.69664166682,
      "d": 42.857175000004645,
      "v": 74
    },
    {
      "midi": 63,
      "hit": false,
      "t": 39976.22045833349,
      "d": 33.333358333336946,
      "v": 68
    },
    {
      "midi": 72,
      "hit": false,
      "t": 40109.55389166683,
      "d": 147.61915833333478,
      "v": 95
    },
    {
      "midi": 75,
      "hit": false,
      "t": 40109.55389166683,
      "d": 166.66679166667018,
      "v": 83
    },
    {
      "midi": 78,
      "hit": false,
      "t": 40109.55389166683,
      "d": 176.19060833333788,
      "v": 77
    },
    {
      "midi": 60,
      "hit": false,
      "t": 40276.2206833335,
      "d": 71.42862500000047,
      "v": 83
    },
    {
      "midi": 72,
      "hit": false,
      "t": 40395.26839166683,
      "d": 52.38099166666507,
      "v": 80
    },
    {
      "midi": 75,
      "hit": false,
      "t": 40395.26839166683,
      "d": 52.38099166666507,
      "v": 77
    },
    {
      "midi": 78,
      "hit": false,
      "t": 40395.26839166683,
      "d": 52.38099166666507,
      "v": 83
    },
    {
      "midi": 72,
      "hit": false,
      "t": 40538.12564166683,
      "d": 57.14289999999892,
      "v": 101
    },
    {
      "midi": 75,
      "hit": false,
      "t": 40538.12564166683,
      "d": 71.42862500000047,
      "v": 86
    },
    {
      "midi": 78,
      "hit": false,
      "t": 40538.12564166683,
      "d": 71.42862500000047,
      "v": 80
    },
    {
      "midi": 56,
      "hit": false,
      "t": 40557.17327500017,
      "d": 52.38099166666507,
      "v": 82
    },
    {
      "midi": 79,
      "hit": false,
      "t": 40828.60205000017,
      "d": 428.5717500000028,
      "v": 86
    },
    {
      "midi": 67,
      "hit": false,
      "t": 40838.12586666684,
      "d": 400.0002999999997,
      "v": 80
    },
    {
      "midi": 72,
      "hit": false,
      "t": 40838.12586666684,
      "d": 419.0479333333351,
      "v": 80
    },
    {
      "midi": 76,
      "hit": false,
      "t": 40838.12586666684,
      "d": 419.0479333333351,
      "v": 72
    },
    {
      "midi": 55,
      "hit": false,
      "t": 40847.649683333504,
      "d": 47.61908333333122,
      "v": 83
    },
    {
      "midi": 60,
      "hit": false,
      "t": 41157.17372500017,
      "d": 38.09526666666352,
      "v": 83
    },
    {
      "midi": 64,
      "hit": false,
      "t": 41157.17372500017,
      "d": 52.38099166666507,
      "v": 72
    },
    {
      "midi": 52,
      "hit": false,
      "t": 41466.69776666684,
      "d": 42.857175000004645,
      "v": 78
    },
    {
      "midi": 67,
      "hit": false,
      "t": 41466.69776666684,
      "d": 61.90480833334004,
      "v": 90
    },
    {
      "midi": 79,
      "hit": false,
      "t": 41466.69776666684,
      "d": 109.52389166667126,
      "v": 101
    },
    {
      "midi": 76,
      "hit": false,
      "t": 41609.55501666685,
      "d": 128.57152499999938,
      "v": 68
    },
    {
      "midi": 60,
      "hit": false,
      "t": 41757.17417500018,
      "d": 38.095266666670796,
      "v": 82
    },
    {
      "midi": 64,
      "hit": false,
      "t": 41757.17417500018,
      "d": 52.380991666672344,
      "v": 68
    },
    {
      "midi": 72,
      "hit": false,
      "t": 41766.69799166685,
      "d": 80.95244166667544,
      "v": 80
    },
    {
      "midi": 67,
      "hit": false,
      "t": 41919.079058333526,
      "d": 66.66671666666662,
      "v": 72
    },
    {
      "midi": 50,
      "hit": false,
      "t": 42066.69821666686,
      "d": 61.90480833333277,
      "v": 82
    },
    {
      "midi": 66,
      "hit": false,
      "t": 42066.69821666686,
      "d": 319.04785833333153,
      "v": 71
    },
    {
      "midi": 69,
      "hit": false,
      "t": 42066.69821666686,
      "d": 352.3812166666685,
      "v": 80
    },
    {
      "midi": 60,
      "hit": false,
      "t": 42366.69844166686,
      "d": 71.42862500000774,
      "v": 84
    },
    {
      "midi": 57,
      "hit": false,
      "t": 42376.222258333524,
      "d": 42.857175000004645,
      "v": 82
    },
    {
      "midi": 55,
      "hit": false,
      "t": 42685.746300000195,
      "d": 33.333358333336946,
      "v": 82
    },
    {
      "midi": 59,
      "hit": false,
      "t": 42685.746300000195,
      "d": 42.857175000004645,
      "v": 83
    },
    {
      "midi": 65,
      "hit": false,
      "t": 42685.746300000195,
      "d": 42.857175000004645,
      "v": 86
    },
    {
      "midi": 74,
      "hit": false,
      "t": 42685.746300000195,
      "d": 42.857175000004645,
      "v": 77
    },
    {
      "midi": 74,
      "hit": false,
      "t": 42828.6035500002,
      "d": 66.66671666666662,
      "v": 65
    },
    {
      "midi": 65,
      "hit": false,
      "t": 42838.12736666687,
      "d": 57.14289999999892,
      "v": 90
    },
    {
      "midi": 67,
      "hit": false,
      "t": 43176.22285833354,
      "d": 61.90480833333277,
      "v": 71
    },
    {
      "midi": 72,
      "hit": false,
      "t": 43285.7467500002,
      "d": 71.42862500000047,
      "v": 90
    },
    {
      "midi": 48,
      "hit": false,
      "t": 43295.27056666687,
      "d": 42.85717499999737,
      "v": 84
    },
    {
      "midi": 60,
      "hit": false,
      "t": 43295.27056666687,
      "d": 42.85717499999737,
      "v": 84
    },
    {
      "midi": 64,
      "hit": false,
      "t": 43295.27056666687,
      "d": 42.85717499999737,
      "v": 80
    },
    {
      "midi": 79,
      "hit": false,
      "t": 43619.080333333535,
      "d": 47.61908333333122,
      "v": 90
    },
    {
      "midi": 67,
      "hit": false,
      "t": 43619.080333333535,
      "d": 57.14289999999892,
      "v": 95
    },
    {
      "midi": 67,
      "hit": false,
      "t": 43766.69949166687,
      "d": 42.85717499999737,
      "v": 95
    },
    {
      "midi": 79,
      "hit": false,
      "t": 43766.69949166687,
      "d": 42.85717499999737,
      "v": 95
    },
    {
      "midi": 67,
      "hit": false,
      "t": 43885.7472000002,
      "d": 42.85717499999737,
      "v": 86
    },
    {
      "midi": 79,
      "hit": false,
      "t": 43885.7472000002,
      "d": 61.90480833333277,
      "v": 95
    },
    {
      "midi": 79,
      "hit": false,
      "t": 44195.27124166687,
      "d": 52.38099166666507,
      "v": 101
    },
    {
      "midi": 91,
      "hit": false,
      "t": 44195.27124166687,
      "d": 61.90480833333277,
      "v": 104
    },
    {
      "midi": 49,
      "hit": false,
      "t": 44209.556966666874,
      "d": 47.61908333333122,
      "v": 80
    },
    {
      "midi": 61,
      "hit": false,
      "t": 44209.556966666874,
      "d": 57.14289999999892,
      "v": 80
    },
    {
      "midi": 79,
      "hit": false,
      "t": 44385.747575000205,
      "d": 100.00007499999629,
      "v": 80
    },
    {
      "midi": 83,
      "hit": false,
      "t": 44438.12856666687,
      "d": 119.04770833333896,
      "v": 77
    },
    {
      "midi": 50,
      "hit": false,
      "t": 44519.08100833354,
      "d": 38.095266666670796,
      "v": 82
    },
    {
      "midi": 91,
      "hit": false,
      "t": 44519.08100833354,
      "d": 200.00015000000712,
      "v": 101
    },
    {
      "midi": 62,
      "hit": false,
      "t": 44528.604825000206,
      "d": 47.619083333338494,
      "v": 74
    },
    {
      "midi": 89,
      "hit": false,
      "t": 44666.70016666688,
      "d": 119.04770833333168,
      "v": 76
    },
    {
      "midi": 59,
      "hit": false,
      "t": 44785.74787500021,
      "d": 42.857175000004645,
      "v": 83
    },
    {
      "midi": 65,
      "hit": false,
      "t": 44785.74787500021,
      "d": 42.857175000004645,
      "v": 77
    },
    {
      "midi": 86,
      "hit": false,
      "t": 44785.74787500021,
      "d": 180.95251666667173,
      "v": 74
    },
    {
      "midi": 55,
      "hit": false,
      "t": 44809.55741666688,
      "d": 38.095266666670796,
      "v": 80
    },
    {
      "midi": 83,
      "hit": false,
      "t": 44928.60512500022,
      "d": 138.09534166666708,
      "v": 77
    },
    {
      "midi": 79,
      "hit": false,
      "t": 45085.74810000022,
      "d": 61.90480833333277,
      "v": 80
    },
    {
      "midi": 43,
      "hit": false,
      "t": 45095.27191666689,
      "d": 42.85717499999737,
      "v": 82
    },
    {
      "midi": 77,
      "hit": false,
      "t": 45238.12916666689,
      "d": 147.61915833333478,
      "v": 77
    },
    {
      "midi": 65,
      "hit": false,
      "t": 45376.22450833356,
      "d": 42.857175000004645,
      "v": 74
    },
    {
      "midi": 55,
      "hit": false,
      "t": 45376.22450833356,
      "d": 52.380991666672344,
      "v": 80
    },
    {
      "midi": 59,
      "hit": false,
      "t": 45376.22450833356,
      "d": 52.380991666672344,
      "v": 84
    },
    {
      "midi": 74,
      "hit": false,
      "t": 45376.22450833356,
      "d": 109.52389166667126,
      "v": 74
    },
    {
      "midi": 71,
      "hit": false,
      "t": 45528.60557500023,
      "d": 57.14289999999892,
      "v": 69
    },
    {
      "midi": 48,
      "hit": false,
      "t": 45666.700916666894,
      "d": 42.857175000004645,
      "v": 82
    },
    {
      "midi": 72,
      "hit": false,
      "t": 45666.700916666894,
      "d": 109.52389166667126,
      "v": 74
    },
    {
      "midi": 76,
      "hit": false,
      "t": 45666.700916666894,
      "d": 109.52389166667126,
      "v": 74
    },
    {
      "midi": 60,
      "hit": false,
      "t": 45685.74855000023,
      "d": 42.857175000004645,
      "v": 81
    },
    {
      "midi": 76,
      "hit": false,
      "t": 45957.17732500023,
      "d": 52.380991666672344,
      "v": 62
    },
    {
      "midi": 64,
      "hit": false,
      "t": 45966.7011416669,
      "d": 28.571450000003097,
      "v": 66
    },
    {
      "midi": 60,
      "hit": false,
      "t": 45966.7011416669,
      "d": 42.857175000004645,
      "v": 81
    },
    {
      "midi": 69,
      "hit": false,
      "t": 45966.7011416669,
      "d": 42.857175000004645,
      "v": 68
    },
    {
      "midi": 72,
      "hit": false,
      "t": 45966.7011416669,
      "d": 42.857175000004645,
      "v": 66
    },
    {
      "midi": 55,
      "hit": false,
      "t": 45966.7011416669,
      "d": 61.90480833334004,
      "v": 80
    },
    {
      "midi": 67,
      "hit": false,
      "t": 46109.558391666906,
      "d": 147.61915833333478,
      "v": 80
    },
    {
      "midi": 72,
      "hit": false,
      "t": 46109.558391666906,
      "d": 176.19060833333788,
      "v": 80
    },
    {
      "midi": 76,
      "hit": false,
      "t": 46109.558391666906,
      "d": 176.19060833333788,
      "v": 80
    },
    {
      "midi": 43,
      "hit": false,
      "t": 46266.70136666691,
      "d": 42.857175000004645,
      "v": 83
    },
    {
      "midi": 72,
      "hit": false,
      "t": 46385.74907500025,
      "d": 42.857175000004645,
      "v": 80
    },
    {
      "midi": 69,
      "hit": false,
      "t": 46395.272891666915,
      "d": 33.333358333336946,
      "v": 69
    },
    {
      "midi": 76,
      "hit": false,
      "t": 46395.272891666915,
      "d": 33.333358333336946,
      "v": 74
    },
    {
      "midi": 60,
      "hit": false,
      "t": 46519.08250833359,
      "d": 47.61908333333122,
      "v": 83
    },
    {
      "midi": 64,
      "hit": false,
      "t": 46519.08250833359,
      "d": 47.61908333333122,
      "v": 71
    },
    {
      "midi": 67,
      "hit": false,
      "t": 46519.08250833359,
      "d": 57.14289999999892,
      "v": 95
    },
    {
      "midi": 72,
      "hit": false,
      "t": 46519.08250833359,
      "d": 57.14289999999892,
      "v": 80
    },
    {
      "midi": 55,
      "hit": false,
      "t": 46519.08250833359,
      "d": 66.66671666666662,
      "v": 83
    },
    {
      "midi": 76,
      "hit": false,
      "t": 46519.08250833359,
      "d": 66.66671666666662,
      "v": 86
    },
    {
      "midi": 71,
      "hit": false,
      "t": 46828.60655000025,
      "d": 38.09526666666352,
      "v": 80
    },
    {
      "midi": 50,
      "hit": false,
      "t": 46828.60655000025,
      "d": 47.61908333333122,
      "v": 82
    },
    {
      "midi": 62,
      "hit": false,
      "t": 46828.60655000025,
      "d": 47.61908333333122,
      "v": 77
    },
    {
      "midi": 77,
      "hit": false,
      "t": 46828.60655000025,
      "d": 47.61908333333122,
      "v": 72
    },
    {
      "midi": 65,
      "hit": false,
      "t": 47119.08295833358,
      "d": 28.571450000003097,
      "v": 69
    },
    {
      "midi": 59,
      "hit": false,
      "t": 47128.60677500025,
      "d": 28.571450000003097,
      "v": 82
    },
    {
      "midi": 69,
      "hit": false,
      "t": 47128.60677500025,
      "d": 38.095266666670796,
      "v": 72
    },
    {
      "midi": 77,
      "hit": false,
      "t": 47128.60677500025,
      "d": 38.095266666670796,
      "v": 71
    },
    {
      "midi": 55,
      "hit": false,
      "t": 47128.60677500025,
      "d": 57.14290000000619,
      "v": 79
    },
    {
      "midi": 67,
      "hit": false,
      "t": 47285.74975000026,
      "d": 133.3334333333405,
      "v": 80
    },
    {
      "midi": 77,
      "hit": false,
      "t": 47295.273566666925,
      "d": 142.8572500000082,
      "v": 54
    },
    {
      "midi": 43,
      "hit": false,
      "t": 47438.13081666693,
      "d": 42.85717499999737,
      "v": 83
    },
    {
      "midi": 77,
      "hit": false,
      "t": 47566.70234166693,
      "d": 42.857175000004645,
      "v": 80
    },
    {
      "midi": 69,
      "hit": false,
      "t": 47576.2261583336,
      "d": 42.857175000004645,
      "v": 74
    },
    {
      "midi": 65,
      "hit": false,
      "t": 47695.27386666694,
      "d": 52.380991666672344,
      "v": 74
    },
    {
      "midi": 59,
      "hit": false,
      "t": 47695.27386666694,
      "d": 61.90480833334004,
      "v": 83
    },
    {
      "midi": 55,
      "hit": false,
      "t": 47695.27386666694,
      "d": 71.42862500000774,
      "v": 82
    },
    {
      "midi": 67,
      "hit": false,
      "t": 47695.27386666694,
      "d": 71.42862500000774,
      "v": 90
    },
    {
      "midi": 77,
      "hit": false,
      "t": 47695.27386666694,
      "d": 71.42862500000774,
      "v": 86
    },
    {
      "midi": 48,
      "hit": false,
      "t": 48009.559816666944,
      "d": 47.619083333338494,
      "v": 83
    },
    {
      "midi": 60,
      "hit": false,
      "t": 48009.559816666944,
      "d": 57.14290000000619,
      "v": 82
    },
    {
      "midi": 76,
      "hit": false,
      "t": 48009.559816666944,
      "d": 138.09534166667436,
      "v": 80
    },
    {
      "midi": 72,
      "hit": false,
      "t": 48028.60745000028,
      "d": 119.04770833333896,
      "v": 77
    },
    {
      "midi": 64,
      "hit": false,
      "t": 48295.27431666695,
      "d": 33.333358333336946,
      "v": 74
    },
    {
      "midi": 55,
      "hit": false,
      "t": 48295.27431666695,
      "d": 61.90480833334004,
      "v": 81
    },
    {
      "midi": 60,
      "hit": false,
      "t": 48309.560041666955,
      "d": 28.571450000003097,
      "v": 82
    },
    {
      "midi": 69,
      "hit": false,
      "t": 48309.560041666955,
      "d": 66.66671666667389,
      "v": 83
    },
    {
      "midi": 67,
      "hit": false,
      "t": 48457.1792000003,
      "d": 109.52389166667126,
      "v": 83
    },
    {
      "midi": 72,
      "hit": false,
      "t": 48457.1792000003,
      "d": 152.38106666666863,
      "v": 77
    },
    {
      "midi": 76,
      "hit": false,
      "t": 48466.703016666965,
      "d": 171.42870000000403,
      "v": 83
    },
    {
      "midi": 43,
      "hit": false,
      "t": 48619.08408333363,
      "d": 57.14289999999892,
      "v": 82
    },
    {
      "midi": 79,
      "hit": false,
      "t": 48747.65560833363,
      "d": 71.42862500000047,
      "v": 101
    },
    {
      "midi": 60,
      "hit": false,
      "t": 48876.22713333363,
      "d": 61.90480833333277,
      "v": 82
    },
    {
      "midi": 64,
      "hit": false,
      "t": 48876.22713333363,
      "d": 61.90480833333277,
      "v": 69
    },
    {
      "midi": 84,
      "hit": false,
      "t": 48876.22713333363,
      "d": 71.42862500000047,
      "v": 86
    },
    {
      "midi": 55,
      "hit": false,
      "t": 48876.22713333363,
      "d": 80.95244166666816,
      "v": 82
    },
    {
      "midi": 88,
      "hit": false,
      "t": 49009.560566666965,
      "d": 66.66671666666662,
      "v": 86
    },
    {
      "midi": 50,
      "hit": false,
      "t": 49157.1797250003,
      "d": 52.38099166666507,
      "v": 84
    },
    {
      "midi": 62,
      "hit": false,
      "t": 49157.1797250003,
      "d": 52.38099166666507,
      "v": 80
    },
    {
      "midi": 79,
      "hit": false,
      "t": 49157.1797250003,
      "d": 90.47625833333586,
      "v": 95
    },
    {
      "midi": 83,
      "hit": false,
      "t": 49157.1797250003,
      "d": 109.52389166667126,
      "v": 95
    },
    {
      "midi": 91,
      "hit": false,
      "t": 49157.1797250003,
      "d": 152.38106666666863,
      "v": 104
    },
    {
      "midi": 89,
      "hit": false,
      "t": 49319.08460833364,
      "d": 128.57152499999938,
      "v": 80
    },
    {
      "midi": 65,
      "hit": false,
      "t": 49428.6085000003,
      "d": 38.095266666670796,
      "v": 72
    },
    {
      "midi": 59,
      "hit": false,
      "t": 49438.13231666697,
      "d": 28.571450000003097,
      "v": 83
    },
    {
      "midi": 55,
      "hit": false,
      "t": 49438.13231666697,
      "d": 47.619083333338494,
      "v": 80
    },
    {
      "midi": 86,
      "hit": false,
      "t": 49447.656133333636,
      "d": 161.90488333333633,
      "v": 71
    },
    {
      "midi": 83,
      "hit": false,
      "t": 49595.27529166697,
      "d": 114.28580000000511,
      "v": 72
    },
    {
      "midi": 43,
      "hit": false,
      "t": 49738.13254166698,
      "d": 38.09526666666352,
      "v": 82
    },
    {
      "midi": 79,
      "hit": false,
      "t": 49738.13254166698,
      "d": 57.14289999999892,
      "v": 80
    },
    {
      "midi": 77,
      "hit": false,
      "t": 49876.227883333646,
      "d": 152.38106666666863,
      "v": 71
    },
    {
      "midi": 55,
      "hit": false,
      "t": 50019.08513333365,
      "d": 66.66671666666662,
      "v": 81
    },
    {
      "midi": 59,
      "hit": false,
      "t": 50028.608950000315,
      "d": 38.09526666666352,
      "v": 82
    },
    {
      "midi": 65,
      "hit": false,
      "t": 50028.608950000315,
      "d": 38.09526666666352,
      "v": 77
    },
    {
      "midi": 74,
      "hit": false,
      "t": 50028.608950000315,
      "d": 109.52389166666399,
      "v": 77
    },
    {
      "midi": 71,
      "hit": false,
      "t": 50176.22810833364,
      "d": 71.42862500000047,
      "v": 72
    },
    {
      "midi": 48,
      "hit": false,
      "t": 50319.08535833364,
      "d": 38.095266666670796,
      "v": 82
    },
    {
      "midi": 76,
      "hit": false,
      "t": 50319.08535833364,
      "d": 128.57152500000666,
      "v": 77
    },
    {
      "midi": 60,
      "hit": false,
      "t": 50338.13299166698,
      "d": 28.571450000003097,
      "v": 80
    },
    {
      "midi": 72,
      "hit": false,
      "t": 50338.13299166698,
      "d": 100.00007500000356,
      "v": 72
    },
    {
      "midi": 55,
      "hit": false,
      "t": 50619.085583333646,
      "d": 38.095266666670796,
      "v": 82
    },
    {
      "midi": 60,
      "hit": false,
      "t": 50619.085583333646,
      "d": 38.095266666670796,
      "v": 81
    },
    {
      "midi": 64,
      "hit": false,
      "t": 50619.085583333646,
      "d": 38.095266666670796,
      "v": 74
    },
    {
      "midi": 69,
      "hit": false,
      "t": 50619.085583333646,
      "d": 38.095266666670796,
      "v": 63
    },
    {
      "midi": 72,
      "hit": false,
      "t": 50619.085583333646,
      "d": 38.095266666670796,
      "v": 63
    },
    {
      "midi": 76,
      "hit": false,
      "t": 50619.085583333646,
      "d": 38.095266666670796,
      "v": 69
    },
    {
      "midi": 67,
      "hit": false,
      "t": 50747.65710833365,
      "d": 119.04770833333168,
      "v": 90
    },
    {
      "midi": 72,
      "hit": false,
      "t": 50747.65710833365,
      "d": 190.47633333333943,
      "v": 77
    },
    {
      "midi": 76,
      "hit": false,
      "t": 50747.65710833365,
      "d": 190.47633333333943,
      "v": 80
    },
    {
      "midi": 40,
      "hit": false,
      "t": 50909.56199166699,
      "d": 28.571450000003097,
      "v": 84
    },
    {
      "midi": 52,
      "hit": false,
      "t": 50909.56199166699,
      "d": 28.571450000003097,
      "v": 82
    },
    {
      "midi": 67,
      "hit": false,
      "t": 51047.65733333366,
      "d": 80.95244166666816,
      "v": 72
    },
    {
      "midi": 76,
      "hit": false,
      "t": 51176.228858333656,
      "d": 133.33343333333323,
      "v": 83
    },
    {
      "midi": 70,
      "hit": false,
      "t": 51176.228858333656,
      "d": 142.85725000000093,
      "v": 83
    },
    {
      "midi": 49,
      "hit": false,
      "t": 51195.27649166699,
      "d": 42.85717499999737,
      "v": 84
    },
    {
      "midi": 67,
      "hit": false,
      "t": 51195.27649166699,
      "d": 42.85717499999737,
      "v": 69
    },
    {
      "midi": 37,
      "hit": false,
      "t": 51195.27649166699,
      "d": 52.38099166666507,
      "v": 84
    },
    {
      "midi": 38,
      "hit": false,
      "t": 51485.75290000033,
      "d": 52.380991666672344,
      "v": 83
    },
    {
      "midi": 71,
      "hit": false,
      "t": 51485.75290000033,
      "d": 61.90480833334004,
      "v": 80
    },
    {
      "midi": 67,
      "hit": false,
      "t": 51485.75290000033,
      "d": 80.95244166667544,
      "v": 83
    },
    {
      "midi": 76,
      "hit": false,
      "t": 51485.75290000033,
      "d": 180.952516666679,
      "v": 90
    },
    {
      "midi": 50,
      "hit": false,
      "t": 51509.562441666996,
      "d": 38.095266666670796,
      "v": 84
    },
    {
      "midi": 50,
      "hit": false,
      "t": 51776.22930833368,
      "d": 42.85717499999737,
      "v": 82
    },
    {
      "midi": 55,
      "hit": false,
      "t": 51776.22930833368,
      "d": 42.85717499999737,
      "v": 82
    },
    {
      "midi": 74,
      "hit": false,
      "t": 51776.22930833368,
      "d": 90.47625833332859,
      "v": 86
    },
    {
      "midi": 71,
      "hit": false,
      "t": 51909.562741667,
      "d": 76.19053333333432,
      "v": 95
    },
    {
      "midi": 67,
      "hit": false,
      "t": 51919.08655833367,
      "d": 90.47625833333586,
      "v": 86
    },
    {
      "midi": 38,
      "hit": false,
      "t": 52047.65808333367,
      "d": 47.61908333333122,
      "v": 82
    },
    {
      "midi": 67,
      "hit": false,
      "t": 52219.08678333367,
      "d": 47.61908333333122,
      "v": 72
    },
    {
      "midi": 59,
      "hit": false,
      "t": 52228.610600000335,
      "d": 38.09526666666352,
      "v": 84
    },
    {
      "midi": 50,
      "hit": false,
      "t": 52319.08685833366,
      "d": 76.19053333334159,
      "v": 82
    },
    {
      "midi": 54,
      "hit": false,
      "t": 52328.61067500033,
      "d": 57.14290000000619,
      "v": 81
    },
    {
      "midi": 60,
      "hit": false,
      "t": 52347.658308333666,
      "d": 61.90480833334004,
      "v": 101
    },
    {
      "midi": 69,
      "hit": false,
      "t": 52357.182125000334,
      "d": 52.380991666672344,
      "v": 80
    },
    {
      "midi": 67,
      "hit": false,
      "t": 52366.705941667,
      "d": 28.571450000003097,
      "v": 44
    },
    {
      "midi": 59,
      "hit": false,
      "t": 52647.65853333367,
      "d": 38.095266666670796,
      "v": 84
    },
    {
      "midi": 43,
      "hit": false,
      "t": 52657.18235000034,
      "d": 38.095266666670796,
      "v": 83
    },
    {
      "midi": 50,
      "hit": false,
      "t": 52657.18235000034,
      "d": 38.095266666670796,
      "v": 84
    },
    {
      "midi": 55,
      "hit": false,
      "t": 52657.18235000034,
      "d": 52.380991666672344,
      "v": 84
    },
    {
      "midi": 67,
      "hit": false,
      "t": 52657.18235000034,
      "d": 61.90480833334004,
      "v": 80
    },
    {
      "midi": 67,
      "hit": false,
      "t": 52819.08723333368,
      "d": 66.66671666666662,
      "v": 95
    },
    {
      "midi": 71,
      "hit": false,
      "t": 52957.18257500035,
      "d": 71.42862500000047,
      "v": 80
    },
    {
      "midi": 74,
      "hit": false,
      "t": 53076.23028333368,
      "d": 52.38099166666507,
      "v": 80
    },
    {
      "midi": 59,
      "hit": false,
      "t": 53238.13516666701,
      "d": 28.571450000003097,
      "v": 84
    },
    {
      "midi": 62,
      "hit": false,
      "t": 53238.13516666701,
      "d": 28.571450000003097,
      "v": 80
    },
    {
      "midi": 55,
      "hit": false,
      "t": 53238.13516666701,
      "d": 38.095266666670796,
      "v": 82
    },
    {
      "midi": 79,
      "hit": false,
      "t": 53238.13516666701,
      "d": 71.42862500000774,
      "v": 101
    },
    {
      "midi": 79,
      "hit": false,
      "t": 53385.75432500035,
      "d": 61.90480833333277,
      "v": 95
    },
    {
      "midi": 83,
      "hit": false,
      "t": 53538.13539166701,
      "d": 47.61908333333122,
      "v": 95
    },
    {
      "midi": 86,
      "hit": false,
      "t": 53666.70691666701,
      "d": 71.42862500000047,
      "v": 86
    },
    {
      "midi": 79,
      "hit": false,
      "t": 53809.56416666701,
      "d": 119.04770833333896,
      "v": 83
    },
    {
      "midi": 83,
      "hit": false,
      "t": 53809.56416666701,
      "d": 128.57152500000666,
      "v": 95
    },
    {
      "midi": 91,
      "hit": false,
      "t": 53809.56416666701,
      "d": 147.61915833334206,
      "v": 107
    },
    {
      "midi": 50,
      "hit": false,
      "t": 53819.08798333368,
      "d": 38.095266666670796,
      "v": 82
    },
    {
      "midi": 62,
      "hit": false,
      "t": 53828.61180000035,
      "d": 47.619083333338494,
      "v": 80
    },
    {
      "midi": 89,
      "hit": false,
      "t": 53966.70714166702,
      "d": 161.90488333333633,
      "v": 80
    },
    {
      "midi": 86,
      "hit": false,
      "t": 54095.27866666702,
      "d": 180.952516666679,
      "v": 80
    },
    {
      "midi": 65,
      "hit": false,
      "t": 54109.56439166702,
      "d": 28.571450000003097,
      "v": 74
    },
    {
      "midi": 59,
      "hit": false,
      "t": 54109.56439166702,
      "d": 38.095266666670796,
      "v": 84
    },
    {
      "midi": 55,
      "hit": false,
      "t": 54128.61202500036,
      "d": 38.095266666670796,
      "v": 80
    },
    {
      "midi": 83,
      "hit": false,
      "t": 54247.6597333337,
      "d": 109.52389166667126,
      "v": 74
    },
    {
      "midi": 79,
      "hit": false,
      "t": 54376.231258333704,
      "d": 71.42862500000047,
      "v": 80
    },
    {
      "midi": 43,
      "hit": false,
      "t": 54409.56461666704,
      "d": 57.14289999999892,
      "v": 82
    },
    {
      "midi": 77,
      "hit": false,
      "t": 54557.183775000376,
      "d": 138.09534166666708,
      "v": 48
    },
    {
      "midi": 65,
      "hit": false,
      "t": 54676.23148333371,
      "d": 52.380991666672344,
      "v": 80
    },
    {
      "midi": 55,
      "hit": false,
      "t": 54685.755300000375,
      "d": 52.380991666672344,
      "v": 82
    },
    {
      "midi": 59,
      "hit": false,
      "t": 54685.755300000375,
      "d": 52.380991666672344,
      "v": 84
    },
    {
      "midi": 74,
      "hit": false,
      "t": 54685.755300000375,
      "d": 123.80961666667281,
      "v": 77
    },
    {
      "midi": 71,
      "hit": false,
      "t": 54838.13636666705,
      "d": 80.95244166666816,
      "v": 72
    },
    {
      "midi": 48,
      "hit": false,
      "t": 54976.23170833372,
      "d": 42.85717499999737,
      "v": 83
    },
    {
      "midi": 60,
      "hit": false,
      "t": 54976.23170833372,
      "d": 42.85717499999737,
      "v": 82
    },
    {
      "midi": 72,
      "hit": false,
      "t": 54976.23170833372,
      "d": 100.00007499999629,
      "v": 74
    },
    {
      "midi": 76,
      "hit": false,
      "t": 54976.23170833372,
      "d": 100.00007499999629,
      "v": 80
    },
    {
      "midi": 64,
      "hit": false,
      "t": 55257.18430000038,
      "d": 28.571450000003097,
      "v": 68
    },
    {
      "midi": 60,
      "hit": false,
      "t": 55257.18430000038,
      "d": 38.095266666670796,
      "v": 82
    },
    {
      "midi": 72,
      "hit": false,
      "t": 55257.18430000038,
      "d": 52.380991666672344,
      "v": 69
    },
    {
      "midi": 76,
      "hit": false,
      "t": 55257.18430000038,
      "d": 52.380991666672344,
      "v": 63
    },
    {
      "midi": 55,
      "hit": false,
      "t": 55276.231933333715,
      "d": 33.333358333336946,
      "v": 81
    },
    {
      "midi": 69,
      "hit": false,
      "t": 55276.231933333715,
      "d": 33.333358333336946,
      "v": 65
    },
    {
      "midi": 67,
      "hit": false,
      "t": 55409.565366667055,
      "d": 138.09534166666708,
      "v": 83
    },
    {
      "midi": 72,
      "hit": false,
      "t": 55409.565366667055,
      "d": 176.19060833333788,
      "v": 83
    },
    {
      "midi": 76,
      "hit": false,
      "t": 55409.565366667055,
      "d": 176.19060833333788,
      "v": 80
    },
    {
      "midi": 43,
      "hit": false,
      "t": 55566.70834166706,
      "d": 52.380991666672344,
      "v": 83
    },
    {
      "midi": 69,
      "hit": false,
      "t": 55719.08940833373,
      "d": 38.09526666666352,
      "v": 69
    },
    {
      "midi": 72,
      "hit": false,
      "t": 55719.08940833373,
      "d": 38.09526666666352,
      "v": 62
    },
    {
      "midi": 76,
      "hit": false,
      "t": 55719.08940833373,
      "d": 38.09526666666352,
      "v": 71
    },
    {
      "midi": 60,
      "hit": false,
      "t": 55828.6133000004,
      "d": 38.09526666666352,
      "v": 83
    },
    {
      "midi": 55,
      "hit": false,
      "t": 55828.6133000004,
      "d": 47.61908333333122,
      "v": 82
    },
    {
      "midi": 64,
      "hit": false,
      "t": 55828.6133000004,
      "d": 47.61908333333122,
      "v": 72
    },
    {
      "midi": 67,
      "hit": false,
      "t": 55828.6133000004,
      "d": 66.66671666666662,
      "v": 86
    },
    {
      "midi": 72,
      "hit": false,
      "t": 55828.6133000004,
      "d": 80.95244166666816,
      "v": 77
    },
    {
      "midi": 76,
      "hit": false,
      "t": 55828.6133000004,
      "d": 80.95244166666816,
      "v": 65
    },
    {
      "midi": 50,
      "hit": false,
      "t": 56138.13734166706,
      "d": 38.09526666666352,
      "v": 83
    },
    {
      "midi": 62,
      "hit": false,
      "t": 56138.13734166706,
      "d": 38.09526666666352,
      "v": 72
    },
    {
      "midi": 71,
      "hit": false,
      "t": 56138.13734166706,
      "d": 57.14289999999892,
      "v": 83
    },
    {
      "midi": 77,
      "hit": false,
      "t": 56138.13734166706,
      "d": 57.14289999999892,
      "v": 74
    },
    {
      "midi": 65,
      "hit": false,
      "t": 56419.08993333373,
      "d": 38.09526666666352,
      "v": 72
    },
    {
      "midi": 59,
      "hit": false,
      "t": 56419.08993333373,
      "d": 47.61908333333122,
      "v": 81
    },
    {
      "midi": 69,
      "hit": false,
      "t": 56419.08993333373,
      "d": 47.61908333333122,
      "v": 71
    },
    {
      "midi": 77,
      "hit": false,
      "t": 56419.08993333373,
      "d": 47.61908333333122,
      "v": 68
    },
    {
      "midi": 55,
      "hit": false,
      "t": 56419.08993333373,
      "d": 66.66671666666662,
      "v": 81
    },
    {
      "midi": 67,
      "hit": false,
      "t": 56566.709091667064,
      "d": 142.85725000000093,
      "v": 80
    },
    {
      "midi": 77,
      "hit": false,
      "t": 56566.709091667064,
      "d": 171.42870000000403,
      "v": 74
    },
    {
      "midi": 43,
      "hit": false,
      "t": 56709.566341667065,
      "d": 47.619083333338494,
      "v": 83
    },
    {
      "midi": 69,
      "hit": false,
      "t": 56876.233133333735,
      "d": 33.333358333336946,
      "v": 72
    },
    {
      "midi": 77,
      "hit": false,
      "t": 56876.233133333735,
      "d": 33.333358333336946,
      "v": 71
    },
    {
      "midi": 65,
      "hit": false,
      "t": 56985.75702500041,
      "d": 42.857175000004645,
      "v": 77
    },
    {
      "midi": 55,
      "hit": false,
      "t": 56985.75702500041,
      "d": 52.380991666672344,
      "v": 82
    },
    {
      "midi": 59,
      "hit": false,
      "t": 56985.75702500041,
      "d": 52.380991666672344,
      "v": 82
    },
    {
      "midi": 67,
      "hit": false,
      "t": 57009.566566667076,
      "d": 47.619083333338494,
      "v": 83
    },
    {
      "midi": 77,
      "hit": false,
      "t": 57009.566566667076,
      "d": 66.66671666667389,
      "v": 83
    },
    {
      "midi": 48,
      "hit": false,
      "t": 57319.09060833375,
      "d": 38.09526666666352,
      "v": 82
    },
    {
      "midi": 60,
      "hit": false,
      "t": 57319.09060833375,
      "d": 38.09526666666352,
      "v": 83
    },
    {
      "midi": 76,
      "hit": false,
      "t": 57319.09060833375,
      "d": 138.09534166666708,
      "v": 83
    },
    {
      "midi": 72,
      "hit": false,
      "t": 57319.09060833375,
      "d": 147.61915833333478,
      "v": 77
    },
    {
      "midi": 69,
      "hit": false,
      "t": 57609.56701666708,
      "d": 85.71435000000929,
      "v": 86
    },
    {
      "midi": 55,
      "hit": false,
      "t": 57628.61465000042,
      "d": 47.619083333338494,
      "v": 82
    },
    {
      "midi": 60,
      "hit": false,
      "t": 57628.61465000042,
      "d": 47.619083333338494,
      "v": 81
    },
    {
      "midi": 64,
      "hit": false,
      "t": 57628.61465000042,
      "d": 47.619083333338494,
      "v": 71
    },
    {
      "midi": 67,
      "hit": false,
      "t": 57766.70999166709,
      "d": 109.52389166667126,
      "v": 80
    },
    {
      "midi": 72,
      "hit": false,
      "t": 57766.70999166709,
      "d": 128.57152500000666,
      "v": 83
    },
    {
      "midi": 76,
      "hit": false,
      "t": 57766.70999166709,
      "d": 128.57152500000666,
      "v": 83
    },
    {
      "midi": 64,
      "hit": false,
      "t": 57909.5672416671,
      "d": 38.095266666670796,
      "v": 74
    },
    {
      "midi": 60,
      "hit": false,
      "t": 57919.09105833377,
      "d": 28.571450000003097,
      "v": 82
    },
    {
      "midi": 55,
      "hit": false,
      "t": 57919.09105833377,
      "d": 47.619083333338494,
      "v": 82
    },
    {
      "midi": 67,
      "hit": false,
      "t": 58219.09128333377,
      "d": 47.619083333338494,
      "v": 101
    },
    {
      "midi": 71,
      "hit": false,
      "t": 58219.09128333377,
      "d": 47.619083333338494,
      "v": 74
    },
    {
      "midi": 74,
      "hit": false,
      "t": 58219.09128333377,
      "d": 66.66671666667389,
      "v": 86
    },
    {
      "midi": 79,
      "hit": false,
      "t": 58219.09128333377,
      "d": 90.47625833334314,
      "v": 101
    },
    {
      "midi": 43,
      "hit": false,
      "t": 58238.13891666711,
      "d": 28.571450000003097,
      "v": 81
    },
    {
      "midi": 55,
      "hit": false,
      "t": 58238.13891666711,
      "d": 28.571450000003097,
      "v": 78
    },
    {
      "midi": 60,
      "hit": false,
      "t": 58528.61532500045,
      "d": 38.095266666670796,
      "v": 84
    },
    {
      "midi": 72,
      "hit": false,
      "t": 58528.61532500045,
      "d": 66.66671666667389,
      "v": 86
    },
    {
      "midi": 48,
      "hit": false,
      "t": 58547.662958333785,
      "d": 38.095266666670796,
      "v": 80
    },
    {
      "midi": 76,
      "hit": false,
      "t": 58676.23448333379,
      "d": 61.90480833333277,
      "v": 80
    },
    {
      "midi": 55,
      "hit": false,
      "t": 58828.61555000046,
      "d": 38.095266666670796,
      "v": 82
    },
    {
      "midi": 79,
      "hit": false,
      "t": 58828.61555000046,
      "d": 57.14290000000619,
      "v": 83
    },
    {
      "midi": 60,
      "hit": false,
      "t": 58838.13936666713,
      "d": 28.571450000003097,
      "v": 81
    },
    {
      "midi": 64,
      "hit": false,
      "t": 58838.13936666713,
      "d": 38.095266666670796,
      "v": 60
    },
    {
      "midi": 84,
      "hit": false,
      "t": 58985.75852500047,
      "d": 71.42862500000047,
      "v": 86
    },
    {
      "midi": 58,
      "hit": false,
      "t": 59138.13959166714,
      "d": 47.619083333338494,
      "v": 84
    },
    {
      "midi": 46,
      "hit": false,
      "t": 59147.66340833381,
      "d": 28.571450000003097,
      "v": 82
    },
    {
      "midi": 72,
      "hit": false,
      "t": 59147.66340833381,
      "d": 71.42862500000774,
      "v": 80
    },
    {
      "midi": 76,
      "hit": false,
      "t": 59295.28256666715,
      "d": 71.42862500000047,
      "v": 80
    },
    {
      "midi": 58,
      "hit": false,
      "t": 59438.13981666715,
      "d": 47.619083333338494,
      "v": 81
    },
    {
      "midi": 64,
      "hit": false,
      "t": 59438.13981666715,
      "d": 47.619083333338494,
      "v": 68
    },
    {
      "midi": 79,
      "hit": false,
      "t": 59438.13981666715,
      "d": 90.47625833334314,
      "v": 80
    },
    {
      "midi": 60,
      "hit": false,
      "t": 59457.187450000485,
      "d": 28.571450000003097,
      "v": 80
    },
    {
      "midi": 55,
      "hit": false,
      "t": 59457.187450000485,
      "d": 52.380991666672344,
      "v": 80
    },
    {
      "midi": 84,
      "hit": false,
      "t": 59609.56851666716,
      "d": 76.19053333333432,
      "v": 83
    },
    {
      "midi": 45,
      "hit": false,
      "t": 59757.187675000496,
      "d": 57.14289999999892,
      "v": 82
    },
    {
      "midi": 57,
      "hit": false,
      "t": 59757.187675000496,
      "d": 57.14289999999892,
      "v": 82
    },
    {
      "midi": 72,
      "hit": false,
      "t": 59757.187675000496,
      "d": 71.42862500000047,
      "v": 86
    },
    {
      "midi": 77,
      "hit": false,
      "t": 59895.28301666716,
      "d": 71.42862500000047,
      "v": 90
    },
    {
      "midi": 60,
      "hit": false,
      "t": 60047.66408333383,
      "d": 38.095266666670796,
      "v": 82
    },
    {
      "midi": 65,
      "hit": false,
      "t": 60047.66408333383,
      "d": 38.095266666670796,
      "v": 69
    },
    {
      "midi": 57,
      "hit": false,
      "t": 60047.66408333383,
      "d": 47.619083333338494,
      "v": 82
    },
    {
      "midi": 84,
      "hit": false,
      "t": 60047.66408333383,
      "d": 90.47625833333586,
      "v": 95
    },
    {
      "midi": 77,
      "hit": false,
      "t": 60195.283241667166,
      "d": 71.42862500000047,
      "v": 83
    },
    {
      "midi": 44,
      "hit": false,
      "t": 60347.664308333835,
      "d": 38.095266666670796,
      "v": 83
    },
    {
      "midi": 72,
      "hit": false,
      "t": 60347.664308333835,
      "d": 90.47625833333586,
      "v": 80
    },
    {
      "midi": 56,
      "hit": false,
      "t": 60366.71194166717,
      "d": 28.571450000003097,
      "v": 82
    },
    {
      "midi": 84,
      "hit": false,
      "t": 60485.7596500005,
      "d": 252.38114166666492,
      "v": 90
    },
    {
      "midi": 60,
      "hit": false,
      "t": 60628.6169000005,
      "d": 38.09526666666352,
      "v": 82
    },
    {
      "midi": 65,
      "hit": false,
      "t": 60628.6169000005,
      "d": 38.09526666666352,
      "v": 80
    },
    {
      "midi": 56,
      "hit": false,
      "t": 60628.6169000005,
      "d": 47.61908333333122,
      "v": 81
    },
    {
      "midi": 78,
      "hit": false,
      "t": 60776.23605833383,
      "d": 61.90480833333277,
      "v": 69
    },
    {
      "midi": 43,
      "hit": false,
      "t": 60919.09330833383,
      "d": 47.619083333338494,
      "v": 82
    },
    {
      "midi": 55,
      "hit": false,
      "t": 60919.09330833383,
      "d": 57.14290000000619,
      "v": 82
    },
    {
      "midi": 79,
      "hit": false,
      "t": 60919.09330833383,
      "d": 147.61915833334206,
      "v": 95
    },
    {
      "midi": 67,
      "hit": false,
      "t": 61076.23628333384,
      "d": 133.33343333333323,
      "v": 77
    },
    {
      "midi": 60,
      "hit": false,
      "t": 61209.569716667174,
      "d": 38.095266666670796,
      "v": 82
    },
    {
      "midi": 64,
      "hit": false,
      "t": 61209.569716667174,
      "d": 38.095266666670796,
      "v": 68
    },
    {
      "midi": 55,
      "hit": false,
      "t": 61228.61735000051,
      "d": 38.095266666670796,
      "v": 82
    },
    {
      "midi": 76,
      "hit": false,
      "t": 61228.61735000051,
      "d": 147.61915833334206,
      "v": 72
    },
    {
      "midi": 74,
      "hit": false,
      "t": 61357.18887500052,
      "d": 161.90488333333633,
      "v": 71
    },
    {
      "midi": 57,
      "hit": false,
      "t": 61519.09375833385,
      "d": 28.571450000003097,
      "v": 84
    },
    {
      "midi": 45,
      "hit": false,
      "t": 61519.09375833385,
      "d": 38.095266666670796,
      "v": 90
    },
    {
      "midi": 66,
      "hit": false,
      "t": 61519.09375833385,
      "d": 66.66671666667389,
      "v": 80
    },
    {
      "midi": 72,
      "hit": false,
      "t": 61519.09375833385,
      "d": 66.66671666667389,
      "v": 83
    },
    {
      "midi": 43,
      "hit": false,
      "t": 61819.09398333386,
      "d": 38.09526666666352,
      "v": 83
    },
    {
      "midi": 55,
      "hit": false,
      "t": 61819.09398333386,
      "d": 38.09526666666352,
      "v": 82
    },
    {
      "midi": 65,
      "hit": false,
      "t": 61819.09398333386,
      "d": 66.66671666666662,
      "v": 83
    },
    {
      "midi": 71,
      "hit": false,
      "t": 61819.09398333386,
      "d": 66.66671666666662,
      "v": 77
    },
    {
      "midi": 74,
      "hit": false,
      "t": 61819.09398333386,
      "d": 66.66671666666662,
      "v": 80
    },
    {
      "midi": 64,
      "hit": false,
      "t": 62128.61802500053,
      "d": 66.66671666667389,
      "v": 83
    },
    {
      "midi": 67,
      "hit": false,
      "t": 62128.61802500053,
      "d": 66.66671666667389,
      "v": 90
    },
    {
      "midi": 48,
      "hit": false,
      "t": 62147.66565833386,
      "d": 28.571450000003097,
      "v": 84
    },
    {
      "midi": 60,
      "hit": false,
      "t": 62147.66565833386,
      "d": 28.571450000003097,
      "v": 86
    },
    {
      "midi": 72,
      "hit": false,
      "t": 62147.66565833386,
      "d": 71.42862500000774,
      "v": 83
    },
    {
      "midi": 67,
      "hit": false,
      "t": 62466.7135166672,
      "d": 61.90480833333277,
      "v": 86
    },
    {
      "midi": 79,
      "hit": false,
      "t": 62466.7135166672,
      "d": 61.90480833333277,
      "v": 90
    },
    {
      "midi": 67,
      "hit": false,
      "t": 62609.5707666672,
      "d": 57.14289999999892,
      "v": 95
    },
    {
      "midi": 79,
      "hit": false,
      "t": 62609.5707666672,
      "d": 57.14289999999892,
      "v": 95
    },
    {
      "midi": 67,
      "hit": false,
      "t": 62747.66610833387,
      "d": 38.09526666666352,
      "v": 90
    },
    {
      "midi": 79,
      "hit": false,
      "t": 62747.66610833387,
      "d": 61.90480833333277,
      "v": 101
    },
    {
      "midi": 79,
      "hit": false,
      "t": 63057.19015000054,
      "d": 52.38099166666507,
      "v": 104
    },
    {
      "midi": 91,
      "hit": false,
      "t": 63057.19015000054,
      "d": 52.38099166666507,
      "v": 107
    },
    {
      "midi": 49,
      "hit": false,
      "t": 63057.19015000054,
      "d": 61.90480833333277,
      "v": 82
    },
    {
      "midi": 61,
      "hit": false,
      "t": 63057.19015000054,
      "d": 61.90480833333277,
      "v": 80
    },
    {
      "midi": 79,
      "hit": false,
      "t": 63266.71411666721,
      "d": 100.00007499999629,
      "v": 90
    },
    {
      "midi": 83,
      "hit": false,
      "t": 63309.571291667206,
      "d": 128.57152500000666,
      "v": 90
    },
    {
      "midi": 50,
      "hit": false,
      "t": 63347.66655833387,
      "d": 47.619083333338494,
      "v": 83
    },
    {
      "midi": 62,
      "hit": false,
      "t": 63357.19037500054,
      "d": 61.90480833334004,
      "v": 80
    },
    {
      "midi": 91,
      "hit": false,
      "t": 63395.28564166721,
      "d": 190.47633333333943,
      "v": 101
    },
    {
      "midi": 89,
      "hit": false,
      "t": 63538.142891667216,
      "d": 157.14297500000248,
      "v": 80
    },
    {
      "midi": 59,
      "hit": false,
      "t": 63628.619150000544,
      "d": 38.095266666670796,
      "v": 83
    },
    {
      "midi": 65,
      "hit": false,
      "t": 63628.619150000544,
      "d": 38.095266666670796,
      "v": 69
    },
    {
      "midi": 55,
      "hit": false,
      "t": 63628.619150000544,
      "d": 47.619083333338494,
      "v": 81
    },
    {
      "midi": 86,
      "hit": false,
      "t": 63657.19060000055,
      "d": 161.90488333333633,
      "v": 80
    },
    {
      "midi": 83,
      "hit": false,
      "t": 63809.571666667216,
      "d": 100.00007500000356,
      "v": 68
    },
    {
      "midi": 79,
      "hit": false,
      "t": 63928.619375000555,
      "d": 66.66671666666662,
      "v": 77
    },
    {
      "midi": 43,
      "hit": false,
      "t": 63938.14319166722,
      "d": 38.09526666666352,
      "v": 82
    },
    {
      "midi": 77,
      "hit": false,
      "t": 64085.76235000056,
      "d": 152.3810666666759,
      "v": 74
    },
    {
      "midi": 65,
      "hit": false,
      "t": 64209.57196666723,
      "d": 47.619083333338494,
      "v": 71
    },
    {
      "midi": 59,
      "hit": false,
      "t": 64209.57196666723,
      "d": 57.14290000000619,
      "v": 84
    },
    {
      "midi": 55,
      "hit": false,
      "t": 64209.57196666723,
      "d": 66.66671666667389,
      "v": 82
    },
    {
      "midi": 74,
      "hit": false,
      "t": 64209.57196666723,
      "d": 100.00007500001084,
      "v": 80
    },
    {
      "midi": 71,
      "hit": false,
      "t": 64366.71494166724,
      "d": 52.38099166666507,
      "v": 72
    },
    {
      "midi": 76,
      "hit": false,
      "t": 64495.28646666724,
      "d": 123.80961666667281,
      "v": 80
    },
    {
      "midi": 72,
      "hit": false,
      "t": 64495.28646666724,
      "d": 133.3334333333405,
      "v": 80
    },
    {
      "midi": 48,
      "hit": false,
      "t": 64519.09600833391,
      "d": 28.571450000003097,
      "v": 83
    },
    {
      "midi": 60,
      "hit": false,
      "t": 64519.09600833391,
      "d": 47.619083333338494,
      "v": 81
    },
    {
      "midi": 60,
      "hit": false,
      "t": 64795.28669166725,
      "d": 42.857175000004645,
      "v": 82
    },
    {
      "midi": 64,
      "hit": false,
      "t": 64795.28669166725,
      "d": 42.857175000004645,
      "v": 65
    },
    {
      "midi": 72,
      "hit": false,
      "t": 64795.28669166725,
      "d": 52.380991666672344,
      "v": 71
    },
    {
      "midi": 76,
      "hit": false,
      "t": 64795.28669166725,
      "d": 52.380991666672344,
      "v": 63
    },
    {
      "midi": 69,
      "hit": false,
      "t": 64819.09623333392,
      "d": 28.571450000003097,
      "v": 71
    },
    {
      "midi": 55,
      "hit": false,
      "t": 64819.09623333392,
      "d": 47.619083333338494,
      "v": 77
    },
    {
      "midi": 67,
      "hit": false,
      "t": 64947.667758333926,
      "d": 119.04770833333168,
      "v": 90
    },
    {
      "midi": 72,
      "hit": false,
      "t": 64947.667758333926,
      "d": 180.95251666667173,
      "v": 80
    },
    {
      "midi": 76,
      "hit": false,
      "t": 64947.667758333926,
      "d": 180.95251666667173,
      "v": 80
    },
    {
      "midi": 43,
      "hit": false,
      "t": 65095.28691666726,
      "d": 52.380991666672344,
      "v": 82
    },
    {
      "midi": 72,
      "hit": false,
      "t": 65238.14416666727,
      "d": 47.619083333338494,
      "v": 80
    },
    {
      "midi": 69,
      "hit": false,
      "t": 65247.66798333394,
      "d": 28.571450000003097,
      "v": 83
    },
    {
      "midi": 76,
      "hit": false,
      "t": 65247.66798333394,
      "d": 38.095266666670796,
      "v": 77
    },
    {
      "midi": 64,
      "hit": false,
      "t": 65366.715691667276,
      "d": 42.85717499999737,
      "v": 72
    },
    {
      "midi": 60,
      "hit": false,
      "t": 65366.715691667276,
      "d": 52.38099166666507,
      "v": 83
    },
    {
      "midi": 55,
      "hit": false,
      "t": 65366.715691667276,
      "d": 61.90480833333277,
      "v": 81
    },
    {
      "midi": 67,
      "hit": false,
      "t": 65366.715691667276,
      "d": 61.90480833333277,
      "v": 95
    },
    {
      "midi": 72,
      "hit": false,
      "t": 65366.715691667276,
      "d": 71.42862500000047,
      "v": 86
    },
    {
      "midi": 76,
      "hit": false,
      "t": 65366.715691667276,
      "d": 80.95244166666816,
      "v": 83
    },
    {
      "midi": 50,
      "hit": false,
      "t": 65666.71591666728,
      "d": 52.38099166666507,
      "v": 83
    },
    {
      "midi": 62,
      "hit": false,
      "t": 65666.71591666728,
      "d": 52.38099166666507,
      "v": 74
    },
    {
      "midi": 71,
      "hit": false,
      "t": 65666.71591666728,
      "d": 52.38099166666507,
      "v": 80
    },
    {
      "midi": 77,
      "hit": false,
      "t": 65666.71591666728,
      "d": 71.42862500000047,
      "v": 77
    },
    {
      "midi": 65,
      "hit": false,
      "t": 65957.19232500061,
      "d": 28.571450000003097,
      "v": 71
    },
    {
      "midi": 59,
      "hit": false,
      "t": 65957.19232500061,
      "d": 38.095266666670796,
      "v": 83
    },
    {
      "midi": 69,
      "hit": false,
      "t": 65957.19232500061,
      "d": 52.38099166666507,
      "v": 71
    },
    {
      "midi": 77,
      "hit": false,
      "t": 65957.19232500061,
      "d": 52.38099166666507,
      "v": 66
    },
    {
      "midi": 55,
      "hit": false,
      "t": 65957.19232500061,
      "d": 61.90480833333277,
      "v": 81
    },
    {
      "midi": 67,
      "hit": false,
      "t": 66119.09720833394,
      "d": 128.57152500000666,
      "v": 80
    },
    {
      "midi": 77,
      "hit": false,
      "t": 66119.09720833394,
      "d": 147.61915833334206,
      "v": 72
    },
    {
      "midi": 43,
      "hit": false,
      "t": 66238.14491666728,
      "d": 47.619083333338494,
      "v": 84
    },
    {
      "midi": 69,
      "hit": false,
      "t": 66395.28789166729,
      "d": 42.85717499999737,
      "v": 72
    },
    {
      "midi": 77,
      "hit": false,
      "t": 66395.28789166729,
      "d": 42.85717499999737,
      "v": 72
    },
    {
      "midi": 59,
      "hit": false,
      "t": 66519.09750833396,
      "d": 57.14290000000619,
      "v": 83
    },
    {
      "midi": 65,
      "hit": false,
      "t": 66528.62132500063,
      "d": 38.095266666670796,
      "v": 72
    },
    {
      "midi": 55,
      "hit": false,
      "t": 66528.62132500063,
      "d": 47.619083333338494,
      "v": 82
    },
    {
      "midi": 67,
      "hit": false,
      "t": 66528.62132500063,
      "d": 66.66671666667389,
      "v": 86
    },
    {
      "midi": 77,
      "hit": false,
      "t": 66528.62132500063,
      "d": 100.00007500000356,
      "v": 86
    },
    {
      "midi": 48,
      "hit": false,
      "t": 66828.62155000064,
      "d": 57.14290000000619,
      "v": 83
    },
    {
      "midi": 60,
      "hit": false,
      "t": 66828.62155000064,
      "d": 57.14290000000619,
      "v": 82
    },
    {
      "midi": 72,
      "hit": false,
      "t": 66828.62155000064,
      "d": 128.57152500000666,
      "v": 74
    },
    {
      "midi": 76,
      "hit": false,
      "t": 66828.62155000064,
      "d": 128.57152500000666,
      "v": 80
    },
    {
      "midi": 69,
      "hit": false,
      "t": 67109.57414166731,
      "d": 66.66671666667389,
      "v": 80
    },
    {
      "midi": 60,
      "hit": false,
      "t": 67119.09795833398,
      "d": 38.095266666670796,
      "v": 82
    },
    {
      "midi": 64,
      "hit": false,
      "t": 67119.09795833398,
      "d": 38.095266666670796,
      "v": 71
    },
    {
      "midi": 55,
      "hit": false,
      "t": 67128.62177500065,
      "d": 47.619083333338494,
      "v": 80
    },
    {
      "midi": 67,
      "hit": false,
      "t": 67257.19330000065,
      "d": 100.00007500000356,
      "v": 86
    },
    {
      "midi": 72,
      "hit": false,
      "t": 67257.19330000065,
      "d": 138.09534166667436,
      "v": 83
    },
    {
      "midi": 76,
      "hit": false,
      "t": 67257.19330000065,
      "d": 161.90488333333633,
      "v": 80
    },
    {
      "midi": 43,
      "hit": false,
      "t": 67419.09818333399,
      "d": 38.095266666670796,
      "v": 82
    },
    {
      "midi": 79,
      "hit": false,
      "t": 67547.669708334,
      "d": 71.42862500000047,
      "v": 101
    },
    {
      "midi": 64,
      "hit": false,
      "t": 67685.76505000067,
      "d": 42.85717499999737,
      "v": 66
    },
    {
      "midi": 84,
      "hit": false,
      "t": 67685.76505000067,
      "d": 61.90480833333277,
      "v": 90
    },
    {
      "midi": 60,
      "hit": false,
      "t": 67695.28886666734,
      "d": 42.85717499999737,
      "v": 79
    },
    {
      "midi": 55,
      "hit": false,
      "t": 67695.28886666734,
      "d": 52.38099166666507,
      "v": 74
    },
    {
      "midi": 88,
      "hit": false,
      "t": 67819.098483334,
      "d": 66.66671666667389,
      "v": 90
    },
    {
      "midi": 50,
      "hit": false,
      "t": 67957.19382500068,
      "d": 38.095266666670796,
      "v": 84
    },
    {
      "midi": 62,
      "hit": false,
      "t": 67957.19382500068,
      "d": 52.38099166666507,
      "v": 77
    },
    {
      "midi": 83,
      "hit": false,
      "t": 67957.19382500068,
      "d": 71.42862500000047,
      "v": 101
    },
    {
      "midi": 79,
      "hit": false,
      "t": 67957.19382500068,
      "d": 80.95244166666816,
      "v": 86
    },
    {
      "midi": 91,
      "hit": false,
      "t": 67957.19382500068,
      "d": 128.57152500000666,
      "v": 104
    },
    {
      "midi": 89,
      "hit": false,
      "t": 68109.57489166735,
      "d": 119.04770833333896,
      "v": 80
    },
    {
      "midi": 86,
      "hit": false,
      "t": 68228.62260000069,
      "d": 157.14297500000976,
      "v": 77
    },
    {
      "midi": 59,
      "hit": false,
      "t": 68238.14641666735,
      "d": 38.095266666670796,
      "v": 82
    },
    {
      "midi": 65,
      "hit": false,
      "t": 68238.14641666735,
      "d": 38.095266666670796,
      "v": 69
    },
    {
      "midi": 55,
      "hit": false,
      "t": 68238.14641666735,
      "d": 47.619083333338494,
      "v": 80
    },
    {
      "midi": 83,
      "hit": false,
      "t": 68385.7655750007,
      "d": 100.00007500000356,
      "v": 71
    },
    {
      "midi": 79,
      "hit": false,
      "t": 68519.09900833403,
      "d": 66.66671666667389,
      "v": 77
    },
    {
      "midi": 43,
      "hit": false,
      "t": 68528.6228250007,
      "d": 47.619083333338494,
      "v": 82
    },
    {
      "midi": 77,
      "hit": false,
      "t": 68666.71816666737,
      "d": 152.38106666666863,
      "v": 71
    },
    {
      "midi": 74,
      "hit": false,
      "t": 68809.57541666737,
      "d": 119.04770833333896,
      "v": 71
    },
    {
      "midi": 59,
      "hit": false,
      "t": 68819.09923333404,
      "d": 47.619083333338494,
      "v": 83
    },
    {
      "midi": 55,
      "hit": false,
      "t": 68819.09923333404,
      "d": 57.14290000000619,
      "v": 82
    },
    {
      "midi": 65,
      "hit": false,
      "t": 68838.14686666738,
      "d": 28.571450000003097,
      "v": 66
    },
    {
      "midi": 71,
      "hit": false,
      "t": 68957.19457500071,
      "d": 80.95244166666816,
      "v": 77
    },
    {
      "midi": 48,
      "hit": false,
      "t": 69109.57564166738,
      "d": 28.571450000003097,
      "v": 82
    },
    {
      "midi": 60,
      "hit": false,
      "t": 69109.57564166738,
      "d": 28.571450000003097,
      "v": 82
    },
    {
      "midi": 72,
      "hit": false,
      "t": 69109.57564166738,
      "d": 100.00007500000356,
      "v": 80
    },
    {
      "midi": 76,
      "hit": false,
      "t": 69109.57564166738,
      "d": 100.00007500000356,
      "v": 80
    },
    {
      "midi": 72,
      "hit": false,
      "t": 69376.24250833405,
      "d": 71.42862500000047,
      "v": 74
    },
    {
      "midi": 60,
      "hit": false,
      "t": 69385.76632500072,
      "d": 42.85717499999737,
      "v": 82
    },
    {
      "midi": 64,
      "hit": false,
      "t": 69385.76632500072,
      "d": 42.85717499999737,
      "v": 71
    },
    {
      "midi": 69,
      "hit": false,
      "t": 69385.76632500072,
      "d": 42.85717499999737,
      "v": 72
    },
    {
      "midi": 76,
      "hit": false,
      "t": 69385.76632500072,
      "d": 42.85717499999737,
      "v": 72
    },
    {
      "midi": 55,
      "hit": false,
      "t": 69385.76632500072,
      "d": 61.90480833333277,
      "v": 82
    },
    {
      "midi": 67,
      "hit": false,
      "t": 69528.62357500072,
      "d": 128.57152500000666,
      "v": 95
    },
    {
      "midi": 76,
      "hit": false,
      "t": 69528.62357500072,
      "d": 180.95251666667173,
      "v": 90
    },
    {
      "midi": 72,
      "hit": false,
      "t": 69528.62357500072,
      "d": 190.47633333333943,
      "v": 74
    },
    {
      "midi": 52,
      "hit": false,
      "t": 69676.24273333406,
      "d": 33.33335833332967,
      "v": 82
    },
    {
      "midi": 40,
      "hit": false,
      "t": 69676.24273333406,
      "d": 42.85717499999737,
      "v": 83
    },
    {
      "midi": 67,
      "hit": false,
      "t": 69819.09998333406,
      "d": 76.19053333332704,
      "v": 77
    },
    {
      "midi": 70,
      "hit": false,
      "t": 69947.67150833405,
      "d": 128.57152500000666,
      "v": 86
    },
    {
      "midi": 49,
      "hit": false,
      "t": 69957.19532500072,
      "d": 52.38099166666507,
      "v": 84
    },
    {
      "midi": 37,
      "hit": false,
      "t": 69957.19532500072,
      "d": 71.42862500000047,
      "v": 83
    },
    {
      "midi": 67,
      "hit": false,
      "t": 69957.19532500072,
      "d": 90.47625833333586,
      "v": 80
    },
    {
      "midi": 76,
      "hit": false,
      "t": 69957.19532500072,
      "d": 119.04770833333896,
      "v": 90
    },
    {
      "midi": 38,
      "hit": false,
      "t": 70257.19555000073,
      "d": 61.90480833333277,
      "v": 84
    },
    {
      "midi": 50,
      "hit": false,
      "t": 70257.19555000073,
      "d": 61.90480833333277,
      "v": 84
    },
    {
      "midi": 67,
      "hit": false,
      "t": 70257.19555000073,
      "d": 138.0953416666598,
      "v": 83
    },
    {
      "midi": 76,
      "hit": false,
      "t": 70257.19555000073,
      "d": 152.38106666665408,
      "v": 80
    },
    {
      "midi": 71,
      "hit": false,
      "t": 70266.7193666674,
      "d": 161.90488333332178,
      "v": 72
    },
    {
      "midi": 50,
      "hit": false,
      "t": 70547.67195833406,
      "d": 47.619083333338494,
      "v": 82
    },
    {
      "midi": 55,
      "hit": false,
      "t": 70547.67195833406,
      "d": 61.90480833333277,
      "v": 81
    },
    {
      "midi": 74,
      "hit": false,
      "t": 70566.7195916674,
      "d": 100.00007500000356,
      "v": 80
    },
    {
      "midi": 67,
      "hit": false,
      "t": 70695.2911166674,
      "d": 90.47625833333586,
      "v": 90
    },
    {
      "midi": 71,
      "hit": false,
      "t": 70695.2911166674,
      "d": 90.47625833333586,
      "v": 95
    },
    {
      "midi": 38,
      "hit": false,
      "t": 70857.19600000074,
      "d": 61.90480833333277,
      "v": 84
    },
    {
      "midi": 50,
      "hit": false,
      "t": 70866.7198166674,
      "d": 61.90480833333277,
      "v": 84
    },
    {
      "midi": 59,
      "hit": false,
      "t": 70985.76752500075,
      "d": 52.38099166666507,
      "v": 84
    },
    {
      "midi": 67,
      "hit": false,
      "t": 70985.76752500075,
      "d": 52.38099166666507,
      "v": 80
    },
    {
      "midi": 50,
      "hit": false,
      "t": 71095.29141666742,
      "d": 90.47625833333586,
      "v": 82
    },
    {
      "midi": 54,
      "hit": false,
      "t": 71109.57714166741,
      "d": 66.66671666667389,
      "v": 82
    },
    {
      "midi": 69,
      "hit": false,
      "t": 71119.10095833408,
      "d": 66.66671666667389,
      "v": 95
    },
    {
      "midi": 60,
      "hit": false,
      "t": 71138.14859166741,
      "d": 28.571450000003097,
      "v": 84
    },
    {
      "midi": 59,
      "hit": false,
      "t": 71409.5773666674,
      "d": 47.619083333338494,
      "v": 86
    },
    {
      "midi": 43,
      "hit": false,
      "t": 71419.10118333407,
      "d": 38.095266666670796,
      "v": 83
    },
    {
      "midi": 50,
      "hit": false,
      "t": 71419.10118333407,
      "d": 38.095266666670796,
      "v": 84
    },
    {
      "midi": 55,
      "hit": false,
      "t": 71419.10118333407,
      "d": 38.095266666670796,
      "v": 84
    },
    {
      "midi": 67,
      "hit": false,
      "t": 71419.10118333407,
      "d": 57.14290000000619,
      "v": 86
    },
    {
      "midi": 67,
      "hit": false,
      "t": 71576.24415833408,
      "d": 71.42862500000047,
      "v": 86
    },
    {
      "midi": 71,
      "hit": false,
      "t": 71709.57759166742,
      "d": 119.04770833333896,
      "v": 77
    },
    {
      "midi": 74,
      "hit": false,
      "t": 71838.14911666742,
      "d": 47.619083333338494,
      "v": 72
    },
    {
      "midi": 59,
      "hit": false,
      "t": 71995.29209166743,
      "d": 33.33335833332967,
      "v": 84
    },
    {
      "midi": 62,
      "hit": false,
      "t": 71995.29209166743,
      "d": 42.85717499999737,
      "v": 80
    },
    {
      "midi": 55,
      "hit": false,
      "t": 71995.29209166743,
      "d": 52.38099166666507,
      "v": 82
    },
    {
      "midi": 79,
      "hit": false,
      "t": 72019.1016333341,
      "d": 47.619083333338494,
      "v": 104
    },
    {
      "midi": 79,
      "hit": false,
      "t": 72147.6731583341,
      "d": 61.90480833333277,
      "v": 101
    },
    {
      "midi": 83,
      "hit": false,
      "t": 72285.76850000078,
      "d": 61.90480833333277,
      "v": 95
    },
    {
      "midi": 86,
      "hit": false,
      "t": 72428.62575000078,
      "d": 66.66671666667389,
      "v": 86
    },
    {
      "midi": 50,
      "hit": false,
      "t": 72576.24490833412,
      "d": 52.38099166666507,
      "v": 83
    },
    {
      "midi": 62,
      "hit": false,
      "t": 72576.24490833412,
      "d": 52.38099166666507,
      "v": 80
    },
    {
      "midi": 83,
      "hit": false,
      "t": 72576.24490833412,
      "d": 100.00007500000356,
      "v": 101
    },
    {
      "midi": 91,
      "hit": false,
      "t": 72576.24490833412,
      "d": 109.52389166667126,
      "v": 104
    },
    {
      "midi": 79,
      "hit": false,
      "t": 72595.29254166746,
      "d": 42.85717499999737,
      "v": 74
    },
    {
      "midi": 89,
      "hit": false,
      "t": 72719.10215833412,
      "d": 138.09534166667436,
      "v": 66
    },
    {
      "midi": 86,
      "hit": false,
      "t": 72838.14986666746,
      "d": 157.1429749999952,
      "v": 77
    },
    {
      "midi": 59,
      "hit": false,
      "t": 72857.1975000008,
      "d": 38.095266666670796,
      "v": 83
    },
    {
      "midi": 65,
      "hit": false,
      "t": 72857.1975000008,
      "d": 38.095266666670796,
      "v": 72
    },
    {
      "midi": 55,
      "hit": false,
      "t": 72857.1975000008,
      "d": 61.90480833333277,
      "v": 81
    },
    {
      "midi": 83,
      "hit": false,
      "t": 72995.29284166745,
      "d": 123.80961666666553,
      "v": 68
    },
    {
      "midi": 79,
      "hit": false,
      "t": 73147.67390833412,
      "d": 61.90480833333277,
      "v": 77
    },
    {
      "midi": 43,
      "hit": false,
      "t": 73157.19772500079,
      "d": 52.38099166666507,
      "v": 82
    },
    {
      "midi": 77,
      "hit": false,
      "t": 73295.29306666745,
      "d": 142.85725000000093,
      "v": 71
    },
    {
      "midi": 65,
      "hit": false,
      "t": 73438.15031666745,
      "d": 47.619083333338494,
      "v": 69
    },
    {
      "midi": 55,
      "hit": false,
      "t": 73438.15031666745,
      "d": 57.14290000000619,
      "v": 80
    },
    {
      "midi": 59,
      "hit": false,
      "t": 73438.15031666745,
      "d": 57.14290000000619,
      "v": 83
    },
    {
      "midi": 74,
      "hit": false,
      "t": 73438.15031666745,
      "d": 90.47625833333586,
      "v": 62
    },
    {
      "midi": 71,
      "hit": false,
      "t": 73585.7694750008,
      "d": 61.90480833333277,
      "v": 66
    },
    {
      "midi": 72,
      "hit": false,
      "t": 73728.6267250008,
      "d": 90.47625833333586,
      "v": 71
    },
    {
      "midi": 76,
      "hit": false,
      "t": 73728.6267250008,
      "d": 100.00007500000356,
      "v": 74
    },
    {
      "midi": 48,
      "hit": false,
      "t": 73738.15054166746,
      "d": 38.095266666670796,
      "v": 81
    },
    {
      "midi": 60,
      "hit": false,
      "t": 73738.15054166746,
      "d": 38.095266666670796,
      "v": 81
    },
    {
      "midi": 60,
      "hit": false,
      "t": 74019.10313333414,
      "d": 38.095266666670796,
      "v": 81
    },
    {
      "midi": 64,
      "hit": false,
      "t": 74019.10313333414,
      "d": 38.095266666670796,
      "v": 66
    },
    {
      "midi": 55,
      "hit": false,
      "t": 74028.6269500008,
      "d": 47.619083333338494,
      "v": 81
    },
    {
      "midi": 72,
      "hit": false,
      "t": 74028.6269500008,
      "d": 47.619083333338494,
      "v": 68
    },
    {
      "midi": 76,
      "hit": false,
      "t": 74028.6269500008,
      "d": 47.619083333338494,
      "v": 69
    },
    {
      "midi": 69,
      "hit": false,
      "t": 74038.15076666747,
      "d": 28.571450000003097,
      "v": 62
    },
    {
      "midi": 67,
      "hit": false,
      "t": 74157.19847500081,
      "d": 152.38106666666863,
      "v": 77
    },
    {
      "midi": 76,
      "hit": false,
      "t": 74157.19847500081,
      "d": 190.47633333333943,
      "v": 80
    },
    {
      "midi": 72,
      "hit": false,
      "t": 74157.19847500081,
      "d": 200.00015000000712,
      "v": 80
    },
    {
      "midi": 43,
      "hit": false,
      "t": 74319.10335833415,
      "d": 47.619083333338494,
      "v": 82
    },
    {
      "midi": 72,
      "hit": false,
      "t": 74466.72251666749,
      "d": 71.42862500000047,
      "v": 80
    },
    {
      "midi": 76,
      "hit": false,
      "t": 74466.72251666749,
      "d": 71.42862500000047,
      "v": 83
    },
    {
      "midi": 69,
      "hit": false,
      "t": 74476.24633333416,
      "d": 52.38099166666507,
      "v": 83
    },
    {
      "midi": 60,
      "hit": false,
      "t": 74595.2940416675,
      "d": 42.85717499999737,
      "v": 83
    },
    {
      "midi": 64,
      "hit": false,
      "t": 74595.2940416675,
      "d": 42.85717499999737,
      "v": 72
    },
    {
      "midi": 55,
      "hit": false,
      "t": 74595.2940416675,
      "d": 52.38099166666507,
      "v": 83
    },
    {
      "midi": 67,
      "hit": false,
      "t": 74595.2940416675,
      "d": 80.95244166666816,
      "v": 95
    },
    {
      "midi": 72,
      "hit": false,
      "t": 74595.2940416675,
      "d": 90.47625833333586,
      "v": 86
    },
    {
      "midi": 76,
      "hit": false,
      "t": 74595.2940416675,
      "d": 100.00007500000356,
      "v": 77
    },
    {
      "midi": 62,
      "hit": false,
      "t": 74909.5799916675,
      "d": 38.095266666670796,
      "v": 80
    },
    {
      "midi": 71,
      "hit": false,
      "t": 74909.5799916675,
      "d": 57.14290000000619,
      "v": 86
    },
    {
      "midi": 77,
      "hit": false,
      "t": 74909.5799916675,
      "d": 66.66671666667389,
      "v": 80
    },
    {
      "midi": 50,
      "hit": false,
      "t": 74928.62762500084,
      "d": 28.571450000003097,
      "v": 81
    },
    {
      "midi": 65,
      "hit": false,
      "t": 75185.77067500084,
      "d": 33.33335833332967,
      "v": 74
    },
    {
      "midi": 59,
      "hit": false,
      "t": 75185.77067500084,
      "d": 42.85717499999737,
      "v": 83
    },
    {
      "midi": 55,
      "hit": false,
      "t": 75185.77067500084,
      "d": 52.38099166666507,
      "v": 81
    },
    {
      "midi": 69,
      "hit": false,
      "t": 75185.77067500084,
      "d": 61.90480833333277,
      "v": 69
    },
    {
      "midi": 77,
      "hit": false,
      "t": 75185.77067500084,
      "d": 61.90480833333277,
      "v": 69
    },
    {
      "midi": 67,
      "hit": false,
      "t": 75347.67555833417,
      "d": 109.52389166667126,
      "v": 83
    },
    {
      "midi": 77,
      "hit": false,
      "t": 75357.19937500084,
      "d": 128.57152500000666,
      "v": 80
    },
    {
      "midi": 43,
      "hit": false,
      "t": 75476.24708333418,
      "d": 42.85717499999737,
      "v": 83
    },
    {
      "midi": 69,
      "hit": false,
      "t": 75638.15196666752,
      "d": 38.095266666670796,
      "v": 80
    },
    {
      "midi": 77,
      "hit": false,
      "t": 75638.15196666752,
      "d": 38.095266666670796,
      "v": 80
    },
    {
      "midi": 55,
      "hit": false,
      "t": 75747.67585833419,
      "d": 71.42862500000047,
      "v": 83
    },
    {
      "midi": 59,
      "hit": false,
      "t": 75747.67585833419,
      "d": 71.42862500000047,
      "v": 83
    },
    {
      "midi": 65,
      "hit": false,
      "t": 75757.19967500085,
      "d": 52.38099166666507,
      "v": 66
    },
    {
      "midi": 67,
      "hit": false,
      "t": 75776.24730833419,
      "d": 71.42862500000047,
      "v": 90
    },
    {
      "midi": 77,
      "hit": false,
      "t": 75776.24730833419,
      "d": 80.95244166666816,
      "v": 83
    },
    {
      "midi": 48,
      "hit": false,
      "t": 76076.24753333419,
      "d": 33.33335833332967,
      "v": 83
    },
    {
      "midi": 60,
      "hit": false,
      "t": 76076.24753333419,
      "d": 42.85717499999737,
      "v": 83
    },
    {
      "midi": 72,
      "hit": false,
      "t": 76076.24753333419,
      "d": 133.33343333333323,
      "v": 80
    },
    {
      "midi": 76,
      "hit": false,
      "t": 76076.24753333419,
      "d": 133.33343333333323,
      "v": 80
    },
    {
      "midi": 55,
      "hit": false,
      "t": 76376.2477583342,
      "d": 52.38099166666507,
      "v": 82
    },
    {
      "midi": 60,
      "hit": false,
      "t": 76376.2477583342,
      "d": 52.38099166666507,
      "v": 83
    },
    {
      "midi": 69,
      "hit": false,
      "t": 76376.2477583342,
      "d": 71.42862500000047,
      "v": 90
    },
    {
      "midi": 64,
      "hit": false,
      "t": 76395.29539166753,
      "d": 33.33335833332967,
      "v": 69
    },
    {
      "midi": 67,
      "hit": false,
      "t": 76519.1050083342,
      "d": 138.09534166667436,
      "v": 83
    },
    {
      "midi": 72,
      "hit": false,
      "t": 76519.1050083342,
      "d": 147.61915833334206,
      "v": 86
    },
    {
      "midi": 76,
      "hit": false,
      "t": 76519.1050083342,
      "d": 176.19060833334515,
      "v": 80
    },
    {
      "midi": 60,
      "hit": false,
      "t": 76666.72416666754,
      "d": 42.85717499999737,
      "v": 82
    },
    {
      "midi": 64,
      "hit": false,
      "t": 76666.72416666754,
      "d": 42.85717499999737,
      "v": 80
    },
    {
      "midi": 55,
      "hit": false,
      "t": 76666.72416666754,
      "d": 61.90480833333277,
      "v": 83
    },
    {
      "midi": 43,
      "hit": false,
      "t": 76966.72439166754,
      "d": 42.85717499999737,
      "v": 83
    },
    {
      "midi": 55,
      "hit": false,
      "t": 76966.72439166754,
      "d": 52.38099166666507,
      "v": 83
    },
    {
      "midi": 71,
      "hit": false,
      "t": 76966.72439166754,
      "d": 52.38099166666507,
      "v": 95
    },
    {
      "midi": 67,
      "hit": false,
      "t": 76966.72439166754,
      "d": 61.90480833333277,
      "v": 101
    },
    {
      "midi": 74,
      "hit": false,
      "t": 76966.72439166754,
      "d": 71.42862500000047,
      "v": 83
    },
    {
      "midi": 79,
      "hit": false,
      "t": 76966.72439166754,
      "d": 90.47625833333586,
      "v": 101
    },
    {
      "midi": 48,
      "hit": false,
      "t": 77309.58179166753,
      "d": 28.571450000003097,
      "v": 84
    },
    {
      "midi": 60,
      "hit": false,
      "t": 77309.58179166753,
      "d": 28.571450000003097,
      "v": 84
    },
    {
      "midi": 72,
      "hit": false,
      "t": 77319.1056083342,
      "d": 38.095266666670796,
      "v": 77
    },
    {
      "midi": 76,
      "hit": false,
      "t": 77447.6771333342,
      "d": 47.619083333338494,
      "v": 80
    },
    {
      "midi": 79,
      "hit": false,
      "t": 77585.77247500088,
      "d": 61.90480833333277,
      "v": 80
    },
    {
      "midi": 55,
      "hit": false,
      "t": 77595.29629166755,
      "d": 52.38099166666507,
      "v": 82
    },
    {
      "midi": 60,
      "hit": false,
      "t": 77609.58201666754,
      "d": 38.095266666670796,
      "v": 80
    },
    {
      "midi": 64,
      "hit": false,
      "t": 77619.10583333421,
      "d": 47.619083333338494,
      "v": 50
    },
    {
      "midi": 84,
      "hit": false,
      "t": 77757.20117500088,
      "d": 71.42862500000047,
      "v": 86
    },
    {
      "midi": 72,
      "hit": false,
      "t": 77909.58224166755,
      "d": 66.66671666667389,
      "v": 80
    },
    {
      "midi": 46,
      "hit": false,
      "t": 77928.62987500089,
      "d": 28.571450000003097,
      "v": 83
    },
    {
      "midi": 58,
      "hit": false,
      "t": 77928.62987500089,
      "d": 28.571450000003097,
      "v": 84
    },
    {
      "midi": 76,
      "hit": false,
      "t": 78057.2014000009,
      "d": 71.42862500000047,
      "v": 80
    },
    {
      "midi": 64,
      "hit": false,
      "t": 78209.58246666756,
      "d": 57.14290000000619,
      "v": 74
    },
    {
      "midi": 79,
      "hit": false,
      "t": 78209.58246666756,
      "d": 76.19053333334159,
      "v": 80
    },
    {
      "midi": 60,
      "hit": false,
      "t": 78228.6301000009,
      "d": 38.095266666670796,
      "v": 80
    },
    {
      "midi": 55,
      "hit": false,
      "t": 78228.6301000009,
      "d": 47.619083333338494,
      "v": 80
    },
    {
      "midi": 58,
      "hit": false,
      "t": 78228.6301000009,
      "d": 47.619083333338494,
      "v": 81
    },
    {
      "midi": 84,
      "hit": false,
      "t": 78376.24925833424,
      "d": 80.95244166666816,
      "v": 90
    },
    {
      "midi": 45,
      "hit": false,
      "t": 78528.63032500091,
      "d": 28.571450000003097,
      "v": 84
    },
    {
      "midi": 57,
      "hit": false,
      "t": 78528.63032500091,
      "d": 38.095266666670796,
      "v": 82
    },
    {
      "midi": 72,
      "hit": false,
      "t": 78528.63032500091,
      "d": 80.95244166666816,
      "v": 86
    },
    {
      "midi": 77,
      "hit": false,
      "t": 78666.72566666758,
      "d": 71.42862500000047,
      "v": 90
    },
    {
      "midi": 60,
      "hit": false,
      "t": 78819.10673333425,
      "d": 38.095266666670796,
      "v": 82
    },
    {
      "midi": 65,
      "hit": false,
      "t": 78819.10673333425,
      "d": 38.095266666670796,
      "v": 72
    },
    {
      "midi": 57,
      "hit": false,
      "t": 78828.63055000092,
      "d": 38.095266666670796,
      "v": 82
    },
    {
      "midi": 84,
      "hit": false,
      "t": 78828.63055000092,
      "d": 100.00007500000356,
      "v": 95
    },
    {
      "midi": 77,
      "hit": false,
      "t": 78966.7258916676,
      "d": 71.42862500000047,
      "v": 83
    },
    {
      "midi": 44,
      "hit": false,
      "t": 79119.10695833426,
      "d": 28.571450000003097,
      "v": 82
    },
    {
      "midi": 72,
      "hit": false,
      "t": 79119.10695833426,
      "d": 76.19053333334159,
      "v": 80
    },
    {
      "midi": 56,
      "hit": false,
      "t": 79128.63077500093,
      "d": 28.571450000003097,
      "v": 80
    },
    {
      "midi": 84,
      "hit": false,
      "t": 79257.20230000094,
      "d": 271.4287750000076,
      "v": 90
    },
    {
      "midi": 65,
      "hit": false,
      "t": 79409.5833666676,
      "d": 28.571450000003097,
      "v": 72
    },
    {
      "midi": 60,
      "hit": false,
      "t": 79409.5833666676,
      "d": 38.095266666670796,
      "v": 82
    },
    {
      "midi": 56,
      "hit": false,
      "t": 79409.5833666676,
      "d": 47.619083333338494,
      "v": 81
    },
    {
      "midi": 78,
      "hit": false,
      "t": 79547.67870833428,
      "d": 61.90480833333277,
      "v": 68
    },
    {
      "midi": 43,
      "hit": false,
      "t": 79695.2978666676,
      "d": 33.33335833332967,
      "v": 82
    },
    {
      "midi": 79,
      "hit": false,
      "t": 79709.5835916676,
      "d": 138.09534166667436,
      "v": 95
    },
    {
      "midi": 67,
      "hit": false,
      "t": 79866.72656666761,
      "d": 80.95244166666816,
      "v": 77
    },
    {
      "midi": 60,
      "hit": false,
      "t": 79976.25045833428,
      "d": 52.38099166666507,
      "v": 82
    },
    {
      "midi": 55,
      "hit": false,
      "t": 79976.25045833428,
      "d": 71.42862500000047,
      "v": 82
    },
    {
      "midi": 64,
      "hit": false,
      "t": 79985.77427500095,
      "d": 42.85717499999737,
      "v": 71
    },
    {
      "midi": 76,
      "hit": false,
      "t": 79995.29809166762,
      "d": 152.38106666666863,
      "v": 80
    },
    {
      "midi": 74,
      "hit": false,
      "t": 80138.15534166762,
      "d": 128.57152500000666,
      "v": 71
    },
    {
      "midi": 57,
      "hit": false,
      "t": 80285.77450000096,
      "d": 33.33335833332967,
      "v": 84
    },
    {
      "midi": 66,
      "hit": false,
      "t": 80285.77450000096,
      "d": 61.90480833333277,
      "v": 80
    },
    {
      "midi": 72,
      "hit": false,
      "t": 80285.77450000096,
      "d": 61.90480833333277,
      "v": 83
    },
    {
      "midi": 45,
      "hit": false,
      "t": 80309.58404166762,
      "d": 28.571450000003097,
      "v": 79
    },
    {
      "midi": 71,
      "hit": false,
      "t": 80585.77472500096,
      "d": 80.95244166666816,
      "v": 80
    },
    {
      "midi": 74,
      "hit": false,
      "t": 80585.77472500096,
      "d": 80.95244166666816,
      "v": 80
    },
    {
      "midi": 43,
      "hit": false,
      "t": 80609.58426666762,
      "d": 28.571450000003097,
      "v": 84
    },
    {
      "midi": 55,
      "hit": false,
      "t": 80609.58426666762,
      "d": 28.571450000003097,
      "v": 83
    },
    {
      "midi": 65,
      "hit": false,
      "t": 80609.58426666762,
      "d": 38.095266666670796,
      "v": 80
    },
    {
      "midi": 64,
      "hit": false,
      "t": 80895.29876666762,
      "d": 42.85717499999737,
      "v": 71
    },
    {
      "midi": 67,
      "hit": false,
      "t": 80895.29876666762,
      "d": 42.85717499999737,
      "v": 83
    },
    {
      "midi": 72,
      "hit": false,
      "t": 80895.29876666762,
      "d": 71.42862500000047,
      "v": 83
    },
    {
      "midi": 48,
      "hit": false,
      "t": 80919.10830833428,
      "d": 38.095266666670796,
      "v": 84
    },
    {
      "midi": 60,
      "hit": false,
      "t": 80919.10830833428,
      "d": 38.095266666670796,
      "v": 80
    },
    {
      "midi": 72,
      "hit": false,
      "t": 81076.25128333429,
      "d": 42.85717499999737,
      "v": 80
    },
    {
      "midi": 76,
      "hit": false,
      "t": 81209.58471666762,
      "d": 38.095266666670796,
      "v": 80
    },
    {
      "midi": 43,
      "hit": false,
      "t": 81219.10853333429,
      "d": 38.095266666670796,
      "v": 83
    },
    {
      "midi": 55,
      "hit": false,
      "t": 81219.10853333429,
      "d": 38.095266666670796,
      "v": 80
    },
    {
      "midi": 79,
      "hit": false,
      "t": 81366.72769166763,
      "d": 52.38099166666507,
      "v": 74
    },
    {
      "midi": 36,
      "hit": false,
      "t": 81538.15639166764,
      "d": 28.571450000003097,
      "v": 86
    },
    {
      "midi": 76,
      "hit": false,
      "t": 81538.15639166764,
      "d": 28.571450000003097,
      "v": 101
    },
    {
      "midi": 79,
      "hit": false,
      "t": 81538.15639166764,
      "d": 28.571450000003097,
      "v": 86
    },
    {
      "midi": 48,
      "hit": false,
      "t": 81538.15639166764,
      "d": 47.619083333338494,
      "v": 82
    },
    {
      "midi": 84,
      "hit": false,
      "t": 81538.15639166764,
      "d": 47.619083333338494,
      "v": 101
    },
    {
      "midi": 71,
      "hit": false,
      "t": 82276.25218333432,
      "d": 28.571450000003097,
      "v": 95
    },
    {
      "midi": 67,
      "hit": false,
      "t": 82276.25218333432,
      "d": 38.095266666670796,
      "v": 90
    },
    {
      "midi": 74,
      "hit": false,
      "t": 82276.25218333432,
      "d": 38.095266666670796,
      "v": 86
    },
    {
      "midi": 77,
      "hit": false,
      "t": 82276.25218333432,
      "d": 47.619083333338494,
      "v": 90
    },
    {
      "midi": 67,
      "hit": false,
      "t": 82614.34767500099,
      "d": 480.95274166666786,
      "v": 80
    },
    {
      "midi": 77,
      "hit": false,
      "t": 82614.34767500099,
      "d": 490.47655833333556,
      "v": 95
    },
    {
      "midi": 71,
      "hit": false,
      "t": 82614.34767500099,
      "d": 500.00037500000326,
      "v": 90
    },
    {
      "midi": 74,
      "hit": false,
      "t": 82614.34767500099,
      "d": 500.00037500000326,
      "v": 86
    },
    {
      "midi": 67,
      "hit": false,
      "t": 83295.30056666766,
      "d": 28.571450000003097,
      "v": 80
    },
    {
      "midi": 71,
      "hit": false,
      "t": 83295.30056666766,
      "d": 28.571450000003097,
      "v": 95
    },
    {
      "midi": 74,
      "hit": false,
      "t": 83295.30056666766,
      "d": 28.571450000003097,
      "v": 77
    },
    {
      "midi": 77,
      "hit": false,
      "t": 83295.30056666766,
      "d": 38.095266666670796,
      "v": 83
    },
    {
      "midi": 77,
      "hit": false,
      "t": 83633.39605833433,
      "d": 80.95244166666816,
      "v": 80
    },
    {
      "midi": 68,
      "hit": false,
      "t": 83642.919875001,
      "d": 52.38099166666507,
      "v": 68
    },
    {
      "midi": 70,
      "hit": false,
      "t": 83642.919875001,
      "d": 61.90480833333277,
      "v": 72
    },
    {
      "midi": 74,
      "hit": false,
      "t": 83642.919875001,
      "d": 80.95244166666816,
      "v": 74
    },
    {
      "midi": 70,
      "hit": false,
      "t": 83966.72964166767,
      "d": 500.00037500000326,
      "v": 86
    },
    {
      "midi": 74,
      "hit": false,
      "t": 83966.72964166767,
      "d": 500.00037500000326,
      "v": 90
    },
    {
      "midi": 77,
      "hit": false,
      "t": 83985.777275001,
      "d": 466.6670166666736,
      "v": 86
    },
    {
      "midi": 68,
      "hit": false,
      "t": 83985.777275001,
      "d": 480.95274166666786,
      "v": 80
    },
    {
      "midi": 68,
      "hit": false,
      "t": 84642.920625001,
      "d": 52.38099166666507,
      "v": 83
    },
    {
      "midi": 70,
      "hit": false,
      "t": 84642.920625001,
      "d": 52.38099166666507,
      "v": 83
    },
    {
      "midi": 74,
      "hit": false,
      "t": 84642.920625001,
      "d": 61.90480833333277,
      "v": 80
    },
    {
      "midi": 77,
      "hit": false,
      "t": 84642.920625001,
      "d": 61.90480833333277,
      "v": 83
    },
    {
      "midi": 67,
      "hit": false,
      "t": 85004.82565833433,
      "d": 419.0479333333351,
      "v": 90
    },
    {
      "midi": 70,
      "hit": false,
      "t": 85004.82565833433,
      "d": 419.0479333333351,
      "v": 83
    },
    {
      "midi": 75,
      "hit": false,
      "t": 85004.82565833433,
      "d": 419.0479333333351,
      "v": 86
    },
    {
      "midi": 76,
      "hit": false,
      "t": 85695.30236666766,
      "d": 409.5241166666674,
      "v": 83
    },
    {
      "midi": 72,
      "hit": false,
      "t": 85695.30236666766,
      "d": 419.0479333333351,
      "v": 86
    },
    {
      "midi": 70,
      "hit": false,
      "t": 85695.30236666766,
      "d": 438.0955666666705,
      "v": 90
    },
    {
      "midi": 66,
      "hit": false,
      "t": 85714.350000001,
      "d": 400.0002999999997,
      "v": 86
    },
    {
      "midi": 77,
      "hit": false,
      "t": 86404.82670833432,
      "d": 100.00007500000356,
      "v": 101
    },
    {
      "midi": 65,
      "hit": false,
      "t": 86414.35052500099,
      "d": 71.42862500000047,
      "v": 101
    },
    {
      "midi": 69,
      "hit": false,
      "t": 86414.35052500099,
      "d": 71.42862500000047,
      "v": 95
    },
    {
      "midi": 72,
      "hit": false,
      "t": 86414.35052500099,
      "d": 71.42862500000047,
      "v": 95
    },
    {
      "midi": 69,
      "hit": false,
      "t": 87133.39868333432,
      "d": 433.33365833332937,
      "v": 101
    },
    {
      "midi": 77,
      "hit": false,
      "t": 87133.39868333432,
      "d": 433.33365833332937,
      "v": 90
    },
    {
      "midi": 29,
      "hit": false,
      "t": 87133.39868333432,
      "d": 442.85747499999707,
      "v": 104
    },
    {
      "midi": 41,
      "hit": false,
      "t": 87133.39868333432,
      "d": 442.85747499999707,
      "v": 90
    },
    {
      "midi": 65,
      "hit": false,
      "t": 87133.39868333432,
      "d": 442.85747499999707,
      "v": 97
    },
    {
      "midi": 72,
      "hit": false,
      "t": 87133.39868333432,
      "d": 442.85747499999707,
      "v": 90
    },
    {
      "midi": 75,
      "hit": false,
      "t": 87133.39868333432,
      "d": 442.85747499999707,
      "v": 83
    },
    {
      "midi": 65,
      "hit": false,
      "t": 87742.92295000098,
      "d": 852.381591666679,
      "v": 62
    },
    {
      "midi": 70,
      "hit": false,
      "t": 87785.78012500098,
      "d": 809.5244166666816,
      "v": 72
    },
    {
      "midi": 74,
      "hit": false,
      "t": 87842.92302500099,
      "d": 742.8577000000078,
      "v": 80
    },
    {
      "midi": 77,
      "hit": false,
      "t": 87876.25638333432,
      "d": 690.4767083333427,
      "v": 95
    },
    {
      "midi": 50,
      "hit": false,
      "t": 87904.82783333432,
      "d": 47.619083333338494,
      "v": 84
    },
    {
      "midi": 62,
      "hit": false,
      "t": 87904.82783333432,
      "d": 47.619083333338494,
      "v": 83
    },
    {
      "midi": 46,
      "hit": false,
      "t": 88076.25653333432,
      "d": 42.85717499999737,
      "v": 82
    },
    {
      "midi": 58,
      "hit": false,
      "t": 88076.25653333432,
      "d": 47.61908333332394,
      "v": 82
    },
    {
      "midi": 45,
      "hit": false,
      "t": 88233.39950833432,
      "d": 42.85717499999737,
      "v": 86
    },
    {
      "midi": 57,
      "hit": false,
      "t": 88233.39950833432,
      "d": 42.85717499999737,
      "v": 84
    },
    {
      "midi": 55,
      "hit": false,
      "t": 88376.25675833432,
      "d": 38.095266666670796,
      "v": 84
    },
    {
      "midi": 43,
      "hit": false,
      "t": 88376.25675833432,
      "d": 47.619083333338494,
      "v": 84
    },
    {
      "midi": 41,
      "hit": false,
      "t": 88542.923550001,
      "d": 52.38099166666507,
      "v": 83
    },
    {
      "midi": 53,
      "hit": false,
      "t": 88542.923550001,
      "d": 52.38099166666507,
      "v": 82
    },
    {
      "midi": 58,
      "hit": false,
      "t": 88723.87606666767,
      "d": 42.85717499999737,
      "v": 84
    },
    {
      "midi": 46,
      "hit": false,
      "t": 88733.39988333434,
      "d": 33.33335833332967,
      "v": 83
    },
    {
      "midi": 62,
      "hit": false,
      "t": 88733.39988333434,
      "d": 42.85717499999737,
      "v": 77
    },
    {
      "midi": 74,
      "hit": false,
      "t": 88742.923700001,
      "d": 33.33335833332967,
      "v": 83
    },
    {
      "midi": 60,
      "hit": false,
      "t": 88885.780950001,
      "d": 28.571450000003097,
      "v": 84
    },
    {
      "midi": 48,
      "hit": false,
      "t": 88895.30476666767,
      "d": 28.571450000003097,
      "v": 83
    },
    {
      "midi": 63,
      "hit": false,
      "t": 88895.30476666767,
      "d": 47.619083333338494,
      "v": 77
    },
    {
      "midi": 75,
      "hit": false,
      "t": 88895.30476666767,
      "d": 57.14290000000619,
      "v": 80
    },
    {
      "midi": 61,
      "hit": false,
      "t": 89014.35247500101,
      "d": 61.90480833333277,
      "v": 80
    },
    {
      "midi": 49,
      "hit": false,
      "t": 89023.87629166768,
      "d": 52.38099166666507,
      "v": 84
    },
    {
      "midi": 64,
      "hit": false,
      "t": 89042.92392500101,
      "d": 52.38099166666507,
      "v": 68
    },
    {
      "midi": 76,
      "hit": false,
      "t": 89052.44774166768,
      "d": 42.85717499999737,
      "v": 62
    },
    {
      "midi": 50,
      "hit": false,
      "t": 89195.30499166768,
      "d": 71.42862500000047,
      "v": 86
    },
    {
      "midi": 62,
      "hit": false,
      "t": 89195.30499166768,
      "d": 71.42862500000047,
      "v": 90
    },
    {
      "midi": 77,
      "hit": false,
      "t": 89195.30499166768,
      "d": 109.52389166667126,
      "v": 86
    },
    {
      "midi": 65,
      "hit": false,
      "t": 89195.30499166768,
      "d": 128.57152500000666,
      "v": 80
    },
    {
      "midi": 70,
      "hit": false,
      "t": 89342.92415000102,
      "d": 100.00007500000356,
      "v": 80
    },
    {
      "midi": 75,
      "hit": false,
      "t": 89495.3052166677,
      "d": 80.95244166666816,
      "v": 86
    },
    {
      "midi": 48,
      "hit": false,
      "t": 89504.82903333436,
      "d": 38.095266666670796,
      "v": 84
    },
    {
      "midi": 60,
      "hit": false,
      "t": 89504.82903333436,
      "d": 38.095266666670796,
      "v": 84
    },
    {
      "midi": 70,
      "hit": false,
      "t": 89652.44819166769,
      "d": 180.95251666667173,
      "v": 86
    },
    {
      "midi": 74,
      "hit": false,
      "t": 89652.44819166769,
      "d": 190.47633333333943,
      "v": 95
    },
    {
      "midi": 62,
      "hit": false,
      "t": 89676.25773333435,
      "d": 138.09534166667436,
      "v": 83
    },
    {
      "midi": 46,
      "hit": false,
      "t": 89814.35307500102,
      "d": 52.38099166666507,
      "v": 82
    },
    {
      "midi": 58,
      "hit": false,
      "t": 89814.35307500102,
      "d": 52.38099166666507,
      "v": 83
    },
    {
      "midi": 74,
      "hit": false,
      "t": 89976.25795833436,
      "d": 166.6667916666629,
      "v": 74
    },
    {
      "midi": 62,
      "hit": false,
      "t": 90133.40093333436,
      "d": 42.85717499999737,
      "v": 74
    },
    {
      "midi": 77,
      "hit": false,
      "t": 90133.40093333436,
      "d": 133.33343333333323,
      "v": 80
    },
    {
      "midi": 53,
      "hit": false,
      "t": 90142.92475000102,
      "d": 42.85717499999737,
      "v": 82
    },
    {
      "midi": 58,
      "hit": false,
      "t": 90142.92475000102,
      "d": 42.85717499999737,
      "v": 82
    },
    {
      "midi": 68,
      "hit": false,
      "t": 90295.3058166677,
      "d": 190.47633333333943,
      "v": 83
    },
    {
      "midi": 80,
      "hit": false,
      "t": 90295.3058166677,
      "d": 257.1430500000133,
      "v": 86
    },
    {
      "midi": 39,
      "hit": false,
      "t": 90466.7345166677,
      "d": 47.619083333338494,
      "v": 82
    },
    {
      "midi": 51,
      "hit": false,
      "t": 90466.7345166677,
      "d": 47.619083333338494,
      "v": 83
    },
    {
      "midi": 75,
      "hit": false,
      "t": 90623.8774916677,
      "d": 90.47625833333586,
      "v": 66
    },
    {
      "midi": 79,
      "hit": false,
      "t": 90633.40130833437,
      "d": 180.95251666667173,
      "v": 72
    },
    {
      "midi": 63,
      "hit": false,
      "t": 90785.78237500104,
      "d": 38.095266666670796,
      "v": 74
    },
    {
      "midi": 70,
      "hit": false,
      "t": 90785.78237500104,
      "d": 80.95244166666816,
      "v": 77
    },
    {
      "midi": 82,
      "hit": false,
      "t": 90785.78237500104,
      "d": 138.09534166667436,
      "v": 69
    },
    {
      "midi": 58,
      "hit": false,
      "t": 90795.30619166771,
      "d": 28.571450000003097,
      "v": 80
    },
    {
      "midi": 55,
      "hit": false,
      "t": 90795.30619166771,
      "d": 47.619083333338494,
      "v": 81
    },
    {
      "midi": 75,
      "hit": false,
      "t": 90914.35390000105,
      "d": 200.00015000000712,
      "v": 72
    },
    {
      "midi": 79,
      "hit": false,
      "t": 90923.87771666772,
      "d": 190.47633333333943,
      "v": 68
    },
    {
      "midi": 72,
      "hit": false,
      "t": 91076.25878333439,
      "d": 57.14290000000619,
      "v": 77
    },
    {
      "midi": 84,
      "hit": false,
      "t": 91085.78260000105,
      "d": 57.14290000000619,
      "v": 86
    },
    {
      "midi": 39,
      "hit": false,
      "t": 91095.30641666772,
      "d": 28.571450000003097,
      "v": 84
    },
    {
      "midi": 51,
      "hit": false,
      "t": 91095.30641666772,
      "d": 28.571450000003097,
      "v": 82
    },
    {
      "midi": 75,
      "hit": false,
      "t": 91242.92557500106,
      "d": 61.90480833333277,
      "v": 71
    },
    {
      "midi": 79,
      "hit": false,
      "t": 91242.92557500106,
      "d": 71.42862500000047,
      "v": 66
    },
    {
      "midi": 82,
      "hit": false,
      "t": 91242.92557500106,
      "d": 71.42862500000047,
      "v": 68
    },
    {
      "midi": 70,
      "hit": false,
      "t": 91266.73511666773,
      "d": 38.095266666670796,
      "v": 62
    },
    {
      "midi": 49,
      "hit": false,
      "t": 91404.8304583344,
      "d": 47.619083333338494,
      "v": 82
    },
    {
      "midi": 37,
      "hit": false,
      "t": 91414.35427500107,
      "d": 38.095266666670796,
      "v": 82
    },
    {
      "midi": 70,
      "hit": false,
      "t": 91576.2591583344,
      "d": 857.143499999991,
      "v": 83
    },
    {
      "midi": 74,
      "hit": false,
      "t": 91576.2591583344,
      "d": 857.143499999991,
      "v": 86
    },
    {
      "midi": 77,
      "hit": false,
      "t": 91576.2591583344,
      "d": 876.1911333333264,
      "v": 86
    },
    {
      "midi": 65,
      "hit": false,
      "t": 91576.2591583344,
      "d": 976.19120833333,
      "v": 90
    },
    {
      "midi": 38,
      "hit": false,
      "t": 91723.87831666773,
      "d": 52.38099166666507,
      "v": 83
    },
    {
      "midi": 50,
      "hit": false,
      "t": 91723.87831666773,
      "d": 52.38099166666507,
      "v": 83
    },
    {
      "midi": 41,
      "hit": false,
      "t": 92052.44999166773,
      "d": 33.33335833332967,
      "v": 83
    },
    {
      "midi": 53,
      "hit": false,
      "t": 92052.44999166773,
      "d": 33.33335833332967,
      "v": 82
    },
    {
      "midi": 46,
      "hit": false,
      "t": 92214.35487500107,
      "d": 52.38099166666507,
      "v": 84
    },
    {
      "midi": 58,
      "hit": false,
      "t": 92214.35487500107,
      "d": 52.38099166666507,
      "v": 95
    },
    {
      "midi": 60,
      "hit": false,
      "t": 92376.25975833439,
      "d": 76.19053333334159,
      "v": 84
    },
    {
      "midi": 48,
      "hit": false,
      "t": 92395.30739166772,
      "d": 38.095266666670796,
      "v": 84
    },
    {
      "midi": 69,
      "hit": false,
      "t": 92552.45036666773,
      "d": 71.42862500000047,
      "v": 101
    },
    {
      "midi": 72,
      "hit": false,
      "t": 92695.30761666773,
      "d": 80.95244166666816,
      "v": 95
    },
    {
      "midi": 63,
      "hit": false,
      "t": 92714.35525000107,
      "d": 61.90480833333277,
      "v": 80
    },
    {
      "midi": 53,
      "hit": false,
      "t": 92714.35525000107,
      "d": 80.95244166666816,
      "v": 82
    },
    {
      "midi": 57,
      "hit": false,
      "t": 92714.35525000107,
      "d": 80.95244166666816,
      "v": 82
    },
    {
      "midi": 77,
      "hit": false,
      "t": 92842.92677500108,
      "d": 80.95244166666816,
      "v": 101
    },
    {
      "midi": 62,
      "hit": false,
      "t": 93004.83165833441,
      "d": 47.619083333338494,
      "v": 80
    },
    {
      "midi": 50,
      "hit": false,
      "t": 93014.35547500108,
      "d": 52.38099166666507,
      "v": 83
    },
    {
      "midi": 77,
      "hit": false,
      "t": 93014.35547500108,
      "d": 619.0480833333568,
      "v": 80
    },
    {
      "midi": 74,
      "hit": false,
      "t": 93014.35547500108,
      "d": 638.0957166666922,
      "v": 83
    },
    {
      "midi": 65,
      "hit": false,
      "t": 93014.35547500108,
      "d": 652.3814416666864,
      "v": 90
    },
    {
      "midi": 70,
      "hit": false,
      "t": 93014.35547500108,
      "d": 661.9052583333541,
      "v": 80
    },
    {
      "midi": 58,
      "hit": false,
      "t": 93176.26035833442,
      "d": 57.14290000000619,
      "v": 82
    },
    {
      "midi": 46,
      "hit": false,
      "t": 93176.26035833442,
      "d": 66.66671666667389,
      "v": 82
    },
    {
      "midi": 57,
      "hit": false,
      "t": 93342.9271500011,
      "d": 52.38099166666507,
      "v": 84
    },
    {
      "midi": 45,
      "hit": false,
      "t": 93342.9271500011,
      "d": 61.90480833333277,
      "v": 90
    },
    {
      "midi": 55,
      "hit": false,
      "t": 93495.30821666776,
      "d": 38.095266666670796,
      "v": 82
    },
    {
      "midi": 43,
      "hit": false,
      "t": 93495.30821666776,
      "d": 57.14290000000619,
      "v": 83
    },
    {
      "midi": 53,
      "hit": false,
      "t": 93676.26073333443,
      "d": 47.619083333338494,
      "v": 82
    },
    {
      "midi": 41,
      "hit": false,
      "t": 93685.7845500011,
      "d": 47.619083333338494,
      "v": 83
    },
    {
      "midi": 50,
      "hit": false,
      "t": 93842.92752500111,
      "d": 42.85717499999737,
      "v": 80
    },
    {
      "midi": 58,
      "hit": false,
      "t": 93842.92752500111,
      "d": 52.38099166666507,
      "v": 84
    },
    {
      "midi": 70,
      "hit": false,
      "t": 93842.92752500111,
      "d": 52.38099166666507,
      "v": 86
    },
    {
      "midi": 38,
      "hit": false,
      "t": 93866.73706666777,
      "d": 19.047633333335398,
      "v": 82
    },
    {
      "midi": 39,
      "hit": false,
      "t": 93995.30859166778,
      "d": 57.14290000000619,
      "v": 83
    },
    {
      "midi": 51,
      "hit": false,
      "t": 93995.30859166778,
      "d": 57.14290000000619,
      "v": 83
    },
    {
      "midi": 72,
      "hit": false,
      "t": 94014.35622500112,
      "d": 28.571450000003097,
      "v": 77
    },
    {
      "midi": 60,
      "hit": false,
      "t": 94023.88004166778,
      "d": 28.571450000003097,
      "v": 81
    },
    {
      "midi": 61,
      "hit": false,
      "t": 94142.92775000112,
      "d": 52.38099166666507,
      "v": 77
    },
    {
      "midi": 73,
      "hit": false,
      "t": 94142.92775000112,
      "d": 61.90480833333277,
      "v": 86
    },
    {
      "midi": 40,
      "hit": false,
      "t": 94152.45156666779,
      "d": 42.85717499999737,
      "v": 84
    },
    {
      "midi": 52,
      "hit": false,
      "t": 94152.45156666779,
      "d": 42.85717499999737,
      "v": 82
    },
    {
      "midi": 62,
      "hit": false,
      "t": 94314.35645000113,
      "d": 80.95244166666816,
      "v": 95
    },
    {
      "midi": 74,
      "hit": false,
      "t": 94314.35645000113,
      "d": 100.00007500000356,
      "v": 101
    },
    {
      "midi": 53,
      "hit": false,
      "t": 94323.8802666678,
      "d": 71.42862500000047,
      "v": 84
    },
    {
      "midi": 41,
      "hit": false,
      "t": 94333.40408333446,
      "d": 61.90480833333277,
      "v": 86
    },
    {
      "midi": 70,
      "hit": false,
      "t": 94452.4517916678,
      "d": 114.28579999999783,
      "v": 77
    },
    {
      "midi": 63,
      "hit": false,
      "t": 94604.83285833447,
      "d": 38.095266666670796,
      "v": 68
    },
    {
      "midi": 72,
      "hit": false,
      "t": 94614.35667500114,
      "d": 28.571450000003097,
      "v": 83
    },
    {
      "midi": 54,
      "hit": false,
      "t": 94614.35667500114,
      "d": 52.38099166666507,
      "v": 83
    },
    {
      "midi": 42,
      "hit": false,
      "t": 94614.35667500114,
      "d": 61.90480833333277,
      "v": 84
    },
    {
      "midi": 62,
      "hit": false,
      "t": 94766.7377416678,
      "d": 209.52396666667482,
      "v": 86
    },
    {
      "midi": 70,
      "hit": false,
      "t": 94766.7377416678,
      "d": 247.61923333334562,
      "v": 90
    },
    {
      "midi": 58,
      "hit": false,
      "t": 94776.26155833447,
      "d": 147.61915833334206,
      "v": 95
    },
    {
      "midi": 43,
      "hit": false,
      "t": 94795.30919166781,
      "d": 57.14290000000619,
      "v": 84
    },
    {
      "midi": 55,
      "hit": false,
      "t": 94795.30919166781,
      "d": 57.14290000000619,
      "v": 84
    },
    {
      "midi": 46,
      "hit": false,
      "t": 95104.83323333449,
      "d": 28.571450000003097,
      "v": 82
    },
    {
      "midi": 58,
      "hit": false,
      "t": 95104.83323333449,
      "d": 28.571450000003097,
      "v": 82
    },
    {
      "midi": 70,
      "hit": false,
      "t": 95266.73811666782,
      "d": 66.66671666667389,
      "v": 83
    },
    {
      "midi": 62,
      "hit": false,
      "t": 95276.26193333449,
      "d": 57.14290000000619,
      "v": 90
    },
    {
      "midi": 65,
      "hit": false,
      "t": 95276.26193333449,
      "d": 57.14290000000619,
      "v": 86
    },
    {
      "midi": 50,
      "hit": false,
      "t": 95285.78575000116,
      "d": 47.619083333338494,
      "v": 84
    },
    {
      "midi": 49,
      "hit": false,
      "t": 95442.92872500117,
      "d": 61.90480833333277,
      "v": 86
    },
    {
      "midi": 61,
      "hit": false,
      "t": 95442.92872500117,
      "d": 61.90480833333277,
      "v": 86
    },
    {
      "midi": 69,
      "hit": false,
      "t": 95576.2621583345,
      "d": 100.00007500000356,
      "v": 101
    },
    {
      "midi": 65,
      "hit": false,
      "t": 95585.78597500117,
      "d": 109.52389166667126,
      "v": 80
    },
    {
      "midi": 60,
      "hit": false,
      "t": 95604.8336083345,
      "d": 71.42862500000047,
      "v": 90
    },
    {
      "midi": 48,
      "hit": false,
      "t": 95614.35742500117,
      "d": 52.38099166666507,
      "v": 84
    },
    {
      "midi": 69,
      "hit": false,
      "t": 95714.35750000118,
      "d": 61.90480833333277,
      "v": 46
    },
    {
      "midi": 77,
      "hit": false,
      "t": 95742.92895000118,
      "d": 123.80961666666553,
      "v": 86
    },
    {
      "midi": 72,
      "hit": false,
      "t": 95876.26238333451,
      "d": 66.66671666667389,
      "v": 74
    },
    {
      "midi": 57,
      "hit": false,
      "t": 95904.83383333452,
      "d": 38.095266666670796,
      "v": 84
    },
    {
      "midi": 60,
      "hit": false,
      "t": 95904.83383333452,
      "d": 47.619083333338494,
      "v": 83
    },
    {
      "midi": 70,
      "hit": false,
      "t": 96052.45299166786,
      "d": 214.2858750000014,
      "v": 80
    },
    {
      "midi": 64,
      "hit": false,
      "t": 96052.45299166786,
      "d": 223.8096916666691,
      "v": 80
    },
    {
      "midi": 74,
      "hit": false,
      "t": 96066.73871666785,
      "d": 247.61923333334562,
      "v": 80
    },
    {
      "midi": 48,
      "hit": false,
      "t": 96214.3578750012,
      "d": 71.42862500000047,
      "v": 83
    },
    {
      "midi": 70,
      "hit": false,
      "t": 96366.73894166786,
      "d": 85.71434999999474,
      "v": 77
    },
    {
      "midi": 67,
      "hit": false,
      "t": 96504.83428333452,
      "d": 71.42862500000047,
      "v": 83
    },
    {
      "midi": 64,
      "hit": false,
      "t": 96514.35810000119,
      "d": 52.38099166666507,
      "v": 66
    },
    {
      "midi": 58,
      "hit": false,
      "t": 96514.35810000119,
      "d": 61.90480833333277,
      "v": 82
    },
    {
      "midi": 60,
      "hit": false,
      "t": 96523.88191666786,
      "d": 52.38099166666507,
      "v": 83
    },
    {
      "midi": 55,
      "hit": false,
      "t": 96533.40573333453,
      "d": 42.85717499999737,
      "v": 79
    },
    {
      "midi": 69,
      "hit": false,
      "t": 96676.26298333453,
      "d": 200.00015000000712,
      "v": 95
    },
    {
      "midi": 65,
      "hit": false,
      "t": 96676.26298333453,
      "d": 219.04778333334252,
      "v": 90
    },
    {
      "midi": 60,
      "hit": false,
      "t": 96823.88214166787,
      "d": 52.38099166666507,
      "v": 82
    },
    {
      "midi": 57,
      "hit": false,
      "t": 96833.40595833454,
      "d": 33.33335833332967,
      "v": 82
    },
    {
      "midi": 53,
      "hit": false,
      "t": 96833.40595833454,
      "d": 42.85717499999737,
      "v": 80
    },
    {
      "midi": 69,
      "hit": false,
      "t": 96985.7870250012,
      "d": 66.66671666667389,
      "v": 90
    },
    {
      "midi": 72,
      "hit": false,
      "t": 97133.40618333455,
      "d": 80.95244166666816,
      "v": 101
    },
    {
      "midi": 45,
      "hit": false,
      "t": 97166.73954166788,
      "d": 19.047633333335398,
      "v": 83
    },
    {
      "midi": 57,
      "hit": false,
      "t": 97166.73954166788,
      "d": 28.571450000003097,
      "v": 82
    },
    {
      "midi": 77,
      "hit": false,
      "t": 97285.78725000122,
      "d": 300.00022499999614,
      "v": 107
    },
    {
      "midi": 48,
      "hit": false,
      "t": 97423.88259166788,
      "d": 71.42862500000047,
      "v": 84
    },
    {
      "midi": 60,
      "hit": false,
      "t": 97433.40640833454,
      "d": 42.85717499999737,
      "v": 84
    },
    {
      "midi": 69,
      "hit": false,
      "t": 97595.31129166788,
      "d": 90.47625833333586,
      "v": 83
    },
    {
      "midi": 72,
      "hit": false,
      "t": 97723.88281666789,
      "d": 90.47625833333586,
      "v": 90
    },
    {
      "midi": 51,
      "hit": false,
      "t": 97752.45426666789,
      "d": 52.38099166666507,
      "v": 84
    },
    {
      "midi": 63,
      "hit": false,
      "t": 97752.45426666789,
      "d": 52.38099166666507,
      "v": 86
    },
    {
      "midi": 77,
      "hit": false,
      "t": 97885.78770000122,
      "d": 66.66671666667389,
      "v": 95
    },
    {
      "midi": 77,
      "hit": false,
      "t": 98033.40685833457,
      "d": 680.952891666675,
      "v": 77
    },
    {
      "midi": 65,
      "hit": false,
      "t": 98033.40685833457,
      "d": 700.0005250000104,
      "v": 74
    },
    {
      "midi": 74,
      "hit": false,
      "t": 98033.40685833457,
      "d": 700.0005250000104,
      "v": 80
    },
    {
      "midi": 70,
      "hit": false,
      "t": 98033.40685833457,
      "d": 709.5243416666781,
      "v": 74
    },
    {
      "midi": 50,
      "hit": false,
      "t": 98052.4544916679,
      "d": 33.33335833332967,
      "v": 82
    },
    {
      "midi": 62,
      "hit": false,
      "t": 98052.4544916679,
      "d": 33.33335833332967,
      "v": 66
    },
    {
      "midi": 46,
      "hit": false,
      "t": 98233.40700833456,
      "d": 42.85717499999737,
      "v": 80
    },
    {
      "midi": 58,
      "hit": false,
      "t": 98233.40700833456,
      "d": 42.85717499999737,
      "v": 80
    },
    {
      "midi": 57,
      "hit": false,
      "t": 98385.78807500123,
      "d": 38.095266666670796,
      "v": 82
    },
    {
      "midi": 45,
      "hit": false,
      "t": 98385.78807500123,
      "d": 47.619083333338494,
      "v": 84
    },
    {
      "midi": 43,
      "hit": false,
      "t": 98533.40723333457,
      "d": 42.85717499999737,
      "v": 81
    },
    {
      "midi": 55,
      "hit": false,
      "t": 98533.40723333457,
      "d": 42.85717499999737,
      "v": 81
    },
    {
      "midi": 41,
      "hit": false,
      "t": 98676.26448333457,
      "d": 38.095266666670796,
      "v": 83
    },
    {
      "midi": 53,
      "hit": false,
      "t": 98676.26448333457,
      "d": 38.095266666670796,
      "v": 83
    },
    {
      "midi": 58,
      "hit": false,
      "t": 98876.26463333458,
      "d": 38.095266666670796,
      "v": 82
    },
    {
      "midi": 46,
      "hit": false,
      "t": 98885.78845000124,
      "d": 28.571450000003097,
      "v": 82
    },
    {
      "midi": 62,
      "hit": false,
      "t": 98885.78845000124,
      "d": 28.571450000003097,
      "v": 77
    },
    {
      "midi": 74,
      "hit": false,
      "t": 98885.78845000124,
      "d": 28.571450000003097,
      "v": 86
    },
    {
      "midi": 60,
      "hit": false,
      "t": 99033.40760833459,
      "d": 33.33335833332967,
      "v": 84
    },
    {
      "midi": 48,
      "hit": false,
      "t": 99042.93142500125,
      "d": 33.33335833332967,
      "v": 82
    },
    {
      "midi": 63,
      "hit": false,
      "t": 99042.93142500125,
      "d": 52.38099166666507,
      "v": 71
    },
    {
      "midi": 75,
      "hit": false,
      "t": 99042.93142500125,
      "d": 61.90480833333277,
      "v": 77
    },
    {
      "midi": 49,
      "hit": false,
      "t": 99176.26485833459,
      "d": 47.619083333338494,
      "v": 82
    },
    {
      "midi": 61,
      "hit": false,
      "t": 99176.26485833459,
      "d": 57.14290000000619,
      "v": 72
    },
    {
      "midi": 64,
      "hit": false,
      "t": 99195.31249166792,
      "d": 38.095266666670796,
      "v": 77
    },
    {
      "midi": 76,
      "hit": false,
      "t": 99195.31249166792,
      "d": 38.095266666670796,
      "v": 80
    },
    {
      "midi": 77,
      "hit": false,
      "t": 99333.4078333346,
      "d": 100.00007500000356,
      "v": 90
    },
    {
      "midi": 65,
      "hit": false,
      "t": 99333.4078333346,
      "d": 109.52389166667126,
      "v": 95
    },
    {
      "midi": 62,
      "hit": false,
      "t": 99352.45546666793,
      "d": 71.42862500000047,
      "v": 86
    },
    {
      "midi": 50,
      "hit": false,
      "t": 99366.74119166793,
      "d": 57.14290000000619,
      "v": 84
    },
    {
      "midi": 70,
      "hit": false,
      "t": 99485.78890000127,
      "d": 109.52389166667126,
      "v": 77
    },
    {
      "midi": 75,
      "hit": false,
      "t": 99642.93187500128,
      "d": 71.42862500000047,
      "v": 80
    },
    {
      "midi": 60,
      "hit": false,
      "t": 99652.45569166794,
      "d": 42.85717499999737,
      "v": 83
    },
    {
      "midi": 48,
      "hit": false,
      "t": 99666.74141666794,
      "d": 28.571450000003097,
      "v": 84
    },
    {
      "midi": 62,
      "hit": false,
      "t": 99814.36057500128,
      "d": 152.38106666666863,
      "v": 90
    },
    {
      "midi": 70,
      "hit": false,
      "t": 99814.36057500128,
      "d": 171.42870000000403,
      "v": 86
    },
    {
      "midi": 74,
      "hit": false,
      "t": 99833.40820833461,
      "d": 171.42870000000403,
      "v": 73
    },
    {
      "midi": 46,
      "hit": false,
      "t": 99976.26545833462,
      "d": 19.047633333335398,
      "v": 82
    },
    {
      "midi": 58,
      "hit": false,
      "t": 99976.26545833462,
      "d": 28.571450000003097,
      "v": 82
    },
    {
      "midi": 74,
      "hit": false,
      "t": 100133.40843333463,
      "d": 119.04770833333896,
      "v": 80
    },
    {
      "midi": 62,
      "hit": false,
      "t": 100285.7895000013,
      "d": 47.619083333338494,
      "v": 80
    },
    {
      "midi": 77,
      "hit": false,
      "t": 100285.7895000013,
      "d": 128.57152500000666,
      "v": 80
    },
    {
      "midi": 53,
      "hit": false,
      "t": 100295.31331666796,
      "d": 47.619083333338494,
      "v": 82
    },
    {
      "midi": 58,
      "hit": false,
      "t": 100295.31331666796,
      "d": 47.619083333338494,
      "v": 82
    },
    {
      "midi": 80,
      "hit": false,
      "t": 100395.31339166797,
      "d": 300.0002250000107,
      "v": 72
    },
    {
      "midi": 68,
      "hit": false,
      "t": 100442.9324750013,
      "d": 161.90488333333633,
      "v": 66
    },
    {
      "midi": 39,
      "hit": false,
      "t": 100604.83735833464,
      "d": 38.095266666670796,
      "v": 82
    },
    {
      "midi": 51,
      "hit": false,
      "t": 100604.83735833464,
      "d": 38.095266666670796,
      "v": 82
    },
    {
      "midi": 79,
      "hit": false,
      "t": 100742.93270000131,
      "d": 190.47633333333943,
      "v": 72
    },
    {
      "midi": 75,
      "hit": false,
      "t": 100752.45651666798,
      "d": 114.28579999999783,
      "v": 68
    },
    {
      "midi": 82,
      "hit": false,
      "t": 100904.83758333465,
      "d": 128.57152500000666,
      "v": 68
    },
    {
      "midi": 63,
      "hit": false,
      "t": 100914.36140000132,
      "d": 52.38099166666507,
      "v": 74
    },
    {
      "midi": 70,
      "hit": false,
      "t": 100914.36140000132,
      "d": 90.47625833333586,
      "v": 71
    },
    {
      "midi": 58,
      "hit": false,
      "t": 100933.40903333465,
      "d": 33.33335833332967,
      "v": 79
    },
    {
      "midi": 55,
      "hit": false,
      "t": 100933.40903333465,
      "d": 42.85717499999737,
      "v": 80
    },
    {
      "midi": 79,
      "hit": false,
      "t": 101052.456741668,
      "d": 171.42870000000403,
      "v": 62
    },
    {
      "midi": 75,
      "hit": false,
      "t": 101052.456741668,
      "d": 190.47633333333943,
      "v": 68
    },
    {
      "midi": 72,
      "hit": false,
      "t": 101214.36162500133,
      "d": 52.38099166666507,
      "v": 66
    },
    {
      "midi": 84,
      "hit": false,
      "t": 101214.36162500133,
      "d": 61.90480833333277,
      "v": 77
    },
    {
      "midi": 51,
      "hit": false,
      "t": 101223.885441668,
      "d": 28.571450000003097,
      "v": 82
    },
    {
      "midi": 39,
      "hit": false,
      "t": 101223.885441668,
      "d": 42.85717499999737,
      "v": 84
    },
    {
      "midi": 82,
      "hit": false,
      "t": 101366.742691668,
      "d": 109.52389166667126,
      "v": 63
    },
    {
      "midi": 79,
      "hit": false,
      "t": 101376.26650833467,
      "d": 90.47625833333586,
      "v": 69
    },
    {
      "midi": 70,
      "hit": false,
      "t": 101385.79032500133,
      "d": 109.52389166667126,
      "v": 65
    },
    {
      "midi": 75,
      "hit": false,
      "t": 101385.79032500133,
      "d": 109.52389166667126,
      "v": 69
    },
    {
      "midi": 43,
      "hit": false,
      "t": 101523.88566666801,
      "d": 42.85717499999737,
      "v": 83
    },
    {
      "midi": 55,
      "hit": false,
      "t": 101523.88566666801,
      "d": 42.85717499999737,
      "v": 82
    },
    {
      "midi": 77,
      "hit": false,
      "t": 101685.79055000134,
      "d": 190.47633333332487,
      "v": 80
    },
    {
      "midi": 74,
      "hit": false,
      "t": 101695.31436666801,
      "d": 157.1429749999952,
      "v": 69
    },
    {
      "midi": 65,
      "hit": false,
      "t": 101695.31436666801,
      "d": 171.42869999998948,
      "v": 74
    },
    {
      "midi": 70,
      "hit": false,
      "t": 101695.31436666801,
      "d": 180.95251666665717,
      "v": 72
    },
    {
      "midi": 58,
      "hit": false,
      "t": 101833.40970833467,
      "d": 42.85717499999737,
      "v": 84
    },
    {
      "midi": 46,
      "hit": false,
      "t": 101833.40970833467,
      "d": 52.38099166666507,
      "v": 83
    },
    {
      "midi": 74,
      "hit": false,
      "t": 101985.79077500134,
      "d": 66.66671666667389,
      "v": 86
    },
    {
      "midi": 77,
      "hit": false,
      "t": 102133.40993333468,
      "d": 90.47625833333586,
      "v": 101
    },
    {
      "midi": 56,
      "hit": false,
      "t": 102142.93375000135,
      "d": 61.90480833333277,
      "v": 84
    },
    {
      "midi": 44,
      "hit": false,
      "t": 102152.45756666802,
      "d": 52.38099166666507,
      "v": 84
    },
    {
      "midi": 65,
      "hit": false,
      "t": 102276.26718333468,
      "d": 76.19053333332704,
      "v": 80
    },
    {
      "midi": 70,
      "hit": false,
      "t": 102433.41015833468,
      "d": 100.00007500000356,
      "v": 72
    },
    {
      "midi": 43,
      "hit": false,
      "t": 102452.45779166801,
      "d": 52.38099166666507,
      "v": 82
    },
    {
      "midi": 55,
      "hit": false,
      "t": 102452.45779166801,
      "d": 52.38099166666507,
      "v": 82
    },
    {
      "midi": 74,
      "hit": false,
      "t": 102585.79122500135,
      "d": 157.1429749999952,
      "v": 68
    },
    {
      "midi": 77,
      "hit": false,
      "t": 102742.93420000134,
      "d": 61.90480833333277,
      "v": 80
    },
    {
      "midi": 53,
      "hit": false,
      "t": 102776.26755833467,
      "d": 28.571450000003097,
      "v": 82
    },
    {
      "midi": 41,
      "hit": false,
      "t": 102776.26755833467,
      "d": 38.095266666670796,
      "v": 81
    },
    {
      "midi": 80,
      "hit": false,
      "t": 102904.83908333468,
      "d": 171.42870000000403,
      "v": 90
    },
    {
      "midi": 39,
      "hit": false,
      "t": 103076.26778333468,
      "d": 38.095266666670796,
      "v": 81
    },
    {
      "midi": 51,
      "hit": false,
      "t": 103076.26778333468,
      "d": 38.095266666670796,
      "v": 84
    },
    {
      "midi": 75,
      "hit": false,
      "t": 103233.41075833469,
      "d": 80.95244166666816,
      "v": 65
    },
    {
      "midi": 79,
      "hit": false,
      "t": 103233.41075833469,
      "d": 180.95251666667173,
      "v": 68
    },
    {
      "midi": 63,
      "hit": false,
      "t": 103385.79182500136,
      "d": 47.619083333338494,
      "v": 72
    },
    {
      "midi": 55,
      "hit": false,
      "t": 103395.31564166803,
      "d": 38.095266666670796,
      "v": 82
    },
    {
      "midi": 58,
      "hit": false,
      "t": 103395.31564166803,
      "d": 38.095266666670796,
      "v": 81
    },
    {
      "midi": 70,
      "hit": false,
      "t": 103395.31564166803,
      "d": 80.95244166666816,
      "v": 72
    },
    {
      "midi": 82,
      "hit": false,
      "t": 103395.31564166803,
      "d": 109.52389166667126,
      "v": 69
    },
    {
      "midi": 75,
      "hit": false,
      "t": 103533.4109833347,
      "d": 180.95251666667173,
      "v": 66
    },
    {
      "midi": 79,
      "hit": false,
      "t": 103542.93480000137,
      "d": 152.38106666666863,
      "v": 71
    },
    {
      "midi": 72,
      "hit": false,
      "t": 103685.79205000137,
      "d": 38.095266666670796,
      "v": 66
    },
    {
      "midi": 39,
      "hit": false,
      "t": 103695.31586666804,
      "d": 28.571450000003097,
      "v": 83
    },
    {
      "midi": 51,
      "hit": false,
      "t": 103695.31586666804,
      "d": 28.571450000003097,
      "v": 82
    },
    {
      "midi": 84,
      "hit": false,
      "t": 103695.31586666804,
      "d": 38.095266666670796,
      "v": 71
    },
    {
      "midi": 82,
      "hit": false,
      "t": 103833.41120833471,
      "d": 119.04770833333896,
      "v": 65
    },
    {
      "midi": 79,
      "hit": false,
      "t": 103852.45884166805,
      "d": 90.47625833333586,
      "v": 69
    },
    {
      "midi": 75,
      "hit": false,
      "t": 103852.45884166805,
      "d": 100.00007500000356,
      "v": 72
    },
    {
      "midi": 70,
      "hit": false,
      "t": 103852.45884166805,
      "d": 114.28579999999783,
      "v": 72
    },
    {
      "midi": 49,
      "hit": false,
      "t": 104014.36372500139,
      "d": 38.095266666670796,
      "v": 82
    },
    {
      "midi": 37,
      "hit": false,
      "t": 104023.88754166805,
      "d": 28.571450000003097,
      "v": 81
    },
    {
      "midi": 65,
      "hit": false,
      "t": 104166.74479166805,
      "d": 166.6667916666629,
      "v": 77
    },
    {
      "midi": 77,
      "hit": false,
      "t": 104166.74479166805,
      "d": 200.00014999999257,
      "v": 80
    },
    {
      "midi": 70,
      "hit": false,
      "t": 104166.74479166805,
      "d": 209.52396666666027,
      "v": 68
    },
    {
      "midi": 74,
      "hit": false,
      "t": 104166.74479166805,
      "d": 209.52396666666027,
      "v": 72
    },
    {
      "midi": 50,
      "hit": false,
      "t": 104333.41158333472,
      "d": 33.33335833332967,
      "v": 83
    },
    {
      "midi": 38,
      "hit": false,
      "t": 104333.41158333472,
      "d": 42.85717499999737,
      "v": 83
    },
    {
      "midi": 65,
      "hit": false,
      "t": 104476.26883333472,
      "d": 100.00007500000356,
      "v": 69
    },
    {
      "midi": 74,
      "hit": false,
      "t": 104604.84035833472,
      "d": 38.095266666670796,
      "v": 72
    },
    {
      "midi": 70,
      "hit": false,
      "t": 104604.84035833472,
      "d": 47.619083333338494,
      "v": 77
    },
    {
      "midi": 77,
      "hit": false,
      "t": 104614.36417500139,
      "d": 52.38099166666507,
      "v": 77
    },
    {
      "midi": 44,
      "hit": false,
      "t": 104633.41180833473,
      "d": 42.85717499999737,
      "v": 83
    },
    {
      "midi": 32,
      "hit": false,
      "t": 104633.41180833473,
      "d": 61.90480833333277,
      "v": 82
    },
    {
      "midi": 74,
      "hit": false,
      "t": 104766.74524166806,
      "d": 209.52396666666027,
      "v": 83
    },
    {
      "midi": 67,
      "hit": false,
      "t": 104766.74524166806,
      "d": 219.04778333332797,
      "v": 80
    },
    {
      "midi": 71,
      "hit": false,
      "t": 104766.74524166806,
      "d": 219.04778333332797,
      "v": 86
    },
    {
      "midi": 79,
      "hit": false,
      "t": 104766.74524166806,
      "d": 228.57159999999567,
      "v": 95
    },
    {
      "midi": 31,
      "hit": false,
      "t": 104933.41203333472,
      "d": 33.33335833332967,
      "v": 82
    },
    {
      "midi": 43,
      "hit": false,
      "t": 104933.41203333472,
      "d": 33.33335833332967,
      "v": 83
    },
    {
      "midi": 74,
      "hit": false,
      "t": 105076.26928333472,
      "d": 76.19053333332704,
      "v": 80
    },
    {
      "midi": 55,
      "hit": false,
      "t": 105223.88844166805,
      "d": 80.95244166666816,
      "v": 80
    },
    {
      "midi": 71,
      "hit": false,
      "t": 105223.88844166805,
      "d": 80.95244166666816,
      "v": 83
    },
    {
      "midi": 59,
      "hit": false,
      "t": 105233.41225833472,
      "d": 61.90480833333277,
      "v": 81
    },
    {
      "midi": 62,
      "hit": false,
      "t": 105233.41225833472,
      "d": 71.42862500000047,
      "v": 60
    },
    {
      "midi": 65,
      "hit": false,
      "t": 105242.93607500139,
      "d": 52.38099166666507,
      "v": 77
    },
    {
      "midi": 67,
      "hit": false,
      "t": 105376.26950833472,
      "d": 66.66671666667389,
      "v": 74
    },
    {
      "midi": 48,
      "hit": false,
      "t": 105533.41248333473,
      "d": 80.95244166666816,
      "v": 82
    },
    {
      "midi": 55,
      "hit": false,
      "t": 105533.41248333473,
      "d": 80.95244166666816,
      "v": 79
    },
    {
      "midi": 58,
      "hit": false,
      "t": 105533.41248333473,
      "d": 80.95244166666816,
      "v": 81
    },
    {
      "midi": 72,
      "hit": false,
      "t": 105533.41248333473,
      "d": 100.00007500000356,
      "v": 83
    },
    {
      "midi": 64,
      "hit": false,
      "t": 105695.31736666807,
      "d": 71.42862500000047,
      "v": 68
    },
    {
      "midi": 70,
      "hit": false,
      "t": 105842.9365250014,
      "d": 71.42862500000047,
      "v": 95
    },
    {
      "midi": 60,
      "hit": false,
      "t": 105852.46034166806,
      "d": 52.38099166666507,
      "v": 83
    },
    {
      "midi": 64,
      "hit": false,
      "t": 105852.46034166806,
      "d": 61.90480833333277,
      "v": 71
    },
    {
      "midi": 69,
      "hit": false,
      "t": 106152.46056666806,
      "d": 71.42862500000047,
      "v": 90
    },
    {
      "midi": 60,
      "hit": false,
      "t": 106176.27010833472,
      "d": 76.19053333334159,
      "v": 84
    },
    {
      "midi": 63,
      "hit": false,
      "t": 106185.79392500139,
      "d": 57.14290000000619,
      "v": 71
    },
    {
      "midi": 53,
      "hit": false,
      "t": 106185.79392500139,
      "d": 66.66671666667389,
      "v": 82
    },
    {
      "midi": 77,
      "hit": false,
      "t": 106314.3654500014,
      "d": 52.38099166666507,
      "v": 71
    },
    {
      "midi": 75,
      "hit": false,
      "t": 106476.27033333473,
      "d": 76.19053333334159,
      "v": 71
    },
    {
      "midi": 53,
      "hit": false,
      "t": 106485.7941500014,
      "d": 66.66671666667389,
      "v": 80
    },
    {
      "midi": 63,
      "hit": false,
      "t": 106485.7941500014,
      "d": 66.66671666667389,
      "v": 72
    },
    {
      "midi": 57,
      "hit": false,
      "t": 106514.3656000014,
      "d": 38.095266666670796,
      "v": 82
    },
    {
      "midi": 72,
      "hit": false,
      "t": 106633.41330833474,
      "d": 61.90480833333277,
      "v": 77
    },
    {
      "midi": 70,
      "hit": false,
      "t": 106785.79437500141,
      "d": 1209.524716666696,
      "v": 95
    },
    {
      "midi": 58,
      "hit": false,
      "t": 106804.84200833474,
      "d": 47.619083333338494,
      "v": 82
    },
    {
      "midi": 62,
      "hit": false,
      "t": 106804.84200833474,
      "d": 47.619083333338494,
      "v": 80
    },
    {
      "midi": 53,
      "hit": false,
      "t": 107123.88986666808,
      "d": 42.85717499999737,
      "v": 80
    },
    {
      "midi": 41,
      "hit": false,
      "t": 107128.6517750014,
      "d": 38.095266666670796,
      "v": 83
    },
    {
      "midi": 55,
      "hit": false,
      "t": 107285.79475000141,
      "d": 38.095266666670796,
      "v": 83
    },
    {
      "midi": 43,
      "hit": false,
      "t": 107295.31856666808,
      "d": 38.095266666670796,
      "v": 83
    },
    {
      "midi": 45,
      "hit": false,
      "t": 107442.93772500142,
      "d": 33.33335833332967,
      "v": 82
    },
    {
      "midi": 57,
      "hit": false,
      "t": 107442.93772500142,
      "d": 42.85717499999737,
      "v": 84
    },
    {
      "midi": 46,
      "hit": false,
      "t": 107604.84260833476,
      "d": 47.619083333338494,
      "v": 83
    },
    {
      "midi": 58,
      "hit": false,
      "t": 107604.84260833476,
      "d": 61.90480833333277,
      "v": 83
    },
    {
      "midi": 60,
      "hit": false,
      "t": 107766.7474916681,
      "d": 38.095266666670796,
      "v": 86
    },
    {
      "midi": 48,
      "hit": false,
      "t": 107776.27130833476,
      "d": 28.571450000003097,
      "v": 82
    },
    {
      "midi": 49,
      "hit": false,
      "t": 107904.84283333477,
      "d": 61.90480833333277,
      "v": 83
    },
    {
      "midi": 61,
      "hit": false,
      "t": 107904.84283333477,
      "d": 71.42862500000047,
      "v": 80
    },
    {
      "midi": 50,
      "hit": false,
      "t": 108076.27153333477,
      "d": 57.14290000000619,
      "v": 84
    },
    {
      "midi": 62,
      "hit": false,
      "t": 108076.27153333477,
      "d": 57.14290000000619,
      "v": 80
    },
    {
      "midi": 77,
      "hit": false,
      "t": 108076.27153333477,
      "d": 709.5243416666926,
      "v": 101
    },
    {
      "midi": 74,
      "hit": false,
      "t": 108076.27153333477,
      "d": 728.571975000028,
      "v": 95
    },
    {
      "midi": 65,
      "hit": false,
      "t": 108076.27153333477,
      "d": 738.0957916666957,
      "v": 101
    },
    {
      "midi": 70,
      "hit": false,
      "t": 108076.27153333477,
      "d": 757.1434250000311,
      "v": 101
    },
    {
      "midi": 58,
      "hit": false,
      "t": 108266.74786666811,
      "d": 47.619083333338494,
      "v": 83
    },
    {
      "midi": 46,
      "hit": false,
      "t": 108276.27168333478,
      "d": 38.095266666670796,
      "v": 82
    },
    {
      "midi": 57,
      "hit": false,
      "t": 108433.41465833479,
      "d": 42.85717499999737,
      "v": 82
    },
    {
      "midi": 45,
      "hit": false,
      "t": 108442.93847500146,
      "d": 33.33335833332967,
      "v": 82
    },
    {
      "midi": 43,
      "hit": false,
      "t": 108585.79572500146,
      "d": 38.095266666670796,
      "v": 81
    },
    {
      "midi": 55,
      "hit": false,
      "t": 108585.79572500146,
      "d": 38.095266666670796,
      "v": 81
    },
    {
      "midi": 53,
      "hit": false,
      "t": 108742.93870000147,
      "d": 61.90480833333277,
      "v": 82
    },
    {
      "midi": 41,
      "hit": false,
      "t": 108766.74824166813,
      "d": 38.095266666670796,
      "v": 83
    },
    {
      "midi": 62,
      "hit": false,
      "t": 108942.93885000148,
      "d": 42.85717499999737,
      "v": 80
    },
    {
      "midi": 74,
      "hit": false,
      "t": 108942.93885000148,
      "d": 42.85717499999737,
      "v": 86
    },
    {
      "midi": 46,
      "hit": false,
      "t": 108942.93885000148,
      "d": 52.38099166666507,
      "v": 84
    },
    {
      "midi": 58,
      "hit": false,
      "t": 108942.93885000148,
      "d": 52.38099166666507,
      "v": 86
    },
    {
      "midi": 63,
      "hit": false,
      "t": 109104.84373333481,
      "d": 47.619083333338494,
      "v": 71
    },
    {
      "midi": 75,
      "hit": false,
      "t": 109104.84373333481,
      "d": 61.90480833333277,
      "v": 77
    },
    {
      "midi": 60,
      "hit": false,
      "t": 109114.36755000148,
      "d": 28.571450000003097,
      "v": 84
    },
    {
      "midi": 48,
      "hit": false,
      "t": 109123.89136666815,
      "d": 42.85717499999737,
      "v": 81
    },
    {
      "midi": 49,
      "hit": false,
      "t": 109252.46289166814,
      "d": 52.38099166666507,
      "v": 82
    },
    {
      "midi": 64,
      "hit": false,
      "t": 109252.46289166814,
      "d": 52.38099166666507,
      "v": 77
    },
    {
      "midi": 61,
      "hit": false,
      "t": 109252.46289166814,
      "d": 71.42862500000047,
      "v": 74
    },
    {
      "midi": 76,
      "hit": false,
      "t": 109266.74861666813,
      "d": 38.095266666670796,
      "v": 77
    },
    {
      "midi": 77,
      "hit": false,
      "t": 109395.32014166814,
      "d": 147.61915833334206,
      "v": 86
    },
    {
      "midi": 65,
      "hit": false,
      "t": 109395.32014166814,
      "d": 190.47633333333943,
      "v": 86
    },
    {
      "midi": 50,
      "hit": false,
      "t": 109433.41540833481,
      "d": 61.90480833333277,
      "v": 86
    },
    {
      "midi": 62,
      "hit": false,
      "t": 109433.41540833481,
      "d": 61.90480833333277,
      "v": 90
    },
    {
      "midi": 70,
      "hit": false,
      "t": 109552.46311666815,
      "d": 123.80961666666553,
      "v": 77
    },
    {
      "midi": 60,
      "hit": false,
      "t": 109723.89181666815,
      "d": 28.571450000003097,
      "v": 84
    },
    {
      "midi": 48,
      "hit": false,
      "t": 109723.89181666815,
      "d": 52.38099166666507,
      "v": 84
    },
    {
      "midi": 75,
      "hit": false,
      "t": 109723.89181666815,
      "d": 71.42862500000047,
      "v": 83
    },
    {
      "midi": 62,
      "hit": false,
      "t": 109885.79670000149,
      "d": 157.14297500000976,
      "v": 86
    },
    {
      "midi": 70,
      "hit": false,
      "t": 109885.79670000149,
      "d": 190.47633333333943,
      "v": 90
    },
    {
      "midi": 74,
      "hit": false,
      "t": 109885.79670000149,
      "d": 200.00015000000712,
      "v": 90
    },
    {
      "midi": 46,
      "hit": false,
      "t": 110033.41585833483,
      "d": 52.38099166666507,
      "v": 83
    },
    {
      "midi": 58,
      "hit": false,
      "t": 110033.41585833483,
      "d": 52.38099166666507,
      "v": 90
    },
    {
      "midi": 74,
      "hit": false,
      "t": 110214.3683750015,
      "d": 119.04770833333896,
      "v": 86
    },
    {
      "midi": 62,
      "hit": false,
      "t": 110352.46371666818,
      "d": 42.85717499999737,
      "v": 74
    },
    {
      "midi": 77,
      "hit": false,
      "t": 110352.46371666818,
      "d": 133.33343333333323,
      "v": 77
    },
    {
      "midi": 53,
      "hit": false,
      "t": 110376.27325833484,
      "d": 38.095266666670796,
      "v": 82
    },
    {
      "midi": 58,
      "hit": false,
      "t": 110376.27325833484,
      "d": 38.095266666670796,
      "v": 82
    },
    {
      "midi": 68,
      "hit": false,
      "t": 110514.36860000152,
      "d": 171.42870000000403,
      "v": 83
    },
    {
      "midi": 80,
      "hit": false,
      "t": 110514.36860000152,
      "d": 228.57160000001022,
      "v": 86
    },
    {
      "midi": 39,
      "hit": false,
      "t": 110685.79730000152,
      "d": 38.095266666670796,
      "v": 83
    },
    {
      "midi": 51,
      "hit": false,
      "t": 110685.79730000152,
      "d": 38.095266666670796,
      "v": 84
    },
    {
      "midi": 75,
      "hit": false,
      "t": 110823.8926416682,
      "d": 128.57152500000666,
      "v": 66
    },
    {
      "midi": 79,
      "hit": false,
      "t": 110823.8926416682,
      "d": 180.95251666667173,
      "v": 71
    },
    {
      "midi": 63,
      "hit": false,
      "t": 110995.3213416682,
      "d": 47.619083333338494,
      "v": 77
    },
    {
      "midi": 82,
      "hit": false,
      "t": 110995.3213416682,
      "d": 147.61915833334206,
      "v": 69
    },
    {
      "midi": 55,
      "hit": false,
      "t": 111004.84515833487,
      "d": 47.619083333338494,
      "v": 82
    },
    {
      "midi": 58,
      "hit": false,
      "t": 111004.84515833487,
      "d": 47.619083333338494,
      "v": 81
    },
    {
      "midi": 70,
      "hit": false,
      "t": 111004.84515833487,
      "d": 100.00007500000356,
      "v": 80
    },
    {
      "midi": 75,
      "hit": false,
      "t": 111142.94050000154,
      "d": 190.47633333333943,
      "v": 71
    },
    {
      "midi": 79,
      "hit": false,
      "t": 111166.7500416682,
      "d": 157.14297500000976,
      "v": 71
    },
    {
      "midi": 51,
      "hit": false,
      "t": 111304.84538333488,
      "d": 28.571450000003097,
      "v": 84
    },
    {
      "midi": 39,
      "hit": false,
      "t": 111304.84538333488,
      "d": 38.095266666670796,
      "v": 84
    },
    {
      "midi": 72,
      "hit": false,
      "t": 111304.84538333488,
      "d": 38.095266666670796,
      "v": 71
    },
    {
      "midi": 84,
      "hit": false,
      "t": 111304.84538333488,
      "d": 61.90480833333277,
      "v": 80
    },
    {
      "midi": 75,
      "hit": false,
      "t": 111476.27408333488,
      "d": 76.19053333334159,
      "v": 69
    },
    {
      "midi": 79,
      "hit": false,
      "t": 111476.27408333488,
      "d": 76.19053333334159,
      "v": 65
    },
    {
      "midi": 82,
      "hit": false,
      "t": 111476.27408333488,
      "d": 90.47625833333586,
      "v": 63
    },
    {
      "midi": 70,
      "hit": false,
      "t": 111495.32171666822,
      "d": 71.42862500000047,
      "v": 74
    },
    {
      "midi": 49,
      "hit": false,
      "t": 111623.89324166822,
      "d": 61.90480833333277,
      "v": 82
    },
    {
      "midi": 37,
      "hit": false,
      "t": 111633.41705833489,
      "d": 52.38099166666507,
      "v": 82
    },
    {
      "midi": 70,
      "hit": false,
      "t": 111795.32194166823,
      "d": 757.143425000002,
      "v": 80
    },
    {
      "midi": 74,
      "hit": false,
      "t": 111795.32194166823,
      "d": 757.143425000002,
      "v": 80
    },
    {
      "midi": 77,
      "hit": false,
      "t": 111795.32194166823,
      "d": 771.4291499999963,
      "v": 80
    },
    {
      "midi": 65,
      "hit": false,
      "t": 111814.36957500156,
      "d": 871.4292249999999,
      "v": 77
    },
    {
      "midi": 38,
      "hit": false,
      "t": 111942.94110000157,
      "d": 52.38099166666507,
      "v": 83
    },
    {
      "midi": 50,
      "hit": false,
      "t": 111942.94110000157,
      "d": 52.38099166666507,
      "v": 82
    },
    {
      "midi": 41,
      "hit": false,
      "t": 112266.75086666823,
      "d": 38.095266666670796,
      "v": 81
    },
    {
      "midi": 53,
      "hit": false,
      "t": 112266.75086666823,
      "d": 38.095266666670796,
      "v": 81
    },
    {
      "midi": 58,
      "hit": false,
      "t": 112414.37002500157,
      "d": 52.38099166666507,
      "v": 90
    },
    {
      "midi": 46,
      "hit": false,
      "t": 112414.37002500157,
      "d": 61.90480833333277,
      "v": 83
    },
    {
      "midi": 48,
      "hit": false,
      "t": 112595.32254166823,
      "d": 71.42862500000047,
      "v": 83
    },
    {
      "midi": 60,
      "hit": false,
      "t": 112595.32254166823,
      "d": 71.42862500000047,
      "v": 84
    },
    {
      "midi": 69,
      "hit": false,
      "t": 112733.4178833349,
      "d": 71.42862500000047,
      "v": 101
    },
    {
      "midi": 72,
      "hit": false,
      "t": 112866.75131666823,
      "d": 85.71435000000929,
      "v": 95
    },
    {
      "midi": 63,
      "hit": false,
      "t": 112904.8465833349,
      "d": 71.42862500000047,
      "v": 80
    },
    {
      "midi": 57,
      "hit": false,
      "t": 112914.37040000157,
      "d": 71.42862500000047,
      "v": 82
    },
    {
      "midi": 53,
      "hit": false,
      "t": 112914.37040000157,
      "d": 90.47625833333586,
      "v": 82
    },
    {
      "midi": 77,
      "hit": false,
      "t": 113023.89429166824,
      "d": 71.42862500000047,
      "v": 95
    },
    {
      "midi": 50,
      "hit": false,
      "t": 113185.79917500158,
      "d": 38.095266666670796,
      "v": 83
    },
    {
      "midi": 62,
      "hit": false,
      "t": 113185.79917500158,
      "d": 38.095266666670796,
      "v": 72
    },
    {
      "midi": 77,
      "hit": false,
      "t": 113185.79917500158,
      "d": 600.0004499999923,
      "v": 86
    },
    {
      "midi": 74,
      "hit": false,
      "t": 113185.79917500158,
      "d": 619.0480833333277,
      "v": 80
    },
    {
      "midi": 65,
      "hit": false,
      "t": 113185.79917500158,
      "d": 638.0957166666631,
      "v": 80
    },
    {
      "midi": 70,
      "hit": false,
      "t": 113185.79917500158,
      "d": 638.0957166666631,
      "v": 80
    },
    {
      "midi": 46,
      "hit": false,
      "t": 113366.75169166825,
      "d": 47.619083333338494,
      "v": 83
    },
    {
      "midi": 58,
      "hit": false,
      "t": 113366.75169166825,
      "d": 47.619083333338494,
      "v": 82
    },
    {
      "midi": 45,
      "hit": false,
      "t": 113523.89466666826,
      "d": 42.85717499999737,
      "v": 84
    },
    {
      "midi": 57,
      "hit": false,
      "t": 113523.89466666826,
      "d": 42.85717499999737,
      "v": 82
    },
    {
      "midi": 43,
      "hit": false,
      "t": 113666.75191666826,
      "d": 42.85717499998282,
      "v": 82
    },
    {
      "midi": 55,
      "hit": false,
      "t": 113671.51382500159,
      "d": 42.85717499998282,
      "v": 82
    },
    {
      "midi": 53,
      "hit": false,
      "t": 113804.8472583349,
      "d": 47.619083333338494,
      "v": 82
    },
    {
      "midi": 41,
      "hit": false,
      "t": 113823.89489166824,
      "d": 28.571450000003097,
      "v": 82
    },
    {
      "midi": 38,
      "hit": false,
      "t": 113995.32359166825,
      "d": 28.571450000003097,
      "v": 83
    },
    {
      "midi": 70,
      "hit": false,
      "t": 113995.32359166825,
      "d": 38.095266666670796,
      "v": 68
    },
    {
      "midi": 50,
      "hit": false,
      "t": 113995.32359166825,
      "d": 42.85717499999737,
      "v": 82
    },
    {
      "midi": 58,
      "hit": false,
      "t": 113995.32359166825,
      "d": 47.61908333332394,
      "v": 83
    },
    {
      "midi": 51,
      "hit": false,
      "t": 114166.75229166824,
      "d": 28.571450000003097,
      "v": 83
    },
    {
      "midi": 60,
      "hit": false,
      "t": 114166.75229166824,
      "d": 28.571450000003097,
      "v": 84
    },
    {
      "midi": 72,
      "hit": false,
      "t": 114166.75229166824,
      "d": 28.571450000003097,
      "v": 80
    },
    {
      "midi": 39,
      "hit": false,
      "t": 114166.75229166824,
      "d": 47.619083333338494,
      "v": 82
    },
    {
      "midi": 61,
      "hit": false,
      "t": 114304.84763333491,
      "d": 61.90480833333277,
      "v": 80
    },
    {
      "midi": 73,
      "hit": false,
      "t": 114304.84763333491,
      "d": 61.90480833333277,
      "v": 86
    },
    {
      "midi": 40,
      "hit": false,
      "t": 114333.41908333491,
      "d": 33.33335833332967,
      "v": 82
    },
    {
      "midi": 52,
      "hit": false,
      "t": 114333.41908333491,
      "d": 33.33335833332967,
      "v": 81
    },
    {
      "midi": 62,
      "hit": false,
      "t": 114452.46679166825,
      "d": 100.00007500000356,
      "v": 95
    },
    {
      "midi": 74,
      "hit": false,
      "t": 114452.46679166825,
      "d": 114.28579999999783,
      "v": 101
    },
    {
      "midi": 53,
      "hit": false,
      "t": 114476.27633333491,
      "d": 38.095266666670796,
      "v": 86
    },
    {
      "midi": 41,
      "hit": false,
      "t": 114476.27633333491,
      "d": 57.14290000000619,
      "v": 86
    },
    {
      "midi": 62,
      "hit": false,
      "t": 114604.84785833492,
      "d": 61.90480833333277,
      "v": 32
    },
    {
      "midi": 70,
      "hit": false,
      "t": 114604.84785833492,
      "d": 119.04770833333896,
      "v": 80
    },
    {
      "midi": 42,
      "hit": false,
      "t": 114752.46701666826,
      "d": 61.90480833333277,
      "v": 83
    },
    {
      "midi": 54,
      "hit": false,
      "t": 114752.46701666826,
      "d": 61.90480833333277,
      "v": 83
    },
    {
      "midi": 63,
      "hit": false,
      "t": 114766.75274166826,
      "d": 47.619083333338494,
      "v": 65
    },
    {
      "midi": 72,
      "hit": false,
      "t": 114776.27655833492,
      "d": 38.095266666670796,
      "v": 80
    },
    {
      "midi": 62,
      "hit": false,
      "t": 114914.3719000016,
      "d": 228.57160000001022,
      "v": 83
    },
    {
      "midi": 70,
      "hit": false,
      "t": 114914.3719000016,
      "d": 261.9049583333399,
      "v": 86
    },
    {
      "midi": 58,
      "hit": false,
      "t": 114923.89571666827,
      "d": 161.90488333333633,
      "v": 84
    },
    {
      "midi": 43,
      "hit": false,
      "t": 114942.9433500016,
      "d": 33.33335833332967,
      "v": 84
    },
    {
      "midi": 55,
      "hit": false,
      "t": 114942.9433500016,
      "d": 33.33335833332967,
      "v": 84
    },
    {
      "midi": 46,
      "hit": false,
      "t": 115223.89594166828,
      "d": 52.38099166666507,
      "v": 83
    },
    {
      "midi": 58,
      "hit": false,
      "t": 115223.89594166828,
      "d": 61.90480833333277,
      "v": 83
    },
    {
      "midi": 70,
      "hit": false,
      "t": 115385.80082500161,
      "d": 66.66671666667389,
      "v": 80
    },
    {
      "midi": 65,
      "hit": false,
      "t": 115395.32464166828,
      "d": 71.42862500000047,
      "v": 80
    },
    {
      "midi": 62,
      "hit": false,
      "t": 115414.37227500162,
      "d": 28.571450000003097,
      "v": 80
    },
    {
      "midi": 50,
      "hit": false,
      "t": 115423.89609166828,
      "d": 42.85717499999737,
      "v": 81
    },
    {
      "midi": 49,
      "hit": false,
      "t": 115566.75334166829,
      "d": 57.14290000000619,
      "v": 83
    },
    {
      "midi": 61,
      "hit": false,
      "t": 115566.75334166829,
      "d": 57.14290000000619,
      "v": 77
    },
    {
      "midi": 69,
      "hit": false,
      "t": 115685.80105000162,
      "d": 209.52396666667482,
      "v": 86
    },
    {
      "midi": 65,
      "hit": false,
      "t": 115704.84868333496,
      "d": 100.00007500000356,
      "v": 63
    },
    {
      "midi": 48,
      "hit": false,
      "t": 115714.37250000163,
      "d": 61.90480833333277,
      "v": 84
    },
    {
      "midi": 60,
      "hit": false,
      "t": 115714.37250000163,
      "d": 61.90480833333277,
      "v": 84
    },
    {
      "midi": 77,
      "hit": false,
      "t": 115852.4678416683,
      "d": 114.28579999999783,
      "v": 86
    },
    {
      "midi": 72,
      "hit": false,
      "t": 115985.80127500164,
      "d": 80.95244166666816,
      "v": 74
    },
    {
      "midi": 57,
      "hit": false,
      "t": 116023.8965416683,
      "d": 42.85717499999737,
      "v": 83
    },
    {
      "midi": 60,
      "hit": false,
      "t": 116023.8965416683,
      "d": 61.90480833333277,
      "v": 83
    },
    {
      "midi": 70,
      "hit": false,
      "t": 116152.46806666831,
      "d": 190.47633333333943,
      "v": 86
    },
    {
      "midi": 64,
      "hit": false,
      "t": 116152.46806666831,
      "d": 233.3335083333368,
      "v": 77
    },
    {
      "midi": 74,
      "hit": false,
      "t": 116152.46806666831,
      "d": 252.3811416666722,
      "v": 86
    },
    {
      "midi": 48,
      "hit": false,
      "t": 116323.89676666832,
      "d": 71.42862500000047,
      "v": 83
    },
    {
      "midi": 70,
      "hit": false,
      "t": 116466.75401666832,
      "d": 85.71434999999474,
      "v": 74
    },
    {
      "midi": 64,
      "hit": false,
      "t": 116614.37317500164,
      "d": 61.90480833333277,
      "v": 71
    },
    {
      "midi": 67,
      "hit": false,
      "t": 116614.37317500164,
      "d": 80.95244166666816,
      "v": 83
    },
    {
      "midi": 58,
      "hit": false,
      "t": 116623.89699166831,
      "d": 52.38099166666507,
      "v": 82
    },
    {
      "midi": 60,
      "hit": false,
      "t": 116623.89699166831,
      "d": 71.42862500000047,
      "v": 82
    },
    {
      "midi": 55,
      "hit": false,
      "t": 116642.94462500165,
      "d": 33.33335833332967,
      "v": 80
    },
    {
      "midi": 65,
      "hit": false,
      "t": 116785.80187500165,
      "d": 180.95251666667173,
      "v": 95
    },
    {
      "midi": 69,
      "hit": false,
      "t": 116785.80187500165,
      "d": 180.95251666667173,
      "v": 95
    },
    {
      "midi": 57,
      "hit": false,
      "t": 116933.42103333499,
      "d": 42.85717499999737,
      "v": 82
    },
    {
      "midi": 60,
      "hit": false,
      "t": 116933.42103333499,
      "d": 42.85717499999737,
      "v": 82
    },
    {
      "midi": 53,
      "hit": false,
      "t": 116933.42103333499,
      "d": 52.38099166666507,
      "v": 82
    },
    {
      "midi": 69,
      "hit": false,
      "t": 117085.80210000166,
      "d": 57.14290000000619,
      "v": 86
    },
    {
      "midi": 45,
      "hit": false,
      "t": 117223.89744166833,
      "d": 42.85717499999737,
      "v": 84
    },
    {
      "midi": 57,
      "hit": false,
      "t": 117223.89744166833,
      "d": 42.85717499999737,
      "v": 84
    },
    {
      "midi": 72,
      "hit": false,
      "t": 117223.89744166833,
      "d": 80.95244166666816,
      "v": 83
    },
    {
      "midi": 77,
      "hit": false,
      "t": 117385.80232500167,
      "d": 228.57159999999567,
      "v": 107
    },
    {
      "midi": 48,
      "hit": false,
      "t": 117542.94530000167,
      "d": 33.33335833332967,
      "v": 86
    },
    {
      "midi": 60,
      "hit": false,
      "t": 117542.94530000167,
      "d": 33.33335833332967,
      "v": 84
    },
    {
      "midi": 69,
      "hit": false,
      "t": 117676.278733335,
      "d": 66.66671666667389,
      "v": 90
    },
    {
      "midi": 72,
      "hit": false,
      "t": 117833.42170833501,
      "d": 71.42862500000047,
      "v": 86
    },
    {
      "midi": 51,
      "hit": false,
      "t": 117852.46934166834,
      "d": 42.85717499999737,
      "v": 82
    },
    {
      "midi": 63,
      "hit": false,
      "t": 117852.46934166834,
      "d": 42.85717499999737,
      "v": 68
    },
    {
      "midi": 77,
      "hit": false,
      "t": 117995.32659166834,
      "d": 57.14290000000619,
      "v": 90
    },
    {
      "midi": 50,
      "hit": false,
      "t": 118142.94575000169,
      "d": 42.85717499999737,
      "v": 82
    },
    {
      "midi": 62,
      "hit": false,
      "t": 118142.94575000169,
      "d": 42.85717499999737,
      "v": 69
    },
    {
      "midi": 77,
      "hit": false,
      "t": 118142.94575000169,
      "d": 661.9052583333396,
      "v": 80
    },
    {
      "midi": 65,
      "hit": false,
      "t": 118142.94575000169,
      "d": 680.952891666675,
      "v": 86
    },
    {
      "midi": 74,
      "hit": false,
      "t": 118142.94575000169,
      "d": 680.952891666675,
      "v": 83
    },
    {
      "midi": 70,
      "hit": false,
      "t": 118142.94575000169,
      "d": 690.4767083333427,
      "v": 80
    },
    {
      "midi": 46,
      "hit": false,
      "t": 118333.42208333501,
      "d": 42.85717499999737,
      "v": 82
    },
    {
      "midi": 58,
      "hit": false,
      "t": 118333.42208333501,
      "d": 42.85717499999737,
      "v": 81
    },
    {
      "midi": 45,
      "hit": false,
      "t": 118485.80315000168,
      "d": 38.095266666670796,
      "v": 84
    },
    {
      "midi": 57,
      "hit": false,
      "t": 118485.80315000168,
      "d": 38.095266666670796,
      "v": 82
    },
    {
      "midi": 43,
      "hit": false,
      "t": 118633.42230833502,
      "d": 42.85717499999737,
      "v": 82
    },
    {
      "midi": 55,
      "hit": false,
      "t": 118633.42230833502,
      "d": 42.85717499999737,
      "v": 79
    },
    {
      "midi": 41,
      "hit": false,
      "t": 118785.80337500169,
      "d": 28.571450000003097,
      "v": 84
    },
    {
      "midi": 53,
      "hit": false,
      "t": 118785.80337500169,
      "d": 28.571450000003097,
      "v": 83
    },
    {
      "midi": 62,
      "hit": false,
      "t": 118976.27970833503,
      "d": 38.095266666670796,
      "v": 86
    },
    {
      "midi": 58,
      "hit": false,
      "t": 118976.27970833503,
      "d": 47.619083333338494,
      "v": 83
    },
    {
      "midi": 74,
      "hit": false,
      "t": 118976.27970833503,
      "d": 47.619083333338494,
      "v": 86
    },
    {
      "midi": 46,
      "hit": false,
      "t": 118985.8035250017,
      "d": 38.095266666670796,
      "v": 82
    },
    {
      "midi": 60,
      "hit": false,
      "t": 119133.42268333504,
      "d": 42.85717499999737,
      "v": 84
    },
    {
      "midi": 75,
      "hit": false,
      "t": 119133.42268333504,
      "d": 61.90480833333277,
      "v": 77
    },
    {
      "midi": 48,
      "hit": false,
      "t": 119142.94650000171,
      "d": 33.33335833332967,
      "v": 83
    },
    {
      "midi": 63,
      "hit": false,
      "t": 119142.94650000171,
      "d": 42.85717499999737,
      "v": 74
    },
    {
      "midi": 49,
      "hit": false,
      "t": 119285.80375000171,
      "d": 47.619083333338494,
      "v": 82
    },
    {
      "midi": 61,
      "hit": false,
      "t": 119285.80375000171,
      "d": 47.619083333338494,
      "v": 77
    },
    {
      "midi": 64,
      "hit": false,
      "t": 119285.80375000171,
      "d": 47.619083333338494,
      "v": 71
    },
    {
      "midi": 76,
      "hit": false,
      "t": 119295.32756666838,
      "d": 28.571450000003097,
      "v": 77
    },
    {
      "midi": 77,
      "hit": false,
      "t": 119423.89909166838,
      "d": 128.57152500000666,
      "v": 95
    },
    {
      "midi": 65,
      "hit": false,
      "t": 119423.89909166838,
      "d": 180.95251666667173,
      "v": 86
    },
    {
      "midi": 62,
      "hit": false,
      "t": 119442.94672500172,
      "d": 71.42862500000047,
      "v": 86
    },
    {
      "midi": 50,
      "hit": false,
      "t": 119452.47054166839,
      "d": 61.90480833333277,
      "v": 84
    },
    {
      "midi": 70,
      "hit": false,
      "t": 119576.28015833505,
      "d": 119.04770833333896,
      "v": 71
    },
    {
      "midi": 48,
      "hit": false,
      "t": 119742.94695000173,
      "d": 42.85717499999737,
      "v": 84
    },
    {
      "midi": 60,
      "hit": false,
      "t": 119742.94695000173,
      "d": 42.85717499999737,
      "v": 84
    },
    {
      "midi": 75,
      "hit": false,
      "t": 119742.94695000173,
      "d": 61.90480833333277,
      "v": 77
    },
    {
      "midi": 62,
      "hit": false,
      "t": 119904.85183333507,
      "d": 161.90488333333633,
      "v": 95
    },
    {
      "midi": 70,
      "hit": false,
      "t": 119904.85183333507,
      "d": 180.95251666667173,
      "v": 90
    },
    {
      "midi": 74,
      "hit": false,
      "t": 119904.85183333507,
      "d": 200.00015000000712,
      "v": 101
    },
    {
      "midi": 46,
      "hit": false,
      "t": 120066.7567166684,
      "d": 57.14290000000619,
      "v": 84
    },
    {
      "midi": 58,
      "hit": false,
      "t": 120066.7567166684,
      "d": 57.14290000000619,
      "v": 84
    },
    {
      "midi": 74,
      "hit": false,
      "t": 120223.89969166841,
      "d": 161.90488333333633,
      "v": 86
    },
    {
      "midi": 62,
      "hit": false,
      "t": 120385.80457500175,
      "d": 38.095266666670796,
      "v": 77
    },
    {
      "midi": 58,
      "hit": false,
      "t": 120385.80457500175,
      "d": 47.619083333338494,
      "v": 82
    },
    {
      "midi": 53,
      "hit": false,
      "t": 120385.80457500175,
      "d": 57.14290000000619,
      "v": 82
    },
    {
      "midi": 77,
      "hit": false,
      "t": 120385.80457500175,
      "d": 138.09534166667436,
      "v": 77
    },
    {
      "midi": 80,
      "hit": false,
      "t": 120552.47136666843,
      "d": 214.2858750000014,
      "v": 86
    },
    {
      "midi": 68,
      "hit": false,
      "t": 120566.75709166842,
      "d": 128.57152500000666,
      "v": 74
    },
    {
      "midi": 39,
      "hit": false,
      "t": 120714.37625000176,
      "d": 28.571450000003097,
      "v": 82
    },
    {
      "midi": 51,
      "hit": false,
      "t": 120714.37625000176,
      "d": 38.095266666670796,
      "v": 84
    },
    {
      "midi": 79,
      "hit": false,
      "t": 120842.94777500175,
      "d": 180.95251666667173,
      "v": 72
    },
    {
      "midi": 75,
      "hit": false,
      "t": 120852.47159166842,
      "d": 133.33343333333323,
      "v": 65
    },
    {
      "midi": 63,
      "hit": false,
      "t": 121014.37647500176,
      "d": 61.90480833333277,
      "v": 72
    },
    {
      "midi": 58,
      "hit": false,
      "t": 121023.90029166843,
      "d": 61.90480833333277,
      "v": 82
    },
    {
      "midi": 82,
      "hit": false,
      "t": 121023.90029166843,
      "d": 128.57152500000666,
      "v": 68
    },
    {
      "midi": 55,
      "hit": false,
      "t": 121033.4241083351,
      "d": 52.38099166666507,
      "v": 81
    },
    {
      "midi": 70,
      "hit": false,
      "t": 121042.94792500176,
      "d": 80.95244166666816,
      "v": 71
    },
    {
      "midi": 75,
      "hit": false,
      "t": 121176.2813583351,
      "d": 176.19060833334515,
      "v": 72
    },
    {
      "midi": 79,
      "hit": false,
      "t": 121185.80517500176,
      "d": 166.66679166667745,
      "v": 66
    },
    {
      "midi": 39,
      "hit": false,
      "t": 121323.90051666844,
      "d": 42.85717499999737,
      "v": 84
    },
    {
      "midi": 51,
      "hit": false,
      "t": 121323.90051666844,
      "d": 42.85717499999737,
      "v": 84
    },
    {
      "midi": 72,
      "hit": false,
      "t": 121333.4243333351,
      "d": 42.85717499999737,
      "v": 66
    },
    {
      "midi": 84,
      "hit": false,
      "t": 121333.4243333351,
      "d": 52.38099166666507,
      "v": 80
    },
    {
      "midi": 82,
      "hit": false,
      "t": 121485.80540000177,
      "d": 128.57152500000666,
      "v": 65
    },
    {
      "midi": 79,
      "hit": false,
      "t": 121495.32921666844,
      "d": 119.04770833333896,
      "v": 60
    },
    {
      "midi": 75,
      "hit": false,
      "t": 121504.85303333511,
      "d": 128.57152500000666,
      "v": 66
    },
    {
      "midi": 70,
      "hit": false,
      "t": 121504.85303333511,
      "d": 147.61915833334206,
      "v": 71
    },
    {
      "midi": 43,
      "hit": false,
      "t": 121633.42455833511,
      "d": 42.85717499999737,
      "v": 82
    },
    {
      "midi": 55,
      "hit": false,
      "t": 121633.42455833511,
      "d": 42.85717499999737,
      "v": 81
    },
    {
      "midi": 65,
      "hit": false,
      "t": 121804.8532583351,
      "d": 180.95251666665717,
      "v": 74
    },
    {
      "midi": 74,
      "hit": false,
      "t": 121804.8532583351,
      "d": 190.47633333332487,
      "v": 74
    },
    {
      "midi": 70,
      "hit": false,
      "t": 121804.8532583351,
      "d": 200.00014999999257,
      "v": 77
    },
    {
      "midi": 77,
      "hit": false,
      "t": 121804.8532583351,
      "d": 200.00014999999257,
      "v": 83
    },
    {
      "midi": 46,
      "hit": false,
      "t": 121966.75814166843,
      "d": 38.095266666670796,
      "v": 84
    },
    {
      "midi": 58,
      "hit": false,
      "t": 121966.75814166843,
      "d": 38.095266666670796,
      "v": 83
    },
    {
      "midi": 74,
      "hit": false,
      "t": 122104.8534833351,
      "d": 80.95244166666816,
      "v": 90
    },
    {
      "midi": 44,
      "hit": false,
      "t": 122266.75836666844,
      "d": 57.14290000000619,
      "v": 86
    },
    {
      "midi": 56,
      "hit": false,
      "t": 122266.75836666844,
      "d": 57.14290000000619,
      "v": 84
    },
    {
      "midi": 77,
      "hit": false,
      "t": 122266.75836666844,
      "d": 85.71435000000929,
      "v": 101
    },
    {
      "midi": 65,
      "hit": false,
      "t": 122414.37752500178,
      "d": 90.47625833333586,
      "v": 80
    },
    {
      "midi": 43,
      "hit": false,
      "t": 122576.28240833512,
      "d": 57.14290000000619,
      "v": 83
    },
    {
      "midi": 55,
      "hit": false,
      "t": 122576.28240833512,
      "d": 57.14290000000619,
      "v": 83
    },
    {
      "midi": 70,
      "hit": false,
      "t": 122576.28240833512,
      "d": 166.66679166667745,
      "v": 77
    },
    {
      "midi": 74,
      "hit": false,
      "t": 122714.37775000179,
      "d": 190.47633333333943,
      "v": 68
    },
    {
      "midi": 41,
      "hit": false,
      "t": 122885.8064500018,
      "d": 57.14290000000619,
      "v": 83
    },
    {
      "midi": 53,
      "hit": false,
      "t": 122885.8064500018,
      "d": 57.14290000000619,
      "v": 82
    },
    {
      "midi": 77,
      "hit": false,
      "t": 122895.33026666846,
      "d": 38.095266666670796,
      "v": 80
    },
    {
      "midi": 80,
      "hit": false,
      "t": 123042.9494250018,
      "d": 242.85732499998994,
      "v": 90
    },
    {
      "midi": 39,
      "hit": false,
      "t": 123223.90194166846,
      "d": 42.85717499999737,
      "v": 82
    },
    {
      "midi": 51,
      "hit": false,
      "t": 123223.90194166846,
      "d": 42.85717499999737,
      "v": 95
    },
    {
      "midi": 75,
      "hit": false,
      "t": 123366.75919166846,
      "d": 109.52389166667126,
      "v": 72
    },
    {
      "midi": 79,
      "hit": false,
      "t": 123366.75919166846,
      "d": 128.57152500000666,
      "v": 80
    },
    {
      "midi": 63,
      "hit": false,
      "t": 123514.3783500018,
      "d": 52.38099166666507,
      "v": 77
    },
    {
      "midi": 58,
      "hit": false,
      "t": 123523.90216666847,
      "d": 52.38099166666507,
      "v": 82
    },
    {
      "midi": 55,
      "hit": false,
      "t": 123523.90216666847,
      "d": 71.42862500000047,
      "v": 83
    },
    {
      "midi": 70,
      "hit": false,
      "t": 123523.90216666847,
      "d": 119.04770833333896,
      "v": 90
    },
    {
      "midi": 82,
      "hit": false,
      "t": 123523.90216666847,
      "d": 142.85725000000093,
      "v": 86
    },
    {
      "midi": 75,
      "hit": false,
      "t": 123666.75941666847,
      "d": 85.71434999999474,
      "v": 69
    },
    {
      "midi": 79,
      "hit": false,
      "t": 123666.75941666847,
      "d": 228.57159999999567,
      "v": 69
    },
    {
      "midi": 84,
      "hit": false,
      "t": 123823.90239166847,
      "d": 52.38099166666507,
      "v": 83
    },
    {
      "midi": 39,
      "hit": false,
      "t": 123833.42620833514,
      "d": 42.85717499999737,
      "v": 84
    },
    {
      "midi": 51,
      "hit": false,
      "t": 123833.42620833514,
      "d": 42.85717499999737,
      "v": 83
    },
    {
      "midi": 72,
      "hit": false,
      "t": 123833.42620833514,
      "d": 42.85717499999737,
      "v": 62
    },
    {
      "midi": 79,
      "hit": false,
      "t": 123985.8072750018,
      "d": 109.52389166667126,
      "v": 80
    },
    {
      "midi": 70,
      "hit": false,
      "t": 123985.8072750018,
      "d": 128.57152500000666,
      "v": 86
    },
    {
      "midi": 82,
      "hit": false,
      "t": 123985.8072750018,
      "d": 128.57152500000666,
      "v": 80
    },
    {
      "midi": 37,
      "hit": false,
      "t": 124142.95025000181,
      "d": 61.90480833333277,
      "v": 82
    },
    {
      "midi": 49,
      "hit": false,
      "t": 124142.95025000181,
      "d": 61.90480833333277,
      "v": 83
    },
    {
      "midi": 65,
      "hit": false,
      "t": 124304.85513333515,
      "d": 190.47633333332487,
      "v": 74
    },
    {
      "midi": 70,
      "hit": false,
      "t": 124304.85513333515,
      "d": 247.61923333333107,
      "v": 71
    },
    {
      "midi": 77,
      "hit": false,
      "t": 124304.85513333515,
      "d": 247.61923333333107,
      "v": 80
    },
    {
      "midi": 74,
      "hit": false,
      "t": 124304.85513333515,
      "d": 271.42877499999304,
      "v": 74
    },
    {
      "midi": 50,
      "hit": false,
      "t": 124466.76001666847,
      "d": 38.095266666670796,
      "v": 82
    },
    {
      "midi": 38,
      "hit": false,
      "t": 124466.76001666847,
      "d": 57.14290000000619,
      "v": 83
    },
    {
      "midi": 65,
      "hit": false,
      "t": 124623.90299166848,
      "d": 161.90488333333633,
      "v": 72
    },
    {
      "midi": 70,
      "hit": false,
      "t": 124752.47451666849,
      "d": 52.38099166666507,
      "v": 77
    },
    {
      "midi": 74,
      "hit": false,
      "t": 124752.47451666849,
      "d": 61.90480833333277,
      "v": 77
    },
    {
      "midi": 44,
      "hit": false,
      "t": 124766.76024166848,
      "d": 57.14290000000619,
      "v": 83
    },
    {
      "midi": 32,
      "hit": false,
      "t": 124766.76024166848,
      "d": 76.19053333334159,
      "v": 82
    },
    {
      "midi": 77,
      "hit": false,
      "t": 124785.80787500182,
      "d": 38.095266666670796,
      "v": 78
    },
    {
      "midi": 74,
      "hit": false,
      "t": 124914.37940000182,
      "d": 209.52396666667482,
      "v": 83
    },
    {
      "midi": 67,
      "hit": false,
      "t": 124914.37940000182,
      "d": 228.57160000001022,
      "v": 83
    },
    {
      "midi": 71,
      "hit": false,
      "t": 124914.37940000182,
      "d": 228.57160000001022,
      "v": 95
    },
    {
      "midi": 79,
      "hit": false,
      "t": 124914.37940000182,
      "d": 238.09541666667792,
      "v": 86
    },
    {
      "midi": 31,
      "hit": false,
      "t": 125052.4747416685,
      "d": 42.85717499999737,
      "v": 83
    },
    {
      "midi": 43,
      "hit": false,
      "t": 125076.28428333516,
      "d": 38.095266666670796,
      "v": 83
    },
    {
      "midi": 74,
      "hit": false,
      "t": 125214.37962500183,
      "d": 100.00007500000356,
      "v": 62
    },
    {
      "midi": 55,
      "hit": false,
      "t": 125366.7606916685,
      "d": 57.14290000000619,
      "v": 82
    },
    {
      "midi": 71,
      "hit": false,
      "t": 125376.28450833517,
      "d": 66.66671666667389,
      "v": 86
    },
    {
      "midi": 59,
      "hit": false,
      "t": 125385.80832500184,
      "d": 38.095266666670796,
      "v": 79
    },
    {
      "midi": 65,
      "hit": false,
      "t": 125395.3321416685,
      "d": 28.571450000003097,
      "v": 60
    },
    {
      "midi": 62,
      "hit": false,
      "t": 125395.3321416685,
      "d": 47.619083333338494,
      "v": 59
    },
    {
      "midi": 67,
      "hit": false,
      "t": 125523.90366666851,
      "d": 71.42862500000047,
      "v": 80
    },
    {
      "midi": 58,
      "hit": false,
      "t": 125685.80855000185,
      "d": 57.14290000000619,
      "v": 83
    },
    {
      "midi": 48,
      "hit": false,
      "t": 125685.80855000185,
      "d": 80.95244166666816,
      "v": 82
    },
    {
      "midi": 72,
      "hit": false,
      "t": 125685.80855000185,
      "d": 100.00007500000356,
      "v": 90
    },
    {
      "midi": 55,
      "hit": false,
      "t": 125704.85618333519,
      "d": 38.095266666670796,
      "v": 82
    },
    {
      "midi": 64,
      "hit": false,
      "t": 125833.42770833519,
      "d": 80.95244166666816,
      "v": 71
    },
    {
      "midi": 70,
      "hit": false,
      "t": 125995.33259166853,
      "d": 80.95244166666816,
      "v": 95
    },
    {
      "midi": 64,
      "hit": false,
      "t": 126004.8564083352,
      "d": 61.90480833333277,
      "v": 68
    },
    {
      "midi": 60,
      "hit": false,
      "t": 126004.8564083352,
      "d": 71.42862500000047,
      "v": 83
    },
    {
      "midi": 63,
      "hit": false,
      "t": 126323.90426666854,
      "d": 71.42862500000047,
      "v": 74
    },
    {
      "midi": 69,
      "hit": false,
      "t": 126323.90426666854,
      "d": 71.42862500000047,
      "v": 90
    },
    {
      "midi": 60,
      "hit": false,
      "t": 126323.90426666854,
      "d": 90.47625833333586,
      "v": 83
    },
    {
      "midi": 53,
      "hit": false,
      "t": 126333.42808333521,
      "d": 71.42862500000047,
      "v": 82
    },
    {
      "midi": 77,
      "hit": false,
      "t": 126485.80915000188,
      "d": 47.619083333338494,
      "v": 69
    },
    {
      "midi": 63,
      "hit": false,
      "t": 126623.90449166855,
      "d": 80.95244166666816,
      "v": 77
    },
    {
      "midi": 75,
      "hit": false,
      "t": 126623.90449166855,
      "d": 90.47625833333586,
      "v": 71
    },
    {
      "midi": 53,
      "hit": false,
      "t": 126633.42830833522,
      "d": 90.47625833333586,
      "v": 81
    },
    {
      "midi": 57,
      "hit": false,
      "t": 126652.47594166856,
      "d": 52.38099166666507,
      "v": 82
    },
    {
      "midi": 72,
      "hit": false,
      "t": 126785.80937500189,
      "d": 80.95244166666816,
      "v": 83
    },
    {
      "midi": 70,
      "hit": false,
      "t": 126942.9523500019,
      "d": 90.47625833333586,
      "v": 101
    },
    {
      "midi": 58,
      "hit": false,
      "t": 126952.47616666857,
      "d": 61.90480833333277,
      "v": 84
    },
    {
      "midi": 62,
      "hit": false,
      "t": 126952.47616666857,
      "d": 61.90480833333277,
      "v": 80
    },
    {
      "midi": 41,
      "hit": false,
      "t": 127266.76211666857,
      "d": 38.095266666670796,
      "v": 84
    },
    {
      "midi": 53,
      "hit": false,
      "t": 127266.76211666857,
      "d": 38.095266666670796,
      "v": 82
    },
    {
      "midi": 46,
      "hit": false,
      "t": 127604.85760833524,
      "d": 28.571450000003097,
      "v": 95
    },
    {
      "midi": 34,
      "hit": false,
      "t": 127604.85760833524,
      "d": 38.095266666670796,
      "v": 86
    },
    {
      "midi": 70,
      "hit": false,
      "t": 127604.85760833524,
      "d": 61.90480833333277,
      "v": 90
    },
    {
      "midi": 74,
      "hit": false,
      "t": 127604.85760833524,
      "d": 71.42862500000047,
      "v": 86
    },
    {
      "midi": 77,
      "hit": false,
      "t": 127604.85760833524,
      "d": 71.42862500000047,
      "v": 80
    },
    {
      "midi": 82,
      "hit": false,
      "t": 127604.85760833524,
      "d": 80.95244166666816,
      "v": 80
    },
    {
      "midi": 67,
      "hit": false,
      "t": 128304.85813333523,
      "d": 38.095266666670796,
      "v": 83
    },
    {
      "midi": 70,
      "hit": false,
      "t": 128304.85813333523,
      "d": 57.14290000000619,
      "v": 77
    },
    {
      "midi": 51,
      "hit": false,
      "t": 128304.85813333523,
      "d": 76.19053333334159,
      "v": 82
    },
    {
      "midi": 67,
      "hit": false,
      "t": 128462.00110833524,
      "d": 52.38099166666507,
      "v": 83
    },
    {
      "midi": 70,
      "hit": false,
      "t": 128462.00110833524,
      "d": 61.90480833333277,
      "v": 68
    },
    {
      "midi": 63,
      "hit": false,
      "t": 128595.33454166858,
      "d": 38.095266666670796,
      "v": 69
    },
    {
      "midi": 55,
      "hit": false,
      "t": 128604.85835833524,
      "d": 38.095266666670796,
      "v": 80
    },
    {
      "midi": 58,
      "hit": false,
      "t": 128614.38217500191,
      "d": 28.571450000003097,
      "v": 80
    },
    {
      "midi": 68,
      "hit": false,
      "t": 128742.95370000192,
      "d": 61.90480833333277,
      "v": 77
    },
    {
      "midi": 65,
      "hit": false,
      "t": 128762.00133333525,
      "d": 42.85717499999737,
      "v": 68
    },
    {
      "midi": 46,
      "hit": false,
      "t": 128904.85858333526,
      "d": 47.619083333338494,
      "v": 83
    },
    {
      "midi": 63,
      "hit": false,
      "t": 128904.85858333526,
      "d": 66.66671666667389,
      "v": 69
    },
    {
      "midi": 67,
      "hit": false,
      "t": 128904.85858333526,
      "d": 90.47625833333586,
      "v": 77
    },
    {
      "midi": 66,
      "hit": false,
      "t": 129052.4777416686,
      "d": 80.95244166666816,
      "v": 74
    },
    {
      "midi": 67,
      "hit": false,
      "t": 129204.85880833527,
      "d": 57.14290000000619,
      "v": 80
    },
    {
      "midi": 55,
      "hit": false,
      "t": 129214.38262500193,
      "d": 38.095266666670796,
      "v": 81
    },
    {
      "midi": 58,
      "hit": false,
      "t": 129214.38262500193,
      "d": 38.095266666670796,
      "v": 81
    },
    {
      "midi": 63,
      "hit": false,
      "t": 129223.9064416686,
      "d": 28.571450000003097,
      "v": 62
    },
    {
      "midi": 70,
      "hit": false,
      "t": 129352.47796666861,
      "d": 52.38099166666507,
      "v": 86
    },
    {
      "midi": 75,
      "hit": false,
      "t": 129514.38285000194,
      "d": 57.14290000000619,
      "v": 90
    },
    {
      "midi": 67,
      "hit": false,
      "t": 129523.90666666861,
      "d": 38.095266666670796,
      "v": 80
    },
    {
      "midi": 51,
      "hit": false,
      "t": 129523.90666666861,
      "d": 90.47625833333586,
      "v": 82
    },
    {
      "midi": 82,
      "hit": false,
      "t": 129814.38307500196,
      "d": 66.66671666667389,
      "v": 80
    },
    {
      "midi": 63,
      "hit": false,
      "t": 129823.90689166862,
      "d": 47.619083333338494,
      "v": 71
    },
    {
      "midi": 75,
      "hit": false,
      "t": 129823.90689166862,
      "d": 47.619083333338494,
      "v": 77
    },
    {
      "midi": 55,
      "hit": false,
      "t": 129833.43070833529,
      "d": 47.619083333338494,
      "v": 80
    },
    {
      "midi": 58,
      "hit": false,
      "t": 129842.95452500196,
      "d": 28.571450000003097,
      "v": 79
    },
    {
      "midi": 79,
      "hit": false,
      "t": 129952.47841666863,
      "d": 300.0002250000107,
      "v": 95
    },
    {
      "midi": 75,
      "hit": false,
      "t": 129971.52605000196,
      "d": 161.90488333333633,
      "v": 71
    },
    {
      "midi": 46,
      "hit": false,
      "t": 130133.4309333353,
      "d": 61.90480833333277,
      "v": 84
    },
    {
      "midi": 84,
      "hit": false,
      "t": 130281.05009166864,
      "d": 71.42862500000047,
      "v": 63
    },
    {
      "midi": 82,
      "hit": false,
      "t": 130414.38352500198,
      "d": 57.14290000000619,
      "v": 86
    },
    {
      "midi": 55,
      "hit": false,
      "t": 130423.90734166864,
      "d": 28.571450000003097,
      "v": 82
    },
    {
      "midi": 58,
      "hit": false,
      "t": 130423.90734166864,
      "d": 28.571450000003097,
      "v": 81
    },
    {
      "midi": 63,
      "hit": false,
      "t": 130423.90734166864,
      "d": 28.571450000003097,
      "v": 68
    },
    {
      "midi": 75,
      "hit": false,
      "t": 130423.90734166864,
      "d": 28.571450000003097,
      "v": 90
    },
    {
      "midi": 67,
      "hit": false,
      "t": 130742.95520000199,
      "d": 38.095266666670796,
      "v": 83
    },
    {
      "midi": 51,
      "hit": false,
      "t": 130742.95520000199,
      "d": 71.42862500000047,
      "v": 82
    },
    {
      "midi": 70,
      "hit": false,
      "t": 130752.47901666866,
      "d": 28.571450000003097,
      "v": 72
    },
    {
      "midi": 70,
      "hit": false,
      "t": 130881.05054166866,
      "d": 61.90480833333277,
      "v": 86
    },
    {
      "midi": 67,
      "hit": false,
      "t": 130895.33626666866,
      "d": 38.095266666670796,
      "v": 83
    },
    {
      "midi": 63,
      "hit": false,
      "t": 131023.90779166867,
      "d": 47.619083333338494,
      "v": 69
    },
    {
      "midi": 58,
      "hit": false,
      "t": 131042.955425002,
      "d": 28.571450000003097,
      "v": 80
    },
    {
      "midi": 55,
      "hit": false,
      "t": 131042.955425002,
      "d": 38.095266666670796,
      "v": 80
    },
    {
      "midi": 68,
      "hit": false,
      "t": 131181.05076666866,
      "d": 52.38099166666507,
      "v": 65
    },
    {
      "midi": 65,
      "hit": false,
      "t": 131181.05076666866,
      "d": 61.904808333318215,
      "v": 71
    },
    {
      "midi": 46,
      "hit": false,
      "t": 131333.4318333353,
      "d": 61.90480833334732,
      "v": 83
    },
    {
      "midi": 63,
      "hit": false,
      "t": 131333.4318333353,
      "d": 61.90480833334732,
      "v": 80
    },
    {
      "midi": 67,
      "hit": false,
      "t": 131333.4318333353,
      "d": 71.42862500000047,
      "v": 72
    },
    {
      "midi": 66,
      "hit": false,
      "t": 131471.52717500195,
      "d": 80.95244166665361,
      "v": 72
    },
    {
      "midi": 67,
      "hit": false,
      "t": 131623.9082416686,
      "d": 71.42862500000047,
      "v": 74
    },
    {
      "midi": 55,
      "hit": false,
      "t": 131642.95587500194,
      "d": 38.095266666670796,
      "v": 80
    },
    {
      "midi": 58,
      "hit": false,
      "t": 131642.95587500194,
      "d": 38.095266666670796,
      "v": 80
    },
    {
      "midi": 63,
      "hit": false,
      "t": 131642.95587500194,
      "d": 38.095266666670796,
      "v": 63
    },
    {
      "midi": 70,
      "hit": false,
      "t": 131781.0512166686,
      "d": 52.38099166666507,
      "v": 74
    },
    {
      "midi": 75,
      "hit": false,
      "t": 131933.43228333525,
      "d": 61.90480833328911,
      "v": 95
    },
    {
      "midi": 51,
      "hit": false,
      "t": 131933.43228333525,
      "d": 100.0000749999599,
      "v": 82
    },
    {
      "midi": 67,
      "hit": false,
      "t": 131942.9561000019,
      "d": 38.09526666664169,
      "v": 80
    },
    {
      "midi": 63,
      "hit": false,
      "t": 132242.95632500187,
      "d": 52.38099166660686,
      "v": 74
    },
    {
      "midi": 82,
      "hit": false,
      "t": 132242.95632500187,
      "d": 71.42862499991315,
      "v": 101
    },
    {
      "midi": 75,
      "hit": false,
      "t": 132252.48014166852,
      "d": 28.57144999995944,
      "v": 77
    },
    {
      "midi": 55,
      "hit": false,
      "t": 132262.00395833518,
      "d": 42.85717499995371,
      "v": 80
    },
    {
      "midi": 58,
      "hit": false,
      "t": 132271.52777500183,
      "d": 23.80954166664742,
      "v": 79
    },
    {
      "midi": 75,
      "hit": false,
      "t": 132404.86120833512,
      "d": 157.1429749999952,
      "v": 74
    },
    {
      "midi": 79,
      "hit": false,
      "t": 132404.86120833512,
      "d": 219.04778333331342,
      "v": 90
    },
    {
      "midi": 51,
      "hit": false,
      "t": 132552.48036666846,
      "d": 42.85717499998282,
      "v": 83
    },
    {
      "midi": 39,
      "hit": false,
      "t": 132552.48036666846,
      "d": 61.904808333318215,
      "v": 84
    },
    {
      "midi": 84,
      "hit": false,
      "t": 132695.33761666843,
      "d": 66.66671666665934,
      "v": 80
    },
    {
      "midi": 40,
      "hit": false,
      "t": 132842.95677500174,
      "d": 61.904808333318215,
      "v": 84
    },
    {
      "midi": 52,
      "hit": false,
      "t": 132852.4805916684,
      "d": 52.38099166666507,
      "v": 82
    },
    {
      "midi": 73,
      "hit": false,
      "t": 132852.4805916684,
      "d": 52.38099166666507,
      "v": 95
    },
    {
      "midi": 82,
      "hit": false,
      "t": 132852.4805916684,
      "d": 52.38099166666507,
      "v": 80
    },
    {
      "midi": 41,
      "hit": false,
      "t": 133171.52845000173,
      "d": 42.85717499998282,
      "v": 83
    },
    {
      "midi": 80,
      "hit": false,
      "t": 133171.52845000173,
      "d": 52.380991666635964,
      "v": 86
    },
    {
      "midi": 74,
      "hit": false,
      "t": 133171.52845000173,
      "d": 71.42862499997136,
      "v": 90
    },
    {
      "midi": 53,
      "hit": false,
      "t": 133181.05226666838,
      "d": 42.85717499998282,
      "v": 82
    },
    {
      "midi": 74,
      "hit": false,
      "t": 133314.3857000017,
      "d": 80.95244166665361,
      "v": 77
    },
    {
      "midi": 80,
      "hit": false,
      "t": 133314.3857000017,
      "d": 109.52389166664216,
      "v": 77
    },
    {
      "midi": 62,
      "hit": false,
      "t": 133471.52867500167,
      "d": 42.85717500001192,
      "v": 77
    },
    {
      "midi": 56,
      "hit": false,
      "t": 133471.52867500167,
      "d": 52.38099166666507,
      "v": 81
    },
    {
      "midi": 58,
      "hit": false,
      "t": 133471.52867500167,
      "d": 52.38099166666507,
      "v": 82
    },
    {
      "midi": 79,
      "hit": false,
      "t": 133642.95737500166,
      "d": 80.95244166665361,
      "v": 77
    },
    {
      "midi": 77,
      "hit": false,
      "t": 133771.52890000163,
      "d": 100.0000749999599,
      "v": 86
    },
    {
      "midi": 34,
      "hit": false,
      "t": 133781.0527166683,
      "d": 52.380991666635964,
      "v": 84
    },
    {
      "midi": 46,
      "hit": false,
      "t": 133795.33844166828,
      "d": 28.571449999988545,
      "v": 84
    },
    {
      "midi": 76,
      "hit": false,
      "t": 133942.9576000016,
      "d": 90.47625833333586,
      "v": 71
    },
    {
      "midi": 62,
      "hit": false,
      "t": 134081.05294166825,
      "d": 42.85717499998282,
      "v": 72
    },
    {
      "midi": 56,
      "hit": false,
      "t": 134081.05294166825,
      "d": 52.380991666635964,
      "v": 79
    },
    {
      "midi": 77,
      "hit": false,
      "t": 134081.05294166825,
      "d": 100.0000749999599,
      "v": 77
    },
    {
      "midi": 58,
      "hit": false,
      "t": 134095.33866666825,
      "d": 38.09526666664169,
      "v": 78
    },
    {
      "midi": 78,
      "hit": false,
      "t": 134242.95782500156,
      "d": 80.95244166665361,
      "v": 63
    },
    {
      "midi": 39,
      "hit": false,
      "t": 134371.52935000154,
      "d": 42.85717499998282,
      "v": 84
    },
    {
      "midi": 51,
      "hit": false,
      "t": 134371.52935000154,
      "d": 42.85717499998282,
      "v": 84
    },
    {
      "midi": 67,
      "hit": false,
      "t": 134381.0531666682,
      "d": 33.33335833332967,
      "v": 72
    },
    {
      "midi": 79,
      "hit": false,
      "t": 134395.3388916682,
      "d": 19.047633333335398,
      "v": 74
    },
    {
      "midi": 80,
      "hit": false,
      "t": 134533.43423333485,
      "d": 28.571449999988545,
      "v": 74
    },
    {
      "midi": 68,
      "hit": false,
      "t": 134542.9580500015,
      "d": 19.047633333335398,
      "v": 69
    },
    {
      "midi": 63,
      "hit": false,
      "t": 134652.48194166817,
      "d": 52.380991666635964,
      "v": 69
    },
    {
      "midi": 55,
      "hit": false,
      "t": 134662.00575833482,
      "d": 52.380991666635964,
      "v": 81
    },
    {
      "midi": 58,
      "hit": false,
      "t": 134662.00575833482,
      "d": 52.380991666635964,
      "v": 80
    },
    {
      "midi": 70,
      "hit": false,
      "t": 134671.52957500148,
      "d": 42.85717499998282,
      "v": 83
    },
    {
      "midi": 82,
      "hit": false,
      "t": 134671.52957500148,
      "d": 42.85717499998282,
      "v": 86
    },
    {
      "midi": 72,
      "hit": false,
      "t": 134823.91064166813,
      "d": 138.0953416666307,
      "v": 101
    },
    {
      "midi": 84,
      "hit": false,
      "t": 134823.91064166813,
      "d": 171.42869999996037,
      "v": 90
    },
    {
      "midi": 55,
      "hit": false,
      "t": 134952.4821666681,
      "d": 52.380991666635964,
      "v": 82
    },
    {
      "midi": 43,
      "hit": false,
      "t": 134952.4821666681,
      "d": 71.42862499997136,
      "v": 83
    },
    {
      "midi": 86,
      "hit": false,
      "t": 135104.86323333473,
      "d": 57.14289999997709,
      "v": 90
    },
    {
      "midi": 74,
      "hit": false,
      "t": 135114.3870500014,
      "d": 38.095266666670796,
      "v": 80
    },
    {
      "midi": 54,
      "hit": false,
      "t": 135252.48239166805,
      "d": 42.85717500001192,
      "v": 82
    },
    {
      "midi": 42,
      "hit": false,
      "t": 135252.48239166805,
      "d": 61.90480833334732,
      "v": 83
    },
    {
      "midi": 75,
      "hit": false,
      "t": 135252.48239166805,
      "d": 61.90480833334732,
      "v": 90
    },
    {
      "midi": 87,
      "hit": false,
      "t": 135252.48239166805,
      "d": 71.42862500000047,
      "v": 95
    },
    {
      "midi": 41,
      "hit": false,
      "t": 135552.48261666804,
      "d": 52.38099166666507,
      "v": 82
    },
    {
      "midi": 74,
      "hit": false,
      "t": 135552.48261666804,
      "d": 52.38099166666507,
      "v": 90
    },
    {
      "midi": 86,
      "hit": false,
      "t": 135552.48261666804,
      "d": 52.38099166666507,
      "v": 90
    },
    {
      "midi": 53,
      "hit": false,
      "t": 135562.0064333347,
      "d": 42.85717500001192,
      "v": 83
    },
    {
      "midi": 87,
      "hit": false,
      "t": 135704.8636833347,
      "d": 47.61908333332394,
      "v": 90
    },
    {
      "midi": 75,
      "hit": false,
      "t": 135714.38750000135,
      "d": 38.095266666670796,
      "v": 77
    },
    {
      "midi": 62,
      "hit": false,
      "t": 135823.91139166802,
      "d": 57.142899999947986,
      "v": 68
    },
    {
      "midi": 58,
      "hit": false,
      "t": 135833.43520833467,
      "d": 47.61908333329484,
      "v": 80
    },
    {
      "midi": 53,
      "hit": false,
      "t": 135842.95902500133,
      "d": 38.09526666664169,
      "v": 79
    },
    {
      "midi": 76,
      "hit": false,
      "t": 135842.95902500133,
      "d": 38.09526666664169,
      "v": 83
    },
    {
      "midi": 88,
      "hit": false,
      "t": 135852.48284166798,
      "d": 28.571449999988545,
      "v": 86
    },
    {
      "midi": 89,
      "hit": false,
      "t": 136004.86390833464,
      "d": 119.04770833332441,
      "v": 101
    },
    {
      "midi": 77,
      "hit": false,
      "t": 136004.86390833464,
      "d": 200.00014999997802,
      "v": 86
    },
    {
      "midi": 41,
      "hit": false,
      "t": 136133.4354333346,
      "d": 61.90480833334732,
      "v": 83
    },
    {
      "midi": 77,
      "hit": false,
      "t": 136304.8641333346,
      "d": 66.66671666665934,
      "v": 71
    },
    {
      "midi": 57,
      "hit": false,
      "t": 136423.91184166793,
      "d": 38.09526666664169,
      "v": 83
    },
    {
      "midi": 53,
      "hit": false,
      "t": 136423.91184166793,
      "d": 47.61908333329484,
      "v": 83
    },
    {
      "midi": 75,
      "hit": false,
      "t": 136423.91184166793,
      "d": 47.61908333329484,
      "v": 90
    },
    {
      "midi": 84,
      "hit": false,
      "t": 136423.91184166793,
      "d": 57.142899999947986,
      "v": 86
    },
    {
      "midi": 46,
      "hit": false,
      "t": 136742.9597000012,
      "d": 71.42862499997136,
      "v": 82
    },
    {
      "midi": 74,
      "hit": false,
      "t": 136742.9597000012,
      "d": 71.42862499997136,
      "v": 90
    },
    {
      "midi": 82,
      "hit": false,
      "t": 136742.9597000012,
      "d": 71.42862499997136,
      "v": 90
    },
    {
      "midi": 58,
      "hit": false,
      "t": 136752.48351666785,
      "d": 52.38099166666507,
      "v": 82
    },
    {
      "midi": 53,
      "hit": false,
      "t": 137062.0075583345,
      "d": 319.04785833333153,
      "v": 84
    },
    {
      "midi": 50,
      "hit": false,
      "t": 137371.53160000118,
      "d": 333.3335833332967,
      "v": 84
    },
    {
      "midi": 68,
      "hit": false,
      "t": 137695.34136666782,
      "d": 47.61908333329484,
      "v": 74
    },
    {
      "midi": 70,
      "hit": false,
      "t": 137695.34136666782,
      "d": 47.61908333329484,
      "v": 90
    },
    {
      "midi": 46,
      "hit": false,
      "t": 137714.38900000113,
      "d": 38.09526666664169,
      "v": 83
    },
    {
      "midi": 67,
      "hit": false,
      "t": 138023.91304166778,
      "d": 28.571449999988545,
      "v": 83
    },
    {
      "midi": 70,
      "hit": false,
      "t": 138023.91304166778,
      "d": 28.571449999988545,
      "v": 77
    },
    {
      "midi": 51,
      "hit": false,
      "t": 138023.91304166778,
      "d": 57.14289999997709,
      "v": 82
    },
    {
      "midi": 67,
      "hit": false,
      "t": 138171.5322000011,
      "d": 52.38099166666507,
      "v": 80
    },
    {
      "midi": 70,
      "hit": false,
      "t": 138171.5322000011,
      "d": 52.38099166666507,
      "v": 72
    },
    {
      "midi": 63,
      "hit": false,
      "t": 138304.8656333344,
      "d": 38.09526666664169,
      "v": 68
    },
    {
      "midi": 58,
      "hit": false,
      "t": 138314.38945000106,
      "d": 28.571449999988545,
      "v": 81
    },
    {
      "midi": 55,
      "hit": false,
      "t": 138323.91326666772,
      "d": 38.095266666670796,
      "v": 79
    },
    {
      "midi": 68,
      "hit": false,
      "t": 138452.48479166772,
      "d": 71.42862500000047,
      "v": 71
    },
    {
      "midi": 65,
      "hit": false,
      "t": 138471.53242500106,
      "d": 42.85717500001192,
      "v": 55
    },
    {
      "midi": 63,
      "hit": false,
      "t": 138595.34204166773,
      "d": 76.19053333331249,
      "v": 83
    },
    {
      "midi": 67,
      "hit": false,
      "t": 138604.86585833438,
      "d": 76.19053333331249,
      "v": 72
    },
    {
      "midi": 46,
      "hit": false,
      "t": 138623.9134916677,
      "d": 38.095266666670796,
      "v": 82
    },
    {
      "midi": 66,
      "hit": false,
      "t": 138762.00883333434,
      "d": 71.42862500000047,
      "v": 71
    },
    {
      "midi": 55,
      "hit": false,
      "t": 138914.389900001,
      "d": 47.61908333332394,
      "v": 80
    },
    {
      "midi": 63,
      "hit": false,
      "t": 138914.389900001,
      "d": 47.61908333332394,
      "v": 65
    },
    {
      "midi": 67,
      "hit": false,
      "t": 138914.389900001,
      "d": 57.14289999997709,
      "v": 77
    },
    {
      "midi": 58,
      "hit": false,
      "t": 138933.43753333433,
      "d": 28.571449999988545,
      "v": 80
    },
    {
      "midi": 70,
      "hit": false,
      "t": 139071.53287500096,
      "d": 33.33335833332967,
      "v": 66
    },
    {
      "midi": 51,
      "hit": false,
      "t": 139223.91394166762,
      "d": 109.52389166664216,
      "v": 82
    },
    {
      "midi": 75,
      "hit": false,
      "t": 139233.43775833427,
      "d": 47.61908333332394,
      "v": 95
    },
    {
      "midi": 67,
      "hit": false,
      "t": 139252.4853916676,
      "d": 19.047633333335398,
      "v": 54
    },
    {
      "midi": 63,
      "hit": false,
      "t": 139514.39035000093,
      "d": 57.14289999997709,
      "v": 71
    },
    {
      "midi": 82,
      "hit": false,
      "t": 139514.39035000093,
      "d": 57.14289999997709,
      "v": 80
    },
    {
      "midi": 75,
      "hit": false,
      "t": 139523.9141666676,
      "d": 47.61908333332394,
      "v": 80
    },
    {
      "midi": 55,
      "hit": false,
      "t": 139533.43798333424,
      "d": 38.095266666670796,
      "v": 80
    },
    {
      "midi": 58,
      "hit": false,
      "t": 139533.43798333424,
      "d": 38.095266666670796,
      "v": 80
    },
    {
      "midi": 79,
      "hit": false,
      "t": 139671.5333250009,
      "d": 309.5240416666493,
      "v": 86
    },
    {
      "midi": 75,
      "hit": false,
      "t": 139681.05714166755,
      "d": 180.95251666667173,
      "v": 72
    },
    {
      "midi": 46,
      "hit": false,
      "t": 139842.9620250009,
      "d": 52.38099166666507,
      "v": 83
    },
    {
      "midi": 84,
      "hit": false,
      "t": 139962.0097333342,
      "d": 71.42862500000047,
      "v": 74
    },
    {
      "midi": 82,
      "hit": false,
      "t": 140114.39080000087,
      "d": 47.61908333332394,
      "v": 83
    },
    {
      "midi": 55,
      "hit": false,
      "t": 140123.91461666752,
      "d": 38.095266666670796,
      "v": 81
    },
    {
      "midi": 63,
      "hit": false,
      "t": 140123.91461666752,
      "d": 38.095266666670796,
      "v": 68
    },
    {
      "midi": 75,
      "hit": false,
      "t": 140123.91461666752,
      "d": 38.095266666670796,
      "v": 83
    },
    {
      "midi": 58,
      "hit": false,
      "t": 140123.91461666752,
      "d": 47.61908333332394,
      "v": 82
    },
    {
      "midi": 79,
      "hit": false,
      "t": 140442.96247500082,
      "d": 61.904808333318215,
      "v": 83
    },
    {
      "midi": 50,
      "hit": false,
      "t": 140452.48629166748,
      "d": 42.85717500001192,
      "v": 83
    },
    {
      "midi": 71,
      "hit": false,
      "t": 140452.48629166748,
      "d": 42.85717500001192,
      "v": 69
    },
    {
      "midi": 71,
      "hit": false,
      "t": 140581.05781666748,
      "d": 61.90480833334732,
      "v": 80
    },
    {
      "midi": 79,
      "hit": false,
      "t": 140581.05781666748,
      "d": 71.42862500000047,
      "v": 80
    },
    {
      "midi": 65,
      "hit": false,
      "t": 140733.43888333414,
      "d": 38.09526666664169,
      "v": 72
    },
    {
      "midi": 55,
      "hit": false,
      "t": 140733.43888333414,
      "d": 80.95244166662451,
      "v": 80
    },
    {
      "midi": 59,
      "hit": false,
      "t": 140742.9627000008,
      "d": 38.09526666664169,
      "v": 81
    },
    {
      "midi": 79,
      "hit": false,
      "t": 140862.01040833408,
      "d": 80.95244166665361,
      "v": 77
    },
    {
      "midi": 71,
      "hit": false,
      "t": 140871.53422500074,
      "d": 42.85717500001192,
      "v": 69
    },
    {
      "midi": 80,
      "hit": false,
      "t": 141023.9152916674,
      "d": 157.1429749999952,
      "v": 86
    },
    {
      "midi": 43,
      "hit": false,
      "t": 141033.43910833405,
      "d": 61.90480833334732,
      "v": 83
    },
    {
      "midi": 71,
      "hit": false,
      "t": 141033.43910833405,
      "d": 90.47625833333586,
      "v": 86
    },
    {
      "midi": 79,
      "hit": false,
      "t": 141162.01063333405,
      "d": 209.52396666666027,
      "v": 69
    },
    {
      "midi": 59,
      "hit": false,
      "t": 141333.43933333404,
      "d": 38.095266666670796,
      "v": 83
    },
    {
      "midi": 65,
      "hit": false,
      "t": 141333.43933333404,
      "d": 38.095266666670796,
      "v": 80
    },
    {
      "midi": 55,
      "hit": false,
      "t": 141333.43933333404,
      "d": 71.42862500000047,
      "v": 82
    },
    {
      "midi": 74,
      "hit": false,
      "t": 141333.43933333404,
      "d": 100.00007499998901,
      "v": 83
    },
    {
      "midi": 77,
      "hit": false,
      "t": 141481.05849166735,
      "d": 90.47625833333586,
      "v": 69
    },
    {
      "midi": 48,
      "hit": false,
      "t": 141633.439558334,
      "d": 38.09526666664169,
      "v": 82
    },
    {
      "midi": 60,
      "hit": false,
      "t": 141642.96337500066,
      "d": 38.09526666664169,
      "v": 82
    },
    {
      "midi": 72,
      "hit": false,
      "t": 141642.96337500066,
      "d": 52.380991666635964,
      "v": 80
    },
    {
      "midi": 75,
      "hit": false,
      "t": 141642.96337500066,
      "d": 61.90480833328911,
      "v": 74
    },
    {
      "midi": 77,
      "hit": false,
      "t": 141781.0587166673,
      "d": 71.42862500000047,
      "v": 74
    },
    {
      "midi": 63,
      "hit": false,
      "t": 141933.43978333395,
      "d": 28.571449999988545,
      "v": 65
    },
    {
      "midi": 55,
      "hit": false,
      "t": 141933.43978333395,
      "d": 38.09526666664169,
      "v": 80
    },
    {
      "midi": 60,
      "hit": false,
      "t": 141933.43978333395,
      "d": 38.09526666664169,
      "v": 81
    },
    {
      "midi": 79,
      "hit": false,
      "t": 141933.43978333395,
      "d": 47.61908333329484,
      "v": 80
    },
    {
      "midi": 72,
      "hit": false,
      "t": 142095.34466666725,
      "d": 228.57160000002477,
      "v": 86
    },
    {
      "midi": 84,
      "hit": false,
      "t": 142095.34466666725,
      "d": 266.66686666669557,
      "v": 101
    },
    {
      "midi": 48,
      "hit": false,
      "t": 142242.9638250006,
      "d": 38.095266666670796,
      "v": 82
    },
    {
      "midi": 60,
      "hit": false,
      "t": 142242.9638250006,
      "d": 38.095266666670796,
      "v": 82
    },
    {
      "midi": 79,
      "hit": false,
      "t": 142381.05916666728,
      "d": 90.47625833333586,
      "v": 77
    },
    {
      "midi": 55,
      "hit": false,
      "t": 142514.39260000063,
      "d": 66.66671666663024,
      "v": 82
    },
    {
      "midi": 63,
      "hit": false,
      "t": 142523.91641666729,
      "d": 47.61908333332394,
      "v": 71
    },
    {
      "midi": 60,
      "hit": false,
      "t": 142533.44023333394,
      "d": 38.095266666670796,
      "v": 82
    },
    {
      "midi": 72,
      "hit": false,
      "t": 142533.44023333394,
      "d": 61.904808333318215,
      "v": 90
    },
    {
      "midi": 84,
      "hit": false,
      "t": 142533.44023333394,
      "d": 119.04770833332441,
      "v": 101
    },
    {
      "midi": 41,
      "hit": false,
      "t": 142823.91664166725,
      "d": 71.42862500000047,
      "v": 83
    },
    {
      "midi": 80,
      "hit": false,
      "t": 142981.05961666725,
      "d": 61.90480833334732,
      "v": 90
    },
    {
      "midi": 56,
      "hit": false,
      "t": 143104.86923333394,
      "d": 66.66671666665934,
      "v": 81
    },
    {
      "midi": 60,
      "hit": false,
      "t": 143104.86923333394,
      "d": 66.66671666665934,
      "v": 82
    },
    {
      "midi": 65,
      "hit": false,
      "t": 143123.91686666728,
      "d": 38.095266666670796,
      "v": 72
    },
    {
      "midi": 79,
      "hit": false,
      "t": 143123.91686666728,
      "d": 57.14289999997709,
      "v": 95
    },
    {
      "midi": 77,
      "hit": false,
      "t": 143281.05984166724,
      "d": 61.90480833334732,
      "v": 71
    },
    {
      "midi": 48,
      "hit": false,
      "t": 143414.3932750006,
      "d": 38.09526666664169,
      "v": 81
    },
    {
      "midi": 60,
      "hit": false,
      "t": 143414.3932750006,
      "d": 38.09526666664169,
      "v": 82
    },
    {
      "midi": 80,
      "hit": false,
      "t": 143423.91709166724,
      "d": 47.61908333332394,
      "v": 80
    },
    {
      "midi": 87,
      "hit": false,
      "t": 143562.0124333339,
      "d": 280.95259166663163,
      "v": 86
    },
    {
      "midi": 59,
      "hit": false,
      "t": 143714.39350000056,
      "d": 38.095266666670796,
      "v": 83
    },
    {
      "midi": 47,
      "hit": false,
      "t": 143714.39350000056,
      "d": 47.61908333332394,
      "v": 84
    },
    {
      "midi": 80,
      "hit": false,
      "t": 143862.01265833387,
      "d": 52.38099166666507,
      "v": 69
    },
    {
      "midi": 58,
      "hit": false,
      "t": 144014.39372500053,
      "d": 28.571449999988545,
      "v": 83
    },
    {
      "midi": 46,
      "hit": false,
      "t": 144014.39372500053,
      "d": 38.09526666664169,
      "v": 83
    },
    {
      "midi": 79,
      "hit": false,
      "t": 144014.39372500053,
      "d": 66.66671666663024,
      "v": 86
    },
    {
      "midi": 75,
      "hit": false,
      "t": 144162.0128833338,
      "d": 52.38099166666507,
      "v": 77
    },
    {
      "midi": 58,
      "hit": false,
      "t": 144304.8701333338,
      "d": 47.61908333332394,
      "v": 82
    },
    {
      "midi": 63,
      "hit": false,
      "t": 144304.8701333338,
      "d": 47.61908333332394,
      "v": 69
    },
    {
      "midi": 67,
      "hit": false,
      "t": 144304.8701333338,
      "d": 47.61908333332394,
      "v": 74
    },
    {
      "midi": 79,
      "hit": false,
      "t": 144304.8701333338,
      "d": 76.19053333331249,
      "v": 90
    },
    {
      "midi": 45,
      "hit": false,
      "t": 144614.39417500046,
      "d": 47.61908333332394,
      "v": 90
    },
    {
      "midi": 75,
      "hit": false,
      "t": 144614.39417500046,
      "d": 219.04778333331342,
      "v": 77
    },
    {
      "midi": 78,
      "hit": false,
      "t": 144614.39417500046,
      "d": 219.04778333331342,
      "v": 83
    },
    {
      "midi": 72,
      "hit": false,
      "t": 144614.39417500046,
      "d": 247.61923333330196,
      "v": 83
    },
    {
      "midi": 69,
      "hit": false,
      "t": 144614.39417500046,
      "d": 300.00022499996703,
      "v": 80
    },
    {
      "midi": 57,
      "hit": false,
      "t": 144633.4418083338,
      "d": 28.571449999988545,
      "v": 84
    },
    {
      "midi": 70,
      "hit": false,
      "t": 145152.48981666708,
      "d": 142.85724999997183,
      "v": 77
    },
    {
      "midi": 75,
      "hit": false,
      "t": 145152.48981666708,
      "d": 142.85724999997183,
      "v": 74
    },
    {
      "midi": 79,
      "hit": false,
      "t": 145152.48981666708,
      "d": 161.90488333330723,
      "v": 101
    },
    {
      "midi": 67,
      "hit": false,
      "t": 145162.01363333373,
      "d": 80.95244166665361,
      "v": 83
    },
    {
      "midi": 46,
      "hit": false,
      "t": 145242.96607500038,
      "d": 52.38099166666507,
      "v": 82
    },
    {
      "midi": 58,
      "hit": false,
      "t": 145252.48989166704,
      "d": 61.90480833334732,
      "v": 82
    },
    {
      "midi": 67,
      "hit": false,
      "t": 145423.91859166705,
      "d": 71.42862500000047,
      "v": 80
    },
    {
      "midi": 58,
      "hit": false,
      "t": 145552.49011666706,
      "d": 52.38099166666507,
      "v": 82
    },
    {
      "midi": 63,
      "hit": false,
      "t": 145552.49011666706,
      "d": 52.38099166666507,
      "v": 68
    },
    {
      "midi": 79,
      "hit": false,
      "t": 145552.49011666706,
      "d": 152.38106666665408,
      "v": 83
    },
    {
      "midi": 77,
      "hit": false,
      "t": 145723.91881666705,
      "d": 80.95244166665361,
      "v": 73
    },
    {
      "midi": 75,
      "hit": false,
      "t": 145852.49034166703,
      "d": 80.95244166665361,
      "v": 80
    },
    {
      "midi": 60,
      "hit": false,
      "t": 145862.01415833368,
      "d": 42.85717500001192,
      "v": 84
    },
    {
      "midi": 48,
      "hit": false,
      "t": 145862.01415833368,
      "d": 52.38099166666507,
      "v": 84
    },
    {
      "midi": 69,
      "hit": false,
      "t": 145881.06179166702,
      "d": 52.38099166666507,
      "v": 77
    },
    {
      "midi": 68,
      "hit": false,
      "t": 146162.01438333368,
      "d": 52.380991666635964,
      "v": 86
    },
    {
      "midi": 77,
      "hit": false,
      "t": 146162.01438333368,
      "d": 61.90480833328911,
      "v": 90
    },
    {
      "midi": 58,
      "hit": false,
      "t": 146171.53820000033,
      "d": 33.33335833332967,
      "v": 95
    },
    {
      "midi": 46,
      "hit": false,
      "t": 146171.53820000033,
      "d": 42.85717499998282,
      "v": 86
    },
    {
      "midi": 63,
      "hit": false,
      "t": 146481.06224166698,
      "d": 52.38099166666507,
      "v": 90
    },
    {
      "midi": 51,
      "hit": false,
      "t": 146481.06224166698,
      "d": 61.904808333318215,
      "v": 86
    },
    {
      "midi": 67,
      "hit": false,
      "t": 146481.06224166698,
      "d": 71.42862499997136,
      "v": 80
    },
    {
      "midi": 70,
      "hit": false,
      "t": 146481.06224166698,
      "d": 71.42862499997136,
      "v": 77
    },
    {
      "midi": 75,
      "hit": false,
      "t": 146481.06224166698,
      "d": 100.0000749999599,
      "v": 83
    },
    {
      "midi": 82,
      "hit": false,
      "t": 146823.91964166696,
      "d": 28.571449999988545,
      "v": 69
    },
    {
      "midi": 82,
      "hit": false,
      "t": 146952.49116666694,
      "d": 42.85717500001192,
      "v": 80
    },
    {
      "midi": 82,
      "hit": false,
      "t": 147123.91986666695,
      "d": 71.42862499997136,
      "v": 95
    },
    {
      "midi": 70,
      "hit": false,
      "t": 147133.4436833336,
      "d": 38.09526666664169,
      "v": 95
    },
    {
      "midi": 46,
      "hit": false,
      "t": 147142.96750000026,
      "d": 28.571449999988545,
      "v": 86
    },
    {
      "midi": 58,
      "hit": false,
      "t": 147142.96750000026,
      "d": 28.571449999988545,
      "v": 86
    },
    {
      "midi": 80,
      "hit": false,
      "t": 147142.96750000026,
      "d": 28.571449999988545,
      "v": 65
    },
    {
      "midi": 70,
      "hit": false,
      "t": 147471.53917500025,
      "d": 42.85717500001192,
      "v": 90
    },
    {
      "midi": 80,
      "hit": false,
      "t": 147471.53917500025,
      "d": 42.85717500001192,
      "v": 74
    },
    {
      "midi": 82,
      "hit": false,
      "t": 147471.53917500025,
      "d": 52.38099166666507,
      "v": 90
    },
    {
      "midi": 82,
      "hit": false,
      "t": 147809.6346666669,
      "d": 47.61908333332394,
      "v": 74
    },
    {
      "midi": 79,
      "hit": false,
      "t": 147809.6346666669,
      "d": 57.14289999997709,
      "v": 95
    },
    {
      "midi": 51,
      "hit": false,
      "t": 147819.15848333357,
      "d": 66.66671666665934,
      "v": 82
    },
    {
      "midi": 79,
      "hit": false,
      "t": 147966.77764166688,
      "d": 61.90480833334732,
      "v": 90
    },
    {
      "midi": 82,
      "hit": false,
      "t": 147966.77764166688,
      "d": 71.42862500000047,
      "v": 77
    },
    {
      "midi": 63,
      "hit": false,
      "t": 148095.34916666689,
      "d": 42.85717500001192,
      "v": 62
    },
    {
      "midi": 55,
      "hit": false,
      "t": 148095.34916666689,
      "d": 52.38099166666507,
      "v": 80
    },
    {
      "midi": 58,
      "hit": false,
      "t": 148095.34916666689,
      "d": 52.38099166666507,
      "v": 81
    },
    {
      "midi": 77,
      "hit": false,
      "t": 148247.73023333354,
      "d": 61.90480833334732,
      "v": 72
    },
    {
      "midi": 80,
      "hit": false,
      "t": 148247.73023333354,
      "d": 61.90480833334732,
      "v": 66
    },
    {
      "midi": 46,
      "hit": false,
      "t": 148395.34939166688,
      "d": 33.33335833332967,
      "v": 82
    },
    {
      "midi": 75,
      "hit": false,
      "t": 148409.63511666688,
      "d": 66.66671666665934,
      "v": 72
    },
    {
      "midi": 79,
      "hit": false,
      "t": 148409.63511666688,
      "d": 76.19053333331249,
      "v": 80
    },
    {
      "midi": 78,
      "hit": false,
      "t": 148547.73045833354,
      "d": 100.00007499998901,
      "v": 72
    },
    {
      "midi": 55,
      "hit": false,
      "t": 148685.8258000002,
      "d": 61.904808333318215,
      "v": 81
    },
    {
      "midi": 63,
      "hit": false,
      "t": 148685.8258000002,
      "d": 61.904808333318215,
      "v": 66
    },
    {
      "midi": 79,
      "hit": false,
      "t": 148685.8258000002,
      "d": 80.95244166665361,
      "v": 77
    },
    {
      "midi": 58,
      "hit": false,
      "t": 148709.63534166687,
      "d": 28.571449999988545,
      "v": 79
    },
    {
      "midi": 82,
      "hit": false,
      "t": 148838.20686666685,
      "d": 57.14290000000619,
      "v": 80
    },
    {
      "midi": 87,
      "hit": false,
      "t": 148995.34984166684,
      "d": 61.904808333318215,
      "v": 101
    },
    {
      "midi": 79,
      "hit": false,
      "t": 149009.63556666684,
      "d": 28.571449999988545,
      "v": 86
    },
    {
      "midi": 51,
      "hit": false,
      "t": 149009.63556666684,
      "d": 66.66671666665934,
      "v": 82
    },
    {
      "midi": 87,
      "hit": false,
      "t": 149285.82625000016,
      "d": 52.38099166666507,
      "v": 80
    },
    {
      "midi": 63,
      "hit": false,
      "t": 149285.82625000016,
      "d": 61.904808333318215,
      "v": 69
    },
    {
      "midi": 94,
      "hit": false,
      "t": 149285.82625000016,
      "d": 61.904808333318215,
      "v": 101
    },
    {
      "midi": 55,
      "hit": false,
      "t": 149309.63579166683,
      "d": 38.09526666664169,
      "v": 80
    },
    {
      "midi": 58,
      "hit": false,
      "t": 149309.63579166683,
      "d": 38.09526666664169,
      "v": 80
    },
    {
      "midi": 87,
      "hit": false,
      "t": 149438.2073166668,
      "d": 90.47625833333586,
      "v": 77
    },
    {
      "midi": 91,
      "hit": false,
      "t": 149438.2073166668,
      "d": 280.95259166666074,
      "v": 101
    },
    {
      "midi": 46,
      "hit": false,
      "t": 149595.3502916668,
      "d": 52.38099166666507,
      "v": 82
    },
    {
      "midi": 96,
      "hit": false,
      "t": 149747.73135833346,
      "d": 71.42862500000047,
      "v": 83
    },
    {
      "midi": 87,
      "hit": false,
      "t": 149866.7790666668,
      "d": 52.38099166666507,
      "v": 90
    },
    {
      "midi": 94,
      "hit": false,
      "t": 149866.7790666668,
      "d": 52.38099166666507,
      "v": 101
    },
    {
      "midi": 55,
      "hit": false,
      "t": 149885.82670000012,
      "d": 42.85717499998282,
      "v": 81
    },
    {
      "midi": 58,
      "hit": false,
      "t": 149885.82670000012,
      "d": 42.85717499998282,
      "v": 81
    },
    {
      "midi": 63,
      "hit": false,
      "t": 149885.82670000012,
      "d": 42.85717499998282,
      "v": 69
    },
    {
      "midi": 79,
      "hit": false,
      "t": 150185.82692500012,
      "d": 42.85717499998282,
      "v": 83
    },
    {
      "midi": 51,
      "hit": false,
      "t": 150185.82692500012,
      "d": 80.95244166665361,
      "v": 82
    },
    {
      "midi": 82,
      "hit": false,
      "t": 150195.35074166677,
      "d": 33.33335833332967,
      "v": 71
    },
    {
      "midi": 79,
      "hit": false,
      "t": 150338.20799166677,
      "d": 57.14290000000619,
      "v": 90
    },
    {
      "midi": 82,
      "hit": false,
      "t": 150338.20799166677,
      "d": 57.14290000000619,
      "v": 80
    },
    {
      "midi": 63,
      "hit": false,
      "t": 150476.30333333343,
      "d": 52.38099166666507,
      "v": 66
    },
    {
      "midi": 58,
      "hit": false,
      "t": 150495.35096666677,
      "d": 33.33335833332967,
      "v": 77
    },
    {
      "midi": 55,
      "hit": false,
      "t": 150495.35096666677,
      "d": 42.85717499998282,
      "v": 79
    },
    {
      "midi": 77,
      "hit": false,
      "t": 150628.6844000001,
      "d": 47.61908333332394,
      "v": 68
    },
    {
      "midi": 80,
      "hit": false,
      "t": 150628.6844000001,
      "d": 57.14289999997709,
      "v": 68
    },
    {
      "midi": 75,
      "hit": false,
      "t": 150776.3035583334,
      "d": 71.42862499997136,
      "v": 74
    },
    {
      "midi": 46,
      "hit": false,
      "t": 150785.82737500005,
      "d": 52.38099166666507,
      "v": 83
    },
    {
      "midi": 79,
      "hit": false,
      "t": 150785.82737500005,
      "d": 80.95244166665361,
      "v": 71
    },
    {
      "midi": 78,
      "hit": false,
      "t": 150938.2084416667,
      "d": 80.95244166665361,
      "v": 69
    },
    {
      "midi": 63,
      "hit": false,
      "t": 151066.77996666668,
      "d": 71.42862499997136,
      "v": 68
    },
    {
      "midi": 79,
      "hit": false,
      "t": 151066.77996666668,
      "d": 80.95244166662451,
      "v": 80
    },
    {
      "midi": 55,
      "hit": false,
      "t": 151076.30378333334,
      "d": 52.38099166666507,
      "v": 81
    },
    {
      "midi": 58,
      "hit": false,
      "t": 151076.30378333334,
      "d": 52.38099166666507,
      "v": 79
    },
    {
      "midi": 82,
      "hit": false,
      "t": 151209.63721666666,
      "d": 57.14290000000619,
      "v": 80
    },
    {
      "midi": 79,
      "hit": false,
      "t": 151366.78019166665,
      "d": 61.90480833334732,
      "v": 90
    },
    {
      "midi": 87,
      "hit": false,
      "t": 151366.78019166665,
      "d": 71.42862500000047,
      "v": 101
    },
    {
      "midi": 51,
      "hit": false,
      "t": 151366.78019166665,
      "d": 90.47625833333586,
      "v": 82
    },
    {
      "midi": 63,
      "hit": false,
      "t": 151676.30423333333,
      "d": 52.38099166666507,
      "v": 69
    },
    {
      "midi": 87,
      "hit": false,
      "t": 151676.30423333333,
      "d": 52.38099166666507,
      "v": 80
    },
    {
      "midi": 94,
      "hit": false,
      "t": 151676.30423333333,
      "d": 61.904808333318215,
      "v": 90
    },
    {
      "midi": 55,
      "hit": false,
      "t": 151685.82804999998,
      "d": 42.85717500001192,
      "v": 79
    },
    {
      "midi": 58,
      "hit": false,
      "t": 151685.82804999998,
      "d": 42.85717500001192,
      "v": 79
    },
    {
      "midi": 87,
      "hit": false,
      "t": 151828.68529999998,
      "d": 190.47633333332487,
      "v": 83
    },
    {
      "midi": 91,
      "hit": false,
      "t": 151828.68529999998,
      "d": 328.5716749999847,
      "v": 101
    },
    {
      "midi": 51,
      "hit": false,
      "t": 151985.82827499998,
      "d": 52.38099166666507,
      "v": 83
    },
    {
      "midi": 39,
      "hit": false,
      "t": 151985.82827499998,
      "d": 61.904808333318215,
      "v": 83
    },
    {
      "midi": 96,
      "hit": false,
      "t": 152138.20934166663,
      "d": 80.95244166668272,
      "v": 86
    },
    {
      "midi": 40,
      "hit": false,
      "t": 152285.82849999997,
      "d": 61.90480833334732,
      "v": 84
    },
    {
      "midi": 52,
      "hit": false,
      "t": 152285.82849999997,
      "d": 61.90480833334732,
      "v": 84
    },
    {
      "midi": 85,
      "hit": false,
      "t": 152285.82849999997,
      "d": 61.90480833334732,
      "v": 83
    },
    {
      "midi": 94,
      "hit": false,
      "t": 152285.82849999997,
      "d": 61.90480833334732,
      "v": 90
    },
    {
      "midi": 86,
      "hit": false,
      "t": 152595.35254166665,
      "d": 71.42862499997136,
      "v": 86
    },
    {
      "midi": 41,
      "hit": false,
      "t": 152609.63826666665,
      "d": 47.61908333332394,
      "v": 83
    },
    {
      "midi": 53,
      "hit": false,
      "t": 152609.63826666665,
      "d": 47.61908333332394,
      "v": 82
    },
    {
      "midi": 92,
      "hit": false,
      "t": 152609.63826666665,
      "d": 47.61908333332394,
      "v": 86
    },
    {
      "midi": 86,
      "hit": false,
      "t": 152757.25742499996,
      "d": 90.47625833333586,
      "v": 83
    },
    {
      "midi": 92,
      "hit": false,
      "t": 152757.25742499996,
      "d": 128.57152500000666,
      "v": 86
    },
    {
      "midi": 62,
      "hit": false,
      "t": 152909.63849166664,
      "d": 47.61908333332394,
      "v": 71
    },
    {
      "midi": 56,
      "hit": false,
      "t": 152909.63849166664,
      "d": 57.14289999997709,
      "v": 80
    },
    {
      "midi": 58,
      "hit": false,
      "t": 152919.1623083333,
      "d": 47.61908333332394,
      "v": 81
    },
    {
      "midi": 91,
      "hit": false,
      "t": 153085.82909999994,
      "d": 71.42862500000047,
      "v": 80
    },
    {
      "midi": 34,
      "hit": false,
      "t": 153219.1625333333,
      "d": 28.57144999995944,
      "v": 82
    },
    {
      "midi": 89,
      "hit": false,
      "t": 153219.1625333333,
      "d": 90.47625833327766,
      "v": 95
    },
    {
      "midi": 46,
      "hit": false,
      "t": 153228.68634999995,
      "d": 28.57144999995944,
      "v": 82
    },
    {
      "midi": 88,
      "hit": false,
      "t": 153376.30550833323,
      "d": 80.95244166665361,
      "v": 83
    },
    {
      "midi": 56,
      "hit": false,
      "t": 153519.16275833323,
      "d": 57.14290000000619,
      "v": 80
    },
    {
      "midi": 62,
      "hit": false,
      "t": 153519.16275833323,
      "d": 57.14290000000619,
      "v": 71
    },
    {
      "midi": 89,
      "hit": false,
      "t": 153519.16275833323,
      "d": 100.00007499998901,
      "v": 83
    },
    {
      "midi": 58,
      "hit": false,
      "t": 153538.21039166657,
      "d": 47.61908333332394,
      "v": 79
    },
    {
      "midi": 90,
      "hit": false,
      "t": 153647.7342833332,
      "d": 80.95244166665361,
      "v": 71
    },
    {
      "midi": 79,
      "hit": false,
      "t": 153795.35344166652,
      "d": 42.85717499998282,
      "v": 77
    },
    {
      "midi": 91,
      "hit": false,
      "t": 153795.35344166652,
      "d": 42.85717499998282,
      "v": 95
    },
    {
      "midi": 39,
      "hit": false,
      "t": 153809.63916666651,
      "d": 28.571449999988545,
      "v": 82
    },
    {
      "midi": 51,
      "hit": false,
      "t": 153809.63916666651,
      "d": 47.61908333332394,
      "v": 83
    },
    {
      "midi": 92,
      "hit": false,
      "t": 153966.7821416665,
      "d": 42.85717499998282,
      "v": 95
    },
    {
      "midi": 80,
      "hit": false,
      "t": 153976.30595833316,
      "d": 33.33335833332967,
      "v": 69
    },
    {
      "midi": 63,
      "hit": false,
      "t": 154095.3536666665,
      "d": 52.38099166666507,
      "v": 69
    },
    {
      "midi": 82,
      "hit": false,
      "t": 154095.3536666665,
      "d": 52.38099166666507,
      "v": 72
    },
    {
      "midi": 94,
      "hit": false,
      "t": 154095.3536666665,
      "d": 52.38099166666507,
      "v": 101
    },
    {
      "midi": 58,
      "hit": false,
      "t": 154095.3536666665,
      "d": 71.42862500000047,
      "v": 81
    },
    {
      "midi": 55,
      "hit": false,
      "t": 154119.16320833316,
      "d": 47.61908333332394,
      "v": 79
    },
    {
      "midi": 84,
      "hit": false,
      "t": 154266.78236666648,
      "d": 71.42862500000047,
      "v": 86
    },
    {
      "midi": 96,
      "hit": false,
      "t": 154266.78236666648,
      "d": 119.04770833332441,
      "v": 107
    },
    {
      "midi": 55,
      "hit": false,
      "t": 154385.8300749998,
      "d": 52.38099166666507,
      "v": 82
    },
    {
      "midi": 43,
      "hit": false,
      "t": 154395.35389166645,
      "d": 52.38099166666507,
      "v": 80
    },
    {
      "midi": 86,
      "hit": false,
      "t": 154519.16350833312,
      "d": 38.095266666670796,
      "v": 80
    },
    {
      "midi": 98,
      "hit": false,
      "t": 154519.16350833312,
      "d": 38.095266666670796,
      "v": 83
    },
    {
      "midi": 87,
      "hit": false,
      "t": 154657.25884999978,
      "d": 61.90480833334732,
      "v": 90
    },
    {
      "midi": 99,
      "hit": false,
      "t": 154657.25884999978,
      "d": 71.42862500000047,
      "v": 95
    },
    {
      "midi": 54,
      "hit": false,
      "t": 154676.30648333312,
      "d": 52.38099166666507,
      "v": 83
    },
    {
      "midi": 42,
      "hit": false,
      "t": 154676.30648333312,
      "d": 80.95244166665361,
      "v": 83
    },
    {
      "midi": 86,
      "hit": false,
      "t": 154985.83052499976,
      "d": 33.333358333300566,
      "v": 80
    },
    {
      "midi": 41,
      "hit": false,
      "t": 154985.83052499976,
      "d": 52.380991666635964,
      "v": 82
    },
    {
      "midi": 53,
      "hit": false,
      "t": 154985.83052499976,
      "d": 61.90480833328911,
      "v": 83
    },
    {
      "midi": 98,
      "hit": false,
      "t": 154995.35434166642,
      "d": 23.80954166664742,
      "v": 77
    },
    {
      "midi": 87,
      "hit": false,
      "t": 155147.73540833304,
      "d": 28.571449999988545,
      "v": 74
    },
    {
      "midi": 99,
      "hit": false,
      "t": 155147.73540833304,
      "d": 47.61908333332394,
      "v": 86
    },
    {
      "midi": 58,
      "hit": false,
      "t": 155257.2592999997,
      "d": 61.90480833334732,
      "v": 81
    },
    {
      "midi": 62,
      "hit": false,
      "t": 155257.2592999997,
      "d": 61.90480833334732,
      "v": 69
    },
    {
      "midi": 53,
      "hit": false,
      "t": 155266.78311666637,
      "d": 52.38099166669417,
      "v": 81
    },
    {
      "midi": 88,
      "hit": false,
      "t": 155290.59265833304,
      "d": 28.57145000001765,
      "v": 74
    },
    {
      "midi": 100,
      "hit": false,
      "t": 155295.35456666638,
      "d": 23.809541666676523,
      "v": 74
    },
    {
      "midi": 101,
      "hit": false,
      "t": 155428.68799999973,
      "d": 109.52389166667126,
      "v": 107
    },
    {
      "midi": 89,
      "hit": false,
      "t": 155428.68799999973,
      "d": 142.85725000000093,
      "v": 95
    },
    {
      "midi": 41,
      "hit": false,
      "t": 155557.25952499974,
      "d": 61.904808333318215,
      "v": 83
    },
    {
      "midi": 89,
      "hit": false,
      "t": 155709.6405916664,
      "d": 76.19053333334159,
      "v": 74
    },
    {
      "midi": 87,
      "hit": false,
      "t": 155838.2121166664,
      "d": 57.142899999947986,
      "v": 86
    },
    {
      "midi": 96,
      "hit": false,
      "t": 155847.73593333305,
      "d": 61.90480833328911,
      "v": 95
    },
    {
      "midi": 53,
      "hit": false,
      "t": 155857.2597499997,
      "d": 52.380991666635964,
      "v": 82
    },
    {
      "midi": 57,
      "hit": false,
      "t": 155857.2597499997,
      "d": 52.380991666635964,
      "v": 82
    },
    {
      "midi": 86,
      "hit": false,
      "t": 156166.78379166636,
      "d": 61.90480833334732,
      "v": 86
    },
    {
      "midi": 94,
      "hit": false,
      "t": 156166.78379166636,
      "d": 61.90480833334732,
      "v": 107
    },
    {
      "midi": 58,
      "hit": false,
      "t": 156166.78379166636,
      "d": 71.42862500000047,
      "v": 82
    },
    {
      "midi": 46,
      "hit": false,
      "t": 156166.78379166636,
      "d": 80.95244166665361,
      "v": 82
    },
    {
      "midi": 53,
      "hit": false,
      "t": 156485.8316499997,
      "d": 342.85740000000806,
      "v": 82
    },
    {
      "midi": 50,
      "hit": false,
      "t": 156809.64141666636,
      "d": 328.5716749999847,
      "v": 84
    },
    {
      "midi": 68,
      "hit": false,
      "t": 157128.6892749997,
      "d": 47.61908333332394,
      "v": 86
    },
    {
      "midi": 70,
      "hit": false,
      "t": 157128.6892749997,
      "d": 47.61908333332394,
      "v": 83
    },
    {
      "midi": 46,
      "hit": false,
      "t": 157138.21309166634,
      "d": 47.61908333332394,
      "v": 84
    },
    {
      "midi": 70,
      "hit": false,
      "t": 157447.737133333,
      "d": 28.571449999988545,
      "v": 72
    },
    {
      "midi": 67,
      "hit": false,
      "t": 157447.737133333,
      "d": 38.09526666664169,
      "v": 80
    },
    {
      "midi": 51,
      "hit": false,
      "t": 157447.737133333,
      "d": 71.42862499997136,
      "v": 82
    },
    {
      "midi": 67,
      "hit": false,
      "t": 157595.3562916663,
      "d": 61.90480833334732,
      "v": 90
    },
    {
      "midi": 70,
      "hit": false,
      "t": 157595.3562916663,
      "d": 61.90480833334732,
      "v": 77
    },
    {
      "midi": 63,
      "hit": false,
      "t": 157738.2135416663,
      "d": 28.571449999988545,
      "v": 68
    },
    {
      "midi": 58,
      "hit": false,
      "t": 157738.2135416663,
      "d": 38.09526666664169,
      "v": 81
    },
    {
      "midi": 55,
      "hit": false,
      "t": 157738.2135416663,
      "d": 47.61908333329484,
      "v": 80
    },
    {
      "midi": 68,
      "hit": false,
      "t": 157876.30888333294,
      "d": 61.904808333318215,
      "v": 65
    },
    {
      "midi": 65,
      "hit": false,
      "t": 157885.8326999996,
      "d": 42.85717500001192,
      "v": 69
    },
    {
      "midi": 63,
      "hit": false,
      "t": 158028.6899499996,
      "d": 66.66671666665934,
      "v": 77
    },
    {
      "midi": 67,
      "hit": false,
      "t": 158028.6899499996,
      "d": 90.47625833333586,
      "v": 72
    },
    {
      "midi": 46,
      "hit": false,
      "t": 158047.73758333293,
      "d": 38.095266666670796,
      "v": 82
    },
    {
      "midi": 66,
      "hit": false,
      "t": 158185.8329249996,
      "d": 90.47625833333586,
      "v": 69
    },
    {
      "midi": 63,
      "hit": false,
      "t": 158338.21399166627,
      "d": 47.61908333329484,
      "v": 66
    },
    {
      "midi": 67,
      "hit": false,
      "t": 158338.21399166627,
      "d": 80.95244166662451,
      "v": 80
    },
    {
      "midi": 55,
      "hit": false,
      "t": 158347.73780833292,
      "d": 38.09526666664169,
      "v": 80
    },
    {
      "midi": 58,
      "hit": false,
      "t": 158357.26162499958,
      "d": 28.571449999988545,
      "v": 79
    },
    {
      "midi": 70,
      "hit": false,
      "t": 158476.3093333329,
      "d": 42.85717500001192,
      "v": 74
    },
    {
      "midi": 75,
      "hit": false,
      "t": 158638.21421666624,
      "d": 57.14289999997709,
      "v": 101
    },
    {
      "midi": 67,
      "hit": false,
      "t": 158647.7380333329,
      "d": 28.571449999988545,
      "v": 95
    },
    {
      "midi": 51,
      "hit": false,
      "t": 158647.7380333329,
      "d": 61.904808333318215,
      "v": 82
    },
    {
      "midi": 63,
      "hit": false,
      "t": 158928.69062499955,
      "d": 57.142899999947986,
      "v": 71
    },
    {
      "midi": 82,
      "hit": false,
      "t": 158928.69062499955,
      "d": 66.66671666660113,
      "v": 77
    },
    {
      "midi": 75,
      "hit": false,
      "t": 158938.2144416662,
      "d": 47.61908333329484,
      "v": 72
    },
    {
      "midi": 58,
      "hit": false,
      "t": 158947.73825833286,
      "d": 38.09526666664169,
      "v": 80
    },
    {
      "midi": 55,
      "hit": false,
      "t": 158957.2620749995,
      "d": 38.09526666664169,
      "v": 79
    },
    {
      "midi": 79,
      "hit": false,
      "t": 159076.3097833328,
      "d": 342.85739999997895,
      "v": 95
    },
    {
      "midi": 75,
      "hit": false,
      "t": 159095.35741666614,
      "d": 171.42869999998948,
      "v": 68
    },
    {
      "midi": 46,
      "hit": false,
      "t": 159238.21466666614,
      "d": 57.14289999997709,
      "v": 84
    },
    {
      "midi": 84,
      "hit": false,
      "t": 159385.83382499946,
      "d": 71.42862500000047,
      "v": 80
    },
    {
      "midi": 55,
      "hit": false,
      "t": 159547.7387083328,
      "d": 38.095266666670796,
      "v": 80
    },
    {
      "midi": 58,
      "hit": false,
      "t": 159547.7387083328,
      "d": 38.095266666670796,
      "v": 81
    },
    {
      "midi": 63,
      "hit": false,
      "t": 159547.7387083328,
      "d": 38.095266666670796,
      "v": 71
    },
    {
      "midi": 75,
      "hit": false,
      "t": 159547.7387083328,
      "d": 38.095266666670796,
      "v": 90
    },
    {
      "midi": 82,
      "hit": false,
      "t": 159547.7387083328,
      "d": 38.095266666670796,
      "v": 83
    },
    {
      "midi": 79,
      "hit": false,
      "t": 159866.78656666612,
      "d": 61.904808333318215,
      "v": 80
    },
    {
      "midi": 50,
      "hit": false,
      "t": 159876.31038333278,
      "d": 52.38099166666507,
      "v": 83
    },
    {
      "midi": 71,
      "hit": false,
      "t": 159876.31038333278,
      "d": 52.38099166666507,
      "v": 80
    },
    {
      "midi": 71,
      "hit": false,
      "t": 160028.69144999943,
      "d": 47.61908333332394,
      "v": 80
    },
    {
      "midi": 79,
      "hit": false,
      "t": 160028.69144999943,
      "d": 57.14289999997709,
      "v": 83
    },
    {
      "midi": 65,
      "hit": false,
      "t": 160166.78679166606,
      "d": 42.85717500001192,
      "v": 77
    },
    {
      "midi": 59,
      "hit": false,
      "t": 160166.78679166606,
      "d": 52.38099166666507,
      "v": 82
    },
    {
      "midi": 55,
      "hit": false,
      "t": 160166.78679166606,
      "d": 71.42862500000047,
      "v": 82
    },
    {
      "midi": 71,
      "hit": false,
      "t": 160309.64404166606,
      "d": 76.19053333334159,
      "v": 69
    },
    {
      "midi": 79,
      "hit": false,
      "t": 160309.64404166606,
      "d": 76.19053333334159,
      "v": 69
    },
    {
      "midi": 43,
      "hit": false,
      "t": 160457.2631999994,
      "d": 61.904808333318215,
      "v": 84
    },
    {
      "midi": 71,
      "hit": false,
      "t": 160457.2631999994,
      "d": 80.95244166665361,
      "v": 86
    },
    {
      "midi": 80,
      "hit": false,
      "t": 160457.2631999994,
      "d": 128.57152499997756,
      "v": 86
    },
    {
      "midi": 79,
      "hit": false,
      "t": 160585.83472499938,
      "d": 190.47633333332487,
      "v": 63
    },
    {
      "midi": 74,
      "hit": false,
      "t": 160747.73960833272,
      "d": 119.04770833332441,
      "v": 80
    },
    {
      "midi": 65,
      "hit": false,
      "t": 160757.26342499937,
      "d": 61.90480833334732,
      "v": 77
    },
    {
      "midi": 55,
      "hit": false,
      "t": 160757.26342499937,
      "d": 71.42862500000047,
      "v": 81
    },
    {
      "midi": 59,
      "hit": false,
      "t": 160776.3110583327,
      "d": 42.85717500001192,
      "v": 82
    },
    {
      "midi": 77,
      "hit": false,
      "t": 160909.64449166605,
      "d": 85.71434999999474,
      "v": 77
    },
    {
      "midi": 75,
      "hit": false,
      "t": 161047.73983333271,
      "d": 71.42862499994226,
      "v": 86
    },
    {
      "midi": 48,
      "hit": false,
      "t": 161057.26364999937,
      "d": 38.09526666664169,
      "v": 82
    },
    {
      "midi": 72,
      "hit": false,
      "t": 161057.26364999937,
      "d": 52.380991666635964,
      "v": 83
    },
    {
      "midi": 60,
      "hit": false,
      "t": 161066.78746666602,
      "d": 42.85717499998282,
      "v": 82
    },
    {
      "midi": 77,
      "hit": false,
      "t": 161209.644716666,
      "d": 57.14290000000619,
      "v": 77
    },
    {
      "midi": 63,
      "hit": false,
      "t": 161347.74005833265,
      "d": 28.571449999988545,
      "v": 65
    },
    {
      "midi": 60,
      "hit": false,
      "t": 161347.74005833265,
      "d": 38.09526666664169,
      "v": 81
    },
    {
      "midi": 55,
      "hit": false,
      "t": 161347.74005833265,
      "d": 47.61908333329484,
      "v": 80
    },
    {
      "midi": 79,
      "hit": false,
      "t": 161347.74005833265,
      "d": 47.61908333329484,
      "v": 80
    },
    {
      "midi": 72,
      "hit": false,
      "t": 161509.64494166596,
      "d": 238.09541666667792,
      "v": 83
    },
    {
      "midi": 84,
      "hit": false,
      "t": 161509.64494166596,
      "d": 266.66686666666646,
      "v": 95
    },
    {
      "midi": 48,
      "hit": false,
      "t": 161638.21646666597,
      "d": 71.42862500000047,
      "v": 83
    },
    {
      "midi": 79,
      "hit": false,
      "t": 161785.83562499928,
      "d": 100.00007499998901,
      "v": 77
    },
    {
      "midi": 55,
      "hit": false,
      "t": 161928.69287499928,
      "d": 80.95244166662451,
      "v": 82
    },
    {
      "midi": 63,
      "hit": false,
      "t": 161938.21669166593,
      "d": 47.61908333332394,
      "v": 69
    },
    {
      "midi": 60,
      "hit": false,
      "t": 161938.21669166593,
      "d": 57.14289999997709,
      "v": 82
    },
    {
      "midi": 72,
      "hit": false,
      "t": 161938.21669166593,
      "d": 71.42862499997136,
      "v": 90
    },
    {
      "midi": 84,
      "hit": false,
      "t": 161938.21669166593,
      "d": 180.95251666664262,
      "v": 101
    },
    {
      "midi": 41,
      "hit": false,
      "t": 162247.74073333258,
      "d": 61.90480833334732,
      "v": 83
    },
    {
      "midi": 80,
      "hit": false,
      "t": 162395.35989166592,
      "d": 61.90480833334732,
      "v": 90
    },
    {
      "midi": 60,
      "hit": false,
      "t": 162528.69332499927,
      "d": 57.14289999997709,
      "v": 81
    },
    {
      "midi": 56,
      "hit": false,
      "t": 162528.69332499927,
      "d": 66.66671666663024,
      "v": 81
    },
    {
      "midi": 65,
      "hit": false,
      "t": 162538.21714166593,
      "d": 47.61908333332394,
      "v": 77
    },
    {
      "midi": 79,
      "hit": false,
      "t": 162547.74095833258,
      "d": 61.904808333318215,
      "v": 86
    },
    {
      "midi": 77,
      "hit": false,
      "t": 162695.3601166659,
      "d": 61.90480833334732,
      "v": 74
    },
    {
      "midi": 48,
      "hit": false,
      "t": 162847.74118333258,
      "d": 38.095266666670796,
      "v": 82
    },
    {
      "midi": 60,
      "hit": false,
      "t": 162847.74118333258,
      "d": 38.095266666670796,
      "v": 82
    },
    {
      "midi": 80,
      "hit": false,
      "t": 162847.74118333258,
      "d": 71.42862500000047,
      "v": 83
    },
    {
      "midi": 87,
      "hit": false,
      "t": 162985.83652499923,
      "d": 271.4287750000076,
      "v": 86
    },
    {
      "midi": 47,
      "hit": false,
      "t": 163147.74140833257,
      "d": 38.095266666670796,
      "v": 84
    },
    {
      "midi": 59,
      "hit": false,
      "t": 163147.74140833257,
      "d": 38.095266666670796,
      "v": 84
    },
    {
      "midi": 80,
      "hit": false,
      "t": 163285.83674999923,
      "d": 61.90480833334732,
      "v": 68
    },
    {
      "midi": 79,
      "hit": false,
      "t": 163447.74163333257,
      "d": 90.47625833330676,
      "v": 90
    },
    {
      "midi": 46,
      "hit": false,
      "t": 163457.26544999922,
      "d": 38.09526666664169,
      "v": 83
    },
    {
      "midi": 58,
      "hit": false,
      "t": 163457.26544999922,
      "d": 38.09526666664169,
      "v": 84
    },
    {
      "midi": 75,
      "hit": false,
      "t": 163609.64651666587,
      "d": 57.14290000000619,
      "v": 83
    },
    {
      "midi": 67,
      "hit": false,
      "t": 163747.74185833253,
      "d": 47.61908333332394,
      "v": 74
    },
    {
      "midi": 58,
      "hit": false,
      "t": 163747.74185833253,
      "d": 61.904808333318215,
      "v": 82
    },
    {
      "midi": 63,
      "hit": false,
      "t": 163747.74185833253,
      "d": 61.904808333318215,
      "v": 71
    },
    {
      "midi": 79,
      "hit": false,
      "t": 163747.74185833253,
      "d": 80.95244166665361,
      "v": 86
    },
    {
      "midi": 78,
      "hit": false,
      "t": 164066.78971666587,
      "d": 242.85732499996084,
      "v": 83
    },
    {
      "midi": 72,
      "hit": false,
      "t": 164066.78971666587,
      "d": 271.4287749999494,
      "v": 86
    },
    {
      "midi": 69,
      "hit": false,
      "t": 164066.78971666587,
      "d": 342.85739999994985,
      "v": 90
    },
    {
      "midi": 45,
      "hit": false,
      "t": 164076.31353333252,
      "d": 42.85717499998282,
      "v": 95
    },
    {
      "midi": 57,
      "hit": false,
      "t": 164076.31353333252,
      "d": 42.85717499998282,
      "v": 84
    },
    {
      "midi": 75,
      "hit": false,
      "t": 164076.31353333252,
      "d": 242.85732499996084,
      "v": 72
    },
    {
      "midi": 70,
      "hit": false,
      "t": 164547.74245833248,
      "d": 209.52396666666027,
      "v": 86
    },
    {
      "midi": 75,
      "hit": false,
      "t": 164547.74245833248,
      "d": 209.52396666666027,
      "v": 74
    },
    {
      "midi": 79,
      "hit": false,
      "t": 164547.74245833248,
      "d": 219.04778333331342,
      "v": 90
    },
    {
      "midi": 67,
      "hit": false,
      "t": 164557.26627499913,
      "d": 138.0953416666598,
      "v": 90
    },
    {
      "midi": 46,
      "hit": false,
      "t": 164719.17115833246,
      "d": 38.095266666670796,
      "v": 82
    },
    {
      "midi": 58,
      "hit": false,
      "t": 164719.17115833246,
      "d": 47.61908333332394,
      "v": 86
    },
    {
      "midi": 67,
      "hit": false,
      "t": 164876.31413333246,
      "d": 71.42862500000047,
      "v": 68
    },
    {
      "midi": 58,
      "hit": false,
      "t": 164985.83802499913,
      "d": 61.904808333318215,
      "v": 82
    },
    {
      "midi": 63,
      "hit": false,
      "t": 164985.83802499913,
      "d": 61.904808333318215,
      "v": 69
    },
    {
      "midi": 79,
      "hit": false,
      "t": 164995.36184166578,
      "d": 133.33343333331868,
      "v": 95
    },
    {
      "midi": 77,
      "hit": false,
      "t": 165138.21909166576,
      "d": 138.0953416666598,
      "v": 69
    },
    {
      "midi": 75,
      "hit": false,
      "t": 165285.83824999907,
      "d": 80.95244166662451,
      "v": 83
    },
    {
      "midi": 60,
      "hit": false,
      "t": 165295.36206666572,
      "d": 33.33335833332967,
      "v": 84
    },
    {
      "midi": 48,
      "hit": false,
      "t": 165295.36206666572,
      "d": 42.85717499998282,
      "v": 84
    },
    {
      "midi": 69,
      "hit": false,
      "t": 165295.36206666572,
      "d": 61.904808333318215,
      "v": 95
    },
    {
      "midi": 74,
      "hit": false,
      "t": 165595.3622916657,
      "d": 90.47625833330676,
      "v": 83
    },
    {
      "midi": 58,
      "hit": false,
      "t": 165609.64801666568,
      "d": 38.095266666670796,
      "v": 84
    },
    {
      "midi": 46,
      "hit": false,
      "t": 165609.64801666568,
      "d": 47.61908333332394,
      "v": 84
    },
    {
      "midi": 68,
      "hit": false,
      "t": 165609.64801666568,
      "d": 57.14289999997709,
      "v": 72
    },
    {
      "midi": 77,
      "hit": false,
      "t": 165609.64801666568,
      "d": 76.19053333331249,
      "v": 86
    },
    {
      "midi": 51,
      "hit": false,
      "t": 165919.17205833233,
      "d": 47.61908333332394,
      "v": 90
    },
    {
      "midi": 63,
      "hit": false,
      "t": 165919.17205833233,
      "d": 47.61908333332394,
      "v": 107
    },
    {
      "midi": 67,
      "hit": false,
      "t": 165919.17205833233,
      "d": 57.14289999997709,
      "v": 86
    },
    {
      "midi": 70,
      "hit": false,
      "t": 165919.17205833233,
      "d": 57.14289999997709,
      "v": 86
    },
    {
      "midi": 75,
      "hit": false,
      "t": 165919.17205833233,
      "d": 90.47625833330676,
      "v": 95
    },
    {
      "midi": 79,
      "hit": false,
      "t": 166238.21991666564,
      "d": 71.42862500000047,
      "v": 86
    },
    {
      "midi": 82,
      "hit": false,
      "t": 166238.21991666564,
      "d": 71.42862500000047,
      "v": 74
    },
    {
      "midi": 39,
      "hit": false,
      "t": 166238.21991666564,
      "d": 90.47625833333586,
      "v": 82
    },
    {
      "midi": 51,
      "hit": false,
      "t": 166238.21991666564,
      "d": 90.47625833333586,
      "v": 95
    },
    {
      "midi": 75,
      "hit": false,
      "t": 166238.21991666564,
      "d": 90.47625833333586,
      "v": 77
    },
    {
      "midi": 87,
      "hit": false,
      "t": 166238.21991666564,
      "d": 90.47625833333586,
      "v": 77
    },
    {
      "midi": 78,
      "hit": false,
      "t": 166552.50586666566,
      "d": 66.66671666665934,
      "v": 80
    },
    {
      "midi": 38,
      "hit": false,
      "t": 166562.0296833323,
      "d": 57.14290000000619,
      "v": 84
    },
    {
      "midi": 50,
      "hit": false,
      "t": 166562.0296833323,
      "d": 57.14290000000619,
      "v": 84
    },
    {
      "midi": 74,
      "hit": false,
      "t": 166562.0296833323,
      "d": 57.14290000000619,
      "v": 83
    },
    {
      "midi": 81,
      "hit": false,
      "t": 166562.0296833323,
      "d": 57.14290000000619,
      "v": 90
    },
    {
      "midi": 86,
      "hit": false,
      "t": 166562.0296833323,
      "d": 100.00007500001811,
      "v": 90
    },
    {
      "midi": 48,
      "hit": false,
      "t": 166719.17265833233,
      "d": 71.42862500000047,
      "v": 83
    },
    {
      "midi": 36,
      "hit": false,
      "t": 166738.22029166567,
      "d": 42.85717500001192,
      "v": 83
    },
    {
      "midi": 47,
      "hit": false,
      "t": 166862.02990833233,
      "d": 47.61908333332394,
      "v": 86
    },
    {
      "midi": 78,
      "hit": false,
      "t": 166862.02990833233,
      "d": 47.61908333332394,
      "v": 74
    },
    {
      "midi": 81,
      "hit": false,
      "t": 166862.02990833233,
      "d": 47.61908333332394,
      "v": 80
    },
    {
      "midi": 35,
      "hit": false,
      "t": 166862.02990833233,
      "d": 66.66671666665934,
      "v": 86
    },
    {
      "midi": 86,
      "hit": false,
      "t": 166862.02990833233,
      "d": 90.47625833333586,
      "v": 83
    },
    {
      "midi": 90,
      "hit": false,
      "t": 166862.02990833233,
      "d": 90.47625833333586,
      "v": 80
    },
    {
      "midi": 33,
      "hit": false,
      "t": 167009.64906666568,
      "d": 42.85717500001192,
      "v": 95
    },
    {
      "midi": 45,
      "hit": false,
      "t": 167028.696699999,
      "d": 23.809541666676523,
      "v": 84
    },
    {
      "midi": 31,
      "hit": false,
      "t": 167162.03013333236,
      "d": 66.66671666665934,
      "v": 95
    },
    {
      "midi": 43,
      "hit": false,
      "t": 167162.03013333236,
      "d": 66.66671666665934,
      "v": 84
    },
    {
      "midi": 83,
      "hit": false,
      "t": 167162.03013333236,
      "d": 100.00007499998901,
      "v": 83
    },
    {
      "midi": 86,
      "hit": false,
      "t": 167162.03013333236,
      "d": 128.57152499997756,
      "v": 80
    },
    {
      "midi": 79,
      "hit": false,
      "t": 167162.03013333236,
      "d": 147.61915833331295,
      "v": 83
    },
    {
      "midi": 91,
      "hit": false,
      "t": 167162.03013333236,
      "d": 147.61915833331295,
      "v": 104
    },
    {
      "midi": 89,
      "hit": false,
      "t": 167328.696924999,
      "d": 152.38106666668318,
      "v": 77
    },
    {
      "midi": 86,
      "hit": false,
      "t": 167438.22081666568,
      "d": 223.80969166668365,
      "v": 80
    },
    {
      "midi": 59,
      "hit": false,
      "t": 167481.0779916657,
      "d": 90.47625833333586,
      "v": 83
    },
    {
      "midi": 55,
      "hit": false,
      "t": 167500.12562499903,
      "d": 71.42862500000047,
      "v": 83
    },
    {
      "midi": 65,
      "hit": false,
      "t": 167500.12562499903,
      "d": 71.42862500000047,
      "v": 83
    },
    {
      "midi": 83,
      "hit": false,
      "t": 167609.6495166657,
      "d": 119.04770833332441,
      "v": 80
    },
    {
      "midi": 79,
      "hit": false,
      "t": 167752.5067666657,
      "d": 66.66671666665934,
      "v": 80
    },
    {
      "midi": 50,
      "hit": false,
      "t": 167781.0782166657,
      "d": 38.095266666670796,
      "v": 84
    },
    {
      "midi": 62,
      "hit": false,
      "t": 167781.0782166657,
      "d": 57.14290000000619,
      "v": 80
    },
    {
      "midi": 77,
      "hit": false,
      "t": 167900.12592499904,
      "d": 190.47633333332487,
      "v": 63
    },
    {
      "midi": 55,
      "hit": false,
      "t": 168052.5069916657,
      "d": 85.71434999999474,
      "v": 82
    },
    {
      "midi": 74,
      "hit": false,
      "t": 168052.5069916657,
      "d": 119.04770833332441,
      "v": 80
    },
    {
      "midi": 59,
      "hit": false,
      "t": 168071.55462499903,
      "d": 47.61908333332394,
      "v": 86
    },
    {
      "midi": 65,
      "hit": false,
      "t": 168071.55462499903,
      "d": 47.61908333332394,
      "v": 80
    },
    {
      "midi": 71,
      "hit": false,
      "t": 168209.6499666657,
      "d": 61.90480833334732,
      "v": 80
    },
    {
      "midi": 48,
      "hit": false,
      "t": 168352.5072166657,
      "d": 66.66671666665934,
      "v": 84
    },
    {
      "midi": 60,
      "hit": false,
      "t": 168352.5072166657,
      "d": 66.66671666665934,
      "v": 83
    },
    {
      "midi": 72,
      "hit": false,
      "t": 168352.5072166657,
      "d": 109.52389166667126,
      "v": 83
    },
    {
      "midi": 76,
      "hit": false,
      "t": 168352.5072166657,
      "d": 128.57152500000666,
      "v": 90
    },
    {
      "midi": 64,
      "hit": false,
      "t": 168628.69789999904,
      "d": 42.85717500001192,
      "v": 77
    },
    {
      "midi": 69,
      "hit": false,
      "t": 168628.69789999904,
      "d": 61.90480833334732,
      "v": 80
    },
    {
      "midi": 72,
      "hit": false,
      "t": 168628.69789999904,
      "d": 61.90480833334732,
      "v": 72
    },
    {
      "midi": 76,
      "hit": false,
      "t": 168628.69789999904,
      "d": 61.90480833334732,
      "v": 71
    },
    {
      "midi": 60,
      "hit": false,
      "t": 168652.50744166572,
      "d": 38.095266666670796,
      "v": 82
    },
    {
      "midi": 55,
      "hit": false,
      "t": 168671.55507499905,
      "d": 38.095266666670796,
      "v": 80
    },
    {
      "midi": 67,
      "hit": false,
      "t": 168781.07896666572,
      "d": 157.1429749999952,
      "v": 80
    },
    {
      "midi": 72,
      "hit": false,
      "t": 168781.07896666572,
      "d": 180.95251666667173,
      "v": 80
    },
    {
      "midi": 76,
      "hit": false,
      "t": 168781.07896666572,
      "d": 180.95251666667173,
      "v": 80
    },
    {
      "midi": 43,
      "hit": false,
      "t": 168938.22194166572,
      "d": 61.90480833334732,
      "v": 82
    },
    {
      "midi": 72,
      "hit": false,
      "t": 169071.55537499906,
      "d": 47.61908333332394,
      "v": 74
    },
    {
      "midi": 76,
      "hit": false,
      "t": 169071.55537499906,
      "d": 47.61908333332394,
      "v": 74
    },
    {
      "midi": 69,
      "hit": false,
      "t": 169090.6030083324,
      "d": 28.571449999988545,
      "v": 72
    },
    {
      "midi": 60,
      "hit": false,
      "t": 169209.65071666572,
      "d": 52.38099166666507,
      "v": 83
    },
    {
      "midi": 64,
      "hit": false,
      "t": 169209.65071666572,
      "d": 52.38099166666507,
      "v": 74
    },
    {
      "midi": 67,
      "hit": false,
      "t": 169209.65071666572,
      "d": 52.38099166666507,
      "v": 90
    },
    {
      "midi": 72,
      "hit": false,
      "t": 169209.65071666572,
      "d": 80.95244166665361,
      "v": 80
    },
    {
      "midi": 76,
      "hit": false,
      "t": 169209.65071666572,
      "d": 80.95244166665361,
      "v": 86
    },
    {
      "midi": 55,
      "hit": false,
      "t": 169238.2221666657,
      "d": 42.85717500001192,
      "v": 81
    },
    {
      "midi": 71,
      "hit": false,
      "t": 169509.65094166572,
      "d": 42.85717500001192,
      "v": 80
    },
    {
      "midi": 50,
      "hit": false,
      "t": 169509.65094166572,
      "d": 61.90480833334732,
      "v": 84
    },
    {
      "midi": 62,
      "hit": false,
      "t": 169509.65094166572,
      "d": 61.90480833334732,
      "v": 74
    },
    {
      "midi": 77,
      "hit": false,
      "t": 169509.65094166572,
      "d": 61.90480833334732,
      "v": 86
    },
    {
      "midi": 65,
      "hit": false,
      "t": 169781.07971666573,
      "d": 38.095266666670796,
      "v": 71
    },
    {
      "midi": 77,
      "hit": false,
      "t": 169781.07971666573,
      "d": 57.14290000000619,
      "v": 72
    },
    {
      "midi": 55,
      "hit": false,
      "t": 169781.07971666573,
      "d": 80.95244166668272,
      "v": 81
    },
    {
      "midi": 69,
      "hit": false,
      "t": 169781.07971666573,
      "d": 80.95244166668272,
      "v": 72
    },
    {
      "midi": 59,
      "hit": false,
      "t": 169800.12734999906,
      "d": 38.095266666670796,
      "v": 82
    },
    {
      "midi": 67,
      "hit": false,
      "t": 169962.0322333324,
      "d": 100.00007500001811,
      "v": 77
    },
    {
      "midi": 77,
      "hit": false,
      "t": 169962.0322333324,
      "d": 119.04770833335351,
      "v": 83
    },
    {
      "midi": 43,
      "hit": false,
      "t": 170081.07994166575,
      "d": 57.14290000000619,
      "v": 83
    },
    {
      "midi": 69,
      "hit": false,
      "t": 170238.22291666575,
      "d": 42.85717500001192,
      "v": 72
    },
    {
      "midi": 77,
      "hit": false,
      "t": 170262.03245833243,
      "d": 38.095266666670796,
      "v": 60
    },
    {
      "midi": 65,
      "hit": false,
      "t": 170362.03253333244,
      "d": 38.095266666670796,
      "v": 80
    },
    {
      "midi": 55,
      "hit": false,
      "t": 170362.03253333244,
      "d": 57.14290000000619,
      "v": 81
    },
    {
      "midi": 59,
      "hit": false,
      "t": 170362.03253333244,
      "d": 57.14290000000619,
      "v": 82
    },
    {
      "midi": 67,
      "hit": false,
      "t": 170381.08016666578,
      "d": 38.095266666670796,
      "v": 90
    },
    {
      "midi": 77,
      "hit": false,
      "t": 170381.08016666578,
      "d": 57.14290000000619,
      "v": 78
    },
    {
      "midi": 48,
      "hit": false,
      "t": 170681.08039166578,
      "d": 47.61908333332394,
      "v": 83
    },
    {
      "midi": 60,
      "hit": false,
      "t": 170681.08039166578,
      "d": 47.61908333332394,
      "v": 82
    },
    {
      "midi": 72,
      "hit": false,
      "t": 170681.08039166578,
      "d": 90.47625833333586,
      "v": 83
    },
    {
      "midi": 76,
      "hit": false,
      "t": 170681.08039166578,
      "d": 109.52389166667126,
      "v": 83
    },
    {
      "midi": 60,
      "hit": false,
      "t": 170962.03298333244,
      "d": 47.61908333332394,
      "v": 82
    },
    {
      "midi": 64,
      "hit": false,
      "t": 170962.03298333244,
      "d": 47.61908333332394,
      "v": 66
    },
    {
      "midi": 55,
      "hit": false,
      "t": 170962.03298333244,
      "d": 66.66671666665934,
      "v": 81
    },
    {
      "midi": 69,
      "hit": false,
      "t": 170981.08061666577,
      "d": 57.14289999997709,
      "v": 83
    },
    {
      "midi": 67,
      "hit": false,
      "t": 171119.1759583324,
      "d": 90.47625833333586,
      "v": 90
    },
    {
      "midi": 72,
      "hit": false,
      "t": 171119.1759583324,
      "d": 133.33343333334778,
      "v": 83
    },
    {
      "midi": 76,
      "hit": false,
      "t": 171119.1759583324,
      "d": 152.38106666668318,
      "v": 86
    },
    {
      "midi": 43,
      "hit": false,
      "t": 171271.55702499909,
      "d": 66.66671666665934,
      "v": 82
    },
    {
      "midi": 79,
      "hit": false,
      "t": 171409.65236666574,
      "d": 71.42862500000047,
      "v": 86
    },
    {
      "midi": 64,
      "hit": false,
      "t": 171528.70007499907,
      "d": 52.38099166666507,
      "v": 69
    },
    {
      "midi": 60,
      "hit": false,
      "t": 171552.50961666575,
      "d": 28.571449999988545,
      "v": 81
    },
    {
      "midi": 55,
      "hit": false,
      "t": 171552.50961666575,
      "d": 47.61908333332394,
      "v": 80
    },
    {
      "midi": 84,
      "hit": false,
      "t": 171552.50961666575,
      "d": 47.61908333332394,
      "v": 80
    },
    {
      "midi": 88,
      "hit": false,
      "t": 171671.55732499907,
      "d": 80.95244166665361,
      "v": 86
    },
    {
      "midi": 50,
      "hit": false,
      "t": 171819.17648333238,
      "d": 52.38099166666507,
      "v": 84
    },
    {
      "midi": 62,
      "hit": false,
      "t": 171819.17648333238,
      "d": 61.904808333318215,
      "v": 74
    },
    {
      "midi": 91,
      "hit": false,
      "t": 171838.22411666572,
      "d": 90.47625833330676,
      "v": 101
    },
    {
      "midi": 83,
      "hit": false,
      "t": 171852.5098416657,
      "d": 38.09526666664169,
      "v": 74
    },
    {
      "midi": 79,
      "hit": false,
      "t": 171852.5098416657,
      "d": 57.14289999997709,
      "v": 60
    },
    {
      "midi": 89,
      "hit": false,
      "t": 172000.12899999903,
      "d": 119.04770833332441,
      "v": 80
    },
    {
      "midi": 65,
      "hit": false,
      "t": 172090.60525833236,
      "d": 28.571449999988545,
      "v": 77
    },
    {
      "midi": 59,
      "hit": false,
      "t": 172090.60525833236,
      "d": 47.61908333332394,
      "v": 83
    },
    {
      "midi": 55,
      "hit": false,
      "t": 172109.6528916657,
      "d": 42.85717499998282,
      "v": 79
    },
    {
      "midi": 86,
      "hit": false,
      "t": 172119.17670833235,
      "d": 152.38106666665408,
      "v": 83
    },
    {
      "midi": 83,
      "hit": false,
      "t": 172271.557774999,
      "d": 119.04770833332441,
      "v": 68
    },
    {
      "midi": 43,
      "hit": false,
      "t": 172409.65311666566,
      "d": 61.90480833334732,
      "v": 83
    },
    {
      "midi": 79,
      "hit": false,
      "t": 172409.65311666566,
      "d": 80.95244166668272,
      "v": 80
    },
    {
      "midi": 77,
      "hit": false,
      "t": 172552.5103666657,
      "d": 157.1429749999661,
      "v": 69
    },
    {
      "midi": 55,
      "hit": false,
      "t": 172690.60570833235,
      "d": 80.95244166665361,
      "v": 81
    },
    {
      "midi": 74,
      "hit": false,
      "t": 172690.60570833235,
      "d": 119.04770833332441,
      "v": 71
    },
    {
      "midi": 59,
      "hit": false,
      "t": 172700.129524999,
      "d": 52.38099166666507,
      "v": 83
    },
    {
      "midi": 65,
      "hit": false,
      "t": 172700.129524999,
      "d": 52.38099166666507,
      "v": 74
    },
    {
      "midi": 71,
      "hit": false,
      "t": 172852.5105916657,
      "d": 76.19053333334159,
      "v": 74
    },
    {
      "midi": 48,
      "hit": false,
      "t": 172990.60593333238,
      "d": 47.61908333332394,
      "v": 83
    },
    {
      "midi": 72,
      "hit": false,
      "t": 172990.60593333238,
      "d": 109.52389166667126,
      "v": 83
    },
    {
      "midi": 76,
      "hit": false,
      "t": 172990.60593333238,
      "d": 119.04770833332441,
      "v": 80
    },
    {
      "midi": 60,
      "hit": false,
      "t": 173009.65356666571,
      "d": 28.571449999988545,
      "v": 82
    },
    {
      "midi": 69,
      "hit": false,
      "t": 173271.55852499904,
      "d": 47.61908333332394,
      "v": 80
    },
    {
      "midi": 72,
      "hit": false,
      "t": 173271.55852499904,
      "d": 47.61908333332394,
      "v": 71
    },
    {
      "midi": 76,
      "hit": false,
      "t": 173271.55852499904,
      "d": 47.61908333332394,
      "v": 74
    },
    {
      "midi": 60,
      "hit": false,
      "t": 173290.60615833238,
      "d": 28.571449999988545,
      "v": 81
    },
    {
      "midi": 64,
      "hit": false,
      "t": 173290.60615833238,
      "d": 28.571449999988545,
      "v": 65
    },
    {
      "midi": 55,
      "hit": false,
      "t": 173290.60615833238,
      "d": 61.904808333318215,
      "v": 82
    },
    {
      "midi": 67,
      "hit": false,
      "t": 173428.70149999904,
      "d": 109.52389166667126,
      "v": 95
    },
    {
      "midi": 72,
      "hit": false,
      "t": 173428.70149999904,
      "d": 171.42870000001858,
      "v": 80
    },
    {
      "midi": 76,
      "hit": false,
      "t": 173428.70149999904,
      "d": 171.42870000001858,
      "v": 80
    },
    {
      "midi": 52,
      "hit": false,
      "t": 173562.03493333238,
      "d": 38.095266666670796,
      "v": 81
    },
    {
      "midi": 40,
      "hit": false,
      "t": 173581.08256666572,
      "d": 19.047633333335398,
      "v": 83
    },
    {
      "midi": 67,
      "hit": false,
      "t": 173709.65409166572,
      "d": 80.95244166665361,
      "v": 72
    },
    {
      "midi": 49,
      "hit": false,
      "t": 173838.2256166657,
      "d": 71.42862500000047,
      "v": 83
    },
    {
      "midi": 70,
      "hit": false,
      "t": 173838.2256166657,
      "d": 80.95244166665361,
      "v": 80
    },
    {
      "midi": 76,
      "hit": false,
      "t": 173838.2256166657,
      "d": 80.95244166665361,
      "v": 83
    },
    {
      "midi": 67,
      "hit": false,
      "t": 173862.03515833238,
      "d": 28.571449999988545,
      "v": 72
    },
    {
      "midi": 37,
      "hit": false,
      "t": 173862.03515833238,
      "d": 47.61908333332394,
      "v": 82
    },
    {
      "midi": 38,
      "hit": false,
      "t": 174138.2258416657,
      "d": 52.38099166666507,
      "v": 84
    },
    {
      "midi": 50,
      "hit": false,
      "t": 174138.2258416657,
      "d": 52.38099166666507,
      "v": 83
    },
    {
      "midi": 67,
      "hit": false,
      "t": 174138.2258416657,
      "d": 114.28580000001239,
      "v": 86
    },
    {
      "midi": 71,
      "hit": false,
      "t": 174138.2258416657,
      "d": 133.33343333334778,
      "v": 83
    },
    {
      "midi": 76,
      "hit": false,
      "t": 174138.2258416657,
      "d": 133.33343333334778,
      "v": 86
    },
    {
      "midi": 55,
      "hit": false,
      "t": 174409.6546166657,
      "d": 61.90480833334732,
      "v": 80
    },
    {
      "midi": 50,
      "hit": false,
      "t": 174428.70224999904,
      "d": 42.85717500001192,
      "v": 82
    },
    {
      "midi": 74,
      "hit": false,
      "t": 174428.70224999904,
      "d": 80.95244166668272,
      "v": 80
    },
    {
      "midi": 71,
      "hit": false,
      "t": 174581.08331666572,
      "d": 71.42862500000047,
      "v": 95
    },
    {
      "midi": 67,
      "hit": false,
      "t": 174581.08331666572,
      "d": 90.47625833333586,
      "v": 86
    },
    {
      "midi": 38,
      "hit": false,
      "t": 174690.6072083324,
      "d": 47.61908333332394,
      "v": 83
    },
    {
      "midi": 67,
      "hit": false,
      "t": 174862.0359083324,
      "d": 47.61908333332394,
      "v": 80
    },
    {
      "midi": 59,
      "hit": false,
      "t": 174881.08354166572,
      "d": 28.571449999988545,
      "v": 82
    },
    {
      "midi": 54,
      "hit": false,
      "t": 174962.03598333237,
      "d": 76.19053333334159,
      "v": 82
    },
    {
      "midi": 50,
      "hit": false,
      "t": 174962.03598333237,
      "d": 90.47625833333586,
      "v": 82
    },
    {
      "midi": 60,
      "hit": false,
      "t": 174981.0836166657,
      "d": 80.95244166665361,
      "v": 90
    },
    {
      "midi": 69,
      "hit": false,
      "t": 175000.13124999905,
      "d": 52.38099166666507,
      "v": 83
    },
    {
      "midi": 59,
      "hit": false,
      "t": 175290.60765833236,
      "d": 28.571449999988545,
      "v": 83
    },
    {
      "midi": 43,
      "hit": false,
      "t": 175290.60765833236,
      "d": 47.61908333332394,
      "v": 83
    },
    {
      "midi": 50,
      "hit": false,
      "t": 175290.60765833236,
      "d": 47.61908333332394,
      "v": 83
    },
    {
      "midi": 55,
      "hit": false,
      "t": 175290.60765833236,
      "d": 61.904808333318215,
      "v": 82
    },
    {
      "midi": 67,
      "hit": false,
      "t": 175290.60765833236,
      "d": 80.95244166665361,
      "v": 83
    },
    {
      "midi": 67,
      "hit": false,
      "t": 175462.03635833235,
      "d": 66.66671666665934,
      "v": 90
    },
    {
      "midi": 71,
      "hit": false,
      "t": 175600.131699999,
      "d": 80.95244166665361,
      "v": 74
    },
    {
      "midi": 74,
      "hit": false,
      "t": 175728.703224999,
      "d": 42.85717500001192,
      "v": 77
    },
    {
      "midi": 55,
      "hit": false,
      "t": 175900.131924999,
      "d": 52.38099166666507,
      "v": 82
    },
    {
      "midi": 62,
      "hit": false,
      "t": 175900.131924999,
      "d": 52.38099166666507,
      "v": 80
    },
    {
      "midi": 79,
      "hit": false,
      "t": 175900.131924999,
      "d": 61.904808333318215,
      "v": 104
    },
    {
      "midi": 59,
      "hit": false,
      "t": 175909.65574166566,
      "d": 19.047633333335398,
      "v": 83
    },
    {
      "midi": 79,
      "hit": false,
      "t": 176038.22726666566,
      "d": 61.90480833334732,
      "v": 83
    },
    {
      "midi": 83,
      "hit": false,
      "t": 176190.60833333235,
      "d": 38.095266666670796,
      "v": 90
    },
    {
      "midi": 86,
      "hit": false,
      "t": 176319.17985833235,
      "d": 90.47625833333586,
      "v": 90
    },
    {
      "midi": 83,
      "hit": false,
      "t": 176481.0847416657,
      "d": 138.0953416666889,
      "v": 101
    },
    {
      "midi": 79,
      "hit": false,
      "t": 176481.0847416657,
      "d": 157.1429750000243,
      "v": 90
    },
    {
      "midi": 91,
      "hit": false,
      "t": 176481.0847416657,
      "d": 190.47633333335398,
      "v": 107
    },
    {
      "midi": 50,
      "hit": false,
      "t": 176500.13237499903,
      "d": 61.90480833334732,
      "v": 84
    },
    {
      "midi": 62,
      "hit": false,
      "t": 176500.13237499903,
      "d": 61.90480833334732,
      "v": 86
    },
    {
      "midi": 89,
      "hit": false,
      "t": 176619.18008333238,
      "d": 200.00014999997802,
      "v": 77
    },
    {
      "midi": 86,
      "hit": false,
      "t": 176752.5135166657,
      "d": 209.52396666666027,
      "v": 80
    },
    {
      "midi": 65,
      "hit": false,
      "t": 176771.56114999903,
      "d": 28.571449999988545,
      "v": 80
    },
    {
      "midi": 55,
      "hit": false,
      "t": 176771.56114999903,
      "d": 47.61908333332394,
      "v": 81
    },
    {
      "midi": 59,
      "hit": false,
      "t": 176781.0849666657,
      "d": 38.095266666670796,
      "v": 83
    },
    {
      "midi": 83,
      "hit": false,
      "t": 176928.70412499903,
      "d": 133.33343333331868,
      "v": 72
    },
    {
      "midi": 79,
      "hit": false,
      "t": 177081.08519166568,
      "d": 71.42862500000047,
      "v": 80
    },
    {
      "midi": 43,
      "hit": false,
      "t": 177090.60900833234,
      "d": 38.095266666670796,
      "v": 82
    },
    {
      "midi": 77,
      "hit": false,
      "t": 177238.22816666568,
      "d": 95.23816666667699,
      "v": 71
    },
    {
      "midi": 59,
      "hit": false,
      "t": 177352.5139666657,
      "d": 57.14290000000619,
      "v": 82
    },
    {
      "midi": 65,
      "hit": false,
      "t": 177352.5139666657,
      "d": 57.14290000000619,
      "v": 80
    },
    {
      "midi": 55,
      "hit": false,
      "t": 177352.5139666657,
      "d": 76.19053333334159,
      "v": 82
    },
    {
      "midi": 74,
      "hit": false,
      "t": 177352.5139666657,
      "d": 166.66679166664835,
      "v": 77
    },
    {
      "midi": 71,
      "hit": false,
      "t": 177509.6569416657,
      "d": 142.85725000000093,
      "v": 68
    },
    {
      "midi": 48,
      "hit": false,
      "t": 177652.5141916657,
      "d": 47.61908333332394,
      "v": 83
    },
    {
      "midi": 60,
      "hit": false,
      "t": 177652.5141916657,
      "d": 47.61908333332394,
      "v": 82
    },
    {
      "midi": 76,
      "hit": false,
      "t": 177652.5141916657,
      "d": 85.71434999999474,
      "v": 80
    },
    {
      "midi": 72,
      "hit": false,
      "t": 177652.5141916657,
      "d": 119.04770833332441,
      "v": 80
    },
    {
      "midi": 64,
      "hit": false,
      "t": 177928.704874999,
      "d": 42.85717500001192,
      "v": 71
    },
    {
      "midi": 69,
      "hit": false,
      "t": 177928.704874999,
      "d": 61.90480833334732,
      "v": 68
    },
    {
      "midi": 72,
      "hit": false,
      "t": 177928.704874999,
      "d": 61.90480833334732,
      "v": 68
    },
    {
      "midi": 60,
      "hit": false,
      "t": 177952.51441666568,
      "d": 38.095266666670796,
      "v": 82
    },
    {
      "midi": 55,
      "hit": false,
      "t": 177952.51441666568,
      "d": 47.61908333332394,
      "v": 78
    },
    {
      "midi": 67,
      "hit": false,
      "t": 178081.08594166566,
      "d": 180.95251666667173,
      "v": 77
    },
    {
      "midi": 72,
      "hit": false,
      "t": 178100.133574999,
      "d": 180.95251666667173,
      "v": 68
    },
    {
      "midi": 76,
      "hit": false,
      "t": 178100.133574999,
      "d": 200.00015000000712,
      "v": 60
    },
    {
      "midi": 43,
      "hit": false,
      "t": 178228.705099999,
      "d": 71.42862500000047,
      "v": 83
    },
    {
      "midi": 69,
      "hit": false,
      "t": 178390.60998333234,
      "d": 38.095266666670796,
      "v": 80
    },
    {
      "midi": 76,
      "hit": false,
      "t": 178390.60998333234,
      "d": 38.095266666670796,
      "v": 77
    },
    {
      "midi": 72,
      "hit": false,
      "t": 178390.60998333234,
      "d": 61.90480833334732,
      "v": 80
    },
    {
      "midi": 55,
      "hit": false,
      "t": 178509.6576916657,
      "d": 52.38099166666507,
      "v": 82
    },
    {
      "midi": 60,
      "hit": false,
      "t": 178509.6576916657,
      "d": 52.38099166666507,
      "v": 82
    },
    {
      "midi": 64,
      "hit": false,
      "t": 178509.6576916657,
      "d": 52.38099166666507,
      "v": 71
    },
    {
      "midi": 67,
      "hit": false,
      "t": 178509.6576916657,
      "d": 80.95244166665361,
      "v": 83
    },
    {
      "midi": 72,
      "hit": false,
      "t": 178509.6576916657,
      "d": 80.95244166665361,
      "v": 77
    },
    {
      "midi": 76,
      "hit": false,
      "t": 178509.6576916657,
      "d": 90.47625833330676,
      "v": 86
    },
    {
      "midi": 50,
      "hit": false,
      "t": 178819.18173333234,
      "d": 42.85717500001192,
      "v": 83
    },
    {
      "midi": 62,
      "hit": false,
      "t": 178819.18173333234,
      "d": 61.90480833334732,
      "v": 68
    },
    {
      "midi": 71,
      "hit": false,
      "t": 178819.18173333234,
      "d": 61.90480833334732,
      "v": 80
    },
    {
      "midi": 77,
      "hit": false,
      "t": 178819.18173333234,
      "d": 80.95244166668272,
      "v": 80
    },
    {
      "midi": 65,
      "hit": false,
      "t": 179090.61050833235,
      "d": 47.61908333332394,
      "v": 68
    },
    {
      "midi": 55,
      "hit": false,
      "t": 179090.61050833235,
      "d": 71.42862500000047,
      "v": 81
    },
    {
      "midi": 59,
      "hit": false,
      "t": 179109.65814166568,
      "d": 28.571449999988545,
      "v": 82
    },
    {
      "midi": 69,
      "hit": false,
      "t": 179109.65814166568,
      "d": 52.38099166666507,
      "v": 72
    },
    {
      "midi": 77,
      "hit": false,
      "t": 179109.65814166568,
      "d": 52.38099166666507,
      "v": 72
    },
    {
      "midi": 67,
      "hit": false,
      "t": 179262.03920833234,
      "d": 128.57152499997756,
      "v": 83
    },
    {
      "midi": 77,
      "hit": false,
      "t": 179262.03920833234,
      "d": 147.61915833331295,
      "v": 83
    },
    {
      "midi": 43,
      "hit": false,
      "t": 179390.61073333232,
      "d": 47.61908333332394,
      "v": 82
    },
    {
      "midi": 77,
      "hit": false,
      "t": 179538.22989166563,
      "d": 42.85717499998282,
      "v": 72
    },
    {
      "midi": 69,
      "hit": false,
      "t": 179552.51561666562,
      "d": 28.571449999988545,
      "v": 74
    },
    {
      "midi": 65,
      "hit": false,
      "t": 179671.56332499895,
      "d": 38.09526666664169,
      "v": 74
    },
    {
      "midi": 55,
      "hit": false,
      "t": 179671.56332499895,
      "d": 57.14289999997709,
      "v": 82
    },
    {
      "midi": 59,
      "hit": false,
      "t": 179671.56332499895,
      "d": 57.14289999997709,
      "v": 83
    },
    {
      "midi": 77,
      "hit": false,
      "t": 179671.56332499895,
      "d": 100.00007499998901,
      "v": 80
    },
    {
      "midi": 67,
      "hit": false,
      "t": 179681.0871416656,
      "d": 71.42862500000047,
      "v": 86
    },
    {
      "midi": 48,
      "hit": false,
      "t": 179971.56354999894,
      "d": 57.14290000000619,
      "v": 83
    },
    {
      "midi": 60,
      "hit": false,
      "t": 179971.56354999894,
      "d": 80.95244166668272,
      "v": 83
    },
    {
      "midi": 72,
      "hit": false,
      "t": 179971.56354999894,
      "d": 128.57152500000666,
      "v": 77
    },
    {
      "midi": 76,
      "hit": false,
      "t": 179971.56354999894,
      "d": 147.61915833334206,
      "v": 83
    },
    {
      "midi": 69,
      "hit": false,
      "t": 180271.56377499894,
      "d": 80.95244166665361,
      "v": 86
    },
    {
      "midi": 55,
      "hit": false,
      "t": 180281.0875916656,
      "d": 38.095266666670796,
      "v": 82
    },
    {
      "midi": 60,
      "hit": false,
      "t": 180281.0875916656,
      "d": 38.095266666670796,
      "v": 81
    },
    {
      "midi": 64,
      "hit": false,
      "t": 180281.0875916656,
      "d": 38.095266666670796,
      "v": 71
    },
    {
      "midi": 67,
      "hit": false,
      "t": 180409.6591166656,
      "d": 161.90488333333633,
      "v": 86
    },
    {
      "midi": 72,
      "hit": false,
      "t": 180409.6591166656,
      "d": 161.90488333333633,
      "v": 86
    },
    {
      "midi": 76,
      "hit": false,
      "t": 180409.6591166656,
      "d": 161.90488333333633,
      "v": 86
    },
    {
      "midi": 60,
      "hit": false,
      "t": 180571.56399999894,
      "d": 28.571449999988545,
      "v": 80
    },
    {
      "midi": 64,
      "hit": false,
      "t": 180571.56399999894,
      "d": 28.571449999988545,
      "v": 74
    },
    {
      "midi": 55,
      "hit": false,
      "t": 180571.56399999894,
      "d": 57.14289999997709,
      "v": 82
    },
    {
      "midi": 67,
      "hit": false,
      "t": 180862.04040833225,
      "d": 57.14289999997709,
      "v": 95
    },
    {
      "midi": 71,
      "hit": false,
      "t": 180862.04040833225,
      "d": 76.19053333331249,
      "v": 90
    },
    {
      "midi": 74,
      "hit": false,
      "t": 180862.04040833225,
      "d": 76.19053333331249,
      "v": 90
    },
    {
      "midi": 79,
      "hit": false,
      "t": 180862.04040833225,
      "d": 100.00007499998901,
      "v": 95
    },
    {
      "midi": 43,
      "hit": false,
      "t": 180881.0880416656,
      "d": 19.047633333335398,
      "v": 84
    },
    {
      "midi": 55,
      "hit": false,
      "t": 180881.0880416656,
      "d": 28.571449999988545,
      "v": 84
    },
    {
      "midi": 72,
      "hit": false,
      "t": 181162.04063333225,
      "d": 90.47625833333586,
      "v": 74
    },
    {
      "midi": 48,
      "hit": false,
      "t": 181181.08826666558,
      "d": 47.61908333332394,
      "v": 82
    },
    {
      "midi": 60,
      "hit": false,
      "t": 181181.08826666558,
      "d": 47.61908333332394,
      "v": 82
    },
    {
      "midi": 76,
      "hit": false,
      "t": 181309.6597916656,
      "d": 52.38099166666507,
      "v": 77
    },
    {
      "midi": 79,
      "hit": false,
      "t": 181471.56467499892,
      "d": 57.14290000000619,
      "v": 77
    },
    {
      "midi": 55,
      "hit": false,
      "t": 181490.61230833226,
      "d": 38.095266666670796,
      "v": 82
    },
    {
      "midi": 60,
      "hit": false,
      "t": 181490.61230833226,
      "d": 38.095266666670796,
      "v": 80
    },
    {
      "midi": 64,
      "hit": false,
      "t": 181490.61230833226,
      "d": 38.095266666670796,
      "v": 68
    },
    {
      "midi": 84,
      "hit": false,
      "t": 181638.2314666656,
      "d": 52.38099166666507,
      "v": 77
    },
    {
      "midi": 58,
      "hit": false,
      "t": 181781.0887166656,
      "d": 57.14290000000619,
      "v": 82
    },
    {
      "midi": 72,
      "hit": false,
      "t": 181781.0887166656,
      "d": 80.95244166668272,
      "v": 72
    },
    {
      "midi": 46,
      "hit": false,
      "t": 181800.13634999894,
      "d": 19.047633333335398,
      "v": 80
    },
    {
      "midi": 76,
      "hit": false,
      "t": 181928.70787499895,
      "d": 71.42862500000047,
      "v": 72
    },
    {
      "midi": 79,
      "hit": false,
      "t": 182071.56512499895,
      "d": 80.95244166668272,
      "v": 80
    },
    {
      "midi": 60,
      "hit": false,
      "t": 182090.61275833228,
      "d": 38.095266666670796,
      "v": 80
    },
    {
      "midi": 64,
      "hit": false,
      "t": 182090.61275833228,
      "d": 38.095266666670796,
      "v": 66
    },
    {
      "midi": 55,
      "hit": false,
      "t": 182090.61275833228,
      "d": 61.90480833334732,
      "v": 79
    },
    {
      "midi": 58,
      "hit": false,
      "t": 182090.61275833228,
      "d": 61.90480833334732,
      "v": 81
    },
    {
      "midi": 84,
      "hit": false,
      "t": 182238.23191666562,
      "d": 61.90480833334732,
      "v": 80
    },
    {
      "midi": 72,
      "hit": false,
      "t": 182381.08916666562,
      "d": 71.42862500000047,
      "v": 77
    },
    {
      "midi": 45,
      "hit": false,
      "t": 182400.13679999896,
      "d": 28.571449999988545,
      "v": 84
    },
    {
      "midi": 57,
      "hit": false,
      "t": 182400.13679999896,
      "d": 28.571449999988545,
      "v": 82
    },
    {
      "midi": 77,
      "hit": false,
      "t": 182519.18450833228,
      "d": 80.95244166665361,
      "v": 80
    },
    {
      "midi": 84,
      "hit": false,
      "t": 182671.56557499894,
      "d": 90.47625833333586,
      "v": 95
    },
    {
      "midi": 65,
      "hit": false,
      "t": 182690.61320833227,
      "d": 28.571449999988545,
      "v": 71
    },
    {
      "midi": 57,
      "hit": false,
      "t": 182690.61320833227,
      "d": 47.61908333332394,
      "v": 82
    },
    {
      "midi": 60,
      "hit": false,
      "t": 182690.61320833227,
      "d": 47.61908333332394,
      "v": 81
    },
    {
      "midi": 77,
      "hit": false,
      "t": 182828.70854999893,
      "d": 61.90480833334732,
      "v": 80
    },
    {
      "midi": 44,
      "hit": false,
      "t": 182981.08961666562,
      "d": 38.095266666670796,
      "v": 82
    },
    {
      "midi": 56,
      "hit": false,
      "t": 182981.08961666562,
      "d": 47.61908333332394,
      "v": 82
    },
    {
      "midi": 72,
      "hit": false,
      "t": 182981.08961666562,
      "d": 90.47625833333586,
      "v": 77
    },
    {
      "midi": 84,
      "hit": false,
      "t": 183128.70877499896,
      "d": 242.85732500001905,
      "v": 90
    },
    {
      "midi": 65,
      "hit": false,
      "t": 183262.0422083323,
      "d": 57.14290000000619,
      "v": 72
    },
    {
      "midi": 56,
      "hit": false,
      "t": 183262.0422083323,
      "d": 76.19053333334159,
      "v": 80
    },
    {
      "midi": 60,
      "hit": false,
      "t": 183262.0422083323,
      "d": 76.19053333334159,
      "v": 82
    },
    {
      "midi": 78,
      "hit": false,
      "t": 183409.66136666565,
      "d": 71.42862500000047,
      "v": 72
    },
    {
      "midi": 43,
      "hit": false,
      "t": 183538.23289166566,
      "d": 61.90480833334732,
      "v": 83
    },
    {
      "midi": 55,
      "hit": false,
      "t": 183538.23289166566,
      "d": 80.95244166668272,
      "v": 82
    },
    {
      "midi": 79,
      "hit": false,
      "t": 183562.04243333233,
      "d": 176.1906083333306,
      "v": 95
    },
    {
      "midi": 67,
      "hit": false,
      "t": 183719.18540833233,
      "d": 171.42869999998948,
      "v": 74
    },
    {
      "midi": 55,
      "hit": false,
      "t": 183828.709299999,
      "d": 90.47625833330676,
      "v": 82
    },
    {
      "midi": 64,
      "hit": false,
      "t": 183852.51884166567,
      "d": 57.14289999997709,
      "v": 65
    },
    {
      "midi": 60,
      "hit": false,
      "t": 183852.51884166567,
      "d": 66.66671666663024,
      "v": 81
    },
    {
      "midi": 76,
      "hit": false,
      "t": 183862.04265833233,
      "d": 166.66679166661925,
      "v": 80
    },
    {
      "midi": 74,
      "hit": false,
      "t": 184000.13799999896,
      "d": 109.52389166664216,
      "v": 69
    },
    {
      "midi": 72,
      "hit": false,
      "t": 184138.2333416656,
      "d": 80.95244166668272,
      "v": 80
    },
    {
      "midi": 45,
      "hit": false,
      "t": 184162.04288333227,
      "d": 38.095266666670796,
      "v": 90
    },
    {
      "midi": 57,
      "hit": false,
      "t": 184162.04288333227,
      "d": 38.095266666670796,
      "v": 84
    },
    {
      "midi": 66,
      "hit": false,
      "t": 184162.04288333227,
      "d": 57.14290000000619,
      "v": 74
    },
    {
      "midi": 43,
      "hit": false,
      "t": 184452.5192916656,
      "d": 57.14290000000619,
      "v": 84
    },
    {
      "midi": 55,
      "hit": false,
      "t": 184452.5192916656,
      "d": 76.19053333334159,
      "v": 82
    },
    {
      "midi": 65,
      "hit": false,
      "t": 184452.5192916656,
      "d": 76.19053333334159,
      "v": 80
    },
    {
      "midi": 71,
      "hit": false,
      "t": 184452.5192916656,
      "d": 76.19053333334159,
      "v": 72
    },
    {
      "midi": 74,
      "hit": false,
      "t": 184452.5192916656,
      "d": 76.19053333334159,
      "v": 74
    },
    {
      "midi": 48,
      "hit": false,
      "t": 184790.61478333228,
      "d": 61.90480833334732,
      "v": 82
    },
    {
      "midi": 60,
      "hit": false,
      "t": 184790.61478333228,
      "d": 61.90480833334732,
      "v": 82
    },
    {
      "midi": 67,
      "hit": false,
      "t": 184790.61478333228,
      "d": 61.90480833334732,
      "v": 90
    },
    {
      "midi": 64,
      "hit": false,
      "t": 184790.61478333228,
      "d": 80.95244166668272,
      "v": 83
    },
    {
      "midi": 72,
      "hit": false,
      "t": 184790.61478333228,
      "d": 80.95244166668272,
      "v": 86
    },
    {
      "midi": 55,
      "hit": false,
      "t": 185028.71019999895,
      "d": 61.90480833334732,
      "v": 82
    },
    {
      "midi": 60,
      "hit": false,
      "t": 185171.56744999895,
      "d": 166.66679166667745,
      "v": 82
    },
    {
      "midi": 55,
      "hit": false,
      "t": 185190.6150833323,
      "d": 128.57152500000666,
      "v": 82
    },
    {
      "midi": 64,
      "hit": false,
      "t": 185352.51996666563,
      "d": 57.14290000000619,
      "v": 74
    },
    {
      "midi": 52,
      "hit": false,
      "t": 185371.56759999896,
      "d": 147.61915833334206,
      "v": 82
    },
    {
      "midi": 48,
      "hit": false,
      "t": 185519.1867583323,
      "d": 71.42862500000047,
      "v": 84
    },
    {
      "midi": 67,
      "hit": false,
      "t": 185538.23439166564,
      "d": 133.33343333331868,
      "v": 80
    },
    {
      "midi": 72,
      "hit": false,
      "t": 185719.18690833228,
      "d": 190.47633333335398,
      "v": 80
    },
    {
      "midi": 43,
      "hit": false,
      "t": 185738.23454166562,
      "d": 61.90480833334732,
      "v": 82
    },
    {
      "midi": 76,
      "hit": false,
      "t": 185909.66324166564,
      "d": 61.90480833334732,
      "v": 80
    },
    {
      "midi": 40,
      "hit": false,
      "t": 185928.71087499897,
      "d": 123.80961666666553,
      "v": 82
    },
    {
      "midi": 79,
      "hit": false,
      "t": 186090.6157583323,
      "d": 100.00007499998901,
      "v": 101
    },
    {
      "midi": 38,
      "hit": false,
      "t": 186119.1872083323,
      "d": 171.42869999998948,
      "v": 84
    },
    {
      "midi": 36,
      "hit": false,
      "t": 186328.71117499896,
      "d": 80.95244166668272,
      "v": 101
    },
    {
      "midi": 84,
      "hit": false,
      "t": 186352.52071666563,
      "d": 428.5717500000028,
      "v": 90
    },
    {
      "midi": 88,
      "hit": false,
      "t": 186538.23514166565,
      "d": 242.85732499998994,
      "v": 83
    },
    {
      "midi": 55,
      "hit": false,
      "t": 186738.23529166565,
      "d": 42.85717499998282,
      "v": 82
    },
    {
      "midi": 91,
      "hit": false,
      "t": 186738.23529166565,
      "d": 171.42869999998948,
      "v": 101
    },
    {
      "midi": 64,
      "hit": false,
      "t": 186752.52101666565,
      "d": 28.571449999988545,
      "v": 71
    },
    {
      "midi": 60,
      "hit": false,
      "t": 186762.0448333323,
      "d": 19.047633333335398,
      "v": 82
    },
    {
      "midi": 96,
      "hit": false,
      "t": 186928.71162499898,
      "d": 300.00022500002524,
      "v": 101
    },
    {
      "midi": 84,
      "hit": false,
      "t": 187128.71177499898,
      "d": 223.80969166668365,
      "v": 95
    },
    {
      "midi": 34,
      "hit": false,
      "t": 187152.52131666566,
      "d": 38.095266666670796,
      "v": 83
    },
    {
      "midi": 46,
      "hit": false,
      "t": 187152.52131666566,
      "d": 57.14290000000619,
      "v": 83
    },
    {
      "midi": 88,
      "hit": false,
      "t": 187328.711924999,
      "d": 200.00015000000712,
      "v": 80
    },
    {
      "midi": 64,
      "hit": false,
      "t": 187509.66444166566,
      "d": 42.85717500001192,
      "v": 80
    },
    {
      "midi": 55,
      "hit": false,
      "t": 187509.66444166566,
      "d": 61.90480833334732,
      "v": 82
    },
    {
      "midi": 58,
      "hit": false,
      "t": 187528.712074999,
      "d": 23.809541666676523,
      "v": 81
    },
    {
      "midi": 60,
      "hit": false,
      "t": 187528.712074999,
      "d": 23.809541666676523,
      "v": 81
    },
    {
      "midi": 91,
      "hit": false,
      "t": 187528.712074999,
      "d": 71.42862500000047,
      "v": 101
    },
    {
      "midi": 96,
      "hit": false,
      "t": 187709.66459166564,
      "d": 80.95244166665361,
      "v": 90
    },
    {
      "midi": 33,
      "hit": false,
      "t": 187890.61710833228,
      "d": 71.42862500000047,
      "v": 90
    },
    {
      "midi": 45,
      "hit": false,
      "t": 187909.66474166562,
      "d": 52.38099166666507,
      "v": 83
    },
    {
      "midi": 84,
      "hit": false,
      "t": 187909.66474166562,
      "d": 90.47625833333586,
      "v": 80
    },
    {
      "midi": 89,
      "hit": false,
      "t": 188081.0934416656,
      "d": 128.57152500000666,
      "v": 90
    },
    {
      "midi": 65,
      "hit": false,
      "t": 188262.04595833228,
      "d": 38.095266666670796,
      "v": 77
    },
    {
      "midi": 60,
      "hit": false,
      "t": 188262.04595833228,
      "d": 57.14290000000619,
      "v": 82
    },
    {
      "midi": 57,
      "hit": false,
      "t": 188281.09359166562,
      "d": 57.14290000000619,
      "v": 84
    },
    {
      "midi": 96,
      "hit": false,
      "t": 188281.09359166562,
      "d": 100.00007500001811,
      "v": 101
    },
    {
      "midi": 89,
      "hit": false,
      "t": 188452.52229166563,
      "d": 76.19053333334159,
      "v": 86
    },
    {
      "midi": 32,
      "hit": false,
      "t": 188638.23671666565,
      "d": 61.90480833334732,
      "v": 83
    },
    {
      "midi": 44,
      "hit": false,
      "t": 188638.23671666565,
      "d": 61.90480833334732,
      "v": 82
    },
    {
      "midi": 84,
      "hit": false,
      "t": 188638.23671666565,
      "d": 114.28580000001239,
      "v": 80
    },
    {
      "midi": 96,
      "hit": false,
      "t": 188828.713049999,
      "d": 323.80976666667266,
      "v": 101
    },
    {
      "midi": 65,
      "hit": false,
      "t": 189009.66556666567,
      "d": 42.85717500001192,
      "v": 80
    },
    {
      "midi": 56,
      "hit": false,
      "t": 189009.66556666567,
      "d": 61.90480833334732,
      "v": 81
    },
    {
      "midi": 60,
      "hit": false,
      "t": 189028.713199999,
      "d": 42.85717500001192,
      "v": 82
    },
    {
      "midi": 90,
      "hit": false,
      "t": 189209.66571666568,
      "d": 80.95244166665361,
      "v": 72
    },
    {
      "midi": 91,
      "hit": false,
      "t": 189390.61823333232,
      "d": 209.52396666666027,
      "v": 101
    },
    {
      "midi": 31,
      "hit": false,
      "t": 189409.66586666566,
      "d": 61.904808333318215,
      "v": 90
    },
    {
      "midi": 79,
      "hit": false,
      "t": 189581.09456666565,
      "d": 138.0953416666598,
      "v": 77
    },
    {
      "midi": 88,
      "hit": false,
      "t": 189771.57089999897,
      "d": 228.57159999996657,
      "v": 86
    },
    {
      "midi": 60,
      "hit": false,
      "t": 189790.6185333323,
      "d": 28.571449999988545,
      "v": 82
    },
    {
      "midi": 64,
      "hit": false,
      "t": 189790.6185333323,
      "d": 28.571449999988545,
      "v": 68
    },
    {
      "midi": 55,
      "hit": false,
      "t": 189790.6185333323,
      "d": 61.904808333318215,
      "v": 82
    },
    {
      "midi": 86,
      "hit": false,
      "t": 189971.57104999895,
      "d": 200.00014999997802,
      "v": 77
    },
    {
      "midi": 84,
      "hit": false,
      "t": 190152.5235666656,
      "d": 85.71434999999474,
      "v": 86
    },
    {
      "midi": 45,
      "hit": false,
      "t": 190171.57119999893,
      "d": 38.095266666670796,
      "v": 86
    },
    {
      "midi": 33,
      "hit": false,
      "t": 190171.57119999893,
      "d": 66.66671666665934,
      "v": 101
    },
    {
      "midi": 78,
      "hit": false,
      "t": 190352.5237166656,
      "d": 85.71434999999474,
      "v": 71
    },
    {
      "midi": 31,
      "hit": false,
      "t": 190571.57149999894,
      "d": 47.61908333332394,
      "v": 84
    },
    {
      "midi": 43,
      "hit": false,
      "t": 190571.57149999894,
      "d": 47.61908333332394,
      "v": 83
    },
    {
      "midi": 77,
      "hit": false,
      "t": 190571.57149999894,
      "d": 80.95244166665361,
      "v": 83
    },
    {
      "midi": 86,
      "hit": false,
      "t": 190571.57149999894,
      "d": 119.04770833332441,
      "v": 77
    },
    {
      "midi": 83,
      "hit": false,
      "t": 190762.04783333227,
      "d": 90.47625833333586,
      "v": 80
    },
    {
      "midi": 36,
      "hit": false,
      "t": 191009.6670666656,
      "d": 71.42862500000047,
      "v": 84
    },
    {
      "midi": 48,
      "hit": false,
      "t": 191009.6670666656,
      "d": 71.42862500000047,
      "v": 83
    },
    {
      "midi": 76,
      "hit": false,
      "t": 191009.6670666656,
      "d": 71.42862500000047,
      "v": 80
    },
    {
      "midi": 79,
      "hit": false,
      "t": 191009.6670666656,
      "d": 71.42862500000047,
      "v": 90
    },
    {
      "midi": 84,
      "hit": false,
      "t": 191009.6670666656,
      "d": 109.52389166667126,
      "v": 95
    },
    {
      "midi": 84,
      "hit": false,
      "t": 191262.04820833227,
      "d": 76.19053333334159,
      "v": 80
    },
    {
      "midi": 43,
      "hit": false,
      "t": 191471.57217499896,
      "d": 57.14290000000619,
      "v": 84
    },
    {
      "midi": 88,
      "hit": false,
      "t": 191471.57217499896,
      "d": 80.95244166668272,
      "v": 101
    },
    {
      "midi": 40,
      "hit": false,
      "t": 191700.143774999,
      "d": 71.42862500000047,
      "v": 84
    },
    {
      "midi": 91,
      "hit": false,
      "t": 191700.143774999,
      "d": 71.42862500000047,
      "v": 95
    },
    {
      "midi": 36,
      "hit": false,
      "t": 192009.66781666566,
      "d": 61.90480833334732,
      "v": 84
    },
    {
      "midi": 84,
      "hit": false,
      "t": 192009.66781666566,
      "d": 80.95244166668272,
      "v": 83
    },
    {
      "midi": 88,
      "hit": false,
      "t": 192009.66781666566,
      "d": 80.95244166668272,
      "v": 90
    },
    {
      "midi": 91,
      "hit": false,
      "t": 192009.66781666566,
      "d": 80.95244166668272,
      "v": 95
    },
    {
      "midi": 96,
      "hit": false,
      "t": 192009.66781666566,
      "d": 80.95244166668272,
      "v": 104
    }
  ]
}