{
  "jsonPath": "Classical/Classical/Wolfgang Amadeus Mozart/das-lied-der-trennung.json",
  "path": "Classical\\Classical\\Wolfgang Amadeus Mozart\\Das Lied der Trennung.mid",
  "name": "Das Lied der Trennung",
  "difficulty": "Advanced",
  "bpm": 56.000029866682596,
  "notes": [
    {
      "midi": 41,
      "hit": false,
      "t": 535.714,
      "d": 535.714,
      "v": 127
    },
    {
      "midi": 53,
      "hit": false,
      "t": 535.714,
      "d": 535.714,
      "v": 127
    },
    {
      "midi": 56,
      "hit": false,
      "t": 803.571,
      "d": 267.8570000000001,
      "v": 127
    },
    {
      "midi": 60,
      "hit": false,
      "t": 803.571,
      "d": 267.8570000000001,
      "v": 127
    },
    {
      "midi": 65,
      "hit": false,
      "t": 1071.428,
      "d": 267.85699999999997,
      "v": 127
    },
    {
      "midi": 60,
      "hit": false,
      "t": 1339.285,
      "d": 267.85699999999997,
      "v": 127
    },
    {
      "midi": 41,
      "hit": false,
      "t": 1607.1420000000003,
      "d": 535.7139999999999,
      "v": 127
    },
    {
      "midi": 53,
      "hit": false,
      "t": 1607.1420000000003,
      "d": 535.7139999999999,
      "v": 127
    },
    {
      "midi": 55,
      "hit": false,
      "t": 1874.999,
      "d": 267.8570000000002,
      "v": 127
    },
    {
      "midi": 58,
      "hit": false,
      "t": 1874.999,
      "d": 267.8570000000002,
      "v": 127
    },
    {
      "midi": 64,
      "hit": false,
      "t": 2142.856,
      "d": 267.85699999999997,
      "v": 127
    },
    {
      "midi": 58,
      "hit": false,
      "t": 2410.713,
      "d": 267.85699999999997,
      "v": 127
    },
    {
      "midi": 41,
      "hit": false,
      "t": 2678.57,
      "d": 535.7139999999999,
      "v": 127
    },
    {
      "midi": 53,
      "hit": false,
      "t": 2678.57,
      "d": 535.7139999999999,
      "v": 127
    },
    {
      "midi": 56,
      "hit": false,
      "t": 2946.427,
      "d": 267.85699999999997,
      "v": 127
    },
    {
      "midi": 60,
      "hit": false,
      "t": 2946.427,
      "d": 267.85699999999997,
      "v": 127
    },
    {
      "midi": 65,
      "hit": false,
      "t": 3214.284,
      "d": 267.85699999999997,
      "v": 127
    },
    {
      "midi": 60,
      "hit": false,
      "t": 3482.141,
      "d": 267.85699999999997,
      "v": 127
    },
    {
      "midi": 41,
      "hit": false,
      "t": 3749.998,
      "d": 535.7140000000004,
      "v": 127
    },
    {
      "midi": 53,
      "hit": false,
      "t": 3749.998,
      "d": 535.7140000000004,
      "v": 127
    },
    {
      "midi": 56,
      "hit": false,
      "t": 4017.855,
      "d": 267.8570000000004,
      "v": 127
    },
    {
      "midi": 60,
      "hit": false,
      "t": 4017.855,
      "d": 267.8570000000004,
      "v": 127
    },
    {
      "midi": 65,
      "hit": false,
      "t": 4285.712,
      "d": 267.85699999999997,
      "v": 127
    },
    {
      "midi": 60,
      "hit": false,
      "t": 4553.569,
      "d": 267.85699999999997,
      "v": 127
    },
    {
      "midi": 41,
      "hit": false,
      "t": 4821.426,
      "d": 535.7139999999999,
      "v": 127
    },
    {
      "midi": 53,
      "hit": false,
      "t": 4821.426,
      "d": 535.7139999999999,
      "v": 127
    },
    {
      "midi": 56,
      "hit": false,
      "t": 5089.283,
      "d": 267.85699999999997,
      "v": 127
    },
    {
      "midi": 60,
      "hit": false,
      "t": 5089.283,
      "d": 267.85699999999997,
      "v": 127
    },
    {
      "midi": 65,
      "hit": false,
      "t": 5357.14,
      "d": 267.85699999999997,
      "v": 127
    },
    {
      "midi": 60,
      "hit": false,
      "t": 5624.997,
      "d": 267.85699999999997,
      "v": 127
    },
    {
      "midi": 41,
      "hit": false,
      "t": 5892.854,
      "d": 535.7139999999999,
      "v": 127
    },
    {
      "midi": 53,
      "hit": false,
      "t": 5892.854,
      "d": 535.7139999999999,
      "v": 127
    },
    {
      "midi": 57,
      "hit": false,
      "t": 6160.711,
      "d": 267.85699999999997,
      "v": 127
    },
    {
      "midi": 60,
      "hit": false,
      "t": 6160.711,
      "d": 267.85699999999997,
      "v": 127
    },
    {
      "midi": 65,
      "hit": false,
      "t": 6428.568,
      "d": 267.85699999999997,
      "v": 127
    },
    {
      "midi": 60,
      "hit": false,
      "t": 6696.425,
      "d": 267.85699999999997,
      "v": 127
    },
    {
      "midi": 41,
      "hit": false,
      "t": 6964.282,
      "d": 535.7139999999999,
      "v": 127
    },
    {
      "midi": 53,
      "hit": false,
      "t": 6964.282,
      "d": 535.7139999999999,
      "v": 127
    },
    {
      "midi": 58,
      "hit": false,
      "t": 7232.139,
      "d": 267.85699999999997,
      "v": 127
    },
    {
      "midi": 61,
      "hit": false,
      "t": 7232.139,
      "d": 267.85699999999997,
      "v": 127
    },
    {
      "midi": 65,
      "hit": false,
      "t": 7499.996,
      "d": 267.85699999999997,
      "v": 127
    },
    {
      "midi": 61,
      "hit": false,
      "t": 7767.853,
      "d": 267.85699999999997,
      "v": 127
    },
    {
      "midi": 41,
      "hit": false,
      "t": 8035.71,
      "d": 535.7140000000009,
      "v": 127
    },
    {
      "midi": 53,
      "hit": false,
      "t": 8035.71,
      "d": 535.7140000000009,
      "v": 127
    },
    {
      "midi": 56,
      "hit": false,
      "t": 8303.567000000001,
      "d": 267.85699999999997,
      "v": 127
    },
    {
      "midi": 60,
      "hit": false,
      "t": 8303.567000000001,
      "d": 267.85699999999997,
      "v": 127
    },
    {
      "midi": 65,
      "hit": false,
      "t": 8571.424,
      "d": 267.85699999999997,
      "v": 127
    },
    {
      "midi": 60,
      "hit": false,
      "t": 8839.281,
      "d": 267.85699999999997,
      "v": 127
    },
    {
      "midi": 37,
      "hit": false,
      "t": 9107.138,
      "d": 1071.4279999999999,
      "v": 127
    },
    {
      "midi": 49,
      "hit": false,
      "t": 9107.138,
      "d": 1071.4279999999999,
      "v": 127
    },
    {
      "midi": 53,
      "hit": false,
      "t": 9374.995,
      "d": 267.85699999999997,
      "v": 127
    },
    {
      "midi": 58,
      "hit": false,
      "t": 9374.995,
      "d": 267.85699999999997,
      "v": 127
    },
    {
      "midi": 65,
      "hit": false,
      "t": 9642.852,
      "d": 267.85699999999997,
      "v": 127
    },
    {
      "midi": 58,
      "hit": false,
      "t": 9910.709,
      "d": 267.85699999999997,
      "v": 127
    },
    {
      "midi": 36,
      "hit": false,
      "t": 10178.566,
      "d": 535.7139999999999,
      "v": 127
    },
    {
      "midi": 48,
      "hit": false,
      "t": 10178.566,
      "d": 535.7139999999999,
      "v": 127
    },
    {
      "midi": 56,
      "hit": false,
      "t": 10446.423,
      "d": 267.85699999999997,
      "v": 127
    },
    {
      "midi": 60,
      "hit": false,
      "t": 10446.423,
      "d": 267.85699999999997,
      "v": 127
    },
    {
      "midi": 65,
      "hit": false,
      "t": 10714.28,
      "d": 267.85699999999997,
      "v": 127
    },
    {
      "midi": 60,
      "hit": false,
      "t": 10982.137,
      "d": 267.85699999999997,
      "v": 127
    },
    {
      "midi": 35,
      "hit": false,
      "t": 11249.994,
      "d": 1071.4279999999999,
      "v": 127
    },
    {
      "midi": 47,
      "hit": false,
      "t": 11249.994,
      "d": 1071.4279999999999,
      "v": 127
    },
    {
      "midi": 55,
      "hit": false,
      "t": 11517.851,
      "d": 267.85699999999997,
      "v": 127
    },
    {
      "midi": 62,
      "hit": false,
      "t": 11517.851,
      "d": 267.85699999999997,
      "v": 127
    },
    {
      "midi": 65,
      "hit": false,
      "t": 11785.708,
      "d": 267.85699999999997,
      "v": 127
    },
    {
      "midi": 62,
      "hit": false,
      "t": 12053.565,
      "d": 267.85699999999997,
      "v": 127
    },
    {
      "midi": 34,
      "hit": false,
      "t": 12321.422,
      "d": 535.7139999999999,
      "v": 127
    },
    {
      "midi": 46,
      "hit": false,
      "t": 12321.422,
      "d": 535.7139999999999,
      "v": 127
    },
    {
      "midi": 55,
      "hit": false,
      "t": 12589.279,
      "d": 267.85699999999997,
      "v": 127
    },
    {
      "midi": 61,
      "hit": false,
      "t": 12589.279,
      "d": 267.85699999999997,
      "v": 127
    },
    {
      "midi": 64,
      "hit": false,
      "t": 12857.136,
      "d": 267.85699999999997,
      "v": 127
    },
    {
      "midi": 61,
      "hit": false,
      "t": 13124.993,
      "d": 267.85699999999997,
      "v": 127
    },
    {
      "midi": 32,
      "hit": false,
      "t": 13392.85,
      "d": 535.7139999999999,
      "v": 127
    },
    {
      "midi": 44,
      "hit": false,
      "t": 13392.85,
      "d": 535.7139999999999,
      "v": 127
    },
    {
      "midi": 60,
      "hit": false,
      "t": 13660.707,
      "d": 267.85699999999997,
      "v": 127
    },
    {
      "midi": 65,
      "hit": false,
      "t": 13660.707,
      "d": 267.85699999999997,
      "v": 127
    },
    {
      "midi": 56,
      "hit": false,
      "t": 13928.564,
      "d": 535.7139999999999,
      "v": 127
    },
    {
      "midi": 60,
      "hit": false,
      "t": 14196.421,
      "d": 267.85699999999997,
      "v": 127
    },
    {
      "midi": 65,
      "hit": false,
      "t": 14196.421,
      "d": 267.85699999999997,
      "v": 127
    },
    {
      "midi": 55,
      "hit": false,
      "t": 14464.278,
      "d": 535.7139999999999,
      "v": 127
    },
    {
      "midi": 60,
      "hit": false,
      "t": 14732.135,
      "d": 267.85699999999997,
      "v": 127
    },
    {
      "midi": 64,
      "hit": false,
      "t": 14732.135,
      "d": 267.85699999999997,
      "v": 127
    },
    {
      "midi": 53,
      "hit": false,
      "t": 14999.992,
      "d": 535.7139999999999,
      "v": 127
    },
    {
      "midi": 60,
      "hit": false,
      "t": 15267.849,
      "d": 267.85699999999997,
      "v": 127
    },
    {
      "midi": 65,
      "hit": false,
      "t": 15267.849,
      "d": 267.85699999999997,
      "v": 127
    },
    {
      "midi": 68,
      "hit": false,
      "t": 15535.706,
      "d": 535.7139999999999,
      "v": 127
    },
    {
      "midi": 36,
      "hit": false,
      "t": 15535.706,
      "d": 1071.4280000000017,
      "v": 127
    },
    {
      "midi": 48,
      "hit": false,
      "t": 15535.706,
      "d": 1071.4280000000017,
      "v": 127
    },
    {
      "midi": 64,
      "hit": false,
      "t": 16071.42,
      "d": 1071.4280000000017,
      "v": 127
    },
    {
      "midi": 67,
      "hit": false,
      "t": 16071.42,
      "d": 1071.4280000000017,
      "v": 127
    },
    {
      "midi": 72,
      "hit": false,
      "t": 17142.848,
      "d": 535.7139999999999,
      "v": 127
    },
    {
      "midi": 71,
      "hit": false,
      "t": 17678.562,
      "d": 535.7139999999999,
      "v": 127
    },
    {
      "midi": 65,
      "hit": false,
      "t": 17678.562,
      "d": 1071.4279999999999,
      "v": 127
    },
    {
      "midi": 68,
      "hit": false,
      "t": 17678.562,
      "d": 1071.4279999999999,
      "v": 127
    },
    {
      "midi": 72,
      "hit": false,
      "t": 18214.276,
      "d": 535.7139999999999,
      "v": 127
    },
    {
      "midi": 73,
      "hit": false,
      "t": 18749.99,
      "d": 535.7139999999999,
      "v": 127
    },
    {
      "midi": 64,
      "hit": false,
      "t": 18749.99,
      "d": 535.7139999999999,
      "v": 127
    },
    {
      "midi": 67,
      "hit": false,
      "t": 18749.99,
      "d": 535.7139999999999,
      "v": 127
    },
    {
      "midi": 60,
      "hit": false,
      "t": 19285.704,
      "d": 535.7139999999999,
      "v": 127
    },
    {
      "midi": 67,
      "hit": false,
      "t": 19285.704,
      "d": 535.7139999999999,
      "v": 127
    },
    {
      "midi": 70,
      "hit": false,
      "t": 19285.704,
      "d": 535.7139999999999,
      "v": 127
    },
    {
      "midi": 40,
      "hit": false,
      "t": 19285.704,
      "d": 535.7139999999999,
      "v": 127
    },
    {
      "midi": 52,
      "hit": false,
      "t": 19285.704,
      "d": 535.7139999999999,
      "v": 127
    },
    {
      "midi": 60,
      "hit": false,
      "t": 19821.418,
      "d": 535.7139999999999,
      "v": 127
    },
    {
      "midi": 65,
      "hit": false,
      "t": 19821.418,
      "d": 535.7139999999999,
      "v": 127
    },
    {
      "midi": 68,
      "hit": false,
      "t": 19821.418,
      "d": 535.7139999999999,
      "v": 127
    },
    {
      "midi": 41,
      "hit": false,
      "t": 19821.418,
      "d": 535.7139999999999,
      "v": 127
    },
    {
      "midi": 53,
      "hit": false,
      "t": 19821.418,
      "d": 535.7139999999999,
      "v": 127
    },
    {
      "midi": 60,
      "hit": false,
      "t": 20357.132,
      "d": 1071.4279999999999,
      "v": 127
    },
    {
      "midi": 64,
      "hit": false,
      "t": 20357.132,
      "d": 1071.4279999999999,
      "v": 127
    },
    {
      "midi": 67,
      "hit": false,
      "t": 20357.132,
      "d": 1071.4279999999999,
      "v": 127
    },
    {
      "midi": 36,
      "hit": false,
      "t": 20357.132,
      "d": 1071.4279999999999,
      "v": 127
    },
    {
      "midi": 48,
      "hit": false,
      "t": 20357.132,
      "d": 1071.4279999999999,
      "v": 127
    },
    {
      "midi": 72,
      "hit": false,
      "t": 21428.56,
      "d": 535.7139999999999,
      "v": 127
    },
    {
      "midi": 71,
      "hit": false,
      "t": 21964.274,
      "d": 535.7139999999999,
      "v": 127
    },
    {
      "midi": 65,
      "hit": false,
      "t": 21964.274,
      "d": 1071.4279999999999,
      "v": 127
    },
    {
      "midi": 68,
      "hit": false,
      "t": 21964.274,
      "d": 1071.4279999999999,
      "v": 127
    },
    {
      "midi": 72,
      "hit": false,
      "t": 22499.988,
      "d": 535.7139999999999,
      "v": 127
    },
    {
      "midi": 73,
      "hit": false,
      "t": 23035.702,
      "d": 535.7139999999999,
      "v": 127
    },
    {
      "midi": 64,
      "hit": false,
      "t": 23035.702,
      "d": 535.7139999999999,
      "v": 127
    },
    {
      "midi": 67,
      "hit": false,
      "t": 23035.702,
      "d": 535.7139999999999,
      "v": 127
    },
    {
      "midi": 60,
      "hit": false,
      "t": 23571.416,
      "d": 535.7139999999999,
      "v": 127
    },
    {
      "midi": 67,
      "hit": false,
      "t": 23571.416,
      "d": 535.7139999999999,
      "v": 127
    },
    {
      "midi": 70,
      "hit": false,
      "t": 23571.416,
      "d": 535.7139999999999,
      "v": 127
    },
    {
      "midi": 40,
      "hit": false,
      "t": 23571.416,
      "d": 535.7139999999999,
      "v": 127
    },
    {
      "midi": 52,
      "hit": false,
      "t": 23571.416,
      "d": 535.7139999999999,
      "v": 127
    },
    {
      "midi": 60,
      "hit": false,
      "t": 24107.13,
      "d": 535.7139999999999,
      "v": 127
    },
    {
      "midi": 65,
      "hit": false,
      "t": 24107.13,
      "d": 535.7139999999999,
      "v": 127
    },
    {
      "midi": 68,
      "hit": false,
      "t": 24107.13,
      "d": 535.7139999999999,
      "v": 127
    },
    {
      "midi": 41,
      "hit": false,
      "t": 24107.13,
      "d": 535.7139999999999,
      "v": 127
    },
    {
      "midi": 53,
      "hit": false,
      "t": 24107.13,
      "d": 535.7139999999999,
      "v": 127
    },
    {
      "midi": 60,
      "hit": false,
      "t": 24642.844,
      "d": 803.5709999999999,
      "v": 127
    },
    {
      "midi": 64,
      "hit": false,
      "t": 24642.844,
      "d": 803.5709999999999,
      "v": 127
    },
    {
      "midi": 67,
      "hit": false,
      "t": 24642.844,
      "d": 803.5709999999999,
      "v": 127
    },
    {
      "midi": 36,
      "hit": false,
      "t": 24642.844,
      "d": 535.7139999999999,
      "v": 127
    },
    {
      "midi": 48,
      "hit": false,
      "t": 24642.844,
      "d": 535.7139999999999,
      "v": 127
    },
    {
      "midi": 48,
      "hit": false,
      "t": 25178.558,
      "d": 535.7139999999999,
      "v": 127
    },
    {
      "midi": 60,
      "hit": false,
      "t": 25178.558,
      "d": 535.7139999999999,
      "v": 127
    },
    {
      "midi": 64,
      "hit": false,
      "t": 25446.415,
      "d": 267.85699999999997,
      "v": 127
    },
    {
      "midi": 67,
      "hit": false,
      "t": 25714.272,
      "d": 267.85699999999997,
      "v": 127
    },
    {
      "midi": 72,
      "hit": false,
      "t": 25982.129,
      "d": 267.85699999999997,
      "v": 127
    },
    {
      "midi": 73,
      "hit": false,
      "t": 26249.986,
      "d": 267.85699999999997,
      "v": 127
    },
    {
      "midi": 65,
      "hit": false,
      "t": 26517.843,
      "d": 267.85699999999997,
      "v": 127
    },
    {
      "midi": 68,
      "hit": false,
      "t": 26785.7,
      "d": 267.85699999999997,
      "v": 127
    },
    {
      "midi": 73,
      "hit": false,
      "t": 27053.557,
      "d": 267.85699999999997,
      "v": 127
    },
    {
      "midi": 67,
      "hit": false,
      "t": 27321.414,
      "d": 535.7139999999999,
      "v": 127
    },
    {
      "midi": 73,
      "hit": false,
      "t": 27321.414,
      "d": 535.7139999999999,
      "v": 127
    },
    {
      "midi": 76,
      "hit": false,
      "t": 27321.414,
      "d": 535.7139999999999,
      "v": 127
    },
    {
      "midi": 46,
      "hit": false,
      "t": 27321.414,
      "d": 535.7139999999999,
      "v": 127
    },
    {
      "midi": 58,
      "hit": false,
      "t": 27321.414,
      "d": 535.7139999999999,
      "v": 127
    },
    {
      "midi": 72,
      "hit": false,
      "t": 28660.699,
      "d": 267.85699999999997,
      "v": 127
    },
    {
      "midi": 77,
      "hit": false,
      "t": 28660.699,
      "d": 267.85699999999997,
      "v": 127
    },
    {
      "midi": 56,
      "hit": false,
      "t": 28660.699,
      "d": 267.85699999999997,
      "v": 127
    },
    {
      "midi": 70,
      "hit": false,
      "t": 28928.556,
      "d": 267.85699999999997,
      "v": 127
    },
    {
      "midi": 75,
      "hit": false,
      "t": 28928.556,
      "d": 267.85699999999997,
      "v": 127
    },
    {
      "midi": 55,
      "hit": false,
      "t": 28928.556,
      "d": 267.85699999999997,
      "v": 127
    },
    {
      "midi": 68,
      "hit": false,
      "t": 29196.413,
      "d": 267.85699999999997,
      "v": 127
    },
    {
      "midi": 73,
      "hit": false,
      "t": 29196.413,
      "d": 267.85699999999997,
      "v": 127
    },
    {
      "midi": 53,
      "hit": false,
      "t": 29196.413,
      "d": 267.85699999999997,
      "v": 127
    },
    {
      "midi": 73,
      "hit": false,
      "t": 29464.27,
      "d": 267.85699999999997,
      "v": 127
    },
    {
      "midi": 52,
      "hit": false,
      "t": 29464.27,
      "d": 535.7139999999999,
      "v": 127
    },
    {
      "midi": 72,
      "hit": false,
      "t": 29732.127,
      "d": 267.85699999999997,
      "v": 127
    },
    {
      "midi": 70,
      "hit": false,
      "t": 29999.984,
      "d": 267.85699999999997,
      "v": 127
    },
    {
      "midi": 53,
      "hit": false,
      "t": 29999.984,
      "d": 535.7139999999999,
      "v": 127
    },
    {
      "midi": 68,
      "hit": false,
      "t": 30267.841,
      "d": 267.85699999999997,
      "v": 127
    },
    {
      "midi": 61,
      "hit": false,
      "t": 30535.698,
      "d": 267.85699999999997,
      "v": 127
    },
    {
      "midi": 46,
      "hit": false,
      "t": 30535.698,
      "d": 1071.4279999999999,
      "v": 127
    },
    {
      "midi": 67,
      "hit": false,
      "t": 30803.555,
      "d": 267.85699999999997,
      "v": 127
    },
    {
      "midi": 61,
      "hit": false,
      "t": 31071.412,
      "d": 267.85699999999997,
      "v": 127
    },
    {
      "midi": 58,
      "hit": false,
      "t": 31339.269,
      "d": 267.85699999999997,
      "v": 127
    },
    {
      "midi": 65,
      "hit": false,
      "t": 31607.126,
      "d": 267.85699999999997,
      "v": 127
    },
    {
      "midi": 48,
      "hit": false,
      "t": 31607.126,
      "d": 535.7139999999999,
      "v": 127
    },
    {
      "midi": 60,
      "hit": false,
      "t": 31874.983,
      "d": 267.85699999999997,
      "v": 127
    },
    {
      "midi": 64,
      "hit": false,
      "t": 32142.84,
      "d": 267.85699999999997,
      "v": 127
    },
    {
      "midi": 58,
      "hit": false,
      "t": 32410.697,
      "d": 267.85699999999997,
      "v": 127
    },
    {
      "midi": 53,
      "hit": false,
      "t": 32678.554,
      "d": 267.85699999999997,
      "v": 127
    },
    {
      "midi": 37,
      "hit": false,
      "t": 32678.554,
      "d": 1071.4280000000035,
      "v": 127
    },
    {
      "midi": 49,
      "hit": false,
      "t": 32678.554,
      "d": 1071.4280000000035,
      "v": 127
    },
    {
      "midi": 56,
      "hit": false,
      "t": 32946.411,
      "d": 267.8570000000036,
      "v": 127
    },
    {
      "midi": 61,
      "hit": false,
      "t": 33214.268000000004,
      "d": 267.8570000000036,
      "v": 127
    },
    {
      "midi": 65,
      "hit": false,
      "t": 33482.12500000001,
      "d": 267.8570000000036,
      "v": 127
    },
    {
      "midi": 36,
      "hit": false,
      "t": 33749.982,
      "d": 535.7139999999999,
      "v": 127
    },
    {
      "midi": 48,
      "hit": false,
      "t": 33749.982,
      "d": 535.7139999999999,
      "v": 127
    },
    {
      "midi": 54,
      "hit": false,
      "t": 33749.98200000001,
      "d": 267.8570000000036,
      "v": 127
    },
    {
      "midi": 57,
      "hit": false,
      "t": 34017.839000000014,
      "d": 267.8570000000036,
      "v": 127
    },
    {
      "midi": 63,
      "hit": false,
      "t": 34285.69600000002,
      "d": 267.8570000000036,
      "v": 127
    },
    {
      "midi": 66,
      "hit": false,
      "t": 34553.55300000002,
      "d": 267.8570000000036,
      "v": 127
    },
    {
      "midi": 37,
      "hit": false,
      "t": 34821.41,
      "d": 535.7139999999999,
      "v": 127
    },
    {
      "midi": 49,
      "hit": false,
      "t": 34821.41,
      "d": 535.7139999999999,
      "v": 127
    },
    {
      "midi": 58,
      "hit": false,
      "t": 34821.410000000025,
      "d": 535.7139999999999,
      "v": 127
    },
    {
      "midi": 65,
      "hit": false,
      "t": 34821.410000000025,
      "d": 535.7139999999999,
      "v": 127
    },
    {
      "midi": 46,
      "hit": false,
      "t": 37499.98,
      "d": 535.7139999999999,
      "v": 127
    },
    {
      "midi": 70,
      "hit": false,
      "t": 37767.83700000003,
      "d": 267.8570000000036,
      "v": 127
    },
    {
      "midi": 73,
      "hit": false,
      "t": 37767.83700000003,
      "d": 267.8570000000036,
      "v": 127
    },
    {
      "midi": 48,
      "hit": false,
      "t": 38035.694,
      "d": 535.7139999999999,
      "v": 127
    },
    {
      "midi": 68,
      "hit": false,
      "t": 38303.551000000036,
      "d": 267.8570000000036,
      "v": 127
    },
    {
      "midi": 72,
      "hit": false,
      "t": 38303.551000000036,
      "d": 267.8570000000036,
      "v": 127
    },
    {
      "midi": 48,
      "hit": false,
      "t": 38571.408,
      "d": 535.7139999999999,
      "v": 127
    },
    {
      "midi": 58,
      "hit": false,
      "t": 38839.26500000004,
      "d": 267.8570000000036,
      "v": 127
    },
    {
      "midi": 64,
      "hit": false,
      "t": 38839.26500000004,
      "d": 267.8570000000036,
      "v": 127
    },
    {
      "midi": 53,
      "hit": false,
      "t": 39107.122,
      "d": 267.8570000000036,
      "v": 127
    },
    {
      "midi": 56,
      "hit": false,
      "t": 39107.12200000005,
      "d": 1071.4279999999999,
      "v": 127
    },
    {
      "midi": 65,
      "hit": false,
      "t": 39107.12200000005,
      "d": 1071.4279999999999,
      "v": 127
    },
    {
      "midi": 56,
      "hit": false,
      "t": 39374.97900000001,
      "d": 267.8570000000036,
      "v": 127
    },
    {
      "midi": 60,
      "hit": false,
      "t": 39642.83600000001,
      "d": 267.8570000000036,
      "v": 127
    },
    {
      "midi": 56,
      "hit": false,
      "t": 39910.693000000014,
      "d": 267.8570000000036,
      "v": 127
    },
    {
      "midi": 53,
      "hit": false,
      "t": 40178.55000000002,
      "d": 267.8570000000036,
      "v": 127
    },
    {
      "midi": 56,
      "hit": false,
      "t": 40446.40700000002,
      "d": 267.8570000000036,
      "v": 127
    },
    {
      "midi": 80,
      "hit": false,
      "t": 40446.40700000005,
      "d": 267.8570000000036,
      "v": 127
    },
    {
      "midi": 60,
      "hit": false,
      "t": 40714.264000000025,
      "d": 267.8570000000036,
      "v": 127
    },
    {
      "midi": 79,
      "hit": false,
      "t": 40714.264000000054,
      "d": 267.8570000000036,
      "v": 127
    },
    {
      "midi": 56,
      "hit": false,
      "t": 40982.12100000003,
      "d": 267.8570000000036,
      "v": 127
    },
    {
      "midi": 77,
      "hit": false,
      "t": 40982.12100000006,
      "d": 267.8570000000036,
      "v": 127
    },
    {
      "midi": 52,
      "hit": false,
      "t": 41249.97800000003,
      "d": 267.8570000000036,
      "v": 127
    },
    {
      "midi": 85,
      "hit": false,
      "t": 41249.97800000006,
      "d": 535.7139999999999,
      "v": 127
    },
    {
      "midi": 55,
      "hit": false,
      "t": 41517.835000000036,
      "d": 267.8570000000036,
      "v": 127
    },
    {
      "midi": 58,
      "hit": false,
      "t": 41785.69200000004,
      "d": 267.8570000000036,
      "v": 127
    },
    {
      "midi": 84,
      "hit": false,
      "t": 41785.69200000006,
      "d": 803.5710000000036,
      "v": 127
    },
    {
      "midi": 55,
      "hit": false,
      "t": 42053.54900000004,
      "d": 267.8570000000036,
      "v": 127
    },
    {
      "midi": 53,
      "hit": false,
      "t": 42321.406000000046,
      "d": 267.8570000000036,
      "v": 127
    },
    {
      "midi": 56,
      "hit": false,
      "t": 42589.26300000005,
      "d": 267.8570000000036,
      "v": 127
    },
    {
      "midi": 84,
      "hit": false,
      "t": 42589.263000000064,
      "d": 267.8570000000036,
      "v": 127
    },
    {
      "midi": 85,
      "hit": false,
      "t": 42589.263000000064,
      "d": 267.8570000000036,
      "v": 127
    },
    {
      "midi": 60,
      "hit": false,
      "t": 42857.12000000005,
      "d": 267.8570000000036,
      "v": 127
    },
    {
      "midi": 82,
      "hit": false,
      "t": 42857.12000000007,
      "d": 267.8570000000036,
      "v": 127
    },
    {
      "midi": 56,
      "hit": false,
      "t": 43124.97700000006,
      "d": 267.8570000000036,
      "v": 127
    },
    {
      "midi": 80,
      "hit": false,
      "t": 43124.97700000007,
      "d": 267.8570000000036,
      "v": 127
    },
    {
      "midi": 58,
      "hit": false,
      "t": 43392.83400000006,
      "d": 267.8570000000036,
      "v": 127
    },
    {
      "midi": 80,
      "hit": false,
      "t": 43392.834000000075,
      "d": 267.8570000000036,
      "v": 127
    },
    {
      "midi": 61,
      "hit": false,
      "t": 43660.691000000064,
      "d": 267.8570000000036,
      "v": 127
    },
    {
      "midi": 79,
      "hit": false,
      "t": 43660.69100000008,
      "d": 267.8570000000036,
      "v": 127
    },
    {
      "midi": 67,
      "hit": false,
      "t": 43928.54800000007,
      "d": 267.8570000000036,
      "v": 127
    },
    {
      "midi": 80,
      "hit": false,
      "t": 43928.54800000008,
      "d": 267.8570000000036,
      "v": 127
    },
    {
      "midi": 61,
      "hit": false,
      "t": 44196.40500000007,
      "d": 267.8570000000036,
      "v": 127
    },
    {
      "midi": 82,
      "hit": false,
      "t": 44196.405000000086,
      "d": 267.8570000000036,
      "v": 127
    },
    {
      "midi": 60,
      "hit": false,
      "t": 44464.262000000075,
      "d": 535.7139999999999,
      "v": 127
    },
    {
      "midi": 68,
      "hit": false,
      "t": 44464.262000000075,
      "d": 535.7139999999999,
      "v": 127
    },
    {
      "midi": 77,
      "hit": false,
      "t": 44464.26200000009,
      "d": 535.7139999999999,
      "v": 127
    },
    {
      "midi": 60,
      "hit": false,
      "t": 44999.976000000075,
      "d": 535.7139999999999,
      "v": 127
    },
    {
      "midi": 67,
      "hit": false,
      "t": 44999.976000000075,
      "d": 535.7139999999999,
      "v": 127
    },
    {
      "midi": 70,
      "hit": false,
      "t": 44999.97600000009,
      "d": 535.7139999999999,
      "v": 127
    },
    {
      "midi": 76,
      "hit": false,
      "t": 44999.97600000009,
      "d": 535.7139999999999,
      "v": 127
    },
    {
      "midi": 53,
      "hit": false,
      "t": 45535.690000000075,
      "d": 1607.1419999999998,
      "v": 127
    },
    {
      "midi": 65,
      "hit": false,
      "t": 45535.690000000075,
      "d": 1607.1419999999998,
      "v": 127
    },
    {
      "midi": 76,
      "hit": false,
      "t": 45535.69000000009,
      "d": 1071.4279999999999,
      "v": 127
    },
    {
      "midi": 68,
      "hit": false,
      "t": 46607.11800000009,
      "d": 535.7139999999999,
      "v": 127
    },
    {
      "midi": 77,
      "hit": false,
      "t": 46607.11800000009,
      "d": 535.7139999999999,
      "v": 127
    },
    {
      "midi": 41,
      "hit": false,
      "t": 47678.546000000075,
      "d": 535.7139999999999,
      "v": 127
    },
    {
      "midi": 53,
      "hit": false,
      "t": 47678.546000000075,
      "d": 535.7139999999999,
      "v": 127
    },
    {
      "midi": 56,
      "hit": false,
      "t": 47946.40300000009,
      "d": 267.8570000000036,
      "v": 127
    },
    {
      "midi": 60,
      "hit": false,
      "t": 47946.40300000009,
      "d": 267.8570000000036,
      "v": 127
    },
    {
      "midi": 65,
      "hit": false,
      "t": 48214.2600000001,
      "d": 267.8570000000036,
      "v": 127
    },
    {
      "midi": 60,
      "hit": false,
      "t": 48482.1170000001,
      "d": 267.8570000000036,
      "v": 127
    },
    {
      "midi": 41,
      "hit": false,
      "t": 48749.974000000075,
      "d": 535.7139999999999,
      "v": 127
    },
    {
      "midi": 53,
      "hit": false,
      "t": 48749.974000000075,
      "d": 535.7139999999999,
      "v": 127
    },
    {
      "midi": 55,
      "hit": false,
      "t": 49017.83100000011,
      "d": 267.8570000000036,
      "v": 127
    },
    {
      "midi": 58,
      "hit": false,
      "t": 49017.83100000011,
      "d": 267.8570000000036,
      "v": 127
    },
    {
      "midi": 64,
      "hit": false,
      "t": 49285.68800000011,
      "d": 267.8570000000036,
      "v": 127
    },
    {
      "midi": 58,
      "hit": false,
      "t": 49553.545000000115,
      "d": 267.8570000000036,
      "v": 127
    },
    {
      "midi": 41,
      "hit": false,
      "t": 49821.402000000075,
      "d": 535.7139999999999,
      "v": 127
    },
    {
      "midi": 53,
      "hit": false,
      "t": 49821.402000000075,
      "d": 535.7139999999999,
      "v": 127
    },
    {
      "midi": 56,
      "hit": false,
      "t": 50089.25900000012,
      "d": 267.8570000000036,
      "v": 127
    },
    {
      "midi": 60,
      "hit": false,
      "t": 50089.25900000012,
      "d": 267.8570000000036,
      "v": 127
    },
    {
      "midi": 65,
      "hit": false,
      "t": 50357.116000000125,
      "d": 267.8570000000036,
      "v": 127
    },
    {
      "midi": 60,
      "hit": false,
      "t": 50624.97300000013,
      "d": 267.8570000000036,
      "v": 127
    },
    {
      "midi": 41,
      "hit": false,
      "t": 50892.830000000075,
      "d": 535.7139999999999,
      "v": 127
    },
    {
      "midi": 53,
      "hit": false,
      "t": 50892.830000000075,
      "d": 535.7139999999999,
      "v": 127
    },
    {
      "midi": 56,
      "hit": false,
      "t": 51160.687000000136,
      "d": 267.8570000000036,
      "v": 127
    },
    {
      "midi": 60,
      "hit": false,
      "t": 51160.687000000136,
      "d": 267.8570000000036,
      "v": 127
    },
    {
      "midi": 65,
      "hit": false,
      "t": 51428.54400000014,
      "d": 267.8570000000036,
      "v": 127
    },
    {
      "midi": 60,
      "hit": false,
      "t": 51696.40100000014,
      "d": 267.8570000000036,
      "v": 127
    },
    {
      "midi": 41,
      "hit": false,
      "t": 51964.258000000074,
      "d": 535.7139999999999,
      "v": 127
    },
    {
      "midi": 53,
      "hit": false,
      "t": 51964.258000000074,
      "d": 535.7139999999999,
      "v": 127
    },
    {
      "midi": 56,
      "hit": false,
      "t": 52232.11500000015,
      "d": 267.8570000000036,
      "v": 127
    },
    {
      "midi": 60,
      "hit": false,
      "t": 52232.11500000015,
      "d": 267.8570000000036,
      "v": 127
    },
    {
      "midi": 65,
      "hit": false,
      "t": 52499.972000000154,
      "d": 267.8570000000036,
      "v": 127
    },
    {
      "midi": 60,
      "hit": false,
      "t": 52767.82900000016,
      "d": 267.8570000000036,
      "v": 127
    },
    {
      "midi": 41,
      "hit": false,
      "t": 53035.686000000074,
      "d": 535.7139999999999,
      "v": 127
    },
    {
      "midi": 53,
      "hit": false,
      "t": 53035.686000000074,
      "d": 535.7139999999999,
      "v": 127
    },
    {
      "midi": 57,
      "hit": false,
      "t": 53303.543000000165,
      "d": 267.8570000000036,
      "v": 127
    },
    {
      "midi": 60,
      "hit": false,
      "t": 53303.543000000165,
      "d": 267.8570000000036,
      "v": 127
    },
    {
      "midi": 65,
      "hit": false,
      "t": 53571.40000000017,
      "d": 267.8570000000036,
      "v": 127
    },
    {
      "midi": 60,
      "hit": false,
      "t": 53839.25700000017,
      "d": 267.8570000000036,
      "v": 127
    },
    {
      "midi": 41,
      "hit": false,
      "t": 54107.114000000074,
      "d": 535.7139999999999,
      "v": 127
    },
    {
      "midi": 53,
      "hit": false,
      "t": 54107.114000000074,
      "d": 535.7139999999999,
      "v": 127
    },
    {
      "midi": 58,
      "hit": false,
      "t": 54374.97100000018,
      "d": 267.8570000000036,
      "v": 127
    },
    {
      "midi": 61,
      "hit": false,
      "t": 54374.97100000018,
      "d": 267.8570000000036,
      "v": 127
    },
    {
      "midi": 65,
      "hit": false,
      "t": 54642.82800000018,
      "d": 267.8570000000036,
      "v": 127
    },
    {
      "midi": 61,
      "hit": false,
      "t": 54910.68500000019,
      "d": 267.8570000000036,
      "v": 127
    },
    {
      "midi": 41,
      "hit": false,
      "t": 55178.542000000074,
      "d": 535.7139999999999,
      "v": 127
    },
    {
      "midi": 53,
      "hit": false,
      "t": 55178.542000000074,
      "d": 535.7139999999999,
      "v": 127
    },
    {
      "midi": 56,
      "hit": false,
      "t": 55446.399000000194,
      "d": 267.8570000000036,
      "v": 127
    },
    {
      "midi": 60,
      "hit": false,
      "t": 55446.399000000194,
      "d": 267.8570000000036,
      "v": 127
    },
    {
      "midi": 65,
      "hit": false,
      "t": 55714.2560000002,
      "d": 267.8570000000036,
      "v": 127
    },
    {
      "midi": 60,
      "hit": false,
      "t": 55982.1130000002,
      "d": 267.8570000000036,
      "v": 127
    },
    {
      "midi": 37,
      "hit": false,
      "t": 56249.970000000074,
      "d": 1071.4279999999999,
      "v": 127
    },
    {
      "midi": 49,
      "hit": false,
      "t": 56249.970000000074,
      "d": 1071.4279999999999,
      "v": 127
    },
    {
      "midi": 53,
      "hit": false,
      "t": 56517.82700000021,
      "d": 267.8570000000036,
      "v": 127
    },
    {
      "midi": 58,
      "hit": false,
      "t": 56517.82700000021,
      "d": 267.8570000000036,
      "v": 127
    },
    {
      "midi": 65,
      "hit": false,
      "t": 56785.68400000021,
      "d": 267.8570000000036,
      "v": 127
    },
    {
      "midi": 58,
      "hit": false,
      "t": 57053.541000000216,
      "d": 267.8570000000036,
      "v": 127
    },
    {
      "midi": 36,
      "hit": false,
      "t": 57321.398000000074,
      "d": 535.7139999999999,
      "v": 127
    },
    {
      "midi": 48,
      "hit": false,
      "t": 57321.398000000074,
      "d": 535.7139999999999,
      "v": 127
    },
    {
      "midi": 56,
      "hit": false,
      "t": 57589.25500000022,
      "d": 267.8570000000036,
      "v": 127
    },
    {
      "midi": 60,
      "hit": false,
      "t": 57589.25500000022,
      "d": 267.8570000000036,
      "v": 127
    },
    {
      "midi": 65,
      "hit": false,
      "t": 57857.11200000023,
      "d": 267.8570000000036,
      "v": 127
    },
    {
      "midi": 60,
      "hit": false,
      "t": 58124.96900000023,
      "d": 267.8570000000036,
      "v": 127
    },
    {
      "midi": 35,
      "hit": false,
      "t": 58392.826000000074,
      "d": 1071.4279999999999,
      "v": 127
    },
    {
      "midi": 47,
      "hit": false,
      "t": 58392.826000000074,
      "d": 1071.4279999999999,
      "v": 127
    },
    {
      "midi": 55,
      "hit": false,
      "t": 58660.68300000024,
      "d": 267.8570000000036,
      "v": 127
    },
    {
      "midi": 62,
      "hit": false,
      "t": 58660.68300000024,
      "d": 267.8570000000036,
      "v": 127
    },
    {
      "midi": 65,
      "hit": false,
      "t": 58928.54000000024,
      "d": 267.8570000000036,
      "v": 127
    },
    {
      "midi": 62,
      "hit": false,
      "t": 59196.397000000245,
      "d": 267.8570000000036,
      "v": 127
    },
    {
      "midi": 34,
      "hit": false,
      "t": 59464.25400000007,
      "d": 535.7139999999999,
      "v": 127
    },
    {
      "midi": 46,
      "hit": false,
      "t": 59464.25400000007,
      "d": 535.7139999999999,
      "v": 127
    },
    {
      "midi": 55,
      "hit": false,
      "t": 59732.11100000025,
      "d": 267.8570000000036,
      "v": 127
    },
    {
      "midi": 61,
      "hit": false,
      "t": 59732.11100000025,
      "d": 267.8570000000036,
      "v": 127
    },
    {
      "midi": 64,
      "hit": false,
      "t": 59999.968000000255,
      "d": 267.8570000000036,
      "v": 127
    },
    {
      "midi": 61,
      "hit": false,
      "t": 60267.82500000026,
      "d": 267.8570000000036,
      "v": 127
    },
    {
      "midi": 32,
      "hit": false,
      "t": 60535.68200000007,
      "d": 535.7139999999999,
      "v": 127
    },
    {
      "midi": 44,
      "hit": false,
      "t": 60535.68200000007,
      "d": 535.7139999999999,
      "v": 127
    },
    {
      "midi": 60,
      "hit": false,
      "t": 60803.539000000266,
      "d": 267.8570000000036,
      "v": 127
    },
    {
      "midi": 65,
      "hit": false,
      "t": 60803.539000000266,
      "d": 267.8570000000036,
      "v": 127
    },
    {
      "midi": 56,
      "hit": false,
      "t": 61071.39600000007,
      "d": 535.7139999999999,
      "v": 127
    },
    {
      "midi": 60,
      "hit": false,
      "t": 61339.25300000027,
      "d": 267.8570000000036,
      "v": 127
    },
    {
      "midi": 65,
      "hit": false,
      "t": 61339.25300000027,
      "d": 267.8570000000036,
      "v": 127
    },
    {
      "midi": 55,
      "hit": false,
      "t": 61607.11000000007,
      "d": 535.7139999999999,
      "v": 127
    },
    {
      "midi": 60,
      "hit": false,
      "t": 61874.96700000028,
      "d": 267.8570000000036,
      "v": 127
    },
    {
      "midi": 64,
      "hit": false,
      "t": 61874.96700000028,
      "d": 267.8570000000036,
      "v": 127
    },
    {
      "midi": 53,
      "hit": false,
      "t": 62142.82400000007,
      "d": 535.7139999999999,
      "v": 127
    },
    {
      "midi": 60,
      "hit": false,
      "t": 62410.68100000029,
      "d": 267.8570000000036,
      "v": 127
    },
    {
      "midi": 65,
      "hit": false,
      "t": 62410.68100000029,
      "d": 267.8570000000036,
      "v": 127
    },
    {
      "midi": 36,
      "hit": false,
      "t": 62678.53800000007,
      "d": 1071.4279999999999,
      "v": 127
    },
    {
      "midi": 48,
      "hit": false,
      "t": 62678.53800000007,
      "d": 1071.4279999999999,
      "v": 127
    },
    {
      "midi": 68,
      "hit": false,
      "t": 62678.53800000029,
      "d": 535.7139999999999,
      "v": 127
    },
    {
      "midi": 64,
      "hit": false,
      "t": 63214.25200000029,
      "d": 1071.4279999999999,
      "v": 127
    },
    {
      "midi": 67,
      "hit": false,
      "t": 63214.25200000029,
      "d": 1071.4279999999999,
      "v": 127
    },
    {
      "midi": 72,
      "hit": false,
      "t": 64285.68000000029,
      "d": 535.7139999999999,
      "v": 127
    },
    {
      "midi": 65,
      "hit": false,
      "t": 64821.39400000007,
      "d": 1071.4279999999999,
      "v": 127
    },
    {
      "midi": 68,
      "hit": false,
      "t": 64821.39400000007,
      "d": 1071.4279999999999,
      "v": 127
    },
    {
      "midi": 71,
      "hit": false,
      "t": 64821.39400000029,
      "d": 535.7139999999999,
      "v": 127
    },
    {
      "midi": 72,
      "hit": false,
      "t": 65357.10800000029,
      "d": 535.7139999999999,
      "v": 127
    },
    {
      "midi": 64,
      "hit": false,
      "t": 65892.82200000007,
      "d": 535.7140000000072,
      "v": 127
    },
    {
      "midi": 67,
      "hit": false,
      "t": 65892.82200000007,
      "d": 535.7140000000072,
      "v": 127
    },
    {
      "midi": 73,
      "hit": false,
      "t": 65892.82200000029,
      "d": 535.7140000000072,
      "v": 127
    },
    {
      "midi": 40,
      "hit": false,
      "t": 66428.53600000008,
      "d": 535.7140000000072,
      "v": 127
    },
    {
      "midi": 52,
      "hit": false,
      "t": 66428.53600000008,
      "d": 535.7140000000072,
      "v": 127
    },
    {
      "midi": 60,
      "hit": false,
      "t": 66428.5360000003,
      "d": 535.7140000000072,
      "v": 127
    },
    {
      "midi": 67,
      "hit": false,
      "t": 66428.5360000003,
      "d": 535.7140000000072,
      "v": 127
    },
    {
      "midi": 70,
      "hit": false,
      "t": 66428.5360000003,
      "d": 535.7140000000072,
      "v": 127
    },
    {
      "midi": 41,
      "hit": false,
      "t": 66964.25000000009,
      "d": 535.7140000000072,
      "v": 127
    },
    {
      "midi": 53,
      "hit": false,
      "t": 66964.25000000009,
      "d": 535.7140000000072,
      "v": 127
    },
    {
      "midi": 60,
      "hit": false,
      "t": 66964.2500000003,
      "d": 535.7140000000072,
      "v": 127
    },
    {
      "midi": 65,
      "hit": false,
      "t": 66964.2500000003,
      "d": 535.7140000000072,
      "v": 127
    },
    {
      "midi": 68,
      "hit": false,
      "t": 66964.2500000003,
      "d": 535.7140000000072,
      "v": 127
    },
    {
      "midi": 36,
      "hit": false,
      "t": 67499.9640000001,
      "d": 1071.4279999999999,
      "v": 127
    },
    {
      "midi": 48,
      "hit": false,
      "t": 67499.9640000001,
      "d": 1071.4279999999999,
      "v": 127
    },
    {
      "midi": 60,
      "hit": false,
      "t": 67499.96400000031,
      "d": 1071.4279999999999,
      "v": 127
    },
    {
      "midi": 64,
      "hit": false,
      "t": 67499.96400000031,
      "d": 1071.4279999999999,
      "v": 127
    },
    {
      "midi": 67,
      "hit": false,
      "t": 67499.96400000031,
      "d": 1071.4279999999999,
      "v": 127
    },
    {
      "midi": 72,
      "hit": false,
      "t": 68571.39200000031,
      "d": 535.7140000000072,
      "v": 127
    },
    {
      "midi": 65,
      "hit": false,
      "t": 69107.1060000001,
      "d": 1071.4279999999999,
      "v": 127
    },
    {
      "midi": 68,
      "hit": false,
      "t": 69107.1060000001,
      "d": 1071.4279999999999,
      "v": 127
    },
    {
      "midi": 71,
      "hit": false,
      "t": 69107.10600000032,
      "d": 535.7140000000072,
      "v": 127
    },
    {
      "midi": 72,
      "hit": false,
      "t": 69642.82000000033,
      "d": 535.7140000000072,
      "v": 127
    },
    {
      "midi": 64,
      "hit": false,
      "t": 70178.5340000001,
      "d": 535.7140000000072,
      "v": 127
    },
    {
      "midi": 67,
      "hit": false,
      "t": 70178.5340000001,
      "d": 535.7140000000072,
      "v": 127
    },
    {
      "midi": 73,
      "hit": false,
      "t": 70178.53400000033,
      "d": 535.7140000000072,
      "v": 127
    },
    {
      "midi": 40,
      "hit": false,
      "t": 70714.24800000011,
      "d": 535.7140000000072,
      "v": 127
    },
    {
      "midi": 52,
      "hit": false,
      "t": 70714.24800000011,
      "d": 535.7140000000072,
      "v": 127
    },
    {
      "midi": 60,
      "hit": false,
      "t": 70714.24800000034,
      "d": 535.7140000000072,
      "v": 127
    },
    {
      "midi": 67,
      "hit": false,
      "t": 70714.24800000034,
      "d": 535.7140000000072,
      "v": 127
    },
    {
      "midi": 70,
      "hit": false,
      "t": 70714.24800000034,
      "d": 535.7140000000072,
      "v": 127
    },
    {
      "midi": 41,
      "hit": false,
      "t": 71249.96200000012,
      "d": 535.7140000000072,
      "v": 127
    },
    {
      "midi": 53,
      "hit": false,
      "t": 71249.96200000012,
      "d": 535.7140000000072,
      "v": 127
    },
    {
      "midi": 60,
      "hit": false,
      "t": 71249.96200000035,
      "d": 535.7140000000072,
      "v": 127
    },
    {
      "midi": 65,
      "hit": false,
      "t": 71249.96200000035,
      "d": 535.7140000000072,
      "v": 127
    },
    {
      "midi": 68,
      "hit": false,
      "t": 71249.96200000035,
      "d": 535.7140000000072,
      "v": 127
    },
    {
      "midi": 36,
      "hit": false,
      "t": 71785.67600000012,
      "d": 535.7140000000072,
      "v": 127
    },
    {
      "midi": 48,
      "hit": false,
      "t": 71785.67600000012,
      "d": 535.7140000000072,
      "v": 127
    },
    {
      "midi": 60,
      "hit": false,
      "t": 71785.67600000036,
      "d": 803.5709999999963,
      "v": 127
    },
    {
      "midi": 64,
      "hit": false,
      "t": 71785.67600000036,
      "d": 803.5709999999963,
      "v": 127
    },
    {
      "midi": 67,
      "hit": false,
      "t": 71785.67600000036,
      "d": 803.5709999999963,
      "v": 127
    },
    {
      "midi": 48,
      "hit": false,
      "t": 72321.39000000013,
      "d": 535.7140000000072,
      "v": 127
    },
    {
      "midi": 60,
      "hit": false,
      "t": 72321.39000000013,
      "d": 535.7140000000072,
      "v": 127
    },
    {
      "midi": 64,
      "hit": false,
      "t": 72589.24700000035,
      "d": 267.8570000000036,
      "v": 127
    },
    {
      "midi": 67,
      "hit": false,
      "t": 72857.10400000036,
      "d": 267.8570000000036,
      "v": 127
    },
    {
      "midi": 72,
      "hit": false,
      "t": 73124.96100000036,
      "d": 267.8570000000036,
      "v": 127
    },
    {
      "midi": 73,
      "hit": false,
      "t": 73392.81800000036,
      "d": 267.8570000000036,
      "v": 127
    },
    {
      "midi": 65,
      "hit": false,
      "t": 73660.67500000037,
      "d": 267.8570000000036,
      "v": 127
    },
    {
      "midi": 68,
      "hit": false,
      "t": 73928.53200000037,
      "d": 267.8570000000036,
      "v": 127
    },
    {
      "midi": 73,
      "hit": false,
      "t": 74196.38900000037,
      "d": 267.8570000000036,
      "v": 127
    },
    {
      "midi": 46,
      "hit": false,
      "t": 74464.24600000014,
      "d": 535.7140000000072,
      "v": 127
    },
    {
      "midi": 58,
      "hit": false,
      "t": 74464.24600000014,
      "d": 535.7140000000072,
      "v": 127
    },
    {
      "midi": 67,
      "hit": false,
      "t": 74464.24600000038,
      "d": 535.7140000000072,
      "v": 127
    },
    {
      "midi": 73,
      "hit": false,
      "t": 74464.24600000038,
      "d": 535.7140000000072,
      "v": 127
    },
    {
      "midi": 76,
      "hit": false,
      "t": 74464.24600000038,
      "d": 535.7140000000072,
      "v": 127
    },
    {
      "midi": 56,
      "hit": false,
      "t": 75803.53100000015,
      "d": 267.8570000000036,
      "v": 127
    },
    {
      "midi": 72,
      "hit": false,
      "t": 75803.53100000038,
      "d": 267.8570000000036,
      "v": 127
    },
    {
      "midi": 77,
      "hit": false,
      "t": 75803.53100000038,
      "d": 267.8570000000036,
      "v": 127
    },
    {
      "midi": 55,
      "hit": false,
      "t": 76071.38800000015,
      "d": 267.8570000000036,
      "v": 127
    },
    {
      "midi": 70,
      "hit": false,
      "t": 76071.38800000038,
      "d": 267.8570000000036,
      "v": 127
    },
    {
      "midi": 75,
      "hit": false,
      "t": 76071.38800000038,
      "d": 267.8570000000036,
      "v": 127
    },
    {
      "midi": 53,
      "hit": false,
      "t": 76339.24500000016,
      "d": 267.8570000000036,
      "v": 127
    },
    {
      "midi": 68,
      "hit": false,
      "t": 76339.24500000039,
      "d": 267.8570000000036,
      "v": 127
    },
    {
      "midi": 73,
      "hit": false,
      "t": 76339.24500000039,
      "d": 267.8570000000036,
      "v": 127
    },
    {
      "midi": 52,
      "hit": false,
      "t": 76607.10200000016,
      "d": 535.7140000000072,
      "v": 127
    },
    {
      "midi": 73,
      "hit": false,
      "t": 76607.10200000039,
      "d": 267.8570000000036,
      "v": 127
    },
    {
      "midi": 72,
      "hit": false,
      "t": 76874.9590000004,
      "d": 267.8570000000036,
      "v": 127
    },
    {
      "midi": 53,
      "hit": false,
      "t": 77142.81600000017,
      "d": 535.7140000000072,
      "v": 127
    },
    {
      "midi": 70,
      "hit": false,
      "t": 77142.8160000004,
      "d": 267.8570000000036,
      "v": 127
    },
    {
      "midi": 68,
      "hit": false,
      "t": 77410.6730000004,
      "d": 267.8570000000036,
      "v": 127
    },
    {
      "midi": 46,
      "hit": false,
      "t": 77678.53000000017,
      "d": 1071.4279999999999,
      "v": 127
    },
    {
      "midi": 61,
      "hit": false,
      "t": 77678.5300000004,
      "d": 267.8570000000036,
      "v": 127
    },
    {
      "midi": 67,
      "hit": false,
      "t": 77946.38700000041,
      "d": 267.8570000000036,
      "v": 127
    },
    {
      "midi": 61,
      "hit": false,
      "t": 78214.24400000041,
      "d": 267.8570000000036,
      "v": 127
    },
    {
      "midi": 58,
      "hit": false,
      "t": 78482.10100000042,
      "d": 267.8570000000036,
      "v": 127
    },
    {
      "midi": 48,
      "hit": false,
      "t": 78749.95800000017,
      "d": 535.7140000000072,
      "v": 127
    },
    {
      "midi": 65,
      "hit": false,
      "t": 78749.95800000042,
      "d": 267.8570000000036,
      "v": 127
    },
    {
      "midi": 60,
      "hit": false,
      "t": 79017.81500000042,
      "d": 267.8570000000036,
      "v": 127
    },
    {
      "midi": 64,
      "hit": false,
      "t": 79285.67200000043,
      "d": 267.8570000000036,
      "v": 127
    },
    {
      "midi": 58,
      "hit": false,
      "t": 79553.52900000043,
      "d": 267.8570000000036,
      "v": 127
    },
    {
      "midi": 37,
      "hit": false,
      "t": 79821.38600000019,
      "d": 1071.4279999999999,
      "v": 127
    },
    {
      "midi": 49,
      "hit": false,
      "t": 79821.38600000019,
      "d": 1071.4279999999999,
      "v": 127
    },
    {
      "midi": 53,
      "hit": false,
      "t": 79821.38600000044,
      "d": 267.8570000000036,
      "v": 127
    },
    {
      "midi": 56,
      "hit": false,
      "t": 80089.24300000044,
      "d": 267.8570000000036,
      "v": 127
    },
    {
      "midi": 61,
      "hit": false,
      "t": 80357.10000000044,
      "d": 267.8570000000036,
      "v": 127
    },
    {
      "midi": 65,
      "hit": false,
      "t": 80624.95700000045,
      "d": 267.8570000000036,
      "v": 127
    },
    {
      "midi": 36,
      "hit": false,
      "t": 80892.81400000019,
      "d": 535.7140000000072,
      "v": 127
    },
    {
      "midi": 48,
      "hit": false,
      "t": 80892.81400000019,
      "d": 535.7140000000072,
      "v": 127
    },
    {
      "midi": 54,
      "hit": false,
      "t": 80892.81400000045,
      "d": 267.8570000000036,
      "v": 127
    },
    {
      "midi": 57,
      "hit": false,
      "t": 81160.67100000045,
      "d": 267.8570000000036,
      "v": 127
    },
    {
      "midi": 63,
      "hit": false,
      "t": 81428.52800000046,
      "d": 267.8570000000036,
      "v": 127
    },
    {
      "midi": 66,
      "hit": false,
      "t": 81696.38500000046,
      "d": 267.8570000000036,
      "v": 127
    },
    {
      "midi": 37,
      "hit": false,
      "t": 81964.2420000002,
      "d": 535.7140000000072,
      "v": 127
    },
    {
      "midi": 49,
      "hit": false,
      "t": 81964.2420000002,
      "d": 535.7140000000072,
      "v": 127
    },
    {
      "midi": 58,
      "hit": false,
      "t": 81964.24200000046,
      "d": 535.7140000000072,
      "v": 127
    },
    {
      "midi": 65,
      "hit": false,
      "t": 81964.24200000046,
      "d": 535.7140000000072,
      "v": 127
    },
    {
      "midi": 46,
      "hit": false,
      "t": 84642.81200000021,
      "d": 535.7140000000072,
      "v": 127
    },
    {
      "midi": 70,
      "hit": false,
      "t": 84910.66900000047,
      "d": 267.8570000000036,
      "v": 127
    },
    {
      "midi": 73,
      "hit": false,
      "t": 84910.66900000047,
      "d": 267.8570000000036,
      "v": 127
    },
    {
      "midi": 48,
      "hit": false,
      "t": 85178.52600000022,
      "d": 535.7140000000072,
      "v": 127
    },
    {
      "midi": 68,
      "hit": false,
      "t": 85446.38300000048,
      "d": 267.8570000000036,
      "v": 127
    },
    {
      "midi": 72,
      "hit": false,
      "t": 85446.38300000048,
      "d": 267.8570000000036,
      "v": 127
    },
    {
      "midi": 48,
      "hit": false,
      "t": 85714.24000000022,
      "d": 535.7140000000072,
      "v": 127
    },
    {
      "midi": 58,
      "hit": false,
      "t": 85982.09700000049,
      "d": 267.8570000000036,
      "v": 127
    },
    {
      "midi": 64,
      "hit": false,
      "t": 85982.09700000049,
      "d": 267.8570000000036,
      "v": 127
    },
    {
      "midi": 53,
      "hit": false,
      "t": 86249.95400000023,
      "d": 535.7140000000072,
      "v": 127
    },
    {
      "midi": 65,
      "hit": false,
      "t": 86249.95400000049,
      "d": 535.7140000000072,
      "v": 127
    },
    {
      "midi": 54,
      "hit": false,
      "t": 86785.66800000024,
      "d": 535.7140000000072,
      "v": 127
    },
    {
      "midi": 66,
      "hit": false,
      "t": 86785.6680000005,
      "d": 535.7140000000072,
      "v": 127
    },
    {
      "midi": 51,
      "hit": false,
      "t": 87321.38200000025,
      "d": 535.7140000000072,
      "v": 127
    },
    {
      "midi": 63,
      "hit": false,
      "t": 87321.3820000005,
      "d": 535.7140000000072,
      "v": 127
    },
    {
      "midi": 48,
      "hit": false,
      "t": 87857.09600000025,
      "d": 535.7140000000072,
      "v": 127
    },
    {
      "midi": 60,
      "hit": false,
      "t": 87857.09600000051,
      "d": 535.7140000000072,
      "v": 127
    },
    {
      "midi": 53,
      "hit": false,
      "t": 88392.81000000026,
      "d": 535.7140000000072,
      "v": 127
    },
    {
      "midi": 65,
      "hit": false,
      "t": 88392.81000000052,
      "d": 267.8570000000036,
      "v": 127
    },
    {
      "midi": 61,
      "hit": false,
      "t": 88660.66700000053,
      "d": 267.8570000000036,
      "v": 127
    },
    {
      "midi": 44,
      "hit": false,
      "t": 88928.52400000027,
      "d": 535.7140000000072,
      "v": 127
    },
    {
      "midi": 56,
      "hit": false,
      "t": 88928.52400000053,
      "d": 267.8570000000036,
      "v": 127
    },
    {
      "midi": 68,
      "hit": false,
      "t": 89196.38100000053,
      "d": 267.8570000000036,
      "v": 127
    },
    {
      "midi": 49,
      "hit": false,
      "t": 89464.23800000027,
      "d": 535.7140000000072,
      "v": 127
    },
    {
      "midi": 65,
      "hit": false,
      "t": 89464.23800000054,
      "d": 267.8570000000036,
      "v": 127
    },
    {
      "midi": 61,
      "hit": false,
      "t": 89732.09500000054,
      "d": 267.8570000000036,
      "v": 127
    },
    {
      "midi": 44,
      "hit": false,
      "t": 89999.95200000028,
      "d": 535.7140000000072,
      "v": 127
    },
    {
      "midi": 56,
      "hit": false,
      "t": 89999.95200000054,
      "d": 267.8570000000036,
      "v": 127
    },
    {
      "midi": 68,
      "hit": false,
      "t": 90267.80900000055,
      "d": 267.8570000000036,
      "v": 127
    },
    {
      "midi": 51,
      "hit": false,
      "t": 90535.66600000029,
      "d": 535.7140000000072,
      "v": 127
    },
    {
      "midi": 66,
      "hit": false,
      "t": 90535.66600000055,
      "d": 267.8570000000036,
      "v": 127
    },
    {
      "midi": 63,
      "hit": false,
      "t": 90803.52300000055,
      "d": 267.8570000000036,
      "v": 127
    },
    {
      "midi": 44,
      "hit": false,
      "t": 91071.3800000003,
      "d": 535.7140000000072,
      "v": 127
    },
    {
      "midi": 56,
      "hit": false,
      "t": 91071.38000000056,
      "d": 267.8570000000036,
      "v": 127
    },
    {
      "midi": 68,
      "hit": false,
      "t": 91339.23700000056,
      "d": 267.8570000000036,
      "v": 127
    },
    {
      "midi": 48,
      "hit": false,
      "t": 91607.0940000003,
      "d": 535.7140000000072,
      "v": 127
    },
    {
      "midi": 66,
      "hit": false,
      "t": 91607.09400000056,
      "d": 267.8570000000036,
      "v": 127
    },
    {
      "midi": 63,
      "hit": false,
      "t": 91874.95100000057,
      "d": 267.8570000000036,
      "v": 127
    },
    {
      "midi": 44,
      "hit": false,
      "t": 92142.80800000031,
      "d": 535.7140000000072,
      "v": 127
    },
    {
      "midi": 56,
      "hit": false,
      "t": 92142.80800000057,
      "d": 267.8570000000036,
      "v": 127
    },
    {
      "midi": 68,
      "hit": false,
      "t": 92410.66500000058,
      "d": 267.8570000000036,
      "v": 127
    },
    {
      "midi": 53,
      "hit": false,
      "t": 92678.52200000032,
      "d": 535.7140000000072,
      "v": 127
    },
    {
      "midi": 65,
      "hit": false,
      "t": 92678.52200000058,
      "d": 267.8570000000036,
      "v": 127
    },
    {
      "midi": 61,
      "hit": false,
      "t": 92946.37900000058,
      "d": 267.8570000000036,
      "v": 127
    },
    {
      "midi": 44,
      "hit": false,
      "t": 93214.23600000032,
      "d": 535.7140000000072,
      "v": 127
    },
    {
      "midi": 56,
      "hit": false,
      "t": 93214.23600000059,
      "d": 267.8570000000036,
      "v": 127
    },
    {
      "midi": 68,
      "hit": false,
      "t": 93482.09300000059,
      "d": 267.8570000000036,
      "v": 127
    },
    {
      "midi": 49,
      "hit": false,
      "t": 93749.95000000033,
      "d": 535.7140000000072,
      "v": 127
    },
    {
      "midi": 65,
      "hit": false,
      "t": 93749.9500000006,
      "d": 267.8570000000036,
      "v": 127
    },
    {
      "midi": 61,
      "hit": false,
      "t": 94017.8070000006,
      "d": 267.8570000000036,
      "v": 127
    },
    {
      "midi": 44,
      "hit": false,
      "t": 94285.66400000034,
      "d": 535.7140000000072,
      "v": 127
    },
    {
      "midi": 56,
      "hit": false,
      "t": 94285.6640000006,
      "d": 267.8570000000036,
      "v": 127
    },
    {
      "midi": 68,
      "hit": false,
      "t": 94553.5210000006,
      "d": 267.8570000000036,
      "v": 127
    },
    {
      "midi": 53,
      "hit": false,
      "t": 94821.37800000035,
      "d": 535.7140000000072,
      "v": 127
    },
    {
      "midi": 63,
      "hit": false,
      "t": 94821.37800000061,
      "d": 267.8570000000036,
      "v": 127
    },
    {
      "midi": 60,
      "hit": false,
      "t": 95089.23500000061,
      "d": 267.8570000000036,
      "v": 127
    },
    {
      "midi": 41,
      "hit": false,
      "t": 95357.09200000035,
      "d": 535.7140000000072,
      "v": 127
    },
    {
      "midi": 57,
      "hit": false,
      "t": 95357.09200000062,
      "d": 267.8570000000036,
      "v": 127
    },
    {
      "midi": 69,
      "hit": false,
      "t": 95624.94900000062,
      "d": 267.8570000000036,
      "v": 127
    },
    {
      "midi": 48,
      "hit": false,
      "t": 95892.80600000036,
      "d": 535.7140000000072,
      "v": 127
    },
    {
      "midi": 63,
      "hit": false,
      "t": 95892.80600000062,
      "d": 267.8570000000036,
      "v": 127
    },
    {
      "midi": 60,
      "hit": false,
      "t": 96160.66300000063,
      "d": 267.8570000000036,
      "v": 127
    },
    {
      "midi": 41,
      "hit": false,
      "t": 96428.52000000037,
      "d": 535.7140000000072,
      "v": 127
    },
    {
      "midi": 57,
      "hit": false,
      "t": 96428.52000000063,
      "d": 267.8570000000036,
      "v": 127
    },
    {
      "midi": 69,
      "hit": false,
      "t": 96696.37700000063,
      "d": 267.8570000000036,
      "v": 127
    },
    {
      "midi": 46,
      "hit": false,
      "t": 96964.23400000038,
      "d": 535.7140000000072,
      "v": 127
    },
    {
      "midi": 53,
      "hit": false,
      "t": 96964.23400000038,
      "d": 535.7140000000072,
      "v": 127
    },
    {
      "midi": 61,
      "hit": false,
      "t": 96964.23400000064,
      "d": 535.7140000000072,
      "v": 127
    },
    {
      "midi": 70,
      "hit": false,
      "t": 96964.23400000064,
      "d": 535.7140000000072,
      "v": 127
    },
    {
      "midi": 39,
      "hit": false,
      "t": 99107.09000000039,
      "d": 1607.142000000007,
      "v": 127
    },
    {
      "midi": 51,
      "hit": false,
      "t": 99107.09000000039,
      "d": 1607.142000000007,
      "v": 127
    },
    {
      "midi": 58,
      "hit": false,
      "t": 99107.09000000065,
      "d": 1607.142000000007,
      "v": 127
    },
    {
      "midi": 61,
      "hit": false,
      "t": 99107.09000000065,
      "d": 1607.142000000007,
      "v": 127
    },
    {
      "midi": 67,
      "hit": false,
      "t": 99107.09000000065,
      "d": 1607.142000000007,
      "v": 127
    },
    {
      "midi": 44,
      "hit": false,
      "t": 101785.6600000004,
      "d": 535.7140000000072,
      "v": 127
    },
    {
      "midi": 56,
      "hit": false,
      "t": 101785.6600000004,
      "d": 535.7140000000072,
      "v": 127
    },
    {
      "midi": 60,
      "hit": false,
      "t": 101785.66000000066,
      "d": 535.7140000000072,
      "v": 127
    },
    {
      "midi": 63,
      "hit": false,
      "t": 101785.66000000066,
      "d": 535.7140000000072,
      "v": 127
    },
    {
      "midi": 68,
      "hit": false,
      "t": 101785.66000000066,
      "d": 535.7140000000072,
      "v": 127
    },
    {
      "midi": 41,
      "hit": false,
      "t": 102321.3740000004,
      "d": 535.7140000000072,
      "v": 127
    },
    {
      "midi": 53,
      "hit": false,
      "t": 102321.3740000004,
      "d": 535.7140000000072,
      "v": 127
    },
    {
      "midi": 60,
      "hit": false,
      "t": 102321.37400000067,
      "d": 535.7140000000072,
      "v": 127
    },
    {
      "midi": 65,
      "hit": false,
      "t": 102321.37400000067,
      "d": 535.7140000000072,
      "v": 127
    },
    {
      "midi": 68,
      "hit": false,
      "t": 102321.37400000067,
      "d": 535.7140000000072,
      "v": 127
    },
    {
      "midi": 37,
      "hit": false,
      "t": 103392.80200000042,
      "d": 1607.142000000007,
      "v": 127
    },
    {
      "midi": 49,
      "hit": false,
      "t": 103392.80200000042,
      "d": 1607.142000000007,
      "v": 127
    },
    {
      "midi": 58,
      "hit": false,
      "t": 103392.80200000068,
      "d": 1607.142000000007,
      "v": 127
    },
    {
      "midi": 65,
      "hit": false,
      "t": 103392.80200000068,
      "d": 1607.142000000007,
      "v": 127
    },
    {
      "midi": 68,
      "hit": false,
      "t": 103392.80200000068,
      "d": 1607.142000000007,
      "v": 127
    },
    {
      "midi": 38,
      "hit": false,
      "t": 104999.94400000043,
      "d": 535.7140000000072,
      "v": 127
    },
    {
      "midi": 50,
      "hit": false,
      "t": 104999.94400000043,
      "d": 535.7140000000072,
      "v": 127
    },
    {
      "midi": 39,
      "hit": false,
      "t": 105535.65800000043,
      "d": 535.7140000000072,
      "v": 127
    },
    {
      "midi": 51,
      "hit": false,
      "t": 105535.65800000043,
      "d": 535.7140000000072,
      "v": 127
    },
    {
      "midi": 67,
      "hit": false,
      "t": 105535.6580000007,
      "d": 267.8570000000036,
      "v": 127
    },
    {
      "midi": 75,
      "hit": false,
      "t": 105803.5150000007,
      "d": 267.8570000000036,
      "v": 127
    },
    {
      "midi": 46,
      "hit": false,
      "t": 106071.37200000044,
      "d": 535.7140000000072,
      "v": 127
    },
    {
      "midi": 79,
      "hit": false,
      "t": 106071.3720000007,
      "d": 267.8570000000036,
      "v": 127
    },
    {
      "midi": 77,
      "hit": false,
      "t": 106339.2290000007,
      "d": 267.8570000000036,
      "v": 127
    },
    {
      "midi": 55,
      "hit": false,
      "t": 106607.08600000045,
      "d": 535.7140000000072,
      "v": 127
    },
    {
      "midi": 75,
      "hit": false,
      "t": 106607.08600000071,
      "d": 267.8570000000036,
      "v": 127
    },
    {
      "midi": 74,
      "hit": false,
      "t": 106874.94300000071,
      "d": 267.8570000000036,
      "v": 127
    },
    {
      "midi": 46,
      "hit": false,
      "t": 107142.80000000045,
      "d": 535.7140000000072,
      "v": 127
    },
    {
      "midi": 72,
      "hit": false,
      "t": 107142.80000000072,
      "d": 267.8570000000036,
      "v": 127
    },
    {
      "midi": 70,
      "hit": false,
      "t": 107410.65700000072,
      "d": 267.8570000000036,
      "v": 127
    },
    {
      "midi": 53,
      "hit": false,
      "t": 107678.51400000046,
      "d": 535.7140000000072,
      "v": 127
    },
    {
      "midi": 68,
      "hit": false,
      "t": 107678.51400000072,
      "d": 267.8570000000036,
      "v": 127
    },
    {
      "midi": 67,
      "hit": false,
      "t": 107946.37100000073,
      "d": 267.8570000000036,
      "v": 127
    },
    {
      "midi": 46,
      "hit": false,
      "t": 108214.22800000047,
      "d": 535.7140000000072,
      "v": 127
    },
    {
      "midi": 65,
      "hit": false,
      "t": 108214.22800000073,
      "d": 267.8570000000036,
      "v": 127
    },
    {
      "midi": 63,
      "hit": false,
      "t": 108482.08500000073,
      "d": 267.8570000000036,
      "v": 127
    },
    {
      "midi": 53,
      "hit": false,
      "t": 108749.94200000048,
      "d": 535.7140000000072,
      "v": 127
    },
    {
      "midi": 62,
      "hit": false,
      "t": 108749.94200000074,
      "d": 267.8570000000036,
      "v": 127
    },
    {
      "midi": 63,
      "hit": false,
      "t": 109017.79900000074,
      "d": 267.8570000000036,
      "v": 127
    },
    {
      "midi": 46,
      "hit": false,
      "t": 109285.65600000048,
      "d": 535.7140000000072,
      "v": 127
    },
    {
      "midi": 65,
      "hit": false,
      "t": 109285.65600000074,
      "d": 267.8570000000036,
      "v": 127
    },
    {
      "midi": 62,
      "hit": false,
      "t": 109553.51300000075,
      "d": 267.8570000000036,
      "v": 127
    },
    {
      "midi": 51,
      "hit": false,
      "t": 109821.37000000049,
      "d": 535.7140000000072,
      "v": 127
    },
    {
      "midi": 63,
      "hit": false,
      "t": 109821.37000000075,
      "d": 267.8570000000036,
      "v": 127
    },
    {
      "midi": 75,
      "hit": false,
      "t": 110089.22700000076,
      "d": 267.8570000000036,
      "v": 127
    },
    {
      "midi": 46,
      "hit": false,
      "t": 110357.0840000005,
      "d": 535.7140000000072,
      "v": 127
    },
    {
      "midi": 79,
      "hit": false,
      "t": 110357.08400000076,
      "d": 267.8570000000036,
      "v": 127
    },
    {
      "midi": 77,
      "hit": false,
      "t": 110624.94100000076,
      "d": 267.8570000000036,
      "v": 127
    },
    {
      "midi": 55,
      "hit": false,
      "t": 110892.7980000005,
      "d": 535.7140000000072,
      "v": 127
    },
    {
      "midi": 75,
      "hit": false,
      "t": 110892.79800000077,
      "d": 267.8570000000036,
      "v": 127
    },
    {
      "midi": 74,
      "hit": false,
      "t": 111160.65500000077,
      "d": 267.8570000000036,
      "v": 127
    },
    {
      "midi": 46,
      "hit": false,
      "t": 111428.51200000051,
      "d": 535.7140000000072,
      "v": 127
    },
    {
      "midi": 72,
      "hit": false,
      "t": 111428.51200000077,
      "d": 267.8570000000036,
      "v": 127
    },
    {
      "midi": 70,
      "hit": false,
      "t": 111696.36900000078,
      "d": 267.8570000000036,
      "v": 127
    },
    {
      "midi": 53,
      "hit": false,
      "t": 111964.22600000052,
      "d": 535.7140000000072,
      "v": 127
    },
    {
      "midi": 68,
      "hit": false,
      "t": 111964.22600000078,
      "d": 267.8570000000036,
      "v": 127
    },
    {
      "midi": 67,
      "hit": false,
      "t": 112232.08300000078,
      "d": 267.8570000000036,
      "v": 127
    },
    {
      "midi": 46,
      "hit": false,
      "t": 112499.94000000053,
      "d": 535.7140000000072,
      "v": 127
    },
    {
      "midi": 65,
      "hit": false,
      "t": 112499.94000000079,
      "d": 267.8570000000036,
      "v": 127
    },
    {
      "midi": 63,
      "hit": false,
      "t": 112767.79700000079,
      "d": 267.8570000000036,
      "v": 127
    },
    {
      "midi": 53,
      "hit": false,
      "t": 113035.65400000053,
      "d": 535.7140000000072,
      "v": 127
    },
    {
      "midi": 62,
      "hit": false,
      "t": 113035.6540000008,
      "d": 267.8570000000036,
      "v": 127
    },
    {
      "midi": 60,
      "hit": false,
      "t": 113303.5110000008,
      "d": 267.8570000000036,
      "v": 127
    },
    {
      "midi": 46,
      "hit": false,
      "t": 113571.36800000054,
      "d": 535.7140000000072,
      "v": 127
    },
    {
      "midi": 58,
      "hit": false,
      "t": 113571.3680000008,
      "d": 267.8570000000036,
      "v": 127
    },
    {
      "midi": 56,
      "hit": false,
      "t": 113839.2250000008,
      "d": 267.8570000000036,
      "v": 127
    },
    {
      "midi": 39,
      "hit": false,
      "t": 114107.08200000055,
      "d": 535.7140000000072,
      "v": 127
    },
    {
      "midi": 51,
      "hit": false,
      "t": 114107.08200000055,
      "d": 535.7140000000072,
      "v": 127
    },
    {
      "midi": 55,
      "hit": false,
      "t": 114107.08200000081,
      "d": 535.7140000000072,
      "v": 127
    },
    {
      "midi": 36,
      "hit": false,
      "t": 115178.51000000056,
      "d": 535.7140000000072,
      "v": 127
    },
    {
      "midi": 48,
      "hit": false,
      "t": 115178.51000000056,
      "d": 535.7140000000072,
      "v": 127
    },
    {
      "midi": 69,
      "hit": false,
      "t": 115178.51000000082,
      "d": 535.7140000000072,
      "v": 127
    },
    {
      "midi": 75,
      "hit": false,
      "t": 115178.51000000082,
      "d": 535.7140000000072,
      "v": 127
    },
    {
      "midi": 78,
      "hit": false,
      "t": 115178.51000000082,
      "d": 535.7140000000072,
      "v": 127
    },
    {
      "midi": 63,
      "hit": false,
      "t": 116517.79500000057,
      "d": 267.8570000000036,
      "v": 127
    },
    {
      "midi": 66,
      "hit": false,
      "t": 116517.79500000083,
      "d": 267.8570000000036,
      "v": 127
    },
    {
      "midi": 69,
      "hit": false,
      "t": 116517.79500000083,
      "d": 267.8570000000036,
      "v": 127
    },
    {
      "midi": 61,
      "hit": false,
      "t": 116785.65200000057,
      "d": 267.8570000000036,
      "v": 127
    },
    {
      "midi": 65,
      "hit": false,
      "t": 116785.65200000083,
      "d": 267.8570000000036,
      "v": 127
    },
    {
      "midi": 70,
      "hit": false,
      "t": 116785.65200000083,
      "d": 267.8570000000036,
      "v": 127
    },
    {
      "midi": 60,
      "hit": false,
      "t": 117053.50900000057,
      "d": 267.8570000000036,
      "v": 127
    },
    {
      "midi": 69,
      "hit": false,
      "t": 117053.50900000083,
      "d": 267.8570000000036,
      "v": 127
    },
    {
      "midi": 72,
      "hit": false,
      "t": 117053.50900000083,
      "d": 267.8570000000036,
      "v": 127
    },
    {
      "midi": 58,
      "hit": false,
      "t": 117321.36600000058,
      "d": 535.7140000000072,
      "v": 127
    },
    {
      "midi": 70,
      "hit": false,
      "t": 117321.36600000084,
      "d": 267.8570000000036,
      "v": 127
    },
    {
      "midi": 73,
      "hit": false,
      "t": 117321.36600000084,
      "d": 267.8570000000036,
      "v": 127
    },
    {
      "midi": 72,
      "hit": false,
      "t": 117589.22300000084,
      "d": 267.8570000000036,
      "v": 127
    },
    {
      "midi": 75,
      "hit": false,
      "t": 117589.22300000084,
      "d": 267.8570000000036,
      "v": 127
    },
    {
      "midi": 56,
      "hit": false,
      "t": 117857.08000000058,
      "d": 267.8570000000036,
      "v": 127
    },
    {
      "midi": 72,
      "hit": false,
      "t": 117857.08000000085,
      "d": 267.8570000000036,
      "v": 127
    },
    {
      "midi": 75,
      "hit": false,
      "t": 117857.08000000085,
      "d": 267.8570000000036,
      "v": 127
    },
    {
      "midi": 55,
      "hit": false,
      "t": 118124.93700000059,
      "d": 267.8570000000036,
      "v": 127
    },
    {
      "midi": 73,
      "hit": false,
      "t": 118124.93700000085,
      "d": 267.8570000000036,
      "v": 127
    },
    {
      "midi": 77,
      "hit": false,
      "t": 118124.93700000085,
      "d": 267.8570000000036,
      "v": 127
    },
    {
      "midi": 56,
      "hit": false,
      "t": 118392.79400000059,
      "d": 535.7140000000072,
      "v": 127
    },
    {
      "midi": 73,
      "hit": false,
      "t": 118392.79400000085,
      "d": 267.8570000000036,
      "v": 127
    },
    {
      "midi": 77,
      "hit": false,
      "t": 118392.79400000085,
      "d": 267.8570000000036,
      "v": 127
    },
    {
      "midi": 72,
      "hit": false,
      "t": 118660.65100000086,
      "d": 267.8570000000036,
      "v": 127
    },
    {
      "midi": 75,
      "hit": false,
      "t": 118660.65100000086,
      "d": 267.8570000000036,
      "v": 127
    },
    {
      "midi": 70,
      "hit": false,
      "t": 118928.50800000086,
      "d": 267.8570000000036,
      "v": 127
    },
    {
      "midi": 73,
      "hit": false,
      "t": 118928.50800000086,
      "d": 267.8570000000036,
      "v": 127
    },
    {
      "midi": 68,
      "hit": false,
      "t": 119196.36500000086,
      "d": 267.8570000000036,
      "v": 127
    },
    {
      "midi": 72,
      "hit": false,
      "t": 119196.36500000086,
      "d": 267.8570000000036,
      "v": 127
    },
    {
      "midi": 51,
      "hit": false,
      "t": 119464.2220000006,
      "d": 535.7140000000072,
      "v": 127
    },
    {
      "midi": 63,
      "hit": false,
      "t": 119464.22200000087,
      "d": 267.8570000000036,
      "v": 127
    },
    {
      "midi": 72,
      "hit": false,
      "t": 119464.22200000087,
      "d": 267.8570000000036,
      "v": 127
    },
    {
      "midi": 61,
      "hit": false,
      "t": 119732.07900000087,
      "d": 267.8570000000036,
      "v": 127
    },
    {
      "midi": 70,
      "hit": false,
      "t": 119732.07900000087,
      "d": 267.8570000000036,
      "v": 127
    },
    {
      "midi": 60,
      "hit": false,
      "t": 119999.93600000087,
      "d": 267.8570000000036,
      "v": 127
    },
    {
      "midi": 68,
      "hit": false,
      "t": 119999.93600000087,
      "d": 267.8570000000036,
      "v": 127
    },
    {
      "midi": 58,
      "hit": false,
      "t": 120267.79300000088,
      "d": 267.8570000000036,
      "v": 127
    },
    {
      "midi": 67,
      "hit": false,
      "t": 120267.79300000088,
      "d": 267.8570000000036,
      "v": 127
    },
    {
      "midi": 48,
      "hit": false,
      "t": 120535.65000000062,
      "d": 535.7140000000072,
      "v": 127
    },
    {
      "midi": 60,
      "hit": false,
      "t": 120535.65000000088,
      "d": 267.8570000000036,
      "v": 127
    },
    {
      "midi": 56,
      "hit": false,
      "t": 120803.50700000089,
      "d": 267.8570000000036,
      "v": 127
    },
    {
      "midi": 39,
      "hit": false,
      "t": 121071.36400000063,
      "d": 535.7140000000072,
      "v": 127
    },
    {
      "midi": 51,
      "hit": false,
      "t": 121071.36400000089,
      "d": 267.8570000000036,
      "v": 127
    },
    {
      "midi": 63,
      "hit": false,
      "t": 121339.22100000089,
      "d": 267.8570000000036,
      "v": 127
    },
    {
      "midi": 44,
      "hit": false,
      "t": 121607.07800000063,
      "d": 535.7140000000072,
      "v": 127
    },
    {
      "midi": 60,
      "hit": false,
      "t": 121607.0780000009,
      "d": 267.8570000000036,
      "v": 127
    },
    {
      "midi": 56,
      "hit": false,
      "t": 121874.9350000009,
      "d": 267.8570000000036,
      "v": 127
    },
    {
      "midi": 39,
      "hit": false,
      "t": 122142.79200000064,
      "d": 535.7140000000072,
      "v": 127
    },
    {
      "midi": 51,
      "hit": false,
      "t": 122142.7920000009,
      "d": 267.8570000000036,
      "v": 127
    },
    {
      "midi": 63,
      "hit": false,
      "t": 122410.6490000009,
      "d": 267.8570000000036,
      "v": 127
    },
    {
      "midi": 46,
      "hit": false,
      "t": 122678.50600000065,
      "d": 535.7140000000072,
      "v": 127
    },
    {
      "midi": 61,
      "hit": false,
      "t": 122678.50600000091,
      "d": 267.8570000000036,
      "v": 127
    },
    {
      "midi": 58,
      "hit": false,
      "t": 122946.36300000091,
      "d": 267.8570000000036,
      "v": 127
    },
    {
      "midi": 39,
      "hit": false,
      "t": 123214.22000000066,
      "d": 535.7140000000072,
      "v": 127
    },
    {
      "midi": 51,
      "hit": false,
      "t": 123214.22000000092,
      "d": 267.8570000000036,
      "v": 127
    },
    {
      "midi": 63,
      "hit": false,
      "t": 123482.07700000092,
      "d": 267.8570000000036,
      "v": 127
    },
    {
      "midi": 43,
      "hit": false,
      "t": 123749.93400000066,
      "d": 535.7140000000072,
      "v": 127
    },
    {
      "midi": 61,
      "hit": false,
      "t": 123749.93400000093,
      "d": 267.8570000000036,
      "v": 127
    },
    {
      "midi": 58,
      "hit": false,
      "t": 124017.79100000093,
      "d": 267.8570000000036,
      "v": 127
    },
    {
      "midi": 39,
      "hit": false,
      "t": 124285.64800000067,
      "d": 535.7140000000072,
      "v": 127
    },
    {
      "midi": 51,
      "hit": false,
      "t": 124285.64800000093,
      "d": 267.8570000000036,
      "v": 127
    },
    {
      "midi": 63,
      "hit": false,
      "t": 124553.50500000094,
      "d": 267.8570000000036,
      "v": 127
    },
    {
      "midi": 48,
      "hit": false,
      "t": 124821.36200000068,
      "d": 535.7140000000072,
      "v": 127
    },
    {
      "midi": 60,
      "hit": false,
      "t": 124821.36200000094,
      "d": 267.8570000000036,
      "v": 127
    },
    {
      "midi": 56,
      "hit": false,
      "t": 125089.21900000094,
      "d": 267.8570000000036,
      "v": 127
    },
    {
      "midi": 39,
      "hit": false,
      "t": 125357.07600000068,
      "d": 535.7140000000072,
      "v": 127
    },
    {
      "midi": 51,
      "hit": false,
      "t": 125357.07600000095,
      "d": 267.8570000000036,
      "v": 127
    },
    {
      "midi": 63,
      "hit": false,
      "t": 125624.93300000095,
      "d": 267.8570000000036,
      "v": 127
    },
    {
      "midi": 44,
      "hit": false,
      "t": 125892.79000000069,
      "d": 535.7140000000072,
      "v": 127
    },
    {
      "midi": 60,
      "hit": false,
      "t": 125892.79000000095,
      "d": 267.8570000000036,
      "v": 127
    },
    {
      "midi": 56,
      "hit": false,
      "t": 126160.64700000096,
      "d": 267.8570000000036,
      "v": 127
    },
    {
      "midi": 39,
      "hit": false,
      "t": 126428.5040000007,
      "d": 535.7140000000072,
      "v": 127
    },
    {
      "midi": 51,
      "hit": false,
      "t": 126428.50400000096,
      "d": 267.8570000000036,
      "v": 127
    },
    {
      "midi": 63,
      "hit": false,
      "t": 126696.36100000096,
      "d": 267.8570000000036,
      "v": 127
    },
    {
      "midi": 51,
      "hit": false,
      "t": 126964.2180000007,
      "d": 535.7140000000072,
      "v": 127
    },
    {
      "midi": 60,
      "hit": false,
      "t": 126964.21800000097,
      "d": 267.8570000000036,
      "v": 127
    },
    {
      "midi": 57,
      "hit": false,
      "t": 127232.07500000097,
      "d": 267.8570000000036,
      "v": 127
    },
    {
      "midi": 41,
      "hit": false,
      "t": 127499.93200000071,
      "d": 535.7140000000072,
      "v": 127
    },
    {
      "midi": 53,
      "hit": false,
      "t": 127499.93200000098,
      "d": 267.8570000000036,
      "v": 127
    },
    {
      "midi": 63,
      "hit": false,
      "t": 127767.78900000098,
      "d": 267.8570000000036,
      "v": 127
    },
    {
      "midi": 48,
      "hit": false,
      "t": 128035.64600000072,
      "d": 535.7140000000072,
      "v": 127
    },
    {
      "midi": 60,
      "hit": false,
      "t": 128035.64600000098,
      "d": 267.8570000000036,
      "v": 127
    },
    {
      "midi": 57,
      "hit": false,
      "t": 128303.50300000099,
      "d": 267.8570000000036,
      "v": 127
    },
    {
      "midi": 41,
      "hit": false,
      "t": 128571.36000000073,
      "d": 535.7140000000072,
      "v": 127
    },
    {
      "midi": 53,
      "hit": false,
      "t": 128571.36000000099,
      "d": 267.8570000000036,
      "v": 127
    },
    {
      "midi": 63,
      "hit": false,
      "t": 128839.217000001,
      "d": 267.8570000000036,
      "v": 127
    },
    {
      "midi": 46,
      "hit": false,
      "t": 129107.07400000074,
      "d": 535.7140000000072,
      "v": 127
    },
    {
      "midi": 49,
      "hit": false,
      "t": 129107.07400000074,
      "d": 535.7140000000072,
      "v": 127
    },
    {
      "midi": 53,
      "hit": false,
      "t": 129107.074000001,
      "d": 535.7140000000072,
      "v": 127
    },
    {
      "midi": 58,
      "hit": false,
      "t": 129107.074000001,
      "d": 535.7140000000072,
      "v": 127
    },
    {
      "midi": 61,
      "hit": false,
      "t": 129107.074000001,
      "d": 535.7140000000072,
      "v": 127
    },
    {
      "midi": 63,
      "hit": false,
      "t": 131249.93000000075,
      "d": 1607.1419999999925,
      "v": 127
    },
    {
      "midi": 71,
      "hit": false,
      "t": 131249.930000001,
      "d": 1071.4280000000144,
      "v": 127
    },
    {
      "midi": 75,
      "hit": false,
      "t": 132321.35800000103,
      "d": 535.7140000000072,
      "v": 127
    },
    {
      "midi": 71,
      "hit": false,
      "t": 132857.07200000103,
      "d": 535.7140000000072,
      "v": 127
    },
    {
      "midi": 69,
      "hit": false,
      "t": 133392.78600000104,
      "d": 535.7140000000072,
      "v": 127
    },
    {
      "midi": 61,
      "hit": false,
      "t": 133928.50000000076,
      "d": 1071.4280000000144,
      "v": 127
    },
    {
      "midi": 70,
      "hit": false,
      "t": 133928.50000000105,
      "d": 1071.4280000000144,
      "v": 127
    },
    {
      "midi": 49,
      "hit": false,
      "t": 135535.64200000078,
      "d": 1607.1419999999925,
      "v": 127
    },
    {
      "midi": 65,
      "hit": false,
      "t": 135535.64200000107,
      "d": 1607.1419999999925,
      "v": 127
    },
    {
      "midi": 68,
      "hit": false,
      "t": 135535.64200000107,
      "d": 1607.1419999999925,
      "v": 127
    },
    {
      "midi": 73,
      "hit": false,
      "t": 135535.64200000107,
      "d": 1607.1419999999925,
      "v": 127
    },
    {
      "midi": 44,
      "hit": false,
      "t": 137678.49800000078,
      "d": 1071.4280000000144,
      "v": 127
    },
    {
      "midi": 56,
      "hit": false,
      "t": 137678.49800000078,
      "d": 1071.4280000000144,
      "v": 127
    },
    {
      "midi": 60,
      "hit": false,
      "t": 137678.49800000107,
      "d": 535.7140000000072,
      "v": 127
    },
    {
      "midi": 65,
      "hit": false,
      "t": 137678.49800000107,
      "d": 535.7140000000072,
      "v": 127
    },
    {
      "midi": 72,
      "hit": false,
      "t": 137678.49800000107,
      "d": 535.7140000000072,
      "v": 127
    },
    {
      "midi": 71,
      "hit": false,
      "t": 138214.21200000108,
      "d": 535.7140000000072,
      "v": 127
    },
    {
      "midi": 43,
      "hit": false,
      "t": 138749.9260000008,
      "d": 535.7140000000072,
      "v": 127
    },
    {
      "midi": 55,
      "hit": false,
      "t": 138749.9260000008,
      "d": 535.7140000000072,
      "v": 127
    },
    {
      "midi": 67,
      "hit": false,
      "t": 138749.92600000108,
      "d": 535.7140000000072,
      "v": 127
    },
    {
      "midi": 41,
      "hit": false,
      "t": 139285.6400000008,
      "d": 535.7140000000072,
      "v": 127
    },
    {
      "midi": 53,
      "hit": false,
      "t": 139285.6400000008,
      "d": 535.7140000000072,
      "v": 127
    },
    {
      "midi": 68,
      "hit": false,
      "t": 139285.6400000011,
      "d": 803.5709999999963,
      "v": 127
    },
    {
      "midi": 40,
      "hit": false,
      "t": 139821.3540000008,
      "d": 535.7140000000072,
      "v": 127
    },
    {
      "midi": 52,
      "hit": false,
      "t": 139821.3540000008,
      "d": 535.7140000000072,
      "v": 127
    },
    {
      "midi": 60,
      "hit": false,
      "t": 140089.2110000011,
      "d": 267.85699999998906,
      "v": 127
    },
    {
      "midi": 67,
      "hit": false,
      "t": 140089.2110000011,
      "d": 267.85699999998906,
      "v": 127
    },
    {
      "midi": 70,
      "hit": false,
      "t": 140357.06800000108,
      "d": 267.85699999998906,
      "v": 127
    },
    {
      "midi": 67,
      "hit": false,
      "t": 140624.92500000107,
      "d": 267.85699999998906,
      "v": 127
    },
    {
      "midi": 36,
      "hit": false,
      "t": 140892.78200000082,
      "d": 535.7140000000072,
      "v": 127
    },
    {
      "midi": 48,
      "hit": false,
      "t": 140892.78200000082,
      "d": 535.7140000000072,
      "v": 127
    },
    {
      "midi": 64,
      "hit": false,
      "t": 141160.63900000104,
      "d": 267.85699999998906,
      "v": 127
    },
    {
      "midi": 67,
      "hit": false,
      "t": 141160.63900000104,
      "d": 267.85699999998906,
      "v": 127
    },
    {
      "midi": 70,
      "hit": false,
      "t": 141428.49600000103,
      "d": 267.85699999998906,
      "v": 127
    },
    {
      "midi": 67,
      "hit": false,
      "t": 141696.35300000102,
      "d": 267.85699999998906,
      "v": 127
    },
    {
      "midi": 37,
      "hit": false,
      "t": 141964.21000000084,
      "d": 535.7140000000072,
      "v": 127
    },
    {
      "midi": 49,
      "hit": false,
      "t": 141964.21000000084,
      "d": 535.7140000000072,
      "v": 127
    },
    {
      "midi": 56,
      "hit": false,
      "t": 142232.067000001,
      "d": 267.85699999998906,
      "v": 127
    },
    {
      "midi": 65,
      "hit": false,
      "t": 142232.067000001,
      "d": 267.85699999998906,
      "v": 127
    },
    {
      "midi": 68,
      "hit": false,
      "t": 142499.924000001,
      "d": 267.85699999998906,
      "v": 127
    },
    {
      "midi": 65,
      "hit": false,
      "t": 142767.78100000098,
      "d": 267.85699999998906,
      "v": 127
    },
    {
      "midi": 32,
      "hit": false,
      "t": 143035.63800000085,
      "d": 535.7140000000072,
      "v": 127
    },
    {
      "midi": 44,
      "hit": false,
      "t": 143035.63800000085,
      "d": 535.7140000000072,
      "v": 127
    },
    {
      "midi": 60,
      "hit": false,
      "t": 143303.49500000096,
      "d": 267.85699999998906,
      "v": 127
    },
    {
      "midi": 65,
      "hit": false,
      "t": 143303.49500000096,
      "d": 267.85699999998906,
      "v": 127
    },
    {
      "midi": 68,
      "hit": false,
      "t": 143571.35200000094,
      "d": 267.85699999998906,
      "v": 127
    },
    {
      "midi": 65,
      "hit": false,
      "t": 143839.20900000093,
      "d": 267.85699999998906,
      "v": 127
    },
    {
      "midi": 34,
      "hit": false,
      "t": 144107.06600000086,
      "d": 1607.1419999999925,
      "v": 127
    },
    {
      "midi": 46,
      "hit": false,
      "t": 144107.06600000086,
      "d": 1607.1419999999925,
      "v": 127
    },
    {
      "midi": 58,
      "hit": false,
      "t": 144107.06600000092,
      "d": 1607.1419999999925,
      "v": 127
    },
    {
      "midi": 61,
      "hit": false,
      "t": 144107.06600000092,
      "d": 1607.1419999999925,
      "v": 127
    },
    {
      "midi": 66,
      "hit": false,
      "t": 144107.06600000092,
      "d": 1607.1419999999925,
      "v": 127
    },
    {
      "midi": 36,
      "hit": false,
      "t": 146249.92200000086,
      "d": 1071.4280000000144,
      "v": 127
    },
    {
      "midi": 48,
      "hit": false,
      "t": 146249.92200000086,
      "d": 1071.4280000000144,
      "v": 127
    },
    {
      "midi": 56,
      "hit": false,
      "t": 146249.92200000092,
      "d": 535.7140000000072,
      "v": 127
    },
    {
      "midi": 60,
      "hit": false,
      "t": 146249.92200000092,
      "d": 535.7140000000072,
      "v": 127
    },
    {
      "midi": 65,
      "hit": false,
      "t": 146249.92200000092,
      "d": 535.7140000000072,
      "v": 127
    },
    {
      "midi": 55,
      "hit": false,
      "t": 146785.63600000093,
      "d": 1071.4280000000144,
      "v": 127
    },
    {
      "midi": 64,
      "hit": false,
      "t": 146785.63600000093,
      "d": 1071.4280000000144,
      "v": 127
    },
    {
      "midi": 61,
      "hit": false,
      "t": 148392.7780000009,
      "d": 1607.1419999999925,
      "v": 127
    },
    {
      "midi": 65,
      "hit": false,
      "t": 148392.77800000095,
      "d": 1607.1419999999925,
      "v": 127
    },
    {
      "midi": 67,
      "hit": false,
      "t": 148392.77800000095,
      "d": 1607.1419999999925,
      "v": 127
    },
    {
      "midi": 70,
      "hit": false,
      "t": 148392.77800000095,
      "d": 1607.1419999999925,
      "v": 127
    },
    {
      "midi": 60,
      "hit": false,
      "t": 151071.3480000009,
      "d": 535.7140000000072,
      "v": 127
    },
    {
      "midi": 64,
      "hit": false,
      "t": 151071.34800000096,
      "d": 535.7140000000072,
      "v": 127
    },
    {
      "midi": 67,
      "hit": false,
      "t": 151071.34800000096,
      "d": 535.7140000000072,
      "v": 127
    },
    {
      "midi": 70,
      "hit": false,
      "t": 151071.34800000096,
      "d": 535.7140000000072,
      "v": 127
    },
    {
      "midi": 60,
      "hit": false,
      "t": 151607.0620000009,
      "d": 535.7140000000072,
      "v": 127
    },
    {
      "midi": 64,
      "hit": false,
      "t": 151607.06200000097,
      "d": 535.7140000000072,
      "v": 127
    },
    {
      "midi": 67,
      "hit": false,
      "t": 151607.06200000097,
      "d": 535.7140000000072,
      "v": 127
    },
    {
      "midi": 70,
      "hit": false,
      "t": 151607.06200000097,
      "d": 535.7140000000072,
      "v": 127
    },
    {
      "midi": 60,
      "hit": false,
      "t": 152142.77600000091,
      "d": 535.7140000000072,
      "v": 127
    },
    {
      "midi": 64,
      "hit": false,
      "t": 152142.77600000097,
      "d": 535.7140000000072,
      "v": 127
    },
    {
      "midi": 67,
      "hit": false,
      "t": 152142.77600000097,
      "d": 535.7140000000072,
      "v": 127
    },
    {
      "midi": 70,
      "hit": false,
      "t": 152142.77600000097,
      "d": 535.7140000000072,
      "v": 127
    },
    {
      "midi": 61,
      "hit": false,
      "t": 152678.49000000092,
      "d": 1607.1419999999925,
      "v": 127
    },
    {
      "midi": 67,
      "hit": false,
      "t": 152678.49000000098,
      "d": 1607.1419999999925,
      "v": 127
    },
    {
      "midi": 70,
      "hit": false,
      "t": 152678.49000000098,
      "d": 1607.1419999999925,
      "v": 127
    },
    {
      "midi": 77,
      "hit": false,
      "t": 152678.49000000098,
      "d": 1607.1419999999925,
      "v": 127
    },
    {
      "midi": 67,
      "hit": false,
      "t": 154821.34600000098,
      "d": 1607.1419999999925,
      "v": 127
    },
    {
      "midi": 70,
      "hit": false,
      "t": 154821.34600000098,
      "d": 1607.1419999999925,
      "v": 127
    },
    {
      "midi": 76,
      "hit": false,
      "t": 154821.34600000098,
      "d": 1607.1419999999925,
      "v": 127
    },
    {
      "midi": 49,
      "hit": false,
      "t": 155357.06000000093,
      "d": 535.7140000000072,
      "v": 127
    },
    {
      "midi": 61,
      "hit": false,
      "t": 155357.06000000093,
      "d": 535.7140000000072,
      "v": 127
    },
    {
      "midi": 46,
      "hit": false,
      "t": 155892.77400000094,
      "d": 535.7140000000072,
      "v": 127
    },
    {
      "midi": 58,
      "hit": false,
      "t": 155892.77400000094,
      "d": 535.7140000000072,
      "v": 127
    },
    {
      "midi": 43,
      "hit": false,
      "t": 156428.48800000094,
      "d": 535.7140000000072,
      "v": 127
    },
    {
      "midi": 55,
      "hit": false,
      "t": 156428.48800000094,
      "d": 535.7140000000072,
      "v": 127
    },
    {
      "midi": 40,
      "hit": false,
      "t": 156964.20200000095,
      "d": 1071.4280000000144,
      "v": 127
    },
    {
      "midi": 52,
      "hit": false,
      "t": 156964.20200000095,
      "d": 1071.4280000000144,
      "v": 127
    },
    {
      "midi": 70,
      "hit": false,
      "t": 156964.20200000098,
      "d": 1071.4280000000144,
      "v": 127
    },
    {
      "midi": 76,
      "hit": false,
      "t": 156964.20200000098,
      "d": 1071.4280000000144,
      "v": 127
    },
    {
      "midi": 79,
      "hit": false,
      "t": 156964.20200000098,
      "d": 1071.4280000000144,
      "v": 127
    },
    {
      "midi": 37,
      "hit": false,
      "t": 158035.63000000097,
      "d": 535.7140000000072,
      "v": 127
    },
    {
      "midi": 49,
      "hit": false,
      "t": 158035.63000000097,
      "d": 535.7140000000072,
      "v": 127
    },
    {
      "midi": 76,
      "hit": false,
      "t": 158035.630000001,
      "d": 535.7140000000072,
      "v": 127
    },
    {
      "midi": 79,
      "hit": false,
      "t": 158035.630000001,
      "d": 535.7140000000072,
      "v": 127
    },
    {
      "midi": 82,
      "hit": false,
      "t": 158035.630000001,
      "d": 535.7140000000072,
      "v": 127
    },
    {
      "midi": 36,
      "hit": false,
      "t": 159107.05800000098,
      "d": 1071.4280000000144,
      "v": 127
    },
    {
      "midi": 48,
      "hit": false,
      "t": 159107.05800000098,
      "d": 1071.4280000000144,
      "v": 127
    },
    {
      "midi": 55,
      "hit": false,
      "t": 159107.058000001,
      "d": 1071.4280000000144,
      "v": 127
    },
    {
      "midi": 58,
      "hit": false,
      "t": 159107.058000001,
      "d": 1071.4280000000144,
      "v": 127
    },
    {
      "midi": 64,
      "hit": false,
      "t": 159107.058000001,
      "d": 1071.4280000000144,
      "v": 127
    },
    {
      "midi": 41,
      "hit": false,
      "t": 161249.914000001,
      "d": 535.7140000000072,
      "v": 127
    },
    {
      "midi": 53,
      "hit": false,
      "t": 161249.914000001,
      "d": 535.7140000000072,
      "v": 127
    },
    {
      "midi": 56,
      "hit": false,
      "t": 161517.77100000103,
      "d": 267.85699999998906,
      "v": 127
    },
    {
      "midi": 60,
      "hit": false,
      "t": 161517.77100000103,
      "d": 267.85699999998906,
      "v": 127
    },
    {
      "midi": 65,
      "hit": false,
      "t": 161785.62800000102,
      "d": 267.85699999998906,
      "v": 127
    },
    {
      "midi": 60,
      "hit": false,
      "t": 162053.485000001,
      "d": 267.85699999998906,
      "v": 127
    },
    {
      "midi": 41,
      "hit": false,
      "t": 162321.34200000102,
      "d": 535.7140000000072,
      "v": 127
    },
    {
      "midi": 53,
      "hit": false,
      "t": 162321.34200000102,
      "d": 535.7140000000072,
      "v": 127
    },
    {
      "midi": 55,
      "hit": false,
      "t": 162589.19900000098,
      "d": 267.85699999998906,
      "v": 127
    },
    {
      "midi": 58,
      "hit": false,
      "t": 162589.19900000098,
      "d": 267.85699999998906,
      "v": 127
    },
    {
      "midi": 64,
      "hit": false,
      "t": 162857.05600000097,
      "d": 267.85699999998906,
      "v": 127
    },
    {
      "midi": 58,
      "hit": false,
      "t": 163124.91300000096,
      "d": 267.85699999998906,
      "v": 127
    },
    {
      "midi": 41,
      "hit": false,
      "t": 163392.77000000104,
      "d": 535.7140000000072,
      "v": 127
    },
    {
      "midi": 53,
      "hit": false,
      "t": 163392.77000000104,
      "d": 535.7140000000072,
      "v": 127
    },
    {
      "midi": 56,
      "hit": false,
      "t": 163660.62700000094,
      "d": 267.85699999998906,
      "v": 127
    },
    {
      "midi": 60,
      "hit": false,
      "t": 163660.62700000094,
      "d": 267.85699999998906,
      "v": 127
    },
    {
      "midi": 65,
      "hit": false,
      "t": 163928.48400000093,
      "d": 267.85699999998906,
      "v": 127
    },
    {
      "midi": 60,
      "hit": false,
      "t": 164196.34100000092,
      "d": 267.85699999998906,
      "v": 127
    },
    {
      "midi": 41,
      "hit": false,
      "t": 164464.19800000105,
      "d": 535.7140000000072,
      "v": 127
    },
    {
      "midi": 53,
      "hit": false,
      "t": 164464.19800000105,
      "d": 535.7140000000072,
      "v": 127
    },
    {
      "midi": 56,
      "hit": false,
      "t": 164732.0550000009,
      "d": 267.85699999998906,
      "v": 127
    },
    {
      "midi": 60,
      "hit": false,
      "t": 164732.0550000009,
      "d": 267.85699999998906,
      "v": 127
    },
    {
      "midi": 65,
      "hit": false,
      "t": 164999.91200000088,
      "d": 267.85699999998906,
      "v": 127
    },
    {
      "midi": 60,
      "hit": false,
      "t": 165267.76900000087,
      "d": 267.85699999998906,
      "v": 127
    },
    {
      "midi": 41,
      "hit": false,
      "t": 165535.62600000107,
      "d": 535.7140000000072,
      "v": 127
    },
    {
      "midi": 53,
      "hit": false,
      "t": 165535.62600000107,
      "d": 535.7140000000072,
      "v": 127
    },
    {
      "midi": 56,
      "hit": false,
      "t": 165803.48300000085,
      "d": 267.85699999998906,
      "v": 127
    },
    {
      "midi": 60,
      "hit": false,
      "t": 165803.48300000085,
      "d": 267.85699999998906,
      "v": 127
    },
    {
      "midi": 65,
      "hit": false,
      "t": 166071.34000000084,
      "d": 267.85699999998906,
      "v": 127
    },
    {
      "midi": 60,
      "hit": false,
      "t": 166339.19700000083,
      "d": 267.85699999998906,
      "v": 127
    },
    {
      "midi": 41,
      "hit": false,
      "t": 166607.05400000108,
      "d": 535.7140000000072,
      "v": 127
    },
    {
      "midi": 53,
      "hit": false,
      "t": 166607.05400000108,
      "d": 535.7140000000072,
      "v": 127
    },
    {
      "midi": 57,
      "hit": false,
      "t": 166874.9110000008,
      "d": 267.85699999998906,
      "v": 127
    },
    {
      "midi": 60,
      "hit": false,
      "t": 166874.9110000008,
      "d": 267.85699999998906,
      "v": 127
    },
    {
      "midi": 65,
      "hit": false,
      "t": 167142.7680000008,
      "d": 267.85699999998906,
      "v": 127
    },
    {
      "midi": 60,
      "hit": false,
      "t": 167410.6250000008,
      "d": 267.85699999998906,
      "v": 127
    },
    {
      "midi": 41,
      "hit": false,
      "t": 167678.4820000011,
      "d": 535.7140000000072,
      "v": 127
    },
    {
      "midi": 53,
      "hit": false,
      "t": 167678.4820000011,
      "d": 535.7140000000072,
      "v": 127
    },
    {
      "midi": 58,
      "hit": false,
      "t": 167946.33900000076,
      "d": 267.85699999998906,
      "v": 127
    },
    {
      "midi": 61,
      "hit": false,
      "t": 167946.33900000076,
      "d": 267.85699999998906,
      "v": 127
    },
    {
      "midi": 65,
      "hit": false,
      "t": 168214.19600000075,
      "d": 267.85699999998906,
      "v": 127
    },
    {
      "midi": 61,
      "hit": false,
      "t": 168482.05300000074,
      "d": 267.85699999998906,
      "v": 127
    },
    {
      "midi": 41,
      "hit": false,
      "t": 168749.9100000011,
      "d": 535.7140000000072,
      "v": 127
    },
    {
      "midi": 53,
      "hit": false,
      "t": 168749.9100000011,
      "d": 535.7140000000072,
      "v": 127
    },
    {
      "midi": 56,
      "hit": false,
      "t": 169017.76700000072,
      "d": 267.85699999998906,
      "v": 127
    },
    {
      "midi": 60,
      "hit": false,
      "t": 169017.76700000072,
      "d": 267.85699999998906,
      "v": 127
    },
    {
      "midi": 65,
      "hit": false,
      "t": 169285.6240000007,
      "d": 267.85699999998906,
      "v": 127
    },
    {
      "midi": 60,
      "hit": false,
      "t": 169553.4810000007,
      "d": 267.85699999998906,
      "v": 127
    },
    {
      "midi": 37,
      "hit": false,
      "t": 169821.33800000112,
      "d": 1071.4280000000144,
      "v": 127
    },
    {
      "midi": 49,
      "hit": false,
      "t": 169821.33800000112,
      "d": 1071.4280000000144,
      "v": 127
    },
    {
      "midi": 53,
      "hit": false,
      "t": 170089.19500000068,
      "d": 267.85699999998906,
      "v": 127
    },
    {
      "midi": 58,
      "hit": false,
      "t": 170089.19500000068,
      "d": 267.85699999998906,
      "v": 127
    },
    {
      "midi": 65,
      "hit": false,
      "t": 170357.05200000067,
      "d": 267.85699999998906,
      "v": 127
    },
    {
      "midi": 58,
      "hit": false,
      "t": 170624.90900000065,
      "d": 267.85699999998906,
      "v": 127
    },
    {
      "midi": 36,
      "hit": false,
      "t": 170892.76600000114,
      "d": 535.7140000000072,
      "v": 127
    },
    {
      "midi": 48,
      "hit": false,
      "t": 170892.76600000114,
      "d": 535.7140000000072,
      "v": 127
    },
    {
      "midi": 56,
      "hit": false,
      "t": 171160.62300000063,
      "d": 267.85699999998906,
      "v": 127
    },
    {
      "midi": 60,
      "hit": false,
      "t": 171160.62300000063,
      "d": 267.85699999998906,
      "v": 127
    },
    {
      "midi": 65,
      "hit": false,
      "t": 171428.48000000062,
      "d": 267.85699999998906,
      "v": 127
    },
    {
      "midi": 60,
      "hit": false,
      "t": 171696.3370000006,
      "d": 267.85699999998906,
      "v": 127
    },
    {
      "midi": 35,
      "hit": false,
      "t": 171964.19400000115,
      "d": 1071.4280000000144,
      "v": 127
    },
    {
      "midi": 47,
      "hit": false,
      "t": 171964.19400000115,
      "d": 1071.4280000000144,
      "v": 127
    },
    {
      "midi": 55,
      "hit": false,
      "t": 172232.0510000006,
      "d": 267.85699999998906,
      "v": 127
    },
    {
      "midi": 62,
      "hit": false,
      "t": 172232.0510000006,
      "d": 267.85699999998906,
      "v": 127
    },
    {
      "midi": 65,
      "hit": false,
      "t": 172499.90800000058,
      "d": 267.85699999998906,
      "v": 127
    },
    {
      "midi": 62,
      "hit": false,
      "t": 172767.76500000057,
      "d": 267.85699999998906,
      "v": 127
    },
    {
      "midi": 34,
      "hit": false,
      "t": 173035.62200000117,
      "d": 535.7140000000072,
      "v": 127
    },
    {
      "midi": 46,
      "hit": false,
      "t": 173035.62200000117,
      "d": 535.7140000000072,
      "v": 127
    },
    {
      "midi": 55,
      "hit": false,
      "t": 173303.47900000055,
      "d": 267.85699999998906,
      "v": 127
    },
    {
      "midi": 61,
      "hit": false,
      "t": 173303.47900000055,
      "d": 267.85699999998906,
      "v": 127
    },
    {
      "midi": 64,
      "hit": false,
      "t": 173571.33600000053,
      "d": 267.85699999998906,
      "v": 127
    },
    {
      "midi": 61,
      "hit": false,
      "t": 173839.19300000052,
      "d": 267.85699999998906,
      "v": 127
    },
    {
      "midi": 32,
      "hit": false,
      "t": 174107.05000000118,
      "d": 535.7140000000072,
      "v": 127
    },
    {
      "midi": 44,
      "hit": false,
      "t": 174107.05000000118,
      "d": 535.7140000000072,
      "v": 127
    },
    {
      "midi": 60,
      "hit": false,
      "t": 174374.9070000005,
      "d": 267.85699999998906,
      "v": 127
    },
    {
      "midi": 65,
      "hit": false,
      "t": 174374.9070000005,
      "d": 267.85699999998906,
      "v": 127
    },
    {
      "midi": 56,
      "hit": false,
      "t": 174642.7640000012,
      "d": 535.7140000000072,
      "v": 127
    },
    {
      "midi": 60,
      "hit": false,
      "t": 174910.62100000048,
      "d": 267.85699999998906,
      "v": 127
    },
    {
      "midi": 65,
      "hit": false,
      "t": 174910.62100000048,
      "d": 267.85699999998906,
      "v": 127
    },
    {
      "midi": 55,
      "hit": false,
      "t": 175178.4780000012,
      "d": 535.7140000000072,
      "v": 127
    },
    {
      "midi": 60,
      "hit": false,
      "t": 175446.33500000046,
      "d": 267.85699999998906,
      "v": 127
    },
    {
      "midi": 64,
      "hit": false,
      "t": 175446.33500000046,
      "d": 267.85699999998906,
      "v": 127
    },
    {
      "midi": 53,
      "hit": false,
      "t": 175714.1920000012,
      "d": 535.7140000000072,
      "v": 127
    },
    {
      "midi": 60,
      "hit": false,
      "t": 175982.04900000044,
      "d": 267.85699999998906,
      "v": 127
    },
    {
      "midi": 65,
      "hit": false,
      "t": 175982.04900000044,
      "d": 267.85699999998906,
      "v": 127
    },
    {
      "midi": 68,
      "hit": false,
      "t": 176249.90600000042,
      "d": 535.7140000000072,
      "v": 127
    },
    {
      "midi": 36,
      "hit": false,
      "t": 176249.9060000012,
      "d": 1071.4280000000144,
      "v": 127
    },
    {
      "midi": 48,
      "hit": false,
      "t": 176249.9060000012,
      "d": 1071.4280000000144,
      "v": 127
    },
    {
      "midi": 64,
      "hit": false,
      "t": 176785.62000000043,
      "d": 1071.4280000000144,
      "v": 127
    },
    {
      "midi": 67,
      "hit": false,
      "t": 176785.62000000043,
      "d": 1071.4280000000144,
      "v": 127
    },
    {
      "midi": 72,
      "hit": false,
      "t": 177857.04800000045,
      "d": 535.7140000000072,
      "v": 127
    },
    {
      "midi": 71,
      "hit": false,
      "t": 178392.76200000045,
      "d": 535.7140000000072,
      "v": 127
    },
    {
      "midi": 65,
      "hit": false,
      "t": 178392.76200000124,
      "d": 1071.4280000000144,
      "v": 127
    },
    {
      "midi": 68,
      "hit": false,
      "t": 178392.76200000124,
      "d": 1071.4280000000144,
      "v": 127
    },
    {
      "midi": 72,
      "hit": false,
      "t": 178928.47600000046,
      "d": 535.7140000000072,
      "v": 127
    },
    {
      "midi": 73,
      "hit": false,
      "t": 179464.19000000047,
      "d": 535.7140000000072,
      "v": 127
    },
    {
      "midi": 64,
      "hit": false,
      "t": 179464.19000000125,
      "d": 535.7140000000072,
      "v": 127
    },
    {
      "midi": 67,
      "hit": false,
      "t": 179464.19000000125,
      "d": 535.7140000000072,
      "v": 127
    },
    {
      "midi": 60,
      "hit": false,
      "t": 179999.90400000048,
      "d": 535.7140000000072,
      "v": 127
    },
    {
      "midi": 67,
      "hit": false,
      "t": 179999.90400000048,
      "d": 535.7140000000072,
      "v": 127
    },
    {
      "midi": 70,
      "hit": false,
      "t": 179999.90400000048,
      "d": 535.7140000000072,
      "v": 127
    },
    {
      "midi": 40,
      "hit": false,
      "t": 179999.90400000126,
      "d": 535.7140000000072,
      "v": 127
    },
    {
      "midi": 52,
      "hit": false,
      "t": 179999.90400000126,
      "d": 535.7140000000072,
      "v": 127
    },
    {
      "midi": 60,
      "hit": false,
      "t": 180535.61800000048,
      "d": 535.7140000000072,
      "v": 127
    },
    {
      "midi": 65,
      "hit": false,
      "t": 180535.61800000048,
      "d": 535.7140000000072,
      "v": 127
    },
    {
      "midi": 68,
      "hit": false,
      "t": 180535.61800000048,
      "d": 535.7140000000072,
      "v": 127
    },
    {
      "midi": 41,
      "hit": false,
      "t": 180535.61800000127,
      "d": 535.7140000000072,
      "v": 127
    },
    {
      "midi": 53,
      "hit": false,
      "t": 180535.61800000127,
      "d": 535.7140000000072,
      "v": 127
    },
    {
      "midi": 60,
      "hit": false,
      "t": 181071.3320000005,
      "d": 1071.4280000000144,
      "v": 127
    },
    {
      "midi": 64,
      "hit": false,
      "t": 181071.3320000005,
      "d": 1071.4280000000144,
      "v": 127
    },
    {
      "midi": 67,
      "hit": false,
      "t": 181071.3320000005,
      "d": 1071.4280000000144,
      "v": 127
    },
    {
      "midi": 36,
      "hit": false,
      "t": 181071.33200000128,
      "d": 1071.4280000000144,
      "v": 127
    },
    {
      "midi": 48,
      "hit": false,
      "t": 181071.33200000128,
      "d": 1071.4280000000144,
      "v": 127
    },
    {
      "midi": 72,
      "hit": false,
      "t": 182142.7600000005,
      "d": 535.7140000000072,
      "v": 127
    },
    {
      "midi": 71,
      "hit": false,
      "t": 182678.4740000005,
      "d": 535.7140000000072,
      "v": 127
    },
    {
      "midi": 65,
      "hit": false,
      "t": 182678.4740000013,
      "d": 1071.4280000000144,
      "v": 127
    },
    {
      "midi": 68,
      "hit": false,
      "t": 182678.4740000013,
      "d": 1071.4280000000144,
      "v": 127
    },
    {
      "midi": 72,
      "hit": false,
      "t": 183214.18800000052,
      "d": 535.7140000000072,
      "v": 127
    },
    {
      "midi": 73,
      "hit": false,
      "t": 183749.90200000053,
      "d": 535.7140000000072,
      "v": 127
    },
    {
      "midi": 64,
      "hit": false,
      "t": 183749.9020000013,
      "d": 535.7140000000072,
      "v": 127
    },
    {
      "midi": 67,
      "hit": false,
      "t": 183749.9020000013,
      "d": 535.7140000000072,
      "v": 127
    },
    {
      "midi": 60,
      "hit": false,
      "t": 184285.61600000053,
      "d": 535.7140000000072,
      "v": 127
    },
    {
      "midi": 67,
      "hit": false,
      "t": 184285.61600000053,
      "d": 535.7140000000072,
      "v": 127
    },
    {
      "midi": 70,
      "hit": false,
      "t": 184285.61600000053,
      "d": 535.7140000000072,
      "v": 127
    },
    {
      "midi": 40,
      "hit": false,
      "t": 184285.61600000132,
      "d": 535.7140000000072,
      "v": 127
    },
    {
      "midi": 52,
      "hit": false,
      "t": 184285.61600000132,
      "d": 535.7140000000072,
      "v": 127
    },
    {
      "midi": 60,
      "hit": false,
      "t": 184821.33000000054,
      "d": 535.7140000000072,
      "v": 127
    },
    {
      "midi": 65,
      "hit": false,
      "t": 184821.33000000054,
      "d": 535.7140000000072,
      "v": 127
    },
    {
      "midi": 68,
      "hit": false,
      "t": 184821.33000000054,
      "d": 535.7140000000072,
      "v": 127
    },
    {
      "midi": 41,
      "hit": false,
      "t": 184821.33000000133,
      "d": 535.7140000000072,
      "v": 127
    },
    {
      "midi": 53,
      "hit": false,
      "t": 184821.33000000133,
      "d": 535.7140000000072,
      "v": 127
    },
    {
      "midi": 60,
      "hit": false,
      "t": 185357.04400000055,
      "d": 803.5709999999963,
      "v": 127
    },
    {
      "midi": 64,
      "hit": false,
      "t": 185357.04400000055,
      "d": 803.5709999999963,
      "v": 127
    },
    {
      "midi": 67,
      "hit": false,
      "t": 185357.04400000055,
      "d": 803.5709999999963,
      "v": 127
    },
    {
      "midi": 36,
      "hit": false,
      "t": 185357.04400000133,
      "d": 535.7140000000072,
      "v": 127
    },
    {
      "midi": 48,
      "hit": false,
      "t": 185357.04400000133,
      "d": 535.7140000000072,
      "v": 127
    },
    {
      "midi": 48,
      "hit": false,
      "t": 185892.75800000134,
      "d": 535.7140000000072,
      "v": 127
    },
    {
      "midi": 60,
      "hit": false,
      "t": 185892.75800000134,
      "d": 535.7140000000072,
      "v": 127
    },
    {
      "midi": 64,
      "hit": false,
      "t": 186160.61500000054,
      "d": 267.85699999998906,
      "v": 127
    },
    {
      "midi": 67,
      "hit": false,
      "t": 186428.47200000053,
      "d": 267.85699999998906,
      "v": 127
    },
    {
      "midi": 72,
      "hit": false,
      "t": 186696.32900000052,
      "d": 267.85699999998906,
      "v": 127
    },
    {
      "midi": 73,
      "hit": false,
      "t": 186964.1860000005,
      "d": 267.85699999998906,
      "v": 127
    },
    {
      "midi": 65,
      "hit": false,
      "t": 187232.0430000005,
      "d": 267.85699999998906,
      "v": 127
    },
    {
      "midi": 68,
      "hit": false,
      "t": 187499.9000000005,
      "d": 267.85699999998906,
      "v": 127
    },
    {
      "midi": 73,
      "hit": false,
      "t": 187767.75700000048,
      "d": 535.7140000000072,
      "v": 127
    },
    {
      "midi": 46,
      "hit": false,
      "t": 188035.61400000134,
      "d": 535.7140000000072,
      "v": 127
    },
    {
      "midi": 58,
      "hit": false,
      "t": 188035.61400000134,
      "d": 535.7140000000072,
      "v": 127
    },
    {
      "midi": 67,
      "hit": false,
      "t": 188303.47100000049,
      "d": 267.85699999998906,
      "v": 127
    },
    {
      "midi": 70,
      "hit": false,
      "t": 188571.32800000047,
      "d": 267.85699999998906,
      "v": 127
    },
    {
      "midi": 73,
      "hit": false,
      "t": 188839.18500000046,
      "d": 267.85699999998906,
      "v": 127
    },
    {
      "midi": 70,
      "hit": false,
      "t": 189107.04200000045,
      "d": 1071.4280000000144,
      "v": 127
    },
    {
      "midi": 73,
      "hit": false,
      "t": 189107.04200000045,
      "d": 1071.4280000000144,
      "v": 127
    },
    {
      "midi": 76,
      "hit": false,
      "t": 189107.04200000045,
      "d": 1071.4280000000144,
      "v": 127
    },
    {
      "midi": 43,
      "hit": false,
      "t": 189107.04200000135,
      "d": 1071.4280000000144,
      "v": 127
    },
    {
      "midi": 55,
      "hit": false,
      "t": 189107.04200000135,
      "d": 1071.4280000000144,
      "v": 127
    },
    {
      "midi": 72,
      "hit": false,
      "t": 191517.75500000047,
      "d": 267.85699999998906,
      "v": 127
    },
    {
      "midi": 77,
      "hit": false,
      "t": 191517.75500000047,
      "d": 267.85699999998906,
      "v": 127
    },
    {
      "midi": 56,
      "hit": false,
      "t": 191517.75500000137,
      "d": 267.85699999998906,
      "v": 127
    },
    {
      "midi": 70,
      "hit": false,
      "t": 191785.61200000046,
      "d": 267.85699999998906,
      "v": 127
    },
    {
      "midi": 75,
      "hit": false,
      "t": 191785.61200000046,
      "d": 267.85699999998906,
      "v": 127
    },
    {
      "midi": 55,
      "hit": false,
      "t": 191785.61200000136,
      "d": 267.85699999998906,
      "v": 127
    },
    {
      "midi": 68,
      "hit": false,
      "t": 192053.46900000045,
      "d": 267.85699999998906,
      "v": 127
    },
    {
      "midi": 73,
      "hit": false,
      "t": 192053.46900000045,
      "d": 267.85699999998906,
      "v": 127
    },
    {
      "midi": 53,
      "hit": false,
      "t": 192053.46900000135,
      "d": 267.85699999998906,
      "v": 127
    },
    {
      "midi": 73,
      "hit": false,
      "t": 192321.32600000044,
      "d": 267.85699999998906,
      "v": 127
    },
    {
      "midi": 52,
      "hit": false,
      "t": 192321.32600000134,
      "d": 535.7140000000072,
      "v": 127
    },
    {
      "midi": 72,
      "hit": false,
      "t": 192589.18300000043,
      "d": 267.85699999998906,
      "v": 127
    },
    {
      "midi": 70,
      "hit": false,
      "t": 192857.04000000042,
      "d": 267.85699999998906,
      "v": 127
    },
    {
      "midi": 53,
      "hit": false,
      "t": 192857.04000000135,
      "d": 535.7140000000072,
      "v": 127
    },
    {
      "midi": 68,
      "hit": false,
      "t": 193124.8970000004,
      "d": 267.85699999998906,
      "v": 127
    },
    {
      "midi": 61,
      "hit": false,
      "t": 193392.7540000004,
      "d": 267.85699999998906,
      "v": 127
    },
    {
      "midi": 46,
      "hit": false,
      "t": 193392.75400000135,
      "d": 1071.4280000000144,
      "v": 127
    },
    {
      "midi": 67,
      "hit": false,
      "t": 193660.61100000038,
      "d": 267.85699999998906,
      "v": 127
    },
    {
      "midi": 61,
      "hit": false,
      "t": 193928.46800000037,
      "d": 267.85699999998906,
      "v": 127
    },
    {
      "midi": 58,
      "hit": false,
      "t": 194196.32500000036,
      "d": 267.85699999998906,
      "v": 127
    },
    {
      "midi": 65,
      "hit": false,
      "t": 194464.18200000035,
      "d": 267.85699999998906,
      "v": 127
    },
    {
      "midi": 48,
      "hit": false,
      "t": 194464.18200000137,
      "d": 535.7140000000072,
      "v": 127
    },
    {
      "midi": 60,
      "hit": false,
      "t": 194732.03900000034,
      "d": 267.85699999998906,
      "v": 127
    },
    {
      "midi": 64,
      "hit": false,
      "t": 194999.89600000033,
      "d": 267.85699999998906,
      "v": 127
    },
    {
      "midi": 58,
      "hit": false,
      "t": 195267.75300000032,
      "d": 267.85699999998906,
      "v": 127
    },
    {
      "midi": 53,
      "hit": false,
      "t": 195535.6100000003,
      "d": 267.85699999998906,
      "v": 127
    },
    {
      "midi": 37,
      "hit": false,
      "t": 195535.61000000138,
      "d": 1071.4280000000144,
      "v": 127
    },
    {
      "midi": 49,
      "hit": false,
      "t": 195535.61000000138,
      "d": 1071.4280000000144,
      "v": 127
    },
    {
      "midi": 56,
      "hit": false,
      "t": 195803.4670000003,
      "d": 267.85699999998906,
      "v": 127
    },
    {
      "midi": 61,
      "hit": false,
      "t": 196071.32400000028,
      "d": 267.85699999998906,
      "v": 127
    },
    {
      "midi": 65,
      "hit": false,
      "t": 196339.18100000027,
      "d": 267.85699999998906,
      "v": 127
    },
    {
      "midi": 57,
      "hit": false,
      "t": 196607.03800000026,
      "d": 267.85699999998906,
      "v": 127
    },
    {
      "midi": 36,
      "hit": false,
      "t": 196607.0380000014,
      "d": 535.7140000000072,
      "v": 127
    },
    {
      "midi": 48,
      "hit": false,
      "t": 196607.0380000014,
      "d": 535.7140000000072,
      "v": 127
    },
    {
      "midi": 60,
      "hit": false,
      "t": 196874.89500000025,
      "d": 267.85699999998906,
      "v": 127
    },
    {
      "midi": 63,
      "hit": false,
      "t": 197142.75200000024,
      "d": 267.85699999998906,
      "v": 127
    },
    {
      "midi": 66,
      "hit": false,
      "t": 197410.60900000023,
      "d": 267.85699999998906,
      "v": 127
    },
    {
      "midi": 65,
      "hit": false,
      "t": 197678.46600000022,
      "d": 267.85699999998906,
      "v": 127
    },
    {
      "midi": 37,
      "hit": false,
      "t": 197678.4660000014,
      "d": 1071.4280000000144,
      "v": 127
    },
    {
      "midi": 49,
      "hit": false,
      "t": 197678.4660000014,
      "d": 1071.4280000000144,
      "v": 127
    },
    {
      "midi": 61,
      "hit": false,
      "t": 197946.3230000002,
      "d": 267.85699999998906,
      "v": 127
    },
    {
      "midi": 58,
      "hit": false,
      "t": 198214.1800000002,
      "d": 267.85699999998906,
      "v": 127
    },
    {
      "midi": 53,
      "hit": false,
      "t": 198482.0370000002,
      "d": 267.85699999998906,
      "v": 127
    },
    {
      "midi": 57,
      "hit": false,
      "t": 198749.89400000017,
      "d": 267.85699999998906,
      "v": 127
    },
    {
      "midi": 36,
      "hit": false,
      "t": 198749.89400000143,
      "d": 535.7140000000072,
      "v": 127
    },
    {
      "midi": 48,
      "hit": false,
      "t": 198749.89400000143,
      "d": 535.7140000000072,
      "v": 127
    },
    {
      "midi": 60,
      "hit": false,
      "t": 199017.75100000016,
      "d": 267.85699999998906,
      "v": 127
    },
    {
      "midi": 63,
      "hit": false,
      "t": 199285.60800000015,
      "d": 267.85699999998906,
      "v": 127
    },
    {
      "midi": 66,
      "hit": false,
      "t": 199553.46500000014,
      "d": 267.85699999998906,
      "v": 127
    },
    {
      "midi": 53,
      "hit": false,
      "t": 199821.32200000013,
      "d": 535.7140000000072,
      "v": 127
    },
    {
      "midi": 58,
      "hit": false,
      "t": 199821.32200000013,
      "d": 535.7140000000072,
      "v": 127
    },
    {
      "midi": 65,
      "hit": false,
      "t": 199821.32200000013,
      "d": 535.7140000000072,
      "v": 127
    },
    {
      "midi": 37,
      "hit": false,
      "t": 199821.32200000144,
      "d": 535.7140000000072,
      "v": 127
    },
    {
      "midi": 49,
      "hit": false,
      "t": 199821.32200000144,
      "d": 535.7140000000072,
      "v": 127
    },
    {
      "midi": 72,
      "hit": false,
      "t": 202232.03500000015,
      "d": 267.85699999998906,
      "v": 127
    },
    {
      "midi": 77,
      "hit": false,
      "t": 202232.03500000015,
      "d": 267.85699999998906,
      "v": 127
    },
    {
      "midi": 56,
      "hit": false,
      "t": 202232.03500000146,
      "d": 267.85699999998906,
      "v": 127
    },
    {
      "midi": 70,
      "hit": false,
      "t": 202499.89200000014,
      "d": 267.85699999998906,
      "v": 127
    },
    {
      "midi": 75,
      "hit": false,
      "t": 202499.89200000014,
      "d": 267.85699999998906,
      "v": 127
    },
    {
      "midi": 55,
      "hit": false,
      "t": 202499.89200000145,
      "d": 267.85699999998906,
      "v": 127
    },
    {
      "midi": 68,
      "hit": false,
      "t": 202767.74900000013,
      "d": 267.85699999998906,
      "v": 127
    },
    {
      "midi": 73,
      "hit": false,
      "t": 202767.74900000013,
      "d": 267.85699999998906,
      "v": 127
    },
    {
      "midi": 53,
      "hit": false,
      "t": 202767.74900000144,
      "d": 267.85699999998906,
      "v": 127
    },
    {
      "midi": 73,
      "hit": false,
      "t": 203035.60600000012,
      "d": 267.85699999998906,
      "v": 127
    },
    {
      "midi": 52,
      "hit": false,
      "t": 203035.60600000143,
      "d": 535.7140000000072,
      "v": 127
    },
    {
      "midi": 72,
      "hit": false,
      "t": 203303.4630000001,
      "d": 267.85699999998906,
      "v": 127
    },
    {
      "midi": 70,
      "hit": false,
      "t": 203571.3200000001,
      "d": 267.85699999998906,
      "v": 127
    },
    {
      "midi": 53,
      "hit": false,
      "t": 203571.32000000143,
      "d": 535.7140000000072,
      "v": 127
    },
    {
      "midi": 68,
      "hit": false,
      "t": 203839.17700000008,
      "d": 267.85699999998906,
      "v": 127
    },
    {
      "midi": 61,
      "hit": false,
      "t": 204107.03400000007,
      "d": 267.85699999998906,
      "v": 127
    },
    {
      "midi": 46,
      "hit": false,
      "t": 204107.03400000144,
      "d": 1071.4280000000144,
      "v": 127
    },
    {
      "midi": 67,
      "hit": false,
      "t": 204374.89100000006,
      "d": 267.85699999998906,
      "v": 127
    },
    {
      "midi": 61,
      "hit": false,
      "t": 204642.74800000005,
      "d": 267.85699999998906,
      "v": 127
    },
    {
      "midi": 58,
      "hit": false,
      "t": 204910.60500000004,
      "d": 267.85699999998906,
      "v": 127
    },
    {
      "midi": 65,
      "hit": false,
      "t": 205178.46200000003,
      "d": 267.85699999998906,
      "v": 127
    },
    {
      "midi": 48,
      "hit": false,
      "t": 205178.46200000145,
      "d": 535.7140000000072,
      "v": 127
    },
    {
      "midi": 60,
      "hit": false,
      "t": 205446.31900000002,
      "d": 267.85699999998906,
      "v": 127
    },
    {
      "midi": 64,
      "hit": false,
      "t": 205714.176,
      "d": 267.85699999998906,
      "v": 127
    },
    {
      "midi": 58,
      "hit": false,
      "t": 205982.033,
      "d": 267.85699999998906,
      "v": 127
    },
    {
      "midi": 41,
      "hit": false,
      "t": 206249.89000000147,
      "d": 535.7140000000072,
      "v": 127
    },
    {
      "midi": 53,
      "hit": false,
      "t": 206249.89000000147,
      "d": 535.7140000000072,
      "v": 127
    },
    {
      "midi": 56,
      "hit": false,
      "t": 206517.74699999997,
      "d": 267.85699999998906,
      "v": 127
    },
    {
      "midi": 60,
      "hit": false,
      "t": 206517.74699999997,
      "d": 267.85699999998906,
      "v": 127
    },
    {
      "midi": 65,
      "hit": false,
      "t": 206785.60399999996,
      "d": 267.85699999998906,
      "v": 127
    },
    {
      "midi": 60,
      "hit": false,
      "t": 207053.46099999995,
      "d": 267.85699999998906,
      "v": 127
    },
    {
      "midi": 37,
      "hit": false,
      "t": 207321.31800000148,
      "d": 535.7140000000072,
      "v": 127
    },
    {
      "midi": 49,
      "hit": false,
      "t": 207321.31800000148,
      "d": 535.7140000000072,
      "v": 127
    },
    {
      "midi": 61,
      "hit": false,
      "t": 207589.17499999993,
      "d": 267.85699999998906,
      "v": 127
    },
    {
      "midi": 65,
      "hit": false,
      "t": 207589.17499999993,
      "d": 267.85699999998906,
      "v": 127
    },
    {
      "midi": 68,
      "hit": false,
      "t": 207857.03199999992,
      "d": 267.85699999998906,
      "v": 127
    },
    {
      "midi": 65,
      "hit": false,
      "t": 208124.8889999999,
      "d": 267.85699999998906,
      "v": 127
    },
    {
      "midi": 34,
      "hit": false,
      "t": 208392.7460000015,
      "d": 535.7140000000072,
      "v": 127
    },
    {
      "midi": 46,
      "hit": false,
      "t": 208392.7460000015,
      "d": 535.7140000000072,
      "v": 127
    },
    {
      "midi": 61,
      "hit": false,
      "t": 208660.6029999999,
      "d": 267.85699999998906,
      "v": 127
    },
    {
      "midi": 65,
      "hit": false,
      "t": 208660.6029999999,
      "d": 267.85699999998906,
      "v": 127
    },
    {
      "midi": 67,
      "hit": false,
      "t": 208928.45999999988,
      "d": 267.85699999998906,
      "v": 127
    },
    {
      "midi": 65,
      "hit": false,
      "t": 209196.31699999986,
      "d": 267.85699999998906,
      "v": 127
    },
    {
      "midi": 36,
      "hit": false,
      "t": 209464.1740000015,
      "d": 535.7140000000072,
      "v": 127
    },
    {
      "midi": 48,
      "hit": false,
      "t": 209464.1740000015,
      "d": 535.7140000000072,
      "v": 127
    },
    {
      "midi": 58,
      "hit": false,
      "t": 209732.03099999984,
      "d": 267.85699999998906,
      "v": 127
    },
    {
      "midi": 64,
      "hit": false,
      "t": 209732.03099999984,
      "d": 267.85699999998906,
      "v": 127
    },
    {
      "midi": 67,
      "hit": false,
      "t": 209999.88799999983,
      "d": 267.85699999998906,
      "v": 127
    },
    {
      "midi": 64,
      "hit": false,
      "t": 210267.74499999982,
      "d": 267.85699999998906,
      "v": 127
    },
    {
      "midi": 37,
      "hit": false,
      "t": 210535.60200000153,
      "d": 535.7140000000072,
      "v": 127
    },
    {
      "midi": 49,
      "hit": false,
      "t": 210535.60200000153,
      "d": 535.7140000000072,
      "v": 127
    },
    {
      "midi": 56,
      "hit": false,
      "t": 210803.4589999998,
      "d": 267.85699999998906,
      "v": 127
    },
    {
      "midi": 65,
      "hit": false,
      "t": 210803.4589999998,
      "d": 267.85699999998906,
      "v": 127
    },
    {
      "midi": 68,
      "hit": false,
      "t": 211071.3159999998,
      "d": 267.85699999998906,
      "v": 127
    },
    {
      "midi": 65,
      "hit": false,
      "t": 211339.17299999978,
      "d": 267.85699999998906,
      "v": 127
    },
    {
      "midi": 32,
      "hit": false,
      "t": 211607.03000000154,
      "d": 535.7140000000072,
      "v": 127
    },
    {
      "midi": 44,
      "hit": false,
      "t": 211607.03000000154,
      "d": 535.7140000000072,
      "v": 127
    },
    {
      "midi": 60,
      "hit": false,
      "t": 211874.88699999976,
      "d": 267.85699999998906,
      "v": 127
    },
    {
      "midi": 65,
      "hit": false,
      "t": 211874.88699999976,
      "d": 267.85699999998906,
      "v": 127
    },
    {
      "midi": 68,
      "hit": false,
      "t": 212142.74399999974,
      "d": 267.85699999998906,
      "v": 127
    },
    {
      "midi": 65,
      "hit": false,
      "t": 212410.60099999973,
      "d": 267.85699999998906,
      "v": 127
    },
    {
      "midi": 34,
      "hit": false,
      "t": 212678.45800000156,
      "d": 535.7140000000072,
      "v": 127
    },
    {
      "midi": 46,
      "hit": false,
      "t": 212678.45800000156,
      "d": 535.7140000000072,
      "v": 127
    },
    {
      "midi": 61,
      "hit": false,
      "t": 212946.3149999997,
      "d": 267.85699999998906,
      "v": 127
    },
    {
      "midi": 65,
      "hit": false,
      "t": 212946.3149999997,
      "d": 267.85699999998906,
      "v": 127
    },
    {
      "midi": 67,
      "hit": false,
      "t": 213214.1719999997,
      "d": 267.85699999998906,
      "v": 127
    },
    {
      "midi": 65,
      "hit": false,
      "t": 213482.0289999997,
      "d": 267.85699999998906,
      "v": 127
    },
    {
      "midi": 36,
      "hit": false,
      "t": 213749.88600000157,
      "d": 535.7140000000072,
      "v": 127
    },
    {
      "midi": 48,
      "hit": false,
      "t": 213749.88600000157,
      "d": 535.7140000000072,
      "v": 127
    },
    {
      "midi": 58,
      "hit": false,
      "t": 214017.74299999967,
      "d": 267.85699999998906,
      "v": 127
    },
    {
      "midi": 64,
      "hit": false,
      "t": 214017.74299999967,
      "d": 267.85699999998906,
      "v": 127
    },
    {
      "midi": 67,
      "hit": false,
      "t": 214285.59999999966,
      "d": 267.85699999998906,
      "v": 127
    },
    {
      "midi": 64,
      "hit": false,
      "t": 214553.45699999965,
      "d": 267.85699999998906,
      "v": 127
    },
    {
      "midi": 37,
      "hit": false,
      "t": 214821.31400000158,
      "d": 535.7140000000072,
      "v": 127
    },
    {
      "midi": 49,
      "hit": false,
      "t": 214821.31400000158,
      "d": 535.7140000000072,
      "v": 127
    },
    {
      "midi": 56,
      "hit": false,
      "t": 215089.17099999962,
      "d": 267.85699999998906,
      "v": 127
    },
    {
      "midi": 65,
      "hit": false,
      "t": 215089.17099999962,
      "d": 267.85699999998906,
      "v": 127
    },
    {
      "midi": 68,
      "hit": false,
      "t": 215357.0279999996,
      "d": 267.85699999998906,
      "v": 127
    },
    {
      "midi": 65,
      "hit": false,
      "t": 215624.8849999996,
      "d": 267.85699999998906,
      "v": 127
    },
    {
      "midi": 34,
      "hit": false,
      "t": 215892.7420000016,
      "d": 535.7140000000072,
      "v": 127
    },
    {
      "midi": 46,
      "hit": false,
      "t": 215892.7420000016,
      "d": 535.7140000000072,
      "v": 127
    },
    {
      "midi": 55,
      "hit": false,
      "t": 216160.59899999958,
      "d": 267.85699999998906,
      "v": 127
    },
    {
      "midi": 61,
      "hit": false,
      "t": 216160.59899999958,
      "d": 267.85699999998906,
      "v": 127
    },
    {
      "midi": 65,
      "hit": false,
      "t": 216428.45599999957,
      "d": 267.85699999998906,
      "v": 127
    },
    {
      "midi": 61,
      "hit": false,
      "t": 216696.31299999956,
      "d": 267.85699999998906,
      "v": 127
    },
    {
      "midi": 36,
      "hit": false,
      "t": 216964.1700000016,
      "d": 535.7140000000072,
      "v": 127
    },
    {
      "midi": 48,
      "hit": false,
      "t": 216964.1700000016,
      "d": 535.7140000000072,
      "v": 127
    },
    {
      "midi": 56,
      "hit": false,
      "t": 217232.02699999954,
      "d": 267.85699999998906,
      "v": 127
    },
    {
      "midi": 60,
      "hit": false,
      "t": 217232.02699999954,
      "d": 267.85699999998906,
      "v": 127
    },
    {
      "midi": 65,
      "hit": false,
      "t": 217499.88399999953,
      "d": 267.85699999998906,
      "v": 127
    },
    {
      "midi": 60,
      "hit": false,
      "t": 217767.7409999995,
      "d": 267.85699999998906,
      "v": 127
    },
    {
      "midi": 36,
      "hit": false,
      "t": 218035.59800000163,
      "d": 535.7140000000072,
      "v": 127
    },
    {
      "midi": 48,
      "hit": false,
      "t": 218035.59800000163,
      "d": 535.7140000000072,
      "v": 127
    },
    {
      "midi": 55,
      "hit": false,
      "t": 218303.4549999995,
      "d": 267.85699999998906,
      "v": 127
    },
    {
      "midi": 58,
      "hit": false,
      "t": 218303.4549999995,
      "d": 267.85699999998906,
      "v": 127
    },
    {
      "midi": 64,
      "hit": false,
      "t": 218571.31199999948,
      "d": 267.85699999998906,
      "v": 127
    },
    {
      "midi": 58,
      "hit": false,
      "t": 218839.16899999947,
      "d": 267.85699999998906,
      "v": 127
    },
    {
      "midi": 29,
      "hit": false,
      "t": 219107.02600000164,
      "d": 535.7140000000072,
      "v": 127
    },
    {
      "midi": 41,
      "hit": false,
      "t": 219107.02600000164,
      "d": 535.7140000000072,
      "v": 127
    },
    {
      "midi": 56,
      "hit": false,
      "t": 219642.73999999947,
      "d": 1071.4280000000144,
      "v": 127
    },
    {
      "midi": 65,
      "hit": false,
      "t": 219642.73999999947,
      "d": 1071.4280000000144,
      "v": 127
    },
    {
      "midi": 29,
      "hit": false,
      "t": 220178.45400000166,
      "d": 535.7140000000072,
      "v": 127
    },
    {
      "midi": 41,
      "hit": false,
      "t": 220178.45400000166,
      "d": 535.7140000000072,
      "v": 127
    },
    {
      "midi": 60,
      "hit": false,
      "t": 220714.16799999948,
      "d": 535.7140000000072,
      "v": 127
    },
    {
      "midi": 68,
      "hit": false,
      "t": 220714.16799999948,
      "d": 535.7140000000072,
      "v": 127
    },
    {
      "midi": 56,
      "hit": false,
      "t": 221249.8819999995,
      "d": 1071.4280000000144,
      "v": 127
    },
    {
      "midi": 65,
      "hit": false,
      "t": 221249.8819999995,
      "d": 1071.4280000000144,
      "v": 127
    },
    {
      "midi": 29,
      "hit": false,
      "t": 221249.88200000167,
      "d": 1071.4280000000144,
      "v": 127
    },
    {
      "midi": 41,
      "hit": false,
      "t": 221249.88200000167,
      "d": 1071.4280000000144,
      "v": 127
    }
  ]
}