{
  "jsonPath": "Classical/Classical/Wolfgang Amadeus Mozart/fugue-fragment-anh-41-375g.json",
  "path": "Classical\\Classical\\Wolfgang Amadeus Mozart\\Fugue Fragment Anh 41 (375g).mid",
  "name": "Fugue Fragment Anh 41 (375g)",
  "difficulty": "Advanced",
  "bpm": 110.00011000011,
  "notes": [
    {
      "midi": 76,
      "hit": false,
      "t": 545.4540000000001,
      "d": 545.4540000000001,
      "v": 127
    },
    {
      "midi": 74,
      "hit": false,
      "t": 1090.9080000000001,
      "d": 545.454,
      "v": 127
    },
    {
      "midi": 72,
      "hit": false,
      "t": 1636.362,
      "d": 545.4540000000002,
      "v": 127
    },
    {
      "midi": 71,
      "hit": false,
      "t": 2181.8160000000003,
      "d": 545.4540000000002,
      "v": 127
    },
    {
      "midi": 72,
      "hit": false,
      "t": 2727.2700000000004,
      "d": 545.4540000000002,
      "v": 127
    },
    {
      "midi": 74,
      "hit": false,
      "t": 3272.7240000000006,
      "d": 818.181,
      "v": 127
    },
    {
      "midi": 72,
      "hit": false,
      "t": 4090.9050000000007,
      "d": 136.36350000000039,
      "v": 127
    },
    {
      "midi": 71,
      "hit": false,
      "t": 4227.268500000001,
      "d": 136.36350000000039,
      "v": 127
    },
    {
      "midi": 69,
      "hit": false,
      "t": 4363.632000000001,
      "d": 545.4539999999997,
      "v": 127
    },
    {
      "midi": 71,
      "hit": false,
      "t": 4909.086000000001,
      "d": 545.4539999999997,
      "v": 127
    },
    {
      "midi": 64,
      "hit": false,
      "t": 5454.540000000001,
      "d": 818.1810000000005,
      "v": 127
    },
    {
      "midi": 66,
      "hit": false,
      "t": 6272.721000000001,
      "d": 136.36350000000039,
      "v": 127
    },
    {
      "midi": 67,
      "hit": false,
      "t": 6409.084500000002,
      "d": 136.36350000000039,
      "v": 127
    },
    {
      "midi": 69,
      "hit": false,
      "t": 6545.448000000002,
      "d": 545.4539999999997,
      "v": 127
    },
    {
      "midi": 62,
      "hit": false,
      "t": 7090.902000000002,
      "d": 272.72699999999986,
      "v": 127
    },
    {
      "midi": 64,
      "hit": false,
      "t": 7363.629000000002,
      "d": 272.72699999999986,
      "v": 127
    },
    {
      "midi": 66,
      "hit": false,
      "t": 7636.356000000002,
      "d": 272.72699999999986,
      "v": 127
    },
    {
      "midi": 67,
      "hit": false,
      "t": 7909.083000000001,
      "d": 272.72699999999986,
      "v": 127
    },
    {
      "midi": 69,
      "hit": false,
      "t": 8181.810000000001,
      "d": 272.72700000000077,
      "v": 127
    },
    {
      "midi": 71,
      "hit": false,
      "t": 8454.537000000002,
      "d": 272.72700000000077,
      "v": 127
    },
    {
      "midi": 67,
      "hit": false,
      "t": 8727.264000000003,
      "d": 545.4539999999997,
      "v": 127
    },
    {
      "midi": 71,
      "hit": false,
      "t": 9272.718000000003,
      "d": 545.4539999999997,
      "v": 127
    },
    {
      "midi": 74,
      "hit": false,
      "t": 9272.718000000003,
      "d": 545.4539999999997,
      "v": 127
    },
    {
      "midi": 69,
      "hit": false,
      "t": 9818.172000000002,
      "d": 272.72700000000077,
      "v": 127
    },
    {
      "midi": 73,
      "hit": false,
      "t": 10090.899000000003,
      "d": 272.72700000000077,
      "v": 127
    },
    {
      "midi": 79,
      "hit": false,
      "t": 10363.626000000004,
      "d": 272.72700000000077,
      "v": 127
    },
    {
      "midi": 73,
      "hit": false,
      "t": 10636.353000000005,
      "d": 272.72700000000077,
      "v": 127
    },
    {
      "midi": 66,
      "hit": false,
      "t": 10909.080000000005,
      "d": 545.4539999999997,
      "v": 127
    },
    {
      "midi": 81,
      "hit": false,
      "t": 10909.080000000005,
      "d": 545.4539999999997,
      "v": 127
    },
    {
      "midi": 67,
      "hit": false,
      "t": 11454.534000000005,
      "d": 272.72700000000077,
      "v": 127
    },
    {
      "midi": 79,
      "hit": false,
      "t": 11727.261000000006,
      "d": 136.36349999999948,
      "v": 127
    },
    {
      "midi": 78,
      "hit": false,
      "t": 11863.624500000005,
      "d": 136.36349999999948,
      "v": 127
    },
    {
      "midi": 69,
      "hit": false,
      "t": 11999.988000000005,
      "d": 545.4539999999997,
      "v": 127
    },
    {
      "midi": 76,
      "hit": false,
      "t": 11999.988000000005,
      "d": 545.4539999999997,
      "v": 127
    },
    {
      "midi": 78,
      "hit": false,
      "t": 12545.442000000005,
      "d": 272.72700000000077,
      "v": 127
    },
    {
      "midi": 67,
      "hit": false,
      "t": 12818.169000000005,
      "d": 136.36349999999948,
      "v": 127
    },
    {
      "midi": 66,
      "hit": false,
      "t": 12954.532500000005,
      "d": 136.36349999999948,
      "v": 127
    },
    {
      "midi": 64,
      "hit": false,
      "t": 13090.896000000004,
      "d": 545.4539999999997,
      "v": 127
    },
    {
      "midi": 79,
      "hit": false,
      "t": 13090.896000000004,
      "d": 545.4539999999997,
      "v": 127
    },
    {
      "midi": 78,
      "hit": false,
      "t": 13636.350000000004,
      "d": 272.72700000000077,
      "v": 127
    },
    {
      "midi": 76,
      "hit": false,
      "t": 13909.077000000005,
      "d": 272.72700000000077,
      "v": 127
    },
    {
      "midi": 74,
      "hit": false,
      "t": 14181.804000000006,
      "d": 272.72700000000077,
      "v": 127
    },
    {
      "midi": 73,
      "hit": false,
      "t": 14454.531000000006,
      "d": 272.72700000000077,
      "v": 127
    },
    {
      "midi": 71,
      "hit": false,
      "t": 14727.258000000007,
      "d": 272.72700000000077,
      "v": 127
    },
    {
      "midi": 69,
      "hit": false,
      "t": 14999.985000000008,
      "d": 136.36349999999948,
      "v": 127
    },
    {
      "midi": 62,
      "hit": false,
      "t": 15136.348500000007,
      "d": 136.36349999999948,
      "v": 127
    },
    {
      "midi": 64,
      "hit": false,
      "t": 15272.712000000007,
      "d": 545.4539999999997,
      "v": 127
    },
    {
      "midi": 67,
      "hit": false,
      "t": 15272.712000000007,
      "d": 545.4539999999997,
      "v": 127
    },
    {
      "midi": 57,
      "hit": false,
      "t": 15818.166000000007,
      "d": 272.72700000000077,
      "v": 127
    },
    {
      "midi": 66,
      "hit": false,
      "t": 16090.893000000007,
      "d": 136.36349999999948,
      "v": 127
    },
    {
      "midi": 67,
      "hit": false,
      "t": 16227.256500000007,
      "d": 136.36349999999948,
      "v": 127
    },
    {
      "midi": 64,
      "hit": false,
      "t": 16363.620000000006,
      "d": 272.72699999999895,
      "v": 127
    },
    {
      "midi": 62,
      "hit": false,
      "t": 16636.347000000005,
      "d": 272.72699999999895,
      "v": 127
    },
    {
      "midi": 73,
      "hit": false,
      "t": 16909.074000000004,
      "d": 272.72699999999895,
      "v": 127
    },
    {
      "midi": 66,
      "hit": false,
      "t": 17181.801000000003,
      "d": 272.72699999999895,
      "v": 127
    },
    {
      "midi": 74,
      "hit": false,
      "t": 17454.528000000002,
      "d": 272.72699999999895,
      "v": 127
    },
    {
      "midi": 68,
      "hit": false,
      "t": 17727.255,
      "d": 272.72699999999895,
      "v": 127
    },
    {
      "midi": 69,
      "hit": false,
      "t": 17999.982,
      "d": 272.72699999999895,
      "v": 127
    },
    {
      "midi": 71,
      "hit": false,
      "t": 18272.709,
      "d": 272.72699999999895,
      "v": 127
    },
    {
      "midi": 72,
      "hit": false,
      "t": 18545.435999999998,
      "d": 272.72699999999895,
      "v": 127
    },
    {
      "midi": 63,
      "hit": false,
      "t": 18818.162999999997,
      "d": 272.72699999999895,
      "v": 127
    },
    {
      "midi": 64,
      "hit": false,
      "t": 19090.889999999996,
      "d": 272.72699999999895,
      "v": 127
    },
    {
      "midi": 66,
      "hit": false,
      "t": 19363.616999999995,
      "d": 272.72699999999895,
      "v": 127
    },
    {
      "midi": 67,
      "hit": false,
      "t": 19636.343999999994,
      "d": 272.72699999999895,
      "v": 127
    },
    {
      "midi": 71,
      "hit": false,
      "t": 19909.070999999993,
      "d": 272.72699999999895,
      "v": 127
    },
    {
      "midi": 76,
      "hit": false,
      "t": 20181.79799999999,
      "d": 272.72699999999895,
      "v": 127
    },
    {
      "midi": 66,
      "hit": false,
      "t": 20454.52499999999,
      "d": 272.72699999999895,
      "v": 127
    },
    {
      "midi": 71,
      "hit": false,
      "t": 20727.25199999999,
      "d": 272.72699999999895,
      "v": 127
    },
    {
      "midi": 74,
      "hit": false,
      "t": 20999.97899999999,
      "d": 272.72699999999895,
      "v": 127
    },
    {
      "midi": 79,
      "hit": false,
      "t": 21272.705999999987,
      "d": 272.72699999999895,
      "v": 127
    },
    {
      "midi": 69,
      "hit": false,
      "t": 21545.432999999986,
      "d": 272.72699999999895,
      "v": 127
    },
    {
      "midi": 79,
      "hit": false,
      "t": 21818.159999999985,
      "d": 272.72699999999895,
      "v": 127
    },
    {
      "midi": 78,
      "hit": false,
      "t": 22090.886999999984,
      "d": 272.72699999999895,
      "v": 127
    },
    {
      "midi": 79,
      "hit": false,
      "t": 22363.613999999983,
      "d": 272.72699999999895,
      "v": 127
    },
    {
      "midi": 64,
      "hit": false,
      "t": 22363.614,
      "d": 545.4540000000015,
      "v": 127
    },
    {
      "midi": 73,
      "hit": false,
      "t": 22636.340999999982,
      "d": 272.72699999999895,
      "v": 127
    },
    {
      "midi": 74,
      "hit": false,
      "t": 22909.06799999998,
      "d": 272.72699999999895,
      "v": 127
    },
    {
      "midi": 62,
      "hit": false,
      "t": 22909.068000000003,
      "d": 545.4540000000015,
      "v": 127
    },
    {
      "midi": 66,
      "hit": false,
      "t": 23181.79499999998,
      "d": 272.72699999999895,
      "v": 127
    },
    {
      "midi": 72,
      "hit": false,
      "t": 23454.52199999998,
      "d": 272.72699999999895,
      "v": 127
    },
    {
      "midi": 60,
      "hit": false,
      "t": 23454.522000000004,
      "d": 545.4540000000015,
      "v": 127
    },
    {
      "midi": 66,
      "hit": false,
      "t": 23727.248999999978,
      "d": 272.72699999999895,
      "v": 127
    },
    {
      "midi": 74,
      "hit": false,
      "t": 23999.975999999977,
      "d": 545.4540000000015,
      "v": 127
    },
    {
      "midi": 59,
      "hit": false,
      "t": 23999.976000000006,
      "d": 545.4540000000015,
      "v": 127
    },
    {
      "midi": 76,
      "hit": false,
      "t": 24545.42999999998,
      "d": 272.72699999999895,
      "v": 127
    },
    {
      "midi": 60,
      "hit": false,
      "t": 24545.430000000008,
      "d": 545.4540000000015,
      "v": 127
    },
    {
      "midi": 72,
      "hit": false,
      "t": 24818.156999999977,
      "d": 136.36349999999948,
      "v": 127
    },
    {
      "midi": 71,
      "hit": false,
      "t": 24954.520499999977,
      "d": 136.36349999999948,
      "v": 127
    },
    {
      "midi": 69,
      "hit": false,
      "t": 25090.883999999976,
      "d": 545.4540000000015,
      "v": 127
    },
    {
      "midi": 78,
      "hit": false,
      "t": 25090.883999999976,
      "d": 545.4540000000015,
      "v": 127
    },
    {
      "midi": 62,
      "hit": false,
      "t": 25090.88400000001,
      "d": 818.1810000000005,
      "v": 127
    },
    {
      "midi": 71,
      "hit": false,
      "t": 25636.337999999978,
      "d": 545.4540000000015,
      "v": 127
    },
    {
      "midi": 79,
      "hit": false,
      "t": 25636.337999999978,
      "d": 545.4540000000015,
      "v": 127
    },
    {
      "midi": 60,
      "hit": false,
      "t": 25909.06500000001,
      "d": 136.36349999999948,
      "v": 127
    },
    {
      "midi": 59,
      "hit": false,
      "t": 26045.42850000001,
      "d": 136.36349999999948,
      "v": 127
    },
    {
      "midi": 72,
      "hit": false,
      "t": 26181.79199999998,
      "d": 545.4540000000015,
      "v": 127
    },
    {
      "midi": 81,
      "hit": false,
      "t": 26181.79199999998,
      "d": 545.4540000000015,
      "v": 127
    },
    {
      "midi": 57,
      "hit": false,
      "t": 26181.79200000001,
      "d": 545.4540000000015,
      "v": 127
    },
    {
      "midi": 75,
      "hit": false,
      "t": 26727.24599999998,
      "d": 272.72699999999895,
      "v": 127
    },
    {
      "midi": 59,
      "hit": false,
      "t": 26727.24600000001,
      "d": 545.4540000000015,
      "v": 127
    },
    {
      "midi": 69,
      "hit": false,
      "t": 26999.97299999998,
      "d": 272.72699999999895,
      "v": 127
    },
    {
      "midi": 79,
      "hit": false,
      "t": 27272.69999999998,
      "d": 272.72699999999895,
      "v": 127
    },
    {
      "midi": 52,
      "hit": false,
      "t": 27272.70000000001,
      "d": 818.1810000000005,
      "v": 127
    },
    {
      "midi": 66,
      "hit": false,
      "t": 27545.426999999978,
      "d": 272.72699999999895,
      "v": 127
    },
    {
      "midi": 73,
      "hit": false,
      "t": 27818.153999999977,
      "d": 272.72699999999895,
      "v": 127
    },
    {
      "midi": 62,
      "hit": false,
      "t": 28090.880999999976,
      "d": 272.72699999999895,
      "v": 127
    },
    {
      "midi": 54,
      "hit": false,
      "t": 28090.881000000012,
      "d": 136.36349999999948,
      "v": 127
    },
    {
      "midi": 55,
      "hit": false,
      "t": 28227.24450000001,
      "d": 136.36349999999948,
      "v": 127
    },
    {
      "midi": 61,
      "hit": false,
      "t": 28363.607999999975,
      "d": 545.4540000000015,
      "v": 127
    },
    {
      "midi": 76,
      "hit": false,
      "t": 28363.607999999975,
      "d": 545.4540000000015,
      "v": 127
    },
    {
      "midi": 57,
      "hit": false,
      "t": 28363.60800000001,
      "d": 545.4540000000015,
      "v": 127
    },
    {
      "midi": 66,
      "hit": false,
      "t": 28909.061999999976,
      "d": 272.72699999999895,
      "v": 127
    },
    {
      "midi": 50,
      "hit": false,
      "t": 28909.062000000013,
      "d": 272.72699999999895,
      "v": 127
    },
    {
      "midi": 67,
      "hit": false,
      "t": 29181.788999999975,
      "d": 136.36349999999948,
      "v": 127
    },
    {
      "midi": 52,
      "hit": false,
      "t": 29181.78900000001,
      "d": 272.72699999999895,
      "v": 127
    },
    {
      "midi": 61,
      "hit": false,
      "t": 29318.152499999975,
      "d": 136.36349999999948,
      "v": 127
    },
    {
      "midi": 69,
      "hit": false,
      "t": 29454.515999999974,
      "d": 272.72699999999895,
      "v": 127
    },
    {
      "midi": 54,
      "hit": false,
      "t": 29454.51600000001,
      "d": 272.72699999999895,
      "v": 127
    },
    {
      "midi": 71,
      "hit": false,
      "t": 29727.242999999973,
      "d": 272.72699999999895,
      "v": 127
    },
    {
      "midi": 55,
      "hit": false,
      "t": 29727.24300000001,
      "d": 272.72699999999895,
      "v": 127
    },
    {
      "midi": 73,
      "hit": false,
      "t": 29999.969999999972,
      "d": 272.72699999999895,
      "v": 127
    },
    {
      "midi": 57,
      "hit": false,
      "t": 29999.97000000001,
      "d": 272.72699999999895,
      "v": 127
    },
    {
      "midi": 74,
      "hit": false,
      "t": 30272.69699999997,
      "d": 272.72699999999895,
      "v": 127
    },
    {
      "midi": 59,
      "hit": false,
      "t": 30272.697000000007,
      "d": 272.72699999999895,
      "v": 127
    },
    {
      "midi": 71,
      "hit": false,
      "t": 30545.42399999997,
      "d": 272.72699999999895,
      "v": 127
    },
    {
      "midi": 55,
      "hit": false,
      "t": 30545.424000000006,
      "d": 1090.9079999999994,
      "v": 127
    },
    {
      "midi": 61,
      "hit": false,
      "t": 30818.15099999997,
      "d": 272.72699999999895,
      "v": 127
    },
    {
      "midi": 62,
      "hit": false,
      "t": 31090.877999999968,
      "d": 272.72699999999895,
      "v": 127
    },
    {
      "midi": 66,
      "hit": false,
      "t": 31363.604999999967,
      "d": 272.72699999999895,
      "v": 127
    },
    {
      "midi": 71,
      "hit": false,
      "t": 31636.331999999966,
      "d": 272.72699999999895,
      "v": 127
    },
    {
      "midi": 73,
      "hit": false,
      "t": 31909.058999999965,
      "d": 272.72699999999895,
      "v": 127
    },
    {
      "midi": 58,
      "hit": false,
      "t": 31909.059000000005,
      "d": 272.72699999999895,
      "v": 127
    },
    {
      "midi": 74,
      "hit": false,
      "t": 32181.785999999964,
      "d": 272.72699999999895,
      "v": 127
    },
    {
      "midi": 59,
      "hit": false,
      "t": 32181.786000000004,
      "d": 272.72699999999895,
      "v": 127
    },
    {
      "midi": 71,
      "hit": false,
      "t": 32454.512999999963,
      "d": 272.72699999999895,
      "v": 127
    },
    {
      "midi": 61,
      "hit": false,
      "t": 32454.513000000003,
      "d": 272.72699999999895,
      "v": 127
    },
    {
      "midi": 69,
      "hit": false,
      "t": 32727.23999999996,
      "d": 272.72699999999895,
      "v": 127
    },
    {
      "midi": 62,
      "hit": false,
      "t": 32727.24,
      "d": 818.1810000000005,
      "v": 127
    },
    {
      "midi": 66,
      "hit": false,
      "t": 32999.96699999996,
      "d": 272.72699999999895,
      "v": 127
    },
    {
      "midi": 71,
      "hit": false,
      "t": 33272.69399999996,
      "d": 545.4539999999979,
      "v": 127
    },
    {
      "midi": 61,
      "hit": false,
      "t": 33545.421,
      "d": 272.72699999999895,
      "v": 127
    },
    {
      "midi": 74,
      "hit": false,
      "t": 33818.14799999996,
      "d": 272.72699999999895,
      "v": 127
    },
    {
      "midi": 66,
      "hit": false,
      "t": 33818.148,
      "d": 818.1809999999969,
      "v": 127
    },
    {
      "midi": 69,
      "hit": false,
      "t": 34090.874999999956,
      "d": 272.72699999999895,
      "v": 127
    },
    {
      "midi": 74,
      "hit": false,
      "t": 34363.601999999955,
      "d": 545.4539999999979,
      "v": 127
    },
    {
      "midi": 83,
      "hit": false,
      "t": 34363.601999999955,
      "d": 545.4539999999979,
      "v": 127
    },
    {
      "midi": 64,
      "hit": false,
      "t": 34636.329,
      "d": 272.72699999999895,
      "v": 127
    },
    {
      "midi": 76,
      "hit": false,
      "t": 34909.05599999995,
      "d": 272.72699999999895,
      "v": 127
    },
    {
      "midi": 69,
      "hit": false,
      "t": 34909.056,
      "d": 545.4539999999979,
      "v": 127
    },
    {
      "midi": 73,
      "hit": false,
      "t": 35181.78299999995,
      "d": 272.72699999999895,
      "v": 127
    },
    {
      "midi": 74,
      "hit": false,
      "t": 35454.50999999995,
      "d": 272.72699999999895,
      "v": 127
    },
    {
      "midi": 59,
      "hit": false,
      "t": 35454.509999999995,
      "d": 545.4539999999979,
      "v": 127
    },
    {
      "midi": 62,
      "hit": false,
      "t": 35454.509999999995,
      "d": 545.4539999999979,
      "v": 127
    },
    {
      "midi": 68,
      "hit": false,
      "t": 35727.23699999995,
      "d": 272.72699999999895,
      "v": 127
    },
    {
      "midi": 76,
      "hit": false,
      "t": 35999.96399999995,
      "d": 272.72699999999895,
      "v": 127
    },
    {
      "midi": 57,
      "hit": false,
      "t": 35999.96399999999,
      "d": 272.72699999999895,
      "v": 127
    },
    {
      "midi": 79,
      "hit": false,
      "t": 36272.69099999995,
      "d": 272.72699999999895,
      "v": 127
    },
    {
      "midi": 61,
      "hit": false,
      "t": 36272.69099999999,
      "d": 272.72699999999895,
      "v": 127
    },
    {
      "midi": 73,
      "hit": false,
      "t": 36545.41799999995,
      "d": 272.72699999999895,
      "v": 127
    },
    {
      "midi": 67,
      "hit": false,
      "t": 36545.41799999999,
      "d": 272.72699999999895,
      "v": 127
    },
    {
      "midi": 76,
      "hit": false,
      "t": 36818.144999999946,
      "d": 272.72699999999895,
      "v": 127
    },
    {
      "midi": 61,
      "hit": false,
      "t": 36818.14499999999,
      "d": 272.72699999999895,
      "v": 127
    },
    {
      "midi": 74,
      "hit": false,
      "t": 37090.871999999945,
      "d": 545.4539999999979,
      "v": 127
    },
    {
      "midi": 54,
      "hit": false,
      "t": 37090.87199999999,
      "d": 545.4539999999979,
      "v": 127
    },
    {
      "midi": 69,
      "hit": false,
      "t": 37090.87199999999,
      "d": 545.4539999999979,
      "v": 127
    },
    {
      "midi": 71,
      "hit": false,
      "t": 37636.32599999994,
      "d": 545.4539999999979,
      "v": 127
    },
    {
      "midi": 55,
      "hit": false,
      "t": 37636.32599999999,
      "d": 272.72699999999895,
      "v": 127
    },
    {
      "midi": 67,
      "hit": false,
      "t": 37909.052999999985,
      "d": 136.36349999999948,
      "v": 127
    },
    {
      "midi": 66,
      "hit": false,
      "t": 38045.416499999985,
      "d": 136.36349999999948,
      "v": 127
    },
    {
      "midi": 73,
      "hit": false,
      "t": 38181.77999999994,
      "d": 545.4539999999979,
      "v": 127
    },
    {
      "midi": 57,
      "hit": false,
      "t": 38181.779999999984,
      "d": 545.4539999999979,
      "v": 127
    },
    {
      "midi": 64,
      "hit": false,
      "t": 38181.779999999984,
      "d": 545.4539999999979,
      "v": 127
    },
    {
      "midi": 74,
      "hit": false,
      "t": 38727.23399999994,
      "d": 545.4539999999979,
      "v": 127
    },
    {
      "midi": 81,
      "hit": false,
      "t": 38727.23399999994,
      "d": 545.4539999999979,
      "v": 127
    },
    {
      "midi": 66,
      "hit": false,
      "t": 38727.23399999998,
      "d": 272.72699999999895,
      "v": 127
    },
    {
      "midi": 55,
      "hit": false,
      "t": 38999.96099999998,
      "d": 136.36349999999948,
      "v": 127
    },
    {
      "midi": 54,
      "hit": false,
      "t": 39136.32449999998,
      "d": 136.36349999999948,
      "v": 127
    },
    {
      "midi": 76,
      "hit": false,
      "t": 39272.68799999994,
      "d": 545.4539999999979,
      "v": 127
    },
    {
      "midi": 79,
      "hit": false,
      "t": 39272.68799999994,
      "d": 545.4539999999979,
      "v": 127
    },
    {
      "midi": 52,
      "hit": false,
      "t": 39272.68799999998,
      "d": 545.4539999999979,
      "v": 127
    },
    {
      "midi": 67,
      "hit": false,
      "t": 39272.68799999998,
      "d": 545.4539999999979,
      "v": 127
    },
    {
      "midi": 70,
      "hit": false,
      "t": 39818.141999999934,
      "d": 545.4539999999979,
      "v": 127
    },
    {
      "midi": 73,
      "hit": false,
      "t": 39818.141999999934,
      "d": 545.4539999999979,
      "v": 127
    },
    {
      "midi": 66,
      "hit": false,
      "t": 39818.14199999998,
      "d": 272.72699999999895,
      "v": 127
    },
    {
      "midi": 64,
      "hit": false,
      "t": 40090.86899999998,
      "d": 272.72699999999895,
      "v": 127
    },
    {
      "midi": 71,
      "hit": false,
      "t": 40363.59599999993,
      "d": 545.4539999999979,
      "v": 127
    },
    {
      "midi": 74,
      "hit": false,
      "t": 40363.59599999993,
      "d": 545.4539999999979,
      "v": 127
    },
    {
      "midi": 62,
      "hit": false,
      "t": 40363.595999999976,
      "d": 272.72699999999895,
      "v": 127
    },
    {
      "midi": 61,
      "hit": false,
      "t": 40636.322999999975,
      "d": 272.72699999999895,
      "v": 127
    },
    {
      "midi": 68,
      "hit": false,
      "t": 40909.04999999993,
      "d": 545.4539999999979,
      "v": 127
    },
    {
      "midi": 74,
      "hit": false,
      "t": 40909.04999999993,
      "d": 545.4539999999979,
      "v": 127
    },
    {
      "midi": 59,
      "hit": false,
      "t": 40909.049999999974,
      "d": 272.72699999999895,
      "v": 127
    },
    {
      "midi": 57,
      "hit": false,
      "t": 41181.77699999997,
      "d": 136.36349999999948,
      "v": 127
    },
    {
      "midi": 50,
      "hit": false,
      "t": 41318.14049999997,
      "d": 136.36349999999948,
      "v": 127
    },
    {
      "midi": 67,
      "hit": false,
      "t": 41454.50399999993,
      "d": 545.4539999999979,
      "v": 127
    },
    {
      "midi": 71,
      "hit": false,
      "t": 41454.50399999993,
      "d": 545.4539999999979,
      "v": 127
    },
    {
      "midi": 52,
      "hit": false,
      "t": 41454.50399999997,
      "d": 545.4539999999979,
      "v": 127
    },
    {
      "midi": 55,
      "hit": false,
      "t": 41454.50399999997,
      "d": 545.4539999999979,
      "v": 127
    },
    {
      "midi": 64,
      "hit": false,
      "t": 41999.957999999926,
      "d": 272.72699999999895,
      "v": 127
    },
    {
      "midi": 45,
      "hit": false,
      "t": 41999.95799999997,
      "d": 272.72699999999895,
      "v": 127
    },
    {
      "midi": 62,
      "hit": false,
      "t": 42272.684999999925,
      "d": 272.72699999999895,
      "v": 127
    },
    {
      "midi": 54,
      "hit": false,
      "t": 42272.68499999997,
      "d": 136.36349999999948,
      "v": 127
    },
    {
      "midi": 55,
      "hit": false,
      "t": 42409.04849999997,
      "d": 136.36349999999948,
      "v": 127
    },
    {
      "midi": 64,
      "hit": false,
      "t": 42545.411999999924,
      "d": 272.72699999999895,
      "v": 127
    },
    {
      "midi": 52,
      "hit": false,
      "t": 42545.41199999997,
      "d": 272.72699999999895,
      "v": 127
    },
    {
      "midi": 66,
      "hit": false,
      "t": 42818.13899999992,
      "d": 272.72699999999895,
      "v": 127
    },
    {
      "midi": 50,
      "hit": false,
      "t": 42818.13899999997,
      "d": 272.72699999999895,
      "v": 127
    },
    {
      "midi": 67,
      "hit": false,
      "t": 43090.86599999992,
      "d": 272.72699999999895,
      "v": 127
    },
    {
      "midi": 61,
      "hit": false,
      "t": 43090.865999999965,
      "d": 272.72699999999895,
      "v": 127
    },
    {
      "midi": 69,
      "hit": false,
      "t": 43363.59299999992,
      "d": 272.72699999999895,
      "v": 127
    },
    {
      "midi": 54,
      "hit": false,
      "t": 43363.592999999964,
      "d": 272.72699999999895,
      "v": 127
    },
    {
      "midi": 66,
      "hit": false,
      "t": 43636.31999999992,
      "d": 1090.908000000003,
      "v": 127
    },
    {
      "midi": 62,
      "hit": false,
      "t": 43636.31999999996,
      "d": 272.72699999999895,
      "v": 127
    },
    {
      "midi": 56,
      "hit": false,
      "t": 43909.04699999996,
      "d": 272.72699999999895,
      "v": 127
    },
    {
      "midi": 57,
      "hit": false,
      "t": 44181.77399999996,
      "d": 272.72699999999895,
      "v": 127
    },
    {
      "midi": 59,
      "hit": false,
      "t": 44454.50099999996,
      "d": 272.72699999999895,
      "v": 127
    },
    {
      "midi": 66,
      "hit": false,
      "t": 44727.22799999992,
      "d": 272.72699999999895,
      "v": 127
    },
    {
      "midi": 60,
      "hit": false,
      "t": 44727.22799999996,
      "d": 272.72699999999895,
      "v": 127
    },
    {
      "midi": 69,
      "hit": false,
      "t": 44999.95499999992,
      "d": 272.72699999999895,
      "v": 127
    },
    {
      "midi": 51,
      "hit": false,
      "t": 44999.95499999996,
      "d": 272.72699999999895,
      "v": 127
    },
    {
      "midi": 67,
      "hit": false,
      "t": 45272.68199999992,
      "d": 272.72699999999895,
      "v": 127
    },
    {
      "midi": 52,
      "hit": false,
      "t": 45272.68199999996,
      "d": 272.72699999999895,
      "v": 127
    },
    {
      "midi": 63,
      "hit": false,
      "t": 45545.40899999992,
      "d": 272.72699999999895,
      "v": 127
    },
    {
      "midi": 54,
      "hit": false,
      "t": 45545.408999999956,
      "d": 272.72699999999895,
      "v": 127
    },
    {
      "midi": 64,
      "hit": false,
      "t": 45818.13599999992,
      "d": 272.72699999999895,
      "v": 127
    },
    {
      "midi": 60,
      "hit": false,
      "t": 45818.135999999955,
      "d": 272.72699999999895,
      "v": 127
    },
    {
      "midi": 67,
      "hit": false,
      "t": 46090.86299999992,
      "d": 272.72699999999895,
      "v": 127
    },
    {
      "midi": 59,
      "hit": false,
      "t": 46090.862999999954,
      "d": 272.72699999999895,
      "v": 127
    },
    {
      "midi": 64,
      "hit": false,
      "t": 46363.58999999995,
      "d": 272.72699999999895,
      "v": 127
    },
    {
      "midi": 69,
      "hit": false,
      "t": 46636.316999999915,
      "d": 272.72699999999895,
      "v": 127
    },
    {
      "midi": 54,
      "hit": false,
      "t": 46636.31699999995,
      "d": 272.72699999999895,
      "v": 127
    },
    {
      "midi": 67,
      "hit": false,
      "t": 46909.043999999914,
      "d": 272.72699999999895,
      "v": 127
    },
    {
      "midi": 59,
      "hit": false,
      "t": 46909.04399999995,
      "d": 272.72699999999895,
      "v": 127
    },
    {
      "midi": 71,
      "hit": false,
      "t": 47181.77099999991,
      "d": 272.72699999999895,
      "v": 127
    },
    {
      "midi": 62,
      "hit": false,
      "t": 47181.77099999995,
      "d": 272.72699999999895,
      "v": 127
    },
    {
      "midi": 67,
      "hit": false,
      "t": 47454.49799999995,
      "d": 272.72699999999895,
      "v": 127
    },
    {
      "midi": 73,
      "hit": false,
      "t": 47727.22499999991,
      "d": 272.72699999999895,
      "v": 127
    },
    {
      "midi": 57,
      "hit": false,
      "t": 47727.22499999995,
      "d": 272.72699999999895,
      "v": 127
    },
    {
      "midi": 74,
      "hit": false,
      "t": 47999.95199999991,
      "d": 545.4539999999979,
      "v": 127
    },
    {
      "midi": 67,
      "hit": false,
      "t": 47999.95199999995,
      "d": 272.72699999999895,
      "v": 127
    },
    {
      "midi": 66,
      "hit": false,
      "t": 48272.678999999946,
      "d": 272.72699999999895,
      "v": 127
    },
    {
      "midi": 76,
      "hit": false,
      "t": 48545.40599999991,
      "d": 545.4539999999979,
      "v": 127
    },
    {
      "midi": 67,
      "hit": false,
      "t": 48545.405999999944,
      "d": 272.72699999999895,
      "v": 127
    },
    {
      "midi": 61,
      "hit": false,
      "t": 48818.13299999994,
      "d": 272.72699999999895,
      "v": 127
    },
    {
      "midi": 74,
      "hit": false,
      "t": 49090.859999999906,
      "d": 272.72699999999895,
      "v": 127
    },
    {
      "midi": 62,
      "hit": false,
      "t": 49090.85999999994,
      "d": 272.72699999999895,
      "v": 127
    },
    {
      "midi": 72,
      "hit": false,
      "t": 49363.586999999905,
      "d": 272.72699999999895,
      "v": 127
    },
    {
      "midi": 42,
      "hit": false,
      "t": 49363.58699999994,
      "d": 272.72699999999895,
      "v": 127
    },
    {
      "midi": 72,
      "hit": false,
      "t": 49636.313999999904,
      "d": 272.72699999999895,
      "v": 127
    },
    {
      "midi": 48,
      "hit": false,
      "t": 49636.31399999994,
      "d": 272.72699999999895,
      "v": 127
    },
    {
      "midi": 69,
      "hit": false,
      "t": 49909.0409999999,
      "d": 272.72699999999895,
      "v": 127
    },
    {
      "midi": 42,
      "hit": false,
      "t": 49909.04099999994,
      "d": 272.72699999999895,
      "v": 127
    },
    {
      "midi": 67,
      "hit": false,
      "t": 50181.7679999999,
      "d": 545.4539999999979,
      "v": 127
    },
    {
      "midi": 71,
      "hit": false,
      "t": 50181.7679999999,
      "d": 545.4539999999979,
      "v": 127
    },
    {
      "midi": 62,
      "hit": false,
      "t": 50181.76799999994,
      "d": 272.72699999999895,
      "v": 127
    },
    {
      "midi": 55,
      "hit": false,
      "t": 50454.49499999994,
      "d": 272.72699999999895,
      "v": 127
    },
    {
      "midi": 69,
      "hit": false,
      "t": 50727.2219999999,
      "d": 545.4539999999979,
      "v": 127
    },
    {
      "midi": 72,
      "hit": false,
      "t": 50727.2219999999,
      "d": 545.4539999999979,
      "v": 127
    },
    {
      "midi": 55,
      "hit": false,
      "t": 50727.221999999936,
      "d": 272.72699999999895,
      "v": 127
    },
    {
      "midi": 55,
      "hit": false,
      "t": 50999.948999999935,
      "d": 272.72699999999895,
      "v": 127
    },
    {
      "midi": 71,
      "hit": false,
      "t": 51272.6759999999,
      "d": 818.1809999999969,
      "v": 127
    },
    {
      "midi": 74,
      "hit": false,
      "t": 51272.6759999999,
      "d": 818.1809999999969,
      "v": 127
    },
    {
      "midi": 55,
      "hit": false,
      "t": 51272.675999999934,
      "d": 272.72699999999895,
      "v": 127
    },
    {
      "midi": 55,
      "hit": false,
      "t": 51545.40299999993,
      "d": 272.72699999999895,
      "v": 127
    },
    {
      "midi": 59,
      "hit": false,
      "t": 51818.12999999993,
      "d": 272.72699999999895,
      "v": 127
    },
    {
      "midi": 69,
      "hit": false,
      "t": 52090.856999999894,
      "d": 136.36349999999948,
      "v": 127
    },
    {
      "midi": 72,
      "hit": false,
      "t": 52090.856999999894,
      "d": 136.36349999999948,
      "v": 127
    },
    {
      "midi": 60,
      "hit": false,
      "t": 52090.85699999993,
      "d": 272.72699999999895,
      "v": 127
    },
    {
      "midi": 67,
      "hit": false,
      "t": 52227.220499999894,
      "d": 136.36349999999948,
      "v": 127
    },
    {
      "midi": 71,
      "hit": false,
      "t": 52227.220499999894,
      "d": 136.36349999999948,
      "v": 127
    },
    {
      "midi": 66,
      "hit": false,
      "t": 52363.58399999989,
      "d": 545.4539999999979,
      "v": 127
    },
    {
      "midi": 69,
      "hit": false,
      "t": 52363.58399999989,
      "d": 545.4539999999979,
      "v": 127
    },
    {
      "midi": 62,
      "hit": false,
      "t": 52363.58399999993,
      "d": 272.72699999999895,
      "v": 127
    },
    {
      "midi": 50,
      "hit": false,
      "t": 52636.31099999993,
      "d": 272.72699999999895,
      "v": 127
    },
    {
      "midi": 71,
      "hit": false,
      "t": 52909.03799999989,
      "d": 545.4539999999979,
      "v": 127
    },
    {
      "midi": 50,
      "hit": false,
      "t": 52909.03799999993,
      "d": 272.72699999999895,
      "v": 127
    },
    {
      "midi": 54,
      "hit": false,
      "t": 52909.03799999993,
      "d": 272.72699999999895,
      "v": 127
    },
    {
      "midi": 50,
      "hit": false,
      "t": 53181.76499999993,
      "d": 272.72699999999895,
      "v": 127
    },
    {
      "midi": 64,
      "hit": false,
      "t": 53454.49199999989,
      "d": 818.1809999999969,
      "v": 127
    },
    {
      "midi": 50,
      "hit": false,
      "t": 53454.491999999926,
      "d": 272.72699999999895,
      "v": 127
    },
    {
      "midi": 56,
      "hit": false,
      "t": 53454.491999999926,
      "d": 272.72699999999895,
      "v": 127
    },
    {
      "midi": 50,
      "hit": false,
      "t": 53727.218999999925,
      "d": 272.72699999999895,
      "v": 127
    },
    {
      "midi": 48,
      "hit": false,
      "t": 53999.94599999992,
      "d": 272.72699999999895,
      "v": 127
    },
    {
      "midi": 66,
      "hit": false,
      "t": 54272.672999999886,
      "d": 136.36349999999948,
      "v": 127
    },
    {
      "midi": 57,
      "hit": false,
      "t": 54272.67299999992,
      "d": 136.36349999999948,
      "v": 127
    },
    {
      "midi": 67,
      "hit": false,
      "t": 54409.036499999886,
      "d": 136.36349999999948,
      "v": 127
    },
    {
      "midi": 59,
      "hit": false,
      "t": 54409.03649999992,
      "d": 136.36349999999948,
      "v": 127
    },
    {
      "midi": 69,
      "hit": false,
      "t": 54545.399999999885,
      "d": 545.4539999999979,
      "v": 127
    },
    {
      "midi": 60,
      "hit": false,
      "t": 54545.39999999992,
      "d": 272.72699999999895,
      "v": 127
    },
    {
      "midi": 57,
      "hit": false,
      "t": 54818.12699999992,
      "d": 272.72699999999895,
      "v": 127
    },
    {
      "midi": 62,
      "hit": false,
      "t": 55090.85399999988,
      "d": 272.72699999999895,
      "v": 127
    },
    {
      "midi": 54,
      "hit": false,
      "t": 55090.85399999992,
      "d": 272.72699999999895,
      "v": 127
    },
    {
      "midi": 64,
      "hit": false,
      "t": 55363.58099999988,
      "d": 272.72699999999895,
      "v": 127
    },
    {
      "midi": 55,
      "hit": false,
      "t": 55363.58099999992,
      "d": 272.72699999999895,
      "v": 127
    },
    {
      "midi": 66,
      "hit": false,
      "t": 55636.30799999988,
      "d": 272.72699999999895,
      "v": 127
    },
    {
      "midi": 57,
      "hit": false,
      "t": 55636.30799999992,
      "d": 272.72699999999895,
      "v": 127
    },
    {
      "midi": 67,
      "hit": false,
      "t": 55909.03499999988,
      "d": 272.72699999999895,
      "v": 127
    },
    {
      "midi": 55,
      "hit": false,
      "t": 55909.034999999916,
      "d": 272.72699999999895,
      "v": 127
    },
    {
      "midi": 69,
      "hit": false,
      "t": 56181.76199999988,
      "d": 272.72699999999895,
      "v": 127
    },
    {
      "midi": 48,
      "hit": false,
      "t": 56181.761999999915,
      "d": 545.4539999999979,
      "v": 127
    },
    {
      "midi": 54,
      "hit": false,
      "t": 56181.761999999915,
      "d": 545.4539999999979,
      "v": 127
    },
    {
      "midi": 71,
      "hit": false,
      "t": 56454.48899999988,
      "d": 272.72699999999895,
      "v": 127
    },
    {
      "midi": 62,
      "hit": false,
      "t": 56727.21599999988,
      "d": 545.4539999999979,
      "v": 127
    },
    {
      "midi": 67,
      "hit": false,
      "t": 56727.21599999988,
      "d": 545.4539999999979,
      "v": 127
    },
    {
      "midi": 47,
      "hit": false,
      "t": 56727.21599999991,
      "d": 545.4539999999979,
      "v": 127
    },
    {
      "midi": 55,
      "hit": false,
      "t": 56727.21599999991,
      "d": 545.4539999999979,
      "v": 127
    }
  ]
}