{
  "jsonPath": "Classical/Classical/Wolfgang Amadeus Mozart/les-echos.json",
  "path": "Classical\\Classical\\Wolfgang Amadeus Mozart\\Les Echos.mid",
  "name": "Les Echos",
  "difficulty": "Advanced",
  "bpm": 100,
  "notes": [
    {
      "midi": 72,
      "hit": false,
      "t": 900,
      "d": 225,
      "v": 65
    },
    {
      "midi": 74,
      "hit": false,
      "t": 1125,
      "d": 75,
      "v": 77
    },
    {
      "midi": 76,
      "hit": false,
      "t": 1200,
      "d": 300,
      "v": 86
    },
    {
      "midi": 60,
      "hit": false,
      "t": 1200,
      "d": 300,
      "v": 67
    },
    {
      "midi": 72,
      "hit": false,
      "t": 1200,
      "d": 300,
      "v": 67
    },
    {
      "midi": 76,
      "hit": false,
      "t": 1500,
      "d": 225,
      "v": 72
    },
    {
      "midi": 72,
      "hit": false,
      "t": 1725,
      "d": 75,
      "v": 72
    },
    {
      "midi": 77,
      "hit": false,
      "t": 1800,
      "d": 300,
      "v": 83
    },
    {
      "midi": 67,
      "hit": false,
      "t": 1800,
      "d": 300,
      "v": 65
    },
    {
      "midi": 74,
      "hit": false,
      "t": 1800,
      "d": 300,
      "v": 65
    },
    {
      "midi": 77,
      "hit": false,
      "t": 2100,
      "d": 225,
      "v": 77
    },
    {
      "midi": 74,
      "hit": false,
      "t": 2325,
      "d": 75,
      "v": 63
    },
    {
      "midi": 79,
      "hit": false,
      "t": 2400,
      "d": 450,
      "v": 84
    },
    {
      "midi": 72,
      "hit": false,
      "t": 2400,
      "d": 300,
      "v": 70
    },
    {
      "midi": 76,
      "hit": false,
      "t": 2400,
      "d": 300,
      "v": 70
    },
    {
      "midi": 72,
      "hit": false,
      "t": 2700,
      "d": 300,
      "v": 76
    },
    {
      "midi": 76,
      "hit": false,
      "t": 2700,
      "d": 300,
      "v": 76
    },
    {
      "midi": 84,
      "hit": false,
      "t": 2850,
      "d": 150,
      "v": 88
    },
    {
      "midi": 79,
      "hit": false,
      "t": 3000,
      "d": 300,
      "v": 71
    },
    {
      "midi": 72,
      "hit": false,
      "t": 3000,
      "d": 300,
      "v": 79
    },
    {
      "midi": 76,
      "hit": false,
      "t": 3000,
      "d": 300,
      "v": 79
    },
    {
      "midi": 72,
      "hit": false,
      "t": 3300,
      "d": 225,
      "v": 62
    },
    {
      "midi": 74,
      "hit": false,
      "t": 3525,
      "d": 75,
      "v": 79
    },
    {
      "midi": 76,
      "hit": false,
      "t": 3600,
      "d": 300,
      "v": 83
    },
    {
      "midi": 60,
      "hit": false,
      "t": 3600,
      "d": 300,
      "v": 64
    },
    {
      "midi": 72,
      "hit": false,
      "t": 3600,
      "d": 300,
      "v": 64
    },
    {
      "midi": 76,
      "hit": false,
      "t": 3900,
      "d": 225,
      "v": 73
    },
    {
      "midi": 72,
      "hit": false,
      "t": 4125,
      "d": 75,
      "v": 68
    },
    {
      "midi": 77,
      "hit": false,
      "t": 4200,
      "d": 300,
      "v": 80
    },
    {
      "midi": 67,
      "hit": false,
      "t": 4200,
      "d": 300,
      "v": 65
    },
    {
      "midi": 74,
      "hit": false,
      "t": 4200,
      "d": 300,
      "v": 65
    },
    {
      "midi": 77,
      "hit": false,
      "t": 4500,
      "d": 225,
      "v": 80
    },
    {
      "midi": 74,
      "hit": false,
      "t": 4725,
      "d": 75,
      "v": 69
    },
    {
      "midi": 79,
      "hit": false,
      "t": 4800,
      "d": 450,
      "v": 89
    },
    {
      "midi": 72,
      "hit": false,
      "t": 4800,
      "d": 300,
      "v": 69
    },
    {
      "midi": 76,
      "hit": false,
      "t": 4800,
      "d": 300,
      "v": 69
    },
    {
      "midi": 72,
      "hit": false,
      "t": 5100,
      "d": 300,
      "v": 75
    },
    {
      "midi": 76,
      "hit": false,
      "t": 5100,
      "d": 300,
      "v": 75
    },
    {
      "midi": 84,
      "hit": false,
      "t": 5250,
      "d": 150,
      "v": 89
    },
    {
      "midi": 79,
      "hit": false,
      "t": 5400,
      "d": 300,
      "v": 65
    },
    {
      "midi": 72,
      "hit": false,
      "t": 5400,
      "d": 300,
      "v": 79
    },
    {
      "midi": 76,
      "hit": false,
      "t": 5400,
      "d": 300,
      "v": 79
    },
    {
      "midi": 76,
      "hit": false,
      "t": 5700,
      "d": 225,
      "v": 66
    },
    {
      "midi": 77,
      "hit": false,
      "t": 5925,
      "d": 75,
      "v": 74
    },
    {
      "midi": 79,
      "hit": false,
      "t": 6000,
      "d": 150,
      "v": 78
    },
    {
      "midi": 76,
      "hit": false,
      "t": 6150,
      "d": 150,
      "v": 74
    },
    {
      "midi": 84,
      "hit": false,
      "t": 6300,
      "d": 150,
      "v": 87
    },
    {
      "midi": 83,
      "hit": false,
      "t": 6450,
      "d": 150,
      "v": 72
    },
    {
      "midi": 81,
      "hit": false,
      "t": 6600,
      "d": 150,
      "v": 66
    },
    {
      "midi": 79,
      "hit": false,
      "t": 6750,
      "d": 150,
      "v": 72
    },
    {
      "midi": 77,
      "hit": false,
      "t": 6900,
      "d": 150,
      "v": 72
    },
    {
      "midi": 67,
      "hit": false,
      "t": 6900,
      "d": 150,
      "v": 73
    },
    {
      "midi": 76,
      "hit": false,
      "t": 7050,
      "d": 150,
      "v": 70
    },
    {
      "midi": 72,
      "hit": false,
      "t": 7050,
      "d": 150,
      "v": 87
    },
    {
      "midi": 71,
      "hit": false,
      "t": 7200,
      "d": 450,
      "v": 74
    },
    {
      "midi": 74,
      "hit": false,
      "t": 7200,
      "d": 450,
      "v": 74
    },
    {
      "midi": 67,
      "hit": false,
      "t": 7200,
      "d": 300,
      "v": 69
    },
    {
      "midi": 55,
      "hit": false,
      "t": 7500,
      "d": 300,
      "v": 68
    },
    {
      "midi": 72,
      "hit": false,
      "t": 7650,
      "d": 75,
      "v": 80
    },
    {
      "midi": 76,
      "hit": false,
      "t": 7650,
      "d": 75,
      "v": 80
    },
    {
      "midi": 74,
      "hit": false,
      "t": 7725,
      "d": 75,
      "v": 80
    },
    {
      "midi": 77,
      "hit": false,
      "t": 7725,
      "d": 75,
      "v": 80
    },
    {
      "midi": 72,
      "hit": false,
      "t": 7800,
      "d": 300,
      "v": 72
    },
    {
      "midi": 76,
      "hit": false,
      "t": 7800,
      "d": 300,
      "v": 72
    },
    {
      "midi": 60,
      "hit": false,
      "t": 7800,
      "d": 300,
      "v": 81
    },
    {
      "midi": 76,
      "hit": false,
      "t": 8100,
      "d": 225,
      "v": 74
    },
    {
      "midi": 77,
      "hit": false,
      "t": 8325,
      "d": 75,
      "v": 81
    },
    {
      "midi": 79,
      "hit": false,
      "t": 8400,
      "d": 150,
      "v": 79
    },
    {
      "midi": 76,
      "hit": false,
      "t": 8550,
      "d": 150,
      "v": 70
    },
    {
      "midi": 84,
      "hit": false,
      "t": 8700,
      "d": 150,
      "v": 86
    },
    {
      "midi": 83,
      "hit": false,
      "t": 8850,
      "d": 150,
      "v": 75
    },
    {
      "midi": 81,
      "hit": false,
      "t": 9000,
      "d": 150,
      "v": 70
    },
    {
      "midi": 79,
      "hit": false,
      "t": 9150,
      "d": 150,
      "v": 70
    },
    {
      "midi": 77,
      "hit": false,
      "t": 9300,
      "d": 150,
      "v": 71
    },
    {
      "midi": 67,
      "hit": false,
      "t": 9300,
      "d": 150,
      "v": 71
    },
    {
      "midi": 76,
      "hit": false,
      "t": 9450,
      "d": 150,
      "v": 71
    },
    {
      "midi": 72,
      "hit": false,
      "t": 9450,
      "d": 150,
      "v": 80
    },
    {
      "midi": 71,
      "hit": false,
      "t": 9600,
      "d": 450,
      "v": 69
    },
    {
      "midi": 74,
      "hit": false,
      "t": 9600,
      "d": 450,
      "v": 69
    },
    {
      "midi": 67,
      "hit": false,
      "t": 9600,
      "d": 300,
      "v": 67
    },
    {
      "midi": 55,
      "hit": false,
      "t": 9900,
      "d": 300,
      "v": 64
    },
    {
      "midi": 72,
      "hit": false,
      "t": 10050,
      "d": 75,
      "v": 80
    },
    {
      "midi": 76,
      "hit": false,
      "t": 10050,
      "d": 75,
      "v": 80
    },
    {
      "midi": 74,
      "hit": false,
      "t": 10125,
      "d": 75,
      "v": 83
    },
    {
      "midi": 77,
      "hit": false,
      "t": 10125,
      "d": 75,
      "v": 83
    },
    {
      "midi": 72,
      "hit": false,
      "t": 10200,
      "d": 300,
      "v": 76
    },
    {
      "midi": 76,
      "hit": false,
      "t": 10200,
      "d": 300,
      "v": 76
    },
    {
      "midi": 60,
      "hit": false,
      "t": 10200,
      "d": 300,
      "v": 87
    },
    {
      "midi": 79,
      "hit": false,
      "t": 10500,
      "d": 225,
      "v": 87
    },
    {
      "midi": 77,
      "hit": false,
      "t": 10725,
      "d": 75,
      "v": 73
    },
    {
      "midi": 76,
      "hit": false,
      "t": 10800,
      "d": 300,
      "v": 72
    },
    {
      "midi": 74,
      "hit": false,
      "t": 11100,
      "d": 300,
      "v": 77
    },
    {
      "midi": 76,
      "hit": false,
      "t": 11100,
      "d": 300,
      "v": 77
    },
    {
      "midi": 68,
      "hit": false,
      "t": 11100,
      "d": 300,
      "v": 70
    },
    {
      "midi": 72,
      "hit": false,
      "t": 11400,
      "d": 300,
      "v": 79
    },
    {
      "midi": 76,
      "hit": false,
      "t": 11400,
      "d": 300,
      "v": 79
    },
    {
      "midi": 69,
      "hit": false,
      "t": 11400,
      "d": 300,
      "v": 78
    },
    {
      "midi": 77,
      "hit": false,
      "t": 11700,
      "d": 75,
      "v": 76
    },
    {
      "midi": 65,
      "hit": false,
      "t": 11700,
      "d": 300,
      "v": 68
    },
    {
      "midi": 79,
      "hit": false,
      "t": 11775,
      "d": 75,
      "v": 82
    },
    {
      "midi": 81,
      "hit": false,
      "t": 11850,
      "d": 75,
      "v": 79
    },
    {
      "midi": 77,
      "hit": false,
      "t": 11925,
      "d": 75,
      "v": 71
    },
    {
      "midi": 72,
      "hit": false,
      "t": 12000,
      "d": 600,
      "v": 67
    },
    {
      "midi": 76,
      "hit": false,
      "t": 12000,
      "d": 600,
      "v": 67
    },
    {
      "midi": 67,
      "hit": false,
      "t": 12000,
      "d": 600,
      "v": 81
    },
    {
      "midi": 71,
      "hit": false,
      "t": 12600,
      "d": 300,
      "v": 67
    },
    {
      "midi": 74,
      "hit": false,
      "t": 12600,
      "d": 300,
      "v": 67
    },
    {
      "midi": 55,
      "hit": false,
      "t": 12600,
      "d": 300,
      "v": 68
    },
    {
      "midi": 79,
      "hit": false,
      "t": 12900,
      "d": 225,
      "v": 84
    },
    {
      "midi": 77,
      "hit": false,
      "t": 13125,
      "d": 75,
      "v": 73
    },
    {
      "midi": 76,
      "hit": false,
      "t": 13200,
      "d": 300,
      "v": 75
    },
    {
      "midi": 74,
      "hit": false,
      "t": 13500,
      "d": 300,
      "v": 72
    },
    {
      "midi": 76,
      "hit": false,
      "t": 13500,
      "d": 300,
      "v": 72
    },
    {
      "midi": 68,
      "hit": false,
      "t": 13500,
      "d": 300,
      "v": 67
    },
    {
      "midi": 72,
      "hit": false,
      "t": 13800,
      "d": 300,
      "v": 80
    },
    {
      "midi": 76,
      "hit": false,
      "t": 13800,
      "d": 300,
      "v": 80
    },
    {
      "midi": 69,
      "hit": false,
      "t": 13800,
      "d": 300,
      "v": 79
    },
    {
      "midi": 77,
      "hit": false,
      "t": 14100,
      "d": 75,
      "v": 81
    },
    {
      "midi": 65,
      "hit": false,
      "t": 14100,
      "d": 300,
      "v": 70
    },
    {
      "midi": 79,
      "hit": false,
      "t": 14175,
      "d": 75,
      "v": 84
    },
    {
      "midi": 81,
      "hit": false,
      "t": 14250,
      "d": 75,
      "v": 83
    },
    {
      "midi": 77,
      "hit": false,
      "t": 14325,
      "d": 75,
      "v": 71
    },
    {
      "midi": 72,
      "hit": false,
      "t": 14400,
      "d": 600,
      "v": 76
    },
    {
      "midi": 76,
      "hit": false,
      "t": 14400,
      "d": 600,
      "v": 76
    },
    {
      "midi": 67,
      "hit": false,
      "t": 14400,
      "d": 600,
      "v": 81
    },
    {
      "midi": 71,
      "hit": false,
      "t": 15000,
      "d": 300,
      "v": 68
    },
    {
      "midi": 74,
      "hit": false,
      "t": 15000,
      "d": 300,
      "v": 68
    },
    {
      "midi": 55,
      "hit": false,
      "t": 15000,
      "d": 300,
      "v": 66
    },
    {
      "midi": 74,
      "hit": false,
      "t": 15300,
      "d": 225,
      "v": 76
    },
    {
      "midi": 71,
      "hit": false,
      "t": 15300,
      "d": 225,
      "v": 92
    },
    {
      "midi": 76,
      "hit": false,
      "t": 15525,
      "d": 75,
      "v": 81
    },
    {
      "midi": 72,
      "hit": false,
      "t": 15525,
      "d": 75,
      "v": 84
    },
    {
      "midi": 76,
      "hit": false,
      "t": 15600,
      "d": 150,
      "v": 78
    },
    {
      "midi": 74,
      "hit": false,
      "t": 15600,
      "d": 300,
      "v": 83
    },
    {
      "midi": 76,
      "hit": false,
      "t": 15750,
      "d": 75,
      "v": 76
    },
    {
      "midi": 76,
      "hit": false,
      "t": 15825,
      "d": 75,
      "v": 75
    },
    {
      "midi": 74,
      "hit": false,
      "t": 15900,
      "d": 300,
      "v": 68
    },
    {
      "midi": 67,
      "hit": false,
      "t": 15900,
      "d": 300,
      "v": 70
    },
    {
      "midi": 71,
      "hit": false,
      "t": 15900,
      "d": 300,
      "v": 68
    },
    {
      "midi": 76,
      "hit": false,
      "t": 16200,
      "d": 150,
      "v": 78
    },
    {
      "midi": 67,
      "hit": false,
      "t": 16200,
      "d": 300,
      "v": 75
    },
    {
      "midi": 74,
      "hit": false,
      "t": 16200,
      "d": 300,
      "v": 82
    },
    {
      "midi": 76,
      "hit": false,
      "t": 16350,
      "d": 75,
      "v": 79
    },
    {
      "midi": 76,
      "hit": false,
      "t": 16425,
      "d": 75,
      "v": 81
    },
    {
      "midi": 74,
      "hit": false,
      "t": 16500,
      "d": 300,
      "v": 67
    },
    {
      "midi": 71,
      "hit": false,
      "t": 16500,
      "d": 300,
      "v": 74
    },
    {
      "midi": 79,
      "hit": false,
      "t": 16800,
      "d": 150,
      "v": 85
    },
    {
      "midi": 67,
      "hit": false,
      "t": 16800,
      "d": 300,
      "v": 77
    },
    {
      "midi": 76,
      "hit": false,
      "t": 16800,
      "d": 300,
      "v": 88
    },
    {
      "midi": 78,
      "hit": false,
      "t": 16950,
      "d": 75,
      "v": 71
    },
    {
      "midi": 79,
      "hit": false,
      "t": 17025,
      "d": 75,
      "v": 79
    },
    {
      "midi": 76,
      "hit": false,
      "t": 17100,
      "d": 300,
      "v": 66
    },
    {
      "midi": 72,
      "hit": false,
      "t": 17100,
      "d": 300,
      "v": 67
    },
    {
      "midi": 79,
      "hit": false,
      "t": 17400,
      "d": 150,
      "v": 83
    },
    {
      "midi": 67,
      "hit": false,
      "t": 17400,
      "d": 300,
      "v": 76
    },
    {
      "midi": 76,
      "hit": false,
      "t": 17400,
      "d": 300,
      "v": 80
    },
    {
      "midi": 78,
      "hit": false,
      "t": 17550,
      "d": 75,
      "v": 70
    },
    {
      "midi": 79,
      "hit": false,
      "t": 17625,
      "d": 75,
      "v": 82
    },
    {
      "midi": 76,
      "hit": false,
      "t": 17700,
      "d": 300,
      "v": 73
    },
    {
      "midi": 72,
      "hit": false,
      "t": 17700,
      "d": 300,
      "v": 65
    },
    {
      "midi": 83,
      "hit": false,
      "t": 18000,
      "d": 300,
      "v": 92
    },
    {
      "midi": 74,
      "hit": false,
      "t": 18000,
      "d": 300,
      "v": 85
    },
    {
      "midi": 77,
      "hit": false,
      "t": 18000,
      "d": 300,
      "v": 85
    },
    {
      "midi": 84,
      "hit": false,
      "t": 18300,
      "d": 150,
      "v": 82
    },
    {
      "midi": 72,
      "hit": false,
      "t": 18300,
      "d": 150,
      "v": 74
    },
    {
      "midi": 76,
      "hit": false,
      "t": 18300,
      "d": 150,
      "v": 74
    },
    {
      "midi": 83,
      "hit": false,
      "t": 18600,
      "d": 300,
      "v": 70
    },
    {
      "midi": 74,
      "hit": false,
      "t": 18600,
      "d": 300,
      "v": 70
    },
    {
      "midi": 77,
      "hit": false,
      "t": 18600,
      "d": 300,
      "v": 70
    },
    {
      "midi": 84,
      "hit": false,
      "t": 18900,
      "d": 150,
      "v": 82
    },
    {
      "midi": 72,
      "hit": false,
      "t": 18900,
      "d": 150,
      "v": 74
    },
    {
      "midi": 76,
      "hit": false,
      "t": 18900,
      "d": 150,
      "v": 74
    },
    {
      "midi": 74,
      "hit": false,
      "t": 19200,
      "d": 300,
      "v": 64
    },
    {
      "midi": 77,
      "hit": false,
      "t": 19200,
      "d": 300,
      "v": 64
    },
    {
      "midi": 65,
      "hit": false,
      "t": 19200,
      "d": 600,
      "v": 65
    },
    {
      "midi": 77,
      "hit": false,
      "t": 19500,
      "d": 75,
      "v": 72
    },
    {
      "midi": 79,
      "hit": false,
      "t": 19575,
      "d": 75,
      "v": 82
    },
    {
      "midi": 81,
      "hit": false,
      "t": 19650,
      "d": 75,
      "v": 82
    },
    {
      "midi": 77,
      "hit": false,
      "t": 19725,
      "d": 75,
      "v": 67
    },
    {
      "midi": 72,
      "hit": false,
      "t": 19800,
      "d": 300,
      "v": 69
    },
    {
      "midi": 76,
      "hit": false,
      "t": 19800,
      "d": 300,
      "v": 69
    },
    {
      "midi": 67,
      "hit": false,
      "t": 19800,
      "d": 600,
      "v": 78
    },
    {
      "midi": 71,
      "hit": false,
      "t": 20100,
      "d": 300,
      "v": 71
    },
    {
      "midi": 74,
      "hit": false,
      "t": 20100,
      "d": 300,
      "v": 71
    },
    {
      "midi": 72,
      "hit": false,
      "t": 20400,
      "d": 600,
      "v": 71
    },
    {
      "midi": 60,
      "hit": false,
      "t": 20400,
      "d": 600,
      "v": 62
    },
    {
      "midi": 74,
      "hit": false,
      "t": 21300,
      "d": 225,
      "v": 67
    },
    {
      "midi": 71,
      "hit": false,
      "t": 21300,
      "d": 225,
      "v": 69
    },
    {
      "midi": 76,
      "hit": false,
      "t": 21525,
      "d": 75,
      "v": 80
    },
    {
      "midi": 72,
      "hit": false,
      "t": 21525,
      "d": 75,
      "v": 79
    },
    {
      "midi": 77,
      "hit": false,
      "t": 21600,
      "d": 150,
      "v": 80
    },
    {
      "midi": 67,
      "hit": false,
      "t": 21600,
      "d": 300,
      "v": 80
    },
    {
      "midi": 74,
      "hit": false,
      "t": 21600,
      "d": 300,
      "v": 77
    },
    {
      "midi": 76,
      "hit": false,
      "t": 21750,
      "d": 75,
      "v": 72
    },
    {
      "midi": 77,
      "hit": false,
      "t": 21825,
      "d": 75,
      "v": 84
    },
    {
      "midi": 74,
      "hit": false,
      "t": 21900,
      "d": 300,
      "v": 69
    },
    {
      "midi": 71,
      "hit": false,
      "t": 21900,
      "d": 300,
      "v": 69
    },
    {
      "midi": 77,
      "hit": false,
      "t": 22200,
      "d": 150,
      "v": 84
    },
    {
      "midi": 67,
      "hit": false,
      "t": 22200,
      "d": 300,
      "v": 77
    },
    {
      "midi": 74,
      "hit": false,
      "t": 22200,
      "d": 300,
      "v": 83
    },
    {
      "midi": 76,
      "hit": false,
      "t": 22350,
      "d": 75,
      "v": 69
    },
    {
      "midi": 77,
      "hit": false,
      "t": 22425,
      "d": 75,
      "v": 78
    },
    {
      "midi": 74,
      "hit": false,
      "t": 22500,
      "d": 300,
      "v": 72
    },
    {
      "midi": 71,
      "hit": false,
      "t": 22500,
      "d": 300,
      "v": 69
    },
    {
      "midi": 79,
      "hit": false,
      "t": 22800,
      "d": 150,
      "v": 88
    },
    {
      "midi": 67,
      "hit": false,
      "t": 22800,
      "d": 300,
      "v": 72
    },
    {
      "midi": 76,
      "hit": false,
      "t": 22800,
      "d": 300,
      "v": 81
    },
    {
      "midi": 78,
      "hit": false,
      "t": 22950,
      "d": 75,
      "v": 71
    },
    {
      "midi": 79,
      "hit": false,
      "t": 23025,
      "d": 75,
      "v": 83
    },
    {
      "midi": 76,
      "hit": false,
      "t": 23100,
      "d": 300,
      "v": 71
    },
    {
      "midi": 72,
      "hit": false,
      "t": 23100,
      "d": 300,
      "v": 68
    },
    {
      "midi": 79,
      "hit": false,
      "t": 23400,
      "d": 150,
      "v": 76
    },
    {
      "midi": 67,
      "hit": false,
      "t": 23400,
      "d": 300,
      "v": 72
    },
    {
      "midi": 76,
      "hit": false,
      "t": 23400,
      "d": 300,
      "v": 89
    },
    {
      "midi": 78,
      "hit": false,
      "t": 23550,
      "d": 75,
      "v": 76
    },
    {
      "midi": 79,
      "hit": false,
      "t": 23625,
      "d": 75,
      "v": 77
    },
    {
      "midi": 76,
      "hit": false,
      "t": 23700,
      "d": 300,
      "v": 68
    },
    {
      "midi": 72,
      "hit": false,
      "t": 23700,
      "d": 300,
      "v": 72
    },
    {
      "midi": 83,
      "hit": false,
      "t": 24000,
      "d": 300,
      "v": 87
    },
    {
      "midi": 74,
      "hit": false,
      "t": 24000,
      "d": 300,
      "v": 85
    },
    {
      "midi": 77,
      "hit": false,
      "t": 24000,
      "d": 300,
      "v": 85
    },
    {
      "midi": 84,
      "hit": false,
      "t": 24300,
      "d": 150,
      "v": 84
    },
    {
      "midi": 72,
      "hit": false,
      "t": 24300,
      "d": 150,
      "v": 70
    },
    {
      "midi": 76,
      "hit": false,
      "t": 24300,
      "d": 150,
      "v": 70
    },
    {
      "midi": 83,
      "hit": false,
      "t": 24600,
      "d": 300,
      "v": 69
    },
    {
      "midi": 74,
      "hit": false,
      "t": 24600,
      "d": 300,
      "v": 72
    },
    {
      "midi": 77,
      "hit": false,
      "t": 24600,
      "d": 300,
      "v": 72
    },
    {
      "midi": 84,
      "hit": false,
      "t": 24900,
      "d": 150,
      "v": 77
    },
    {
      "midi": 72,
      "hit": false,
      "t": 24900,
      "d": 150,
      "v": 72
    },
    {
      "midi": 76,
      "hit": false,
      "t": 24900,
      "d": 150,
      "v": 72
    },
    {
      "midi": 74,
      "hit": false,
      "t": 25200,
      "d": 300,
      "v": 69
    },
    {
      "midi": 77,
      "hit": false,
      "t": 25200,
      "d": 300,
      "v": 69
    },
    {
      "midi": 65,
      "hit": false,
      "t": 25200,
      "d": 600,
      "v": 69
    },
    {
      "midi": 77,
      "hit": false,
      "t": 25500,
      "d": 75,
      "v": 72
    },
    {
      "midi": 79,
      "hit": false,
      "t": 25575,
      "d": 75,
      "v": 80
    },
    {
      "midi": 81,
      "hit": false,
      "t": 25650,
      "d": 75,
      "v": 79
    },
    {
      "midi": 77,
      "hit": false,
      "t": 25725,
      "d": 75,
      "v": 69
    },
    {
      "midi": 72,
      "hit": false,
      "t": 25800,
      "d": 300,
      "v": 74
    },
    {
      "midi": 76,
      "hit": false,
      "t": 25800,
      "d": 300,
      "v": 74
    },
    {
      "midi": 67,
      "hit": false,
      "t": 25800,
      "d": 600,
      "v": 79
    },
    {
      "midi": 71,
      "hit": false,
      "t": 26100,
      "d": 300,
      "v": 69
    },
    {
      "midi": 74,
      "hit": false,
      "t": 26100,
      "d": 300,
      "v": 69
    },
    {
      "midi": 72,
      "hit": false,
      "t": 26400,
      "d": 600,
      "v": 68
    },
    {
      "midi": 60,
      "hit": false,
      "t": 26400,
      "d": 600,
      "v": 61
    }
  ]
}