{
  "jsonPath": "Classical/Classical/Wolfgang Amadeus Mozart/minuet-k94.json",
  "path": "Classical\\Classical\\Wolfgang Amadeus Mozart\\Minuet, K94.mid",
  "name": "Minuet, K94",
  "difficulty": "Advanced",
  "bpm": 100,
  "notes": [
    {
      "midi": 79,
      "hit": false,
      "t": 1200,
      "d": 450,
      "v": 69
    },
    {
      "midi": 77,
      "hit": false,
      "t": 1650,
      "d": 150,
      "v": 68
    },
    {
      "midi": 76,
      "hit": false,
      "t": 1800,
      "d": 600,
      "v": 70
    },
    {
      "midi": 72,
      "hit": false,
      "t": 2400,
      "d": 600,
      "v": 71
    },
    {
      "midi": 71,
      "hit": false,
      "t": 3000,
      "d": 600,
      "v": 71
    },
    {
      "midi": 55,
      "hit": false,
      "t": 3000,
      "d": 450,
      "v": 70
    },
    {
      "midi": 53,
      "hit": false,
      "t": 3450,
      "d": 150,
      "v": 71
    },
    {
      "midi": 72,
      "hit": false,
      "t": 3600,
      "d": 600,
      "v": 81
    },
    {
      "midi": 52,
      "hit": false,
      "t": 3600,
      "d": 600,
      "v": 75
    },
    {
      "midi": 76,
      "hit": false,
      "t": 4200,
      "d": 600,
      "v": 83
    },
    {
      "midi": 48,
      "hit": false,
      "t": 4200,
      "d": 600,
      "v": 64
    },
    {
      "midi": 79,
      "hit": false,
      "t": 4800,
      "d": 450,
      "v": 88
    },
    {
      "midi": 47,
      "hit": false,
      "t": 4800,
      "d": 600,
      "v": 73
    },
    {
      "midi": 77,
      "hit": false,
      "t": 5250,
      "d": 150,
      "v": 70
    },
    {
      "midi": 76,
      "hit": false,
      "t": 5400,
      "d": 600,
      "v": 75
    },
    {
      "midi": 48,
      "hit": false,
      "t": 5400,
      "d": 600,
      "v": 75
    },
    {
      "midi": 72,
      "hit": false,
      "t": 6000,
      "d": 600,
      "v": 70
    },
    {
      "midi": 52,
      "hit": false,
      "t": 6000,
      "d": 600,
      "v": 77
    },
    {
      "midi": 71,
      "hit": false,
      "t": 6600,
      "d": 600,
      "v": 76
    },
    {
      "midi": 55,
      "hit": false,
      "t": 6600,
      "d": 450,
      "v": 81
    },
    {
      "midi": 53,
      "hit": false,
      "t": 7050,
      "d": 150,
      "v": 73
    },
    {
      "midi": 72,
      "hit": false,
      "t": 7200,
      "d": 600,
      "v": 80
    },
    {
      "midi": 52,
      "hit": false,
      "t": 7200,
      "d": 600,
      "v": 79
    },
    {
      "midi": 76,
      "hit": false,
      "t": 7800,
      "d": 600,
      "v": 80
    },
    {
      "midi": 48,
      "hit": false,
      "t": 7800,
      "d": 600,
      "v": 78
    },
    {
      "midi": 79,
      "hit": false,
      "t": 8400,
      "d": 450,
      "v": 86
    },
    {
      "midi": 47,
      "hit": false,
      "t": 8400,
      "d": 600,
      "v": 73
    },
    {
      "midi": 77,
      "hit": false,
      "t": 8850,
      "d": 150,
      "v": 71
    },
    {
      "midi": 76,
      "hit": false,
      "t": 9000,
      "d": 600,
      "v": 72
    },
    {
      "midi": 48,
      "hit": false,
      "t": 9000,
      "d": 600,
      "v": 78
    },
    {
      "midi": 84,
      "hit": false,
      "t": 9600,
      "d": 600,
      "v": 89
    },
    {
      "midi": 60,
      "hit": false,
      "t": 9600,
      "d": 300,
      "v": 95
    },
    {
      "midi": 59,
      "hit": false,
      "t": 9900,
      "d": 300,
      "v": 76
    },
    {
      "midi": 84,
      "hit": false,
      "t": 10200,
      "d": 600,
      "v": 78
    },
    {
      "midi": 57,
      "hit": false,
      "t": 10200,
      "d": 300,
      "v": 75
    },
    {
      "midi": 55,
      "hit": false,
      "t": 10500,
      "d": 300,
      "v": 75
    },
    {
      "midi": 84,
      "hit": false,
      "t": 10800,
      "d": 300,
      "v": 82
    },
    {
      "midi": 54,
      "hit": false,
      "t": 10800,
      "d": 600,
      "v": 70
    },
    {
      "midi": 81,
      "hit": false,
      "t": 11100,
      "d": 300,
      "v": 67
    },
    {
      "midi": 79,
      "hit": false,
      "t": 11400,
      "d": 300,
      "v": 67
    },
    {
      "midi": 62,
      "hit": false,
      "t": 11400,
      "d": 600,
      "v": 91
    },
    {
      "midi": 78,
      "hit": false,
      "t": 11700,
      "d": 300,
      "v": 68
    },
    {
      "midi": 76,
      "hit": false,
      "t": 12000,
      "d": 300,
      "v": 68
    },
    {
      "midi": 60,
      "hit": false,
      "t": 12000,
      "d": 600,
      "v": 70
    },
    {
      "midi": 74,
      "hit": false,
      "t": 12300,
      "d": 300,
      "v": 70
    },
    {
      "midi": 79,
      "hit": false,
      "t": 12600,
      "d": 300,
      "v": 83
    },
    {
      "midi": 59,
      "hit": false,
      "t": 12600,
      "d": 600,
      "v": 77
    },
    {
      "midi": 74,
      "hit": false,
      "t": 12900,
      "d": 300,
      "v": 69
    },
    {
      "midi": 71,
      "hit": false,
      "t": 13200,
      "d": 300,
      "v": 66
    },
    {
      "midi": 62,
      "hit": false,
      "t": 13200,
      "d": 600,
      "v": 83
    },
    {
      "midi": 67,
      "hit": false,
      "t": 13500,
      "d": 300,
      "v": 67
    },
    {
      "midi": 69,
      "hit": false,
      "t": 13800,
      "d": 300,
      "v": 81
    },
    {
      "midi": 50,
      "hit": false,
      "t": 13800,
      "d": 600,
      "v": 74
    },
    {
      "midi": 66,
      "hit": false,
      "t": 14100,
      "d": 300,
      "v": 69
    },
    {
      "midi": 67,
      "hit": false,
      "t": 14400,
      "d": 1200,
      "v": 82
    },
    {
      "midi": 55,
      "hit": false,
      "t": 14400,
      "d": 600,
      "v": 81
    },
    {
      "midi": 43,
      "hit": false,
      "t": 15000,
      "d": 600,
      "v": 67
    },
    {
      "midi": 67,
      "hit": false,
      "t": 15600,
      "d": 450,
      "v": 73
    },
    {
      "midi": 67,
      "hit": false,
      "t": 16050,
      "d": 150,
      "v": 77
    },
    {
      "midi": 67,
      "hit": false,
      "t": 16200,
      "d": 600,
      "v": 78
    },
    {
      "midi": 55,
      "hit": false,
      "t": 16200,
      "d": 1800,
      "v": 66
    },
    {
      "midi": 69,
      "hit": false,
      "t": 16800,
      "d": 600,
      "v": 84
    },
    {
      "midi": 71,
      "hit": false,
      "t": 17400,
      "d": 450,
      "v": 78
    },
    {
      "midi": 71,
      "hit": false,
      "t": 17850,
      "d": 150,
      "v": 76
    },
    {
      "midi": 71,
      "hit": false,
      "t": 18000,
      "d": 600,
      "v": 78
    },
    {
      "midi": 43,
      "hit": false,
      "t": 18000,
      "d": 1800,
      "v": 71
    },
    {
      "midi": 72,
      "hit": false,
      "t": 18600,
      "d": 600,
      "v": 80
    },
    {
      "midi": 74,
      "hit": false,
      "t": 19200,
      "d": 450,
      "v": 84
    },
    {
      "midi": 74,
      "hit": false,
      "t": 19650,
      "d": 150,
      "v": 73
    },
    {
      "midi": 74,
      "hit": false,
      "t": 19800,
      "d": 300,
      "v": 76
    },
    {
      "midi": 43,
      "hit": false,
      "t": 19800,
      "d": 600,
      "v": 69
    },
    {
      "midi": 76,
      "hit": false,
      "t": 20100,
      "d": 300,
      "v": 79
    },
    {
      "midi": 77,
      "hit": false,
      "t": 20400,
      "d": 600,
      "v": 80
    },
    {
      "midi": 47,
      "hit": false,
      "t": 20400,
      "d": 600,
      "v": 83
    },
    {
      "midi": 76,
      "hit": false,
      "t": 21000,
      "d": 600,
      "v": 75
    },
    {
      "midi": 48,
      "hit": false,
      "t": 21000,
      "d": 600,
      "v": 76
    },
    {
      "midi": 76,
      "hit": false,
      "t": 21600,
      "d": 600,
      "v": 82
    },
    {
      "midi": 43,
      "hit": false,
      "t": 21600,
      "d": 1800,
      "v": 69
    },
    {
      "midi": 74,
      "hit": false,
      "t": 22200,
      "d": 600,
      "v": 69
    },
    {
      "midi": 79,
      "hit": false,
      "t": 22800,
      "d": 450,
      "v": 84
    },
    {
      "midi": 79,
      "hit": false,
      "t": 23250,
      "d": 150,
      "v": 77
    },
    {
      "midi": 69,
      "hit": false,
      "t": 23400,
      "d": 600,
      "v": 68
    },
    {
      "midi": 79,
      "hit": false,
      "t": 23400,
      "d": 600,
      "v": 74
    },
    {
      "midi": 55,
      "hit": false,
      "t": 23400,
      "d": 3600,
      "v": 72
    },
    {
      "midi": 78,
      "hit": false,
      "t": 24000,
      "d": 600,
      "v": 76
    },
    {
      "midi": 71,
      "hit": false,
      "t": 24600,
      "d": 450,
      "v": 82
    },
    {
      "midi": 77,
      "hit": false,
      "t": 24600,
      "d": 450,
      "v": 72
    },
    {
      "midi": 77,
      "hit": false,
      "t": 25050,
      "d": 150,
      "v": 74
    },
    {
      "midi": 72,
      "hit": false,
      "t": 25200,
      "d": 600,
      "v": 80
    },
    {
      "midi": 77,
      "hit": false,
      "t": 25200,
      "d": 600,
      "v": 78
    },
    {
      "midi": 76,
      "hit": false,
      "t": 25800,
      "d": 600,
      "v": 74
    },
    {
      "midi": 72,
      "hit": false,
      "t": 26400,
      "d": 600,
      "v": 70
    },
    {
      "midi": 75,
      "hit": false,
      "t": 26400,
      "d": 600,
      "v": 70
    },
    {
      "midi": 72,
      "hit": false,
      "t": 27000,
      "d": 600,
      "v": 64
    },
    {
      "midi": 75,
      "hit": false,
      "t": 27000,
      "d": 600,
      "v": 79
    },
    {
      "midi": 54,
      "hit": false,
      "t": 27000,
      "d": 1800,
      "v": 75
    },
    {
      "midi": 74,
      "hit": false,
      "t": 27600,
      "d": 600,
      "v": 71
    },
    {
      "midi": 63,
      "hit": false,
      "t": 28200,
      "d": 600,
      "v": 75
    },
    {
      "midi": 72,
      "hit": false,
      "t": 28200,
      "d": 600,
      "v": 75
    },
    {
      "midi": 63,
      "hit": false,
      "t": 28800,
      "d": 600,
      "v": 73
    },
    {
      "midi": 72,
      "hit": false,
      "t": 28800,
      "d": 600,
      "v": 73
    },
    {
      "midi": 55,
      "hit": false,
      "t": 28800,
      "d": 1800,
      "v": 79
    },
    {
      "midi": 62,
      "hit": false,
      "t": 29400,
      "d": 600,
      "v": 71
    },
    {
      "midi": 71,
      "hit": false,
      "t": 29400,
      "d": 600,
      "v": 71
    },
    {
      "midi": 79,
      "hit": false,
      "t": 30000,
      "d": 450,
      "v": 86
    },
    {
      "midi": 77,
      "hit": false,
      "t": 30450,
      "d": 150,
      "v": 77
    },
    {
      "midi": 76,
      "hit": false,
      "t": 30600,
      "d": 600,
      "v": 69
    },
    {
      "midi": 72,
      "hit": false,
      "t": 31200,
      "d": 600,
      "v": 64
    },
    {
      "midi": 71,
      "hit": false,
      "t": 31800,
      "d": 600,
      "v": 74
    },
    {
      "midi": 55,
      "hit": false,
      "t": 31800,
      "d": 450,
      "v": 66
    },
    {
      "midi": 53,
      "hit": false,
      "t": 32250,
      "d": 150,
      "v": 73
    },
    {
      "midi": 72,
      "hit": false,
      "t": 32400,
      "d": 600,
      "v": 83
    },
    {
      "midi": 52,
      "hit": false,
      "t": 32400,
      "d": 600,
      "v": 71
    },
    {
      "midi": 76,
      "hit": false,
      "t": 33000,
      "d": 600,
      "v": 84
    },
    {
      "midi": 48,
      "hit": false,
      "t": 33000,
      "d": 600,
      "v": 72
    },
    {
      "midi": 79,
      "hit": false,
      "t": 33600,
      "d": 450,
      "v": 80
    },
    {
      "midi": 47,
      "hit": false,
      "t": 33600,
      "d": 600,
      "v": 78
    },
    {
      "midi": 77,
      "hit": false,
      "t": 34050,
      "d": 150,
      "v": 72
    },
    {
      "midi": 76,
      "hit": false,
      "t": 34200,
      "d": 600,
      "v": 69
    },
    {
      "midi": 48,
      "hit": false,
      "t": 34200,
      "d": 600,
      "v": 75
    },
    {
      "midi": 72,
      "hit": false,
      "t": 34800,
      "d": 600,
      "v": 66
    },
    {
      "midi": 52,
      "hit": false,
      "t": 34800,
      "d": 600,
      "v": 77
    },
    {
      "midi": 71,
      "hit": false,
      "t": 35400,
      "d": 600,
      "v": 72
    },
    {
      "midi": 55,
      "hit": false,
      "t": 35400,
      "d": 450,
      "v": 80
    },
    {
      "midi": 53,
      "hit": false,
      "t": 35850,
      "d": 150,
      "v": 74
    },
    {
      "midi": 72,
      "hit": false,
      "t": 36000,
      "d": 600,
      "v": 80
    },
    {
      "midi": 52,
      "hit": false,
      "t": 36000,
      "d": 600,
      "v": 80
    },
    {
      "midi": 76,
      "hit": false,
      "t": 36600,
      "d": 600,
      "v": 86
    },
    {
      "midi": 48,
      "hit": false,
      "t": 36600,
      "d": 600,
      "v": 71
    },
    {
      "midi": 84,
      "hit": false,
      "t": 37200,
      "d": 450,
      "v": 88
    },
    {
      "midi": 52,
      "hit": false,
      "t": 37200,
      "d": 600,
      "v": 76
    },
    {
      "midi": 82,
      "hit": false,
      "t": 37650,
      "d": 150,
      "v": 76
    },
    {
      "midi": 81,
      "hit": false,
      "t": 37800,
      "d": 600,
      "v": 71
    },
    {
      "midi": 53,
      "hit": false,
      "t": 37800,
      "d": 600,
      "v": 79
    },
    {
      "midi": 53,
      "hit": false,
      "t": 38400,
      "d": 300,
      "v": 80
    },
    {
      "midi": 52,
      "hit": false,
      "t": 38700,
      "d": 300,
      "v": 76
    },
    {
      "midi": 77,
      "hit": false,
      "t": 39000,
      "d": 600,
      "v": 72
    },
    {
      "midi": 50,
      "hit": false,
      "t": 39000,
      "d": 300,
      "v": 76
    },
    {
      "midi": 48,
      "hit": false,
      "t": 39300,
      "d": 300,
      "v": 73
    },
    {
      "midi": 77,
      "hit": false,
      "t": 39600,
      "d": 300,
      "v": 72
    },
    {
      "midi": 47,
      "hit": false,
      "t": 39600,
      "d": 1200,
      "v": 70
    },
    {
      "midi": 74,
      "hit": false,
      "t": 39900,
      "d": 300,
      "v": 71
    },
    {
      "midi": 79,
      "hit": false,
      "t": 40200,
      "d": 300,
      "v": 84
    },
    {
      "midi": 77,
      "hit": false,
      "t": 40500,
      "d": 300,
      "v": 72
    },
    {
      "midi": 76,
      "hit": false,
      "t": 40800,
      "d": 300,
      "v": 71
    },
    {
      "midi": 59,
      "hit": false,
      "t": 40800,
      "d": 600,
      "v": 86
    },
    {
      "midi": 74,
      "hit": false,
      "t": 41100,
      "d": 300,
      "v": 71
    },
    {
      "midi": 76,
      "hit": false,
      "t": 41400,
      "d": 300,
      "v": 83
    },
    {
      "midi": 60,
      "hit": false,
      "t": 41400,
      "d": 600,
      "v": 81
    },
    {
      "midi": 79,
      "hit": false,
      "t": 41700,
      "d": 300,
      "v": 81
    },
    {
      "midi": 76,
      "hit": false,
      "t": 42000,
      "d": 300,
      "v": 75
    },
    {
      "midi": 52,
      "hit": false,
      "t": 42000,
      "d": 600,
      "v": 71
    },
    {
      "midi": 72,
      "hit": false,
      "t": 42300,
      "d": 300,
      "v": 71
    },
    {
      "midi": 74,
      "hit": false,
      "t": 42600,
      "d": 300,
      "v": 74
    },
    {
      "midi": 55,
      "hit": false,
      "t": 42600,
      "d": 600,
      "v": 76
    },
    {
      "midi": 71,
      "hit": false,
      "t": 42900,
      "d": 300,
      "v": 69
    },
    {
      "midi": 72,
      "hit": false,
      "t": 43200,
      "d": 1200,
      "v": 76
    },
    {
      "midi": 48,
      "hit": false,
      "t": 43200,
      "d": 1200,
      "v": 70
    }
  ]
}