{
  "jsonPath": "Classical/Classical/Wolfgang Amadeus Mozart/minuet-and-trio.json",
  "path": "Classical\\Classical\\Wolfgang Amadeus Mozart\\Minuet and Trio.mid",
  "name": "Minuet and Trio",
  "difficulty": "Advanced",
  "bpm": 100,
  "notes": [
    {
      "midi": 83,
      "hit": false,
      "t": 1200,
      "d": 300,
      "v": 70
    },
    {
      "midi": 79,
      "hit": false,
      "t": 1500,
      "d": 300,
      "v": 64
    },
    {
      "midi": 71,
      "hit": false,
      "t": 1800,
      "d": 600,
      "v": 62
    },
    {
      "midi": 55,
      "hit": false,
      "t": 1800,
      "d": 600,
      "v": 68
    },
    {
      "midi": 72,
      "hit": false,
      "t": 2400,
      "d": 600,
      "v": 74
    },
    {
      "midi": 57,
      "hit": false,
      "t": 2400,
      "d": 600,
      "v": 77
    },
    {
      "midi": 74,
      "hit": false,
      "t": 3000,
      "d": 600,
      "v": 80
    },
    {
      "midi": 59,
      "hit": false,
      "t": 3000,
      "d": 600,
      "v": 75
    },
    {
      "midi": 74,
      "hit": false,
      "t": 3600,
      "d": 600,
      "v": 75
    },
    {
      "midi": 59,
      "hit": false,
      "t": 3600,
      "d": 600,
      "v": 76
    },
    {
      "midi": 72,
      "hit": false,
      "t": 4200,
      "d": 600,
      "v": 67
    },
    {
      "midi": 57,
      "hit": false,
      "t": 4200,
      "d": 600,
      "v": 71
    },
    {
      "midi": 81,
      "hit": false,
      "t": 4800,
      "d": 300,
      "v": 91
    },
    {
      "midi": 78,
      "hit": false,
      "t": 5100,
      "d": 300,
      "v": 72
    },
    {
      "midi": 69,
      "hit": false,
      "t": 5400,
      "d": 600,
      "v": 60
    },
    {
      "midi": 55,
      "hit": false,
      "t": 5400,
      "d": 600,
      "v": 70
    },
    {
      "midi": 71,
      "hit": false,
      "t": 6000,
      "d": 600,
      "v": 77
    },
    {
      "midi": 57,
      "hit": false,
      "t": 6000,
      "d": 600,
      "v": 83
    },
    {
      "midi": 72,
      "hit": false,
      "t": 6600,
      "d": 600,
      "v": 76
    },
    {
      "midi": 72,
      "hit": false,
      "t": 7200,
      "d": 600,
      "v": 74
    },
    {
      "midi": 57,
      "hit": false,
      "t": 7200,
      "d": 600,
      "v": 65
    },
    {
      "midi": 71,
      "hit": false,
      "t": 7800,
      "d": 600,
      "v": 77
    },
    {
      "midi": 55,
      "hit": false,
      "t": 7800,
      "d": 600,
      "v": 75
    },
    {
      "midi": 83,
      "hit": false,
      "t": 8400,
      "d": 300,
      "v": 97
    },
    {
      "midi": 79,
      "hit": false,
      "t": 8700,
      "d": 300,
      "v": 74
    },
    {
      "midi": 76,
      "hit": false,
      "t": 9000,
      "d": 600,
      "v": 70
    },
    {
      "midi": 55,
      "hit": false,
      "t": 9000,
      "d": 1200,
      "v": 67
    },
    {
      "midi": 79,
      "hit": false,
      "t": 9600,
      "d": 300,
      "v": 84
    },
    {
      "midi": 76,
      "hit": false,
      "t": 9900,
      "d": 300,
      "v": 71
    },
    {
      "midi": 73,
      "hit": false,
      "t": 10200,
      "d": 600,
      "v": 71
    },
    {
      "midi": 52,
      "hit": false,
      "t": 10200,
      "d": 600,
      "v": 75
    },
    {
      "midi": 76,
      "hit": false,
      "t": 10800,
      "d": 300,
      "v": 83
    },
    {
      "midi": 49,
      "hit": false,
      "t": 10800,
      "d": 600,
      "v": 73
    },
    {
      "midi": 73,
      "hit": false,
      "t": 11100,
      "d": 300,
      "v": 100
    },
    {
      "midi": 69,
      "hit": false,
      "t": 11400,
      "d": 300,
      "v": 61
    },
    {
      "midi": 45,
      "hit": false,
      "t": 11400,
      "d": 600,
      "v": 76
    },
    {
      "midi": 67,
      "hit": false,
      "t": 11700,
      "d": 300,
      "v": 70
    },
    {
      "midi": 66,
      "hit": false,
      "t": 12000,
      "d": 600,
      "v": 70
    },
    {
      "midi": 50,
      "hit": false,
      "t": 12000,
      "d": 600,
      "v": 80
    },
    {
      "midi": 71,
      "hit": false,
      "t": 12600,
      "d": 199.21875,
      "v": 100
    },
    {
      "midi": 55,
      "hit": false,
      "t": 12600,
      "d": 600,
      "v": 80
    },
    {
      "midi": 69,
      "hit": false,
      "t": 12799.21875,
      "d": 199.21875,
      "v": 100
    },
    {
      "midi": 67,
      "hit": false,
      "t": 12998.4375,
      "d": 201.5625,
      "v": 100
    },
    {
      "midi": 66,
      "hit": false,
      "t": 13200,
      "d": 600,
      "v": 64
    },
    {
      "midi": 57,
      "hit": false,
      "t": 13200,
      "d": 600,
      "v": 78
    },
    {
      "midi": 64,
      "hit": false,
      "t": 13800,
      "d": 600,
      "v": 74
    },
    {
      "midi": 45,
      "hit": false,
      "t": 13800,
      "d": 600,
      "v": 65
    },
    {
      "midi": 62,
      "hit": false,
      "t": 14400,
      "d": 1200,
      "v": 73
    },
    {
      "midi": 50,
      "hit": false,
      "t": 14400,
      "d": 600,
      "v": 85
    },
    {
      "midi": 38,
      "hit": false,
      "t": 15000,
      "d": 600,
      "v": 66
    },
    {
      "midi": 74,
      "hit": false,
      "t": 15600,
      "d": 300,
      "v": 96
    },
    {
      "midi": 71,
      "hit": false,
      "t": 15900,
      "d": 300,
      "v": 73
    },
    {
      "midi": 68,
      "hit": false,
      "t": 16200,
      "d": 600,
      "v": 68
    },
    {
      "midi": 52,
      "hit": false,
      "t": 16200,
      "d": 600,
      "v": 68
    },
    {
      "midi": 77,
      "hit": false,
      "t": 16800,
      "d": 600,
      "v": 91
    },
    {
      "midi": 62,
      "hit": false,
      "t": 16800,
      "d": 600,
      "v": 93
    },
    {
      "midi": 76,
      "hit": false,
      "t": 17400,
      "d": 600,
      "v": 79
    },
    {
      "midi": 60,
      "hit": false,
      "t": 17400,
      "d": 600,
      "v": 78
    },
    {
      "midi": 74,
      "hit": false,
      "t": 18000,
      "d": 600,
      "v": 72
    },
    {
      "midi": 59,
      "hit": false,
      "t": 18000,
      "d": 600,
      "v": 73
    },
    {
      "midi": 72,
      "hit": false,
      "t": 18600,
      "d": 600,
      "v": 72
    },
    {
      "midi": 57,
      "hit": false,
      "t": 18600,
      "d": 600,
      "v": 71
    },
    {
      "midi": 72,
      "hit": false,
      "t": 19200,
      "d": 300,
      "v": 76
    },
    {
      "midi": 57,
      "hit": false,
      "t": 19200,
      "d": 300,
      "v": 79
    },
    {
      "midi": 69,
      "hit": false,
      "t": 19500,
      "d": 300,
      "v": 66
    },
    {
      "midi": 54,
      "hit": false,
      "t": 19500,
      "d": 300,
      "v": 73
    },
    {
      "midi": 66,
      "hit": false,
      "t": 19800,
      "d": 600,
      "v": 69
    },
    {
      "midi": 50,
      "hit": false,
      "t": 19800,
      "d": 600,
      "v": 68
    },
    {
      "midi": 76,
      "hit": false,
      "t": 20400,
      "d": 600,
      "v": 91
    },
    {
      "midi": 60,
      "hit": false,
      "t": 20400,
      "d": 600,
      "v": 93
    },
    {
      "midi": 74,
      "hit": false,
      "t": 21000,
      "d": 600,
      "v": 71
    },
    {
      "midi": 59,
      "hit": false,
      "t": 21000,
      "d": 600,
      "v": 73
    },
    {
      "midi": 72,
      "hit": false,
      "t": 21600,
      "d": 600,
      "v": 71
    },
    {
      "midi": 57,
      "hit": false,
      "t": 21600,
      "d": 600,
      "v": 65
    },
    {
      "midi": 71,
      "hit": false,
      "t": 22200,
      "d": 600,
      "v": 74
    },
    {
      "midi": 55,
      "hit": false,
      "t": 22200,
      "d": 600,
      "v": 66
    },
    {
      "midi": 76,
      "hit": false,
      "t": 22800,
      "d": 300,
      "v": 88
    },
    {
      "midi": 72,
      "hit": false,
      "t": 23100,
      "d": 300,
      "v": 74
    },
    {
      "midi": 69,
      "hit": false,
      "t": 23400,
      "d": 600,
      "v": 70
    },
    {
      "midi": 60,
      "hit": false,
      "t": 23400,
      "d": 1200,
      "v": 72
    },
    {
      "midi": 72,
      "hit": false,
      "t": 24000,
      "d": 300,
      "v": 82
    },
    {
      "midi": 69,
      "hit": false,
      "t": 24300,
      "d": 300,
      "v": 67
    },
    {
      "midi": 66,
      "hit": false,
      "t": 24600,
      "d": 600,
      "v": 72
    },
    {
      "midi": 57,
      "hit": false,
      "t": 24600,
      "d": 600,
      "v": 72
    },
    {
      "midi": 62,
      "hit": false,
      "t": 25200,
      "d": 300,
      "v": 70
    },
    {
      "midi": 54,
      "hit": false,
      "t": 25200,
      "d": 600,
      "v": 76
    },
    {
      "midi": 66,
      "hit": false,
      "t": 25500,
      "d": 300,
      "v": 81
    },
    {
      "midi": 69,
      "hit": false,
      "t": 25800,
      "d": 300,
      "v": 83
    },
    {
      "midi": 55,
      "hit": false,
      "t": 25800,
      "d": 600,
      "v": 78
    },
    {
      "midi": 72,
      "hit": false,
      "t": 26100,
      "d": 300,
      "v": 80
    },
    {
      "midi": 71,
      "hit": false,
      "t": 26400,
      "d": 600,
      "v": 74
    },
    {
      "midi": 76,
      "hit": false,
      "t": 27000,
      "d": 199.21875,
      "v": 100
    },
    {
      "midi": 60,
      "hit": false,
      "t": 27000,
      "d": 600,
      "v": 68
    },
    {
      "midi": 72,
      "hit": false,
      "t": 27199.21875,
      "d": 199.21875,
      "v": 100
    },
    {
      "midi": 69,
      "hit": false,
      "t": 27398.4375,
      "d": 201.5625,
      "v": 100
    },
    {
      "midi": 67,
      "hit": false,
      "t": 27600,
      "d": 600,
      "v": 64
    },
    {
      "midi": 62,
      "hit": false,
      "t": 27600,
      "d": 600,
      "v": 83
    },
    {
      "midi": 66,
      "hit": false,
      "t": 28200,
      "d": 600,
      "v": 73
    },
    {
      "midi": 50,
      "hit": false,
      "t": 28200,
      "d": 600,
      "v": 65
    },
    {
      "midi": 67,
      "hit": false,
      "t": 28800,
      "d": 1200,
      "v": 77
    },
    {
      "midi": 55,
      "hit": false,
      "t": 28800,
      "d": 1200,
      "v": 82
    },
    {
      "midi": 72,
      "hit": false,
      "t": 30000,
      "d": 300,
      "v": 88
    },
    {
      "midi": 48,
      "hit": false,
      "t": 30000,
      "d": 300,
      "v": 67
    },
    {
      "midi": 67,
      "hit": false,
      "t": 30300,
      "d": 300,
      "v": 66
    },
    {
      "midi": 52,
      "hit": false,
      "t": 30300,
      "d": 300,
      "v": 80
    },
    {
      "midi": 64,
      "hit": false,
      "t": 30600,
      "d": 600,
      "v": 69
    },
    {
      "midi": 48,
      "hit": false,
      "t": 30600,
      "d": 600,
      "v": 67
    },
    {
      "midi": 55,
      "hit": false,
      "t": 30600,
      "d": 600,
      "v": 77
    },
    {
      "midi": 64,
      "hit": false,
      "t": 31200,
      "d": 600,
      "v": 75
    },
    {
      "midi": 48,
      "hit": false,
      "t": 31200,
      "d": 600,
      "v": 78
    },
    {
      "midi": 55,
      "hit": false,
      "t": 31200,
      "d": 600,
      "v": 77
    },
    {
      "midi": 62,
      "hit": false,
      "t": 31800,
      "d": 300,
      "v": 73
    },
    {
      "midi": 47,
      "hit": false,
      "t": 31800,
      "d": 600,
      "v": 77
    },
    {
      "midi": 55,
      "hit": false,
      "t": 31800,
      "d": 600,
      "v": 77
    },
    {
      "midi": 64,
      "hit": false,
      "t": 32100,
      "d": 300,
      "v": 80
    },
    {
      "midi": 64,
      "hit": false,
      "t": 32400,
      "d": 600,
      "v": 76
    },
    {
      "midi": 48,
      "hit": false,
      "t": 32400,
      "d": 600,
      "v": 77
    },
    {
      "midi": 55,
      "hit": false,
      "t": 32400,
      "d": 600,
      "v": 78
    },
    {
      "midi": 66,
      "hit": false,
      "t": 33000,
      "d": 600,
      "v": 85
    },
    {
      "midi": 50,
      "hit": false,
      "t": 33000,
      "d": 600,
      "v": 78
    },
    {
      "midi": 74,
      "hit": false,
      "t": 33600,
      "d": 300,
      "v": 98
    },
    {
      "midi": 47,
      "hit": false,
      "t": 33600,
      "d": 300,
      "v": 74
    },
    {
      "midi": 55,
      "hit": false,
      "t": 33600,
      "d": 300,
      "v": 75
    },
    {
      "midi": 71,
      "hit": false,
      "t": 33900,
      "d": 300,
      "v": 72
    },
    {
      "midi": 50,
      "hit": false,
      "t": 33900,
      "d": 300,
      "v": 82
    },
    {
      "midi": 66,
      "hit": false,
      "t": 34200,
      "d": 600,
      "v": 63
    },
    {
      "midi": 55,
      "hit": false,
      "t": 34200,
      "d": 600,
      "v": 82
    },
    {
      "midi": 66,
      "hit": false,
      "t": 34800,
      "d": 600,
      "v": 75
    },
    {
      "midi": 53,
      "hit": false,
      "t": 34800,
      "d": 600,
      "v": 79
    },
    {
      "midi": 64,
      "hit": false,
      "t": 35400,
      "d": 300,
      "v": 72
    },
    {
      "midi": 52,
      "hit": false,
      "t": 35400,
      "d": 300,
      "v": 78
    },
    {
      "midi": 62,
      "hit": false,
      "t": 35700,
      "d": 300,
      "v": 74
    },
    {
      "midi": 50,
      "hit": false,
      "t": 35700,
      "d": 300,
      "v": 100
    },
    {
      "midi": 62,
      "hit": false,
      "t": 36000,
      "d": 600,
      "v": 77
    },
    {
      "midi": 48,
      "hit": false,
      "t": 36000,
      "d": 1200,
      "v": 77
    },
    {
      "midi": 55,
      "hit": false,
      "t": 36000,
      "d": 1200,
      "v": 78
    },
    {
      "midi": 64,
      "hit": false,
      "t": 36600,
      "d": 600,
      "v": 82
    },
    {
      "midi": 76,
      "hit": false,
      "t": 37200,
      "d": 150,
      "v": 95
    },
    {
      "midi": 60,
      "hit": false,
      "t": 37200,
      "d": 150,
      "v": 86
    },
    {
      "midi": 74,
      "hit": false,
      "t": 37350,
      "d": 150,
      "v": 77
    },
    {
      "midi": 59,
      "hit": false,
      "t": 37350,
      "d": 150,
      "v": 73
    },
    {
      "midi": 72,
      "hit": false,
      "t": 37500,
      "d": 150,
      "v": 72
    },
    {
      "midi": 57,
      "hit": false,
      "t": 37500,
      "d": 150,
      "v": 74
    },
    {
      "midi": 71,
      "hit": false,
      "t": 37650,
      "d": 150,
      "v": 74
    },
    {
      "midi": 55,
      "hit": false,
      "t": 37650,
      "d": 150,
      "v": 72
    },
    {
      "midi": 69,
      "hit": false,
      "t": 37800,
      "d": 600,
      "v": 69
    },
    {
      "midi": 54,
      "hit": false,
      "t": 37800,
      "d": 1200,
      "v": 77
    },
    {
      "midi": 81,
      "hit": false,
      "t": 38400,
      "d": 600,
      "v": 95
    },
    {
      "midi": 74,
      "hit": false,
      "t": 39000,
      "d": 150,
      "v": 67
    },
    {
      "midi": 59,
      "hit": false,
      "t": 39000,
      "d": 150,
      "v": 79
    },
    {
      "midi": 72,
      "hit": false,
      "t": 39150,
      "d": 150,
      "v": 67
    },
    {
      "midi": 57,
      "hit": false,
      "t": 39150,
      "d": 150,
      "v": 77
    },
    {
      "midi": 71,
      "hit": false,
      "t": 39300,
      "d": 150,
      "v": 71
    },
    {
      "midi": 55,
      "hit": false,
      "t": 39300,
      "d": 150,
      "v": 76
    },
    {
      "midi": 69,
      "hit": false,
      "t": 39450,
      "d": 150,
      "v": 71
    },
    {
      "midi": 54,
      "hit": false,
      "t": 39450,
      "d": 150,
      "v": 81
    },
    {
      "midi": 67,
      "hit": false,
      "t": 39600,
      "d": 600,
      "v": 70
    },
    {
      "midi": 52,
      "hit": false,
      "t": 39600,
      "d": 1200,
      "v": 78
    },
    {
      "midi": 79,
      "hit": false,
      "t": 40200,
      "d": 600,
      "v": 96
    },
    {
      "midi": 74,
      "hit": false,
      "t": 40800,
      "d": 150,
      "v": 68
    },
    {
      "midi": 59,
      "hit": false,
      "t": 40800,
      "d": 600,
      "v": 77
    },
    {
      "midi": 71,
      "hit": false,
      "t": 40950,
      "d": 150,
      "v": 66
    },
    {
      "midi": 69,
      "hit": false,
      "t": 41100,
      "d": 150,
      "v": 71
    },
    {
      "midi": 67,
      "hit": false,
      "t": 41250,
      "d": 150,
      "v": 72
    },
    {
      "midi": 76,
      "hit": false,
      "t": 41400,
      "d": 600,
      "v": 94
    },
    {
      "midi": 60,
      "hit": false,
      "t": 41400,
      "d": 600,
      "v": 79
    },
    {
      "midi": 74,
      "hit": false,
      "t": 42000,
      "d": 600,
      "v": 77
    },
    {
      "midi": 62,
      "hit": false,
      "t": 42000,
      "d": 600,
      "v": 89
    },
    {
      "midi": 66,
      "hit": false,
      "t": 42600,
      "d": 600,
      "v": 62
    },
    {
      "midi": 50,
      "hit": false,
      "t": 42600,
      "d": 600,
      "v": 65
    },
    {
      "midi": 69,
      "hit": false,
      "t": 43200,
      "d": 600,
      "v": 78
    },
    {
      "midi": 55,
      "hit": false,
      "t": 43200,
      "d": 1200,
      "v": 76
    },
    {
      "midi": 67,
      "hit": false,
      "t": 43800,
      "d": 600,
      "v": 73
    },
    {
      "midi": 79,
      "hit": false,
      "t": 44400,
      "d": 300,
      "v": 95
    },
    {
      "midi": 52,
      "hit": false,
      "t": 44400,
      "d": 300,
      "v": 69
    },
    {
      "midi": 76,
      "hit": false,
      "t": 44700,
      "d": 300,
      "v": 73
    },
    {
      "midi": 55,
      "hit": false,
      "t": 44700,
      "d": 300,
      "v": 75
    },
    {
      "midi": 73,
      "hit": false,
      "t": 45000,
      "d": 600,
      "v": 73
    },
    {
      "midi": 57,
      "hit": false,
      "t": 45000,
      "d": 600,
      "v": 72
    },
    {
      "midi": 73,
      "hit": false,
      "t": 45600,
      "d": 600,
      "v": 77
    },
    {
      "midi": 55,
      "hit": false,
      "t": 45600,
      "d": 600,
      "v": 72
    },
    {
      "midi": 57,
      "hit": false,
      "t": 45600,
      "d": 600,
      "v": 77
    },
    {
      "midi": 74,
      "hit": false,
      "t": 46200,
      "d": 300,
      "v": 79
    },
    {
      "midi": 54,
      "hit": false,
      "t": 46200,
      "d": 300,
      "v": 79
    },
    {
      "midi": 57,
      "hit": false,
      "t": 46200,
      "d": 300,
      "v": 75
    },
    {
      "midi": 76,
      "hit": false,
      "t": 46500,
      "d": 300,
      "v": 83
    },
    {
      "midi": 52,
      "hit": false,
      "t": 46500,
      "d": 300,
      "v": 75
    },
    {
      "midi": 76,
      "hit": false,
      "t": 46800,
      "d": 600,
      "v": 78
    },
    {
      "midi": 52,
      "hit": false,
      "t": 46800,
      "d": 600,
      "v": 75
    },
    {
      "midi": 57,
      "hit": false,
      "t": 46800,
      "d": 600,
      "v": 80
    },
    {
      "midi": 78,
      "hit": false,
      "t": 47400,
      "d": 600,
      "v": 79
    },
    {
      "midi": 50,
      "hit": false,
      "t": 47400,
      "d": 600,
      "v": 74
    },
    {
      "midi": 78,
      "hit": false,
      "t": 48000,
      "d": 300,
      "v": 74
    },
    {
      "midi": 50,
      "hit": false,
      "t": 48000,
      "d": 300,
      "v": 76
    },
    {
      "midi": 57,
      "hit": false,
      "t": 48000,
      "d": 300,
      "v": 77
    },
    {
      "midi": 74,
      "hit": false,
      "t": 48300,
      "d": 300,
      "v": 68
    },
    {
      "midi": 54,
      "hit": false,
      "t": 48300,
      "d": 300,
      "v": 78
    },
    {
      "midi": 71,
      "hit": false,
      "t": 48600,
      "d": 600,
      "v": 68
    },
    {
      "midi": 55,
      "hit": false,
      "t": 48600,
      "d": 600,
      "v": 77
    },
    {
      "midi": 71,
      "hit": false,
      "t": 49200,
      "d": 600,
      "v": 74
    },
    {
      "midi": 54,
      "hit": false,
      "t": 49200,
      "d": 600,
      "v": 72
    },
    {
      "midi": 55,
      "hit": false,
      "t": 49200,
      "d": 600,
      "v": 78
    },
    {
      "midi": 72,
      "hit": false,
      "t": 49800,
      "d": 300,
      "v": 77
    },
    {
      "midi": 52,
      "hit": false,
      "t": 49800,
      "d": 300,
      "v": 71
    },
    {
      "midi": 55,
      "hit": false,
      "t": 49800,
      "d": 300,
      "v": 81
    },
    {
      "midi": 74,
      "hit": false,
      "t": 50100,
      "d": 300,
      "v": 85
    },
    {
      "midi": 50,
      "hit": false,
      "t": 50100,
      "d": 300,
      "v": 73
    },
    {
      "midi": 74,
      "hit": false,
      "t": 50400,
      "d": 600,
      "v": 76
    },
    {
      "midi": 50,
      "hit": false,
      "t": 50400,
      "d": 600,
      "v": 75
    },
    {
      "midi": 55,
      "hit": false,
      "t": 50400,
      "d": 600,
      "v": 79
    },
    {
      "midi": 76,
      "hit": false,
      "t": 51000,
      "d": 600,
      "v": 81
    },
    {
      "midi": 48,
      "hit": false,
      "t": 51000,
      "d": 600,
      "v": 73
    },
    {
      "midi": 81,
      "hit": false,
      "t": 51600,
      "d": 150,
      "v": 85
    },
    {
      "midi": 66,
      "hit": false,
      "t": 51600,
      "d": 150,
      "v": 98
    },
    {
      "midi": 79,
      "hit": false,
      "t": 51750,
      "d": 150,
      "v": 68
    },
    {
      "midi": 64,
      "hit": false,
      "t": 51750,
      "d": 150,
      "v": 76
    },
    {
      "midi": 78,
      "hit": false,
      "t": 51900,
      "d": 150,
      "v": 70
    },
    {
      "midi": 62,
      "hit": false,
      "t": 51900,
      "d": 150,
      "v": 71
    },
    {
      "midi": 76,
      "hit": false,
      "t": 52050,
      "d": 150,
      "v": 71
    },
    {
      "midi": 60,
      "hit": false,
      "t": 52050,
      "d": 150,
      "v": 73
    },
    {
      "midi": 74,
      "hit": false,
      "t": 52200,
      "d": 600,
      "v": 72
    },
    {
      "midi": 59,
      "hit": false,
      "t": 52200,
      "d": 1200,
      "v": 68
    },
    {
      "midi": 86,
      "hit": false,
      "t": 52800,
      "d": 600,
      "v": 99
    },
    {
      "midi": 79,
      "hit": false,
      "t": 53400,
      "d": 150,
      "v": 59
    },
    {
      "midi": 64,
      "hit": false,
      "t": 53400,
      "d": 150,
      "v": 82
    },
    {
      "midi": 78,
      "hit": false,
      "t": 53550,
      "d": 150,
      "v": 70
    },
    {
      "midi": 62,
      "hit": false,
      "t": 53550,
      "d": 150,
      "v": 73
    },
    {
      "midi": 76,
      "hit": false,
      "t": 53700,
      "d": 150,
      "v": 75
    },
    {
      "midi": 60,
      "hit": false,
      "t": 53700,
      "d": 150,
      "v": 68
    },
    {
      "midi": 74,
      "hit": false,
      "t": 53850,
      "d": 150,
      "v": 69
    },
    {
      "midi": 59,
      "hit": false,
      "t": 53850,
      "d": 150,
      "v": 74
    },
    {
      "midi": 72,
      "hit": false,
      "t": 54000,
      "d": 600,
      "v": 73
    },
    {
      "midi": 57,
      "hit": false,
      "t": 54000,
      "d": 1200,
      "v": 75
    },
    {
      "midi": 84,
      "hit": false,
      "t": 54600,
      "d": 600,
      "v": 97
    },
    {
      "midi": 79,
      "hit": false,
      "t": 55200,
      "d": 150,
      "v": 73
    },
    {
      "midi": 52,
      "hit": false,
      "t": 55200,
      "d": 600,
      "v": 74
    },
    {
      "midi": 76,
      "hit": false,
      "t": 55350,
      "d": 150,
      "v": 66
    },
    {
      "midi": 74,
      "hit": false,
      "t": 55500,
      "d": 150,
      "v": 67
    },
    {
      "midi": 72,
      "hit": false,
      "t": 55650,
      "d": 150,
      "v": 66
    },
    {
      "midi": 81,
      "hit": false,
      "t": 55800,
      "d": 600,
      "v": 94
    },
    {
      "midi": 54,
      "hit": false,
      "t": 55800,
      "d": 600,
      "v": 78
    },
    {
      "midi": 79,
      "hit": false,
      "t": 56400,
      "d": 600,
      "v": 73
    },
    {
      "midi": 55,
      "hit": false,
      "t": 56400,
      "d": 600,
      "v": 79
    },
    {
      "midi": 71,
      "hit": false,
      "t": 57000,
      "d": 600,
      "v": 63
    },
    {
      "midi": 43,
      "hit": false,
      "t": 57000,
      "d": 600,
      "v": 68
    },
    {
      "midi": 74,
      "hit": false,
      "t": 57600,
      "d": 600,
      "v": 80
    },
    {
      "midi": 48,
      "hit": false,
      "t": 57600,
      "d": 1200,
      "v": 79
    },
    {
      "midi": 72,
      "hit": false,
      "t": 58200,
      "d": 600,
      "v": 75
    }
  ]
}