{
  "jsonPath": "Classical/Classical/Wolfgang Amadeus Mozart/piano-sonata-no11.json",
  "path": "Classical\\Classical\\Wolfgang Amadeus Mozart\\Piano Sonata No11.mid",
  "name": "Piano Sonata No11",
  "difficulty": "Advanced",
  "bpm": 120,
  "notes": [
    {
      "midi": 71,
      "hit": false,
      "t": 0,
      "d": 375,
      "v": 100
    },
    {
      "midi": 55,
      "hit": false,
      "t": 0,
      "d": 375,
      "v": 100
    },
    {
      "midi": 72,
      "hit": false,
      "t": 375,
      "d": 125,
      "v": 100
    },
    {
      "midi": 57,
      "hit": false,
      "t": 375,
      "d": 125,
      "v": 100
    },
    {
      "midi": 71,
      "hit": false,
      "t": 500,
      "d": 250,
      "v": 100
    },
    {
      "midi": 55,
      "hit": false,
      "t": 500,
      "d": 250,
      "v": 100
    },
    {
      "midi": 74,
      "hit": false,
      "t": 750,
      "d": 500,
      "v": 100
    },
    {
      "midi": 59,
      "hit": false,
      "t": 750,
      "d": 500,
      "v": 100
    },
    {
      "midi": 74,
      "hit": false,
      "t": 1250,
      "d": 250,
      "v": 100
    },
    {
      "midi": 69,
      "hit": false,
      "t": 1500,
      "d": 375,
      "v": 100
    },
    {
      "midi": 54,
      "hit": false,
      "t": 1500,
      "d": 375,
      "v": 100
    },
    {
      "midi": 71,
      "hit": false,
      "t": 1875,
      "d": 125,
      "v": 100
    },
    {
      "midi": 55,
      "hit": false,
      "t": 1875,
      "d": 125,
      "v": 100
    },
    {
      "midi": 69,
      "hit": false,
      "t": 2000,
      "d": 250,
      "v": 100
    },
    {
      "midi": 54,
      "hit": false,
      "t": 2000,
      "d": 250,
      "v": 100
    },
    {
      "midi": 72,
      "hit": false,
      "t": 2250,
      "d": 500,
      "v": 100
    },
    {
      "midi": 57,
      "hit": false,
      "t": 2250,
      "d": 500,
      "v": 100
    },
    {
      "midi": 72,
      "hit": false,
      "t": 2750,
      "d": 250,
      "v": 100
    },
    {
      "midi": 67,
      "hit": false,
      "t": 3000,
      "d": 500,
      "v": 100
    },
    {
      "midi": 52,
      "hit": false,
      "t": 3000,
      "d": 500,
      "v": 100
    },
    {
      "midi": 67,
      "hit": false,
      "t": 3500,
      "d": 250,
      "v": 100
    },
    {
      "midi": 52,
      "hit": false,
      "t": 3500,
      "d": 250,
      "v": 100
    },
    {
      "midi": 69,
      "hit": false,
      "t": 3750,
      "d": 500,
      "v": 100
    },
    {
      "midi": 54,
      "hit": false,
      "t": 3750,
      "d": 500,
      "v": 100
    },
    {
      "midi": 69,
      "hit": false,
      "t": 4250,
      "d": 250,
      "v": 100
    },
    {
      "midi": 54,
      "hit": false,
      "t": 4250,
      "d": 250,
      "v": 100
    },
    {
      "midi": 71,
      "hit": false,
      "t": 4500,
      "d": 500,
      "v": 100
    },
    {
      "midi": 55,
      "hit": false,
      "t": 4500,
      "d": 500,
      "v": 100
    },
    {
      "midi": 74,
      "hit": false,
      "t": 5000,
      "d": 125,
      "v": 100
    },
    {
      "midi": 48,
      "hit": false,
      "t": 5000,
      "d": 250,
      "v": 100
    },
    {
      "midi": 72,
      "hit": false,
      "t": 5125,
      "d": 125,
      "v": 100
    },
    {
      "midi": 71,
      "hit": false,
      "t": 5250,
      "d": 500,
      "v": 100
    },
    {
      "midi": 50,
      "hit": false,
      "t": 5250,
      "d": 750,
      "v": 100
    },
    {
      "midi": 69,
      "hit": false,
      "t": 5750,
      "d": 250,
      "v": 100
    },
    {
      "midi": 71,
      "hit": false,
      "t": 6000,
      "d": 375,
      "v": 100
    },
    {
      "midi": 55,
      "hit": false,
      "t": 6000,
      "d": 375,
      "v": 100
    },
    {
      "midi": 72,
      "hit": false,
      "t": 6375,
      "d": 125,
      "v": 100
    },
    {
      "midi": 57,
      "hit": false,
      "t": 6375,
      "d": 125,
      "v": 100
    },
    {
      "midi": 71,
      "hit": false,
      "t": 6500,
      "d": 250,
      "v": 100
    },
    {
      "midi": 55,
      "hit": false,
      "t": 6500,
      "d": 250,
      "v": 100
    },
    {
      "midi": 74,
      "hit": false,
      "t": 6750,
      "d": 500,
      "v": 100
    },
    {
      "midi": 59,
      "hit": false,
      "t": 6750,
      "d": 500,
      "v": 100
    },
    {
      "midi": 74,
      "hit": false,
      "t": 7250,
      "d": 250,
      "v": 100
    },
    {
      "midi": 69,
      "hit": false,
      "t": 7500,
      "d": 375,
      "v": 100
    },
    {
      "midi": 54,
      "hit": false,
      "t": 7500,
      "d": 375,
      "v": 100
    },
    {
      "midi": 71,
      "hit": false,
      "t": 7875,
      "d": 125,
      "v": 100
    },
    {
      "midi": 55,
      "hit": false,
      "t": 7875,
      "d": 125,
      "v": 100
    },
    {
      "midi": 69,
      "hit": false,
      "t": 8000,
      "d": 250,
      "v": 100
    },
    {
      "midi": 54,
      "hit": false,
      "t": 8000,
      "d": 250,
      "v": 100
    },
    {
      "midi": 72,
      "hit": false,
      "t": 8250,
      "d": 500,
      "v": 100
    },
    {
      "midi": 57,
      "hit": false,
      "t": 8250,
      "d": 500,
      "v": 100
    },
    {
      "midi": 72,
      "hit": false,
      "t": 8750,
      "d": 250,
      "v": 100
    },
    {
      "midi": 67,
      "hit": false,
      "t": 9000,
      "d": 500,
      "v": 100
    },
    {
      "midi": 52,
      "hit": false,
      "t": 9000,
      "d": 500,
      "v": 100
    },
    {
      "midi": 69,
      "hit": false,
      "t": 9500,
      "d": 250,
      "v": 100
    },
    {
      "midi": 54,
      "hit": false,
      "t": 9500,
      "d": 250,
      "v": 100
    },
    {
      "midi": 71,
      "hit": false,
      "t": 9750,
      "d": 500,
      "v": 100
    },
    {
      "midi": 55,
      "hit": false,
      "t": 9750,
      "d": 500,
      "v": 100
    },
    {
      "midi": 72,
      "hit": false,
      "t": 10250,
      "d": 250,
      "v": 100
    },
    {
      "midi": 48,
      "hit": false,
      "t": 10250,
      "d": 250,
      "v": 100
    },
    {
      "midi": 71,
      "hit": false,
      "t": 10500,
      "d": 500,
      "v": 100
    },
    {
      "midi": 50,
      "hit": false,
      "t": 10500,
      "d": 500,
      "v": 100
    },
    {
      "midi": 55,
      "hit": false,
      "t": 10500,
      "d": 500,
      "v": 100
    },
    {
      "midi": 69,
      "hit": false,
      "t": 11000,
      "d": 250,
      "v": 100
    },
    {
      "midi": 50,
      "hit": false,
      "t": 11000,
      "d": 250,
      "v": 100
    },
    {
      "midi": 54,
      "hit": false,
      "t": 11000,
      "d": 250,
      "v": 100
    },
    {
      "midi": 67,
      "hit": false,
      "t": 11250,
      "d": 500,
      "v": 100
    },
    {
      "midi": 55,
      "hit": false,
      "t": 11250,
      "d": 500,
      "v": 100
    },
    {
      "midi": 74,
      "hit": false,
      "t": 12000,
      "d": 375,
      "v": 100
    },
    {
      "midi": 55,
      "hit": false,
      "t": 12000,
      "d": 250,
      "v": 100
    },
    {
      "midi": 59,
      "hit": false,
      "t": 12250,
      "d": 250,
      "v": 100
    },
    {
      "midi": 76,
      "hit": false,
      "t": 12375,
      "d": 125,
      "v": 100
    },
    {
      "midi": 74,
      "hit": false,
      "t": 12500,
      "d": 250,
      "v": 100
    },
    {
      "midi": 62,
      "hit": false,
      "t": 12500,
      "d": 250,
      "v": 100
    },
    {
      "midi": 76,
      "hit": false,
      "t": 12750,
      "d": 500,
      "v": 100
    },
    {
      "midi": 55,
      "hit": false,
      "t": 12750,
      "d": 500,
      "v": 100
    },
    {
      "midi": 76,
      "hit": false,
      "t": 13250,
      "d": 250,
      "v": 100
    },
    {
      "midi": 79,
      "hit": false,
      "t": 13500,
      "d": 375,
      "v": 100
    },
    {
      "midi": 55,
      "hit": false,
      "t": 13500,
      "d": 250,
      "v": 100
    },
    {
      "midi": 60,
      "hit": false,
      "t": 13750,
      "d": 250,
      "v": 100
    },
    {
      "midi": 78,
      "hit": false,
      "t": 13875,
      "d": 125,
      "v": 100
    },
    {
      "midi": 76,
      "hit": false,
      "t": 14000,
      "d": 250,
      "v": 100
    },
    {
      "midi": 64,
      "hit": false,
      "t": 14000,
      "d": 250,
      "v": 100
    },
    {
      "midi": 76,
      "hit": false,
      "t": 14250,
      "d": 250,
      "v": 100
    },
    {
      "midi": 55,
      "hit": false,
      "t": 14250,
      "d": 500,
      "v": 100
    },
    {
      "midi": 74,
      "hit": false,
      "t": 14500,
      "d": 250,
      "v": 100
    },
    {
      "midi": 74,
      "hit": false,
      "t": 14750,
      "d": 250,
      "v": 100
    },
    {
      "midi": 74,
      "hit": false,
      "t": 15000,
      "d": 250,
      "v": 100
    },
    {
      "midi": 55,
      "hit": false,
      "t": 15000,
      "d": 500,
      "v": 100
    },
    {
      "midi": 71,
      "hit": false,
      "t": 15250,
      "d": 250,
      "v": 100
    },
    {
      "midi": 67,
      "hit": false,
      "t": 15500,
      "d": 250,
      "v": 100
    },
    {
      "midi": 74,
      "hit": false,
      "t": 15750,
      "d": 250,
      "v": 100
    },
    {
      "midi": 54,
      "hit": false,
      "t": 15750,
      "d": 500,
      "v": 100
    },
    {
      "midi": 72,
      "hit": false,
      "t": 16000,
      "d": 250,
      "v": 100
    },
    {
      "midi": 69,
      "hit": false,
      "t": 16250,
      "d": 250,
      "v": 100
    },
    {
      "midi": 74,
      "hit": false,
      "t": 16500,
      "d": 250,
      "v": 100
    },
    {
      "midi": 55,
      "hit": false,
      "t": 16500,
      "d": 500,
      "v": 100
    },
    {
      "midi": 71,
      "hit": false,
      "t": 16750,
      "d": 250,
      "v": 100
    },
    {
      "midi": 67,
      "hit": false,
      "t": 17000,
      "d": 250,
      "v": 100
    },
    {
      "midi": 52,
      "hit": false,
      "t": 17000,
      "d": 250,
      "v": 100
    },
    {
      "midi": 71,
      "hit": false,
      "t": 17250,
      "d": 500,
      "v": 100
    },
    {
      "midi": 50,
      "hit": false,
      "t": 17250,
      "d": 500,
      "v": 100
    },
    {
      "midi": 69,
      "hit": false,
      "t": 17750,
      "d": 250,
      "v": 100
    },
    {
      "midi": 71,
      "hit": false,
      "t": 18000,
      "d": 375,
      "v": 100
    },
    {
      "midi": 55,
      "hit": false,
      "t": 18000,
      "d": 375,
      "v": 100
    },
    {
      "midi": 72,
      "hit": false,
      "t": 18375,
      "d": 125,
      "v": 100
    },
    {
      "midi": 57,
      "hit": false,
      "t": 18375,
      "d": 125,
      "v": 100
    },
    {
      "midi": 71,
      "hit": false,
      "t": 18500,
      "d": 250,
      "v": 100
    },
    {
      "midi": 55,
      "hit": false,
      "t": 18500,
      "d": 250,
      "v": 100
    },
    {
      "midi": 74,
      "hit": false,
      "t": 18750,
      "d": 500,
      "v": 100
    },
    {
      "midi": 59,
      "hit": false,
      "t": 18750,
      "d": 500,
      "v": 100
    },
    {
      "midi": 74,
      "hit": false,
      "t": 19250,
      "d": 250,
      "v": 100
    },
    {
      "midi": 69,
      "hit": false,
      "t": 19500,
      "d": 375,
      "v": 100
    },
    {
      "midi": 54,
      "hit": false,
      "t": 19500,
      "d": 375,
      "v": 100
    },
    {
      "midi": 71,
      "hit": false,
      "t": 19875,
      "d": 125,
      "v": 100
    },
    {
      "midi": 55,
      "hit": false,
      "t": 19875,
      "d": 125,
      "v": 100
    },
    {
      "midi": 69,
      "hit": false,
      "t": 20000,
      "d": 250,
      "v": 100
    },
    {
      "midi": 54,
      "hit": false,
      "t": 20000,
      "d": 250,
      "v": 100
    },
    {
      "midi": 72,
      "hit": false,
      "t": 20250,
      "d": 500,
      "v": 100
    },
    {
      "midi": 57,
      "hit": false,
      "t": 20250,
      "d": 500,
      "v": 100
    },
    {
      "midi": 72,
      "hit": false,
      "t": 20750,
      "d": 250,
      "v": 100
    },
    {
      "midi": 67,
      "hit": false,
      "t": 21000,
      "d": 500,
      "v": 100
    },
    {
      "midi": 52,
      "hit": false,
      "t": 21000,
      "d": 500,
      "v": 100
    },
    {
      "midi": 69,
      "hit": false,
      "t": 21500,
      "d": 250,
      "v": 100
    },
    {
      "midi": 54,
      "hit": false,
      "t": 21500,
      "d": 250,
      "v": 100
    },
    {
      "midi": 71,
      "hit": false,
      "t": 21750,
      "d": 500,
      "v": 100
    },
    {
      "midi": 55,
      "hit": false,
      "t": 21750,
      "d": 500,
      "v": 100
    },
    {
      "midi": 72,
      "hit": false,
      "t": 22250,
      "d": 250,
      "v": 100
    },
    {
      "midi": 48,
      "hit": false,
      "t": 22250,
      "d": 250,
      "v": 100
    },
    {
      "midi": 71,
      "hit": false,
      "t": 22500,
      "d": 500,
      "v": 100
    },
    {
      "midi": 50,
      "hit": false,
      "t": 22500,
      "d": 500,
      "v": 100
    },
    {
      "midi": 55,
      "hit": false,
      "t": 22500,
      "d": 500,
      "v": 100
    },
    {
      "midi": 69,
      "hit": false,
      "t": 23000,
      "d": 250,
      "v": 100
    },
    {
      "midi": 50,
      "hit": false,
      "t": 23000,
      "d": 250,
      "v": 100
    },
    {
      "midi": 54,
      "hit": false,
      "t": 23000,
      "d": 250,
      "v": 100
    },
    {
      "midi": 69,
      "hit": false,
      "t": 23250,
      "d": 500,
      "v": 100
    },
    {
      "midi": 55,
      "hit": false,
      "t": 23250,
      "d": 750,
      "v": 100
    },
    {
      "midi": 71,
      "hit": false,
      "t": 23750,
      "d": 250,
      "v": 100
    },
    {
      "midi": 71,
      "hit": false,
      "t": 24000,
      "d": 500,
      "v": 100
    },
    {
      "midi": 43,
      "hit": false,
      "t": 24000,
      "d": 500,
      "v": 100
    },
    {
      "midi": 72,
      "hit": false,
      "t": 24500,
      "d": 250,
      "v": 100
    },
    {
      "midi": 45,
      "hit": false,
      "t": 24500,
      "d": 250,
      "v": 100
    },
    {
      "midi": 74,
      "hit": false,
      "t": 24750,
      "d": 500,
      "v": 100
    },
    {
      "midi": 47,
      "hit": false,
      "t": 24750,
      "d": 500,
      "v": 100
    },
    {
      "midi": 76,
      "hit": false,
      "t": 25250,
      "d": 125,
      "v": 100
    },
    {
      "midi": 48,
      "hit": false,
      "t": 25250,
      "d": 250,
      "v": 100
    },
    {
      "midi": 78,
      "hit": false,
      "t": 25375,
      "d": 62.5,
      "v": 100
    },
    {
      "midi": 79,
      "hit": false,
      "t": 25437.5,
      "d": 62.5,
      "v": 100
    },
    {
      "midi": 67,
      "hit": false,
      "t": 25500,
      "d": 500,
      "v": 100
    },
    {
      "midi": 50,
      "hit": false,
      "t": 25500,
      "d": 500,
      "v": 100
    },
    {
      "midi": 71,
      "hit": false,
      "t": 26000,
      "d": 125,
      "v": 100
    },
    {
      "midi": 50,
      "hit": false,
      "t": 26000,
      "d": 250,
      "v": 100
    },
    {
      "midi": 60,
      "hit": false,
      "t": 26000,
      "d": 250,
      "v": 100
    },
    {
      "midi": 69,
      "hit": false,
      "t": 26125,
      "d": 125,
      "v": 100
    },
    {
      "midi": 67,
      "hit": false,
      "t": 26250,
      "d": 500,
      "v": 100
    },
    {
      "midi": 55,
      "hit": false,
      "t": 26250,
      "d": 500,
      "v": 100
    },
    {
      "midi": 59,
      "hit": false,
      "t": 26250,
      "d": 500,
      "v": 100
    }
  ]
}