{
  "jsonPath": "Classical/Classical/Wolfgang Amadeus Mozart/sonate-opus-kv-331-variation-2.json",
  "path": "Classical\\Classical\\Wolfgang Amadeus Mozart\\Sonate Opus KV 331 - Variation 2.mid",
  "name": "Sonate Opus KV 331 - Variation 2",
  "difficulty": "Intermediate",
  "bpm": 56.000029866682596,
  "notes": [
    {
      "midi": 73,
      "hit": false,
      "t": 0,
      "d": 535.714,
      "v": 127
    },
    {
      "midi": 73,
      "hit": false,
      "t": 535.714,
      "d": 535.714,
      "v": 127
    },
    {
      "midi": 74,
      "hit": false,
      "t": 1071.428,
      "d": 267.85699999999997,
      "v": 127
    },
    {
      "midi": 73,
      "hit": false,
      "t": 1339.285,
      "d": 267.85699999999997,
      "v": 127
    },
    {
      "midi": 74,
      "hit": false,
      "t": 1339.285,
      "d": 267.85699999999997,
      "v": 127
    },
    {
      "midi": 76,
      "hit": false,
      "t": 1607.142,
      "d": 1071.428,
      "v": 127
    },
    {
      "midi": 76,
      "hit": false,
      "t": 2678.57,
      "d": 267.85699999999997,
      "v": 127
    },
    {
      "midi": 78,
      "hit": false,
      "t": 2678.57,
      "d": 267.85699999999997,
      "v": 127
    },
    {
      "midi": 73,
      "hit": false,
      "t": 2946.427,
      "d": 267.85699999999997,
      "v": 127
    },
    {
      "midi": 74,
      "hit": false,
      "t": 2946.427,
      "d": 267.85699999999997,
      "v": 127
    },
    {
      "midi": 71,
      "hit": false,
      "t": 3214.284,
      "d": 535.7139999999999,
      "v": 127
    },
    {
      "midi": 71,
      "hit": false,
      "t": 3749.998,
      "d": 535.7140000000004,
      "v": 127
    },
    {
      "midi": 73,
      "hit": false,
      "t": 4285.712,
      "d": 267.85699999999997,
      "v": 127
    },
    {
      "midi": 71,
      "hit": false,
      "t": 4553.569,
      "d": 267.85699999999997,
      "v": 127
    },
    {
      "midi": 73,
      "hit": false,
      "t": 4553.569,
      "d": 267.85699999999997,
      "v": 127
    },
    {
      "midi": 74,
      "hit": false,
      "t": 4821.426,
      "d": 1071.4279999999999,
      "v": 127
    },
    {
      "midi": 74,
      "hit": false,
      "t": 5892.854,
      "d": 267.85699999999997,
      "v": 127
    },
    {
      "midi": 76,
      "hit": false,
      "t": 5892.854,
      "d": 267.85699999999997,
      "v": 127
    },
    {
      "midi": 71,
      "hit": false,
      "t": 6160.711,
      "d": 267.85699999999997,
      "v": 127
    },
    {
      "midi": 73,
      "hit": false,
      "t": 6160.711,
      "d": 267.85699999999997,
      "v": 127
    },
    {
      "midi": 69,
      "hit": false,
      "t": 6428.568,
      "d": 535.7139999999999,
      "v": 127
    },
    {
      "midi": 69,
      "hit": false,
      "t": 6964.282,
      "d": 535.7139999999999,
      "v": 127
    },
    {
      "midi": 69,
      "hit": false,
      "t": 7499.996,
      "d": 267.85699999999997,
      "v": 127
    },
    {
      "midi": 68,
      "hit": false,
      "t": 7767.853,
      "d": 267.85699999999997,
      "v": 127
    },
    {
      "midi": 69,
      "hit": false,
      "t": 7767.853,
      "d": 267.85699999999997,
      "v": 127
    },
    {
      "midi": 71,
      "hit": false,
      "t": 8035.71,
      "d": 535.7140000000009,
      "v": 127
    },
    {
      "midi": 71,
      "hit": false,
      "t": 8571.424,
      "d": 535.7139999999999,
      "v": 127
    },
    {
      "midi": 71,
      "hit": false,
      "t": 9107.138,
      "d": 267.85699999999997,
      "v": 127
    },
    {
      "midi": 69,
      "hit": false,
      "t": 9374.995,
      "d": 267.85699999999997,
      "v": 127
    },
    {
      "midi": 71,
      "hit": false,
      "t": 9374.995,
      "d": 267.85699999999997,
      "v": 127
    },
    {
      "midi": 73,
      "hit": false,
      "t": 9642.852,
      "d": 535.7139999999999,
      "v": 127
    },
    {
      "midi": 73,
      "hit": false,
      "t": 10178.566,
      "d": 535.7139999999999,
      "v": 127
    },
    {
      "midi": 71,
      "hit": false,
      "t": 10714.28,
      "d": 267.85699999999997,
      "v": 127
    },
    {
      "midi": 76,
      "hit": false,
      "t": 10714.28,
      "d": 267.85699999999997,
      "v": 127
    },
    {
      "midi": 74,
      "hit": false,
      "t": 10982.137,
      "d": 267.85699999999997,
      "v": 127
    },
    {
      "midi": 69,
      "hit": false,
      "t": 11249.994,
      "d": 1071.4279999999999,
      "v": 127
    },
    {
      "midi": 73,
      "hit": false,
      "t": 11249.994,
      "d": 1071.4279999999999,
      "v": 127
    },
    {
      "midi": 68,
      "hit": false,
      "t": 12321.422,
      "d": 535.7139999999999,
      "v": 127
    },
    {
      "midi": 71,
      "hit": false,
      "t": 12321.422,
      "d": 535.7139999999999,
      "v": 127
    },
    {
      "midi": 73,
      "hit": false,
      "t": 12857.136,
      "d": 267.85699999999997,
      "v": 127
    },
    {
      "midi": 64,
      "hit": false,
      "t": 13124.993,
      "d": 267.85699999999997,
      "v": 127
    },
    {
      "midi": 69,
      "hit": false,
      "t": 13124.993,
      "d": 267.85699999999997,
      "v": 127
    },
    {
      "midi": 73,
      "hit": false,
      "t": 13392.85,
      "d": 267.85699999999997,
      "v": 127
    },
    {
      "midi": 64,
      "hit": false,
      "t": 13660.707,
      "d": 267.85699999999997,
      "v": 127
    },
    {
      "midi": 69,
      "hit": false,
      "t": 13660.707,
      "d": 267.85699999999997,
      "v": 127
    },
    {
      "midi": 74,
      "hit": false,
      "t": 13928.564,
      "d": 267.85699999999997,
      "v": 127
    },
    {
      "midi": 64,
      "hit": false,
      "t": 14196.421,
      "d": 267.85699999999997,
      "v": 127
    },
    {
      "midi": 71,
      "hit": false,
      "t": 14196.421,
      "d": 267.85699999999997,
      "v": 127
    },
    {
      "midi": 76,
      "hit": false,
      "t": 14464.278,
      "d": 267.85699999999997,
      "v": 127
    },
    {
      "midi": 64,
      "hit": false,
      "t": 14732.135,
      "d": 267.85699999999997,
      "v": 127
    },
    {
      "midi": 73,
      "hit": false,
      "t": 14732.135,
      "d": 267.85699999999997,
      "v": 127
    },
    {
      "midi": 76,
      "hit": false,
      "t": 14999.992,
      "d": 267.85699999999997,
      "v": 127
    },
    {
      "midi": 64,
      "hit": false,
      "t": 15267.849,
      "d": 267.85699999999997,
      "v": 127
    },
    {
      "midi": 73,
      "hit": false,
      "t": 15267.849,
      "d": 267.85699999999997,
      "v": 127
    },
    {
      "midi": 76,
      "hit": false,
      "t": 15535.706,
      "d": 267.85699999999997,
      "v": 127
    },
    {
      "midi": 78,
      "hit": false,
      "t": 15535.706,
      "d": 267.85699999999997,
      "v": 127
    },
    {
      "midi": 73,
      "hit": false,
      "t": 15803.563,
      "d": 267.85699999999997,
      "v": 127
    },
    {
      "midi": 74,
      "hit": false,
      "t": 15803.563,
      "d": 267.85699999999997,
      "v": 127
    },
    {
      "midi": 71,
      "hit": false,
      "t": 16071.42,
      "d": 267.85699999999997,
      "v": 127
    },
    {
      "midi": 64,
      "hit": false,
      "t": 16339.277,
      "d": 267.8570000000018,
      "v": 127
    },
    {
      "midi": 68,
      "hit": false,
      "t": 16339.277,
      "d": 267.8570000000018,
      "v": 127
    },
    {
      "midi": 71,
      "hit": false,
      "t": 16607.134000000002,
      "d": 267.85699999999997,
      "v": 127
    },
    {
      "midi": 64,
      "hit": false,
      "t": 16874.991,
      "d": 267.85699999999997,
      "v": 127
    },
    {
      "midi": 68,
      "hit": false,
      "t": 16874.991,
      "d": 267.85699999999997,
      "v": 127
    },
    {
      "midi": 73,
      "hit": false,
      "t": 17142.848,
      "d": 267.85699999999997,
      "v": 127
    },
    {
      "midi": 64,
      "hit": false,
      "t": 17410.705,
      "d": 267.85699999999997,
      "v": 127
    },
    {
      "midi": 69,
      "hit": false,
      "t": 17410.705,
      "d": 267.85699999999997,
      "v": 127
    },
    {
      "midi": 74,
      "hit": false,
      "t": 17678.562,
      "d": 267.85699999999997,
      "v": 127
    },
    {
      "midi": 64,
      "hit": false,
      "t": 17946.419,
      "d": 267.85699999999997,
      "v": 127
    },
    {
      "midi": 71,
      "hit": false,
      "t": 17946.419,
      "d": 267.85699999999997,
      "v": 127
    },
    {
      "midi": 74,
      "hit": false,
      "t": 18214.276,
      "d": 267.85699999999997,
      "v": 127
    },
    {
      "midi": 64,
      "hit": false,
      "t": 18482.133,
      "d": 267.85699999999997,
      "v": 127
    },
    {
      "midi": 71,
      "hit": false,
      "t": 18482.133,
      "d": 267.85699999999997,
      "v": 127
    },
    {
      "midi": 74,
      "hit": false,
      "t": 18749.99,
      "d": 267.85699999999997,
      "v": 127
    },
    {
      "midi": 76,
      "hit": false,
      "t": 18749.99,
      "d": 267.85699999999997,
      "v": 127
    },
    {
      "midi": 71,
      "hit": false,
      "t": 19017.847,
      "d": 267.85699999999997,
      "v": 127
    },
    {
      "midi": 73,
      "hit": false,
      "t": 19017.847,
      "d": 267.85699999999997,
      "v": 127
    },
    {
      "midi": 69,
      "hit": false,
      "t": 19285.704,
      "d": 267.85699999999997,
      "v": 127
    },
    {
      "midi": 61,
      "hit": false,
      "t": 19553.561,
      "d": 267.85699999999997,
      "v": 127
    },
    {
      "midi": 64,
      "hit": false,
      "t": 19553.561,
      "d": 267.85699999999997,
      "v": 127
    },
    {
      "midi": 69,
      "hit": false,
      "t": 19821.418,
      "d": 267.85699999999997,
      "v": 127
    },
    {
      "midi": 61,
      "hit": false,
      "t": 20089.275,
      "d": 267.85699999999997,
      "v": 127
    },
    {
      "midi": 64,
      "hit": false,
      "t": 20089.275,
      "d": 267.85699999999997,
      "v": 127
    },
    {
      "midi": 71,
      "hit": false,
      "t": 20357.132,
      "d": 267.85699999999997,
      "v": 127
    },
    {
      "midi": 62,
      "hit": false,
      "t": 20624.989,
      "d": 267.85699999999997,
      "v": 127
    },
    {
      "midi": 64,
      "hit": false,
      "t": 20624.989,
      "d": 267.85699999999997,
      "v": 127
    },
    {
      "midi": 73,
      "hit": false,
      "t": 20892.846,
      "d": 267.85699999999997,
      "v": 127
    },
    {
      "midi": 64,
      "hit": false,
      "t": 21160.703,
      "d": 267.85699999999997,
      "v": 127
    },
    {
      "midi": 69,
      "hit": false,
      "t": 21160.703,
      "d": 267.85699999999997,
      "v": 127
    },
    {
      "midi": 73,
      "hit": false,
      "t": 21428.56,
      "d": 267.85699999999997,
      "v": 127
    },
    {
      "midi": 64,
      "hit": false,
      "t": 21696.417,
      "d": 267.85699999999997,
      "v": 127
    },
    {
      "midi": 69,
      "hit": false,
      "t": 21696.417,
      "d": 267.85699999999997,
      "v": 127
    },
    {
      "midi": 74,
      "hit": false,
      "t": 21964.274,
      "d": 267.85699999999997,
      "v": 127
    },
    {
      "midi": 66,
      "hit": false,
      "t": 22232.131,
      "d": 267.85699999999997,
      "v": 127
    },
    {
      "midi": 71,
      "hit": false,
      "t": 22232.131,
      "d": 267.85699999999997,
      "v": 127
    },
    {
      "midi": 73,
      "hit": false,
      "t": 22499.988,
      "d": 267.85699999999997,
      "v": 127
    },
    {
      "midi": 64,
      "hit": false,
      "t": 22767.845,
      "d": 267.85699999999997,
      "v": 127
    },
    {
      "midi": 69,
      "hit": false,
      "t": 22767.845,
      "d": 267.85699999999997,
      "v": 127
    },
    {
      "midi": 73,
      "hit": false,
      "t": 23035.702,
      "d": 267.85699999999997,
      "v": 127
    },
    {
      "midi": 64,
      "hit": false,
      "t": 23303.559,
      "d": 267.85699999999997,
      "v": 127
    },
    {
      "midi": 69,
      "hit": false,
      "t": 23303.559,
      "d": 267.85699999999997,
      "v": 127
    },
    {
      "midi": 71,
      "hit": false,
      "t": 23571.416,
      "d": 267.85699999999997,
      "v": 127
    },
    {
      "midi": 62,
      "hit": false,
      "t": 23839.273,
      "d": 267.85699999999997,
      "v": 127
    },
    {
      "midi": 68,
      "hit": false,
      "t": 23839.273,
      "d": 267.85699999999997,
      "v": 127
    },
    {
      "midi": 69,
      "hit": false,
      "t": 24107.13,
      "d": 267.85699999999997,
      "v": 127
    },
    {
      "midi": 61,
      "hit": false,
      "t": 24374.987,
      "d": 267.85699999999997,
      "v": 127
    },
    {
      "midi": 64,
      "hit": false,
      "t": 24374.987,
      "d": 267.85699999999997,
      "v": 127
    },
    {
      "midi": 57,
      "hit": false,
      "t": 24642.844,
      "d": 1071.4279999999999,
      "v": 127
    },
    {
      "midi": 73,
      "hit": false,
      "t": 25714.272,
      "d": 535.7139999999999,
      "v": 127
    },
    {
      "midi": 73,
      "hit": false,
      "t": 26249.986,
      "d": 535.7139999999999,
      "v": 127
    },
    {
      "midi": 74,
      "hit": false,
      "t": 26785.7,
      "d": 267.85699999999997,
      "v": 127
    },
    {
      "midi": 73,
      "hit": false,
      "t": 27053.557,
      "d": 267.85699999999997,
      "v": 127
    },
    {
      "midi": 74,
      "hit": false,
      "t": 27053.557,
      "d": 267.85699999999997,
      "v": 127
    },
    {
      "midi": 76,
      "hit": false,
      "t": 27321.414,
      "d": 1071.4279999999999,
      "v": 127
    },
    {
      "midi": 76,
      "hit": false,
      "t": 28392.842,
      "d": 267.85699999999997,
      "v": 127
    },
    {
      "midi": 78,
      "hit": false,
      "t": 28392.842,
      "d": 267.85699999999997,
      "v": 127
    },
    {
      "midi": 73,
      "hit": false,
      "t": 28660.699,
      "d": 267.85699999999997,
      "v": 127
    },
    {
      "midi": 74,
      "hit": false,
      "t": 28660.699,
      "d": 267.85699999999997,
      "v": 127
    },
    {
      "midi": 71,
      "hit": false,
      "t": 28928.556,
      "d": 535.7139999999999,
      "v": 127
    },
    {
      "midi": 71,
      "hit": false,
      "t": 29464.27,
      "d": 535.7139999999999,
      "v": 127
    },
    {
      "midi": 73,
      "hit": false,
      "t": 29999.984,
      "d": 267.85699999999997,
      "v": 127
    },
    {
      "midi": 71,
      "hit": false,
      "t": 30267.841,
      "d": 267.85699999999997,
      "v": 127
    },
    {
      "midi": 73,
      "hit": false,
      "t": 30267.841,
      "d": 267.85699999999997,
      "v": 127
    },
    {
      "midi": 74,
      "hit": false,
      "t": 30535.698,
      "d": 1071.4279999999999,
      "v": 127
    },
    {
      "midi": 74,
      "hit": false,
      "t": 31607.126,
      "d": 267.85699999999997,
      "v": 127
    },
    {
      "midi": 76,
      "hit": false,
      "t": 31607.126,
      "d": 267.85699999999997,
      "v": 127
    },
    {
      "midi": 71,
      "hit": false,
      "t": 31874.983,
      "d": 267.85699999999997,
      "v": 127
    },
    {
      "midi": 73,
      "hit": false,
      "t": 31874.983,
      "d": 267.85699999999997,
      "v": 127
    },
    {
      "midi": 69,
      "hit": false,
      "t": 32142.84,
      "d": 535.7139999999999,
      "v": 127
    },
    {
      "midi": 69,
      "hit": false,
      "t": 32678.554,
      "d": 535.7140000000036,
      "v": 127
    },
    {
      "midi": 69,
      "hit": false,
      "t": 33214.268000000004,
      "d": 267.8570000000036,
      "v": 127
    },
    {
      "midi": 68,
      "hit": false,
      "t": 33482.12500000001,
      "d": 267.8570000000036,
      "v": 127
    },
    {
      "midi": 69,
      "hit": false,
      "t": 33482.12500000001,
      "d": 267.8570000000036,
      "v": 127
    },
    {
      "midi": 71,
      "hit": false,
      "t": 33749.98200000001,
      "d": 535.7139999999999,
      "v": 127
    },
    {
      "midi": 71,
      "hit": false,
      "t": 34285.69600000001,
      "d": 535.7139999999999,
      "v": 127
    },
    {
      "midi": 71,
      "hit": false,
      "t": 34821.41000000001,
      "d": 267.8570000000036,
      "v": 127
    },
    {
      "midi": 69,
      "hit": false,
      "t": 35089.267000000014,
      "d": 267.8570000000036,
      "v": 127
    },
    {
      "midi": 71,
      "hit": false,
      "t": 35089.267000000014,
      "d": 267.8570000000036,
      "v": 127
    },
    {
      "midi": 73,
      "hit": false,
      "t": 35357.12400000002,
      "d": 535.7139999999999,
      "v": 127
    },
    {
      "midi": 73,
      "hit": false,
      "t": 35892.83800000002,
      "d": 535.7139999999999,
      "v": 127
    },
    {
      "midi": 71,
      "hit": false,
      "t": 36428.55200000002,
      "d": 267.8570000000036,
      "v": 127
    },
    {
      "midi": 76,
      "hit": false,
      "t": 36428.55200000002,
      "d": 267.8570000000036,
      "v": 127
    },
    {
      "midi": 74,
      "hit": false,
      "t": 36696.40900000002,
      "d": 267.8570000000036,
      "v": 127
    },
    {
      "midi": 69,
      "hit": false,
      "t": 36964.266000000025,
      "d": 1071.4279999999999,
      "v": 127
    },
    {
      "midi": 73,
      "hit": false,
      "t": 36964.266000000025,
      "d": 1071.4279999999999,
      "v": 127
    },
    {
      "midi": 68,
      "hit": false,
      "t": 38035.694000000025,
      "d": 535.7139999999999,
      "v": 127
    },
    {
      "midi": 71,
      "hit": false,
      "t": 38035.694000000025,
      "d": 535.7139999999999,
      "v": 127
    },
    {
      "midi": 73,
      "hit": false,
      "t": 38571.408000000025,
      "d": 267.8570000000036,
      "v": 127
    },
    {
      "midi": 64,
      "hit": false,
      "t": 38839.26500000003,
      "d": 267.8570000000036,
      "v": 127
    },
    {
      "midi": 69,
      "hit": false,
      "t": 38839.26500000003,
      "d": 267.8570000000036,
      "v": 127
    },
    {
      "midi": 73,
      "hit": false,
      "t": 39107.12200000003,
      "d": 267.8570000000036,
      "v": 127
    },
    {
      "midi": 64,
      "hit": false,
      "t": 39374.979000000036,
      "d": 267.8570000000036,
      "v": 127
    },
    {
      "midi": 69,
      "hit": false,
      "t": 39374.979000000036,
      "d": 267.8570000000036,
      "v": 127
    },
    {
      "midi": 74,
      "hit": false,
      "t": 39642.83600000004,
      "d": 267.8570000000036,
      "v": 127
    },
    {
      "midi": 64,
      "hit": false,
      "t": 39910.69300000004,
      "d": 267.8570000000036,
      "v": 127
    },
    {
      "midi": 71,
      "hit": false,
      "t": 39910.69300000004,
      "d": 267.8570000000036,
      "v": 127
    },
    {
      "midi": 76,
      "hit": false,
      "t": 40178.55000000005,
      "d": 267.8570000000036,
      "v": 127
    },
    {
      "midi": 64,
      "hit": false,
      "t": 40446.40700000005,
      "d": 267.8570000000036,
      "v": 127
    },
    {
      "midi": 73,
      "hit": false,
      "t": 40446.40700000005,
      "d": 267.8570000000036,
      "v": 127
    },
    {
      "midi": 76,
      "hit": false,
      "t": 40714.264000000054,
      "d": 267.8570000000036,
      "v": 127
    },
    {
      "midi": 64,
      "hit": false,
      "t": 40982.12100000006,
      "d": 267.8570000000036,
      "v": 127
    },
    {
      "midi": 73,
      "hit": false,
      "t": 40982.12100000006,
      "d": 267.8570000000036,
      "v": 127
    },
    {
      "midi": 76,
      "hit": false,
      "t": 41249.97800000006,
      "d": 267.8570000000036,
      "v": 127
    },
    {
      "midi": 78,
      "hit": false,
      "t": 41249.97800000006,
      "d": 267.8570000000036,
      "v": 127
    },
    {
      "midi": 73,
      "hit": false,
      "t": 41517.835000000065,
      "d": 267.8570000000036,
      "v": 127
    },
    {
      "midi": 74,
      "hit": false,
      "t": 41517.835000000065,
      "d": 267.8570000000036,
      "v": 127
    },
    {
      "midi": 71,
      "hit": false,
      "t": 41785.69200000007,
      "d": 267.8570000000036,
      "v": 127
    },
    {
      "midi": 64,
      "hit": false,
      "t": 42053.54900000007,
      "d": 267.8570000000036,
      "v": 127
    },
    {
      "midi": 68,
      "hit": false,
      "t": 42053.54900000007,
      "d": 267.8570000000036,
      "v": 127
    },
    {
      "midi": 71,
      "hit": false,
      "t": 42321.406000000075,
      "d": 267.8570000000036,
      "v": 127
    },
    {
      "midi": 64,
      "hit": false,
      "t": 42589.26300000008,
      "d": 267.8570000000036,
      "v": 127
    },
    {
      "midi": 68,
      "hit": false,
      "t": 42589.26300000008,
      "d": 267.8570000000036,
      "v": 127
    },
    {
      "midi": 73,
      "hit": false,
      "t": 42857.12000000008,
      "d": 267.8570000000036,
      "v": 127
    },
    {
      "midi": 64,
      "hit": false,
      "t": 43124.977000000086,
      "d": 267.8570000000036,
      "v": 127
    },
    {
      "midi": 69,
      "hit": false,
      "t": 43124.977000000086,
      "d": 267.8570000000036,
      "v": 127
    },
    {
      "midi": 74,
      "hit": false,
      "t": 43392.83400000009,
      "d": 267.8570000000036,
      "v": 127
    },
    {
      "midi": 64,
      "hit": false,
      "t": 43660.69100000009,
      "d": 267.8570000000036,
      "v": 127
    },
    {
      "midi": 71,
      "hit": false,
      "t": 43660.69100000009,
      "d": 267.8570000000036,
      "v": 127
    },
    {
      "midi": 74,
      "hit": false,
      "t": 43928.5480000001,
      "d": 267.8570000000036,
      "v": 127
    },
    {
      "midi": 64,
      "hit": false,
      "t": 44196.4050000001,
      "d": 267.8570000000036,
      "v": 127
    },
    {
      "midi": 71,
      "hit": false,
      "t": 44196.4050000001,
      "d": 267.8570000000036,
      "v": 127
    },
    {
      "midi": 74,
      "hit": false,
      "t": 44464.262000000104,
      "d": 267.8570000000036,
      "v": 127
    },
    {
      "midi": 76,
      "hit": false,
      "t": 44464.262000000104,
      "d": 267.8570000000036,
      "v": 127
    },
    {
      "midi": 71,
      "hit": false,
      "t": 44732.11900000011,
      "d": 267.8570000000036,
      "v": 127
    },
    {
      "midi": 73,
      "hit": false,
      "t": 44732.11900000011,
      "d": 267.8570000000036,
      "v": 127
    },
    {
      "midi": 69,
      "hit": false,
      "t": 44999.97600000011,
      "d": 267.8570000000036,
      "v": 127
    },
    {
      "midi": 61,
      "hit": false,
      "t": 45267.833000000115,
      "d": 267.8570000000036,
      "v": 127
    },
    {
      "midi": 64,
      "hit": false,
      "t": 45267.833000000115,
      "d": 267.8570000000036,
      "v": 127
    },
    {
      "midi": 69,
      "hit": false,
      "t": 45535.69000000012,
      "d": 267.8570000000036,
      "v": 127
    },
    {
      "midi": 61,
      "hit": false,
      "t": 45803.54700000012,
      "d": 267.8570000000036,
      "v": 127
    },
    {
      "midi": 64,
      "hit": false,
      "t": 45803.54700000012,
      "d": 267.8570000000036,
      "v": 127
    },
    {
      "midi": 71,
      "hit": false,
      "t": 46071.404000000126,
      "d": 267.8570000000036,
      "v": 127
    },
    {
      "midi": 62,
      "hit": false,
      "t": 46339.26100000013,
      "d": 267.8570000000036,
      "v": 127
    },
    {
      "midi": 64,
      "hit": false,
      "t": 46339.26100000013,
      "d": 267.8570000000036,
      "v": 127
    },
    {
      "midi": 73,
      "hit": false,
      "t": 46607.11800000013,
      "d": 267.8570000000036,
      "v": 127
    },
    {
      "midi": 64,
      "hit": false,
      "t": 46874.97500000014,
      "d": 267.8570000000036,
      "v": 127
    },
    {
      "midi": 69,
      "hit": false,
      "t": 46874.97500000014,
      "d": 267.8570000000036,
      "v": 127
    },
    {
      "midi": 73,
      "hit": false,
      "t": 47142.83200000014,
      "d": 267.8570000000036,
      "v": 127
    },
    {
      "midi": 64,
      "hit": false,
      "t": 47410.689000000144,
      "d": 267.8570000000036,
      "v": 127
    },
    {
      "midi": 69,
      "hit": false,
      "t": 47410.689000000144,
      "d": 267.8570000000036,
      "v": 127
    },
    {
      "midi": 74,
      "hit": false,
      "t": 47678.54600000015,
      "d": 267.8570000000036,
      "v": 127
    },
    {
      "midi": 66,
      "hit": false,
      "t": 47946.40300000015,
      "d": 267.8570000000036,
      "v": 127
    },
    {
      "midi": 71,
      "hit": false,
      "t": 47946.40300000015,
      "d": 267.8570000000036,
      "v": 127
    },
    {
      "midi": 73,
      "hit": false,
      "t": 48214.260000000155,
      "d": 267.8570000000036,
      "v": 127
    },
    {
      "midi": 64,
      "hit": false,
      "t": 48482.11700000016,
      "d": 267.8570000000036,
      "v": 127
    },
    {
      "midi": 69,
      "hit": false,
      "t": 48482.11700000016,
      "d": 267.8570000000036,
      "v": 127
    },
    {
      "midi": 73,
      "hit": false,
      "t": 48749.97400000016,
      "d": 267.8570000000036,
      "v": 127
    },
    {
      "midi": 64,
      "hit": false,
      "t": 49017.831000000166,
      "d": 267.8570000000036,
      "v": 127
    },
    {
      "midi": 69,
      "hit": false,
      "t": 49017.831000000166,
      "d": 267.8570000000036,
      "v": 127
    },
    {
      "midi": 71,
      "hit": false,
      "t": 49285.68800000017,
      "d": 267.8570000000036,
      "v": 127
    },
    {
      "midi": 62,
      "hit": false,
      "t": 49553.54500000017,
      "d": 267.8570000000036,
      "v": 127
    },
    {
      "midi": 68,
      "hit": false,
      "t": 49553.54500000017,
      "d": 267.8570000000036,
      "v": 127
    },
    {
      "midi": 69,
      "hit": false,
      "t": 49821.40200000018,
      "d": 267.8570000000036,
      "v": 127
    },
    {
      "midi": 61,
      "hit": false,
      "t": 50089.25900000018,
      "d": 267.8570000000036,
      "v": 127
    },
    {
      "midi": 64,
      "hit": false,
      "t": 50089.25900000018,
      "d": 267.8570000000036,
      "v": 127
    },
    {
      "midi": 57,
      "hit": false,
      "t": 50357.116000000184,
      "d": 1071.4279999999999,
      "v": 127
    },
    {
      "midi": 76,
      "hit": false,
      "t": 51428.54400000018,
      "d": 535.7139999999999,
      "v": 127
    },
    {
      "midi": 74,
      "hit": false,
      "t": 51964.25800000018,
      "d": 535.7139999999999,
      "v": 127
    },
    {
      "midi": 76,
      "hit": false,
      "t": 52499.97200000018,
      "d": 535.7139999999999,
      "v": 127
    },
    {
      "midi": 78,
      "hit": false,
      "t": 53035.68600000018,
      "d": 1071.4279999999999,
      "v": 127
    },
    {
      "midi": 76,
      "hit": false,
      "t": 54107.11400000018,
      "d": 267.8570000000036,
      "v": 127
    },
    {
      "midi": 78,
      "hit": false,
      "t": 54107.11400000018,
      "d": 267.8570000000036,
      "v": 127
    },
    {
      "midi": 78,
      "hit": false,
      "t": 54374.97100000019,
      "d": 267.8570000000036,
      "v": 127
    },
    {
      "midi": 80,
      "hit": false,
      "t": 54374.97100000019,
      "d": 267.8570000000036,
      "v": 127
    },
    {
      "midi": 81,
      "hit": false,
      "t": 54642.82800000019,
      "d": 535.7139999999999,
      "v": 127
    },
    {
      "midi": 80,
      "hit": false,
      "t": 55178.54200000019,
      "d": 535.7139999999999,
      "v": 127
    },
    {
      "midi": 78,
      "hit": false,
      "t": 55714.25600000019,
      "d": 535.7139999999999,
      "v": 127
    },
    {
      "midi": 76,
      "hit": false,
      "t": 56249.97000000019,
      "d": 1071.4279999999999,
      "v": 127
    },
    {
      "midi": 71,
      "hit": false,
      "t": 57321.39800000019,
      "d": 267.8570000000036,
      "v": 127
    },
    {
      "midi": 73,
      "hit": false,
      "t": 57321.39800000019,
      "d": 267.8570000000036,
      "v": 127
    },
    {
      "midi": 73,
      "hit": false,
      "t": 57589.255000000194,
      "d": 267.8570000000036,
      "v": 127
    },
    {
      "midi": 74,
      "hit": false,
      "t": 57589.255000000194,
      "d": 267.8570000000036,
      "v": 127
    },
    {
      "midi": 76,
      "hit": false,
      "t": 57857.1120000002,
      "d": 535.7139999999999,
      "v": 127
    },
    {
      "midi": 73,
      "hit": false,
      "t": 58392.8260000002,
      "d": 803.5710000000036,
      "v": 127
    },
    {
      "midi": 69,
      "hit": false,
      "t": 59196.3970000002,
      "d": 267.8570000000036,
      "v": 127
    },
    {
      "midi": 76,
      "hit": false,
      "t": 59464.254000000205,
      "d": 535.7139999999999,
      "v": 127
    },
    {
      "midi": 74,
      "hit": false,
      "t": 59999.968000000204,
      "d": 803.5710000000036,
      "v": 127
    },
    {
      "midi": 71,
      "hit": false,
      "t": 60803.53900000021,
      "d": 267.8570000000036,
      "v": 127
    },
    {
      "midi": 76,
      "hit": false,
      "t": 61071.39600000021,
      "d": 535.7139999999999,
      "v": 127
    },
    {
      "midi": 73,
      "hit": false,
      "t": 61607.11000000021,
      "d": 535.7139999999999,
      "v": 127
    },
    {
      "midi": 69,
      "hit": false,
      "t": 62142.82400000021,
      "d": 535.7139999999999,
      "v": 127
    },
    {
      "midi": 69,
      "hit": false,
      "t": 62678.53800000021,
      "d": 1071.4279999999999,
      "v": 127
    },
    {
      "midi": 73,
      "hit": false,
      "t": 62678.53800000021,
      "d": 1071.4279999999999,
      "v": 127
    },
    {
      "midi": 68,
      "hit": false,
      "t": 63749.96600000021,
      "d": 535.7139999999999,
      "v": 127
    },
    {
      "midi": 71,
      "hit": false,
      "t": 63749.96600000021,
      "d": 535.7139999999999,
      "v": 127
    },
    {
      "midi": 73,
      "hit": false,
      "t": 64285.68000000021,
      "d": 535.7139999999999,
      "v": 127
    },
    {
      "midi": 73,
      "hit": false,
      "t": 64821.39400000021,
      "d": 535.7139999999999,
      "v": 127
    },
    {
      "midi": 74,
      "hit": false,
      "t": 65357.10800000021,
      "d": 267.8570000000036,
      "v": 127
    },
    {
      "midi": 73,
      "hit": false,
      "t": 65624.96500000021,
      "d": 267.8570000000036,
      "v": 127
    },
    {
      "midi": 74,
      "hit": false,
      "t": 65624.96500000021,
      "d": 267.8570000000036,
      "v": 127
    },
    {
      "midi": 76,
      "hit": false,
      "t": 65892.82200000022,
      "d": 1071.4279999999999,
      "v": 127
    },
    {
      "midi": 76,
      "hit": false,
      "t": 66964.25000000022,
      "d": 267.8570000000036,
      "v": 127
    },
    {
      "midi": 78,
      "hit": false,
      "t": 66964.25000000022,
      "d": 267.8570000000036,
      "v": 127
    },
    {
      "midi": 73,
      "hit": false,
      "t": 67232.10700000022,
      "d": 267.8570000000036,
      "v": 127
    },
    {
      "midi": 74,
      "hit": false,
      "t": 67232.10700000022,
      "d": 267.8570000000036,
      "v": 127
    },
    {
      "midi": 71,
      "hit": false,
      "t": 67499.96400000023,
      "d": 535.7140000000072,
      "v": 127
    },
    {
      "midi": 71,
      "hit": false,
      "t": 68035.67800000023,
      "d": 535.7140000000072,
      "v": 127
    },
    {
      "midi": 73,
      "hit": false,
      "t": 68571.39200000024,
      "d": 267.8570000000036,
      "v": 127
    },
    {
      "midi": 71,
      "hit": false,
      "t": 68839.24900000024,
      "d": 267.8570000000036,
      "v": 127
    },
    {
      "midi": 73,
      "hit": false,
      "t": 68839.24900000024,
      "d": 267.8570000000036,
      "v": 127
    },
    {
      "midi": 74,
      "hit": false,
      "t": 69107.10600000025,
      "d": 1071.4279999999999,
      "v": 127
    },
    {
      "midi": 74,
      "hit": false,
      "t": 70178.53400000025,
      "d": 267.8570000000036,
      "v": 127
    },
    {
      "midi": 76,
      "hit": false,
      "t": 70178.53400000025,
      "d": 267.8570000000036,
      "v": 127
    },
    {
      "midi": 71,
      "hit": false,
      "t": 70446.39100000025,
      "d": 267.8570000000036,
      "v": 127
    },
    {
      "midi": 73,
      "hit": false,
      "t": 70446.39100000025,
      "d": 267.8570000000036,
      "v": 127
    },
    {
      "midi": 69,
      "hit": false,
      "t": 70714.24800000025,
      "d": 535.7140000000072,
      "v": 127
    },
    {
      "midi": 69,
      "hit": false,
      "t": 71249.96200000026,
      "d": 535.7140000000072,
      "v": 127
    },
    {
      "midi": 71,
      "hit": false,
      "t": 71785.67600000027,
      "d": 267.8570000000036,
      "v": 127
    },
    {
      "midi": 69,
      "hit": false,
      "t": 72053.53300000027,
      "d": 267.8570000000036,
      "v": 127
    },
    {
      "midi": 71,
      "hit": false,
      "t": 72053.53300000027,
      "d": 267.8570000000036,
      "v": 127
    },
    {
      "midi": 73,
      "hit": false,
      "t": 72321.39000000028,
      "d": 535.7140000000072,
      "v": 127
    },
    {
      "midi": 73,
      "hit": false,
      "t": 72857.10400000028,
      "d": 535.7140000000072,
      "v": 127
    },
    {
      "midi": 74,
      "hit": false,
      "t": 73392.81800000029,
      "d": 267.8570000000036,
      "v": 127
    },
    {
      "midi": 73,
      "hit": false,
      "t": 73660.6750000003,
      "d": 267.8570000000036,
      "v": 127
    },
    {
      "midi": 74,
      "hit": false,
      "t": 73660.6750000003,
      "d": 267.8570000000036,
      "v": 127
    },
    {
      "midi": 73,
      "hit": false,
      "t": 73928.5320000003,
      "d": 535.7140000000072,
      "v": 127
    },
    {
      "midi": 73,
      "hit": false,
      "t": 74464.2460000003,
      "d": 535.7140000000072,
      "v": 127
    },
    {
      "midi": 71,
      "hit": false,
      "t": 74999.96000000031,
      "d": 267.8570000000036,
      "v": 127
    },
    {
      "midi": 69,
      "hit": false,
      "t": 75267.81700000032,
      "d": 267.8570000000036,
      "v": 127
    },
    {
      "midi": 71,
      "hit": false,
      "t": 75267.81700000032,
      "d": 267.8570000000036,
      "v": 127
    },
    {
      "midi": 68,
      "hit": false,
      "t": 75535.67400000032,
      "d": 535.7140000000072,
      "v": 127
    },
    {
      "midi": 71,
      "hit": false,
      "t": 75535.67400000032,
      "d": 535.7140000000072,
      "v": 127
    },
    {
      "midi": 72,
      "hit": false,
      "t": 76071.38800000033,
      "d": 535.7140000000072,
      "v": 127
    },
    {
      "midi": 69,
      "hit": false,
      "t": 76607.10200000033,
      "d": 535.7140000000072,
      "v": 127
    },
    {
      "midi": 73,
      "hit": false,
      "t": 76607.10200000033,
      "d": 535.7140000000072,
      "v": 127
    },
    {
      "midi": 73,
      "hit": false,
      "t": 77142.81600000034,
      "d": 267.8570000000036,
      "v": 127
    },
    {
      "midi": 64,
      "hit": false,
      "t": 77410.67300000034,
      "d": 267.8570000000036,
      "v": 127
    },
    {
      "midi": 69,
      "hit": false,
      "t": 77410.67300000034,
      "d": 267.8570000000036,
      "v": 127
    },
    {
      "midi": 73,
      "hit": false,
      "t": 77678.53000000035,
      "d": 267.8570000000036,
      "v": 127
    },
    {
      "midi": 64,
      "hit": false,
      "t": 77946.38700000035,
      "d": 267.8570000000036,
      "v": 127
    },
    {
      "midi": 69,
      "hit": false,
      "t": 77946.38700000035,
      "d": 267.8570000000036,
      "v": 127
    },
    {
      "midi": 74,
      "hit": false,
      "t": 78214.24400000036,
      "d": 267.8570000000036,
      "v": 127
    },
    {
      "midi": 64,
      "hit": false,
      "t": 78482.10100000036,
      "d": 267.8570000000036,
      "v": 127
    },
    {
      "midi": 68,
      "hit": false,
      "t": 78482.10100000036,
      "d": 267.8570000000036,
      "v": 127
    },
    {
      "midi": 76,
      "hit": false,
      "t": 78749.95800000036,
      "d": 267.8570000000036,
      "v": 127
    },
    {
      "midi": 69,
      "hit": false,
      "t": 79017.81500000037,
      "d": 267.8570000000036,
      "v": 127
    },
    {
      "midi": 73,
      "hit": false,
      "t": 79017.81500000037,
      "d": 267.8570000000036,
      "v": 127
    },
    {
      "midi": 76,
      "hit": false,
      "t": 79285.67200000037,
      "d": 267.8570000000036,
      "v": 127
    },
    {
      "midi": 69,
      "hit": false,
      "t": 79553.52900000037,
      "d": 267.8570000000036,
      "v": 127
    },
    {
      "midi": 73,
      "hit": false,
      "t": 79553.52900000037,
      "d": 267.8570000000036,
      "v": 127
    },
    {
      "midi": 78,
      "hit": false,
      "t": 79821.38600000038,
      "d": 267.8570000000036,
      "v": 127
    },
    {
      "midi": 69,
      "hit": false,
      "t": 80089.24300000038,
      "d": 267.8570000000036,
      "v": 127
    },
    {
      "midi": 71,
      "hit": false,
      "t": 80089.24300000038,
      "d": 267.8570000000036,
      "v": 127
    },
    {
      "midi": 73,
      "hit": false,
      "t": 80357.10000000038,
      "d": 267.8570000000036,
      "v": 127
    },
    {
      "midi": 64,
      "hit": false,
      "t": 80624.95700000039,
      "d": 267.8570000000036,
      "v": 127
    },
    {
      "midi": 69,
      "hit": false,
      "t": 80624.95700000039,
      "d": 267.8570000000036,
      "v": 127
    },
    {
      "midi": 73,
      "hit": false,
      "t": 80892.81400000039,
      "d": 267.8570000000036,
      "v": 127
    },
    {
      "midi": 64,
      "hit": false,
      "t": 81160.6710000004,
      "d": 267.8570000000036,
      "v": 127
    },
    {
      "midi": 69,
      "hit": false,
      "t": 81160.6710000004,
      "d": 267.8570000000036,
      "v": 127
    },
    {
      "midi": 71,
      "hit": false,
      "t": 81428.5280000004,
      "d": 267.8570000000036,
      "v": 127
    },
    {
      "midi": 62,
      "hit": false,
      "t": 81696.3850000004,
      "d": 267.8570000000036,
      "v": 127
    },
    {
      "midi": 68,
      "hit": false,
      "t": 81696.3850000004,
      "d": 267.8570000000036,
      "v": 127
    },
    {
      "midi": 69,
      "hit": false,
      "t": 81964.2420000004,
      "d": 267.8570000000036,
      "v": 127
    },
    {
      "midi": 61,
      "hit": false,
      "t": 82232.09900000041,
      "d": 267.8570000000036,
      "v": 127
    },
    {
      "midi": 64,
      "hit": false,
      "t": 82232.09900000041,
      "d": 267.8570000000036,
      "v": 127
    },
    {
      "midi": 57,
      "hit": false,
      "t": 82499.95600000041,
      "d": 1071.4279999999999,
      "v": 127
    },
    {
      "midi": 76,
      "hit": false,
      "t": 83571.38400000041,
      "d": 535.7140000000072,
      "v": 127
    },
    {
      "midi": 74,
      "hit": false,
      "t": 84107.09800000042,
      "d": 535.7140000000072,
      "v": 127
    },
    {
      "midi": 76,
      "hit": false,
      "t": 84642.81200000043,
      "d": 535.7140000000072,
      "v": 127
    },
    {
      "midi": 78,
      "hit": false,
      "t": 85178.52600000043,
      "d": 1071.4279999999999,
      "v": 127
    },
    {
      "midi": 76,
      "hit": false,
      "t": 86249.95400000043,
      "d": 267.8570000000036,
      "v": 127
    },
    {
      "midi": 78,
      "hit": false,
      "t": 86249.95400000043,
      "d": 267.8570000000036,
      "v": 127
    },
    {
      "midi": 78,
      "hit": false,
      "t": 86517.81100000044,
      "d": 267.8570000000036,
      "v": 127
    },
    {
      "midi": 80,
      "hit": false,
      "t": 86517.81100000044,
      "d": 267.8570000000036,
      "v": 127
    },
    {
      "midi": 81,
      "hit": false,
      "t": 86785.66800000044,
      "d": 535.7140000000072,
      "v": 127
    },
    {
      "midi": 80,
      "hit": false,
      "t": 87321.38200000045,
      "d": 535.7140000000072,
      "v": 127
    },
    {
      "midi": 78,
      "hit": false,
      "t": 87857.09600000046,
      "d": 535.7140000000072,
      "v": 127
    },
    {
      "midi": 76,
      "hit": false,
      "t": 88392.81000000046,
      "d": 1071.4279999999999,
      "v": 127
    },
    {
      "midi": 71,
      "hit": false,
      "t": 89464.23800000046,
      "d": 267.8570000000036,
      "v": 127
    },
    {
      "midi": 73,
      "hit": false,
      "t": 89464.23800000046,
      "d": 267.8570000000036,
      "v": 127
    },
    {
      "midi": 73,
      "hit": false,
      "t": 89732.09500000047,
      "d": 267.8570000000036,
      "v": 127
    },
    {
      "midi": 74,
      "hit": false,
      "t": 89732.09500000047,
      "d": 267.8570000000036,
      "v": 127
    },
    {
      "midi": 76,
      "hit": false,
      "t": 89999.95200000047,
      "d": 535.7140000000072,
      "v": 127
    },
    {
      "midi": 73,
      "hit": false,
      "t": 90535.66600000048,
      "d": 803.5709999999963,
      "v": 127
    },
    {
      "midi": 69,
      "hit": false,
      "t": 91339.23700000047,
      "d": 267.8570000000036,
      "v": 127
    },
    {
      "midi": 76,
      "hit": false,
      "t": 91607.09400000048,
      "d": 535.7140000000072,
      "v": 127
    },
    {
      "midi": 74,
      "hit": false,
      "t": 92142.80800000048,
      "d": 803.5709999999963,
      "v": 127
    },
    {
      "midi": 71,
      "hit": false,
      "t": 92946.37900000048,
      "d": 267.8570000000036,
      "v": 127
    },
    {
      "midi": 76,
      "hit": false,
      "t": 93214.23600000048,
      "d": 535.7140000000072,
      "v": 127
    },
    {
      "midi": 73,
      "hit": false,
      "t": 93749.95000000049,
      "d": 535.7140000000072,
      "v": 127
    },
    {
      "midi": 69,
      "hit": false,
      "t": 94285.6640000005,
      "d": 535.7140000000072,
      "v": 127
    },
    {
      "midi": 69,
      "hit": false,
      "t": 94821.3780000005,
      "d": 1071.4279999999999,
      "v": 127
    },
    {
      "midi": 73,
      "hit": false,
      "t": 94821.3780000005,
      "d": 1071.4279999999999,
      "v": 127
    },
    {
      "midi": 68,
      "hit": false,
      "t": 95892.8060000005,
      "d": 535.7140000000072,
      "v": 127
    },
    {
      "midi": 71,
      "hit": false,
      "t": 95892.8060000005,
      "d": 535.7140000000072,
      "v": 127
    },
    {
      "midi": 73,
      "hit": false,
      "t": 96428.52000000051,
      "d": 535.7140000000072,
      "v": 127
    },
    {
      "midi": 73,
      "hit": false,
      "t": 96964.23400000052,
      "d": 535.7140000000072,
      "v": 127
    },
    {
      "midi": 74,
      "hit": false,
      "t": 97499.94800000053,
      "d": 267.8570000000036,
      "v": 127
    },
    {
      "midi": 73,
      "hit": false,
      "t": 97767.80500000053,
      "d": 267.8570000000036,
      "v": 127
    },
    {
      "midi": 74,
      "hit": false,
      "t": 97767.80500000053,
      "d": 267.8570000000036,
      "v": 127
    },
    {
      "midi": 76,
      "hit": false,
      "t": 98035.66200000054,
      "d": 1071.4279999999999,
      "v": 127
    },
    {
      "midi": 76,
      "hit": false,
      "t": 99107.09000000053,
      "d": 267.8570000000036,
      "v": 127
    },
    {
      "midi": 78,
      "hit": false,
      "t": 99107.09000000053,
      "d": 267.8570000000036,
      "v": 127
    },
    {
      "midi": 73,
      "hit": false,
      "t": 99374.94700000054,
      "d": 267.8570000000036,
      "v": 127
    },
    {
      "midi": 74,
      "hit": false,
      "t": 99374.94700000054,
      "d": 267.8570000000036,
      "v": 127
    },
    {
      "midi": 71,
      "hit": false,
      "t": 99642.80400000054,
      "d": 535.7140000000072,
      "v": 127
    },
    {
      "midi": 71,
      "hit": false,
      "t": 100178.51800000055,
      "d": 535.7140000000072,
      "v": 127
    },
    {
      "midi": 73,
      "hit": false,
      "t": 100714.23200000056,
      "d": 267.8570000000036,
      "v": 127
    },
    {
      "midi": 71,
      "hit": false,
      "t": 100982.08900000056,
      "d": 267.8570000000036,
      "v": 127
    },
    {
      "midi": 73,
      "hit": false,
      "t": 100982.08900000056,
      "d": 267.8570000000036,
      "v": 127
    },
    {
      "midi": 74,
      "hit": false,
      "t": 101249.94600000056,
      "d": 1071.4279999999999,
      "v": 127
    },
    {
      "midi": 74,
      "hit": false,
      "t": 102321.37400000056,
      "d": 267.8570000000036,
      "v": 127
    },
    {
      "midi": 76,
      "hit": false,
      "t": 102321.37400000056,
      "d": 267.8570000000036,
      "v": 127
    },
    {
      "midi": 71,
      "hit": false,
      "t": 102589.23100000057,
      "d": 267.8570000000036,
      "v": 127
    },
    {
      "midi": 73,
      "hit": false,
      "t": 102589.23100000057,
      "d": 267.8570000000036,
      "v": 127
    },
    {
      "midi": 69,
      "hit": false,
      "t": 102857.08800000057,
      "d": 535.7140000000072,
      "v": 127
    },
    {
      "midi": 69,
      "hit": false,
      "t": 103392.80200000058,
      "d": 535.7140000000072,
      "v": 127
    },
    {
      "midi": 71,
      "hit": false,
      "t": 103928.51600000059,
      "d": 267.8570000000036,
      "v": 127
    },
    {
      "midi": 69,
      "hit": false,
      "t": 104196.37300000059,
      "d": 267.8570000000036,
      "v": 127
    },
    {
      "midi": 71,
      "hit": false,
      "t": 104196.37300000059,
      "d": 267.8570000000036,
      "v": 127
    },
    {
      "midi": 73,
      "hit": false,
      "t": 104464.23000000059,
      "d": 535.7140000000072,
      "v": 127
    },
    {
      "midi": 73,
      "hit": false,
      "t": 104999.9440000006,
      "d": 535.7140000000072,
      "v": 127
    },
    {
      "midi": 74,
      "hit": false,
      "t": 105535.6580000006,
      "d": 267.8570000000036,
      "v": 127
    },
    {
      "midi": 73,
      "hit": false,
      "t": 105803.51500000061,
      "d": 267.8570000000036,
      "v": 127
    },
    {
      "midi": 74,
      "hit": false,
      "t": 105803.51500000061,
      "d": 267.8570000000036,
      "v": 127
    },
    {
      "midi": 73,
      "hit": false,
      "t": 106071.37200000061,
      "d": 535.7140000000072,
      "v": 127
    },
    {
      "midi": 73,
      "hit": false,
      "t": 106607.08600000062,
      "d": 535.7140000000072,
      "v": 127
    },
    {
      "midi": 71,
      "hit": false,
      "t": 107142.80000000063,
      "d": 267.8570000000036,
      "v": 127
    },
    {
      "midi": 69,
      "hit": false,
      "t": 107410.65700000063,
      "d": 267.8570000000036,
      "v": 127
    },
    {
      "midi": 71,
      "hit": false,
      "t": 107410.65700000063,
      "d": 267.8570000000036,
      "v": 127
    },
    {
      "midi": 68,
      "hit": false,
      "t": 107678.51400000064,
      "d": 535.7140000000072,
      "v": 127
    },
    {
      "midi": 71,
      "hit": false,
      "t": 107678.51400000064,
      "d": 535.7140000000072,
      "v": 127
    },
    {
      "midi": 72,
      "hit": false,
      "t": 108214.22800000064,
      "d": 535.7140000000072,
      "v": 127
    },
    {
      "midi": 69,
      "hit": false,
      "t": 108749.94200000065,
      "d": 535.7140000000072,
      "v": 127
    },
    {
      "midi": 73,
      "hit": false,
      "t": 108749.94200000065,
      "d": 535.7140000000072,
      "v": 127
    },
    {
      "midi": 73,
      "hit": false,
      "t": 109285.65600000066,
      "d": 267.8570000000036,
      "v": 127
    },
    {
      "midi": 64,
      "hit": false,
      "t": 109553.51300000066,
      "d": 267.8570000000036,
      "v": 127
    },
    {
      "midi": 69,
      "hit": false,
      "t": 109553.51300000066,
      "d": 267.8570000000036,
      "v": 127
    },
    {
      "midi": 73,
      "hit": false,
      "t": 109821.37000000066,
      "d": 267.8570000000036,
      "v": 127
    },
    {
      "midi": 64,
      "hit": false,
      "t": 110089.22700000067,
      "d": 267.8570000000036,
      "v": 127
    },
    {
      "midi": 69,
      "hit": false,
      "t": 110089.22700000067,
      "d": 267.8570000000036,
      "v": 127
    },
    {
      "midi": 74,
      "hit": false,
      "t": 110357.08400000067,
      "d": 267.8570000000036,
      "v": 127
    },
    {
      "midi": 64,
      "hit": false,
      "t": 110624.94100000068,
      "d": 267.8570000000036,
      "v": 127
    },
    {
      "midi": 68,
      "hit": false,
      "t": 110624.94100000068,
      "d": 267.8570000000036,
      "v": 127
    },
    {
      "midi": 76,
      "hit": false,
      "t": 110892.79800000068,
      "d": 267.8570000000036,
      "v": 127
    },
    {
      "midi": 69,
      "hit": false,
      "t": 111160.65500000068,
      "d": 267.8570000000036,
      "v": 127
    },
    {
      "midi": 73,
      "hit": false,
      "t": 111160.65500000068,
      "d": 267.8570000000036,
      "v": 127
    },
    {
      "midi": 76,
      "hit": false,
      "t": 111428.51200000069,
      "d": 267.8570000000036,
      "v": 127
    },
    {
      "midi": 69,
      "hit": false,
      "t": 111696.36900000069,
      "d": 267.8570000000036,
      "v": 127
    },
    {
      "midi": 73,
      "hit": false,
      "t": 111696.36900000069,
      "d": 267.8570000000036,
      "v": 127
    },
    {
      "midi": 78,
      "hit": false,
      "t": 111964.2260000007,
      "d": 267.8570000000036,
      "v": 127
    },
    {
      "midi": 69,
      "hit": false,
      "t": 112232.0830000007,
      "d": 267.8570000000036,
      "v": 127
    },
    {
      "midi": 71,
      "hit": false,
      "t": 112232.0830000007,
      "d": 267.8570000000036,
      "v": 127
    },
    {
      "midi": 73,
      "hit": false,
      "t": 112499.9400000007,
      "d": 267.8570000000036,
      "v": 127
    },
    {
      "midi": 64,
      "hit": false,
      "t": 112767.7970000007,
      "d": 267.8570000000036,
      "v": 127
    },
    {
      "midi": 69,
      "hit": false,
      "t": 112767.7970000007,
      "d": 267.8570000000036,
      "v": 127
    },
    {
      "midi": 73,
      "hit": false,
      "t": 113035.65400000071,
      "d": 267.8570000000036,
      "v": 127
    },
    {
      "midi": 64,
      "hit": false,
      "t": 113303.51100000071,
      "d": 267.8570000000036,
      "v": 127
    },
    {
      "midi": 69,
      "hit": false,
      "t": 113303.51100000071,
      "d": 267.8570000000036,
      "v": 127
    },
    {
      "midi": 71,
      "hit": false,
      "t": 113571.36800000072,
      "d": 267.8570000000036,
      "v": 127
    },
    {
      "midi": 62,
      "hit": false,
      "t": 113839.22500000072,
      "d": 267.8570000000036,
      "v": 127
    },
    {
      "midi": 68,
      "hit": false,
      "t": 113839.22500000072,
      "d": 267.8570000000036,
      "v": 127
    },
    {
      "midi": 69,
      "hit": false,
      "t": 114107.08200000072,
      "d": 267.8570000000036,
      "v": 127
    },
    {
      "midi": 61,
      "hit": false,
      "t": 114374.93900000073,
      "d": 267.8570000000036,
      "v": 127
    },
    {
      "midi": 64,
      "hit": false,
      "t": 114374.93900000073,
      "d": 267.8570000000036,
      "v": 127
    },
    {
      "midi": 57,
      "hit": false,
      "t": 114642.79600000073,
      "d": 1071.4279999999999,
      "v": 127
    }
  ]
}