{
  "jsonPath": "Classical/Classical/Wolfgang Amadeus Mozart/sonate-opus-kv-331-tema.json",
  "path": "Classical\\Classical\\Wolfgang Amadeus Mozart\\Sonate Opus KV 331 - Tema.mid",
  "name": "Sonate Opus KV 331 - Tema",
  "difficulty": "Advanced",
  "bpm": 56.000029866682596,
  "notes": [
    {
      "midi": 73,
      "hit": false,
      "t": 0,
      "d": 803.571,
      "v": 127
    },
    {
      "midi": 57,
      "hit": false,
      "t": 0,
      "d": 803.571,
      "v": 127
    },
    {
      "midi": 64,
      "hit": false,
      "t": 0,
      "d": 803.571,
      "v": 127
    },
    {
      "midi": 74,
      "hit": false,
      "t": 803.571,
      "d": 267.8570000000001,
      "v": 127
    },
    {
      "midi": 59,
      "hit": false,
      "t": 803.571,
      "d": 267.8570000000001,
      "v": 127
    },
    {
      "midi": 73,
      "hit": false,
      "t": 1071.428,
      "d": 535.7140000000002,
      "v": 127
    },
    {
      "midi": 57,
      "hit": false,
      "t": 1071.428,
      "d": 535.7140000000002,
      "v": 127
    },
    {
      "midi": 64,
      "hit": false,
      "t": 1071.428,
      "d": 535.7140000000002,
      "v": 127
    },
    {
      "midi": 76,
      "hit": false,
      "t": 1607.1420000000003,
      "d": 1071.4280000000003,
      "v": 127
    },
    {
      "midi": 61,
      "hit": false,
      "t": 1607.1420000000003,
      "d": 1071.4280000000003,
      "v": 127
    },
    {
      "midi": 64,
      "hit": false,
      "t": 1607.1420000000003,
      "d": 1071.4280000000003,
      "v": 127
    },
    {
      "midi": 76,
      "hit": false,
      "t": 2678.5700000000006,
      "d": 535.7139999999999,
      "v": 127
    },
    {
      "midi": 61,
      "hit": false,
      "t": 2678.5700000000006,
      "d": 535.7139999999999,
      "v": 127
    },
    {
      "midi": 64,
      "hit": false,
      "t": 2678.5700000000006,
      "d": 535.7139999999999,
      "v": 127
    },
    {
      "midi": 71,
      "hit": false,
      "t": 3214.2840000000006,
      "d": 803.5709999999999,
      "v": 127
    },
    {
      "midi": 56,
      "hit": false,
      "t": 3214.2840000000006,
      "d": 803.5709999999999,
      "v": 127
    },
    {
      "midi": 64,
      "hit": false,
      "t": 3214.2840000000006,
      "d": 803.5709999999999,
      "v": 127
    },
    {
      "midi": 73,
      "hit": false,
      "t": 4017.8550000000005,
      "d": 267.85699999999997,
      "v": 127
    },
    {
      "midi": 57,
      "hit": false,
      "t": 4017.8550000000005,
      "d": 267.85699999999997,
      "v": 127
    },
    {
      "midi": 71,
      "hit": false,
      "t": 4285.712,
      "d": 535.7139999999999,
      "v": 127
    },
    {
      "midi": 56,
      "hit": false,
      "t": 4285.712,
      "d": 535.7139999999999,
      "v": 127
    },
    {
      "midi": 64,
      "hit": false,
      "t": 4285.712,
      "d": 535.7139999999999,
      "v": 127
    },
    {
      "midi": 74,
      "hit": false,
      "t": 4821.426,
      "d": 1071.4279999999999,
      "v": 127
    },
    {
      "midi": 59,
      "hit": false,
      "t": 4821.426,
      "d": 1071.4279999999999,
      "v": 127
    },
    {
      "midi": 64,
      "hit": false,
      "t": 4821.426,
      "d": 1071.4279999999999,
      "v": 127
    },
    {
      "midi": 74,
      "hit": false,
      "t": 5892.854,
      "d": 535.7139999999999,
      "v": 127
    },
    {
      "midi": 59,
      "hit": false,
      "t": 5892.854,
      "d": 535.7139999999999,
      "v": 127
    },
    {
      "midi": 64,
      "hit": false,
      "t": 5892.854,
      "d": 535.7139999999999,
      "v": 127
    },
    {
      "midi": 69,
      "hit": false,
      "t": 6428.568,
      "d": 1071.4279999999999,
      "v": 127
    },
    {
      "midi": 54,
      "hit": false,
      "t": 6428.568,
      "d": 1071.4279999999999,
      "v": 127
    },
    {
      "midi": 64,
      "hit": false,
      "t": 6428.568,
      "d": 1071.4279999999999,
      "v": 127
    },
    {
      "midi": 69,
      "hit": false,
      "t": 7499.996,
      "d": 535.7139999999999,
      "v": 127
    },
    {
      "midi": 54,
      "hit": false,
      "t": 7499.996,
      "d": 535.7139999999999,
      "v": 127
    },
    {
      "midi": 64,
      "hit": false,
      "t": 7499.996,
      "d": 535.7139999999999,
      "v": 127
    },
    {
      "midi": 71,
      "hit": false,
      "t": 8035.71,
      "d": 1071.4280000000008,
      "v": 127
    },
    {
      "midi": 56,
      "hit": false,
      "t": 8035.71,
      "d": 1071.4280000000008,
      "v": 127
    },
    {
      "midi": 64,
      "hit": false,
      "t": 8035.71,
      "d": 1071.4280000000008,
      "v": 127
    },
    {
      "midi": 71,
      "hit": false,
      "t": 9107.138,
      "d": 535.7139999999999,
      "v": 127
    },
    {
      "midi": 56,
      "hit": false,
      "t": 9107.138,
      "d": 535.7139999999999,
      "v": 127
    },
    {
      "midi": 64,
      "hit": false,
      "t": 9107.138,
      "d": 535.7139999999999,
      "v": 127
    },
    {
      "midi": 73,
      "hit": false,
      "t": 9642.852,
      "d": 1071.4279999999999,
      "v": 127
    },
    {
      "midi": 57,
      "hit": false,
      "t": 9642.852,
      "d": 1071.4279999999999,
      "v": 127
    },
    {
      "midi": 64,
      "hit": false,
      "t": 9642.852,
      "d": 1071.4279999999999,
      "v": 127
    },
    {
      "midi": 71,
      "hit": false,
      "t": 10714.28,
      "d": 267.85699999999997,
      "v": 127
    },
    {
      "midi": 76,
      "hit": false,
      "t": 10714.28,
      "d": 267.85699999999997,
      "v": 127
    },
    {
      "midi": 50,
      "hit": false,
      "t": 10714.28,
      "d": 535.7139999999999,
      "v": 127
    },
    {
      "midi": 74,
      "hit": false,
      "t": 10982.137,
      "d": 267.85699999999997,
      "v": 127
    },
    {
      "midi": 69,
      "hit": false,
      "t": 11249.994,
      "d": 1071.4279999999999,
      "v": 127
    },
    {
      "midi": 73,
      "hit": false,
      "t": 11249.994,
      "d": 1071.4279999999999,
      "v": 127
    },
    {
      "midi": 52,
      "hit": false,
      "t": 11249.994,
      "d": 1607.1419999999998,
      "v": 127
    },
    {
      "midi": 68,
      "hit": false,
      "t": 12321.422,
      "d": 535.7139999999999,
      "v": 127
    },
    {
      "midi": 71,
      "hit": false,
      "t": 12321.422,
      "d": 535.7139999999999,
      "v": 127
    },
    {
      "midi": 73,
      "hit": false,
      "t": 12857.136,
      "d": 803.5709999999999,
      "v": 127
    },
    {
      "midi": 57,
      "hit": false,
      "t": 12857.136,
      "d": 803.5709999999999,
      "v": 127
    },
    {
      "midi": 64,
      "hit": false,
      "t": 12857.136,
      "d": 803.5709999999999,
      "v": 127
    },
    {
      "midi": 74,
      "hit": false,
      "t": 13660.707,
      "d": 267.85699999999997,
      "v": 127
    },
    {
      "midi": 59,
      "hit": false,
      "t": 13660.707,
      "d": 267.85699999999997,
      "v": 127
    },
    {
      "midi": 73,
      "hit": false,
      "t": 13928.564,
      "d": 535.7139999999999,
      "v": 127
    },
    {
      "midi": 57,
      "hit": false,
      "t": 13928.564,
      "d": 535.7139999999999,
      "v": 127
    },
    {
      "midi": 64,
      "hit": false,
      "t": 13928.564,
      "d": 535.7139999999999,
      "v": 127
    },
    {
      "midi": 76,
      "hit": false,
      "t": 14464.278,
      "d": 1071.4279999999999,
      "v": 127
    },
    {
      "midi": 61,
      "hit": false,
      "t": 14464.278,
      "d": 1071.4279999999999,
      "v": 127
    },
    {
      "midi": 64,
      "hit": false,
      "t": 14464.278,
      "d": 1071.4279999999999,
      "v": 127
    },
    {
      "midi": 76,
      "hit": false,
      "t": 15535.706,
      "d": 535.7139999999999,
      "v": 127
    },
    {
      "midi": 61,
      "hit": false,
      "t": 15535.706,
      "d": 535.7139999999999,
      "v": 127
    },
    {
      "midi": 64,
      "hit": false,
      "t": 15535.706,
      "d": 535.7139999999999,
      "v": 127
    },
    {
      "midi": 71,
      "hit": false,
      "t": 16071.42,
      "d": 803.5710000000017,
      "v": 127
    },
    {
      "midi": 56,
      "hit": false,
      "t": 16071.42,
      "d": 803.5710000000017,
      "v": 127
    },
    {
      "midi": 64,
      "hit": false,
      "t": 16071.42,
      "d": 803.5710000000017,
      "v": 127
    },
    {
      "midi": 73,
      "hit": false,
      "t": 16874.991,
      "d": 267.85699999999997,
      "v": 127
    },
    {
      "midi": 57,
      "hit": false,
      "t": 16874.991,
      "d": 267.85699999999997,
      "v": 127
    },
    {
      "midi": 71,
      "hit": false,
      "t": 17142.848,
      "d": 535.7139999999999,
      "v": 127
    },
    {
      "midi": 56,
      "hit": false,
      "t": 17142.848,
      "d": 535.7139999999999,
      "v": 127
    },
    {
      "midi": 64,
      "hit": false,
      "t": 17142.848,
      "d": 535.7139999999999,
      "v": 127
    },
    {
      "midi": 74,
      "hit": false,
      "t": 17678.562,
      "d": 1071.4279999999999,
      "v": 127
    },
    {
      "midi": 59,
      "hit": false,
      "t": 17678.562,
      "d": 1071.4279999999999,
      "v": 127
    },
    {
      "midi": 64,
      "hit": false,
      "t": 17678.562,
      "d": 1071.4279999999999,
      "v": 127
    },
    {
      "midi": 74,
      "hit": false,
      "t": 18749.99,
      "d": 535.7139999999999,
      "v": 127
    },
    {
      "midi": 59,
      "hit": false,
      "t": 18749.99,
      "d": 535.7139999999999,
      "v": 127
    },
    {
      "midi": 64,
      "hit": false,
      "t": 18749.99,
      "d": 535.7139999999999,
      "v": 127
    },
    {
      "midi": 69,
      "hit": false,
      "t": 19285.704,
      "d": 1071.4279999999999,
      "v": 127
    },
    {
      "midi": 54,
      "hit": false,
      "t": 19285.704,
      "d": 1071.4279999999999,
      "v": 127
    },
    {
      "midi": 64,
      "hit": false,
      "t": 19285.704,
      "d": 1071.4279999999999,
      "v": 127
    },
    {
      "midi": 71,
      "hit": false,
      "t": 20357.132,
      "d": 535.7139999999999,
      "v": 127
    },
    {
      "midi": 56,
      "hit": false,
      "t": 20357.132,
      "d": 535.7139999999999,
      "v": 127
    },
    {
      "midi": 64,
      "hit": false,
      "t": 20357.132,
      "d": 535.7139999999999,
      "v": 127
    },
    {
      "midi": 73,
      "hit": false,
      "t": 20892.846,
      "d": 1071.4279999999999,
      "v": 127
    },
    {
      "midi": 57,
      "hit": false,
      "t": 20892.846,
      "d": 1071.4279999999999,
      "v": 127
    },
    {
      "midi": 64,
      "hit": false,
      "t": 20892.846,
      "d": 1071.4279999999999,
      "v": 127
    },
    {
      "midi": 66,
      "hit": false,
      "t": 21964.274,
      "d": 535.7139999999999,
      "v": 127
    },
    {
      "midi": 71,
      "hit": false,
      "t": 21964.274,
      "d": 535.7139999999999,
      "v": 127
    },
    {
      "midi": 74,
      "hit": false,
      "t": 21964.274,
      "d": 535.7139999999999,
      "v": 127
    },
    {
      "midi": 50,
      "hit": false,
      "t": 21964.274,
      "d": 535.7139999999999,
      "v": 127
    },
    {
      "midi": 64,
      "hit": false,
      "t": 22499.988,
      "d": 1071.4279999999999,
      "v": 127
    },
    {
      "midi": 69,
      "hit": false,
      "t": 22499.988,
      "d": 1071.4279999999999,
      "v": 127
    },
    {
      "midi": 73,
      "hit": false,
      "t": 22499.988,
      "d": 1071.4279999999999,
      "v": 127
    },
    {
      "midi": 52,
      "hit": false,
      "t": 22499.988,
      "d": 1071.4279999999999,
      "v": 127
    },
    {
      "midi": 62,
      "hit": false,
      "t": 23571.416,
      "d": 535.7139999999999,
      "v": 127
    },
    {
      "midi": 64,
      "hit": false,
      "t": 23571.416,
      "d": 535.7139999999999,
      "v": 127
    },
    {
      "midi": 68,
      "hit": false,
      "t": 23571.416,
      "d": 535.7139999999999,
      "v": 127
    },
    {
      "midi": 71,
      "hit": false,
      "t": 23571.416,
      "d": 535.7139999999999,
      "v": 127
    },
    {
      "midi": 40,
      "hit": false,
      "t": 23571.416,
      "d": 535.7139999999999,
      "v": 127
    },
    {
      "midi": 61,
      "hit": false,
      "t": 24107.13,
      "d": 1607.1419999999998,
      "v": 127
    },
    {
      "midi": 64,
      "hit": false,
      "t": 24107.13,
      "d": 1607.1419999999998,
      "v": 127
    },
    {
      "midi": 69,
      "hit": false,
      "t": 24107.13,
      "d": 1607.1419999999998,
      "v": 127
    },
    {
      "midi": 45,
      "hit": false,
      "t": 24107.13,
      "d": 1607.1419999999998,
      "v": 127
    },
    {
      "midi": 73,
      "hit": false,
      "t": 25714.272,
      "d": 803.5709999999999,
      "v": 127
    },
    {
      "midi": 57,
      "hit": false,
      "t": 25714.272,
      "d": 803.5709999999999,
      "v": 127
    },
    {
      "midi": 64,
      "hit": false,
      "t": 25714.272,
      "d": 803.5709999999999,
      "v": 127
    },
    {
      "midi": 74,
      "hit": false,
      "t": 26517.843,
      "d": 267.85699999999997,
      "v": 127
    },
    {
      "midi": 59,
      "hit": false,
      "t": 26517.843,
      "d": 267.85699999999997,
      "v": 127
    },
    {
      "midi": 73,
      "hit": false,
      "t": 26785.7,
      "d": 535.7139999999999,
      "v": 127
    },
    {
      "midi": 57,
      "hit": false,
      "t": 26785.7,
      "d": 535.7139999999999,
      "v": 127
    },
    {
      "midi": 64,
      "hit": false,
      "t": 26785.7,
      "d": 535.7139999999999,
      "v": 127
    },
    {
      "midi": 76,
      "hit": false,
      "t": 27321.414,
      "d": 1071.4279999999999,
      "v": 127
    },
    {
      "midi": 61,
      "hit": false,
      "t": 27321.414,
      "d": 1071.4279999999999,
      "v": 127
    },
    {
      "midi": 64,
      "hit": false,
      "t": 27321.414,
      "d": 1071.4279999999999,
      "v": 127
    },
    {
      "midi": 76,
      "hit": false,
      "t": 28392.842,
      "d": 535.7139999999999,
      "v": 127
    },
    {
      "midi": 61,
      "hit": false,
      "t": 28392.842,
      "d": 535.7139999999999,
      "v": 127
    },
    {
      "midi": 64,
      "hit": false,
      "t": 28392.842,
      "d": 535.7139999999999,
      "v": 127
    },
    {
      "midi": 71,
      "hit": false,
      "t": 28928.556,
      "d": 803.5709999999999,
      "v": 127
    },
    {
      "midi": 56,
      "hit": false,
      "t": 28928.556,
      "d": 803.5709999999999,
      "v": 127
    },
    {
      "midi": 64,
      "hit": false,
      "t": 28928.556,
      "d": 803.5709999999999,
      "v": 127
    },
    {
      "midi": 73,
      "hit": false,
      "t": 29732.127,
      "d": 267.85699999999997,
      "v": 127
    },
    {
      "midi": 57,
      "hit": false,
      "t": 29732.127,
      "d": 267.85699999999997,
      "v": 127
    },
    {
      "midi": 71,
      "hit": false,
      "t": 29999.984,
      "d": 535.7139999999999,
      "v": 127
    },
    {
      "midi": 56,
      "hit": false,
      "t": 29999.984,
      "d": 535.7139999999999,
      "v": 127
    },
    {
      "midi": 64,
      "hit": false,
      "t": 29999.984,
      "d": 535.7139999999999,
      "v": 127
    },
    {
      "midi": 74,
      "hit": false,
      "t": 30535.698,
      "d": 1071.4279999999999,
      "v": 127
    },
    {
      "midi": 59,
      "hit": false,
      "t": 30535.698,
      "d": 1071.4279999999999,
      "v": 127
    },
    {
      "midi": 64,
      "hit": false,
      "t": 30535.698,
      "d": 1071.4279999999999,
      "v": 127
    },
    {
      "midi": 74,
      "hit": false,
      "t": 31607.126,
      "d": 535.7139999999999,
      "v": 127
    },
    {
      "midi": 59,
      "hit": false,
      "t": 31607.126,
      "d": 535.7139999999999,
      "v": 127
    },
    {
      "midi": 64,
      "hit": false,
      "t": 31607.126,
      "d": 535.7139999999999,
      "v": 127
    },
    {
      "midi": 69,
      "hit": false,
      "t": 32142.84,
      "d": 1071.4280000000035,
      "v": 127
    },
    {
      "midi": 54,
      "hit": false,
      "t": 32142.84,
      "d": 1071.4280000000035,
      "v": 127
    },
    {
      "midi": 64,
      "hit": false,
      "t": 32142.84,
      "d": 1071.4280000000035,
      "v": 127
    },
    {
      "midi": 69,
      "hit": false,
      "t": 33214.268000000004,
      "d": 535.7139999999999,
      "v": 127
    },
    {
      "midi": 54,
      "hit": false,
      "t": 33214.268000000004,
      "d": 535.7139999999999,
      "v": 127
    },
    {
      "midi": 64,
      "hit": false,
      "t": 33214.268000000004,
      "d": 535.7139999999999,
      "v": 127
    },
    {
      "midi": 71,
      "hit": false,
      "t": 33749.982,
      "d": 1071.4279999999999,
      "v": 127
    },
    {
      "midi": 56,
      "hit": false,
      "t": 33749.982,
      "d": 1071.4279999999999,
      "v": 127
    },
    {
      "midi": 64,
      "hit": false,
      "t": 33749.982,
      "d": 1071.4279999999999,
      "v": 127
    },
    {
      "midi": 71,
      "hit": false,
      "t": 34821.41,
      "d": 535.7139999999999,
      "v": 127
    },
    {
      "midi": 56,
      "hit": false,
      "t": 34821.41,
      "d": 535.7139999999999,
      "v": 127
    },
    {
      "midi": 64,
      "hit": false,
      "t": 34821.41,
      "d": 535.7139999999999,
      "v": 127
    },
    {
      "midi": 73,
      "hit": false,
      "t": 35357.124,
      "d": 1071.4279999999999,
      "v": 127
    },
    {
      "midi": 57,
      "hit": false,
      "t": 35357.124,
      "d": 1071.4279999999999,
      "v": 127
    },
    {
      "midi": 64,
      "hit": false,
      "t": 35357.124,
      "d": 1071.4279999999999,
      "v": 127
    },
    {
      "midi": 71,
      "hit": false,
      "t": 36428.552,
      "d": 267.8570000000036,
      "v": 127
    },
    {
      "midi": 76,
      "hit": false,
      "t": 36428.552,
      "d": 267.8570000000036,
      "v": 127
    },
    {
      "midi": 50,
      "hit": false,
      "t": 36428.552,
      "d": 535.7139999999999,
      "v": 127
    },
    {
      "midi": 74,
      "hit": false,
      "t": 36696.40900000001,
      "d": 267.8570000000036,
      "v": 127
    },
    {
      "midi": 52,
      "hit": false,
      "t": 36964.266,
      "d": 1607.1419999999998,
      "v": 127
    },
    {
      "midi": 69,
      "hit": false,
      "t": 36964.26600000001,
      "d": 1071.4279999999999,
      "v": 127
    },
    {
      "midi": 73,
      "hit": false,
      "t": 36964.26600000001,
      "d": 1071.4279999999999,
      "v": 127
    },
    {
      "midi": 68,
      "hit": false,
      "t": 38035.69400000001,
      "d": 535.7139999999999,
      "v": 127
    },
    {
      "midi": 71,
      "hit": false,
      "t": 38035.69400000001,
      "d": 535.7139999999999,
      "v": 127
    },
    {
      "midi": 57,
      "hit": false,
      "t": 38571.408,
      "d": 803.5710000000036,
      "v": 127
    },
    {
      "midi": 64,
      "hit": false,
      "t": 38571.408,
      "d": 803.5710000000036,
      "v": 127
    },
    {
      "midi": 73,
      "hit": false,
      "t": 38571.40800000001,
      "d": 803.5710000000036,
      "v": 127
    },
    {
      "midi": 59,
      "hit": false,
      "t": 39374.97900000001,
      "d": 267.8570000000036,
      "v": 127
    },
    {
      "midi": 74,
      "hit": false,
      "t": 39374.979000000014,
      "d": 267.8570000000036,
      "v": 127
    },
    {
      "midi": 57,
      "hit": false,
      "t": 39642.83600000001,
      "d": 535.7139999999999,
      "v": 127
    },
    {
      "midi": 64,
      "hit": false,
      "t": 39642.83600000001,
      "d": 535.7139999999999,
      "v": 127
    },
    {
      "midi": 73,
      "hit": false,
      "t": 39642.83600000002,
      "d": 535.7139999999999,
      "v": 127
    },
    {
      "midi": 61,
      "hit": false,
      "t": 40178.55000000001,
      "d": 1071.4279999999999,
      "v": 127
    },
    {
      "midi": 64,
      "hit": false,
      "t": 40178.55000000001,
      "d": 1071.4279999999999,
      "v": 127
    },
    {
      "midi": 76,
      "hit": false,
      "t": 40178.55000000002,
      "d": 1071.4279999999999,
      "v": 127
    },
    {
      "midi": 61,
      "hit": false,
      "t": 41249.97800000001,
      "d": 535.7139999999999,
      "v": 127
    },
    {
      "midi": 64,
      "hit": false,
      "t": 41249.97800000001,
      "d": 535.7139999999999,
      "v": 127
    },
    {
      "midi": 76,
      "hit": false,
      "t": 41249.97800000002,
      "d": 535.7139999999999,
      "v": 127
    },
    {
      "midi": 56,
      "hit": false,
      "t": 41785.69200000001,
      "d": 803.5710000000036,
      "v": 127
    },
    {
      "midi": 64,
      "hit": false,
      "t": 41785.69200000001,
      "d": 803.5710000000036,
      "v": 127
    },
    {
      "midi": 71,
      "hit": false,
      "t": 41785.69200000002,
      "d": 803.5710000000036,
      "v": 127
    },
    {
      "midi": 57,
      "hit": false,
      "t": 42589.26300000001,
      "d": 267.8570000000036,
      "v": 127
    },
    {
      "midi": 73,
      "hit": false,
      "t": 42589.26300000002,
      "d": 267.8570000000036,
      "v": 127
    },
    {
      "midi": 56,
      "hit": false,
      "t": 42857.12000000002,
      "d": 535.7139999999999,
      "v": 127
    },
    {
      "midi": 64,
      "hit": false,
      "t": 42857.12000000002,
      "d": 535.7139999999999,
      "v": 127
    },
    {
      "midi": 71,
      "hit": false,
      "t": 42857.120000000024,
      "d": 535.7139999999999,
      "v": 127
    },
    {
      "midi": 59,
      "hit": false,
      "t": 43392.83400000002,
      "d": 1071.4279999999999,
      "v": 127
    },
    {
      "midi": 64,
      "hit": false,
      "t": 43392.83400000002,
      "d": 1071.4279999999999,
      "v": 127
    },
    {
      "midi": 74,
      "hit": false,
      "t": 43392.834000000024,
      "d": 1071.4279999999999,
      "v": 127
    },
    {
      "midi": 59,
      "hit": false,
      "t": 44464.26200000002,
      "d": 535.7139999999999,
      "v": 127
    },
    {
      "midi": 64,
      "hit": false,
      "t": 44464.26200000002,
      "d": 535.7139999999999,
      "v": 127
    },
    {
      "midi": 74,
      "hit": false,
      "t": 44464.262000000024,
      "d": 535.7139999999999,
      "v": 127
    },
    {
      "midi": 54,
      "hit": false,
      "t": 44999.97600000002,
      "d": 1071.4279999999999,
      "v": 127
    },
    {
      "midi": 64,
      "hit": false,
      "t": 44999.97600000002,
      "d": 1071.4279999999999,
      "v": 127
    },
    {
      "midi": 69,
      "hit": false,
      "t": 44999.976000000024,
      "d": 1071.4279999999999,
      "v": 127
    },
    {
      "midi": 56,
      "hit": false,
      "t": 46071.40400000002,
      "d": 535.7139999999999,
      "v": 127
    },
    {
      "midi": 64,
      "hit": false,
      "t": 46071.40400000002,
      "d": 535.7139999999999,
      "v": 127
    },
    {
      "midi": 71,
      "hit": false,
      "t": 46071.404000000024,
      "d": 535.7139999999999,
      "v": 127
    },
    {
      "midi": 57,
      "hit": false,
      "t": 46607.11800000002,
      "d": 1071.4279999999999,
      "v": 127
    },
    {
      "midi": 64,
      "hit": false,
      "t": 46607.11800000002,
      "d": 1071.4279999999999,
      "v": 127
    },
    {
      "midi": 73,
      "hit": false,
      "t": 46607.118000000024,
      "d": 1071.4279999999999,
      "v": 127
    },
    {
      "midi": 50,
      "hit": false,
      "t": 47678.54600000002,
      "d": 535.7139999999999,
      "v": 127
    },
    {
      "midi": 66,
      "hit": false,
      "t": 47678.546000000024,
      "d": 535.7139999999999,
      "v": 127
    },
    {
      "midi": 71,
      "hit": false,
      "t": 47678.546000000024,
      "d": 535.7139999999999,
      "v": 127
    },
    {
      "midi": 74,
      "hit": false,
      "t": 47678.546000000024,
      "d": 535.7139999999999,
      "v": 127
    },
    {
      "midi": 52,
      "hit": false,
      "t": 48214.26000000002,
      "d": 1071.4279999999999,
      "v": 127
    },
    {
      "midi": 64,
      "hit": false,
      "t": 48214.260000000024,
      "d": 1071.4279999999999,
      "v": 127
    },
    {
      "midi": 69,
      "hit": false,
      "t": 48214.260000000024,
      "d": 1071.4279999999999,
      "v": 127
    },
    {
      "midi": 73,
      "hit": false,
      "t": 48214.260000000024,
      "d": 1071.4279999999999,
      "v": 127
    },
    {
      "midi": 40,
      "hit": false,
      "t": 49285.68800000002,
      "d": 535.7139999999999,
      "v": 127
    },
    {
      "midi": 62,
      "hit": false,
      "t": 49285.688000000024,
      "d": 535.7139999999999,
      "v": 127
    },
    {
      "midi": 64,
      "hit": false,
      "t": 49285.688000000024,
      "d": 535.7139999999999,
      "v": 127
    },
    {
      "midi": 68,
      "hit": false,
      "t": 49285.688000000024,
      "d": 535.7139999999999,
      "v": 127
    },
    {
      "midi": 71,
      "hit": false,
      "t": 49285.688000000024,
      "d": 535.7139999999999,
      "v": 127
    },
    {
      "midi": 45,
      "hit": false,
      "t": 49821.40200000002,
      "d": 1607.1419999999998,
      "v": 127
    },
    {
      "midi": 61,
      "hit": false,
      "t": 49821.402000000024,
      "d": 1607.1419999999998,
      "v": 127
    },
    {
      "midi": 64,
      "hit": false,
      "t": 49821.402000000024,
      "d": 1607.1419999999998,
      "v": 127
    },
    {
      "midi": 69,
      "hit": false,
      "t": 49821.402000000024,
      "d": 1607.1419999999998,
      "v": 127
    },
    {
      "midi": 57,
      "hit": false,
      "t": 51428.544000000016,
      "d": 535.7139999999999,
      "v": 127
    },
    {
      "midi": 76,
      "hit": false,
      "t": 51428.54400000002,
      "d": 803.5710000000036,
      "v": 127
    },
    {
      "midi": 61,
      "hit": false,
      "t": 51964.258000000016,
      "d": 535.7139999999999,
      "v": 127
    },
    {
      "midi": 78,
      "hit": false,
      "t": 52232.11500000003,
      "d": 267.8570000000036,
      "v": 127
    },
    {
      "midi": 64,
      "hit": false,
      "t": 52499.972000000016,
      "d": 535.7139999999999,
      "v": 127
    },
    {
      "midi": 76,
      "hit": false,
      "t": 52499.97200000003,
      "d": 535.7139999999999,
      "v": 127
    },
    {
      "midi": 57,
      "hit": false,
      "t": 53035.686000000016,
      "d": 535.7139999999999,
      "v": 127
    },
    {
      "midi": 78,
      "hit": false,
      "t": 53035.68600000003,
      "d": 1071.4279999999999,
      "v": 127
    },
    {
      "midi": 62,
      "hit": false,
      "t": 53571.400000000016,
      "d": 535.7139999999999,
      "v": 127
    },
    {
      "midi": 66,
      "hit": false,
      "t": 54107.114000000016,
      "d": 535.7139999999999,
      "v": 127
    },
    {
      "midi": 78,
      "hit": false,
      "t": 54107.11400000003,
      "d": 535.7139999999999,
      "v": 127
    },
    {
      "midi": 57,
      "hit": false,
      "t": 54642.828000000016,
      "d": 535.7139999999999,
      "v": 127
    },
    {
      "midi": 80,
      "hit": false,
      "t": 54642.82800000003,
      "d": 803.5710000000036,
      "v": 127
    },
    {
      "midi": 81,
      "hit": false,
      "t": 54642.82800000003,
      "d": 803.5710000000036,
      "v": 127
    },
    {
      "midi": 62,
      "hit": false,
      "t": 55178.542000000016,
      "d": 535.7139999999999,
      "v": 127
    },
    {
      "midi": 80,
      "hit": false,
      "t": 55446.399000000034,
      "d": 267.8570000000036,
      "v": 127
    },
    {
      "midi": 66,
      "hit": false,
      "t": 55714.256000000016,
      "d": 535.7139999999999,
      "v": 127
    },
    {
      "midi": 78,
      "hit": false,
      "t": 55714.25600000004,
      "d": 535.7139999999999,
      "v": 127
    },
    {
      "midi": 57,
      "hit": false,
      "t": 56249.970000000016,
      "d": 535.7139999999999,
      "v": 127
    },
    {
      "midi": 78,
      "hit": false,
      "t": 56249.97000000004,
      "d": 535.7139999999999,
      "v": 127
    },
    {
      "midi": 61,
      "hit": false,
      "t": 56785.684000000016,
      "d": 535.7139999999999,
      "v": 127
    },
    {
      "midi": 76,
      "hit": false,
      "t": 56785.68400000004,
      "d": 535.7139999999999,
      "v": 127
    },
    {
      "midi": 64,
      "hit": false,
      "t": 57321.398000000016,
      "d": 535.7139999999999,
      "v": 127
    },
    {
      "midi": 76,
      "hit": false,
      "t": 57321.39800000004,
      "d": 535.7139999999999,
      "v": 127
    },
    {
      "midi": 57,
      "hit": false,
      "t": 57857.112000000016,
      "d": 1607.1419999999998,
      "v": 127
    },
    {
      "midi": 61,
      "hit": false,
      "t": 57857.112000000016,
      "d": 1607.1419999999998,
      "v": 127
    },
    {
      "midi": 76,
      "hit": false,
      "t": 57857.11200000004,
      "d": 535.7139999999999,
      "v": 127
    },
    {
      "midi": 73,
      "hit": false,
      "t": 58392.82600000004,
      "d": 535.7139999999999,
      "v": 127
    },
    {
      "midi": 69,
      "hit": false,
      "t": 58928.54000000004,
      "d": 535.7139999999999,
      "v": 127
    },
    {
      "midi": 56,
      "hit": false,
      "t": 59464.254000000015,
      "d": 1607.1419999999998,
      "v": 127
    },
    {
      "midi": 62,
      "hit": false,
      "t": 59464.254000000015,
      "d": 1607.1419999999998,
      "v": 127
    },
    {
      "midi": 76,
      "hit": false,
      "t": 59464.25400000004,
      "d": 535.7139999999999,
      "v": 127
    },
    {
      "midi": 74,
      "hit": false,
      "t": 59999.96800000004,
      "d": 535.7139999999999,
      "v": 127
    },
    {
      "midi": 71,
      "hit": false,
      "t": 60535.68200000004,
      "d": 535.7139999999999,
      "v": 127
    },
    {
      "midi": 57,
      "hit": false,
      "t": 61071.396000000015,
      "d": 1071.4279999999999,
      "v": 127
    },
    {
      "midi": 61,
      "hit": false,
      "t": 61071.396000000015,
      "d": 1071.4279999999999,
      "v": 127
    },
    {
      "midi": 76,
      "hit": false,
      "t": 61071.39600000004,
      "d": 535.7139999999999,
      "v": 127
    },
    {
      "midi": 73,
      "hit": false,
      "t": 61607.11000000004,
      "d": 535.7139999999999,
      "v": 127
    },
    {
      "midi": 54,
      "hit": false,
      "t": 62142.824000000015,
      "d": 535.7139999999999,
      "v": 127
    },
    {
      "midi": 63,
      "hit": false,
      "t": 62142.824000000015,
      "d": 535.7139999999999,
      "v": 127
    },
    {
      "midi": 69,
      "hit": false,
      "t": 62142.82400000004,
      "d": 535.7139999999999,
      "v": 127
    },
    {
      "midi": 52,
      "hit": false,
      "t": 62678.538000000015,
      "d": 1607.1419999999998,
      "v": 127
    },
    {
      "midi": 64,
      "hit": false,
      "t": 62678.538000000015,
      "d": 1607.1419999999998,
      "v": 127
    },
    {
      "midi": 69,
      "hit": false,
      "t": 62678.53800000004,
      "d": 1071.4279999999999,
      "v": 127
    },
    {
      "midi": 73,
      "hit": false,
      "t": 62678.53800000004,
      "d": 1071.4279999999999,
      "v": 127
    },
    {
      "midi": 68,
      "hit": false,
      "t": 63749.96600000004,
      "d": 535.7139999999999,
      "v": 127
    },
    {
      "midi": 71,
      "hit": false,
      "t": 63749.96600000004,
      "d": 535.7139999999999,
      "v": 127
    },
    {
      "midi": 57,
      "hit": false,
      "t": 64285.680000000015,
      "d": 803.5710000000036,
      "v": 127
    },
    {
      "midi": 64,
      "hit": false,
      "t": 64285.680000000015,
      "d": 803.5710000000036,
      "v": 127
    },
    {
      "midi": 73,
      "hit": false,
      "t": 64285.68000000004,
      "d": 803.5710000000036,
      "v": 127
    },
    {
      "midi": 59,
      "hit": false,
      "t": 65089.25100000002,
      "d": 267.8570000000036,
      "v": 127
    },
    {
      "midi": 74,
      "hit": false,
      "t": 65089.25100000004,
      "d": 267.8570000000036,
      "v": 127
    },
    {
      "midi": 57,
      "hit": false,
      "t": 65357.10800000002,
      "d": 535.7140000000072,
      "v": 127
    },
    {
      "midi": 64,
      "hit": false,
      "t": 65357.10800000002,
      "d": 535.7140000000072,
      "v": 127
    },
    {
      "midi": 73,
      "hit": false,
      "t": 65357.108000000044,
      "d": 535.7139999999999,
      "v": 127
    },
    {
      "midi": 61,
      "hit": false,
      "t": 65892.82200000003,
      "d": 1071.4279999999999,
      "v": 127
    },
    {
      "midi": 64,
      "hit": false,
      "t": 65892.82200000003,
      "d": 1071.4279999999999,
      "v": 127
    },
    {
      "midi": 76,
      "hit": false,
      "t": 65892.82200000004,
      "d": 1071.4279999999999,
      "v": 127
    },
    {
      "midi": 61,
      "hit": false,
      "t": 66964.25000000003,
      "d": 535.7140000000072,
      "v": 127
    },
    {
      "midi": 64,
      "hit": false,
      "t": 66964.25000000003,
      "d": 535.7140000000072,
      "v": 127
    },
    {
      "midi": 76,
      "hit": false,
      "t": 66964.25000000004,
      "d": 535.7140000000072,
      "v": 127
    },
    {
      "midi": 56,
      "hit": false,
      "t": 67499.96400000004,
      "d": 803.5709999999963,
      "v": 127
    },
    {
      "midi": 64,
      "hit": false,
      "t": 67499.96400000004,
      "d": 803.5709999999963,
      "v": 127
    },
    {
      "midi": 71,
      "hit": false,
      "t": 67499.96400000005,
      "d": 803.5709999999963,
      "v": 127
    },
    {
      "midi": 57,
      "hit": false,
      "t": 68303.53500000003,
      "d": 267.8570000000036,
      "v": 127
    },
    {
      "midi": 73,
      "hit": false,
      "t": 68303.53500000005,
      "d": 267.8570000000036,
      "v": 127
    },
    {
      "midi": 56,
      "hit": false,
      "t": 68571.39200000004,
      "d": 535.7140000000072,
      "v": 127
    },
    {
      "midi": 64,
      "hit": false,
      "t": 68571.39200000004,
      "d": 535.7140000000072,
      "v": 127
    },
    {
      "midi": 71,
      "hit": false,
      "t": 68571.39200000005,
      "d": 535.7140000000072,
      "v": 127
    },
    {
      "midi": 59,
      "hit": false,
      "t": 69107.10600000004,
      "d": 1071.4279999999999,
      "v": 127
    },
    {
      "midi": 64,
      "hit": false,
      "t": 69107.10600000004,
      "d": 1071.4279999999999,
      "v": 127
    },
    {
      "midi": 74,
      "hit": false,
      "t": 69107.10600000006,
      "d": 1071.4279999999999,
      "v": 127
    },
    {
      "midi": 59,
      "hit": false,
      "t": 70178.53400000004,
      "d": 535.7140000000072,
      "v": 127
    },
    {
      "midi": 64,
      "hit": false,
      "t": 70178.53400000004,
      "d": 535.7140000000072,
      "v": 127
    },
    {
      "midi": 74,
      "hit": false,
      "t": 70178.53400000006,
      "d": 535.7140000000072,
      "v": 127
    },
    {
      "midi": 54,
      "hit": false,
      "t": 70714.24800000005,
      "d": 1071.4279999999999,
      "v": 127
    },
    {
      "midi": 64,
      "hit": false,
      "t": 70714.24800000005,
      "d": 1071.4279999999999,
      "v": 127
    },
    {
      "midi": 69,
      "hit": false,
      "t": 70714.24800000007,
      "d": 1071.4279999999999,
      "v": 127
    },
    {
      "midi": 56,
      "hit": false,
      "t": 71785.67600000005,
      "d": 535.7140000000072,
      "v": 127
    },
    {
      "midi": 64,
      "hit": false,
      "t": 71785.67600000005,
      "d": 535.7140000000072,
      "v": 127
    },
    {
      "midi": 71,
      "hit": false,
      "t": 71785.67600000006,
      "d": 535.7140000000072,
      "v": 127
    },
    {
      "midi": 57,
      "hit": false,
      "t": 72321.39000000006,
      "d": 1071.4279999999999,
      "v": 127
    },
    {
      "midi": 64,
      "hit": false,
      "t": 72321.39000000006,
      "d": 1071.4279999999999,
      "v": 127
    },
    {
      "midi": 73,
      "hit": false,
      "t": 72321.39000000007,
      "d": 1071.4279999999999,
      "v": 127
    },
    {
      "midi": 50,
      "hit": false,
      "t": 73392.81800000006,
      "d": 535.7140000000072,
      "v": 127
    },
    {
      "midi": 66,
      "hit": false,
      "t": 73392.81800000007,
      "d": 535.7140000000072,
      "v": 127
    },
    {
      "midi": 71,
      "hit": false,
      "t": 73392.81800000007,
      "d": 535.7140000000072,
      "v": 127
    },
    {
      "midi": 74,
      "hit": false,
      "t": 73392.81800000007,
      "d": 535.7140000000072,
      "v": 127
    },
    {
      "midi": 52,
      "hit": false,
      "t": 73928.53200000006,
      "d": 1071.4279999999999,
      "v": 127
    },
    {
      "midi": 64,
      "hit": false,
      "t": 73928.53200000008,
      "d": 1071.4279999999999,
      "v": 127
    },
    {
      "midi": 69,
      "hit": false,
      "t": 73928.53200000008,
      "d": 1071.4279999999999,
      "v": 127
    },
    {
      "midi": 73,
      "hit": false,
      "t": 73928.53200000008,
      "d": 1071.4279999999999,
      "v": 127
    },
    {
      "midi": 40,
      "hit": false,
      "t": 74999.96000000006,
      "d": 535.7140000000072,
      "v": 127
    },
    {
      "midi": 64,
      "hit": false,
      "t": 74999.96000000008,
      "d": 535.7140000000072,
      "v": 127
    },
    {
      "midi": 68,
      "hit": false,
      "t": 74999.96000000008,
      "d": 535.7140000000072,
      "v": 127
    },
    {
      "midi": 71,
      "hit": false,
      "t": 74999.96000000008,
      "d": 535.7140000000072,
      "v": 127
    },
    {
      "midi": 45,
      "hit": false,
      "t": 75535.67400000007,
      "d": 1607.142000000007,
      "v": 127
    },
    {
      "midi": 64,
      "hit": false,
      "t": 75535.67400000009,
      "d": 1071.4279999999999,
      "v": 127
    },
    {
      "midi": 68,
      "hit": false,
      "t": 75535.67400000009,
      "d": 1071.4279999999999,
      "v": 127
    },
    {
      "midi": 71,
      "hit": false,
      "t": 75535.67400000009,
      "d": 1071.4279999999999,
      "v": 127
    },
    {
      "midi": 69,
      "hit": false,
      "t": 76607.10200000009,
      "d": 535.7140000000072,
      "v": 127
    },
    {
      "midi": 73,
      "hit": false,
      "t": 76607.10200000009,
      "d": 535.7140000000072,
      "v": 127
    },
    {
      "midi": 45,
      "hit": false,
      "t": 77142.81600000008,
      "d": 1071.4279999999999,
      "v": 127
    },
    {
      "midi": 57,
      "hit": false,
      "t": 77142.81600000008,
      "d": 1071.4279999999999,
      "v": 127
    },
    {
      "midi": 64,
      "hit": false,
      "t": 77142.8160000001,
      "d": 1071.4279999999999,
      "v": 127
    },
    {
      "midi": 69,
      "hit": false,
      "t": 77142.8160000001,
      "d": 1071.4279999999999,
      "v": 127
    },
    {
      "midi": 73,
      "hit": false,
      "t": 77142.8160000001,
      "d": 1071.4279999999999,
      "v": 127
    },
    {
      "midi": 47,
      "hit": false,
      "t": 78214.24400000008,
      "d": 535.7140000000072,
      "v": 127
    },
    {
      "midi": 59,
      "hit": false,
      "t": 78214.24400000008,
      "d": 535.7140000000072,
      "v": 127
    },
    {
      "midi": 64,
      "hit": false,
      "t": 78214.2440000001,
      "d": 535.7140000000072,
      "v": 127
    },
    {
      "midi": 68,
      "hit": false,
      "t": 78214.2440000001,
      "d": 535.7140000000072,
      "v": 127
    },
    {
      "midi": 74,
      "hit": false,
      "t": 78214.2440000001,
      "d": 535.7140000000072,
      "v": 127
    },
    {
      "midi": 49,
      "hit": false,
      "t": 78749.95800000009,
      "d": 1071.4279999999999,
      "v": 127
    },
    {
      "midi": 61,
      "hit": false,
      "t": 78749.95800000009,
      "d": 1071.4279999999999,
      "v": 127
    },
    {
      "midi": 64,
      "hit": false,
      "t": 78749.9580000001,
      "d": 1071.4279999999999,
      "v": 127
    },
    {
      "midi": 69,
      "hit": false,
      "t": 78749.9580000001,
      "d": 1071.4279999999999,
      "v": 127
    },
    {
      "midi": 76,
      "hit": false,
      "t": 78749.9580000001,
      "d": 1071.4279999999999,
      "v": 127
    },
    {
      "midi": 50,
      "hit": false,
      "t": 79821.38600000009,
      "d": 535.7140000000072,
      "v": 127
    },
    {
      "midi": 62,
      "hit": false,
      "t": 79821.38600000009,
      "d": 535.7140000000072,
      "v": 127
    },
    {
      "midi": 78,
      "hit": false,
      "t": 79821.3860000001,
      "d": 267.8570000000036,
      "v": 127
    },
    {
      "midi": 80,
      "hit": false,
      "t": 80089.2430000001,
      "d": 267.8570000000036,
      "v": 127
    },
    {
      "midi": 81,
      "hit": false,
      "t": 80089.2430000001,
      "d": 267.8570000000036,
      "v": 127
    },
    {
      "midi": 52,
      "hit": false,
      "t": 80357.1000000001,
      "d": 1071.4279999999999,
      "v": 127
    },
    {
      "midi": 61,
      "hit": false,
      "t": 80357.1000000001,
      "d": 1071.4279999999999,
      "v": 127
    },
    {
      "midi": 69,
      "hit": false,
      "t": 80357.10000000011,
      "d": 1071.4279999999999,
      "v": 127
    },
    {
      "midi": 52,
      "hit": false,
      "t": 81428.5280000001,
      "d": 535.7140000000072,
      "v": 127
    },
    {
      "midi": 62,
      "hit": false,
      "t": 81428.5280000001,
      "d": 535.7140000000072,
      "v": 127
    },
    {
      "midi": 68,
      "hit": false,
      "t": 81428.52800000011,
      "d": 267.8570000000036,
      "v": 127
    },
    {
      "midi": 73,
      "hit": false,
      "t": 81428.52800000011,
      "d": 267.8570000000036,
      "v": 127
    },
    {
      "midi": 71,
      "hit": false,
      "t": 81696.38500000011,
      "d": 267.8570000000036,
      "v": 127
    },
    {
      "midi": 57,
      "hit": false,
      "t": 81964.2420000001,
      "d": 1607.142000000007,
      "v": 127
    },
    {
      "midi": 61,
      "hit": false,
      "t": 81964.2420000001,
      "d": 1607.142000000007,
      "v": 127
    },
    {
      "midi": 69,
      "hit": false,
      "t": 81964.24200000011,
      "d": 1607.142000000007,
      "v": 127
    },
    {
      "midi": 57,
      "hit": false,
      "t": 83571.38400000011,
      "d": 535.7140000000072,
      "v": 127
    },
    {
      "midi": 76,
      "hit": false,
      "t": 83571.38400000012,
      "d": 803.5709999999963,
      "v": 127
    },
    {
      "midi": 61,
      "hit": false,
      "t": 84107.09800000011,
      "d": 535.7140000000072,
      "v": 127
    },
    {
      "midi": 78,
      "hit": false,
      "t": 84374.95500000012,
      "d": 267.8570000000036,
      "v": 127
    },
    {
      "midi": 76,
      "hit": false,
      "t": 84642.81200000012,
      "d": 535.7140000000072,
      "v": 127
    },
    {
      "midi": 64,
      "hit": false,
      "t": 84642.81200000012,
      "d": 535.7140000000072,
      "v": 127
    },
    {
      "midi": 78,
      "hit": false,
      "t": 85178.52600000013,
      "d": 1071.4279999999999,
      "v": 127
    },
    {
      "midi": 57,
      "hit": false,
      "t": 85178.52600000013,
      "d": 535.7140000000072,
      "v": 127
    },
    {
      "midi": 62,
      "hit": false,
      "t": 85714.24000000014,
      "d": 535.7140000000072,
      "v": 127
    },
    {
      "midi": 78,
      "hit": false,
      "t": 86249.95400000013,
      "d": 535.7140000000072,
      "v": 127
    },
    {
      "midi": 66,
      "hit": false,
      "t": 86249.95400000014,
      "d": 535.7140000000072,
      "v": 127
    },
    {
      "midi": 80,
      "hit": false,
      "t": 86785.66800000014,
      "d": 803.5709999999963,
      "v": 127
    },
    {
      "midi": 81,
      "hit": false,
      "t": 86785.66800000014,
      "d": 803.5709999999963,
      "v": 127
    },
    {
      "midi": 57,
      "hit": false,
      "t": 86785.66800000015,
      "d": 535.7140000000072,
      "v": 127
    },
    {
      "midi": 62,
      "hit": false,
      "t": 87321.38200000016,
      "d": 535.7140000000072,
      "v": 127
    },
    {
      "midi": 80,
      "hit": false,
      "t": 87589.23900000013,
      "d": 267.8570000000036,
      "v": 127
    },
    {
      "midi": 78,
      "hit": false,
      "t": 87857.09600000014,
      "d": 535.7140000000072,
      "v": 127
    },
    {
      "midi": 66,
      "hit": false,
      "t": 87857.09600000017,
      "d": 535.7140000000072,
      "v": 127
    },
    {
      "midi": 78,
      "hit": false,
      "t": 88392.81000000014,
      "d": 535.7140000000072,
      "v": 127
    },
    {
      "midi": 57,
      "hit": false,
      "t": 88392.81000000017,
      "d": 535.7140000000072,
      "v": 127
    },
    {
      "midi": 76,
      "hit": false,
      "t": 88928.52400000015,
      "d": 535.7140000000072,
      "v": 127
    },
    {
      "midi": 61,
      "hit": false,
      "t": 88928.52400000018,
      "d": 535.7140000000072,
      "v": 127
    },
    {
      "midi": 76,
      "hit": false,
      "t": 89464.23800000016,
      "d": 535.7140000000072,
      "v": 127
    },
    {
      "midi": 64,
      "hit": false,
      "t": 89464.23800000019,
      "d": 535.7140000000072,
      "v": 127
    },
    {
      "midi": 76,
      "hit": false,
      "t": 89999.95200000016,
      "d": 535.7140000000072,
      "v": 127
    },
    {
      "midi": 57,
      "hit": false,
      "t": 89999.9520000002,
      "d": 1607.142000000007,
      "v": 127
    },
    {
      "midi": 61,
      "hit": false,
      "t": 89999.9520000002,
      "d": 1607.142000000007,
      "v": 127
    },
    {
      "midi": 73,
      "hit": false,
      "t": 90535.66600000017,
      "d": 535.7140000000072,
      "v": 127
    },
    {
      "midi": 69,
      "hit": false,
      "t": 91071.38000000018,
      "d": 535.7140000000072,
      "v": 127
    },
    {
      "midi": 76,
      "hit": false,
      "t": 91607.09400000019,
      "d": 535.7140000000072,
      "v": 127
    },
    {
      "midi": 56,
      "hit": false,
      "t": 91607.0940000002,
      "d": 1607.142000000007,
      "v": 127
    },
    {
      "midi": 62,
      "hit": false,
      "t": 91607.0940000002,
      "d": 1607.142000000007,
      "v": 127
    },
    {
      "midi": 74,
      "hit": false,
      "t": 92142.8080000002,
      "d": 535.7140000000072,
      "v": 127
    },
    {
      "midi": 71,
      "hit": false,
      "t": 92678.5220000002,
      "d": 535.7140000000072,
      "v": 127
    },
    {
      "midi": 76,
      "hit": false,
      "t": 93214.23600000021,
      "d": 535.7140000000072,
      "v": 127
    },
    {
      "midi": 57,
      "hit": false,
      "t": 93214.23600000021,
      "d": 1071.4279999999999,
      "v": 127
    },
    {
      "midi": 61,
      "hit": false,
      "t": 93214.23600000021,
      "d": 1071.4279999999999,
      "v": 127
    },
    {
      "midi": 73,
      "hit": false,
      "t": 93749.95000000022,
      "d": 535.7140000000072,
      "v": 127
    },
    {
      "midi": 54,
      "hit": false,
      "t": 94285.66400000021,
      "d": 535.7140000000072,
      "v": 127
    },
    {
      "midi": 63,
      "hit": false,
      "t": 94285.66400000021,
      "d": 535.7140000000072,
      "v": 127
    },
    {
      "midi": 69,
      "hit": false,
      "t": 94285.66400000022,
      "d": 535.7140000000072,
      "v": 127
    },
    {
      "midi": 52,
      "hit": false,
      "t": 94821.37800000022,
      "d": 1607.142000000007,
      "v": 127
    },
    {
      "midi": 64,
      "hit": false,
      "t": 94821.37800000022,
      "d": 1607.142000000007,
      "v": 127
    },
    {
      "midi": 69,
      "hit": false,
      "t": 94821.37800000023,
      "d": 1071.4279999999999,
      "v": 127
    },
    {
      "midi": 73,
      "hit": false,
      "t": 94821.37800000023,
      "d": 1071.4279999999999,
      "v": 127
    },
    {
      "midi": 68,
      "hit": false,
      "t": 95892.80600000023,
      "d": 535.7140000000072,
      "v": 127
    },
    {
      "midi": 71,
      "hit": false,
      "t": 95892.80600000023,
      "d": 535.7140000000072,
      "v": 127
    },
    {
      "midi": 57,
      "hit": false,
      "t": 96428.52000000022,
      "d": 803.5709999999963,
      "v": 127
    },
    {
      "midi": 64,
      "hit": false,
      "t": 96428.52000000022,
      "d": 803.5709999999963,
      "v": 127
    },
    {
      "midi": 73,
      "hit": false,
      "t": 96428.52000000024,
      "d": 803.5709999999963,
      "v": 127
    },
    {
      "midi": 59,
      "hit": false,
      "t": 97232.09100000022,
      "d": 267.8570000000036,
      "v": 127
    },
    {
      "midi": 74,
      "hit": false,
      "t": 97232.09100000023,
      "d": 267.8570000000036,
      "v": 127
    },
    {
      "midi": 57,
      "hit": false,
      "t": 97499.94800000022,
      "d": 535.7140000000072,
      "v": 127
    },
    {
      "midi": 64,
      "hit": false,
      "t": 97499.94800000022,
      "d": 535.7140000000072,
      "v": 127
    },
    {
      "midi": 73,
      "hit": false,
      "t": 97499.94800000024,
      "d": 535.7140000000072,
      "v": 127
    },
    {
      "midi": 61,
      "hit": false,
      "t": 98035.66200000023,
      "d": 1071.4279999999999,
      "v": 127
    },
    {
      "midi": 64,
      "hit": false,
      "t": 98035.66200000023,
      "d": 1071.4279999999999,
      "v": 127
    },
    {
      "midi": 76,
      "hit": false,
      "t": 98035.66200000024,
      "d": 1071.4279999999999,
      "v": 127
    },
    {
      "midi": 61,
      "hit": false,
      "t": 99107.09000000023,
      "d": 535.7140000000072,
      "v": 127
    },
    {
      "midi": 64,
      "hit": false,
      "t": 99107.09000000023,
      "d": 535.7140000000072,
      "v": 127
    },
    {
      "midi": 76,
      "hit": false,
      "t": 99107.09000000024,
      "d": 535.7140000000072,
      "v": 127
    },
    {
      "midi": 56,
      "hit": false,
      "t": 99642.80400000024,
      "d": 803.5709999999963,
      "v": 127
    },
    {
      "midi": 64,
      "hit": false,
      "t": 99642.80400000024,
      "d": 803.5709999999963,
      "v": 127
    },
    {
      "midi": 71,
      "hit": false,
      "t": 99642.80400000025,
      "d": 803.5709999999963,
      "v": 127
    },
    {
      "midi": 57,
      "hit": false,
      "t": 100446.37500000023,
      "d": 267.8570000000036,
      "v": 127
    },
    {
      "midi": 73,
      "hit": false,
      "t": 100446.37500000025,
      "d": 267.8570000000036,
      "v": 127
    },
    {
      "midi": 56,
      "hit": false,
      "t": 100714.23200000024,
      "d": 535.7140000000072,
      "v": 127
    },
    {
      "midi": 64,
      "hit": false,
      "t": 100714.23200000024,
      "d": 535.7140000000072,
      "v": 127
    },
    {
      "midi": 71,
      "hit": false,
      "t": 100714.23200000025,
      "d": 535.7140000000072,
      "v": 127
    },
    {
      "midi": 59,
      "hit": false,
      "t": 101249.94600000024,
      "d": 1071.4279999999999,
      "v": 127
    },
    {
      "midi": 64,
      "hit": false,
      "t": 101249.94600000024,
      "d": 1071.4279999999999,
      "v": 127
    },
    {
      "midi": 74,
      "hit": false,
      "t": 101249.94600000026,
      "d": 1071.4279999999999,
      "v": 127
    },
    {
      "midi": 59,
      "hit": false,
      "t": 102321.37400000024,
      "d": 535.7140000000072,
      "v": 127
    },
    {
      "midi": 64,
      "hit": false,
      "t": 102321.37400000024,
      "d": 535.7140000000072,
      "v": 127
    },
    {
      "midi": 74,
      "hit": false,
      "t": 102321.37400000026,
      "d": 535.7140000000072,
      "v": 127
    },
    {
      "midi": 54,
      "hit": false,
      "t": 102857.08800000025,
      "d": 1071.4279999999999,
      "v": 127
    },
    {
      "midi": 64,
      "hit": false,
      "t": 102857.08800000025,
      "d": 1071.4279999999999,
      "v": 127
    },
    {
      "midi": 69,
      "hit": false,
      "t": 102857.08800000027,
      "d": 1071.4279999999999,
      "v": 127
    },
    {
      "midi": 56,
      "hit": false,
      "t": 103928.51600000025,
      "d": 535.7140000000072,
      "v": 127
    },
    {
      "midi": 64,
      "hit": false,
      "t": 103928.51600000025,
      "d": 535.7140000000072,
      "v": 127
    },
    {
      "midi": 71,
      "hit": false,
      "t": 103928.51600000027,
      "d": 535.7140000000072,
      "v": 127
    },
    {
      "midi": 57,
      "hit": false,
      "t": 104464.23000000026,
      "d": 1071.4279999999999,
      "v": 127
    },
    {
      "midi": 64,
      "hit": false,
      "t": 104464.23000000026,
      "d": 1071.4279999999999,
      "v": 127
    },
    {
      "midi": 73,
      "hit": false,
      "t": 104464.23000000027,
      "d": 1071.4279999999999,
      "v": 127
    },
    {
      "midi": 50,
      "hit": false,
      "t": 105535.65800000026,
      "d": 535.7140000000072,
      "v": 127
    },
    {
      "midi": 66,
      "hit": false,
      "t": 105535.65800000027,
      "d": 535.7140000000072,
      "v": 127
    },
    {
      "midi": 71,
      "hit": false,
      "t": 105535.65800000027,
      "d": 535.7140000000072,
      "v": 127
    },
    {
      "midi": 74,
      "hit": false,
      "t": 105535.65800000027,
      "d": 535.7140000000072,
      "v": 127
    },
    {
      "midi": 52,
      "hit": false,
      "t": 106071.37200000026,
      "d": 1071.4279999999999,
      "v": 127
    },
    {
      "midi": 64,
      "hit": false,
      "t": 106071.37200000028,
      "d": 1071.4279999999999,
      "v": 127
    },
    {
      "midi": 69,
      "hit": false,
      "t": 106071.37200000028,
      "d": 1071.4279999999999,
      "v": 127
    },
    {
      "midi": 73,
      "hit": false,
      "t": 106071.37200000028,
      "d": 1071.4279999999999,
      "v": 127
    },
    {
      "midi": 40,
      "hit": false,
      "t": 107142.80000000026,
      "d": 535.7140000000072,
      "v": 127
    },
    {
      "midi": 64,
      "hit": false,
      "t": 107142.80000000028,
      "d": 535.7140000000072,
      "v": 127
    },
    {
      "midi": 68,
      "hit": false,
      "t": 107142.80000000028,
      "d": 535.7140000000072,
      "v": 127
    },
    {
      "midi": 71,
      "hit": false,
      "t": 107142.80000000028,
      "d": 535.7140000000072,
      "v": 127
    },
    {
      "midi": 45,
      "hit": false,
      "t": 107678.51400000027,
      "d": 1607.142000000007,
      "v": 127
    },
    {
      "midi": 64,
      "hit": false,
      "t": 107678.51400000029,
      "d": 1071.4279999999999,
      "v": 127
    },
    {
      "midi": 68,
      "hit": false,
      "t": 107678.51400000029,
      "d": 1071.4279999999999,
      "v": 127
    },
    {
      "midi": 71,
      "hit": false,
      "t": 107678.51400000029,
      "d": 1071.4279999999999,
      "v": 127
    },
    {
      "midi": 69,
      "hit": false,
      "t": 108749.94200000029,
      "d": 535.7140000000072,
      "v": 127
    },
    {
      "midi": 73,
      "hit": false,
      "t": 108749.94200000029,
      "d": 535.7140000000072,
      "v": 127
    },
    {
      "midi": 45,
      "hit": false,
      "t": 109285.65600000028,
      "d": 1071.4279999999999,
      "v": 127
    },
    {
      "midi": 57,
      "hit": false,
      "t": 109285.65600000028,
      "d": 1071.4279999999999,
      "v": 127
    },
    {
      "midi": 64,
      "hit": false,
      "t": 109285.6560000003,
      "d": 1071.4279999999999,
      "v": 127
    },
    {
      "midi": 69,
      "hit": false,
      "t": 109285.6560000003,
      "d": 1071.4279999999999,
      "v": 127
    },
    {
      "midi": 73,
      "hit": false,
      "t": 109285.6560000003,
      "d": 1071.4279999999999,
      "v": 127
    },
    {
      "midi": 47,
      "hit": false,
      "t": 110357.08400000028,
      "d": 535.7140000000072,
      "v": 127
    },
    {
      "midi": 59,
      "hit": false,
      "t": 110357.08400000028,
      "d": 535.7140000000072,
      "v": 127
    },
    {
      "midi": 64,
      "hit": false,
      "t": 110357.0840000003,
      "d": 535.7140000000072,
      "v": 127
    },
    {
      "midi": 68,
      "hit": false,
      "t": 110357.0840000003,
      "d": 535.7140000000072,
      "v": 127
    },
    {
      "midi": 74,
      "hit": false,
      "t": 110357.0840000003,
      "d": 535.7140000000072,
      "v": 127
    },
    {
      "midi": 49,
      "hit": false,
      "t": 110892.79800000029,
      "d": 1071.4279999999999,
      "v": 127
    },
    {
      "midi": 61,
      "hit": false,
      "t": 110892.79800000029,
      "d": 1071.4279999999999,
      "v": 127
    },
    {
      "midi": 64,
      "hit": false,
      "t": 110892.7980000003,
      "d": 1071.4279999999999,
      "v": 127
    },
    {
      "midi": 69,
      "hit": false,
      "t": 110892.7980000003,
      "d": 1071.4279999999999,
      "v": 127
    },
    {
      "midi": 76,
      "hit": false,
      "t": 110892.7980000003,
      "d": 1071.4279999999999,
      "v": 127
    },
    {
      "midi": 50,
      "hit": false,
      "t": 111964.22600000029,
      "d": 535.7140000000072,
      "v": 127
    },
    {
      "midi": 62,
      "hit": false,
      "t": 111964.22600000029,
      "d": 535.7140000000072,
      "v": 127
    },
    {
      "midi": 78,
      "hit": false,
      "t": 111964.2260000003,
      "d": 267.8570000000036,
      "v": 127
    },
    {
      "midi": 80,
      "hit": false,
      "t": 112232.0830000003,
      "d": 267.8570000000036,
      "v": 127
    },
    {
      "midi": 81,
      "hit": false,
      "t": 112232.0830000003,
      "d": 267.8570000000036,
      "v": 127
    },
    {
      "midi": 52,
      "hit": false,
      "t": 112499.9400000003,
      "d": 1071.4279999999999,
      "v": 127
    },
    {
      "midi": 61,
      "hit": false,
      "t": 112499.9400000003,
      "d": 1071.4279999999999,
      "v": 127
    },
    {
      "midi": 69,
      "hit": false,
      "t": 112499.94000000031,
      "d": 1071.4279999999999,
      "v": 127
    },
    {
      "midi": 52,
      "hit": false,
      "t": 113571.3680000003,
      "d": 535.7140000000072,
      "v": 127
    },
    {
      "midi": 62,
      "hit": false,
      "t": 113571.3680000003,
      "d": 535.7140000000072,
      "v": 127
    },
    {
      "midi": 68,
      "hit": false,
      "t": 113571.36800000031,
      "d": 267.8570000000036,
      "v": 127
    },
    {
      "midi": 73,
      "hit": false,
      "t": 113571.36800000031,
      "d": 267.8570000000036,
      "v": 127
    },
    {
      "midi": 71,
      "hit": false,
      "t": 113839.22500000031,
      "d": 267.8570000000036,
      "v": 127
    },
    {
      "midi": 57,
      "hit": false,
      "t": 114107.0820000003,
      "d": 1071.4279999999999,
      "v": 127
    },
    {
      "midi": 61,
      "hit": false,
      "t": 114107.0820000003,
      "d": 1071.4279999999999,
      "v": 127
    },
    {
      "midi": 69,
      "hit": false,
      "t": 114107.08200000032,
      "d": 1607.142000000007,
      "v": 127
    }
  ]
}