{
  "jsonPath": "Classical/Classical/Wolfgang Amadeus Mozart/trio-in-e-flat-major-kv-498-3.json",
  "path": "Classical\\Classical\\Wolfgang Amadeus Mozart\\Trio in E-flat Major KV 498 3.mid",
  "name": "Trio in E-flat Major KV 498 3",
  "difficulty": "Advanced",
  "bpm": 120,
  "notes": [
    {
      "midi": 55,
      "hit": false,
      "t": 0,
      "d": 250,
      "v": 127
    },
    {
      "midi": 39,
      "hit": false,
      "t": 0,
      "d": 1000,
      "v": 127
    },
    {
      "midi": 51,
      "hit": false,
      "t": 0,
      "d": 1000,
      "v": 127
    },
    {
      "midi": 63,
      "hit": false,
      "t": 250,
      "d": 250,
      "v": 127
    },
    {
      "midi": 58,
      "hit": false,
      "t": 500,
      "d": 250,
      "v": 127
    },
    {
      "midi": 63,
      "hit": false,
      "t": 750,
      "d": 250,
      "v": 127
    },
    {
      "midi": 58,
      "hit": false,
      "t": 1000,
      "d": 250,
      "v": 127
    },
    {
      "midi": 43,
      "hit": false,
      "t": 1000,
      "d": 1000,
      "v": 127
    },
    {
      "midi": 55,
      "hit": false,
      "t": 1000,
      "d": 1000,
      "v": 127
    },
    {
      "midi": 67,
      "hit": false,
      "t": 1250,
      "d": 250,
      "v": 127
    },
    {
      "midi": 63,
      "hit": false,
      "t": 1500,
      "d": 250,
      "v": 127
    },
    {
      "midi": 67,
      "hit": false,
      "t": 1750,
      "d": 250,
      "v": 127
    },
    {
      "midi": 58,
      "hit": false,
      "t": 2000,
      "d": 250,
      "v": 127
    },
    {
      "midi": 41,
      "hit": false,
      "t": 2000,
      "d": 1000,
      "v": 127
    },
    {
      "midi": 53,
      "hit": false,
      "t": 2000,
      "d": 1000,
      "v": 127
    },
    {
      "midi": 68,
      "hit": false,
      "t": 2250,
      "d": 250,
      "v": 127
    },
    {
      "midi": 62,
      "hit": false,
      "t": 2500,
      "d": 250,
      "v": 127
    },
    {
      "midi": 68,
      "hit": false,
      "t": 2750,
      "d": 250,
      "v": 127
    },
    {
      "midi": 65,
      "hit": false,
      "t": 3000,
      "d": 250,
      "v": 127
    },
    {
      "midi": 38,
      "hit": false,
      "t": 3000,
      "d": 500,
      "v": 127
    },
    {
      "midi": 50,
      "hit": false,
      "t": 3000,
      "d": 500,
      "v": 127
    },
    {
      "midi": 68,
      "hit": false,
      "t": 3250,
      "d": 250,
      "v": 127
    },
    {
      "midi": 67,
      "hit": false,
      "t": 3500,
      "d": 250,
      "v": 127
    },
    {
      "midi": 39,
      "hit": false,
      "t": 3500,
      "d": 500,
      "v": 127
    },
    {
      "midi": 51,
      "hit": false,
      "t": 3500,
      "d": 500,
      "v": 127
    },
    {
      "midi": 63,
      "hit": false,
      "t": 3750,
      "d": 250,
      "v": 127
    },
    {
      "midi": 60,
      "hit": false,
      "t": 4000,
      "d": 250,
      "v": 127
    },
    {
      "midi": 44,
      "hit": false,
      "t": 4000,
      "d": 1500,
      "v": 127
    },
    {
      "midi": 56,
      "hit": false,
      "t": 4000,
      "d": 1500,
      "v": 127
    },
    {
      "midi": 68,
      "hit": false,
      "t": 4250,
      "d": 250,
      "v": 127
    },
    {
      "midi": 63,
      "hit": false,
      "t": 4500,
      "d": 250,
      "v": 127
    },
    {
      "midi": 68,
      "hit": false,
      "t": 4750,
      "d": 250,
      "v": 127
    },
    {
      "midi": 60,
      "hit": false,
      "t": 5000,
      "d": 250,
      "v": 127
    },
    {
      "midi": 72,
      "hit": false,
      "t": 5250,
      "d": 250,
      "v": 127
    },
    {
      "midi": 65,
      "hit": false,
      "t": 5500,
      "d": 250,
      "v": 127
    },
    {
      "midi": 45,
      "hit": false,
      "t": 5500,
      "d": 500,
      "v": 127
    },
    {
      "midi": 57,
      "hit": false,
      "t": 5500,
      "d": 500,
      "v": 127
    },
    {
      "midi": 72,
      "hit": false,
      "t": 5750,
      "d": 250,
      "v": 127
    },
    {
      "midi": 67,
      "hit": false,
      "t": 6000,
      "d": 250,
      "v": 127
    },
    {
      "midi": 46,
      "hit": false,
      "t": 6000,
      "d": 1000,
      "v": 127
    },
    {
      "midi": 58,
      "hit": false,
      "t": 6000,
      "d": 1000,
      "v": 127
    },
    {
      "midi": 70,
      "hit": false,
      "t": 6250,
      "d": 250,
      "v": 127
    },
    {
      "midi": 68,
      "hit": false,
      "t": 6500,
      "d": 250,
      "v": 127
    },
    {
      "midi": 67,
      "hit": false,
      "t": 6750,
      "d": 250,
      "v": 127
    },
    {
      "midi": 65,
      "hit": false,
      "t": 7000,
      "d": 250,
      "v": 127
    },
    {
      "midi": 65,
      "hit": false,
      "t": 7250,
      "d": 250,
      "v": 127
    },
    {
      "midi": 68,
      "hit": false,
      "t": 7250,
      "d": 250,
      "v": 127
    },
    {
      "midi": 63,
      "hit": false,
      "t": 7500,
      "d": 250,
      "v": 127
    },
    {
      "midi": 67,
      "hit": false,
      "t": 7500,
      "d": 250,
      "v": 127
    },
    {
      "midi": 62,
      "hit": false,
      "t": 7750,
      "d": 250,
      "v": 127
    },
    {
      "midi": 65,
      "hit": false,
      "t": 7750,
      "d": 250,
      "v": 127
    },
    {
      "midi": 67,
      "hit": false,
      "t": 8000,
      "d": 250,
      "v": 127
    },
    {
      "midi": 39,
      "hit": false,
      "t": 8000,
      "d": 2000,
      "v": 127
    },
    {
      "midi": 51,
      "hit": false,
      "t": 8000,
      "d": 2000,
      "v": 127
    },
    {
      "midi": 70,
      "hit": false,
      "t": 8250,
      "d": 250,
      "v": 127
    },
    {
      "midi": 63,
      "hit": false,
      "t": 8500,
      "d": 250,
      "v": 127
    },
    {
      "midi": 67,
      "hit": false,
      "t": 8750,
      "d": 250,
      "v": 127
    },
    {
      "midi": 58,
      "hit": false,
      "t": 9000,
      "d": 250,
      "v": 127
    },
    {
      "midi": 63,
      "hit": false,
      "t": 9250,
      "d": 250,
      "v": 127
    },
    {
      "midi": 67,
      "hit": false,
      "t": 9500,
      "d": 250,
      "v": 127
    },
    {
      "midi": 63,
      "hit": false,
      "t": 9750,
      "d": 250,
      "v": 127
    },
    {
      "midi": 58,
      "hit": false,
      "t": 10000,
      "d": 250,
      "v": 127
    },
    {
      "midi": 41,
      "hit": false,
      "t": 10000,
      "d": 500,
      "v": 127
    },
    {
      "midi": 53,
      "hit": false,
      "t": 10000,
      "d": 500,
      "v": 127
    },
    {
      "midi": 62,
      "hit": false,
      "t": 10250,
      "d": 250,
      "v": 127
    },
    {
      "midi": 68,
      "hit": false,
      "t": 10500,
      "d": 250,
      "v": 127
    },
    {
      "midi": 38,
      "hit": false,
      "t": 10500,
      "d": 500,
      "v": 127
    },
    {
      "midi": 50,
      "hit": false,
      "t": 10500,
      "d": 500,
      "v": 127
    },
    {
      "midi": 62,
      "hit": false,
      "t": 10750,
      "d": 250,
      "v": 127
    },
    {
      "midi": 65,
      "hit": false,
      "t": 11000,
      "d": 250,
      "v": 127
    },
    {
      "midi": 34,
      "hit": false,
      "t": 11000,
      "d": 500,
      "v": 127
    },
    {
      "midi": 46,
      "hit": false,
      "t": 11000,
      "d": 500,
      "v": 127
    },
    {
      "midi": 68,
      "hit": false,
      "t": 11250,
      "d": 250,
      "v": 127
    },
    {
      "midi": 62,
      "hit": false,
      "t": 11500,
      "d": 250,
      "v": 127
    },
    {
      "midi": 32,
      "hit": false,
      "t": 11500,
      "d": 500,
      "v": 127
    },
    {
      "midi": 44,
      "hit": false,
      "t": 11500,
      "d": 500,
      "v": 127
    },
    {
      "midi": 65,
      "hit": false,
      "t": 11750,
      "d": 250,
      "v": 127
    },
    {
      "midi": 58,
      "hit": false,
      "t": 12000,
      "d": 250,
      "v": 127
    },
    {
      "midi": 31,
      "hit": false,
      "t": 12000,
      "d": 500,
      "v": 127
    },
    {
      "midi": 43,
      "hit": false,
      "t": 12000,
      "d": 500,
      "v": 127
    },
    {
      "midi": 63,
      "hit": false,
      "t": 12250,
      "d": 250,
      "v": 127
    },
    {
      "midi": 67,
      "hit": false,
      "t": 12500,
      "d": 250,
      "v": 127
    },
    {
      "midi": 70,
      "hit": false,
      "t": 12750,
      "d": 250,
      "v": 127
    },
    {
      "midi": 70,
      "hit": false,
      "t": 13000,
      "d": 500,
      "v": 127
    },
    {
      "midi": 75,
      "hit": false,
      "t": 13000,
      "d": 500,
      "v": 127
    },
    {
      "midi": 46,
      "hit": false,
      "t": 13000,
      "d": 500,
      "v": 127
    },
    {
      "midi": 68,
      "hit": false,
      "t": 13500,
      "d": 500,
      "v": 127
    },
    {
      "midi": 74,
      "hit": false,
      "t": 13500,
      "d": 500,
      "v": 127
    },
    {
      "midi": 46,
      "hit": false,
      "t": 13500,
      "d": 500,
      "v": 127
    },
    {
      "midi": 68,
      "hit": false,
      "t": 14000,
      "d": 1000,
      "v": 127
    },
    {
      "midi": 74,
      "hit": false,
      "t": 14000,
      "d": 1000,
      "v": 127
    },
    {
      "midi": 51,
      "hit": false,
      "t": 14000,
      "d": 500,
      "v": 127
    },
    {
      "midi": 46,
      "hit": false,
      "t": 14500,
      "d": 500,
      "v": 127
    },
    {
      "midi": 67,
      "hit": false,
      "t": 15000,
      "d": 250,
      "v": 127
    },
    {
      "midi": 75,
      "hit": false,
      "t": 15000,
      "d": 250,
      "v": 127
    },
    {
      "midi": 39,
      "hit": false,
      "t": 15000,
      "d": 500,
      "v": 127
    },
    {
      "midi": 74,
      "hit": false,
      "t": 15250,
      "d": 125,
      "v": 127
    },
    {
      "midi": 75,
      "hit": false,
      "t": 15375,
      "d": 125,
      "v": 127
    },
    {
      "midi": 77,
      "hit": false,
      "t": 15500,
      "d": 125,
      "v": 127
    },
    {
      "midi": 75,
      "hit": false,
      "t": 15625,
      "d": 125,
      "v": 127
    },
    {
      "midi": 74,
      "hit": false,
      "t": 15750,
      "d": 125,
      "v": 127
    },
    {
      "midi": 72,
      "hit": false,
      "t": 15875,
      "d": 125,
      "v": 127
    },
    {
      "midi": 70,
      "hit": false,
      "t": 16000,
      "d": 1000,
      "v": 127
    },
    {
      "midi": 39,
      "hit": false,
      "t": 16000,
      "d": 1000,
      "v": 127
    },
    {
      "midi": 51,
      "hit": false,
      "t": 16000,
      "d": 1000,
      "v": 127
    },
    {
      "midi": 43,
      "hit": false,
      "t": 17000,
      "d": 1000,
      "v": 127
    },
    {
      "midi": 55,
      "hit": false,
      "t": 17000,
      "d": 1000,
      "v": 127
    },
    {
      "midi": 72,
      "hit": false,
      "t": 17250,
      "d": 250,
      "v": 127
    },
    {
      "midi": 74,
      "hit": false,
      "t": 17500,
      "d": 250,
      "v": 127
    },
    {
      "midi": 75,
      "hit": false,
      "t": 17750,
      "d": 250,
      "v": 127
    },
    {
      "midi": 75,
      "hit": false,
      "t": 18000,
      "d": 250,
      "v": 127
    },
    {
      "midi": 41,
      "hit": false,
      "t": 18000,
      "d": 1000,
      "v": 127
    },
    {
      "midi": 53,
      "hit": false,
      "t": 18000,
      "d": 1000,
      "v": 127
    },
    {
      "midi": 74,
      "hit": false,
      "t": 18250,
      "d": 250,
      "v": 127
    },
    {
      "midi": 72,
      "hit": false,
      "t": 18500,
      "d": 250,
      "v": 127
    },
    {
      "midi": 70,
      "hit": false,
      "t": 18750,
      "d": 250,
      "v": 127
    },
    {
      "midi": 70,
      "hit": false,
      "t": 19000,
      "d": 500,
      "v": 127
    },
    {
      "midi": 38,
      "hit": false,
      "t": 19000,
      "d": 500,
      "v": 127
    },
    {
      "midi": 50,
      "hit": false,
      "t": 19000,
      "d": 500,
      "v": 127
    },
    {
      "midi": 70,
      "hit": false,
      "t": 19500,
      "d": 500,
      "v": 127
    },
    {
      "midi": 39,
      "hit": false,
      "t": 19500,
      "d": 500,
      "v": 127
    },
    {
      "midi": 51,
      "hit": false,
      "t": 19500,
      "d": 500,
      "v": 127
    },
    {
      "midi": 72,
      "hit": false,
      "t": 20000,
      "d": 750,
      "v": 127
    },
    {
      "midi": 44,
      "hit": false,
      "t": 20000,
      "d": 1500,
      "v": 127
    },
    {
      "midi": 56,
      "hit": false,
      "t": 20000,
      "d": 1500,
      "v": 127
    },
    {
      "midi": 74,
      "hit": false,
      "t": 20750,
      "d": 250,
      "v": 127
    },
    {
      "midi": 75,
      "hit": false,
      "t": 21000,
      "d": 500,
      "v": 127
    },
    {
      "midi": 79,
      "hit": false,
      "t": 21500,
      "d": 250,
      "v": 127
    },
    {
      "midi": 45,
      "hit": false,
      "t": 21500,
      "d": 500,
      "v": 127
    },
    {
      "midi": 57,
      "hit": false,
      "t": 21500,
      "d": 500,
      "v": 127
    },
    {
      "midi": 77,
      "hit": false,
      "t": 21750,
      "d": 250,
      "v": 127
    },
    {
      "midi": 75,
      "hit": false,
      "t": 22000,
      "d": 750,
      "v": 127
    },
    {
      "midi": 46,
      "hit": false,
      "t": 22000,
      "d": 1000,
      "v": 127
    },
    {
      "midi": 58,
      "hit": false,
      "t": 22000,
      "d": 1000,
      "v": 127
    },
    {
      "midi": 77,
      "hit": false,
      "t": 22750,
      "d": 125,
      "v": 127
    },
    {
      "midi": 75,
      "hit": false,
      "t": 22875,
      "d": 125,
      "v": 127
    },
    {
      "midi": 74,
      "hit": false,
      "t": 23000,
      "d": 500,
      "v": 127
    },
    {
      "midi": 70,
      "hit": false,
      "t": 24000,
      "d": 1000,
      "v": 127
    },
    {
      "midi": 39,
      "hit": false,
      "t": 24000,
      "d": 2000,
      "v": 127
    },
    {
      "midi": 51,
      "hit": false,
      "t": 24000,
      "d": 2000,
      "v": 127
    },
    {
      "midi": 74,
      "hit": false,
      "t": 25250,
      "d": 125,
      "v": 127
    },
    {
      "midi": 72,
      "hit": false,
      "t": 25375,
      "d": 125,
      "v": 127
    },
    {
      "midi": 75,
      "hit": false,
      "t": 25500,
      "d": 125,
      "v": 127
    },
    {
      "midi": 74,
      "hit": false,
      "t": 25625,
      "d": 125,
      "v": 127
    },
    {
      "midi": 77,
      "hit": false,
      "t": 25750,
      "d": 125,
      "v": 127
    },
    {
      "midi": 75,
      "hit": false,
      "t": 25875,
      "d": 125,
      "v": 127
    },
    {
      "midi": 75,
      "hit": false,
      "t": 26000,
      "d": 250,
      "v": 127
    },
    {
      "midi": 41,
      "hit": false,
      "t": 26000,
      "d": 500,
      "v": 127
    },
    {
      "midi": 53,
      "hit": false,
      "t": 26000,
      "d": 500,
      "v": 127
    },
    {
      "midi": 74,
      "hit": false,
      "t": 26250,
      "d": 250,
      "v": 127
    },
    {
      "midi": 72,
      "hit": false,
      "t": 26500,
      "d": 250,
      "v": 127
    },
    {
      "midi": 38,
      "hit": false,
      "t": 26500,
      "d": 500,
      "v": 127
    },
    {
      "midi": 50,
      "hit": false,
      "t": 26500,
      "d": 500,
      "v": 127
    },
    {
      "midi": 70,
      "hit": false,
      "t": 26750,
      "d": 250,
      "v": 127
    },
    {
      "midi": 82,
      "hit": false,
      "t": 27000,
      "d": 750,
      "v": 127
    },
    {
      "midi": 34,
      "hit": false,
      "t": 27000,
      "d": 500,
      "v": 127
    },
    {
      "midi": 46,
      "hit": false,
      "t": 27000,
      "d": 500,
      "v": 127
    },
    {
      "midi": 32,
      "hit": false,
      "t": 27500,
      "d": 500,
      "v": 127
    },
    {
      "midi": 44,
      "hit": false,
      "t": 27500,
      "d": 500,
      "v": 127
    },
    {
      "midi": 80,
      "hit": false,
      "t": 27750,
      "d": 125,
      "v": 127
    },
    {
      "midi": 77,
      "hit": false,
      "t": 27875,
      "d": 125,
      "v": 127
    },
    {
      "midi": 75,
      "hit": false,
      "t": 28000,
      "d": 500,
      "v": 127
    },
    {
      "midi": 31,
      "hit": false,
      "t": 28000,
      "d": 500,
      "v": 127
    },
    {
      "midi": 43,
      "hit": false,
      "t": 28000,
      "d": 500,
      "v": 127
    },
    {
      "midi": 75,
      "hit": false,
      "t": 28500,
      "d": 500,
      "v": 127
    },
    {
      "midi": 79,
      "hit": false,
      "t": 29000,
      "d": 375,
      "v": 127
    },
    {
      "midi": 80,
      "hit": false,
      "t": 29375,
      "d": 125,
      "v": 127
    },
    {
      "midi": 77,
      "hit": false,
      "t": 29500,
      "d": 375,
      "v": 127
    },
    {
      "midi": 46,
      "hit": false,
      "t": 29500,
      "d": 500,
      "v": 127
    },
    {
      "midi": 58,
      "hit": false,
      "t": 29500,
      "d": 500,
      "v": 127
    },
    {
      "midi": 79,
      "hit": false,
      "t": 29875,
      "d": 125,
      "v": 127
    },
    {
      "midi": 77,
      "hit": false,
      "t": 30000,
      "d": 1000,
      "v": 127
    },
    {
      "midi": 51,
      "hit": false,
      "t": 30000,
      "d": 500,
      "v": 127
    },
    {
      "midi": 63,
      "hit": false,
      "t": 30000,
      "d": 500,
      "v": 127
    },
    {
      "midi": 46,
      "hit": false,
      "t": 30500,
      "d": 500,
      "v": 127
    },
    {
      "midi": 58,
      "hit": false,
      "t": 30500,
      "d": 500,
      "v": 127
    },
    {
      "midi": 75,
      "hit": false,
      "t": 31000,
      "d": 500,
      "v": 127
    },
    {
      "midi": 39,
      "hit": false,
      "t": 31000,
      "d": 500,
      "v": 127
    },
    {
      "midi": 51,
      "hit": false,
      "t": 31000,
      "d": 500,
      "v": 127
    },
    {
      "midi": 46,
      "hit": false,
      "t": 32000,
      "d": 2000,
      "v": 127
    },
    {
      "midi": 58,
      "hit": false,
      "t": 32250,
      "d": 250,
      "v": 127
    },
    {
      "midi": 62,
      "hit": false,
      "t": 32250,
      "d": 250,
      "v": 127
    },
    {
      "midi": 65,
      "hit": false,
      "t": 32250,
      "d": 250,
      "v": 127
    },
    {
      "midi": 58,
      "hit": false,
      "t": 32500,
      "d": 250,
      "v": 127
    },
    {
      "midi": 62,
      "hit": false,
      "t": 32500,
      "d": 250,
      "v": 127
    },
    {
      "midi": 65,
      "hit": false,
      "t": 32500,
      "d": 250,
      "v": 127
    },
    {
      "midi": 58,
      "hit": false,
      "t": 32750,
      "d": 250,
      "v": 127
    },
    {
      "midi": 62,
      "hit": false,
      "t": 32750,
      "d": 250,
      "v": 127
    },
    {
      "midi": 65,
      "hit": false,
      "t": 32750,
      "d": 250,
      "v": 127
    },
    {
      "midi": 58,
      "hit": false,
      "t": 33000,
      "d": 250,
      "v": 127
    },
    {
      "midi": 62,
      "hit": false,
      "t": 33000,
      "d": 250,
      "v": 127
    },
    {
      "midi": 65,
      "hit": false,
      "t": 33000,
      "d": 250,
      "v": 127
    },
    {
      "midi": 58,
      "hit": false,
      "t": 33250,
      "d": 250,
      "v": 127
    },
    {
      "midi": 62,
      "hit": false,
      "t": 33250,
      "d": 250,
      "v": 127
    },
    {
      "midi": 65,
      "hit": false,
      "t": 33250,
      "d": 250,
      "v": 127
    },
    {
      "midi": 58,
      "hit": false,
      "t": 33500,
      "d": 250,
      "v": 127
    },
    {
      "midi": 62,
      "hit": false,
      "t": 33500,
      "d": 250,
      "v": 127
    },
    {
      "midi": 65,
      "hit": false,
      "t": 33500,
      "d": 250,
      "v": 127
    },
    {
      "midi": 58,
      "hit": false,
      "t": 33750,
      "d": 250,
      "v": 127
    },
    {
      "midi": 62,
      "hit": false,
      "t": 33750,
      "d": 250,
      "v": 127
    },
    {
      "midi": 65,
      "hit": false,
      "t": 33750,
      "d": 250,
      "v": 127
    },
    {
      "midi": 48,
      "hit": false,
      "t": 34000,
      "d": 1000,
      "v": 127
    },
    {
      "midi": 57,
      "hit": false,
      "t": 34250,
      "d": 250,
      "v": 127
    },
    {
      "midi": 60,
      "hit": false,
      "t": 34250,
      "d": 250,
      "v": 127
    },
    {
      "midi": 65,
      "hit": false,
      "t": 34250,
      "d": 250,
      "v": 127
    },
    {
      "midi": 57,
      "hit": false,
      "t": 34500,
      "d": 250,
      "v": 127
    },
    {
      "midi": 60,
      "hit": false,
      "t": 34500,
      "d": 250,
      "v": 127
    },
    {
      "midi": 65,
      "hit": false,
      "t": 34500,
      "d": 250,
      "v": 127
    },
    {
      "midi": 57,
      "hit": false,
      "t": 34750,
      "d": 250,
      "v": 127
    },
    {
      "midi": 60,
      "hit": false,
      "t": 34750,
      "d": 250,
      "v": 127
    },
    {
      "midi": 65,
      "hit": false,
      "t": 34750,
      "d": 250,
      "v": 127
    },
    {
      "midi": 45,
      "hit": false,
      "t": 35000,
      "d": 1000,
      "v": 127
    },
    {
      "midi": 60,
      "hit": false,
      "t": 35250,
      "d": 250,
      "v": 127
    },
    {
      "midi": 63,
      "hit": false,
      "t": 35250,
      "d": 250,
      "v": 127
    },
    {
      "midi": 65,
      "hit": false,
      "t": 35250,
      "d": 250,
      "v": 127
    },
    {
      "midi": 60,
      "hit": false,
      "t": 35500,
      "d": 250,
      "v": 127
    },
    {
      "midi": 63,
      "hit": false,
      "t": 35500,
      "d": 250,
      "v": 127
    },
    {
      "midi": 65,
      "hit": false,
      "t": 35500,
      "d": 250,
      "v": 127
    },
    {
      "midi": 60,
      "hit": false,
      "t": 35750,
      "d": 250,
      "v": 127
    },
    {
      "midi": 63,
      "hit": false,
      "t": 35750,
      "d": 250,
      "v": 127
    },
    {
      "midi": 65,
      "hit": false,
      "t": 35750,
      "d": 250,
      "v": 127
    },
    {
      "midi": 46,
      "hit": false,
      "t": 36000,
      "d": 2000,
      "v": 127
    },
    {
      "midi": 58,
      "hit": false,
      "t": 36250,
      "d": 250,
      "v": 127
    },
    {
      "midi": 62,
      "hit": false,
      "t": 36250,
      "d": 250,
      "v": 127
    },
    {
      "midi": 65,
      "hit": false,
      "t": 36250,
      "d": 250,
      "v": 127
    },
    {
      "midi": 58,
      "hit": false,
      "t": 36500,
      "d": 250,
      "v": 127
    },
    {
      "midi": 62,
      "hit": false,
      "t": 36500,
      "d": 250,
      "v": 127
    },
    {
      "midi": 65,
      "hit": false,
      "t": 36500,
      "d": 250,
      "v": 127
    },
    {
      "midi": 58,
      "hit": false,
      "t": 36750,
      "d": 250,
      "v": 127
    },
    {
      "midi": 62,
      "hit": false,
      "t": 36750,
      "d": 250,
      "v": 127
    },
    {
      "midi": 65,
      "hit": false,
      "t": 36750,
      "d": 250,
      "v": 127
    },
    {
      "midi": 58,
      "hit": false,
      "t": 37000,
      "d": 250,
      "v": 127
    },
    {
      "midi": 62,
      "hit": false,
      "t": 37000,
      "d": 250,
      "v": 127
    },
    {
      "midi": 65,
      "hit": false,
      "t": 37000,
      "d": 250,
      "v": 127
    },
    {
      "midi": 58,
      "hit": false,
      "t": 37250,
      "d": 250,
      "v": 127
    },
    {
      "midi": 62,
      "hit": false,
      "t": 37250,
      "d": 250,
      "v": 127
    },
    {
      "midi": 65,
      "hit": false,
      "t": 37250,
      "d": 250,
      "v": 127
    },
    {
      "midi": 58,
      "hit": false,
      "t": 37500,
      "d": 250,
      "v": 127
    },
    {
      "midi": 62,
      "hit": false,
      "t": 37500,
      "d": 250,
      "v": 127
    },
    {
      "midi": 65,
      "hit": false,
      "t": 37500,
      "d": 250,
      "v": 127
    },
    {
      "midi": 58,
      "hit": false,
      "t": 37750,
      "d": 250,
      "v": 127
    },
    {
      "midi": 62,
      "hit": false,
      "t": 37750,
      "d": 250,
      "v": 127
    },
    {
      "midi": 65,
      "hit": false,
      "t": 37750,
      "d": 250,
      "v": 127
    },
    {
      "midi": 48,
      "hit": false,
      "t": 38000,
      "d": 1000,
      "v": 127
    },
    {
      "midi": 57,
      "hit": false,
      "t": 38250,
      "d": 250,
      "v": 127
    },
    {
      "midi": 60,
      "hit": false,
      "t": 38250,
      "d": 250,
      "v": 127
    },
    {
      "midi": 65,
      "hit": false,
      "t": 38250,
      "d": 250,
      "v": 127
    },
    {
      "midi": 57,
      "hit": false,
      "t": 38500,
      "d": 250,
      "v": 127
    },
    {
      "midi": 60,
      "hit": false,
      "t": 38500,
      "d": 250,
      "v": 127
    },
    {
      "midi": 65,
      "hit": false,
      "t": 38500,
      "d": 250,
      "v": 127
    },
    {
      "midi": 57,
      "hit": false,
      "t": 38750,
      "d": 250,
      "v": 127
    },
    {
      "midi": 60,
      "hit": false,
      "t": 38750,
      "d": 250,
      "v": 127
    },
    {
      "midi": 65,
      "hit": false,
      "t": 38750,
      "d": 250,
      "v": 127
    },
    {
      "midi": 45,
      "hit": false,
      "t": 39000,
      "d": 1000,
      "v": 127
    },
    {
      "midi": 60,
      "hit": false,
      "t": 39250,
      "d": 250,
      "v": 127
    },
    {
      "midi": 63,
      "hit": false,
      "t": 39250,
      "d": 250,
      "v": 127
    },
    {
      "midi": 65,
      "hit": false,
      "t": 39250,
      "d": 250,
      "v": 127
    },
    {
      "midi": 60,
      "hit": false,
      "t": 39500,
      "d": 250,
      "v": 127
    },
    {
      "midi": 63,
      "hit": false,
      "t": 39500,
      "d": 250,
      "v": 127
    },
    {
      "midi": 65,
      "hit": false,
      "t": 39500,
      "d": 250,
      "v": 127
    },
    {
      "midi": 60,
      "hit": false,
      "t": 39750,
      "d": 250,
      "v": 127
    },
    {
      "midi": 63,
      "hit": false,
      "t": 39750,
      "d": 250,
      "v": 127
    },
    {
      "midi": 65,
      "hit": false,
      "t": 39750,
      "d": 250,
      "v": 127
    },
    {
      "midi": 46,
      "hit": false,
      "t": 40000,
      "d": 500,
      "v": 127
    },
    {
      "midi": 58,
      "hit": false,
      "t": 40250,
      "d": 250,
      "v": 127
    },
    {
      "midi": 62,
      "hit": false,
      "t": 40250,
      "d": 250,
      "v": 127
    },
    {
      "midi": 68,
      "hit": false,
      "t": 40500,
      "d": 250,
      "v": 127
    },
    {
      "midi": 38,
      "hit": false,
      "t": 40500,
      "d": 1500,
      "v": 127
    },
    {
      "midi": 50,
      "hit": false,
      "t": 40500,
      "d": 1500,
      "v": 127
    },
    {
      "midi": 58,
      "hit": false,
      "t": 40750,
      "d": 250,
      "v": 127
    },
    {
      "midi": 68,
      "hit": false,
      "t": 41000,
      "d": 250,
      "v": 127
    },
    {
      "midi": 58,
      "hit": false,
      "t": 41250,
      "d": 250,
      "v": 127
    },
    {
      "midi": 68,
      "hit": false,
      "t": 41500,
      "d": 250,
      "v": 127
    },
    {
      "midi": 58,
      "hit": false,
      "t": 41750,
      "d": 250,
      "v": 127
    },
    {
      "midi": 39,
      "hit": false,
      "t": 42000,
      "d": 1000,
      "v": 127
    },
    {
      "midi": 51,
      "hit": false,
      "t": 42000,
      "d": 1000,
      "v": 127
    },
    {
      "midi": 58,
      "hit": false,
      "t": 42250,
      "d": 250,
      "v": 127
    },
    {
      "midi": 63,
      "hit": false,
      "t": 42500,
      "d": 250,
      "v": 127
    },
    {
      "midi": 67,
      "hit": false,
      "t": 42500,
      "d": 250,
      "v": 127
    },
    {
      "midi": 58,
      "hit": false,
      "t": 42750,
      "d": 250,
      "v": 127
    },
    {
      "midi": 40,
      "hit": false,
      "t": 43000,
      "d": 1000,
      "v": 127
    },
    {
      "midi": 52,
      "hit": false,
      "t": 43000,
      "d": 1000,
      "v": 127
    },
    {
      "midi": 58,
      "hit": false,
      "t": 43250,
      "d": 250,
      "v": 127
    },
    {
      "midi": 61,
      "hit": false,
      "t": 43500,
      "d": 250,
      "v": 127
    },
    {
      "midi": 67,
      "hit": false,
      "t": 43500,
      "d": 250,
      "v": 127
    },
    {
      "midi": 58,
      "hit": false,
      "t": 43750,
      "d": 250,
      "v": 127
    },
    {
      "midi": 41,
      "hit": false,
      "t": 44000,
      "d": 1000,
      "v": 127
    },
    {
      "midi": 53,
      "hit": false,
      "t": 44000,
      "d": 1000,
      "v": 127
    },
    {
      "midi": 58,
      "hit": false,
      "t": 44250,
      "d": 250,
      "v": 127
    },
    {
      "midi": 62,
      "hit": false,
      "t": 44500,
      "d": 250,
      "v": 127
    },
    {
      "midi": 65,
      "hit": false,
      "t": 44500,
      "d": 250,
      "v": 127
    },
    {
      "midi": 58,
      "hit": false,
      "t": 44750,
      "d": 250,
      "v": 127
    },
    {
      "midi": 41,
      "hit": false,
      "t": 45000,
      "d": 1000,
      "v": 127
    },
    {
      "midi": 60,
      "hit": false,
      "t": 45250,
      "d": 250,
      "v": 127
    },
    {
      "midi": 63,
      "hit": false,
      "t": 45500,
      "d": 250,
      "v": 127
    },
    {
      "midi": 65,
      "hit": false,
      "t": 45500,
      "d": 250,
      "v": 127
    },
    {
      "midi": 60,
      "hit": false,
      "t": 45750,
      "d": 250,
      "v": 127
    },
    {
      "midi": 70,
      "hit": false,
      "t": 46000,
      "d": 125,
      "v": 127
    },
    {
      "midi": 46,
      "hit": false,
      "t": 46000,
      "d": 500,
      "v": 127
    },
    {
      "midi": 72,
      "hit": false,
      "t": 46125,
      "d": 125,
      "v": 127
    },
    {
      "midi": 70,
      "hit": false,
      "t": 46250,
      "d": 125,
      "v": 127
    },
    {
      "midi": 69,
      "hit": false,
      "t": 46375,
      "d": 125,
      "v": 127
    },
    {
      "midi": 70,
      "hit": false,
      "t": 46500,
      "d": 125,
      "v": 127
    },
    {
      "midi": 74,
      "hit": false,
      "t": 46625,
      "d": 125,
      "v": 127
    },
    {
      "midi": 77,
      "hit": false,
      "t": 46750,
      "d": 125,
      "v": 127
    },
    {
      "midi": 75,
      "hit": false,
      "t": 46875,
      "d": 125,
      "v": 127
    },
    {
      "midi": 74,
      "hit": false,
      "t": 47000,
      "d": 125,
      "v": 127
    },
    {
      "midi": 77,
      "hit": false,
      "t": 47125,
      "d": 125,
      "v": 127
    },
    {
      "midi": 82,
      "hit": false,
      "t": 47250,
      "d": 125,
      "v": 127
    },
    {
      "midi": 81,
      "hit": false,
      "t": 47375,
      "d": 125,
      "v": 127
    },
    {
      "midi": 82,
      "hit": false,
      "t": 47500,
      "d": 125,
      "v": 127
    },
    {
      "midi": 58,
      "hit": false,
      "t": 47500,
      "d": 500,
      "v": 127
    },
    {
      "midi": 62,
      "hit": false,
      "t": 47500,
      "d": 500,
      "v": 127
    },
    {
      "midi": 77,
      "hit": false,
      "t": 47625,
      "d": 125,
      "v": 127
    },
    {
      "midi": 86,
      "hit": false,
      "t": 47750,
      "d": 125,
      "v": 127
    },
    {
      "midi": 82,
      "hit": false,
      "t": 47875,
      "d": 125,
      "v": 127
    },
    {
      "midi": 81,
      "hit": false,
      "t": 48000,
      "d": 125,
      "v": 127
    },
    {
      "midi": 53,
      "hit": false,
      "t": 48000,
      "d": 1000,
      "v": 127
    },
    {
      "midi": 60,
      "hit": false,
      "t": 48000,
      "d": 1000,
      "v": 127
    },
    {
      "midi": 63,
      "hit": false,
      "t": 48000,
      "d": 1000,
      "v": 127
    },
    {
      "midi": 84,
      "hit": false,
      "t": 48125,
      "d": 125,
      "v": 127
    },
    {
      "midi": 87,
      "hit": false,
      "t": 48250,
      "d": 125,
      "v": 127
    },
    {
      "midi": 84,
      "hit": false,
      "t": 48375,
      "d": 125,
      "v": 127
    },
    {
      "midi": 87,
      "hit": false,
      "t": 48500,
      "d": 125,
      "v": 127
    },
    {
      "midi": 84,
      "hit": false,
      "t": 48625,
      "d": 125,
      "v": 127
    },
    {
      "midi": 81,
      "hit": false,
      "t": 48750,
      "d": 125,
      "v": 127
    },
    {
      "midi": 77,
      "hit": false,
      "t": 48875,
      "d": 125,
      "v": 127
    },
    {
      "midi": 75,
      "hit": false,
      "t": 49000,
      "d": 125,
      "v": 127
    },
    {
      "midi": 72,
      "hit": false,
      "t": 49125,
      "d": 125,
      "v": 127
    },
    {
      "midi": 69,
      "hit": false,
      "t": 49250,
      "d": 125,
      "v": 127
    },
    {
      "midi": 72,
      "hit": false,
      "t": 49375,
      "d": 125,
      "v": 127
    },
    {
      "midi": 69,
      "hit": false,
      "t": 49500,
      "d": 125,
      "v": 127
    },
    {
      "midi": 53,
      "hit": false,
      "t": 49500,
      "d": 500,
      "v": 127
    },
    {
      "midi": 60,
      "hit": false,
      "t": 49500,
      "d": 500,
      "v": 127
    },
    {
      "midi": 63,
      "hit": false,
      "t": 49500,
      "d": 500,
      "v": 127
    },
    {
      "midi": 72,
      "hit": false,
      "t": 49625,
      "d": 125,
      "v": 127
    },
    {
      "midi": 75,
      "hit": false,
      "t": 49750,
      "d": 125,
      "v": 127
    },
    {
      "midi": 72,
      "hit": false,
      "t": 49875,
      "d": 125,
      "v": 127
    },
    {
      "midi": 70,
      "hit": false,
      "t": 50000,
      "d": 125,
      "v": 127
    },
    {
      "midi": 58,
      "hit": false,
      "t": 50000,
      "d": 1000,
      "v": 127
    },
    {
      "midi": 62,
      "hit": false,
      "t": 50000,
      "d": 1000,
      "v": 127
    },
    {
      "midi": 72,
      "hit": false,
      "t": 50125,
      "d": 125,
      "v": 127
    },
    {
      "midi": 70,
      "hit": false,
      "t": 50250,
      "d": 125,
      "v": 127
    },
    {
      "midi": 69,
      "hit": false,
      "t": 50375,
      "d": 125,
      "v": 127
    },
    {
      "midi": 70,
      "hit": false,
      "t": 50500,
      "d": 125,
      "v": 127
    },
    {
      "midi": 74,
      "hit": false,
      "t": 50625,
      "d": 125,
      "v": 127
    },
    {
      "midi": 77,
      "hit": false,
      "t": 50750,
      "d": 125,
      "v": 127
    },
    {
      "midi": 75,
      "hit": false,
      "t": 50875,
      "d": 125,
      "v": 127
    },
    {
      "midi": 74,
      "hit": false,
      "t": 51000,
      "d": 125,
      "v": 127
    },
    {
      "midi": 77,
      "hit": false,
      "t": 51125,
      "d": 125,
      "v": 127
    },
    {
      "midi": 82,
      "hit": false,
      "t": 51250,
      "d": 125,
      "v": 127
    },
    {
      "midi": 81,
      "hit": false,
      "t": 51375,
      "d": 125,
      "v": 127
    },
    {
      "midi": 82,
      "hit": false,
      "t": 51500,
      "d": 125,
      "v": 127
    },
    {
      "midi": 58,
      "hit": false,
      "t": 51500,
      "d": 500,
      "v": 127
    },
    {
      "midi": 77,
      "hit": false,
      "t": 51625,
      "d": 125,
      "v": 127
    },
    {
      "midi": 86,
      "hit": false,
      "t": 51750,
      "d": 125,
      "v": 127
    },
    {
      "midi": 82,
      "hit": false,
      "t": 51875,
      "d": 125,
      "v": 127
    },
    {
      "midi": 81,
      "hit": false,
      "t": 52000,
      "d": 125,
      "v": 127
    },
    {
      "midi": 53,
      "hit": false,
      "t": 52000,
      "d": 1000,
      "v": 127
    },
    {
      "midi": 84,
      "hit": false,
      "t": 52125,
      "d": 125,
      "v": 127
    },
    {
      "midi": 87,
      "hit": false,
      "t": 52250,
      "d": 125,
      "v": 127
    },
    {
      "midi": 84,
      "hit": false,
      "t": 52375,
      "d": 125,
      "v": 127
    },
    {
      "midi": 87,
      "hit": false,
      "t": 52500,
      "d": 125,
      "v": 127
    },
    {
      "midi": 84,
      "hit": false,
      "t": 52625,
      "d": 125,
      "v": 127
    },
    {
      "midi": 81,
      "hit": false,
      "t": 52750,
      "d": 125,
      "v": 127
    },
    {
      "midi": 77,
      "hit": false,
      "t": 52875,
      "d": 125,
      "v": 127
    },
    {
      "midi": 75,
      "hit": false,
      "t": 53000,
      "d": 125,
      "v": 127
    },
    {
      "midi": 72,
      "hit": false,
      "t": 53125,
      "d": 125,
      "v": 127
    },
    {
      "midi": 69,
      "hit": false,
      "t": 53250,
      "d": 125,
      "v": 127
    },
    {
      "midi": 72,
      "hit": false,
      "t": 53375,
      "d": 125,
      "v": 127
    },
    {
      "midi": 69,
      "hit": false,
      "t": 53500,
      "d": 125,
      "v": 127
    },
    {
      "midi": 41,
      "hit": false,
      "t": 53500,
      "d": 500,
      "v": 127
    },
    {
      "midi": 72,
      "hit": false,
      "t": 53625,
      "d": 125,
      "v": 127
    },
    {
      "midi": 75,
      "hit": false,
      "t": 53750,
      "d": 125,
      "v": 127
    },
    {
      "midi": 72,
      "hit": false,
      "t": 53875,
      "d": 125,
      "v": 127
    },
    {
      "midi": 70,
      "hit": false,
      "t": 54000,
      "d": 250,
      "v": 127
    },
    {
      "midi": 46,
      "hit": false,
      "t": 54000,
      "d": 1000,
      "v": 127
    },
    {
      "midi": 72,
      "hit": false,
      "t": 54250,
      "d": 125,
      "v": 127
    },
    {
      "midi": 74,
      "hit": false,
      "t": 54375,
      "d": 125,
      "v": 127
    },
    {
      "midi": 75,
      "hit": false,
      "t": 54500,
      "d": 125,
      "v": 127
    },
    {
      "midi": 77,
      "hit": false,
      "t": 54625,
      "d": 125,
      "v": 127
    },
    {
      "midi": 79,
      "hit": false,
      "t": 54750,
      "d": 125,
      "v": 127
    },
    {
      "midi": 81,
      "hit": false,
      "t": 54875,
      "d": 125,
      "v": 127
    },
    {
      "midi": 82,
      "hit": false,
      "t": 55000,
      "d": 125,
      "v": 127
    },
    {
      "midi": 84,
      "hit": false,
      "t": 55125,
      "d": 125,
      "v": 127
    },
    {
      "midi": 86,
      "hit": false,
      "t": 55250,
      "d": 125,
      "v": 127
    },
    {
      "midi": 87,
      "hit": false,
      "t": 55375,
      "d": 125,
      "v": 127
    },
    {
      "midi": 89,
      "hit": false,
      "t": 55500,
      "d": 250,
      "v": 127
    },
    {
      "midi": 70,
      "hit": false,
      "t": 55500,
      "d": 500,
      "v": 127
    },
    {
      "midi": 89,
      "hit": false,
      "t": 55750,
      "d": 250,
      "v": 127
    },
    {
      "midi": 89,
      "hit": false,
      "t": 56000,
      "d": 250,
      "v": 127
    },
    {
      "midi": 63,
      "hit": false,
      "t": 56000,
      "d": 500,
      "v": 127
    },
    {
      "midi": 79,
      "hit": false,
      "t": 56250,
      "d": 500,
      "v": 127
    },
    {
      "midi": 69,
      "hit": false,
      "t": 56500,
      "d": 500,
      "v": 127
    },
    {
      "midi": 87,
      "hit": false,
      "t": 56750,
      "d": 500,
      "v": 127
    },
    {
      "midi": 62,
      "hit": false,
      "t": 57000,
      "d": 500,
      "v": 127
    },
    {
      "midi": 77,
      "hit": false,
      "t": 57250,
      "d": 500,
      "v": 127
    },
    {
      "midi": 67,
      "hit": false,
      "t": 57500,
      "d": 500,
      "v": 127
    },
    {
      "midi": 86,
      "hit": false,
      "t": 57750,
      "d": 250,
      "v": 127
    },
    {
      "midi": 60,
      "hit": false,
      "t": 58000,
      "d": 500,
      "v": 127
    },
    {
      "midi": 75,
      "hit": false,
      "t": 58250,
      "d": 500,
      "v": 127
    },
    {
      "midi": 65,
      "hit": false,
      "t": 58500,
      "d": 500,
      "v": 127
    },
    {
      "midi": 84,
      "hit": false,
      "t": 58750,
      "d": 500,
      "v": 127
    },
    {
      "midi": 58,
      "hit": false,
      "t": 59000,
      "d": 500,
      "v": 127
    },
    {
      "midi": 74,
      "hit": false,
      "t": 59250,
      "d": 250,
      "v": 127
    },
    {
      "midi": 82,
      "hit": false,
      "t": 59500,
      "d": 250,
      "v": 127
    },
    {
      "midi": 62,
      "hit": false,
      "t": 59500,
      "d": 500,
      "v": 127
    },
    {
      "midi": 82,
      "hit": false,
      "t": 59750,
      "d": 250,
      "v": 127
    },
    {
      "midi": 84,
      "hit": false,
      "t": 60000,
      "d": 250,
      "v": 127
    },
    {
      "midi": 43,
      "hit": false,
      "t": 60000,
      "d": 2000,
      "v": 127
    },
    {
      "midi": 55,
      "hit": false,
      "t": 60000,
      "d": 2000,
      "v": 127
    },
    {
      "midi": 82,
      "hit": false,
      "t": 60250,
      "d": 250,
      "v": 127
    },
    {
      "midi": 81,
      "hit": false,
      "t": 60500,
      "d": 250,
      "v": 127
    },
    {
      "midi": 79,
      "hit": false,
      "t": 60750,
      "d": 250,
      "v": 127
    },
    {
      "midi": 79,
      "hit": false,
      "t": 61000,
      "d": 250,
      "v": 127
    },
    {
      "midi": 77,
      "hit": false,
      "t": 61250,
      "d": 250,
      "v": 127
    },
    {
      "midi": 77,
      "hit": false,
      "t": 61500,
      "d": 250,
      "v": 127
    },
    {
      "midi": 76,
      "hit": false,
      "t": 61750,
      "d": 250,
      "v": 127
    },
    {
      "midi": 77,
      "hit": false,
      "t": 62000,
      "d": 500,
      "v": 127
    },
    {
      "midi": 65,
      "hit": false,
      "t": 62000,
      "d": 250,
      "v": 127
    },
    {
      "midi": 72,
      "hit": false,
      "t": 62250,
      "d": 250,
      "v": 127
    },
    {
      "midi": 69,
      "hit": false,
      "t": 62500,
      "d": 250,
      "v": 127
    },
    {
      "midi": 77,
      "hit": false,
      "t": 62750,
      "d": 250,
      "v": 127
    },
    {
      "midi": 72,
      "hit": false,
      "t": 62750,
      "d": 250,
      "v": 127
    },
    {
      "midi": 79,
      "hit": false,
      "t": 63000,
      "d": 250,
      "v": 127
    },
    {
      "midi": 70,
      "hit": false,
      "t": 63000,
      "d": 250,
      "v": 127
    },
    {
      "midi": 81,
      "hit": false,
      "t": 63250,
      "d": 250,
      "v": 127
    },
    {
      "midi": 72,
      "hit": false,
      "t": 63250,
      "d": 250,
      "v": 127
    },
    {
      "midi": 82,
      "hit": false,
      "t": 63500,
      "d": 250,
      "v": 127
    },
    {
      "midi": 67,
      "hit": false,
      "t": 63500,
      "d": 250,
      "v": 127
    },
    {
      "midi": 76,
      "hit": false,
      "t": 63750,
      "d": 250,
      "v": 127
    },
    {
      "midi": 72,
      "hit": false,
      "t": 63750,
      "d": 250,
      "v": 127
    },
    {
      "midi": 77,
      "hit": false,
      "t": 64000,
      "d": 500,
      "v": 127
    },
    {
      "midi": 69,
      "hit": false,
      "t": 64000,
      "d": 250,
      "v": 127
    },
    {
      "midi": 72,
      "hit": false,
      "t": 64250,
      "d": 250,
      "v": 127
    },
    {
      "midi": 69,
      "hit": false,
      "t": 64500,
      "d": 250,
      "v": 127
    },
    {
      "midi": 77,
      "hit": false,
      "t": 64750,
      "d": 250,
      "v": 127
    },
    {
      "midi": 72,
      "hit": false,
      "t": 64750,
      "d": 250,
      "v": 127
    },
    {
      "midi": 78,
      "hit": false,
      "t": 65000,
      "d": 125,
      "v": 127
    },
    {
      "midi": 70,
      "hit": false,
      "t": 65000,
      "d": 250,
      "v": 127
    },
    {
      "midi": 79,
      "hit": false,
      "t": 65125,
      "d": 125,
      "v": 127
    },
    {
      "midi": 80,
      "hit": false,
      "t": 65250,
      "d": 125,
      "v": 127
    },
    {
      "midi": 72,
      "hit": false,
      "t": 65250,
      "d": 250,
      "v": 127
    },
    {
      "midi": 81,
      "hit": false,
      "t": 65375,
      "d": 125,
      "v": 127
    },
    {
      "midi": 82,
      "hit": false,
      "t": 65500,
      "d": 250,
      "v": 127
    },
    {
      "midi": 67,
      "hit": false,
      "t": 65500,
      "d": 250,
      "v": 127
    },
    {
      "midi": 76,
      "hit": false,
      "t": 65750,
      "d": 250,
      "v": 127
    },
    {
      "midi": 72,
      "hit": false,
      "t": 65750,
      "d": 250,
      "v": 127
    },
    {
      "midi": 77,
      "hit": false,
      "t": 66000,
      "d": 500,
      "v": 127
    },
    {
      "midi": 69,
      "hit": false,
      "t": 66000,
      "d": 250,
      "v": 127
    },
    {
      "midi": 72,
      "hit": false,
      "t": 66250,
      "d": 250,
      "v": 127
    },
    {
      "midi": 79,
      "hit": false,
      "t": 66500,
      "d": 375,
      "v": 127
    },
    {
      "midi": 70,
      "hit": false,
      "t": 66500,
      "d": 250,
      "v": 127
    },
    {
      "midi": 72,
      "hit": false,
      "t": 66750,
      "d": 250,
      "v": 127
    },
    {
      "midi": 81,
      "hit": false,
      "t": 66875,
      "d": 125,
      "v": 127
    },
    {
      "midi": 77,
      "hit": false,
      "t": 67000,
      "d": 500,
      "v": 127
    },
    {
      "midi": 69,
      "hit": false,
      "t": 67000,
      "d": 250,
      "v": 127
    },
    {
      "midi": 72,
      "hit": false,
      "t": 67250,
      "d": 250,
      "v": 127
    },
    {
      "midi": 79,
      "hit": false,
      "t": 67500,
      "d": 375,
      "v": 127
    },
    {
      "midi": 70,
      "hit": false,
      "t": 67500,
      "d": 250,
      "v": 127
    },
    {
      "midi": 72,
      "hit": false,
      "t": 67750,
      "d": 250,
      "v": 127
    },
    {
      "midi": 81,
      "hit": false,
      "t": 67875,
      "d": 125,
      "v": 127
    },
    {
      "midi": 77,
      "hit": false,
      "t": 68000,
      "d": 500,
      "v": 127
    },
    {
      "midi": 69,
      "hit": false,
      "t": 68000,
      "d": 500,
      "v": 127
    },
    {
      "midi": 46,
      "hit": false,
      "t": 70000,
      "d": 1000,
      "v": 127
    },
    {
      "midi": 77,
      "hit": false,
      "t": 70250,
      "d": 250,
      "v": 127
    },
    {
      "midi": 70,
      "hit": false,
      "t": 70500,
      "d": 250,
      "v": 127
    },
    {
      "midi": 74,
      "hit": false,
      "t": 70750,
      "d": 250,
      "v": 127
    },
    {
      "midi": 65,
      "hit": false,
      "t": 71000,
      "d": 250,
      "v": 127
    },
    {
      "midi": 50,
      "hit": false,
      "t": 71000,
      "d": 1000,
      "v": 127
    },
    {
      "midi": 70,
      "hit": false,
      "t": 71250,
      "d": 250,
      "v": 127
    },
    {
      "midi": 62,
      "hit": false,
      "t": 71500,
      "d": 250,
      "v": 127
    },
    {
      "midi": 65,
      "hit": false,
      "t": 71750,
      "d": 250,
      "v": 127
    },
    {
      "midi": 51,
      "hit": false,
      "t": 72000,
      "d": 500,
      "v": 127
    },
    {
      "midi": 53,
      "hit": false,
      "t": 72250,
      "d": 250,
      "v": 127
    },
    {
      "midi": 60,
      "hit": false,
      "t": 72500,
      "d": 250,
      "v": 127
    },
    {
      "midi": 48,
      "hit": false,
      "t": 72500,
      "d": 500,
      "v": 127
    },
    {
      "midi": 57,
      "hit": false,
      "t": 72750,
      "d": 250,
      "v": 127
    },
    {
      "midi": 63,
      "hit": false,
      "t": 73000,
      "d": 250,
      "v": 127
    },
    {
      "midi": 45,
      "hit": false,
      "t": 73000,
      "d": 500,
      "v": 127
    },
    {
      "midi": 60,
      "hit": false,
      "t": 73250,
      "d": 250,
      "v": 127
    },
    {
      "midi": 69,
      "hit": false,
      "t": 73500,
      "d": 250,
      "v": 127
    },
    {
      "midi": 41,
      "hit": false,
      "t": 73500,
      "d": 500,
      "v": 127
    },
    {
      "midi": 65,
      "hit": false,
      "t": 73750,
      "d": 250,
      "v": 127
    },
    {
      "midi": 34,
      "hit": false,
      "t": 74000,
      "d": 1000,
      "v": 127
    },
    {
      "midi": 70,
      "hit": false,
      "t": 74250,
      "d": 250,
      "v": 127
    },
    {
      "midi": 62,
      "hit": false,
      "t": 74500,
      "d": 250,
      "v": 127
    },
    {
      "midi": 65,
      "hit": false,
      "t": 74750,
      "d": 250,
      "v": 127
    },
    {
      "midi": 58,
      "hit": false,
      "t": 75000,
      "d": 250,
      "v": 127
    },
    {
      "midi": 38,
      "hit": false,
      "t": 75000,
      "d": 1000,
      "v": 127
    },
    {
      "midi": 62,
      "hit": false,
      "t": 75250,
      "d": 250,
      "v": 127
    },
    {
      "midi": 53,
      "hit": false,
      "t": 75500,
      "d": 250,
      "v": 127
    },
    {
      "midi": 58,
      "hit": false,
      "t": 75750,
      "d": 250,
      "v": 127
    },
    {
      "midi": 39,
      "hit": false,
      "t": 76000,
      "d": 500,
      "v": 127
    },
    {
      "midi": 53,
      "hit": false,
      "t": 76250,
      "d": 250,
      "v": 127
    },
    {
      "midi": 60,
      "hit": false,
      "t": 76500,
      "d": 250,
      "v": 127
    },
    {
      "midi": 36,
      "hit": false,
      "t": 76500,
      "d": 500,
      "v": 127
    },
    {
      "midi": 57,
      "hit": false,
      "t": 76750,
      "d": 250,
      "v": 127
    },
    {
      "midi": 63,
      "hit": false,
      "t": 77000,
      "d": 250,
      "v": 127
    },
    {
      "midi": 33,
      "hit": false,
      "t": 77000,
      "d": 500,
      "v": 127
    },
    {
      "midi": 60,
      "hit": false,
      "t": 77250,
      "d": 250,
      "v": 127
    },
    {
      "midi": 69,
      "hit": false,
      "t": 77500,
      "d": 250,
      "v": 127
    },
    {
      "midi": 29,
      "hit": false,
      "t": 77500,
      "d": 500,
      "v": 127
    },
    {
      "midi": 65,
      "hit": false,
      "t": 77750,
      "d": 250,
      "v": 127
    },
    {
      "midi": 46,
      "hit": false,
      "t": 78000,
      "d": 500,
      "v": 127
    },
    {
      "midi": 58,
      "hit": false,
      "t": 78000,
      "d": 500,
      "v": 127
    },
    {
      "midi": 62,
      "hit": false,
      "t": 78250,
      "d": 250,
      "v": 127
    },
    {
      "midi": 65,
      "hit": false,
      "t": 78500,
      "d": 250,
      "v": 127
    },
    {
      "midi": 44,
      "hit": false,
      "t": 78500,
      "d": 500,
      "v": 127
    },
    {
      "midi": 56,
      "hit": false,
      "t": 78500,
      "d": 500,
      "v": 127
    },
    {
      "midi": 70,
      "hit": false,
      "t": 78750,
      "d": 250,
      "v": 127
    },
    {
      "midi": 74,
      "hit": false,
      "t": 79000,
      "d": 250,
      "v": 127
    },
    {
      "midi": 43,
      "hit": false,
      "t": 79000,
      "d": 1000,
      "v": 127
    },
    {
      "midi": 55,
      "hit": false,
      "t": 79000,
      "d": 1000,
      "v": 127
    },
    {
      "midi": 77,
      "hit": false,
      "t": 79250,
      "d": 250,
      "v": 127
    },
    {
      "midi": 75,
      "hit": false,
      "t": 79500,
      "d": 250,
      "v": 127
    },
    {
      "midi": 74,
      "hit": false,
      "t": 79750,
      "d": 250,
      "v": 127
    },
    {
      "midi": 72,
      "hit": false,
      "t": 80000,
      "d": 250,
      "v": 127
    },
    {
      "midi": 36,
      "hit": false,
      "t": 80000,
      "d": 500,
      "v": 127
    },
    {
      "midi": 48,
      "hit": false,
      "t": 80000,
      "d": 500,
      "v": 127
    },
    {
      "midi": 75,
      "hit": false,
      "t": 80250,
      "d": 250,
      "v": 127
    },
    {
      "midi": 72,
      "hit": false,
      "t": 80500,
      "d": 250,
      "v": 127
    },
    {
      "midi": 41,
      "hit": false,
      "t": 80500,
      "d": 500,
      "v": 127
    },
    {
      "midi": 53,
      "hit": false,
      "t": 80500,
      "d": 500,
      "v": 127
    },
    {
      "midi": 69,
      "hit": false,
      "t": 80750,
      "d": 250,
      "v": 127
    },
    {
      "midi": 77,
      "hit": false,
      "t": 81000,
      "d": 500,
      "v": 127
    },
    {
      "midi": 34,
      "hit": false,
      "t": 81000,
      "d": 500,
      "v": 127
    },
    {
      "midi": 46,
      "hit": false,
      "t": 81000,
      "d": 500,
      "v": 127
    },
    {
      "midi": 51,
      "hit": false,
      "t": 82500,
      "d": 500,
      "v": 127
    },
    {
      "midi": 53,
      "hit": false,
      "t": 83000,
      "d": 500,
      "v": 127
    },
    {
      "midi": 41,
      "hit": false,
      "t": 83500,
      "d": 500,
      "v": 127
    },
    {
      "midi": 70,
      "hit": false,
      "t": 84000,
      "d": 125,
      "v": 127
    },
    {
      "midi": 46,
      "hit": false,
      "t": 84000,
      "d": 500,
      "v": 127
    },
    {
      "midi": 72,
      "hit": false,
      "t": 84125,
      "d": 125,
      "v": 127
    },
    {
      "midi": 70,
      "hit": false,
      "t": 84250,
      "d": 125,
      "v": 127
    },
    {
      "midi": 69,
      "hit": false,
      "t": 84375,
      "d": 125,
      "v": 127
    },
    {
      "midi": 70,
      "hit": false,
      "t": 84500,
      "d": 125,
      "v": 127
    },
    {
      "midi": 72,
      "hit": false,
      "t": 84625,
      "d": 125,
      "v": 127
    },
    {
      "midi": 74,
      "hit": false,
      "t": 84750,
      "d": 125,
      "v": 127
    },
    {
      "midi": 75,
      "hit": false,
      "t": 84875,
      "d": 125,
      "v": 127
    },
    {
      "midi": 77,
      "hit": false,
      "t": 85000,
      "d": 125,
      "v": 127
    },
    {
      "midi": 59,
      "hit": false,
      "t": 85000,
      "d": 1000,
      "v": 127
    },
    {
      "midi": 62,
      "hit": false,
      "t": 85000,
      "d": 1000,
      "v": 127
    },
    {
      "midi": 79,
      "hit": false,
      "t": 85125,
      "d": 125,
      "v": 127
    },
    {
      "midi": 80,
      "hit": false,
      "t": 85250,
      "d": 125,
      "v": 127
    },
    {
      "midi": 79,
      "hit": false,
      "t": 85375,
      "d": 125,
      "v": 127
    },
    {
      "midi": 82,
      "hit": false,
      "t": 85500,
      "d": 125,
      "v": 127
    },
    {
      "midi": 80,
      "hit": false,
      "t": 85625,
      "d": 125,
      "v": 127
    },
    {
      "midi": 79,
      "hit": false,
      "t": 85750,
      "d": 125,
      "v": 127
    },
    {
      "midi": 77,
      "hit": false,
      "t": 85875,
      "d": 125,
      "v": 127
    },
    {
      "midi": 75,
      "hit": false,
      "t": 86000,
      "d": 125,
      "v": 127
    },
    {
      "midi": 60,
      "hit": false,
      "t": 86000,
      "d": 500,
      "v": 127
    },
    {
      "midi": 67,
      "hit": false,
      "t": 86000,
      "d": 500,
      "v": 127
    },
    {
      "midi": 77,
      "hit": false,
      "t": 86125,
      "d": 125,
      "v": 127
    },
    {
      "midi": 79,
      "hit": false,
      "t": 86250,
      "d": 125,
      "v": 127
    },
    {
      "midi": 77,
      "hit": false,
      "t": 86375,
      "d": 125,
      "v": 127
    },
    {
      "midi": 81,
      "hit": false,
      "t": 86500,
      "d": 125,
      "v": 127
    },
    {
      "midi": 57,
      "hit": false,
      "t": 86500,
      "d": 500,
      "v": 127
    },
    {
      "midi": 60,
      "hit": false,
      "t": 86500,
      "d": 500,
      "v": 127
    },
    {
      "midi": 79,
      "hit": false,
      "t": 86625,
      "d": 125,
      "v": 127
    },
    {
      "midi": 77,
      "hit": false,
      "t": 86750,
      "d": 125,
      "v": 127
    },
    {
      "midi": 75,
      "hit": false,
      "t": 86875,
      "d": 125,
      "v": 127
    },
    {
      "midi": 74,
      "hit": false,
      "t": 87000,
      "d": 125,
      "v": 127
    },
    {
      "midi": 65,
      "hit": false,
      "t": 87000,
      "d": 500,
      "v": 127
    },
    {
      "midi": 75,
      "hit": false,
      "t": 87125,
      "d": 125,
      "v": 127
    },
    {
      "midi": 77,
      "hit": false,
      "t": 87250,
      "d": 125,
      "v": 127
    },
    {
      "midi": 75,
      "hit": false,
      "t": 87375,
      "d": 125,
      "v": 127
    },
    {
      "midi": 79,
      "hit": false,
      "t": 87500,
      "d": 125,
      "v": 127
    },
    {
      "midi": 62,
      "hit": false,
      "t": 87500,
      "d": 500,
      "v": 127
    },
    {
      "midi": 77,
      "hit": false,
      "t": 87625,
      "d": 125,
      "v": 127
    },
    {
      "midi": 75,
      "hit": false,
      "t": 87750,
      "d": 125,
      "v": 127
    },
    {
      "midi": 74,
      "hit": false,
      "t": 87875,
      "d": 125,
      "v": 127
    },
    {
      "midi": 72,
      "hit": false,
      "t": 88000,
      "d": 125,
      "v": 127
    },
    {
      "midi": 51,
      "hit": false,
      "t": 88000,
      "d": 500,
      "v": 127
    },
    {
      "midi": 55,
      "hit": false,
      "t": 88000,
      "d": 500,
      "v": 127
    },
    {
      "midi": 60,
      "hit": false,
      "t": 88000,
      "d": 500,
      "v": 127
    },
    {
      "midi": 74,
      "hit": false,
      "t": 88125,
      "d": 125,
      "v": 127
    },
    {
      "midi": 72,
      "hit": false,
      "t": 88250,
      "d": 125,
      "v": 127
    },
    {
      "midi": 71,
      "hit": false,
      "t": 88375,
      "d": 125,
      "v": 127
    },
    {
      "midi": 72,
      "hit": false,
      "t": 88500,
      "d": 125,
      "v": 127
    },
    {
      "midi": 74,
      "hit": false,
      "t": 88625,
      "d": 125,
      "v": 127
    },
    {
      "midi": 75,
      "hit": false,
      "t": 88750,
      "d": 125,
      "v": 127
    },
    {
      "midi": 77,
      "hit": false,
      "t": 88875,
      "d": 125,
      "v": 127
    },
    {
      "midi": 79,
      "hit": false,
      "t": 89000,
      "d": 125,
      "v": 127
    },
    {
      "midi": 75,
      "hit": false,
      "t": 89125,
      "d": 125,
      "v": 127
    },
    {
      "midi": 77,
      "hit": false,
      "t": 89250,
      "d": 125,
      "v": 127
    },
    {
      "midi": 74,
      "hit": false,
      "t": 89375,
      "d": 125,
      "v": 127
    },
    {
      "midi": 75,
      "hit": false,
      "t": 89500,
      "d": 125,
      "v": 127
    },
    {
      "midi": 72,
      "hit": false,
      "t": 89625,
      "d": 125,
      "v": 127
    },
    {
      "midi": 74,
      "hit": false,
      "t": 89750,
      "d": 125,
      "v": 127
    },
    {
      "midi": 53,
      "hit": false,
      "t": 89750,
      "d": 250,
      "v": 127
    },
    {
      "midi": 56,
      "hit": false,
      "t": 89750,
      "d": 250,
      "v": 127
    },
    {
      "midi": 71,
      "hit": false,
      "t": 89875,
      "d": 125,
      "v": 127
    },
    {
      "midi": 72,
      "hit": false,
      "t": 90000,
      "d": 125,
      "v": 127
    },
    {
      "midi": 51,
      "hit": false,
      "t": 90000,
      "d": 500,
      "v": 127
    },
    {
      "midi": 55,
      "hit": false,
      "t": 90000,
      "d": 500,
      "v": 127
    },
    {
      "midi": 74,
      "hit": false,
      "t": 90125,
      "d": 125,
      "v": 127
    },
    {
      "midi": 72,
      "hit": false,
      "t": 90250,
      "d": 125,
      "v": 127
    },
    {
      "midi": 71,
      "hit": false,
      "t": 90375,
      "d": 125,
      "v": 127
    },
    {
      "midi": 72,
      "hit": false,
      "t": 90500,
      "d": 125,
      "v": 127
    },
    {
      "midi": 74,
      "hit": false,
      "t": 90625,
      "d": 125,
      "v": 127
    },
    {
      "midi": 75,
      "hit": false,
      "t": 90750,
      "d": 125,
      "v": 127
    },
    {
      "midi": 77,
      "hit": false,
      "t": 90875,
      "d": 125,
      "v": 127
    },
    {
      "midi": 79,
      "hit": false,
      "t": 91000,
      "d": 125,
      "v": 127
    },
    {
      "midi": 75,
      "hit": false,
      "t": 91125,
      "d": 125,
      "v": 127
    },
    {
      "midi": 77,
      "hit": false,
      "t": 91250,
      "d": 125,
      "v": 127
    },
    {
      "midi": 74,
      "hit": false,
      "t": 91375,
      "d": 125,
      "v": 127
    },
    {
      "midi": 75,
      "hit": false,
      "t": 91500,
      "d": 125,
      "v": 127
    },
    {
      "midi": 72,
      "hit": false,
      "t": 91625,
      "d": 125,
      "v": 127
    },
    {
      "midi": 74,
      "hit": false,
      "t": 91750,
      "d": 125,
      "v": 127
    },
    {
      "midi": 53,
      "hit": false,
      "t": 91750,
      "d": 250,
      "v": 127
    },
    {
      "midi": 56,
      "hit": false,
      "t": 91750,
      "d": 250,
      "v": 127
    },
    {
      "midi": 71,
      "hit": false,
      "t": 91875,
      "d": 125,
      "v": 127
    },
    {
      "midi": 72,
      "hit": false,
      "t": 92000,
      "d": 125,
      "v": 127
    },
    {
      "midi": 55,
      "hit": false,
      "t": 92000,
      "d": 1000,
      "v": 127
    },
    {
      "midi": 74,
      "hit": false,
      "t": 92125,
      "d": 125,
      "v": 127
    },
    {
      "midi": 72,
      "hit": false,
      "t": 92250,
      "d": 125,
      "v": 127
    },
    {
      "midi": 71,
      "hit": false,
      "t": 92375,
      "d": 125,
      "v": 127
    },
    {
      "midi": 72,
      "hit": false,
      "t": 92500,
      "d": 125,
      "v": 127
    },
    {
      "midi": 75,
      "hit": false,
      "t": 92625,
      "d": 125,
      "v": 127
    },
    {
      "midi": 74,
      "hit": false,
      "t": 92750,
      "d": 125,
      "v": 127
    },
    {
      "midi": 77,
      "hit": false,
      "t": 92875,
      "d": 125,
      "v": 127
    },
    {
      "midi": 75,
      "hit": false,
      "t": 93000,
      "d": 125,
      "v": 127
    },
    {
      "midi": 60,
      "hit": false,
      "t": 93000,
      "d": 1000,
      "v": 127
    },
    {
      "midi": 77,
      "hit": false,
      "t": 93125,
      "d": 125,
      "v": 127
    },
    {
      "midi": 75,
      "hit": false,
      "t": 93250,
      "d": 125,
      "v": 127
    },
    {
      "midi": 74,
      "hit": false,
      "t": 93375,
      "d": 125,
      "v": 127
    },
    {
      "midi": 75,
      "hit": false,
      "t": 93500,
      "d": 125,
      "v": 127
    },
    {
      "midi": 79,
      "hit": false,
      "t": 93625,
      "d": 125,
      "v": 127
    },
    {
      "midi": 77,
      "hit": false,
      "t": 93750,
      "d": 125,
      "v": 127
    },
    {
      "midi": 80,
      "hit": false,
      "t": 93875,
      "d": 125,
      "v": 127
    },
    {
      "midi": 79,
      "hit": false,
      "t": 94000,
      "d": 125,
      "v": 127
    },
    {
      "midi": 63,
      "hit": false,
      "t": 94000,
      "d": 1000,
      "v": 127
    },
    {
      "midi": 81,
      "hit": false,
      "t": 94125,
      "d": 125,
      "v": 127
    },
    {
      "midi": 79,
      "hit": false,
      "t": 94250,
      "d": 125,
      "v": 127
    },
    {
      "midi": 78,
      "hit": false,
      "t": 94375,
      "d": 125,
      "v": 127
    },
    {
      "midi": 79,
      "hit": false,
      "t": 94500,
      "d": 125,
      "v": 127
    },
    {
      "midi": 82,
      "hit": false,
      "t": 94625,
      "d": 125,
      "v": 127
    },
    {
      "midi": 81,
      "hit": false,
      "t": 94750,
      "d": 125,
      "v": 127
    },
    {
      "midi": 84,
      "hit": false,
      "t": 94875,
      "d": 125,
      "v": 127
    },
    {
      "midi": 82,
      "hit": false,
      "t": 95000,
      "d": 125,
      "v": 127
    },
    {
      "midi": 78,
      "hit": false,
      "t": 95125,
      "d": 125,
      "v": 127
    },
    {
      "midi": 79,
      "hit": false,
      "t": 95250,
      "d": 125,
      "v": 127
    },
    {
      "midi": 74,
      "hit": false,
      "t": 95375,
      "d": 125,
      "v": 127
    },
    {
      "midi": 75,
      "hit": false,
      "t": 95500,
      "d": 125,
      "v": 127
    },
    {
      "midi": 71,
      "hit": false,
      "t": 95625,
      "d": 125,
      "v": 127
    },
    {
      "midi": 72,
      "hit": false,
      "t": 95750,
      "d": 125,
      "v": 127
    },
    {
      "midi": 75,
      "hit": false,
      "t": 95875,
      "d": 125,
      "v": 127
    },
    {
      "midi": 65,
      "hit": false,
      "t": 96000,
      "d": 250,
      "v": 127
    },
    {
      "midi": 53,
      "hit": false,
      "t": 96000,
      "d": 250,
      "v": 127
    },
    {
      "midi": 67,
      "hit": false,
      "t": 96250,
      "d": 125,
      "v": 127
    },
    {
      "midi": 58,
      "hit": false,
      "t": 96250,
      "d": 250,
      "v": 127
    },
    {
      "midi": 62,
      "hit": false,
      "t": 96250,
      "d": 250,
      "v": 127
    },
    {
      "midi": 69,
      "hit": false,
      "t": 96375,
      "d": 125,
      "v": 127
    },
    {
      "midi": 70,
      "hit": false,
      "t": 96500,
      "d": 125,
      "v": 127
    },
    {
      "midi": 58,
      "hit": false,
      "t": 96500,
      "d": 250,
      "v": 127
    },
    {
      "midi": 62,
      "hit": false,
      "t": 96500,
      "d": 250,
      "v": 127
    },
    {
      "midi": 72,
      "hit": false,
      "t": 96625,
      "d": 125,
      "v": 127
    },
    {
      "midi": 74,
      "hit": false,
      "t": 96750,
      "d": 125,
      "v": 127
    },
    {
      "midi": 58,
      "hit": false,
      "t": 96750,
      "d": 250,
      "v": 127
    },
    {
      "midi": 62,
      "hit": false,
      "t": 96750,
      "d": 250,
      "v": 127
    },
    {
      "midi": 75,
      "hit": false,
      "t": 96875,
      "d": 125,
      "v": 127
    },
    {
      "midi": 77,
      "hit": false,
      "t": 97000,
      "d": 125,
      "v": 127
    },
    {
      "midi": 53,
      "hit": false,
      "t": 97000,
      "d": 250,
      "v": 127
    },
    {
      "midi": 75,
      "hit": false,
      "t": 97125,
      "d": 125,
      "v": 127
    },
    {
      "midi": 74,
      "hit": false,
      "t": 97250,
      "d": 125,
      "v": 127
    },
    {
      "midi": 58,
      "hit": false,
      "t": 97250,
      "d": 250,
      "v": 127
    },
    {
      "midi": 62,
      "hit": false,
      "t": 97250,
      "d": 250,
      "v": 127
    },
    {
      "midi": 75,
      "hit": false,
      "t": 97375,
      "d": 125,
      "v": 127
    },
    {
      "midi": 77,
      "hit": false,
      "t": 97500,
      "d": 125,
      "v": 127
    },
    {
      "midi": 58,
      "hit": false,
      "t": 97500,
      "d": 250,
      "v": 127
    },
    {
      "midi": 62,
      "hit": false,
      "t": 97500,
      "d": 250,
      "v": 127
    },
    {
      "midi": 79,
      "hit": false,
      "t": 97625,
      "d": 125,
      "v": 127
    },
    {
      "midi": 81,
      "hit": false,
      "t": 97750,
      "d": 125,
      "v": 127
    },
    {
      "midi": 58,
      "hit": false,
      "t": 97750,
      "d": 250,
      "v": 127
    },
    {
      "midi": 62,
      "hit": false,
      "t": 97750,
      "d": 250,
      "v": 127
    },
    {
      "midi": 82,
      "hit": false,
      "t": 97875,
      "d": 125,
      "v": 127
    },
    {
      "midi": 72,
      "hit": false,
      "t": 98000,
      "d": 1500,
      "v": 127
    },
    {
      "midi": 53,
      "hit": false,
      "t": 98000,
      "d": 250,
      "v": 127
    },
    {
      "midi": 57,
      "hit": false,
      "t": 98250,
      "d": 250,
      "v": 127
    },
    {
      "midi": 63,
      "hit": false,
      "t": 98250,
      "d": 250,
      "v": 127
    },
    {
      "midi": 57,
      "hit": false,
      "t": 98500,
      "d": 250,
      "v": 127
    },
    {
      "midi": 63,
      "hit": false,
      "t": 98500,
      "d": 250,
      "v": 127
    },
    {
      "midi": 57,
      "hit": false,
      "t": 98750,
      "d": 250,
      "v": 127
    },
    {
      "midi": 63,
      "hit": false,
      "t": 98750,
      "d": 250,
      "v": 127
    },
    {
      "midi": 53,
      "hit": false,
      "t": 99000,
      "d": 250,
      "v": 127
    },
    {
      "midi": 57,
      "hit": false,
      "t": 99250,
      "d": 250,
      "v": 127
    },
    {
      "midi": 63,
      "hit": false,
      "t": 99250,
      "d": 250,
      "v": 127
    },
    {
      "midi": 57,
      "hit": false,
      "t": 99500,
      "d": 250,
      "v": 127
    },
    {
      "midi": 63,
      "hit": false,
      "t": 99500,
      "d": 250,
      "v": 127
    },
    {
      "midi": 70,
      "hit": false,
      "t": 99750,
      "d": 250,
      "v": 127
    },
    {
      "midi": 57,
      "hit": false,
      "t": 99750,
      "d": 250,
      "v": 127
    },
    {
      "midi": 63,
      "hit": false,
      "t": 99750,
      "d": 250,
      "v": 127
    },
    {
      "midi": 70,
      "hit": false,
      "t": 100000,
      "d": 500,
      "v": 127
    },
    {
      "midi": 58,
      "hit": false,
      "t": 100000,
      "d": 250,
      "v": 127
    },
    {
      "midi": 62,
      "hit": false,
      "t": 100000,
      "d": 250,
      "v": 127
    },
    {
      "midi": 58,
      "hit": false,
      "t": 100250,
      "d": 250,
      "v": 127
    },
    {
      "midi": 62,
      "hit": false,
      "t": 100250,
      "d": 250,
      "v": 127
    },
    {
      "midi": 58,
      "hit": false,
      "t": 100500,
      "d": 500,
      "v": 127
    },
    {
      "midi": 62,
      "hit": false,
      "t": 100500,
      "d": 500,
      "v": 127
    },
    {
      "midi": 69,
      "hit": false,
      "t": 100750,
      "d": 125,
      "v": 127
    },
    {
      "midi": 70,
      "hit": false,
      "t": 100875,
      "d": 125,
      "v": 127
    },
    {
      "midi": 72,
      "hit": false,
      "t": 101000,
      "d": 125,
      "v": 127
    },
    {
      "midi": 70,
      "hit": false,
      "t": 101125,
      "d": 125,
      "v": 127
    },
    {
      "midi": 69,
      "hit": false,
      "t": 101250,
      "d": 125,
      "v": 127
    },
    {
      "midi": 70,
      "hit": false,
      "t": 101375,
      "d": 125,
      "v": 127
    },
    {
      "midi": 72,
      "hit": false,
      "t": 101500,
      "d": 125,
      "v": 127
    },
    {
      "midi": 70,
      "hit": false,
      "t": 101625,
      "d": 125,
      "v": 127
    },
    {
      "midi": 75,
      "hit": false,
      "t": 101750,
      "d": 125,
      "v": 127
    },
    {
      "midi": 74,
      "hit": false,
      "t": 101875,
      "d": 125,
      "v": 127
    },
    {
      "midi": 72,
      "hit": false,
      "t": 102000,
      "d": 125,
      "v": 127
    },
    {
      "midi": 58,
      "hit": false,
      "t": 102000,
      "d": 250,
      "v": 127
    },
    {
      "midi": 63,
      "hit": false,
      "t": 102000,
      "d": 250,
      "v": 127
    },
    {
      "midi": 74,
      "hit": false,
      "t": 102125,
      "d": 125,
      "v": 127
    },
    {
      "midi": 71,
      "hit": false,
      "t": 102250,
      "d": 125,
      "v": 127
    },
    {
      "midi": 58,
      "hit": false,
      "t": 102250,
      "d": 250,
      "v": 127
    },
    {
      "midi": 63,
      "hit": false,
      "t": 102250,
      "d": 250,
      "v": 127
    },
    {
      "midi": 74,
      "hit": false,
      "t": 102375,
      "d": 125,
      "v": 127
    },
    {
      "midi": 72,
      "hit": false,
      "t": 102500,
      "d": 250,
      "v": 127
    },
    {
      "midi": 58,
      "hit": false,
      "t": 102500,
      "d": 500,
      "v": 127
    },
    {
      "midi": 63,
      "hit": false,
      "t": 102500,
      "d": 500,
      "v": 127
    },
    {
      "midi": 71,
      "hit": false,
      "t": 102750,
      "d": 125,
      "v": 127
    },
    {
      "midi": 72,
      "hit": false,
      "t": 102875,
      "d": 125,
      "v": 127
    },
    {
      "midi": 74,
      "hit": false,
      "t": 103000,
      "d": 125,
      "v": 127
    },
    {
      "midi": 72,
      "hit": false,
      "t": 103125,
      "d": 125,
      "v": 127
    },
    {
      "midi": 71,
      "hit": false,
      "t": 103250,
      "d": 125,
      "v": 127
    },
    {
      "midi": 72,
      "hit": false,
      "t": 103375,
      "d": 125,
      "v": 127
    },
    {
      "midi": 74,
      "hit": false,
      "t": 103500,
      "d": 125,
      "v": 127
    },
    {
      "midi": 72,
      "hit": false,
      "t": 103625,
      "d": 125,
      "v": 127
    },
    {
      "midi": 77,
      "hit": false,
      "t": 103750,
      "d": 125,
      "v": 127
    },
    {
      "midi": 75,
      "hit": false,
      "t": 103875,
      "d": 125,
      "v": 127
    },
    {
      "midi": 74,
      "hit": false,
      "t": 104000,
      "d": 125,
      "v": 127
    },
    {
      "midi": 58,
      "hit": false,
      "t": 104000,
      "d": 250,
      "v": 127
    },
    {
      "midi": 65,
      "hit": false,
      "t": 104000,
      "d": 250,
      "v": 127
    },
    {
      "midi": 75,
      "hit": false,
      "t": 104125,
      "d": 125,
      "v": 127
    },
    {
      "midi": 72,
      "hit": false,
      "t": 104250,
      "d": 125,
      "v": 127
    },
    {
      "midi": 58,
      "hit": false,
      "t": 104250,
      "d": 250,
      "v": 127
    },
    {
      "midi": 65,
      "hit": false,
      "t": 104250,
      "d": 250,
      "v": 127
    },
    {
      "midi": 75,
      "hit": false,
      "t": 104375,
      "d": 125,
      "v": 127
    },
    {
      "midi": 74,
      "hit": false,
      "t": 104500,
      "d": 125,
      "v": 127
    },
    {
      "midi": 58,
      "hit": false,
      "t": 104500,
      "d": 500,
      "v": 127
    },
    {
      "midi": 65,
      "hit": false,
      "t": 104500,
      "d": 500,
      "v": 127
    },
    {
      "midi": 75,
      "hit": false,
      "t": 104625,
      "d": 125,
      "v": 127
    },
    {
      "midi": 77,
      "hit": false,
      "t": 104750,
      "d": 125,
      "v": 127
    },
    {
      "midi": 74,
      "hit": false,
      "t": 104875,
      "d": 125,
      "v": 127
    },
    {
      "midi": 75,
      "hit": false,
      "t": 105000,
      "d": 125,
      "v": 127
    },
    {
      "midi": 58,
      "hit": false,
      "t": 105000,
      "d": 250,
      "v": 127
    },
    {
      "midi": 67,
      "hit": false,
      "t": 105000,
      "d": 250,
      "v": 127
    },
    {
      "midi": 77,
      "hit": false,
      "t": 105125,
      "d": 125,
      "v": 127
    },
    {
      "midi": 74,
      "hit": false,
      "t": 105250,
      "d": 125,
      "v": 127
    },
    {
      "midi": 58,
      "hit": false,
      "t": 105250,
      "d": 250,
      "v": 127
    },
    {
      "midi": 67,
      "hit": false,
      "t": 105250,
      "d": 250,
      "v": 127
    },
    {
      "midi": 77,
      "hit": false,
      "t": 105375,
      "d": 125,
      "v": 127
    },
    {
      "midi": 75,
      "hit": false,
      "t": 105500,
      "d": 125,
      "v": 127
    },
    {
      "midi": 58,
      "hit": false,
      "t": 105500,
      "d": 500,
      "v": 127
    },
    {
      "midi": 67,
      "hit": false,
      "t": 105500,
      "d": 500,
      "v": 127
    },
    {
      "midi": 77,
      "hit": false,
      "t": 105625,
      "d": 125,
      "v": 127
    },
    {
      "midi": 79,
      "hit": false,
      "t": 105750,
      "d": 125,
      "v": 127
    },
    {
      "midi": 75,
      "hit": false,
      "t": 105875,
      "d": 125,
      "v": 127
    },
    {
      "midi": 77,
      "hit": false,
      "t": 106000,
      "d": 125,
      "v": 127
    },
    {
      "midi": 58,
      "hit": false,
      "t": 106000,
      "d": 250,
      "v": 127
    },
    {
      "midi": 68,
      "hit": false,
      "t": 106000,
      "d": 250,
      "v": 127
    },
    {
      "midi": 79,
      "hit": false,
      "t": 106125,
      "d": 125,
      "v": 127
    },
    {
      "midi": 76,
      "hit": false,
      "t": 106250,
      "d": 125,
      "v": 127
    },
    {
      "midi": 58,
      "hit": false,
      "t": 106250,
      "d": 250,
      "v": 127
    },
    {
      "midi": 68,
      "hit": false,
      "t": 106250,
      "d": 250,
      "v": 127
    },
    {
      "midi": 79,
      "hit": false,
      "t": 106375,
      "d": 125,
      "v": 127
    },
    {
      "midi": 77,
      "hit": false,
      "t": 106500,
      "d": 125,
      "v": 127
    },
    {
      "midi": 58,
      "hit": false,
      "t": 106500,
      "d": 500,
      "v": 127
    },
    {
      "midi": 68,
      "hit": false,
      "t": 106500,
      "d": 500,
      "v": 127
    },
    {
      "midi": 79,
      "hit": false,
      "t": 106625,
      "d": 125,
      "v": 127
    },
    {
      "midi": 80,
      "hit": false,
      "t": 106750,
      "d": 125,
      "v": 127
    },
    {
      "midi": 77,
      "hit": false,
      "t": 106875,
      "d": 125,
      "v": 127
    },
    {
      "midi": 79,
      "hit": false,
      "t": 107000,
      "d": 125,
      "v": 127
    },
    {
      "midi": 58,
      "hit": false,
      "t": 107000,
      "d": 250,
      "v": 127
    },
    {
      "midi": 67,
      "hit": false,
      "t": 107000,
      "d": 250,
      "v": 127
    },
    {
      "midi": 80,
      "hit": false,
      "t": 107125,
      "d": 125,
      "v": 127
    },
    {
      "midi": 77,
      "hit": false,
      "t": 107250,
      "d": 125,
      "v": 127
    },
    {
      "midi": 58,
      "hit": false,
      "t": 107250,
      "d": 250,
      "v": 127
    },
    {
      "midi": 67,
      "hit": false,
      "t": 107250,
      "d": 250,
      "v": 127
    },
    {
      "midi": 80,
      "hit": false,
      "t": 107375,
      "d": 125,
      "v": 127
    },
    {
      "midi": 79,
      "hit": false,
      "t": 107500,
      "d": 125,
      "v": 127
    },
    {
      "midi": 58,
      "hit": false,
      "t": 107500,
      "d": 500,
      "v": 127
    },
    {
      "midi": 67,
      "hit": false,
      "t": 107500,
      "d": 500,
      "v": 127
    },
    {
      "midi": 80,
      "hit": false,
      "t": 107625,
      "d": 125,
      "v": 127
    },
    {
      "midi": 82,
      "hit": false,
      "t": 107750,
      "d": 125,
      "v": 127
    },
    {
      "midi": 79,
      "hit": false,
      "t": 107875,
      "d": 125,
      "v": 127
    },
    {
      "midi": 80,
      "hit": false,
      "t": 108000,
      "d": 125,
      "v": 127
    },
    {
      "midi": 34,
      "hit": false,
      "t": 108000,
      "d": 500,
      "v": 127
    },
    {
      "midi": 46,
      "hit": false,
      "t": 108000,
      "d": 500,
      "v": 127
    },
    {
      "midi": 82,
      "hit": false,
      "t": 108125,
      "d": 125,
      "v": 127
    },
    {
      "midi": 79,
      "hit": false,
      "t": 108250,
      "d": 125,
      "v": 127
    },
    {
      "midi": 80,
      "hit": false,
      "t": 108375,
      "d": 125,
      "v": 127
    },
    {
      "midi": 77,
      "hit": false,
      "t": 108500,
      "d": 125,
      "v": 127
    },
    {
      "midi": 79,
      "hit": false,
      "t": 108625,
      "d": 125,
      "v": 127
    },
    {
      "midi": 75,
      "hit": false,
      "t": 108750,
      "d": 125,
      "v": 127
    },
    {
      "midi": 77,
      "hit": false,
      "t": 108875,
      "d": 125,
      "v": 127
    },
    {
      "midi": 74,
      "hit": false,
      "t": 109000,
      "d": 125,
      "v": 127
    },
    {
      "midi": 68,
      "hit": false,
      "t": 109000,
      "d": 250,
      "v": 127
    },
    {
      "midi": 77,
      "hit": false,
      "t": 109125,
      "d": 125,
      "v": 127
    },
    {
      "midi": 75,
      "hit": false,
      "t": 109250,
      "d": 125,
      "v": 127
    },
    {
      "midi": 67,
      "hit": false,
      "t": 109250,
      "d": 250,
      "v": 127
    },
    {
      "midi": 79,
      "hit": false,
      "t": 109375,
      "d": 125,
      "v": 127
    },
    {
      "midi": 77,
      "hit": false,
      "t": 109500,
      "d": 125,
      "v": 127
    },
    {
      "midi": 65,
      "hit": false,
      "t": 109500,
      "d": 250,
      "v": 127
    },
    {
      "midi": 80,
      "hit": false,
      "t": 109625,
      "d": 125,
      "v": 127
    },
    {
      "midi": 79,
      "hit": false,
      "t": 109750,
      "d": 125,
      "v": 127
    },
    {
      "midi": 63,
      "hit": false,
      "t": 109750,
      "d": 250,
      "v": 127
    },
    {
      "midi": 82,
      "hit": false,
      "t": 109875,
      "d": 125,
      "v": 127
    },
    {
      "midi": 80,
      "hit": false,
      "t": 110000,
      "d": 125,
      "v": 127
    },
    {
      "midi": 62,
      "hit": false,
      "t": 110000,
      "d": 250,
      "v": 127
    },
    {
      "midi": 82,
      "hit": false,
      "t": 110125,
      "d": 125,
      "v": 127
    },
    {
      "midi": 79,
      "hit": false,
      "t": 110250,
      "d": 125,
      "v": 127
    },
    {
      "midi": 63,
      "hit": false,
      "t": 110250,
      "d": 250,
      "v": 127
    },
    {
      "midi": 80,
      "hit": false,
      "t": 110375,
      "d": 125,
      "v": 127
    },
    {
      "midi": 77,
      "hit": false,
      "t": 110500,
      "d": 125,
      "v": 127
    },
    {
      "midi": 65,
      "hit": false,
      "t": 110500,
      "d": 250,
      "v": 127
    },
    {
      "midi": 79,
      "hit": false,
      "t": 110625,
      "d": 125,
      "v": 127
    },
    {
      "midi": 75,
      "hit": false,
      "t": 110750,
      "d": 125,
      "v": 127
    },
    {
      "midi": 67,
      "hit": false,
      "t": 110750,
      "d": 250,
      "v": 127
    },
    {
      "midi": 77,
      "hit": false,
      "t": 110875,
      "d": 125,
      "v": 127
    },
    {
      "midi": 74,
      "hit": false,
      "t": 111000,
      "d": 125,
      "v": 127
    },
    {
      "midi": 68,
      "hit": false,
      "t": 111000,
      "d": 250,
      "v": 127
    },
    {
      "midi": 77,
      "hit": false,
      "t": 111125,
      "d": 125,
      "v": 127
    },
    {
      "midi": 75,
      "hit": false,
      "t": 111250,
      "d": 125,
      "v": 127
    },
    {
      "midi": 67,
      "hit": false,
      "t": 111250,
      "d": 250,
      "v": 127
    },
    {
      "midi": 79,
      "hit": false,
      "t": 111375,
      "d": 125,
      "v": 127
    },
    {
      "midi": 77,
      "hit": false,
      "t": 111500,
      "d": 125,
      "v": 127
    },
    {
      "midi": 65,
      "hit": false,
      "t": 111500,
      "d": 250,
      "v": 127
    },
    {
      "midi": 80,
      "hit": false,
      "t": 111625,
      "d": 125,
      "v": 127
    },
    {
      "midi": 79,
      "hit": false,
      "t": 111750,
      "d": 125,
      "v": 127
    },
    {
      "midi": 63,
      "hit": false,
      "t": 111750,
      "d": 250,
      "v": 127
    },
    {
      "midi": 82,
      "hit": false,
      "t": 111875,
      "d": 125,
      "v": 127
    },
    {
      "midi": 80,
      "hit": false,
      "t": 112000,
      "d": 125,
      "v": 127
    },
    {
      "midi": 58,
      "hit": false,
      "t": 112000,
      "d": 500,
      "v": 127
    },
    {
      "midi": 62,
      "hit": false,
      "t": 112000,
      "d": 500,
      "v": 127
    },
    {
      "midi": 82,
      "hit": false,
      "t": 112125,
      "d": 125,
      "v": 127
    },
    {
      "midi": 79,
      "hit": false,
      "t": 112250,
      "d": 125,
      "v": 127
    },
    {
      "midi": 80,
      "hit": false,
      "t": 112375,
      "d": 125,
      "v": 127
    },
    {
      "midi": 77,
      "hit": false,
      "t": 112500,
      "d": 125,
      "v": 127
    },
    {
      "midi": 79,
      "hit": false,
      "t": 112625,
      "d": 125,
      "v": 127
    },
    {
      "midi": 76,
      "hit": false,
      "t": 112750,
      "d": 125,
      "v": 127
    },
    {
      "midi": 79,
      "hit": false,
      "t": 112875,
      "d": 125,
      "v": 127
    },
    {
      "midi": 77,
      "hit": false,
      "t": 113000,
      "d": 125,
      "v": 127
    },
    {
      "midi": 79,
      "hit": false,
      "t": 113125,
      "d": 125,
      "v": 127
    },
    {
      "midi": 75,
      "hit": false,
      "t": 113250,
      "d": 125,
      "v": 127
    },
    {
      "midi": 77,
      "hit": false,
      "t": 113375,
      "d": 125,
      "v": 127
    },
    {
      "midi": 74,
      "hit": false,
      "t": 113500,
      "d": 125,
      "v": 127
    },
    {
      "midi": 75,
      "hit": false,
      "t": 113625,
      "d": 125,
      "v": 127
    },
    {
      "midi": 72,
      "hit": false,
      "t": 113750,
      "d": 125,
      "v": 127
    },
    {
      "midi": 75,
      "hit": false,
      "t": 113875,
      "d": 125,
      "v": 127
    },
    {
      "midi": 74,
      "hit": false,
      "t": 114000,
      "d": 125,
      "v": 127
    },
    {
      "midi": 75,
      "hit": false,
      "t": 114125,
      "d": 125,
      "v": 127
    },
    {
      "midi": 72,
      "hit": false,
      "t": 114250,
      "d": 125,
      "v": 127
    },
    {
      "midi": 74,
      "hit": false,
      "t": 114375,
      "d": 125,
      "v": 127
    },
    {
      "midi": 70,
      "hit": false,
      "t": 114500,
      "d": 125,
      "v": 127
    },
    {
      "midi": 72,
      "hit": false,
      "t": 114625,
      "d": 125,
      "v": 127
    },
    {
      "midi": 69,
      "hit": false,
      "t": 114750,
      "d": 125,
      "v": 127
    },
    {
      "midi": 72,
      "hit": false,
      "t": 114875,
      "d": 125,
      "v": 127
    },
    {
      "midi": 70,
      "hit": false,
      "t": 115000,
      "d": 125,
      "v": 127
    },
    {
      "midi": 72,
      "hit": false,
      "t": 115125,
      "d": 125,
      "v": 127
    },
    {
      "midi": 69,
      "hit": false,
      "t": 115250,
      "d": 125,
      "v": 127
    },
    {
      "midi": 72,
      "hit": false,
      "t": 115375,
      "d": 125,
      "v": 127
    },
    {
      "midi": 70,
      "hit": false,
      "t": 115500,
      "d": 125,
      "v": 127
    },
    {
      "midi": 72,
      "hit": false,
      "t": 115625,
      "d": 125,
      "v": 127
    },
    {
      "midi": 69,
      "hit": false,
      "t": 115750,
      "d": 125,
      "v": 127
    },
    {
      "midi": 72,
      "hit": false,
      "t": 115875,
      "d": 125,
      "v": 127
    },
    {
      "midi": 70,
      "hit": false,
      "t": 116000,
      "d": 1000,
      "v": 127
    },
    {
      "midi": 51,
      "hit": false,
      "t": 116000,
      "d": 250,
      "v": 127
    },
    {
      "midi": 58,
      "hit": false,
      "t": 116250,
      "d": 250,
      "v": 127
    },
    {
      "midi": 55,
      "hit": false,
      "t": 116500,
      "d": 250,
      "v": 127
    },
    {
      "midi": 58,
      "hit": false,
      "t": 116750,
      "d": 250,
      "v": 127
    },
    {
      "midi": 51,
      "hit": false,
      "t": 117000,
      "d": 250,
      "v": 127
    },
    {
      "midi": 72,
      "hit": false,
      "t": 117250,
      "d": 250,
      "v": 127
    },
    {
      "midi": 58,
      "hit": false,
      "t": 117250,
      "d": 250,
      "v": 127
    },
    {
      "midi": 74,
      "hit": false,
      "t": 117500,
      "d": 250,
      "v": 127
    },
    {
      "midi": 55,
      "hit": false,
      "t": 117500,
      "d": 250,
      "v": 127
    },
    {
      "midi": 75,
      "hit": false,
      "t": 117750,
      "d": 250,
      "v": 127
    },
    {
      "midi": 58,
      "hit": false,
      "t": 117750,
      "d": 250,
      "v": 127
    },
    {
      "midi": 75,
      "hit": false,
      "t": 118000,
      "d": 250,
      "v": 127
    },
    {
      "midi": 53,
      "hit": false,
      "t": 118000,
      "d": 250,
      "v": 127
    },
    {
      "midi": 74,
      "hit": false,
      "t": 118250,
      "d": 250,
      "v": 127
    },
    {
      "midi": 58,
      "hit": false,
      "t": 118250,
      "d": 250,
      "v": 127
    },
    {
      "midi": 72,
      "hit": false,
      "t": 118500,
      "d": 250,
      "v": 127
    },
    {
      "midi": 56,
      "hit": false,
      "t": 118500,
      "d": 250,
      "v": 127
    },
    {
      "midi": 70,
      "hit": false,
      "t": 118750,
      "d": 250,
      "v": 127
    },
    {
      "midi": 58,
      "hit": false,
      "t": 118750,
      "d": 250,
      "v": 127
    },
    {
      "midi": 70,
      "hit": false,
      "t": 119000,
      "d": 500,
      "v": 127
    },
    {
      "midi": 50,
      "hit": false,
      "t": 119000,
      "d": 250,
      "v": 127
    },
    {
      "midi": 56,
      "hit": false,
      "t": 119250,
      "d": 250,
      "v": 127
    },
    {
      "midi": 70,
      "hit": false,
      "t": 119500,
      "d": 500,
      "v": 127
    },
    {
      "midi": 51,
      "hit": false,
      "t": 119500,
      "d": 250,
      "v": 127
    },
    {
      "midi": 55,
      "hit": false,
      "t": 119750,
      "d": 250,
      "v": 127
    },
    {
      "midi": 72,
      "hit": false,
      "t": 120000,
      "d": 750,
      "v": 127
    },
    {
      "midi": 56,
      "hit": false,
      "t": 120000,
      "d": 250,
      "v": 127
    },
    {
      "midi": 63,
      "hit": false,
      "t": 120250,
      "d": 250,
      "v": 127
    },
    {
      "midi": 60,
      "hit": false,
      "t": 120500,
      "d": 250,
      "v": 127
    },
    {
      "midi": 74,
      "hit": false,
      "t": 120750,
      "d": 250,
      "v": 127
    },
    {
      "midi": 63,
      "hit": false,
      "t": 120750,
      "d": 250,
      "v": 127
    },
    {
      "midi": 75,
      "hit": false,
      "t": 121000,
      "d": 250,
      "v": 127
    },
    {
      "midi": 56,
      "hit": false,
      "t": 121000,
      "d": 250,
      "v": 127
    },
    {
      "midi": 76,
      "hit": false,
      "t": 121250,
      "d": 250,
      "v": 127
    },
    {
      "midi": 60,
      "hit": false,
      "t": 121250,
      "d": 250,
      "v": 127
    },
    {
      "midi": 79,
      "hit": false,
      "t": 121500,
      "d": 250,
      "v": 127
    },
    {
      "midi": 57,
      "hit": false,
      "t": 121500,
      "d": 250,
      "v": 127
    },
    {
      "midi": 77,
      "hit": false,
      "t": 121750,
      "d": 250,
      "v": 127
    },
    {
      "midi": 60,
      "hit": false,
      "t": 121750,
      "d": 250,
      "v": 127
    },
    {
      "midi": 75,
      "hit": false,
      "t": 122000,
      "d": 750,
      "v": 127
    },
    {
      "midi": 58,
      "hit": false,
      "t": 122000,
      "d": 250,
      "v": 127
    },
    {
      "midi": 67,
      "hit": false,
      "t": 122250,
      "d": 250,
      "v": 127
    },
    {
      "midi": 63,
      "hit": false,
      "t": 122500,
      "d": 250,
      "v": 127
    },
    {
      "midi": 77,
      "hit": false,
      "t": 122750,
      "d": 125,
      "v": 127
    },
    {
      "midi": 67,
      "hit": false,
      "t": 122750,
      "d": 250,
      "v": 127
    },
    {
      "midi": 75,
      "hit": false,
      "t": 122875,
      "d": 125,
      "v": 127
    },
    {
      "midi": 74,
      "hit": false,
      "t": 123000,
      "d": 500,
      "v": 127
    },
    {
      "midi": 65,
      "hit": false,
      "t": 123000,
      "d": 250,
      "v": 127
    },
    {
      "midi": 65,
      "hit": false,
      "t": 123250,
      "d": 250,
      "v": 127
    },
    {
      "midi": 68,
      "hit": false,
      "t": 123250,
      "d": 250,
      "v": 127
    },
    {
      "midi": 63,
      "hit": false,
      "t": 123500,
      "d": 250,
      "v": 127
    },
    {
      "midi": 67,
      "hit": false,
      "t": 123500,
      "d": 250,
      "v": 127
    },
    {
      "midi": 62,
      "hit": false,
      "t": 123750,
      "d": 250,
      "v": 127
    },
    {
      "midi": 65,
      "hit": false,
      "t": 123750,
      "d": 250,
      "v": 127
    },
    {
      "midi": 70,
      "hit": false,
      "t": 124000,
      "d": 1000,
      "v": 127
    },
    {
      "midi": 51,
      "hit": false,
      "t": 124000,
      "d": 250,
      "v": 127
    },
    {
      "midi": 58,
      "hit": false,
      "t": 124250,
      "d": 250,
      "v": 127
    },
    {
      "midi": 55,
      "hit": false,
      "t": 124500,
      "d": 250,
      "v": 127
    },
    {
      "midi": 58,
      "hit": false,
      "t": 124750,
      "d": 250,
      "v": 127
    },
    {
      "midi": 51,
      "hit": false,
      "t": 125000,
      "d": 250,
      "v": 127
    },
    {
      "midi": 74,
      "hit": false,
      "t": 125250,
      "d": 125,
      "v": 127
    },
    {
      "midi": 58,
      "hit": false,
      "t": 125250,
      "d": 250,
      "v": 127
    },
    {
      "midi": 72,
      "hit": false,
      "t": 125375,
      "d": 125,
      "v": 127
    },
    {
      "midi": 75,
      "hit": false,
      "t": 125500,
      "d": 125,
      "v": 127
    },
    {
      "midi": 55,
      "hit": false,
      "t": 125500,
      "d": 250,
      "v": 127
    },
    {
      "midi": 74,
      "hit": false,
      "t": 125625,
      "d": 125,
      "v": 127
    },
    {
      "midi": 77,
      "hit": false,
      "t": 125750,
      "d": 125,
      "v": 127
    },
    {
      "midi": 58,
      "hit": false,
      "t": 125750,
      "d": 250,
      "v": 127
    },
    {
      "midi": 75,
      "hit": false,
      "t": 125875,
      "d": 125,
      "v": 127
    },
    {
      "midi": 75,
      "hit": false,
      "t": 126000,
      "d": 250,
      "v": 127
    },
    {
      "midi": 53,
      "hit": false,
      "t": 126000,
      "d": 250,
      "v": 127
    },
    {
      "midi": 74,
      "hit": false,
      "t": 126250,
      "d": 250,
      "v": 127
    },
    {
      "midi": 58,
      "hit": false,
      "t": 126250,
      "d": 250,
      "v": 127
    },
    {
      "midi": 72,
      "hit": false,
      "t": 126500,
      "d": 250,
      "v": 127
    },
    {
      "midi": 56,
      "hit": false,
      "t": 126500,
      "d": 250,
      "v": 127
    },
    {
      "midi": 70,
      "hit": false,
      "t": 126750,
      "d": 250,
      "v": 127
    },
    {
      "midi": 58,
      "hit": false,
      "t": 126750,
      "d": 250,
      "v": 127
    },
    {
      "midi": 82,
      "hit": false,
      "t": 127000,
      "d": 750,
      "v": 127
    },
    {
      "midi": 50,
      "hit": false,
      "t": 127000,
      "d": 250,
      "v": 127
    },
    {
      "midi": 58,
      "hit": false,
      "t": 127250,
      "d": 250,
      "v": 127
    },
    {
      "midi": 58,
      "hit": false,
      "t": 127500,
      "d": 250,
      "v": 127
    },
    {
      "midi": 80,
      "hit": false,
      "t": 127750,
      "d": 125,
      "v": 127
    },
    {
      "midi": 62,
      "hit": false,
      "t": 127750,
      "d": 250,
      "v": 127
    },
    {
      "midi": 77,
      "hit": false,
      "t": 127875,
      "d": 125,
      "v": 127
    },
    {
      "midi": 75,
      "hit": false,
      "t": 128000,
      "d": 500,
      "v": 127
    },
    {
      "midi": 55,
      "hit": false,
      "t": 128000,
      "d": 500,
      "v": 127
    },
    {
      "midi": 58,
      "hit": false,
      "t": 128000,
      "d": 500,
      "v": 127
    },
    {
      "midi": 63,
      "hit": false,
      "t": 128000,
      "d": 500,
      "v": 127
    },
    {
      "midi": 75,
      "hit": false,
      "t": 128500,
      "d": 500,
      "v": 127
    },
    {
      "midi": 79,
      "hit": false,
      "t": 129000,
      "d": 375,
      "v": 127
    },
    {
      "midi": 80,
      "hit": false,
      "t": 129375,
      "d": 125,
      "v": 127
    },
    {
      "midi": 77,
      "hit": false,
      "t": 129500,
      "d": 375,
      "v": 127
    },
    {
      "midi": 58,
      "hit": false,
      "t": 129500,
      "d": 500,
      "v": 127
    },
    {
      "midi": 79,
      "hit": false,
      "t": 129875,
      "d": 125,
      "v": 127
    },
    {
      "midi": 68,
      "hit": false,
      "t": 130000,
      "d": 1000,
      "v": 127
    },
    {
      "midi": 74,
      "hit": false,
      "t": 130000,
      "d": 1000,
      "v": 127
    },
    {
      "midi": 77,
      "hit": false,
      "t": 130000,
      "d": 1000,
      "v": 127
    },
    {
      "midi": 63,
      "hit": false,
      "t": 130000,
      "d": 500,
      "v": 127
    },
    {
      "midi": 58,
      "hit": false,
      "t": 130500,
      "d": 500,
      "v": 127
    },
    {
      "midi": 67,
      "hit": false,
      "t": 131000,
      "d": 500,
      "v": 127
    },
    {
      "midi": 75,
      "hit": false,
      "t": 131000,
      "d": 500,
      "v": 127
    },
    {
      "midi": 51,
      "hit": false,
      "t": 131000,
      "d": 500,
      "v": 127
    },
    {
      "midi": 55,
      "hit": false,
      "t": 132000,
      "d": 500,
      "v": 127
    },
    {
      "midi": 60,
      "hit": false,
      "t": 132000,
      "d": 500,
      "v": 127
    },
    {
      "midi": 63,
      "hit": false,
      "t": 132000,
      "d": 500,
      "v": 127
    },
    {
      "midi": 36,
      "hit": false,
      "t": 132000,
      "d": 500,
      "v": 127
    },
    {
      "midi": 48,
      "hit": false,
      "t": 132000,
      "d": 500,
      "v": 127
    },
    {
      "midi": 65,
      "hit": false,
      "t": 134000,
      "d": 750,
      "v": 127
    },
    {
      "midi": 50,
      "hit": false,
      "t": 134000,
      "d": 750,
      "v": 127
    },
    {
      "midi": 63,
      "hit": false,
      "t": 134750,
      "d": 250,
      "v": 127
    },
    {
      "midi": 48,
      "hit": false,
      "t": 134750,
      "d": 250,
      "v": 127
    },
    {
      "midi": 62,
      "hit": false,
      "t": 135000,
      "d": 1000,
      "v": 127
    },
    {
      "midi": 47,
      "hit": false,
      "t": 135000,
      "d": 1000,
      "v": 127
    },
    {
      "midi": 55,
      "hit": false,
      "t": 136000,
      "d": 500,
      "v": 127
    },
    {
      "midi": 48,
      "hit": false,
      "t": 136000,
      "d": 500,
      "v": 127
    },
    {
      "midi": 60,
      "hit": false,
      "t": 137000,
      "d": 1000,
      "v": 127
    },
    {
      "midi": 66,
      "hit": false,
      "t": 137000,
      "d": 1000,
      "v": 127
    },
    {
      "midi": 32,
      "hit": false,
      "t": 137000,
      "d": 1000,
      "v": 127
    },
    {
      "midi": 44,
      "hit": false,
      "t": 137000,
      "d": 1000,
      "v": 127
    },
    {
      "midi": 59,
      "hit": false,
      "t": 138000,
      "d": 500,
      "v": 127
    },
    {
      "midi": 62,
      "hit": false,
      "t": 138000,
      "d": 500,
      "v": 127
    },
    {
      "midi": 67,
      "hit": false,
      "t": 138000,
      "d": 500,
      "v": 127
    },
    {
      "midi": 31,
      "hit": false,
      "t": 138000,
      "d": 500,
      "v": 127
    },
    {
      "midi": 43,
      "hit": false,
      "t": 138000,
      "d": 500,
      "v": 127
    },
    {
      "midi": 55,
      "hit": false,
      "t": 140000,
      "d": 500,
      "v": 127
    },
    {
      "midi": 60,
      "hit": false,
      "t": 140000,
      "d": 500,
      "v": 127
    },
    {
      "midi": 63,
      "hit": false,
      "t": 140000,
      "d": 500,
      "v": 127
    },
    {
      "midi": 36,
      "hit": false,
      "t": 140000,
      "d": 500,
      "v": 127
    },
    {
      "midi": 48,
      "hit": false,
      "t": 140000,
      "d": 500,
      "v": 127
    },
    {
      "midi": 58,
      "hit": false,
      "t": 142000,
      "d": 2000,
      "v": 127
    },
    {
      "midi": 62,
      "hit": false,
      "t": 142000,
      "d": 2000,
      "v": 127
    },
    {
      "midi": 65,
      "hit": false,
      "t": 142000,
      "d": 2000,
      "v": 127
    },
    {
      "midi": 34,
      "hit": false,
      "t": 142000,
      "d": 1000,
      "v": 127
    },
    {
      "midi": 46,
      "hit": false,
      "t": 142000,
      "d": 1000,
      "v": 127
    },
    {
      "midi": 32,
      "hit": false,
      "t": 143000,
      "d": 1000,
      "v": 127
    },
    {
      "midi": 44,
      "hit": false,
      "t": 143000,
      "d": 1000,
      "v": 127
    },
    {
      "midi": 63,
      "hit": false,
      "t": 144000,
      "d": 500,
      "v": 127
    },
    {
      "midi": 31,
      "hit": false,
      "t": 144000,
      "d": 500,
      "v": 127
    },
    {
      "midi": 43,
      "hit": false,
      "t": 144000,
      "d": 500,
      "v": 127
    },
    {
      "midi": 67,
      "hit": false,
      "t": 144500,
      "d": 500,
      "v": 127
    },
    {
      "midi": 39,
      "hit": false,
      "t": 144500,
      "d": 500,
      "v": 127
    },
    {
      "midi": 62,
      "hit": false,
      "t": 145000,
      "d": 500,
      "v": 127
    },
    {
      "midi": 41,
      "hit": false,
      "t": 145000,
      "d": 500,
      "v": 127
    },
    {
      "midi": 68,
      "hit": false,
      "t": 145500,
      "d": 500,
      "v": 127
    },
    {
      "midi": 38,
      "hit": false,
      "t": 145500,
      "d": 500,
      "v": 127
    },
    {
      "midi": 63,
      "hit": false,
      "t": 146000,
      "d": 500,
      "v": 127
    },
    {
      "midi": 43,
      "hit": false,
      "t": 146000,
      "d": 500,
      "v": 127
    },
    {
      "midi": 79,
      "hit": false,
      "t": 146500,
      "d": 500,
      "v": 127
    },
    {
      "midi": 39,
      "hit": false,
      "t": 146500,
      "d": 500,
      "v": 127
    },
    {
      "midi": 77,
      "hit": false,
      "t": 147000,
      "d": 500,
      "v": 127
    },
    {
      "midi": 46,
      "hit": false,
      "t": 147000,
      "d": 500,
      "v": 127
    },
    {
      "midi": 74,
      "hit": false,
      "t": 147500,
      "d": 500,
      "v": 127
    },
    {
      "midi": 44,
      "hit": false,
      "t": 147500,
      "d": 500,
      "v": 127
    },
    {
      "midi": 75,
      "hit": false,
      "t": 148000,
      "d": 500,
      "v": 127
    },
    {
      "midi": 43,
      "hit": false,
      "t": 148000,
      "d": 500,
      "v": 127
    },
    {
      "midi": 31,
      "hit": false,
      "t": 148500,
      "d": 500,
      "v": 127
    },
    {
      "midi": 65,
      "hit": false,
      "t": 149000,
      "d": 500,
      "v": 127
    },
    {
      "midi": 72,
      "hit": false,
      "t": 149000,
      "d": 500,
      "v": 127
    },
    {
      "midi": 75,
      "hit": false,
      "t": 149000,
      "d": 500,
      "v": 127
    },
    {
      "midi": 32,
      "hit": false,
      "t": 149000,
      "d": 500,
      "v": 127
    },
    {
      "midi": 44,
      "hit": false,
      "t": 149500,
      "d": 500,
      "v": 127
    },
    {
      "midi": 65,
      "hit": false,
      "t": 150000,
      "d": 500,
      "v": 127
    },
    {
      "midi": 68,
      "hit": false,
      "t": 150000,
      "d": 500,
      "v": 127
    },
    {
      "midi": 70,
      "hit": false,
      "t": 150000,
      "d": 500,
      "v": 127
    },
    {
      "midi": 74,
      "hit": false,
      "t": 150000,
      "d": 500,
      "v": 127
    },
    {
      "midi": 46,
      "hit": false,
      "t": 150000,
      "d": 500,
      "v": 127
    },
    {
      "midi": 34,
      "hit": false,
      "t": 150500,
      "d": 500,
      "v": 127
    },
    {
      "midi": 67,
      "hit": false,
      "t": 151000,
      "d": 500,
      "v": 127
    },
    {
      "midi": 70,
      "hit": false,
      "t": 151000,
      "d": 500,
      "v": 127
    },
    {
      "midi": 75,
      "hit": false,
      "t": 151000,
      "d": 500,
      "v": 127
    },
    {
      "midi": 39,
      "hit": false,
      "t": 151000,
      "d": 500,
      "v": 127
    },
    {
      "midi": 79,
      "hit": false,
      "t": 152000,
      "d": 750,
      "v": 127
    },
    {
      "midi": 63,
      "hit": false,
      "t": 152000,
      "d": 250,
      "v": 127
    },
    {
      "midi": 70,
      "hit": false,
      "t": 152250,
      "d": 250,
      "v": 127
    },
    {
      "midi": 67,
      "hit": false,
      "t": 152500,
      "d": 250,
      "v": 127
    },
    {
      "midi": 77,
      "hit": false,
      "t": 152750,
      "d": 83.33333333334303,
      "v": 127
    },
    {
      "midi": 70,
      "hit": false,
      "t": 152750,
      "d": 250,
      "v": 127
    },
    {
      "midi": 75,
      "hit": false,
      "t": 152833.33333333334,
      "d": 83.33333333334303,
      "v": 127
    },
    {
      "midi": 74,
      "hit": false,
      "t": 152916.6666666667,
      "d": 83.33333333334303,
      "v": 127
    },
    {
      "midi": 63,
      "hit": false,
      "t": 153000,
      "d": 250,
      "v": 127
    },
    {
      "midi": 75,
      "hit": false,
      "t": 153000.00000000003,
      "d": 250,
      "v": 127
    },
    {
      "midi": 70,
      "hit": false,
      "t": 153250,
      "d": 250,
      "v": 127
    },
    {
      "midi": 77,
      "hit": false,
      "t": 153250.00000000003,
      "d": 250,
      "v": 127
    },
    {
      "midi": 67,
      "hit": false,
      "t": 153500,
      "d": 250,
      "v": 127
    },
    {
      "midi": 79,
      "hit": false,
      "t": 153500.00000000003,
      "d": 250,
      "v": 127
    },
    {
      "midi": 70,
      "hit": false,
      "t": 153750,
      "d": 250,
      "v": 127
    },
    {
      "midi": 80,
      "hit": false,
      "t": 153750.00000000003,
      "d": 250,
      "v": 127
    },
    {
      "midi": 58,
      "hit": false,
      "t": 154000,
      "d": 250,
      "v": 127
    },
    {
      "midi": 82,
      "hit": false,
      "t": 154000.00000000003,
      "d": 750,
      "v": 127
    },
    {
      "midi": 67,
      "hit": false,
      "t": 154250,
      "d": 250,
      "v": 127
    },
    {
      "midi": 63,
      "hit": false,
      "t": 154500,
      "d": 250,
      "v": 127
    },
    {
      "midi": 67,
      "hit": false,
      "t": 154750,
      "d": 250,
      "v": 127
    },
    {
      "midi": 80,
      "hit": false,
      "t": 154750.00000000003,
      "d": 125,
      "v": 127
    },
    {
      "midi": 79,
      "hit": false,
      "t": 154875.00000000003,
      "d": 125,
      "v": 127
    },
    {
      "midi": 59,
      "hit": false,
      "t": 155000,
      "d": 250,
      "v": 127
    },
    {
      "midi": 77,
      "hit": false,
      "t": 155000.00000000003,
      "d": 500,
      "v": 127
    },
    {
      "midi": 67,
      "hit": false,
      "t": 155250,
      "d": 250,
      "v": 127
    },
    {
      "midi": 62,
      "hit": false,
      "t": 155500,
      "d": 250,
      "v": 127
    },
    {
      "midi": 67,
      "hit": false,
      "t": 155750,
      "d": 250,
      "v": 127
    },
    {
      "midi": 60,
      "hit": false,
      "t": 156000,
      "d": 250,
      "v": 127
    },
    {
      "midi": 75,
      "hit": false,
      "t": 156000.00000000003,
      "d": 750,
      "v": 127
    },
    {
      "midi": 67,
      "hit": false,
      "t": 156250,
      "d": 250,
      "v": 127
    },
    {
      "midi": 63,
      "hit": false,
      "t": 156500,
      "d": 250,
      "v": 127
    },
    {
      "midi": 67,
      "hit": false,
      "t": 156750,
      "d": 250,
      "v": 127
    },
    {
      "midi": 74,
      "hit": false,
      "t": 156750.00000000003,
      "d": 83.33333333334303,
      "v": 127
    },
    {
      "midi": 72,
      "hit": false,
      "t": 156833.33333333337,
      "d": 83.33333333334303,
      "v": 127
    },
    {
      "midi": 71,
      "hit": false,
      "t": 156916.66666666672,
      "d": 83.33333333334303,
      "v": 127
    },
    {
      "midi": 60,
      "hit": false,
      "t": 157000,
      "d": 250,
      "v": 127
    },
    {
      "midi": 72,
      "hit": false,
      "t": 157000.00000000006,
      "d": 250,
      "v": 127
    },
    {
      "midi": 67,
      "hit": false,
      "t": 157250,
      "d": 250,
      "v": 127
    },
    {
      "midi": 74,
      "hit": false,
      "t": 157250.00000000006,
      "d": 250,
      "v": 127
    },
    {
      "midi": 63,
      "hit": false,
      "t": 157500,
      "d": 250,
      "v": 127
    },
    {
      "midi": 75,
      "hit": false,
      "t": 157500.00000000006,
      "d": 250,
      "v": 127
    },
    {
      "midi": 67,
      "hit": false,
      "t": 157750,
      "d": 250,
      "v": 127
    },
    {
      "midi": 77,
      "hit": false,
      "t": 157750.00000000006,
      "d": 250,
      "v": 127
    },
    {
      "midi": 55,
      "hit": false,
      "t": 158000,
      "d": 250,
      "v": 127
    },
    {
      "midi": 79,
      "hit": false,
      "t": 158000.00000000006,
      "d": 750,
      "v": 127
    },
    {
      "midi": 63,
      "hit": false,
      "t": 158250,
      "d": 250,
      "v": 127
    },
    {
      "midi": 60,
      "hit": false,
      "t": 158500,
      "d": 250,
      "v": 127
    },
    {
      "midi": 63,
      "hit": false,
      "t": 158750,
      "d": 250,
      "v": 127
    },
    {
      "midi": 77,
      "hit": false,
      "t": 158750.00000000006,
      "d": 125,
      "v": 127
    },
    {
      "midi": 75,
      "hit": false,
      "t": 158875.00000000006,
      "d": 125,
      "v": 127
    },
    {
      "midi": 55,
      "hit": false,
      "t": 159000,
      "d": 250,
      "v": 127
    },
    {
      "midi": 74,
      "hit": false,
      "t": 159000.00000000006,
      "d": 500,
      "v": 127
    },
    {
      "midi": 62,
      "hit": false,
      "t": 159250,
      "d": 250,
      "v": 127
    },
    {
      "midi": 59,
      "hit": false,
      "t": 159500,
      "d": 250,
      "v": 127
    },
    {
      "midi": 62,
      "hit": false,
      "t": 159750,
      "d": 250,
      "v": 127
    },
    {
      "midi": 36,
      "hit": false,
      "t": 160000,
      "d": 500,
      "v": 127
    },
    {
      "midi": 48,
      "hit": false,
      "t": 160000,
      "d": 500,
      "v": 127
    },
    {
      "midi": 55,
      "hit": false,
      "t": 160000.00000000006,
      "d": 500,
      "v": 127
    },
    {
      "midi": 60,
      "hit": false,
      "t": 160000.00000000006,
      "d": 500,
      "v": 127
    },
    {
      "midi": 63,
      "hit": false,
      "t": 160000.00000000006,
      "d": 500,
      "v": 127
    },
    {
      "midi": 50,
      "hit": false,
      "t": 162000,
      "d": 750,
      "v": 127
    },
    {
      "midi": 65,
      "hit": false,
      "t": 162000.00000000006,
      "d": 750,
      "v": 127
    },
    {
      "midi": 48,
      "hit": false,
      "t": 162750,
      "d": 250,
      "v": 127
    },
    {
      "midi": 63,
      "hit": false,
      "t": 162750.00000000006,
      "d": 250,
      "v": 127
    },
    {
      "midi": 47,
      "hit": false,
      "t": 163000,
      "d": 1000,
      "v": 127
    },
    {
      "midi": 62,
      "hit": false,
      "t": 163000.00000000006,
      "d": 1000,
      "v": 127
    },
    {
      "midi": 48,
      "hit": false,
      "t": 164000,
      "d": 500,
      "v": 127
    },
    {
      "midi": 55,
      "hit": false,
      "t": 164000.00000000006,
      "d": 500,
      "v": 127
    },
    {
      "midi": 32,
      "hit": false,
      "t": 165000,
      "d": 1000,
      "v": 127
    },
    {
      "midi": 44,
      "hit": false,
      "t": 165000,
      "d": 1000,
      "v": 127
    },
    {
      "midi": 60,
      "hit": false,
      "t": 165000.00000000006,
      "d": 1000,
      "v": 127
    },
    {
      "midi": 66,
      "hit": false,
      "t": 165000.00000000006,
      "d": 1000,
      "v": 127
    },
    {
      "midi": 31,
      "hit": false,
      "t": 166000,
      "d": 500,
      "v": 127
    },
    {
      "midi": 43,
      "hit": false,
      "t": 166000,
      "d": 500,
      "v": 127
    },
    {
      "midi": 59,
      "hit": false,
      "t": 166000.00000000006,
      "d": 500,
      "v": 127
    },
    {
      "midi": 62,
      "hit": false,
      "t": 166000.00000000006,
      "d": 500,
      "v": 127
    },
    {
      "midi": 67,
      "hit": false,
      "t": 166000.00000000006,
      "d": 500,
      "v": 127
    },
    {
      "midi": 36,
      "hit": false,
      "t": 168000,
      "d": 500,
      "v": 127
    },
    {
      "midi": 48,
      "hit": false,
      "t": 168000,
      "d": 500,
      "v": 127
    },
    {
      "midi": 55,
      "hit": false,
      "t": 168000.00000000006,
      "d": 500,
      "v": 127
    },
    {
      "midi": 60,
      "hit": false,
      "t": 168000.00000000006,
      "d": 500,
      "v": 127
    },
    {
      "midi": 63,
      "hit": false,
      "t": 168000.00000000006,
      "d": 500,
      "v": 127
    },
    {
      "midi": 43,
      "hit": false,
      "t": 170000,
      "d": 1000,
      "v": 127
    },
    {
      "midi": 55,
      "hit": false,
      "t": 170000.00000000006,
      "d": 2000,
      "v": 127
    },
    {
      "midi": 59,
      "hit": false,
      "t": 170000.00000000006,
      "d": 2000,
      "v": 127
    },
    {
      "midi": 62,
      "hit": false,
      "t": 170000.00000000006,
      "d": 2000,
      "v": 127
    },
    {
      "midi": 41,
      "hit": false,
      "t": 171000,
      "d": 1000,
      "v": 127
    },
    {
      "midi": 39,
      "hit": false,
      "t": 172000,
      "d": 500,
      "v": 127
    },
    {
      "midi": 60,
      "hit": false,
      "t": 172000.00000000006,
      "d": 500,
      "v": 127
    },
    {
      "midi": 36,
      "hit": false,
      "t": 172500,
      "d": 500,
      "v": 127
    },
    {
      "midi": 63,
      "hit": false,
      "t": 172500.00000000006,
      "d": 500,
      "v": 127
    },
    {
      "midi": 38,
      "hit": false,
      "t": 173000,
      "d": 500,
      "v": 127
    },
    {
      "midi": 59,
      "hit": false,
      "t": 173000.00000000006,
      "d": 500,
      "v": 127
    },
    {
      "midi": 35,
      "hit": false,
      "t": 173500,
      "d": 500,
      "v": 127
    },
    {
      "midi": 65,
      "hit": false,
      "t": 173500.00000000006,
      "d": 500,
      "v": 127
    },
    {
      "midi": 39,
      "hit": false,
      "t": 174000,
      "d": 500,
      "v": 127
    },
    {
      "midi": 60,
      "hit": false,
      "t": 174000.00000000006,
      "d": 500,
      "v": 127
    },
    {
      "midi": 36,
      "hit": false,
      "t": 174500,
      "d": 500,
      "v": 127
    },
    {
      "midi": 75,
      "hit": false,
      "t": 174500.00000000006,
      "d": 500,
      "v": 127
    },
    {
      "midi": 43,
      "hit": false,
      "t": 175000,
      "d": 500,
      "v": 127
    },
    {
      "midi": 77,
      "hit": false,
      "t": 175000.00000000006,
      "d": 500,
      "v": 127
    },
    {
      "midi": 41,
      "hit": false,
      "t": 175500,
      "d": 500,
      "v": 127
    },
    {
      "midi": 71,
      "hit": false,
      "t": 175500.00000000006,
      "d": 500,
      "v": 127
    },
    {
      "midi": 39,
      "hit": false,
      "t": 176000,
      "d": 500,
      "v": 127
    },
    {
      "midi": 63,
      "hit": false,
      "t": 176000.00000000006,
      "d": 500,
      "v": 127
    },
    {
      "midi": 67,
      "hit": false,
      "t": 176000.00000000006,
      "d": 500,
      "v": 127
    },
    {
      "midi": 72,
      "hit": false,
      "t": 176000.00000000006,
      "d": 500,
      "v": 127
    },
    {
      "midi": 51,
      "hit": false,
      "t": 176500,
      "d": 500,
      "v": 127
    },
    {
      "midi": 53,
      "hit": false,
      "t": 177000,
      "d": 500,
      "v": 127
    },
    {
      "midi": 62,
      "hit": false,
      "t": 177000.00000000006,
      "d": 500,
      "v": 127
    },
    {
      "midi": 68,
      "hit": false,
      "t": 177000.00000000006,
      "d": 500,
      "v": 127
    },
    {
      "midi": 72,
      "hit": false,
      "t": 177000.00000000006,
      "d": 500,
      "v": 127
    },
    {
      "midi": 41,
      "hit": false,
      "t": 177500,
      "d": 500,
      "v": 127
    },
    {
      "midi": 43,
      "hit": false,
      "t": 178000,
      "d": 500,
      "v": 127
    },
    {
      "midi": 62,
      "hit": false,
      "t": 178000.00000000006,
      "d": 500,
      "v": 127
    },
    {
      "midi": 65,
      "hit": false,
      "t": 178000.00000000006,
      "d": 500,
      "v": 127
    },
    {
      "midi": 67,
      "hit": false,
      "t": 178000.00000000006,
      "d": 500,
      "v": 127
    },
    {
      "midi": 71,
      "hit": false,
      "t": 178000.00000000006,
      "d": 500,
      "v": 127
    },
    {
      "midi": 31,
      "hit": false,
      "t": 178500,
      "d": 500,
      "v": 127
    },
    {
      "midi": 36,
      "hit": false,
      "t": 179000,
      "d": 500,
      "v": 127
    },
    {
      "midi": 63,
      "hit": false,
      "t": 179000.00000000006,
      "d": 500,
      "v": 127
    },
    {
      "midi": 67,
      "hit": false,
      "t": 179000.00000000006,
      "d": 500,
      "v": 127
    },
    {
      "midi": 72,
      "hit": false,
      "t": 179000.00000000006,
      "d": 500,
      "v": 127
    },
    {
      "midi": 51,
      "hit": false,
      "t": 180000,
      "d": 166.66666666665697,
      "v": 127
    },
    {
      "midi": 79,
      "hit": false,
      "t": 180000.00000000006,
      "d": 500,
      "v": 127
    },
    {
      "midi": 55,
      "hit": false,
      "t": 180166.66666666666,
      "d": 166.66666666665697,
      "v": 127
    },
    {
      "midi": 60,
      "hit": false,
      "t": 180333.3333333333,
      "d": 166.66666666665697,
      "v": 127
    },
    {
      "midi": 51,
      "hit": false,
      "t": 180499.99999999997,
      "d": 166.66666666665697,
      "v": 127
    },
    {
      "midi": 77,
      "hit": false,
      "t": 180500.00000000006,
      "d": 125,
      "v": 127
    },
    {
      "midi": 75,
      "hit": false,
      "t": 180625.00000000006,
      "d": 125,
      "v": 127
    },
    {
      "midi": 55,
      "hit": false,
      "t": 180666.66666666663,
      "d": 166.66666666665697,
      "v": 127
    },
    {
      "midi": 74,
      "hit": false,
      "t": 180750.00000000006,
      "d": 125,
      "v": 127
    },
    {
      "midi": 60,
      "hit": false,
      "t": 180833.33333333328,
      "d": 166.66666666665697,
      "v": 127
    },
    {
      "midi": 72,
      "hit": false,
      "t": 180875.00000000006,
      "d": 125,
      "v": 127
    },
    {
      "midi": 53,
      "hit": false,
      "t": 180999.99999999994,
      "d": 166.66666666665697,
      "v": 127
    },
    {
      "midi": 80,
      "hit": false,
      "t": 181000.00000000006,
      "d": 500,
      "v": 127
    },
    {
      "midi": 56,
      "hit": false,
      "t": 181166.6666666666,
      "d": 166.66666666665697,
      "v": 127
    },
    {
      "midi": 62,
      "hit": false,
      "t": 181333.33333333326,
      "d": 166.66666666665697,
      "v": 127
    },
    {
      "midi": 53,
      "hit": false,
      "t": 181499.9999999999,
      "d": 166.66666666665697,
      "v": 127
    },
    {
      "midi": 79,
      "hit": false,
      "t": 181500.00000000006,
      "d": 125,
      "v": 127
    },
    {
      "midi": 77,
      "hit": false,
      "t": 181625.00000000006,
      "d": 125,
      "v": 127
    },
    {
      "midi": 56,
      "hit": false,
      "t": 181666.66666666657,
      "d": 166.66666666665697,
      "v": 127
    },
    {
      "midi": 75,
      "hit": false,
      "t": 181750.00000000006,
      "d": 125,
      "v": 127
    },
    {
      "midi": 62,
      "hit": false,
      "t": 181833.33333333323,
      "d": 166.66666666665697,
      "v": 127
    },
    {
      "midi": 74,
      "hit": false,
      "t": 181875.00000000006,
      "d": 125,
      "v": 127
    },
    {
      "midi": 55,
      "hit": false,
      "t": 181999.99999999988,
      "d": 166.66666666665697,
      "v": 127
    },
    {
      "midi": 77,
      "hit": false,
      "t": 182000.00000000006,
      "d": 500,
      "v": 127
    },
    {
      "midi": 59,
      "hit": false,
      "t": 182166.66666666654,
      "d": 166.66666666665697,
      "v": 127
    },
    {
      "midi": 62,
      "hit": false,
      "t": 182333.3333333332,
      "d": 166.66666666665697,
      "v": 127
    },
    {
      "midi": 55,
      "hit": false,
      "t": 182499.99999999985,
      "d": 166.66666666665697,
      "v": 127
    },
    {
      "midi": 75,
      "hit": false,
      "t": 182500.00000000006,
      "d": 125,
      "v": 127
    },
    {
      "midi": 74,
      "hit": false,
      "t": 182625.00000000006,
      "d": 125,
      "v": 127
    },
    {
      "midi": 62,
      "hit": false,
      "t": 182666.6666666665,
      "d": 166.66666666665697,
      "v": 127
    },
    {
      "midi": 72,
      "hit": false,
      "t": 182750.00000000006,
      "d": 125,
      "v": 127
    },
    {
      "midi": 65,
      "hit": false,
      "t": 182833.33333333317,
      "d": 166.66666666665697,
      "v": 127
    },
    {
      "midi": 71,
      "hit": false,
      "t": 182875.00000000006,
      "d": 125,
      "v": 127
    },
    {
      "midi": 60,
      "hit": false,
      "t": 182999.99999999983,
      "d": 500,
      "v": 127
    },
    {
      "midi": 63,
      "hit": false,
      "t": 182999.99999999983,
      "d": 500,
      "v": 127
    },
    {
      "midi": 72,
      "hit": false,
      "t": 183000.00000000006,
      "d": 500,
      "v": 127
    },
    {
      "midi": 41,
      "hit": false,
      "t": 183999.99999999983,
      "d": 500,
      "v": 127
    },
    {
      "midi": 53,
      "hit": false,
      "t": 183999.99999999983,
      "d": 500,
      "v": 127
    },
    {
      "midi": 84,
      "hit": false,
      "t": 184000.00000000006,
      "d": 500,
      "v": 127
    },
    {
      "midi": 82,
      "hit": false,
      "t": 184500.00000000006,
      "d": 125,
      "v": 127
    },
    {
      "midi": 80,
      "hit": false,
      "t": 184625.00000000006,
      "d": 125,
      "v": 127
    },
    {
      "midi": 79,
      "hit": false,
      "t": 184750.00000000006,
      "d": 125,
      "v": 127
    },
    {
      "midi": 77,
      "hit": false,
      "t": 184875.00000000006,
      "d": 125,
      "v": 127
    },
    {
      "midi": 34,
      "hit": false,
      "t": 184999.99999999983,
      "d": 500,
      "v": 127
    },
    {
      "midi": 46,
      "hit": false,
      "t": 184999.99999999983,
      "d": 500,
      "v": 127
    },
    {
      "midi": 86,
      "hit": false,
      "t": 185000.00000000006,
      "d": 500,
      "v": 127
    },
    {
      "midi": 89,
      "hit": false,
      "t": 185500.00000000006,
      "d": 500,
      "v": 127
    },
    {
      "midi": 39,
      "hit": false,
      "t": 185999.99999999983,
      "d": 500,
      "v": 127
    },
    {
      "midi": 51,
      "hit": false,
      "t": 185999.99999999983,
      "d": 500,
      "v": 127
    },
    {
      "midi": 82,
      "hit": false,
      "t": 186000.00000000006,
      "d": 500,
      "v": 127
    },
    {
      "midi": 80,
      "hit": false,
      "t": 186500.00000000006,
      "d": 125,
      "v": 127
    },
    {
      "midi": 79,
      "hit": false,
      "t": 186625.00000000006,
      "d": 125,
      "v": 127
    },
    {
      "midi": 77,
      "hit": false,
      "t": 186750.00000000006,
      "d": 125,
      "v": 127
    },
    {
      "midi": 75,
      "hit": false,
      "t": 186875.00000000006,
      "d": 125,
      "v": 127
    },
    {
      "midi": 43,
      "hit": false,
      "t": 186999.99999999983,
      "d": 1000,
      "v": 127
    },
    {
      "midi": 55,
      "hit": false,
      "t": 186999.99999999983,
      "d": 1000,
      "v": 127
    },
    {
      "midi": 87,
      "hit": false,
      "t": 187000.00000000006,
      "d": 500,
      "v": 127
    },
    {
      "midi": 85,
      "hit": false,
      "t": 187500.00000000006,
      "d": 500,
      "v": 127
    },
    {
      "midi": 44,
      "hit": false,
      "t": 187999.99999999983,
      "d": 500,
      "v": 127
    },
    {
      "midi": 56,
      "hit": false,
      "t": 187999.99999999983,
      "d": 500,
      "v": 127
    },
    {
      "midi": 84,
      "hit": false,
      "t": 188000.00000000006,
      "d": 500,
      "v": 127
    },
    {
      "midi": 46,
      "hit": false,
      "t": 188499.99999999983,
      "d": 500,
      "v": 127
    },
    {
      "midi": 58,
      "hit": false,
      "t": 188499.99999999983,
      "d": 500,
      "v": 127
    },
    {
      "midi": 82,
      "hit": false,
      "t": 188500.00000000006,
      "d": 500,
      "v": 127
    },
    {
      "midi": 48,
      "hit": false,
      "t": 188999.99999999983,
      "d": 500,
      "v": 127
    },
    {
      "midi": 60,
      "hit": false,
      "t": 188999.99999999983,
      "d": 500,
      "v": 127
    },
    {
      "midi": 80,
      "hit": false,
      "t": 189000.00000000006,
      "d": 500,
      "v": 127
    },
    {
      "midi": 46,
      "hit": false,
      "t": 189499.99999999983,
      "d": 500,
      "v": 127
    },
    {
      "midi": 58,
      "hit": false,
      "t": 189499.99999999983,
      "d": 500,
      "v": 127
    },
    {
      "midi": 79,
      "hit": false,
      "t": 189500.00000000006,
      "d": 500,
      "v": 127
    },
    {
      "midi": 44,
      "hit": false,
      "t": 189999.99999999983,
      "d": 1000,
      "v": 127
    },
    {
      "midi": 56,
      "hit": false,
      "t": 189999.99999999983,
      "d": 1000,
      "v": 127
    },
    {
      "midi": 79,
      "hit": false,
      "t": 190000.00000000006,
      "d": 250,
      "v": 127
    },
    {
      "midi": 77,
      "hit": false,
      "t": 190250.00000000006,
      "d": 250,
      "v": 127
    },
    {
      "midi": 77,
      "hit": false,
      "t": 190500.00000000006,
      "d": 750,
      "v": 127
    },
    {
      "midi": 45,
      "hit": false,
      "t": 190999.99999999983,
      "d": 1000,
      "v": 127
    },
    {
      "midi": 57,
      "hit": false,
      "t": 190999.99999999983,
      "d": 1000,
      "v": 127
    },
    {
      "midi": 78,
      "hit": false,
      "t": 191250.00000000006,
      "d": 250,
      "v": 127
    },
    {
      "midi": 79,
      "hit": false,
      "t": 191500.00000000006,
      "d": 250,
      "v": 127
    },
    {
      "midi": 75,
      "hit": false,
      "t": 191750.00000000006,
      "d": 250,
      "v": 127
    },
    {
      "midi": 46,
      "hit": false,
      "t": 191999.99999999983,
      "d": 500,
      "v": 127
    },
    {
      "midi": 58,
      "hit": false,
      "t": 191999.99999999983,
      "d": 500,
      "v": 127
    },
    {
      "midi": 74,
      "hit": false,
      "t": 192000.00000000006,
      "d": 500,
      "v": 127
    },
    {
      "midi": 41,
      "hit": false,
      "t": 192499.99999999983,
      "d": 500,
      "v": 127
    },
    {
      "midi": 50,
      "hit": false,
      "t": 192999.99999999983,
      "d": 500,
      "v": 127
    },
    {
      "midi": 65,
      "hit": false,
      "t": 193000.00000000006,
      "d": 500,
      "v": 127
    },
    {
      "midi": 41,
      "hit": false,
      "t": 193499.99999999983,
      "d": 500,
      "v": 127
    },
    {
      "midi": 60,
      "hit": false,
      "t": 193666.66666666672,
      "d": 166.66666666665697,
      "v": 127
    },
    {
      "midi": 62,
      "hit": false,
      "t": 193833.33333333337,
      "d": 166.66666666665697,
      "v": 127
    },
    {
      "midi": 51,
      "hit": false,
      "t": 193999.99999999983,
      "d": 500,
      "v": 127
    },
    {
      "midi": 65,
      "hit": false,
      "t": 194000.00000000003,
      "d": 500,
      "v": 127
    },
    {
      "midi": 41,
      "hit": false,
      "t": 194499.99999999983,
      "d": 500,
      "v": 127
    },
    {
      "midi": 63,
      "hit": false,
      "t": 194500.00000000003,
      "d": 500,
      "v": 127
    },
    {
      "midi": 48,
      "hit": false,
      "t": 194999.99999999983,
      "d": 500,
      "v": 127
    },
    {
      "midi": 57,
      "hit": false,
      "t": 195000.00000000003,
      "d": 500,
      "v": 127
    },
    {
      "midi": 41,
      "hit": false,
      "t": 195499.99999999983,
      "d": 500,
      "v": 127
    },
    {
      "midi": 60,
      "hit": false,
      "t": 195500.00000000003,
      "d": 500,
      "v": 127
    },
    {
      "midi": 63,
      "hit": false,
      "t": 195500.00000000003,
      "d": 500,
      "v": 127
    },
    {
      "midi": 46,
      "hit": false,
      "t": 195999.99999999983,
      "d": 500,
      "v": 127
    },
    {
      "midi": 58,
      "hit": false,
      "t": 196000.00000000003,
      "d": 500,
      "v": 127
    },
    {
      "midi": 62,
      "hit": false,
      "t": 196000.00000000003,
      "d": 500,
      "v": 127
    },
    {
      "midi": 41,
      "hit": false,
      "t": 196499.99999999983,
      "d": 500,
      "v": 127
    },
    {
      "midi": 50,
      "hit": false,
      "t": 196999.99999999983,
      "d": 500,
      "v": 127
    },
    {
      "midi": 65,
      "hit": false,
      "t": 197000.00000000003,
      "d": 500,
      "v": 127
    },
    {
      "midi": 41,
      "hit": false,
      "t": 197499.99999999983,
      "d": 500,
      "v": 127
    },
    {
      "midi": 60,
      "hit": false,
      "t": 197666.6666666667,
      "d": 166.66666666665697,
      "v": 127
    },
    {
      "midi": 62,
      "hit": false,
      "t": 197833.33333333334,
      "d": 166.66666666665697,
      "v": 127
    },
    {
      "midi": 51,
      "hit": false,
      "t": 197999.99999999983,
      "d": 500,
      "v": 127
    },
    {
      "midi": 65,
      "hit": false,
      "t": 198000,
      "d": 500,
      "v": 127
    },
    {
      "midi": 41,
      "hit": false,
      "t": 198499.99999999983,
      "d": 500,
      "v": 127
    },
    {
      "midi": 63,
      "hit": false,
      "t": 198500,
      "d": 500,
      "v": 127
    },
    {
      "midi": 48,
      "hit": false,
      "t": 198999.99999999983,
      "d": 500,
      "v": 127
    },
    {
      "midi": 57,
      "hit": false,
      "t": 199000,
      "d": 500,
      "v": 127
    },
    {
      "midi": 41,
      "hit": false,
      "t": 199499.99999999983,
      "d": 500,
      "v": 127
    },
    {
      "midi": 60,
      "hit": false,
      "t": 199500,
      "d": 500,
      "v": 127
    },
    {
      "midi": 63,
      "hit": false,
      "t": 199500,
      "d": 500,
      "v": 127
    },
    {
      "midi": 46,
      "hit": false,
      "t": 199999.99999999983,
      "d": 500,
      "v": 127
    },
    {
      "midi": 58,
      "hit": false,
      "t": 200000,
      "d": 500,
      "v": 127
    },
    {
      "midi": 62,
      "hit": false,
      "t": 200000,
      "d": 500,
      "v": 127
    },
    {
      "midi": 50,
      "hit": false,
      "t": 203999.99999999983,
      "d": 1500,
      "v": 127
    },
    {
      "midi": 53,
      "hit": false,
      "t": 203999.99999999983,
      "d": 1500,
      "v": 127
    },
    {
      "midi": 70,
      "hit": false,
      "t": 204000,
      "d": 1500,
      "v": 127
    },
    {
      "midi": 82,
      "hit": false,
      "t": 204000,
      "d": 1500,
      "v": 127
    },
    {
      "midi": 51,
      "hit": false,
      "t": 205499.99999999983,
      "d": 500,
      "v": 127
    },
    {
      "midi": 54,
      "hit": false,
      "t": 205499.99999999983,
      "d": 500,
      "v": 127
    },
    {
      "midi": 71,
      "hit": false,
      "t": 205500,
      "d": 500,
      "v": 127
    },
    {
      "midi": 83,
      "hit": false,
      "t": 205500,
      "d": 500,
      "v": 127
    },
    {
      "midi": 50,
      "hit": false,
      "t": 205999.99999999983,
      "d": 1500,
      "v": 127
    },
    {
      "midi": 53,
      "hit": false,
      "t": 205999.99999999983,
      "d": 1500,
      "v": 127
    },
    {
      "midi": 70,
      "hit": false,
      "t": 206000,
      "d": 1500,
      "v": 127
    },
    {
      "midi": 82,
      "hit": false,
      "t": 206000,
      "d": 1500,
      "v": 127
    },
    {
      "midi": 51,
      "hit": false,
      "t": 207499.99999999983,
      "d": 500,
      "v": 127
    },
    {
      "midi": 54,
      "hit": false,
      "t": 207499.99999999983,
      "d": 500,
      "v": 127
    },
    {
      "midi": 71,
      "hit": false,
      "t": 207500,
      "d": 500,
      "v": 127
    },
    {
      "midi": 83,
      "hit": false,
      "t": 207500,
      "d": 500,
      "v": 127
    },
    {
      "midi": 50,
      "hit": false,
      "t": 207999.99999999983,
      "d": 500,
      "v": 127
    },
    {
      "midi": 53,
      "hit": false,
      "t": 207999.99999999983,
      "d": 500,
      "v": 127
    },
    {
      "midi": 70,
      "hit": false,
      "t": 208000,
      "d": 500,
      "v": 127
    },
    {
      "midi": 82,
      "hit": false,
      "t": 208000,
      "d": 500,
      "v": 127
    },
    {
      "midi": 51,
      "hit": false,
      "t": 208499.99999999983,
      "d": 500,
      "v": 127
    },
    {
      "midi": 54,
      "hit": false,
      "t": 208499.99999999983,
      "d": 500,
      "v": 127
    },
    {
      "midi": 71,
      "hit": false,
      "t": 208500,
      "d": 500,
      "v": 127
    },
    {
      "midi": 83,
      "hit": false,
      "t": 208500,
      "d": 500,
      "v": 127
    },
    {
      "midi": 50,
      "hit": false,
      "t": 208999.99999999983,
      "d": 500,
      "v": 127
    },
    {
      "midi": 53,
      "hit": false,
      "t": 208999.99999999983,
      "d": 500,
      "v": 127
    },
    {
      "midi": 70,
      "hit": false,
      "t": 209000,
      "d": 500,
      "v": 127
    },
    {
      "midi": 82,
      "hit": false,
      "t": 209000,
      "d": 500,
      "v": 127
    },
    {
      "midi": 51,
      "hit": false,
      "t": 209499.99999999983,
      "d": 500,
      "v": 127
    },
    {
      "midi": 54,
      "hit": false,
      "t": 209499.99999999983,
      "d": 500,
      "v": 127
    },
    {
      "midi": 71,
      "hit": false,
      "t": 209500,
      "d": 500,
      "v": 127
    },
    {
      "midi": 83,
      "hit": false,
      "t": 209500,
      "d": 500,
      "v": 127
    },
    {
      "midi": 50,
      "hit": false,
      "t": 209999.99999999983,
      "d": 500,
      "v": 127
    },
    {
      "midi": 53,
      "hit": false,
      "t": 209999.99999999983,
      "d": 500,
      "v": 127
    },
    {
      "midi": 70,
      "hit": false,
      "t": 210000,
      "d": 500,
      "v": 127
    },
    {
      "midi": 82,
      "hit": false,
      "t": 210000,
      "d": 500,
      "v": 127
    },
    {
      "midi": 39,
      "hit": false,
      "t": 213999.99999999983,
      "d": 1000,
      "v": 127
    },
    {
      "midi": 51,
      "hit": false,
      "t": 213999.99999999983,
      "d": 1000,
      "v": 127
    },
    {
      "midi": 55,
      "hit": false,
      "t": 214166.66666666666,
      "d": 166.66666666665697,
      "v": 127
    },
    {
      "midi": 58,
      "hit": false,
      "t": 214333.3333333333,
      "d": 166.66666666665697,
      "v": 127
    },
    {
      "midi": 63,
      "hit": false,
      "t": 214499.99999999997,
      "d": 166.66666666665697,
      "v": 127
    },
    {
      "midi": 67,
      "hit": false,
      "t": 214666.66666666663,
      "d": 166.66666666665697,
      "v": 127
    },
    {
      "midi": 70,
      "hit": false,
      "t": 214833.33333333328,
      "d": 166.66666666665697,
      "v": 127
    },
    {
      "midi": 43,
      "hit": false,
      "t": 214999.99999999983,
      "d": 1000,
      "v": 127
    },
    {
      "midi": 55,
      "hit": false,
      "t": 214999.99999999983,
      "d": 1000,
      "v": 127
    },
    {
      "midi": 75,
      "hit": false,
      "t": 214999.99999999994,
      "d": 166.66666666665697,
      "v": 127
    },
    {
      "midi": 74,
      "hit": false,
      "t": 215166.6666666666,
      "d": 166.66666666665697,
      "v": 127
    },
    {
      "midi": 72,
      "hit": false,
      "t": 215333.33333333326,
      "d": 166.66666666665697,
      "v": 127
    },
    {
      "midi": 70,
      "hit": false,
      "t": 215499.9999999999,
      "d": 166.66666666665697,
      "v": 127
    },
    {
      "midi": 68,
      "hit": false,
      "t": 215666.66666666657,
      "d": 166.66666666665697,
      "v": 127
    },
    {
      "midi": 67,
      "hit": false,
      "t": 215833.33333333323,
      "d": 166.66666666665697,
      "v": 127
    },
    {
      "midi": 41,
      "hit": false,
      "t": 215999.99999999983,
      "d": 500,
      "v": 127
    },
    {
      "midi": 53,
      "hit": false,
      "t": 215999.99999999983,
      "d": 500,
      "v": 127
    },
    {
      "midi": 68,
      "hit": false,
      "t": 215999.99999999988,
      "d": 166.66666666665697,
      "v": 127
    },
    {
      "midi": 80,
      "hit": false,
      "t": 216166.66666666654,
      "d": 166.66666666665697,
      "v": 127
    },
    {
      "midi": 77,
      "hit": false,
      "t": 216333.3333333332,
      "d": 166.66666666665697,
      "v": 127
    },
    {
      "midi": 34,
      "hit": false,
      "t": 216499.99999999983,
      "d": 500,
      "v": 127
    },
    {
      "midi": 46,
      "hit": false,
      "t": 216499.99999999983,
      "d": 500,
      "v": 127
    },
    {
      "midi": 74,
      "hit": false,
      "t": 216499.99999999985,
      "d": 166.66666666665697,
      "v": 127
    },
    {
      "midi": 77,
      "hit": false,
      "t": 216666.6666666665,
      "d": 166.66666666665697,
      "v": 127
    },
    {
      "midi": 68,
      "hit": false,
      "t": 216833.33333333317,
      "d": 166.66666666665697,
      "v": 127
    },
    {
      "midi": 67,
      "hit": false,
      "t": 216999.99999999983,
      "d": 166.66666666665697,
      "v": 127
    },
    {
      "midi": 39,
      "hit": false,
      "t": 216999.99999999983,
      "d": 500,
      "v": 127
    },
    {
      "midi": 51,
      "hit": false,
      "t": 216999.99999999983,
      "d": 500,
      "v": 127
    },
    {
      "midi": 82,
      "hit": false,
      "t": 217166.66666666648,
      "d": 166.66666666665697,
      "v": 127
    },
    {
      "midi": 79,
      "hit": false,
      "t": 217333.33333333314,
      "d": 166.66666666665697,
      "v": 127
    },
    {
      "midi": 75,
      "hit": false,
      "t": 217499.9999999998,
      "d": 166.66666666665697,
      "v": 127
    },
    {
      "midi": 31,
      "hit": false,
      "t": 217499.99999999983,
      "d": 500,
      "v": 127
    },
    {
      "midi": 43,
      "hit": false,
      "t": 217499.99999999983,
      "d": 500,
      "v": 127
    },
    {
      "midi": 70,
      "hit": false,
      "t": 217666.66666666645,
      "d": 166.66666666665697,
      "v": 127
    },
    {
      "midi": 67,
      "hit": false,
      "t": 217833.3333333331,
      "d": 166.66666666665697,
      "v": 127
    },
    {
      "midi": 63,
      "hit": false,
      "t": 217999.99999999977,
      "d": 166.66666666665697,
      "v": 127
    },
    {
      "midi": 32,
      "hit": false,
      "t": 217999.99999999983,
      "d": 1500,
      "v": 127
    },
    {
      "midi": 44,
      "hit": false,
      "t": 217999.99999999983,
      "d": 1500,
      "v": 127
    },
    {
      "midi": 68,
      "hit": false,
      "t": 218166.66666666642,
      "d": 166.66666666665697,
      "v": 127
    },
    {
      "midi": 67,
      "hit": false,
      "t": 218333.33333333308,
      "d": 166.66666666665697,
      "v": 127
    },
    {
      "midi": 65,
      "hit": false,
      "t": 218499.99999999974,
      "d": 166.66666666665697,
      "v": 127
    },
    {
      "midi": 72,
      "hit": false,
      "t": 218666.6666666664,
      "d": 166.66666666665697,
      "v": 127
    },
    {
      "midi": 70,
      "hit": false,
      "t": 218833.33333333305,
      "d": 166.66666666665697,
      "v": 127
    },
    {
      "midi": 68,
      "hit": false,
      "t": 218999.9999999997,
      "d": 166.66666666665697,
      "v": 127
    },
    {
      "midi": 75,
      "hit": false,
      "t": 219166.66666666637,
      "d": 166.66666666665697,
      "v": 127
    },
    {
      "midi": 74,
      "hit": false,
      "t": 219333.33333333302,
      "d": 166.66666666665697,
      "v": 127
    },
    {
      "midi": 72,
      "hit": false,
      "t": 219499.99999999968,
      "d": 166.66666666665697,
      "v": 127
    },
    {
      "midi": 33,
      "hit": false,
      "t": 219499.99999999983,
      "d": 500,
      "v": 127
    },
    {
      "midi": 45,
      "hit": false,
      "t": 219499.99999999983,
      "d": 500,
      "v": 127
    },
    {
      "midi": 84,
      "hit": false,
      "t": 219666.66666666634,
      "d": 166.66666666665697,
      "v": 127
    },
    {
      "midi": 77,
      "hit": false,
      "t": 219833.333333333,
      "d": 166.66666666665697,
      "v": 127
    },
    {
      "midi": 79,
      "hit": false,
      "t": 219999.99999999965,
      "d": 166.66666666665697,
      "v": 127
    },
    {
      "midi": 34,
      "hit": false,
      "t": 219999.99999999983,
      "d": 1000,
      "v": 127
    },
    {
      "midi": 46,
      "hit": false,
      "t": 219999.99999999983,
      "d": 1000,
      "v": 127
    },
    {
      "midi": 82,
      "hit": false,
      "t": 220166.6666666663,
      "d": 166.66666666665697,
      "v": 127
    },
    {
      "midi": 81,
      "hit": false,
      "t": 220333.33333333296,
      "d": 166.66666666665697,
      "v": 127
    },
    {
      "midi": 82,
      "hit": false,
      "t": 220499.99999999962,
      "d": 166.66666666665697,
      "v": 127
    },
    {
      "midi": 80,
      "hit": false,
      "t": 220666.66666666628,
      "d": 166.66666666665697,
      "v": 127
    },
    {
      "midi": 79,
      "hit": false,
      "t": 220833.33333333294,
      "d": 166.66666666665697,
      "v": 127
    },
    {
      "midi": 77,
      "hit": false,
      "t": 220999.9999999996,
      "d": 166.66666666665697,
      "v": 127
    },
    {
      "midi": 75,
      "hit": false,
      "t": 221166.66666666625,
      "d": 166.66666666665697,
      "v": 127
    },
    {
      "midi": 74,
      "hit": false,
      "t": 221333.3333333329,
      "d": 166.66666666665697,
      "v": 127
    },
    {
      "midi": 72,
      "hit": false,
      "t": 221499.99999999956,
      "d": 166.66666666665697,
      "v": 127
    },
    {
      "midi": 70,
      "hit": false,
      "t": 221666.66666666622,
      "d": 166.66666666665697,
      "v": 127
    },
    {
      "midi": 68,
      "hit": false,
      "t": 221833.33333333288,
      "d": 166.66666666665697,
      "v": 127
    },
    {
      "midi": 67,
      "hit": false,
      "t": 221999.99999999953,
      "d": 166.66666666665697,
      "v": 127
    },
    {
      "midi": 39,
      "hit": false,
      "t": 221999.99999999983,
      "d": 1000,
      "v": 127
    },
    {
      "midi": 51,
      "hit": false,
      "t": 221999.99999999983,
      "d": 1000,
      "v": 127
    },
    {
      "midi": 70,
      "hit": false,
      "t": 222166.6666666662,
      "d": 166.66666666665697,
      "v": 127
    },
    {
      "midi": 75,
      "hit": false,
      "t": 222333.33333333285,
      "d": 166.66666666665697,
      "v": 127
    },
    {
      "midi": 79,
      "hit": false,
      "t": 222499.9999999995,
      "d": 166.66666666665697,
      "v": 127
    },
    {
      "midi": 82,
      "hit": false,
      "t": 222666.66666666616,
      "d": 166.66666666665697,
      "v": 127
    },
    {
      "midi": 86,
      "hit": false,
      "t": 222833.33333333282,
      "d": 166.66666666665697,
      "v": 127
    },
    {
      "midi": 87,
      "hit": false,
      "t": 222999.99999999948,
      "d": 166.66666666665697,
      "v": 127
    },
    {
      "midi": 43,
      "hit": false,
      "t": 222999.99999999983,
      "d": 1000,
      "v": 127
    },
    {
      "midi": 55,
      "hit": false,
      "t": 222999.99999999983,
      "d": 1000,
      "v": 127
    },
    {
      "midi": 86,
      "hit": false,
      "t": 223166.66666666613,
      "d": 166.66666666665697,
      "v": 127
    },
    {
      "midi": 84,
      "hit": false,
      "t": 223333.3333333328,
      "d": 166.66666666665697,
      "v": 127
    },
    {
      "midi": 82,
      "hit": false,
      "t": 223499.99999999945,
      "d": 166.66666666665697,
      "v": 127
    },
    {
      "midi": 80,
      "hit": false,
      "t": 223666.6666666661,
      "d": 166.66666666665697,
      "v": 127
    },
    {
      "midi": 79,
      "hit": false,
      "t": 223833.33333333276,
      "d": 166.66666666665697,
      "v": 127
    },
    {
      "midi": 80,
      "hit": false,
      "t": 223999.99999999942,
      "d": 166.66666666665697,
      "v": 127
    },
    {
      "midi": 41,
      "hit": false,
      "t": 223999.99999999983,
      "d": 1000,
      "v": 127
    },
    {
      "midi": 53,
      "hit": false,
      "t": 223999.99999999983,
      "d": 1000,
      "v": 127
    },
    {
      "midi": 79,
      "hit": false,
      "t": 224166.66666666607,
      "d": 166.66666666665697,
      "v": 127
    },
    {
      "midi": 77,
      "hit": false,
      "t": 224333.33333333273,
      "d": 166.66666666665697,
      "v": 127
    },
    {
      "midi": 75,
      "hit": false,
      "t": 224499.9999999994,
      "d": 166.66666666665697,
      "v": 127
    },
    {
      "midi": 74,
      "hit": false,
      "t": 224666.66666666605,
      "d": 166.66666666665697,
      "v": 127
    },
    {
      "midi": 72,
      "hit": false,
      "t": 224833.3333333327,
      "d": 166.66666666665697,
      "v": 127
    },
    {
      "midi": 70,
      "hit": false,
      "t": 224999.99999999936,
      "d": 166.66666666665697,
      "v": 127
    },
    {
      "midi": 34,
      "hit": false,
      "t": 224999.99999999983,
      "d": 500,
      "v": 127
    },
    {
      "midi": 46,
      "hit": false,
      "t": 224999.99999999983,
      "d": 500,
      "v": 127
    },
    {
      "midi": 68,
      "hit": false,
      "t": 225166.66666666602,
      "d": 166.66666666665697,
      "v": 127
    },
    {
      "midi": 67,
      "hit": false,
      "t": 225333.33333333267,
      "d": 166.66666666665697,
      "v": 127
    },
    {
      "midi": 65,
      "hit": false,
      "t": 225499.99999999933,
      "d": 166.66666666665697,
      "v": 127
    },
    {
      "midi": 32,
      "hit": false,
      "t": 225499.99999999983,
      "d": 500,
      "v": 127
    },
    {
      "midi": 44,
      "hit": false,
      "t": 225499.99999999983,
      "d": 500,
      "v": 127
    },
    {
      "midi": 63,
      "hit": false,
      "t": 225666.666666666,
      "d": 166.66666666665697,
      "v": 127
    },
    {
      "midi": 62,
      "hit": false,
      "t": 225833.33333333264,
      "d": 166.66666666665697,
      "v": 127
    },
    {
      "midi": 63,
      "hit": false,
      "t": 225999.9999999993,
      "d": 166.66666666665697,
      "v": 127
    },
    {
      "midi": 31,
      "hit": false,
      "t": 225999.99999999983,
      "d": 500,
      "v": 127
    },
    {
      "midi": 43,
      "hit": false,
      "t": 225999.99999999983,
      "d": 500,
      "v": 127
    },
    {
      "midi": 67,
      "hit": false,
      "t": 226166.66666666596,
      "d": 166.66666666665697,
      "v": 127
    },
    {
      "midi": 70,
      "hit": false,
      "t": 226333.33333333262,
      "d": 166.66666666665697,
      "v": 127
    },
    {
      "midi": 75,
      "hit": false,
      "t": 226499.99999999927,
      "d": 166.66666666665697,
      "v": 127
    },
    {
      "midi": 79,
      "hit": false,
      "t": 226666.66666666593,
      "d": 166.66666666665697,
      "v": 127
    },
    {
      "midi": 75,
      "hit": false,
      "t": 226833.3333333326,
      "d": 166.66666666665697,
      "v": 127
    },
    {
      "midi": 70,
      "hit": false,
      "t": 226999.99999999924,
      "d": 166.66666666665697,
      "v": 127
    },
    {
      "midi": 34,
      "hit": false,
      "t": 226999.99999999983,
      "d": 500,
      "v": 127
    },
    {
      "midi": 46,
      "hit": false,
      "t": 226999.99999999983,
      "d": 500,
      "v": 127
    },
    {
      "midi": 67,
      "hit": false,
      "t": 227166.6666666659,
      "d": 166.66666666665697,
      "v": 127
    },
    {
      "midi": 63,
      "hit": false,
      "t": 227333.33333333256,
      "d": 166.66666666665697,
      "v": 127
    },
    {
      "midi": 68,
      "hit": false,
      "t": 227499.9999999992,
      "d": 166.66666666665697,
      "v": 127
    },
    {
      "midi": 34,
      "hit": false,
      "t": 227499.99999999983,
      "d": 500,
      "v": 127
    },
    {
      "midi": 46,
      "hit": false,
      "t": 227499.99999999983,
      "d": 500,
      "v": 127
    },
    {
      "midi": 65,
      "hit": false,
      "t": 227666.66666666587,
      "d": 166.66666666665697,
      "v": 127
    },
    {
      "midi": 62,
      "hit": false,
      "t": 227833.33333333253,
      "d": 166.66666666665697,
      "v": 127
    },
    {
      "midi": 56,
      "hit": false,
      "t": 227999.99999999919,
      "d": 166.66666666665697,
      "v": 127
    },
    {
      "midi": 51,
      "hit": false,
      "t": 227999.99999999983,
      "d": 500,
      "v": 127
    },
    {
      "midi": 58,
      "hit": false,
      "t": 228166.66666666584,
      "d": 166.66666666665697,
      "v": 127
    },
    {
      "midi": 62,
      "hit": false,
      "t": 228333.3333333325,
      "d": 166.66666666665697,
      "v": 127
    },
    {
      "midi": 56,
      "hit": false,
      "t": 228499.99999999916,
      "d": 166.66666666665697,
      "v": 127
    },
    {
      "midi": 46,
      "hit": false,
      "t": 228499.99999999983,
      "d": 500,
      "v": 127
    },
    {
      "midi": 58,
      "hit": false,
      "t": 228666.6666666658,
      "d": 166.66666666665697,
      "v": 127
    },
    {
      "midi": 62,
      "hit": false,
      "t": 228833.33333333247,
      "d": 166.66666666665697,
      "v": 127
    },
    {
      "midi": 55,
      "hit": false,
      "t": 228999.99999999913,
      "d": 500,
      "v": 127
    },
    {
      "midi": 58,
      "hit": false,
      "t": 228999.99999999913,
      "d": 500,
      "v": 127
    },
    {
      "midi": 63,
      "hit": false,
      "t": 228999.99999999913,
      "d": 500,
      "v": 127
    },
    {
      "midi": 39,
      "hit": false,
      "t": 228999.99999999983,
      "d": 500,
      "v": 127
    },
    {
      "midi": 60,
      "hit": false,
      "t": 229999.99999999913,
      "d": 1000,
      "v": 127
    },
    {
      "midi": 63,
      "hit": false,
      "t": 229999.99999999913,
      "d": 1000,
      "v": 127
    },
    {
      "midi": 32,
      "hit": false,
      "t": 229999.99999999983,
      "d": 250,
      "v": 127
    },
    {
      "midi": 44,
      "hit": false,
      "t": 230249.99999999983,
      "d": 250,
      "v": 127
    },
    {
      "midi": 44,
      "hit": false,
      "t": 230499.99999999983,
      "d": 250,
      "v": 127
    },
    {
      "midi": 44,
      "hit": false,
      "t": 230749.99999999983,
      "d": 250,
      "v": 127
    },
    {
      "midi": 58,
      "hit": false,
      "t": 230999.99999999913,
      "d": 500,
      "v": 127
    },
    {
      "midi": 61,
      "hit": false,
      "t": 230999.99999999913,
      "d": 500,
      "v": 127
    },
    {
      "midi": 44,
      "hit": false,
      "t": 230999.99999999983,
      "d": 250,
      "v": 127
    },
    {
      "midi": 44,
      "hit": false,
      "t": 231249.99999999983,
      "d": 250,
      "v": 127
    },
    {
      "midi": 56,
      "hit": false,
      "t": 231499.99999999913,
      "d": 500,
      "v": 127
    },
    {
      "midi": 60,
      "hit": false,
      "t": 231499.99999999913,
      "d": 500,
      "v": 127
    },
    {
      "midi": 44,
      "hit": false,
      "t": 231499.99999999983,
      "d": 250,
      "v": 127
    },
    {
      "midi": 44,
      "hit": false,
      "t": 231749.99999999983,
      "d": 250,
      "v": 127
    },
    {
      "midi": 60,
      "hit": false,
      "t": 231999.99999999913,
      "d": 1000,
      "v": 127
    },
    {
      "midi": 64,
      "hit": false,
      "t": 231999.99999999913,
      "d": 1000,
      "v": 127
    },
    {
      "midi": 44,
      "hit": false,
      "t": 231999.99999999983,
      "d": 250,
      "v": 127
    },
    {
      "midi": 44,
      "hit": false,
      "t": 232249.99999999983,
      "d": 250,
      "v": 127
    },
    {
      "midi": 44,
      "hit": false,
      "t": 232499.99999999983,
      "d": 250,
      "v": 127
    },
    {
      "midi": 44,
      "hit": false,
      "t": 232749.99999999983,
      "d": 250,
      "v": 127
    },
    {
      "midi": 61,
      "hit": false,
      "t": 232999.99999999913,
      "d": 500,
      "v": 127
    },
    {
      "midi": 65,
      "hit": false,
      "t": 232999.99999999913,
      "d": 500,
      "v": 127
    },
    {
      "midi": 44,
      "hit": false,
      "t": 232999.99999999983,
      "d": 250,
      "v": 127
    },
    {
      "midi": 44,
      "hit": false,
      "t": 233249.99999999983,
      "d": 250,
      "v": 127
    },
    {
      "midi": 44,
      "hit": false,
      "t": 233499.99999999983,
      "d": 250,
      "v": 127
    },
    {
      "midi": 44,
      "hit": false,
      "t": 233749.99999999983,
      "d": 250,
      "v": 127
    },
    {
      "midi": 55,
      "hit": false,
      "t": 233999.99999999913,
      "d": 500,
      "v": 127
    },
    {
      "midi": 58,
      "hit": false,
      "t": 233999.99999999913,
      "d": 500,
      "v": 127
    },
    {
      "midi": 44,
      "hit": false,
      "t": 233999.99999999983,
      "d": 250,
      "v": 127
    },
    {
      "midi": 44,
      "hit": false,
      "t": 234249.99999999983,
      "d": 250,
      "v": 127
    },
    {
      "midi": 56,
      "hit": false,
      "t": 234499.99999999913,
      "d": 500,
      "v": 127
    },
    {
      "midi": 60,
      "hit": false,
      "t": 234499.99999999913,
      "d": 500,
      "v": 127
    },
    {
      "midi": 44,
      "hit": false,
      "t": 234499.99999999983,
      "d": 250,
      "v": 127
    },
    {
      "midi": 44,
      "hit": false,
      "t": 234749.99999999983,
      "d": 250,
      "v": 127
    },
    {
      "midi": 58,
      "hit": false,
      "t": 234999.99999999913,
      "d": 500,
      "v": 127
    },
    {
      "midi": 61,
      "hit": false,
      "t": 234999.99999999913,
      "d": 500,
      "v": 127
    },
    {
      "midi": 44,
      "hit": false,
      "t": 234999.99999999983,
      "d": 250,
      "v": 127
    },
    {
      "midi": 44,
      "hit": false,
      "t": 235249.99999999983,
      "d": 250,
      "v": 127
    },
    {
      "midi": 59,
      "hit": false,
      "t": 235499.99999999913,
      "d": 500,
      "v": 127
    },
    {
      "midi": 62,
      "hit": false,
      "t": 235499.99999999913,
      "d": 500,
      "v": 127
    },
    {
      "midi": 44,
      "hit": false,
      "t": 235499.99999999983,
      "d": 250,
      "v": 127
    },
    {
      "midi": 44,
      "hit": false,
      "t": 235749.99999999983,
      "d": 250,
      "v": 127
    },
    {
      "midi": 60,
      "hit": false,
      "t": 235999.99999999913,
      "d": 750,
      "v": 127
    },
    {
      "midi": 63,
      "hit": false,
      "t": 235999.99999999913,
      "d": 750,
      "v": 127
    },
    {
      "midi": 44,
      "hit": false,
      "t": 235999.99999999983,
      "d": 250,
      "v": 127
    },
    {
      "midi": 44,
      "hit": false,
      "t": 236249.99999999983,
      "d": 250,
      "v": 127
    },
    {
      "midi": 44,
      "hit": false,
      "t": 236499.99999999983,
      "d": 250,
      "v": 127
    },
    {
      "midi": 65,
      "hit": false,
      "t": 236749.99999999913,
      "d": 83.33333333334303,
      "v": 127
    },
    {
      "midi": 44,
      "hit": false,
      "t": 236749.99999999983,
      "d": 250,
      "v": 127
    },
    {
      "midi": 63,
      "hit": false,
      "t": 236833.33333333247,
      "d": 83.33333333334303,
      "v": 127
    },
    {
      "midi": 58,
      "hit": false,
      "t": 236916.6666666658,
      "d": 83.33333333334303,
      "v": 127
    },
    {
      "midi": 61,
      "hit": false,
      "t": 236916.6666666658,
      "d": 83.33333333334303,
      "v": 127
    },
    {
      "midi": 56,
      "hit": false,
      "t": 236999.99999999916,
      "d": 500,
      "v": 127
    },
    {
      "midi": 60,
      "hit": false,
      "t": 236999.99999999916,
      "d": 500,
      "v": 127
    },
    {
      "midi": 44,
      "hit": false,
      "t": 236999.99999999983,
      "d": 250,
      "v": 127
    },
    {
      "midi": 44,
      "hit": false,
      "t": 237249.99999999983,
      "d": 250,
      "v": 127
    },
    {
      "midi": 48,
      "hit": false,
      "t": 237499.99999999983,
      "d": 250,
      "v": 127
    },
    {
      "midi": 44,
      "hit": false,
      "t": 237749.99999999983,
      "d": 250,
      "v": 127
    },
    {
      "midi": 55,
      "hit": false,
      "t": 237999.99999999916,
      "d": 2000,
      "v": 127
    },
    {
      "midi": 58,
      "hit": false,
      "t": 237999.99999999916,
      "d": 2000,
      "v": 127
    },
    {
      "midi": 63,
      "hit": false,
      "t": 237999.99999999916,
      "d": 2000,
      "v": 127
    },
    {
      "midi": 39,
      "hit": false,
      "t": 237999.99999999983,
      "d": 1500,
      "v": 127
    },
    {
      "midi": 51,
      "hit": false,
      "t": 237999.99999999983,
      "d": 1500,
      "v": 127
    },
    {
      "midi": 37,
      "hit": false,
      "t": 239499.99999999983,
      "d": 500,
      "v": 127
    },
    {
      "midi": 49,
      "hit": false,
      "t": 239499.99999999983,
      "d": 500,
      "v": 127
    },
    {
      "midi": 36,
      "hit": false,
      "t": 239999.99999999983,
      "d": 1000,
      "v": 127
    },
    {
      "midi": 48,
      "hit": false,
      "t": 239999.99999999983,
      "d": 1000,
      "v": 127
    },
    {
      "midi": 56,
      "hit": false,
      "t": 240249.99999999916,
      "d": 250,
      "v": 127
    },
    {
      "midi": 60,
      "hit": false,
      "t": 240499.99999999916,
      "d": 250,
      "v": 127
    },
    {
      "midi": 63,
      "hit": false,
      "t": 240749.99999999916,
      "d": 250,
      "v": 127
    },
    {
      "midi": 68,
      "hit": false,
      "t": 240999.99999999916,
      "d": 750,
      "v": 127
    },
    {
      "midi": 44,
      "hit": false,
      "t": 241249.99999999983,
      "d": 250,
      "v": 127
    },
    {
      "midi": 53,
      "hit": false,
      "t": 241499.99999999983,
      "d": 250,
      "v": 127
    },
    {
      "midi": 67,
      "hit": false,
      "t": 241749.99999999916,
      "d": 250,
      "v": 127
    },
    {
      "midi": 51,
      "hit": false,
      "t": 241749.99999999983,
      "d": 250,
      "v": 127
    },
    {
      "midi": 65,
      "hit": false,
      "t": 241999.99999999916,
      "d": 500,
      "v": 127
    },
    {
      "midi": 49,
      "hit": false,
      "t": 241999.99999999983,
      "d": 1500,
      "v": 127
    },
    {
      "midi": 57,
      "hit": false,
      "t": 242499.99999999916,
      "d": 250,
      "v": 127
    },
    {
      "midi": 58,
      "hit": false,
      "t": 242749.99999999916,
      "d": 250,
      "v": 127
    },
    {
      "midi": 59,
      "hit": false,
      "t": 242999.99999999916,
      "d": 250,
      "v": 127
    },
    {
      "midi": 60,
      "hit": false,
      "t": 243249.99999999916,
      "d": 250,
      "v": 127
    },
    {
      "midi": 60,
      "hit": false,
      "t": 243499.99999999916,
      "d": 250,
      "v": 127
    },
    {
      "midi": 46,
      "hit": false,
      "t": 243499.99999999983,
      "d": 500,
      "v": 127
    },
    {
      "midi": 61,
      "hit": false,
      "t": 243749.99999999916,
      "d": 250,
      "v": 127
    },
    {
      "midi": 60,
      "hit": false,
      "t": 243999.99999999916,
      "d": 750,
      "v": 127
    },
    {
      "midi": 51,
      "hit": false,
      "t": 243999.99999999983,
      "d": 250,
      "v": 127
    },
    {
      "midi": 39,
      "hit": false,
      "t": 244249.99999999983,
      "d": 250,
      "v": 127
    },
    {
      "midi": 51,
      "hit": false,
      "t": 244499.99999999983,
      "d": 250,
      "v": 127
    },
    {
      "midi": 61,
      "hit": false,
      "t": 244749.99999999916,
      "d": 125,
      "v": 127
    },
    {
      "midi": 51,
      "hit": false,
      "t": 244749.99999999983,
      "d": 250,
      "v": 127
    },
    {
      "midi": 60,
      "hit": false,
      "t": 244874.99999999916,
      "d": 125,
      "v": 127
    },
    {
      "midi": 58,
      "hit": false,
      "t": 244999.99999999916,
      "d": 500,
      "v": 127
    },
    {
      "midi": 51,
      "hit": false,
      "t": 244999.99999999983,
      "d": 250,
      "v": 127
    },
    {
      "midi": 49,
      "hit": false,
      "t": 245249.99999999983,
      "d": 250,
      "v": 127
    },
    {
      "midi": 48,
      "hit": false,
      "t": 245499.99999999983,
      "d": 250,
      "v": 127
    },
    {
      "midi": 46,
      "hit": false,
      "t": 245749.99999999983,
      "d": 250,
      "v": 127
    },
    {
      "midi": 72,
      "hit": false,
      "t": 245999.99999999916,
      "d": 1000,
      "v": 127
    },
    {
      "midi": 75,
      "hit": false,
      "t": 245999.99999999916,
      "d": 1000,
      "v": 127
    },
    {
      "midi": 44,
      "hit": false,
      "t": 245999.99999999983,
      "d": 250,
      "v": 127
    },
    {
      "midi": 56,
      "hit": false,
      "t": 246249.99999999983,
      "d": 250,
      "v": 127
    },
    {
      "midi": 56,
      "hit": false,
      "t": 246499.99999999983,
      "d": 250,
      "v": 127
    },
    {
      "midi": 56,
      "hit": false,
      "t": 246749.99999999983,
      "d": 250,
      "v": 127
    },
    {
      "midi": 70,
      "hit": false,
      "t": 246999.99999999916,
      "d": 500,
      "v": 127
    },
    {
      "midi": 73,
      "hit": false,
      "t": 246999.99999999916,
      "d": 500,
      "v": 127
    },
    {
      "midi": 56,
      "hit": false,
      "t": 246999.99999999983,
      "d": 250,
      "v": 127
    },
    {
      "midi": 56,
      "hit": false,
      "t": 247249.99999999983,
      "d": 250,
      "v": 127
    },
    {
      "midi": 68,
      "hit": false,
      "t": 247499.99999999916,
      "d": 500,
      "v": 127
    },
    {
      "midi": 72,
      "hit": false,
      "t": 247499.99999999916,
      "d": 500,
      "v": 127
    },
    {
      "midi": 56,
      "hit": false,
      "t": 247499.99999999983,
      "d": 250,
      "v": 127
    },
    {
      "midi": 56,
      "hit": false,
      "t": 247749.99999999983,
      "d": 250,
      "v": 127
    },
    {
      "midi": 72,
      "hit": false,
      "t": 247999.99999999916,
      "d": 1000,
      "v": 127
    },
    {
      "midi": 76,
      "hit": false,
      "t": 247999.99999999916,
      "d": 1000,
      "v": 127
    },
    {
      "midi": 56,
      "hit": false,
      "t": 247999.99999999983,
      "d": 250,
      "v": 127
    },
    {
      "midi": 56,
      "hit": false,
      "t": 248249.99999999983,
      "d": 250,
      "v": 127
    },
    {
      "midi": 56,
      "hit": false,
      "t": 248499.99999999983,
      "d": 250,
      "v": 127
    },
    {
      "midi": 56,
      "hit": false,
      "t": 248749.99999999983,
      "d": 250,
      "v": 127
    },
    {
      "midi": 73,
      "hit": false,
      "t": 248999.99999999916,
      "d": 500,
      "v": 127
    },
    {
      "midi": 77,
      "hit": false,
      "t": 248999.99999999916,
      "d": 500,
      "v": 127
    },
    {
      "midi": 56,
      "hit": false,
      "t": 248999.99999999983,
      "d": 250,
      "v": 127
    },
    {
      "midi": 56,
      "hit": false,
      "t": 249249.99999999983,
      "d": 250,
      "v": 127
    },
    {
      "midi": 56,
      "hit": false,
      "t": 249499.99999999983,
      "d": 250,
      "v": 127
    },
    {
      "midi": 56,
      "hit": false,
      "t": 249749.99999999983,
      "d": 250,
      "v": 127
    },
    {
      "midi": 67,
      "hit": false,
      "t": 249999.99999999916,
      "d": 500,
      "v": 127
    },
    {
      "midi": 70,
      "hit": false,
      "t": 249999.99999999916,
      "d": 500,
      "v": 127
    },
    {
      "midi": 56,
      "hit": false,
      "t": 249999.99999999983,
      "d": 250,
      "v": 127
    },
    {
      "midi": 56,
      "hit": false,
      "t": 250249.99999999983,
      "d": 250,
      "v": 127
    },
    {
      "midi": 68,
      "hit": false,
      "t": 250499.99999999916,
      "d": 500,
      "v": 127
    },
    {
      "midi": 72,
      "hit": false,
      "t": 250499.99999999916,
      "d": 500,
      "v": 127
    },
    {
      "midi": 56,
      "hit": false,
      "t": 250499.99999999983,
      "d": 250,
      "v": 127
    },
    {
      "midi": 56,
      "hit": false,
      "t": 250749.99999999983,
      "d": 250,
      "v": 127
    },
    {
      "midi": 70,
      "hit": false,
      "t": 250999.99999999916,
      "d": 500,
      "v": 127
    },
    {
      "midi": 73,
      "hit": false,
      "t": 250999.99999999916,
      "d": 500,
      "v": 127
    },
    {
      "midi": 56,
      "hit": false,
      "t": 250999.99999999983,
      "d": 250,
      "v": 127
    },
    {
      "midi": 56,
      "hit": false,
      "t": 251249.99999999983,
      "d": 250,
      "v": 127
    },
    {
      "midi": 71,
      "hit": false,
      "t": 251499.99999999916,
      "d": 500,
      "v": 127
    },
    {
      "midi": 74,
      "hit": false,
      "t": 251499.99999999916,
      "d": 500,
      "v": 127
    },
    {
      "midi": 56,
      "hit": false,
      "t": 251499.99999999983,
      "d": 250,
      "v": 127
    },
    {
      "midi": 56,
      "hit": false,
      "t": 251749.99999999983,
      "d": 250,
      "v": 127
    },
    {
      "midi": 72,
      "hit": false,
      "t": 251999.99999999916,
      "d": 750,
      "v": 127
    },
    {
      "midi": 75,
      "hit": false,
      "t": 251999.99999999916,
      "d": 750,
      "v": 127
    },
    {
      "midi": 56,
      "hit": false,
      "t": 251999.99999999983,
      "d": 250,
      "v": 127
    },
    {
      "midi": 56,
      "hit": false,
      "t": 252249.99999999983,
      "d": 250,
      "v": 127
    },
    {
      "midi": 56,
      "hit": false,
      "t": 252499.99999999983,
      "d": 250,
      "v": 127
    },
    {
      "midi": 77,
      "hit": false,
      "t": 252749.99999999916,
      "d": 83.33333333334303,
      "v": 127
    },
    {
      "midi": 56,
      "hit": false,
      "t": 252749.99999999983,
      "d": 250,
      "v": 127
    },
    {
      "midi": 75,
      "hit": false,
      "t": 252833.3333333325,
      "d": 83.33333333334303,
      "v": 127
    },
    {
      "midi": 70,
      "hit": false,
      "t": 252916.66666666584,
      "d": 83.33333333334303,
      "v": 127
    },
    {
      "midi": 73,
      "hit": false,
      "t": 252916.66666666584,
      "d": 83.33333333334303,
      "v": 127
    },
    {
      "midi": 68,
      "hit": false,
      "t": 252999.99999999919,
      "d": 500,
      "v": 127
    },
    {
      "midi": 72,
      "hit": false,
      "t": 252999.99999999919,
      "d": 500,
      "v": 127
    },
    {
      "midi": 56,
      "hit": false,
      "t": 252999.99999999983,
      "d": 250,
      "v": 127
    },
    {
      "midi": 51,
      "hit": false,
      "t": 253249.99999999983,
      "d": 250,
      "v": 127
    },
    {
      "midi": 48,
      "hit": false,
      "t": 253499.99999999983,
      "d": 250,
      "v": 127
    },
    {
      "midi": 44,
      "hit": false,
      "t": 253749.99999999983,
      "d": 250,
      "v": 127
    },
    {
      "midi": 65,
      "hit": false,
      "t": 253999.99999999919,
      "d": 1500,
      "v": 127
    },
    {
      "midi": 68,
      "hit": false,
      "t": 253999.99999999919,
      "d": 1500,
      "v": 127
    },
    {
      "midi": 34,
      "hit": false,
      "t": 253999.99999999983,
      "d": 1500,
      "v": 127
    },
    {
      "midi": 46,
      "hit": false,
      "t": 253999.99999999983,
      "d": 1500,
      "v": 127
    },
    {
      "midi": 62,
      "hit": false,
      "t": 255499.99999999919,
      "d": 500,
      "v": 127
    },
    {
      "midi": 65,
      "hit": false,
      "t": 255499.99999999919,
      "d": 500,
      "v": 127
    },
    {
      "midi": 32,
      "hit": false,
      "t": 255499.99999999983,
      "d": 500,
      "v": 127
    },
    {
      "midi": 44,
      "hit": false,
      "t": 255499.99999999983,
      "d": 500,
      "v": 127
    },
    {
      "midi": 58,
      "hit": false,
      "t": 255999.99999999919,
      "d": 500,
      "v": 127
    },
    {
      "midi": 63,
      "hit": false,
      "t": 255999.99999999919,
      "d": 500,
      "v": 127
    },
    {
      "midi": 70,
      "hit": false,
      "t": 255999.99999999919,
      "d": 500,
      "v": 127
    },
    {
      "midi": 31,
      "hit": false,
      "t": 255999.99999999983,
      "d": 500,
      "v": 127
    },
    {
      "midi": 43,
      "hit": false,
      "t": 255999.99999999983,
      "d": 500,
      "v": 127
    },
    {
      "midi": 63,
      "hit": false,
      "t": 257499.99999999919,
      "d": 500,
      "v": 127
    },
    {
      "midi": 39,
      "hit": false,
      "t": 257499.99999999983,
      "d": 500,
      "v": 127
    },
    {
      "midi": 75,
      "hit": false,
      "t": 257999.99999999919,
      "d": 750,
      "v": 127
    },
    {
      "midi": 44,
      "hit": false,
      "t": 257999.99999999983,
      "d": 500,
      "v": 127
    },
    {
      "midi": 44,
      "hit": false,
      "t": 258499.99999999983,
      "d": 500,
      "v": 127
    },
    {
      "midi": 72,
      "hit": false,
      "t": 258749.99999999919,
      "d": 250,
      "v": 127
    },
    {
      "midi": 72,
      "hit": false,
      "t": 258999.99999999919,
      "d": 250,
      "v": 127
    },
    {
      "midi": 46,
      "hit": false,
      "t": 258999.99999999983,
      "d": 500,
      "v": 127
    },
    {
      "midi": 70,
      "hit": false,
      "t": 259249.99999999919,
      "d": 250,
      "v": 127
    },
    {
      "midi": 70,
      "hit": false,
      "t": 259499.99999999919,
      "d": 250,
      "v": 127
    },
    {
      "midi": 46,
      "hit": false,
      "t": 259499.99999999983,
      "d": 500,
      "v": 127
    },
    {
      "midi": 68,
      "hit": false,
      "t": 259749.99999999919,
      "d": 250,
      "v": 127
    },
    {
      "midi": 68,
      "hit": false,
      "t": 259999.99999999919,
      "d": 1000,
      "v": 127
    },
    {
      "midi": 51,
      "hit": false,
      "t": 259999.99999999983,
      "d": 500,
      "v": 127
    },
    {
      "midi": 46,
      "hit": false,
      "t": 260499.99999999983,
      "d": 500,
      "v": 127
    },
    {
      "midi": 67,
      "hit": false,
      "t": 260999.99999999919,
      "d": 500,
      "v": 127
    },
    {
      "midi": 39,
      "hit": false,
      "t": 260999.99999999983,
      "d": 500,
      "v": 127
    },
    {
      "midi": 39,
      "hit": false,
      "t": 261999.99999999983,
      "d": 2000,
      "v": 127
    },
    {
      "midi": 51,
      "hit": false,
      "t": 261999.99999999983,
      "d": 2000,
      "v": 127
    },
    {
      "midi": 58,
      "hit": false,
      "t": 262249.9999999992,
      "d": 250,
      "v": 127
    },
    {
      "midi": 67,
      "hit": false,
      "t": 262499.9999999992,
      "d": 250,
      "v": 127
    },
    {
      "midi": 58,
      "hit": false,
      "t": 262749.9999999992,
      "d": 250,
      "v": 127
    },
    {
      "midi": 67,
      "hit": false,
      "t": 262999.9999999992,
      "d": 250,
      "v": 127
    },
    {
      "midi": 58,
      "hit": false,
      "t": 263249.9999999992,
      "d": 250,
      "v": 127
    },
    {
      "midi": 67,
      "hit": false,
      "t": 263499.9999999992,
      "d": 250,
      "v": 127
    },
    {
      "midi": 58,
      "hit": false,
      "t": 263749.9999999992,
      "d": 250,
      "v": 127
    },
    {
      "midi": 39,
      "hit": false,
      "t": 263999.9999999998,
      "d": 2000,
      "v": 127
    },
    {
      "midi": 51,
      "hit": false,
      "t": 263999.9999999998,
      "d": 2000,
      "v": 127
    },
    {
      "midi": 58,
      "hit": false,
      "t": 264249.9999999992,
      "d": 250,
      "v": 127
    },
    {
      "midi": 68,
      "hit": false,
      "t": 264499.9999999992,
      "d": 250,
      "v": 127
    },
    {
      "midi": 58,
      "hit": false,
      "t": 264749.9999999992,
      "d": 250,
      "v": 127
    },
    {
      "midi": 68,
      "hit": false,
      "t": 264999.9999999992,
      "d": 250,
      "v": 127
    },
    {
      "midi": 58,
      "hit": false,
      "t": 265249.9999999992,
      "d": 250,
      "v": 127
    },
    {
      "midi": 68,
      "hit": false,
      "t": 265499.9999999992,
      "d": 250,
      "v": 127
    },
    {
      "midi": 58,
      "hit": false,
      "t": 265749.9999999992,
      "d": 250,
      "v": 127
    },
    {
      "midi": 39,
      "hit": false,
      "t": 265999.9999999998,
      "d": 2000,
      "v": 127
    },
    {
      "midi": 51,
      "hit": false,
      "t": 265999.9999999998,
      "d": 2000,
      "v": 127
    },
    {
      "midi": 58,
      "hit": false,
      "t": 266249.9999999992,
      "d": 250,
      "v": 127
    },
    {
      "midi": 67,
      "hit": false,
      "t": 266499.9999999992,
      "d": 250,
      "v": 127
    },
    {
      "midi": 58,
      "hit": false,
      "t": 266749.9999999992,
      "d": 250,
      "v": 127
    },
    {
      "midi": 67,
      "hit": false,
      "t": 266999.9999999992,
      "d": 250,
      "v": 127
    },
    {
      "midi": 58,
      "hit": false,
      "t": 267249.9999999992,
      "d": 250,
      "v": 127
    },
    {
      "midi": 67,
      "hit": false,
      "t": 267499.9999999992,
      "d": 250,
      "v": 127
    },
    {
      "midi": 58,
      "hit": false,
      "t": 267749.9999999992,
      "d": 250,
      "v": 127
    },
    {
      "midi": 60,
      "hit": false,
      "t": 267999.9999999992,
      "d": 500,
      "v": 127
    },
    {
      "midi": 63,
      "hit": false,
      "t": 267999.9999999992,
      "d": 500,
      "v": 127
    },
    {
      "midi": 68,
      "hit": false,
      "t": 267999.9999999992,
      "d": 500,
      "v": 127
    },
    {
      "midi": 44,
      "hit": false,
      "t": 267999.9999999998,
      "d": 500,
      "v": 127
    },
    {
      "midi": 71,
      "hit": false,
      "t": 269999.9999999992,
      "d": 1000,
      "v": 127
    },
    {
      "midi": 56,
      "hit": false,
      "t": 269999.9999999998,
      "d": 250,
      "v": 127
    },
    {
      "midi": 63,
      "hit": false,
      "t": 270249.9999999998,
      "d": 250,
      "v": 127
    },
    {
      "midi": 59,
      "hit": false,
      "t": 270499.9999999998,
      "d": 250,
      "v": 127
    },
    {
      "midi": 63,
      "hit": false,
      "t": 270749.9999999998,
      "d": 250,
      "v": 127
    },
    {
      "midi": 56,
      "hit": false,
      "t": 270999.9999999998,
      "d": 250,
      "v": 127
    },
    {
      "midi": 73,
      "hit": false,
      "t": 271249.9999999992,
      "d": 125,
      "v": 127
    },
    {
      "midi": 63,
      "hit": false,
      "t": 271249.9999999998,
      "d": 250,
      "v": 127
    },
    {
      "midi": 71,
      "hit": false,
      "t": 271374.9999999992,
      "d": 125,
      "v": 127
    },
    {
      "midi": 70,
      "hit": false,
      "t": 271499.9999999992,
      "d": 250,
      "v": 127
    },
    {
      "midi": 54,
      "hit": false,
      "t": 271499.9999999998,
      "d": 250,
      "v": 127
    },
    {
      "midi": 68,
      "hit": false,
      "t": 271749.9999999992,
      "d": 250,
      "v": 127
    },
    {
      "midi": 63,
      "hit": false,
      "t": 271749.9999999998,
      "d": 250,
      "v": 127
    },
    {
      "midi": 75,
      "hit": false,
      "t": 271999.9999999992,
      "d": 250,
      "v": 127
    },
    {
      "midi": 52,
      "hit": false,
      "t": 271999.9999999998,
      "d": 250,
      "v": 127
    },
    {
      "midi": 74,
      "hit": false,
      "t": 272249.9999999992,
      "d": 250,
      "v": 127
    },
    {
      "midi": 59,
      "hit": false,
      "t": 272249.9999999998,
      "d": 250,
      "v": 127
    },
    {
      "midi": 74,
      "hit": false,
      "t": 272499.9999999992,
      "d": 750,
      "v": 127
    },
    {
      "midi": 56,
      "hit": false,
      "t": 272499.9999999998,
      "d": 250,
      "v": 127
    },
    {
      "midi": 59,
      "hit": false,
      "t": 272749.9999999998,
      "d": 250,
      "v": 127
    },
    {
      "midi": 52,
      "hit": false,
      "t": 272999.9999999998,
      "d": 500,
      "v": 127
    },
    {
      "midi": 80,
      "hit": false,
      "t": 273249.9999999992,
      "d": 125,
      "v": 127
    },
    {
      "midi": 82,
      "hit": false,
      "t": 273249.9999999992,
      "d": 125,
      "v": 127
    },
    {
      "midi": 79,
      "hit": false,
      "t": 273374.9999999992,
      "d": 125,
      "v": 127
    },
    {
      "midi": 80,
      "hit": false,
      "t": 273499.9999999992,
      "d": 250,
      "v": 127
    },
    {
      "midi": 83,
      "hit": false,
      "t": 273749.9999999992,
      "d": 250,
      "v": 127
    },
    {
      "midi": 82,
      "hit": false,
      "t": 273999.9999999992,
      "d": 250,
      "v": 127
    },
    {
      "midi": 64,
      "hit": false,
      "t": 273999.9999999998,
      "d": 2000,
      "v": 127
    },
    {
      "midi": 68,
      "hit": false,
      "t": 273999.9999999998,
      "d": 2000,
      "v": 127
    },
    {
      "midi": 80,
      "hit": false,
      "t": 274249.9999999992,
      "d": 250,
      "v": 127
    },
    {
      "midi": 78,
      "hit": false,
      "t": 274499.9999999992,
      "d": 250,
      "v": 127
    },
    {
      "midi": 76,
      "hit": false,
      "t": 274749.9999999992,
      "d": 250,
      "v": 127
    },
    {
      "midi": 76,
      "hit": false,
      "t": 274999.9999999992,
      "d": 250,
      "v": 127
    },
    {
      "midi": 75,
      "hit": false,
      "t": 275249.9999999992,
      "d": 250,
      "v": 127
    },
    {
      "midi": 75,
      "hit": false,
      "t": 275499.9999999992,
      "d": 250,
      "v": 127
    },
    {
      "midi": 74,
      "hit": false,
      "t": 275749.9999999992,
      "d": 250,
      "v": 127
    },
    {
      "midi": 75,
      "hit": false,
      "t": 275999.9999999992,
      "d": 250,
      "v": 127
    },
    {
      "midi": 63,
      "hit": false,
      "t": 275999.9999999998,
      "d": 500,
      "v": 127
    },
    {
      "midi": 67,
      "hit": false,
      "t": 275999.9999999998,
      "d": 500,
      "v": 127
    },
    {
      "midi": 79,
      "hit": false,
      "t": 276249.9999999992,
      "d": 250,
      "v": 127
    },
    {
      "midi": 75,
      "hit": false,
      "t": 276499.9999999992,
      "d": 250,
      "v": 127
    },
    {
      "midi": 70,
      "hit": false,
      "t": 276749.9999999992,
      "d": 250,
      "v": 127
    },
    {
      "midi": 67,
      "hit": false,
      "t": 276999.9999999992,
      "d": 250,
      "v": 127
    },
    {
      "midi": 63,
      "hit": false,
      "t": 277249.9999999992,
      "d": 250,
      "v": 127
    },
    {
      "midi": 58,
      "hit": false,
      "t": 277499.9999999992,
      "d": 250,
      "v": 127
    },
    {
      "midi": 55,
      "hit": false,
      "t": 277749.9999999992,
      "d": 250,
      "v": 127
    },
    {
      "midi": 53,
      "hit": false,
      "t": 277999.9999999992,
      "d": 250,
      "v": 127
    },
    {
      "midi": 34,
      "hit": false,
      "t": 277999.9999999998,
      "d": 2000,
      "v": 127
    },
    {
      "midi": 46,
      "hit": false,
      "t": 277999.9999999998,
      "d": 2000,
      "v": 127
    },
    {
      "midi": 58,
      "hit": false,
      "t": 278249.9999999992,
      "d": 250,
      "v": 127
    },
    {
      "midi": 62,
      "hit": false,
      "t": 278499.9999999992,
      "d": 250,
      "v": 127
    },
    {
      "midi": 58,
      "hit": false,
      "t": 278749.9999999992,
      "d": 250,
      "v": 127
    },
    {
      "midi": 56,
      "hit": false,
      "t": 278999.9999999992,
      "d": 250,
      "v": 127
    },
    {
      "midi": 58,
      "hit": false,
      "t": 279249.9999999992,
      "d": 250,
      "v": 127
    },
    {
      "midi": 62,
      "hit": false,
      "t": 279499.9999999992,
      "d": 250,
      "v": 127
    },
    {
      "midi": 58,
      "hit": false,
      "t": 279749.9999999992,
      "d": 250,
      "v": 127
    },
    {
      "midi": 63,
      "hit": false,
      "t": 279999.9999999992,
      "d": 250,
      "v": 127
    },
    {
      "midi": 70,
      "hit": false,
      "t": 280249.9999999992,
      "d": 250,
      "v": 127
    },
    {
      "midi": 67,
      "hit": false,
      "t": 280499.9999999992,
      "d": 250,
      "v": 127
    },
    {
      "midi": 39,
      "hit": false,
      "t": 280499.9999999998,
      "d": 500,
      "v": 127
    },
    {
      "midi": 63,
      "hit": false,
      "t": 280749.9999999992,
      "d": 250,
      "v": 127
    },
    {
      "midi": 58,
      "hit": false,
      "t": 280999.9999999992,
      "d": 250,
      "v": 127
    },
    {
      "midi": 43,
      "hit": false,
      "t": 280999.9999999998,
      "d": 500,
      "v": 127
    },
    {
      "midi": 63,
      "hit": false,
      "t": 281249.9999999992,
      "d": 250,
      "v": 127
    },
    {
      "midi": 58,
      "hit": false,
      "t": 281499.9999999992,
      "d": 250,
      "v": 127
    },
    {
      "midi": 39,
      "hit": false,
      "t": 281499.9999999998,
      "d": 500,
      "v": 127
    },
    {
      "midi": 55,
      "hit": false,
      "t": 281749.9999999992,
      "d": 250,
      "v": 127
    },
    {
      "midi": 53,
      "hit": false,
      "t": 281999.9999999992,
      "d": 250,
      "v": 127
    },
    {
      "midi": 34,
      "hit": false,
      "t": 281999.9999999998,
      "d": 2000,
      "v": 127
    },
    {
      "midi": 46,
      "hit": false,
      "t": 281999.9999999998,
      "d": 2000,
      "v": 127
    },
    {
      "midi": 58,
      "hit": false,
      "t": 282249.9999999992,
      "d": 250,
      "v": 127
    },
    {
      "midi": 62,
      "hit": false,
      "t": 282499.9999999992,
      "d": 250,
      "v": 127
    },
    {
      "midi": 58,
      "hit": false,
      "t": 282749.9999999992,
      "d": 250,
      "v": 127
    },
    {
      "midi": 56,
      "hit": false,
      "t": 282999.9999999992,
      "d": 250,
      "v": 127
    },
    {
      "midi": 58,
      "hit": false,
      "t": 283249.9999999992,
      "d": 250,
      "v": 127
    },
    {
      "midi": 62,
      "hit": false,
      "t": 283499.9999999992,
      "d": 250,
      "v": 127
    },
    {
      "midi": 58,
      "hit": false,
      "t": 283749.9999999992,
      "d": 250,
      "v": 127
    },
    {
      "midi": 63,
      "hit": false,
      "t": 283999.9999999992,
      "d": 250,
      "v": 127
    },
    {
      "midi": 58,
      "hit": false,
      "t": 284249.9999999992,
      "d": 250,
      "v": 127
    },
    {
      "midi": 55,
      "hit": false,
      "t": 284499.9999999992,
      "d": 250,
      "v": 127
    },
    {
      "midi": 39,
      "hit": false,
      "t": 284499.9999999998,
      "d": 500,
      "v": 127
    },
    {
      "midi": 51,
      "hit": false,
      "t": 284499.9999999998,
      "d": 500,
      "v": 127
    },
    {
      "midi": 58,
      "hit": false,
      "t": 284749.9999999992,
      "d": 250,
      "v": 127
    },
    {
      "midi": 56,
      "hit": false,
      "t": 284999.9999999992,
      "d": 250,
      "v": 127
    },
    {
      "midi": 38,
      "hit": false,
      "t": 284999.9999999998,
      "d": 500,
      "v": 127
    },
    {
      "midi": 50,
      "hit": false,
      "t": 284999.9999999998,
      "d": 500,
      "v": 127
    },
    {
      "midi": 58,
      "hit": false,
      "t": 285249.9999999992,
      "d": 250,
      "v": 127
    },
    {
      "midi": 62,
      "hit": false,
      "t": 285499.9999999992,
      "d": 250,
      "v": 127
    },
    {
      "midi": 34,
      "hit": false,
      "t": 285499.9999999998,
      "d": 500,
      "v": 127
    },
    {
      "midi": 46,
      "hit": false,
      "t": 285499.9999999998,
      "d": 500,
      "v": 127
    },
    {
      "midi": 58,
      "hit": false,
      "t": 285749.9999999992,
      "d": 250,
      "v": 127
    },
    {
      "midi": 63,
      "hit": false,
      "t": 285999.9999999992,
      "d": 250,
      "v": 127
    },
    {
      "midi": 58,
      "hit": false,
      "t": 286249.9999999992,
      "d": 250,
      "v": 127
    },
    {
      "midi": 55,
      "hit": false,
      "t": 286499.9999999992,
      "d": 250,
      "v": 127
    },
    {
      "midi": 39,
      "hit": false,
      "t": 286499.9999999998,
      "d": 500,
      "v": 127
    },
    {
      "midi": 51,
      "hit": false,
      "t": 286499.9999999998,
      "d": 500,
      "v": 127
    },
    {
      "midi": 58,
      "hit": false,
      "t": 286749.9999999992,
      "d": 250,
      "v": 127
    },
    {
      "midi": 56,
      "hit": false,
      "t": 286999.9999999992,
      "d": 250,
      "v": 127
    },
    {
      "midi": 38,
      "hit": false,
      "t": 286999.9999999998,
      "d": 500,
      "v": 127
    },
    {
      "midi": 50,
      "hit": false,
      "t": 286999.9999999998,
      "d": 500,
      "v": 127
    },
    {
      "midi": 58,
      "hit": false,
      "t": 287249.9999999992,
      "d": 250,
      "v": 127
    },
    {
      "midi": 62,
      "hit": false,
      "t": 287499.9999999992,
      "d": 250,
      "v": 127
    },
    {
      "midi": 34,
      "hit": false,
      "t": 287499.9999999998,
      "d": 500,
      "v": 127
    },
    {
      "midi": 46,
      "hit": false,
      "t": 287499.9999999998,
      "d": 500,
      "v": 127
    },
    {
      "midi": 58,
      "hit": false,
      "t": 287749.9999999992,
      "d": 250,
      "v": 127
    },
    {
      "midi": 55,
      "hit": false,
      "t": 287999.9999999992,
      "d": 500,
      "v": 127
    },
    {
      "midi": 63,
      "hit": false,
      "t": 287999.9999999992,
      "d": 500,
      "v": 127
    },
    {
      "midi": 39,
      "hit": false,
      "t": 287999.9999999998,
      "d": 2000,
      "v": 127
    },
    {
      "midi": 51,
      "hit": false,
      "t": 287999.9999999998,
      "d": 2000,
      "v": 127
    },
    {
      "midi": 58,
      "hit": false,
      "t": 288499.9999999992,
      "d": 500,
      "v": 127
    },
    {
      "midi": 61,
      "hit": false,
      "t": 288499.9999999992,
      "d": 500,
      "v": 127
    },
    {
      "midi": 56,
      "hit": false,
      "t": 288999.9999999992,
      "d": 500,
      "v": 127
    },
    {
      "midi": 60,
      "hit": false,
      "t": 288999.9999999992,
      "d": 500,
      "v": 127
    },
    {
      "midi": 55,
      "hit": false,
      "t": 289499.9999999992,
      "d": 500,
      "v": 127
    },
    {
      "midi": 58,
      "hit": false,
      "t": 289499.9999999992,
      "d": 500,
      "v": 127
    },
    {
      "midi": 60,
      "hit": false,
      "t": 289999.9999999992,
      "d": 1000,
      "v": 127
    },
    {
      "midi": 63,
      "hit": false,
      "t": 289999.9999999992,
      "d": 1000,
      "v": 127
    },
    {
      "midi": 32,
      "hit": false,
      "t": 289999.9999999998,
      "d": 250,
      "v": 127
    },
    {
      "midi": 44,
      "hit": false,
      "t": 290249.9999999998,
      "d": 250,
      "v": 127
    },
    {
      "midi": 44,
      "hit": false,
      "t": 290499.9999999998,
      "d": 250,
      "v": 127
    },
    {
      "midi": 44,
      "hit": false,
      "t": 290749.9999999998,
      "d": 250,
      "v": 127
    },
    {
      "midi": 58,
      "hit": false,
      "t": 290999.9999999992,
      "d": 500,
      "v": 127
    },
    {
      "midi": 61,
      "hit": false,
      "t": 290999.9999999992,
      "d": 500,
      "v": 127
    },
    {
      "midi": 44,
      "hit": false,
      "t": 290999.9999999998,
      "d": 250,
      "v": 127
    },
    {
      "midi": 44,
      "hit": false,
      "t": 291249.9999999998,
      "d": 250,
      "v": 127
    },
    {
      "midi": 56,
      "hit": false,
      "t": 291499.9999999992,
      "d": 500,
      "v": 127
    },
    {
      "midi": 60,
      "hit": false,
      "t": 291499.9999999992,
      "d": 500,
      "v": 127
    },
    {
      "midi": 44,
      "hit": false,
      "t": 291499.9999999998,
      "d": 250,
      "v": 127
    },
    {
      "midi": 44,
      "hit": false,
      "t": 291749.9999999998,
      "d": 250,
      "v": 127
    },
    {
      "midi": 60,
      "hit": false,
      "t": 291999.9999999992,
      "d": 1000,
      "v": 127
    },
    {
      "midi": 64,
      "hit": false,
      "t": 291999.9999999992,
      "d": 1000,
      "v": 127
    },
    {
      "midi": 44,
      "hit": false,
      "t": 291999.9999999998,
      "d": 250,
      "v": 127
    },
    {
      "midi": 44,
      "hit": false,
      "t": 292249.9999999998,
      "d": 250,
      "v": 127
    },
    {
      "midi": 44,
      "hit": false,
      "t": 292499.9999999998,
      "d": 250,
      "v": 127
    },
    {
      "midi": 44,
      "hit": false,
      "t": 292749.9999999998,
      "d": 250,
      "v": 127
    },
    {
      "midi": 61,
      "hit": false,
      "t": 292999.9999999992,
      "d": 500,
      "v": 127
    },
    {
      "midi": 65,
      "hit": false,
      "t": 292999.9999999992,
      "d": 500,
      "v": 127
    },
    {
      "midi": 44,
      "hit": false,
      "t": 292999.9999999998,
      "d": 250,
      "v": 127
    },
    {
      "midi": 44,
      "hit": false,
      "t": 293249.9999999998,
      "d": 250,
      "v": 127
    },
    {
      "midi": 44,
      "hit": false,
      "t": 293499.9999999998,
      "d": 250,
      "v": 127
    },
    {
      "midi": 44,
      "hit": false,
      "t": 293749.9999999998,
      "d": 250,
      "v": 127
    },
    {
      "midi": 55,
      "hit": false,
      "t": 293999.9999999992,
      "d": 500,
      "v": 127
    },
    {
      "midi": 58,
      "hit": false,
      "t": 293999.9999999992,
      "d": 500,
      "v": 127
    },
    {
      "midi": 44,
      "hit": false,
      "t": 293999.9999999998,
      "d": 250,
      "v": 127
    },
    {
      "midi": 44,
      "hit": false,
      "t": 294249.9999999998,
      "d": 250,
      "v": 127
    },
    {
      "midi": 56,
      "hit": false,
      "t": 294499.9999999992,
      "d": 500,
      "v": 127
    },
    {
      "midi": 60,
      "hit": false,
      "t": 294499.9999999992,
      "d": 500,
      "v": 127
    },
    {
      "midi": 44,
      "hit": false,
      "t": 294499.9999999998,
      "d": 250,
      "v": 127
    },
    {
      "midi": 44,
      "hit": false,
      "t": 294749.9999999998,
      "d": 250,
      "v": 127
    },
    {
      "midi": 58,
      "hit": false,
      "t": 294999.9999999992,
      "d": 500,
      "v": 127
    },
    {
      "midi": 61,
      "hit": false,
      "t": 294999.9999999992,
      "d": 500,
      "v": 127
    },
    {
      "midi": 44,
      "hit": false,
      "t": 294999.9999999998,
      "d": 250,
      "v": 127
    },
    {
      "midi": 44,
      "hit": false,
      "t": 295249.9999999998,
      "d": 250,
      "v": 127
    },
    {
      "midi": 59,
      "hit": false,
      "t": 295499.9999999992,
      "d": 500,
      "v": 127
    },
    {
      "midi": 62,
      "hit": false,
      "t": 295499.9999999992,
      "d": 500,
      "v": 127
    },
    {
      "midi": 44,
      "hit": false,
      "t": 295499.9999999998,
      "d": 250,
      "v": 127
    },
    {
      "midi": 44,
      "hit": false,
      "t": 295749.9999999998,
      "d": 250,
      "v": 127
    },
    {
      "midi": 60,
      "hit": false,
      "t": 295999.9999999992,
      "d": 750,
      "v": 127
    },
    {
      "midi": 63,
      "hit": false,
      "t": 295999.9999999992,
      "d": 750,
      "v": 127
    },
    {
      "midi": 44,
      "hit": false,
      "t": 295999.9999999998,
      "d": 250,
      "v": 127
    },
    {
      "midi": 44,
      "hit": false,
      "t": 296249.9999999998,
      "d": 250,
      "v": 127
    },
    {
      "midi": 44,
      "hit": false,
      "t": 296499.9999999998,
      "d": 250,
      "v": 127
    },
    {
      "midi": 65,
      "hit": false,
      "t": 296749.9999999992,
      "d": 83.33333333331393,
      "v": 127
    },
    {
      "midi": 44,
      "hit": false,
      "t": 296749.9999999998,
      "d": 250,
      "v": 127
    },
    {
      "midi": 63,
      "hit": false,
      "t": 296833.3333333325,
      "d": 83.33333333331393,
      "v": 127
    },
    {
      "midi": 58,
      "hit": false,
      "t": 296916.6666666658,
      "d": 83.33333333331393,
      "v": 127
    },
    {
      "midi": 61,
      "hit": false,
      "t": 296916.6666666658,
      "d": 83.33333333331393,
      "v": 127
    },
    {
      "midi": 56,
      "hit": false,
      "t": 296999.9999999991,
      "d": 500,
      "v": 127
    },
    {
      "midi": 60,
      "hit": false,
      "t": 296999.9999999991,
      "d": 500,
      "v": 127
    },
    {
      "midi": 44,
      "hit": false,
      "t": 296999.9999999998,
      "d": 250,
      "v": 127
    },
    {
      "midi": 44,
      "hit": false,
      "t": 297249.9999999998,
      "d": 250,
      "v": 127
    },
    {
      "midi": 48,
      "hit": false,
      "t": 297499.9999999998,
      "d": 250,
      "v": 127
    },
    {
      "midi": 44,
      "hit": false,
      "t": 297749.9999999998,
      "d": 250,
      "v": 127
    },
    {
      "midi": 55,
      "hit": false,
      "t": 297999.9999999991,
      "d": 2000,
      "v": 127
    },
    {
      "midi": 58,
      "hit": false,
      "t": 297999.9999999991,
      "d": 2000,
      "v": 127
    },
    {
      "midi": 63,
      "hit": false,
      "t": 297999.9999999991,
      "d": 2000,
      "v": 127
    },
    {
      "midi": 39,
      "hit": false,
      "t": 297999.9999999998,
      "d": 1500,
      "v": 127
    },
    {
      "midi": 51,
      "hit": false,
      "t": 297999.9999999998,
      "d": 1500,
      "v": 127
    },
    {
      "midi": 37,
      "hit": false,
      "t": 299499.9999999998,
      "d": 500,
      "v": 127
    },
    {
      "midi": 49,
      "hit": false,
      "t": 299499.9999999998,
      "d": 500,
      "v": 127
    },
    {
      "midi": 56,
      "hit": false,
      "t": 299999.9999999991,
      "d": 500,
      "v": 127
    },
    {
      "midi": 60,
      "hit": false,
      "t": 299999.9999999991,
      "d": 500,
      "v": 127
    },
    {
      "midi": 63,
      "hit": false,
      "t": 299999.9999999991,
      "d": 500,
      "v": 127
    },
    {
      "midi": 36,
      "hit": false,
      "t": 299999.9999999998,
      "d": 500,
      "v": 127
    },
    {
      "midi": 48,
      "hit": false,
      "t": 299999.9999999998,
      "d": 500,
      "v": 127
    },
    {
      "midi": 66,
      "hit": false,
      "t": 301499.9999999991,
      "d": 500,
      "v": 127
    },
    {
      "midi": 48,
      "hit": false,
      "t": 301499.9999999998,
      "d": 500,
      "v": 127
    },
    {
      "midi": 65,
      "hit": false,
      "t": 301999.9999999991,
      "d": 1000,
      "v": 127
    },
    {
      "midi": 49,
      "hit": false,
      "t": 301999.9999999998,
      "d": 500,
      "v": 127
    },
    {
      "midi": 49,
      "hit": false,
      "t": 302499.9999999998,
      "d": 500,
      "v": 127
    },
    {
      "midi": 63,
      "hit": false,
      "t": 302999.9999999991,
      "d": 500,
      "v": 127
    },
    {
      "midi": 51,
      "hit": false,
      "t": 302999.9999999998,
      "d": 500,
      "v": 127
    },
    {
      "midi": 61,
      "hit": false,
      "t": 303499.9999999991,
      "d": 500,
      "v": 127
    },
    {
      "midi": 63,
      "hit": false,
      "t": 303499.9999999991,
      "d": 500,
      "v": 127
    },
    {
      "midi": 51,
      "hit": false,
      "t": 303499.9999999998,
      "d": 500,
      "v": 127
    },
    {
      "midi": 63,
      "hit": false,
      "t": 303999.9999999991,
      "d": 1000,
      "v": 127
    },
    {
      "midi": 56,
      "hit": false,
      "t": 303999.9999999998,
      "d": 500,
      "v": 127
    },
    {
      "midi": 51,
      "hit": false,
      "t": 304499.9999999998,
      "d": 500,
      "v": 127
    },
    {
      "midi": 60,
      "hit": false,
      "t": 304999.9999999991,
      "d": 500,
      "v": 127
    },
    {
      "midi": 44,
      "hit": false,
      "t": 304999.9999999998,
      "d": 500,
      "v": 127
    },
    {
      "midi": 60,
      "hit": false,
      "t": 305999.9999999991,
      "d": 500,
      "v": 127
    },
    {
      "midi": 63,
      "hit": false,
      "t": 305999.9999999991,
      "d": 500,
      "v": 127
    },
    {
      "midi": 44,
      "hit": false,
      "t": 305999.9999999998,
      "d": 500,
      "v": 127
    },
    {
      "midi": 56,
      "hit": false,
      "t": 306499.9999999998,
      "d": 500,
      "v": 127
    },
    {
      "midi": 36,
      "hit": false,
      "t": 307999.9999999998,
      "d": 2000,
      "v": 127
    },
    {
      "midi": 48,
      "hit": false,
      "t": 307999.9999999998,
      "d": 2000,
      "v": 127
    },
    {
      "midi": 70,
      "hit": false,
      "t": 308499.9999999991,
      "d": 500,
      "v": 127
    },
    {
      "midi": 73,
      "hit": false,
      "t": 308499.9999999991,
      "d": 500,
      "v": 127
    },
    {
      "midi": 68,
      "hit": false,
      "t": 308999.9999999991,
      "d": 500,
      "v": 127
    },
    {
      "midi": 72,
      "hit": false,
      "t": 308999.9999999991,
      "d": 500,
      "v": 127
    },
    {
      "midi": 64,
      "hit": false,
      "t": 309499.9999999991,
      "d": 500,
      "v": 127
    },
    {
      "midi": 70,
      "hit": false,
      "t": 309499.9999999991,
      "d": 500,
      "v": 127
    },
    {
      "midi": 64,
      "hit": false,
      "t": 309999.9999999991,
      "d": 250,
      "v": 127
    },
    {
      "midi": 67,
      "hit": false,
      "t": 309999.9999999991,
      "d": 250,
      "v": 127
    },
    {
      "midi": 41,
      "hit": false,
      "t": 309999.9999999998,
      "d": 500,
      "v": 127
    },
    {
      "midi": 65,
      "hit": false,
      "t": 310249.9999999991,
      "d": 250,
      "v": 127
    },
    {
      "midi": 68,
      "hit": false,
      "t": 310249.9999999991,
      "d": 250,
      "v": 127
    },
    {
      "midi": 65,
      "hit": false,
      "t": 310499.9999999991,
      "d": 500,
      "v": 127
    },
    {
      "midi": 68,
      "hit": false,
      "t": 310499.9999999991,
      "d": 500,
      "v": 127
    },
    {
      "midi": 53,
      "hit": false,
      "t": 310499.9999999998,
      "d": 500,
      "v": 127
    },
    {
      "midi": 56,
      "hit": false,
      "t": 311999.9999999998,
      "d": 1000,
      "v": 127
    },
    {
      "midi": 55,
      "hit": false,
      "t": 312999.9999999998,
      "d": 500,
      "v": 127
    },
    {
      "midi": 50,
      "hit": false,
      "t": 313499.9999999998,
      "d": 500,
      "v": 127
    },
    {
      "midi": 51,
      "hit": false,
      "t": 313999.9999999998,
      "d": 250,
      "v": 127
    },
    {
      "midi": 51,
      "hit": false,
      "t": 314249.9999999998,
      "d": 250,
      "v": 127
    },
    {
      "midi": 75,
      "hit": false,
      "t": 314499.9999999991,
      "d": 750,
      "v": 127
    },
    {
      "midi": 46,
      "hit": false,
      "t": 314499.9999999998,
      "d": 250,
      "v": 127
    },
    {
      "midi": 43,
      "hit": false,
      "t": 314749.9999999998,
      "d": 250,
      "v": 127
    },
    {
      "midi": 39,
      "hit": false,
      "t": 314999.9999999998,
      "d": 500,
      "v": 127
    },
    {
      "midi": 77,
      "hit": false,
      "t": 315249.9999999991,
      "d": 83.33333333331393,
      "v": 127
    },
    {
      "midi": 75,
      "hit": false,
      "t": 315333.33333333244,
      "d": 83.33333333331393,
      "v": 127
    },
    {
      "midi": 74,
      "hit": false,
      "t": 315416.66666666575,
      "d": 83.33333333331393,
      "v": 127
    },
    {
      "midi": 75,
      "hit": false,
      "t": 315499.99999999907,
      "d": 250,
      "v": 127
    },
    {
      "midi": 77,
      "hit": false,
      "t": 315749.99999999907,
      "d": 250,
      "v": 127
    },
    {
      "midi": 80,
      "hit": false,
      "t": 315999.99999999907,
      "d": 250,
      "v": 127
    },
    {
      "midi": 63,
      "hit": false,
      "t": 315999.9999999998,
      "d": 250,
      "v": 127
    },
    {
      "midi": 78,
      "hit": false,
      "t": 316249.99999999907,
      "d": 250,
      "v": 127
    },
    {
      "midi": 70,
      "hit": false,
      "t": 316249.9999999998,
      "d": 250,
      "v": 127
    },
    {
      "midi": 78,
      "hit": false,
      "t": 316499.99999999907,
      "d": 750,
      "v": 127
    },
    {
      "midi": 66,
      "hit": false,
      "t": 316499.9999999998,
      "d": 250,
      "v": 127
    },
    {
      "midi": 70,
      "hit": false,
      "t": 316749.9999999998,
      "d": 250,
      "v": 127
    },
    {
      "midi": 63,
      "hit": false,
      "t": 316999.9999999998,
      "d": 250,
      "v": 127
    },
    {
      "midi": 80,
      "hit": false,
      "t": 317249.99999999907,
      "d": 125,
      "v": 127
    },
    {
      "midi": 70,
      "hit": false,
      "t": 317249.9999999998,
      "d": 250,
      "v": 127
    },
    {
      "midi": 78,
      "hit": false,
      "t": 317374.99999999907,
      "d": 125,
      "v": 127
    },
    {
      "midi": 77,
      "hit": false,
      "t": 317499.99999999907,
      "d": 250,
      "v": 127
    },
    {
      "midi": 61,
      "hit": false,
      "t": 317499.9999999998,
      "d": 250,
      "v": 127
    },
    {
      "midi": 75,
      "hit": false,
      "t": 317749.99999999907,
      "d": 250,
      "v": 127
    },
    {
      "midi": 70,
      "hit": false,
      "t": 317749.9999999998,
      "d": 250,
      "v": 127
    },
    {
      "midi": 82,
      "hit": false,
      "t": 317999.99999999907,
      "d": 250,
      "v": 127
    },
    {
      "midi": 59,
      "hit": false,
      "t": 317999.9999999998,
      "d": 250,
      "v": 127
    },
    {
      "midi": 81,
      "hit": false,
      "t": 318249.99999999907,
      "d": 250,
      "v": 127
    },
    {
      "midi": 66,
      "hit": false,
      "t": 318249.9999999998,
      "d": 250,
      "v": 127
    },
    {
      "midi": 81,
      "hit": false,
      "t": 318499.99999999907,
      "d": 750,
      "v": 127
    },
    {
      "midi": 63,
      "hit": false,
      "t": 318499.9999999998,
      "d": 250,
      "v": 127
    },
    {
      "midi": 66,
      "hit": false,
      "t": 318749.9999999998,
      "d": 250,
      "v": 127
    },
    {
      "midi": 59,
      "hit": false,
      "t": 318999.9999999998,
      "d": 250,
      "v": 127
    },
    {
      "midi": 87,
      "hit": false,
      "t": 319249.99999999907,
      "d": 125,
      "v": 127
    },
    {
      "midi": 89,
      "hit": false,
      "t": 319249.99999999907,
      "d": 125,
      "v": 127
    },
    {
      "midi": 66,
      "hit": false,
      "t": 319249.9999999998,
      "d": 250,
      "v": 127
    },
    {
      "midi": 86,
      "hit": false,
      "t": 319374.99999999907,
      "d": 125,
      "v": 127
    },
    {
      "midi": 87,
      "hit": false,
      "t": 319499.99999999907,
      "d": 250,
      "v": 127
    },
    {
      "midi": 63,
      "hit": false,
      "t": 319499.9999999998,
      "d": 250,
      "v": 127
    },
    {
      "midi": 87,
      "hit": false,
      "t": 319749.99999999907,
      "d": 250,
      "v": 127
    },
    {
      "midi": 66,
      "hit": false,
      "t": 319749.9999999998,
      "d": 250,
      "v": 127
    },
    {
      "midi": 89,
      "hit": false,
      "t": 319999.99999999907,
      "d": 250,
      "v": 127
    },
    {
      "midi": 59,
      "hit": false,
      "t": 319999.9999999998,
      "d": 2000,
      "v": 127
    },
    {
      "midi": 63,
      "hit": false,
      "t": 319999.9999999998,
      "d": 2000,
      "v": 127
    },
    {
      "midi": 87,
      "hit": false,
      "t": 320249.99999999907,
      "d": 250,
      "v": 127
    },
    {
      "midi": 85,
      "hit": false,
      "t": 320499.99999999907,
      "d": 250,
      "v": 127
    },
    {
      "midi": 83,
      "hit": false,
      "t": 320749.99999999907,
      "d": 250,
      "v": 127
    },
    {
      "midi": 83,
      "hit": false,
      "t": 320999.99999999907,
      "d": 250,
      "v": 127
    },
    {
      "midi": 82,
      "hit": false,
      "t": 321249.99999999907,
      "d": 250,
      "v": 127
    },
    {
      "midi": 82,
      "hit": false,
      "t": 321499.99999999907,
      "d": 250,
      "v": 127
    },
    {
      "midi": 81,
      "hit": false,
      "t": 321749.99999999907,
      "d": 250,
      "v": 127
    },
    {
      "midi": 82,
      "hit": false,
      "t": 321999.99999999907,
      "d": 250,
      "v": 127
    },
    {
      "midi": 58,
      "hit": false,
      "t": 321999.9999999998,
      "d": 500,
      "v": 127
    },
    {
      "midi": 62,
      "hit": false,
      "t": 321999.9999999998,
      "d": 500,
      "v": 127
    },
    {
      "midi": 86,
      "hit": false,
      "t": 322249.99999999907,
      "d": 250,
      "v": 127
    },
    {
      "midi": 82,
      "hit": false,
      "t": 322499.99999999907,
      "d": 250,
      "v": 127
    },
    {
      "midi": 77,
      "hit": false,
      "t": 322749.99999999907,
      "d": 250,
      "v": 127
    },
    {
      "midi": 74,
      "hit": false,
      "t": 322999.99999999907,
      "d": 250,
      "v": 127
    },
    {
      "midi": 70,
      "hit": false,
      "t": 323249.99999999907,
      "d": 250,
      "v": 127
    },
    {
      "midi": 65,
      "hit": false,
      "t": 323499.99999999907,
      "d": 250,
      "v": 127
    },
    {
      "midi": 62,
      "hit": false,
      "t": 323749.99999999907,
      "d": 250,
      "v": 127
    },
    {
      "midi": 60,
      "hit": false,
      "t": 323999.99999999907,
      "d": 250,
      "v": 127
    },
    {
      "midi": 41,
      "hit": false,
      "t": 323999.9999999998,
      "d": 2000,
      "v": 127
    },
    {
      "midi": 53,
      "hit": false,
      "t": 323999.9999999998,
      "d": 2000,
      "v": 127
    },
    {
      "midi": 65,
      "hit": false,
      "t": 324249.99999999907,
      "d": 250,
      "v": 127
    },
    {
      "midi": 69,
      "hit": false,
      "t": 324499.99999999907,
      "d": 250,
      "v": 127
    },
    {
      "midi": 65,
      "hit": false,
      "t": 324749.99999999907,
      "d": 250,
      "v": 127
    },
    {
      "midi": 63,
      "hit": false,
      "t": 324999.99999999907,
      "d": 250,
      "v": 127
    },
    {
      "midi": 65,
      "hit": false,
      "t": 325249.99999999907,
      "d": 250,
      "v": 127
    },
    {
      "midi": 69,
      "hit": false,
      "t": 325499.99999999907,
      "d": 250,
      "v": 127
    },
    {
      "midi": 65,
      "hit": false,
      "t": 325749.99999999907,
      "d": 250,
      "v": 127
    },
    {
      "midi": 70,
      "hit": false,
      "t": 325999.99999999907,
      "d": 250,
      "v": 127
    },
    {
      "midi": 77,
      "hit": false,
      "t": 326249.99999999907,
      "d": 250,
      "v": 127
    },
    {
      "midi": 74,
      "hit": false,
      "t": 326499.99999999907,
      "d": 250,
      "v": 127
    },
    {
      "midi": 46,
      "hit": false,
      "t": 326499.9999999998,
      "d": 500,
      "v": 127
    },
    {
      "midi": 70,
      "hit": false,
      "t": 326749.99999999907,
      "d": 250,
      "v": 127
    },
    {
      "midi": 65,
      "hit": false,
      "t": 326999.99999999907,
      "d": 250,
      "v": 127
    },
    {
      "midi": 50,
      "hit": false,
      "t": 326999.9999999998,
      "d": 500,
      "v": 127
    },
    {
      "midi": 70,
      "hit": false,
      "t": 327249.99999999907,
      "d": 250,
      "v": 127
    },
    {
      "midi": 65,
      "hit": false,
      "t": 327499.99999999907,
      "d": 250,
      "v": 127
    },
    {
      "midi": 46,
      "hit": false,
      "t": 327499.9999999998,
      "d": 500,
      "v": 127
    },
    {
      "midi": 62,
      "hit": false,
      "t": 327749.99999999907,
      "d": 250,
      "v": 127
    },
    {
      "midi": 60,
      "hit": false,
      "t": 327999.99999999907,
      "d": 250,
      "v": 127
    },
    {
      "midi": 41,
      "hit": false,
      "t": 327999.9999999998,
      "d": 2000,
      "v": 127
    },
    {
      "midi": 53,
      "hit": false,
      "t": 327999.9999999998,
      "d": 2000,
      "v": 127
    },
    {
      "midi": 65,
      "hit": false,
      "t": 328249.99999999907,
      "d": 250,
      "v": 127
    },
    {
      "midi": 69,
      "hit": false,
      "t": 328499.99999999907,
      "d": 250,
      "v": 127
    },
    {
      "midi": 65,
      "hit": false,
      "t": 328749.99999999907,
      "d": 250,
      "v": 127
    },
    {
      "midi": 63,
      "hit": false,
      "t": 328999.99999999907,
      "d": 250,
      "v": 127
    },
    {
      "midi": 65,
      "hit": false,
      "t": 329249.99999999907,
      "d": 250,
      "v": 127
    },
    {
      "midi": 69,
      "hit": false,
      "t": 329499.99999999907,
      "d": 250,
      "v": 127
    },
    {
      "midi": 65,
      "hit": false,
      "t": 329749.99999999907,
      "d": 250,
      "v": 127
    },
    {
      "midi": 70,
      "hit": false,
      "t": 329999.99999999907,
      "d": 250,
      "v": 127
    },
    {
      "midi": 65,
      "hit": false,
      "t": 330249.99999999907,
      "d": 250,
      "v": 127
    },
    {
      "midi": 62,
      "hit": false,
      "t": 330499.99999999907,
      "d": 250,
      "v": 127
    },
    {
      "midi": 46,
      "hit": false,
      "t": 330499.9999999998,
      "d": 500,
      "v": 127
    },
    {
      "midi": 58,
      "hit": false,
      "t": 330499.9999999998,
      "d": 500,
      "v": 127
    },
    {
      "midi": 65,
      "hit": false,
      "t": 330749.99999999907,
      "d": 250,
      "v": 127
    },
    {
      "midi": 63,
      "hit": false,
      "t": 330999.99999999907,
      "d": 250,
      "v": 127
    },
    {
      "midi": 45,
      "hit": false,
      "t": 330999.9999999998,
      "d": 500,
      "v": 127
    },
    {
      "midi": 57,
      "hit": false,
      "t": 330999.9999999998,
      "d": 500,
      "v": 127
    },
    {
      "midi": 65,
      "hit": false,
      "t": 331249.99999999907,
      "d": 250,
      "v": 127
    },
    {
      "midi": 69,
      "hit": false,
      "t": 331499.99999999907,
      "d": 250,
      "v": 127
    },
    {
      "midi": 41,
      "hit": false,
      "t": 331499.9999999998,
      "d": 500,
      "v": 127
    },
    {
      "midi": 53,
      "hit": false,
      "t": 331499.9999999998,
      "d": 500,
      "v": 127
    },
    {
      "midi": 65,
      "hit": false,
      "t": 331749.99999999907,
      "d": 250,
      "v": 127
    },
    {
      "midi": 70,
      "hit": false,
      "t": 331999.99999999907,
      "d": 250,
      "v": 127
    },
    {
      "midi": 65,
      "hit": false,
      "t": 332249.99999999907,
      "d": 250,
      "v": 127
    },
    {
      "midi": 62,
      "hit": false,
      "t": 332499.99999999907,
      "d": 250,
      "v": 127
    },
    {
      "midi": 46,
      "hit": false,
      "t": 332499.9999999998,
      "d": 500,
      "v": 127
    },
    {
      "midi": 58,
      "hit": false,
      "t": 332499.9999999998,
      "d": 500,
      "v": 127
    },
    {
      "midi": 65,
      "hit": false,
      "t": 332749.99999999907,
      "d": 250,
      "v": 127
    },
    {
      "midi": 63,
      "hit": false,
      "t": 332999.99999999907,
      "d": 250,
      "v": 127
    },
    {
      "midi": 45,
      "hit": false,
      "t": 332999.9999999998,
      "d": 500,
      "v": 127
    },
    {
      "midi": 57,
      "hit": false,
      "t": 332999.9999999998,
      "d": 500,
      "v": 127
    },
    {
      "midi": 65,
      "hit": false,
      "t": 333249.99999999907,
      "d": 250,
      "v": 127
    },
    {
      "midi": 69,
      "hit": false,
      "t": 333499.99999999907,
      "d": 250,
      "v": 127
    },
    {
      "midi": 41,
      "hit": false,
      "t": 333499.9999999998,
      "d": 500,
      "v": 127
    },
    {
      "midi": 53,
      "hit": false,
      "t": 333499.9999999998,
      "d": 500,
      "v": 127
    },
    {
      "midi": 65,
      "hit": false,
      "t": 333749.99999999907,
      "d": 250,
      "v": 127
    },
    {
      "midi": 62,
      "hit": false,
      "t": 333999.99999999907,
      "d": 500,
      "v": 127
    },
    {
      "midi": 70,
      "hit": false,
      "t": 333999.99999999907,
      "d": 500,
      "v": 127
    },
    {
      "midi": 46,
      "hit": false,
      "t": 333999.9999999998,
      "d": 2000,
      "v": 127
    },
    {
      "midi": 58,
      "hit": false,
      "t": 333999.9999999998,
      "d": 2000,
      "v": 127
    },
    {
      "midi": 65,
      "hit": false,
      "t": 334499.99999999907,
      "d": 500,
      "v": 127
    },
    {
      "midi": 68,
      "hit": false,
      "t": 334499.99999999907,
      "d": 500,
      "v": 127
    },
    {
      "midi": 63,
      "hit": false,
      "t": 334999.99999999907,
      "d": 500,
      "v": 127
    },
    {
      "midi": 67,
      "hit": false,
      "t": 334999.99999999907,
      "d": 500,
      "v": 127
    },
    {
      "midi": 62,
      "hit": false,
      "t": 335499.99999999907,
      "d": 500,
      "v": 127
    },
    {
      "midi": 65,
      "hit": false,
      "t": 335499.99999999907,
      "d": 500,
      "v": 127
    },
    {
      "midi": 63,
      "hit": false,
      "t": 335999.99999999907,
      "d": 250,
      "v": 127
    },
    {
      "midi": 39,
      "hit": false,
      "t": 335999.9999999998,
      "d": 1000,
      "v": 127
    },
    {
      "midi": 51,
      "hit": false,
      "t": 335999.9999999998,
      "d": 1000,
      "v": 127
    },
    {
      "midi": 70,
      "hit": false,
      "t": 336249.99999999907,
      "d": 250,
      "v": 127
    },
    {
      "midi": 67,
      "hit": false,
      "t": 336499.99999999907,
      "d": 250,
      "v": 127
    },
    {
      "midi": 63,
      "hit": false,
      "t": 336749.99999999907,
      "d": 250,
      "v": 127
    },
    {
      "midi": 58,
      "hit": false,
      "t": 336999.99999999907,
      "d": 250,
      "v": 127
    },
    {
      "midi": 43,
      "hit": false,
      "t": 336999.9999999998,
      "d": 1000,
      "v": 127
    },
    {
      "midi": 55,
      "hit": false,
      "t": 336999.9999999998,
      "d": 1000,
      "v": 127
    },
    {
      "midi": 67,
      "hit": false,
      "t": 337249.99999999907,
      "d": 250,
      "v": 127
    },
    {
      "midi": 63,
      "hit": false,
      "t": 337499.99999999907,
      "d": 250,
      "v": 127
    },
    {
      "midi": 67,
      "hit": false,
      "t": 337749.99999999907,
      "d": 250,
      "v": 127
    },
    {
      "midi": 58,
      "hit": false,
      "t": 337999.99999999907,
      "d": 250,
      "v": 127
    },
    {
      "midi": 41,
      "hit": false,
      "t": 337999.9999999998,
      "d": 1000,
      "v": 127
    },
    {
      "midi": 53,
      "hit": false,
      "t": 337999.9999999998,
      "d": 1000,
      "v": 127
    },
    {
      "midi": 68,
      "hit": false,
      "t": 338249.99999999907,
      "d": 250,
      "v": 127
    },
    {
      "midi": 62,
      "hit": false,
      "t": 338499.99999999907,
      "d": 250,
      "v": 127
    },
    {
      "midi": 68,
      "hit": false,
      "t": 338749.99999999907,
      "d": 250,
      "v": 127
    },
    {
      "midi": 65,
      "hit": false,
      "t": 338999.99999999907,
      "d": 250,
      "v": 127
    },
    {
      "midi": 38,
      "hit": false,
      "t": 338999.9999999998,
      "d": 500,
      "v": 127
    },
    {
      "midi": 50,
      "hit": false,
      "t": 338999.9999999998,
      "d": 500,
      "v": 127
    },
    {
      "midi": 68,
      "hit": false,
      "t": 339249.99999999907,
      "d": 250,
      "v": 127
    },
    {
      "midi": 67,
      "hit": false,
      "t": 339499.99999999907,
      "d": 250,
      "v": 127
    },
    {
      "midi": 39,
      "hit": false,
      "t": 339499.9999999998,
      "d": 500,
      "v": 127
    },
    {
      "midi": 51,
      "hit": false,
      "t": 339499.9999999998,
      "d": 500,
      "v": 127
    },
    {
      "midi": 63,
      "hit": false,
      "t": 339749.99999999907,
      "d": 250,
      "v": 127
    },
    {
      "midi": 60,
      "hit": false,
      "t": 339999.99999999907,
      "d": 250,
      "v": 127
    },
    {
      "midi": 44,
      "hit": false,
      "t": 339999.9999999998,
      "d": 1500,
      "v": 127
    },
    {
      "midi": 56,
      "hit": false,
      "t": 339999.9999999998,
      "d": 1500,
      "v": 127
    },
    {
      "midi": 68,
      "hit": false,
      "t": 340249.99999999907,
      "d": 250,
      "v": 127
    },
    {
      "midi": 63,
      "hit": false,
      "t": 340499.99999999907,
      "d": 250,
      "v": 127
    },
    {
      "midi": 68,
      "hit": false,
      "t": 340749.99999999907,
      "d": 250,
      "v": 127
    },
    {
      "midi": 60,
      "hit": false,
      "t": 340999.99999999907,
      "d": 250,
      "v": 127
    },
    {
      "midi": 72,
      "hit": false,
      "t": 341249.99999999907,
      "d": 250,
      "v": 127
    },
    {
      "midi": 65,
      "hit": false,
      "t": 341499.99999999907,
      "d": 250,
      "v": 127
    },
    {
      "midi": 45,
      "hit": false,
      "t": 341499.9999999998,
      "d": 500,
      "v": 127
    },
    {
      "midi": 57,
      "hit": false,
      "t": 341499.9999999998,
      "d": 500,
      "v": 127
    },
    {
      "midi": 72,
      "hit": false,
      "t": 341749.99999999907,
      "d": 250,
      "v": 127
    },
    {
      "midi": 67,
      "hit": false,
      "t": 341999.99999999907,
      "d": 250,
      "v": 127
    },
    {
      "midi": 46,
      "hit": false,
      "t": 341999.9999999998,
      "d": 1000,
      "v": 127
    },
    {
      "midi": 58,
      "hit": false,
      "t": 341999.9999999998,
      "d": 1000,
      "v": 127
    },
    {
      "midi": 70,
      "hit": false,
      "t": 342249.99999999907,
      "d": 250,
      "v": 127
    },
    {
      "midi": 68,
      "hit": false,
      "t": 342499.99999999907,
      "d": 250,
      "v": 127
    },
    {
      "midi": 67,
      "hit": false,
      "t": 342749.99999999907,
      "d": 250,
      "v": 127
    },
    {
      "midi": 65,
      "hit": false,
      "t": 342999.99999999907,
      "d": 250,
      "v": 127
    },
    {
      "midi": 65,
      "hit": false,
      "t": 343249.99999999907,
      "d": 250,
      "v": 127
    },
    {
      "midi": 68,
      "hit": false,
      "t": 343249.99999999907,
      "d": 250,
      "v": 127
    },
    {
      "midi": 63,
      "hit": false,
      "t": 343499.99999999907,
      "d": 250,
      "v": 127
    },
    {
      "midi": 67,
      "hit": false,
      "t": 343499.99999999907,
      "d": 250,
      "v": 127
    },
    {
      "midi": 62,
      "hit": false,
      "t": 343749.99999999907,
      "d": 250,
      "v": 127
    },
    {
      "midi": 65,
      "hit": false,
      "t": 343749.99999999907,
      "d": 250,
      "v": 127
    },
    {
      "midi": 67,
      "hit": false,
      "t": 343999.99999999907,
      "d": 250,
      "v": 127
    },
    {
      "midi": 39,
      "hit": false,
      "t": 343999.9999999998,
      "d": 2000,
      "v": 127
    },
    {
      "midi": 51,
      "hit": false,
      "t": 343999.9999999998,
      "d": 2000,
      "v": 127
    },
    {
      "midi": 70,
      "hit": false,
      "t": 344249.99999999907,
      "d": 250,
      "v": 127
    },
    {
      "midi": 63,
      "hit": false,
      "t": 344499.99999999907,
      "d": 250,
      "v": 127
    },
    {
      "midi": 67,
      "hit": false,
      "t": 344749.99999999907,
      "d": 250,
      "v": 127
    },
    {
      "midi": 58,
      "hit": false,
      "t": 344999.99999999907,
      "d": 250,
      "v": 127
    },
    {
      "midi": 63,
      "hit": false,
      "t": 345249.99999999907,
      "d": 250,
      "v": 127
    },
    {
      "midi": 67,
      "hit": false,
      "t": 345499.99999999907,
      "d": 250,
      "v": 127
    },
    {
      "midi": 63,
      "hit": false,
      "t": 345749.99999999907,
      "d": 250,
      "v": 127
    },
    {
      "midi": 58,
      "hit": false,
      "t": 345999.99999999907,
      "d": 250,
      "v": 127
    },
    {
      "midi": 41,
      "hit": false,
      "t": 345999.9999999998,
      "d": 500,
      "v": 127
    },
    {
      "midi": 53,
      "hit": false,
      "t": 345999.9999999998,
      "d": 500,
      "v": 127
    },
    {
      "midi": 62,
      "hit": false,
      "t": 346249.99999999907,
      "d": 250,
      "v": 127
    },
    {
      "midi": 68,
      "hit": false,
      "t": 346499.99999999907,
      "d": 250,
      "v": 127
    },
    {
      "midi": 38,
      "hit": false,
      "t": 346499.9999999998,
      "d": 500,
      "v": 127
    },
    {
      "midi": 50,
      "hit": false,
      "t": 346499.9999999998,
      "d": 500,
      "v": 127
    },
    {
      "midi": 62,
      "hit": false,
      "t": 346749.99999999907,
      "d": 250,
      "v": 127
    },
    {
      "midi": 65,
      "hit": false,
      "t": 346999.99999999907,
      "d": 250,
      "v": 127
    },
    {
      "midi": 34,
      "hit": false,
      "t": 346999.9999999998,
      "d": 500,
      "v": 127
    },
    {
      "midi": 46,
      "hit": false,
      "t": 346999.9999999998,
      "d": 500,
      "v": 127
    },
    {
      "midi": 68,
      "hit": false,
      "t": 347249.99999999907,
      "d": 250,
      "v": 127
    },
    {
      "midi": 62,
      "hit": false,
      "t": 347499.99999999907,
      "d": 250,
      "v": 127
    },
    {
      "midi": 32,
      "hit": false,
      "t": 347499.9999999998,
      "d": 500,
      "v": 127
    },
    {
      "midi": 44,
      "hit": false,
      "t": 347499.9999999998,
      "d": 500,
      "v": 127
    },
    {
      "midi": 65,
      "hit": false,
      "t": 347749.99999999907,
      "d": 250,
      "v": 127
    },
    {
      "midi": 58,
      "hit": false,
      "t": 347999.99999999907,
      "d": 250,
      "v": 127
    },
    {
      "midi": 31,
      "hit": false,
      "t": 347999.9999999998,
      "d": 500,
      "v": 127
    },
    {
      "midi": 43,
      "hit": false,
      "t": 347999.9999999998,
      "d": 500,
      "v": 127
    },
    {
      "midi": 63,
      "hit": false,
      "t": 348249.99999999907,
      "d": 250,
      "v": 127
    },
    {
      "midi": 67,
      "hit": false,
      "t": 348499.99999999907,
      "d": 250,
      "v": 127
    },
    {
      "midi": 70,
      "hit": false,
      "t": 348749.99999999907,
      "d": 250,
      "v": 127
    },
    {
      "midi": 70,
      "hit": false,
      "t": 348999.99999999907,
      "d": 500,
      "v": 127
    },
    {
      "midi": 75,
      "hit": false,
      "t": 348999.99999999907,
      "d": 500,
      "v": 127
    },
    {
      "midi": 46,
      "hit": false,
      "t": 348999.9999999998,
      "d": 500,
      "v": 127
    },
    {
      "midi": 68,
      "hit": false,
      "t": 349499.99999999907,
      "d": 500,
      "v": 127
    },
    {
      "midi": 74,
      "hit": false,
      "t": 349499.99999999907,
      "d": 500,
      "v": 127
    },
    {
      "midi": 46,
      "hit": false,
      "t": 349499.9999999998,
      "d": 500,
      "v": 127
    },
    {
      "midi": 68,
      "hit": false,
      "t": 349999.99999999907,
      "d": 1000,
      "v": 127
    },
    {
      "midi": 74,
      "hit": false,
      "t": 349999.99999999907,
      "d": 1000,
      "v": 127
    },
    {
      "midi": 51,
      "hit": false,
      "t": 349999.9999999998,
      "d": 500,
      "v": 127
    },
    {
      "midi": 46,
      "hit": false,
      "t": 350499.9999999998,
      "d": 500,
      "v": 127
    },
    {
      "midi": 67,
      "hit": false,
      "t": 350999.99999999907,
      "d": 125,
      "v": 127
    },
    {
      "midi": 75,
      "hit": false,
      "t": 350999.99999999907,
      "d": 125,
      "v": 127
    },
    {
      "midi": 39,
      "hit": false,
      "t": 350999.9999999998,
      "d": 500,
      "v": 127
    },
    {
      "midi": 75,
      "hit": false,
      "t": 351124.99999999907,
      "d": 125,
      "v": 127
    },
    {
      "midi": 74,
      "hit": false,
      "t": 351249.99999999907,
      "d": 125,
      "v": 127
    },
    {
      "midi": 75,
      "hit": false,
      "t": 351374.99999999907,
      "d": 125,
      "v": 127
    },
    {
      "midi": 77,
      "hit": false,
      "t": 351499.99999999907,
      "d": 125,
      "v": 127
    },
    {
      "midi": 75,
      "hit": false,
      "t": 351624.99999999907,
      "d": 125,
      "v": 127
    },
    {
      "midi": 74,
      "hit": false,
      "t": 351749.99999999907,
      "d": 125,
      "v": 127
    },
    {
      "midi": 75,
      "hit": false,
      "t": 351874.99999999907,
      "d": 125,
      "v": 127
    },
    {
      "midi": 68,
      "hit": false,
      "t": 351999.99999999907,
      "d": 125,
      "v": 127
    },
    {
      "midi": 48,
      "hit": false,
      "t": 351999.9999999998,
      "d": 500,
      "v": 127
    },
    {
      "midi": 60,
      "hit": false,
      "t": 351999.9999999998,
      "d": 500,
      "v": 127
    },
    {
      "midi": 75,
      "hit": false,
      "t": 352124.99999999907,
      "d": 125,
      "v": 127
    },
    {
      "midi": 80,
      "hit": false,
      "t": 352249.99999999907,
      "d": 125,
      "v": 127
    },
    {
      "midi": 75,
      "hit": false,
      "t": 352374.99999999907,
      "d": 125,
      "v": 127
    },
    {
      "midi": 70,
      "hit": false,
      "t": 352499.99999999907,
      "d": 125,
      "v": 127
    },
    {
      "midi": 46,
      "hit": false,
      "t": 352499.9999999998,
      "d": 500,
      "v": 127
    },
    {
      "midi": 58,
      "hit": false,
      "t": 352499.9999999998,
      "d": 500,
      "v": 127
    },
    {
      "midi": 75,
      "hit": false,
      "t": 352624.99999999907,
      "d": 125,
      "v": 127
    },
    {
      "midi": 79,
      "hit": false,
      "t": 352749.99999999907,
      "d": 125,
      "v": 127
    },
    {
      "midi": 75,
      "hit": false,
      "t": 352874.99999999907,
      "d": 125,
      "v": 127
    },
    {
      "midi": 70,
      "hit": false,
      "t": 352999.99999999907,
      "d": 125,
      "v": 127
    },
    {
      "midi": 44,
      "hit": false,
      "t": 352999.9999999998,
      "d": 500,
      "v": 127
    },
    {
      "midi": 56,
      "hit": false,
      "t": 352999.9999999998,
      "d": 500,
      "v": 127
    },
    {
      "midi": 74,
      "hit": false,
      "t": 353124.99999999907,
      "d": 125,
      "v": 127
    },
    {
      "midi": 77,
      "hit": false,
      "t": 353249.99999999907,
      "d": 125,
      "v": 127
    },
    {
      "midi": 74,
      "hit": false,
      "t": 353374.99999999907,
      "d": 125,
      "v": 127
    },
    {
      "midi": 70,
      "hit": false,
      "t": 353499.99999999907,
      "d": 125,
      "v": 127
    },
    {
      "midi": 43,
      "hit": false,
      "t": 353499.9999999998,
      "d": 500,
      "v": 127
    },
    {
      "midi": 55,
      "hit": false,
      "t": 353499.9999999998,
      "d": 500,
      "v": 127
    },
    {
      "midi": 75,
      "hit": false,
      "t": 353624.99999999907,
      "d": 125,
      "v": 127
    },
    {
      "midi": 82,
      "hit": false,
      "t": 353749.99999999907,
      "d": 125,
      "v": 127
    },
    {
      "midi": 75,
      "hit": false,
      "t": 353874.99999999907,
      "d": 125,
      "v": 127
    },
    {
      "midi": 68,
      "hit": false,
      "t": 353999.99999999907,
      "d": 125,
      "v": 127
    },
    {
      "midi": 48,
      "hit": false,
      "t": 353999.9999999998,
      "d": 500,
      "v": 127
    },
    {
      "midi": 60,
      "hit": false,
      "t": 353999.9999999998,
      "d": 500,
      "v": 127
    },
    {
      "midi": 75,
      "hit": false,
      "t": 354124.99999999907,
      "d": 125,
      "v": 127
    },
    {
      "midi": 80,
      "hit": false,
      "t": 354249.99999999907,
      "d": 125,
      "v": 127
    },
    {
      "midi": 75,
      "hit": false,
      "t": 354374.99999999907,
      "d": 125,
      "v": 127
    },
    {
      "midi": 70,
      "hit": false,
      "t": 354499.99999999907,
      "d": 125,
      "v": 127
    },
    {
      "midi": 46,
      "hit": false,
      "t": 354499.9999999998,
      "d": 500,
      "v": 127
    },
    {
      "midi": 58,
      "hit": false,
      "t": 354499.9999999998,
      "d": 500,
      "v": 127
    },
    {
      "midi": 75,
      "hit": false,
      "t": 354624.99999999907,
      "d": 125,
      "v": 127
    },
    {
      "midi": 79,
      "hit": false,
      "t": 354749.99999999907,
      "d": 125,
      "v": 127
    },
    {
      "midi": 75,
      "hit": false,
      "t": 354874.99999999907,
      "d": 125,
      "v": 127
    },
    {
      "midi": 70,
      "hit": false,
      "t": 354999.99999999907,
      "d": 125,
      "v": 127
    },
    {
      "midi": 44,
      "hit": false,
      "t": 354999.9999999998,
      "d": 500,
      "v": 127
    },
    {
      "midi": 56,
      "hit": false,
      "t": 354999.9999999998,
      "d": 500,
      "v": 127
    },
    {
      "midi": 74,
      "hit": false,
      "t": 355124.99999999907,
      "d": 125,
      "v": 127
    },
    {
      "midi": 77,
      "hit": false,
      "t": 355249.99999999907,
      "d": 125,
      "v": 127
    },
    {
      "midi": 74,
      "hit": false,
      "t": 355374.99999999907,
      "d": 125,
      "v": 127
    },
    {
      "midi": 70,
      "hit": false,
      "t": 355499.99999999907,
      "d": 125,
      "v": 127
    },
    {
      "midi": 43,
      "hit": false,
      "t": 355499.9999999998,
      "d": 500,
      "v": 127
    },
    {
      "midi": 55,
      "hit": false,
      "t": 355499.9999999998,
      "d": 500,
      "v": 127
    },
    {
      "midi": 75,
      "hit": false,
      "t": 355624.99999999907,
      "d": 125,
      "v": 127
    },
    {
      "midi": 82,
      "hit": false,
      "t": 355749.99999999907,
      "d": 125,
      "v": 127
    },
    {
      "midi": 75,
      "hit": false,
      "t": 355874.99999999907,
      "d": 125,
      "v": 127
    },
    {
      "midi": 68,
      "hit": false,
      "t": 355999.99999999907,
      "d": 125,
      "v": 127
    },
    {
      "midi": 48,
      "hit": false,
      "t": 355999.9999999998,
      "d": 500,
      "v": 127
    },
    {
      "midi": 60,
      "hit": false,
      "t": 355999.9999999998,
      "d": 500,
      "v": 127
    },
    {
      "midi": 75,
      "hit": false,
      "t": 356124.99999999907,
      "d": 125,
      "v": 127
    },
    {
      "midi": 80,
      "hit": false,
      "t": 356249.99999999907,
      "d": 125,
      "v": 127
    },
    {
      "midi": 75,
      "hit": false,
      "t": 356374.99999999907,
      "d": 125,
      "v": 127
    },
    {
      "midi": 70,
      "hit": false,
      "t": 356499.99999999907,
      "d": 125,
      "v": 127
    },
    {
      "midi": 46,
      "hit": false,
      "t": 356499.9999999998,
      "d": 500,
      "v": 127
    },
    {
      "midi": 58,
      "hit": false,
      "t": 356499.9999999998,
      "d": 500,
      "v": 127
    },
    {
      "midi": 74,
      "hit": false,
      "t": 356624.99999999907,
      "d": 125,
      "v": 127
    },
    {
      "midi": 79,
      "hit": false,
      "t": 356749.99999999907,
      "d": 125,
      "v": 127
    },
    {
      "midi": 74,
      "hit": false,
      "t": 356874.99999999907,
      "d": 125,
      "v": 127
    },
    {
      "midi": 65,
      "hit": false,
      "t": 356999.99999999907,
      "d": 125,
      "v": 127
    },
    {
      "midi": 44,
      "hit": false,
      "t": 356999.9999999998,
      "d": 500,
      "v": 127
    },
    {
      "midi": 56,
      "hit": false,
      "t": 356999.9999999998,
      "d": 500,
      "v": 127
    },
    {
      "midi": 72,
      "hit": false,
      "t": 357124.99999999907,
      "d": 125,
      "v": 127
    },
    {
      "midi": 77,
      "hit": false,
      "t": 357249.99999999907,
      "d": 125,
      "v": 127
    },
    {
      "midi": 72,
      "hit": false,
      "t": 357374.99999999907,
      "d": 125,
      "v": 127
    },
    {
      "midi": 67,
      "hit": false,
      "t": 357499.99999999907,
      "d": 125,
      "v": 127
    },
    {
      "midi": 43,
      "hit": false,
      "t": 357499.9999999998,
      "d": 500,
      "v": 127
    },
    {
      "midi": 55,
      "hit": false,
      "t": 357499.9999999998,
      "d": 500,
      "v": 127
    },
    {
      "midi": 70,
      "hit": false,
      "t": 357624.99999999907,
      "d": 125,
      "v": 127
    },
    {
      "midi": 75,
      "hit": false,
      "t": 357749.99999999907,
      "d": 125,
      "v": 127
    },
    {
      "midi": 70,
      "hit": false,
      "t": 357874.99999999907,
      "d": 125,
      "v": 127
    },
    {
      "midi": 62,
      "hit": false,
      "t": 357999.99999999907,
      "d": 125,
      "v": 127
    },
    {
      "midi": 41,
      "hit": false,
      "t": 357999.9999999998,
      "d": 500,
      "v": 127
    },
    {
      "midi": 53,
      "hit": false,
      "t": 357999.9999999998,
      "d": 500,
      "v": 127
    },
    {
      "midi": 68,
      "hit": false,
      "t": 358124.99999999907,
      "d": 125,
      "v": 127
    },
    {
      "midi": 74,
      "hit": false,
      "t": 358249.99999999907,
      "d": 125,
      "v": 127
    },
    {
      "midi": 68,
      "hit": false,
      "t": 358374.99999999907,
      "d": 125,
      "v": 127
    },
    {
      "midi": 63,
      "hit": false,
      "t": 358499.99999999907,
      "d": 125,
      "v": 127
    },
    {
      "midi": 39,
      "hit": false,
      "t": 358499.9999999998,
      "d": 500,
      "v": 127
    },
    {
      "midi": 51,
      "hit": false,
      "t": 358499.9999999998,
      "d": 500,
      "v": 127
    },
    {
      "midi": 67,
      "hit": false,
      "t": 358624.99999999907,
      "d": 125,
      "v": 127
    },
    {
      "midi": 72,
      "hit": false,
      "t": 358749.99999999907,
      "d": 125,
      "v": 127
    },
    {
      "midi": 67,
      "hit": false,
      "t": 358874.99999999907,
      "d": 125,
      "v": 127
    },
    {
      "midi": 58,
      "hit": false,
      "t": 358999.99999999907,
      "d": 125,
      "v": 127
    },
    {
      "midi": 38,
      "hit": false,
      "t": 358999.9999999998,
      "d": 500,
      "v": 127
    },
    {
      "midi": 50,
      "hit": false,
      "t": 358999.9999999998,
      "d": 500,
      "v": 127
    },
    {
      "midi": 65,
      "hit": false,
      "t": 359124.99999999907,
      "d": 125,
      "v": 127
    },
    {
      "midi": 70,
      "hit": false,
      "t": 359249.99999999907,
      "d": 125,
      "v": 127
    },
    {
      "midi": 65,
      "hit": false,
      "t": 359374.99999999907,
      "d": 125,
      "v": 127
    },
    {
      "midi": 60,
      "hit": false,
      "t": 359499.99999999907,
      "d": 125,
      "v": 127
    },
    {
      "midi": 36,
      "hit": false,
      "t": 359499.9999999998,
      "d": 500,
      "v": 127
    },
    {
      "midi": 48,
      "hit": false,
      "t": 359499.9999999998,
      "d": 500,
      "v": 127
    },
    {
      "midi": 63,
      "hit": false,
      "t": 359624.99999999907,
      "d": 125,
      "v": 127
    },
    {
      "midi": 69,
      "hit": false,
      "t": 359749.99999999907,
      "d": 125,
      "v": 127
    },
    {
      "midi": 63,
      "hit": false,
      "t": 359874.99999999907,
      "d": 125,
      "v": 127
    },
    {
      "midi": 70,
      "hit": false,
      "t": 359999.99999999907,
      "d": 125,
      "v": 127
    },
    {
      "midi": 34,
      "hit": false,
      "t": 359999.9999999998,
      "d": 2000,
      "v": 127
    },
    {
      "midi": 46,
      "hit": false,
      "t": 359999.9999999998,
      "d": 2000,
      "v": 127
    },
    {
      "midi": 62,
      "hit": false,
      "t": 360124.99999999907,
      "d": 125,
      "v": 127
    },
    {
      "midi": 65,
      "hit": false,
      "t": 360249.99999999907,
      "d": 125,
      "v": 127
    },
    {
      "midi": 70,
      "hit": false,
      "t": 360374.99999999907,
      "d": 125,
      "v": 127
    },
    {
      "midi": 74,
      "hit": false,
      "t": 360499.99999999907,
      "d": 125,
      "v": 127
    },
    {
      "midi": 70,
      "hit": false,
      "t": 360624.99999999907,
      "d": 125,
      "v": 127
    },
    {
      "midi": 75,
      "hit": false,
      "t": 360749.99999999907,
      "d": 125,
      "v": 127
    },
    {
      "midi": 72,
      "hit": false,
      "t": 360874.99999999907,
      "d": 125,
      "v": 127
    },
    {
      "midi": 77,
      "hit": false,
      "t": 360999.99999999907,
      "d": 125,
      "v": 127
    },
    {
      "midi": 75,
      "hit": false,
      "t": 361124.99999999907,
      "d": 125,
      "v": 127
    },
    {
      "midi": 74,
      "hit": false,
      "t": 361249.99999999907,
      "d": 125,
      "v": 127
    },
    {
      "midi": 72,
      "hit": false,
      "t": 361374.99999999907,
      "d": 125,
      "v": 127
    },
    {
      "midi": 70,
      "hit": false,
      "t": 361499.99999999907,
      "d": 125,
      "v": 127
    },
    {
      "midi": 72,
      "hit": false,
      "t": 361624.99999999907,
      "d": 125,
      "v": 127
    },
    {
      "midi": 74,
      "hit": false,
      "t": 361749.99999999907,
      "d": 125,
      "v": 127
    },
    {
      "midi": 70,
      "hit": false,
      "t": 361874.99999999907,
      "d": 125,
      "v": 127
    },
    {
      "midi": 75,
      "hit": false,
      "t": 361999.99999999907,
      "d": 125,
      "v": 127
    },
    {
      "midi": 34,
      "hit": false,
      "t": 361999.9999999998,
      "d": 2000,
      "v": 127
    },
    {
      "midi": 46,
      "hit": false,
      "t": 361999.9999999998,
      "d": 2000,
      "v": 127
    },
    {
      "midi": 65,
      "hit": false,
      "t": 362124.99999999907,
      "d": 125,
      "v": 127
    },
    {
      "midi": 69,
      "hit": false,
      "t": 362249.99999999907,
      "d": 125,
      "v": 127
    },
    {
      "midi": 72,
      "hit": false,
      "t": 362374.99999999907,
      "d": 125,
      "v": 127
    },
    {
      "midi": 75,
      "hit": false,
      "t": 362499.99999999907,
      "d": 125,
      "v": 127
    },
    {
      "midi": 72,
      "hit": false,
      "t": 362624.99999999907,
      "d": 125,
      "v": 127
    },
    {
      "midi": 77,
      "hit": false,
      "t": 362749.99999999907,
      "d": 125,
      "v": 127
    },
    {
      "midi": 74,
      "hit": false,
      "t": 362874.99999999907,
      "d": 125,
      "v": 127
    },
    {
      "midi": 79,
      "hit": false,
      "t": 362999.99999999907,
      "d": 125,
      "v": 127
    },
    {
      "midi": 77,
      "hit": false,
      "t": 363124.99999999907,
      "d": 125,
      "v": 127
    },
    {
      "midi": 75,
      "hit": false,
      "t": 363249.99999999907,
      "d": 125,
      "v": 127
    },
    {
      "midi": 74,
      "hit": false,
      "t": 363374.99999999907,
      "d": 125,
      "v": 127
    },
    {
      "midi": 72,
      "hit": false,
      "t": 363499.99999999907,
      "d": 125,
      "v": 127
    },
    {
      "midi": 74,
      "hit": false,
      "t": 363624.99999999907,
      "d": 125,
      "v": 127
    },
    {
      "midi": 75,
      "hit": false,
      "t": 363749.99999999907,
      "d": 125,
      "v": 127
    },
    {
      "midi": 72,
      "hit": false,
      "t": 363874.99999999907,
      "d": 125,
      "v": 127
    },
    {
      "midi": 80,
      "hit": false,
      "t": 363999.99999999907,
      "d": 125,
      "v": 127
    },
    {
      "midi": 34,
      "hit": false,
      "t": 363999.9999999998,
      "d": 1000,
      "v": 127
    },
    {
      "midi": 46,
      "hit": false,
      "t": 363999.9999999998,
      "d": 1000,
      "v": 127
    },
    {
      "midi": 79,
      "hit": false,
      "t": 364124.99999999907,
      "d": 125,
      "v": 127
    },
    {
      "midi": 77,
      "hit": false,
      "t": 364249.99999999907,
      "d": 125,
      "v": 127
    },
    {
      "midi": 75,
      "hit": false,
      "t": 364374.99999999907,
      "d": 125,
      "v": 127
    },
    {
      "midi": 74,
      "hit": false,
      "t": 364499.99999999907,
      "d": 125,
      "v": 127
    },
    {
      "midi": 75,
      "hit": false,
      "t": 364624.99999999907,
      "d": 125,
      "v": 127
    },
    {
      "midi": 77,
      "hit": false,
      "t": 364749.99999999907,
      "d": 125,
      "v": 127
    },
    {
      "midi": 74,
      "hit": false,
      "t": 364874.99999999907,
      "d": 125,
      "v": 127
    },
    {
      "midi": 82,
      "hit": false,
      "t": 364999.99999999907,
      "d": 125,
      "v": 127
    },
    {
      "midi": 34,
      "hit": false,
      "t": 364999.9999999998,
      "d": 1000,
      "v": 127
    },
    {
      "midi": 46,
      "hit": false,
      "t": 364999.9999999998,
      "d": 1000,
      "v": 127
    },
    {
      "midi": 80,
      "hit": false,
      "t": 365124.99999999907,
      "d": 125,
      "v": 127
    },
    {
      "midi": 79,
      "hit": false,
      "t": 365249.99999999907,
      "d": 125,
      "v": 127
    },
    {
      "midi": 77,
      "hit": false,
      "t": 365374.99999999907,
      "d": 125,
      "v": 127
    },
    {
      "midi": 75,
      "hit": false,
      "t": 365499.99999999907,
      "d": 125,
      "v": 127
    },
    {
      "midi": 77,
      "hit": false,
      "t": 365624.99999999907,
      "d": 125,
      "v": 127
    },
    {
      "midi": 79,
      "hit": false,
      "t": 365749.99999999907,
      "d": 125,
      "v": 127
    },
    {
      "midi": 75,
      "hit": false,
      "t": 365874.99999999907,
      "d": 125,
      "v": 127
    },
    {
      "midi": 80,
      "hit": false,
      "t": 365999.99999999907,
      "d": 125,
      "v": 127
    },
    {
      "midi": 34,
      "hit": false,
      "t": 365999.9999999998,
      "d": 2000,
      "v": 127
    },
    {
      "midi": 46,
      "hit": false,
      "t": 365999.9999999998,
      "d": 2000,
      "v": 127
    },
    {
      "midi": 89,
      "hit": false,
      "t": 366124.99999999907,
      "d": 125,
      "v": 127
    },
    {
      "midi": 77,
      "hit": false,
      "t": 366249.99999999907,
      "d": 125,
      "v": 127
    },
    {
      "midi": 80,
      "hit": false,
      "t": 366374.99999999907,
      "d": 125,
      "v": 127
    },
    {
      "midi": 79,
      "hit": false,
      "t": 366499.99999999907,
      "d": 125,
      "v": 127
    },
    {
      "midi": 87,
      "hit": false,
      "t": 366624.99999999907,
      "d": 125,
      "v": 127
    },
    {
      "midi": 75,
      "hit": false,
      "t": 366749.99999999907,
      "d": 125,
      "v": 127
    },
    {
      "midi": 79,
      "hit": false,
      "t": 366874.99999999907,
      "d": 125,
      "v": 127
    },
    {
      "midi": 77,
      "hit": false,
      "t": 366999.99999999907,
      "d": 125,
      "v": 127
    },
    {
      "midi": 86,
      "hit": false,
      "t": 367124.99999999907,
      "d": 125,
      "v": 127
    },
    {
      "midi": 74,
      "hit": false,
      "t": 367249.99999999907,
      "d": 125,
      "v": 127
    },
    {
      "midi": 77,
      "hit": false,
      "t": 367374.99999999907,
      "d": 125,
      "v": 127
    },
    {
      "midi": 75,
      "hit": false,
      "t": 367499.99999999907,
      "d": 125,
      "v": 127
    },
    {
      "midi": 84,
      "hit": false,
      "t": 367624.99999999907,
      "d": 125,
      "v": 127
    },
    {
      "midi": 72,
      "hit": false,
      "t": 367749.99999999907,
      "d": 125,
      "v": 127
    },
    {
      "midi": 75,
      "hit": false,
      "t": 367874.99999999907,
      "d": 125,
      "v": 127
    },
    {
      "midi": 74,
      "hit": false,
      "t": 367999.99999999907,
      "d": 125,
      "v": 127
    },
    {
      "midi": 82,
      "hit": false,
      "t": 368124.99999999907,
      "d": 125,
      "v": 127
    },
    {
      "midi": 70,
      "hit": false,
      "t": 368249.99999999907,
      "d": 125,
      "v": 127
    },
    {
      "midi": 74,
      "hit": false,
      "t": 368374.99999999907,
      "d": 125,
      "v": 127
    },
    {
      "midi": 72,
      "hit": false,
      "t": 368499.99999999907,
      "d": 125,
      "v": 127
    },
    {
      "midi": 80,
      "hit": false,
      "t": 368624.99999999907,
      "d": 125,
      "v": 127
    },
    {
      "midi": 68,
      "hit": false,
      "t": 368749.99999999907,
      "d": 125,
      "v": 127
    },
    {
      "midi": 72,
      "hit": false,
      "t": 368874.99999999907,
      "d": 125,
      "v": 127
    },
    {
      "midi": 70,
      "hit": false,
      "t": 368999.99999999907,
      "d": 125,
      "v": 127
    },
    {
      "midi": 79,
      "hit": false,
      "t": 369124.99999999907,
      "d": 125,
      "v": 127
    },
    {
      "midi": 67,
      "hit": false,
      "t": 369249.99999999907,
      "d": 125,
      "v": 127
    },
    {
      "midi": 70,
      "hit": false,
      "t": 369374.99999999907,
      "d": 125,
      "v": 127
    },
    {
      "midi": 68,
      "hit": false,
      "t": 369499.99999999907,
      "d": 125,
      "v": 127
    },
    {
      "midi": 77,
      "hit": false,
      "t": 369624.99999999907,
      "d": 125,
      "v": 127
    },
    {
      "midi": 65,
      "hit": false,
      "t": 369749.99999999907,
      "d": 125,
      "v": 127
    },
    {
      "midi": 68,
      "hit": false,
      "t": 369874.99999999907,
      "d": 125,
      "v": 127
    },
    {
      "midi": 67,
      "hit": false,
      "t": 369999.99999999907,
      "d": 1000,
      "v": 127
    },
    {
      "midi": 70,
      "hit": false,
      "t": 369999.99999999907,
      "d": 1000,
      "v": 127
    },
    {
      "midi": 51,
      "hit": false,
      "t": 369999.9999999998,
      "d": 250,
      "v": 127
    },
    {
      "midi": 58,
      "hit": false,
      "t": 370249.9999999998,
      "d": 250,
      "v": 127
    },
    {
      "midi": 55,
      "hit": false,
      "t": 370499.9999999998,
      "d": 250,
      "v": 127
    },
    {
      "midi": 58,
      "hit": false,
      "t": 370749.9999999998,
      "d": 250,
      "v": 127
    },
    {
      "midi": 51,
      "hit": false,
      "t": 370999.9999999998,
      "d": 250,
      "v": 127
    },
    {
      "midi": 74,
      "hit": false,
      "t": 371249.99999999907,
      "d": 125,
      "v": 127
    },
    {
      "midi": 58,
      "hit": false,
      "t": 371249.9999999998,
      "d": 250,
      "v": 127
    },
    {
      "midi": 72,
      "hit": false,
      "t": 371374.99999999907,
      "d": 125,
      "v": 127
    },
    {
      "midi": 75,
      "hit": false,
      "t": 371499.99999999907,
      "d": 125,
      "v": 127
    },
    {
      "midi": 55,
      "hit": false,
      "t": 371499.9999999998,
      "d": 250,
      "v": 127
    },
    {
      "midi": 74,
      "hit": false,
      "t": 371624.99999999907,
      "d": 125,
      "v": 127
    },
    {
      "midi": 77,
      "hit": false,
      "t": 371749.99999999907,
      "d": 125,
      "v": 127
    },
    {
      "midi": 58,
      "hit": false,
      "t": 371749.9999999998,
      "d": 250,
      "v": 127
    },
    {
      "midi": 75,
      "hit": false,
      "t": 371874.99999999907,
      "d": 125,
      "v": 127
    },
    {
      "midi": 75,
      "hit": false,
      "t": 371999.99999999907,
      "d": 250,
      "v": 127
    },
    {
      "midi": 53,
      "hit": false,
      "t": 371999.9999999998,
      "d": 250,
      "v": 127
    },
    {
      "midi": 74,
      "hit": false,
      "t": 372249.99999999907,
      "d": 250,
      "v": 127
    },
    {
      "midi": 58,
      "hit": false,
      "t": 372249.9999999998,
      "d": 250,
      "v": 127
    },
    {
      "midi": 72,
      "hit": false,
      "t": 372499.99999999907,
      "d": 250,
      "v": 127
    },
    {
      "midi": 56,
      "hit": false,
      "t": 372499.9999999998,
      "d": 250,
      "v": 127
    },
    {
      "midi": 70,
      "hit": false,
      "t": 372749.99999999907,
      "d": 250,
      "v": 127
    },
    {
      "midi": 58,
      "hit": false,
      "t": 372749.9999999998,
      "d": 250,
      "v": 127
    },
    {
      "midi": 70,
      "hit": false,
      "t": 372999.99999999907,
      "d": 500,
      "v": 127
    },
    {
      "midi": 50,
      "hit": false,
      "t": 372999.9999999998,
      "d": 250,
      "v": 127
    },
    {
      "midi": 56,
      "hit": false,
      "t": 373249.9999999998,
      "d": 250,
      "v": 127
    },
    {
      "midi": 70,
      "hit": false,
      "t": 373499.99999999907,
      "d": 500,
      "v": 127
    },
    {
      "midi": 51,
      "hit": false,
      "t": 373499.9999999998,
      "d": 250,
      "v": 127
    },
    {
      "midi": 55,
      "hit": false,
      "t": 373749.9999999998,
      "d": 250,
      "v": 127
    },
    {
      "midi": 72,
      "hit": false,
      "t": 373999.99999999907,
      "d": 750,
      "v": 127
    },
    {
      "midi": 56,
      "hit": false,
      "t": 373999.9999999998,
      "d": 250,
      "v": 127
    },
    {
      "midi": 63,
      "hit": false,
      "t": 374249.9999999998,
      "d": 250,
      "v": 127
    },
    {
      "midi": 60,
      "hit": false,
      "t": 374499.9999999998,
      "d": 250,
      "v": 127
    },
    {
      "midi": 74,
      "hit": false,
      "t": 374749.99999999907,
      "d": 250,
      "v": 127
    },
    {
      "midi": 63,
      "hit": false,
      "t": 374749.9999999998,
      "d": 250,
      "v": 127
    },
    {
      "midi": 75,
      "hit": false,
      "t": 374999.99999999907,
      "d": 250,
      "v": 127
    },
    {
      "midi": 56,
      "hit": false,
      "t": 374999.9999999998,
      "d": 250,
      "v": 127
    },
    {
      "midi": 76,
      "hit": false,
      "t": 375249.99999999907,
      "d": 250,
      "v": 127
    },
    {
      "midi": 60,
      "hit": false,
      "t": 375249.9999999998,
      "d": 250,
      "v": 127
    },
    {
      "midi": 79,
      "hit": false,
      "t": 375499.99999999907,
      "d": 250,
      "v": 127
    },
    {
      "midi": 57,
      "hit": false,
      "t": 375499.9999999998,
      "d": 250,
      "v": 127
    },
    {
      "midi": 77,
      "hit": false,
      "t": 375749.99999999907,
      "d": 250,
      "v": 127
    },
    {
      "midi": 60,
      "hit": false,
      "t": 375749.9999999998,
      "d": 250,
      "v": 127
    },
    {
      "midi": 75,
      "hit": false,
      "t": 375999.99999999907,
      "d": 750,
      "v": 127
    },
    {
      "midi": 58,
      "hit": false,
      "t": 375999.9999999998,
      "d": 250,
      "v": 127
    },
    {
      "midi": 67,
      "hit": false,
      "t": 376249.9999999998,
      "d": 250,
      "v": 127
    },
    {
      "midi": 63,
      "hit": false,
      "t": 376499.9999999998,
      "d": 250,
      "v": 127
    },
    {
      "midi": 77,
      "hit": false,
      "t": 376749.99999999907,
      "d": 125,
      "v": 127
    },
    {
      "midi": 67,
      "hit": false,
      "t": 376749.9999999998,
      "d": 250,
      "v": 127
    },
    {
      "midi": 75,
      "hit": false,
      "t": 376874.99999999907,
      "d": 125,
      "v": 127
    },
    {
      "midi": 74,
      "hit": false,
      "t": 376999.99999999907,
      "d": 500,
      "v": 127
    },
    {
      "midi": 65,
      "hit": false,
      "t": 376999.9999999998,
      "d": 250,
      "v": 127
    },
    {
      "midi": 65,
      "hit": false,
      "t": 377249.9999999998,
      "d": 250,
      "v": 127
    },
    {
      "midi": 68,
      "hit": false,
      "t": 377249.9999999998,
      "d": 250,
      "v": 127
    },
    {
      "midi": 63,
      "hit": false,
      "t": 377499.9999999998,
      "d": 250,
      "v": 127
    },
    {
      "midi": 67,
      "hit": false,
      "t": 377499.9999999998,
      "d": 250,
      "v": 127
    },
    {
      "midi": 62,
      "hit": false,
      "t": 377749.9999999998,
      "d": 250,
      "v": 127
    },
    {
      "midi": 65,
      "hit": false,
      "t": 377749.9999999998,
      "d": 250,
      "v": 127
    },
    {
      "midi": 63,
      "hit": false,
      "t": 377999.99999999907,
      "d": 250,
      "v": 127
    },
    {
      "midi": 51,
      "hit": false,
      "t": 377999.9999999998,
      "d": 250,
      "v": 127
    },
    {
      "midi": 65,
      "hit": false,
      "t": 378249.99999999907,
      "d": 125,
      "v": 127
    },
    {
      "midi": 58,
      "hit": false,
      "t": 378249.9999999998,
      "d": 250,
      "v": 127
    },
    {
      "midi": 67,
      "hit": false,
      "t": 378374.99999999907,
      "d": 125,
      "v": 127
    },
    {
      "midi": 68,
      "hit": false,
      "t": 378499.99999999907,
      "d": 125,
      "v": 127
    },
    {
      "midi": 55,
      "hit": false,
      "t": 378499.9999999998,
      "d": 250,
      "v": 127
    },
    {
      "midi": 70,
      "hit": false,
      "t": 378624.99999999907,
      "d": 125,
      "v": 127
    },
    {
      "midi": 72,
      "hit": false,
      "t": 378749.99999999907,
      "d": 125,
      "v": 127
    },
    {
      "midi": 58,
      "hit": false,
      "t": 378749.9999999998,
      "d": 250,
      "v": 127
    },
    {
      "midi": 74,
      "hit": false,
      "t": 378874.99999999907,
      "d": 125,
      "v": 127
    },
    {
      "midi": 75,
      "hit": false,
      "t": 378999.99999999907,
      "d": 125,
      "v": 127
    },
    {
      "midi": 51,
      "hit": false,
      "t": 378999.9999999998,
      "d": 250,
      "v": 127
    },
    {
      "midi": 77,
      "hit": false,
      "t": 379124.99999999907,
      "d": 125,
      "v": 127
    },
    {
      "midi": 79,
      "hit": false,
      "t": 379249.99999999907,
      "d": 125,
      "v": 127
    },
    {
      "midi": 58,
      "hit": false,
      "t": 379249.9999999998,
      "d": 250,
      "v": 127
    },
    {
      "midi": 80,
      "hit": false,
      "t": 379374.99999999907,
      "d": 125,
      "v": 127
    },
    {
      "midi": 82,
      "hit": false,
      "t": 379499.99999999907,
      "d": 125,
      "v": 127
    },
    {
      "midi": 55,
      "hit": false,
      "t": 379499.9999999998,
      "d": 250,
      "v": 127
    },
    {
      "midi": 84,
      "hit": false,
      "t": 379624.99999999907,
      "d": 125,
      "v": 127
    },
    {
      "midi": 86,
      "hit": false,
      "t": 379749.99999999907,
      "d": 125,
      "v": 127
    },
    {
      "midi": 58,
      "hit": false,
      "t": 379749.9999999998,
      "d": 250,
      "v": 127
    },
    {
      "midi": 87,
      "hit": false,
      "t": 379874.99999999907,
      "d": 125,
      "v": 127
    },
    {
      "midi": 87,
      "hit": false,
      "t": 379999.99999999907,
      "d": 250,
      "v": 127
    },
    {
      "midi": 53,
      "hit": false,
      "t": 379999.9999999998,
      "d": 250,
      "v": 127
    },
    {
      "midi": 86,
      "hit": false,
      "t": 380249.99999999907,
      "d": 250,
      "v": 127
    },
    {
      "midi": 58,
      "hit": false,
      "t": 380249.9999999998,
      "d": 250,
      "v": 127
    },
    {
      "midi": 84,
      "hit": false,
      "t": 380499.99999999907,
      "d": 250,
      "v": 127
    },
    {
      "midi": 56,
      "hit": false,
      "t": 380499.9999999998,
      "d": 250,
      "v": 127
    },
    {
      "midi": 82,
      "hit": false,
      "t": 380749.99999999907,
      "d": 250,
      "v": 127
    },
    {
      "midi": 58,
      "hit": false,
      "t": 380749.9999999998,
      "d": 250,
      "v": 127
    },
    {
      "midi": 81,
      "hit": false,
      "t": 380999.99999999907,
      "d": 750,
      "v": 127
    },
    {
      "midi": 82,
      "hit": false,
      "t": 380999.99999999907,
      "d": 750,
      "v": 127
    },
    {
      "midi": 83,
      "hit": false,
      "t": 380999.99999999907,
      "d": 750,
      "v": 127
    },
    {
      "midi": 84,
      "hit": false,
      "t": 380999.99999999907,
      "d": 750,
      "v": 127
    },
    {
      "midi": 50,
      "hit": false,
      "t": 380999.9999999998,
      "d": 250,
      "v": 127
    },
    {
      "midi": 58,
      "hit": false,
      "t": 381249.9999999998,
      "d": 250,
      "v": 127
    },
    {
      "midi": 58,
      "hit": false,
      "t": 381499.9999999998,
      "d": 250,
      "v": 127
    },
    {
      "midi": 80,
      "hit": false,
      "t": 381749.99999999907,
      "d": 125,
      "v": 127
    },
    {
      "midi": 62,
      "hit": false,
      "t": 381749.9999999998,
      "d": 250,
      "v": 127
    },
    {
      "midi": 77,
      "hit": false,
      "t": 381874.99999999907,
      "d": 125,
      "v": 127
    },
    {
      "midi": 75,
      "hit": false,
      "t": 381999.99999999907,
      "d": 500,
      "v": 127
    },
    {
      "midi": 55,
      "hit": false,
      "t": 381999.9999999998,
      "d": 500,
      "v": 127
    },
    {
      "midi": 58,
      "hit": false,
      "t": 381999.9999999998,
      "d": 500,
      "v": 127
    },
    {
      "midi": 63,
      "hit": false,
      "t": 381999.9999999998,
      "d": 500,
      "v": 127
    },
    {
      "midi": 75,
      "hit": false,
      "t": 382499.99999999907,
      "d": 500,
      "v": 127
    },
    {
      "midi": 79,
      "hit": false,
      "t": 382999.99999999907,
      "d": 375,
      "v": 127
    },
    {
      "midi": 58,
      "hit": false,
      "t": 382999.9999999998,
      "d": 500,
      "v": 127
    },
    {
      "midi": 80,
      "hit": false,
      "t": 383374.99999999907,
      "d": 125,
      "v": 127
    },
    {
      "midi": 77,
      "hit": false,
      "t": 383499.99999999907,
      "d": 375,
      "v": 127
    },
    {
      "midi": 46,
      "hit": false,
      "t": 383499.9999999998,
      "d": 500,
      "v": 127
    },
    {
      "midi": 79,
      "hit": false,
      "t": 383874.99999999907,
      "d": 125,
      "v": 127
    },
    {
      "midi": 75,
      "hit": false,
      "t": 383999.99999999907,
      "d": 500,
      "v": 127
    },
    {
      "midi": 39,
      "hit": false,
      "t": 383999.9999999998,
      "d": 250,
      "v": 127
    },
    {
      "midi": 51,
      "hit": false,
      "t": 384249.9999999998,
      "d": 250,
      "v": 127
    },
    {
      "midi": 51,
      "hit": false,
      "t": 384499.9999999998,
      "d": 250,
      "v": 127
    },
    {
      "midi": 51,
      "hit": false,
      "t": 384749.9999999998,
      "d": 250,
      "v": 127
    },
    {
      "midi": 51,
      "hit": false,
      "t": 384999.9999999998,
      "d": 250,
      "v": 127
    },
    {
      "midi": 51,
      "hit": false,
      "t": 385249.9999999998,
      "d": 250,
      "v": 127
    },
    {
      "midi": 51,
      "hit": false,
      "t": 385499.9999999998,
      "d": 250,
      "v": 127
    },
    {
      "midi": 51,
      "hit": false,
      "t": 385749.9999999998,
      "d": 250,
      "v": 127
    },
    {
      "midi": 51,
      "hit": false,
      "t": 385999.9999999998,
      "d": 250,
      "v": 127
    },
    {
      "midi": 51,
      "hit": false,
      "t": 386249.9999999998,
      "d": 250,
      "v": 127
    },
    {
      "midi": 51,
      "hit": false,
      "t": 386499.9999999998,
      "d": 250,
      "v": 127
    },
    {
      "midi": 51,
      "hit": false,
      "t": 386749.9999999998,
      "d": 250,
      "v": 127
    },
    {
      "midi": 51,
      "hit": false,
      "t": 386999.9999999998,
      "d": 250,
      "v": 127
    },
    {
      "midi": 63,
      "hit": false,
      "t": 387124.99999999907,
      "d": 125,
      "v": 127
    },
    {
      "midi": 65,
      "hit": false,
      "t": 387249.99999999907,
      "d": 125,
      "v": 127
    },
    {
      "midi": 51,
      "hit": false,
      "t": 387249.9999999998,
      "d": 250,
      "v": 127
    },
    {
      "midi": 67,
      "hit": false,
      "t": 387374.99999999907,
      "d": 125,
      "v": 127
    },
    {
      "midi": 68,
      "hit": false,
      "t": 387499.99999999907,
      "d": 125,
      "v": 127
    },
    {
      "midi": 51,
      "hit": false,
      "t": 387499.9999999998,
      "d": 250,
      "v": 127
    },
    {
      "midi": 70,
      "hit": false,
      "t": 387624.99999999907,
      "d": 125,
      "v": 127
    },
    {
      "midi": 72,
      "hit": false,
      "t": 387749.99999999907,
      "d": 125,
      "v": 127
    },
    {
      "midi": 51,
      "hit": false,
      "t": 387749.9999999998,
      "d": 250,
      "v": 127
    },
    {
      "midi": 74,
      "hit": false,
      "t": 387874.99999999907,
      "d": 125,
      "v": 127
    },
    {
      "midi": 75,
      "hit": false,
      "t": 387999.99999999907,
      "d": 125,
      "v": 127
    },
    {
      "midi": 39,
      "hit": false,
      "t": 387999.9999999998,
      "d": 250,
      "v": 127
    },
    {
      "midi": 77,
      "hit": false,
      "t": 388124.99999999907,
      "d": 125,
      "v": 127
    },
    {
      "midi": 79,
      "hit": false,
      "t": 388249.99999999907,
      "d": 125,
      "v": 127
    },
    {
      "midi": 51,
      "hit": false,
      "t": 388249.9999999998,
      "d": 250,
      "v": 127
    },
    {
      "midi": 80,
      "hit": false,
      "t": 388374.99999999907,
      "d": 125,
      "v": 127
    },
    {
      "midi": 82,
      "hit": false,
      "t": 388499.99999999907,
      "d": 125,
      "v": 127
    },
    {
      "midi": 51,
      "hit": false,
      "t": 388499.9999999998,
      "d": 250,
      "v": 127
    },
    {
      "midi": 79,
      "hit": false,
      "t": 388624.99999999907,
      "d": 125,
      "v": 127
    },
    {
      "midi": 80,
      "hit": false,
      "t": 388749.99999999907,
      "d": 125,
      "v": 127
    },
    {
      "midi": 51,
      "hit": false,
      "t": 388749.9999999998,
      "d": 250,
      "v": 127
    },
    {
      "midi": 77,
      "hit": false,
      "t": 388874.99999999907,
      "d": 125,
      "v": 127
    },
    {
      "midi": 75,
      "hit": false,
      "t": 388999.99999999907,
      "d": 500,
      "v": 127
    },
    {
      "midi": 51,
      "hit": false,
      "t": 388999.9999999998,
      "d": 250,
      "v": 127
    },
    {
      "midi": 51,
      "hit": false,
      "t": 389249.9999999998,
      "d": 250,
      "v": 127
    },
    {
      "midi": 51,
      "hit": false,
      "t": 389499.9999999998,
      "d": 250,
      "v": 127
    },
    {
      "midi": 51,
      "hit": false,
      "t": 389749.9999999998,
      "d": 250,
      "v": 127
    },
    {
      "midi": 51,
      "hit": false,
      "t": 389999.9999999998,
      "d": 250,
      "v": 127
    },
    {
      "midi": 51,
      "hit": false,
      "t": 390249.9999999998,
      "d": 250,
      "v": 127
    },
    {
      "midi": 51,
      "hit": false,
      "t": 390499.9999999998,
      "d": 250,
      "v": 127
    },
    {
      "midi": 51,
      "hit": false,
      "t": 390749.9999999998,
      "d": 250,
      "v": 127
    },
    {
      "midi": 51,
      "hit": false,
      "t": 390999.9999999998,
      "d": 250,
      "v": 127
    },
    {
      "midi": 63,
      "hit": false,
      "t": 391124.99999999907,
      "d": 125,
      "v": 127
    },
    {
      "midi": 65,
      "hit": false,
      "t": 391249.99999999907,
      "d": 125,
      "v": 127
    },
    {
      "midi": 51,
      "hit": false,
      "t": 391249.9999999998,
      "d": 250,
      "v": 127
    },
    {
      "midi": 67,
      "hit": false,
      "t": 391374.99999999907,
      "d": 125,
      "v": 127
    },
    {
      "midi": 68,
      "hit": false,
      "t": 391499.99999999907,
      "d": 125,
      "v": 127
    },
    {
      "midi": 51,
      "hit": false,
      "t": 391499.9999999998,
      "d": 250,
      "v": 127
    },
    {
      "midi": 70,
      "hit": false,
      "t": 391624.99999999907,
      "d": 125,
      "v": 127
    },
    {
      "midi": 72,
      "hit": false,
      "t": 391749.99999999907,
      "d": 125,
      "v": 127
    },
    {
      "midi": 51,
      "hit": false,
      "t": 391749.9999999998,
      "d": 250,
      "v": 127
    },
    {
      "midi": 74,
      "hit": false,
      "t": 391874.99999999907,
      "d": 125,
      "v": 127
    },
    {
      "midi": 75,
      "hit": false,
      "t": 391999.99999999907,
      "d": 125,
      "v": 127
    },
    {
      "midi": 39,
      "hit": false,
      "t": 391999.9999999998,
      "d": 250,
      "v": 127
    },
    {
      "midi": 77,
      "hit": false,
      "t": 392124.99999999907,
      "d": 125,
      "v": 127
    },
    {
      "midi": 79,
      "hit": false,
      "t": 392249.99999999907,
      "d": 125,
      "v": 127
    },
    {
      "midi": 51,
      "hit": false,
      "t": 392249.9999999998,
      "d": 250,
      "v": 127
    },
    {
      "midi": 80,
      "hit": false,
      "t": 392374.99999999907,
      "d": 125,
      "v": 127
    },
    {
      "midi": 82,
      "hit": false,
      "t": 392499.99999999907,
      "d": 125,
      "v": 127
    },
    {
      "midi": 51,
      "hit": false,
      "t": 392499.9999999998,
      "d": 250,
      "v": 127
    },
    {
      "midi": 79,
      "hit": false,
      "t": 392624.99999999907,
      "d": 125,
      "v": 127
    },
    {
      "midi": 80,
      "hit": false,
      "t": 392749.99999999907,
      "d": 125,
      "v": 127
    },
    {
      "midi": 51,
      "hit": false,
      "t": 392749.9999999998,
      "d": 250,
      "v": 127
    },
    {
      "midi": 77,
      "hit": false,
      "t": 392874.99999999907,
      "d": 125,
      "v": 127
    },
    {
      "midi": 75,
      "hit": false,
      "t": 392999.99999999907,
      "d": 500,
      "v": 127
    },
    {
      "midi": 51,
      "hit": false,
      "t": 392999.9999999998,
      "d": 250,
      "v": 127
    },
    {
      "midi": 51,
      "hit": false,
      "t": 393249.9999999998,
      "d": 250,
      "v": 127
    },
    {
      "midi": 51,
      "hit": false,
      "t": 393499.9999999998,
      "d": 250,
      "v": 127
    },
    {
      "midi": 51,
      "hit": false,
      "t": 393749.9999999998,
      "d": 250,
      "v": 127
    },
    {
      "midi": 51,
      "hit": false,
      "t": 393999.9999999998,
      "d": 250,
      "v": 127
    },
    {
      "midi": 51,
      "hit": false,
      "t": 394249.9999999998,
      "d": 250,
      "v": 127
    },
    {
      "midi": 51,
      "hit": false,
      "t": 394499.9999999998,
      "d": 250,
      "v": 127
    },
    {
      "midi": 51,
      "hit": false,
      "t": 394749.9999999998,
      "d": 250,
      "v": 127
    },
    {
      "midi": 51,
      "hit": false,
      "t": 394999.9999999998,
      "d": 250,
      "v": 127
    },
    {
      "midi": 63,
      "hit": false,
      "t": 395124.99999999907,
      "d": 125,
      "v": 127
    },
    {
      "midi": 65,
      "hit": false,
      "t": 395249.99999999907,
      "d": 125,
      "v": 127
    },
    {
      "midi": 51,
      "hit": false,
      "t": 395249.9999999998,
      "d": 250,
      "v": 127
    },
    {
      "midi": 67,
      "hit": false,
      "t": 395374.99999999907,
      "d": 125,
      "v": 127
    },
    {
      "midi": 68,
      "hit": false,
      "t": 395499.99999999907,
      "d": 125,
      "v": 127
    },
    {
      "midi": 51,
      "hit": false,
      "t": 395499.9999999998,
      "d": 250,
      "v": 127
    },
    {
      "midi": 70,
      "hit": false,
      "t": 395624.99999999907,
      "d": 125,
      "v": 127
    },
    {
      "midi": 72,
      "hit": false,
      "t": 395749.99999999907,
      "d": 125,
      "v": 127
    },
    {
      "midi": 51,
      "hit": false,
      "t": 395749.9999999998,
      "d": 250,
      "v": 127
    },
    {
      "midi": 74,
      "hit": false,
      "t": 395874.99999999907,
      "d": 125,
      "v": 127
    },
    {
      "midi": 75,
      "hit": false,
      "t": 395999.99999999907,
      "d": 125,
      "v": 127
    },
    {
      "midi": 51,
      "hit": false,
      "t": 395999.9999999998,
      "d": 500,
      "v": 127
    },
    {
      "midi": 77,
      "hit": false,
      "t": 396124.99999999907,
      "d": 125,
      "v": 127
    },
    {
      "midi": 79,
      "hit": false,
      "t": 396249.99999999907,
      "d": 125,
      "v": 127
    },
    {
      "midi": 80,
      "hit": false,
      "t": 396374.99999999907,
      "d": 125,
      "v": 127
    },
    {
      "midi": 82,
      "hit": false,
      "t": 396499.99999999907,
      "d": 125,
      "v": 127
    },
    {
      "midi": 84,
      "hit": false,
      "t": 396624.99999999907,
      "d": 125,
      "v": 127
    },
    {
      "midi": 85,
      "hit": false,
      "t": 396749.99999999907,
      "d": 125,
      "v": 127
    },
    {
      "midi": 84,
      "hit": false,
      "t": 396874.99999999907,
      "d": 125,
      "v": 127
    },
    {
      "midi": 82,
      "hit": false,
      "t": 396999.99999999907,
      "d": 125,
      "v": 127
    },
    {
      "midi": 55,
      "hit": false,
      "t": 396999.9999999998,
      "d": 1000,
      "v": 127
    },
    {
      "midi": 61,
      "hit": false,
      "t": 396999.9999999998,
      "d": 1000,
      "v": 127
    },
    {
      "midi": 63,
      "hit": false,
      "t": 396999.9999999998,
      "d": 1000,
      "v": 127
    },
    {
      "midi": 80,
      "hit": false,
      "t": 397124.99999999907,
      "d": 125,
      "v": 127
    },
    {
      "midi": 79,
      "hit": false,
      "t": 397249.99999999907,
      "d": 125,
      "v": 127
    },
    {
      "midi": 77,
      "hit": false,
      "t": 397374.99999999907,
      "d": 125,
      "v": 127
    },
    {
      "midi": 75,
      "hit": false,
      "t": 397499.99999999907,
      "d": 125,
      "v": 127
    },
    {
      "midi": 73,
      "hit": false,
      "t": 397624.99999999907,
      "d": 125,
      "v": 127
    },
    {
      "midi": 72,
      "hit": false,
      "t": 397749.99999999907,
      "d": 125,
      "v": 127
    },
    {
      "midi": 71,
      "hit": false,
      "t": 397874.99999999907,
      "d": 125,
      "v": 127
    },
    {
      "midi": 72,
      "hit": false,
      "t": 397999.99999999907,
      "d": 250,
      "v": 127
    },
    {
      "midi": 63,
      "hit": false,
      "t": 397999.9999999998,
      "d": 1500,
      "v": 127
    },
    {
      "midi": 74,
      "hit": false,
      "t": 398249.99999999907,
      "d": 125,
      "v": 127
    },
    {
      "midi": 76,
      "hit": false,
      "t": 398374.99999999907,
      "d": 125,
      "v": 127
    },
    {
      "midi": 77,
      "hit": false,
      "t": 398499.99999999907,
      "d": 125,
      "v": 127
    },
    {
      "midi": 79,
      "hit": false,
      "t": 398624.99999999907,
      "d": 125,
      "v": 127
    },
    {
      "midi": 80,
      "hit": false,
      "t": 398749.99999999907,
      "d": 125,
      "v": 127
    },
    {
      "midi": 82,
      "hit": false,
      "t": 398874.99999999907,
      "d": 125,
      "v": 127
    },
    {
      "midi": 84,
      "hit": false,
      "t": 398999.99999999907,
      "d": 125,
      "v": 127
    },
    {
      "midi": 86,
      "hit": false,
      "t": 399124.99999999907,
      "d": 125,
      "v": 127
    },
    {
      "midi": 87,
      "hit": false,
      "t": 399249.99999999907,
      "d": 125,
      "v": 127
    },
    {
      "midi": 86,
      "hit": false,
      "t": 399374.99999999907,
      "d": 125,
      "v": 127
    },
    {
      "midi": 89,
      "hit": false,
      "t": 399499.99999999907,
      "d": 125,
      "v": 127
    },
    {
      "midi": 65,
      "hit": false,
      "t": 399499.9999999998,
      "d": 500,
      "v": 127
    },
    {
      "midi": 87,
      "hit": false,
      "t": 399624.99999999907,
      "d": 125,
      "v": 127
    },
    {
      "midi": 86,
      "hit": false,
      "t": 399749.99999999907,
      "d": 125,
      "v": 127
    },
    {
      "midi": 84,
      "hit": false,
      "t": 399874.99999999907,
      "d": 125,
      "v": 127
    },
    {
      "midi": 82,
      "hit": false,
      "t": 399999.99999999907,
      "d": 125,
      "v": 127
    },
    {
      "midi": 67,
      "hit": false,
      "t": 399999.9999999998,
      "d": 250,
      "v": 127
    },
    {
      "midi": 87,
      "hit": false,
      "t": 400124.99999999907,
      "d": 125,
      "v": 127
    },
    {
      "midi": 79,
      "hit": false,
      "t": 400249.99999999907,
      "d": 125,
      "v": 127
    },
    {
      "midi": 63,
      "hit": false,
      "t": 400249.9999999998,
      "d": 250,
      "v": 127
    },
    {
      "midi": 82,
      "hit": false,
      "t": 400374.99999999907,
      "d": 125,
      "v": 127
    },
    {
      "midi": 80,
      "hit": false,
      "t": 400499.99999999907,
      "d": 125,
      "v": 127
    },
    {
      "midi": 65,
      "hit": false,
      "t": 400499.9999999998,
      "d": 250,
      "v": 127
    },
    {
      "midi": 84,
      "hit": false,
      "t": 400624.99999999907,
      "d": 125,
      "v": 127
    },
    {
      "midi": 77,
      "hit": false,
      "t": 400749.99999999907,
      "d": 125,
      "v": 127
    },
    {
      "midi": 62,
      "hit": false,
      "t": 400749.9999999998,
      "d": 250,
      "v": 127
    },
    {
      "midi": 80,
      "hit": false,
      "t": 400874.99999999907,
      "d": 125,
      "v": 127
    },
    {
      "midi": 79,
      "hit": false,
      "t": 400999.99999999907,
      "d": 125,
      "v": 127
    },
    {
      "midi": 63,
      "hit": false,
      "t": 400999.9999999998,
      "d": 250,
      "v": 127
    },
    {
      "midi": 82,
      "hit": false,
      "t": 401124.99999999907,
      "d": 125,
      "v": 127
    },
    {
      "midi": 75,
      "hit": false,
      "t": 401249.99999999907,
      "d": 125,
      "v": 127
    },
    {
      "midi": 67,
      "hit": false,
      "t": 401249.9999999998,
      "d": 250,
      "v": 127
    },
    {
      "midi": 79,
      "hit": false,
      "t": 401374.99999999907,
      "d": 125,
      "v": 127
    },
    {
      "midi": 77,
      "hit": false,
      "t": 401499.99999999907,
      "d": 125,
      "v": 127
    },
    {
      "midi": 68,
      "hit": false,
      "t": 401499.9999999998,
      "d": 250,
      "v": 127
    },
    {
      "midi": 80,
      "hit": false,
      "t": 401624.99999999907,
      "d": 125,
      "v": 127
    },
    {
      "midi": 74,
      "hit": false,
      "t": 401749.99999999907,
      "d": 125,
      "v": 127
    },
    {
      "midi": 65,
      "hit": false,
      "t": 401749.9999999998,
      "d": 250,
      "v": 127
    },
    {
      "midi": 77,
      "hit": false,
      "t": 401874.99999999907,
      "d": 125,
      "v": 127
    },
    {
      "midi": 75,
      "hit": false,
      "t": 401999.99999999907,
      "d": 500,
      "v": 127
    },
    {
      "midi": 39,
      "hit": false,
      "t": 401999.9999999998,
      "d": 250,
      "v": 127
    },
    {
      "midi": 51,
      "hit": false,
      "t": 402249.9999999998,
      "d": 250,
      "v": 127
    },
    {
      "midi": 51,
      "hit": false,
      "t": 402499.9999999998,
      "d": 250,
      "v": 127
    },
    {
      "midi": 51,
      "hit": false,
      "t": 402749.9999999998,
      "d": 250,
      "v": 127
    },
    {
      "midi": 51,
      "hit": false,
      "t": 402999.9999999998,
      "d": 250,
      "v": 127
    },
    {
      "midi": 72,
      "hit": false,
      "t": 403249.99999999907,
      "d": 250,
      "v": 127
    },
    {
      "midi": 75,
      "hit": false,
      "t": 403249.99999999907,
      "d": 250,
      "v": 127
    },
    {
      "midi": 51,
      "hit": false,
      "t": 403249.9999999998,
      "d": 250,
      "v": 127
    },
    {
      "midi": 70,
      "hit": false,
      "t": 403499.99999999907,
      "d": 250,
      "v": 127
    },
    {
      "midi": 74,
      "hit": false,
      "t": 403499.99999999907,
      "d": 250,
      "v": 127
    },
    {
      "midi": 51,
      "hit": false,
      "t": 403499.9999999998,
      "d": 250,
      "v": 127
    },
    {
      "midi": 68,
      "hit": false,
      "t": 403749.99999999907,
      "d": 250,
      "v": 127
    },
    {
      "midi": 72,
      "hit": false,
      "t": 403749.99999999907,
      "d": 250,
      "v": 127
    },
    {
      "midi": 51,
      "hit": false,
      "t": 403749.9999999998,
      "d": 250,
      "v": 127
    },
    {
      "midi": 67,
      "hit": false,
      "t": 403999.99999999907,
      "d": 500,
      "v": 127
    },
    {
      "midi": 71,
      "hit": false,
      "t": 403999.99999999907,
      "d": 500,
      "v": 127
    },
    {
      "midi": 51,
      "hit": false,
      "t": 403999.9999999998,
      "d": 250,
      "v": 127
    },
    {
      "midi": 51,
      "hit": false,
      "t": 404249.9999999998,
      "d": 250,
      "v": 127
    },
    {
      "midi": 68,
      "hit": false,
      "t": 404499.99999999907,
      "d": 500,
      "v": 127
    },
    {
      "midi": 72,
      "hit": false,
      "t": 404499.99999999907,
      "d": 500,
      "v": 127
    },
    {
      "midi": 51,
      "hit": false,
      "t": 404499.9999999998,
      "d": 250,
      "v": 127
    },
    {
      "midi": 51,
      "hit": false,
      "t": 404749.9999999998,
      "d": 250,
      "v": 127
    },
    {
      "midi": 63,
      "hit": false,
      "t": 404999.99999999907,
      "d": 500,
      "v": 127
    },
    {
      "midi": 67,
      "hit": false,
      "t": 404999.99999999907,
      "d": 500,
      "v": 127
    },
    {
      "midi": 51,
      "hit": false,
      "t": 404999.9999999998,
      "d": 250,
      "v": 127
    },
    {
      "midi": 51,
      "hit": false,
      "t": 405249.9999999998,
      "d": 250,
      "v": 127
    },
    {
      "midi": 65,
      "hit": false,
      "t": 405499.99999999907,
      "d": 500,
      "v": 127
    },
    {
      "midi": 68,
      "hit": false,
      "t": 405499.99999999907,
      "d": 500,
      "v": 127
    },
    {
      "midi": 51,
      "hit": false,
      "t": 405499.9999999998,
      "d": 250,
      "v": 127
    },
    {
      "midi": 51,
      "hit": false,
      "t": 405749.9999999998,
      "d": 250,
      "v": 127
    },
    {
      "midi": 67,
      "hit": false,
      "t": 405999.99999999907,
      "d": 500,
      "v": 127
    },
    {
      "midi": 70,
      "hit": false,
      "t": 405999.99999999907,
      "d": 500,
      "v": 127
    },
    {
      "midi": 39,
      "hit": false,
      "t": 405999.9999999998,
      "d": 250,
      "v": 127
    },
    {
      "midi": 51,
      "hit": false,
      "t": 406249.9999999998,
      "d": 250,
      "v": 127
    },
    {
      "midi": 51,
      "hit": false,
      "t": 406499.9999999998,
      "d": 250,
      "v": 127
    },
    {
      "midi": 51,
      "hit": false,
      "t": 406749.9999999998,
      "d": 250,
      "v": 127
    },
    {
      "midi": 51,
      "hit": false,
      "t": 406999.9999999998,
      "d": 250,
      "v": 127
    },
    {
      "midi": 72,
      "hit": false,
      "t": 407249.99999999907,
      "d": 250,
      "v": 127
    },
    {
      "midi": 75,
      "hit": false,
      "t": 407249.99999999907,
      "d": 250,
      "v": 127
    },
    {
      "midi": 51,
      "hit": false,
      "t": 407249.9999999998,
      "d": 250,
      "v": 127
    },
    {
      "midi": 70,
      "hit": false,
      "t": 407499.99999999907,
      "d": 250,
      "v": 127
    },
    {
      "midi": 74,
      "hit": false,
      "t": 407499.99999999907,
      "d": 250,
      "v": 127
    },
    {
      "midi": 51,
      "hit": false,
      "t": 407499.9999999998,
      "d": 250,
      "v": 127
    },
    {
      "midi": 68,
      "hit": false,
      "t": 407749.99999999907,
      "d": 250,
      "v": 127
    },
    {
      "midi": 72,
      "hit": false,
      "t": 407749.99999999907,
      "d": 250,
      "v": 127
    },
    {
      "midi": 51,
      "hit": false,
      "t": 407749.9999999998,
      "d": 250,
      "v": 127
    },
    {
      "midi": 67,
      "hit": false,
      "t": 407999.99999999907,
      "d": 500,
      "v": 127
    },
    {
      "midi": 71,
      "hit": false,
      "t": 407999.99999999907,
      "d": 500,
      "v": 127
    },
    {
      "midi": 51,
      "hit": false,
      "t": 407999.9999999998,
      "d": 250,
      "v": 127
    },
    {
      "midi": 51,
      "hit": false,
      "t": 408249.9999999998,
      "d": 250,
      "v": 127
    },
    {
      "midi": 68,
      "hit": false,
      "t": 408499.99999999907,
      "d": 500,
      "v": 127
    },
    {
      "midi": 72,
      "hit": false,
      "t": 408499.99999999907,
      "d": 500,
      "v": 127
    },
    {
      "midi": 51,
      "hit": false,
      "t": 408499.9999999998,
      "d": 250,
      "v": 127
    },
    {
      "midi": 51,
      "hit": false,
      "t": 408749.9999999998,
      "d": 250,
      "v": 127
    },
    {
      "midi": 63,
      "hit": false,
      "t": 408999.99999999907,
      "d": 500,
      "v": 127
    },
    {
      "midi": 67,
      "hit": false,
      "t": 408999.99999999907,
      "d": 500,
      "v": 127
    },
    {
      "midi": 51,
      "hit": false,
      "t": 408999.9999999998,
      "d": 250,
      "v": 127
    },
    {
      "midi": 51,
      "hit": false,
      "t": 409249.9999999998,
      "d": 250,
      "v": 127
    },
    {
      "midi": 65,
      "hit": false,
      "t": 409499.99999999907,
      "d": 500,
      "v": 127
    },
    {
      "midi": 68,
      "hit": false,
      "t": 409499.99999999907,
      "d": 500,
      "v": 127
    },
    {
      "midi": 51,
      "hit": false,
      "t": 409499.9999999998,
      "d": 250,
      "v": 127
    },
    {
      "midi": 51,
      "hit": false,
      "t": 409749.9999999998,
      "d": 250,
      "v": 127
    },
    {
      "midi": 67,
      "hit": false,
      "t": 409999.99999999907,
      "d": 500,
      "v": 127
    },
    {
      "midi": 70,
      "hit": false,
      "t": 409999.99999999907,
      "d": 500,
      "v": 127
    },
    {
      "midi": 39,
      "hit": false,
      "t": 409999.9999999998,
      "d": 250,
      "v": 127
    },
    {
      "midi": 51,
      "hit": false,
      "t": 410249.9999999998,
      "d": 250,
      "v": 127
    },
    {
      "midi": 51,
      "hit": false,
      "t": 410499.9999999998,
      "d": 250,
      "v": 127
    },
    {
      "midi": 51,
      "hit": false,
      "t": 410749.9999999998,
      "d": 250,
      "v": 127
    },
    {
      "midi": 51,
      "hit": false,
      "t": 410999.9999999998,
      "d": 250,
      "v": 127
    },
    {
      "midi": 72,
      "hit": false,
      "t": 411249.99999999907,
      "d": 250,
      "v": 127
    },
    {
      "midi": 75,
      "hit": false,
      "t": 411249.99999999907,
      "d": 250,
      "v": 127
    },
    {
      "midi": 51,
      "hit": false,
      "t": 411249.9999999998,
      "d": 250,
      "v": 127
    },
    {
      "midi": 70,
      "hit": false,
      "t": 411499.99999999907,
      "d": 250,
      "v": 127
    },
    {
      "midi": 74,
      "hit": false,
      "t": 411499.99999999907,
      "d": 250,
      "v": 127
    },
    {
      "midi": 51,
      "hit": false,
      "t": 411499.9999999998,
      "d": 250,
      "v": 127
    },
    {
      "midi": 68,
      "hit": false,
      "t": 411749.99999999907,
      "d": 250,
      "v": 127
    },
    {
      "midi": 72,
      "hit": false,
      "t": 411749.99999999907,
      "d": 250,
      "v": 127
    },
    {
      "midi": 51,
      "hit": false,
      "t": 411749.9999999998,
      "d": 250,
      "v": 127
    },
    {
      "midi": 67,
      "hit": false,
      "t": 411999.99999999907,
      "d": 250,
      "v": 127
    },
    {
      "midi": 71,
      "hit": false,
      "t": 411999.99999999907,
      "d": 250,
      "v": 127
    },
    {
      "midi": 51,
      "hit": false,
      "t": 411999.9999999998,
      "d": 250,
      "v": 127
    },
    {
      "midi": 67,
      "hit": false,
      "t": 412249.99999999907,
      "d": 250,
      "v": 127
    },
    {
      "midi": 71,
      "hit": false,
      "t": 412249.99999999907,
      "d": 250,
      "v": 127
    },
    {
      "midi": 51,
      "hit": false,
      "t": 412249.9999999998,
      "d": 250,
      "v": 127
    },
    {
      "midi": 68,
      "hit": false,
      "t": 412499.99999999907,
      "d": 250,
      "v": 127
    },
    {
      "midi": 72,
      "hit": false,
      "t": 412499.99999999907,
      "d": 250,
      "v": 127
    },
    {
      "midi": 51,
      "hit": false,
      "t": 412499.9999999998,
      "d": 250,
      "v": 127
    },
    {
      "midi": 68,
      "hit": false,
      "t": 412749.99999999907,
      "d": 250,
      "v": 127
    },
    {
      "midi": 72,
      "hit": false,
      "t": 412749.99999999907,
      "d": 250,
      "v": 127
    },
    {
      "midi": 51,
      "hit": false,
      "t": 412749.9999999998,
      "d": 250,
      "v": 127
    },
    {
      "midi": 63,
      "hit": false,
      "t": 412999.99999999907,
      "d": 250,
      "v": 127
    },
    {
      "midi": 67,
      "hit": false,
      "t": 412999.99999999907,
      "d": 250,
      "v": 127
    },
    {
      "midi": 51,
      "hit": false,
      "t": 412999.9999999998,
      "d": 250,
      "v": 127
    },
    {
      "midi": 63,
      "hit": false,
      "t": 413249.99999999907,
      "d": 250,
      "v": 127
    },
    {
      "midi": 67,
      "hit": false,
      "t": 413249.99999999907,
      "d": 250,
      "v": 127
    },
    {
      "midi": 51,
      "hit": false,
      "t": 413249.9999999998,
      "d": 250,
      "v": 127
    },
    {
      "midi": 65,
      "hit": false,
      "t": 413499.99999999907,
      "d": 250,
      "v": 127
    },
    {
      "midi": 68,
      "hit": false,
      "t": 413499.99999999907,
      "d": 250,
      "v": 127
    },
    {
      "midi": 51,
      "hit": false,
      "t": 413499.9999999998,
      "d": 250,
      "v": 127
    },
    {
      "midi": 65,
      "hit": false,
      "t": 413749.99999999907,
      "d": 250,
      "v": 127
    },
    {
      "midi": 68,
      "hit": false,
      "t": 413749.99999999907,
      "d": 250,
      "v": 127
    },
    {
      "midi": 51,
      "hit": false,
      "t": 413749.9999999998,
      "d": 250,
      "v": 127
    },
    {
      "midi": 67,
      "hit": false,
      "t": 413999.99999999907,
      "d": 500,
      "v": 127
    },
    {
      "midi": 70,
      "hit": false,
      "t": 413999.99999999907,
      "d": 500,
      "v": 127
    },
    {
      "midi": 51,
      "hit": false,
      "t": 413999.9999999998,
      "d": 1500,
      "v": 127
    },
    {
      "midi": 39,
      "hit": false,
      "t": 415499.9999999998,
      "d": 500,
      "v": 127
    },
    {
      "midi": 44,
      "hit": false,
      "t": 415999.9999999998,
      "d": 500,
      "v": 127
    },
    {
      "midi": 56,
      "hit": false,
      "t": 417999.9999999998,
      "d": 500,
      "v": 127
    },
    {
      "midi": 68,
      "hit": false,
      "t": 418124.99999999907,
      "d": 125,
      "v": 127
    },
    {
      "midi": 70,
      "hit": false,
      "t": 418249.99999999907,
      "d": 125,
      "v": 127
    },
    {
      "midi": 72,
      "hit": false,
      "t": 418374.99999999907,
      "d": 125,
      "v": 127
    },
    {
      "midi": 73,
      "hit": false,
      "t": 418499.99999999907,
      "d": 125,
      "v": 127
    },
    {
      "midi": 75,
      "hit": false,
      "t": 418624.99999999907,
      "d": 125,
      "v": 127
    },
    {
      "midi": 77,
      "hit": false,
      "t": 418749.99999999907,
      "d": 125,
      "v": 127
    },
    {
      "midi": 79,
      "hit": false,
      "t": 418874.99999999907,
      "d": 125,
      "v": 127
    },
    {
      "midi": 80,
      "hit": false,
      "t": 418999.99999999907,
      "d": 125,
      "v": 127
    },
    {
      "midi": 82,
      "hit": false,
      "t": 419124.99999999907,
      "d": 125,
      "v": 127
    },
    {
      "midi": 84,
      "hit": false,
      "t": 419249.99999999907,
      "d": 125,
      "v": 127
    },
    {
      "midi": 86,
      "hit": false,
      "t": 419374.99999999907,
      "d": 125,
      "v": 127
    },
    {
      "midi": 87,
      "hit": false,
      "t": 419499.99999999907,
      "d": 250,
      "v": 127
    },
    {
      "midi": 87,
      "hit": false,
      "t": 419749.99999999907,
      "d": 250,
      "v": 127
    },
    {
      "midi": 46,
      "hit": false,
      "t": 419999.9999999998,
      "d": 2000,
      "v": 127
    },
    {
      "midi": 58,
      "hit": false,
      "t": 419999.9999999998,
      "d": 2000,
      "v": 127
    },
    {
      "midi": 87,
      "hit": false,
      "t": 420124.99999999907,
      "d": 125,
      "v": 127
    },
    {
      "midi": 82,
      "hit": false,
      "t": 420249.99999999907,
      "d": 125,
      "v": 127
    },
    {
      "midi": 79,
      "hit": false,
      "t": 420374.99999999907,
      "d": 125,
      "v": 127
    },
    {
      "midi": 75,
      "hit": false,
      "t": 420499.99999999907,
      "d": 125,
      "v": 127
    },
    {
      "midi": 82,
      "hit": false,
      "t": 420624.99999999907,
      "d": 125,
      "v": 127
    },
    {
      "midi": 79,
      "hit": false,
      "t": 420749.99999999907,
      "d": 125,
      "v": 127
    },
    {
      "midi": 75,
      "hit": false,
      "t": 420874.99999999907,
      "d": 125,
      "v": 127
    },
    {
      "midi": 70,
      "hit": false,
      "t": 420999.99999999907,
      "d": 125,
      "v": 127
    },
    {
      "midi": 79,
      "hit": false,
      "t": 421124.99999999907,
      "d": 125,
      "v": 127
    },
    {
      "midi": 75,
      "hit": false,
      "t": 421249.99999999907,
      "d": 125,
      "v": 127
    },
    {
      "midi": 70,
      "hit": false,
      "t": 421374.99999999907,
      "d": 125,
      "v": 127
    },
    {
      "midi": 67,
      "hit": false,
      "t": 421499.99999999907,
      "d": 125,
      "v": 127
    },
    {
      "midi": 75,
      "hit": false,
      "t": 421624.99999999907,
      "d": 125,
      "v": 127
    },
    {
      "midi": 70,
      "hit": false,
      "t": 421749.99999999907,
      "d": 125,
      "v": 127
    },
    {
      "midi": 67,
      "hit": false,
      "t": 421874.99999999907,
      "d": 125,
      "v": 127
    },
    {
      "midi": 63,
      "hit": false,
      "t": 421999.99999999907,
      "d": 125,
      "v": 127
    },
    {
      "midi": 34,
      "hit": false,
      "t": 421999.9999999998,
      "d": 2000,
      "v": 127
    },
    {
      "midi": 46,
      "hit": false,
      "t": 421999.9999999998,
      "d": 2000,
      "v": 127
    },
    {
      "midi": 70,
      "hit": false,
      "t": 422124.99999999907,
      "d": 125,
      "v": 127
    },
    {
      "midi": 67,
      "hit": false,
      "t": 422249.99999999907,
      "d": 125,
      "v": 127
    },
    {
      "midi": 63,
      "hit": false,
      "t": 422374.99999999907,
      "d": 125,
      "v": 127
    },
    {
      "midi": 58,
      "hit": false,
      "t": 422499.99999999907,
      "d": 125,
      "v": 127
    },
    {
      "midi": 67,
      "hit": false,
      "t": 422624.99999999907,
      "d": 125,
      "v": 127
    },
    {
      "midi": 63,
      "hit": false,
      "t": 422749.99999999907,
      "d": 125,
      "v": 127
    },
    {
      "midi": 58,
      "hit": false,
      "t": 422874.99999999907,
      "d": 125,
      "v": 127
    },
    {
      "midi": 55,
      "hit": false,
      "t": 422999.99999999907,
      "d": 125,
      "v": 127
    },
    {
      "midi": 63,
      "hit": false,
      "t": 423124.99999999907,
      "d": 125,
      "v": 127
    },
    {
      "midi": 58,
      "hit": false,
      "t": 423249.99999999907,
      "d": 125,
      "v": 127
    },
    {
      "midi": 55,
      "hit": false,
      "t": 423374.99999999907,
      "d": 125,
      "v": 127
    },
    {
      "midi": 56,
      "hit": false,
      "t": 423499.99999999907,
      "d": 125,
      "v": 127
    },
    {
      "midi": 62,
      "hit": false,
      "t": 423624.99999999907,
      "d": 125,
      "v": 127
    },
    {
      "midi": 58,
      "hit": false,
      "t": 423749.99999999907,
      "d": 125,
      "v": 127
    },
    {
      "midi": 56,
      "hit": false,
      "t": 423874.99999999907,
      "d": 125,
      "v": 127
    },
    {
      "midi": 55,
      "hit": false,
      "t": 423999.99999999907,
      "d": 125,
      "v": 127
    },
    {
      "midi": 39,
      "hit": false,
      "t": 423999.9999999998,
      "d": 500,
      "v": 127
    },
    {
      "midi": 58,
      "hit": false,
      "t": 424124.99999999907,
      "d": 125,
      "v": 127
    },
    {
      "midi": 63,
      "hit": false,
      "t": 424249.99999999907,
      "d": 125,
      "v": 127
    },
    {
      "midi": 58,
      "hit": false,
      "t": 424374.99999999907,
      "d": 125,
      "v": 127
    },
    {
      "midi": 55,
      "hit": false,
      "t": 424499.99999999907,
      "d": 125,
      "v": 127
    },
    {
      "midi": 46,
      "hit": false,
      "t": 424499.9999999998,
      "d": 500,
      "v": 127
    },
    {
      "midi": 58,
      "hit": false,
      "t": 424624.99999999907,
      "d": 125,
      "v": 127
    },
    {
      "midi": 63,
      "hit": false,
      "t": 424749.99999999907,
      "d": 125,
      "v": 127
    },
    {
      "midi": 58,
      "hit": false,
      "t": 424874.99999999907,
      "d": 125,
      "v": 127
    },
    {
      "midi": 55,
      "hit": false,
      "t": 424999.99999999907,
      "d": 125,
      "v": 127
    },
    {
      "midi": 43,
      "hit": false,
      "t": 424999.9999999998,
      "d": 500,
      "v": 127
    },
    {
      "midi": 58,
      "hit": false,
      "t": 425124.99999999907,
      "d": 125,
      "v": 127
    },
    {
      "midi": 63,
      "hit": false,
      "t": 425249.99999999907,
      "d": 125,
      "v": 127
    },
    {
      "midi": 58,
      "hit": false,
      "t": 425374.99999999907,
      "d": 125,
      "v": 127
    },
    {
      "midi": 55,
      "hit": false,
      "t": 425499.99999999907,
      "d": 125,
      "v": 127
    },
    {
      "midi": 39,
      "hit": false,
      "t": 425499.9999999998,
      "d": 500,
      "v": 127
    },
    {
      "midi": 58,
      "hit": false,
      "t": 425624.99999999907,
      "d": 125,
      "v": 127
    },
    {
      "midi": 63,
      "hit": false,
      "t": 425749.99999999907,
      "d": 125,
      "v": 127
    },
    {
      "midi": 58,
      "hit": false,
      "t": 425874.99999999907,
      "d": 125,
      "v": 127
    },
    {
      "midi": 56,
      "hit": false,
      "t": 425999.99999999907,
      "d": 125,
      "v": 127
    },
    {
      "midi": 38,
      "hit": false,
      "t": 425999.9999999998,
      "d": 500,
      "v": 127
    },
    {
      "midi": 58,
      "hit": false,
      "t": 426124.99999999907,
      "d": 125,
      "v": 127
    },
    {
      "midi": 65,
      "hit": false,
      "t": 426249.99999999907,
      "d": 125,
      "v": 127
    },
    {
      "midi": 58,
      "hit": false,
      "t": 426374.99999999907,
      "d": 125,
      "v": 127
    },
    {
      "midi": 56,
      "hit": false,
      "t": 426499.99999999907,
      "d": 125,
      "v": 127
    },
    {
      "midi": 41,
      "hit": false,
      "t": 426499.9999999998,
      "d": 500,
      "v": 127
    },
    {
      "midi": 58,
      "hit": false,
      "t": 426624.99999999907,
      "d": 125,
      "v": 127
    },
    {
      "midi": 65,
      "hit": false,
      "t": 426749.99999999907,
      "d": 125,
      "v": 127
    },
    {
      "midi": 58,
      "hit": false,
      "t": 426874.99999999907,
      "d": 125,
      "v": 127
    },
    {
      "midi": 56,
      "hit": false,
      "t": 426999.99999999907,
      "d": 125,
      "v": 127
    },
    {
      "midi": 38,
      "hit": false,
      "t": 426999.9999999998,
      "d": 500,
      "v": 127
    },
    {
      "midi": 58,
      "hit": false,
      "t": 427124.99999999907,
      "d": 125,
      "v": 127
    },
    {
      "midi": 65,
      "hit": false,
      "t": 427249.99999999907,
      "d": 125,
      "v": 127
    },
    {
      "midi": 58,
      "hit": false,
      "t": 427374.99999999907,
      "d": 125,
      "v": 127
    },
    {
      "midi": 56,
      "hit": false,
      "t": 427499.99999999907,
      "d": 125,
      "v": 127
    },
    {
      "midi": 34,
      "hit": false,
      "t": 427499.9999999998,
      "d": 500,
      "v": 127
    },
    {
      "midi": 58,
      "hit": false,
      "t": 427624.99999999907,
      "d": 125,
      "v": 127
    },
    {
      "midi": 65,
      "hit": false,
      "t": 427749.99999999907,
      "d": 125,
      "v": 127
    },
    {
      "midi": 58,
      "hit": false,
      "t": 427874.99999999907,
      "d": 125,
      "v": 127
    },
    {
      "midi": 55,
      "hit": false,
      "t": 427999.99999999907,
      "d": 125,
      "v": 127
    },
    {
      "midi": 39,
      "hit": false,
      "t": 427999.9999999998,
      "d": 500,
      "v": 127
    },
    {
      "midi": 58,
      "hit": false,
      "t": 428124.99999999907,
      "d": 125,
      "v": 127
    },
    {
      "midi": 63,
      "hit": false,
      "t": 428249.99999999907,
      "d": 125,
      "v": 127
    },
    {
      "midi": 58,
      "hit": false,
      "t": 428374.99999999907,
      "d": 125,
      "v": 127
    },
    {
      "midi": 55,
      "hit": false,
      "t": 428499.99999999907,
      "d": 125,
      "v": 127
    },
    {
      "midi": 46,
      "hit": false,
      "t": 428499.9999999998,
      "d": 500,
      "v": 127
    },
    {
      "midi": 58,
      "hit": false,
      "t": 428624.99999999907,
      "d": 125,
      "v": 127
    },
    {
      "midi": 63,
      "hit": false,
      "t": 428749.99999999907,
      "d": 125,
      "v": 127
    },
    {
      "midi": 58,
      "hit": false,
      "t": 428874.99999999907,
      "d": 125,
      "v": 127
    },
    {
      "midi": 55,
      "hit": false,
      "t": 428999.99999999907,
      "d": 125,
      "v": 127
    },
    {
      "midi": 43,
      "hit": false,
      "t": 428999.9999999998,
      "d": 500,
      "v": 127
    },
    {
      "midi": 58,
      "hit": false,
      "t": 429124.99999999907,
      "d": 125,
      "v": 127
    },
    {
      "midi": 63,
      "hit": false,
      "t": 429249.99999999907,
      "d": 125,
      "v": 127
    },
    {
      "midi": 58,
      "hit": false,
      "t": 429374.99999999907,
      "d": 125,
      "v": 127
    },
    {
      "midi": 55,
      "hit": false,
      "t": 429499.99999999907,
      "d": 125,
      "v": 127
    },
    {
      "midi": 39,
      "hit": false,
      "t": 429499.9999999998,
      "d": 500,
      "v": 127
    },
    {
      "midi": 58,
      "hit": false,
      "t": 429624.99999999907,
      "d": 125,
      "v": 127
    },
    {
      "midi": 63,
      "hit": false,
      "t": 429749.99999999907,
      "d": 125,
      "v": 127
    },
    {
      "midi": 58,
      "hit": false,
      "t": 429874.99999999907,
      "d": 125,
      "v": 127
    },
    {
      "midi": 56,
      "hit": false,
      "t": 429999.99999999907,
      "d": 125,
      "v": 127
    },
    {
      "midi": 38,
      "hit": false,
      "t": 429999.9999999998,
      "d": 500,
      "v": 127
    },
    {
      "midi": 58,
      "hit": false,
      "t": 430124.99999999907,
      "d": 125,
      "v": 127
    },
    {
      "midi": 65,
      "hit": false,
      "t": 430249.99999999907,
      "d": 125,
      "v": 127
    },
    {
      "midi": 58,
      "hit": false,
      "t": 430374.99999999907,
      "d": 125,
      "v": 127
    },
    {
      "midi": 56,
      "hit": false,
      "t": 430499.99999999907,
      "d": 125,
      "v": 127
    },
    {
      "midi": 41,
      "hit": false,
      "t": 430499.9999999998,
      "d": 500,
      "v": 127
    },
    {
      "midi": 58,
      "hit": false,
      "t": 430624.99999999907,
      "d": 125,
      "v": 127
    },
    {
      "midi": 65,
      "hit": false,
      "t": 430749.99999999907,
      "d": 125,
      "v": 127
    },
    {
      "midi": 58,
      "hit": false,
      "t": 430874.99999999907,
      "d": 125,
      "v": 127
    },
    {
      "midi": 56,
      "hit": false,
      "t": 430999.99999999907,
      "d": 125,
      "v": 127
    },
    {
      "midi": 38,
      "hit": false,
      "t": 430999.9999999998,
      "d": 500,
      "v": 127
    },
    {
      "midi": 58,
      "hit": false,
      "t": 431124.99999999907,
      "d": 125,
      "v": 127
    },
    {
      "midi": 65,
      "hit": false,
      "t": 431249.99999999907,
      "d": 125,
      "v": 127
    },
    {
      "midi": 58,
      "hit": false,
      "t": 431374.99999999907,
      "d": 125,
      "v": 127
    },
    {
      "midi": 56,
      "hit": false,
      "t": 431499.99999999907,
      "d": 125,
      "v": 127
    },
    {
      "midi": 34,
      "hit": false,
      "t": 431499.9999999998,
      "d": 500,
      "v": 127
    },
    {
      "midi": 58,
      "hit": false,
      "t": 431624.99999999907,
      "d": 125,
      "v": 127
    },
    {
      "midi": 65,
      "hit": false,
      "t": 431749.99999999907,
      "d": 125,
      "v": 127
    },
    {
      "midi": 58,
      "hit": false,
      "t": 431874.99999999907,
      "d": 125,
      "v": 127
    },
    {
      "midi": 55,
      "hit": false,
      "t": 431999.99999999907,
      "d": 125,
      "v": 127
    },
    {
      "midi": 39,
      "hit": false,
      "t": 431999.9999999998,
      "d": 500,
      "v": 127
    },
    {
      "midi": 58,
      "hit": false,
      "t": 432124.99999999907,
      "d": 125,
      "v": 127
    },
    {
      "midi": 63,
      "hit": false,
      "t": 432249.99999999907,
      "d": 125,
      "v": 127
    },
    {
      "midi": 58,
      "hit": false,
      "t": 432374.99999999907,
      "d": 125,
      "v": 127
    },
    {
      "midi": 55,
      "hit": false,
      "t": 432499.99999999907,
      "d": 125,
      "v": 127
    },
    {
      "midi": 46,
      "hit": false,
      "t": 432499.9999999998,
      "d": 500,
      "v": 127
    },
    {
      "midi": 58,
      "hit": false,
      "t": 432624.99999999907,
      "d": 125,
      "v": 127
    },
    {
      "midi": 63,
      "hit": false,
      "t": 432749.99999999907,
      "d": 125,
      "v": 127
    },
    {
      "midi": 58,
      "hit": false,
      "t": 432874.99999999907,
      "d": 125,
      "v": 127
    },
    {
      "midi": 55,
      "hit": false,
      "t": 432999.99999999907,
      "d": 125,
      "v": 127
    },
    {
      "midi": 43,
      "hit": false,
      "t": 432999.9999999998,
      "d": 500,
      "v": 127
    },
    {
      "midi": 58,
      "hit": false,
      "t": 433124.99999999907,
      "d": 125,
      "v": 127
    },
    {
      "midi": 63,
      "hit": false,
      "t": 433249.99999999907,
      "d": 125,
      "v": 127
    },
    {
      "midi": 58,
      "hit": false,
      "t": 433374.99999999907,
      "d": 125,
      "v": 127
    },
    {
      "midi": 55,
      "hit": false,
      "t": 433499.99999999907,
      "d": 125,
      "v": 127
    },
    {
      "midi": 39,
      "hit": false,
      "t": 433499.9999999998,
      "d": 500,
      "v": 127
    },
    {
      "midi": 58,
      "hit": false,
      "t": 433624.99999999907,
      "d": 125,
      "v": 127
    },
    {
      "midi": 63,
      "hit": false,
      "t": 433749.99999999907,
      "d": 125,
      "v": 127
    },
    {
      "midi": 58,
      "hit": false,
      "t": 433874.99999999907,
      "d": 125,
      "v": 127
    },
    {
      "midi": 56,
      "hit": false,
      "t": 433999.99999999907,
      "d": 125,
      "v": 127
    },
    {
      "midi": 38,
      "hit": false,
      "t": 433999.9999999998,
      "d": 500,
      "v": 127
    },
    {
      "midi": 58,
      "hit": false,
      "t": 434124.99999999907,
      "d": 125,
      "v": 127
    },
    {
      "midi": 65,
      "hit": false,
      "t": 434249.99999999907,
      "d": 125,
      "v": 127
    },
    {
      "midi": 58,
      "hit": false,
      "t": 434374.99999999907,
      "d": 125,
      "v": 127
    },
    {
      "midi": 56,
      "hit": false,
      "t": 434499.99999999907,
      "d": 125,
      "v": 127
    },
    {
      "midi": 41,
      "hit": false,
      "t": 434499.9999999998,
      "d": 500,
      "v": 127
    },
    {
      "midi": 58,
      "hit": false,
      "t": 434624.99999999907,
      "d": 125,
      "v": 127
    },
    {
      "midi": 65,
      "hit": false,
      "t": 434749.99999999907,
      "d": 125,
      "v": 127
    },
    {
      "midi": 58,
      "hit": false,
      "t": 434874.99999999907,
      "d": 125,
      "v": 127
    },
    {
      "midi": 56,
      "hit": false,
      "t": 434999.99999999907,
      "d": 125,
      "v": 127
    },
    {
      "midi": 38,
      "hit": false,
      "t": 434999.9999999998,
      "d": 500,
      "v": 127
    },
    {
      "midi": 58,
      "hit": false,
      "t": 435124.99999999907,
      "d": 125,
      "v": 127
    },
    {
      "midi": 65,
      "hit": false,
      "t": 435249.99999999907,
      "d": 125,
      "v": 127
    },
    {
      "midi": 58,
      "hit": false,
      "t": 435374.99999999907,
      "d": 125,
      "v": 127
    },
    {
      "midi": 56,
      "hit": false,
      "t": 435499.99999999907,
      "d": 125,
      "v": 127
    },
    {
      "midi": 34,
      "hit": false,
      "t": 435499.9999999998,
      "d": 500,
      "v": 127
    },
    {
      "midi": 58,
      "hit": false,
      "t": 435624.99999999907,
      "d": 125,
      "v": 127
    },
    {
      "midi": 65,
      "hit": false,
      "t": 435749.99999999907,
      "d": 125,
      "v": 127
    },
    {
      "midi": 58,
      "hit": false,
      "t": 435874.99999999907,
      "d": 125,
      "v": 127
    },
    {
      "midi": 55,
      "hit": false,
      "t": 435999.99999999907,
      "d": 125,
      "v": 127
    },
    {
      "midi": 58,
      "hit": false,
      "t": 436124.99999999907,
      "d": 125,
      "v": 127
    },
    {
      "midi": 63,
      "hit": false,
      "t": 436249.99999999907,
      "d": 125,
      "v": 127
    },
    {
      "midi": 58,
      "hit": false,
      "t": 436374.99999999907,
      "d": 125,
      "v": 127
    },
    {
      "midi": 55,
      "hit": false,
      "t": 436499.99999999907,
      "d": 125,
      "v": 127
    },
    {
      "midi": 39,
      "hit": false,
      "t": 436499.9999999998,
      "d": 500,
      "v": 127
    },
    {
      "midi": 51,
      "hit": false,
      "t": 436499.9999999998,
      "d": 500,
      "v": 127
    },
    {
      "midi": 58,
      "hit": false,
      "t": 436624.99999999907,
      "d": 125,
      "v": 127
    },
    {
      "midi": 63,
      "hit": false,
      "t": 436749.99999999907,
      "d": 125,
      "v": 127
    },
    {
      "midi": 58,
      "hit": false,
      "t": 436874.99999999907,
      "d": 125,
      "v": 127
    },
    {
      "midi": 56,
      "hit": false,
      "t": 436999.99999999907,
      "d": 125,
      "v": 127
    },
    {
      "midi": 38,
      "hit": false,
      "t": 436999.9999999998,
      "d": 500,
      "v": 127
    },
    {
      "midi": 50,
      "hit": false,
      "t": 436999.9999999998,
      "d": 500,
      "v": 127
    },
    {
      "midi": 58,
      "hit": false,
      "t": 437124.99999999907,
      "d": 125,
      "v": 127
    },
    {
      "midi": 65,
      "hit": false,
      "t": 437249.99999999907,
      "d": 125,
      "v": 127
    },
    {
      "midi": 58,
      "hit": false,
      "t": 437374.99999999907,
      "d": 125,
      "v": 127
    },
    {
      "midi": 56,
      "hit": false,
      "t": 437499.99999999907,
      "d": 125,
      "v": 127
    },
    {
      "midi": 34,
      "hit": false,
      "t": 437499.9999999998,
      "d": 500,
      "v": 127
    },
    {
      "midi": 46,
      "hit": false,
      "t": 437499.9999999998,
      "d": 500,
      "v": 127
    },
    {
      "midi": 58,
      "hit": false,
      "t": 437624.99999999907,
      "d": 125,
      "v": 127
    },
    {
      "midi": 65,
      "hit": false,
      "t": 437749.99999999907,
      "d": 125,
      "v": 127
    },
    {
      "midi": 58,
      "hit": false,
      "t": 437874.99999999907,
      "d": 125,
      "v": 127
    },
    {
      "midi": 55,
      "hit": false,
      "t": 437999.99999999907,
      "d": 125,
      "v": 127
    },
    {
      "midi": 58,
      "hit": false,
      "t": 438124.99999999907,
      "d": 125,
      "v": 127
    },
    {
      "midi": 63,
      "hit": false,
      "t": 438249.99999999907,
      "d": 125,
      "v": 127
    },
    {
      "midi": 58,
      "hit": false,
      "t": 438374.99999999907,
      "d": 125,
      "v": 127
    },
    {
      "midi": 55,
      "hit": false,
      "t": 438499.99999999907,
      "d": 125,
      "v": 127
    },
    {
      "midi": 39,
      "hit": false,
      "t": 438499.9999999998,
      "d": 500,
      "v": 127
    },
    {
      "midi": 51,
      "hit": false,
      "t": 438499.9999999998,
      "d": 500,
      "v": 127
    },
    {
      "midi": 58,
      "hit": false,
      "t": 438624.99999999907,
      "d": 125,
      "v": 127
    },
    {
      "midi": 63,
      "hit": false,
      "t": 438749.99999999907,
      "d": 125,
      "v": 127
    },
    {
      "midi": 58,
      "hit": false,
      "t": 438874.99999999907,
      "d": 125,
      "v": 127
    },
    {
      "midi": 56,
      "hit": false,
      "t": 438999.99999999907,
      "d": 125,
      "v": 127
    },
    {
      "midi": 38,
      "hit": false,
      "t": 438999.9999999998,
      "d": 500,
      "v": 127
    },
    {
      "midi": 50,
      "hit": false,
      "t": 438999.9999999998,
      "d": 500,
      "v": 127
    },
    {
      "midi": 58,
      "hit": false,
      "t": 439124.99999999907,
      "d": 125,
      "v": 127
    },
    {
      "midi": 65,
      "hit": false,
      "t": 439249.99999999907,
      "d": 125,
      "v": 127
    },
    {
      "midi": 58,
      "hit": false,
      "t": 439374.99999999907,
      "d": 125,
      "v": 127
    },
    {
      "midi": 56,
      "hit": false,
      "t": 439499.99999999907,
      "d": 125,
      "v": 127
    },
    {
      "midi": 34,
      "hit": false,
      "t": 439499.9999999998,
      "d": 500,
      "v": 127
    },
    {
      "midi": 46,
      "hit": false,
      "t": 439499.9999999998,
      "d": 500,
      "v": 127
    },
    {
      "midi": 58,
      "hit": false,
      "t": 439624.99999999907,
      "d": 125,
      "v": 127
    },
    {
      "midi": 65,
      "hit": false,
      "t": 439749.99999999907,
      "d": 125,
      "v": 127
    },
    {
      "midi": 58,
      "hit": false,
      "t": 439874.99999999907,
      "d": 125,
      "v": 127
    },
    {
      "midi": 55,
      "hit": false,
      "t": 439999.99999999907,
      "d": 125,
      "v": 127
    },
    {
      "midi": 39,
      "hit": false,
      "t": 439999.9999999998,
      "d": 500,
      "v": 127
    },
    {
      "midi": 51,
      "hit": false,
      "t": 439999.9999999998,
      "d": 500,
      "v": 127
    },
    {
      "midi": 58,
      "hit": false,
      "t": 440124.99999999907,
      "d": 125,
      "v": 127
    },
    {
      "midi": 63,
      "hit": false,
      "t": 440249.99999999907,
      "d": 125,
      "v": 127
    },
    {
      "midi": 58,
      "hit": false,
      "t": 440374.99999999907,
      "d": 125,
      "v": 127
    },
    {
      "midi": 55,
      "hit": false,
      "t": 440499.99999999907,
      "d": 125,
      "v": 127
    },
    {
      "midi": 43,
      "hit": false,
      "t": 440499.9999999998,
      "d": 500,
      "v": 127
    },
    {
      "midi": 58,
      "hit": false,
      "t": 440624.99999999907,
      "d": 125,
      "v": 127
    },
    {
      "midi": 63,
      "hit": false,
      "t": 440749.99999999907,
      "d": 125,
      "v": 127
    },
    {
      "midi": 58,
      "hit": false,
      "t": 440874.99999999907,
      "d": 125,
      "v": 127
    },
    {
      "midi": 56,
      "hit": false,
      "t": 440999.99999999907,
      "d": 125,
      "v": 127
    },
    {
      "midi": 46,
      "hit": false,
      "t": 440999.9999999998,
      "d": 500,
      "v": 127
    },
    {
      "midi": 58,
      "hit": false,
      "t": 441124.99999999907,
      "d": 125,
      "v": 127
    },
    {
      "midi": 65,
      "hit": false,
      "t": 441249.99999999907,
      "d": 125,
      "v": 127
    },
    {
      "midi": 58,
      "hit": false,
      "t": 441374.99999999907,
      "d": 125,
      "v": 127
    },
    {
      "midi": 56,
      "hit": false,
      "t": 441499.99999999907,
      "d": 125,
      "v": 127
    },
    {
      "midi": 34,
      "hit": false,
      "t": 441499.9999999998,
      "d": 500,
      "v": 127
    },
    {
      "midi": 58,
      "hit": false,
      "t": 441624.99999999907,
      "d": 125,
      "v": 127
    },
    {
      "midi": 62,
      "hit": false,
      "t": 441749.99999999907,
      "d": 125,
      "v": 127
    },
    {
      "midi": 58,
      "hit": false,
      "t": 441874.99999999907,
      "d": 125,
      "v": 127
    },
    {
      "midi": 55,
      "hit": false,
      "t": 441999.99999999907,
      "d": 500,
      "v": 127
    },
    {
      "midi": 58,
      "hit": false,
      "t": 441999.99999999907,
      "d": 500,
      "v": 127
    },
    {
      "midi": 63,
      "hit": false,
      "t": 441999.99999999907,
      "d": 500,
      "v": 127
    },
    {
      "midi": 39,
      "hit": false,
      "t": 441999.9999999998,
      "d": 500,
      "v": 127
    },
    {
      "midi": 70,
      "hit": false,
      "t": 442499.99999999907,
      "d": 500,
      "v": 127
    },
    {
      "midi": 75,
      "hit": false,
      "t": 442499.99999999907,
      "d": 500,
      "v": 127
    },
    {
      "midi": 79,
      "hit": false,
      "t": 442499.99999999907,
      "d": 500,
      "v": 127
    },
    {
      "midi": 55,
      "hit": false,
      "t": 442999.99999999907,
      "d": 500,
      "v": 127
    },
    {
      "midi": 58,
      "hit": false,
      "t": 442999.99999999907,
      "d": 500,
      "v": 127
    },
    {
      "midi": 63,
      "hit": false,
      "t": 442999.99999999907,
      "d": 500,
      "v": 127
    },
    {
      "midi": 39,
      "hit": false,
      "t": 442999.9999999998,
      "d": 500,
      "v": 127
    },
    {
      "midi": 51,
      "hit": false,
      "t": 442999.9999999998,
      "d": 500,
      "v": 127
    },
    {
      "midi": 55,
      "hit": false,
      "t": 443499.99999999907,
      "d": 500,
      "v": 127
    },
    {
      "midi": 58,
      "hit": false,
      "t": 443499.99999999907,
      "d": 500,
      "v": 127
    },
    {
      "midi": 63,
      "hit": false,
      "t": 443499.99999999907,
      "d": 500,
      "v": 127
    },
    {
      "midi": 39,
      "hit": false,
      "t": 443499.9999999998,
      "d": 500,
      "v": 127
    },
    {
      "midi": 51,
      "hit": false,
      "t": 443499.9999999998,
      "d": 500,
      "v": 127
    },
    {
      "midi": 55,
      "hit": false,
      "t": 443999.99999999907,
      "d": 1000,
      "v": 127
    },
    {
      "midi": 58,
      "hit": false,
      "t": 443999.99999999907,
      "d": 1000,
      "v": 127
    },
    {
      "midi": 63,
      "hit": false,
      "t": 443999.99999999907,
      "d": 1000,
      "v": 127
    },
    {
      "midi": 39,
      "hit": false,
      "t": 443999.9999999998,
      "d": 1000,
      "v": 127
    },
    {
      "midi": 51,
      "hit": false,
      "t": 443999.9999999998,
      "d": 1000,
      "v": 127
    }
  ]
}