{
  "jsonPath": "Classical/Classical/Wolfgang Amadeus Mozart/turkish-march.json",
  "path": "Classical\\Classical\\Wolfgang Amadeus Mozart\\Turkish March.mid",
  "name": "Turkish March",
  "difficulty": "Advanced",
  "bpm": 140.00014000014,
  "notes": [
    {
      "midi": 71,
      "hit": false,
      "t": 857.142,
      "d": 214.28549999999996,
      "v": 64
    },
    {
      "midi": 69,
      "hit": false,
      "t": 1071.4275,
      "d": 214.28549999999996,
      "v": 49
    },
    {
      "midi": 68,
      "hit": false,
      "t": 1285.713,
      "d": 214.28549999999996,
      "v": 49
    },
    {
      "midi": 69,
      "hit": false,
      "t": 1499.9985,
      "d": 214.28549999999996,
      "v": 49
    },
    {
      "midi": 72,
      "hit": false,
      "t": 1714.2839999999999,
      "d": 857.142,
      "v": 44
    },
    {
      "midi": 57,
      "hit": false,
      "t": 1714.284,
      "d": 428.5709999999999,
      "v": 54
    },
    {
      "midi": 64,
      "hit": false,
      "t": 2142.855,
      "d": 428.5709999999999,
      "v": 50
    },
    {
      "midi": 74,
      "hit": false,
      "t": 2571.426,
      "d": 214.28549999999996,
      "v": 49
    },
    {
      "midi": 64,
      "hit": false,
      "t": 2571.426,
      "d": 428.5709999999999,
      "v": 52
    },
    {
      "midi": 72,
      "hit": false,
      "t": 2785.7115,
      "d": 214.28549999999996,
      "v": 49
    },
    {
      "midi": 71,
      "hit": false,
      "t": 2999.997,
      "d": 214.28549999999996,
      "v": 49
    },
    {
      "midi": 64,
      "hit": false,
      "t": 2999.997,
      "d": 428.5709999999999,
      "v": 50
    },
    {
      "midi": 72,
      "hit": false,
      "t": 3214.2825,
      "d": 214.28549999999996,
      "v": 49
    },
    {
      "midi": 76,
      "hit": false,
      "t": 3428.5679999999998,
      "d": 857.1420000000003,
      "v": 44
    },
    {
      "midi": 57,
      "hit": false,
      "t": 3428.5679999999998,
      "d": 428.5709999999999,
      "v": 54
    },
    {
      "midi": 64,
      "hit": false,
      "t": 3857.1389999999997,
      "d": 428.57100000000037,
      "v": 50
    },
    {
      "midi": 77,
      "hit": false,
      "t": 4285.71,
      "d": 214.28549999999996,
      "v": 49
    },
    {
      "midi": 64,
      "hit": false,
      "t": 4285.71,
      "d": 428.5709999999999,
      "v": 52
    },
    {
      "midi": 76,
      "hit": false,
      "t": 4499.9955,
      "d": 214.28549999999996,
      "v": 49
    },
    {
      "midi": 75,
      "hit": false,
      "t": 4714.281,
      "d": 214.28549999999996,
      "v": 49
    },
    {
      "midi": 64,
      "hit": false,
      "t": 4714.281,
      "d": 428.5709999999999,
      "v": 50
    },
    {
      "midi": 76,
      "hit": false,
      "t": 4928.5665,
      "d": 214.28549999999996,
      "v": 44
    },
    {
      "midi": 83,
      "hit": false,
      "t": 5142.852,
      "d": 214.28549999999996,
      "v": 49
    },
    {
      "midi": 57,
      "hit": false,
      "t": 5142.852,
      "d": 428.5709999999999,
      "v": 54
    },
    {
      "midi": 81,
      "hit": false,
      "t": 5357.1375,
      "d": 214.28549999999996,
      "v": 49
    },
    {
      "midi": 80,
      "hit": false,
      "t": 5571.423,
      "d": 214.28549999999996,
      "v": 49
    },
    {
      "midi": 64,
      "hit": false,
      "t": 5571.423,
      "d": 428.5709999999999,
      "v": 50
    },
    {
      "midi": 81,
      "hit": false,
      "t": 5785.7085,
      "d": 214.28549999999996,
      "v": 49
    },
    {
      "midi": 83,
      "hit": false,
      "t": 5999.994,
      "d": 214.28549999999996,
      "v": 49
    },
    {
      "midi": 57,
      "hit": false,
      "t": 5999.994,
      "d": 428.5709999999999,
      "v": 52
    },
    {
      "midi": 81,
      "hit": false,
      "t": 6214.2795,
      "d": 214.28549999999996,
      "v": 49
    },
    {
      "midi": 80,
      "hit": false,
      "t": 6428.565,
      "d": 214.28549999999996,
      "v": 49
    },
    {
      "midi": 64,
      "hit": false,
      "t": 6428.565,
      "d": 428.5709999999999,
      "v": 50
    },
    {
      "midi": 81,
      "hit": false,
      "t": 6642.8505,
      "d": 214.28549999999996,
      "v": 49
    },
    {
      "midi": 84,
      "hit": false,
      "t": 6857.1359999999995,
      "d": 857.1419999999998,
      "v": 44
    },
    {
      "midi": 57,
      "hit": false,
      "t": 6857.1359999999995,
      "d": 428.5709999999999,
      "v": 54
    },
    {
      "midi": 64,
      "hit": false,
      "t": 7285.706999999999,
      "d": 428.5709999999999,
      "v": 50
    },
    {
      "midi": 81,
      "hit": false,
      "t": 7714.277999999999,
      "d": 428.5709999999999,
      "v": 52
    },
    {
      "midi": 64,
      "hit": false,
      "t": 7714.277999999999,
      "d": 428.5709999999999,
      "v": 52
    },
    {
      "midi": 84,
      "hit": false,
      "t": 8142.848999999999,
      "d": 428.5710000000008,
      "v": 50
    },
    {
      "midi": 64,
      "hit": false,
      "t": 8142.848999999999,
      "d": 428.5710000000008,
      "v": 50
    },
    {
      "midi": 83,
      "hit": false,
      "t": 8571.42,
      "d": 428.5709999999999,
      "v": 54
    },
    {
      "midi": 52,
      "hit": false,
      "t": 8571.42,
      "d": 428.5709999999999,
      "v": 54
    },
    {
      "midi": 81,
      "hit": false,
      "t": 8999.991,
      "d": 428.5709999999999,
      "v": 50
    },
    {
      "midi": 59,
      "hit": false,
      "t": 8999.991,
      "d": 428.5709999999999,
      "v": 50
    },
    {
      "midi": 79,
      "hit": false,
      "t": 9428.562,
      "d": 428.5709999999999,
      "v": 52
    },
    {
      "midi": 59,
      "hit": false,
      "t": 9428.562,
      "d": 428.5709999999999,
      "v": 52
    },
    {
      "midi": 81,
      "hit": false,
      "t": 9857.133,
      "d": 428.5709999999999,
      "v": 50
    },
    {
      "midi": 59,
      "hit": false,
      "t": 9857.133,
      "d": 428.5709999999999,
      "v": 50
    },
    {
      "midi": 83,
      "hit": false,
      "t": 10285.704,
      "d": 428.5709999999999,
      "v": 54
    },
    {
      "midi": 52,
      "hit": false,
      "t": 10285.704,
      "d": 428.5709999999999,
      "v": 54
    },
    {
      "midi": 81,
      "hit": false,
      "t": 10714.275,
      "d": 428.5709999999999,
      "v": 50
    },
    {
      "midi": 59,
      "hit": false,
      "t": 10714.275,
      "d": 428.5709999999999,
      "v": 50
    },
    {
      "midi": 79,
      "hit": false,
      "t": 11142.846,
      "d": 428.5709999999999,
      "v": 52
    },
    {
      "midi": 59,
      "hit": false,
      "t": 11142.846,
      "d": 428.5709999999999,
      "v": 52
    },
    {
      "midi": 81,
      "hit": false,
      "t": 11571.417,
      "d": 428.5709999999999,
      "v": 50
    },
    {
      "midi": 59,
      "hit": false,
      "t": 11571.417,
      "d": 428.5709999999999,
      "v": 50
    },
    {
      "midi": 83,
      "hit": false,
      "t": 11999.988,
      "d": 428.5709999999999,
      "v": 54
    },
    {
      "midi": 52,
      "hit": false,
      "t": 11999.988,
      "d": 428.5709999999999,
      "v": 54
    },
    {
      "midi": 81,
      "hit": false,
      "t": 12428.559,
      "d": 428.5709999999999,
      "v": 50
    },
    {
      "midi": 59,
      "hit": false,
      "t": 12428.559,
      "d": 428.5709999999999,
      "v": 50
    },
    {
      "midi": 79,
      "hit": false,
      "t": 12857.13,
      "d": 428.5709999999999,
      "v": 52
    },
    {
      "midi": 47,
      "hit": false,
      "t": 12857.13,
      "d": 428.5709999999999,
      "v": 51
    },
    {
      "midi": 78,
      "hit": false,
      "t": 13285.701,
      "d": 428.5709999999999,
      "v": 50
    },
    {
      "midi": 59,
      "hit": false,
      "t": 13285.701,
      "d": 428.5709999999999,
      "v": 50
    },
    {
      "midi": 76,
      "hit": false,
      "t": 13714.271999999999,
      "d": 857.1419999999998,
      "v": 54
    },
    {
      "midi": 52,
      "hit": false,
      "t": 13714.271999999999,
      "d": 1714.2839999999997,
      "v": 54
    },
    {
      "midi": 71,
      "hit": false,
      "t": 14571.413999999999,
      "d": 214.28549999999996,
      "v": 49
    },
    {
      "midi": 69,
      "hit": false,
      "t": 14785.699499999999,
      "d": 214.28549999999996,
      "v": 49
    },
    {
      "midi": 68,
      "hit": false,
      "t": 14999.984999999999,
      "d": 214.28549999999996,
      "v": 49
    },
    {
      "midi": 69,
      "hit": false,
      "t": 15214.270499999999,
      "d": 214.28549999999996,
      "v": 49
    },
    {
      "midi": 72,
      "hit": false,
      "t": 15428.555999999999,
      "d": 857.1419999999998,
      "v": 44
    },
    {
      "midi": 57,
      "hit": false,
      "t": 15428.555999999999,
      "d": 428.5709999999999,
      "v": 54
    },
    {
      "midi": 64,
      "hit": false,
      "t": 15857.126999999999,
      "d": 428.5709999999999,
      "v": 50
    },
    {
      "midi": 74,
      "hit": false,
      "t": 16285.697999999999,
      "d": 214.28549999999996,
      "v": 49
    },
    {
      "midi": 64,
      "hit": false,
      "t": 16285.697999999999,
      "d": 428.57100000000173,
      "v": 52
    },
    {
      "midi": 72,
      "hit": false,
      "t": 16499.9835,
      "d": 214.28550000000178,
      "v": 49
    },
    {
      "midi": 71,
      "hit": false,
      "t": 16714.269,
      "d": 214.28550000000178,
      "v": 49
    },
    {
      "midi": 64,
      "hit": false,
      "t": 16714.269,
      "d": 428.5709999999999,
      "v": 50
    },
    {
      "midi": 72,
      "hit": false,
      "t": 16928.554500000002,
      "d": 214.28550000000178,
      "v": 49
    },
    {
      "midi": 57,
      "hit": false,
      "t": 17142.84,
      "d": 428.5709999999999,
      "v": 54
    },
    {
      "midi": 76,
      "hit": false,
      "t": 17142.840000000004,
      "d": 857.1419999999998,
      "v": 44
    },
    {
      "midi": 64,
      "hit": false,
      "t": 17571.411,
      "d": 428.5709999999999,
      "v": 50
    },
    {
      "midi": 64,
      "hit": false,
      "t": 17999.982,
      "d": 428.5709999999999,
      "v": 52
    },
    {
      "midi": 77,
      "hit": false,
      "t": 17999.982000000004,
      "d": 214.28550000000178,
      "v": 49
    },
    {
      "midi": 76,
      "hit": false,
      "t": 18214.267500000005,
      "d": 214.28550000000178,
      "v": 49
    },
    {
      "midi": 64,
      "hit": false,
      "t": 18428.553,
      "d": 428.5709999999999,
      "v": 50
    },
    {
      "midi": 75,
      "hit": false,
      "t": 18428.553000000007,
      "d": 214.28550000000178,
      "v": 49
    },
    {
      "midi": 76,
      "hit": false,
      "t": 18642.83850000001,
      "d": 214.28550000000178,
      "v": 44
    },
    {
      "midi": 57,
      "hit": false,
      "t": 18857.124,
      "d": 428.5709999999999,
      "v": 54
    },
    {
      "midi": 83,
      "hit": false,
      "t": 18857.12400000001,
      "d": 214.28550000000178,
      "v": 49
    },
    {
      "midi": 81,
      "hit": false,
      "t": 19071.409500000012,
      "d": 214.28550000000178,
      "v": 49
    },
    {
      "midi": 64,
      "hit": false,
      "t": 19285.695,
      "d": 428.5709999999999,
      "v": 50
    },
    {
      "midi": 80,
      "hit": false,
      "t": 19285.695000000014,
      "d": 214.28550000000178,
      "v": 49
    },
    {
      "midi": 81,
      "hit": false,
      "t": 19499.980500000016,
      "d": 214.28550000000178,
      "v": 49
    },
    {
      "midi": 57,
      "hit": false,
      "t": 19714.266,
      "d": 428.5709999999999,
      "v": 52
    },
    {
      "midi": 83,
      "hit": false,
      "t": 19714.266000000018,
      "d": 214.28550000000178,
      "v": 49
    },
    {
      "midi": 81,
      "hit": false,
      "t": 19928.55150000002,
      "d": 214.28550000000178,
      "v": 49
    },
    {
      "midi": 64,
      "hit": false,
      "t": 20142.837,
      "d": 428.5709999999999,
      "v": 50
    },
    {
      "midi": 80,
      "hit": false,
      "t": 20142.83700000002,
      "d": 214.28550000000178,
      "v": 49
    },
    {
      "midi": 81,
      "hit": false,
      "t": 20357.122500000023,
      "d": 214.28550000000178,
      "v": 49
    },
    {
      "midi": 57,
      "hit": false,
      "t": 20571.408,
      "d": 428.5709999999999,
      "v": 54
    },
    {
      "midi": 84,
      "hit": false,
      "t": 20571.408000000025,
      "d": 857.1419999999998,
      "v": 44
    },
    {
      "midi": 64,
      "hit": false,
      "t": 20999.979,
      "d": 428.5709999999999,
      "v": 50
    },
    {
      "midi": 64,
      "hit": false,
      "t": 21428.55,
      "d": 428.5709999999999,
      "v": 52
    },
    {
      "midi": 81,
      "hit": false,
      "t": 21428.550000000025,
      "d": 428.5709999999999,
      "v": 52
    },
    {
      "midi": 64,
      "hit": false,
      "t": 21857.121,
      "d": 428.5709999999999,
      "v": 50
    },
    {
      "midi": 84,
      "hit": false,
      "t": 21857.121000000025,
      "d": 428.5709999999999,
      "v": 50
    },
    {
      "midi": 52,
      "hit": false,
      "t": 22285.692,
      "d": 428.5709999999999,
      "v": 54
    },
    {
      "midi": 83,
      "hit": false,
      "t": 22285.692000000025,
      "d": 428.5709999999999,
      "v": 54
    },
    {
      "midi": 59,
      "hit": false,
      "t": 22714.263,
      "d": 428.5709999999999,
      "v": 50
    },
    {
      "midi": 81,
      "hit": false,
      "t": 22714.263000000024,
      "d": 428.5709999999999,
      "v": 50
    },
    {
      "midi": 59,
      "hit": false,
      "t": 23142.834,
      "d": 428.5709999999999,
      "v": 52
    },
    {
      "midi": 79,
      "hit": false,
      "t": 23142.834000000024,
      "d": 428.5709999999999,
      "v": 52
    },
    {
      "midi": 59,
      "hit": false,
      "t": 23571.405,
      "d": 428.5709999999999,
      "v": 50
    },
    {
      "midi": 81,
      "hit": false,
      "t": 23571.405000000024,
      "d": 428.5709999999999,
      "v": 50
    },
    {
      "midi": 52,
      "hit": false,
      "t": 23999.976,
      "d": 428.5709999999999,
      "v": 54
    },
    {
      "midi": 83,
      "hit": false,
      "t": 23999.976000000024,
      "d": 428.5709999999999,
      "v": 54
    },
    {
      "midi": 59,
      "hit": false,
      "t": 24428.547,
      "d": 428.5709999999999,
      "v": 50
    },
    {
      "midi": 81,
      "hit": false,
      "t": 24428.547000000024,
      "d": 428.5709999999999,
      "v": 50
    },
    {
      "midi": 59,
      "hit": false,
      "t": 24857.118,
      "d": 428.5709999999999,
      "v": 52
    },
    {
      "midi": 79,
      "hit": false,
      "t": 24857.118000000024,
      "d": 428.5709999999999,
      "v": 52
    },
    {
      "midi": 59,
      "hit": false,
      "t": 25285.689,
      "d": 428.5709999999999,
      "v": 50
    },
    {
      "midi": 81,
      "hit": false,
      "t": 25285.689000000024,
      "d": 428.5709999999999,
      "v": 50
    },
    {
      "midi": 52,
      "hit": false,
      "t": 25714.26,
      "d": 428.5709999999999,
      "v": 54
    },
    {
      "midi": 83,
      "hit": false,
      "t": 25714.260000000024,
      "d": 428.5709999999999,
      "v": 54
    },
    {
      "midi": 59,
      "hit": false,
      "t": 26142.831,
      "d": 428.5709999999999,
      "v": 50
    },
    {
      "midi": 81,
      "hit": false,
      "t": 26142.831000000024,
      "d": 428.5709999999999,
      "v": 50
    },
    {
      "midi": 47,
      "hit": false,
      "t": 26571.402,
      "d": 428.5709999999999,
      "v": 51
    },
    {
      "midi": 79,
      "hit": false,
      "t": 26571.402000000024,
      "d": 428.5709999999999,
      "v": 52
    },
    {
      "midi": 59,
      "hit": false,
      "t": 26999.972999999998,
      "d": 428.5709999999999,
      "v": 50
    },
    {
      "midi": 78,
      "hit": false,
      "t": 26999.973000000024,
      "d": 428.5709999999999,
      "v": 50
    },
    {
      "midi": 52,
      "hit": false,
      "t": 27428.543999999998,
      "d": 1714.2839999999997,
      "v": 54
    },
    {
      "midi": 76,
      "hit": false,
      "t": 27428.544000000024,
      "d": 857.1419999999998,
      "v": 54
    },
    {
      "midi": 76,
      "hit": false,
      "t": 28285.686000000023,
      "d": 428.5709999999999,
      "v": 91
    },
    {
      "midi": 77,
      "hit": false,
      "t": 28714.257000000023,
      "d": 428.5709999999999,
      "v": 89
    },
    {
      "midi": 48,
      "hit": false,
      "t": 29142.827999999998,
      "d": 428.5709999999999,
      "v": 92
    },
    {
      "midi": 79,
      "hit": false,
      "t": 29142.828000000023,
      "d": 428.5709999999999,
      "v": 93
    },
    {
      "midi": 48,
      "hit": false,
      "t": 29571.398999999998,
      "d": 428.5709999999999,
      "v": 88
    },
    {
      "midi": 79,
      "hit": false,
      "t": 29571.399000000023,
      "d": 428.5709999999999,
      "v": 89
    },
    {
      "midi": 52,
      "hit": false,
      "t": 29999.969999999998,
      "d": 428.5709999999999,
      "v": 91
    },
    {
      "midi": 81,
      "hit": false,
      "t": 29999.970000000023,
      "d": 214.28550000000178,
      "v": 88
    },
    {
      "midi": 79,
      "hit": false,
      "t": 30214.255500000025,
      "d": 214.28550000000178,
      "v": 88
    },
    {
      "midi": 52,
      "hit": false,
      "t": 30428.540999999997,
      "d": 428.5709999999999,
      "v": 89
    },
    {
      "midi": 77,
      "hit": false,
      "t": 30428.541000000027,
      "d": 214.28550000000178,
      "v": 88
    },
    {
      "midi": 76,
      "hit": false,
      "t": 30642.82650000003,
      "d": 214.28550000000178,
      "v": 88
    },
    {
      "midi": 55,
      "hit": false,
      "t": 30857.111999999997,
      "d": 1714.2839999999997,
      "v": 93
    },
    {
      "midi": 74,
      "hit": false,
      "t": 30857.11200000003,
      "d": 857.1419999999998,
      "v": 83
    },
    {
      "midi": 76,
      "hit": false,
      "t": 31714.25400000003,
      "d": 428.5709999999999,
      "v": 52
    },
    {
      "midi": 77,
      "hit": false,
      "t": 32142.82500000003,
      "d": 428.5709999999999,
      "v": 50
    },
    {
      "midi": 48,
      "hit": false,
      "t": 32571.395999999997,
      "d": 428.5709999999999,
      "v": 53
    },
    {
      "midi": 79,
      "hit": false,
      "t": 32571.39600000003,
      "d": 428.57100000000355,
      "v": 54
    },
    {
      "midi": 48,
      "hit": false,
      "t": 32999.967,
      "d": 428.57100000000355,
      "v": 49
    },
    {
      "midi": 79,
      "hit": false,
      "t": 32999.96700000003,
      "d": 428.57100000000355,
      "v": 50
    },
    {
      "midi": 52,
      "hit": false,
      "t": 33428.538,
      "d": 428.57100000000355,
      "v": 52
    },
    {
      "midi": 81,
      "hit": false,
      "t": 33428.53800000004,
      "d": 214.28549999999814,
      "v": 49
    },
    {
      "midi": 79,
      "hit": false,
      "t": 33642.823500000035,
      "d": 214.28549999999814,
      "v": 49
    },
    {
      "midi": 52,
      "hit": false,
      "t": 33857.109000000004,
      "d": 428.57100000000355,
      "v": 50
    },
    {
      "midi": 77,
      "hit": false,
      "t": 33857.10900000003,
      "d": 214.28549999999814,
      "v": 49
    },
    {
      "midi": 76,
      "hit": false,
      "t": 34071.39450000003,
      "d": 214.28549999999814,
      "v": 49
    },
    {
      "midi": 55,
      "hit": false,
      "t": 34285.68000000001,
      "d": 1714.2839999999997,
      "v": 54
    },
    {
      "midi": 74,
      "hit": false,
      "t": 34285.68000000003,
      "d": 857.1419999999998,
      "v": 44
    },
    {
      "midi": 72,
      "hit": false,
      "t": 35142.82200000003,
      "d": 428.57100000000355,
      "v": 91
    },
    {
      "midi": 74,
      "hit": false,
      "t": 35571.39300000003,
      "d": 428.57100000000355,
      "v": 89
    },
    {
      "midi": 45,
      "hit": false,
      "t": 35999.96400000001,
      "d": 428.57100000000355,
      "v": 92
    },
    {
      "midi": 76,
      "hit": false,
      "t": 35999.964000000036,
      "d": 428.57100000000355,
      "v": 93
    },
    {
      "midi": 45,
      "hit": false,
      "t": 36428.53500000001,
      "d": 428.57100000000355,
      "v": 88
    },
    {
      "midi": 76,
      "hit": false,
      "t": 36428.53500000004,
      "d": 428.57100000000355,
      "v": 89
    },
    {
      "midi": 48,
      "hit": false,
      "t": 36857.106000000014,
      "d": 428.57100000000355,
      "v": 90
    },
    {
      "midi": 77,
      "hit": false,
      "t": 36857.10600000004,
      "d": 214.28549999999814,
      "v": 88
    },
    {
      "midi": 76,
      "hit": false,
      "t": 37071.39150000004,
      "d": 214.28549999999814,
      "v": 88
    },
    {
      "midi": 48,
      "hit": false,
      "t": 37285.67700000002,
      "d": 428.57100000000355,
      "v": 88
    },
    {
      "midi": 74,
      "hit": false,
      "t": 37285.67700000004,
      "d": 214.28549999999814,
      "v": 88
    },
    {
      "midi": 72,
      "hit": false,
      "t": 37499.96250000004,
      "d": 214.28549999999814,
      "v": 88
    },
    {
      "midi": 52,
      "hit": false,
      "t": 37714.24800000002,
      "d": 1714.2839999999997,
      "v": 93
    },
    {
      "midi": 71,
      "hit": false,
      "t": 37714.248000000036,
      "d": 857.1419999999998,
      "v": 83
    },
    {
      "midi": 72,
      "hit": false,
      "t": 38571.390000000036,
      "d": 428.57100000000355,
      "v": 91
    },
    {
      "midi": 74,
      "hit": false,
      "t": 38999.96100000004,
      "d": 428.57100000000355,
      "v": 50
    },
    {
      "midi": 45,
      "hit": false,
      "t": 39428.53200000002,
      "d": 428.57100000000355,
      "v": 53
    },
    {
      "midi": 76,
      "hit": false,
      "t": 39428.53200000004,
      "d": 428.57100000000355,
      "v": 54
    },
    {
      "midi": 45,
      "hit": false,
      "t": 39857.103000000025,
      "d": 428.57100000000355,
      "v": 49
    },
    {
      "midi": 76,
      "hit": false,
      "t": 39857.10300000005,
      "d": 428.57100000000355,
      "v": 50
    },
    {
      "midi": 48,
      "hit": false,
      "t": 40285.67400000003,
      "d": 428.57100000000355,
      "v": 51
    },
    {
      "midi": 77,
      "hit": false,
      "t": 40285.67400000005,
      "d": 214.28549999999814,
      "v": 49
    },
    {
      "midi": 76,
      "hit": false,
      "t": 40499.95950000005,
      "d": 214.28549999999814,
      "v": 49
    },
    {
      "midi": 48,
      "hit": false,
      "t": 40714.24500000003,
      "d": 428.57100000000355,
      "v": 49
    },
    {
      "midi": 74,
      "hit": false,
      "t": 40714.245000000046,
      "d": 214.28549999999814,
      "v": 49
    },
    {
      "midi": 72,
      "hit": false,
      "t": 40928.530500000044,
      "d": 214.28549999999814,
      "v": 49
    },
    {
      "midi": 52,
      "hit": false,
      "t": 41142.816000000035,
      "d": 1714.2839999999997,
      "v": 54
    },
    {
      "midi": 71,
      "hit": false,
      "t": 41142.81600000004,
      "d": 857.1419999999998,
      "v": 44
    },
    {
      "midi": 71,
      "hit": false,
      "t": 41999.95800000004,
      "d": 214.28549999999814,
      "v": 49
    },
    {
      "midi": 69,
      "hit": false,
      "t": 42214.24350000004,
      "d": 214.28549999999814,
      "v": 49
    },
    {
      "midi": 68,
      "hit": false,
      "t": 42428.52900000004,
      "d": 214.28549999999814,
      "v": 49
    },
    {
      "midi": 69,
      "hit": false,
      "t": 42642.81450000004,
      "d": 214.28549999999814,
      "v": 49
    },
    {
      "midi": 72,
      "hit": false,
      "t": 42857.100000000035,
      "d": 857.1419999999998,
      "v": 44
    },
    {
      "midi": 57,
      "hit": false,
      "t": 42857.100000000035,
      "d": 428.57100000000355,
      "v": 54
    },
    {
      "midi": 64,
      "hit": false,
      "t": 43285.67100000004,
      "d": 428.57100000000355,
      "v": 50
    },
    {
      "midi": 74,
      "hit": false,
      "t": 43714.242000000035,
      "d": 214.28549999999814,
      "v": 49
    },
    {
      "midi": 64,
      "hit": false,
      "t": 43714.24200000004,
      "d": 428.57100000000355,
      "v": 52
    },
    {
      "midi": 72,
      "hit": false,
      "t": 43928.52750000003,
      "d": 214.28549999999814,
      "v": 49
    },
    {
      "midi": 71,
      "hit": false,
      "t": 44142.81300000003,
      "d": 214.28549999999814,
      "v": 49
    },
    {
      "midi": 64,
      "hit": false,
      "t": 44142.813000000046,
      "d": 428.57100000000355,
      "v": 50
    },
    {
      "midi": 72,
      "hit": false,
      "t": 44357.09850000003,
      "d": 214.28549999999814,
      "v": 49
    },
    {
      "midi": 76,
      "hit": false,
      "t": 44571.38400000003,
      "d": 857.1419999999998,
      "v": 44
    },
    {
      "midi": 57,
      "hit": false,
      "t": 44571.38400000005,
      "d": 428.57100000000355,
      "v": 54
    },
    {
      "midi": 64,
      "hit": false,
      "t": 44999.95500000005,
      "d": 428.57100000000355,
      "v": 50
    },
    {
      "midi": 77,
      "hit": false,
      "t": 45428.52600000003,
      "d": 214.28549999999814,
      "v": 49
    },
    {
      "midi": 64,
      "hit": false,
      "t": 45428.526000000056,
      "d": 428.57100000000355,
      "v": 49
    },
    {
      "midi": 76,
      "hit": false,
      "t": 45642.811500000025,
      "d": 214.28549999999814,
      "v": 52
    },
    {
      "midi": 75,
      "hit": false,
      "t": 45857.09700000002,
      "d": 214.28549999999814,
      "v": 55
    },
    {
      "midi": 64,
      "hit": false,
      "t": 45857.09700000006,
      "d": 428.57100000000355,
      "v": 55
    },
    {
      "midi": 76,
      "hit": false,
      "t": 46071.38250000002,
      "d": 214.28549999999814,
      "v": 53
    },
    {
      "midi": 83,
      "hit": false,
      "t": 46285.66800000002,
      "d": 214.28549999999814,
      "v": 62
    },
    {
      "midi": 57,
      "hit": false,
      "t": 46285.66800000006,
      "d": 428.57100000000355,
      "v": 62
    },
    {
      "midi": 81,
      "hit": false,
      "t": 46499.95350000002,
      "d": 214.28549999999814,
      "v": 65
    },
    {
      "midi": 80,
      "hit": false,
      "t": 46714.239000000016,
      "d": 214.28549999999814,
      "v": 68
    },
    {
      "midi": 64,
      "hit": false,
      "t": 46714.23900000007,
      "d": 428.57100000000355,
      "v": 68
    },
    {
      "midi": 81,
      "hit": false,
      "t": 46928.524500000014,
      "d": 214.28549999999814,
      "v": 71
    },
    {
      "midi": 83,
      "hit": false,
      "t": 47142.81000000001,
      "d": 214.28549999999814,
      "v": 75
    },
    {
      "midi": 57,
      "hit": false,
      "t": 47142.81000000007,
      "d": 428.57100000000355,
      "v": 75
    },
    {
      "midi": 81,
      "hit": false,
      "t": 47357.09550000001,
      "d": 214.28549999999814,
      "v": 78
    },
    {
      "midi": 80,
      "hit": false,
      "t": 47571.38100000001,
      "d": 214.28549999999814,
      "v": 81
    },
    {
      "midi": 64,
      "hit": false,
      "t": 47571.381000000074,
      "d": 428.57100000000355,
      "v": 81
    },
    {
      "midi": 81,
      "hit": false,
      "t": 47785.66650000001,
      "d": 214.28549999999814,
      "v": 84
    },
    {
      "midi": 84,
      "hit": false,
      "t": 47999.952000000005,
      "d": 857.1419999999998,
      "v": 83
    },
    {
      "midi": 57,
      "hit": false,
      "t": 47999.95200000008,
      "d": 428.57100000000355,
      "v": 93
    },
    {
      "midi": 63,
      "hit": false,
      "t": 48428.52300000008,
      "d": 428.57100000000355,
      "v": 89
    },
    {
      "midi": 81,
      "hit": false,
      "t": 48857.094000000005,
      "d": 428.57100000000355,
      "v": 91
    },
    {
      "midi": 63,
      "hit": false,
      "t": 48857.094000000085,
      "d": 428.57100000000355,
      "v": 91
    },
    {
      "midi": 83,
      "hit": false,
      "t": 49285.66500000001,
      "d": 428.57100000000355,
      "v": 89
    },
    {
      "midi": 63,
      "hit": false,
      "t": 49285.66500000009,
      "d": 428.57100000000355,
      "v": 89
    },
    {
      "midi": 84,
      "hit": false,
      "t": 49714.23600000001,
      "d": 428.57100000000355,
      "v": 93
    },
    {
      "midi": 52,
      "hit": false,
      "t": 49714.23600000009,
      "d": 428.57100000000355,
      "v": 93
    },
    {
      "midi": 83,
      "hit": false,
      "t": 50142.807000000015,
      "d": 428.57100000000355,
      "v": 89
    },
    {
      "midi": 52,
      "hit": false,
      "t": 50142.807000000095,
      "d": 428.57100000000355,
      "v": 89
    },
    {
      "midi": 81,
      "hit": false,
      "t": 50571.37800000002,
      "d": 428.57100000000355,
      "v": 91
    },
    {
      "midi": 50,
      "hit": false,
      "t": 50571.3780000001,
      "d": 428.57100000000355,
      "v": 91
    },
    {
      "midi": 80,
      "hit": false,
      "t": 50999.94900000002,
      "d": 428.57100000000355,
      "v": 89
    },
    {
      "midi": 50,
      "hit": false,
      "t": 50999.9490000001,
      "d": 428.57100000000355,
      "v": 89
    },
    {
      "midi": 81,
      "hit": false,
      "t": 51428.520000000026,
      "d": 428.57100000000355,
      "v": 93
    },
    {
      "midi": 48,
      "hit": false,
      "t": 51428.520000000106,
      "d": 428.57100000000355,
      "v": 92
    },
    {
      "midi": 76,
      "hit": false,
      "t": 51857.09100000003,
      "d": 428.57100000000355,
      "v": 89
    },
    {
      "midi": 48,
      "hit": false,
      "t": 51857.09100000011,
      "d": 428.57100000000355,
      "v": 88
    },
    {
      "midi": 77,
      "hit": false,
      "t": 52285.66200000003,
      "d": 428.57100000000355,
      "v": 91
    },
    {
      "midi": 50,
      "hit": false,
      "t": 52285.66200000011,
      "d": 428.57100000000355,
      "v": 91
    },
    {
      "midi": 74,
      "hit": false,
      "t": 52714.23300000004,
      "d": 428.57100000000355,
      "v": 89
    },
    {
      "midi": 50,
      "hit": false,
      "t": 52714.23300000012,
      "d": 428.57100000000355,
      "v": 89
    },
    {
      "midi": 72,
      "hit": false,
      "t": 53142.80400000004,
      "d": 857.1419999999998,
      "v": 93
    },
    {
      "midi": 52,
      "hit": false,
      "t": 53142.80400000012,
      "d": 428.57100000000355,
      "v": 85
    },
    {
      "midi": 57,
      "hit": false,
      "t": 53142.80400000012,
      "d": 428.57100000000355,
      "v": 95
    },
    {
      "midi": 52,
      "hit": false,
      "t": 53571.375000000124,
      "d": 428.57100000000355,
      "v": 81
    },
    {
      "midi": 57,
      "hit": false,
      "t": 53571.375000000124,
      "d": 428.57100000000355,
      "v": 95
    },
    {
      "midi": 71,
      "hit": false,
      "t": 53999.94600000004,
      "d": 428.57100000000355,
      "v": 91
    },
    {
      "midi": 52,
      "hit": false,
      "t": 53999.94600000013,
      "d": 857.1419999999998,
      "v": 83
    },
    {
      "midi": 56,
      "hit": false,
      "t": 53999.94600000013,
      "d": 857.1419999999998,
      "v": 97
    },
    {
      "midi": 69,
      "hit": false,
      "t": 54428.51700000004,
      "d": 214.28549999999814,
      "v": 88
    },
    {
      "midi": 71,
      "hit": false,
      "t": 54642.80250000004,
      "d": 214.28549999999814,
      "v": 88
    },
    {
      "midi": 69,
      "hit": false,
      "t": 54857.08800000004,
      "d": 857.1419999999998,
      "v": 83
    },
    {
      "midi": 45,
      "hit": false,
      "t": 54857.08800000013,
      "d": 1285.7130000000034,
      "v": 92
    },
    {
      "midi": 69,
      "hit": false,
      "t": 55714.23000000004,
      "d": 428.57100000000355,
      "v": 91
    },
    {
      "midi": 71,
      "hit": false,
      "t": 56142.80100000004,
      "d": 428.57100000000355,
      "v": 89
    },
    {
      "midi": 45,
      "hit": false,
      "t": 56357.08650000013,
      "d": 107.14274999999907,
      "v": 92
    },
    {
      "midi": 56,
      "hit": false,
      "t": 56464.22925000013,
      "d": 107.14274999999907,
      "v": 88
    },
    {
      "midi": 73,
      "hit": false,
      "t": 56571.37200000005,
      "d": 857.1419999999998,
      "v": 93
    },
    {
      "midi": 57,
      "hit": false,
      "t": 56571.37200000013,
      "d": 428.57100000000355,
      "v": 93
    },
    {
      "midi": 57,
      "hit": false,
      "t": 56999.94300000013,
      "d": 428.57100000000355,
      "v": 89
    },
    {
      "midi": 69,
      "hit": false,
      "t": 57428.51400000005,
      "d": 428.57100000000355,
      "v": 91
    },
    {
      "midi": 57,
      "hit": false,
      "t": 57428.514000000134,
      "d": 428.57100000000355,
      "v": 91
    },
    {
      "midi": 71,
      "hit": false,
      "t": 57857.08500000005,
      "d": 428.57100000000355,
      "v": 89
    },
    {
      "midi": 57,
      "hit": false,
      "t": 57857.08500000014,
      "d": 321.4282499999972,
      "v": 89
    },
    {
      "midi": 56,
      "hit": false,
      "t": 58178.513250000135,
      "d": 107.14274999999907,
      "v": 88
    },
    {
      "midi": 73,
      "hit": false,
      "t": 58285.65600000005,
      "d": 428.57100000000355,
      "v": 93
    },
    {
      "midi": 57,
      "hit": false,
      "t": 58285.656000000134,
      "d": 428.57100000000355,
      "v": 93
    },
    {
      "midi": 71,
      "hit": false,
      "t": 58714.22700000006,
      "d": 428.57100000000355,
      "v": 89
    },
    {
      "midi": 57,
      "hit": false,
      "t": 58714.22700000014,
      "d": 428.57100000000355,
      "v": 89
    },
    {
      "midi": 69,
      "hit": false,
      "t": 59142.79800000006,
      "d": 428.57100000000355,
      "v": 91
    },
    {
      "midi": 57,
      "hit": false,
      "t": 59142.79800000014,
      "d": 428.57100000000355,
      "v": 91
    },
    {
      "midi": 68,
      "hit": false,
      "t": 59571.369000000064,
      "d": 428.57100000000355,
      "v": 89
    },
    {
      "midi": 57,
      "hit": false,
      "t": 59571.369000000144,
      "d": 428.57100000000355,
      "v": 89
    },
    {
      "midi": 66,
      "hit": false,
      "t": 59999.94000000007,
      "d": 428.57100000000355,
      "v": 93
    },
    {
      "midi": 50,
      "hit": false,
      "t": 59999.94000000015,
      "d": 428.57100000000355,
      "v": 93
    },
    {
      "midi": 68,
      "hit": false,
      "t": 60428.51100000007,
      "d": 428.57100000000355,
      "v": 89
    },
    {
      "midi": 50,
      "hit": false,
      "t": 60428.51100000015,
      "d": 428.57100000000355,
      "v": 89
    },
    {
      "midi": 69,
      "hit": false,
      "t": 60857.082000000075,
      "d": 428.57100000000355,
      "v": 91
    },
    {
      "midi": 51,
      "hit": false,
      "t": 60857.082000000155,
      "d": 428.57100000000355,
      "v": 91
    },
    {
      "midi": 71,
      "hit": false,
      "t": 61285.65300000008,
      "d": 428.57100000000355,
      "v": 89
    },
    {
      "midi": 51,
      "hit": false,
      "t": 61285.65300000016,
      "d": 428.57100000000355,
      "v": 89
    },
    {
      "midi": 68,
      "hit": false,
      "t": 61714.22400000008,
      "d": 428.57100000000355,
      "v": 93
    },
    {
      "midi": 52,
      "hit": false,
      "t": 61714.22400000016,
      "d": 428.57100000000355,
      "v": 93
    },
    {
      "midi": 64,
      "hit": false,
      "t": 62142.795000000086,
      "d": 428.57100000000355,
      "v": 89
    },
    {
      "midi": 52,
      "hit": false,
      "t": 62142.795000000166,
      "d": 428.57100000000355,
      "v": 89
    },
    {
      "midi": 69,
      "hit": false,
      "t": 62571.36600000009,
      "d": 428.57100000000355,
      "v": 91
    },
    {
      "midi": 52,
      "hit": false,
      "t": 62571.36600000017,
      "d": 428.57100000000355,
      "v": 91
    },
    {
      "midi": 71,
      "hit": false,
      "t": 62999.93700000009,
      "d": 428.57100000000355,
      "v": 89
    },
    {
      "midi": 52,
      "hit": false,
      "t": 62999.93700000017,
      "d": 321.4282499999972,
      "v": 89
    },
    {
      "midi": 56,
      "hit": false,
      "t": 63321.36525000017,
      "d": 107.14274999999907,
      "v": 88
    },
    {
      "midi": 73,
      "hit": false,
      "t": 63428.508000000096,
      "d": 857.1419999999998,
      "v": 93
    },
    {
      "midi": 57,
      "hit": false,
      "t": 63428.50800000017,
      "d": 428.57100000000355,
      "v": 93
    },
    {
      "midi": 57,
      "hit": false,
      "t": 63857.07900000017,
      "d": 428.57100000000355,
      "v": 89
    },
    {
      "midi": 69,
      "hit": false,
      "t": 64285.650000000096,
      "d": 428.57100000000355,
      "v": 91
    },
    {
      "midi": 57,
      "hit": false,
      "t": 64285.650000000176,
      "d": 428.57100000000355,
      "v": 91
    },
    {
      "midi": 71,
      "hit": false,
      "t": 64714.2210000001,
      "d": 428.57100000000355,
      "v": 89
    },
    {
      "midi": 57,
      "hit": false,
      "t": 64714.22100000018,
      "d": 321.4282499999972,
      "v": 89
    },
    {
      "midi": 56,
      "hit": false,
      "t": 65035.64925000018,
      "d": 107.14274999999907,
      "v": 88
    },
    {
      "midi": 73,
      "hit": false,
      "t": 65142.7920000001,
      "d": 428.5709999999963,
      "v": 93
    },
    {
      "midi": 57,
      "hit": false,
      "t": 65142.792000000176,
      "d": 428.5709999999963,
      "v": 93
    },
    {
      "midi": 71,
      "hit": false,
      "t": 65571.3630000001,
      "d": 428.5709999999963,
      "v": 89
    },
    {
      "midi": 57,
      "hit": false,
      "t": 65571.36300000017,
      "d": 428.5709999999963,
      "v": 89
    },
    {
      "midi": 69,
      "hit": false,
      "t": 65999.9340000001,
      "d": 428.5709999999963,
      "v": 91
    },
    {
      "midi": 57,
      "hit": false,
      "t": 65999.93400000017,
      "d": 428.5709999999963,
      "v": 91
    },
    {
      "midi": 68,
      "hit": false,
      "t": 66428.50500000009,
      "d": 428.5709999999963,
      "v": 89
    },
    {
      "midi": 57,
      "hit": false,
      "t": 66428.50500000016,
      "d": 428.5709999999963,
      "v": 89
    },
    {
      "midi": 66,
      "hit": false,
      "t": 66857.07600000009,
      "d": 428.5709999999963,
      "v": 93
    },
    {
      "midi": 50,
      "hit": false,
      "t": 66857.07600000016,
      "d": 428.5709999999963,
      "v": 93
    },
    {
      "midi": 71,
      "hit": false,
      "t": 67285.64700000008,
      "d": 428.5709999999963,
      "v": 89
    },
    {
      "midi": 50,
      "hit": false,
      "t": 67285.64700000016,
      "d": 428.5709999999963,
      "v": 89
    },
    {
      "midi": 68,
      "hit": false,
      "t": 67714.21800000008,
      "d": 857.1420000000071,
      "v": 91
    },
    {
      "midi": 52,
      "hit": false,
      "t": 67714.21800000015,
      "d": 428.5709999999963,
      "v": 91
    },
    {
      "midi": 52,
      "hit": false,
      "t": 68142.78900000015,
      "d": 428.5709999999963,
      "v": 89
    },
    {
      "midi": 64,
      "hit": false,
      "t": 68142.78900000015,
      "d": 428.5709999999963,
      "v": 89
    },
    {
      "midi": 69,
      "hit": false,
      "t": 68571.36000000009,
      "d": 857.1420000000071,
      "v": 93
    },
    {
      "midi": 45,
      "hit": false,
      "t": 68571.36000000015,
      "d": 1714.2839999999997,
      "v": 92
    },
    {
      "midi": 85,
      "hit": false,
      "t": 69428.5020000001,
      "d": 214.28549999999814,
      "v": 49
    },
    {
      "midi": 86,
      "hit": false,
      "t": 69642.7875000001,
      "d": 214.28549999999814,
      "v": 49
    },
    {
      "midi": 85,
      "hit": false,
      "t": 69857.07300000009,
      "d": 214.28549999999814,
      "v": 49
    },
    {
      "midi": 83,
      "hit": false,
      "t": 70071.35850000009,
      "d": 214.28549999999814,
      "v": 49
    },
    {
      "midi": 81,
      "hit": false,
      "t": 70285.64400000009,
      "d": 428.5709999999963,
      "v": 44
    },
    {
      "midi": 54,
      "hit": false,
      "t": 70285.64400000015,
      "d": 428.5709999999963,
      "v": 54
    },
    {
      "midi": 80,
      "hit": false,
      "t": 70714.21500000008,
      "d": 428.5709999999963,
      "v": 50
    },
    {
      "midi": 61,
      "hit": false,
      "t": 70714.21500000014,
      "d": 428.5709999999963,
      "v": 50
    },
    {
      "midi": 78,
      "hit": false,
      "t": 71142.78600000008,
      "d": 214.28549999999814,
      "v": 49
    },
    {
      "midi": 61,
      "hit": false,
      "t": 71142.78600000014,
      "d": 428.5709999999963,
      "v": 52
    },
    {
      "midi": 81,
      "hit": false,
      "t": 71357.07150000008,
      "d": 214.28549999999814,
      "v": 49
    },
    {
      "midi": 80,
      "hit": false,
      "t": 71571.35700000008,
      "d": 214.28549999999814,
      "v": 49
    },
    {
      "midi": 61,
      "hit": false,
      "t": 71571.35700000013,
      "d": 428.5709999999963,
      "v": 50
    },
    {
      "midi": 78,
      "hit": false,
      "t": 71785.64250000007,
      "d": 214.28549999999814,
      "v": 49
    },
    {
      "midi": 77,
      "hit": false,
      "t": 71999.92800000007,
      "d": 428.5709999999963,
      "v": 44
    },
    {
      "midi": 56,
      "hit": false,
      "t": 71999.92800000013,
      "d": 428.5709999999963,
      "v": 54
    },
    {
      "midi": 80,
      "hit": false,
      "t": 72428.49900000007,
      "d": 428.5709999999963,
      "v": 50
    },
    {
      "midi": 61,
      "hit": false,
      "t": 72428.49900000013,
      "d": 428.5709999999963,
      "v": 50
    },
    {
      "midi": 73,
      "hit": false,
      "t": 72857.07000000007,
      "d": 214.28549999999814,
      "v": 49
    },
    {
      "midi": 61,
      "hit": false,
      "t": 72857.07000000012,
      "d": 428.5709999999963,
      "v": 52
    },
    {
      "midi": 75,
      "hit": false,
      "t": 73071.35550000006,
      "d": 214.28549999999814,
      "v": 49
    },
    {
      "midi": 77,
      "hit": false,
      "t": 73285.64100000006,
      "d": 214.28549999999814,
      "v": 49
    },
    {
      "midi": 61,
      "hit": false,
      "t": 73285.64100000012,
      "d": 428.5709999999963,
      "v": 50
    },
    {
      "midi": 73,
      "hit": false,
      "t": 73499.92650000006,
      "d": 214.28549999999814,
      "v": 49
    },
    {
      "midi": 78,
      "hit": false,
      "t": 73714.21200000006,
      "d": 428.5709999999963,
      "v": 44
    },
    {
      "midi": 54,
      "hit": false,
      "t": 73714.21200000012,
      "d": 428.5709999999963,
      "v": 54
    },
    {
      "midi": 80,
      "hit": false,
      "t": 74142.78300000005,
      "d": 428.5709999999963,
      "v": 50
    },
    {
      "midi": 61,
      "hit": false,
      "t": 74142.78300000011,
      "d": 428.5709999999963,
      "v": 50
    },
    {
      "midi": 81,
      "hit": false,
      "t": 74571.35400000005,
      "d": 214.28549999999814,
      "v": 49
    },
    {
      "midi": 61,
      "hit": false,
      "t": 74571.35400000011,
      "d": 428.5709999999963,
      "v": 52
    },
    {
      "midi": 80,
      "hit": false,
      "t": 74785.63950000005,
      "d": 214.28549999999814,
      "v": 49
    },
    {
      "midi": 81,
      "hit": false,
      "t": 74999.92500000005,
      "d": 214.28549999999814,
      "v": 49
    },
    {
      "midi": 61,
      "hit": false,
      "t": 74999.9250000001,
      "d": 428.5709999999963,
      "v": 50
    },
    {
      "midi": 83,
      "hit": false,
      "t": 75214.21050000004,
      "d": 214.28549999999814,
      "v": 49
    },
    {
      "midi": 85,
      "hit": false,
      "t": 75428.49600000004,
      "d": 428.5709999999963,
      "v": 44
    },
    {
      "midi": 53,
      "hit": false,
      "t": 75428.4960000001,
      "d": 428.5709999999963,
      "v": 54
    },
    {
      "midi": 84,
      "hit": false,
      "t": 75857.06700000004,
      "d": 428.5709999999963,
      "v": 50
    },
    {
      "midi": 61,
      "hit": false,
      "t": 75857.0670000001,
      "d": 428.5709999999963,
      "v": 50
    },
    {
      "midi": 85,
      "hit": false,
      "t": 76285.63800000004,
      "d": 214.28549999999814,
      "v": 49
    },
    {
      "midi": 61,
      "hit": false,
      "t": 76285.6380000001,
      "d": 428.5709999999963,
      "v": 52
    },
    {
      "midi": 86,
      "hit": false,
      "t": 76499.92350000003,
      "d": 214.28549999999814,
      "v": 49
    },
    {
      "midi": 85,
      "hit": false,
      "t": 76714.20900000003,
      "d": 214.28549999999814,
      "v": 49
    },
    {
      "midi": 61,
      "hit": false,
      "t": 76714.20900000009,
      "d": 428.5709999999963,
      "v": 50
    },
    {
      "midi": 83,
      "hit": false,
      "t": 76928.49450000003,
      "d": 214.28549999999814,
      "v": 49
    },
    {
      "midi": 81,
      "hit": false,
      "t": 77142.78000000003,
      "d": 428.5709999999963,
      "v": 44
    },
    {
      "midi": 54,
      "hit": false,
      "t": 77142.78000000009,
      "d": 428.5709999999963,
      "v": 54
    },
    {
      "midi": 80,
      "hit": false,
      "t": 77571.35100000002,
      "d": 428.5709999999963,
      "v": 50
    },
    {
      "midi": 61,
      "hit": false,
      "t": 77571.35100000008,
      "d": 428.5709999999963,
      "v": 50
    },
    {
      "midi": 78,
      "hit": false,
      "t": 77999.92200000002,
      "d": 214.28549999999814,
      "v": 49
    },
    {
      "midi": 61,
      "hit": false,
      "t": 77999.92200000008,
      "d": 428.5709999999963,
      "v": 52
    },
    {
      "midi": 81,
      "hit": false,
      "t": 78214.20750000002,
      "d": 214.28549999999814,
      "v": 49
    },
    {
      "midi": 80,
      "hit": false,
      "t": 78428.49300000002,
      "d": 214.28549999999814,
      "v": 49
    },
    {
      "midi": 61,
      "hit": false,
      "t": 78428.49300000007,
      "d": 428.5709999999963,
      "v": 50
    },
    {
      "midi": 78,
      "hit": false,
      "t": 78642.77850000001,
      "d": 214.28549999999814,
      "v": 49
    },
    {
      "midi": 76,
      "hit": false,
      "t": 78857.06400000001,
      "d": 428.5709999999963,
      "v": 44
    },
    {
      "midi": 56,
      "hit": false,
      "t": 78857.06400000007,
      "d": 428.5709999999963,
      "v": 54
    },
    {
      "midi": 80,
      "hit": false,
      "t": 79285.63500000001,
      "d": 428.5709999999963,
      "v": 50
    },
    {
      "midi": 61,
      "hit": false,
      "t": 79285.63500000007,
      "d": 428.5709999999963,
      "v": 50
    },
    {
      "midi": 73,
      "hit": false,
      "t": 79714.206,
      "d": 214.28549999999814,
      "v": 49
    },
    {
      "midi": 61,
      "hit": false,
      "t": 79714.20600000006,
      "d": 428.5709999999963,
      "v": 52
    },
    {
      "midi": 75,
      "hit": false,
      "t": 79928.4915,
      "d": 214.28549999999814,
      "v": 49
    },
    {
      "midi": 76,
      "hit": false,
      "t": 80142.777,
      "d": 214.28549999999814,
      "v": 49
    },
    {
      "midi": 61,
      "hit": false,
      "t": 80142.77700000006,
      "d": 428.5709999999963,
      "v": 50
    },
    {
      "midi": 73,
      "hit": false,
      "t": 80357.0625,
      "d": 214.28549999999814,
      "v": 49
    },
    {
      "midi": 75,
      "hit": false,
      "t": 80571.348,
      "d": 428.5709999999963,
      "v": 44
    },
    {
      "midi": 56,
      "hit": false,
      "t": 80571.34800000006,
      "d": 428.5709999999963,
      "v": 54
    },
    {
      "midi": 78,
      "hit": false,
      "t": 80999.919,
      "d": 428.5709999999963,
      "v": 50
    },
    {
      "midi": 63,
      "hit": false,
      "t": 80999.91900000005,
      "d": 428.5709999999963,
      "v": 50
    },
    {
      "midi": 72,
      "hit": false,
      "t": 81428.48999999999,
      "d": 214.28549999999814,
      "v": 49
    },
    {
      "midi": 63,
      "hit": false,
      "t": 81428.49000000005,
      "d": 428.5709999999963,
      "v": 52
    },
    {
      "midi": 73,
      "hit": false,
      "t": 81642.77549999999,
      "d": 214.28549999999814,
      "v": 49
    },
    {
      "midi": 75,
      "hit": false,
      "t": 81857.06099999999,
      "d": 214.28549999999814,
      "v": 49
    },
    {
      "midi": 63,
      "hit": false,
      "t": 81857.06100000005,
      "d": 428.5709999999963,
      "v": 50
    },
    {
      "midi": 72,
      "hit": false,
      "t": 82071.34649999999,
      "d": 214.28549999999814,
      "v": 49
    },
    {
      "midi": 73,
      "hit": false,
      "t": 82285.63199999998,
      "d": 857.1420000000071,
      "v": 44
    },
    {
      "midi": 61,
      "hit": false,
      "t": 82285.63200000004,
      "d": 1714.2839999999997,
      "v": 46
    },
    {
      "midi": 64,
      "hit": false,
      "t": 82285.63200000004,
      "d": 1714.2839999999997,
      "v": 56
    },
    {
      "midi": 85,
      "hit": false,
      "t": 83142.77399999999,
      "d": 214.28549999999814,
      "v": 49
    },
    {
      "midi": 86,
      "hit": false,
      "t": 83357.05949999999,
      "d": 214.28549999999814,
      "v": 49
    },
    {
      "midi": 85,
      "hit": false,
      "t": 83571.34499999999,
      "d": 214.28549999999814,
      "v": 49
    },
    {
      "midi": 83,
      "hit": false,
      "t": 83785.63049999998,
      "d": 214.28549999999814,
      "v": 44
    },
    {
      "midi": 81,
      "hit": false,
      "t": 83999.91599999998,
      "d": 428.5709999999963,
      "v": 44
    },
    {
      "midi": 54,
      "hit": false,
      "t": 83999.91600000004,
      "d": 428.5709999999963,
      "v": 54
    },
    {
      "midi": 80,
      "hit": false,
      "t": 84428.48699999998,
      "d": 428.5709999999963,
      "v": 50
    },
    {
      "midi": 61,
      "hit": false,
      "t": 84428.48700000004,
      "d": 428.5709999999963,
      "v": 50
    },
    {
      "midi": 78,
      "hit": false,
      "t": 84857.05799999998,
      "d": 214.28549999999814,
      "v": 49
    },
    {
      "midi": 61,
      "hit": false,
      "t": 84857.05800000003,
      "d": 428.5709999999963,
      "v": 52
    },
    {
      "midi": 81,
      "hit": false,
      "t": 85071.34349999997,
      "d": 214.28549999999814,
      "v": 49
    },
    {
      "midi": 80,
      "hit": false,
      "t": 85285.62899999997,
      "d": 214.28549999999814,
      "v": 49
    },
    {
      "midi": 61,
      "hit": false,
      "t": 85285.62900000003,
      "d": 428.5709999999963,
      "v": 50
    },
    {
      "midi": 78,
      "hit": false,
      "t": 85499.91449999997,
      "d": 214.28549999999814,
      "v": 49
    },
    {
      "midi": 77,
      "hit": false,
      "t": 85714.19999999997,
      "d": 428.5709999999963,
      "v": 44
    },
    {
      "midi": 56,
      "hit": false,
      "t": 85714.20000000003,
      "d": 428.5709999999963,
      "v": 54
    },
    {
      "midi": 80,
      "hit": false,
      "t": 86142.77099999996,
      "d": 428.5709999999963,
      "v": 50
    },
    {
      "midi": 61,
      "hit": false,
      "t": 86142.77100000002,
      "d": 428.5709999999963,
      "v": 50
    },
    {
      "midi": 73,
      "hit": false,
      "t": 86571.34199999996,
      "d": 214.28549999999814,
      "v": 49
    },
    {
      "midi": 61,
      "hit": false,
      "t": 86571.34200000002,
      "d": 428.5709999999963,
      "v": 52
    },
    {
      "midi": 75,
      "hit": false,
      "t": 86785.62749999996,
      "d": 214.28549999999814,
      "v": 49
    },
    {
      "midi": 77,
      "hit": false,
      "t": 86999.91299999996,
      "d": 214.28549999999814,
      "v": 49
    },
    {
      "midi": 61,
      "hit": false,
      "t": 86999.91300000002,
      "d": 428.5709999999963,
      "v": 50
    },
    {
      "midi": 73,
      "hit": false,
      "t": 87214.19849999995,
      "d": 214.28549999999814,
      "v": 49
    },
    {
      "midi": 78,
      "hit": false,
      "t": 87428.48399999995,
      "d": 428.5709999999963,
      "v": 44
    },
    {
      "midi": 54,
      "hit": false,
      "t": 87428.48400000001,
      "d": 428.5709999999963,
      "v": 54
    },
    {
      "midi": 80,
      "hit": false,
      "t": 87857.05499999995,
      "d": 428.5709999999963,
      "v": 50
    },
    {
      "midi": 61,
      "hit": false,
      "t": 87857.05500000001,
      "d": 428.5709999999963,
      "v": 50
    },
    {
      "midi": 81,
      "hit": false,
      "t": 88285.62599999995,
      "d": 214.28549999999814,
      "v": 49
    },
    {
      "midi": 61,
      "hit": false,
      "t": 88285.626,
      "d": 428.5709999999963,
      "v": 52
    },
    {
      "midi": 80,
      "hit": false,
      "t": 88499.91149999994,
      "d": 214.28549999999814,
      "v": 49
    },
    {
      "midi": 81,
      "hit": false,
      "t": 88714.19699999994,
      "d": 214.28549999999814,
      "v": 49
    },
    {
      "midi": 61,
      "hit": false,
      "t": 88714.197,
      "d": 428.5709999999963,
      "v": 50
    },
    {
      "midi": 83,
      "hit": false,
      "t": 88928.48249999994,
      "d": 214.28549999999814,
      "v": 49
    },
    {
      "midi": 85,
      "hit": false,
      "t": 89142.76799999994,
      "d": 428.5709999999963,
      "v": 44
    },
    {
      "midi": 53,
      "hit": false,
      "t": 89142.768,
      "d": 428.5709999999963,
      "v": 54
    },
    {
      "midi": 84,
      "hit": false,
      "t": 89571.33899999993,
      "d": 428.5709999999963,
      "v": 50
    },
    {
      "midi": 61,
      "hit": false,
      "t": 89571.33899999999,
      "d": 428.5709999999963,
      "v": 50
    },
    {
      "midi": 85,
      "hit": false,
      "t": 89999.90999999993,
      "d": 214.28549999999814,
      "v": 49
    },
    {
      "midi": 61,
      "hit": false,
      "t": 89999.90999999999,
      "d": 428.5709999999963,
      "v": 52
    },
    {
      "midi": 86,
      "hit": false,
      "t": 90214.19549999993,
      "d": 214.28549999999814,
      "v": 49
    },
    {
      "midi": 85,
      "hit": false,
      "t": 90428.48099999993,
      "d": 214.28549999999814,
      "v": 49
    },
    {
      "midi": 61,
      "hit": false,
      "t": 90428.48099999999,
      "d": 428.5709999999963,
      "v": 50
    },
    {
      "midi": 83,
      "hit": false,
      "t": 90642.76649999993,
      "d": 214.28549999999814,
      "v": 49
    },
    {
      "midi": 81,
      "hit": false,
      "t": 90857.05199999992,
      "d": 428.5709999999963,
      "v": 44
    },
    {
      "midi": 54,
      "hit": false,
      "t": 90857.05199999998,
      "d": 428.5709999999963,
      "v": 54
    },
    {
      "midi": 80,
      "hit": false,
      "t": 91285.62299999992,
      "d": 428.5709999999963,
      "v": 50
    },
    {
      "midi": 61,
      "hit": false,
      "t": 91285.62299999998,
      "d": 428.5709999999963,
      "v": 50
    },
    {
      "midi": 78,
      "hit": false,
      "t": 91714.19399999992,
      "d": 214.28549999999814,
      "v": 49
    },
    {
      "midi": 61,
      "hit": false,
      "t": 91714.19399999997,
      "d": 428.5709999999963,
      "v": 52
    },
    {
      "midi": 81,
      "hit": false,
      "t": 91928.47949999991,
      "d": 214.28549999999814,
      "v": 49
    },
    {
      "midi": 80,
      "hit": false,
      "t": 92142.76499999991,
      "d": 214.28549999999814,
      "v": 49
    },
    {
      "midi": 61,
      "hit": false,
      "t": 92142.76499999997,
      "d": 428.5709999999963,
      "v": 50
    },
    {
      "midi": 78,
      "hit": false,
      "t": 92357.05049999991,
      "d": 214.28549999999814,
      "v": 49
    },
    {
      "midi": 76,
      "hit": false,
      "t": 92571.33599999991,
      "d": 428.5709999999963,
      "v": 44
    },
    {
      "midi": 56,
      "hit": false,
      "t": 92571.33599999997,
      "d": 428.5709999999963,
      "v": 54
    },
    {
      "midi": 80,
      "hit": false,
      "t": 92999.9069999999,
      "d": 428.5709999999963,
      "v": 50
    },
    {
      "midi": 61,
      "hit": false,
      "t": 92999.90699999996,
      "d": 428.5709999999963,
      "v": 50
    },
    {
      "midi": 73,
      "hit": false,
      "t": 93428.4779999999,
      "d": 214.28549999999814,
      "v": 49
    },
    {
      "midi": 61,
      "hit": false,
      "t": 93428.47799999996,
      "d": 428.5709999999963,
      "v": 52
    },
    {
      "midi": 75,
      "hit": false,
      "t": 93642.7634999999,
      "d": 214.28549999999814,
      "v": 49
    },
    {
      "midi": 76,
      "hit": false,
      "t": 93857.0489999999,
      "d": 214.28549999999814,
      "v": 49
    },
    {
      "midi": 61,
      "hit": false,
      "t": 93857.04899999996,
      "d": 428.5709999999963,
      "v": 50
    },
    {
      "midi": 73,
      "hit": false,
      "t": 94071.3344999999,
      "d": 214.28549999999814,
      "v": 49
    },
    {
      "midi": 75,
      "hit": false,
      "t": 94285.6199999999,
      "d": 428.5709999999963,
      "v": 44
    },
    {
      "midi": 56,
      "hit": false,
      "t": 94285.61999999995,
      "d": 428.5709999999963,
      "v": 54
    },
    {
      "midi": 78,
      "hit": false,
      "t": 94714.19099999989,
      "d": 428.5709999999963,
      "v": 50
    },
    {
      "midi": 63,
      "hit": false,
      "t": 94714.19099999995,
      "d": 428.5709999999963,
      "v": 50
    },
    {
      "midi": 72,
      "hit": false,
      "t": 95142.76199999989,
      "d": 214.28549999999814,
      "v": 49
    },
    {
      "midi": 63,
      "hit": false,
      "t": 95142.76199999994,
      "d": 428.5709999999963,
      "v": 52
    },
    {
      "midi": 73,
      "hit": false,
      "t": 95357.04749999988,
      "d": 214.28549999999814,
      "v": 49
    },
    {
      "midi": 75,
      "hit": false,
      "t": 95571.33299999988,
      "d": 214.28549999999814,
      "v": 49
    },
    {
      "midi": 63,
      "hit": false,
      "t": 95571.33299999994,
      "d": 428.5709999999963,
      "v": 50
    },
    {
      "midi": 72,
      "hit": false,
      "t": 95785.61849999988,
      "d": 214.28549999999814,
      "v": 49
    },
    {
      "midi": 73,
      "hit": false,
      "t": 95999.90399999988,
      "d": 857.1420000000071,
      "v": 54
    },
    {
      "midi": 61,
      "hit": false,
      "t": 95999.90399999994,
      "d": 1285.7130000000034,
      "v": 46
    },
    {
      "midi": 64,
      "hit": false,
      "t": 95999.90399999994,
      "d": 1285.7130000000034,
      "v": 56
    },
    {
      "midi": 69,
      "hit": false,
      "t": 96857.04599999989,
      "d": 428.5709999999963,
      "v": 91
    },
    {
      "midi": 71,
      "hit": false,
      "t": 97285.61699999988,
      "d": 428.5709999999963,
      "v": 89
    },
    {
      "midi": 61,
      "hit": false,
      "t": 97499.90249999994,
      "d": 107.14274999999907,
      "v": 46
    },
    {
      "midi": 64,
      "hit": false,
      "t": 97499.90249999994,
      "d": 107.14274999999907,
      "v": 56
    },
    {
      "midi": 56,
      "hit": false,
      "t": 97607.04524999994,
      "d": 107.14274999999907,
      "v": 88
    },
    {
      "midi": 73,
      "hit": false,
      "t": 97714.18799999988,
      "d": 857.1420000000071,
      "v": 93
    },
    {
      "midi": 57,
      "hit": false,
      "t": 97714.18799999994,
      "d": 428.5709999999963,
      "v": 93
    },
    {
      "midi": 57,
      "hit": false,
      "t": 98142.75899999993,
      "d": 428.5709999999963,
      "v": 89
    },
    {
      "midi": 69,
      "hit": false,
      "t": 98571.32999999989,
      "d": 428.5709999999963,
      "v": 91
    },
    {
      "midi": 57,
      "hit": false,
      "t": 98571.32999999993,
      "d": 428.5709999999963,
      "v": 91
    },
    {
      "midi": 71,
      "hit": false,
      "t": 98999.90099999988,
      "d": 428.5709999999963,
      "v": 89
    },
    {
      "midi": 57,
      "hit": false,
      "t": 98999.90099999993,
      "d": 321.4282499999972,
      "v": 89
    },
    {
      "midi": 56,
      "hit": false,
      "t": 99321.32924999992,
      "d": 107.14274999999907,
      "v": 88
    },
    {
      "midi": 73,
      "hit": false,
      "t": 99428.47199999988,
      "d": 428.5709999999963,
      "v": 93
    },
    {
      "midi": 57,
      "hit": false,
      "t": 99428.47199999992,
      "d": 428.5709999999963,
      "v": 93
    },
    {
      "midi": 71,
      "hit": false,
      "t": 99857.04299999987,
      "d": 428.5709999999963,
      "v": 89
    },
    {
      "midi": 57,
      "hit": false,
      "t": 99857.04299999992,
      "d": 428.5709999999963,
      "v": 89
    },
    {
      "midi": 69,
      "hit": false,
      "t": 100285.61399999987,
      "d": 428.5709999999963,
      "v": 91
    },
    {
      "midi": 57,
      "hit": false,
      "t": 100285.61399999991,
      "d": 428.5709999999963,
      "v": 91
    },
    {
      "midi": 68,
      "hit": false,
      "t": 100714.18499999987,
      "d": 428.5709999999963,
      "v": 89
    },
    {
      "midi": 57,
      "hit": false,
      "t": 100714.18499999991,
      "d": 428.5709999999963,
      "v": 89
    },
    {
      "midi": 66,
      "hit": false,
      "t": 101142.75599999986,
      "d": 428.5709999999963,
      "v": 93
    },
    {
      "midi": 50,
      "hit": false,
      "t": 101142.7559999999,
      "d": 428.5709999999963,
      "v": 93
    },
    {
      "midi": 68,
      "hit": false,
      "t": 101571.32699999986,
      "d": 428.5709999999963,
      "v": 89
    },
    {
      "midi": 50,
      "hit": false,
      "t": 101571.3269999999,
      "d": 428.5709999999963,
      "v": 89
    },
    {
      "midi": 69,
      "hit": false,
      "t": 101999.89799999986,
      "d": 428.5709999999963,
      "v": 91
    },
    {
      "midi": 51,
      "hit": false,
      "t": 101999.8979999999,
      "d": 428.5709999999963,
      "v": 91
    },
    {
      "midi": 71,
      "hit": false,
      "t": 102428.46899999985,
      "d": 428.5709999999963,
      "v": 89
    },
    {
      "midi": 51,
      "hit": false,
      "t": 102428.4689999999,
      "d": 428.5709999999963,
      "v": 89
    },
    {
      "midi": 68,
      "hit": false,
      "t": 102857.03999999985,
      "d": 857.1420000000071,
      "v": 93
    },
    {
      "midi": 52,
      "hit": false,
      "t": 102857.03999999989,
      "d": 428.5709999999963,
      "v": 93
    },
    {
      "midi": 52,
      "hit": false,
      "t": 103285.61099999989,
      "d": 428.5709999999963,
      "v": 89
    },
    {
      "midi": 64,
      "hit": false,
      "t": 103285.61099999989,
      "d": 428.5709999999963,
      "v": 89
    },
    {
      "midi": 69,
      "hit": false,
      "t": 103714.18199999986,
      "d": 428.5709999999963,
      "v": 91
    },
    {
      "midi": 52,
      "hit": false,
      "t": 103714.18199999988,
      "d": 428.5709999999963,
      "v": 91
    },
    {
      "midi": 71,
      "hit": false,
      "t": 104142.75299999985,
      "d": 428.5709999999963,
      "v": 89
    },
    {
      "midi": 52,
      "hit": false,
      "t": 104142.75299999988,
      "d": 321.4282499999972,
      "v": 89
    },
    {
      "midi": 56,
      "hit": false,
      "t": 104464.18124999988,
      "d": 107.14274999999907,
      "v": 88
    },
    {
      "midi": 73,
      "hit": false,
      "t": 104571.32399999985,
      "d": 857.1420000000071,
      "v": 93
    },
    {
      "midi": 57,
      "hit": false,
      "t": 104571.32399999988,
      "d": 428.5709999999963,
      "v": 93
    },
    {
      "midi": 57,
      "hit": false,
      "t": 104999.89499999987,
      "d": 428.5709999999963,
      "v": 89
    },
    {
      "midi": 69,
      "hit": false,
      "t": 105428.46599999985,
      "d": 428.5709999999963,
      "v": 91
    },
    {
      "midi": 57,
      "hit": false,
      "t": 105428.46599999987,
      "d": 428.5709999999963,
      "v": 91
    },
    {
      "midi": 71,
      "hit": false,
      "t": 105857.03699999985,
      "d": 428.5709999999963,
      "v": 89
    },
    {
      "midi": 57,
      "hit": false,
      "t": 105857.03699999987,
      "d": 321.4282499999972,
      "v": 89
    },
    {
      "midi": 56,
      "hit": false,
      "t": 106178.46524999986,
      "d": 107.14274999999907,
      "v": 88
    },
    {
      "midi": 73,
      "hit": false,
      "t": 106285.60799999985,
      "d": 428.5709999999963,
      "v": 93
    },
    {
      "midi": 57,
      "hit": false,
      "t": 106285.60799999986,
      "d": 428.5709999999963,
      "v": 93
    },
    {
      "midi": 71,
      "hit": false,
      "t": 106714.17899999984,
      "d": 428.5709999999963,
      "v": 89
    },
    {
      "midi": 57,
      "hit": false,
      "t": 106714.17899999986,
      "d": 428.5709999999963,
      "v": 89
    },
    {
      "midi": 69,
      "hit": false,
      "t": 107142.74999999984,
      "d": 428.5709999999963,
      "v": 91
    },
    {
      "midi": 57,
      "hit": false,
      "t": 107142.74999999985,
      "d": 428.5709999999963,
      "v": 91
    },
    {
      "midi": 68,
      "hit": false,
      "t": 107571.32099999984,
      "d": 428.5709999999963,
      "v": 89
    },
    {
      "midi": 57,
      "hit": false,
      "t": 107571.32099999985,
      "d": 428.5709999999963,
      "v": 89
    },
    {
      "midi": 66,
      "hit": false,
      "t": 107999.89199999983,
      "d": 428.5709999999963,
      "v": 93
    },
    {
      "midi": 50,
      "hit": false,
      "t": 107999.89199999985,
      "d": 428.5709999999963,
      "v": 93
    },
    {
      "midi": 71,
      "hit": false,
      "t": 108428.46299999983,
      "d": 428.5709999999963,
      "v": 89
    },
    {
      "midi": 50,
      "hit": false,
      "t": 108428.46299999984,
      "d": 428.5709999999963,
      "v": 89
    },
    {
      "midi": 68,
      "hit": false,
      "t": 108857.03399999983,
      "d": 857.1420000000071,
      "v": 91
    },
    {
      "midi": 52,
      "hit": false,
      "t": 108857.03399999984,
      "d": 428.5709999999963,
      "v": 91
    },
    {
      "midi": 52,
      "hit": false,
      "t": 109285.60499999984,
      "d": 428.5709999999963,
      "v": 89
    },
    {
      "midi": 64,
      "hit": false,
      "t": 109285.60499999984,
      "d": 428.5709999999963,
      "v": 89
    },
    {
      "midi": 69,
      "hit": false,
      "t": 109714.17599999983,
      "d": 857.1420000000071,
      "v": 93
    },
    {
      "midi": 45,
      "hit": false,
      "t": 109714.17599999983,
      "d": 1714.2839999999997,
      "v": 92
    },
    {
      "midi": 71,
      "hit": false,
      "t": 110571.31799999984,
      "d": 214.28549999999814,
      "v": 88
    },
    {
      "midi": 69,
      "hit": false,
      "t": 110785.60349999984,
      "d": 214.28549999999814,
      "v": 88
    },
    {
      "midi": 68,
      "hit": false,
      "t": 110999.88899999984,
      "d": 214.28549999999814,
      "v": 88
    },
    {
      "midi": 69,
      "hit": false,
      "t": 111214.17449999983,
      "d": 214.28549999999814,
      "v": 88
    },
    {
      "midi": 72,
      "hit": false,
      "t": 111428.45999999983,
      "d": 857.1420000000071,
      "v": 44
    },
    {
      "midi": 57,
      "hit": false,
      "t": 111428.45999999983,
      "d": 428.5709999999963,
      "v": 54
    },
    {
      "midi": 64,
      "hit": false,
      "t": 111857.03099999983,
      "d": 428.5709999999963,
      "v": 50
    },
    {
      "midi": 64,
      "hit": false,
      "t": 112285.60199999982,
      "d": 428.5709999999963,
      "v": 52
    },
    {
      "midi": 74,
      "hit": false,
      "t": 112285.60199999984,
      "d": 214.28549999999814,
      "v": 49
    },
    {
      "midi": 72,
      "hit": false,
      "t": 112499.88749999984,
      "d": 214.28549999999814,
      "v": 49
    },
    {
      "midi": 64,
      "hit": false,
      "t": 112714.17299999982,
      "d": 428.5709999999963,
      "v": 50
    },
    {
      "midi": 71,
      "hit": false,
      "t": 112714.17299999984,
      "d": 214.28549999999814,
      "v": 49
    },
    {
      "midi": 72,
      "hit": false,
      "t": 112928.45849999983,
      "d": 214.28549999999814,
      "v": 49
    },
    {
      "midi": 57,
      "hit": false,
      "t": 113142.74399999982,
      "d": 428.5709999999963,
      "v": 54
    },
    {
      "midi": 76,
      "hit": false,
      "t": 113142.74399999983,
      "d": 857.1420000000071,
      "v": 44
    },
    {
      "midi": 64,
      "hit": false,
      "t": 113571.31499999981,
      "d": 428.5709999999963,
      "v": 50
    },
    {
      "midi": 64,
      "hit": false,
      "t": 113999.88599999981,
      "d": 428.5709999999963,
      "v": 52
    },
    {
      "midi": 77,
      "hit": false,
      "t": 113999.88599999984,
      "d": 214.28549999999814,
      "v": 49
    },
    {
      "midi": 76,
      "hit": false,
      "t": 114214.17149999984,
      "d": 214.28549999999814,
      "v": 49
    },
    {
      "midi": 64,
      "hit": false,
      "t": 114428.4569999998,
      "d": 428.5709999999963,
      "v": 50
    },
    {
      "midi": 75,
      "hit": false,
      "t": 114428.45699999983,
      "d": 214.28549999999814,
      "v": 49
    },
    {
      "midi": 76,
      "hit": false,
      "t": 114642.74249999983,
      "d": 214.28549999999814,
      "v": 44
    },
    {
      "midi": 57,
      "hit": false,
      "t": 114857.0279999998,
      "d": 428.5709999999963,
      "v": 54
    },
    {
      "midi": 83,
      "hit": false,
      "t": 114857.02799999983,
      "d": 214.28549999999814,
      "v": 49
    },
    {
      "midi": 81,
      "hit": false,
      "t": 115071.31349999983,
      "d": 214.28549999999814,
      "v": 49
    },
    {
      "midi": 64,
      "hit": false,
      "t": 115285.5989999998,
      "d": 428.5709999999963,
      "v": 50
    },
    {
      "midi": 80,
      "hit": false,
      "t": 115285.59899999983,
      "d": 214.28549999999814,
      "v": 49
    },
    {
      "midi": 81,
      "hit": false,
      "t": 115499.88449999983,
      "d": 214.28549999999814,
      "v": 49
    },
    {
      "midi": 57,
      "hit": false,
      "t": 115714.1699999998,
      "d": 428.5709999999963,
      "v": 52
    },
    {
      "midi": 83,
      "hit": false,
      "t": 115714.16999999982,
      "d": 214.28549999999814,
      "v": 49
    },
    {
      "midi": 81,
      "hit": false,
      "t": 115928.45549999982,
      "d": 214.28549999999814,
      "v": 49
    },
    {
      "midi": 64,
      "hit": false,
      "t": 116142.74099999979,
      "d": 428.5709999999963,
      "v": 50
    },
    {
      "midi": 80,
      "hit": false,
      "t": 116142.74099999982,
      "d": 214.28549999999814,
      "v": 49
    },
    {
      "midi": 81,
      "hit": false,
      "t": 116357.02649999982,
      "d": 214.28549999999814,
      "v": 49
    },
    {
      "midi": 57,
      "hit": false,
      "t": 116571.31199999979,
      "d": 428.5709999999963,
      "v": 54
    },
    {
      "midi": 84,
      "hit": false,
      "t": 116571.31199999982,
      "d": 857.1420000000071,
      "v": 44
    },
    {
      "midi": 64,
      "hit": false,
      "t": 116999.88299999978,
      "d": 428.5709999999963,
      "v": 50
    },
    {
      "midi": 64,
      "hit": false,
      "t": 117428.45399999978,
      "d": 428.5709999999963,
      "v": 52
    },
    {
      "midi": 81,
      "hit": false,
      "t": 117428.45399999982,
      "d": 428.5709999999963,
      "v": 52
    },
    {
      "midi": 64,
      "hit": false,
      "t": 117857.02499999978,
      "d": 428.5709999999963,
      "v": 50
    },
    {
      "midi": 84,
      "hit": false,
      "t": 117857.02499999982,
      "d": 428.5709999999963,
      "v": 50
    },
    {
      "midi": 52,
      "hit": false,
      "t": 118285.59599999977,
      "d": 428.5709999999963,
      "v": 54
    },
    {
      "midi": 83,
      "hit": false,
      "t": 118285.59599999982,
      "d": 428.5709999999963,
      "v": 54
    },
    {
      "midi": 59,
      "hit": false,
      "t": 118714.16699999977,
      "d": 428.5709999999963,
      "v": 50
    },
    {
      "midi": 81,
      "hit": false,
      "t": 118714.16699999981,
      "d": 428.5709999999963,
      "v": 50
    },
    {
      "midi": 59,
      "hit": false,
      "t": 119142.73799999976,
      "d": 428.5709999999963,
      "v": 52
    },
    {
      "midi": 79,
      "hit": false,
      "t": 119142.73799999981,
      "d": 428.5709999999963,
      "v": 52
    },
    {
      "midi": 59,
      "hit": false,
      "t": 119571.30899999976,
      "d": 428.5709999999963,
      "v": 50
    },
    {
      "midi": 81,
      "hit": false,
      "t": 119571.3089999998,
      "d": 428.5709999999963,
      "v": 50
    },
    {
      "midi": 52,
      "hit": false,
      "t": 119999.87999999976,
      "d": 428.5709999999963,
      "v": 54
    },
    {
      "midi": 83,
      "hit": false,
      "t": 119999.8799999998,
      "d": 428.5709999999963,
      "v": 54
    },
    {
      "midi": 59,
      "hit": false,
      "t": 120428.45099999975,
      "d": 428.5709999999963,
      "v": 50
    },
    {
      "midi": 81,
      "hit": false,
      "t": 120428.4509999998,
      "d": 428.5709999999963,
      "v": 50
    },
    {
      "midi": 59,
      "hit": false,
      "t": 120857.02199999975,
      "d": 428.5709999999963,
      "v": 52
    },
    {
      "midi": 79,
      "hit": false,
      "t": 120857.0219999998,
      "d": 428.5709999999963,
      "v": 52
    },
    {
      "midi": 59,
      "hit": false,
      "t": 121285.59299999975,
      "d": 428.5709999999963,
      "v": 50
    },
    {
      "midi": 81,
      "hit": false,
      "t": 121285.59299999979,
      "d": 428.5709999999963,
      "v": 50
    },
    {
      "midi": 52,
      "hit": false,
      "t": 121714.16399999974,
      "d": 428.5709999999963,
      "v": 54
    },
    {
      "midi": 83,
      "hit": false,
      "t": 121714.16399999979,
      "d": 428.5709999999963,
      "v": 54
    },
    {
      "midi": 59,
      "hit": false,
      "t": 122142.73499999974,
      "d": 428.5709999999963,
      "v": 50
    },
    {
      "midi": 81,
      "hit": false,
      "t": 122142.73499999978,
      "d": 428.5709999999963,
      "v": 50
    },
    {
      "midi": 47,
      "hit": false,
      "t": 122571.30599999973,
      "d": 428.5709999999963,
      "v": 51
    },
    {
      "midi": 79,
      "hit": false,
      "t": 122571.30599999978,
      "d": 428.5709999999963,
      "v": 52
    },
    {
      "midi": 59,
      "hit": false,
      "t": 122999.87699999973,
      "d": 428.5709999999963,
      "v": 50
    },
    {
      "midi": 78,
      "hit": false,
      "t": 122999.87699999977,
      "d": 428.5709999999963,
      "v": 50
    },
    {
      "midi": 52,
      "hit": false,
      "t": 123428.44799999973,
      "d": 1714.2839999999997,
      "v": 54
    },
    {
      "midi": 76,
      "hit": false,
      "t": 123428.44799999977,
      "d": 857.1420000000071,
      "v": 54
    },
    {
      "midi": 71,
      "hit": false,
      "t": 124285.58999999978,
      "d": 214.28549999999814,
      "v": 49
    },
    {
      "midi": 69,
      "hit": false,
      "t": 124499.87549999978,
      "d": 214.28549999999814,
      "v": 49
    },
    {
      "midi": 68,
      "hit": false,
      "t": 124714.16099999977,
      "d": 214.28549999999814,
      "v": 49
    },
    {
      "midi": 69,
      "hit": false,
      "t": 124928.44649999977,
      "d": 214.28549999999814,
      "v": 49
    },
    {
      "midi": 57,
      "hit": false,
      "t": 125142.73199999973,
      "d": 428.5709999999963,
      "v": 54
    },
    {
      "midi": 72,
      "hit": false,
      "t": 125142.73199999977,
      "d": 857.1420000000071,
      "v": 44
    },
    {
      "midi": 64,
      "hit": false,
      "t": 125571.30299999972,
      "d": 428.5709999999963,
      "v": 50
    },
    {
      "midi": 64,
      "hit": false,
      "t": 125999.87399999972,
      "d": 428.5709999999963,
      "v": 52
    },
    {
      "midi": 74,
      "hit": false,
      "t": 125999.87399999978,
      "d": 214.28549999999814,
      "v": 49
    },
    {
      "midi": 72,
      "hit": false,
      "t": 126214.15949999978,
      "d": 214.28549999999814,
      "v": 49
    },
    {
      "midi": 64,
      "hit": false,
      "t": 126428.44499999972,
      "d": 428.5709999999963,
      "v": 50
    },
    {
      "midi": 71,
      "hit": false,
      "t": 126428.44499999977,
      "d": 214.28549999999814,
      "v": 49
    },
    {
      "midi": 72,
      "hit": false,
      "t": 126642.73049999977,
      "d": 214.28549999999814,
      "v": 49
    },
    {
      "midi": 57,
      "hit": false,
      "t": 126857.01599999971,
      "d": 428.5709999999963,
      "v": 54
    },
    {
      "midi": 76,
      "hit": false,
      "t": 126857.01599999977,
      "d": 857.1420000000071,
      "v": 44
    },
    {
      "midi": 64,
      "hit": false,
      "t": 127285.58699999971,
      "d": 428.5709999999963,
      "v": 50
    },
    {
      "midi": 64,
      "hit": false,
      "t": 127714.1579999997,
      "d": 428.5709999999963,
      "v": 52
    },
    {
      "midi": 77,
      "hit": false,
      "t": 127714.15799999978,
      "d": 214.28549999999814,
      "v": 49
    },
    {
      "midi": 76,
      "hit": false,
      "t": 127928.44349999978,
      "d": 214.28549999999814,
      "v": 49
    },
    {
      "midi": 64,
      "hit": false,
      "t": 128142.7289999997,
      "d": 428.5709999999963,
      "v": 50
    },
    {
      "midi": 75,
      "hit": false,
      "t": 128142.72899999977,
      "d": 214.28549999999814,
      "v": 49
    },
    {
      "midi": 76,
      "hit": false,
      "t": 128357.01449999977,
      "d": 214.28549999999814,
      "v": 44
    },
    {
      "midi": 57,
      "hit": false,
      "t": 128571.2999999997,
      "d": 428.5709999999963,
      "v": 54
    },
    {
      "midi": 83,
      "hit": false,
      "t": 128571.29999999977,
      "d": 214.28549999999814,
      "v": 49
    },
    {
      "midi": 81,
      "hit": false,
      "t": 128785.58549999977,
      "d": 214.28549999999814,
      "v": 49
    },
    {
      "midi": 64,
      "hit": false,
      "t": 128999.8709999997,
      "d": 428.5709999999963,
      "v": 50
    },
    {
      "midi": 80,
      "hit": false,
      "t": 128999.87099999977,
      "d": 214.28549999999814,
      "v": 49
    },
    {
      "midi": 81,
      "hit": false,
      "t": 129214.15649999976,
      "d": 214.28549999999814,
      "v": 49
    },
    {
      "midi": 57,
      "hit": false,
      "t": 129428.44199999969,
      "d": 428.5709999999963,
      "v": 52
    },
    {
      "midi": 83,
      "hit": false,
      "t": 129428.44199999976,
      "d": 214.28549999999814,
      "v": 49
    },
    {
      "midi": 81,
      "hit": false,
      "t": 129642.72749999976,
      "d": 214.28549999999814,
      "v": 49
    },
    {
      "midi": 64,
      "hit": false,
      "t": 129857.01299999969,
      "d": 428.5709999999963,
      "v": 50
    },
    {
      "midi": 80,
      "hit": false,
      "t": 129857.01299999976,
      "d": 214.28549999999814,
      "v": 49
    },
    {
      "midi": 81,
      "hit": false,
      "t": 130071.29849999976,
      "d": 214.28549999999814,
      "v": 49
    },
    {
      "midi": 57,
      "hit": false,
      "t": 130285.58399999968,
      "d": 428.5709999999963,
      "v": 54
    },
    {
      "midi": 84,
      "hit": false,
      "t": 130285.58399999976,
      "d": 857.1420000000071,
      "v": 44
    },
    {
      "midi": 64,
      "hit": false,
      "t": 130714.15499999968,
      "d": 428.5709999999963,
      "v": 50
    },
    {
      "midi": 64,
      "hit": false,
      "t": 131142.72599999967,
      "d": 428.5709999999963,
      "v": 52
    },
    {
      "midi": 81,
      "hit": false,
      "t": 131142.72599999976,
      "d": 428.5709999999963,
      "v": 52
    },
    {
      "midi": 64,
      "hit": false,
      "t": 131571.29699999967,
      "d": 428.5709999999963,
      "v": 50
    },
    {
      "midi": 84,
      "hit": false,
      "t": 131571.29699999976,
      "d": 428.5709999999963,
      "v": 50
    },
    {
      "midi": 52,
      "hit": false,
      "t": 131999.86799999967,
      "d": 428.5709999999963,
      "v": 54
    },
    {
      "midi": 83,
      "hit": false,
      "t": 131999.86799999975,
      "d": 428.5709999999963,
      "v": 54
    },
    {
      "midi": 59,
      "hit": false,
      "t": 132428.43899999966,
      "d": 428.5709999999963,
      "v": 50
    },
    {
      "midi": 81,
      "hit": false,
      "t": 132428.43899999975,
      "d": 428.5709999999963,
      "v": 50
    },
    {
      "midi": 59,
      "hit": false,
      "t": 132857.00999999966,
      "d": 428.5709999999963,
      "v": 52
    },
    {
      "midi": 79,
      "hit": false,
      "t": 132857.00999999975,
      "d": 428.5709999999963,
      "v": 52
    },
    {
      "midi": 59,
      "hit": false,
      "t": 133285.58099999966,
      "d": 428.5709999999963,
      "v": 50
    },
    {
      "midi": 81,
      "hit": false,
      "t": 133285.58099999974,
      "d": 428.5709999999963,
      "v": 50
    },
    {
      "midi": 52,
      "hit": false,
      "t": 133714.15199999965,
      "d": 428.5709999999963,
      "v": 54
    },
    {
      "midi": 83,
      "hit": false,
      "t": 133714.15199999974,
      "d": 428.5709999999963,
      "v": 54
    },
    {
      "midi": 59,
      "hit": false,
      "t": 134142.72299999965,
      "d": 428.5709999999963,
      "v": 50
    },
    {
      "midi": 81,
      "hit": false,
      "t": 134142.72299999974,
      "d": 428.5709999999963,
      "v": 50
    },
    {
      "midi": 59,
      "hit": false,
      "t": 134571.29399999965,
      "d": 428.5709999999963,
      "v": 52
    },
    {
      "midi": 79,
      "hit": false,
      "t": 134571.29399999973,
      "d": 428.5709999999963,
      "v": 52
    },
    {
      "midi": 59,
      "hit": false,
      "t": 134999.86499999964,
      "d": 428.5709999999963,
      "v": 50
    },
    {
      "midi": 81,
      "hit": false,
      "t": 134999.86499999973,
      "d": 428.5709999999963,
      "v": 50
    },
    {
      "midi": 52,
      "hit": false,
      "t": 135428.43599999964,
      "d": 428.5709999999963,
      "v": 54
    },
    {
      "midi": 83,
      "hit": false,
      "t": 135428.43599999973,
      "d": 428.5709999999963,
      "v": 54
    },
    {
      "midi": 59,
      "hit": false,
      "t": 135857.00699999963,
      "d": 428.5709999999963,
      "v": 50
    },
    {
      "midi": 81,
      "hit": false,
      "t": 135857.00699999972,
      "d": 428.5709999999963,
      "v": 50
    },
    {
      "midi": 47,
      "hit": false,
      "t": 136285.57799999963,
      "d": 428.5709999999963,
      "v": 51
    },
    {
      "midi": 79,
      "hit": false,
      "t": 136285.57799999972,
      "d": 428.5709999999963,
      "v": 52
    },
    {
      "midi": 59,
      "hit": false,
      "t": 136714.14899999963,
      "d": 428.5709999999963,
      "v": 50
    },
    {
      "midi": 78,
      "hit": false,
      "t": 136714.1489999997,
      "d": 428.5709999999963,
      "v": 50
    },
    {
      "midi": 52,
      "hit": false,
      "t": 137142.71999999962,
      "d": 1714.2840000000142,
      "v": 54
    },
    {
      "midi": 76,
      "hit": false,
      "t": 137142.7199999997,
      "d": 857.1419999999925,
      "v": 54
    },
    {
      "midi": 76,
      "hit": false,
      "t": 137999.8619999997,
      "d": 428.5709999999963,
      "v": 91
    },
    {
      "midi": 77,
      "hit": false,
      "t": 138428.4329999997,
      "d": 428.5709999999963,
      "v": 89
    },
    {
      "midi": 48,
      "hit": false,
      "t": 138857.00399999964,
      "d": 428.5709999999963,
      "v": 92
    },
    {
      "midi": 79,
      "hit": false,
      "t": 138857.0039999997,
      "d": 428.5709999999963,
      "v": 93
    },
    {
      "midi": 48,
      "hit": false,
      "t": 139285.57499999963,
      "d": 428.5709999999963,
      "v": 88
    },
    {
      "midi": 79,
      "hit": false,
      "t": 139285.5749999997,
      "d": 428.5709999999963,
      "v": 89
    },
    {
      "midi": 52,
      "hit": false,
      "t": 139714.14599999963,
      "d": 428.5709999999963,
      "v": 91
    },
    {
      "midi": 81,
      "hit": false,
      "t": 139714.1459999997,
      "d": 214.28549999999814,
      "v": 88
    },
    {
      "midi": 79,
      "hit": false,
      "t": 139928.4314999997,
      "d": 214.28549999999814,
      "v": 88
    },
    {
      "midi": 52,
      "hit": false,
      "t": 140142.71699999963,
      "d": 428.5709999999963,
      "v": 89
    },
    {
      "midi": 77,
      "hit": false,
      "t": 140142.71699999968,
      "d": 214.28549999999814,
      "v": 88
    },
    {
      "midi": 76,
      "hit": false,
      "t": 140357.00249999968,
      "d": 214.28549999999814,
      "v": 88
    },
    {
      "midi": 55,
      "hit": false,
      "t": 140571.28799999962,
      "d": 1714.2840000000142,
      "v": 93
    },
    {
      "midi": 74,
      "hit": false,
      "t": 140571.28799999968,
      "d": 857.1419999999925,
      "v": 83
    },
    {
      "midi": 76,
      "hit": false,
      "t": 141428.42999999967,
      "d": 428.5709999999963,
      "v": 52
    },
    {
      "midi": 77,
      "hit": false,
      "t": 141857.00099999967,
      "d": 428.5709999999963,
      "v": 50
    },
    {
      "midi": 48,
      "hit": false,
      "t": 142285.57199999964,
      "d": 428.5709999999963,
      "v": 53
    },
    {
      "midi": 79,
      "hit": false,
      "t": 142285.57199999967,
      "d": 428.5709999999963,
      "v": 54
    },
    {
      "midi": 48,
      "hit": false,
      "t": 142714.14299999963,
      "d": 428.5709999999963,
      "v": 49
    },
    {
      "midi": 79,
      "hit": false,
      "t": 142714.14299999966,
      "d": 428.5709999999963,
      "v": 50
    },
    {
      "midi": 52,
      "hit": false,
      "t": 143142.71399999963,
      "d": 428.5709999999963,
      "v": 52
    },
    {
      "midi": 81,
      "hit": false,
      "t": 143142.71399999966,
      "d": 214.28549999999814,
      "v": 49
    },
    {
      "midi": 79,
      "hit": false,
      "t": 143356.99949999966,
      "d": 214.28549999999814,
      "v": 49
    },
    {
      "midi": 52,
      "hit": false,
      "t": 143571.28499999963,
      "d": 428.5709999999963,
      "v": 50
    },
    {
      "midi": 77,
      "hit": false,
      "t": 143571.28499999965,
      "d": 214.28549999999814,
      "v": 49
    },
    {
      "midi": 76,
      "hit": false,
      "t": 143785.57049999965,
      "d": 214.28549999999814,
      "v": 49
    },
    {
      "midi": 55,
      "hit": false,
      "t": 143999.85599999962,
      "d": 1714.2840000000142,
      "v": 54
    },
    {
      "midi": 74,
      "hit": false,
      "t": 143999.85599999965,
      "d": 857.1419999999925,
      "v": 44
    },
    {
      "midi": 72,
      "hit": false,
      "t": 144856.99799999964,
      "d": 428.5709999999963,
      "v": 91
    },
    {
      "midi": 74,
      "hit": false,
      "t": 145285.56899999964,
      "d": 428.5709999999963,
      "v": 89
    },
    {
      "midi": 76,
      "hit": false,
      "t": 145714.13999999964,
      "d": 428.5709999999963,
      "v": 93
    },
    {
      "midi": 45,
      "hit": false,
      "t": 145714.13999999964,
      "d": 428.5709999999963,
      "v": 92
    },
    {
      "midi": 76,
      "hit": false,
      "t": 146142.71099999963,
      "d": 428.5709999999963,
      "v": 89
    },
    {
      "midi": 45,
      "hit": false,
      "t": 146142.71099999963,
      "d": 428.5709999999963,
      "v": 88
    },
    {
      "midi": 77,
      "hit": false,
      "t": 146571.28199999963,
      "d": 214.28549999999814,
      "v": 88
    },
    {
      "midi": 48,
      "hit": false,
      "t": 146571.28199999963,
      "d": 428.5709999999963,
      "v": 90
    },
    {
      "midi": 76,
      "hit": false,
      "t": 146785.56749999963,
      "d": 214.28549999999814,
      "v": 88
    },
    {
      "midi": 74,
      "hit": false,
      "t": 146999.85299999962,
      "d": 214.28549999999814,
      "v": 88
    },
    {
      "midi": 48,
      "hit": false,
      "t": 146999.85299999962,
      "d": 428.5709999999963,
      "v": 88
    },
    {
      "midi": 72,
      "hit": false,
      "t": 147214.13849999962,
      "d": 214.28549999999814,
      "v": 88
    },
    {
      "midi": 71,
      "hit": false,
      "t": 147428.42399999962,
      "d": 857.1419999999925,
      "v": 83
    },
    {
      "midi": 52,
      "hit": false,
      "t": 147428.42399999962,
      "d": 1714.2840000000142,
      "v": 93
    },
    {
      "midi": 72,
      "hit": false,
      "t": 148285.5659999996,
      "d": 428.5709999999963,
      "v": 52
    },
    {
      "midi": 74,
      "hit": false,
      "t": 148714.1369999996,
      "d": 428.5709999999963,
      "v": 50
    },
    {
      "midi": 76,
      "hit": false,
      "t": 149142.7079999996,
      "d": 428.5709999999963,
      "v": 54
    },
    {
      "midi": 45,
      "hit": false,
      "t": 149142.70799999963,
      "d": 428.5709999999963,
      "v": 53
    },
    {
      "midi": 76,
      "hit": false,
      "t": 149571.2789999996,
      "d": 428.5709999999963,
      "v": 50
    },
    {
      "midi": 45,
      "hit": false,
      "t": 149571.27899999963,
      "d": 428.5709999999963,
      "v": 49
    },
    {
      "midi": 77,
      "hit": false,
      "t": 149999.8499999996,
      "d": 214.28549999999814,
      "v": 49
    },
    {
      "midi": 48,
      "hit": false,
      "t": 149999.84999999963,
      "d": 428.5709999999963,
      "v": 51
    },
    {
      "midi": 76,
      "hit": false,
      "t": 150214.1354999996,
      "d": 214.28549999999814,
      "v": 49
    },
    {
      "midi": 74,
      "hit": false,
      "t": 150428.4209999996,
      "d": 214.28549999999814,
      "v": 49
    },
    {
      "midi": 48,
      "hit": false,
      "t": 150428.42099999962,
      "d": 428.5709999999963,
      "v": 49
    },
    {
      "midi": 72,
      "hit": false,
      "t": 150642.7064999996,
      "d": 214.28549999999814,
      "v": 49
    },
    {
      "midi": 71,
      "hit": false,
      "t": 150856.9919999996,
      "d": 857.1419999999925,
      "v": 44
    },
    {
      "midi": 52,
      "hit": false,
      "t": 150856.99199999962,
      "d": 1714.2840000000142,
      "v": 54
    },
    {
      "midi": 71,
      "hit": false,
      "t": 151714.13399999958,
      "d": 214.28549999999814,
      "v": 49
    },
    {
      "midi": 69,
      "hit": false,
      "t": 151928.41949999958,
      "d": 214.28549999999814,
      "v": 49
    },
    {
      "midi": 68,
      "hit": false,
      "t": 152142.70499999958,
      "d": 214.28549999999814,
      "v": 49
    },
    {
      "midi": 69,
      "hit": false,
      "t": 152356.99049999958,
      "d": 214.28549999999814,
      "v": 49
    },
    {
      "midi": 72,
      "hit": false,
      "t": 152571.27599999958,
      "d": 857.1419999999925,
      "v": 44
    },
    {
      "midi": 57,
      "hit": false,
      "t": 152571.27599999963,
      "d": 428.5709999999963,
      "v": 54
    },
    {
      "midi": 64,
      "hit": false,
      "t": 152999.84699999963,
      "d": 428.5709999999963,
      "v": 50
    },
    {
      "midi": 74,
      "hit": false,
      "t": 153428.41799999957,
      "d": 214.28549999999814,
      "v": 49
    },
    {
      "midi": 64,
      "hit": false,
      "t": 153428.41799999963,
      "d": 428.5709999999963,
      "v": 52
    },
    {
      "midi": 72,
      "hit": false,
      "t": 153642.70349999957,
      "d": 214.28549999999814,
      "v": 49
    },
    {
      "midi": 71,
      "hit": false,
      "t": 153856.98899999956,
      "d": 214.28549999999814,
      "v": 49
    },
    {
      "midi": 64,
      "hit": false,
      "t": 153856.98899999962,
      "d": 428.5709999999963,
      "v": 50
    },
    {
      "midi": 72,
      "hit": false,
      "t": 154071.27449999956,
      "d": 214.28549999999814,
      "v": 49
    },
    {
      "midi": 76,
      "hit": false,
      "t": 154285.55999999956,
      "d": 857.1419999999925,
      "v": 44
    },
    {
      "midi": 57,
      "hit": false,
      "t": 154285.55999999962,
      "d": 428.5709999999963,
      "v": 54
    },
    {
      "midi": 64,
      "hit": false,
      "t": 154714.13099999962,
      "d": 428.5709999999963,
      "v": 50
    },
    {
      "midi": 77,
      "hit": false,
      "t": 155142.70199999955,
      "d": 214.28549999999814,
      "v": 49
    },
    {
      "midi": 64,
      "hit": false,
      "t": 155142.7019999996,
      "d": 428.5709999999963,
      "v": 49
    },
    {
      "midi": 76,
      "hit": false,
      "t": 155356.98749999955,
      "d": 214.28549999999814,
      "v": 52
    },
    {
      "midi": 75,
      "hit": false,
      "t": 155571.27299999955,
      "d": 214.28549999999814,
      "v": 55
    },
    {
      "midi": 64,
      "hit": false,
      "t": 155571.2729999996,
      "d": 428.5709999999963,
      "v": 55
    },
    {
      "midi": 76,
      "hit": false,
      "t": 155785.55849999955,
      "d": 214.28549999999814,
      "v": 53
    },
    {
      "midi": 83,
      "hit": false,
      "t": 155999.84399999955,
      "d": 214.28549999999814,
      "v": 62
    },
    {
      "midi": 57,
      "hit": false,
      "t": 155999.8439999996,
      "d": 428.5709999999963,
      "v": 62
    },
    {
      "midi": 81,
      "hit": false,
      "t": 156214.12949999954,
      "d": 214.28549999999814,
      "v": 65
    },
    {
      "midi": 80,
      "hit": false,
      "t": 156428.41499999954,
      "d": 214.28549999999814,
      "v": 68
    },
    {
      "midi": 64,
      "hit": false,
      "t": 156428.4149999996,
      "d": 428.5709999999963,
      "v": 68
    },
    {
      "midi": 81,
      "hit": false,
      "t": 156642.70049999954,
      "d": 214.28549999999814,
      "v": 71
    },
    {
      "midi": 83,
      "hit": false,
      "t": 156856.98599999954,
      "d": 214.28549999999814,
      "v": 75
    },
    {
      "midi": 57,
      "hit": false,
      "t": 156856.9859999996,
      "d": 428.5709999999963,
      "v": 75
    },
    {
      "midi": 81,
      "hit": false,
      "t": 157071.27149999954,
      "d": 214.28549999999814,
      "v": 78
    },
    {
      "midi": 80,
      "hit": false,
      "t": 157285.55699999954,
      "d": 214.28549999999814,
      "v": 81
    },
    {
      "midi": 64,
      "hit": false,
      "t": 157285.5569999996,
      "d": 428.5709999999963,
      "v": 81
    },
    {
      "midi": 81,
      "hit": false,
      "t": 157499.84249999953,
      "d": 214.28549999999814,
      "v": 84
    },
    {
      "midi": 84,
      "hit": false,
      "t": 157714.12799999953,
      "d": 857.1419999999925,
      "v": 83
    },
    {
      "midi": 57,
      "hit": false,
      "t": 157714.1279999996,
      "d": 428.5709999999963,
      "v": 93
    },
    {
      "midi": 63,
      "hit": false,
      "t": 158142.6989999996,
      "d": 428.5709999999963,
      "v": 89
    },
    {
      "midi": 81,
      "hit": false,
      "t": 158571.26999999952,
      "d": 428.5709999999963,
      "v": 91
    },
    {
      "midi": 63,
      "hit": false,
      "t": 158571.26999999958,
      "d": 428.5709999999963,
      "v": 91
    },
    {
      "midi": 83,
      "hit": false,
      "t": 158999.84099999952,
      "d": 428.5709999999963,
      "v": 89
    },
    {
      "midi": 63,
      "hit": false,
      "t": 158999.84099999958,
      "d": 428.5709999999963,
      "v": 89
    },
    {
      "midi": 84,
      "hit": false,
      "t": 159428.41199999952,
      "d": 428.5709999999963,
      "v": 93
    },
    {
      "midi": 52,
      "hit": false,
      "t": 159428.41199999957,
      "d": 428.5709999999963,
      "v": 93
    },
    {
      "midi": 83,
      "hit": false,
      "t": 159856.9829999995,
      "d": 428.5709999999963,
      "v": 89
    },
    {
      "midi": 52,
      "hit": false,
      "t": 159856.98299999957,
      "d": 428.5709999999963,
      "v": 89
    },
    {
      "midi": 81,
      "hit": false,
      "t": 160285.5539999995,
      "d": 428.5709999999963,
      "v": 91
    },
    {
      "midi": 50,
      "hit": false,
      "t": 160285.55399999957,
      "d": 428.5709999999963,
      "v": 91
    },
    {
      "midi": 80,
      "hit": false,
      "t": 160714.1249999995,
      "d": 428.5709999999963,
      "v": 89
    },
    {
      "midi": 50,
      "hit": false,
      "t": 160714.12499999956,
      "d": 428.5709999999963,
      "v": 89
    },
    {
      "midi": 81,
      "hit": false,
      "t": 161142.6959999995,
      "d": 428.5709999999963,
      "v": 93
    },
    {
      "midi": 48,
      "hit": false,
      "t": 161142.69599999956,
      "d": 428.5709999999963,
      "v": 92
    },
    {
      "midi": 76,
      "hit": false,
      "t": 161571.2669999995,
      "d": 428.5709999999963,
      "v": 89
    },
    {
      "midi": 48,
      "hit": false,
      "t": 161571.26699999956,
      "d": 428.5709999999963,
      "v": 88
    },
    {
      "midi": 77,
      "hit": false,
      "t": 161999.8379999995,
      "d": 428.5709999999963,
      "v": 91
    },
    {
      "midi": 50,
      "hit": false,
      "t": 161999.83799999955,
      "d": 428.5709999999963,
      "v": 91
    },
    {
      "midi": 74,
      "hit": false,
      "t": 162428.4089999995,
      "d": 428.5709999999963,
      "v": 89
    },
    {
      "midi": 50,
      "hit": false,
      "t": 162428.40899999955,
      "d": 428.5709999999963,
      "v": 89
    },
    {
      "midi": 72,
      "hit": false,
      "t": 162856.9799999995,
      "d": 857.1419999999925,
      "v": 93
    },
    {
      "midi": 52,
      "hit": false,
      "t": 162856.97999999954,
      "d": 428.5709999999963,
      "v": 85
    },
    {
      "midi": 57,
      "hit": false,
      "t": 162856.97999999954,
      "d": 428.5709999999963,
      "v": 95
    },
    {
      "midi": 52,
      "hit": false,
      "t": 163285.55099999954,
      "d": 428.5709999999963,
      "v": 81
    },
    {
      "midi": 57,
      "hit": false,
      "t": 163285.55099999954,
      "d": 428.5709999999963,
      "v": 95
    },
    {
      "midi": 71,
      "hit": false,
      "t": 163714.12199999948,
      "d": 428.5709999999963,
      "v": 91
    },
    {
      "midi": 52,
      "hit": false,
      "t": 163714.12199999954,
      "d": 857.1419999999925,
      "v": 83
    },
    {
      "midi": 56,
      "hit": false,
      "t": 163714.12199999954,
      "d": 857.1419999999925,
      "v": 97
    },
    {
      "midi": 69,
      "hit": false,
      "t": 164142.69299999948,
      "d": 214.28549999999814,
      "v": 88
    },
    {
      "midi": 71,
      "hit": false,
      "t": 164356.97849999947,
      "d": 214.28549999999814,
      "v": 88
    },
    {
      "midi": 69,
      "hit": false,
      "t": 164571.26399999947,
      "d": 857.1419999999925,
      "v": 83
    },
    {
      "midi": 45,
      "hit": false,
      "t": 164571.26399999953,
      "d": 857.1419999999925,
      "v": 92
    },
    {
      "midi": 72,
      "hit": false,
      "t": 165428.40599999946,
      "d": 857.1419999999925,
      "v": 96
    },
    {
      "midi": 76,
      "hit": false,
      "t": 165428.40599999946,
      "d": 857.1419999999925,
      "v": 96
    },
    {
      "midi": 81,
      "hit": false,
      "t": 165428.40599999946,
      "d": 857.1419999999925,
      "v": 106
    },
    {
      "midi": 45,
      "hit": false,
      "t": 165428.40599999952,
      "d": 857.1419999999925,
      "v": 103
    },
    {
      "midi": 72,
      "hit": false,
      "t": 166285.54799999946,
      "d": 1714.2840000000142,
      "v": 98
    },
    {
      "midi": 76,
      "hit": false,
      "t": 166285.54799999946,
      "d": 1714.2840000000142,
      "v": 98
    },
    {
      "midi": 81,
      "hit": false,
      "t": 166285.54799999946,
      "d": 1714.2840000000142,
      "v": 108
    },
    {
      "midi": 45,
      "hit": false,
      "t": 166285.54799999952,
      "d": 1714.2840000000142,
      "v": 105
    }
  ]
}