{
  "jsonPath": "Classical/Classical/Wolfgang Amadeus Mozart/twinkle-twinkle-little-star.json",
  "path": "Classical\\Classical\\Wolfgang Amadeus Mozart\\Twinkle Twinkle Little Star.mid",
  "name": "Twinkle Twinkle Little Star",
  "difficulty": "Intermediate",
  "bpm": 110.00011000011,
  "notes": [
    {
      "midi": 60,
      "hit": false,
      "t": 0,
      "d": 545.4540000000001,
      "v": 96
    },
    {
      "midi": 48,
      "hit": false,
      "t": 0,
      "d": 2181.8160000000003,
      "v": 64
    },
    {
      "midi": 52,
      "hit": false,
      "t": 0,
      "d": 2181.8160000000003,
      "v": 64
    },
    {
      "midi": 55,
      "hit": false,
      "t": 0,
      "d": 2181.8160000000003,
      "v": 64
    },
    {
      "midi": 60,
      "hit": false,
      "t": 545.4540000000001,
      "d": 545.4540000000001,
      "v": 96
    },
    {
      "midi": 67,
      "hit": false,
      "t": 1090.9080000000001,
      "d": 545.454,
      "v": 96
    },
    {
      "midi": 67,
      "hit": false,
      "t": 1636.362,
      "d": 545.4540000000002,
      "v": 96
    },
    {
      "midi": 69,
      "hit": false,
      "t": 2181.8160000000003,
      "d": 545.4540000000002,
      "v": 96
    },
    {
      "midi": 48,
      "hit": false,
      "t": 2181.8160000000003,
      "d": 1090.908,
      "v": 64
    },
    {
      "midi": 53,
      "hit": false,
      "t": 2181.8160000000003,
      "d": 1090.908,
      "v": 64
    },
    {
      "midi": 57,
      "hit": false,
      "t": 2181.8160000000003,
      "d": 1090.908,
      "v": 64
    },
    {
      "midi": 69,
      "hit": false,
      "t": 2727.2700000000004,
      "d": 545.4540000000002,
      "v": 96
    },
    {
      "midi": 48,
      "hit": false,
      "t": 3272.724,
      "d": 1090.9080000000004,
      "v": 64
    },
    {
      "midi": 52,
      "hit": false,
      "t": 3272.724,
      "d": 1090.9080000000004,
      "v": 64
    },
    {
      "midi": 55,
      "hit": false,
      "t": 3272.724,
      "d": 1090.9080000000004,
      "v": 64
    },
    {
      "midi": 67,
      "hit": false,
      "t": 3272.7240000000006,
      "d": 1090.908,
      "v": 96
    },
    {
      "midi": 65,
      "hit": false,
      "t": 4363.6320000000005,
      "d": 545.4539999999997,
      "v": 96
    },
    {
      "midi": 47,
      "hit": false,
      "t": 4363.6320000000005,
      "d": 1090.9080000000004,
      "v": 64
    },
    {
      "midi": 53,
      "hit": false,
      "t": 4363.6320000000005,
      "d": 1090.9080000000004,
      "v": 64
    },
    {
      "midi": 55,
      "hit": false,
      "t": 4363.6320000000005,
      "d": 1090.9080000000004,
      "v": 64
    },
    {
      "midi": 65,
      "hit": false,
      "t": 4909.086,
      "d": 545.4539999999997,
      "v": 96
    },
    {
      "midi": 64,
      "hit": false,
      "t": 5454.54,
      "d": 545.4539999999997,
      "v": 96
    },
    {
      "midi": 48,
      "hit": false,
      "t": 5454.540000000001,
      "d": 1090.9080000000004,
      "v": 64
    },
    {
      "midi": 52,
      "hit": false,
      "t": 5454.540000000001,
      "d": 1090.9080000000004,
      "v": 64
    },
    {
      "midi": 55,
      "hit": false,
      "t": 5454.540000000001,
      "d": 1090.9080000000004,
      "v": 64
    },
    {
      "midi": 64,
      "hit": false,
      "t": 5999.994,
      "d": 545.4539999999997,
      "v": 96
    },
    {
      "midi": 62,
      "hit": false,
      "t": 6545.447999999999,
      "d": 545.4539999999997,
      "v": 96
    },
    {
      "midi": 47,
      "hit": false,
      "t": 6545.448000000001,
      "d": 1090.9080000000004,
      "v": 64
    },
    {
      "midi": 53,
      "hit": false,
      "t": 6545.448000000001,
      "d": 1090.9080000000004,
      "v": 64
    },
    {
      "midi": 55,
      "hit": false,
      "t": 6545.448000000001,
      "d": 1090.9080000000004,
      "v": 64
    },
    {
      "midi": 62,
      "hit": false,
      "t": 7090.901999999999,
      "d": 545.4539999999997,
      "v": 96
    },
    {
      "midi": 60,
      "hit": false,
      "t": 7636.355999999999,
      "d": 1090.9080000000004,
      "v": 96
    },
    {
      "midi": 48,
      "hit": false,
      "t": 7636.356000000002,
      "d": 1090.9079999999994,
      "v": 64
    },
    {
      "midi": 52,
      "hit": false,
      "t": 7636.356000000002,
      "d": 1090.9079999999994,
      "v": 64
    },
    {
      "midi": 55,
      "hit": false,
      "t": 7636.356000000002,
      "d": 1090.9079999999994,
      "v": 64
    },
    {
      "midi": 67,
      "hit": false,
      "t": 8727.264,
      "d": 545.4539999999997,
      "v": 96
    },
    {
      "midi": 48,
      "hit": false,
      "t": 8727.264000000001,
      "d": 1090.9079999999994,
      "v": 64
    },
    {
      "midi": 52,
      "hit": false,
      "t": 8727.264000000001,
      "d": 1090.9079999999994,
      "v": 64
    },
    {
      "midi": 55,
      "hit": false,
      "t": 8727.264000000001,
      "d": 1090.9079999999994,
      "v": 64
    },
    {
      "midi": 67,
      "hit": false,
      "t": 9272.717999999999,
      "d": 545.4539999999997,
      "v": 96
    },
    {
      "midi": 65,
      "hit": false,
      "t": 9818.171999999999,
      "d": 545.4539999999997,
      "v": 96
    },
    {
      "midi": 48,
      "hit": false,
      "t": 9818.172,
      "d": 1090.9079999999994,
      "v": 64
    },
    {
      "midi": 53,
      "hit": false,
      "t": 9818.172,
      "d": 1090.9079999999994,
      "v": 64
    },
    {
      "midi": 57,
      "hit": false,
      "t": 9818.172,
      "d": 1090.9079999999994,
      "v": 64
    },
    {
      "midi": 65,
      "hit": false,
      "t": 10363.625999999998,
      "d": 545.4539999999997,
      "v": 96
    },
    {
      "midi": 64,
      "hit": false,
      "t": 10909.079999999998,
      "d": 545.4539999999997,
      "v": 96
    },
    {
      "midi": 48,
      "hit": false,
      "t": 10909.08,
      "d": 1090.9079999999994,
      "v": 64
    },
    {
      "midi": 52,
      "hit": false,
      "t": 10909.08,
      "d": 1090.9079999999994,
      "v": 64
    },
    {
      "midi": 55,
      "hit": false,
      "t": 10909.08,
      "d": 1090.9079999999994,
      "v": 64
    },
    {
      "midi": 64,
      "hit": false,
      "t": 11454.533999999998,
      "d": 545.4539999999997,
      "v": 96
    },
    {
      "midi": 62,
      "hit": false,
      "t": 11999.987999999998,
      "d": 1090.9079999999994,
      "v": 96
    },
    {
      "midi": 47,
      "hit": false,
      "t": 11999.988,
      "d": 1090.9079999999994,
      "v": 64
    },
    {
      "midi": 53,
      "hit": false,
      "t": 11999.988,
      "d": 1090.9079999999994,
      "v": 64
    },
    {
      "midi": 55,
      "hit": false,
      "t": 11999.988,
      "d": 1090.9079999999994,
      "v": 64
    },
    {
      "midi": 67,
      "hit": false,
      "t": 13090.895999999997,
      "d": 545.4539999999997,
      "v": 96
    },
    {
      "midi": 48,
      "hit": false,
      "t": 13090.895999999999,
      "d": 1090.9079999999994,
      "v": 64
    },
    {
      "midi": 52,
      "hit": false,
      "t": 13090.895999999999,
      "d": 1090.9079999999994,
      "v": 64
    },
    {
      "midi": 55,
      "hit": false,
      "t": 13090.895999999999,
      "d": 1090.9079999999994,
      "v": 64
    },
    {
      "midi": 67,
      "hit": false,
      "t": 13636.349999999997,
      "d": 545.4539999999997,
      "v": 96
    },
    {
      "midi": 65,
      "hit": false,
      "t": 14181.803999999996,
      "d": 545.4539999999997,
      "v": 96
    },
    {
      "midi": 48,
      "hit": false,
      "t": 14181.803999999998,
      "d": 1090.9079999999994,
      "v": 64
    },
    {
      "midi": 53,
      "hit": false,
      "t": 14181.803999999998,
      "d": 1090.9079999999994,
      "v": 64
    },
    {
      "midi": 57,
      "hit": false,
      "t": 14181.803999999998,
      "d": 1090.9079999999994,
      "v": 64
    },
    {
      "midi": 65,
      "hit": false,
      "t": 14727.257999999996,
      "d": 545.4539999999997,
      "v": 96
    },
    {
      "midi": 64,
      "hit": false,
      "t": 15272.711999999996,
      "d": 545.4539999999997,
      "v": 96
    },
    {
      "midi": 48,
      "hit": false,
      "t": 15272.711999999998,
      "d": 1090.9079999999994,
      "v": 64
    },
    {
      "midi": 52,
      "hit": false,
      "t": 15272.711999999998,
      "d": 1090.9079999999994,
      "v": 64
    },
    {
      "midi": 55,
      "hit": false,
      "t": 15272.711999999998,
      "d": 1090.9079999999994,
      "v": 64
    },
    {
      "midi": 64,
      "hit": false,
      "t": 15818.165999999996,
      "d": 545.4539999999997,
      "v": 96
    },
    {
      "midi": 62,
      "hit": false,
      "t": 16363.619999999995,
      "d": 1090.9079999999994,
      "v": 96
    },
    {
      "midi": 47,
      "hit": false,
      "t": 16363.619999999997,
      "d": 1090.9080000000013,
      "v": 64
    },
    {
      "midi": 53,
      "hit": false,
      "t": 16363.619999999997,
      "d": 1090.9080000000013,
      "v": 64
    },
    {
      "midi": 55,
      "hit": false,
      "t": 16363.619999999997,
      "d": 1090.9080000000013,
      "v": 64
    },
    {
      "midi": 60,
      "hit": false,
      "t": 17454.527999999995,
      "d": 545.4540000000015,
      "v": 96
    },
    {
      "midi": 48,
      "hit": false,
      "t": 17454.528,
      "d": 2181.815999999999,
      "v": 64
    },
    {
      "midi": 52,
      "hit": false,
      "t": 17454.528,
      "d": 2181.815999999999,
      "v": 64
    },
    {
      "midi": 55,
      "hit": false,
      "t": 17454.528,
      "d": 2181.815999999999,
      "v": 64
    },
    {
      "midi": 60,
      "hit": false,
      "t": 17999.981999999996,
      "d": 545.4540000000015,
      "v": 96
    },
    {
      "midi": 67,
      "hit": false,
      "t": 18545.435999999998,
      "d": 545.4540000000015,
      "v": 96
    },
    {
      "midi": 67,
      "hit": false,
      "t": 19090.89,
      "d": 545.4540000000015,
      "v": 96
    },
    {
      "midi": 48,
      "hit": false,
      "t": 19636.343999999997,
      "d": 1090.9079999999994,
      "v": 64
    },
    {
      "midi": 53,
      "hit": false,
      "t": 19636.343999999997,
      "d": 1090.9079999999994,
      "v": 64
    },
    {
      "midi": 57,
      "hit": false,
      "t": 19636.343999999997,
      "d": 1090.9079999999994,
      "v": 64
    },
    {
      "midi": 69,
      "hit": false,
      "t": 19636.344,
      "d": 545.4540000000015,
      "v": 96
    },
    {
      "midi": 69,
      "hit": false,
      "t": 20181.798000000003,
      "d": 545.4540000000015,
      "v": 96
    },
    {
      "midi": 48,
      "hit": false,
      "t": 20727.251999999997,
      "d": 1090.9079999999994,
      "v": 64
    },
    {
      "midi": 52,
      "hit": false,
      "t": 20727.251999999997,
      "d": 1090.9079999999994,
      "v": 64
    },
    {
      "midi": 55,
      "hit": false,
      "t": 20727.251999999997,
      "d": 1090.9079999999994,
      "v": 64
    },
    {
      "midi": 67,
      "hit": false,
      "t": 20727.252000000004,
      "d": 1090.9079999999994,
      "v": 96
    },
    {
      "midi": 47,
      "hit": false,
      "t": 21818.159999999996,
      "d": 1090.9079999999994,
      "v": 64
    },
    {
      "midi": 53,
      "hit": false,
      "t": 21818.159999999996,
      "d": 1090.9079999999994,
      "v": 64
    },
    {
      "midi": 55,
      "hit": false,
      "t": 21818.159999999996,
      "d": 1090.9079999999994,
      "v": 64
    },
    {
      "midi": 65,
      "hit": false,
      "t": 21818.160000000003,
      "d": 545.4540000000015,
      "v": 96
    },
    {
      "midi": 65,
      "hit": false,
      "t": 22363.614000000005,
      "d": 545.4540000000015,
      "v": 96
    },
    {
      "midi": 48,
      "hit": false,
      "t": 22909.067999999996,
      "d": 1090.9079999999994,
      "v": 64
    },
    {
      "midi": 52,
      "hit": false,
      "t": 22909.067999999996,
      "d": 1090.9079999999994,
      "v": 64
    },
    {
      "midi": 55,
      "hit": false,
      "t": 22909.067999999996,
      "d": 1090.9079999999994,
      "v": 64
    },
    {
      "midi": 64,
      "hit": false,
      "t": 22909.068000000007,
      "d": 545.4540000000015,
      "v": 96
    },
    {
      "midi": 64,
      "hit": false,
      "t": 23454.522000000008,
      "d": 545.4540000000015,
      "v": 96
    },
    {
      "midi": 47,
      "hit": false,
      "t": 23999.975999999995,
      "d": 1090.9079999999994,
      "v": 64
    },
    {
      "midi": 53,
      "hit": false,
      "t": 23999.975999999995,
      "d": 1090.9079999999994,
      "v": 64
    },
    {
      "midi": 55,
      "hit": false,
      "t": 23999.975999999995,
      "d": 1090.9079999999994,
      "v": 64
    },
    {
      "midi": 62,
      "hit": false,
      "t": 23999.97600000001,
      "d": 545.4540000000015,
      "v": 96
    },
    {
      "midi": 62,
      "hit": false,
      "t": 24545.43000000001,
      "d": 545.4540000000015,
      "v": 96
    },
    {
      "midi": 48,
      "hit": false,
      "t": 25090.883999999995,
      "d": 1090.9079999999994,
      "v": 64
    },
    {
      "midi": 52,
      "hit": false,
      "t": 25090.883999999995,
      "d": 1090.9079999999994,
      "v": 64
    },
    {
      "midi": 55,
      "hit": false,
      "t": 25090.883999999995,
      "d": 1090.9079999999994,
      "v": 64
    },
    {
      "midi": 60,
      "hit": false,
      "t": 25090.884000000013,
      "d": 1090.9079999999994,
      "v": 96
    }
  ]
}