{
  "jsonPath": "Pop/C-Pop/Jacky Cheung/ai-shi-yong-heng.json",
  "path": "Pop\\C-Pop\\Jacky Cheung\\Ai Shi Yong Heng.mid",
  "name": "Ai Shi Yong Heng",
  "difficulty": "Advanced",
  "bpm": 60,
  "notes": [
    {
      "midi": 51,
      "hit": false,
      "t": 5317.107629166667,
      "d": 5066.370237499999,
      "v": 50
    },
    {
      "midi": 58,
      "hit": false,
      "t": 5390.853920833333,
      "d": 5036.871720833333,
      "v": 55
    },
    {
      "midi": 60,
      "hit": false,
      "t": 5486.724099999999,
      "d": 818.5838374999994,
      "v": 61
    },
    {
      "midi": 65,
      "hit": false,
      "t": 5589.968908333332,
      "d": 545.7225583333329,
      "v": 67
    },
    {
      "midi": 67,
      "hit": false,
      "t": 6039.821287499999,
      "d": 545.7225583333329,
      "v": 51
    },
    {
      "midi": 72,
      "hit": false,
      "t": 6511.797554166666,
      "d": 516.2240416666664,
      "v": 59
    },
    {
      "midi": 67,
      "hit": false,
      "t": 6976.3991916666655,
      "d": 3495.5742250000003,
      "v": 44
    },
    {
      "midi": 63,
      "hit": false,
      "t": 10612.091370833332,
      "d": 1622.4184166666637,
      "v": 39
    },
    {
      "midi": 70,
      "hit": false,
      "t": 10641.589887499998,
      "d": 1710.9139666666633,
      "v": 44
    },
    {
      "midi": 75,
      "hit": false,
      "t": 10730.085437499998,
      "d": 958.7017916666664,
      "v": 37
    },
    {
      "midi": 79,
      "hit": false,
      "t": 10811.206358333331,
      "d": 1150.442149999999,
      "v": 40
    },
    {
      "midi": 82,
      "hit": false,
      "t": 10951.324312499997,
      "d": 973.4510499999997,
      "v": 67
    },
    {
      "midi": 86,
      "hit": false,
      "t": 11710.911116666664,
      "d": 479.3508958333314,
      "v": 56
    },
    {
      "midi": 63,
      "hit": false,
      "t": 12345.129224999995,
      "d": 2005.8991333333324,
      "v": 34
    },
    {
      "midi": 68,
      "hit": false,
      "t": 12367.253112499995,
      "d": 1969.0259874999992,
      "v": 34
    },
    {
      "midi": 72,
      "hit": false,
      "t": 12374.627741666662,
      "d": 1622.4184166666655,
      "v": 47
    },
    {
      "midi": 79,
      "hit": false,
      "t": 12404.126258333328,
      "d": 1489.675091666666,
      "v": 52
    },
    {
      "midi": 84,
      "hit": false,
      "t": 13045.718995833327,
      "d": 818.5838375000003,
      "v": 67
    },
    {
      "midi": 63,
      "hit": false,
      "t": 15811.204933333327,
      "d": 1688.7900791666652,
      "v": 29
    },
    {
      "midi": 70,
      "hit": false,
      "t": 15921.824370833327,
      "d": 1430.678058333333,
      "v": 54
    },
    {
      "midi": 75,
      "hit": false,
      "t": 16010.319920833326,
      "d": 457.2270083333333,
      "v": 30
    },
    {
      "midi": 79,
      "hit": false,
      "t": 16084.066212499993,
      "d": 479.350895833335,
      "v": 67
    },
    {
      "midi": 82,
      "hit": false,
      "t": 16216.809537499992,
      "d": 479.350895833335,
      "v": 61
    },
    {
      "midi": 89,
      "hit": false,
      "t": 16895.275420833328,
      "d": 309.73442499999874,
      "v": 70
    },
    {
      "midi": 68,
      "hit": false,
      "t": 17979.345908333325,
      "d": 1902.6543249999995,
      "v": 54
    },
    {
      "midi": 72,
      "hit": false,
      "t": 18008.844424999992,
      "d": 1902.6543249999995,
      "v": 54
    },
    {
      "midi": 79,
      "hit": false,
      "t": 18030.968312499994,
      "d": 1747.7871124999983,
      "v": 58
    },
    {
      "midi": 84,
      "hit": false,
      "t": 18510.319208333327,
      "d": 1017.6988249999995,
      "v": 70
    },
    {
      "midi": 46,
      "hit": false,
      "t": 23016.217629166662,
      "d": 1637.1676750000042,
      "v": 44
    },
    {
      "midi": 53,
      "hit": false,
      "t": 23045.71614583333,
      "d": 1401.1795416666682,
      "v": 26
    },
    {
      "midi": 57,
      "hit": false,
      "t": 23082.589291666663,
      "d": 1371.6810250000017,
      "v": 34
    },
    {
      "midi": 62,
      "hit": false,
      "t": 23126.837066666663,
      "d": 471.9762666666684,
      "v": 42
    },
    {
      "midi": 65,
      "hit": false,
      "t": 23185.834099999996,
      "d": 486.72552500000165,
      "v": 52
    },
    {
      "midi": 70,
      "hit": false,
      "t": 23311.20279583333,
      "d": 376.1060875000003,
      "v": 52
    },
    {
      "midi": 77,
      "hit": false,
      "t": 23790.553691666664,
      "d": 221.2388749999991,
      "v": 74
    },
    {
      "midi": 77,
      "hit": false,
      "t": 24188.783666666663,
      "d": 228.61350416666755,
      "v": 74
    },
    {
      "midi": 67,
      "hit": false,
      "t": 24542.765866666665,
      "d": 250.73739166666928,
      "v": 61
    },
    {
      "midi": 51,
      "hit": false,
      "t": 24940.995841666667,
      "d": 2352.5067041666734,
      "v": 37
    },
    {
      "midi": 55,
      "hit": false,
      "t": 24948.370470833335,
      "d": 2286.1350416666683,
      "v": 47
    },
    {
      "midi": 67,
      "hit": false,
      "t": 24955.745100000004,
      "d": 398.229975000002,
      "v": 57
    },
    {
      "midi": 62,
      "hit": false,
      "t": 24955.745100000004,
      "d": 2286.1350416666683,
      "v": 52
    },
    {
      "midi": 74,
      "hit": false,
      "t": 25317.10192916667,
      "d": 420.3538625000001,
      "v": 55
    },
    {
      "midi": 74,
      "hit": false,
      "t": 25855.449858333337,
      "d": 1268.4362166666651,
      "v": 55
    },
    {
      "midi": 82,
      "hit": false,
      "t": 28458.693954166672,
      "d": 737.4629166666673,
      "v": 37
    },
    {
      "midi": 74,
      "hit": false,
      "t": 28502.941729166672,
      "d": 730.0882875000025,
      "v": 28
    },
    {
      "midi": 65,
      "hit": false,
      "t": 28539.814875000007,
      "d": 707.9644000000008,
      "v": 26
    },
    {
      "midi": 86,
      "hit": false,
      "t": 29336.274825000008,
      "d": 626.8434791666659,
      "v": 39
    },
    {
      "midi": 75,
      "hit": false,
      "t": 30066.363112500007,
      "d": 1725.6632250000002,
      "v": 14
    },
    {
      "midi": 79,
      "hit": false,
      "t": 30081.11237083334,
      "d": 582.5957041666661,
      "v": 28
    },
    {
      "midi": 70,
      "hit": false,
      "t": 30095.861629166673,
      "d": 1253.6869583333355,
      "v": 23
    },
    {
      "midi": 82,
      "hit": false,
      "t": 30700.58122083334,
      "d": 516.2240416666682,
      "v": 24
    },
    {
      "midi": 70,
      "hit": false,
      "t": 32868.72219583334,
      "d": 361.356829166667,
      "v": 67
    },
    {
      "midi": 72,
      "hit": false,
      "t": 33193.20587916667,
      "d": 213.86424583333428,
      "v": 61
    },
    {
      "midi": 70,
      "hit": false,
      "t": 33333.32383333334,
      "d": 206.48961666666582,
      "v": 51
    },
    {
      "midi": 67,
      "hit": false,
      "t": 33451.31790000001,
      "d": 243.36276250000083,
      "v": 49
    },
    {
      "midi": 65,
      "hit": false,
      "t": 33569.311966666675,
      "d": 235.98813333333965,
      "v": 46
    },
    {
      "midi": 46,
      "hit": false,
      "t": 33702.05529166668,
      "d": 1659.2915625000023,
      "v": 24
    },
    {
      "midi": 57,
      "hit": false,
      "t": 33709.42992083335,
      "d": 1526.5482374999992,
      "v": 26
    },
    {
      "midi": 53,
      "hit": false,
      "t": 33724.179179166684,
      "d": 1563.4213833333342,
      "v": 24
    },
    {
      "midi": 62,
      "hit": false,
      "t": 33753.67769583335,
      "d": 523.5986708333294,
      "v": 29
    },
    {
      "midi": 70,
      "hit": false,
      "t": 33775.80158333335,
      "d": 302.3597958333339,
      "v": 52
    },
    {
      "midi": 77,
      "hit": false,
      "t": 34188.78081666668,
      "d": 250.73739166666928,
      "v": 74
    },
    {
      "midi": 77,
      "hit": false,
      "t": 34594.38542083335,
      "d": 258.11202083333046,
      "v": 74
    },
    {
      "midi": 67,
      "hit": false,
      "t": 34999.990025000014,
      "d": 280.23590833333583,
      "v": 61
    },
    {
      "midi": 51,
      "hit": false,
      "t": 35464.59166250002,
      "d": 2323.008187499996,
      "v": 37
    },
    {
      "midi": 55,
      "hit": false,
      "t": 35471.966291666686,
      "d": 2264.011154166663,
      "v": 47
    },
    {
      "midi": 67,
      "hit": false,
      "t": 35501.46480833335,
      "d": 390.85534583333356,
      "v": 57
    },
    {
      "midi": 62,
      "hit": false,
      "t": 35501.46480833335,
      "d": 2264.011154166663,
      "v": 52
    },
    {
      "midi": 74,
      "hit": false,
      "t": 35907.06941250002,
      "d": 412.97923333333165,
      "v": 48
    },
    {
      "midi": 74,
      "hit": false,
      "t": 36401.169566666686,
      "d": 1253.6869583333319,
      "v": 55
    },
    {
      "midi": 82,
      "hit": false,
      "t": 39048.66143750001,
      "d": 766.9614333333375,
      "v": 47
    },
    {
      "midi": 65,
      "hit": false,
      "t": 39078.15995416668,
      "d": 1150.4421500000026,
      "v": 19
    },
    {
      "midi": 74,
      "hit": false,
      "t": 39085.53458333335,
      "d": 1246.3123291666707,
      "v": 31
    },
    {
      "midi": 89,
      "hit": false,
      "t": 39874.619904166684,
      "d": 752.2121750000006,
      "v": 37
    },
    {
      "midi": 79,
      "hit": false,
      "t": 40663.70522500002,
      "d": 693.2151416666748,
      "v": 35
    },
    {
      "midi": 70,
      "hit": false,
      "t": 40693.203741666686,
      "d": 1430.6780583333457,
      "v": 27
    },
    {
      "midi": 75,
      "hit": false,
      "t": 40707.95300000002,
      "d": 1806.7841458333423,
      "v": 29
    },
    {
      "midi": 91,
      "hit": false,
      "t": 41504.41295000003,
      "d": 494.1001541666701,
      "v": 42
    },
    {
      "midi": 63,
      "hit": false,
      "t": 44380.518325000034,
      "d": 855.4569833333298,
      "v": 71
    },
    {
      "midi": 65,
      "hit": false,
      "t": 45014.73643333337,
      "d": 280.23590833332855,
      "v": 60
    },
    {
      "midi": 67,
      "hit": false,
      "t": 45213.851420833365,
      "d": 184.36572916666773,
      "v": 65
    },
    {
      "midi": 68,
      "hit": false,
      "t": 45361.3440041667,
      "d": 213.86424583333428,
      "v": 63
    },
    {
      "midi": 70,
      "hit": false,
      "t": 45464.588812500035,
      "d": 147.49258333333273,
      "v": 64
    },
    {
      "midi": 72,
      "hit": false,
      "t": 45663.70380000003,
      "d": 184.36572916666773,
      "v": 61
    },
    {
      "midi": 73,
      "hit": false,
      "t": 45774.32323750003,
      "d": 154.8672125000012,
      "v": 58
    },
    {
      "midi": 75,
      "hit": false,
      "t": 45907.06656250003,
      "d": 199.11498749999737,
      "v": 59
    },
    {
      "midi": 49,
      "hit": false,
      "t": 46017.68600000003,
      "d": 1622.4184166666746,
      "v": 66
    },
    {
      "midi": 77,
      "hit": false,
      "t": 46069.308404166695,
      "d": 250.73739166666928,
      "v": 45
    },
    {
      "midi": 84,
      "hit": false,
      "t": 46511.7861541667,
      "d": 324.483683333332,
      "v": 78
    },
    {
      "midi": 54,
      "hit": false,
      "t": 46511.7861541667,
      "d": 545.7225583333347,
      "v": 52
    },
    {
      "midi": 60,
      "hit": false,
      "t": 46976.3877916667,
      "d": 862.8316125000129,
      "v": 70
    },
    {
      "midi": 84,
      "hit": false,
      "t": 46991.137050000034,
      "d": 287.6105375000043,
      "v": 89
    },
    {
      "midi": 63,
      "hit": false,
      "t": 47433.61480000004,
      "d": 597.3449625000067,
      "v": 39
    },
    {
      "midi": 75,
      "hit": false,
      "t": 47440.98942916671,
      "d": 265.4866499999989,
      "v": 76
    },
    {
      "midi": 42,
      "hit": false,
      "t": 47876.092550000045,
      "d": 3908.55345833335,
      "v": 64
    },
    {
      "midi": 66,
      "hit": false,
      "t": 47912.96569583338,
      "d": 1607.6691583333377,
      "v": 42
    },
    {
      "midi": 75,
      "hit": false,
      "t": 47920.34032500005,
      "d": 272.8612791666674,
      "v": 74
    },
    {
      "midi": 80,
      "hit": false,
      "t": 48429.18973750005,
      "d": 324.483683333332,
      "v": 70
    },
    {
      "midi": 80,
      "hit": false,
      "t": 49033.909329166716,
      "d": 1703.5393374999985,
      "v": 81
    },
    {
      "midi": 77,
      "hit": false,
      "t": 50759.57255416671,
      "d": 103.24480833333655,
      "v": 59
    },
    {
      "midi": 78,
      "hit": false,
      "t": 50877.566620833386,
      "d": 154.8672125000012,
      "v": 60
    },
    {
      "midi": 77,
      "hit": false,
      "t": 51017.68457500005,
      "d": 95.8701791666681,
      "v": 56
    },
    {
      "midi": 75,
      "hit": false,
      "t": 51179.92641666672,
      "d": 221.23887500001,
      "v": 53
    },
    {
      "midi": 49,
      "hit": false,
      "t": 51305.295112500055,
      "d": 1216.8138125000041,
      "v": 53
    },
    {
      "midi": 77,
      "hit": false,
      "t": 51349.54288750006,
      "d": 287.6105375000043,
      "v": 64
    },
    {
      "midi": 84,
      "hit": false,
      "t": 51688.77582916673,
      "d": 243.36276250000083,
      "v": 70
    },
    {
      "midi": 84,
      "hit": false,
      "t": 52131.253579166725,
      "d": 243.36276250000083,
      "v": 78
    },
    {
      "midi": 75,
      "hit": false,
      "t": 52610.60447500006,
      "d": 317.10905416667083,
      "v": 78
    },
    {
      "midi": 42,
      "hit": false,
      "t": 53053.082225000064,
      "d": 2758.1113083333476,
      "v": 56
    },
    {
      "midi": 75,
      "hit": false,
      "t": 53089.9553708334,
      "d": 383.4807166666651,
      "v": 78
    },
    {
      "midi": 80,
      "hit": false,
      "t": 53488.1853458334,
      "d": 191.7403583333362,
      "v": 70
    },
    {
      "midi": 80,
      "hit": false,
      "t": 53974.9108708334,
      "d": 361.356829166667,
      "v": 71
    },
    {
      "midi": 73,
      "hit": false,
      "t": 54417.3886208334,
      "d": 501.47478333333856,
      "v": 56
    },
    {
      "midi": 59,
      "hit": false,
      "t": 54904.1141458334,
      "d": 3554.571258333366,
      "v": 37
    },
    {
      "midi": 75,
      "hit": false,
      "t": 54933.612662500076,
      "d": 685.840512499999,
      "v": 49
    },
    {
      "midi": 85,
      "hit": false,
      "t": 55803.81890416674,
      "d": 752.2121750000006,
      "v": 56
    },
    {
      "midi": 70,
      "hit": false,
      "t": 56659.27588750008,
      "d": 1157.8167791666783,
      "v": 31
    },
    {
      "midi": 85,
      "hit": false,
      "t": 56674.02514583342,
      "d": 766.9614333333375,
      "v": 56
    },
    {
      "midi": 65,
      "hit": false,
      "t": 56681.399775000085,
      "d": 1106.1943750000064,
      "v": 31
    },
    {
      "midi": 66,
      "hit": false,
      "t": 56696.14903333342,
      "d": 1135.692891666673,
      "v": 31
    },
    {
      "midi": 82,
      "hit": false,
      "t": 57544.23138750009,
      "d": 766.9614333333375,
      "v": 56
    },
    {
      "midi": 75,
      "hit": false,
      "t": 58392.31374166677,
      "d": 803.8345791666725,
      "v": 60
    },
    {
      "midi": 52,
      "hit": false,
      "t": 58436.56151666677,
      "d": 1371.6810250000053,
      "v": 40
    },
    {
      "midi": 82,
      "hit": false,
      "t": 59240.39609583344,
      "d": 707.9643999999971,
      "v": 60
    },
    {
      "midi": 78,
      "hit": false,
      "t": 59977.85901250011,
      "d": 626.8434791666659,
      "v": 60
    },
    {
      "midi": 66,
      "hit": false,
      "t": 60029.48141666677,
      "d": 2116.5185708333374,
      "v": 36
    },
    {
      "midi": 75,
      "hit": false,
      "t": 60582.578604166774,
      "d": 339.23294166666165,
      "v": 78
    },
    {
      "midi": 70,
      "hit": false,
      "t": 61084.053387500106,
      "d": 103.24480833333655,
      "v": 64
    },
    {
      "midi": 68,
      "hit": false,
      "t": 61578.153541666776,
      "d": 272.8612791666674,
      "v": 81
    },
    {
      "midi": 63,
      "hit": false,
      "t": 61939.51037083344,
      "d": 169.61647083333082,
      "v": 72
    },
    {
      "midi": 70,
      "hit": false,
      "t": 62411.48663750011,
      "d": 287.610537499997,
      "v": 78
    },
    {
      "midi": 68,
      "hit": false,
      "t": 62824.46587083344,
      "d": 265.4866499999989,
      "v": 71
    },
    {
      "midi": 66,
      "hit": false,
      "t": 63274.318250000106,
      "d": 228.61350416666392,
      "v": 81
    },
    {
      "midi": 61,
      "hit": false,
      "t": 63702.04674166677,
      "d": 213.86424583333428,
      "v": 72
    },
    {
      "midi": 66,
      "hit": false,
      "t": 64174.02300833343,
      "d": 508.84941249999974,
      "v": 65
    },
    {
      "midi": 63,
      "hit": false,
      "t": 64623.8753875001,
      "d": 486.7255249999944,
      "v": 67
    },
    {
      "midi": 61,
      "hit": false,
      "t": 65058.97850833343,
      "d": 383.4807166666651,
      "v": 63
    },
    {
      "midi": 58,
      "hit": false,
      "t": 65494.08162916676,
      "d": 398.22997499999474,
      "v": 81
    },
    {
      "midi": 63,
      "hit": false,
      "t": 65943.93400833342,
      "d": 530.9732999999978,
      "v": 71
    },
    {
      "midi": 61,
      "hit": false,
      "t": 66364.28787083342,
      "d": 700.5897708333505,
      "v": 74
    },
    {
      "midi": 58,
      "hit": false,
      "t": 66799.39099166676,
      "d": 589.9703333333455,
      "v": 67
    },
    {
      "midi": 54,
      "hit": false,
      "t": 67241.86874166677,
      "d": 280.2359083333431,
      "v": 78
    },
    {
      "midi": 58,
      "hit": false,
      "t": 67684.34649166677,
      "d": 626.8434791666659,
      "v": 75
    },
    {
      "midi": 56,
      "hit": false,
      "t": 68156.32275833344,
      "d": 567.8464458333328,
      "v": 81
    },
    {
      "midi": 54,
      "hit": false,
      "t": 68606.1751375001,
      "d": 567.8464458333328,
      "v": 72
    },
    {
      "midi": 49,
      "hit": false,
      "t": 69019.15437083344,
      "d": 449.85237916666665,
      "v": 90
    },
    {
      "midi": 54,
      "hit": false,
      "t": 69454.25749166677,
      "d": 545.7225583333347,
      "v": 81
    },
    {
      "midi": 51,
      "hit": false,
      "t": 69918.85912916677,
      "d": 457.22700833332783,
      "v": 82
    },
    {
      "midi": 49,
      "hit": false,
      "t": 70339.21299166676,
      "d": 508.84941249999974,
      "v": 77
    },
    {
      "midi": 46,
      "hit": false,
      "t": 70781.69074166677,
      "d": 457.22700833332783,
      "v": 94
    },
    {
      "midi": 51,
      "hit": false,
      "t": 71238.9177500001,
      "d": 464.601637499989,
      "v": 84
    },
    {
      "midi": 49,
      "hit": false,
      "t": 71696.14475833342,
      "d": 464.601637499989,
      "v": 80
    },
    {
      "midi": 46,
      "hit": false,
      "t": 72138.62250833341,
      "d": 464.60163750000356,
      "v": 77
    },
    {
      "midi": 42,
      "hit": false,
      "t": 72566.35100000008,
      "d": 626.8434791666659,
      "v": 91
    },
    {
      "midi": 46,
      "hit": false,
      "t": 73001.45412083341,
      "d": 560.4718166666717,
      "v": 93
    },
    {
      "midi": 44,
      "hit": false,
      "t": 73466.05575833342,
      "d": 560.4718166666717,
      "v": 100
    },
    {
      "midi": 42,
      "hit": false,
      "t": 73886.40962083342,
      "d": 560.4718166666717,
      "v": 111
    },
    {
      "midi": 39,
      "hit": false,
      "t": 74328.88737083343,
      "d": 9520.646254166684,
      "v": 127
    },
    {
      "midi": 70,
      "hit": false,
      "t": 75671.06987916677,
      "d": 516.2240416666755,
      "v": 52
    },
    {
      "midi": 77,
      "hit": false,
      "t": 76113.54762916677,
      "d": 442.47775000000547,
      "v": 72
    },
    {
      "midi": 70,
      "hit": false,
      "t": 76533.90149166678,
      "d": 390.85534583333356,
      "v": 57
    },
    {
      "midi": 65,
      "hit": false,
      "t": 76998.50312916678,
      "d": 494.10015416666283,
      "v": 61
    },
    {
      "midi": 67,
      "hit": false,
      "t": 77455.73013750011,
      "d": 479.3508958333259,
      "v": 54
    },
    {
      "midi": 74,
      "hit": false,
      "t": 77890.83325833344,
      "d": 1379.0556541666592,
      "v": 60
    },
    {
      "midi": 48,
      "hit": false,
      "t": 77898.2078875001,
      "d": 3296.459237499992,
      "v": 59
    },
    {
      "midi": 55,
      "hit": false,
      "t": 78311.18712083343,
      "d": 803.8345791666652,
      "v": 30
    },
    {
      "midi": 60,
      "hit": false,
      "t": 78761.0395000001,
      "d": 471.97626666666474,
      "v": 36
    },
    {
      "midi": 63,
      "hit": false,
      "t": 79196.14262083343,
      "d": 435.10312083332974,
      "v": 48
    },
    {
      "midi": 70,
      "hit": false,
      "t": 79668.1188875001,
      "d": 1113.5690041666676,
      "v": 65
    },
    {
      "midi": 58,
      "hit": false,
      "t": 80088.47275000009,
      "d": 317.10905416666355,
      "v": 32
    },
    {
      "midi": 58,
      "hit": false,
      "t": 80553.07438750009,
      "d": 523.5986708333367,
      "v": 45
    },
    {
      "midi": 60,
      "hit": false,
      "t": 80958.67899166676,
      "d": 538.347929166659,
      "v": 54
    },
    {
      "midi": 44,
      "hit": false,
      "t": 81415.90600000009,
      "d": 3466.0757083333447,
      "v": 56
    },
    {
      "midi": 67,
      "hit": false,
      "t": 81438.02988750009,
      "d": 1172.5660375000152,
      "v": 70
    },
    {
      "midi": 51,
      "hit": false,
      "t": 81843.63449166676,
      "d": 390.85534583333356,
      "v": 39
    },
    {
      "midi": 56,
      "hit": false,
      "t": 82322.9853875001,
      "d": 235.98813333333237,
      "v": 30
    },
    {
      "midi": 56,
      "hit": false,
      "t": 82735.96462083343,
      "d": 390.85534583333356,
      "v": 58
    },
    {
      "midi": 63,
      "hit": false,
      "t": 83178.44237083344,
      "d": 1467.5512041666661,
      "v": 72
    },
    {
      "midi": 51,
      "hit": false,
      "t": 83643.04400833344,
      "d": 390.85534583333356,
      "v": 38
    },
    {
      "midi": 53,
      "hit": false,
      "t": 84070.77250000011,
      "d": 361.35682916665974,
      "v": 48
    },
    {
      "midi": 56,
      "hit": false,
      "t": 84505.87562083344,
      "d": 317.10905416666355,
      "v": 55
    },
    {
      "midi": 60,
      "hit": false,
      "t": 84955.7280000001,
      "d": 1651.9169333333266,
      "v": 62
    },
    {
      "midi": 46,
      "hit": false,
      "t": 84963.10262916677,
      "d": 1784.6602583333297,
      "v": 66
    },
    {
      "midi": 58,
      "hit": false,
      "t": 85405.58037916676,
      "d": 457.2270083333424,
      "v": 46
    },
    {
      "midi": 53,
      "hit": false,
      "t": 85848.05812916676,
      "d": 302.3597958333412,
      "v": 56
    },
    {
      "midi": 58,
      "hit": false,
      "t": 86305.2851375001,
      "d": 486.7255249999871,
      "v": 33
    },
    {
      "midi": 60,
      "hit": false,
      "t": 86740.38825833343,
      "d": 169.61647083332355,
      "v": 56
    },
    {
      "midi": 62,
      "hit": false,
      "t": 86851.00769583342,
      "d": 2234.5126374999963,
      "v": 56
    },
    {
      "midi": 46,
      "hit": false,
      "t": 87625.34375833343,
      "d": 1157.8167791666638,
      "v": 52
    },
    {
      "midi": 55,
      "hit": false,
      "t": 107942.44711250009,
      "d": 730.0882874999807,
      "v": 22
    },
    {
      "midi": 63,
      "hit": false,
      "t": 107949.82174166675,
      "d": 789.0853208333137,
      "v": 22
    },
    {
      "midi": 39,
      "hit": false,
      "t": 107971.94562916674,
      "d": 7013.272337499977,
      "v": 31
    },
    {
      "midi": 51,
      "hit": false,
      "t": 107979.3202583334,
      "d": 6976.399191666642,
      "v": 16
    },
    {
      "midi": 58,
      "hit": false,
      "t": 107986.69488750007,
      "d": 766.9614333333302,
      "v": 33
    },
    {
      "midi": 55,
      "hit": false,
      "t": 109727.1073708334,
      "d": 707.9643999999971,
      "v": 30
    },
    {
      "midi": 63,
      "hit": false,
      "t": 109741.85662916674,
      "d": 663.7166249999864,
      "v": 26
    },
    {
      "midi": 58,
      "hit": false,
      "t": 109749.2312583334,
      "d": 648.967366666664,
      "v": 34
    },
    {
      "midi": 55,
      "hit": false,
      "t": 111489.64374166673,
      "d": 1025.0734541666607,
      "v": 25
    },
    {
      "midi": 58,
      "hit": false,
      "t": 111497.0183708334,
      "d": 1076.6958583333326,
      "v": 31
    },
    {
      "midi": 63,
      "hit": false,
      "t": 111519.14225833339,
      "d": 1002.9495666666626,
      "v": 15
    },
    {
      "midi": 55,
      "hit": false,
      "t": 113259.55474166673,
      "d": 538.347929166659,
      "v": 60
    },
    {
      "midi": 58,
      "hit": false,
      "t": 113731.53100833339,
      "d": 368.7314583333209,
      "v": 75
    },
    {
      "midi": 63,
      "hit": false,
      "t": 114166.6341291667,
      "d": 685.840512499999,
      "v": 96
    },
    {
      "midi": 56,
      "hit": false,
      "t": 115029.46574166672,
      "d": 995.5749374999868,
      "v": 15
    },
    {
      "midi": 51,
      "hit": false,
      "t": 115051.58962916672,
      "d": 7146.015662499965,
      "v": 15
    },
    {
      "midi": 39,
      "hit": false,
      "t": 115058.96425833338,
      "d": 7219.761954166635,
      "v": 15
    },
    {
      "midi": 60,
      "hit": false,
      "t": 115066.33888750004,
      "d": 811.2092083333264,
      "v": 40
    },
    {
      "midi": 63,
      "hit": false,
      "t": 115066.33888750004,
      "d": 958.7017916666664,
      "v": 23
    },
    {
      "midi": 60,
      "hit": false,
      "t": 116799.37674166671,
      "d": 833.3330958333245,
      "v": 35
    },
    {
      "midi": 56,
      "hit": false,
      "t": 116821.50062916671,
      "d": 1120.9436333333288,
      "v": 35
    },
    {
      "midi": 63,
      "hit": false,
      "t": 116828.87525833337,
      "d": 907.0793874999945,
      "v": 35
    },
    {
      "midi": 60,
      "hit": false,
      "t": 118576.66237083336,
      "d": 840.7077249999857,
      "v": 29
    },
    {
      "midi": 63,
      "hit": false,
      "t": 118598.78625833336,
      "d": 943.9525333333149,
      "v": 29
    },
    {
      "midi": 56,
      "hit": false,
      "t": 118606.16088750002,
      "d": 1054.57197083332,
      "v": 29
    },
    {
      "midi": 53,
      "hit": false,
      "t": 120361.32262916668,
      "d": 648.967366666664,
      "v": 46
    },
    {
      "midi": 56,
      "hit": false,
      "t": 120789.05112083335,
      "d": 427.72849166666856,
      "v": 56
    },
    {
      "midi": 60,
      "hit": false,
      "t": 121231.52887083335,
      "d": 353.98219999999856,
      "v": 70
    },
    {
      "midi": 53,
      "hit": false,
      "t": 121666.63199166668,
      "d": 228.6135041666712,
      "v": 44
    },
    {
      "midi": 53,
      "hit": false,
      "t": 122109.10974166669,
      "d": 1327.4332499999873,
      "v": 49
    },
    {
      "midi": 62,
      "hit": false,
      "t": 122109.10974166669,
      "d": 1349.5571374999854,
      "v": 67
    },
    {
      "midi": 58,
      "hit": false,
      "t": 122116.48437083335,
      "d": 1379.0556541666592,
      "v": 40
    },
    {
      "midi": 46,
      "hit": false,
      "t": 122138.60825833335,
      "d": 6659.290137500007,
      "v": 33
    },
    {
      "midi": 58,
      "hit": false,
      "t": 123879.02074166668,
      "d": 1106.1943750000064,
      "v": 43
    },
    {
      "midi": 53,
      "hit": false,
      "t": 123901.14462916668,
      "d": 1054.5719708333345,
      "v": 43
    },
    {
      "midi": 62,
      "hit": false,
      "t": 123908.51925833334,
      "d": 1032.4480833333364,
      "v": 43
    },
    {
      "midi": 53,
      "hit": false,
      "t": 125663.68100000003,
      "d": 545.7225583333347,
      "v": 51
    },
    {
      "midi": 62,
      "hit": false,
      "t": 125663.68100000003,
      "d": 766.9614333333302,
      "v": 51
    },
    {
      "midi": 58,
      "hit": false,
      "t": 125671.05562916669,
      "d": 722.713658333334,
      "v": 51
    },
    {
      "midi": 58,
      "hit": false,
      "t": 126983.73962083335,
      "d": 353.98219999999856,
      "v": 68
    },
    {
      "midi": 62,
      "hit": false,
      "t": 127433.59200000002,
      "d": 589.9703333333309,
      "v": 75
    },
    {
      "midi": 63,
      "hit": false,
      "t": 127883.44437916669,
      "d": 420.35386249999283,
      "v": 77
    },
    {
      "midi": 65,
      "hit": false,
      "t": 128303.79824166668,
      "d": 405.60460416667047,
      "v": 77
    },
    {
      "midi": 39,
      "hit": false,
      "t": 129196.12837083335,
      "d": 3082.5949916666723,
      "v": 40
    },
    {
      "midi": 67,
      "hit": false,
      "t": 129218.25225833335,
      "d": 818.5838374999876,
      "v": 53
    },
    {
      "midi": 51,
      "hit": false,
      "t": 129218.25225833335,
      "d": 3104.7188791666995,
      "v": 35
    },
    {
      "midi": 58,
      "hit": false,
      "t": 129225.62688750001,
      "d": 848.0823541666614,
      "v": 35
    },
    {
      "midi": 63,
      "hit": false,
      "t": 129225.62688750001,
      "d": 914.4540166666557,
      "v": 38
    },
    {
      "midi": 55,
      "hit": false,
      "t": 130966.03937083333,
      "d": 597.3449625000212,
      "v": 43
    },
    {
      "midi": 58,
      "hit": false,
      "t": 131438.0156375,
      "d": 597.3449625000067,
      "v": 46
    },
    {
      "midi": 67,
      "hit": false,
      "t": 131843.62024166668,
      "d": 582.5957041667134,
      "v": 58
    },
    {
      "midi": 63,
      "hit": false,
      "t": 131843.62024166668,
      "d": 656.3419958333834,
      "v": 49
    },
    {
      "midi": 41,
      "hit": false,
      "t": 132308.2218791667,
      "d": 442.47775000002,
      "v": 45
    },
    {
      "midi": 53,
      "hit": false,
      "t": 132315.59650833337,
      "d": 442.47775000002,
      "v": 45
    },
    {
      "midi": 62,
      "hit": false,
      "t": 132728.57574166672,
      "d": 1061.9466000000248,
      "v": 67
    },
    {
      "midi": 43,
      "hit": false,
      "t": 132750.69962916672,
      "d": 2743.362050000025,
      "v": 56
    },
    {
      "midi": 65,
      "hit": false,
      "t": 132765.44888750007,
      "d": 1091.4451166666695,
      "v": 67
    },
    {
      "midi": 55,
      "hit": false,
      "t": 132765.44888750007,
      "d": 2831.8576000000176,
      "v": 49
    },
    {
      "midi": 70,
      "hit": false,
      "t": 134498.48674166674,
      "d": 825.9584666666633,
      "v": 32
    },
    {
      "midi": 63,
      "hit": false,
      "t": 134520.61062916674,
      "d": 759.586804166669,
      "v": 63
    },
    {
      "midi": 56,
      "hit": false,
      "t": 136275.7723708334,
      "d": 2345.1320750000014,
      "v": 44
    },
    {
      "midi": 60,
      "hit": false,
      "t": 136290.52162916676,
      "d": 2278.760412499978,
      "v": 44
    },
    {
      "midi": 44,
      "hit": false,
      "t": 136290.52162916676,
      "d": 6932.15141666666,
      "v": 44
    },
    {
      "midi": 63,
      "hit": false,
      "t": 136305.27088750008,
      "d": 2330.38281666665,
      "v": 44
    },
    {
      "midi": 51,
      "hit": false,
      "t": 138938.01350000006,
      "d": 412.9792333333462,
      "v": 56
    },
    {
      "midi": 58,
      "hit": false,
      "t": 139380.49125000008,
      "d": 412.9792333333462,
      "v": 56
    },
    {
      "midi": 56,
      "hit": false,
      "t": 139837.71825833342,
      "d": 1474.9258333333419,
      "v": 63
    },
    {
      "midi": 56,
      "hit": false,
      "t": 141592.8800000001,
      "d": 766.9614333333448,
      "v": 50
    },
    {
      "midi": 65,
      "hit": false,
      "t": 142050.10700833343,
      "d": 663.7166250000009,
      "v": 59
    },
    {
      "midi": 68,
      "hit": false,
      "t": 142485.21012916678,
      "d": 722.7136583333195,
      "v": 60
    },
    {
      "midi": 65,
      "hit": false,
      "t": 143348.04174166673,
      "d": 1135.6928916666948,
      "v": 49
    },
    {
      "midi": 70,
      "hit": false,
      "t": 143348.04174166673,
      "d": 1275.8108458333882,
      "v": 31
    },
    {
      "midi": 43,
      "hit": false,
      "t": 143370.16562916673,
      "d": 2241.8872666667157,
      "v": 38
    },
    {
      "midi": 62,
      "hit": false,
      "t": 143377.5402583334,
      "d": 1165.1914083333686,
      "v": 43
    },
    {
      "midi": 67,
      "hit": false,
      "t": 143384.91488750008,
      "d": 663.7166250000009,
      "v": 33
    },
    {
      "midi": 67,
      "hit": false,
      "t": 145132.70200000014,
      "d": 671.0912541666476,
      "v": 32
    },
    {
      "midi": 65,
      "hit": false,
      "t": 145132.70200000014,
      "d": 715.3390291666437,
      "v": 43
    },
    {
      "midi": 70,
      "hit": false,
      "t": 145132.70200000014,
      "d": 722.7136583333195,
      "v": 49
    },
    {
      "midi": 62,
      "hit": false,
      "t": 145147.45125833346,
      "d": 855.4569833333371,
      "v": 53
    },
    {
      "midi": 60,
      "hit": false,
      "t": 146902.61300000013,
      "d": 803.8345791666652,
      "v": 49
    },
    {
      "midi": 70,
      "hit": false,
      "t": 146909.9876291668,
      "d": 663.7166250000009,
      "v": 31
    },
    {
      "midi": 36,
      "hit": false,
      "t": 146909.9876291668,
      "d": 3053.0964749999985,
      "v": 63
    },
    {
      "midi": 63,
      "hit": false,
      "t": 146924.73688750013,
      "d": 825.9584666666633,
      "v": 43
    },
    {
      "midi": 55,
      "hit": false,
      "t": 148672.52400000012,
      "d": 494.10015416666283,
      "v": 54
    },
    {
      "midi": 60,
      "hit": false,
      "t": 149100.2524916668,
      "d": 427.72849166666856,
      "v": 59
    },
    {
      "midi": 63,
      "hit": false,
      "t": 149557.47950000013,
      "d": 427.72849166666856,
      "v": 58
    },
    {
      "midi": 36,
      "hit": false,
      "t": 150022.08113750012,
      "d": 221.23887500001,
      "v": 42
    },
    {
      "midi": 56,
      "hit": false,
      "t": 150427.6857416668,
      "d": 1320.0586208333552,
      "v": 61
    },
    {
      "midi": 41,
      "hit": false,
      "t": 150427.6857416668,
      "d": 1563.4213833333633,
      "v": 61
    },
    {
      "midi": 65,
      "hit": false,
      "t": 150435.06037083347,
      "d": 1209.4391833333357,
      "v": 61
    },
    {
      "midi": 60,
      "hit": false,
      "t": 150449.8096291668,
      "d": 1172.5660375000152,
      "v": 61
    },
    {
      "midi": 41,
      "hit": false,
      "t": 152219.7206291668,
      "d": 5324.48225833333,
      "v": 67
    },
    {
      "midi": 60,
      "hit": false,
      "t": 152234.46988750013,
      "d": 1969.0259875000047,
      "v": 47
    },
    {
      "midi": 56,
      "hit": false,
      "t": 152234.46988750013,
      "d": 1998.5245041666785,
      "v": 47
    },
    {
      "midi": 65,
      "hit": false,
      "t": 152241.8445166668,
      "d": 1460.1765749999904,
      "v": 47
    },
    {
      "midi": 53,
      "hit": false,
      "t": 155774.29188750015,
      "d": 597.3449625000067,
      "v": 72
    },
    {
      "midi": 56,
      "hit": false,
      "t": 156179.89649166682,
      "d": 899.7047583333333,
      "v": 47
    },
    {
      "midi": 60,
      "hit": false,
      "t": 156622.3742416668,
      "d": 597.3449625000067,
      "v": 58
    },
    {
      "midi": 63,
      "hit": false,
      "t": 157094.35050833347,
      "d": 324.48368333335384,
      "v": 42
    },
    {
      "midi": 63,
      "hit": false,
      "t": 157507.32974166682,
      "d": 1290.5601041666814,
      "v": 58
    },
    {
      "midi": 56,
      "hit": false,
      "t": 157514.7043708335,
      "d": 1379.0556541666738,
      "v": 53
    },
    {
      "midi": 46,
      "hit": false,
      "t": 157514.7043708335,
      "d": 3038.347216666705,
      "v": 50
    },
    {
      "midi": 60,
      "hit": false,
      "t": 157529.45362916682,
      "d": 1379.0556541666738,
      "v": 72
    },
    {
      "midi": 56,
      "hit": false,
      "t": 159284.6153708335,
      "d": 914.4540166666848,
      "v": 27
    },
    {
      "midi": 63,
      "hit": false,
      "t": 159291.99000000017,
      "d": 1084.0704875000229,
      "v": 33
    },
    {
      "midi": 60,
      "hit": false,
      "t": 159299.36462916684,
      "d": 1017.6988249999995,
      "v": 72
    },
    {
      "midi": 62,
      "hit": false,
      "t": 161069.2756291669,
      "d": 943.9525333333586,
      "v": 77
    },
    {
      "midi": 58,
      "hit": false,
      "t": 161069.2756291669,
      "d": 1032.448083333351,
      "v": 39
    },
    {
      "midi": 53,
      "hit": false,
      "t": 161076.65025833357,
      "d": 759.586804166669,
      "v": 67
    },
    {
      "midi": 46,
      "hit": false,
      "t": 161076.65025833357,
      "d": 1238.9377000000095,
      "v": 38
    },
    {
      "midi": 58,
      "hit": false,
      "t": 162817.06274166692,
      "d": 523.5986708333658,
      "v": 72
    },
    {
      "midi": 46,
      "hit": false,
      "t": 162824.4373708336,
      "d": 575.2210750000377,
      "v": 58
    },
    {
      "midi": 63,
      "hit": false,
      "t": 162831.81200000027,
      "d": 457.2270083333424,
      "v": 58
    },
    {
      "midi": 56,
      "hit": false,
      "t": 162839.18662916694,
      "d": 619.4688500000339,
      "v": 58
    },
    {
      "midi": 65,
      "hit": false,
      "t": 163709.39287083366,
      "d": 575.2210750000086,
      "v": 81
    },
    {
      "midi": 58,
      "hit": false,
      "t": 163716.76750000034,
      "d": 530.9733000000124,
      "v": 67
    },
    {
      "midi": 56,
      "hit": false,
      "t": 163724.142129167,
      "d": 501.47478333333856,
      "v": 50
    },
    {
      "midi": 46,
      "hit": false,
      "t": 163724.142129167,
      "d": 567.8464458333328,
      "v": 77
    },
    {
      "midi": 51,
      "hit": false,
      "t": 164586.973741667,
      "d": 516.2240416666609,
      "v": 34
    },
    {
      "midi": 39,
      "hit": false,
      "t": 164586.973741667,
      "d": 5811.207783333317,
      "v": 58
    },
    {
      "midi": 58,
      "hit": false,
      "t": 164594.34837083367,
      "d": 1128.31826249999,
      "v": 44
    },
    {
      "midi": 63,
      "hit": false,
      "t": 164616.47225833367,
      "d": 1150.442149999988,
      "v": 50
    },
    {
      "midi": 55,
      "hit": false,
      "t": 164616.47225833367,
      "d": 1165.1914083333104,
      "v": 58
    },
    {
      "midi": 55,
      "hit": false,
      "t": 166379.008629167,
      "d": 1047.1973416666733,
      "v": 33
    },
    {
      "midi": 63,
      "hit": false,
      "t": 166386.38325833366,
      "d": 1025.0734541666752,
      "v": 31
    },
    {
      "midi": 58,
      "hit": false,
      "t": 166386.38325833366,
      "d": 1047.1973416666733,
      "v": 38
    },
    {
      "midi": 58,
      "hit": false,
      "t": 168134.17037083366,
      "d": 811.2092083333409,
      "v": 36
    },
    {
      "midi": 51,
      "hit": false,
      "t": 168141.54500000033,
      "d": 1194.6899250000133,
      "v": 31
    },
    {
      "midi": 63,
      "hit": false,
      "t": 168163.66888750033,
      "d": 862.8316125000129,
      "v": 47
    },
    {
      "midi": 55,
      "hit": false,
      "t": 168163.66888750033,
      "d": 929.2032750000071,
      "v": 29
    },
    {
      "midi": 58,
      "hit": false,
      "t": 169904.08137083368,
      "d": 339.2329416666471,
      "v": 57
    },
    {
      "midi": 51,
      "hit": false,
      "t": 169904.08137083368,
      "d": 479.35089583331137,
      "v": 57
    },
    {
      "midi": 55,
      "hit": false,
      "t": 169918.830629167,
      "d": 339.2329416666471,
      "v": 57
    },
    {
      "midi": 51,
      "hit": false,
      "t": 170774.2876125003,
      "d": 383.4807166666724,
      "v": 58
    },
    {
      "midi": 46,
      "hit": false,
      "t": 171165.14295833366,
      "d": 383.4807166666433,
      "v": 58
    },
    {
      "midi": 63,
      "hit": false,
      "t": 171666.61774166697,
      "d": 1084.0704875000229,
      "v": 47
    },
    {
      "midi": 60,
      "hit": false,
      "t": 171673.99237083364,
      "d": 1098.8197458333452,
      "v": 67
    },
    {
      "midi": 56,
      "hit": false,
      "t": 171681.36700000032,
      "d": 1187.3152958333376,
      "v": 26
    },
    {
      "midi": 44,
      "hit": false,
      "t": 171703.49088750032,
      "d": 6703.537912500062,
      "v": 30
    },
    {
      "midi": 60,
      "hit": false,
      "t": 173436.528741667,
      "d": 1202.064554166689,
      "v": 67
    },
    {
      "midi": 56,
      "hit": false,
      "t": 173436.528741667,
      "d": 1231.5630708333629,
      "v": 15
    },
    {
      "midi": 63,
      "hit": false,
      "t": 173443.90337083366,
      "d": 1224.1884416666871,
      "v": 28
    },
    {
      "midi": 60,
      "hit": false,
      "t": 175221.18900000036,
      "d": 1327.4332500000019,
      "v": 63
    },
    {
      "midi": 63,
      "hit": false,
      "t": 175221.18900000036,
      "d": 1327.4332500000019,
      "v": 63
    },
    {
      "midi": 56,
      "hit": false,
      "t": 175228.56362916704,
      "d": 1327.4332500000019,
      "v": 63
    },
    {
      "midi": 68,
      "hit": false,
      "t": 176991.10000000038,
      "d": 479.3508958333405,
      "v": 53
    },
    {
      "midi": 70,
      "hit": false,
      "t": 177463.07626666705,
      "d": 464.601637499989,
      "v": 53
    },
    {
      "midi": 72,
      "hit": false,
      "t": 177912.92864583372,
      "d": 331.85831250000047,
      "v": 77
    },
    {
      "midi": 46,
      "hit": false,
      "t": 178768.38562916705,
      "d": 5619.467425000039,
      "v": 34
    },
    {
      "midi": 58,
      "hit": false,
      "t": 178783.13488750038,
      "d": 1290.5601041666814,
      "v": 44
    },
    {
      "midi": 56,
      "hit": false,
      "t": 178783.13488750038,
      "d": 1305.3093625000038,
      "v": 34
    },
    {
      "midi": 62,
      "hit": false,
      "t": 178783.13488750038,
      "d": 1386.4302833333495,
      "v": 58
    },
    {
      "midi": 62,
      "hit": false,
      "t": 180523.54737083372,
      "d": 1327.4332500000019,
      "v": 77
    },
    {
      "midi": 58,
      "hit": false,
      "t": 180530.9220000004,
      "d": 1312.6839916666504,
      "v": 53
    },
    {
      "midi": 56,
      "hit": false,
      "t": 180545.67125833372,
      "d": 1401.1795416666719,
      "v": 33
    },
    {
      "midi": 56,
      "hit": false,
      "t": 182286.08374166707,
      "d": 1157.8167791666638,
      "v": 27
    },
    {
      "midi": 58,
      "hit": false,
      "t": 182308.20762916707,
      "d": 1039.8227124999976,
      "v": 42
    },
    {
      "midi": 62,
      "hit": false,
      "t": 182322.9568875004,
      "d": 1061.9465999999957,
      "v": 72
    },
    {
      "midi": 58,
      "hit": false,
      "t": 184063.36937083374,
      "d": 1106.194375000021,
      "v": 50
    },
    {
      "midi": 56,
      "hit": false,
      "t": 184070.7440000004,
      "d": 988.2003083333548,
      "v": 34
    },
    {
      "midi": 62,
      "hit": false,
      "t": 184078.1186291671,
      "d": 1076.6958583333471,
      "v": 58
    },
    {
      "midi": 58,
      "hit": false,
      "t": 185825.90574166708,
      "d": 1268.4362166666542,
      "v": 53
    },
    {
      "midi": 63,
      "hit": false,
      "t": 185840.6550000004,
      "d": 1275.81084583333,
      "v": 50
    },
    {
      "midi": 55,
      "hit": false,
      "t": 185862.7788875004,
      "d": 1342.1825083333242,
      "v": 67
    },
    {
      "midi": 39,
      "hit": false,
      "t": 185862.7788875004,
      "d": 2337.7574458333547,
      "v": 39
    },
    {
      "midi": 51,
      "hit": false,
      "t": 185862.7788875004,
      "d": 2352.506704166706,
      "v": 28
    },
    {
      "midi": 63,
      "hit": false,
      "t": 187617.94062916707,
      "d": 589.97033333336,
      "v": 44
    },
    {
      "midi": 58,
      "hit": false,
      "t": 187617.94062916707,
      "d": 612.0942208333581,
      "v": 63
    },
    {
      "midi": 55,
      "hit": false,
      "t": 187625.31525833375,
      "d": 449.85237916666665,
      "v": 72
    },
    {
      "midi": 36,
      "hit": false,
      "t": 189365.7277416671,
      "d": 3193.2144291666627,
      "v": 50
    },
    {
      "midi": 48,
      "hit": false,
      "t": 189365.7277416671,
      "d": 3266.9607208333327,
      "v": 63
    },
    {
      "midi": 55,
      "hit": false,
      "t": 189373.10237083377,
      "d": 722.7136583333486,
      "v": 67
    },
    {
      "midi": 60,
      "hit": false,
      "t": 189380.47700000045,
      "d": 766.9614333333448,
      "v": 72
    },
    {
      "midi": 63,
      "hit": false,
      "t": 189380.47700000045,
      "d": 781.7106916666671,
      "v": 44
    },
    {
      "midi": 63,
      "hit": false,
      "t": 191135.63874166712,
      "d": 435.1031208333152,
      "v": 63
    },
    {
      "midi": 67,
      "hit": false,
      "t": 191157.76262916712,
      "d": 508.8494124999852,
      "v": 63
    },
    {
      "midi": 60,
      "hit": false,
      "t": 191179.88651666712,
      "d": 530.9732999999833,
      "v": 47
    },
    {
      "midi": 57,
      "hit": false,
      "t": 192905.54974166708,
      "d": 907.079387500009,
      "v": 48
    },
    {
      "midi": 60,
      "hit": false,
      "t": 192927.67362916708,
      "d": 988.2003083333548,
      "v": 48
    },
    {
      "midi": 65,
      "hit": false,
      "t": 192935.04825833376,
      "d": 1010.3241958333529,
      "v": 48
    },
    {
      "midi": 41,
      "hit": false,
      "t": 192935.04825833376,
      "d": 6777.284204166674,
      "v": 48
    },
    {
      "midi": 57,
      "hit": false,
      "t": 194704.95925833378,
      "d": 1445.427316666668,
      "v": 50
    },
    {
      "midi": 65,
      "hit": false,
      "t": 194704.95925833378,
      "d": 1460.1765749999904,
      "v": 50
    },
    {
      "midi": 60,
      "hit": false,
      "t": 194704.95925833378,
      "d": 1489.6750916666642,
      "v": 50
    },
    {
      "midi": 63,
      "hit": false,
      "t": 196445.3717416671,
      "d": 1349.5571375,
      "v": 47
    },
    {
      "midi": 60,
      "hit": false,
      "t": 196467.4956291671,
      "d": 1268.4362166666542,
      "v": 47
    },
    {
      "midi": 57,
      "hit": false,
      "t": 196482.24488750042,
      "d": 1165.1914083333395,
      "v": 47
    },
    {
      "midi": 60,
      "hit": false,
      "t": 198215.2827416671,
      "d": 1327.4332500000019,
      "v": 51
    },
    {
      "midi": 57,
      "hit": false,
      "t": 198237.4066291671,
      "d": 1224.1884416666871,
      "v": 51
    },
    {
      "midi": 63,
      "hit": false,
      "t": 198244.78125833377,
      "d": 1135.6928916666657,
      "v": 51
    },
    {
      "midi": 62,
      "hit": false,
      "t": 199985.1937416671,
      "d": 1157.8167791666638,
      "v": 53
    },
    {
      "midi": 57,
      "hit": false,
      "t": 199992.5683708338,
      "d": 1106.1943749999919,
      "v": 53
    },
    {
      "midi": 46,
      "hit": false,
      "t": 200007.3176291671,
      "d": 3193.214429166692,
      "v": 53
    },
    {
      "midi": 65,
      "hit": false,
      "t": 200022.06688750043,
      "d": 1091.4451166666695,
      "v": 53
    },
    {
      "midi": 62,
      "hit": false,
      "t": 201762.47937083378,
      "d": 789.0853208333428,
      "v": 53
    },
    {
      "midi": 57,
      "hit": false,
      "t": 201769.85400000046,
      "d": 884.9555000000109,
      "v": 53
    },
    {
      "midi": 65,
      "hit": false,
      "t": 201791.97788750046,
      "d": 781.7106916666671,
      "v": 53
    },
    {
      "midi": 63,
      "hit": false,
      "t": 203525.01574166716,
      "d": 1379.0556541666447,
      "v": 59
    },
    {
      "midi": 55,
      "hit": false,
      "t": 203532.39037083383,
      "d": 1253.6869583333028,
      "v": 47
    },
    {
      "midi": 58,
      "hit": false,
      "t": 203547.13962916716,
      "d": 1305.3093624999747,
      "v": 55
    },
    {
      "midi": 39,
      "hit": false,
      "t": 203561.88888750048,
      "d": 3252.211462499952,
      "v": 33
    },
    {
      "midi": 63,
      "hit": false,
      "t": 205294.92674166712,
      "d": 737.4629166666709,
      "v": 36
    },
    {
      "midi": 55,
      "hit": false,
      "t": 205309.67600000044,
      "d": 553.0971875000105,
      "v": 47
    },
    {
      "midi": 58,
      "hit": false,
      "t": 205331.79988750044,
      "d": 980.825679166679,
      "v": 51
    },
    {
      "midi": 63,
      "hit": false,
      "t": 207072.21237083376,
      "d": 1069.3212291666714,
      "v": 64
    },
    {
      "midi": 60,
      "hit": false,
      "t": 207094.33625833376,
      "d": 1061.9465999999957,
      "v": 64
    },
    {
      "midi": 56,
      "hit": false,
      "t": 207101.71088750043,
      "d": 1297.934733333328,
      "v": 64
    },
    {
      "midi": 44,
      "hit": false,
      "t": 207101.71088750043,
      "d": 2499.999287500017,
      "v": 64
    },
    {
      "midi": 60,
      "hit": false,
      "t": 208834.7487416671,
      "d": 988.2003083333548,
      "v": 59
    },
    {
      "midi": 56,
      "hit": false,
      "t": 208842.12337083378,
      "d": 1039.8227125000267,
      "v": 59
    },
    {
      "midi": 63,
      "hit": false,
      "t": 208849.49800000046,
      "d": 1113.5690041666967,
      "v": 59
    },
    {
      "midi": 43,
      "hit": false,
      "t": 209749.2027583338,
      "d": 685.8405125000281,
      "v": 59
    },
    {
      "midi": 60,
      "hit": false,
      "t": 210604.65974166716,
      "d": 1025.0734541666752,
      "v": 61
    },
    {
      "midi": 41,
      "hit": false,
      "t": 210612.03437083383,
      "d": 2691.7396458333824,
      "v": 61
    },
    {
      "midi": 65,
      "hit": false,
      "t": 210619.4090000005,
      "d": 1076.695858333318,
      "v": 61
    },
    {
      "midi": 56,
      "hit": false,
      "t": 210641.5328875005,
      "d": 1135.6928916666657,
      "v": 61
    },
    {
      "midi": 60,
      "hit": false,
      "t": 212374.57074166718,
      "d": 848.0823541666905,
      "v": 55
    },
    {
      "midi": 65,
      "hit": false,
      "t": 212381.94537083386,
      "d": 766.9614333333448,
      "v": 55
    },
    {
      "midi": 56,
      "hit": false,
      "t": 212381.94537083386,
      "d": 1238.9377000000386,
      "v": 55
    },
    {
      "midi": 63,
      "hit": false,
      "t": 214151.85637083388,
      "d": 1172.5660375000152,
      "v": 61
    },
    {
      "midi": 60,
      "hit": false,
      "t": 214173.98025833388,
      "d": 1135.6928916666948,
      "v": 61
    },
    {
      "midi": 56,
      "hit": false,
      "t": 214181.35488750055,
      "d": 1165.1914083333395,
      "v": 61
    },
    {
      "midi": 46,
      "hit": false,
      "t": 214181.35488750055,
      "d": 2558.9963208333647,
      "v": 61
    },
    {
      "midi": 60,
      "hit": false,
      "t": 215929.14200000055,
      "d": 464.6016375000181,
      "v": 61
    },
    {
      "midi": 63,
      "hit": false,
      "t": 215936.51662916722,
      "d": 449.85237916666665,
      "v": 61
    },
    {
      "midi": 56,
      "hit": false,
      "t": 215951.26588750054,
      "d": 494.10015416669194,
      "v": 61
    },
    {
      "midi": 53,
      "hit": false,
      "t": 217684.30374166725,
      "d": 412.9792333333171,
      "v": 71
    },
    {
      "midi": 62,
      "hit": false,
      "t": 217706.42762916724,
      "d": 486.7255249999871,
      "v": 71
    },
    {
      "midi": 58,
      "hit": false,
      "t": 217706.42762916724,
      "d": 501.47478333330946,
      "v": 71
    },
    {
      "midi": 46,
      "hit": false,
      "t": 217706.42762916724,
      "d": 648.9673666666495,
      "v": 71
    },
    {
      "midi": 62,
      "hit": false,
      "t": 219461.58937083388,
      "d": 294.98516666668,
      "v": 79
    },
    {
      "midi": 58,
      "hit": false,
      "t": 219476.33862916724,
      "d": 302.35979583332664,
      "v": 79
    },
    {
      "midi": 46,
      "hit": false,
      "t": 219476.33862916724,
      "d": 317.109054166649,
      "v": 79
    },
    {
      "midi": 48,
      "hit": false,
      "t": 219896.69249166723,
      "d": 405.60460416664137,
      "v": 67
    },
    {
      "midi": 63,
      "hit": false,
      "t": 219911.44175000055,
      "d": 280.23590833332855,
      "v": 85
    },
    {
      "midi": 60,
      "hit": false,
      "t": 219926.19100833387,
      "d": 243.3627625000081,
      "v": 85
    },
    {
      "midi": 65,
      "hit": false,
      "t": 220339.1702416672,
      "d": 398.22997500002384,
      "v": 90
    },
    {
      "midi": 62,
      "hit": false,
      "t": 220346.54487083387,
      "d": 405.60460416667047,
      "v": 90
    },
    {
      "midi": 50,
      "hit": false,
      "t": 220353.91950000054,
      "d": 833.3330958333099,
      "v": 74
    },
    {
      "midi": 39,
      "hit": false,
      "t": 221224.12574166717,
      "d": 1106.194375000021,
      "v": 36
    },
    {
      "midi": 63,
      "hit": false,
      "t": 221231.50037083385,
      "d": 1474.9258333333419,
      "v": 25
    },
    {
      "midi": 67,
      "hit": false,
      "t": 221238.87500000052,
      "d": 1371.681024999998,
      "v": 39
    },
    {
      "midi": 70,
      "hit": false,
      "t": 221246.2496291672,
      "d": 1482.3004624999885,
      "v": 23
    },
    {
      "midi": 51,
      "hit": false,
      "t": 223008.78600000052,
      "d": 1629.7930458333576,
      "v": 24
    },
    {
      "midi": 70,
      "hit": false,
      "t": 223016.1606291672,
      "d": 1010.3241958333529,
      "v": 23
    },
    {
      "midi": 67,
      "hit": false,
      "t": 223023.53525833387,
      "d": 943.9525333333295,
      "v": 43
    },
    {
      "midi": 63,
      "hit": false,
      "t": 223023.53525833387,
      "d": 1069.3212291666714,
      "v": 24
    },
    {
      "midi": 67,
      "hit": false,
      "t": 224771.32237083386,
      "d": 1231.5630708333047,
      "v": 43
    },
    {
      "midi": 72,
      "hit": false,
      "t": 224786.07162916719,
      "d": 1334.8078791666485,
      "v": 45
    },
    {
      "midi": 63,
      "hit": false,
      "t": 224800.8208875005,
      "d": 1297.934733333328,
      "v": 21
    },
    {
      "midi": 48,
      "hit": false,
      "t": 224800.8208875005,
      "d": 3392.3294166666456,
      "v": 39
    },
    {
      "midi": 72,
      "hit": false,
      "t": 226541.23337083383,
      "d": 1275.81084583333,
      "v": 58
    },
    {
      "midi": 63,
      "hit": false,
      "t": 226548.6080000005,
      "d": 730.0882874999952,
      "v": 27
    },
    {
      "midi": 67,
      "hit": false,
      "t": 226570.7318875005,
      "d": 840.7077249999857,
      "v": 43
    },
    {
      "midi": 41,
      "hit": false,
      "t": 228303.76974166717,
      "d": 538.3479291666881,
      "v": 39
    },
    {
      "midi": 68,
      "hit": false,
      "t": 228318.5190000005,
      "d": 1194.6899250000424,
      "v": 31
    },
    {
      "midi": 65,
      "hit": false,
      "t": 228325.89362916717,
      "d": 1386.4302833333786,
      "v": 43
    },
    {
      "midi": 72,
      "hit": false,
      "t": 228333.26825833385,
      "d": 1474.925833333371,
      "v": 49
    },
    {
      "midi": 53,
      "hit": false,
      "t": 230081.05537083387,
      "d": 988.2003083333548,
      "v": 39
    },
    {
      "midi": 72,
      "hit": false,
      "t": 230081.05537083387,
      "d": 1187.3152958333376,
      "v": 43
    },
    {
      "midi": 68,
      "hit": false,
      "t": 230088.43000000055,
      "d": 1165.1914083333395,
      "v": 31
    },
    {
      "midi": 65,
      "hit": false,
      "t": 230110.55388750054,
      "d": 995.5749375000014,
      "v": 39
    },
    {
      "midi": 62,
      "hit": false,
      "t": 231850.9663708339,
      "d": 1533.9228666666895,
      "v": 45
    },
    {
      "midi": 46,
      "hit": false,
      "t": 231858.34100000057,
      "d": 995.5749375000014,
      "v": 36
    },
    {
      "midi": 58,
      "hit": false,
      "t": 231858.34100000057,
      "d": 1069.3212291666714,
      "v": 31
    },
    {
      "midi": 65,
      "hit": false,
      "t": 231880.46488750057,
      "d": 1386.4302833333495,
      "v": 49
    },
    {
      "midi": 70,
      "hit": false,
      "t": 231880.46488750057,
      "d": 1460.1765750000195,
      "v": 25
    },
    {
      "midi": 44,
      "hit": false,
      "t": 233628.2520000006,
      "d": 1017.6988250000577,
      "v": 43
    },
    {
      "midi": 70,
      "hit": false,
      "t": 233628.2520000006,
      "d": 1025.0734541667334,
      "v": 34
    },
    {
      "midi": 56,
      "hit": false,
      "t": 233635.62662916727,
      "d": 1002.9495666667062,
      "v": 27
    },
    {
      "midi": 62,
      "hit": false,
      "t": 233643.00125833394,
      "d": 789.0853208333428,
      "v": 45
    },
    {
      "midi": 68,
      "hit": false,
      "t": 233643.00125833394,
      "d": 848.0823541666905,
      "v": 24
    },
    {
      "midi": 65,
      "hit": false,
      "t": 233643.00125833394,
      "d": 899.7047583333624,
      "v": 58
    },
    {
      "midi": 67,
      "hit": false,
      "t": 235390.788370834,
      "d": 1106.194375000021,
      "v": 45
    },
    {
      "midi": 55,
      "hit": false,
      "t": 235390.788370834,
      "d": 3775.8101333334052,
      "v": 45
    },
    {
      "midi": 70,
      "hit": false,
      "t": 235412.912258334,
      "d": 1143.0675208333705,
      "v": 36
    },
    {
      "midi": 43,
      "hit": false,
      "t": 235420.28688750067,
      "d": 2109.143941666698,
      "v": 45
    },
    {
      "midi": 70,
      "hit": false,
      "t": 237153.32474166737,
      "d": 980.8256791666499,
      "v": 36
    },
    {
      "midi": 62,
      "hit": false,
      "t": 237168.0740000007,
      "d": 921.8286458333314,
      "v": 51
    },
    {
      "midi": 67,
      "hit": false,
      "t": 237175.44862916737,
      "d": 1533.9228666666604,
      "v": 49
    },
    {
      "midi": 72,
      "hit": false,
      "t": 238930.61037083404,
      "d": 1202.064554166689,
      "v": 39
    },
    {
      "midi": 63,
      "hit": false,
      "t": 238937.9850000007,
      "d": 1342.1825083333533,
      "v": 23
    },
    {
      "midi": 67,
      "hit": false,
      "t": 238945.3596291674,
      "d": 1231.5630708333338,
      "v": 43
    },
    {
      "midi": 48,
      "hit": false,
      "t": 238945.3596291674,
      "d": 2581.120208333363,
      "v": 39
    },
    {
      "midi": 67,
      "hit": false,
      "t": 240693.1467416674,
      "d": 759.586804166669,
      "v": 49
    },
    {
      "midi": 72,
      "hit": false,
      "t": 240693.1467416674,
      "d": 789.0853208333428,
      "v": 49
    },
    {
      "midi": 63,
      "hit": false,
      "t": 240693.1467416674,
      "d": 892.3301291666867,
      "v": 24
    },
    {
      "midi": 41,
      "hit": false,
      "t": 242463.0577416674,
      "d": 1828.9080333333695,
      "v": 64
    },
    {
      "midi": 68,
      "hit": false,
      "t": 242470.43237083408,
      "d": 1401.1795416666719,
      "v": 31
    },
    {
      "midi": 60,
      "hit": false,
      "t": 242477.80700000076,
      "d": 1423.30342916667,
      "v": 43
    },
    {
      "midi": 65,
      "hit": false,
      "t": 242492.55625833408,
      "d": 1467.5512041666952,
      "v": 49
    },
    {
      "midi": 60,
      "hit": false,
      "t": 244232.96874166743,
      "d": 700.5897708333505,
      "v": 36
    },
    {
      "midi": 68,
      "hit": false,
      "t": 244262.4672583341,
      "d": 870.2062416666886,
      "v": 36
    },
    {
      "midi": 65,
      "hit": false,
      "t": 244262.4672583341,
      "d": 1349.5571375,
      "v": 45
    },
    {
      "midi": 65,
      "hit": false,
      "t": 246002.87974166742,
      "d": 1120.9436333333433,
      "v": 49
    },
    {
      "midi": 70,
      "hit": false,
      "t": 246025.00362916742,
      "d": 1106.194375000021,
      "v": 39
    },
    {
      "midi": 62,
      "hit": false,
      "t": 246025.00362916742,
      "d": 1120.9436333333433,
      "v": 45
    },
    {
      "midi": 46,
      "hit": false,
      "t": 246025.00362916742,
      "d": 1858.4065500000434,
      "v": 45
    },
    {
      "midi": 70,
      "hit": false,
      "t": 247794.91462916744,
      "d": 169.6164708333672,
      "v": 43
    },
    {
      "midi": 65,
      "hit": false,
      "t": 247794.91462916744,
      "d": 235.98813333336147,
      "v": 45
    },
    {
      "midi": 62,
      "hit": false,
      "t": 247809.6638875008,
      "d": 221.23887500001,
      "v": 27
    },
    {
      "midi": 58,
      "hit": false,
      "t": 247809.6638875008,
      "d": 1135.6928916666657,
      "v": 34
    },
    {
      "midi": 51,
      "hit": false,
      "t": 249542.70174166746,
      "d": 3443.9518208333175,
      "v": 39
    },
    {
      "midi": 70,
      "hit": false,
      "t": 249557.4510000008,
      "d": 1504.4243499999866,
      "v": 34
    },
    {
      "midi": 63,
      "hit": false,
      "t": 249557.4510000008,
      "d": 1519.173608333309,
      "v": 34
    },
    {
      "midi": 67,
      "hit": false,
      "t": 249572.2002583341,
      "d": 1556.0467541666585,
      "v": 51
    },
    {
      "midi": 70,
      "hit": false,
      "t": 251312.61274166743,
      "d": 1010.3241958333529,
      "v": 39
    },
    {
      "midi": 63,
      "hit": false,
      "t": 251319.9873708341,
      "d": 1002.9495666666771,
      "v": 36
    },
    {
      "midi": 67,
      "hit": false,
      "t": 251319.9873708341,
      "d": 1054.571970833349,
      "v": 39
    },
    {
      "midi": 67,
      "hit": false,
      "t": 253082.52374166745,
      "d": 1305.3093625000038,
      "v": 50
    },
    {
      "midi": 60,
      "hit": false,
      "t": 253089.89837083413,
      "d": 1334.8078791666776,
      "v": 50
    },
    {
      "midi": 48,
      "hit": false,
      "t": 253097.2730000008,
      "d": 966.0764208333276,
      "v": 58
    },
    {
      "midi": 63,
      "hit": false,
      "t": 253097.2730000008,
      "d": 1320.0586208333261,
      "v": 34
    },
    {
      "midi": 67,
      "hit": false,
      "t": 254867.1840000008,
      "d": 597.3449625000067,
      "v": 52
    },
    {
      "midi": 36,
      "hit": false,
      "t": 254874.55862916747,
      "d": 287.6105375000043,
      "v": 44
    },
    {
      "midi": 60,
      "hit": false,
      "t": 254874.55862916747,
      "d": 685.840512499999,
      "v": 50
    },
    {
      "midi": 63,
      "hit": false,
      "t": 254881.93325833415,
      "d": 730.0882874999952,
      "v": 26
    },
    {
      "midi": 72,
      "hit": false,
      "t": 256622.34574166746,
      "d": 1467.551204166637,
      "v": 52
    },
    {
      "midi": 41,
      "hit": false,
      "t": 256644.46962916746,
      "d": 3539.8219999999856,
      "v": 64
    },
    {
      "midi": 65,
      "hit": false,
      "t": 256659.21888750079,
      "d": 1091.4451166666695,
      "v": 52
    },
    {
      "midi": 68,
      "hit": false,
      "t": 256659.21888750079,
      "d": 1548.6721249999828,
      "v": 44
    },
    {
      "midi": 68,
      "hit": false,
      "t": 258399.6313708341,
      "d": 700.5897708333505,
      "v": 31
    },
    {
      "midi": 65,
      "hit": false,
      "t": 258399.6313708341,
      "d": 759.5868041666981,
      "v": 64
    },
    {
      "midi": 72,
      "hit": false,
      "t": 258407.00600000078,
      "d": 501.47478333333856,
      "v": 52
    },
    {
      "midi": 62,
      "hit": false,
      "t": 260162.16774166745,
      "d": 1578.1706416666566,
      "v": 52
    },
    {
      "midi": 65,
      "hit": false,
      "t": 260176.91700000077,
      "d": 1563.4213833333342,
      "v": 52
    },
    {
      "midi": 72,
      "hit": false,
      "t": 260176.91700000077,
      "d": 1600.2945291666547,
      "v": 58
    },
    {
      "midi": 38,
      "hit": false,
      "t": 260199.04088750077,
      "d": 427.72849166666856,
      "v": 64
    },
    {
      "midi": 68,
      "hit": false,
      "t": 260199.04088750077,
      "d": 1592.919899999979,
      "v": 46
    },
    {
      "midi": 71,
      "hit": false,
      "t": 261946.82800000074,
      "d": 663.7166250000591,
      "v": 58
    },
    {
      "midi": 62,
      "hit": false,
      "t": 261954.2026291674,
      "d": 597.3449625000358,
      "v": 58
    },
    {
      "midi": 65,
      "hit": false,
      "t": 261961.5772583341,
      "d": 671.0912541667349,
      "v": 58
    },
    {
      "midi": 43,
      "hit": false,
      "t": 261961.5772583341,
      "d": 1511.7989791667205,
      "v": 52
    },
    {
      "midi": 63,
      "hit": false,
      "t": 263701.9897416675,
      "d": 1541.2974958333652,
      "v": 34
    },
    {
      "midi": 67,
      "hit": false,
      "t": 263716.7390000009,
      "d": 1482.3004625000176,
      "v": 52
    },
    {
      "midi": 48,
      "hit": false,
      "t": 263724.11362916755,
      "d": 3502.948854166665,
      "v": 58
    },
    {
      "midi": 72,
      "hit": false,
      "t": 263731.4882583342,
      "d": 1519.173608333338,
      "v": 50
    },
    {
      "midi": 72,
      "hit": false,
      "t": 265494.0246291676,
      "d": 1268.4362166666542,
      "v": 50
    },
    {
      "midi": 67,
      "hit": false,
      "t": 265494.0246291676,
      "d": 1297.934733333299,
      "v": 39
    },
    {
      "midi": 63,
      "hit": false,
      "t": 265494.0246291676,
      "d": 1349.5571374999708,
      "v": 26
    },
    {
      "midi": 46,
      "hit": false,
      "t": 267241.81174166757,
      "d": 3023.597958333441,
      "v": 36
    },
    {
      "midi": 72,
      "hit": false,
      "t": 267249.18637083424,
      "d": 1386.4302833333495,
      "v": 44
    },
    {
      "midi": 63,
      "hit": false,
      "t": 267256.5610000009,
      "d": 1452.8019458333147,
      "v": 31
    },
    {
      "midi": 67,
      "hit": false,
      "t": 267271.31025833427,
      "d": 1452.8019458333147,
      "v": 50
    },
    {
      "midi": 63,
      "hit": false,
      "t": 269019.09737083426,
      "d": 663.7166250000591,
      "v": 29
    },
    {
      "midi": 67,
      "hit": false,
      "t": 269026.47200000094,
      "d": 553.0971875000396,
      "v": 44
    },
    {
      "midi": 72,
      "hit": false,
      "t": 269041.2212583343,
      "d": 641.592737500032,
      "v": 46
    },
    {
      "midi": 60,
      "hit": false,
      "t": 270789.0083708344,
      "d": 1423.30342916667,
      "v": 50
    },
    {
      "midi": 68,
      "hit": false,
      "t": 270803.75762916775,
      "d": 1371.681024999998,
      "v": 44
    },
    {
      "midi": 63,
      "hit": false,
      "t": 270811.13225833443,
      "d": 1497.0497208333109,
      "v": 44
    },
    {
      "midi": 44,
      "hit": false,
      "t": 270818.5068875011,
      "d": 2551.6216916666017,
      "v": 44
    },
    {
      "midi": 68,
      "hit": false,
      "t": 272573.6686291677,
      "d": 936.5779041666538,
      "v": 27
    },
    {
      "midi": 60,
      "hit": false,
      "t": 272581.0432583344,
      "d": 759.586804166669,
      "v": 34
    },
    {
      "midi": 72,
      "hit": false,
      "t": 272588.41788750107,
      "d": 700.5897708333214,
      "v": 44
    },
    {
      "midi": 63,
      "hit": false,
      "t": 272588.41788750107,
      "d": 943.9525333333295,
      "v": 25
    },
    {
      "midi": 46,
      "hit": false,
      "t": 274350.95425833436,
      "d": 3082.5949916667305,
      "v": 44
    },
    {
      "midi": 65,
      "hit": false,
      "t": 274358.32888750103,
      "d": 3045.721845833352,
      "v": 58
    },
    {
      "midi": 62,
      "hit": false,
      "t": 274358.32888750103,
      "d": 3067.845733333379,
      "v": 36
    },
    {
      "midi": 70,
      "hit": false,
      "t": 274358.32888750103,
      "d": 3097.344250000082,
      "v": 34
    },
    {
      "midi": 39,
      "hit": false,
      "t": 277883.4016291678,
      "d": 3443.951820833434,
      "v": 70
    },
    {
      "midi": 51,
      "hit": false,
      "t": 278311.13012083445,
      "d": 442.47775000002,
      "v": 23
    },
    {
      "midi": 53,
      "hit": false,
      "t": 278753.6078708345,
      "d": 442.47775000002,
      "v": 29
    },
    {
      "midi": 55,
      "hit": false,
      "t": 279218.2095083345,
      "d": 442.47775000002,
      "v": 66
    },
    {
      "midi": 70,
      "hit": false,
      "t": 279218.2095083345,
      "d": 442.47775000002,
      "v": 66
    },
    {
      "midi": 77,
      "hit": false,
      "t": 279638.5633708345,
      "d": 442.47775000002,
      "v": 86
    },
    {
      "midi": 63,
      "hit": false,
      "t": 280103.16500833456,
      "d": 442.47775000002,
      "v": 16
    },
    {
      "midi": 58,
      "hit": false,
      "t": 280530.8935000012,
      "d": 442.47775000002,
      "v": 24
    },
    {
      "midi": 67,
      "hit": false,
      "t": 280958.6219916679,
      "d": 442.4777499999618,
      "v": 58
    },
    {
      "midi": 74,
      "hit": false,
      "t": 281408.47437083453,
      "d": 1238.9377000000095,
      "v": 78
    },
    {
      "midi": 36,
      "hit": false,
      "t": 281437.9728875012,
      "d": 3539.8220000000438,
      "v": 60
    },
    {
      "midi": 48,
      "hit": false,
      "t": 281865.70137916785,
      "d": 921.8286458333023,
      "v": 27
    },
    {
      "midi": 55,
      "hit": false,
      "t": 282300.8045000012,
      "d": 427.72849166666856,
      "v": 44
    },
    {
      "midi": 63,
      "hit": false,
      "t": 282758.0315083345,
      "d": 442.47775000002,
      "v": 59
    },
    {
      "midi": 70,
      "hit": false,
      "t": 283178.3853708345,
      "d": 1002.9495666666771,
      "v": 76
    },
    {
      "midi": 51,
      "hit": false,
      "t": 283642.98700833454,
      "d": 309.73442499997327,
      "v": 18
    },
    {
      "midi": 55,
      "hit": false,
      "t": 284092.8393875012,
      "d": 612.094220833329,
      "v": 24
    },
    {
      "midi": 60,
      "hit": false,
      "t": 284498.4439916678,
      "d": 383.4807166666724,
      "v": 60
    },
    {
      "midi": 32,
      "hit": false,
      "t": 284940.92174166784,
      "d": 3539.82200000016,
      "v": 70
    },
    {
      "midi": 67,
      "hit": false,
      "t": 284970.42025833455,
      "d": 1002.9495666667353,
      "v": 80
    },
    {
      "midi": 44,
      "hit": false,
      "t": 285390.77412083454,
      "d": 442.47775000002,
      "v": 18
    },
    {
      "midi": 48,
      "hit": false,
      "t": 285855.3757583346,
      "d": 265.4866500000353,
      "v": 35
    },
    {
      "midi": 56,
      "hit": false,
      "t": 286305.2281375013,
      "d": 442.47775000002,
      "v": 64
    },
    {
      "midi": 63,
      "hit": false,
      "t": 286732.95662916795,
      "d": 1681.4154500000295,
      "v": 75
    },
    {
      "midi": 44,
      "hit": false,
      "t": 287182.80900833465,
      "d": 412.9792333333171,
      "v": 31
    },
    {
      "midi": 48,
      "hit": false,
      "t": 287610.5375000013,
      "d": 368.7314583333209,
      "v": 26
    },
    {
      "midi": 51,
      "hit": false,
      "t": 288045.64062083466,
      "d": 353.98219999996945,
      "v": 55
    },
    {
      "midi": 60,
      "hit": false,
      "t": 288488.1183708347,
      "d": 1364.3063958333223,
      "v": 72
    },
    {
      "midi": 34,
      "hit": false,
      "t": 288488.1183708347,
      "d": 3539.8220000000438,
      "v": 68
    },
    {
      "midi": 46,
      "hit": false,
      "t": 288930.59612083464,
      "d": 486.7255250000162,
      "v": 18
    },
    {
      "midi": 50,
      "hit": false,
      "t": 289365.699241668,
      "d": 412.9792333333171,
      "v": 31
    },
    {
      "midi": 53,
      "hit": false,
      "t": 289837.67550833465,
      "d": 457.2270083333715,
      "v": 63
    },
    {
      "midi": 62,
      "hit": false,
      "t": 290250.654741668,
      "d": 1769.9110000000219,
      "v": 75
    },
    {
      "midi": 51,
      "hit": false,
      "t": 292020.56574166805,
      "d": 516.2240416666609,
      "v": 36
    },
    {
      "midi": 58,
      "hit": false,
      "t": 292035.3150000014,
      "d": 1128.31826249999,
      "v": 45
    },
    {
      "midi": 63,
      "hit": false,
      "t": 292035.3150000014,
      "d": 1150.4421500000171,
      "v": 52
    },
    {
      "midi": 55,
      "hit": false,
      "t": 292035.3150000014,
      "d": 1165.1914083333686,
      "v": 59
    },
    {
      "midi": 39,
      "hit": false,
      "t": 292042.6896291681,
      "d": 5811.20778333355,
      "v": 59
    },
    {
      "midi": 63,
      "hit": false,
      "t": 293790.4767416681,
      "d": 1025.0734541667043,
      "v": 47
    },
    {
      "midi": 58,
      "hit": false,
      "t": 293812.60062916816,
      "d": 1047.1973416666733,
      "v": 55
    },
    {
      "midi": 55,
      "hit": false,
      "t": 293819.97525833483,
      "d": 1047.1973416666733,
      "v": 59
    },
    {
      "midi": 51,
      "hit": false,
      "t": 295575.1370000015,
      "d": 1194.6899250000715,
      "v": 55
    },
    {
      "midi": 63,
      "hit": false,
      "t": 295582.5116291682,
      "d": 862.8316125000129,
      "v": 55
    },
    {
      "midi": 55,
      "hit": false,
      "t": 295582.5116291682,
      "d": 929.2032750000362,
      "v": 55
    },
    {
      "midi": 58,
      "hit": false,
      "t": 295597.2608875015,
      "d": 811.2092083333409,
      "v": 37
    },
    {
      "midi": 51,
      "hit": false,
      "t": 297330.29874166823,
      "d": 479.3508958333987,
      "v": 78
    },
    {
      "midi": 55,
      "hit": false,
      "t": 297345.0480000016,
      "d": 339.2329416666762,
      "v": 78
    },
    {
      "midi": 58,
      "hit": false,
      "t": 297352.42262916826,
      "d": 339.2329416666762,
      "v": 78
    },
    {
      "midi": 51,
      "hit": false,
      "t": 298178.38109583495,
      "d": 383.4807166666724,
      "v": 79
    },
    {
      "midi": 46,
      "hit": false,
      "t": 298613.4842166683,
      "d": 383.48071666661417,
      "v": 78
    },
    {
      "midi": 56,
      "hit": false,
      "t": 299100.20974166825,
      "d": 1187.3152958333958,
      "v": 27
    },
    {
      "midi": 44,
      "hit": false,
      "t": 299114.9590000016,
      "d": 6703.537912500091,
      "v": 31
    },
    {
      "midi": 63,
      "hit": false,
      "t": 299122.3336291683,
      "d": 1084.0704874999938,
      "v": 48
    },
    {
      "midi": 60,
      "hit": false,
      "t": 299129.70825833495,
      "d": 1098.8197458333452,
      "v": 70
    },
    {
      "midi": 60,
      "hit": false,
      "t": 300877.495370835,
      "d": 1202.0645541666308,
      "v": 95
    },
    {
      "midi": 63,
      "hit": false,
      "t": 300906.99388750165,
      "d": 1224.188441666658,
      "v": 52
    },
    {
      "midi": 56,
      "hit": false,
      "t": 300906.99388750165,
      "d": 1231.5630708333338,
      "v": 52
    },
    {
      "midi": 63,
      "hit": false,
      "t": 302676.9048875017,
      "d": 516.2240416666609,
      "v": 64
    },
    {
      "midi": 68,
      "hit": false,
      "t": 303104.63337916834,
      "d": 479.35089583328227,
      "v": 58
    },
    {
      "midi": 70,
      "hit": false,
      "t": 303554.485758335,
      "d": 464.601637499989,
      "v": 77
    },
    {
      "midi": 72,
      "hit": false,
      "t": 303996.96350833494,
      "d": 331.85831250000047,
      "v": 90
    },
    {
      "midi": 72,
      "hit": false,
      "t": 304439.44125833496,
      "d": 398.22997500002384,
      "v": 80
    },
    {
      "midi": 68,
      "hit": false,
      "t": 304889.29363750166,
      "d": 420.35386249999283,
      "v": 75
    },
    {
      "midi": 63,
      "hit": false,
      "t": 305331.7713875017,
      "d": 508.8494125000434,
      "v": 61
    },
    {
      "midi": 58,
      "hit": false,
      "t": 306179.8537416684,
      "d": 1290.5601041666814,
      "v": 46
    },
    {
      "midi": 56,
      "hit": false,
      "t": 306194.60300000175,
      "d": 1305.3093624999747,
      "v": 37
    },
    {
      "midi": 62,
      "hit": false,
      "t": 306194.60300000175,
      "d": 1386.4302833332913,
      "v": 61
    },
    {
      "midi": 46,
      "hit": false,
      "t": 306209.3522583351,
      "d": 5619.467424999981,
      "v": 37
    },
    {
      "midi": 62,
      "hit": false,
      "t": 307949.76474166836,
      "d": 1327.4332500000019,
      "v": 80
    },
    {
      "midi": 56,
      "hit": false,
      "t": 307957.13937083504,
      "d": 1401.1795416666428,
      "v": 35
    },
    {
      "midi": 58,
      "hit": false,
      "t": 307964.5140000017,
      "d": 1312.6839916666504,
      "v": 56
    },
    {
      "midi": 58,
      "hit": false,
      "t": 309719.6757416683,
      "d": 1039.8227125000558,
      "v": 43
    },
    {
      "midi": 62,
      "hit": false,
      "t": 309741.79962916835,
      "d": 1061.9466000000248,
      "v": 76
    },
    {
      "midi": 56,
      "hit": false,
      "t": 309749.174258335,
      "d": 1157.8167791666929,
      "v": 29
    },
    {
      "midi": 56,
      "hit": false,
      "t": 311489.5867416684,
      "d": 988.2003083333257,
      "v": 37
    },
    {
      "midi": 62,
      "hit": false,
      "t": 311504.33600000176,
      "d": 1076.695858333318,
      "v": 61
    },
    {
      "midi": 58,
      "hit": false,
      "t": 311519.0852583351,
      "d": 1106.1943749999627,
      "v": 52
    },
    {
      "midi": 55,
      "hit": false,
      "t": 313259.49774166837,
      "d": 1342.1825083334115,
      "v": 70
    },
    {
      "midi": 39,
      "hit": false,
      "t": 313259.49774166837,
      "d": 2337.757445833471,
      "v": 40
    },
    {
      "midi": 51,
      "hit": false,
      "t": 313259.49774166837,
      "d": 2352.5067041668226,
      "v": 30
    },
    {
      "midi": 63,
      "hit": false,
      "t": 313274.2470000017,
      "d": 1275.8108458333882,
      "v": 52
    },
    {
      "midi": 58,
      "hit": false,
      "t": 313296.37088750175,
      "d": 1268.4362166667124,
      "v": 56
    },
    {
      "midi": 58,
      "hit": false,
      "t": 315029.40874166845,
      "d": 612.0942208333872,
      "v": 66
    },
    {
      "midi": 55,
      "hit": false,
      "t": 315051.5326291685,
      "d": 449.85237916669575,
      "v": 76
    },
    {
      "midi": 63,
      "hit": false,
      "t": 315066.2818875018,
      "d": 589.97033333336,
      "v": 46
    },
    {
      "midi": 55,
      "hit": false,
      "t": 316799.3197416685,
      "d": 722.7136583333486,
      "v": 70
    },
    {
      "midi": 60,
      "hit": false,
      "t": 316814.0690000019,
      "d": 766.9614333333448,
      "v": 76
    },
    {
      "midi": 48,
      "hit": false,
      "t": 316814.0690000019,
      "d": 3266.960720833391,
      "v": 66
    },
    {
      "midi": 63,
      "hit": false,
      "t": 316821.44362916856,
      "d": 781.7106916666962,
      "v": 46
    },
    {
      "midi": 36,
      "hit": false,
      "t": 316828.81825833523,
      "d": 3193.214429166692,
      "v": 52
    },
    {
      "midi": 67,
      "hit": false,
      "t": 318554.48148333526,
      "d": 508.8494124999852,
      "v": 66
    },
    {
      "midi": 60,
      "hit": false,
      "t": 318583.9800000019,
      "d": 530.9733000000124,
      "v": 49
    },
    {
      "midi": 63,
      "hit": false,
      "t": 318598.72925833525,
      "d": 435.1031208333443,
      "v": 66
    },
    {
      "midi": 60,
      "hit": false,
      "t": 320346.5163708353,
      "d": 988.2003083333839,
      "v": 50
    },
    {
      "midi": 41,
      "hit": false,
      "t": 320346.5163708353,
      "d": 6777.284204166906,
      "v": 50
    },
    {
      "midi": 65,
      "hit": false,
      "t": 320353.891000002,
      "d": 1010.3241958333529,
      "v": 50
    },
    {
      "midi": 57,
      "hit": false,
      "t": 320376.014887502,
      "d": 907.079387500009,
      "v": 50
    },
    {
      "midi": 57,
      "hit": false,
      "t": 322123.802000002,
      "d": 1445.4273166666972,
      "v": 52
    },
    {
      "midi": 65,
      "hit": false,
      "t": 322123.802000002,
      "d": 1460.1765750000486,
      "v": 52
    },
    {
      "midi": 60,
      "hit": false,
      "t": 322138.55125833536,
      "d": 1489.6750916666933,
      "v": 52
    },
    {
      "midi": 63,
      "hit": false,
      "t": 323878.96374166873,
      "d": 1349.557137500029,
      "v": 49
    },
    {
      "midi": 60,
      "hit": false,
      "t": 323901.08762916876,
      "d": 1268.4362166666542,
      "v": 49
    },
    {
      "midi": 57,
      "hit": false,
      "t": 323915.8368875021,
      "d": 1165.1914083333104,
      "v": 49
    },
    {
      "midi": 63,
      "hit": false,
      "t": 325648.87474166875,
      "d": 1135.6928916667239,
      "v": 53
    },
    {
      "midi": 57,
      "hit": false,
      "t": 325663.6240000021,
      "d": 1224.1884416667162,
      "v": 53
    },
    {
      "midi": 60,
      "hit": false,
      "t": 325678.37325833546,
      "d": 1327.43325000006,
      "v": 53
    },
    {
      "midi": 57,
      "hit": false,
      "t": 327440.9096291689,
      "d": 1106.194375000021,
      "v": 56
    },
    {
      "midi": 62,
      "hit": false,
      "t": 327440.9096291689,
      "d": 1157.8167791666929,
      "v": 56
    },
    {
      "midi": 46,
      "hit": false,
      "t": 327448.2842583356,
      "d": 3193.214429166692,
      "v": 56
    },
    {
      "midi": 65,
      "hit": false,
      "t": 327455.6588875023,
      "d": 1091.4451166666695,
      "v": 56
    },
    {
      "midi": 62,
      "hit": false,
      "t": 329196.0713708356,
      "d": 789.085320833372,
      "v": 56
    },
    {
      "midi": 57,
      "hit": false,
      "t": 329210.82062916894,
      "d": 884.95550000004,
      "v": 56
    },
    {
      "midi": 65,
      "hit": false,
      "t": 329218.1952583356,
      "d": 781.7106916666962,
      "v": 56
    },
    {
      "midi": 63,
      "hit": false,
      "t": 330965.9823708356,
      "d": 1379.055654166732,
      "v": 61
    },
    {
      "midi": 39,
      "hit": false,
      "t": 330973.3570000023,
      "d": 3252.2114625000395,
      "v": 33
    },
    {
      "midi": 55,
      "hit": false,
      "t": 330980.73162916896,
      "d": 1253.686958333361,
      "v": 49
    },
    {
      "midi": 58,
      "hit": false,
      "t": 330988.10625833564,
      "d": 1305.3093625000329,
      "v": 56
    },
    {
      "midi": 63,
      "hit": false,
      "t": 332758.01725833566,
      "d": 737.4629166666418,
      "v": 37
    },
    {
      "midi": 58,
      "hit": false,
      "t": 332758.01725833566,
      "d": 980.8256791666499,
      "v": 52
    },
    {
      "midi": 55,
      "hit": false,
      "t": 332765.39188750234,
      "d": 553.0971874999814,
      "v": 49
    },
    {
      "midi": 56,
      "hit": false,
      "t": 334505.80437083566,
      "d": 1297.9347333334154,
      "v": 66
    },
    {
      "midi": 60,
      "hit": false,
      "t": 334527.9282583357,
      "d": 1061.9466000000248,
      "v": 66
    },
    {
      "midi": 63,
      "hit": false,
      "t": 334527.9282583357,
      "d": 1069.3212291667005,
      "v": 66
    },
    {
      "midi": 44,
      "hit": false,
      "t": 334535.30288750236,
      "d": 2499.9992875001044,
      "v": 66
    },
    {
      "midi": 60,
      "hit": false,
      "t": 336290.4646291691,
      "d": 988.2003083333839,
      "v": 61
    },
    {
      "midi": 63,
      "hit": false,
      "t": 336290.4646291691,
      "d": 1113.569004166755,
      "v": 61
    },
    {
      "midi": 56,
      "hit": false,
      "t": 336305.21388750244,
      "d": 1039.8227125000558,
      "v": 61
    },
    {
      "midi": 43,
      "hit": false,
      "t": 337190.1693875025,
      "d": 685.8405125000281,
      "v": 61
    },
    {
      "midi": 60,
      "hit": false,
      "t": 338053.0010000025,
      "d": 1025.0734541667043,
      "v": 64
    },
    {
      "midi": 65,
      "hit": false,
      "t": 338053.0010000025,
      "d": 1076.6958583333762,
      "v": 64
    },
    {
      "midi": 56,
      "hit": false,
      "t": 338075.1248875025,
      "d": 1135.6928916666657,
      "v": 64
    },
    {
      "midi": 41,
      "hit": false,
      "t": 338075.1248875025,
      "d": 2691.7396458333824,
      "v": 64
    },
    {
      "midi": 60,
      "hit": false,
      "t": 339815.53737083584,
      "d": 848.0823541667196,
      "v": 56
    },
    {
      "midi": 56,
      "hit": false,
      "t": 339815.53737083584,
      "d": 1238.9377000000677,
      "v": 56
    },
    {
      "midi": 65,
      "hit": false,
      "t": 339837.66125833587,
      "d": 766.9614333333448,
      "v": 56
    },
    {
      "midi": 56,
      "hit": false,
      "t": 341578.07374166924,
      "d": 1165.1914083333686,
      "v": 64
    },
    {
      "midi": 63,
      "hit": false,
      "t": 341578.07374166924,
      "d": 1172.5660375000443,
      "v": 64
    },
    {
      "midi": 60,
      "hit": false,
      "t": 341600.19762916927,
      "d": 1135.6928916666657,
      "v": 64
    },
    {
      "midi": 46,
      "hit": false,
      "t": 341600.19762916927,
      "d": 2558.996320833394,
      "v": 64
    },
    {
      "midi": 56,
      "hit": false,
      "t": 343347.98474166926,
      "d": 494.10015416675014,
      "v": 64
    },
    {
      "midi": 63,
      "hit": false,
      "t": 343362.7340000026,
      "d": 449.85237916669575,
      "v": 64
    },
    {
      "midi": 60,
      "hit": false,
      "t": 343370.1086291693,
      "d": 464.6016375000472,
      "v": 64
    },
    {
      "midi": 53,
      "hit": false,
      "t": 345117.89574166934,
      "d": 412.9792333333753,
      "v": 72
    },
    {
      "midi": 62,
      "hit": false,
      "t": 345125.270370836,
      "d": 486.7255250000162,
      "v": 72
    },
    {
      "midi": 58,
      "hit": false,
      "t": 345140.0196291694,
      "d": 501.47478333330946,
      "v": 72
    },
    {
      "midi": 46,
      "hit": false,
      "t": 345140.0196291694,
      "d": 648.9673666666495,
      "v": 72
    },
    {
      "midi": 58,
      "hit": false,
      "t": 346902.5560000027,
      "d": 302.35979583335575,
      "v": 82
    },
    {
      "midi": 46,
      "hit": false,
      "t": 346902.5560000027,
      "d": 317.1090541667072,
      "v": 82
    },
    {
      "midi": 62,
      "hit": false,
      "t": 346909.9306291694,
      "d": 294.98516666668,
      "v": 82
    },
    {
      "midi": 63,
      "hit": false,
      "t": 347330.28449166944,
      "d": 280.23590833338676,
      "v": 86
    },
    {
      "midi": 48,
      "hit": false,
      "t": 347345.0337500028,
      "d": 405.6046041666996,
      "v": 68
    },
    {
      "midi": 60,
      "hit": false,
      "t": 347359.78300833615,
      "d": 243.3627625000081,
      "v": 86
    },
    {
      "midi": 65,
      "hit": false,
      "t": 347787.5115000028,
      "d": 398.22997500002384,
      "v": 93
    },
    {
      "midi": 62,
      "hit": false,
      "t": 347794.8861291695,
      "d": 405.6046041666996,
      "v": 93
    },
    {
      "midi": 50,
      "hit": false,
      "t": 347802.26075833617,
      "d": 833.3330958333681,
      "v": 77
    },
    {
      "midi": 70,
      "hit": false,
      "t": 348657.71774166956,
      "d": 1482.3004625000176,
      "v": 25
    },
    {
      "midi": 67,
      "hit": false,
      "t": 348672.4670000029,
      "d": 1371.681024999998,
      "v": 42
    },
    {
      "midi": 39,
      "hit": false,
      "t": 348687.21625833627,
      "d": 228.61350416665664,
      "v": 38
    },
    {
      "midi": 63,
      "hit": false,
      "t": 348687.21625833627,
      "d": 1474.9258333333419,
      "v": 27
    },
    {
      "midi": 70,
      "hit": false,
      "t": 350449.7526291696,
      "d": 1010.3241958333529,
      "v": 25
    },
    {
      "midi": 63,
      "hit": false,
      "t": 350449.7526291696,
      "d": 1069.3212291667005,
      "v": 26
    },
    {
      "midi": 51,
      "hit": false,
      "t": 350449.7526291696,
      "d": 1629.7930458333576,
      "v": 26
    },
    {
      "midi": 67,
      "hit": false,
      "t": 350464.50188750296,
      "d": 943.9525333333295,
      "v": 46
    },
    {
      "midi": 72,
      "hit": false,
      "t": 352197.53974166967,
      "d": 1334.8078791667358,
      "v": 49
    },
    {
      "midi": 63,
      "hit": false,
      "t": 352212.289000003,
      "d": 1297.9347333333571,
      "v": 22
    },
    {
      "midi": 48,
      "hit": false,
      "t": 352212.289000003,
      "d": 3392.32941666682,
      "v": 42
    },
    {
      "midi": 67,
      "hit": false,
      "t": 352234.41288750304,
      "d": 1231.5630708333338,
      "v": 46
    },
    {
      "midi": 72,
      "hit": false,
      "t": 353982.2000000031,
      "d": 1275.8108458333882,
      "v": 63
    },
    {
      "midi": 63,
      "hit": false,
      "t": 353996.94925833645,
      "d": 730.0882875000243,
      "v": 29
    },
    {
      "midi": 67,
      "hit": false,
      "t": 354004.3238875031,
      "d": 840.7077250000439,
      "v": 46
    },
    {
      "midi": 72,
      "hit": false,
      "t": 355737.3617416699,
      "d": 1474.9258333334,
      "v": 53
    },
    {
      "midi": 41,
      "hit": false,
      "t": 355752.11100000323,
      "d": 538.3479291666881,
      "v": 42
    },
    {
      "midi": 65,
      "hit": false,
      "t": 355766.8602583366,
      "d": 1386.4302833333495,
      "v": 46
    },
    {
      "midi": 68,
      "hit": false,
      "t": 355774.23488750326,
      "d": 1194.6899250000133,
      "v": 34
    },
    {
      "midi": 53,
      "hit": false,
      "t": 357507.27274166996,
      "d": 988.2003083333839,
      "v": 42
    },
    {
      "midi": 68,
      "hit": false,
      "t": 357507.27274166996,
      "d": 1165.1914083334268,
      "v": 34
    },
    {
      "midi": 72,
      "hit": false,
      "t": 357507.27274166996,
      "d": 1187.315295833454,
      "v": 46
    },
    {
      "midi": 65,
      "hit": false,
      "t": 357514.64737083664,
      "d": 995.5749375000596,
      "v": 42
    },
    {
      "midi": 52,
      "hit": false,
      "t": 357529.39662917,
      "d": 147.49258333334,
      "v": 42
    },
    {
      "midi": 46,
      "hit": false,
      "t": 359299.3076291701,
      "d": 995.5749375000014,
      "v": 38
    },
    {
      "midi": 58,
      "hit": false,
      "t": 359306.6822583368,
      "d": 1069.3212291666423,
      "v": 34
    },
    {
      "midi": 65,
      "hit": false,
      "t": 359306.6822583368,
      "d": 1386.4302833332913,
      "v": 53
    },
    {
      "midi": 70,
      "hit": false,
      "t": 359306.6822583368,
      "d": 1460.1765749999322,
      "v": 27
    },
    {
      "midi": 62,
      "hit": false,
      "t": 359314.0568875035,
      "d": 1533.922866666573,
      "v": 50
    },
    {
      "midi": 65,
      "hit": false,
      "t": 361054.46937083674,
      "d": 899.7047583333333,
      "v": 63
    },
    {
      "midi": 56,
      "hit": false,
      "t": 361054.46937083674,
      "d": 1002.9495666666771,
      "v": 29
    },
    {
      "midi": 62,
      "hit": false,
      "t": 361061.8440000034,
      "d": 789.085320833372,
      "v": 50
    },
    {
      "midi": 68,
      "hit": false,
      "t": 361076.59325833677,
      "d": 848.0823541666614,
      "v": 26
    },
    {
      "midi": 44,
      "hit": false,
      "t": 361076.59325833677,
      "d": 1017.6988249999704,
      "v": 46
    },
    {
      "midi": 70,
      "hit": false,
      "t": 361083.96788750344,
      "d": 1025.0734541666461,
      "v": 36
    },
    {
      "midi": 67,
      "hit": false,
      "t": 362824.38037083676,
      "d": 1106.194375000021,
      "v": 50
    },
    {
      "midi": 55,
      "hit": false,
      "t": 362824.38037083676,
      "d": 3775.810133333376,
      "v": 50
    },
    {
      "midi": 70,
      "hit": false,
      "t": 362839.1296291701,
      "d": 1143.0675208333414,
      "v": 38
    },
    {
      "midi": 43,
      "hit": false,
      "t": 362853.87888750347,
      "d": 2109.14394166664,
      "v": 50
    },
    {
      "midi": 62,
      "hit": false,
      "t": 364594.2913708368,
      "d": 921.8286458333023,
      "v": 55
    },
    {
      "midi": 67,
      "hit": false,
      "t": 364594.2913708368,
      "d": 1533.9228666666313,
      "v": 53
    },
    {
      "midi": 70,
      "hit": false,
      "t": 364601.66600000346,
      "d": 980.8256791666499,
      "v": 38
    },
    {
      "midi": 48,
      "hit": false,
      "t": 366356.8277416701,
      "d": 2581.120208333421,
      "v": 42
    },
    {
      "midi": 67,
      "hit": false,
      "t": 366364.20237083675,
      "d": 1231.563070833392,
      "v": 46
    },
    {
      "midi": 72,
      "hit": false,
      "t": 366386.3262583368,
      "d": 1202.064554166689,
      "v": 42
    },
    {
      "midi": 63,
      "hit": false,
      "t": 366386.3262583368,
      "d": 1342.1825083333533,
      "v": 25
    },
    {
      "midi": 67,
      "hit": false,
      "t": 368126.73874167015,
      "d": 759.586804166669,
      "v": 53
    },
    {
      "midi": 72,
      "hit": false,
      "t": 368141.4880000035,
      "d": 789.0853208333137,
      "v": 53
    },
    {
      "midi": 63,
      "hit": false,
      "t": 368141.4880000035,
      "d": 892.3301291666576,
      "v": 26
    },
    {
      "midi": 60,
      "hit": false,
      "t": 369904.0243708368,
      "d": 1423.3034291667282,
      "v": 46
    },
    {
      "midi": 65,
      "hit": false,
      "t": 369911.39900000347,
      "d": 1467.5512041667243,
      "v": 53
    },
    {
      "midi": 68,
      "hit": false,
      "t": 369918.77362917014,
      "d": 1401.179541666701,
      "v": 34
    },
    {
      "midi": 41,
      "hit": false,
      "t": 369926.1482583368,
      "d": 1828.9080333333695,
      "v": 69
    },
    {
      "midi": 65,
      "hit": false,
      "t": 371666.5607416702,
      "d": 1349.5571374999708,
      "v": 50
    },
    {
      "midi": 60,
      "hit": false,
      "t": 371703.4338875035,
      "d": 700.5897708333214,
      "v": 38
    },
    {
      "midi": 68,
      "hit": false,
      "t": 371703.4338875035,
      "d": 870.2062416666304,
      "v": 38
    },
    {
      "midi": 46,
      "hit": false,
      "t": 373451.2210000035,
      "d": 1858.4065500001307,
      "v": 50
    },
    {
      "midi": 70,
      "hit": false,
      "t": 373458.5956291702,
      "d": 1106.194375000021,
      "v": 42
    },
    {
      "midi": 62,
      "hit": false,
      "t": 373465.97025833686,
      "d": 1120.9436333333724,
      "v": 50
    },
    {
      "midi": 65,
      "hit": false,
      "t": 373465.97025833686,
      "d": 1120.9436333333724,
      "v": 53
    },
    {
      "midi": 70,
      "hit": false,
      "t": 375228.50662917027,
      "d": 191.7403583333944,
      "v": 22
    },
    {
      "midi": 62,
      "hit": false,
      "t": 375228.50662917027,
      "d": 206.48961666674586,
      "v": 42
    },
    {
      "midi": 65,
      "hit": false,
      "t": 375235.88125833694,
      "d": 213.8642458334216,
      "v": 50
    },
    {
      "midi": 58,
      "hit": false,
      "t": 375243.2558875036,
      "d": 1135.6928916667239,
      "v": 36
    },
    {
      "midi": 63,
      "hit": false,
      "t": 376976.2937416703,
      "d": 1519.1736083333963,
      "v": 36
    },
    {
      "midi": 70,
      "hit": false,
      "t": 376998.41762917035,
      "d": 1504.4243500000448,
      "v": 36
    },
    {
      "midi": 51,
      "hit": false,
      "t": 377005.792258337,
      "d": 3443.951820833434,
      "v": 42
    },
    {
      "midi": 67,
      "hit": false,
      "t": 377013.1668875037,
      "d": 1556.0467541667167,
      "v": 55
    },
    {
      "midi": 70,
      "hit": false,
      "t": 378753.5793708371,
      "d": 1010.3241958333529,
      "v": 42
    },
    {
      "midi": 63,
      "hit": false,
      "t": 378775.7032583371,
      "d": 1002.9495666666771,
      "v": 38
    },
    {
      "midi": 67,
      "hit": false,
      "t": 378783.0778875038,
      "d": 1054.571970833349,
      "v": 42
    },
    {
      "midi": 63,
      "hit": false,
      "t": 380516.1157416704,
      "d": 1320.0586208333843,
      "v": 36
    },
    {
      "midi": 60,
      "hit": false,
      "t": 380516.1157416704,
      "d": 1334.8078791667358,
      "v": 53
    },
    {
      "midi": 67,
      "hit": false,
      "t": 380538.23962917045,
      "d": 1305.3093625000329,
      "v": 53
    },
    {
      "midi": 48,
      "hit": false,
      "t": 380545.6142583371,
      "d": 966.0764208333567,
      "v": 63
    },
    {
      "midi": 67,
      "hit": false,
      "t": 382286.0267416705,
      "d": 597.3449625000358,
      "v": 55
    },
    {
      "midi": 60,
      "hit": false,
      "t": 382286.0267416705,
      "d": 685.8405125000281,
      "v": 53
    },
    {
      "midi": 63,
      "hit": false,
      "t": 382293.4013708372,
      "d": 730.0882875000243,
      "v": 27
    },
    {
      "midi": 36,
      "hit": false,
      "t": 382315.5252583372,
      "d": 287.6105375000043,
      "v": 46
    },
    {
      "midi": 65,
      "hit": false,
      "t": 384070.68700000393,
      "d": 1091.4451166666695,
      "v": 55
    },
    {
      "midi": 72,
      "hit": false,
      "t": 384070.68700000393,
      "d": 1467.5512041666661,
      "v": 55
    },
    {
      "midi": 68,
      "hit": false,
      "t": 384085.4362583373,
      "d": 1548.6721249999828,
      "v": 46
    },
    {
      "midi": 41,
      "hit": false,
      "t": 384085.4362583373,
      "d": 3539.8220000000438,
      "v": 69
    },
    {
      "midi": 68,
      "hit": false,
      "t": 385833.2233708373,
      "d": 700.5897708333214,
      "v": 34
    },
    {
      "midi": 65,
      "hit": false,
      "t": 385840.59800000396,
      "d": 759.586804166669,
      "v": 69
    },
    {
      "midi": 72,
      "hit": false,
      "t": 385862.721887504,
      "d": 501.47478333330946,
      "v": 55
    },
    {
      "midi": 62,
      "hit": false,
      "t": 387595.7597416706,
      "d": 1578.1706416666857,
      "v": 55
    },
    {
      "midi": 68,
      "hit": false,
      "t": 387603.1343708373,
      "d": 1592.9199000000372,
      "v": 50
    },
    {
      "midi": 65,
      "hit": false,
      "t": 387610.509000004,
      "d": 1563.4213833333342,
      "v": 55
    },
    {
      "midi": 38,
      "hit": false,
      "t": 387625.25825833733,
      "d": 427.72849166666856,
      "v": 69
    },
    {
      "midi": 72,
      "hit": false,
      "t": 387632.632887504,
      "d": 1600.2945291666547,
      "v": 63
    },
    {
      "midi": 71,
      "hit": false,
      "t": 389365.67074167065,
      "d": 663.7166250000591,
      "v": 63
    },
    {
      "midi": 65,
      "hit": false,
      "t": 389373.0453708373,
      "d": 671.0912541667349,
      "v": 63
    },
    {
      "midi": 62,
      "hit": false,
      "t": 389395.16925833735,
      "d": 597.3449625000358,
      "v": 63
    },
    {
      "midi": 43,
      "hit": false,
      "t": 389402.543887504,
      "d": 1511.7989791667205,
      "v": 55
    },
    {
      "midi": 72,
      "hit": false,
      "t": 391142.9563708374,
      "d": 1519.173608333338,
      "v": 53
    },
    {
      "midi": 63,
      "hit": false,
      "t": 391142.9563708374,
      "d": 1541.2974958333652,
      "v": 36
    },
    {
      "midi": 67,
      "hit": false,
      "t": 391172.45488750405,
      "d": 1482.3004625000176,
      "v": 55
    },
    {
      "midi": 48,
      "hit": false,
      "t": 391172.45488750405,
      "d": 3502.9488541667815,
      "v": 63
    },
    {
      "midi": 67,
      "hit": false,
      "t": 392927.6166291708,
      "d": 1297.9347333333571,
      "v": 42
    },
    {
      "midi": 72,
      "hit": false,
      "t": 392942.36588750413,
      "d": 1268.4362166666542,
      "v": 53
    },
    {
      "midi": 63,
      "hit": false,
      "t": 392942.36588750413,
      "d": 1349.557137500029,
      "v": 27
    },
    {
      "midi": 63,
      "hit": false,
      "t": 394682.7783708375,
      "d": 1452.8019458333729,
      "v": 34
    },
    {
      "midi": 67,
      "hit": false,
      "t": 394682.7783708375,
      "d": 1452.8019458333729,
      "v": 53
    },
    {
      "midi": 72,
      "hit": false,
      "t": 394690.1530000042,
      "d": 1386.4302833333495,
      "v": 46
    },
    {
      "midi": 46,
      "hit": false,
      "t": 394690.1530000042,
      "d": 3023.597958333441,
      "v": 38
    },
    {
      "midi": 67,
      "hit": false,
      "t": 396467.4386291709,
      "d": 553.0971875000396,
      "v": 46
    },
    {
      "midi": 63,
      "hit": false,
      "t": 396467.4386291709,
      "d": 663.7166250000591,
      "v": 32
    },
    {
      "midi": 72,
      "hit": false,
      "t": 396482.18788750423,
      "d": 641.592737500032,
      "v": 50
    },
    {
      "midi": 68,
      "hit": false,
      "t": 398244.72425833764,
      "d": 1371.681024999998,
      "v": 46
    },
    {
      "midi": 60,
      "hit": false,
      "t": 398252.0988875043,
      "d": 1423.30342916667,
      "v": 53
    },
    {
      "midi": 63,
      "hit": false,
      "t": 398252.0988875043,
      "d": 1497.0497208333109,
      "v": 46
    },
    {
      "midi": 44,
      "hit": false,
      "t": 398252.0988875043,
      "d": 2551.621691666718,
      "v": 46
    },
    {
      "midi": 68,
      "hit": false,
      "t": 399985.13674167095,
      "d": 936.5779041667702,
      "v": 29
    },
    {
      "midi": 72,
      "hit": false,
      "t": 399992.51137083763,
      "d": 700.5897708333796,
      "v": 46
    },
    {
      "midi": 60,
      "hit": false,
      "t": 399999.8860000043,
      "d": 759.5868041667272,
      "v": 36
    },
    {
      "midi": 63,
      "hit": false,
      "t": 400022.00988750433,
      "d": 943.9525333333877,
      "v": 26
    },
    {
      "midi": 70,
      "hit": false,
      "t": 401755.04774167103,
      "d": 3097.344250000082,
      "v": 36
    },
    {
      "midi": 62,
      "hit": false,
      "t": 401777.17162917106,
      "d": 3067.845733333379,
      "v": 38
    },
    {
      "midi": 65,
      "hit": false,
      "t": 401784.54625833774,
      "d": 3045.721845833352,
      "v": 63
    },
    {
      "midi": 46,
      "hit": false,
      "t": 401784.54625833774,
      "d": 3082.5949916667305,
      "v": 46
    },
    {
      "midi": 47,
      "hit": false,
      "t": 405294.86974167114,
      "d": 1769.9110000000219,
      "v": 65
    },
    {
      "midi": 66,
      "hit": false,
      "t": 405309.6190000045,
      "d": 1165.1914083333104,
      "v": 77
    },
    {
      "midi": 59,
      "hit": false,
      "t": 405316.99362917116,
      "d": 1128.31826249999,
      "v": 61
    },
    {
      "midi": 63,
      "hit": false,
      "t": 405324.36825833784,
      "d": 1120.9436333333142,
      "v": 61
    },
    {
      "midi": 59,
      "hit": false,
      "t": 407064.78074167116,
      "d": 1349.5571374999708,
      "v": 61
    },
    {
      "midi": 66,
      "hit": false,
      "t": 407101.6538875045,
      "d": 1386.4302833333495,
      "v": 69
    },
    {
      "midi": 63,
      "hit": false,
      "t": 407101.6538875045,
      "d": 1401.179541666701,
      "v": 58
    },
    {
      "midi": 47,
      "hit": false,
      "t": 408421.7125083378,
      "d": 545.7225583333638,
      "v": 65
    },
    {
      "midi": 59,
      "hit": false,
      "t": 408834.6917416712,
      "d": 796.4599499999895,
      "v": 49
    },
    {
      "midi": 47,
      "hit": false,
      "t": 409291.9187500045,
      "d": 530.9733000000124,
      "v": 58
    },
    {
      "midi": 63,
      "hit": false,
      "t": 409719.64724167116,
      "d": 685.8405124999699,
      "v": 58
    },
    {
      "midi": 59,
      "hit": false,
      "t": 409756.5203875045,
      "d": 604.7195916666533,
      "v": 61
    },
    {
      "midi": 47,
      "hit": false,
      "t": 410184.24887917115,
      "d": 383.4807166666724,
      "v": 61
    },
    {
      "midi": 66,
      "hit": false,
      "t": 410611.9773708378,
      "d": 884.95550000004,
      "v": 58
    },
    {
      "midi": 59,
      "hit": false,
      "t": 410634.10125833785,
      "d": 870.2062416666886,
      "v": 52
    },
    {
      "midi": 63,
      "hit": false,
      "t": 410641.4758875045,
      "d": 818.5838375000167,
      "v": 31
    },
    {
      "midi": 66,
      "hit": false,
      "t": 411932.0359916712,
      "d": 235.98813333339058,
      "v": 49
    },
    {
      "midi": 63,
      "hit": false,
      "t": 411939.4106208379,
      "d": 221.23887500003912,
      "v": 49
    },
    {
      "midi": 59,
      "hit": false,
      "t": 411961.5345083379,
      "d": 154.86721250001574,
      "v": 69
    },
    {
      "midi": 46,
      "hit": false,
      "t": 412396.63762917125,
      "d": 1762.5363708333462,
      "v": 52
    },
    {
      "midi": 65,
      "hit": false,
      "t": 414151.7993708379,
      "d": 1165.1914083333686,
      "v": 23
    },
    {
      "midi": 62,
      "hit": false,
      "t": 414181.2978875046,
      "d": 1054.571970833349,
      "v": 65
    },
    {
      "midi": 58,
      "hit": false,
      "t": 415051.5041291713,
      "d": 715.3390291666728,
      "v": 36
    },
    {
      "midi": 62,
      "hit": false,
      "t": 415508.7311375046,
      "d": 398.22997500002384,
      "v": 61
    },
    {
      "midi": 70,
      "hit": false,
      "t": 415921.710370838,
      "d": 848.0823541667196,
      "v": 36
    },
    {
      "midi": 65,
      "hit": false,
      "t": 415929.0850000047,
      "d": 781.7106916666962,
      "v": 65
    },
    {
      "midi": 46,
      "hit": false,
      "t": 415936.45962917135,
      "d": 1017.6988250000286,
      "v": 49
    },
    {
      "midi": 62,
      "hit": false,
      "t": 415943.834258338,
      "d": 833.3330958333681,
      "v": 46
    },
    {
      "midi": 63,
      "hit": false,
      "t": 419454.15774167137,
      "d": 1474.9258333333419,
      "v": 25
    },
    {
      "midi": 67,
      "hit": false,
      "t": 419461.53237083805,
      "d": 1371.681024999998,
      "v": 40
    },
    {
      "midi": 39,
      "hit": false,
      "t": 419468.9070000047,
      "d": 228.61350416665664,
      "v": 36
    },
    {
      "midi": 70,
      "hit": false,
      "t": 419476.2816291714,
      "d": 1482.3004624999594,
      "v": 23
    },
    {
      "midi": 67,
      "hit": false,
      "t": 421224.06874167133,
      "d": 943.9525333333295,
      "v": 44
    },
    {
      "midi": 63,
      "hit": false,
      "t": 421231.443370838,
      "d": 1069.3212291666423,
      "v": 24
    },
    {
      "midi": 70,
      "hit": false,
      "t": 421260.94188750465,
      "d": 1010.3241958333529,
      "v": 23
    },
    {
      "midi": 51,
      "hit": false,
      "t": 421260.94188750465,
      "d": 1629.7930458333576,
      "v": 24
    },
    {
      "midi": 67,
      "hit": false,
      "t": 423001.35437083803,
      "d": 1231.5630708333338,
      "v": 44
    },
    {
      "midi": 72,
      "hit": false,
      "t": 423008.7290000047,
      "d": 1334.8078791666194,
      "v": 47
    },
    {
      "midi": 63,
      "hit": false,
      "t": 423016.1036291714,
      "d": 1297.934733333299,
      "v": 21
    },
    {
      "midi": 48,
      "hit": false,
      "t": 423016.1036291714,
      "d": 3392.3294166666456,
      "v": 40
    },
    {
      "midi": 72,
      "hit": false,
      "t": 424763.8907416713,
      "d": 1275.8108458333882,
      "v": 60
    },
    {
      "midi": 67,
      "hit": false,
      "t": 424778.64000000467,
      "d": 840.7077250000439,
      "v": 44
    },
    {
      "midi": 63,
      "hit": false,
      "t": 424786.01462917135,
      "d": 730.0882875000243,
      "v": 28
    },
    {
      "midi": 65,
      "hit": false,
      "t": 426541.1763708381,
      "d": 1386.4302833333495,
      "v": 44
    },
    {
      "midi": 72,
      "hit": false,
      "t": 426541.1763708381,
      "d": 1474.9258333333419,
      "v": 50
    },
    {
      "midi": 68,
      "hit": false,
      "t": 426555.9256291714,
      "d": 1194.6899250000133,
      "v": 32
    },
    {
      "midi": 41,
      "hit": false,
      "t": 426563.3002583381,
      "d": 538.3479291666881,
      "v": 40
    },
    {
      "midi": 53,
      "hit": false,
      "t": 428318.4620000048,
      "d": 988.2003083333839,
      "v": 40
    },
    {
      "midi": 68,
      "hit": false,
      "t": 428325.83662917145,
      "d": 1165.1914083334268,
      "v": 32
    },
    {
      "midi": 52,
      "hit": false,
      "t": 428333.2112583381,
      "d": 147.49258333334,
      "v": 40
    },
    {
      "midi": 65,
      "hit": false,
      "t": 428333.2112583381,
      "d": 995.5749375000596,
      "v": 40
    },
    {
      "midi": 72,
      "hit": false,
      "t": 428340.5858875048,
      "d": 1187.3152958333958,
      "v": 44
    },
    {
      "midi": 46,
      "hit": false,
      "t": 430073.62374167156,
      "d": 995.5749375000596,
      "v": 36
    },
    {
      "midi": 58,
      "hit": false,
      "t": 430073.62374167156,
      "d": 1069.3212291667005,
      "v": 32
    },
    {
      "midi": 62,
      "hit": false,
      "t": 430088.3730000049,
      "d": 1533.9228666667477,
      "v": 47
    },
    {
      "midi": 70,
      "hit": false,
      "t": 430095.7476291716,
      "d": 1460.1765750000486,
      "v": 25
    },
    {
      "midi": 65,
      "hit": false,
      "t": 430103.12225833826,
      "d": 1386.4302833333495,
      "v": 50
    },
    {
      "midi": 62,
      "hit": false,
      "t": 431843.53474167164,
      "d": 789.085320833372,
      "v": 47
    },
    {
      "midi": 68,
      "hit": false,
      "t": 431843.53474167164,
      "d": 848.0823541667196,
      "v": 24
    },
    {
      "midi": 56,
      "hit": false,
      "t": 431858.284000005,
      "d": 1002.9495666666771,
      "v": 28
    },
    {
      "midi": 65,
      "hit": false,
      "t": 431865.65862917167,
      "d": 899.7047583333333,
      "v": 60
    },
    {
      "midi": 44,
      "hit": false,
      "t": 431873.03325833834,
      "d": 1017.6988249999704,
      "v": 44
    },
    {
      "midi": 70,
      "hit": false,
      "t": 431880.407887505,
      "d": 1025.0734541666461,
      "v": 34
    },
    {
      "midi": 43,
      "hit": false,
      "t": 433620.82037083834,
      "d": 2109.143941666698,
      "v": 47
    },
    {
      "midi": 70,
      "hit": false,
      "t": 433635.5696291717,
      "d": 1143.0675208333414,
      "v": 36
    },
    {
      "midi": 67,
      "hit": false,
      "t": 433642.94425833836,
      "d": 1106.194375000021,
      "v": 47
    },
    {
      "midi": 55,
      "hit": false,
      "t": 433642.94425833836,
      "d": 3775.810133333376,
      "v": 47
    },
    {
      "midi": 67,
      "hit": false,
      "t": 435390.73137083836,
      "d": 1533.9228666666895,
      "v": 50
    },
    {
      "midi": 62,
      "hit": false,
      "t": 435405.4806291717,
      "d": 921.8286458333023,
      "v": 52
    },
    {
      "midi": 70,
      "hit": false,
      "t": 435405.4806291717,
      "d": 980.8256791666499,
      "v": 36
    },
    {
      "midi": 48,
      "hit": false,
      "t": 437153.2677416717,
      "d": 2581.120208333421,
      "v": 40
    },
    {
      "midi": 67,
      "hit": false,
      "t": 437168.01700000506,
      "d": 1231.563070833392,
      "v": 44
    },
    {
      "midi": 63,
      "hit": false,
      "t": 437168.01700000506,
      "d": 1342.1825083334115,
      "v": 23
    },
    {
      "midi": 72,
      "hit": false,
      "t": 437182.7662583384,
      "d": 1202.064554166689,
      "v": 40
    },
    {
      "midi": 67,
      "hit": false,
      "t": 438937.92800000514,
      "d": 759.586804166669,
      "v": 50
    },
    {
      "midi": 63,
      "hit": false,
      "t": 438945.3026291718,
      "d": 892.3301291666576,
      "v": 24
    },
    {
      "midi": 70,
      "hit": false,
      "t": 439808.13424167177,
      "d": 176.99110000004293,
      "v": 68
    },
    {
      "midi": 82,
      "hit": false,
      "t": 439822.8835000051,
      "d": 199.11498750001192,
      "v": 68
    },
    {
      "midi": 70,
      "hit": false,
      "t": 440707.83900000516,
      "d": 199.11498750001192,
      "v": 65
    },
    {
      "midi": 48,
      "hit": false,
      "t": 440707.83900000516,
      "d": 1423.3034291667282,
      "v": 44
    },
    {
      "midi": 82,
      "hit": false,
      "t": 440729.9628875052,
      "d": 272.8612791666528,
      "v": 74
    },
    {
      "midi": 41,
      "hit": false,
      "t": 440729.9628875052,
      "d": 1828.9080333333695,
      "v": 65
    },
    {
      "midi": 80,
      "hit": false,
      "t": 442020.52299167187,
      "d": 317.1090541667072,
      "v": 54
    },
    {
      "midi": 68,
      "hit": false,
      "t": 442042.6468791719,
      "d": 235.98813333333237,
      "v": 54
    },
    {
      "midi": 67,
      "hit": false,
      "t": 443384.82938750525,
      "d": 125.36869583331281,
      "v": 57
    },
    {
      "midi": 79,
      "hit": false,
      "t": 443384.82938750525,
      "d": 154.86721249995753,
      "v": 57
    },
    {
      "midi": 65,
      "hit": false,
      "t": 444240.2863708385,
      "d": 117.99406666669529,
      "v": 36
    },
    {
      "midi": 77,
      "hit": false,
      "t": 444247.6610000052,
      "d": 184.36572916666046,
      "v": 74
    },
    {
      "midi": 46,
      "hit": false,
      "t": 444255.0356291719,
      "d": 1858.406549999956,
      "v": 47
    },
    {
      "midi": 74,
      "hit": false,
      "t": 445095.74335417186,
      "d": 206.48961666668765,
      "v": 77
    },
    {
      "midi": 62,
      "hit": false,
      "t": 445117.8672416719,
      "d": 280.23590833332855,
      "v": 51
    },
    {
      "midi": 63,
      "hit": false,
      "t": 445811.08238333854,
      "d": 154.86721250001574,
      "v": 74
    },
    {
      "midi": 75,
      "hit": false,
      "t": 445811.08238333854,
      "d": 228.61350416665664,
      "v": 60
    },
    {
      "midi": 77,
      "hit": false,
      "t": 446688.66325417184,
      "d": 169.6164708333672,
      "v": 88
    },
    {
      "midi": 65,
      "hit": false,
      "t": 446703.4125125052,
      "d": 154.86721250001574,
      "v": 51
    },
    {
      "midi": 63,
      "hit": false,
      "t": 447772.7337416719,
      "d": 1519.1736083333963,
      "v": 34
    },
    {
      "midi": 70,
      "hit": false,
      "t": 447780.10837083857,
      "d": 1504.4243500000448,
      "v": 34
    },
    {
      "midi": 67,
      "hit": false,
      "t": 447787.48300000525,
      "d": 1556.0467541667167,
      "v": 52
    },
    {
      "midi": 51,
      "hit": false,
      "t": 447794.8576291719,
      "d": 3443.951820833434,
      "v": 40
    },
    {
      "midi": 67,
      "hit": false,
      "t": 449542.644741672,
      "d": 1054.5719708334072,
      "v": 40
    },
    {
      "midi": 70,
      "hit": false,
      "t": 449557.3940000053,
      "d": 1010.3241958333529,
      "v": 40
    },
    {
      "midi": 63,
      "hit": false,
      "t": 449579.51788750535,
      "d": 1002.9495666666771,
      "v": 36
    },
    {
      "midi": 48,
      "hit": false,
      "t": 451319.9303708387,
      "d": 966.0764208333567,
      "v": 60
    },
    {
      "midi": 63,
      "hit": false,
      "t": 451319.9303708387,
      "d": 1320.0586208333843,
      "v": 34
    },
    {
      "midi": 67,
      "hit": false,
      "t": 451334.679629172,
      "d": 1305.3093625000329,
      "v": 50
    },
    {
      "midi": 60,
      "hit": false,
      "t": 451349.4288875054,
      "d": 1334.8078791666776,
      "v": 50
    },
    {
      "midi": 36,
      "hit": false,
      "t": 453089.8413708387,
      "d": 287.6105375000625,
      "v": 44
    },
    {
      "midi": 63,
      "hit": false,
      "t": 453089.8413708387,
      "d": 730.0882875000243,
      "v": 25
    },
    {
      "midi": 60,
      "hit": false,
      "t": 453104.59062917205,
      "d": 685.8405125000281,
      "v": 50
    },
    {
      "midi": 67,
      "hit": false,
      "t": 453119.3398875054,
      "d": 597.3449625000358,
      "v": 52
    },
    {
      "midi": 65,
      "hit": false,
      "t": 454859.7523708388,
      "d": 1091.4451166667277,
      "v": 53
    },
    {
      "midi": 68,
      "hit": false,
      "t": 454859.7523708388,
      "d": 1548.672125000041,
      "v": 44
    },
    {
      "midi": 72,
      "hit": false,
      "t": 454867.12700000545,
      "d": 1467.5512041667243,
      "v": 53
    },
    {
      "midi": 41,
      "hit": false,
      "t": 454889.2508875055,
      "d": 3539.822000000102,
      "v": 66
    },
    {
      "midi": 72,
      "hit": false,
      "t": 456622.2887416721,
      "d": 501.47478333336767,
      "v": 53
    },
    {
      "midi": 65,
      "hit": false,
      "t": 456644.41262917215,
      "d": 759.586804166669,
      "v": 66
    },
    {
      "midi": 68,
      "hit": false,
      "t": 456659.1618875055,
      "d": 700.5897708333214,
      "v": 32
    },
    {
      "midi": 65,
      "hit": false,
      "t": 458392.1997416722,
      "d": 1578.170641666744,
      "v": 53
    },
    {
      "midi": 68,
      "hit": false,
      "t": 458392.1997416722,
      "d": 1592.9199000000954,
      "v": 47
    },
    {
      "midi": 38,
      "hit": false,
      "t": 458399.5743708389,
      "d": 427.72849166672677,
      "v": 66
    },
    {
      "midi": 62,
      "hit": false,
      "t": 458406.94900000555,
      "d": 1578.170641666744,
      "v": 53
    },
    {
      "midi": 72,
      "hit": false,
      "t": 458429.0728875056,
      "d": 1600.294529166713,
      "v": 60
    },
    {
      "midi": 62,
      "hit": false,
      "t": 460169.48537083896,
      "d": 597.3449625000358,
      "v": 60
    },
    {
      "midi": 71,
      "hit": false,
      "t": 460176.86000000563,
      "d": 663.7166250000009,
      "v": 60
    },
    {
      "midi": 43,
      "hit": false,
      "t": 460176.86000000563,
      "d": 1511.7989791667205,
      "v": 53
    },
    {
      "midi": 65,
      "hit": false,
      "t": 460184.2346291723,
      "d": 671.0912541666767,
      "v": 60
    },
    {
      "midi": 72,
      "hit": false,
      "t": 461939.39637083904,
      "d": 1519.173608333338,
      "v": 51
    },
    {
      "midi": 67,
      "hit": false,
      "t": 461946.7710000057,
      "d": 1482.3004625000176,
      "v": 53
    },
    {
      "midi": 48,
      "hit": false,
      "t": 461946.7710000057,
      "d": 3502.948854166665,
      "v": 60
    },
    {
      "midi": 63,
      "hit": false,
      "t": 461954.1456291724,
      "d": 1541.297495833307,
      "v": 34
    },
    {
      "midi": 72,
      "hit": false,
      "t": 463724.05662917235,
      "d": 1268.4362166667124,
      "v": 51
    },
    {
      "midi": 67,
      "hit": false,
      "t": 463738.8058875057,
      "d": 1297.9347333333571,
      "v": 42
    },
    {
      "midi": 63,
      "hit": false,
      "t": 463738.8058875057,
      "d": 1349.557137500029,
      "v": 26
    },
    {
      "midi": 67,
      "hit": false,
      "t": 465479.218370839,
      "d": 1452.8019458333729,
      "v": 51
    },
    {
      "midi": 46,
      "hit": false,
      "t": 465493.9676291724,
      "d": 3023.597958333383,
      "v": 36
    },
    {
      "midi": 63,
      "hit": false,
      "t": 465501.34225833905,
      "d": 1452.8019458333729,
      "v": 32
    },
    {
      "midi": 72,
      "hit": false,
      "t": 465508.7168875057,
      "d": 1386.4302833333495,
      "v": 44
    },
    {
      "midi": 63,
      "hit": false,
      "t": 467249.1293708391,
      "d": 663.7166250000009,
      "v": 30
    },
    {
      "midi": 67,
      "hit": false,
      "t": 467271.25325833913,
      "d": 553.0971874999814,
      "v": 44
    },
    {
      "midi": 72,
      "hit": false,
      "t": 467278.6278875058,
      "d": 641.5927374999737,
      "v": 47
    },
    {
      "midi": 60,
      "hit": false,
      "t": 469011.6657416724,
      "d": 1423.30342916667,
      "v": 51
    },
    {
      "midi": 63,
      "hit": false,
      "t": 469011.6657416724,
      "d": 1497.0497208333109,
      "v": 44
    },
    {
      "midi": 44,
      "hit": false,
      "t": 469019.04037083907,
      "d": 2551.62169166666,
      "v": 44
    },
    {
      "midi": 68,
      "hit": false,
      "t": 469026.41500000574,
      "d": 1371.681024999998,
      "v": 44
    },
    {
      "midi": 60,
      "hit": false,
      "t": 470781.57674167235,
      "d": 759.5868041667272,
      "v": 34
    },
    {
      "midi": 63,
      "hit": false,
      "t": 470781.57674167235,
      "d": 943.9525333333877,
      "v": 24
    },
    {
      "midi": 68,
      "hit": false,
      "t": 470796.3260000057,
      "d": 936.577904166712,
      "v": 28
    },
    {
      "midi": 72,
      "hit": false,
      "t": 470818.44988750573,
      "d": 700.5897708333214,
      "v": 44
    },
    {
      "midi": 65,
      "hit": false,
      "t": 472558.86237083905,
      "d": 3045.721845833352,
      "v": 60
    },
    {
      "midi": 70,
      "hit": false,
      "t": 472573.6116291724,
      "d": 3097.3442500000237,
      "v": 34
    },
    {
      "midi": 62,
      "hit": false,
      "t": 472580.9862583391,
      "d": 3067.845733333321,
      "v": 36
    },
    {
      "midi": 46,
      "hit": false,
      "t": 472580.9862583391,
      "d": 3082.5949916666723,
      "v": 44
    },
    {
      "midi": 74,
      "hit": false,
      "t": 476120.8082583391,
      "d": 7079.644000000029,
      "v": 60
    },
    {
      "midi": 65,
      "hit": false,
      "t": 476128.1828875058,
      "d": 7079.644000000029,
      "v": 32
    },
    {
      "midi": 70,
      "hit": false,
      "t": 476128.1828875058,
      "d": 7079.644000000029,
      "v": 36
    },
    {
      "midi": 77,
      "hit": false,
      "t": 476135.5575166725,
      "d": 7079.644000000029,
      "v": 74
    },
    {
      "midi": 46,
      "hit": false,
      "t": 476142.93214583915,
      "d": 7079.644000000029,
      "v": 60
    },
    {
      "midi": 51,
      "hit": false,
      "t": 483170.9537416725,
      "d": 3097.3442500000237,
      "v": 57
    },
    {
      "midi": 58,
      "hit": false,
      "t": 483628.1807500058,
      "d": 442.47775000002,
      "v": 30
    },
    {
      "midi": 63,
      "hit": false,
      "t": 484085.4077583392,
      "d": 442.47775000002,
      "v": 39
    },
    {
      "midi": 70,
      "hit": false,
      "t": 484513.13625000586,
      "d": 442.47775000002,
      "v": 67
    },
    {
      "midi": 77,
      "hit": false,
      "t": 484948.2393708392,
      "d": 442.47775000002,
      "v": 80
    },
    {
      "midi": 67,
      "hit": false,
      "t": 486275.6726208392,
      "d": 442.47775000002,
      "v": 66
    },
    {
      "midi": 74,
      "hit": false,
      "t": 486710.77574167255,
      "d": 1238.9377000000677,
      "v": 78
    },
    {
      "midi": 48,
      "hit": false,
      "t": 486740.27425833925,
      "d": 3539.8219999999856,
      "v": 56
    },
    {
      "midi": 55,
      "hit": false,
      "t": 487175.3773791726,
      "d": 921.8286458333023,
      "v": 47
    },
    {
      "midi": 60,
      "hit": false,
      "t": 487610.48050000594,
      "d": 427.72849166666856,
      "v": 55
    },
    {
      "midi": 63,
      "hit": false,
      "t": 488067.70750833926,
      "d": 442.4777499999618,
      "v": 66
    },
    {
      "midi": 70,
      "hit": false,
      "t": 488480.6867416726,
      "d": 1297.934733333299,
      "v": 71
    },
    {
      "midi": 63,
      "hit": false,
      "t": 488532.30914583924,
      "d": 929.203274999978,
      "v": 23
    },
    {
      "midi": 60,
      "hit": false,
      "t": 489808.1199916725,
      "d": 383.4807166666724,
      "v": 58
    },
    {
      "midi": 44,
      "hit": false,
      "t": 490257.9723708392,
      "d": 3539.8220000000438,
      "v": 64
    },
    {
      "midi": 67,
      "hit": false,
      "t": 490280.09625833924,
      "d": 1371.681024999998,
      "v": 71
    },
    {
      "midi": 60,
      "hit": false,
      "t": 490287.4708875059,
      "d": 929.203274999978,
      "v": 24
    },
    {
      "midi": 56,
      "hit": false,
      "t": 491592.7802500059,
      "d": 442.47775000002,
      "v": 55
    },
    {
      "midi": 63,
      "hit": false,
      "t": 492042.6326291726,
      "d": 1268.4362166666542,
      "v": 63
    },
    {
      "midi": 56,
      "hit": false,
      "t": 492072.13114583923,
      "d": 884.9554999999818,
      "v": 24
    },
    {
      "midi": 53,
      "hit": false,
      "t": 493384.8151375059,
      "d": 265.4866500000353,
      "v": 49
    },
    {
      "midi": 53,
      "hit": false,
      "t": 493790.4197416726,
      "d": 3392.3294166666456,
      "v": 24
    },
    {
      "midi": 58,
      "hit": false,
      "t": 493790.4197416726,
      "d": 3539.8219999999856,
      "v": 61
    },
    {
      "midi": 46,
      "hit": false,
      "t": 493827.2928875059,
      "d": 3539.8219999999856,
      "v": 53
    },
    {
      "midi": 63,
      "hit": false,
      "t": 497330.24174167257,
      "d": 7109.142516666674,
      "v": 76
    },
    {
      "midi": 39,
      "hit": false,
      "t": 497433.4865500059,
      "d": 7116.51714583335,
      "v": 76
    },
    {
      "midi": 58,
      "hit": false,
      "t": 497551.4806166726,
      "d": 6917.402158333338,
      "v": 64
    },
    {
      "midi": 55,
      "hit": false,
      "t": 497632.6015375059,
      "d": 6821.53197916667,
      "v": 58
    },
    {
      "midi": 53,
      "hit": false,
      "t": 497735.84634583927,
      "d": 6769.909574999998,
      "v": 56
    }
  ]
}