{
  "jsonPath": "Pop/C-Pop/Jacky Cheung/yi-qian-ge-shang-xin-de-li-you.json",
  "path": "Pop\\C-Pop\\Jacky Cheung\\Yi Qian Ge Shang Xin De Li You.mid",
  "name": "Yi Qian Ge Shang Xin De Li You",
  "difficulty": "Advanced",
  "bpm": 67.00002903334591,
  "notes": [
    {
      "midi": 67,
      "hit": false,
      "t": 3582.088,
      "d": 447.76099999999997,
      "v": 106
    },
    {
      "midi": 70,
      "hit": false,
      "t": 3582.088,
      "d": 447.76099999999997,
      "v": 74
    },
    {
      "midi": 62,
      "hit": false,
      "t": 3582.088,
      "d": 671.6415000000002,
      "v": 94
    },
    {
      "midi": 43,
      "hit": false,
      "t": 3582.088,
      "d": 774.2533958333338,
      "v": 118
    },
    {
      "midi": 50,
      "hit": false,
      "t": 4029.849,
      "d": 447.7610000000004,
      "v": 1
    },
    {
      "midi": 62,
      "hit": false,
      "t": 4477.610000000001,
      "d": 223.8805000000002,
      "v": 81
    },
    {
      "midi": 58,
      "hit": false,
      "t": 4477.610000000001,
      "d": 447.7610000000004,
      "v": 81
    },
    {
      "midi": 67,
      "hit": false,
      "t": 4477.610000000001,
      "d": 447.7610000000004,
      "v": 103
    },
    {
      "midi": 70,
      "hit": false,
      "t": 4477.610000000001,
      "d": 447.7610000000004,
      "v": 77
    },
    {
      "midi": 50,
      "hit": false,
      "t": 4925.371000000001,
      "d": 438.4326458333335,
      "v": 77
    },
    {
      "midi": 62,
      "hit": false,
      "t": 4925.371000000001,
      "d": 438.4326458333335,
      "v": 66
    },
    {
      "midi": 62,
      "hit": false,
      "t": 5373.132000000001,
      "d": 223.8805000000002,
      "v": 88
    },
    {
      "midi": 67,
      "hit": false,
      "t": 5373.132000000001,
      "d": 447.7610000000004,
      "v": 110
    },
    {
      "midi": 70,
      "hit": false,
      "t": 5373.132000000001,
      "d": 447.7610000000004,
      "v": 88
    },
    {
      "midi": 39,
      "hit": false,
      "t": 5373.132000000001,
      "d": 774.2533958333333,
      "v": 55
    },
    {
      "midi": 62,
      "hit": false,
      "t": 5820.893000000002,
      "d": 214.55214583333327,
      "v": 94
    },
    {
      "midi": 46,
      "hit": false,
      "t": 5820.893000000002,
      "d": 438.4326458333326,
      "v": 63
    },
    {
      "midi": 67,
      "hit": false,
      "t": 6268.654000000001,
      "d": 438.4326458333335,
      "v": 99
    },
    {
      "midi": 70,
      "hit": false,
      "t": 6268.654000000001,
      "d": 671.6415000000006,
      "v": 73
    },
    {
      "midi": 55,
      "hit": false,
      "t": 6268.654000000001,
      "d": 895.5219999999999,
      "v": 88
    },
    {
      "midi": 62,
      "hit": false,
      "t": 6716.415000000002,
      "d": 223.8805000000002,
      "v": 26
    },
    {
      "midi": 46,
      "hit": false,
      "t": 6716.415000000002,
      "d": 447.7609999999995,
      "v": 55
    },
    {
      "midi": 65,
      "hit": false,
      "t": 7164.176000000001,
      "d": 671.6415000000006,
      "v": 106
    },
    {
      "midi": 69,
      "hit": false,
      "t": 7164.176000000001,
      "d": 671.6415000000006,
      "v": 115
    },
    {
      "midi": 41,
      "hit": false,
      "t": 7164.176000000001,
      "d": 886.1936458333339,
      "v": 88
    },
    {
      "midi": 48,
      "hit": false,
      "t": 7611.937000000002,
      "d": 438.4326458333335,
      "v": 68
    },
    {
      "midi": 65,
      "hit": false,
      "t": 8059.698000000002,
      "d": 223.8804999999993,
      "v": 39
    },
    {
      "midi": 57,
      "hit": false,
      "t": 8059.698000000002,
      "d": 447.7609999999986,
      "v": 42
    },
    {
      "midi": 69,
      "hit": false,
      "t": 8059.698000000002,
      "d": 447.7609999999986,
      "v": 115
    },
    {
      "midi": 72,
      "hit": false,
      "t": 8059.698000000002,
      "d": 447.7609999999986,
      "v": 77
    },
    {
      "midi": 48,
      "hit": false,
      "t": 8507.459,
      "d": 223.8804999999993,
      "v": 88
    },
    {
      "midi": 65,
      "hit": false,
      "t": 8507.459,
      "d": 223.8804999999993,
      "v": 66
    },
    {
      "midi": 62,
      "hit": false,
      "t": 8955.220000000001,
      "d": 223.8804999999993,
      "v": 97
    },
    {
      "midi": 65,
      "hit": false,
      "t": 8955.220000000001,
      "d": 447.7609999999986,
      "v": 94
    },
    {
      "midi": 69,
      "hit": false,
      "t": 8955.220000000001,
      "d": 447.7609999999986,
      "v": 94
    },
    {
      "midi": 38,
      "hit": false,
      "t": 8955.220000000001,
      "d": 1343.2829999999976,
      "v": 115
    },
    {
      "midi": 62,
      "hit": false,
      "t": 9402.981,
      "d": 671.6414999999997,
      "v": 115
    },
    {
      "midi": 45,
      "hit": false,
      "t": 9402.981,
      "d": 1119.4024999999983,
      "v": 46
    },
    {
      "midi": 65,
      "hit": false,
      "t": 9850.742,
      "d": 447.7609999999986,
      "v": 115
    },
    {
      "midi": 69,
      "hit": false,
      "t": 9850.742,
      "d": 447.7609999999986,
      "v": 94
    },
    {
      "midi": 53,
      "hit": false,
      "t": 9850.742,
      "d": 895.5219999999972,
      "v": 53
    },
    {
      "midi": 62,
      "hit": false,
      "t": 10298.502999999999,
      "d": 223.8804999999993,
      "v": 125
    },
    {
      "midi": 63,
      "hit": false,
      "t": 10746.263999999997,
      "d": 223.8804999999993,
      "v": 88
    },
    {
      "midi": 67,
      "hit": false,
      "t": 10746.263999999997,
      "d": 447.7609999999986,
      "v": 88
    },
    {
      "midi": 70,
      "hit": false,
      "t": 10746.263999999997,
      "d": 447.7609999999986,
      "v": 79
    },
    {
      "midi": 39,
      "hit": false,
      "t": 10746.263999999997,
      "d": 1567.163499999997,
      "v": 61
    },
    {
      "midi": 63,
      "hit": false,
      "t": 11194.024999999996,
      "d": 447.7610000000004,
      "v": 86
    },
    {
      "midi": 46,
      "hit": false,
      "t": 11194.024999999996,
      "d": 671.6414999999997,
      "v": 24
    },
    {
      "midi": 63,
      "hit": false,
      "t": 11641.785999999996,
      "d": 223.8804999999993,
      "v": 14
    },
    {
      "midi": 55,
      "hit": false,
      "t": 11641.785999999996,
      "d": 447.7609999999986,
      "v": 36
    },
    {
      "midi": 67,
      "hit": false,
      "t": 11641.785999999996,
      "d": 447.7609999999986,
      "v": 110
    },
    {
      "midi": 70,
      "hit": false,
      "t": 11641.785999999996,
      "d": 447.7609999999986,
      "v": 88
    },
    {
      "midi": 46,
      "hit": false,
      "t": 12089.546999999995,
      "d": 223.8804999999993,
      "v": 74
    },
    {
      "midi": 63,
      "hit": false,
      "t": 12089.546999999995,
      "d": 223.8804999999993,
      "v": 81
    },
    {
      "midi": 60,
      "hit": false,
      "t": 12537.307999999995,
      "d": 223.8804999999993,
      "v": 89
    },
    {
      "midi": 63,
      "hit": false,
      "t": 12537.307999999995,
      "d": 447.7609999999986,
      "v": 105
    },
    {
      "midi": 67,
      "hit": false,
      "t": 12537.307999999995,
      "d": 447.7609999999986,
      "v": 89
    },
    {
      "midi": 36,
      "hit": false,
      "t": 12537.307999999995,
      "d": 1343.2829999999976,
      "v": 94
    },
    {
      "midi": 60,
      "hit": false,
      "t": 12985.068999999994,
      "d": 447.7610000000004,
      "v": 94
    },
    {
      "midi": 43,
      "hit": false,
      "t": 12985.068999999994,
      "d": 671.6414999999997,
      "v": 79
    },
    {
      "midi": 60,
      "hit": false,
      "t": 13432.829999999994,
      "d": 223.8804999999993,
      "v": 79
    },
    {
      "midi": 63,
      "hit": false,
      "t": 13432.829999999994,
      "d": 447.7609999999986,
      "v": 115
    },
    {
      "midi": 67,
      "hit": false,
      "t": 13432.829999999994,
      "d": 447.7609999999986,
      "v": 110
    },
    {
      "midi": 51,
      "hit": false,
      "t": 13432.829999999994,
      "d": 895.521999999999,
      "v": 68
    },
    {
      "midi": 43,
      "hit": false,
      "t": 13880.590999999993,
      "d": 223.8804999999993,
      "v": 77
    },
    {
      "midi": 60,
      "hit": false,
      "t": 13880.590999999993,
      "d": 223.8804999999993,
      "v": 97
    },
    {
      "midi": 58,
      "hit": false,
      "t": 14328.351999999993,
      "d": 223.8804999999993,
      "v": 99
    },
    {
      "midi": 62,
      "hit": false,
      "t": 14328.351999999993,
      "d": 447.7609999999986,
      "v": 125
    },
    {
      "midi": 67,
      "hit": false,
      "t": 14328.351999999993,
      "d": 447.7609999999986,
      "v": 118
    },
    {
      "midi": 38,
      "hit": false,
      "t": 14328.351999999993,
      "d": 886.1936458333312,
      "v": 127
    },
    {
      "midi": 58,
      "hit": false,
      "t": 14776.112999999992,
      "d": 447.7609999999986,
      "v": 46
    },
    {
      "midi": 62,
      "hit": false,
      "t": 15223.87399999999,
      "d": 447.7610000000004,
      "v": 127
    },
    {
      "midi": 46,
      "hit": false,
      "t": 15223.87399999999,
      "d": 671.6414999999997,
      "v": 50
    },
    {
      "midi": 67,
      "hit": false,
      "t": 15223.87399999999,
      "d": 895.5220000000008,
      "v": 103
    },
    {
      "midi": 58,
      "hit": false,
      "t": 15671.634999999991,
      "d": 223.8804999999993,
      "v": 97
    },
    {
      "midi": 38,
      "hit": false,
      "t": 16119.395999999992,
      "d": 671.6414999999997,
      "v": 125
    },
    {
      "midi": 62,
      "hit": false,
      "t": 16119.395999999992,
      "d": 671.6414999999997,
      "v": 127
    },
    {
      "midi": 66,
      "hit": false,
      "t": 16567.156999999992,
      "d": 223.8804999999993,
      "v": 110
    },
    {
      "midi": 43,
      "hit": false,
      "t": 16567.156999999992,
      "d": 895.5219999999972,
      "v": 1
    },
    {
      "midi": 40,
      "hit": false,
      "t": 16791.03749999999,
      "d": 223.8804999999993,
      "v": 4
    },
    {
      "midi": 62,
      "hit": false,
      "t": 17014.91799999999,
      "d": 223.8804999999993,
      "v": 125
    },
    {
      "midi": 66,
      "hit": false,
      "t": 17014.91799999999,
      "d": 223.8804999999993,
      "v": 97
    },
    {
      "midi": 54,
      "hit": false,
      "t": 17014.91799999999,
      "d": 447.7609999999986,
      "v": 92
    },
    {
      "midi": 62,
      "hit": false,
      "t": 17462.67899999999,
      "d": 438.4326458333344,
      "v": 127
    },
    {
      "midi": 66,
      "hit": false,
      "t": 17462.67899999999,
      "d": 438.4326458333344,
      "v": 110
    },
    {
      "midi": 62,
      "hit": false,
      "t": 17910.43999999999,
      "d": 223.8804999999993,
      "v": 127
    },
    {
      "midi": 67,
      "hit": false,
      "t": 17910.43999999999,
      "d": 447.7609999999986,
      "v": 127
    },
    {
      "midi": 43,
      "hit": false,
      "t": 17910.43999999999,
      "d": 1781.7156458333338,
      "v": 99
    },
    {
      "midi": 62,
      "hit": false,
      "t": 18358.20099999999,
      "d": 223.8804999999993,
      "v": 103
    },
    {
      "midi": 50,
      "hit": false,
      "t": 18358.20099999999,
      "d": 438.4326458333344,
      "v": 106
    },
    {
      "midi": 58,
      "hit": false,
      "t": 18805.961999999992,
      "d": 223.8804999999993,
      "v": 39
    },
    {
      "midi": 62,
      "hit": false,
      "t": 18805.961999999992,
      "d": 223.8804999999993,
      "v": 88
    },
    {
      "midi": 67,
      "hit": false,
      "t": 18805.961999999992,
      "d": 447.7609999999986,
      "v": 106
    },
    {
      "midi": 62,
      "hit": false,
      "t": 19253.72299999999,
      "d": 223.8804999999993,
      "v": 92
    },
    {
      "midi": 50,
      "hit": false,
      "t": 19253.72299999999,
      "d": 438.4326458333344,
      "v": 99
    },
    {
      "midi": 62,
      "hit": false,
      "t": 19701.483999999993,
      "d": 223.8804999999993,
      "v": 118
    },
    {
      "midi": 67,
      "hit": false,
      "t": 19701.483999999993,
      "d": 447.7609999999986,
      "v": 127
    },
    {
      "midi": 39,
      "hit": false,
      "t": 19701.483999999993,
      "d": 1567.1634999999987,
      "v": 125
    },
    {
      "midi": 62,
      "hit": false,
      "t": 20149.24499999999,
      "d": 223.8804999999993,
      "v": 106
    },
    {
      "midi": 46,
      "hit": false,
      "t": 20149.24499999999,
      "d": 438.4326458333344,
      "v": 94
    },
    {
      "midi": 62,
      "hit": false,
      "t": 20597.005999999994,
      "d": 223.8804999999993,
      "v": 106
    },
    {
      "midi": 67,
      "hit": false,
      "t": 20597.005999999994,
      "d": 447.7609999999986,
      "v": 118
    },
    {
      "midi": 55,
      "hit": false,
      "t": 20597.005999999994,
      "d": 895.5219999999972,
      "v": 89
    },
    {
      "midi": 62,
      "hit": false,
      "t": 21044.766999999993,
      "d": 223.8804999999993,
      "v": 79
    },
    {
      "midi": 46,
      "hit": false,
      "t": 21044.766999999993,
      "d": 447.7609999999986,
      "v": 34
    },
    {
      "midi": 67,
      "hit": false,
      "t": 21044.766999999993,
      "d": 447.7609999999986,
      "v": 115
    },
    {
      "midi": 60,
      "hit": false,
      "t": 21492.52799999999,
      "d": 223.8804999999993,
      "v": 115
    },
    {
      "midi": 69,
      "hit": false,
      "t": 21492.52799999999,
      "d": 438.4326458333344,
      "v": 94
    },
    {
      "midi": 65,
      "hit": false,
      "t": 21492.52799999999,
      "d": 447.76100000000224,
      "v": 127
    },
    {
      "midi": 41,
      "hit": false,
      "t": 21492.52799999999,
      "d": 1567.1634999999987,
      "v": 127
    },
    {
      "midi": 60,
      "hit": false,
      "t": 21940.288999999993,
      "d": 223.8804999999993,
      "v": 34
    },
    {
      "midi": 48,
      "hit": false,
      "t": 21940.288999999993,
      "d": 895.5219999999972,
      "v": 9
    },
    {
      "midi": 57,
      "hit": false,
      "t": 22388.049999999992,
      "d": 223.8804999999993,
      "v": 68
    },
    {
      "midi": 60,
      "hit": false,
      "t": 22388.049999999992,
      "d": 223.8804999999993,
      "v": 92
    },
    {
      "midi": 65,
      "hit": false,
      "t": 22388.049999999992,
      "d": 447.7609999999986,
      "v": 127
    },
    {
      "midi": 69,
      "hit": false,
      "t": 22388.049999999992,
      "d": 447.7609999999986,
      "v": 94
    },
    {
      "midi": 60,
      "hit": false,
      "t": 22835.81099999999,
      "d": 447.7609999999986,
      "v": 89
    },
    {
      "midi": 65,
      "hit": false,
      "t": 23283.57199999999,
      "d": 447.7609999999986,
      "v": 118
    },
    {
      "midi": 69,
      "hit": false,
      "t": 23283.57199999999,
      "d": 447.7609999999986,
      "v": 89
    },
    {
      "midi": 38,
      "hit": false,
      "t": 23283.57199999999,
      "d": 1119.4024999999965,
      "v": 73
    },
    {
      "midi": 45,
      "hit": false,
      "t": 23507.45249999999,
      "d": 895.5219999999972,
      "v": 55
    },
    {
      "midi": 62,
      "hit": false,
      "t": 23731.332999999988,
      "d": 223.8804999999993,
      "v": 94
    },
    {
      "midi": 62,
      "hit": false,
      "t": 24179.093999999986,
      "d": 223.8804999999993,
      "v": 18
    },
    {
      "midi": 65,
      "hit": false,
      "t": 24179.093999999986,
      "d": 447.7609999999986,
      "v": 125
    },
    {
      "midi": 69,
      "hit": false,
      "t": 24179.093999999986,
      "d": 447.7609999999986,
      "v": 88
    },
    {
      "midi": 53,
      "hit": false,
      "t": 24179.093999999986,
      "d": 671.6414999999979,
      "v": 74
    },
    {
      "midi": 45,
      "hit": false,
      "t": 24626.854999999985,
      "d": 223.8804999999993,
      "v": 66
    },
    {
      "midi": 62,
      "hit": false,
      "t": 24626.854999999985,
      "d": 223.8804999999993,
      "v": 92
    },
    {
      "midi": 63,
      "hit": false,
      "t": 25074.615999999984,
      "d": 223.8804999999993,
      "v": 105
    },
    {
      "midi": 67,
      "hit": false,
      "t": 25074.615999999984,
      "d": 447.7609999999986,
      "v": 125
    },
    {
      "midi": 70,
      "hit": false,
      "t": 25074.615999999984,
      "d": 447.7609999999986,
      "v": 115
    },
    {
      "midi": 39,
      "hit": false,
      "t": 25074.615999999984,
      "d": 1567.163499999995,
      "v": 127
    },
    {
      "midi": 63,
      "hit": false,
      "t": 25522.376999999982,
      "d": 447.7609999999986,
      "v": 94
    },
    {
      "midi": 46,
      "hit": false,
      "t": 25522.376999999982,
      "d": 671.6414999999979,
      "v": 36
    },
    {
      "midi": 63,
      "hit": false,
      "t": 25970.13799999998,
      "d": 223.8804999999993,
      "v": 108
    },
    {
      "midi": 55,
      "hit": false,
      "t": 25970.13799999998,
      "d": 447.7609999999986,
      "v": 39
    },
    {
      "midi": 67,
      "hit": false,
      "t": 25970.13799999998,
      "d": 447.7609999999986,
      "v": 127
    },
    {
      "midi": 70,
      "hit": false,
      "t": 25970.13799999998,
      "d": 447.7609999999986,
      "v": 89
    },
    {
      "midi": 46,
      "hit": false,
      "t": 26417.89899999998,
      "d": 223.8804999999993,
      "v": 58
    },
    {
      "midi": 63,
      "hit": false,
      "t": 26417.89899999998,
      "d": 223.8804999999993,
      "v": 108
    },
    {
      "midi": 62,
      "hit": false,
      "t": 26865.659999999978,
      "d": 223.8804999999993,
      "v": 113
    },
    {
      "midi": 65,
      "hit": false,
      "t": 26865.659999999978,
      "d": 447.7609999999986,
      "v": 116
    },
    {
      "midi": 69,
      "hit": false,
      "t": 26865.659999999978,
      "d": 447.7609999999986,
      "v": 113
    },
    {
      "midi": 38,
      "hit": false,
      "t": 26865.659999999978,
      "d": 1343.2829999999958,
      "v": 84
    },
    {
      "midi": 62,
      "hit": false,
      "t": 27313.420999999977,
      "d": 447.7609999999986,
      "v": 106
    },
    {
      "midi": 45,
      "hit": false,
      "t": 27313.420999999977,
      "d": 671.6414999999979,
      "v": 50
    },
    {
      "midi": 62,
      "hit": false,
      "t": 27761.181999999975,
      "d": 223.8804999999993,
      "v": 121
    },
    {
      "midi": 65,
      "hit": false,
      "t": 27761.181999999975,
      "d": 447.7609999999986,
      "v": 127
    },
    {
      "midi": 69,
      "hit": false,
      "t": 27761.181999999975,
      "d": 447.7609999999986,
      "v": 89
    },
    {
      "midi": 53,
      "hit": false,
      "t": 27761.181999999975,
      "d": 895.5219999999972,
      "v": 60
    },
    {
      "midi": 45,
      "hit": false,
      "t": 28208.942999999974,
      "d": 223.8804999999993,
      "v": 46
    },
    {
      "midi": 62,
      "hit": false,
      "t": 28208.942999999974,
      "d": 671.6414999999979,
      "v": 115
    },
    {
      "midi": 67,
      "hit": false,
      "t": 28656.703999999972,
      "d": 447.7609999999986,
      "v": 127
    },
    {
      "midi": 70,
      "hit": false,
      "t": 28656.703999999972,
      "d": 447.7609999999986,
      "v": 113
    },
    {
      "midi": 43,
      "hit": false,
      "t": 28656.703999999972,
      "d": 1343.2829999999958,
      "v": 89
    },
    {
      "midi": 62,
      "hit": false,
      "t": 29104.46499999997,
      "d": 447.7609999999986,
      "v": 101
    },
    {
      "midi": 50,
      "hit": false,
      "t": 29104.46499999997,
      "d": 895.5219999999972,
      "v": 48
    },
    {
      "midi": 58,
      "hit": false,
      "t": 29552.22599999997,
      "d": 223.8804999999993,
      "v": 1
    },
    {
      "midi": 62,
      "hit": false,
      "t": 29552.22599999997,
      "d": 223.8804999999993,
      "v": 106
    },
    {
      "midi": 67,
      "hit": false,
      "t": 29552.22599999997,
      "d": 447.7609999999986,
      "v": 127
    },
    {
      "midi": 70,
      "hit": false,
      "t": 29552.22599999997,
      "d": 447.7609999999986,
      "v": 101
    },
    {
      "midi": 62,
      "hit": false,
      "t": 29999.98699999997,
      "d": 223.8804999999993,
      "v": 103
    },
    {
      "midi": 62,
      "hit": false,
      "t": 30223.867499999968,
      "d": 223.8804999999993,
      "v": 116
    },
    {
      "midi": 38,
      "hit": false,
      "t": 30447.747999999967,
      "d": 1119.4024999999965,
      "v": 126
    },
    {
      "midi": 66,
      "hit": false,
      "t": 30447.747999999967,
      "d": 1119.4024999999965,
      "v": 115
    },
    {
      "midi": 69,
      "hit": false,
      "t": 30447.747999999967,
      "d": 1343.2829999999958,
      "v": 84
    },
    {
      "midi": 42,
      "hit": false,
      "t": 30671.628499999966,
      "d": 1119.4024999999965,
      "v": 50
    },
    {
      "midi": 45,
      "hit": false,
      "t": 30895.508999999965,
      "d": 895.5219999999972,
      "v": 19
    },
    {
      "midi": 60,
      "hit": false,
      "t": 31343.269999999964,
      "d": 447.7609999999986,
      "v": 127
    },
    {
      "midi": 62,
      "hit": false,
      "t": 31791.030999999963,
      "d": 223.8804999999993,
      "v": 97
    },
    {
      "midi": 58,
      "hit": false,
      "t": 32238.791999999965,
      "d": 662.31314583333,
      "v": 74
    },
    {
      "midi": 62,
      "hit": false,
      "t": 32238.791999999965,
      "d": 671.6414999999979,
      "v": 126
    },
    {
      "midi": 67,
      "hit": false,
      "t": 32238.791999999965,
      "d": 671.6414999999979,
      "v": 116
    },
    {
      "midi": 43,
      "hit": false,
      "t": 32238.791999999965,
      "d": 1567.163499999995,
      "v": 101
    },
    {
      "midi": 50,
      "hit": false,
      "t": 32686.552999999964,
      "d": 671.6414999999979,
      "v": 72
    },
    {
      "midi": 62,
      "hit": false,
      "t": 32910.43350000001,
      "d": 223.8804999999993,
      "v": 103
    },
    {
      "midi": 62,
      "hit": false,
      "t": 33134.31399999996,
      "d": 223.8804999999993,
      "v": 97
    },
    {
      "midi": 58,
      "hit": false,
      "t": 33134.31399999996,
      "d": 447.7609999999986,
      "v": 89
    },
    {
      "midi": 67,
      "hit": false,
      "t": 33134.31399999996,
      "d": 447.7609999999986,
      "v": 126
    },
    {
      "midi": 70,
      "hit": false,
      "t": 33134.31399999996,
      "d": 447.7609999999986,
      "v": 121
    },
    {
      "midi": 67,
      "hit": false,
      "t": 33134.314000000006,
      "d": 223.8804999999993,
      "v": 123
    },
    {
      "midi": 50,
      "hit": false,
      "t": 33582.07499999996,
      "d": 223.8804999999993,
      "v": 1
    },
    {
      "midi": 62,
      "hit": false,
      "t": 33582.07499999996,
      "d": 223.8804999999993,
      "v": 108
    },
    {
      "midi": 69,
      "hit": false,
      "t": 33582.075000000004,
      "d": 223.8804999999993,
      "v": 97
    },
    {
      "midi": 70,
      "hit": false,
      "t": 33805.955500000004,
      "d": 1343.2829999999958,
      "v": 113
    },
    {
      "midi": 69,
      "hit": false,
      "t": 34029.83599999996,
      "d": 438.43264583333075,
      "v": 97
    },
    {
      "midi": 63,
      "hit": false,
      "t": 34029.83599999996,
      "d": 447.7609999999986,
      "v": 101
    },
    {
      "midi": 67,
      "hit": false,
      "t": 34029.83599999996,
      "d": 447.7609999999986,
      "v": 94
    },
    {
      "midi": 39,
      "hit": false,
      "t": 34029.83599999996,
      "d": 1343.2829999999958,
      "v": 106
    },
    {
      "midi": 58,
      "hit": false,
      "t": 34477.59699999996,
      "d": 447.7609999999986,
      "v": 46
    },
    {
      "midi": 46,
      "hit": false,
      "t": 34477.59699999996,
      "d": 671.6414999999979,
      "v": 15
    },
    {
      "midi": 63,
      "hit": false,
      "t": 34925.35799999996,
      "d": 447.7609999999986,
      "v": 126
    },
    {
      "midi": 67,
      "hit": false,
      "t": 34925.35799999996,
      "d": 671.6414999999979,
      "v": 103
    },
    {
      "midi": 55,
      "hit": false,
      "t": 34925.35799999996,
      "d": 886.1936458333294,
      "v": 106
    },
    {
      "midi": 46,
      "hit": false,
      "t": 35373.118999999955,
      "d": 438.43264583333075,
      "v": 67
    },
    {
      "midi": 58,
      "hit": false,
      "t": 35373.118999999955,
      "d": 438.43264583333075,
      "v": 108
    },
    {
      "midi": 72,
      "hit": false,
      "t": 35596.9995,
      "d": 223.8804999999993,
      "v": 97
    },
    {
      "midi": 60,
      "hit": false,
      "t": 35820.879999999954,
      "d": 223.8804999999993,
      "v": 127
    },
    {
      "midi": 65,
      "hit": false,
      "t": 35820.879999999954,
      "d": 447.7609999999986,
      "v": 108
    },
    {
      "midi": 69,
      "hit": false,
      "t": 35820.879999999954,
      "d": 447.7609999999986,
      "v": 126
    },
    {
      "midi": 41,
      "hit": false,
      "t": 35820.879999999954,
      "d": 1567.163499999995,
      "v": 94
    },
    {
      "midi": 69,
      "hit": false,
      "t": 35820.88,
      "d": 223.8804999999993,
      "v": 115
    },
    {
      "midi": 60,
      "hit": false,
      "t": 36268.64099999995,
      "d": 438.43264583333075,
      "v": 126
    },
    {
      "midi": 48,
      "hit": false,
      "t": 36268.64099999995,
      "d": 671.6414999999979,
      "v": 68
    },
    {
      "midi": 67,
      "hit": false,
      "t": 36268.640999999996,
      "d": 223.8804999999993,
      "v": 99
    },
    {
      "midi": 57,
      "hit": false,
      "t": 36716.40199999995,
      "d": 447.7609999999986,
      "v": 89
    },
    {
      "midi": 65,
      "hit": false,
      "t": 36716.40199999995,
      "d": 447.7609999999986,
      "v": 115
    },
    {
      "midi": 69,
      "hit": false,
      "t": 36716.40199999995,
      "d": 447.7609999999986,
      "v": 115
    },
    {
      "midi": 65,
      "hit": false,
      "t": 36716.401999999995,
      "d": 223.8804999999993,
      "v": 108
    },
    {
      "midi": 48,
      "hit": false,
      "t": 36940.28249999995,
      "d": 447.7609999999986,
      "v": 84
    },
    {
      "midi": 67,
      "hit": false,
      "t": 36940.282499999994,
      "d": 447.7609999999986,
      "v": 99
    },
    {
      "midi": 60,
      "hit": false,
      "t": 37164.16299999995,
      "d": 447.7609999999986,
      "v": 103
    },
    {
      "midi": 62,
      "hit": false,
      "t": 37611.92399999995,
      "d": 447.7609999999986,
      "v": 127
    },
    {
      "midi": 65,
      "hit": false,
      "t": 37611.92399999995,
      "d": 447.7609999999986,
      "v": 106
    },
    {
      "midi": 46,
      "hit": false,
      "t": 37611.92399999995,
      "d": 1567.163499999995,
      "v": 108
    },
    {
      "midi": 62,
      "hit": false,
      "t": 37611.92399999999,
      "d": 1791.0440000000017,
      "v": 114
    },
    {
      "midi": 53,
      "hit": false,
      "t": 37835.80449999995,
      "d": 223.8804999999993,
      "v": 17
    },
    {
      "midi": 58,
      "hit": false,
      "t": 37835.80449999995,
      "d": 671.6414999999979,
      "v": 69
    },
    {
      "midi": 53,
      "hit": false,
      "t": 38283.565499999946,
      "d": 895.5219999999972,
      "v": 86
    },
    {
      "midi": 62,
      "hit": false,
      "t": 38507.445999999945,
      "d": 447.7609999999986,
      "v": 127
    },
    {
      "midi": 65,
      "hit": false,
      "t": 38507.445999999945,
      "d": 671.6414999999979,
      "v": 97
    },
    {
      "midi": 58,
      "hit": false,
      "t": 38955.206999999944,
      "d": 223.8804999999993,
      "v": 127
    },
    {
      "midi": 58,
      "hit": false,
      "t": 39179.08749999994,
      "d": 223.8804999999993,
      "v": 127
    },
    {
      "midi": 62,
      "hit": false,
      "t": 39402.96799999994,
      "d": 447.7609999999986,
      "v": 127
    },
    {
      "midi": 67,
      "hit": false,
      "t": 39402.96799999994,
      "d": 447.7609999999986,
      "v": 127
    },
    {
      "midi": 43,
      "hit": false,
      "t": 39402.96799999994,
      "d": 1343.2829999999958,
      "v": 96
    },
    {
      "midi": 58,
      "hit": false,
      "t": 39850.72899999994,
      "d": 223.8804999999993,
      "v": 127
    },
    {
      "midi": 50,
      "hit": false,
      "t": 39850.72899999994,
      "d": 438.43264583333075,
      "v": 98
    },
    {
      "midi": 62,
      "hit": false,
      "t": 40074.60949999999,
      "d": 223.8804999999993,
      "v": 121
    },
    {
      "midi": 58,
      "hit": false,
      "t": 40298.48999999994,
      "d": 447.7609999999986,
      "v": 115
    },
    {
      "midi": 62,
      "hit": false,
      "t": 40298.48999999994,
      "d": 447.7609999999986,
      "v": 86
    },
    {
      "midi": 67,
      "hit": false,
      "t": 40298.48999999994,
      "d": 671.6414999999979,
      "v": 72
    },
    {
      "midi": 67,
      "hit": false,
      "t": 40298.48999999999,
      "d": 223.8804999999993,
      "v": 121
    },
    {
      "midi": 50,
      "hit": false,
      "t": 40746.25099999994,
      "d": 438.43264583333075,
      "v": 52
    },
    {
      "midi": 58,
      "hit": false,
      "t": 40746.25099999994,
      "d": 447.7609999999986,
      "v": 98
    },
    {
      "midi": 69,
      "hit": false,
      "t": 40746.25099999999,
      "d": 223.8804999999993,
      "v": 84
    },
    {
      "midi": 70,
      "hit": false,
      "t": 40970.13149999999,
      "d": 1567.163499999995,
      "v": 115
    },
    {
      "midi": 63,
      "hit": false,
      "t": 41194.01199999994,
      "d": 447.7609999999986,
      "v": 88
    },
    {
      "midi": 67,
      "hit": false,
      "t": 41194.01199999994,
      "d": 447.7609999999986,
      "v": 79
    },
    {
      "midi": 39,
      "hit": false,
      "t": 41194.01199999994,
      "d": 1343.2829999999958,
      "v": 82
    },
    {
      "midi": 46,
      "hit": false,
      "t": 41641.772999999936,
      "d": 438.43264583333075,
      "v": 64
    },
    {
      "midi": 58,
      "hit": false,
      "t": 41641.772999999936,
      "d": 671.6414999999979,
      "v": 79
    },
    {
      "midi": 63,
      "hit": false,
      "t": 42089.533999999934,
      "d": 671.6414999999979,
      "v": 81
    },
    {
      "midi": 67,
      "hit": false,
      "t": 42089.533999999934,
      "d": 671.6414999999979,
      "v": 90
    },
    {
      "midi": 55,
      "hit": false,
      "t": 42089.533999999934,
      "d": 895.5219999999972,
      "v": 44
    },
    {
      "midi": 46,
      "hit": false,
      "t": 42537.29499999993,
      "d": 447.7609999999986,
      "v": 44
    },
    {
      "midi": 60,
      "hit": false,
      "t": 42537.29499999993,
      "d": 447.7609999999986,
      "v": 66
    },
    {
      "midi": 72,
      "hit": false,
      "t": 42761.17549999998,
      "d": 223.8804999999993,
      "v": 105
    },
    {
      "midi": 65,
      "hit": false,
      "t": 42985.05599999993,
      "d": 671.6414999999979,
      "v": 86
    },
    {
      "midi": 69,
      "hit": false,
      "t": 42985.05599999993,
      "d": 671.6414999999979,
      "v": 126
    },
    {
      "midi": 41,
      "hit": false,
      "t": 42985.05599999993,
      "d": 1567.163499999995,
      "v": 104
    },
    {
      "midi": 69,
      "hit": false,
      "t": 42985.05599999998,
      "d": 447.7610000000059,
      "v": 113
    },
    {
      "midi": 60,
      "hit": false,
      "t": 43432.81699999993,
      "d": 223.8804999999993,
      "v": 1
    },
    {
      "midi": 48,
      "hit": false,
      "t": 43432.81699999993,
      "d": 438.43264583333075,
      "v": 22
    },
    {
      "midi": 67,
      "hit": false,
      "t": 43432.81699999999,
      "d": 223.8804999999993,
      "v": 92
    },
    {
      "midi": 57,
      "hit": false,
      "t": 43880.57799999993,
      "d": 447.7609999999986,
      "v": 51
    },
    {
      "midi": 60,
      "hit": false,
      "t": 43880.57799999993,
      "d": 447.7609999999986,
      "v": 86
    },
    {
      "midi": 65,
      "hit": false,
      "t": 43880.57799999993,
      "d": 671.6414999999979,
      "v": 108
    },
    {
      "midi": 69,
      "hit": false,
      "t": 43880.57799999993,
      "d": 671.6414999999979,
      "v": 81
    },
    {
      "midi": 65,
      "hit": false,
      "t": 43880.57799999999,
      "d": 223.8804999999993,
      "v": 111
    },
    {
      "midi": 72,
      "hit": false,
      "t": 44104.458499999986,
      "d": 447.7609999999986,
      "v": 80
    },
    {
      "midi": 48,
      "hit": false,
      "t": 44328.33899999993,
      "d": 223.8804999999993,
      "v": 86
    },
    {
      "midi": 62,
      "hit": false,
      "t": 44328.33899999993,
      "d": 447.7609999999986,
      "v": 98
    },
    {
      "midi": 74,
      "hit": false,
      "t": 44552.219499999985,
      "d": 1343.2829999999958,
      "v": 127
    },
    {
      "midi": 65,
      "hit": false,
      "t": 44776.099999999926,
      "d": 447.7609999999986,
      "v": 98
    },
    {
      "midi": 70,
      "hit": false,
      "t": 44776.099999999926,
      "d": 447.7609999999986,
      "v": 108
    },
    {
      "midi": 34,
      "hit": false,
      "t": 44776.099999999926,
      "d": 1557.8351458333273,
      "v": 126
    },
    {
      "midi": 62,
      "hit": false,
      "t": 45223.860999999924,
      "d": 223.8804999999993,
      "v": 9
    },
    {
      "midi": 41,
      "hit": false,
      "t": 45223.860999999924,
      "d": 438.43264583333075,
      "v": 1
    },
    {
      "midi": 62,
      "hit": false,
      "t": 45671.62199999992,
      "d": 223.8804999999993,
      "v": 46
    },
    {
      "midi": 65,
      "hit": false,
      "t": 45671.62199999992,
      "d": 447.7609999999986,
      "v": 116
    },
    {
      "midi": 70,
      "hit": false,
      "t": 45671.62199999992,
      "d": 447.7609999999986,
      "v": 82
    },
    {
      "midi": 50,
      "hit": false,
      "t": 45671.62199999992,
      "d": 886.1936458333294,
      "v": 66
    },
    {
      "midi": 62,
      "hit": false,
      "t": 46119.38299999992,
      "d": 223.8804999999993,
      "v": 82
    },
    {
      "midi": 70,
      "hit": false,
      "t": 46119.38299999998,
      "d": 223.8804999999993,
      "v": 123
    },
    {
      "midi": 72,
      "hit": false,
      "t": 46343.26349999998,
      "d": 223.8804999999993,
      "v": 115
    },
    {
      "midi": 62,
      "hit": false,
      "t": 46567.14399999992,
      "d": 447.7609999999986,
      "v": 116
    },
    {
      "midi": 67,
      "hit": false,
      "t": 46567.14399999992,
      "d": 447.7609999999986,
      "v": 96
    },
    {
      "midi": 58,
      "hit": false,
      "t": 46567.14399999992,
      "d": 662.31314583333,
      "v": 1
    },
    {
      "midi": 39,
      "hit": false,
      "t": 46567.14399999992,
      "d": 1567.163499999995,
      "v": 112
    },
    {
      "midi": 74,
      "hit": false,
      "t": 46567.14399999998,
      "d": 223.8804999999993,
      "v": 113
    },
    {
      "midi": 46,
      "hit": false,
      "t": 46791.02449999992,
      "d": 895.5219999999972,
      "v": 44
    },
    {
      "midi": 74,
      "hit": false,
      "t": 47014.90499999998,
      "d": 223.8804999999993,
      "v": 126
    },
    {
      "midi": 58,
      "hit": false,
      "t": 47462.66599999992,
      "d": 671.6414999999979,
      "v": 62
    },
    {
      "midi": 62,
      "hit": false,
      "t": 47462.66599999992,
      "d": 671.6414999999979,
      "v": 116
    },
    {
      "midi": 67,
      "hit": false,
      "t": 47462.66599999992,
      "d": 671.6414999999979,
      "v": 79
    },
    {
      "midi": 72,
      "hit": false,
      "t": 47462.665999999976,
      "d": 223.8804999999993,
      "v": 121
    },
    {
      "midi": 46,
      "hit": false,
      "t": 47910.426999999916,
      "d": 438.43264583333075,
      "v": 88
    },
    {
      "midi": 55,
      "hit": false,
      "t": 47910.426999999916,
      "d": 447.7609999999986,
      "v": 72
    },
    {
      "midi": 70,
      "hit": false,
      "t": 47910.426999999974,
      "d": 223.88050000000658,
      "v": 108
    },
    {
      "midi": 72,
      "hit": false,
      "t": 48134.30749999998,
      "d": 1567.163499999995,
      "v": 108
    },
    {
      "midi": 62,
      "hit": false,
      "t": 48358.187999999915,
      "d": 671.6414999999979,
      "v": 90
    },
    {
      "midi": 65,
      "hit": false,
      "t": 48358.187999999915,
      "d": 671.6414999999979,
      "v": 112
    },
    {
      "midi": 57,
      "hit": false,
      "t": 48358.187999999915,
      "d": 895.5219999999972,
      "v": 88
    },
    {
      "midi": 38,
      "hit": false,
      "t": 48358.187999999915,
      "d": 1567.163499999995,
      "v": 87
    },
    {
      "midi": 45,
      "hit": false,
      "t": 48805.94899999991,
      "d": 438.43264583333075,
      "v": 66
    },
    {
      "midi": 53,
      "hit": false,
      "t": 49253.70999999991,
      "d": 447.7609999999986,
      "v": 81
    },
    {
      "midi": 57,
      "hit": false,
      "t": 49253.70999999991,
      "d": 671.6414999999979,
      "v": 88
    },
    {
      "midi": 62,
      "hit": false,
      "t": 49253.70999999991,
      "d": 671.6414999999979,
      "v": 69
    },
    {
      "midi": 65,
      "hit": false,
      "t": 49253.70999999991,
      "d": 671.6414999999979,
      "v": 68
    },
    {
      "midi": 45,
      "hit": false,
      "t": 49701.47099999991,
      "d": 438.43264583333075,
      "v": 68
    },
    {
      "midi": 69,
      "hit": false,
      "t": 49701.470999999976,
      "d": 223.8804999999993,
      "v": 121
    },
    {
      "midi": 70,
      "hit": false,
      "t": 49925.351499999975,
      "d": 223.88050000000658,
      "v": 113
    },
    {
      "midi": 36,
      "hit": false,
      "t": 50149.23199999991,
      "d": 671.6414999999979,
      "v": 104
    },
    {
      "midi": 57,
      "hit": false,
      "t": 50149.23199999991,
      "d": 671.6414999999979,
      "v": 82
    },
    {
      "midi": 62,
      "hit": false,
      "t": 50149.23199999991,
      "d": 671.6414999999979,
      "v": 82
    },
    {
      "midi": 65,
      "hit": false,
      "t": 50149.23199999991,
      "d": 671.6414999999979,
      "v": 104
    },
    {
      "midi": 72,
      "hit": false,
      "t": 50149.23199999998,
      "d": 223.8804999999993,
      "v": 114
    },
    {
      "midi": 43,
      "hit": false,
      "t": 50596.99299999991,
      "d": 447.7609999999986,
      "v": 81
    },
    {
      "midi": 72,
      "hit": false,
      "t": 50596.99299999998,
      "d": 223.8804999999993,
      "v": 122
    },
    {
      "midi": 38,
      "hit": false,
      "t": 51044.753999999906,
      "d": 447.7609999999986,
      "v": 96
    },
    {
      "midi": 57,
      "hit": false,
      "t": 51044.753999999906,
      "d": 447.7609999999986,
      "v": 90
    },
    {
      "midi": 62,
      "hit": false,
      "t": 51044.753999999906,
      "d": 671.6414999999979,
      "v": 79
    },
    {
      "midi": 65,
      "hit": false,
      "t": 51044.753999999906,
      "d": 671.6414999999979,
      "v": 98
    },
    {
      "midi": 69,
      "hit": false,
      "t": 51044.75399999998,
      "d": 223.8804999999993,
      "v": 127
    },
    {
      "midi": 45,
      "hit": false,
      "t": 51492.514999999905,
      "d": 223.8804999999993,
      "v": 86
    },
    {
      "midi": 65,
      "hit": false,
      "t": 51492.51499999998,
      "d": 223.8804999999993,
      "v": 105
    },
    {
      "midi": 58,
      "hit": false,
      "t": 51716.395499999904,
      "d": 671.6414999999979,
      "v": 79
    },
    {
      "midi": 43,
      "hit": false,
      "t": 51716.395499999904,
      "d": 1567.163499999995,
      "v": 55
    },
    {
      "midi": 67,
      "hit": false,
      "t": 51716.39549999998,
      "d": 1343.283000000003,
      "v": 122
    },
    {
      "midi": 62,
      "hit": false,
      "t": 51940.2759999999,
      "d": 671.6414999999979,
      "v": 81
    },
    {
      "midi": 67,
      "hit": false,
      "t": 51940.2759999999,
      "d": 671.6414999999979,
      "v": 74
    },
    {
      "midi": 50,
      "hit": false,
      "t": 52164.1564999999,
      "d": 671.6414999999979,
      "v": 75
    },
    {
      "midi": 55,
      "hit": false,
      "t": 52611.9174999999,
      "d": 447.7609999999986,
      "v": 43
    },
    {
      "midi": 58,
      "hit": false,
      "t": 52835.7979999999,
      "d": 447.7609999999986,
      "v": 98
    },
    {
      "midi": 62,
      "hit": false,
      "t": 52835.7979999999,
      "d": 671.6414999999979,
      "v": 98
    },
    {
      "midi": 67,
      "hit": false,
      "t": 52835.7979999999,
      "d": 671.6414999999979,
      "v": 98
    },
    {
      "midi": 50,
      "hit": false,
      "t": 53059.6784999999,
      "d": 223.8804999999993,
      "v": 69
    },
    {
      "midi": 60,
      "hit": false,
      "t": 53507.4394999999,
      "d": 895.5219999999972,
      "v": 66
    },
    {
      "midi": 36,
      "hit": false,
      "t": 53507.4394999999,
      "d": 1567.163499999995,
      "v": 86
    },
    {
      "midi": 62,
      "hit": false,
      "t": 53507.43949999998,
      "d": 223.8804999999993,
      "v": 116
    },
    {
      "midi": 63,
      "hit": false,
      "t": 53731.3199999999,
      "d": 671.6414999999979,
      "v": 88
    },
    {
      "midi": 67,
      "hit": false,
      "t": 53731.3199999999,
      "d": 671.6414999999979,
      "v": 75
    },
    {
      "midi": 63,
      "hit": false,
      "t": 53731.31999999998,
      "d": 223.8804999999993,
      "v": 127
    },
    {
      "midi": 43,
      "hit": false,
      "t": 53955.2004999999,
      "d": 671.6414999999979,
      "v": 66
    },
    {
      "midi": 70,
      "hit": false,
      "t": 54179.08099999998,
      "d": 223.8804999999993,
      "v": 118
    },
    {
      "midi": 60,
      "hit": false,
      "t": 54402.961499999896,
      "d": 671.6414999999979,
      "v": 87
    },
    {
      "midi": 63,
      "hit": false,
      "t": 54402.961499999896,
      "d": 895.5219999999972,
      "v": 64
    },
    {
      "midi": 51,
      "hit": false,
      "t": 54402.961499999896,
      "d": 1119.4024999999965,
      "v": 33
    },
    {
      "midi": 67,
      "hit": false,
      "t": 54402.961499999896,
      "d": 1119.4024999999965,
      "v": 81
    },
    {
      "midi": 70,
      "hit": false,
      "t": 54402.961499999976,
      "d": 895.5219999999972,
      "v": 115
    },
    {
      "midi": 43,
      "hit": false,
      "t": 55074.602999999894,
      "d": 223.8804999999993,
      "v": 74
    },
    {
      "midi": 60,
      "hit": false,
      "t": 55298.48349999989,
      "d": 895.5219999999972,
      "v": 98
    },
    {
      "midi": 72,
      "hit": false,
      "t": 55298.48349999997,
      "d": 223.8804999999993,
      "v": 123
    },
    {
      "midi": 65,
      "hit": false,
      "t": 55522.36399999989,
      "d": 671.6414999999979,
      "v": 90
    },
    {
      "midi": 69,
      "hit": false,
      "t": 55522.36399999989,
      "d": 671.6414999999979,
      "v": 126
    },
    {
      "midi": 41,
      "hit": false,
      "t": 55522.36399999989,
      "d": 1567.163499999995,
      "v": 72
    },
    {
      "midi": 69,
      "hit": false,
      "t": 55522.36399999997,
      "d": 223.8804999999993,
      "v": 115
    },
    {
      "midi": 48,
      "hit": false,
      "t": 55970.12499999989,
      "d": 447.7609999999986,
      "v": 64
    },
    {
      "midi": 67,
      "hit": false,
      "t": 55970.12499999997,
      "d": 223.8804999999993,
      "v": 124
    },
    {
      "midi": 48,
      "hit": false,
      "t": 56417.88599999989,
      "d": 223.8804999999993,
      "v": 3
    },
    {
      "midi": 57,
      "hit": false,
      "t": 56417.88599999989,
      "d": 447.7609999999986,
      "v": 43
    },
    {
      "midi": 60,
      "hit": false,
      "t": 56417.88599999989,
      "d": 671.6414999999979,
      "v": 75
    },
    {
      "midi": 65,
      "hit": false,
      "t": 56417.88599999989,
      "d": 895.5219999999972,
      "v": 108
    },
    {
      "midi": 69,
      "hit": false,
      "t": 56417.88599999989,
      "d": 895.5219999999972,
      "v": 75
    },
    {
      "midi": 65,
      "hit": false,
      "t": 56417.88599999997,
      "d": 223.8804999999993,
      "v": 118
    },
    {
      "midi": 67,
      "hit": false,
      "t": 56641.76649999997,
      "d": 223.8804999999993,
      "v": 118
    },
    {
      "midi": 48,
      "hit": false,
      "t": 56865.64699999989,
      "d": 223.8804999999993,
      "v": 72
    },
    {
      "midi": 69,
      "hit": false,
      "t": 57164.1543333333,
      "d": 2910.446499999998,
      "v": 127
    },
    {
      "midi": 62,
      "hit": false,
      "t": 57313.40799999989,
      "d": 671.6414999999979,
      "v": 112
    },
    {
      "midi": 67,
      "hit": false,
      "t": 57313.40799999989,
      "d": 671.6414999999979,
      "v": 127
    },
    {
      "midi": 38,
      "hit": false,
      "t": 57313.40799999989,
      "d": 3134.32699999999,
      "v": 90
    },
    {
      "midi": 45,
      "hit": false,
      "t": 57537.288499999886,
      "d": 671.6414999999979,
      "v": 79
    },
    {
      "midi": 62,
      "hit": false,
      "t": 58208.929999999884,
      "d": 223.8804999999993,
      "v": 116
    },
    {
      "midi": 69,
      "hit": false,
      "t": 58208.929999999884,
      "d": 223.8804999999993,
      "v": 104
    },
    {
      "midi": 53,
      "hit": false,
      "t": 58208.929999999884,
      "d": 671.6414999999979,
      "v": 64
    },
    {
      "midi": 45,
      "hit": false,
      "t": 58432.81049999988,
      "d": 223.8804999999993,
      "v": 55
    },
    {
      "midi": 62,
      "hit": false,
      "t": 58432.81049999988,
      "d": 447.7609999999986,
      "v": 96
    },
    {
      "midi": 67,
      "hit": false,
      "t": 58432.81049999988,
      "d": 447.7609999999986,
      "v": 127
    },
    {
      "midi": 45,
      "hit": false,
      "t": 58880.57149999988,
      "d": 1567.163499999995,
      "v": 72
    },
    {
      "midi": 62,
      "hit": false,
      "t": 59104.45199999988,
      "d": 671.6414999999979,
      "v": 127
    },
    {
      "midi": 66,
      "hit": false,
      "t": 59104.45199999988,
      "d": 671.6414999999979,
      "v": 120
    },
    {
      "midi": 66,
      "hit": false,
      "t": 59999.97399999988,
      "d": 223.8804999999993,
      "v": 96
    },
    {
      "midi": 39,
      "hit": false,
      "t": 59999.97399999988,
      "d": 447.7609999999986,
      "v": 1
    },
    {
      "midi": 40,
      "hit": false,
      "t": 59999.97399999988,
      "d": 447.7609999999986,
      "v": 1
    },
    {
      "midi": 52,
      "hit": false,
      "t": 59999.97399999988,
      "d": 447.7609999999986,
      "v": 51
    },
    {
      "midi": 62,
      "hit": false,
      "t": 59999.97399999988,
      "d": 447.7609999999986,
      "v": 112
    },
    {
      "midi": 62,
      "hit": false,
      "t": 60447.73499999988,
      "d": 223.8804999999993,
      "v": 127
    },
    {
      "midi": 58,
      "hit": false,
      "t": 60895.495999999875,
      "d": 447.7609999999986,
      "v": 68
    },
    {
      "midi": 62,
      "hit": false,
      "t": 60895.495999999875,
      "d": 447.7609999999986,
      "v": 98
    },
    {
      "midi": 67,
      "hit": false,
      "t": 60895.495999999875,
      "d": 447.7609999999986,
      "v": 127
    },
    {
      "midi": 43,
      "hit": false,
      "t": 60895.495999999875,
      "d": 1567.163499999995,
      "v": 88
    },
    {
      "midi": 58,
      "hit": false,
      "t": 61343.256999999874,
      "d": 671.6414999999979,
      "v": 66
    },
    {
      "midi": 50,
      "hit": false,
      "t": 61343.256999999874,
      "d": 1119.4024999999965,
      "v": 31
    },
    {
      "midi": 62,
      "hit": false,
      "t": 61567.13749999997,
      "d": 223.8804999999993,
      "v": 122
    },
    {
      "midi": 62,
      "hit": false,
      "t": 61791.01799999987,
      "d": 447.7609999999986,
      "v": 108
    },
    {
      "midi": 67,
      "hit": false,
      "t": 61791.01799999987,
      "d": 447.7609999999986,
      "v": 88
    },
    {
      "midi": 67,
      "hit": false,
      "t": 61791.01799999997,
      "d": 223.8804999999993,
      "v": 127
    },
    {
      "midi": 58,
      "hit": false,
      "t": 62238.77899999987,
      "d": 223.8804999999993,
      "v": 108
    },
    {
      "midi": 69,
      "hit": false,
      "t": 62238.778999999966,
      "d": 223.8804999999993,
      "v": 118
    },
    {
      "midi": 70,
      "hit": false,
      "t": 62462.659499999965,
      "d": 1567.163499999995,
      "v": 115
    },
    {
      "midi": 58,
      "hit": false,
      "t": 62686.53999999987,
      "d": 223.8804999999993,
      "v": 82
    },
    {
      "midi": 69,
      "hit": false,
      "t": 62686.53999999987,
      "d": 223.8804999999993,
      "v": 79
    },
    {
      "midi": 63,
      "hit": false,
      "t": 62686.53999999987,
      "d": 447.7609999999986,
      "v": 46
    },
    {
      "midi": 67,
      "hit": false,
      "t": 62686.53999999987,
      "d": 447.7609999999986,
      "v": 82
    },
    {
      "midi": 39,
      "hit": false,
      "t": 62686.53999999987,
      "d": 1567.163499999995,
      "v": 44
    },
    {
      "midi": 46,
      "hit": false,
      "t": 63134.30099999987,
      "d": 671.6414999999979,
      "v": 66
    },
    {
      "midi": 58,
      "hit": false,
      "t": 63134.30099999987,
      "d": 671.6414999999979,
      "v": 88
    },
    {
      "midi": 63,
      "hit": false,
      "t": 63582.06199999987,
      "d": 447.7609999999986,
      "v": 90
    },
    {
      "midi": 55,
      "hit": false,
      "t": 63582.06199999987,
      "d": 895.5219999999972,
      "v": 64
    },
    {
      "midi": 67,
      "hit": false,
      "t": 63582.06199999987,
      "d": 895.5219999999972,
      "v": 98
    },
    {
      "midi": 58,
      "hit": false,
      "t": 64029.822999999866,
      "d": 223.8804999999993,
      "v": 96
    },
    {
      "midi": 46,
      "hit": false,
      "t": 64029.822999999866,
      "d": 447.7609999999986,
      "v": 74
    },
    {
      "midi": 60,
      "hit": false,
      "t": 64253.703499999865,
      "d": 447.7609999999986,
      "v": 75
    },
    {
      "midi": 72,
      "hit": false,
      "t": 64253.70349999996,
      "d": 223.8804999999993,
      "v": 106
    },
    {
      "midi": 65,
      "hit": false,
      "t": 64477.583999999864,
      "d": 447.7609999999986,
      "v": 98
    },
    {
      "midi": 69,
      "hit": false,
      "t": 64477.583999999864,
      "d": 447.7609999999986,
      "v": 127
    },
    {
      "midi": 41,
      "hit": false,
      "t": 64477.583999999864,
      "d": 1567.1635000000024,
      "v": 87
    },
    {
      "midi": 69,
      "hit": false,
      "t": 64477.58399999996,
      "d": 223.88049999999203,
      "v": 115
    },
    {
      "midi": 48,
      "hit": false,
      "t": 64925.34499999986,
      "d": 671.6415000000052,
      "v": 33
    },
    {
      "midi": 60,
      "hit": false,
      "t": 64925.34499999986,
      "d": 671.6415000000052,
      "v": 79
    },
    {
      "midi": 67,
      "hit": false,
      "t": 64925.34499999995,
      "d": 223.8804999999993,
      "v": 108
    },
    {
      "midi": 57,
      "hit": false,
      "t": 65373.10599999986,
      "d": 223.88050000000658,
      "v": 66
    },
    {
      "midi": 65,
      "hit": false,
      "t": 65373.10599999986,
      "d": 447.7610000000059,
      "v": 116
    },
    {
      "midi": 69,
      "hit": false,
      "t": 65373.10599999986,
      "d": 895.5220000000045,
      "v": 104
    },
    {
      "midi": 65,
      "hit": false,
      "t": 65373.10599999995,
      "d": 223.88050000000658,
      "v": 105
    },
    {
      "midi": 67,
      "hit": false,
      "t": 65596.98649999996,
      "d": 447.7609999999986,
      "v": 82
    },
    {
      "midi": 48,
      "hit": false,
      "t": 65820.86699999987,
      "d": 223.8804999999993,
      "v": 81
    },
    {
      "midi": 60,
      "hit": false,
      "t": 65820.86699999987,
      "d": 223.8804999999993,
      "v": 87
    },
    {
      "midi": 62,
      "hit": false,
      "t": 66044.74749999995,
      "d": 2238.804999999993,
      "v": 116
    },
    {
      "midi": 62,
      "hit": false,
      "t": 66268.62799999987,
      "d": 223.8804999999993,
      "v": 98
    },
    {
      "midi": 65,
      "hit": false,
      "t": 66268.62799999987,
      "d": 447.7609999999986,
      "v": 79
    },
    {
      "midi": 70,
      "hit": false,
      "t": 66268.62799999987,
      "d": 447.7609999999986,
      "v": 82
    },
    {
      "midi": 34,
      "hit": false,
      "t": 66268.62799999987,
      "d": 1343.2829999999958,
      "v": 96
    },
    {
      "midi": 62,
      "hit": false,
      "t": 66716.38899999986,
      "d": 671.6414999999979,
      "v": 52
    },
    {
      "midi": 41,
      "hit": false,
      "t": 66716.38899999986,
      "d": 895.5219999999972,
      "v": 48
    },
    {
      "midi": 65,
      "hit": false,
      "t": 67164.14999999986,
      "d": 223.8804999999993,
      "v": 108
    },
    {
      "midi": 70,
      "hit": false,
      "t": 67164.14999999986,
      "d": 223.8804999999993,
      "v": 96
    },
    {
      "midi": 50,
      "hit": false,
      "t": 67164.14999999986,
      "d": 895.5220000000118,
      "v": 26
    },
    {
      "midi": 62,
      "hit": false,
      "t": 67611.91099999986,
      "d": 223.8804999999993,
      "v": 86
    },
    {
      "midi": 69,
      "hit": false,
      "t": 67611.91099999986,
      "d": 223.8804999999993,
      "v": 108
    },
    {
      "midi": 65,
      "hit": false,
      "t": 67611.91099999986,
      "d": 447.76100000001315,
      "v": 108
    },
    {
      "midi": 62,
      "hit": false,
      "t": 68059.67199999987,
      "d": 223.8804999999993,
      "v": 48
    },
    {
      "midi": 69,
      "hit": false,
      "t": 68059.67199999987,
      "d": 223.8804999999993,
      "v": 75
    },
    {
      "midi": 43,
      "hit": false,
      "t": 68059.67199999987,
      "d": 1567.163499999995,
      "v": 81
    },
    {
      "midi": 67,
      "hit": false,
      "t": 68059.67199999987,
      "d": 1567.163499999995,
      "v": 127
    },
    {
      "midi": 62,
      "hit": false,
      "t": 68283.55249999987,
      "d": 447.7609999999986,
      "v": 75
    },
    {
      "midi": 50,
      "hit": false,
      "t": 68507.43299999987,
      "d": 671.6414999999979,
      "v": 60
    },
    {
      "midi": 62,
      "hit": false,
      "t": 68731.31349999995,
      "d": 223.8804999999993,
      "v": 124
    },
    {
      "midi": 58,
      "hit": false,
      "t": 68955.19399999987,
      "d": 223.8804999999993,
      "v": 68
    },
    {
      "midi": 55,
      "hit": false,
      "t": 68955.19399999987,
      "d": 447.7609999999986,
      "v": 51
    },
    {
      "midi": 62,
      "hit": false,
      "t": 68955.19399999987,
      "d": 447.7609999999986,
      "v": 116
    },
    {
      "midi": 67,
      "hit": false,
      "t": 68955.19399999994,
      "d": 223.8804999999993,
      "v": 127
    },
    {
      "midi": 50,
      "hit": false,
      "t": 69402.95499999987,
      "d": 223.8804999999993,
      "v": 79
    },
    {
      "midi": 58,
      "hit": false,
      "t": 69402.95499999987,
      "d": 223.8804999999993,
      "v": 96
    },
    {
      "midi": 69,
      "hit": false,
      "t": 69402.95499999994,
      "d": 223.8804999999993,
      "v": 121
    },
    {
      "midi": 47,
      "hit": false,
      "t": 69626.83549999987,
      "d": 223.8804999999993,
      "v": 44
    },
    {
      "midi": 58,
      "hit": false,
      "t": 69626.83549999987,
      "d": 447.7609999999986,
      "v": 90
    },
    {
      "midi": 70,
      "hit": false,
      "t": 69626.83549999994,
      "d": 1567.163499999995,
      "v": 127
    },
    {
      "midi": 63,
      "hit": false,
      "t": 69850.71599999987,
      "d": 447.7609999999986,
      "v": 88
    },
    {
      "midi": 67,
      "hit": false,
      "t": 69850.71599999987,
      "d": 447.7609999999986,
      "v": 64
    },
    {
      "midi": 39,
      "hit": false,
      "t": 69850.71599999987,
      "d": 1567.163499999995,
      "v": 81
    },
    {
      "midi": 46,
      "hit": false,
      "t": 70298.47699999987,
      "d": 671.6414999999979,
      "v": 46
    },
    {
      "midi": 58,
      "hit": false,
      "t": 70298.47699999987,
      "d": 671.6414999999979,
      "v": 75
    },
    {
      "midi": 55,
      "hit": false,
      "t": 70522.35749999987,
      "d": 1119.4024999999965,
      "v": 57
    },
    {
      "midi": 63,
      "hit": false,
      "t": 70746.23799999987,
      "d": 671.6414999999979,
      "v": 87
    },
    {
      "midi": 67,
      "hit": false,
      "t": 70746.23799999987,
      "d": 671.6414999999979,
      "v": 90
    },
    {
      "midi": 58,
      "hit": false,
      "t": 71193.99899999987,
      "d": 223.8804999999993,
      "v": 46
    },
    {
      "midi": 46,
      "hit": false,
      "t": 71193.99899999987,
      "d": 447.7609999999986,
      "v": 68
    },
    {
      "midi": 60,
      "hit": false,
      "t": 71417.87949999986,
      "d": 447.76100000001315,
      "v": 82
    },
    {
      "midi": 72,
      "hit": false,
      "t": 71417.87949999994,
      "d": 223.8804999999993,
      "v": 127
    },
    {
      "midi": 65,
      "hit": false,
      "t": 71641.75999999986,
      "d": 447.76100000001315,
      "v": 104
    },
    {
      "midi": 69,
      "hit": false,
      "t": 71641.75999999986,
      "d": 447.76100000001315,
      "v": 116
    },
    {
      "midi": 41,
      "hit": false,
      "t": 71641.75999999986,
      "d": 1343.2830000000104,
      "v": 86
    },
    {
      "midi": 69,
      "hit": false,
      "t": 71641.75999999994,
      "d": 223.8804999999993,
      "v": 127
    },
    {
      "midi": 48,
      "hit": false,
      "t": 72089.52099999988,
      "d": 671.6414999999979,
      "v": 44
    },
    {
      "midi": 60,
      "hit": false,
      "t": 72089.52099999988,
      "d": 1119.4024999999965,
      "v": 69
    },
    {
      "midi": 67,
      "hit": false,
      "t": 72089.52099999994,
      "d": 223.8804999999993,
      "v": 121
    },
    {
      "midi": 57,
      "hit": false,
      "t": 72537.28199999988,
      "d": 223.8804999999993,
      "v": 55
    },
    {
      "midi": 65,
      "hit": false,
      "t": 72537.28199999988,
      "d": 671.6414999999979,
      "v": 116
    },
    {
      "midi": 69,
      "hit": false,
      "t": 72537.28199999988,
      "d": 895.5219999999972,
      "v": 98
    },
    {
      "midi": 65,
      "hit": false,
      "t": 72537.28199999993,
      "d": 223.8804999999993,
      "v": 126
    },
    {
      "midi": 72,
      "hit": false,
      "t": 72761.16249999993,
      "d": 223.8804999999993,
      "v": 127
    },
    {
      "midi": 48,
      "hit": false,
      "t": 72985.04299999987,
      "d": 223.8804999999993,
      "v": 64
    },
    {
      "midi": 57,
      "hit": false,
      "t": 72985.04299999987,
      "d": 447.7609999999986,
      "v": 66
    },
    {
      "midi": 74,
      "hit": false,
      "t": 73208.92349999993,
      "d": 1343.2829999999958,
      "v": 127
    },
    {
      "midi": 48,
      "hit": false,
      "t": 73432.80399999987,
      "d": 223.8804999999993,
      "v": 81
    },
    {
      "midi": 62,
      "hit": false,
      "t": 73432.80399999987,
      "d": 223.8804999999993,
      "v": 98
    },
    {
      "midi": 65,
      "hit": false,
      "t": 73432.80399999987,
      "d": 671.6414999999979,
      "v": 108
    },
    {
      "midi": 70,
      "hit": false,
      "t": 73432.80399999987,
      "d": 671.6414999999979,
      "v": 116
    },
    {
      "midi": 46,
      "hit": false,
      "t": 73432.80399999987,
      "d": 1567.163499999995,
      "v": 44
    },
    {
      "midi": 62,
      "hit": false,
      "t": 74104.44549999987,
      "d": 895.5219999999972,
      "v": 82
    },
    {
      "midi": 53,
      "hit": false,
      "t": 74328.32599999987,
      "d": 447.7609999999986,
      "v": 96
    },
    {
      "midi": 65,
      "hit": false,
      "t": 74328.32599999987,
      "d": 447.7609999999986,
      "v": 108
    },
    {
      "midi": 70,
      "hit": false,
      "t": 74328.32599999987,
      "d": 447.7609999999986,
      "v": 96
    },
    {
      "midi": 53,
      "hit": false,
      "t": 74776.08699999987,
      "d": 223.8804999999993,
      "v": 104
    },
    {
      "midi": 70,
      "hit": false,
      "t": 74776.08699999993,
      "d": 223.8804999999993,
      "v": 127
    },
    {
      "midi": 72,
      "hit": false,
      "t": 74999.96749999993,
      "d": 223.88049999998475,
      "v": 127
    },
    {
      "midi": 58,
      "hit": false,
      "t": 75223.84799999987,
      "d": 223.8804999999993,
      "v": 52
    },
    {
      "midi": 63,
      "hit": false,
      "t": 75223.84799999987,
      "d": 671.6414999999979,
      "v": 116
    },
    {
      "midi": 67,
      "hit": false,
      "t": 75223.84799999987,
      "d": 671.6414999999979,
      "v": 81
    },
    {
      "midi": 39,
      "hit": false,
      "t": 75223.84799999987,
      "d": 1567.163499999995,
      "v": 127
    },
    {
      "midi": 74,
      "hit": false,
      "t": 75223.84799999991,
      "d": 223.8804999999993,
      "v": 127
    },
    {
      "midi": 46,
      "hit": false,
      "t": 75671.60899999987,
      "d": 671.6414999999979,
      "v": 46
    },
    {
      "midi": 58,
      "hit": false,
      "t": 75671.60899999987,
      "d": 1119.4024999999965,
      "v": 79
    },
    {
      "midi": 74,
      "hit": false,
      "t": 75671.60899999991,
      "d": 223.8804999999993,
      "v": 127
    },
    {
      "midi": 63,
      "hit": false,
      "t": 76119.36999999986,
      "d": 671.6414999999979,
      "v": 98
    },
    {
      "midi": 67,
      "hit": false,
      "t": 76119.36999999986,
      "d": 895.5219999999972,
      "v": 112
    },
    {
      "midi": 55,
      "hit": false,
      "t": 76119.36999999986,
      "d": 1119.4024999999965,
      "v": 55
    },
    {
      "midi": 72,
      "hit": false,
      "t": 76119.36999999991,
      "d": 223.8804999999993,
      "v": 127
    },
    {
      "midi": 70,
      "hit": false,
      "t": 76343.25049999991,
      "d": 223.8804999999993,
      "v": 126
    },
    {
      "midi": 46,
      "hit": false,
      "t": 76567.13099999986,
      "d": 447.7609999999986,
      "v": 81
    },
    {
      "midi": 58,
      "hit": false,
      "t": 76791.01149999986,
      "d": 447.7609999999986,
      "v": 82
    },
    {
      "midi": 72,
      "hit": false,
      "t": 76791.0114999999,
      "d": 1567.163499999995,
      "v": 127
    },
    {
      "midi": 65,
      "hit": false,
      "t": 77014.89199999986,
      "d": 447.7609999999986,
      "v": 81
    },
    {
      "midi": 69,
      "hit": false,
      "t": 77014.89199999986,
      "d": 447.7609999999986,
      "v": 96
    },
    {
      "midi": 41,
      "hit": false,
      "t": 77014.89199999986,
      "d": 1567.163499999995,
      "v": 81
    },
    {
      "midi": 48,
      "hit": false,
      "t": 77462.65299999986,
      "d": 447.7609999999986,
      "v": 66
    },
    {
      "midi": 58,
      "hit": false,
      "t": 77462.65299999986,
      "d": 671.6414999999979,
      "v": 82
    },
    {
      "midi": 63,
      "hit": false,
      "t": 77910.41399999986,
      "d": 447.7609999999986,
      "v": 98
    },
    {
      "midi": 48,
      "hit": false,
      "t": 77910.41399999986,
      "d": 671.6414999999979,
      "v": 98
    },
    {
      "midi": 67,
      "hit": false,
      "t": 77910.41399999986,
      "d": 671.6414999999979,
      "v": 72
    },
    {
      "midi": 58,
      "hit": false,
      "t": 78358.17499999986,
      "d": 223.8804999999993,
      "v": 96
    },
    {
      "midi": 69,
      "hit": false,
      "t": 78358.1749999999,
      "d": 223.8804999999993,
      "v": 127
    },
    {
      "midi": 62,
      "hit": false,
      "t": 78582.05549999986,
      "d": 671.6414999999834,
      "v": 25
    },
    {
      "midi": 70,
      "hit": false,
      "t": 78582.0554999999,
      "d": 223.8804999999993,
      "v": 118
    },
    {
      "midi": 67,
      "hit": false,
      "t": 78805.93599999984,
      "d": 223.8804999999993,
      "v": 81
    },
    {
      "midi": 65,
      "hit": false,
      "t": 78805.93599999984,
      "d": 447.7609999999986,
      "v": 79
    },
    {
      "midi": 57,
      "hit": false,
      "t": 78805.93599999984,
      "d": 895.5219999999972,
      "v": 127
    },
    {
      "midi": 38,
      "hit": false,
      "t": 78805.93599999984,
      "d": 1343.2829999999958,
      "v": 98
    },
    {
      "midi": 72,
      "hit": false,
      "t": 78805.9359999999,
      "d": 223.8804999999993,
      "v": 127
    },
    {
      "midi": 45,
      "hit": false,
      "t": 79253.69699999984,
      "d": 671.6414999999979,
      "v": 88
    },
    {
      "midi": 72,
      "hit": false,
      "t": 79253.6969999999,
      "d": 223.8804999999993,
      "v": 127
    },
    {
      "midi": 57,
      "hit": false,
      "t": 79701.45799999984,
      "d": 447.7609999999986,
      "v": 98
    },
    {
      "midi": 53,
      "hit": false,
      "t": 79701.45799999984,
      "d": 671.6414999999979,
      "v": 55
    },
    {
      "midi": 62,
      "hit": false,
      "t": 79701.45799999984,
      "d": 671.6414999999979,
      "v": 127
    },
    {
      "midi": 65,
      "hit": false,
      "t": 79701.45799999984,
      "d": 671.6414999999979,
      "v": 75
    },
    {
      "midi": 69,
      "hit": false,
      "t": 79701.4579999999,
      "d": 223.8804999999993,
      "v": 127
    },
    {
      "midi": 65,
      "hit": false,
      "t": 79925.3384999999,
      "d": 223.8804999999993,
      "v": 127
    },
    {
      "midi": 45,
      "hit": false,
      "t": 80149.21899999984,
      "d": 223.8804999999993,
      "v": 75
    },
    {
      "midi": 67,
      "hit": false,
      "t": 80373.0994999999,
      "d": 1567.163499999995,
      "v": 127
    },
    {
      "midi": 58,
      "hit": false,
      "t": 80596.97999999984,
      "d": 671.6414999999979,
      "v": 52
    },
    {
      "midi": 62,
      "hit": false,
      "t": 80596.97999999984,
      "d": 671.6414999999979,
      "v": 116
    },
    {
      "midi": 67,
      "hit": false,
      "t": 80596.97999999984,
      "d": 671.6414999999979,
      "v": 126
    },
    {
      "midi": 39,
      "hit": false,
      "t": 80596.97999999984,
      "d": 1567.163499999995,
      "v": 127
    },
    {
      "midi": 46,
      "hit": false,
      "t": 81044.74099999983,
      "d": 671.6414999999979,
      "v": 66
    },
    {
      "midi": 55,
      "hit": false,
      "t": 81492.50199999983,
      "d": 223.8804999999993,
      "v": 68
    },
    {
      "midi": 62,
      "hit": false,
      "t": 81492.50199999983,
      "d": 447.7609999999986,
      "v": 104
    },
    {
      "midi": 58,
      "hit": false,
      "t": 81492.50199999983,
      "d": 671.6414999999979,
      "v": 96
    },
    {
      "midi": 67,
      "hit": false,
      "t": 81492.50199999983,
      "d": 895.5219999999972,
      "v": 96
    },
    {
      "midi": 46,
      "hit": false,
      "t": 81940.26299999983,
      "d": 447.7609999999986,
      "v": 96
    },
    {
      "midi": 62,
      "hit": false,
      "t": 82164.14349999989,
      "d": 223.8804999999993,
      "v": 127
    },
    {
      "midi": 58,
      "hit": false,
      "t": 82388.02399999983,
      "d": 671.6414999999979,
      "v": 82
    },
    {
      "midi": 63,
      "hit": false,
      "t": 82388.02399999983,
      "d": 671.6414999999979,
      "v": 104
    },
    {
      "midi": 67,
      "hit": false,
      "t": 82388.02399999983,
      "d": 671.6414999999979,
      "v": 98
    },
    {
      "midi": 39,
      "hit": false,
      "t": 82388.02399999983,
      "d": 1567.163499999995,
      "v": 86
    },
    {
      "midi": 63,
      "hit": false,
      "t": 82388.02399999989,
      "d": 447.7609999999986,
      "v": 127
    },
    {
      "midi": 46,
      "hit": false,
      "t": 82835.78499999983,
      "d": 671.6414999999979,
      "v": 68
    },
    {
      "midi": 70,
      "hit": false,
      "t": 82835.78499999989,
      "d": 223.8804999999993,
      "v": 127
    },
    {
      "midi": 70,
      "hit": false,
      "t": 83059.66549999989,
      "d": 671.6414999999979,
      "v": 127
    },
    {
      "midi": 58,
      "hit": false,
      "t": 83283.54599999983,
      "d": 447.7609999999986,
      "v": 126
    },
    {
      "midi": 63,
      "hit": false,
      "t": 83283.54599999983,
      "d": 671.6414999999979,
      "v": 108
    },
    {
      "midi": 55,
      "hit": false,
      "t": 83283.54599999983,
      "d": 895.5219999999972,
      "v": 68
    },
    {
      "midi": 67,
      "hit": false,
      "t": 83283.54599999983,
      "d": 895.5219999999972,
      "v": 98
    },
    {
      "midi": 46,
      "hit": false,
      "t": 83731.30699999983,
      "d": 447.7609999999986,
      "v": 96
    },
    {
      "midi": 72,
      "hit": false,
      "t": 83955.18749999988,
      "d": 223.8804999999993,
      "v": 127
    },
    {
      "midi": 60,
      "hit": false,
      "t": 84179.06799999982,
      "d": 671.6414999999979,
      "v": 86
    },
    {
      "midi": 65,
      "hit": false,
      "t": 84179.06799999982,
      "d": 671.6414999999979,
      "v": 126
    },
    {
      "midi": 69,
      "hit": false,
      "t": 84179.06799999982,
      "d": 671.6414999999979,
      "v": 90
    },
    {
      "midi": 41,
      "hit": false,
      "t": 84179.06799999982,
      "d": 1567.163499999995,
      "v": 90
    },
    {
      "midi": 69,
      "hit": false,
      "t": 84179.06799999988,
      "d": 223.8804999999993,
      "v": 127
    },
    {
      "midi": 48,
      "hit": false,
      "t": 84626.82899999982,
      "d": 447.7609999999986,
      "v": 66
    },
    {
      "midi": 67,
      "hit": false,
      "t": 84626.82899999988,
      "d": 223.8804999999993,
      "v": 127
    },
    {
      "midi": 57,
      "hit": false,
      "t": 85074.58999999982,
      "d": 447.7609999999986,
      "v": 62
    },
    {
      "midi": 60,
      "hit": false,
      "t": 85074.58999999982,
      "d": 447.7609999999986,
      "v": 87
    },
    {
      "midi": 65,
      "hit": false,
      "t": 85074.58999999982,
      "d": 447.7609999999986,
      "v": 126
    },
    {
      "midi": 69,
      "hit": false,
      "t": 85074.58999999982,
      "d": 447.7609999999986,
      "v": 82
    },
    {
      "midi": 67,
      "hit": false,
      "t": 85074.58999999988,
      "d": 223.8804999999993,
      "v": 127
    },
    {
      "midi": 65,
      "hit": false,
      "t": 85298.47049999988,
      "d": 447.7609999999986,
      "v": 127
    },
    {
      "midi": 48,
      "hit": false,
      "t": 85522.35099999982,
      "d": 223.8804999999993,
      "v": 79
    },
    {
      "midi": 62,
      "hit": false,
      "t": 85746.23149999982,
      "d": 223.8804999999993,
      "v": 25
    },
    {
      "midi": 67,
      "hit": false,
      "t": 85746.23149999988,
      "d": 2238.804999999993,
      "v": 126
    },
    {
      "midi": 58,
      "hit": false,
      "t": 85970.11199999982,
      "d": 447.7609999999986,
      "v": 66
    },
    {
      "midi": 62,
      "hit": false,
      "t": 85970.11199999982,
      "d": 671.6414999999979,
      "v": 96
    },
    {
      "midi": 67,
      "hit": false,
      "t": 85970.11199999982,
      "d": 671.6414999999979,
      "v": 96
    },
    {
      "midi": 43,
      "hit": false,
      "t": 85970.11199999982,
      "d": 3582.0879999999743,
      "v": 96
    },
    {
      "midi": 50,
      "hit": false,
      "t": 86193.99249999982,
      "d": 447.7609999999986,
      "v": 87
    },
    {
      "midi": 62,
      "hit": false,
      "t": 86641.75349999982,
      "d": 447.7609999999986,
      "v": 1
    },
    {
      "midi": 50,
      "hit": false,
      "t": 86865.63399999982,
      "d": 223.8804999999993,
      "v": 60
    },
    {
      "midi": 69,
      "hit": false,
      "t": 86865.63399999982,
      "d": 223.8804999999993,
      "v": 51
    },
    {
      "midi": 58,
      "hit": false,
      "t": 86865.63399999982,
      "d": 447.7609999999986,
      "v": 87
    },
    {
      "midi": 67,
      "hit": false,
      "t": 86865.63399999982,
      "d": 447.7609999999986,
      "v": 74
    },
    {
      "midi": 62,
      "hit": false,
      "t": 87313.39499999981,
      "d": 223.8804999999993,
      "v": 82
    },
    {
      "midi": 50,
      "hit": false,
      "t": 87313.39499999981,
      "d": 671.6414999999979,
      "v": 81
    },
    {
      "midi": 58,
      "hit": false,
      "t": 87761.15599999981,
      "d": 447.7609999999986,
      "v": 82
    },
    {
      "midi": 62,
      "hit": false,
      "t": 87761.15599999981,
      "d": 671.6414999999979,
      "v": 112
    },
    {
      "midi": 70,
      "hit": false,
      "t": 87761.15599999981,
      "d": 671.6414999999979,
      "v": 127
    },
    {
      "midi": 50,
      "hit": false,
      "t": 88208.91699999981,
      "d": 671.6414999999979,
      "v": 64
    },
    {
      "midi": 58,
      "hit": false,
      "t": 88656.67799999981,
      "d": 223.8804999999993,
      "v": 82
    },
    {
      "midi": 67,
      "hit": false,
      "t": 88656.67799999981,
      "d": 447.7609999999986,
      "v": 127
    },
    {
      "midi": 62,
      "hit": false,
      "t": 88656.67799999981,
      "d": 671.6414999999979,
      "v": 87
    },
    {
      "midi": 70,
      "hit": false,
      "t": 88656.67799999987,
      "d": 223.8804999999993,
      "v": 127
    },
    {
      "midi": 70,
      "hit": false,
      "t": 88880.55849999987,
      "d": 223.8804999999993,
      "v": 127
    },
    {
      "midi": 50,
      "hit": false,
      "t": 89104.43899999981,
      "d": 223.8804999999993,
      "v": 96
    },
    {
      "midi": 70,
      "hit": false,
      "t": 89104.43899999987,
      "d": 223.8804999999993,
      "v": 127
    },
    {
      "midi": 58,
      "hit": false,
      "t": 89328.31949999981,
      "d": 223.88049999998475,
      "v": 90
    },
    {
      "midi": 72,
      "hit": false,
      "t": 89328.31949999987,
      "d": 223.8804999999993,
      "v": 127
    },
    {
      "midi": 62,
      "hit": false,
      "t": 89552.1999999998,
      "d": 447.7609999999986,
      "v": 108
    },
    {
      "midi": 65,
      "hit": false,
      "t": 89552.1999999998,
      "d": 671.6414999999979,
      "v": 98
    },
    {
      "midi": 34,
      "hit": false,
      "t": 89552.1999999998,
      "d": 1343.2829999999958,
      "v": 126
    },
    {
      "midi": 74,
      "hit": false,
      "t": 89552.19999999987,
      "d": 223.8804999999993,
      "v": 127
    },
    {
      "midi": 58,
      "hit": false,
      "t": 89999.96099999979,
      "d": 447.7609999999986,
      "v": 75
    },
    {
      "midi": 41,
      "hit": false,
      "t": 89999.96099999979,
      "d": 895.5219999999972,
      "v": 64
    },
    {
      "midi": 74,
      "hit": false,
      "t": 89999.96099999986,
      "d": 223.8804999999993,
      "v": 127
    },
    {
      "midi": 58,
      "hit": false,
      "t": 90447.72199999979,
      "d": 447.7609999999986,
      "v": 126
    },
    {
      "midi": 62,
      "hit": false,
      "t": 90447.72199999979,
      "d": 671.6414999999979,
      "v": 127
    },
    {
      "midi": 65,
      "hit": false,
      "t": 90447.72199999979,
      "d": 671.6414999999979,
      "v": 98
    },
    {
      "midi": 50,
      "hit": false,
      "t": 90447.72199999979,
      "d": 895.5219999999972,
      "v": 86
    },
    {
      "midi": 72,
      "hit": false,
      "t": 90447.72199999986,
      "d": 223.8804999999993,
      "v": 127
    },
    {
      "midi": 70,
      "hit": false,
      "t": 90671.60249999986,
      "d": 223.8804999999993,
      "v": 127
    },
    {
      "midi": 41,
      "hit": false,
      "t": 90895.48299999979,
      "d": 223.8804999999993,
      "v": 75
    },
    {
      "midi": 60,
      "hit": false,
      "t": 91119.36349999979,
      "d": 671.6414999999979,
      "v": 104
    },
    {
      "midi": 72,
      "hit": false,
      "t": 91119.36349999986,
      "d": 1119.402500000011,
      "v": 127
    },
    {
      "midi": 33,
      "hit": false,
      "t": 91324.58729166668,
      "d": 107.27607291666209,
      "v": 104
    },
    {
      "midi": 65,
      "hit": false,
      "t": 91343.24399999979,
      "d": 671.6414999999979,
      "v": 108
    },
    {
      "midi": 69,
      "hit": false,
      "t": 91343.24399999979,
      "d": 671.6414999999979,
      "v": 120
    },
    {
      "midi": 41,
      "hit": false,
      "t": 91343.24399999979,
      "d": 1567.163499999995,
      "v": 96
    },
    {
      "midi": 48,
      "hit": false,
      "t": 91791.00499999979,
      "d": 895.5219999999972,
      "v": 48
    },
    {
      "midi": 60,
      "hit": false,
      "t": 92014.88549999979,
      "d": 223.8804999999993,
      "v": 72
    },
    {
      "midi": 65,
      "hit": false,
      "t": 92014.88549999979,
      "d": 223.8804999999993,
      "v": 68
    },
    {
      "midi": 69,
      "hit": false,
      "t": 92014.88549999979,
      "d": 223.8804999999993,
      "v": 64
    },
    {
      "midi": 60,
      "hit": false,
      "t": 92238.76599999978,
      "d": 223.8804999999993,
      "v": 105
    },
    {
      "midi": 65,
      "hit": false,
      "t": 92238.76599999978,
      "d": 223.8804999999993,
      "v": 127
    },
    {
      "midi": 69,
      "hit": false,
      "t": 92238.76599999978,
      "d": 223.8804999999993,
      "v": 90
    },
    {
      "midi": 57,
      "hit": false,
      "t": 92238.76599999978,
      "d": 447.7609999999986,
      "v": 66
    },
    {
      "midi": 72,
      "hit": false,
      "t": 92462.64649999987,
      "d": 223.8804999999993,
      "v": 127
    },
    {
      "midi": 48,
      "hit": false,
      "t": 92686.52699999978,
      "d": 223.8804999999993,
      "v": 39
    },
    {
      "midi": 60,
      "hit": false,
      "t": 92686.52699999978,
      "d": 223.8804999999993,
      "v": 127
    },
    {
      "midi": 65,
      "hit": false,
      "t": 92686.52699999978,
      "d": 223.8804999999993,
      "v": 127
    },
    {
      "midi": 69,
      "hit": false,
      "t": 92686.52699999978,
      "d": 223.8804999999993,
      "v": 115
    },
    {
      "midi": 72,
      "hit": false,
      "t": 92686.52699999987,
      "d": 223.8804999999993,
      "v": 127
    },
    {
      "midi": 74,
      "hit": false,
      "t": 92910.40749999987,
      "d": 223.8804999999993,
      "v": 127
    },
    {
      "midi": 62,
      "hit": false,
      "t": 93134.28799999978,
      "d": 447.7609999999986,
      "v": 98
    },
    {
      "midi": 65,
      "hit": false,
      "t": 93134.28799999978,
      "d": 447.7609999999986,
      "v": 110
    },
    {
      "midi": 67,
      "hit": false,
      "t": 93134.28799999978,
      "d": 447.7609999999986,
      "v": 115
    },
    {
      "midi": 36,
      "hit": false,
      "t": 93134.28799999978,
      "d": 1343.2829999999958,
      "v": 127
    },
    {
      "midi": 75,
      "hit": false,
      "t": 93134.28799999987,
      "d": 223.8804999999993,
      "v": 127
    },
    {
      "midi": 43,
      "hit": false,
      "t": 93582.04899999978,
      "d": 671.6414999999979,
      "v": 87
    },
    {
      "midi": 60,
      "hit": false,
      "t": 93582.04899999978,
      "d": 1119.4024999999965,
      "v": 81
    },
    {
      "midi": 75,
      "hit": false,
      "t": 93582.04899999987,
      "d": 223.8804999999993,
      "v": 127
    },
    {
      "midi": 63,
      "hit": false,
      "t": 94029.80999999978,
      "d": 447.7609999999986,
      "v": 115
    },
    {
      "midi": 67,
      "hit": false,
      "t": 94029.80999999978,
      "d": 671.6414999999979,
      "v": 105
    },
    {
      "midi": 51,
      "hit": false,
      "t": 94029.80999999978,
      "d": 895.5219999999972,
      "v": 115
    },
    {
      "midi": 75,
      "hit": false,
      "t": 94029.80999999987,
      "d": 223.8804999999993,
      "v": 127
    },
    {
      "midi": 72,
      "hit": false,
      "t": 94253.69049999987,
      "d": 223.8804999999993,
      "v": 118
    },
    {
      "midi": 43,
      "hit": false,
      "t": 94477.57099999978,
      "d": 223.8804999999993,
      "v": 104
    },
    {
      "midi": 74,
      "hit": false,
      "t": 94701.45149999986,
      "d": 1343.2829999999958,
      "v": 127
    },
    {
      "midi": 33,
      "hit": false,
      "t": 94906.67529166667,
      "d": 107.27607291666209,
      "v": 94
    },
    {
      "midi": 60,
      "hit": false,
      "t": 94925.33199999978,
      "d": 223.8804999999993,
      "v": 115
    },
    {
      "midi": 65,
      "hit": false,
      "t": 94925.33199999978,
      "d": 223.8804999999993,
      "v": 104
    },
    {
      "midi": 58,
      "hit": false,
      "t": 94925.33199999978,
      "d": 447.7609999999986,
      "v": 79
    },
    {
      "midi": 62,
      "hit": false,
      "t": 94925.33199999978,
      "d": 447.7609999999986,
      "v": 126
    },
    {
      "midi": 67,
      "hit": false,
      "t": 94925.33199999978,
      "d": 671.6414999999979,
      "v": 126
    },
    {
      "midi": 43,
      "hit": false,
      "t": 94925.33199999978,
      "d": 1567.163499999995,
      "v": 127
    },
    {
      "midi": 58,
      "hit": false,
      "t": 95596.97349999977,
      "d": 223.8804999999993,
      "v": 87
    },
    {
      "midi": 62,
      "hit": false,
      "t": 95596.97349999977,
      "d": 223.8804999999993,
      "v": 79
    },
    {
      "midi": 67,
      "hit": false,
      "t": 95596.97349999977,
      "d": 223.8804999999993,
      "v": 55
    },
    {
      "midi": 50,
      "hit": false,
      "t": 95596.97349999977,
      "d": 447.7609999999986,
      "v": 24
    },
    {
      "midi": 58,
      "hit": false,
      "t": 95820.85399999977,
      "d": 223.8804999999993,
      "v": 126
    },
    {
      "midi": 62,
      "hit": false,
      "t": 95820.85399999977,
      "d": 447.7609999999986,
      "v": 127
    },
    {
      "midi": 67,
      "hit": false,
      "t": 95820.85399999977,
      "d": 447.7609999999986,
      "v": 105
    },
    {
      "midi": 55,
      "hit": false,
      "t": 95820.85399999977,
      "d": 671.6414999999979,
      "v": 72
    },
    {
      "midi": 50,
      "hit": false,
      "t": 96268.61499999977,
      "d": 223.8804999999993,
      "v": 64
    },
    {
      "midi": 58,
      "hit": false,
      "t": 96268.61499999977,
      "d": 223.8804999999993,
      "v": 127
    },
    {
      "midi": 67,
      "hit": false,
      "t": 96268.61499999977,
      "d": 223.8804999999993,
      "v": 105
    },
    {
      "midi": 62,
      "hit": false,
      "t": 96268.61499999977,
      "d": 447.7609999999986,
      "v": 115
    },
    {
      "midi": 74,
      "hit": false,
      "t": 96268.61499999986,
      "d": 223.8804999999993,
      "v": 127
    },
    {
      "midi": 75,
      "hit": false,
      "t": 96492.49549999986,
      "d": 223.88050000001385,
      "v": 127
    },
    {
      "midi": 58,
      "hit": false,
      "t": 96716.37599999977,
      "d": 223.8804999999993,
      "v": 117
    },
    {
      "midi": 62,
      "hit": false,
      "t": 96716.37599999977,
      "d": 447.7609999999986,
      "v": 127
    },
    {
      "midi": 65,
      "hit": false,
      "t": 96716.37599999977,
      "d": 671.6414999999979,
      "v": 127
    },
    {
      "midi": 34,
      "hit": false,
      "t": 96716.37599999977,
      "d": 1343.2829999999958,
      "v": 127
    },
    {
      "midi": 77,
      "hit": false,
      "t": 96716.37599999987,
      "d": 223.8804999999993,
      "v": 127
    },
    {
      "midi": 41,
      "hit": false,
      "t": 97164.13699999977,
      "d": 671.6414999999979,
      "v": 79
    },
    {
      "midi": 58,
      "hit": false,
      "t": 97164.13699999977,
      "d": 895.5219999999972,
      "v": 105
    },
    {
      "midi": 77,
      "hit": false,
      "t": 97164.13699999987,
      "d": 223.8804999999993,
      "v": 127
    },
    {
      "midi": 62,
      "hit": false,
      "t": 97611.89799999977,
      "d": 671.6414999999979,
      "v": 127
    },
    {
      "midi": 50,
      "hit": false,
      "t": 97611.89799999977,
      "d": 895.5219999999972,
      "v": 40
    },
    {
      "midi": 65,
      "hit": false,
      "t": 97611.89799999977,
      "d": 895.5219999999972,
      "v": 117
    },
    {
      "midi": 75,
      "hit": false,
      "t": 97611.89799999987,
      "d": 223.8804999999993,
      "v": 127
    },
    {
      "midi": 74,
      "hit": false,
      "t": 97835.77849999987,
      "d": 447.76100000001315,
      "v": 126
    },
    {
      "midi": 41,
      "hit": false,
      "t": 98059.65899999977,
      "d": 447.7609999999986,
      "v": 98
    },
    {
      "midi": 60,
      "hit": false,
      "t": 98283.53949999977,
      "d": 447.7609999999986,
      "v": 94
    },
    {
      "midi": 79,
      "hit": false,
      "t": 98283.53949999988,
      "d": 895.5219999999972,
      "v": 127
    },
    {
      "midi": 33,
      "hit": false,
      "t": 98488.76329166666,
      "d": 107.27607291666209,
      "v": 104
    },
    {
      "midi": 65,
      "hit": false,
      "t": 98507.41999999977,
      "d": 223.8804999999993,
      "v": 60
    },
    {
      "midi": 63,
      "hit": false,
      "t": 98507.41999999977,
      "d": 671.6414999999979,
      "v": 94
    },
    {
      "midi": 67,
      "hit": false,
      "t": 98507.41999999977,
      "d": 895.5219999999972,
      "v": 88
    },
    {
      "midi": 36,
      "hit": false,
      "t": 98507.41999999977,
      "d": 1567.163499999995,
      "v": 64
    },
    {
      "midi": 60,
      "hit": false,
      "t": 98955.18099999976,
      "d": 223.8804999999993,
      "v": 22
    },
    {
      "midi": 43,
      "hit": false,
      "t": 98955.18099999976,
      "d": 671.6414999999979,
      "v": 94
    },
    {
      "midi": 77,
      "hit": false,
      "t": 99179.06149999988,
      "d": 223.8804999999993,
      "v": 127
    },
    {
      "midi": 60,
      "hit": false,
      "t": 99402.94199999976,
      "d": 447.7609999999986,
      "v": 127
    },
    {
      "midi": 51,
      "hit": false,
      "t": 99402.94199999976,
      "d": 671.6414999999979,
      "v": 98
    },
    {
      "midi": 63,
      "hit": false,
      "t": 99402.94199999976,
      "d": 671.6414999999979,
      "v": 127
    },
    {
      "midi": 67,
      "hit": false,
      "t": 99402.94199999976,
      "d": 895.5219999999972,
      "v": 94
    },
    {
      "midi": 75,
      "hit": false,
      "t": 99402.94199999988,
      "d": 447.7609999999986,
      "v": 127
    },
    {
      "midi": 43,
      "hit": false,
      "t": 99850.70299999976,
      "d": 223.8804999999993,
      "v": 126
    },
    {
      "midi": 74,
      "hit": false,
      "t": 99850.70299999988,
      "d": 447.76100000001315,
      "v": 127
    },
    {
      "midi": 66,
      "hit": false,
      "t": 100074.58349999976,
      "d": 223.8804999999993,
      "v": 1
    },
    {
      "midi": 58,
      "hit": false,
      "t": 100298.46399999976,
      "d": 671.6414999999979,
      "v": 127
    },
    {
      "midi": 63,
      "hit": false,
      "t": 100298.46399999976,
      "d": 671.6414999999979,
      "v": 127
    },
    {
      "midi": 67,
      "hit": false,
      "t": 100298.46399999976,
      "d": 671.6414999999979,
      "v": 127
    },
    {
      "midi": 39,
      "hit": false,
      "t": 100298.46399999976,
      "d": 1343.2829999999958,
      "v": 117
    },
    {
      "midi": 70,
      "hit": false,
      "t": 100298.46399999989,
      "d": 1343.2829999999958,
      "v": 127
    },
    {
      "midi": 46,
      "hit": false,
      "t": 100522.34449999976,
      "d": 1567.1635000000097,
      "v": 86
    },
    {
      "midi": 55,
      "hit": false,
      "t": 101193.98599999976,
      "d": 223.8804999999993,
      "v": 105
    },
    {
      "midi": 58,
      "hit": false,
      "t": 101193.98599999976,
      "d": 447.7609999999986,
      "v": 127
    },
    {
      "midi": 63,
      "hit": false,
      "t": 101193.98599999976,
      "d": 671.6414999999979,
      "v": 127
    },
    {
      "midi": 67,
      "hit": false,
      "t": 101193.98599999976,
      "d": 671.6414999999979,
      "v": 115
    },
    {
      "midi": 72,
      "hit": false,
      "t": 101641.74699999989,
      "d": 223.8804999999993,
      "v": 127
    },
    {
      "midi": 74,
      "hit": false,
      "t": 101865.62749999989,
      "d": 223.8804999999702,
      "v": 127
    },
    {
      "midi": 33,
      "hit": false,
      "t": 102070.85129166665,
      "d": 107.27607291666209,
      "v": 94
    },
    {
      "midi": 41,
      "hit": false,
      "t": 102089.50799999977,
      "d": 671.6414999999979,
      "v": 105
    },
    {
      "midi": 60,
      "hit": false,
      "t": 102089.50799999977,
      "d": 671.6414999999979,
      "v": 74
    },
    {
      "midi": 65,
      "hit": false,
      "t": 102089.50799999977,
      "d": 671.6414999999979,
      "v": 127
    },
    {
      "midi": 69,
      "hit": false,
      "t": 102089.50799999977,
      "d": 671.6414999999979,
      "v": 127
    },
    {
      "midi": 72,
      "hit": false,
      "t": 102089.50799999986,
      "d": 895.5219999999972,
      "v": 127
    },
    {
      "midi": 48,
      "hit": false,
      "t": 102537.26899999977,
      "d": 223.8804999999993,
      "v": 105
    },
    {
      "midi": 39,
      "hit": false,
      "t": 102985.02999999977,
      "d": 223.8804999999993,
      "v": 127
    },
    {
      "midi": 46,
      "hit": false,
      "t": 102985.02999999977,
      "d": 223.8804999999993,
      "v": 112
    },
    {
      "midi": 58,
      "hit": false,
      "t": 102985.02999999977,
      "d": 223.8804999999993,
      "v": 127
    },
    {
      "midi": 63,
      "hit": false,
      "t": 102985.02999999977,
      "d": 223.8804999999993,
      "v": 127
    },
    {
      "midi": 67,
      "hit": false,
      "t": 102985.02999999977,
      "d": 223.8804999999993,
      "v": 127
    },
    {
      "midi": 70,
      "hit": false,
      "t": 103208.91049999985,
      "d": 223.8804999999993,
      "v": 127
    },
    {
      "midi": 41,
      "hit": false,
      "t": 103432.79099999976,
      "d": 223.8804999999993,
      "v": 127
    },
    {
      "midi": 60,
      "hit": false,
      "t": 103432.79099999976,
      "d": 223.8804999999993,
      "v": 127
    },
    {
      "midi": 65,
      "hit": false,
      "t": 103432.79099999976,
      "d": 223.8804999999993,
      "v": 127
    },
    {
      "midi": 69,
      "hit": false,
      "t": 103432.79099999976,
      "d": 223.8804999999993,
      "v": 127
    },
    {
      "midi": 70,
      "hit": false,
      "t": 103432.79099999985,
      "d": 223.8804999999993,
      "v": 127
    },
    {
      "midi": 72,
      "hit": false,
      "t": 103656.67149999985,
      "d": 223.88050000001385,
      "v": 127
    },
    {
      "midi": 62,
      "hit": false,
      "t": 103880.55199999976,
      "d": 671.6414999999979,
      "v": 127
    },
    {
      "midi": 65,
      "hit": false,
      "t": 103880.55199999976,
      "d": 671.6414999999979,
      "v": 117
    },
    {
      "midi": 34,
      "hit": false,
      "t": 103880.55199999976,
      "d": 1343.2829999999958,
      "v": 127
    },
    {
      "midi": 58,
      "hit": false,
      "t": 103880.55199999976,
      "d": 1343.2829999999958,
      "v": 127
    },
    {
      "midi": 74,
      "hit": false,
      "t": 103880.55199999987,
      "d": 223.8804999999993,
      "v": 127
    },
    {
      "midi": 41,
      "hit": false,
      "t": 104104.43249999976,
      "d": 895.5219999999972,
      "v": 94
    },
    {
      "midi": 74,
      "hit": false,
      "t": 104328.31299999986,
      "d": 223.8804999999993,
      "v": 127
    },
    {
      "midi": 50,
      "hit": false,
      "t": 104776.07399999976,
      "d": 671.6414999999979,
      "v": 74
    },
    {
      "midi": 62,
      "hit": false,
      "t": 104776.07399999976,
      "d": 671.6414999999979,
      "v": 127
    },
    {
      "midi": 65,
      "hit": false,
      "t": 104776.07399999976,
      "d": 671.6414999999979,
      "v": 127
    },
    {
      "midi": 72,
      "hit": false,
      "t": 104776.07399999986,
      "d": 223.8804999999993,
      "v": 127
    },
    {
      "midi": 70,
      "hit": false,
      "t": 104999.95449999986,
      "d": 223.8804999999993,
      "v": 127
    },
    {
      "midi": 41,
      "hit": false,
      "t": 105223.83499999976,
      "d": 223.8804999999993,
      "v": 97
    },
    {
      "midi": 72,
      "hit": false,
      "t": 105447.71549999986,
      "d": 1119.4024999999965,
      "v": 127
    },
    {
      "midi": 33,
      "hit": false,
      "t": 105652.93929166664,
      "d": 107.27607291666209,
      "v": 104
    },
    {
      "midi": 65,
      "hit": false,
      "t": 105671.59599999977,
      "d": 671.6414999999979,
      "v": 127
    },
    {
      "midi": 69,
      "hit": false,
      "t": 105671.59599999977,
      "d": 671.6414999999979,
      "v": 127
    },
    {
      "midi": 60,
      "hit": false,
      "t": 105671.59599999977,
      "d": 895.5219999999972,
      "v": 127
    },
    {
      "midi": 36,
      "hit": false,
      "t": 105671.59599999977,
      "d": 1791.0439999999944,
      "v": 117
    },
    {
      "midi": 43,
      "hit": false,
      "t": 105895.47649999977,
      "d": 895.5219999999972,
      "v": 48
    },
    {
      "midi": 51,
      "hit": false,
      "t": 106567.11799999977,
      "d": 671.6414999999979,
      "v": 112
    },
    {
      "midi": 60,
      "hit": false,
      "t": 106567.11799999977,
      "d": 671.6414999999979,
      "v": 97
    },
    {
      "midi": 65,
      "hit": false,
      "t": 106567.11799999977,
      "d": 671.6414999999979,
      "v": 127
    },
    {
      "midi": 69,
      "hit": false,
      "t": 106567.11799999977,
      "d": 895.5219999999972,
      "v": 110
    },
    {
      "midi": 72,
      "hit": false,
      "t": 106790.99849999986,
      "d": 223.8804999999993,
      "v": 127
    },
    {
      "midi": 43,
      "hit": false,
      "t": 107014.87899999977,
      "d": 447.7609999999986,
      "v": 123
    },
    {
      "midi": 72,
      "hit": false,
      "t": 107014.87899999986,
      "d": 223.8804999999993,
      "v": 127
    },
    {
      "midi": 74,
      "hit": false,
      "t": 107238.75949999985,
      "d": 223.8804999999993,
      "v": 127
    },
    {
      "midi": 60,
      "hit": false,
      "t": 107462.63999999977,
      "d": 447.7609999999986,
      "v": 127
    },
    {
      "midi": 36,
      "hit": false,
      "t": 107462.63999999977,
      "d": 1567.163499999995,
      "v": 127
    },
    {
      "midi": 75,
      "hit": false,
      "t": 107462.63999999985,
      "d": 223.88049999998475,
      "v": 127
    },
    {
      "midi": 43,
      "hit": false,
      "t": 107686.52049999977,
      "d": 895.5219999999972,
      "v": 28
    },
    {
      "midi": 63,
      "hit": false,
      "t": 107910.40099999977,
      "d": 223.8804999999993,
      "v": 79
    },
    {
      "midi": 67,
      "hit": false,
      "t": 107910.40099999977,
      "d": 223.8804999999993,
      "v": 33
    },
    {
      "midi": 75,
      "hit": false,
      "t": 107910.40099999984,
      "d": 223.8804999999993,
      "v": 127
    },
    {
      "midi": 51,
      "hit": false,
      "t": 108358.16199999976,
      "d": 671.6414999999979,
      "v": 97
    },
    {
      "midi": 63,
      "hit": false,
      "t": 108358.16199999976,
      "d": 671.6414999999979,
      "v": 127
    },
    {
      "midi": 60,
      "hit": false,
      "t": 108358.16199999976,
      "d": 895.5219999999827,
      "v": 117
    },
    {
      "midi": 67,
      "hit": false,
      "t": 108358.16199999976,
      "d": 895.5219999999827,
      "v": 127
    },
    {
      "midi": 75,
      "hit": false,
      "t": 108358.16199999984,
      "d": 223.8804999999993,
      "v": 127
    },
    {
      "midi": 72,
      "hit": false,
      "t": 108582.04249999984,
      "d": 223.8804999999993,
      "v": 127
    },
    {
      "midi": 43,
      "hit": false,
      "t": 108805.92299999976,
      "d": 447.76099999998405,
      "v": 94
    },
    {
      "midi": 74,
      "hit": false,
      "t": 109029.80349999982,
      "d": 1343.2829999999958,
      "v": 127
    },
    {
      "midi": 33,
      "hit": false,
      "t": 109235.02729166663,
      "d": 107.27607291666209,
      "v": 94
    },
    {
      "midi": 58,
      "hit": false,
      "t": 109253.68399999975,
      "d": 223.8804999999993,
      "v": 94
    },
    {
      "midi": 62,
      "hit": false,
      "t": 109253.68399999975,
      "d": 447.7609999999986,
      "v": 127
    },
    {
      "midi": 34,
      "hit": false,
      "t": 109253.68399999975,
      "d": 1343.2829999999958,
      "v": 74
    },
    {
      "midi": 58,
      "hit": false,
      "t": 109701.44499999975,
      "d": 223.8804999999993,
      "v": 97
    },
    {
      "midi": 45,
      "hit": false,
      "t": 109701.44499999975,
      "d": 1343.2829999999958,
      "v": 43
    },
    {
      "midi": 58,
      "hit": false,
      "t": 110149.20599999974,
      "d": 223.8804999999993,
      "v": 127
    },
    {
      "midi": 62,
      "hit": false,
      "t": 110149.20599999974,
      "d": 447.7609999999986,
      "v": 127
    },
    {
      "midi": 67,
      "hit": false,
      "t": 110149.20599999974,
      "d": 895.5219999999972,
      "v": 127
    },
    {
      "midi": 58,
      "hit": false,
      "t": 110596.96699999974,
      "d": 223.8804999999993,
      "v": 113
    },
    {
      "midi": 74,
      "hit": false,
      "t": 110596.96699999982,
      "d": 223.8804999999993,
      "v": 127
    },
    {
      "midi": 75,
      "hit": false,
      "t": 110820.84749999981,
      "d": 223.88049999998475,
      "v": 127
    },
    {
      "midi": 58,
      "hit": false,
      "t": 111044.72799999974,
      "d": 671.6414999999979,
      "v": 99
    },
    {
      "midi": 63,
      "hit": false,
      "t": 111044.72799999974,
      "d": 671.6414999999979,
      "v": 127
    },
    {
      "midi": 67,
      "hit": false,
      "t": 111044.72799999974,
      "d": 671.6414999999979,
      "v": 118
    },
    {
      "midi": 39,
      "hit": false,
      "t": 111044.72799999974,
      "d": 1567.163499999995,
      "v": 92
    },
    {
      "midi": 77,
      "hit": false,
      "t": 111044.7279999998,
      "d": 223.88050000001385,
      "v": 127
    },
    {
      "midi": 46,
      "hit": false,
      "t": 111492.48899999974,
      "d": 671.6414999999979,
      "v": 66
    },
    {
      "midi": 77,
      "hit": false,
      "t": 111492.48899999981,
      "d": 223.8804999999993,
      "v": 127
    },
    {
      "midi": 55,
      "hit": false,
      "t": 111940.24999999974,
      "d": 447.7609999999986,
      "v": 46
    },
    {
      "midi": 58,
      "hit": false,
      "t": 111940.24999999974,
      "d": 671.6414999999979,
      "v": 105
    },
    {
      "midi": 63,
      "hit": false,
      "t": 111940.24999999974,
      "d": 671.6414999999979,
      "v": 127
    },
    {
      "midi": 67,
      "hit": false,
      "t": 111940.24999999974,
      "d": 671.6414999999979,
      "v": 110
    },
    {
      "midi": 75,
      "hit": false,
      "t": 111940.24999999981,
      "d": 223.8804999999993,
      "v": 127
    },
    {
      "midi": 74,
      "hit": false,
      "t": 112164.13049999981,
      "d": 223.8804999999993,
      "v": 127
    },
    {
      "midi": 46,
      "hit": false,
      "t": 112388.01099999974,
      "d": 223.8804999999993,
      "v": 30
    },
    {
      "midi": 60,
      "hit": false,
      "t": 112611.89149999974,
      "d": 671.6414999999979,
      "v": 92
    },
    {
      "midi": 79,
      "hit": false,
      "t": 112611.89149999981,
      "d": 671.6414999999834,
      "v": 127
    },
    {
      "midi": 33,
      "hit": false,
      "t": 112817.11529166662,
      "d": 107.27607291666209,
      "v": 104
    },
    {
      "midi": 63,
      "hit": false,
      "t": 112835.77199999974,
      "d": 671.6414999999979,
      "v": 115
    },
    {
      "midi": 67,
      "hit": false,
      "t": 112835.77199999974,
      "d": 671.6414999999979,
      "v": 118
    },
    {
      "midi": 36,
      "hit": false,
      "t": 112835.77199999974,
      "d": 1343.2829999999958,
      "v": 77
    },
    {
      "midi": 60,
      "hit": false,
      "t": 113283.53299999973,
      "d": 671.6414999999979,
      "v": 79
    },
    {
      "midi": 43,
      "hit": false,
      "t": 113283.53299999973,
      "d": 1119.4024999999965,
      "v": 92
    },
    {
      "midi": 77,
      "hit": false,
      "t": 113507.41349999979,
      "d": 223.8804999999993,
      "v": 127
    },
    {
      "midi": 63,
      "hit": false,
      "t": 113731.29399999973,
      "d": 447.7609999999986,
      "v": 127
    },
    {
      "midi": 51,
      "hit": false,
      "t": 113731.29399999973,
      "d": 671.6414999999979,
      "v": 66
    },
    {
      "midi": 67,
      "hit": false,
      "t": 113731.29399999973,
      "d": 671.6414999999979,
      "v": 115
    },
    {
      "midi": 75,
      "hit": false,
      "t": 113731.29399999979,
      "d": 447.7609999999986,
      "v": 127
    },
    {
      "midi": 74,
      "hit": false,
      "t": 113955.17449999979,
      "d": 671.6414999999979,
      "v": 127
    },
    {
      "midi": 60,
      "hit": false,
      "t": 114179.05499999973,
      "d": 223.8804999999993,
      "v": 61
    },
    {
      "midi": 63,
      "hit": false,
      "t": 114179.05499999973,
      "d": 223.8804999999993,
      "v": 20
    },
    {
      "midi": 63,
      "hit": false,
      "t": 114626.81599999973,
      "d": 671.6414999999979,
      "v": 127
    },
    {
      "midi": 67,
      "hit": false,
      "t": 114626.81599999973,
      "d": 671.6414999999979,
      "v": 125
    },
    {
      "midi": 58,
      "hit": false,
      "t": 114626.81599999973,
      "d": 895.5219999999972,
      "v": 105
    },
    {
      "midi": 39,
      "hit": false,
      "t": 114626.81599999973,
      "d": 1791.0439999999944,
      "v": 94
    },
    {
      "midi": 70,
      "hit": false,
      "t": 114626.81599999979,
      "d": 2686.566000000006,
      "v": 127
    },
    {
      "midi": 46,
      "hit": false,
      "t": 114850.69649999973,
      "d": 895.5219999999972,
      "v": 68
    },
    {
      "midi": 63,
      "hit": false,
      "t": 115522.33799999973,
      "d": 223.8804999999993,
      "v": 127
    },
    {
      "midi": 53,
      "hit": false,
      "t": 115522.33799999973,
      "d": 447.7609999999986,
      "v": 66
    },
    {
      "midi": 58,
      "hit": false,
      "t": 115522.33799999973,
      "d": 447.7609999999986,
      "v": 106
    },
    {
      "midi": 67,
      "hit": false,
      "t": 115522.33799999973,
      "d": 671.6414999999979,
      "v": 125
    },
    {
      "midi": 46,
      "hit": false,
      "t": 115970.09899999973,
      "d": 223.8804999999993,
      "v": 68
    },
    {
      "midi": 62,
      "hit": false,
      "t": 115970.09899999973,
      "d": 223.8804999999993,
      "v": 92
    },
    {
      "midi": 62,
      "hit": false,
      "t": 116417.85999999972,
      "d": 671.6414999999979,
      "v": 127
    },
    {
      "midi": 65,
      "hit": false,
      "t": 116417.85999999972,
      "d": 671.6414999999979,
      "v": 127
    },
    {
      "midi": 57,
      "hit": false,
      "t": 116417.85999999972,
      "d": 895.5219999999972,
      "v": 94
    },
    {
      "midi": 38,
      "hit": false,
      "t": 116417.85999999972,
      "d": 1343.2829999999958,
      "v": 81
    },
    {
      "midi": 45,
      "hit": false,
      "t": 116641.74049999972,
      "d": 895.5219999999972,
      "v": 110
    },
    {
      "midi": 57,
      "hit": false,
      "t": 117313.38199999972,
      "d": 447.7609999999986,
      "v": 125
    },
    {
      "midi": 53,
      "hit": false,
      "t": 117313.38199999972,
      "d": 671.6414999999979,
      "v": 110
    },
    {
      "midi": 62,
      "hit": false,
      "t": 117313.38199999972,
      "d": 671.6414999999979,
      "v": 127
    },
    {
      "midi": 65,
      "hit": false,
      "t": 117313.38199999972,
      "d": 671.6414999999979,
      "v": 125
    },
    {
      "midi": 69,
      "hit": false,
      "t": 117313.3819999998,
      "d": 895.5219999999972,
      "v": 127
    },
    {
      "midi": 45,
      "hit": false,
      "t": 117537.26249999972,
      "d": 223.8804999999993,
      "v": 26
    },
    {
      "midi": 62,
      "hit": false,
      "t": 118208.90399999972,
      "d": 671.6414999999979,
      "v": 127
    },
    {
      "midi": 67,
      "hit": false,
      "t": 118208.90399999972,
      "d": 671.6414999999979,
      "v": 127
    },
    {
      "midi": 58,
      "hit": false,
      "t": 118208.90399999972,
      "d": 895.5219999999972,
      "v": 77
    },
    {
      "midi": 43,
      "hit": false,
      "t": 118208.90399999972,
      "d": 1567.163499999995,
      "v": 127
    },
    {
      "midi": 67,
      "hit": false,
      "t": 118208.90399999979,
      "d": 895.5219999999972,
      "v": 127
    },
    {
      "midi": 50,
      "hit": false,
      "t": 118656.66499999972,
      "d": 671.6414999999979,
      "v": 86
    },
    {
      "midi": 58,
      "hit": false,
      "t": 119104.42599999972,
      "d": 671.6414999999979,
      "v": 127
    },
    {
      "midi": 62,
      "hit": false,
      "t": 119104.42599999972,
      "d": 671.6414999999979,
      "v": 127
    },
    {
      "midi": 67,
      "hit": false,
      "t": 119104.42599999972,
      "d": 895.5220000000118,
      "v": 118
    },
    {
      "midi": 70,
      "hit": false,
      "t": 119104.42599999979,
      "d": 447.7609999999986,
      "v": 127
    },
    {
      "midi": 50,
      "hit": false,
      "t": 119552.18699999971,
      "d": 223.8804999999993,
      "v": 125
    },
    {
      "midi": 69,
      "hit": false,
      "t": 119552.18699999979,
      "d": 447.7609999999986,
      "v": 127
    },
    {
      "midi": 47,
      "hit": false,
      "t": 119776.06749999971,
      "d": 223.88050000001385,
      "v": 52
    },
    {
      "midi": 58,
      "hit": false,
      "t": 119999.94799999973,
      "d": 671.6414999999979,
      "v": 115
    },
    {
      "midi": 63,
      "hit": false,
      "t": 119999.94799999973,
      "d": 671.6414999999979,
      "v": 118
    },
    {
      "midi": 67,
      "hit": false,
      "t": 119999.94799999973,
      "d": 671.6414999999979,
      "v": 127
    },
    {
      "midi": 39,
      "hit": false,
      "t": 119999.94799999973,
      "d": 1343.2829999999958,
      "v": 127
    },
    {
      "midi": 70,
      "hit": false,
      "t": 119999.94799999979,
      "d": 1119.4024999999965,
      "v": 127
    },
    {
      "midi": 46,
      "hit": false,
      "t": 120447.70899999973,
      "d": 671.6414999999979,
      "v": 89
    },
    {
      "midi": 58,
      "hit": false,
      "t": 120895.46999999972,
      "d": 447.7609999999986,
      "v": 127
    },
    {
      "midi": 63,
      "hit": false,
      "t": 120895.46999999972,
      "d": 671.6414999999979,
      "v": 110
    },
    {
      "midi": 55,
      "hit": false,
      "t": 120895.46999999972,
      "d": 895.5220000000118,
      "v": 79
    },
    {
      "midi": 67,
      "hit": false,
      "t": 120895.46999999972,
      "d": 895.5220000000118,
      "v": 118
    },
    {
      "midi": 46,
      "hit": false,
      "t": 121343.23099999972,
      "d": 447.76100000001315,
      "v": 106
    },
    {
      "midi": 70,
      "hit": false,
      "t": 121343.23099999978,
      "d": 223.8804999999993,
      "v": 127
    },
    {
      "midi": 72,
      "hit": false,
      "t": 121567.11149999978,
      "d": 223.8804999999993,
      "v": 127
    },
    {
      "midi": 65,
      "hit": false,
      "t": 121790.99199999974,
      "d": 671.6415000000125,
      "v": 127
    },
    {
      "midi": 69,
      "hit": false,
      "t": 121790.99199999974,
      "d": 671.6415000000125,
      "v": 127
    },
    {
      "midi": 60,
      "hit": false,
      "t": 121790.99199999974,
      "d": 895.5220000000118,
      "v": 99
    },
    {
      "midi": 41,
      "hit": false,
      "t": 121790.99199999974,
      "d": 1791.044000000009,
      "v": 99
    },
    {
      "midi": 69,
      "hit": false,
      "t": 121790.99199999978,
      "d": 223.8804999999993,
      "v": 127
    },
    {
      "midi": 67,
      "hit": false,
      "t": 122014.87249999978,
      "d": 223.8804999999993,
      "v": 127
    },
    {
      "midi": 48,
      "hit": false,
      "t": 122238.75299999975,
      "d": 671.6414999999979,
      "v": 125
    },
    {
      "midi": 65,
      "hit": false,
      "t": 122238.75299999978,
      "d": 2910.4465000000055,
      "v": 127
    },
    {
      "midi": 57,
      "hit": false,
      "t": 122686.51399999975,
      "d": 223.8804999999993,
      "v": 79
    },
    {
      "midi": 65,
      "hit": false,
      "t": 122686.51399999975,
      "d": 447.7609999999986,
      "v": 127
    },
    {
      "midi": 60,
      "hit": false,
      "t": 122686.51399999975,
      "d": 671.6414999999979,
      "v": 115
    },
    {
      "midi": 69,
      "hit": false,
      "t": 122686.51399999975,
      "d": 671.6414999999979,
      "v": 97
    },
    {
      "midi": 48,
      "hit": false,
      "t": 123134.27499999975,
      "d": 223.8804999999993,
      "v": 127
    },
    {
      "midi": 57,
      "hit": false,
      "t": 123358.15549999975,
      "d": 223.8804999999993,
      "v": 127
    },
    {
      "midi": 62,
      "hit": false,
      "t": 123358.15549999975,
      "d": 223.8804999999993,
      "v": 55
    },
    {
      "midi": 62,
      "hit": false,
      "t": 123582.03599999975,
      "d": 447.7609999999986,
      "v": 127
    },
    {
      "midi": 38,
      "hit": false,
      "t": 123582.03599999975,
      "d": 1567.163499999995,
      "v": 127
    },
    {
      "midi": 65,
      "hit": false,
      "t": 123582.03599999975,
      "d": 1567.163499999995,
      "v": 125
    },
    {
      "midi": 57,
      "hit": false,
      "t": 124029.79699999974,
      "d": 223.8804999999993,
      "v": 99
    },
    {
      "midi": 45,
      "hit": false,
      "t": 124029.79699999974,
      "d": 671.6414999999979,
      "v": 92
    },
    {
      "midi": 53,
      "hit": false,
      "t": 124253.67749999974,
      "d": 895.5219999999972,
      "v": 62
    },
    {
      "midi": 57,
      "hit": false,
      "t": 124477.55799999974,
      "d": 447.7609999999986,
      "v": 127
    },
    {
      "midi": 62,
      "hit": false,
      "t": 124477.55799999974,
      "d": 671.6414999999979,
      "v": 20
    },
    {
      "midi": 45,
      "hit": false,
      "t": 124925.31899999974,
      "d": 223.8804999999993,
      "v": 127
    },
    {
      "midi": 64,
      "hit": false,
      "t": 125149.19949999974,
      "d": 223.8804999999993,
      "v": 18
    },
    {
      "midi": 62,
      "hit": false,
      "t": 125373.07999999974,
      "d": 671.6414999999979,
      "v": 127
    },
    {
      "midi": 67,
      "hit": false,
      "t": 125373.07999999974,
      "d": 671.6414999999979,
      "v": 127
    },
    {
      "midi": 58,
      "hit": false,
      "t": 125373.07999999974,
      "d": 895.5219999999972,
      "v": 106
    },
    {
      "midi": 39,
      "hit": false,
      "t": 125373.07999999974,
      "d": 1791.0439999999944,
      "v": 16
    },
    {
      "midi": 67,
      "hit": false,
      "t": 125373.07999999977,
      "d": 895.5219999999972,
      "v": 127
    },
    {
      "midi": 46,
      "hit": false,
      "t": 125820.84099999974,
      "d": 223.8804999999993,
      "v": 99
    },
    {
      "midi": 46,
      "hit": false,
      "t": 126268.60199999974,
      "d": 223.8804999999993,
      "v": 77
    },
    {
      "midi": 55,
      "hit": false,
      "t": 126268.60199999974,
      "d": 447.7609999999986,
      "v": 92
    },
    {
      "midi": 58,
      "hit": false,
      "t": 126268.60199999974,
      "d": 447.7609999999986,
      "v": 103
    },
    {
      "midi": 62,
      "hit": false,
      "t": 126268.60199999974,
      "d": 671.6414999999979,
      "v": 127
    },
    {
      "midi": 67,
      "hit": false,
      "t": 126268.60199999974,
      "d": 895.5219999999972,
      "v": 118
    },
    {
      "midi": 70,
      "hit": false,
      "t": 126268.60199999977,
      "d": 223.8804999999993,
      "v": 127
    },
    {
      "midi": 46,
      "hit": false,
      "t": 126716.36299999974,
      "d": 223.8804999999993,
      "v": 115
    },
    {
      "midi": 69,
      "hit": false,
      "t": 126716.36299999976,
      "d": 447.76100000001315,
      "v": 127
    },
    {
      "midi": 44,
      "hit": false,
      "t": 126940.24349999973,
      "d": 223.8804999999993,
      "v": 42
    },
    {
      "midi": 60,
      "hit": false,
      "t": 127164.12399999973,
      "d": 671.6414999999979,
      "v": 92
    },
    {
      "midi": 63,
      "hit": false,
      "t": 127164.12399999973,
      "d": 671.6414999999979,
      "v": 127
    },
    {
      "midi": 67,
      "hit": false,
      "t": 127164.12399999973,
      "d": 671.6414999999979,
      "v": 127
    },
    {
      "midi": 36,
      "hit": false,
      "t": 127164.12399999973,
      "d": 1567.163499999995,
      "v": 127
    },
    {
      "midi": 70,
      "hit": false,
      "t": 127164.12399999978,
      "d": 1343.2829999999958,
      "v": 127
    },
    {
      "midi": 43,
      "hit": false,
      "t": 127611.88499999973,
      "d": 671.6414999999979,
      "v": 86
    },
    {
      "midi": 51,
      "hit": false,
      "t": 128059.64599999973,
      "d": 671.6414999999979,
      "v": 86
    },
    {
      "midi": 60,
      "hit": false,
      "t": 128059.64599999973,
      "d": 671.6414999999979,
      "v": 118
    },
    {
      "midi": 63,
      "hit": false,
      "t": 128059.64599999973,
      "d": 671.6414999999979,
      "v": 127
    },
    {
      "midi": 67,
      "hit": false,
      "t": 128059.64599999973,
      "d": 895.5219999999972,
      "v": 94
    },
    {
      "midi": 43,
      "hit": false,
      "t": 128507.40699999973,
      "d": 447.7609999999986,
      "v": 97
    },
    {
      "midi": 72,
      "hit": false,
      "t": 128507.40699999977,
      "d": 447.7609999999986,
      "v": 127
    },
    {
      "midi": 38,
      "hit": false,
      "t": 128955.16799999973,
      "d": 1343.2829999999958,
      "v": 105
    },
    {
      "midi": 62,
      "hit": false,
      "t": 128955.16799999973,
      "d": 1567.163499999995,
      "v": 127
    },
    {
      "midi": 65,
      "hit": false,
      "t": 128955.16799999973,
      "d": 1567.163499999995,
      "v": 127
    },
    {
      "midi": 69,
      "hit": false,
      "t": 128955.16799999973,
      "d": 1567.163499999995,
      "v": 127
    },
    {
      "midi": 69,
      "hit": false,
      "t": 128955.16799999977,
      "d": 895.5220000000118,
      "v": 127
    },
    {
      "midi": 45,
      "hit": false,
      "t": 129402.92899999973,
      "d": 671.6414999999979,
      "v": 105
    },
    {
      "midi": 53,
      "hit": false,
      "t": 129850.68999999973,
      "d": 447.7609999999986,
      "v": 105
    },
    {
      "midi": 77,
      "hit": false,
      "t": 129850.68999999978,
      "d": 671.6414999999979,
      "v": 127
    },
    {
      "midi": 45,
      "hit": false,
      "t": 130298.45099999972,
      "d": 223.8804999999993,
      "v": 92
    },
    {
      "midi": 62,
      "hit": false,
      "t": 130522.33149999972,
      "d": 1343.2830000000104,
      "v": 105
    },
    {
      "midi": 65,
      "hit": false,
      "t": 130746.21199999972,
      "d": 1119.402500000011,
      "v": 106
    },
    {
      "midi": 69,
      "hit": false,
      "t": 130746.21199999972,
      "d": 1343.2830000000104,
      "v": 118
    },
    {
      "midi": 38,
      "hit": false,
      "t": 130746.21199999972,
      "d": 3358.207500000033,
      "v": 103
    },
    {
      "midi": 77,
      "hit": false,
      "t": 130746.21199999978,
      "d": 3582.0880000000034,
      "v": 127
    },
    {
      "midi": 45,
      "hit": false,
      "t": 131865.61449999973,
      "d": 447.7609999999986,
      "v": 20
    },
    {
      "midi": 69,
      "hit": false,
      "t": 132313.37549999973,
      "d": 223.8804999999993,
      "v": 103
    },
    {
      "midi": 45,
      "hit": false,
      "t": 132537.25599999973,
      "d": 447.7609999999986,
      "v": 16
    },
    {
      "midi": 69,
      "hit": false,
      "t": 132537.25599999973,
      "d": 671.6414999999979,
      "v": 103
    },
    {
      "midi": 74,
      "hit": false,
      "t": 132537.25599999973,
      "d": 671.6414999999979,
      "v": 127
    },
    {
      "midi": 51,
      "hit": false,
      "t": 132537.25599999973,
      "d": 1781.7156458333775,
      "v": 106
    },
    {
      "midi": 45,
      "hit": false,
      "t": 133208.89749999973,
      "d": 895.5220000000263,
      "v": 55
    },
    {
      "midi": 69,
      "hit": false,
      "t": 133432.77799999973,
      "d": 671.641500000027,
      "v": 127
    },
    {
      "midi": 72,
      "hit": false,
      "t": 133432.77799999973,
      "d": 671.641500000027,
      "v": 127
    },
    {
      "midi": 58,
      "hit": false,
      "t": 134328.29999999978,
      "d": 447.7609999999986,
      "v": 81
    },
    {
      "midi": 62,
      "hit": false,
      "t": 134328.29999999978,
      "d": 447.7609999999986,
      "v": 118
    },
    {
      "midi": 67,
      "hit": false,
      "t": 134328.29999999978,
      "d": 447.7609999999986,
      "v": 127
    },
    {
      "midi": 43,
      "hit": false,
      "t": 134328.29999999978,
      "d": 1567.163499999995,
      "v": 106
    },
    {
      "midi": 58,
      "hit": false,
      "t": 134776.06099999978,
      "d": 671.6414999999979,
      "v": 79
    },
    {
      "midi": 50,
      "hit": false,
      "t": 134776.06099999978,
      "d": 1119.4024999999965,
      "v": 39
    },
    {
      "midi": 62,
      "hit": false,
      "t": 134999.94149999978,
      "d": 223.8804999999993,
      "v": 127
    },
    {
      "midi": 62,
      "hit": false,
      "t": 135223.82199999978,
      "d": 447.7609999999986,
      "v": 127
    },
    {
      "midi": 67,
      "hit": false,
      "t": 135223.82199999978,
      "d": 447.7609999999986,
      "v": 106
    },
    {
      "midi": 67,
      "hit": false,
      "t": 135223.82199999978,
      "d": 223.8804999999993,
      "v": 127
    },
    {
      "midi": 58,
      "hit": false,
      "t": 135671.58299999978,
      "d": 223.8804999999993,
      "v": 127
    },
    {
      "midi": 69,
      "hit": false,
      "t": 135671.58299999978,
      "d": 223.8804999999702,
      "v": 127
    },
    {
      "midi": 70,
      "hit": false,
      "t": 135895.46349999975,
      "d": 1567.163499999995,
      "v": 127
    },
    {
      "midi": 58,
      "hit": false,
      "t": 136119.34399999978,
      "d": 223.8804999999993,
      "v": 99
    },
    {
      "midi": 69,
      "hit": false,
      "t": 136119.34399999978,
      "d": 223.8804999999993,
      "v": 94
    },
    {
      "midi": 63,
      "hit": false,
      "t": 136119.34399999978,
      "d": 447.7609999999986,
      "v": 55
    },
    {
      "midi": 67,
      "hit": false,
      "t": 136119.34399999978,
      "d": 447.7609999999986,
      "v": 99
    },
    {
      "midi": 39,
      "hit": false,
      "t": 136119.34399999978,
      "d": 1567.163499999995,
      "v": 53
    },
    {
      "midi": 46,
      "hit": false,
      "t": 136567.10499999978,
      "d": 671.6414999999979,
      "v": 79
    },
    {
      "midi": 58,
      "hit": false,
      "t": 136567.10499999978,
      "d": 671.6414999999979,
      "v": 106
    },
    {
      "midi": 63,
      "hit": false,
      "t": 137014.86599999978,
      "d": 447.7609999999986,
      "v": 110
    },
    {
      "midi": 55,
      "hit": false,
      "t": 137014.86599999978,
      "d": 895.5219999999972,
      "v": 77
    },
    {
      "midi": 67,
      "hit": false,
      "t": 137014.86599999978,
      "d": 895.5219999999972,
      "v": 118
    },
    {
      "midi": 58,
      "hit": false,
      "t": 137462.62699999977,
      "d": 223.8804999999993,
      "v": 115
    },
    {
      "midi": 46,
      "hit": false,
      "t": 137462.62699999977,
      "d": 447.7609999999986,
      "v": 89
    },
    {
      "midi": 72,
      "hit": false,
      "t": 137686.50749999975,
      "d": 223.8804999999993,
      "v": 127
    },
    {
      "midi": 60,
      "hit": false,
      "t": 137686.50749999977,
      "d": 447.7609999999986,
      "v": 92
    },
    {
      "midi": 69,
      "hit": false,
      "t": 137910.38799999974,
      "d": 223.8804999999993,
      "v": 127
    },
    {
      "midi": 65,
      "hit": false,
      "t": 137910.38799999977,
      "d": 447.7609999999986,
      "v": 118
    },
    {
      "midi": 69,
      "hit": false,
      "t": 137910.38799999977,
      "d": 447.7609999999986,
      "v": 127
    },
    {
      "midi": 41,
      "hit": false,
      "t": 137910.38799999977,
      "d": 1567.163499999995,
      "v": 105
    },
    {
      "midi": 67,
      "hit": false,
      "t": 138358.14899999974,
      "d": 223.8804999999993,
      "v": 127
    },
    {
      "midi": 48,
      "hit": false,
      "t": 138358.14899999977,
      "d": 671.6414999999979,
      "v": 42
    },
    {
      "midi": 60,
      "hit": false,
      "t": 138358.14899999977,
      "d": 671.6414999999979,
      "v": 94
    },
    {
      "midi": 65,
      "hit": false,
      "t": 138805.90999999974,
      "d": 223.8804999999993,
      "v": 127
    },
    {
      "midi": 57,
      "hit": false,
      "t": 138805.90999999977,
      "d": 223.8804999999993,
      "v": 79
    },
    {
      "midi": 65,
      "hit": false,
      "t": 138805.90999999977,
      "d": 447.7609999999986,
      "v": 127
    },
    {
      "midi": 69,
      "hit": false,
      "t": 138805.90999999977,
      "d": 895.5219999999972,
      "v": 125
    },
    {
      "midi": 67,
      "hit": false,
      "t": 139029.79049999974,
      "d": 447.7609999999986,
      "v": 108
    },
    {
      "midi": 48,
      "hit": false,
      "t": 139253.67099999977,
      "d": 223.8804999999993,
      "v": 97
    },
    {
      "midi": 60,
      "hit": false,
      "t": 139253.67099999977,
      "d": 223.8804999999993,
      "v": 105
    },
    {
      "midi": 62,
      "hit": false,
      "t": 139477.55149999974,
      "d": 2238.804999999993,
      "v": 127
    },
    {
      "midi": 62,
      "hit": false,
      "t": 139701.43199999977,
      "d": 223.8804999999993,
      "v": 118
    },
    {
      "midi": 65,
      "hit": false,
      "t": 139701.43199999977,
      "d": 447.7609999999986,
      "v": 94
    },
    {
      "midi": 70,
      "hit": false,
      "t": 139701.43199999977,
      "d": 447.7609999999986,
      "v": 99
    },
    {
      "midi": 34,
      "hit": false,
      "t": 139701.43199999977,
      "d": 1343.2829999999958,
      "v": 115
    },
    {
      "midi": 62,
      "hit": false,
      "t": 140149.19299999977,
      "d": 671.6414999999979,
      "v": 63
    },
    {
      "midi": 41,
      "hit": false,
      "t": 140149.19299999977,
      "d": 895.5219999999972,
      "v": 61
    },
    {
      "midi": 65,
      "hit": false,
      "t": 140596.95399999977,
      "d": 223.8804999999993,
      "v": 127
    },
    {
      "midi": 70,
      "hit": false,
      "t": 140596.95399999977,
      "d": 223.8804999999993,
      "v": 115
    },
    {
      "midi": 50,
      "hit": false,
      "t": 140596.95399999977,
      "d": 895.5219999999972,
      "v": 34
    },
    {
      "midi": 62,
      "hit": false,
      "t": 141044.71499999976,
      "d": 223.8804999999993,
      "v": 103
    },
    {
      "midi": 69,
      "hit": false,
      "t": 141044.71499999976,
      "d": 223.8804999999993,
      "v": 127
    },
    {
      "midi": 65,
      "hit": false,
      "t": 141044.71499999976,
      "d": 447.7609999999986,
      "v": 127
    },
    {
      "midi": 62,
      "hit": false,
      "t": 141492.47599999976,
      "d": 223.8804999999993,
      "v": 61
    },
    {
      "midi": 69,
      "hit": false,
      "t": 141492.47599999976,
      "d": 223.8804999999993,
      "v": 92
    },
    {
      "midi": 43,
      "hit": false,
      "t": 141492.47599999976,
      "d": 1567.163499999995,
      "v": 97
    },
    {
      "midi": 67,
      "hit": false,
      "t": 141492.47599999976,
      "d": 1567.163499999995,
      "v": 127
    },
    {
      "midi": 62,
      "hit": false,
      "t": 141716.35649999976,
      "d": 447.7609999999986,
      "v": 92
    },
    {
      "midi": 50,
      "hit": false,
      "t": 141940.23699999976,
      "d": 671.6414999999979,
      "v": 73
    },
    {
      "midi": 62,
      "hit": false,
      "t": 142164.11749999973,
      "d": 223.8804999999993,
      "v": 127
    },
    {
      "midi": 67,
      "hit": false,
      "t": 142387.99799999973,
      "d": 223.8804999999993,
      "v": 127
    },
    {
      "midi": 58,
      "hit": false,
      "t": 142387.99799999976,
      "d": 223.8804999999993,
      "v": 81
    },
    {
      "midi": 55,
      "hit": false,
      "t": 142387.99799999976,
      "d": 447.7609999999986,
      "v": 62
    },
    {
      "midi": 62,
      "hit": false,
      "t": 142387.99799999976,
      "d": 447.7609999999986,
      "v": 127
    },
    {
      "midi": 69,
      "hit": false,
      "t": 142835.75899999973,
      "d": 223.8804999999993,
      "v": 127
    },
    {
      "midi": 50,
      "hit": false,
      "t": 142835.75899999976,
      "d": 223.8804999999993,
      "v": 94
    },
    {
      "midi": 58,
      "hit": false,
      "t": 142835.75899999976,
      "d": 223.8804999999993,
      "v": 115
    },
    {
      "midi": 70,
      "hit": false,
      "t": 143059.63949999973,
      "d": 1567.163499999966,
      "v": 127
    },
    {
      "midi": 47,
      "hit": false,
      "t": 143059.63949999976,
      "d": 223.8804999999993,
      "v": 53
    },
    {
      "midi": 58,
      "hit": false,
      "t": 143059.63949999976,
      "d": 447.7609999999986,
      "v": 110
    },
    {
      "midi": 63,
      "hit": false,
      "t": 143283.51999999976,
      "d": 447.7609999999986,
      "v": 106
    },
    {
      "midi": 67,
      "hit": false,
      "t": 143283.51999999976,
      "d": 447.7609999999986,
      "v": 77
    },
    {
      "midi": 39,
      "hit": false,
      "t": 143283.51999999976,
      "d": 1567.163499999995,
      "v": 97
    },
    {
      "midi": 46,
      "hit": false,
      "t": 143731.28099999976,
      "d": 671.6414999999979,
      "v": 55
    },
    {
      "midi": 58,
      "hit": false,
      "t": 143731.28099999976,
      "d": 671.6414999999979,
      "v": 92
    },
    {
      "midi": 55,
      "hit": false,
      "t": 143955.16149999975,
      "d": 1119.4025000000256,
      "v": 68
    },
    {
      "midi": 63,
      "hit": false,
      "t": 144179.04199999975,
      "d": 671.6414999999979,
      "v": 105
    },
    {
      "midi": 67,
      "hit": false,
      "t": 144179.04199999975,
      "d": 671.6414999999979,
      "v": 110
    },
    {
      "midi": 58,
      "hit": false,
      "t": 144626.80299999975,
      "d": 223.8804999999993,
      "v": 55
    },
    {
      "midi": 46,
      "hit": false,
      "t": 144626.80299999975,
      "d": 447.7610000000277,
      "v": 81
    },
    {
      "midi": 72,
      "hit": false,
      "t": 144850.6834999997,
      "d": 223.8804999999993,
      "v": 127
    },
    {
      "midi": 60,
      "hit": false,
      "t": 144850.68349999975,
      "d": 447.7610000000277,
      "v": 99
    },
    {
      "midi": 69,
      "hit": false,
      "t": 145074.5639999997,
      "d": 223.8804999999993,
      "v": 127
    },
    {
      "midi": 65,
      "hit": false,
      "t": 145074.56399999978,
      "d": 447.7609999999986,
      "v": 125
    },
    {
      "midi": 69,
      "hit": false,
      "t": 145074.56399999978,
      "d": 447.7609999999986,
      "v": 127
    },
    {
      "midi": 41,
      "hit": false,
      "t": 145074.56399999978,
      "d": 1343.2829999999958,
      "v": 103
    },
    {
      "midi": 67,
      "hit": false,
      "t": 145522.3249999997,
      "d": 223.8804999999993,
      "v": 127
    },
    {
      "midi": 48,
      "hit": false,
      "t": 145522.32499999978,
      "d": 671.6414999999979,
      "v": 53
    },
    {
      "midi": 60,
      "hit": false,
      "t": 145522.32499999978,
      "d": 1119.4024999999965,
      "v": 86
    },
    {
      "midi": 65,
      "hit": false,
      "t": 145970.0859999997,
      "d": 223.8804999999993,
      "v": 127
    },
    {
      "midi": 57,
      "hit": false,
      "t": 145970.08599999978,
      "d": 223.8804999999993,
      "v": 66
    },
    {
      "midi": 65,
      "hit": false,
      "t": 145970.08599999978,
      "d": 671.6414999999979,
      "v": 127
    },
    {
      "midi": 69,
      "hit": false,
      "t": 145970.08599999978,
      "d": 895.5219999999972,
      "v": 118
    },
    {
      "midi": 72,
      "hit": false,
      "t": 146193.9664999997,
      "d": 223.8804999999993,
      "v": 127
    },
    {
      "midi": 48,
      "hit": false,
      "t": 146417.84699999978,
      "d": 223.8804999999993,
      "v": 77
    },
    {
      "midi": 57,
      "hit": false,
      "t": 146417.84699999978,
      "d": 447.7609999999986,
      "v": 79
    },
    {
      "midi": 74,
      "hit": false,
      "t": 146641.7274999997,
      "d": 1343.283000000025,
      "v": 127
    },
    {
      "midi": 48,
      "hit": false,
      "t": 146865.60799999977,
      "d": 223.8804999999993,
      "v": 97
    },
    {
      "midi": 62,
      "hit": false,
      "t": 146865.60799999977,
      "d": 223.8804999999993,
      "v": 118
    },
    {
      "midi": 65,
      "hit": false,
      "t": 146865.60799999977,
      "d": 671.6414999999979,
      "v": 127
    },
    {
      "midi": 70,
      "hit": false,
      "t": 146865.60799999977,
      "d": 671.6414999999979,
      "v": 127
    },
    {
      "midi": 46,
      "hit": false,
      "t": 146865.60799999977,
      "d": 1567.163499999995,
      "v": 53
    },
    {
      "midi": 62,
      "hit": false,
      "t": 147537.24949999977,
      "d": 895.5219999999972,
      "v": 99
    },
    {
      "midi": 53,
      "hit": false,
      "t": 147761.12999999977,
      "d": 447.7609999999986,
      "v": 115
    },
    {
      "midi": 65,
      "hit": false,
      "t": 147761.12999999977,
      "d": 447.7609999999986,
      "v": 127
    },
    {
      "midi": 70,
      "hit": false,
      "t": 147761.12999999977,
      "d": 447.7609999999986,
      "v": 115
    },
    {
      "midi": 70,
      "hit": false,
      "t": 148208.8909999997,
      "d": 223.8804999999993,
      "v": 127
    },
    {
      "midi": 53,
      "hit": false,
      "t": 148208.89099999977,
      "d": 223.8804999999993,
      "v": 125
    },
    {
      "midi": 72,
      "hit": false,
      "t": 148432.7714999997,
      "d": 223.8805000000284,
      "v": 127
    },
    {
      "midi": 74,
      "hit": false,
      "t": 148656.65199999974,
      "d": 223.8804999999993,
      "v": 127
    },
    {
      "midi": 58,
      "hit": false,
      "t": 148656.6519999998,
      "d": 223.8804999999993,
      "v": 63
    },
    {
      "midi": 63,
      "hit": false,
      "t": 148656.6519999998,
      "d": 671.6414999999979,
      "v": 127
    },
    {
      "midi": 67,
      "hit": false,
      "t": 148656.6519999998,
      "d": 671.6414999999979,
      "v": 97
    },
    {
      "midi": 39,
      "hit": false,
      "t": 148656.6519999998,
      "d": 1567.163499999995,
      "v": 127
    },
    {
      "midi": 74,
      "hit": false,
      "t": 149104.41299999974,
      "d": 223.8804999999993,
      "v": 127
    },
    {
      "midi": 46,
      "hit": false,
      "t": 149104.4129999998,
      "d": 671.6414999999979,
      "v": 55
    },
    {
      "midi": 58,
      "hit": false,
      "t": 149104.4129999998,
      "d": 1119.4024999999965,
      "v": 94
    },
    {
      "midi": 72,
      "hit": false,
      "t": 149552.17399999974,
      "d": 223.8804999999993,
      "v": 127
    },
    {
      "midi": 63,
      "hit": false,
      "t": 149552.1739999998,
      "d": 671.6414999999979,
      "v": 118
    },
    {
      "midi": 67,
      "hit": false,
      "t": 149552.1739999998,
      "d": 895.5219999999972,
      "v": 127
    },
    {
      "midi": 55,
      "hit": false,
      "t": 149552.1739999998,
      "d": 1119.4024999999965,
      "v": 66
    },
    {
      "midi": 70,
      "hit": false,
      "t": 149776.05449999974,
      "d": 223.8804999999993,
      "v": 127
    },
    {
      "midi": 46,
      "hit": false,
      "t": 149999.9349999998,
      "d": 447.7609999999986,
      "v": 97
    },
    {
      "midi": 72,
      "hit": false,
      "t": 150223.81549999974,
      "d": 1567.1635000000242,
      "v": 127
    },
    {
      "midi": 58,
      "hit": false,
      "t": 150223.8154999998,
      "d": 447.7609999999986,
      "v": 99
    },
    {
      "midi": 65,
      "hit": false,
      "t": 150447.6959999998,
      "d": 447.7609999999986,
      "v": 97
    },
    {
      "midi": 69,
      "hit": false,
      "t": 150447.6959999998,
      "d": 447.7609999999986,
      "v": 115
    },
    {
      "midi": 41,
      "hit": false,
      "t": 150447.6959999998,
      "d": 1567.163499999995,
      "v": 97
    },
    {
      "midi": 48,
      "hit": false,
      "t": 150895.4569999998,
      "d": 447.7609999999986,
      "v": 79
    },
    {
      "midi": 58,
      "hit": false,
      "t": 150895.4569999998,
      "d": 671.6414999999979,
      "v": 99
    },
    {
      "midi": 63,
      "hit": false,
      "t": 151343.2179999998,
      "d": 447.7609999999986,
      "v": 118
    },
    {
      "midi": 48,
      "hit": false,
      "t": 151343.2179999998,
      "d": 671.6414999999979,
      "v": 118
    },
    {
      "midi": 67,
      "hit": false,
      "t": 151343.2179999998,
      "d": 671.6414999999979,
      "v": 88
    },
    {
      "midi": 69,
      "hit": false,
      "t": 151790.97899999976,
      "d": 223.8804999999993,
      "v": 127
    },
    {
      "midi": 58,
      "hit": false,
      "t": 151790.9789999998,
      "d": 223.8804999999993,
      "v": 115
    },
    {
      "midi": 70,
      "hit": false,
      "t": 152014.85949999976,
      "d": 223.8804999999993,
      "v": 127
    },
    {
      "midi": 62,
      "hit": false,
      "t": 152014.8594999998,
      "d": 671.6414999999979,
      "v": 30
    },
    {
      "midi": 72,
      "hit": false,
      "t": 152238.73999999976,
      "d": 223.8804999999993,
      "v": 127
    },
    {
      "midi": 67,
      "hit": false,
      "t": 152238.7399999998,
      "d": 223.8804999999993,
      "v": 97
    },
    {
      "midi": 65,
      "hit": false,
      "t": 152238.7399999998,
      "d": 447.7609999999986,
      "v": 94
    },
    {
      "midi": 57,
      "hit": false,
      "t": 152238.7399999998,
      "d": 895.5219999999972,
      "v": 127
    },
    {
      "midi": 38,
      "hit": false,
      "t": 152238.7399999998,
      "d": 1343.2829999999958,
      "v": 118
    },
    {
      "midi": 72,
      "hit": false,
      "t": 152686.50099999976,
      "d": 223.8804999999993,
      "v": 127
    },
    {
      "midi": 45,
      "hit": false,
      "t": 152686.5009999998,
      "d": 671.6414999999979,
      "v": 106
    },
    {
      "midi": 69,
      "hit": false,
      "t": 153134.26199999976,
      "d": 223.8804999999993,
      "v": 127
    },
    {
      "midi": 57,
      "hit": false,
      "t": 153134.26199999978,
      "d": 447.7609999999986,
      "v": 118
    },
    {
      "midi": 53,
      "hit": false,
      "t": 153134.26199999978,
      "d": 671.6414999999979,
      "v": 66
    },
    {
      "midi": 62,
      "hit": false,
      "t": 153134.26199999978,
      "d": 671.6414999999979,
      "v": 127
    },
    {
      "midi": 65,
      "hit": false,
      "t": 153134.26199999978,
      "d": 671.6414999999979,
      "v": 92
    },
    {
      "midi": 65,
      "hit": false,
      "t": 153358.14249999975,
      "d": 223.8804999999993,
      "v": 127
    },
    {
      "midi": 45,
      "hit": false,
      "t": 153582.02299999978,
      "d": 223.8804999999993,
      "v": 92
    },
    {
      "midi": 67,
      "hit": false,
      "t": 153805.90349999972,
      "d": 1567.1635000000242,
      "v": 127
    },
    {
      "midi": 58,
      "hit": false,
      "t": 154029.78399999978,
      "d": 671.6414999999979,
      "v": 63
    },
    {
      "midi": 62,
      "hit": false,
      "t": 154029.78399999978,
      "d": 671.6414999999979,
      "v": 127
    },
    {
      "midi": 67,
      "hit": false,
      "t": 154029.78399999978,
      "d": 671.6414999999979,
      "v": 127
    },
    {
      "midi": 39,
      "hit": false,
      "t": 154029.78399999978,
      "d": 1567.163499999995,
      "v": 127
    },
    {
      "midi": 46,
      "hit": false,
      "t": 154477.54499999978,
      "d": 671.6414999999979,
      "v": 79
    },
    {
      "midi": 55,
      "hit": false,
      "t": 154925.30599999978,
      "d": 223.8804999999993,
      "v": 81
    },
    {
      "midi": 62,
      "hit": false,
      "t": 154925.30599999978,
      "d": 447.7609999999986,
      "v": 125
    },
    {
      "midi": 58,
      "hit": false,
      "t": 154925.30599999978,
      "d": 671.6414999999979,
      "v": 115
    },
    {
      "midi": 67,
      "hit": false,
      "t": 154925.30599999978,
      "d": 895.5219999999972,
      "v": 115
    },
    {
      "midi": 46,
      "hit": false,
      "t": 155373.06699999978,
      "d": 447.7609999999986,
      "v": 115
    },
    {
      "midi": 62,
      "hit": false,
      "t": 155596.94749999975,
      "d": 223.8805000000284,
      "v": 127
    },
    {
      "midi": 58,
      "hit": false,
      "t": 155820.82799999978,
      "d": 671.6414999999979,
      "v": 99
    },
    {
      "midi": 63,
      "hit": false,
      "t": 155820.82799999978,
      "d": 671.6414999999979,
      "v": 125
    },
    {
      "midi": 67,
      "hit": false,
      "t": 155820.82799999978,
      "d": 671.6414999999979,
      "v": 118
    },
    {
      "midi": 39,
      "hit": false,
      "t": 155820.82799999978,
      "d": 1567.163499999995,
      "v": 103
    },
    {
      "midi": 63,
      "hit": false,
      "t": 155820.82799999978,
      "d": 447.7609999999986,
      "v": 127
    },
    {
      "midi": 46,
      "hit": false,
      "t": 156268.58899999977,
      "d": 671.6414999999979,
      "v": 81
    },
    {
      "midi": 70,
      "hit": false,
      "t": 156268.58899999977,
      "d": 223.8804999999993,
      "v": 127
    },
    {
      "midi": 70,
      "hit": false,
      "t": 156492.46949999977,
      "d": 671.6414999999979,
      "v": 127
    },
    {
      "midi": 58,
      "hit": false,
      "t": 156716.34999999977,
      "d": 447.7609999999986,
      "v": 127
    },
    {
      "midi": 63,
      "hit": false,
      "t": 156716.34999999977,
      "d": 671.6414999999979,
      "v": 127
    },
    {
      "midi": 55,
      "hit": false,
      "t": 156716.34999999977,
      "d": 895.5220000000263,
      "v": 81
    },
    {
      "midi": 67,
      "hit": false,
      "t": 156716.34999999977,
      "d": 895.5220000000263,
      "v": 118
    },
    {
      "midi": 46,
      "hit": false,
      "t": 157164.11099999977,
      "d": 447.7610000000277,
      "v": 115
    },
    {
      "midi": 72,
      "hit": false,
      "t": 157387.99149999977,
      "d": 223.8804999999702,
      "v": 127
    },
    {
      "midi": 69,
      "hit": false,
      "t": 157611.87199999974,
      "d": 223.8804999999993,
      "v": 127
    },
    {
      "midi": 60,
      "hit": false,
      "t": 157611.8719999998,
      "d": 671.6414999999979,
      "v": 103
    },
    {
      "midi": 65,
      "hit": false,
      "t": 157611.8719999998,
      "d": 671.6414999999979,
      "v": 127
    },
    {
      "midi": 69,
      "hit": false,
      "t": 157611.8719999998,
      "d": 671.6414999999979,
      "v": 110
    },
    {
      "midi": 41,
      "hit": false,
      "t": 157611.8719999998,
      "d": 1567.163499999995,
      "v": 110
    },
    {
      "midi": 67,
      "hit": false,
      "t": 158059.63299999974,
      "d": 223.8804999999993,
      "v": 127
    },
    {
      "midi": 48,
      "hit": false,
      "t": 158059.6329999998,
      "d": 447.7609999999986,
      "v": 79
    },
    {
      "midi": 67,
      "hit": false,
      "t": 158507.39399999974,
      "d": 223.8804999999993,
      "v": 127
    },
    {
      "midi": 57,
      "hit": false,
      "t": 158507.3939999998,
      "d": 447.7609999999986,
      "v": 74
    },
    {
      "midi": 60,
      "hit": false,
      "t": 158507.3939999998,
      "d": 447.7609999999986,
      "v": 105
    },
    {
      "midi": 65,
      "hit": false,
      "t": 158507.3939999998,
      "d": 447.7609999999986,
      "v": 127
    },
    {
      "midi": 69,
      "hit": false,
      "t": 158507.3939999998,
      "d": 447.7609999999986,
      "v": 99
    },
    {
      "midi": 65,
      "hit": false,
      "t": 158731.27449999974,
      "d": 447.7609999999986,
      "v": 127
    },
    {
      "midi": 48,
      "hit": false,
      "t": 158955.1549999998,
      "d": 223.8804999999993,
      "v": 94
    },
    {
      "midi": 67,
      "hit": false,
      "t": 159179.03549999974,
      "d": 2238.804999999993,
      "v": 127
    },
    {
      "midi": 62,
      "hit": false,
      "t": 159179.0354999998,
      "d": 223.8804999999993,
      "v": 30
    },
    {
      "midi": 58,
      "hit": false,
      "t": 159402.9159999998,
      "d": 447.7609999999986,
      "v": 79
    },
    {
      "midi": 62,
      "hit": false,
      "t": 159402.9159999998,
      "d": 671.6414999999979,
      "v": 115
    },
    {
      "midi": 67,
      "hit": false,
      "t": 159402.9159999998,
      "d": 671.6414999999979,
      "v": 115
    },
    {
      "midi": 43,
      "hit": false,
      "t": 159402.9159999998,
      "d": 3582.087999999989,
      "v": 115
    },
    {
      "midi": 50,
      "hit": false,
      "t": 159626.7964999998,
      "d": 447.7609999999986,
      "v": 105
    },
    {
      "midi": 62,
      "hit": false,
      "t": 160074.5574999998,
      "d": 447.7609999999986,
      "v": 1
    },
    {
      "midi": 50,
      "hit": false,
      "t": 160298.4379999998,
      "d": 223.8804999999993,
      "v": 73
    },
    {
      "midi": 69,
      "hit": false,
      "t": 160298.4379999998,
      "d": 223.8804999999993,
      "v": 62
    },
    {
      "midi": 58,
      "hit": false,
      "t": 160298.4379999998,
      "d": 447.7609999999986,
      "v": 105
    },
    {
      "midi": 67,
      "hit": false,
      "t": 160298.4379999998,
      "d": 447.7609999999986,
      "v": 89
    },
    {
      "midi": 62,
      "hit": false,
      "t": 160746.1989999998,
      "d": 223.8804999999993,
      "v": 99
    },
    {
      "midi": 50,
      "hit": false,
      "t": 160746.1989999998,
      "d": 671.6414999999979,
      "v": 97
    },
    {
      "midi": 33,
      "hit": false,
      "t": 161175.3032916666,
      "d": 107.27607291666209,
      "v": 127
    },
    {
      "midi": 58,
      "hit": false,
      "t": 161193.9599999998,
      "d": 447.7609999999986,
      "v": 99
    },
    {
      "midi": 62,
      "hit": false,
      "t": 161193.9599999998,
      "d": 671.6414999999979,
      "v": 127
    },
    {
      "midi": 70,
      "hit": false,
      "t": 161193.9599999998,
      "d": 671.6414999999979,
      "v": 127
    },
    {
      "midi": 50,
      "hit": false,
      "t": 161641.7209999998,
      "d": 671.6414999999979,
      "v": 77
    },
    {
      "midi": 70,
      "hit": false,
      "t": 162089.48199999973,
      "d": 223.8804999999993,
      "v": 127
    },
    {
      "midi": 58,
      "hit": false,
      "t": 162089.48199999979,
      "d": 223.8804999999993,
      "v": 99
    },
    {
      "midi": 67,
      "hit": false,
      "t": 162089.48199999979,
      "d": 447.7609999999986,
      "v": 127
    },
    {
      "midi": 62,
      "hit": false,
      "t": 162089.48199999979,
      "d": 671.6414999999979,
      "v": 105
    },
    {
      "midi": 70,
      "hit": false,
      "t": 162313.36249999973,
      "d": 223.8804999999993,
      "v": 127
    },
    {
      "midi": 70,
      "hit": false,
      "t": 162537.24299999973,
      "d": 223.8805000000284,
      "v": 127
    },
    {
      "midi": 50,
      "hit": false,
      "t": 162537.24299999978,
      "d": 223.8804999999993,
      "v": 115
    },
    {
      "midi": 72,
      "hit": false,
      "t": 162761.12349999975,
      "d": 223.8804999999993,
      "v": 127
    },
    {
      "midi": 58,
      "hit": false,
      "t": 162761.12349999978,
      "d": 223.8804999999993,
      "v": 110
    },
    {
      "midi": 74,
      "hit": false,
      "t": 162985.00399999975,
      "d": 223.8804999999993,
      "v": 127
    },
    {
      "midi": 62,
      "hit": false,
      "t": 162985.00399999978,
      "d": 447.7609999999986,
      "v": 127
    },
    {
      "midi": 65,
      "hit": false,
      "t": 162985.00399999978,
      "d": 671.6414999999979,
      "v": 118
    },
    {
      "midi": 34,
      "hit": false,
      "t": 162985.00399999978,
      "d": 1343.2829999999958,
      "v": 127
    },
    {
      "midi": 74,
      "hit": false,
      "t": 163432.76499999975,
      "d": 223.8804999999993,
      "v": 127
    },
    {
      "midi": 58,
      "hit": false,
      "t": 163432.76499999978,
      "d": 447.7609999999986,
      "v": 92
    },
    {
      "midi": 41,
      "hit": false,
      "t": 163432.76499999978,
      "d": 895.5219999999972,
      "v": 77
    },
    {
      "midi": 33,
      "hit": false,
      "t": 163861.8692916666,
      "d": 107.27607291666209,
      "v": 127
    },
    {
      "midi": 72,
      "hit": false,
      "t": 163880.52599999975,
      "d": 223.8804999999993,
      "v": 127
    },
    {
      "midi": 58,
      "hit": false,
      "t": 163880.52599999978,
      "d": 447.7609999999986,
      "v": 127
    },
    {
      "midi": 62,
      "hit": false,
      "t": 163880.52599999978,
      "d": 671.6414999999979,
      "v": 127
    },
    {
      "midi": 65,
      "hit": false,
      "t": 163880.52599999978,
      "d": 671.6414999999979,
      "v": 118
    },
    {
      "midi": 50,
      "hit": false,
      "t": 163880.52599999978,
      "d": 895.5220000000263,
      "v": 103
    },
    {
      "midi": 70,
      "hit": false,
      "t": 164104.40649999975,
      "d": 223.8804999999993,
      "v": 127
    },
    {
      "midi": 41,
      "hit": false,
      "t": 164328.28699999978,
      "d": 223.8804999999993,
      "v": 92
    },
    {
      "midi": 60,
      "hit": false,
      "t": 164552.16749999978,
      "d": 671.641500000027,
      "v": 125
    },
    {
      "midi": 72,
      "hit": false,
      "t": 164552.16749999978,
      "d": 1119.4024999999965,
      "v": 127
    },
    {
      "midi": 65,
      "hit": false,
      "t": 164776.0479999998,
      "d": 671.6414999999979,
      "v": 127
    },
    {
      "midi": 69,
      "hit": false,
      "t": 164776.0479999998,
      "d": 671.6414999999979,
      "v": 127
    },
    {
      "midi": 41,
      "hit": false,
      "t": 164776.0479999998,
      "d": 1567.163499999995,
      "v": 115
    },
    {
      "midi": 48,
      "hit": false,
      "t": 165223.8089999998,
      "d": 895.5219999999972,
      "v": 61
    },
    {
      "midi": 60,
      "hit": false,
      "t": 165447.6894999998,
      "d": 223.8804999999993,
      "v": 88
    },
    {
      "midi": 65,
      "hit": false,
      "t": 165447.6894999998,
      "d": 223.8804999999993,
      "v": 81
    },
    {
      "midi": 69,
      "hit": false,
      "t": 165447.6894999998,
      "d": 223.8804999999993,
      "v": 77
    },
    {
      "midi": 33,
      "hit": false,
      "t": 165652.9132916666,
      "d": 107.27607291666209,
      "v": 127
    },
    {
      "midi": 60,
      "hit": false,
      "t": 165671.5699999998,
      "d": 223.8804999999993,
      "v": 106
    },
    {
      "midi": 65,
      "hit": false,
      "t": 165671.5699999998,
      "d": 223.8804999999993,
      "v": 127
    },
    {
      "midi": 69,
      "hit": false,
      "t": 165671.5699999998,
      "d": 223.8804999999993,
      "v": 92
    },
    {
      "midi": 57,
      "hit": false,
      "t": 165671.5699999998,
      "d": 447.7609999999986,
      "v": 79
    },
    {
      "midi": 72,
      "hit": false,
      "t": 165895.45049999977,
      "d": 223.8804999999993,
      "v": 127
    },
    {
      "midi": 72,
      "hit": false,
      "t": 166119.33099999977,
      "d": 223.8804999999993,
      "v": 127
    },
    {
      "midi": 48,
      "hit": false,
      "t": 166119.3309999998,
      "d": 223.8804999999993,
      "v": 39
    },
    {
      "midi": 60,
      "hit": false,
      "t": 166119.3309999998,
      "d": 223.8804999999993,
      "v": 127
    },
    {
      "midi": 65,
      "hit": false,
      "t": 166119.3309999998,
      "d": 223.8804999999993,
      "v": 127
    },
    {
      "midi": 69,
      "hit": false,
      "t": 166119.3309999998,
      "d": 223.8804999999993,
      "v": 115
    },
    {
      "midi": 74,
      "hit": false,
      "t": 166343.21149999977,
      "d": 223.8804999999993,
      "v": 127
    },
    {
      "midi": 75,
      "hit": false,
      "t": 166567.09199999977,
      "d": 223.8804999999993,
      "v": 127
    },
    {
      "midi": 62,
      "hit": false,
      "t": 166567.0919999998,
      "d": 447.7609999999986,
      "v": 99
    },
    {
      "midi": 65,
      "hit": false,
      "t": 166567.0919999998,
      "d": 447.7609999999986,
      "v": 110
    },
    {
      "midi": 67,
      "hit": false,
      "t": 166567.0919999998,
      "d": 447.7609999999986,
      "v": 115
    },
    {
      "midi": 36,
      "hit": false,
      "t": 166567.0919999998,
      "d": 1343.2829999999958,
      "v": 127
    },
    {
      "midi": 75,
      "hit": false,
      "t": 167014.85299999977,
      "d": 223.8804999999993,
      "v": 127
    },
    {
      "midi": 43,
      "hit": false,
      "t": 167014.8529999998,
      "d": 671.6414999999979,
      "v": 88
    },
    {
      "midi": 60,
      "hit": false,
      "t": 167014.8529999998,
      "d": 1119.4024999999965,
      "v": 81
    },
    {
      "midi": 33,
      "hit": false,
      "t": 167443.9572916666,
      "d": 107.27607291666209,
      "v": 127
    },
    {
      "midi": 75,
      "hit": false,
      "t": 167462.61399999977,
      "d": 223.8804999999993,
      "v": 127
    },
    {
      "midi": 63,
      "hit": false,
      "t": 167462.6139999998,
      "d": 447.7609999999986,
      "v": 115
    },
    {
      "midi": 67,
      "hit": false,
      "t": 167462.6139999998,
      "d": 671.6414999999979,
      "v": 106
    },
    {
      "midi": 51,
      "hit": false,
      "t": 167462.6139999998,
      "d": 895.5219999999972,
      "v": 115
    },
    {
      "midi": 72,
      "hit": false,
      "t": 167686.49449999977,
      "d": 223.8804999999993,
      "v": 127
    },
    {
      "midi": 43,
      "hit": false,
      "t": 167910.3749999998,
      "d": 223.8804999999993,
      "v": 105
    },
    {
      "midi": 74,
      "hit": false,
      "t": 168134.25549999977,
      "d": 1343.2829999999958,
      "v": 127
    },
    {
      "midi": 60,
      "hit": false,
      "t": 168358.1359999998,
      "d": 223.8804999999993,
      "v": 115
    },
    {
      "midi": 65,
      "hit": false,
      "t": 168358.1359999998,
      "d": 223.8804999999993,
      "v": 105
    },
    {
      "midi": 58,
      "hit": false,
      "t": 168358.1359999998,
      "d": 447.7609999999986,
      "v": 79
    },
    {
      "midi": 62,
      "hit": false,
      "t": 168358.1359999998,
      "d": 447.7609999999986,
      "v": 125
    },
    {
      "midi": 67,
      "hit": false,
      "t": 168358.1359999998,
      "d": 671.6414999999979,
      "v": 125
    },
    {
      "midi": 43,
      "hit": false,
      "t": 168358.1359999998,
      "d": 1567.163499999995,
      "v": 127
    },
    {
      "midi": 58,
      "hit": false,
      "t": 169029.7774999998,
      "d": 223.8804999999993,
      "v": 88
    },
    {
      "midi": 62,
      "hit": false,
      "t": 169029.7774999998,
      "d": 223.8804999999993,
      "v": 79
    },
    {
      "midi": 67,
      "hit": false,
      "t": 169029.7774999998,
      "d": 223.8804999999993,
      "v": 55
    },
    {
      "midi": 50,
      "hit": false,
      "t": 169029.7774999998,
      "d": 447.7609999999986,
      "v": 24
    },
    {
      "midi": 33,
      "hit": false,
      "t": 169235.0012916666,
      "d": 107.27607291666209,
      "v": 127
    },
    {
      "midi": 58,
      "hit": false,
      "t": 169253.6579999998,
      "d": 223.8804999999993,
      "v": 125
    },
    {
      "midi": 62,
      "hit": false,
      "t": 169253.6579999998,
      "d": 447.7609999999986,
      "v": 127
    },
    {
      "midi": 67,
      "hit": false,
      "t": 169253.6579999998,
      "d": 447.7609999999986,
      "v": 106
    },
    {
      "midi": 55,
      "hit": false,
      "t": 169253.6579999998,
      "d": 671.6414999999979,
      "v": 73
    },
    {
      "midi": 74,
      "hit": false,
      "t": 169701.41899999976,
      "d": 223.8804999999993,
      "v": 127
    },
    {
      "midi": 50,
      "hit": false,
      "t": 169701.4189999998,
      "d": 223.8804999999993,
      "v": 63
    },
    {
      "midi": 58,
      "hit": false,
      "t": 169701.4189999998,
      "d": 223.8804999999993,
      "v": 127
    },
    {
      "midi": 67,
      "hit": false,
      "t": 169701.4189999998,
      "d": 223.8804999999993,
      "v": 106
    },
    {
      "midi": 62,
      "hit": false,
      "t": 169701.4189999998,
      "d": 447.7609999999986,
      "v": 115
    },
    {
      "midi": 75,
      "hit": false,
      "t": 169925.29949999976,
      "d": 223.8805000000284,
      "v": 127
    },
    {
      "midi": 58,
      "hit": false,
      "t": 170149.1799999998,
      "d": 223.8804999999993,
      "v": 118
    },
    {
      "midi": 62,
      "hit": false,
      "t": 170149.1799999998,
      "d": 447.7609999999986,
      "v": 127
    },
    {
      "midi": 65,
      "hit": false,
      "t": 170149.1799999998,
      "d": 671.6414999999979,
      "v": 127
    },
    {
      "midi": 34,
      "hit": false,
      "t": 170149.1799999998,
      "d": 1343.2829999999958,
      "v": 127
    },
    {
      "midi": 77,
      "hit": false,
      "t": 170149.1799999998,
      "d": 223.8804999999993,
      "v": 127
    },
    {
      "midi": 41,
      "hit": false,
      "t": 170596.9409999998,
      "d": 671.6414999999979,
      "v": 79
    },
    {
      "midi": 58,
      "hit": false,
      "t": 170596.9409999998,
      "d": 895.5219999999972,
      "v": 106
    },
    {
      "midi": 77,
      "hit": false,
      "t": 170596.9409999998,
      "d": 223.8804999999993,
      "v": 127
    },
    {
      "midi": 33,
      "hit": false,
      "t": 171026.04529166658,
      "d": 107.27607291666209,
      "v": 127
    },
    {
      "midi": 62,
      "hit": false,
      "t": 171044.7019999998,
      "d": 671.6414999999979,
      "v": 127
    },
    {
      "midi": 50,
      "hit": false,
      "t": 171044.7019999998,
      "d": 895.5219999999972,
      "v": 42
    },
    {
      "midi": 65,
      "hit": false,
      "t": 171044.7019999998,
      "d": 895.5219999999972,
      "v": 118
    },
    {
      "midi": 75,
      "hit": false,
      "t": 171044.7019999998,
      "d": 223.8804999999993,
      "v": 127
    },
    {
      "midi": 74,
      "hit": false,
      "t": 171268.5824999998,
      "d": 447.7609999999695,
      "v": 127
    },
    {
      "midi": 41,
      "hit": false,
      "t": 171492.46299999979,
      "d": 447.7609999999986,
      "v": 99
    },
    {
      "midi": 79,
      "hit": false,
      "t": 171716.34349999976,
      "d": 895.5219999999972,
      "v": 127
    },
    {
      "midi": 60,
      "hit": false,
      "t": 171716.34349999978,
      "d": 447.7609999999986,
      "v": 94
    },
    {
      "midi": 65,
      "hit": false,
      "t": 171940.22399999978,
      "d": 223.8804999999993,
      "v": 61
    },
    {
      "midi": 63,
      "hit": false,
      "t": 171940.22399999978,
      "d": 671.6414999999979,
      "v": 94
    },
    {
      "midi": 67,
      "hit": false,
      "t": 171940.22399999978,
      "d": 895.5219999999972,
      "v": 89
    },
    {
      "midi": 36,
      "hit": false,
      "t": 171940.22399999978,
      "d": 1567.163499999995,
      "v": 63
    },
    {
      "midi": 60,
      "hit": false,
      "t": 172387.98499999978,
      "d": 223.8804999999993,
      "v": 20
    },
    {
      "midi": 43,
      "hit": false,
      "t": 172387.98499999978,
      "d": 671.6414999999979,
      "v": 94
    },
    {
      "midi": 77,
      "hit": false,
      "t": 172611.86549999975,
      "d": 223.8804999999993,
      "v": 127
    },
    {
      "midi": 33,
      "hit": false,
      "t": 172817.08929166658,
      "d": 107.27607291666209,
      "v": 127
    },
    {
      "midi": 75,
      "hit": false,
      "t": 172835.74599999975,
      "d": 447.7609999999986,
      "v": 127
    },
    {
      "midi": 60,
      "hit": false,
      "t": 172835.74599999978,
      "d": 447.7609999999986,
      "v": 127
    },
    {
      "midi": 51,
      "hit": false,
      "t": 172835.74599999978,
      "d": 671.6414999999979,
      "v": 99
    },
    {
      "midi": 63,
      "hit": false,
      "t": 172835.74599999978,
      "d": 671.6414999999979,
      "v": 127
    },
    {
      "midi": 67,
      "hit": false,
      "t": 172835.74599999978,
      "d": 895.5219999999681,
      "v": 94
    },
    {
      "midi": 74,
      "hit": false,
      "t": 173283.50699999975,
      "d": 447.7609999999986,
      "v": 127
    },
    {
      "midi": 43,
      "hit": false,
      "t": 173283.50699999978,
      "d": 223.8804999999993,
      "v": 125
    },
    {
      "midi": 66,
      "hit": false,
      "t": 173507.38749999978,
      "d": 223.8804999999702,
      "v": 1
    },
    {
      "midi": 58,
      "hit": false,
      "t": 173731.26799999975,
      "d": 671.6414999999979,
      "v": 127
    },
    {
      "midi": 63,
      "hit": false,
      "t": 173731.26799999975,
      "d": 671.6414999999979,
      "v": 127
    },
    {
      "midi": 67,
      "hit": false,
      "t": 173731.26799999975,
      "d": 671.6414999999979,
      "v": 127
    },
    {
      "midi": 39,
      "hit": false,
      "t": 173731.26799999975,
      "d": 1343.2829999999958,
      "v": 118
    },
    {
      "midi": 70,
      "hit": false,
      "t": 173731.26799999975,
      "d": 1343.2829999999958,
      "v": 127
    },
    {
      "midi": 46,
      "hit": false,
      "t": 173955.14849999975,
      "d": 1567.163499999995,
      "v": 86
    },
    {
      "midi": 33,
      "hit": false,
      "t": 174608.13329166657,
      "d": 107.27607291666209,
      "v": 127
    },
    {
      "midi": 55,
      "hit": false,
      "t": 174626.78999999975,
      "d": 223.8804999999993,
      "v": 106
    },
    {
      "midi": 58,
      "hit": false,
      "t": 174626.78999999975,
      "d": 447.7609999999986,
      "v": 127
    },
    {
      "midi": 63,
      "hit": false,
      "t": 174626.78999999975,
      "d": 671.6414999999979,
      "v": 127
    },
    {
      "midi": 67,
      "hit": false,
      "t": 174626.78999999975,
      "d": 671.6414999999979,
      "v": 115
    },
    {
      "midi": 72,
      "hit": false,
      "t": 175074.55099999974,
      "d": 223.8805000000284,
      "v": 127
    },
    {
      "midi": 74,
      "hit": false,
      "t": 175298.43149999977,
      "d": 223.8804999999993,
      "v": 127
    },
    {
      "midi": 41,
      "hit": false,
      "t": 175522.31199999974,
      "d": 671.6414999999979,
      "v": 106
    },
    {
      "midi": 60,
      "hit": false,
      "t": 175522.31199999974,
      "d": 671.6414999999979,
      "v": 74
    },
    {
      "midi": 65,
      "hit": false,
      "t": 175522.31199999974,
      "d": 671.6414999999979,
      "v": 127
    },
    {
      "midi": 69,
      "hit": false,
      "t": 175522.31199999974,
      "d": 671.6414999999979,
      "v": 127
    },
    {
      "midi": 72,
      "hit": false,
      "t": 175522.31199999977,
      "d": 895.5219999999972,
      "v": 127
    },
    {
      "midi": 48,
      "hit": false,
      "t": 175970.07299999974,
      "d": 223.8804999999993,
      "v": 106
    },
    {
      "midi": 33,
      "hit": false,
      "t": 176399.17729166656,
      "d": 107.27607291666209,
      "v": 127
    },
    {
      "midi": 39,
      "hit": false,
      "t": 176417.83399999974,
      "d": 223.8804999999993,
      "v": 110
    },
    {
      "midi": 46,
      "hit": false,
      "t": 176417.83399999974,
      "d": 223.8804999999993,
      "v": 94
    },
    {
      "midi": 58,
      "hit": false,
      "t": 176417.83399999974,
      "d": 223.8804999999993,
      "v": 127
    },
    {
      "midi": 63,
      "hit": false,
      "t": 176417.83399999974,
      "d": 223.8804999999993,
      "v": 118
    },
    {
      "midi": 67,
      "hit": false,
      "t": 176417.83399999974,
      "d": 223.8804999999993,
      "v": 115
    },
    {
      "midi": 70,
      "hit": false,
      "t": 176641.71449999977,
      "d": 223.8804999999993,
      "v": 127
    },
    {
      "midi": 41,
      "hit": false,
      "t": 176865.59499999974,
      "d": 223.8804999999993,
      "v": 115
    },
    {
      "midi": 60,
      "hit": false,
      "t": 176865.59499999974,
      "d": 223.8804999999993,
      "v": 118
    },
    {
      "midi": 65,
      "hit": false,
      "t": 176865.59499999974,
      "d": 223.8804999999993,
      "v": 115
    },
    {
      "midi": 69,
      "hit": false,
      "t": 176865.59499999974,
      "d": 223.8804999999993,
      "v": 127
    },
    {
      "midi": 70,
      "hit": false,
      "t": 176865.59499999977,
      "d": 223.8804999999993,
      "v": 127
    },
    {
      "midi": 72,
      "hit": false,
      "t": 177089.47549999977,
      "d": 223.8804999999993,
      "v": 127
    },
    {
      "midi": 62,
      "hit": false,
      "t": 177313.35599999974,
      "d": 671.6414999999979,
      "v": 118
    },
    {
      "midi": 65,
      "hit": false,
      "t": 177313.35599999974,
      "d": 671.6414999999979,
      "v": 99
    },
    {
      "midi": 34,
      "hit": false,
      "t": 177313.35599999974,
      "d": 1343.2829999999958,
      "v": 110
    },
    {
      "midi": 58,
      "hit": false,
      "t": 177313.35599999974,
      "d": 1343.2829999999958,
      "v": 110
    },
    {
      "midi": 74,
      "hit": false,
      "t": 177313.35599999977,
      "d": 223.8804999999993,
      "v": 127
    },
    {
      "midi": 41,
      "hit": false,
      "t": 177537.23649999974,
      "d": 895.5219999999972,
      "v": 79
    },
    {
      "midi": 74,
      "hit": false,
      "t": 177761.11699999977,
      "d": 223.8804999999993,
      "v": 127
    },
    {
      "midi": 33,
      "hit": false,
      "t": 178190.22129166656,
      "d": 107.27607291666209,
      "v": 127
    },
    {
      "midi": 50,
      "hit": false,
      "t": 178208.87799999974,
      "d": 671.6414999999979,
      "v": 62
    },
    {
      "midi": 62,
      "hit": false,
      "t": 178208.87799999974,
      "d": 671.6414999999979,
      "v": 127
    },
    {
      "midi": 65,
      "hit": false,
      "t": 178208.87799999974,
      "d": 671.6414999999979,
      "v": 125
    },
    {
      "midi": 72,
      "hit": false,
      "t": 178208.87799999976,
      "d": 223.8804999999993,
      "v": 127
    },
    {
      "midi": 70,
      "hit": false,
      "t": 178432.75849999976,
      "d": 223.8804999999993,
      "v": 127
    },
    {
      "midi": 41,
      "hit": false,
      "t": 178656.63899999973,
      "d": 223.8804999999993,
      "v": 81
    },
    {
      "midi": 72,
      "hit": false,
      "t": 178880.51949999976,
      "d": 1119.4024999999965,
      "v": 127
    },
    {
      "midi": 65,
      "hit": false,
      "t": 179104.39999999973,
      "d": 671.6414999999979,
      "v": 127
    },
    {
      "midi": 69,
      "hit": false,
      "t": 179104.39999999973,
      "d": 671.6414999999979,
      "v": 118
    },
    {
      "midi": 60,
      "hit": false,
      "t": 179104.39999999973,
      "d": 895.5219999999972,
      "v": 106
    },
    {
      "midi": 36,
      "hit": false,
      "t": 179104.39999999973,
      "d": 1791.0439999999944,
      "v": 99
    },
    {
      "midi": 43,
      "hit": false,
      "t": 179328.28049999973,
      "d": 895.5219999999972,
      "v": 42
    },
    {
      "midi": 33,
      "hit": false,
      "t": 179981.26529166655,
      "d": 107.27607291666209,
      "v": 127
    },
    {
      "midi": 51,
      "hit": false,
      "t": 179999.92199999973,
      "d": 671.6414999999979,
      "v": 94
    },
    {
      "midi": 60,
      "hit": false,
      "t": 179999.92199999973,
      "d": 671.6414999999979,
      "v": 81
    },
    {
      "midi": 65,
      "hit": false,
      "t": 179999.92199999973,
      "d": 671.6414999999979,
      "v": 127
    },
    {
      "midi": 69,
      "hit": false,
      "t": 179999.92199999973,
      "d": 895.5219999999972,
      "v": 92
    },
    {
      "midi": 72,
      "hit": false,
      "t": 180223.80249999976,
      "d": 223.8804999999993,
      "v": 127
    },
    {
      "midi": 43,
      "hit": false,
      "t": 180447.68299999973,
      "d": 447.7609999999986,
      "v": 103
    },
    {
      "midi": 72,
      "hit": false,
      "t": 180447.68299999976,
      "d": 223.8804999999993,
      "v": 127
    },
    {
      "midi": 74,
      "hit": false,
      "t": 180671.56349999976,
      "d": 223.8804999999993,
      "v": 127
    },
    {
      "midi": 60,
      "hit": false,
      "t": 180895.44399999973,
      "d": 447.7609999999986,
      "v": 110
    },
    {
      "midi": 36,
      "hit": false,
      "t": 180895.44399999973,
      "d": 1567.163499999995,
      "v": 125
    },
    {
      "midi": 75,
      "hit": false,
      "t": 180895.44399999976,
      "d": 223.8804999999993,
      "v": 127
    },
    {
      "midi": 43,
      "hit": false,
      "t": 181119.32449999973,
      "d": 895.5219999999972,
      "v": 26
    },
    {
      "midi": 63,
      "hit": false,
      "t": 181343.20499999973,
      "d": 223.8804999999993,
      "v": 66
    },
    {
      "midi": 67,
      "hit": false,
      "t": 181343.20499999973,
      "d": 223.8804999999993,
      "v": 29
    },
    {
      "midi": 75,
      "hit": false,
      "t": 181343.20499999975,
      "d": 223.8804999999993,
      "v": 127
    },
    {
      "midi": 33,
      "hit": false,
      "t": 181772.30929166655,
      "d": 107.27607291666209,
      "v": 127
    },
    {
      "midi": 51,
      "hit": false,
      "t": 181790.96599999972,
      "d": 671.6414999999979,
      "v": 81
    },
    {
      "midi": 63,
      "hit": false,
      "t": 181790.96599999972,
      "d": 671.6414999999979,
      "v": 127
    },
    {
      "midi": 60,
      "hit": false,
      "t": 181790.96599999972,
      "d": 895.5219999999972,
      "v": 99
    },
    {
      "midi": 67,
      "hit": false,
      "t": 181790.96599999972,
      "d": 895.5219999999972,
      "v": 125
    },
    {
      "midi": 75,
      "hit": false,
      "t": 181790.96599999975,
      "d": 223.8804999999993,
      "v": 127
    },
    {
      "midi": 72,
      "hit": false,
      "t": 182014.84649999975,
      "d": 223.8804999999993,
      "v": 121
    },
    {
      "midi": 43,
      "hit": false,
      "t": 182238.72699999972,
      "d": 447.7609999999986,
      "v": 79
    },
    {
      "midi": 74,
      "hit": false,
      "t": 182462.60749999975,
      "d": 1343.2829999999958,
      "v": 127
    },
    {
      "midi": 58,
      "hit": false,
      "t": 182686.48799999972,
      "d": 223.8804999999993,
      "v": 79
    },
    {
      "midi": 62,
      "hit": false,
      "t": 182686.48799999972,
      "d": 447.7609999999986,
      "v": 127
    },
    {
      "midi": 34,
      "hit": false,
      "t": 182686.48799999972,
      "d": 1343.2829999999958,
      "v": 62
    },
    {
      "midi": 58,
      "hit": false,
      "t": 183134.24899999972,
      "d": 223.8804999999993,
      "v": 81
    },
    {
      "midi": 45,
      "hit": false,
      "t": 183134.24899999972,
      "d": 1343.2829999999958,
      "v": 36
    },
    {
      "midi": 33,
      "hit": false,
      "t": 183563.35329166654,
      "d": 107.27607291666209,
      "v": 127
    },
    {
      "midi": 58,
      "hit": false,
      "t": 183582.00999999972,
      "d": 223.8804999999993,
      "v": 125
    },
    {
      "midi": 62,
      "hit": false,
      "t": 183582.00999999972,
      "d": 447.7609999999986,
      "v": 127
    },
    {
      "midi": 67,
      "hit": false,
      "t": 183582.00999999972,
      "d": 895.5219999999972,
      "v": 115
    },
    {
      "midi": 58,
      "hit": false,
      "t": 184029.77099999972,
      "d": 223.8804999999993,
      "v": 127
    },
    {
      "midi": 74,
      "hit": false,
      "t": 184029.77099999975,
      "d": 223.8804999999993,
      "v": 127
    },
    {
      "midi": 75,
      "hit": false,
      "t": 184253.65149999975,
      "d": 223.8804999999993,
      "v": 123
    },
    {
      "midi": 58,
      "hit": false,
      "t": 184477.53199999972,
      "d": 671.6414999999979,
      "v": 99
    },
    {
      "midi": 63,
      "hit": false,
      "t": 184477.53199999972,
      "d": 671.6414999999979,
      "v": 127
    },
    {
      "midi": 67,
      "hit": false,
      "t": 184477.53199999972,
      "d": 671.6414999999979,
      "v": 118
    },
    {
      "midi": 39,
      "hit": false,
      "t": 184477.53199999972,
      "d": 1567.163499999995,
      "v": 92
    },
    {
      "midi": 77,
      "hit": false,
      "t": 184477.53199999974,
      "d": 223.8804999999993,
      "v": 127
    },
    {
      "midi": 46,
      "hit": false,
      "t": 184925.2929999997,
      "d": 671.6414999999979,
      "v": 66
    },
    {
      "midi": 77,
      "hit": false,
      "t": 184925.29299999974,
      "d": 223.8804999999993,
      "v": 127
    },
    {
      "midi": 33,
      "hit": false,
      "t": 185354.39729166654,
      "d": 107.27607291666209,
      "v": 127
    },
    {
      "midi": 55,
      "hit": false,
      "t": 185373.0539999997,
      "d": 447.7609999999986,
      "v": 46
    },
    {
      "midi": 58,
      "hit": false,
      "t": 185373.0539999997,
      "d": 671.6414999999979,
      "v": 105
    },
    {
      "midi": 63,
      "hit": false,
      "t": 185373.0539999997,
      "d": 671.6414999999979,
      "v": 127
    },
    {
      "midi": 67,
      "hit": false,
      "t": 185373.0539999997,
      "d": 671.6414999999979,
      "v": 110
    },
    {
      "midi": 75,
      "hit": false,
      "t": 185373.05399999974,
      "d": 223.8804999999993,
      "v": 127
    },
    {
      "midi": 74,
      "hit": false,
      "t": 185596.93449999974,
      "d": 223.8804999999993,
      "v": 123
    },
    {
      "midi": 46,
      "hit": false,
      "t": 185820.8149999997,
      "d": 223.8804999999993,
      "v": 30
    },
    {
      "midi": 60,
      "hit": false,
      "t": 186044.6954999997,
      "d": 671.6414999999979,
      "v": 92
    },
    {
      "midi": 79,
      "hit": false,
      "t": 186044.69549999974,
      "d": 671.6414999999979,
      "v": 127
    },
    {
      "midi": 63,
      "hit": false,
      "t": 186268.5759999997,
      "d": 671.6414999999979,
      "v": 115
    },
    {
      "midi": 67,
      "hit": false,
      "t": 186268.5759999997,
      "d": 671.6414999999979,
      "v": 118
    },
    {
      "midi": 36,
      "hit": false,
      "t": 186268.5759999997,
      "d": 1343.2829999999958,
      "v": 77
    },
    {
      "midi": 60,
      "hit": false,
      "t": 186716.3369999997,
      "d": 671.6414999999979,
      "v": 79
    },
    {
      "midi": 43,
      "hit": false,
      "t": 186716.3369999997,
      "d": 1119.4024999999965,
      "v": 92
    },
    {
      "midi": 77,
      "hit": false,
      "t": 186940.21749999974,
      "d": 223.8804999999993,
      "v": 115
    },
    {
      "midi": 33,
      "hit": false,
      "t": 187145.44129166653,
      "d": 107.27607291666209,
      "v": 127
    },
    {
      "midi": 63,
      "hit": false,
      "t": 187164.0979999997,
      "d": 447.7609999999986,
      "v": 127
    },
    {
      "midi": 51,
      "hit": false,
      "t": 187164.0979999997,
      "d": 671.6414999999979,
      "v": 66
    },
    {
      "midi": 67,
      "hit": false,
      "t": 187164.0979999997,
      "d": 671.6414999999979,
      "v": 115
    },
    {
      "midi": 75,
      "hit": false,
      "t": 187164.09799999974,
      "d": 447.7609999999986,
      "v": 121
    },
    {
      "midi": 74,
      "hit": false,
      "t": 187387.97849999974,
      "d": 671.641500000027,
      "v": 121
    },
    {
      "midi": 60,
      "hit": false,
      "t": 187611.8589999997,
      "d": 223.8804999999993,
      "v": 61
    },
    {
      "midi": 63,
      "hit": false,
      "t": 187611.8589999997,
      "d": 223.8804999999993,
      "v": 20
    },
    {
      "midi": 63,
      "hit": false,
      "t": 188059.6199999997,
      "d": 671.6414999999979,
      "v": 127
    },
    {
      "midi": 67,
      "hit": false,
      "t": 188059.6199999997,
      "d": 671.6414999999979,
      "v": 125
    },
    {
      "midi": 58,
      "hit": false,
      "t": 188059.6199999997,
      "d": 895.5219999999972,
      "v": 105
    },
    {
      "midi": 39,
      "hit": false,
      "t": 188059.6199999997,
      "d": 1791.0439999999944,
      "v": 94
    },
    {
      "midi": 70,
      "hit": false,
      "t": 188059.61999999976,
      "d": 2686.5660000000207,
      "v": 126
    },
    {
      "midi": 46,
      "hit": false,
      "t": 188283.5004999997,
      "d": 895.5219999999972,
      "v": 68
    },
    {
      "midi": 63,
      "hit": false,
      "t": 188955.1419999997,
      "d": 223.8804999999993,
      "v": 127
    },
    {
      "midi": 53,
      "hit": false,
      "t": 188955.1419999997,
      "d": 447.7609999999986,
      "v": 66
    },
    {
      "midi": 58,
      "hit": false,
      "t": 188955.1419999997,
      "d": 447.7609999999986,
      "v": 106
    },
    {
      "midi": 67,
      "hit": false,
      "t": 188955.1419999997,
      "d": 671.6414999999979,
      "v": 125
    },
    {
      "midi": 46,
      "hit": false,
      "t": 189402.9029999997,
      "d": 223.8804999999993,
      "v": 68
    },
    {
      "midi": 62,
      "hit": false,
      "t": 189402.9029999997,
      "d": 223.8804999999993,
      "v": 92
    },
    {
      "midi": 62,
      "hit": false,
      "t": 189850.6639999997,
      "d": 671.6414999999979,
      "v": 127
    },
    {
      "midi": 65,
      "hit": false,
      "t": 189850.6639999997,
      "d": 671.6414999999979,
      "v": 127
    },
    {
      "midi": 57,
      "hit": false,
      "t": 189850.6639999997,
      "d": 895.5219999999972,
      "v": 94
    },
    {
      "midi": 38,
      "hit": false,
      "t": 189850.6639999997,
      "d": 1343.2829999999958,
      "v": 81
    },
    {
      "midi": 45,
      "hit": false,
      "t": 190074.5444999997,
      "d": 895.5219999999972,
      "v": 110
    },
    {
      "midi": 33,
      "hit": false,
      "t": 190727.52929166652,
      "d": 107.27607291666209,
      "v": 127
    },
    {
      "midi": 57,
      "hit": false,
      "t": 190746.1859999997,
      "d": 447.7609999999986,
      "v": 125
    },
    {
      "midi": 53,
      "hit": false,
      "t": 190746.1859999997,
      "d": 671.6414999999979,
      "v": 110
    },
    {
      "midi": 62,
      "hit": false,
      "t": 190746.1859999997,
      "d": 671.6414999999979,
      "v": 127
    },
    {
      "midi": 65,
      "hit": false,
      "t": 190746.1859999997,
      "d": 671.6414999999979,
      "v": 125
    },
    {
      "midi": 69,
      "hit": false,
      "t": 190746.18599999978,
      "d": 895.5219999999972,
      "v": 115
    },
    {
      "midi": 45,
      "hit": false,
      "t": 190970.0664999997,
      "d": 223.8804999999993,
      "v": 26
    },
    {
      "midi": 33,
      "hit": false,
      "t": 192518.57329166651,
      "d": 107.27607291666209,
      "v": 127
    },
    {
      "midi": 33,
      "hit": false,
      "t": 194309.6172916665,
      "d": 107.27607291666209,
      "v": 127
    },
    {
      "midi": 33,
      "hit": false,
      "t": 196100.6612916665,
      "d": 107.27607291666209,
      "v": 127
    },
    {
      "midi": 33,
      "hit": false,
      "t": 197891.7052916665,
      "d": 107.27607291666209,
      "v": 127
    },
    {
      "midi": 33,
      "hit": false,
      "t": 199682.7492916665,
      "d": 107.27607291666209,
      "v": 127
    },
    {
      "midi": 33,
      "hit": false,
      "t": 201473.7932916665,
      "d": 107.27607291666209,
      "v": 127
    },
    {
      "midi": 33,
      "hit": false,
      "t": 203264.83729166648,
      "d": 107.27607291666209,
      "v": 127
    },
    {
      "midi": 33,
      "hit": false,
      "t": 205055.88129166648,
      "d": 107.27607291666209,
      "v": 127
    },
    {
      "midi": 33,
      "hit": false,
      "t": 206846.92529166647,
      "d": 107.27607291666209,
      "v": 127
    },
    {
      "midi": 33,
      "hit": false,
      "t": 208637.96929166646,
      "d": 107.27607291666209,
      "v": 127
    },
    {
      "midi": 33,
      "hit": false,
      "t": 210429.01329166646,
      "d": 107.27607291666209,
      "v": 127
    },
    {
      "midi": 33,
      "hit": false,
      "t": 212220.05729166645,
      "d": 107.27607291666209,
      "v": 127
    },
    {
      "midi": 33,
      "hit": false,
      "t": 214011.10129166645,
      "d": 107.27607291666209,
      "v": 127
    },
    {
      "midi": 33,
      "hit": false,
      "t": 215802.14529166644,
      "d": 107.27607291666209,
      "v": 127
    },
    {
      "midi": 62,
      "hit": false,
      "t": 216716.3239999997,
      "d": 447.7609999999986,
      "v": 127
    },
    {
      "midi": 65,
      "hit": false,
      "t": 216716.3239999997,
      "d": 671.6414999999979,
      "v": 118
    },
    {
      "midi": 34,
      "hit": false,
      "t": 216716.3239999997,
      "d": 1343.2829999999958,
      "v": 127
    },
    {
      "midi": 74,
      "hit": false,
      "t": 216716.3239999998,
      "d": 223.8804999999993,
      "v": 115
    },
    {
      "midi": 58,
      "hit": false,
      "t": 217164.0849999997,
      "d": 447.7609999999986,
      "v": 92
    },
    {
      "midi": 41,
      "hit": false,
      "t": 217164.0849999997,
      "d": 895.5219999999972,
      "v": 77
    },
    {
      "midi": 74,
      "hit": false,
      "t": 217164.0849999998,
      "d": 223.8804999999993,
      "v": 127
    },
    {
      "midi": 33,
      "hit": false,
      "t": 217593.18929166644,
      "d": 107.27607291666209,
      "v": 127
    },
    {
      "midi": 58,
      "hit": false,
      "t": 217611.8459999997,
      "d": 447.7609999999986,
      "v": 127
    },
    {
      "midi": 62,
      "hit": false,
      "t": 217611.8459999997,
      "d": 671.6414999999979,
      "v": 127
    },
    {
      "midi": 65,
      "hit": false,
      "t": 217611.8459999997,
      "d": 671.6414999999979,
      "v": 118
    },
    {
      "midi": 50,
      "hit": false,
      "t": 217611.8459999997,
      "d": 895.5219999999972,
      "v": 103
    },
    {
      "midi": 72,
      "hit": false,
      "t": 217611.8459999998,
      "d": 223.8804999999993,
      "v": 126
    },
    {
      "midi": 70,
      "hit": false,
      "t": 217835.7264999998,
      "d": 223.8804999999993,
      "v": 127
    },
    {
      "midi": 41,
      "hit": false,
      "t": 218059.6069999997,
      "d": 223.8804999999993,
      "v": 92
    },
    {
      "midi": 60,
      "hit": false,
      "t": 218283.4874999997,
      "d": 671.6414999999979,
      "v": 125
    },
    {
      "midi": 72,
      "hit": false,
      "t": 218283.48749999978,
      "d": 1119.4024999999965,
      "v": 126
    },
    {
      "midi": 65,
      "hit": false,
      "t": 218507.3679999997,
      "d": 671.6414999999979,
      "v": 127
    },
    {
      "midi": 69,
      "hit": false,
      "t": 218507.3679999997,
      "d": 671.6414999999979,
      "v": 127
    },
    {
      "midi": 41,
      "hit": false,
      "t": 218507.3679999997,
      "d": 1567.163499999995,
      "v": 115
    },
    {
      "midi": 48,
      "hit": false,
      "t": 218955.1289999997,
      "d": 895.5219999999972,
      "v": 61
    },
    {
      "midi": 60,
      "hit": false,
      "t": 219179.0094999997,
      "d": 223.8804999999993,
      "v": 88
    },
    {
      "midi": 65,
      "hit": false,
      "t": 219179.0094999997,
      "d": 223.8804999999993,
      "v": 81
    },
    {
      "midi": 69,
      "hit": false,
      "t": 219179.0094999997,
      "d": 223.8804999999993,
      "v": 77
    },
    {
      "midi": 33,
      "hit": false,
      "t": 219384.23329166643,
      "d": 107.27607291666209,
      "v": 127
    },
    {
      "midi": 60,
      "hit": false,
      "t": 219402.8899999997,
      "d": 223.8804999999993,
      "v": 106
    },
    {
      "midi": 65,
      "hit": false,
      "t": 219402.8899999997,
      "d": 223.8804999999993,
      "v": 127
    },
    {
      "midi": 69,
      "hit": false,
      "t": 219402.8899999997,
      "d": 223.8804999999993,
      "v": 92
    },
    {
      "midi": 57,
      "hit": false,
      "t": 219402.8899999997,
      "d": 447.7609999999986,
      "v": 79
    },
    {
      "midi": 72,
      "hit": false,
      "t": 219626.77049999978,
      "d": 223.8804999999993,
      "v": 127
    },
    {
      "midi": 48,
      "hit": false,
      "t": 219850.6509999997,
      "d": 223.8804999999993,
      "v": 39
    },
    {
      "midi": 60,
      "hit": false,
      "t": 219850.6509999997,
      "d": 223.8804999999993,
      "v": 127
    },
    {
      "midi": 65,
      "hit": false,
      "t": 219850.6509999997,
      "d": 223.8804999999993,
      "v": 127
    },
    {
      "midi": 69,
      "hit": false,
      "t": 219850.6509999997,
      "d": 223.8804999999993,
      "v": 115
    },
    {
      "midi": 72,
      "hit": false,
      "t": 219850.65099999978,
      "d": 223.8804999999993,
      "v": 127
    },
    {
      "midi": 74,
      "hit": false,
      "t": 220074.53149999978,
      "d": 223.8804999999993,
      "v": 121
    },
    {
      "midi": 62,
      "hit": false,
      "t": 220298.41199999966,
      "d": 447.7609999999986,
      "v": 99
    },
    {
      "midi": 65,
      "hit": false,
      "t": 220298.41199999966,
      "d": 447.7609999999986,
      "v": 110
    },
    {
      "midi": 67,
      "hit": false,
      "t": 220298.41199999966,
      "d": 447.7609999999986,
      "v": 115
    },
    {
      "midi": 36,
      "hit": false,
      "t": 220298.41199999966,
      "d": 1343.2829999999958,
      "v": 127
    },
    {
      "midi": 75,
      "hit": false,
      "t": 220298.41199999978,
      "d": 223.8804999999993,
      "v": 115
    },
    {
      "midi": 43,
      "hit": false,
      "t": 220746.17299999966,
      "d": 671.6414999999979,
      "v": 88
    },
    {
      "midi": 60,
      "hit": false,
      "t": 220746.17299999966,
      "d": 1119.4024999999965,
      "v": 81
    },
    {
      "midi": 75,
      "hit": false,
      "t": 220746.17299999978,
      "d": 223.8804999999993,
      "v": 115
    },
    {
      "midi": 33,
      "hit": false,
      "t": 221175.27729166643,
      "d": 107.27607291666209,
      "v": 127
    },
    {
      "midi": 63,
      "hit": false,
      "t": 221193.93399999966,
      "d": 447.7609999999986,
      "v": 115
    },
    {
      "midi": 67,
      "hit": false,
      "t": 221193.93399999966,
      "d": 671.6414999999979,
      "v": 106
    },
    {
      "midi": 51,
      "hit": false,
      "t": 221193.93399999966,
      "d": 895.5219999999681,
      "v": 115
    },
    {
      "midi": 75,
      "hit": false,
      "t": 221193.93399999978,
      "d": 223.8804999999993,
      "v": 126
    },
    {
      "midi": 72,
      "hit": false,
      "t": 221417.81449999977,
      "d": 223.8804999999993,
      "v": 99
    },
    {
      "midi": 43,
      "hit": false,
      "t": 221641.69499999966,
      "d": 223.8804999999993,
      "v": 105
    },
    {
      "midi": 74,
      "hit": false,
      "t": 221865.57549999977,
      "d": 1343.283000000025,
      "v": 127
    },
    {
      "midi": 60,
      "hit": false,
      "t": 222089.45599999963,
      "d": 223.8804999999993,
      "v": 115
    },
    {
      "midi": 65,
      "hit": false,
      "t": 222089.45599999963,
      "d": 223.8804999999993,
      "v": 105
    },
    {
      "midi": 58,
      "hit": false,
      "t": 222089.45599999963,
      "d": 447.7609999999986,
      "v": 79
    },
    {
      "midi": 62,
      "hit": false,
      "t": 222089.45599999963,
      "d": 447.7609999999986,
      "v": 125
    },
    {
      "midi": 67,
      "hit": false,
      "t": 222089.45599999963,
      "d": 671.6414999999979,
      "v": 125
    },
    {
      "midi": 43,
      "hit": false,
      "t": 222089.45599999963,
      "d": 1567.163499999995,
      "v": 127
    },
    {
      "midi": 58,
      "hit": false,
      "t": 222761.09749999963,
      "d": 223.8804999999993,
      "v": 88
    },
    {
      "midi": 62,
      "hit": false,
      "t": 222761.09749999963,
      "d": 223.8804999999993,
      "v": 79
    },
    {
      "midi": 67,
      "hit": false,
      "t": 222761.09749999963,
      "d": 223.8804999999993,
      "v": 55
    },
    {
      "midi": 50,
      "hit": false,
      "t": 222761.09749999963,
      "d": 447.7609999999986,
      "v": 24
    },
    {
      "midi": 33,
      "hit": false,
      "t": 222966.32129166642,
      "d": 107.27607291666209,
      "v": 127
    },
    {
      "midi": 58,
      "hit": false,
      "t": 222984.97799999962,
      "d": 223.8804999999993,
      "v": 125
    },
    {
      "midi": 62,
      "hit": false,
      "t": 222984.97799999962,
      "d": 447.7609999999986,
      "v": 127
    },
    {
      "midi": 67,
      "hit": false,
      "t": 222984.97799999962,
      "d": 447.7609999999986,
      "v": 106
    },
    {
      "midi": 55,
      "hit": false,
      "t": 222984.97799999962,
      "d": 671.6414999999979,
      "v": 73
    },
    {
      "midi": 50,
      "hit": false,
      "t": 223432.73899999962,
      "d": 223.8804999999993,
      "v": 63
    },
    {
      "midi": 58,
      "hit": false,
      "t": 223432.73899999962,
      "d": 223.8804999999993,
      "v": 127
    },
    {
      "midi": 67,
      "hit": false,
      "t": 223432.73899999962,
      "d": 223.8804999999993,
      "v": 106
    },
    {
      "midi": 62,
      "hit": false,
      "t": 223432.73899999962,
      "d": 447.7609999999695,
      "v": 115
    },
    {
      "midi": 74,
      "hit": false,
      "t": 223432.7389999998,
      "d": 223.8804999999993,
      "v": 123
    },
    {
      "midi": 75,
      "hit": false,
      "t": 223656.6194999998,
      "d": 223.8804999999993,
      "v": 108
    },
    {
      "midi": 58,
      "hit": false,
      "t": 223880.4999999996,
      "d": 223.8804999999993,
      "v": 118
    },
    {
      "midi": 62,
      "hit": false,
      "t": 223880.4999999996,
      "d": 447.7609999999986,
      "v": 127
    },
    {
      "midi": 65,
      "hit": false,
      "t": 223880.4999999996,
      "d": 671.6414999999979,
      "v": 127
    },
    {
      "midi": 34,
      "hit": false,
      "t": 223880.4999999996,
      "d": 1343.2829999999958,
      "v": 127
    },
    {
      "midi": 77,
      "hit": false,
      "t": 223880.4999999998,
      "d": 223.8804999999993,
      "v": 114
    },
    {
      "midi": 41,
      "hit": false,
      "t": 224328.2609999996,
      "d": 671.6414999999979,
      "v": 79
    },
    {
      "midi": 58,
      "hit": false,
      "t": 224328.2609999996,
      "d": 895.5219999999972,
      "v": 106
    },
    {
      "midi": 77,
      "hit": false,
      "t": 224328.2609999998,
      "d": 223.8804999999993,
      "v": 127
    },
    {
      "midi": 33,
      "hit": false,
      "t": 224757.3652916664,
      "d": 107.27607291666209,
      "v": 127
    },
    {
      "midi": 62,
      "hit": false,
      "t": 224776.0219999996,
      "d": 671.6414999999979,
      "v": 127
    },
    {
      "midi": 50,
      "hit": false,
      "t": 224776.0219999996,
      "d": 895.5219999999972,
      "v": 42
    },
    {
      "midi": 65,
      "hit": false,
      "t": 224776.0219999996,
      "d": 895.5219999999972,
      "v": 118
    },
    {
      "midi": 75,
      "hit": false,
      "t": 224776.0219999998,
      "d": 223.8804999999993,
      "v": 123
    },
    {
      "midi": 74,
      "hit": false,
      "t": 224999.9024999998,
      "d": 447.7609999999986,
      "v": 105
    },
    {
      "midi": 41,
      "hit": false,
      "t": 225223.7829999996,
      "d": 447.7609999999986,
      "v": 99
    },
    {
      "midi": 60,
      "hit": false,
      "t": 225447.6634999996,
      "d": 447.7609999999986,
      "v": 94
    },
    {
      "midi": 79,
      "hit": false,
      "t": 225447.6634999998,
      "d": 895.5219999999972,
      "v": 127
    },
    {
      "midi": 65,
      "hit": false,
      "t": 225671.5439999996,
      "d": 223.8804999999993,
      "v": 61
    },
    {
      "midi": 63,
      "hit": false,
      "t": 225671.5439999996,
      "d": 671.6414999999979,
      "v": 94
    },
    {
      "midi": 67,
      "hit": false,
      "t": 225671.5439999996,
      "d": 895.5219999999972,
      "v": 89
    },
    {
      "midi": 36,
      "hit": false,
      "t": 225671.5439999996,
      "d": 1567.163499999995,
      "v": 63
    },
    {
      "midi": 60,
      "hit": false,
      "t": 226119.3049999996,
      "d": 223.8804999999993,
      "v": 20
    },
    {
      "midi": 43,
      "hit": false,
      "t": 226119.3049999996,
      "d": 671.6414999999979,
      "v": 94
    },
    {
      "midi": 77,
      "hit": false,
      "t": 226343.1854999998,
      "d": 223.8804999999993,
      "v": 115
    },
    {
      "midi": 33,
      "hit": false,
      "t": 226548.4092916664,
      "d": 107.27607291666209,
      "v": 127
    },
    {
      "midi": 60,
      "hit": false,
      "t": 226567.06599999958,
      "d": 447.7609999999986,
      "v": 127
    },
    {
      "midi": 51,
      "hit": false,
      "t": 226567.06599999958,
      "d": 671.6414999999979,
      "v": 99
    },
    {
      "midi": 63,
      "hit": false,
      "t": 226567.06599999958,
      "d": 671.6414999999979,
      "v": 127
    },
    {
      "midi": 67,
      "hit": false,
      "t": 226567.06599999958,
      "d": 895.5219999999972,
      "v": 94
    },
    {
      "midi": 75,
      "hit": false,
      "t": 226567.0659999998,
      "d": 447.7609999999986,
      "v": 123
    },
    {
      "midi": 43,
      "hit": false,
      "t": 227014.82699999958,
      "d": 223.8804999999993,
      "v": 125
    },
    {
      "midi": 74,
      "hit": false,
      "t": 227014.8269999998,
      "d": 447.7609999999986,
      "v": 115
    },
    {
      "midi": 66,
      "hit": false,
      "t": 227238.70749999958,
      "d": 223.8804999999993,
      "v": 1
    },
    {
      "midi": 58,
      "hit": false,
      "t": 227462.58799999958,
      "d": 671.6414999999979,
      "v": 127
    },
    {
      "midi": 63,
      "hit": false,
      "t": 227462.58799999958,
      "d": 671.6414999999979,
      "v": 127
    },
    {
      "midi": 67,
      "hit": false,
      "t": 227462.58799999958,
      "d": 671.6414999999979,
      "v": 127
    },
    {
      "midi": 39,
      "hit": false,
      "t": 227462.58799999958,
      "d": 1343.2829999999958,
      "v": 118
    },
    {
      "midi": 70,
      "hit": false,
      "t": 227462.58799999979,
      "d": 1343.2829999999958,
      "v": 121
    },
    {
      "midi": 46,
      "hit": false,
      "t": 227686.46849999958,
      "d": 1567.163499999995,
      "v": 86
    },
    {
      "midi": 33,
      "hit": false,
      "t": 228339.4532916664,
      "d": 107.27607291666209,
      "v": 127
    },
    {
      "midi": 55,
      "hit": false,
      "t": 228358.10999999958,
      "d": 223.8804999999993,
      "v": 106
    },
    {
      "midi": 58,
      "hit": false,
      "t": 228358.10999999958,
      "d": 447.7609999999986,
      "v": 127
    },
    {
      "midi": 63,
      "hit": false,
      "t": 228358.10999999958,
      "d": 671.6414999999979,
      "v": 127
    },
    {
      "midi": 67,
      "hit": false,
      "t": 228358.10999999958,
      "d": 671.6414999999979,
      "v": 115
    },
    {
      "midi": 72,
      "hit": false,
      "t": 228805.87099999978,
      "d": 223.8804999999993,
      "v": 123
    },
    {
      "midi": 74,
      "hit": false,
      "t": 229029.75149999978,
      "d": 223.8804999999993,
      "v": 121
    },
    {
      "midi": 41,
      "hit": false,
      "t": 229253.63199999958,
      "d": 671.6414999999979,
      "v": 106
    },
    {
      "midi": 60,
      "hit": false,
      "t": 229253.63199999958,
      "d": 671.6414999999979,
      "v": 74
    },
    {
      "midi": 65,
      "hit": false,
      "t": 229253.63199999958,
      "d": 671.6414999999979,
      "v": 127
    },
    {
      "midi": 69,
      "hit": false,
      "t": 229253.63199999958,
      "d": 671.6414999999979,
      "v": 127
    },
    {
      "midi": 72,
      "hit": false,
      "t": 229253.63199999978,
      "d": 895.5219999999972,
      "v": 127
    },
    {
      "midi": 48,
      "hit": false,
      "t": 229701.39299999957,
      "d": 223.8804999999993,
      "v": 106
    },
    {
      "midi": 33,
      "hit": false,
      "t": 230130.4972916664,
      "d": 107.27607291666209,
      "v": 127
    },
    {
      "midi": 39,
      "hit": false,
      "t": 230149.15399999957,
      "d": 223.8804999999993,
      "v": 110
    },
    {
      "midi": 46,
      "hit": false,
      "t": 230149.15399999957,
      "d": 223.8804999999993,
      "v": 94
    },
    {
      "midi": 58,
      "hit": false,
      "t": 230149.15399999957,
      "d": 223.8804999999993,
      "v": 127
    },
    {
      "midi": 63,
      "hit": false,
      "t": 230149.15399999957,
      "d": 223.8804999999993,
      "v": 118
    },
    {
      "midi": 67,
      "hit": false,
      "t": 230149.15399999957,
      "d": 223.8804999999993,
      "v": 115
    },
    {
      "midi": 70,
      "hit": false,
      "t": 230373.03449999978,
      "d": 223.8804999999993,
      "v": 126
    },
    {
      "midi": 41,
      "hit": false,
      "t": 230596.91499999957,
      "d": 223.8804999999993,
      "v": 115
    },
    {
      "midi": 60,
      "hit": false,
      "t": 230596.91499999957,
      "d": 223.8804999999993,
      "v": 118
    },
    {
      "midi": 65,
      "hit": false,
      "t": 230596.91499999957,
      "d": 223.8804999999993,
      "v": 115
    },
    {
      "midi": 69,
      "hit": false,
      "t": 230596.91499999957,
      "d": 223.8804999999993,
      "v": 127
    },
    {
      "midi": 70,
      "hit": false,
      "t": 230596.91499999978,
      "d": 223.8804999999993,
      "v": 121
    },
    {
      "midi": 72,
      "hit": false,
      "t": 230820.79549999977,
      "d": 223.8804999999993,
      "v": 115
    },
    {
      "midi": 62,
      "hit": false,
      "t": 231044.67599999957,
      "d": 671.6414999999979,
      "v": 118
    },
    {
      "midi": 65,
      "hit": false,
      "t": 231044.67599999957,
      "d": 671.6414999999979,
      "v": 99
    },
    {
      "midi": 34,
      "hit": false,
      "t": 231044.67599999957,
      "d": 1343.2829999999958,
      "v": 110
    },
    {
      "midi": 58,
      "hit": false,
      "t": 231044.67599999957,
      "d": 1343.2829999999958,
      "v": 110
    },
    {
      "midi": 74,
      "hit": false,
      "t": 231044.67599999977,
      "d": 223.8804999999993,
      "v": 127
    },
    {
      "midi": 41,
      "hit": false,
      "t": 231268.55649999957,
      "d": 895.5219999999972,
      "v": 79
    },
    {
      "midi": 74,
      "hit": false,
      "t": 231492.43699999977,
      "d": 223.8804999999993,
      "v": 127
    },
    {
      "midi": 33,
      "hit": false,
      "t": 231921.5412916664,
      "d": 107.27607291666209,
      "v": 127
    },
    {
      "midi": 50,
      "hit": false,
      "t": 231940.19799999957,
      "d": 671.6414999999979,
      "v": 62
    },
    {
      "midi": 62,
      "hit": false,
      "t": 231940.19799999957,
      "d": 671.6414999999979,
      "v": 127
    },
    {
      "midi": 65,
      "hit": false,
      "t": 231940.19799999957,
      "d": 671.6414999999979,
      "v": 125
    },
    {
      "midi": 72,
      "hit": false,
      "t": 231940.19799999977,
      "d": 223.8804999999993,
      "v": 121
    },
    {
      "midi": 70,
      "hit": false,
      "t": 232164.07849999977,
      "d": 223.8804999999993,
      "v": 115
    },
    {
      "midi": 41,
      "hit": false,
      "t": 232387.95899999957,
      "d": 223.8804999999993,
      "v": 81
    },
    {
      "midi": 72,
      "hit": false,
      "t": 232611.83949999977,
      "d": 1119.4025000000256,
      "v": 127
    },
    {
      "midi": 65,
      "hit": false,
      "t": 232835.71999999956,
      "d": 671.6414999999979,
      "v": 127
    },
    {
      "midi": 69,
      "hit": false,
      "t": 232835.71999999956,
      "d": 671.6414999999979,
      "v": 118
    },
    {
      "midi": 60,
      "hit": false,
      "t": 232835.71999999956,
      "d": 895.5219999999972,
      "v": 106
    },
    {
      "midi": 36,
      "hit": false,
      "t": 232835.71999999956,
      "d": 1791.0439999999944,
      "v": 99
    },
    {
      "midi": 43,
      "hit": false,
      "t": 233059.60049999956,
      "d": 895.5219999999972,
      "v": 42
    },
    {
      "midi": 33,
      "hit": false,
      "t": 233712.5852916664,
      "d": 107.27607291666209,
      "v": 127
    },
    {
      "midi": 51,
      "hit": false,
      "t": 233731.24199999956,
      "d": 671.6414999999979,
      "v": 94
    },
    {
      "midi": 60,
      "hit": false,
      "t": 233731.24199999956,
      "d": 671.6414999999979,
      "v": 81
    },
    {
      "midi": 65,
      "hit": false,
      "t": 233731.24199999956,
      "d": 671.6414999999979,
      "v": 127
    },
    {
      "midi": 69,
      "hit": false,
      "t": 233731.24199999956,
      "d": 895.5219999999972,
      "v": 92
    },
    {
      "midi": 72,
      "hit": false,
      "t": 233955.1224999998,
      "d": 223.8804999999993,
      "v": 127
    },
    {
      "midi": 43,
      "hit": false,
      "t": 234179.00299999956,
      "d": 447.7609999999986,
      "v": 103
    },
    {
      "midi": 72,
      "hit": false,
      "t": 234179.0029999998,
      "d": 223.8804999999993,
      "v": 123
    },
    {
      "midi": 74,
      "hit": false,
      "t": 234402.8834999998,
      "d": 223.8804999999993,
      "v": 126
    },
    {
      "midi": 60,
      "hit": false,
      "t": 234626.76399999956,
      "d": 447.7609999999986,
      "v": 110
    },
    {
      "midi": 36,
      "hit": false,
      "t": 234626.76399999956,
      "d": 1567.163499999995,
      "v": 125
    },
    {
      "midi": 75,
      "hit": false,
      "t": 234626.7639999998,
      "d": 223.8804999999993,
      "v": 123
    },
    {
      "midi": 43,
      "hit": false,
      "t": 234850.64449999956,
      "d": 895.5219999999972,
      "v": 26
    },
    {
      "midi": 63,
      "hit": false,
      "t": 235074.52499999956,
      "d": 223.8804999999993,
      "v": 66
    },
    {
      "midi": 67,
      "hit": false,
      "t": 235074.52499999956,
      "d": 223.8804999999993,
      "v": 29
    },
    {
      "midi": 75,
      "hit": false,
      "t": 235074.5249999998,
      "d": 223.8804999999993,
      "v": 127
    },
    {
      "midi": 33,
      "hit": false,
      "t": 235503.62929166638,
      "d": 107.27607291666209,
      "v": 127
    },
    {
      "midi": 51,
      "hit": false,
      "t": 235522.28599999956,
      "d": 671.6414999999979,
      "v": 81
    },
    {
      "midi": 63,
      "hit": false,
      "t": 235522.28599999956,
      "d": 671.6414999999979,
      "v": 127
    },
    {
      "midi": 60,
      "hit": false,
      "t": 235522.28599999956,
      "d": 895.5219999999972,
      "v": 99
    },
    {
      "midi": 67,
      "hit": false,
      "t": 235522.28599999956,
      "d": 895.5219999999972,
      "v": 125
    },
    {
      "midi": 75,
      "hit": false,
      "t": 235522.2859999998,
      "d": 223.8804999999993,
      "v": 127
    },
    {
      "midi": 72,
      "hit": false,
      "t": 235746.1664999998,
      "d": 223.8804999999993,
      "v": 121
    },
    {
      "midi": 43,
      "hit": false,
      "t": 235970.04699999955,
      "d": 447.7609999999986,
      "v": 79
    },
    {
      "midi": 74,
      "hit": false,
      "t": 236193.9274999998,
      "d": 1343.2829999999958,
      "v": 127
    },
    {
      "midi": 58,
      "hit": false,
      "t": 236417.80799999955,
      "d": 223.8804999999993,
      "v": 79
    },
    {
      "midi": 62,
      "hit": false,
      "t": 236417.80799999955,
      "d": 447.7609999999986,
      "v": 127
    },
    {
      "midi": 34,
      "hit": false,
      "t": 236417.80799999955,
      "d": 1343.2829999999958,
      "v": 62
    },
    {
      "midi": 58,
      "hit": false,
      "t": 236865.56899999955,
      "d": 223.8804999999993,
      "v": 81
    },
    {
      "midi": 45,
      "hit": false,
      "t": 236865.56899999955,
      "d": 1343.2829999999958,
      "v": 36
    },
    {
      "midi": 33,
      "hit": false,
      "t": 237294.67329166638,
      "d": 107.27607291666209,
      "v": 127
    },
    {
      "midi": 58,
      "hit": false,
      "t": 237313.32999999955,
      "d": 223.8804999999993,
      "v": 125
    },
    {
      "midi": 62,
      "hit": false,
      "t": 237313.32999999955,
      "d": 447.7609999999986,
      "v": 127
    },
    {
      "midi": 67,
      "hit": false,
      "t": 237313.32999999955,
      "d": 895.5219999999972,
      "v": 115
    },
    {
      "midi": 58,
      "hit": false,
      "t": 237761.09099999955,
      "d": 223.8804999999993,
      "v": 127
    },
    {
      "midi": 74,
      "hit": false,
      "t": 237761.09099999978,
      "d": 223.8804999999993,
      "v": 127
    },
    {
      "midi": 75,
      "hit": false,
      "t": 237984.97149999978,
      "d": 223.8804999999993,
      "v": 123
    },
    {
      "midi": 58,
      "hit": false,
      "t": 238208.85199999955,
      "d": 671.6414999999979,
      "v": 99
    },
    {
      "midi": 63,
      "hit": false,
      "t": 238208.85199999955,
      "d": 671.6414999999979,
      "v": 127
    },
    {
      "midi": 67,
      "hit": false,
      "t": 238208.85199999955,
      "d": 671.6414999999979,
      "v": 118
    },
    {
      "midi": 39,
      "hit": false,
      "t": 238208.85199999955,
      "d": 1567.163499999995,
      "v": 92
    },
    {
      "midi": 77,
      "hit": false,
      "t": 238208.85199999978,
      "d": 223.8804999999993,
      "v": 127
    },
    {
      "midi": 46,
      "hit": false,
      "t": 238656.61299999955,
      "d": 671.6414999999979,
      "v": 66
    },
    {
      "midi": 77,
      "hit": false,
      "t": 238656.61299999978,
      "d": 223.8804999999993,
      "v": 127
    },
    {
      "midi": 33,
      "hit": false,
      "t": 239085.71729166637,
      "d": 107.27607291666209,
      "v": 127
    },
    {
      "midi": 55,
      "hit": false,
      "t": 239104.37399999955,
      "d": 447.7609999999986,
      "v": 46
    },
    {
      "midi": 58,
      "hit": false,
      "t": 239104.37399999955,
      "d": 671.6414999999979,
      "v": 105
    },
    {
      "midi": 63,
      "hit": false,
      "t": 239104.37399999955,
      "d": 671.6414999999979,
      "v": 127
    },
    {
      "midi": 67,
      "hit": false,
      "t": 239104.37399999955,
      "d": 671.6414999999979,
      "v": 110
    },
    {
      "midi": 75,
      "hit": false,
      "t": 239104.37399999978,
      "d": 223.8804999999993,
      "v": 127
    },
    {
      "midi": 74,
      "hit": false,
      "t": 239328.25449999978,
      "d": 223.8804999999993,
      "v": 123
    },
    {
      "midi": 46,
      "hit": false,
      "t": 239552.13499999954,
      "d": 223.8804999999993,
      "v": 30
    },
    {
      "midi": 60,
      "hit": false,
      "t": 239776.01549999954,
      "d": 671.6414999999979,
      "v": 92
    },
    {
      "midi": 79,
      "hit": false,
      "t": 239776.01549999975,
      "d": 671.6414999999979,
      "v": 127
    },
    {
      "midi": 63,
      "hit": false,
      "t": 239999.89599999954,
      "d": 671.6414999999979,
      "v": 115
    },
    {
      "midi": 67,
      "hit": false,
      "t": 239999.89599999954,
      "d": 671.6414999999979,
      "v": 118
    },
    {
      "midi": 36,
      "hit": false,
      "t": 239999.89599999954,
      "d": 1343.2829999999958,
      "v": 77
    },
    {
      "midi": 60,
      "hit": false,
      "t": 240447.65699999954,
      "d": 671.6414999999979,
      "v": 79
    },
    {
      "midi": 43,
      "hit": false,
      "t": 240447.65699999954,
      "d": 1119.4024999999965,
      "v": 92
    },
    {
      "midi": 77,
      "hit": false,
      "t": 240671.53749999974,
      "d": 223.8804999999993,
      "v": 115
    },
    {
      "midi": 33,
      "hit": false,
      "t": 240876.76129166636,
      "d": 107.27607291666209,
      "v": 127
    },
    {
      "midi": 63,
      "hit": false,
      "t": 240895.41799999954,
      "d": 447.7609999999986,
      "v": 127
    },
    {
      "midi": 51,
      "hit": false,
      "t": 240895.41799999954,
      "d": 671.6414999999979,
      "v": 66
    },
    {
      "midi": 67,
      "hit": false,
      "t": 240895.41799999954,
      "d": 671.6414999999979,
      "v": 115
    },
    {
      "midi": 75,
      "hit": false,
      "t": 240895.41799999974,
      "d": 447.7609999999986,
      "v": 121
    },
    {
      "midi": 74,
      "hit": false,
      "t": 241119.29849999974,
      "d": 671.6414999999979,
      "v": 121
    },
    {
      "midi": 60,
      "hit": false,
      "t": 241343.17899999954,
      "d": 223.8804999999993,
      "v": 61
    },
    {
      "midi": 63,
      "hit": false,
      "t": 241343.17899999954,
      "d": 223.8804999999993,
      "v": 20
    },
    {
      "midi": 39,
      "hit": false,
      "t": 241790.93999999954,
      "d": 3358.2074999999895,
      "v": 99
    },
    {
      "midi": 70,
      "hit": false,
      "t": 241790.93999999974,
      "d": 6296.639062500006,
      "v": 105
    },
    {
      "midi": 46,
      "hit": false,
      "t": 242238.70099999954,
      "d": 3134.32699999999,
      "v": 30
    },
    {
      "midi": 33,
      "hit": false,
      "t": 242667.80529166636,
      "d": 107.27607291666209,
      "v": 127
    },
    {
      "midi": 58,
      "hit": false,
      "t": 242686.46199999953,
      "d": 223.8804999999993,
      "v": 34
    },
    {
      "midi": 62,
      "hit": false,
      "t": 242686.46199999953,
      "d": 223.8804999999993,
      "v": 77
    },
    {
      "midi": 55,
      "hit": false,
      "t": 242686.46199999953,
      "d": 895.5219999999972,
      "v": 30
    },
    {
      "midi": 58,
      "hit": false,
      "t": 243134.22299999953,
      "d": 1343.2829999999958,
      "v": 92
    },
    {
      "midi": 62,
      "hit": false,
      "t": 243134.22299999953,
      "d": 1567.163499999995,
      "v": 88
    },
    {
      "midi": 67,
      "hit": false,
      "t": 243134.22299999953,
      "d": 3582.087999999989,
      "v": 73
    },
    {
      "midi": 33,
      "hit": false,
      "t": 244458.84929166635,
      "d": 107.27607291666209,
      "v": 127
    },
    {
      "midi": 55,
      "hit": false,
      "t": 244477.50599999953,
      "d": 447.7609999999986,
      "v": 55
    },
    {
      "midi": 58,
      "hit": false,
      "t": 244925.26699999953,
      "d": 1567.163499999995,
      "v": 55
    },
    {
      "midi": 39,
      "hit": false,
      "t": 245373.02799999953,
      "d": 1343.2829999999958,
      "v": 79
    },
    {
      "midi": 46,
      "hit": false,
      "t": 245820.78899999952,
      "d": 1119.4024999999965,
      "v": 30
    },
    {
      "midi": 33,
      "hit": false,
      "t": 246249.89329166635,
      "d": 107.27607291666209,
      "v": 127
    },
    {
      "midi": 55,
      "hit": false,
      "t": 246268.54999999952,
      "d": 447.7609999999986,
      "v": 66
    },
    {
      "midi": 62,
      "hit": false,
      "t": 246716.31099999952,
      "d": 223.8804999999993,
      "v": 68
    },
    {
      "midi": 58,
      "hit": false,
      "t": 246716.31099999952,
      "d": 447.7609999999986,
      "v": 44
    },
    {
      "midi": 38,
      "hit": false,
      "t": 247164.07199999952,
      "d": 1567.163499999995,
      "v": 92
    },
    {
      "midi": 45,
      "hit": false,
      "t": 247164.07199999952,
      "d": 1791.0439999999944,
      "v": 106
    },
    {
      "midi": 69,
      "hit": false,
      "t": 248026.9447604164,
      "d": 932.8354166666686,
      "v": 121
    },
    {
      "midi": 33,
      "hit": false,
      "t": 248040.93729166634,
      "d": 107.27607291666209,
      "v": 127
    },
    {
      "midi": 50,
      "hit": false,
      "t": 248059.59399999952,
      "d": 671.6414999999979,
      "v": 79
    },
    {
      "midi": 54,
      "hit": false,
      "t": 248059.59399999952,
      "d": 671.6414999999979,
      "v": 77
    },
    {
      "midi": 57,
      "hit": false,
      "t": 248059.59399999952,
      "d": 671.6414999999979,
      "v": 63
    },
    {
      "midi": 62,
      "hit": false,
      "t": 248955.1159999995,
      "d": 671.6414999999979,
      "v": 127
    },
    {
      "midi": 67,
      "hit": false,
      "t": 248955.1159999995,
      "d": 671.6414999999979,
      "v": 127
    },
    {
      "midi": 58,
      "hit": false,
      "t": 248955.1159999995,
      "d": 895.5219999999972,
      "v": 77
    },
    {
      "midi": 43,
      "hit": false,
      "t": 248955.1159999995,
      "d": 1567.163499999995,
      "v": 127
    },
    {
      "midi": 67,
      "hit": false,
      "t": 248955.11599999975,
      "d": 895.5219999999972,
      "v": 127
    },
    {
      "midi": 50,
      "hit": false,
      "t": 249402.8769999995,
      "d": 671.6414999999979,
      "v": 86
    },
    {
      "midi": 58,
      "hit": false,
      "t": 249850.6379999995,
      "d": 671.6414999999979,
      "v": 127
    },
    {
      "midi": 62,
      "hit": false,
      "t": 249850.6379999995,
      "d": 671.6414999999979,
      "v": 127
    },
    {
      "midi": 67,
      "hit": false,
      "t": 249850.6379999995,
      "d": 895.5219999999972,
      "v": 118
    },
    {
      "midi": 70,
      "hit": false,
      "t": 249850.63799999974,
      "d": 447.7609999999986,
      "v": 121
    },
    {
      "midi": 50,
      "hit": false,
      "t": 250298.3989999995,
      "d": 223.8804999999993,
      "v": 125
    },
    {
      "midi": 69,
      "hit": false,
      "t": 250298.39899999974,
      "d": 447.7610000000277,
      "v": 112
    },
    {
      "midi": 47,
      "hit": false,
      "t": 250522.2794999995,
      "d": 223.8804999999993,
      "v": 52
    },
    {
      "midi": 58,
      "hit": false,
      "t": 250746.1599999995,
      "d": 671.6414999999979,
      "v": 115
    },
    {
      "midi": 63,
      "hit": false,
      "t": 250746.1599999995,
      "d": 671.6414999999979,
      "v": 118
    },
    {
      "midi": 67,
      "hit": false,
      "t": 250746.1599999995,
      "d": 671.6414999999979,
      "v": 127
    },
    {
      "midi": 39,
      "hit": false,
      "t": 250746.1599999995,
      "d": 1343.2829999999958,
      "v": 127
    },
    {
      "midi": 70,
      "hit": false,
      "t": 250746.15999999977,
      "d": 1119.4024999999965,
      "v": 123
    },
    {
      "midi": 46,
      "hit": false,
      "t": 251193.9209999995,
      "d": 671.6414999999979,
      "v": 89
    },
    {
      "midi": 58,
      "hit": false,
      "t": 251641.6819999995,
      "d": 447.7609999999986,
      "v": 127
    },
    {
      "midi": 63,
      "hit": false,
      "t": 251641.6819999995,
      "d": 671.6414999999979,
      "v": 110
    },
    {
      "midi": 55,
      "hit": false,
      "t": 251641.6819999995,
      "d": 895.5219999999972,
      "v": 79
    },
    {
      "midi": 67,
      "hit": false,
      "t": 251641.6819999995,
      "d": 895.5219999999972,
      "v": 118
    },
    {
      "midi": 46,
      "hit": false,
      "t": 252089.4429999995,
      "d": 447.7609999999986,
      "v": 106
    },
    {
      "midi": 70,
      "hit": false,
      "t": 252089.44299999977,
      "d": 223.8804999999993,
      "v": 127
    },
    {
      "midi": 72,
      "hit": false,
      "t": 252313.32349999977,
      "d": 223.8804999999993,
      "v": 106
    },
    {
      "midi": 65,
      "hit": false,
      "t": 252537.2039999995,
      "d": 671.6414999999979,
      "v": 127
    },
    {
      "midi": 69,
      "hit": false,
      "t": 252537.2039999995,
      "d": 671.6414999999979,
      "v": 127
    },
    {
      "midi": 60,
      "hit": false,
      "t": 252537.2039999995,
      "d": 895.5219999999972,
      "v": 99
    },
    {
      "midi": 41,
      "hit": false,
      "t": 252537.2039999995,
      "d": 1791.0439999999944,
      "v": 99
    },
    {
      "midi": 69,
      "hit": false,
      "t": 252537.20399999977,
      "d": 223.8804999999993,
      "v": 113
    },
    {
      "midi": 67,
      "hit": false,
      "t": 252761.08449999976,
      "d": 223.8804999999993,
      "v": 115
    },
    {
      "midi": 48,
      "hit": false,
      "t": 252984.9649999995,
      "d": 671.6414999999979,
      "v": 125
    },
    {
      "midi": 65,
      "hit": false,
      "t": 252984.96499999976,
      "d": 2910.446499999991,
      "v": 127
    },
    {
      "midi": 57,
      "hit": false,
      "t": 253432.7259999995,
      "d": 223.8804999999993,
      "v": 79
    },
    {
      "midi": 65,
      "hit": false,
      "t": 253432.7259999995,
      "d": 447.7609999999986,
      "v": 127
    },
    {
      "midi": 60,
      "hit": false,
      "t": 253432.7259999995,
      "d": 671.6414999999979,
      "v": 115
    },
    {
      "midi": 69,
      "hit": false,
      "t": 253432.7259999995,
      "d": 671.6414999999979,
      "v": 97
    },
    {
      "midi": 48,
      "hit": false,
      "t": 253880.4869999995,
      "d": 223.8804999999993,
      "v": 127
    },
    {
      "midi": 57,
      "hit": false,
      "t": 254104.3674999995,
      "d": 223.8804999999993,
      "v": 127
    },
    {
      "midi": 62,
      "hit": false,
      "t": 254104.3674999995,
      "d": 223.8804999999993,
      "v": 55
    },
    {
      "midi": 62,
      "hit": false,
      "t": 254328.2479999995,
      "d": 447.7609999999986,
      "v": 127
    },
    {
      "midi": 38,
      "hit": false,
      "t": 254328.2479999995,
      "d": 1567.163499999995,
      "v": 127
    },
    {
      "midi": 65,
      "hit": false,
      "t": 254328.2479999995,
      "d": 1567.163499999995,
      "v": 125
    },
    {
      "midi": 57,
      "hit": false,
      "t": 254776.0089999995,
      "d": 223.8804999999993,
      "v": 99
    },
    {
      "midi": 45,
      "hit": false,
      "t": 254776.0089999995,
      "d": 671.6414999999979,
      "v": 92
    },
    {
      "midi": 53,
      "hit": false,
      "t": 254999.8894999995,
      "d": 895.5219999999972,
      "v": 62
    },
    {
      "midi": 57,
      "hit": false,
      "t": 255223.7699999995,
      "d": 447.7609999999986,
      "v": 127
    },
    {
      "midi": 62,
      "hit": false,
      "t": 255223.7699999995,
      "d": 671.6414999999979,
      "v": 20
    },
    {
      "midi": 45,
      "hit": false,
      "t": 255671.5309999995,
      "d": 223.8804999999993,
      "v": 127
    },
    {
      "midi": 64,
      "hit": false,
      "t": 255895.4114999995,
      "d": 223.8804999999702,
      "v": 18
    },
    {
      "midi": 62,
      "hit": false,
      "t": 256119.29199999946,
      "d": 671.6414999999979,
      "v": 127
    },
    {
      "midi": 67,
      "hit": false,
      "t": 256119.29199999946,
      "d": 671.6414999999979,
      "v": 127
    },
    {
      "midi": 58,
      "hit": false,
      "t": 256119.29199999946,
      "d": 895.5219999999972,
      "v": 106
    },
    {
      "midi": 39,
      "hit": false,
      "t": 256119.29199999946,
      "d": 1791.0439999999944,
      "v": 16
    },
    {
      "midi": 67,
      "hit": false,
      "t": 256119.29199999975,
      "d": 895.5220000000263,
      "v": 127
    },
    {
      "midi": 46,
      "hit": false,
      "t": 256567.05299999946,
      "d": 223.8804999999993,
      "v": 99
    },
    {
      "midi": 46,
      "hit": false,
      "t": 257014.81399999946,
      "d": 223.8804999999993,
      "v": 77
    },
    {
      "midi": 55,
      "hit": false,
      "t": 257014.81399999946,
      "d": 447.7609999999986,
      "v": 92
    },
    {
      "midi": 58,
      "hit": false,
      "t": 257014.81399999946,
      "d": 447.7609999999986,
      "v": 103
    },
    {
      "midi": 62,
      "hit": false,
      "t": 257014.81399999946,
      "d": 671.6414999999979,
      "v": 127
    },
    {
      "midi": 67,
      "hit": false,
      "t": 257014.81399999946,
      "d": 895.5219999999972,
      "v": 118
    },
    {
      "midi": 70,
      "hit": false,
      "t": 257014.81399999978,
      "d": 223.8804999999993,
      "v": 126
    },
    {
      "midi": 46,
      "hit": false,
      "t": 257462.57499999946,
      "d": 223.8804999999993,
      "v": 115
    },
    {
      "midi": 69,
      "hit": false,
      "t": 257462.57499999978,
      "d": 447.7609999999986,
      "v": 127
    },
    {
      "midi": 44,
      "hit": false,
      "t": 257686.45549999946,
      "d": 223.8804999999993,
      "v": 42
    },
    {
      "midi": 60,
      "hit": false,
      "t": 257910.33599999946,
      "d": 671.6414999999979,
      "v": 92
    },
    {
      "midi": 63,
      "hit": false,
      "t": 257910.33599999946,
      "d": 671.6414999999979,
      "v": 127
    },
    {
      "midi": 67,
      "hit": false,
      "t": 257910.33599999946,
      "d": 671.6414999999979,
      "v": 127
    },
    {
      "midi": 36,
      "hit": false,
      "t": 257910.33599999946,
      "d": 1567.163499999995,
      "v": 127
    },
    {
      "midi": 70,
      "hit": false,
      "t": 257910.33599999978,
      "d": 1343.2829999999958,
      "v": 121
    },
    {
      "midi": 43,
      "hit": false,
      "t": 258358.09699999946,
      "d": 671.6414999999979,
      "v": 86
    },
    {
      "midi": 51,
      "hit": false,
      "t": 258805.85799999945,
      "d": 671.6414999999979,
      "v": 86
    },
    {
      "midi": 60,
      "hit": false,
      "t": 258805.85799999945,
      "d": 671.6414999999979,
      "v": 118
    },
    {
      "midi": 63,
      "hit": false,
      "t": 258805.85799999945,
      "d": 671.6414999999979,
      "v": 127
    },
    {
      "midi": 67,
      "hit": false,
      "t": 258805.85799999945,
      "d": 895.5219999999972,
      "v": 94
    },
    {
      "midi": 43,
      "hit": false,
      "t": 259253.61899999945,
      "d": 447.7609999999986,
      "v": 97
    },
    {
      "midi": 72,
      "hit": false,
      "t": 259253.61899999977,
      "d": 447.7609999999986,
      "v": 121
    },
    {
      "midi": 81,
      "hit": false,
      "t": 259682.72329166645,
      "d": 895.5219999999972,
      "v": 127
    },
    {
      "midi": 38,
      "hit": false,
      "t": 259701.37999999945,
      "d": 2686.5660000000207,
      "v": 88
    },
    {
      "midi": 45,
      "hit": false,
      "t": 260149.14099999945,
      "d": 2462.6855000000505,
      "v": 36
    },
    {
      "midi": 77,
      "hit": false,
      "t": 260564.25276041645,
      "d": 2756.5286562500114,
      "v": 127
    },
    {
      "midi": 57,
      "hit": false,
      "t": 260596.90199999945,
      "d": 223.8804999999993,
      "v": 79
    },
    {
      "midi": 60,
      "hit": false,
      "t": 260596.90199999945,
      "d": 223.8804999999993,
      "v": 73
    },
    {
      "midi": 53,
      "hit": false,
      "t": 260596.90199999945,
      "d": 1119.4024999999965,
      "v": 14
    },
    {
      "midi": 57,
      "hit": false,
      "t": 261044.66299999945,
      "d": 223.8804999999993,
      "v": 89
    },
    {
      "midi": 62,
      "hit": false,
      "t": 261044.66299999945,
      "d": 447.7609999999986,
      "v": 105
    },
    {
      "midi": 57,
      "hit": false,
      "t": 261268.54349999945,
      "d": 895.5219999999972,
      "v": 115
    },
    {
      "midi": 60,
      "hit": false,
      "t": 261492.42399999945,
      "d": 671.6414999999979,
      "v": 99
    },
    {
      "midi": 65,
      "hit": false,
      "t": 261492.42399999945,
      "d": 671.6414999999979,
      "v": 118
    },
    {
      "midi": 62,
      "hit": false,
      "t": 262387.9459999995,
      "d": 223.8805000000284,
      "v": 127
    },
    {
      "midi": 57,
      "hit": false,
      "t": 262387.9459999995,
      "d": 447.7610000000568,
      "v": 105
    },
    {
      "midi": 53,
      "hit": false,
      "t": 262387.9459999995,
      "d": 671.6415000000852,
      "v": 20
    },
    {
      "midi": 58,
      "hit": false,
      "t": 263059.58749999956,
      "d": 1119.4025000000256,
      "v": 99
    },
    {
      "midi": 43,
      "hit": false,
      "t": 263059.58749999956,
      "d": 5820.893000000273,
      "v": 106
    },
    {
      "midi": 79,
      "hit": false,
      "t": 263274.1396458331,
      "d": 3572.759645833343,
      "v": 127
    },
    {
      "midi": 62,
      "hit": false,
      "t": 263283.4679999995,
      "d": 1119.4025000000838,
      "v": 106
    },
    {
      "midi": 67,
      "hit": false,
      "t": 263283.4679999995,
      "d": 1119.4025000000838,
      "v": 79
    },
    {
      "midi": 50,
      "hit": false,
      "t": 263507.34849999956,
      "d": 5373.132000000274,
      "v": 20
    },
    {
      "midi": 57,
      "hit": false,
      "t": 264178.9899999996,
      "d": 1567.1635000001406,
      "v": 68
    },
    {
      "midi": 58,
      "hit": false,
      "t": 264402.8704999996,
      "d": 447.7610000000568,
      "v": 92
    },
    {
      "midi": 62,
      "hit": false,
      "t": 264626.75099999964,
      "d": 223.8805000000284,
      "v": 92
    },
    {
      "midi": 70,
      "hit": false,
      "t": 264626.75099999964,
      "d": 223.8805000000284,
      "v": 97
    },
    {
      "midi": 58,
      "hit": false,
      "t": 264850.63149999967,
      "d": 895.5220000000554,
      "v": 68
    },
    {
      "midi": 62,
      "hit": false,
      "t": 265074.5119999997,
      "d": 671.641500000027,
      "v": 73
    },
    {
      "midi": 69,
      "hit": false,
      "t": 265074.5119999997,
      "d": 895.5220000000554,
      "v": 115
    },
    {
      "midi": 58,
      "hit": false,
      "t": 265746.1534999997,
      "d": 671.641500000027,
      "v": 73
    },
    {
      "midi": 57,
      "hit": false,
      "t": 265970.03399999975,
      "d": 447.7609999999986,
      "v": 1
    },
    {
      "midi": 62,
      "hit": false,
      "t": 265970.03399999975,
      "d": 671.641500000027,
      "v": 68
    },
    {
      "midi": 65,
      "hit": false,
      "t": 265970.03399999975,
      "d": 895.5220000000554,
      "v": 73
    },
    {
      "midi": 55,
      "hit": false,
      "t": 266865.5559999998,
      "d": 2014.9245000000228,
      "v": 26
    },
    {
      "midi": 58,
      "hit": false,
      "t": 266865.5559999998,
      "d": 2014.9245000000228,
      "v": 61
    },
    {
      "midi": 62,
      "hit": false,
      "t": 266865.5559999998,
      "d": 2014.9245000000228,
      "v": 89
    },
    {
      "midi": 67,
      "hit": false,
      "t": 267089.43649999984,
      "d": 1791.0439999999944,
      "v": 61
    }
  ]
}