{
  "jsonPath": "Rock/Folk Rock/Bobby Vee/the-night-has-a-thousand-eyes.json",
  "path": "Rock\\Folk Rock\\Bobby Vee\\The Night Has a Thousand Eyes.mid",
  "name": "The Night Has a Thousand Eyes",
  "difficulty": "Advanced",
  "bpm": 97.00010993345792,
  "notes": [
    {
      "midi": 58,
      "hit": false,
      "t": 2474.224,
      "d": 115.97924999999987,
      "v": 85
    },
    {
      "midi": 63,
      "hit": false,
      "t": 2474.224,
      "d": 115.97924999999987,
      "v": 107
    },
    {
      "midi": 67,
      "hit": false,
      "t": 2474.224,
      "d": 115.97924999999987,
      "v": 89
    },
    {
      "midi": 51,
      "hit": false,
      "t": 2474.224,
      "d": 135.30912499999977,
      "v": 107
    },
    {
      "midi": 63,
      "hit": false,
      "t": 2783.502,
      "d": 45.10304166666674,
      "v": 93
    },
    {
      "midi": 58,
      "hit": false,
      "t": 2783.502,
      "d": 51.54633333333322,
      "v": 68
    },
    {
      "midi": 67,
      "hit": false,
      "t": 2783.502,
      "d": 51.54633333333322,
      "v": 76
    },
    {
      "midi": 51,
      "hit": false,
      "t": 2783.502,
      "d": 57.989624999999705,
      "v": 98
    },
    {
      "midi": 51,
      "hit": false,
      "t": 2938.1409999999996,
      "d": 148.1957083333332,
      "v": 107
    },
    {
      "midi": 58,
      "hit": false,
      "t": 2938.1409999999996,
      "d": 148.1957083333332,
      "v": 76
    },
    {
      "midi": 63,
      "hit": false,
      "t": 2938.1409999999996,
      "d": 154.63899999999967,
      "v": 98
    },
    {
      "midi": 67,
      "hit": false,
      "t": 2938.1409999999996,
      "d": 167.5255833333331,
      "v": 89
    },
    {
      "midi": 58,
      "hit": false,
      "t": 3247.4189999999994,
      "d": 25.77316666666684,
      "v": 34
    },
    {
      "midi": 63,
      "hit": false,
      "t": 3247.4189999999994,
      "d": 38.65975000000026,
      "v": 76
    },
    {
      "midi": 67,
      "hit": false,
      "t": 3247.4189999999994,
      "d": 38.65975000000026,
      "v": 62
    },
    {
      "midi": 63,
      "hit": false,
      "t": 3402.0579999999995,
      "d": 64.43291666666664,
      "v": 107
    },
    {
      "midi": 67,
      "hit": false,
      "t": 3402.0579999999995,
      "d": 70.87620833333312,
      "v": 102
    },
    {
      "midi": 58,
      "hit": false,
      "t": 3402.0579999999995,
      "d": 77.3194999999996,
      "v": 89
    },
    {
      "midi": 51,
      "hit": false,
      "t": 3402.0579999999995,
      "d": 83.76279166666609,
      "v": 119
    },
    {
      "midi": 54,
      "hit": false,
      "t": 3711.335999999999,
      "d": 122.4225416666668,
      "v": 93
    },
    {
      "midi": 58,
      "hit": false,
      "t": 3711.335999999999,
      "d": 135.30912500000022,
      "v": 107
    },
    {
      "midi": 61,
      "hit": false,
      "t": 3711.335999999999,
      "d": 141.7524166666667,
      "v": 107
    },
    {
      "midi": 42,
      "hit": false,
      "t": 3711.335999999999,
      "d": 154.63900000000012,
      "v": 113
    },
    {
      "midi": 54,
      "hit": false,
      "t": 4020.6139999999987,
      "d": 57.98962500000016,
      "v": 93
    },
    {
      "midi": 58,
      "hit": false,
      "t": 4020.6139999999987,
      "d": 57.98962500000016,
      "v": 98
    },
    {
      "midi": 42,
      "hit": false,
      "t": 4020.6139999999987,
      "d": 70.87620833333358,
      "v": 93
    },
    {
      "midi": 61,
      "hit": false,
      "t": 4020.6139999999987,
      "d": 70.87620833333358,
      "v": 98
    },
    {
      "midi": 56,
      "hit": false,
      "t": 4175.252999999999,
      "d": 103.09266666666645,
      "v": 93
    },
    {
      "midi": 60,
      "hit": false,
      "t": 4175.252999999999,
      "d": 103.09266666666645,
      "v": 107
    },
    {
      "midi": 44,
      "hit": false,
      "t": 4175.252999999999,
      "d": 115.97924999999941,
      "v": 107
    },
    {
      "midi": 63,
      "hit": false,
      "t": 4175.252999999999,
      "d": 128.86583333333238,
      "v": 107
    },
    {
      "midi": 56,
      "hit": false,
      "t": 4484.530999999998,
      "d": 51.54633333333368,
      "v": 85
    },
    {
      "midi": 60,
      "hit": false,
      "t": 4484.530999999998,
      "d": 51.54633333333368,
      "v": 93
    },
    {
      "midi": 63,
      "hit": false,
      "t": 4484.530999999998,
      "d": 77.31950000000052,
      "v": 102
    },
    {
      "midi": 53,
      "hit": false,
      "t": 4639.169999999998,
      "d": 57.98962500000016,
      "v": 89
    },
    {
      "midi": 58,
      "hit": false,
      "t": 4639.169999999998,
      "d": 83.762791666667,
      "v": 93
    },
    {
      "midi": 62,
      "hit": false,
      "t": 4639.169999999998,
      "d": 83.762791666667,
      "v": 98
    },
    {
      "midi": 46,
      "hit": false,
      "t": 4639.169999999998,
      "d": 90.20608333333348,
      "v": 107
    },
    {
      "midi": 65,
      "hit": false,
      "t": 4639.169999999998,
      "d": 103.09266666666645,
      "v": 102
    },
    {
      "midi": 63,
      "hit": false,
      "t": 4948.447999999998,
      "d": 173.96887499999957,
      "v": 102
    },
    {
      "midi": 58,
      "hit": false,
      "t": 4948.447999999998,
      "d": 186.85545833333254,
      "v": 72
    },
    {
      "midi": 67,
      "hit": false,
      "t": 4948.447999999998,
      "d": 186.85545833333254,
      "v": 85
    },
    {
      "midi": 51,
      "hit": false,
      "t": 4948.447999999998,
      "d": 206.1853333333329,
      "v": 119
    },
    {
      "midi": 63,
      "hit": false,
      "t": 5257.725999999997,
      "d": 45.103041666666286,
      "v": 80
    },
    {
      "midi": 51,
      "hit": false,
      "t": 5257.725999999997,
      "d": 51.54633333333277,
      "v": 60
    },
    {
      "midi": 67,
      "hit": false,
      "t": 5257.725999999997,
      "d": 51.54633333333277,
      "v": 72
    },
    {
      "midi": 58,
      "hit": false,
      "t": 5257.725999999997,
      "d": 57.98962499999925,
      "v": 64
    },
    {
      "midi": 58,
      "hit": false,
      "t": 5412.364999999996,
      "d": 64.43291666666664,
      "v": 93
    },
    {
      "midi": 63,
      "hit": false,
      "t": 5412.364999999996,
      "d": 77.3194999999996,
      "v": 119
    },
    {
      "midi": 67,
      "hit": false,
      "t": 5412.364999999996,
      "d": 90.20608333333257,
      "v": 107
    },
    {
      "midi": 51,
      "hit": false,
      "t": 5721.6429999999955,
      "d": 83.762791666667,
      "v": 113
    },
    {
      "midi": 63,
      "hit": false,
      "t": 5876.281999999996,
      "d": 64.43291666666664,
      "v": 113
    },
    {
      "midi": 58,
      "hit": false,
      "t": 5876.281999999996,
      "d": 70.87620833333312,
      "v": 85
    },
    {
      "midi": 67,
      "hit": false,
      "t": 5876.281999999996,
      "d": 77.3194999999996,
      "v": 98
    },
    {
      "midi": 54,
      "hit": false,
      "t": 6185.559999999995,
      "d": 173.96887500000048,
      "v": 93
    },
    {
      "midi": 61,
      "hit": false,
      "t": 6185.559999999995,
      "d": 180.41216666666696,
      "v": 102
    },
    {
      "midi": 58,
      "hit": false,
      "t": 6185.559999999995,
      "d": 186.85545833333344,
      "v": 107
    },
    {
      "midi": 42,
      "hit": false,
      "t": 6185.559999999995,
      "d": 212.62862500000028,
      "v": 107
    },
    {
      "midi": 58,
      "hit": false,
      "t": 6494.837999999995,
      "d": 57.98962500000016,
      "v": 89
    },
    {
      "midi": 54,
      "hit": false,
      "t": 6494.837999999995,
      "d": 64.43291666666664,
      "v": 85
    },
    {
      "midi": 61,
      "hit": false,
      "t": 6494.837999999995,
      "d": 70.87620833333312,
      "v": 93
    },
    {
      "midi": 60,
      "hit": false,
      "t": 6649.476999999995,
      "d": 96.64937499999996,
      "v": 113
    },
    {
      "midi": 56,
      "hit": false,
      "t": 6649.476999999995,
      "d": 103.09266666666645,
      "v": 89
    },
    {
      "midi": 63,
      "hit": false,
      "t": 6649.476999999995,
      "d": 115.97924999999941,
      "v": 107
    },
    {
      "midi": 44,
      "hit": false,
      "t": 6649.476999999995,
      "d": 128.86583333333238,
      "v": 107
    },
    {
      "midi": 60,
      "hit": false,
      "t": 6958.754999999995,
      "d": 45.103041666666286,
      "v": 93
    },
    {
      "midi": 56,
      "hit": false,
      "t": 6958.754999999995,
      "d": 51.54633333333277,
      "v": 85
    },
    {
      "midi": 63,
      "hit": false,
      "t": 6958.754999999995,
      "d": 77.3194999999996,
      "v": 107
    },
    {
      "midi": 58,
      "hit": false,
      "t": 7113.393999999994,
      "d": 90.20608333333348,
      "v": 89
    },
    {
      "midi": 62,
      "hit": false,
      "t": 7113.393999999994,
      "d": 90.20608333333348,
      "v": 102
    },
    {
      "midi": 53,
      "hit": false,
      "t": 7113.393999999994,
      "d": 103.09266666666645,
      "v": 89
    },
    {
      "midi": 65,
      "hit": false,
      "t": 7113.393999999994,
      "d": 103.09266666666645,
      "v": 98
    },
    {
      "midi": 46,
      "hit": false,
      "t": 7113.393999999994,
      "d": 109.53595833333293,
      "v": 107
    },
    {
      "midi": 58,
      "hit": false,
      "t": 7731.949999999993,
      "d": 64.43291666666664,
      "v": 55
    },
    {
      "midi": 51,
      "hit": false,
      "t": 7731.949999999993,
      "d": 70.87620833333312,
      "v": 93
    },
    {
      "midi": 63,
      "hit": false,
      "t": 7731.949999999993,
      "d": 70.87620833333312,
      "v": 98
    },
    {
      "midi": 67,
      "hit": false,
      "t": 7731.949999999993,
      "d": 70.87620833333312,
      "v": 68
    },
    {
      "midi": 63,
      "hit": false,
      "t": 7886.588999999994,
      "d": 57.98962500000016,
      "v": 89
    },
    {
      "midi": 67,
      "hit": false,
      "t": 7886.588999999994,
      "d": 83.762791666667,
      "v": 85
    },
    {
      "midi": 51,
      "hit": false,
      "t": 7886.588999999994,
      "d": 90.20608333333348,
      "v": 93
    },
    {
      "midi": 58,
      "hit": false,
      "t": 7886.588999999994,
      "d": 90.20608333333348,
      "v": 62
    },
    {
      "midi": 58,
      "hit": false,
      "t": 8350.505999999994,
      "d": 51.54633333333368,
      "v": 49
    },
    {
      "midi": 67,
      "hit": false,
      "t": 8350.505999999994,
      "d": 70.87620833333312,
      "v": 72
    },
    {
      "midi": 51,
      "hit": false,
      "t": 8350.505999999994,
      "d": 77.3194999999996,
      "v": 89
    },
    {
      "midi": 63,
      "hit": false,
      "t": 8350.505999999994,
      "d": 77.3194999999996,
      "v": 93
    },
    {
      "midi": 63,
      "hit": false,
      "t": 8505.144999999993,
      "d": 64.43291666666664,
      "v": 98
    },
    {
      "midi": 67,
      "hit": false,
      "t": 8505.144999999993,
      "d": 70.87620833333312,
      "v": 89
    },
    {
      "midi": 58,
      "hit": false,
      "t": 8505.144999999993,
      "d": 77.3194999999996,
      "v": 76
    },
    {
      "midi": 51,
      "hit": false,
      "t": 8505.144999999993,
      "d": 90.20608333333257,
      "v": 93
    },
    {
      "midi": 58,
      "hit": false,
      "t": 8969.061999999993,
      "d": 57.98962500000016,
      "v": 64
    },
    {
      "midi": 63,
      "hit": false,
      "t": 8969.061999999993,
      "d": 70.87620833333312,
      "v": 98
    },
    {
      "midi": 51,
      "hit": false,
      "t": 8969.061999999993,
      "d": 77.3194999999996,
      "v": 93
    },
    {
      "midi": 67,
      "hit": false,
      "t": 8969.061999999993,
      "d": 83.76279166666609,
      "v": 89
    },
    {
      "midi": 58,
      "hit": false,
      "t": 9123.700999999992,
      "d": 64.43291666666664,
      "v": 62
    },
    {
      "midi": 63,
      "hit": false,
      "t": 9123.700999999992,
      "d": 83.76279166666609,
      "v": 102
    },
    {
      "midi": 51,
      "hit": false,
      "t": 9123.700999999992,
      "d": 96.64937499999905,
      "v": 93
    },
    {
      "midi": 67,
      "hit": false,
      "t": 9123.700999999992,
      "d": 96.64937499999905,
      "v": 89
    },
    {
      "midi": 63,
      "hit": false,
      "t": 9587.617999999991,
      "d": 64.43291666666664,
      "v": 102
    },
    {
      "midi": 67,
      "hit": false,
      "t": 9587.617999999991,
      "d": 64.43291666666664,
      "v": 85
    },
    {
      "midi": 51,
      "hit": false,
      "t": 9587.617999999991,
      "d": 77.3194999999996,
      "v": 93
    },
    {
      "midi": 58,
      "hit": false,
      "t": 9587.617999999991,
      "d": 77.3194999999996,
      "v": 76
    },
    {
      "midi": 58,
      "hit": false,
      "t": 9742.25699999999,
      "d": 64.43291666666664,
      "v": 64
    },
    {
      "midi": 63,
      "hit": false,
      "t": 9742.25699999999,
      "d": 70.87620833333312,
      "v": 102
    },
    {
      "midi": 51,
      "hit": false,
      "t": 9742.25699999999,
      "d": 77.3194999999996,
      "v": 89
    },
    {
      "midi": 67,
      "hit": false,
      "t": 9742.25699999999,
      "d": 77.3194999999996,
      "v": 93
    },
    {
      "midi": 62,
      "hit": false,
      "t": 10206.17399999999,
      "d": 57.98962500000016,
      "v": 80
    },
    {
      "midi": 43,
      "hit": false,
      "t": 10206.17399999999,
      "d": 64.43291666666664,
      "v": 85
    },
    {
      "midi": 55,
      "hit": false,
      "t": 10206.17399999999,
      "d": 64.43291666666664,
      "v": 62
    },
    {
      "midi": 67,
      "hit": false,
      "t": 10206.17399999999,
      "d": 64.43291666666664,
      "v": 76
    },
    {
      "midi": 59,
      "hit": false,
      "t": 10206.17399999999,
      "d": 77.3194999999996,
      "v": 72
    },
    {
      "midi": 43,
      "hit": false,
      "t": 10360.812999999991,
      "d": 77.3194999999996,
      "v": 85
    },
    {
      "midi": 62,
      "hit": false,
      "t": 10360.812999999991,
      "d": 77.3194999999996,
      "v": 89
    },
    {
      "midi": 55,
      "hit": false,
      "t": 10360.812999999991,
      "d": 83.76279166666609,
      "v": 53
    },
    {
      "midi": 59,
      "hit": false,
      "t": 10360.812999999991,
      "d": 90.20608333333257,
      "v": 76
    },
    {
      "midi": 67,
      "hit": false,
      "t": 10360.812999999991,
      "d": 96.64937499999905,
      "v": 89
    },
    {
      "midi": 62,
      "hit": false,
      "t": 10824.72999999999,
      "d": 70.87620833333312,
      "v": 93
    },
    {
      "midi": 55,
      "hit": false,
      "t": 10824.72999999999,
      "d": 77.3194999999996,
      "v": 76
    },
    {
      "midi": 67,
      "hit": false,
      "t": 10824.72999999999,
      "d": 77.3194999999996,
      "v": 80
    },
    {
      "midi": 43,
      "hit": false,
      "t": 10824.72999999999,
      "d": 83.76279166666609,
      "v": 98
    },
    {
      "midi": 59,
      "hit": false,
      "t": 10824.72999999999,
      "d": 83.76279166666609,
      "v": 68
    },
    {
      "midi": 62,
      "hit": false,
      "t": 10979.36899999999,
      "d": 70.87620833333312,
      "v": 93
    },
    {
      "midi": 55,
      "hit": false,
      "t": 10979.36899999999,
      "d": 83.76279166666609,
      "v": 60
    },
    {
      "midi": 59,
      "hit": false,
      "t": 10979.36899999999,
      "d": 83.76279166666609,
      "v": 80
    },
    {
      "midi": 43,
      "hit": false,
      "t": 10979.36899999999,
      "d": 90.20608333333257,
      "v": 98
    },
    {
      "midi": 67,
      "hit": false,
      "t": 10979.36899999999,
      "d": 103.09266666666554,
      "v": 89
    },
    {
      "midi": 58,
      "hit": false,
      "t": 11443.28599999999,
      "d": 77.3194999999996,
      "v": 76
    },
    {
      "midi": 64,
      "hit": false,
      "t": 11443.28599999999,
      "d": 77.3194999999996,
      "v": 93
    },
    {
      "midi": 67,
      "hit": false,
      "t": 11443.28599999999,
      "d": 77.3194999999996,
      "v": 72
    },
    {
      "midi": 60,
      "hit": false,
      "t": 11443.28599999999,
      "d": 90.20608333333257,
      "v": 76
    },
    {
      "midi": 64,
      "hit": false,
      "t": 11597.924999999988,
      "d": 64.43291666666664,
      "v": 80
    },
    {
      "midi": 60,
      "hit": false,
      "t": 11597.924999999988,
      "d": 77.3194999999996,
      "v": 62
    },
    {
      "midi": 58,
      "hit": false,
      "t": 11597.924999999988,
      "d": 90.20608333333257,
      "v": 89
    },
    {
      "midi": 67,
      "hit": false,
      "t": 11597.924999999988,
      "d": 90.20608333333257,
      "v": 72
    },
    {
      "midi": 58,
      "hit": false,
      "t": 12061.841999999988,
      "d": 64.43291666666664,
      "v": 80
    },
    {
      "midi": 64,
      "hit": false,
      "t": 12061.841999999988,
      "d": 64.43291666666664,
      "v": 89
    },
    {
      "midi": 67,
      "hit": false,
      "t": 12061.841999999988,
      "d": 77.3194999999996,
      "v": 80
    },
    {
      "midi": 60,
      "hit": false,
      "t": 12061.841999999988,
      "d": 83.76279166666609,
      "v": 76
    },
    {
      "midi": 60,
      "hit": false,
      "t": 12216.480999999987,
      "d": 57.98962500000016,
      "v": 72
    },
    {
      "midi": 64,
      "hit": false,
      "t": 12216.480999999987,
      "d": 57.98962500000016,
      "v": 93
    },
    {
      "midi": 58,
      "hit": false,
      "t": 12216.480999999987,
      "d": 77.3194999999996,
      "v": 93
    },
    {
      "midi": 67,
      "hit": false,
      "t": 12216.480999999987,
      "d": 77.3194999999996,
      "v": 93
    },
    {
      "midi": 57,
      "hit": false,
      "t": 12680.397999999986,
      "d": 64.43291666666664,
      "v": 59
    },
    {
      "midi": 53,
      "hit": false,
      "t": 12680.397999999986,
      "d": 70.87620833333312,
      "v": 89
    },
    {
      "midi": 60,
      "hit": false,
      "t": 12680.397999999986,
      "d": 77.3194999999996,
      "v": 93
    },
    {
      "midi": 63,
      "hit": false,
      "t": 12680.397999999986,
      "d": 83.76279166666609,
      "v": 89
    },
    {
      "midi": 63,
      "hit": false,
      "t": 12835.036999999986,
      "d": 90.20608333333257,
      "v": 98
    },
    {
      "midi": 60,
      "hit": false,
      "t": 12835.036999999986,
      "d": 96.64937499999905,
      "v": 102
    },
    {
      "midi": 57,
      "hit": false,
      "t": 12835.036999999986,
      "d": 103.09266666666554,
      "v": 72
    },
    {
      "midi": 53,
      "hit": false,
      "t": 12835.036999999986,
      "d": 109.53595833333202,
      "v": 102
    },
    {
      "midi": 57,
      "hit": false,
      "t": 13298.953999999985,
      "d": 70.87620833333312,
      "v": 68
    },
    {
      "midi": 53,
      "hit": false,
      "t": 13298.953999999985,
      "d": 77.3194999999996,
      "v": 102
    },
    {
      "midi": 63,
      "hit": false,
      "t": 13298.953999999985,
      "d": 77.3194999999996,
      "v": 93
    },
    {
      "midi": 60,
      "hit": false,
      "t": 13298.953999999985,
      "d": 90.20608333333257,
      "v": 98
    },
    {
      "midi": 53,
      "hit": false,
      "t": 13453.592999999984,
      "d": 64.43291666666664,
      "v": 89
    },
    {
      "midi": 63,
      "hit": false,
      "t": 13453.592999999984,
      "d": 64.43291666666664,
      "v": 89
    },
    {
      "midi": 57,
      "hit": false,
      "t": 13453.592999999984,
      "d": 70.87620833333312,
      "v": 76
    },
    {
      "midi": 60,
      "hit": false,
      "t": 13453.592999999984,
      "d": 77.3194999999996,
      "v": 107
    },
    {
      "midi": 46,
      "hit": false,
      "t": 13917.509999999984,
      "d": 77.3194999999996,
      "v": 76
    },
    {
      "midi": 53,
      "hit": false,
      "t": 13917.509999999984,
      "d": 77.3194999999996,
      "v": 80
    },
    {
      "midi": 56,
      "hit": false,
      "t": 13917.509999999984,
      "d": 77.3194999999996,
      "v": 76
    },
    {
      "midi": 62,
      "hit": false,
      "t": 13917.509999999984,
      "d": 77.3194999999996,
      "v": 89
    },
    {
      "midi": 65,
      "hit": false,
      "t": 13917.509999999984,
      "d": 77.3194999999996,
      "v": 93
    },
    {
      "midi": 53,
      "hit": false,
      "t": 14072.148999999983,
      "d": 77.3194999999996,
      "v": 80
    },
    {
      "midi": 62,
      "hit": false,
      "t": 14072.148999999983,
      "d": 77.3194999999996,
      "v": 93
    },
    {
      "midi": 46,
      "hit": false,
      "t": 14072.148999999983,
      "d": 83.76279166666609,
      "v": 98
    },
    {
      "midi": 56,
      "hit": false,
      "t": 14072.148999999983,
      "d": 83.76279166666609,
      "v": 85
    },
    {
      "midi": 65,
      "hit": false,
      "t": 14072.148999999983,
      "d": 90.20608333333257,
      "v": 93
    },
    {
      "midi": 53,
      "hit": false,
      "t": 14536.065999999983,
      "d": 70.87620833333312,
      "v": 89
    },
    {
      "midi": 56,
      "hit": false,
      "t": 14536.065999999983,
      "d": 70.87620833333312,
      "v": 89
    },
    {
      "midi": 62,
      "hit": false,
      "t": 14536.065999999983,
      "d": 70.87620833333312,
      "v": 98
    },
    {
      "midi": 46,
      "hit": false,
      "t": 14536.065999999983,
      "d": 77.3194999999996,
      "v": 98
    },
    {
      "midi": 65,
      "hit": false,
      "t": 14536.065999999983,
      "d": 90.20608333333257,
      "v": 107
    },
    {
      "midi": 46,
      "hit": false,
      "t": 14690.704999999982,
      "d": 51.54633333333368,
      "v": 98
    },
    {
      "midi": 56,
      "hit": false,
      "t": 14690.704999999982,
      "d": 57.98962500000016,
      "v": 80
    },
    {
      "midi": 62,
      "hit": false,
      "t": 14690.704999999982,
      "d": 70.87620833333312,
      "v": 98
    },
    {
      "midi": 53,
      "hit": false,
      "t": 14690.704999999982,
      "d": 90.20608333333257,
      "v": 89
    },
    {
      "midi": 65,
      "hit": false,
      "t": 14690.704999999982,
      "d": 90.20608333333257,
      "v": 93
    },
    {
      "midi": 64,
      "hit": false,
      "t": 14845.343999999981,
      "d": 25.77316666666593,
      "v": 36
    },
    {
      "midi": 63,
      "hit": false,
      "t": 15154.62199999998,
      "d": 64.43291666666664,
      "v": 102
    },
    {
      "midi": 51,
      "hit": false,
      "t": 15154.62199999998,
      "d": 70.87620833333312,
      "v": 107
    },
    {
      "midi": 67,
      "hit": false,
      "t": 15154.62199999998,
      "d": 70.87620833333312,
      "v": 93
    },
    {
      "midi": 58,
      "hit": false,
      "t": 15154.62199999998,
      "d": 77.3194999999996,
      "v": 72
    },
    {
      "midi": 63,
      "hit": false,
      "t": 15309.260999999979,
      "d": 77.3194999999996,
      "v": 113
    },
    {
      "midi": 51,
      "hit": false,
      "t": 15309.260999999979,
      "d": 90.20608333333257,
      "v": 107
    },
    {
      "midi": 58,
      "hit": false,
      "t": 15309.260999999979,
      "d": 90.20608333333257,
      "v": 76
    },
    {
      "midi": 67,
      "hit": false,
      "t": 15309.260999999979,
      "d": 96.64937499999905,
      "v": 93
    },
    {
      "midi": 58,
      "hit": false,
      "t": 15773.177999999978,
      "d": 83.76279166666609,
      "v": 89
    },
    {
      "midi": 63,
      "hit": false,
      "t": 15773.177999999978,
      "d": 83.76279166666609,
      "v": 113
    },
    {
      "midi": 51,
      "hit": false,
      "t": 15773.177999999978,
      "d": 90.20608333333257,
      "v": 113
    },
    {
      "midi": 67,
      "hit": false,
      "t": 15773.177999999978,
      "d": 96.64937499999905,
      "v": 107
    },
    {
      "midi": 53,
      "hit": false,
      "t": 16082.455999999976,
      "d": 103.09266666666736,
      "v": 98
    },
    {
      "midi": 56,
      "hit": false,
      "t": 16082.455999999976,
      "d": 103.09266666666736,
      "v": 107
    },
    {
      "midi": 63,
      "hit": false,
      "t": 16082.455999999976,
      "d": 103.09266666666736,
      "v": 107
    },
    {
      "midi": 60,
      "hit": false,
      "t": 16082.455999999976,
      "d": 109.53595833333384,
      "v": 107
    },
    {
      "midi": 60,
      "hit": false,
      "t": 16391.73399999998,
      "d": 64.43291666666846,
      "v": 107
    },
    {
      "midi": 56,
      "hit": false,
      "t": 16391.73399999998,
      "d": 77.31950000000143,
      "v": 107
    },
    {
      "midi": 63,
      "hit": false,
      "t": 16391.73399999998,
      "d": 77.31950000000143,
      "v": 107
    },
    {
      "midi": 53,
      "hit": false,
      "t": 16391.73399999998,
      "d": 90.20608333333439,
      "v": 102
    },
    {
      "midi": 58,
      "hit": false,
      "t": 16546.37299999998,
      "d": 115.97925000000032,
      "v": 98
    },
    {
      "midi": 62,
      "hit": false,
      "t": 16546.37299999998,
      "d": 122.4225416666668,
      "v": 107
    },
    {
      "midi": 65,
      "hit": false,
      "t": 16546.37299999998,
      "d": 122.4225416666668,
      "v": 107
    },
    {
      "midi": 62,
      "hit": false,
      "t": 16855.65099999998,
      "d": 57.98962499999834,
      "v": 89
    },
    {
      "midi": 65,
      "hit": false,
      "t": 16855.65099999998,
      "d": 64.43291666666482,
      "v": 107
    },
    {
      "midi": 58,
      "hit": false,
      "t": 16855.65099999998,
      "d": 70.8762083333313,
      "v": 93
    },
    {
      "midi": 65,
      "hit": false,
      "t": 17010.28999999998,
      "d": 83.76279166666791,
      "v": 113
    },
    {
      "midi": 62,
      "hit": false,
      "t": 17010.28999999998,
      "d": 90.20608333333439,
      "v": 107
    },
    {
      "midi": 58,
      "hit": false,
      "t": 17010.28999999998,
      "d": 96.64937500000087,
      "v": 89
    },
    {
      "midi": 58,
      "hit": false,
      "t": 17628.84599999998,
      "d": 64.43291666666846,
      "v": 55
    },
    {
      "midi": 51,
      "hit": false,
      "t": 17628.84599999998,
      "d": 70.87620833333494,
      "v": 93
    },
    {
      "midi": 63,
      "hit": false,
      "t": 17628.84599999998,
      "d": 70.87620833333494,
      "v": 98
    },
    {
      "midi": 67,
      "hit": false,
      "t": 17628.84599999998,
      "d": 70.87620833333494,
      "v": 68
    },
    {
      "midi": 63,
      "hit": false,
      "t": 17783.484999999982,
      "d": 57.98962499999834,
      "v": 89
    },
    {
      "midi": 67,
      "hit": false,
      "t": 17783.484999999982,
      "d": 83.76279166666427,
      "v": 85
    },
    {
      "midi": 51,
      "hit": false,
      "t": 17783.484999999982,
      "d": 90.20608333333075,
      "v": 93
    },
    {
      "midi": 58,
      "hit": false,
      "t": 17783.484999999982,
      "d": 90.20608333333075,
      "v": 62
    },
    {
      "midi": 58,
      "hit": false,
      "t": 18247.40199999998,
      "d": 51.54633333333186,
      "v": 49
    },
    {
      "midi": 67,
      "hit": false,
      "t": 18247.40199999998,
      "d": 70.8762083333313,
      "v": 72
    },
    {
      "midi": 51,
      "hit": false,
      "t": 18247.40199999998,
      "d": 77.31949999999779,
      "v": 89
    },
    {
      "midi": 63,
      "hit": false,
      "t": 18247.40199999998,
      "d": 77.31949999999779,
      "v": 93
    },
    {
      "midi": 63,
      "hit": false,
      "t": 18402.04099999998,
      "d": 64.43291666666846,
      "v": 98
    },
    {
      "midi": 67,
      "hit": false,
      "t": 18402.04099999998,
      "d": 70.87620833333494,
      "v": 89
    },
    {
      "midi": 58,
      "hit": false,
      "t": 18402.04099999998,
      "d": 77.31950000000143,
      "v": 76
    },
    {
      "midi": 51,
      "hit": false,
      "t": 18402.04099999998,
      "d": 90.20608333333439,
      "v": 93
    },
    {
      "midi": 58,
      "hit": false,
      "t": 18865.95799999998,
      "d": 57.98962499999834,
      "v": 64
    },
    {
      "midi": 63,
      "hit": false,
      "t": 18865.95799999998,
      "d": 70.8762083333313,
      "v": 98
    },
    {
      "midi": 51,
      "hit": false,
      "t": 18865.95799999998,
      "d": 77.31949999999779,
      "v": 93
    },
    {
      "midi": 67,
      "hit": false,
      "t": 18865.95799999998,
      "d": 83.76279166666427,
      "v": 89
    },
    {
      "midi": 58,
      "hit": false,
      "t": 19020.59699999998,
      "d": 64.43291666666846,
      "v": 62
    },
    {
      "midi": 63,
      "hit": false,
      "t": 19020.59699999998,
      "d": 83.76279166666791,
      "v": 102
    },
    {
      "midi": 51,
      "hit": false,
      "t": 19020.59699999998,
      "d": 96.64937500000087,
      "v": 93
    },
    {
      "midi": 67,
      "hit": false,
      "t": 19020.59699999998,
      "d": 96.64937500000087,
      "v": 89
    },
    {
      "midi": 63,
      "hit": false,
      "t": 19484.51399999998,
      "d": 64.43291666666846,
      "v": 102
    },
    {
      "midi": 67,
      "hit": false,
      "t": 19484.51399999998,
      "d": 64.43291666666846,
      "v": 85
    },
    {
      "midi": 51,
      "hit": false,
      "t": 19484.51399999998,
      "d": 77.31950000000143,
      "v": 93
    },
    {
      "midi": 58,
      "hit": false,
      "t": 19484.51399999998,
      "d": 77.31950000000143,
      "v": 76
    },
    {
      "midi": 58,
      "hit": false,
      "t": 19639.152999999984,
      "d": 64.43291666666846,
      "v": 64
    },
    {
      "midi": 63,
      "hit": false,
      "t": 19639.152999999984,
      "d": 70.87620833333494,
      "v": 102
    },
    {
      "midi": 51,
      "hit": false,
      "t": 19639.152999999984,
      "d": 77.31950000000143,
      "v": 89
    },
    {
      "midi": 67,
      "hit": false,
      "t": 19639.152999999984,
      "d": 77.31950000000143,
      "v": 93
    },
    {
      "midi": 62,
      "hit": false,
      "t": 20103.069999999985,
      "d": 57.98962499999834,
      "v": 80
    },
    {
      "midi": 43,
      "hit": false,
      "t": 20103.069999999985,
      "d": 64.43291666666482,
      "v": 85
    },
    {
      "midi": 55,
      "hit": false,
      "t": 20103.069999999985,
      "d": 64.43291666666482,
      "v": 62
    },
    {
      "midi": 67,
      "hit": false,
      "t": 20103.069999999985,
      "d": 64.43291666666482,
      "v": 76
    },
    {
      "midi": 59,
      "hit": false,
      "t": 20103.069999999985,
      "d": 77.31949999999779,
      "v": 72
    },
    {
      "midi": 43,
      "hit": false,
      "t": 20257.70899999998,
      "d": 77.31950000000143,
      "v": 85
    },
    {
      "midi": 62,
      "hit": false,
      "t": 20257.70899999998,
      "d": 77.31950000000143,
      "v": 89
    },
    {
      "midi": 55,
      "hit": false,
      "t": 20257.70899999998,
      "d": 83.76279166666791,
      "v": 53
    },
    {
      "midi": 59,
      "hit": false,
      "t": 20257.70899999998,
      "d": 90.20608333333439,
      "v": 76
    },
    {
      "midi": 67,
      "hit": false,
      "t": 20257.70899999998,
      "d": 96.64937500000087,
      "v": 89
    },
    {
      "midi": 62,
      "hit": false,
      "t": 20721.625999999982,
      "d": 70.87620833333494,
      "v": 93
    },
    {
      "midi": 55,
      "hit": false,
      "t": 20721.625999999982,
      "d": 77.31950000000143,
      "v": 76
    },
    {
      "midi": 67,
      "hit": false,
      "t": 20721.625999999982,
      "d": 77.31950000000143,
      "v": 80
    },
    {
      "midi": 43,
      "hit": false,
      "t": 20721.625999999982,
      "d": 83.76279166666791,
      "v": 98
    },
    {
      "midi": 59,
      "hit": false,
      "t": 20721.625999999982,
      "d": 83.76279166666791,
      "v": 68
    },
    {
      "midi": 62,
      "hit": false,
      "t": 20876.264999999985,
      "d": 70.87620833333494,
      "v": 93
    },
    {
      "midi": 55,
      "hit": false,
      "t": 20876.264999999985,
      "d": 83.76279166666791,
      "v": 60
    },
    {
      "midi": 59,
      "hit": false,
      "t": 20876.264999999985,
      "d": 83.76279166666791,
      "v": 80
    },
    {
      "midi": 43,
      "hit": false,
      "t": 20876.264999999985,
      "d": 90.20608333333439,
      "v": 98
    },
    {
      "midi": 67,
      "hit": false,
      "t": 20876.264999999985,
      "d": 103.09266666666736,
      "v": 89
    },
    {
      "midi": 58,
      "hit": false,
      "t": 21340.181999999986,
      "d": 77.31950000000143,
      "v": 76
    },
    {
      "midi": 64,
      "hit": false,
      "t": 21340.181999999986,
      "d": 77.31950000000143,
      "v": 93
    },
    {
      "midi": 67,
      "hit": false,
      "t": 21340.181999999986,
      "d": 77.31950000000143,
      "v": 72
    },
    {
      "midi": 60,
      "hit": false,
      "t": 21340.181999999986,
      "d": 90.20608333333439,
      "v": 76
    },
    {
      "midi": 64,
      "hit": false,
      "t": 21494.82099999999,
      "d": 64.43291666666846,
      "v": 80
    },
    {
      "midi": 60,
      "hit": false,
      "t": 21494.82099999999,
      "d": 77.31950000000143,
      "v": 62
    },
    {
      "midi": 58,
      "hit": false,
      "t": 21494.82099999999,
      "d": 90.20608333333439,
      "v": 89
    },
    {
      "midi": 67,
      "hit": false,
      "t": 21494.82099999999,
      "d": 90.20608333333439,
      "v": 72
    },
    {
      "midi": 58,
      "hit": false,
      "t": 21958.73799999999,
      "d": 64.43291666666846,
      "v": 80
    },
    {
      "midi": 64,
      "hit": false,
      "t": 21958.73799999999,
      "d": 64.43291666666846,
      "v": 89
    },
    {
      "midi": 67,
      "hit": false,
      "t": 21958.73799999999,
      "d": 77.31950000000143,
      "v": 80
    },
    {
      "midi": 60,
      "hit": false,
      "t": 21958.73799999999,
      "d": 83.76279166666791,
      "v": 76
    },
    {
      "midi": 60,
      "hit": false,
      "t": 22113.376999999993,
      "d": 57.98962499999834,
      "v": 72
    },
    {
      "midi": 64,
      "hit": false,
      "t": 22113.376999999993,
      "d": 57.98962499999834,
      "v": 93
    },
    {
      "midi": 58,
      "hit": false,
      "t": 22113.376999999993,
      "d": 77.31949999999779,
      "v": 93
    },
    {
      "midi": 67,
      "hit": false,
      "t": 22113.376999999993,
      "d": 77.31949999999779,
      "v": 93
    },
    {
      "midi": 53,
      "hit": false,
      "t": 22268.015999999992,
      "d": 115.97925000000032,
      "v": 98
    },
    {
      "midi": 60,
      "hit": false,
      "t": 22268.015999999992,
      "d": 154.6389999999992,
      "v": 89
    },
    {
      "midi": 57,
      "hit": false,
      "t": 22268.015999999992,
      "d": 161.0822916666657,
      "v": 102
    },
    {
      "midi": 63,
      "hit": false,
      "t": 22268.015999999992,
      "d": 173.96887499999866,
      "v": 93
    },
    {
      "midi": 65,
      "hit": false,
      "t": 22268.015999999992,
      "d": 193.2987499999981,
      "v": 107
    },
    {
      "midi": 53,
      "hit": false,
      "t": 22731.93299999999,
      "d": 193.29875000000175,
      "v": 107
    },
    {
      "midi": 60,
      "hit": false,
      "t": 22731.93299999999,
      "d": 199.74204166666823,
      "v": 98
    },
    {
      "midi": 57,
      "hit": false,
      "t": 22731.93299999999,
      "d": 206.1853333333347,
      "v": 98
    },
    {
      "midi": 63,
      "hit": false,
      "t": 22731.93299999999,
      "d": 225.51520833333416,
      "v": 98
    },
    {
      "midi": 65,
      "hit": false,
      "t": 22731.93299999999,
      "d": 225.51520833333416,
      "v": 107
    },
    {
      "midi": 63,
      "hit": false,
      "t": 23195.84999999999,
      "d": 103.09266666666736,
      "v": 102
    },
    {
      "midi": 53,
      "hit": false,
      "t": 23195.84999999999,
      "d": 115.97925000000032,
      "v": 107
    },
    {
      "midi": 60,
      "hit": false,
      "t": 23195.84999999999,
      "d": 115.97925000000032,
      "v": 102
    },
    {
      "midi": 65,
      "hit": false,
      "t": 23195.84999999999,
      "d": 122.4225416666668,
      "v": 102
    },
    {
      "midi": 57,
      "hit": false,
      "t": 23195.84999999999,
      "d": 128.86583333333328,
      "v": 98
    },
    {
      "midi": 69,
      "hit": false,
      "t": 23505.12799999999,
      "d": 257.73166666666657,
      "v": 113
    },
    {
      "midi": 65,
      "hit": false,
      "t": 23505.12799999999,
      "d": 270.61824999999953,
      "v": 107
    },
    {
      "midi": 67,
      "hit": false,
      "t": 23969.04499999999,
      "d": 289.948124999999,
      "v": 113
    },
    {
      "midi": 70,
      "hit": false,
      "t": 23969.04499999999,
      "d": 296.39141666666546,
      "v": 107
    },
    {
      "midi": 72,
      "hit": false,
      "t": 24432.96199999999,
      "d": 154.6389999999992,
      "v": 107
    },
    {
      "midi": 69,
      "hit": false,
      "t": 24432.96199999999,
      "d": 173.96887499999866,
      "v": 113
    },
    {
      "midi": 68,
      "hit": false,
      "t": 24742.239999999987,
      "d": 77.31950000000143,
      "v": 119
    },
    {
      "midi": 80,
      "hit": false,
      "t": 24742.239999999987,
      "d": 77.31950000000143,
      "v": 107
    },
    {
      "midi": 60,
      "hit": false,
      "t": 24742.239999999987,
      "d": 115.97925000000032,
      "v": 107
    },
    {
      "midi": 53,
      "hit": false,
      "t": 24742.239999999987,
      "d": 122.4225416666668,
      "v": 93
    },
    {
      "midi": 56,
      "hit": false,
      "t": 24742.239999999987,
      "d": 122.4225416666668,
      "v": 102
    },
    {
      "midi": 80,
      "hit": false,
      "t": 25051.517999999985,
      "d": 77.31950000000143,
      "v": 113
    },
    {
      "midi": 68,
      "hit": false,
      "t": 25051.517999999985,
      "d": 83.76279166666791,
      "v": 119
    },
    {
      "midi": 56,
      "hit": false,
      "t": 25051.517999999985,
      "d": 122.4225416666668,
      "v": 102
    },
    {
      "midi": 53,
      "hit": false,
      "t": 25051.517999999985,
      "d": 128.86583333333328,
      "v": 102
    },
    {
      "midi": 60,
      "hit": false,
      "t": 25051.517999999985,
      "d": 128.86583333333328,
      "v": 102
    },
    {
      "midi": 84,
      "hit": false,
      "t": 25206.156999999985,
      "d": 83.76279166666791,
      "v": 107
    },
    {
      "midi": 72,
      "hit": false,
      "t": 25206.156999999985,
      "d": 103.09266666666736,
      "v": 107
    },
    {
      "midi": 63,
      "hit": false,
      "t": 25206.156999999985,
      "d": 231.95850000000064,
      "v": 113
    },
    {
      "midi": 84,
      "hit": false,
      "t": 25515.434999999987,
      "d": 70.87620833333494,
      "v": 107
    },
    {
      "midi": 72,
      "hit": false,
      "t": 25515.434999999987,
      "d": 90.20608333333439,
      "v": 113
    },
    {
      "midi": 56,
      "hit": false,
      "t": 25515.434999999987,
      "d": 122.4225416666668,
      "v": 107
    },
    {
      "midi": 60,
      "hit": false,
      "t": 25515.434999999987,
      "d": 122.4225416666668,
      "v": 107
    },
    {
      "midi": 53,
      "hit": false,
      "t": 25515.434999999987,
      "d": 135.30912499999977,
      "v": 107
    },
    {
      "midi": 87,
      "hit": false,
      "t": 25670.073999999986,
      "d": 96.64937500000087,
      "v": 107
    },
    {
      "midi": 75,
      "hit": false,
      "t": 25670.073999999986,
      "d": 103.09266666666736,
      "v": 113
    },
    {
      "midi": 63,
      "hit": false,
      "t": 25670.073999999986,
      "d": 109.53595833333384,
      "v": 119
    },
    {
      "midi": 86,
      "hit": false,
      "t": 25979.351999999988,
      "d": 83.76279166666791,
      "v": 119
    },
    {
      "midi": 74,
      "hit": false,
      "t": 25979.351999999988,
      "d": 103.09266666666736,
      "v": 119
    },
    {
      "midi": 53,
      "hit": false,
      "t": 25979.351999999988,
      "d": 122.4225416666668,
      "v": 102
    },
    {
      "midi": 62,
      "hit": false,
      "t": 25979.351999999988,
      "d": 128.86583333333328,
      "v": 107
    },
    {
      "midi": 46,
      "hit": false,
      "t": 25979.351999999988,
      "d": 135.30912499999977,
      "v": 107
    },
    {
      "midi": 58,
      "hit": false,
      "t": 25979.351999999988,
      "d": 148.19570833333273,
      "v": 102
    },
    {
      "midi": 48,
      "hit": false,
      "t": 27216.46399999999,
      "d": 257.73166666666657,
      "v": 107
    },
    {
      "midi": 67,
      "hit": false,
      "t": 27525.741999999987,
      "d": 70.87620833333494,
      "v": 80
    },
    {
      "midi": 63,
      "hit": false,
      "t": 27525.741999999987,
      "d": 77.31950000000143,
      "v": 98
    },
    {
      "midi": 60,
      "hit": false,
      "t": 27525.741999999987,
      "d": 90.20608333333439,
      "v": 76
    },
    {
      "midi": 63,
      "hit": false,
      "t": 27989.658999999992,
      "d": 70.87620833333494,
      "v": 98
    },
    {
      "midi": 67,
      "hit": false,
      "t": 27989.658999999992,
      "d": 77.31950000000143,
      "v": 85
    },
    {
      "midi": 60,
      "hit": false,
      "t": 27989.658999999992,
      "d": 83.76279166666791,
      "v": 80
    },
    {
      "midi": 48,
      "hit": false,
      "t": 28144.297999999995,
      "d": 77.31950000000143,
      "v": 89
    },
    {
      "midi": 60,
      "hit": false,
      "t": 28453.575999999997,
      "d": 90.20608333333439,
      "v": 72
    },
    {
      "midi": 63,
      "hit": false,
      "t": 28453.575999999997,
      "d": 90.20608333333439,
      "v": 98
    },
    {
      "midi": 67,
      "hit": false,
      "t": 28453.575999999997,
      "d": 103.09266666666736,
      "v": 89
    },
    {
      "midi": 60,
      "hit": false,
      "t": 28762.854,
      "d": 57.98962499999834,
      "v": 62
    },
    {
      "midi": 63,
      "hit": false,
      "t": 28762.854,
      "d": 77.31949999999779,
      "v": 98
    },
    {
      "midi": 48,
      "hit": false,
      "t": 28917.493,
      "d": 70.87620833333494,
      "v": 93
    },
    {
      "midi": 60,
      "hit": false,
      "t": 29072.132,
      "d": 83.76279166666791,
      "v": 76
    },
    {
      "midi": 48,
      "hit": false,
      "t": 29226.771000000004,
      "d": 64.43291666666846,
      "v": 98
    },
    {
      "midi": 60,
      "hit": false,
      "t": 29381.410000000007,
      "d": 83.76279166666791,
      "v": 89
    },
    {
      "midi": 63,
      "hit": false,
      "t": 29381.410000000007,
      "d": 83.76279166666791,
      "v": 102
    },
    {
      "midi": 67,
      "hit": false,
      "t": 29381.410000000007,
      "d": 96.64937500000087,
      "v": 85
    },
    {
      "midi": 48,
      "hit": false,
      "t": 29690.688000000006,
      "d": 270.61824999999953,
      "v": 98
    },
    {
      "midi": 60,
      "hit": false,
      "t": 29999.966000000004,
      "d": 70.87620833333494,
      "v": 60
    },
    {
      "midi": 63,
      "hit": false,
      "t": 29999.966000000004,
      "d": 77.31950000000143,
      "v": 93
    },
    {
      "midi": 67,
      "hit": false,
      "t": 29999.966000000004,
      "d": 90.20608333333439,
      "v": 93
    },
    {
      "midi": 48,
      "hit": false,
      "t": 30154.605000000007,
      "d": 64.43291666666846,
      "v": 89
    },
    {
      "midi": 60,
      "hit": false,
      "t": 30463.88300000001,
      "d": 64.43291666666846,
      "v": 68
    },
    {
      "midi": 63,
      "hit": false,
      "t": 30463.88300000001,
      "d": 64.43291666666846,
      "v": 93
    },
    {
      "midi": 67,
      "hit": false,
      "t": 30463.88300000001,
      "d": 70.87620833333494,
      "v": 85
    },
    {
      "midi": 48,
      "hit": false,
      "t": 30618.52200000001,
      "d": 64.43291666666846,
      "v": 80
    },
    {
      "midi": 60,
      "hit": false,
      "t": 30927.800000000014,
      "d": 90.20608333333439,
      "v": 80
    },
    {
      "midi": 63,
      "hit": false,
      "t": 30927.800000000014,
      "d": 90.20608333333439,
      "v": 102
    },
    {
      "midi": 67,
      "hit": false,
      "t": 30927.800000000014,
      "d": 96.64937500000087,
      "v": 93
    },
    {
      "midi": 63,
      "hit": false,
      "t": 31237.078000000016,
      "d": 38.659749999998894,
      "v": 59
    },
    {
      "midi": 60,
      "hit": false,
      "t": 31237.078000000016,
      "d": 90.20608333333075,
      "v": 80
    },
    {
      "midi": 48,
      "hit": false,
      "t": 31391.717000000015,
      "d": 77.31950000000143,
      "v": 93
    },
    {
      "midi": 63,
      "hit": false,
      "t": 31546.356000000018,
      "d": 83.76279166666791,
      "v": 93
    },
    {
      "midi": 60,
      "hit": false,
      "t": 31546.356000000018,
      "d": 103.09266666666736,
      "v": 85
    },
    {
      "midi": 67,
      "hit": false,
      "t": 31546.356000000018,
      "d": 103.09266666666736,
      "v": 72
    },
    {
      "midi": 63,
      "hit": false,
      "t": 31855.63400000002,
      "d": 70.87620833333494,
      "v": 107
    },
    {
      "midi": 60,
      "hit": false,
      "t": 31855.63400000002,
      "d": 83.76279166666791,
      "v": 93
    },
    {
      "midi": 67,
      "hit": false,
      "t": 31855.63400000002,
      "d": 83.76279166666791,
      "v": 93
    },
    {
      "midi": 56,
      "hit": false,
      "t": 32164.912000000022,
      "d": 251.2883750000001,
      "v": 93
    },
    {
      "midi": 53,
      "hit": false,
      "t": 32164.912000000022,
      "d": 257.73166666666657,
      "v": 98
    },
    {
      "midi": 60,
      "hit": false,
      "t": 32164.912000000022,
      "d": 257.73166666666657,
      "v": 93
    },
    {
      "midi": 65,
      "hit": false,
      "t": 32474.19000000002,
      "d": 64.43291666666846,
      "v": 89
    },
    {
      "midi": 68,
      "hit": false,
      "t": 32474.19000000002,
      "d": 64.43291666666846,
      "v": 107
    },
    {
      "midi": 68,
      "hit": false,
      "t": 32938.107000000025,
      "d": 70.87620833333494,
      "v": 113
    },
    {
      "midi": 65,
      "hit": false,
      "t": 32938.107000000025,
      "d": 77.31950000000506,
      "v": 93
    },
    {
      "midi": 46,
      "hit": false,
      "t": 33402.024000000034,
      "d": 844.0712083333492,
      "v": 98
    },
    {
      "midi": 65,
      "hit": false,
      "t": 33711.30200000004,
      "d": 90.20608333333803,
      "v": 89
    },
    {
      "midi": 58,
      "hit": false,
      "t": 33711.30200000004,
      "d": 96.64937500000815,
      "v": 72
    },
    {
      "midi": 62,
      "hit": false,
      "t": 33711.30200000004,
      "d": 96.64937500000815,
      "v": 89
    },
    {
      "midi": 60,
      "hit": false,
      "t": 34175.21900000005,
      "d": 83.76279166666791,
      "v": 102
    },
    {
      "midi": 65,
      "hit": false,
      "t": 34175.21900000005,
      "d": 122.4225416666668,
      "v": 98
    },
    {
      "midi": 58,
      "hit": false,
      "t": 34639.13600000005,
      "d": 38.659749999998894,
      "v": 44
    },
    {
      "midi": 51,
      "hit": false,
      "t": 34639.13600000005,
      "d": 850.5144999999975,
      "v": 93
    },
    {
      "midi": 63,
      "hit": false,
      "t": 34948.41400000005,
      "d": 70.87620833333494,
      "v": 89
    },
    {
      "midi": 67,
      "hit": false,
      "t": 34948.41400000005,
      "d": 83.76279166666791,
      "v": 102
    },
    {
      "midi": 70,
      "hit": false,
      "t": 34948.41400000005,
      "d": 83.76279166666791,
      "v": 102
    },
    {
      "midi": 65,
      "hit": false,
      "t": 35257.69200000005,
      "d": 70.87620833333494,
      "v": 98
    },
    {
      "midi": 70,
      "hit": false,
      "t": 35257.69200000005,
      "d": 109.53595833333384,
      "v": 89
    },
    {
      "midi": 63,
      "hit": false,
      "t": 35412.33100000005,
      "d": 115.97924999999668,
      "v": 107
    },
    {
      "midi": 48,
      "hit": false,
      "t": 35876.24800000004,
      "d": 541.2365000000136,
      "v": 102
    },
    {
      "midi": 63,
      "hit": false,
      "t": 36185.52600000005,
      "d": 51.546333333339135,
      "v": 107
    },
    {
      "midi": 58,
      "hit": false,
      "t": 36185.52600000005,
      "d": 64.4329166666721,
      "v": 76
    },
    {
      "midi": 67,
      "hit": false,
      "t": 36185.52600000005,
      "d": 64.4329166666721,
      "v": 93
    },
    {
      "midi": 63,
      "hit": false,
      "t": 36649.44300000006,
      "d": 83.76279166666791,
      "v": 107
    },
    {
      "midi": 58,
      "hit": false,
      "t": 36649.44300000006,
      "d": 90.20608333333803,
      "v": 85
    },
    {
      "midi": 67,
      "hit": false,
      "t": 36649.44300000006,
      "d": 90.20608333333803,
      "v": 98
    },
    {
      "midi": 53,
      "hit": false,
      "t": 37113.360000000066,
      "d": 792.5248750000028,
      "v": 93
    },
    {
      "midi": 63,
      "hit": false,
      "t": 37422.638000000064,
      "d": 103.09266666666372,
      "v": 89
    },
    {
      "midi": 68,
      "hit": false,
      "t": 37422.638000000064,
      "d": 115.97924999999668,
      "v": 102
    },
    {
      "midi": 60,
      "hit": false,
      "t": 37422.638000000064,
      "d": 257.73166666666657,
      "v": 98
    },
    {
      "midi": 68,
      "hit": false,
      "t": 37886.555000000066,
      "d": 83.76279166666791,
      "v": 107
    },
    {
      "midi": 63,
      "hit": false,
      "t": 37886.555000000066,
      "d": 90.20608333333803,
      "v": 89
    },
    {
      "midi": 46,
      "hit": false,
      "t": 38350.47200000007,
      "d": 1114.6894583333415,
      "v": 93
    },
    {
      "midi": 65,
      "hit": false,
      "t": 38659.75000000007,
      "d": 64.43291666666482,
      "v": 89
    },
    {
      "midi": 58,
      "hit": false,
      "t": 38659.75000000007,
      "d": 90.20608333333075,
      "v": 76
    },
    {
      "midi": 62,
      "hit": false,
      "t": 38659.75000000007,
      "d": 109.53595833333384,
      "v": 89
    },
    {
      "midi": 58,
      "hit": false,
      "t": 38969.02800000007,
      "d": 77.31949999999779,
      "v": 89
    },
    {
      "midi": 60,
      "hit": false,
      "t": 39123.66700000007,
      "d": 83.76279166666791,
      "v": 107
    },
    {
      "midi": 65,
      "hit": false,
      "t": 39123.66700000007,
      "d": 128.86583333333692,
      "v": 102
    },
    {
      "midi": 53,
      "hit": false,
      "t": 39278.30600000007,
      "d": 45.103041666669014,
      "v": 59
    },
    {
      "midi": 58,
      "hit": false,
      "t": 39587.584000000075,
      "d": 77.31950000000506,
      "v": 98
    },
    {
      "midi": 65,
      "hit": false,
      "t": 39587.584000000075,
      "d": 83.76279166667518,
      "v": 89
    },
    {
      "midi": 55,
      "hit": false,
      "t": 39587.584000000075,
      "d": 90.2060833333453,
      "v": 98
    },
    {
      "midi": 61,
      "hit": false,
      "t": 39587.584000000075,
      "d": 103.09266666667827,
      "v": 89
    },
    {
      "midi": 67,
      "hit": false,
      "t": 39587.584000000075,
      "d": 109.53595833334839,
      "v": 93
    },
    {
      "midi": 58,
      "hit": false,
      "t": 40051.50100000009,
      "d": 57.98962500000198,
      "v": 107
    },
    {
      "midi": 65,
      "hit": false,
      "t": 40051.50100000009,
      "d": 57.98962500000198,
      "v": 89
    },
    {
      "midi": 61,
      "hit": false,
      "t": 40051.50100000009,
      "d": 64.4329166666721,
      "v": 85
    },
    {
      "midi": 55,
      "hit": false,
      "t": 40051.50100000009,
      "d": 77.31950000000506,
      "v": 107
    },
    {
      "midi": 67,
      "hit": false,
      "t": 40051.50100000009,
      "d": 90.20608333333803,
      "v": 93
    },
    {
      "midi": 65,
      "hit": false,
      "t": 40515.41800000009,
      "d": 64.43291666666482,
      "v": 93
    },
    {
      "midi": 58,
      "hit": false,
      "t": 40515.41800000009,
      "d": 70.87620833333494,
      "v": 113
    },
    {
      "midi": 61,
      "hit": false,
      "t": 40515.41800000009,
      "d": 70.87620833333494,
      "v": 76
    },
    {
      "midi": 55,
      "hit": false,
      "t": 40515.41800000009,
      "d": 77.31950000000506,
      "v": 107
    },
    {
      "midi": 67,
      "hit": false,
      "t": 40515.41800000009,
      "d": 77.31950000000506,
      "v": 93
    },
    {
      "midi": 70,
      "hit": false,
      "t": 41133.974000000104,
      "d": 476.80358333333425,
      "v": 98
    },
    {
      "midi": 60,
      "hit": false,
      "t": 41133.974000000104,
      "d": 502.5767500000002,
      "v": 98
    },
    {
      "midi": 55,
      "hit": false,
      "t": 41133.974000000104,
      "d": 528.3499166666661,
      "v": 98
    },
    {
      "midi": 64,
      "hit": false,
      "t": 41133.974000000104,
      "d": 528.3499166666661,
      "v": 98
    },
    {
      "midi": 48,
      "hit": false,
      "t": 41133.974000000104,
      "d": 541.2364999999991,
      "v": 113
    },
    {
      "midi": 67,
      "hit": false,
      "t": 41133.974000000104,
      "d": 541.2364999999991,
      "v": 85
    },
    {
      "midi": 84,
      "hit": false,
      "t": 41133.974000000104,
      "d": 586.3395416666681,
      "v": 113
    },
    {
      "midi": 82,
      "hit": false,
      "t": 41752.53000000011,
      "d": 96.64937500000087,
      "v": 107
    },
    {
      "midi": 48,
      "hit": false,
      "t": 41752.53000000011,
      "d": 115.97925000000396,
      "v": 98
    },
    {
      "midi": 60,
      "hit": false,
      "t": 41752.53000000011,
      "d": 115.97925000000396,
      "v": 85
    },
    {
      "midi": 55,
      "hit": false,
      "t": 41752.53000000011,
      "d": 122.42254166667408,
      "v": 102
    },
    {
      "midi": 64,
      "hit": false,
      "t": 41752.53000000011,
      "d": 128.8658333333442,
      "v": 80
    },
    {
      "midi": 67,
      "hit": false,
      "t": 41752.53000000011,
      "d": 141.75241666667716,
      "v": 80
    },
    {
      "midi": 56,
      "hit": false,
      "t": 42061.80800000012,
      "d": 257.73166666666657,
      "v": 93
    },
    {
      "midi": 60,
      "hit": false,
      "t": 42061.80800000012,
      "d": 257.73166666666657,
      "v": 93
    },
    {
      "midi": 53,
      "hit": false,
      "t": 42061.80800000012,
      "d": 264.1749583333367,
      "v": 93
    },
    {
      "midi": 63,
      "hit": false,
      "t": 42061.80800000012,
      "d": 315.72129166666855,
      "v": 107
    },
    {
      "midi": 53,
      "hit": false,
      "t": 42525.72500000012,
      "d": 238.40179166666348,
      "v": 98
    },
    {
      "midi": 56,
      "hit": false,
      "t": 42525.72500000012,
      "d": 238.40179166666348,
      "v": 93
    },
    {
      "midi": 60,
      "hit": false,
      "t": 42525.72500000012,
      "d": 238.40179166666348,
      "v": 93
    },
    {
      "midi": 63,
      "hit": false,
      "t": 42525.72500000012,
      "d": 296.39141666666546,
      "v": 107
    },
    {
      "midi": 63,
      "hit": false,
      "t": 42989.64200000012,
      "d": 90.20608333333803,
      "v": 113
    },
    {
      "midi": 56,
      "hit": false,
      "t": 42989.64200000012,
      "d": 103.092666666671,
      "v": 93
    },
    {
      "midi": 53,
      "hit": false,
      "t": 42989.64200000012,
      "d": 115.97925000000396,
      "v": 102
    },
    {
      "midi": 60,
      "hit": false,
      "t": 42989.64200000012,
      "d": 115.97925000000396,
      "v": 102
    },
    {
      "midi": 65,
      "hit": false,
      "t": 43298.92000000013,
      "d": 264.1749583333367,
      "v": 107
    },
    {
      "midi": 62,
      "hit": false,
      "t": 43298.92000000013,
      "d": 283.5048333333398,
      "v": 93
    },
    {
      "midi": 58,
      "hit": false,
      "t": 43298.92000000013,
      "d": 296.39141666667274,
      "v": 98
    },
    {
      "midi": 65,
      "hit": false,
      "t": 43762.83700000014,
      "d": 264.1749583333367,
      "v": 107
    },
    {
      "midi": 62,
      "hit": false,
      "t": 43762.83700000014,
      "d": 277.06154166666965,
      "v": 107
    },
    {
      "midi": 58,
      "hit": false,
      "t": 43762.83700000014,
      "d": 283.5048333333398,
      "v": 93
    },
    {
      "midi": 58,
      "hit": false,
      "t": 44226.754000000146,
      "d": 90.20608333333075,
      "v": 98
    },
    {
      "midi": 62,
      "hit": false,
      "t": 44226.754000000146,
      "d": 115.97924999999668,
      "v": 98
    },
    {
      "midi": 65,
      "hit": false,
      "t": 44226.754000000146,
      "d": 135.30912499999977,
      "v": 102
    },
    {
      "midi": 58,
      "hit": false,
      "t": 44536.032000000145,
      "d": 270.61824999999953,
      "v": 93
    },
    {
      "midi": 51,
      "hit": false,
      "t": 44536.032000000145,
      "d": 283.5048333333325,
      "v": 107
    },
    {
      "midi": 62,
      "hit": false,
      "t": 44536.032000000145,
      "d": 283.5048333333325,
      "v": 89
    },
    {
      "midi": 67,
      "hit": false,
      "t": 44536.032000000145,
      "d": 289.9481250000026,
      "v": 102
    },
    {
      "midi": 51,
      "hit": false,
      "t": 44999.949000000146,
      "d": 238.40179166666348,
      "v": 107
    },
    {
      "midi": 58,
      "hit": false,
      "t": 44999.949000000146,
      "d": 244.8450833333336,
      "v": 89
    },
    {
      "midi": 62,
      "hit": false,
      "t": 44999.949000000146,
      "d": 257.73166666666657,
      "v": 98
    },
    {
      "midi": 67,
      "hit": false,
      "t": 44999.949000000146,
      "d": 270.61824999999953,
      "v": 102
    },
    {
      "midi": 51,
      "hit": false,
      "t": 45463.86600000015,
      "d": 109.53595833333384,
      "v": 102
    },
    {
      "midi": 58,
      "hit": false,
      "t": 45463.86600000015,
      "d": 122.4225416666668,
      "v": 93
    },
    {
      "midi": 67,
      "hit": false,
      "t": 45463.86600000015,
      "d": 154.63900000000285,
      "v": 102
    },
    {
      "midi": 62,
      "hit": false,
      "t": 45463.86600000015,
      "d": 161.08229166667297,
      "v": 93
    },
    {
      "midi": 63,
      "hit": false,
      "t": 45773.14400000015,
      "d": 277.06154166666965,
      "v": 89
    },
    {
      "midi": 60,
      "hit": false,
      "t": 45773.14400000015,
      "d": 283.5048333333398,
      "v": 93
    },
    {
      "midi": 56,
      "hit": false,
      "t": 45773.14400000015,
      "d": 296.39141666667274,
      "v": 98
    },
    {
      "midi": 67,
      "hit": false,
      "t": 45773.14400000015,
      "d": 302.83470833334286,
      "v": 107
    },
    {
      "midi": 63,
      "hit": false,
      "t": 46237.06100000016,
      "d": 270.61824999999953,
      "v": 113
    },
    {
      "midi": 60,
      "hit": false,
      "t": 46237.06100000016,
      "d": 277.06154166666965,
      "v": 107
    },
    {
      "midi": 56,
      "hit": false,
      "t": 46237.06100000016,
      "d": 283.5048333333398,
      "v": 107
    },
    {
      "midi": 67,
      "hit": false,
      "t": 46237.06100000016,
      "d": 296.39141666667274,
      "v": 102
    },
    {
      "midi": 67,
      "hit": false,
      "t": 46700.97800000017,
      "d": 141.7524166666699,
      "v": 107
    },
    {
      "midi": 56,
      "hit": false,
      "t": 46700.97800000017,
      "d": 161.08229166667297,
      "v": 107
    },
    {
      "midi": 60,
      "hit": false,
      "t": 46700.97800000017,
      "d": 167.5255833333431,
      "v": 107
    },
    {
      "midi": 63,
      "hit": false,
      "t": 46700.97800000017,
      "d": 167.5255833333431,
      "v": 107
    },
    {
      "midi": 60,
      "hit": false,
      "t": 47010.25600000018,
      "d": 109.53595833333384,
      "v": 98
    },
    {
      "midi": 53,
      "hit": false,
      "t": 47010.25600000018,
      "d": 115.97925000000396,
      "v": 98
    },
    {
      "midi": 56,
      "hit": false,
      "t": 47010.25600000018,
      "d": 115.97925000000396,
      "v": 98
    },
    {
      "midi": 63,
      "hit": false,
      "t": 47010.25600000018,
      "d": 122.42254166667408,
      "v": 113
    },
    {
      "midi": 53,
      "hit": false,
      "t": 47319.53400000019,
      "d": 70.87620833333494,
      "v": 89
    },
    {
      "midi": 56,
      "hit": false,
      "t": 47319.53400000019,
      "d": 70.87620833333494,
      "v": 89
    },
    {
      "midi": 60,
      "hit": false,
      "t": 47319.53400000019,
      "d": 70.87620833333494,
      "v": 93
    },
    {
      "midi": 63,
      "hit": false,
      "t": 47319.53400000019,
      "d": 96.64937500000087,
      "v": 98
    },
    {
      "midi": 53,
      "hit": false,
      "t": 47474.17300000019,
      "d": 115.97924999999668,
      "v": 93
    },
    {
      "midi": 56,
      "hit": false,
      "t": 47474.17300000019,
      "d": 115.97924999999668,
      "v": 93
    },
    {
      "midi": 68,
      "hit": false,
      "t": 47474.17300000019,
      "d": 115.97924999999668,
      "v": 102
    },
    {
      "midi": 60,
      "hit": false,
      "t": 47474.17300000019,
      "d": 122.4225416666668,
      "v": 98
    },
    {
      "midi": 53,
      "hit": false,
      "t": 47783.45100000019,
      "d": 64.43291666666482,
      "v": 93
    },
    {
      "midi": 56,
      "hit": false,
      "t": 47783.45100000019,
      "d": 64.43291666666482,
      "v": 93
    },
    {
      "midi": 60,
      "hit": false,
      "t": 47783.45100000019,
      "d": 77.31949999999779,
      "v": 102
    },
    {
      "midi": 68,
      "hit": false,
      "t": 47783.45100000019,
      "d": 90.20608333333075,
      "v": 107
    },
    {
      "midi": 56,
      "hit": false,
      "t": 47938.090000000186,
      "d": 109.53595833333384,
      "v": 107
    },
    {
      "midi": 53,
      "hit": false,
      "t": 47938.090000000186,
      "d": 115.97925000000396,
      "v": 107
    },
    {
      "midi": 60,
      "hit": false,
      "t": 47938.090000000186,
      "d": 115.97925000000396,
      "v": 107
    },
    {
      "midi": 72,
      "hit": false,
      "t": 47938.090000000186,
      "d": 122.42254166667408,
      "v": 102
    },
    {
      "midi": 46,
      "hit": false,
      "t": 48247.36800000019,
      "d": 154.63900000000285,
      "v": 113
    },
    {
      "midi": 62,
      "hit": false,
      "t": 48247.36800000019,
      "d": 154.63900000000285,
      "v": 93
    },
    {
      "midi": 65,
      "hit": false,
      "t": 48247.36800000019,
      "d": 154.63900000000285,
      "v": 102
    },
    {
      "midi": 53,
      "hit": false,
      "t": 48247.36800000019,
      "d": 180.41216666666878,
      "v": 89
    },
    {
      "midi": 70,
      "hit": false,
      "t": 48247.36800000019,
      "d": 180.41216666666878,
      "v": 98
    },
    {
      "midi": 51,
      "hit": false,
      "t": 49484.48000000019,
      "d": 335.05116666666436,
      "v": 107
    },
    {
      "midi": 58,
      "hit": false,
      "t": 49793.75800000019,
      "d": 554.123083333332,
      "v": 72
    },
    {
      "midi": 67,
      "hit": false,
      "t": 49793.75800000019,
      "d": 560.5663750000022,
      "v": 98
    },
    {
      "midi": 63,
      "hit": false,
      "t": 49793.75800000019,
      "d": 567.0096666666723,
      "v": 107
    },
    {
      "midi": 58,
      "hit": false,
      "t": 50412.314000000195,
      "d": 219.07191666666768,
      "v": 85
    },
    {
      "midi": 63,
      "hit": false,
      "t": 50412.314000000195,
      "d": 315.72129166666855,
      "v": 107
    },
    {
      "midi": 67,
      "hit": false,
      "t": 50412.314000000195,
      "d": 347.9377500000046,
      "v": 102
    },
    {
      "midi": 58,
      "hit": false,
      "t": 51030.8700000002,
      "d": 128.86583333333692,
      "v": 98
    },
    {
      "midi": 46,
      "hit": false,
      "t": 51030.8700000002,
      "d": 141.7524166666699,
      "v": 102
    },
    {
      "midi": 48,
      "hit": false,
      "t": 51340.148000000205,
      "d": 122.4225416666668,
      "v": 93
    },
    {
      "midi": 60,
      "hit": false,
      "t": 51340.148000000205,
      "d": 128.86583333333692,
      "v": 102
    },
    {
      "midi": 62,
      "hit": false,
      "t": 51649.42600000021,
      "d": 96.64937500000087,
      "v": 113
    },
    {
      "midi": 50,
      "hit": false,
      "t": 51649.42600000021,
      "d": 109.53595833333384,
      "v": 102
    },
    {
      "midi": 58,
      "hit": false,
      "t": 52267.98200000021,
      "d": 64.43291666666482,
      "v": 55
    },
    {
      "midi": 51,
      "hit": false,
      "t": 52267.98200000021,
      "d": 70.87620833333494,
      "v": 93
    },
    {
      "midi": 63,
      "hit": false,
      "t": 52267.98200000021,
      "d": 70.87620833333494,
      "v": 98
    },
    {
      "midi": 67,
      "hit": false,
      "t": 52267.98200000021,
      "d": 70.87620833333494,
      "v": 68
    },
    {
      "midi": 63,
      "hit": false,
      "t": 52422.62100000021,
      "d": 57.98962500000198,
      "v": 89
    },
    {
      "midi": 67,
      "hit": false,
      "t": 52422.62100000021,
      "d": 83.76279166666791,
      "v": 85
    },
    {
      "midi": 51,
      "hit": false,
      "t": 52422.62100000021,
      "d": 90.20608333333803,
      "v": 93
    },
    {
      "midi": 58,
      "hit": false,
      "t": 52422.62100000021,
      "d": 90.20608333333803,
      "v": 62
    },
    {
      "midi": 58,
      "hit": false,
      "t": 52886.53800000021,
      "d": 51.54633333333186,
      "v": 49
    },
    {
      "midi": 67,
      "hit": false,
      "t": 52886.53800000021,
      "d": 70.87620833333494,
      "v": 72
    },
    {
      "midi": 51,
      "hit": false,
      "t": 52886.53800000021,
      "d": 77.31950000000506,
      "v": 89
    },
    {
      "midi": 63,
      "hit": false,
      "t": 52886.53800000021,
      "d": 77.31950000000506,
      "v": 93
    },
    {
      "midi": 63,
      "hit": false,
      "t": 53041.177000000214,
      "d": 64.43291666666482,
      "v": 98
    },
    {
      "midi": 67,
      "hit": false,
      "t": 53041.177000000214,
      "d": 70.87620833333494,
      "v": 89
    },
    {
      "midi": 58,
      "hit": false,
      "t": 53041.177000000214,
      "d": 77.31950000000506,
      "v": 76
    },
    {
      "midi": 51,
      "hit": false,
      "t": 53041.177000000214,
      "d": 90.20608333333803,
      "v": 93
    },
    {
      "midi": 58,
      "hit": false,
      "t": 53505.094000000216,
      "d": 57.98962500000198,
      "v": 64
    },
    {
      "midi": 63,
      "hit": false,
      "t": 53505.094000000216,
      "d": 70.87620833333494,
      "v": 98
    },
    {
      "midi": 51,
      "hit": false,
      "t": 53505.094000000216,
      "d": 77.31950000000506,
      "v": 93
    },
    {
      "midi": 67,
      "hit": false,
      "t": 53505.094000000216,
      "d": 83.76279166667518,
      "v": 89
    },
    {
      "midi": 58,
      "hit": false,
      "t": 53659.733000000226,
      "d": 64.43291666666482,
      "v": 62
    },
    {
      "midi": 63,
      "hit": false,
      "t": 53659.733000000226,
      "d": 83.76279166666791,
      "v": 102
    },
    {
      "midi": 51,
      "hit": false,
      "t": 53659.733000000226,
      "d": 96.64937500000087,
      "v": 93
    },
    {
      "midi": 67,
      "hit": false,
      "t": 53659.733000000226,
      "d": 96.64937500000087,
      "v": 89
    },
    {
      "midi": 63,
      "hit": false,
      "t": 54123.65000000023,
      "d": 64.43291666666482,
      "v": 102
    },
    {
      "midi": 67,
      "hit": false,
      "t": 54123.65000000023,
      "d": 64.43291666666482,
      "v": 85
    },
    {
      "midi": 51,
      "hit": false,
      "t": 54123.65000000023,
      "d": 77.31949999999779,
      "v": 93
    },
    {
      "midi": 58,
      "hit": false,
      "t": 54123.65000000023,
      "d": 77.31949999999779,
      "v": 76
    },
    {
      "midi": 58,
      "hit": false,
      "t": 54278.28900000022,
      "d": 64.43291666666482,
      "v": 64
    },
    {
      "midi": 63,
      "hit": false,
      "t": 54278.28900000022,
      "d": 70.87620833333494,
      "v": 102
    },
    {
      "midi": 51,
      "hit": false,
      "t": 54278.28900000022,
      "d": 77.31950000000506,
      "v": 89
    },
    {
      "midi": 67,
      "hit": false,
      "t": 54278.28900000022,
      "d": 77.31950000000506,
      "v": 93
    },
    {
      "midi": 62,
      "hit": false,
      "t": 54742.20600000023,
      "d": 57.98962500000198,
      "v": 80
    },
    {
      "midi": 43,
      "hit": false,
      "t": 54742.20600000023,
      "d": 64.4329166666721,
      "v": 85
    },
    {
      "midi": 55,
      "hit": false,
      "t": 54742.20600000023,
      "d": 64.4329166666721,
      "v": 62
    },
    {
      "midi": 67,
      "hit": false,
      "t": 54742.20600000023,
      "d": 64.4329166666721,
      "v": 76
    },
    {
      "midi": 59,
      "hit": false,
      "t": 54742.20600000023,
      "d": 77.31950000000506,
      "v": 72
    },
    {
      "midi": 43,
      "hit": false,
      "t": 54896.845000000234,
      "d": 77.31949999999779,
      "v": 85
    },
    {
      "midi": 62,
      "hit": false,
      "t": 54896.845000000234,
      "d": 77.31949999999779,
      "v": 89
    },
    {
      "midi": 55,
      "hit": false,
      "t": 54896.845000000234,
      "d": 83.76279166666791,
      "v": 53
    },
    {
      "midi": 59,
      "hit": false,
      "t": 54896.845000000234,
      "d": 90.20608333333803,
      "v": 76
    },
    {
      "midi": 67,
      "hit": false,
      "t": 54896.845000000234,
      "d": 96.64937500000815,
      "v": 89
    },
    {
      "midi": 62,
      "hit": false,
      "t": 55360.76200000024,
      "d": 70.87620833333494,
      "v": 93
    },
    {
      "midi": 55,
      "hit": false,
      "t": 55360.76200000024,
      "d": 77.31950000000506,
      "v": 76
    },
    {
      "midi": 67,
      "hit": false,
      "t": 55360.76200000024,
      "d": 77.31950000000506,
      "v": 80
    },
    {
      "midi": 43,
      "hit": false,
      "t": 55360.76200000024,
      "d": 83.76279166667518,
      "v": 98
    },
    {
      "midi": 59,
      "hit": false,
      "t": 55360.76200000024,
      "d": 83.76279166667518,
      "v": 68
    },
    {
      "midi": 62,
      "hit": false,
      "t": 55515.40100000025,
      "d": 70.87620833333494,
      "v": 93
    },
    {
      "midi": 55,
      "hit": false,
      "t": 55515.40100000025,
      "d": 83.76279166666791,
      "v": 60
    },
    {
      "midi": 59,
      "hit": false,
      "t": 55515.40100000025,
      "d": 83.76279166666791,
      "v": 80
    },
    {
      "midi": 43,
      "hit": false,
      "t": 55515.40100000025,
      "d": 90.20608333333803,
      "v": 98
    },
    {
      "midi": 67,
      "hit": false,
      "t": 55515.40100000025,
      "d": 103.092666666671,
      "v": 89
    },
    {
      "midi": 58,
      "hit": false,
      "t": 55979.318000000254,
      "d": 77.31949999999779,
      "v": 76
    },
    {
      "midi": 64,
      "hit": false,
      "t": 55979.318000000254,
      "d": 77.31949999999779,
      "v": 93
    },
    {
      "midi": 67,
      "hit": false,
      "t": 55979.318000000254,
      "d": 77.31949999999779,
      "v": 72
    },
    {
      "midi": 60,
      "hit": false,
      "t": 55979.318000000254,
      "d": 90.20608333333075,
      "v": 76
    },
    {
      "midi": 64,
      "hit": false,
      "t": 56133.95700000025,
      "d": 64.43291666666482,
      "v": 80
    },
    {
      "midi": 60,
      "hit": false,
      "t": 56133.95700000025,
      "d": 77.31949999999779,
      "v": 62
    },
    {
      "midi": 58,
      "hit": false,
      "t": 56133.95700000025,
      "d": 90.20608333333075,
      "v": 89
    },
    {
      "midi": 67,
      "hit": false,
      "t": 56133.95700000025,
      "d": 90.20608333333075,
      "v": 72
    },
    {
      "midi": 58,
      "hit": false,
      "t": 56597.87400000024,
      "d": 64.43291666666482,
      "v": 80
    },
    {
      "midi": 64,
      "hit": false,
      "t": 56597.87400000024,
      "d": 64.43291666666482,
      "v": 89
    },
    {
      "midi": 67,
      "hit": false,
      "t": 56597.87400000024,
      "d": 77.31949999999779,
      "v": 80
    },
    {
      "midi": 60,
      "hit": false,
      "t": 56597.87400000024,
      "d": 83.76279166666791,
      "v": 76
    },
    {
      "midi": 60,
      "hit": false,
      "t": 56752.51300000025,
      "d": 57.98962500000198,
      "v": 72
    },
    {
      "midi": 64,
      "hit": false,
      "t": 56752.51300000025,
      "d": 57.98962500000198,
      "v": 93
    },
    {
      "midi": 58,
      "hit": false,
      "t": 56752.51300000025,
      "d": 77.31950000000506,
      "v": 93
    },
    {
      "midi": 67,
      "hit": false,
      "t": 56752.51300000025,
      "d": 77.31950000000506,
      "v": 93
    },
    {
      "midi": 57,
      "hit": false,
      "t": 57216.430000000255,
      "d": 64.43291666666482,
      "v": 59
    },
    {
      "midi": 53,
      "hit": false,
      "t": 57216.430000000255,
      "d": 70.87620833333494,
      "v": 89
    },
    {
      "midi": 60,
      "hit": false,
      "t": 57216.430000000255,
      "d": 77.31950000000506,
      "v": 93
    },
    {
      "midi": 63,
      "hit": false,
      "t": 57216.430000000255,
      "d": 83.76279166667518,
      "v": 89
    },
    {
      "midi": 63,
      "hit": false,
      "t": 57371.069000000265,
      "d": 90.20608333333075,
      "v": 98
    },
    {
      "midi": 60,
      "hit": false,
      "t": 57371.069000000265,
      "d": 96.64937500000087,
      "v": 102
    },
    {
      "midi": 57,
      "hit": false,
      "t": 57371.069000000265,
      "d": 103.092666666671,
      "v": 72
    },
    {
      "midi": 53,
      "hit": false,
      "t": 57371.069000000265,
      "d": 109.53595833334111,
      "v": 102
    },
    {
      "midi": 57,
      "hit": false,
      "t": 57834.98600000027,
      "d": 70.87620833333494,
      "v": 68
    },
    {
      "midi": 53,
      "hit": false,
      "t": 57834.98600000027,
      "d": 77.31950000000506,
      "v": 102
    },
    {
      "midi": 63,
      "hit": false,
      "t": 57834.98600000027,
      "d": 77.31950000000506,
      "v": 93
    },
    {
      "midi": 60,
      "hit": false,
      "t": 57834.98600000027,
      "d": 90.20608333333803,
      "v": 98
    },
    {
      "midi": 53,
      "hit": false,
      "t": 57989.62500000028,
      "d": 64.43291666666482,
      "v": 89
    },
    {
      "midi": 63,
      "hit": false,
      "t": 57989.62500000028,
      "d": 64.43291666666482,
      "v": 89
    },
    {
      "midi": 57,
      "hit": false,
      "t": 57989.62500000028,
      "d": 70.87620833333494,
      "v": 76
    },
    {
      "midi": 60,
      "hit": false,
      "t": 57989.62500000028,
      "d": 77.31950000000506,
      "v": 107
    },
    {
      "midi": 46,
      "hit": false,
      "t": 58453.542000000285,
      "d": 77.31949999999779,
      "v": 76
    },
    {
      "midi": 53,
      "hit": false,
      "t": 58453.542000000285,
      "d": 77.31949999999779,
      "v": 80
    },
    {
      "midi": 56,
      "hit": false,
      "t": 58453.542000000285,
      "d": 77.31949999999779,
      "v": 76
    },
    {
      "midi": 62,
      "hit": false,
      "t": 58453.542000000285,
      "d": 77.31949999999779,
      "v": 89
    },
    {
      "midi": 65,
      "hit": false,
      "t": 58453.542000000285,
      "d": 77.31949999999779,
      "v": 93
    },
    {
      "midi": 53,
      "hit": false,
      "t": 58608.18100000028,
      "d": 77.31949999999779,
      "v": 80
    },
    {
      "midi": 62,
      "hit": false,
      "t": 58608.18100000028,
      "d": 77.31949999999779,
      "v": 93
    },
    {
      "midi": 46,
      "hit": false,
      "t": 58608.18100000028,
      "d": 83.76279166666791,
      "v": 98
    },
    {
      "midi": 56,
      "hit": false,
      "t": 58608.18100000028,
      "d": 83.76279166666791,
      "v": 85
    },
    {
      "midi": 65,
      "hit": false,
      "t": 58608.18100000028,
      "d": 90.20608333333803,
      "v": 93
    },
    {
      "midi": 53,
      "hit": false,
      "t": 59072.09800000028,
      "d": 70.87620833333494,
      "v": 89
    },
    {
      "midi": 56,
      "hit": false,
      "t": 59072.09800000028,
      "d": 70.87620833333494,
      "v": 89
    },
    {
      "midi": 62,
      "hit": false,
      "t": 59072.09800000028,
      "d": 70.87620833333494,
      "v": 98
    },
    {
      "midi": 46,
      "hit": false,
      "t": 59072.09800000028,
      "d": 77.31950000000506,
      "v": 98
    },
    {
      "midi": 65,
      "hit": false,
      "t": 59072.09800000028,
      "d": 90.20608333333803,
      "v": 107
    },
    {
      "midi": 46,
      "hit": false,
      "t": 59226.737000000285,
      "d": 51.54633333333186,
      "v": 98
    },
    {
      "midi": 56,
      "hit": false,
      "t": 59226.737000000285,
      "d": 57.98962500000198,
      "v": 80
    },
    {
      "midi": 62,
      "hit": false,
      "t": 59226.737000000285,
      "d": 70.87620833333494,
      "v": 98
    },
    {
      "midi": 53,
      "hit": false,
      "t": 59226.737000000285,
      "d": 90.20608333333803,
      "v": 89
    },
    {
      "midi": 65,
      "hit": false,
      "t": 59226.737000000285,
      "d": 90.20608333333803,
      "v": 93
    },
    {
      "midi": 64,
      "hit": false,
      "t": 59381.37600000029,
      "d": 25.77316666666593,
      "v": 36
    },
    {
      "midi": 63,
      "hit": false,
      "t": 59690.654000000286,
      "d": 64.43291666666482,
      "v": 102
    },
    {
      "midi": 51,
      "hit": false,
      "t": 59690.654000000286,
      "d": 70.87620833333494,
      "v": 107
    },
    {
      "midi": 67,
      "hit": false,
      "t": 59690.654000000286,
      "d": 70.87620833333494,
      "v": 93
    },
    {
      "midi": 58,
      "hit": false,
      "t": 59690.654000000286,
      "d": 77.31950000000506,
      "v": 72
    },
    {
      "midi": 63,
      "hit": false,
      "t": 59845.29300000029,
      "d": 77.31949999999779,
      "v": 113
    },
    {
      "midi": 51,
      "hit": false,
      "t": 59845.29300000029,
      "d": 90.20608333333075,
      "v": 107
    },
    {
      "midi": 58,
      "hit": false,
      "t": 59845.29300000029,
      "d": 90.20608333333075,
      "v": 76
    },
    {
      "midi": 67,
      "hit": false,
      "t": 59845.29300000029,
      "d": 96.64937500000087,
      "v": 93
    },
    {
      "midi": 58,
      "hit": false,
      "t": 60309.21000000029,
      "d": 83.76279166666791,
      "v": 89
    },
    {
      "midi": 63,
      "hit": false,
      "t": 60309.21000000029,
      "d": 83.76279166666791,
      "v": 113
    },
    {
      "midi": 51,
      "hit": false,
      "t": 60309.21000000029,
      "d": 90.20608333333803,
      "v": 113
    },
    {
      "midi": 67,
      "hit": false,
      "t": 60309.21000000029,
      "d": 96.64937500000815,
      "v": 107
    },
    {
      "midi": 53,
      "hit": false,
      "t": 60618.488000000296,
      "d": 103.09266666666372,
      "v": 98
    },
    {
      "midi": 56,
      "hit": false,
      "t": 60618.488000000296,
      "d": 103.09266666666372,
      "v": 107
    },
    {
      "midi": 63,
      "hit": false,
      "t": 60618.488000000296,
      "d": 103.09266666666372,
      "v": 107
    },
    {
      "midi": 60,
      "hit": false,
      "t": 60618.488000000296,
      "d": 109.53595833333384,
      "v": 107
    },
    {
      "midi": 60,
      "hit": false,
      "t": 60927.766000000294,
      "d": 64.43291666666482,
      "v": 107
    },
    {
      "midi": 56,
      "hit": false,
      "t": 60927.766000000294,
      "d": 77.31949999999779,
      "v": 107
    },
    {
      "midi": 63,
      "hit": false,
      "t": 60927.766000000294,
      "d": 77.31949999999779,
      "v": 107
    },
    {
      "midi": 53,
      "hit": false,
      "t": 60927.766000000294,
      "d": 90.20608333333075,
      "v": 102
    },
    {
      "midi": 58,
      "hit": false,
      "t": 61082.40500000029,
      "d": 115.97924999999668,
      "v": 98
    },
    {
      "midi": 62,
      "hit": false,
      "t": 61082.40500000029,
      "d": 122.4225416666668,
      "v": 107
    },
    {
      "midi": 65,
      "hit": false,
      "t": 61082.40500000029,
      "d": 122.4225416666668,
      "v": 107
    },
    {
      "midi": 62,
      "hit": false,
      "t": 61391.68300000029,
      "d": 57.98962500000198,
      "v": 89
    },
    {
      "midi": 65,
      "hit": false,
      "t": 61391.68300000029,
      "d": 64.4329166666721,
      "v": 107
    },
    {
      "midi": 58,
      "hit": false,
      "t": 61391.68300000029,
      "d": 70.87620833334222,
      "v": 93
    },
    {
      "midi": 65,
      "hit": false,
      "t": 61546.3220000003,
      "d": 83.76279166666791,
      "v": 113
    },
    {
      "midi": 62,
      "hit": false,
      "t": 61546.3220000003,
      "d": 90.20608333333803,
      "v": 107
    },
    {
      "midi": 58,
      "hit": false,
      "t": 61546.3220000003,
      "d": 96.64937500000815,
      "v": 89
    },
    {
      "midi": 58,
      "hit": false,
      "t": 62164.87800000031,
      "d": 64.43291666666482,
      "v": 55
    },
    {
      "midi": 51,
      "hit": false,
      "t": 62164.87800000031,
      "d": 70.87620833333494,
      "v": 93
    },
    {
      "midi": 63,
      "hit": false,
      "t": 62164.87800000031,
      "d": 70.87620833333494,
      "v": 98
    },
    {
      "midi": 67,
      "hit": false,
      "t": 62164.87800000031,
      "d": 70.87620833333494,
      "v": 68
    },
    {
      "midi": 63,
      "hit": false,
      "t": 62319.51700000031,
      "d": 57.98962500000198,
      "v": 89
    },
    {
      "midi": 67,
      "hit": false,
      "t": 62319.51700000031,
      "d": 83.76279166666791,
      "v": 85
    },
    {
      "midi": 51,
      "hit": false,
      "t": 62319.51700000031,
      "d": 90.20608333333803,
      "v": 93
    },
    {
      "midi": 58,
      "hit": false,
      "t": 62319.51700000031,
      "d": 90.20608333333803,
      "v": 62
    },
    {
      "midi": 58,
      "hit": false,
      "t": 62783.434000000314,
      "d": 51.54633333333186,
      "v": 49
    },
    {
      "midi": 67,
      "hit": false,
      "t": 62783.434000000314,
      "d": 70.87620833333494,
      "v": 72
    },
    {
      "midi": 51,
      "hit": false,
      "t": 62783.434000000314,
      "d": 77.31950000000506,
      "v": 89
    },
    {
      "midi": 63,
      "hit": false,
      "t": 62783.434000000314,
      "d": 77.31950000000506,
      "v": 93
    },
    {
      "midi": 63,
      "hit": false,
      "t": 62938.07300000032,
      "d": 64.43291666666482,
      "v": 98
    },
    {
      "midi": 67,
      "hit": false,
      "t": 62938.07300000032,
      "d": 70.87620833333494,
      "v": 89
    },
    {
      "midi": 58,
      "hit": false,
      "t": 62938.07300000032,
      "d": 77.31950000000506,
      "v": 76
    },
    {
      "midi": 51,
      "hit": false,
      "t": 62938.07300000032,
      "d": 90.20608333333803,
      "v": 93
    },
    {
      "midi": 58,
      "hit": false,
      "t": 63401.99000000032,
      "d": 57.98962500000198,
      "v": 64
    },
    {
      "midi": 63,
      "hit": false,
      "t": 63401.99000000032,
      "d": 70.87620833333494,
      "v": 98
    },
    {
      "midi": 51,
      "hit": false,
      "t": 63401.99000000032,
      "d": 77.31950000000506,
      "v": 93
    },
    {
      "midi": 67,
      "hit": false,
      "t": 63401.99000000032,
      "d": 83.76279166667518,
      "v": 89
    },
    {
      "midi": 58,
      "hit": false,
      "t": 63556.62900000033,
      "d": 64.43291666666482,
      "v": 62
    },
    {
      "midi": 63,
      "hit": false,
      "t": 63556.62900000033,
      "d": 83.76279166666791,
      "v": 102
    },
    {
      "midi": 51,
      "hit": false,
      "t": 63556.62900000033,
      "d": 96.64937500000087,
      "v": 93
    },
    {
      "midi": 67,
      "hit": false,
      "t": 63556.62900000033,
      "d": 96.64937500000087,
      "v": 89
    },
    {
      "midi": 63,
      "hit": false,
      "t": 64020.54600000033,
      "d": 64.43291666666482,
      "v": 102
    },
    {
      "midi": 67,
      "hit": false,
      "t": 64020.54600000033,
      "d": 64.43291666666482,
      "v": 85
    },
    {
      "midi": 51,
      "hit": false,
      "t": 64020.54600000033,
      "d": 77.31949999999779,
      "v": 93
    },
    {
      "midi": 58,
      "hit": false,
      "t": 64020.54600000033,
      "d": 77.31949999999779,
      "v": 76
    },
    {
      "midi": 58,
      "hit": false,
      "t": 64175.185000000325,
      "d": 64.43291666666482,
      "v": 64
    },
    {
      "midi": 63,
      "hit": false,
      "t": 64175.185000000325,
      "d": 70.87620833333494,
      "v": 102
    },
    {
      "midi": 51,
      "hit": false,
      "t": 64175.185000000325,
      "d": 77.31950000000506,
      "v": 89
    },
    {
      "midi": 67,
      "hit": false,
      "t": 64175.185000000325,
      "d": 77.31950000000506,
      "v": 93
    },
    {
      "midi": 62,
      "hit": false,
      "t": 64639.102000000334,
      "d": 57.98962500000198,
      "v": 80
    },
    {
      "midi": 43,
      "hit": false,
      "t": 64639.102000000334,
      "d": 64.4329166666721,
      "v": 85
    },
    {
      "midi": 55,
      "hit": false,
      "t": 64639.102000000334,
      "d": 64.4329166666721,
      "v": 62
    },
    {
      "midi": 67,
      "hit": false,
      "t": 64639.102000000334,
      "d": 64.4329166666721,
      "v": 76
    },
    {
      "midi": 59,
      "hit": false,
      "t": 64639.102000000334,
      "d": 77.31950000000506,
      "v": 72
    },
    {
      "midi": 43,
      "hit": false,
      "t": 64793.74100000034,
      "d": 77.31949999999779,
      "v": 85
    },
    {
      "midi": 62,
      "hit": false,
      "t": 64793.74100000034,
      "d": 77.31949999999779,
      "v": 89
    },
    {
      "midi": 55,
      "hit": false,
      "t": 64793.74100000034,
      "d": 83.76279166666791,
      "v": 53
    },
    {
      "midi": 59,
      "hit": false,
      "t": 64793.74100000034,
      "d": 90.20608333333803,
      "v": 76
    },
    {
      "midi": 67,
      "hit": false,
      "t": 64793.74100000034,
      "d": 96.64937500000815,
      "v": 89
    },
    {
      "midi": 62,
      "hit": false,
      "t": 65257.658000000345,
      "d": 70.87620833333494,
      "v": 93
    },
    {
      "midi": 55,
      "hit": false,
      "t": 65257.658000000345,
      "d": 77.31950000000506,
      "v": 76
    },
    {
      "midi": 67,
      "hit": false,
      "t": 65257.658000000345,
      "d": 77.31950000000506,
      "v": 80
    },
    {
      "midi": 43,
      "hit": false,
      "t": 65257.658000000345,
      "d": 83.76279166667518,
      "v": 98
    },
    {
      "midi": 59,
      "hit": false,
      "t": 65257.658000000345,
      "d": 83.76279166667518,
      "v": 68
    },
    {
      "midi": 62,
      "hit": false,
      "t": 65412.297000000355,
      "d": 70.87620833333494,
      "v": 93
    },
    {
      "midi": 55,
      "hit": false,
      "t": 65412.297000000355,
      "d": 83.76279166666791,
      "v": 60
    },
    {
      "midi": 59,
      "hit": false,
      "t": 65412.297000000355,
      "d": 83.76279166666791,
      "v": 80
    },
    {
      "midi": 43,
      "hit": false,
      "t": 65412.297000000355,
      "d": 90.20608333333803,
      "v": 98
    },
    {
      "midi": 67,
      "hit": false,
      "t": 65412.297000000355,
      "d": 103.092666666671,
      "v": 89
    },
    {
      "midi": 58,
      "hit": false,
      "t": 65876.21400000036,
      "d": 77.31949999999779,
      "v": 76
    },
    {
      "midi": 64,
      "hit": false,
      "t": 65876.21400000036,
      "d": 77.31949999999779,
      "v": 93
    },
    {
      "midi": 67,
      "hit": false,
      "t": 65876.21400000036,
      "d": 77.31949999999779,
      "v": 72
    },
    {
      "midi": 60,
      "hit": false,
      "t": 65876.21400000036,
      "d": 90.20608333333803,
      "v": 76
    },
    {
      "midi": 64,
      "hit": false,
      "t": 66030.85300000037,
      "d": 64.4329166666721,
      "v": 80
    },
    {
      "midi": 60,
      "hit": false,
      "t": 66030.85300000037,
      "d": 77.31950000001234,
      "v": 62
    },
    {
      "midi": 58,
      "hit": false,
      "t": 66030.85300000037,
      "d": 90.20608333335258,
      "v": 89
    },
    {
      "midi": 67,
      "hit": false,
      "t": 66030.85300000037,
      "d": 90.20608333335258,
      "v": 72
    },
    {
      "midi": 58,
      "hit": false,
      "t": 66494.77000000038,
      "d": 64.4329166666721,
      "v": 80
    },
    {
      "midi": 64,
      "hit": false,
      "t": 66494.77000000038,
      "d": 64.4329166666721,
      "v": 89
    },
    {
      "midi": 67,
      "hit": false,
      "t": 66494.77000000038,
      "d": 77.31950000001234,
      "v": 80
    },
    {
      "midi": 60,
      "hit": false,
      "t": 66494.77000000038,
      "d": 83.76279166668246,
      "v": 76
    },
    {
      "midi": 60,
      "hit": false,
      "t": 66649.40900000039,
      "d": 57.98962500000198,
      "v": 72
    },
    {
      "midi": 64,
      "hit": false,
      "t": 66649.40900000039,
      "d": 57.98962500000198,
      "v": 93
    },
    {
      "midi": 58,
      "hit": false,
      "t": 66649.40900000039,
      "d": 77.31949999999779,
      "v": 93
    },
    {
      "midi": 67,
      "hit": false,
      "t": 66649.40900000039,
      "d": 77.31949999999779,
      "v": 93
    },
    {
      "midi": 53,
      "hit": false,
      "t": 66804.04800000039,
      "d": 115.97925000000396,
      "v": 98
    },
    {
      "midi": 60,
      "hit": false,
      "t": 66804.04800000039,
      "d": 154.63900000001013,
      "v": 89
    },
    {
      "midi": 57,
      "hit": false,
      "t": 66804.04800000039,
      "d": 161.08229166668025,
      "v": 102
    },
    {
      "midi": 63,
      "hit": false,
      "t": 66804.04800000039,
      "d": 173.9688750000205,
      "v": 93
    },
    {
      "midi": 65,
      "hit": false,
      "t": 66804.04800000039,
      "d": 193.2987500000163,
      "v": 107
    },
    {
      "midi": 53,
      "hit": false,
      "t": 67267.9650000004,
      "d": 193.29875000000175,
      "v": 107
    },
    {
      "midi": 60,
      "hit": false,
      "t": 67267.9650000004,
      "d": 199.74204166667187,
      "v": 98
    },
    {
      "midi": 57,
      "hit": false,
      "t": 67267.9650000004,
      "d": 206.185333333342,
      "v": 98
    },
    {
      "midi": 63,
      "hit": false,
      "t": 67267.9650000004,
      "d": 225.5152083333378,
      "v": 98
    },
    {
      "midi": 65,
      "hit": false,
      "t": 67267.9650000004,
      "d": 225.5152083333378,
      "v": 107
    },
    {
      "midi": 63,
      "hit": false,
      "t": 67731.8820000004,
      "d": 103.09266666666372,
      "v": 102
    },
    {
      "midi": 53,
      "hit": false,
      "t": 67731.8820000004,
      "d": 115.97925000000396,
      "v": 107
    },
    {
      "midi": 60,
      "hit": false,
      "t": 67731.8820000004,
      "d": 115.97925000000396,
      "v": 102
    },
    {
      "midi": 65,
      "hit": false,
      "t": 67731.8820000004,
      "d": 122.42254166667408,
      "v": 102
    },
    {
      "midi": 57,
      "hit": false,
      "t": 67731.8820000004,
      "d": 128.8658333333442,
      "v": 98
    },
    {
      "midi": 69,
      "hit": false,
      "t": 68041.16000000041,
      "d": 257.73166666667385,
      "v": 113
    },
    {
      "midi": 65,
      "hit": false,
      "t": 68041.16000000041,
      "d": 270.6182500000141,
      "v": 107
    },
    {
      "midi": 67,
      "hit": false,
      "t": 68505.07700000043,
      "d": 289.94812499999534,
      "v": 113
    },
    {
      "midi": 70,
      "hit": false,
      "t": 68505.07700000043,
      "d": 296.39141666666546,
      "v": 107
    },
    {
      "midi": 72,
      "hit": false,
      "t": 68968.99400000043,
      "d": 154.63899999999558,
      "v": 107
    },
    {
      "midi": 69,
      "hit": false,
      "t": 68968.99400000043,
      "d": 173.96887499999139,
      "v": 113
    },
    {
      "midi": 68,
      "hit": false,
      "t": 69278.27200000042,
      "d": 77.31949999999779,
      "v": 119
    },
    {
      "midi": 80,
      "hit": false,
      "t": 69278.27200000042,
      "d": 77.31949999999779,
      "v": 107
    },
    {
      "midi": 60,
      "hit": false,
      "t": 69278.27200000042,
      "d": 115.97925000000396,
      "v": 107
    },
    {
      "midi": 53,
      "hit": false,
      "t": 69278.27200000042,
      "d": 122.42254166667408,
      "v": 93
    },
    {
      "midi": 56,
      "hit": false,
      "t": 69278.27200000042,
      "d": 122.42254166667408,
      "v": 102
    },
    {
      "midi": 80,
      "hit": false,
      "t": 69587.55000000042,
      "d": 77.31949999999779,
      "v": 113
    },
    {
      "midi": 68,
      "hit": false,
      "t": 69587.55000000042,
      "d": 83.76279166666791,
      "v": 119
    },
    {
      "midi": 56,
      "hit": false,
      "t": 69587.55000000042,
      "d": 122.42254166667408,
      "v": 102
    },
    {
      "midi": 53,
      "hit": false,
      "t": 69587.55000000042,
      "d": 128.8658333333442,
      "v": 102
    },
    {
      "midi": 60,
      "hit": false,
      "t": 69587.55000000042,
      "d": 128.8658333333442,
      "v": 102
    },
    {
      "midi": 84,
      "hit": false,
      "t": 69742.18900000044,
      "d": 83.76279166666791,
      "v": 107
    },
    {
      "midi": 72,
      "hit": false,
      "t": 69742.18900000044,
      "d": 103.09266666666372,
      "v": 107
    },
    {
      "midi": 63,
      "hit": false,
      "t": 69742.18900000044,
      "d": 231.95849999999336,
      "v": 113
    },
    {
      "midi": 84,
      "hit": false,
      "t": 70051.46700000043,
      "d": 70.87620833332767,
      "v": 107
    },
    {
      "midi": 72,
      "hit": false,
      "t": 70051.46700000043,
      "d": 90.20608333332348,
      "v": 113
    },
    {
      "midi": 56,
      "hit": false,
      "t": 70051.46700000043,
      "d": 122.42254166665953,
      "v": 107
    },
    {
      "midi": 60,
      "hit": false,
      "t": 70051.46700000043,
      "d": 122.42254166665953,
      "v": 107
    },
    {
      "midi": 53,
      "hit": false,
      "t": 70051.46700000043,
      "d": 135.30912499999977,
      "v": 107
    },
    {
      "midi": 87,
      "hit": false,
      "t": 70206.10600000042,
      "d": 96.6493749999936,
      "v": 107
    },
    {
      "midi": 75,
      "hit": false,
      "t": 70206.10600000042,
      "d": 103.09266666666372,
      "v": 113
    },
    {
      "midi": 63,
      "hit": false,
      "t": 70206.10600000042,
      "d": 109.53595833333384,
      "v": 119
    },
    {
      "midi": 86,
      "hit": false,
      "t": 70515.38400000043,
      "d": 83.76279166666791,
      "v": 119
    },
    {
      "midi": 74,
      "hit": false,
      "t": 70515.38400000043,
      "d": 103.09266666666372,
      "v": 119
    },
    {
      "midi": 53,
      "hit": false,
      "t": 70515.38400000043,
      "d": 122.42254166665953,
      "v": 102
    },
    {
      "midi": 62,
      "hit": false,
      "t": 70515.38400000043,
      "d": 128.86583333332965,
      "v": 107
    },
    {
      "midi": 46,
      "hit": false,
      "t": 70515.38400000043,
      "d": 135.30912499999977,
      "v": 107
    },
    {
      "midi": 58,
      "hit": false,
      "t": 70515.38400000043,
      "d": 148.19570833334,
      "v": 102
    },
    {
      "midi": 48,
      "hit": false,
      "t": 71752.49600000044,
      "d": 257.73166666667385,
      "v": 107
    },
    {
      "midi": 67,
      "hit": false,
      "t": 72061.77400000044,
      "d": 70.87620833332767,
      "v": 80
    },
    {
      "midi": 63,
      "hit": false,
      "t": 72061.77400000044,
      "d": 77.31949999999779,
      "v": 98
    },
    {
      "midi": 60,
      "hit": false,
      "t": 72061.77400000044,
      "d": 90.20608333333803,
      "v": 76
    },
    {
      "midi": 63,
      "hit": false,
      "t": 72525.69100000044,
      "d": 70.87620833332767,
      "v": 98
    },
    {
      "midi": 67,
      "hit": false,
      "t": 72525.69100000044,
      "d": 77.31949999999779,
      "v": 85
    },
    {
      "midi": 60,
      "hit": false,
      "t": 72525.69100000044,
      "d": 83.76279166666791,
      "v": 80
    },
    {
      "midi": 48,
      "hit": false,
      "t": 72680.33000000044,
      "d": 77.31949999999779,
      "v": 89
    },
    {
      "midi": 60,
      "hit": false,
      "t": 72989.60800000043,
      "d": 90.20608333333803,
      "v": 72
    },
    {
      "midi": 63,
      "hit": false,
      "t": 72989.60800000043,
      "d": 90.20608333333803,
      "v": 98
    },
    {
      "midi": 67,
      "hit": false,
      "t": 72989.60800000043,
      "d": 103.09266666667827,
      "v": 89
    },
    {
      "midi": 60,
      "hit": false,
      "t": 73298.88600000044,
      "d": 57.98962500000198,
      "v": 62
    },
    {
      "midi": 63,
      "hit": false,
      "t": 73298.88600000044,
      "d": 77.31949999999779,
      "v": 98
    },
    {
      "midi": 48,
      "hit": false,
      "t": 73453.52500000043,
      "d": 70.87620833332767,
      "v": 93
    },
    {
      "midi": 60,
      "hit": false,
      "t": 73608.16400000043,
      "d": 83.76279166666791,
      "v": 76
    },
    {
      "midi": 48,
      "hit": false,
      "t": 73762.80300000042,
      "d": 64.4329166666721,
      "v": 98
    },
    {
      "midi": 60,
      "hit": false,
      "t": 73917.44200000043,
      "d": 83.76279166666791,
      "v": 89
    },
    {
      "midi": 63,
      "hit": false,
      "t": 73917.44200000043,
      "d": 83.76279166666791,
      "v": 102
    },
    {
      "midi": 67,
      "hit": false,
      "t": 73917.44200000043,
      "d": 96.64937500000815,
      "v": 85
    },
    {
      "midi": 48,
      "hit": false,
      "t": 74226.72000000045,
      "d": 270.61824999999953,
      "v": 98
    },
    {
      "midi": 60,
      "hit": false,
      "t": 74535.99800000046,
      "d": 70.87620833332767,
      "v": 60
    },
    {
      "midi": 63,
      "hit": false,
      "t": 74535.99800000046,
      "d": 77.31949999999779,
      "v": 93
    },
    {
      "midi": 67,
      "hit": false,
      "t": 74535.99800000046,
      "d": 90.20608333333803,
      "v": 93
    },
    {
      "midi": 48,
      "hit": false,
      "t": 74690.63700000047,
      "d": 64.4329166666721,
      "v": 89
    },
    {
      "midi": 60,
      "hit": false,
      "t": 74999.91500000047,
      "d": 64.4329166666721,
      "v": 68
    },
    {
      "midi": 63,
      "hit": false,
      "t": 74999.91500000047,
      "d": 64.4329166666721,
      "v": 93
    },
    {
      "midi": 67,
      "hit": false,
      "t": 74999.91500000047,
      "d": 70.87620833334222,
      "v": 85
    },
    {
      "midi": 48,
      "hit": false,
      "t": 75154.55400000048,
      "d": 64.4329166666721,
      "v": 80
    },
    {
      "midi": 60,
      "hit": false,
      "t": 75463.83200000049,
      "d": 90.20608333333803,
      "v": 80
    },
    {
      "midi": 63,
      "hit": false,
      "t": 75463.83200000049,
      "d": 90.20608333333803,
      "v": 102
    },
    {
      "midi": 67,
      "hit": false,
      "t": 75463.83200000049,
      "d": 96.64937500000815,
      "v": 93
    },
    {
      "midi": 63,
      "hit": false,
      "t": 75773.1100000005,
      "d": 38.65975000000617,
      "v": 59
    },
    {
      "midi": 60,
      "hit": false,
      "t": 75773.1100000005,
      "d": 90.20608333333803,
      "v": 80
    },
    {
      "midi": 48,
      "hit": false,
      "t": 75927.7490000005,
      "d": 77.31949999999779,
      "v": 93
    },
    {
      "midi": 63,
      "hit": false,
      "t": 76082.3880000005,
      "d": 83.76279166666791,
      "v": 93
    },
    {
      "midi": 60,
      "hit": false,
      "t": 76082.3880000005,
      "d": 103.09266666666372,
      "v": 85
    },
    {
      "midi": 67,
      "hit": false,
      "t": 76082.3880000005,
      "d": 103.09266666666372,
      "v": 72
    },
    {
      "midi": 63,
      "hit": false,
      "t": 76391.66600000049,
      "d": 70.87620833332767,
      "v": 107
    },
    {
      "midi": 60,
      "hit": false,
      "t": 76391.66600000049,
      "d": 83.76279166666791,
      "v": 93
    },
    {
      "midi": 67,
      "hit": false,
      "t": 76391.66600000049,
      "d": 83.76279166666791,
      "v": 93
    },
    {
      "midi": 56,
      "hit": false,
      "t": 76700.9440000005,
      "d": 251.28837500000373,
      "v": 93
    },
    {
      "midi": 53,
      "hit": false,
      "t": 76700.9440000005,
      "d": 257.73166666667385,
      "v": 98
    },
    {
      "midi": 60,
      "hit": false,
      "t": 76700.9440000005,
      "d": 257.73166666667385,
      "v": 93
    },
    {
      "midi": 65,
      "hit": false,
      "t": 77010.2220000005,
      "d": 64.4329166666721,
      "v": 89
    },
    {
      "midi": 68,
      "hit": false,
      "t": 77010.2220000005,
      "d": 64.4329166666721,
      "v": 107
    },
    {
      "midi": 68,
      "hit": false,
      "t": 77474.1390000005,
      "d": 70.87620833332767,
      "v": 113
    },
    {
      "midi": 65,
      "hit": false,
      "t": 77474.1390000005,
      "d": 77.31949999999779,
      "v": 93
    },
    {
      "midi": 46,
      "hit": false,
      "t": 77938.0560000005,
      "d": 844.0712083333347,
      "v": 98
    },
    {
      "midi": 65,
      "hit": false,
      "t": 78247.33400000051,
      "d": 90.20608333333803,
      "v": 89
    },
    {
      "midi": 58,
      "hit": false,
      "t": 78247.33400000051,
      "d": 96.64937500000815,
      "v": 72
    },
    {
      "midi": 62,
      "hit": false,
      "t": 78247.33400000051,
      "d": 96.64937500000815,
      "v": 89
    },
    {
      "midi": 60,
      "hit": false,
      "t": 78711.25100000051,
      "d": 83.76279166666791,
      "v": 102
    },
    {
      "midi": 65,
      "hit": false,
      "t": 78711.25100000051,
      "d": 122.42254166667408,
      "v": 98
    },
    {
      "midi": 58,
      "hit": false,
      "t": 79175.16800000053,
      "d": 38.65975000000617,
      "v": 44
    },
    {
      "midi": 51,
      "hit": false,
      "t": 79175.16800000053,
      "d": 850.5145000000048,
      "v": 93
    },
    {
      "midi": 63,
      "hit": false,
      "t": 79484.44600000053,
      "d": 70.87620833332767,
      "v": 89
    },
    {
      "midi": 67,
      "hit": false,
      "t": 79484.44600000053,
      "d": 83.76279166666791,
      "v": 102
    },
    {
      "midi": 70,
      "hit": false,
      "t": 79484.44600000053,
      "d": 83.76279166666791,
      "v": 102
    },
    {
      "midi": 65,
      "hit": false,
      "t": 79793.72400000054,
      "d": 70.87620833332767,
      "v": 98
    },
    {
      "midi": 70,
      "hit": false,
      "t": 79793.72400000054,
      "d": 109.53595833333384,
      "v": 89
    },
    {
      "midi": 63,
      "hit": false,
      "t": 79948.36300000054,
      "d": 115.97925000000396,
      "v": 107
    },
    {
      "midi": 48,
      "hit": false,
      "t": 80412.28000000054,
      "d": 541.2364999999991,
      "v": 102
    },
    {
      "midi": 63,
      "hit": false,
      "t": 80721.55800000053,
      "d": 51.54633333333186,
      "v": 107
    },
    {
      "midi": 58,
      "hit": false,
      "t": 80721.55800000053,
      "d": 64.4329166666721,
      "v": 76
    },
    {
      "midi": 67,
      "hit": false,
      "t": 80721.55800000053,
      "d": 64.4329166666721,
      "v": 93
    },
    {
      "midi": 63,
      "hit": false,
      "t": 81185.47500000053,
      "d": 83.76279166666791,
      "v": 107
    },
    {
      "midi": 58,
      "hit": false,
      "t": 81185.47500000053,
      "d": 90.20608333333803,
      "v": 85
    },
    {
      "midi": 67,
      "hit": false,
      "t": 81185.47500000053,
      "d": 90.20608333333803,
      "v": 98
    },
    {
      "midi": 53,
      "hit": false,
      "t": 81649.39200000053,
      "d": 792.5248750000028,
      "v": 93
    },
    {
      "midi": 63,
      "hit": false,
      "t": 81958.67000000054,
      "d": 103.09266666666372,
      "v": 89
    },
    {
      "midi": 68,
      "hit": false,
      "t": 81958.67000000054,
      "d": 115.97925000000396,
      "v": 102
    },
    {
      "midi": 60,
      "hit": false,
      "t": 81958.67000000054,
      "d": 257.73166666667385,
      "v": 98
    },
    {
      "midi": 68,
      "hit": false,
      "t": 82422.58700000054,
      "d": 83.76279166666791,
      "v": 107
    },
    {
      "midi": 63,
      "hit": false,
      "t": 82422.58700000054,
      "d": 90.20608333333803,
      "v": 89
    },
    {
      "midi": 46,
      "hit": false,
      "t": 82886.50400000054,
      "d": 1114.6894583333342,
      "v": 93
    },
    {
      "midi": 65,
      "hit": false,
      "t": 83195.78200000054,
      "d": 64.4329166666721,
      "v": 89
    },
    {
      "midi": 58,
      "hit": false,
      "t": 83195.78200000054,
      "d": 90.20608333333803,
      "v": 76
    },
    {
      "midi": 62,
      "hit": false,
      "t": 83195.78200000054,
      "d": 109.53595833333384,
      "v": 89
    },
    {
      "midi": 58,
      "hit": false,
      "t": 83505.06000000055,
      "d": 77.31949999999779,
      "v": 89
    },
    {
      "midi": 60,
      "hit": false,
      "t": 83659.69900000055,
      "d": 83.76279166666791,
      "v": 107
    },
    {
      "midi": 65,
      "hit": false,
      "t": 83659.69900000055,
      "d": 128.86583333332965,
      "v": 102
    },
    {
      "midi": 53,
      "hit": false,
      "t": 83814.33800000054,
      "d": 45.10304166666174,
      "v": 59
    },
    {
      "midi": 58,
      "hit": false,
      "t": 84123.61600000055,
      "d": 77.31949999999779,
      "v": 98
    },
    {
      "midi": 65,
      "hit": false,
      "t": 84123.61600000055,
      "d": 83.76279166666791,
      "v": 89
    },
    {
      "midi": 55,
      "hit": false,
      "t": 84123.61600000055,
      "d": 90.20608333333803,
      "v": 98
    },
    {
      "midi": 61,
      "hit": false,
      "t": 84123.61600000055,
      "d": 103.09266666667827,
      "v": 89
    },
    {
      "midi": 67,
      "hit": false,
      "t": 84123.61600000055,
      "d": 109.53595833334839,
      "v": 93
    },
    {
      "midi": 58,
      "hit": false,
      "t": 84587.53300000056,
      "d": 57.98962500000198,
      "v": 107
    },
    {
      "midi": 65,
      "hit": false,
      "t": 84587.53300000056,
      "d": 57.98962500000198,
      "v": 89
    },
    {
      "midi": 61,
      "hit": false,
      "t": 84587.53300000056,
      "d": 64.4329166666721,
      "v": 85
    },
    {
      "midi": 55,
      "hit": false,
      "t": 84587.53300000056,
      "d": 77.31950000001234,
      "v": 107
    },
    {
      "midi": 67,
      "hit": false,
      "t": 84587.53300000056,
      "d": 90.20608333335258,
      "v": 93
    },
    {
      "midi": 65,
      "hit": false,
      "t": 85051.45000000058,
      "d": 64.4329166666721,
      "v": 93
    },
    {
      "midi": 58,
      "hit": false,
      "t": 85051.45000000058,
      "d": 70.87620833334222,
      "v": 113
    },
    {
      "midi": 61,
      "hit": false,
      "t": 85051.45000000058,
      "d": 70.87620833334222,
      "v": 76
    },
    {
      "midi": 55,
      "hit": false,
      "t": 85051.45000000058,
      "d": 77.31950000001234,
      "v": 107
    },
    {
      "midi": 67,
      "hit": false,
      "t": 85051.45000000058,
      "d": 77.31950000001234,
      "v": 93
    },
    {
      "midi": 70,
      "hit": false,
      "t": 85670.00600000059,
      "d": 476.80358333332697,
      "v": 98
    },
    {
      "midi": 60,
      "hit": false,
      "t": 85670.00600000059,
      "d": 502.5767499999929,
      "v": 98
    },
    {
      "midi": 55,
      "hit": false,
      "t": 85670.00600000059,
      "d": 528.3499166666588,
      "v": 98
    },
    {
      "midi": 64,
      "hit": false,
      "t": 85670.00600000059,
      "d": 528.3499166666588,
      "v": 98
    },
    {
      "midi": 48,
      "hit": false,
      "t": 85670.00600000059,
      "d": 541.2364999999991,
      "v": 113
    },
    {
      "midi": 67,
      "hit": false,
      "t": 85670.00600000059,
      "d": 541.2364999999991,
      "v": 85
    },
    {
      "midi": 84,
      "hit": false,
      "t": 85670.00600000059,
      "d": 586.3395416666608,
      "v": 113
    },
    {
      "midi": 82,
      "hit": false,
      "t": 86288.56200000059,
      "d": 96.6493749999936,
      "v": 107
    },
    {
      "midi": 48,
      "hit": false,
      "t": 86288.56200000059,
      "d": 115.9792499999894,
      "v": 98
    },
    {
      "midi": 60,
      "hit": false,
      "t": 86288.56200000059,
      "d": 115.9792499999894,
      "v": 85
    },
    {
      "midi": 55,
      "hit": false,
      "t": 86288.56200000059,
      "d": 122.42254166665953,
      "v": 102
    },
    {
      "midi": 64,
      "hit": false,
      "t": 86288.56200000059,
      "d": 128.86583333332965,
      "v": 80
    },
    {
      "midi": 67,
      "hit": false,
      "t": 86288.56200000059,
      "d": 141.7524166666699,
      "v": 80
    },
    {
      "midi": 56,
      "hit": false,
      "t": 86597.8400000006,
      "d": 257.73166666667385,
      "v": 93
    },
    {
      "midi": 60,
      "hit": false,
      "t": 86597.8400000006,
      "d": 257.73166666667385,
      "v": 93
    },
    {
      "midi": 53,
      "hit": false,
      "t": 86597.8400000006,
      "d": 264.17495833334397,
      "v": 93
    },
    {
      "midi": 63,
      "hit": false,
      "t": 86597.8400000006,
      "d": 315.7212916666758,
      "v": 107
    },
    {
      "midi": 53,
      "hit": false,
      "t": 87061.75700000061,
      "d": 238.40179166666348,
      "v": 98
    },
    {
      "midi": 56,
      "hit": false,
      "t": 87061.75700000061,
      "d": 238.40179166666348,
      "v": 93
    },
    {
      "midi": 60,
      "hit": false,
      "t": 87061.75700000061,
      "d": 238.40179166666348,
      "v": 93
    },
    {
      "midi": 63,
      "hit": false,
      "t": 87061.75700000061,
      "d": 296.39141666666546,
      "v": 107
    },
    {
      "midi": 63,
      "hit": false,
      "t": 87525.67400000061,
      "d": 90.20608333333803,
      "v": 113
    },
    {
      "midi": 56,
      "hit": false,
      "t": 87525.67400000061,
      "d": 103.09266666667827,
      "v": 93
    },
    {
      "midi": 53,
      "hit": false,
      "t": 87525.67400000061,
      "d": 115.97925000001851,
      "v": 102
    },
    {
      "midi": 60,
      "hit": false,
      "t": 87525.67400000061,
      "d": 115.97925000001851,
      "v": 102
    },
    {
      "midi": 65,
      "hit": false,
      "t": 87834.95200000062,
      "d": 264.1749583333294,
      "v": 107
    },
    {
      "midi": 62,
      "hit": false,
      "t": 87834.95200000062,
      "d": 283.5048333333252,
      "v": 93
    },
    {
      "midi": 58,
      "hit": false,
      "t": 87834.95200000062,
      "d": 296.39141666666546,
      "v": 98
    },
    {
      "midi": 65,
      "hit": false,
      "t": 88298.86900000062,
      "d": 264.1749583333294,
      "v": 107
    },
    {
      "midi": 62,
      "hit": false,
      "t": 88298.86900000062,
      "d": 277.06154166666965,
      "v": 107
    },
    {
      "midi": 58,
      "hit": false,
      "t": 88298.86900000062,
      "d": 283.5048333333398,
      "v": 93
    },
    {
      "midi": 58,
      "hit": false,
      "t": 88762.78600000062,
      "d": 90.20608333333803,
      "v": 98
    },
    {
      "midi": 62,
      "hit": false,
      "t": 88762.78600000062,
      "d": 115.97925000000396,
      "v": 98
    },
    {
      "midi": 65,
      "hit": false,
      "t": 88762.78600000062,
      "d": 135.30912499999977,
      "v": 102
    },
    {
      "midi": 58,
      "hit": false,
      "t": 89072.06400000062,
      "d": 270.61824999999953,
      "v": 93
    },
    {
      "midi": 51,
      "hit": false,
      "t": 89072.06400000062,
      "d": 283.5048333333398,
      "v": 107
    },
    {
      "midi": 62,
      "hit": false,
      "t": 89072.06400000062,
      "d": 283.5048333333398,
      "v": 89
    },
    {
      "midi": 67,
      "hit": false,
      "t": 89072.06400000062,
      "d": 289.9481250000099,
      "v": 102
    },
    {
      "midi": 51,
      "hit": false,
      "t": 89535.98100000064,
      "d": 238.40179166666348,
      "v": 107
    },
    {
      "midi": 58,
      "hit": false,
      "t": 89535.98100000064,
      "d": 244.8450833333336,
      "v": 89
    },
    {
      "midi": 62,
      "hit": false,
      "t": 89535.98100000064,
      "d": 257.73166666667385,
      "v": 98
    },
    {
      "midi": 67,
      "hit": false,
      "t": 89535.98100000064,
      "d": 270.6182500000141,
      "v": 102
    },
    {
      "midi": 51,
      "hit": false,
      "t": 89999.89800000066,
      "d": 109.53595833333384,
      "v": 102
    },
    {
      "midi": 58,
      "hit": false,
      "t": 89999.89800000066,
      "d": 122.42254166667408,
      "v": 93
    },
    {
      "midi": 67,
      "hit": false,
      "t": 89999.89800000066,
      "d": 154.63900000001013,
      "v": 102
    },
    {
      "midi": 62,
      "hit": false,
      "t": 89999.89800000066,
      "d": 161.08229166668025,
      "v": 93
    },
    {
      "midi": 63,
      "hit": false,
      "t": 90309.17600000068,
      "d": 277.06154166666965,
      "v": 89
    },
    {
      "midi": 60,
      "hit": false,
      "t": 90309.17600000068,
      "d": 283.5048333333398,
      "v": 93
    },
    {
      "midi": 56,
      "hit": false,
      "t": 90309.17600000068,
      "d": 296.39141666668,
      "v": 98
    },
    {
      "midi": 67,
      "hit": false,
      "t": 90309.17600000068,
      "d": 302.83470833335014,
      "v": 107
    },
    {
      "midi": 63,
      "hit": false,
      "t": 90773.09300000069,
      "d": 270.61824999999953,
      "v": 113
    },
    {
      "midi": 60,
      "hit": false,
      "t": 90773.09300000069,
      "d": 277.06154166666965,
      "v": 107
    },
    {
      "midi": 56,
      "hit": false,
      "t": 90773.09300000069,
      "d": 283.5048333333398,
      "v": 107
    },
    {
      "midi": 67,
      "hit": false,
      "t": 90773.09300000069,
      "d": 296.39141666668,
      "v": 102
    },
    {
      "midi": 67,
      "hit": false,
      "t": 91237.01000000071,
      "d": 141.7524166666699,
      "v": 107
    },
    {
      "midi": 56,
      "hit": false,
      "t": 91237.01000000071,
      "d": 161.0822916666657,
      "v": 107
    },
    {
      "midi": 60,
      "hit": false,
      "t": 91237.01000000071,
      "d": 167.52558333333582,
      "v": 107
    },
    {
      "midi": 63,
      "hit": false,
      "t": 91237.01000000071,
      "d": 167.52558333333582,
      "v": 107
    },
    {
      "midi": 60,
      "hit": false,
      "t": 91546.28800000071,
      "d": 109.53595833333384,
      "v": 98
    },
    {
      "midi": 53,
      "hit": false,
      "t": 91546.28800000071,
      "d": 115.97925000000396,
      "v": 98
    },
    {
      "midi": 56,
      "hit": false,
      "t": 91546.28800000071,
      "d": 115.97925000000396,
      "v": 98
    },
    {
      "midi": 63,
      "hit": false,
      "t": 91546.28800000071,
      "d": 122.42254166667408,
      "v": 113
    },
    {
      "midi": 53,
      "hit": false,
      "t": 91855.56600000072,
      "d": 70.87620833332767,
      "v": 89
    },
    {
      "midi": 56,
      "hit": false,
      "t": 91855.56600000072,
      "d": 70.87620833332767,
      "v": 89
    },
    {
      "midi": 60,
      "hit": false,
      "t": 91855.56600000072,
      "d": 70.87620833332767,
      "v": 93
    },
    {
      "midi": 63,
      "hit": false,
      "t": 91855.56600000072,
      "d": 96.6493749999936,
      "v": 98
    },
    {
      "midi": 53,
      "hit": false,
      "t": 92010.20500000071,
      "d": 115.97925000000396,
      "v": 93
    },
    {
      "midi": 56,
      "hit": false,
      "t": 92010.20500000071,
      "d": 115.97925000000396,
      "v": 93
    },
    {
      "midi": 68,
      "hit": false,
      "t": 92010.20500000071,
      "d": 115.97925000000396,
      "v": 102
    },
    {
      "midi": 60,
      "hit": false,
      "t": 92010.20500000071,
      "d": 122.42254166667408,
      "v": 98
    },
    {
      "midi": 53,
      "hit": false,
      "t": 92319.48300000072,
      "d": 64.4329166666721,
      "v": 93
    },
    {
      "midi": 56,
      "hit": false,
      "t": 92319.48300000072,
      "d": 64.4329166666721,
      "v": 93
    },
    {
      "midi": 60,
      "hit": false,
      "t": 92319.48300000072,
      "d": 77.31950000001234,
      "v": 102
    },
    {
      "midi": 68,
      "hit": false,
      "t": 92319.48300000072,
      "d": 90.20608333335258,
      "v": 107
    },
    {
      "midi": 56,
      "hit": false,
      "t": 92474.12200000075,
      "d": 109.53595833333384,
      "v": 107
    },
    {
      "midi": 53,
      "hit": false,
      "t": 92474.12200000075,
      "d": 115.97925000000396,
      "v": 107
    },
    {
      "midi": 60,
      "hit": false,
      "t": 92474.12200000075,
      "d": 115.97925000000396,
      "v": 107
    },
    {
      "midi": 72,
      "hit": false,
      "t": 92474.12200000075,
      "d": 122.42254166667408,
      "v": 102
    },
    {
      "midi": 46,
      "hit": false,
      "t": 92783.40000000075,
      "d": 154.63899999999558,
      "v": 113
    },
    {
      "midi": 62,
      "hit": false,
      "t": 92783.40000000075,
      "d": 154.63899999999558,
      "v": 93
    },
    {
      "midi": 65,
      "hit": false,
      "t": 92783.40000000075,
      "d": 154.63899999999558,
      "v": 102
    },
    {
      "midi": 53,
      "hit": false,
      "t": 92783.40000000075,
      "d": 180.4121666666615,
      "v": 89
    },
    {
      "midi": 70,
      "hit": false,
      "t": 92783.40000000075,
      "d": 180.4121666666615,
      "v": 98
    },
    {
      "midi": 51,
      "hit": false,
      "t": 94020.51200000074,
      "d": 186.85545833333163,
      "v": 107
    },
    {
      "midi": 58,
      "hit": false,
      "t": 94329.79000000074,
      "d": 70.87620833332767,
      "v": 85
    },
    {
      "midi": 63,
      "hit": false,
      "t": 94329.79000000074,
      "d": 90.20608333332348,
      "v": 107
    },
    {
      "midi": 67,
      "hit": false,
      "t": 94329.79000000074,
      "d": 96.6493749999936,
      "v": 98
    },
    {
      "midi": 58,
      "hit": false,
      "t": 94948.34600000073,
      "d": 70.87620833332767,
      "v": 85
    },
    {
      "midi": 63,
      "hit": false,
      "t": 94948.34600000073,
      "d": 83.76279166666791,
      "v": 102
    },
    {
      "midi": 67,
      "hit": false,
      "t": 94948.34600000073,
      "d": 122.42254166667408,
      "v": 93
    },
    {
      "midi": 64,
      "hit": false,
      "t": 95257.62400000074,
      "d": 70.87620833332767,
      "v": 89
    },
    {
      "midi": 59,
      "hit": false,
      "t": 95257.62400000074,
      "d": 77.31949999999779,
      "v": 62
    },
    {
      "midi": 52,
      "hit": false,
      "t": 95257.62400000074,
      "d": 90.20608333333803,
      "v": 93
    },
    {
      "midi": 56,
      "hit": false,
      "t": 95257.62400000074,
      "d": 90.20608333333803,
      "v": 102
    },
    {
      "midi": 52,
      "hit": false,
      "t": 95566.90200000074,
      "d": 57.98962500000198,
      "v": 89
    },
    {
      "midi": 56,
      "hit": false,
      "t": 95566.90200000074,
      "d": 57.98962500000198,
      "v": 98
    },
    {
      "midi": 64,
      "hit": false,
      "t": 95566.90200000074,
      "d": 57.98962500000198,
      "v": 93
    },
    {
      "midi": 59,
      "hit": false,
      "t": 95566.90200000074,
      "d": 70.87620833334222,
      "v": 85
    },
    {
      "midi": 52,
      "hit": false,
      "t": 95721.54100000075,
      "d": 83.76279166666791,
      "v": 89
    },
    {
      "midi": 59,
      "hit": false,
      "t": 95721.54100000075,
      "d": 83.76279166666791,
      "v": 76
    },
    {
      "midi": 56,
      "hit": false,
      "t": 95721.54100000075,
      "d": 90.20608333333803,
      "v": 93
    },
    {
      "midi": 64,
      "hit": false,
      "t": 95721.54100000075,
      "d": 90.20608333333803,
      "v": 98
    },
    {
      "midi": 52,
      "hit": false,
      "t": 96030.81900000076,
      "d": 51.54633333333186,
      "v": 89
    },
    {
      "midi": 64,
      "hit": false,
      "t": 96030.81900000076,
      "d": 57.98962500000198,
      "v": 102
    },
    {
      "midi": 56,
      "hit": false,
      "t": 96030.81900000076,
      "d": 64.4329166666721,
      "v": 102
    },
    {
      "midi": 59,
      "hit": false,
      "t": 96030.81900000076,
      "d": 64.4329166666721,
      "v": 85
    },
    {
      "midi": 59,
      "hit": false,
      "t": 96185.45800000077,
      "d": 70.87620833332767,
      "v": 76
    },
    {
      "midi": 56,
      "hit": false,
      "t": 96185.45800000077,
      "d": 77.31949999999779,
      "v": 93
    },
    {
      "midi": 64,
      "hit": false,
      "t": 96185.45800000077,
      "d": 83.76279166666791,
      "v": 98
    },
    {
      "midi": 52,
      "hit": false,
      "t": 96185.45800000077,
      "d": 90.20608333333803,
      "v": 89
    },
    {
      "midi": 59,
      "hit": false,
      "t": 96804.01400000078,
      "d": 64.4329166666721,
      "v": 55
    },
    {
      "midi": 52,
      "hit": false,
      "t": 96804.01400000078,
      "d": 70.87620833334222,
      "v": 93
    },
    {
      "midi": 64,
      "hit": false,
      "t": 96804.01400000078,
      "d": 70.87620833334222,
      "v": 98
    },
    {
      "midi": 68,
      "hit": false,
      "t": 96804.01400000078,
      "d": 70.87620833334222,
      "v": 68
    },
    {
      "midi": 64,
      "hit": false,
      "t": 96958.65300000079,
      "d": 57.98962500000198,
      "v": 89
    },
    {
      "midi": 68,
      "hit": false,
      "t": 96958.65300000079,
      "d": 83.76279166666791,
      "v": 85
    },
    {
      "midi": 52,
      "hit": false,
      "t": 96958.65300000079,
      "d": 90.20608333333803,
      "v": 93
    },
    {
      "midi": 59,
      "hit": false,
      "t": 96958.65300000079,
      "d": 90.20608333333803,
      "v": 62
    },
    {
      "midi": 59,
      "hit": false,
      "t": 97422.5700000008,
      "d": 51.54633333333186,
      "v": 49
    },
    {
      "midi": 68,
      "hit": false,
      "t": 97422.5700000008,
      "d": 70.87620833332767,
      "v": 72
    },
    {
      "midi": 52,
      "hit": false,
      "t": 97422.5700000008,
      "d": 77.31949999999779,
      "v": 89
    },
    {
      "midi": 64,
      "hit": false,
      "t": 97422.5700000008,
      "d": 77.31949999999779,
      "v": 93
    },
    {
      "midi": 64,
      "hit": false,
      "t": 97577.20900000079,
      "d": 64.4329166666721,
      "v": 98
    },
    {
      "midi": 68,
      "hit": false,
      "t": 97577.20900000079,
      "d": 70.87620833334222,
      "v": 89
    },
    {
      "midi": 59,
      "hit": false,
      "t": 97577.20900000079,
      "d": 77.31950000001234,
      "v": 76
    },
    {
      "midi": 52,
      "hit": false,
      "t": 97577.20900000079,
      "d": 90.20608333335258,
      "v": 93
    },
    {
      "midi": 59,
      "hit": false,
      "t": 98041.1260000008,
      "d": 57.98962500000198,
      "v": 64
    },
    {
      "midi": 64,
      "hit": false,
      "t": 98041.1260000008,
      "d": 70.87620833334222,
      "v": 98
    },
    {
      "midi": 52,
      "hit": false,
      "t": 98041.1260000008,
      "d": 77.31950000001234,
      "v": 93
    },
    {
      "midi": 68,
      "hit": false,
      "t": 98041.1260000008,
      "d": 83.76279166668246,
      "v": 89
    },
    {
      "midi": 59,
      "hit": false,
      "t": 98195.76500000081,
      "d": 64.4329166666721,
      "v": 62
    },
    {
      "midi": 64,
      "hit": false,
      "t": 98195.76500000081,
      "d": 83.76279166666791,
      "v": 102
    },
    {
      "midi": 52,
      "hit": false,
      "t": 98195.76500000081,
      "d": 96.64937500000815,
      "v": 93
    },
    {
      "midi": 68,
      "hit": false,
      "t": 98195.76500000081,
      "d": 96.64937500000815,
      "v": 89
    },
    {
      "midi": 64,
      "hit": false,
      "t": 98659.68200000082,
      "d": 64.4329166666721,
      "v": 102
    },
    {
      "midi": 68,
      "hit": false,
      "t": 98659.68200000082,
      "d": 64.4329166666721,
      "v": 85
    },
    {
      "midi": 52,
      "hit": false,
      "t": 98659.68200000082,
      "d": 77.31950000001234,
      "v": 93
    },
    {
      "midi": 59,
      "hit": false,
      "t": 98659.68200000082,
      "d": 77.31950000001234,
      "v": 76
    },
    {
      "midi": 59,
      "hit": false,
      "t": 98814.32100000083,
      "d": 64.4329166666721,
      "v": 64
    },
    {
      "midi": 64,
      "hit": false,
      "t": 98814.32100000083,
      "d": 70.87620833334222,
      "v": 102
    },
    {
      "midi": 52,
      "hit": false,
      "t": 98814.32100000083,
      "d": 77.31950000001234,
      "v": 89
    },
    {
      "midi": 68,
      "hit": false,
      "t": 98814.32100000083,
      "d": 77.31950000001234,
      "v": 93
    },
    {
      "midi": 63,
      "hit": false,
      "t": 99278.23800000084,
      "d": 57.98962500000198,
      "v": 80
    },
    {
      "midi": 44,
      "hit": false,
      "t": 99278.23800000084,
      "d": 64.4329166666721,
      "v": 85
    },
    {
      "midi": 56,
      "hit": false,
      "t": 99278.23800000084,
      "d": 64.4329166666721,
      "v": 62
    },
    {
      "midi": 68,
      "hit": false,
      "t": 99278.23800000084,
      "d": 64.4329166666721,
      "v": 76
    },
    {
      "midi": 60,
      "hit": false,
      "t": 99278.23800000084,
      "d": 77.31950000001234,
      "v": 72
    },
    {
      "midi": 44,
      "hit": false,
      "t": 99432.87700000087,
      "d": 77.31949999999779,
      "v": 85
    },
    {
      "midi": 63,
      "hit": false,
      "t": 99432.87700000087,
      "d": 77.31949999999779,
      "v": 89
    },
    {
      "midi": 56,
      "hit": false,
      "t": 99432.87700000087,
      "d": 83.76279166666791,
      "v": 53
    },
    {
      "midi": 60,
      "hit": false,
      "t": 99432.87700000087,
      "d": 90.20608333333803,
      "v": 76
    },
    {
      "midi": 68,
      "hit": false,
      "t": 99432.87700000087,
      "d": 96.64937500000815,
      "v": 89
    },
    {
      "midi": 63,
      "hit": false,
      "t": 99896.79400000087,
      "d": 70.87620833332767,
      "v": 93
    },
    {
      "midi": 56,
      "hit": false,
      "t": 99896.79400000087,
      "d": 77.31949999999779,
      "v": 76
    },
    {
      "midi": 68,
      "hit": false,
      "t": 99896.79400000087,
      "d": 77.31949999999779,
      "v": 80
    },
    {
      "midi": 44,
      "hit": false,
      "t": 99896.79400000087,
      "d": 83.76279166666791,
      "v": 98
    },
    {
      "midi": 60,
      "hit": false,
      "t": 99896.79400000087,
      "d": 83.76279166666791,
      "v": 68
    },
    {
      "midi": 63,
      "hit": false,
      "t": 100051.43300000086,
      "d": 70.87620833332767,
      "v": 93
    },
    {
      "midi": 56,
      "hit": false,
      "t": 100051.43300000086,
      "d": 83.76279166666791,
      "v": 60
    },
    {
      "midi": 60,
      "hit": false,
      "t": 100051.43300000086,
      "d": 83.76279166666791,
      "v": 80
    },
    {
      "midi": 44,
      "hit": false,
      "t": 100051.43300000086,
      "d": 90.20608333333803,
      "v": 98
    },
    {
      "midi": 68,
      "hit": false,
      "t": 100051.43300000086,
      "d": 103.09266666667827,
      "v": 89
    },
    {
      "midi": 59,
      "hit": false,
      "t": 100515.35000000088,
      "d": 77.31949999999779,
      "v": 76
    },
    {
      "midi": 65,
      "hit": false,
      "t": 100515.35000000088,
      "d": 77.31949999999779,
      "v": 93
    },
    {
      "midi": 68,
      "hit": false,
      "t": 100515.35000000088,
      "d": 77.31949999999779,
      "v": 72
    },
    {
      "midi": 61,
      "hit": false,
      "t": 100515.35000000088,
      "d": 90.20608333333803,
      "v": 76
    },
    {
      "midi": 65,
      "hit": false,
      "t": 100669.98900000089,
      "d": 64.4329166666721,
      "v": 80
    },
    {
      "midi": 61,
      "hit": false,
      "t": 100669.98900000089,
      "d": 77.31950000001234,
      "v": 62
    },
    {
      "midi": 59,
      "hit": false,
      "t": 100669.98900000089,
      "d": 90.20608333335258,
      "v": 89
    },
    {
      "midi": 68,
      "hit": false,
      "t": 100669.98900000089,
      "d": 90.20608333335258,
      "v": 72
    },
    {
      "midi": 59,
      "hit": false,
      "t": 101133.9060000009,
      "d": 64.4329166666721,
      "v": 80
    },
    {
      "midi": 65,
      "hit": false,
      "t": 101133.9060000009,
      "d": 64.4329166666721,
      "v": 89
    },
    {
      "midi": 68,
      "hit": false,
      "t": 101133.9060000009,
      "d": 77.31950000001234,
      "v": 80
    },
    {
      "midi": 61,
      "hit": false,
      "t": 101133.9060000009,
      "d": 83.76279166668246,
      "v": 76
    },
    {
      "midi": 61,
      "hit": false,
      "t": 101288.54500000092,
      "d": 57.98962500000198,
      "v": 72
    },
    {
      "midi": 65,
      "hit": false,
      "t": 101288.54500000092,
      "d": 57.98962500000198,
      "v": 93
    },
    {
      "midi": 59,
      "hit": false,
      "t": 101288.54500000092,
      "d": 77.31949999999779,
      "v": 93
    },
    {
      "midi": 68,
      "hit": false,
      "t": 101288.54500000092,
      "d": 77.31949999999779,
      "v": 93
    },
    {
      "midi": 58,
      "hit": false,
      "t": 101752.46200000092,
      "d": 64.4329166666721,
      "v": 59
    },
    {
      "midi": 54,
      "hit": false,
      "t": 101752.46200000092,
      "d": 70.87620833334222,
      "v": 89
    },
    {
      "midi": 61,
      "hit": false,
      "t": 101752.46200000092,
      "d": 77.31950000001234,
      "v": 93
    },
    {
      "midi": 64,
      "hit": false,
      "t": 101752.46200000092,
      "d": 83.76279166668246,
      "v": 89
    },
    {
      "midi": 64,
      "hit": false,
      "t": 101907.10100000093,
      "d": 90.20608333333803,
      "v": 98
    },
    {
      "midi": 61,
      "hit": false,
      "t": 101907.10100000093,
      "d": 96.64937500000815,
      "v": 102
    },
    {
      "midi": 58,
      "hit": false,
      "t": 101907.10100000093,
      "d": 103.09266666667827,
      "v": 72
    },
    {
      "midi": 54,
      "hit": false,
      "t": 101907.10100000093,
      "d": 109.53595833334839,
      "v": 102
    },
    {
      "midi": 58,
      "hit": false,
      "t": 102371.01800000094,
      "d": 70.87620833332767,
      "v": 68
    },
    {
      "midi": 54,
      "hit": false,
      "t": 102371.01800000094,
      "d": 77.31949999999779,
      "v": 102
    },
    {
      "midi": 64,
      "hit": false,
      "t": 102371.01800000094,
      "d": 77.31949999999779,
      "v": 93
    },
    {
      "midi": 61,
      "hit": false,
      "t": 102371.01800000094,
      "d": 90.20608333333803,
      "v": 98
    },
    {
      "midi": 54,
      "hit": false,
      "t": 102525.65700000095,
      "d": 64.4329166666721,
      "v": 89
    },
    {
      "midi": 64,
      "hit": false,
      "t": 102525.65700000095,
      "d": 64.4329166666721,
      "v": 89
    },
    {
      "midi": 58,
      "hit": false,
      "t": 102525.65700000095,
      "d": 70.87620833334222,
      "v": 76
    },
    {
      "midi": 61,
      "hit": false,
      "t": 102525.65700000095,
      "d": 77.31950000001234,
      "v": 107
    },
    {
      "midi": 47,
      "hit": false,
      "t": 102989.57400000097,
      "d": 77.31949999999779,
      "v": 76
    },
    {
      "midi": 54,
      "hit": false,
      "t": 102989.57400000097,
      "d": 77.31949999999779,
      "v": 80
    },
    {
      "midi": 57,
      "hit": false,
      "t": 102989.57400000097,
      "d": 77.31949999999779,
      "v": 76
    },
    {
      "midi": 63,
      "hit": false,
      "t": 102989.57400000097,
      "d": 77.31949999999779,
      "v": 89
    },
    {
      "midi": 66,
      "hit": false,
      "t": 102989.57400000097,
      "d": 77.31949999999779,
      "v": 93
    },
    {
      "midi": 54,
      "hit": false,
      "t": 103144.21300000096,
      "d": 77.31949999999779,
      "v": 80
    },
    {
      "midi": 63,
      "hit": false,
      "t": 103144.21300000096,
      "d": 77.31949999999779,
      "v": 93
    },
    {
      "midi": 47,
      "hit": false,
      "t": 103144.21300000096,
      "d": 83.76279166666791,
      "v": 98
    },
    {
      "midi": 57,
      "hit": false,
      "t": 103144.21300000096,
      "d": 83.76279166666791,
      "v": 85
    },
    {
      "midi": 66,
      "hit": false,
      "t": 103144.21300000096,
      "d": 90.20608333333803,
      "v": 93
    },
    {
      "midi": 54,
      "hit": false,
      "t": 103608.13000000097,
      "d": 70.87620833332767,
      "v": 89
    },
    {
      "midi": 57,
      "hit": false,
      "t": 103608.13000000097,
      "d": 70.87620833332767,
      "v": 89
    },
    {
      "midi": 63,
      "hit": false,
      "t": 103608.13000000097,
      "d": 70.87620833332767,
      "v": 98
    },
    {
      "midi": 47,
      "hit": false,
      "t": 103608.13000000097,
      "d": 77.31949999999779,
      "v": 98
    },
    {
      "midi": 66,
      "hit": false,
      "t": 103608.13000000097,
      "d": 90.20608333333803,
      "v": 107
    },
    {
      "midi": 47,
      "hit": false,
      "t": 103762.76900000098,
      "d": 51.54633333333186,
      "v": 98
    },
    {
      "midi": 57,
      "hit": false,
      "t": 103762.76900000098,
      "d": 57.98962500000198,
      "v": 80
    },
    {
      "midi": 63,
      "hit": false,
      "t": 103762.76900000098,
      "d": 70.87620833334222,
      "v": 98
    },
    {
      "midi": 54,
      "hit": false,
      "t": 103762.76900000098,
      "d": 90.20608333333803,
      "v": 89
    },
    {
      "midi": 66,
      "hit": false,
      "t": 103762.76900000098,
      "d": 90.20608333333803,
      "v": 93
    },
    {
      "midi": 65,
      "hit": false,
      "t": 103917.40800000099,
      "d": 25.77316666666593,
      "v": 36
    },
    {
      "midi": 64,
      "hit": false,
      "t": 104226.68600000099,
      "d": 64.4329166666721,
      "v": 102
    },
    {
      "midi": 52,
      "hit": false,
      "t": 104226.68600000099,
      "d": 70.87620833334222,
      "v": 107
    },
    {
      "midi": 68,
      "hit": false,
      "t": 104226.68600000099,
      "d": 70.87620833334222,
      "v": 93
    },
    {
      "midi": 59,
      "hit": false,
      "t": 104226.68600000099,
      "d": 77.31950000001234,
      "v": 72
    },
    {
      "midi": 64,
      "hit": false,
      "t": 104381.325000001,
      "d": 77.31949999999779,
      "v": 113
    },
    {
      "midi": 52,
      "hit": false,
      "t": 104381.325000001,
      "d": 90.20608333333803,
      "v": 107
    },
    {
      "midi": 59,
      "hit": false,
      "t": 104381.325000001,
      "d": 90.20608333333803,
      "v": 76
    },
    {
      "midi": 68,
      "hit": false,
      "t": 104381.325000001,
      "d": 96.64937500000815,
      "v": 93
    },
    {
      "midi": 59,
      "hit": false,
      "t": 104845.242000001,
      "d": 83.76279166666791,
      "v": 89
    },
    {
      "midi": 64,
      "hit": false,
      "t": 104845.242000001,
      "d": 83.76279166666791,
      "v": 113
    },
    {
      "midi": 52,
      "hit": false,
      "t": 104845.242000001,
      "d": 90.20608333333803,
      "v": 113
    },
    {
      "midi": 68,
      "hit": false,
      "t": 104845.242000001,
      "d": 96.64937500000815,
      "v": 107
    },
    {
      "midi": 54,
      "hit": false,
      "t": 105154.52000000101,
      "d": 103.09266666666372,
      "v": 98
    },
    {
      "midi": 57,
      "hit": false,
      "t": 105154.52000000101,
      "d": 103.09266666666372,
      "v": 107
    },
    {
      "midi": 64,
      "hit": false,
      "t": 105154.52000000101,
      "d": 103.09266666666372,
      "v": 107
    },
    {
      "midi": 61,
      "hit": false,
      "t": 105154.52000000101,
      "d": 109.53595833333384,
      "v": 107
    },
    {
      "midi": 61,
      "hit": false,
      "t": 105463.79800000101,
      "d": 64.4329166666721,
      "v": 107
    },
    {
      "midi": 57,
      "hit": false,
      "t": 105463.79800000101,
      "d": 77.31950000001234,
      "v": 107
    },
    {
      "midi": 64,
      "hit": false,
      "t": 105463.79800000101,
      "d": 77.31950000001234,
      "v": 107
    },
    {
      "midi": 54,
      "hit": false,
      "t": 105463.79800000101,
      "d": 90.20608333335258,
      "v": 102
    },
    {
      "midi": 59,
      "hit": false,
      "t": 105618.43700000104,
      "d": 115.97925000000396,
      "v": 98
    },
    {
      "midi": 63,
      "hit": false,
      "t": 105618.43700000104,
      "d": 122.42254166667408,
      "v": 107
    },
    {
      "midi": 66,
      "hit": false,
      "t": 105618.43700000104,
      "d": 122.42254166667408,
      "v": 107
    },
    {
      "midi": 63,
      "hit": false,
      "t": 105927.71500000104,
      "d": 57.98962500000198,
      "v": 89
    },
    {
      "midi": 66,
      "hit": false,
      "t": 105927.71500000104,
      "d": 64.4329166666721,
      "v": 107
    },
    {
      "midi": 59,
      "hit": false,
      "t": 105927.71500000104,
      "d": 70.87620833334222,
      "v": 93
    },
    {
      "midi": 66,
      "hit": false,
      "t": 106082.35400000105,
      "d": 83.76279166666791,
      "v": 113
    },
    {
      "midi": 63,
      "hit": false,
      "t": 106082.35400000105,
      "d": 90.20608333333803,
      "v": 107
    },
    {
      "midi": 59,
      "hit": false,
      "t": 106082.35400000105,
      "d": 96.64937500000815,
      "v": 89
    },
    {
      "midi": 59,
      "hit": false,
      "t": 106700.91000000107,
      "d": 64.4329166666721,
      "v": 55
    },
    {
      "midi": 52,
      "hit": false,
      "t": 106700.91000000107,
      "d": 70.87620833334222,
      "v": 93
    },
    {
      "midi": 64,
      "hit": false,
      "t": 106700.91000000107,
      "d": 70.87620833334222,
      "v": 98
    },
    {
      "midi": 68,
      "hit": false,
      "t": 106700.91000000107,
      "d": 70.87620833334222,
      "v": 68
    },
    {
      "midi": 64,
      "hit": false,
      "t": 106855.54900000108,
      "d": 57.98962500000198,
      "v": 89
    },
    {
      "midi": 68,
      "hit": false,
      "t": 106855.54900000108,
      "d": 83.76279166666791,
      "v": 85
    },
    {
      "midi": 52,
      "hit": false,
      "t": 106855.54900000108,
      "d": 90.20608333333803,
      "v": 93
    },
    {
      "midi": 59,
      "hit": false,
      "t": 106855.54900000108,
      "d": 90.20608333333803,
      "v": 62
    },
    {
      "midi": 59,
      "hit": false,
      "t": 107319.46600000108,
      "d": 51.54633333333186,
      "v": 49
    },
    {
      "midi": 68,
      "hit": false,
      "t": 107319.46600000108,
      "d": 70.87620833332767,
      "v": 72
    },
    {
      "midi": 52,
      "hit": false,
      "t": 107319.46600000108,
      "d": 77.31949999999779,
      "v": 89
    },
    {
      "midi": 64,
      "hit": false,
      "t": 107319.46600000108,
      "d": 77.31949999999779,
      "v": 93
    },
    {
      "midi": 64,
      "hit": false,
      "t": 107474.10500000107,
      "d": 64.4329166666721,
      "v": 98
    },
    {
      "midi": 68,
      "hit": false,
      "t": 107474.10500000107,
      "d": 70.87620833334222,
      "v": 89
    },
    {
      "midi": 59,
      "hit": false,
      "t": 107474.10500000107,
      "d": 77.31950000001234,
      "v": 76
    },
    {
      "midi": 52,
      "hit": false,
      "t": 107474.10500000107,
      "d": 90.20608333335258,
      "v": 93
    },
    {
      "midi": 59,
      "hit": false,
      "t": 107938.02200000109,
      "d": 57.98962500000198,
      "v": 64
    },
    {
      "midi": 64,
      "hit": false,
      "t": 107938.02200000109,
      "d": 70.87620833334222,
      "v": 98
    },
    {
      "midi": 52,
      "hit": false,
      "t": 107938.02200000109,
      "d": 77.31950000001234,
      "v": 93
    },
    {
      "midi": 68,
      "hit": false,
      "t": 107938.02200000109,
      "d": 83.76279166668246,
      "v": 89
    },
    {
      "midi": 59,
      "hit": false,
      "t": 108092.6610000011,
      "d": 64.4329166666721,
      "v": 62
    },
    {
      "midi": 64,
      "hit": false,
      "t": 108092.6610000011,
      "d": 83.76279166666791,
      "v": 102
    },
    {
      "midi": 52,
      "hit": false,
      "t": 108092.6610000011,
      "d": 96.64937500000815,
      "v": 93
    },
    {
      "midi": 68,
      "hit": false,
      "t": 108092.6610000011,
      "d": 96.64937500000815,
      "v": 89
    },
    {
      "midi": 64,
      "hit": false,
      "t": 108556.5780000011,
      "d": 64.4329166666721,
      "v": 102
    },
    {
      "midi": 68,
      "hit": false,
      "t": 108556.5780000011,
      "d": 64.4329166666721,
      "v": 85
    },
    {
      "midi": 52,
      "hit": false,
      "t": 108556.5780000011,
      "d": 77.31950000001234,
      "v": 93
    },
    {
      "midi": 59,
      "hit": false,
      "t": 108556.5780000011,
      "d": 77.31950000001234,
      "v": 76
    },
    {
      "midi": 59,
      "hit": false,
      "t": 108711.21700000111,
      "d": 64.4329166666721,
      "v": 64
    },
    {
      "midi": 64,
      "hit": false,
      "t": 108711.21700000111,
      "d": 70.87620833334222,
      "v": 102
    },
    {
      "midi": 52,
      "hit": false,
      "t": 108711.21700000111,
      "d": 77.31950000001234,
      "v": 89
    },
    {
      "midi": 68,
      "hit": false,
      "t": 108711.21700000111,
      "d": 77.31950000001234,
      "v": 93
    },
    {
      "midi": 63,
      "hit": false,
      "t": 109175.13400000113,
      "d": 57.98962500000198,
      "v": 80
    },
    {
      "midi": 44,
      "hit": false,
      "t": 109175.13400000113,
      "d": 64.4329166666721,
      "v": 85
    },
    {
      "midi": 56,
      "hit": false,
      "t": 109175.13400000113,
      "d": 64.4329166666721,
      "v": 62
    },
    {
      "midi": 68,
      "hit": false,
      "t": 109175.13400000113,
      "d": 64.4329166666721,
      "v": 76
    },
    {
      "midi": 60,
      "hit": false,
      "t": 109175.13400000113,
      "d": 77.31950000001234,
      "v": 72
    },
    {
      "midi": 44,
      "hit": false,
      "t": 109329.77300000115,
      "d": 77.31949999999779,
      "v": 85
    },
    {
      "midi": 63,
      "hit": false,
      "t": 109329.77300000115,
      "d": 77.31949999999779,
      "v": 89
    },
    {
      "midi": 56,
      "hit": false,
      "t": 109329.77300000115,
      "d": 83.76279166666791,
      "v": 53
    },
    {
      "midi": 60,
      "hit": false,
      "t": 109329.77300000115,
      "d": 90.20608333333803,
      "v": 76
    },
    {
      "midi": 68,
      "hit": false,
      "t": 109329.77300000115,
      "d": 96.64937500000815,
      "v": 89
    },
    {
      "midi": 63,
      "hit": false,
      "t": 109793.69000000115,
      "d": 70.87620833332767,
      "v": 93
    },
    {
      "midi": 56,
      "hit": false,
      "t": 109793.69000000115,
      "d": 77.31949999999779,
      "v": 76
    },
    {
      "midi": 68,
      "hit": false,
      "t": 109793.69000000115,
      "d": 77.31949999999779,
      "v": 80
    },
    {
      "midi": 44,
      "hit": false,
      "t": 109793.69000000115,
      "d": 83.76279166666791,
      "v": 98
    },
    {
      "midi": 60,
      "hit": false,
      "t": 109793.69000000115,
      "d": 83.76279166666791,
      "v": 68
    },
    {
      "midi": 63,
      "hit": false,
      "t": 109948.32900000115,
      "d": 70.87620833332767,
      "v": 93
    },
    {
      "midi": 56,
      "hit": false,
      "t": 109948.32900000115,
      "d": 83.76279166666791,
      "v": 60
    },
    {
      "midi": 60,
      "hit": false,
      "t": 109948.32900000115,
      "d": 83.76279166666791,
      "v": 80
    },
    {
      "midi": 44,
      "hit": false,
      "t": 109948.32900000115,
      "d": 90.20608333333803,
      "v": 98
    },
    {
      "midi": 68,
      "hit": false,
      "t": 109948.32900000115,
      "d": 103.09266666667827,
      "v": 89
    },
    {
      "midi": 59,
      "hit": false,
      "t": 110412.24600000116,
      "d": 77.31949999999779,
      "v": 76
    },
    {
      "midi": 65,
      "hit": false,
      "t": 110412.24600000116,
      "d": 77.31949999999779,
      "v": 93
    },
    {
      "midi": 68,
      "hit": false,
      "t": 110412.24600000116,
      "d": 77.31949999999779,
      "v": 72
    },
    {
      "midi": 61,
      "hit": false,
      "t": 110412.24600000116,
      "d": 90.20608333333803,
      "v": 76
    },
    {
      "midi": 65,
      "hit": false,
      "t": 110566.88500000117,
      "d": 64.4329166666721,
      "v": 80
    },
    {
      "midi": 61,
      "hit": false,
      "t": 110566.88500000117,
      "d": 77.31950000001234,
      "v": 62
    },
    {
      "midi": 59,
      "hit": false,
      "t": 110566.88500000117,
      "d": 90.20608333335258,
      "v": 89
    },
    {
      "midi": 68,
      "hit": false,
      "t": 110566.88500000117,
      "d": 90.20608333335258,
      "v": 72
    },
    {
      "midi": 59,
      "hit": false,
      "t": 111030.80200000119,
      "d": 64.4329166666721,
      "v": 80
    },
    {
      "midi": 65,
      "hit": false,
      "t": 111030.80200000119,
      "d": 64.4329166666721,
      "v": 89
    },
    {
      "midi": 68,
      "hit": false,
      "t": 111030.80200000119,
      "d": 77.31950000001234,
      "v": 80
    },
    {
      "midi": 61,
      "hit": false,
      "t": 111030.80200000119,
      "d": 83.76279166668246,
      "v": 76
    },
    {
      "midi": 61,
      "hit": false,
      "t": 111185.4410000012,
      "d": 57.98962500000198,
      "v": 72
    },
    {
      "midi": 65,
      "hit": false,
      "t": 111185.4410000012,
      "d": 57.98962500000198,
      "v": 93
    },
    {
      "midi": 59,
      "hit": false,
      "t": 111185.4410000012,
      "d": 77.31949999999779,
      "v": 93
    },
    {
      "midi": 68,
      "hit": false,
      "t": 111185.4410000012,
      "d": 77.31949999999779,
      "v": 93
    },
    {
      "midi": 54,
      "hit": false,
      "t": 111340.0800000012,
      "d": 115.97925000000396,
      "v": 98
    },
    {
      "midi": 61,
      "hit": false,
      "t": 111340.0800000012,
      "d": 154.63900000001013,
      "v": 89
    },
    {
      "midi": 58,
      "hit": false,
      "t": 111340.0800000012,
      "d": 161.08229166668025,
      "v": 102
    },
    {
      "midi": 64,
      "hit": false,
      "t": 111340.0800000012,
      "d": 173.9688750000205,
      "v": 93
    },
    {
      "midi": 66,
      "hit": false,
      "t": 111340.0800000012,
      "d": 193.2987500000163,
      "v": 107
    },
    {
      "midi": 54,
      "hit": false,
      "t": 111803.99700000121,
      "d": 193.29875000000175,
      "v": 107
    },
    {
      "midi": 61,
      "hit": false,
      "t": 111803.99700000121,
      "d": 199.74204166667187,
      "v": 98
    },
    {
      "midi": 58,
      "hit": false,
      "t": 111803.99700000121,
      "d": 206.185333333342,
      "v": 98
    },
    {
      "midi": 64,
      "hit": false,
      "t": 111803.99700000121,
      "d": 225.5152083333378,
      "v": 98
    },
    {
      "midi": 66,
      "hit": false,
      "t": 111803.99700000121,
      "d": 225.5152083333378,
      "v": 107
    },
    {
      "midi": 64,
      "hit": false,
      "t": 112267.91400000121,
      "d": 103.09266666666372,
      "v": 102
    },
    {
      "midi": 54,
      "hit": false,
      "t": 112267.91400000121,
      "d": 115.97925000000396,
      "v": 107
    },
    {
      "midi": 61,
      "hit": false,
      "t": 112267.91400000121,
      "d": 115.97925000000396,
      "v": 102
    },
    {
      "midi": 66,
      "hit": false,
      "t": 112267.91400000121,
      "d": 122.42254166667408,
      "v": 102
    },
    {
      "midi": 58,
      "hit": false,
      "t": 112267.91400000121,
      "d": 128.8658333333442,
      "v": 98
    },
    {
      "midi": 70,
      "hit": false,
      "t": 112577.19200000122,
      "d": 257.73166666667385,
      "v": 113
    },
    {
      "midi": 66,
      "hit": false,
      "t": 112577.19200000122,
      "d": 270.6182500000141,
      "v": 107
    },
    {
      "midi": 68,
      "hit": false,
      "t": 113041.10900000123,
      "d": 289.94812499999534,
      "v": 113
    },
    {
      "midi": 71,
      "hit": false,
      "t": 113041.10900000123,
      "d": 296.39141666666546,
      "v": 107
    },
    {
      "midi": 73,
      "hit": false,
      "t": 113505.02600000123,
      "d": 154.63899999999558,
      "v": 107
    },
    {
      "midi": 70,
      "hit": false,
      "t": 113505.02600000123,
      "d": 173.96887499999139,
      "v": 113
    },
    {
      "midi": 69,
      "hit": false,
      "t": 113814.30400000123,
      "d": 77.31949999999779,
      "v": 119
    },
    {
      "midi": 81,
      "hit": false,
      "t": 113814.30400000123,
      "d": 77.31949999999779,
      "v": 107
    },
    {
      "midi": 61,
      "hit": false,
      "t": 113814.30400000123,
      "d": 115.97925000000396,
      "v": 107
    },
    {
      "midi": 54,
      "hit": false,
      "t": 113814.30400000123,
      "d": 122.42254166667408,
      "v": 93
    },
    {
      "midi": 57,
      "hit": false,
      "t": 113814.30400000123,
      "d": 122.42254166667408,
      "v": 102
    },
    {
      "midi": 81,
      "hit": false,
      "t": 114123.58200000123,
      "d": 77.31949999999779,
      "v": 113
    },
    {
      "midi": 69,
      "hit": false,
      "t": 114123.58200000123,
      "d": 83.76279166666791,
      "v": 119
    },
    {
      "midi": 57,
      "hit": false,
      "t": 114123.58200000123,
      "d": 122.42254166667408,
      "v": 102
    },
    {
      "midi": 54,
      "hit": false,
      "t": 114123.58200000123,
      "d": 128.8658333333442,
      "v": 102
    },
    {
      "midi": 61,
      "hit": false,
      "t": 114123.58200000123,
      "d": 128.8658333333442,
      "v": 102
    },
    {
      "midi": 85,
      "hit": false,
      "t": 114278.22100000124,
      "d": 83.76279166666791,
      "v": 107
    },
    {
      "midi": 73,
      "hit": false,
      "t": 114278.22100000124,
      "d": 103.09266666666372,
      "v": 107
    },
    {
      "midi": 64,
      "hit": false,
      "t": 114278.22100000124,
      "d": 231.95849999999336,
      "v": 113
    },
    {
      "midi": 85,
      "hit": false,
      "t": 114587.49900000123,
      "d": 70.87620833332767,
      "v": 107
    },
    {
      "midi": 73,
      "hit": false,
      "t": 114587.49900000123,
      "d": 90.20608333332348,
      "v": 113
    },
    {
      "midi": 57,
      "hit": false,
      "t": 114587.49900000123,
      "d": 122.42254166665953,
      "v": 107
    },
    {
      "midi": 61,
      "hit": false,
      "t": 114587.49900000123,
      "d": 122.42254166665953,
      "v": 107
    },
    {
      "midi": 54,
      "hit": false,
      "t": 114587.49900000123,
      "d": 135.30912499999977,
      "v": 107
    },
    {
      "midi": 88,
      "hit": false,
      "t": 114742.13800000123,
      "d": 96.6493749999936,
      "v": 107
    },
    {
      "midi": 76,
      "hit": false,
      "t": 114742.13800000123,
      "d": 103.09266666666372,
      "v": 113
    },
    {
      "midi": 64,
      "hit": false,
      "t": 114742.13800000123,
      "d": 109.53595833333384,
      "v": 119
    },
    {
      "midi": 87,
      "hit": false,
      "t": 115051.41600000123,
      "d": 83.76279166666791,
      "v": 119
    },
    {
      "midi": 75,
      "hit": false,
      "t": 115051.41600000123,
      "d": 103.09266666666372,
      "v": 119
    },
    {
      "midi": 54,
      "hit": false,
      "t": 115051.41600000123,
      "d": 122.42254166665953,
      "v": 102
    },
    {
      "midi": 63,
      "hit": false,
      "t": 115051.41600000123,
      "d": 128.86583333332965,
      "v": 107
    },
    {
      "midi": 47,
      "hit": false,
      "t": 115051.41600000123,
      "d": 135.30912499999977,
      "v": 107
    },
    {
      "midi": 59,
      "hit": false,
      "t": 115051.41600000123,
      "d": 148.19570833334,
      "v": 102
    },
    {
      "midi": 49,
      "hit": false,
      "t": 116288.52800000124,
      "d": 257.73166666667385,
      "v": 107
    },
    {
      "midi": 68,
      "hit": false,
      "t": 116597.80600000125,
      "d": 70.87620833332767,
      "v": 80
    },
    {
      "midi": 64,
      "hit": false,
      "t": 116597.80600000125,
      "d": 77.31949999999779,
      "v": 98
    },
    {
      "midi": 61,
      "hit": false,
      "t": 116597.80600000125,
      "d": 90.20608333333803,
      "v": 76
    },
    {
      "midi": 64,
      "hit": false,
      "t": 117061.72300000125,
      "d": 70.87620833332767,
      "v": 98
    },
    {
      "midi": 68,
      "hit": false,
      "t": 117061.72300000125,
      "d": 77.31949999999779,
      "v": 85
    },
    {
      "midi": 61,
      "hit": false,
      "t": 117061.72300000125,
      "d": 83.76279166666791,
      "v": 80
    },
    {
      "midi": 49,
      "hit": false,
      "t": 117216.36200000125,
      "d": 77.31949999999779,
      "v": 89
    },
    {
      "midi": 61,
      "hit": false,
      "t": 117525.64000000124,
      "d": 90.20608333333803,
      "v": 72
    },
    {
      "midi": 64,
      "hit": false,
      "t": 117525.64000000124,
      "d": 90.20608333333803,
      "v": 98
    },
    {
      "midi": 68,
      "hit": false,
      "t": 117525.64000000124,
      "d": 103.09266666667827,
      "v": 89
    },
    {
      "midi": 61,
      "hit": false,
      "t": 117834.91800000124,
      "d": 57.98962500000198,
      "v": 62
    },
    {
      "midi": 64,
      "hit": false,
      "t": 117834.91800000124,
      "d": 77.31949999999779,
      "v": 98
    },
    {
      "midi": 49,
      "hit": false,
      "t": 117989.55700000124,
      "d": 70.87620833332767,
      "v": 93
    },
    {
      "midi": 61,
      "hit": false,
      "t": 118144.19600000123,
      "d": 83.76279166666791,
      "v": 76
    },
    {
      "midi": 49,
      "hit": false,
      "t": 118298.83500000123,
      "d": 64.4329166666721,
      "v": 98
    },
    {
      "midi": 61,
      "hit": false,
      "t": 118453.47400000124,
      "d": 83.76279166666791,
      "v": 89
    },
    {
      "midi": 64,
      "hit": false,
      "t": 118453.47400000124,
      "d": 83.76279166666791,
      "v": 102
    },
    {
      "midi": 68,
      "hit": false,
      "t": 118453.47400000124,
      "d": 96.64937500000815,
      "v": 85
    },
    {
      "midi": 49,
      "hit": false,
      "t": 118762.75200000126,
      "d": 270.61824999999953,
      "v": 98
    },
    {
      "midi": 61,
      "hit": false,
      "t": 119072.03000000126,
      "d": 70.87620833332767,
      "v": 60
    },
    {
      "midi": 64,
      "hit": false,
      "t": 119072.03000000126,
      "d": 77.31949999999779,
      "v": 93
    },
    {
      "midi": 68,
      "hit": false,
      "t": 119072.03000000126,
      "d": 90.20608333333803,
      "v": 93
    },
    {
      "midi": 49,
      "hit": false,
      "t": 119226.66900000127,
      "d": 64.4329166666721,
      "v": 89
    },
    {
      "midi": 61,
      "hit": false,
      "t": 119535.94700000128,
      "d": 64.4329166666721,
      "v": 68
    },
    {
      "midi": 64,
      "hit": false,
      "t": 119535.94700000128,
      "d": 64.4329166666721,
      "v": 93
    },
    {
      "midi": 68,
      "hit": false,
      "t": 119535.94700000128,
      "d": 70.87620833334222,
      "v": 85
    },
    {
      "midi": 49,
      "hit": false,
      "t": 119690.58600000129,
      "d": 64.4329166666721,
      "v": 80
    },
    {
      "midi": 61,
      "hit": false,
      "t": 119999.8640000013,
      "d": 90.20608333333803,
      "v": 80
    },
    {
      "midi": 64,
      "hit": false,
      "t": 119999.8640000013,
      "d": 90.20608333333803,
      "v": 102
    },
    {
      "midi": 68,
      "hit": false,
      "t": 119999.8640000013,
      "d": 96.64937500000815,
      "v": 93
    },
    {
      "midi": 64,
      "hit": false,
      "t": 120309.1420000013,
      "d": 38.65975000000617,
      "v": 59
    },
    {
      "midi": 61,
      "hit": false,
      "t": 120309.1420000013,
      "d": 90.20608333333803,
      "v": 80
    },
    {
      "midi": 49,
      "hit": false,
      "t": 120463.78100000131,
      "d": 77.31949999999779,
      "v": 93
    },
    {
      "midi": 64,
      "hit": false,
      "t": 120618.42000000131,
      "d": 83.76279166666791,
      "v": 93
    },
    {
      "midi": 61,
      "hit": false,
      "t": 120618.42000000131,
      "d": 103.09266666666372,
      "v": 85
    },
    {
      "midi": 68,
      "hit": false,
      "t": 120618.42000000131,
      "d": 103.09266666666372,
      "v": 72
    },
    {
      "midi": 64,
      "hit": false,
      "t": 120927.6980000013,
      "d": 70.87620833332767,
      "v": 107
    },
    {
      "midi": 61,
      "hit": false,
      "t": 120927.6980000013,
      "d": 83.76279166666791,
      "v": 93
    },
    {
      "midi": 68,
      "hit": false,
      "t": 120927.6980000013,
      "d": 83.76279166666791,
      "v": 93
    },
    {
      "midi": 57,
      "hit": false,
      "t": 121236.9760000013,
      "d": 251.28837500000373,
      "v": 93
    },
    {
      "midi": 54,
      "hit": false,
      "t": 121236.9760000013,
      "d": 257.73166666667385,
      "v": 98
    },
    {
      "midi": 61,
      "hit": false,
      "t": 121236.9760000013,
      "d": 257.73166666667385,
      "v": 93
    },
    {
      "midi": 66,
      "hit": false,
      "t": 121546.25400000131,
      "d": 64.4329166666721,
      "v": 89
    },
    {
      "midi": 69,
      "hit": false,
      "t": 121546.25400000131,
      "d": 64.4329166666721,
      "v": 107
    },
    {
      "midi": 69,
      "hit": false,
      "t": 122010.17100000131,
      "d": 70.87620833332767,
      "v": 113
    },
    {
      "midi": 66,
      "hit": false,
      "t": 122010.17100000131,
      "d": 77.31949999999779,
      "v": 93
    },
    {
      "midi": 47,
      "hit": false,
      "t": 122474.08800000131,
      "d": 844.0712083333347,
      "v": 98
    },
    {
      "midi": 66,
      "hit": false,
      "t": 122783.36600000132,
      "d": 90.20608333333803,
      "v": 89
    },
    {
      "midi": 59,
      "hit": false,
      "t": 122783.36600000132,
      "d": 96.64937500000815,
      "v": 72
    },
    {
      "midi": 63,
      "hit": false,
      "t": 122783.36600000132,
      "d": 96.64937500000815,
      "v": 89
    },
    {
      "midi": 61,
      "hit": false,
      "t": 123247.28300000132,
      "d": 83.76279166666791,
      "v": 102
    },
    {
      "midi": 66,
      "hit": false,
      "t": 123247.28300000132,
      "d": 122.42254166667408,
      "v": 98
    },
    {
      "midi": 59,
      "hit": false,
      "t": 123711.20000000134,
      "d": 38.65975000000617,
      "v": 44
    },
    {
      "midi": 52,
      "hit": false,
      "t": 123711.20000000134,
      "d": 850.5145000000048,
      "v": 93
    },
    {
      "midi": 64,
      "hit": false,
      "t": 124020.47800000134,
      "d": 70.87620833332767,
      "v": 89
    },
    {
      "midi": 68,
      "hit": false,
      "t": 124020.47800000134,
      "d": 83.76279166666791,
      "v": 102
    },
    {
      "midi": 71,
      "hit": false,
      "t": 124020.47800000134,
      "d": 83.76279166666791,
      "v": 102
    },
    {
      "midi": 66,
      "hit": false,
      "t": 124329.75600000135,
      "d": 70.87620833332767,
      "v": 98
    },
    {
      "midi": 71,
      "hit": false,
      "t": 124329.75600000135,
      "d": 109.53595833333384,
      "v": 89
    },
    {
      "midi": 64,
      "hit": false,
      "t": 124484.39500000134,
      "d": 115.97925000000396,
      "v": 107
    },
    {
      "midi": 49,
      "hit": false,
      "t": 124948.31200000134,
      "d": 541.2364999999991,
      "v": 102
    },
    {
      "midi": 64,
      "hit": false,
      "t": 125257.59000000134,
      "d": 51.54633333333186,
      "v": 107
    },
    {
      "midi": 59,
      "hit": false,
      "t": 125257.59000000134,
      "d": 64.4329166666721,
      "v": 76
    },
    {
      "midi": 68,
      "hit": false,
      "t": 125257.59000000134,
      "d": 64.4329166666721,
      "v": 93
    },
    {
      "midi": 64,
      "hit": false,
      "t": 125721.50700000134,
      "d": 83.76279166666791,
      "v": 107
    },
    {
      "midi": 59,
      "hit": false,
      "t": 125721.50700000134,
      "d": 90.20608333333803,
      "v": 85
    },
    {
      "midi": 68,
      "hit": false,
      "t": 125721.50700000134,
      "d": 90.20608333333803,
      "v": 98
    },
    {
      "midi": 54,
      "hit": false,
      "t": 126185.42400000134,
      "d": 792.5248750000028,
      "v": 93
    },
    {
      "midi": 64,
      "hit": false,
      "t": 126494.70200000134,
      "d": 103.09266666666372,
      "v": 89
    },
    {
      "midi": 69,
      "hit": false,
      "t": 126494.70200000134,
      "d": 115.97925000000396,
      "v": 102
    },
    {
      "midi": 61,
      "hit": false,
      "t": 126494.70200000134,
      "d": 257.73166666667385,
      "v": 98
    },
    {
      "midi": 69,
      "hit": false,
      "t": 126958.61900000134,
      "d": 83.76279166666791,
      "v": 107
    },
    {
      "midi": 64,
      "hit": false,
      "t": 126958.61900000134,
      "d": 90.20608333333803,
      "v": 89
    },
    {
      "midi": 47,
      "hit": false,
      "t": 127422.53600000135,
      "d": 1114.6894583333342,
      "v": 93
    },
    {
      "midi": 66,
      "hit": false,
      "t": 127731.81400000135,
      "d": 64.4329166666721,
      "v": 89
    },
    {
      "midi": 59,
      "hit": false,
      "t": 127731.81400000135,
      "d": 90.20608333333803,
      "v": 76
    },
    {
      "midi": 63,
      "hit": false,
      "t": 127731.81400000135,
      "d": 109.53595833333384,
      "v": 89
    },
    {
      "midi": 59,
      "hit": false,
      "t": 128041.09200000136,
      "d": 77.31949999999779,
      "v": 89
    },
    {
      "midi": 61,
      "hit": false,
      "t": 128195.73100000135,
      "d": 83.76279166666791,
      "v": 107
    },
    {
      "midi": 66,
      "hit": false,
      "t": 128195.73100000135,
      "d": 128.86583333332965,
      "v": 102
    },
    {
      "midi": 54,
      "hit": false,
      "t": 128350.37000000135,
      "d": 45.10304166666174,
      "v": 59
    },
    {
      "midi": 59,
      "hit": false,
      "t": 128659.64800000135,
      "d": 77.31949999999779,
      "v": 98
    },
    {
      "midi": 66,
      "hit": false,
      "t": 128659.64800000135,
      "d": 83.76279166666791,
      "v": 89
    },
    {
      "midi": 56,
      "hit": false,
      "t": 128659.64800000135,
      "d": 90.20608333333803,
      "v": 98
    },
    {
      "midi": 62,
      "hit": false,
      "t": 128659.64800000135,
      "d": 103.09266666667827,
      "v": 89
    },
    {
      "midi": 68,
      "hit": false,
      "t": 128659.64800000135,
      "d": 109.53595833334839,
      "v": 93
    },
    {
      "midi": 59,
      "hit": false,
      "t": 129123.56500000137,
      "d": 57.98962500000198,
      "v": 107
    },
    {
      "midi": 66,
      "hit": false,
      "t": 129123.56500000137,
      "d": 57.98962500000198,
      "v": 89
    },
    {
      "midi": 62,
      "hit": false,
      "t": 129123.56500000137,
      "d": 64.4329166666721,
      "v": 85
    },
    {
      "midi": 56,
      "hit": false,
      "t": 129123.56500000137,
      "d": 77.31950000001234,
      "v": 107
    },
    {
      "midi": 68,
      "hit": false,
      "t": 129123.56500000137,
      "d": 90.20608333335258,
      "v": 93
    },
    {
      "midi": 66,
      "hit": false,
      "t": 129587.48200000139,
      "d": 64.4329166666721,
      "v": 93
    },
    {
      "midi": 59,
      "hit": false,
      "t": 129587.48200000139,
      "d": 70.87620833334222,
      "v": 113
    },
    {
      "midi": 62,
      "hit": false,
      "t": 129587.48200000139,
      "d": 70.87620833334222,
      "v": 76
    },
    {
      "midi": 56,
      "hit": false,
      "t": 129587.48200000139,
      "d": 77.31950000001234,
      "v": 107
    },
    {
      "midi": 68,
      "hit": false,
      "t": 129587.48200000139,
      "d": 77.31950000001234,
      "v": 93
    },
    {
      "midi": 71,
      "hit": false,
      "t": 130206.0380000014,
      "d": 476.80358333332697,
      "v": 98
    },
    {
      "midi": 61,
      "hit": false,
      "t": 130206.0380000014,
      "d": 502.5767499999929,
      "v": 98
    },
    {
      "midi": 56,
      "hit": false,
      "t": 130206.0380000014,
      "d": 528.3499166666588,
      "v": 98
    },
    {
      "midi": 65,
      "hit": false,
      "t": 130206.0380000014,
      "d": 528.3499166666588,
      "v": 98
    },
    {
      "midi": 49,
      "hit": false,
      "t": 130206.0380000014,
      "d": 541.2364999999991,
      "v": 113
    },
    {
      "midi": 68,
      "hit": false,
      "t": 130206.0380000014,
      "d": 541.2364999999991,
      "v": 85
    },
    {
      "midi": 85,
      "hit": false,
      "t": 130206.0380000014,
      "d": 586.3395416666608,
      "v": 113
    },
    {
      "midi": 83,
      "hit": false,
      "t": 130824.5940000014,
      "d": 96.6493749999936,
      "v": 107
    },
    {
      "midi": 49,
      "hit": false,
      "t": 130824.5940000014,
      "d": 115.9792499999894,
      "v": 98
    },
    {
      "midi": 61,
      "hit": false,
      "t": 130824.5940000014,
      "d": 115.9792499999894,
      "v": 85
    },
    {
      "midi": 56,
      "hit": false,
      "t": 130824.5940000014,
      "d": 122.42254166665953,
      "v": 102
    },
    {
      "midi": 65,
      "hit": false,
      "t": 130824.5940000014,
      "d": 128.86583333332965,
      "v": 80
    },
    {
      "midi": 68,
      "hit": false,
      "t": 130824.5940000014,
      "d": 141.7524166666699,
      "v": 80
    },
    {
      "midi": 57,
      "hit": false,
      "t": 131133.8720000014,
      "d": 257.7316666666593,
      "v": 93
    },
    {
      "midi": 61,
      "hit": false,
      "t": 131133.8720000014,
      "d": 257.7316666666593,
      "v": 93
    },
    {
      "midi": 54,
      "hit": false,
      "t": 131133.8720000014,
      "d": 264.17495833331486,
      "v": 93
    },
    {
      "midi": 64,
      "hit": false,
      "t": 131133.8720000014,
      "d": 315.7212916666467,
      "v": 107
    },
    {
      "midi": 54,
      "hit": false,
      "t": 131597.7890000014,
      "d": 238.40179166666348,
      "v": 98
    },
    {
      "midi": 57,
      "hit": false,
      "t": 131597.7890000014,
      "d": 238.40179166666348,
      "v": 93
    },
    {
      "midi": 61,
      "hit": false,
      "t": 131597.7890000014,
      "d": 238.40179166666348,
      "v": 93
    },
    {
      "midi": 64,
      "hit": false,
      "t": 131597.7890000014,
      "d": 296.3914166666509,
      "v": 107
    },
    {
      "midi": 64,
      "hit": false,
      "t": 132061.70600000137,
      "d": 90.20608333332348,
      "v": 113
    },
    {
      "midi": 57,
      "hit": false,
      "t": 132061.70600000137,
      "d": 103.09266666666372,
      "v": 93
    },
    {
      "midi": 54,
      "hit": false,
      "t": 132061.70600000137,
      "d": 115.97925000000396,
      "v": 102
    },
    {
      "midi": 61,
      "hit": false,
      "t": 132061.70600000137,
      "d": 115.97925000000396,
      "v": 102
    },
    {
      "midi": 66,
      "hit": false,
      "t": 132370.9840000014,
      "d": 264.17495833334397,
      "v": 107
    },
    {
      "midi": 63,
      "hit": false,
      "t": 132370.9840000014,
      "d": 283.5048333333398,
      "v": 93
    },
    {
      "midi": 59,
      "hit": false,
      "t": 132370.9840000014,
      "d": 296.39141666668,
      "v": 98
    },
    {
      "midi": 66,
      "hit": false,
      "t": 132834.9010000014,
      "d": 264.17495833334397,
      "v": 107
    },
    {
      "midi": 63,
      "hit": false,
      "t": 132834.9010000014,
      "d": 277.0615416666842,
      "v": 107
    },
    {
      "midi": 59,
      "hit": false,
      "t": 132834.9010000014,
      "d": 283.5048333333398,
      "v": 93
    },
    {
      "midi": 59,
      "hit": false,
      "t": 133298.81800000143,
      "d": 90.20608333332348,
      "v": 98
    },
    {
      "midi": 63,
      "hit": false,
      "t": 133298.81800000143,
      "d": 115.97925000000396,
      "v": 98
    },
    {
      "midi": 66,
      "hit": false,
      "t": 133298.81800000143,
      "d": 135.30912499999977,
      "v": 102
    },
    {
      "midi": 59,
      "hit": false,
      "t": 133608.09600000142,
      "d": 270.61824999999953,
      "v": 93
    },
    {
      "midi": 52,
      "hit": false,
      "t": 133608.09600000142,
      "d": 283.5048333333398,
      "v": 107
    },
    {
      "midi": 63,
      "hit": false,
      "t": 133608.09600000142,
      "d": 283.5048333333398,
      "v": 89
    },
    {
      "midi": 68,
      "hit": false,
      "t": 133608.09600000142,
      "d": 289.94812499999534,
      "v": 102
    },
    {
      "midi": 52,
      "hit": false,
      "t": 134072.0130000014,
      "d": 238.40179166666348,
      "v": 107
    },
    {
      "midi": 59,
      "hit": false,
      "t": 134072.0130000014,
      "d": 244.84508333331905,
      "v": 89
    },
    {
      "midi": 63,
      "hit": false,
      "t": 134072.0130000014,
      "d": 257.7316666666593,
      "v": 98
    },
    {
      "midi": 68,
      "hit": false,
      "t": 134072.0130000014,
      "d": 270.61824999999953,
      "v": 102
    },
    {
      "midi": 52,
      "hit": false,
      "t": 134535.9300000014,
      "d": 109.53595833331929,
      "v": 102
    },
    {
      "midi": 59,
      "hit": false,
      "t": 134535.9300000014,
      "d": 122.42254166665953,
      "v": 93
    },
    {
      "midi": 68,
      "hit": false,
      "t": 134535.9300000014,
      "d": 154.63899999999558,
      "v": 102
    },
    {
      "midi": 63,
      "hit": false,
      "t": 134535.9300000014,
      "d": 161.08229166665114,
      "v": 93
    },
    {
      "midi": 64,
      "hit": false,
      "t": 134845.20800000138,
      "d": 277.0615416666551,
      "v": 89
    },
    {
      "midi": 61,
      "hit": false,
      "t": 134845.20800000138,
      "d": 283.50483333331067,
      "v": 93
    },
    {
      "midi": 57,
      "hit": false,
      "t": 134845.20800000138,
      "d": 296.3914166666509,
      "v": 98
    },
    {
      "midi": 68,
      "hit": false,
      "t": 134845.20800000138,
      "d": 302.8347083333065,
      "v": 107
    },
    {
      "midi": 64,
      "hit": false,
      "t": 135309.12500000137,
      "d": 270.61824999999953,
      "v": 113
    },
    {
      "midi": 61,
      "hit": false,
      "t": 135309.12500000137,
      "d": 277.0615416666551,
      "v": 107
    },
    {
      "midi": 57,
      "hit": false,
      "t": 135309.12500000137,
      "d": 283.50483333331067,
      "v": 107
    },
    {
      "midi": 68,
      "hit": false,
      "t": 135309.12500000137,
      "d": 296.3914166666509,
      "v": 102
    },
    {
      "midi": 68,
      "hit": false,
      "t": 135773.04200000135,
      "d": 141.75241666665534,
      "v": 107
    },
    {
      "midi": 57,
      "hit": false,
      "t": 135773.04200000135,
      "d": 161.08229166665114,
      "v": 107
    },
    {
      "midi": 61,
      "hit": false,
      "t": 135773.04200000135,
      "d": 167.5255833333067,
      "v": 107
    },
    {
      "midi": 64,
      "hit": false,
      "t": 135773.04200000135,
      "d": 167.5255833333067,
      "v": 107
    },
    {
      "midi": 61,
      "hit": false,
      "t": 136082.32000000132,
      "d": 109.53595833331929,
      "v": 98
    },
    {
      "midi": 54,
      "hit": false,
      "t": 136082.32000000132,
      "d": 115.97924999997485,
      "v": 98
    },
    {
      "midi": 57,
      "hit": false,
      "t": 136082.32000000132,
      "d": 115.97924999997485,
      "v": 98
    },
    {
      "midi": 64,
      "hit": false,
      "t": 136082.32000000132,
      "d": 122.42254166663042,
      "v": 113
    },
    {
      "midi": 54,
      "hit": false,
      "t": 136391.59800000128,
      "d": 70.87620833332767,
      "v": 89
    },
    {
      "midi": 57,
      "hit": false,
      "t": 136391.59800000128,
      "d": 70.87620833332767,
      "v": 89
    },
    {
      "midi": 61,
      "hit": false,
      "t": 136391.59800000128,
      "d": 70.87620833332767,
      "v": 93
    },
    {
      "midi": 64,
      "hit": false,
      "t": 136391.59800000128,
      "d": 96.64937500000815,
      "v": 98
    },
    {
      "midi": 54,
      "hit": false,
      "t": 136546.23700000127,
      "d": 115.97925000000396,
      "v": 93
    },
    {
      "midi": 57,
      "hit": false,
      "t": 136546.23700000127,
      "d": 115.97925000000396,
      "v": 93
    },
    {
      "midi": 69,
      "hit": false,
      "t": 136546.23700000127,
      "d": 115.97925000000396,
      "v": 102
    },
    {
      "midi": 61,
      "hit": false,
      "t": 136546.23700000127,
      "d": 122.42254166665953,
      "v": 98
    },
    {
      "midi": 54,
      "hit": false,
      "t": 136855.51500000127,
      "d": 64.4329166666721,
      "v": 93
    },
    {
      "midi": 57,
      "hit": false,
      "t": 136855.51500000127,
      "d": 64.4329166666721,
      "v": 93
    },
    {
      "midi": 61,
      "hit": false,
      "t": 136855.51500000127,
      "d": 77.31950000001234,
      "v": 102
    },
    {
      "midi": 69,
      "hit": false,
      "t": 136855.51500000127,
      "d": 90.20608333335258,
      "v": 107
    },
    {
      "midi": 57,
      "hit": false,
      "t": 137010.1540000013,
      "d": 109.53595833331929,
      "v": 107
    },
    {
      "midi": 54,
      "hit": false,
      "t": 137010.1540000013,
      "d": 115.97924999997485,
      "v": 107
    },
    {
      "midi": 61,
      "hit": false,
      "t": 137010.1540000013,
      "d": 115.97924999997485,
      "v": 107
    },
    {
      "midi": 73,
      "hit": false,
      "t": 137010.1540000013,
      "d": 122.42254166663042,
      "v": 102
    },
    {
      "midi": 47,
      "hit": false,
      "t": 137319.43200000125,
      "d": 154.63899999999558,
      "v": 113
    },
    {
      "midi": 63,
      "hit": false,
      "t": 137319.43200000125,
      "d": 154.63899999999558,
      "v": 93
    },
    {
      "midi": 66,
      "hit": false,
      "t": 137319.43200000125,
      "d": 154.63899999999558,
      "v": 102
    },
    {
      "midi": 54,
      "hit": false,
      "t": 137319.43200000125,
      "d": 180.41216666667606,
      "v": 89
    },
    {
      "midi": 71,
      "hit": false,
      "t": 137319.43200000125,
      "d": 180.41216666667606,
      "v": 98
    },
    {
      "midi": 52,
      "hit": false,
      "t": 138556.54400000127,
      "d": 1076.0297083333426,
      "v": 107
    },
    {
      "midi": 59,
      "hit": false,
      "t": 138865.82200000127,
      "d": 515.4633333333477,
      "v": 76
    },
    {
      "midi": 64,
      "hit": false,
      "t": 138865.82200000127,
      "d": 528.3499166666879,
      "v": 107
    },
    {
      "midi": 68,
      "hit": false,
      "t": 138865.82200000127,
      "d": 528.3499166666879,
      "v": 89
    },
    {
      "midi": 59,
      "hit": false,
      "t": 139484.37800000128,
      "d": 302.8347083333356,
      "v": 85
    },
    {
      "midi": 64,
      "hit": false,
      "t": 139484.37800000128,
      "d": 309.27799999999115,
      "v": 113
    },
    {
      "midi": 68,
      "hit": false,
      "t": 139484.37800000128,
      "d": 309.27799999999115,
      "v": 93
    },
    {
      "midi": 52,
      "hit": false,
      "t": 139793.65600000127,
      "d": 154.63899999999558,
      "v": 119
    },
    {
      "midi": 71,
      "hit": false,
      "t": 140102.93400000126,
      "d": 476.80358333332697,
      "v": 98
    },
    {
      "midi": 61,
      "hit": false,
      "t": 140102.93400000126,
      "d": 502.57675000000745,
      "v": 98
    },
    {
      "midi": 56,
      "hit": false,
      "t": 140102.93400000126,
      "d": 528.3499166666879,
      "v": 98
    },
    {
      "midi": 65,
      "hit": false,
      "t": 140102.93400000126,
      "d": 528.3499166666879,
      "v": 98
    },
    {
      "midi": 49,
      "hit": false,
      "t": 140102.93400000126,
      "d": 541.2365000000282,
      "v": 113
    },
    {
      "midi": 68,
      "hit": false,
      "t": 140102.93400000126,
      "d": 541.2365000000282,
      "v": 85
    },
    {
      "midi": 85,
      "hit": false,
      "t": 140102.93400000126,
      "d": 586.3395416667045,
      "v": 113
    },
    {
      "midi": 83,
      "hit": false,
      "t": 140721.4900000013,
      "d": 96.64937500000815,
      "v": 107
    },
    {
      "midi": 49,
      "hit": false,
      "t": 140721.4900000013,
      "d": 115.97925000000396,
      "v": 98
    },
    {
      "midi": 61,
      "hit": false,
      "t": 140721.4900000013,
      "d": 115.97925000000396,
      "v": 85
    },
    {
      "midi": 56,
      "hit": false,
      "t": 140721.4900000013,
      "d": 122.42254166665953,
      "v": 102
    },
    {
      "midi": 65,
      "hit": false,
      "t": 140721.4900000013,
      "d": 128.8658333333151,
      "v": 80
    },
    {
      "midi": 68,
      "hit": false,
      "t": 140721.4900000013,
      "d": 141.75241666665534,
      "v": 80
    },
    {
      "midi": 57,
      "hit": false,
      "t": 141030.7680000013,
      "d": 257.7316666666593,
      "v": 93
    },
    {
      "midi": 61,
      "hit": false,
      "t": 141030.7680000013,
      "d": 257.7316666666593,
      "v": 93
    },
    {
      "midi": 54,
      "hit": false,
      "t": 141030.7680000013,
      "d": 264.17495833331486,
      "v": 93
    },
    {
      "midi": 64,
      "hit": false,
      "t": 141030.7680000013,
      "d": 315.7212916666467,
      "v": 107
    },
    {
      "midi": 54,
      "hit": false,
      "t": 141494.68500000128,
      "d": 238.40179166666348,
      "v": 98
    },
    {
      "midi": 57,
      "hit": false,
      "t": 141494.68500000128,
      "d": 238.40179166666348,
      "v": 93
    },
    {
      "midi": 61,
      "hit": false,
      "t": 141494.68500000128,
      "d": 238.40179166666348,
      "v": 93
    },
    {
      "midi": 64,
      "hit": false,
      "t": 141494.68500000128,
      "d": 296.3914166666509,
      "v": 107
    },
    {
      "midi": 64,
      "hit": false,
      "t": 141958.60200000126,
      "d": 90.20608333332348,
      "v": 113
    },
    {
      "midi": 57,
      "hit": false,
      "t": 141958.60200000126,
      "d": 103.09266666666372,
      "v": 93
    },
    {
      "midi": 54,
      "hit": false,
      "t": 141958.60200000126,
      "d": 115.97925000000396,
      "v": 102
    },
    {
      "midi": 61,
      "hit": false,
      "t": 141958.60200000126,
      "d": 115.97925000000396,
      "v": 102
    },
    {
      "midi": 66,
      "hit": false,
      "t": 142267.88000000129,
      "d": 264.17495833334397,
      "v": 107
    },
    {
      "midi": 63,
      "hit": false,
      "t": 142267.88000000129,
      "d": 283.5048333333398,
      "v": 93
    },
    {
      "midi": 59,
      "hit": false,
      "t": 142267.88000000129,
      "d": 296.39141666668,
      "v": 98
    },
    {
      "midi": 66,
      "hit": false,
      "t": 142731.7970000013,
      "d": 264.17495833334397,
      "v": 107
    },
    {
      "midi": 63,
      "hit": false,
      "t": 142731.7970000013,
      "d": 277.0615416666842,
      "v": 107
    },
    {
      "midi": 59,
      "hit": false,
      "t": 142731.7970000013,
      "d": 283.5048333333398,
      "v": 93
    },
    {
      "midi": 59,
      "hit": false,
      "t": 143195.71400000132,
      "d": 90.20608333332348,
      "v": 98
    },
    {
      "midi": 63,
      "hit": false,
      "t": 143195.71400000132,
      "d": 115.97925000000396,
      "v": 98
    },
    {
      "midi": 66,
      "hit": false,
      "t": 143195.71400000132,
      "d": 135.30912499999977,
      "v": 102
    },
    {
      "midi": 59,
      "hit": false,
      "t": 143504.9920000013,
      "d": 270.61824999999953,
      "v": 93
    },
    {
      "midi": 52,
      "hit": false,
      "t": 143504.9920000013,
      "d": 283.5048333333398,
      "v": 107
    },
    {
      "midi": 63,
      "hit": false,
      "t": 143504.9920000013,
      "d": 283.5048333333398,
      "v": 89
    },
    {
      "midi": 68,
      "hit": false,
      "t": 143504.9920000013,
      "d": 289.94812499999534,
      "v": 102
    },
    {
      "midi": 52,
      "hit": false,
      "t": 143968.9090000013,
      "d": 238.40179166666348,
      "v": 107
    },
    {
      "midi": 59,
      "hit": false,
      "t": 143968.9090000013,
      "d": 244.84508333331905,
      "v": 89
    },
    {
      "midi": 63,
      "hit": false,
      "t": 143968.9090000013,
      "d": 257.7316666666593,
      "v": 98
    },
    {
      "midi": 68,
      "hit": false,
      "t": 143968.9090000013,
      "d": 270.61824999999953,
      "v": 102
    },
    {
      "midi": 52,
      "hit": false,
      "t": 144432.82600000128,
      "d": 109.53595833331929,
      "v": 102
    },
    {
      "midi": 59,
      "hit": false,
      "t": 144432.82600000128,
      "d": 122.42254166665953,
      "v": 93
    },
    {
      "midi": 68,
      "hit": false,
      "t": 144432.82600000128,
      "d": 154.63899999999558,
      "v": 102
    },
    {
      "midi": 63,
      "hit": false,
      "t": 144432.82600000128,
      "d": 161.08229166665114,
      "v": 93
    },
    {
      "midi": 64,
      "hit": false,
      "t": 144742.10400000127,
      "d": 277.0615416666551,
      "v": 89
    },
    {
      "midi": 61,
      "hit": false,
      "t": 144742.10400000127,
      "d": 283.50483333331067,
      "v": 93
    },
    {
      "midi": 57,
      "hit": false,
      "t": 144742.10400000127,
      "d": 296.3914166666509,
      "v": 98
    },
    {
      "midi": 68,
      "hit": false,
      "t": 144742.10400000127,
      "d": 302.8347083333065,
      "v": 107
    },
    {
      "midi": 64,
      "hit": false,
      "t": 145206.02100000126,
      "d": 270.61824999999953,
      "v": 113
    },
    {
      "midi": 61,
      "hit": false,
      "t": 145206.02100000126,
      "d": 277.0615416666551,
      "v": 107
    },
    {
      "midi": 57,
      "hit": false,
      "t": 145206.02100000126,
      "d": 283.50483333331067,
      "v": 107
    },
    {
      "midi": 68,
      "hit": false,
      "t": 145206.02100000126,
      "d": 296.3914166666509,
      "v": 102
    },
    {
      "midi": 68,
      "hit": false,
      "t": 145669.93800000125,
      "d": 141.75241666665534,
      "v": 107
    },
    {
      "midi": 57,
      "hit": false,
      "t": 145669.93800000125,
      "d": 161.08229166665114,
      "v": 107
    },
    {
      "midi": 61,
      "hit": false,
      "t": 145669.93800000125,
      "d": 167.5255833333067,
      "v": 107
    },
    {
      "midi": 64,
      "hit": false,
      "t": 145669.93800000125,
      "d": 167.5255833333067,
      "v": 107
    },
    {
      "midi": 61,
      "hit": false,
      "t": 145979.2160000012,
      "d": 109.53595833331929,
      "v": 98
    },
    {
      "midi": 54,
      "hit": false,
      "t": 145979.2160000012,
      "d": 115.97924999997485,
      "v": 98
    },
    {
      "midi": 57,
      "hit": false,
      "t": 145979.2160000012,
      "d": 115.97924999997485,
      "v": 98
    },
    {
      "midi": 64,
      "hit": false,
      "t": 145979.2160000012,
      "d": 122.42254166663042,
      "v": 113
    },
    {
      "midi": 54,
      "hit": false,
      "t": 146288.49400000117,
      "d": 70.87620833332767,
      "v": 89
    },
    {
      "midi": 57,
      "hit": false,
      "t": 146288.49400000117,
      "d": 70.87620833332767,
      "v": 89
    },
    {
      "midi": 61,
      "hit": false,
      "t": 146288.49400000117,
      "d": 70.87620833332767,
      "v": 93
    },
    {
      "midi": 64,
      "hit": false,
      "t": 146288.49400000117,
      "d": 96.64937500000815,
      "v": 98
    },
    {
      "midi": 54,
      "hit": false,
      "t": 146443.13300000117,
      "d": 115.97925000000396,
      "v": 93
    },
    {
      "midi": 57,
      "hit": false,
      "t": 146443.13300000117,
      "d": 115.97925000000396,
      "v": 93
    },
    {
      "midi": 69,
      "hit": false,
      "t": 146443.13300000117,
      "d": 115.97925000000396,
      "v": 102
    },
    {
      "midi": 61,
      "hit": false,
      "t": 146443.13300000117,
      "d": 122.42254166665953,
      "v": 98
    },
    {
      "midi": 54,
      "hit": false,
      "t": 146752.41100000116,
      "d": 64.4329166666721,
      "v": 93
    },
    {
      "midi": 57,
      "hit": false,
      "t": 146752.41100000116,
      "d": 64.4329166666721,
      "v": 93
    },
    {
      "midi": 61,
      "hit": false,
      "t": 146752.41100000116,
      "d": 77.31950000001234,
      "v": 102
    },
    {
      "midi": 69,
      "hit": false,
      "t": 146752.41100000116,
      "d": 90.20608333335258,
      "v": 107
    },
    {
      "midi": 57,
      "hit": false,
      "t": 146907.05000000118,
      "d": 109.53595833331929,
      "v": 107
    },
    {
      "midi": 54,
      "hit": false,
      "t": 146907.05000000118,
      "d": 115.97924999997485,
      "v": 107
    },
    {
      "midi": 61,
      "hit": false,
      "t": 146907.05000000118,
      "d": 115.97924999997485,
      "v": 107
    },
    {
      "midi": 73,
      "hit": false,
      "t": 146907.05000000118,
      "d": 122.42254166663042,
      "v": 102
    },
    {
      "midi": 47,
      "hit": false,
      "t": 147216.32800000114,
      "d": 154.63899999999558,
      "v": 113
    },
    {
      "midi": 63,
      "hit": false,
      "t": 147216.32800000114,
      "d": 154.63899999999558,
      "v": 93
    },
    {
      "midi": 66,
      "hit": false,
      "t": 147216.32800000114,
      "d": 154.63899999999558,
      "v": 102
    },
    {
      "midi": 54,
      "hit": false,
      "t": 147216.32800000114,
      "d": 180.41216666667606,
      "v": 89
    },
    {
      "midi": 71,
      "hit": false,
      "t": 147216.32800000114,
      "d": 180.41216666667606,
      "v": 98
    },
    {
      "midi": 59,
      "hit": false,
      "t": 148453.44000000117,
      "d": 115.97925000000396,
      "v": 85
    },
    {
      "midi": 64,
      "hit": false,
      "t": 148453.44000000117,
      "d": 115.97925000000396,
      "v": 107
    },
    {
      "midi": 68,
      "hit": false,
      "t": 148453.44000000117,
      "d": 115.97925000000396,
      "v": 89
    },
    {
      "midi": 52,
      "hit": false,
      "t": 148453.44000000117,
      "d": 135.30912499999977,
      "v": 107
    },
    {
      "midi": 64,
      "hit": false,
      "t": 148762.71800000116,
      "d": 45.10304166667629,
      "v": 93
    },
    {
      "midi": 59,
      "hit": false,
      "t": 148762.71800000116,
      "d": 51.54633333333186,
      "v": 68
    },
    {
      "midi": 68,
      "hit": false,
      "t": 148762.71800000116,
      "d": 51.54633333333186,
      "v": 76
    },
    {
      "midi": 52,
      "hit": false,
      "t": 148762.71800000116,
      "d": 57.98962499998743,
      "v": 98
    },
    {
      "midi": 52,
      "hit": false,
      "t": 148917.35700000115,
      "d": 148.19570833334,
      "v": 107
    },
    {
      "midi": 59,
      "hit": false,
      "t": 148917.35700000115,
      "d": 148.19570833334,
      "v": 76
    },
    {
      "midi": 64,
      "hit": false,
      "t": 148917.35700000115,
      "d": 154.63899999999558,
      "v": 98
    },
    {
      "midi": 68,
      "hit": false,
      "t": 148917.35700000115,
      "d": 167.52558333333582,
      "v": 89
    },
    {
      "midi": 59,
      "hit": false,
      "t": 149226.63500000114,
      "d": 25.77316666668048,
      "v": 34
    },
    {
      "midi": 64,
      "hit": false,
      "t": 149226.63500000114,
      "d": 38.65975000002072,
      "v": 76
    },
    {
      "midi": 68,
      "hit": false,
      "t": 149226.63500000114,
      "d": 38.65975000002072,
      "v": 62
    },
    {
      "midi": 64,
      "hit": false,
      "t": 149381.27400000117,
      "d": 64.4329166666721,
      "v": 107
    },
    {
      "midi": 68,
      "hit": false,
      "t": 149381.27400000117,
      "d": 70.87620833332767,
      "v": 102
    },
    {
      "midi": 59,
      "hit": false,
      "t": 149381.27400000117,
      "d": 77.31949999998324,
      "v": 89
    },
    {
      "midi": 52,
      "hit": false,
      "t": 149381.27400000117,
      "d": 83.7627916666388,
      "v": 119
    },
    {
      "midi": 55,
      "hit": false,
      "t": 149690.55200000116,
      "d": 122.42254166665953,
      "v": 93
    },
    {
      "midi": 59,
      "hit": false,
      "t": 149690.55200000116,
      "d": 135.30912499999977,
      "v": 107
    },
    {
      "midi": 62,
      "hit": false,
      "t": 149690.55200000116,
      "d": 141.75241666665534,
      "v": 107
    },
    {
      "midi": 43,
      "hit": false,
      "t": 149690.55200000116,
      "d": 154.63899999999558,
      "v": 113
    },
    {
      "midi": 55,
      "hit": false,
      "t": 149999.83000000115,
      "d": 57.98962499998743,
      "v": 93
    },
    {
      "midi": 59,
      "hit": false,
      "t": 149999.83000000115,
      "d": 57.98962499998743,
      "v": 98
    },
    {
      "midi": 43,
      "hit": false,
      "t": 149999.83000000115,
      "d": 70.87620833332767,
      "v": 93
    },
    {
      "midi": 62,
      "hit": false,
      "t": 149999.83000000115,
      "d": 70.87620833332767,
      "v": 98
    },
    {
      "midi": 57,
      "hit": false,
      "t": 150154.46900000115,
      "d": 103.09266666666372,
      "v": 93
    },
    {
      "midi": 61,
      "hit": false,
      "t": 150154.46900000115,
      "d": 103.09266666666372,
      "v": 107
    },
    {
      "midi": 45,
      "hit": false,
      "t": 150154.46900000115,
      "d": 115.97925000000396,
      "v": 107
    },
    {
      "midi": 64,
      "hit": false,
      "t": 150154.46900000115,
      "d": 128.8658333333442,
      "v": 107
    },
    {
      "midi": 57,
      "hit": false,
      "t": 150463.74700000117,
      "d": 51.54633333333186,
      "v": 85
    },
    {
      "midi": 61,
      "hit": false,
      "t": 150463.74700000117,
      "d": 51.54633333333186,
      "v": 93
    },
    {
      "midi": 64,
      "hit": false,
      "t": 150463.74700000117,
      "d": 77.31950000001234,
      "v": 102
    },
    {
      "midi": 54,
      "hit": false,
      "t": 150618.3860000012,
      "d": 57.98962499998743,
      "v": 89
    },
    {
      "midi": 59,
      "hit": false,
      "t": 150618.3860000012,
      "d": 83.76279166666791,
      "v": 93
    },
    {
      "midi": 63,
      "hit": false,
      "t": 150618.3860000012,
      "d": 83.76279166666791,
      "v": 98
    },
    {
      "midi": 47,
      "hit": false,
      "t": 150618.3860000012,
      "d": 90.20608333332348,
      "v": 107
    },
    {
      "midi": 66,
      "hit": false,
      "t": 150618.3860000012,
      "d": 103.09266666666372,
      "v": 102
    },
    {
      "midi": 64,
      "hit": false,
      "t": 150927.66400000118,
      "d": 173.96887499999139,
      "v": 102
    },
    {
      "midi": 59,
      "hit": false,
      "t": 150927.66400000118,
      "d": 186.85545833333163,
      "v": 72
    },
    {
      "midi": 68,
      "hit": false,
      "t": 150927.66400000118,
      "d": 186.85545833333163,
      "v": 85
    },
    {
      "midi": 52,
      "hit": false,
      "t": 150927.66400000118,
      "d": 206.18533333332743,
      "v": 119
    },
    {
      "midi": 64,
      "hit": false,
      "t": 151236.94200000117,
      "d": 45.10304166667629,
      "v": 80
    },
    {
      "midi": 52,
      "hit": false,
      "t": 151236.94200000117,
      "d": 51.54633333333186,
      "v": 60
    },
    {
      "midi": 68,
      "hit": false,
      "t": 151236.94200000117,
      "d": 51.54633333333186,
      "v": 72
    },
    {
      "midi": 59,
      "hit": false,
      "t": 151236.94200000117,
      "d": 57.98962499998743,
      "v": 64
    },
    {
      "midi": 59,
      "hit": false,
      "t": 151391.58100000117,
      "d": 64.4329166666721,
      "v": 93
    },
    {
      "midi": 64,
      "hit": false,
      "t": 151391.58100000117,
      "d": 77.31950000001234,
      "v": 119
    },
    {
      "midi": 68,
      "hit": false,
      "t": 151391.58100000117,
      "d": 90.20608333335258,
      "v": 107
    },
    {
      "midi": 52,
      "hit": false,
      "t": 151700.8590000012,
      "d": 83.76279166666791,
      "v": 113
    },
    {
      "midi": 64,
      "hit": false,
      "t": 151855.4980000012,
      "d": 64.4329166666721,
      "v": 113
    },
    {
      "midi": 59,
      "hit": false,
      "t": 151855.4980000012,
      "d": 70.87620833332767,
      "v": 85
    },
    {
      "midi": 68,
      "hit": false,
      "t": 151855.4980000012,
      "d": 77.31949999998324,
      "v": 98
    },
    {
      "midi": 55,
      "hit": false,
      "t": 152164.77600000118,
      "d": 173.96887499999139,
      "v": 93
    },
    {
      "midi": 62,
      "hit": false,
      "t": 152164.77600000118,
      "d": 180.41216666664695,
      "v": 102
    },
    {
      "midi": 59,
      "hit": false,
      "t": 152164.77600000118,
      "d": 186.85545833330252,
      "v": 107
    },
    {
      "midi": 43,
      "hit": false,
      "t": 152164.77600000118,
      "d": 212.628624999983,
      "v": 107
    },
    {
      "midi": 59,
      "hit": false,
      "t": 152474.05400000117,
      "d": 57.98962499998743,
      "v": 89
    },
    {
      "midi": 55,
      "hit": false,
      "t": 152474.05400000117,
      "d": 64.432916666643,
      "v": 85
    },
    {
      "midi": 62,
      "hit": false,
      "t": 152474.05400000117,
      "d": 70.87620833329856,
      "v": 93
    },
    {
      "midi": 61,
      "hit": false,
      "t": 152628.69300000113,
      "d": 96.64937500000815,
      "v": 113
    },
    {
      "midi": 57,
      "hit": false,
      "t": 152628.69300000113,
      "d": 103.09266666666372,
      "v": 89
    },
    {
      "midi": 64,
      "hit": false,
      "t": 152628.69300000113,
      "d": 115.97925000000396,
      "v": 107
    },
    {
      "midi": 45,
      "hit": false,
      "t": 152628.69300000113,
      "d": 128.8658333333442,
      "v": 107
    },
    {
      "midi": 61,
      "hit": false,
      "t": 152937.97100000115,
      "d": 45.10304166667629,
      "v": 93
    },
    {
      "midi": 57,
      "hit": false,
      "t": 152937.97100000115,
      "d": 51.54633333333186,
      "v": 85
    },
    {
      "midi": 64,
      "hit": false,
      "t": 152937.97100000115,
      "d": 77.31950000001234,
      "v": 107
    },
    {
      "midi": 59,
      "hit": false,
      "t": 153092.61000000115,
      "d": 90.20608333332348,
      "v": 89
    },
    {
      "midi": 63,
      "hit": false,
      "t": 153092.61000000115,
      "d": 90.20608333332348,
      "v": 102
    },
    {
      "midi": 54,
      "hit": false,
      "t": 153092.61000000115,
      "d": 103.09266666663461,
      "v": 89
    },
    {
      "midi": 66,
      "hit": false,
      "t": 153092.61000000115,
      "d": 103.09266666663461,
      "v": 98
    },
    {
      "midi": 47,
      "hit": false,
      "t": 153092.61000000115,
      "d": 109.53595833329018,
      "v": 107
    },
    {
      "midi": 56,
      "hit": false,
      "t": 153401.8880000011,
      "d": 3923.9646249999932,
      "v": 93
    },
    {
      "midi": 59,
      "hit": false,
      "t": 153401.8880000011,
      "d": 4052.8304583333374,
      "v": 102
    },
    {
      "midi": 64,
      "hit": false,
      "t": 153401.8880000011,
      "d": 4297.6755416666565,
      "v": 107
    },
    {
      "midi": 40,
      "hit": false,
      "t": 153401.8880000011,
      "d": 4903.344958333328,
      "v": 113
    }
  ]
}