{
  "jsonPath": "Unknown/Unknown/Amy Allison/say-it-isnt-so.json",
  "path": "Unknown\\Unknown\\Amy Allison\\Say It Isnt So.mid",
  "name": "Say It Isnt So",
  "difficulty": "Advanced",
  "bpm": 74.000074000074,
  "notes": [
    {
      "midi": 29,
      "hit": false,
      "t": 67297.23,
      "d": 194.25656249999884,
      "v": 56
    },
    {
      "midi": 29,
      "hit": false,
      "t": 67297.23000000001,
      "d": 194.25656249999884,
      "v": 68
    },
    {
      "midi": 41,
      "hit": false,
      "t": 67297.23000000001,
      "d": 194.25656249999884,
      "v": 82
    },
    {
      "midi": 31,
      "hit": false,
      "t": 67499.9325,
      "d": 194.25656249999884,
      "v": 46
    },
    {
      "midi": 31,
      "hit": false,
      "t": 67499.93250000001,
      "d": 194.25656249999884,
      "v": 73
    },
    {
      "midi": 43,
      "hit": false,
      "t": 67499.93250000001,
      "d": 194.25656249999884,
      "v": 69
    },
    {
      "midi": 34,
      "hit": false,
      "t": 67702.635,
      "d": 194.25656249999884,
      "v": 52
    },
    {
      "midi": 34,
      "hit": false,
      "t": 67702.63500000001,
      "d": 194.25656249999884,
      "v": 66
    },
    {
      "midi": 46,
      "hit": false,
      "t": 67702.63500000001,
      "d": 194.25656249999884,
      "v": 71
    },
    {
      "midi": 31,
      "hit": false,
      "t": 67905.3375,
      "d": 194.25656249999884,
      "v": 52
    },
    {
      "midi": 31,
      "hit": false,
      "t": 67905.33750000001,
      "d": 194.25656249999884,
      "v": 82
    },
    {
      "midi": 43,
      "hit": false,
      "t": 67905.33750000001,
      "d": 194.25656249999884,
      "v": 62
    },
    {
      "midi": 34,
      "hit": false,
      "t": 68108.04000000001,
      "d": 802.3640624999971,
      "v": 82
    },
    {
      "midi": 46,
      "hit": false,
      "t": 68108.04000000001,
      "d": 802.3640624999971,
      "v": 62
    },
    {
      "midi": 46,
      "hit": false,
      "t": 68112.26296874999,
      "d": 899.4923437500111,
      "v": 51
    },
    {
      "midi": 58,
      "hit": false,
      "t": 68112.26296874999,
      "d": 937.4990625000064,
      "v": 62
    },
    {
      "midi": 65,
      "hit": false,
      "t": 68112.26296874999,
      "d": 941.7220312499994,
      "v": 61
    },
    {
      "midi": 62,
      "hit": false,
      "t": 68112.26296874999,
      "d": 954.390937499993,
      "v": 63
    },
    {
      "midi": 53,
      "hit": false,
      "t": 68112.26296874999,
      "d": 958.613906249986,
      "v": 56
    },
    {
      "midi": 45,
      "hit": false,
      "t": 72972.89999999998,
      "d": 574.3237499999959,
      "v": 64
    },
    {
      "midi": 53,
      "hit": false,
      "t": 72972.89999999998,
      "d": 726.3506249999919,
      "v": 64
    },
    {
      "midi": 60,
      "hit": false,
      "t": 72972.89999999998,
      "d": 726.3506249999919,
      "v": 73
    },
    {
      "midi": 65,
      "hit": false,
      "t": 72972.89999999998,
      "d": 747.465468749986,
      "v": 64
    },
    {
      "midi": 43,
      "hit": false,
      "t": 74586.07406249996,
      "d": 405.40499999999884,
      "v": 58
    },
    {
      "midi": 62,
      "hit": false,
      "t": 74586.07406249996,
      "d": 519.4251562499994,
      "v": 63
    },
    {
      "midi": 55,
      "hit": false,
      "t": 74586.07406249996,
      "d": 527.87109375,
      "v": 51
    },
    {
      "midi": 58,
      "hit": false,
      "t": 74586.07406249996,
      "d": 532.094062499993,
      "v": 56
    },
    {
      "midi": 65,
      "hit": false,
      "t": 74586.07406249996,
      "d": 544.7629687499866,
      "v": 58
    },
    {
      "midi": 53,
      "hit": false,
      "t": 76211.91703124995,
      "d": 515.2021874999773,
      "v": 38
    },
    {
      "midi": 57,
      "hit": false,
      "t": 76216.13999999994,
      "d": 447.63468750000175,
      "v": 63
    },
    {
      "midi": 62,
      "hit": false,
      "t": 76216.13999999994,
      "d": 477.1954687499965,
      "v": 47
    },
    {
      "midi": 65,
      "hit": false,
      "t": 76216.13999999994,
      "d": 481.4184374999895,
      "v": 61
    },
    {
      "midi": 50,
      "hit": false,
      "t": 76216.13999999994,
      "d": 510.9792187499843,
      "v": 52
    },
    {
      "midi": 51,
      "hit": false,
      "t": 77833.53703124993,
      "d": 506.7562499999767,
      "v": 52
    },
    {
      "midi": 39,
      "hit": false,
      "t": 77833.53703124993,
      "d": 595.4385937499756,
      "v": 66
    },
    {
      "midi": 55,
      "hit": false,
      "t": 77837.75999999992,
      "d": 498.3103124999907,
      "v": 55
    },
    {
      "midi": 58,
      "hit": false,
      "t": 77837.75999999992,
      "d": 498.3103124999907,
      "v": 52
    },
    {
      "midi": 63,
      "hit": false,
      "t": 77837.75999999992,
      "d": 527.8710937499854,
      "v": 55
    },
    {
      "midi": 53,
      "hit": false,
      "t": 79450.9340624999,
      "d": 548.9859374999796,
      "v": 42
    },
    {
      "midi": 60,
      "hit": false,
      "t": 79455.1570312499,
      "d": 515.2021874999919,
      "v": 52
    },
    {
      "midi": 65,
      "hit": false,
      "t": 79455.1570312499,
      "d": 515.2021874999919,
      "v": 40
    },
    {
      "midi": 41,
      "hit": false,
      "t": 79455.1570312499,
      "d": 519.4251562499849,
      "v": 57
    },
    {
      "midi": 57,
      "hit": false,
      "t": 79455.1570312499,
      "d": 519.4251562499849,
      "v": 41
    },
    {
      "midi": 58,
      "hit": false,
      "t": 81076.77703124988,
      "d": 456.0806249999878,
      "v": 45
    },
    {
      "midi": 65,
      "hit": false,
      "t": 81080.99999999987,
      "d": 371.6212499999965,
      "v": 53
    },
    {
      "midi": 63,
      "hit": false,
      "t": 81080.99999999987,
      "d": 413.8509374999994,
      "v": 45
    },
    {
      "midi": 51,
      "hit": false,
      "t": 81080.99999999987,
      "d": 430.7428125000006,
      "v": 52
    },
    {
      "midi": 55,
      "hit": false,
      "t": 81080.99999999987,
      "d": 460.30359374999534,
      "v": 46
    },
    {
      "midi": 39,
      "hit": false,
      "t": 81080.99999999987,
      "d": 506.75624999999127,
      "v": 61
    },
    {
      "midi": 75,
      "hit": false,
      "t": 81081,
      "d": 1203.546093750003,
      "v": 1
    },
    {
      "midi": 46,
      "hit": false,
      "t": 87567.47999999986,
      "d": 308.2767187499994,
      "v": 63
    },
    {
      "midi": 58,
      "hit": false,
      "t": 87567.47999999986,
      "d": 329.3915624999936,
      "v": 56
    },
    {
      "midi": 62,
      "hit": false,
      "t": 87567.47999999986,
      "d": 337.8374999999942,
      "v": 58
    },
    {
      "midi": 53,
      "hit": false,
      "t": 87567.47999999986,
      "d": 367.39828124998894,
      "v": 50
    },
    {
      "midi": 74,
      "hit": false,
      "t": 87567.48000000001,
      "d": 1203.546093750003,
      "v": 1
    },
    {
      "midi": 53,
      "hit": false,
      "t": 92229.63749999985,
      "d": 130.91203125000175,
      "v": 52
    },
    {
      "midi": 46,
      "hit": false,
      "t": 92229.63749999985,
      "d": 147.8039062500029,
      "v": 50
    },
    {
      "midi": 58,
      "hit": false,
      "t": 92229.63749999985,
      "d": 152.02687499999593,
      "v": 47
    },
    {
      "midi": 62,
      "hit": false,
      "t": 92229.63749999985,
      "d": 152.02687499999593,
      "v": 64
    },
    {
      "midi": 65,
      "hit": false,
      "t": 92229.63749999985,
      "d": 173.1417187499901,
      "v": 80
    },
    {
      "midi": 53,
      "hit": false,
      "t": 92436.56296874984,
      "d": 692.5668750000041,
      "v": 62
    },
    {
      "midi": 46,
      "hit": false,
      "t": 92436.56296874984,
      "d": 709.4587500000052,
      "v": 64
    },
    {
      "midi": 58,
      "hit": false,
      "t": 92436.56296874984,
      "d": 709.4587500000052,
      "v": 71
    },
    {
      "midi": 62,
      "hit": false,
      "t": 92436.56296874984,
      "d": 713.6817187499983,
      "v": 68
    },
    {
      "midi": 66,
      "hit": false,
      "t": 92436.56296874984,
      "d": 717.9046874999913,
      "v": 106
    },
    {
      "midi": 55,
      "hit": false,
      "t": 94045.51406249983,
      "d": 502.5332812499837,
      "v": 66
    },
    {
      "midi": 58,
      "hit": false,
      "t": 94049.73703124982,
      "d": 481.4184375000041,
      "v": 62
    },
    {
      "midi": 51,
      "hit": false,
      "t": 94049.73703124982,
      "d": 485.6414062499971,
      "v": 67
    },
    {
      "midi": 63,
      "hit": false,
      "t": 94049.73703124982,
      "d": 494.0873437499977,
      "v": 62
    },
    {
      "midi": 75,
      "hit": false,
      "t": 94053.96000000002,
      "d": 1203.546093750003,
      "v": 1
    },
    {
      "midi": 36,
      "hit": false,
      "t": 100540.43999999981,
      "d": 502.5332812500128,
      "v": 61
    },
    {
      "midi": 55,
      "hit": false,
      "t": 100540.43999999981,
      "d": 548.9859375000087,
      "v": 43
    },
    {
      "midi": 60,
      "hit": false,
      "t": 100540.43999999981,
      "d": 557.4318750000093,
      "v": 55
    },
    {
      "midi": 63,
      "hit": false,
      "t": 100540.43999999981,
      "d": 557.4318750000093,
      "v": 46
    },
    {
      "midi": 39,
      "hit": false,
      "t": 102153.61406249982,
      "d": 730.5735937499994,
      "v": 55
    },
    {
      "midi": 58,
      "hit": false,
      "t": 102153.61406249982,
      "d": 760.1343749999942,
      "v": 55
    },
    {
      "midi": 55,
      "hit": false,
      "t": 102153.61406249982,
      "d": 772.8032812499878,
      "v": 52
    },
    {
      "midi": 63,
      "hit": false,
      "t": 102153.61406249982,
      "d": 781.2492187499884,
      "v": 46
    },
    {
      "midi": 41,
      "hit": false,
      "t": 103779.45703124981,
      "d": 363.1753125000105,
      "v": 62
    },
    {
      "midi": 60,
      "hit": false,
      "t": 103779.45703124981,
      "d": 392.73609375000524,
      "v": 53
    },
    {
      "midi": 58,
      "hit": false,
      "t": 103779.45703124981,
      "d": 401.1820312500058,
      "v": 56
    },
    {
      "midi": 53,
      "hit": false,
      "t": 103779.45703124981,
      "d": 418.073906250007,
      "v": 46
    },
    {
      "midi": 57,
      "hit": false,
      "t": 105405.29999999981,
      "d": 1241.5528124999837,
      "v": 53
    },
    {
      "midi": 60,
      "hit": false,
      "t": 105405.29999999981,
      "d": 1245.7757812499767,
      "v": 53
    },
    {
      "midi": 53,
      "hit": false,
      "t": 105405.29999999981,
      "d": 1249.9987499999697,
      "v": 46
    },
    {
      "midi": 31,
      "hit": false,
      "t": 108644.31703124978,
      "d": 316.72265625,
      "v": 73
    },
    {
      "midi": 58,
      "hit": false,
      "t": 108644.31703124978,
      "d": 388.5131249999977,
      "v": 69
    },
    {
      "midi": 55,
      "hit": false,
      "t": 108644.31703124978,
      "d": 401.18203124999127,
      "v": 58
    },
    {
      "midi": 63,
      "hit": false,
      "t": 108644.31703124978,
      "d": 405.4049999999843,
      "v": 73
    },
    {
      "midi": 43,
      "hit": false,
      "t": 108648.53999999978,
      "d": 304.0537500000064,
      "v": 73
    },
    {
      "midi": 33,
      "hit": false,
      "t": 109459.34999999977,
      "d": 325.1685937500006,
      "v": 76
    },
    {
      "midi": 53,
      "hit": false,
      "t": 109459.34999999977,
      "d": 337.8374999999942,
      "v": 73
    },
    {
      "midi": 60,
      "hit": false,
      "t": 109459.34999999977,
      "d": 337.8374999999942,
      "v": 87
    },
    {
      "midi": 65,
      "hit": false,
      "t": 109459.34999999977,
      "d": 337.8374999999942,
      "v": 76
    },
    {
      "midi": 45,
      "hit": false,
      "t": 109459.34999999977,
      "d": 342.0604687499872,
      "v": 62
    },
    {
      "midi": 46,
      "hit": false,
      "t": 110270.15999999976,
      "d": 709.4587499999907,
      "v": 96
    },
    {
      "midi": 53,
      "hit": false,
      "t": 110270.15999999976,
      "d": 713.6817187499837,
      "v": 86
    },
    {
      "midi": 62,
      "hit": false,
      "t": 110270.15999999976,
      "d": 730.5735937499849,
      "v": 107
    },
    {
      "midi": 58,
      "hit": false,
      "t": 110270.15999999976,
      "d": 734.7965624999779,
      "v": 96
    },
    {
      "midi": 45,
      "hit": false,
      "t": 112702.58999999973,
      "d": 354.72937499999534,
      "v": 86
    },
    {
      "midi": 57,
      "hit": false,
      "t": 112702.58999999973,
      "d": 396.95906249999825,
      "v": 96
    },
    {
      "midi": 53,
      "hit": false,
      "t": 112702.58999999973,
      "d": 413.8509374999994,
      "v": 84
    },
    {
      "midi": 60,
      "hit": false,
      "t": 112702.58999999973,
      "d": 434.9657812499936,
      "v": 96
    },
    {
      "midi": 65,
      "hit": false,
      "t": 112702.58999999973,
      "d": 485.6414062499971,
      "v": 86
    },
    {
      "midi": 43,
      "hit": false,
      "t": 113513.39999999973,
      "d": 519.4251562499849,
      "v": 81
    },
    {
      "midi": 62,
      "hit": false,
      "t": 113513.39999999973,
      "d": 536.317031249986,
      "v": 102
    },
    {
      "midi": 55,
      "hit": false,
      "t": 113513.39999999973,
      "d": 561.6548437499878,
      "v": 83
    },
    {
      "midi": 58,
      "hit": false,
      "t": 113513.39999999973,
      "d": 565.8778124999808,
      "v": 88
    },
    {
      "midi": 67,
      "hit": false,
      "t": 116553.93749999971,
      "d": 202.70249999999942,
      "v": 96
    },
    {
      "midi": 38,
      "hit": false,
      "t": 116756.63999999971,
      "d": 709.4587499999907,
      "v": 84
    },
    {
      "midi": 50,
      "hit": false,
      "t": 116756.63999999971,
      "d": 717.9046874999913,
      "v": 87
    },
    {
      "midi": 57,
      "hit": false,
      "t": 116756.63999999971,
      "d": 760.1343749999942,
      "v": 93
    },
    {
      "midi": 62,
      "hit": false,
      "t": 116756.63999999971,
      "d": 777.0262499999953,
      "v": 96
    },
    {
      "midi": 65,
      "hit": false,
      "t": 116756.63999999971,
      "d": 802.3640624999971,
      "v": 91
    },
    {
      "midi": 58,
      "hit": false,
      "t": 119999.87999999971,
      "d": 1245.7757812499913,
      "v": 99
    },
    {
      "midi": 53,
      "hit": false,
      "t": 119999.87999999971,
      "d": 1410.4715624999953,
      "v": 88
    },
    {
      "midi": 60,
      "hit": false,
      "t": 119999.87999999971,
      "d": 1444.2553124999977,
      "v": 99
    },
    {
      "midi": 65,
      "hit": false,
      "t": 119999.87999999971,
      "d": 1461.1471874999988,
      "v": 91
    },
    {
      "midi": 48,
      "hit": false,
      "t": 119999.87999999971,
      "d": 2588.6798437499965,
      "v": 82
    },
    {
      "midi": 41,
      "hit": false,
      "t": 119999.87999999971,
      "d": 2609.7946874999907,
      "v": 80
    },
    {
      "midi": 53,
      "hit": false,
      "t": 121621.49999999971,
      "d": 1106.417812499989,
      "v": 73
    },
    {
      "midi": 57,
      "hit": false,
      "t": 121621.49999999971,
      "d": 1131.7556249999907,
      "v": 81
    },
    {
      "midi": 60,
      "hit": false,
      "t": 121621.49999999971,
      "d": 1157.0934374999924,
      "v": 78
    },
    {
      "midi": 65,
      "hit": false,
      "t": 121621.49999999971,
      "d": 1207.769062499996,
      "v": 62
    },
    {
      "midi": 58,
      "hit": false,
      "t": 123243.1199999997,
      "d": 2339.5246874999866,
      "v": 84
    },
    {
      "midi": 63,
      "hit": false,
      "t": 123243.1199999997,
      "d": 2385.9773437499825,
      "v": 87
    },
    {
      "midi": 55,
      "hit": false,
      "t": 123243.1199999997,
      "d": 2398.646249999976,
      "v": 86
    },
    {
      "midi": 39,
      "hit": false,
      "t": 123243.1199999997,
      "d": 2554.8960937499796,
      "v": 83
    },
    {
      "midi": 51,
      "hit": false,
      "t": 123243.1199999997,
      "d": 2601.3487499999756,
      "v": 99
    },
    {
      "midi": 63,
      "hit": false,
      "t": 126080.95499999968,
      "d": 278.71593750000466,
      "v": 83
    },
    {
      "midi": 58,
      "hit": false,
      "t": 126080.95499999968,
      "d": 287.16187500000524,
      "v": 65
    },
    {
      "midi": 55,
      "hit": false,
      "t": 126080.95499999968,
      "d": 295.60781249999127,
      "v": 45
    },
    {
      "midi": 65,
      "hit": false,
      "t": 126283.65749999968,
      "d": 88.68234374999884,
      "v": 77
    },
    {
      "midi": 55,
      "hit": false,
      "t": 126486.35999999967,
      "d": 1081.0800000000017,
      "v": 76
    },
    {
      "midi": 67,
      "hit": false,
      "t": 126486.35999999967,
      "d": 1093.7489062499953,
      "v": 96
    },
    {
      "midi": 58,
      "hit": false,
      "t": 126486.35999999967,
      "d": 1123.30968749999,
      "v": 78
    },
    {
      "midi": 63,
      "hit": false,
      "t": 126486.35999999967,
      "d": 1135.9785937499837,
      "v": 73
    },
    {
      "midi": 51,
      "hit": false,
      "t": 126486.35999999967,
      "d": 2457.7678124999657,
      "v": 82
    },
    {
      "midi": 39,
      "hit": false,
      "t": 126486.35999999967,
      "d": 2525.3353124999703,
      "v": 83
    },
    {
      "midi": 70,
      "hit": false,
      "t": 128107.97999999965,
      "d": 722.1276562499988,
      "v": 104
    },
    {
      "midi": 63,
      "hit": false,
      "t": 128107.97999999965,
      "d": 726.3506249999919,
      "v": 99
    },
    {
      "midi": 62,
      "hit": false,
      "t": 129729.59999999964,
      "d": 2968.7470312499936,
      "v": 99
    },
    {
      "midi": 58,
      "hit": false,
      "t": 129729.59999999964,
      "d": 3015.199687500004,
      "v": 93
    },
    {
      "midi": 46,
      "hit": false,
      "t": 129729.59999999964,
      "d": 3048.9834375000064,
      "v": 93
    },
    {
      "midi": 53,
      "hit": false,
      "t": 129729.59999999964,
      "d": 3078.5442187500157,
      "v": 86
    },
    {
      "midi": 65,
      "hit": false,
      "t": 132972.83999999965,
      "d": 857.262656249979,
      "v": 84
    },
    {
      "midi": 58,
      "hit": false,
      "t": 132972.83999999965,
      "d": 882.6004687499662,
      "v": 99
    },
    {
      "midi": 60,
      "hit": false,
      "t": 132972.83999999965,
      "d": 891.0464062499523,
      "v": 102
    },
    {
      "midi": 53,
      "hit": false,
      "t": 132972.83999999965,
      "d": 895.2693749999453,
      "v": 88
    },
    {
      "midi": 41,
      "hit": false,
      "t": 132972.83999999965,
      "d": 2221.281562499964,
      "v": 87
    },
    {
      "midi": 29,
      "hit": false,
      "t": 132972.83999999965,
      "d": 2255.0653124999662,
      "v": 82
    },
    {
      "midi": 57,
      "hit": false,
      "t": 134594.4599999996,
      "d": 675.6749999999884,
      "v": 96
    },
    {
      "midi": 65,
      "hit": false,
      "t": 134594.4599999996,
      "d": 675.6749999999884,
      "v": 81
    },
    {
      "midi": 53,
      "hit": false,
      "t": 134594.4599999996,
      "d": 684.1209374999744,
      "v": 86
    },
    {
      "midi": 60,
      "hit": false,
      "t": 134594.4599999996,
      "d": 684.1209374999744,
      "v": 87
    },
    {
      "midi": 79,
      "hit": false,
      "t": 135405.27000000002,
      "d": 392.7360937499907,
      "v": 1
    },
    {
      "midi": 77,
      "hit": false,
      "t": 135810.67500000002,
      "d": 595.4385937500047,
      "v": 1
    },
    {
      "midi": 65,
      "hit": false,
      "t": 136216.07999999958,
      "d": 1262.667656250007,
      "v": 84
    },
    {
      "midi": 62,
      "hit": false,
      "t": 136216.07999999958,
      "d": 1283.7825000000012,
      "v": 87
    },
    {
      "midi": 53,
      "hit": false,
      "t": 136216.07999999958,
      "d": 1309.1203124999884,
      "v": 87
    },
    {
      "midi": 58,
      "hit": false,
      "t": 136216.07999999958,
      "d": 1309.1203124999884,
      "v": 99
    },
    {
      "midi": 46,
      "hit": false,
      "t": 136216.07999999958,
      "d": 1385.133749999979,
      "v": 89
    },
    {
      "midi": 45,
      "hit": false,
      "t": 138648.50999999957,
      "d": 333.61453125000116,
      "v": 88
    },
    {
      "midi": 57,
      "hit": false,
      "t": 138648.50999999957,
      "d": 358.95234374998836,
      "v": 96
    },
    {
      "midi": 65,
      "hit": false,
      "t": 138648.50999999957,
      "d": 380.06718749998254,
      "v": 78
    },
    {
      "midi": 53,
      "hit": false,
      "t": 138648.50999999957,
      "d": 405.40499999996973,
      "v": 91
    },
    {
      "midi": 60,
      "hit": false,
      "t": 138648.50999999957,
      "d": 409.62796874996275,
      "v": 93
    },
    {
      "midi": 43,
      "hit": false,
      "t": 139459.31999999954,
      "d": 612.3304687500058,
      "v": 78
    },
    {
      "midi": 65,
      "hit": false,
      "t": 139459.31999999954,
      "d": 637.668281249993,
      "v": 83
    },
    {
      "midi": 62,
      "hit": false,
      "t": 139459.31999999954,
      "d": 650.3371875000012,
      "v": 86
    },
    {
      "midi": 58,
      "hit": false,
      "t": 139459.31999999954,
      "d": 654.5601562499942,
      "v": 89
    },
    {
      "midi": 53,
      "hit": false,
      "t": 139459.31999999954,
      "d": 701.0128125000047,
      "v": 86
    },
    {
      "midi": 44,
      "hit": false,
      "t": 142702.55999999953,
      "d": 1005.0665624999674,
      "v": 107
    },
    {
      "midi": 60,
      "hit": false,
      "t": 142702.55999999953,
      "d": 1195.1001562499732,
      "v": 99
    },
    {
      "midi": 51,
      "hit": false,
      "t": 142702.55999999953,
      "d": 1199.3231249999662,
      "v": 88
    },
    {
      "midi": 56,
      "hit": false,
      "t": 142702.55999999953,
      "d": 1207.7690624999523,
      "v": 91
    },
    {
      "midi": 63,
      "hit": false,
      "t": 142702.55999999953,
      "d": 1211.9920312499453,
      "v": 82
    },
    {
      "midi": 68,
      "hit": false,
      "t": 145945.79999999946,
      "d": 494.0873437499977,
      "v": 83
    },
    {
      "midi": 60,
      "hit": false,
      "t": 145945.79999999946,
      "d": 506.7562500000058,
      "v": 86
    },
    {
      "midi": 56,
      "hit": false,
      "t": 145945.79999999946,
      "d": 519.425156250014,
      "v": 82
    },
    {
      "midi": 63,
      "hit": false,
      "t": 145945.79999999946,
      "d": 941.722031250014,
      "v": 83
    },
    {
      "midi": 44,
      "hit": false,
      "t": 145945.79999999946,
      "d": 2542.227187500015,
      "v": 83
    },
    {
      "midi": 56,
      "hit": false,
      "t": 146553.90749999948,
      "d": 494.0873437499977,
      "v": 72
    },
    {
      "midi": 60,
      "hit": false,
      "t": 146553.90749999948,
      "d": 510.97921874999884,
      "v": 81
    },
    {
      "midi": 67,
      "hit": false,
      "t": 146553.90749999948,
      "d": 561.6548437500023,
      "v": 91
    },
    {
      "midi": 60,
      "hit": false,
      "t": 147162.0149999995,
      "d": 1165.539374999993,
      "v": 93
    },
    {
      "midi": 63,
      "hit": false,
      "t": 147162.0149999995,
      "d": 1203.5460937499884,
      "v": 80
    },
    {
      "midi": 56,
      "hit": false,
      "t": 147162.0149999995,
      "d": 1216.2149999999965,
      "v": 88
    },
    {
      "midi": 50,
      "hit": false,
      "t": 149189.03999999948,
      "d": 2398.6462499999907,
      "v": 76
    },
    {
      "midi": 43,
      "hit": false,
      "t": 149189.03999999948,
      "d": 2419.761093749985,
      "v": 82
    },
    {
      "midi": 58,
      "hit": false,
      "t": 149189.03999999948,
      "d": 2778.7134375000023,
      "v": 87
    },
    {
      "midi": 62,
      "hit": false,
      "t": 149189.03999999948,
      "d": 2795.6053125000035,
      "v": 96
    },
    {
      "midi": 55,
      "hit": false,
      "t": 149189.03999999948,
      "d": 2820.9431249999907,
      "v": 80
    },
    {
      "midi": 65,
      "hit": false,
      "t": 151621.46999999948,
      "d": 451.8576562500093,
      "v": 88
    },
    {
      "midi": 65,
      "hit": false,
      "t": 152432.27999999947,
      "d": 1005.0665624999965,
      "v": 91
    },
    {
      "midi": 60,
      "hit": false,
      "t": 152432.27999999947,
      "d": 1055.7421875,
      "v": 93
    },
    {
      "midi": 55,
      "hit": false,
      "t": 152432.27999999947,
      "d": 1072.6340625000012,
      "v": 83
    },
    {
      "midi": 48,
      "hit": false,
      "t": 152432.27999999947,
      "d": 2145.268124999973,
      "v": 80
    },
    {
      "midi": 36,
      "hit": false,
      "t": 152432.27999999947,
      "d": 2238.173437499965,
      "v": 83
    },
    {
      "midi": 55,
      "hit": false,
      "t": 154053.89999999947,
      "d": 650.3371874999721,
      "v": 86
    },
    {
      "midi": 64,
      "hit": false,
      "t": 154053.89999999947,
      "d": 667.2290624999732,
      "v": 87
    },
    {
      "midi": 60,
      "hit": false,
      "t": 154053.89999999947,
      "d": 684.1209374999744,
      "v": 93
    },
    {
      "midi": 65,
      "hit": false,
      "t": 155675.51999999944,
      "d": 1883.4440624999988,
      "v": 81
    },
    {
      "midi": 60,
      "hit": false,
      "t": 155675.51999999944,
      "d": 1967.9034375000047,
      "v": 89
    },
    {
      "midi": 56,
      "hit": false,
      "t": 155675.51999999944,
      "d": 2035.4709375000093,
      "v": 75
    },
    {
      "midi": 63,
      "hit": false,
      "t": 155675.51999999944,
      "d": 2060.8087499999965,
      "v": 75
    },
    {
      "midi": 48,
      "hit": false,
      "t": 155675.51999999944,
      "d": 2466.2137499999953,
      "v": 87
    },
    {
      "midi": 41,
      "hit": false,
      "t": 155675.51999999944,
      "d": 2499.9974999999977,
      "v": 86
    },
    {
      "midi": 59,
      "hit": false,
      "t": 158918.75999999943,
      "d": 979.7287499999802,
      "v": 91
    },
    {
      "midi": 68,
      "hit": false,
      "t": 158918.75999999943,
      "d": 1005.0665624999674,
      "v": 84
    },
    {
      "midi": 63,
      "hit": false,
      "t": 158918.75999999943,
      "d": 1038.8503124999697,
      "v": 83
    },
    {
      "midi": 56,
      "hit": false,
      "t": 158918.75999999943,
      "d": 1043.0732812499627,
      "v": 102
    },
    {
      "midi": 47,
      "hit": false,
      "t": 158918.75999999943,
      "d": 1085.302968749951,
      "v": 89
    },
    {
      "midi": 67,
      "hit": false,
      "t": 160540.3799999994,
      "d": 810.8099999999977,
      "v": 84
    },
    {
      "midi": 62,
      "hit": false,
      "t": 160540.3799999994,
      "d": 1127.5326562499977,
      "v": 93
    },
    {
      "midi": 46,
      "hit": false,
      "t": 160540.3799999994,
      "d": 1161.31640625,
      "v": 83
    },
    {
      "midi": 56,
      "hit": false,
      "t": 160540.3799999994,
      "d": 1190.8771875000093,
      "v": 96
    },
    {
      "midi": 65,
      "hit": false,
      "t": 161351.1899999994,
      "d": 337.8374999999942,
      "v": 77
    },
    {
      "midi": 55,
      "hit": false,
      "t": 162161.9999999994,
      "d": 2052.3628125000105,
      "v": 84
    },
    {
      "midi": 58,
      "hit": false,
      "t": 162161.9999999994,
      "d": 2081.92359375002,
      "v": 86
    },
    {
      "midi": 63,
      "hit": false,
      "t": 162161.9999999994,
      "d": 2090.369531250006,
      "v": 76
    },
    {
      "midi": 67,
      "hit": false,
      "t": 162161.9999999994,
      "d": 2098.815468749992,
      "v": 84
    },
    {
      "midi": 51,
      "hit": false,
      "t": 162161.9999999994,
      "d": 2508.4434374999837,
      "v": 83
    },
    {
      "midi": 39,
      "hit": false,
      "t": 162161.9999999994,
      "d": 2525.335312499985,
      "v": 87
    },
    {
      "midi": 65,
      "hit": false,
      "t": 165405.23999999938,
      "d": 1072.634062499972,
      "v": 99
    },
    {
      "midi": 61,
      "hit": false,
      "t": 165405.23999999938,
      "d": 1097.9718749999593,
      "v": 111
    },
    {
      "midi": 70,
      "hit": false,
      "t": 165405.23999999938,
      "d": 1178.208281249972,
      "v": 88
    },
    {
      "midi": 49,
      "hit": false,
      "t": 165405.23999999938,
      "d": 1190.8771874999802,
      "v": 91
    },
    {
      "midi": 68,
      "hit": false,
      "t": 167026.85999999935,
      "d": 793.9181249999674,
      "v": 102
    },
    {
      "midi": 58,
      "hit": false,
      "t": 167026.85999999935,
      "d": 1093.7489062499662,
      "v": 86
    },
    {
      "midi": 64,
      "hit": false,
      "t": 167026.85999999935,
      "d": 1102.1948437499523,
      "v": 88
    },
    {
      "midi": 48,
      "hit": false,
      "t": 167026.85999999935,
      "d": 1224.6609374999534,
      "v": 86
    },
    {
      "midi": 67,
      "hit": false,
      "t": 167837.6699999993,
      "d": 223.81734375000815,
      "v": 87
    },
    {
      "midi": 68,
      "hit": false,
      "t": 168648.4799999993,
      "d": 2787.1593750000175,
      "v": 84
    },
    {
      "midi": 63,
      "hit": false,
      "t": 168648.4799999993,
      "d": 2837.835000000021,
      "v": 76
    },
    {
      "midi": 56,
      "hit": false,
      "t": 168648.4799999993,
      "d": 2863.172812500008,
      "v": 62
    },
    {
      "midi": 60,
      "hit": false,
      "t": 168648.4799999993,
      "d": 2875.8417187500163,
      "v": 72
    },
    {
      "midi": 48,
      "hit": false,
      "t": 168648.4799999993,
      "d": 2884.2876562500023,
      "v": 82
    },
    {
      "midi": 41,
      "hit": false,
      "t": 168648.4799999993,
      "d": 2905.4024999999965,
      "v": 78
    },
    {
      "midi": 68,
      "hit": false,
      "t": 171891.7199999993,
      "d": 912.1612499999756,
      "v": 89
    },
    {
      "midi": 63,
      "hit": false,
      "t": 171891.7199999993,
      "d": 996.6206249999814,
      "v": 107
    },
    {
      "midi": 56,
      "hit": false,
      "t": 171891.7199999993,
      "d": 1017.7354687499756,
      "v": 99
    },
    {
      "midi": 47,
      "hit": false,
      "t": 171891.7199999993,
      "d": 1021.9584374999686,
      "v": 84
    },
    {
      "midi": 67,
      "hit": false,
      "t": 173513.33999999927,
      "d": 785.4721874999814,
      "v": 86
    },
    {
      "midi": 62,
      "hit": false,
      "t": 173513.33999999927,
      "d": 1178.208281249972,
      "v": 88
    },
    {
      "midi": 46,
      "hit": false,
      "t": 173513.33999999927,
      "d": 1220.4379687499604,
      "v": 82
    },
    {
      "midi": 56,
      "hit": false,
      "t": 174324.14999999924,
      "d": 16.891875000001164,
      "v": 63
    },
    {
      "midi": 65,
      "hit": false,
      "t": 174324.14999999924,
      "d": 320.945624999993,
      "v": 82
    },
    {
      "midi": 51,
      "hit": false,
      "t": 175134.95999999924,
      "d": 802.3640625000116,
      "v": 91
    },
    {
      "midi": 39,
      "hit": false,
      "t": 175134.95999999924,
      "d": 823.4789062500058,
      "v": 86
    },
    {
      "midi": 58,
      "hit": false,
      "t": 175134.95999999924,
      "d": 831.9248437499919,
      "v": 88
    },
    {
      "midi": 55,
      "hit": false,
      "t": 175134.95999999924,
      "d": 836.1478124999849,
      "v": 86
    },
    {
      "midi": 63,
      "hit": false,
      "t": 175134.95999999924,
      "d": 844.5937499999709,
      "v": 96
    },
    {
      "midi": 27,
      "hit": false,
      "t": 177567.3899999992,
      "d": 139.35796875000233,
      "v": 84
    },
    {
      "midi": 39,
      "hit": false,
      "t": 177567.3899999992,
      "d": 139.35796875000233,
      "v": 84
    },
    {
      "midi": 53,
      "hit": false,
      "t": 178378.1999999992,
      "d": 2373.3084375000035,
      "v": 111
    },
    {
      "midi": 60,
      "hit": false,
      "t": 178378.1999999992,
      "d": 2377.5314062499965,
      "v": 102
    },
    {
      "midi": 57,
      "hit": false,
      "t": 178378.1999999992,
      "d": 2381.7543749999895,
      "v": 91
    },
    {
      "midi": 65,
      "hit": false,
      "t": 178378.1999999992,
      "d": 2385.9773437499825,
      "v": 84
    },
    {
      "midi": 29,
      "hit": false,
      "t": 178378.1999999992,
      "d": 2390.2003124999756,
      "v": 102
    },
    {
      "midi": 41,
      "hit": false,
      "t": 178378.1999999992,
      "d": 2390.2003124999756,
      "v": 102
    },
    {
      "midi": 53,
      "hit": false,
      "t": 180810.62999999916,
      "d": 261.8240625000035,
      "v": 113
    },
    {
      "midi": 29,
      "hit": false,
      "t": 180810.62999999916,
      "d": 270.2699999999895,
      "v": 108
    },
    {
      "midi": 29,
      "hit": false,
      "t": 180810.63,
      "d": 194.25656249999884,
      "v": 68
    },
    {
      "midi": 41,
      "hit": false,
      "t": 180810.63,
      "d": 194.25656249999884,
      "v": 82
    },
    {
      "midi": 55,
      "hit": false,
      "t": 181013.33249999917,
      "d": 206.92546874997788,
      "v": 106
    },
    {
      "midi": 31,
      "hit": false,
      "t": 181013.33249999917,
      "d": 223.81734374997905,
      "v": 95
    },
    {
      "midi": 31,
      "hit": false,
      "t": 181013.3325,
      "d": 194.25656249999884,
      "v": 73
    },
    {
      "midi": 43,
      "hit": false,
      "t": 181013.3325,
      "d": 194.25656249999884,
      "v": 69
    },
    {
      "midi": 58,
      "hit": false,
      "t": 181216.03499999916,
      "d": 223.81734374997905,
      "v": 119
    },
    {
      "midi": 34,
      "hit": false,
      "t": 181216.03499999916,
      "d": 228.04031249997206,
      "v": 108
    },
    {
      "midi": 34,
      "hit": false,
      "t": 181216.03499999997,
      "d": 194.25656249999884,
      "v": 66
    },
    {
      "midi": 46,
      "hit": false,
      "t": 181216.03499999997,
      "d": 194.25656249999884,
      "v": 71
    },
    {
      "midi": 31,
      "hit": false,
      "t": 181418.73749999914,
      "d": 118.24312499997905,
      "v": 83
    },
    {
      "midi": 55,
      "hit": false,
      "t": 181418.73749999914,
      "d": 143.58093749996624,
      "v": 108
    },
    {
      "midi": 31,
      "hit": false,
      "t": 181418.73749999996,
      "d": 194.25656249999884,
      "v": 82
    },
    {
      "midi": 43,
      "hit": false,
      "t": 181418.73749999996,
      "d": 194.25656249999884,
      "v": 62
    },
    {
      "midi": 34,
      "hit": false,
      "t": 181621.43999999994,
      "d": 802.3640625000116,
      "v": 82
    },
    {
      "midi": 46,
      "hit": false,
      "t": 181621.43999999994,
      "d": 802.3640625000116,
      "v": 62
    },
    {
      "midi": 46,
      "hit": false,
      "t": 181625.66296874912,
      "d": 899.4923437499965,
      "v": 81
    },
    {
      "midi": 58,
      "hit": false,
      "t": 181625.66296874912,
      "d": 937.4990624999919,
      "v": 92
    },
    {
      "midi": 65,
      "hit": false,
      "t": 181625.66296874912,
      "d": 941.7220312499849,
      "v": 91
    },
    {
      "midi": 62,
      "hit": false,
      "t": 181625.66296874912,
      "d": 954.390937499993,
      "v": 93
    },
    {
      "midi": 53,
      "hit": false,
      "t": 181625.66296874912,
      "d": 958.613906249986,
      "v": 86
    },
    {
      "midi": 45,
      "hit": false,
      "t": 186486.29999999912,
      "d": 574.3237499999814,
      "v": 74
    },
    {
      "midi": 53,
      "hit": false,
      "t": 186486.29999999912,
      "d": 726.3506249999919,
      "v": 74
    },
    {
      "midi": 60,
      "hit": false,
      "t": 186486.29999999912,
      "d": 726.3506249999919,
      "v": 83
    },
    {
      "midi": 65,
      "hit": false,
      "t": 186486.29999999912,
      "d": 747.465468749986,
      "v": 74
    },
    {
      "midi": 43,
      "hit": false,
      "t": 188099.4740624991,
      "d": 405.40499999999884,
      "v": 68
    },
    {
      "midi": 62,
      "hit": false,
      "t": 188099.4740624991,
      "d": 519.4251562499849,
      "v": 73
    },
    {
      "midi": 55,
      "hit": false,
      "t": 188099.4740624991,
      "d": 527.8710937499709,
      "v": 61
    },
    {
      "midi": 58,
      "hit": false,
      "t": 188099.4740624991,
      "d": 532.0940624999639,
      "v": 66
    },
    {
      "midi": 65,
      "hit": false,
      "t": 188099.4740624991,
      "d": 544.7629687499721,
      "v": 68
    },
    {
      "midi": 53,
      "hit": false,
      "t": 189725.31703124905,
      "d": 515.2021874999919,
      "v": 48
    },
    {
      "midi": 57,
      "hit": false,
      "t": 189729.53999999905,
      "d": 447.6346874999872,
      "v": 73
    },
    {
      "midi": 62,
      "hit": false,
      "t": 189729.53999999905,
      "d": 477.1954687499965,
      "v": 57
    },
    {
      "midi": 65,
      "hit": false,
      "t": 189729.53999999905,
      "d": 481.4184374999895,
      "v": 71
    },
    {
      "midi": 50,
      "hit": false,
      "t": 189729.53999999905,
      "d": 510.97921874999884,
      "v": 62
    },
    {
      "midi": 51,
      "hit": false,
      "t": 191346.93703124905,
      "d": 506.7562499999767,
      "v": 62
    },
    {
      "midi": 39,
      "hit": false,
      "t": 191346.93703124905,
      "d": 595.4385937499756,
      "v": 76
    },
    {
      "midi": 55,
      "hit": false,
      "t": 191351.15999999904,
      "d": 498.3103124999907,
      "v": 65
    },
    {
      "midi": 58,
      "hit": false,
      "t": 191351.15999999904,
      "d": 498.3103124999907,
      "v": 62
    },
    {
      "midi": 63,
      "hit": false,
      "t": 191351.15999999904,
      "d": 527.8710937499709,
      "v": 65
    },
    {
      "midi": 53,
      "hit": false,
      "t": 192964.33406249902,
      "d": 548.9859374999651,
      "v": 52
    },
    {
      "midi": 60,
      "hit": false,
      "t": 192968.55703124902,
      "d": 515.2021874999919,
      "v": 62
    },
    {
      "midi": 65,
      "hit": false,
      "t": 192968.55703124902,
      "d": 515.2021874999919,
      "v": 50
    },
    {
      "midi": 41,
      "hit": false,
      "t": 192968.55703124902,
      "d": 519.4251562499849,
      "v": 67
    },
    {
      "midi": 57,
      "hit": false,
      "t": 192968.55703124902,
      "d": 519.4251562499849,
      "v": 51
    },
    {
      "midi": 58,
      "hit": false,
      "t": 194590.17703124898,
      "d": 456.0806250000023,
      "v": 55
    },
    {
      "midi": 65,
      "hit": false,
      "t": 194594.39999999898,
      "d": 371.6212500000256,
      "v": 63
    },
    {
      "midi": 63,
      "hit": false,
      "t": 194594.39999999898,
      "d": 413.85093750001397,
      "v": 55
    },
    {
      "midi": 51,
      "hit": false,
      "t": 194594.39999999898,
      "d": 430.74281250001513,
      "v": 62
    },
    {
      "midi": 55,
      "hit": false,
      "t": 194594.39999999898,
      "d": 460.30359374999534,
      "v": 56
    },
    {
      "midi": 39,
      "hit": false,
      "t": 194594.39999999898,
      "d": 506.7562500000058,
      "v": 71
    },
    {
      "midi": 75,
      "hit": false,
      "t": 194594.40000000002,
      "d": 1203.5460937499884,
      "v": 1
    },
    {
      "midi": 46,
      "hit": false,
      "t": 201080.879999999,
      "d": 308.27671875001397,
      "v": 73
    },
    {
      "midi": 58,
      "hit": false,
      "t": 201080.879999999,
      "d": 329.39156250000815,
      "v": 66
    },
    {
      "midi": 62,
      "hit": false,
      "t": 201080.879999999,
      "d": 337.8374999999942,
      "v": 68
    },
    {
      "midi": 53,
      "hit": false,
      "t": 201080.879999999,
      "d": 367.3982812500035,
      "v": 60
    },
    {
      "midi": 74,
      "hit": false,
      "t": 201080.88,
      "d": 1203.5460937499884,
      "v": 1
    },
    {
      "midi": 53,
      "hit": false,
      "t": 205743.037499999,
      "d": 130.9120312499872,
      "v": 62
    },
    {
      "midi": 46,
      "hit": false,
      "t": 205743.037499999,
      "d": 147.80390624998836,
      "v": 60
    },
    {
      "midi": 58,
      "hit": false,
      "t": 205743.037499999,
      "d": 152.02687499998137,
      "v": 57
    },
    {
      "midi": 62,
      "hit": false,
      "t": 205743.037499999,
      "d": 152.02687499998137,
      "v": 74
    },
    {
      "midi": 65,
      "hit": false,
      "t": 205743.037499999,
      "d": 173.14171874997555,
      "v": 90
    },
    {
      "midi": 53,
      "hit": false,
      "t": 205949.96296874897,
      "d": 692.5668749999895,
      "v": 72
    },
    {
      "midi": 46,
      "hit": false,
      "t": 205949.96296874897,
      "d": 709.4587499999907,
      "v": 74
    },
    {
      "midi": 58,
      "hit": false,
      "t": 205949.96296874897,
      "d": 709.4587499999907,
      "v": 81
    },
    {
      "midi": 62,
      "hit": false,
      "t": 205949.96296874897,
      "d": 713.6817187499837,
      "v": 78
    },
    {
      "midi": 66,
      "hit": false,
      "t": 205949.96296874897,
      "d": 717.9046874999767,
      "v": 116
    },
    {
      "midi": 55,
      "hit": false,
      "t": 207558.91406249895,
      "d": 502.5332812499837,
      "v": 76
    },
    {
      "midi": 58,
      "hit": false,
      "t": 207563.13703124895,
      "d": 481.4184375000186,
      "v": 72
    },
    {
      "midi": 51,
      "hit": false,
      "t": 207563.13703124895,
      "d": 485.64140625001164,
      "v": 77
    },
    {
      "midi": 63,
      "hit": false,
      "t": 207563.13703124895,
      "d": 494.0873437499977,
      "v": 72
    },
    {
      "midi": 75,
      "hit": false,
      "t": 207567.36,
      "d": 1203.5460937499884,
      "v": 1
    },
    {
      "midi": 36,
      "hit": false,
      "t": 214053.83999999895,
      "d": 502.5332812500128,
      "v": 71
    },
    {
      "midi": 55,
      "hit": false,
      "t": 214053.83999999895,
      "d": 548.9859375000233,
      "v": 53
    },
    {
      "midi": 60,
      "hit": false,
      "t": 214053.83999999895,
      "d": 557.4318750000093,
      "v": 65
    },
    {
      "midi": 63,
      "hit": false,
      "t": 214053.83999999895,
      "d": 557.4318750000093,
      "v": 56
    },
    {
      "midi": 39,
      "hit": false,
      "t": 215667.01406249896,
      "d": 730.573593750014,
      "v": 65
    },
    {
      "midi": 58,
      "hit": false,
      "t": 215667.01406249896,
      "d": 760.1343750000233,
      "v": 65
    },
    {
      "midi": 55,
      "hit": false,
      "t": 215667.01406249896,
      "d": 772.8032812500314,
      "v": 62
    },
    {
      "midi": 63,
      "hit": false,
      "t": 215667.01406249896,
      "d": 781.2492187500175,
      "v": 56
    },
    {
      "midi": 41,
      "hit": false,
      "t": 217292.85703124898,
      "d": 363.1753124999814,
      "v": 72
    },
    {
      "midi": 60,
      "hit": false,
      "t": 217292.85703124898,
      "d": 392.7360937499907,
      "v": 63
    },
    {
      "midi": 58,
      "hit": false,
      "t": 217292.85703124898,
      "d": 401.1820312499767,
      "v": 66
    },
    {
      "midi": 53,
      "hit": false,
      "t": 217292.85703124898,
      "d": 418.0739062499779,
      "v": 56
    },
    {
      "midi": 57,
      "hit": false,
      "t": 218918.69999999896,
      "d": 1241.5528125000128,
      "v": 63
    },
    {
      "midi": 60,
      "hit": false,
      "t": 218918.69999999896,
      "d": 1245.7757812500058,
      "v": 63
    },
    {
      "midi": 53,
      "hit": false,
      "t": 218918.69999999896,
      "d": 1249.9987499999988,
      "v": 56
    },
    {
      "midi": 31,
      "hit": false,
      "t": 222157.71703124896,
      "d": 316.7226562499709,
      "v": 83
    },
    {
      "midi": 58,
      "hit": false,
      "t": 222157.71703124896,
      "d": 388.51312499996857,
      "v": 79
    },
    {
      "midi": 55,
      "hit": false,
      "t": 222157.71703124896,
      "d": 401.1820312499767,
      "v": 68
    },
    {
      "midi": 63,
      "hit": false,
      "t": 222157.71703124896,
      "d": 405.40499999996973,
      "v": 83
    },
    {
      "midi": 43,
      "hit": false,
      "t": 222161.93999999895,
      "d": 304.05374999999185,
      "v": 83
    },
    {
      "midi": 33,
      "hit": false,
      "t": 222972.74999999892,
      "d": 325.16859374998603,
      "v": 86
    },
    {
      "midi": 53,
      "hit": false,
      "t": 222972.74999999892,
      "d": 337.8374999999942,
      "v": 83
    },
    {
      "midi": 60,
      "hit": false,
      "t": 222972.74999999892,
      "d": 337.8374999999942,
      "v": 97
    },
    {
      "midi": 65,
      "hit": false,
      "t": 222972.74999999892,
      "d": 337.8374999999942,
      "v": 86
    },
    {
      "midi": 45,
      "hit": false,
      "t": 222972.74999999892,
      "d": 342.0604687499872,
      "v": 72
    },
    {
      "midi": 46,
      "hit": false,
      "t": 223783.55999999892,
      "d": 709.4587499999907,
      "v": 106
    },
    {
      "midi": 53,
      "hit": false,
      "t": 223783.55999999892,
      "d": 713.6817187499837,
      "v": 96
    },
    {
      "midi": 62,
      "hit": false,
      "t": 223783.55999999892,
      "d": 730.5735937499849,
      "v": 117
    },
    {
      "midi": 58,
      "hit": false,
      "t": 223783.55999999892,
      "d": 734.7965624999779,
      "v": 106
    },
    {
      "midi": 45,
      "hit": false,
      "t": 226215.9899999989,
      "d": 354.72937499999534,
      "v": 96
    },
    {
      "midi": 57,
      "hit": false,
      "t": 226215.9899999989,
      "d": 396.9590624999837,
      "v": 106
    },
    {
      "midi": 53,
      "hit": false,
      "t": 226215.9899999989,
      "d": 413.85093749998487,
      "v": 94
    },
    {
      "midi": 60,
      "hit": false,
      "t": 226215.9899999989,
      "d": 434.96578124997905,
      "v": 106
    },
    {
      "midi": 65,
      "hit": false,
      "t": 226215.9899999989,
      "d": 485.64140624998254,
      "v": 96
    },
    {
      "midi": 43,
      "hit": false,
      "t": 227026.79999999888,
      "d": 519.425156250014,
      "v": 91
    },
    {
      "midi": 62,
      "hit": false,
      "t": 227026.79999999888,
      "d": 536.3170312500151,
      "v": 112
    },
    {
      "midi": 55,
      "hit": false,
      "t": 227026.79999999888,
      "d": 561.6548437500023,
      "v": 93
    },
    {
      "midi": 58,
      "hit": false,
      "t": 227026.79999999888,
      "d": 565.8778124999953,
      "v": 98
    },
    {
      "midi": 67,
      "hit": false,
      "t": 230067.3374999989,
      "d": 202.70250000001397,
      "v": 106
    },
    {
      "midi": 38,
      "hit": false,
      "t": 230270.0399999989,
      "d": 709.4587500000198,
      "v": 94
    },
    {
      "midi": 50,
      "hit": false,
      "t": 230270.0399999989,
      "d": 717.9046875000058,
      "v": 97
    },
    {
      "midi": 57,
      "hit": false,
      "t": 230270.0399999989,
      "d": 760.1343749999942,
      "v": 103
    },
    {
      "midi": 62,
      "hit": false,
      "t": 230270.0399999989,
      "d": 777.0262499999953,
      "v": 106
    },
    {
      "midi": 65,
      "hit": false,
      "t": 230270.0399999989,
      "d": 802.3640624999825,
      "v": 101
    },
    {
      "midi": 58,
      "hit": false,
      "t": 233513.2799999989,
      "d": 1245.7757812500058,
      "v": 109
    },
    {
      "midi": 53,
      "hit": false,
      "t": 233513.2799999989,
      "d": 1410.4715624999953,
      "v": 98
    },
    {
      "midi": 60,
      "hit": false,
      "t": 233513.2799999989,
      "d": 1444.2553124999977,
      "v": 109
    },
    {
      "midi": 65,
      "hit": false,
      "t": 233513.2799999989,
      "d": 1461.1471874999988,
      "v": 101
    },
    {
      "midi": 48,
      "hit": false,
      "t": 233513.2799999989,
      "d": 2588.6798437499965,
      "v": 92
    },
    {
      "midi": 41,
      "hit": false,
      "t": 233513.2799999989,
      "d": 2609.7946874999907,
      "v": 90
    },
    {
      "midi": 53,
      "hit": false,
      "t": 235134.8999999989,
      "d": 1106.4178125000035,
      "v": 83
    },
    {
      "midi": 57,
      "hit": false,
      "t": 235134.8999999989,
      "d": 1131.7556249999907,
      "v": 91
    },
    {
      "midi": 60,
      "hit": false,
      "t": 235134.8999999989,
      "d": 1157.0934374999779,
      "v": 88
    },
    {
      "midi": 65,
      "hit": false,
      "t": 235134.8999999989,
      "d": 1207.7690624999814,
      "v": 72
    },
    {
      "midi": 58,
      "hit": false,
      "t": 236756.51999999888,
      "d": 2339.524687500001,
      "v": 94
    },
    {
      "midi": 63,
      "hit": false,
      "t": 236756.51999999888,
      "d": 2385.9773437500116,
      "v": 97
    },
    {
      "midi": 55,
      "hit": false,
      "t": 236756.51999999888,
      "d": 2398.64625000002,
      "v": 96
    },
    {
      "midi": 39,
      "hit": false,
      "t": 236756.51999999888,
      "d": 2554.8960937500233,
      "v": 93
    },
    {
      "midi": 51,
      "hit": false,
      "t": 236756.51999999888,
      "d": 2601.3487500000338,
      "v": 109
    },
    {
      "midi": 63,
      "hit": false,
      "t": 239594.3549999989,
      "d": 278.71593750000466,
      "v": 93
    },
    {
      "midi": 58,
      "hit": false,
      "t": 239594.3549999989,
      "d": 287.1618749999907,
      "v": 75
    },
    {
      "midi": 55,
      "hit": false,
      "t": 239594.3549999989,
      "d": 295.6078124999767,
      "v": 55
    },
    {
      "midi": 65,
      "hit": false,
      "t": 239797.05749999892,
      "d": 88.68234374996973,
      "v": 87
    },
    {
      "midi": 55,
      "hit": false,
      "t": 239999.75999999887,
      "d": 1081.0800000000163,
      "v": 86
    },
    {
      "midi": 67,
      "hit": false,
      "t": 239999.75999999887,
      "d": 1093.7489062500244,
      "v": 106
    },
    {
      "midi": 58,
      "hit": false,
      "t": 239999.75999999887,
      "d": 1123.3096875000338,
      "v": 88
    },
    {
      "midi": 63,
      "hit": false,
      "t": 239999.75999999887,
      "d": 1135.978593750042,
      "v": 83
    },
    {
      "midi": 51,
      "hit": false,
      "t": 239999.75999999887,
      "d": 2457.7678125000384,
      "v": 92
    },
    {
      "midi": 39,
      "hit": false,
      "t": 239999.75999999887,
      "d": 2525.335312500043,
      "v": 93
    },
    {
      "midi": 70,
      "hit": false,
      "t": 241621.37999999893,
      "d": 722.1276562499988,
      "v": 114
    },
    {
      "midi": 63,
      "hit": false,
      "t": 241621.37999999893,
      "d": 726.3506249999919,
      "v": 109
    },
    {
      "midi": 62,
      "hit": false,
      "t": 243242.99999999892,
      "d": 2968.747031249979,
      "v": 109
    },
    {
      "midi": 58,
      "hit": false,
      "t": 243242.99999999892,
      "d": 3015.1996874999895,
      "v": 103
    },
    {
      "midi": 46,
      "hit": false,
      "t": 243242.99999999892,
      "d": 3048.983437499992,
      "v": 103
    },
    {
      "midi": 53,
      "hit": false,
      "t": 243242.99999999892,
      "d": 3078.544218750001,
      "v": 96
    },
    {
      "midi": 65,
      "hit": false,
      "t": 246486.2399999989,
      "d": 857.262656249979,
      "v": 94
    },
    {
      "midi": 58,
      "hit": false,
      "t": 246486.2399999989,
      "d": 882.6004687499662,
      "v": 109
    },
    {
      "midi": 60,
      "hit": false,
      "t": 246486.2399999989,
      "d": 891.0464062499523,
      "v": 112
    },
    {
      "midi": 53,
      "hit": false,
      "t": 246486.2399999989,
      "d": 895.2693749999453,
      "v": 98
    },
    {
      "midi": 41,
      "hit": false,
      "t": 246486.2399999989,
      "d": 2221.281562499964,
      "v": 97
    },
    {
      "midi": 29,
      "hit": false,
      "t": 246486.2399999989,
      "d": 2255.0653124999662,
      "v": 92
    },
    {
      "midi": 57,
      "hit": false,
      "t": 248107.85999999888,
      "d": 675.6749999999884,
      "v": 106
    },
    {
      "midi": 65,
      "hit": false,
      "t": 248107.85999999888,
      "d": 675.6749999999884,
      "v": 91
    },
    {
      "midi": 53,
      "hit": false,
      "t": 248107.85999999888,
      "d": 684.1209374999744,
      "v": 96
    },
    {
      "midi": 60,
      "hit": false,
      "t": 248107.85999999888,
      "d": 684.1209374999744,
      "v": 97
    },
    {
      "midi": 79,
      "hit": false,
      "t": 248918.66999999998,
      "d": 392.7360937499907,
      "v": 1
    },
    {
      "midi": 77,
      "hit": false,
      "t": 249324.07499999998,
      "d": 595.4385937500047,
      "v": 1
    },
    {
      "midi": 65,
      "hit": false,
      "t": 249729.47999999885,
      "d": 1262.667656250007,
      "v": 94
    },
    {
      "midi": 62,
      "hit": false,
      "t": 249729.47999999885,
      "d": 1283.7825000000012,
      "v": 97
    },
    {
      "midi": 53,
      "hit": false,
      "t": 249729.47999999885,
      "d": 1309.1203124999884,
      "v": 97
    },
    {
      "midi": 58,
      "hit": false,
      "t": 249729.47999999885,
      "d": 1309.1203124999884,
      "v": 109
    },
    {
      "midi": 46,
      "hit": false,
      "t": 249729.47999999885,
      "d": 1385.133749999979,
      "v": 99
    },
    {
      "midi": 45,
      "hit": false,
      "t": 252161.90999999884,
      "d": 333.61453125000116,
      "v": 98
    },
    {
      "midi": 57,
      "hit": false,
      "t": 252161.90999999884,
      "d": 358.95234374998836,
      "v": 106
    },
    {
      "midi": 65,
      "hit": false,
      "t": 252161.90999999884,
      "d": 380.06718749998254,
      "v": 88
    },
    {
      "midi": 53,
      "hit": false,
      "t": 252161.90999999884,
      "d": 405.40499999996973,
      "v": 101
    },
    {
      "midi": 60,
      "hit": false,
      "t": 252161.90999999884,
      "d": 409.62796874996275,
      "v": 103
    },
    {
      "midi": 43,
      "hit": false,
      "t": 252972.7199999988,
      "d": 612.3304687500058,
      "v": 88
    },
    {
      "midi": 65,
      "hit": false,
      "t": 252972.7199999988,
      "d": 637.668281249993,
      "v": 93
    },
    {
      "midi": 62,
      "hit": false,
      "t": 252972.7199999988,
      "d": 650.3371875000012,
      "v": 96
    },
    {
      "midi": 58,
      "hit": false,
      "t": 252972.7199999988,
      "d": 654.5601562499942,
      "v": 99
    },
    {
      "midi": 53,
      "hit": false,
      "t": 252972.7199999988,
      "d": 701.0128125000047,
      "v": 96
    },
    {
      "midi": 44,
      "hit": false,
      "t": 256215.9599999988,
      "d": 1005.0665624999674,
      "v": 117
    },
    {
      "midi": 60,
      "hit": false,
      "t": 256215.9599999988,
      "d": 1195.1001562499732,
      "v": 109
    },
    {
      "midi": 51,
      "hit": false,
      "t": 256215.9599999988,
      "d": 1199.3231249999662,
      "v": 98
    },
    {
      "midi": 56,
      "hit": false,
      "t": 256215.9599999988,
      "d": 1207.7690624999523,
      "v": 101
    },
    {
      "midi": 63,
      "hit": false,
      "t": 256215.9599999988,
      "d": 1211.9920312499453,
      "v": 92
    },
    {
      "midi": 68,
      "hit": false,
      "t": 259459.19999999873,
      "d": 494.0873437499977,
      "v": 93
    },
    {
      "midi": 60,
      "hit": false,
      "t": 259459.19999999873,
      "d": 506.7562500000058,
      "v": 96
    },
    {
      "midi": 56,
      "hit": false,
      "t": 259459.19999999873,
      "d": 519.425156250014,
      "v": 92
    },
    {
      "midi": 63,
      "hit": false,
      "t": 259459.19999999873,
      "d": 941.722031250014,
      "v": 93
    },
    {
      "midi": 44,
      "hit": false,
      "t": 259459.19999999873,
      "d": 2542.227187500015,
      "v": 93
    },
    {
      "midi": 56,
      "hit": false,
      "t": 260067.30749999874,
      "d": 494.0873437499977,
      "v": 82
    },
    {
      "midi": 60,
      "hit": false,
      "t": 260067.30749999874,
      "d": 510.97921874999884,
      "v": 91
    },
    {
      "midi": 67,
      "hit": false,
      "t": 260067.30749999874,
      "d": 561.6548437500023,
      "v": 101
    },
    {
      "midi": 60,
      "hit": false,
      "t": 260675.41499999876,
      "d": 1165.539374999993,
      "v": 103
    },
    {
      "midi": 63,
      "hit": false,
      "t": 260675.41499999876,
      "d": 1203.5460937499884,
      "v": 90
    },
    {
      "midi": 56,
      "hit": false,
      "t": 260675.41499999876,
      "d": 1216.2149999999965,
      "v": 98
    },
    {
      "midi": 50,
      "hit": false,
      "t": 262702.4399999987,
      "d": 2398.6462499999907,
      "v": 86
    },
    {
      "midi": 43,
      "hit": false,
      "t": 262702.4399999987,
      "d": 2419.761093750014,
      "v": 92
    },
    {
      "midi": 58,
      "hit": false,
      "t": 262702.4399999987,
      "d": 2778.7134375000023,
      "v": 97
    },
    {
      "midi": 62,
      "hit": false,
      "t": 262702.4399999987,
      "d": 2795.6053124999744,
      "v": 106
    },
    {
      "midi": 55,
      "hit": false,
      "t": 262702.4399999987,
      "d": 2820.9431249999907,
      "v": 90
    },
    {
      "midi": 65,
      "hit": false,
      "t": 265134.8699999987,
      "d": 451.8576562500093,
      "v": 98
    },
    {
      "midi": 65,
      "hit": false,
      "t": 265945.6799999987,
      "d": 1005.0665624999674,
      "v": 101
    },
    {
      "midi": 60,
      "hit": false,
      "t": 265945.6799999987,
      "d": 1055.7421874999418,
      "v": 103
    },
    {
      "midi": 55,
      "hit": false,
      "t": 265945.6799999987,
      "d": 1072.6340624999139,
      "v": 93
    },
    {
      "midi": 48,
      "hit": false,
      "t": 265945.6799999987,
      "d": 2145.268124999944,
      "v": 90
    },
    {
      "midi": 36,
      "hit": false,
      "t": 265945.6799999987,
      "d": 2238.173437499965,
      "v": 93
    },
    {
      "midi": 55,
      "hit": false,
      "t": 267567.29999999865,
      "d": 650.3371875000303,
      "v": 96
    },
    {
      "midi": 64,
      "hit": false,
      "t": 267567.29999999865,
      "d": 667.2290625000023,
      "v": 97
    },
    {
      "midi": 60,
      "hit": false,
      "t": 267567.29999999865,
      "d": 684.1209374999744,
      "v": 103
    },
    {
      "midi": 65,
      "hit": false,
      "t": 269188.91999999864,
      "d": 1883.444062500028,
      "v": 91
    },
    {
      "midi": 60,
      "hit": false,
      "t": 269188.91999999864,
      "d": 1967.9034375000047,
      "v": 99
    },
    {
      "midi": 56,
      "hit": false,
      "t": 269188.91999999864,
      "d": 2035.4709375000093,
      "v": 85
    },
    {
      "midi": 63,
      "hit": false,
      "t": 269188.91999999864,
      "d": 2060.8087500000256,
      "v": 85
    },
    {
      "midi": 48,
      "hit": false,
      "t": 269188.91999999864,
      "d": 2466.2137500000536,
      "v": 97
    },
    {
      "midi": 41,
      "hit": false,
      "t": 269188.91999999864,
      "d": 2499.997500000056,
      "v": 96
    },
    {
      "midi": 59,
      "hit": false,
      "t": 272432.1599999987,
      "d": 979.7287500000093,
      "v": 101
    },
    {
      "midi": 68,
      "hit": false,
      "t": 272432.1599999987,
      "d": 1005.0665625000256,
      "v": 94
    },
    {
      "midi": 63,
      "hit": false,
      "t": 272432.1599999987,
      "d": 1038.850312500028,
      "v": 93
    },
    {
      "midi": 56,
      "hit": false,
      "t": 272432.1599999987,
      "d": 1043.073281250021,
      "v": 112
    },
    {
      "midi": 47,
      "hit": false,
      "t": 272432.1599999987,
      "d": 1085.3029687500093,
      "v": 99
    },
    {
      "midi": 67,
      "hit": false,
      "t": 274053.7799999987,
      "d": 810.8099999999977,
      "v": 94
    },
    {
      "midi": 62,
      "hit": false,
      "t": 274053.7799999987,
      "d": 1127.5326562499977,
      "v": 103
    },
    {
      "midi": 46,
      "hit": false,
      "t": 274053.7799999987,
      "d": 1161.31640625,
      "v": 93
    },
    {
      "midi": 56,
      "hit": false,
      "t": 274053.7799999987,
      "d": 1190.8771875000093,
      "v": 106
    },
    {
      "midi": 65,
      "hit": false,
      "t": 274864.5899999987,
      "d": 337.8375000000233,
      "v": 87
    },
    {
      "midi": 55,
      "hit": false,
      "t": 275675.3999999987,
      "d": 2052.3628125000396,
      "v": 94
    },
    {
      "midi": 58,
      "hit": false,
      "t": 275675.3999999987,
      "d": 2081.923593750049,
      "v": 96
    },
    {
      "midi": 63,
      "hit": false,
      "t": 275675.3999999987,
      "d": 2090.369531250035,
      "v": 86
    },
    {
      "midi": 67,
      "hit": false,
      "t": 275675.3999999987,
      "d": 2098.815468750021,
      "v": 94
    },
    {
      "midi": 51,
      "hit": false,
      "t": 275675.3999999987,
      "d": 2508.443437500042,
      "v": 93
    },
    {
      "midi": 39,
      "hit": false,
      "t": 275675.3999999987,
      "d": 2525.335312500014,
      "v": 97
    },
    {
      "midi": 65,
      "hit": false,
      "t": 278918.6399999987,
      "d": 1072.6340625000303,
      "v": 109
    },
    {
      "midi": 61,
      "hit": false,
      "t": 278918.6399999987,
      "d": 1097.9718750000466,
      "v": 121
    },
    {
      "midi": 70,
      "hit": false,
      "t": 278918.6399999987,
      "d": 1178.2082812500303,
      "v": 98
    },
    {
      "midi": 49,
      "hit": false,
      "t": 278918.6399999987,
      "d": 1190.8771875000093,
      "v": 101
    },
    {
      "midi": 68,
      "hit": false,
      "t": 280540.25999999867,
      "d": 793.9181250000256,
      "v": 112
    },
    {
      "midi": 58,
      "hit": false,
      "t": 280540.25999999867,
      "d": 1093.7489062499953,
      "v": 96
    },
    {
      "midi": 64,
      "hit": false,
      "t": 280540.25999999867,
      "d": 1102.1948437499814,
      "v": 98
    },
    {
      "midi": 48,
      "hit": false,
      "t": 280540.25999999867,
      "d": 1224.6609374999534,
      "v": 96
    },
    {
      "midi": 67,
      "hit": false,
      "t": 281351.06999999867,
      "d": 223.81734374997905,
      "v": 97
    },
    {
      "midi": 68,
      "hit": false,
      "t": 282161.8799999986,
      "d": 2787.1593749999884,
      "v": 94
    },
    {
      "midi": 63,
      "hit": false,
      "t": 282161.8799999986,
      "d": 2837.8349999999627,
      "v": 86
    },
    {
      "midi": 56,
      "hit": false,
      "t": 282161.8799999986,
      "d": 2863.172812499979,
      "v": 72
    },
    {
      "midi": 60,
      "hit": false,
      "t": 282161.8799999986,
      "d": 2875.841718749958,
      "v": 82
    },
    {
      "midi": 48,
      "hit": false,
      "t": 282161.8799999986,
      "d": 2884.287656249944,
      "v": 92
    },
    {
      "midi": 41,
      "hit": false,
      "t": 282161.8799999986,
      "d": 2905.4024999999674,
      "v": 88
    },
    {
      "midi": 68,
      "hit": false,
      "t": 285405.1199999986,
      "d": 912.1612500000047,
      "v": 99
    },
    {
      "midi": 63,
      "hit": false,
      "t": 285405.1199999986,
      "d": 996.6206249999814,
      "v": 117
    },
    {
      "midi": 56,
      "hit": false,
      "t": 285405.1199999986,
      "d": 1017.7354687500047,
      "v": 109
    },
    {
      "midi": 47,
      "hit": false,
      "t": 285405.1199999986,
      "d": 1021.9584374999977,
      "v": 94
    },
    {
      "midi": 67,
      "hit": false,
      "t": 287026.7399999986,
      "d": 785.4721875000396,
      "v": 96
    },
    {
      "midi": 62,
      "hit": false,
      "t": 287026.7399999986,
      "d": 1178.2082812500303,
      "v": 98
    },
    {
      "midi": 46,
      "hit": false,
      "t": 287026.7399999986,
      "d": 1220.4379687500186,
      "v": 92
    },
    {
      "midi": 56,
      "hit": false,
      "t": 287837.54999999865,
      "d": 16.89187499997206,
      "v": 73
    },
    {
      "midi": 65,
      "hit": false,
      "t": 287837.54999999865,
      "d": 320.945624999993,
      "v": 92
    }
  ]
}