{
  "jsonPath": "Unknown/Unknown/The Crash/catfight.json",
  "path": "Unknown\\Unknown\\The Crash\\Catfight.mid",
  "name": "Catfight",
  "difficulty": "Advanced",
  "bpm": 71.99000778691918,
  "notes": [
    {
      "midi": 33,
      "hit": false,
      "t": 3306.014366666667,
      "d": 2778.1633333333343,
      "v": 100
    },
    {
      "midi": 85,
      "hit": false,
      "t": 3312.9597750000003,
      "d": 1319.6275833333339,
      "v": 121
    },
    {
      "midi": 45,
      "hit": false,
      "t": 3528.2674333333334,
      "d": 375.0520499999998,
      "v": 100
    },
    {
      "midi": 49,
      "hit": false,
      "t": 3722.7388666666666,
      "d": 270.87092500000017,
      "v": 101
    },
    {
      "midi": 52,
      "hit": false,
      "t": 3931.1011166666667,
      "d": 180.58061666666708,
      "v": 76
    },
    {
      "midi": 64,
      "hit": false,
      "t": 4118.627141666667,
      "d": 312.5433750000002,
      "v": 55
    },
    {
      "midi": 45,
      "hit": false,
      "t": 4146.408775,
      "d": 1618.280141666668,
      "v": 76
    },
    {
      "midi": 57,
      "hit": false,
      "t": 4340.880208333334,
      "d": 291.7071500000002,
      "v": 78
    },
    {
      "midi": 61,
      "hit": false,
      "t": 4549.242458333334,
      "d": 423.6699083333333,
      "v": 101
    },
    {
      "midi": 83,
      "hit": false,
      "t": 4618.696541666667,
      "d": 208.36225000000013,
      "v": 92
    },
    {
      "midi": 64,
      "hit": false,
      "t": 4771.495525000001,
      "d": 194.47143333333315,
      "v": 72
    },
    {
      "midi": 85,
      "hit": false,
      "t": 4806.222566666667,
      "d": 229.19847500000014,
      "v": 109
    },
    {
      "midi": 69,
      "hit": false,
      "t": 5007.639408333334,
      "d": 125.01735000000008,
      "v": 78
    },
    {
      "midi": 57,
      "hit": false,
      "t": 5007.639408333334,
      "d": 507.01480833333335,
      "v": 92
    },
    {
      "midi": 81,
      "hit": false,
      "t": 5007.639408333334,
      "d": 520.9056250000003,
      "v": 100
    },
    {
      "midi": 61,
      "hit": false,
      "t": 5424.363908333335,
      "d": 229.19847500000014,
      "v": 78
    },
    {
      "midi": 57,
      "hit": false,
      "t": 5632.726158333335,
      "d": 381.99745833333327,
      "v": 72
    },
    {
      "midi": 64,
      "hit": false,
      "t": 5646.616975000002,
      "d": 493.12399166666637,
      "v": 66
    },
    {
      "midi": 69,
      "hit": false,
      "t": 5799.415958333335,
      "d": 13.890816666666979,
      "v": 74
    },
    {
      "midi": 61,
      "hit": false,
      "t": 5841.088408333335,
      "d": 243.0892916666662,
      "v": 66
    },
    {
      "midi": 81,
      "hit": false,
      "t": 5848.033816666668,
      "d": 250.03470000000016,
      "v": 110
    },
    {
      "midi": 69,
      "hit": false,
      "t": 6021.669025000001,
      "d": 145.8535750000001,
      "v": 66
    },
    {
      "midi": 80,
      "hit": false,
      "t": 6056.396066666668,
      "d": 451.45154166666634,
      "v": 109
    },
    {
      "midi": 57,
      "hit": false,
      "t": 6202.249641666668,
      "d": 41.672450000000026,
      "v": 53
    },
    {
      "midi": 78,
      "hit": false,
      "t": 6250.867500000001,
      "d": 250.03470000000016,
      "v": 74
    },
    {
      "midi": 61,
      "hit": false,
      "t": 6445.338933333334,
      "d": 111.1265333333331,
      "v": 67
    },
    {
      "midi": 76,
      "hit": false,
      "t": 6445.338933333334,
      "d": 173.63520833333314,
      "v": 92
    },
    {
      "midi": 81,
      "hit": false,
      "t": 6646.755775000001,
      "d": 1271.0097250000008,
      "v": 110
    },
    {
      "midi": 30,
      "hit": false,
      "t": 6653.7011833333345,
      "d": 354.2158250000002,
      "v": 109
    },
    {
      "midi": 54,
      "hit": false,
      "t": 6862.063433333335,
      "d": 597.3051166666673,
      "v": 93
    },
    {
      "midi": 57,
      "hit": false,
      "t": 7070.425683333335,
      "d": 222.2530666666671,
      "v": 76
    },
    {
      "midi": 61,
      "hit": false,
      "t": 7278.787933333335,
      "d": 20.836225000000013,
      "v": 69
    },
    {
      "midi": 42,
      "hit": false,
      "t": 7473.259366666669,
      "d": 1951.6597416666627,
      "v": 78
    },
    {
      "midi": 61,
      "hit": false,
      "t": 7501.041000000002,
      "d": 48.61785833333306,
      "v": 64
    },
    {
      "midi": 66,
      "hit": false,
      "t": 7709.403250000002,
      "d": 277.8163333333332,
      "v": 71
    },
    {
      "midi": 57,
      "hit": false,
      "t": 7723.294066666669,
      "d": 472.28776666666636,
      "v": 66
    },
    {
      "midi": 69,
      "hit": false,
      "t": 7896.929275000002,
      "d": 493.12399166666546,
      "v": 76
    },
    {
      "midi": 80,
      "hit": false,
      "t": 7903.874683333335,
      "d": 229.19847500000014,
      "v": 116
    },
    {
      "midi": 81,
      "hit": false,
      "t": 8105.291525000002,
      "d": 229.19847499999923,
      "v": 100
    },
    {
      "midi": 73,
      "hit": false,
      "t": 8126.127750000002,
      "d": 208.36224999999922,
      "v": 69
    },
    {
      "midi": 66,
      "hit": false,
      "t": 8306.70836666667,
      "d": 41.67244999999821,
      "v": 32
    },
    {
      "midi": 78,
      "hit": false,
      "t": 8320.599183333336,
      "d": 437.56072499999755,
      "v": 109
    },
    {
      "midi": 73,
      "hit": false,
      "t": 8522.016025,
      "d": 229.19847499999923,
      "v": 85
    },
    {
      "midi": 69,
      "hit": false,
      "t": 8730.378275000001,
      "d": 229.19847499999742,
      "v": 66
    },
    {
      "midi": 66,
      "hit": false,
      "t": 8737.323683333334,
      "d": 20.836224999999104,
      "v": 93
    },
    {
      "midi": 61,
      "hit": false,
      "t": 8799.832358333333,
      "d": 513.9602166666664,
      "v": 51
    },
    {
      "midi": 66,
      "hit": false,
      "t": 8931.795116666666,
      "d": 104.18112499999916,
      "v": 109
    },
    {
      "midi": 57,
      "hit": false,
      "t": 8938.740525,
      "d": 437.56072499999937,
      "v": 52
    },
    {
      "midi": 78,
      "hit": false,
      "t": 9147.102775,
      "d": 263.9255166666662,
      "v": 121
    },
    {
      "midi": 54,
      "hit": false,
      "t": 9355.465025,
      "d": 97.23571666666612,
      "v": 78
    },
    {
      "midi": 76,
      "hit": false,
      "t": 9355.465025,
      "d": 229.19847499999923,
      "v": 86
    },
    {
      "midi": 57,
      "hit": false,
      "t": 9556.881866666665,
      "d": 145.85357499999918,
      "v": 62
    },
    {
      "midi": 74,
      "hit": false,
      "t": 9556.881866666665,
      "d": 277.8163333333305,
      "v": 86
    },
    {
      "midi": 61,
      "hit": false,
      "t": 9626.335949999999,
      "d": 62.50867499999913,
      "v": 3
    },
    {
      "midi": 54,
      "hit": false,
      "t": 9765.244116666663,
      "d": 76.3994916666652,
      "v": 85
    },
    {
      "midi": 73,
      "hit": false,
      "t": 9772.189524999996,
      "d": 131.9627583333313,
      "v": 85
    },
    {
      "midi": 38,
      "hit": false,
      "t": 9952.77014166666,
      "d": 1618.2801416666643,
      "v": 100
    },
    {
      "midi": 78,
      "hit": false,
      "t": 9973.60636666666,
      "d": 1243.228091666666,
      "v": 101
    },
    {
      "midi": 50,
      "hit": false,
      "t": 10175.023208333327,
      "d": 625.0867500000004,
      "v": 80
    },
    {
      "midi": 54,
      "hit": false,
      "t": 10404.221683333328,
      "d": 513.9602166666646,
      "v": 61
    },
    {
      "midi": 57,
      "hit": false,
      "t": 10640.36556666666,
      "d": 263.9255166666662,
      "v": 56
    },
    {
      "midi": 62,
      "hit": false,
      "t": 10855.673224999993,
      "d": 1534.9352416666643,
      "v": 100
    },
    {
      "midi": 50,
      "hit": false,
      "t": 10994.58139166666,
      "d": 472.28776666666636,
      "v": 92
    },
    {
      "midi": 57,
      "hit": false,
      "t": 11050.144658333325,
      "d": 507.01480833333335,
      "v": 62
    },
    {
      "midi": 76,
      "hit": false,
      "t": 11258.506908333326,
      "d": 312.5433749999993,
      "v": 72
    },
    {
      "midi": 75,
      "hit": false,
      "t": 11265.452316666659,
      "d": 34.72704166666699,
      "v": 44
    },
    {
      "midi": 54,
      "hit": false,
      "t": 11473.814566666659,
      "d": 437.5607250000012,
      "v": 61
    },
    {
      "midi": 78,
      "hit": false,
      "t": 11480.759974999992,
      "d": 229.19847500000105,
      "v": 78
    },
    {
      "midi": 38,
      "hit": false,
      "t": 11654.395183333325,
      "d": 541.7418500000022,
      "v": 78
    },
    {
      "midi": 74,
      "hit": false,
      "t": 11682.176816666659,
      "d": 541.7418500000022,
      "v": 100
    },
    {
      "midi": 57,
      "hit": false,
      "t": 11828.03039166666,
      "d": 402.8336833333342,
      "v": 30
    },
    {
      "midi": 50,
      "hit": false,
      "t": 12126.682949999993,
      "d": 437.56072499999755,
      "v": 78
    },
    {
      "midi": 57,
      "hit": false,
      "t": 12314.208974999992,
      "d": 180.58061666666435,
      "v": 38
    },
    {
      "midi": 54,
      "hit": false,
      "t": 12328.099791666658,
      "d": 201.41684166666528,
      "v": 36
    },
    {
      "midi": 74,
      "hit": false,
      "t": 12522.57122499999,
      "d": 250.03470000000016,
      "v": 115
    },
    {
      "midi": 62,
      "hit": false,
      "t": 12522.57122499999,
      "d": 479.2331750000012,
      "v": 105
    },
    {
      "midi": 73,
      "hit": false,
      "t": 12723.988066666658,
      "d": 381.99745833333327,
      "v": 101
    },
    {
      "midi": 54,
      "hit": false,
      "t": 12730.93347499999,
      "d": 194.47143333333406,
      "v": 67
    },
    {
      "midi": 71,
      "hit": false,
      "t": 12932.350316666658,
      "d": 250.03470000000016,
      "v": 63
    },
    {
      "midi": 74,
      "hit": false,
      "t": 13133.767158333325,
      "d": 173.63520833333314,
      "v": 63
    },
    {
      "midi": 64,
      "hit": false,
      "t": 13356.020224999991,
      "d": 493.12399166666364,
      "v": 92
    },
    {
      "midi": 74,
      "hit": false,
      "t": 13356.020224999991,
      "d": 583.4142999999967,
      "v": 110
    },
    {
      "midi": 28,
      "hit": false,
      "t": 13515.764616666656,
      "d": 2312.8209749999914,
      "v": 74
    },
    {
      "midi": 40,
      "hit": false,
      "t": 13786.635541666656,
      "d": 666.759199999995,
      "v": 56
    },
    {
      "midi": 52,
      "hit": false,
      "t": 13800.526358333322,
      "d": 770.9403249999959,
      "v": 62
    },
    {
      "midi": 73,
      "hit": false,
      "t": 13981.106974999988,
      "d": 111.12653333333219,
      "v": 74
    },
    {
      "midi": 69,
      "hit": false,
      "t": 13981.106974999988,
      "d": 125.01734999999826,
      "v": 70
    },
    {
      "midi": 64,
      "hit": false,
      "t": 13981.106974999988,
      "d": 131.9627583333313,
      "v": 74
    },
    {
      "midi": 56,
      "hit": false,
      "t": 14001.943199999987,
      "d": 632.0321583333298,
      "v": 63
    },
    {
      "midi": 69,
      "hit": false,
      "t": 14189.469224999986,
      "d": 493.12399166666364,
      "v": 76
    },
    {
      "midi": 73,
      "hit": false,
      "t": 14189.469224999986,
      "d": 513.9602166666627,
      "v": 101
    },
    {
      "midi": 59,
      "hit": false,
      "t": 14210.305449999985,
      "d": 437.56072499999755,
      "v": 78
    },
    {
      "midi": 64,
      "hit": false,
      "t": 14397.831474999984,
      "d": 284.76174166666533,
      "v": 83
    },
    {
      "midi": 40,
      "hit": false,
      "t": 14620.08454166665,
      "d": 1236.282683333331,
      "v": 76
    },
    {
      "midi": 69,
      "hit": false,
      "t": 14800.665158333315,
      "d": 90.29030833333309,
      "v": 41
    },
    {
      "midi": 71,
      "hit": false,
      "t": 14807.610566666648,
      "d": 159.74439166666707,
      "v": 92
    },
    {
      "midi": 64,
      "hit": false,
      "t": 14842.337608333315,
      "d": 76.39949166666702,
      "v": 56
    },
    {
      "midi": 68,
      "hit": false,
      "t": 15022.918224999981,
      "d": 1361.3000333333348,
      "v": 74
    },
    {
      "midi": 64,
      "hit": false,
      "t": 15036.809041666647,
      "d": 1250.1735000000008,
      "v": 89
    },
    {
      "midi": 71,
      "hit": false,
      "t": 15453.533541666648,
      "d": 868.1760416666675,
      "v": 30
    },
    {
      "midi": 76,
      "hit": false,
      "t": 15786.913141666648,
      "d": 111.12653333333401,
      "v": 5
    },
    {
      "midi": 76,
      "hit": false,
      "t": 15988.329983333315,
      "d": 409.7790916666672,
      "v": 37
    },
    {
      "midi": 45,
      "hit": false,
      "t": 16675.925408333314,
      "d": 1916.9326999999976,
      "v": 53
    },
    {
      "midi": 33,
      "hit": false,
      "t": 16675.925408333314,
      "d": 3215.7240583333296,
      "v": 52
    },
    {
      "midi": 57,
      "hit": false,
      "t": 16689.81622499998,
      "d": 916.7939000000006,
      "v": 80
    },
    {
      "midi": 61,
      "hit": false,
      "t": 16696.761633333314,
      "d": 750.1041000000005,
      "v": 93
    },
    {
      "midi": 59,
      "hit": false,
      "t": 16696.761633333314,
      "d": 2382.275058333329,
      "v": 92
    },
    {
      "midi": 64,
      "hit": false,
      "t": 16703.707041666647,
      "d": 659.8137916666674,
      "v": 92
    },
    {
      "midi": 64,
      "hit": false,
      "t": 17509.374408333315,
      "d": 708.4316499999986,
      "v": 86
    },
    {
      "midi": 61,
      "hit": false,
      "t": 17509.374408333315,
      "d": 750.1040999999968,
      "v": 63
    },
    {
      "midi": 57,
      "hit": false,
      "t": 17946.935133333314,
      "d": 520.9056249999994,
      "v": 63
    },
    {
      "midi": 61,
      "hit": false,
      "t": 18321.987183333313,
      "d": 722.3224666666647,
      "v": 64
    },
    {
      "midi": 64,
      "hit": false,
      "t": 18328.932591666646,
      "d": 604.2505249999995,
      "v": 92
    },
    {
      "midi": 45,
      "hit": false,
      "t": 18738.711683333313,
      "d": 673.7046083333298,
      "v": 80
    },
    {
      "midi": 57,
      "hit": false,
      "t": 18898.45607499998,
      "d": 159.74439166666343,
      "v": 10
    },
    {
      "midi": 62,
      "hit": false,
      "t": 19162.381591666643,
      "d": 645.9229750000013,
      "v": 115
    },
    {
      "midi": 57,
      "hit": false,
      "t": 19169.326999999976,
      "d": 722.3224666666683,
      "v": 89
    },
    {
      "midi": 59,
      "hit": false,
      "t": 19169.326999999976,
      "d": 750.1041000000005,
      "v": 92
    },
    {
      "midi": 45,
      "hit": false,
      "t": 19586.051499999976,
      "d": 333.3796000000002,
      "v": 76
    },
    {
      "midi": 61,
      "hit": false,
      "t": 19863.867833333312,
      "d": 48.61785833333124,
      "v": 41
    },
    {
      "midi": 45,
      "hit": false,
      "t": 19988.88518333331,
      "d": 1076.538291666664,
      "v": 61
    },
    {
      "midi": 61,
      "hit": false,
      "t": 19995.830591666643,
      "d": 805.6673666666647,
      "v": 101
    },
    {
      "midi": 57,
      "hit": false,
      "t": 19995.830591666643,
      "d": 1090.42910833333,
      "v": 92
    },
    {
      "midi": 64,
      "hit": false,
      "t": 20002.775999999976,
      "d": 715.3770583333317,
      "v": 100
    },
    {
      "midi": 59,
      "hit": false,
      "t": 20002.775999999976,
      "d": 805.6673666666647,
      "v": 96
    },
    {
      "midi": 33,
      "hit": false,
      "t": 20002.775999999976,
      "d": 3097.6521166666607,
      "v": 86
    },
    {
      "midi": 64,
      "hit": false,
      "t": 20877.897449999975,
      "d": 701.4862416666656,
      "v": 83
    },
    {
      "midi": 59,
      "hit": false,
      "t": 20884.842858333308,
      "d": 465.3423583333315,
      "v": 59
    },
    {
      "midi": 61,
      "hit": false,
      "t": 20884.842858333308,
      "d": 715.3770583333317,
      "v": 64
    },
    {
      "midi": 45,
      "hit": false,
      "t": 21246.00409166664,
      "d": 652.8683833333344,
      "v": 65
    },
    {
      "midi": 57,
      "hit": false,
      "t": 21266.84031666664,
      "d": 319.48878333333414,
      "v": 59
    },
    {
      "midi": 59,
      "hit": false,
      "t": 21502.984199999973,
      "d": 90.29030833333309,
      "v": 23
    },
    {
      "midi": 61,
      "hit": false,
      "t": 21676.619408333307,
      "d": 736.2132833333308,
      "v": 69
    },
    {
      "midi": 57,
      "hit": false,
      "t": 21683.56481666664,
      "d": 333.3796000000002,
      "v": 66
    },
    {
      "midi": 59,
      "hit": false,
      "t": 21683.56481666664,
      "d": 562.5780749999976,
      "v": 78
    },
    {
      "midi": 64,
      "hit": false,
      "t": 21683.56481666664,
      "d": 722.3224666666647,
      "v": 89
    },
    {
      "midi": 45,
      "hit": false,
      "t": 22044.726049999972,
      "d": 527.8510333333325,
      "v": 65
    },
    {
      "midi": 57,
      "hit": false,
      "t": 22260.033708333303,
      "d": 152.79898333333404,
      "v": 20
    },
    {
      "midi": 57,
      "hit": false,
      "t": 22496.177591666637,
      "d": 430.61531666666633,
      "v": 74
    },
    {
      "midi": 61,
      "hit": false,
      "t": 22496.177591666637,
      "d": 493.1239916666673,
      "v": 85
    },
    {
      "midi": 59,
      "hit": false,
      "t": 22503.12299999997,
      "d": 437.56072499999937,
      "v": 89
    },
    {
      "midi": 64,
      "hit": false,
      "t": 22503.12299999997,
      "d": 527.8510333333325,
      "v": 92
    },
    {
      "midi": 45,
      "hit": false,
      "t": 22885.120458333306,
      "d": 263.9255166666662,
      "v": 56
    },
    {
      "midi": 61,
      "hit": false,
      "t": 23315.735774999972,
      "d": 1472.4265666666652,
      "v": 71
    },
    {
      "midi": 64,
      "hit": false,
      "t": 23322.681183333305,
      "d": 701.4862416666692,
      "v": 96
    },
    {
      "midi": 59,
      "hit": false,
      "t": 23322.681183333305,
      "d": 743.1586916666674,
      "v": 92
    },
    {
      "midi": 56,
      "hit": false,
      "t": 23322.681183333305,
      "d": 1236.2826833333347,
      "v": 101
    },
    {
      "midi": 37,
      "hit": false,
      "t": 23336.57199999997,
      "d": 1597.4439166666634,
      "v": 85
    },
    {
      "midi": 64,
      "hit": false,
      "t": 24156.130183333305,
      "d": 451.45154166666543,
      "v": 83
    },
    {
      "midi": 59,
      "hit": false,
      "t": 24170.02099999997,
      "d": 513.9602166666664,
      "v": 42
    },
    {
      "midi": 49,
      "hit": false,
      "t": 24600.636316666638,
      "d": 1159.883191666664,
      "v": 67
    },
    {
      "midi": 56,
      "hit": false,
      "t": 24815.94397499997,
      "d": 527.8510333333325,
      "v": 109
    },
    {
      "midi": 64,
      "hit": false,
      "t": 25010.4154083333,
      "d": 604.2505249999995,
      "v": 105
    },
    {
      "midi": 37,
      "hit": false,
      "t": 25024.306224999968,
      "d": 687.5954249999995,
      "v": 85
    },
    {
      "midi": 54,
      "hit": false,
      "t": 25621.611341666634,
      "d": 576.4688916666673,
      "v": 93
    },
    {
      "midi": 37,
      "hit": false,
      "t": 25816.08277499997,
      "d": 750.1040999999968,
      "v": 74
    },
    {
      "midi": 63,
      "hit": false,
      "t": 25823.028183333303,
      "d": 402.83368333333055,
      "v": 101
    },
    {
      "midi": 49,
      "hit": false,
      "t": 25836.91899999997,
      "d": 90.29030833333309,
      "v": 63
    },
    {
      "midi": 52,
      "hit": false,
      "t": 26468.9511583333,
      "d": 625.0867499999986,
      "v": 89
    },
    {
      "midi": 37,
      "hit": false,
      "t": 26663.422591666633,
      "d": 1527.989833333333,
      "v": 93
    },
    {
      "midi": 61,
      "hit": false,
      "t": 26677.3134083333,
      "d": 784.8311416666656,
      "v": 116
    },
    {
      "midi": 49,
      "hit": false,
      "t": 27073.2016833333,
      "d": 673.7046083333298,
      "v": 85
    },
    {
      "midi": 61,
      "hit": false,
      "t": 27503.816999999963,
      "d": 750.1041000000005,
      "v": 64
    },
    {
      "midi": 49,
      "hit": false,
      "t": 27885.814458333298,
      "d": 361.16123333333235,
      "v": 74
    },
    {
      "midi": 52,
      "hit": false,
      "t": 27934.432316666633,
      "d": 277.8163333333323,
      "v": 39
    },
    {
      "midi": 49,
      "hit": false,
      "t": 28295.59354999996,
      "d": 625.0867499999986,
      "v": 39
    },
    {
      "midi": 37,
      "hit": false,
      "t": 28309.484366666627,
      "d": 1132.101558333332,
      "v": 69
    },
    {
      "midi": 61,
      "hit": false,
      "t": 28323.375183333294,
      "d": 729.2678750000014,
      "v": 78
    },
    {
      "midi": 52,
      "hit": false,
      "t": 28330.320591666627,
      "d": 312.54337499999747,
      "v": 78
    },
    {
      "midi": 52,
      "hit": false,
      "t": 28788.717541666625,
      "d": 291.707150000002,
      "v": 57
    },
    {
      "midi": 61,
      "hit": false,
      "t": 29177.660408333293,
      "d": 354.2158249999993,
      "v": 116
    },
    {
      "midi": 52,
      "hit": false,
      "t": 29191.55122499996,
      "d": 347.2704166666663,
      "v": 65
    },
    {
      "midi": 49,
      "hit": false,
      "t": 29434.640516666626,
      "d": 229.19847499999742,
      "v": 109
    },
    {
      "midi": 37,
      "hit": false,
      "t": 29469.36755833329,
      "d": 48.61785833333488,
      "v": 37
    },
    {
      "midi": 54,
      "hit": false,
      "t": 29643.002766666625,
      "d": 83.34489999999641,
      "v": 51
    },
    {
      "midi": 50,
      "hit": false,
      "t": 29684.675216666623,
      "d": 243.08929166666712,
      "v": 34
    },
    {
      "midi": 54,
      "hit": false,
      "t": 29795.801749999955,
      "d": 145.853575000001,
      "v": 32
    },
    {
      "midi": 57,
      "hit": false,
      "t": 29844.41960833329,
      "d": 83.34490000000005,
      "v": 28
    },
    {
      "midi": 38,
      "hit": false,
      "t": 29990.273183333287,
      "d": 2618.418941666663,
      "v": 96
    },
    {
      "midi": 50,
      "hit": false,
      "t": 30011.109408333286,
      "d": 208.36225000000195,
      "v": 86
    },
    {
      "midi": 54,
      "hit": false,
      "t": 30018.05481666662,
      "d": 256.98010833333683,
      "v": 85
    },
    {
      "midi": 62,
      "hit": false,
      "t": 30018.05481666662,
      "d": 284.76174166666897,
      "v": 110
    },
    {
      "midi": 57,
      "hit": false,
      "t": 30018.05481666662,
      "d": 291.707150000002,
      "v": 89
    },
    {
      "midi": 50,
      "hit": false,
      "t": 30413.94309166662,
      "d": 416.72450000000026,
      "v": 58
    },
    {
      "midi": 66,
      "hit": false,
      "t": 30712.595649999956,
      "d": 868.1760416666657,
      "v": 42
    },
    {
      "midi": 57,
      "hit": false,
      "t": 30726.48646666662,
      "d": 187.5260249999992,
      "v": 51
    },
    {
      "midi": 62,
      "hit": false,
      "t": 30726.48646666662,
      "d": 347.2704166666663,
      "v": 62
    },
    {
      "midi": 50,
      "hit": false,
      "t": 30907.067083333288,
      "d": 527.8510333333325,
      "v": 74
    },
    {
      "midi": 57,
      "hit": false,
      "t": 31080.70229166662,
      "d": 201.41684166666528,
      "v": 70
    },
    {
      "midi": 62,
      "hit": false,
      "t": 31261.282908333287,
      "d": 326.4341916666672,
      "v": 62
    },
    {
      "midi": 57,
      "hit": false,
      "t": 31427.972708333287,
      "d": 152.79898333333404,
      "v": 66
    },
    {
      "midi": 50,
      "hit": false,
      "t": 31664.11659166662,
      "d": 465.3423583333315,
      "v": 105
    },
    {
      "midi": 66,
      "hit": false,
      "t": 31664.11659166662,
      "d": 812.6127749999978,
      "v": 109
    },
    {
      "midi": 62,
      "hit": false,
      "t": 31671.061999999954,
      "d": 263.9255166666662,
      "v": 100
    },
    {
      "midi": 57,
      "hit": false,
      "t": 31678.007408333287,
      "d": 76.39949166666338,
      "v": 86
    },
    {
      "midi": 57,
      "hit": false,
      "t": 31886.369658333286,
      "d": 208.36225000000195,
      "v": 76
    },
    {
      "midi": 62,
      "hit": false,
      "t": 32108.622724999954,
      "d": 90.29030833333309,
      "v": 63
    },
    {
      "midi": 57,
      "hit": false,
      "t": 32198.913033333287,
      "d": 236.1438833333341,
      "v": 68
    },
    {
      "midi": 66,
      "hit": false,
      "t": 32525.34722499995,
      "d": 736.2132833333344,
      "v": 74
    },
    {
      "midi": 57,
      "hit": false,
      "t": 32532.292633333283,
      "d": 326.4341916666708,
      "v": 89
    },
    {
      "midi": 61,
      "hit": false,
      "t": 32532.292633333283,
      "d": 347.2704166666699,
      "v": 101
    },
    {
      "midi": 50,
      "hit": false,
      "t": 32539.238041666616,
      "d": 222.25306666666802,
      "v": 100
    },
    {
      "midi": 59,
      "hit": false,
      "t": 33011.52580833329,
      "d": 229.19847499999742,
      "v": 66
    },
    {
      "midi": 62,
      "hit": false,
      "t": 33115.70693333329,
      "d": 145.85357499999373,
      "v": 27
    },
    {
      "midi": 47,
      "hit": false,
      "t": 33317.12377499995,
      "d": 1576.6076916666643,
      "v": 96
    },
    {
      "midi": 59,
      "hit": false,
      "t": 33337.95999999995,
      "d": 840.3944083333336,
      "v": 100
    },
    {
      "midi": 62,
      "hit": false,
      "t": 33337.95999999995,
      "d": 1048.7566583333319,
      "v": 105
    },
    {
      "midi": 66,
      "hit": false,
      "t": 33344.90540833328,
      "d": 694.5408333333326,
      "v": 101
    },
    {
      "midi": 66,
      "hit": false,
      "t": 34150.57277499995,
      "d": 777.885733333329,
      "v": 78
    },
    {
      "midi": 59,
      "hit": false,
      "t": 34331.153391666616,
      "d": 263.9255166666626,
      "v": 89
    },
    {
      "midi": 62,
      "hit": false,
      "t": 34546.46104999995,
      "d": 97.23571666666248,
      "v": 53
    },
    {
      "midi": 59,
      "hit": false,
      "t": 34768.71411666661,
      "d": 125.0173500000019,
      "v": 65
    },
    {
      "midi": 62,
      "hit": false,
      "t": 34796.495749999944,
      "d": 131.96275833333493,
      "v": 74
    },
    {
      "midi": 66,
      "hit": false,
      "t": 34990.967183333276,
      "d": 791.7765500000023,
      "v": 85
    },
    {
      "midi": 62,
      "hit": false,
      "t": 34997.91259166661,
      "d": 520.9056249999994,
      "v": 100
    },
    {
      "midi": 59,
      "hit": false,
      "t": 35004.85799999994,
      "d": 76.39949166666338,
      "v": 86
    },
    {
      "midi": 45,
      "hit": false,
      "t": 35004.85799999994,
      "d": 868.1760416666657,
      "v": 100
    },
    {
      "midi": 57,
      "hit": false,
      "t": 35011.803408333275,
      "d": 20.836224999999104,
      "v": 70
    },
    {
      "midi": 62,
      "hit": false,
      "t": 35657.726383333276,
      "d": 138.90816666666797,
      "v": 54
    },
    {
      "midi": 59,
      "hit": false,
      "t": 35692.45342499994,
      "d": 104.1811250000028,
      "v": 3
    },
    {
      "midi": 66,
      "hit": false,
      "t": 35852.19781666661,
      "d": 687.5954249999995,
      "v": 101
    },
    {
      "midi": 62,
      "hit": false,
      "t": 35852.19781666661,
      "d": 701.4862416666656,
      "v": 89
    },
    {
      "midi": 59,
      "hit": false,
      "t": 35859.14322499994,
      "d": 83.34489999999641,
      "v": 61
    },
    {
      "midi": 59,
      "hit": false,
      "t": 36053.614658333274,
      "d": 145.853575000001,
      "v": 72
    },
    {
      "midi": 59,
      "hit": false,
      "t": 36380.04884999994,
      "d": 173.63520833333314,
      "v": 1
    },
    {
      "midi": 40,
      "hit": false,
      "t": 36637.02895833327,
      "d": 1479.3719749999873,
      "v": 96
    },
    {
      "midi": 52,
      "hit": false,
      "t": 37046.808049999934,
      "d": 1180.7194166666523,
      "v": 74
    },
    {
      "midi": 57,
      "hit": false,
      "t": 37255.17029999993,
      "d": 472.2877666666609,
      "v": 58
    },
    {
      "midi": 59,
      "hit": false,
      "t": 37456.5871416666,
      "d": 757.0495083333226,
      "v": 86
    },
    {
      "midi": 64,
      "hit": false,
      "t": 37658.00398333326,
      "d": 500.06939999999304,
      "v": 100
    },
    {
      "midi": 56,
      "hit": false,
      "t": 38040.001441666594,
      "d": 173.63520833332586,
      "v": 25
    },
    {
      "midi": 76,
      "hit": false,
      "t": 38109.455524999925,
      "d": 201.416841666658,
      "v": 115
    },
    {
      "midi": 40,
      "hit": false,
      "t": 38255.30909999992,
      "d": 1736.3520833333314,
      "v": 86
    },
    {
      "midi": 52,
      "hit": false,
      "t": 38283.09073333325,
      "d": 520.9056249999994,
      "v": 68
    },
    {
      "midi": 59,
      "hit": false,
      "t": 38290.036141666584,
      "d": 861.2306333333327,
      "v": 89
    },
    {
      "midi": 64,
      "hit": false,
      "t": 38290.036141666584,
      "d": 882.0668583333318,
      "v": 105
    },
    {
      "midi": 56,
      "hit": false,
      "t": 38296.98154999992,
      "d": 583.4142999999967,
      "v": 101
    },
    {
      "midi": 88,
      "hit": false,
      "t": 38303.92695833325,
      "d": 55.563266666664276,
      "v": 120
    },
    {
      "midi": 45,
      "hit": false,
      "t": 39977.770366666584,
      "d": 986.2479833333346,
      "v": 72
    },
    {
      "midi": 61,
      "hit": false,
      "t": 39984.71577499992,
      "d": 701.4862416666656,
      "v": 66
    },
    {
      "midi": 64,
      "hit": false,
      "t": 39991.66118333325,
      "d": 652.8683833333344,
      "v": 86
    },
    {
      "midi": 59,
      "hit": false,
      "t": 39991.66118333325,
      "d": 701.4862416666656,
      "v": 74
    },
    {
      "midi": 57,
      "hit": false,
      "t": 39998.60659166658,
      "d": 659.8137916666674,
      "v": 70
    },
    {
      "midi": 59,
      "hit": false,
      "t": 40790.383141666585,
      "d": 840.3944083333263,
      "v": 86
    },
    {
      "midi": 61,
      "hit": false,
      "t": 40797.32854999992,
      "d": 805.6673666666611,
      "v": 101
    },
    {
      "midi": 64,
      "hit": false,
      "t": 40804.27395833325,
      "d": 791.776549999995,
      "v": 100
    },
    {
      "midi": 57,
      "hit": false,
      "t": 40818.16477499992,
      "d": 326.4341916666672,
      "v": 50
    },
    {
      "midi": 45,
      "hit": false,
      "t": 41214.053049999915,
      "d": 395.8882749999975,
      "v": 74
    },
    {
      "midi": 45,
      "hit": false,
      "t": 41651.61377499991,
      "d": 937.6301249999888,
      "v": 78
    },
    {
      "midi": 57,
      "hit": false,
      "t": 41658.559183333244,
      "d": 770.9403249999959,
      "v": 56
    },
    {
      "midi": 59,
      "hit": false,
      "t": 41665.50459166658,
      "d": 97.23571666666248,
      "v": 53
    },
    {
      "midi": 61,
      "hit": false,
      "t": 41679.39540833324,
      "d": 41.67244999999821,
      "v": 64
    },
    {
      "midi": 62,
      "hit": false,
      "t": 41686.340816666576,
      "d": 750.1040999999968,
      "v": 110
    },
    {
      "midi": 59,
      "hit": false,
      "t": 42144.73776666657,
      "d": 298.65255833333504,
      "v": 1
    },
    {
      "midi": 57,
      "hit": false,
      "t": 42526.7352249999,
      "d": 194.47143333333224,
      "v": 78
    },
    {
      "midi": 64,
      "hit": false,
      "t": 42533.680633333235,
      "d": 666.7592000000004,
      "v": 110
    },
    {
      "midi": 59,
      "hit": false,
      "t": 42533.680633333235,
      "d": 736.2132833333308,
      "v": 86
    },
    {
      "midi": 45,
      "hit": false,
      "t": 42735.0974749999,
      "d": 465.34235833333514,
      "v": 78
    },
    {
      "midi": 57,
      "hit": false,
      "t": 42901.7872749999,
      "d": 347.2704166666663,
      "v": 62
    },
    {
      "midi": 61,
      "hit": false,
      "t": 43165.71279166657,
      "d": 83.34489999999641,
      "v": 43
    },
    {
      "midi": 45,
      "hit": false,
      "t": 43332.40259166656,
      "d": 923.7393083333227,
      "v": 86
    },
    {
      "midi": 57,
      "hit": false,
      "t": 43346.29340833323,
      "d": 743.1586916666638,
      "v": 89
    },
    {
      "midi": 64,
      "hit": false,
      "t": 43353.23881666656,
      "d": 687.5954249999995,
      "v": 110
    },
    {
      "midi": 59,
      "hit": false,
      "t": 43353.23881666656,
      "d": 763.9949166666629,
      "v": 105
    },
    {
      "midi": 61,
      "hit": false,
      "t": 43360.184224999895,
      "d": 750.1040999999968,
      "v": 116
    },
    {
      "midi": 49,
      "hit": false,
      "t": 44193.63322499989,
      "d": 69.45408333333035,
      "v": 53
    },
    {
      "midi": 64,
      "hit": false,
      "t": 44193.63322499989,
      "d": 312.54337499999383,
      "v": 96
    },
    {
      "midi": 61,
      "hit": false,
      "t": 44193.63322499989,
      "d": 375.05204999999114,
      "v": 71
    },
    {
      "midi": 59,
      "hit": false,
      "t": 44200.57863333322,
      "d": 354.21582499999204,
      "v": 74
    },
    {
      "midi": 57,
      "hit": false,
      "t": 44589.52149999988,
      "d": 326.4341916666599,
      "v": 89
    },
    {
      "midi": 64,
      "hit": false,
      "t": 44617.30313333321,
      "d": 236.14388333333045,
      "v": 46
    },
    {
      "midi": 59,
      "hit": false,
      "t": 44811.77456666654,
      "d": 131.96275833332766,
      "v": 58
    },
    {
      "midi": 61,
      "hit": false,
      "t": 44818.719974999876,
      "d": 131.96275833332766,
      "v": 29
    },
    {
      "midi": 33,
      "hit": false,
      "t": 44992.3551833332,
      "d": 1152.9377833333128,
      "v": 80
    },
    {
      "midi": 45,
      "hit": false,
      "t": 44999.300591666535,
      "d": 694.5408333333253,
      "v": 80
    },
    {
      "midi": 64,
      "hit": false,
      "t": 44999.300591666535,
      "d": 701.4862416666583,
      "v": 92
    },
    {
      "midi": 57,
      "hit": false,
      "t": 45006.24599999987,
      "d": 215.30765833333135,
      "v": 70
    },
    {
      "midi": 59,
      "hit": false,
      "t": 45006.24599999987,
      "d": 444.50613333332876,
      "v": 72
    },
    {
      "midi": 61,
      "hit": false,
      "t": 45006.24599999987,
      "d": 472.2877666666609,
      "v": 64
    },
    {
      "midi": 57,
      "hit": false,
      "t": 45422.970499999865,
      "d": 312.54337499999383,
      "v": 74
    },
    {
      "midi": 61,
      "hit": false,
      "t": 45652.16897499986,
      "d": 76.39949166666338,
      "v": 17
    },
    {
      "midi": 59,
      "hit": false,
      "t": 45659.114383333195,
      "d": 62.50867499999731,
      "v": 40
    },
    {
      "midi": 61,
      "hit": false,
      "t": 45811.91336666652,
      "d": 493.1239916666527,
      "v": 85
    },
    {
      "midi": 59,
      "hit": false,
      "t": 45818.858774999855,
      "d": 368.1066416666581,
      "v": 92
    },
    {
      "midi": 64,
      "hit": false,
      "t": 45818.858774999855,
      "d": 423.6699083333224,
      "v": 105
    },
    {
      "midi": 57,
      "hit": false,
      "t": 45832.74959166652,
      "d": 76.39949166666338,
      "v": 59
    },
    {
      "midi": 57,
      "hit": false,
      "t": 46027.22102499985,
      "d": 145.85357499999373,
      "v": 62
    },
    {
      "midi": 45,
      "hit": false,
      "t": 46082.78429166652,
      "d": 180.5806166666589,
      "v": 78
    },
    {
      "midi": 56,
      "hit": false,
      "t": 46430.05470833318,
      "d": 76.39949166666338,
      "v": 22
    },
    {
      "midi": 37,
      "hit": false,
      "t": 46645.36236666651,
      "d": 1562.7168749999837,
      "v": 85
    },
    {
      "midi": 56,
      "hit": false,
      "t": 46652.30777499984,
      "d": 902.9030833333236,
      "v": 109
    },
    {
      "midi": 64,
      "hit": false,
      "t": 46652.30777499984,
      "d": 951.5209416666548,
      "v": 96
    },
    {
      "midi": 59,
      "hit": false,
      "t": 46659.253183333174,
      "d": 909.8484916666566,
      "v": 96
    },
    {
      "midi": 61,
      "hit": false,
      "t": 46659.253183333174,
      "d": 937.6301249999888,
      "v": 71
    },
    {
      "midi": 49,
      "hit": false,
      "t": 46680.08940833317,
      "d": 625.0867499999949,
      "v": 74
    },
    {
      "midi": 49,
      "hit": false,
      "t": 47527.42922499983,
      "d": 722.3224666666574,
      "v": 101
    },
    {
      "midi": 68,
      "hit": false,
      "t": 48131.67974999983,
      "d": 229.19847499999014,
      "v": 101
    },
    {
      "midi": 76,
      "hit": false,
      "t": 48326.15118333315,
      "d": 500.0694000000003,
      "v": 105
    },
    {
      "midi": 37,
      "hit": false,
      "t": 48333.096591666486,
      "d": 1527.9898333333258,
      "v": 93
    },
    {
      "midi": 66,
      "hit": false,
      "t": 48937.34711666649,
      "d": 215.30765833333135,
      "v": 101
    },
    {
      "midi": 75,
      "hit": false,
      "t": 49131.81854999982,
      "d": 263.9255166666626,
      "v": 116
    },
    {
      "midi": 49,
      "hit": false,
      "t": 49159.600183333154,
      "d": 632.032158333328,
      "v": 109
    },
    {
      "midi": 64,
      "hit": false,
      "t": 49777.741524999816,
      "d": 208.3622499999983,
      "v": 96
    },
    {
      "midi": 37,
      "hit": false,
      "t": 49958.32214166648,
      "d": 2701.7638416666523,
      "v": 101
    },
    {
      "midi": 73,
      "hit": false,
      "t": 49972.21295833315,
      "d": 298.65255833333504,
      "v": 121
    },
    {
      "midi": 49,
      "hit": false,
      "t": 50381.99204999982,
      "d": 222.25306666666438,
      "v": 93
    },
    {
      "midi": 49,
      "hit": false,
      "t": 50632.026749999815,
      "d": 791.7765500000023,
      "v": 63
    },
    {
      "midi": 52,
      "hit": false,
      "t": 50791.77114166648,
      "d": 326.4341916666672,
      "v": 86
    },
    {
      "midi": 56,
      "hit": false,
      "t": 51069.58747499982,
      "d": 83.34489999999641,
      "v": 46
    },
    {
      "midi": 52,
      "hit": false,
      "t": 51159.87778333315,
      "d": 354.2158249999993,
      "v": 36
    },
    {
      "midi": 56,
      "hit": false,
      "t": 51430.74870833315,
      "d": 131.96275833332766,
      "v": 74
    },
    {
      "midi": 49,
      "hit": false,
      "t": 51653.001774999815,
      "d": 680.6500166666592,
      "v": 121
    },
    {
      "midi": 61,
      "hit": false,
      "t": 51840.527799999814,
      "d": 673.7046083333189,
      "v": 109
    },
    {
      "midi": 64,
      "hit": false,
      "t": 52048.89004999981,
      "d": 687.595424999985,
      "v": 86
    },
    {
      "midi": 68,
      "hit": false,
      "t": 52250.30689166648,
      "d": 152.79898333332676,
      "v": 61
    },
    {
      "midi": 68,
      "hit": false,
      "t": 52437.83291666647,
      "d": 305.5979666666608,
      "v": 57
    },
    {
      "midi": 73,
      "hit": false,
      "t": 52444.7783249998,
      "d": 361.1612333333251,
      "v": 101
    },
    {
      "midi": 49,
      "hit": false,
      "t": 52465.6145499998,
      "d": 263.9255166666626,
      "v": 93
    },
    {
      "midi": 61,
      "hit": false,
      "t": 52653.1405749998,
      "d": 180.5806166666589,
      "v": 85
    },
    {
      "midi": 62,
      "hit": false,
      "t": 52903.17527499979,
      "d": 312.5433750000011,
      "v": 68
    },
    {
      "midi": 66,
      "hit": false,
      "t": 52986.52017499979,
      "d": 256.98010833333683,
      "v": 13
    },
    {
      "midi": 69,
      "hit": false,
      "t": 53097.64670833312,
      "d": 138.90816666666797,
      "v": 28
    },
    {
      "midi": 38,
      "hit": false,
      "t": 53285.17273333312,
      "d": 1541.8806499999919,
      "v": 86
    },
    {
      "midi": 50,
      "hit": false,
      "t": 53299.06354999979,
      "d": 333.3796000000002,
      "v": 78
    },
    {
      "midi": 66,
      "hit": false,
      "t": 53299.06354999979,
      "d": 402.83368333333055,
      "v": 71
    },
    {
      "midi": 69,
      "hit": false,
      "t": 53306.00895833312,
      "d": 368.1066416666654,
      "v": 78
    },
    {
      "midi": 62,
      "hit": false,
      "t": 53306.00895833312,
      "d": 402.83368333333055,
      "v": 89
    },
    {
      "midi": 74,
      "hit": false,
      "t": 53319.89977499979,
      "d": 277.81633333333593,
      "v": 105
    },
    {
      "midi": 50,
      "hit": false,
      "t": 53736.624274999784,
      "d": 548.6872583333316,
      "v": 83
    },
    {
      "midi": 57,
      "hit": false,
      "t": 53958.87734166645,
      "d": 62.50867499999731,
      "v": 8
    },
    {
      "midi": 62,
      "hit": false,
      "t": 54118.621733333115,
      "d": 645.9229750000013,
      "v": 78
    },
    {
      "midi": 66,
      "hit": false,
      "t": 54118.621733333115,
      "d": 736.2132833333308,
      "v": 64
    },
    {
      "midi": 57,
      "hit": false,
      "t": 54125.56714166645,
      "d": 284.76174166666897,
      "v": 61
    },
    {
      "midi": 50,
      "hit": false,
      "t": 54556.18245833312,
      "d": 298.65255833332776,
      "v": 92
    },
    {
      "midi": 57,
      "hit": false,
      "t": 54743.70848333312,
      "d": 111.12653333332855,
      "v": 63
    },
    {
      "midi": 62,
      "hit": false,
      "t": 54820.10797499978,
      "d": 41.67244999999821,
      "v": 22
    },
    {
      "midi": 66,
      "hit": false,
      "t": 54931.23450833311,
      "d": 340.32500833332597,
      "v": 116
    },
    {
      "midi": 62,
      "hit": false,
      "t": 54938.17991666644,
      "d": 291.7071499999947,
      "v": 100
    },
    {
      "midi": 57,
      "hit": false,
      "t": 54945.125324999775,
      "d": 104.18112499999552,
      "v": 96
    },
    {
      "midi": 50,
      "hit": false,
      "t": 54945.125324999775,
      "d": 805.6673666666538,
      "v": 100
    },
    {
      "midi": 69,
      "hit": false,
      "t": 54952.07073333311,
      "d": 76.39949166666338,
      "v": 78
    },
    {
      "midi": 38,
      "hit": false,
      "t": 54952.07073333311,
      "d": 402.8336833333233,
      "v": 92
    },
    {
      "midi": 57,
      "hit": false,
      "t": 55167.37839166644,
      "d": 208.36224999999104,
      "v": 89
    },
    {
      "midi": 62,
      "hit": false,
      "t": 55299.34114999977,
      "d": 222.25306666666438,
      "v": 61
    },
    {
      "midi": 66,
      "hit": false,
      "t": 55361.849824999765,
      "d": 347.2704166666663,
      "v": 67
    },
    {
      "midi": 57,
      "hit": false,
      "t": 55528.539624999765,
      "d": 201.41684166666528,
      "v": 74
    },
    {
      "midi": 61,
      "hit": false,
      "t": 55695.229424999765,
      "d": 13.890816666666069,
      "v": 50
    },
    {
      "midi": 61,
      "hit": false,
      "t": 55785.519733333094,
      "d": 500.0694000000003,
      "v": 101
    },
    {
      "midi": 66,
      "hit": false,
      "t": 55785.519733333094,
      "d": 736.2132833333308,
      "v": 116
    },
    {
      "midi": 57,
      "hit": false,
      "t": 55792.46514166643,
      "d": 458.3969500000021,
      "v": 83
    },
    {
      "midi": 49,
      "hit": false,
      "t": 55799.41054999976,
      "d": 284.76174166666897,
      "v": 116
    },
    {
      "midi": 62,
      "hit": false,
      "t": 56299.47994999976,
      "d": 229.19847499999742,
      "v": 76
    },
    {
      "midi": 59,
      "hit": false,
      "t": 56368.93403333309,
      "d": 145.853575000001,
      "v": 61
    },
    {
      "midi": 47,
      "hit": false,
      "t": 56598.13250833309,
      "d": 1659.9525916666535,
      "v": 89
    },
    {
      "midi": 59,
      "hit": false,
      "t": 56618.96873333309,
      "d": 895.9576749999978,
      "v": 105
    },
    {
      "midi": 66,
      "hit": false,
      "t": 56625.91414166642,
      "d": 715.3770583333317,
      "v": 116
    },
    {
      "midi": 62,
      "hit": false,
      "t": 56632.859549999754,
      "d": 1111.2653333333292,
      "v": 110
    },
    {
      "midi": 66,
      "hit": false,
      "t": 57480.19936666642,
      "d": 750.1040999999896,
      "v": 85
    },
    {
      "midi": 59,
      "hit": false,
      "t": 57660.77998333309,
      "d": 243.0892916666562,
      "v": 83
    },
    {
      "midi": 62,
      "hit": false,
      "t": 57820.524374999746,
      "d": 409.7790916666636,
      "v": 54
    },
    {
      "midi": 45,
      "hit": false,
      "t": 58292.81214166641,
      "d": 1326.5729916666678,
      "v": 80
    },
    {
      "midi": 57,
      "hit": false,
      "t": 58299.75754999974,
      "d": 284.76174166666897,
      "v": 80
    },
    {
      "midi": 62,
      "hit": false,
      "t": 58299.75754999974,
      "d": 430.61531666666997,
      "v": 92
    },
    {
      "midi": 66,
      "hit": false,
      "t": 58299.75754999974,
      "d": 701.4862416666729,
      "v": 93
    },
    {
      "midi": 57,
      "hit": false,
      "t": 58709.53664166641,
      "d": 465.34235833333514,
      "v": 80
    },
    {
      "midi": 62,
      "hit": false,
      "t": 58910.953483333076,
      "d": 437.560725000003,
      "v": 76
    },
    {
      "midi": 66,
      "hit": false,
      "t": 59119.31573333308,
      "d": 236.14388333333045,
      "v": 116
    },
    {
      "midi": 57,
      "hit": false,
      "t": 59306.84175833308,
      "d": 76.39949166666338,
      "v": 89
    },
    {
      "midi": 52,
      "hit": false,
      "t": 59737.457074999744,
      "d": 111.12653333332855,
      "v": 35
    },
    {
      "midi": 59,
      "hit": false,
      "t": 59744.40248333308,
      "d": 118.07194166666159,
      "v": 12
    },
    {
      "midi": 57,
      "hit": false,
      "t": 59772.18411666641,
      "d": 83.34489999999641,
      "v": 46
    },
    {
      "midi": 40,
      "hit": false,
      "t": 59945.819324999735,
      "d": 1583.5530999999974,
      "v": 86
    },
    {
      "midi": 59,
      "hit": false,
      "t": 59945.819324999735,
      "d": 2347.548016666653,
      "v": 92
    },
    {
      "midi": 64,
      "hit": false,
      "t": 59952.76473333307,
      "d": 708.4316499999986,
      "v": 96
    },
    {
      "midi": 57,
      "hit": false,
      "t": 59952.76473333307,
      "d": 882.0668583333318,
      "v": 92
    },
    {
      "midi": 52,
      "hit": false,
      "t": 59952.76473333307,
      "d": 1083.483699999997,
      "v": 96
    },
    {
      "midi": 64,
      "hit": false,
      "t": 60827.88618333307,
      "d": 687.5954249999995,
      "v": 100
    },
    {
      "midi": 57,
      "hit": false,
      "t": 61050.13924999973,
      "d": 173.63520833333314,
      "v": 44
    },
    {
      "midi": 52,
      "hit": false,
      "t": 61189.0474166664,
      "d": 388.9428666666645,
      "v": 74
    },
    {
      "midi": 57,
      "hit": false,
      "t": 61397.4096666664,
      "d": 152.79898333333404,
      "v": 49
    },
    {
      "midi": 52,
      "hit": false,
      "t": 61605.771916666396,
      "d": 284.7617416666617,
      "v": 36
    },
    {
      "midi": 40,
      "hit": false,
      "t": 61619.66273333306,
      "d": 1569.662283333324,
      "v": 62
    },
    {
      "midi": 57,
      "hit": false,
      "t": 61626.608141666395,
      "d": 458.39694999999483,
      "v": 72
    },
    {
      "midi": 64,
      "hit": false,
      "t": 61661.33518333306,
      "d": 423.66990833332966,
      "v": 53
    },
    {
      "midi": 52,
      "hit": false,
      "t": 62064.16886666639,
      "d": 1139.0469666666613,
      "v": 92
    },
    {
      "midi": 57,
      "hit": false,
      "t": 62251.69489166639,
      "d": 486.17858333332697,
      "v": 92
    },
    {
      "midi": 64,
      "hit": false,
      "t": 62696.20102499972,
      "d": 451.4515416666691,
      "v": 115
    },
    {
      "midi": 59,
      "hit": false,
      "t": 62855.945416666385,
      "d": 354.2158249999993,
      "v": 61
    },
    {
      "midi": 56,
      "hit": false,
      "t": 63112.92552499972,
      "d": 83.34489999999641,
      "v": 66
    },
    {
      "midi": 52,
      "hit": false,
      "t": 63300.45154999972,
      "d": 291.707150000002,
      "v": 100
    },
    {
      "midi": 59,
      "hit": false,
      "t": 63300.45154999972,
      "d": 694.5408333333326,
      "v": 96
    },
    {
      "midi": 64,
      "hit": false,
      "t": 63307.396958333054,
      "d": 743.1586916666638,
      "v": 105
    },
    {
      "midi": 56,
      "hit": false,
      "t": 63314.34236666639,
      "d": 465.34235833333514,
      "v": 121
    },
    {
      "midi": 40,
      "hit": false,
      "t": 63314.34236666639,
      "d": 2278.0939333333226,
      "v": 92
    },
    {
      "midi": 52,
      "hit": false,
      "t": 63751.90309166639,
      "d": 1187.6648249999926,
      "v": 83
    },
    {
      "midi": 56,
      "hit": false,
      "t": 63939.42911666639,
      "d": 430.6153166666627,
      "v": 74
    },
    {
      "midi": 59,
      "hit": false,
      "t": 64238.08167499972,
      "d": 180.58061666666617,
      "v": 30
    },
    {
      "midi": 64,
      "hit": false,
      "t": 64376.989841666385,
      "d": 507.01480833333335,
      "v": 100
    },
    {
      "midi": 59,
      "hit": false,
      "t": 64571.46127499972,
      "d": 368.1066416666654,
      "v": 78
    },
    {
      "midi": 56,
      "hit": false,
      "t": 64772.87811666638,
      "d": 159.74439166666707,
      "v": 48
    },
    {
      "midi": 52,
      "hit": false,
      "t": 65002.07659166638,
      "d": 847.3398166666593,
      "v": 74
    },
    {
      "midi": 59,
      "hit": false,
      "t": 65002.07659166638,
      "d": 923.73930833333,
      "v": 92
    },
    {
      "midi": 64,
      "hit": false,
      "t": 65002.07659166638,
      "d": 923.73930833333,
      "v": 105
    },
    {
      "midi": 56,
      "hit": false,
      "t": 65009.02199999971,
      "d": 854.2852249999924,
      "v": 101
    },
    {
      "midi": 45,
      "hit": false,
      "t": 66682.86540833305,
      "d": 1041.8112500000134,
      "v": 76
    },
    {
      "midi": 61,
      "hit": false,
      "t": 66689.81081666639,
      "d": 701.4862416666729,
      "v": 85
    },
    {
      "midi": 57,
      "hit": false,
      "t": 66696.75622499973,
      "d": 659.8137916666601,
      "v": 72
    },
    {
      "midi": 59,
      "hit": false,
      "t": 66696.75622499973,
      "d": 673.7046083333262,
      "v": 72
    },
    {
      "midi": 64,
      "hit": false,
      "t": 66710.6470416664,
      "d": 618.1413416666619,
      "v": 48
    },
    {
      "midi": 59,
      "hit": false,
      "t": 67502.42359166639,
      "d": 784.8311416666693,
      "v": 92
    },
    {
      "midi": 64,
      "hit": false,
      "t": 67502.42359166639,
      "d": 791.7765500000096,
      "v": 96
    },
    {
      "midi": 61,
      "hit": false,
      "t": 67502.42359166639,
      "d": 798.7219583333499,
      "v": 85
    },
    {
      "midi": 57,
      "hit": false,
      "t": 67509.36899999973,
      "d": 520.9056249999849,
      "v": 76
    },
    {
      "midi": 45,
      "hit": false,
      "t": 67933.03890833305,
      "d": 333.3796000000002,
      "v": 83
    },
    {
      "midi": 57,
      "hit": false,
      "t": 68148.34656666638,
      "d": 131.96275833333493,
      "v": 61
    },
    {
      "midi": 57,
      "hit": false,
      "t": 68349.76340833308,
      "d": 680.6500166666665,
      "v": 80
    },
    {
      "midi": 61,
      "hit": false,
      "t": 68349.76340833308,
      "d": 701.4862416666729,
      "v": 71
    },
    {
      "midi": 64,
      "hit": false,
      "t": 68356.70881666642,
      "d": 687.5954249999922,
      "v": 92
    },
    {
      "midi": 59,
      "hit": false,
      "t": 68356.70881666642,
      "d": 694.5408333333326,
      "v": 86
    },
    {
      "midi": 45,
      "hit": false,
      "t": 68356.70881666642,
      "d": 951.5209416666767,
      "v": 89
    },
    {
      "midi": 61,
      "hit": false,
      "t": 69162.37618333308,
      "d": 312.5433750000084,
      "v": 85
    },
    {
      "midi": 57,
      "hit": false,
      "t": 69169.32159166642,
      "d": 62.50867500000459,
      "v": 65
    },
    {
      "midi": 64,
      "hit": false,
      "t": 69169.32159166642,
      "d": 291.707150000002,
      "v": 96
    },
    {
      "midi": 59,
      "hit": false,
      "t": 69169.32159166642,
      "d": 305.59796666666807,
      "v": 96
    },
    {
      "midi": 57,
      "hit": false,
      "t": 69377.68384166642,
      "d": 111.12653333332855,
      "v": 72
    },
    {
      "midi": 45,
      "hit": false,
      "t": 69558.26445833308,
      "d": 125.01734999999462,
      "v": 70
    },
    {
      "midi": 56,
      "hit": false,
      "t": 69794.4083416664,
      "d": 131.96275833334948,
      "v": 56
    },
    {
      "midi": 53,
      "hit": false,
      "t": 69822.18997499975,
      "d": 55.563266666664276,
      "v": 17
    },
    {
      "midi": 37,
      "hit": false,
      "t": 70002.77059166643,
      "d": 1062.6474750000198,
      "v": 71
    },
    {
      "midi": 61,
      "hit": false,
      "t": 70009.71599999977,
      "d": 722.3224666666647,
      "v": 74
    },
    {
      "midi": 49,
      "hit": false,
      "t": 70009.71599999977,
      "d": 1027.9204333333473,
      "v": 67
    },
    {
      "midi": 56,
      "hit": false,
      "t": 70016.66140833311,
      "d": 465.34235833333514,
      "v": 85
    },
    {
      "midi": 53,
      "hit": false,
      "t": 70433.3859083331,
      "d": 305.59796666666807,
      "v": 74
    },
    {
      "midi": 56,
      "hit": false,
      "t": 70648.69356666644,
      "d": 90.29030833333672,
      "v": 46
    },
    {
      "midi": 53,
      "hit": false,
      "t": 70836.21959166644,
      "d": 562.5780750000267,
      "v": 89
    },
    {
      "midi": 61,
      "hit": false,
      "t": 70843.16499999978,
      "d": 736.2132833333744,
      "v": 109
    },
    {
      "midi": 56,
      "hit": false,
      "t": 70850.11040833312,
      "d": 736.2132833333744,
      "v": 116
    },
    {
      "midi": 49,
      "hit": false,
      "t": 71239.05327499978,
      "d": 340.3250083333696,
      "v": 66
    },
    {
      "midi": 37,
      "hit": false,
      "t": 71245.99868333312,
      "d": 319.4887833333487,
      "v": 74
    },
    {
      "midi": 53,
      "hit": false,
      "t": 71461.30634166647,
      "d": 111.1265333333431,
      "v": 28
    },
    {
      "midi": 49,
      "hit": false,
      "t": 71662.72318333316,
      "d": 951.5209416667058,
      "v": 61
    },
    {
      "midi": 37,
      "hit": false,
      "t": 71662.72318333316,
      "d": 1298.791358333372,
      "v": 71
    },
    {
      "midi": 61,
      "hit": false,
      "t": 71669.6685916665,
      "d": 736.2132833333453,
      "v": 78
    },
    {
      "midi": 56,
      "hit": false,
      "t": 71676.61399999984,
      "d": 736.2132833333453,
      "v": 109
    },
    {
      "midi": 53,
      "hit": false,
      "t": 71676.61399999984,
      "d": 750.1041000000114,
      "v": 92
    },
    {
      "midi": 53,
      "hit": false,
      "t": 72503.11759166652,
      "d": 402.8336833333451,
      "v": 76
    },
    {
      "midi": 61,
      "hit": false,
      "t": 72503.11759166652,
      "d": 486.1785833333415,
      "v": 93
    },
    {
      "midi": 56,
      "hit": false,
      "t": 72510.06299999986,
      "d": 409.77909166667087,
      "v": 101
    },
    {
      "midi": 49,
      "hit": false,
      "t": 72892.0604583332,
      "d": 270.8709249999956,
      "v": 93
    },
    {
      "midi": 42,
      "hit": false,
      "t": 73322.67577499987,
      "d": 361.1612333333469,
      "v": 78
    },
    {
      "midi": 54,
      "hit": false,
      "t": 73322.67577499987,
      "d": 381.9974583333533,
      "v": 101
    },
    {
      "midi": 61,
      "hit": false,
      "t": 73322.67577499987,
      "d": 451.4515416666982,
      "v": 71
    },
    {
      "midi": 57,
      "hit": false,
      "t": 73329.6211833332,
      "d": 395.88827500001935,
      "v": 96
    },
    {
      "midi": 42,
      "hit": false,
      "t": 73739.40027499989,
      "d": 632.032158333328,
      "v": 18
    },
    {
      "midi": 54,
      "hit": false,
      "t": 73933.87170833323,
      "d": 381.9974583333242,
      "v": 21
    },
    {
      "midi": 69,
      "hit": false,
      "t": 74163.07018333323,
      "d": 486.1785833333415,
      "v": 86
    },
    {
      "midi": 73,
      "hit": false,
      "t": 74163.07018333323,
      "d": 486.1785833333415,
      "v": 74
    },
    {
      "midi": 66,
      "hit": false,
      "t": 74163.07018333323,
      "d": 507.0148083333479,
      "v": 78
    },
    {
      "midi": 54,
      "hit": false,
      "t": 74565.90386666656,
      "d": 236.14388333335228,
      "v": 74
    },
    {
      "midi": 42,
      "hit": false,
      "t": 74572.8492749999,
      "d": 326.43419166667445,
      "v": 74
    },
    {
      "midi": 42,
      "hit": false,
      "t": 74996.51918333324,
      "d": 770.9403250000178,
      "v": 101
    },
    {
      "midi": 57,
      "hit": false,
      "t": 75003.46459166658,
      "d": 430.61531666667724,
      "v": 100
    },
    {
      "midi": 54,
      "hit": false,
      "t": 75010.40999999992,
      "d": 250.0347000000038,
      "v": 85
    },
    {
      "midi": 61,
      "hit": false,
      "t": 75010.40999999992,
      "d": 645.9229750000086,
      "v": 69
    },
    {
      "midi": 54,
      "hit": false,
      "t": 75420.18909166659,
      "d": 500.0694000000076,
      "v": 93
    },
    {
      "midi": 57,
      "hit": false,
      "t": 75670.22379166659,
      "d": 69.45408333333035,
      "v": 43
    },
    {
      "midi": 42,
      "hit": false,
      "t": 75836.91359166658,
      "d": 319.48878333336324,
      "v": 71
    },
    {
      "midi": 57,
      "hit": false,
      "t": 75843.85899999992,
      "d": 243.08929166667804,
      "v": 100
    },
    {
      "midi": 61,
      "hit": false,
      "t": 75850.80440833326,
      "d": 277.8163333333505,
      "v": 109
    },
    {
      "midi": 54,
      "hit": false,
      "t": 76038.33043333326,
      "d": 69.4540833333449,
      "v": 101
    },
    {
      "midi": 42,
      "hit": false,
      "t": 76225.85645833328,
      "d": 97.23571666666248,
      "v": 23
    },
    {
      "midi": 66,
      "hit": false,
      "t": 76468.94574999994,
      "d": 83.34490000001097,
      "v": 46
    },
    {
      "midi": 62,
      "hit": false,
      "t": 76475.89115833328,
      "d": 83.34490000001097,
      "v": 66
    },
    {
      "midi": 50,
      "hit": false,
      "t": 76649.52636666663,
      "d": 958.4663500000315,
      "v": 74
    },
    {
      "midi": 38,
      "hit": false,
      "t": 76649.52636666663,
      "d": 1250.1735000000335,
      "v": 83
    },
    {
      "midi": 66,
      "hit": false,
      "t": 76656.47177499997,
      "d": 757.0495083333517,
      "v": 85
    },
    {
      "midi": 57,
      "hit": false,
      "t": 76663.41718333331,
      "d": 743.1586916666711,
      "v": 105
    },
    {
      "midi": 62,
      "hit": false,
      "t": 76663.41718333331,
      "d": 750.1041000000114,
      "v": 110
    },
    {
      "midi": 62,
      "hit": false,
      "t": 77503.81159166666,
      "d": 451.4515416666836,
      "v": 96
    },
    {
      "midi": 66,
      "hit": false,
      "t": 77503.81159166666,
      "d": 472.28776666669,
      "v": 93
    },
    {
      "midi": 57,
      "hit": false,
      "t": 77510.757,
      "d": 409.77909166667087,
      "v": 76
    },
    {
      "midi": 50,
      "hit": false,
      "t": 77892.75445833332,
      "d": 326.43419166670355,
      "v": 86
    },
    {
      "midi": 59,
      "hit": false,
      "t": 78108.06211666668,
      "d": 83.34490000001097,
      "v": 44
    },
    {
      "midi": 40,
      "hit": false,
      "t": 78316.42436666669,
      "d": 743.1586916666856,
      "v": 78
    },
    {
      "midi": 59,
      "hit": false,
      "t": 78323.36977500003,
      "d": 930.6847166666848,
      "v": 105
    },
    {
      "midi": 52,
      "hit": false,
      "t": 78330.31518333337,
      "d": 715.3770583333389,
      "v": 80
    },
    {
      "midi": 64,
      "hit": false,
      "t": 78330.31518333337,
      "d": 1173.7740083333338,
      "v": 115
    },
    {
      "midi": 68,
      "hit": false,
      "t": 78330.31518333337,
      "d": 1277.9551333333366,
      "v": 93
    },
    {
      "midi": 66,
      "hit": false,
      "t": 78337.26059166671,
      "d": 27.781633333332138,
      "v": 64
    },
    {
      "midi": 40,
      "hit": false,
      "t": 79163.76418333338,
      "d": 750.1041000000114,
      "v": 105
    },
    {
      "midi": 52,
      "hit": false,
      "t": 79177.65500000004,
      "d": 90.29030833333672,
      "v": 83
    },
    {
      "midi": 59,
      "hit": false,
      "t": 79392.96265833337,
      "d": 243.08929166666348,
      "v": 80
    },
    {
      "midi": 52,
      "hit": false,
      "t": 79573.54327500003,
      "d": 298.65255833335686,
      "v": 80
    },
    {
      "midi": 61,
      "hit": false,
      "t": 79774.96011666671,
      "d": 145.85357500001555,
      "v": 41
    },
    {
      "midi": 57,
      "hit": false,
      "t": 79781.90552500005,
      "d": 118.07194166666886,
      "v": 57
    },
    {
      "midi": 57,
      "hit": false,
      "t": 79990.26777500006,
      "d": 791.7765500000241,
      "v": 96
    },
    {
      "midi": 64,
      "hit": false,
      "t": 79997.2131833334,
      "d": 743.1586916666711,
      "v": 96
    },
    {
      "midi": 61,
      "hit": false,
      "t": 79997.2131833334,
      "d": 750.1041000000114,
      "v": 109
    },
    {
      "midi": 45,
      "hit": false,
      "t": 79997.2131833334,
      "d": 993.1933916666894,
      "v": 100
    },
    {
      "midi": 69,
      "hit": false,
      "t": 80011.10400000006,
      "d": 97.23571666667704,
      "v": 57
    },
    {
      "midi": 61,
      "hit": false,
      "t": 80823.71677500008,
      "d": 750.1041000000405,
      "v": 64
    },
    {
      "midi": 64,
      "hit": false,
      "t": 80823.71677500008,
      "d": 750.1041000000405,
      "v": 70
    },
    {
      "midi": 69,
      "hit": false,
      "t": 80830.66218333342,
      "d": 687.5954250000068,
      "v": 78
    },
    {
      "midi": 57,
      "hit": false,
      "t": 80830.66218333342,
      "d": 715.3770583333535,
      "v": 16
    },
    {
      "midi": 33,
      "hit": false,
      "t": 81233.49586666675,
      "d": 312.54337500002293,
      "v": 96
    },
    {
      "midi": 45,
      "hit": false,
      "t": 81233.49586666675,
      "d": 333.3796000000293,
      "v": 92
    },
    {
      "midi": 76,
      "hit": false,
      "t": 81455.74893333342,
      "d": 62.50867500000459,
      "v": 100
    },
    {
      "midi": 73,
      "hit": false,
      "t": 81455.74893333342,
      "d": 69.4540833333449,
      "v": 101
    },
    {
      "midi": 81,
      "hit": false,
      "t": 81462.69434166676,
      "d": 83.34490000001097,
      "v": 86
    },
    {
      "midi": 81,
      "hit": false,
      "t": 81601.60250833345,
      "d": 97.23571666670614,
      "v": 92
    },
    {
      "midi": 76,
      "hit": false,
      "t": 81608.5479166668,
      "d": 62.50867500003369,
      "v": 115
    },
    {
      "midi": 73,
      "hit": false,
      "t": 81615.49332500013,
      "d": 48.61785833335307,
      "v": 116
    },
    {
      "midi": 57,
      "hit": false,
      "t": 81650.2203666668,
      "d": 263.9255166666844,
      "v": 86
    },
    {
      "midi": 45,
      "hit": false,
      "t": 81650.2203666668,
      "d": 965.4117583333718,
      "v": 76
    },
    {
      "midi": 33,
      "hit": false,
      "t": 81650.2203666668,
      "d": 1264.0643166666996,
      "v": 96
    },
    {
      "midi": 61,
      "hit": false,
      "t": 81657.16577500015,
      "d": 465.3423583333497,
      "v": 93
    },
    {
      "midi": 69,
      "hit": false,
      "t": 81657.16577500015,
      "d": 687.5954250000214,
      "v": 86
    },
    {
      "midi": 64,
      "hit": false,
      "t": 81657.16577500015,
      "d": 777.8857333333581,
      "v": 92
    },
    {
      "midi": 57,
      "hit": false,
      "t": 82087.78109166682,
      "d": 347.27041666668083,
      "v": 62
    },
    {
      "midi": 61,
      "hit": false,
      "t": 82296.14334166683,
      "d": 125.01735000000917,
      "v": 53
    },
    {
      "midi": 61,
      "hit": false,
      "t": 82504.50559166684,
      "d": 479.2331750000012,
      "v": 93
    },
    {
      "midi": 64,
      "hit": false,
      "t": 82504.50559166684,
      "d": 555.6326666666719,
      "v": 100
    },
    {
      "midi": 57,
      "hit": false,
      "t": 82511.45100000018,
      "d": 104.1811250000028,
      "v": 63
    },
    {
      "midi": 69,
      "hit": false,
      "t": 82511.45100000018,
      "d": 458.39694999999483,
      "v": 89
    },
    {
      "midi": 57,
      "hit": false,
      "t": 82768.4311083335,
      "d": 76.39949166667066,
      "v": 1
    },
    {
      "midi": 45,
      "hit": false,
      "t": 82914.2846833335,
      "d": 173.63520833333314,
      "v": 86
    },
    {
      "midi": 57,
      "hit": false,
      "t": 83108.75611666685,
      "d": 159.74439166666707,
      "v": 51
    },
    {
      "midi": 62,
      "hit": false,
      "t": 83129.59234166685,
      "d": 138.9081666666607,
      "v": 58
    },
    {
      "midi": 62,
      "hit": false,
      "t": 83351.84540833352,
      "d": 729.2678750000196,
      "v": 115
    },
    {
      "midi": 57,
      "hit": false,
      "t": 83351.84540833352,
      "d": 736.2132833333599,
      "v": 100
    },
    {
      "midi": 50,
      "hit": false,
      "t": 83351.84540833352,
      "d": 909.848491666693,
      "v": 100
    },
    {
      "midi": 38,
      "hit": false,
      "t": 83351.84540833352,
      "d": 1020.9750250000216,
      "v": 86
    },
    {
      "midi": 66,
      "hit": false,
      "t": 83358.79081666686,
      "d": 715.3770583333389,
      "v": 109
    },
    {
      "midi": 62,
      "hit": false,
      "t": 84171.40359166688,
      "d": 444.5061333333433,
      "v": 105
    },
    {
      "midi": 66,
      "hit": false,
      "t": 84171.40359166688,
      "d": 736.2132833333453,
      "v": 101
    },
    {
      "midi": 57,
      "hit": false,
      "t": 84178.34900000022,
      "d": 590.3597083333443,
      "v": 76
    },
    {
      "midi": 50,
      "hit": false,
      "t": 84553.40105000022,
      "d": 125.01735000000917,
      "v": 96
    },
    {
      "midi": 38,
      "hit": false,
      "t": 84560.34645833356,
      "d": 159.74439166666707,
      "v": 74
    },
    {
      "midi": 62,
      "hit": false,
      "t": 84768.70870833356,
      "d": 180.5806166666589,
      "v": 76
    },
    {
      "midi": 62,
      "hit": false,
      "t": 84990.96177500022,
      "d": 750.1041000000114,
      "v": 100
    },
    {
      "midi": 35,
      "hit": false,
      "t": 84990.96177500022,
      "d": 1673.843408333385,
      "v": 72
    },
    {
      "midi": 66,
      "hit": false,
      "t": 84997.90718333356,
      "d": 729.267875000005,
      "v": 109
    },
    {
      "midi": 59,
      "hit": false,
      "t": 84997.90718333356,
      "d": 743.1586916666711,
      "v": 110
    },
    {
      "midi": 47,
      "hit": false,
      "t": 84997.90718333356,
      "d": 930.6847166666848,
      "v": 78
    },
    {
      "midi": 62,
      "hit": false,
      "t": 85831.35618333357,
      "d": 333.37960000001476,
      "v": 96
    },
    {
      "midi": 59,
      "hit": false,
      "t": 85831.35618333357,
      "d": 347.27041666668083,
      "v": 41
    },
    {
      "midi": 66,
      "hit": false,
      "t": 85838.30159166691,
      "d": 305.59796666666807,
      "v": 101
    },
    {
      "midi": 47,
      "hit": false,
      "t": 86227.24445833359,
      "d": 381.9974583333533,
      "v": 54
    },
    {
      "midi": 52,
      "hit": false,
      "t": 86310.58935833359,
      "d": 263.9255166666844,
      "v": 39
    },
    {
      "midi": 57,
      "hit": false,
      "t": 86491.16997500026,
      "d": 111.1265333333431,
      "v": 41
    },
    {
      "midi": 59,
      "hit": false,
      "t": 86512.00620000027,
      "d": 48.61785833333852,
      "v": 22
    },
    {
      "midi": 52,
      "hit": false,
      "t": 86692.58681666694,
      "d": 826.503591666682,
      "v": 96
    },
    {
      "midi": 57,
      "hit": false,
      "t": 86692.58681666694,
      "d": 1527.9898333333404,
      "v": 96
    },
    {
      "midi": 59,
      "hit": false,
      "t": 86692.58681666694,
      "d": 2000.2776000000013,
      "v": 96
    },
    {
      "midi": 64,
      "hit": false,
      "t": 86699.53222500028,
      "d": 652.8683833333344,
      "v": 110
    },
    {
      "midi": 40,
      "hit": false,
      "t": 86699.53222500028,
      "d": 1076.5382916666713,
      "v": 78
    },
    {
      "midi": 64,
      "hit": false,
      "t": 87512.14500000028,
      "d": 1069.592883333331,
      "v": 96
    },
    {
      "midi": 40,
      "hit": false,
      "t": 87908.03327500029,
      "d": 1194.610233333311,
      "v": 105
    },
    {
      "midi": 52,
      "hit": false,
      "t": 88324.75777500028,
      "d": 312.54337499999383,
      "v": 92
    },
    {
      "midi": 52,
      "hit": false,
      "t": 88741.48227500028,
      "d": 1173.7740083333338,
      "v": 105
    },
    {
      "midi": 59,
      "hit": false,
      "t": 88755.37309166694,
      "d": 55.563266666664276,
      "v": 26
    },
    {
      "midi": 57,
      "hit": false,
      "t": 88949.84452500027,
      "d": 465.34235833333514,
      "v": 96
    },
    {
      "midi": 40,
      "hit": false,
      "t": 89165.1521833336,
      "d": 743.1586916666711,
      "v": 89
    },
    {
      "midi": 64,
      "hit": false,
      "t": 89366.56902500027,
      "d": 458.3969500000094,
      "v": 110
    },
    {
      "midi": 59,
      "hit": false,
      "t": 89373.5144333336,
      "d": 27.781633333332138,
      "v": 65
    },
    {
      "midi": 59,
      "hit": false,
      "t": 89574.93127500027,
      "d": 347.27041666668083,
      "v": 72
    },
    {
      "midi": 64,
      "hit": false,
      "t": 89998.60118333362,
      "d": 645.9229750000086,
      "v": 105
    },
    {
      "midi": 59,
      "hit": false,
      "t": 89998.60118333362,
      "d": 750.1041000000114,
      "v": 96
    },
    {
      "midi": 52,
      "hit": false,
      "t": 89998.60118333362,
      "d": 1104.319925000018,
      "v": 96
    },
    {
      "midi": 56,
      "hit": false,
      "t": 90005.54659166696,
      "d": 729.267875000005,
      "v": 116
    },
    {
      "midi": 40,
      "hit": false,
      "t": 90005.54659166696,
      "d": 951.5209416666767,
      "v": 96
    },
    {
      "midi": 56,
      "hit": false,
      "t": 90832.05018333363,
      "d": 388.94286666667904,
      "v": 93
    },
    {
      "midi": 59,
      "hit": false,
      "t": 90832.05018333363,
      "d": 555.6326666666864,
      "v": 92
    },
    {
      "midi": 64,
      "hit": false,
      "t": 90838.99559166697,
      "d": 694.5408333333762,
      "v": 96
    },
    {
      "midi": 40,
      "hit": false,
      "t": 91047.35784166698,
      "d": 152.79898333332676,
      "v": 83
    },
    {
      "midi": 40,
      "hit": false,
      "t": 91255.72009166698,
      "d": 187.52602500001376,
      "v": 70
    },
    {
      "midi": 52,
      "hit": false,
      "t": 91269.61090833365,
      "d": 125.01735000000917,
      "v": 72
    },
    {
      "midi": 59,
      "hit": false,
      "t": 91464.082341667,
      "d": 97.23571666667704,
      "v": 37
    },
    {
      "midi": 52,
      "hit": false,
      "t": 91471.02775000034,
      "d": 76.39949166667066,
      "v": 44
    },
    {
      "midi": 56,
      "hit": false,
      "t": 91477.97315833368,
      "d": 69.45408333333035,
      "v": 60
    },
    {
      "midi": 52,
      "hit": false,
      "t": 91658.55377500034,
      "d": 277.81633333333593,
      "v": 96
    },
    {
      "midi": 64,
      "hit": false,
      "t": 91658.55377500034,
      "d": 694.5408333333326,
      "v": 110
    },
    {
      "midi": 42,
      "hit": false,
      "t": 91658.55377500034,
      "d": 854.2852250000142,
      "v": 101
    },
    {
      "midi": 56,
      "hit": false,
      "t": 91665.49918333368,
      "d": 736.2132833333308,
      "v": 116
    },
    {
      "midi": 59,
      "hit": false,
      "t": 91665.49918333368,
      "d": 757.0495083333371,
      "v": 100
    },
    {
      "midi": 52,
      "hit": false,
      "t": 92054.44205000035,
      "d": 381.9974583333387,
      "v": 59
    },
    {
      "midi": 56,
      "hit": false,
      "t": 92505.89359166702,
      "d": 395.88827500001935,
      "v": 116
    },
    {
      "midi": 44,
      "hit": false,
      "t": 92505.89359166702,
      "d": 520.9056250000285,
      "v": 93
    },
    {
      "midi": 59,
      "hit": false,
      "t": 92505.89359166702,
      "d": 527.8510333333688,
      "v": 92
    },
    {
      "midi": 52,
      "hit": false,
      "t": 92505.89359166702,
      "d": 708.4316500000277,
      "v": 86
    },
    {
      "midi": 64,
      "hit": false,
      "t": 92512.83900000036,
      "d": 402.8336833333451,
      "v": 100
    },
    {
      "midi": 57,
      "hit": false,
      "t": 92950.39972500037,
      "d": 270.8709250000102,
      "v": 53
    },
    {
      "midi": 61,
      "hit": false,
      "t": 93325.45177500039,
      "d": 632.0321583333571,
      "v": 101
    },
    {
      "midi": 52,
      "hit": false,
      "t": 93332.39718333373,
      "d": 256.9801083333441,
      "v": 96
    },
    {
      "midi": 45,
      "hit": false,
      "t": 93332.39718333373,
      "d": 618.1413416666765,
      "v": 105
    },
    {
      "midi": 64,
      "hit": false,
      "t": 93346.2880000004,
      "d": 312.5433750000084,
      "v": 70
    },
    {
      "midi": 57,
      "hit": false,
      "t": 93353.23340833373,
      "d": 604.2505250000104,
      "v": 54
    },
    {
      "midi": 76,
      "hit": false,
      "t": 93353.23340833373,
      "d": 791.7765500000096,
      "v": 76
    },
    {
      "midi": 73,
      "hit": false,
      "t": 93353.23340833373,
      "d": 2389.2204666666803,
      "v": 59
    },
    {
      "midi": 69,
      "hit": false,
      "t": 93353.23340833373,
      "d": 2417.0021000000124,
      "v": 52
    },
    {
      "midi": 52,
      "hit": false,
      "t": 93756.06709166706,
      "d": 187.5260249999992,
      "v": 55
    },
    {
      "midi": 64,
      "hit": false,
      "t": 93769.95790833373,
      "d": 736.2132833333453,
      "v": 56
    },
    {
      "midi": 76,
      "hit": false,
      "t": 94172.79159166708,
      "d": 1354.3546250000072,
      "v": 35
    },
    {
      "midi": 71,
      "hit": false,
      "t": 94172.79159166708,
      "d": 1583.5531000000046,
      "v": 58
    },
    {
      "midi": 64,
      "hit": false,
      "t": 94589.51609166707,
      "d": 611.1959333333361,
      "v": 60
    },
    {
      "midi": 45,
      "hit": false,
      "t": 95006.24059166707,
      "d": 1291.8459500000463,
      "v": 60
    },
    {
      "midi": 64,
      "hit": false,
      "t": 95416.01968333374,
      "d": 548.6872583333607,
      "v": 48
    },
    {
      "midi": 57,
      "hit": false,
      "t": 95450.74672500041,
      "d": 757.0495083333662,
      "v": 32
    },
    {
      "midi": 69,
      "hit": false,
      "t": 95832.74418333375,
      "d": 284.7617416666908,
      "v": 28
    },
    {
      "midi": 73,
      "hit": false,
      "t": 95832.74418333375,
      "d": 673.7046083333844,
      "v": 32
    },
    {
      "midi": 76,
      "hit": false,
      "t": 95839.68959166709,
      "d": 569.5234833333525,
      "v": 76
    },
    {
      "midi": 64,
      "hit": false,
      "t": 96041.10643333377,
      "d": 270.8709250000102,
      "v": 67
    },
    {
      "midi": 71,
      "hit": false,
      "t": 96249.46868333378,
      "d": 229.19847500001197,
      "v": 60
    },
    {
      "midi": 69,
      "hit": false,
      "t": 96249.46868333378,
      "d": 250.03470000001835,
      "v": 51
    },
    {
      "midi": 64,
      "hit": false,
      "t": 96457.83093333378,
      "d": 1139.0469666666904,
      "v": 58
    },
    {
      "midi": 73,
      "hit": false,
      "t": 96666.1931833338,
      "d": 2437.838325000019,
      "v": 73
    },
    {
      "midi": 76,
      "hit": false,
      "t": 96673.13859166714,
      "d": 1486.3173833333421,
      "v": 76
    },
    {
      "midi": 69,
      "hit": false,
      "t": 96673.13859166714,
      "d": 2361.4388333333336,
      "v": 64
    },
    {
      "midi": 66,
      "hit": false,
      "t": 96673.13859166714,
      "d": 2410.056691666672,
      "v": 69
    },
    {
      "midi": 42,
      "hit": false,
      "t": 96673.13859166714,
      "d": 2854.5628250000154,
      "v": 69
    },
    {
      "midi": 54,
      "hit": false,
      "t": 97332.9523833338,
      "d": 2021.1138250000222,
      "v": 54
    },
    {
      "midi": 64,
      "hit": false,
      "t": 97930.25750000047,
      "d": 694.5408333333471,
      "v": 51
    },
    {
      "midi": 76,
      "hit": false,
      "t": 98340.03659166716,
      "d": 611.1959333333216,
      "v": 52
    },
    {
      "midi": 64,
      "hit": false,
      "t": 98763.70650000048,
      "d": 284.7617416666617,
      "v": 48
    },
    {
      "midi": 76,
      "hit": false,
      "t": 99173.48559166715,
      "d": 472.28776666669,
      "v": 70
    },
    {
      "midi": 69,
      "hit": false,
      "t": 99173.48559166715,
      "d": 534.7964416666946,
      "v": 54
    },
    {
      "midi": 73,
      "hit": false,
      "t": 99173.48559166715,
      "d": 652.8683833333635,
      "v": 54
    },
    {
      "midi": 66,
      "hit": false,
      "t": 99381.84784166716,
      "d": 256.9801083333441,
      "v": 49
    },
    {
      "midi": 64,
      "hit": false,
      "t": 99590.21009166716,
      "d": 284.7617416666908,
      "v": 60
    },
    {
      "midi": 38,
      "hit": false,
      "t": 99999.98918333385,
      "d": 2861.508233333341,
      "v": 70
    },
    {
      "midi": 62,
      "hit": false,
      "t": 100006.93459166719,
      "d": 944.5755333333364,
      "v": 67
    },
    {
      "midi": 69,
      "hit": false,
      "t": 100006.93459166719,
      "d": 2305.8755666666693,
      "v": 60
    },
    {
      "midi": 66,
      "hit": false,
      "t": 100006.93459166719,
      "d": 2312.8209750000096,
      "v": 49
    },
    {
      "midi": 74,
      "hit": false,
      "t": 100013.88000000053,
      "d": 1514.0990166666597,
      "v": 76
    },
    {
      "midi": 50,
      "hit": false,
      "t": 100833.43818333386,
      "d": 2083.6224999999977,
      "v": 60
    },
    {
      "midi": 62,
      "hit": false,
      "t": 101250.16268333385,
      "d": 722.3224666666647,
      "v": 49
    },
    {
      "midi": 74,
      "hit": false,
      "t": 101666.88718333385,
      "d": 652.8683833333489,
      "v": 60
    },
    {
      "midi": 62,
      "hit": false,
      "t": 102090.55709166719,
      "d": 312.5433750000084,
      "v": 44
    },
    {
      "midi": 66,
      "hit": false,
      "t": 102507.2815916672,
      "d": 131.96275833333493,
      "v": 32
    },
    {
      "midi": 74,
      "hit": false,
      "t": 102507.2815916672,
      "d": 527.8510333333252,
      "v": 73
    },
    {
      "midi": 64,
      "hit": false,
      "t": 102521.17240833386,
      "d": 298.65255833332776,
      "v": 54
    },
    {
      "midi": 69,
      "hit": false,
      "t": 102722.58925000053,
      "d": 555.6326666666719,
      "v": 51
    },
    {
      "midi": 66,
      "hit": false,
      "t": 102937.89690833386,
      "d": 277.81633333333593,
      "v": 42
    },
    {
      "midi": 62,
      "hit": false,
      "t": 103146.25915833387,
      "d": 90.29030833333672,
      "v": 47
    },
    {
      "midi": 40,
      "hit": false,
      "t": 103340.7305916672,
      "d": 1319.6275833333639,
      "v": 54
    },
    {
      "midi": 64,
      "hit": false,
      "t": 103347.67600000055,
      "d": 187.52602500001376,
      "v": 64
    },
    {
      "midi": 71,
      "hit": false,
      "t": 103354.62140833389,
      "d": 2451.7291416666994,
      "v": 56
    },
    {
      "midi": 68,
      "hit": false,
      "t": 103354.62140833389,
      "d": 2833.726600000038,
      "v": 54
    },
    {
      "midi": 64,
      "hit": false,
      "t": 103764.40050000056,
      "d": 590.3597083333443,
      "v": 48
    },
    {
      "midi": 52,
      "hit": false,
      "t": 103778.29131666722,
      "d": 812.612775000016,
      "v": 22
    },
    {
      "midi": 74,
      "hit": false,
      "t": 104181.12500000057,
      "d": 1590.498508333345,
      "v": 56
    },
    {
      "midi": 64,
      "hit": false,
      "t": 104590.90409166724,
      "d": 402.83368333333055,
      "v": 52
    },
    {
      "midi": 44,
      "hit": false,
      "t": 105007.62859166724,
      "d": 791.7765500000096,
      "v": 49
    },
    {
      "midi": 64,
      "hit": false,
      "t": 105417.4076833339,
      "d": 486.1785833333561,
      "v": 47
    },
    {
      "midi": 47,
      "hit": false,
      "t": 105834.13218333392,
      "d": 500.0694000000076,
      "v": 49
    },
    {
      "midi": 76,
      "hit": false,
      "t": 105841.07759166726,
      "d": 534.7964416666655,
      "v": 64
    },
    {
      "midi": 74,
      "hit": false,
      "t": 105841.07759166726,
      "d": 618.1413416666619,
      "v": 36
    },
    {
      "midi": 64,
      "hit": false,
      "t": 106049.43984166726,
      "d": 284.7617416666617,
      "v": 49
    },
    {
      "midi": 68,
      "hit": false,
      "t": 106257.80209166725,
      "d": 263.92551666666986,
      "v": 24
    },
    {
      "midi": 71,
      "hit": false,
      "t": 106271.69290833392,
      "d": 208.3622500000056,
      "v": 49
    },
    {
      "midi": 64,
      "hit": false,
      "t": 106674.52659166725,
      "d": 270.8709250000102,
      "v": 60
    },
    {
      "midi": 73,
      "hit": false,
      "t": 106674.52659166725,
      "d": 2389.2204666666803,
      "v": 69
    },
    {
      "midi": 45,
      "hit": false,
      "t": 106674.52659166725,
      "d": 2840.6720083333494,
      "v": 60
    },
    {
      "midi": 76,
      "hit": false,
      "t": 106681.47200000059,
      "d": 1458.5357499999955,
      "v": 67
    },
    {
      "midi": 69,
      "hit": false,
      "t": 106681.47200000059,
      "d": 2173.9128083333344,
      "v": 56
    },
    {
      "midi": 64,
      "hit": false,
      "t": 107091.25109166726,
      "d": 534.7964416666655,
      "v": 45
    },
    {
      "midi": 52,
      "hit": false,
      "t": 107494.08477500059,
      "d": 2014.1684166666673,
      "v": 32
    },
    {
      "midi": 71,
      "hit": false,
      "t": 107514.9210000006,
      "d": 1340.4638083333266,
      "v": 51
    },
    {
      "midi": 64,
      "hit": false,
      "t": 107924.70009166726,
      "d": 694.5408333333326,
      "v": 52
    },
    {
      "midi": 85,
      "hit": false,
      "t": 108126.11693333392,
      "d": 97.23571666666248,
      "v": 78
    },
    {
      "midi": 81,
      "hit": false,
      "t": 108126.11693333392,
      "d": 104.1811250000028,
      "v": 74
    },
    {
      "midi": 57,
      "hit": false,
      "t": 108327.53377500059,
      "d": 1166.828600000008,
      "v": 36
    },
    {
      "midi": 81,
      "hit": false,
      "t": 108341.42459166725,
      "d": 479.2331750000012,
      "v": 92
    },
    {
      "midi": 76,
      "hit": false,
      "t": 108341.42459166725,
      "d": 548.6872583333461,
      "v": 58
    },
    {
      "midi": 85,
      "hit": false,
      "t": 108348.37000000059,
      "d": 472.2877666666609,
      "v": 101
    },
    {
      "midi": 64,
      "hit": false,
      "t": 108765.09450000059,
      "d": 298.6525583333423,
      "v": 44
    },
    {
      "midi": 69,
      "hit": false,
      "t": 109174.87359166726,
      "d": 250.0347000000038,
      "v": 51
    },
    {
      "midi": 76,
      "hit": false,
      "t": 109174.87359166726,
      "d": 305.59796666666807,
      "v": 67
    },
    {
      "midi": 64,
      "hit": false,
      "t": 109174.87359166726,
      "d": 319.48878333333414,
      "v": 36
    },
    {
      "midi": 73,
      "hit": false,
      "t": 109174.87359166726,
      "d": 638.9775666666828,
      "v": 54
    },
    {
      "midi": 71,
      "hit": false,
      "t": 109397.12665833393,
      "d": 409.77909166667087,
      "v": 52
    },
    {
      "midi": 76,
      "hit": false,
      "t": 109605.48890833394,
      "d": 48.61785833333852,
      "v": 7
    },
    {
      "midi": 69,
      "hit": false,
      "t": 109605.48890833394,
      "d": 201.41684166666528,
      "v": 47
    },
    {
      "midi": 64,
      "hit": false,
      "t": 109806.9057500006,
      "d": 479.23317500001576,
      "v": 52
    },
    {
      "midi": 42,
      "hit": false,
      "t": 110008.32259166728,
      "d": 2792.054150000011,
      "v": 47
    },
    {
      "midi": 76,
      "hit": false,
      "t": 110022.21340833395,
      "d": 1319.6275833333348,
      "v": 67
    },
    {
      "midi": 69,
      "hit": false,
      "t": 110022.21340833395,
      "d": 2319.766383333321,
      "v": 60
    },
    {
      "midi": 73,
      "hit": false,
      "t": 110022.21340833395,
      "d": 2410.0566916666576,
      "v": 69
    },
    {
      "midi": 66,
      "hit": false,
      "t": 110022.21340833395,
      "d": 2437.8383249999897,
      "v": 64
    },
    {
      "midi": 64,
      "hit": false,
      "t": 110431.99250000062,
      "d": 527.8510333333252,
      "v": 51
    },
    {
      "midi": 54,
      "hit": false,
      "t": 110834.82618333395,
      "d": 1909.9872916666645,
      "v": 47
    },
    {
      "midi": 64,
      "hit": false,
      "t": 111251.55068333395,
      "d": 750.1040999999968,
      "v": 51
    },
    {
      "midi": 76,
      "hit": false,
      "t": 111682.16600000061,
      "d": 645.922974999994,
      "v": 60
    },
    {
      "midi": 64,
      "hit": false,
      "t": 112112.78131666727,
      "d": 97.23571666666248,
      "v": 32
    },
    {
      "midi": 64,
      "hit": false,
      "t": 112508.66959166728,
      "d": 284.76174166667624,
      "v": 52
    },
    {
      "midi": 73,
      "hit": false,
      "t": 112508.66959166728,
      "d": 652.8683833333635,
      "v": 47
    },
    {
      "midi": 69,
      "hit": false,
      "t": 112522.56040833394,
      "d": 48.61785833333852,
      "v": 48
    },
    {
      "midi": 76,
      "hit": false,
      "t": 112522.56040833394,
      "d": 291.70715000001655,
      "v": 70
    },
    {
      "midi": 66,
      "hit": false,
      "t": 112730.92265833395,
      "d": 298.65255833335686,
      "v": 40
    },
    {
      "midi": 64,
      "hit": false,
      "t": 112939.28490833397,
      "d": 270.8709250000102,
      "v": 56
    },
    {
      "midi": 66,
      "hit": false,
      "t": 113154.5925666673,
      "d": 125.01735000000917,
      "v": 32
    },
    {
      "midi": 66,
      "hit": false,
      "t": 113342.11859166731,
      "d": 868.1760416666948,
      "v": 47
    },
    {
      "midi": 38,
      "hit": false,
      "t": 113342.11859166731,
      "d": 2833.726600000082,
      "v": 64
    },
    {
      "midi": 62,
      "hit": false,
      "t": 113349.06400000065,
      "d": 861.2306333333545,
      "v": 64
    },
    {
      "midi": 74,
      "hit": false,
      "t": 113356.009408334,
      "d": 784.8311416666693,
      "v": 73
    },
    {
      "midi": 69,
      "hit": false,
      "t": 113356.009408334,
      "d": 840.3944083333481,
      "v": 56
    },
    {
      "midi": 50,
      "hit": false,
      "t": 114175.56759166734,
      "d": 2014.1684166667255,
      "v": 58
    },
    {
      "midi": 57,
      "hit": false,
      "t": 114592.29209166735,
      "d": 965.4117583333573,
      "v": 51
    },
    {
      "midi": 62,
      "hit": false,
      "t": 114800.65434166735,
      "d": 1222.391866666716,
      "v": 52
    },
    {
      "midi": 66,
      "hit": false,
      "t": 115009.01659166736,
      "d": 791.7765500000241,
      "v": 40
    },
    {
      "midi": 69,
      "hit": false,
      "t": 115015.9620000007,
      "d": 645.9229750000086,
      "v": 56
    },
    {
      "midi": 64,
      "hit": false,
      "t": 115015.9620000007,
      "d": 722.3224666666792,
      "v": 54
    },
    {
      "midi": 69,
      "hit": false,
      "t": 115835.52018333405,
      "d": 437.560725000003,
      "v": 52
    },
    {
      "midi": 57,
      "hit": false,
      "t": 115842.4655916674,
      "d": 333.3796000000002,
      "v": 54
    },
    {
      "midi": 66,
      "hit": false,
      "t": 115842.4655916674,
      "d": 493.1239916666673,
      "v": 24
    },
    {
      "midi": 64,
      "hit": false,
      "t": 116050.8278416674,
      "d": 305.59796666666807,
      "v": 56
    },
    {
      "midi": 62,
      "hit": false,
      "t": 116259.19009166739,
      "d": 236.14388333335228,
      "v": 54
    },
    {
      "midi": 59,
      "hit": false,
      "t": 116460.60693333407,
      "d": 1159.8831916666677,
      "v": 56
    },
    {
      "midi": 68,
      "hit": false,
      "t": 116668.96918333408,
      "d": 1326.5729916666896,
      "v": 47
    },
    {
      "midi": 40,
      "hit": false,
      "t": 116668.96918333408,
      "d": 2548.964858333362,
      "v": 58
    },
    {
      "midi": 64,
      "hit": false,
      "t": 116675.91459166742,
      "d": 1118.210741666655,
      "v": 58
    },
    {
      "midi": 62,
      "hit": false,
      "t": 116675.91459166742,
      "d": 1125.1561499999953,
      "v": 56
    },
    {
      "midi": 71,
      "hit": false,
      "t": 116675.91459166742,
      "d": 1319.6275833333493,
      "v": 58
    },
    {
      "midi": 52,
      "hit": false,
      "t": 117523.25440833408,
      "d": 1743.2974916667008,
      "v": 35
    },
    {
      "midi": 64,
      "hit": false,
      "t": 117933.03350000075,
      "d": 694.5408333333471,
      "v": 38
    },
    {
      "midi": 62,
      "hit": false,
      "t": 117939.97890833409,
      "d": 20.83622500000638,
      "v": 33
    },
    {
      "midi": 76,
      "hit": false,
      "t": 118342.81259166743,
      "d": 1389.0816666666797,
      "v": 54
    },
    {
      "midi": 68,
      "hit": false,
      "t": 118356.7034083341,
      "d": 1312.682175000009,
      "v": 38
    },
    {
      "midi": 64,
      "hit": false,
      "t": 118773.4279083341,
      "d": 604.2505250000104,
      "v": 29
    },
    {
      "midi": 71,
      "hit": false,
      "t": 119190.1524083341,
      "d": 319.48878333333414,
      "v": 34
    },
    {
      "midi": 74,
      "hit": false,
      "t": 119190.1524083341,
      "d": 409.77909166667087,
      "v": 36
    },
    {
      "midi": 64,
      "hit": false,
      "t": 119613.82231666744,
      "d": 180.58061666667345,
      "v": 30
    },
    {
      "midi": 45,
      "hit": false,
      "t": 120009.71059166746,
      "d": 1500.2082000000228,
      "v": 60
    },
    {
      "midi": 64,
      "hit": false,
      "t": 120016.6560000008,
      "d": 1319.6275833333493,
      "v": 58
    },
    {
      "midi": 69,
      "hit": false,
      "t": 120023.60140833414,
      "d": 1409.9178916666715,
      "v": 58
    },
    {
      "midi": 73,
      "hit": false,
      "t": 120023.60140833414,
      "d": 1444.644933333344,
      "v": 69
    },
    {
      "midi": 52,
      "hit": false,
      "t": 121273.77490833415,
      "d": 493.12399166668183,
      "v": 53
    },
    {
      "midi": 64,
      "hit": false,
      "t": 121669.66318333415,
      "d": 326.434191666689,
      "v": 105
    },
    {
      "midi": 76,
      "hit": false,
      "t": 121669.66318333415,
      "d": 354.21582500002114,
      "v": 120
    },
    {
      "midi": 69,
      "hit": false,
      "t": 121669.66318333415,
      "d": 993.193391666704,
      "v": 83
    },
    {
      "midi": 61,
      "hit": false,
      "t": 121676.6085916675,
      "d": 1472.4265666667197,
      "v": 71
    },
    {
      "midi": 57,
      "hit": false,
      "t": 121884.9708416675,
      "d": 187.52602500001376,
      "v": 1
    },
    {
      "midi": 52,
      "hit": false,
      "t": 121898.86165833418,
      "d": 444.5061333333433,
      "v": 58
    },
    {
      "midi": 64,
      "hit": false,
      "t": 122086.38768333418,
      "d": 145.853575000001,
      "v": 100
    },
    {
      "midi": 74,
      "hit": false,
      "t": 122086.38768333418,
      "d": 145.853575000001,
      "v": 105
    },
    {
      "midi": 76,
      "hit": false,
      "t": 122093.33309166752,
      "d": 41.67244999999821,
      "v": 68
    },
    {
      "midi": 59,
      "hit": false,
      "t": 122093.33309166752,
      "d": 930.6847166666848,
      "v": 86
    },
    {
      "midi": 64,
      "hit": false,
      "t": 122301.69534166751,
      "d": 520.905625000014,
      "v": 76
    },
    {
      "midi": 57,
      "hit": false,
      "t": 122301.69534166751,
      "d": 743.1586916667002,
      "v": 92
    },
    {
      "midi": 73,
      "hit": false,
      "t": 122308.64075000085,
      "d": 673.7046083333407,
      "v": 116
    },
    {
      "midi": 71,
      "hit": false,
      "t": 122718.41984166752,
      "d": 270.8709250000102,
      "v": 105
    },
    {
      "midi": 69,
      "hit": false,
      "t": 122926.78209166753,
      "d": 1778.0245333333733,
      "v": 96
    },
    {
      "midi": 42,
      "hit": false,
      "t": 123343.50659166755,
      "d": 1326.572991666675,
      "v": 78
    },
    {
      "midi": 73,
      "hit": false,
      "t": 123343.50659166755,
      "d": 1340.4638083333411,
      "v": 109
    },
    {
      "midi": 66,
      "hit": false,
      "t": 123343.50659166755,
      "d": 1361.3000333333475,
      "v": 109
    },
    {
      "midi": 57,
      "hit": false,
      "t": 123357.39740833423,
      "d": 1583.5531000000046,
      "v": 80
    },
    {
      "midi": 54,
      "hit": false,
      "t": 123357.39740833423,
      "d": 1597.4439166666707,
      "v": 78
    },
    {
      "midi": 61,
      "hit": false,
      "t": 123357.39740833423,
      "d": 1632.1709583333432,
      "v": 69
    },
    {
      "midi": 66,
      "hit": false,
      "t": 125003.45918333424,
      "d": 291.707150000002,
      "v": 109
    },
    {
      "midi": 76,
      "hit": false,
      "t": 125003.45918333424,
      "d": 305.59796666666807,
      "v": 115
    },
    {
      "midi": 69,
      "hit": false,
      "t": 125003.45918333424,
      "d": 965.4117583333427,
      "v": 89
    },
    {
      "midi": 42,
      "hit": false,
      "t": 125017.35000000091,
      "d": 1298.791358333343,
      "v": 66
    },
    {
      "midi": 66,
      "hit": false,
      "t": 125413.23827500091,
      "d": 118.07194166666886,
      "v": 61
    },
    {
      "midi": 74,
      "hit": false,
      "t": 125413.23827500091,
      "d": 152.7989833333413,
      "v": 92
    },
    {
      "midi": 76,
      "hit": false,
      "t": 125427.12909166758,
      "d": 20.83622500000638,
      "v": 42
    },
    {
      "midi": 49,
      "hit": false,
      "t": 125427.12909166758,
      "d": 527.8510333333397,
      "v": 69
    },
    {
      "midi": 66,
      "hit": false,
      "t": 125635.49134166758,
      "d": 361.16123333333235,
      "v": 69
    },
    {
      "midi": 73,
      "hit": false,
      "t": 125635.49134166758,
      "d": 666.7592000000004,
      "v": 101
    },
    {
      "midi": 61,
      "hit": false,
      "t": 125843.85359166759,
      "d": 625.0867500000022,
      "v": 85
    },
    {
      "midi": 66,
      "hit": false,
      "t": 126052.21584166758,
      "d": 76.39949166667066,
      "v": 28
    },
    {
      "midi": 71,
      "hit": false,
      "t": 126052.21584166758,
      "d": 277.81633333333593,
      "v": 92
    },
    {
      "midi": 49,
      "hit": false,
      "t": 126052.21584166758,
      "d": 326.43419166667445,
      "v": 66
    },
    {
      "midi": 69,
      "hit": false,
      "t": 126253.63268333425,
      "d": 1715.5158583333541,
      "v": 92
    },
    {
      "midi": 57,
      "hit": false,
      "t": 126260.57809166759,
      "d": 2069.7316833333607,
      "v": 86
    },
    {
      "midi": 54,
      "hit": false,
      "t": 126468.94034166759,
      "d": 1896.0964750000421,
      "v": 71
    },
    {
      "midi": 66,
      "hit": false,
      "t": 126670.35718333426,
      "d": 2958.7439500000764,
      "v": 101
    },
    {
      "midi": 74,
      "hit": false,
      "t": 126677.3025916676,
      "d": 1340.4638083333411,
      "v": 115
    },
    {
      "midi": 38,
      "hit": false,
      "t": 126677.3025916676,
      "d": 1347.4092166666815,
      "v": 83
    },
    {
      "midi": 50,
      "hit": false,
      "t": 126677.3025916676,
      "d": 1659.9525916666898,
      "v": 89
    },
    {
      "midi": 38,
      "hit": false,
      "t": 128344.20059166763,
      "d": 1250.1735000000335,
      "v": 83
    },
    {
      "midi": 69,
      "hit": false,
      "t": 128358.0914083343,
      "d": 291.707150000002,
      "v": 86
    },
    {
      "midi": 78,
      "hit": false,
      "t": 128358.0914083343,
      "d": 312.5433750000084,
      "v": 121
    },
    {
      "midi": 69,
      "hit": false,
      "t": 128760.92509166764,
      "d": 145.853575000001,
      "v": 76
    },
    {
      "midi": 76,
      "hit": false,
      "t": 128760.92509166764,
      "d": 298.6525583333423,
      "v": 110
    },
    {
      "midi": 45,
      "hit": false,
      "t": 128760.92509166764,
      "d": 882.0668583333754,
      "v": 65
    },
    {
      "midi": 50,
      "hit": false,
      "t": 128969.28734166764,
      "d": 479.23317500001576,
      "v": 76
    },
    {
      "midi": 74,
      "hit": false,
      "t": 128983.17815833431,
      "d": 256.9801083333441,
      "v": 110
    },
    {
      "midi": 69,
      "hit": false,
      "t": 128983.17815833431,
      "d": 493.12399166668183,
      "v": 74
    },
    {
      "midi": 57,
      "hit": false,
      "t": 129177.64959166765,
      "d": 423.6699083333515,
      "v": 78
    },
    {
      "midi": 54,
      "hit": false,
      "t": 129386.01184166766,
      "d": 333.3796000000293,
      "v": 63
    },
    {
      "midi": 73,
      "hit": false,
      "t": 129399.90265833432,
      "d": 236.14388333335228,
      "v": 101
    },
    {
      "midi": 50,
      "hit": false,
      "t": 129594.37409166766,
      "d": 1347.4092166667106,
      "v": 76
    },
    {
      "midi": 71,
      "hit": false,
      "t": 129601.319500001,
      "d": 395.88827500001935,
      "v": 80
    },
    {
      "midi": 56,
      "hit": false,
      "t": 130011.09859166769,
      "d": 993.1933916666894,
      "v": 78
    },
    {
      "midi": 47,
      "hit": false,
      "t": 130011.09859166769,
      "d": 2757.327108333411,
      "v": 66
    },
    {
      "midi": 40,
      "hit": false,
      "t": 130011.09859166769,
      "d": 2854.562825000088,
      "v": 66
    },
    {
      "midi": 69,
      "hit": false,
      "t": 130024.98940833435,
      "d": 486.17858333332697,
      "v": 83
    },
    {
      "midi": 74,
      "hit": false,
      "t": 130024.98940833435,
      "d": 625.0867500000022,
      "v": 115
    },
    {
      "midi": 73,
      "hit": false,
      "t": 130629.23993333435,
      "d": 173.63520833333314,
      "v": 101
    },
    {
      "midi": 69,
      "hit": false,
      "t": 130629.23993333435,
      "d": 194.47143333333952,
      "v": 68
    },
    {
      "midi": 69,
      "hit": false,
      "t": 130844.5475916677,
      "d": 486.1785833333415,
      "v": 76
    },
    {
      "midi": 73,
      "hit": false,
      "t": 130851.49300000104,
      "d": 507.01480833333335,
      "v": 101
    },
    {
      "midi": 71,
      "hit": false,
      "t": 131462.68893333437,
      "d": 201.41684166667983,
      "v": 92
    },
    {
      "midi": 69,
      "hit": false,
      "t": 131462.68893333437,
      "d": 208.3622500000056,
      "v": 72
    },
    {
      "midi": 52,
      "hit": false,
      "t": 131677.9965916677,
      "d": 465.3423583333497,
      "v": 59
    },
    {
      "midi": 71,
      "hit": false,
      "t": 131691.88740833438,
      "d": 513.9602166666882,
      "v": 92
    },
    {
      "midi": 69,
      "hit": false,
      "t": 131698.8328166677,
      "d": 486.1785833333561,
      "v": 65
    },
    {
      "midi": 56,
      "hit": false,
      "t": 131886.3588416677,
      "d": 1083.4837000000698,
      "v": 63
    },
    {
      "midi": 59,
      "hit": false,
      "t": 132094.7210916677,
      "d": 889.0122666667448,
      "v": 78
    },
    {
      "midi": 52,
      "hit": false,
      "t": 132303.08334166775,
      "d": 715.377058333368,
      "v": 70
    },
    {
      "midi": 76,
      "hit": false,
      "t": 132518.39100000108,
      "d": 652.868383333378,
      "v": 115
    },
    {
      "midi": 78,
      "hit": false,
      "t": 132719.80784166776,
      "d": 381.9974583333533,
      "v": 101
    },
    {
      "midi": 80,
      "hit": false,
      "t": 132921.22468333444,
      "d": 347.2704166666954,
      "v": 93
    },
    {
      "midi": 81,
      "hit": false,
      "t": 133122.64152500112,
      "d": 152.7989833333413,
      "v": 96
    },
    {
      "midi": 85,
      "hit": false,
      "t": 133337.94918333445,
      "d": 1458.5357500000391,
      "v": 116
    },
    {
      "midi": 76,
      "hit": false,
      "t": 133337.94918333445,
      "d": 1555.7714666667162,
      "v": 92
    },
    {
      "midi": 52,
      "hit": false,
      "t": 133358.78540833446,
      "d": 229.19847500001197,
      "v": 65
    },
    {
      "midi": 45,
      "hit": false,
      "t": 133358.78540833446,
      "d": 2812.8903750001045,
      "v": 66
    },
    {
      "midi": 61,
      "hit": false,
      "t": 133358.78540833446,
      "d": 3292.1235500001058,
      "v": 67
    },
    {
      "midi": 52,
      "hit": false,
      "t": 133761.61909166782,
      "d": 687.5954250000068,
      "v": 55
    },
    {
      "midi": 57,
      "hit": false,
      "t": 134178.34359166783,
      "d": 895.9576750000124,
      "v": 58
    },
    {
      "midi": 52,
      "hit": false,
      "t": 134608.9589083345,
      "d": 451.4515416666691,
      "v": 61
    },
    {
      "midi": 88,
      "hit": false,
      "t": 135011.79259166782,
      "d": 298.65255833332776,
      "v": 115
    },
    {
      "midi": 81,
      "hit": false,
      "t": 135011.79259166782,
      "d": 368.10664166667266,
      "v": 86
    },
    {
      "midi": 76,
      "hit": false,
      "t": 135018.73800000115,
      "d": 333.37960000001476,
      "v": 96
    },
    {
      "midi": 52,
      "hit": false,
      "t": 135220.15484166783,
      "d": 625.0867500000459,
      "v": 59
    },
    {
      "midi": 76,
      "hit": false,
      "t": 135428.51709166783,
      "d": 69.4540833333449,
      "v": 78
    },
    {
      "midi": 86,
      "hit": false,
      "t": 135428.51709166783,
      "d": 138.9081666666898,
      "v": 115
    },
    {
      "midi": 74,
      "hit": false,
      "t": 135428.51709166783,
      "d": 284.76174166670535,
      "v": 105
    },
    {
      "midi": 81,
      "hit": false,
      "t": 135428.51709166783,
      "d": 562.5780750000558,
      "v": 62
    },
    {
      "midi": 57,
      "hit": false,
      "t": 135428.51709166783,
      "d": 583.4143000000622,
      "v": 61
    },
    {
      "midi": 85,
      "hit": false,
      "t": 135636.87934166787,
      "d": 340.3250083333405,
      "v": 78
    },
    {
      "midi": 59,
      "hit": false,
      "t": 135636.87934166787,
      "d": 1027.9204333333764,
      "v": 74
    },
    {
      "midi": 73,
      "hit": false,
      "t": 135643.8247500012,
      "d": 472.28776666670456,
      "v": 101
    },
    {
      "midi": 76,
      "hit": false,
      "t": 136053.6038416679,
      "d": 118.07194166665431,
      "v": 72
    },
    {
      "midi": 83,
      "hit": false,
      "t": 136053.6038416679,
      "d": 187.5260249999992,
      "v": 105
    },
    {
      "midi": 52,
      "hit": false,
      "t": 136053.6038416679,
      "d": 284.76174166667624,
      "v": 59
    },
    {
      "midi": 71,
      "hit": false,
      "t": 136060.54925000123,
      "d": 236.14388333333773,
      "v": 92
    },
    {
      "midi": 76,
      "hit": false,
      "t": 136261.9660916679,
      "d": 83.34489999999641,
      "v": 63
    },
    {
      "midi": 57,
      "hit": false,
      "t": 136261.9660916679,
      "d": 381.9974583333242,
      "v": 76
    },
    {
      "midi": 81,
      "hit": false,
      "t": 136261.9660916679,
      "d": 388.94286666664993,
      "v": 100
    },
    {
      "midi": 69,
      "hit": false,
      "t": 136268.91150000124,
      "d": 430.6153166666918,
      "v": 92
    },
    {
      "midi": 73,
      "hit": false,
      "t": 136678.69059166792,
      "d": 1534.9352416666516,
      "v": 109
    },
    {
      "midi": 78,
      "hit": false,
      "t": 136678.69059166792,
      "d": 1548.8260583333322,
      "v": 116
    },
    {
      "midi": 85,
      "hit": false,
      "t": 136678.69059166792,
      "d": 1548.8260583333322,
      "v": 109
    },
    {
      "midi": 42,
      "hit": false,
      "t": 136678.69059166792,
      "d": 2764.2725166665914,
      "v": 109
    },
    {
      "midi": 49,
      "hit": false,
      "t": 137109.3059083346,
      "d": 520.905625000014,
      "v": 74
    },
    {
      "midi": 61,
      "hit": false,
      "t": 137526.0304083346,
      "d": 2201.6944416665647,
      "v": 71
    },
    {
      "midi": 49,
      "hit": false,
      "t": 137734.3926583346,
      "d": 1472.4265666666033,
      "v": 56
    },
    {
      "midi": 57,
      "hit": false,
      "t": 137928.86409166793,
      "d": 1590.4985083332285,
      "v": 74
    },
    {
      "midi": 54,
      "hit": false,
      "t": 138151.1171583346,
      "d": 1736.352083333244,
      "v": 61
    },
    {
      "midi": 76,
      "hit": false,
      "t": 138345.5885916679,
      "d": 486.17858333329787,
      "v": 115
    },
    {
      "midi": 82,
      "hit": false,
      "t": 138359.4794083346,
      "d": 27.781633333332138,
      "v": 67
    },
    {
      "midi": 88,
      "hit": false,
      "t": 138359.4794083346,
      "d": 305.5979666666535,
      "v": 110
    },
    {
      "midi": 78,
      "hit": false,
      "t": 138359.4794083346,
      "d": 312.5433749999793,
      "v": 74
    },
    {
      "midi": 81,
      "hit": false,
      "t": 138359.4794083346,
      "d": 909.8484916666057,
      "v": 78
    },
    {
      "midi": 85,
      "hit": false,
      "t": 138366.42481666792,
      "d": 13.890816666680621,
      "v": 46
    },
    {
      "midi": 78,
      "hit": false,
      "t": 138755.36768333457,
      "d": 152.7989833333122,
      "v": 49
    },
    {
      "midi": 86,
      "hit": false,
      "t": 138762.3130916679,
      "d": 145.85357499998645,
      "v": 110
    },
    {
      "midi": 74,
      "hit": false,
      "t": 138769.25850000122,
      "d": 270.8709249999956,
      "v": 110
    },
    {
      "midi": 78,
      "hit": false,
      "t": 138984.56615833455,
      "d": 333.37959999998566,
      "v": 64
    },
    {
      "midi": 73,
      "hit": false,
      "t": 138984.56615833455,
      "d": 500.0693999999494,
      "v": 93
    },
    {
      "midi": 85,
      "hit": false,
      "t": 138984.56615833455,
      "d": 652.8683833332907,
      "v": 109
    },
    {
      "midi": 78,
      "hit": false,
      "t": 139401.29065833453,
      "d": 48.617858333309414,
      "v": 13
    },
    {
      "midi": 71,
      "hit": false,
      "t": 139401.29065833453,
      "d": 222.253066666628,
      "v": 92
    },
    {
      "midi": 83,
      "hit": false,
      "t": 139401.29065833453,
      "d": 270.8709249999665,
      "v": 86
    },
    {
      "midi": 69,
      "hit": false,
      "t": 139602.70750000115,
      "d": 423.66990833330783,
      "v": 86
    },
    {
      "midi": 81,
      "hit": false,
      "t": 139609.65290833448,
      "d": 1611.3347333333222,
      "v": 105
    },
    {
      "midi": 38,
      "hit": false,
      "t": 140012.4865916678,
      "d": 2583.6919000000053,
      "v": 78
    },
    {
      "midi": 74,
      "hit": false,
      "t": 140019.43200000114,
      "d": 1590.498508333345,
      "v": 120
    },
    {
      "midi": 78,
      "hit": false,
      "t": 140026.37740833446,
      "d": 1187.6648250000144,
      "v": 93
    },
    {
      "midi": 86,
      "hit": false,
      "t": 140026.37740833446,
      "d": 1243.2280916666787,
      "v": 115
    },
    {
      "midi": 50,
      "hit": false,
      "t": 140220.8488416678,
      "d": 2548.9648583333765,
      "v": 52
    },
    {
      "midi": 52,
      "hit": false,
      "t": 140637.5733416678,
      "d": 2111.404133333359,
      "v": 48
    },
    {
      "midi": 54,
      "hit": false,
      "t": 140637.5733416678,
      "d": 2160.0219916666974,
      "v": 61
    },
    {
      "midi": 81,
      "hit": false,
      "t": 141672.43918333447,
      "d": 354.21582499999204,
      "v": 86
    },
    {
      "midi": 86,
      "hit": false,
      "t": 141679.3845916678,
      "d": 27.781633333332138,
      "v": 68
    },
    {
      "midi": 90,
      "hit": false,
      "t": 141679.3845916678,
      "d": 361.1612333333469,
      "v": 109
    },
    {
      "midi": 78,
      "hit": false,
      "t": 141679.3845916678,
      "d": 423.66990833333693,
      "v": 109
    },
    {
      "midi": 57,
      "hit": false,
      "t": 141686.33000000112,
      "d": 1125.1561500000535,
      "v": 70
    },
    {
      "midi": 76,
      "hit": false,
      "t": 142096.1090916678,
      "d": 243.08929166666348,
      "v": 105
    },
    {
      "midi": 88,
      "hit": false,
      "t": 142096.1090916678,
      "d": 256.9801083333441,
      "v": 100
    },
    {
      "midi": 81,
      "hit": false,
      "t": 142103.05450000113,
      "d": 118.07194166665431,
      "v": 65
    },
    {
      "midi": 86,
      "hit": false,
      "t": 142311.41675000114,
      "d": 263.92551666666986,
      "v": 110
    },
    {
      "midi": 74,
      "hit": false,
      "t": 142318.36215833446,
      "d": 500.0694000000367,
      "v": 105
    },
    {
      "midi": 81,
      "hit": false,
      "t": 142318.36215833446,
      "d": 548.6872583333752,
      "v": 89
    },
    {
      "midi": 85,
      "hit": false,
      "t": 142728.14125000115,
      "d": 236.14388333336683,
      "v": 109
    },
    {
      "midi": 73,
      "hit": false,
      "t": 142742.03206666783,
      "d": 243.0892916666926,
      "v": 101
    },
    {
      "midi": 83,
      "hit": false,
      "t": 142929.55809166783,
      "d": 333.37960000004387,
      "v": 105
    },
    {
      "midi": 71,
      "hit": false,
      "t": 142943.4489083345,
      "d": 381.9974583333533,
      "v": 100
    },
    {
      "midi": 47,
      "hit": false,
      "t": 143137.92034166786,
      "d": 1257.1189083333302,
      "v": 74
    },
    {
      "midi": 40,
      "hit": false,
      "t": 143151.81115833455,
      "d": 2736.4908833332884,
      "v": 74
    },
    {
      "midi": 52,
      "hit": false,
      "t": 143158.75656666787,
      "d": 3035.143441666616,
      "v": 61
    },
    {
      "midi": 74,
      "hit": false,
      "t": 143346.28259166787,
      "d": 638.9775666666683,
      "v": 105
    },
    {
      "midi": 81,
      "hit": false,
      "t": 143346.28259166787,
      "d": 805.6673666666611,
      "v": 89
    },
    {
      "midi": 59,
      "hit": false,
      "t": 143346.28259166787,
      "d": 3007.361808333284,
      "v": 83
    },
    {
      "midi": 86,
      "hit": false,
      "t": 143353.2280000012,
      "d": 632.0321583333425,
      "v": 115
    },
    {
      "midi": 73,
      "hit": false,
      "t": 143964.42393333453,
      "d": 187.5260249999992,
      "v": 109
    },
    {
      "midi": 85,
      "hit": false,
      "t": 143964.42393333453,
      "d": 187.5260249999992,
      "v": 93
    },
    {
      "midi": 81,
      "hit": false,
      "t": 144179.73159166786,
      "d": 472.28776666667545,
      "v": 45
    },
    {
      "midi": 85,
      "hit": false,
      "t": 144186.6770000012,
      "d": 500.0694000000076,
      "v": 101
    },
    {
      "midi": 73,
      "hit": false,
      "t": 144186.6770000012,
      "d": 507.01480833333335,
      "v": 93
    },
    {
      "midi": 71,
      "hit": false,
      "t": 144783.98211666784,
      "d": 173.6352083333186,
      "v": 92
    },
    {
      "midi": 83,
      "hit": false,
      "t": 144790.92752500117,
      "d": 187.5260249999992,
      "v": 86
    },
    {
      "midi": 71,
      "hit": false,
      "t": 144999.28977500118,
      "d": 1923.8781083333015,
      "v": 96
    },
    {
      "midi": 83,
      "hit": false,
      "t": 145006.2351833345,
      "d": 2021.1138249999785,
      "v": 100
    },
    {
      "midi": 50,
      "hit": false,
      "t": 145013.18059166783,
      "d": 1284.9005416666623,
      "v": 56
    },
    {
      "midi": 56,
      "hit": false,
      "t": 145013.18059166783,
      "d": 1291.845949999988,
      "v": 57
    },
    {
      "midi": 45,
      "hit": false,
      "t": 148360.86740833448,
      "d": 1041.8112499999988,
      "v": 76
    },
    {
      "midi": 61,
      "hit": false,
      "t": 148367.8128166678,
      "d": 701.4862416666874,
      "v": 85
    },
    {
      "midi": 57,
      "hit": false,
      "t": 148374.75822500113,
      "d": 659.8137916666747,
      "v": 72
    },
    {
      "midi": 59,
      "hit": false,
      "t": 148374.75822500113,
      "d": 673.7046083333553,
      "v": 72
    },
    {
      "midi": 64,
      "hit": false,
      "t": 148388.6490416678,
      "d": 618.1413416666619,
      "v": 48
    },
    {
      "midi": 59,
      "hit": false,
      "t": 149180.42559166782,
      "d": 784.8311416666547,
      "v": 92
    },
    {
      "midi": 64,
      "hit": false,
      "t": 149180.42559166782,
      "d": 791.7765499999805,
      "v": 96
    },
    {
      "midi": 61,
      "hit": false,
      "t": 149180.42559166782,
      "d": 798.7219583333062,
      "v": 85
    },
    {
      "midi": 57,
      "hit": false,
      "t": 149187.37100000115,
      "d": 520.905625000014,
      "v": 76
    },
    {
      "midi": 45,
      "hit": false,
      "t": 149611.0409083345,
      "d": 333.37959999998566,
      "v": 83
    },
    {
      "midi": 57,
      "hit": false,
      "t": 149826.34856666782,
      "d": 131.96275833333493,
      "v": 61
    },
    {
      "midi": 57,
      "hit": false,
      "t": 150027.76540833447,
      "d": 680.6500166666519,
      "v": 80
    },
    {
      "midi": 61,
      "hit": false,
      "t": 150027.76540833447,
      "d": 701.4862416666583,
      "v": 71
    },
    {
      "midi": 64,
      "hit": false,
      "t": 150034.7108166678,
      "d": 687.5954250000068,
      "v": 92
    },
    {
      "midi": 59,
      "hit": false,
      "t": 150034.7108166678,
      "d": 694.5408333333326,
      "v": 86
    },
    {
      "midi": 45,
      "hit": false,
      "t": 150034.7108166678,
      "d": 951.5209416666476,
      "v": 89
    },
    {
      "midi": 61,
      "hit": false,
      "t": 150840.37818333445,
      "d": 312.5433750000084,
      "v": 85
    },
    {
      "midi": 57,
      "hit": false,
      "t": 150847.32359166778,
      "d": 62.508674999990035,
      "v": 65
    },
    {
      "midi": 64,
      "hit": false,
      "t": 150847.32359166778,
      "d": 291.707150000002,
      "v": 96
    },
    {
      "midi": 59,
      "hit": false,
      "t": 150847.32359166778,
      "d": 305.5979666666826,
      "v": 96
    },
    {
      "midi": 57,
      "hit": false,
      "t": 151055.6858416678,
      "d": 111.12653333335766,
      "v": 72
    },
    {
      "midi": 45,
      "hit": false,
      "t": 151236.2664583345,
      "d": 125.01735000000917,
      "v": 70
    },
    {
      "midi": 56,
      "hit": false,
      "t": 151472.41034166783,
      "d": 131.96275833333493,
      "v": 56
    },
    {
      "midi": 53,
      "hit": false,
      "t": 151500.19197500116,
      "d": 55.563266666664276,
      "v": 17
    },
    {
      "midi": 37,
      "hit": false,
      "t": 151680.77259166783,
      "d": 1062.647474999976,
      "v": 71
    },
    {
      "midi": 61,
      "hit": false,
      "t": 151687.71800000116,
      "d": 722.3224666666647,
      "v": 74
    },
    {
      "midi": 49,
      "hit": false,
      "t": 151687.71800000116,
      "d": 1027.9204333333182,
      "v": 67
    },
    {
      "midi": 56,
      "hit": false,
      "t": 151694.66340833448,
      "d": 465.3423583333497,
      "v": 85
    },
    {
      "midi": 53,
      "hit": false,
      "t": 152111.3879083345,
      "d": 305.5979666666535,
      "v": 74
    },
    {
      "midi": 56,
      "hit": false,
      "t": 152326.69556666783,
      "d": 90.29030833332217,
      "v": 46
    },
    {
      "midi": 53,
      "hit": false,
      "t": 152514.22159166783,
      "d": 562.5780749999394,
      "v": 89
    },
    {
      "midi": 61,
      "hit": false,
      "t": 152521.16700000115,
      "d": 736.213283333258,
      "v": 109
    },
    {
      "midi": 56,
      "hit": false,
      "t": 152528.11240833448,
      "d": 736.213283333258,
      "v": 116
    },
    {
      "midi": 49,
      "hit": false,
      "t": 152917.05527500113,
      "d": 340.3250083332823,
      "v": 66
    },
    {
      "midi": 37,
      "hit": false,
      "t": 152924.00068333445,
      "d": 319.48878333330504,
      "v": 74
    },
    {
      "midi": 53,
      "hit": false,
      "t": 153139.30834166775,
      "d": 111.12653333332855,
      "v": 28
    },
    {
      "midi": 49,
      "hit": false,
      "t": 153340.7251833344,
      "d": 951.5209416666767,
      "v": 61
    },
    {
      "midi": 37,
      "hit": false,
      "t": 153340.7251833344,
      "d": 1298.791358333372,
      "v": 71
    },
    {
      "midi": 61,
      "hit": false,
      "t": 153347.67059166773,
      "d": 736.2132833333453,
      "v": 78
    },
    {
      "midi": 56,
      "hit": false,
      "t": 153354.61600000106,
      "d": 736.2132833333453,
      "v": 109
    },
    {
      "midi": 53,
      "hit": false,
      "t": 153354.61600000106,
      "d": 750.1041000000259,
      "v": 92
    },
    {
      "midi": 53,
      "hit": false,
      "t": 154181.11959166775,
      "d": 402.83368333333055,
      "v": 76
    },
    {
      "midi": 61,
      "hit": false,
      "t": 154181.11959166775,
      "d": 486.1785833333561,
      "v": 93
    },
    {
      "midi": 56,
      "hit": false,
      "t": 154188.06500000108,
      "d": 409.7790916666854,
      "v": 101
    },
    {
      "midi": 49,
      "hit": false,
      "t": 154570.0624583344,
      "d": 270.87092500005383,
      "v": 93
    },
    {
      "midi": 42,
      "hit": false,
      "t": 155000.67777500112,
      "d": 361.1612333333178,
      "v": 78
    },
    {
      "midi": 54,
      "hit": false,
      "t": 155000.67777500112,
      "d": 381.9974583333242,
      "v": 101
    },
    {
      "midi": 61,
      "hit": false,
      "t": 155000.67777500112,
      "d": 451.4515416666691,
      "v": 71
    },
    {
      "midi": 57,
      "hit": false,
      "t": 155007.62318333445,
      "d": 395.8882750000048,
      "v": 96
    },
    {
      "midi": 42,
      "hit": false,
      "t": 155417.40227500114,
      "d": 632.0321583333425,
      "v": 18
    },
    {
      "midi": 54,
      "hit": false,
      "t": 155611.87370833446,
      "d": 381.9974583333533,
      "v": 21
    },
    {
      "midi": 69,
      "hit": false,
      "t": 155841.07218333447,
      "d": 486.17858333332697,
      "v": 86
    },
    {
      "midi": 73,
      "hit": false,
      "t": 155841.07218333447,
      "d": 486.17858333332697,
      "v": 74
    },
    {
      "midi": 66,
      "hit": false,
      "t": 155841.07218333447,
      "d": 507.01480833333335,
      "v": 78
    },
    {
      "midi": 54,
      "hit": false,
      "t": 156243.9058666678,
      "d": 236.14388333333773,
      "v": 74
    },
    {
      "midi": 42,
      "hit": false,
      "t": 156250.85127500113,
      "d": 326.434191666689,
      "v": 74
    },
    {
      "midi": 42,
      "hit": false,
      "t": 156674.5211833345,
      "d": 770.9403250000032,
      "v": 101
    },
    {
      "midi": 57,
      "hit": false,
      "t": 156681.46659166782,
      "d": 430.6153166666627,
      "v": 100
    },
    {
      "midi": 54,
      "hit": false,
      "t": 156688.41200000115,
      "d": 250.03469999998924,
      "v": 85
    },
    {
      "midi": 61,
      "hit": false,
      "t": 156688.41200000115,
      "d": 645.922974999994,
      "v": 69
    },
    {
      "midi": 54,
      "hit": false,
      "t": 157098.1910916678,
      "d": 500.0694000000367,
      "v": 93
    },
    {
      "midi": 57,
      "hit": false,
      "t": 157348.22579166782,
      "d": 69.4540833333449,
      "v": 43
    },
    {
      "midi": 42,
      "hit": false,
      "t": 157514.91559166784,
      "d": 319.48878333333414,
      "v": 71
    },
    {
      "midi": 57,
      "hit": false,
      "t": 157521.86100000117,
      "d": 243.08929166666348,
      "v": 100
    },
    {
      "midi": 61,
      "hit": false,
      "t": 157528.8064083345,
      "d": 277.8163333333505,
      "v": 109
    },
    {
      "midi": 54,
      "hit": false,
      "t": 157716.3324333345,
      "d": 69.4540833333449,
      "v": 101
    },
    {
      "midi": 42,
      "hit": false,
      "t": 157903.85845833452,
      "d": 97.23571666667704,
      "v": 23
    },
    {
      "midi": 66,
      "hit": false,
      "t": 158146.94775000119,
      "d": 83.34489999999641,
      "v": 46
    },
    {
      "midi": 62,
      "hit": false,
      "t": 158153.8931583345,
      "d": 83.34489999999641,
      "v": 66
    },
    {
      "midi": 50,
      "hit": false,
      "t": 158327.52836666786,
      "d": 958.4663499999733,
      "v": 74
    },
    {
      "midi": 38,
      "hit": false,
      "t": 158327.52836666786,
      "d": 1250.1734999999753,
      "v": 83
    },
    {
      "midi": 66,
      "hit": false,
      "t": 158334.47377500118,
      "d": 757.0495083333226,
      "v": 85
    },
    {
      "midi": 57,
      "hit": false,
      "t": 158341.4191833345,
      "d": 743.1586916666711,
      "v": 105
    },
    {
      "midi": 62,
      "hit": false,
      "t": 158341.4191833345,
      "d": 750.1040999999968,
      "v": 110
    },
    {
      "midi": 62,
      "hit": false,
      "t": 159181.81359166783,
      "d": 451.4515416666691,
      "v": 96
    },
    {
      "midi": 66,
      "hit": false,
      "t": 159181.81359166783,
      "d": 472.28776666667545,
      "v": 93
    },
    {
      "midi": 57,
      "hit": false,
      "t": 159188.75900000116,
      "d": 409.7790916666854,
      "v": 76
    },
    {
      "midi": 50,
      "hit": false,
      "t": 159570.7564583345,
      "d": 326.4341916666599,
      "v": 86
    },
    {
      "midi": 59,
      "hit": false,
      "t": 159786.06411666784,
      "d": 83.34489999999641,
      "v": 44
    },
    {
      "midi": 40,
      "hit": false,
      "t": 159994.42636666785,
      "d": 743.1586916667002,
      "v": 78
    },
    {
      "midi": 59,
      "hit": false,
      "t": 160001.37177500117,
      "d": 930.6847166667285,
      "v": 105
    },
    {
      "midi": 52,
      "hit": false,
      "t": 160008.3171833345,
      "d": 715.377058333368,
      "v": 80
    },
    {
      "midi": 64,
      "hit": false,
      "t": 160008.3171833345,
      "d": 1173.774008333421,
      "v": 115
    },
    {
      "midi": 68,
      "hit": false,
      "t": 160008.3171833345,
      "d": 1277.9551333334239,
      "v": 93
    },
    {
      "midi": 66,
      "hit": false,
      "t": 160015.26259166782,
      "d": 27.781633333361242,
      "v": 64
    },
    {
      "midi": 40,
      "hit": false,
      "t": 160841.76618333455,
      "d": 750.1041000000259,
      "v": 105
    },
    {
      "midi": 52,
      "hit": false,
      "t": 160855.65700000123,
      "d": 90.29030833335128,
      "v": 83
    },
    {
      "midi": 59,
      "hit": false,
      "t": 161070.9646583346,
      "d": 243.08929166666348,
      "v": 80
    },
    {
      "midi": 52,
      "hit": false,
      "t": 161251.54527500126,
      "d": 298.65255833329866,
      "v": 80
    },
    {
      "midi": 61,
      "hit": false,
      "t": 161452.9621166679,
      "d": 145.85357499998645,
      "v": 41
    },
    {
      "midi": 57,
      "hit": false,
      "t": 161459.90752500124,
      "d": 118.07194166665431,
      "v": 57
    },
    {
      "midi": 57,
      "hit": false,
      "t": 161668.26977500124,
      "d": 791.7765499999805,
      "v": 96
    },
    {
      "midi": 64,
      "hit": false,
      "t": 161675.21518333457,
      "d": 743.1586916666711,
      "v": 96
    },
    {
      "midi": 61,
      "hit": false,
      "t": 161675.21518333457,
      "d": 750.1040999999968,
      "v": 109
    },
    {
      "midi": 45,
      "hit": false,
      "t": 161675.21518333457,
      "d": 993.1933916666603,
      "v": 100
    },
    {
      "midi": 69,
      "hit": false,
      "t": 161689.10600000125,
      "d": 97.23571666664793,
      "v": 57
    },
    {
      "midi": 61,
      "hit": false,
      "t": 162501.71877500124,
      "d": 750.1040999999677,
      "v": 64
    },
    {
      "midi": 64,
      "hit": false,
      "t": 162501.71877500124,
      "d": 750.1040999999677,
      "v": 70
    },
    {
      "midi": 69,
      "hit": false,
      "t": 162508.66418333456,
      "d": 687.5954249999777,
      "v": 78
    },
    {
      "midi": 57,
      "hit": false,
      "t": 162508.66418333456,
      "d": 715.3770583333098,
      "v": 16
    },
    {
      "midi": 33,
      "hit": false,
      "t": 162911.4978666679,
      "d": 312.5433749999793,
      "v": 96
    },
    {
      "midi": 45,
      "hit": false,
      "t": 162911.4978666679,
      "d": 333.37959999998566,
      "v": 92
    },
    {
      "midi": 76,
      "hit": false,
      "t": 163133.75093333455,
      "d": 62.508674999990035,
      "v": 100
    },
    {
      "midi": 73,
      "hit": false,
      "t": 163133.75093333455,
      "d": 69.4540833333158,
      "v": 101
    },
    {
      "midi": 81,
      "hit": false,
      "t": 163140.69634166788,
      "d": 83.34489999999641,
      "v": 86
    },
    {
      "midi": 81,
      "hit": false,
      "t": 163279.60450833454,
      "d": 97.23571666664793,
      "v": 92
    },
    {
      "midi": 76,
      "hit": false,
      "t": 163286.54991666786,
      "d": 62.50867499996093,
      "v": 115
    },
    {
      "midi": 73,
      "hit": false,
      "t": 163293.4953250012,
      "d": 48.617858333309414,
      "v": 116
    },
    {
      "midi": 57,
      "hit": false,
      "t": 163328.22236666785,
      "d": 263.92551666666986,
      "v": 86
    },
    {
      "midi": 45,
      "hit": false,
      "t": 163328.22236666785,
      "d": 965.4117583333864,
      "v": 76
    },
    {
      "midi": 33,
      "hit": false,
      "t": 163328.22236666785,
      "d": 1264.0643166667433,
      "v": 96
    },
    {
      "midi": 61,
      "hit": false,
      "t": 163335.16777500117,
      "d": 465.3423583333497,
      "v": 93
    },
    {
      "midi": 69,
      "hit": false,
      "t": 163335.16777500117,
      "d": 687.5954250000359,
      "v": 86
    },
    {
      "midi": 64,
      "hit": false,
      "t": 163335.16777500117,
      "d": 777.8857333333872,
      "v": 92
    },
    {
      "midi": 57,
      "hit": false,
      "t": 163765.78309166786,
      "d": 347.2704166666954,
      "v": 62
    },
    {
      "midi": 61,
      "hit": false,
      "t": 163974.14534166787,
      "d": 125.01735000000917,
      "v": 53
    },
    {
      "midi": 61,
      "hit": false,
      "t": 164182.5075916679,
      "d": 479.2331750000303,
      "v": 93
    },
    {
      "midi": 64,
      "hit": false,
      "t": 164182.5075916679,
      "d": 555.632666666701,
      "v": 100
    },
    {
      "midi": 57,
      "hit": false,
      "t": 164189.45300000123,
      "d": 104.1811250000028,
      "v": 63
    },
    {
      "midi": 69,
      "hit": false,
      "t": 164189.45300000123,
      "d": 458.39695000002393,
      "v": 89
    },
    {
      "midi": 57,
      "hit": false,
      "t": 164446.43310833458,
      "d": 76.39949166667066,
      "v": 1
    },
    {
      "midi": 45,
      "hit": false,
      "t": 164592.2866833346,
      "d": 173.6352083333477,
      "v": 86
    },
    {
      "midi": 57,
      "hit": false,
      "t": 164786.75811666794,
      "d": 159.74439166666707,
      "v": 51
    },
    {
      "midi": 62,
      "hit": false,
      "t": 164807.59434166795,
      "d": 138.9081666666607,
      "v": 58
    },
    {
      "midi": 62,
      "hit": false,
      "t": 165029.8474083346,
      "d": 729.2678749999905,
      "v": 115
    },
    {
      "midi": 57,
      "hit": false,
      "t": 165029.8474083346,
      "d": 736.2132833333162,
      "v": 100
    },
    {
      "midi": 50,
      "hit": false,
      "t": 165029.8474083346,
      "d": 909.8484916666639,
      "v": 100
    },
    {
      "midi": 38,
      "hit": false,
      "t": 165029.8474083346,
      "d": 1020.9750249999925,
      "v": 86
    },
    {
      "midi": 66,
      "hit": false,
      "t": 165036.79281666793,
      "d": 715.3770583333389,
      "v": 109
    },
    {
      "midi": 62,
      "hit": false,
      "t": 165849.40559166795,
      "d": 444.5061333333142,
      "v": 105
    },
    {
      "midi": 66,
      "hit": false,
      "t": 165849.40559166795,
      "d": 736.2132833333162,
      "v": 101
    },
    {
      "midi": 57,
      "hit": false,
      "t": 165856.35100000128,
      "d": 590.3597083333298,
      "v": 76
    },
    {
      "midi": 50,
      "hit": false,
      "t": 166231.40305000127,
      "d": 125.01734999998007,
      "v": 96
    },
    {
      "midi": 38,
      "hit": false,
      "t": 166238.3484583346,
      "d": 159.74439166666707,
      "v": 74
    },
    {
      "midi": 62,
      "hit": false,
      "t": 166446.7107083346,
      "d": 180.58061666667345,
      "v": 76
    },
    {
      "midi": 62,
      "hit": false,
      "t": 166668.9637750013,
      "d": 750.1040999999968,
      "v": 100
    },
    {
      "midi": 35,
      "hit": false,
      "t": 166668.9637750013,
      "d": 1673.8434083333705,
      "v": 72
    },
    {
      "midi": 66,
      "hit": false,
      "t": 166675.90918333462,
      "d": 729.2678749999905,
      "v": 109
    },
    {
      "midi": 59,
      "hit": false,
      "t": 166675.90918333462,
      "d": 743.1586916666711,
      "v": 110
    },
    {
      "midi": 47,
      "hit": false,
      "t": 166675.90918333462,
      "d": 930.6847166666412,
      "v": 78
    },
    {
      "midi": 62,
      "hit": false,
      "t": 167509.3581833346,
      "d": 333.37959999998566,
      "v": 96
    },
    {
      "midi": 59,
      "hit": false,
      "t": 167509.3581833346,
      "d": 347.2704166666663,
      "v": 41
    },
    {
      "midi": 66,
      "hit": false,
      "t": 167516.30359166794,
      "d": 305.5979666666535,
      "v": 101
    },
    {
      "midi": 47,
      "hit": false,
      "t": 167905.24645833462,
      "d": 381.9974583333533,
      "v": 54
    },
    {
      "midi": 52,
      "hit": false,
      "t": 167988.5913583346,
      "d": 263.92551666669897,
      "v": 39
    },
    {
      "midi": 57,
      "hit": false,
      "t": 168169.17197500129,
      "d": 111.12653333335766,
      "v": 41
    },
    {
      "midi": 59,
      "hit": false,
      "t": 168190.0082000013,
      "d": 48.61785833333852,
      "v": 22
    },
    {
      "midi": 52,
      "hit": false,
      "t": 168370.588816668,
      "d": 826.5035916666675,
      "v": 96
    },
    {
      "midi": 57,
      "hit": false,
      "t": 168370.588816668,
      "d": 1527.989833333355,
      "v": 96
    },
    {
      "midi": 59,
      "hit": false,
      "t": 168370.588816668,
      "d": 2000.2776000000304,
      "v": 96
    },
    {
      "midi": 64,
      "hit": false,
      "t": 168377.53422500132,
      "d": 652.8683833333489,
      "v": 110
    },
    {
      "midi": 40,
      "hit": false,
      "t": 168377.53422500132,
      "d": 1076.5382916666858,
      "v": 78
    },
    {
      "midi": 64,
      "hit": false,
      "t": 169190.14700000134,
      "d": 1069.59288333336,
      "v": 96
    },
    {
      "midi": 40,
      "hit": false,
      "t": 169586.03527500134,
      "d": 1194.6102333333693,
      "v": 105
    },
    {
      "midi": 52,
      "hit": false,
      "t": 170002.75977500135,
      "d": 312.5433750000084,
      "v": 92
    },
    {
      "midi": 52,
      "hit": false,
      "t": 170419.48427500136,
      "d": 1173.7740083333338,
      "v": 105
    },
    {
      "midi": 59,
      "hit": false,
      "t": 170433.37509166804,
      "d": 55.563266666664276,
      "v": 26
    },
    {
      "midi": 57,
      "hit": false,
      "t": 170627.84652500137,
      "d": 465.3423583333497,
      "v": 96
    },
    {
      "midi": 40,
      "hit": false,
      "t": 170843.1541833347,
      "d": 743.1586916666711,
      "v": 89
    },
    {
      "midi": 64,
      "hit": false,
      "t": 171044.57102500138,
      "d": 458.39694999999483,
      "v": 110
    },
    {
      "midi": 59,
      "hit": false,
      "t": 171051.5164333347,
      "d": 27.781633333332138,
      "v": 65
    },
    {
      "midi": 59,
      "hit": false,
      "t": 171252.9332750014,
      "d": 347.2704166666372,
      "v": 72
    },
    {
      "midi": 64,
      "hit": false,
      "t": 171676.6031833347,
      "d": 645.922974999994,
      "v": 105
    },
    {
      "midi": 59,
      "hit": false,
      "t": 171676.6031833347,
      "d": 750.1040999999968,
      "v": 96
    },
    {
      "midi": 52,
      "hit": false,
      "t": 171676.6031833347,
      "d": 1104.3199249999598,
      "v": 96
    },
    {
      "midi": 56,
      "hit": false,
      "t": 171683.54859166802,
      "d": 729.2678749999905,
      "v": 116
    },
    {
      "midi": 40,
      "hit": false,
      "t": 171683.54859166802,
      "d": 951.5209416666476,
      "v": 96
    },
    {
      "midi": 56,
      "hit": false,
      "t": 172510.0521833347,
      "d": 388.94286666664993,
      "v": 93
    },
    {
      "midi": 59,
      "hit": false,
      "t": 172510.0521833347,
      "d": 555.6326666666428,
      "v": 92
    },
    {
      "midi": 64,
      "hit": false,
      "t": 172516.997591668,
      "d": 694.5408333333035,
      "v": 96
    },
    {
      "midi": 40,
      "hit": false,
      "t": 172725.359841668,
      "d": 152.7989833333413,
      "v": 83
    },
    {
      "midi": 40,
      "hit": false,
      "t": 172933.722091668,
      "d": 187.5260249999992,
      "v": 70
    },
    {
      "midi": 52,
      "hit": false,
      "t": 172947.61290833468,
      "d": 125.01734999998007,
      "v": 72
    },
    {
      "midi": 59,
      "hit": false,
      "t": 173142.084341668,
      "d": 97.23571666667704,
      "v": 37
    },
    {
      "midi": 52,
      "hit": false,
      "t": 173149.02975000133,
      "d": 76.39949166667066,
      "v": 44
    },
    {
      "midi": 56,
      "hit": false,
      "t": 173155.97515833465,
      "d": 69.4540833333449,
      "v": 60
    },
    {
      "midi": 52,
      "hit": false,
      "t": 173336.55577500135,
      "d": 277.8163333333214,
      "v": 96
    },
    {
      "midi": 64,
      "hit": false,
      "t": 173336.55577500135,
      "d": 694.5408333333035,
      "v": 110
    },
    {
      "midi": 42,
      "hit": false,
      "t": 173336.55577500135,
      "d": 854.2852249999996,
      "v": 101
    },
    {
      "midi": 56,
      "hit": false,
      "t": 173343.50118333468,
      "d": 736.2132833333162,
      "v": 116
    },
    {
      "midi": 59,
      "hit": false,
      "t": 173343.50118333468,
      "d": 757.0495083333226,
      "v": 100
    },
    {
      "midi": 52,
      "hit": false,
      "t": 173732.44405000133,
      "d": 381.9974583333533,
      "v": 59
    },
    {
      "midi": 56,
      "hit": false,
      "t": 174183.89559166803,
      "d": 395.8882749999757,
      "v": 116
    },
    {
      "midi": 44,
      "hit": false,
      "t": 174183.89559166803,
      "d": 520.9056249999849,
      "v": 93
    },
    {
      "midi": 59,
      "hit": false,
      "t": 174183.89559166803,
      "d": 527.8510333333106,
      "v": 92
    },
    {
      "midi": 52,
      "hit": false,
      "t": 174183.89559166803,
      "d": 708.4316499999841,
      "v": 86
    },
    {
      "midi": 64,
      "hit": false,
      "t": 174190.84100000135,
      "d": 402.83368333333055,
      "v": 100
    },
    {
      "midi": 57,
      "hit": false,
      "t": 174628.40172500134,
      "d": 270.8709249999956,
      "v": 53
    },
    {
      "midi": 61,
      "hit": false,
      "t": 175003.45377500134,
      "d": 632.0321583333716,
      "v": 101
    },
    {
      "midi": 52,
      "hit": false,
      "t": 175010.39918333467,
      "d": 256.9801083333441,
      "v": 96
    },
    {
      "midi": 45,
      "hit": false,
      "t": 175010.39918333467,
      "d": 618.1413416667201,
      "v": 105
    },
    {
      "midi": 64,
      "hit": false,
      "t": 175024.29000000135,
      "d": 312.5433750000084,
      "v": 70
    },
    {
      "midi": 57,
      "hit": false,
      "t": 175031.23540833467,
      "d": 604.2505250000395,
      "v": 54
    },
    {
      "midi": 76,
      "hit": false,
      "t": 175031.23540833467,
      "d": 791.7765500000387,
      "v": 76
    },
    {
      "midi": 73,
      "hit": false,
      "t": 175031.23540833467,
      "d": 2389.2204666666803,
      "v": 59
    },
    {
      "midi": 69,
      "hit": false,
      "t": 175031.23540833467,
      "d": 2417.0021000000415,
      "v": 52
    },
    {
      "midi": 52,
      "hit": false,
      "t": 175434.06909166803,
      "d": 187.5260250000283,
      "v": 55
    },
    {
      "midi": 64,
      "hit": false,
      "t": 175447.9599083347,
      "d": 736.2132833333162,
      "v": 56
    },
    {
      "midi": 76,
      "hit": false,
      "t": 175850.79359166804,
      "d": 1354.3546249999781,
      "v": 35
    },
    {
      "midi": 71,
      "hit": false,
      "t": 175850.79359166804,
      "d": 1583.55309999999,
      "v": 58
    },
    {
      "midi": 64,
      "hit": false,
      "t": 176267.51809166803,
      "d": 611.1959333333361,
      "v": 60
    },
    {
      "midi": 45,
      "hit": false,
      "t": 176684.24259166804,
      "d": 1291.845949999988,
      "v": 60
    },
    {
      "midi": 64,
      "hit": false,
      "t": 177094.0216833347,
      "d": 548.687258333317,
      "v": 48
    },
    {
      "midi": 57,
      "hit": false,
      "t": 177128.74872500135,
      "d": 757.0495083333226,
      "v": 32
    },
    {
      "midi": 69,
      "hit": false,
      "t": 177510.7461833347,
      "d": 284.76174166664714,
      "v": 28
    },
    {
      "midi": 73,
      "hit": false,
      "t": 177510.7461833347,
      "d": 673.7046083333553,
      "v": 32
    },
    {
      "midi": 76,
      "hit": false,
      "t": 177517.69159166803,
      "d": 569.5234833333525,
      "v": 76
    },
    {
      "midi": 64,
      "hit": false,
      "t": 177719.10843333468,
      "d": 270.8709250000247,
      "v": 67
    },
    {
      "midi": 71,
      "hit": false,
      "t": 177927.4706833347,
      "d": 229.19847500004107,
      "v": 60
    },
    {
      "midi": 69,
      "hit": false,
      "t": 177927.4706833347,
      "d": 250.03470000004745,
      "v": 51
    },
    {
      "midi": 64,
      "hit": false,
      "t": 178135.83293333472,
      "d": 1139.0469666666759,
      "v": 58
    },
    {
      "midi": 73,
      "hit": false,
      "t": 178344.19518333473,
      "d": 2437.838325000019,
      "v": 73
    },
    {
      "midi": 76,
      "hit": false,
      "t": 178351.14059166805,
      "d": 1486.317383333313,
      "v": 76
    },
    {
      "midi": 69,
      "hit": false,
      "t": 178351.14059166805,
      "d": 2361.438833333348,
      "v": 64
    },
    {
      "midi": 66,
      "hit": false,
      "t": 178351.14059166805,
      "d": 2410.0566916666867,
      "v": 69
    },
    {
      "midi": 42,
      "hit": false,
      "t": 178351.14059166805,
      "d": 2854.56282500003,
      "v": 69
    },
    {
      "midi": 54,
      "hit": false,
      "t": 179010.95438333473,
      "d": 2021.1138250000367,
      "v": 54
    },
    {
      "midi": 64,
      "hit": false,
      "t": 179608.25950000138,
      "d": 694.5408333333326,
      "v": 51
    },
    {
      "midi": 76,
      "hit": false,
      "t": 180018.03859166804,
      "d": 611.1959333333361,
      "v": 52
    },
    {
      "midi": 64,
      "hit": false,
      "t": 180441.70850000138,
      "d": 284.76174166670535,
      "v": 48
    },
    {
      "midi": 76,
      "hit": false,
      "t": 180851.4875916681,
      "d": 472.28776666664635,
      "v": 70
    },
    {
      "midi": 69,
      "hit": false,
      "t": 180851.4875916681,
      "d": 534.7964416666364,
      "v": 54
    },
    {
      "midi": 73,
      "hit": false,
      "t": 180851.4875916681,
      "d": 652.8683833333198,
      "v": 54
    },
    {
      "midi": 66,
      "hit": false,
      "t": 181059.8498416681,
      "d": 256.980108333315,
      "v": 49
    },
    {
      "midi": 64,
      "hit": false,
      "t": 181268.21209166807,
      "d": 284.76174166667624,
      "v": 60
    },
    {
      "midi": 38,
      "hit": false,
      "t": 181677.99118333476,
      "d": 2861.5082333332975,
      "v": 70
    },
    {
      "midi": 62,
      "hit": false,
      "t": 181684.93659166808,
      "d": 944.5755333333218,
      "v": 67
    },
    {
      "midi": 69,
      "hit": false,
      "t": 181684.93659166808,
      "d": 2305.8755666666257,
      "v": 60
    },
    {
      "midi": 66,
      "hit": false,
      "t": 181684.93659166808,
      "d": 2312.8209749999514,
      "v": 49
    },
    {
      "midi": 74,
      "hit": false,
      "t": 181691.8820000014,
      "d": 1514.0990166666452,
      "v": 76
    },
    {
      "midi": 50,
      "hit": false,
      "t": 182511.44018333475,
      "d": 2083.6224999999686,
      "v": 60
    },
    {
      "midi": 62,
      "hit": false,
      "t": 182928.16468333473,
      "d": 722.3224666666356,
      "v": 49
    },
    {
      "midi": 74,
      "hit": false,
      "t": 183344.88918333472,
      "d": 652.8683833333198,
      "v": 60
    },
    {
      "midi": 62,
      "hit": false,
      "t": 183768.55909166802,
      "d": 312.5433750000084,
      "v": 44
    },
    {
      "midi": 66,
      "hit": false,
      "t": 184185.28359166803,
      "d": 131.96275833333493,
      "v": 32
    },
    {
      "midi": 74,
      "hit": false,
      "t": 184185.28359166803,
      "d": 527.8510333333688,
      "v": 73
    },
    {
      "midi": 64,
      "hit": false,
      "t": 184199.17440833471,
      "d": 298.65255833332776,
      "v": 54
    },
    {
      "midi": 69,
      "hit": false,
      "t": 184400.59125000137,
      "d": 555.6326666667301,
      "v": 51
    },
    {
      "midi": 66,
      "hit": false,
      "t": 184615.89890833473,
      "d": 277.8163333333505,
      "v": 42
    },
    {
      "midi": 62,
      "hit": false,
      "t": 184824.26115833473,
      "d": 90.29030833335128,
      "v": 47
    },
    {
      "midi": 40,
      "hit": false,
      "t": 185018.7325916681,
      "d": 1319.6275833333784,
      "v": 54
    },
    {
      "midi": 64,
      "hit": false,
      "t": 185025.6780000014,
      "d": 187.5260249999992,
      "v": 64
    },
    {
      "midi": 71,
      "hit": false,
      "t": 185032.62340833474,
      "d": 2451.7291416666994,
      "v": 56
    },
    {
      "midi": 68,
      "hit": false,
      "t": 185032.62340833474,
      "d": 2833.7265999999945,
      "v": 54
    },
    {
      "midi": 64,
      "hit": false,
      "t": 185442.40250000142,
      "d": 590.3597083333589,
      "v": 48
    },
    {
      "midi": 52,
      "hit": false,
      "t": 185456.2933166681,
      "d": 812.612775000016,
      "v": 22
    },
    {
      "midi": 74,
      "hit": false,
      "t": 185859.12700000143,
      "d": 1590.498508333345,
      "v": 56
    },
    {
      "midi": 64,
      "hit": false,
      "t": 186268.90609166812,
      "d": 402.83368333333055,
      "v": 52
    },
    {
      "midi": 44,
      "hit": false,
      "t": 186685.63059166813,
      "d": 791.7765499999805,
      "v": 49
    },
    {
      "midi": 64,
      "hit": false,
      "t": 187095.4096833348,
      "d": 486.17858333329787,
      "v": 47
    },
    {
      "midi": 47,
      "hit": false,
      "t": 187512.13418333477,
      "d": 500.0693999999785,
      "v": 49
    },
    {
      "midi": 76,
      "hit": false,
      "t": 187519.0795916681,
      "d": 534.7964416666655,
      "v": 64
    },
    {
      "midi": 74,
      "hit": false,
      "t": 187519.0795916681,
      "d": 618.1413416666619,
      "v": 36
    },
    {
      "midi": 64,
      "hit": false,
      "t": 187727.44184166807,
      "d": 284.76174166667624,
      "v": 49
    },
    {
      "midi": 68,
      "hit": false,
      "t": 187935.80409166808,
      "d": 263.92551666669897,
      "v": 24
    },
    {
      "midi": 71,
      "hit": false,
      "t": 187949.69490833476,
      "d": 208.3622500000056,
      "v": 49
    },
    {
      "midi": 64,
      "hit": false,
      "t": 188352.52859166812,
      "d": 270.8709249999956,
      "v": 60
    },
    {
      "midi": 73,
      "hit": false,
      "t": 188352.52859166812,
      "d": 2389.220466666622,
      "v": 69
    },
    {
      "midi": 45,
      "hit": false,
      "t": 188352.52859166812,
      "d": 2840.672008333291,
      "v": 60
    },
    {
      "midi": 76,
      "hit": false,
      "t": 188359.47400000144,
      "d": 1458.53575000001,
      "v": 67
    },
    {
      "midi": 69,
      "hit": false,
      "t": 188359.47400000144,
      "d": 2173.91280833332,
      "v": 56
    },
    {
      "midi": 64,
      "hit": false,
      "t": 188769.2530916681,
      "d": 534.7964416666655,
      "v": 45
    },
    {
      "midi": 52,
      "hit": false,
      "t": 189172.08677500143,
      "d": 2014.1684166666528,
      "v": 32
    },
    {
      "midi": 71,
      "hit": false,
      "t": 189192.92300000144,
      "d": 1340.4638083333266,
      "v": 51
    },
    {
      "midi": 64,
      "hit": false,
      "t": 189602.7020916681,
      "d": 694.5408333333617,
      "v": 52
    },
    {
      "midi": 85,
      "hit": false,
      "t": 189804.11893333477,
      "d": 97.23571666667704,
      "v": 78
    },
    {
      "midi": 81,
      "hit": false,
      "t": 189804.11893333477,
      "d": 104.1811250000028,
      "v": 74
    },
    {
      "midi": 57,
      "hit": false,
      "t": 190005.53577500145,
      "d": 1166.8285999999498,
      "v": 36
    },
    {
      "midi": 81,
      "hit": false,
      "t": 190019.42659166813,
      "d": 479.2331749999721,
      "v": 92
    },
    {
      "midi": 76,
      "hit": false,
      "t": 190019.42659166813,
      "d": 548.6872583332879,
      "v": 58
    },
    {
      "midi": 85,
      "hit": false,
      "t": 190026.37200000146,
      "d": 472.28776666664635,
      "v": 101
    },
    {
      "midi": 64,
      "hit": false,
      "t": 190443.09650000144,
      "d": 298.65255833329866,
      "v": 44
    },
    {
      "midi": 69,
      "hit": false,
      "t": 190852.87559166807,
      "d": 250.03469999998924,
      "v": 51
    },
    {
      "midi": 76,
      "hit": false,
      "t": 190852.87559166807,
      "d": 305.5979666666535,
      "v": 67
    },
    {
      "midi": 64,
      "hit": false,
      "t": 190852.87559166807,
      "d": 319.48878333333414,
      "v": 36
    },
    {
      "midi": 73,
      "hit": false,
      "t": 190852.87559166807,
      "d": 638.9775666666974,
      "v": 54
    },
    {
      "midi": 71,
      "hit": false,
      "t": 191075.12865833472,
      "d": 409.7790916667145,
      "v": 52
    },
    {
      "midi": 76,
      "hit": false,
      "t": 191283.49090833476,
      "d": 48.61785833333852,
      "v": 7
    },
    {
      "midi": 69,
      "hit": false,
      "t": 191283.49090833476,
      "d": 201.41684166667983,
      "v": 47
    },
    {
      "midi": 64,
      "hit": false,
      "t": 191484.90775000144,
      "d": 479.2331750000012,
      "v": 52
    },
    {
      "midi": 42,
      "hit": false,
      "t": 191686.3245916681,
      "d": 2792.05415000004,
      "v": 47
    },
    {
      "midi": 76,
      "hit": false,
      "t": 191700.21540833477,
      "d": 1319.6275833333202,
      "v": 67
    },
    {
      "midi": 69,
      "hit": false,
      "t": 191700.21540833477,
      "d": 2319.7663833333354,
      "v": 60
    },
    {
      "midi": 73,
      "hit": false,
      "t": 191700.21540833477,
      "d": 2410.0566916666576,
      "v": 69
    },
    {
      "midi": 66,
      "hit": false,
      "t": 191700.21540833477,
      "d": 2437.8383249999897,
      "v": 64
    },
    {
      "midi": 64,
      "hit": false,
      "t": 192109.99450000143,
      "d": 527.8510333333397,
      "v": 51
    },
    {
      "midi": 54,
      "hit": false,
      "t": 192512.82818333476,
      "d": 1909.9872916667082,
      "v": 47
    },
    {
      "midi": 64,
      "hit": false,
      "t": 192929.55268333477,
      "d": 750.1040999999968,
      "v": 51
    },
    {
      "midi": 76,
      "hit": false,
      "t": 193360.16800000143,
      "d": 645.922974999994,
      "v": 60
    },
    {
      "midi": 64,
      "hit": false,
      "t": 193790.7833166681,
      "d": 97.23571666667704,
      "v": 32
    },
    {
      "midi": 64,
      "hit": false,
      "t": 194186.6715916681,
      "d": 284.76174166670535,
      "v": 52
    },
    {
      "midi": 73,
      "hit": false,
      "t": 194186.6715916681,
      "d": 652.868383333378,
      "v": 47
    },
    {
      "midi": 69,
      "hit": false,
      "t": 194200.56240833478,
      "d": 48.61785833333852,
      "v": 48
    },
    {
      "midi": 76,
      "hit": false,
      "t": 194200.56240833478,
      "d": 291.7071500000311,
      "v": 70
    },
    {
      "midi": 66,
      "hit": false,
      "t": 194408.92465833478,
      "d": 298.65255833335686,
      "v": 40
    },
    {
      "midi": 64,
      "hit": false,
      "t": 194617.28690833482,
      "d": 270.8709249999956,
      "v": 56
    },
    {
      "midi": 66,
      "hit": false,
      "t": 194832.59456666815,
      "d": 125.01735000000917,
      "v": 32
    },
    {
      "midi": 66,
      "hit": false,
      "t": 195020.12059166815,
      "d": 868.1760416666802,
      "v": 47
    },
    {
      "midi": 38,
      "hit": false,
      "t": 195020.12059166815,
      "d": 2833.7265999999945,
      "v": 64
    },
    {
      "midi": 62,
      "hit": false,
      "t": 195027.06600000148,
      "d": 861.2306333333545,
      "v": 64
    },
    {
      "midi": 74,
      "hit": false,
      "t": 195034.0114083348,
      "d": 784.8311416666838,
      "v": 73
    },
    {
      "midi": 69,
      "hit": false,
      "t": 195034.0114083348,
      "d": 840.3944083333481,
      "v": 56
    },
    {
      "midi": 50,
      "hit": false,
      "t": 195853.56959166814,
      "d": 2014.1684166666819,
      "v": 58
    },
    {
      "midi": 57,
      "hit": false,
      "t": 196270.29409166815,
      "d": 965.4117583333282,
      "v": 51
    },
    {
      "midi": 62,
      "hit": false,
      "t": 196478.65634166816,
      "d": 1222.3918666666432,
      "v": 52
    },
    {
      "midi": 66,
      "hit": false,
      "t": 196687.01859166817,
      "d": 791.7765499999805,
      "v": 40
    },
    {
      "midi": 69,
      "hit": false,
      "t": 196693.9640000015,
      "d": 645.922974999994,
      "v": 56
    },
    {
      "midi": 64,
      "hit": false,
      "t": 196693.9640000015,
      "d": 722.3224666666647,
      "v": 54
    },
    {
      "midi": 69,
      "hit": false,
      "t": 197513.5221833348,
      "d": 437.56072500004666,
      "v": 52
    },
    {
      "midi": 57,
      "hit": false,
      "t": 197520.46759166813,
      "d": 333.37960000001476,
      "v": 54
    },
    {
      "midi": 66,
      "hit": false,
      "t": 197520.46759166813,
      "d": 493.12399166671094,
      "v": 24
    },
    {
      "midi": 64,
      "hit": false,
      "t": 197728.82984166814,
      "d": 305.5979666667117,
      "v": 56
    },
    {
      "midi": 62,
      "hit": false,
      "t": 197937.19209166817,
      "d": 236.14388333333773,
      "v": 54
    },
    {
      "midi": 59,
      "hit": false,
      "t": 198138.60893333485,
      "d": 1159.8831916666823,
      "v": 56
    },
    {
      "midi": 68,
      "hit": false,
      "t": 198346.97118333486,
      "d": 1326.572991666675,
      "v": 47
    },
    {
      "midi": 40,
      "hit": false,
      "t": 198346.97118333486,
      "d": 2548.9648583333474,
      "v": 58
    },
    {
      "midi": 64,
      "hit": false,
      "t": 198353.91659166818,
      "d": 1118.2107416666986,
      "v": 58
    },
    {
      "midi": 62,
      "hit": false,
      "t": 198353.91659166818,
      "d": 1125.1561500000244,
      "v": 56
    },
    {
      "midi": 71,
      "hit": false,
      "t": 198353.91659166818,
      "d": 1319.6275833333493,
      "v": 58
    },
    {
      "midi": 52,
      "hit": false,
      "t": 199201.25640833486,
      "d": 1743.2974916666863,
      "v": 35
    },
    {
      "midi": 64,
      "hit": false,
      "t": 199611.03550000154,
      "d": 694.5408333333326,
      "v": 38
    },
    {
      "midi": 62,
      "hit": false,
      "t": 199617.98090833487,
      "d": 20.83622500000638,
      "v": 33
    },
    {
      "midi": 76,
      "hit": false,
      "t": 200020.8145916682,
      "d": 1389.0816666666651,
      "v": 54
    },
    {
      "midi": 68,
      "hit": false,
      "t": 200034.70540833488,
      "d": 1312.6821749999945,
      "v": 38
    },
    {
      "midi": 64,
      "hit": false,
      "t": 200451.42990833486,
      "d": 604.2505250000104,
      "v": 29
    },
    {
      "midi": 71,
      "hit": false,
      "t": 200868.15440833487,
      "d": 319.48878333333414,
      "v": 34
    },
    {
      "midi": 74,
      "hit": false,
      "t": 200868.15440833487,
      "d": 409.7790916666563,
      "v": 36
    },
    {
      "midi": 64,
      "hit": false,
      "t": 201291.8243166682,
      "d": 180.58061666664435,
      "v": 30
    },
    {
      "midi": 45,
      "hit": false,
      "t": 201687.71259166818,
      "d": 1500.2082000000519,
      "v": 60
    },
    {
      "midi": 64,
      "hit": false,
      "t": 201694.6580000015,
      "d": 312.5433749999793,
      "v": 70
    },
    {
      "midi": 76,
      "hit": false,
      "t": 201701.60340833483,
      "d": 791.7765500000387,
      "v": 76
    },
    {
      "midi": 57,
      "hit": false,
      "t": 201701.60340833483,
      "d": 861.2306333333836,
      "v": 54
    },
    {
      "midi": 73,
      "hit": false,
      "t": 201701.60340833483,
      "d": 1444.6449333333876,
      "v": 59
    },
    {
      "midi": 69,
      "hit": false,
      "t": 201701.60340833483,
      "d": 2417.0021000000706,
      "v": 52
    },
    {
      "midi": 52,
      "hit": false,
      "t": 202104.43709166817,
      "d": 187.5260250000283,
      "v": 55
    },
    {
      "midi": 64,
      "hit": false,
      "t": 202118.32790833485,
      "d": 736.2132833333744,
      "v": 56
    },
    {
      "midi": 76,
      "hit": false,
      "t": 202521.1615916682,
      "d": 1354.3546250000072,
      "v": 35
    },
    {
      "midi": 71,
      "hit": false,
      "t": 202521.1615916682,
      "d": 1583.5531000000192,
      "v": 58
    },
    {
      "midi": 64,
      "hit": false,
      "t": 202937.88609166822,
      "d": 187.5260249999992,
      "v": 60
    },
    {
      "midi": 45,
      "hit": false,
      "t": 203354.61059166823,
      "d": 1291.845949999988,
      "v": 60
    },
    {
      "midi": 64,
      "hit": false,
      "t": 203764.38968333488,
      "d": 548.687258333317,
      "v": 48
    },
    {
      "midi": 57,
      "hit": false,
      "t": 203799.11672500154,
      "d": 757.0495083333226,
      "v": 32
    },
    {
      "midi": 69,
      "hit": false,
      "t": 204181.1141833349,
      "d": 284.76174166664714,
      "v": 28
    },
    {
      "midi": 73,
      "hit": false,
      "t": 204181.1141833349,
      "d": 673.7046083333553,
      "v": 32
    },
    {
      "midi": 76,
      "hit": false,
      "t": 204188.05959166822,
      "d": 569.5234833333525,
      "v": 76
    },
    {
      "midi": 64,
      "hit": false,
      "t": 204389.47643333487,
      "d": 270.8709250000247,
      "v": 67
    },
    {
      "midi": 71,
      "hit": false,
      "t": 204597.83868333488,
      "d": 229.19847500004107,
      "v": 60
    },
    {
      "midi": 69,
      "hit": false,
      "t": 204597.83868333488,
      "d": 250.03470000004745,
      "v": 51
    },
    {
      "midi": 64,
      "hit": false,
      "t": 204806.2009333349,
      "d": 1139.0469666666759,
      "v": 58
    },
    {
      "midi": 73,
      "hit": false,
      "t": 205014.56318333492,
      "d": 2437.838325000019,
      "v": 73
    },
    {
      "midi": 76,
      "hit": false,
      "t": 205021.50859166824,
      "d": 1486.317383333313,
      "v": 76
    },
    {
      "midi": 69,
      "hit": false,
      "t": 205021.50859166824,
      "d": 2361.438833333348,
      "v": 64
    },
    {
      "midi": 66,
      "hit": false,
      "t": 205021.50859166824,
      "d": 2410.0566916666867,
      "v": 69
    },
    {
      "midi": 42,
      "hit": false,
      "t": 205021.50859166824,
      "d": 2854.56282500003,
      "v": 69
    },
    {
      "midi": 54,
      "hit": false,
      "t": 205681.32238333492,
      "d": 2021.1138250000367,
      "v": 54
    },
    {
      "midi": 64,
      "hit": false,
      "t": 206278.62750000157,
      "d": 694.5408333333326,
      "v": 51
    },
    {
      "midi": 76,
      "hit": false,
      "t": 206688.40659166823,
      "d": 611.1959333333361,
      "v": 52
    },
    {
      "midi": 64,
      "hit": false,
      "t": 207112.07650000157,
      "d": 284.76174166670535,
      "v": 48
    },
    {
      "midi": 76,
      "hit": false,
      "t": 207521.85559166828,
      "d": 472.28776666664635,
      "v": 70
    },
    {
      "midi": 69,
      "hit": false,
      "t": 207521.85559166828,
      "d": 534.7964416666364,
      "v": 54
    },
    {
      "midi": 73,
      "hit": false,
      "t": 207521.85559166828,
      "d": 652.8683833333198,
      "v": 54
    },
    {
      "midi": 66,
      "hit": false,
      "t": 207730.2178416683,
      "d": 256.980108333315,
      "v": 49
    },
    {
      "midi": 64,
      "hit": false,
      "t": 207938.58009166826,
      "d": 284.76174166667624,
      "v": 60
    },
    {
      "midi": 38,
      "hit": false,
      "t": 208348.35918333495,
      "d": 2861.5082333332975,
      "v": 70
    },
    {
      "midi": 62,
      "hit": false,
      "t": 208355.30459166827,
      "d": 944.5755333333218,
      "v": 67
    },
    {
      "midi": 69,
      "hit": false,
      "t": 208355.30459166827,
      "d": 2305.8755666666257,
      "v": 60
    },
    {
      "midi": 66,
      "hit": false,
      "t": 208355.30459166827,
      "d": 2312.8209749999514,
      "v": 49
    },
    {
      "midi": 74,
      "hit": false,
      "t": 208362.2500000016,
      "d": 1514.0990166666452,
      "v": 76
    },
    {
      "midi": 50,
      "hit": false,
      "t": 209181.80818333494,
      "d": 2083.6224999999686,
      "v": 60
    },
    {
      "midi": 62,
      "hit": false,
      "t": 209598.53268333492,
      "d": 722.3224666666356,
      "v": 49
    },
    {
      "midi": 74,
      "hit": false,
      "t": 210015.2571833349,
      "d": 652.8683833333198,
      "v": 60
    },
    {
      "midi": 62,
      "hit": false,
      "t": 210438.9270916682,
      "d": 312.5433750000084,
      "v": 44
    },
    {
      "midi": 66,
      "hit": false,
      "t": 210855.65159166823,
      "d": 131.96275833333493,
      "v": 32
    },
    {
      "midi": 74,
      "hit": false,
      "t": 210855.65159166823,
      "d": 527.8510333333688,
      "v": 73
    },
    {
      "midi": 64,
      "hit": false,
      "t": 210869.5424083349,
      "d": 298.65255833332776,
      "v": 54
    },
    {
      "midi": 69,
      "hit": false,
      "t": 211070.95925000156,
      "d": 555.6326666667301,
      "v": 51
    },
    {
      "midi": 66,
      "hit": false,
      "t": 211286.26690833492,
      "d": 277.8163333333505,
      "v": 42
    },
    {
      "midi": 62,
      "hit": false,
      "t": 211494.62915833492,
      "d": 90.29030833335128,
      "v": 47
    },
    {
      "midi": 40,
      "hit": false,
      "t": 211689.10059166828,
      "d": 1319.6275833333784,
      "v": 54
    },
    {
      "midi": 64,
      "hit": false,
      "t": 211696.0460000016,
      "d": 187.5260249999992,
      "v": 64
    },
    {
      "midi": 71,
      "hit": false,
      "t": 211702.99140833493,
      "d": 2451.7291416666994,
      "v": 56
    },
    {
      "midi": 68,
      "hit": false,
      "t": 211702.99140833493,
      "d": 2833.7265999999945,
      "v": 54
    },
    {
      "midi": 64,
      "hit": false,
      "t": 212112.7705000016,
      "d": 590.3597083333589,
      "v": 48
    },
    {
      "midi": 52,
      "hit": false,
      "t": 212126.6613166683,
      "d": 812.612775000016,
      "v": 22
    },
    {
      "midi": 74,
      "hit": false,
      "t": 212529.49500000163,
      "d": 1590.498508333345,
      "v": 56
    },
    {
      "midi": 64,
      "hit": false,
      "t": 212939.2740916683,
      "d": 402.83368333333055,
      "v": 52
    },
    {
      "midi": 44,
      "hit": false,
      "t": 213355.99859166832,
      "d": 791.7765499999805,
      "v": 49
    },
    {
      "midi": 64,
      "hit": false,
      "t": 213765.77768333498,
      "d": 486.17858333329787,
      "v": 47
    },
    {
      "midi": 47,
      "hit": false,
      "t": 214182.50218333496,
      "d": 500.0693999999785,
      "v": 49
    },
    {
      "midi": 76,
      "hit": false,
      "t": 214189.4475916683,
      "d": 534.7964416666655,
      "v": 64
    },
    {
      "midi": 74,
      "hit": false,
      "t": 214189.4475916683,
      "d": 618.1413416666619,
      "v": 36
    },
    {
      "midi": 64,
      "hit": false,
      "t": 214397.80984166826,
      "d": 284.76174166667624,
      "v": 49
    },
    {
      "midi": 68,
      "hit": false,
      "t": 214606.17209166827,
      "d": 263.92551666669897,
      "v": 24
    },
    {
      "midi": 71,
      "hit": false,
      "t": 214620.06290833495,
      "d": 208.3622500000056,
      "v": 49
    },
    {
      "midi": 64,
      "hit": false,
      "t": 215022.8965916683,
      "d": 270.8709249999956,
      "v": 60
    },
    {
      "midi": 73,
      "hit": false,
      "t": 215022.8965916683,
      "d": 2389.220466666622,
      "v": 69
    },
    {
      "midi": 45,
      "hit": false,
      "t": 215022.8965916683,
      "d": 2840.672008333291,
      "v": 60
    },
    {
      "midi": 76,
      "hit": false,
      "t": 215029.84200000163,
      "d": 1458.53575000001,
      "v": 67
    },
    {
      "midi": 69,
      "hit": false,
      "t": 215029.84200000163,
      "d": 2173.91280833332,
      "v": 56
    },
    {
      "midi": 64,
      "hit": false,
      "t": 215439.6210916683,
      "d": 534.7964416666655,
      "v": 45
    },
    {
      "midi": 52,
      "hit": false,
      "t": 215842.45477500162,
      "d": 2014.1684166666528,
      "v": 32
    },
    {
      "midi": 71,
      "hit": false,
      "t": 215863.29100000163,
      "d": 1340.4638083333266,
      "v": 51
    },
    {
      "midi": 64,
      "hit": false,
      "t": 216273.07009166828,
      "d": 694.5408333333617,
      "v": 52
    },
    {
      "midi": 85,
      "hit": false,
      "t": 216474.48693333496,
      "d": 97.23571666667704,
      "v": 78
    },
    {
      "midi": 81,
      "hit": false,
      "t": 216474.48693333496,
      "d": 104.1811250000028,
      "v": 74
    },
    {
      "midi": 57,
      "hit": false,
      "t": 216675.90377500164,
      "d": 1166.8285999999498,
      "v": 36
    },
    {
      "midi": 81,
      "hit": false,
      "t": 216689.79459166832,
      "d": 479.2331749999721,
      "v": 92
    },
    {
      "midi": 76,
      "hit": false,
      "t": 216689.79459166832,
      "d": 548.6872583332879,
      "v": 58
    },
    {
      "midi": 85,
      "hit": false,
      "t": 216696.74000000165,
      "d": 472.28776666664635,
      "v": 101
    },
    {
      "midi": 64,
      "hit": false,
      "t": 217113.46450000163,
      "d": 298.65255833329866,
      "v": 44
    },
    {
      "midi": 69,
      "hit": false,
      "t": 217523.24359166826,
      "d": 250.03469999998924,
      "v": 51
    },
    {
      "midi": 76,
      "hit": false,
      "t": 217523.24359166826,
      "d": 305.5979666666535,
      "v": 67
    },
    {
      "midi": 64,
      "hit": false,
      "t": 217523.24359166826,
      "d": 319.48878333333414,
      "v": 36
    },
    {
      "midi": 73,
      "hit": false,
      "t": 217523.24359166826,
      "d": 638.9775666666974,
      "v": 54
    },
    {
      "midi": 71,
      "hit": false,
      "t": 217745.49665833492,
      "d": 409.7790916667145,
      "v": 52
    },
    {
      "midi": 76,
      "hit": false,
      "t": 217953.85890833495,
      "d": 48.61785833333852,
      "v": 7
    },
    {
      "midi": 69,
      "hit": false,
      "t": 217953.85890833495,
      "d": 201.41684166667983,
      "v": 47
    },
    {
      "midi": 64,
      "hit": false,
      "t": 218155.27575000163,
      "d": 479.2331750000012,
      "v": 52
    },
    {
      "midi": 42,
      "hit": false,
      "t": 218356.69259166828,
      "d": 2792.05415000004,
      "v": 47
    },
    {
      "midi": 76,
      "hit": false,
      "t": 218370.58340833496,
      "d": 1319.6275833333202,
      "v": 67
    },
    {
      "midi": 69,
      "hit": false,
      "t": 218370.58340833496,
      "d": 2319.7663833333354,
      "v": 60
    },
    {
      "midi": 73,
      "hit": false,
      "t": 218370.58340833496,
      "d": 2410.0566916666576,
      "v": 69
    },
    {
      "midi": 66,
      "hit": false,
      "t": 218370.58340833496,
      "d": 2437.8383249999897,
      "v": 64
    },
    {
      "midi": 64,
      "hit": false,
      "t": 218780.36250000162,
      "d": 527.8510333333397,
      "v": 51
    },
    {
      "midi": 54,
      "hit": false,
      "t": 219183.19618333495,
      "d": 1909.9872916667082,
      "v": 47
    },
    {
      "midi": 64,
      "hit": false,
      "t": 219599.92068333496,
      "d": 750.1040999999968,
      "v": 51
    },
    {
      "midi": 76,
      "hit": false,
      "t": 220030.53600000162,
      "d": 645.922974999994,
      "v": 60
    },
    {
      "midi": 64,
      "hit": false,
      "t": 220461.15131666829,
      "d": 97.23571666667704,
      "v": 32
    },
    {
      "midi": 64,
      "hit": false,
      "t": 220857.0395916683,
      "d": 284.76174166670535,
      "v": 52
    },
    {
      "midi": 73,
      "hit": false,
      "t": 220857.0395916683,
      "d": 652.868383333378,
      "v": 47
    },
    {
      "midi": 69,
      "hit": false,
      "t": 220870.93040833497,
      "d": 48.61785833333852,
      "v": 48
    },
    {
      "midi": 76,
      "hit": false,
      "t": 220870.93040833497,
      "d": 291.7071500000311,
      "v": 70
    },
    {
      "midi": 66,
      "hit": false,
      "t": 221079.29265833498,
      "d": 298.65255833335686,
      "v": 40
    },
    {
      "midi": 64,
      "hit": false,
      "t": 221287.654908335,
      "d": 270.8709249999956,
      "v": 56
    },
    {
      "midi": 66,
      "hit": false,
      "t": 221502.96256666834,
      "d": 125.01735000000917,
      "v": 32
    },
    {
      "midi": 66,
      "hit": false,
      "t": 221690.48859166834,
      "d": 868.1760416666802,
      "v": 47
    },
    {
      "midi": 38,
      "hit": false,
      "t": 221690.48859166834,
      "d": 2833.7265999999945,
      "v": 64
    },
    {
      "midi": 62,
      "hit": false,
      "t": 221697.43400000167,
      "d": 861.2306333333545,
      "v": 64
    },
    {
      "midi": 74,
      "hit": false,
      "t": 221704.379408335,
      "d": 784.8311416666838,
      "v": 73
    },
    {
      "midi": 69,
      "hit": false,
      "t": 221704.379408335,
      "d": 840.3944083333481,
      "v": 56
    },
    {
      "midi": 50,
      "hit": false,
      "t": 222523.93759166833,
      "d": 2014.1684166666819,
      "v": 58
    },
    {
      "midi": 57,
      "hit": false,
      "t": 222940.66209166835,
      "d": 965.4117583333282,
      "v": 51
    },
    {
      "midi": 62,
      "hit": false,
      "t": 223149.02434166835,
      "d": 1222.3918666666432,
      "v": 52
    },
    {
      "midi": 66,
      "hit": false,
      "t": 223357.38659166836,
      "d": 791.7765499999805,
      "v": 40
    },
    {
      "midi": 69,
      "hit": false,
      "t": 223364.33200000168,
      "d": 645.922974999994,
      "v": 56
    },
    {
      "midi": 64,
      "hit": false,
      "t": 223364.33200000168,
      "d": 722.3224666666647,
      "v": 54
    },
    {
      "midi": 69,
      "hit": false,
      "t": 224183.890183335,
      "d": 437.56072500004666,
      "v": 52
    },
    {
      "midi": 57,
      "hit": false,
      "t": 224190.83559166832,
      "d": 333.37960000001476,
      "v": 54
    },
    {
      "midi": 66,
      "hit": false,
      "t": 224190.83559166832,
      "d": 493.12399166671094,
      "v": 24
    },
    {
      "midi": 64,
      "hit": false,
      "t": 224399.19784166833,
      "d": 305.5979666667117,
      "v": 56
    },
    {
      "midi": 62,
      "hit": false,
      "t": 224607.56009166836,
      "d": 236.14388333333773,
      "v": 54
    },
    {
      "midi": 59,
      "hit": false,
      "t": 224808.97693333504,
      "d": 1159.8831916666823,
      "v": 56
    },
    {
      "midi": 68,
      "hit": false,
      "t": 225017.33918333505,
      "d": 1326.572991666675,
      "v": 47
    },
    {
      "midi": 40,
      "hit": false,
      "t": 225017.33918333505,
      "d": 2548.9648583333474,
      "v": 58
    },
    {
      "midi": 64,
      "hit": false,
      "t": 225024.28459166837,
      "d": 1118.2107416666986,
      "v": 58
    },
    {
      "midi": 62,
      "hit": false,
      "t": 225024.28459166837,
      "d": 1125.1561500000244,
      "v": 56
    },
    {
      "midi": 71,
      "hit": false,
      "t": 225024.28459166837,
      "d": 1319.6275833333493,
      "v": 58
    },
    {
      "midi": 52,
      "hit": false,
      "t": 225871.62440833505,
      "d": 1743.2974916666863,
      "v": 35
    },
    {
      "midi": 64,
      "hit": false,
      "t": 226281.40350000173,
      "d": 694.5408333333326,
      "v": 38
    },
    {
      "midi": 62,
      "hit": false,
      "t": 226288.34890833506,
      "d": 20.83622500000638,
      "v": 33
    },
    {
      "midi": 76,
      "hit": false,
      "t": 226691.1825916684,
      "d": 1389.0816666666651,
      "v": 54
    },
    {
      "midi": 68,
      "hit": false,
      "t": 226705.07340833507,
      "d": 1312.6821749999945,
      "v": 38
    },
    {
      "midi": 64,
      "hit": false,
      "t": 227121.79790833505,
      "d": 604.2505250000104,
      "v": 29
    },
    {
      "midi": 71,
      "hit": false,
      "t": 227538.52240833506,
      "d": 319.48878333333414,
      "v": 34
    },
    {
      "midi": 74,
      "hit": false,
      "t": 227538.52240833506,
      "d": 409.7790916666563,
      "v": 36
    },
    {
      "midi": 64,
      "hit": false,
      "t": 227962.1923166684,
      "d": 180.58061666664435,
      "v": 30
    },
    {
      "midi": 69,
      "hit": false,
      "t": 228316.4081416684,
      "d": 1583.5531000000192,
      "v": 72
    },
    {
      "midi": 57,
      "hit": false,
      "t": 228323.35355000172,
      "d": 902.903083333309,
      "v": 56
    },
    {
      "midi": 61,
      "hit": false,
      "t": 228330.29895833504,
      "d": 1229.337274999969,
      "v": 60
    },
    {
      "midi": 73,
      "hit": false,
      "t": 228351.13518333505,
      "d": 1465.4811583333358,
      "v": 109
    },
    {
      "midi": 64,
      "hit": false,
      "t": 228358.08059166837,
      "d": 1437.6995250000036,
      "v": 105
    },
    {
      "midi": 45,
      "hit": false,
      "t": 228358.08059166837,
      "d": 1500.2082000000228,
      "v": 60
    },
    {
      "midi": 52,
      "hit": false,
      "t": 229135.9663250017,
      "d": 1854.424025000044,
      "v": 48
    },
    {
      "midi": 57,
      "hit": false,
      "t": 229580.47245833502,
      "d": 611.1959333333652,
      "v": 44
    },
    {
      "midi": 83,
      "hit": false,
      "t": 229594.3632750017,
      "d": 131.96275833333493,
      "v": 100
    },
    {
      "midi": 76,
      "hit": false,
      "t": 229601.30868333502,
      "d": 256.9801083333732,
      "v": 76
    },
    {
      "midi": 85,
      "hit": false,
      "t": 229774.94389166837,
      "d": 222.2530666666862,
      "v": 74
    },
    {
      "midi": 61,
      "hit": false,
      "t": 229816.61634166838,
      "d": 757.0495083333226,
      "v": 51
    },
    {
      "midi": 69,
      "hit": false,
      "t": 229990.25155000173,
      "d": 2500.347000000067,
      "v": 62
    },
    {
      "midi": 76,
      "hit": false,
      "t": 230018.03318333506,
      "d": 736.2132833333162,
      "v": 96
    },
    {
      "midi": 81,
      "hit": false,
      "t": 230024.9785916684,
      "d": 687.5954249999777,
      "v": 89
    },
    {
      "midi": 57,
      "hit": false,
      "t": 230455.59390833505,
      "d": 1250.1735000000626,
      "v": 47
    },
    {
      "midi": 81,
      "hit": false,
      "t": 230809.80973333505,
      "d": 145.85357500001555,
      "v": 92
    },
    {
      "midi": 64,
      "hit": false,
      "t": 230858.42759166838,
      "d": 750.104100000055,
      "v": 66
    },
    {
      "midi": 76,
      "hit": false,
      "t": 230976.49953333507,
      "d": 69.4540833333449,
      "v": 37
    },
    {
      "midi": 80,
      "hit": false,
      "t": 231039.0082083351,
      "d": 215.30765833333135,
      "v": 101
    },
    {
      "midi": 78,
      "hit": false,
      "t": 231233.4796416684,
      "d": 250.03470000001835,
      "v": 85
    },
    {
      "midi": 76,
      "hit": false,
      "t": 231434.8964833351,
      "d": 145.85357500001555,
      "v": 92
    },
    {
      "midi": 42,
      "hit": false,
      "t": 231601.5862833351,
      "d": 2924.016908333462,
      "v": 71
    },
    {
      "midi": 81,
      "hit": false,
      "t": 231657.14955000178,
      "d": 1215.4464583333465,
      "v": 110
    },
    {
      "midi": 57,
      "hit": false,
      "t": 232059.9832333351,
      "d": 1576.6076916667225,
      "v": 51
    },
    {
      "midi": 61,
      "hit": false,
      "t": 232469.7623250018,
      "d": 2083.622500000114,
      "v": 66
    },
    {
      "midi": 66,
      "hit": false,
      "t": 232914.26845833514,
      "d": 1569.6622833334259,
      "v": 61
    },
    {
      "midi": 80,
      "hit": false,
      "t": 232928.15927500182,
      "d": 173.6352083333477,
      "v": 101
    },
    {
      "midi": 81,
      "hit": false,
      "t": 233143.46693333518,
      "d": 194.47143333332497,
      "v": 92
    },
    {
      "midi": 69,
      "hit": false,
      "t": 233337.9383666685,
      "d": 4681.205216666713,
      "v": 57
    },
    {
      "midi": 78,
      "hit": false,
      "t": 233358.7745916685,
      "d": 632.0321583333425,
      "v": 93
    },
    {
      "midi": 57,
      "hit": false,
      "t": 233761.60827500184,
      "d": 555.632666666701,
      "v": 46
    },
    {
      "midi": 78,
      "hit": false,
      "t": 234192.22359166853,
      "d": 263.92551666669897,
      "v": 109
    },
    {
      "midi": 76,
      "hit": false,
      "t": 234414.47665833522,
      "d": 201.41684166667983,
      "v": 120
    },
    {
      "midi": 57,
      "hit": false,
      "t": 234553.3848250019,
      "d": 791.7765499999805,
      "v": 53
    },
    {
      "midi": 74,
      "hit": false,
      "t": 234615.8935000019,
      "d": 208.3622500000056,
      "v": 105
    },
    {
      "midi": 73,
      "hit": false,
      "t": 234789.52870833525,
      "d": 131.96275833333493,
      "v": 109
    },
    {
      "midi": 50,
      "hit": false,
      "t": 234956.21850833524,
      "d": 2868.4536416666524,
      "v": 44
    },
    {
      "midi": 66,
      "hit": false,
      "t": 235018.72718333526,
      "d": 3062.9250749999483,
      "v": 55
    },
    {
      "midi": 62,
      "hit": false,
      "t": 235025.67259166858,
      "d": 486.17858333329787,
      "v": 100
    },
    {
      "midi": 78,
      "hit": false,
      "t": 235032.6180000019,
      "d": 1187.6648249999853,
      "v": 121
    },
    {
      "midi": 57,
      "hit": false,
      "t": 235463.23331666854,
      "d": 527.8510333333397,
      "v": 51
    },
    {
      "midi": 62,
      "hit": false,
      "t": 235866.06700000187,
      "d": 472.28776666667545,
      "v": 66
    },
    {
      "midi": 76,
      "hit": false,
      "t": 236275.84609166856,
      "d": 243.08929166666348,
      "v": 89
    },
    {
      "midi": 57,
      "hit": false,
      "t": 236282.79150000188,
      "d": 1819.6969833333278,
      "v": 46
    },
    {
      "midi": 78,
      "hit": false,
      "t": 236470.31752500188,
      "d": 291.707150000002,
      "v": 71
    },
    {
      "midi": 62,
      "hit": false,
      "t": 236671.73436666856,
      "d": 458.39694999999483,
      "v": 63
    },
    {
      "midi": 74,
      "hit": false,
      "t": 236727.29763333523,
      "d": 743.1586916666711,
      "v": 92
    },
    {
      "midi": 71,
      "hit": false,
      "t": 237539.91040833524,
      "d": 638.9775666666392,
      "v": 115
    },
    {
      "midi": 76,
      "hit": false,
      "t": 237546.85581666857,
      "d": 882.0668583333318,
      "v": 115
    },
    {
      "midi": 45,
      "hit": false,
      "t": 239192.91759166855,
      "d": 2930.9623166666133,
      "v": 66
    },
    {
      "midi": 81,
      "hit": false,
      "t": 239213.75381666856,
      "d": 2778.163333333272,
      "v": 112
    },
    {
      "midi": 76,
      "hit": false,
      "t": 239220.69922500188,
      "d": 2778.163333333272,
      "v": 120
    },
    {
      "midi": 69,
      "hit": false,
      "t": 239234.59004166853,
      "d": 2875.399049999949,
      "v": 65
    },
    {
      "midi": 57,
      "hit": false,
      "t": 241651.59214166852,
      "d": 118.07194166665431,
      "v": 76
    },
    {
      "midi": 61,
      "hit": false,
      "t": 241686.31918333517,
      "d": 152.7989833333413,
      "v": 67
    },
    {
      "midi": 64,
      "hit": false,
      "t": 241762.71867500184,
      "d": 111.12653333332855,
      "v": 80
    },
    {
      "midi": 69,
      "hit": false,
      "t": 242137.77072500184,
      "d": 83.34489999999641,
      "v": 48
    },
    {
      "midi": 71,
      "hit": false,
      "t": 242137.77072500184,
      "d": 83.34489999999641,
      "v": 51
    },
    {
      "midi": 73,
      "hit": false,
      "t": 242165.55235833518,
      "d": 138.9081666666607,
      "v": 43
    },
    {
      "midi": 73,
      "hit": false,
      "t": 242630.8947166685,
      "d": 90.29030833332217,
      "v": 41
    },
    {
      "midi": 76,
      "hit": false,
      "t": 242658.67635000183,
      "d": 104.1811250000028,
      "v": 63
    },
    {
      "midi": 81,
      "hit": false,
      "t": 242714.2396166685,
      "d": 111.12653333332855,
      "v": 34
    },
    {
      "midi": 81,
      "hit": false,
      "t": 243124.01870833515,
      "d": 111.12653333332855,
      "v": 61
    },
    {
      "midi": 85,
      "hit": false,
      "t": 243179.5819750018,
      "d": 83.34489999999641,
      "v": 47
    },
    {
      "midi": 88,
      "hit": false,
      "t": 243200.41820000182,
      "d": 83.34489999999641,
      "v": 70
    },
    {
      "midi": 88,
      "hit": false,
      "t": 243665.76055833514,
      "d": 55.563266666664276,
      "v": 36
    },
    {
      "midi": 93,
      "hit": false,
      "t": 243665.76055833514,
      "d": 131.96275833333493,
      "v": 58
    },
    {
      "midi": 93,
      "hit": false,
      "t": 244249.17485833514,
      "d": 90.29030833335128,
      "v": 35
    },
    {
      "midi": 97,
      "hit": false,
      "t": 244263.06567500182,
      "d": 131.96275833333493,
      "v": 52
    },
    {
      "midi": 100,
      "hit": false,
      "t": 244311.68353333516,
      "d": 138.9081666666607,
      "v": 48
    },
    {
      "midi": 97,
      "hit": false,
      "t": 245096.51467500182,
      "d": 131.96275833336404,
      "v": 58
    },
    {
      "midi": 100,
      "hit": false,
      "t": 245165.96875833516,
      "d": 215.30765833336045,
      "v": 55
    },
    {
      "midi": 105,
      "hit": false,
      "t": 245207.64120833518,
      "d": 208.3622500000056,
      "v": 68
    }
  ]
}