{
  "jsonPath": "Soul/Funk/The Manhattans/kiss-and-say-goodbye.json",
  "path": "Soul\\Funk\\The Manhattans\\Kiss And Say Goodbye.mid",
  "name": "Kiss And Say Goodbye",
  "difficulty": "Advanced",
  "bpm": 131.00150651732494,
  "notes": [
    {
      "midi": 58,
      "hit": false,
      "t": 3664.08,
      "d": 3588.937734375,
      "v": 99
    },
    {
      "midi": 65,
      "hit": false,
      "t": 3664.08,
      "d": 3603.2505468750005,
      "v": 100
    },
    {
      "midi": 62,
      "hit": false,
      "t": 3664.08,
      "d": 3608.021484375001,
      "v": 98
    },
    {
      "midi": 46,
      "hit": false,
      "t": 3664.08,
      "d": 3612.7924218750013,
      "v": 98
    },
    {
      "midi": 58,
      "hit": false,
      "t": 7328.160000000002,
      "d": 2477.3092968750007,
      "v": 101
    },
    {
      "midi": 62,
      "hit": false,
      "t": 7328.160000000002,
      "d": 2582.2699218750004,
      "v": 93
    },
    {
      "midi": 65,
      "hit": false,
      "t": 7328.160000000002,
      "d": 2649.0630468750005,
      "v": 96
    },
    {
      "midi": 53,
      "hit": false,
      "t": 7328.160000000002,
      "d": 3608.021484374998,
      "v": 81
    },
    {
      "midi": 46,
      "hit": false,
      "t": 7328.160000000002,
      "d": 3641.4180468749983,
      "v": 98
    },
    {
      "midi": 60,
      "hit": false,
      "t": 10076.220000000003,
      "d": 869.5033593749977,
      "v": 109
    },
    {
      "midi": 62,
      "hit": false,
      "t": 10305.225000000002,
      "d": 263.5942968749987,
      "v": 110
    },
    {
      "midi": 65,
      "hit": false,
      "t": 10534.230000000001,
      "d": 206.34304687499935,
      "v": 117
    },
    {
      "midi": 67,
      "hit": false,
      "t": 10763.235,
      "d": 215.88492187500015,
      "v": 95
    },
    {
      "midi": 65,
      "hit": false,
      "t": 10992.240000000002,
      "d": 3064.134609375,
      "v": 107
    },
    {
      "midi": 57,
      "hit": false,
      "t": 10992.240000000002,
      "d": 3073.6764843750007,
      "v": 111
    },
    {
      "midi": 60,
      "hit": false,
      "t": 10992.240000000002,
      "d": 3087.989296875001,
      "v": 108
    },
    {
      "midi": 41,
      "hit": false,
      "t": 10992.240000000002,
      "d": 7200.537421875004,
      "v": 113
    },
    {
      "midi": 65,
      "hit": false,
      "t": 14198.310000000003,
      "d": 301.7617968750001,
      "v": 89
    },
    {
      "midi": 57,
      "hit": false,
      "t": 14198.310000000003,
      "d": 316.07460937500036,
      "v": 65
    },
    {
      "midi": 60,
      "hit": false,
      "t": 14198.310000000003,
      "d": 316.07460937500036,
      "v": 74
    },
    {
      "midi": 50,
      "hit": false,
      "t": 14427.315000000002,
      "d": 211.11398437500065,
      "v": 99
    },
    {
      "midi": 51,
      "hit": false,
      "t": 14656.320000000003,
      "d": 3130.927734375,
      "v": 95
    },
    {
      "midi": 57,
      "hit": false,
      "t": 14656.320000000003,
      "d": 3140.469609374999,
      "v": 106
    },
    {
      "midi": 65,
      "hit": false,
      "t": 14656.320000000003,
      "d": 3493.5189843750013,
      "v": 105
    },
    {
      "midi": 60,
      "hit": false,
      "t": 14656.320000000003,
      "d": 3507.8317968750016,
      "v": 112
    },
    {
      "midi": 53,
      "hit": false,
      "t": 17862.390000000003,
      "d": 215.88492187500015,
      "v": 110
    },
    {
      "midi": 55,
      "hit": false,
      "t": 18091.395000000004,
      "d": 215.88492187500015,
      "v": 111
    },
    {
      "midi": 58,
      "hit": false,
      "t": 18320.4,
      "d": 454.43179687500015,
      "v": 1
    },
    {
      "midi": 62,
      "hit": false,
      "t": 18320.4,
      "d": 454.43179687500015,
      "v": 1
    },
    {
      "midi": 46,
      "hit": false,
      "t": 18320.400000000005,
      "d": 1733.043046875002,
      "v": 108
    },
    {
      "midi": 58,
      "hit": false,
      "t": 18320.400000000005,
      "d": 2109.947109375,
      "v": 104
    },
    {
      "midi": 65,
      "hit": false,
      "t": 18320.400000000005,
      "d": 2911.4646093750016,
      "v": 106
    },
    {
      "midi": 62,
      "hit": false,
      "t": 18320.400000000005,
      "d": 2944.861171875,
      "v": 104
    },
    {
      "midi": 57,
      "hit": false,
      "t": 18778.41,
      "d": 416.2642968750006,
      "v": 1
    },
    {
      "midi": 61,
      "hit": false,
      "t": 18787.951875,
      "d": 421.0352343750019,
      "v": 1
    },
    {
      "midi": 58,
      "hit": false,
      "t": 19212.5653125,
      "d": 449.66085937499884,
      "v": 1
    },
    {
      "midi": 62,
      "hit": false,
      "t": 19226.878125,
      "d": 444.8899218749975,
      "v": 1
    },
    {
      "midi": 57,
      "hit": false,
      "t": 19675.346249999995,
      "d": 452.0463281249977,
      "v": 1
    },
    {
      "midi": 61,
      "hit": false,
      "t": 19684.888124999994,
      "d": 449.66085937499884,
      "v": 1
    },
    {
      "midi": 62,
      "hit": false,
      "t": 20138.12718749999,
      "d": 401.9514843750003,
      "v": 1
    },
    {
      "midi": 58,
      "hit": false,
      "t": 20142.898124999992,
      "d": 406.72242187499796,
      "v": 1
    },
    {
      "midi": 46,
      "hit": false,
      "t": 20152.440000000006,
      "d": 1446.7867968749997,
      "v": 74
    },
    {
      "midi": 57,
      "hit": false,
      "t": 20553.19874999999,
      "d": 478.2864843749994,
      "v": 1
    },
    {
      "midi": 61,
      "hit": false,
      "t": 20577.053437499988,
      "d": 492.5992968749997,
      "v": 1
    },
    {
      "midi": 58,
      "hit": false,
      "t": 20610.450000000004,
      "d": 549.8505468750009,
      "v": 70
    },
    {
      "midi": 58,
      "hit": false,
      "t": 21073.230937499986,
      "d": 468.74460937500044,
      "v": 1
    },
    {
      "midi": 62,
      "hit": false,
      "t": 21078.001874999987,
      "d": 487.8283593749984,
      "v": 1
    },
    {
      "midi": 58,
      "hit": false,
      "t": 21297.465000000004,
      "d": 540.3086718750019,
      "v": 72
    },
    {
      "midi": 62,
      "hit": false,
      "t": 21526.470000000005,
      "d": 382.8677343750023,
      "v": 78
    },
    {
      "midi": 65,
      "hit": false,
      "t": 21526.470000000005,
      "d": 401.95148437500393,
      "v": 63
    },
    {
      "midi": 63,
      "hit": false,
      "t": 21569.408437499984,
      "d": 411.4933593749993,
      "v": 1
    },
    {
      "midi": 67,
      "hit": false,
      "t": 21569.408437499984,
      "d": 411.4933593749993,
      "v": 1
    },
    {
      "midi": 46,
      "hit": false,
      "t": 21755.475000000006,
      "d": 125.23710937500073,
      "v": 86
    },
    {
      "midi": 62,
      "hit": false,
      "t": 21984.47999999998,
      "d": 3660.501796875,
      "v": 1
    },
    {
      "midi": 65,
      "hit": false,
      "t": 21984.47999999998,
      "d": 3660.501796875,
      "v": 1
    },
    {
      "midi": 58,
      "hit": false,
      "t": 21984.48000000001,
      "d": 2467.767421875,
      "v": 96
    },
    {
      "midi": 62,
      "hit": false,
      "t": 21984.48000000001,
      "d": 2625.2083593749994,
      "v": 90
    },
    {
      "midi": 65,
      "hit": false,
      "t": 21984.48000000001,
      "d": 2715.856171874999,
      "v": 72
    },
    {
      "midi": 46,
      "hit": false,
      "t": 21984.48000000001,
      "d": 3617.563359374999,
      "v": 103
    },
    {
      "midi": 60,
      "hit": false,
      "t": 24732.540000000008,
      "d": 277.9071093750026,
      "v": 96
    },
    {
      "midi": 62,
      "hit": false,
      "t": 24961.54500000001,
      "d": 287.4489843750016,
      "v": 94
    },
    {
      "midi": 65,
      "hit": false,
      "t": 25190.55000000001,
      "d": 215.88492187500015,
      "v": 109
    },
    {
      "midi": 67,
      "hit": false,
      "t": 25419.55500000001,
      "d": 215.8849218749965,
      "v": 107
    },
    {
      "midi": 57,
      "hit": false,
      "t": 25648.56000000001,
      "d": 2496.3930468750004,
      "v": 107
    },
    {
      "midi": 60,
      "hit": false,
      "t": 25648.56000000001,
      "d": 3154.7824218749993,
      "v": 111
    },
    {
      "midi": 65,
      "hit": false,
      "t": 25648.56000000001,
      "d": 3264.5139843750003,
      "v": 110
    },
    {
      "midi": 41,
      "hit": false,
      "t": 25648.56000000001,
      "d": 3393.3292968749993,
      "v": 107
    },
    {
      "midi": 53,
      "hit": false,
      "t": 27480.60000000001,
      "d": 955.3802343749994,
      "v": 72
    },
    {
      "midi": 57,
      "hit": false,
      "t": 28396.62000000001,
      "d": 263.5942968749987,
      "v": 54
    },
    {
      "midi": 53,
      "hit": false,
      "t": 28625.625000000007,
      "d": 483.0574218750007,
      "v": 72
    },
    {
      "midi": 57,
      "hit": false,
      "t": 28854.63000000001,
      "d": 192.03023437500087,
      "v": 96
    },
    {
      "midi": 58,
      "hit": false,
      "t": 29083.63500000001,
      "d": 201.57210937499985,
      "v": 104
    },
    {
      "midi": 62,
      "hit": false,
      "t": 29083.63500000001,
      "d": 211.11398437499884,
      "v": 108
    },
    {
      "midi": 46,
      "hit": false,
      "t": 29083.63500000001,
      "d": 215.88492187500015,
      "v": 110
    },
    {
      "midi": 65,
      "hit": false,
      "t": 29083.63500000001,
      "d": 3717.7530468750047,
      "v": 110
    },
    {
      "midi": 57,
      "hit": false,
      "t": 29312.64000000001,
      "d": 2167.198359375001,
      "v": 95
    },
    {
      "midi": 60,
      "hit": false,
      "t": 29312.64000000001,
      "d": 2491.622109374999,
      "v": 67
    },
    {
      "midi": 41,
      "hit": false,
      "t": 29312.64000000001,
      "d": 3612.7924218750086,
      "v": 101
    },
    {
      "midi": 53,
      "hit": false,
      "t": 31144.68000000001,
      "d": 807.4811718749988,
      "v": 84
    },
    {
      "midi": 57,
      "hit": false,
      "t": 31602.69000000001,
      "d": 268.365234375,
      "v": 68
    },
    {
      "midi": 53,
      "hit": false,
      "t": 32060.70000000001,
      "d": 277.9071093750026,
      "v": 107
    },
    {
      "midi": 55,
      "hit": false,
      "t": 32289.705000000013,
      "d": 268.365234375,
      "v": 115
    },
    {
      "midi": 58,
      "hit": false,
      "t": 32518.710000000014,
      "d": 368.55492187500204,
      "v": 113
    },
    {
      "midi": 58,
      "hit": false,
      "t": 32976.71999999998,
      "d": 454.4317968749965,
      "v": 1
    },
    {
      "midi": 62,
      "hit": false,
      "t": 32976.71999999998,
      "d": 454.4317968749965,
      "v": 1
    },
    {
      "midi": 46,
      "hit": false,
      "t": 32976.720000000016,
      "d": 1733.0430468749983,
      "v": 106
    },
    {
      "midi": 58,
      "hit": false,
      "t": 32976.720000000016,
      "d": 2109.9471093750035,
      "v": 110
    },
    {
      "midi": 65,
      "hit": false,
      "t": 32976.720000000016,
      "d": 2911.4646093750052,
      "v": 105
    },
    {
      "midi": 62,
      "hit": false,
      "t": 32976.720000000016,
      "d": 2944.8611718750035,
      "v": 99
    },
    {
      "midi": 57,
      "hit": false,
      "t": 33434.729999999974,
      "d": 416.2642968750006,
      "v": 1
    },
    {
      "midi": 61,
      "hit": false,
      "t": 33444.27187499998,
      "d": 421.03523437499825,
      "v": 1
    },
    {
      "midi": 58,
      "hit": false,
      "t": 33868.88531249997,
      "d": 449.66085937499884,
      "v": 1
    },
    {
      "midi": 62,
      "hit": false,
      "t": 33883.19812499997,
      "d": 444.88992187500116,
      "v": 1
    },
    {
      "midi": 57,
      "hit": false,
      "t": 34331.66624999997,
      "d": 452.04632812500495,
      "v": 1
    },
    {
      "midi": 61,
      "hit": false,
      "t": 34341.208124999976,
      "d": 449.66085937499884,
      "v": 1
    },
    {
      "midi": 62,
      "hit": false,
      "t": 34794.44718749997,
      "d": 401.9514843750003,
      "v": 1
    },
    {
      "midi": 58,
      "hit": false,
      "t": 34799.21812499997,
      "d": 406.72242187500524,
      "v": 1
    },
    {
      "midi": 46,
      "hit": false,
      "t": 34808.76000000002,
      "d": 1446.7867968749997,
      "v": 74
    },
    {
      "midi": 57,
      "hit": false,
      "t": 35209.518749999974,
      "d": 478.2864843749994,
      "v": 1
    },
    {
      "midi": 61,
      "hit": false,
      "t": 35233.37343749998,
      "d": 492.5992968749997,
      "v": 1
    },
    {
      "midi": 58,
      "hit": false,
      "t": 35266.77000000002,
      "d": 549.8505468750009,
      "v": 70
    },
    {
      "midi": 58,
      "hit": false,
      "t": 35729.550937499975,
      "d": 468.7446093749968,
      "v": 1
    },
    {
      "midi": 62,
      "hit": false,
      "t": 35734.32187499997,
      "d": 487.82835937500204,
      "v": 1
    },
    {
      "midi": 58,
      "hit": false,
      "t": 35953.78500000002,
      "d": 540.3086718749983,
      "v": 63
    },
    {
      "midi": 62,
      "hit": false,
      "t": 36182.790000000015,
      "d": 382.8677343750023,
      "v": 76
    },
    {
      "midi": 65,
      "hit": false,
      "t": 36182.790000000015,
      "d": 401.9514843750003,
      "v": 66
    },
    {
      "midi": 63,
      "hit": false,
      "t": 36225.72843749997,
      "d": 411.4933593750029,
      "v": 1
    },
    {
      "midi": 67,
      "hit": false,
      "t": 36225.72843749997,
      "d": 411.4933593750029,
      "v": 1
    },
    {
      "midi": 46,
      "hit": false,
      "t": 36411.79500000001,
      "d": 125.23710937500437,
      "v": 86
    },
    {
      "midi": 62,
      "hit": false,
      "t": 36640.799999999974,
      "d": 3660.5017968750035,
      "v": 1
    },
    {
      "midi": 65,
      "hit": false,
      "t": 36640.799999999974,
      "d": 3660.5017968750035,
      "v": 1
    },
    {
      "midi": 62,
      "hit": false,
      "t": 36640.80000000002,
      "d": 1170.0724218749965,
      "v": 91
    },
    {
      "midi": 70,
      "hit": false,
      "t": 36640.80000000002,
      "d": 1775.9814843749919,
      "v": 95
    },
    {
      "midi": 46,
      "hit": false,
      "t": 36640.80000000002,
      "d": 3631.8761718749884,
      "v": 100
    },
    {
      "midi": 65,
      "hit": false,
      "t": 37948.03687500001,
      "d": 454.4317968749965,
      "v": 77
    },
    {
      "midi": 62,
      "hit": false,
      "t": 38472.84000000001,
      "d": 568.9342968749988,
      "v": 77
    },
    {
      "midi": 58,
      "hit": false,
      "t": 38472.84000000001,
      "d": 592.7889843750017,
      "v": 74
    },
    {
      "midi": 65,
      "hit": false,
      "t": 38472.84000000001,
      "d": 592.7889843750017,
      "v": 85
    },
    {
      "midi": 70,
      "hit": false,
      "t": 38472.84000000001,
      "d": 630.956484375005,
      "v": 85
    },
    {
      "midi": 58,
      "hit": false,
      "t": 39145.54218750002,
      "d": 1079.4246093749898,
      "v": 105
    },
    {
      "midi": 73,
      "hit": false,
      "t": 39398.40187500002,
      "d": 48.90210937499796,
      "v": 113
    },
    {
      "midi": 65,
      "hit": false,
      "t": 39398.40187500002,
      "d": 387.6386718749927,
      "v": 109
    },
    {
      "midi": 74,
      "hit": false,
      "t": 39427.02750000002,
      "d": 874.2742968749881,
      "v": 118
    },
    {
      "midi": 72,
      "hit": false,
      "t": 39646.49062500001,
      "d": 635.7274218749953,
      "v": 108
    },
    {
      "midi": 70,
      "hit": false,
      "t": 39889.80843750001,
      "d": 397.18054687499534,
      "v": 106
    },
    {
      "midi": 65,
      "hit": false,
      "t": 40090.18781250001,
      "d": 177.71742187500058,
      "v": 99
    },
    {
      "midi": 57,
      "hit": false,
      "t": 40304.880000000005,
      "d": 2496.393046875004,
      "v": 112
    },
    {
      "midi": 60,
      "hit": false,
      "t": 40304.880000000005,
      "d": 3154.78242187501,
      "v": 109
    },
    {
      "midi": 65,
      "hit": false,
      "t": 40304.880000000005,
      "d": 3264.5139843750076,
      "v": 111
    },
    {
      "midi": 41,
      "hit": false,
      "t": 40304.880000000005,
      "d": 3393.32929687501,
      "v": 106
    },
    {
      "midi": 53,
      "hit": false,
      "t": 42136.920000000006,
      "d": 955.3802343750067,
      "v": 78
    },
    {
      "midi": 57,
      "hit": false,
      "t": 43052.94000000001,
      "d": 263.5942968750023,
      "v": 57
    },
    {
      "midi": 53,
      "hit": false,
      "t": 43281.945000000014,
      "d": 483.0574218749971,
      "v": 66
    },
    {
      "midi": 57,
      "hit": false,
      "t": 43510.95000000001,
      "d": 192.03023437500087,
      "v": 92
    },
    {
      "midi": 58,
      "hit": false,
      "t": 43739.95500000001,
      "d": 196.80117187500582,
      "v": 105
    },
    {
      "midi": 62,
      "hit": false,
      "t": 43739.95500000001,
      "d": 196.80117187500582,
      "v": 107
    },
    {
      "midi": 65,
      "hit": false,
      "t": 43739.95500000001,
      "d": 196.80117187500582,
      "v": 112
    },
    {
      "midi": 46,
      "hit": false,
      "t": 43739.95500000001,
      "d": 215.88492187500378,
      "v": 108
    },
    {
      "midi": 41,
      "hit": false,
      "t": 43968.960000000014,
      "d": 1599.456796874998,
      "v": 109
    },
    {
      "midi": 57,
      "hit": false,
      "t": 43968.960000000014,
      "d": 2424.8289843750026,
      "v": 87
    },
    {
      "midi": 60,
      "hit": false,
      "t": 43968.960000000014,
      "d": 2491.622109374999,
      "v": 101
    },
    {
      "midi": 65,
      "hit": false,
      "t": 43968.960000000014,
      "d": 3192.949921874999,
      "v": 99
    },
    {
      "midi": 41,
      "hit": false,
      "t": 45848.70937500001,
      "d": 626.185546875,
      "v": 84
    },
    {
      "midi": 57,
      "hit": false,
      "t": 46688.39437500001,
      "d": 187.2592968750032,
      "v": 98
    },
    {
      "midi": 60,
      "hit": false,
      "t": 46702.70718750001,
      "d": 87.06960937500116,
      "v": 100
    },
    {
      "midi": 41,
      "hit": false,
      "t": 46717.02000000001,
      "d": 907.6708593750009,
      "v": 109
    },
    {
      "midi": 62,
      "hit": false,
      "t": 46774.27125000001,
      "d": 378.09679687500466,
      "v": 92
    },
    {
      "midi": 60,
      "hit": false,
      "t": 47155.946250000015,
      "d": 249.28148437499476,
      "v": 97
    },
    {
      "midi": 58,
      "hit": false,
      "t": 47404.03500000001,
      "d": 196.80117187499854,
      "v": 111
    },
    {
      "midi": 58,
      "hit": false,
      "t": 47633.03999999998,
      "d": 454.4317968749965,
      "v": 1
    },
    {
      "midi": 62,
      "hit": false,
      "t": 47633.03999999998,
      "d": 454.4317968749965,
      "v": 1
    },
    {
      "midi": 46,
      "hit": false,
      "t": 47633.040000000015,
      "d": 1733.0430468749983,
      "v": 104
    },
    {
      "midi": 58,
      "hit": false,
      "t": 47633.040000000015,
      "d": 2109.9471093750035,
      "v": 110
    },
    {
      "midi": 65,
      "hit": false,
      "t": 47633.040000000015,
      "d": 2911.4646093750052,
      "v": 110
    },
    {
      "midi": 62,
      "hit": false,
      "t": 47633.040000000015,
      "d": 2944.8611718750035,
      "v": 103
    },
    {
      "midi": 57,
      "hit": false,
      "t": 48091.049999999974,
      "d": 416.2642968750006,
      "v": 1
    },
    {
      "midi": 61,
      "hit": false,
      "t": 48100.59187499998,
      "d": 421.03523437499825,
      "v": 1
    },
    {
      "midi": 58,
      "hit": false,
      "t": 48525.20531249997,
      "d": 449.66085937499884,
      "v": 1
    },
    {
      "midi": 62,
      "hit": false,
      "t": 48539.51812499997,
      "d": 444.88992187500116,
      "v": 1
    },
    {
      "midi": 57,
      "hit": false,
      "t": 48987.98624999997,
      "d": 452.04632812500495,
      "v": 1
    },
    {
      "midi": 61,
      "hit": false,
      "t": 48997.528124999975,
      "d": 449.66085937499884,
      "v": 1
    },
    {
      "midi": 62,
      "hit": false,
      "t": 49450.76718749997,
      "d": 401.9514843750003,
      "v": 1
    },
    {
      "midi": 58,
      "hit": false,
      "t": 49455.53812499997,
      "d": 406.72242187500524,
      "v": 1
    },
    {
      "midi": 46,
      "hit": false,
      "t": 49465.080000000016,
      "d": 1446.7867968749997,
      "v": 76
    },
    {
      "midi": 57,
      "hit": false,
      "t": 49865.83874999997,
      "d": 478.2864843749994,
      "v": 1
    },
    {
      "midi": 61,
      "hit": false,
      "t": 49889.69343749998,
      "d": 492.5992968749997,
      "v": 1
    },
    {
      "midi": 58,
      "hit": false,
      "t": 49923.09000000002,
      "d": 549.8505468750009,
      "v": 73
    },
    {
      "midi": 58,
      "hit": false,
      "t": 50385.870937499974,
      "d": 468.7446093749968,
      "v": 1
    },
    {
      "midi": 62,
      "hit": false,
      "t": 50390.64187499997,
      "d": 487.82835937500204,
      "v": 1
    },
    {
      "midi": 58,
      "hit": false,
      "t": 50610.10500000002,
      "d": 597.5599218749921,
      "v": 80
    },
    {
      "midi": 62,
      "hit": false,
      "t": 50839.110000000015,
      "d": 382.86773437499505,
      "v": 71
    },
    {
      "midi": 65,
      "hit": false,
      "t": 50839.110000000015,
      "d": 401.951484374993,
      "v": 69
    },
    {
      "midi": 63,
      "hit": false,
      "t": 50882.04843749997,
      "d": 411.4933593750029,
      "v": 1
    },
    {
      "midi": 67,
      "hit": false,
      "t": 50882.04843749997,
      "d": 411.4933593750029,
      "v": 1
    },
    {
      "midi": 46,
      "hit": false,
      "t": 51068.11500000001,
      "d": 125.23710937499709,
      "v": 86
    },
    {
      "midi": 62,
      "hit": false,
      "t": 51297.11999999997,
      "d": 3202.4917968750015,
      "v": 1
    },
    {
      "midi": 65,
      "hit": false,
      "t": 51297.11999999997,
      "d": 3202.4917968750015,
      "v": 1
    },
    {
      "midi": 62,
      "hit": false,
      "t": 51297.12000000001,
      "d": 1360.909921874998,
      "v": 97
    },
    {
      "midi": 46,
      "hit": false,
      "t": 51297.12000000001,
      "d": 1661.4789843749968,
      "v": 96
    },
    {
      "midi": 58,
      "hit": false,
      "t": 51297.12000000001,
      "d": 2000.2155468749916,
      "v": 96
    },
    {
      "midi": 65,
      "hit": false,
      "t": 51297.12000000001,
      "d": 2725.398046874987,
      "v": 106
    },
    {
      "midi": 62,
      "hit": false,
      "t": 52900.155000000006,
      "d": 812.2521093749892,
      "v": 84
    },
    {
      "midi": 46,
      "hit": false,
      "t": 53129.16,
      "d": 1733.0430468749837,
      "v": 85
    },
    {
      "midi": 58,
      "hit": false,
      "t": 53587.17,
      "d": 296.9908593750006,
      "v": 72
    },
    {
      "midi": 60,
      "hit": false,
      "t": 54045.18,
      "d": 812.2521093749892,
      "v": 87
    },
    {
      "midi": 62,
      "hit": false,
      "t": 54274.185,
      "d": 215.8849218749965,
      "v": 108
    },
    {
      "midi": 58,
      "hit": false,
      "t": 54503.18999999997,
      "d": 444.88992187500116,
      "v": 1
    },
    {
      "midi": 62,
      "hit": false,
      "t": 54503.18999999997,
      "d": 454.4317968750038,
      "v": 1
    },
    {
      "midi": 65,
      "hit": false,
      "t": 54503.189999999995,
      "d": 215.8849218749965,
      "v": 110
    },
    {
      "midi": 67,
      "hit": false,
      "t": 54732.19499999999,
      "d": 215.8849218749965,
      "v": 104
    },
    {
      "midi": 57,
      "hit": false,
      "t": 54961.199999999975,
      "d": 3660.5017968750035,
      "v": 1
    },
    {
      "midi": 60,
      "hit": false,
      "t": 54961.199999999975,
      "d": 3660.5017968750035,
      "v": 1
    },
    {
      "midi": 57,
      "hit": false,
      "t": 54961.19999999999,
      "d": 2496.393046875004,
      "v": 111
    },
    {
      "midi": 60,
      "hit": false,
      "t": 54961.19999999999,
      "d": 3154.78242187501,
      "v": 108
    },
    {
      "midi": 65,
      "hit": false,
      "t": 54961.19999999999,
      "d": 3264.5139843750076,
      "v": 114
    },
    {
      "midi": 41,
      "hit": false,
      "t": 54961.19999999999,
      "d": 3393.32929687501,
      "v": 102
    },
    {
      "midi": 53,
      "hit": false,
      "t": 56793.23999999999,
      "d": 955.3802343750067,
      "v": 72
    },
    {
      "midi": 57,
      "hit": false,
      "t": 57709.259999999995,
      "d": 263.5942968750023,
      "v": 54
    },
    {
      "midi": 53,
      "hit": false,
      "t": 57938.265,
      "d": 483.0574218749971,
      "v": 71
    },
    {
      "midi": 57,
      "hit": false,
      "t": 58167.27,
      "d": 192.03023437500087,
      "v": 96
    },
    {
      "midi": 46,
      "hit": false,
      "t": 58396.274999999994,
      "d": 196.80117187500582,
      "v": 110
    },
    {
      "midi": 58,
      "hit": false,
      "t": 58396.274999999994,
      "d": 196.80117187500582,
      "v": 105
    },
    {
      "midi": 62,
      "hit": false,
      "t": 58396.274999999994,
      "d": 196.80117187500582,
      "v": 106
    },
    {
      "midi": 65,
      "hit": false,
      "t": 58396.274999999994,
      "d": 196.80117187500582,
      "v": 109
    },
    {
      "midi": 41,
      "hit": false,
      "t": 58625.28,
      "d": 1599.456796874998,
      "v": 108
    },
    {
      "midi": 65,
      "hit": false,
      "t": 58625.28,
      "d": 1780.7524218749968,
      "v": 100
    },
    {
      "midi": 57,
      "hit": false,
      "t": 58625.28,
      "d": 2424.8289843750026,
      "v": 92
    },
    {
      "midi": 60,
      "hit": false,
      "t": 58625.28,
      "d": 2491.622109374999,
      "v": 95
    },
    {
      "midi": 41,
      "hit": false,
      "t": 60505.029375,
      "d": 626.185546875,
      "v": 84
    },
    {
      "midi": 57,
      "hit": false,
      "t": 61344.714374999996,
      "d": 187.2592968750032,
      "v": 96
    },
    {
      "midi": 60,
      "hit": false,
      "t": 61359.027187499996,
      "d": 87.06960937500116,
      "v": 101
    },
    {
      "midi": 41,
      "hit": false,
      "t": 61373.34,
      "d": 907.6708593750081,
      "v": 107
    },
    {
      "midi": 62,
      "hit": false,
      "t": 61430.59125,
      "d": 378.09679687500466,
      "v": 98
    },
    {
      "midi": 60,
      "hit": false,
      "t": 61812.26625,
      "d": 249.28148437500204,
      "v": 98
    },
    {
      "midi": 58,
      "hit": false,
      "t": 62060.355,
      "d": 182.48835937499825,
      "v": 111
    },
    {
      "midi": 67,
      "hit": false,
      "t": 62289.36000000001,
      "d": 406.72242187499796,
      "v": 112
    },
    {
      "midi": 63,
      "hit": false,
      "t": 62289.36000000001,
      "d": 421.03523437499825,
      "v": 118
    },
    {
      "midi": 58,
      "hit": false,
      "t": 62289.36000000001,
      "d": 602.3308593749971,
      "v": 112
    },
    {
      "midi": 46,
      "hit": false,
      "t": 62289.36000000001,
      "d": 635.7274218749953,
      "v": 119
    },
    {
      "midi": 65,
      "hit": false,
      "t": 62747.37,
      "d": 134.7789843749997,
      "v": 94
    },
    {
      "midi": 62,
      "hit": false,
      "t": 62747.37,
      "d": 158.63367187500262,
      "v": 83
    },
    {
      "midi": 67,
      "hit": false,
      "t": 63205.380000000005,
      "d": 363.7839843749971,
      "v": 104
    },
    {
      "midi": 63,
      "hit": false,
      "t": 63205.380000000005,
      "d": 378.0967968749974,
      "v": 114
    },
    {
      "midi": 58,
      "hit": false,
      "t": 63205.380000000005,
      "d": 588.0180468749895,
      "v": 110
    },
    {
      "midi": 46,
      "hit": false,
      "t": 63205.380000000005,
      "d": 621.4146093749878,
      "v": 105
    },
    {
      "midi": 65,
      "hit": false,
      "t": 63663.39,
      "d": 110.9242968749968,
      "v": 95
    },
    {
      "midi": 62,
      "hit": false,
      "t": 63663.39,
      "d": 134.77898437499243,
      "v": 98
    },
    {
      "midi": 67,
      "hit": false,
      "t": 64121.399999999994,
      "d": 397.1805468750026,
      "v": 105
    },
    {
      "midi": 63,
      "hit": false,
      "t": 64121.399999999994,
      "d": 411.4933593750029,
      "v": 103
    },
    {
      "midi": 58,
      "hit": false,
      "t": 64121.399999999994,
      "d": 602.3308593750044,
      "v": 100
    },
    {
      "midi": 46,
      "hit": false,
      "t": 64121.399999999994,
      "d": 645.2692968750052,
      "v": 97
    },
    {
      "midi": 65,
      "hit": false,
      "t": 64579.409999999996,
      "d": 101.38242187500146,
      "v": 86
    },
    {
      "midi": 62,
      "hit": false,
      "t": 64579.409999999996,
      "d": 120.46617187499942,
      "v": 95
    },
    {
      "midi": 67,
      "hit": false,
      "t": 65037.42,
      "d": 425.8061718750032,
      "v": 113
    },
    {
      "midi": 63,
      "hit": false,
      "t": 65037.42,
      "d": 444.88992187500116,
      "v": 114
    },
    {
      "midi": 58,
      "hit": false,
      "t": 65037.42,
      "d": 664.3530468750105,
      "v": 102
    },
    {
      "midi": 46,
      "hit": false,
      "t": 65037.42,
      "d": 669.1239843750081,
      "v": 104
    },
    {
      "midi": 65,
      "hit": false,
      "t": 65495.43,
      "d": 149.09179687500728,
      "v": 78
    },
    {
      "midi": 62,
      "hit": false,
      "t": 65495.43,
      "d": 177.71742187500786,
      "v": 93
    },
    {
      "midi": 65,
      "hit": false,
      "t": 65953.44,
      "d": 172.9464843750029,
      "v": 112
    },
    {
      "midi": 62,
      "hit": false,
      "t": 65953.44,
      "d": 177.71742187500058,
      "v": 111
    },
    {
      "midi": 58,
      "hit": false,
      "t": 65953.44,
      "d": 192.0302343749936,
      "v": 106
    },
    {
      "midi": 46,
      "hit": false,
      "t": 65953.44,
      "d": 215.8849218749965,
      "v": 106
    },
    {
      "midi": 62,
      "hit": false,
      "t": 69159.51,
      "d": 239.73960937499942,
      "v": 122
    },
    {
      "midi": 46,
      "hit": false,
      "t": 69159.51,
      "d": 411.4933593750029,
      "v": 108
    },
    {
      "midi": 58,
      "hit": false,
      "t": 69159.51,
      "d": 435.34804687499127,
      "v": 94
    },
    {
      "midi": 65,
      "hit": false,
      "t": 69388.515,
      "d": 196.80117187499127,
      "v": 107
    },
    {
      "midi": 41,
      "hit": false,
      "t": 69617.51999999999,
      "d": 2004.986484375011,
      "v": 108
    },
    {
      "midi": 57,
      "hit": false,
      "t": 69617.51999999999,
      "d": 2868.526171874997,
      "v": 108
    },
    {
      "midi": 65,
      "hit": false,
      "t": 69617.51999999999,
      "d": 3035.508984375003,
      "v": 108
    },
    {
      "midi": 60,
      "hit": false,
      "t": 69617.51999999999,
      "d": 3040.2799218750006,
      "v": 110
    },
    {
      "midi": 53,
      "hit": false,
      "t": 70533.54,
      "d": 1308.4296093750017,
      "v": 67
    },
    {
      "midi": 41,
      "hit": false,
      "t": 71907.56999999999,
      "d": 1170.072421875011,
      "v": 99
    },
    {
      "midi": 53,
      "hit": false,
      "t": 72365.57999999999,
      "d": 702.520546875021,
      "v": 81
    },
    {
      "midi": 57,
      "hit": false,
      "t": 72823.59,
      "d": 106.1533593750064,
      "v": 85
    },
    {
      "midi": 58,
      "hit": false,
      "t": 73052.595,
      "d": 206.34304687500116,
      "v": 119
    },
    {
      "midi": 65,
      "hit": false,
      "t": 73052.595,
      "d": 1356.1389843750076,
      "v": 115
    },
    {
      "midi": 60,
      "hit": false,
      "t": 73281.6,
      "d": 1060.3408593750064,
      "v": 87
    },
    {
      "midi": 69,
      "hit": false,
      "t": 73281.6,
      "d": 1069.8827343750017,
      "v": 94
    },
    {
      "midi": 41,
      "hit": false,
      "t": 73281.6,
      "d": 3560.312109374994,
      "v": 101
    },
    {
      "midi": 62,
      "hit": false,
      "t": 74689.0265625,
      "d": 130.00804687499476,
      "v": 119
    },
    {
      "midi": 70,
      "hit": false,
      "t": 74689.0265625,
      "d": 153.86273437499767,
      "v": 121
    },
    {
      "midi": 65,
      "hit": false,
      "t": 74689.0265625,
      "d": 172.9464843750029,
      "v": 120
    },
    {
      "midi": 53,
      "hit": false,
      "t": 74927.5734375,
      "d": 1995.4446093750012,
      "v": 102
    },
    {
      "midi": 69,
      "hit": false,
      "t": 75113.64,
      "d": 1031.7152343750058,
      "v": 69
    },
    {
      "midi": 60,
      "hit": false,
      "t": 75113.64,
      "d": 1069.8827343750017,
      "v": 70
    },
    {
      "midi": 65,
      "hit": false,
      "t": 75113.64,
      "d": 1069.8827343750017,
      "v": 73
    },
    {
      "midi": 60,
      "hit": false,
      "t": 76501.9828125,
      "d": 87.06960937498661,
      "v": 103
    },
    {
      "midi": 65,
      "hit": false,
      "t": 76511.5246875,
      "d": 230.19773437500407,
      "v": 113
    },
    {
      "midi": 62,
      "hit": false,
      "t": 76521.0665625,
      "d": 158.63367187499534,
      "v": 122
    },
    {
      "midi": 60,
      "hit": false,
      "t": 76726.216875,
      "d": 106.1533593750064,
      "v": 75
    },
    {
      "midi": 58,
      "hit": false,
      "t": 76945.68000000001,
      "d": 1661.478984375004,
      "v": 104
    },
    {
      "midi": 34,
      "hit": false,
      "t": 76945.68000000001,
      "d": 2004.986484375011,
      "v": 106
    },
    {
      "midi": 62,
      "hit": false,
      "t": 76945.68000000001,
      "d": 2458.225546875008,
      "v": 98
    },
    {
      "midi": 65,
      "hit": false,
      "t": 76945.68000000001,
      "d": 2467.7674218750035,
      "v": 106
    },
    {
      "midi": 46,
      "hit": false,
      "t": 78319.71,
      "d": 1031.7152343750058,
      "v": 84
    },
    {
      "midi": 58,
      "hit": false,
      "t": 78777.72000000002,
      "d": 578.4761718749942,
      "v": 82
    },
    {
      "midi": 34,
      "hit": false,
      "t": 79464.73500000002,
      "d": 1139.061328124997,
      "v": 102
    },
    {
      "midi": 67,
      "hit": false,
      "t": 79693.74000000002,
      "d": 149.091796875,
      "v": 107
    },
    {
      "midi": 58,
      "hit": false,
      "t": 79693.74000000002,
      "d": 172.9464843750029,
      "v": 99
    },
    {
      "midi": 63,
      "hit": false,
      "t": 79693.74000000002,
      "d": 182.48835937499825,
      "v": 112
    },
    {
      "midi": 46,
      "hit": false,
      "t": 79922.74500000002,
      "d": 101.38242187499418,
      "v": 109
    },
    {
      "midi": 67,
      "hit": false,
      "t": 80151.75000000001,
      "d": 239.73960937499942,
      "v": 105
    },
    {
      "midi": 63,
      "hit": false,
      "t": 80151.75000000001,
      "d": 244.5105468749971,
      "v": 112
    },
    {
      "midi": 58,
      "hit": false,
      "t": 80151.75000000001,
      "d": 254.05242187499243,
      "v": 110
    },
    {
      "midi": 46,
      "hit": false,
      "t": 80380.75500000002,
      "d": 249.28148437499476,
      "v": 110
    },
    {
      "midi": 34,
      "hit": false,
      "t": 80609.76000000001,
      "d": 1265.4911718750081,
      "v": 109
    },
    {
      "midi": 58,
      "hit": false,
      "t": 80609.76000000001,
      "d": 1685.3336718750215,
      "v": 107
    },
    {
      "midi": 65,
      "hit": false,
      "t": 80609.76000000001,
      "d": 1728.2721093750151,
      "v": 109
    },
    {
      "midi": 62,
      "hit": false,
      "t": 80609.76000000001,
      "d": 1761.6686718750134,
      "v": 103
    },
    {
      "midi": 46,
      "hit": false,
      "t": 81950.39343750002,
      "d": 879.045234374993,
      "v": 99
    },
    {
      "midi": 62,
      "hit": false,
      "t": 82446.57093750003,
      "d": 516.4539843749953,
      "v": 53
    },
    {
      "midi": 65,
      "hit": false,
      "t": 82460.88375000002,
      "d": 545.0796093749959,
      "v": 71
    },
    {
      "midi": 58,
      "hit": false,
      "t": 82470.42562500002,
      "d": 378.09679687500466,
      "v": 86
    },
    {
      "midi": 34,
      "hit": false,
      "t": 83138.35687500001,
      "d": 1022.1733593749814,
      "v": 101
    },
    {
      "midi": 46,
      "hit": false,
      "t": 83181.2953125,
      "d": 1055.5699218749942,
      "v": 118
    },
    {
      "midi": 62,
      "hit": false,
      "t": 83367.361875,
      "d": 206.34304687500116,
      "v": 115
    },
    {
      "midi": 66,
      "hit": false,
      "t": 83381.6746875,
      "d": 25.04742187500233,
      "v": 99
    },
    {
      "midi": 67,
      "hit": false,
      "t": 83429.3840625,
      "d": 201.5721093750035,
      "v": 118
    },
    {
      "midi": 66,
      "hit": false,
      "t": 83615.450625,
      "d": 44.13117187500757,
      "v": 67
    },
    {
      "midi": 67,
      "hit": false,
      "t": 83849.2265625,
      "d": 163.40460937499302,
      "v": 113
    },
    {
      "midi": 62,
      "hit": false,
      "t": 83858.7684375,
      "d": 401.951484374993,
      "v": 110
    },
    {
      "midi": 65,
      "hit": false,
      "t": 84068.6896875,
      "d": 177.71742187500058,
      "v": 99
    },
    {
      "midi": 57,
      "hit": false,
      "t": 84273.83999999998,
      "d": 1704.4174218749977,
      "v": 102
    },
    {
      "midi": 60,
      "hit": false,
      "t": 84273.83999999998,
      "d": 2338.9521093749936,
      "v": 103
    },
    {
      "midi": 65,
      "hit": false,
      "t": 84273.83999999998,
      "d": 2338.9521093749936,
      "v": 107
    },
    {
      "midi": 29,
      "hit": false,
      "t": 84273.83999999998,
      "d": 3550.7702343749843,
      "v": 94
    },
    {
      "midi": 41,
      "hit": false,
      "t": 85189.85999999999,
      "d": 1189.1561718749872,
      "v": 95
    },
    {
      "midi": 57,
      "hit": false,
      "t": 86105.87999999998,
      "d": 497.37023437500466,
      "v": 81
    },
    {
      "midi": 41,
      "hit": false,
      "t": 86792.89499999997,
      "d": 215.8849218749965,
      "v": 115
    },
    {
      "midi": 58,
      "hit": false,
      "t": 87021.89999999997,
      "d": 225.4267968750064,
      "v": 117
    },
    {
      "midi": 50,
      "hit": false,
      "t": 87021.89999999997,
      "d": 239.73960937499942,
      "v": 117
    },
    {
      "midi": 53,
      "hit": false,
      "t": 87021.89999999997,
      "d": 244.5105468749971,
      "v": 115
    },
    {
      "midi": 41,
      "hit": false,
      "t": 87250.90499999997,
      "d": 149.09179687498545,
      "v": 118
    },
    {
      "midi": 50,
      "hit": false,
      "t": 87479.90999999996,
      "d": 196.80117187500582,
      "v": 120
    },
    {
      "midi": 53,
      "hit": false,
      "t": 87479.90999999996,
      "d": 220.65585937500873,
      "v": 119
    },
    {
      "midi": 58,
      "hit": false,
      "t": 87479.90999999996,
      "d": 258.82335937500466,
      "v": 117
    },
    {
      "midi": 41,
      "hit": false,
      "t": 87708.91499999996,
      "d": 215.8849218749965,
      "v": 115
    },
    {
      "midi": 57,
      "hit": false,
      "t": 87937.91999999995,
      "d": 1952.506171874993,
      "v": 98
    },
    {
      "midi": 60,
      "hit": false,
      "t": 87937.91999999995,
      "d": 1971.5899218749983,
      "v": 98
    },
    {
      "midi": 65,
      "hit": false,
      "t": 87937.91999999995,
      "d": 1976.360859374996,
      "v": 100
    },
    {
      "midi": 29,
      "hit": false,
      "t": 87937.91999999995,
      "d": 2057.466796875,
      "v": 93
    },
    {
      "midi": 41,
      "hit": false,
      "t": 90041.90343749996,
      "d": 101.38242187499418,
      "v": 113
    },
    {
      "midi": 62,
      "hit": false,
      "t": 90237.51187499995,
      "d": 192.0302343749936,
      "v": 115
    },
    {
      "midi": 67,
      "hit": false,
      "t": 90237.51187499995,
      "d": 230.19773437498952,
      "v": 109
    },
    {
      "midi": 65,
      "hit": false,
      "t": 90476.05874999994,
      "d": 77.52773437500582,
      "v": 83
    },
    {
      "midi": 60,
      "hit": false,
      "t": 90690.75093749995,
      "d": 130.0080468749802,
      "v": 113
    },
    {
      "midi": 65,
      "hit": false,
      "t": 90690.75093749995,
      "d": 282.67804687497846,
      "v": 118
    },
    {
      "midi": 61,
      "hit": false,
      "t": 90705.06374999994,
      "d": 15.505546874992433,
      "v": 89
    },
    {
      "midi": 62,
      "hit": false,
      "t": 90719.37656249994,
      "d": 273.1361718749977,
      "v": 108
    },
    {
      "midi": 65,
      "hit": false,
      "t": 91148.76093749993,
      "d": 192.03023437500815,
      "v": 113
    },
    {
      "midi": 61,
      "hit": false,
      "t": 91153.53187499993,
      "d": 110.92429687500407,
      "v": 117
    },
    {
      "midi": 60,
      "hit": false,
      "t": 91201.24124999993,
      "d": 234.96867187500175,
      "v": 91
    },
    {
      "midi": 58,
      "hit": false,
      "t": 91406.39156249994,
      "d": 144.32085937500233,
      "v": 112
    },
    {
      "midi": 67,
      "hit": false,
      "t": 91601.99999999994,
      "d": 406.72242187500524,
      "v": 116
    },
    {
      "midi": 63,
      "hit": false,
      "t": 91601.99999999994,
      "d": 421.03523437499825,
      "v": 118
    },
    {
      "midi": 58,
      "hit": false,
      "t": 91601.99999999994,
      "d": 602.3308593749971,
      "v": 108
    },
    {
      "midi": 46,
      "hit": false,
      "t": 91601.99999999994,
      "d": 635.7274218749953,
      "v": 113
    },
    {
      "midi": 65,
      "hit": false,
      "t": 92060.00999999994,
      "d": 134.77898437500698,
      "v": 97
    },
    {
      "midi": 62,
      "hit": false,
      "t": 92060.00999999994,
      "d": 158.63367187499534,
      "v": 87
    },
    {
      "midi": 67,
      "hit": false,
      "t": 92518.01999999993,
      "d": 363.7839843749971,
      "v": 107
    },
    {
      "midi": 63,
      "hit": false,
      "t": 92518.01999999993,
      "d": 378.0967968749901,
      "v": 118
    },
    {
      "midi": 58,
      "hit": false,
      "t": 92518.01999999993,
      "d": 588.0180468750041,
      "v": 108
    },
    {
      "midi": 46,
      "hit": false,
      "t": 92518.01999999993,
      "d": 621.4146093750023,
      "v": 106
    },
    {
      "midi": 65,
      "hit": false,
      "t": 92976.02999999993,
      "d": 110.92429687500407,
      "v": 95
    },
    {
      "midi": 62,
      "hit": false,
      "t": 92976.02999999993,
      "d": 134.77898437500698,
      "v": 97
    },
    {
      "midi": 67,
      "hit": false,
      "t": 93434.03999999994,
      "d": 397.18054687499534,
      "v": 111
    },
    {
      "midi": 63,
      "hit": false,
      "t": 93434.03999999994,
      "d": 411.49335937498836,
      "v": 101
    },
    {
      "midi": 58,
      "hit": false,
      "t": 93434.03999999994,
      "d": 602.3308593749971,
      "v": 101
    },
    {
      "midi": 46,
      "hit": false,
      "t": 93434.03999999994,
      "d": 645.2692968749907,
      "v": 99
    },
    {
      "midi": 65,
      "hit": false,
      "t": 93892.04999999993,
      "d": 101.38242187499418,
      "v": 84
    },
    {
      "midi": 62,
      "hit": false,
      "t": 93892.04999999993,
      "d": 120.46617187499942,
      "v": 99
    },
    {
      "midi": 67,
      "hit": false,
      "t": 94350.05999999992,
      "d": 387.638671875,
      "v": 118
    },
    {
      "midi": 63,
      "hit": false,
      "t": 94350.05999999992,
      "d": 406.72242187500524,
      "v": 115
    },
    {
      "midi": 58,
      "hit": false,
      "t": 94350.05999999992,
      "d": 664.3530468750105,
      "v": 107
    },
    {
      "midi": 46,
      "hit": false,
      "t": 94350.05999999992,
      "d": 669.1239843750081,
      "v": 104
    },
    {
      "midi": 65,
      "hit": false,
      "t": 94808.06999999993,
      "d": 149.091796875,
      "v": 75
    },
    {
      "midi": 62,
      "hit": false,
      "t": 94808.06999999993,
      "d": 177.71742187500058,
      "v": 96
    },
    {
      "midi": 58,
      "hit": false,
      "t": 95266.07999999993,
      "d": 463.9736718750064,
      "v": 116
    },
    {
      "midi": 62,
      "hit": false,
      "t": 95266.07999999993,
      "d": 478.2864843749994,
      "v": 109
    },
    {
      "midi": 65,
      "hit": false,
      "t": 95266.07999999993,
      "d": 478.2864843749994,
      "v": 111
    },
    {
      "midi": 46,
      "hit": false,
      "t": 95266.07999999993,
      "d": 483.0574218749971,
      "v": 110
    },
    {
      "midi": 58,
      "hit": false,
      "t": 98930.15999999993,
      "d": 826.5649218750041,
      "v": 102
    },
    {
      "midi": 63,
      "hit": false,
      "t": 98930.15999999993,
      "d": 1131.9049218750006,
      "v": 104
    },
    {
      "midi": 67,
      "hit": false,
      "t": 98930.15999999993,
      "d": 1203.4689843749948,
      "v": 112
    },
    {
      "midi": 39,
      "hit": false,
      "t": 98930.15999999993,
      "d": 1637.6242968750012,
      "v": 99
    },
    {
      "midi": 63,
      "hit": false,
      "t": 98930.15999999997,
      "d": 7324.581796875005,
      "v": 1
    },
    {
      "midi": 67,
      "hit": false,
      "t": 98930.15999999997,
      "d": 7324.581796875005,
      "v": 1
    },
    {
      "midi": 58,
      "hit": false,
      "t": 100075.18499999992,
      "d": 106.1533593750064,
      "v": 18
    },
    {
      "midi": 58,
      "hit": false,
      "t": 100304.18999999993,
      "d": 840.8777343750116,
      "v": 107
    },
    {
      "midi": 63,
      "hit": false,
      "t": 100304.18999999993,
      "d": 1198.6980468750116,
      "v": 100
    },
    {
      "midi": 67,
      "hit": false,
      "t": 100304.18999999993,
      "d": 1265.4911718750081,
      "v": 105
    },
    {
      "midi": 39,
      "hit": false,
      "t": 100762.19999999994,
      "d": 1179.6142968750064,
      "v": 100
    },
    {
      "midi": 58,
      "hit": false,
      "t": 101449.21499999994,
      "d": 807.4811718750134,
      "v": 85
    },
    {
      "midi": 63,
      "hit": false,
      "t": 101678.21999999994,
      "d": 836.106796875014,
      "v": 82
    },
    {
      "midi": 67,
      "hit": false,
      "t": 101907.22499999995,
      "d": 597.559921875014,
      "v": 99
    },
    {
      "midi": 39,
      "hit": false,
      "t": 102136.22999999995,
      "d": 363.78398437501164,
      "v": 91
    },
    {
      "midi": 58,
      "hit": false,
      "t": 102365.23499999996,
      "d": 139.54992187500466,
      "v": 63
    },
    {
      "midi": 58,
      "hit": false,
      "t": 102594.23999999996,
      "d": 1179.6142968750064,
      "v": 85
    },
    {
      "midi": 39,
      "hit": false,
      "t": 102594.23999999996,
      "d": 1666.2499218750017,
      "v": 105
    },
    {
      "midi": 67,
      "hit": false,
      "t": 102594.23999999996,
      "d": 1671.0208593749994,
      "v": 104
    },
    {
      "midi": 63,
      "hit": false,
      "t": 102594.23999999996,
      "d": 1704.4174218749977,
      "v": 96
    },
    {
      "midi": 58,
      "hit": false,
      "t": 104197.27499999997,
      "d": 149.091796875,
      "v": 84
    },
    {
      "midi": 67,
      "hit": false,
      "t": 104426.27999999997,
      "d": 774.0846093750006,
      "v": 101
    },
    {
      "midi": 58,
      "hit": false,
      "t": 104426.27999999997,
      "d": 788.3974218749936,
      "v": 92
    },
    {
      "midi": 63,
      "hit": false,
      "t": 104426.27999999997,
      "d": 864.732421875,
      "v": 97
    },
    {
      "midi": 39,
      "hit": false,
      "t": 104426.27999999997,
      "d": 1232.09460937501,
      "v": 103
    },
    {
      "midi": 58,
      "hit": false,
      "t": 105342.29999999997,
      "d": 521.2249218750076,
      "v": 101
    },
    {
      "midi": 67,
      "hit": false,
      "t": 105342.29999999997,
      "d": 826.5649218750186,
      "v": 97
    },
    {
      "midi": 63,
      "hit": false,
      "t": 105571.30499999998,
      "d": 607.1017968750093,
      "v": 83
    },
    {
      "midi": 39,
      "hit": false,
      "t": 105800.30999999998,
      "d": 339.92929687500873,
      "v": 95
    },
    {
      "midi": 58,
      "hit": false,
      "t": 106029.31499999999,
      "d": 149.091796875,
      "v": 88
    },
    {
      "midi": 62,
      "hit": false,
      "t": 106258.31999999998,
      "d": 7324.581796875005,
      "v": 1
    },
    {
      "midi": 65,
      "hit": false,
      "t": 106258.31999999998,
      "d": 7324.581796875005,
      "v": 1
    },
    {
      "midi": 70,
      "hit": false,
      "t": 106258.31999999998,
      "d": 7324.581796875005,
      "v": 1
    },
    {
      "midi": 46,
      "hit": false,
      "t": 106258.31999999999,
      "d": 1399.0774218750012,
      "v": 114
    },
    {
      "midi": 58,
      "hit": false,
      "t": 106258.31999999999,
      "d": 1685.333671875007,
      "v": 110
    },
    {
      "midi": 65,
      "hit": false,
      "t": 106258.31999999999,
      "d": 1690.1046093750047,
      "v": 105
    },
    {
      "midi": 62,
      "hit": false,
      "t": 106258.31999999999,
      "d": 1704.4174218749977,
      "v": 97
    },
    {
      "midi": 34,
      "hit": false,
      "t": 107632.34999999999,
      "d": 444.88992187500116,
      "v": 96
    },
    {
      "midi": 46,
      "hit": false,
      "t": 108090.35999999999,
      "d": 449.66085937499884,
      "v": 97
    },
    {
      "midi": 58,
      "hit": false,
      "t": 108090.35999999999,
      "d": 583.2471093749919,
      "v": 78
    },
    {
      "midi": 62,
      "hit": false,
      "t": 108090.35999999999,
      "d": 607.1017968749948,
      "v": 76
    },
    {
      "midi": 65,
      "hit": false,
      "t": 108090.35999999999,
      "d": 621.4146093749878,
      "v": 64
    },
    {
      "midi": 46,
      "hit": false,
      "t": 108777.37499999997,
      "d": 187.25929687499593,
      "v": 110
    },
    {
      "midi": 67,
      "hit": false,
      "t": 109006.37999999996,
      "d": 168.17554687500524,
      "v": 102
    },
    {
      "midi": 58,
      "hit": false,
      "t": 109006.37999999996,
      "d": 187.25929687501048,
      "v": 106
    },
    {
      "midi": 63,
      "hit": false,
      "t": 109006.37999999996,
      "d": 206.34304687501572,
      "v": 116
    },
    {
      "midi": 46,
      "hit": false,
      "t": 109235.38499999998,
      "d": 72.7567968749936,
      "v": 117
    },
    {
      "midi": 67,
      "hit": false,
      "t": 109464.38999999997,
      "d": 220.65585937499418,
      "v": 114
    },
    {
      "midi": 58,
      "hit": false,
      "t": 109464.38999999997,
      "d": 258.8233593749901,
      "v": 107
    },
    {
      "midi": 63,
      "hit": false,
      "t": 109464.38999999997,
      "d": 258.8233593749901,
      "v": 120
    },
    {
      "midi": 46,
      "hit": false,
      "t": 109693.39499999996,
      "d": 1804.607109375007,
      "v": 114
    },
    {
      "midi": 58,
      "hit": false,
      "t": 109922.39999999997,
      "d": 2076.5505468750052,
      "v": 102
    },
    {
      "midi": 62,
      "hit": false,
      "t": 109922.39999999997,
      "d": 2482.080234375011,
      "v": 97
    },
    {
      "midi": 65,
      "hit": false,
      "t": 109922.39999999997,
      "d": 2505.934921875014,
      "v": 105
    },
    {
      "midi": 34,
      "hit": false,
      "t": 111525.43499999997,
      "d": 139.54992187500466,
      "v": 104
    },
    {
      "midi": 46,
      "hit": false,
      "t": 111754.43999999997,
      "d": 425.8061718749959,
      "v": 113
    },
    {
      "midi": 58,
      "hit": false,
      "t": 112212.44999999997,
      "d": 144.32085937500233,
      "v": 83
    },
    {
      "midi": 46,
      "hit": false,
      "t": 112441.45499999997,
      "d": 969.6930468749924,
      "v": 110
    },
    {
      "midi": 62,
      "hit": false,
      "t": 112670.45999999998,
      "d": 201.5721093750035,
      "v": 106
    },
    {
      "midi": 67,
      "hit": false,
      "t": 112670.45999999998,
      "d": 330.38742187499884,
      "v": 111
    },
    {
      "midi": 65,
      "hit": false,
      "t": 112899.46499999998,
      "d": 234.9686718749872,
      "v": 100
    },
    {
      "midi": 62,
      "hit": false,
      "t": 113128.46999999997,
      "d": 215.8849218749965,
      "v": 107
    },
    {
      "midi": 60,
      "hit": false,
      "t": 113357.47499999996,
      "d": 215.8849218749965,
      "v": 101
    },
    {
      "midi": 41,
      "hit": false,
      "t": 113586.47999999995,
      "d": 2257.846171875004,
      "v": 119
    },
    {
      "midi": 57,
      "hit": false,
      "t": 113586.47999999995,
      "d": 2410.5161718750023,
      "v": 106
    },
    {
      "midi": 65,
      "hit": false,
      "t": 113586.47999999995,
      "d": 2420.0580468749977,
      "v": 107
    },
    {
      "midi": 60,
      "hit": false,
      "t": 113586.47999999998,
      "d": 7324.581796875005,
      "v": 1
    },
    {
      "midi": 63,
      "hit": false,
      "t": 113586.47999999998,
      "d": 7324.581796875005,
      "v": 1
    },
    {
      "midi": 69,
      "hit": false,
      "t": 113586.47999999998,
      "d": 7324.581796875005,
      "v": 1
    },
    {
      "midi": 60,
      "hit": false,
      "t": 114502.49999999996,
      "d": 1489.7252343750006,
      "v": 79
    },
    {
      "midi": 41,
      "hit": false,
      "t": 116105.53499999995,
      "d": 34.58929687499767,
      "v": 106
    },
    {
      "midi": 58,
      "hit": false,
      "t": 116334.53999999995,
      "d": 215.8849218749965,
      "v": 122
    },
    {
      "midi": 65,
      "hit": false,
      "t": 116334.53999999995,
      "d": 220.65585937499418,
      "v": 108
    },
    {
      "midi": 62,
      "hit": false,
      "t": 116334.53999999995,
      "d": 234.9686718749872,
      "v": 113
    },
    {
      "midi": 41,
      "hit": false,
      "t": 116563.54499999994,
      "d": 58.44398437500058,
      "v": 117
    },
    {
      "midi": 62,
      "hit": false,
      "t": 116792.54999999994,
      "d": 273.1361718749977,
      "v": 103
    },
    {
      "midi": 58,
      "hit": false,
      "t": 116792.54999999994,
      "d": 277.90710937499534,
      "v": 122
    },
    {
      "midi": 65,
      "hit": false,
      "t": 116792.54999999994,
      "d": 277.90710937499534,
      "v": 111
    },
    {
      "midi": 41,
      "hit": false,
      "t": 117021.55499999995,
      "d": 63.2149218749837,
      "v": 116
    },
    {
      "midi": 57,
      "hit": false,
      "t": 117250.55999999994,
      "d": 1737.813984374996,
      "v": 103
    },
    {
      "midi": 65,
      "hit": false,
      "t": 117250.55999999994,
      "d": 1780.7524218749895,
      "v": 108
    },
    {
      "midi": 41,
      "hit": false,
      "t": 117250.55999999994,
      "d": 2028.8411718749994,
      "v": 103
    },
    {
      "midi": 57,
      "hit": false,
      "t": 119082.59999999993,
      "d": 712.0624218750017,
      "v": 68
    },
    {
      "midi": 60,
      "hit": false,
      "t": 119082.59999999993,
      "d": 745.458984375,
      "v": 68
    },
    {
      "midi": 65,
      "hit": false,
      "t": 119082.59999999993,
      "d": 859.9614843750023,
      "v": 57
    },
    {
      "midi": 41,
      "hit": false,
      "t": 119769.61499999993,
      "d": 172.9464843750029,
      "v": 105
    },
    {
      "midi": 65,
      "hit": false,
      "t": 119998.61999999994,
      "d": 182.48835937499825,
      "v": 110
    },
    {
      "midi": 67,
      "hit": false,
      "t": 120113.12249999994,
      "d": 292.2199218750029,
      "v": 97
    },
    {
      "midi": 70,
      "hit": false,
      "t": 120456.62999999995,
      "d": 444.88992187500116,
      "v": 109
    },
    {
      "midi": 67,
      "hit": false,
      "t": 120914.63999999994,
      "d": 406.72242187500524,
      "v": 111
    },
    {
      "midi": 63,
      "hit": false,
      "t": 120914.63999999994,
      "d": 421.03523437499825,
      "v": 118
    },
    {
      "midi": 58,
      "hit": false,
      "t": 120914.63999999994,
      "d": 602.3308593749971,
      "v": 108
    },
    {
      "midi": 46,
      "hit": false,
      "t": 120914.63999999994,
      "d": 635.7274218749953,
      "v": 119
    },
    {
      "midi": 62,
      "hit": false,
      "t": 120914.63999999998,
      "d": 683.4367968750012,
      "v": 1
    },
    {
      "midi": 65,
      "hit": false,
      "t": 120914.63999999998,
      "d": 683.4367968750012,
      "v": 1
    },
    {
      "midi": 70,
      "hit": false,
      "t": 120914.63999999998,
      "d": 683.4367968750012,
      "v": 1
    },
    {
      "midi": 65,
      "hit": false,
      "t": 121372.64999999994,
      "d": 134.77898437500698,
      "v": 96
    },
    {
      "midi": 62,
      "hit": false,
      "t": 121372.64999999994,
      "d": 158.63367187499534,
      "v": 87
    },
    {
      "midi": 67,
      "hit": false,
      "t": 121830.65999999993,
      "d": 363.7839843749971,
      "v": 103
    },
    {
      "midi": 63,
      "hit": false,
      "t": 121830.65999999993,
      "d": 378.0967968749901,
      "v": 111
    },
    {
      "midi": 58,
      "hit": false,
      "t": 121830.65999999993,
      "d": 588.0180468750041,
      "v": 105
    },
    {
      "midi": 46,
      "hit": false,
      "t": 121830.65999999993,
      "d": 621.4146093750023,
      "v": 108
    },
    {
      "midi": 65,
      "hit": false,
      "t": 122288.66999999993,
      "d": 110.92429687500407,
      "v": 93
    },
    {
      "midi": 62,
      "hit": false,
      "t": 122288.66999999993,
      "d": 134.77898437500698,
      "v": 98
    },
    {
      "midi": 67,
      "hit": false,
      "t": 122746.67999999993,
      "d": 397.18054687499534,
      "v": 108
    },
    {
      "midi": 63,
      "hit": false,
      "t": 122746.67999999993,
      "d": 411.49335937498836,
      "v": 106
    },
    {
      "midi": 58,
      "hit": false,
      "t": 122746.67999999993,
      "d": 602.3308593749971,
      "v": 102
    },
    {
      "midi": 46,
      "hit": false,
      "t": 122746.67999999993,
      "d": 645.2692968749907,
      "v": 95
    },
    {
      "midi": 65,
      "hit": false,
      "t": 123204.68999999993,
      "d": 101.38242187499418,
      "v": 83
    },
    {
      "midi": 62,
      "hit": false,
      "t": 123204.68999999993,
      "d": 120.46617187499942,
      "v": 97
    },
    {
      "midi": 67,
      "hit": false,
      "t": 123662.69999999992,
      "d": 387.638671875,
      "v": 118
    },
    {
      "midi": 63,
      "hit": false,
      "t": 123662.69999999992,
      "d": 406.72242187500524,
      "v": 111
    },
    {
      "midi": 58,
      "hit": false,
      "t": 123662.69999999992,
      "d": 664.3530468750105,
      "v": 102
    },
    {
      "midi": 46,
      "hit": false,
      "t": 123662.69999999992,
      "d": 669.1239843750081,
      "v": 103
    },
    {
      "midi": 65,
      "hit": false,
      "t": 124120.70999999993,
      "d": 149.091796875,
      "v": 77
    },
    {
      "midi": 62,
      "hit": false,
      "t": 124120.70999999993,
      "d": 177.71742187500058,
      "v": 94
    },
    {
      "midi": 65,
      "hit": false,
      "t": 124578.71999999993,
      "d": 172.9464843750029,
      "v": 108
    },
    {
      "midi": 62,
      "hit": false,
      "t": 124578.71999999993,
      "d": 177.71742187500058,
      "v": 116
    },
    {
      "midi": 58,
      "hit": false,
      "t": 124578.71999999993,
      "d": 192.0302343749936,
      "v": 104
    },
    {
      "midi": 46,
      "hit": false,
      "t": 124578.71999999993,
      "d": 215.8849218749965,
      "v": 110
    },
    {
      "midi": 62,
      "hit": false,
      "t": 127784.78999999992,
      "d": 239.73960937499942,
      "v": 120
    },
    {
      "midi": 46,
      "hit": false,
      "t": 127784.78999999992,
      "d": 411.4933593750029,
      "v": 104
    },
    {
      "midi": 58,
      "hit": false,
      "t": 127784.78999999992,
      "d": 454.4317968749965,
      "v": 98
    },
    {
      "midi": 65,
      "hit": false,
      "t": 128013.79499999993,
      "d": 196.80117187499127,
      "v": 112
    },
    {
      "midi": 41,
      "hit": false,
      "t": 128242.79999999992,
      "d": 2004.986484375011,
      "v": 107
    },
    {
      "midi": 57,
      "hit": false,
      "t": 128242.79999999992,
      "d": 2868.526171874997,
      "v": 110
    },
    {
      "midi": 60,
      "hit": false,
      "t": 128242.79999999992,
      "d": 3040.2799218750006,
      "v": 112
    },
    {
      "midi": 65,
      "hit": false,
      "t": 128242.79999999992,
      "d": 3340.8489843749703,
      "v": 111
    },
    {
      "midi": 53,
      "hit": false,
      "t": 129158.81999999992,
      "d": 1308.4296093750017,
      "v": 68
    },
    {
      "midi": 41,
      "hit": false,
      "t": 130532.84999999992,
      "d": 1170.0724218749674,
      "v": 104
    },
    {
      "midi": 53,
      "hit": false,
      "t": 130990.85999999991,
      "d": 702.5205468749773,
      "v": 76
    },
    {
      "midi": 57,
      "hit": false,
      "t": 131448.8699999999,
      "d": 106.15335937499185,
      "v": 83
    },
    {
      "midi": 65,
      "hit": false,
      "t": 131677.87499999988,
      "d": 201.5721093750035,
      "v": 115
    },
    {
      "midi": 58,
      "hit": false,
      "t": 131677.87499999988,
      "d": 206.34304687500116,
      "v": 119
    },
    {
      "midi": 60,
      "hit": false,
      "t": 131906.8799999999,
      "d": 1060.3408593749919,
      "v": 85
    },
    {
      "midi": 69,
      "hit": false,
      "t": 131906.8799999999,
      "d": 1069.8827343749872,
      "v": 95
    },
    {
      "midi": 65,
      "hit": false,
      "t": 131906.8799999999,
      "d": 1084.1955468749802,
      "v": 94
    },
    {
      "midi": 41,
      "hit": false,
      "t": 131906.8799999999,
      "d": 3560.3121093750233,
      "v": 98
    },
    {
      "midi": 62,
      "hit": false,
      "t": 133314.30656249987,
      "d": 130.0080468750093,
      "v": 116
    },
    {
      "midi": 70,
      "hit": false,
      "t": 133314.30656249987,
      "d": 153.86273437499767,
      "v": 120
    },
    {
      "midi": 65,
      "hit": false,
      "t": 133314.30656249987,
      "d": 172.94648437498836,
      "v": 124
    },
    {
      "midi": 53,
      "hit": false,
      "t": 133552.85343749987,
      "d": 1995.4446093750303,
      "v": 97
    },
    {
      "midi": 69,
      "hit": false,
      "t": 133738.91999999987,
      "d": 1031.7152343750058,
      "v": 68
    },
    {
      "midi": 60,
      "hit": false,
      "t": 133738.91999999987,
      "d": 1069.8827343750163,
      "v": 69
    },
    {
      "midi": 65,
      "hit": false,
      "t": 133738.91999999987,
      "d": 1069.8827343750163,
      "v": 74
    },
    {
      "midi": 60,
      "hit": false,
      "t": 135127.2628124999,
      "d": 87.06960937500116,
      "v": 102
    },
    {
      "midi": 65,
      "hit": false,
      "t": 135136.80468749988,
      "d": 230.19773437501863,
      "v": 109
    },
    {
      "midi": 62,
      "hit": false,
      "t": 135146.34656249988,
      "d": 158.63367187502445,
      "v": 118
    },
    {
      "midi": 60,
      "hit": false,
      "t": 135351.4968749999,
      "d": 106.15335937502095,
      "v": 69
    },
    {
      "midi": 58,
      "hit": false,
      "t": 135570.9599999999,
      "d": 1661.4789843749895,
      "v": 105
    },
    {
      "midi": 34,
      "hit": false,
      "t": 135570.9599999999,
      "d": 1756.8977343750012,
      "v": 106
    },
    {
      "midi": 62,
      "hit": false,
      "t": 135570.9599999999,
      "d": 2458.225546875008,
      "v": 102
    },
    {
      "midi": 65,
      "hit": false,
      "t": 135570.9599999999,
      "d": 2467.7674218750035,
      "v": 105
    },
    {
      "midi": 46,
      "hit": false,
      "t": 136944.9899999999,
      "d": 1031.7152343750058,
      "v": 80
    },
    {
      "midi": 58,
      "hit": false,
      "t": 137402.9999999999,
      "d": 578.4761718749942,
      "v": 77
    },
    {
      "midi": 34,
      "hit": false,
      "t": 138090.0149999999,
      "d": 2458.225546875008,
      "v": 97
    },
    {
      "midi": 67,
      "hit": false,
      "t": 138319.0199999999,
      "d": 149.091796875,
      "v": 107
    },
    {
      "midi": 58,
      "hit": false,
      "t": 138319.0199999999,
      "d": 172.94648437498836,
      "v": 100
    },
    {
      "midi": 63,
      "hit": false,
      "t": 138319.0199999999,
      "d": 182.4883593749837,
      "v": 110
    },
    {
      "midi": 46,
      "hit": false,
      "t": 138548.02499999988,
      "d": 101.38242187499418,
      "v": 104
    },
    {
      "midi": 62,
      "hit": false,
      "t": 138548.025,
      "d": 454.4317968749965,
      "v": 1
    },
    {
      "midi": 65,
      "hit": false,
      "t": 138548.025,
      "d": 454.4317968749965,
      "v": 1
    },
    {
      "midi": 70,
      "hit": false,
      "t": 138548.025,
      "d": 454.4317968749965,
      "v": 1
    },
    {
      "midi": 67,
      "hit": false,
      "t": 138777.02999999988,
      "d": 239.73960937501397,
      "v": 109
    },
    {
      "midi": 63,
      "hit": false,
      "t": 138777.02999999988,
      "d": 244.51054687501164,
      "v": 111
    },
    {
      "midi": 58,
      "hit": false,
      "t": 138777.02999999988,
      "d": 254.05242187500698,
      "v": 116
    },
    {
      "midi": 46,
      "hit": false,
      "t": 139006.0349999999,
      "d": 215.8849218749965,
      "v": 113
    },
    {
      "midi": 63,
      "hit": false,
      "t": 139006.035,
      "d": 225.42679687499185,
      "v": 1
    },
    {
      "midi": 67,
      "hit": false,
      "t": 139006.035,
      "d": 225.42679687499185,
      "v": 1
    },
    {
      "midi": 72,
      "hit": false,
      "t": 139006.035,
      "d": 225.42679687499185,
      "v": 1
    },
    {
      "midi": 58,
      "hit": false,
      "t": 139235.0399999999,
      "d": 1685.333671875007,
      "v": 110
    },
    {
      "midi": 65,
      "hit": false,
      "t": 139235.0399999999,
      "d": 1728.2721093750151,
      "v": 113
    },
    {
      "midi": 62,
      "hit": false,
      "t": 139235.0399999999,
      "d": 1761.668671875028,
      "v": 105
    },
    {
      "midi": 65,
      "hit": false,
      "t": 139235.04,
      "d": 454.4317968749965,
      "v": 1
    },
    {
      "midi": 70,
      "hit": false,
      "t": 139235.04,
      "d": 454.4317968749965,
      "v": 1
    },
    {
      "midi": 74,
      "hit": false,
      "t": 139235.04,
      "d": 454.4317968749965,
      "v": 1
    },
    {
      "midi": 62,
      "hit": false,
      "t": 139693.05000000002,
      "d": 2400.974296875007,
      "v": 1
    },
    {
      "midi": 65,
      "hit": false,
      "t": 139693.05000000002,
      "d": 2400.974296875007,
      "v": 1
    },
    {
      "midi": 70,
      "hit": false,
      "t": 139693.05000000002,
      "d": 2400.974296875007,
      "v": 1
    },
    {
      "midi": 46,
      "hit": false,
      "t": 140575.6734374999,
      "d": 879.0452343750221,
      "v": 97
    },
    {
      "midi": 62,
      "hit": false,
      "t": 141071.85093749993,
      "d": 516.4539843749953,
      "v": 52
    },
    {
      "midi": 65,
      "hit": false,
      "t": 141086.16374999992,
      "d": 545.0796093750105,
      "v": 71
    },
    {
      "midi": 58,
      "hit": false,
      "t": 141095.70562499992,
      "d": 378.09679687500466,
      "v": 88
    },
    {
      "midi": 34,
      "hit": false,
      "t": 141763.63687499994,
      "d": 1022.1733593749814,
      "v": 101
    },
    {
      "midi": 46,
      "hit": false,
      "t": 141806.57531249995,
      "d": 1055.569921874965,
      "v": 117
    },
    {
      "midi": 62,
      "hit": false,
      "t": 141992.64187499994,
      "d": 206.34304687500116,
      "v": 115
    },
    {
      "midi": 66,
      "hit": false,
      "t": 142006.95468749994,
      "d": 25.04742187500233,
      "v": 93
    },
    {
      "midi": 67,
      "hit": false,
      "t": 142054.66406249994,
      "d": 201.5721093750035,
      "v": 118
    },
    {
      "midi": 66,
      "hit": false,
      "t": 142240.73062499994,
      "d": 44.131171874993015,
      "v": 66
    },
    {
      "midi": 67,
      "hit": false,
      "t": 142474.50656249994,
      "d": 163.40460937499302,
      "v": 116
    },
    {
      "midi": 62,
      "hit": false,
      "t": 142484.04843749994,
      "d": 401.9514843749639,
      "v": 111
    },
    {
      "midi": 65,
      "hit": false,
      "t": 142693.96968749992,
      "d": 177.71742187498603,
      "v": 102
    },
    {
      "midi": 57,
      "hit": false,
      "t": 142899.1199999999,
      "d": 1704.4174218749977,
      "v": 102
    },
    {
      "midi": 60,
      "hit": false,
      "t": 142899.1199999999,
      "d": 2338.952109375008,
      "v": 103
    },
    {
      "midi": 65,
      "hit": false,
      "t": 142899.1199999999,
      "d": 2338.952109375008,
      "v": 111
    },
    {
      "midi": 29,
      "hit": false,
      "t": 142899.1199999999,
      "d": 3550.770234375028,
      "v": 96
    },
    {
      "midi": 41,
      "hit": false,
      "t": 143815.1399999999,
      "d": 1189.1561718750163,
      "v": 93
    },
    {
      "midi": 57,
      "hit": false,
      "t": 144731.15999999992,
      "d": 497.37023437500466,
      "v": 75
    },
    {
      "midi": 41,
      "hit": false,
      "t": 145418.17499999993,
      "d": 215.8849218749965,
      "v": 114
    },
    {
      "midi": 58,
      "hit": false,
      "t": 145647.17999999993,
      "d": 225.42679687499185,
      "v": 114
    },
    {
      "midi": 50,
      "hit": false,
      "t": 145647.17999999993,
      "d": 239.73960937501397,
      "v": 118
    },
    {
      "midi": 53,
      "hit": false,
      "t": 145647.17999999993,
      "d": 244.51054687501164,
      "v": 120
    },
    {
      "midi": 41,
      "hit": false,
      "t": 145876.18499999994,
      "d": 149.091796875,
      "v": 123
    },
    {
      "midi": 50,
      "hit": false,
      "t": 146105.18999999994,
      "d": 196.80117187500582,
      "v": 116
    },
    {
      "midi": 53,
      "hit": false,
      "t": 146105.18999999994,
      "d": 220.65585937499418,
      "v": 122
    },
    {
      "midi": 58,
      "hit": false,
      "t": 146105.18999999994,
      "d": 258.82335937500466,
      "v": 121
    },
    {
      "midi": 41,
      "hit": false,
      "t": 146334.19499999995,
      "d": 215.8849218749965,
      "v": 118
    },
    {
      "midi": 57,
      "hit": false,
      "t": 146563.19999999995,
      "d": 1954.8916406249919,
      "v": 96
    },
    {
      "midi": 60,
      "hit": false,
      "t": 146563.19999999995,
      "d": 1971.5899218749837,
      "v": 101
    },
    {
      "midi": 65,
      "hit": false,
      "t": 146563.19999999995,
      "d": 1978.7463281249802,
      "v": 101
    },
    {
      "midi": 29,
      "hit": false,
      "t": 146563.19999999995,
      "d": 2059.8522656249697,
      "v": 95
    },
    {
      "midi": 41,
      "hit": false,
      "t": 148667.18343749992,
      "d": 101.38242187499418,
      "v": 112
    },
    {
      "midi": 62,
      "hit": false,
      "t": 148862.7918749999,
      "d": 192.03023437500815,
      "v": 107
    },
    {
      "midi": 67,
      "hit": false,
      "t": 148862.7918749999,
      "d": 230.19773437501863,
      "v": 109
    },
    {
      "midi": 65,
      "hit": false,
      "t": 149101.33874999994,
      "d": 77.52773437500582,
      "v": 81
    },
    {
      "midi": 60,
      "hit": false,
      "t": 149316.03093749995,
      "d": 130.0080468750093,
      "v": 111
    },
    {
      "midi": 65,
      "hit": false,
      "t": 149316.03093749995,
      "d": 282.6780468750221,
      "v": 116
    },
    {
      "midi": 61,
      "hit": false,
      "t": 149330.34374999994,
      "d": 15.505546875006985,
      "v": 94
    },
    {
      "midi": 62,
      "hit": false,
      "t": 149344.65656249993,
      "d": 273.1361718750268,
      "v": 105
    },
    {
      "midi": 65,
      "hit": false,
      "t": 149774.04093749996,
      "d": 192.03023437500815,
      "v": 117
    },
    {
      "midi": 61,
      "hit": false,
      "t": 149778.81187499996,
      "d": 110.92429687501863,
      "v": 113
    },
    {
      "midi": 60,
      "hit": false,
      "t": 149826.52124999996,
      "d": 234.9686718750163,
      "v": 77
    },
    {
      "midi": 58,
      "hit": false,
      "t": 150031.67156249998,
      "d": 115.6952343749872,
      "v": 113
    },
    {
      "midi": 67,
      "hit": false,
      "t": 150227.27999999997,
      "d": 387.638671875,
      "v": 115
    },
    {
      "midi": 63,
      "hit": false,
      "t": 150227.27999999997,
      "d": 421.0352343750128,
      "v": 112
    },
    {
      "midi": 58,
      "hit": false,
      "t": 150227.27999999997,
      "d": 602.3308593750116,
      "v": 105
    },
    {
      "midi": 46,
      "hit": false,
      "t": 150227.27999999997,
      "d": 635.7274218749953,
      "v": 118
    },
    {
      "midi": 65,
      "hit": false,
      "t": 150685.28999999998,
      "d": 134.77898437500698,
      "v": 96
    },
    {
      "midi": 62,
      "hit": false,
      "t": 150685.28999999998,
      "d": 158.63367187499534,
      "v": 84
    },
    {
      "midi": 67,
      "hit": false,
      "t": 151143.29999999996,
      "d": 344.70023437499185,
      "v": 103
    },
    {
      "midi": 63,
      "hit": false,
      "t": 151143.29999999996,
      "d": 378.09679687500466,
      "v": 118
    },
    {
      "midi": 58,
      "hit": false,
      "t": 151143.29999999996,
      "d": 588.0180468749895,
      "v": 110
    },
    {
      "midi": 46,
      "hit": false,
      "t": 151143.29999999996,
      "d": 621.4146093749732,
      "v": 108
    },
    {
      "midi": 65,
      "hit": false,
      "t": 151601.30999999997,
      "d": 110.92429687498952,
      "v": 95
    },
    {
      "midi": 62,
      "hit": false,
      "t": 151601.30999999997,
      "d": 134.77898437497788,
      "v": 99
    },
    {
      "midi": 67,
      "hit": false,
      "t": 152059.31999999992,
      "d": 378.09679687500466,
      "v": 106
    },
    {
      "midi": 63,
      "hit": false,
      "t": 152059.31999999992,
      "d": 411.49335937501746,
      "v": 108
    },
    {
      "midi": 58,
      "hit": false,
      "t": 152059.31999999992,
      "d": 602.3308593749825,
      "v": 101
    },
    {
      "midi": 46,
      "hit": false,
      "t": 152059.31999999992,
      "d": 645.2692968749907,
      "v": 99
    },
    {
      "midi": 65,
      "hit": false,
      "t": 152517.32999999993,
      "d": 101.38242187499418,
      "v": 84
    },
    {
      "midi": 62,
      "hit": false,
      "t": 152517.32999999993,
      "d": 120.46617187498487,
      "v": 95
    },
    {
      "midi": 63,
      "hit": false,
      "t": 152975.3399999999,
      "d": 387.638671875,
      "v": 114
    },
    {
      "midi": 67,
      "hit": false,
      "t": 152975.3399999999,
      "d": 387.638671875,
      "v": 111
    },
    {
      "midi": 58,
      "hit": false,
      "t": 152975.3399999999,
      "d": 664.3530468749814,
      "v": 106
    },
    {
      "midi": 46,
      "hit": false,
      "t": 152975.3399999999,
      "d": 669.123984374979,
      "v": 100
    },
    {
      "midi": 65,
      "hit": false,
      "t": 153433.34999999992,
      "d": 149.091796875,
      "v": 77
    },
    {
      "midi": 62,
      "hit": false,
      "t": 153433.34999999992,
      "d": 177.71742187498603,
      "v": 95
    },
    {
      "midi": 58,
      "hit": false,
      "t": 153891.3599999999,
      "d": 463.97367187499185,
      "v": 113
    },
    {
      "midi": 62,
      "hit": false,
      "t": 153891.3599999999,
      "d": 478.28648437498487,
      "v": 112
    },
    {
      "midi": 65,
      "hit": false,
      "t": 153891.3599999999,
      "d": 478.28648437498487,
      "v": 118
    },
    {
      "midi": 46,
      "hit": false,
      "t": 153891.3599999999,
      "d": 483.05742187498254,
      "v": 115
    },
    {
      "midi": 58,
      "hit": false,
      "t": 157555.4399999999,
      "d": 826.5649218749895,
      "v": 103
    },
    {
      "midi": 63,
      "hit": false,
      "t": 157555.4399999999,
      "d": 1131.904921874986,
      "v": 107
    },
    {
      "midi": 67,
      "hit": false,
      "t": 157555.4399999999,
      "d": 1203.4689843749802,
      "v": 105
    },
    {
      "midi": 39,
      "hit": false,
      "t": 157555.4399999999,
      "d": 1637.6242968750012,
      "v": 100
    },
    {
      "midi": 63,
      "hit": false,
      "t": 157555.44000000003,
      "d": 7324.581796874991,
      "v": 1
    },
    {
      "midi": 67,
      "hit": false,
      "t": 157555.44000000003,
      "d": 7324.581796874991,
      "v": 1
    },
    {
      "midi": 58,
      "hit": false,
      "t": 158700.46499999988,
      "d": 106.15335937499185,
      "v": 79
    },
    {
      "midi": 58,
      "hit": false,
      "t": 158929.46999999988,
      "d": 840.8777343750116,
      "v": 107
    },
    {
      "midi": 63,
      "hit": false,
      "t": 158929.46999999988,
      "d": 1198.6980468750116,
      "v": 103
    },
    {
      "midi": 67,
      "hit": false,
      "t": 158929.46999999988,
      "d": 1265.4911718750081,
      "v": 109
    },
    {
      "midi": 39,
      "hit": false,
      "t": 159387.4799999999,
      "d": 1179.6142968749919,
      "v": 105
    },
    {
      "midi": 58,
      "hit": false,
      "t": 160074.4949999999,
      "d": 807.4811718749988,
      "v": 84
    },
    {
      "midi": 63,
      "hit": false,
      "t": 160303.49999999988,
      "d": 836.106796875014,
      "v": 75
    },
    {
      "midi": 67,
      "hit": false,
      "t": 160532.5049999999,
      "d": 597.559921875014,
      "v": 97
    },
    {
      "midi": 39,
      "hit": false,
      "t": 160761.5099999999,
      "d": 363.78398437501164,
      "v": 96
    },
    {
      "midi": 58,
      "hit": false,
      "t": 160990.5149999999,
      "d": 139.54992187500466,
      "v": 58
    },
    {
      "midi": 58,
      "hit": false,
      "t": 161219.5199999999,
      "d": 1179.6142968749919,
      "v": 87
    },
    {
      "midi": 39,
      "hit": false,
      "t": 161219.5199999999,
      "d": 1666.2499218750163,
      "v": 104
    },
    {
      "midi": 67,
      "hit": false,
      "t": 161219.5199999999,
      "d": 1671.020859375014,
      "v": 101
    },
    {
      "midi": 63,
      "hit": false,
      "t": 161219.5199999999,
      "d": 1704.4174218750268,
      "v": 93
    },
    {
      "midi": 58,
      "hit": false,
      "t": 162822.5549999999,
      "d": 149.0917968750291,
      "v": 86
    },
    {
      "midi": 67,
      "hit": false,
      "t": 163051.55999999994,
      "d": 774.084609374986,
      "v": 99
    },
    {
      "midi": 58,
      "hit": false,
      "t": 163051.55999999994,
      "d": 788.397421874979,
      "v": 91
    },
    {
      "midi": 63,
      "hit": false,
      "t": 163051.55999999994,
      "d": 864.7324218749709,
      "v": 92
    },
    {
      "midi": 39,
      "hit": false,
      "t": 163051.55999999994,
      "d": 1232.0946093749662,
      "v": 97
    },
    {
      "midi": 58,
      "hit": false,
      "t": 163967.5799999999,
      "d": 521.2249218750221,
      "v": 98
    },
    {
      "midi": 67,
      "hit": false,
      "t": 163967.5799999999,
      "d": 826.5649218749895,
      "v": 97
    },
    {
      "midi": 63,
      "hit": false,
      "t": 164196.5849999999,
      "d": 607.1017968749802,
      "v": 77
    },
    {
      "midi": 39,
      "hit": false,
      "t": 164425.5899999999,
      "d": 339.9292968749942,
      "v": 102
    },
    {
      "midi": 58,
      "hit": false,
      "t": 164654.5949999999,
      "d": 149.0917968749709,
      "v": 86
    },
    {
      "midi": 46,
      "hit": false,
      "t": 164883.5999999999,
      "d": 1399.0774218750012,
      "v": 117
    },
    {
      "midi": 58,
      "hit": false,
      "t": 164883.5999999999,
      "d": 1685.333671875007,
      "v": 106
    },
    {
      "midi": 65,
      "hit": false,
      "t": 164883.5999999999,
      "d": 1690.1046093750047,
      "v": 105
    },
    {
      "midi": 62,
      "hit": false,
      "t": 164883.5999999999,
      "d": 1704.4174218749977,
      "v": 97
    },
    {
      "midi": 62,
      "hit": false,
      "t": 164883.60000000003,
      "d": 7324.581796874991,
      "v": 1
    },
    {
      "midi": 65,
      "hit": false,
      "t": 164883.60000000003,
      "d": 7324.581796874991,
      "v": 1
    },
    {
      "midi": 70,
      "hit": false,
      "t": 164883.60000000003,
      "d": 7324.581796874991,
      "v": 1
    },
    {
      "midi": 34,
      "hit": false,
      "t": 166257.6299999999,
      "d": 449.66085937499884,
      "v": 93
    },
    {
      "midi": 46,
      "hit": false,
      "t": 166715.6399999999,
      "d": 449.66085937499884,
      "v": 94
    },
    {
      "midi": 58,
      "hit": false,
      "t": 166715.6399999999,
      "d": 583.2471093749919,
      "v": 76
    },
    {
      "midi": 62,
      "hit": false,
      "t": 166715.6399999999,
      "d": 607.1017968749802,
      "v": 76
    },
    {
      "midi": 65,
      "hit": false,
      "t": 166715.6399999999,
      "d": 621.4146093749732,
      "v": 66
    },
    {
      "midi": 46,
      "hit": false,
      "t": 167402.65499999988,
      "d": 187.25929687501048,
      "v": 105
    },
    {
      "midi": 67,
      "hit": false,
      "t": 167631.6599999999,
      "d": 168.1755468749907,
      "v": 107
    },
    {
      "midi": 58,
      "hit": false,
      "t": 167631.6599999999,
      "d": 187.25929687498137,
      "v": 103
    },
    {
      "midi": 63,
      "hit": false,
      "t": 167631.6599999999,
      "d": 206.34304687497206,
      "v": 111
    },
    {
      "midi": 46,
      "hit": false,
      "t": 167860.66499999986,
      "d": 72.75679687500815,
      "v": 117
    },
    {
      "midi": 67,
      "hit": false,
      "t": 168089.66999999987,
      "d": 220.65585937499418,
      "v": 118
    },
    {
      "midi": 58,
      "hit": false,
      "t": 168089.66999999987,
      "d": 258.82335937500466,
      "v": 107
    },
    {
      "midi": 63,
      "hit": false,
      "t": 168089.66999999987,
      "d": 258.82335937500466,
      "v": 114
    },
    {
      "midi": 46,
      "hit": false,
      "t": 168318.67499999987,
      "d": 1804.607109375007,
      "v": 116
    },
    {
      "midi": 58,
      "hit": false,
      "t": 168547.67999999988,
      "d": 2076.55054687502,
      "v": 99
    },
    {
      "midi": 62,
      "hit": false,
      "t": 168547.67999999988,
      "d": 2482.0802343750256,
      "v": 100
    },
    {
      "midi": 65,
      "hit": false,
      "t": 168547.67999999988,
      "d": 2505.934921875014,
      "v": 106
    },
    {
      "midi": 34,
      "hit": false,
      "t": 170150.71499999988,
      "d": 139.54992187500466,
      "v": 98
    },
    {
      "midi": 46,
      "hit": false,
      "t": 170379.71999999988,
      "d": 425.8061718750105,
      "v": 111
    },
    {
      "midi": 58,
      "hit": false,
      "t": 170837.7299999999,
      "d": 144.32085937500233,
      "v": 85
    },
    {
      "midi": 46,
      "hit": false,
      "t": 171066.7349999999,
      "d": 1122.363046875049,
      "v": 111
    },
    {
      "midi": 62,
      "hit": false,
      "t": 171295.7399999999,
      "d": 201.5721093750035,
      "v": 105
    },
    {
      "midi": 67,
      "hit": false,
      "t": 171295.7399999999,
      "d": 330.38742187499884,
      "v": 118
    },
    {
      "midi": 65,
      "hit": false,
      "t": 171524.7449999999,
      "d": 234.9686718750163,
      "v": 95
    },
    {
      "midi": 62,
      "hit": false,
      "t": 171753.7499999999,
      "d": 215.8849218750256,
      "v": 107
    },
    {
      "midi": 60,
      "hit": false,
      "t": 171982.75499999995,
      "d": 215.8849218749965,
      "v": 103
    },
    {
      "midi": 41,
      "hit": false,
      "t": 172211.75999999995,
      "d": 2257.8461718749895,
      "v": 117
    },
    {
      "midi": 57,
      "hit": false,
      "t": 172211.75999999995,
      "d": 2410.516171874973,
      "v": 107
    },
    {
      "midi": 65,
      "hit": false,
      "t": 172211.75999999995,
      "d": 2420.0580468749686,
      "v": 108
    },
    {
      "midi": 60,
      "hit": false,
      "t": 172211.76000000004,
      "d": 7324.581796874991,
      "v": 1
    },
    {
      "midi": 63,
      "hit": false,
      "t": 172211.76000000004,
      "d": 7324.581796874991,
      "v": 1
    },
    {
      "midi": 69,
      "hit": false,
      "t": 172211.76000000004,
      "d": 7324.581796874991,
      "v": 1
    },
    {
      "midi": 60,
      "hit": false,
      "t": 173127.77999999994,
      "d": 1489.725234374986,
      "v": 82
    },
    {
      "midi": 41,
      "hit": false,
      "t": 174730.81499999992,
      "d": 34.58929687499767,
      "v": 103
    },
    {
      "midi": 58,
      "hit": false,
      "t": 174959.81999999992,
      "d": 215.8849218749965,
      "v": 116
    },
    {
      "midi": 65,
      "hit": false,
      "t": 174959.81999999992,
      "d": 220.65585937499418,
      "v": 111
    },
    {
      "midi": 62,
      "hit": false,
      "t": 174959.81999999992,
      "d": 234.9686718750163,
      "v": 114
    },
    {
      "midi": 41,
      "hit": false,
      "t": 175188.82499999992,
      "d": 58.443984375015134,
      "v": 119
    },
    {
      "midi": 62,
      "hit": false,
      "t": 175417.82999999993,
      "d": 273.1361718749977,
      "v": 107
    },
    {
      "midi": 58,
      "hit": false,
      "t": 175417.82999999993,
      "d": 277.90710937499534,
      "v": 115
    },
    {
      "midi": 65,
      "hit": false,
      "t": 175417.82999999993,
      "d": 277.90710937499534,
      "v": 109
    },
    {
      "midi": 41,
      "hit": false,
      "t": 175646.83499999993,
      "d": 63.2149218749837,
      "v": 114
    },
    {
      "midi": 57,
      "hit": false,
      "t": 175875.8399999999,
      "d": 1737.8139843750105,
      "v": 101
    },
    {
      "midi": 65,
      "hit": false,
      "t": 175875.8399999999,
      "d": 1780.7524218750186,
      "v": 109
    },
    {
      "midi": 41,
      "hit": false,
      "t": 175875.8399999999,
      "d": 2028.841171875014,
      "v": 103
    },
    {
      "midi": 57,
      "hit": false,
      "t": 177707.87999999992,
      "d": 692.9786718750256,
      "v": 67
    },
    {
      "midi": 60,
      "hit": false,
      "t": 177707.87999999992,
      "d": 726.3752343750384,
      "v": 66
    },
    {
      "midi": 65,
      "hit": false,
      "t": 177707.87999999992,
      "d": 840.8777343750407,
      "v": 60
    },
    {
      "midi": 41,
      "hit": false,
      "t": 178394.89499999993,
      "d": 172.94648437501746,
      "v": 106
    },
    {
      "midi": 65,
      "hit": false,
      "t": 178623.89999999994,
      "d": 125.23710937501164,
      "v": 112
    },
    {
      "midi": 67,
      "hit": false,
      "t": 178738.40249999994,
      "d": 359.01304687501397,
      "v": 102
    },
    {
      "midi": 70,
      "hit": false,
      "t": 179081.90999999995,
      "d": 306.5327343750105,
      "v": 115
    },
    {
      "midi": 67,
      "hit": false,
      "t": 179539.91999999995,
      "d": 406.7224218749907,
      "v": 114
    },
    {
      "midi": 63,
      "hit": false,
      "t": 179539.91999999995,
      "d": 421.0352343749837,
      "v": 112
    },
    {
      "midi": 58,
      "hit": false,
      "t": 179539.91999999995,
      "d": 602.3308593749825,
      "v": 109
    },
    {
      "midi": 46,
      "hit": false,
      "t": 179539.91999999995,
      "d": 635.7274218749662,
      "v": 117
    },
    {
      "midi": 65,
      "hit": false,
      "t": 179539.92000000004,
      "d": 1828.4617968749953,
      "v": 1
    },
    {
      "midi": 70,
      "hit": false,
      "t": 179539.92000000004,
      "d": 1828.4617968749953,
      "v": 1
    },
    {
      "midi": 62,
      "hit": false,
      "t": 179539.92000000004,
      "d": 1942.9642968749977,
      "v": 1
    },
    {
      "midi": 65,
      "hit": false,
      "t": 179997.92999999993,
      "d": 134.77898437500698,
      "v": 97
    },
    {
      "midi": 62,
      "hit": false,
      "t": 179997.92999999993,
      "d": 158.63367187499534,
      "v": 89
    },
    {
      "midi": 67,
      "hit": false,
      "t": 180455.93999999992,
      "d": 363.78398437501164,
      "v": 108
    },
    {
      "midi": 63,
      "hit": false,
      "t": 180455.93999999992,
      "d": 378.09679687500466,
      "v": 115
    },
    {
      "midi": 58,
      "hit": false,
      "t": 180455.93999999992,
      "d": 588.0180468749895,
      "v": 105
    },
    {
      "midi": 46,
      "hit": false,
      "t": 180455.93999999992,
      "d": 621.4146093749732,
      "v": 109
    },
    {
      "midi": 65,
      "hit": false,
      "t": 180913.94999999992,
      "d": 110.92429687498952,
      "v": 100
    },
    {
      "midi": 62,
      "hit": false,
      "t": 180913.94999999992,
      "d": 134.77898437497788,
      "v": 96
    },
    {
      "midi": 67,
      "hit": false,
      "t": 181371.95999999988,
      "d": 397.18054687499534,
      "v": 106
    },
    {
      "midi": 63,
      "hit": false,
      "t": 181371.95999999988,
      "d": 411.49335937498836,
      "v": 102
    },
    {
      "midi": 58,
      "hit": false,
      "t": 181371.95999999988,
      "d": 602.3308593749534,
      "v": 96
    },
    {
      "midi": 46,
      "hit": false,
      "t": 181371.95999999988,
      "d": 645.2692968749616,
      "v": 96
    },
    {
      "midi": 65,
      "hit": false,
      "t": 181829.96999999986,
      "d": 101.38242187499418,
      "v": 88
    },
    {
      "midi": 62,
      "hit": false,
      "t": 181829.96999999986,
      "d": 120.46617187498487,
      "v": 96
    },
    {
      "midi": 67,
      "hit": false,
      "t": 182287.97999999984,
      "d": 387.638671875,
      "v": 118
    },
    {
      "midi": 63,
      "hit": false,
      "t": 182287.97999999984,
      "d": 406.7224218749907,
      "v": 112
    },
    {
      "midi": 58,
      "hit": false,
      "t": 182287.97999999984,
      "d": 664.3530468749523,
      "v": 108
    },
    {
      "midi": 46,
      "hit": false,
      "t": 182287.97999999984,
      "d": 669.1239843749499,
      "v": 103
    },
    {
      "midi": 62,
      "hit": false,
      "t": 182745.98999999982,
      "d": 177.71742187498603,
      "v": 93
    },
    {
      "midi": 65,
      "hit": false,
      "t": 182745.98999999982,
      "d": 187.25929687498137,
      "v": 75
    },
    {
      "midi": 65,
      "hit": false,
      "t": 183203.9999999998,
      "d": 172.94648437498836,
      "v": 109
    },
    {
      "midi": 62,
      "hit": false,
      "t": 183203.9999999998,
      "d": 177.71742187498603,
      "v": 117
    },
    {
      "midi": 58,
      "hit": false,
      "t": 183203.9999999998,
      "d": 192.03023437497905,
      "v": 103
    },
    {
      "midi": 46,
      "hit": false,
      "t": 183203.9999999998,
      "d": 215.8849218749674,
      "v": 112
    }
  ]
}