{
  "jsonPath": "Soul/Funk/The Manhattans/lets-try-love.json",
  "path": "Soul\\Funk\\The Manhattans\\Lets Try Love.mid",
  "name": "Lets Try Love",
  "difficulty": "Advanced",
  "bpm": 61.99999586666694,
  "notes": [
    {
      "midi": 62,
      "hit": false,
      "t": 3387.097,
      "d": 846.7742499999999,
      "v": 89
    },
    {
      "midi": 57,
      "hit": false,
      "t": 3870.9680000000003,
      "d": 354.8387333333335,
      "v": 89
    },
    {
      "midi": 69,
      "hit": false,
      "t": 3870.9680000000003,
      "d": 370.9677666666662,
      "v": 94
    },
    {
      "midi": 66,
      "hit": false,
      "t": 3870.9680000000003,
      "d": 427.41938333333246,
      "v": 51
    },
    {
      "midi": 43,
      "hit": false,
      "t": 3870.9680000000003,
      "d": 1266.1291166666656,
      "v": 46
    },
    {
      "midi": 55,
      "hit": false,
      "t": 3870.9680000000003,
      "d": 1290.3226666666656,
      "v": 85
    },
    {
      "midi": 57,
      "hit": false,
      "t": 4354.838999999999,
      "d": 177.41936666666697,
      "v": 94
    },
    {
      "midi": 57,
      "hit": false,
      "t": 4838.709999999999,
      "d": 48.38709999999992,
      "v": 105
    },
    {
      "midi": 62,
      "hit": false,
      "t": 4838.709999999999,
      "d": 209.67743333333328,
      "v": 112
    },
    {
      "midi": 69,
      "hit": false,
      "t": 4838.709999999999,
      "d": 225.8064666666669,
      "v": 99
    },
    {
      "midi": 66,
      "hit": false,
      "t": 4838.709999999999,
      "d": 274.1935666666668,
      "v": 55
    },
    {
      "midi": 43,
      "hit": false,
      "t": 5322.580999999999,
      "d": 306.4516333333331,
      "v": 89
    },
    {
      "midi": 67,
      "hit": false,
      "t": 5564.516499999999,
      "d": 572.5806833333336,
      "v": 89
    },
    {
      "midi": 59,
      "hit": false,
      "t": 5806.451999999999,
      "d": 217.74194999999963,
      "v": 99
    },
    {
      "midi": 62,
      "hit": false,
      "t": 5806.451999999999,
      "d": 338.70969999999943,
      "v": 105
    },
    {
      "midi": 55,
      "hit": false,
      "t": 5806.451999999999,
      "d": 935.4839333333321,
      "v": 94
    },
    {
      "midi": 43,
      "hit": false,
      "t": 5806.451999999999,
      "d": 983.871033333332,
      "v": 99
    },
    {
      "midi": 59,
      "hit": false,
      "t": 6290.3229999999985,
      "d": 354.83873333333304,
      "v": 89
    },
    {
      "midi": 62,
      "hit": false,
      "t": 6532.258499999998,
      "d": 153.22581666666701,
      "v": 94
    },
    {
      "midi": 62,
      "hit": false,
      "t": 6774.193999999998,
      "d": 88.70968333333349,
      "v": 112
    },
    {
      "midi": 67,
      "hit": false,
      "t": 6774.193999999998,
      "d": 153.22581666666701,
      "v": 112
    },
    {
      "midi": 59,
      "hit": false,
      "t": 6774.193999999998,
      "d": 298.38711666666677,
      "v": 112
    },
    {
      "midi": 66,
      "hit": false,
      "t": 7016.129499999998,
      "d": 137.0967833333325,
      "v": 105
    },
    {
      "midi": 54,
      "hit": false,
      "t": 7258.064999999998,
      "d": 64.51613333333353,
      "v": 89
    },
    {
      "midi": 42,
      "hit": false,
      "t": 7258.064999999998,
      "d": 88.70968333333349,
      "v": 67
    },
    {
      "midi": 57,
      "hit": false,
      "t": 7500.000499999998,
      "d": 193.54839999999967,
      "v": 99
    },
    {
      "midi": 57,
      "hit": false,
      "t": 7741.935999999998,
      "d": 290.3226000000004,
      "v": 99
    },
    {
      "midi": 62,
      "hit": false,
      "t": 7741.935999999998,
      "d": 290.3226000000004,
      "v": 105
    },
    {
      "midi": 69,
      "hit": false,
      "t": 7741.935999999998,
      "d": 330.645183333334,
      "v": 112
    },
    {
      "midi": 66,
      "hit": false,
      "t": 7741.935999999998,
      "d": 451.6129333333338,
      "v": 85
    },
    {
      "midi": 40,
      "hit": false,
      "t": 7741.935999999998,
      "d": 1298.3871833333324,
      "v": 89
    },
    {
      "midi": 52,
      "hit": false,
      "t": 7741.935999999998,
      "d": 1338.709766666665,
      "v": 99
    },
    {
      "midi": 57,
      "hit": false,
      "t": 8225.806999999999,
      "d": 290.3225999999995,
      "v": 99
    },
    {
      "midi": 62,
      "hit": false,
      "t": 8709.677999999998,
      "d": 88.70968333333258,
      "v": 105
    },
    {
      "midi": 57,
      "hit": false,
      "t": 8709.677999999998,
      "d": 104.83871666666528,
      "v": 105
    },
    {
      "midi": 66,
      "hit": false,
      "t": 8709.677999999998,
      "d": 129.03226666666524,
      "v": 89
    },
    {
      "midi": 69,
      "hit": false,
      "t": 8709.677999999998,
      "d": 145.16129999999794,
      "v": 105
    },
    {
      "midi": 71,
      "hit": false,
      "t": 9193.548999999995,
      "d": 72.58064999999988,
      "v": 94
    },
    {
      "midi": 40,
      "hit": false,
      "t": 9435.484499999995,
      "d": 895.1613500000003,
      "v": 57
    },
    {
      "midi": 59,
      "hit": false,
      "t": 9677.419999999995,
      "d": 241.9354999999996,
      "v": 99
    },
    {
      "midi": 62,
      "hit": false,
      "t": 9677.419999999995,
      "d": 370.96776666666665,
      "v": 112
    },
    {
      "midi": 67,
      "hit": false,
      "t": 9677.419999999995,
      "d": 491.93551666666644,
      "v": 99
    },
    {
      "midi": 52,
      "hit": false,
      "t": 9677.419999999995,
      "d": 588.7097166666663,
      "v": 94
    },
    {
      "midi": 59,
      "hit": false,
      "t": 10161.290999999994,
      "d": 161.29033333333427,
      "v": 94
    },
    {
      "midi": 62,
      "hit": false,
      "t": 10645.161999999995,
      "d": 185.48388333333241,
      "v": 112
    },
    {
      "midi": 66,
      "hit": false,
      "t": 10645.161999999995,
      "d": 241.9354999999996,
      "v": 89
    },
    {
      "midi": 59,
      "hit": false,
      "t": 10645.161999999995,
      "d": 338.70969999999943,
      "v": 105
    },
    {
      "midi": 47,
      "hit": false,
      "t": 10645.161999999995,
      "d": 870.9677999999985,
      "v": 105
    },
    {
      "midi": 67,
      "hit": false,
      "t": 10887.097499999994,
      "d": 282.25808333333225,
      "v": 105
    },
    {
      "midi": 66,
      "hit": false,
      "t": 11129.032999999994,
      "d": 120.9677499999998,
      "v": 105
    },
    {
      "midi": 55,
      "hit": false,
      "t": 11370.968499999994,
      "d": 548.3871333333336,
      "v": 89
    },
    {
      "midi": 60,
      "hit": false,
      "t": 11612.903999999993,
      "d": 306.45163333333403,
      "v": 112
    },
    {
      "midi": 67,
      "hit": false,
      "t": 11612.903999999993,
      "d": 338.70970000000125,
      "v": 99
    },
    {
      "midi": 64,
      "hit": false,
      "t": 11612.903999999993,
      "d": 419.3548666666684,
      "v": 105
    },
    {
      "midi": 45,
      "hit": false,
      "t": 11612.903999999993,
      "d": 1096.774266666669,
      "v": 94
    },
    {
      "midi": 55,
      "hit": false,
      "t": 12096.774999999994,
      "d": 282.25808333333407,
      "v": 85
    },
    {
      "midi": 55,
      "hit": false,
      "t": 12580.645999999995,
      "d": 225.8064666666669,
      "v": 105
    },
    {
      "midi": 64,
      "hit": false,
      "t": 12580.645999999995,
      "d": 306.45163333333403,
      "v": 112
    },
    {
      "midi": 60,
      "hit": false,
      "t": 12580.645999999995,
      "d": 314.5161500000013,
      "v": 119
    },
    {
      "midi": 45,
      "hit": false,
      "t": 13064.516999999996,
      "d": 96.77419999999984,
      "v": 94
    },
    {
      "midi": 55,
      "hit": false,
      "t": 13306.452499999996,
      "d": 177.41936666666697,
      "v": 99
    },
    {
      "midi": 55,
      "hit": false,
      "t": 13548.387999999995,
      "d": 185.48388333333241,
      "v": 94
    },
    {
      "midi": 60,
      "hit": false,
      "t": 13548.387999999995,
      "d": 233.87098333333233,
      "v": 119
    },
    {
      "midi": 64,
      "hit": false,
      "t": 13548.387999999995,
      "d": 322.5806666666649,
      "v": 112
    },
    {
      "midi": 67,
      "hit": false,
      "t": 13548.387999999995,
      "d": 467.74196666666467,
      "v": 112
    },
    {
      "midi": 38,
      "hit": false,
      "t": 13548.387999999995,
      "d": 1177.4194333333326,
      "v": 94
    },
    {
      "midi": 50,
      "hit": false,
      "t": 13548.387999999995,
      "d": 1193.5484666666653,
      "v": 89
    },
    {
      "midi": 57,
      "hit": false,
      "t": 14032.258999999993,
      "d": 201.61291666666693,
      "v": 99
    },
    {
      "midi": 62,
      "hit": false,
      "t": 14516.129999999994,
      "d": 153.22581666666701,
      "v": 112
    },
    {
      "midi": 66,
      "hit": false,
      "t": 14516.129999999994,
      "d": 201.61291666666693,
      "v": 77
    },
    {
      "midi": 57,
      "hit": false,
      "t": 14516.129999999994,
      "d": 524.1935833333337,
      "v": 119
    },
    {
      "midi": 67,
      "hit": false,
      "t": 14758.065499999993,
      "d": 274.1935666666668,
      "v": 105
    },
    {
      "midi": 66,
      "hit": false,
      "t": 15000.000999999993,
      "d": 145.16130000000157,
      "v": 105
    },
    {
      "midi": 57,
      "hit": false,
      "t": 15241.936499999994,
      "d": 137.0967833333325,
      "v": 99
    },
    {
      "midi": 57,
      "hit": false,
      "t": 15483.871999999994,
      "d": 274.193566666665,
      "v": 105
    },
    {
      "midi": 59,
      "hit": false,
      "t": 15483.871999999994,
      "d": 395.1613166666648,
      "v": 127
    },
    {
      "midi": 62,
      "hit": false,
      "t": 15483.871999999994,
      "d": 435.48389999999745,
      "v": 99
    },
    {
      "midi": 55,
      "hit": false,
      "t": 15483.871999999994,
      "d": 1459.6775166666612,
      "v": 99
    },
    {
      "midi": 43,
      "hit": false,
      "t": 15483.871999999994,
      "d": 1516.1291333333265,
      "v": 94
    },
    {
      "midi": 57,
      "hit": false,
      "t": 15967.742999999991,
      "d": 362.9032499999994,
      "v": 89
    },
    {
      "midi": 59,
      "hit": false,
      "t": 16209.67849999999,
      "d": 201.61291666666511,
      "v": 94
    },
    {
      "midi": 62,
      "hit": false,
      "t": 16451.61399999999,
      "d": 524.19358333333,
      "v": 112
    },
    {
      "midi": 57,
      "hit": false,
      "t": 16693.54949999999,
      "d": 225.80646666666507,
      "v": 94
    },
    {
      "midi": 59,
      "hit": false,
      "t": 16935.48499999999,
      "d": 185.4838833333306,
      "v": 105
    },
    {
      "midi": 55,
      "hit": false,
      "t": 17177.420499999986,
      "d": 185.48388333333423,
      "v": 99
    },
    {
      "midi": 55,
      "hit": false,
      "t": 17419.355999999985,
      "d": 201.61291666666875,
      "v": 55
    },
    {
      "midi": 60,
      "hit": false,
      "t": 17419.355999999985,
      "d": 354.83873333333395,
      "v": 112
    },
    {
      "midi": 64,
      "hit": false,
      "t": 17419.355999999985,
      "d": 427.4193833333338,
      "v": 112
    },
    {
      "midi": 38,
      "hit": false,
      "t": 17419.355999999985,
      "d": 1282.2581499999978,
      "v": 22
    },
    {
      "midi": 50,
      "hit": false,
      "t": 17419.355999999985,
      "d": 1306.4516999999978,
      "v": 85
    },
    {
      "midi": 57,
      "hit": false,
      "t": 17903.226999999984,
      "d": 370.96776666666483,
      "v": 105
    },
    {
      "midi": 62,
      "hit": false,
      "t": 18145.162499999984,
      "d": 193.54839999999967,
      "v": 94
    },
    {
      "midi": 57,
      "hit": false,
      "t": 18387.097999999984,
      "d": 233.87098333333415,
      "v": 112
    },
    {
      "midi": 66,
      "hit": false,
      "t": 18387.097999999984,
      "d": 427.4193833333338,
      "v": 77
    },
    {
      "midi": 62,
      "hit": false,
      "t": 18387.097999999984,
      "d": 443.54841666666834,
      "v": 105
    },
    {
      "midi": 57,
      "hit": false,
      "t": 18870.968999999986,
      "d": 379.0322833333339,
      "v": 112
    },
    {
      "midi": 57,
      "hit": false,
      "t": 19354.839999999986,
      "d": 290.3225999999995,
      "v": 74
    },
    {
      "midi": 62,
      "hit": false,
      "t": 19354.839999999986,
      "d": 298.38711666666495,
      "v": 105
    },
    {
      "midi": 69,
      "hit": false,
      "t": 19354.839999999986,
      "d": 330.64518333333035,
      "v": 105
    },
    {
      "midi": 66,
      "hit": false,
      "t": 19354.839999999986,
      "d": 403.22583333333023,
      "v": 74
    },
    {
      "midi": 55,
      "hit": false,
      "t": 19354.839999999986,
      "d": 1435.4839666666594,
      "v": 94
    },
    {
      "midi": 43,
      "hit": false,
      "t": 19354.839999999986,
      "d": 1451.612999999994,
      "v": 85
    },
    {
      "midi": 57,
      "hit": false,
      "t": 19838.71099999998,
      "d": 217.74194999999963,
      "v": 89
    },
    {
      "midi": 57,
      "hit": false,
      "t": 20322.58199999998,
      "d": 80.64516666666532,
      "v": 99
    },
    {
      "midi": 69,
      "hit": false,
      "t": 20322.58199999998,
      "d": 185.4838833333306,
      "v": 89
    },
    {
      "midi": 62,
      "hit": false,
      "t": 20322.58199999998,
      "d": 250.00001666666503,
      "v": 105
    },
    {
      "midi": 66,
      "hit": false,
      "t": 20322.58199999998,
      "d": 282.25808333333043,
      "v": 35
    },
    {
      "midi": 67,
      "hit": false,
      "t": 20806.45299999998,
      "d": 145.16129999999976,
      "v": 94
    },
    {
      "midi": 43,
      "hit": false,
      "t": 21048.38849999998,
      "d": 1427.4194499999976,
      "v": 85
    },
    {
      "midi": 59,
      "hit": false,
      "t": 21290.32399999998,
      "d": 233.87098333333415,
      "v": 99
    },
    {
      "midi": 67,
      "hit": false,
      "t": 21290.32399999998,
      "d": 330.645183333334,
      "v": 81
    },
    {
      "midi": 62,
      "hit": false,
      "t": 21290.32399999998,
      "d": 451.6129333333338,
      "v": 105
    },
    {
      "midi": 55,
      "hit": false,
      "t": 21290.32399999998,
      "d": 1145.1613666666635,
      "v": 89
    },
    {
      "midi": 59,
      "hit": false,
      "t": 21774.194999999978,
      "d": 346.77421666666487,
      "v": 89
    },
    {
      "midi": 62,
      "hit": false,
      "t": 22016.130499999977,
      "d": 145.16129999999976,
      "v": 112
    },
    {
      "midi": 59,
      "hit": false,
      "t": 22258.065999999977,
      "d": 80.64516666666532,
      "v": 44
    },
    {
      "midi": 62,
      "hit": false,
      "t": 22258.065999999977,
      "d": 112.90323333333072,
      "v": 94
    },
    {
      "midi": 67,
      "hit": false,
      "t": 22258.065999999977,
      "d": 129.03226666666524,
      "v": 94
    },
    {
      "midi": 57,
      "hit": false,
      "t": 22500.001499999977,
      "d": 177.41936666666516,
      "v": 105
    },
    {
      "midi": 62,
      "hit": false,
      "t": 22500.001499999977,
      "d": 177.41936666666516,
      "v": 112
    },
    {
      "midi": 66,
      "hit": false,
      "t": 22500.001499999977,
      "d": 201.61291666666511,
      "v": 99
    },
    {
      "midi": 54,
      "hit": false,
      "t": 22741.936999999976,
      "d": 80.64516666666532,
      "v": 99
    },
    {
      "midi": 42,
      "hit": false,
      "t": 22741.936999999976,
      "d": 88.70968333333076,
      "v": 85
    },
    {
      "midi": 57,
      "hit": false,
      "t": 22983.872499999972,
      "d": 185.48388333333423,
      "v": 99
    },
    {
      "midi": 57,
      "hit": false,
      "t": 23225.80799999997,
      "d": 306.45163333333403,
      "v": 112
    },
    {
      "midi": 62,
      "hit": false,
      "t": 23225.80799999997,
      "d": 330.645183333334,
      "v": 112
    },
    {
      "midi": 69,
      "hit": false,
      "t": 23225.80799999997,
      "d": 354.83873333333395,
      "v": 112
    },
    {
      "midi": 66,
      "hit": false,
      "t": 23225.80799999997,
      "d": 419.3548666666684,
      "v": 94
    },
    {
      "midi": 52,
      "hit": false,
      "t": 23225.80799999997,
      "d": 1411.2904166666667,
      "v": 94
    },
    {
      "midi": 40,
      "hit": false,
      "t": 23225.80799999997,
      "d": 1419.3549333333322,
      "v": 77
    },
    {
      "midi": 57,
      "hit": false,
      "t": 23709.678999999975,
      "d": 258.0645333333341,
      "v": 89
    },
    {
      "midi": 62,
      "hit": false,
      "t": 24193.549999999974,
      "d": 145.16129999999976,
      "v": 105
    },
    {
      "midi": 57,
      "hit": false,
      "t": 24193.549999999974,
      "d": 153.2258166666652,
      "v": 112
    },
    {
      "midi": 66,
      "hit": false,
      "t": 24193.549999999974,
      "d": 177.41936666666516,
      "v": 81
    },
    {
      "midi": 69,
      "hit": false,
      "t": 24193.549999999974,
      "d": 177.41936666666516,
      "v": 105
    },
    {
      "midi": 71,
      "hit": false,
      "t": 24677.42099999997,
      "d": 72.58064999999988,
      "v": 94
    },
    {
      "midi": 40,
      "hit": false,
      "t": 24919.35649999997,
      "d": 1048.3871666666637,
      "v": 94
    },
    {
      "midi": 59,
      "hit": false,
      "t": 25161.29199999997,
      "d": 233.87098333333415,
      "v": 112
    },
    {
      "midi": 62,
      "hit": false,
      "t": 25161.29199999997,
      "d": 403.22583333333387,
      "v": 119
    },
    {
      "midi": 67,
      "hit": false,
      "t": 25161.29199999997,
      "d": 629.0322999999989,
      "v": 99
    },
    {
      "midi": 52,
      "hit": false,
      "t": 25161.29199999997,
      "d": 774.1935999999987,
      "v": 119
    },
    {
      "midi": 59,
      "hit": false,
      "t": 25887.098499999967,
      "d": 169.35484999999971,
      "v": 99
    },
    {
      "midi": 62,
      "hit": false,
      "t": 26129.033999999967,
      "d": 185.48388333333423,
      "v": 112
    },
    {
      "midi": 59,
      "hit": false,
      "t": 26129.033999999967,
      "d": 241.93550000000323,
      "v": 105
    },
    {
      "midi": 66,
      "hit": false,
      "t": 26129.033999999967,
      "d": 266.1290500000032,
      "v": 81
    },
    {
      "midi": 47,
      "hit": false,
      "t": 26129.033999999967,
      "d": 887.0968333333367,
      "v": 105
    },
    {
      "midi": 59,
      "hit": false,
      "t": 26370.96949999997,
      "d": 56.45161666666536,
      "v": 41
    },
    {
      "midi": 67,
      "hit": false,
      "t": 26370.96949999997,
      "d": 266.12904999999955,
      "v": 105
    },
    {
      "midi": 66,
      "hit": false,
      "t": 26612.90499999997,
      "d": 104.83871666666528,
      "v": 105
    },
    {
      "midi": 55,
      "hit": false,
      "t": 26854.84049999997,
      "d": 193.54839999999967,
      "v": 99
    },
    {
      "midi": 55,
      "hit": false,
      "t": 27096.77599999997,
      "d": 266.1290499999959,
      "v": 55
    },
    {
      "midi": 60,
      "hit": false,
      "t": 27096.77599999997,
      "d": 290.3225999999959,
      "v": 105
    },
    {
      "midi": 67,
      "hit": false,
      "t": 27096.77599999997,
      "d": 330.64518333333035,
      "v": 99
    },
    {
      "midi": 64,
      "hit": false,
      "t": 27096.77599999997,
      "d": 427.4193833333302,
      "v": 105
    },
    {
      "midi": 45,
      "hit": false,
      "t": 27096.77599999997,
      "d": 1201.6129833333289,
      "v": 94
    },
    {
      "midi": 55,
      "hit": false,
      "t": 27580.646999999964,
      "d": 266.12904999999955,
      "v": 89
    },
    {
      "midi": 55,
      "hit": false,
      "t": 28064.517999999964,
      "d": 274.19356666666863,
      "v": 105
    },
    {
      "midi": 60,
      "hit": false,
      "t": 28064.517999999964,
      "d": 290.32260000000315,
      "v": 112
    },
    {
      "midi": 64,
      "hit": false,
      "t": 28064.517999999964,
      "d": 298.3871166666686,
      "v": 112
    },
    {
      "midi": 45,
      "hit": false,
      "t": 28548.388999999966,
      "d": 177.41936666666516,
      "v": 89
    },
    {
      "midi": 55,
      "hit": false,
      "t": 28790.324499999966,
      "d": 185.48388333333423,
      "v": 99
    },
    {
      "midi": 55,
      "hit": false,
      "t": 29032.259999999966,
      "d": 185.48388333333423,
      "v": 89
    },
    {
      "midi": 60,
      "hit": false,
      "t": 29032.259999999966,
      "d": 419.3548666666684,
      "v": 119
    },
    {
      "midi": 64,
      "hit": false,
      "t": 29032.259999999966,
      "d": 435.4839000000029,
      "v": 127
    },
    {
      "midi": 45,
      "hit": false,
      "t": 29032.259999999966,
      "d": 1145.1613666666672,
      "v": 89
    },
    {
      "midi": 55,
      "hit": false,
      "t": 29516.13099999997,
      "d": 387.09679999999935,
      "v": 89
    },
    {
      "midi": 60,
      "hit": false,
      "t": 29758.066499999968,
      "d": 153.2258166666652,
      "v": 70
    },
    {
      "midi": 60,
      "hit": false,
      "t": 30000.001999999968,
      "d": 322.5806666666649,
      "v": 112
    },
    {
      "midi": 55,
      "hit": false,
      "t": 30000.001999999968,
      "d": 346.77421666666487,
      "v": 105
    },
    {
      "midi": 67,
      "hit": false,
      "t": 30000.001999999968,
      "d": 370.96776666666483,
      "v": 105
    },
    {
      "midi": 64,
      "hit": false,
      "t": 30000.001999999968,
      "d": 411.2903499999993,
      "v": 112
    },
    {
      "midi": 45,
      "hit": false,
      "t": 30483.872999999967,
      "d": 112.90323333333436,
      "v": 99
    },
    {
      "midi": 55,
      "hit": false,
      "t": 30725.808499999966,
      "d": 185.48388333333423,
      "v": 99
    },
    {
      "midi": 55,
      "hit": false,
      "t": 30967.743999999966,
      "d": 145.16129999999612,
      "v": 112
    },
    {
      "midi": 60,
      "hit": false,
      "t": 30967.743999999966,
      "d": 290.3225999999959,
      "v": 112
    },
    {
      "midi": 67,
      "hit": false,
      "t": 30967.743999999966,
      "d": 403.22583333333023,
      "v": 105
    },
    {
      "midi": 64,
      "hit": false,
      "t": 30967.743999999966,
      "d": 459.6774499999956,
      "v": 112
    },
    {
      "midi": 50,
      "hit": false,
      "t": 30967.743999999966,
      "d": 1209.6774999999943,
      "v": 89
    },
    {
      "midi": 38,
      "hit": false,
      "t": 30967.743999999966,
      "d": 1225.8065333333288,
      "v": 99
    },
    {
      "midi": 55,
      "hit": false,
      "t": 31451.61499999996,
      "d": 258.0645333333341,
      "v": 99
    },
    {
      "midi": 55,
      "hit": false,
      "t": 31935.48599999996,
      "d": 185.48388333333423,
      "v": 127
    },
    {
      "midi": 60,
      "hit": false,
      "t": 31935.48599999996,
      "d": 217.74194999999963,
      "v": 119
    },
    {
      "midi": 64,
      "hit": false,
      "t": 31935.48599999996,
      "d": 298.3871166666686,
      "v": 119
    },
    {
      "midi": 67,
      "hit": false,
      "t": 31935.48599999996,
      "d": 354.83873333333395,
      "v": 94
    },
    {
      "midi": 38,
      "hit": false,
      "t": 32419.35699999996,
      "d": 161.29033333333427,
      "v": 94
    },
    {
      "midi": 50,
      "hit": false,
      "t": 32419.35699999996,
      "d": 161.29033333333427,
      "v": 89
    },
    {
      "midi": 57,
      "hit": false,
      "t": 32661.29249999996,
      "d": 427.4193833333338,
      "v": 112
    },
    {
      "midi": 62,
      "hit": false,
      "t": 32903.22799999996,
      "d": 459.67745000000286,
      "v": 119
    },
    {
      "midi": 38,
      "hit": false,
      "t": 32903.22799999996,
      "d": 491.9355166666719,
      "v": 105
    },
    {
      "midi": 50,
      "hit": false,
      "t": 32903.22799999996,
      "d": 524.1935833333409,
      "v": 99
    },
    {
      "midi": 66,
      "hit": false,
      "t": 32903.22799999996,
      "d": 580.6452000000063,
      "v": 99
    },
    {
      "midi": 69,
      "hit": false,
      "t": 32903.22799999996,
      "d": 838.709733333344,
      "v": 112
    },
    {
      "midi": 57,
      "hit": false,
      "t": 33387.098999999966,
      "d": 330.645183333334,
      "v": 119
    },
    {
      "midi": 40,
      "hit": false,
      "t": 33629.034499999965,
      "d": 80.64516666666896,
      "v": 99
    },
    {
      "midi": 52,
      "hit": false,
      "t": 33629.034499999965,
      "d": 80.64516666666896,
      "v": 119
    },
    {
      "midi": 57,
      "hit": false,
      "t": 33870.96999999997,
      "d": 185.48388333333423,
      "v": 112
    },
    {
      "midi": 62,
      "hit": false,
      "t": 33870.96999999997,
      "d": 427.4193833333338,
      "v": 112
    },
    {
      "midi": 66,
      "hit": false,
      "t": 33870.96999999997,
      "d": 435.48389999999927,
      "v": 89
    },
    {
      "midi": 42,
      "hit": false,
      "t": 33870.96999999997,
      "d": 459.67745000000286,
      "v": 89
    },
    {
      "midi": 54,
      "hit": false,
      "t": 33870.96999999997,
      "d": 500.00003333333734,
      "v": 112
    },
    {
      "midi": 57,
      "hit": false,
      "t": 34354.84099999998,
      "d": 145.16129999999976,
      "v": 105
    },
    {
      "midi": 62,
      "hit": false,
      "t": 34838.71199999998,
      "d": 306.4516333333304,
      "v": 105
    },
    {
      "midi": 72,
      "hit": false,
      "t": 34838.71199999998,
      "d": 370.9677666666612,
      "v": 105
    },
    {
      "midi": 67,
      "hit": false,
      "t": 34838.71199999998,
      "d": 435.483899999992,
      "v": 112
    },
    {
      "midi": 55,
      "hit": false,
      "t": 34838.71199999998,
      "d": 1475.8065500000012,
      "v": 94
    },
    {
      "midi": 43,
      "hit": false,
      "t": 34838.71199999998,
      "d": 1483.8710666666666,
      "v": 85
    },
    {
      "midi": 62,
      "hit": false,
      "t": 35322.58299999997,
      "d": 193.54839999999967,
      "v": 105
    },
    {
      "midi": 62,
      "hit": false,
      "t": 35806.45399999997,
      "d": 290.3225999999995,
      "v": 119
    },
    {
      "midi": 67,
      "hit": false,
      "t": 35806.45399999997,
      "d": 387.09679999999935,
      "v": 105
    },
    {
      "midi": 72,
      "hit": false,
      "t": 35806.45399999997,
      "d": 411.29035000000295,
      "v": 105
    },
    {
      "midi": 62,
      "hit": false,
      "t": 36290.324999999975,
      "d": 209.67743333333783,
      "v": 99
    },
    {
      "midi": 71,
      "hit": false,
      "t": 36290.324999999975,
      "d": 233.87098333334143,
      "v": 105
    },
    {
      "midi": 67,
      "hit": false,
      "t": 36290.324999999975,
      "d": 266.12905000001047,
      "v": 99
    },
    {
      "midi": 43,
      "hit": false,
      "t": 36532.26049999998,
      "d": 1435.4839666666667,
      "v": 99
    },
    {
      "midi": 62,
      "hit": false,
      "t": 36774.19599999999,
      "d": 217.74195000000327,
      "v": 112
    },
    {
      "midi": 71,
      "hit": false,
      "t": 36774.19599999999,
      "d": 403.2258333333375,
      "v": 99
    },
    {
      "midi": 67,
      "hit": false,
      "t": 36774.19599999999,
      "d": 419.3548666666684,
      "v": 112
    },
    {
      "midi": 55,
      "hit": false,
      "t": 36774.19599999999,
      "d": 1129.032333333329,
      "v": 112
    },
    {
      "midi": 62,
      "hit": false,
      "t": 37258.06699999999,
      "d": 338.70969999999943,
      "v": 99
    },
    {
      "midi": 67,
      "hit": false,
      "t": 37500.00249999999,
      "d": 145.16129999999976,
      "v": 112
    },
    {
      "midi": 67,
      "hit": false,
      "t": 37741.93799999999,
      "d": 64.5161333333308,
      "v": 112
    },
    {
      "midi": 71,
      "hit": false,
      "t": 37741.93799999999,
      "d": 80.64516666666168,
      "v": 105
    },
    {
      "midi": 62,
      "hit": false,
      "t": 37741.93799999999,
      "d": 104.83871666666528,
      "v": 85
    },
    {
      "midi": 62,
      "hit": false,
      "t": 37983.87349999998,
      "d": 145.16129999999976,
      "v": 94
    },
    {
      "midi": 69,
      "hit": false,
      "t": 37983.87349999998,
      "d": 161.29033333333064,
      "v": 119
    },
    {
      "midi": 66,
      "hit": false,
      "t": 37983.87349999998,
      "d": 193.54839999999967,
      "v": 119
    },
    {
      "midi": 42,
      "hit": false,
      "t": 38225.80899999998,
      "d": 72.58065000000352,
      "v": 53
    },
    {
      "midi": 54,
      "hit": false,
      "t": 38225.80899999998,
      "d": 88.7096833333344,
      "v": 94
    },
    {
      "midi": 59,
      "hit": false,
      "t": 38467.74449999998,
      "d": 120.96775000000343,
      "v": 60
    },
    {
      "midi": 59,
      "hit": false,
      "t": 38709.679999999986,
      "d": 274.19356666666863,
      "v": 105
    },
    {
      "midi": 62,
      "hit": false,
      "t": 38709.679999999986,
      "d": 346.77421666667215,
      "v": 112
    },
    {
      "midi": 67,
      "hit": false,
      "t": 38709.679999999986,
      "d": 467.7419666666756,
      "v": 105
    },
    {
      "midi": 40,
      "hit": false,
      "t": 38709.679999999986,
      "d": 1201.612983333347,
      "v": 36
    },
    {
      "midi": 52,
      "hit": false,
      "t": 38709.679999999986,
      "d": 1217.742016666678,
      "v": 89
    },
    {
      "midi": 59,
      "hit": false,
      "t": 39193.55099999999,
      "d": 266.1290500000032,
      "v": 105
    },
    {
      "midi": 59,
      "hit": false,
      "t": 39677.422,
      "d": 370.96776666666847,
      "v": 112
    },
    {
      "midi": 62,
      "hit": false,
      "t": 39677.422,
      "d": 370.96776666666847,
      "v": 112
    },
    {
      "midi": 67,
      "hit": false,
      "t": 39677.422,
      "d": 435.48389999999927,
      "v": 99
    },
    {
      "midi": 40,
      "hit": false,
      "t": 40161.293,
      "d": 161.29033333333064,
      "v": 94
    },
    {
      "midi": 52,
      "hit": false,
      "t": 40161.293,
      "d": 209.67743333333055,
      "v": 105
    },
    {
      "midi": 59,
      "hit": false,
      "t": 40403.2285,
      "d": 322.58066666666855,
      "v": 105
    },
    {
      "midi": 62,
      "hit": false,
      "t": 40645.164,
      "d": 258.06453333333775,
      "v": 119
    },
    {
      "midi": 52,
      "hit": false,
      "t": 40645.164,
      "d": 1072.580716666671,
      "v": 105
    },
    {
      "midi": 40,
      "hit": false,
      "t": 40645.164,
      "d": 1088.7097500000018,
      "v": 99
    },
    {
      "midi": 59,
      "hit": false,
      "t": 40887.099500000004,
      "d": 274.19356666666863,
      "v": 105
    },
    {
      "midi": 62,
      "hit": false,
      "t": 41129.035,
      "d": 241.9354999999996,
      "v": 112
    },
    {
      "midi": 59,
      "hit": false,
      "t": 41370.9705,
      "d": 137.09678333333432,
      "v": 77
    },
    {
      "midi": 59,
      "hit": false,
      "t": 41612.906,
      "d": 201.61291666666511,
      "v": 112
    },
    {
      "midi": 62,
      "hit": false,
      "t": 41612.906,
      "d": 250.00001666666503,
      "v": 119
    },
    {
      "midi": 67,
      "hit": false,
      "t": 41612.906,
      "d": 370.96776666666847,
      "v": 112
    },
    {
      "midi": 52,
      "hit": false,
      "t": 41854.8415,
      "d": 250.00001666666503,
      "v": 112
    },
    {
      "midi": 40,
      "hit": false,
      "t": 41854.8415,
      "d": 306.4516333333304,
      "v": 99
    },
    {
      "midi": 55,
      "hit": false,
      "t": 42096.777,
      "d": 370.96776666666847,
      "v": 105
    },
    {
      "midi": 60,
      "hit": false,
      "t": 42338.7125,
      "d": 120.96775000000343,
      "v": 112
    },
    {
      "midi": 55,
      "hit": false,
      "t": 42580.648,
      "d": 314.5161500000031,
      "v": 105
    },
    {
      "midi": 60,
      "hit": false,
      "t": 42580.648,
      "d": 354.8387333333376,
      "v": 127
    },
    {
      "midi": 64,
      "hit": false,
      "t": 42580.648,
      "d": 427.4193833333411,
      "v": 119
    },
    {
      "midi": 67,
      "hit": false,
      "t": 42580.648,
      "d": 451.6129333333447,
      "v": 112
    },
    {
      "midi": 45,
      "hit": false,
      "t": 42580.648,
      "d": 1185.4839500000162,
      "v": 99
    },
    {
      "midi": 55,
      "hit": false,
      "t": 43064.519000000015,
      "d": 346.77421666666487,
      "v": 89
    },
    {
      "midi": 55,
      "hit": false,
      "t": 43548.390000000014,
      "d": 282.25808333333407,
      "v": 119
    },
    {
      "midi": 60,
      "hit": false,
      "t": 43548.390000000014,
      "d": 322.58066666666855,
      "v": 127
    },
    {
      "midi": 64,
      "hit": false,
      "t": 43548.390000000014,
      "d": 362.903250000003,
      "v": 112
    },
    {
      "midi": 45,
      "hit": false,
      "t": 44032.26100000002,
      "d": 185.48388333333423,
      "v": 89
    },
    {
      "midi": 55,
      "hit": false,
      "t": 44274.19650000002,
      "d": 314.5161500000031,
      "v": 112
    },
    {
      "midi": 64,
      "hit": false,
      "t": 44516.13200000002,
      "d": 435.48390000000654,
      "v": 112
    },
    {
      "midi": 60,
      "hit": false,
      "t": 44516.13200000002,
      "d": 483.87100000000646,
      "v": 112
    },
    {
      "midi": 45,
      "hit": false,
      "t": 44516.13200000002,
      "d": 1112.9033000000054,
      "v": 99
    },
    {
      "midi": 55,
      "hit": false,
      "t": 45000.003000000026,
      "d": 330.645183333334,
      "v": 99
    },
    {
      "midi": 55,
      "hit": false,
      "t": 45483.874000000025,
      "d": 330.645183333334,
      "v": 105
    },
    {
      "midi": 60,
      "hit": false,
      "t": 45483.874000000025,
      "d": 370.96776666666847,
      "v": 119
    },
    {
      "midi": 67,
      "hit": false,
      "t": 45483.874000000025,
      "d": 387.09679999999935,
      "v": 105
    },
    {
      "midi": 64,
      "hit": false,
      "t": 45483.874000000025,
      "d": 403.22583333333023,
      "v": 112
    },
    {
      "midi": 45,
      "hit": false,
      "t": 45967.745000000024,
      "d": 161.29033333333064,
      "v": 99
    },
    {
      "midi": 55,
      "hit": false,
      "t": 46209.680500000024,
      "d": 161.29033333333064,
      "v": 105
    },
    {
      "midi": 55,
      "hit": false,
      "t": 46451.61600000002,
      "d": 274.19356666666863,
      "v": 105
    },
    {
      "midi": 60,
      "hit": false,
      "t": 46451.61600000002,
      "d": 387.09679999999935,
      "v": 112
    },
    {
      "midi": 64,
      "hit": false,
      "t": 46451.61600000002,
      "d": 443.5484166666647,
      "v": 127
    },
    {
      "midi": 36,
      "hit": false,
      "t": 46451.61600000002,
      "d": 508.0645499999955,
      "v": 81
    },
    {
      "midi": 48,
      "hit": false,
      "t": 46451.61600000002,
      "d": 540.3226166666645,
      "v": 85
    },
    {
      "midi": 67,
      "hit": false,
      "t": 46451.61600000002,
      "d": 903.2258666666676,
      "v": 112
    },
    {
      "midi": 57,
      "hit": false,
      "t": 47177.42250000002,
      "d": 201.6129166666724,
      "v": 94
    },
    {
      "midi": 57,
      "hit": false,
      "t": 47419.35800000003,
      "d": 435.48390000000654,
      "v": 89
    },
    {
      "midi": 62,
      "hit": false,
      "t": 47419.35800000003,
      "d": 435.48390000000654,
      "v": 119
    },
    {
      "midi": 66,
      "hit": false,
      "t": 47419.35800000003,
      "d": 451.6129333333374,
      "v": 81
    },
    {
      "midi": 50,
      "hit": false,
      "t": 47419.35800000003,
      "d": 516.1290666666682,
      "v": 89
    },
    {
      "midi": 38,
      "hit": false,
      "t": 47419.35800000003,
      "d": 532.2580999999991,
      "v": 89
    },
    {
      "midi": 55,
      "hit": false,
      "t": 48387.10000000003,
      "d": 403.2258333333375,
      "v": 94
    },
    {
      "midi": 40,
      "hit": false,
      "t": 48387.10000000003,
      "d": 427.4193833333411,
      "v": 99
    },
    {
      "midi": 60,
      "hit": false,
      "t": 48387.10000000003,
      "d": 427.4193833333411,
      "v": 105
    },
    {
      "midi": 52,
      "hit": false,
      "t": 48387.10000000003,
      "d": 435.48390000000654,
      "v": 105
    },
    {
      "midi": 64,
      "hit": false,
      "t": 48387.10000000003,
      "d": 524.1935833333409,
      "v": 105
    },
    {
      "midi": 57,
      "hit": false,
      "t": 49354.84200000003,
      "d": 370.96776666666847,
      "v": 94
    },
    {
      "midi": 42,
      "hit": false,
      "t": 49354.84200000003,
      "d": 411.29035000000295,
      "v": 39
    },
    {
      "midi": 54,
      "hit": false,
      "t": 49354.84200000003,
      "d": 435.48390000000654,
      "v": 49
    },
    {
      "midi": 62,
      "hit": false,
      "t": 49354.84200000003,
      "d": 467.7419666666756,
      "v": 94
    },
    {
      "midi": 57,
      "hit": false,
      "t": 49838.71300000004,
      "d": 427.4193833333338,
      "v": 85
    },
    {
      "midi": 69,
      "hit": false,
      "t": 50322.58400000004,
      "d": 314.5161500000031,
      "v": 105
    },
    {
      "midi": 62,
      "hit": false,
      "t": 50322.58400000004,
      "d": 330.645183333334,
      "v": 105
    },
    {
      "midi": 57,
      "hit": false,
      "t": 50322.58400000004,
      "d": 338.70969999999943,
      "v": 49
    },
    {
      "midi": 66,
      "hit": false,
      "t": 50322.58400000004,
      "d": 387.09679999999935,
      "v": 70
    },
    {
      "midi": 43,
      "hit": false,
      "t": 50322.58400000004,
      "d": 1379.0323500000013,
      "v": 46
    },
    {
      "midi": 55,
      "hit": false,
      "t": 50322.58400000004,
      "d": 1395.1613833333322,
      "v": 94
    },
    {
      "midi": 57,
      "hit": false,
      "t": 50806.45500000004,
      "d": 282.25808333333407,
      "v": 81
    },
    {
      "midi": 57,
      "hit": false,
      "t": 51290.32600000004,
      "d": 161.29033333333064,
      "v": 105
    },
    {
      "midi": 62,
      "hit": false,
      "t": 51290.32600000004,
      "d": 185.48388333333423,
      "v": 112
    },
    {
      "midi": 69,
      "hit": false,
      "t": 51290.32600000004,
      "d": 185.48388333333423,
      "v": 105
    },
    {
      "midi": 66,
      "hit": false,
      "t": 51290.32600000004,
      "d": 282.25808333333407,
      "v": 41
    },
    {
      "midi": 67,
      "hit": false,
      "t": 51774.19700000004,
      "d": 104.83871666666528,
      "v": 99
    },
    {
      "midi": 43,
      "hit": false,
      "t": 52016.132500000036,
      "d": 1241.9355666666816,
      "v": 85
    },
    {
      "midi": 59,
      "hit": false,
      "t": 52258.068000000036,
      "d": 241.93550000000687,
      "v": 105
    },
    {
      "midi": 67,
      "hit": false,
      "t": 52258.068000000036,
      "d": 379.0322833333412,
      "v": 77
    },
    {
      "midi": 62,
      "hit": false,
      "t": 52258.068000000036,
      "d": 411.2903500000102,
      "v": 112
    },
    {
      "midi": 55,
      "hit": false,
      "t": 52258.068000000036,
      "d": 975.8065166666784,
      "v": 99
    },
    {
      "midi": 59,
      "hit": false,
      "t": 52741.93900000005,
      "d": 330.645183333334,
      "v": 94
    },
    {
      "midi": 62,
      "hit": false,
      "t": 52983.87450000005,
      "d": 129.03226666666887,
      "v": 112
    },
    {
      "midi": 62,
      "hit": false,
      "t": 53225.81000000005,
      "d": 120.96775000000343,
      "v": 119
    },
    {
      "midi": 59,
      "hit": false,
      "t": 53225.81000000005,
      "d": 137.09678333333432,
      "v": 105
    },
    {
      "midi": 67,
      "hit": false,
      "t": 53225.81000000005,
      "d": 169.35485000000335,
      "v": 105
    },
    {
      "midi": 59,
      "hit": false,
      "t": 53467.745500000055,
      "d": 64.5161333333308,
      "v": 74
    },
    {
      "midi": 62,
      "hit": false,
      "t": 53467.745500000055,
      "d": 112.90323333333072,
      "v": 105
    },
    {
      "midi": 66,
      "hit": false,
      "t": 53467.745500000055,
      "d": 129.0322666666616,
      "v": 105
    },
    {
      "midi": 54,
      "hit": false,
      "t": 53709.68100000005,
      "d": 64.5161333333308,
      "v": 105
    },
    {
      "midi": 42,
      "hit": false,
      "t": 53709.68100000005,
      "d": 96.77419999999984,
      "v": 85
    },
    {
      "midi": 57,
      "hit": false,
      "t": 53951.61650000005,
      "d": 177.4193666666688,
      "v": 105
    },
    {
      "midi": 62,
      "hit": false,
      "t": 54193.55200000005,
      "d": 306.45163333333767,
      "v": 112
    },
    {
      "midi": 57,
      "hit": false,
      "t": 54193.55200000005,
      "d": 314.5161500000031,
      "v": 112
    },
    {
      "midi": 69,
      "hit": false,
      "t": 54193.55200000005,
      "d": 346.77421666667215,
      "v": 112
    },
    {
      "midi": 66,
      "hit": false,
      "t": 54193.55200000005,
      "d": 435.48390000000654,
      "v": 89
    },
    {
      "midi": 52,
      "hit": false,
      "t": 54193.55200000005,
      "d": 1403.225900000005,
      "v": 94
    },
    {
      "midi": 40,
      "hit": false,
      "t": 54193.55200000005,
      "d": 1443.5484833333394,
      "v": 85
    },
    {
      "midi": 57,
      "hit": false,
      "t": 54677.42300000005,
      "d": 322.58066666666855,
      "v": 85
    },
    {
      "midi": 62,
      "hit": false,
      "t": 55161.29400000005,
      "d": 120.96775000000343,
      "v": 112
    },
    {
      "midi": 66,
      "hit": false,
      "t": 55161.29400000005,
      "d": 169.35485000000335,
      "v": 85
    },
    {
      "midi": 69,
      "hit": false,
      "t": 55161.29400000005,
      "d": 185.48388333333423,
      "v": 105
    },
    {
      "midi": 57,
      "hit": false,
      "t": 55161.29400000005,
      "d": 201.61291666666511,
      "v": 105
    },
    {
      "midi": 71,
      "hit": false,
      "t": 55645.16500000005,
      "d": 80.64516666666896,
      "v": 99
    },
    {
      "midi": 40,
      "hit": false,
      "t": 55887.10050000005,
      "d": 1072.580716666671,
      "v": 99
    },
    {
      "midi": 59,
      "hit": false,
      "t": 56129.03600000005,
      "d": 274.19356666666863,
      "v": 94
    },
    {
      "midi": 62,
      "hit": false,
      "t": 56129.03600000005,
      "d": 475.80648333333374,
      "v": 112
    },
    {
      "midi": 67,
      "hit": false,
      "t": 56129.03600000005,
      "d": 693.548433333337,
      "v": 94
    },
    {
      "midi": 52,
      "hit": false,
      "t": 56129.03600000005,
      "d": 725.806500000006,
      "v": 99
    },
    {
      "midi": 59,
      "hit": false,
      "t": 56854.84250000006,
      "d": 169.35484999999608,
      "v": 85
    },
    {
      "midi": 62,
      "hit": false,
      "t": 57096.77800000006,
      "d": 193.54840000000695,
      "v": 112
    },
    {
      "midi": 59,
      "hit": false,
      "t": 57096.77800000006,
      "d": 241.93550000000687,
      "v": 112
    },
    {
      "midi": 66,
      "hit": false,
      "t": 57096.77800000006,
      "d": 266.12905000001047,
      "v": 94
    },
    {
      "midi": 47,
      "hit": false,
      "t": 57096.77800000006,
      "d": 887.0968333333512,
      "v": 105
    },
    {
      "midi": 67,
      "hit": false,
      "t": 57338.71350000006,
      "d": 193.54840000000695,
      "v": 99
    },
    {
      "midi": 66,
      "hit": false,
      "t": 57580.64900000007,
      "d": 88.7096833333344,
      "v": 105
    },
    {
      "midi": 67,
      "hit": false,
      "t": 57580.64900000007,
      "d": 169.35485000000335,
      "v": 33
    },
    {
      "midi": 55,
      "hit": false,
      "t": 57822.58450000008,
      "d": 532.2580999999991,
      "v": 94
    },
    {
      "midi": 60,
      "hit": false,
      "t": 58064.52000000008,
      "d": 282.25808333333407,
      "v": 119
    },
    {
      "midi": 67,
      "hit": false,
      "t": 58064.52000000008,
      "d": 403.22583333333023,
      "v": 112
    },
    {
      "midi": 64,
      "hit": false,
      "t": 58064.52000000008,
      "d": 419.3548666666611,
      "v": 127
    },
    {
      "midi": 45,
      "hit": false,
      "t": 58064.52000000008,
      "d": 1129.0323333333217,
      "v": 105
    },
    {
      "midi": 55,
      "hit": false,
      "t": 58548.39100000007,
      "d": 282.25808333333407,
      "v": 85
    },
    {
      "midi": 55,
      "hit": false,
      "t": 59032.26200000007,
      "d": 330.645183333334,
      "v": 112
    },
    {
      "midi": 60,
      "hit": false,
      "t": 59032.26200000007,
      "d": 330.645183333334,
      "v": 112
    },
    {
      "midi": 64,
      "hit": false,
      "t": 59032.26200000007,
      "d": 354.8387333333376,
      "v": 119
    },
    {
      "midi": 45,
      "hit": false,
      "t": 59516.133000000074,
      "d": 96.77419999999984,
      "v": 94
    },
    {
      "midi": 55,
      "hit": false,
      "t": 59758.068500000074,
      "d": 161.29033333333064,
      "v": 105
    },
    {
      "midi": 55,
      "hit": false,
      "t": 60000.00400000007,
      "d": 193.54839999999967,
      "v": 112
    },
    {
      "midi": 60,
      "hit": false,
      "t": 60000.00400000007,
      "d": 266.1290500000032,
      "v": 119
    },
    {
      "midi": 64,
      "hit": false,
      "t": 60000.00400000007,
      "d": 427.4193833333338,
      "v": 127
    },
    {
      "midi": 67,
      "hit": false,
      "t": 60000.00400000007,
      "d": 629.0322999999989,
      "v": 112
    },
    {
      "midi": 38,
      "hit": false,
      "t": 60000.00400000007,
      "d": 1080.645233333329,
      "v": 65
    },
    {
      "midi": 50,
      "hit": false,
      "t": 60000.00400000007,
      "d": 1080.645233333329,
      "v": 89
    },
    {
      "midi": 57,
      "hit": false,
      "t": 60725.81050000007,
      "d": 185.48388333333423,
      "v": 105
    },
    {
      "midi": 57,
      "hit": false,
      "t": 60967.74600000007,
      "d": 241.9354999999996,
      "v": 105
    },
    {
      "midi": 62,
      "hit": false,
      "t": 60967.74600000007,
      "d": 282.25808333333407,
      "v": 112
    },
    {
      "midi": 66,
      "hit": false,
      "t": 60967.74600000007,
      "d": 435.48389999999927,
      "v": 94
    },
    {
      "midi": 38,
      "hit": false,
      "t": 61209.68150000007,
      "d": 209.67743333333055,
      "v": 85
    },
    {
      "midi": 50,
      "hit": false,
      "t": 61209.68150000007,
      "d": 266.1290500000032,
      "v": 99
    },
    {
      "midi": 57,
      "hit": false,
      "t": 61451.61700000007,
      "d": 306.45163333333767,
      "v": 99
    },
    {
      "midi": 67,
      "hit": false,
      "t": 61693.55250000008,
      "d": 217.741949999996,
      "v": 99
    },
    {
      "midi": 59,
      "hit": false,
      "t": 61935.48800000008,
      "d": 225.80646666666144,
      "v": 119
    },
    {
      "midi": 62,
      "hit": false,
      "t": 61935.48800000008,
      "d": 346.77421666666487,
      "v": 119
    },
    {
      "midi": 67,
      "hit": false,
      "t": 61935.48800000008,
      "d": 419.3548666666684,
      "v": 70
    },
    {
      "midi": 55,
      "hit": false,
      "t": 61935.48800000008,
      "d": 1129.032333333329,
      "v": 105
    },
    {
      "midi": 43,
      "hit": false,
      "t": 61935.48800000008,
      "d": 1185.4839499999944,
      "v": 99
    },
    {
      "midi": 59,
      "hit": false,
      "t": 62419.35900000008,
      "d": 233.87098333333415,
      "v": 85
    },
    {
      "midi": 62,
      "hit": false,
      "t": 62903.230000000076,
      "d": 274.19356666666135,
      "v": 112
    },
    {
      "midi": 59,
      "hit": false,
      "t": 62903.230000000076,
      "d": 290.32259999999224,
      "v": 105
    },
    {
      "midi": 67,
      "hit": false,
      "t": 62903.230000000076,
      "d": 306.4516333333231,
      "v": 112
    },
    {
      "midi": 55,
      "hit": false,
      "t": 63387.10100000007,
      "d": 88.7096833333344,
      "v": 94
    },
    {
      "midi": 43,
      "hit": false,
      "t": 63387.10100000007,
      "d": 104.83871666666528,
      "v": 74
    },
    {
      "midi": 55,
      "hit": false,
      "t": 63629.03650000007,
      "d": 290.3225999999995,
      "v": 105
    },
    {
      "midi": 64,
      "hit": false,
      "t": 63870.97200000007,
      "d": 435.48390000000654,
      "v": 119
    },
    {
      "midi": 40,
      "hit": false,
      "t": 63870.97200000007,
      "d": 516.1290666666755,
      "v": 94
    },
    {
      "midi": 52,
      "hit": false,
      "t": 63870.97200000007,
      "d": 532.2581000000064,
      "v": 112
    },
    {
      "midi": 55,
      "hit": false,
      "t": 64112.907500000074,
      "d": 387.09679999999935,
      "v": 85
    },
    {
      "midi": 60,
      "hit": false,
      "t": 64354.84300000007,
      "d": 290.3225999999995,
      "v": 119
    },
    {
      "midi": 64,
      "hit": false,
      "t": 64596.77850000007,
      "d": 282.25808333333407,
      "v": 105
    },
    {
      "midi": 66,
      "hit": false,
      "t": 64838.71400000007,
      "d": 338.7097000000067,
      "v": 105
    },
    {
      "midi": 42,
      "hit": false,
      "t": 64838.71400000007,
      "d": 532.2581000000064,
      "v": 60
    },
    {
      "midi": 54,
      "hit": false,
      "t": 64838.71400000007,
      "d": 564.5161666666754,
      "v": 70
    },
    {
      "midi": 57,
      "hit": false,
      "t": 65080.64950000008,
      "d": 629.0322999999989,
      "v": 81
    },
    {
      "midi": 62,
      "hit": false,
      "t": 65322.58500000008,
      "d": 282.25808333333407,
      "v": 112
    },
    {
      "midi": 66,
      "hit": false,
      "t": 65564.52050000009,
      "d": 201.61291666666511,
      "v": 105
    },
    {
      "midi": 57,
      "hit": false,
      "t": 65806.45600000008,
      "d": 282.25808333333407,
      "v": 105
    },
    {
      "midi": 62,
      "hit": false,
      "t": 65806.45600000008,
      "d": 330.64518333334127,
      "v": 112
    },
    {
      "midi": 69,
      "hit": false,
      "t": 65806.45600000008,
      "d": 338.7097000000067,
      "v": 99
    },
    {
      "midi": 66,
      "hit": false,
      "t": 65806.45600000008,
      "d": 435.48390000000654,
      "v": 85
    },
    {
      "midi": 43,
      "hit": false,
      "t": 65806.45600000008,
      "d": 1491.9355833333393,
      "v": 85
    },
    {
      "midi": 55,
      "hit": false,
      "t": 65806.45600000008,
      "d": 1508.0646166666702,
      "v": 89
    },
    {
      "midi": 57,
      "hit": false,
      "t": 66290.32700000009,
      "d": 209.67743333333055,
      "v": 94
    },
    {
      "midi": 57,
      "hit": false,
      "t": 66774.19800000009,
      "d": 201.61291666666511,
      "v": 119
    },
    {
      "midi": 69,
      "hit": false,
      "t": 66774.19800000009,
      "d": 201.61291666666511,
      "v": 99
    },
    {
      "midi": 62,
      "hit": false,
      "t": 66774.19800000009,
      "d": 225.80646666666144,
      "v": 105
    },
    {
      "midi": 66,
      "hit": false,
      "t": 66774.19800000009,
      "d": 282.25808333333407,
      "v": 55
    },
    {
      "midi": 67,
      "hit": false,
      "t": 67258.06900000009,
      "d": 370.9677666666539,
      "v": 105
    },
    {
      "midi": 43,
      "hit": false,
      "t": 67500.00450000008,
      "d": 1491.9355833333102,
      "v": 85
    },
    {
      "midi": 59,
      "hit": false,
      "t": 67741.94000000008,
      "d": 217.741949999996,
      "v": 99
    },
    {
      "midi": 67,
      "hit": false,
      "t": 67741.94000000008,
      "d": 370.96776666666847,
      "v": 60
    },
    {
      "midi": 62,
      "hit": false,
      "t": 67741.94000000008,
      "d": 443.548416666672,
      "v": 105
    },
    {
      "midi": 55,
      "hit": false,
      "t": 67741.94000000008,
      "d": 1201.6129833333252,
      "v": 112
    },
    {
      "midi": 59,
      "hit": false,
      "t": 68225.81100000007,
      "d": 362.903250000003,
      "v": 112
    },
    {
      "midi": 62,
      "hit": false,
      "t": 68467.74650000008,
      "d": 137.09678333332704,
      "v": 112
    },
    {
      "midi": 62,
      "hit": false,
      "t": 68709.68200000007,
      "d": 64.51613333333808,
      "v": 105
    },
    {
      "midi": 59,
      "hit": false,
      "t": 68709.68200000007,
      "d": 72.58065000000352,
      "v": 89
    },
    {
      "midi": 67,
      "hit": false,
      "t": 68709.68200000007,
      "d": 104.83871666666528,
      "v": 94
    },
    {
      "midi": 62,
      "hit": false,
      "t": 68951.61750000007,
      "d": 177.41936666665424,
      "v": 119
    },
    {
      "midi": 57,
      "hit": false,
      "t": 68951.61750000007,
      "d": 185.48388333331968,
      "v": 112
    },
    {
      "midi": 66,
      "hit": false,
      "t": 68951.61750000007,
      "d": 209.677433333316,
      "v": 112
    },
    {
      "midi": 42,
      "hit": false,
      "t": 69193.55300000004,
      "d": 72.58065000000352,
      "v": 89
    },
    {
      "midi": 54,
      "hit": false,
      "t": 69193.55300000004,
      "d": 72.58065000000352,
      "v": 105
    },
    {
      "midi": 57,
      "hit": false,
      "t": 69435.48850000005,
      "d": 185.48388333333423,
      "v": 105
    },
    {
      "midi": 57,
      "hit": false,
      "t": 69677.42400000006,
      "d": 177.4193666666688,
      "v": 112
    },
    {
      "midi": 69,
      "hit": false,
      "t": 69677.42400000006,
      "d": 314.51614999999583,
      "v": 112
    },
    {
      "midi": 62,
      "hit": false,
      "t": 69677.42400000006,
      "d": 427.41938333332655,
      "v": 112
    },
    {
      "midi": 66,
      "hit": false,
      "t": 69677.42400000006,
      "d": 435.483899999992,
      "v": 99
    },
    {
      "midi": 40,
      "hit": false,
      "t": 69677.42400000006,
      "d": 1403.2258999999904,
      "v": 99
    },
    {
      "midi": 52,
      "hit": false,
      "t": 69677.42400000006,
      "d": 1427.4194499999867,
      "v": 112
    },
    {
      "midi": 57,
      "hit": false,
      "t": 70161.29500000006,
      "d": 217.741949999996,
      "v": 105
    },
    {
      "midi": 62,
      "hit": false,
      "t": 70645.16600000006,
      "d": 120.96774999999616,
      "v": 112
    },
    {
      "midi": 57,
      "hit": false,
      "t": 70645.16600000006,
      "d": 145.16129999999248,
      "v": 127
    },
    {
      "midi": 66,
      "hit": false,
      "t": 70645.16600000006,
      "d": 153.22581666665792,
      "v": 89
    },
    {
      "midi": 69,
      "hit": false,
      "t": 70645.16600000006,
      "d": 169.3548499999888,
      "v": 112
    },
    {
      "midi": 71,
      "hit": false,
      "t": 71129.03700000004,
      "d": 64.51613333333808,
      "v": 99
    },
    {
      "midi": 40,
      "hit": false,
      "t": 71370.97250000005,
      "d": 1040.3226500000164,
      "v": 94
    },
    {
      "midi": 59,
      "hit": false,
      "t": 71612.90800000005,
      "d": 225.80646666666144,
      "v": 99
    },
    {
      "midi": 62,
      "hit": false,
      "t": 71612.90800000005,
      "d": 379.0322833333339,
      "v": 112
    },
    {
      "midi": 67,
      "hit": false,
      "t": 71612.90800000005,
      "d": 427.4193833333411,
      "v": 94
    },
    {
      "midi": 52,
      "hit": false,
      "t": 71612.90800000005,
      "d": 717.7419833333406,
      "v": 112
    },
    {
      "midi": 59,
      "hit": false,
      "t": 72096.77900000007,
      "d": 338.70969999999215,
      "v": 105
    },
    {
      "midi": 62,
      "hit": false,
      "t": 72338.71450000006,
      "d": 169.35485000000335,
      "v": 105
    },
    {
      "midi": 62,
      "hit": false,
      "t": 72580.65000000007,
      "d": 153.22581666667247,
      "v": 105
    },
    {
      "midi": 59,
      "hit": false,
      "t": 72580.65000000007,
      "d": 241.93550000000687,
      "v": 105
    },
    {
      "midi": 66,
      "hit": false,
      "t": 72580.65000000007,
      "d": 266.1290500000032,
      "v": 99
    },
    {
      "midi": 47,
      "hit": false,
      "t": 72580.65000000007,
      "d": 846.7742499999877,
      "v": 99
    },
    {
      "midi": 59,
      "hit": false,
      "t": 72822.58550000007,
      "d": 40.3225833333272,
      "v": 38
    },
    {
      "midi": 67,
      "hit": false,
      "t": 72822.58550000007,
      "d": 282.2580833333195,
      "v": 105
    },
    {
      "midi": 66,
      "hit": false,
      "t": 73064.52100000007,
      "d": 112.90323333333072,
      "v": 105
    },
    {
      "midi": 55,
      "hit": false,
      "t": 73306.45650000006,
      "d": 185.48388333333423,
      "v": 105
    },
    {
      "midi": 55,
      "hit": false,
      "t": 73548.39200000007,
      "d": 274.1935666666541,
      "v": 94
    },
    {
      "midi": 60,
      "hit": false,
      "t": 73548.39200000007,
      "d": 314.5161499999813,
      "v": 112
    },
    {
      "midi": 67,
      "hit": false,
      "t": 73548.39200000007,
      "d": 379.03228333331936,
      "v": 105
    },
    {
      "midi": 64,
      "hit": false,
      "t": 73548.39200000007,
      "d": 435.483899999992,
      "v": 105
    },
    {
      "midi": 45,
      "hit": false,
      "t": 73548.39200000007,
      "d": 1064.5161999999982,
      "v": 94
    },
    {
      "midi": 55,
      "hit": false,
      "t": 74032.26300000006,
      "d": 298.38711666666495,
      "v": 94
    },
    {
      "midi": 55,
      "hit": false,
      "t": 74516.13400000006,
      "d": 250.0000166666723,
      "v": 112
    },
    {
      "midi": 60,
      "hit": false,
      "t": 74516.13400000006,
      "d": 338.7097000000067,
      "v": 119
    },
    {
      "midi": 64,
      "hit": false,
      "t": 74516.13400000006,
      "d": 419.35486666667566,
      "v": 112
    },
    {
      "midi": 45,
      "hit": false,
      "t": 75000.00500000008,
      "d": 112.90323333333072,
      "v": 94
    },
    {
      "midi": 55,
      "hit": false,
      "t": 75241.94050000007,
      "d": 185.48388333333423,
      "v": 105
    },
    {
      "midi": 55,
      "hit": false,
      "t": 75483.87600000008,
      "d": 209.67743333333055,
      "v": 112
    },
    {
      "midi": 60,
      "hit": false,
      "t": 75483.87600000008,
      "d": 290.3225999999995,
      "v": 119
    },
    {
      "midi": 64,
      "hit": false,
      "t": 75483.87600000008,
      "d": 346.77421666667215,
      "v": 119
    },
    {
      "midi": 67,
      "hit": false,
      "t": 75483.87600000008,
      "d": 500.00003333333007,
      "v": 112
    },
    {
      "midi": 38,
      "hit": false,
      "t": 75483.87600000008,
      "d": 1177.419433333329,
      "v": 89
    },
    {
      "midi": 50,
      "hit": false,
      "t": 75483.87600000008,
      "d": 1209.6774999999907,
      "v": 99
    },
    {
      "midi": 57,
      "hit": false,
      "t": 75967.74700000008,
      "d": 241.93549999999232,
      "v": 99
    },
    {
      "midi": 62,
      "hit": false,
      "t": 76451.61800000007,
      "d": 161.2903333333379,
      "v": 112
    },
    {
      "midi": 66,
      "hit": false,
      "t": 76451.61800000007,
      "d": 185.48388333333423,
      "v": 85
    },
    {
      "midi": 57,
      "hit": false,
      "t": 76451.61800000007,
      "d": 524.1935833333264,
      "v": 112
    },
    {
      "midi": 67,
      "hit": false,
      "t": 76693.55350000007,
      "d": 266.1290500000032,
      "v": 99
    },
    {
      "midi": 66,
      "hit": false,
      "t": 76935.48900000007,
      "d": 145.16129999999248,
      "v": 112
    },
    {
      "midi": 57,
      "hit": false,
      "t": 77177.42450000007,
      "d": 153.22581666667247,
      "v": 94
    },
    {
      "midi": 57,
      "hit": false,
      "t": 77419.36000000007,
      "d": 225.80646666666144,
      "v": 105
    },
    {
      "midi": 59,
      "hit": false,
      "t": 77419.36000000007,
      "d": 362.9032499999885,
      "v": 112
    },
    {
      "midi": 62,
      "hit": false,
      "t": 77419.36000000007,
      "d": 387.0967999999848,
      "v": 112
    },
    {
      "midi": 43,
      "hit": false,
      "t": 77419.36000000007,
      "d": 1112.9032999999908,
      "v": 81
    },
    {
      "midi": 55,
      "hit": false,
      "t": 77419.36000000007,
      "d": 1145.1613666666526,
      "v": 105
    },
    {
      "midi": 57,
      "hit": false,
      "t": 77903.23100000006,
      "d": 177.4193666666688,
      "v": 105
    },
    {
      "midi": 57,
      "hit": false,
      "t": 78387.10200000006,
      "d": 225.806466666676,
      "v": 119
    },
    {
      "midi": 59,
      "hit": false,
      "t": 78387.10200000006,
      "d": 241.93550000000687,
      "v": 119
    },
    {
      "midi": 62,
      "hit": false,
      "t": 78387.10200000006,
      "d": 266.1290500000032,
      "v": 112
    },
    {
      "midi": 55,
      "hit": false,
      "t": 78870.97300000006,
      "d": 137.09678333332704,
      "v": 94
    },
    {
      "midi": 43,
      "hit": false,
      "t": 78870.97300000006,
      "d": 177.41936666665424,
      "v": 85
    },
    {
      "midi": 55,
      "hit": false,
      "t": 79112.90850000005,
      "d": 193.54839999999967,
      "v": 99
    },
    {
      "midi": 55,
      "hit": false,
      "t": 79354.84400000006,
      "d": 209.67743333333055,
      "v": 99
    },
    {
      "midi": 60,
      "hit": false,
      "t": 79354.84400000006,
      "d": 403.22583333333023,
      "v": 119
    },
    {
      "midi": 64,
      "hit": false,
      "t": 79354.84400000006,
      "d": 459.67745000000286,
      "v": 112
    },
    {
      "midi": 48,
      "hit": false,
      "t": 79354.84400000006,
      "d": 500.00003333333007,
      "v": 112
    },
    {
      "midi": 57,
      "hit": false,
      "t": 80080.65050000005,
      "d": 169.35485000000335,
      "v": 99
    },
    {
      "midi": 50,
      "hit": false,
      "t": 80322.58600000005,
      "d": 120.96774999999616,
      "v": 94
    },
    {
      "midi": 38,
      "hit": false,
      "t": 80322.58600000005,
      "d": 137.09678333332704,
      "v": 94
    },
    {
      "midi": 62,
      "hit": false,
      "t": 80322.58600000005,
      "d": 258.0645333333232,
      "v": 112
    },
    {
      "midi": 57,
      "hit": false,
      "t": 80322.58600000005,
      "d": 266.12904999998864,
      "v": 112
    },
    {
      "midi": 66,
      "hit": false,
      "t": 80322.58600000005,
      "d": 282.2580833333195,
      "v": 94
    },
    {
      "midi": 40,
      "hit": false,
      "t": 80564.52150000005,
      "d": 72.58064999998896,
      "v": 89
    },
    {
      "midi": 52,
      "hit": false,
      "t": 80564.52150000005,
      "d": 80.6451666666544,
      "v": 119
    },
    {
      "midi": 54,
      "hit": false,
      "t": 80806.45700000004,
      "d": 56.451616666672635,
      "v": 112
    },
    {
      "midi": 42,
      "hit": false,
      "t": 80806.45700000004,
      "d": 72.58065000000352,
      "v": 85
    },
    {
      "midi": 57,
      "hit": false,
      "t": 80806.45700000004,
      "d": 72.58065000000352,
      "v": 112
    },
    {
      "midi": 62,
      "hit": false,
      "t": 80806.45700000004,
      "d": 137.0967833333416,
      "v": 112
    },
    {
      "midi": 66,
      "hit": false,
      "t": 80806.45700000004,
      "d": 153.22581666667247,
      "v": 105
    },
    {
      "midi": 57,
      "hit": false,
      "t": 81048.39250000005,
      "d": 169.35485000000335,
      "v": 89
    },
    {
      "midi": 44,
      "hit": false,
      "t": 81290.32800000005,
      "d": 64.51613333333808,
      "v": 39
    },
    {
      "midi": 57,
      "hit": false,
      "t": 81290.32800000005,
      "d": 306.45163333334494,
      "v": 99
    },
    {
      "midi": 69,
      "hit": false,
      "t": 81290.32800000005,
      "d": 370.967766666683,
      "v": 119
    },
    {
      "midi": 62,
      "hit": false,
      "t": 81290.32800000005,
      "d": 411.2903500000102,
      "v": 119
    },
    {
      "midi": 66,
      "hit": false,
      "t": 81290.32800000005,
      "d": 451.6129333333374,
      "v": 99
    },
    {
      "midi": 43,
      "hit": false,
      "t": 81290.32800000005,
      "d": 1475.8065499999793,
      "v": 99
    },
    {
      "midi": 55,
      "hit": false,
      "t": 81290.32800000005,
      "d": 1491.9355833333102,
      "v": 89
    },
    {
      "midi": 57,
      "hit": false,
      "t": 81774.19900000005,
      "d": 201.61291666666511,
      "v": 89
    },
    {
      "midi": 57,
      "hit": false,
      "t": 82258.07000000005,
      "d": 193.54839999999967,
      "v": 119
    },
    {
      "midi": 69,
      "hit": false,
      "t": 82258.07000000005,
      "d": 209.67743333333055,
      "v": 94
    },
    {
      "midi": 62,
      "hit": false,
      "t": 82258.07000000005,
      "d": 241.93549999999232,
      "v": 112
    },
    {
      "midi": 66,
      "hit": false,
      "t": 82258.07000000005,
      "d": 282.2580833333195,
      "v": 81
    },
    {
      "midi": 67,
      "hit": false,
      "t": 82741.94100000004,
      "d": 145.16129999999248,
      "v": 105
    },
    {
      "midi": 43,
      "hit": false,
      "t": 82983.87650000003,
      "d": 1258.0645999999979,
      "v": 94
    },
    {
      "midi": 59,
      "hit": false,
      "t": 83225.81200000003,
      "d": 217.741949999996,
      "v": 99
    },
    {
      "midi": 62,
      "hit": false,
      "t": 83225.81200000003,
      "d": 330.6451833333267,
      "v": 112
    },
    {
      "midi": 67,
      "hit": false,
      "t": 83225.81200000003,
      "d": 370.9677666666539,
      "v": 94
    },
    {
      "midi": 55,
      "hit": false,
      "t": 83225.81200000003,
      "d": 975.8065166666638,
      "v": 119
    },
    {
      "midi": 59,
      "hit": false,
      "t": 83709.68300000002,
      "d": 387.0968000000139,
      "v": 112
    },
    {
      "midi": 62,
      "hit": false,
      "t": 83951.61850000003,
      "d": 145.16130000000703,
      "v": 112
    },
    {
      "midi": 62,
      "hit": false,
      "t": 84193.55400000003,
      "d": 88.70968333331984,
      "v": 112
    },
    {
      "midi": 59,
      "hit": false,
      "t": 84193.55400000003,
      "d": 104.83871666665073,
      "v": 77
    },
    {
      "midi": 67,
      "hit": false,
      "t": 84193.55400000003,
      "d": 112.90323333331617,
      "v": 112
    },
    {
      "midi": 62,
      "hit": false,
      "t": 84435.48950000001,
      "d": 56.451616666672635,
      "v": 119
    },
    {
      "midi": 66,
      "hit": false,
      "t": 84435.48950000001,
      "d": 161.2903333333379,
      "v": 119
    },
    {
      "midi": 57,
      "hit": false,
      "t": 84435.48950000001,
      "d": 201.61291666666511,
      "v": 99
    },
    {
      "midi": 54,
      "hit": false,
      "t": 84677.425,
      "d": 72.58065000000352,
      "v": 94
    },
    {
      "midi": 42,
      "hit": false,
      "t": 84677.425,
      "d": 80.64516666666896,
      "v": 65
    },
    {
      "midi": 57,
      "hit": false,
      "t": 84919.36050000001,
      "d": 120.96774999999616,
      "v": 105
    },
    {
      "midi": 57,
      "hit": false,
      "t": 85161.296,
      "d": 298.38711666666495,
      "v": 112
    },
    {
      "midi": 69,
      "hit": false,
      "t": 85161.296,
      "d": 298.38711666666495,
      "v": 112
    },
    {
      "midi": 62,
      "hit": false,
      "t": 85161.296,
      "d": 314.51614999999583,
      "v": 119
    },
    {
      "midi": 66,
      "hit": false,
      "t": 85161.296,
      "d": 403.22583333333023,
      "v": 105
    },
    {
      "midi": 40,
      "hit": false,
      "t": 85161.296,
      "d": 1379.0323500000086,
      "v": 99
    },
    {
      "midi": 52,
      "hit": false,
      "t": 85161.296,
      "d": 1403.225900000005,
      "v": 112
    },
    {
      "midi": 57,
      "hit": false,
      "t": 85645.167,
      "d": 193.54839999999967,
      "v": 105
    },
    {
      "midi": 62,
      "hit": false,
      "t": 86129.038,
      "d": 145.16130000000703,
      "v": 112
    },
    {
      "midi": 66,
      "hit": false,
      "t": 86129.038,
      "d": 193.54840000001423,
      "v": 85
    },
    {
      "midi": 69,
      "hit": false,
      "t": 86129.038,
      "d": 193.54840000001423,
      "v": 105
    },
    {
      "midi": 71,
      "hit": false,
      "t": 86612.90900000001,
      "d": 48.387100000007194,
      "v": 85
    },
    {
      "midi": 40,
      "hit": false,
      "t": 86854.84450000002,
      "d": 1016.1291000000201,
      "v": 89
    },
    {
      "midi": 59,
      "hit": false,
      "t": 87096.78000000003,
      "d": 282.25808333333407,
      "v": 99
    },
    {
      "midi": 62,
      "hit": false,
      "t": 87096.78000000003,
      "d": 354.8387333333376,
      "v": 112
    },
    {
      "midi": 67,
      "hit": false,
      "t": 87096.78000000003,
      "d": 427.4193833333411,
      "v": 99
    },
    {
      "midi": 52,
      "hit": false,
      "t": 87096.78000000003,
      "d": 709.6774666666752,
      "v": 112
    },
    {
      "midi": 59,
      "hit": false,
      "t": 87580.65100000004,
      "d": 290.3225999999995,
      "v": 99
    },
    {
      "midi": 62,
      "hit": false,
      "t": 87822.58650000003,
      "d": 193.54840000001423,
      "v": 105
    },
    {
      "midi": 62,
      "hit": false,
      "t": 88064.52200000006,
      "d": 145.16130000000703,
      "v": 119
    },
    {
      "midi": 66,
      "hit": false,
      "t": 88064.52200000006,
      "d": 233.87098333334143,
      "v": 89
    },
    {
      "midi": 59,
      "hit": false,
      "t": 88064.52200000006,
      "d": 282.25808333333407,
      "v": 119
    },
    {
      "midi": 47,
      "hit": false,
      "t": 88064.52200000006,
      "d": 790.3226333333296,
      "v": 99
    },
    {
      "midi": 67,
      "hit": false,
      "t": 88306.45750000006,
      "d": 209.67743333333055,
      "v": 105
    },
    {
      "midi": 66,
      "hit": false,
      "t": 88548.39300000005,
      "d": 112.90323333333072,
      "v": 99
    },
    {
      "midi": 55,
      "hit": false,
      "t": 88790.32850000005,
      "d": 161.2903333333379,
      "v": 89
    },
    {
      "midi": 55,
      "hit": false,
      "t": 89032.26400000005,
      "d": 241.93549999999232,
      "v": 89
    },
    {
      "midi": 60,
      "hit": false,
      "t": 89032.26400000005,
      "d": 266.12904999998864,
      "v": 119
    },
    {
      "midi": 67,
      "hit": false,
      "t": 89032.26400000005,
      "d": 379.03228333331936,
      "v": 119
    },
    {
      "midi": 64,
      "hit": false,
      "t": 89032.26400000005,
      "d": 387.0967999999848,
      "v": 112
    },
    {
      "midi": 45,
      "hit": false,
      "t": 89032.26400000005,
      "d": 1217.7420166666416,
      "v": 94
    },
    {
      "midi": 55,
      "hit": false,
      "t": 89516.13500000004,
      "d": 322.5806666666613,
      "v": 94
    },
    {
      "midi": 55,
      "hit": false,
      "t": 90000.00600000004,
      "d": 217.741949999996,
      "v": 112
    },
    {
      "midi": 60,
      "hit": false,
      "t": 90000.00600000004,
      "d": 306.4516333333304,
      "v": 119
    },
    {
      "midi": 64,
      "hit": false,
      "t": 90000.00600000004,
      "d": 338.70969999999215,
      "v": 105
    },
    {
      "midi": 45,
      "hit": false,
      "t": 90483.87700000004,
      "d": 153.22581666667247,
      "v": 94
    },
    {
      "midi": 55,
      "hit": false,
      "t": 90725.81250000004,
      "d": 346.77421666667215,
      "v": 105
    },
    {
      "midi": 60,
      "hit": false,
      "t": 90967.74800000005,
      "d": 258.0645333333232,
      "v": 119
    },
    {
      "midi": 45,
      "hit": false,
      "t": 90967.74800000005,
      "d": 1177.419433333329,
      "v": 94
    },
    {
      "midi": 64,
      "hit": false,
      "t": 91209.68350000004,
      "d": 306.4516333333304,
      "v": 112
    },
    {
      "midi": 60,
      "hit": false,
      "t": 91451.61900000004,
      "d": 209.6774333333451,
      "v": 105
    },
    {
      "midi": 55,
      "hit": false,
      "t": 91693.55450000004,
      "d": 153.22581666667247,
      "v": 112
    },
    {
      "midi": 55,
      "hit": false,
      "t": 91935.49000000005,
      "d": 322.5806666666613,
      "v": 94
    },
    {
      "midi": 60,
      "hit": false,
      "t": 91935.49000000005,
      "d": 362.9032499999885,
      "v": 119
    },
    {
      "midi": 67,
      "hit": false,
      "t": 91935.49000000005,
      "d": 370.9677666666539,
      "v": 119
    },
    {
      "midi": 64,
      "hit": false,
      "t": 91935.49000000005,
      "d": 403.2258333333157,
      "v": 119
    },
    {
      "midi": 45,
      "hit": false,
      "t": 92419.36100000003,
      "d": 112.90323333333072,
      "v": 99
    },
    {
      "midi": 55,
      "hit": false,
      "t": 92661.29650000003,
      "d": 153.22581666667247,
      "v": 112
    },
    {
      "midi": 55,
      "hit": false,
      "t": 92903.23200000003,
      "d": 193.54839999999967,
      "v": 105
    },
    {
      "midi": 60,
      "hit": false,
      "t": 92903.23200000003,
      "d": 338.70969999999215,
      "v": 119
    },
    {
      "midi": 67,
      "hit": false,
      "t": 92903.23200000003,
      "d": 387.09679999999935,
      "v": 112
    },
    {
      "midi": 64,
      "hit": false,
      "t": 92903.23200000003,
      "d": 403.22583333333023,
      "v": 119
    },
    {
      "midi": 50,
      "hit": false,
      "t": 92903.23200000003,
      "d": 1153.2258833333326,
      "v": 99
    },
    {
      "midi": 38,
      "hit": false,
      "t": 92903.23200000003,
      "d": 1217.7420166666707,
      "v": 94
    },
    {
      "midi": 55,
      "hit": false,
      "t": 93387.10300000003,
      "d": 290.3225999999995,
      "v": 105
    },
    {
      "midi": 55,
      "hit": false,
      "t": 93870.97400000003,
      "d": 177.4193666666688,
      "v": 112
    },
    {
      "midi": 60,
      "hit": false,
      "t": 93870.97400000003,
      "d": 201.61291666666511,
      "v": 119
    },
    {
      "midi": 64,
      "hit": false,
      "t": 93870.97400000003,
      "d": 266.1290500000032,
      "v": 119
    },
    {
      "midi": 67,
      "hit": false,
      "t": 93870.97400000003,
      "d": 322.5806666666758,
      "v": 119
    },
    {
      "midi": 38,
      "hit": false,
      "t": 94354.84500000004,
      "d": 145.16130000000703,
      "v": 94
    },
    {
      "midi": 50,
      "hit": false,
      "t": 94354.84500000004,
      "d": 169.35485000000335,
      "v": 105
    },
    {
      "midi": 57,
      "hit": false,
      "t": 94596.78050000005,
      "d": 161.2903333333379,
      "v": 112
    },
    {
      "midi": 57,
      "hit": false,
      "t": 94838.71600000006,
      "d": 193.54839999999967,
      "v": 127
    },
    {
      "midi": 62,
      "hit": false,
      "t": 94838.71600000006,
      "d": 403.22583333333023,
      "v": 127
    },
    {
      "midi": 66,
      "hit": false,
      "t": 94838.71600000006,
      "d": 459.67745000000286,
      "v": 127
    },
    {
      "midi": 38,
      "hit": false,
      "t": 94838.71600000006,
      "d": 475.80648333333374,
      "v": 99
    },
    {
      "midi": 50,
      "hit": false,
      "t": 94838.71600000006,
      "d": 491.9355166666646,
      "v": 105
    },
    {
      "midi": 69,
      "hit": false,
      "t": 94838.71600000006,
      "d": 532.2580999999918,
      "v": 119
    },
    {
      "midi": 57,
      "hit": false,
      "t": 95322.58700000006,
      "d": 217.741949999996,
      "v": 119
    },
    {
      "midi": 40,
      "hit": false,
      "t": 95564.52250000005,
      "d": 64.51613333333808,
      "v": 105
    },
    {
      "midi": 52,
      "hit": false,
      "t": 95564.52250000005,
      "d": 88.7096833333344,
      "v": 105
    },
    {
      "midi": 57,
      "hit": false,
      "t": 95806.45800000006,
      "d": 88.7096833333344,
      "v": 119
    },
    {
      "midi": 62,
      "hit": false,
      "t": 95806.45800000006,
      "d": 185.48388333333423,
      "v": 119
    },
    {
      "midi": 66,
      "hit": false,
      "t": 95806.45800000006,
      "d": 266.1290500000032,
      "v": 112
    },
    {
      "midi": 54,
      "hit": false,
      "t": 95806.45800000006,
      "d": 467.7419666666683,
      "v": 112
    },
    {
      "midi": 42,
      "hit": false,
      "t": 95806.45800000006,
      "d": 491.9355166666646,
      "v": 74
    },
    {
      "midi": 57,
      "hit": false,
      "t": 96048.39350000006,
      "d": 153.22581666665792,
      "v": 89
    },
    {
      "midi": 57,
      "hit": false,
      "t": 96290.32900000006,
      "d": 80.64516666666896,
      "v": 105
    },
    {
      "midi": 62,
      "hit": false,
      "t": 96290.32900000006,
      "d": 80.64516666666896,
      "v": 119
    },
    {
      "midi": 66,
      "hit": false,
      "t": 96290.32900000006,
      "d": 112.90323333333072,
      "v": 112
    },
    {
      "midi": 69,
      "hit": false,
      "t": 96290.32900000006,
      "d": 112.90323333333072,
      "v": 112
    },
    {
      "midi": 42,
      "hit": false,
      "t": 96532.26450000005,
      "d": 80.64516666666896,
      "v": 60
    },
    {
      "midi": 54,
      "hit": false,
      "t": 96532.26450000005,
      "d": 88.7096833333344,
      "v": 94
    },
    {
      "midi": 62,
      "hit": false,
      "t": 96774.20000000006,
      "d": 314.51614999999583,
      "v": 99
    },
    {
      "midi": 72,
      "hit": false,
      "t": 96774.20000000006,
      "d": 427.41938333332655,
      "v": 112
    },
    {
      "midi": 67,
      "hit": false,
      "t": 96774.20000000006,
      "d": 451.61293333332287,
      "v": 119
    },
    {
      "midi": 43,
      "hit": false,
      "t": 96774.20000000006,
      "d": 1411.2904166666558,
      "v": 99
    },
    {
      "midi": 55,
      "hit": false,
      "t": 96774.20000000006,
      "d": 1467.7420333333139,
      "v": 105
    },
    {
      "midi": 62,
      "hit": false,
      "t": 97258.07100000004,
      "d": 201.61291666666511,
      "v": 99
    },
    {
      "midi": 62,
      "hit": false,
      "t": 97741.94200000004,
      "d": 233.87098333332688,
      "v": 105
    },
    {
      "midi": 67,
      "hit": false,
      "t": 97741.94200000004,
      "d": 306.4516333333304,
      "v": 119
    },
    {
      "midi": 72,
      "hit": false,
      "t": 97741.94200000004,
      "d": 379.0322833333339,
      "v": 119
    },
    {
      "midi": 67,
      "hit": false,
      "t": 98225.81300000004,
      "d": 104.83871666666528,
      "v": 112
    },
    {
      "midi": 62,
      "hit": false,
      "t": 98225.81300000004,
      "d": 137.09678333332704,
      "v": 105
    },
    {
      "midi": 71,
      "hit": false,
      "t": 98225.81300000004,
      "d": 145.16129999999248,
      "v": 105
    },
    {
      "midi": 43,
      "hit": false,
      "t": 98467.74850000003,
      "d": 1411.2904166666704,
      "v": 89
    },
    {
      "midi": 62,
      "hit": false,
      "t": 98709.68400000004,
      "d": 217.741949999996,
      "v": 105
    },
    {
      "midi": 71,
      "hit": false,
      "t": 98709.68400000004,
      "d": 411.29034999999567,
      "v": 105
    },
    {
      "midi": 67,
      "hit": false,
      "t": 98709.68400000004,
      "d": 427.41938333332655,
      "v": 112
    },
    {
      "midi": 55,
      "hit": false,
      "t": 98709.68400000004,
      "d": 1096.77426666666,
      "v": 112
    },
    {
      "midi": 62,
      "hit": false,
      "t": 99193.55500000004,
      "d": 362.903250000003,
      "v": 99
    },
    {
      "midi": 67,
      "hit": false,
      "t": 99435.49050000004,
      "d": 145.16129999999248,
      "v": 119
    },
    {
      "midi": 67,
      "hit": false,
      "t": 99677.42600000004,
      "d": 32.25806666666176,
      "v": 94
    },
    {
      "midi": 71,
      "hit": false,
      "t": 99677.42600000004,
      "d": 88.7096833333344,
      "v": 105
    },
    {
      "midi": 62,
      "hit": false,
      "t": 99677.42600000004,
      "d": 112.90323333333072,
      "v": 81
    },
    {
      "midi": 62,
      "hit": false,
      "t": 99919.36150000003,
      "d": 88.7096833333344,
      "v": 85
    },
    {
      "midi": 69,
      "hit": false,
      "t": 99919.36150000003,
      "d": 129.0322666666616,
      "v": 127
    },
    {
      "midi": 66,
      "hit": false,
      "t": 99919.36150000003,
      "d": 153.22581666665792,
      "v": 119
    },
    {
      "midi": 42,
      "hit": false,
      "t": 100161.29700000002,
      "d": 72.58065000000352,
      "v": 85
    },
    {
      "midi": 54,
      "hit": false,
      "t": 100161.29700000002,
      "d": 96.77419999999984,
      "v": 99
    },
    {
      "midi": 59,
      "hit": false,
      "t": 100403.23250000003,
      "d": 137.09678333332704,
      "v": 89
    },
    {
      "midi": 59,
      "hit": false,
      "t": 100645.16800000002,
      "d": 250.00001666665776,
      "v": 105
    },
    {
      "midi": 62,
      "hit": false,
      "t": 100645.16800000002,
      "d": 338.70969999999215,
      "v": 119
    },
    {
      "midi": 67,
      "hit": false,
      "t": 100645.16800000002,
      "d": 443.54841666665743,
      "v": 112
    },
    {
      "midi": 40,
      "hit": false,
      "t": 100645.16800000002,
      "d": 1201.6129833333107,
      "v": 94
    },
    {
      "midi": 52,
      "hit": false,
      "t": 100645.16800000002,
      "d": 1209.6774999999761,
      "v": 99
    },
    {
      "midi": 59,
      "hit": false,
      "t": 101129.039,
      "d": 153.22581666667247,
      "v": 105
    },
    {
      "midi": 59,
      "hit": false,
      "t": 101612.91,
      "d": 201.61291666666511,
      "v": 105
    },
    {
      "midi": 62,
      "hit": false,
      "t": 101612.91,
      "d": 282.2580833333195,
      "v": 112
    },
    {
      "midi": 67,
      "hit": false,
      "t": 101612.91,
      "d": 379.03228333331936,
      "v": 105
    },
    {
      "midi": 52,
      "hit": false,
      "t": 102096.78099999999,
      "d": 129.0322666666616,
      "v": 105
    },
    {
      "midi": 40,
      "hit": false,
      "t": 102096.78099999999,
      "d": 145.16129999999248,
      "v": 99
    },
    {
      "midi": 59,
      "hit": false,
      "t": 102338.71649999998,
      "d": 395.16131666667934,
      "v": 112
    },
    {
      "midi": 62,
      "hit": false,
      "t": 102580.65199999999,
      "d": 250.0000166666723,
      "v": 119
    },
    {
      "midi": 40,
      "hit": false,
      "t": 102580.65199999999,
      "d": 1516.1291333333356,
      "v": 99
    },
    {
      "midi": 52,
      "hit": false,
      "t": 102580.65199999999,
      "d": 1516.1291333333356,
      "v": 112
    },
    {
      "midi": 64,
      "hit": false,
      "t": 102822.5875,
      "d": 266.12904999998864,
      "v": 119
    },
    {
      "midi": 62,
      "hit": false,
      "t": 103064.52299999999,
      "d": 290.3225999999995,
      "v": 119
    },
    {
      "midi": 59,
      "hit": false,
      "t": 103306.45849999998,
      "d": 701.6129500000097,
      "v": 112
    },
    {
      "midi": 66,
      "hit": false,
      "t": 103548.39399999999,
      "d": 145.16130000000703,
      "v": 112
    },
    {
      "midi": 67,
      "hit": false,
      "t": 103790.32949999999,
      "d": 104.83871666666528,
      "v": 99
    },
    {
      "midi": 69,
      "hit": false,
      "t": 104032.26499999998,
      "d": 80.64516666666896,
      "v": 112
    },
    {
      "midi": 52,
      "hit": false,
      "t": 104274.20049999999,
      "d": 96.77419999999984,
      "v": 99
    },
    {
      "midi": 40,
      "hit": false,
      "t": 104274.20049999999,
      "d": 120.96774999999616,
      "v": 94
    },
    {
      "midi": 55,
      "hit": false,
      "t": 104516.13599999998,
      "d": 362.9032499999885,
      "v": 85
    },
    {
      "midi": 60,
      "hit": false,
      "t": 104516.13599999998,
      "d": 419.3548666666611,
      "v": 105
    },
    {
      "midi": 67,
      "hit": false,
      "t": 104516.13599999998,
      "d": 419.3548666666611,
      "v": 99
    },
    {
      "midi": 64,
      "hit": false,
      "t": 104516.13599999998,
      "d": 475.80648333333374,
      "v": 127
    },
    {
      "midi": 45,
      "hit": false,
      "t": 104516.13599999998,
      "d": 1104.8387833333254,
      "v": 99
    },
    {
      "midi": 55,
      "hit": false,
      "t": 105000.00699999998,
      "d": 266.1290500000032,
      "v": 81
    },
    {
      "midi": 60,
      "hit": false,
      "t": 105483.87799999998,
      "d": 250.00001666665776,
      "v": 112
    },
    {
      "midi": 55,
      "hit": false,
      "t": 105483.87799999998,
      "d": 314.51614999999583,
      "v": 99
    },
    {
      "midi": 64,
      "hit": false,
      "t": 105483.87799999998,
      "d": 322.5806666666613,
      "v": 112
    },
    {
      "midi": 67,
      "hit": false,
      "t": 105483.87799999998,
      "d": 330.6451833333267,
      "v": 105
    },
    {
      "midi": 45,
      "hit": false,
      "t": 105967.74899999998,
      "d": 153.22581666667247,
      "v": 94
    },
    {
      "midi": 55,
      "hit": false,
      "t": 106209.68449999999,
      "d": 338.7097000000067,
      "v": 105
    },
    {
      "midi": 62,
      "hit": false,
      "t": 106451.62,
      "d": 322.5806666666758,
      "v": 119
    },
    {
      "midi": 45,
      "hit": false,
      "t": 106451.62,
      "d": 1072.5807166667073,
      "v": 89
    },
    {
      "midi": 55,
      "hit": false,
      "t": 106693.5555,
      "d": 572.5806833333481,
      "v": 89
    },
    {
      "midi": 60,
      "hit": false,
      "t": 106935.49100000001,
      "d": 379.03228333334846,
      "v": 119
    },
    {
      "midi": 62,
      "hit": false,
      "t": 107177.42650000002,
      "d": 185.48388333334879,
      "v": 105
    },
    {
      "midi": 60,
      "hit": false,
      "t": 107419.36200000004,
      "d": 24.19354999999632,
      "v": 74
    },
    {
      "midi": 55,
      "hit": false,
      "t": 107419.36200000004,
      "d": 290.3225999999995,
      "v": 67
    },
    {
      "midi": 64,
      "hit": false,
      "t": 107419.36200000004,
      "d": 459.67745000000286,
      "v": 112
    },
    {
      "midi": 45,
      "hit": false,
      "t": 107661.29750000003,
      "d": 322.5806666666758,
      "v": 94
    },
    {
      "midi": 60,
      "hit": false,
      "t": 107903.23300000004,
      "d": 193.54839999999967,
      "v": 119
    },
    {
      "midi": 55,
      "hit": false,
      "t": 108145.16850000004,
      "d": 161.2903333333379,
      "v": 105
    },
    {
      "midi": 55,
      "hit": false,
      "t": 108387.10400000005,
      "d": 274.19356666666863,
      "v": 112
    },
    {
      "midi": 60,
      "hit": false,
      "t": 108387.10400000005,
      "d": 370.96776666666847,
      "v": 119
    },
    {
      "midi": 64,
      "hit": false,
      "t": 108387.10400000005,
      "d": 491.9355166666646,
      "v": 112
    },
    {
      "midi": 36,
      "hit": false,
      "t": 108387.10400000005,
      "d": 588.7097166666645,
      "v": 99
    },
    {
      "midi": 48,
      "hit": false,
      "t": 108387.10400000005,
      "d": 588.7097166666645,
      "v": 89
    },
    {
      "midi": 67,
      "hit": false,
      "t": 108387.10400000005,
      "d": 677.4193999999989,
      "v": 112
    },
    {
      "midi": 57,
      "hit": false,
      "t": 109112.91050000006,
      "d": 177.4193666666688,
      "v": 112
    },
    {
      "midi": 57,
      "hit": false,
      "t": 109354.84600000006,
      "d": 266.1290500000032,
      "v": 112
    },
    {
      "midi": 62,
      "hit": false,
      "t": 109354.84600000006,
      "d": 451.6129333333374,
      "v": 112
    },
    {
      "midi": 66,
      "hit": false,
      "t": 109354.84600000006,
      "d": 467.7419666666683,
      "v": 94
    },
    {
      "midi": 38,
      "hit": false,
      "t": 109354.84600000006,
      "d": 500.00003333333007,
      "v": 77
    },
    {
      "midi": 50,
      "hit": false,
      "t": 109354.84600000006,
      "d": 540.3226166666573,
      "v": 105
    },
    {
      "midi": 57,
      "hit": false,
      "t": 109838.71700000006,
      "d": 201.61291666666511,
      "v": 112
    },
    {
      "midi": 55,
      "hit": false,
      "t": 110322.58800000006,
      "d": 282.25808333333407,
      "v": 105
    },
    {
      "midi": 40,
      "hit": false,
      "t": 110322.58800000006,
      "d": 467.7419666666683,
      "v": 99
    },
    {
      "midi": 64,
      "hit": false,
      "t": 110322.58800000006,
      "d": 467.7419666666683,
      "v": 112
    },
    {
      "midi": 52,
      "hit": false,
      "t": 110322.58800000006,
      "d": 491.9355166666646,
      "v": 105
    },
    {
      "midi": 60,
      "hit": false,
      "t": 110322.58800000006,
      "d": 491.9355166666646,
      "v": 105
    },
    {
      "midi": 55,
      "hit": false,
      "t": 110806.45900000006,
      "d": 274.1935666666541,
      "v": 89
    },
    {
      "midi": 64,
      "hit": false,
      "t": 111048.39450000005,
      "d": 233.87098333332688,
      "v": 105
    },
    {
      "midi": 57,
      "hit": false,
      "t": 111290.33000000005,
      "d": 274.19356666666863,
      "v": 89
    },
    {
      "midi": 62,
      "hit": false,
      "t": 111290.33000000005,
      "d": 459.67745000000286,
      "v": 105
    },
    {
      "midi": 54,
      "hit": false,
      "t": 111290.33000000005,
      "d": 483.8709999999992,
      "v": 29
    },
    {
      "midi": 42,
      "hit": false,
      "t": 111290.33000000005,
      "d": 491.9355166666646,
      "v": 33
    },
    {
      "midi": 57,
      "hit": false,
      "t": 111774.20100000004,
      "d": 314.51614999999583,
      "v": 99
    },
    {
      "midi": 57,
      "hit": false,
      "t": 112258.07200000004,
      "d": 290.3225999999995,
      "v": 94
    },
    {
      "midi": 62,
      "hit": false,
      "t": 112258.07200000004,
      "d": 322.5806666666613,
      "v": 112
    },
    {
      "midi": 69,
      "hit": false,
      "t": 112258.07200000004,
      "d": 379.0322833333339,
      "v": 89
    },
    {
      "midi": 66,
      "hit": false,
      "t": 112258.07200000004,
      "d": 435.48390000000654,
      "v": 62
    },
    {
      "midi": 43,
      "hit": false,
      "t": 112258.07200000004,
      "d": 1403.225900000005,
      "v": 81
    },
    {
      "midi": 55,
      "hit": false,
      "t": 112258.07200000004,
      "d": 1419.3549333333358,
      "v": 85
    },
    {
      "midi": 57,
      "hit": false,
      "t": 112741.94300000006,
      "d": 330.6451833333267,
      "v": 89
    },
    {
      "midi": 57,
      "hit": false,
      "t": 113225.81400000006,
      "d": 112.90323333333072,
      "v": 85
    },
    {
      "midi": 69,
      "hit": false,
      "t": 113225.81400000006,
      "d": 201.61291666666511,
      "v": 94
    },
    {
      "midi": 66,
      "hit": false,
      "t": 113225.81400000006,
      "d": 274.19356666666863,
      "v": 57
    },
    {
      "midi": 62,
      "hit": false,
      "t": 113225.81400000006,
      "d": 314.51614999999583,
      "v": 105
    },
    {
      "midi": 67,
      "hit": false,
      "t": 113709.68500000004,
      "d": 153.22581666667247,
      "v": 105
    },
    {
      "midi": 43,
      "hit": false,
      "t": 113951.62050000005,
      "d": 1403.225900000005,
      "v": 77
    },
    {
      "midi": 59,
      "hit": false,
      "t": 114193.55600000006,
      "d": 217.741949999996,
      "v": 94
    },
    {
      "midi": 67,
      "hit": false,
      "t": 114193.55600000006,
      "d": 403.22583333333023,
      "v": 77
    },
    {
      "midi": 62,
      "hit": false,
      "t": 114193.55600000006,
      "d": 443.54841666665743,
      "v": 105
    },
    {
      "midi": 55,
      "hit": false,
      "t": 114193.55600000006,
      "d": 1072.5807166666636,
      "v": 94
    },
    {
      "midi": 59,
      "hit": false,
      "t": 114677.42700000004,
      "d": 395.16131666667934,
      "v": 94
    },
    {
      "midi": 62,
      "hit": false,
      "t": 114919.36250000005,
      "d": 153.22581666667247,
      "v": 105
    },
    {
      "midi": 67,
      "hit": false,
      "t": 115161.29800000005,
      "d": 88.7096833333344,
      "v": 94
    },
    {
      "midi": 59,
      "hit": false,
      "t": 115161.29800000005,
      "d": 96.77419999999984,
      "v": 70
    },
    {
      "midi": 62,
      "hit": false,
      "t": 115161.29800000005,
      "d": 104.83871666666528,
      "v": 94
    },
    {
      "midi": 62,
      "hit": false,
      "t": 115403.23350000006,
      "d": 153.22581666667247,
      "v": 119
    },
    {
      "midi": 57,
      "hit": false,
      "t": 115403.23350000006,
      "d": 169.35485000000335,
      "v": 112
    },
    {
      "midi": 66,
      "hit": false,
      "t": 115403.23350000006,
      "d": 169.35485000000335,
      "v": 112
    },
    {
      "midi": 42,
      "hit": false,
      "t": 115645.16900000007,
      "d": 88.7096833333344,
      "v": 65
    },
    {
      "midi": 54,
      "hit": false,
      "t": 115645.16900000007,
      "d": 104.83871666666528,
      "v": 105
    },
    {
      "midi": 57,
      "hit": false,
      "t": 115887.10450000006,
      "d": 185.48388333333423,
      "v": 112
    },
    {
      "midi": 57,
      "hit": false,
      "t": 116129.04000000007,
      "d": 282.25808333333407,
      "v": 105
    },
    {
      "midi": 62,
      "hit": false,
      "t": 116129.04000000007,
      "d": 306.4516333333304,
      "v": 112
    },
    {
      "midi": 69,
      "hit": false,
      "t": 116129.04000000007,
      "d": 330.6451833333267,
      "v": 112
    },
    {
      "midi": 66,
      "hit": false,
      "t": 116129.04000000007,
      "d": 403.22583333333023,
      "v": 99
    },
    {
      "midi": 52,
      "hit": false,
      "t": 116129.04000000007,
      "d": 1370.9678333333286,
      "v": 105
    },
    {
      "midi": 40,
      "hit": false,
      "t": 116129.04000000007,
      "d": 1387.0968666666595,
      "v": 94
    },
    {
      "midi": 57,
      "hit": false,
      "t": 116612.91100000007,
      "d": 225.80646666666144,
      "v": 99
    },
    {
      "midi": 62,
      "hit": false,
      "t": 117096.78200000006,
      "d": 88.7096833333344,
      "v": 105
    },
    {
      "midi": 57,
      "hit": false,
      "t": 117096.78200000006,
      "d": 104.83871666666528,
      "v": 112
    },
    {
      "midi": 66,
      "hit": false,
      "t": 117096.78200000006,
      "d": 161.2903333333379,
      "v": 85
    },
    {
      "midi": 69,
      "hit": false,
      "t": 117096.78200000006,
      "d": 169.35485000000335,
      "v": 105
    },
    {
      "midi": 71,
      "hit": false,
      "t": 117580.65300000006,
      "d": 72.58065000000352,
      "v": 94
    },
    {
      "midi": 40,
      "hit": false,
      "t": 117822.58850000007,
      "d": 1104.8387833333545,
      "v": 94
    },
    {
      "midi": 59,
      "hit": false,
      "t": 118064.52400000008,
      "d": 185.48388333333423,
      "v": 99
    },
    {
      "midi": 67,
      "hit": false,
      "t": 118064.52400000008,
      "d": 258.06453333333775,
      "v": 112
    },
    {
      "midi": 62,
      "hit": false,
      "t": 118064.52400000008,
      "d": 274.19356666666863,
      "v": 105
    },
    {
      "midi": 52,
      "hit": false,
      "t": 118064.52400000008,
      "d": 798.3871500000096,
      "v": 127
    },
    {
      "midi": 59,
      "hit": false,
      "t": 118548.39500000008,
      "d": 370.967766666683,
      "v": 99
    },
    {
      "midi": 62,
      "hit": false,
      "t": 118790.33050000008,
      "d": 161.2903333333379,
      "v": 94
    },
    {
      "midi": 62,
      "hit": false,
      "t": 119032.26600000009,
      "d": 80.64516666666896,
      "v": 105
    },
    {
      "midi": 66,
      "hit": false,
      "t": 119032.26600000009,
      "d": 217.741949999996,
      "v": 112
    },
    {
      "midi": 59,
      "hit": false,
      "t": 119032.26600000009,
      "d": 354.83873333332303,
      "v": 89
    },
    {
      "midi": 47,
      "hit": false,
      "t": 119032.26600000009,
      "d": 879.0323166666494,
      "v": 105
    },
    {
      "midi": 67,
      "hit": false,
      "t": 119274.20150000008,
      "d": 258.0645333333232,
      "v": 105
    },
    {
      "midi": 66,
      "hit": false,
      "t": 119516.13700000008,
      "d": 112.90323333333072,
      "v": 105
    },
    {
      "midi": 55,
      "hit": false,
      "t": 119758.07250000007,
      "d": 169.35485000000335,
      "v": 67
    },
    {
      "midi": 55,
      "hit": false,
      "t": 120000.00800000007,
      "d": 24.19354999999632,
      "v": 105
    },
    {
      "midi": 60,
      "hit": false,
      "t": 120000.00800000007,
      "d": 338.70969999999215,
      "v": 112
    },
    {
      "midi": 64,
      "hit": false,
      "t": 120000.00800000007,
      "d": 467.74196666665375,
      "v": 105
    },
    {
      "midi": 67,
      "hit": false,
      "t": 120000.00800000007,
      "d": 491.9355166666501,
      "v": 94
    },
    {
      "midi": 45,
      "hit": false,
      "t": 120000.00800000007,
      "d": 1145.1613666666526,
      "v": 94
    },
    {
      "midi": 55,
      "hit": false,
      "t": 120483.87900000006,
      "d": 338.70969999999215,
      "v": 105
    },
    {
      "midi": 55,
      "hit": false,
      "t": 120967.75000000006,
      "d": 209.67743333333055,
      "v": 119
    },
    {
      "midi": 60,
      "hit": false,
      "t": 120967.75000000006,
      "d": 298.38711666666495,
      "v": 119
    },
    {
      "midi": 64,
      "hit": false,
      "t": 120967.75000000006,
      "d": 362.903250000003,
      "v": 112
    },
    {
      "midi": 45,
      "hit": false,
      "t": 121451.62100000006,
      "d": 112.90323333333072,
      "v": 94
    },
    {
      "midi": 55,
      "hit": false,
      "t": 121693.55650000005,
      "d": 177.4193666666688,
      "v": 105
    },
    {
      "midi": 55,
      "hit": false,
      "t": 121935.49200000006,
      "d": 185.48388333333423,
      "v": 94
    },
    {
      "midi": 60,
      "hit": false,
      "t": 121935.49200000006,
      "d": 346.77421666667215,
      "v": 112
    },
    {
      "midi": 67,
      "hit": false,
      "t": 121935.49200000006,
      "d": 354.8387333333376,
      "v": 112
    },
    {
      "midi": 64,
      "hit": false,
      "t": 121935.49200000006,
      "d": 419.35486666667566,
      "v": 119
    },
    {
      "midi": 50,
      "hit": false,
      "t": 121935.49200000006,
      "d": 1145.1613666666817,
      "v": 94
    },
    {
      "midi": 38,
      "hit": false,
      "t": 121935.49200000006,
      "d": 1161.2904000000126,
      "v": 94
    },
    {
      "midi": 55,
      "hit": false,
      "t": 122419.36300000007,
      "d": 282.25808333333407,
      "v": 99
    },
    {
      "midi": 62,
      "hit": false,
      "t": 122661.29850000008,
      "d": 120.96774999999616,
      "v": 105
    },
    {
      "midi": 57,
      "hit": false,
      "t": 122903.23400000007,
      "d": 330.6451833333267,
      "v": 112
    },
    {
      "midi": 62,
      "hit": false,
      "t": 122903.23400000007,
      "d": 330.6451833333267,
      "v": 119
    },
    {
      "midi": 69,
      "hit": false,
      "t": 122903.23400000007,
      "d": 330.6451833333267,
      "v": 105
    },
    {
      "midi": 66,
      "hit": false,
      "t": 122903.23400000007,
      "d": 387.09679999999935,
      "v": 94
    },
    {
      "midi": 50,
      "hit": false,
      "t": 123387.10500000007,
      "d": 104.83871666666528,
      "v": 112
    },
    {
      "midi": 38,
      "hit": false,
      "t": 123387.10500000007,
      "d": 112.90323333333072,
      "v": 99
    },
    {
      "midi": 59,
      "hit": false,
      "t": 123629.04050000006,
      "d": 145.16130000000703,
      "v": 105
    },
    {
      "midi": 59,
      "hit": false,
      "t": 123870.97600000007,
      "d": 169.35485000000335,
      "v": 112
    },
    {
      "midi": 67,
      "hit": false,
      "t": 123870.97600000007,
      "d": 314.5161500000104,
      "v": 119
    },
    {
      "midi": 62,
      "hit": false,
      "t": 123870.97600000007,
      "d": 443.548416666672,
      "v": 127
    },
    {
      "midi": 55,
      "hit": false,
      "t": 123870.97600000007,
      "d": 1032.2581333333364,
      "v": 105
    },
    {
      "midi": 43,
      "hit": false,
      "t": 123870.97600000007,
      "d": 1072.5807166666636,
      "v": 94
    },
    {
      "midi": 59,
      "hit": false,
      "t": 124354.84700000007,
      "d": 282.25808333333407,
      "v": 119
    },
    {
      "midi": 62,
      "hit": false,
      "t": 124596.78250000007,
      "d": 104.83871666666528,
      "v": 119
    },
    {
      "midi": 59,
      "hit": false,
      "t": 124838.71800000007,
      "d": 169.35485000000335,
      "v": 119
    },
    {
      "midi": 62,
      "hit": false,
      "t": 124838.71800000007,
      "d": 177.4193666666688,
      "v": 127
    },
    {
      "midi": 67,
      "hit": false,
      "t": 124838.71800000007,
      "d": 193.54839999999967,
      "v": 127
    },
    {
      "midi": 55,
      "hit": false,
      "t": 125080.65350000007,
      "d": 266.1290500000032,
      "v": 112
    },
    {
      "midi": 43,
      "hit": false,
      "t": 125080.65350000007,
      "d": 306.4516333333304,
      "v": 105
    },
    {
      "midi": 59,
      "hit": false,
      "t": 125322.58900000008,
      "d": 80.6451666666544,
      "v": 112
    },
    {
      "midi": 67,
      "hit": false,
      "t": 125322.58900000008,
      "d": 129.0322666666616,
      "v": 127
    },
    {
      "midi": 62,
      "hit": false,
      "t": 125322.58900000008,
      "d": 137.09678333332704,
      "v": 127
    },
    {
      "midi": 57,
      "hit": false,
      "t": 125564.52450000007,
      "d": 104.83871666666528,
      "v": 112
    },
    {
      "midi": 55,
      "hit": false,
      "t": 125564.52450000007,
      "d": 120.96774999999616,
      "v": 112
    },
    {
      "midi": 69,
      "hit": false,
      "t": 125806.46000000006,
      "d": 8.06451666666544,
      "v": 119
    },
    {
      "midi": 62,
      "hit": false,
      "t": 125806.46000000006,
      "d": 88.7096833333344,
      "v": 127
    },
    {
      "midi": 60,
      "hit": false,
      "t": 125806.46000000006,
      "d": 104.83871666666528,
      "v": 127
    },
    {
      "midi": 55,
      "hit": false,
      "t": 125806.46000000006,
      "d": 145.16129999999248,
      "v": 119
    },
    {
      "midi": 64,
      "hit": false,
      "t": 125806.46000000006,
      "d": 145.16129999999248,
      "v": 127
    },
    {
      "midi": 67,
      "hit": false,
      "t": 125806.46000000006,
      "d": 153.22581666665792,
      "v": 119
    },
    {
      "midi": 52,
      "hit": false,
      "t": 125806.46000000006,
      "d": 467.74196666665375,
      "v": 127
    },
    {
      "midi": 40,
      "hit": false,
      "t": 125806.46000000006,
      "d": 508.06454999998095,
      "v": 105
    },
    {
      "midi": 55,
      "hit": false,
      "t": 126048.39550000006,
      "d": 129.0322666666616,
      "v": 99
    },
    {
      "midi": 60,
      "hit": false,
      "t": 126290.33100000005,
      "d": 112.90323333333072,
      "v": 127
    },
    {
      "midi": 55,
      "hit": false,
      "t": 126290.33100000005,
      "d": 137.09678333332704,
      "v": 119
    },
    {
      "midi": 64,
      "hit": false,
      "t": 126290.33100000005,
      "d": 137.09678333332704,
      "v": 127
    },
    {
      "midi": 67,
      "hit": false,
      "t": 126290.33100000005,
      "d": 169.3548499999888,
      "v": 127
    },
    {
      "midi": 52,
      "hit": false,
      "t": 126532.26650000004,
      "d": 88.7096833333344,
      "v": 127
    },
    {
      "midi": 40,
      "hit": false,
      "t": 126532.26650000004,
      "d": 96.77419999999984,
      "v": 112
    },
    {
      "midi": 54,
      "hit": false,
      "t": 126774.20200000005,
      "d": 64.51613333333808,
      "v": 112
    },
    {
      "midi": 42,
      "hit": false,
      "t": 126774.20200000005,
      "d": 72.58065000000352,
      "v": 94
    },
    {
      "midi": 57,
      "hit": false,
      "t": 126774.20200000005,
      "d": 137.0967833333416,
      "v": 119
    },
    {
      "midi": 62,
      "hit": false,
      "t": 126774.20200000005,
      "d": 137.0967833333416,
      "v": 119
    },
    {
      "midi": 69,
      "hit": false,
      "t": 126774.20200000005,
      "d": 153.22581666667247,
      "v": 119
    },
    {
      "midi": 66,
      "hit": false,
      "t": 126774.20200000005,
      "d": 161.2903333333379,
      "v": 119
    },
    {
      "midi": 52,
      "hit": false,
      "t": 127016.13750000006,
      "d": 72.58065000000352,
      "v": 119
    },
    {
      "midi": 40,
      "hit": false,
      "t": 127016.13750000006,
      "d": 88.7096833333344,
      "v": 119
    },
    {
      "midi": 62,
      "hit": false,
      "t": 127258.07300000006,
      "d": 56.451616666672635,
      "v": 127
    },
    {
      "midi": 54,
      "hit": false,
      "t": 127258.07300000006,
      "d": 64.51613333333808,
      "v": 119
    },
    {
      "midi": 57,
      "hit": false,
      "t": 127258.07300000006,
      "d": 64.51613333333808,
      "v": 127
    },
    {
      "midi": 42,
      "hit": false,
      "t": 127258.07300000006,
      "d": 80.64516666666896,
      "v": 105
    },
    {
      "midi": 66,
      "hit": false,
      "t": 127258.07300000006,
      "d": 129.03226666667615,
      "v": 119
    },
    {
      "midi": 69,
      "hit": false,
      "t": 127258.07300000006,
      "d": 129.03226666667615,
      "v": 127
    },
    {
      "midi": 53,
      "hit": false,
      "t": 127741.94400000008,
      "d": 8.06451666666544,
      "v": 119
    },
    {
      "midi": 72,
      "hit": false,
      "t": 127741.94400000008,
      "d": 120.96774999999616,
      "v": 127
    },
    {
      "midi": 62,
      "hit": false,
      "t": 127741.94400000008,
      "d": 250.00001666665776,
      "v": 127
    },
    {
      "midi": 71,
      "hit": false,
      "t": 127741.94400000008,
      "d": 411.29034999999567,
      "v": 119
    },
    {
      "midi": 67,
      "hit": false,
      "t": 127741.94400000008,
      "d": 427.41938333332655,
      "v": 127
    },
    {
      "midi": 55,
      "hit": false,
      "t": 127741.94400000008,
      "d": 983.8710333333293,
      "v": 119
    },
    {
      "midi": 43,
      "hit": false,
      "t": 127741.94400000008,
      "d": 1024.1936166666565,
      "v": 105
    },
    {
      "midi": 62,
      "hit": false,
      "t": 128225.81500000008,
      "d": 330.64518333334127,
      "v": 112
    },
    {
      "midi": 67,
      "hit": false,
      "t": 128467.75050000008,
      "d": 104.83871666666528,
      "v": 119
    },
    {
      "midi": 62,
      "hit": false,
      "t": 128709.68600000007,
      "d": 177.41936666665424,
      "v": 119
    },
    {
      "midi": 67,
      "hit": false,
      "t": 128709.68600000007,
      "d": 225.80646666666144,
      "v": 127
    },
    {
      "midi": 71,
      "hit": false,
      "t": 128709.68600000007,
      "d": 233.87098333332688,
      "v": 127
    },
    {
      "midi": 55,
      "hit": false,
      "t": 128951.62150000007,
      "d": 258.06453333333775,
      "v": 112
    },
    {
      "midi": 43,
      "hit": false,
      "t": 128951.62150000007,
      "d": 290.3225999999995,
      "v": 105
    },
    {
      "midi": 62,
      "hit": false,
      "t": 129193.55700000007,
      "d": 129.0322666666616,
      "v": 119
    },
    {
      "midi": 67,
      "hit": false,
      "t": 129193.55700000007,
      "d": 153.22581666665792,
      "v": 127
    },
    {
      "midi": 72,
      "hit": false,
      "t": 129193.55700000007,
      "d": 153.22581666665792,
      "v": 127
    },
    {
      "midi": 55,
      "hit": false,
      "t": 129435.49250000007,
      "d": 80.64516666666896,
      "v": 112
    },
    {
      "midi": 43,
      "hit": false,
      "t": 129435.49250000007,
      "d": 104.83871666666528,
      "v": 112
    },
    {
      "midi": 62,
      "hit": false,
      "t": 129677.42800000006,
      "d": 201.61291666666511,
      "v": 119
    },
    {
      "midi": 71,
      "hit": false,
      "t": 129677.42800000006,
      "d": 411.29034999999567,
      "v": 127
    },
    {
      "midi": 67,
      "hit": false,
      "t": 129677.42800000006,
      "d": 435.483899999992,
      "v": 127
    },
    {
      "midi": 55,
      "hit": false,
      "t": 129677.42800000006,
      "d": 774.1936000000132,
      "v": 119
    },
    {
      "midi": 43,
      "hit": false,
      "t": 129677.42800000006,
      "d": 790.3226333333441,
      "v": 119
    },
    {
      "midi": 62,
      "hit": false,
      "t": 130161.29900000006,
      "d": 314.5161500000104,
      "v": 119
    },
    {
      "midi": 67,
      "hit": false,
      "t": 130403.23450000006,
      "d": 88.7096833333344,
      "v": 119
    },
    {
      "midi": 67,
      "hit": false,
      "t": 130645.17000000007,
      "d": 56.451616666672635,
      "v": 127
    },
    {
      "midi": 55,
      "hit": false,
      "t": 130645.17000000007,
      "d": 80.64516666666896,
      "v": 105
    },
    {
      "midi": 71,
      "hit": false,
      "t": 130645.17000000007,
      "d": 88.7096833333344,
      "v": 119
    },
    {
      "midi": 62,
      "hit": false,
      "t": 130645.17000000007,
      "d": 96.77419999999984,
      "v": 112
    },
    {
      "midi": 43,
      "hit": false,
      "t": 130645.17000000007,
      "d": 104.83871666666528,
      "v": 99
    },
    {
      "midi": 62,
      "hit": false,
      "t": 130887.10550000006,
      "d": 177.4193666666688,
      "v": 119
    },
    {
      "midi": 66,
      "hit": false,
      "t": 130887.10550000006,
      "d": 209.67743333333055,
      "v": 127
    },
    {
      "midi": 69,
      "hit": false,
      "t": 130887.10550000006,
      "d": 233.87098333332688,
      "v": 119
    },
    {
      "midi": 42,
      "hit": false,
      "t": 131129.04100000006,
      "d": 64.51613333332352,
      "v": 112
    },
    {
      "midi": 54,
      "hit": false,
      "t": 131129.04100000006,
      "d": 80.6451666666544,
      "v": 112
    },
    {
      "midi": 62,
      "hit": false,
      "t": 131370.97650000005,
      "d": 129.03226666667615,
      "v": 112
    },
    {
      "midi": 62,
      "hit": false,
      "t": 131612.91200000004,
      "d": 193.54839999999967,
      "v": 119
    },
    {
      "midi": 67,
      "hit": false,
      "t": 131612.91200000004,
      "d": 475.8064833333192,
      "v": 127
    },
    {
      "midi": 71,
      "hit": false,
      "t": 131612.91200000004,
      "d": 532.2580999999773,
      "v": 127
    },
    {
      "midi": 52,
      "hit": false,
      "t": 131612.91200000004,
      "d": 1120.9678166666417,
      "v": 127
    },
    {
      "midi": 40,
      "hit": false,
      "t": 131612.91200000004,
      "d": 1169.3549166666344,
      "v": 119
    },
    {
      "midi": 62,
      "hit": false,
      "t": 132096.78300000002,
      "d": 274.1935666666541,
      "v": 112
    },
    {
      "midi": 62,
      "hit": false,
      "t": 132580.654,
      "d": 250.00001666665776,
      "v": 119
    },
    {
      "midi": 71,
      "hit": false,
      "t": 132580.654,
      "d": 354.8387333333376,
      "v": 127
    },
    {
      "midi": 67,
      "hit": false,
      "t": 132580.654,
      "d": 403.22583333333023,
      "v": 127
    },
    {
      "midi": 52,
      "hit": false,
      "t": 133064.525,
      "d": 137.0967833333416,
      "v": 112
    },
    {
      "midi": 40,
      "hit": false,
      "t": 133064.525,
      "d": 169.35485000000335,
      "v": 112
    },
    {
      "midi": 62,
      "hit": false,
      "t": 133306.4605,
      "d": 137.0967833333416,
      "v": 112
    },
    {
      "midi": 62,
      "hit": false,
      "t": 133548.396,
      "d": 72.58064999998896,
      "v": 112
    },
    {
      "midi": 71,
      "hit": false,
      "t": 133548.396,
      "d": 88.70968333331984,
      "v": 119
    },
    {
      "midi": 67,
      "hit": false,
      "t": 133548.396,
      "d": 96.77419999998529,
      "v": 119
    },
    {
      "midi": 52,
      "hit": false,
      "t": 133548.396,
      "d": 750.0000499999733,
      "v": 119
    },
    {
      "midi": 40,
      "hit": false,
      "t": 133548.396,
      "d": 806.4516666666314,
      "v": 105
    },
    {
      "midi": 62,
      "hit": false,
      "t": 133790.3315,
      "d": 314.5161499999813,
      "v": 105
    },
    {
      "midi": 67,
      "hit": false,
      "t": 134032.267,
      "d": 72.58064999998896,
      "v": 112
    },
    {
      "midi": 71,
      "hit": false,
      "t": 134274.20249999998,
      "d": 145.16129999997793,
      "v": 119
    },
    {
      "midi": 67,
      "hit": false,
      "t": 134274.20249999998,
      "d": 153.22581666664337,
      "v": 127
    },
    {
      "midi": 62,
      "hit": false,
      "t": 134274.20249999998,
      "d": 161.2903333333088,
      "v": 127
    },
    {
      "midi": 52,
      "hit": false,
      "t": 134516.13799999995,
      "d": 274.1935666666541,
      "v": 119
    },
    {
      "midi": 40,
      "hit": false,
      "t": 134516.13799999995,
      "d": 298.3871166666504,
      "v": 105
    },
    {
      "midi": 62,
      "hit": false,
      "t": 134758.07349999994,
      "d": 80.6451666666544,
      "v": 112
    },
    {
      "midi": 69,
      "hit": false,
      "t": 134758.07349999994,
      "d": 161.2903333333088,
      "v": 119
    },
    {
      "midi": 66,
      "hit": false,
      "t": 134758.07349999994,
      "d": 169.35484999997425,
      "v": 119
    },
    {
      "midi": 52,
      "hit": false,
      "t": 135000.0089999999,
      "d": 217.741949999996,
      "v": 112
    },
    {
      "midi": 40,
      "hit": false,
      "t": 135000.0089999999,
      "d": 298.3871166666504,
      "v": 105
    },
    {
      "midi": 55,
      "hit": false,
      "t": 135241.9444999999,
      "d": 137.0967833333125,
      "v": 119
    },
    {
      "midi": 55,
      "hit": false,
      "t": 135483.8799999999,
      "d": 338.7097000000067,
      "v": 112
    },
    {
      "midi": 60,
      "hit": false,
      "t": 135483.8799999999,
      "d": 370.96776666666847,
      "v": 127
    },
    {
      "midi": 67,
      "hit": false,
      "t": 135483.8799999999,
      "d": 403.22583333333023,
      "v": 119
    },
    {
      "midi": 64,
      "hit": false,
      "t": 135483.8799999999,
      "d": 475.8064833333192,
      "v": 127
    },
    {
      "midi": 45,
      "hit": false,
      "t": 135483.8799999999,
      "d": 1129.0323333333363,
      "v": 105
    },
    {
      "midi": 55,
      "hit": false,
      "t": 135967.75099999987,
      "d": 346.77421666667215,
      "v": 112
    },
    {
      "midi": 55,
      "hit": false,
      "t": 136451.6219999999,
      "d": 274.1935666666832,
      "v": 112
    },
    {
      "midi": 60,
      "hit": false,
      "t": 136451.6219999999,
      "d": 298.3871166666795,
      "v": 119
    },
    {
      "midi": 64,
      "hit": false,
      "t": 136451.6219999999,
      "d": 459.6774500000174,
      "v": 127
    },
    {
      "midi": 67,
      "hit": false,
      "t": 136451.6219999999,
      "d": 459.6774500000174,
      "v": 119
    },
    {
      "midi": 45,
      "hit": false,
      "t": 136935.4929999999,
      "d": 564.516166666639,
      "v": 119
    },
    {
      "midi": 67,
      "hit": false,
      "t": 137177.4284999999,
      "d": 64.51613333332352,
      "v": 105
    },
    {
      "midi": 62,
      "hit": false,
      "t": 137177.4284999999,
      "d": 80.6451666666544,
      "v": 112
    },
    {
      "midi": 55,
      "hit": false,
      "t": 137177.4284999999,
      "d": 88.70968333331984,
      "v": 112
    },
    {
      "midi": 64,
      "hit": false,
      "t": 137177.4284999999,
      "d": 104.83871666665073,
      "v": 105
    },
    {
      "midi": 62,
      "hit": false,
      "t": 137419.36399999988,
      "d": 209.67743333333055,
      "v": 127
    },
    {
      "midi": 55,
      "hit": false,
      "t": 137419.36399999988,
      "d": 241.93549999999232,
      "v": 112
    },
    {
      "midi": 67,
      "hit": false,
      "t": 137419.36399999988,
      "d": 298.3871166666504,
      "v": 127
    },
    {
      "midi": 64,
      "hit": false,
      "t": 137419.36399999988,
      "d": 306.45163333331584,
      "v": 127
    },
    {
      "midi": 45,
      "hit": false,
      "t": 137661.29949999988,
      "d": 564.516166666639,
      "v": 112
    },
    {
      "midi": 64,
      "hit": false,
      "t": 137903.23499999987,
      "d": 64.51613333332352,
      "v": 94
    },
    {
      "midi": 67,
      "hit": false,
      "t": 137903.23499999987,
      "d": 64.51613333332352,
      "v": 94
    },
    {
      "midi": 55,
      "hit": false,
      "t": 137903.23499999987,
      "d": 80.6451666666544,
      "v": 112
    },
    {
      "midi": 60,
      "hit": false,
      "t": 137903.23499999987,
      "d": 80.6451666666544,
      "v": 99
    },
    {
      "midi": 55,
      "hit": false,
      "t": 138145.17049999986,
      "d": 209.67743333333055,
      "v": 112
    },
    {
      "midi": 60,
      "hit": false,
      "t": 138145.17049999986,
      "d": 298.3871166666504,
      "v": 127
    },
    {
      "midi": 64,
      "hit": false,
      "t": 138145.17049999986,
      "d": 362.9032499999739,
      "v": 127
    },
    {
      "midi": 67,
      "hit": false,
      "t": 138145.17049999986,
      "d": 395.1613166666357,
      "v": 127
    },
    {
      "midi": 45,
      "hit": false,
      "t": 138387.10599999985,
      "d": 548.387133333279,
      "v": 112
    },
    {
      "midi": 55,
      "hit": false,
      "t": 138629.04149999982,
      "d": 338.7096999999776,
      "v": 127
    },
    {
      "midi": 60,
      "hit": false,
      "t": 138870.9769999998,
      "d": 177.4193666666397,
      "v": 119
    },
    {
      "midi": 55,
      "hit": false,
      "t": 139112.91249999977,
      "d": 145.16130000000703,
      "v": 105
    },
    {
      "midi": 55,
      "hit": false,
      "t": 139354.8479999998,
      "d": 266.12904999998864,
      "v": 119
    },
    {
      "midi": 60,
      "hit": false,
      "t": 139354.8479999998,
      "d": 435.483899999992,
      "v": 127
    },
    {
      "midi": 67,
      "hit": false,
      "t": 139354.8479999998,
      "d": 443.54841666665743,
      "v": 127
    },
    {
      "midi": 64,
      "hit": false,
      "t": 139354.8479999998,
      "d": 500.0000333333155,
      "v": 127
    },
    {
      "midi": 48,
      "hit": false,
      "t": 139354.8479999998,
      "d": 653.225849999988,
      "v": 127
    },
    {
      "midi": 36,
      "hit": false,
      "t": 139354.8479999998,
      "d": 661.2903666666534,
      "v": 105
    },
    {
      "midi": 57,
      "hit": false,
      "t": 140080.65449999977,
      "d": 201.61291666666511,
      "v": 99
    },
    {
      "midi": 57,
      "hit": false,
      "t": 140322.58999999976,
      "d": 298.3871166666795,
      "v": 105
    },
    {
      "midi": 66,
      "hit": false,
      "t": 140322.58999999976,
      "d": 403.22583333335933,
      "v": 89
    },
    {
      "midi": 62,
      "hit": false,
      "t": 140322.58999999976,
      "d": 427.41938333335565,
      "v": 112
    },
    {
      "midi": 38,
      "hit": false,
      "t": 140322.58999999976,
      "d": 540.3226166667009,
      "v": 94
    },
    {
      "midi": 50,
      "hit": false,
      "t": 140322.58999999976,
      "d": 564.5161666666972,
      "v": 89
    },
    {
      "midi": 55,
      "hit": false,
      "t": 141290.3319999998,
      "d": 395.1613166666939,
      "v": 85
    },
    {
      "midi": 40,
      "hit": false,
      "t": 141290.3319999998,
      "d": 403.22583333335933,
      "v": 85
    },
    {
      "midi": 60,
      "hit": false,
      "t": 141290.3319999998,
      "d": 403.22583333335933,
      "v": 105
    },
    {
      "midi": 52,
      "hit": false,
      "t": 141290.3319999998,
      "d": 435.4839000000211,
      "v": 99
    },
    {
      "midi": 64,
      "hit": false,
      "t": 141290.3319999998,
      "d": 612.9032666666899,
      "v": 127
    },
    {
      "midi": 42,
      "hit": false,
      "t": 142258.07399999982,
      "d": 435.483899999992,
      "v": 10
    },
    {
      "midi": 54,
      "hit": false,
      "t": 142258.07399999982,
      "d": 451.61293333332287,
      "v": 17
    },
    {
      "midi": 57,
      "hit": false,
      "t": 142258.07399999982,
      "d": 508.06454999998095,
      "v": 81
    },
    {
      "midi": 62,
      "hit": false,
      "t": 142258.07399999982,
      "d": 508.06454999998095,
      "v": 65
    },
    {
      "midi": 57,
      "hit": false,
      "t": 143225.8159999998,
      "d": 314.5161500000104,
      "v": 65
    },
    {
      "midi": 62,
      "hit": false,
      "t": 143225.8159999998,
      "d": 346.77421666667215,
      "v": 89
    },
    {
      "midi": 69,
      "hit": false,
      "t": 143225.8159999998,
      "d": 354.8387333333376,
      "v": 89
    },
    {
      "midi": 66,
      "hit": false,
      "t": 143225.8159999998,
      "d": 403.22583333333023,
      "v": 46
    },
    {
      "midi": 43,
      "hit": false,
      "t": 143225.8159999998,
      "d": 1435.4839666666521,
      "v": 77
    },
    {
      "midi": 55,
      "hit": false,
      "t": 143225.8159999998,
      "d": 1459.6775166666484,
      "v": 85
    },
    {
      "midi": 57,
      "hit": false,
      "t": 144193.5579999998,
      "d": 225.80646666666144,
      "v": 81
    },
    {
      "midi": 69,
      "hit": false,
      "t": 144193.5579999998,
      "d": 258.0645333333232,
      "v": 77
    },
    {
      "midi": 66,
      "hit": false,
      "t": 144193.5579999998,
      "d": 298.3871166666504,
      "v": 31
    },
    {
      "midi": 62,
      "hit": false,
      "t": 144193.5579999998,
      "d": 314.5161499999813,
      "v": 89
    },
    {
      "midi": 67,
      "hit": false,
      "t": 144677.42899999977,
      "d": 193.54839999999967,
      "v": 89
    },
    {
      "midi": 43,
      "hit": false,
      "t": 144919.36449999976,
      "d": 1048.3871666666237,
      "v": 94
    },
    {
      "midi": 59,
      "hit": false,
      "t": 145161.29999999976,
      "d": 250.00001666665776,
      "v": 89
    },
    {
      "midi": 62,
      "hit": false,
      "t": 145161.29999999976,
      "d": 370.96776666666847,
      "v": 99
    },
    {
      "midi": 67,
      "hit": false,
      "t": 145161.29999999976,
      "d": 427.41938333332655,
      "v": 57
    },
    {
      "midi": 55,
      "hit": false,
      "t": 145161.29999999976,
      "d": 750.0000499999733,
      "v": 85
    },
    {
      "midi": 59,
      "hit": false,
      "t": 145645.17099999974,
      "d": 314.5161499999813,
      "v": 94
    },
    {
      "midi": 62,
      "hit": false,
      "t": 145887.10649999973,
      "d": 88.70968333331984,
      "v": 112
    },
    {
      "midi": 62,
      "hit": false,
      "t": 146129.04199999972,
      "d": 40.3225833333272,
      "v": 127
    },
    {
      "midi": 55,
      "hit": false,
      "t": 146129.04199999972,
      "d": 72.58064999998896,
      "v": 105
    },
    {
      "midi": 59,
      "hit": false,
      "t": 146129.04199999972,
      "d": 72.58064999998896,
      "v": 119
    },
    {
      "midi": 43,
      "hit": false,
      "t": 146129.04199999972,
      "d": 80.6451666666544,
      "v": 105
    },
    {
      "midi": 67,
      "hit": false,
      "t": 146129.04199999972,
      "d": 80.6451666666544,
      "v": 127
    },
    {
      "midi": 42,
      "hit": false,
      "t": 146370.97749999972,
      "d": 56.45161666665808,
      "v": 112
    },
    {
      "midi": 54,
      "hit": false,
      "t": 146370.97749999972,
      "d": 72.58064999998896,
      "v": 119
    },
    {
      "midi": 57,
      "hit": false,
      "t": 146370.97749999972,
      "d": 96.77419999998529,
      "v": 119
    },
    {
      "midi": 62,
      "hit": false,
      "t": 146370.97749999972,
      "d": 137.0967833333125,
      "v": 127
    },
    {
      "midi": 66,
      "hit": false,
      "t": 146370.97749999972,
      "d": 153.22581666664337,
      "v": 119
    },
    {
      "midi": 57,
      "hit": false,
      "t": 146612.91299999968,
      "d": 338.7097000000067,
      "v": 94
    },
    {
      "midi": 62,
      "hit": false,
      "t": 146854.84849999967,
      "d": 120.96775000001071,
      "v": 112
    },
    {
      "midi": 57,
      "hit": false,
      "t": 147096.7839999997,
      "d": 282.2580833333486,
      "v": 112
    },
    {
      "midi": 69,
      "hit": false,
      "t": 147096.7839999997,
      "d": 306.45163333334494,
      "v": 119
    },
    {
      "midi": 62,
      "hit": false,
      "t": 147096.7839999997,
      "d": 330.64518333334127,
      "v": 119
    },
    {
      "midi": 66,
      "hit": false,
      "t": 147096.7839999997,
      "d": 395.1613166666648,
      "v": 119
    },
    {
      "midi": 52,
      "hit": false,
      "t": 147096.7839999997,
      "d": 1427.4194499999576,
      "v": 112
    },
    {
      "midi": 40,
      "hit": false,
      "t": 147096.7839999997,
      "d": 1443.5484833332885,
      "v": 99
    },
    {
      "midi": 57,
      "hit": false,
      "t": 147580.65499999968,
      "d": 298.3871166666795,
      "v": 99
    },
    {
      "midi": 62,
      "hit": false,
      "t": 148064.5259999997,
      "d": 72.58064999998896,
      "v": 119
    },
    {
      "midi": 69,
      "hit": false,
      "t": 148064.5259999997,
      "d": 137.0967833333125,
      "v": 105
    },
    {
      "midi": 66,
      "hit": false,
      "t": 148064.5259999997,
      "d": 145.16129999997793,
      "v": 77
    },
    {
      "midi": 57,
      "hit": false,
      "t": 148064.5259999997,
      "d": 185.48388333330513,
      "v": 112
    },
    {
      "midi": 71,
      "hit": false,
      "t": 148548.39699999965,
      "d": 80.6451666666544,
      "v": 94
    },
    {
      "midi": 40,
      "hit": false,
      "t": 148790.33249999964,
      "d": 846.7742499999877,
      "v": 89
    },
    {
      "midi": 59,
      "hit": false,
      "t": 149032.26799999963,
      "d": 233.87098333332688,
      "v": 89
    },
    {
      "midi": 62,
      "hit": false,
      "t": 149032.26799999963,
      "d": 290.32259999998496,
      "v": 94
    },
    {
      "midi": 67,
      "hit": false,
      "t": 149032.26799999963,
      "d": 419.3548666666611,
      "v": 85
    },
    {
      "midi": 52,
      "hit": false,
      "t": 149032.26799999963,
      "d": 556.4516500000027,
      "v": 112
    },
    {
      "midi": 59,
      "hit": false,
      "t": 149758.07449999964,
      "d": 161.2903333333379,
      "v": 44
    },
    {
      "midi": 62,
      "hit": false,
      "t": 150000.00999999963,
      "d": 137.0967833333416,
      "v": 105
    },
    {
      "midi": 66,
      "hit": false,
      "t": 150000.00999999963,
      "d": 169.35485000000335,
      "v": 89
    },
    {
      "midi": 59,
      "hit": false,
      "t": 150000.00999999963,
      "d": 362.903250000003,
      "v": 94
    },
    {
      "midi": 47,
      "hit": false,
      "t": 150000.00999999963,
      "d": 838.7097333333804,
      "v": 94
    },
    {
      "midi": 67,
      "hit": false,
      "t": 150241.94549999962,
      "d": 258.0645333333523,
      "v": 81
    },
    {
      "midi": 66,
      "hit": false,
      "t": 150483.88099999964,
      "d": 112.90323333334527,
      "v": 99
    },
    {
      "midi": 55,
      "hit": false,
      "t": 150725.81649999967,
      "d": 177.4193666666688,
      "v": 99
    },
    {
      "midi": 60,
      "hit": false,
      "t": 150967.75199999966,
      "d": 306.45163333334494,
      "v": 119
    },
    {
      "midi": 55,
      "hit": false,
      "t": 150967.75199999966,
      "d": 322.5806666666758,
      "v": 89
    },
    {
      "midi": 67,
      "hit": false,
      "t": 150967.75199999966,
      "d": 346.77421666667215,
      "v": 94
    },
    {
      "midi": 64,
      "hit": false,
      "t": 150967.75199999966,
      "d": 435.483899999992,
      "v": 112
    },
    {
      "midi": 45,
      "hit": false,
      "t": 150967.75199999966,
      "d": 1080.6452333333436,
      "v": 94
    },
    {
      "midi": 55,
      "hit": false,
      "t": 151451.62299999964,
      "d": 290.32260000001406,
      "v": 67
    },
    {
      "midi": 55,
      "hit": false,
      "t": 151935.49399999966,
      "d": 290.32260000001406,
      "v": 105
    },
    {
      "midi": 60,
      "hit": false,
      "t": 151935.49399999966,
      "d": 290.32260000001406,
      "v": 105
    },
    {
      "midi": 64,
      "hit": false,
      "t": 151935.49399999966,
      "d": 346.77421666667215,
      "v": 99
    },
    {
      "midi": 45,
      "hit": false,
      "t": 152419.36499999967,
      "d": 104.83871666667983,
      "v": 94
    },
    {
      "midi": 55,
      "hit": false,
      "t": 152661.3004999997,
      "d": 145.16130000000703,
      "v": 112
    },
    {
      "midi": 55,
      "hit": false,
      "t": 152903.2359999997,
      "d": 209.67743333333055,
      "v": 105
    },
    {
      "midi": 60,
      "hit": false,
      "t": 152903.2359999997,
      "d": 258.0645333333232,
      "v": 119
    },
    {
      "midi": 64,
      "hit": false,
      "t": 152903.2359999997,
      "d": 379.0322833333339,
      "v": 119
    },
    {
      "midi": 67,
      "hit": false,
      "t": 152903.2359999997,
      "d": 516.1290666666755,
      "v": 119
    },
    {
      "midi": 50,
      "hit": false,
      "t": 152903.2359999997,
      "d": 1072.5807166667073,
      "v": 85
    },
    {
      "midi": 38,
      "hit": false,
      "t": 152903.2359999997,
      "d": 1104.838783333369,
      "v": 94
    },
    {
      "midi": 57,
      "hit": false,
      "t": 153629.04249999972,
      "d": 112.90323333334527,
      "v": 49
    },
    {
      "midi": 57,
      "hit": false,
      "t": 153870.97799999974,
      "d": 201.61291666666511,
      "v": 112
    },
    {
      "midi": 62,
      "hit": false,
      "t": 153870.97799999974,
      "d": 241.93549999999232,
      "v": 112
    },
    {
      "midi": 66,
      "hit": false,
      "t": 153870.97799999974,
      "d": 298.3871166666504,
      "v": 89
    },
    {
      "midi": 38,
      "hit": false,
      "t": 154354.84899999973,
      "d": 88.70968333331984,
      "v": 89
    },
    {
      "midi": 50,
      "hit": false,
      "t": 154354.84899999973,
      "d": 120.9677499999816,
      "v": 81
    },
    {
      "midi": 62,
      "hit": false,
      "t": 154838.7199999997,
      "d": 290.32260000001406,
      "v": 105
    },
    {
      "midi": 67,
      "hit": false,
      "t": 154838.7199999997,
      "d": 475.8064833333483,
      "v": 112
    },
    {
      "midi": 55,
      "hit": false,
      "t": 154838.7199999997,
      "d": 1387.0968666666886,
      "v": 99
    },
    {
      "midi": 43,
      "hit": false,
      "t": 154838.7199999997,
      "d": 1427.4194500000158,
      "v": 74
    },
    {
      "midi": 62,
      "hit": false,
      "t": 155322.59099999972,
      "d": 145.16130000000703,
      "v": 112
    },
    {
      "midi": 62,
      "hit": false,
      "t": 155806.46199999974,
      "d": 233.87098333332688,
      "v": 112
    },
    {
      "midi": 67,
      "hit": false,
      "t": 155806.46199999974,
      "d": 322.5806666666467,
      "v": 105
    },
    {
      "midi": 69,
      "hit": false,
      "t": 156048.39749999973,
      "d": 209.67743333333055,
      "v": 105
    },
    {
      "midi": 71,
      "hit": false,
      "t": 156290.33299999972,
      "d": 104.83871666667983,
      "v": 105
    },
    {
      "midi": 67,
      "hit": false,
      "t": 156532.26849999974,
      "d": 145.16130000000703,
      "v": 112
    },
    {
      "midi": 62,
      "hit": false,
      "t": 156532.26849999974,
      "d": 169.35485000000335,
      "v": 105
    },
    {
      "midi": 69,
      "hit": false,
      "t": 156774.20399999974,
      "d": 104.83871666665073,
      "v": 105
    },
    {
      "midi": 71,
      "hit": false,
      "t": 156774.20399999974,
      "d": 306.45163333328674,
      "v": 112
    },
    {
      "midi": 52,
      "hit": false,
      "t": 156774.20399999974,
      "d": 1379.0323499999358,
      "v": 119
    },
    {
      "midi": 40,
      "hit": false,
      "t": 156774.20399999974,
      "d": 1459.6775166665902,
      "v": 94
    },
    {
      "midi": 69,
      "hit": false,
      "t": 157016.1394999997,
      "d": 274.1935666666541,
      "v": 112
    },
    {
      "midi": 67,
      "hit": false,
      "t": 157258.0749999997,
      "d": 274.1935666666541,
      "v": 119
    },
    {
      "midi": 69,
      "hit": false,
      "t": 157500.01049999968,
      "d": 435.483899999992,
      "v": 112
    },
    {
      "midi": 62,
      "hit": false,
      "t": 157741.94599999968,
      "d": 338.7097000000067,
      "v": 119
    },
    {
      "midi": 67,
      "hit": false,
      "t": 157983.88149999967,
      "d": 96.77420000001439,
      "v": 119
    },
    {
      "midi": 66,
      "hit": false,
      "t": 158225.81699999966,
      "d": 72.58064999998896,
      "v": 112
    },
    {
      "midi": 55,
      "hit": false,
      "t": 158467.75249999965,
      "d": 120.96775000001071,
      "v": 70
    },
    {
      "midi": 55,
      "hit": false,
      "t": 158709.68799999967,
      "d": 72.58064999998896,
      "v": 99
    },
    {
      "midi": 60,
      "hit": false,
      "t": 158709.68799999967,
      "d": 403.22583333333023,
      "v": 112
    },
    {
      "midi": 64,
      "hit": false,
      "t": 158709.68799999967,
      "d": 491.9355166666501,
      "v": 105
    },
    {
      "midi": 67,
      "hit": false,
      "t": 158709.68799999967,
      "d": 508.06454999998095,
      "v": 99
    },
    {
      "midi": 45,
      "hit": false,
      "t": 158709.68799999967,
      "d": 1193.5484666666598,
      "v": 94
    },
    {
      "midi": 55,
      "hit": false,
      "t": 159193.55899999966,
      "d": 338.7097000000067,
      "v": 112
    },
    {
      "midi": 55,
      "hit": false,
      "t": 159677.42999999967,
      "d": 185.48388333333423,
      "v": 94
    },
    {
      "midi": 60,
      "hit": false,
      "t": 159677.42999999967,
      "d": 282.2580833333195,
      "v": 119
    },
    {
      "midi": 64,
      "hit": false,
      "t": 159677.42999999967,
      "d": 306.45163333331584,
      "v": 112
    },
    {
      "midi": 45,
      "hit": false,
      "t": 160161.30099999966,
      "d": 129.03226666667615,
      "v": 94
    },
    {
      "midi": 55,
      "hit": false,
      "t": 160403.23649999968,
      "d": 153.22581666667247,
      "v": 105
    },
    {
      "midi": 55,
      "hit": false,
      "t": 160645.17199999967,
      "d": 185.48388333333423,
      "v": 119
    },
    {
      "midi": 60,
      "hit": false,
      "t": 160645.17199999967,
      "d": 209.67743333333055,
      "v": 112
    },
    {
      "midi": 64,
      "hit": false,
      "t": 160645.17199999967,
      "d": 282.2580833333195,
      "v": 112
    },
    {
      "midi": 67,
      "hit": false,
      "t": 160645.17199999967,
      "d": 322.5806666666467,
      "v": 105
    },
    {
      "midi": 50,
      "hit": false,
      "t": 160645.17199999967,
      "d": 1088.709750000009,
      "v": 94
    },
    {
      "midi": 38,
      "hit": false,
      "t": 160645.17199999967,
      "d": 1104.83878333334,
      "v": 65
    },
    {
      "midi": 57,
      "hit": false,
      "t": 161129.04299999966,
      "d": 290.32260000001406,
      "v": 119
    },
    {
      "midi": 57,
      "hit": false,
      "t": 161612.91399999967,
      "d": 185.48388333333423,
      "v": 119
    },
    {
      "midi": 62,
      "hit": false,
      "t": 161612.91399999967,
      "d": 185.48388333333423,
      "v": 119
    },
    {
      "midi": 66,
      "hit": false,
      "t": 161612.91399999967,
      "d": 241.93549999999232,
      "v": 85
    },
    {
      "midi": 69,
      "hit": false,
      "t": 161612.91399999967,
      "d": 241.93549999999232,
      "v": 112
    },
    {
      "midi": 38,
      "hit": false,
      "t": 162096.78499999965,
      "d": 80.6451666666544,
      "v": 94
    },
    {
      "midi": 50,
      "hit": false,
      "t": 162096.78499999965,
      "d": 104.83871666665073,
      "v": 89
    },
    {
      "midi": 59,
      "hit": false,
      "t": 162338.72049999965,
      "d": 112.90323333334527,
      "v": 85
    },
    {
      "midi": 59,
      "hit": false,
      "t": 162580.65599999967,
      "d": 96.77419999998529,
      "v": 112
    },
    {
      "midi": 62,
      "hit": false,
      "t": 162580.65599999967,
      "d": 137.0967833333125,
      "v": 119
    },
    {
      "midi": 67,
      "hit": false,
      "t": 162580.65599999967,
      "d": 177.4193666666397,
      "v": 112
    },
    {
      "midi": 55,
      "hit": false,
      "t": 162580.65599999967,
      "d": 1483.8710666666448,
      "v": 94
    },
    {
      "midi": 43,
      "hit": false,
      "t": 162580.65599999967,
      "d": 1500.0000999999756,
      "v": 85
    },
    {
      "midi": 62,
      "hit": false,
      "t": 163064.52699999965,
      "d": 346.77421666667215,
      "v": 105
    },
    {
      "midi": 67,
      "hit": false,
      "t": 163306.46249999964,
      "d": 129.03226666667615,
      "v": 99
    },
    {
      "midi": 67,
      "hit": false,
      "t": 163548.39799999967,
      "d": 112.90323333334527,
      "v": 119
    },
    {
      "midi": 74,
      "hit": false,
      "t": 163548.39799999967,
      "d": 112.90323333334527,
      "v": 112
    },
    {
      "midi": 62,
      "hit": false,
      "t": 163548.39799999967,
      "d": 161.2903333333379,
      "v": 112
    },
    {
      "midi": 72,
      "hit": false,
      "t": 163790.33349999966,
      "d": 185.48388333333423,
      "v": 119
    },
    {
      "midi": 62,
      "hit": false,
      "t": 163790.33349999966,
      "d": 298.3871166666504,
      "v": 48
    },
    {
      "midi": 71,
      "hit": false,
      "t": 164032.26899999965,
      "d": 193.54839999999967,
      "v": 105
    },
    {
      "midi": 62,
      "hit": false,
      "t": 164274.20449999964,
      "d": 145.16130000000703,
      "v": 105
    },
    {
      "midi": 71,
      "hit": false,
      "t": 164516.13999999966,
      "d": 112.90323333334527,
      "v": 112
    },
    {
      "midi": 67,
      "hit": false,
      "t": 164516.13999999966,
      "d": 120.96775000001071,
      "v": 127
    },
    {
      "midi": 62,
      "hit": false,
      "t": 164516.13999999966,
      "d": 387.09680000002845,
      "v": 112
    },
    {
      "midi": 52,
      "hit": false,
      "t": 164516.13999999966,
      "d": 1411.290416666714,
      "v": 99
    },
    {
      "midi": 40,
      "hit": false,
      "t": 164516.13999999966,
      "d": 1467.742033333372,
      "v": 105
    },
    {
      "midi": 69,
      "hit": false,
      "t": 164758.0754999997,
      "d": 266.12905000001774,
      "v": 112
    },
    {
      "midi": 67,
      "hit": false,
      "t": 165000.0109999997,
      "d": 274.1935666666541,
      "v": 112
    },
    {
      "midi": 69,
      "hit": false,
      "t": 165241.9464999997,
      "d": 354.8387333333376,
      "v": 112
    },
    {
      "midi": 62,
      "hit": false,
      "t": 165483.8819999997,
      "d": 379.032283333363,
      "v": 112
    },
    {
      "midi": 67,
      "hit": false,
      "t": 165725.8174999997,
      "d": 169.35485000000335,
      "v": 119
    },
    {
      "midi": 71,
      "hit": false,
      "t": 165967.7529999997,
      "d": 72.58064999998896,
      "v": 94
    },
    {
      "midi": 53,
      "hit": false,
      "t": 166209.6884999997,
      "d": 225.80646666666144,
      "v": 19
    },
    {
      "midi": 60,
      "hit": false,
      "t": 166451.6239999997,
      "d": 1209.6775000000198,
      "v": 89
    },
    {
      "midi": 64,
      "hit": false,
      "t": 166451.6239999997,
      "d": 1258.0646000000124,
      "v": 89
    },
    {
      "midi": 67,
      "hit": false,
      "t": 166451.6239999997,
      "d": 1266.1291166666779,
      "v": 81
    },
    {
      "midi": 45,
      "hit": false,
      "t": 166451.6239999997,
      "d": 1451.613000000012,
      "v": 94
    },
    {
      "midi": 55,
      "hit": false,
      "t": 168145.1724999997,
      "d": 209.67743333333055,
      "v": 62
    },
    {
      "midi": 60,
      "hit": false,
      "t": 168387.1079999997,
      "d": 346.77421666667215,
      "v": 70
    },
    {
      "midi": 64,
      "hit": false,
      "t": 168387.1079999997,
      "d": 362.903250000003,
      "v": 77
    },
    {
      "midi": 67,
      "hit": false,
      "t": 168387.1079999997,
      "d": 370.96776666666847,
      "v": 89
    },
    {
      "midi": 38,
      "hit": false,
      "t": 168387.1079999997,
      "d": 1330.6452500000014,
      "v": 34
    },
    {
      "midi": 50,
      "hit": false,
      "t": 168387.1079999997,
      "d": 1346.7742833333323,
      "v": 67
    },
    {
      "midi": 57,
      "hit": false,
      "t": 169354.8499999997,
      "d": 362.903250000003,
      "v": 16
    },
    {
      "midi": 62,
      "hit": false,
      "t": 169354.8499999997,
      "d": 427.41938333332655,
      "v": 77
    },
    {
      "midi": 66,
      "hit": false,
      "t": 169354.8499999997,
      "d": 427.41938333332655,
      "v": 34
    },
    {
      "midi": 69,
      "hit": false,
      "t": 169354.8499999997,
      "d": 443.54841666665743,
      "v": 85
    },
    {
      "midi": 57,
      "hit": false,
      "t": 170322.59199999968,
      "d": 330.64518333334127,
      "v": 67
    },
    {
      "midi": 62,
      "hit": false,
      "t": 170322.59199999968,
      "d": 395.1613166666648,
      "v": 65
    },
    {
      "midi": 69,
      "hit": false,
      "t": 170322.59199999968,
      "d": 419.3548666666611,
      "v": 77
    },
    {
      "midi": 55,
      "hit": false,
      "t": 170322.59199999968,
      "d": 1185.4839499999653,
      "v": 81
    },
    {
      "midi": 43,
      "hit": false,
      "t": 170322.59199999968,
      "d": 1233.871049999958,
      "v": 62
    },
    {
      "midi": 57,
      "hit": false,
      "t": 170806.46299999967,
      "d": 266.12904999998864,
      "v": 85
    },
    {
      "midi": 57,
      "hit": false,
      "t": 171290.33399999965,
      "d": 362.903250000003,
      "v": 94
    },
    {
      "midi": 62,
      "hit": false,
      "t": 171290.33399999965,
      "d": 387.09679999999935,
      "v": 94
    },
    {
      "midi": 69,
      "hit": false,
      "t": 171290.33399999965,
      "d": 387.09679999999935,
      "v": 85
    },
    {
      "midi": 43,
      "hit": false,
      "t": 171774.20499999967,
      "d": 258.0645333333232,
      "v": 89
    },
    {
      "midi": 67,
      "hit": false,
      "t": 172016.14049999966,
      "d": 758.0645666666678,
      "v": 81
    },
    {
      "midi": 59,
      "hit": false,
      "t": 172258.07599999965,
      "d": 314.5161500000104,
      "v": 94
    },
    {
      "midi": 62,
      "hit": false,
      "t": 172258.07599999965,
      "d": 370.96776666666847,
      "v": 99
    },
    {
      "midi": 43,
      "hit": false,
      "t": 172258.07599999965,
      "d": 1185.4839499999653,
      "v": 89
    },
    {
      "midi": 55,
      "hit": false,
      "t": 172258.07599999965,
      "d": 1193.5484666666307,
      "v": 85
    },
    {
      "midi": 59,
      "hit": false,
      "t": 172741.94699999967,
      "d": 427.41938333332655,
      "v": 74
    },
    {
      "midi": 62,
      "hit": false,
      "t": 172983.88249999966,
      "d": 129.03226666667615,
      "v": 99
    },
    {
      "midi": 59,
      "hit": false,
      "t": 173225.81799999965,
      "d": 64.51613333332352,
      "v": 43
    },
    {
      "midi": 62,
      "hit": false,
      "t": 173225.81799999965,
      "d": 88.70968333331984,
      "v": 94
    },
    {
      "midi": 67,
      "hit": false,
      "t": 173225.81799999965,
      "d": 129.03226666664705,
      "v": 105
    },
    {
      "midi": 57,
      "hit": false,
      "t": 173467.7534999996,
      "d": 120.96775000001071,
      "v": 99
    },
    {
      "midi": 62,
      "hit": false,
      "t": 173467.7534999996,
      "d": 153.22581666667247,
      "v": 119
    },
    {
      "midi": 66,
      "hit": false,
      "t": 173467.7534999996,
      "d": 185.48388333333423,
      "v": 112
    },
    {
      "midi": 42,
      "hit": false,
      "t": 173709.6889999996,
      "d": 88.70968333331984,
      "v": 85
    },
    {
      "midi": 54,
      "hit": false,
      "t": 173709.6889999996,
      "d": 104.83871666665073,
      "v": 99
    },
    {
      "midi": 57,
      "hit": false,
      "t": 173951.6244999996,
      "d": 185.48388333333423,
      "v": 112
    },
    {
      "midi": 57,
      "hit": false,
      "t": 174193.5599999996,
      "d": 330.64518333334127,
      "v": 89
    },
    {
      "midi": 62,
      "hit": false,
      "t": 174193.5599999996,
      "d": 338.7097000000067,
      "v": 112
    },
    {
      "midi": 69,
      "hit": false,
      "t": 174193.5599999996,
      "d": 346.77421666667215,
      "v": 112
    },
    {
      "midi": 66,
      "hit": false,
      "t": 174193.5599999996,
      "d": 411.29034999999567,
      "v": 99
    },
    {
      "midi": 52,
      "hit": false,
      "t": 174193.5599999996,
      "d": 1419.3549333333212,
      "v": 99
    },
    {
      "midi": 40,
      "hit": false,
      "t": 174193.5599999996,
      "d": 1427.4194499999867,
      "v": 94
    },
    {
      "midi": 57,
      "hit": false,
      "t": 174677.43099999957,
      "d": 250.00001666665776,
      "v": 74
    },
    {
      "midi": 62,
      "hit": false,
      "t": 175161.30199999956,
      "d": 96.77420000001439,
      "v": 105
    },
    {
      "midi": 57,
      "hit": false,
      "t": 175161.30199999956,
      "d": 137.0967833333416,
      "v": 105
    },
    {
      "midi": 66,
      "hit": false,
      "t": 175161.30199999956,
      "d": 145.16130000000703,
      "v": 85
    },
    {
      "midi": 69,
      "hit": false,
      "t": 175161.30199999956,
      "d": 153.22581666667247,
      "v": 105
    },
    {
      "midi": 71,
      "hit": false,
      "t": 175645.17299999957,
      "d": 80.6451666666544,
      "v": 89
    },
    {
      "midi": 40,
      "hit": false,
      "t": 175887.10849999957,
      "d": 927.4194166666421,
      "v": 85
    },
    {
      "midi": 59,
      "hit": false,
      "t": 176129.04399999956,
      "d": 225.80646666666144,
      "v": 89
    },
    {
      "midi": 62,
      "hit": false,
      "t": 176129.04399999956,
      "d": 387.09679999999935,
      "v": 105
    },
    {
      "midi": 67,
      "hit": false,
      "t": 176129.04399999956,
      "d": 443.54841666665743,
      "v": 94
    },
    {
      "midi": 52,
      "hit": false,
      "t": 176129.04399999956,
      "d": 604.8387499999953,
      "v": 99
    },
    {
      "midi": 57,
      "hit": false,
      "t": 176612.91499999954,
      "d": 217.741949999996,
      "v": 94
    },
    {
      "midi": 57,
      "hit": false,
      "t": 177096.78599999953,
      "d": 112.90323333334527,
      "v": 94
    },
    {
      "midi": 62,
      "hit": false,
      "t": 177096.78599999953,
      "d": 112.90323333334527,
      "v": 99
    },
    {
      "midi": 66,
      "hit": false,
      "t": 177096.78599999953,
      "d": 274.1935666666832,
      "v": 74
    },
    {
      "midi": 47,
      "hit": false,
      "t": 177096.78599999953,
      "d": 709.6774666667043,
      "v": 94
    },
    {
      "midi": 67,
      "hit": false,
      "t": 177338.72149999955,
      "d": 330.64518333334127,
      "v": 94
    },
    {
      "midi": 53,
      "hit": false,
      "t": 177822.59249999956,
      "d": 104.83871666667983,
      "v": 23
    },
    {
      "midi": 55,
      "hit": false,
      "t": 177822.59249999956,
      "d": 1354.8388000000268,
      "v": 62
    },
    {
      "midi": 45,
      "hit": false,
      "t": 178064.52799999958,
      "d": 1258.0646000000124,
      "v": 85
    },
    {
      "midi": 60,
      "hit": false,
      "t": 178064.52799999958,
      "d": 1282.2581500000088,
      "v": 81
    },
    {
      "midi": 67,
      "hit": false,
      "t": 178064.52799999958,
      "d": 1282.2581500000088,
      "v": 89
    },
    {
      "midi": 64,
      "hit": false,
      "t": 178064.52799999958,
      "d": 1306.451700000005,
      "v": 77
    },
    {
      "midi": 57,
      "hit": false,
      "t": 179822.5926333329,
      "d": 1217.7420166666561,
      "v": 77
    },
    {
      "midi": 62,
      "hit": false,
      "t": 179903.23779999957,
      "d": 1032.258133333351,
      "v": 85
    },
    {
      "midi": 50,
      "hit": false,
      "t": 179959.68941666622,
      "d": 1217.7420166666852,
      "v": 65
    },
    {
      "midi": 66,
      "hit": false,
      "t": 179967.7539333329,
      "d": 1008.0645833333547,
      "v": 81
    },
    {
      "midi": 38,
      "hit": false,
      "t": 179983.88296666622,
      "d": 1209.6775000000198,
      "v": 19
    },
    {
      "midi": 57,
      "hit": false,
      "t": 181846.78631666623,
      "d": 3306.4518333332962,
      "v": 57
    },
    {
      "midi": 59,
      "hit": false,
      "t": 181919.36696666622,
      "d": 3209.677633333311,
      "v": 85
    },
    {
      "midi": 62,
      "hit": false,
      "t": 182000.01213333287,
      "d": 3137.096983333322,
      "v": 99
    },
    {
      "midi": 43,
      "hit": false,
      "t": 182000.01213333287,
      "d": 3782.2583166666445,
      "v": 89
    }
  ]
}